<svg width="40" height="40" viewBox="0 0 40 40" fill="none" xmlns="http://www.w3.org/2000/svg">
<rect x="-0.000976562" width="40" height="40" rx="6" fill="url(#paint0_linear_28_3270)"/>
<g filter="url(#filter0_d_28_3270)">
<path d="M27.0498 11.9785L27.0293 11.9664L26.9819 11.9519C27.001 11.9681 27.0248 11.9774 27.0498 11.9785Z" fill="#0D0C22"/>
<path d="M27.3426 14.1217L27.3213 14.1278L27.3426 14.1217Z" fill="#0D0C22"/>
<path d="M27.0569 11.9751C27.0542 11.9747 27.0515 11.9741 27.0489 11.9732C27.0488 11.9749 27.0488 11.9767 27.0489 11.9785C27.0519 11.9781 27.0546 11.9769 27.0569 11.9751Z" fill="#0D0C22"/>
<path d="M27.0488 11.9787H27.0518V11.9769L27.0488 11.9787Z" fill="#0D0C22"/>
<path d="M27.3252 14.1179L27.3597 14.0981L27.3726 14.0908L27.3842 14.0783C27.3623 14.0878 27.3423 14.1012 27.3252 14.1179Z" fill="#0D0C22"/>
<path d="M27.1088 12.0254L27.0751 11.9931L27.0522 11.9806C27.0645 12.0024 27.0849 12.0185 27.1088 12.0254Z" fill="#0D0C22"/>
<path d="M18.7298 32.8228C18.7028 32.8345 18.6792 32.8528 18.6611 32.876L18.6824 32.8624C18.6969 32.849 18.7173 32.8333 18.7298 32.8228Z" fill="#0D0C22"/>
<path d="M23.5948 31.8482C23.5948 31.8177 23.58 31.8233 23.5836 31.9322C23.5836 31.9235 23.5872 31.9146 23.5888 31.9061C23.5908 31.8867 23.5924 31.8677 23.5948 31.8482Z" fill="#0D0C22"/>
<path d="M23.0906 32.8228C23.0637 32.8345 23.0401 32.8528 23.022 32.876L23.0433 32.8624C23.0577 32.849 23.0782 32.8333 23.0906 32.8228Z" fill="#0D0C22"/>
<path d="M15.3032 33.0545C15.2828 33.0367 15.2577 33.025 15.231 33.0205C15.2526 33.0311 15.2743 33.0416 15.2887 33.0496L15.3032 33.0545Z" fill="#0D0C22"/>
<path d="M14.5319 32.3028C14.5287 32.2711 14.519 32.2404 14.5034 32.2125C14.5145 32.2413 14.5237 32.2711 14.5311 32.3011L14.5319 32.3028Z" fill="#0D0C22"/>
<path d="M19.7108 18.8585C18.6522 19.3198 17.451 19.8429 15.8941 19.8429C15.2428 19.8415 14.5946 19.7506 13.9673 19.5725L15.0441 30.8267C15.0822 31.297 15.2927 31.7356 15.6338 32.0553C15.9748 32.375 16.4216 32.5523 16.8852 32.5523C16.8852 32.5523 18.412 32.633 18.9214 32.633C19.4697 32.633 21.1138 32.5523 21.1138 32.5523C21.5774 32.5523 22.024 32.3748 22.365 32.0551C22.706 31.7354 22.9165 31.297 22.9546 30.8267L24.1079 18.3903C23.5925 18.2112 23.0723 18.0921 22.486 18.0921C21.4718 18.0917 20.6547 18.4473 19.7108 18.8585Z" fill="#FFDD00"/>
<path d="M10.6338 14.057L10.6523 14.0744L10.6643 14.0817C10.655 14.0724 10.6448 14.0641 10.6338 14.057Z" fill="#0D0C22"/>
<path d="M29.0871 13.0183L28.925 12.1857C28.7795 11.4387 28.4492 10.7328 27.6959 10.4628C27.4545 10.3764 27.1805 10.3393 26.9954 10.1605C26.8103 9.98173 26.7555 9.70406 26.7127 9.44656C26.6334 8.97395 26.5589 8.50094 26.4776 8.02915C26.4075 7.62353 26.3519 7.16788 26.1692 6.79577C25.9313 6.29613 25.4377 6.00393 24.9469 5.81061C24.6954 5.71504 24.4387 5.63419 24.1782 5.56846C22.9519 5.23912 21.6626 5.11805 20.4011 5.04903C18.8869 4.96398 17.3687 4.9896 15.8581 5.12572C14.7338 5.22984 13.5495 5.35576 12.4811 5.75169C12.0906 5.89657 11.6882 6.07052 11.3912 6.37765C11.0269 6.75501 10.9079 7.3386 11.174 7.80918C11.3631 8.14336 11.6834 8.37946 12.0232 8.53565C12.4657 8.7369 12.9279 8.89005 13.4021 8.99253C14.7223 9.28957 16.0896 9.40619 17.4384 9.45585C18.9333 9.51725 20.4306 9.46748 21.9184 9.3069C22.2863 9.26574 22.6535 9.21636 23.0201 9.1588C23.4519 9.09139 23.729 8.51668 23.6017 8.11631C23.4495 7.63767 23.0403 7.45202 22.5777 7.52426C22.5095 7.53515 22.4417 7.54523 22.3735 7.55532L22.3243 7.56259C22.1676 7.58279 22.0109 7.6016 21.8541 7.6191C21.5304 7.65461 21.2058 7.68367 20.8804 7.70628C20.1517 7.75793 19.4211 7.78174 18.6908 7.78296C17.9732 7.78296 17.2552 7.76236 16.5392 7.71435C16.2125 7.69256 15.8866 7.66483 15.5616 7.6312C15.4137 7.61546 15.2662 7.59892 15.1187 7.58035L14.9784 7.56219L14.9479 7.55776L14.8023 7.53637C14.505 7.49075 14.2077 7.4383 13.9135 7.37492C13.8838 7.36821 13.8572 7.35142 13.8382 7.32727C13.8192 7.30313 13.8088 7.2731 13.8088 7.24215C13.8088 7.21119 13.8192 7.18116 13.8382 7.15702C13.8572 7.13288 13.8838 7.11607 13.9135 7.10936H13.919C14.174 7.05407 14.4309 7.00685 14.6885 6.96568C14.7745 6.95196 14.8606 6.93851 14.947 6.92533H14.9494C15.1108 6.91443 15.2729 6.88497 15.4335 6.86559C16.8305 6.71767 18.2358 6.66724 19.6395 6.71465C20.321 6.73483 21.0021 6.77559 21.6805 6.84582C21.8264 6.86116 21.9715 6.8773 22.1166 6.89546C22.1721 6.90232 22.228 6.91039 22.2839 6.91725L22.3965 6.9338C22.7248 6.98358 23.0513 7.04398 23.3761 7.11501C23.8574 7.22156 24.4755 7.25627 24.6896 7.79304C24.7578 7.96336 24.7887 8.15264 24.8264 8.33142L24.8743 8.55946C24.8756 8.56354 24.8765 8.56774 24.8771 8.57196C24.9905 9.11009 25.104 9.64821 25.2177 10.1863C25.226 10.2261 25.2262 10.2672 25.2183 10.307C25.2103 10.3468 25.1944 10.3846 25.1715 10.4179C25.1486 10.4511 25.1191 10.4793 25.0851 10.5005C25.051 10.5217 25.013 10.5355 24.9735 10.5411H24.9703L24.9009 10.5508L24.8323 10.5601C24.6151 10.5889 24.3975 10.6158 24.1798 10.6408C23.7508 10.6906 23.3212 10.7336 22.8909 10.7699C22.0358 10.8423 21.1791 10.8898 20.3206 10.9124C19.8832 10.9242 19.4459 10.9298 19.0088 10.9289C17.2687 10.9276 15.5302 10.8246 13.8017 10.6206C13.6146 10.598 13.4274 10.5738 13.2403 10.5492C13.3854 10.5681 13.1348 10.5346 13.0841 10.5274C12.9652 10.5104 12.8462 10.4928 12.7273 10.4745C12.328 10.4135 11.9312 10.3385 11.5328 10.2727C11.0511 10.192 10.5904 10.2324 10.1547 10.4745C9.79702 10.6737 9.50756 10.9793 9.32489 11.3503C9.13697 11.7458 9.08107 12.1764 8.99702 12.6014C8.91297 13.0264 8.78214 13.4837 8.83169 13.92C8.93834 14.8615 9.58496 15.6267 10.5151 15.7979C11.39 15.9593 12.2698 16.0901 13.1519 16.2014C16.6171 16.6335 20.1178 16.6852 23.5938 16.3556C23.8769 16.3287 24.1595 16.2994 24.4418 16.2676C24.53 16.2578 24.6192 16.2681 24.7029 16.2979C24.7867 16.3277 24.8628 16.3762 24.9257 16.4398C24.9887 16.5034 25.0368 16.5805 25.0667 16.6655C25.0966 16.7506 25.1074 16.8413 25.0983 16.9311L25.0103 17.8021C24.833 19.562 24.6556 21.3218 24.4783 23.0815C24.2933 24.9294 24.1071 26.7771 23.9197 28.6247C23.8668 29.1451 23.814 29.6654 23.7611 30.1854C23.7103 30.6977 23.7032 31.2259 23.6077 31.7321C23.457 32.5279 22.9277 33.0168 22.1555 33.1955C21.4479 33.3594 20.7251 33.4455 19.9995 33.4521C19.1951 33.4566 18.3911 33.4202 17.5867 33.4247C16.7279 33.4296 15.6761 33.3489 15.0133 32.6982C14.4309 32.1268 14.3504 31.232 14.2711 30.4582C14.1654 29.4339 14.0606 28.4098 13.9567 27.3858L13.3739 21.6915L12.9969 18.0071C12.9905 17.9462 12.9842 17.886 12.9782 17.8247C12.933 17.3852 12.6274 16.955 12.1457 16.9772C11.7334 16.9957 11.2648 17.3525 11.3131 17.8247L11.5926 20.5562L12.1706 26.2065C12.3353 27.8114 12.4996 29.4165 12.6635 31.0221C12.6952 31.3296 12.7249 31.638 12.7582 31.9455C12.9394 33.6261 14.2001 34.5318 15.7614 34.7867C16.6732 34.9361 17.6073 34.9669 18.5326 34.9821C19.7188 35.0016 20.9169 35.048 22.0837 34.8292C23.8126 34.5062 25.1098 33.3311 25.295 31.5081C25.3479 30.9817 25.4007 30.4554 25.4536 29.9288C25.6293 28.1874 25.8048 26.4459 25.9801 24.7043L26.5534 19.0137L26.8162 16.4057C26.8293 16.2763 26.8829 16.1547 26.9692 16.0589C27.0554 15.963 27.1697 15.898 27.2951 15.8733C27.7895 15.7753 28.2621 15.6078 28.6137 15.2247C29.1735 14.6149 29.2849 13.8199 29.0871 13.0183ZM10.4897 13.5809C10.4972 13.5773 10.4833 13.6431 10.4774 13.6738C10.4762 13.6273 10.4786 13.5862 10.4897 13.5809ZM10.5377 13.9587C10.5416 13.9559 10.5535 13.972 10.5658 13.9914C10.5472 13.9736 10.5353 13.9603 10.5373 13.9587H10.5377ZM10.5848 14.0221C10.6019 14.0515 10.611 14.0701 10.5848 14.0221V14.0221ZM10.6796 14.1004H10.682C10.682 14.1032 10.6863 14.106 10.6879 14.1088C10.6853 14.1057 10.6824 14.1029 10.6792 14.1004H10.6796ZM27.2721 13.9833C27.0945 14.1552 26.8269 14.2352 26.5625 14.2751C23.597 14.7231 20.5883 14.9499 17.5902 14.8498C15.4446 14.7752 13.3216 14.5326 11.1974 14.2271C10.9892 14.1972 10.7636 14.1585 10.6205 14.0023C10.3509 13.7077 10.4833 13.1144 10.5535 12.7584C10.6177 12.4323 10.7406 11.9977 11.1216 11.9512C11.7163 11.8802 12.4069 12.1357 12.9953 12.2265C13.7036 12.3365 14.4146 12.4246 15.1282 12.4908C18.1738 12.7734 21.2706 12.7294 24.3027 12.3161C24.8553 12.2405 25.406 12.1526 25.9547 12.0525C26.4435 11.9633 26.9855 11.7959 27.2809 12.3112C27.4834 12.6624 27.5104 13.1321 27.4791 13.5289C27.4694 13.7017 27.3952 13.8643 27.2717 13.9833H27.2721Z" fill="#E8E8E8"/>
</g>
<rect x="0.749023" y="0.75" width="38.5" height="38.5" rx="5.25" stroke="white" stroke-opacity="0.15" stroke-width="1.5"/>
<defs>
<filter id="filter0_d_28_3270" x="1.99902" y="1" width="36" height="38" filterUnits="userSpaceOnUse" color-interpolation-filters="sRGB">
<feFlood flood-opacity="0" result="BackgroundImageFix"/>
<feColorMatrix in="SourceAlpha" type="matrix" values="0 0 0 0 0 0 0 0 0 0 0 0 0 0 0 0 0 0 127 0" result="hardAlpha"/>
<feOffset/>
<feGaussianBlur stdDeviation="2"/>
<feComposite in2="hardAlpha" operator="out"/>
<feColorMatrix type="matrix" values="0 0 0 0 0 0 0 0 0 0 0 0 0 0 0 0 0 0 0.25 0"/>
<feBlend mode="normal" in2="BackgroundImageFix" result="effect1_dropShadow_28_3270"/>
<feBlend mode="normal" in="SourceGraphic" in2="effect1_dropShadow_28_3270" result="shape"/>
</filter>
<linearGradient id="paint0_linear_28_3270" x1="19.999" y1="0" x2="19.999" y2="40" gradientUnits="userSpaceOnUse">
<stop stop-color="#554600"/>
<stop offset="1" stop-color="#352C00"/>
</linearGradient>
</defs>
</svg>
