<svg width="40" height="40" viewBox="0 0 40 40" fill="none" xmlns="http://www.w3.org/2000/svg">
<rect x="-0.000976562" y="-6.10352e-05" width="40" height="40" rx="6" fill="url(#paint0_linear_28_3388)"/>
<g filter="url(#filter0_d_28_3388)">
<path d="M10.7495 12.0909C10.7495 12.8953 10.9686 13.6491 11.3505 14.2955H9.9086C9.33598 14.2955 8.7868 14.5229 8.38189 14.9278C7.97699 15.3327 7.74951 15.8819 7.74951 16.4545V19.1818C7.74951 19.9862 8.18969 20.6865 8.84042 21.0587V30.0909C8.84042 31.2828 9.80762 32.25 10.9995 32.25H28.9995C29.5721 32.25 30.1213 32.0225 30.5262 31.6176C30.9311 31.2127 31.1586 30.6635 31.1586 30.0909V21.0589C31.8096 20.6873 32.2495 19.9859 32.2495 19.1818V16.4545C32.2495 15.8819 32.022 15.3327 31.6171 14.9278C31.2122 14.5229 30.663 14.2955 30.0904 14.2955H28.6481C28.9737 13.743 29.174 13.1234 29.232 12.4807C29.3044 11.6778 29.1518 10.8706 28.7912 10.1496C28.4307 9.42855 27.8765 8.82213 27.1908 8.39831C26.505 7.97449 25.7148 7.75 24.9086 7.75C23.3268 7.75 21.243 8.66616 19.9995 10.8543C18.7559 8.66614 16.6712 7.75 15.0904 7.75C13.9391 7.75 12.835 8.20734 12.0209 9.02142C11.2069 9.8355 10.7495 10.9396 10.7495 12.0909ZM15.0904 9.88636C16.1877 9.88636 18.479 10.8368 18.873 14.2955H15.0904C14.5057 14.2955 13.945 14.0632 13.5316 13.6498C13.1181 13.2363 12.8859 12.6756 12.8859 12.0909C12.8859 11.5062 13.1181 10.9455 13.5316 10.5321C13.945 10.1186 14.5057 9.88636 15.0904 9.88636ZM29.0222 21.3409V30.0909C29.0222 30.0969 29.0198 30.1027 29.0156 30.107C29.0113 30.1112 29.0055 30.1136 28.9995 30.1136H21.0677V21.3409H29.0222ZM18.9313 21.3409V30.1136H10.9995C10.987 30.1136 10.9768 30.1034 10.9768 30.0909V21.3409H18.9313ZM30.1065 19.1979C30.1022 19.2021 30.0964 19.2045 30.0904 19.2045H21.0677V16.4318H30.0904C30.0964 16.4318 30.1022 16.4342 30.1065 16.4385C30.1108 16.4427 30.1131 16.4485 30.1131 16.4545V19.1818C30.1131 19.1878 30.1108 19.1936 30.1065 19.1979ZM18.9313 16.4318V19.2045H9.9086C9.89613 19.2045 9.88588 19.1943 9.88588 19.1818V16.4545C9.88588 16.4485 9.88827 16.4427 9.89253 16.4385C9.89679 16.4342 9.90257 16.4318 9.9086 16.4318H18.9313ZM27.1131 12.0909C27.1131 12.6756 26.8809 13.2363 26.4674 13.6498C26.054 14.0632 25.4933 14.2955 24.9086 14.2955H21.126C21.52 10.8368 23.8113 9.88636 24.9086 9.88636C25.4933 9.88636 26.054 10.1186 26.4674 10.5321C26.8809 10.9455 27.1131 11.5062 27.1131 12.0909Z" fill="white" stroke="white" stroke-width="0.5"/>
</g>
<rect x="0.749023" y="0.749939" width="38.5" height="38.5" rx="5.25" stroke="white" stroke-opacity="0.15" stroke-width="1.5"/>
<defs>
<filter id="filter0_d_28_3388" x="1.99902" y="1.99994" width="36" height="36" filterUnits="userSpaceOnUse" color-interpolation-filters="sRGB">
<feFlood flood-opacity="0" result="BackgroundImageFix"/>
<feColorMatrix in="SourceAlpha" type="matrix" values="0 0 0 0 0 0 0 0 0 0 0 0 0 0 0 0 0 0 127 0" result="hardAlpha"/>
<feOffset/>
<feGaussianBlur stdDeviation="2"/>
<feComposite in2="hardAlpha" operator="out"/>
<feColorMatrix type="matrix" values="0 0 0 0 0 0 0 0 0 0 0 0 0 0 0 0 0 0 0.25 0"/>
<feBlend mode="normal" in2="BackgroundImageFix" result="effect1_dropShadow_28_3388"/>
<feBlend mode="normal" in="SourceGraphic" in2="effect1_dropShadow_28_3388" result="shape"/>
</filter>
<linearGradient id="paint0_linear_28_3388" x1="19.999" y1="-6.10351e-05" x2="19.999" y2="39.9999" gradientUnits="userSpaceOnUse">
<stop stop-color="#2D2D2D"/>
<stop offset="1" stop-color="#222222"/>
</linearGradient>
</defs>
</svg>
