<svg width="40" height="40" viewBox="0 0 40 40" fill="none" xmlns="http://www.w3.org/2000/svg">
<rect x="-0.000976562" y="-6.10352e-05" width="40" height="40" rx="6" fill="url(#paint0_linear_28_3351)"/>
<g filter="url(#filter0_d_28_3351)">
<path d="M28.6715 14.9638L14.6016 30.2219H9.44091C9.08253 30.2219 8.79583 29.8658 8.8675 29.5096L12.3079 7.85479C12.3796 7.35616 12.8097 7 13.3114 7H22.0558C28.0766 7.2137 29.7251 10.2767 28.65 14.9781L28.6715 14.9638Z" fill="#0045D9"/>
<path d="M28.901 13.5535C31.0512 14.6932 31.553 16.8302 30.8362 19.6795C29.9044 23.8822 27.1091 25.6631 23.0236 25.7343L21.8768 25.8055C21.4467 25.8055 21.16 26.0905 21.0883 26.5179L20.1565 32.1453C20.0849 32.6439 19.6548 33 19.1531 33H14.8525C14.4942 33 14.2074 32.6439 14.2791 32.2877L15.856 22.1014C15.9277 21.7452 28.901 13.5535 28.901 13.5535Z" fill="#00A4EE"/>
<path d="M15.77 22.6L17.2035 13.5534C17.2506 13.3391 17.3673 13.1463 17.5358 13.0046C17.7042 12.863 17.9149 12.7805 18.1353 12.7698H25.0162C26.6647 12.7698 27.8832 13.0548 28.8867 13.5534C28.5283 16.6876 27.0231 21.7452 19.7122 21.8876H16.5585C16.2001 21.8876 15.8417 22.1726 15.77 22.6Z" fill="#002788"/>
</g>
<rect x="0.749023" y="0.749939" width="38.5" height="38.5" rx="5.25" stroke="white" stroke-opacity="0.15" stroke-width="1.5"/>
<defs>
<filter id="filter0_d_28_3351" x="1.99902" y="1.99994" width="36" height="36" filterUnits="userSpaceOnUse" color-interpolation-filters="sRGB">
<feFlood flood-opacity="0" result="BackgroundImageFix"/>
<feColorMatrix in="SourceAlpha" type="matrix" values="0 0 0 0 0 0 0 0 0 0 0 0 0 0 0 0 0 0 127 0" result="hardAlpha"/>
<feOffset/>
<feGaussianBlur stdDeviation="2"/>
<feComposite in2="hardAlpha" operator="out"/>
<feColorMatrix type="matrix" values="0 0 0 0 0 0 0 0 0 0 0 0 0 0 0 0 0 0 0.25 0"/>
<feBlend mode="normal" in2="BackgroundImageFix" result="effect1_dropShadow_28_3351"/>
<feBlend mode="normal" in="SourceGraphic" in2="effect1_dropShadow_28_3351" result="shape"/>
</filter>
<linearGradient id="paint0_linear_28_3351" x1="19.999" y1="-6.10351e-05" x2="19.999" y2="39.9999" gradientUnits="userSpaceOnUse">
<stop stop-color="#001239"/>
<stop offset="1" stop-color="#001F2D"/>
</linearGradient>
</defs>
</svg>
