<svg width="41" height="40" viewBox="0 0 41 40" fill="none" xmlns="http://www.w3.org/2000/svg">
<rect x="0.0107422" y="-4.57764e-05" width="40" height="40" rx="8" fill="url(#paint0_linear_2_2317)"/>
<g filter="url(#filter0_d_2_2317)">
<path fill-rule="evenodd" clip-rule="evenodd" d="M10.6858 6.10964C10.4222 6.31221 10.3778 6.67094 10.3778 8.59253C10.3778 10.0008 10.3514 10.5178 10.2775 10.564C10.2224 10.5985 9.47105 10.7417 8.60786 10.8823L7.03845 11.138L7.01644 13.233C6.9995 14.8463 7.01846 15.347 7.0989 15.4106C7.16951 15.4665 7.68415 15.4166 8.68746 15.2567C9.50375 15.1267 10.2182 15.0372 10.2752 15.0579C10.3574 15.0878 10.3744 16.5119 10.3576 21.9611L10.3365 28.8266L8.68746 28.8683L7.03845 28.91V31.455V34H14.2117H21.385V31.455V28.91L19.6948 28.8683L18.0045 28.8266L17.9835 21.3353C17.9667 15.3853 17.9837 13.8362 18.0659 13.8064C18.1724 13.7678 27.6528 12.2781 28.0224 12.2419C28.2174 12.2228 28.2298 12.2467 28.2513 12.6807L28.274 13.1396L26.6602 14.6416L25.0465 16.1434L24.5762 16.1852L24.1059 16.2269V17.8958V19.5646H28.5584H33.0107V17.8958V16.2269L32.5804 16.2018L32.1501 16.1767L30.7871 14.6661L29.4241 13.1556V12.6362C29.4241 12.0189 29.4696 11.9699 30.1172 11.8906C30.7306 11.8155 30.8253 11.7778 30.8278 11.6079C30.8317 11.343 30.2254 7.54825 30.169 7.48398C30.1375 7.44819 27.4129 7.85246 24.1144 8.38238C20.8158 8.91224 18.0824 9.32423 18.0401 9.2978C17.9979 9.27136 17.9633 8.67552 17.9633 7.97375C17.9633 6.64793 17.889 6.22717 17.6302 6.08703C17.391 5.95744 10.8562 5.97873 10.6858 6.10964ZM16.626 8.37665C16.6523 9.59601 16.6667 9.56167 16.0814 9.67399L15.6482 9.75712L14.1673 8.57803C13.3528 7.92952 12.6864 7.36625 12.6864 7.32643C12.6864 7.28655 13.5676 7.26401 14.6446 7.27634L16.6028 7.29868L16.626 8.37665ZM13.346 9.49707C13.9643 9.99897 13.944 10.0284 12.858 10.2014C11.6239 10.398 11.697 10.4537 11.697 9.31784C11.697 8.05128 11.5444 8.03466 13.346 9.49707ZM16.6276 14.5381C16.6561 15.0906 16.6168 15.11 16.1813 14.758C16.005 14.6155 15.7888 14.4474 15.7009 14.3844C15.4986 14.2396 15.5449 14.1954 15.9937 14.105C16.5778 13.9875 16.6 14.0027 16.6276 14.5381ZM29.6039 15.1862C30.0265 15.6465 30.3847 16.0595 30.3998 16.1041C30.417 16.1549 29.7779 16.1852 28.6889 16.1852C27.7328 16.1852 26.9496 16.157 26.9484 16.1226C26.9458 16.0496 28.6961 14.3578 28.7794 14.3528C28.8102 14.351 29.1812 14.7261 29.6039 15.1862ZM14.4797 14.9829C15.3868 15.7151 15.4226 15.6914 13.4491 15.6654L11.7382 15.6429L11.7123 15.2769C11.6779 14.7904 11.6935 14.7804 12.7779 14.6037C13.2944 14.5194 13.7356 14.4468 13.7582 14.4422C13.781 14.4376 14.1056 14.6809 14.4797 14.9829ZM16.6256 18.2921C16.6381 19.0149 16.6195 19.6058 16.5843 19.6051C16.4913 19.6035 13.3924 17.1163 13.3591 17.0167C13.3408 16.9616 13.8948 16.9404 14.967 16.9552L16.6028 16.9779L16.6256 18.2921ZM13.5579 18.817C14.4796 19.5494 15.2053 20.1776 15.1704 20.213C15.1355 20.2484 14.349 20.2672 13.4226 20.2547L11.7382 20.2321L11.7155 18.8268C11.699 17.7989 11.7183 17.4301 11.7874 17.4535C11.8394 17.471 12.6361 18.0846 13.5579 18.817ZM16.6258 22.8123C16.6383 23.4971 16.6198 24.0841 16.5845 24.1167C16.5215 24.175 13.4141 21.749 13.3591 21.5987C13.3425 21.5531 13.9953 21.531 14.967 21.5445L16.6028 21.5672L16.6258 22.8123ZM13.5527 23.3757C14.4844 24.118 15.2152 24.7571 15.1768 24.796C15.1384 24.8348 14.349 24.8564 13.4226 24.844L11.7382 24.8214L11.7156 23.4238C11.7011 22.5275 11.7227 22.0261 11.7759 22.0261C11.8215 22.0261 12.621 22.6334 13.5527 23.3757ZM16.6256 27.3872C16.6433 28.411 16.625 28.7002 16.5431 28.6962C16.4066 28.6895 13.4096 26.2731 13.365 26.1338C13.3382 26.0498 13.6729 26.0324 14.967 26.0504L16.6028 26.073L16.6256 27.3872ZM14.5786 28.8077C14.5809 28.8432 13.9428 28.8619 13.1605 28.8494L11.7382 28.8266L11.7149 27.7882C11.7021 27.2171 11.7103 26.7006 11.7331 26.6404C11.7736 26.5336 14.5694 28.663 14.5786 28.8077Z" fill="url(#paint1_linear_2_2317)"/>
</g>
<rect x="1.06074" y="1.04995" width="37.9" height="37.9" rx="6.95" stroke="white" stroke-opacity="0.15" stroke-width="2.1"/>
<defs>
<filter id="filter0_d_2_2317" x="2.01074" y="1.99995" width="36" height="36" filterUnits="userSpaceOnUse" color-interpolation-filters="sRGB">
<feFlood flood-opacity="0" result="BackgroundImageFix"/>
<feColorMatrix in="SourceAlpha" type="matrix" values="0 0 0 0 0 0 0 0 0 0 0 0 0 0 0 0 0 0 127 0" result="hardAlpha"/>
<feOffset/>
<feGaussianBlur stdDeviation="2"/>
<feComposite in2="hardAlpha" operator="out"/>
<feColorMatrix type="matrix" values="0 0 0 0 0 0 0 0 0 0 0 0 0 0 0 0 0 0 0.25 0"/>
<feBlend mode="normal" in2="BackgroundImageFix" result="effect1_dropShadow_2_2317"/>
<feBlend mode="normal" in="SourceGraphic" in2="effect1_dropShadow_2_2317" result="shape"/>
</filter>
<linearGradient id="paint0_linear_2_2317" x1="20.0107" y1="-4.57764e-05" x2="20.0107" y2="39.9999" gradientUnits="userSpaceOnUse">
<stop stop-color="#311D14"/>
<stop offset="1" stop-color="#1C0B0B"/>
</linearGradient>
<linearGradient id="paint1_linear_2_2317" x1="20.0107" y1="5.99995" x2="20.0107" y2="34" gradientUnits="userSpaceOnUse">
<stop stop-color="#E05718"/>
<stop offset="1" stop-color="#D63833"/>
</linearGradient>
</defs>
</svg>
