<svg width="41" height="40" viewBox="0 0 41 40" fill="none" xmlns="http://www.w3.org/2000/svg">
<g clip-path="url(#clip0_2_2345)">
<rect x="0.0107422" y="-6.10352e-05" width="40" height="40" rx="8" fill="url(#paint0_linear_2_2345)"/>
<g filter="url(#filter0_d_2_2345)">
<path d="M5 27V25H11V27H5ZM11 25V23H13V25H11ZM3 25V15H5V25H3ZM11 17V15H13V17H11ZM5 15V13H11V15H5ZM15 27V13H25V15H17V17H21V19H17V25H25V27H15ZM31 19V17H33V19H31ZM27 27V13H29V15H31V17H29V27H27ZM35 27V17H33V15H35V13H37V27H35Z" fill="white"/>
</g>
</g>
<rect x="1.06074" y="1.04994" width="37.9" height="37.9" rx="6.95" stroke="white" stroke-opacity="0.15" stroke-width="2.1"/>
<defs>
<filter id="filter0_d_2_2345" x="-1" y="1.99994" width="42" height="36" filterUnits="userSpaceOnUse" color-interpolation-filters="sRGB">
<feFlood flood-opacity="0" result="BackgroundImageFix"/>
<feColorMatrix in="SourceAlpha" type="matrix" values="0 0 0 0 0 0 0 0 0 0 0 0 0 0 0 0 0 0 127 0" result="hardAlpha"/>
<feOffset/>
<feGaussianBlur stdDeviation="2"/>
<feComposite in2="hardAlpha" operator="out"/>
<feColorMatrix type="matrix" values="0 0 0 0 0 0 0 0 0 0 0 0 0 0 0 0 0 0 0.25 0"/>
<feBlend mode="normal" in2="BackgroundImageFix" result="effect1_dropShadow_2_2345"/>
<feBlend mode="normal" in="SourceGraphic" in2="effect1_dropShadow_2_2345" result="shape"/>
</filter>
<linearGradient id="paint0_linear_2_2345" x1="20.0107" y1="-6.10351e-05" x2="20.0108" y2="38" gradientUnits="userSpaceOnUse">
<stop stop-color="#343434"/>
<stop offset="1" stop-color="#232323"/>
</linearGradient>
<clipPath id="clip0_2_2345">
<rect x="0.0107422" y="-6.10352e-05" width="40" height="40" rx="8" fill="white"/>
</clipPath>
</defs>
</svg>
