<svg width="41" height="40" viewBox="0 0 41 40" fill="none" xmlns="http://www.w3.org/2000/svg">
<rect x="0.0107422" y="-3.05176e-05" width="40" height="40" rx="8" fill="url(#paint0_linear_2_2290)"/>
<g filter="url(#filter0_d_2_2290)">
<path d="M21.0946 6V8.01105H19.0827V12.0331H17.0708V14.0442H15.0588V15.9005H13.0469V17.9116H11.035V19.9226H9.02313V21.9337H7.01123V25.9558H9.02313V27.9668H11.035V29.9779H13.0469V31.9889H15.0588V34H17.0708V31.9889H19.0827V29.9779H21.0946V27.9668H23.1065V25.9558H25.1184V23.9447H26.9755V21.9337H30.9993V19.9226H33.0112V15.9005H30.9993V14.0442H28.9874V12.0331H26.9755V10.0221H25.1184V8.01105H23.1065V6H21.0946Z" fill="#115110"/>
<path d="M21.0947 8.01105V10.0221H23.1066V12.0331H25.1185V14.0442H26.9757V15.9005H28.9876V14.0442H26.9757V12.0331H25.1185V10.0221H23.1066V8.01105H21.0947Z" fill="#9CFF55"/>
<path d="M21.0947 10.0221V12.0332H23.1058V10.0221H21.0947Z" fill="#90EB4B"/>
<path d="M19.0828 12.0331V15.9005H15.059V17.9116H13.0471V19.9226H11.0352V23.9447H13.0471V25.9558H15.059V27.9668H19.0828V23.9447H17.0709V21.9337H21.0947V23.9447H23.1066V19.9226H21.0947V17.9116H25.1185V15.9005H23.1066V14.0442H21.0947V12.0331H19.0828Z" fill="#9CFF55"/>
<path d="M21.0947 12.0331V14.0442H23.1066V15.9005H25.1185V17.9116H26.9757V15.9005H25.1185V14.0442H23.1066V12.0331H21.0947Z" fill="#115110"/>
<path d="M23.1064 12.0331V14.0442H25.1175V12.0331H23.1064Z" fill="#89DC42"/>
<path d="M17.0708 14.0442V15.9005H19.0818V14.0442H17.0708Z" fill="#90EB4B"/>
<path d="M25.1187 14.0442V15.9005H26.975V14.0442H25.1187Z" fill="#89DC42"/>
<path d="M19.0825 15.9006V17.9116H21.0936V15.9006H19.0825Z" fill="#90EB4B"/>
<path d="M26.9756 15.9006V17.9116H28.9866V15.9006H26.9756Z" fill="#89DC42"/>
<path d="M21.0947 17.9116V19.9227H25.1185V17.9116H21.0947Z" fill="#90EB4B"/>
<path d="M25.1183 17.9116V19.9227H23.1064V23.9448H25.1183V21.9337H26.9755V17.9116H25.1183Z" fill="#89DC42"/>
<path d="M28.9873 17.9116V19.9227H30.9984V17.9116H28.9873Z" fill="#5E8D2F"/>
<path d="M15.0591 19.9226V21.9337H17.0701V19.9226H15.0591Z" fill="#90EB4B"/>
<path d="M9.02295 21.9337V23.9447H11.0349V25.9558H13.0468V27.9668H15.0587V29.9778H17.0706V27.9668H15.0587V25.9558H13.0468V23.9447H11.0349V21.9337H9.02295Z" fill="#80CC3D"/>
<path d="M17.0708 21.9337V23.9447H21.0946V21.9337H17.0708Z" fill="#90EB4B"/>
<path d="M9.02295 23.9447V25.9558H11.034V23.9447H9.02295Z" fill="#6EAA33"/>
<path d="M19.0825 23.9447V27.9668H21.0944V25.9558H23.1063V23.9447H19.0825Z" fill="#89DC42"/>
<path d="M11.0352 25.9558V27.9668H13.0471V25.9558H11.0352ZM13.0471 27.9668V29.9779H15.059V27.9668H13.0471Z" fill="#6EAA33"/>
<path d="M17.0708 27.9668V29.9778H19.0818V27.9668H17.0708Z" fill="#89DC42"/>
<path d="M15.0591 29.9779V31.9889H17.0701V29.9779H15.0591Z" fill="#6EAA33"/>
</g>
<rect x="1.06074" y="1.04997" width="37.9" height="37.9" rx="6.95" stroke="white" stroke-opacity="0.15" stroke-width="2.1"/>
<defs>
<filter id="filter0_d_2_2290" x="2.01074" y="1.99997" width="36" height="36" filterUnits="userSpaceOnUse" color-interpolation-filters="sRGB">
<feFlood flood-opacity="0" result="BackgroundImageFix"/>
<feColorMatrix in="SourceAlpha" type="matrix" values="0 0 0 0 0 0 0 0 0 0 0 0 0 0 0 0 0 0 127 0" result="hardAlpha"/>
<feOffset/>
<feGaussianBlur stdDeviation="2"/>
<feComposite in2="hardAlpha" operator="out"/>
<feColorMatrix type="matrix" values="0 0 0 0 0 0 0 0 0 0 0 0 0 0 0 0 0 0 0.25 0"/>
<feBlend mode="normal" in2="BackgroundImageFix" result="effect1_dropShadow_2_2290"/>
<feBlend mode="normal" in="SourceGraphic" in2="effect1_dropShadow_2_2290" result="shape"/>
</filter>
<linearGradient id="paint0_linear_2_2290" x1="20.0107" y1="-3.05176e-05" x2="20.0107" y2="40" gradientUnits="userSpaceOnUse">
<stop stop-color="#213116"/>
<stop offset="1" stop-color="#151E0D"/>
</linearGradient>
</defs>
</svg>
