<svg width="41" height="40" viewBox="0 0 41 40" fill="none" xmlns="http://www.w3.org/2000/svg">
<g clip-path="url(#clip0_2_2260)">
<rect x="0.0107422" y="-1.52588e-05" width="40" height="40" rx="8" fill="url(#paint0_linear_2_2260)"/>
<g filter="url(#filter0_d_2_2260)">
<path d="M13.7958 9.87548C13.7959 10.0067 13.8481 10.1324 13.9408 10.2252C14.0336 10.318 14.1594 10.3701 14.2906 10.3703H15.1319V12.251H14.2906C14.1593 12.251 14.0335 12.3031 13.9407 12.3959C13.8479 12.4887 13.7958 12.6145 13.7958 12.7458C13.7958 12.877 13.8479 13.0028 13.9407 13.0956C14.0335 13.1884 14.1593 13.2406 14.2906 13.2406H15.1319V14.6829C15.1319 14.7991 15.0858 14.9106 15.0035 14.9929C14.9213 15.0751 14.8098 15.1213 14.6936 15.1213H13.2513V14.2799C13.2513 14.1486 13.1991 14.0228 13.1063 13.93C13.0135 13.8372 12.8877 13.7851 12.7565 13.7851C12.6252 13.7851 12.4994 13.8372 12.4066 13.93C12.3138 14.0228 12.2617 14.1486 12.2617 14.2799V15.1213H10.381V14.2799C10.381 14.1486 10.3289 14.0228 10.2361 13.93C10.1433 13.8372 10.0174 13.7851 9.88621 13.7851C9.75499 13.7851 9.62913 13.8372 9.53634 13.93C9.44355 14.0228 9.39142 14.1486 9.39142 14.2799V15.1213H7.94912C7.8329 15.1211 7.72147 15.0749 7.63928 14.9927C7.5571 14.9105 7.51087 14.7991 7.51074 14.6829V7.93837C7.51074 7.8221 7.55693 7.7106 7.63914 7.62838C7.72135 7.54617 7.83286 7.49999 7.94912 7.49999H14.6936C14.7511 7.49992 14.8082 7.51122 14.8614 7.53323C14.9146 7.55524 14.963 7.58752 15.0037 7.62824C15.0444 7.66896 15.0767 7.71732 15.0987 7.77053C15.1207 7.82375 15.132 7.88078 15.1319 7.93837V9.38021H14.2906C14.1593 9.38033 14.0334 9.43257 13.9407 9.52544C13.8479 9.6183 13.7958 9.74421 13.7958 9.87548Z" fill="#9722FF"/>
<path d="M22.4057 9.87548C22.4057 10.0067 22.4578 10.1326 22.5506 10.2254C22.6434 10.3181 22.7692 10.3703 22.9005 10.3703H23.7442V12.251H22.9028C22.7716 12.251 22.6458 12.3031 22.553 12.3959C22.4602 12.4887 22.4081 12.6145 22.4081 12.7458C22.4081 12.877 22.4602 13.0028 22.553 13.0956C22.6458 13.1884 22.7716 13.2406 22.9028 13.2406H23.7442V14.6829C23.7441 14.7991 23.6979 14.9105 23.6157 14.9927C23.5335 15.0749 23.4221 15.1211 23.3058 15.1213H16.5605C16.4442 15.1213 16.3327 15.0751 16.2505 14.9929C16.1683 14.9106 16.1221 14.7991 16.1221 14.6829V13.2406H16.963C17.0942 13.2406 17.2201 13.1884 17.3128 13.0956C17.4056 13.0028 17.4578 12.877 17.4578 12.7458C17.4578 12.6145 17.4056 12.4887 17.3128 12.3959C17.2201 12.3031 17.0942 12.251 16.963 12.251H16.1221V10.3703H16.963C17.0293 10.3723 17.0953 10.3611 17.1572 10.3371C17.219 10.3132 17.2755 10.277 17.3231 10.2308C17.3707 10.1847 17.4086 10.1294 17.4344 10.0683C17.4603 10.0072 17.4736 9.94157 17.4736 9.87524C17.4736 9.8089 17.4603 9.74325 17.4344 9.68216C17.4086 9.62107 17.3707 9.5658 17.3231 9.51963C17.2755 9.47346 17.219 9.43733 17.1572 9.41338C17.0953 9.38942 17.0293 9.37815 16.963 9.38021H16.1221V7.93837C16.122 7.88078 16.1333 7.82375 16.1553 7.77053C16.1773 7.71732 16.2096 7.66896 16.2503 7.62824C16.291 7.58752 16.3394 7.55524 16.3926 7.53323C16.4458 7.51122 16.5029 7.49992 16.5605 7.49999H23.3049C23.4212 7.49999 23.5327 7.54617 23.6149 7.62838C23.6971 7.7106 23.7433 7.8221 23.7433 7.93837V9.38021H22.9019C22.8367 9.38002 22.7722 9.39269 22.712 9.4175C22.6518 9.44231 22.597 9.47877 22.5509 9.52479C22.5048 9.5708 22.4683 9.62547 22.4433 9.68565C22.4184 9.74583 22.4056 9.81034 22.4057 9.87548Z" fill="#DC29DD"/>
<path d="M32.3541 7.93837V14.6829C32.3541 14.7991 32.3079 14.9106 32.2257 14.9929C32.1435 15.0751 32.032 15.1213 31.9157 15.1213H30.4734V14.2799C30.4734 14.1486 30.4213 14.0228 30.3285 13.93C30.2357 13.8372 30.1099 13.7851 29.9786 13.7851C29.8474 13.7851 29.7216 13.8372 29.6288 13.93C29.536 14.0228 29.4838 14.1486 29.4838 14.2799V15.1213H27.6032V14.2799C27.6032 14.1486 27.551 14.0228 27.4582 13.93C27.3655 13.8372 27.2396 13.7851 27.1084 13.7851C26.9772 13.7851 26.8513 13.8372 26.7585 13.93C26.6657 14.0228 26.6136 14.1486 26.6136 14.2799V15.1213H25.1713C25.0551 15.1211 24.9436 15.0749 24.8614 14.9927C24.7793 14.9105 24.733 14.7991 24.7329 14.6829V13.2406H25.5743C25.7055 13.2406 25.8314 13.1884 25.9242 13.0956C26.017 13.0028 26.0691 12.877 26.0691 12.7458C26.0691 12.6145 26.017 12.4887 25.9242 12.3959C25.8314 12.3031 25.7055 12.251 25.5743 12.251H24.7329V10.3703H25.5743C25.7029 10.3663 25.8249 10.3124 25.9145 10.22C26.0041 10.1276 26.0542 10.0039 26.0542 9.87524C26.0542 9.74655 26.0041 9.62291 25.9145 9.53051C25.8249 9.43811 25.7029 9.3842 25.5743 9.38021H24.7329V7.93837C24.7329 7.8221 24.7791 7.7106 24.8613 7.62838C24.9435 7.54617 25.055 7.49999 25.1713 7.49999H31.9157C31.9733 7.49992 32.0303 7.51122 32.0836 7.53323C32.1368 7.55524 32.1851 7.58752 32.2259 7.62824C32.2666 7.66896 32.2989 7.71732 32.3209 7.77053C32.3429 7.82375 32.3542 7.88078 32.3541 7.93837Z" fill="#27A2FD"/>
<path d="M15.1319 16.5492V23.2937C15.132 23.3513 15.1207 23.4084 15.0987 23.4616C15.0767 23.5148 15.0444 23.5631 15.0037 23.6039C14.963 23.6446 14.9146 23.6769 14.8614 23.6989C14.8082 23.7209 14.7511 23.7322 14.6936 23.7321H13.2513V22.8907C13.2513 22.7595 13.1991 22.6337 13.1063 22.5409C13.0135 22.4481 12.8877 22.3959 12.7565 22.3959C12.6252 22.3959 12.4994 22.4481 12.4066 22.5409C12.3138 22.6337 12.2617 22.7595 12.2617 22.8907V23.7331H10.381V22.8917C10.381 22.7605 10.3289 22.6346 10.2361 22.5418C10.1433 22.449 10.0174 22.3969 9.88621 22.3969C9.75499 22.3969 9.62913 22.449 9.53634 22.5418C9.44355 22.6346 9.39142 22.7605 9.39142 22.8917V23.7331H7.94912C7.83286 23.7331 7.72135 23.6869 7.63914 23.6047C7.55693 23.5225 7.51074 23.411 7.51074 23.2947V16.5492C7.51087 16.433 7.5571 16.3216 7.63928 16.2394C7.72147 16.1572 7.8329 16.111 7.94912 16.1108H9.39142V16.9522C9.39142 17.0835 9.44355 17.2093 9.53634 17.3021C9.62913 17.3949 9.75499 17.447 9.88621 17.447C10.0174 17.447 10.1433 17.3949 10.2361 17.3021C10.3289 17.2093 10.381 17.0835 10.381 16.9522V16.1108H12.2617V16.9522C12.2617 17.0835 12.3138 17.2093 12.4066 17.3021C12.4994 17.3949 12.6252 17.447 12.7565 17.447C12.8877 17.447 13.0135 17.3949 13.1063 17.3021C13.1991 17.2093 13.2513 17.0835 13.2513 16.9522V16.1108H14.6936C14.7511 16.1108 14.8081 16.1222 14.8613 16.1442C14.9145 16.1662 14.9628 16.1985 15.0035 16.2392C15.0442 16.28 15.0765 16.3283 15.0986 16.3815C15.1206 16.4347 15.1319 16.4917 15.1319 16.5492Z" fill="#DC29DD"/>
<path d="M22.4057 18.4863C22.4057 18.6176 22.4578 18.7434 22.5506 18.8362C22.6434 18.929 22.7692 18.9811 22.9005 18.9811H23.7442V20.8618H22.9028C22.7716 20.8618 22.6458 20.914 22.553 21.0068C22.4602 21.0996 22.4081 21.2254 22.4081 21.3566C22.4081 21.4879 22.4602 21.6137 22.553 21.7065C22.6458 21.7993 22.7716 21.8514 22.9028 21.8514H23.7442V23.2937C23.7442 23.41 23.698 23.5215 23.6158 23.6037C23.5336 23.6859 23.4221 23.7321 23.3058 23.7321H21.8626V22.8907C21.8626 22.7595 21.8105 22.6337 21.7177 22.5409C21.6249 22.4481 21.499 22.3959 21.3678 22.3959C21.2366 22.3959 21.1107 22.4481 21.0179 22.5409C20.9251 22.6337 20.873 22.7595 20.873 22.8907V23.7331H18.9923V22.8917C18.9883 22.7631 18.9344 22.641 18.842 22.5515C18.7496 22.4619 18.626 22.4118 18.4973 22.4118C18.3686 22.4118 18.245 22.4619 18.1526 22.5515C18.0602 22.641 18.0063 22.7631 18.0023 22.8917V23.7331H16.5605C16.5029 23.7332 16.4458 23.7219 16.3926 23.6998C16.3394 23.6778 16.291 23.6455 16.2503 23.6048C16.2096 23.5641 16.1773 23.5158 16.1553 23.4625C16.1333 23.4093 16.122 23.3523 16.1221 23.2947V16.5492C16.1221 16.433 16.1683 16.3215 16.2505 16.2393C16.3327 16.157 16.4442 16.1109 16.5605 16.1109H23.3049C23.4211 16.111 23.5325 16.1572 23.6147 16.2394C23.6969 16.3216 23.7431 16.433 23.7433 16.5492V17.9916H22.9019C22.8368 17.9914 22.7723 18.004 22.7121 18.0288C22.6519 18.0536 22.5972 18.09 22.5511 18.136C22.505 18.1819 22.4684 18.2365 22.4435 18.2967C22.4185 18.3568 22.4057 18.4213 22.4057 18.4863Z" fill="#27A2FD"/>
<path d="M32.3541 16.5492V23.2937C32.3542 23.3513 32.3429 23.4084 32.3209 23.4616C32.2989 23.5148 32.2666 23.5631 32.2259 23.6039C32.1851 23.6446 32.1368 23.6769 32.0836 23.6989C32.0303 23.7209 31.9733 23.7322 31.9157 23.7321H25.1713C25.055 23.7321 24.9435 23.6859 24.8613 23.6037C24.7791 23.5215 24.7329 23.41 24.7329 23.2937V21.8514H25.5743C25.7055 21.8514 25.8314 21.7993 25.9242 21.7065C26.017 21.6137 26.0691 21.4879 26.0691 21.3566C26.0691 21.2254 26.017 21.0996 25.9242 21.0068C25.8314 20.914 25.7055 20.8618 25.5743 20.8618H24.7329V18.9811H25.5743C25.7055 18.9811 25.8314 18.929 25.9242 18.8362C26.017 18.7434 26.0691 18.6176 26.0691 18.4863C26.0691 18.3551 26.017 18.2293 25.9242 18.1365C25.8314 18.0437 25.7055 17.9915 25.5743 17.9915H24.7329V16.5492C24.733 16.433 24.7793 16.3216 24.8614 16.2394C24.9436 16.1572 25.0551 16.111 25.1713 16.1108H26.6126V16.9522C26.6126 17.0835 26.6648 17.2093 26.7576 17.3021C26.8503 17.3949 26.9762 17.447 27.1074 17.447C27.2386 17.447 27.3645 17.3949 27.4573 17.3021C27.5501 17.2093 27.6022 17.0835 27.6022 16.9522V16.1108H29.4829V16.9522C29.4829 17.0835 29.535 17.2093 29.6278 17.3021C29.7206 17.3949 29.8465 17.447 29.9777 17.447C30.1089 17.447 30.2348 17.3949 30.3276 17.3021C30.4203 17.2093 30.4725 17.0835 30.4725 16.9522V16.1108H31.9148C31.9724 16.1107 32.0295 16.122 32.0828 16.1439C32.1361 16.1659 32.1846 16.1982 32.2254 16.2389C32.2662 16.2796 32.2986 16.328 32.3206 16.3812C32.3427 16.4345 32.3541 16.4916 32.3541 16.5492Z" fill="#3344FF"/>
<path d="M13.7958 27.0977C13.7959 27.2289 13.8481 27.3547 13.9408 27.4474C14.0336 27.5402 14.1594 27.5924 14.2906 27.5925H15.1319V29.4727H14.2906C14.1619 29.4767 14.0399 29.5306 13.9503 29.623C13.8608 29.7154 13.8107 29.839 13.8107 29.9677C13.8107 30.0964 13.8608 30.2201 13.9503 30.3125C14.0399 30.4049 14.1619 30.4588 14.2906 30.4628H15.1319V31.9051C15.1319 32.0214 15.0858 32.1329 15.0035 32.2151C14.9213 32.2973 14.8098 32.3435 14.6936 32.3435H7.94912C7.8329 32.3433 7.72147 32.2971 7.63928 32.2149C7.5571 32.1327 7.51087 32.0213 7.51074 31.9051V25.1606C7.51074 25.0443 7.55693 24.9328 7.63914 24.8506C7.72135 24.7684 7.83286 24.7222 7.94912 24.7222H9.39142V25.5631C9.39142 25.6943 9.44355 25.8202 9.53634 25.913C9.62913 26.0058 9.75499 26.0579 9.88621 26.0579C10.0174 26.0579 10.1433 26.0058 10.2361 25.913C10.3289 25.8202 10.381 25.6943 10.381 25.5631V24.7222H12.2617V25.5631C12.2617 25.6943 12.3138 25.8202 12.4066 25.913C12.4994 26.0058 12.6252 26.0579 12.7565 26.0579C12.8877 26.0579 13.0135 26.0058 13.1063 25.913C13.1991 25.8202 13.2513 25.6943 13.2513 25.5631V24.7222H14.6936C14.7511 24.7221 14.8082 24.7334 14.8614 24.7554C14.9146 24.7774 14.963 24.8097 15.0037 24.8505C15.0444 24.8912 15.0767 24.9395 15.0987 24.9927C15.1207 25.046 15.132 25.103 15.1319 25.1606V26.6015H14.2906C14.2255 26.6015 14.161 26.6144 14.101 26.6394C14.0409 26.6644 13.9863 26.7009 13.9403 26.747C13.8944 26.7931 13.858 26.8478 13.8331 26.908C13.8083 26.9681 13.7956 27.0326 13.7958 27.0977Z" fill="#9722FF"/>
<path d="M23.7442 25.1606V31.9051C23.7441 32.0213 23.6979 32.1328 23.6157 32.2149C23.5335 32.2971 23.4221 32.3433 23.3058 32.3435H16.5605C16.4442 32.3435 16.3327 32.2973 16.2505 32.2151C16.1683 32.1329 16.1221 32.0214 16.1221 31.9051V30.4628H16.963C17.0293 30.4648 17.0953 30.4536 17.1572 30.4296C17.219 30.4057 17.2755 30.3695 17.3231 30.3234C17.3707 30.2772 17.4086 30.2219 17.4344 30.1608C17.4603 30.0997 17.4736 30.0341 17.4736 29.9677C17.4736 29.9014 17.4603 29.8357 17.4344 29.7747C17.4086 29.7136 17.3707 29.6583 17.3231 29.6121C17.2755 29.566 17.219 29.5298 17.1572 29.5059C17.0953 29.4819 17.0293 29.4706 16.963 29.4727H16.1221V27.5925H16.963C17.0293 27.5945 17.0953 27.5833 17.1572 27.5593C17.219 27.5354 17.2755 27.4992 17.3231 27.4531C17.3707 27.4069 17.4086 27.3516 17.4344 27.2905C17.4603 27.2294 17.4736 27.1638 17.4736 27.0975C17.4736 27.0311 17.4603 26.9655 17.4344 26.9044C17.4086 26.8433 17.3707 26.788 17.3231 26.7418C17.2755 26.6957 17.219 26.6595 17.1572 26.6356C17.0953 26.6116 17.0293 26.6004 16.963 26.6024H16.1221V25.1606C16.122 25.103 16.1333 25.046 16.1553 24.9927C16.1773 24.9395 16.2096 24.8912 16.2503 24.8505C16.291 24.8097 16.3394 24.7774 16.3926 24.7554C16.4458 24.7334 16.5029 24.7221 16.5605 24.7222H18.0023V25.5631C18.0002 25.6294 18.0115 25.6955 18.0354 25.7573C18.0594 25.8192 18.0955 25.8756 18.1417 25.9232C18.1879 25.9709 18.2431 26.0087 18.3042 26.0346C18.3653 26.0604 18.431 26.0738 18.4973 26.0738C18.5636 26.0738 18.6293 26.0604 18.6904 26.0346C18.7515 26.0087 18.8067 25.9709 18.8529 25.9232C18.8991 25.8756 18.9352 25.8192 18.9592 25.7573C18.9831 25.6955 18.9944 25.6294 18.9923 25.5631V24.7222H20.873V25.5631C20.873 25.6281 20.8858 25.6924 20.9107 25.7525C20.9355 25.8125 20.972 25.867 21.0179 25.913C21.0639 25.9589 21.1184 25.9954 21.1785 26.0202C21.2385 26.0451 21.3028 26.0579 21.3678 26.0579C21.4328 26.0579 21.4971 26.0451 21.5571 26.0202C21.6172 25.9954 21.6717 25.9589 21.7177 25.913C21.7636 25.867 21.8001 25.8125 21.8249 25.7525C21.8498 25.6924 21.8626 25.6281 21.8626 25.5631V24.7222H23.3049C23.3625 24.7221 23.4196 24.7333 23.4729 24.7553C23.5262 24.7773 23.5747 24.8095 23.6155 24.8503C23.6563 24.891 23.6887 24.9394 23.7108 24.9926C23.7329 25.0459 23.7442 25.1029 23.7442 25.1606Z" fill="#3344FF"/>
<path d="M29.8119 25.0318L25.0429 29.8009C24.8717 29.9721 24.8717 30.2497 25.0429 30.4209L29.8119 35.19C29.9831 35.3612 30.2607 35.3612 30.4319 35.19L35.2009 30.4209C35.3721 30.2497 35.3721 29.9721 35.2009 29.8009L30.4319 25.0318C30.2607 24.8606 29.9831 24.8606 29.8119 25.0318Z" fill="#9722FF"/>
</g>
</g>
<rect x="1.06074" y="1.04998" width="37.9" height="37.9" rx="6.95" stroke="white" stroke-opacity="0.15" stroke-width="2.1"/>
<defs>
<filter id="filter0_d_2_2260" x="2.01074" y="1.99998" width="37.3184" height="37.3184" filterUnits="userSpaceOnUse" color-interpolation-filters="sRGB">
<feFlood flood-opacity="0" result="BackgroundImageFix"/>
<feColorMatrix in="SourceAlpha" type="matrix" values="0 0 0 0 0 0 0 0 0 0 0 0 0 0 0 0 0 0 127 0" result="hardAlpha"/>
<feOffset/>
<feGaussianBlur stdDeviation="2"/>
<feComposite in2="hardAlpha" operator="out"/>
<feColorMatrix type="matrix" values="0 0 0 0 0 0 0 0 0 0 0 0 0 0 0 0 0 0 0.25 0"/>
<feBlend mode="normal" in2="BackgroundImageFix" result="effect1_dropShadow_2_2260"/>
<feBlend mode="normal" in="SourceGraphic" in2="effect1_dropShadow_2_2260" result="shape"/>
</filter>
<linearGradient id="paint0_linear_2_2260" x1="20.0107" y1="-1.52588e-05" x2="20.0107" y2="40" gradientUnits="userSpaceOnUse">
<stop stop-color="#2A0E2B"/>
<stop offset="1" stop-color="#0C1723"/>
</linearGradient>
<clipPath id="clip0_2_2260">
<rect x="0.0107422" y="-1.52588e-05" width="40" height="40" rx="8" fill="white"/>
</clipPath>
</defs>
</svg>
