<svg width="57" height="56" viewBox="0 0 57 56" fill="none" xmlns="http://www.w3.org/2000/svg">
<rect x="0.0107422" y="-3.05176e-05" width="56" height="56" rx="8" fill="url(#paint0_linear_7_218)"/>
<rect x="1.06074" y="1.04997" width="53.9" height="53.9" rx="6.95" stroke="white" stroke-opacity="0.15" stroke-width="2.1"/>
<g filter="url(#filter0_d_7_218)">
<path d="M44.2745 16.1633V45.7552C44.2745 46.5442 43.6349 47.1838 42.846 47.1838H13.1756C12.3867 47.1838 11.7471 46.5442 11.7471 45.7552V10.245C11.7471 9.456 12.3867 8.81641 13.1756 8.81641H36.3625H42.846C43.6349 8.81641 44.2745 9.456 44.2745 10.245V16.1633Z" fill="#F1F1F1"/>
<path d="M36.9011 21.0613H16.0439C15.4917 21.0613 15.0439 21.509 15.0439 22.0613C15.0439 22.6136 15.4917 23.0613 16.0439 23.0613H36.9011C37.4534 23.0613 37.9011 22.6136 37.9011 22.0613C37.9011 21.509 37.4534 21.0613 36.9011 21.0613Z" fill="#231F20"/>
<path d="M39.7582 25.9593H16.2637C15.7114 25.9593 15.2637 26.407 15.2637 26.9593C15.2637 27.5115 15.7114 27.9593 16.2637 27.9593H39.7582C40.3105 27.9593 40.7582 27.5115 40.7582 26.9593C40.7582 26.407 40.3105 25.9593 39.7582 25.9593Z" fill="#231F20"/>
<path d="M39.7582 30.8572H16.2637C15.7114 30.8572 15.2637 31.3049 15.2637 31.8572C15.2637 32.4095 15.7114 32.8572 16.2637 32.8572H39.7582C40.3105 32.8572 40.7582 32.4095 40.7582 31.8572C40.7582 31.3049 40.3105 30.8572 39.7582 30.8572Z" fill="#231F20"/>
<path d="M39.7582 35.7552H16.2637C15.7114 35.7552 15.2637 36.2029 15.2637 36.7552C15.2637 37.3074 15.7114 37.7552 16.2637 37.7552H39.7582C40.3105 37.7552 40.7582 37.3074 40.7582 36.7552C40.7582 36.2029 40.3105 35.7552 39.7582 35.7552Z" fill="#231F20"/>
<path d="M34.4835 40.6531H16.2637C15.7114 40.6531 15.2637 41.1008 15.2637 41.6531C15.2637 42.2054 15.7114 42.6531 16.2637 42.6531H34.4835C35.0357 42.6531 35.4835 42.2054 35.4835 41.6531C35.4835 41.1008 35.0357 40.6531 34.4835 40.6531Z" fill="#231F20"/>
<path d="M39.7581 40.6531H38.6812C38.1289 40.6531 37.6812 41.1008 37.6812 41.6531C37.6812 42.2054 38.1289 42.6531 38.6812 42.6531H39.7581C40.3104 42.6531 40.7581 42.2054 40.7581 41.6531C40.7581 41.1008 40.3104 40.6531 39.7581 40.6531Z" fill="#231F20"/>
<path d="M19.5384 11.6736H16.2637C15.7114 11.6736 15.2637 12.1213 15.2637 12.6736C15.2637 13.2258 15.7114 13.6736 16.2637 13.6736H19.5384C20.0907 13.6736 20.5384 13.2258 20.5384 12.6736C20.5384 12.1213 20.0907 11.6736 19.5384 11.6736Z" fill="#231F20"/>
<path d="M24.8131 14.5307H16.2637C15.7114 14.5307 15.2637 14.9784 15.2637 15.5307C15.2637 16.083 15.7114 16.5307 16.2637 16.5307H24.8131C25.3654 16.5307 25.8131 16.083 25.8131 15.5307C25.8131 14.9784 25.3654 14.5307 24.8131 14.5307Z" fill="#231F20"/>
</g>
<defs>
<filter id="filter0_d_7_218" x="2.29646" y="2.28568" width="51.4286" height="51.4286" filterUnits="userSpaceOnUse" color-interpolation-filters="sRGB">
<feFlood flood-opacity="0" result="BackgroundImageFix"/>
<feColorMatrix in="SourceAlpha" type="matrix" values="0 0 0 0 0 0 0 0 0 0 0 0 0 0 0 0 0 0 127 0" result="hardAlpha"/>
<feOffset/>
<feGaussianBlur stdDeviation="2.85714"/>
<feComposite in2="hardAlpha" operator="out"/>
<feColorMatrix type="matrix" values="0 0 0 0 0 0 0 0 0 0 0 0 0 0 0 0 0 0 0.25 0"/>
<feBlend mode="normal" in2="BackgroundImageFix" result="effect1_dropShadow_7_218"/>
<feBlend mode="normal" in="SourceGraphic" in2="effect1_dropShadow_7_218" result="shape"/>
</filter>
<linearGradient id="paint0_linear_7_218" x1="28.0107" y1="-3.05176e-05" x2="28.0107" y2="56" gradientUnits="userSpaceOnUse">
<stop stop-color="#303030"/>
<stop offset="1" stop-color="#1D1D1D"/>
</linearGradient>
</defs>
</svg>
