<svg width="57" height="56" viewBox="0 0 57 56" fill="none" xmlns="http://www.w3.org/2000/svg">
<rect x="0.0107422" y="-1.52588e-05" width="56" height="56" rx="8.4" fill="url(#paint0_linear_28_3233)"/>
<g filter="url(#filter0_d_28_3233)">
<path d="M44.2741 16.1634V45.7552C44.2741 46.5442 43.6345 47.1838 42.8455 47.1838H13.1752C12.3862 47.1838 11.7466 46.5442 11.7466 45.7552V10.245C11.7466 9.45601 12.3862 8.81642 13.1752 8.81642H36.362H42.8455C43.6345 8.81642 44.2741 9.45601 44.2741 10.245V16.1634Z" fill="#F1F1F1"/>
<path d="M36.9006 21.0613H16.0435C15.4912 21.0613 15.0435 21.509 15.0435 22.0613C15.0435 22.6136 15.4912 23.0613 16.0435 23.0613H36.9006C37.4529 23.0613 37.9006 22.6136 37.9006 22.0613C37.9006 21.509 37.4529 21.0613 36.9006 21.0613Z" fill="#231F20"/>
<path d="M39.7577 25.9593H16.2632C15.7109 25.9593 15.2632 26.407 15.2632 26.9593C15.2632 27.5116 15.7109 27.9593 16.2632 27.9593H39.7577C40.31 27.9593 40.7577 27.5116 40.7577 26.9593C40.7577 26.407 40.31 25.9593 39.7577 25.9593Z" fill="#231F20"/>
<path d="M39.7577 30.8572H16.2632C15.7109 30.8572 15.2632 31.3049 15.2632 31.8572C15.2632 32.4095 15.7109 32.8572 16.2632 32.8572H39.7577C40.31 32.8572 40.7577 32.4095 40.7577 31.8572C40.7577 31.3049 40.31 30.8572 39.7577 30.8572Z" fill="#231F20"/>
<path d="M39.7577 35.7552H16.2632C15.7109 35.7552 15.2632 36.2029 15.2632 36.7552C15.2632 37.3074 15.7109 37.7552 16.2632 37.7552H39.7577C40.31 37.7552 40.7577 37.3074 40.7577 36.7552C40.7577 36.2029 40.31 35.7552 39.7577 35.7552Z" fill="#231F20"/>
<path d="M34.483 40.6531H16.2632C15.7109 40.6531 15.2632 41.1009 15.2632 41.6531C15.2632 42.2054 15.7109 42.6531 16.2632 42.6531H34.483C35.0352 42.6531 35.483 42.2054 35.483 41.6531C35.483 41.1009 35.0352 40.6531 34.483 40.6531Z" fill="#231F20"/>
<path d="M39.7576 40.6531H38.6807C38.1284 40.6531 37.6807 41.1009 37.6807 41.6531C37.6807 42.2054 38.1284 42.6531 38.6807 42.6531H39.7576C40.3099 42.6531 40.7576 42.2054 40.7576 41.6531C40.7576 41.1009 40.3099 40.6531 39.7576 40.6531Z" fill="#231F20"/>
<path d="M19.5379 11.6736H16.2632C15.7109 11.6736 15.2632 12.1213 15.2632 12.6736C15.2632 13.2258 15.7109 13.6736 16.2632 13.6736H19.5379C20.0902 13.6736 20.5379 13.2258 20.5379 12.6736C20.5379 12.1213 20.0902 11.6736 19.5379 11.6736Z" fill="#231F20"/>
<path d="M24.8126 14.5307H16.2632C15.7109 14.5307 15.2632 14.9784 15.2632 15.5307C15.2632 16.083 15.7109 16.5307 16.2632 16.5307H24.8126C25.3649 16.5307 25.8126 16.083 25.8126 15.5307C25.8126 14.9784 25.3649 14.5307 24.8126 14.5307Z" fill="#231F20"/>
</g>
<rect x="1.06074" y="1.04998" width="53.9" height="53.9" rx="7.35" stroke="white" stroke-opacity="0.15" stroke-width="2.1"/>
<defs>
<filter id="filter0_d_28_3233" x="2.29646" y="2.2857" width="51.4286" height="51.4286" filterUnits="userSpaceOnUse" color-interpolation-filters="sRGB">
<feFlood flood-opacity="0" result="BackgroundImageFix"/>
<feColorMatrix in="SourceAlpha" type="matrix" values="0 0 0 0 0 0 0 0 0 0 0 0 0 0 0 0 0 0 127 0" result="hardAlpha"/>
<feOffset/>
<feGaussianBlur stdDeviation="2.85714"/>
<feComposite in2="hardAlpha" operator="out"/>
<feColorMatrix type="matrix" values="0 0 0 0 0 0 0 0 0 0 0 0 0 0 0 0 0 0 0.25 0"/>
<feBlend mode="normal" in2="BackgroundImageFix" result="effect1_dropShadow_28_3233"/>
<feBlend mode="normal" in="SourceGraphic" in2="effect1_dropShadow_28_3233" result="shape"/>
</filter>
<linearGradient id="paint0_linear_28_3233" x1="28.0107" y1="-1.52588e-05" x2="28.0107" y2="56" gradientUnits="userSpaceOnUse">
<stop stop-color="#303030"/>
<stop offset="1" stop-color="#1D1D1D"/>
</linearGradient>
</defs>
</svg>
