<svg width="57" height="56" viewBox="0 0 57 56" fill="none" xmlns="http://www.w3.org/2000/svg">
<rect x="0.0107422" y="-4.57764e-05" width="56" height="56" rx="8.4" fill="url(#paint0_linear_28_3255)"/>
<g filter="url(#filter0_d_28_3255)">
<path fill-rule="evenodd" clip-rule="evenodd" d="M9.43994 14.0319C9.43994 13.5688 9.62336 13.1247 9.94986 12.7972C10.2764 12.4697 10.7192 12.2858 11.1809 12.2858H21.0533C23.9015 12.2858 26.4317 13.6594 28.0172 15.7803C28.8277 14.6939 29.88 13.8122 31.0901 13.2055C32.3003 12.5988 33.635 12.2839 34.988 12.2858H44.8418C45.3036 12.2858 45.7464 12.4697 46.0729 12.7972C46.3994 13.1247 46.5828 13.5688 46.5828 14.0319V38.4775C46.5828 38.9406 46.3994 39.3847 46.0729 39.7122C45.7464 40.0397 45.3036 40.2236 44.8418 40.2236H34.3798C33.6939 40.2236 33.0148 40.3591 32.3811 40.6224C31.7474 40.8856 31.1716 41.2715 30.6866 41.7579L29.2428 43.2037C28.9164 43.5307 28.4739 43.7143 28.0125 43.7143C27.5512 43.7143 27.1087 43.5307 26.7822 43.2037L25.3384 41.7579C24.8534 41.2715 24.2776 40.8856 23.644 40.6224C23.0103 40.3591 22.3311 40.2236 21.6452 40.2236H11.1809C10.7192 40.2236 10.2764 40.0397 9.94986 39.7122C9.62336 39.3847 9.43994 38.9406 9.43994 38.4775V14.0319ZM29.7628 21.0164C29.7628 19.6271 30.313 18.2947 31.2925 17.3123C32.272 16.3299 33.6005 15.778 34.9857 15.778H43.0985V36.7314H34.3775C32.7294 36.7314 31.1277 37.1994 29.7535 38.0631L29.7628 21.0164V21.0164ZM26.2716 38.0678L26.2808 26.257L26.2762 21.0117C26.275 19.6232 25.7242 18.292 24.7448 17.3106C23.7655 16.3293 22.4377 15.778 21.0533 15.778H12.9219V36.7314H21.6429C23.2804 36.7313 24.8847 37.1945 26.2716 38.0678V38.0678Z" fill="#E8E8E8"/>
</g>
<rect x="1.06074" y="1.04995" width="53.9" height="53.9" rx="7.35" stroke="white" stroke-opacity="0.15" stroke-width="2.1"/>
<defs>
<filter id="filter0_d_28_3255" x="2.29646" y="2.28567" width="51.4286" height="51.4286" filterUnits="userSpaceOnUse" color-interpolation-filters="sRGB">
<feFlood flood-opacity="0" result="BackgroundImageFix"/>
<feColorMatrix in="SourceAlpha" type="matrix" values="0 0 0 0 0 0 0 0 0 0 0 0 0 0 0 0 0 0 127 0" result="hardAlpha"/>
<feOffset/>
<feGaussianBlur stdDeviation="2.85714"/>
<feComposite in2="hardAlpha" operator="out"/>
<feColorMatrix type="matrix" values="0 0 0 0 0 0 0 0 0 0 0 0 0 0 0 0 0 0 0.25 0"/>
<feBlend mode="normal" in2="BackgroundImageFix" result="effect1_dropShadow_28_3255"/>
<feBlend mode="normal" in="SourceGraphic" in2="effect1_dropShadow_28_3255" result="shape"/>
</filter>
<linearGradient id="paint0_linear_28_3255" x1="28.0107" y1="-4.57764e-05" x2="28.0107" y2="55.9999" gradientUnits="userSpaceOnUse">
<stop stop-color="#1B2330"/>
<stop offset="1" stop-color="#10151D"/>
</linearGradient>
</defs>
</svg>
