<svg width="57" height="56" viewBox="0 0 57 56" fill="none" xmlns="http://www.w3.org/2000/svg">
<rect x="0.0107422" y="-3.05176e-05" width="56" height="56" rx="8.4" fill="url(#paint0_linear_28_3248)"/>
<g filter="url(#filter0_d_28_3248)">
<path d="M26.0153 37.5263C26.6401 37.5263 27.2025 38.0208 27.2025 38.7007C27.2025 39.3188 26.7026 39.8751 26.0153 39.8751C25.3904 39.8751 24.828 39.3806 24.828 38.7007C24.828 38.0208 25.3904 37.5263 26.0153 37.5263ZM44.3865 30.3564C43.7616 30.3564 43.1992 29.8619 43.1992 29.182C43.1992 28.5639 43.6991 28.0076 44.3865 28.0076C45.0114 28.0076 45.5737 28.5021 45.5737 29.182C45.5737 29.8001 45.0114 30.3564 44.3865 30.3564ZM44.3865 25.5971C42.3869 25.5971 40.7622 27.2041 40.7622 29.182C40.7622 29.5529 40.8247 29.9237 40.9497 30.2946L29.0146 36.5992C28.3273 35.6102 27.2025 35.0539 26.0153 35.0539C24.6405 35.0539 23.3908 35.8575 22.7659 37.0319L12.0181 31.469C10.8934 30.8509 10.0186 29.0584 10.1435 27.3277C10.206 26.4624 10.5185 25.7825 10.9559 25.5353C11.2683 25.3498 11.5807 25.4116 12.0181 25.5971L12.0806 25.6589C14.955 27.1423 24.2656 31.9635 24.6405 32.1489C25.2654 32.3961 25.5779 32.5197 26.6401 32.0253L45.8862 22.1357C46.1986 22.0121 46.511 21.7649 46.511 21.3322C46.511 20.7759 45.9487 20.5287 45.9487 20.5287C44.8239 20.0342 43.1367 19.2307 41.5121 18.489C38.0128 16.8819 34.0136 15.0276 32.264 14.1005C30.7643 13.2969 29.5145 13.9768 29.3271 14.1005L28.8897 14.2859C20.9538 18.2417 10.456 23.3719 9.83109 23.7428C8.76881 24.3609 8.08145 25.6589 8.01897 27.2659C7.89399 29.8001 9.20622 32.4579 11.0808 33.3851L22.4535 39.1952C22.7034 40.9259 24.2656 42.2857 26.0153 42.2857C28.0149 42.2857 29.577 40.7404 29.6395 38.7625L42.1369 32.0871C42.7618 32.5816 43.5742 32.8288 44.3865 32.8288C46.3861 32.8288 48.0107 31.2217 48.0107 29.2438C48.0107 27.2041 46.3861 25.5971 44.3865 25.5971" fill="#4285FD"/>
</g>
<rect x="1.06074" y="1.04997" width="53.9" height="53.9" rx="7.35" stroke="white" stroke-opacity="0.15" stroke-width="2.1"/>
<defs>
<filter id="filter0_d_28_3248" x="2.29646" y="2.28568" width="51.4286" height="51.4286" filterUnits="userSpaceOnUse" color-interpolation-filters="sRGB">
<feFlood flood-opacity="0" result="BackgroundImageFix"/>
<feColorMatrix in="SourceAlpha" type="matrix" values="0 0 0 0 0 0 0 0 0 0 0 0 0 0 0 0 0 0 127 0" result="hardAlpha"/>
<feOffset/>
<feGaussianBlur stdDeviation="2.85714"/>
<feComposite in2="hardAlpha" operator="out"/>
<feColorMatrix type="matrix" values="0 0 0 0 0 0 0 0 0 0 0 0 0 0 0 0 0 0 0.25 0"/>
<feBlend mode="normal" in2="BackgroundImageFix" result="effect1_dropShadow_28_3248"/>
<feBlend mode="normal" in="SourceGraphic" in2="effect1_dropShadow_28_3248" result="shape"/>
</filter>
<linearGradient id="paint0_linear_28_3248" x1="28.0107" y1="-3.05176e-05" x2="28.0107" y2="56" gradientUnits="userSpaceOnUse">
<stop stop-color="#121E34"/>
<stop offset="1" stop-color="#0A121F"/>
</linearGradient>
</defs>
</svg>
