<svg width="57" height="56" viewBox="0 0 57 56" fill="none" xmlns="http://www.w3.org/2000/svg">
<rect x="0.0107422" y="-6.10352e-05" width="56" height="56" rx="8" fill="url(#paint0_linear_8_58)"/>
<rect x="1.06074" y="1.04994" width="53.9" height="53.9" rx="6.95" stroke="white" stroke-opacity="0.15" stroke-width="2.1"/>
<g filter="url(#filter0_d_8_58)">
<path d="M28.0109 44.6667C37.2156 44.6667 44.6776 37.2048 44.6776 28C44.6776 18.7953 37.2156 11.3333 28.0109 11.3333C18.8062 11.3333 11.3442 18.7953 11.3442 28C11.3442 37.2048 18.8062 44.6667 28.0109 44.6667Z" stroke="#3FB950" stroke-width="2.86" stroke-linecap="round" stroke-linejoin="round"/>
<path d="M28.0109 29.6667C28.9314 29.6667 29.6776 28.9205 29.6776 28C29.6776 27.0795 28.9314 26.3333 28.0109 26.3333C27.0904 26.3333 26.3442 27.0795 26.3442 28C26.3442 28.9205 27.0904 29.6667 28.0109 29.6667Z" fill="#3FB950" stroke="#3FB950" stroke-width="2.86" stroke-linecap="round" stroke-linejoin="round"/>
</g>
<defs>
<filter id="filter0_d_8_58" x="2.29646" y="2.28565" width="51.4286" height="51.4286" filterUnits="userSpaceOnUse" color-interpolation-filters="sRGB">
<feFlood flood-opacity="0" result="BackgroundImageFix"/>
<feColorMatrix in="SourceAlpha" type="matrix" values="0 0 0 0 0 0 0 0 0 0 0 0 0 0 0 0 0 0 127 0" result="hardAlpha"/>
<feOffset/>
<feGaussianBlur stdDeviation="2.85714"/>
<feComposite in2="hardAlpha" operator="out"/>
<feColorMatrix type="matrix" values="0 0 0 0 0 0 0 0 0 0 0 0 0 0 0 0 0 0 0.25 0"/>
<feBlend mode="normal" in2="BackgroundImageFix" result="effect1_dropShadow_8_58"/>
<feBlend mode="normal" in="SourceGraphic" in2="effect1_dropShadow_8_58" result="shape"/>
</filter>
<linearGradient id="paint0_linear_8_58" x1="28.0107" y1="-6.10352e-05" x2="28.0107" y2="55.9999" gradientUnits="userSpaceOnUse">
<stop stop-color="#181F29"/>
<stop offset="1" stop-color="#0F131A"/>
</linearGradient>
</defs>
</svg>
