<svg width="57" height="56" viewBox="0 0 57 56" fill="none" xmlns="http://www.w3.org/2000/svg">
<rect x="0.0107422" width="56" height="56" rx="8.4" fill="url(#paint0_linear_28_3225)"/>
<g filter="url(#filter0_d_28_3225)">
<path d="M26.0217 8.1135C19.1205 8.79897 13.1287 12.9385 10.0258 19.1701C8.99154 21.2443 8.29607 23.6301 8.06424 25.8913L8.01074 26.4076H9.79401C10.7748 26.4076 11.5773 26.3809 11.5862 26.3364C11.6843 24.8853 12.3262 22.6064 13.102 20.9772C15.8571 15.2086 21.5903 11.5854 27.9388 11.5854C30.6315 11.5854 32.9141 12.1106 35.2502 13.2679C37.9072 14.5854 40.0382 16.4549 41.6699 18.8852C42.3921 19.9624 43.3908 21.9298 43.2659 22.0366C43.2214 22.0811 42.5081 22.2948 41.6878 22.5084L40.1898 22.909L39.7975 22.1434C38.5314 19.6152 36.4182 17.4965 33.9216 16.2412C33.0211 15.7872 32.0938 15.44 31.9511 15.4935C31.8887 15.5113 31.8084 15.7249 31.7817 15.9653C31.746 16.1967 31.648 16.811 31.5499 17.3273C31.4607 17.8437 31.3626 18.4134 31.3359 18.5914L31.2735 18.9208L32.0314 19.2769C34.6349 20.4876 36.5163 22.731 37.3098 25.5619C37.5417 26.3809 37.5684 26.5679 37.5684 28.01C37.5684 29.4522 37.5417 29.6391 37.3098 30.4581C36.8373 32.1318 35.9991 33.6095 34.8489 34.7668C34.1891 35.4345 33.2172 36.1556 32.5128 36.5206C32.2721 36.6363 32.0849 36.7876 32.0849 36.8499C32.0938 37.0013 32.9408 40.1171 33.0032 40.1705C33.0835 40.2506 34.5903 39.4494 35.4731 38.8619C36.5787 38.123 38.1123 36.5918 38.8524 35.4879C39.8867 33.9389 40.5286 32.4522 40.9299 30.6718C41.0993 29.8884 41.1349 29.4878 41.1349 28.0367C41.1349 26.5946 41.1528 26.3186 41.2687 26.2919C42.3565 25.9803 44.2378 25.5174 44.2735 25.5441C44.3359 25.6153 44.434 27.102 44.434 28.01C44.434 29.2385 44.3181 30.4403 44.1219 31.3038C44.0327 31.7134 43.9614 32.0605 43.9703 32.0694C43.9793 32.0872 44.7282 32.3543 45.6288 32.6837C46.8771 33.1377 47.2872 33.2534 47.3407 33.1644C47.4834 32.9241 47.8668 30.5739 47.9649 29.3186C48.1699 26.5144 47.6795 23.2918 46.6542 20.7547C43.7653 13.6062 37.4525 8.85238 29.8558 8.1135C28.3311 7.96216 27.5286 7.96216 26.0217 8.1135Z" fill="#00D845"/>
<path d="M26.4676 14.897C25.8167 14.9593 24.3633 15.3065 23.6232 15.5647C19.9765 16.8466 16.9717 19.7754 15.6164 23.3808C14.5643 26.1673 14.5286 29.6658 15.5272 32.3988L15.7501 33.0042L14.9298 33.476C13.2892 34.4285 12.995 34.5977 12.9326 34.5977C12.8523 34.5977 12.46 33.6095 12.2103 32.7727C11.925 31.7757 11.6219 30.3335 11.5862 29.6747C11.5773 29.6391 10.7748 29.6124 9.79401 29.6124H8.01074L8.06424 30.1198C8.53681 34.7223 10.6589 39.0666 14.0382 42.3515C21.9648 50.0431 34.6171 49.8561 42.3476 41.9331C43.364 40.8827 44.3716 39.5918 45.0849 38.4167C45.7001 37.393 46.1727 36.4315 46.1013 36.3603C46.0657 36.3247 45.6377 36.1556 45.1473 35.9775C44.6569 35.7995 43.9971 35.5591 43.6761 35.4523C43.3551 35.3366 43.0341 35.2119 42.9628 35.1852C42.8647 35.1496 42.7399 35.301 42.4902 35.7817C40.9923 38.7016 38.1925 41.3545 35.0272 42.8679C32.3256 44.1498 29.5794 44.6305 26.3249 44.3723C23.1418 44.1231 19.5931 42.5563 17.0162 40.2684C16.2851 39.6185 15.2241 38.4791 14.8228 37.9093C14.6891 37.7135 14.6177 37.7669 16.6863 36.5651L17.4621 36.1111L18.5588 37.206C20.5204 39.1734 22.6246 40.3307 25.3174 40.9361C26.1109 41.1052 26.4943 41.1408 27.9566 41.1408C28.8928 41.1408 29.6864 41.1141 29.7131 41.0874C29.7488 41.0607 29.6061 40.4376 29.41 39.7076C29.2138 38.9776 29.0087 38.2209 28.9552 38.0161L28.8571 37.6511L27.5999 37.5977C25.2282 37.4998 23.3468 36.752 21.5814 35.203C21.2872 34.9449 20.9573 34.6244 20.8592 34.4998L20.6809 34.2683L22.6514 33.1288L24.6308 31.9982L26.6994 34.1882L29.08 33.6986L31.4607 33.2178L34.6706 30.013L34.3853 28.9626C34.2069 28.2949 34.0643 27.921 33.9929 27.921C33.9216 27.921 33.1994 28.099 32.3791 28.3216L30.8811 28.7311L30.257 29.3365C29.5794 29.9952 29.6774 29.9685 28.2062 30.102L27.6713 30.1555L27.0293 29.5234C26.6726 29.1851 26.3784 28.8824 26.3784 28.8646C26.3784 28.8379 26.2803 28.464 26.1644 28.0189L25.9504 27.2088L26.53 26.4343C26.851 25.9981 27.1274 25.642 27.1452 25.6242C27.1541 25.6064 27.5375 25.4907 28.0012 25.375L28.8304 25.1613L29.9628 24.0307C30.5958 23.4076 31.1041 22.8556 31.1041 22.8022C31.1041 22.7488 30.7652 22.3749 30.3551 21.9654L29.6061 21.2265L27.4394 21.8141L25.2639 22.4016L24.818 22.8645C24.5773 23.1227 24.0691 23.6746 23.7035 24.093C23.3379 24.5025 22.8743 25.0278 22.6781 25.2503C21.9202 26.1049 21.947 25.8468 22.4195 27.467C22.6425 28.2593 22.8208 28.9269 22.8029 28.9359C22.7584 28.9715 20.9127 30.0486 19.7714 30.6896C19.3434 30.93 18.96 31.1258 18.9065 31.1258C18.8619 31.1258 18.7282 30.7519 18.6123 30.2979C18.425 29.5946 18.3983 29.2741 18.3983 27.9655C18.4072 26.5857 18.425 26.372 18.6568 25.5619C19.1383 23.8527 19.9676 22.4194 21.1623 21.2265C22.8029 19.5885 24.9607 18.5825 27.1541 18.4312C28.0814 18.36 28.0101 18.4312 28.1617 17.4609C28.2152 17.1137 28.2954 16.6775 28.34 16.4816C28.3846 16.2858 28.4381 15.9653 28.4648 15.7694C28.5005 15.5736 28.5451 15.2798 28.5718 15.1196L28.6253 14.8347L27.7069 14.8525C27.1987 14.8525 26.637 14.8792 26.4676 14.897Z" fill="#00D845"/>
</g>
<rect x="1.06074" y="1.05" width="53.9" height="53.9" rx="7.35" stroke="white" stroke-opacity="0.15" stroke-width="2.1"/>
<defs>
<filter id="filter0_d_28_3225" x="2.29646" y="2.28571" width="51.4286" height="51.4286" filterUnits="userSpaceOnUse" color-interpolation-filters="sRGB">
<feFlood flood-opacity="0" result="BackgroundImageFix"/>
<feColorMatrix in="SourceAlpha" type="matrix" values="0 0 0 0 0 0 0 0 0 0 0 0 0 0 0 0 0 0 127 0" result="hardAlpha"/>
<feOffset/>
<feGaussianBlur stdDeviation="2.85714"/>
<feComposite in2="hardAlpha" operator="out"/>
<feColorMatrix type="matrix" values="0 0 0 0 0 0 0 0 0 0 0 0 0 0 0 0 0 0 0.25 0"/>
<feBlend mode="normal" in2="BackgroundImageFix" result="effect1_dropShadow_28_3225"/>
<feBlend mode="normal" in="SourceGraphic" in2="effect1_dropShadow_28_3225" result="shape"/>
</filter>
<linearGradient id="paint0_linear_28_3225" x1="28.0107" y1="0" x2="28.0107" y2="56" gradientUnits="userSpaceOnUse">
<stop stop-color="#072C13"/>
<stop offset="1" stop-color="#041C0B"/>
</linearGradient>
</defs>
</svg>
