<svg width="57" height="56" viewBox="0 0 57 56" fill="none" xmlns="http://www.w3.org/2000/svg">
<rect x="0.0107422" y="-6.10352e-05" width="56" height="56" rx="8" fill="url(#paint0_linear_8_66)"/>
<rect x="1.06074" y="1.04994" width="53.9" height="53.9" rx="6.95" stroke="white" stroke-opacity="0.15" stroke-width="2.1"/>
<g filter="url(#filter0_d_8_66)">
<path d="M16.3442 23C19.1057 23 21.3442 20.7614 21.3442 18C21.3442 15.2386 19.1057 13 16.3442 13C13.5828 13 11.3442 15.2386 11.3442 18C11.3442 20.7614 13.5828 23 16.3442 23Z" stroke="#3FB950" stroke-width="2.86" stroke-linecap="round" stroke-linejoin="round"/>
<path d="M16.3442 23V43" stroke="#3FB950" stroke-width="2.86" stroke-linecap="round" stroke-linejoin="round"/>
<path d="M39.6772 43C42.4387 43 44.6772 40.7614 44.6772 38C44.6772 35.2386 42.4387 33 39.6772 33C36.9158 33 34.6772 35.2386 34.6772 38C34.6772 40.7614 36.9158 43 39.6772 43Z" stroke="#3FB950" stroke-width="2.86" stroke-linecap="round" stroke-linejoin="round"/>
<path d="M33.0107 23L28.0107 18L33.0107 13" stroke="#3FB950" stroke-width="2.86" stroke-linecap="round" stroke-linejoin="round"/>
<path d="M28.0107 18H36.3441C37.2281 18 38.076 18.3512 38.7011 18.9763C39.3262 19.6014 39.6774 20.4493 39.6774 21.3333V33" stroke="#3FB950" stroke-width="2.86" stroke-linecap="round" stroke-linejoin="round"/>
</g>
<defs>
<filter id="filter0_d_8_66" x="2.29646" y="2.28565" width="51.4286" height="51.4286" filterUnits="userSpaceOnUse" color-interpolation-filters="sRGB">
<feFlood flood-opacity="0" result="BackgroundImageFix"/>
<feColorMatrix in="SourceAlpha" type="matrix" values="0 0 0 0 0 0 0 0 0 0 0 0 0 0 0 0 0 0 127 0" result="hardAlpha"/>
<feOffset/>
<feGaussianBlur stdDeviation="2.85714"/>
<feComposite in2="hardAlpha" operator="out"/>
<feColorMatrix type="matrix" values="0 0 0 0 0 0 0 0 0 0 0 0 0 0 0 0 0 0 0.25 0"/>
<feBlend mode="normal" in2="BackgroundImageFix" result="effect1_dropShadow_8_66"/>
<feBlend mode="normal" in="SourceGraphic" in2="effect1_dropShadow_8_66" result="shape"/>
</filter>
<linearGradient id="paint0_linear_8_66" x1="28.0107" y1="-6.10352e-05" x2="28.0107" y2="55.9999" gradientUnits="userSpaceOnUse">
<stop stop-color="#181F29"/>
<stop offset="1" stop-color="#0F131A"/>
</linearGradient>
</defs>
</svg>
