<svg width="57" height="56" viewBox="0 0 57 56" fill="none" xmlns="http://www.w3.org/2000/svg">
<rect x="0.0107422" y="-6.10352e-05" width="56" height="56" rx="8.4" fill="url(#paint0_linear_28_3262)"/>
<g filter="url(#filter0_d_28_3262)">
<path d="M25.9903 27.2786C25.5215 27.3286 25.1579 27.7023 25.1256 28.1661C25.0933 28.6299 25.4018 29.0492 25.8585 29.1624C25.8585 29.1624 28.2251 29.9436 32.2546 30.2643C35.4903 30.5249 39.1593 30.0436 39.1593 30.0436C39.5394 30.0486 39.8878 29.8349 40.0506 29.4961C40.2134 29.1574 40.1614 28.7561 39.9176 28.4686C39.6737 28.1811 39.2816 28.0611 38.9154 28.1605C38.9154 28.1605 35.3262 28.6011 32.406 28.3605C28.5609 28.0605 26.4609 27.3586 26.4609 27.3586C26.3064 27.3211 26.1442 27.3211 25.9909 27.3586L25.9903 27.2786ZM25.9903 22.5285C25.5443 22.5991 25.206 22.9635 25.1744 23.4085C25.1427 23.8535 25.4265 24.261 25.8585 24.3916C25.8585 24.3916 28.2251 25.1729 32.2546 25.4935C35.4903 25.7542 39.1593 25.2729 39.1593 25.2729C39.5039 25.2291 39.7928 25.0085 39.934 24.6929C40.0753 24.3773 40.0227 24.0141 39.8118 23.741C39.6008 23.4679 39.2607 23.3266 38.9148 23.3697C38.9148 23.3697 35.3256 23.8104 32.4053 23.5697C28.5602 23.2697 26.4603 22.5678 26.4603 22.5678C26.3057 22.5303 26.1436 22.5303 25.9903 22.5678V22.5285ZM25.9903 17.7758C25.5215 17.8258 25.1579 18.1996 25.1256 18.6634C25.0933 19.1271 25.4018 19.5465 25.8585 19.6596C25.8585 19.6596 28.2251 20.4209 32.2546 20.7615C35.4903 21.0222 39.1593 20.5409 39.1593 20.5409C39.5039 20.4972 39.7928 20.2765 39.934 19.9609C40.0753 19.6453 40.0227 19.2821 39.8118 19.009C39.6008 18.7359 39.2607 18.5946 38.9148 18.6377C38.9148 18.6377 35.3256 19.0784 32.4053 18.8377C28.5602 18.5377 26.4603 17.8358 26.4603 17.8358C26.3057 17.7983 26.1436 17.7983 25.9903 17.8358V17.7758ZM25.9903 13.0232C25.5215 13.0732 25.1579 13.447 25.1256 13.9108C25.0933 14.3745 25.4018 14.7939 25.8585 14.907C25.8585 14.907 28.2251 15.6883 32.2546 16.0089C35.4903 16.2696 39.1593 15.7883 39.1593 15.7883C39.5394 15.7933 39.8878 15.5795 40.0506 15.2408C40.2134 14.902 40.1614 14.5008 39.9176 14.2133C39.6737 13.9258 39.2816 13.8058 38.9154 13.9051C38.9154 13.9051 35.3262 14.3458 32.406 14.1051C28.5609 13.8051 26.4609 13.1032 26.4609 13.1032C26.3064 13.0657 26.1442 13.0657 25.9909 13.1032L25.9903 13.0232ZM19.2439 8.01187C14.1762 8.01187 12.2974 9.57441 12.2974 9.57441V46.8671C12.2974 46.8671 14.1388 45.3046 20.0668 45.5446C25.9947 45.7846 27.2173 47.8347 34.5034 47.979C41.7882 48.1791 43.6201 46.8771 43.6201 46.8771L43.7259 8.85877C43.7259 8.85877 40.4459 9.78129 34.0656 9.82191C27.6854 9.82191 26.1518 8.21813 20.2955 8.01812C19.9457 8.00532 19.5958 7.99927 19.2458 8L19.2439 8.01187ZM23.4786 10.4463C23.4786 10.4463 26.5446 11.4482 32.2102 11.7288C36.9979 11.9695 41.7989 11.2682 41.7989 11.2682V45.0565C41.7989 45.0565 39.369 46.319 33.2947 45.8778C28.5881 45.5371 23.4083 43.7877 23.4083 43.7877L23.4786 10.4463ZM20.5216 11.3213C21.0664 11.3213 21.5066 11.7563 21.5066 12.2932C21.5066 12.8301 21.0657 13.2651 20.5216 13.2651C20.5216 13.2651 18.9354 13.2732 17.9668 13.4651C16.3407 13.6651 15.2366 14.2064 15.2366 14.2064C14.9262 14.3989 14.5316 14.4033 14.2168 14.2189C13.9019 14.0345 13.7176 13.6895 13.7417 13.3282C13.7657 12.967 13.9912 12.6489 14.3282 12.5045C14.3282 12.5045 15.7681 11.7632 17.7755 11.5626C18.9348 11.3626 20.5229 11.3626 20.5229 11.3626L20.5216 11.3213ZM19.5765 16.0858C19.8915 16.0772 20.2066 16.0772 20.5216 16.0858C21.0284 16.1283 21.4167 16.5464 21.4167 17.0483C21.4167 17.5502 21.0277 17.9671 20.5216 18.0109C20.5216 18.0109 18.9354 18.019 17.9668 18.2109C16.3407 18.4109 15.2366 18.9521 15.2366 18.9521C14.7679 19.1534 14.2199 18.9646 13.9811 18.5171C13.7423 18.0696 13.8924 17.5171 14.327 17.2483C14.327 17.2483 15.7668 16.4871 17.7743 16.3064C18.3545 16.3064 19.0412 16.3064 19.5765 16.1064V16.0858ZM20.5216 20.834C21.0664 20.834 21.5066 21.2691 21.5066 21.8059C21.5066 22.3428 21.0657 22.7778 20.5216 22.7778C20.5216 22.7778 18.9354 22.7678 17.9668 22.7778C16.3407 22.9778 15.2366 23.5191 15.2366 23.5191C14.7679 23.7204 14.2199 23.5316 13.9811 23.0841C13.7423 22.6366 13.8924 22.0841 14.327 21.8153C14.327 21.8153 15.7668 21.074 17.7743 20.8734C18.9335 20.6734 20.5216 20.6734 20.5216 20.6734V20.834Z" fill="white"/>
</g>
<rect x="1.06074" y="1.04994" width="53.9" height="53.9" rx="7.35" stroke="white" stroke-opacity="0.15" stroke-width="2.1"/>
<defs>
<filter id="filter0_d_28_3262" x="2.29646" y="2.28565" width="51.4286" height="51.4286" filterUnits="userSpaceOnUse" color-interpolation-filters="sRGB">
<feFlood flood-opacity="0" result="BackgroundImageFix"/>
<feColorMatrix in="SourceAlpha" type="matrix" values="0 0 0 0 0 0 0 0 0 0 0 0 0 0 0 0 0 0 127 0" result="hardAlpha"/>
<feOffset/>
<feGaussianBlur stdDeviation="2.85714"/>
<feComposite in2="hardAlpha" operator="out"/>
<feColorMatrix type="matrix" values="0 0 0 0 0 0 0 0 0 0 0 0 0 0 0 0 0 0 0.25 0"/>
<feBlend mode="normal" in2="BackgroundImageFix" result="effect1_dropShadow_28_3262"/>
<feBlend mode="normal" in="SourceGraphic" in2="effect1_dropShadow_28_3262" result="shape"/>
</filter>
<linearGradient id="paint0_linear_28_3262" x1="28.0107" y1="-6.10351e-05" x2="28.0107" y2="55.9999" gradientUnits="userSpaceOnUse">
<stop stop-color="#24292C"/>
<stop offset="1" stop-color="#171A1C"/>
</linearGradient>
</defs>
</svg>
