<svg width="57" height="56" viewBox="0 0 57 56" fill="none" xmlns="http://www.w3.org/2000/svg">
<rect x="0.0107422" y="-6.10352e-05" width="56" height="56" rx="8.4" fill="url(#paint0_linear_28_3563)"/>
<g filter="url(#filter0_d_28_3563)">
<path fill-rule="evenodd" clip-rule="evenodd" d="M14.6895 8.15663C14.313 8.44602 14.2495 8.95849 14.2495 11.7036C14.2495 13.7155 14.2119 14.4539 14.1063 14.52C14.0275 14.5693 12.9542 14.7739 11.7211 14.9748L9.47904 15.34L9.44759 18.3329C9.42339 20.6376 9.45047 21.3529 9.56539 21.4438C9.66626 21.5235 10.4015 21.4523 11.8348 21.2239C13.0009 21.0381 14.0216 20.9103 14.1029 20.9399C14.2204 20.9826 14.2446 23.017 14.2207 30.8016L14.1906 40.6094L11.8348 40.6689L9.47904 40.7285V44.3642V47.9999H19.7266H29.9742V44.3642V40.7285L27.5595 40.6689L25.1448 40.6094L25.1148 29.9075C25.0909 21.4076 25.1151 19.1946 25.2326 19.1521C25.3846 19.0969 38.9282 16.9687 39.4562 16.917C39.7347 16.8897 39.7523 16.9238 39.783 17.5438L39.8155 18.1994L37.5101 20.3451L35.2048 22.4906L34.533 22.5503L33.8612 22.6099V24.994V27.3779H40.2218H46.5823V24.994V22.6099L45.9675 22.574L45.3528 22.5381L43.4057 20.3801L41.4585 18.2222V17.4804C41.4585 16.5985 41.5236 16.5285 42.4487 16.4152C43.3249 16.3079 43.4602 16.254 43.4638 16.0112C43.4693 15.6328 42.6033 10.2118 42.5226 10.12C42.4777 10.0688 38.5855 10.6464 33.8733 11.4034C29.161 12.1603 25.2561 12.7489 25.1957 12.7111C25.1353 12.6734 25.0859 11.8222 25.0859 10.8197C25.0859 8.92562 24.9798 8.32454 24.6102 8.12433C24.2684 7.9392 14.933 7.96961 14.6895 8.15663ZM23.1756 11.3952C23.2131 13.1372 23.2336 13.0881 22.3975 13.2486L21.7787 13.3673L19.6631 11.6829C18.4996 10.7565 17.5475 9.95179 17.5475 9.89491C17.5475 9.83794 18.8064 9.80573 20.345 9.82334L23.1424 9.85526L23.1756 11.3952ZM18.4898 12.9958C19.3731 13.7128 19.3441 13.7548 17.7927 14.002C16.0297 14.2829 16.1341 14.3624 16.1341 12.7398C16.1341 10.9304 15.9161 10.9067 18.4898 12.9958ZM23.1778 20.1972C23.2185 20.9866 23.1624 21.0143 22.5403 20.5114C22.2884 20.3079 21.9796 20.0677 21.8539 19.9777C21.5649 19.7708 21.6312 19.7077 22.2722 19.5786C23.1067 19.4107 23.1383 19.4324 23.1778 20.1972ZM41.7154 21.1232C42.3191 21.7807 42.8308 22.3708 42.8524 22.4344C42.877 22.507 41.9639 22.5503 40.4083 22.5503C39.0424 22.5503 37.9235 22.51 37.9218 22.4609C37.9182 22.3565 40.4186 19.9398 40.5375 19.9326C40.5815 19.93 41.1116 20.4658 41.7154 21.1232ZM20.1094 20.8327C21.4052 21.8787 21.4564 21.8448 18.6371 21.8077L16.193 21.7755L16.1559 21.2527C16.1068 20.5577 16.1291 20.5435 17.6782 20.2909C18.4161 20.1706 19.0463 20.0668 19.0787 20.0603C19.1112 20.0537 19.575 20.4013 20.1094 20.8327ZM23.1749 25.5601C23.1928 26.5928 23.1663 27.4368 23.116 27.4359C22.9831 27.4335 18.5561 23.8805 18.5086 23.7381C18.4824 23.6594 19.2739 23.6292 20.8055 23.6503L23.1424 23.6827L23.1749 25.5601ZM18.7925 26.31C20.1093 27.3563 21.146 28.2537 21.0961 28.3043C21.0462 28.3549 19.9226 28.3817 18.5992 28.3639L16.193 28.3316L16.1606 26.324C16.137 24.8556 16.1645 24.3287 16.2632 24.3621C16.3375 24.3871 17.4757 25.2637 18.7925 26.31ZM23.1752 32.0176C23.1931 32.9959 23.1666 33.8345 23.1163 33.881C23.0263 33.9643 18.5871 30.4985 18.5086 30.2838C18.4848 30.2187 19.4173 30.1872 20.8055 30.2064L23.1424 30.2388L23.1752 32.0176ZM18.7851 32.8225C20.1161 33.8828 21.1601 34.7959 21.1052 34.8514C21.0504 34.9069 19.9226 34.9378 18.5992 34.92L16.193 34.8877L16.1607 32.8911C16.1399 31.6108 16.1708 30.8944 16.2468 30.8944C16.3119 30.8944 17.4541 31.762 18.7851 32.8225ZM23.1749 38.5531C23.2002 40.0157 23.1742 40.4289 23.0571 40.4232C22.8621 40.4136 18.5807 36.9616 18.517 36.7626C18.4786 36.6426 18.9568 36.6178 20.8055 36.6434L23.1424 36.6757L23.1749 38.5531ZM20.2507 40.5824C20.254 40.6332 19.3423 40.6599 18.2248 40.642L16.193 40.6094L16.1597 39.126C16.1414 38.3101 16.1532 37.5723 16.1857 37.4863C16.2435 37.3337 20.2375 40.3758 20.2507 40.5824Z" fill="url(#paint1_linear_28_3563)"/>
</g>
<rect x="1.06074" y="1.04994" width="53.9" height="53.9" rx="7.35" stroke="white" stroke-opacity="0.15" stroke-width="2.1"/>
<defs>
<filter id="filter0_d_28_3563" x="2.29646" y="2.28565" width="51.4286" height="51.4286" filterUnits="userSpaceOnUse" color-interpolation-filters="sRGB">
<feFlood flood-opacity="0" result="BackgroundImageFix"/>
<feColorMatrix in="SourceAlpha" type="matrix" values="0 0 0 0 0 0 0 0 0 0 0 0 0 0 0 0 0 0 127 0" result="hardAlpha"/>
<feOffset/>
<feGaussianBlur stdDeviation="2.85714"/>
<feComposite in2="hardAlpha" operator="out"/>
<feColorMatrix type="matrix" values="0 0 0 0 0 0 0 0 0 0 0 0 0 0 0 0 0 0 0.25 0"/>
<feBlend mode="normal" in2="BackgroundImageFix" result="effect1_dropShadow_28_3563"/>
<feBlend mode="normal" in="SourceGraphic" in2="effect1_dropShadow_28_3563" result="shape"/>
</filter>
<linearGradient id="paint0_linear_28_3563" x1="28.0107" y1="-6.10351e-05" x2="28.0107" y2="55.9999" gradientUnits="userSpaceOnUse">
<stop stop-color="#311D14"/>
<stop offset="1" stop-color="#1C0B0B"/>
</linearGradient>
<linearGradient id="paint1_linear_28_3563" x1="28.0109" y1="7.99994" x2="28.0109" y2="47.9999" gradientUnits="userSpaceOnUse">
<stop stop-color="#E05718"/>
<stop offset="1" stop-color="#D63833"/>
</linearGradient>
</defs>
</svg>
