<svg width="57" height="56" viewBox="0 0 57 56" fill="none" xmlns="http://www.w3.org/2000/svg">
<g clip-path="url(#clip0_28_3590)">
<rect x="0.0107422" y="-0.000183105" width="56" height="56" rx="8.4" fill="url(#paint0_linear_28_3590)"/>
<g filter="url(#filter0_d_28_3590)">
<path d="M9.01075 36.4998V33.9998H16.5107V36.4998H9.01075ZM16.5107 33.9998V31.4998H19.0107V33.9998H16.5107ZM6.51075 33.9998V21.4998H9.01075V33.9998H6.51075ZM16.5107 23.9998V21.4998H19.0107V23.9998H16.5107ZM9.01075 21.4998V18.9998H16.5107V21.4998H9.01075ZM21.5107 36.4998V18.9998H34.0107V21.4998H24.0107V23.9998H29.0107V26.4998H24.0107V33.9998H34.0107V36.4998H21.5107ZM41.5107 26.4998V23.9998H44.0107V26.4998H41.5107ZM36.5107 36.4998V18.9998H39.0107V21.4998H41.5107V23.9998H39.0107V36.4998H36.5107ZM46.5107 36.4998V23.9998H44.0107V21.4998H46.5107V18.9998H49.0107V36.4998H46.5107Z" fill="white"/>
</g>
</g>
<rect x="1.06074" y="1.04982" width="53.9" height="53.9" rx="7.35" stroke="white" stroke-opacity="0.15" stroke-width="2.1"/>
<defs>
<filter id="filter0_d_28_3590" x="0.796457" y="2.28553" width="53.9286" height="51.4286" filterUnits="userSpaceOnUse" color-interpolation-filters="sRGB">
<feFlood flood-opacity="0" result="BackgroundImageFix"/>
<feColorMatrix in="SourceAlpha" type="matrix" values="0 0 0 0 0 0 0 0 0 0 0 0 0 0 0 0 0 0 127 0" result="hardAlpha"/>
<feOffset/>
<feGaussianBlur stdDeviation="2.85714"/>
<feComposite in2="hardAlpha" operator="out"/>
<feColorMatrix type="matrix" values="0 0 0 0 0 0 0 0 0 0 0 0 0 0 0 0 0 0 0.25 0"/>
<feBlend mode="normal" in2="BackgroundImageFix" result="effect1_dropShadow_28_3590"/>
<feBlend mode="normal" in="SourceGraphic" in2="effect1_dropShadow_28_3590" result="shape"/>
</filter>
<linearGradient id="paint0_linear_28_3590" x1="28.0107" y1="-0.000183105" x2="28.0108" y2="53.1999" gradientUnits="userSpaceOnUse">
<stop stop-color="#343434"/>
<stop offset="1" stop-color="#232323"/>
</linearGradient>
<clipPath id="clip0_28_3590">
<rect x="0.0107422" y="-0.000183105" width="56" height="56" rx="8.4" fill="white"/>
</clipPath>
</defs>
</svg>
