<svg width="57" height="56" viewBox="0 0 57 56" fill="none" xmlns="http://www.w3.org/2000/svg">
<rect x="0.0107422" y="-4.57764e-05" width="56" height="56" rx="8.4" fill="url(#paint0_linear_28_3557)"/>
<g filter="url(#filter0_d_28_3557)">
<path d="M29.559 8V10.8729H26.6848V16.6188H23.8107V19.4917H20.9365V22.1436H18.0624V25.0166H15.1882V27.8895H12.3141V30.7624H9.43994V36.5083H12.3141V39.3812H15.1882V42.2541H18.0624V45.1271H20.9365V48H23.8107V45.1271H26.6848V42.2541H29.559V39.3812H32.4331V36.5083H35.3073V33.6354H37.9603V30.7624H43.7086V27.8895H46.5828V22.1436H43.7086V19.4917H40.8345V16.6188H37.9603V13.7459H35.3073V10.8729H32.4331V8H29.559Z" fill="#115110"/>
<path d="M29.5591 10.8729V13.7459H32.4332V16.6188H35.3074V19.4917H37.9604V22.1436H40.8346V19.4917H37.9604V16.6188H35.3074V13.7459H32.4332V10.8729H29.5591Z" fill="#9CFF55"/>
<path d="M29.5591 13.7459V16.6188H32.432V13.7459H29.5591Z" fill="#90EB4B"/>
<path d="M26.6851 16.6188V22.1436H20.9368V25.0166H18.0626V27.8895H15.1885V33.6353H18.0626V36.5083H20.9368V39.3812H26.6851V33.6353H23.8109V30.7624H29.5592V33.6353H32.4334V27.8895H29.5592V25.0166H35.3075V22.1436H32.4334V19.4917H29.5592V16.6188H26.6851Z" fill="#9CFF55"/>
<path d="M29.5591 16.6188V19.4917H32.4332V22.1436H35.3074V25.0166H37.9604V22.1436H35.3074V19.4917H32.4332V16.6188H29.5591Z" fill="#115110"/>
<path d="M32.4331 16.6188V19.4917H35.306V16.6188H32.4331Z" fill="#89DC42"/>
<path d="M23.811 19.4917V22.1437H26.684V19.4917H23.811Z" fill="#90EB4B"/>
<path d="M35.3076 19.4917V22.1436H37.9596V19.4917H35.3076Z" fill="#89DC42"/>
<path d="M26.6846 22.1437V25.0166H29.5575V22.1437H26.6846Z" fill="#90EB4B"/>
<path d="M37.9604 22.1437V25.0166H40.8334V22.1437H37.9604Z" fill="#89DC42"/>
<path d="M29.5591 25.0166V27.8895H35.3074V25.0166H29.5591Z" fill="#90EB4B"/>
<path d="M35.3073 25.0166V27.8895H32.4331V33.6354H35.3073V30.7624H37.9603V25.0166H35.3073Z" fill="#89DC42"/>
<path d="M40.8345 25.0166V27.8895H43.7074V25.0166H40.8345Z" fill="#5E8D2F"/>
<path d="M20.937 27.8895V30.7624H23.8099V27.8895H20.937Z" fill="#90EB4B"/>
<path d="M12.314 30.7624V33.6353H15.1881V36.5083H18.0623V39.3812H20.9364V42.2541H23.8106V39.3812H20.9364V36.5083H18.0623V33.6353H15.1881V30.7624H12.314Z" fill="#80CC3D"/>
<path d="M23.811 30.7624V33.6353H29.5593V30.7624H23.811Z" fill="#90EB4B"/>
<path d="M12.314 33.6354V36.5083H15.1869V33.6354H12.314Z" fill="#6EAA33"/>
<path d="M26.6846 33.6354V39.3812H29.5587V36.5083H32.4329V33.6354H26.6846Z" fill="#89DC42"/>
<path d="M15.1885 36.5083V39.3812H18.0626V36.5083H15.1885ZM18.0626 39.3812V42.2541H20.9368V39.3812H18.0626Z" fill="#6EAA33"/>
<path d="M23.811 39.3812V42.2541H26.684V39.3812H23.811Z" fill="#89DC42"/>
<path d="M20.937 42.2541V45.127H23.8099V42.2541H20.937Z" fill="#6EAA33"/>
</g>
<rect x="1.06074" y="1.04995" width="53.9" height="53.9" rx="7.35" stroke="white" stroke-opacity="0.15" stroke-width="2.1"/>
<defs>
<filter id="filter0_d_28_3557" x="2.29646" y="2.28567" width="51.4286" height="51.4286" filterUnits="userSpaceOnUse" color-interpolation-filters="sRGB">
<feFlood flood-opacity="0" result="BackgroundImageFix"/>
<feColorMatrix in="SourceAlpha" type="matrix" values="0 0 0 0 0 0 0 0 0 0 0 0 0 0 0 0 0 0 127 0" result="hardAlpha"/>
<feOffset/>
<feGaussianBlur stdDeviation="2.85714"/>
<feComposite in2="hardAlpha" operator="out"/>
<feColorMatrix type="matrix" values="0 0 0 0 0 0 0 0 0 0 0 0 0 0 0 0 0 0 0.25 0"/>
<feBlend mode="normal" in2="BackgroundImageFix" result="effect1_dropShadow_28_3557"/>
<feBlend mode="normal" in="SourceGraphic" in2="effect1_dropShadow_28_3557" result="shape"/>
</filter>
<linearGradient id="paint0_linear_28_3557" x1="28.0107" y1="-4.57764e-05" x2="28.0107" y2="55.9999" gradientUnits="userSpaceOnUse">
<stop stop-color="#213116"/>
<stop offset="1" stop-color="#151E0D"/>
</linearGradient>
</defs>
</svg>
