<svg width="57" height="56" viewBox="0 0 57 56" fill="none" xmlns="http://www.w3.org/2000/svg">
<rect x="0.0107422" width="56" height="56" rx="8.4" fill="url(#paint0_linear_28_3521)"/>
<g filter="url(#filter0_d_28_3521)">
<path d="M29.4409 8V10.8571H26.5838V16.5714H23.7266V19.4286H20.8695V22.2857H18.0123V25.1429H15.1552V28H12.2981V30.8571H9.44092V36.5714H12.2981V39.4286H15.1552V42.2857H18.0123V45.1429H20.8695V48H26.5838V45.1429H29.4409V39.4286H32.2981V36.5714H35.1552V33.7143H38.0124V30.8571H43.7266V28H46.5838V22.2857H43.7266V19.4286H40.8695V16.5714H38.0124V13.7143H35.1552V10.8571H32.2981V8H29.4409Z" fill="#38342A"/>
<path d="M29.4404 10.8571V13.7143H32.2976V16.5714H35.1547V19.4286H38.0119V22.2857H40.869V19.4286H38.0119V16.5714H35.1547V13.7143H32.2976V10.8571H29.4404Z" fill="#DBD0B4"/>
<path d="M29.4404 13.7143V16.5714H32.2976V13.7143H29.4404Z" fill="#C6BCA5"/>
<path d="M26.5834 16.5714V22.2857H20.8691V25.1429H18.0119V28H15.1548V33.7143H18.0119V36.5714H20.8691V39.4286H26.5834V33.7143H23.7262V30.8571H29.4405V33.7143H32.2976V28H29.4405V25.1429H35.1548V22.2857H32.2976V19.4286H29.4405V16.5714H26.5834Z" fill="#DBD0B4"/>
<path d="M29.4404 16.5714V19.4286H32.2976V22.2857H35.1547V25.1429H38.0119V22.2857H35.1547V19.4286H32.2976V16.5714H29.4404Z" fill="#38342A"/>
<path d="M32.2979 16.5714V19.4286H35.155V16.5714H32.2979Z" fill="#BCB29C"/>
<path d="M23.7266 19.4286V22.2857H26.5837V19.4286H23.7266Z" fill="#C6BCA5"/>
<path d="M35.1548 19.4286V22.2857H38.0119V19.4286H35.1548Z" fill="#BCB29C"/>
<path d="M26.5835 22.2857V25.1429H29.4406V22.2857H26.5835Z" fill="#C6BCA5"/>
<path d="M38.0122 22.2857V25.1429H40.8693V22.2857H38.0122Z" fill="#BCB29C"/>
<path d="M29.4404 25.1429V28H35.1547V25.1429H29.4404Z" fill="#C6BCA5"/>
<path d="M35.155 25.1429V28H32.2979V33.7143H35.155V30.8571H38.0121V25.1429H35.155Z" fill="#BCB29C"/>
<path d="M40.8691 25.1429V28H43.7263V25.1429H40.8691Z" fill="#807A6D"/>
<path d="M20.8691 28V30.8571H23.7263V28H20.8691Z" fill="#C6BCA5"/>
<path d="M12.2979 30.8571V33.7143H15.155V36.5714H18.0121V39.4286H20.8693V42.2857H23.7264V39.4286H20.8693V36.5714H18.0121V33.7143H15.155V30.8571H12.2979Z" fill="#AEA694"/>
<path d="M23.7266 30.8571V33.7143H29.4408V30.8571H23.7266Z" fill="#C6BCA5"/>
<path d="M12.2979 33.7143V36.5714H15.155V33.7143H12.2979Z" fill="#9A927E"/>
<path d="M26.5835 33.7143V39.4286H29.4406V36.5714H32.2978V33.7143H26.5835Z" fill="#BCB29C"/>
<path d="M15.1548 36.5714V39.4286H18.0119V36.5714H15.1548ZM18.0119 39.4286V42.2857H20.8691V39.4286H18.0119Z" fill="#9A927E"/>
<path d="M23.7266 39.4286V42.2857H26.5837V39.4286H23.7266Z" fill="#BCB29C"/>
<path d="M20.8691 42.2857V45.1429H23.7263V42.2857H20.8691Z" fill="#9A927E"/>
</g>
<rect x="1.06074" y="1.05" width="53.9" height="53.9" rx="7.35" stroke="white" stroke-opacity="0.15" stroke-width="2.1"/>
<defs>
<filter id="filter0_d_28_3521" x="2.29646" y="2.28571" width="51.4286" height="51.4286" filterUnits="userSpaceOnUse" color-interpolation-filters="sRGB">
<feFlood flood-opacity="0" result="BackgroundImageFix"/>
<feColorMatrix in="SourceAlpha" type="matrix" values="0 0 0 0 0 0 0 0 0 0 0 0 0 0 0 0 0 0 127 0" result="hardAlpha"/>
<feOffset/>
<feGaussianBlur stdDeviation="2.85714"/>
<feComposite in2="hardAlpha" operator="out"/>
<feColorMatrix type="matrix" values="0 0 0 0 0 0 0 0 0 0 0 0 0 0 0 0 0 0 0.25 0"/>
<feBlend mode="normal" in2="BackgroundImageFix" result="effect1_dropShadow_28_3521"/>
<feBlend mode="normal" in="SourceGraphic" in2="effect1_dropShadow_28_3521" result="shape"/>
</filter>
<linearGradient id="paint0_linear_28_3521" x1="28.0107" y1="0" x2="28.0107" y2="56" gradientUnits="userSpaceOnUse">
<stop stop-color="#2D2A24"/>
<stop offset="1" stop-color="#1E1C18"/>
</linearGradient>
</defs>
</svg>
