<svg width="57" height="56" viewBox="0 0 57 56" fill="none" xmlns="http://www.w3.org/2000/svg">
<g clip-path="url(#clip0_28_3542)">
<rect x="0.0107422" y="-3.05176e-05" width="56" height="56" rx="8.4" fill="url(#paint0_linear_28_3542)"/>
<g filter="url(#filter0_d_28_3542)">
<path d="M19.1319 13.5364C19.1321 13.7238 19.2066 13.9035 19.3392 14.036C19.4717 14.1685 19.6514 14.2431 19.8388 14.2432H21.0407V16.9299H19.8388C19.6513 16.9299 19.4715 17.0044 19.339 17.137C19.2064 17.2695 19.1319 17.4493 19.1319 17.6368C19.1319 17.8243 19.2064 18.0041 19.339 18.1366C19.4715 18.2692 19.6513 18.3436 19.8388 18.3436H21.0407V20.4041C21.0407 20.5702 20.9748 20.7295 20.8573 20.8469C20.7399 20.9644 20.5806 21.0304 20.4145 21.0304H18.3541V19.8284C18.3541 19.6409 18.2796 19.4611 18.147 19.3286C18.0145 19.196 17.8347 19.1215 17.6472 19.1215C17.4598 19.1215 17.28 19.196 17.1474 19.3286C17.0148 19.4611 16.9404 19.6409 16.9404 19.8284V21.0304H14.2537V19.8284C14.2537 19.6409 14.1792 19.4611 14.0467 19.3286C13.9141 19.196 13.7343 19.1215 13.5468 19.1215C13.3594 19.1215 13.1796 19.196 13.047 19.3286C12.9145 19.4611 12.84 19.6409 12.84 19.8284V21.0304H10.7796C10.6135 21.0302 10.4544 20.9641 10.3369 20.8467C10.2195 20.7293 10.1535 20.5701 10.1533 20.4041V10.7691C10.1533 10.603 10.2193 10.4437 10.3367 10.3262C10.4542 10.2088 10.6135 10.1428 10.7796 10.1428H20.4145C20.4968 10.1427 20.5782 10.1589 20.6543 10.1903C20.7303 10.2218 20.7994 10.2679 20.8575 10.326C20.9157 10.3842 20.9618 10.4533 20.9933 10.5293C21.0247 10.6053 21.0408 10.6868 21.0407 10.7691V12.8289H19.8388C19.6512 12.829 19.4715 12.9037 19.3389 13.0363C19.2064 13.169 19.1319 13.3489 19.1319 13.5364Z" fill="#9722FF"/>
<path d="M31.4321 13.5364C31.4321 13.7239 31.5066 13.9036 31.6392 14.0362C31.7717 14.1688 31.9515 14.2432 32.139 14.2432H33.3444V16.9299H32.1424C31.9549 16.9299 31.7751 17.0044 31.6426 17.137C31.51 17.2695 31.4355 17.4493 31.4355 17.6368C31.4355 17.8243 31.51 18.0041 31.6426 18.1366C31.7751 18.2692 31.9549 18.3436 32.1424 18.3436H33.3444V20.4041C33.3442 20.5701 33.2781 20.7293 33.1607 20.8467C33.0433 20.9641 32.8841 21.0302 32.7181 21.0304H23.0818C22.9157 21.0304 22.7564 20.9644 22.639 20.8469C22.5215 20.7295 22.4556 20.5702 22.4556 20.4041V18.3436H23.6569C23.8443 18.3436 24.0241 18.2692 24.1567 18.1366C24.2892 18.0041 24.3637 17.8243 24.3637 17.6368C24.3637 17.4493 24.2892 17.2695 24.1567 17.137C24.0241 17.0044 23.8443 16.9299 23.6569 16.9299H22.4556V14.2432H23.6569C23.7516 14.2462 23.8459 14.2301 23.9343 14.1958C24.0227 14.1616 24.1033 14.11 24.1713 14.0441C24.2393 13.9781 24.2934 13.8991 24.3304 13.8119C24.3673 13.7246 24.3864 13.6308 24.3864 13.536C24.3864 13.4413 24.3673 13.3475 24.3304 13.2602C24.2934 13.1729 24.2393 13.094 24.1713 13.028C24.1033 12.9621 24.0227 12.9105 23.9343 12.8762C23.8459 12.842 23.7516 12.8259 23.6569 12.8289H22.4556V10.7691C22.4555 10.6868 22.4716 10.6053 22.5031 10.5293C22.5345 10.4533 22.5806 10.3842 22.6388 10.326C22.697 10.2679 22.766 10.2218 22.8421 10.1903C22.9181 10.1589 22.9996 10.1427 23.0818 10.1428H32.7167C32.8828 10.1428 33.0421 10.2088 33.1596 10.3262C33.277 10.4437 33.343 10.603 33.343 10.7691V12.8289H32.141C32.048 12.8286 31.9558 12.8467 31.8697 12.8821C31.7837 12.9176 31.7055 12.9697 31.6396 13.0354C31.5738 13.1011 31.5215 13.1792 31.4859 13.2652C31.4503 13.3512 31.432 13.4433 31.4321 13.5364Z" fill="#DC29DD"/>
<path d="M45.6443 10.7691V20.4041C45.6443 20.5702 45.5783 20.7295 45.4608 20.8469C45.3434 20.9644 45.1841 21.0304 45.018 21.0304H42.9576V19.8284C42.9576 19.6409 42.8831 19.4611 42.7505 19.3286C42.618 19.196 42.4382 19.1215 42.2507 19.1215C42.0633 19.1215 41.8835 19.196 41.7509 19.3286C41.6184 19.4611 41.5439 19.6409 41.5439 19.8284V21.0304H38.8572V19.8284C38.8572 19.6409 38.7827 19.4611 38.6502 19.3286C38.5176 19.196 38.3378 19.1215 38.1504 19.1215C37.9629 19.1215 37.7831 19.196 37.6506 19.3286C37.518 19.4611 37.4435 19.6409 37.4435 19.8284V21.0304H35.3831C35.2171 21.0302 35.0579 20.9641 34.9405 20.8467C34.8231 20.7293 34.757 20.5701 34.7568 20.4041V18.3436H35.9588C36.1463 18.3436 36.3261 18.2692 36.4586 18.1366C36.5912 18.0041 36.6657 17.8243 36.6657 17.6368C36.6657 17.4493 36.5912 17.2695 36.4586 17.137C36.3261 17.0044 36.1463 16.9299 35.9588 16.9299H34.7568V14.2432H35.9588C36.1426 14.2375 36.3169 14.1605 36.4448 14.0285C36.5728 13.8965 36.6444 13.7199 36.6444 13.536C36.6444 13.3522 36.5728 13.1756 36.4448 13.0436C36.3169 12.9116 36.1426 12.8346 35.9588 12.8289H34.7568V10.7691C34.7568 10.603 34.8228 10.4437 34.9403 10.3262C35.0577 10.2088 35.217 10.1428 35.3831 10.1428H45.018C45.1003 10.1427 45.1817 10.1589 45.2578 10.1903C45.3338 10.2218 45.4029 10.2679 45.461 10.326C45.5192 10.3842 45.5653 10.4533 45.5968 10.5293C45.6282 10.6053 45.6444 10.6868 45.6443 10.7691Z" fill="#27A2FD"/>
<path d="M21.0407 23.0703V32.7054C21.0408 32.7876 21.0247 32.8691 20.9933 32.9451C20.9618 33.0211 20.9157 33.0902 20.8575 33.1484C20.7994 33.2066 20.7303 33.2527 20.6543 33.2841C20.5782 33.3156 20.4968 33.3317 20.4145 33.3316H18.3541V32.1296C18.3541 31.9422 18.2796 31.7624 18.147 31.6298C18.0145 31.4972 17.8347 31.4228 17.6472 31.4228C17.4598 31.4228 17.28 31.4972 17.1474 31.6298C17.0148 31.7624 16.9404 31.9422 16.9404 32.1296V33.333H14.2537V32.131C14.2537 31.9435 14.1792 31.7637 14.0467 31.6312C13.9141 31.4986 13.7343 31.4241 13.5468 31.4241C13.3594 31.4241 13.1796 31.4986 13.047 31.6312C12.9145 31.7637 12.84 31.9435 12.84 32.131V33.333H10.7796C10.6135 33.333 10.4542 33.267 10.3367 33.1496C10.2193 33.0321 10.1533 32.8728 10.1533 32.7067V23.0703C10.1535 22.9043 10.2195 22.7451 10.3369 22.6277C10.4544 22.5103 10.6135 22.4443 10.7796 22.4441H12.84V23.6461C12.84 23.8335 12.9145 24.0133 13.047 24.1459C13.1796 24.2784 13.3594 24.3529 13.5468 24.3529C13.7343 24.3529 13.9141 24.2784 14.0467 24.1459C14.1792 24.0133 14.2537 23.8335 14.2537 23.6461V22.4441H16.9404V23.6461C16.9404 23.8335 17.0148 24.0133 17.1474 24.1459C17.28 24.2784 17.4598 24.3529 17.6472 24.3529C17.8347 24.3529 18.0145 24.2784 18.147 24.1459C18.2796 24.0133 18.3541 23.8335 18.3541 23.6461V22.4441H20.4145C20.4967 22.4441 20.5782 22.4603 20.6541 22.4917C20.7301 22.5232 20.7992 22.5694 20.8573 22.6275C20.9155 22.6857 20.9616 22.7547 20.9931 22.8307C21.0245 22.9067 21.0407 22.9881 21.0407 23.0703Z" fill="#DC29DD"/>
<path d="M31.4321 25.8376C31.4321 26.0251 31.5066 26.2049 31.6392 26.3374C31.7717 26.47 31.9515 26.5445 32.139 26.5445H33.3444V29.2312H32.1424C31.9549 29.2312 31.7751 29.3057 31.6426 29.4382C31.51 29.5708 31.4355 29.7506 31.4355 29.938C31.4355 30.1255 31.51 30.3053 31.6426 30.4379C31.7751 30.5704 31.9549 30.6449 32.1424 30.6449H33.3444V32.7053C33.3444 32.8714 33.2784 33.0307 33.1609 33.1482C33.0435 33.2656 32.8842 33.3316 32.7181 33.3316H30.6563V32.1296C30.6563 31.9421 30.5818 31.7624 30.4493 31.6298C30.3167 31.4972 30.1369 31.4228 29.9495 31.4228C29.762 31.4228 29.5822 31.4972 29.4497 31.6298C29.3171 31.7624 29.2426 31.9421 29.2426 32.1296V33.333H26.5559V32.131C26.5502 31.9472 26.4732 31.7729 26.3412 31.6449C26.2092 31.517 26.0326 31.4454 25.8488 31.4454C25.6649 31.4454 25.4883 31.517 25.3563 31.6449C25.2243 31.7729 25.1473 31.9472 25.1416 32.131V33.333H23.0818C22.9996 33.3331 22.9181 33.3169 22.8421 33.2855C22.766 33.254 22.697 33.2079 22.6388 33.1497C22.5806 33.0916 22.5345 33.0225 22.5031 32.9465C22.4716 32.8704 22.4555 32.789 22.4556 32.7067V23.0703C22.4556 22.9042 22.5215 22.7449 22.639 22.6275C22.7564 22.51 22.9157 22.4441 23.0818 22.4441H32.7167C32.8828 22.4442 33.042 22.5103 33.1594 22.6277C33.2768 22.7451 33.3428 22.9043 33.343 23.0703V25.1308H32.141C32.048 25.1305 31.9559 25.1486 31.8699 25.184C31.7839 25.2194 31.7057 25.2714 31.6399 25.3371C31.574 25.4027 31.5218 25.4808 31.4861 25.5667C31.4505 25.6525 31.4321 25.7446 31.4321 25.8376Z" fill="#27A2FD"/>
<path d="M45.6443 23.0703V32.7053C45.6444 32.7876 45.6282 32.8691 45.5968 32.9451C45.5653 33.0211 45.5192 33.0902 45.461 33.1484C45.4029 33.2065 45.3338 33.2527 45.2578 33.2841C45.1817 33.3156 45.1003 33.3317 45.018 33.3316H35.3831C35.217 33.3316 35.0577 33.2656 34.9403 33.1482C34.8228 33.0307 34.7568 32.8714 34.7568 32.7053V30.6449H35.9588C36.1463 30.6449 36.3261 30.5704 36.4586 30.4379C36.5912 30.3053 36.6657 30.1255 36.6657 29.938C36.6657 29.7506 36.5912 29.5708 36.4586 29.4382C36.3261 29.3057 36.1463 29.2312 35.9588 29.2312H34.7568V26.5445H35.9588C36.1463 26.5445 36.3261 26.47 36.4586 26.3374C36.5912 26.2049 36.6657 26.0251 36.6657 25.8376C36.6657 25.6502 36.5912 25.4704 36.4586 25.3378C36.3261 25.2052 36.1463 25.1308 35.9588 25.1308H34.7568V23.0703C34.757 22.9043 34.8231 22.7451 34.9405 22.6277C35.0579 22.5103 35.2171 22.4442 35.3831 22.4441H37.4422V23.646C37.4422 23.8335 37.5166 24.0133 37.6492 24.1459C37.7817 24.2784 37.9615 24.3529 38.149 24.3529C38.3365 24.3529 38.5163 24.2784 38.6488 24.1459C38.7814 24.0133 38.8558 23.8335 38.8558 23.646V22.4441H41.5425V23.646C41.5425 23.8335 41.617 24.0133 41.7496 24.1459C41.8821 24.2784 42.0619 24.3529 42.2494 24.3529C42.4368 24.3529 42.6166 24.2784 42.7492 24.1459C42.8817 24.0133 42.9562 23.8335 42.9562 23.646V22.4441H45.0166C45.099 22.4439 45.1806 22.46 45.2567 22.4913C45.3329 22.5227 45.4021 22.5688 45.4604 22.627C45.5187 22.6852 45.5649 22.7543 45.5965 22.8303C45.628 22.9064 45.6443 22.988 45.6443 23.0703Z" fill="#3344FF"/>
<path d="M19.1319 38.1396C19.1321 38.327 19.2066 38.5067 19.3392 38.6392C19.4717 38.7717 19.6514 38.8462 19.8388 38.8464H21.0407V41.5324H19.8388C19.655 41.5382 19.4807 41.6152 19.3527 41.7472C19.2248 41.8792 19.1532 42.0558 19.1532 42.2396C19.1532 42.4235 19.2248 42.6001 19.3527 42.7321C19.4807 42.8641 19.655 42.9411 19.8388 42.9468H21.0407V45.0073C21.0407 45.1734 20.9748 45.3327 20.8573 45.4501C20.7399 45.5676 20.5806 45.6335 20.4145 45.6335H10.7796C10.6135 45.6334 10.4544 45.5673 10.3369 45.4499C10.2195 45.3325 10.1535 45.1733 10.1533 45.0073V35.3723C10.1533 35.2062 10.2193 35.0469 10.3367 34.9294C10.4542 34.812 10.6135 34.746 10.7796 34.746H12.84V35.9473C12.84 36.1348 12.9145 36.3146 13.047 36.4471C13.1796 36.5797 13.3594 36.6542 13.5468 36.6542C13.7343 36.6542 13.9141 36.5797 14.0467 36.4471C14.1792 36.3146 14.2537 36.1348 14.2537 35.9473V34.746H16.9404V35.9473C16.9404 36.1348 17.0148 36.3146 17.1474 36.4471C17.28 36.5797 17.4598 36.6542 17.6472 36.6542C17.8347 36.6542 18.0145 36.5797 18.147 36.4471C18.2796 36.3146 18.3541 36.1348 18.3541 35.9473V34.746H20.4145C20.4968 34.7459 20.5782 34.762 20.6543 34.7935C20.7303 34.8249 20.7994 34.8711 20.8575 34.9292C20.9157 34.9874 20.9618 35.0565 20.9933 35.1325C21.0247 35.2085 21.0408 35.29 21.0407 35.3723V37.4307H19.8388C19.7458 37.4308 19.6538 37.4492 19.5679 37.4849C19.4821 37.5205 19.4041 37.5728 19.3384 37.6386C19.2728 37.7045 19.2208 37.7826 19.1853 37.8685C19.1499 37.9545 19.1318 38.0466 19.1319 38.1396Z" fill="#9722FF"/>
<path d="M33.3444 35.3722V45.0073C33.3442 45.1733 33.2781 45.3325 33.1607 45.4499C33.0433 45.5673 32.8841 45.6333 32.7181 45.6335H23.0818C22.9157 45.6335 22.7564 45.5675 22.639 45.4501C22.5215 45.3327 22.4556 45.1734 22.4556 45.0073V42.9468H23.6569C23.7516 42.9498 23.8459 42.9336 23.9343 42.8994C24.0227 42.8652 24.1033 42.8136 24.1713 42.7476C24.2393 42.6817 24.2934 42.6027 24.3304 42.5155C24.3673 42.4282 24.3864 42.3344 24.3864 42.2396C24.3864 42.1449 24.3673 42.0511 24.3304 41.9638C24.2934 41.8765 24.2393 41.7976 24.1713 41.7316C24.1033 41.6656 24.0227 41.614 23.9343 41.5798C23.8459 41.5456 23.7516 41.5295 23.6569 41.5324H22.4556V38.8464H23.6569C23.7516 38.8493 23.8459 38.8332 23.9343 38.799C24.0227 38.7648 24.1033 38.7132 24.1713 38.6472C24.2393 38.5813 24.2934 38.5023 24.3304 38.415C24.3673 38.3278 24.3864 38.234 24.3864 38.1392C24.3864 38.0444 24.3673 37.9506 24.3304 37.8634C24.2934 37.7761 24.2393 37.6972 24.1713 37.6312C24.1033 37.5652 24.0227 37.5136 23.9343 37.4794C23.8459 37.4452 23.7516 37.4291 23.6569 37.432H22.4556V35.3722C22.4555 35.29 22.4716 35.2085 22.5031 35.1325C22.5345 35.0565 22.5806 34.9874 22.6388 34.9292C22.697 34.871 22.766 34.8249 22.8421 34.7935C22.9181 34.762 22.9996 34.7459 23.0818 34.746H25.1416V35.9473C25.1386 36.042 25.1547 36.1364 25.189 36.2247C25.2232 36.3131 25.2748 36.3937 25.3407 36.4617C25.4067 36.5298 25.4857 36.5839 25.5729 36.6208C25.6602 36.6578 25.754 36.6768 25.8488 36.6768C25.9435 36.6768 26.0373 36.6578 26.1246 36.6208C26.2118 36.5839 26.2908 36.5298 26.3568 36.4617C26.4227 36.3937 26.4743 36.3131 26.5086 36.2247C26.5428 36.1364 26.5589 36.042 26.5559 35.9473V34.746H29.2426V35.9473C29.2426 36.0401 29.2609 36.132 29.2964 36.2178C29.3319 36.3036 29.384 36.3815 29.4497 36.4471C29.5153 36.5127 29.5932 36.5648 29.679 36.6003C29.7647 36.6359 29.8566 36.6541 29.9495 36.6541C30.0423 36.6541 30.1342 36.6359 30.22 36.6003C30.3057 36.5648 30.3836 36.5127 30.4493 36.4471C30.5149 36.3815 30.567 36.3036 30.6025 36.2178C30.638 36.132 30.6563 36.0401 30.6563 35.9473V34.746H32.7167C32.7991 34.7458 32.8807 34.7619 32.9568 34.7933C33.033 34.8247 33.1022 34.8708 33.1605 34.9289C33.2187 34.9871 33.265 35.0562 33.2966 35.1323C33.3281 35.2083 33.3444 35.2899 33.3444 35.3722Z" fill="#3344FF"/>
<path d="M42.0126 35.1883L35.1997 42.0013C34.9551 42.2459 34.9551 42.6424 35.1997 42.887L42.0126 49.7C42.2571 49.9445 42.6537 49.9445 42.8982 49.7L49.7111 42.887C49.9557 42.6424 49.9557 42.2459 49.7111 42.0013L42.8982 35.1883C42.6537 34.9438 42.2571 34.9438 42.0126 35.1883Z" fill="#9722FF"/>
</g>
</g>
<rect x="1.06074" y="1.04997" width="53.9" height="53.9" rx="7.35" stroke="white" stroke-opacity="0.15" stroke-width="2.1"/>
<defs>
<filter id="filter0_d_28_3542" x="2.29646" y="2.28568" width="53.3124" height="53.312" filterUnits="userSpaceOnUse" color-interpolation-filters="sRGB">
<feFlood flood-opacity="0" result="BackgroundImageFix"/>
<feColorMatrix in="SourceAlpha" type="matrix" values="0 0 0 0 0 0 0 0 0 0 0 0 0 0 0 0 0 0 127 0" result="hardAlpha"/>
<feOffset/>
<feGaussianBlur stdDeviation="2.85714"/>
<feComposite in2="hardAlpha" operator="out"/>
<feColorMatrix type="matrix" values="0 0 0 0 0 0 0 0 0 0 0 0 0 0 0 0 0 0 0.25 0"/>
<feBlend mode="normal" in2="BackgroundImageFix" result="effect1_dropShadow_28_3542"/>
<feBlend mode="normal" in="SourceGraphic" in2="effect1_dropShadow_28_3542" result="shape"/>
</filter>
<linearGradient id="paint0_linear_28_3542" x1="28.0107" y1="-3.05176e-05" x2="28.0107" y2="56" gradientUnits="userSpaceOnUse">
<stop stop-color="#2A0E2B"/>
<stop offset="1" stop-color="#0C1723"/>
</linearGradient>
<clipPath id="clip0_28_3542">
<rect x="0.0107422" y="-3.05176e-05" width="56" height="56" rx="8.4" fill="white"/>
</clipPath>
</defs>
</svg>
