<svg width="276" height="41" viewBox="0 0 276 41" fill="none" xmlns="http://www.w3.org/2000/svg">
<g clip-path="url(#clip0_33_64)">
<rect x="0.00830078" y="0.0153809" width="275.001" height="40.0014" rx="8" fill="url(#paint0_linear_33_64)"/>
<g filter="url(#filter0_d_33_64)">
<path fill-rule="evenodd" clip-rule="evenodd" d="M28.806 18.0706C28.9647 18.3184 29.1232 18.5658 29.3049 18.796C29.3431 18.7053 29.3865 18.6133 29.4303 18.5201C29.5421 18.2825 29.6573 18.0376 29.7016 17.789C29.7341 17.6064 29.6945 17.4275 29.6548 17.248C29.623 17.1043 29.5911 16.9602 29.5961 16.8136C29.6112 16.377 29.796 15.9241 29.9648 15.5106C29.9891 15.4511 30.013 15.3924 30.0361 15.3346C30.1206 15.1232 30.2466 14.9109 30.4445 14.7874C30.5016 14.7518 30.5675 14.7274 30.6335 14.7029C30.7302 14.6671 30.8272 14.6312 30.8974 14.5598C31.1118 14.3415 31.2669 13.7459 31.2923 13.4466C31.3367 12.9239 31.1341 12.3575 30.9404 11.8159C30.8466 11.5539 30.755 11.2977 30.6944 11.0551C30.3466 9.66268 30.8232 8.00189 32.1517 7.30476C33.1407 6.78572 34.5199 6.97066 35.2717 7.81444C35.8011 8.40857 36.0107 9.14367 36.0107 9.92232C36.0107 10.4477 35.9816 11.3522 35.5266 11.7172C35.2426 11.945 34.6702 11.9277 34.4811 11.589C34.3116 11.2853 34.3965 10.9579 34.4822 10.6276C34.549 10.37 34.6163 10.1107 34.5637 9.85938C34.4541 9.33584 33.9183 8.65499 33.322 8.73617C32.849 8.80058 32.4796 9.25475 32.3175 9.67058C32.1397 10.1265 32.2938 10.6057 32.4396 11.0593C32.4665 11.1428 32.4931 11.2254 32.5172 11.3069L32.5227 11.3254C32.7698 12.158 33.0042 12.9477 32.9034 13.8242C32.8786 14.0402 32.8008 14.2487 32.7236 14.456C32.6422 14.6742 32.5613 14.8912 32.543 15.1144C32.5328 15.2389 32.5808 15.3623 32.6291 15.4868C32.67 15.5921 32.7113 15.6983 32.7179 15.8066C32.7549 16.4152 32.5403 17.0241 32.2794 17.5688C32.1614 17.8153 31.9764 17.9686 31.7891 18.1237C31.6496 18.2393 31.5088 18.3559 31.3935 18.5128C31.1778 18.8064 31.0428 19.1698 30.9104 19.5262C30.8431 19.7075 30.7764 19.8871 30.7001 20.0547C30.6492 20.1666 30.5869 20.2792 30.5239 20.3931C30.4039 20.6102 30.2814 20.8317 30.2299 21.0616C30.1901 21.2395 30.2506 21.4614 30.3061 21.6653C30.3298 21.7521 30.3526 21.8357 30.3663 21.9112C30.4671 22.465 30.5559 23.0471 30.5692 23.6104C30.6289 26.1313 30.0081 28.7062 28.282 30.6276C27.7464 31.2237 27.1158 31.7456 26.4264 32.1568C23.8642 33.6849 20.6562 33.0195 18.3288 31.3906C17.5227 30.8264 16.8629 30.1437 16.1949 29.4525C15.9673 29.217 15.7387 28.9805 15.5031 28.7474C15.2968 28.5433 15.0697 28.4774 14.8367 28.4098C14.684 28.3654 14.5286 28.3203 14.3749 28.2351C13.9592 28.0045 13.4956 27.3952 13.279 26.9774C13.1819 26.7901 13.1897 26.5981 13.1974 26.4095C13.2039 26.2485 13.2104 26.0899 13.1513 25.939C13.0849 25.7693 12.9565 25.6171 12.8287 25.4655C12.7334 25.3526 12.6385 25.24 12.5697 25.1208C12.2741 24.6087 12.1746 24.0349 12.134 23.4531C12.1176 23.2184 12.1252 22.9638 12.133 22.7036C12.1583 21.8604 12.1853 20.9582 11.4016 20.4829C10.5045 19.9389 9.41477 20.9854 9.54769 21.9112C9.58652 22.1816 9.71472 22.3946 9.84155 22.6053C9.9943 22.8591 10.1451 23.1096 10.1354 23.4531C10.125 23.8213 9.87093 24.0441 9.50369 24.0449C9.01802 24.0461 8.71493 23.7095 8.47238 23.3272C7.98572 22.5603 7.9033 21.5503 8.12869 20.684C8.65641 18.6557 11.3271 17.8894 12.8565 19.3339C13.7221 20.1515 13.7607 21.2198 13.8004 22.3204C13.8016 22.3518 13.8027 22.3833 13.8039 22.4147C13.8076 22.5165 13.8099 22.615 13.8121 22.7107C13.8275 23.3757 13.8398 23.9085 14.3156 24.4908C14.4723 24.6826 14.6757 24.7087 14.8882 24.7359C15.0224 24.7531 15.1602 24.7707 15.2922 24.8309C15.5901 24.9668 15.823 25.2615 16.033 25.5273C16.0766 25.5824 16.1192 25.6363 16.1611 25.6873C16.3081 25.8657 16.4593 26.0566 16.5142 26.2851C16.5425 26.4028 16.5532 26.5203 16.5638 26.6362C16.5834 26.8519 16.6026 27.0626 16.7336 27.2606C17.1654 27.9136 17.8013 28.4986 18.3921 29.0059C19.2835 29.7712 20.2264 30.4557 21.3338 30.8786C24.1617 31.9588 26.9648 30.1182 28.1336 27.5438C28.7827 26.1143 28.8401 24.7355 28.8304 23.2014C28.6252 23.3764 28.447 23.5889 28.2685 23.8016C28.1234 23.9745 27.9782 24.1477 27.8182 24.301C27.0437 25.0433 26.1848 25.6449 25.1928 26.0605C24.2994 26.4349 23.3162 26.6217 22.346 26.5989C21.6197 26.5819 20.8608 26.4188 20.1951 26.1312C16.1489 24.3838 15.3448 18.3582 18.9298 15.6825C19.4584 15.288 20.0406 14.9769 20.6695 14.7783C21.445 14.5334 22.2631 14.4222 23.0735 14.4895C24.1227 14.5767 25.1314 14.8762 26.0468 15.3976C26.9126 15.8906 27.6953 16.566 28.3101 17.3485C28.4909 17.5786 28.6486 17.8248 28.806 18.0706ZM20.4165 16.8983C20.9574 16.5605 21.5867 16.3641 22.2195 16.2927C24.3088 16.057 26.2672 17.5028 27.3751 19.1421C27.6193 19.5036 27.8243 19.8835 28.0153 20.2749C28.0284 20.3018 28.0428 20.3299 28.0577 20.3589C28.1343 20.5083 28.224 20.6832 28.2142 20.8413C28.2051 20.9883 28.1021 21.1311 28.0133 21.2542C27.9987 21.2745 27.9844 21.2942 27.9711 21.3133C27.7538 21.6242 27.5317 21.9376 27.2847 22.2259C26.2425 23.4423 24.7893 24.5845 23.1368 24.7713C22.5333 24.8396 21.9159 24.8099 21.3338 24.6236C20.8284 24.4618 20.3457 24.1981 19.942 23.8556C17.7088 21.9606 17.9062 18.4658 20.4165 16.8983Z" fill="#FCFCFC"/>
<g opacity="0.7">
<mask id="path-4-outside-1_33_64" maskUnits="userSpaceOnUse" x="15.5112" y="14.2161" width="22" height="22" fill="black">
<rect fill="white" x="15.5112" y="14.2161" width="22" height="22"/>
<path fill-rule="evenodd" clip-rule="evenodd" d="M20.6483 17.4211C20.375 17.1477 19.9317 17.1477 19.6584 17.4211L18.7171 18.3624C18.4437 18.6358 18.4437 19.0791 18.7171 19.3525L24.9825 25.6182L18.7163 31.8821C18.4429 32.1554 18.4429 32.5986 18.7163 32.8719L19.6578 33.8131C19.9312 34.0864 20.3745 34.0864 20.648 33.8131L26.9137 27.5496L33.177 33.8133C33.4503 34.0867 33.8936 34.0867 34.1669 33.8133L35.1082 32.872C35.3816 32.5986 35.3816 32.1554 35.1082 31.882L28.8453 25.6187L35.111 19.3553C35.3844 19.082 35.3844 18.6388 35.111 18.3655L34.1695 17.4244C33.8961 17.1511 33.4528 17.1511 33.1793 17.4244L26.9141 23.6873L20.6483 17.4211Z"/>
</mask>
<path fill-rule="evenodd" clip-rule="evenodd" d="M20.6483 17.4211C20.375 17.1477 19.9317 17.1477 19.6584 17.4211L18.7171 18.3624C18.4437 18.6358 18.4437 19.0791 18.7171 19.3525L24.9825 25.6182L18.7163 31.8821C18.4429 32.1554 18.4429 32.5986 18.7163 32.8719L19.6578 33.8131C19.9312 34.0864 20.3745 34.0864 20.648 33.8131L26.9137 27.5496L33.177 33.8133C33.4503 34.0867 33.8936 34.0867 34.1669 33.8133L35.1082 32.872C35.3816 32.5986 35.3816 32.1554 35.1082 31.882L28.8453 25.6187L35.111 19.3553C35.3844 19.082 35.3844 18.6388 35.111 18.3655L34.1695 17.4244C33.8961 17.1511 33.4528 17.1511 33.1793 17.4244L26.9141 23.6873L20.6483 17.4211Z" fill="url(#paint1_linear_33_64)"/>
<path d="M19.6584 17.4211L18.1733 15.9362L18.1733 15.9362L19.6584 17.4211ZM20.6483 17.4211L19.1633 18.9061L19.1633 18.9061L20.6483 17.4211ZM18.7171 18.3624L17.2321 16.8775V16.8775L18.7171 18.3624ZM18.7171 19.3525L17.2321 20.8374L17.2321 20.8374L18.7171 19.3525ZM24.9825 25.6182L26.4672 27.1035L27.9527 25.6186L26.4675 24.1333L24.9825 25.6182ZM18.7163 31.8821L17.2316 30.3968L17.2316 30.3968L18.7163 31.8821ZM18.7163 32.8719L20.201 31.3867H20.201L18.7163 32.8719ZM19.6578 33.8131L18.173 35.2983H18.173L19.6578 33.8131ZM20.648 33.8131L19.1632 32.3278L19.1632 32.3278L20.648 33.8131ZM26.9137 27.5496L28.3987 26.0647L26.914 24.5798L25.429 26.0643L26.9137 27.5496ZM33.177 33.8133L31.6919 35.2983H31.6919L33.177 33.8133ZM34.1669 33.8133L35.652 35.2983L34.1669 33.8133ZM35.1082 32.872L36.5933 34.3569L36.5933 34.3569L35.1082 32.872ZM35.1082 31.882L33.6232 33.3669H33.6232L35.1082 31.882ZM28.8453 25.6187L27.3606 24.1334L25.8751 25.6183L27.3603 27.1036L28.8453 25.6187ZM35.111 19.3553L33.6262 17.8701L33.6262 17.8701L35.111 19.3553ZM35.111 18.3655L36.5957 16.8802L36.5957 16.8802L35.111 18.3655ZM34.1695 17.4244L35.6542 15.9391V15.9391L34.1695 17.4244ZM33.1793 17.4244L31.6946 15.9391L31.6946 15.9391L33.1793 17.4244ZM26.9141 23.6873L25.4291 25.1723L26.9138 26.6571L28.3988 25.1726L26.9141 23.6873ZM21.1434 18.9061C20.5966 19.4529 19.7101 19.4529 19.1633 18.9061L22.1334 15.9362C21.0399 14.8426 19.2668 14.8426 18.1733 15.9362L21.1434 18.9061ZM20.2021 19.8474L21.1434 18.9061L18.1733 15.9362L17.2321 16.8775L20.2021 19.8474ZM20.2022 17.8675C20.7489 18.4143 20.7489 19.3006 20.2021 19.8474L17.2321 16.8775C16.1386 17.971 16.1386 19.7439 17.2321 20.8374L20.2022 17.8675ZM26.4675 24.1333L20.2022 17.8675L17.2321 20.8374L23.4974 27.1032L26.4675 24.1333ZM20.201 33.3674L26.4672 27.1035L23.4977 24.133L17.2316 30.3968L20.201 33.3674ZM20.201 31.3867C20.7481 31.9335 20.7481 32.8205 20.201 33.3674L17.2316 30.3968C16.1376 31.4904 16.1376 33.2637 17.2316 34.3572L20.201 31.3867ZM21.1425 32.3278L20.201 31.3867L17.2316 34.3572L18.173 35.2983L21.1425 32.3278ZM19.1632 32.3278C19.7099 31.7813 20.5958 31.7813 21.1425 32.3278L18.173 35.2983C19.2666 36.3914 21.0392 36.3914 22.1327 35.2983L19.1632 32.3278ZM25.429 26.0643L19.1632 32.3278L22.1327 35.2983L28.3984 29.0349L25.429 26.0643ZM34.662 32.3284L28.3987 26.0647L25.4286 29.0346L31.6919 35.2983L34.662 32.3284ZM32.6819 32.3284C33.2287 31.7816 34.1152 31.7816 34.662 32.3284L31.6919 35.2983C32.7855 36.3919 34.5585 36.3919 35.652 35.2983L32.6819 32.3284ZM33.6232 31.387L32.6819 32.3284L35.652 35.2983L36.5933 34.3569L33.6232 31.387ZM33.6232 33.3669C33.0765 32.8202 33.0765 31.9338 33.6232 31.387L36.5933 34.3569C37.6867 33.2634 37.6867 31.4905 36.5933 30.397L33.6232 33.3669ZM27.3603 27.1036L33.6232 33.3669L36.5933 30.397L30.3304 24.1337L27.3603 27.1036ZM33.6262 17.8701L27.3606 24.1334L30.3301 27.1039L36.5957 20.8406L33.6262 17.8701ZM33.6262 19.8508C33.0792 19.3039 33.0792 18.4169 33.6262 17.8701L36.5957 20.8406C37.6896 19.7471 37.6896 17.9738 36.5957 16.8802L33.6262 19.8508ZM32.6848 18.9097L33.6262 19.8508L36.5957 16.8802L35.6542 15.9391L32.6848 18.9097ZM34.664 18.9097C34.1174 19.4561 33.2314 19.4561 32.6848 18.9097L35.6542 15.9391C34.5607 14.846 32.7881 14.846 31.6946 15.9391L34.664 18.9097ZM28.3988 25.1726L34.664 18.9097L31.6946 15.9391L25.4294 22.202L28.3988 25.1726ZM19.1633 18.9061L25.4291 25.1723L28.3992 22.2024L22.1334 15.9362L19.1633 18.9061Z" fill="black" mask="url(#path-4-outside-1_33_64)"/>
</g>
</g>
<g filter="url(#filter1_d_33_64)">
<path d="M45.7889 26.516L42.3599 14.1524H44.3219L46.7306 23.727H46.8453L49.3507 14.1524H51.2946L53.7999 23.733H53.9146L56.3173 14.1524H58.2853L54.8503 26.516H52.9728L50.3709 17.2554H50.2743L47.6724 26.516H45.7889ZM62.8342 26.7032C61.9648 26.7032 61.2062 26.504 60.5582 26.1055C59.9103 25.7071 59.4072 25.1497 59.049 24.4333C58.6908 23.7169 58.5117 22.8798 58.5117 21.9219C58.5117 20.9601 58.6908 20.1189 59.049 19.3985C59.4072 18.6781 59.9103 18.1187 60.5582 17.7202C61.2062 17.3218 61.9648 17.1226 62.8342 17.1226C63.7035 17.1226 64.4621 17.3218 65.1101 17.7202C65.758 18.1187 66.2611 18.6781 66.6193 19.3985C66.9775 20.1189 67.1566 20.9601 67.1566 21.9219C67.1566 22.8798 66.9775 23.7169 66.6193 24.4333C66.2611 25.1497 65.758 25.7071 65.1101 26.1055C64.4621 26.504 63.7035 26.7032 62.8342 26.7032ZM62.8402 25.1879C63.4036 25.1879 63.8705 25.039 64.2408 24.7412C64.611 24.4434 64.8847 24.0469 65.0618 23.5519C65.2429 23.0569 65.3334 22.5116 65.3334 21.9159C65.3334 21.3243 65.2429 20.781 65.0618 20.2859C64.8847 19.7869 64.611 19.3864 64.2408 19.0846C63.8705 18.7827 63.4036 18.6318 62.8402 18.6318C62.2727 18.6318 61.8018 18.7827 61.4276 19.0846C61.0573 19.3864 60.7816 19.7869 60.6005 20.2859C60.4234 20.781 60.3349 21.3243 60.3349 21.9159C60.3349 22.5116 60.4234 23.0569 60.6005 23.5519C60.7816 24.0469 61.0573 24.4434 61.4276 24.7412C61.8018 25.039 62.2727 25.1879 62.8402 25.1879ZM70.9765 21.0104V26.516H69.1714V17.2433H70.904V18.7526H71.0187C71.232 18.2616 71.5661 17.8671 72.0209 17.5693C72.4797 17.2715 73.0572 17.1226 73.7535 17.1226C74.3853 17.1226 74.9387 17.2554 75.4136 17.521C75.8885 17.7826 76.2568 18.173 76.5184 18.6922C76.78 19.2114 76.9108 19.8533 76.9108 20.618V26.516H75.1057V20.8353C75.1057 20.1632 74.9307 19.638 74.5805 19.2597C74.2304 18.8773 73.7494 18.6861 73.1377 18.6861C72.7191 18.6861 72.3468 18.7767 72.0209 18.9578C71.6989 19.1389 71.4433 19.4045 71.2542 19.7547C71.069 20.1008 70.9765 20.5194 70.9765 21.0104ZM80.8831 14.1524V15.3115C80.8831 15.6536 80.8187 16.0138 80.6899 16.3921C80.5651 16.7664 80.388 17.1266 80.1586 17.4727C79.9292 17.8188 79.6596 18.1167 79.3497 18.3662L78.4562 17.7263C78.6937 17.3802 78.8989 17.0119 79.072 16.6215C79.2491 16.2311 79.3376 15.8005 79.3376 15.3296V14.1524H80.8831ZM87.3124 17.2433V18.6922H82.2474V17.2433H87.3124ZM83.6057 15.0217H85.4108V23.7934C85.4108 24.1435 85.4631 24.4071 85.5677 24.5842C85.6724 24.7573 85.8072 24.876 85.9722 24.9404C86.1412 25.0008 86.3244 25.031 86.5216 25.031C86.6664 25.031 86.7932 25.0209 86.9019 25.0008C87.0106 24.9807 87.0951 24.9646 87.1554 24.9525L87.4814 26.4436C87.3768 26.4839 87.2279 26.5241 87.0347 26.5643C86.8415 26.6086 86.6 26.6328 86.3103 26.6368C85.8354 26.6448 85.3927 26.5603 84.9821 26.3832C84.5716 26.2062 84.2396 25.9325 83.986 25.5622C83.7325 25.1919 83.6057 24.7271 83.6057 24.1677V15.0217ZM100.757 19.5072L99.1206 19.7969C99.0522 19.5877 98.9435 19.3884 98.7946 19.1993C98.6498 19.0101 98.4525 18.8552 98.203 18.7344C97.9535 18.6137 97.6416 18.5533 97.2673 18.5533C96.7562 18.5533 96.3296 18.668 95.9875 18.8974C95.6454 19.1228 95.4743 19.4146 95.4743 19.7728C95.4743 20.0827 95.589 20.3322 95.8184 20.5214C96.0478 20.7105 96.4181 20.8655 96.9292 20.9862L98.4022 21.3243C99.2555 21.5215 99.8913 21.8254 100.31 22.2359C100.728 22.6464 100.938 23.1796 100.938 23.8357C100.938 24.391 100.777 24.8861 100.455 25.3207C100.137 25.7514 99.6921 26.0894 99.1206 26.3349C98.5532 26.5804 97.8951 26.7032 97.1466 26.7032C96.1082 26.7032 95.261 26.4818 94.605 26.0391C93.949 25.5924 93.5465 24.9585 93.3976 24.1375L95.1423 23.8719C95.251 24.3267 95.4743 24.6708 95.8124 24.9042C96.1505 25.1336 96.5912 25.2483 97.1345 25.2483C97.7261 25.2483 98.199 25.1255 98.5532 24.88C98.9073 24.6305 99.0844 24.3267 99.0844 23.9685C99.0844 23.6787 98.9757 23.4352 98.7584 23.238C98.5451 23.0408 98.2171 22.8919 97.7744 22.7913L96.2048 22.4472C95.3395 22.2499 94.6996 21.936 94.2851 21.5054C93.8745 21.0748 93.6693 20.5294 93.6693 19.8694C93.6693 19.322 93.8222 18.8431 94.1281 18.4326C94.434 18.0221 94.8565 17.7021 95.3958 17.4727C95.9351 17.2393 96.5529 17.1226 97.2492 17.1226C98.2513 17.1226 99.0401 17.3399 99.6157 17.7746C100.191 18.2052 100.572 18.7827 100.757 19.5072ZM108.796 22.6705V17.2433H110.607V26.516H108.833V24.9102H108.736C108.523 25.4053 108.181 25.8178 107.71 26.1478C107.243 26.4738 106.661 26.6368 105.965 26.6368C105.369 26.6368 104.842 26.506 104.383 26.2444C103.929 25.9788 103.57 25.5864 103.309 25.0672C103.051 24.548 102.922 23.9061 102.922 23.1414V17.2433H104.727V22.9241C104.727 23.5559 104.903 24.059 105.253 24.4333C105.603 24.8076 106.058 24.9947 106.617 24.9947C106.955 24.9947 107.291 24.9102 107.625 24.7412C107.963 24.5722 108.243 24.3166 108.464 23.9745C108.69 23.6324 108.8 23.1977 108.796 22.6705ZM113.033 29.9933V17.2433H114.796V18.7465H114.946C115.051 18.5533 115.202 18.33 115.399 18.0764C115.596 17.8229 115.87 17.6015 116.22 17.4124C116.57 17.2192 117.033 17.1226 117.609 17.1226C118.357 17.1226 119.025 17.3117 119.613 17.6901C120.201 18.0684 120.661 18.6137 120.995 19.3261C121.334 20.0384 121.503 20.8957 121.503 21.8978C121.503 22.8999 121.336 23.7592 121.001 24.4756C120.667 25.1879 120.209 25.7373 119.625 26.1236C119.041 26.506 118.375 26.6972 117.627 26.6972C117.063 26.6972 116.603 26.6026 116.244 26.4134C115.89 26.2243 115.613 26.0029 115.411 25.7494C115.21 25.4958 115.055 25.2704 114.946 25.0732H114.838V29.9933H113.033ZM114.802 21.8797C114.802 22.5317 114.896 23.1032 115.085 23.5942C115.274 24.0852 115.548 24.4695 115.906 24.7472C116.265 25.0209 116.703 25.1577 117.222 25.1577C117.762 25.1577 118.212 25.0149 118.575 24.7291C118.937 24.4393 119.211 24.0469 119.396 23.5519C119.585 23.0569 119.679 22.4995 119.679 21.8797C119.679 21.2679 119.587 20.7186 119.402 20.2316C119.221 19.7446 118.947 19.3603 118.581 19.0785C118.218 18.7968 117.766 18.656 117.222 18.656C116.699 18.656 116.256 18.7908 115.894 19.0604C115.536 19.3301 115.264 19.7064 115.079 20.1893C114.894 20.6723 114.802 21.2357 114.802 21.8797ZM123.525 29.9933V17.2433H125.288V18.7465H125.439C125.543 18.5533 125.694 18.33 125.891 18.0764C126.089 17.8229 126.362 17.6015 126.712 17.4124C127.063 17.2192 127.525 17.1226 128.101 17.1226C128.849 17.1226 129.518 17.3117 130.105 17.6901C130.693 18.0684 131.154 18.6137 131.488 19.3261C131.826 20.0384 131.995 20.8957 131.995 21.8978C131.995 22.8999 131.828 23.7592 131.494 24.4756C131.16 25.1879 130.701 25.7373 130.117 26.1236C129.534 26.506 128.868 26.6972 128.119 26.6972C127.556 26.6972 127.095 26.6026 126.737 26.4134C126.382 26.2243 126.105 26.0029 125.903 25.7494C125.702 25.4958 125.547 25.2704 125.439 25.0732H125.33V29.9933H123.525ZM125.294 21.8797C125.294 22.5317 125.388 23.1032 125.577 23.5942C125.767 24.0852 126.04 24.4695 126.399 24.7472C126.757 25.0209 127.195 25.1577 127.715 25.1577C128.254 25.1577 128.705 25.0149 129.067 24.7291C129.429 24.4393 129.703 24.0469 129.888 23.5519C130.077 23.0569 130.172 22.4995 130.172 21.8797C130.172 21.2679 130.079 20.7186 129.894 20.2316C129.713 19.7446 129.439 19.3603 129.073 19.0785C128.711 18.7968 128.258 18.656 127.715 18.656C127.191 18.656 126.749 18.7908 126.386 19.0604C126.028 19.3301 125.757 19.7064 125.571 20.1893C125.386 20.6723 125.294 21.2357 125.294 21.8797ZM137.923 26.7032C137.054 26.7032 136.295 26.504 135.647 26.1055C134.999 25.7071 134.496 25.1497 134.138 24.4333C133.78 23.7169 133.601 22.8798 133.601 21.9219C133.601 20.9601 133.78 20.1189 134.138 19.3985C134.496 18.6781 134.999 18.1187 135.647 17.7202C136.295 17.3218 137.054 17.1226 137.923 17.1226C138.792 17.1226 139.551 17.3218 140.199 17.7202C140.847 18.1187 141.35 18.6781 141.708 19.3985C142.066 20.1189 142.245 20.9601 142.245 21.9219C142.245 22.8798 142.066 23.7169 141.708 24.4333C141.35 25.1497 140.847 25.7071 140.199 26.1055C139.551 26.504 138.792 26.7032 137.923 26.7032ZM137.929 25.1879C138.492 25.1879 138.959 25.039 139.33 24.7412C139.7 24.4434 139.974 24.0469 140.151 23.5519C140.332 23.0569 140.422 22.5116 140.422 21.9159C140.422 21.3243 140.332 20.781 140.151 20.2859C139.974 19.7869 139.7 19.3864 139.33 19.0846C138.959 18.7827 138.492 18.6318 137.929 18.6318C137.362 18.6318 136.891 18.7827 136.516 19.0846C136.146 19.3864 135.87 19.7869 135.689 20.2859C135.512 20.781 135.424 21.3243 135.424 21.9159C135.424 22.5116 135.512 23.0569 135.689 23.5519C135.87 24.0469 136.146 24.4434 136.516 24.7412C136.891 25.039 137.362 25.1879 137.929 25.1879ZM144.26 26.516V17.2433H146.005V18.7163H146.102C146.271 18.2173 146.568 17.8249 146.995 17.5391C147.426 17.2494 147.913 17.1045 148.456 17.1045C148.569 17.1045 148.701 17.1085 148.854 17.1165C149.011 17.1246 149.134 17.1347 149.223 17.1467V18.8733C149.15 18.8532 149.021 18.831 148.836 18.8069C148.651 18.7787 148.466 18.7646 148.281 18.7646C147.854 18.7646 147.474 18.8552 147.14 19.0363C146.81 19.2134 146.548 19.4609 146.355 19.7788C146.162 20.0928 146.065 20.4509 146.065 20.8534V26.516H144.26ZM155.661 17.2433V18.6922H150.596V17.2433H155.661ZM151.954 15.0217H153.759V23.7934C153.759 24.1435 153.812 24.4071 153.916 24.5842C154.021 24.7573 154.156 24.876 154.321 24.9404C154.49 25.0008 154.673 25.031 154.87 25.031C155.015 25.031 155.142 25.0209 155.25 25.0008C155.359 24.9807 155.444 24.9646 155.504 24.9525L155.83 26.4436C155.725 26.4839 155.576 26.5241 155.383 26.5643C155.19 26.6086 154.949 26.6328 154.659 26.6368C154.184 26.6448 153.741 26.5603 153.331 26.3832C152.92 26.2062 152.588 25.9325 152.335 25.5622C152.081 25.1919 151.954 24.7271 151.954 24.1677V15.0217Z" fill="#E7CDCD"/>
<path d="M161.945 26.516V14.1524H167.101C168.027 14.1524 168.801 14.2832 169.425 14.5448C170.053 14.8064 170.524 15.1727 170.838 15.6435C171.156 16.1144 171.315 16.6598 171.315 17.2795C171.315 17.7504 171.216 18.171 171.019 18.5413C170.822 18.9075 170.55 19.2114 170.204 19.4528C169.858 19.6943 169.457 19.8634 169.003 19.9599V20.0807C169.502 20.1048 169.963 20.2397 170.385 20.4852C170.812 20.7307 171.154 21.0727 171.411 21.5114C171.669 21.9461 171.798 22.4612 171.798 23.0569C171.798 23.7209 171.629 24.3146 171.291 24.8378C170.953 25.357 170.464 25.7675 169.824 26.0693C169.184 26.3671 168.407 26.516 167.493 26.516H161.945ZM164.934 24.1073H166.781C167.429 24.1073 167.906 23.9846 168.212 23.7391C168.522 23.4936 168.677 23.1515 168.677 22.7128C168.677 22.3948 168.602 22.1212 168.453 21.8918C168.304 21.6583 168.093 21.4792 167.819 21.3545C167.546 21.2257 167.218 21.1613 166.835 21.1613H164.934V24.1073ZM164.934 19.2355H166.588C166.914 19.2355 167.204 19.1812 167.457 19.0725C167.711 18.9638 167.908 18.8069 168.049 18.6016C168.194 18.3964 168.266 18.1489 168.266 17.8591C168.266 17.4446 168.119 17.1186 167.825 16.8811C167.532 16.6437 167.135 16.5249 166.636 16.5249H164.934V19.2355ZM179.217 22.5136V17.2433H182.163V26.516H179.35V24.7895H179.253C179.048 25.357 178.698 25.8077 178.203 26.1418C177.712 26.4718 177.118 26.6368 176.422 26.6368C175.79 26.6368 175.235 26.4919 174.756 26.2021C174.277 25.9124 173.905 25.5079 173.639 24.9887C173.373 24.4655 173.239 23.8538 173.235 23.1535V17.2433H176.187V22.5739C176.191 23.077 176.323 23.4734 176.585 23.7632C176.847 24.053 177.203 24.1979 177.654 24.1979C177.947 24.1979 178.211 24.1335 178.444 24.0047C178.682 23.8719 178.869 23.6807 179.006 23.4312C179.147 23.1776 179.217 22.8718 179.217 22.5136ZM186.994 21.2277V26.516H184.042V17.2433H186.849V18.9457H186.952C187.157 18.3783 187.507 17.9335 188.002 17.6116C188.497 17.2856 189.087 17.1226 189.771 17.1226C190.423 17.1226 190.989 17.2695 191.468 17.5633C191.951 17.8531 192.325 18.2595 192.59 18.7827C192.86 19.3019 192.993 19.9096 192.989 20.6059V26.516H190.037V21.1854C190.041 20.6703 189.91 20.2678 189.644 19.9781C189.383 19.6883 189.019 19.5434 188.552 19.5434C188.242 19.5434 187.968 19.6118 187.731 19.7486C187.497 19.8815 187.316 20.0726 187.187 20.3222C187.063 20.5717 186.998 20.8735 186.994 21.2277ZM199.139 30.1865C198.258 30.1865 197.503 30.0637 196.875 29.8182C196.247 29.5727 195.754 29.2367 195.396 28.8101C195.038 28.3835 194.823 27.9005 194.75 27.3612L197.545 27.2043C197.598 27.3934 197.694 27.5584 197.835 27.6993C197.98 27.8401 198.167 27.9488 198.396 28.0253C198.63 28.1017 198.904 28.14 199.217 28.14C199.713 28.14 200.121 28.0192 200.443 27.7778C200.769 27.5403 200.932 27.1238 200.932 26.5281V24.8981H200.829C200.713 25.1839 200.536 25.4395 200.298 25.6648C200.061 25.8902 199.765 26.0673 199.411 26.1961C199.061 26.3249 198.658 26.3893 198.203 26.3893C197.527 26.3893 196.907 26.2323 196.344 25.9184C195.784 25.6004 195.336 25.1094 194.998 24.4454C194.664 23.7773 194.497 22.918 194.497 21.8676C194.497 20.785 194.67 19.8935 195.016 19.1933C195.362 18.4889 195.815 17.9678 196.374 17.6297C196.938 17.2916 197.543 17.1226 198.191 17.1226C198.678 17.1226 199.095 17.2071 199.441 17.3761C199.791 17.5411 200.079 17.7544 200.304 18.016C200.53 18.2776 200.701 18.5493 200.817 18.831H200.902V17.2433H203.842V26.5523C203.842 27.3371 203.645 27.9991 203.25 28.5384C202.856 29.0777 202.304 29.4862 201.596 29.7639C200.888 30.0456 200.069 30.1865 199.139 30.1865ZM199.23 24.2401C199.588 24.2401 199.894 24.1455 200.147 23.9564C200.401 23.7672 200.596 23.4956 200.733 23.1414C200.87 22.7872 200.938 22.3626 200.938 21.8676C200.938 21.3645 200.87 20.9319 200.733 20.5697C200.6 20.2034 200.405 19.9217 200.147 19.7245C199.894 19.5273 199.588 19.4287 199.23 19.4287C198.863 19.4287 198.553 19.5293 198.3 19.7305C198.046 19.9318 197.853 20.2155 197.72 20.5817C197.592 20.944 197.527 21.3726 197.527 21.8676C197.527 22.3626 197.594 22.7872 197.726 23.1414C197.859 23.4956 198.05 23.7672 198.3 23.9564C198.553 24.1455 198.863 24.2401 199.23 24.2401ZM210.058 26.6911C209.088 26.6911 208.251 26.4999 207.547 26.1176C206.847 25.7312 206.307 25.1819 205.929 24.4695C205.555 23.7531 205.368 22.9019 205.368 21.9159C205.368 20.958 205.557 20.1209 205.935 19.4045C206.313 18.6841 206.847 18.1247 207.535 17.7263C208.223 17.3238 209.034 17.1226 209.968 17.1226C210.628 17.1226 211.231 17.2252 211.779 17.4305C212.326 17.6357 212.799 17.9396 213.198 18.342C213.596 18.7445 213.906 19.2415 214.127 19.8332C214.349 20.4208 214.459 21.0949 214.459 21.8555V22.592H206.4V20.8776H211.712C211.708 20.5636 211.634 20.2839 211.489 20.0384C211.344 19.7929 211.145 19.6017 210.891 19.4649C210.642 19.3241 210.354 19.2536 210.028 19.2536C209.698 19.2536 209.402 19.3281 209.141 19.477C208.879 19.6219 208.672 19.8211 208.519 20.0746C208.366 20.3242 208.285 20.6079 208.277 20.9258V22.6705C208.277 23.0488 208.352 23.3809 208.501 23.6666C208.65 23.9483 208.861 24.1677 209.135 24.3246C209.408 24.4816 209.734 24.5601 210.113 24.5601C210.374 24.5601 210.612 24.5239 210.825 24.4514C211.038 24.379 211.221 24.2723 211.374 24.1315C211.527 23.9906 211.642 23.8175 211.718 23.6123L214.429 23.6908C214.316 24.2985 214.069 24.8277 213.687 25.2785C213.308 25.7252 212.811 26.0733 212.195 26.3229C211.58 26.5684 210.867 26.6911 210.058 26.6911ZM220.301 26.6911C219.332 26.6911 218.494 26.4999 217.79 26.1176C217.09 25.7312 216.551 25.1819 216.172 24.4695C215.798 23.7531 215.611 22.9019 215.611 21.9159C215.611 20.958 215.8 20.1209 216.178 19.4045C216.557 18.6841 217.09 18.1247 217.778 17.7263C218.466 17.3238 219.277 17.1226 220.211 17.1226C220.871 17.1226 221.475 17.2252 222.022 17.4305C222.569 17.6357 223.042 17.9396 223.441 18.342C223.839 18.7445 224.149 19.2415 224.37 19.8332C224.592 20.4208 224.702 21.0949 224.702 21.8555V22.592H216.643V20.8776H221.956C221.952 20.5636 221.877 20.2839 221.732 20.0384C221.587 19.7929 221.388 19.6017 221.135 19.4649C220.885 19.3241 220.597 19.2536 220.271 19.2536C219.941 19.2536 219.645 19.3281 219.384 19.477C219.122 19.6219 218.915 19.8211 218.762 20.0746C218.609 20.3242 218.529 20.6079 218.521 20.9258V22.6705C218.521 23.0488 218.595 23.3809 218.744 23.6666C218.893 23.9483 219.104 24.1677 219.378 24.3246C219.651 24.4816 219.977 24.5601 220.356 24.5601C220.617 24.5601 220.855 24.5239 221.068 24.4514C221.281 24.379 221.465 24.2723 221.618 24.1315C221.77 23.9906 221.885 23.8175 221.962 23.6123L224.672 23.6908C224.56 24.2985 224.312 24.8277 223.93 25.2785C223.551 25.7252 223.054 26.0733 222.439 26.3229C221.823 26.5684 221.11 26.6911 220.301 26.6911ZM237.433 18.6318H234.414C234.374 18.3219 234.292 18.0422 234.167 17.7927C234.042 17.5432 233.877 17.3299 233.672 17.1528C233.467 16.9757 233.223 16.8409 232.941 16.7483C232.664 16.6517 232.356 16.6034 232.018 16.6034C231.418 16.6034 230.901 16.7503 230.466 17.0441C230.036 17.3379 229.703 17.7625 229.47 18.3179C229.241 18.8733 229.126 19.5454 229.126 20.3342C229.126 21.1553 229.243 21.8435 229.476 22.3989C229.714 22.9502 230.046 23.3668 230.472 23.6485C230.903 23.9262 231.412 24.0651 232 24.0651C232.33 24.0651 232.629 24.0228 232.899 23.9383C233.173 23.8538 233.412 23.731 233.617 23.57C233.827 23.405 233.998 23.2058 234.131 22.9724C234.267 22.7349 234.362 22.4673 234.414 22.1695L237.433 22.1876C237.38 22.7349 237.221 23.2742 236.956 23.8055C236.694 24.3367 236.334 24.8217 235.875 25.2604C235.416 25.695 234.857 26.0411 234.197 26.2987C233.541 26.5563 232.788 26.6851 231.939 26.6851C230.82 26.6851 229.818 26.4396 228.933 25.9486C228.051 25.4535 227.355 24.7331 226.844 23.7874C226.333 22.8416 226.077 21.6905 226.077 20.3342C226.077 18.9739 226.337 17.8209 226.856 16.8751C227.375 15.9293 228.078 15.2109 228.963 14.7199C229.848 14.2289 230.84 13.9834 231.939 13.9834C232.688 13.9834 233.38 14.088 234.016 14.2973C234.652 14.5026 235.211 14.8044 235.694 15.2028C236.177 15.5973 236.569 16.0822 236.871 16.6577C237.173 17.2333 237.36 17.8913 237.433 18.6318ZM243.471 26.6911C242.497 26.6911 241.66 26.4919 240.96 26.0935C240.264 25.691 239.726 25.1316 239.348 24.4152C238.974 23.6948 238.787 22.8597 238.787 21.9099C238.787 20.956 238.974 20.1209 239.348 19.4045C239.726 18.6841 240.264 18.1247 240.96 17.7263C241.66 17.3238 242.497 17.1226 243.471 17.1226C244.445 17.1226 245.28 17.3238 245.977 17.7263C246.677 18.1247 247.214 18.6841 247.588 19.4045C247.967 20.1209 248.156 20.956 248.156 21.9099C248.156 22.8597 247.967 23.6948 247.588 24.4152C247.214 25.1316 246.677 25.691 245.977 26.0935C245.28 26.4919 244.445 26.6911 243.471 26.6911ZM243.489 24.4635C243.843 24.4635 244.143 24.3548 244.389 24.1375C244.634 23.9202 244.821 23.6183 244.95 23.232C245.083 22.8456 245.149 22.3989 245.149 21.8918C245.149 21.3766 245.083 20.9258 244.95 20.5395C244.821 20.1531 244.634 19.8513 244.389 19.6339C244.143 19.4166 243.843 19.308 243.489 19.308C243.123 19.308 242.813 19.4166 242.56 19.6339C242.31 19.8513 242.119 20.1531 241.986 20.5395C241.857 20.9258 241.793 21.3766 241.793 21.8918C241.793 22.3989 241.857 22.8456 241.986 23.232C242.119 23.6183 242.31 23.9202 242.56 24.1375C242.813 24.3548 243.123 24.4635 243.489 24.4635ZM249.668 26.516V17.2433H252.536V18.9337H252.632C252.801 18.3219 253.077 17.8671 253.459 17.5693C253.842 17.2675 254.286 17.1165 254.793 17.1165C254.93 17.1165 255.071 17.1266 255.216 17.1467C255.361 17.1628 255.496 17.189 255.621 17.2252V19.7909C255.48 19.7426 255.295 19.7044 255.065 19.6762C254.84 19.648 254.639 19.6339 254.461 19.6339C254.111 19.6339 253.795 19.7124 253.514 19.8694C253.236 20.0223 253.017 20.2376 252.856 20.5153C252.699 20.789 252.62 21.111 252.62 21.4812V26.516H249.668ZM259.729 26.6489C259.044 26.6489 258.423 26.4718 257.863 26.1176C257.304 25.7634 256.857 25.2322 256.523 24.5239C256.189 23.8155 256.022 22.9361 256.022 21.8857C256.022 20.795 256.195 19.8976 256.541 19.1933C256.887 18.4889 257.34 17.9678 257.899 17.6297C258.463 17.2916 259.069 17.1226 259.717 17.1226C260.204 17.1226 260.62 17.2071 260.966 17.3761C261.312 17.5411 261.598 17.7544 261.823 18.016C262.049 18.2776 262.22 18.5493 262.337 18.831H262.397V14.1524H265.349V26.516H262.427V25.0129H262.337C262.212 25.2986 262.035 25.5662 261.805 25.8158C261.576 26.0653 261.288 26.2665 260.942 26.4195C260.6 26.5724 260.196 26.6489 259.729 26.6489ZM260.755 24.3488C261.113 24.3488 261.419 24.2482 261.673 24.0469C261.926 23.8417 262.121 23.5539 262.258 23.1837C262.395 22.8134 262.463 22.3787 262.463 21.8797C262.463 21.3726 262.395 20.9359 262.258 20.5697C262.125 20.2034 261.93 19.9217 261.673 19.7245C261.419 19.5273 261.113 19.4287 260.755 19.4287C260.389 19.4287 260.079 19.5293 259.825 19.7305C259.572 19.9318 259.379 20.2155 259.246 20.5817C259.117 20.948 259.053 21.3806 259.053 21.8797C259.053 22.3787 259.119 22.8134 259.252 23.1837C259.385 23.5539 259.576 23.8417 259.825 24.0469C260.079 24.2482 260.389 24.3488 260.755 24.3488Z" fill="white"/>
</g>
</g>
<rect x="1.07973" y="1.08681" width="272.858" height="37.8585" rx="6.92857" stroke="white" stroke-opacity="0.15" stroke-width="2.14286"/>
<defs>
<filter id="filter0_d_33_64" x="2.40802" y="0.415101" width="40.6083" height="41.3036" filterUnits="userSpaceOnUse" color-interpolation-filters="sRGB">
<feFlood flood-opacity="0" result="BackgroundImageFix"/>
<feColorMatrix in="SourceAlpha" type="matrix" values="0 0 0 0 0 0 0 0 0 0 0 0 0 0 0 0 0 0 127 0" result="hardAlpha"/>
<feOffset/>
<feGaussianBlur stdDeviation="2.80014"/>
<feComposite in2="hardAlpha" operator="out"/>
<feColorMatrix type="matrix" values="0 0 0 0 0 0 0 0 0 0 0 0 0 0 0 0 0 0 0.25 0"/>
<feBlend mode="normal" in2="BackgroundImageFix" result="effect1_dropShadow_33_64"/>
<feBlend mode="normal" in="SourceGraphic" in2="effect1_dropShadow_33_64" result="shape"/>
</filter>
<filter id="filter1_d_33_64" x="36.2955" y="3.80177" width="236.429" height="32.4286" filterUnits="userSpaceOnUse" color-interpolation-filters="sRGB">
<feFlood flood-opacity="0" result="BackgroundImageFix"/>
<feColorMatrix in="SourceAlpha" type="matrix" values="0 0 0 0 0 0 0 0 0 0 0 0 0 0 0 0 0 0 127 0" result="hardAlpha"/>
<feOffset/>
<feGaussianBlur stdDeviation="2.85714"/>
<feComposite in2="hardAlpha" operator="out"/>
<feColorMatrix type="matrix" values="0 0 0 0 0 0 0 0 0 0 0 0 0 0 0 0 0 0 0.25 0"/>
<feBlend mode="normal" in2="BackgroundImageFix" result="effect1_dropShadow_33_64"/>
<feBlend mode="normal" in="SourceGraphic" in2="effect1_dropShadow_33_64" result="shape"/>
</filter>
<linearGradient id="paint0_linear_33_64" x1="137.509" y1="0.0153809" x2="137.509" y2="40.0168" gradientUnits="userSpaceOnUse">
<stop stop-color="#2C1B1B"/>
<stop offset="1" stop-color="#1F1414"/>
</linearGradient>
<linearGradient id="paint1_linear_33_64" x1="26.9136" y1="17.2161" x2="26.9136" y2="34.0184" gradientUnits="userSpaceOnUse">
<stop stop-color="#FF0000"/>
<stop offset="1" stop-color="#CC0000"/>
</linearGradient>
<clipPath id="clip0_33_64">
<rect x="0.00830078" y="0.0153809" width="275.001" height="40.0014" rx="8" fill="white"/>
</clipPath>
</defs>
</svg>
