<svg width="191" height="28" viewBox="0 0 191 28" fill="none" xmlns="http://www.w3.org/2000/svg">
<g clip-path="url(#clip0_33_64)">
<rect x="0.499023" y="-3.05176e-05" width="190.5" height="28" rx="6" fill="url(#paint0_linear_33_64)"/>
<g filter="url(#filter0_d_33_64)">
<path fill-rule="evenodd" clip-rule="evenodd" d="M21.3531 12.6104C21.4664 12.7874 21.5796 12.9641 21.7094 13.1285C21.7367 13.0637 21.7677 12.998 21.799 12.9315C21.8788 12.7618 21.9611 12.5869 21.9928 12.4093C22.016 12.2789 21.9877 12.1511 21.9593 12.0229C21.9366 11.9202 21.9138 11.8173 21.9174 11.7126C21.9282 11.4007 22.0602 11.0773 22.1807 10.7819C22.1981 10.7394 22.2152 10.6975 22.2317 10.6562C22.292 10.5052 22.3821 10.3536 22.5234 10.2654C22.5642 10.24 22.6112 10.2225 22.6584 10.2051C22.7274 10.1795 22.7967 10.1538 22.8468 10.1028C23 9.94688 23.1108 9.52151 23.1289 9.30773C23.1607 8.93441 23.0159 8.52982 22.8775 8.14296C22.8106 7.95585 22.7452 7.77289 22.7019 7.59961C22.4535 6.60506 22.7939 5.41883 23.7427 4.92091C24.4492 4.55019 25.4342 4.68228 25.9712 5.28495C26.3494 5.7093 26.499 6.23435 26.499 6.7905C26.499 7.16577 26.4783 7.81177 26.1533 8.07247C25.9504 8.23521 25.5416 8.22287 25.4065 7.98092C25.2854 7.76402 25.3461 7.53018 25.4073 7.29427C25.455 7.11028 25.5031 6.92502 25.4655 6.74555C25.3872 6.37161 25.0045 5.88531 24.5787 5.94329C24.2408 5.9893 23.977 6.31369 23.8612 6.6107C23.7342 6.93637 23.8442 7.2786 23.9484 7.60259C23.9676 7.66222 23.9866 7.72123 24.0038 7.77941L24.0078 7.79264C24.1842 8.3873 24.3517 8.95137 24.2796 9.57743C24.2619 9.73168 24.2064 9.88059 24.1512 10.0287C24.0931 10.1846 24.0353 10.3395 24.0223 10.4989C24.015 10.5879 24.0492 10.676 24.0837 10.7649C24.113 10.8402 24.1424 10.916 24.1471 10.9934C24.1736 11.428 24.0203 11.8629 23.834 12.252C23.7497 12.4281 23.6175 12.5375 23.4837 12.6484C23.3841 12.7309 23.2836 12.8142 23.2012 12.9263C23.0471 13.1359 22.9507 13.3955 22.8562 13.6501C22.8081 13.7796 22.7604 13.9078 22.706 14.0275C22.6696 14.1075 22.6251 14.1879 22.5801 14.2693C22.4944 14.4243 22.4069 14.5826 22.3701 14.7467C22.3417 14.8738 22.3849 15.0323 22.4245 15.1779C22.4414 15.2399 22.4577 15.2996 22.4675 15.3536C22.5395 15.7491 22.603 16.1649 22.6125 16.5672C22.6551 18.3678 22.2117 20.2069 20.9788 21.5792C20.5963 22.005 20.1458 22.3778 19.6535 22.6714C17.8234 23.7629 15.5321 23.2877 13.8698 22.1242C13.294 21.7212 12.8227 21.2336 12.3456 20.7399C12.183 20.5717 12.0198 20.4028 11.8515 20.2363C11.7041 20.0905 11.542 20.0435 11.3755 19.9952C11.2664 19.9635 11.1555 19.9313 11.0457 19.8704C10.7488 19.7057 10.4176 19.2705 10.2629 18.9721C10.1936 18.8383 10.1992 18.7012 10.2046 18.5665C10.2093 18.4515 10.2139 18.3382 10.1717 18.2304C10.1243 18.1092 10.0326 18.0005 9.94129 17.8923C9.87325 17.8116 9.80543 17.7312 9.75629 17.646C9.54514 17.2802 9.47413 16.8704 9.4451 16.4549C9.43338 16.2872 9.43883 16.1054 9.44439 15.9195C9.46244 15.3172 9.48174 14.6729 8.92197 14.3334C8.28126 13.9448 7.5029 14.6923 7.59783 15.3536C7.62557 15.5467 7.71713 15.6988 7.80772 15.8493C7.91682 16.0306 8.02451 16.2095 8.01758 16.4549C8.01017 16.7179 7.82871 16.877 7.56641 16.8776C7.21952 16.8784 7.00304 16.638 6.82979 16.365C6.4822 15.8171 6.42333 15.0958 6.58431 14.477C6.96124 13.0283 8.8688 12.481 9.96118 13.5127C10.5794 14.0967 10.607 14.8597 10.6354 15.6459C10.6362 15.6683 10.637 15.6907 10.6378 15.7132C10.6405 15.7859 10.6421 15.8562 10.6437 15.9246C10.6547 16.3996 10.6635 16.7801 11.0033 17.1961C11.1152 17.333 11.2605 17.3516 11.4123 17.3711C11.5081 17.3834 11.6066 17.396 11.7009 17.439C11.9136 17.536 12.08 17.7465 12.23 17.9363C12.2611 17.9757 12.2915 18.0142 12.3215 18.0506C12.4265 18.1781 12.5344 18.3144 12.5737 18.4776C12.5939 18.5617 12.6015 18.6456 12.6091 18.7284C12.6231 18.8825 12.6368 19.0329 12.7304 19.1744C13.0388 19.6408 13.493 20.0586 13.9149 20.421C14.5516 20.9676 15.2251 21.4565 16.0161 21.7585C18.0359 22.5301 20.038 21.2154 20.8728 19.3766C21.3364 18.3556 21.3774 17.3708 21.3705 16.2751C21.2239 16.4001 21.0966 16.5518 20.9692 16.7038C20.8656 16.8273 20.7618 16.9509 20.6475 17.0605C20.0944 17.5907 19.4809 18.0204 18.7724 18.3172C18.1342 18.5846 17.432 18.718 16.739 18.7018C16.2203 18.6896 15.6782 18.5731 15.2027 18.3677C12.3128 17.1196 11.7385 12.8158 14.299 10.9047C14.6765 10.6229 15.0924 10.4007 15.5416 10.2589C16.0955 10.084 16.6798 10.0045 17.2586 10.0526C18.0081 10.1149 18.7285 10.3288 19.3824 10.7012C20.0008 11.0534 20.5598 11.5357 20.9989 12.0947C21.128 12.259 21.2406 12.4348 21.3531 12.6104ZM15.3609 11.7731C15.7473 11.5318 16.1968 11.3916 16.6487 11.3406C18.141 11.1722 19.5398 12.2048 20.3311 13.3757C20.5056 13.6339 20.652 13.9053 20.7884 14.1849C20.7977 14.204 20.808 14.2241 20.8187 14.2449C20.8734 14.3515 20.9375 14.4764 20.9305 14.5894C20.924 14.6944 20.8504 14.7964 20.787 14.8843C20.7765 14.8988 20.7664 14.9129 20.7568 14.9265C20.6016 15.1486 20.443 15.3724 20.2666 15.5783C19.5221 16.4471 18.4842 17.263 17.3039 17.3964C16.8729 17.4452 16.4319 17.424 16.0161 17.2909C15.6551 17.1753 15.3103 16.987 15.022 16.7423C13.427 15.3889 13.568 12.8927 15.3609 11.7731Z" fill="#FCFCFC"/>
</g>
<g filter="url(#filter1_d_33_64)">
<path d="M34.9443 18.5L32.7256 10.5H33.9951L35.5537 16.6953H35.6279L37.249 10.5H38.5068L40.1279 16.6992H40.2021L41.7568 10.5H43.0303L40.8076 18.5H39.5928L37.9092 12.5078H37.8467L36.1631 18.5H34.9443ZM45.9736 18.6211C45.4111 18.6211 44.9202 18.4922 44.501 18.2343C44.0817 17.9765 43.7562 17.6159 43.5244 17.1523C43.2926 16.6888 43.1768 16.1471 43.1768 15.5273C43.1768 14.9049 43.2926 14.3606 43.5244 13.8945C43.7562 13.4284 44.0817 13.0664 44.501 12.8086C44.9202 12.5507 45.4111 12.4218 45.9736 12.4218C46.5361 12.4218 47.027 12.5507 47.4463 12.8086C47.8656 13.0664 48.1911 13.4284 48.4228 13.8945C48.6546 14.3606 48.7705 14.9049 48.7705 15.5273C48.7705 16.1471 48.6546 16.6888 48.4228 17.1523C48.1911 17.6159 47.8656 17.9765 47.4463 18.2343C47.027 18.4922 46.5361 18.6211 45.9736 18.6211ZM45.9775 17.6406C46.3421 17.6406 46.6442 17.5442 46.8838 17.3515C47.1234 17.1588 47.3005 16.9023 47.415 16.582C47.5322 16.2617 47.5908 15.9088 47.5908 15.5234C47.5908 15.1406 47.5322 14.789 47.415 14.4687C47.3005 14.1458 47.1234 13.8867 46.8838 13.6914C46.6442 13.4961 46.3421 13.3984 45.9775 13.3984C45.6103 13.3984 45.3057 13.4961 45.0635 13.6914C44.8239 13.8867 44.6455 14.1458 44.5283 14.4687C44.4137 14.789 44.3564 15.1406 44.3564 15.5234C44.3564 15.9088 44.4137 16.2617 44.5283 16.582C44.6455 16.9023 44.8239 17.1588 45.0635 17.3515C45.3057 17.5442 45.6103 17.6406 45.9775 17.6406ZM51.2422 14.9375V18.5H50.0742V12.5H51.1953V13.4765H51.2695C51.4075 13.1588 51.6237 12.9036 51.918 12.7109C52.2148 12.5182 52.5885 12.4218 53.0391 12.4218C53.4479 12.4218 53.806 12.5078 54.1133 12.6797C54.4206 12.8489 54.6588 13.1015 54.8281 13.4375C54.9974 13.7734 55.082 14.1888 55.082 14.6836V18.5H53.9141V14.8242C53.9141 14.3893 53.8008 14.0494 53.5742 13.8047C53.3477 13.5573 53.0365 13.4336 52.6406 13.4336C52.3698 13.4336 52.1289 13.4922 51.918 13.6093C51.7096 13.7265 51.5443 13.8984 51.4219 14.125C51.3021 14.3489 51.2422 14.6198 51.2422 14.9375ZM57.6523 10.5V11.25C57.6523 11.4713 57.6107 11.7044 57.5273 11.9492C57.4466 12.1914 57.332 12.4244 57.1836 12.6484C57.0351 12.8724 56.8607 13.0651 56.6601 13.2265L56.082 12.8125C56.2357 12.5885 56.3685 12.3502 56.4805 12.0976C56.595 11.845 56.6523 11.5664 56.6523 11.2617V10.5H57.6523ZM61.8125 12.5V13.4375H58.5351V12.5H61.8125ZM59.4141 11.0625H60.582V16.7382C60.582 16.9648 60.6159 17.1354 60.6836 17.25C60.7513 17.3619 60.8385 17.4388 60.9453 17.4804C61.0547 17.5195 61.1732 17.539 61.3008 17.539C61.3945 17.539 61.4766 17.5325 61.5469 17.5195C61.6172 17.5065 61.6719 17.4961 61.7109 17.4882L61.9219 18.4531C61.8542 18.4791 61.7578 18.5052 61.6328 18.5312C61.5078 18.5599 61.3516 18.5755 61.1641 18.5781C60.8568 18.5833 60.5703 18.5286 60.3047 18.414C60.0391 18.2994 59.8242 18.1224 59.6601 17.8828C59.4961 17.6432 59.4141 17.3424 59.4141 16.9804V11.0625ZM70.5117 13.9648L69.4531 14.1523C69.4088 14.0169 69.3385 13.888 69.2422 13.7656C69.1484 13.6432 69.0208 13.5429 68.8594 13.4648C68.6979 13.3867 68.4961 13.3476 68.2539 13.3476C67.9232 13.3476 67.6471 13.4218 67.4258 13.5703C67.2044 13.7161 67.0937 13.9049 67.0937 14.1367C67.0937 14.3372 67.168 14.4987 67.3164 14.6211C67.4648 14.7435 67.7044 14.8437 68.0351 14.9218L68.9883 15.1406C69.5404 15.2682 69.9518 15.4648 70.2226 15.7304C70.4935 15.9961 70.6289 16.3411 70.6289 16.7656C70.6289 17.125 70.5247 17.4453 70.3164 17.7265C70.1107 18.0052 69.8229 18.2239 69.4531 18.3828C69.0859 18.5416 68.6601 18.6211 68.1758 18.6211C67.5039 18.6211 66.9557 18.4778 66.5312 18.1914C66.1068 17.9023 65.8463 17.4922 65.75 16.9609L66.8789 16.789C66.9492 17.0833 67.0937 17.306 67.3125 17.457C67.5312 17.6054 67.8164 17.6797 68.168 17.6797C68.5508 17.6797 68.8568 17.6002 69.0859 17.4414C69.3151 17.2799 69.4297 17.0833 69.4297 16.8515C69.4297 16.664 69.3594 16.5065 69.2187 16.3789C69.0807 16.2513 68.8685 16.1549 68.582 16.0898L67.5664 15.8672C67.0065 15.7396 66.5924 15.5364 66.3242 15.2578C66.0586 14.9791 65.9258 14.6263 65.9258 14.1992C65.9258 13.845 66.0247 13.5351 66.2226 13.2695C66.4206 13.0039 66.694 12.7968 67.043 12.6484C67.3919 12.4974 67.7917 12.4218 68.2422 12.4218C68.8906 12.4218 69.401 12.5625 69.7734 12.8437C70.1458 13.1224 70.3919 13.4961 70.5117 13.9648ZM75.7139 16.0117V12.5H76.8857V18.5H75.7373V17.4609H75.6748C75.5368 17.7812 75.3154 18.0481 75.0107 18.2617C74.7086 18.4726 74.3323 18.5781 73.8818 18.5781C73.4964 18.5781 73.1553 18.4935 72.8584 18.3242C72.5641 18.1523 72.3323 17.8984 72.1631 17.5625C71.9964 17.2265 71.9131 16.8112 71.9131 16.3164V12.5H73.081V16.1757C73.081 16.5846 73.1943 16.9101 73.4209 17.1523C73.6474 17.3945 73.9417 17.5156 74.3037 17.5156C74.5224 17.5156 74.7399 17.4609 74.956 17.3515C75.1748 17.2422 75.3558 17.0768 75.499 16.8554C75.6448 16.6341 75.7165 16.3528 75.7139 16.0117ZM78.4551 20.75V12.5H79.5957V13.4726H79.6933C79.7611 13.3476 79.8587 13.2031 79.9863 13.039C80.1139 12.875 80.291 12.7317 80.5176 12.6093C80.7441 12.4843 81.0436 12.4218 81.416 12.4218C81.9004 12.4218 82.3327 12.5442 82.7129 12.789C83.0931 13.0338 83.3913 13.3867 83.6074 13.8476C83.8262 14.3086 83.9355 14.8632 83.9355 15.5117C83.9355 16.1601 83.8275 16.7161 83.6113 17.1797C83.3952 17.6406 83.0983 17.9961 82.7207 18.2461C82.3431 18.4935 81.9121 18.6172 81.4277 18.6172C81.0631 18.6172 80.765 18.556 80.5332 18.4336C80.304 18.3112 80.1243 18.1679 79.9941 18.0039C79.8639 17.8398 79.7637 17.694 79.6933 17.5664H79.623V20.75H78.4551ZM79.5996 15.5C79.5996 15.9218 79.6608 16.2916 79.7832 16.6093C79.9056 16.927 80.0827 17.1757 80.3144 17.3554C80.5462 17.5325 80.8301 17.6211 81.166 17.6211C81.515 17.6211 81.8066 17.5286 82.041 17.3437C82.2754 17.1562 82.4525 16.9023 82.5723 16.582C82.6946 16.2617 82.7558 15.901 82.7558 15.5C82.7558 15.1041 82.6959 14.7487 82.5762 14.4336C82.459 14.1185 82.2819 13.8698 82.0449 13.6875C81.8105 13.5052 81.5176 13.414 81.166 13.414C80.8275 13.414 80.541 13.5013 80.3066 13.6757C80.0749 13.8502 79.8991 14.0937 79.7793 14.4062C79.6595 14.7187 79.5996 15.0833 79.5996 15.5ZM85.2441 20.75V12.5H86.3847V13.4726H86.4824C86.5501 13.3476 86.6478 13.2031 86.7754 13.039C86.903 12.875 87.0801 12.7317 87.3066 12.6093C87.5332 12.4843 87.8327 12.4218 88.2051 12.4218C88.6894 12.4218 89.1217 12.5442 89.5019 12.789C89.8821 13.0338 90.1803 13.3867 90.3965 13.8476C90.6152 14.3086 90.7246 14.8632 90.7246 15.5117C90.7246 16.1601 90.6165 16.7161 90.4004 17.1797C90.1842 17.6406 89.8874 17.9961 89.5097 18.2461C89.1321 18.4935 88.7012 18.6172 88.2168 18.6172C87.8522 18.6172 87.554 18.556 87.3222 18.4336C87.0931 18.3112 86.9134 18.1679 86.7832 18.0039C86.653 17.8398 86.5527 17.694 86.4824 17.5664H86.4121V20.75H85.2441ZM86.3887 15.5C86.3887 15.9218 86.4499 16.2916 86.5722 16.6093C86.6946 16.927 86.8717 17.1757 87.1035 17.3554C87.3353 17.5325 87.6191 17.6211 87.9551 17.6211C88.304 17.6211 88.5957 17.5286 88.8301 17.3437C89.0644 17.1562 89.2415 16.9023 89.3613 16.582C89.4837 16.2617 89.5449 15.901 89.5449 15.5C89.5449 15.1041 89.485 14.7487 89.3652 14.4336C89.248 14.1185 89.0709 13.8698 88.834 13.6875C88.5996 13.5052 88.3066 13.414 87.9551 13.414C87.6165 13.414 87.3301 13.5013 87.0957 13.6757C86.8639 13.8502 86.6881 14.0937 86.5683 14.4062C86.4486 14.7187 86.3887 15.0833 86.3887 15.5ZM94.5605 18.6211C93.998 18.6211 93.5071 18.4922 93.0879 18.2343C92.6686 17.9765 92.3431 17.6159 92.1113 17.1523C91.8795 16.6888 91.7637 16.1471 91.7637 15.5273C91.7637 14.9049 91.8795 14.3606 92.1113 13.8945C92.3431 13.4284 92.6686 13.0664 93.0879 12.8086C93.5071 12.5507 93.998 12.4218 94.5605 12.4218C95.123 12.4218 95.6139 12.5507 96.0332 12.8086C96.4525 13.0664 96.778 13.4284 97.0097 13.8945C97.2415 14.3606 97.3574 14.9049 97.3574 15.5273C97.3574 16.1471 97.2415 16.6888 97.0097 17.1523C96.778 17.6159 96.4525 17.9765 96.0332 18.2343C95.6139 18.4922 95.123 18.6211 94.5605 18.6211ZM94.5644 17.6406C94.929 17.6406 95.2311 17.5442 95.4707 17.3515C95.7103 17.1588 95.8874 16.9023 96.0019 16.582C96.1191 16.2617 96.1777 15.9088 96.1777 15.5234C96.1777 15.1406 96.1191 14.789 96.0019 14.4687C95.8874 14.1458 95.7103 13.8867 95.4707 13.6914C95.2311 13.4961 94.929 13.3984 94.5644 13.3984C94.1972 13.3984 93.8926 13.4961 93.6504 13.6914C93.4108 13.8867 93.2324 14.1458 93.1152 14.4687C93.0006 14.789 92.9433 15.1406 92.9433 15.5234C92.9433 15.9088 93.0006 16.2617 93.1152 16.582C93.2324 16.9023 93.4108 17.1588 93.6504 17.3515C93.8926 17.5442 94.1972 17.6406 94.5644 17.6406ZM98.6611 18.5V12.5H99.79V13.4531H99.8525C99.9619 13.1302 100.155 12.8763 100.431 12.6914C100.709 12.5039 101.024 12.4101 101.376 12.4101C101.449 12.4101 101.535 12.4127 101.634 12.4179C101.735 12.4231 101.815 12.4297 101.872 12.4375V13.5547C101.825 13.5416 101.742 13.5273 101.622 13.5117C101.502 13.4935 101.382 13.4843 101.263 13.4843C100.987 13.4843 100.741 13.5429 100.524 13.6601C100.311 13.7747 100.142 13.9349 100.017 14.1406C99.8916 14.3437 99.8291 14.5755 99.8291 14.8359V18.5H98.6611ZM106.038 12.5V13.4375H102.761V12.5H106.038ZM103.64 11.0625H104.808V16.7382C104.808 16.9648 104.841 17.1354 104.909 17.25C104.977 17.3619 105.064 17.4388 105.171 17.4804C105.28 17.5195 105.399 17.539 105.526 17.539C105.62 17.539 105.702 17.5325 105.772 17.5195C105.843 17.5065 105.897 17.4961 105.937 17.4882L106.147 18.4531C106.08 18.4791 105.983 18.5052 105.858 18.5312C105.733 18.5599 105.577 18.5755 105.39 18.5781C105.082 18.5833 104.796 18.5286 104.53 18.414C104.265 18.2994 104.05 18.1224 103.886 17.8828C103.722 17.6432 103.64 17.3424 103.64 16.9804V11.0625Z" fill="#E8E8E8"/>
<path d="M110.66 18.5V9.7727H114.299C114.952 9.7727 115.499 9.86503 115.939 10.0497C116.383 10.2343 116.715 10.4929 116.937 10.8253C117.161 11.1576 117.273 11.5426 117.273 11.9801C117.273 12.3125 117.204 12.6093 117.064 12.8707C116.925 13.1292 116.733 13.3437 116.489 13.5142C116.245 13.6846 115.962 13.8039 115.641 13.8721V13.9574C115.993 13.9744 116.319 14.0696 116.617 14.2429C116.918 14.4162 117.16 14.6576 117.341 14.9673C117.523 15.2741 117.614 15.6378 117.614 16.0582C117.614 16.527 117.495 16.946 117.256 17.3153C117.017 17.6818 116.672 17.9716 116.221 18.1846C115.769 18.3949 115.221 18.5 114.576 18.5H110.66ZM112.769 16.7997H114.073C114.53 16.7997 114.867 16.713 115.083 16.5397C115.302 16.3664 115.411 16.125 115.411 15.8153C115.411 15.5909 115.358 15.3977 115.253 15.2358C115.148 15.071 114.999 14.9446 114.806 14.8565C114.613 14.7656 114.381 14.7201 114.111 14.7201H112.769V16.7997ZM112.769 13.3608H113.937C114.167 13.3608 114.371 13.3224 114.55 13.2457C114.729 13.169 114.868 13.0582 114.968 12.9133C115.07 12.7684 115.121 12.5937 115.121 12.3892C115.121 12.0966 115.017 11.8664 114.81 11.6988C114.603 11.5312 114.323 11.4474 113.971 11.4474H112.769V13.3608ZM122.851 15.6747V11.9545H124.931V18.5H122.945V17.2812H122.877C122.732 17.6818 122.485 18 122.135 18.2358C121.789 18.4687 121.37 18.5852 120.878 18.5852C120.432 18.5852 120.04 18.4829 119.702 18.2784C119.364 18.0738 119.101 17.7883 118.914 17.4218C118.726 17.0525 118.631 16.6207 118.628 16.1264V11.9545H120.712V15.7173C120.715 16.0724 120.809 16.3522 120.993 16.5568C121.178 16.7613 121.429 16.8636 121.748 16.8636C121.955 16.8636 122.141 16.8181 122.306 16.7272C122.473 16.6335 122.606 16.4985 122.702 16.3224C122.802 16.1434 122.851 15.9275 122.851 15.6747ZM128.341 14.767V18.5H126.257V11.9545H128.239V13.1562H128.311C128.456 12.7556 128.703 12.4417 129.053 12.2145C129.402 11.9843 129.818 11.8693 130.301 11.8693C130.761 11.8693 131.161 11.973 131.499 12.1804C131.84 12.3849 132.104 12.6718 132.291 13.0412C132.482 13.4076 132.575 13.8366 132.573 14.3281V18.5H130.489V14.7372C130.492 14.3735 130.399 14.0895 130.212 13.8849C130.027 13.6804 129.77 13.5781 129.44 13.5781C129.222 13.5781 129.028 13.6264 128.861 13.723C128.696 13.8167 128.568 13.9517 128.477 14.1278C128.389 14.3039 128.344 14.517 128.341 14.767ZM136.914 21.0909C136.292 21.0909 135.759 21.0042 135.316 20.8309C134.873 20.6576 134.525 20.4204 134.272 20.1193C134.019 19.8181 133.867 19.4772 133.816 19.0966L135.789 18.9858C135.826 19.1193 135.894 19.2358 135.993 19.3352C136.096 19.4346 136.228 19.5113 136.39 19.5653C136.554 19.6193 136.748 19.6463 136.969 19.6463C137.319 19.6463 137.607 19.561 137.834 19.3906C138.064 19.223 138.179 18.9289 138.179 18.5085V17.3579H138.107C138.025 17.5596 137.9 17.74 137.732 17.8991C137.564 18.0582 137.356 18.1832 137.106 18.2741C136.858 18.365 136.574 18.4105 136.253 18.4105C135.776 18.4105 135.339 18.2997 134.941 18.0781C134.546 17.8537 134.229 17.5071 133.99 17.0383C133.755 16.5667 133.637 15.9602 133.637 15.2187C133.637 14.4545 133.759 13.8253 134.003 13.3309C134.248 12.8338 134.567 12.4659 134.962 12.2272C135.36 11.9886 135.787 11.8693 136.245 11.8693C136.589 11.8693 136.883 11.9289 137.127 12.0483C137.374 12.1647 137.577 12.3153 137.736 12.5C137.895 12.6846 138.016 12.8764 138.098 13.0753H138.158V11.9545H140.233V18.5255C140.233 19.0795 140.094 19.5468 139.816 19.9275C139.537 20.3082 139.148 20.5966 138.648 20.7926C138.148 20.9914 137.57 21.0909 136.914 21.0909ZM136.978 16.8934C137.231 16.8934 137.446 16.8267 137.625 16.6931C137.804 16.5596 137.942 16.3679 138.039 16.1179C138.135 15.8679 138.184 15.5681 138.184 15.2187C138.184 14.8636 138.135 14.5582 138.039 14.3025C137.945 14.044 137.807 13.8451 137.625 13.7059C137.446 13.5667 137.231 13.4971 136.978 13.4971C136.719 13.4971 136.5 13.5681 136.321 13.7102C136.142 13.8522 136.006 14.0525 135.912 14.311C135.821 14.5667 135.776 14.8693 135.776 15.2187C135.776 15.5681 135.823 15.8679 135.917 16.1179C136.01 16.3679 136.145 16.5596 136.321 16.6931C136.5 16.8267 136.719 16.8934 136.978 16.8934ZM144.622 18.6235C143.937 18.6235 143.346 18.4886 142.849 18.2187C142.354 17.946 141.974 17.5582 141.707 17.0554C141.443 16.5497 141.31 15.9488 141.31 15.2528C141.31 14.5767 141.444 13.9858 141.711 13.4801C141.978 12.9716 142.354 12.5767 142.84 12.2954C143.326 12.0113 143.899 11.8693 144.558 11.8693C145.024 11.8693 145.45 11.9417 145.836 12.0866C146.222 12.2315 146.556 12.446 146.837 12.7301C147.119 13.0142 147.337 13.365 147.494 13.7826C147.65 14.1974 147.728 14.6733 147.728 15.2102V15.7301H142.039V14.5199H145.789C145.786 14.2983 145.734 14.1008 145.631 13.9275C145.529 13.7542 145.389 13.6193 145.21 13.5227C145.033 13.4233 144.83 13.3735 144.6 13.3735C144.367 13.3735 144.158 13.4261 143.974 13.5312C143.789 13.6335 143.643 13.7741 143.535 13.9531C143.427 14.1292 143.37 14.3295 143.364 14.5539V15.7855C143.364 16.0525 143.417 16.2869 143.522 16.4886C143.627 16.6875 143.776 16.8423 143.97 16.9531C144.163 17.0639 144.393 17.1193 144.66 17.1193C144.845 17.1193 145.012 17.0937 145.163 17.0426C145.313 16.9914 145.443 16.9162 145.551 16.8167C145.658 16.7173 145.739 16.5951 145.793 16.4503L147.707 16.5056C147.627 16.9346 147.452 17.3082 147.183 17.6264C146.916 17.9417 146.565 18.1875 146.13 18.3636C145.695 18.5369 145.193 18.6235 144.622 18.6235ZM151.852 18.6235C151.167 18.6235 150.576 18.4886 150.079 18.2187C149.585 17.946 149.204 17.5582 148.937 17.0554C148.673 16.5497 148.541 15.9488 148.541 15.2528C148.541 14.5767 148.674 13.9858 148.941 13.4801C149.209 12.9716 149.585 12.5767 150.071 12.2954C150.557 12.0113 151.129 11.8693 151.788 11.8693C152.254 11.8693 152.68 11.9417 153.066 12.0866C153.453 12.2315 153.787 12.446 154.068 12.7301C154.349 13.0142 154.568 13.365 154.724 13.7826C154.88 14.1974 154.959 14.6733 154.959 15.2102V15.7301H149.27V14.5199H153.02C153.017 14.2983 152.964 14.1008 152.862 13.9275C152.76 13.7542 152.619 13.6193 152.44 13.5227C152.264 13.4233 152.061 13.3735 151.831 13.3735C151.598 13.3735 151.389 13.4261 151.204 13.5312C151.02 13.6335 150.873 13.7741 150.765 13.9531C150.657 14.1292 150.601 14.3295 150.595 14.5539V15.7855C150.595 16.0525 150.647 16.2869 150.753 16.4886C150.858 16.6875 151.007 16.8423 151.2 16.9531C151.393 17.0639 151.623 17.1193 151.89 17.1193C152.075 17.1193 152.243 17.0937 152.393 17.0426C152.544 16.9914 152.673 16.9162 152.781 16.8167C152.889 16.7173 152.97 16.5951 153.024 16.4503L154.937 16.5056C154.858 16.9346 154.683 17.3082 154.413 17.6264C154.146 17.9417 153.795 18.1875 153.361 18.3636C152.926 18.5369 152.423 18.6235 151.852 18.6235ZM163.945 12.9346H161.814C161.786 12.7159 161.727 12.5184 161.639 12.3423C161.551 12.1662 161.435 12.0156 161.29 11.8906C161.145 11.7656 160.973 11.6704 160.774 11.6051C160.578 11.5369 160.361 11.5028 160.122 11.5028C159.699 11.5028 159.334 11.6065 159.027 11.8139C158.723 12.0213 158.489 12.321 158.324 12.713C158.162 13.1051 158.081 13.5795 158.081 14.1363C158.081 14.7159 158.163 15.2017 158.328 15.5937C158.496 15.9829 158.73 16.277 159.031 16.4758C159.335 16.6718 159.695 16.7699 160.109 16.7699C160.342 16.7699 160.554 16.74 160.744 16.6804C160.938 16.6207 161.107 16.5341 161.251 16.4204C161.399 16.3039 161.52 16.1633 161.614 15.9985C161.71 15.8309 161.777 15.642 161.814 15.4318L163.945 15.4446C163.908 15.8309 163.796 16.2116 163.608 16.5866C163.423 16.9616 163.169 17.3039 162.845 17.6136C162.521 17.9204 162.126 18.1647 161.661 18.3466C161.198 18.5284 160.666 18.6193 160.067 18.6193C159.277 18.6193 158.57 18.446 157.945 18.0994C157.323 17.75 156.831 17.2414 156.47 16.5738C156.109 15.9062 155.929 15.0937 155.929 14.1363C155.929 13.1761 156.112 12.3622 156.479 11.6946C156.845 11.027 157.341 10.5199 157.966 10.1733C158.591 9.82667 159.291 9.65338 160.067 9.65338C160.595 9.65338 161.084 9.72724 161.533 9.87497C161.982 10.0199 162.376 10.2329 162.717 10.5142C163.058 10.7926 163.335 11.1349 163.548 11.5412C163.761 11.9474 163.894 12.4119 163.945 12.9346ZM168.207 18.6235C167.52 18.6235 166.929 18.4829 166.434 18.2017C165.943 17.9176 165.564 17.5227 165.297 17.017C165.032 16.5085 164.9 15.919 164.9 15.2485C164.9 14.5753 165.032 13.9858 165.297 13.4801C165.564 12.9716 165.943 12.5767 166.434 12.2954C166.929 12.0113 167.52 11.8693 168.207 11.8693C168.895 11.8693 169.484 12.0113 169.976 12.2954C170.47 12.5767 170.849 12.9716 171.113 13.4801C171.38 13.9858 171.514 14.5753 171.514 15.2485C171.514 15.919 171.38 16.5085 171.113 17.017C170.849 17.5227 170.47 17.9176 169.976 18.2017C169.484 18.4829 168.895 18.6235 168.207 18.6235ZM168.22 17.0511C168.47 17.0511 168.682 16.9744 168.855 16.821C169.028 16.6676 169.16 16.4545 169.251 16.1818C169.345 15.9091 169.392 15.5937 169.392 15.2358C169.392 14.8721 169.345 14.5539 169.251 14.2812C169.16 14.0085 169.028 13.7954 168.855 13.642C168.682 13.4886 168.47 13.4119 168.22 13.4119C167.961 13.4119 167.743 13.4886 167.564 13.642C167.388 13.7954 167.253 14.0085 167.159 14.2812C167.068 14.5539 167.022 14.8721 167.022 15.2358C167.022 15.5937 167.068 15.9091 167.159 16.1818C167.253 16.4545 167.388 16.6676 167.564 16.821C167.743 16.9744 167.961 17.0511 168.22 17.0511ZM172.581 18.5V11.9545H174.606V13.1477H174.674C174.793 12.7159 174.988 12.3949 175.258 12.1846C175.527 11.9716 175.841 11.865 176.199 11.865C176.296 11.865 176.395 11.8721 176.498 11.8863C176.6 11.8977 176.695 11.9162 176.783 11.9417V13.7528C176.684 13.7187 176.553 13.6917 176.391 13.6718C176.232 13.652 176.09 13.642 175.965 13.642C175.718 13.642 175.495 13.6974 175.296 13.8082C175.1 13.9162 174.945 14.0681 174.831 14.2642C174.721 14.4574 174.665 14.6846 174.665 14.946V18.5H172.581ZM179.683 18.5937C179.2 18.5937 178.761 18.4687 178.366 18.2187C177.971 17.9687 177.656 17.5937 177.42 17.0937C177.184 16.5937 177.066 15.973 177.066 15.2315C177.066 14.4616 177.189 13.8281 177.433 13.3309C177.677 12.8338 177.997 12.4659 178.392 12.2272C178.789 11.9886 179.217 11.8693 179.674 11.8693C180.018 11.8693 180.312 11.9289 180.557 12.0483C180.801 12.1647 181.003 12.3153 181.162 12.5C181.321 12.6846 181.441 12.8764 181.524 13.0753H181.566V9.7727H183.65V18.5H181.588V17.4389H181.524C181.436 17.6406 181.311 17.8295 181.149 18.0056C180.987 18.1818 180.784 18.3238 180.539 18.4318C180.298 18.5397 180.012 18.5937 179.683 18.5937ZM180.407 16.9701C180.66 16.9701 180.876 16.8991 181.055 16.7571C181.234 16.6122 181.372 16.4091 181.468 16.1477C181.565 15.8863 181.613 15.5795 181.613 15.2272C181.613 14.8693 181.565 14.561 181.468 14.3025C181.375 14.044 181.237 13.8451 181.055 13.7059C180.876 13.5667 180.66 13.4971 180.407 13.4971C180.149 13.4971 179.93 13.5681 179.751 13.7102C179.572 13.8522 179.436 14.0525 179.342 14.311C179.251 14.5696 179.206 14.875 179.206 15.2272C179.206 15.5795 179.253 15.8863 179.346 16.1477C179.44 16.4091 179.575 16.6122 179.751 16.7571C179.93 16.8991 180.149 16.9701 180.407 16.9701Z" fill="white"/>
</g>
</g>
<rect x="1.24902" y="0.749969" width="189" height="26.5" rx="5.25" stroke="white" stroke-opacity="0.15" stroke-width="1.5"/>
<defs>
<filter id="filter0_d_33_64" x="2.49902" y="-3.05176e-05" width="28" height="28" filterUnits="userSpaceOnUse" color-interpolation-filters="sRGB">
<feFlood flood-opacity="0" result="BackgroundImageFix"/>
<feColorMatrix in="SourceAlpha" type="matrix" values="0 0 0 0 0 0 0 0 0 0 0 0 0 0 0 0 0 0 127 0" result="hardAlpha"/>
<feOffset/>
<feGaussianBlur stdDeviation="2"/>
<feComposite in2="hardAlpha" operator="out"/>
<feColorMatrix type="matrix" values="0 0 0 0 0 0 0 0 0 0 0 0 0 0 0 0 0 0 0.25 0"/>
<feBlend mode="normal" in2="BackgroundImageFix" result="effect1_dropShadow_33_64"/>
<feBlend mode="normal" in="SourceGraphic" in2="effect1_dropShadow_33_64" result="shape"/>
</filter>
<filter id="filter1_d_33_64" x="28.499" y="3.49997" width="160.5" height="21.5909" filterUnits="userSpaceOnUse" color-interpolation-filters="sRGB">
<feFlood flood-opacity="0" result="BackgroundImageFix"/>
<feColorMatrix in="SourceAlpha" type="matrix" values="0 0 0 0 0 0 0 0 0 0 0 0 0 0 0 0 0 0 127 0" result="hardAlpha"/>
<feOffset/>
<feGaussianBlur stdDeviation="2"/>
<feComposite in2="hardAlpha" operator="out"/>
<feColorMatrix type="matrix" values="0 0 0 0 0 0 0 0 0 0 0 0 0 0 0 0 0 0 0.25 0"/>
<feBlend mode="normal" in2="BackgroundImageFix" result="effect1_dropShadow_33_64"/>
<feBlend mode="normal" in="SourceGraphic" in2="effect1_dropShadow_33_64" result="shape"/>
</filter>
<linearGradient id="paint0_linear_33_64" x1="95.749" y1="-3.05176e-05" x2="95.749" y2="28" gradientUnits="userSpaceOnUse">
<stop stop-color="#2C1B1B"/>
<stop offset="1" stop-color="#1F1414"/>
</linearGradient>
<clipPath id="clip0_33_64">
<rect x="0.499023" y="-3.05176e-05" width="190.5" height="28" rx="6" fill="white"/>
</clipPath>
</defs>
</svg>
