<svg width="219" height="41" viewBox="0 0 219 41" fill="none" xmlns="http://www.w3.org/2000/svg">
<g clip-path="url(#clip0_28_3139)">
<rect x="0.00830078" y="0.0111694" width="218.001" height="40.0014" rx="8" fill="url(#paint0_linear_28_3139)"/>
<g filter="url(#filter0_d_28_3139)">
<path d="M32.9951 9.03594L29.567 29.6074C29.5246 29.8637 29.364 30.0851 29.1344 30.2066C29.0071 30.2765 28.8639 30.314 28.7183 30.3148C28.6093 30.3131 28.502 30.2907 28.4021 30.2482L22.3364 27.7517L19.0997 31.7045C18.9392 31.9026 18.697 32.0158 18.4424 32.0124C18.3426 32.0141 18.2427 31.9941 18.1512 31.9542C17.7984 31.8352 17.5663 31.494 17.5854 31.122V26.4868L29.151 12.3397L14.8396 24.6976L9.55604 22.5256C9.24735 22.4107 9.03434 22.1228 9.01521 21.7933C8.97444 21.4537 9.14667 21.1225 9.44788 20.9611L31.7221 8.14551C31.9975 7.96659 32.3536 7.96659 32.629 8.14551C32.9161 8.34357 33.06 8.69309 32.9951 9.03594Z" fill="white"/>
<g opacity="0.7">
<mask id="path-4-outside-1_28_3139" maskUnits="userSpaceOnUse" x="15.5112" y="14.2118" width="22" height="22" fill="black">
<rect fill="white" x="15.5112" y="14.2118" width="22" height="22"/>
<path fill-rule="evenodd" clip-rule="evenodd" d="M20.6483 17.4168C20.375 17.1434 19.9317 17.1434 19.6584 17.4168L18.7171 18.3582C18.4437 18.6316 18.4437 19.0748 18.7171 19.3482L24.9824 25.614L18.7163 31.8778C18.4429 32.1511 18.4429 32.5943 18.7163 32.8676L19.6578 33.8088C19.9312 34.0821 20.3745 34.0821 20.648 33.8088L26.9137 27.5453L33.177 33.8091C33.4503 34.0824 33.8936 34.0824 34.1669 33.8091L35.1082 32.8677C35.3816 32.5943 35.3816 32.1511 35.1082 31.8777L28.8453 25.6144L35.111 19.351C35.3844 19.0777 35.3844 18.6345 35.111 18.3612L34.1695 17.4201C33.8961 17.1468 33.4528 17.1468 33.1793 17.4201L26.9141 23.683L20.6483 17.4168Z"/>
</mask>
<path fill-rule="evenodd" clip-rule="evenodd" d="M20.6483 17.4168C20.375 17.1434 19.9317 17.1434 19.6584 17.4168L18.7171 18.3582C18.4437 18.6316 18.4437 19.0748 18.7171 19.3482L24.9824 25.614L18.7163 31.8778C18.4429 32.1511 18.4429 32.5943 18.7163 32.8676L19.6578 33.8088C19.9312 34.0821 20.3745 34.0821 20.648 33.8088L26.9137 27.5453L33.177 33.8091C33.4503 34.0824 33.8936 34.0824 34.1669 33.8091L35.1082 32.8677C35.3816 32.5943 35.3816 32.1511 35.1082 31.8777L28.8453 25.6144L35.111 19.351C35.3844 19.0777 35.3844 18.6345 35.111 18.3612L34.1695 17.4201C33.8961 17.1468 33.4528 17.1468 33.1793 17.4201L26.9141 23.683L20.6483 17.4168Z" fill="url(#paint1_linear_28_3139)"/>
<path d="M19.6584 17.4168L18.1733 15.9319L18.1733 15.9319L19.6584 17.4168ZM20.6483 17.4168L19.1633 18.9018L19.1633 18.9018L20.6483 17.4168ZM18.7171 18.3582L17.2321 16.8732V16.8732L18.7171 18.3582ZM18.7171 19.3482L17.2321 20.8331L17.2321 20.8331L18.7171 19.3482ZM24.9824 25.614L26.4672 27.0992L27.9527 25.6143L26.4675 24.129L24.9824 25.614ZM18.7163 31.8778L17.2316 30.3925L17.2316 30.3925L18.7163 31.8778ZM18.7163 32.8676L17.2316 34.3529L17.2316 34.3529L18.7163 32.8676ZM19.6578 33.8088L21.1425 32.3235L21.1425 32.3235L19.6578 33.8088ZM20.648 33.8088L19.1632 32.3235L19.1632 32.3235L20.648 33.8088ZM26.9137 27.5453L28.3987 26.0604L26.914 24.5756L25.429 26.0601L26.9137 27.5453ZM33.177 33.8091L31.6919 35.294H31.6919L33.177 33.8091ZM34.1669 33.8091L35.652 35.294L34.1669 33.8091ZM35.1082 32.8677L36.5933 34.3527L36.5933 34.3527L35.1082 32.8677ZM35.1082 31.8777L33.6232 33.3626H33.6232L35.1082 31.8777ZM28.8453 25.6144L27.3606 24.1291L25.8751 25.6141L27.3603 27.0993L28.8453 25.6144ZM35.111 19.351L33.6262 17.8658L33.6262 17.8658L35.111 19.351ZM35.111 18.3612L36.5957 16.876L36.5957 16.8759L35.111 18.3612ZM34.1695 17.4201L35.6542 15.9348V15.9348L34.1695 17.4201ZM33.1793 17.4201L31.6946 15.9348V15.9348L33.1793 17.4201ZM26.9141 23.683L25.429 25.168L26.9138 26.6528L28.3988 25.1683L26.9141 23.683ZM21.1434 18.9018C20.5966 19.4486 19.7101 19.4486 19.1633 18.9018L22.1334 15.9319C21.0399 14.8383 19.2668 14.8383 18.1733 15.9319L21.1434 18.9018ZM20.2021 19.8431L21.1434 18.9018L18.1733 15.9319L17.2321 16.8732L20.2021 19.8431ZM20.2022 17.8632C20.7489 18.41 20.7489 19.2964 20.2021 19.8431L17.2321 16.8732C16.1386 17.9667 16.1386 19.7396 17.2321 20.8331L20.2022 17.8632ZM26.4675 24.129L20.2022 17.8632L17.2321 20.8331L23.4974 27.0989L26.4675 24.129ZM20.201 33.3631L26.4672 27.0992L23.4977 24.1287L17.2316 30.3925L20.201 33.3631ZM20.201 31.3824C20.7481 31.9292 20.7481 32.8162 20.201 33.3631L17.2316 30.3925C16.1376 31.4861 16.1376 33.2594 17.2316 34.3529L20.201 31.3824ZM21.1425 32.3235L20.201 31.3824L17.2316 34.3529L18.173 35.294L21.1425 32.3235ZM19.1632 32.3235C19.7099 31.777 20.5959 31.777 21.1425 32.3235L18.173 35.294C19.2666 36.3871 21.0392 36.3871 22.1327 35.294L19.1632 32.3235ZM25.429 26.0601L19.1632 32.3235L22.1327 35.294L28.3984 29.0306L25.429 26.0601ZM34.662 32.3241L28.3987 26.0604L25.4286 29.0303L31.6919 35.294L34.662 32.3241ZM32.6819 32.3241C33.2287 31.7773 34.1152 31.7773 34.662 32.3241L31.6919 35.294C32.7855 36.3876 34.5585 36.3876 35.652 35.294L32.6819 32.3241ZM33.6232 31.3828L32.6819 32.3241L35.652 35.294L36.5933 34.3527L33.6232 31.3828ZM33.6232 33.3626C33.0765 32.8159 33.0765 31.9295 33.6232 31.3828L36.5933 34.3527C37.6867 33.2591 37.6867 31.4863 36.5933 30.3927L33.6232 33.3626ZM27.3603 27.0993L33.6232 33.3626L36.5933 30.3927L30.3304 24.1294L27.3603 27.0993ZM33.6262 17.8658L27.3606 24.1291L30.3301 27.0997L36.5957 20.8363L33.6262 17.8658ZM33.6262 19.8465C33.0792 19.2996 33.0792 18.4126 33.6262 17.8658L36.5957 20.8363C37.6896 19.7428 37.6896 17.9695 36.5957 16.876L33.6262 19.8465ZM32.6848 18.9054L33.6262 19.8465L36.5957 16.8759L35.6542 15.9348L32.6848 18.9054ZM34.664 18.9054C34.1174 19.4518 33.2314 19.4518 32.6848 18.9054L35.6542 15.9348C34.5607 14.8417 32.7881 14.8417 31.6946 15.9348L34.664 18.9054ZM28.3988 25.1683L34.664 18.9054L31.6946 15.9348L25.4294 22.1978L28.3988 25.1683ZM19.1633 18.9018L25.429 25.168L28.3991 22.1981L22.1334 15.9319L19.1633 18.9018Z" fill="black" mask="url(#path-4-outside-1_28_3139)"/>
</g>
</g>
<g filter="url(#filter1_d_28_3139)">
<path d="M45.7889 26.5119L42.3599 14.1482H44.3219L46.7306 23.7228H46.8453L49.3507 14.1482H51.2946L53.7999 23.7288H53.9146L56.3173 14.1482H58.2853L54.8503 26.5119H52.9728L50.3709 17.2512H50.2743L47.6724 26.5119H45.7889ZM62.8342 26.699C61.9648 26.699 61.2062 26.4998 60.5582 26.1014C59.9103 25.7029 59.4072 25.1455 59.049 24.4291C58.6908 23.7127 58.5117 22.8756 58.5117 21.9178C58.5117 20.9559 58.6908 20.1147 59.049 19.3943C59.4072 18.6739 59.9103 18.1145 60.5582 17.7161C61.2062 17.3176 61.9648 17.1184 62.8342 17.1184C63.7035 17.1184 64.4621 17.3176 65.1101 17.7161C65.758 18.1145 66.2611 18.6739 66.6193 19.3943C66.9775 20.1147 67.1566 20.9559 67.1566 21.9178C67.1566 22.8756 66.9775 23.7127 66.6193 24.4291C66.2611 25.1455 65.758 25.7029 65.1101 26.1014C64.4621 26.4998 63.7035 26.699 62.8342 26.699ZM62.8402 25.1837C63.4036 25.1837 63.8705 25.0348 64.2408 24.737C64.611 24.4392 64.8847 24.0428 65.0618 23.5477C65.2429 23.0527 65.3334 22.5074 65.3334 21.9117C65.3334 21.3201 65.2429 20.7768 65.0618 20.2818C64.8847 19.7827 64.611 19.3823 64.2408 19.0804C63.8705 18.7786 63.4036 18.6276 62.8402 18.6276C62.2727 18.6276 61.8018 18.7786 61.4276 19.0804C61.0573 19.3823 60.7816 19.7827 60.6005 20.2818C60.4234 20.7768 60.3349 21.3201 60.3349 21.9117C60.3349 22.5074 60.4234 23.0527 60.6005 23.5477C60.7816 24.0428 61.0573 24.4392 61.4276 24.737C61.8018 25.0348 62.2727 25.1837 62.8402 25.1837ZM70.9765 21.0062V26.5119H69.1714V17.2391H70.904V18.7484H71.0187C71.232 18.2574 71.5661 17.863 72.0209 17.5651C72.4797 17.2673 73.0572 17.1184 73.7535 17.1184C74.3853 17.1184 74.9387 17.2512 75.4136 17.5168C75.8885 17.7784 76.2568 18.1688 76.5184 18.688C76.78 19.2072 76.9108 19.8491 76.9108 20.6138V26.5119H75.1057V20.8311C75.1057 20.159 74.9307 19.6338 74.5805 19.2555C74.2304 18.8731 73.7494 18.682 73.1377 18.682C72.7191 18.682 72.3468 18.7725 72.0209 18.9536C71.6989 19.1347 71.4433 19.4004 71.2542 19.7505C71.069 20.0966 70.9765 20.5152 70.9765 21.0062ZM80.8831 14.1482V15.3073C80.8831 15.6494 80.8187 16.0096 80.6899 16.3879C80.5651 16.7622 80.388 17.1224 80.1586 17.4685C79.9292 17.8147 79.6596 18.1125 79.3497 18.362L78.4562 17.7221C78.6937 17.376 78.8989 17.0077 79.072 16.6173C79.2491 16.2269 79.3376 15.7963 79.3376 15.3254V14.1482H80.8831ZM87.3124 17.2391V18.688H82.2474V17.2391H87.3124ZM83.6057 15.0176H85.4108V23.7892C85.4108 24.1394 85.4631 24.403 85.5677 24.58C85.6724 24.7531 85.8072 24.8718 85.9722 24.9362C86.1412 24.9966 86.3244 25.0268 86.5216 25.0268C86.6664 25.0268 86.7932 25.0167 86.9019 24.9966C87.0106 24.9765 87.0951 24.9604 87.1554 24.9483L87.4814 26.4394C87.3768 26.4797 87.2279 26.5199 87.0347 26.5602C86.8415 26.6044 86.6 26.6286 86.3103 26.6326C85.8354 26.6407 85.3927 26.5561 84.9821 26.3791C84.5716 26.202 84.2396 25.9283 83.986 25.558C83.7325 25.1878 83.6057 24.7229 83.6057 24.1635V15.0176ZM100.757 19.503L99.1206 19.7928C99.0522 19.5835 98.9435 19.3843 98.7946 19.1951C98.6498 19.0059 98.4525 18.851 98.203 18.7303C97.9535 18.6095 97.6416 18.5492 97.2673 18.5492C96.7562 18.5492 96.3296 18.6639 95.9875 18.8933C95.6454 19.1186 95.4743 19.4104 95.4743 19.7686C95.4743 20.0785 95.589 20.328 95.8184 20.5172C96.0478 20.7064 96.4181 20.8613 96.9292 20.982L98.4022 21.3201C99.2555 21.5173 99.8913 21.8212 100.31 22.2317C100.728 22.6422 100.938 23.1755 100.938 23.8315C100.938 24.3869 100.777 24.8819 100.455 25.3166C100.137 25.7472 99.6921 26.0853 99.1206 26.3308C98.5532 26.5763 97.8951 26.699 97.1466 26.699C96.1082 26.699 95.261 26.4777 94.605 26.0349C93.949 25.5882 93.5465 24.9543 93.3976 24.1333L95.1423 23.8677C95.251 24.3225 95.4743 24.6666 95.8124 24.9C96.1505 25.1294 96.5912 25.2441 97.1345 25.2441C97.7261 25.2441 98.199 25.1214 98.5532 24.8759C98.9073 24.6263 99.0844 24.3225 99.0844 23.9643C99.0844 23.6745 98.9757 23.431 98.7584 23.2338C98.5451 23.0366 98.2171 22.8877 97.7744 22.7871L96.2048 22.443C95.3395 22.2458 94.6996 21.9318 94.2851 21.5012C93.8745 21.0706 93.6693 20.5252 93.6693 19.8652C93.6693 19.3179 93.8222 18.8389 94.1281 18.4284C94.434 18.0179 94.8565 17.6979 95.3958 17.4685C95.9351 17.2351 96.5529 17.1184 97.2492 17.1184C98.2513 17.1184 99.0401 17.3357 99.6157 17.7704C100.191 18.201 100.572 18.7786 100.757 19.503ZM108.796 22.6663V17.2391H110.607V26.5119H108.833V24.906H108.736C108.523 25.4011 108.181 25.8136 107.71 26.1436C107.243 26.4696 106.661 26.6326 105.965 26.6326C105.369 26.6326 104.842 26.5018 104.383 26.2402C103.929 25.9746 103.57 25.5822 103.309 25.063C103.051 24.5438 102.922 23.9019 102.922 23.1372V17.2391H104.727V22.9199C104.727 23.5518 104.903 24.0548 105.253 24.4291C105.603 24.8034 106.058 24.9906 106.617 24.9906C106.955 24.9906 107.291 24.906 107.625 24.737C107.963 24.568 108.243 24.3124 108.464 23.9703C108.69 23.6282 108.8 23.1936 108.796 22.6663ZM113.033 29.9891V17.2391H114.796V18.7423H114.946C115.051 18.5492 115.202 18.3258 115.399 18.0722C115.596 17.8187 115.87 17.5973 116.22 17.4082C116.57 17.215 117.033 17.1184 117.609 17.1184C118.357 17.1184 119.025 17.3076 119.613 17.6859C120.201 18.0642 120.661 18.6095 120.995 19.3219C121.334 20.0342 121.503 20.8915 121.503 21.8936C121.503 22.8957 121.336 23.755 121.001 24.4714C120.667 25.1837 120.209 25.7331 119.625 26.1195C119.041 26.5018 118.375 26.693 117.627 26.693C117.063 26.693 116.603 26.5984 116.244 26.4092C115.89 26.2201 115.613 25.9987 115.411 25.7452C115.21 25.4916 115.055 25.2662 114.946 25.069H114.838V29.9891H113.033ZM114.802 21.8755C114.802 22.5275 114.896 23.099 115.085 23.59C115.274 24.081 115.548 24.4653 115.906 24.743C116.265 25.0167 116.703 25.1536 117.222 25.1536C117.762 25.1536 118.212 25.0107 118.575 24.7249C118.937 24.4352 119.211 24.0428 119.396 23.5477C119.585 23.0527 119.679 22.4953 119.679 21.8755C119.679 21.2638 119.587 20.7144 119.402 20.2274C119.221 19.7404 118.947 19.3561 118.581 19.0744C118.218 18.7926 117.766 18.6518 117.222 18.6518C116.699 18.6518 116.256 18.7866 115.894 19.0563C115.536 19.3259 115.264 19.7022 115.079 20.1852C114.894 20.6681 114.802 21.2316 114.802 21.8755ZM123.525 29.9891V17.2391H125.288V18.7423H125.439C125.543 18.5492 125.694 18.3258 125.891 18.0722C126.089 17.8187 126.362 17.5973 126.712 17.4082C127.063 17.215 127.525 17.1184 128.101 17.1184C128.849 17.1184 129.518 17.3076 130.105 17.6859C130.693 18.0642 131.154 18.6095 131.488 19.3219C131.826 20.0342 131.995 20.8915 131.995 21.8936C131.995 22.8957 131.828 23.755 131.494 24.4714C131.16 25.1837 130.701 25.7331 130.117 26.1195C129.534 26.5018 128.868 26.693 128.119 26.693C127.556 26.693 127.095 26.5984 126.737 26.4092C126.382 26.2201 126.105 25.9987 125.903 25.7452C125.702 25.4916 125.547 25.2662 125.439 25.069H125.33V29.9891H123.525ZM125.294 21.8755C125.294 22.5275 125.388 23.099 125.577 23.59C125.767 24.081 126.04 24.4653 126.399 24.743C126.757 25.0167 127.195 25.1536 127.715 25.1536C128.254 25.1536 128.705 25.0107 129.067 24.7249C129.429 24.4352 129.703 24.0428 129.888 23.5477C130.077 23.0527 130.172 22.4953 130.172 21.8755C130.172 21.2638 130.079 20.7144 129.894 20.2274C129.713 19.7404 129.439 19.3561 129.073 19.0744C128.711 18.7926 128.258 18.6518 127.715 18.6518C127.191 18.6518 126.749 18.7866 126.386 19.0563C126.028 19.3259 125.757 19.7022 125.571 20.1852C125.386 20.6681 125.294 21.2316 125.294 21.8755ZM137.923 26.699C137.054 26.699 136.295 26.4998 135.647 26.1014C134.999 25.7029 134.496 25.1455 134.138 24.4291C133.78 23.7127 133.601 22.8756 133.601 21.9178C133.601 20.9559 133.78 20.1147 134.138 19.3943C134.496 18.6739 134.999 18.1145 135.647 17.7161C136.295 17.3176 137.054 17.1184 137.923 17.1184C138.792 17.1184 139.551 17.3176 140.199 17.7161C140.847 18.1145 141.35 18.6739 141.708 19.3943C142.066 20.1147 142.245 20.9559 142.245 21.9178C142.245 22.8756 142.066 23.7127 141.708 24.4291C141.35 25.1455 140.847 25.7029 140.199 26.1014C139.551 26.4998 138.792 26.699 137.923 26.699ZM137.929 25.1837C138.492 25.1837 138.959 25.0348 139.33 24.737C139.7 24.4392 139.974 24.0428 140.151 23.5477C140.332 23.0527 140.422 22.5074 140.422 21.9117C140.422 21.3201 140.332 20.7768 140.151 20.2818C139.974 19.7827 139.7 19.3823 139.33 19.0804C138.959 18.7786 138.492 18.6276 137.929 18.6276C137.362 18.6276 136.891 18.7786 136.516 19.0804C136.146 19.3823 135.87 19.7827 135.689 20.2818C135.512 20.7768 135.424 21.3201 135.424 21.9117C135.424 22.5074 135.512 23.0527 135.689 23.5477C135.87 24.0428 136.146 24.4392 136.516 24.737C136.891 25.0348 137.362 25.1837 137.929 25.1837ZM144.26 26.5119V17.2391H146.005V18.7122H146.102C146.271 18.2131 146.568 17.8207 146.995 17.535C147.426 17.2452 147.913 17.1003 148.456 17.1003C148.569 17.1003 148.701 17.1043 148.854 17.1124C149.011 17.1204 149.134 17.1305 149.223 17.1426V18.8691C149.15 18.849 149.021 18.8269 148.836 18.8027C148.651 18.7745 148.466 18.7604 148.281 18.7604C147.854 18.7604 147.474 18.851 147.14 19.0321C146.81 19.2092 146.548 19.4567 146.355 19.7747C146.162 20.0886 146.065 20.4468 146.065 20.8492V26.5119H144.26ZM155.661 17.2391V18.688H150.596V17.2391H155.661ZM151.954 15.0176H153.759V23.7892C153.759 24.1394 153.812 24.403 153.916 24.58C154.021 24.7531 154.156 24.8718 154.321 24.9362C154.49 24.9966 154.673 25.0268 154.87 25.0268C155.015 25.0268 155.142 25.0167 155.25 24.9966C155.359 24.9765 155.444 24.9604 155.504 24.9483L155.83 26.4394C155.725 26.4797 155.576 26.5199 155.383 26.5602C155.19 26.6044 154.949 26.6286 154.659 26.6326C154.184 26.6407 153.741 26.5561 153.331 26.3791C152.92 26.202 152.588 25.9283 152.335 25.558C152.081 25.1878 151.954 24.7229 151.954 24.1635V15.0176Z" fill="#E7CDCD"/>
<path d="M161.945 26.5119V14.1482H167.053C167.978 14.1482 168.777 14.3293 169.449 14.6916C170.126 15.0497 170.647 15.5508 171.013 16.1948C171.379 16.8347 171.562 17.5792 171.562 18.4284C171.562 19.2816 171.375 20.0282 171.001 20.6681C170.631 21.304 170.101 21.797 169.413 22.1472C168.725 22.4973 167.908 22.6724 166.962 22.6724H163.811V20.318H166.407C166.858 20.318 167.234 20.2395 167.536 20.0825C167.842 19.9256 168.073 19.7062 168.23 19.4245C168.387 19.1388 168.465 18.8067 168.465 18.4284C168.465 18.0461 168.387 17.7161 168.23 17.4384C168.073 17.1566 167.842 16.9393 167.536 16.7864C167.23 16.6334 166.854 16.557 166.407 16.557H164.934V26.5119H161.945ZM175.317 26.6688C174.726 26.6688 174.2 26.5702 173.742 26.373C173.287 26.1718 172.927 25.8699 172.661 25.4675C172.399 25.061 172.269 24.5519 172.269 23.9401C172.269 23.425 172.359 22.9903 172.54 22.6362C172.721 22.282 172.971 21.9942 173.289 21.7729C173.607 21.5515 173.973 21.3845 174.388 21.2718C174.802 21.1551 175.245 21.0766 175.716 21.0364C176.243 20.9881 176.668 20.9378 176.99 20.8854C177.311 20.8291 177.545 20.7506 177.69 20.65C177.839 20.5454 177.913 20.3985 177.913 20.2093V20.1791C177.913 19.8692 177.807 19.6298 177.593 19.4607C177.38 19.2917 177.092 19.2072 176.73 19.2072C176.34 19.2072 176.026 19.2917 175.788 19.4607C175.551 19.6298 175.4 19.8632 175.335 20.161L172.613 20.0644C172.693 19.501 172.901 18.9979 173.235 18.5552C173.573 18.1085 174.035 17.7583 174.623 17.5048C175.215 17.2472 175.925 17.1184 176.754 17.1184C177.346 17.1184 177.891 17.1888 178.39 17.3297C178.889 17.4665 179.324 17.6678 179.694 17.9334C180.064 18.195 180.35 18.517 180.551 18.8993C180.757 19.2816 180.859 19.7183 180.859 20.2093V26.5119H178.082V25.22H178.01C177.845 25.5339 177.633 25.7995 177.376 26.0168C177.122 26.2342 176.822 26.3972 176.476 26.5058C176.134 26.6145 175.748 26.6688 175.317 26.6688ZM176.229 24.737C176.547 24.737 176.833 24.6726 177.086 24.5438C177.344 24.415 177.549 24.238 177.702 24.0126C177.855 23.7832 177.931 23.5175 177.931 23.2157V22.3343C177.847 22.3786 177.744 22.4188 177.623 22.455C177.507 22.4913 177.378 22.5255 177.237 22.5577C177.096 22.5899 176.951 22.618 176.802 22.6422C176.653 22.6663 176.511 22.6885 176.374 22.7086C176.096 22.7529 175.859 22.8213 175.661 22.9139C175.468 23.0064 175.319 23.1272 175.215 23.2761C175.114 23.421 175.064 23.594 175.064 23.7952C175.064 24.1011 175.172 24.3345 175.39 24.4955C175.611 24.6565 175.891 24.737 176.229 24.737ZM182.664 29.9891V17.2391H185.586V18.8269H185.677C185.797 18.5451 185.968 18.2735 186.19 18.0119C186.415 17.7503 186.701 17.537 187.047 17.372C187.397 17.2029 187.816 17.1184 188.303 17.1184C188.947 17.1184 189.548 17.2874 190.108 17.6255C190.671 17.9636 191.126 18.4848 191.472 19.1891C191.818 19.8934 191.991 20.7909 191.991 21.8815C191.991 22.932 191.824 23.8113 191.49 24.5197C191.16 25.228 190.713 25.7593 190.15 26.1134C189.591 26.4676 188.969 26.6447 188.285 26.6447C187.818 26.6447 187.413 26.5682 187.071 26.4153C186.729 26.2623 186.441 26.0611 186.208 25.8116C185.979 25.5621 185.801 25.2944 185.677 25.0087H185.616V29.9891H182.664ZM185.556 21.8755C185.556 22.3746 185.622 22.8092 185.755 23.1795C185.892 23.5497 186.087 23.8375 186.341 24.0428C186.598 24.244 186.906 24.3446 187.264 24.3446C187.627 24.3446 187.934 24.244 188.188 24.0428C188.442 23.8375 188.633 23.5497 188.762 23.1795C188.894 22.8092 188.961 22.3746 188.961 21.8755C188.961 21.3765 188.894 20.9438 188.762 20.5776C188.633 20.2113 188.442 19.9276 188.188 19.7264C187.938 19.5251 187.631 19.4245 187.264 19.4245C186.902 19.4245 186.594 19.5231 186.341 19.7203C186.087 19.9175 185.892 20.1992 185.755 20.5655C185.622 20.9317 185.556 21.3684 185.556 21.8755ZM197.873 26.6869C196.903 26.6869 196.066 26.4958 195.361 26.1134C194.661 25.7271 194.122 25.1777 193.744 24.4653C193.369 23.749 193.182 22.8978 193.182 21.9117C193.182 20.9539 193.371 20.1167 193.75 19.4004C194.128 18.68 194.661 18.1205 195.349 17.7221C196.038 17.3196 196.849 17.1184 197.782 17.1184C198.442 17.1184 199.046 17.221 199.593 17.4263C200.141 17.6315 200.614 17.9354 201.012 18.3379C201.41 18.7403 201.72 19.2374 201.942 19.829C202.163 20.4166 202.274 21.0907 202.274 21.8514V22.5879H194.214V20.8734H199.527C199.523 20.5595 199.448 20.2797 199.304 20.0342C199.159 19.7887 198.959 19.5976 198.706 19.4607C198.456 19.3199 198.169 19.2494 197.843 19.2494C197.513 19.2494 197.217 19.3239 196.955 19.4728C196.694 19.6177 196.486 19.8169 196.333 20.0705C196.18 20.32 196.1 20.6037 196.092 20.9217V22.6663C196.092 23.0447 196.166 23.3767 196.315 23.6624C196.464 23.9442 196.675 24.1635 196.949 24.3205C197.223 24.4774 197.549 24.5559 197.927 24.5559C198.189 24.5559 198.426 24.5197 198.639 24.4472C198.853 24.3748 199.036 24.2681 199.189 24.1273C199.342 23.9864 199.456 23.8134 199.533 23.6081L202.244 23.6866C202.131 24.2943 201.883 24.8235 201.501 25.2743C201.123 25.721 200.626 26.0692 200.01 26.3187C199.394 26.5642 198.682 26.6869 197.873 26.6869ZM203.781 26.5119V17.2391H206.649V18.9295H206.746C206.915 18.3177 207.19 17.863 207.573 17.5651C207.955 17.2633 208.4 17.1124 208.907 17.1124C209.044 17.1124 209.184 17.1224 209.329 17.1426C209.474 17.1586 209.609 17.1848 209.734 17.221V19.7867C209.593 19.7384 209.408 19.7002 209.178 19.672C208.953 19.6439 208.752 19.6298 208.575 19.6298C208.225 19.6298 207.909 19.7082 207.627 19.8652C207.349 20.0181 207.13 20.2335 206.969 20.5112C206.812 20.7848 206.733 21.1068 206.733 21.4771V26.5119H203.781Z" fill="white"/>
</g>
</g>
<rect x="1.07973" y="1.0826" width="215.858" height="37.8585" rx="6.92857" stroke="white" stroke-opacity="0.15" stroke-width="2.14286"/>
<defs>
<filter id="filter0_d_28_3139" x="2.40802" y="0.410889" width="40.6083" height="41.3036" filterUnits="userSpaceOnUse" color-interpolation-filters="sRGB">
<feFlood flood-opacity="0" result="BackgroundImageFix"/>
<feColorMatrix in="SourceAlpha" type="matrix" values="0 0 0 0 0 0 0 0 0 0 0 0 0 0 0 0 0 0 127 0" result="hardAlpha"/>
<feOffset/>
<feGaussianBlur stdDeviation="2.80014"/>
<feComposite in2="hardAlpha" operator="out"/>
<feColorMatrix type="matrix" values="0 0 0 0 0 0 0 0 0 0 0 0 0 0 0 0 0 0 0.25 0"/>
<feBlend mode="normal" in2="BackgroundImageFix" result="effect1_dropShadow_28_3139"/>
<feBlend mode="normal" in="SourceGraphic" in2="effect1_dropShadow_28_3139" result="shape"/>
</filter>
<filter id="filter1_d_28_3139" x="36.2955" y="3.79759" width="179.429" height="32.4286" filterUnits="userSpaceOnUse" color-interpolation-filters="sRGB">
<feFlood flood-opacity="0" result="BackgroundImageFix"/>
<feColorMatrix in="SourceAlpha" type="matrix" values="0 0 0 0 0 0 0 0 0 0 0 0 0 0 0 0 0 0 127 0" result="hardAlpha"/>
<feOffset/>
<feGaussianBlur stdDeviation="2.85714"/>
<feComposite in2="hardAlpha" operator="out"/>
<feColorMatrix type="matrix" values="0 0 0 0 0 0 0 0 0 0 0 0 0 0 0 0 0 0 0.25 0"/>
<feBlend mode="normal" in2="BackgroundImageFix" result="effect1_dropShadow_28_3139"/>
<feBlend mode="normal" in="SourceGraphic" in2="effect1_dropShadow_28_3139" result="shape"/>
</filter>
<linearGradient id="paint0_linear_28_3139" x1="109.009" y1="0.0111694" x2="109.009" y2="40.0126" gradientUnits="userSpaceOnUse">
<stop stop-color="#2C1B1B"/>
<stop offset="1" stop-color="#1F1414"/>
</linearGradient>
<linearGradient id="paint1_linear_28_3139" x1="26.9136" y1="17.2118" x2="26.9136" y2="34.0141" gradientUnits="userSpaceOnUse">
<stop stop-color="#FF0000"/>
<stop offset="1" stop-color="#CC0000"/>
</linearGradient>
<clipPath id="clip0_28_3139">
<rect x="0.00830078" y="0.0111694" width="218.001" height="40.0014" rx="8" fill="white"/>
</clipPath>
</defs>
</svg>
