<svg width="213" height="41" viewBox="0 0 213 41" fill="none" xmlns="http://www.w3.org/2000/svg">
<g clip-path="url(#clip0_28_3106)">
<rect x="0.00830078" y="0.00556946" width="212.001" height="40.0014" rx="8" fill="url(#paint0_linear_28_3106)"/>
<g filter="url(#filter0_d_28_3106)">
<path d="M15.7941 9.88124C15.7943 10.0124 15.8464 10.1382 15.9392 10.231C16.032 10.3238 16.1578 10.3759 16.2889 10.3761H17.1304V12.2569H16.2889C16.1577 12.2569 16.0319 12.309 15.9391 12.4018C15.8463 12.4946 15.7941 12.6204 15.7941 12.7517C15.7941 12.8829 15.8463 13.0088 15.9391 13.1016C16.0319 13.1944 16.1577 13.2465 16.2889 13.2465H17.1304V14.6889C17.1304 14.8052 17.0842 14.9167 17.002 14.9989C16.9197 15.0811 16.8082 15.1273 16.692 15.1273H15.2496V14.2859C15.2496 14.1546 15.1975 14.0288 15.1047 13.936C15.0119 13.8432 14.886 13.791 14.7548 13.791C14.6235 13.791 14.4977 13.8432 14.4049 13.936C14.3121 14.0288 14.26 14.1546 14.26 14.2859V15.1273H12.3792V14.2859C12.3792 14.1546 12.3271 14.0288 12.2343 13.936C12.1415 13.8432 12.0156 13.791 11.8844 13.791C11.7531 13.791 11.6273 13.8432 11.5345 13.936C11.4417 14.0288 11.3896 14.1546 11.3896 14.2859V15.1273H9.94719C9.83096 15.1272 9.71952 15.0809 9.63733 14.9987C9.55515 14.9166 9.50892 14.8051 9.50879 14.6889V7.94404C9.50879 7.82776 9.55498 7.71625 9.63719 7.63404C9.71941 7.55182 9.83092 7.50563 9.94719 7.50563H16.692C16.7496 7.50557 16.8066 7.51686 16.8598 7.53887C16.913 7.56088 16.9614 7.59317 17.0021 7.6339C17.0428 7.67462 17.0751 7.72297 17.0971 7.77619C17.1191 7.82941 17.1304 7.88645 17.1304 7.94404V9.38595H16.2889C16.1577 9.38607 16.0318 9.43831 15.939 9.53118C15.8462 9.62406 15.7941 9.74997 15.7941 9.88124V9.88124Z" fill="#9722FF"/>
<path d="M24.404 9.88124C24.404 10.0125 24.4562 10.1383 24.549 10.2311C24.6417 10.3239 24.7676 10.3761 24.8988 10.3761H25.7427V12.2569H24.9012C24.77 12.2569 24.6441 12.309 24.5513 12.4018C24.4585 12.4946 24.4064 12.6204 24.4064 12.7517C24.4064 12.8829 24.4585 13.0088 24.5513 13.1016C24.6441 13.1944 24.77 13.2465 24.9012 13.2465H25.7427V14.6889C25.7425 14.8051 25.6963 14.9166 25.6141 14.9987C25.5319 15.0809 25.4205 15.1272 25.3043 15.1273H18.5585C18.4422 15.1273 18.3307 15.0811 18.2485 14.9989C18.1663 14.9167 18.1201 14.8052 18.1201 14.6889V13.2465H18.9611C19.0923 13.2465 19.2182 13.1944 19.311 13.1016C19.4037 13.0088 19.4559 12.8829 19.4559 12.7517C19.4559 12.6204 19.4037 12.4946 19.311 12.4018C19.2182 12.309 19.0923 12.2569 18.9611 12.2569H18.1201V10.3761H18.9611C19.0274 10.3781 19.0934 10.3668 19.1553 10.3429C19.2171 10.3189 19.2736 10.2828 19.3212 10.2366C19.3688 10.1905 19.4067 10.1352 19.4326 10.0741C19.4584 10.013 19.4717 9.94734 19.4717 9.881C19.4717 9.81467 19.4584 9.749 19.4326 9.68791C19.4067 9.62682 19.3688 9.57155 19.3212 9.52538C19.2736 9.4792 19.2171 9.44307 19.1553 9.41912C19.0934 9.39517 19.0274 9.38389 18.9611 9.38595H18.1201V7.94404C18.1201 7.88645 18.1314 7.82941 18.1534 7.77619C18.1754 7.72297 18.2077 7.67462 18.2484 7.6339C18.2891 7.59317 18.3375 7.56088 18.3907 7.53887C18.4439 7.51686 18.5009 7.50557 18.5585 7.50563H25.3033C25.4196 7.50563 25.5311 7.55182 25.6133 7.63404C25.6955 7.71625 25.7417 7.82776 25.7417 7.94404V9.38595H24.9003C24.8351 9.38576 24.7706 9.39843 24.7104 9.42324C24.6501 9.44806 24.5954 9.48452 24.5493 9.53054C24.5032 9.57655 24.4666 9.63122 24.4417 9.69141C24.4168 9.75159 24.404 9.8161 24.404 9.88124V9.88124Z" fill="#DC29DD"/>
<path d="M34.353 7.94404V14.6889C34.353 14.8052 34.3068 14.9167 34.2246 14.9989C34.1424 15.0811 34.0309 15.1273 33.9146 15.1273H32.4723V14.2859C32.4723 14.1546 32.4201 14.0288 32.3273 13.936C32.2345 13.8432 32.1087 13.791 31.9774 13.791C31.8462 13.791 31.7203 13.8432 31.6275 13.936C31.5348 14.0288 31.4826 14.1546 31.4826 14.2859V15.1273H29.6018V14.2859C29.6018 14.1546 29.5497 14.0288 29.4569 13.936C29.3641 13.8432 29.2383 13.791 29.107 13.791C28.9758 13.791 28.8499 13.8432 28.7571 13.936C28.6644 14.0288 28.6122 14.1546 28.6122 14.2859V15.1273H27.1698C27.0536 15.1272 26.9422 15.0809 26.86 14.9987C26.7778 14.9166 26.7316 14.8051 26.7314 14.6889V13.2465H27.5729C27.7041 13.2465 27.83 13.1944 27.9228 13.1016C28.0156 13.0088 28.0677 12.8829 28.0677 12.7517C28.0677 12.6204 28.0156 12.4946 27.9228 12.4018C27.83 12.309 27.7041 12.2569 27.5729 12.2569H26.7314V10.3761H27.5729C27.7015 10.3721 27.8235 10.3182 27.9131 10.2258C28.0027 10.1333 28.0528 10.0097 28.0528 9.881C28.0528 9.75231 28.0027 9.62866 27.9131 9.53626C27.8235 9.44385 27.7015 9.38994 27.5729 9.38595H26.7314V7.94404C26.7314 7.82776 26.7776 7.71625 26.8599 7.63404C26.9421 7.55182 27.0536 7.50563 27.1698 7.50563H33.9146C33.9722 7.50557 34.0292 7.51686 34.0825 7.53887C34.1357 7.56088 34.184 7.59317 34.2248 7.6339C34.2655 7.67462 34.2978 7.72297 34.3198 7.77619C34.3418 7.82941 34.3531 7.88645 34.353 7.94404Z" fill="#27A2FD"/>
<path d="M17.1304 16.5553V23.3002C17.1304 23.3578 17.1191 23.4148 17.0971 23.468C17.0751 23.5213 17.0428 23.5696 17.0021 23.6103C16.9614 23.6511 16.913 23.6834 16.8598 23.7054C16.8066 23.7274 16.7496 23.7387 16.692 23.7386H15.2496V22.8972C15.2496 22.7659 15.1975 22.6401 15.1047 22.5473C15.0119 22.4545 14.886 22.4024 14.7548 22.4024C14.6235 22.4024 14.4977 22.4545 14.4049 22.5473C14.3121 22.6401 14.26 22.7659 14.26 22.8972V23.7396H12.3792V22.8981C12.3792 22.7669 12.3271 22.641 12.2343 22.5482C12.1415 22.4554 12.0156 22.4033 11.8844 22.4033C11.7531 22.4033 11.6273 22.4554 11.5345 22.5482C11.4417 22.641 11.3896 22.7669 11.3896 22.8981V23.7396H9.94719C9.83092 23.7396 9.71941 23.6934 9.63719 23.6112C9.55498 23.5289 9.50879 23.4174 9.50879 23.3012V16.5553C9.50892 16.4391 9.55515 16.3277 9.63733 16.2455C9.71952 16.1633 9.83096 16.1171 9.94719 16.1169H11.3896V16.9584C11.3896 17.0896 11.4417 17.2155 11.5345 17.3083C11.6273 17.4011 11.7531 17.4532 11.8844 17.4532C12.0156 17.4532 12.1415 17.4011 12.2343 17.3083C12.3271 17.2155 12.3792 17.0896 12.3792 16.9584V16.1169H14.26V16.9584C14.26 17.0896 14.3121 17.2155 14.4049 17.3083C14.4977 17.4011 14.6235 17.4532 14.7548 17.4532C14.886 17.4532 15.0119 17.4011 15.1047 17.3083C15.1975 17.2155 15.2496 17.0896 15.2496 16.9584V16.1169H16.692C16.7495 16.1169 16.8066 16.1283 16.8597 16.1503C16.9129 16.1723 16.9613 16.2046 17.002 16.2453C17.0427 16.2861 17.075 16.3344 17.097 16.3876C17.119 16.4408 17.1304 16.4978 17.1304 16.5553V16.5553Z" fill="#DC29DD"/>
<path d="M24.404 18.4926C24.404 18.6238 24.4562 18.7496 24.549 18.8424C24.6417 18.9352 24.7676 18.9874 24.8988 18.9874H25.7427V20.8682H24.9012C24.77 20.8682 24.6441 20.9203 24.5513 21.0131C24.4585 21.1059 24.4064 21.2318 24.4064 21.363C24.4064 21.4942 24.4585 21.6201 24.5513 21.7129C24.6441 21.8057 24.77 21.8578 24.9012 21.8578H25.7427V23.3002C25.7427 23.4165 25.6965 23.528 25.6142 23.6102C25.532 23.6924 25.4205 23.7386 25.3043 23.7386H23.8609V22.8972C23.8609 22.7659 23.8088 22.6401 23.716 22.5473C23.6232 22.4545 23.4973 22.4024 23.3661 22.4024C23.2349 22.4024 23.109 22.4545 23.0162 22.5473C22.9234 22.6401 22.8713 22.7659 22.8713 22.8972V23.7396H20.9905V22.8981C20.9865 22.7695 20.9326 22.6475 20.8402 22.5579C20.7478 22.4683 20.6242 22.4182 20.4955 22.4182C20.3668 22.4182 20.2431 22.4683 20.1507 22.5579C20.0583 22.6475 20.0044 22.7695 20.0004 22.8981V23.7396H18.5585C18.5009 23.7396 18.4439 23.7283 18.3907 23.7063C18.3375 23.6843 18.2891 23.652 18.2484 23.6113C18.2077 23.5706 18.1754 23.5222 18.1534 23.469C18.1314 23.4158 18.1201 23.3587 18.1201 23.3012V16.5553C18.1201 16.4391 18.1663 16.3276 18.2485 16.2453C18.3307 16.1631 18.4422 16.1169 18.5585 16.1169H25.3033C25.4195 16.1171 25.531 16.1633 25.6132 16.2455C25.6953 16.3277 25.7416 16.4391 25.7417 16.5553V17.9977H24.9003C24.8352 17.9975 24.7707 18.0102 24.7105 18.035C24.6503 18.0598 24.5956 18.0962 24.5495 18.1422C24.5034 18.1881 24.4668 18.2427 24.4418 18.3029C24.4169 18.363 24.404 18.4275 24.404 18.4926V18.4926Z" fill="#27A2FD"/>
<path d="M34.353 16.5554V23.3002C34.3531 23.3578 34.3418 23.4148 34.3198 23.468C34.2978 23.5213 34.2655 23.5696 34.2248 23.6103C34.184 23.6511 34.1357 23.6834 34.0825 23.7054C34.0292 23.7274 33.9722 23.7387 33.9146 23.7386H27.1698C27.0536 23.7386 26.9421 23.6924 26.8599 23.6102C26.7776 23.528 26.7314 23.4165 26.7314 23.3002V21.8578H27.5729C27.7041 21.8578 27.83 21.8057 27.9228 21.7129C28.0156 21.6201 28.0677 21.4942 28.0677 21.363C28.0677 21.2318 28.0156 21.1059 27.9228 21.0131C27.83 20.9203 27.7041 20.8682 27.5729 20.8682H26.7314V18.9874H27.5729C27.7041 18.9874 27.83 18.9352 27.9228 18.8424C28.0156 18.7497 28.0677 18.6238 28.0677 18.4926C28.0677 18.3613 28.0156 18.2355 27.9228 18.1427C27.83 18.0499 27.7041 17.9977 27.5729 17.9977H26.7314V16.5554C26.7316 16.4391 26.7778 16.3277 26.86 16.2455C26.9422 16.1633 27.0536 16.1171 27.1698 16.1169H28.6113V16.9584C28.6113 17.0896 28.6634 17.2155 28.7562 17.3083C28.849 17.4011 28.9748 17.4532 29.1061 17.4532C29.2373 17.4532 29.3632 17.4011 29.456 17.3083C29.5488 17.2155 29.6009 17.0896 29.6009 16.9584V16.1169H31.4817V16.9584C31.4817 17.0896 31.5338 17.2155 31.6266 17.3083C31.7194 17.4011 31.8452 17.4532 31.9765 17.4532C32.1077 17.4532 32.2336 17.4011 32.3264 17.3083C32.4192 17.2155 32.4713 17.0896 32.4713 16.9584V16.1169H33.9137C33.9713 16.1168 34.0284 16.1281 34.0817 16.15C34.135 16.172 34.1835 16.2043 34.2243 16.245C34.2651 16.2857 34.2975 16.3341 34.3196 16.3874C34.3417 16.4406 34.353 16.4977 34.353 16.5554Z" fill="#3344FF"/>
<path d="M15.7941 27.1043C15.7943 27.2355 15.8464 27.3613 15.9392 27.4541C16.032 27.5469 16.1578 27.599 16.2889 27.5992H17.1304V29.4795H16.2889C16.1603 29.4835 16.0383 29.5374 15.9487 29.6298C15.8591 29.7222 15.809 29.8458 15.809 29.9745C15.809 30.1032 15.8591 30.2269 15.9487 30.3193C16.0383 30.4117 16.1603 30.4656 16.2889 30.4696H17.1304V31.912C17.1304 32.0283 17.0842 32.1398 17.002 32.222C16.9197 32.3042 16.8082 32.3504 16.692 32.3504H9.94719C9.83096 32.3503 9.71952 32.304 9.63733 32.2218C9.55515 32.1397 9.50892 32.0282 9.50879 31.912V25.1671C9.50879 25.0509 9.55498 24.9394 9.63719 24.8571C9.71941 24.7749 9.83092 24.7287 9.94719 24.7287H11.3896V25.5697C11.3896 25.7009 11.4417 25.8268 11.5345 25.9196C11.6273 26.0124 11.7531 26.0645 11.8844 26.0645C12.0156 26.0645 12.1415 26.0124 12.2343 25.9196C12.3271 25.8268 12.3792 25.7009 12.3792 25.5697V24.7287H14.26V25.5697C14.26 25.7009 14.3121 25.8268 14.4049 25.9196C14.4977 26.0124 14.6235 26.0645 14.7548 26.0645C14.886 26.0645 15.0119 26.0124 15.1047 25.9196C15.1975 25.8268 15.2496 25.7009 15.2496 25.5697V24.7287H16.692C16.7496 24.7287 16.8066 24.74 16.8598 24.762C16.913 24.784 16.9614 24.8163 17.0021 24.857C17.0428 24.8977 17.0751 24.9461 17.0971 24.9993C17.1191 25.0525 17.1304 25.1095 17.1304 25.1671V26.6081H16.2889C16.2239 26.6082 16.1594 26.621 16.0993 26.646C16.0392 26.671 15.9846 26.7076 15.9387 26.7537C15.8927 26.7998 15.8563 26.8544 15.8315 26.9146C15.8067 26.9748 15.794 27.0393 15.7941 27.1043Z" fill="#9722FF"/>
<path d="M25.7427 25.1672V31.912C25.7425 32.0282 25.6963 32.1397 25.6141 32.2219C25.5319 32.304 25.4205 32.3503 25.3043 32.3504H18.5585C18.4422 32.3504 18.3307 32.3042 18.2485 32.222C18.1663 32.1398 18.1201 32.0283 18.1201 31.912V30.4696H18.9611C19.0274 30.4717 19.0934 30.4604 19.1553 30.4364C19.2171 30.4125 19.2736 30.3764 19.3212 30.3302C19.3688 30.284 19.4067 30.2287 19.4326 30.1676C19.4584 30.1066 19.4717 30.0409 19.4717 29.9746C19.4717 29.9082 19.4584 29.8426 19.4326 29.7815C19.4067 29.7204 19.3688 29.6651 19.3212 29.6189C19.2736 29.5728 19.2171 29.5366 19.1553 29.5127C19.0934 29.4887 19.0274 29.4774 18.9611 29.4795H18.1201V27.5992H18.9611C19.0274 27.6012 19.0934 27.59 19.1553 27.566C19.2171 27.5421 19.2736 27.5059 19.3212 27.4597C19.3688 27.4136 19.4067 27.3583 19.4326 27.2972C19.4584 27.2361 19.4717 27.1705 19.4717 27.1041C19.4717 27.0378 19.4584 26.9721 19.4326 26.911C19.4067 26.8499 19.3688 26.7947 19.3212 26.7485C19.2736 26.7023 19.2171 26.6662 19.1553 26.6422C19.0934 26.6183 19.0274 26.607 18.9611 26.6091H18.1201V25.1672C18.1201 25.1096 18.1314 25.0525 18.1534 24.9993C18.1754 24.9461 18.2077 24.8977 18.2484 24.857C18.2891 24.8163 18.3375 24.784 18.3907 24.762C18.4439 24.74 18.5009 24.7287 18.5585 24.7287H20.0004V25.5697C19.9984 25.636 20.0096 25.7021 20.0336 25.7639C20.0575 25.8258 20.0937 25.8822 20.1398 25.9298C20.186 25.9775 20.2413 26.0153 20.3024 26.0412C20.3635 26.0671 20.4291 26.0804 20.4955 26.0804C20.5618 26.0804 20.6275 26.0671 20.6886 26.0412C20.7496 26.0153 20.8049 25.9775 20.8511 25.9298C20.8973 25.8822 20.9334 25.8258 20.9573 25.7639C20.9813 25.7021 20.9926 25.636 20.9905 25.5697V24.7287H22.8713V25.5697C22.8713 25.6347 22.8841 25.699 22.909 25.7591C22.9338 25.8191 22.9703 25.8736 23.0162 25.9196C23.0622 25.9655 23.1167 26.002 23.1768 26.0269C23.2368 26.0517 23.3011 26.0645 23.3661 26.0645C23.4311 26.0645 23.4954 26.0517 23.5555 26.0269C23.6155 26.002 23.67 25.9655 23.716 25.9196C23.7619 25.8736 23.7984 25.8191 23.8233 25.7591C23.8481 25.699 23.8609 25.6347 23.8609 25.5697V24.7287H25.3033C25.3609 24.7286 25.4181 24.7399 25.4714 24.7618C25.5247 24.7838 25.5731 24.8161 25.6139 24.8568C25.6547 24.8975 25.6871 24.9459 25.7092 24.9992C25.7313 25.0524 25.7427 25.1095 25.7427 25.1672V25.1672Z" fill="#3344FF"/>
<path d="M31.8107 25.0384L27.0414 29.8077C26.8702 29.9789 26.8702 30.2565 27.0414 30.4277L31.8107 35.197C31.9819 35.3682 32.2595 35.3682 32.4307 35.197L37.2 30.4277C37.3712 30.2565 37.3712 29.9789 37.2 29.8077L32.4307 25.0384C32.2595 24.8672 31.9819 24.8672 31.8107 25.0384Z" fill="#9722FF"/>
<g opacity="0.7">
<mask id="path-12-outside-1_28_3106" maskUnits="userSpaceOnUse" x="15.5112" y="14.2062" width="22" height="22" fill="black">
<rect fill="white" x="15.5112" y="14.2062" width="22" height="22"/>
<path fill-rule="evenodd" clip-rule="evenodd" d="M20.6485 17.4112C20.3752 17.1378 19.932 17.1378 19.6586 17.4112L18.7173 18.3525C18.4439 18.6259 18.4439 19.0692 18.7173 19.3426L24.9827 25.6083L18.7165 31.8722C18.4431 32.1455 18.4431 32.5887 18.7165 32.862L19.658 33.8031C19.9314 34.0764 20.3747 34.0764 20.6482 33.8031L26.9139 27.5397L33.1772 33.8034C33.4506 34.0768 33.8938 34.0768 34.1672 33.8034L35.1084 32.8621C35.3818 32.5887 35.3818 32.1454 35.1084 31.8721L28.8455 25.6087L35.1112 19.3454C35.3846 19.0721 35.3846 18.6289 35.1112 18.3556L34.1697 17.4144C33.8963 17.1411 33.453 17.1411 33.1795 17.4144L26.9143 23.6774L20.6485 17.4112Z"/>
</mask>
<path fill-rule="evenodd" clip-rule="evenodd" d="M20.6485 17.4112C20.3752 17.1378 19.932 17.1378 19.6586 17.4112L18.7173 18.3525C18.4439 18.6259 18.4439 19.0692 18.7173 19.3426L24.9827 25.6083L18.7165 31.8722C18.4431 32.1455 18.4431 32.5887 18.7165 32.862L19.658 33.8031C19.9314 34.0764 20.3747 34.0764 20.6482 33.8031L26.9139 27.5397L33.1772 33.8034C33.4506 34.0768 33.8938 34.0768 34.1672 33.8034L35.1084 32.8621C35.3818 32.5887 35.3818 32.1454 35.1084 31.8721L28.8455 25.6087L35.1112 19.3454C35.3846 19.0721 35.3846 18.6289 35.1112 18.3556L34.1697 17.4144C33.8963 17.1411 33.453 17.1411 33.1795 17.4144L26.9143 23.6774L20.6485 17.4112Z" fill="url(#paint1_linear_28_3106)"/>
<path d="M19.6584 17.4112L18.1733 15.9263L18.1733 15.9263L19.6584 17.4112ZM20.6483 17.4112L19.1633 18.8962L19.1633 18.8962L20.6483 17.4112ZM18.7171 18.3525L17.2321 16.8676L17.2321 16.8676L18.7171 18.3525ZM18.7171 19.3426L17.2321 20.8275L17.2321 20.8275L18.7171 19.3426ZM24.9824 25.6083L26.4672 27.0936L27.9527 25.6087L26.4675 24.1234L24.9824 25.6083ZM18.7163 31.8722L17.2316 30.3869L17.2316 30.3869L18.7163 31.8722ZM18.7163 32.862L17.2316 34.3473L17.2316 34.3473L18.7163 32.862ZM19.6578 33.8031L21.1425 32.3178L21.1425 32.3178L19.6578 33.8031ZM20.648 33.8031L19.1632 32.3178L19.1632 32.3178L20.648 33.8031ZM26.9137 27.5397L28.3987 26.0547L26.914 24.5699L25.4289 26.0544L26.9137 27.5397ZM33.177 33.8034L31.6919 35.2884L31.6919 35.2884L33.177 33.8034ZM34.1669 33.8034L35.652 35.2884L35.652 35.2884L34.1669 33.8034ZM35.1082 32.8621L36.5933 34.347L36.5933 34.347L35.1082 32.8621ZM35.1082 31.8721L33.6232 33.357L33.6232 33.357L35.1082 31.8721ZM28.8453 25.6087L27.3606 24.1235L25.8751 25.6084L27.3603 27.0937L28.8453 25.6087ZM35.111 19.3454L33.6262 17.8601L33.6262 17.8601L35.111 19.3454ZM35.111 18.3556L36.5957 16.8703L36.5957 16.8703L35.111 18.3556ZM34.1695 17.4145L35.6542 15.9292L35.6542 15.9292L34.1695 17.4145ZM33.1793 17.4145L31.6946 15.9292L31.6946 15.9292L33.1793 17.4145ZM26.9141 23.6774L25.429 25.1623L26.9138 26.6472L28.3988 25.1627L26.9141 23.6774ZM21.1434 18.8962C20.5966 19.443 19.7101 19.443 19.1633 18.8962L22.1334 15.9263C21.0399 14.8327 19.2668 14.8327 18.1733 15.9263L21.1434 18.8962ZM20.2021 19.8375L21.1434 18.8962L18.1733 15.9263L17.2321 16.8676L20.2021 19.8375ZM20.2022 17.8576C20.7489 18.4044 20.7489 19.2907 20.2021 19.8375L17.2321 16.8676C16.1386 17.9611 16.1386 19.734 17.2321 20.8275L20.2022 17.8576ZM26.4675 24.1234L20.2022 17.8576L17.2321 20.8275L23.4974 27.0933L26.4675 24.1234ZM20.201 33.3574L26.4672 27.0936L23.4977 24.1231L17.2316 30.3869L20.201 33.3574ZM20.201 31.3767C20.7481 31.9236 20.7481 32.8106 20.201 33.3574L17.2316 30.3869C16.1376 31.4804 16.1376 33.2537 17.2316 34.3473L20.201 31.3767ZM21.1425 32.3178L20.201 31.3767L17.2316 34.3473L18.173 35.2884L21.1425 32.3178ZM19.1632 32.3178C19.7099 31.7714 20.5959 31.7714 21.1425 32.3178L18.173 35.2884C19.2666 36.3815 21.0392 36.3815 22.1327 35.2884L19.1632 32.3178ZM25.4289 26.0544L19.1632 32.3178L22.1327 35.2884L28.3984 29.025L25.4289 26.0544ZM34.662 32.3185L28.3987 26.0547L25.4286 29.0246L31.6919 35.2884L34.662 32.3185ZM32.6819 32.3185C33.2287 31.7717 34.1152 31.7717 34.662 32.3185L31.6919 35.2884C32.7855 36.382 34.5585 36.382 35.652 35.2884L32.6819 32.3185ZM33.6232 31.3771L32.6819 32.3185L35.652 35.2884L36.5933 34.347L33.6232 31.3771ZM33.6232 33.357C33.0765 32.8103 33.0765 31.9239 33.6232 31.3771L36.5933 34.347C37.6867 33.2535 37.6867 31.4806 36.5933 30.3871L33.6232 33.357ZM27.3603 27.0937L33.6232 33.357L36.5933 30.3871L30.3304 24.1238L27.3603 27.0937ZM33.6262 17.8601L27.3606 24.1235L30.33 27.094L36.5957 20.8307L33.6262 17.8601ZM33.6262 19.8408C33.0792 19.294 33.0792 18.407 33.6262 17.8601L36.5957 20.8307C37.6896 19.7371 37.6896 17.9638 36.5957 16.8703L33.6262 19.8408ZM32.6848 18.8997L33.6262 19.8408L36.5957 16.8703L35.6542 15.9292L32.6848 18.8997ZM34.664 18.8997C34.1174 19.4462 33.2314 19.4462 32.6848 18.8997L35.6542 15.9292C34.5607 14.8361 32.7881 14.8361 31.6946 15.9292L34.664 18.8997ZM28.3988 25.1627L34.664 18.8997L31.6946 15.9292L25.4294 22.1921L28.3988 25.1627ZM19.1633 18.8962L25.429 25.1623L28.3991 22.1924L22.1334 15.9263L19.1633 18.8962Z" fill="black" mask="url(#path-12-outside-1_28_3106)"/>
</g>
</g>
<g filter="url(#filter1_d_28_3106)">
<path d="M47.7889 26.5063L44.3599 14.1426H46.3219L48.7306 23.7172H48.8453L51.3507 14.1426H53.2946L55.7999 23.7232H55.9146L58.3173 14.1426H60.2853L56.8503 26.5063H54.9728L52.3709 17.2456H52.2743L49.6724 26.5063H47.7889ZM64.8342 26.6934C63.9648 26.6934 63.2062 26.4942 62.5582 26.0958C61.9103 25.6973 61.4072 25.1399 61.049 24.4235C60.6908 23.7071 60.5117 22.87 60.5117 21.9122C60.5117 20.9503 60.6908 20.1091 61.049 19.3887C61.4072 18.6683 61.9103 18.1089 62.5582 17.7105C63.2062 17.312 63.9648 17.1128 64.8342 17.1128C65.7035 17.1128 66.4621 17.312 67.1101 17.7105C67.758 18.1089 68.2611 18.6683 68.6193 19.3887C68.9775 20.1091 69.1566 20.9503 69.1566 21.9122C69.1566 22.87 68.9775 23.7071 68.6193 24.4235C68.2611 25.1399 67.758 25.6973 67.1101 26.0958C66.4621 26.4942 65.7035 26.6934 64.8342 26.6934ZM64.8402 25.1781C65.4036 25.1781 65.8705 25.0292 66.2408 24.7314C66.611 24.4336 66.8847 24.0372 67.0618 23.5421C67.2429 23.0471 67.3334 22.5018 67.3334 21.9061C67.3334 21.3145 67.2429 20.7712 67.0618 20.2762C66.8847 19.7771 66.611 19.3767 66.2408 19.0748C65.8705 18.773 65.4036 18.622 64.8402 18.622C64.2727 18.622 63.8018 18.773 63.4276 19.0748C63.0573 19.3767 62.7816 19.7771 62.6005 20.2762C62.4234 20.7712 62.3349 21.3145 62.3349 21.9061C62.3349 22.5018 62.4234 23.0471 62.6005 23.5421C62.7816 24.0372 63.0573 24.4336 63.4276 24.7314C63.8018 25.0292 64.2727 25.1781 64.8402 25.1781ZM72.9765 21.0006V26.5063H71.1714V17.2335H72.904V18.7428H73.0187C73.232 18.2518 73.5661 17.8574 74.0209 17.5595C74.4797 17.2617 75.0572 17.1128 75.7535 17.1128C76.3853 17.1128 76.9387 17.2456 77.4136 17.5112C77.8885 17.7728 78.2568 18.1632 78.5184 18.6824C78.78 19.2016 78.9108 19.8435 78.9108 20.6082V26.5063H77.1057V20.8255C77.1057 20.1534 76.9307 19.6282 76.5805 19.2499C76.2304 18.8675 75.7494 18.6764 75.1377 18.6764C74.7191 18.6764 74.3468 18.7669 74.0209 18.948C73.6989 19.1291 73.4433 19.3948 73.2542 19.7449C73.069 20.091 72.9765 20.5096 72.9765 21.0006ZM82.8831 14.1426V15.3017C82.8831 15.6438 82.8187 16.004 82.6899 16.3823C82.5651 16.7566 82.388 17.1168 82.1586 17.4629C81.9292 17.8091 81.6596 18.1069 81.3497 18.3564L80.4562 17.7165C80.6937 17.3704 80.8989 17.0021 81.072 16.6117C81.2491 16.2213 81.3376 15.7907 81.3376 15.3198V14.1426H82.8831ZM89.3124 17.2335V18.6824H84.2474V17.2335H89.3124ZM85.6057 15.012H87.4108V23.7836C87.4108 24.1338 87.4631 24.3974 87.5677 24.5744C87.6724 24.7475 87.8072 24.8662 87.9722 24.9306C88.1412 24.991 88.3244 25.0212 88.5216 25.0212C88.6664 25.0212 88.7932 25.0111 88.9019 24.991C89.0106 24.9709 89.0951 24.9548 89.1554 24.9427L89.4814 26.4338C89.3768 26.4741 89.2279 26.5143 89.0347 26.5546C88.8415 26.5988 88.6 26.623 88.3103 26.627C87.8354 26.6351 87.3927 26.5505 86.9821 26.3735C86.5716 26.1964 86.2396 25.9227 85.986 25.5524C85.7325 25.1822 85.6057 24.7173 85.6057 24.1579V15.012ZM102.757 19.4974L101.121 19.7872C101.052 19.5779 100.944 19.3787 100.795 19.1895C100.65 19.0003 100.453 18.8454 100.203 18.7247C99.9535 18.6039 99.6416 18.5436 99.2673 18.5436C98.7562 18.5436 98.3296 18.6583 97.9875 18.8877C97.6454 19.113 97.4743 19.4048 97.4743 19.763C97.4743 20.0729 97.589 20.3224 97.8184 20.5116C98.0478 20.7008 98.4181 20.8557 98.9292 20.9764L100.402 21.3145C101.255 21.5117 101.891 21.8156 102.31 22.2261C102.728 22.6366 102.938 23.1699 102.938 23.8259C102.938 24.3813 102.777 24.8763 102.455 25.311C102.137 25.7416 101.692 26.0797 101.121 26.3252C100.553 26.5707 99.8951 26.6934 99.1466 26.6934C98.1082 26.6934 97.261 26.4721 96.605 26.0293C95.949 25.5826 95.5465 24.9487 95.3976 24.1277L97.1423 23.8621C97.251 24.3169 97.4743 24.661 97.8124 24.8944C98.1505 25.1238 98.5912 25.2385 99.1345 25.2385C99.7261 25.2385 100.199 25.1158 100.553 24.8703C100.907 24.6207 101.084 24.3169 101.084 23.9587C101.084 23.6689 100.976 23.4254 100.758 23.2282C100.545 23.031 100.217 22.8821 99.7744 22.7815L98.2048 22.4374C97.3395 22.2402 96.6996 21.9262 96.2851 21.4956C95.8745 21.065 95.6693 20.5196 95.6693 19.8596C95.6693 19.3123 95.8222 18.8333 96.1281 18.4228C96.434 18.0123 96.8565 17.6923 97.3958 17.4629C97.9351 17.2295 98.5529 17.1128 99.2492 17.1128C100.251 17.1128 101.04 17.3301 101.616 17.7648C102.191 18.1954 102.572 18.773 102.757 19.4974ZM110.796 22.6607V17.2335H112.607V26.5063H110.833V24.9004H110.736C110.523 25.3955 110.181 25.808 109.71 26.138C109.243 26.464 108.661 26.627 107.965 26.627C107.369 26.627 106.842 26.4962 106.383 26.2346C105.929 25.969 105.57 25.5766 105.309 25.0574C105.051 24.5382 104.922 23.8963 104.922 23.1316V17.2335H106.727V22.9143C106.727 23.5462 106.903 24.0492 107.253 24.4235C107.603 24.7978 108.058 24.985 108.617 24.985C108.955 24.985 109.291 24.9004 109.625 24.7314C109.963 24.5624 110.243 24.3068 110.464 23.9647C110.69 23.6226 110.8 23.188 110.796 22.6607ZM115.033 29.9835V17.2335H116.796V18.7367H116.946C117.051 18.5436 117.202 18.3202 117.399 18.0666C117.596 17.8131 117.87 17.5917 118.22 17.4026C118.57 17.2094 119.033 17.1128 119.609 17.1128C120.357 17.1128 121.025 17.302 121.613 17.6803C122.201 18.0586 122.661 18.6039 122.995 19.3163C123.334 20.0286 123.503 20.8859 123.503 21.888C123.503 22.8901 123.336 23.7494 123.001 24.4658C122.667 25.1781 122.209 25.7275 121.625 26.1139C121.041 26.4962 120.375 26.6874 119.627 26.6874C119.063 26.6874 118.603 26.5928 118.244 26.4036C117.89 26.2145 117.613 25.9931 117.411 25.7396C117.21 25.486 117.055 25.2606 116.946 25.0634H116.838V29.9835H115.033ZM116.802 21.8699C116.802 22.5219 116.896 23.0934 117.085 23.5844C117.274 24.0754 117.548 24.4597 117.906 24.7374C118.265 25.0111 118.703 25.148 119.222 25.148C119.762 25.148 120.212 25.0051 120.575 24.7193C120.937 24.4296 121.211 24.0372 121.396 23.5421C121.585 23.0471 121.679 22.4897 121.679 21.8699C121.679 21.2582 121.587 20.7088 121.402 20.2218C121.221 19.7348 120.947 19.3505 120.581 19.0688C120.218 18.787 119.766 18.6462 119.222 18.6462C118.699 18.6462 118.256 18.781 117.894 19.0507C117.536 19.3203 117.264 19.6966 117.079 20.1796C116.894 20.6625 116.802 21.226 116.802 21.8699ZM125.525 29.9835V17.2335H127.288V18.7367H127.439C127.543 18.5436 127.694 18.3202 127.891 18.0666C128.089 17.8131 128.362 17.5917 128.712 17.4026C129.063 17.2094 129.525 17.1128 130.101 17.1128C130.849 17.1128 131.518 17.302 132.105 17.6803C132.693 18.0586 133.154 18.6039 133.488 19.3163C133.826 20.0286 133.995 20.8859 133.995 21.888C133.995 22.8901 133.828 23.7494 133.494 24.4658C133.16 25.1781 132.701 25.7275 132.117 26.1139C131.534 26.4962 130.868 26.6874 130.119 26.6874C129.556 26.6874 129.095 26.5928 128.737 26.4036C128.382 26.2145 128.105 25.9931 127.903 25.7396C127.702 25.486 127.547 25.2606 127.439 25.0634H127.33V29.9835H125.525ZM127.294 21.8699C127.294 22.5219 127.388 23.0934 127.577 23.5844C127.767 24.0754 128.04 24.4597 128.399 24.7374C128.757 25.0111 129.195 25.148 129.715 25.148C130.254 25.148 130.705 25.0051 131.067 24.7193C131.429 24.4296 131.703 24.0372 131.888 23.5421C132.077 23.0471 132.172 22.4897 132.172 21.8699C132.172 21.2582 132.079 20.7088 131.894 20.2218C131.713 19.7348 131.439 19.3505 131.073 19.0688C130.711 18.787 130.258 18.6462 129.715 18.6462C129.191 18.6462 128.749 18.781 128.386 19.0507C128.028 19.3203 127.757 19.6966 127.571 20.1796C127.386 20.6625 127.294 21.226 127.294 21.8699ZM139.923 26.6934C139.054 26.6934 138.295 26.4942 137.647 26.0958C136.999 25.6973 136.496 25.1399 136.138 24.4235C135.78 23.7071 135.601 22.87 135.601 21.9122C135.601 20.9503 135.78 20.1091 136.138 19.3887C136.496 18.6683 136.999 18.1089 137.647 17.7105C138.295 17.312 139.054 17.1128 139.923 17.1128C140.792 17.1128 141.551 17.312 142.199 17.7105C142.847 18.1089 143.35 18.6683 143.708 19.3887C144.066 20.1091 144.245 20.9503 144.245 21.9122C144.245 22.87 144.066 23.7071 143.708 24.4235C143.35 25.1399 142.847 25.6973 142.199 26.0958C141.551 26.4942 140.792 26.6934 139.923 26.6934ZM139.929 25.1781C140.492 25.1781 140.959 25.0292 141.33 24.7314C141.7 24.4336 141.974 24.0372 142.151 23.5421C142.332 23.0471 142.422 22.5018 142.422 21.9061C142.422 21.3145 142.332 20.7712 142.151 20.2762C141.974 19.7771 141.7 19.3767 141.33 19.0748C140.959 18.773 140.492 18.622 139.929 18.622C139.362 18.622 138.891 18.773 138.516 19.0748C138.146 19.3767 137.87 19.7771 137.689 20.2762C137.512 20.7712 137.424 21.3145 137.424 21.9061C137.424 22.5018 137.512 23.0471 137.689 23.5421C137.87 24.0372 138.146 24.4336 138.516 24.7314C138.891 25.0292 139.362 25.1781 139.929 25.1781ZM146.26 26.5063V17.2335H148.005V18.7066H148.102C148.271 18.2075 148.568 17.8151 148.995 17.5294C149.426 17.2396 149.913 17.0947 150.456 17.0947C150.569 17.0947 150.701 17.0987 150.854 17.1068C151.011 17.1148 151.134 17.1249 151.223 17.137V18.8635C151.15 18.8434 151.021 18.8213 150.836 18.7971C150.651 18.7689 150.466 18.7548 150.281 18.7548C149.854 18.7548 149.474 18.8454 149.14 19.0265C148.81 19.2036 148.548 19.4511 148.355 19.7691C148.162 20.083 148.065 20.4412 148.065 20.8436V26.5063H146.26ZM157.661 17.2335V18.6824H152.596V17.2335H157.661ZM153.954 15.012H155.759V23.7836C155.759 24.1338 155.812 24.3974 155.916 24.5744C156.021 24.7475 156.156 24.8662 156.321 24.9306C156.49 24.991 156.673 25.0212 156.87 25.0212C157.015 25.0212 157.142 25.0111 157.25 24.991C157.359 24.9709 157.444 24.9548 157.504 24.9427L157.83 26.4338C157.725 26.4741 157.576 26.5143 157.383 26.5546C157.19 26.5988 156.949 26.623 156.659 26.627C156.184 26.6351 155.741 26.5505 155.331 26.3735C154.92 26.1964 154.588 25.9227 154.335 25.5524C154.081 25.1822 153.954 24.7173 153.954 24.1579V15.012Z" fill="#E7CDCD"/>
<path d="M168.672 22.0631H171.087L172.113 23.3731L173.46 24.9186L175.53 27.4722H172.826L171.377 25.7396L170.52 24.508L168.672 22.0631ZM175.615 20.3244C175.615 21.6848 175.353 22.8378 174.83 23.7836C174.307 24.7294 173.599 25.4478 172.705 25.9388C171.816 26.4298 170.818 26.6753 169.711 26.6753C168.6 26.6753 167.6 26.4278 166.71 25.9328C165.821 25.4377 165.115 24.7193 164.591 23.7776C164.072 22.8318 163.813 21.6807 163.813 20.3244C163.813 18.9641 164.072 17.8111 164.591 16.8653C165.115 15.9195 165.821 15.2011 166.71 14.7101C167.6 14.2191 168.6 13.9736 169.711 13.9736C170.818 13.9736 171.816 14.2191 172.705 14.7101C173.599 15.2011 174.307 15.9195 174.83 16.8653C175.353 17.8111 175.615 18.9641 175.615 20.3244ZM172.56 20.3244C172.56 19.5195 172.445 18.8394 172.216 18.284C171.991 17.7286 171.665 17.308 171.238 17.0222C170.816 16.7365 170.306 16.5936 169.711 16.5936C169.119 16.5936 168.61 16.7365 168.183 17.0222C167.757 17.308 167.429 17.7286 167.199 18.284C166.974 18.8394 166.861 19.5195 166.861 20.3244C166.861 21.1294 166.974 21.8095 167.199 22.3649C167.429 22.9203 167.757 23.3409 168.183 23.6267C168.61 23.9124 169.119 24.0553 169.711 24.0553C170.306 24.0553 170.816 23.9124 171.238 23.6267C171.665 23.3409 171.991 22.9203 172.216 22.3649C172.445 21.8095 172.56 21.1294 172.56 20.3244ZM183.359 22.5038V17.2335H186.305V26.5063H183.492V24.7797H183.395C183.19 25.3472 182.84 25.7979 182.345 26.132C181.854 26.462 181.26 26.627 180.564 26.627C179.932 26.627 179.376 26.4821 178.897 26.1923C178.419 25.9026 178.046 25.4981 177.781 24.9789C177.515 24.4557 177.38 23.844 177.376 23.1437V17.2335H180.328V22.5642C180.332 23.0672 180.465 23.4637 180.727 23.7534C180.988 24.0432 181.344 24.1881 181.795 24.1881C182.089 24.1881 182.353 24.1237 182.586 23.9949C182.823 23.8621 183.011 23.6709 183.147 23.4214C183.288 23.1678 183.359 22.862 183.359 22.5038ZM188.184 26.5063V17.2335H191.136V26.5063H188.184ZM189.663 16.1529C189.248 16.1529 188.892 16.0161 188.594 15.7424C188.296 15.4647 188.148 15.1307 188.148 14.7403C188.148 14.3539 188.296 14.0239 188.594 13.7502C188.892 13.4725 189.248 13.3337 189.663 13.3337C190.081 13.3337 190.438 13.4725 190.731 13.7502C191.029 14.0239 191.178 14.3539 191.178 14.7403C191.178 15.1307 191.029 15.4647 190.731 15.7424C190.438 16.0161 190.081 16.1529 189.663 16.1529ZM195.967 14.1426V26.5063H193.015V14.1426H195.967ZM203.08 17.2335V19.4068H197.23V17.2335H203.08ZM198.456 15.012H201.408V23.5904C201.408 23.7715 201.436 23.9184 201.492 24.0311C201.553 24.1398 201.639 24.2183 201.752 24.2666C201.864 24.3108 201.999 24.333 202.156 24.333C202.269 24.333 202.388 24.3229 202.512 24.3028C202.641 24.2786 202.738 24.2585 202.802 24.2424L203.249 26.3735C203.108 26.4137 202.909 26.464 202.651 26.5244C202.398 26.5847 202.094 26.623 201.74 26.6391C201.047 26.6713 200.454 26.5908 199.959 26.3976C199.468 26.2004 199.091 25.8945 198.83 25.48C198.572 25.0655 198.448 24.5443 198.456 23.9164V15.012Z" fill="url(#paint2_linear_28_3106)"/>
</g>
</g>
<rect x="1.07973" y="1.077" width="209.858" height="37.8585" rx="6.92857" stroke="white" stroke-opacity="0.15" stroke-width="2.14286"/>
<defs>
<filter id="filter0_d_28_3106" x="2.40802" y="0.405289" width="40.6083" height="41.3036" filterUnits="userSpaceOnUse" color-interpolation-filters="sRGB">
<feFlood flood-opacity="0" result="BackgroundImageFix"/>
<feColorMatrix in="SourceAlpha" type="matrix" values="0 0 0 0 0 0 0 0 0 0 0 0 0 0 0 0 0 0 127 0" result="hardAlpha"/>
<feOffset/>
<feGaussianBlur stdDeviation="2.80014"/>
<feComposite in2="hardAlpha" operator="out"/>
<feColorMatrix type="matrix" values="0 0 0 0 0 0 0 0 0 0 0 0 0 0 0 0 0 0 0.25 0"/>
<feBlend mode="normal" in2="BackgroundImageFix" result="effect1_dropShadow_28_3106"/>
<feBlend mode="normal" in="SourceGraphic" in2="effect1_dropShadow_28_3106" result="shape"/>
</filter>
<filter id="filter1_d_28_3106" x="38.2955" y="3.79199" width="171.429" height="32.4286" filterUnits="userSpaceOnUse" color-interpolation-filters="sRGB">
<feFlood flood-opacity="0" result="BackgroundImageFix"/>
<feColorMatrix in="SourceAlpha" type="matrix" values="0 0 0 0 0 0 0 0 0 0 0 0 0 0 0 0 0 0 127 0" result="hardAlpha"/>
<feOffset/>
<feGaussianBlur stdDeviation="2.85714"/>
<feComposite in2="hardAlpha" operator="out"/>
<feColorMatrix type="matrix" values="0 0 0 0 0 0 0 0 0 0 0 0 0 0 0 0 0 0 0.25 0"/>
<feBlend mode="normal" in2="BackgroundImageFix" result="effect1_dropShadow_28_3106"/>
<feBlend mode="normal" in="SourceGraphic" in2="effect1_dropShadow_28_3106" result="shape"/>
</filter>
<linearGradient id="paint0_linear_28_3106" x1="106.009" y1="0.00556946" x2="106.009" y2="40.007" gradientUnits="userSpaceOnUse">
<stop stop-color="#2C1B1B"/>
<stop offset="1" stop-color="#1F1414"/>
</linearGradient>
<linearGradient id="paint1_linear_28_3106" x1="26.9136" y1="17.2062" x2="26.9136" y2="34.0085" gradientUnits="userSpaceOnUse">
<stop stop-color="#FF0000"/>
<stop offset="1" stop-color="#CC0000"/>
</linearGradient>
<linearGradient id="paint2_linear_28_3106" x1="163.01" y1="9.50637" x2="204.01" y2="9.50637" gradientUnits="userSpaceOnUse">
<stop stop-color="#E17BE1"/>
<stop offset="1" stop-color="#98A1FF"/>
</linearGradient>
<clipPath id="clip0_28_3106">
<rect x="0.00830078" y="0.00556946" width="212.001" height="40.0014" rx="8" fill="white"/>
</clipPath>
</defs>
</svg>
