<svg width="137" height="28" viewBox="0 0 137 28" fill="none" xmlns="http://www.w3.org/2000/svg">
<g clip-path="url(#clip0_28_3121)">
<rect x="0.499023" y="-1.52588e-05" width="136.5" height="28" rx="6" fill="url(#paint0_linear_28_3121)"/>
<g filter="url(#filter0_d_28_3121)">
<path d="M15.999 4.28866C16.3084 4.11003 16.6896 4.11003 16.999 4.28866L24.6593 8.71131C24.9687 8.88994 25.1593 9.22007 25.1593 9.57733V18.4226C25.1593 18.7799 24.9687 19.11 24.6593 19.2887L16.999 23.7113C16.6896 23.8899 16.3084 23.8899 15.999 23.7113L8.33877 19.2887C8.02937 19.11 7.83877 18.7799 7.83877 18.4226V9.57734C7.83877 9.22007 8.02937 8.88994 8.33877 8.71131L15.999 4.28866Z" fill="url(#paint1_linear_28_3121)"/>
</g>
<g filter="url(#filter1_d_28_3121)">
<path d="M34.9443 18.5L32.7256 10.5H33.9951L35.5537 16.6953H35.6279L37.249 10.5H38.5068L40.1279 16.6992H40.2021L41.7568 10.5H43.0303L40.8076 18.5H39.5928L37.9092 12.5078H37.8467L36.1631 18.5H34.9443ZM45.9736 18.6211C45.4111 18.6211 44.9202 18.4922 44.501 18.2344C44.0817 17.9765 43.7562 17.6159 43.5244 17.1523C43.2926 16.6888 43.1768 16.1471 43.1768 15.5273C43.1768 14.9049 43.2926 14.3607 43.5244 13.8945C43.7562 13.4284 44.0817 13.0664 44.501 12.8086C44.9202 12.5508 45.4111 12.4219 45.9736 12.4219C46.5361 12.4219 47.027 12.5508 47.4463 12.8086C47.8656 13.0664 48.1911 13.4284 48.4228 13.8945C48.6546 14.3607 48.7705 14.9049 48.7705 15.5273C48.7705 16.1471 48.6546 16.6888 48.4228 17.1523C48.1911 17.6159 47.8656 17.9765 47.4463 18.2344C47.027 18.4922 46.5361 18.6211 45.9736 18.6211ZM45.9775 17.6406C46.3421 17.6406 46.6442 17.5443 46.8838 17.3515C47.1234 17.1588 47.3005 16.9023 47.415 16.582C47.5322 16.2617 47.5908 15.9088 47.5908 15.5234C47.5908 15.1406 47.5322 14.789 47.415 14.4687C47.3005 14.1458 47.1234 13.8867 46.8838 13.6914C46.6442 13.4961 46.3421 13.3984 45.9775 13.3984C45.6103 13.3984 45.3057 13.4961 45.0635 13.6914C44.8239 13.8867 44.6455 14.1458 44.5283 14.4687C44.4137 14.789 44.3564 15.1406 44.3564 15.5234C44.3564 15.9088 44.4137 16.2617 44.5283 16.582C44.6455 16.9023 44.8239 17.1588 45.0635 17.3515C45.3057 17.5443 45.6103 17.6406 45.9775 17.6406ZM51.2422 14.9375V18.5H50.0742V12.5H51.1953V13.4765H51.2695C51.4075 13.1588 51.6237 12.9036 51.918 12.7109C52.2148 12.5182 52.5885 12.4219 53.0391 12.4219C53.4479 12.4219 53.806 12.5078 54.1133 12.6797C54.4206 12.8489 54.6588 13.1015 54.8281 13.4375C54.9974 13.7734 55.082 14.1888 55.082 14.6836V18.5H53.9141V14.8242C53.9141 14.3893 53.8008 14.0495 53.5742 13.8047C53.3477 13.5573 53.0365 13.4336 52.6406 13.4336C52.3698 13.4336 52.1289 13.4922 51.918 13.6094C51.7096 13.7265 51.5443 13.8984 51.4219 14.125C51.3021 14.3489 51.2422 14.6198 51.2422 14.9375ZM57.6523 10.5V11.25C57.6523 11.4713 57.6107 11.7044 57.5273 11.9492C57.4466 12.1914 57.332 12.4245 57.1836 12.6484C57.0351 12.8724 56.8607 13.0651 56.6601 13.2265L56.082 12.8125C56.2357 12.5885 56.3685 12.3502 56.4805 12.0976C56.595 11.845 56.6523 11.5664 56.6523 11.2617V10.5H57.6523ZM61.8125 12.5V13.4375H58.5351V12.5H61.8125ZM59.4141 11.0625H60.582V16.7383C60.582 16.9648 60.6159 17.1354 60.6836 17.25C60.7513 17.362 60.8385 17.4388 60.9453 17.4805C61.0547 17.5195 61.1732 17.539 61.3008 17.539C61.3945 17.539 61.4766 17.5325 61.5469 17.5195C61.6172 17.5065 61.6719 17.4961 61.7109 17.4883L61.9219 18.4531C61.8542 18.4791 61.7578 18.5052 61.6328 18.5312C61.5078 18.5599 61.3516 18.5755 61.1641 18.5781C60.8568 18.5833 60.5703 18.5286 60.3047 18.414C60.0391 18.2995 59.8242 18.1224 59.6601 17.8828C59.4961 17.6432 59.4141 17.3424 59.4141 16.9805V11.0625ZM70.5117 13.9648L69.4531 14.1523C69.4088 14.0169 69.3385 13.888 69.2422 13.7656C69.1484 13.6432 69.0208 13.543 68.8594 13.4648C68.6979 13.3867 68.4961 13.3476 68.2539 13.3476C67.9232 13.3476 67.6471 13.4219 67.4258 13.5703C67.2044 13.7161 67.0937 13.9049 67.0937 14.1367C67.0937 14.3372 67.168 14.4987 67.3164 14.6211C67.4648 14.7435 67.7044 14.8437 68.0351 14.9219L68.9883 15.1406C69.5404 15.2682 69.9518 15.4648 70.2226 15.7305C70.4935 15.9961 70.6289 16.3411 70.6289 16.7656C70.6289 17.125 70.5247 17.4453 70.3164 17.7265C70.1107 18.0052 69.8229 18.2239 69.4531 18.3828C69.0859 18.5416 68.6601 18.6211 68.1758 18.6211C67.5039 18.6211 66.9557 18.4778 66.5312 18.1914C66.1068 17.9023 65.8463 17.4922 65.75 16.9609L66.8789 16.789C66.9492 17.0833 67.0937 17.306 67.3125 17.457C67.5312 17.6055 67.8164 17.6797 68.168 17.6797C68.5508 17.6797 68.8568 17.6002 69.0859 17.4414C69.3151 17.2799 69.4297 17.0833 69.4297 16.8515C69.4297 16.664 69.3594 16.5065 69.2187 16.3789C69.0807 16.2513 68.8685 16.1549 68.582 16.0898L67.5664 15.8672C67.0065 15.7396 66.5924 15.5364 66.3242 15.2578C66.0586 14.9791 65.9258 14.6263 65.9258 14.1992C65.9258 13.845 66.0247 13.5351 66.2226 13.2695C66.4206 13.0039 66.694 12.7969 67.043 12.6484C67.3919 12.4974 67.7917 12.4219 68.2422 12.4219C68.8906 12.4219 69.401 12.5625 69.7734 12.8437C70.1458 13.1224 70.3919 13.4961 70.5117 13.9648ZM75.7139 16.0117V12.5H76.8857V18.5H75.7373V17.4609H75.6748C75.5368 17.7812 75.3154 18.0482 75.0107 18.2617C74.7086 18.4726 74.3323 18.5781 73.8818 18.5781C73.4964 18.5781 73.1553 18.4935 72.8584 18.3242C72.5641 18.1523 72.3323 17.8984 72.1631 17.5625C71.9964 17.2265 71.9131 16.8112 71.9131 16.3164V12.5H73.081V16.1758C73.081 16.5846 73.1943 16.9101 73.4209 17.1523C73.6474 17.3945 73.9417 17.5156 74.3037 17.5156C74.5224 17.5156 74.7399 17.4609 74.956 17.3515C75.1748 17.2422 75.3558 17.0768 75.499 16.8555C75.6448 16.6341 75.7165 16.3528 75.7139 16.0117ZM78.4551 20.75V12.5H79.5957V13.4726H79.6933C79.7611 13.3476 79.8587 13.2031 79.9863 13.039C80.1139 12.875 80.291 12.7318 80.5176 12.6094C80.7441 12.4844 81.0436 12.4219 81.416 12.4219C81.9004 12.4219 82.3327 12.5443 82.7129 12.789C83.0931 13.0338 83.3913 13.3867 83.6074 13.8476C83.8262 14.3086 83.9355 14.8633 83.9355 15.5117C83.9355 16.1601 83.8275 16.7161 83.6113 17.1797C83.3952 17.6406 83.0983 17.9961 82.7207 18.2461C82.3431 18.4935 81.9121 18.6172 81.4277 18.6172C81.0631 18.6172 80.765 18.556 80.5332 18.4336C80.304 18.3112 80.1243 18.168 79.9941 18.0039C79.8639 17.8398 79.7637 17.694 79.6933 17.5664H79.623V20.75H78.4551ZM79.5996 15.5C79.5996 15.9219 79.6608 16.2916 79.7832 16.6094C79.9056 16.9271 80.0827 17.1758 80.3144 17.3555C80.5462 17.5325 80.8301 17.6211 81.166 17.6211C81.515 17.6211 81.8066 17.5286 82.041 17.3437C82.2754 17.1562 82.4525 16.9023 82.5723 16.582C82.6946 16.2617 82.7558 15.901 82.7558 15.5C82.7558 15.1041 82.6959 14.7487 82.5762 14.4336C82.459 14.1185 82.2819 13.8698 82.0449 13.6875C81.8105 13.5052 81.5176 13.414 81.166 13.414C80.8275 13.414 80.541 13.5013 80.3066 13.6758C80.0749 13.8502 79.8991 14.0937 79.7793 14.4062C79.6595 14.7187 79.5996 15.0833 79.5996 15.5ZM85.2441 20.75V12.5H86.3847V13.4726H86.4824C86.5501 13.3476 86.6478 13.2031 86.7754 13.039C86.903 12.875 87.0801 12.7318 87.3066 12.6094C87.5332 12.4844 87.8327 12.4219 88.2051 12.4219C88.6894 12.4219 89.1217 12.5443 89.5019 12.789C89.8821 13.0338 90.1803 13.3867 90.3965 13.8476C90.6152 14.3086 90.7246 14.8633 90.7246 15.5117C90.7246 16.1601 90.6165 16.7161 90.4004 17.1797C90.1842 17.6406 89.8874 17.9961 89.5097 18.2461C89.1321 18.4935 88.7012 18.6172 88.2168 18.6172C87.8522 18.6172 87.554 18.556 87.3222 18.4336C87.0931 18.3112 86.9134 18.168 86.7832 18.0039C86.653 17.8398 86.5527 17.694 86.4824 17.5664H86.4121V20.75H85.2441ZM86.3887 15.5C86.3887 15.9219 86.4499 16.2916 86.5722 16.6094C86.6946 16.9271 86.8717 17.1758 87.1035 17.3555C87.3353 17.5325 87.6191 17.6211 87.9551 17.6211C88.304 17.6211 88.5957 17.5286 88.8301 17.3437C89.0644 17.1562 89.2415 16.9023 89.3613 16.582C89.4837 16.2617 89.5449 15.901 89.5449 15.5C89.5449 15.1041 89.485 14.7487 89.3652 14.4336C89.248 14.1185 89.0709 13.8698 88.834 13.6875C88.5996 13.5052 88.3066 13.414 87.9551 13.414C87.6165 13.414 87.3301 13.5013 87.0957 13.6758C86.8639 13.8502 86.6881 14.0937 86.5683 14.4062C86.4486 14.7187 86.3887 15.0833 86.3887 15.5ZM94.5605 18.6211C93.998 18.6211 93.5071 18.4922 93.0879 18.2344C92.6686 17.9765 92.3431 17.6159 92.1113 17.1523C91.8795 16.6888 91.7637 16.1471 91.7637 15.5273C91.7637 14.9049 91.8795 14.3607 92.1113 13.8945C92.3431 13.4284 92.6686 13.0664 93.0879 12.8086C93.5071 12.5508 93.998 12.4219 94.5605 12.4219C95.123 12.4219 95.6139 12.5508 96.0332 12.8086C96.4525 13.0664 96.778 13.4284 97.0097 13.8945C97.2415 14.3607 97.3574 14.9049 97.3574 15.5273C97.3574 16.1471 97.2415 16.6888 97.0097 17.1523C96.778 17.6159 96.4525 17.9765 96.0332 18.2344C95.6139 18.4922 95.123 18.6211 94.5605 18.6211ZM94.5644 17.6406C94.929 17.6406 95.2311 17.5443 95.4707 17.3515C95.7103 17.1588 95.8874 16.9023 96.0019 16.582C96.1191 16.2617 96.1777 15.9088 96.1777 15.5234C96.1777 15.1406 96.1191 14.789 96.0019 14.4687C95.8874 14.1458 95.7103 13.8867 95.4707 13.6914C95.2311 13.4961 94.929 13.3984 94.5644 13.3984C94.1972 13.3984 93.8926 13.4961 93.6504 13.6914C93.4108 13.8867 93.2324 14.1458 93.1152 14.4687C93.0006 14.789 92.9433 15.1406 92.9433 15.5234C92.9433 15.9088 93.0006 16.2617 93.1152 16.582C93.2324 16.9023 93.4108 17.1588 93.6504 17.3515C93.8926 17.5443 94.1972 17.6406 94.5644 17.6406ZM98.6611 18.5V12.5H99.79V13.4531H99.8525C99.9619 13.1302 100.155 12.8763 100.431 12.6914C100.709 12.5039 101.024 12.4101 101.376 12.4101C101.449 12.4101 101.535 12.4127 101.634 12.418C101.735 12.4232 101.815 12.4297 101.872 12.4375V13.5547C101.825 13.5416 101.742 13.5273 101.622 13.5117C101.502 13.4935 101.382 13.4844 101.263 13.4844C100.987 13.4844 100.741 13.543 100.524 13.6601C100.311 13.7747 100.142 13.9349 100.017 14.1406C99.8916 14.3437 99.8291 14.5755 99.8291 14.8359V18.5H98.6611ZM106.038 12.5V13.4375H102.761V12.5H106.038ZM103.64 11.0625H104.808V16.7383C104.808 16.9648 104.841 17.1354 104.909 17.25C104.977 17.362 105.064 17.4388 105.171 17.4805C105.28 17.5195 105.399 17.539 105.526 17.539C105.62 17.539 105.702 17.5325 105.772 17.5195C105.843 17.5065 105.897 17.4961 105.937 17.4883L106.147 18.4531C106.08 18.4791 105.983 18.5052 105.858 18.5312C105.733 18.5599 105.577 18.5755 105.39 18.5781C105.082 18.5833 104.796 18.5286 104.53 18.414C104.265 18.2995 104.05 18.1224 103.886 17.8828C103.722 17.6432 103.64 17.3424 103.64 16.9805V11.0625Z" fill="#E8E8E8"/>
<path d="M110.66 18.5V9.77271H114.265C114.918 9.77271 115.482 9.89061 115.956 10.1264C116.434 10.3594 116.802 10.6946 117.06 11.1321C117.319 11.5667 117.448 12.0824 117.448 12.679C117.448 13.2841 117.316 13.7983 117.052 14.2216C116.787 14.642 116.412 14.9631 115.927 15.1846C115.441 15.4034 114.865 15.5128 114.201 15.5128H111.921V13.8508H113.809C114.127 13.8508 114.392 13.8096 114.606 13.7273C114.821 13.642 114.985 13.5142 115.096 13.3437C115.206 13.1704 115.262 12.9488 115.262 12.679C115.262 12.4091 115.206 12.1861 115.096 12.0099C114.985 11.8309 114.821 11.6974 114.606 11.6094C114.39 11.5184 114.124 11.473 113.809 11.473H112.769V18.5H110.66ZM115.573 14.5113L117.746 18.5H115.445L113.314 14.5113H115.573ZM118.605 18.5V11.9545H120.689V18.5H118.605ZM119.649 11.1917C119.356 11.1917 119.105 11.0952 118.895 10.902C118.684 10.7059 118.579 10.4702 118.579 10.1946C118.579 9.92186 118.684 9.6889 118.895 9.49572C119.105 9.2997 119.356 9.20169 119.649 9.20169C119.944 9.20169 120.196 9.2997 120.403 9.49572C120.613 9.6889 120.718 9.92186 120.718 10.1946C120.718 10.4702 120.613 10.7059 120.403 10.902C120.196 11.0952 119.944 11.1917 119.649 11.1917ZM125.735 11.9545V13.4886H121.525V11.9545H125.735ZM122.403 18.5V11.6221C122.403 11.1165 122.498 10.6974 122.688 10.365C122.879 10.0298 123.143 9.77981 123.481 9.61504C123.819 9.44743 124.21 9.36362 124.653 9.36362C124.943 9.36362 125.215 9.38635 125.471 9.4318C125.729 9.47442 125.921 9.51277 126.046 9.54686L125.714 11.0724C125.637 11.0469 125.543 11.0256 125.433 11.0085C125.325 10.9915 125.222 10.9829 125.126 10.9829C124.881 10.9829 124.714 11.0369 124.623 11.1449C124.532 11.2528 124.487 11.4006 124.487 11.5881V18.5H122.403ZM130.432 11.9545V13.4886H126.303V11.9545H130.432ZM127.168 10.3863H129.252V16.4417C129.252 16.5696 129.272 16.6733 129.312 16.7528C129.354 16.8295 129.415 16.8849 129.495 16.919C129.574 16.9503 129.669 16.9659 129.78 16.9659C129.86 16.9659 129.944 16.9588 130.032 16.9446C130.123 16.9275 130.191 16.9133 130.236 16.902L130.552 18.4062C130.452 18.4346 130.312 18.4702 130.13 18.5128C129.951 18.5554 129.736 18.5824 129.486 18.5937C128.998 18.6165 128.579 18.5596 128.229 18.4233C127.883 18.2841 127.617 18.0682 127.432 17.7755C127.25 17.4829 127.162 17.115 127.168 16.6719V10.3863Z" fill="url(#paint2_linear_28_3121)"/>
</g>
</g>
<rect x="1.24902" y="0.749985" width="135" height="26.5" rx="5.25" stroke="white" stroke-opacity="0.15" stroke-width="1.5"/>
<defs>
<filter id="filter0_d_28_3121" x="2.49902" y="-1.52588e-05" width="28" height="28" filterUnits="userSpaceOnUse" color-interpolation-filters="sRGB">
<feFlood flood-opacity="0" result="BackgroundImageFix"/>
<feColorMatrix in="SourceAlpha" type="matrix" values="0 0 0 0 0 0 0 0 0 0 0 0 0 0 0 0 0 0 127 0" result="hardAlpha"/>
<feOffset/>
<feGaussianBlur stdDeviation="2"/>
<feComposite in2="hardAlpha" operator="out"/>
<feColorMatrix type="matrix" values="0 0 0 0 0 0 0 0 0 0 0 0 0 0 0 0 0 0 0.25 0"/>
<feBlend mode="normal" in2="BackgroundImageFix" result="effect1_dropShadow_28_3121"/>
<feBlend mode="normal" in="SourceGraphic" in2="effect1_dropShadow_28_3121" result="shape"/>
</filter>
<filter id="filter1_d_28_3121" x="28.499" y="3.49998" width="106.5" height="21.25" filterUnits="userSpaceOnUse" color-interpolation-filters="sRGB">
<feFlood flood-opacity="0" result="BackgroundImageFix"/>
<feColorMatrix in="SourceAlpha" type="matrix" values="0 0 0 0 0 0 0 0 0 0 0 0 0 0 0 0 0 0 127 0" result="hardAlpha"/>
<feOffset/>
<feGaussianBlur stdDeviation="2"/>
<feComposite in2="hardAlpha" operator="out"/>
<feColorMatrix type="matrix" values="0 0 0 0 0 0 0 0 0 0 0 0 0 0 0 0 0 0 0.25 0"/>
<feBlend mode="normal" in2="BackgroundImageFix" result="effect1_dropShadow_28_3121"/>
<feBlend mode="normal" in="SourceGraphic" in2="effect1_dropShadow_28_3121" result="shape"/>
</filter>
<linearGradient id="paint0_linear_28_3121" x1="68.749" y1="-1.52588e-05" x2="68.749" y2="28" gradientUnits="userSpaceOnUse">
<stop stop-color="#2C1B1B"/>
<stop offset="1" stop-color="#1F1414"/>
</linearGradient>
<linearGradient id="paint1_linear_28_3121" x1="6.49903" y1="4.00003" x2="6.49903" y2="24" gradientUnits="userSpaceOnUse">
<stop stop-color="white"/>
<stop offset="1" stop-color="#B9B9B9"/>
</linearGradient>
<linearGradient id="paint2_linear_28_3121" x1="120.499" y1="7.49998" x2="120.499" y2="20.5" gradientUnits="userSpaceOnUse">
<stop stop-color="white"/>
<stop offset="1" stop-color="#B9B9B9"/>
</linearGradient>
<clipPath id="clip0_28_3121">
<rect x="0.499023" y="-1.52588e-05" width="136.5" height="28" rx="6" fill="white"/>
</clipPath>
</defs>
</svg>
