<svg width="199" height="40" viewBox="0 0 199 40" fill="none" xmlns="http://www.w3.org/2000/svg">
<g clip-path="url(#clip0_28_3121)">
<rect width="199.001" height="40.0014" rx="8" fill="url(#paint0_linear_28_3121)"/>
<g filter="url(#filter0_d_28_3121)">
<path d="M21.3007 6.40413C21.7338 6.15404 22.2676 6.15404 22.7007 6.40413L33.4256 12.5962C33.8588 12.8463 34.1257 13.3085 34.1257 13.8087V26.1927C34.1257 26.6929 33.8588 27.1551 33.4256 27.4052L22.7007 33.5972C22.2676 33.8473 21.7338 33.8473 21.3007 33.5972L10.5758 27.4052C10.1426 27.1551 9.87574 26.6929 9.87574 26.1927V13.8087C9.87574 13.3085 10.1426 12.8463 10.5758 12.5962L21.3007 6.40413Z" fill="url(#paint1_linear_28_3121)"/>
<g opacity="0.7">
<mask id="path-4-outside-1_28_3121" maskUnits="userSpaceOnUse" x="15.5029" y="14.2006" width="22" height="22" fill="black">
<rect fill="white" x="15.5029" y="14.2006" width="22" height="22"/>
<path fill-rule="evenodd" clip-rule="evenodd" d="M20.64 17.4056C20.3667 17.1322 19.9234 17.1322 19.6501 17.4056L18.7088 18.3469C18.4354 18.6203 18.4354 19.0636 18.7088 19.337L24.9742 25.6027L18.708 31.8666C18.4346 32.1399 18.4346 32.5831 18.708 32.8564L19.6495 33.7975C19.9229 34.0709 20.3662 34.0709 20.6397 33.7975L26.9054 27.5341L33.1687 33.7978C33.442 34.0712 33.8853 34.0712 34.1586 33.7978L35.0999 32.8565C35.3733 32.5831 35.3733 32.1398 35.0999 31.8665L28.837 25.6032L35.1027 19.3398C35.3761 19.0665 35.3761 18.6233 35.1027 18.35L34.1612 17.4089C33.8878 17.1355 33.4445 17.1355 33.171 17.4089L26.9058 23.6718L20.64 17.4056Z"/>
</mask>
<path fill-rule="evenodd" clip-rule="evenodd" d="M20.64 17.4056C20.3667 17.1322 19.9234 17.1322 19.6501 17.4056L18.7088 18.3469C18.4354 18.6203 18.4354 19.0636 18.7088 19.337L24.9742 25.6027L18.708 31.8666C18.4346 32.1399 18.4346 32.5831 18.708 32.8564L19.6495 33.7975C19.9229 34.0709 20.3662 34.0709 20.6397 33.7975L26.9054 27.5341L33.1687 33.7978C33.442 34.0712 33.8853 34.0712 34.1586 33.7978L35.0999 32.8565C35.3733 32.5831 35.3733 32.1398 35.0999 31.8665L28.837 25.6032L35.1027 19.3398C35.3761 19.0665 35.3761 18.6233 35.1027 18.35L34.1612 17.4089C33.8878 17.1355 33.4445 17.1355 33.171 17.4089L26.9058 23.6718L20.64 17.4056Z" fill="url(#paint2_linear_28_3121)"/>
<path d="M19.6501 17.4056L18.165 15.9207L18.165 15.9207L19.6501 17.4056ZM20.64 17.4056L19.155 18.8906L19.155 18.8906L20.64 17.4056ZM18.7088 18.3469L17.2238 16.862V16.862L18.7088 18.3469ZM18.7088 19.337L17.2238 20.8219L17.2238 20.8219L18.7088 19.337ZM24.9742 25.6027L26.4589 27.088L27.9444 25.6031L26.4592 24.1178L24.9742 25.6027ZM18.708 31.8666L17.2233 30.3813L17.2233 30.3813L18.708 31.8666ZM18.708 32.8564L17.2233 34.3417L17.2233 34.3417L18.708 32.8564ZM19.6495 33.7975L21.1342 32.3123L21.1342 32.3123L19.6495 33.7975ZM20.6397 33.7975L19.1549 32.3123L19.1549 32.3123L20.6397 33.7975ZM26.9054 27.5341L28.3904 26.0492L26.9057 24.5643L25.4207 26.0488L26.9054 27.5341ZM33.1687 33.7978L31.6836 35.2828H31.6836L33.1687 33.7978ZM34.1586 33.7978L35.6437 35.2828V35.2828L34.1586 33.7978ZM35.0999 32.8565L36.585 34.3414L36.585 34.3414L35.0999 32.8565ZM35.0999 31.8665L33.6149 33.3514H33.6149L35.0999 31.8665ZM28.837 25.6032L27.3523 24.1179L25.8668 25.6028L27.352 27.0881L28.837 25.6032ZM35.1027 19.3398L33.6179 17.8545L33.6179 17.8545L35.1027 19.3398ZM35.1027 18.35L36.5874 16.8647L36.5874 16.8647L35.1027 18.35ZM34.1612 17.4089L35.6459 15.9236V15.9236L34.1612 17.4089ZM33.171 17.4089L31.6863 15.9236V15.9236L33.171 17.4089ZM26.9058 23.6718L25.4208 25.1567L26.9055 26.6416L28.3905 25.1571L26.9058 23.6718ZM21.1351 18.8906C20.5883 19.4374 19.7018 19.4374 19.155 18.8906L22.1251 15.9207C21.0316 14.8271 19.2585 14.8271 18.165 15.9207L21.1351 18.8906ZM20.1938 19.8319L21.1351 18.8906L18.165 15.9207L17.2238 16.862L20.1938 19.8319ZM20.1938 17.852C20.7405 18.3988 20.7406 19.2851 20.1938 19.8319L17.2238 16.862C16.1303 17.9555 16.1303 19.7284 17.2238 20.8219L20.1938 17.852ZM26.4592 24.1178L20.1938 17.852L17.2238 20.8219L23.4891 27.0877L26.4592 24.1178ZM20.1927 33.3519L26.4589 27.088L23.4894 24.1175L17.2233 30.3813L20.1927 33.3519ZM20.1927 31.3711C20.7398 31.918 20.7398 32.805 20.1927 33.3519L17.2233 30.3813C16.1293 31.4749 16.1293 33.2482 17.2233 34.3417L20.1927 31.3711ZM21.1342 32.3123L20.1927 31.3711L17.2233 34.3417L18.1647 35.2828L21.1342 32.3123ZM19.1549 32.3123C19.7016 31.7658 20.5875 31.7658 21.1342 32.3123L18.1647 35.2828C19.2583 36.3759 21.0309 36.3759 22.1244 35.2828L19.1549 32.3123ZM25.4207 26.0488L19.1549 32.3123L22.1244 35.2828L28.3901 29.0194L25.4207 26.0488ZM34.6537 32.3129L28.3904 26.0492L25.4203 29.0191L31.6836 35.2828L34.6537 32.3129ZM32.6736 32.3129C33.2204 31.7661 34.1069 31.7661 34.6537 32.3129L31.6836 35.2828C32.7772 36.3764 34.5502 36.3764 35.6437 35.2828L32.6736 32.3129ZM33.6149 31.3715L32.6736 32.3129L35.6437 35.2828L36.585 34.3414L33.6149 31.3715ZM33.6149 33.3514C33.0682 32.8047 33.0682 31.9183 33.6149 31.3715L36.585 34.3414C37.6784 33.2479 37.6784 31.475 36.585 30.3815L33.6149 33.3514ZM27.352 27.0881L33.6149 33.3514L36.585 30.3815L30.3221 24.1182L27.352 27.0881ZM33.6179 17.8545L27.3523 24.1179L30.3218 27.0884L36.5874 20.8251L33.6179 17.8545ZM33.6179 19.8353C33.0709 19.2884 33.0709 18.4014 33.6179 17.8545L36.5874 20.8251C37.6813 19.7315 37.6813 17.9583 36.5874 16.8647L33.6179 19.8353ZM32.6765 18.8941L33.6179 19.8353L36.5874 16.8647L35.6459 15.9236L32.6765 18.8941ZM34.6557 18.8941C34.1091 19.4406 33.2231 19.4406 32.6765 18.8941L35.6459 15.9236C34.5524 14.8305 32.7798 14.8305 31.6863 15.9236L34.6557 18.8941ZM28.3905 25.1571L34.6557 18.8941L31.6863 15.9236L25.4211 22.1865L28.3905 25.1571ZM19.155 18.8906L25.4208 25.1567L28.3909 22.1869L22.1251 15.9207L19.155 18.8906Z" fill="black" mask="url(#path-4-outside-1_28_3121)"/>
</g>
</g>
<g filter="url(#filter1_d_28_3121)">
<path d="M45.7806 26.5007L42.3516 14.1371H44.3136L46.7223 23.7116H46.837L49.3424 14.1371H51.2863L53.7916 23.7177H53.9063L56.309 14.1371H58.277L54.842 26.5007H52.9645L50.3626 17.24H50.266L47.6641 26.5007H45.7806ZM62.8259 26.6878C61.9565 26.6878 61.1979 26.4886 60.5499 26.0902C59.902 25.6917 59.3989 25.1343 59.0407 24.418C58.6825 23.7016 58.5034 22.8645 58.5034 21.9066C58.5034 20.9447 58.6825 20.1036 59.0407 19.3832C59.3989 18.6627 59.902 18.1033 60.5499 17.7049C61.1979 17.3065 61.9565 17.1072 62.8259 17.1072C63.6952 17.1072 64.4538 17.3065 65.1018 17.7049C65.7497 18.1033 66.2528 18.6627 66.611 19.3832C66.9692 20.1036 67.1483 20.9447 67.1483 21.9066C67.1483 22.8645 66.9692 23.7016 66.611 24.418C66.2528 25.1343 65.7497 25.6917 65.1018 26.0902C64.4538 26.4886 63.6952 26.6878 62.8259 26.6878ZM62.8319 25.1726C63.3953 25.1726 63.8622 25.0237 64.2325 24.7258C64.6027 24.428 64.8764 24.0316 65.0535 23.5366C65.2346 23.0415 65.3251 22.4962 65.3251 21.9006C65.3251 21.3089 65.2346 20.7656 65.0535 20.2706C64.8764 19.7715 64.6027 19.3711 64.2325 19.0692C63.8622 18.7674 63.3953 18.6165 62.8319 18.6165C62.2644 18.6165 61.7935 18.7674 61.4193 19.0692C61.049 19.3711 60.7733 19.7715 60.5922 20.2706C60.4151 20.7656 60.3266 21.3089 60.3266 21.9006C60.3266 22.4962 60.4151 23.0415 60.5922 23.5366C60.7733 24.0316 61.049 24.428 61.4193 24.7258C61.7935 25.0237 62.2644 25.1726 62.8319 25.1726ZM70.9682 20.995V26.5007H69.1631V17.228H70.8957V18.7372H71.0104C71.2237 18.2462 71.5578 17.8518 72.0126 17.554C72.4714 17.2561 73.0489 17.1072 73.7452 17.1072C74.377 17.1072 74.9304 17.24 75.4053 17.5057C75.8802 17.7673 76.2485 18.1577 76.5101 18.6768C76.7717 19.196 76.9025 19.8379 76.9025 20.6026V26.5007H75.0974V20.8199C75.0974 20.1478 74.9224 19.6226 74.5722 19.2443C74.2221 18.862 73.7411 18.6708 73.1294 18.6708C72.7108 18.6708 72.3385 18.7614 72.0126 18.9425C71.6906 19.1236 71.435 19.3892 71.2459 19.7393C71.0607 20.0855 70.9682 20.504 70.9682 20.995ZM80.8748 14.1371V15.2962C80.8748 15.6382 80.8104 15.9985 80.6816 16.3768C80.5568 16.7511 80.3797 17.1113 80.1503 17.4574C79.9209 17.8035 79.6513 18.1013 79.3414 18.3508L78.4479 17.7109C78.6854 17.3648 78.8906 16.9966 79.0637 16.6062C79.2408 16.2158 79.3293 15.7851 79.3293 15.3143V14.1371H80.8748ZM87.3041 17.228V18.6768H82.2391V17.228H87.3041ZM83.5974 15.0064H85.4025V23.778C85.4025 24.1282 85.4548 24.3918 85.5594 24.5689C85.6641 24.7419 85.7989 24.8607 85.9639 24.9251C86.1329 24.9854 86.3161 25.0156 86.5133 25.0156C86.6581 25.0156 86.7849 25.0056 86.8936 24.9854C87.0023 24.9653 87.0868 24.9492 87.1471 24.9371L87.4731 26.4283C87.3685 26.4685 87.2196 26.5087 87.0264 26.549C86.8332 26.5933 86.5917 26.6174 86.302 26.6214C85.8271 26.6295 85.3844 26.545 84.9738 26.3679C84.5633 26.1908 84.2313 25.9171 83.9777 25.5469C83.7242 25.1766 83.5974 24.7118 83.5974 24.1523V15.0064ZM100.748 19.4918L99.1123 19.7816C99.0439 19.5723 98.9352 19.3731 98.7863 19.1839C98.6415 18.9948 98.4442 18.8398 98.1947 18.7191C97.9452 18.5984 97.6333 18.538 97.259 18.538C96.7479 18.538 96.3213 18.6527 95.9792 18.8821C95.6371 19.1075 95.466 19.3993 95.466 19.7574C95.466 20.0673 95.5807 20.3169 95.8101 20.506C96.0395 20.6952 96.4098 20.8501 96.9209 20.9709L98.3939 21.3089C99.2472 21.5061 99.883 21.81 100.302 22.2205C100.72 22.631 100.929 23.1643 100.929 23.8203C100.929 24.3757 100.768 24.8707 100.446 25.3054C100.129 25.736 99.6838 26.0741 99.1123 26.3196C98.5449 26.5651 97.8868 26.6878 97.1383 26.6878C96.0999 26.6878 95.2527 26.4665 94.5967 26.0238C93.9407 25.577 93.5382 24.9432 93.3893 24.1221L95.134 23.8565C95.2427 24.3113 95.466 24.6554 95.8041 24.8888C96.1422 25.1182 96.5829 25.2329 97.1262 25.2329C97.7178 25.2329 98.1907 25.1102 98.5449 24.8647C98.899 24.6152 99.0761 24.3113 99.0761 23.9531C99.0761 23.6633 98.9674 23.4199 98.7501 23.2226C98.5368 23.0254 98.2088 22.8765 97.7661 22.7759L96.1965 22.4318C95.3312 22.2346 94.6913 21.9207 94.2768 21.49C93.8662 21.0594 93.661 20.5141 93.661 19.854C93.661 19.3067 93.8139 18.8278 94.1198 18.4172C94.4257 18.0067 94.8482 17.6868 95.3875 17.4574C95.9268 17.2239 96.5446 17.1072 97.2409 17.1072C98.243 17.1072 99.0318 17.3246 99.6074 17.7592C100.183 18.1899 100.563 18.7674 100.748 19.4918ZM108.788 22.6552V17.228H110.599V26.5007H108.824V24.8949H108.728C108.514 25.3899 108.172 25.8024 107.701 26.1324C107.235 26.4584 106.653 26.6214 105.957 26.6214C105.361 26.6214 104.834 26.4906 104.375 26.229C103.92 25.9634 103.562 25.571 103.3 25.0518C103.043 24.5327 102.914 23.8907 102.914 23.1261V17.228H104.719V22.9087C104.719 23.5406 104.894 24.0437 105.244 24.418C105.594 24.7922 106.049 24.9794 106.609 24.9794C106.947 24.9794 107.283 24.8949 107.617 24.7258C107.955 24.5568 108.235 24.3012 108.456 23.9591C108.681 23.6171 108.792 23.1824 108.788 22.6552ZM113.024 29.978V17.228H114.787V18.7312H114.938C115.043 18.538 115.194 18.3146 115.391 18.0611C115.588 17.8075 115.862 17.5862 116.212 17.397C116.562 17.2038 117.025 17.1072 117.6 17.1072C118.349 17.1072 119.017 17.2964 119.605 17.6747C120.192 18.053 120.653 18.5984 120.987 19.3107C121.325 20.0231 121.494 20.8803 121.494 21.8824C121.494 22.8846 121.327 23.7438 120.993 24.4602C120.659 25.1726 120.2 25.7219 119.617 26.1083C119.033 26.4906 118.367 26.6818 117.619 26.6818C117.055 26.6818 116.594 26.5872 116.236 26.3981C115.882 26.2089 115.604 25.9876 115.403 25.734C115.202 25.4805 115.047 25.2551 114.938 25.0579H114.829V29.978H113.024ZM114.793 21.8643C114.793 22.5163 114.888 23.0878 115.077 23.5788C115.266 24.0698 115.54 24.4542 115.898 24.7319C116.256 25.0056 116.695 25.1424 117.214 25.1424C117.753 25.1424 118.204 24.9995 118.566 24.7138C118.929 24.424 119.202 24.0316 119.387 23.5366C119.577 23.0415 119.671 22.4841 119.671 21.8643C119.671 21.2526 119.579 20.7032 119.393 20.2163C119.212 19.7293 118.939 19.3449 118.572 19.0632C118.21 18.7815 117.757 18.6406 117.214 18.6406C116.691 18.6406 116.248 18.7754 115.886 19.0451C115.528 19.3147 115.256 19.691 115.071 20.174C114.886 20.6569 114.793 21.2204 114.793 21.8643ZM123.517 29.978V17.228H125.279V18.7312H125.43C125.535 18.538 125.686 18.3146 125.883 18.0611C126.08 17.8075 126.354 17.5862 126.704 17.397C127.054 17.2038 127.517 17.1072 128.093 17.1072C128.841 17.1072 129.509 17.2964 130.097 17.6747C130.684 18.053 131.145 18.5984 131.479 19.3107C131.817 20.0231 131.986 20.8803 131.986 21.8824C131.986 22.8846 131.819 23.7438 131.485 24.4602C131.151 25.1726 130.693 25.7219 130.109 26.1083C129.525 26.4906 128.859 26.6818 128.111 26.6818C127.547 26.6818 127.086 26.5872 126.728 26.3981C126.374 26.2089 126.096 25.9876 125.895 25.734C125.694 25.4805 125.539 25.2551 125.43 25.0579H125.322V29.978H123.517ZM125.285 21.8643C125.285 22.5163 125.38 23.0878 125.569 23.5788C125.758 24.0698 126.032 24.4542 126.39 24.7319C126.748 25.0056 127.187 25.1424 127.706 25.1424C128.246 25.1424 128.696 24.9995 129.059 24.7138C129.421 24.424 129.694 24.0316 129.88 23.5366C130.069 23.0415 130.163 22.4841 130.163 21.8643C130.163 21.2526 130.071 20.7032 129.886 20.2163C129.704 19.7293 129.431 19.3449 129.065 19.0632C128.702 18.7815 128.25 18.6406 127.706 18.6406C127.183 18.6406 126.74 18.7754 126.378 19.0451C126.02 19.3147 125.748 19.691 125.563 20.174C125.378 20.6569 125.285 21.2204 125.285 21.8643ZM137.915 26.6878C137.045 26.6878 136.287 26.4886 135.639 26.0902C134.991 25.6917 134.488 25.1343 134.13 24.418C133.771 23.7016 133.592 22.8645 133.592 21.9066C133.592 20.9447 133.771 20.1036 134.13 19.3832C134.488 18.6627 134.991 18.1033 135.639 17.7049C136.287 17.3065 137.045 17.1072 137.915 17.1072C138.784 17.1072 139.543 17.3065 140.191 17.7049C140.839 18.1033 141.342 18.6627 141.7 19.3832C142.058 20.1036 142.237 20.9447 142.237 21.9066C142.237 22.8645 142.058 23.7016 141.7 24.418C141.342 25.1343 140.839 25.6917 140.191 26.0902C139.543 26.4886 138.784 26.6878 137.915 26.6878ZM137.921 25.1726C138.484 25.1726 138.951 25.0237 139.321 24.7258C139.692 24.428 139.965 24.0316 140.142 23.5366C140.323 23.0415 140.414 22.4962 140.414 21.9006C140.414 21.3089 140.323 20.7656 140.142 20.2706C139.965 19.7715 139.692 19.3711 139.321 19.0692C138.951 18.7674 138.484 18.6165 137.921 18.6165C137.353 18.6165 136.882 18.7674 136.508 19.0692C136.138 19.3711 135.862 19.7715 135.681 20.2706C135.504 20.7656 135.415 21.3089 135.415 21.9006C135.415 22.4962 135.504 23.0415 135.681 23.5366C135.862 24.0316 136.138 24.428 136.508 24.7258C136.882 25.0237 137.353 25.1726 137.921 25.1726ZM144.252 26.5007V17.228H145.997V18.701H146.093C146.262 18.2019 146.56 17.8095 146.987 17.5238C147.417 17.234 147.904 17.0891 148.448 17.0891C148.56 17.0891 148.693 17.0931 148.846 17.1012C149.003 17.1092 149.126 17.1193 149.214 17.1314V18.8579C149.142 18.8378 149.013 18.8157 148.828 18.7915C148.643 18.7634 148.458 18.7493 148.273 18.7493C147.846 18.7493 147.466 18.8398 147.132 19.0209C146.802 19.198 146.54 19.4455 146.347 19.7635C146.154 20.0774 146.057 20.4356 146.057 20.8381V26.5007H144.252ZM155.653 17.228V18.6768H150.588V17.228H155.653ZM151.946 15.0064H153.751V23.778C153.751 24.1282 153.803 24.3918 153.908 24.5689C154.013 24.7419 154.148 24.8607 154.313 24.9251C154.482 24.9854 154.665 25.0156 154.862 25.0156C155.007 25.0156 155.134 25.0056 155.242 24.9854C155.351 24.9653 155.435 24.9492 155.496 24.9371L155.822 26.4283C155.717 26.4685 155.568 26.5087 155.375 26.549C155.182 26.5933 154.94 26.6174 154.651 26.6214C154.176 26.6295 153.733 26.545 153.322 26.3679C152.912 26.1908 152.58 25.9171 152.326 25.5469C152.073 25.1766 151.946 24.7118 151.946 24.1523V15.0064Z" fill="#E7CDCD"/>
<path d="M161.937 26.5007V14.1371H167.044C167.97 14.1371 168.769 14.3041 169.441 14.6381C170.117 14.9681 170.638 15.4431 171.005 16.0628C171.371 16.6786 171.554 17.4091 171.554 18.2543C171.554 19.1115 171.367 19.84 170.993 20.4396C170.618 21.0353 170.087 21.49 169.399 21.804C168.711 22.1139 167.896 22.2688 166.954 22.2688H163.724V19.9144H166.398C166.849 19.9144 167.226 19.856 167.527 19.7393C167.833 19.6186 168.065 19.4375 168.222 19.196C168.379 18.9505 168.457 18.6366 168.457 18.2543C168.457 17.8719 168.379 17.556 168.222 17.3065C168.065 17.0529 167.833 16.8637 167.527 16.739C167.222 16.6102 166.845 16.5458 166.398 16.5458H164.925V26.5007H161.937ZM168.898 20.8501L171.977 26.5007H168.717L165.698 20.8501H168.898ZM173.193 26.5007V17.228H176.145V26.5007H173.193ZM174.672 16.1474C174.258 16.1474 173.901 16.0105 173.604 15.7369C173.306 15.4592 173.157 15.1251 173.157 14.7347C173.157 14.3484 173.306 14.0183 173.604 13.7447C173.901 13.467 174.258 13.3281 174.672 13.3281C175.091 13.3281 175.447 13.467 175.741 13.7447C176.038 14.0183 176.187 14.3484 176.187 14.7347C176.187 15.1251 176.038 15.4592 175.741 15.7369C175.447 16.0105 175.091 16.1474 174.672 16.1474ZM183.294 17.228V19.4013H177.33V17.228H183.294ZM178.573 26.5007V16.7571C178.573 16.0407 178.708 15.4471 178.978 14.9762C179.248 14.5013 179.622 14.1471 180.101 13.9137C180.58 13.6762 181.133 13.5575 181.761 13.5575C182.171 13.5575 182.558 13.5897 182.92 13.6541C183.286 13.7145 183.558 13.7688 183.735 13.8171L183.264 15.9783C183.155 15.9421 183.023 15.9119 182.866 15.8878C182.713 15.8636 182.568 15.8516 182.431 15.8516C182.085 15.8516 181.847 15.928 181.719 16.081C181.59 16.2339 181.526 16.4432 181.526 16.7088V26.5007H178.573ZM189.949 17.228V19.4013H184.099V17.228H189.949ZM185.324 15.0064H188.276V23.5849C188.276 23.766 188.304 23.9129 188.361 24.0256C188.421 24.1342 188.508 24.2127 188.62 24.261C188.733 24.3053 188.868 24.3274 189.025 24.3274C189.138 24.3274 189.256 24.3173 189.381 24.2972C189.51 24.2731 189.606 24.2529 189.671 24.2368L190.118 26.3679C189.977 26.4081 189.777 26.4584 189.52 26.5188C189.266 26.5792 188.963 26.6174 188.608 26.6335C187.916 26.6657 187.322 26.5852 186.827 26.392C186.336 26.1948 185.96 25.889 185.699 25.4744C185.441 25.0599 185.316 24.5387 185.324 23.9109V15.0064Z" fill="url(#paint3_linear_28_3121)"/>
</g>
</g>
<rect x="1.07143" y="1.07143" width="196.858" height="37.8585" rx="6.92857" stroke="white" stroke-opacity="0.15" stroke-width="2.14286"/>
<defs>
<filter id="filter0_d_28_3121" x="2.39972" y="0.39972" width="40.6083" height="41.3035" filterUnits="userSpaceOnUse" color-interpolation-filters="sRGB">
<feFlood flood-opacity="0" result="BackgroundImageFix"/>
<feColorMatrix in="SourceAlpha" type="matrix" values="0 0 0 0 0 0 0 0 0 0 0 0 0 0 0 0 0 0 127 0" result="hardAlpha"/>
<feOffset/>
<feGaussianBlur stdDeviation="2.80014"/>
<feComposite in2="hardAlpha" operator="out"/>
<feColorMatrix type="matrix" values="0 0 0 0 0 0 0 0 0 0 0 0 0 0 0 0 0 0 0.25 0"/>
<feBlend mode="normal" in2="BackgroundImageFix" result="effect1_dropShadow_28_3121"/>
<feBlend mode="normal" in="SourceGraphic" in2="effect1_dropShadow_28_3121" result="shape"/>
</filter>
<filter id="filter1_d_28_3121" x="36.2872" y="3.78642" width="160.429" height="32.4286" filterUnits="userSpaceOnUse" color-interpolation-filters="sRGB">
<feFlood flood-opacity="0" result="BackgroundImageFix"/>
<feColorMatrix in="SourceAlpha" type="matrix" values="0 0 0 0 0 0 0 0 0 0 0 0 0 0 0 0 0 0 127 0" result="hardAlpha"/>
<feOffset/>
<feGaussianBlur stdDeviation="2.85714"/>
<feComposite in2="hardAlpha" operator="out"/>
<feColorMatrix type="matrix" values="0 0 0 0 0 0 0 0 0 0 0 0 0 0 0 0 0 0 0.25 0"/>
<feBlend mode="normal" in2="BackgroundImageFix" result="effect1_dropShadow_28_3121"/>
<feBlend mode="normal" in="SourceGraphic" in2="effect1_dropShadow_28_3121" result="shape"/>
</filter>
<linearGradient id="paint0_linear_28_3121" x1="99.5007" y1="0" x2="99.5007" y2="40.0014" gradientUnits="userSpaceOnUse">
<stop stop-color="#2C1B1B"/>
<stop offset="1" stop-color="#1F1414"/>
</linearGradient>
<linearGradient id="paint1_linear_28_3121" x1="8" y1="6.00003" x2="8" y2="34.0014" gradientUnits="userSpaceOnUse">
<stop stop-color="white"/>
<stop offset="1" stop-color="#B9B9B9"/>
</linearGradient>
<linearGradient id="paint2_linear_28_3121" x1="26.9053" y1="17.2006" x2="26.9053" y2="34.0029" gradientUnits="userSpaceOnUse">
<stop stop-color="#FF0000"/>
<stop offset="1" stop-color="#CC0000"/>
</linearGradient>
<linearGradient id="paint3_linear_28_3121" x1="176.001" y1="9.5007" x2="176.001" y2="30.5007" gradientUnits="userSpaceOnUse">
<stop stop-color="white"/>
<stop offset="1" stop-color="#B9B9B9"/>
</linearGradient>
<clipPath id="clip0_28_3121">
<rect width="199.001" height="40.0014" rx="8" fill="white"/>
</clipPath>
</defs>
</svg>
