<svg width="162" height="28" viewBox="0 0 162 28" fill="none" xmlns="http://www.w3.org/2000/svg">
<g clip-path="url(#clip0_28_3164)">
<rect x="0.499023" y="-3.05176e-05" width="161.5" height="28" rx="6" fill="url(#paint0_linear_28_3164)"/>
<g filter="url(#filter0_d_28_3164)">
<path d="M25.499 3.99997H7.49902C6.94902 3.99997 6.49902 4.44997 6.49902 4.99997V23C6.49902 23.55 6.94902 24 7.49902 24H9.10902C8.93902 19.43 9.09902 18.75 9.41902 18.3C9.80902 17.74 9.96902 17.67 10.559 17.2C11.059 16.8 10.879 16.15 10.519 15.68C10.299 15.39 9.98902 15.05 9.74902 14.72C9.59902 14.5 9.96902 13.21 10.109 12.74C10.249 12.27 10.489 10.74 12.589 10.33C13.379 10.17 15.549 10.06 17.039 10.15C17.029 10.09 17.009 10.02 16.999 9.94997C16.969 9.82997 16.949 9.69997 16.919 9.55997C16.889 9.42997 16.859 9.28997 16.829 9.14997C16.799 9.00997 16.759 8.86997 16.729 8.71997C16.689 8.56997 16.659 8.42997 16.609 8.27997C16.529 7.97997 16.429 7.68997 16.309 7.40997C16.249 7.26997 16.189 7.13997 16.119 7.01997C16.049 6.90997 15.979 6.80997 15.919 6.76997C15.909 6.75997 15.899 6.74997 15.889 6.74997H15.879H15.899C15.899 6.74997 15.909 6.74997 15.899 6.74997L15.869 6.73997H15.849L15.809 6.72997H15.759C15.629 6.71997 15.489 6.71997 15.339 6.72997C15.049 6.74997 14.739 6.80997 14.439 6.87997C14.139 6.94997 13.849 7.03997 13.569 7.11997C13.449 7.15997 13.339 7.19997 13.229 7.22997C13.239 7.31997 13.249 7.39997 13.249 7.48997C13.249 8.78997 12.199 9.83997 10.899 9.83997C9.59902 9.83997 8.55902 8.78997 8.55902 7.48997C8.55902 6.18997 9.60902 5.13997 10.909 5.13997C11.779 5.13997 12.539 5.60997 12.949 6.31997C13.049 6.27997 13.159 6.23997 13.269 6.19997C13.549 6.08997 13.859 5.97997 14.179 5.87997C14.509 5.77997 14.849 5.67997 15.229 5.62997C15.419 5.59997 15.619 5.58997 15.839 5.59997H15.919C15.949 5.59997 15.979 5.60997 15.999 5.60997H16.069L16.099 5.61997H16.109L16.139 5.62997C16.139 5.62997 16.159 5.62997 16.169 5.63997L16.209 5.64997C16.269 5.66997 16.299 5.67997 16.339 5.69997C16.379 5.71997 16.409 5.72997 16.449 5.74997C16.519 5.78997 16.579 5.82997 16.639 5.86997C16.749 5.95997 16.839 6.04997 16.909 6.13997C16.989 6.22997 17.049 6.31997 17.109 6.40997C17.229 6.58997 17.319 6.75997 17.399 6.92997C17.559 7.26997 17.689 7.60997 17.789 7.92997L17.939 8.40997C17.989 8.56997 18.019 8.71997 18.059 8.86997C18.079 8.93997 18.099 9.01997 18.109 9.08997C18.129 9.15997 18.139 9.22997 18.159 9.29997C18.189 9.43997 18.219 9.57997 18.249 9.70997C18.289 9.90997 18.319 10.1 18.349 10.27C20.589 10.49 22.299 10.78 23.069 11.55C24.199 12.65 25.069 17.65 24.499 24H25.499C26.049 24 26.499 23.55 26.499 23V4.99997C26.499 4.44997 26.049 3.99997 25.499 3.99997V3.99997Z" fill="#F7CF0D"/>
<path d="M15.6389 18.08C15.5089 18.44 15.3989 22.65 16.6389 22.65C17.8789 22.65 17.8889 18.33 17.8489 18.08C17.8089 17.84 15.7689 17.73 15.6389 18.08ZM13.9989 14C13.1489 13.88 12.6389 18.02 13.8289 18.26C14.9489 18.48 14.8389 14.12 13.9989 14ZM19.5789 14C18.7289 13.88 18.2189 18.02 19.4089 18.26C20.5289 18.48 20.4289 14.12 19.5789 14Z" fill="#F7CF0D"/>
</g>
<g filter="url(#filter1_d_28_3164)">
<path d="M34.9443 18.5L32.7256 10.5H33.9951L35.5537 16.6953H35.6279L37.249 10.5H38.5068L40.1279 16.6992H40.2021L41.7568 10.5H43.0303L40.8076 18.5H39.5928L37.9092 12.5078H37.8467L36.1631 18.5H34.9443ZM45.9736 18.6211C45.4111 18.6211 44.9202 18.4922 44.501 18.2343C44.0817 17.9765 43.7562 17.6159 43.5244 17.1523C43.2926 16.6888 43.1768 16.1471 43.1768 15.5273C43.1768 14.9049 43.2926 14.3606 43.5244 13.8945C43.7562 13.4284 44.0817 13.0664 44.501 12.8086C44.9202 12.5507 45.4111 12.4218 45.9736 12.4218C46.5361 12.4218 47.027 12.5507 47.4463 12.8086C47.8656 13.0664 48.1911 13.4284 48.4228 13.8945C48.6546 14.3606 48.7705 14.9049 48.7705 15.5273C48.7705 16.1471 48.6546 16.6888 48.4228 17.1523C48.1911 17.6159 47.8656 17.9765 47.4463 18.2343C47.027 18.4922 46.5361 18.6211 45.9736 18.6211ZM45.9775 17.6406C46.3421 17.6406 46.6442 17.5442 46.8838 17.3515C47.1234 17.1588 47.3005 16.9023 47.415 16.582C47.5322 16.2617 47.5908 15.9088 47.5908 15.5234C47.5908 15.1406 47.5322 14.789 47.415 14.4687C47.3005 14.1458 47.1234 13.8867 46.8838 13.6914C46.6442 13.4961 46.3421 13.3984 45.9775 13.3984C45.6103 13.3984 45.3057 13.4961 45.0635 13.6914C44.8239 13.8867 44.6455 14.1458 44.5283 14.4687C44.4137 14.789 44.3564 15.1406 44.3564 15.5234C44.3564 15.9088 44.4137 16.2617 44.5283 16.582C44.6455 16.9023 44.8239 17.1588 45.0635 17.3515C45.3057 17.5442 45.6103 17.6406 45.9775 17.6406ZM51.2422 14.9375V18.5H50.0742V12.5H51.1953V13.4765H51.2695C51.4075 13.1588 51.6237 12.9036 51.918 12.7109C52.2148 12.5182 52.5885 12.4218 53.0391 12.4218C53.4479 12.4218 53.806 12.5078 54.1133 12.6797C54.4206 12.8489 54.6588 13.1015 54.8281 13.4375C54.9974 13.7734 55.082 14.1888 55.082 14.6836V18.5H53.9141V14.8242C53.9141 14.3893 53.8008 14.0494 53.5742 13.8047C53.3477 13.5573 53.0365 13.4336 52.6406 13.4336C52.3698 13.4336 52.1289 13.4922 51.918 13.6093C51.7096 13.7265 51.5443 13.8984 51.4219 14.125C51.3021 14.3489 51.2422 14.6198 51.2422 14.9375ZM57.6523 10.5V11.25C57.6523 11.4713 57.6107 11.7044 57.5273 11.9492C57.4466 12.1914 57.332 12.4244 57.1836 12.6484C57.0351 12.8724 56.8607 13.0651 56.6601 13.2265L56.082 12.8125C56.2357 12.5885 56.3685 12.3502 56.4805 12.0976C56.595 11.845 56.6523 11.5664 56.6523 11.2617V10.5H57.6523ZM61.8125 12.5V13.4375H58.5351V12.5H61.8125ZM59.4141 11.0625H60.582V16.7382C60.582 16.9648 60.6159 17.1354 60.6836 17.25C60.7513 17.3619 60.8385 17.4388 60.9453 17.4804C61.0547 17.5195 61.1732 17.539 61.3008 17.539C61.3945 17.539 61.4766 17.5325 61.5469 17.5195C61.6172 17.5065 61.6719 17.4961 61.7109 17.4882L61.9219 18.4531C61.8542 18.4791 61.7578 18.5052 61.6328 18.5312C61.5078 18.5599 61.3516 18.5755 61.1641 18.5781C60.8568 18.5833 60.5703 18.5286 60.3047 18.414C60.0391 18.2994 59.8242 18.1224 59.6601 17.8828C59.4961 17.6432 59.4141 17.3424 59.4141 16.9804V11.0625ZM70.5117 13.9648L69.4531 14.1523C69.4088 14.0169 69.3385 13.888 69.2422 13.7656C69.1484 13.6432 69.0208 13.5429 68.8594 13.4648C68.6979 13.3867 68.4961 13.3476 68.2539 13.3476C67.9232 13.3476 67.6471 13.4218 67.4258 13.5703C67.2044 13.7161 67.0937 13.9049 67.0937 14.1367C67.0937 14.3372 67.168 14.4987 67.3164 14.6211C67.4648 14.7435 67.7044 14.8437 68.0351 14.9218L68.9883 15.1406C69.5404 15.2682 69.9518 15.4648 70.2226 15.7304C70.4935 15.9961 70.6289 16.3411 70.6289 16.7656C70.6289 17.125 70.5247 17.4453 70.3164 17.7265C70.1107 18.0052 69.8229 18.2239 69.4531 18.3828C69.0859 18.5416 68.6601 18.6211 68.1758 18.6211C67.5039 18.6211 66.9557 18.4778 66.5312 18.1914C66.1068 17.9023 65.8463 17.4922 65.75 16.9609L66.8789 16.789C66.9492 17.0833 67.0937 17.306 67.3125 17.457C67.5312 17.6054 67.8164 17.6797 68.168 17.6797C68.5508 17.6797 68.8568 17.6002 69.0859 17.4414C69.3151 17.2799 69.4297 17.0833 69.4297 16.8515C69.4297 16.664 69.3594 16.5065 69.2187 16.3789C69.0807 16.2513 68.8685 16.1549 68.582 16.0898L67.5664 15.8672C67.0065 15.7396 66.5924 15.5364 66.3242 15.2578C66.0586 14.9791 65.9258 14.6263 65.9258 14.1992C65.9258 13.845 66.0247 13.5351 66.2226 13.2695C66.4206 13.0039 66.694 12.7968 67.043 12.6484C67.3919 12.4974 67.7917 12.4218 68.2422 12.4218C68.8906 12.4218 69.401 12.5625 69.7734 12.8437C70.1458 13.1224 70.3919 13.4961 70.5117 13.9648ZM75.7139 16.0117V12.5H76.8857V18.5H75.7373V17.4609H75.6748C75.5368 17.7812 75.3154 18.0481 75.0107 18.2617C74.7086 18.4726 74.3323 18.5781 73.8818 18.5781C73.4964 18.5781 73.1553 18.4935 72.8584 18.3242C72.5641 18.1523 72.3323 17.8984 72.1631 17.5625C71.9964 17.2265 71.9131 16.8112 71.9131 16.3164V12.5H73.081V16.1757C73.081 16.5846 73.1943 16.9101 73.4209 17.1523C73.6474 17.3945 73.9417 17.5156 74.3037 17.5156C74.5224 17.5156 74.7399 17.4609 74.956 17.3515C75.1748 17.2422 75.3558 17.0768 75.499 16.8554C75.6448 16.6341 75.7165 16.3528 75.7139 16.0117ZM78.4551 20.75V12.5H79.5957V13.4726H79.6933C79.7611 13.3476 79.8587 13.2031 79.9863 13.039C80.1139 12.875 80.291 12.7317 80.5176 12.6093C80.7441 12.4843 81.0436 12.4218 81.416 12.4218C81.9004 12.4218 82.3327 12.5442 82.7129 12.789C83.0931 13.0338 83.3913 13.3867 83.6074 13.8476C83.8262 14.3086 83.9355 14.8632 83.9355 15.5117C83.9355 16.1601 83.8275 16.7161 83.6113 17.1797C83.3952 17.6406 83.0983 17.9961 82.7207 18.2461C82.3431 18.4935 81.9121 18.6172 81.4277 18.6172C81.0631 18.6172 80.765 18.556 80.5332 18.4336C80.304 18.3112 80.1243 18.1679 79.9941 18.0039C79.8639 17.8398 79.7637 17.694 79.6933 17.5664H79.623V20.75H78.4551ZM79.5996 15.5C79.5996 15.9218 79.6608 16.2916 79.7832 16.6093C79.9056 16.927 80.0827 17.1757 80.3144 17.3554C80.5462 17.5325 80.8301 17.6211 81.166 17.6211C81.515 17.6211 81.8066 17.5286 82.041 17.3437C82.2754 17.1562 82.4525 16.9023 82.5723 16.582C82.6946 16.2617 82.7558 15.901 82.7558 15.5C82.7558 15.1041 82.6959 14.7487 82.5762 14.4336C82.459 14.1185 82.2819 13.8698 82.0449 13.6875C81.8105 13.5052 81.5176 13.414 81.166 13.414C80.8275 13.414 80.541 13.5013 80.3066 13.6757C80.0749 13.8502 79.8991 14.0937 79.7793 14.4062C79.6595 14.7187 79.5996 15.0833 79.5996 15.5ZM85.2441 20.75V12.5H86.3847V13.4726H86.4824C86.5501 13.3476 86.6478 13.2031 86.7754 13.039C86.903 12.875 87.0801 12.7317 87.3066 12.6093C87.5332 12.4843 87.8327 12.4218 88.2051 12.4218C88.6894 12.4218 89.1217 12.5442 89.5019 12.789C89.8821 13.0338 90.1803 13.3867 90.3965 13.8476C90.6152 14.3086 90.7246 14.8632 90.7246 15.5117C90.7246 16.1601 90.6165 16.7161 90.4004 17.1797C90.1842 17.6406 89.8874 17.9961 89.5097 18.2461C89.1321 18.4935 88.7012 18.6172 88.2168 18.6172C87.8522 18.6172 87.554 18.556 87.3222 18.4336C87.0931 18.3112 86.9134 18.1679 86.7832 18.0039C86.653 17.8398 86.5527 17.694 86.4824 17.5664H86.4121V20.75H85.2441ZM86.3887 15.5C86.3887 15.9218 86.4499 16.2916 86.5722 16.6093C86.6946 16.927 86.8717 17.1757 87.1035 17.3554C87.3353 17.5325 87.6191 17.6211 87.9551 17.6211C88.304 17.6211 88.5957 17.5286 88.8301 17.3437C89.0644 17.1562 89.2415 16.9023 89.3613 16.582C89.4837 16.2617 89.5449 15.901 89.5449 15.5C89.5449 15.1041 89.485 14.7487 89.3652 14.4336C89.248 14.1185 89.0709 13.8698 88.834 13.6875C88.5996 13.5052 88.3066 13.414 87.9551 13.414C87.6165 13.414 87.3301 13.5013 87.0957 13.6757C86.8639 13.8502 86.6881 14.0937 86.5683 14.4062C86.4486 14.7187 86.3887 15.0833 86.3887 15.5ZM94.5605 18.6211C93.998 18.6211 93.5071 18.4922 93.0879 18.2343C92.6686 17.9765 92.3431 17.6159 92.1113 17.1523C91.8795 16.6888 91.7637 16.1471 91.7637 15.5273C91.7637 14.9049 91.8795 14.3606 92.1113 13.8945C92.3431 13.4284 92.6686 13.0664 93.0879 12.8086C93.5071 12.5507 93.998 12.4218 94.5605 12.4218C95.123 12.4218 95.6139 12.5507 96.0332 12.8086C96.4525 13.0664 96.778 13.4284 97.0097 13.8945C97.2415 14.3606 97.3574 14.9049 97.3574 15.5273C97.3574 16.1471 97.2415 16.6888 97.0097 17.1523C96.778 17.6159 96.4525 17.9765 96.0332 18.2343C95.6139 18.4922 95.123 18.6211 94.5605 18.6211ZM94.5644 17.6406C94.929 17.6406 95.2311 17.5442 95.4707 17.3515C95.7103 17.1588 95.8874 16.9023 96.0019 16.582C96.1191 16.2617 96.1777 15.9088 96.1777 15.5234C96.1777 15.1406 96.1191 14.789 96.0019 14.4687C95.8874 14.1458 95.7103 13.8867 95.4707 13.6914C95.2311 13.4961 94.929 13.3984 94.5644 13.3984C94.1972 13.3984 93.8926 13.4961 93.6504 13.6914C93.4108 13.8867 93.2324 14.1458 93.1152 14.4687C93.0006 14.789 92.9433 15.1406 92.9433 15.5234C92.9433 15.9088 93.0006 16.2617 93.1152 16.582C93.2324 16.9023 93.4108 17.1588 93.6504 17.3515C93.8926 17.5442 94.1972 17.6406 94.5644 17.6406ZM98.6611 18.5V12.5H99.79V13.4531H99.8525C99.9619 13.1302 100.155 12.8763 100.431 12.6914C100.709 12.5039 101.024 12.4101 101.376 12.4101C101.449 12.4101 101.535 12.4127 101.634 12.4179C101.735 12.4231 101.815 12.4297 101.872 12.4375V13.5547C101.825 13.5416 101.742 13.5273 101.622 13.5117C101.502 13.4935 101.382 13.4843 101.263 13.4843C100.987 13.4843 100.741 13.5429 100.524 13.6601C100.311 13.7747 100.142 13.9349 100.017 14.1406C99.8916 14.3437 99.8291 14.5755 99.8291 14.8359V18.5H98.6611ZM106.038 12.5V13.4375H102.761V12.5H106.038ZM103.64 11.0625H104.808V16.7382C104.808 16.9648 104.841 17.1354 104.909 17.25C104.977 17.3619 105.064 17.4388 105.171 17.4804C105.28 17.5195 105.399 17.539 105.526 17.539C105.62 17.539 105.702 17.5325 105.772 17.5195C105.843 17.5065 105.897 17.4961 105.937 17.4882L106.147 18.4531C106.08 18.4791 105.983 18.5052 105.858 18.5312C105.733 18.5599 105.577 18.5755 105.39 18.5781C105.082 18.5833 104.796 18.5286 104.53 18.414C104.265 18.2994 104.05 18.1224 103.886 17.8828C103.722 17.6432 103.64 17.3424 103.64 16.9804V11.0625Z" fill="#E8E8E8"/>
<path d="M115.377 12.3892C115.348 12.0767 115.222 11.8338 114.998 11.6605C114.776 11.4843 114.459 11.3963 114.047 11.3963C113.775 11.3963 113.547 11.4318 113.365 11.5028C113.184 11.5738 113.047 11.6718 112.956 11.7968C112.865 11.919 112.819 12.0596 112.816 12.2187C112.81 12.3494 112.836 12.4645 112.892 12.5639C112.952 12.6633 113.037 12.7514 113.148 12.8281C113.262 12.902 113.398 12.9673 113.557 13.0241C113.716 13.0809 113.895 13.1306 114.094 13.1733L114.844 13.3437C115.276 13.4375 115.657 13.5625 115.986 13.7187C116.319 13.875 116.597 14.061 116.821 14.277C117.049 14.4929 117.221 14.7414 117.337 15.0227C117.454 15.3039 117.513 15.6193 117.516 15.9687C117.513 16.5199 117.374 16.9929 117.098 17.3878C116.823 17.7826 116.427 18.0852 115.91 18.2954C115.395 18.5056 114.775 18.6108 114.047 18.6108C113.317 18.6108 112.681 18.5014 112.138 18.2826C111.596 18.0639 111.174 17.7315 110.873 17.2855C110.571 16.8395 110.417 16.2755 110.408 15.5937H112.428C112.445 15.875 112.52 16.1093 112.654 16.2968C112.787 16.4843 112.971 16.6264 113.204 16.723C113.439 16.8196 113.712 16.8679 114.022 16.8679C114.306 16.8679 114.547 16.8295 114.746 16.7528C114.948 16.6761 115.103 16.5696 115.211 16.4332C115.319 16.2968 115.374 16.1406 115.377 15.9645C115.374 15.7997 115.323 15.6591 115.223 15.5426C115.124 15.4233 114.971 15.321 114.763 15.2358C114.559 15.1477 114.297 15.0667 113.979 14.9929L113.067 14.7798C112.312 14.6065 111.716 14.3267 111.282 13.9403C110.847 13.5511 110.631 13.0255 110.634 12.3636C110.631 11.8238 110.776 11.3508 111.069 10.9446C111.361 10.5383 111.766 10.2216 112.283 9.99429C112.8 9.76701 113.39 9.65338 114.052 9.65338C114.728 9.65338 115.314 9.76843 115.812 9.99855C116.312 10.2258 116.699 10.5454 116.975 10.9574C117.25 11.3693 117.391 11.8466 117.397 12.3892H115.377ZM118.581 20.9545V11.9545H120.644V13.0753H120.708C120.793 12.8764 120.914 12.6846 121.07 12.5C121.229 12.3153 121.431 12.1647 121.675 12.0483C121.922 11.9289 122.218 11.8693 122.562 11.8693C123.016 11.8693 123.441 11.9886 123.836 12.2272C124.233 12.4659 124.554 12.8338 124.799 13.3309C125.043 13.8281 125.165 14.4616 125.165 15.2315C125.165 15.973 125.047 16.5937 124.812 17.0937C124.579 17.5937 124.263 17.9687 123.865 18.2187C123.471 18.4687 123.032 18.5937 122.549 18.5937C122.219 18.5937 121.934 18.5397 121.692 18.4318C121.451 18.3238 121.248 18.1818 121.083 18.0056C120.921 17.8295 120.796 17.6406 120.708 17.4389H120.665V20.9545H118.581ZM120.623 15.2272C120.623 15.5795 120.669 15.8863 120.763 16.1477C120.86 16.4091 120.998 16.6122 121.177 16.7571C121.358 16.8991 121.576 16.9701 121.829 16.9701C122.084 16.9701 122.302 16.8991 122.481 16.7571C122.66 16.6122 122.794 16.4091 122.885 16.1477C122.979 15.8863 123.026 15.5795 123.026 15.2272C123.026 14.875 122.979 14.5696 122.885 14.311C122.794 14.0525 122.66 13.8522 122.481 13.7102C122.304 13.5681 122.087 13.4971 121.829 13.4971C121.573 13.4971 121.356 13.5667 121.177 13.7059C120.998 13.8451 120.86 14.044 120.763 14.3025C120.669 14.561 120.623 14.8693 120.623 15.2272ZM129.313 18.6235C128.625 18.6235 128.034 18.4829 127.54 18.2017C127.048 17.9176 126.669 17.5227 126.402 17.017C126.138 16.5085 126.006 15.919 126.006 15.2485C126.006 14.5753 126.138 13.9858 126.402 13.4801C126.669 12.9716 127.048 12.5767 127.54 12.2954C128.034 12.0113 128.625 11.8693 129.313 11.8693C130 11.8693 130.59 12.0113 131.081 12.2954C131.575 12.5767 131.955 12.9716 132.219 13.4801C132.486 13.9858 132.619 14.5753 132.619 15.2485C132.619 15.919 132.486 16.5085 132.219 17.017C131.955 17.5227 131.575 17.9176 131.081 18.2017C130.59 18.4829 130 18.6235 129.313 18.6235ZM129.325 17.0511C129.575 17.0511 129.787 16.9744 129.96 16.821C130.134 16.6676 130.266 16.4545 130.357 16.1818C130.45 15.9091 130.497 15.5937 130.497 15.2358C130.497 14.8721 130.45 14.5539 130.357 14.2812C130.266 14.0085 130.134 13.7954 129.96 13.642C129.787 13.4886 129.575 13.4119 129.325 13.4119C129.067 13.4119 128.848 13.4886 128.669 13.642C128.493 13.7954 128.358 14.0085 128.264 14.2812C128.173 14.5539 128.128 14.8721 128.128 15.2358C128.128 15.5937 128.173 15.9091 128.264 16.1818C128.358 16.4545 128.493 16.6676 128.669 16.821C128.848 16.9744 129.067 17.0511 129.325 17.0511ZM135.771 14.767V18.5H133.687V11.9545H135.668V13.1562H135.741C135.886 12.7556 136.133 12.4417 136.482 12.2145C136.832 11.9843 137.248 11.8693 137.731 11.8693C138.191 11.8693 138.59 11.973 138.928 12.1804C139.269 12.3849 139.533 12.6718 139.721 13.0412C139.911 13.4076 140.005 13.8366 140.002 14.3281V18.5H137.918V14.7372C137.921 14.3735 137.829 14.0895 137.641 13.8849C137.457 13.6804 137.2 13.5781 136.87 13.5781C136.651 13.5781 136.458 13.6264 136.291 13.723C136.126 13.8167 135.998 13.9517 135.907 14.1278C135.819 14.3039 135.774 14.517 135.771 14.767ZM144.343 21.0909C143.721 21.0909 143.189 21.0042 142.745 20.8309C142.302 20.6576 141.954 20.4204 141.701 20.1193C141.449 19.8181 141.297 19.4772 141.245 19.0966L143.218 18.9858C143.255 19.1193 143.324 19.2358 143.423 19.3352C143.525 19.4346 143.657 19.5113 143.819 19.5653C143.984 19.6193 144.177 19.6463 144.399 19.6463C144.748 19.6463 145.037 19.561 145.264 19.3906C145.494 19.223 145.609 18.9289 145.609 18.5085V17.3579H145.537C145.454 17.5596 145.329 17.74 145.162 17.8991C144.994 18.0582 144.785 18.1832 144.535 18.2741C144.288 18.365 144.004 18.4105 143.683 18.4105C143.206 18.4105 142.768 18.2997 142.37 18.0781C141.976 17.8537 141.659 17.5071 141.42 17.0383C141.184 16.5667 141.066 15.9602 141.066 15.2187C141.066 14.4545 141.189 13.8253 141.433 13.3309C141.677 12.8338 141.997 12.4659 142.392 12.2272C142.789 11.9886 143.217 11.8693 143.674 11.8693C144.018 11.8693 144.312 11.9289 144.557 12.0483C144.804 12.1647 145.007 12.3153 145.166 12.5C145.325 12.6846 145.446 12.8764 145.528 13.0753H145.588V11.9545H147.663V18.5255C147.663 19.0795 147.524 19.5468 147.245 19.9275C146.967 20.3082 146.578 20.5966 146.078 20.7926C145.578 20.9914 145 21.0909 144.343 21.0909ZM144.407 16.8934C144.66 16.8934 144.876 16.8267 145.055 16.6931C145.234 16.5596 145.372 16.3679 145.468 16.1179C145.565 15.8679 145.613 15.5681 145.613 15.2187C145.613 14.8636 145.565 14.5582 145.468 14.3025C145.375 14.044 145.237 13.8451 145.055 13.7059C144.876 13.5667 144.66 13.4971 144.407 13.4971C144.149 13.4971 143.93 13.5681 143.751 13.7102C143.572 13.8522 143.436 14.0525 143.342 14.311C143.251 14.5667 143.206 14.8693 143.206 15.2187C143.206 15.5681 143.253 15.8679 143.346 16.1179C143.44 16.3679 143.575 16.5596 143.751 16.6931C143.93 16.8267 144.149 16.8934 144.407 16.8934ZM152.051 18.6235C151.367 18.6235 150.776 18.4886 150.278 18.2187C149.784 17.946 149.403 17.5582 149.136 17.0554C148.872 16.5497 148.74 15.9488 148.74 15.2528C148.74 14.5767 148.874 13.9858 149.141 13.4801C149.408 12.9716 149.784 12.5767 150.27 12.2954C150.756 12.0113 151.328 11.8693 151.987 11.8693C152.453 11.8693 152.879 11.9417 153.266 12.0866C153.652 12.2315 153.986 12.446 154.267 12.7301C154.548 13.0142 154.767 13.365 154.923 13.7826C155.08 14.1974 155.158 14.6733 155.158 15.2102V15.7301H149.469V14.5199H153.219C153.216 14.2983 153.163 14.1008 153.061 13.9275C152.959 13.7542 152.818 13.6193 152.639 13.5227C152.463 13.4233 152.26 13.3735 152.03 13.3735C151.797 13.3735 151.588 13.4261 151.403 13.5312C151.219 13.6335 151.073 13.7741 150.965 13.9531C150.857 14.1292 150.8 14.3295 150.794 14.5539V15.7855C150.794 16.0525 150.847 16.2869 150.952 16.4886C151.057 16.6875 151.206 16.8423 151.399 16.9531C151.592 17.0639 151.823 17.1193 152.09 17.1193C152.274 17.1193 152.442 17.0937 152.592 17.0426C152.743 16.9914 152.872 16.9162 152.98 16.8167C153.088 16.7173 153.169 16.5951 153.223 16.4503L155.136 16.5056C155.057 16.9346 154.882 17.3082 154.612 17.6264C154.345 17.9417 153.994 18.1875 153.56 18.3636C153.125 18.5369 152.622 18.6235 152.051 18.6235Z" fill="#F7CF0D"/>
</g>
</g>
<rect x="1.24902" y="0.749969" width="160" height="26.5" rx="5.25" stroke="white" stroke-opacity="0.15" stroke-width="1.5"/>
<defs>
<filter id="filter0_d_28_3164" x="2.49902" y="-3.05176e-05" width="28" height="28" filterUnits="userSpaceOnUse" color-interpolation-filters="sRGB">
<feFlood flood-opacity="0" result="BackgroundImageFix"/>
<feColorMatrix in="SourceAlpha" type="matrix" values="0 0 0 0 0 0 0 0 0 0 0 0 0 0 0 0 0 0 127 0" result="hardAlpha"/>
<feOffset/>
<feGaussianBlur stdDeviation="2"/>
<feComposite in2="hardAlpha" operator="out"/>
<feColorMatrix type="matrix" values="0 0 0 0 0 0 0 0 0 0 0 0 0 0 0 0 0 0 0.25 0"/>
<feBlend mode="normal" in2="BackgroundImageFix" result="effect1_dropShadow_28_3164"/>
<feBlend mode="normal" in="SourceGraphic" in2="effect1_dropShadow_28_3164" result="shape"/>
</filter>
<filter id="filter1_d_28_3164" x="28.499" y="3.49997" width="131.5" height="21.5909" filterUnits="userSpaceOnUse" color-interpolation-filters="sRGB">
<feFlood flood-opacity="0" result="BackgroundImageFix"/>
<feColorMatrix in="SourceAlpha" type="matrix" values="0 0 0 0 0 0 0 0 0 0 0 0 0 0 0 0 0 0 127 0" result="hardAlpha"/>
<feOffset/>
<feGaussianBlur stdDeviation="2"/>
<feComposite in2="hardAlpha" operator="out"/>
<feColorMatrix type="matrix" values="0 0 0 0 0 0 0 0 0 0 0 0 0 0 0 0 0 0 0.25 0"/>
<feBlend mode="normal" in2="BackgroundImageFix" result="effect1_dropShadow_28_3164"/>
<feBlend mode="normal" in="SourceGraphic" in2="effect1_dropShadow_28_3164" result="shape"/>
</filter>
<linearGradient id="paint0_linear_28_3164" x1="81.249" y1="-3.05176e-05" x2="81.249" y2="28" gradientUnits="userSpaceOnUse">
<stop stop-color="#2C1B1B"/>
<stop offset="1" stop-color="#1F1414"/>
</linearGradient>
<clipPath id="clip0_28_3164">
<rect x="0.499023" y="-3.05176e-05" width="161.5" height="28" rx="6" fill="white"/>
</clipPath>
</defs>
</svg>
