<svg width="242" height="41" viewBox="0 0 242 41" fill="none" xmlns="http://www.w3.org/2000/svg">
<g clip-path="url(#clip0_33_56)">
<rect x="0.00830078" y="0.0139771" width="241.001" height="40.0014" rx="8" fill="url(#paint0_linear_33_56)"/>
<g filter="url(#filter0_d_33_56)">
<path d="M12.0819 26.8703C11.8883 26.9385 11.7019 27.0157 11.4966 27.0144V27.0144C11.1139 27.0121 10.7555 26.8267 10.5148 26.5292C10.2726 26.2299 10.0339 25.9346 9.81156 25.6266C9.25919 24.8614 8.73555 24.0739 8.19127 23.3023C7.94793 22.9573 7.67655 22.6336 7.43139 22.2899C7.17682 21.933 6.93917 21.5632 6.6909 21.2014V21.2014C6.66463 21.1631 6.61034 21.1588 6.61036 21.1124C6.61045 20.9329 6.61109 20.7532 6.61591 20.571C6.62045 20.3996 6.71129 20.2536 6.82395 20.1244C6.84149 20.1043 6.85692 20.0832 6.86944 20.0604C7.0249 19.7772 7.15485 19.4791 7.30707 19.1939C8.01177 17.8735 8.71037 16.5493 9.43583 15.2412C9.60095 14.9435 9.66958 14.5459 10.026 14.3991C10.2518 14.306 10.4959 14.2561 10.7352 14.2034C11.5546 14.0227 12.3749 13.8465 13.1959 13.674C14.0845 13.4874 14.9745 13.3078 15.8628 13.1198V13.1198C15.945 13.1025 15.9909 13.0143 16.0749 13.0144C16.2048 13.0145 16.335 13.0151 16.4662 13.0174C16.7167 13.0218 16.9616 13.1194 17.1422 13.2931C17.1935 13.3424 17.241 13.3934 17.2816 13.4498C17.6754 13.9971 18.0558 14.5551 18.4316 15.1159C18.5785 15.3351 18.7346 15.4403 19.0198 15.4395C24.0725 15.4266 29.1252 15.4301 34.178 15.4302C34.5995 15.4302 34.8663 15.6929 34.8672 16.1078C34.8682 16.5499 34.614 16.8027 34.1681 16.8027C31.8184 16.8028 29.4687 16.8028 27.119 16.8028C26.9953 16.8028 26.8715 16.7985 26.748 16.8036C26.4136 16.8173 26.0702 17.0802 26.0144 17.3607C25.9377 17.7466 26.1177 18.0954 26.4821 18.2427C26.5668 18.277 26.6663 18.2834 26.7591 18.2835C28.3668 18.2858 29.9744 18.2869 31.5821 18.2843C32.1586 18.2834 32.4602 18.8003 32.2552 19.3056C32.1234 19.6304 31.8355 19.7071 31.5344 19.7098C30.6335 19.7179 29.7324 19.7127 28.8314 19.7127C27.2767 19.7127 25.722 19.7122 24.1673 19.7131C23.7564 19.7133 23.5005 20.0153 23.4599 20.432C23.4208 20.8337 23.8672 21.201 24.299 21.2001C28.3005 21.1917 32.302 21.1953 36.3036 21.1949C36.6928 21.1949 37.1044 21.1197 37.3638 21.5364C37.3687 21.5442 37.3792 21.5468 37.3868 21.5416V21.5416C37.3975 21.5343 37.4119 21.542 37.4119 21.5549C37.4119 21.7252 37.4113 21.8962 37.4015 22.0796C37.397 22.1644 37.3537 22.2421 37.287 22.2947C37.0947 22.4464 36.927 22.5829 36.6478 22.5802C34.1926 22.5573 31.7372 22.5676 29.2818 22.5679C28.8186 22.568 28.4598 22.8893 28.4513 23.3002C28.4434 23.6788 28.7508 24.0647 29.2612 24.0565C30.4798 24.037 31.6988 24.0526 32.9177 24.0491C33.4998 24.0475 33.7564 24.5992 33.5977 25.003C33.4715 25.3239 33.2324 25.4777 32.7967 25.4777C27.9213 25.4777 23.0458 25.4776 18.1704 25.4785C18.0839 25.4786 17.958 25.4553 17.9176 25.5034C17.6832 25.7826 17.3437 25.7879 17.0459 25.8516C15.4118 26.2012 13.7716 26.5194 12.1348 26.8555C12.1169 26.8591 12.0993 26.8642 12.0819 26.8703ZM16.2047 14.3266C15.9334 14.1935 15.59 14.3717 15.4163 14.6189V14.6189C15.2616 14.8389 15.1389 15.084 15.0116 15.3236C14.5065 16.2745 14.0152 17.2335 13.4951 18.1755C13.3509 18.4368 13.158 18.6971 12.9265 18.8704C12.7322 19.0157 12.4527 19.0518 12.2047 19.1052C10.9827 19.3683 9.75847 19.6198 8.53559 19.8783C8.27849 19.9326 8.10152 20.1046 8.04787 20.3615C7.98446 20.6651 8.04171 20.9432 8.3153 21.1442C8.58446 21.342 8.85174 21.2597 9.13472 21.1987C10.2653 20.955 11.3969 20.716 12.5314 20.4929C12.955 20.4096 13.3643 20.5056 13.6339 20.8737C14.3909 21.9074 15.1251 22.959 15.8685 24.0033C16.1154 24.3503 16.5041 24.4287 16.8306 24.1979C17.1211 23.9926 17.2109 23.5092 16.9903 23.1925C16.3179 22.2273 15.6382 21.2674 14.9522 20.3124C14.7008 19.9624 14.4976 19.6016 14.6212 19.1513C14.6758 18.9522 14.7825 18.7662 14.8796 18.5822C15.2269 17.9241 15.5855 17.2724 15.9296 16.6125C16.1798 16.1328 16.4311 15.6522 16.6477 15.1559C16.7581 14.9027 16.6264 14.6642 16.4347 14.4929C16.3632 14.429 16.2884 14.3676 16.2047 14.3266Z" fill="white"/>
<path d="M33.1643 18.6901C33.4521 18.309 33.6717 18.2228 34.0056 18.3406C34.2936 18.4423 34.4989 18.8021 34.4416 19.1046C34.3749 19.457 34.0156 19.7558 33.7113 19.7118C33.372 19.6628 33.1149 19.369 33.1192 19.0244C33.1205 18.9199 33.1446 18.8158 33.1643 18.6901Z" fill="white"/>
<g opacity="0.7">
<mask id="path-5-outside-1_33_56" maskUnits="userSpaceOnUse" x="15.5112" y="14.2146" width="22" height="22" fill="black">
<rect fill="white" x="15.5112" y="14.2146" width="22" height="22"/>
<path fill-rule="evenodd" clip-rule="evenodd" d="M20.6485 17.4196C20.3752 17.1462 19.932 17.1462 19.6586 17.4196L18.7173 18.361C18.4439 18.6344 18.4439 19.0776 18.7173 19.351L24.9826 25.6167L18.7165 31.8806C18.4431 32.1539 18.4431 32.5971 18.7165 32.8704L19.658 33.8115C19.9314 34.0848 20.3747 34.0848 20.6482 33.8115L26.9139 27.5481L33.1772 33.8119C33.4506 34.0852 33.8938 34.0852 34.1672 33.8119L35.1084 32.8705C35.3818 32.5971 35.3818 32.1539 35.1084 31.8805L28.8455 25.6172L35.1112 19.3538C35.3846 19.0805 35.3846 18.6373 35.1112 18.364L34.1697 17.4228C33.8963 17.1495 33.453 17.1495 33.1795 17.4228L26.9143 23.6858L20.6485 17.4196Z"/>
</mask>
<path fill-rule="evenodd" clip-rule="evenodd" d="M20.6485 17.4196C20.3752 17.1462 19.932 17.1462 19.6586 17.4196L18.7173 18.361C18.4439 18.6344 18.4439 19.0776 18.7173 19.351L24.9826 25.6167L18.7165 31.8806C18.4431 32.1539 18.4431 32.5971 18.7165 32.8704L19.658 33.8115C19.9314 34.0848 20.3747 34.0848 20.6482 33.8115L26.9139 27.5481L33.1772 33.8119C33.4506 34.0852 33.8938 34.0852 34.1672 33.8119L35.1084 32.8705C35.3818 32.5971 35.3818 32.1539 35.1084 31.8805L28.8455 25.6172L35.1112 19.3538C35.3846 19.0805 35.3846 18.6373 35.1112 18.364L34.1697 17.4228C33.8963 17.1495 33.453 17.1495 33.1795 17.4228L26.9143 23.6858L20.6485 17.4196Z" fill="url(#paint1_linear_33_56)"/>
<path d="M19.6584 17.4196L18.1733 15.9347L18.1733 15.9347L19.6584 17.4196ZM20.6483 17.4196L19.1633 18.9046L19.1633 18.9046L20.6483 17.4196ZM18.7171 18.361L17.2321 16.876L17.2321 16.876L18.7171 18.361ZM18.7171 19.351L17.2321 20.836L17.2321 20.836L18.7171 19.351ZM24.9824 25.6168L26.4672 27.102L27.9526 25.6171L26.4675 24.1318L24.9824 25.6168ZM18.7163 31.8806L17.2316 30.3953L17.2316 30.3953L18.7163 31.8806ZM18.7163 32.8704L20.201 31.3851L20.201 31.3851L18.7163 32.8704ZM19.6578 33.8115L18.173 35.2968L18.173 35.2968L19.6578 33.8115ZM20.648 33.8115L19.1632 32.3262L19.1632 32.3262L20.648 33.8115ZM26.9137 27.5481L28.3987 26.0632L26.914 24.5783L25.4289 26.0628L26.9137 27.5481ZM33.177 33.8119L31.6919 35.2968L31.6919 35.2968L33.177 33.8119ZM34.1669 33.8119L35.652 35.2968L35.652 35.2968L34.1669 33.8119ZM35.1082 32.8705L36.5933 34.3555L36.5933 34.3555L35.1082 32.8705ZM35.1082 31.8805L33.6232 33.3654L33.6232 33.3654L35.1082 31.8805ZM28.8453 25.6172L27.3606 24.1319L25.8751 25.6168L27.3603 27.1021L28.8453 25.6172ZM35.111 19.3538L33.6262 17.8685L33.6262 17.8685L35.111 19.3538ZM35.111 18.364L36.5957 16.8787L36.5957 16.8787L35.111 18.364ZM34.1695 17.4229L35.6542 15.9376L35.6542 15.9376L34.1695 17.4229ZM33.1793 17.4229L31.6946 15.9376L31.6946 15.9376L33.1793 17.4229ZM26.9141 23.6858L25.429 25.1708L26.9138 26.6556L28.3988 25.1711L26.9141 23.6858ZM21.1434 18.9046C20.5966 19.4514 19.7101 19.4514 19.1633 18.9046L22.1334 15.9347C21.0399 14.8411 19.2668 14.8411 18.1733 15.9347L21.1434 18.9046ZM20.2021 19.8459L21.1434 18.9046L18.1733 15.9347L17.2321 16.876L20.2021 19.8459ZM20.2022 17.8661C20.7489 18.4128 20.7489 19.2992 20.2021 19.8459L17.2321 16.876C16.1386 17.9695 16.1386 19.7424 17.2321 20.836L20.2022 17.8661ZM26.4675 24.1318L20.2022 17.8661L17.2321 20.836L23.4974 27.1017L26.4675 24.1318ZM20.201 33.3658L26.4672 27.102L23.4977 24.1315L17.2316 30.3953L20.201 33.3658ZM20.201 31.3851C20.7481 31.932 20.7481 32.819 20.201 33.3658L17.2316 30.3953C16.1376 31.4888 16.1376 33.2621 17.2316 34.3557L20.201 31.3851ZM21.1425 32.3263L20.201 31.3851L17.2316 34.3557L18.173 35.2968L21.1425 32.3263ZM19.1632 32.3262C19.7099 31.7798 20.5958 31.7798 21.1425 32.3263L18.173 35.2968C19.2666 36.3899 21.0392 36.3899 22.1327 35.2968L19.1632 32.3262ZM25.4289 26.0628L19.1632 32.3262L22.1327 35.2968L28.3984 29.0334L25.4289 26.0628ZM34.662 32.3269L28.3987 26.0632L25.4286 29.0331L31.6919 35.2968L34.662 32.3269ZM32.6819 32.3269C33.2287 31.7801 34.1152 31.7801 34.662 32.3269L31.6919 35.2968C32.7855 36.3904 34.5585 36.3904 35.652 35.2968L32.6819 32.3269ZM33.6232 31.3856L32.6819 32.3269L35.652 35.2968L36.5933 34.3555L33.6232 31.3856ZM33.6232 33.3654C33.0765 32.8187 33.0765 31.9323 33.6232 31.3856L36.5933 34.3555C37.6867 33.262 37.6867 31.4891 36.5933 30.3955L33.6232 33.3654ZM27.3603 27.1021L33.6232 33.3654L36.5933 30.3955L30.3304 24.1322L27.3603 27.1021ZM33.6262 17.8685L27.3606 24.1319L30.33 27.1024L36.5957 20.8391L33.6262 17.8685ZM33.6262 19.8492C33.0792 19.3024 33.0792 18.4154 33.6262 17.8685L36.5957 20.8391C37.6896 19.7455 37.6896 17.9722 36.5957 16.8787L33.6262 19.8492ZM32.6848 18.9081L33.6262 19.8492L36.5957 16.8787L35.6542 15.9376L32.6848 18.9081ZM34.664 18.9081C34.1174 19.4546 33.2314 19.4546 32.6848 18.9081L35.6542 15.9376C34.5607 14.8445 32.7881 14.8445 31.6946 15.9376L34.664 18.9081ZM28.3988 25.1711L34.664 18.9081L31.6946 15.9376L25.4293 22.2005L28.3988 25.1711ZM19.1633 18.9046L25.429 25.1708L28.3991 22.2009L22.1334 15.9347L19.1633 18.9046Z" fill="black" mask="url(#path-5-outside-1_33_56)"/>
</g>
</g>
<g filter="url(#filter1_d_33_56)">
<path d="M47.7889 26.5147L44.3599 14.151H46.3219L48.7306 23.7256H48.8453L51.3507 14.151H53.2946L55.7999 23.7316H55.9146L58.3173 14.151H60.2853L56.8503 26.5147H54.9728L52.3709 17.254H52.2743L49.6724 26.5147H47.7889ZM64.8342 26.7018C63.9648 26.7018 63.2062 26.5026 62.5582 26.1042C61.9103 25.7057 61.4072 25.1483 61.049 24.4319C60.6908 23.7156 60.5117 22.8784 60.5117 21.9206C60.5117 20.9587 60.6908 20.1175 61.049 19.3971C61.4072 18.6767 61.9103 18.1173 62.5582 17.7189C63.2062 17.3204 63.9648 17.1212 64.8342 17.1212C65.7035 17.1212 66.4621 17.3204 67.1101 17.7189C67.758 18.1173 68.2611 18.6767 68.6193 19.3971C68.9775 20.1175 69.1566 20.9587 69.1566 21.9206C69.1566 22.8784 68.9775 23.7156 68.6193 24.4319C68.2611 25.1483 67.758 25.7057 67.1101 26.1042C66.4621 26.5026 65.7035 26.7018 64.8342 26.7018ZM64.8402 25.1865C65.4036 25.1865 65.8705 25.0376 66.2408 24.7398C66.611 24.442 66.8847 24.0456 67.0618 23.5505C67.2429 23.0555 67.3334 22.5102 67.3334 21.9145C67.3334 21.3229 67.2429 20.7796 67.0618 20.2846C66.8847 19.7855 66.611 19.3851 66.2408 19.0832C65.8705 18.7814 65.4036 18.6304 64.8402 18.6304C64.2727 18.6304 63.8018 18.7814 63.4276 19.0832C63.0573 19.3851 62.7816 19.7855 62.6005 20.2846C62.4234 20.7796 62.3349 21.3229 62.3349 21.9145C62.3349 22.5102 62.4234 23.0555 62.6005 23.5505C62.7816 24.0456 63.0573 24.442 63.4276 24.7398C63.8018 25.0376 64.2727 25.1865 64.8402 25.1865ZM72.9765 21.009V26.5147H71.1714V17.2419H72.904V18.7512H73.0187C73.232 18.2602 73.5661 17.8658 74.0209 17.5679C74.4797 17.2701 75.0572 17.1212 75.7535 17.1212C76.3853 17.1212 76.9387 17.254 77.4136 17.5196C77.8885 17.7812 78.2568 18.1716 78.5184 18.6908C78.78 19.21 78.9108 19.8519 78.9108 20.6166V26.5147H77.1057V20.8339C77.1057 20.1618 76.9307 19.6366 76.5805 19.2583C76.2304 18.8759 75.7494 18.6848 75.1377 18.6848C74.7191 18.6848 74.3468 18.7753 74.0209 18.9564C73.6989 19.1375 73.4433 19.4032 73.2542 19.7533C73.069 20.0994 72.9765 20.518 72.9765 21.009ZM82.8831 14.151V15.3101C82.8831 15.6522 82.8187 16.0124 82.6899 16.3907C82.5651 16.765 82.388 17.1252 82.1586 17.4714C81.9292 17.8175 81.6596 18.1153 81.3497 18.3648L80.4562 17.7249C80.6937 17.3788 80.8989 17.0105 81.072 16.6201C81.2491 16.2298 81.3376 15.7991 81.3376 15.3282V14.151H82.8831ZM89.3124 17.2419V18.6908H84.2474V17.2419H89.3124ZM85.6057 15.0204H87.4108V23.792C87.4108 24.1422 87.4631 24.4058 87.5677 24.5829C87.6724 24.7559 87.8072 24.8746 87.9722 24.939C88.1412 24.9994 88.3244 25.0296 88.5216 25.0296C88.6664 25.0296 88.7932 25.0195 88.9019 24.9994C89.0106 24.9793 89.0951 24.9632 89.1554 24.9511L89.4814 26.4422C89.3768 26.4825 89.2279 26.5227 89.0347 26.563C88.8415 26.6072 88.6 26.6314 88.3103 26.6354C87.8354 26.6435 87.3927 26.5589 86.9821 26.3819C86.5716 26.2048 86.2396 25.9311 85.986 25.5608C85.7325 25.1906 85.6057 24.7257 85.6057 24.1663V15.0204ZM102.757 19.5058L101.121 19.7956C101.052 19.5863 100.944 19.3871 100.795 19.1979C100.65 19.0088 100.453 18.8538 100.203 18.7331C99.9535 18.6123 99.6416 18.552 99.2673 18.552C98.7562 18.552 98.3296 18.6667 97.9875 18.8961C97.6454 19.1214 97.4743 19.4132 97.4743 19.7714C97.4743 20.0813 97.589 20.3308 97.8184 20.52C98.0478 20.7092 98.4181 20.8641 98.9292 20.9848L100.402 21.3229C101.255 21.5201 101.891 21.824 102.31 22.2345C102.728 22.645 102.938 23.1783 102.938 23.8343C102.938 24.3897 102.777 24.8847 102.455 25.3194C102.137 25.75 101.692 26.0881 101.121 26.3336C100.553 26.5791 99.8951 26.7018 99.1466 26.7018C98.1082 26.7018 97.261 26.4805 96.605 26.0378C95.949 25.591 95.5465 24.9571 95.3976 24.1361L97.1423 23.8705C97.251 24.3253 97.4743 24.6694 97.8124 24.9028C98.1505 25.1322 98.5912 25.2469 99.1345 25.2469C99.7261 25.2469 100.199 25.1242 100.553 24.8787C100.907 24.6291 101.084 24.3253 101.084 23.9671C101.084 23.6773 100.976 23.4338 100.758 23.2366C100.545 23.0394 100.217 22.8905 99.7744 22.7899L98.2048 22.4458C97.3395 22.2486 96.6996 21.9347 96.2851 21.504C95.8745 21.0734 95.6693 20.5281 95.6693 19.868C95.6693 19.3207 95.8222 18.8417 96.1281 18.4312C96.434 18.0207 96.8565 17.7008 97.3958 17.4714C97.9351 17.2379 98.5529 17.1212 99.2492 17.1212C100.251 17.1212 101.04 17.3385 101.616 17.7732C102.191 18.2038 102.572 18.7814 102.757 19.5058ZM110.796 22.6691V17.2419H112.607V26.5147H110.833V24.9089H110.736C110.523 25.4039 110.181 25.8164 109.71 26.1464C109.243 26.4724 108.661 26.6354 107.965 26.6354C107.369 26.6354 106.842 26.5046 106.383 26.243C105.929 25.9774 105.57 25.585 105.309 25.0658C105.051 24.5466 104.922 23.9047 104.922 23.14V17.2419H106.727V22.9227C106.727 23.5546 106.903 24.0576 107.253 24.4319C107.603 24.8062 108.058 24.9934 108.617 24.9934C108.955 24.9934 109.291 24.9089 109.625 24.7398C109.963 24.5708 110.243 24.3152 110.464 23.9731C110.69 23.631 110.8 23.1964 110.796 22.6691ZM115.033 29.9919V17.2419H116.796V18.7451H116.946C117.051 18.552 117.202 18.3286 117.399 18.075C117.596 17.8215 117.87 17.6001 118.22 17.411C118.57 17.2178 119.033 17.1212 119.609 17.1212C120.357 17.1212 121.025 17.3104 121.613 17.6887C122.201 18.067 122.661 18.6123 122.995 19.3247C123.334 20.037 123.503 20.8943 123.503 21.8964C123.503 22.8986 123.336 23.7578 123.001 24.4742C122.667 25.1865 122.209 25.7359 121.625 26.1223C121.041 26.5046 120.375 26.6958 119.627 26.6958C119.063 26.6958 118.603 26.6012 118.244 26.412C117.89 26.2229 117.613 26.0015 117.411 25.748C117.21 25.4944 117.055 25.2691 116.946 25.0718H116.838V29.9919H115.033ZM116.802 21.8783C116.802 22.5303 116.896 23.1018 117.085 23.5928C117.274 24.0838 117.548 24.4682 117.906 24.7459C118.265 25.0195 118.703 25.1564 119.222 25.1564C119.762 25.1564 120.212 25.0135 120.575 24.7277C120.937 24.438 121.211 24.0456 121.396 23.5505C121.585 23.0555 121.679 22.4981 121.679 21.8783C121.679 21.2666 121.587 20.7172 121.402 20.2302C121.221 19.7433 120.947 19.3589 120.581 19.0772C120.218 18.7955 119.766 18.6546 119.222 18.6546C118.699 18.6546 118.256 18.7894 117.894 19.0591C117.536 19.3287 117.264 19.705 117.079 20.188C116.894 20.6709 116.802 21.2344 116.802 21.8783ZM125.525 29.9919V17.2419H127.288V18.7451H127.439C127.543 18.552 127.694 18.3286 127.891 18.075C128.089 17.8215 128.362 17.6001 128.712 17.411C129.063 17.2178 129.525 17.1212 130.101 17.1212C130.849 17.1212 131.518 17.3104 132.105 17.6887C132.693 18.067 133.154 18.6123 133.488 19.3247C133.826 20.037 133.995 20.8943 133.995 21.8964C133.995 22.8986 133.828 23.7578 133.494 24.4742C133.16 25.1865 132.701 25.7359 132.117 26.1223C131.534 26.5046 130.868 26.6958 130.119 26.6958C129.556 26.6958 129.095 26.6012 128.737 26.412C128.382 26.2229 128.105 26.0015 127.903 25.748C127.702 25.4944 127.547 25.2691 127.439 25.0718H127.33V29.9919H125.525ZM127.294 21.8783C127.294 22.5303 127.388 23.1018 127.577 23.5928C127.767 24.0838 128.04 24.4682 128.399 24.7459C128.757 25.0195 129.195 25.1564 129.715 25.1564C130.254 25.1564 130.705 25.0135 131.067 24.7277C131.429 24.438 131.703 24.0456 131.888 23.5505C132.077 23.0555 132.172 22.4981 132.172 21.8783C132.172 21.2666 132.079 20.7172 131.894 20.2302C131.713 19.7433 131.439 19.3589 131.073 19.0772C130.711 18.7955 130.258 18.6546 129.715 18.6546C129.191 18.6546 128.749 18.7894 128.386 19.0591C128.028 19.3287 127.757 19.705 127.571 20.188C127.386 20.6709 127.294 21.2344 127.294 21.8783ZM139.923 26.7018C139.054 26.7018 138.295 26.5026 137.647 26.1042C136.999 25.7057 136.496 25.1483 136.138 24.4319C135.78 23.7156 135.601 22.8784 135.601 21.9206C135.601 20.9587 135.78 20.1175 136.138 19.3971C136.496 18.6767 136.999 18.1173 137.647 17.7189C138.295 17.3204 139.054 17.1212 139.923 17.1212C140.792 17.1212 141.551 17.3204 142.199 17.7189C142.847 18.1173 143.35 18.6767 143.708 19.3971C144.066 20.1175 144.245 20.9587 144.245 21.9206C144.245 22.8784 144.066 23.7156 143.708 24.4319C143.35 25.1483 142.847 25.7057 142.199 26.1042C141.551 26.5026 140.792 26.7018 139.923 26.7018ZM139.929 25.1865C140.492 25.1865 140.959 25.0376 141.33 24.7398C141.7 24.442 141.974 24.0456 142.151 23.5505C142.332 23.0555 142.422 22.5102 142.422 21.9145C142.422 21.3229 142.332 20.7796 142.151 20.2846C141.974 19.7855 141.7 19.3851 141.33 19.0832C140.959 18.7814 140.492 18.6304 139.929 18.6304C139.362 18.6304 138.891 18.7814 138.516 19.0832C138.146 19.3851 137.87 19.7855 137.689 20.2846C137.512 20.7796 137.424 21.3229 137.424 21.9145C137.424 22.5102 137.512 23.0555 137.689 23.5505C137.87 24.0456 138.146 24.442 138.516 24.7398C138.891 25.0376 139.362 25.1865 139.929 25.1865ZM146.26 26.5147V17.2419H148.005V18.715H148.102C148.271 18.2159 148.568 17.8235 148.995 17.5378C149.426 17.248 149.913 17.1031 150.456 17.1031C150.569 17.1031 150.701 17.1071 150.854 17.1152C151.011 17.1232 151.134 17.1333 151.223 17.1454V18.8719C151.15 18.8518 151.021 18.8297 150.836 18.8055C150.651 18.7773 150.466 18.7633 150.281 18.7633C149.854 18.7633 149.474 18.8538 149.14 19.0349C148.81 19.212 148.548 19.4595 148.355 19.7775C148.162 20.0914 148.065 20.4496 148.065 20.852V26.5147H146.26ZM157.661 17.2419V18.6908H152.596V17.2419H157.661ZM153.954 15.0204H155.759V23.792C155.759 24.1422 155.812 24.4058 155.916 24.5829C156.021 24.7559 156.156 24.8746 156.321 24.939C156.49 24.9994 156.673 25.0296 156.87 25.0296C157.015 25.0296 157.142 25.0195 157.25 24.9994C157.359 24.9793 157.444 24.9632 157.504 24.9511L157.83 26.4422C157.725 26.4825 157.576 26.5227 157.383 26.563C157.19 26.6072 156.949 26.6314 156.659 26.6354C156.184 26.6435 155.741 26.5589 155.331 26.3819C154.92 26.2048 154.588 25.9311 154.335 25.5608C154.081 25.1906 153.954 24.7257 153.954 24.1663V15.0204Z" fill="#E7CDCD"/>
<path d="M166.753 14.151L169.518 23.2064H169.62L172.385 14.151H175.73L171.558 26.5147H167.58L163.408 14.151H166.753ZM180.283 26.6897C179.313 26.6897 178.476 26.4986 177.772 26.1162C177.071 25.7299 176.532 25.1805 176.154 24.4682C175.779 23.7518 175.592 22.9006 175.592 21.9145C175.592 20.9567 175.781 20.1196 176.16 19.4032C176.538 18.6828 177.071 18.1233 177.759 17.7249C178.448 17.3224 179.259 17.1212 180.192 17.1212C180.852 17.1212 181.456 17.2238 182.003 17.4291C182.551 17.6343 183.024 17.9382 183.422 18.3407C183.821 18.7431 184.13 19.2402 184.352 19.8318C184.573 20.4194 184.684 21.0935 184.684 21.8542V22.5907H176.625V20.8762H181.937C181.933 20.5623 181.859 20.2825 181.714 20.037C181.569 19.7915 181.37 19.6004 181.116 19.4635C180.867 19.3227 180.579 19.2522 180.253 19.2522C179.923 19.2522 179.627 19.3267 179.365 19.4756C179.104 19.6205 178.896 19.8197 178.744 20.0733C178.591 20.3228 178.51 20.6065 178.502 20.9245V22.6691C178.502 23.0475 178.576 23.3795 178.725 23.6652C178.874 23.947 179.086 24.1663 179.359 24.3233C179.633 24.4802 179.959 24.5587 180.337 24.5587C180.599 24.5587 180.836 24.5225 181.05 24.45C181.263 24.3776 181.446 24.2709 181.599 24.1301C181.752 23.9892 181.867 23.8162 181.943 23.6109L184.654 23.6894C184.541 24.2971 184.293 24.8263 183.911 25.2771C183.533 25.7238 183.036 26.072 182.42 26.3215C181.804 26.567 181.092 26.6897 180.283 26.6897ZM189.144 14.151V26.5147H186.192V14.151H189.144ZM195.351 26.6897C194.377 26.6897 193.54 26.4905 192.84 26.0921C192.143 25.6896 191.606 25.1302 191.228 24.4138C190.854 23.6934 190.666 22.8583 190.666 21.9085C190.666 20.9547 190.854 20.1196 191.228 19.4032C191.606 18.6828 192.143 18.1233 192.84 17.7249C193.54 17.3224 194.377 17.1212 195.351 17.1212C196.325 17.1212 197.16 17.3224 197.856 17.7249C198.557 18.1233 199.094 18.6828 199.468 19.4032C199.847 20.1196 200.036 20.9547 200.036 21.9085C200.036 22.8583 199.847 23.6934 199.468 24.4138C199.094 25.1302 198.557 25.6896 197.856 26.0921C197.16 26.4905 196.325 26.6897 195.351 26.6897ZM195.369 24.4621C195.723 24.4621 196.023 24.3535 196.269 24.1361C196.514 23.9188 196.701 23.6169 196.83 23.2306C196.963 22.8442 197.029 22.3975 197.029 21.8904C197.029 21.3752 196.963 20.9245 196.83 20.5381C196.701 20.1517 196.514 19.8499 196.269 19.6326C196.023 19.4152 195.723 19.3066 195.369 19.3066C195.003 19.3066 194.693 19.4152 194.44 19.6326C194.19 19.8499 193.999 20.1517 193.866 20.5381C193.737 20.9245 193.673 21.3752 193.673 21.8904C193.673 22.3975 193.737 22.8442 193.866 23.2306C193.999 23.6169 194.19 23.9188 194.44 24.1361C194.693 24.3535 195.003 24.4621 195.369 24.4621ZM205.876 26.6897C204.899 26.6897 204.059 26.4885 203.359 26.0861C202.663 25.6836 202.128 25.1242 201.753 24.4078C201.379 23.6874 201.192 22.8543 201.192 21.9085C201.192 20.9587 201.379 20.1256 201.753 19.4092C202.132 18.6888 202.669 18.1274 203.365 17.7249C204.065 17.3224 204.901 17.1212 205.87 17.1212C206.728 17.1212 207.474 17.2762 208.11 17.5861C208.75 17.8959 209.249 18.3346 209.607 18.9021C209.97 19.4656 210.161 20.1276 210.181 20.8883H207.422C207.366 20.4133 207.205 20.0411 206.939 19.7714C206.677 19.5018 206.335 19.3669 205.913 19.3669C205.571 19.3669 205.271 19.4635 205.013 19.6567C204.756 19.8459 204.554 20.1276 204.41 20.5019C204.269 20.8722 204.198 21.331 204.198 21.8783C204.198 22.4257 204.269 22.8885 204.41 23.2668C204.554 23.6411 204.756 23.9248 205.013 24.118C205.271 24.3072 205.571 24.4017 205.913 24.4017C206.186 24.4017 206.428 24.3434 206.637 24.2267C206.85 24.11 207.026 23.9389 207.162 23.7135C207.299 23.4841 207.386 23.2064 207.422 22.8804H210.181C210.153 23.6451 209.961 24.3132 209.607 24.8847C209.257 25.4562 208.764 25.9009 208.128 26.2189C207.496 26.5328 206.746 26.6897 205.876 26.6897ZM211.692 26.5147V17.2419H214.644V26.5147H211.692ZM213.171 16.1613C212.756 16.1613 212.4 16.0245 212.102 15.7508C211.804 15.4731 211.655 15.1391 211.655 14.7487C211.655 14.3623 211.804 14.0323 212.102 13.7586C212.4 13.4809 212.756 13.3421 213.171 13.3421C213.589 13.3421 213.945 13.4809 214.239 13.7586C214.537 14.0323 214.686 14.3623 214.686 14.7487C214.686 15.1391 214.537 15.4731 214.239 15.7508C213.945 16.0245 213.589 16.1613 213.171 16.1613ZM221.757 17.2419V19.4152H215.907V17.2419H221.757ZM217.132 15.0204H220.084V23.5988C220.084 23.7799 220.113 23.9268 220.169 24.0395C220.229 24.1482 220.316 24.2267 220.429 24.275C220.541 24.3192 220.676 24.3414 220.833 24.3414C220.946 24.3414 221.064 24.3313 221.189 24.3112C221.318 24.287 221.415 24.2669 221.479 24.2508L221.926 26.3819C221.785 26.4221 221.586 26.4724 221.328 26.5328C221.074 26.5932 220.771 26.6314 220.416 26.6475C219.724 26.6797 219.131 26.5992 218.636 26.406C218.145 26.2088 217.768 25.9029 217.507 25.4884C217.249 25.0739 217.124 24.5527 217.132 23.9248V15.0204ZM225.068 29.9919C224.714 29.9919 224.38 29.9638 224.066 29.9074C223.752 29.8551 223.482 29.7847 223.257 29.6961L223.909 27.553C224.199 27.6496 224.46 27.706 224.694 27.7221C224.931 27.7382 225.134 27.6999 225.303 27.6074C225.476 27.5188 225.609 27.3598 225.702 27.1304L225.816 26.8527L222.52 17.2419H225.611L227.32 23.8584H227.416L229.149 17.2419H232.258L228.762 27.4021C228.593 27.9092 228.354 28.3559 228.044 28.7423C227.738 29.1327 227.342 29.4386 226.855 29.6599C226.372 29.8813 225.776 29.9919 225.068 29.9919Z" fill="white"/>
</g>
</g>
<rect x="1.07973" y="1.08541" width="238.858" height="37.8585" rx="6.92857" stroke="white" stroke-opacity="0.15" stroke-width="2.14286"/>
<defs>
<filter id="filter0_d_33_56" x="1.01007" y="0.413697" width="42.0062" height="41.3036" filterUnits="userSpaceOnUse" color-interpolation-filters="sRGB">
<feFlood flood-opacity="0" result="BackgroundImageFix"/>
<feColorMatrix in="SourceAlpha" type="matrix" values="0 0 0 0 0 0 0 0 0 0 0 0 0 0 0 0 0 0 127 0" result="hardAlpha"/>
<feOffset/>
<feGaussianBlur stdDeviation="2.80014"/>
<feComposite in2="hardAlpha" operator="out"/>
<feColorMatrix type="matrix" values="0 0 0 0 0 0 0 0 0 0 0 0 0 0 0 0 0 0 0.25 0"/>
<feBlend mode="normal" in2="BackgroundImageFix" result="effect1_dropShadow_33_56"/>
<feBlend mode="normal" in="SourceGraphic" in2="effect1_dropShadow_33_56" result="shape"/>
</filter>
<filter id="filter1_d_33_56" x="38.2955" y="3.80039" width="200.429" height="32.4285" filterUnits="userSpaceOnUse" color-interpolation-filters="sRGB">
<feFlood flood-opacity="0" result="BackgroundImageFix"/>
<feColorMatrix in="SourceAlpha" type="matrix" values="0 0 0 0 0 0 0 0 0 0 0 0 0 0 0 0 0 0 127 0" result="hardAlpha"/>
<feOffset/>
<feGaussianBlur stdDeviation="2.85714"/>
<feComposite in2="hardAlpha" operator="out"/>
<feColorMatrix type="matrix" values="0 0 0 0 0 0 0 0 0 0 0 0 0 0 0 0 0 0 0.25 0"/>
<feBlend mode="normal" in2="BackgroundImageFix" result="effect1_dropShadow_33_56"/>
<feBlend mode="normal" in="SourceGraphic" in2="effect1_dropShadow_33_56" result="shape"/>
</filter>
<linearGradient id="paint0_linear_33_56" x1="120.509" y1="0.013977" x2="120.509" y2="40.0154" gradientUnits="userSpaceOnUse">
<stop stop-color="#2C1B1B"/>
<stop offset="1" stop-color="#1F1414"/>
</linearGradient>
<linearGradient id="paint1_linear_33_56" x1="26.9136" y1="17.2146" x2="26.9136" y2="34.0169" gradientUnits="userSpaceOnUse">
<stop stop-color="#FF0000"/>
<stop offset="1" stop-color="#CC0000"/>
</linearGradient>
<clipPath id="clip0_33_56">
<rect x="0.00830078" y="0.0139771" width="241.001" height="40.0014" rx="8" fill="white"/>
</clipPath>
</defs>
</svg>
