<svg width="171" height="28" viewBox="0 0 171 28" fill="none" xmlns="http://www.w3.org/2000/svg">
<g clip-path="url(#clip0_33_49)">
<rect x="0.499023" y="-3.05176e-05" width="170.5" height="28" rx="6" fill="url(#paint0_linear_33_49)"/>
<g filter="url(#filter0_d_33_49)">
<path fill-rule="evenodd" clip-rule="evenodd" d="M12.6265 4.13569C12.2055 4.59299 12.546 4.84796 13.5783 4.84846C14.5163 4.84891 15.3476 4.97693 16.2648 5.26217C16.6224 5.37337 16.624 5.3452 16.2357 5.78859C15.8045 6.28097 15.5032 6.65545 15.2745 6.98323C15.17 7.13306 15.0215 7.34575 14.9446 7.45585C14.0775 8.69753 12.9289 11.3145 12.7531 12.4493C12.7427 12.5167 12.7097 12.6543 12.6798 12.7551C12.6499 12.856 12.5955 13.0886 12.559 13.2721C12.5225 13.4557 12.4571 13.761 12.4138 13.9508C12.3704 14.1406 12.3346 14.3658 12.3341 14.4513C12.3325 14.789 12.2949 14.8284 11.8732 14.9337C9.71066 15.4738 7.93929 16.4259 7.14028 17.4776C6.03613 18.931 6.37522 20.6015 8.02352 21.8284C8.48239 22.17 9.32803 22.6602 9.66212 22.7781C9.78925 22.823 9.97397 22.896 10.0726 22.9404C10.809 23.2711 12.6338 23.7417 13.5515 23.8374C13.6859 23.8515 13.9484 23.8932 14.1347 23.9303C14.3609 23.9753 15.1377 23.9982 16.473 23.9995C18.5591 24.0013 18.4318 24.011 20.1113 23.7226C21.2724 23.5232 22.0142 23.3091 23.2774 22.8091C26.7361 21.4398 27.5342 18.5291 24.9735 16.6238C23.8867 15.8153 22.192 15.1203 20.5279 14.8007C20.3446 14.7655 20.0898 14.7137 19.9617 14.6856C19.8336 14.6575 19.6649 14.6344 19.5868 14.6344C19.411 14.6344 19.395 14.3039 19.5267 13.3937C19.5718 13.0822 19.6478 12.5521 19.6957 12.2157C19.8335 11.2463 20.0974 9.93021 20.217 9.61614C20.249 9.53206 20.2635 9.46325 20.2492 9.46325C20.235 9.46325 20.2579 9.36942 20.3001 9.25472C20.3748 9.05234 20.6302 8.24038 20.6369 8.18433C20.6405 8.15406 20.761 7.83418 20.8358 7.65612C20.8614 7.59497 20.958 7.35981 21.0504 7.13356C21.2687 6.59885 21.803 5.70456 21.9693 5.59542C22.578 5.19622 24.1454 4.85552 25.4011 4.84946C26.3282 4.84496 26.499 4.7718 26.499 4.3791C26.499 3.79534 23.6975 3.92355 22.1665 4.57743C22.0901 4.61005 21.8919 4.69052 21.726 4.75633C20.7582 5.14007 19.5204 8.15391 18.9479 11.5206C18.8881 11.8723 18.8247 12.2852 18.8069 12.4381C18.7892 12.591 18.7521 12.8787 18.7244 13.0775C18.4689 14.9132 18.3947 18.9494 18.6126 19.1607C18.7492 19.2932 19.0203 19.294 19.1948 19.1622C19.2917 19.0891 19.3094 18.9944 19.3337 18.4207L19.3614 17.7631L19.8939 17.9419C20.7636 18.2339 21.2778 18.5751 21.2778 18.8603C21.2778 19.2209 20.1717 19.7885 18.9587 20.0506C18.3258 20.1873 17.7562 20.2941 17.6395 20.298C16.2655 20.3441 15.8751 20.5343 16.1673 21.0152L16.277 21.1957L16.7638 21.1961C17.5186 21.1967 18.649 21.0249 19.5558 20.7718C19.7239 20.7249 19.8988 20.677 19.9447 20.6653C20.7957 20.4491 21.7608 19.8274 21.994 19.3451C22.459 18.3836 21.3631 17.3218 19.5142 16.9424C19.3369 16.9061 19.3337 16.8998 19.3337 16.6003C19.3337 16.3356 19.3466 16.2989 19.4309 16.3243C19.4843 16.3403 19.7281 16.4054 19.9724 16.4688C24.2026 17.5674 24.3325 20.0012 20.2249 21.1978C19.9972 21.2642 19.7472 21.3291 19.6694 21.3421C19.5917 21.3551 19.4906 21.3798 19.4448 21.397C18.517 21.7439 14.4847 21.7439 13.5569 21.397C13.5111 21.3798 13.41 21.3551 13.3323 21.3421C12.8093 21.2546 11.9911 20.9609 11.3351 20.6252C9.15966 19.512 9.20316 18.1304 11.4482 17.0344C12.0461 16.7425 12.068 16.7426 12.0465 17.0371C12.03 17.2636 12.0167 17.2785 11.6406 17.4932C10.4592 18.1676 10.2186 19.1872 11.0765 19.8827C11.945 20.5867 13.4001 20.6388 13.193 19.9585C13.1264 19.7397 12.9961 19.6388 12.78 19.6388C12.2237 19.6388 11.3907 19.1883 11.3907 18.8874C11.3907 18.7851 11.8363 18.3043 11.9311 18.3043C11.9614 18.3043 11.9752 18.3625 11.9616 18.4336C11.9315 18.5909 12.1847 18.916 12.3372 18.916C12.7243 18.916 12.8079 18.707 12.8598 17.6093C12.8991 16.7798 12.9782 15.9041 13.0682 15.3017C13.1025 15.0723 13.1364 14.8221 13.1435 14.7456C13.1679 14.4847 13.2883 13.8844 13.4837 13.0497C14.1372 10.2577 15.1591 8.30744 17.2091 5.93982C17.4916 5.61343 17.7228 5.30812 17.7228 5.26132C17.7228 5.06861 17.5543 4.85612 17.3489 4.78986C17.2338 4.75278 17.1146 4.70344 17.0841 4.68032C16.6901 4.3817 15.1312 4.07083 13.8347 4.03225L12.7515 3.99997L12.6265 4.13569ZM19.9873 4.83065C19.774 4.88655 18.8512 6.30894 18.3124 7.41206C17.9591 8.13554 17.4508 9.43498 17.3607 9.84529C17.3498 9.89513 17.2647 10.2288 17.1718 10.5868C17.0788 10.9449 16.9649 11.4328 16.9187 11.6711C16.8725 11.9094 16.8094 12.2296 16.7785 12.3825C16.7477 12.5354 16.7126 12.7606 16.7007 12.8829C16.6888 13.0053 16.6537 13.2555 16.6228 13.4389C16.5286 13.9967 16.3361 15.9639 16.3071 16.6641C16.2957 16.9393 16.2587 17.6296 16.2249 18.1981C16.1497 19.4649 16.2117 19.6814 16.6335 19.6249C16.9989 19.5759 17.0385 19.4407 17.0787 18.1066C17.1406 16.0454 17.3357 14.0979 17.6744 12.1601C17.8367 11.2313 18.3265 9.47016 18.5867 8.87939C18.6271 8.78766 18.7271 8.54995 18.8089 8.35118C19.0234 7.82997 19.3069 7.27839 19.6325 6.74843C19.7889 6.4939 19.9419 6.24368 19.9724 6.19239C20.003 6.14114 20.136 5.95393 20.268 5.77643C20.7109 5.18105 20.5621 4.67987 19.9873 4.83065ZM18.5283 4.96617C18.0273 5.12375 16.2513 7.94052 15.6751 9.49103C15.4884 9.99357 15.1705 10.9532 15.0764 11.2982C14.8928 11.9716 14.7344 12.6234 14.671 12.9663C14.6343 13.1651 14.5703 13.4904 14.5288 13.6892C14.4874 13.888 14.4278 14.2383 14.3964 14.4676C14.2777 15.3333 14.2051 15.9332 14.2085 16.019C14.2105 16.0679 14.1783 16.4107 14.137 16.7807C13.9358 18.5851 14.0228 19.2738 14.4508 19.2616C14.7564 19.2529 14.8285 19.1232 14.8595 18.5264C14.9148 17.4633 15.0865 15.5396 15.1722 15.0237C15.2001 14.8555 15.2327 14.6161 15.2447 14.4917C15.2566 14.3673 15.2941 14.1296 15.3279 13.9634C15.614 12.5599 15.6397 12.4407 15.7232 12.1273C16.1176 10.647 16.5575 9.46461 17.1268 8.35513C17.4572 7.71117 18.3359 6.371 18.6788 5.98796C19.0996 5.51805 19.1599 5.28074 18.9196 5.04018C18.7703 4.8907 18.7689 4.89045 18.5283 4.96617ZM20.5733 15.6698C21.8849 15.9775 23.1375 16.4651 24.1611 17.0665C25.3332 17.7551 25.9254 19.0126 25.5097 19.9304C24.9758 21.1093 22.7225 22.4049 20.5534 22.7802C20.4477 22.7985 20.2738 22.8357 20.1668 22.8628C19.9654 22.9139 19.5706 22.9759 18.6671 23.0982C18.3374 23.1429 17.5246 23.1697 16.5008 23.1697C15.4771 23.1697 14.6643 23.1429 14.3346 23.0982C13.431 22.9759 13.0363 22.9139 12.8348 22.8628C12.7279 22.8357 12.554 22.7985 12.4483 22.7802C11.7416 22.658 10.4699 22.2276 9.71661 21.8558C6.51999 20.2781 6.55109 18.1247 9.7931 16.5586C10.3747 16.2777 11.5719 15.8534 11.9878 15.7808C12.2067 15.7426 12.2309 15.8403 12.0155 15.8929C11.9315 15.9135 11.6437 16.0248 11.3759 16.1404C7.72917 17.7147 8.17884 20.683 12.2516 21.9208C12.3738 21.9579 12.5737 22.02 12.696 22.0588C12.8182 22.0976 13.0806 22.1589 13.2792 22.195C13.4778 22.2311 13.7527 22.2819 13.8902 22.308C15.324 22.5797 17.6777 22.5797 19.1115 22.308C19.2489 22.2819 19.5239 22.2311 19.7225 22.195C19.9211 22.1589 20.1835 22.0976 20.3057 22.0588C20.4279 22.02 20.6279 21.9577 20.7501 21.9204C25.5935 20.4409 25.0946 16.7669 19.8891 15.5812C19.7505 15.5496 19.7317 15.5351 19.8234 15.5305C19.8943 15.527 20.2317 15.5897 20.5733 15.6698Z" fill="white"/>
<g opacity="0.7">
<mask id="path-4-outside-1_33_49" maskUnits="userSpaceOnUse" x="12" y="10" width="16" height="16" fill="black">
<rect fill="white" x="12" y="10" width="16" height="16"/>
<path fill-rule="evenodd" clip-rule="evenodd" d="M15.5265 12.1465C15.3313 11.9512 15.0147 11.9512 14.8194 12.1465L14.1471 12.8188C13.9519 13.0141 13.9519 13.3307 14.1471 13.5259L18.6221 18.0012L14.1465 22.4752C13.9512 22.6704 13.9512 22.9869 14.1465 23.1822L14.8189 23.8544C15.0142 24.0496 15.3309 24.0496 15.5262 23.8544L20.0015 19.3807L24.4751 23.8546C24.6704 24.0499 24.9869 24.0499 25.1822 23.8546L25.8545 23.1822C26.0497 22.987 26.0497 22.6704 25.8545 22.4751L21.3812 18.0015L25.8564 13.5279C26.0517 13.3327 26.0517 13.0162 25.8564 12.821L25.1839 12.1488C24.9886 11.9535 24.672 11.9535 24.4767 12.1488L20.0018 16.622L15.5265 12.1465Z"/>
</mask>
<path fill-rule="evenodd" clip-rule="evenodd" d="M15.5265 12.1465C15.3313 11.9512 15.0147 11.9512 14.8194 12.1465L14.1471 12.8188C13.9519 13.0141 13.9519 13.3307 14.1471 13.5259L18.6221 18.0012L14.1465 22.4752C13.9512 22.6704 13.9512 22.9869 14.1465 23.1822L14.8189 23.8544C15.0142 24.0496 15.3309 24.0496 15.5262 23.8544L20.0015 19.3807L24.4751 23.8546C24.6704 24.0499 24.9869 24.0499 25.1822 23.8546L25.8545 23.1822C26.0497 22.987 26.0497 22.6704 25.8545 22.4751L21.3812 18.0015L25.8564 13.5279C26.0517 13.3327 26.0517 13.0162 25.8564 12.821L25.1839 12.1488C24.9886 11.9535 24.672 11.9535 24.4767 12.1488L20.0018 16.622L15.5265 12.1465Z" fill="url(#paint1_linear_33_49)"/>
<path d="M14.8194 12.1465L15.8801 13.2071L15.8801 13.2071L14.8194 12.1465ZM15.5265 12.1465L14.4658 13.2071L14.4658 13.2071L15.5265 12.1465ZM14.1471 12.8188L13.0864 11.7582L13.0864 11.7582L14.1471 12.8188ZM14.1471 13.5259L13.0864 14.5866L13.0864 14.5866L14.1471 13.5259ZM18.6221 18.0012L19.6826 19.0621L20.7436 18.0014L19.6828 16.9406L18.6221 18.0012ZM14.1465 22.4752L13.086 21.4143L13.086 21.4143L14.1465 22.4752ZM14.1465 23.1822L13.086 24.243L13.086 24.243L14.1465 23.1822ZM14.8189 23.8544L15.8794 22.7935L15.8794 22.7935L14.8189 23.8544ZM15.5262 23.8544L14.4657 22.7935L14.4657 22.7935L15.5262 23.8544ZM20.0015 19.3807L21.0622 18.32L20.0017 17.2595L18.941 18.3198L20.0015 19.3807ZM24.4751 23.8546L23.4144 24.9152L23.4144 24.9152L24.4751 23.8546ZM25.1822 23.8546L24.1215 22.794L24.1215 22.794L25.1822 23.8546ZM25.8545 23.1822L24.7938 22.1216L24.7938 22.1216L25.8545 23.1822ZM25.8545 22.4751L26.9152 21.4145L26.9152 21.4145L25.8545 22.4751ZM21.3812 18.0015L20.3207 16.9406L19.2597 18.0013L20.3205 19.0621L21.3812 18.0015ZM25.8564 13.5279L24.7959 12.4671L24.7959 12.4671L25.8564 13.5279ZM25.8564 12.821L24.7959 13.8818L24.7959 13.8818L25.8564 12.821ZM25.1839 12.1488L26.2444 11.0879L26.2444 11.0879L25.1839 12.1488ZM24.4767 12.1488L23.4162 11.0879L23.4162 11.0879L24.4767 12.1488ZM20.0018 16.622L18.9411 17.6826L20.0016 18.7432L21.0623 17.6829L20.0018 16.622ZM15.8801 13.2071C15.4896 13.5976 14.8564 13.5976 14.4658 13.2071L16.5872 11.0858C15.8062 10.3047 14.5398 10.3047 13.7587 11.0858L15.8801 13.2071ZM15.2078 13.8794L15.8801 13.2071L13.7587 11.0858L13.0864 11.7582L15.2078 13.8794ZM15.2078 12.4653C15.5983 12.8558 15.5983 13.4889 15.2078 13.8794L13.0864 11.7582C12.3055 12.5392 12.3055 13.8055 13.0864 14.5866L15.2078 12.4653ZM19.6828 16.9406L15.2078 12.4653L13.0864 14.5866L17.5614 19.0618L19.6828 16.9406ZM15.2069 23.5361L19.6826 19.0621L17.5616 16.9403L13.086 21.4143L15.2069 23.5361ZM15.2069 22.1213C15.5977 22.5119 15.5977 23.1454 15.2069 23.536L13.086 21.4143C12.3047 22.1954 12.3047 23.462 13.086 24.243L15.2069 22.1213ZM15.8794 22.7935L15.2069 22.1213L13.086 24.243L13.7585 24.9152L15.8794 22.7935ZM14.4657 22.7935C14.8561 22.4032 15.4889 22.4032 15.8794 22.7935L13.7585 24.9152C14.5395 25.696 15.8056 25.696 16.5866 24.9152L14.4657 22.7935ZM18.941 18.3198L14.4657 22.7935L16.5866 24.9152L21.062 20.4415L18.941 18.3198ZM25.5358 22.794L21.0622 18.32L18.9408 20.4413L23.4144 24.9152L25.5358 22.794ZM24.1215 22.794C24.512 22.4034 25.1453 22.4034 25.5358 22.794L23.4144 24.9152C24.1955 25.6963 25.4618 25.6963 26.2429 24.9152L24.1215 22.794ZM24.7938 22.1216L24.1215 22.794L26.2429 24.9152L26.9152 24.2429L24.7938 22.1216ZM24.7938 23.5357C24.4033 23.1452 24.4033 22.5121 24.7938 22.1216L26.9152 24.2429C27.6962 23.4618 27.6962 22.1955 26.9152 21.4145L24.7938 23.5357ZM20.3205 19.0621L24.7938 23.5357L26.9152 21.4145L22.4419 16.9409L20.3205 19.0621ZM24.7959 12.4671L20.3207 16.9406L22.4416 19.0624L26.9168 14.5888L24.7959 12.4671ZM24.7959 13.8818C24.4052 13.4912 24.4052 12.8577 24.7959 12.4671L26.9168 14.5888C27.6982 13.8077 27.6982 12.5412 26.9168 11.7601L24.7959 13.8818ZM24.1235 13.2096L24.7959 13.8818L26.9168 11.7601L26.2444 11.0879L24.1235 13.2096ZM25.5371 13.2096C25.1467 13.5999 24.5139 13.5999 24.1235 13.2096L26.2444 11.0879C25.4633 10.3072 24.1973 10.3072 23.4162 11.0879L25.5371 13.2096ZM21.0623 17.6829L25.5372 13.2096L23.4162 11.0879L18.9413 15.5612L21.0623 17.6829ZM14.4658 13.2071L18.9411 17.6826L21.0625 15.5614L16.5872 11.0858L14.4658 13.2071Z" fill="black" mask="url(#path-4-outside-1_33_49)"/>
</g>
</g>
<g filter="url(#filter1_d_33_49)">
<path d="M34.9443 18.5L32.7256 10.5H33.9951L35.5537 16.6953H35.6279L37.249 10.5H38.5068L40.1279 16.6992H40.2021L41.7568 10.5H43.0303L40.8076 18.5H39.5928L37.9092 12.5078H37.8467L36.1631 18.5H34.9443ZM45.9736 18.6211C45.4111 18.6211 44.9202 18.4922 44.501 18.2343C44.0817 17.9765 43.7562 17.6159 43.5244 17.1523C43.2926 16.6888 43.1768 16.1471 43.1768 15.5273C43.1768 14.9049 43.2926 14.3606 43.5244 13.8945C43.7562 13.4284 44.0817 13.0664 44.501 12.8086C44.9202 12.5507 45.4111 12.4218 45.9736 12.4218C46.5361 12.4218 47.027 12.5507 47.4463 12.8086C47.8656 13.0664 48.1911 13.4284 48.4228 13.8945C48.6546 14.3606 48.7705 14.9049 48.7705 15.5273C48.7705 16.1471 48.6546 16.6888 48.4228 17.1523C48.1911 17.6159 47.8656 17.9765 47.4463 18.2343C47.027 18.4922 46.5361 18.6211 45.9736 18.6211ZM45.9775 17.6406C46.3421 17.6406 46.6442 17.5442 46.8838 17.3515C47.1234 17.1588 47.3005 16.9023 47.415 16.582C47.5322 16.2617 47.5908 15.9088 47.5908 15.5234C47.5908 15.1406 47.5322 14.789 47.415 14.4687C47.3005 14.1458 47.1234 13.8867 46.8838 13.6914C46.6442 13.4961 46.3421 13.3984 45.9775 13.3984C45.6103 13.3984 45.3057 13.4961 45.0635 13.6914C44.8239 13.8867 44.6455 14.1458 44.5283 14.4687C44.4137 14.789 44.3564 15.1406 44.3564 15.5234C44.3564 15.9088 44.4137 16.2617 44.5283 16.582C44.6455 16.9023 44.8239 17.1588 45.0635 17.3515C45.3057 17.5442 45.6103 17.6406 45.9775 17.6406ZM51.2422 14.9375V18.5H50.0742V12.5H51.1953V13.4765H51.2695C51.4075 13.1588 51.6237 12.9036 51.918 12.7109C52.2148 12.5182 52.5885 12.4218 53.0391 12.4218C53.4479 12.4218 53.806 12.5078 54.1133 12.6797C54.4206 12.8489 54.6588 13.1015 54.8281 13.4375C54.9974 13.7734 55.082 14.1888 55.082 14.6836V18.5H53.9141V14.8242C53.9141 14.3893 53.8008 14.0494 53.5742 13.8047C53.3477 13.5573 53.0365 13.4336 52.6406 13.4336C52.3698 13.4336 52.1289 13.4922 51.918 13.6093C51.7096 13.7265 51.5443 13.8984 51.4219 14.125C51.3021 14.3489 51.2422 14.6198 51.2422 14.9375ZM57.6523 10.5V11.25C57.6523 11.4713 57.6107 11.7044 57.5273 11.9492C57.4466 12.1914 57.332 12.4244 57.1836 12.6484C57.0351 12.8724 56.8607 13.0651 56.6601 13.2265L56.082 12.8125C56.2357 12.5885 56.3685 12.3502 56.4805 12.0976C56.595 11.845 56.6523 11.5664 56.6523 11.2617V10.5H57.6523ZM61.8125 12.5V13.4375H58.5351V12.5H61.8125ZM59.4141 11.0625H60.582V16.7382C60.582 16.9648 60.6159 17.1354 60.6836 17.25C60.7513 17.3619 60.8385 17.4388 60.9453 17.4804C61.0547 17.5195 61.1732 17.539 61.3008 17.539C61.3945 17.539 61.4766 17.5325 61.5469 17.5195C61.6172 17.5065 61.6719 17.4961 61.7109 17.4882L61.9219 18.4531C61.8542 18.4791 61.7578 18.5052 61.6328 18.5312C61.5078 18.5599 61.3516 18.5755 61.1641 18.5781C60.8568 18.5833 60.5703 18.5286 60.3047 18.414C60.0391 18.2994 59.8242 18.1224 59.6601 17.8828C59.4961 17.6432 59.4141 17.3424 59.4141 16.9804V11.0625ZM70.5117 13.9648L69.4531 14.1523C69.4088 14.0169 69.3385 13.888 69.2422 13.7656C69.1484 13.6432 69.0208 13.5429 68.8594 13.4648C68.6979 13.3867 68.4961 13.3476 68.2539 13.3476C67.9232 13.3476 67.6471 13.4218 67.4258 13.5703C67.2044 13.7161 67.0937 13.9049 67.0937 14.1367C67.0937 14.3372 67.168 14.4987 67.3164 14.6211C67.4648 14.7435 67.7044 14.8437 68.0351 14.9218L68.9883 15.1406C69.5404 15.2682 69.9518 15.4648 70.2226 15.7304C70.4935 15.9961 70.6289 16.3411 70.6289 16.7656C70.6289 17.125 70.5247 17.4453 70.3164 17.7265C70.1107 18.0052 69.8229 18.2239 69.4531 18.3828C69.0859 18.5416 68.6601 18.6211 68.1758 18.6211C67.5039 18.6211 66.9557 18.4778 66.5312 18.1914C66.1068 17.9023 65.8463 17.4922 65.75 16.9609L66.8789 16.789C66.9492 17.0833 67.0937 17.306 67.3125 17.457C67.5312 17.6054 67.8164 17.6797 68.168 17.6797C68.5508 17.6797 68.8568 17.6002 69.0859 17.4414C69.3151 17.2799 69.4297 17.0833 69.4297 16.8515C69.4297 16.664 69.3594 16.5065 69.2187 16.3789C69.0807 16.2513 68.8685 16.1549 68.582 16.0898L67.5664 15.8672C67.0065 15.7396 66.5924 15.5364 66.3242 15.2578C66.0586 14.9791 65.9258 14.6263 65.9258 14.1992C65.9258 13.845 66.0247 13.5351 66.2226 13.2695C66.4206 13.0039 66.694 12.7968 67.043 12.6484C67.3919 12.4974 67.7917 12.4218 68.2422 12.4218C68.8906 12.4218 69.401 12.5625 69.7734 12.8437C70.1458 13.1224 70.3919 13.4961 70.5117 13.9648ZM75.7139 16.0117V12.5H76.8857V18.5H75.7373V17.4609H75.6748C75.5368 17.7812 75.3154 18.0481 75.0107 18.2617C74.7086 18.4726 74.3323 18.5781 73.8818 18.5781C73.4964 18.5781 73.1553 18.4935 72.8584 18.3242C72.5641 18.1523 72.3323 17.8984 72.1631 17.5625C71.9964 17.2265 71.9131 16.8112 71.9131 16.3164V12.5H73.081V16.1757C73.081 16.5846 73.1943 16.9101 73.4209 17.1523C73.6474 17.3945 73.9417 17.5156 74.3037 17.5156C74.5224 17.5156 74.7399 17.4609 74.956 17.3515C75.1748 17.2422 75.3558 17.0768 75.499 16.8554C75.6448 16.6341 75.7165 16.3528 75.7139 16.0117ZM78.4551 20.75V12.5H79.5957V13.4726H79.6933C79.7611 13.3476 79.8587 13.2031 79.9863 13.039C80.1139 12.875 80.291 12.7317 80.5176 12.6093C80.7441 12.4843 81.0436 12.4218 81.416 12.4218C81.9004 12.4218 82.3327 12.5442 82.7129 12.789C83.0931 13.0338 83.3913 13.3867 83.6074 13.8476C83.8262 14.3086 83.9355 14.8632 83.9355 15.5117C83.9355 16.1601 83.8275 16.7161 83.6113 17.1797C83.3952 17.6406 83.0983 17.9961 82.7207 18.2461C82.3431 18.4935 81.9121 18.6172 81.4277 18.6172C81.0631 18.6172 80.765 18.556 80.5332 18.4336C80.304 18.3112 80.1243 18.1679 79.9941 18.0039C79.8639 17.8398 79.7637 17.694 79.6933 17.5664H79.623V20.75H78.4551ZM79.5996 15.5C79.5996 15.9218 79.6608 16.2916 79.7832 16.6093C79.9056 16.927 80.0827 17.1757 80.3144 17.3554C80.5462 17.5325 80.8301 17.6211 81.166 17.6211C81.515 17.6211 81.8066 17.5286 82.041 17.3437C82.2754 17.1562 82.4525 16.9023 82.5723 16.582C82.6946 16.2617 82.7558 15.901 82.7558 15.5C82.7558 15.1041 82.6959 14.7487 82.5762 14.4336C82.459 14.1185 82.2819 13.8698 82.0449 13.6875C81.8105 13.5052 81.5176 13.414 81.166 13.414C80.8275 13.414 80.541 13.5013 80.3066 13.6757C80.0749 13.8502 79.8991 14.0937 79.7793 14.4062C79.6595 14.7187 79.5996 15.0833 79.5996 15.5ZM85.2441 20.75V12.5H86.3847V13.4726H86.4824C86.5501 13.3476 86.6478 13.2031 86.7754 13.039C86.903 12.875 87.0801 12.7317 87.3066 12.6093C87.5332 12.4843 87.8327 12.4218 88.2051 12.4218C88.6894 12.4218 89.1217 12.5442 89.5019 12.789C89.8821 13.0338 90.1803 13.3867 90.3965 13.8476C90.6152 14.3086 90.7246 14.8632 90.7246 15.5117C90.7246 16.1601 90.6165 16.7161 90.4004 17.1797C90.1842 17.6406 89.8874 17.9961 89.5097 18.2461C89.1321 18.4935 88.7012 18.6172 88.2168 18.6172C87.8522 18.6172 87.554 18.556 87.3222 18.4336C87.0931 18.3112 86.9134 18.1679 86.7832 18.0039C86.653 17.8398 86.5527 17.694 86.4824 17.5664H86.4121V20.75H85.2441ZM86.3887 15.5C86.3887 15.9218 86.4499 16.2916 86.5722 16.6093C86.6946 16.927 86.8717 17.1757 87.1035 17.3554C87.3353 17.5325 87.6191 17.6211 87.9551 17.6211C88.304 17.6211 88.5957 17.5286 88.8301 17.3437C89.0644 17.1562 89.2415 16.9023 89.3613 16.582C89.4837 16.2617 89.5449 15.901 89.5449 15.5C89.5449 15.1041 89.485 14.7487 89.3652 14.4336C89.248 14.1185 89.0709 13.8698 88.834 13.6875C88.5996 13.5052 88.3066 13.414 87.9551 13.414C87.6165 13.414 87.3301 13.5013 87.0957 13.6757C86.8639 13.8502 86.6881 14.0937 86.5683 14.4062C86.4486 14.7187 86.3887 15.0833 86.3887 15.5ZM94.5605 18.6211C93.998 18.6211 93.5071 18.4922 93.0879 18.2343C92.6686 17.9765 92.3431 17.6159 92.1113 17.1523C91.8795 16.6888 91.7637 16.1471 91.7637 15.5273C91.7637 14.9049 91.8795 14.3606 92.1113 13.8945C92.3431 13.4284 92.6686 13.0664 93.0879 12.8086C93.5071 12.5507 93.998 12.4218 94.5605 12.4218C95.123 12.4218 95.6139 12.5507 96.0332 12.8086C96.4525 13.0664 96.778 13.4284 97.0097 13.8945C97.2415 14.3606 97.3574 14.9049 97.3574 15.5273C97.3574 16.1471 97.2415 16.6888 97.0097 17.1523C96.778 17.6159 96.4525 17.9765 96.0332 18.2343C95.6139 18.4922 95.123 18.6211 94.5605 18.6211ZM94.5644 17.6406C94.929 17.6406 95.2311 17.5442 95.4707 17.3515C95.7103 17.1588 95.8874 16.9023 96.0019 16.582C96.1191 16.2617 96.1777 15.9088 96.1777 15.5234C96.1777 15.1406 96.1191 14.789 96.0019 14.4687C95.8874 14.1458 95.7103 13.8867 95.4707 13.6914C95.2311 13.4961 94.929 13.3984 94.5644 13.3984C94.1972 13.3984 93.8926 13.4961 93.6504 13.6914C93.4108 13.8867 93.2324 14.1458 93.1152 14.4687C93.0006 14.789 92.9433 15.1406 92.9433 15.5234C92.9433 15.9088 93.0006 16.2617 93.1152 16.582C93.2324 16.9023 93.4108 17.1588 93.6504 17.3515C93.8926 17.5442 94.1972 17.6406 94.5644 17.6406ZM98.6611 18.5V12.5H99.79V13.4531H99.8525C99.9619 13.1302 100.155 12.8763 100.431 12.6914C100.709 12.5039 101.024 12.4101 101.376 12.4101C101.449 12.4101 101.535 12.4127 101.634 12.4179C101.735 12.4231 101.815 12.4297 101.872 12.4375V13.5547C101.825 13.5416 101.742 13.5273 101.622 13.5117C101.502 13.4935 101.382 13.4843 101.263 13.4843C100.987 13.4843 100.741 13.5429 100.524 13.6601C100.311 13.7747 100.142 13.9349 100.017 14.1406C99.8916 14.3437 99.8291 14.5755 99.8291 14.8359V18.5H98.6611ZM106.038 12.5V13.4375H102.761V12.5H106.038ZM103.64 11.0625H104.808V16.7382C104.808 16.9648 104.841 17.1354 104.909 17.25C104.977 17.3619 105.064 17.4388 105.171 17.4804C105.28 17.5195 105.399 17.539 105.526 17.539C105.62 17.539 105.702 17.5325 105.772 17.5195C105.843 17.5065 105.897 17.4961 105.937 17.4882L106.147 18.4531C106.08 18.4791 105.983 18.5052 105.858 18.5312C105.733 18.5599 105.577 18.5755 105.39 18.5781C105.082 18.5833 104.796 18.5286 104.53 18.414C104.265 18.2994 104.05 18.1224 103.886 17.8828C103.722 17.6432 103.64 17.3424 103.64 16.9804V11.0625Z" fill="#E7CDCD"/>
<path d="M112.752 18.5L110.212 9.7727H112.543L113.86 15.4914H113.932L115.437 9.7727H117.337L118.841 15.5042H118.914L120.235 9.7727H122.562L120.026 18.5H117.993L116.421 13.2074H116.353L114.78 18.5H112.752ZM124.552 18.6108C124.134 18.6108 123.763 18.5412 123.439 18.402C123.118 18.2599 122.864 18.0468 122.677 17.7628C122.492 17.4758 122.4 17.1164 122.4 16.6846C122.4 16.321 122.464 16.0142 122.591 15.7642C122.719 15.5142 122.895 15.311 123.12 15.1548C123.344 14.9985 123.603 14.8806 123.895 14.8011C124.188 14.7187 124.5 14.6633 124.833 14.6349C125.205 14.6008 125.505 14.5653 125.732 14.5284C125.959 14.4886 126.124 14.4332 126.226 14.3622C126.331 14.2883 126.384 14.1846 126.384 14.0511V14.0298C126.384 13.811 126.309 13.642 126.158 13.5227C126.008 13.4034 125.804 13.3437 125.549 13.3437C125.273 13.3437 125.052 13.4034 124.884 13.5227C124.716 13.642 124.61 13.8068 124.564 14.017L122.642 13.9488C122.699 13.5511 122.846 13.196 123.081 12.8835C123.32 12.5681 123.647 12.321 124.062 12.142C124.479 11.9602 124.981 11.8693 125.566 11.8693C125.983 11.8693 126.368 11.919 126.721 12.0184C127.073 12.115 127.38 12.2571 127.641 12.4446C127.902 12.6292 128.104 12.8565 128.246 13.1264C128.391 13.3963 128.464 13.7045 128.464 14.0511V18.5H126.503V17.588H126.452C126.336 17.8096 126.187 17.9971 126.005 18.1505C125.826 18.3039 125.614 18.419 125.37 18.4957C125.128 18.5724 124.856 18.6108 124.552 18.6108ZM125.195 17.2471C125.419 17.2471 125.621 17.2017 125.8 17.1108C125.982 17.0199 126.127 16.8949 126.235 16.7358C126.343 16.5738 126.397 16.3863 126.397 16.1733V15.5511C126.337 15.5824 126.265 15.6108 126.179 15.6363C126.097 15.6619 126.006 15.686 125.907 15.7088C125.807 15.7315 125.705 15.7514 125.6 15.7684C125.495 15.7855 125.394 15.8011 125.297 15.8153C125.101 15.8466 124.934 15.8949 124.794 15.9602C124.658 16.0255 124.553 16.1108 124.479 16.2159C124.408 16.3181 124.373 16.4403 124.373 16.5824C124.373 16.7983 124.449 16.963 124.603 17.0767C124.759 17.1903 124.956 17.2471 125.195 17.2471ZM133.432 11.9545V13.4886H129.303V11.9545H133.432ZM130.168 10.3863H132.252V16.4417C132.252 16.5696 132.272 16.6733 132.312 16.7528C132.354 16.8295 132.415 16.8849 132.495 16.919C132.574 16.9503 132.669 16.9659 132.78 16.9659C132.86 16.9659 132.944 16.9588 133.032 16.9446C133.123 16.9275 133.191 16.9133 133.236 16.902L133.552 18.4062C133.452 18.4346 133.312 18.4701 133.13 18.5128C132.951 18.5554 132.736 18.5824 132.486 18.5937C131.998 18.6164 131.579 18.5596 131.229 18.4233C130.883 18.2841 130.617 18.0681 130.432 17.7755C130.25 17.4829 130.162 17.115 130.168 16.6718V10.3863ZM137.485 18.6235C136.8 18.6235 136.209 18.4886 135.712 18.2187C135.218 17.946 134.837 17.5582 134.57 17.0554C134.306 16.5497 134.174 15.9488 134.174 15.2528C134.174 14.5767 134.307 13.9858 134.574 13.4801C134.841 12.9716 135.218 12.5767 135.704 12.2954C136.189 12.0113 136.762 11.8693 137.421 11.8693C137.887 11.8693 138.313 11.9417 138.699 12.0866C139.086 12.2315 139.419 12.446 139.701 12.7301C139.982 13.0142 140.201 13.365 140.357 13.7826C140.513 14.1974 140.591 14.6733 140.591 15.2102V15.7301H134.902V14.5199H138.652C138.65 14.2983 138.597 14.1008 138.495 13.9275C138.392 13.7542 138.252 13.6193 138.073 13.5227C137.897 13.4233 137.694 13.3735 137.464 13.3735C137.231 13.3735 137.022 13.4261 136.837 13.5312C136.652 13.6335 136.506 13.7741 136.398 13.9531C136.29 14.1292 136.233 14.3295 136.228 14.5539V15.7855C136.228 16.0525 136.28 16.2869 136.385 16.4886C136.49 16.6875 136.64 16.8423 136.833 16.9531C137.026 17.0639 137.256 17.1193 137.523 17.1193C137.708 17.1193 137.875 17.0937 138.026 17.0426C138.177 16.9914 138.306 16.9162 138.414 16.8167C138.522 16.7173 138.603 16.5951 138.657 16.4503L140.57 16.5056C140.49 16.9346 140.316 17.3082 140.046 17.6264C139.779 17.9417 139.428 18.1875 138.993 18.3636C138.559 18.5369 138.056 18.6235 137.485 18.6235ZM141.656 18.5V11.9545H143.68V13.1477H143.748C143.867 12.7159 144.062 12.3949 144.332 12.1846C144.602 11.9716 144.916 11.865 145.274 11.865C145.37 11.865 145.47 11.8721 145.572 11.8863C145.674 11.8977 145.769 11.9162 145.857 11.9417V13.7528C145.758 13.7187 145.627 13.6917 145.465 13.6718C145.306 13.652 145.164 13.642 145.039 13.642C144.792 13.642 144.569 13.6974 144.37 13.8082C144.174 13.9162 144.019 14.0681 143.906 14.2642C143.795 14.4574 143.739 14.6846 143.739 14.946V18.5H141.656ZM150.731 11.9545V13.4886H146.521V11.9545H150.731ZM147.399 18.5V11.6221C147.399 11.1164 147.494 10.6974 147.684 10.365C147.875 10.0298 148.139 9.7798 148.477 9.61503C148.815 9.44741 149.206 9.3636 149.649 9.3636C149.939 9.3636 150.211 9.38633 150.467 9.43179C150.726 9.4744 150.917 9.51275 151.042 9.54684L150.71 11.0724C150.633 11.0468 150.539 11.0255 150.429 11.0085C150.321 10.9914 150.218 10.9829 150.122 10.9829C149.878 10.9829 149.71 11.0369 149.619 11.1449C149.528 11.2528 149.483 11.4005 149.483 11.588V18.5H147.399ZM153.321 18.6108C152.903 18.6108 152.533 18.5412 152.209 18.402C151.888 18.2599 151.634 18.0468 151.446 17.7628C151.261 17.4758 151.169 17.1164 151.169 16.6846C151.169 16.321 151.233 16.0142 151.361 15.7642C151.489 15.5142 151.665 15.311 151.889 15.1548C152.114 14.9985 152.372 14.8806 152.665 14.8011C152.957 14.7187 153.27 14.6633 153.602 14.6349C153.975 14.6008 154.274 14.5653 154.501 14.5284C154.729 14.4886 154.894 14.4332 154.996 14.3622C155.101 14.2883 155.153 14.1846 155.153 14.0511V14.0298C155.153 13.811 155.078 13.642 154.928 13.5227C154.777 13.4034 154.574 13.3437 154.318 13.3437C154.043 13.3437 153.821 13.4034 153.653 13.5227C153.486 13.642 153.379 13.8068 153.334 14.017L151.412 13.9488C151.469 13.5511 151.615 13.196 151.851 12.8835C152.09 12.5681 152.416 12.321 152.831 12.142C153.249 11.9602 153.75 11.8693 154.335 11.8693C154.753 11.8693 155.138 11.919 155.49 12.0184C155.842 12.115 156.149 12.2571 156.411 12.4446C156.672 12.6292 156.874 12.8565 157.016 13.1264C157.161 13.3963 157.233 13.7045 157.233 14.0511V18.5H155.273V17.588H155.222C155.105 17.8096 154.956 17.9971 154.774 18.1505C154.595 18.3039 154.384 18.419 154.139 18.4957C153.898 18.5724 153.625 18.6108 153.321 18.6108ZM153.965 17.2471C154.189 17.2471 154.391 17.2017 154.57 17.1108C154.751 17.0199 154.896 16.8949 155.004 16.7358C155.112 16.5738 155.166 16.3863 155.166 16.1733V15.5511C155.107 15.5824 155.034 15.6108 154.949 15.6363C154.867 15.6619 154.776 15.686 154.676 15.7088C154.577 15.7315 154.475 15.7514 154.369 15.7684C154.264 15.7855 154.163 15.8011 154.067 15.8153C153.871 15.8466 153.703 15.8949 153.564 15.9602C153.428 16.0255 153.323 16.1108 153.249 16.2159C153.178 16.3181 153.142 16.4403 153.142 16.5824C153.142 16.7983 153.219 16.963 153.372 17.0767C153.528 17.1903 153.726 17.2471 153.965 17.2471ZM160.591 9.7727V18.5H158.507V9.7727H160.591ZM164.001 9.7727V18.5H161.917V9.7727H164.001Z" fill="white"/>
</g>
</g>
<rect x="1.24902" y="0.749969" width="169" height="26.5" rx="5.25" stroke="white" stroke-opacity="0.15" stroke-width="1.5"/>
<defs>
<filter id="filter0_d_33_49" x="2.49902" y="-3.05176e-05" width="29.0039" height="29.5011" filterUnits="userSpaceOnUse" color-interpolation-filters="sRGB">
<feFlood flood-opacity="0" result="BackgroundImageFix"/>
<feColorMatrix in="SourceAlpha" type="matrix" values="0 0 0 0 0 0 0 0 0 0 0 0 0 0 0 0 0 0 127 0" result="hardAlpha"/>
<feOffset/>
<feGaussianBlur stdDeviation="2"/>
<feComposite in2="hardAlpha" operator="out"/>
<feColorMatrix type="matrix" values="0 0 0 0 0 0 0 0 0 0 0 0 0 0 0 0 0 0 0.25 0"/>
<feBlend mode="normal" in2="BackgroundImageFix" result="effect1_dropShadow_33_49"/>
<feBlend mode="normal" in="SourceGraphic" in2="effect1_dropShadow_33_49" result="shape"/>
</filter>
<filter id="filter1_d_33_49" x="28.499" y="3.49997" width="140.5" height="21.25" filterUnits="userSpaceOnUse" color-interpolation-filters="sRGB">
<feFlood flood-opacity="0" result="BackgroundImageFix"/>
<feColorMatrix in="SourceAlpha" type="matrix" values="0 0 0 0 0 0 0 0 0 0 0 0 0 0 0 0 0 0 127 0" result="hardAlpha"/>
<feOffset/>
<feGaussianBlur stdDeviation="2"/>
<feComposite in2="hardAlpha" operator="out"/>
<feColorMatrix type="matrix" values="0 0 0 0 0 0 0 0 0 0 0 0 0 0 0 0 0 0 0.25 0"/>
<feBlend mode="normal" in2="BackgroundImageFix" result="effect1_dropShadow_33_49"/>
<feBlend mode="normal" in="SourceGraphic" in2="effect1_dropShadow_33_49" result="shape"/>
</filter>
<linearGradient id="paint0_linear_33_49" x1="85.749" y1="-3.05176e-05" x2="85.749" y2="28" gradientUnits="userSpaceOnUse">
<stop stop-color="#2C1B1B"/>
<stop offset="1" stop-color="#1F1414"/>
</linearGradient>
<linearGradient id="paint1_linear_33_49" x1="20.0014" y1="12" x2="20.0014" y2="24.001" gradientUnits="userSpaceOnUse">
<stop stop-color="#FF0000"/>
<stop offset="1" stop-color="#CC0000"/>
</linearGradient>
<clipPath id="clip0_33_49">
<rect x="0.499023" y="-3.05176e-05" width="170.5" height="28" rx="6" fill="white"/>
</clipPath>
</defs>
</svg>
