<svg width="250" height="41" viewBox="0 0 250 41" fill="none" xmlns="http://www.w3.org/2000/svg">
<g clip-path="url(#clip0_33_49)">
<rect x="0.00830078" y="0.0125732" width="249.001" height="40.0014" rx="8" fill="url(#paint0_linear_33_49)"/>
<g filter="url(#filter0_d_33_49)">
<path fill-rule="evenodd" clip-rule="evenodd" d="M16.5877 6.20259C15.9982 6.84284 16.4749 7.19982 17.9203 7.20052C19.2335 7.20115 20.3974 7.38038 21.6815 7.77975C22.1822 7.93543 22.1844 7.89599 21.6408 8.51676C21.0371 9.20613 20.6153 9.73043 20.2951 10.1893C20.1487 10.3991 19.9409 10.6969 19.8331 10.851C18.6192 12.5895 17.0111 16.2535 16.7649 17.8423C16.7503 17.9366 16.7041 18.1292 16.6623 18.2704C16.6204 18.4116 16.5443 18.7373 16.4932 18.9943C16.442 19.2512 16.3505 19.6787 16.2899 19.9445C16.2291 20.2102 16.179 20.5255 16.1784 20.6451C16.1761 21.118 16.1234 21.1731 15.533 21.3206C12.5053 22.0767 10.0253 23.4098 8.90659 24.8822C7.36071 26.9171 7.83545 29.2558 10.1432 30.9737C10.7856 31.4519 11.9696 32.1382 12.4374 32.3033C12.6153 32.3661 12.874 32.4684 13.012 32.5304C14.043 32.9936 16.5979 33.6523 17.8827 33.7864C18.071 33.806 18.4384 33.8645 18.6993 33.9164C19.0159 33.9794 20.1036 34.0115 21.9731 34.0133C24.8937 34.0159 24.7156 34.0295 27.0669 33.6256C28.6926 33.3464 29.7312 33.0468 31.4997 32.3467C36.3421 30.4296 37.4596 26.3544 33.8744 23.6869C32.3528 22.5548 29.9801 21.5818 27.6502 21.1343C27.3936 21.0851 27.0368 21.0126 26.8575 20.9732C26.6782 20.9338 26.442 20.9016 26.3326 20.9016C26.0865 20.9016 26.0641 20.4388 26.2485 19.1644C26.3116 18.7283 26.418 17.9861 26.485 17.5151C26.678 16.158 27.0475 14.3153 27.2149 13.8756C27.2597 13.7579 27.28 13.6616 27.26 13.6616C27.2401 13.6616 27.2721 13.5302 27.3313 13.3696C27.4358 13.0863 27.7935 11.9494 27.8029 11.871C27.8079 11.8286 27.9765 11.3807 28.0812 11.1314C28.1172 11.0458 28.2524 10.7166 28.3818 10.3998C28.6873 9.65118 29.4354 8.39912 29.6683 8.24631C30.5205 7.6874 32.7149 7.2104 34.4731 7.20192C35.771 7.19562 36.0102 7.09318 36.0102 6.54338C36.0102 5.72608 32.0878 5.90558 29.9443 6.82105C29.8374 6.86673 29.5599 6.9794 29.3277 7.07153C27.9727 7.60879 26.2396 11.8284 25.4381 16.542C25.3544 17.0344 25.2656 17.6124 25.2407 17.8265C25.2159 18.0406 25.1639 18.4435 25.1252 18.7218C24.7675 21.2919 24.6636 26.9428 24.9687 27.2387C25.1599 27.4242 25.5394 27.4252 25.7838 27.2408C25.9194 27.1384 25.9443 27.0058 25.9782 26.2027L26.017 25.2819L26.7626 25.5322C27.9801 25.9411 28.7001 26.4188 28.7001 26.8181C28.7001 27.3229 27.1515 28.1177 25.4533 28.4845C24.5671 28.676 23.7696 28.8256 23.6063 28.831C21.6825 28.8955 21.136 29.1617 21.5451 29.8351L21.6987 30.0878L22.3802 30.0884C23.437 30.0892 25.0196 29.8486 26.2892 29.4943C26.5245 29.4286 26.7694 29.3616 26.8336 29.3452C28.0252 29.0425 29.3763 28.1721 29.7028 27.4968C30.3538 26.1507 28.8195 24.6641 26.2309 24.1329C25.9827 24.082 25.9782 24.0733 25.9782 23.6539C25.9782 23.2833 25.9963 23.232 26.1143 23.2674C26.1891 23.2899 26.5304 23.381 26.8725 23.4699C32.795 25.0079 32.9769 28.4154 27.2259 30.0908C26.9071 30.1837 26.5572 30.2746 26.4483 30.2928C26.3394 30.311 26.1979 30.3455 26.1337 30.3696C24.8348 30.8553 19.1892 30.8553 17.8903 30.3696C17.8262 30.3455 17.6846 30.311 17.5758 30.2928C16.8436 30.1702 15.6981 29.759 14.7797 29.2891C11.7339 27.7305 11.7948 25.7962 14.9379 24.2617C15.7751 23.853 15.8057 23.8532 15.7756 24.2655C15.7525 24.5826 15.7339 24.6035 15.2074 24.9041C13.5534 25.8483 13.2164 27.2758 14.4176 28.2496C15.6336 29.2352 17.6708 29.3082 17.3809 28.3557C17.2876 28.0493 17.1052 27.9081 16.8026 27.9081C16.0237 27.9081 14.8574 27.2773 14.8574 26.856C14.8574 26.7128 15.4813 26.0397 15.6141 26.0397C15.6565 26.0397 15.6758 26.1211 15.6567 26.2206C15.6147 26.441 15.9691 26.896 16.1827 26.896C16.7246 26.896 16.8417 26.6034 16.9144 25.0666C16.9694 23.9052 17.0801 22.6793 17.2061 21.8358C17.2541 21.5146 17.3016 21.1643 17.3116 21.0573C17.3457 20.6919 17.5143 19.8515 17.7878 18.6829C18.7028 14.7738 20.1335 12.0433 23.0036 8.7285C23.3992 8.27153 23.7229 7.84407 23.7229 7.77856C23.7229 7.50874 23.4869 7.21124 23.1994 7.11848C23.0382 7.06656 22.8714 6.99748 22.8286 6.96511C22.2769 6.54703 20.0945 6.11179 18.2792 6.05777L16.7627 6.01257L16.5877 6.20259ZM26.8933 7.17558C26.5947 7.25384 25.3027 9.2453 24.5484 10.7897C24.0537 11.8027 23.3421 13.622 23.2159 14.1964C23.2006 14.2662 23.0816 14.7334 22.9514 15.2347C22.8212 15.736 22.6618 16.4191 22.5971 16.7527C22.5323 17.0864 22.4441 17.5346 22.4008 17.7486C22.3576 17.9628 22.3086 18.2781 22.2919 18.4493C22.2752 18.6206 22.2261 18.9709 22.1827 19.2278C22.0509 20.0087 21.7813 22.7629 21.7407 23.7432C21.7248 24.1285 21.6731 25.095 21.6257 25.891C21.5204 27.6645 21.6072 27.9677 22.1977 27.8885C22.7094 27.8199 22.7648 27.6307 22.8211 25.7629C22.9078 22.877 23.1809 20.1504 23.6551 17.4373C23.8823 16.1369 24.568 13.6712 24.9324 12.8441C24.9889 12.7157 25.129 12.3829 25.2435 12.1046C25.5438 11.3748 25.9407 10.6026 26.3966 9.86061C26.6155 9.50426 26.8297 9.15393 26.8725 9.08211C26.9153 9.01037 27.1015 8.74826 27.2863 8.49974C27.9064 7.66617 27.6981 6.96447 26.8933 7.17558ZM24.8506 7.36532C24.1492 7.58595 21.6626 11.5296 20.856 13.7004C20.5946 14.404 20.1494 15.7475 20.0177 16.2306C19.7606 17.1734 19.5388 18.0859 19.4502 18.5661C19.3987 18.8444 19.3092 19.2998 19.2511 19.5781C19.1931 19.8565 19.1096 20.3469 19.0656 20.668C18.8995 21.88 18.7978 22.7199 18.8026 22.8401C18.8053 22.9086 18.7603 23.3885 18.7025 23.9065C18.4207 26.4328 18.5427 27.397 19.1418 27.38C19.5696 27.3678 19.6706 27.1861 19.714 26.3506C19.7914 24.8622 20.0318 22.1688 20.1518 21.4465C20.1909 21.211 20.2366 20.8759 20.2533 20.7017C20.27 20.5276 20.3224 20.1948 20.3698 19.9621C20.7704 17.9971 20.8064 17.8302 20.9233 17.3915C21.4754 15.3189 22.0914 13.6634 22.8884 12.1101C23.351 11.2085 24.5813 9.33218 25.0614 8.7959C25.6505 8.13799 25.7349 7.80574 25.3985 7.46894C25.1894 7.25966 25.1875 7.25931 24.8506 7.36532ZM27.7138 22.3512C29.55 22.782 31.3038 23.4647 32.7369 24.3066C34.378 25.2707 35.207 27.0313 34.6251 28.3163C33.8775 29.9668 30.7227 31.7807 27.6859 32.3062C27.5379 32.3319 27.2944 32.3839 27.1447 32.4219C26.8626 32.4934 26.31 32.5803 25.0449 32.7515C24.5834 32.814 23.4454 32.8516 22.012 32.8516C20.5787 32.8516 19.4407 32.814 18.9791 32.7515C17.7141 32.5803 17.1615 32.4934 16.8794 32.4219C16.7297 32.3839 16.4861 32.3319 16.3382 32.3062C15.3488 32.1351 13.5683 31.5325 12.5136 31.012C8.03815 28.8031 8.08168 25.7882 12.6207 23.5956C13.435 23.2022 15.1111 22.6082 15.6934 22.5066C16 22.4531 16.0338 22.5899 15.7323 22.6636C15.6147 22.6923 15.2117 22.8482 14.8368 23.01C9.73109 25.2142 10.3607 29.37 16.0628 31.1029C16.2339 31.1549 16.5138 31.2419 16.685 31.2962C16.856 31.3505 17.2235 31.4363 17.5015 31.4868C17.7795 31.5374 18.1645 31.6086 18.357 31.6451C20.3644 32.0255 23.6597 32.0255 25.6671 31.6451C25.8596 31.6086 26.2445 31.5374 26.5225 31.4868C26.8006 31.4363 27.168 31.3505 27.3391 31.2962C27.5102 31.2419 27.7902 31.1547 27.9612 31.1025C34.7425 29.031 34.0439 23.8871 26.7559 22.2271C26.5619 22.1829 26.5355 22.1625 26.6639 22.1561C26.7631 22.1512 27.2355 22.239 27.7138 22.3512Z" fill="white"/>
<g opacity="0.7">
<mask id="path-4-outside-1_33_49" maskUnits="userSpaceOnUse" x="15.5112" y="14.2132" width="22" height="22" fill="black">
<rect fill="white" x="15.5112" y="14.2132" width="22" height="22"/>
<path fill-rule="evenodd" clip-rule="evenodd" d="M20.6485 17.4182C20.3752 17.1448 19.932 17.1448 19.6586 17.4182L18.7173 18.3595C18.4439 18.6329 18.4439 19.0762 18.7173 19.3496L24.9827 25.6153L18.7165 31.8792C18.4431 32.1525 18.4431 32.5957 18.7165 32.869L19.658 33.8101C19.9314 34.0834 20.3747 34.0834 20.6482 33.8101L26.9139 27.5467L33.1772 33.8104C33.4506 34.0838 33.8938 34.0838 34.1672 33.8104L35.1084 32.8691C35.3818 32.5957 35.3818 32.1524 35.1084 31.8791L28.8455 25.6157L35.1112 19.3524C35.3846 19.0791 35.3846 18.6359 35.1112 18.3626L34.1697 17.4214C33.8963 17.1481 33.453 17.1481 33.1795 17.4214L26.9143 23.6844L20.6485 17.4182Z"/>
</mask>
<path fill-rule="evenodd" clip-rule="evenodd" d="M20.6485 17.4182C20.3752 17.1448 19.932 17.1448 19.6586 17.4182L18.7173 18.3595C18.4439 18.6329 18.4439 19.0762 18.7173 19.3496L24.9827 25.6153L18.7165 31.8792C18.4431 32.1525 18.4431 32.5957 18.7165 32.869L19.658 33.8101C19.9314 34.0834 20.3747 34.0834 20.6482 33.8101L26.9139 27.5467L33.1772 33.8104C33.4506 34.0838 33.8938 34.0838 34.1672 33.8104L35.1084 32.8691C35.3818 32.5957 35.3818 32.1524 35.1084 31.8791L28.8455 25.6157L35.1112 19.3524C35.3846 19.0791 35.3846 18.6359 35.1112 18.3626L34.1697 17.4214C33.8963 17.1481 33.453 17.1481 33.1795 17.4214L26.9143 23.6844L20.6485 17.4182Z" fill="url(#paint1_linear_33_49)"/>
<path d="M19.6584 17.4182L18.1733 15.9333L18.1733 15.9333L19.6584 17.4182ZM20.6483 17.4182L19.1633 18.9032L19.1633 18.9032L20.6483 17.4182ZM18.7171 18.3595L17.2321 16.8746L17.2321 16.8746L18.7171 18.3595ZM18.7171 19.3496L17.2321 20.8345L17.2321 20.8345L18.7171 19.3496ZM24.9824 25.6153L26.4672 27.1006L27.9527 25.6157L26.4675 24.1304L24.9824 25.6153ZM18.7163 31.8792L17.2316 30.3939L17.2316 30.3939L18.7163 31.8792ZM18.7163 32.869L20.201 31.3837L20.201 31.3837L18.7163 32.869ZM19.6578 33.8101L18.173 35.2954L18.173 35.2954L19.6578 33.8101ZM20.648 33.8101L19.1632 32.3248L19.1632 32.3248L20.648 33.8101ZM26.9137 27.5467L28.3987 26.0617L26.914 24.5769L25.4289 26.0614L26.9137 27.5467ZM33.177 33.8104L31.6919 35.2954L31.6919 35.2954L33.177 33.8104ZM34.1669 33.8104L35.652 35.2954L35.652 35.2954L34.1669 33.8104ZM35.1082 32.8691L36.5933 34.354L36.5933 34.354L35.1082 32.8691ZM35.1082 31.8791L33.6232 33.364L33.6232 33.364L35.1082 31.8791ZM28.8453 25.6157L27.3606 24.1305L25.8751 25.6154L27.3603 27.1007L28.8453 25.6157ZM35.111 19.3524L33.6262 17.8671L33.6262 17.8671L35.111 19.3524ZM35.111 18.3626L36.5957 16.8773L36.5957 16.8773L35.111 18.3626ZM34.1695 17.4214L35.6542 15.9362L35.6542 15.9362L34.1695 17.4214ZM33.1793 17.4214L31.6946 15.9362L31.6946 15.9362L33.1793 17.4214ZM26.9141 23.6844L25.429 25.1693L26.9138 26.6542L28.3988 25.1697L26.9141 23.6844ZM21.1434 18.9032C20.5966 19.45 19.7101 19.45 19.1633 18.9032L22.1334 15.9333C21.0399 14.8397 19.2668 14.8397 18.1733 15.9333L21.1434 18.9032ZM20.2021 19.8445L21.1434 18.9032L18.1733 15.9333L17.2321 16.8746L20.2021 19.8445ZM20.2022 17.8646C20.7489 18.4114 20.7489 19.2977 20.2021 19.8445L17.2321 16.8746C16.1386 17.9681 16.1386 19.741 17.2321 20.8345L20.2022 17.8646ZM26.4675 24.1304L20.2022 17.8646L17.2321 20.8345L23.4974 27.1003L26.4675 24.1304ZM20.201 33.3644L26.4672 27.1006L23.4977 24.1301L17.2316 30.3939L20.201 33.3644ZM20.201 31.3837C20.7481 31.9306 20.7481 32.8176 20.201 33.3644L17.2316 30.3939C16.1376 31.4874 16.1376 33.2607 17.2316 34.3543L20.201 31.3837ZM21.1425 32.3248L20.201 31.3837L17.2316 34.3543L18.173 35.2954L21.1425 32.3248ZM19.1632 32.3248C19.7099 31.7784 20.5958 31.7784 21.1425 32.3248L18.173 35.2954C19.2666 36.3885 21.0392 36.3885 22.1327 35.2954L19.1632 32.3248ZM25.4289 26.0614L19.1632 32.3248L22.1327 35.2954L28.3984 29.032L25.4289 26.0614ZM34.662 32.3255L28.3987 26.0617L25.4286 29.0316L31.6919 35.2954L34.662 32.3255ZM32.6819 32.3255C33.2287 31.7787 34.1152 31.7787 34.662 32.3255L31.6919 35.2954C32.7855 36.389 34.5585 36.389 35.652 35.2954L32.6819 32.3255ZM33.6232 31.3841L32.6819 32.3255L35.652 35.2954L36.5933 34.354L33.6232 31.3841ZM33.6232 33.364C33.0765 32.8173 33.0765 31.9309 33.6232 31.3842L36.5933 34.354C37.6867 33.2605 37.6867 31.4876 36.5933 30.3941L33.6232 33.364ZM27.3603 27.1007L33.6232 33.364L36.5933 30.3941L30.3304 24.1308L27.3603 27.1007ZM33.6262 17.8671L27.3606 24.1305L30.33 27.101L36.5957 20.8377L33.6262 17.8671ZM33.6262 19.8478C33.0792 19.301 33.0792 18.414 33.6262 17.8671L36.5957 20.8377C37.6896 19.7441 37.6896 17.9708 36.5957 16.8773L33.6262 19.8478ZM32.6848 18.9067L33.6262 19.8478L36.5957 16.8773L35.6542 15.9362L32.6848 18.9067ZM34.664 18.9067C34.1174 19.4532 33.2314 19.4532 32.6848 18.9067L35.6542 15.9362C34.5607 14.8431 32.7881 14.8431 31.6946 15.9362L34.664 18.9067ZM28.3988 25.1697L34.664 18.9067L31.6946 15.9362L25.4294 22.1991L28.3988 25.1697ZM19.1633 18.9032L25.429 25.1693L28.3991 22.1994L22.1334 15.9333L19.1633 18.9032Z" fill="black" mask="url(#path-4-outside-1_33_49)"/>
</g>
</g>
<g filter="url(#filter1_d_33_49)">
<path d="M47.7889 26.5133L44.3599 14.1496H46.3219L48.7306 23.7242H48.8453L51.3507 14.1496H53.2946L55.7999 23.7302H55.9146L58.3173 14.1496H60.2853L56.8503 26.5133H54.9728L52.3709 17.2526H52.2743L49.6724 26.5133H47.7889ZM64.8342 26.7004C63.9648 26.7004 63.2062 26.5012 62.5582 26.1028C61.9103 25.7043 61.4072 25.1469 61.049 24.4305C60.6908 23.7141 60.5117 22.877 60.5117 21.9192C60.5117 20.9573 60.6908 20.1161 61.049 19.3957C61.4072 18.6753 61.9103 18.1159 62.5582 17.7175C63.2062 17.319 63.9648 17.1198 64.8342 17.1198C65.7035 17.1198 66.4621 17.319 67.1101 17.7175C67.758 18.1159 68.2611 18.6753 68.6193 19.3957C68.9775 20.1161 69.1566 20.9573 69.1566 21.9192C69.1566 22.877 68.9775 23.7141 68.6193 24.4305C68.2611 25.1469 67.758 25.7043 67.1101 26.1028C66.4621 26.5012 65.7035 26.7004 64.8342 26.7004ZM64.8402 25.1851C65.4036 25.1851 65.8705 25.0362 66.2408 24.7384C66.611 24.4406 66.8847 24.0442 67.0618 23.5491C67.2429 23.0541 67.3334 22.5088 67.3334 21.9131C67.3334 21.3215 67.2429 20.7782 67.0618 20.2832C66.8847 19.7841 66.611 19.3837 66.2408 19.0818C65.8705 18.78 65.4036 18.629 64.8402 18.629C64.2727 18.629 63.8018 18.78 63.4276 19.0818C63.0573 19.3837 62.7816 19.7841 62.6005 20.2832C62.4234 20.7782 62.3349 21.3215 62.3349 21.9131C62.3349 22.5088 62.4234 23.0541 62.6005 23.5491C62.7816 24.0442 63.0573 24.4406 63.4276 24.7384C63.8018 25.0362 64.2727 25.1851 64.8402 25.1851ZM72.9765 21.0076V26.5133H71.1714V17.2405H72.904V18.7498H73.0187C73.232 18.2588 73.5661 17.8644 74.0209 17.5665C74.4797 17.2687 75.0572 17.1198 75.7535 17.1198C76.3853 17.1198 76.9387 17.2526 77.4136 17.5182C77.8885 17.7798 78.2568 18.1702 78.5184 18.6894C78.78 19.2086 78.9108 19.8505 78.9108 20.6152V26.5133H77.1057V20.8325C77.1057 20.1604 76.9307 19.6352 76.5805 19.2569C76.2304 18.8745 75.7494 18.6834 75.1377 18.6834C74.7191 18.6834 74.3468 18.7739 74.0209 18.955C73.6989 19.1361 73.4433 19.4018 73.2542 19.7519C73.069 20.098 72.9765 20.5166 72.9765 21.0076ZM82.8831 14.1496V15.3087C82.8831 15.6508 82.8187 16.011 82.6899 16.3893C82.5651 16.7636 82.388 17.1238 82.1586 17.4699C81.9292 17.8161 81.6596 18.1139 81.3497 18.3634L80.4562 17.7235C80.6937 17.3774 80.8989 17.0091 81.072 16.6187C81.2491 16.2284 81.3376 15.7977 81.3376 15.3268V14.1496H82.8831ZM89.3124 17.2405V18.6894H84.2474V17.2405H89.3124ZM85.6057 15.019H87.4108V23.7906C87.4108 24.1408 87.4631 24.4044 87.5677 24.5815C87.6724 24.7545 87.8072 24.8732 87.9722 24.9376C88.1412 24.998 88.3244 25.0282 88.5216 25.0282C88.6664 25.0282 88.7932 25.0181 88.9019 24.998C89.0106 24.9779 89.0951 24.9618 89.1554 24.9497L89.4814 26.4408C89.3768 26.4811 89.2279 26.5213 89.0347 26.5616C88.8415 26.6058 88.6 26.63 88.3103 26.634C87.8354 26.6421 87.3927 26.5575 86.9821 26.3805C86.5716 26.2034 86.2396 25.9297 85.986 25.5594C85.7325 25.1892 85.6057 24.7243 85.6057 24.1649V15.019ZM102.757 19.5044L101.121 19.7942C101.052 19.5849 100.944 19.3857 100.795 19.1965C100.65 19.0074 100.453 18.8524 100.203 18.7317C99.9535 18.6109 99.6416 18.5506 99.2673 18.5506C98.7562 18.5506 98.3296 18.6653 97.9875 18.8947C97.6454 19.12 97.4743 19.4118 97.4743 19.77C97.4743 20.0799 97.589 20.3294 97.8184 20.5186C98.0478 20.7078 98.4181 20.8627 98.9292 20.9834L100.402 21.3215C101.255 21.5187 101.891 21.8226 102.31 22.2331C102.728 22.6436 102.938 23.1769 102.938 23.8329C102.938 24.3883 102.777 24.8833 102.455 25.318C102.137 25.7486 101.692 26.0867 101.121 26.3322C100.553 26.5777 99.8951 26.7004 99.1466 26.7004C98.1082 26.7004 97.261 26.4791 96.605 26.0364C95.949 25.5896 95.5465 24.9557 95.3976 24.1347L97.1423 23.8691C97.251 24.3239 97.4743 24.668 97.8124 24.9014C98.1505 25.1308 98.5912 25.2455 99.1345 25.2455C99.7261 25.2455 100.199 25.1228 100.553 24.8773C100.907 24.6277 101.084 24.3239 101.084 23.9657C101.084 23.6759 100.976 23.4324 100.758 23.2352C100.545 23.038 100.217 22.8891 99.7744 22.7885L98.2048 22.4444C97.3395 22.2472 96.6996 21.9333 96.2851 21.5026C95.8745 21.072 95.6693 20.5266 95.6693 19.8666C95.6693 19.3193 95.8222 18.8403 96.1281 18.4298C96.434 18.0193 96.8565 17.6994 97.3958 17.4699C97.9351 17.2365 98.5529 17.1198 99.2492 17.1198C100.251 17.1198 101.04 17.3371 101.616 17.7718C102.191 18.2024 102.572 18.78 102.757 19.5044ZM110.796 22.6677V17.2405H112.607V26.5133H110.833V24.9074H110.736C110.523 25.4025 110.181 25.815 109.71 26.145C109.243 26.471 108.661 26.634 107.965 26.634C107.369 26.634 106.842 26.5032 106.383 26.2416C105.929 25.976 105.57 25.5836 105.309 25.0644C105.051 24.5452 104.922 23.9033 104.922 23.1386V17.2405H106.727V22.9213C106.727 23.5532 106.903 24.0562 107.253 24.4305C107.603 24.8048 108.058 24.992 108.617 24.992C108.955 24.992 109.291 24.9074 109.625 24.7384C109.963 24.5694 110.243 24.3138 110.464 23.9717C110.69 23.6296 110.8 23.195 110.796 22.6677ZM115.033 29.9905V17.2405H116.796V18.7437H116.946C117.051 18.5506 117.202 18.3272 117.399 18.0736C117.596 17.8201 117.87 17.5987 118.22 17.4096C118.57 17.2164 119.033 17.1198 119.609 17.1198C120.357 17.1198 121.025 17.309 121.613 17.6873C122.201 18.0656 122.661 18.6109 122.995 19.3233C123.334 20.0356 123.503 20.8929 123.503 21.895C123.503 22.8971 123.336 23.7564 123.001 24.4728C122.667 25.1851 122.209 25.7345 121.625 26.1209C121.041 26.5032 120.375 26.6944 119.627 26.6944C119.063 26.6944 118.603 26.5998 118.244 26.4106C117.89 26.2215 117.613 26.0001 117.411 25.7466C117.21 25.493 117.055 25.2677 116.946 25.0704H116.838V29.9905H115.033ZM116.802 21.8769C116.802 22.5289 116.896 23.1004 117.085 23.5914C117.274 24.0824 117.548 24.4668 117.906 24.7444C118.265 25.0181 118.703 25.155 119.222 25.155C119.762 25.155 120.212 25.0121 120.575 24.7263C120.937 24.4366 121.211 24.0442 121.396 23.5491C121.585 23.0541 121.679 22.4967 121.679 21.8769C121.679 21.2652 121.587 20.7158 121.402 20.2288C121.221 19.7418 120.947 19.3575 120.581 19.0758C120.218 18.794 119.766 18.6532 119.222 18.6532C118.699 18.6532 118.256 18.788 117.894 19.0577C117.536 19.3273 117.264 19.7036 117.079 20.1866C116.894 20.6695 116.802 21.233 116.802 21.8769ZM125.525 29.9905V17.2405H127.288V18.7437H127.439C127.543 18.5506 127.694 18.3272 127.891 18.0736C128.089 17.8201 128.362 17.5987 128.712 17.4096C129.063 17.2164 129.525 17.1198 130.101 17.1198C130.849 17.1198 131.518 17.309 132.105 17.6873C132.693 18.0656 133.154 18.6109 133.488 19.3233C133.826 20.0356 133.995 20.8929 133.995 21.895C133.995 22.8971 133.828 23.7564 133.494 24.4728C133.16 25.1851 132.701 25.7345 132.117 26.1209C131.534 26.5032 130.868 26.6944 130.119 26.6944C129.556 26.6944 129.095 26.5998 128.737 26.4106C128.382 26.2215 128.105 26.0001 127.903 25.7466C127.702 25.493 127.547 25.2677 127.439 25.0704H127.33V29.9905H125.525ZM127.294 21.8769C127.294 22.5289 127.388 23.1004 127.577 23.5914C127.767 24.0824 128.04 24.4668 128.399 24.7444C128.757 25.0181 129.195 25.155 129.715 25.155C130.254 25.155 130.705 25.0121 131.067 24.7263C131.429 24.4366 131.703 24.0442 131.888 23.5491C132.077 23.0541 132.172 22.4967 132.172 21.8769C132.172 21.2652 132.079 20.7158 131.894 20.2288C131.713 19.7418 131.439 19.3575 131.073 19.0758C130.711 18.794 130.258 18.6532 129.715 18.6532C129.191 18.6532 128.749 18.788 128.386 19.0577C128.028 19.3273 127.757 19.7036 127.571 20.1866C127.386 20.6695 127.294 21.233 127.294 21.8769ZM139.923 26.7004C139.054 26.7004 138.295 26.5012 137.647 26.1028C136.999 25.7043 136.496 25.1469 136.138 24.4305C135.78 23.7141 135.601 22.877 135.601 21.9192C135.601 20.9573 135.78 20.1161 136.138 19.3957C136.496 18.6753 136.999 18.1159 137.647 17.7175C138.295 17.319 139.054 17.1198 139.923 17.1198C140.792 17.1198 141.551 17.319 142.199 17.7175C142.847 18.1159 143.35 18.6753 143.708 19.3957C144.066 20.1161 144.245 20.9573 144.245 21.9192C144.245 22.877 144.066 23.7141 143.708 24.4305C143.35 25.1469 142.847 25.7043 142.199 26.1028C141.551 26.5012 140.792 26.7004 139.923 26.7004ZM139.929 25.1851C140.492 25.1851 140.959 25.0362 141.33 24.7384C141.7 24.4406 141.974 24.0442 142.151 23.5491C142.332 23.0541 142.422 22.5088 142.422 21.9131C142.422 21.3215 142.332 20.7782 142.151 20.2832C141.974 19.7841 141.7 19.3837 141.33 19.0818C140.959 18.78 140.492 18.629 139.929 18.629C139.362 18.629 138.891 18.78 138.516 19.0818C138.146 19.3837 137.87 19.7841 137.689 20.2832C137.512 20.7782 137.424 21.3215 137.424 21.9131C137.424 22.5088 137.512 23.0541 137.689 23.5491C137.87 24.0442 138.146 24.4406 138.516 24.7384C138.891 25.0362 139.362 25.1851 139.929 25.1851ZM146.26 26.5133V17.2405H148.005V18.7136H148.102C148.271 18.2145 148.568 17.8221 148.995 17.5364C149.426 17.2466 149.913 17.1017 150.456 17.1017C150.569 17.1017 150.701 17.1057 150.854 17.1138C151.011 17.1218 151.134 17.1319 151.223 17.144V18.8705C151.15 18.8504 151.021 18.8283 150.836 18.8041C150.651 18.7759 150.466 18.7619 150.281 18.7619C149.854 18.7619 149.474 18.8524 149.14 19.0335C148.81 19.2106 148.548 19.4581 148.355 19.7761C148.162 20.09 148.065 20.4482 148.065 20.8506V26.5133H146.26ZM157.661 17.2405V18.6894H152.596V17.2405H157.661ZM153.954 15.019H155.759V23.7906C155.759 24.1408 155.812 24.4044 155.916 24.5815C156.021 24.7545 156.156 24.8732 156.321 24.9376C156.49 24.998 156.673 25.0282 156.87 25.0282C157.015 25.0282 157.142 25.0181 157.25 24.998C157.359 24.9779 157.444 24.9618 157.504 24.9497L157.83 26.4408C157.725 26.4811 157.576 26.5213 157.383 26.5616C157.19 26.6058 156.949 26.63 156.659 26.634C156.184 26.6421 155.741 26.5575 155.331 26.3805C154.92 26.2034 154.588 25.9297 154.335 25.5594C154.081 25.1892 153.954 24.7243 153.954 24.1649V15.019Z" fill="#E7CDCD"/>
<path d="M166.91 26.5133L163.312 14.1496H166.614L168.479 22.2512H168.582L170.713 14.1496H173.405L175.536 22.2693H175.639L177.51 14.1496H180.807L177.215 26.5133H174.335L172.107 19.0154H172.011L169.783 26.5133H166.91ZM183.626 26.6702C183.034 26.6702 182.509 26.5716 182.05 26.3744C181.595 26.1732 181.235 25.8713 180.97 25.4689C180.708 25.0624 180.577 24.5533 180.577 23.9415C180.577 23.4264 180.668 22.9917 180.849 22.6376C181.03 22.2834 181.28 21.9956 181.597 21.7743C181.915 21.5529 182.282 21.3859 182.696 21.2732C183.111 21.1565 183.553 21.078 184.024 21.0378C184.552 20.9895 184.976 20.9392 185.298 20.8869C185.62 20.8305 185.854 20.752 185.998 20.6514C186.147 20.5468 186.222 20.3999 186.222 20.2107V20.1805C186.222 19.8706 186.115 19.6312 185.902 19.4621C185.688 19.2931 185.401 19.2086 185.039 19.2086C184.648 19.2086 184.334 19.2931 184.097 19.4621C183.859 19.6312 183.708 19.8646 183.644 20.1624L180.921 20.0658C181.002 19.5024 181.209 18.9993 181.543 18.5566C181.881 18.1099 182.344 17.7597 182.932 17.5062C183.523 17.2486 184.234 17.1198 185.063 17.1198C185.654 17.1198 186.2 17.1902 186.699 17.3311C187.198 17.4679 187.632 17.6692 188.003 17.9348C188.373 18.1964 188.659 18.5184 188.86 18.9007C189.065 19.283 189.168 19.7197 189.168 20.2107V26.5133H186.391V25.2214H186.318C186.153 25.5353 185.942 25.8009 185.684 26.0182C185.431 26.2356 185.131 26.3986 184.785 26.5072C184.443 26.6159 184.057 26.6702 183.626 26.6702ZM184.537 24.7384C184.855 24.7384 185.141 24.674 185.395 24.5452C185.652 24.4164 185.858 24.2394 186.01 24.014C186.163 23.7846 186.24 23.519 186.24 23.2171V22.3357C186.155 22.38 186.053 22.4202 185.932 22.4565C185.815 22.4927 185.686 22.5269 185.546 22.5591C185.405 22.5913 185.26 22.6195 185.111 22.6436C184.962 22.6677 184.819 22.6899 184.682 22.71C184.405 22.7543 184.167 22.8227 183.97 22.9153C183.777 23.0078 183.628 23.1286 183.523 23.2775C183.423 23.4224 183.372 23.5954 183.372 23.7967C183.372 24.1025 183.481 24.336 183.698 24.4969C183.92 24.6579 184.199 24.7384 184.537 24.7384ZM196.207 17.2405V19.4138H190.357V17.2405H196.207ZM191.583 15.019H194.535V23.5974C194.535 23.7785 194.563 23.9254 194.619 24.0381C194.68 24.1468 194.766 24.2253 194.879 24.2736C194.991 24.3178 195.126 24.34 195.283 24.34C195.396 24.34 195.515 24.3299 195.639 24.3098C195.768 24.2856 195.865 24.2655 195.929 24.2494L196.376 26.3805C196.235 26.4207 196.036 26.471 195.778 26.5314C195.525 26.5918 195.221 26.63 194.867 26.6461C194.174 26.6783 193.581 26.5978 193.086 26.4046C192.595 26.2074 192.218 25.9015 191.957 25.487C191.699 25.0725 191.575 24.5513 191.583 23.9234V15.019ZM201.948 26.6883C200.978 26.6883 200.141 26.4972 199.437 26.1148C198.736 25.7285 198.197 25.1791 197.819 24.4668C197.444 23.7504 197.257 22.8992 197.257 21.9131C197.257 20.9553 197.446 20.1181 197.825 19.4018C198.203 18.6814 198.736 18.1219 199.425 17.7235C200.113 17.321 200.924 17.1198 201.857 17.1198C202.517 17.1198 203.121 17.2224 203.668 17.4277C204.216 17.6329 204.689 17.9368 205.087 18.3393C205.486 18.7417 205.796 19.2388 206.017 19.8304C206.238 20.418 206.349 21.0921 206.349 21.8528V22.5893H198.29V20.8748H203.602C203.598 20.5609 203.524 20.2811 203.379 20.0356C203.234 19.7901 203.035 19.599 202.781 19.4621C202.532 19.3213 202.244 19.2508 201.918 19.2508C201.588 19.2508 201.292 19.3253 201.03 19.4742C200.769 19.6191 200.561 19.8183 200.409 20.0719C200.256 20.3214 200.175 20.6051 200.167 20.9231V22.6677C200.167 23.0461 200.242 23.3781 200.39 23.6638C200.539 23.9456 200.751 24.1649 201.024 24.3219C201.298 24.4788 201.624 24.5573 202.002 24.5573C202.264 24.5573 202.501 24.5211 202.715 24.4486C202.928 24.3762 203.111 24.2695 203.264 24.1287C203.417 23.9878 203.532 23.8148 203.608 23.6095L206.319 23.688C206.206 24.2957 205.958 24.8249 205.576 25.2757C205.198 25.7224 204.701 26.0706 204.085 26.3201C203.469 26.5656 202.757 26.6883 201.948 26.6883ZM207.857 26.5133V17.2405H210.724V18.9309H210.821C210.99 18.3191 211.265 17.8644 211.648 17.5665C212.03 17.2647 212.475 17.1138 212.982 17.1138C213.119 17.1138 213.26 17.1238 213.405 17.144C213.549 17.1601 213.684 17.1862 213.809 17.2224V19.7881C213.668 19.7398 213.483 19.7016 213.254 19.6734C213.028 19.6453 212.827 19.6312 212.65 19.6312C212.3 19.6312 211.984 19.7096 211.702 19.8666C211.424 20.0195 211.205 20.2349 211.044 20.5126C210.887 20.7862 210.809 21.1082 210.809 21.4785V26.5133H207.857ZM220.714 17.2405V19.4138H214.749V17.2405H220.714ZM215.993 26.5133V16.7697C215.993 16.0533 216.128 15.4597 216.397 14.9888C216.667 14.5139 217.041 14.1597 217.52 13.9263C217.999 13.6888 218.553 13.5701 219.18 13.5701C219.591 13.5701 219.977 13.6023 220.339 13.6667C220.706 13.7271 220.977 13.7814 221.154 13.8297L220.684 15.9909C220.575 15.9547 220.442 15.9245 220.285 15.9003C220.132 15.8762 219.987 15.8641 219.85 15.8641C219.504 15.8641 219.267 15.9406 219.138 16.0935C219.009 16.2465 218.945 16.4557 218.945 16.7214V26.5133H215.993ZM224.383 26.6702C223.791 26.6702 223.266 26.5716 222.807 26.3744C222.352 26.1732 221.992 25.8713 221.726 25.4689C221.465 25.0624 221.334 24.5533 221.334 23.9415C221.334 23.4264 221.425 22.9917 221.606 22.6376C221.787 22.2834 222.036 21.9956 222.354 21.7743C222.672 21.5529 223.038 21.3859 223.453 21.2732C223.868 21.1565 224.31 21.078 224.781 21.0378C225.308 20.9895 225.733 20.9392 226.055 20.8869C226.377 20.8305 226.61 20.752 226.755 20.6514C226.904 20.5468 226.979 20.3999 226.979 20.2107V20.1805C226.979 19.8706 226.872 19.6312 226.659 19.4621C226.445 19.2931 226.158 19.2086 225.795 19.2086C225.405 19.2086 225.091 19.2931 224.854 19.4621C224.616 19.6312 224.465 19.8646 224.401 20.1624L221.678 20.0658C221.759 19.5024 221.966 18.9993 222.3 18.5566C222.638 18.1099 223.101 17.7597 223.688 17.5062C224.28 17.2486 224.99 17.1198 225.819 17.1198C226.411 17.1198 226.956 17.1902 227.456 17.3311C227.955 17.4679 228.389 17.6692 228.759 17.9348C229.13 18.1964 229.415 18.5184 229.617 18.9007C229.822 19.283 229.925 19.7197 229.925 20.2107V26.5133H227.148V25.2214H227.075C226.91 25.5353 226.699 25.8009 226.441 26.0182C226.188 26.2356 225.888 26.3986 225.542 26.5072C225.2 26.6159 224.813 26.6702 224.383 26.6702ZM225.294 24.7384C225.612 24.7384 225.898 24.674 226.152 24.5452C226.409 24.4164 226.614 24.2394 226.767 24.014C226.92 23.7846 226.997 23.519 226.997 23.2171V22.3357C226.912 22.38 226.81 22.4202 226.689 22.4565C226.572 22.4927 226.443 22.5269 226.302 22.5591C226.162 22.5913 226.017 22.6195 225.868 22.6436C225.719 22.6677 225.576 22.6899 225.439 22.71C225.161 22.7543 224.924 22.8227 224.727 22.9153C224.534 23.0078 224.385 23.1286 224.28 23.2775C224.179 23.4224 224.129 23.5954 224.129 23.7967C224.129 24.1025 224.238 24.336 224.455 24.4969C224.677 24.6579 224.956 24.7384 225.294 24.7384ZM234.682 14.1496V26.5133H231.73V14.1496H234.682ZM239.513 14.1496V26.5133H236.561V14.1496H239.513Z" fill="white"/>
</g>
</g>
<rect x="1.07973" y="1.084" width="246.858" height="37.8585" rx="6.92857" stroke="white" stroke-opacity="0.15" stroke-width="2.14286"/>
<defs>
<filter id="filter0_d_33_49" x="2.40802" y="0.412293" width="40.6083" height="41.3036" filterUnits="userSpaceOnUse" color-interpolation-filters="sRGB">
<feFlood flood-opacity="0" result="BackgroundImageFix"/>
<feColorMatrix in="SourceAlpha" type="matrix" values="0 0 0 0 0 0 0 0 0 0 0 0 0 0 0 0 0 0 127 0" result="hardAlpha"/>
<feOffset/>
<feGaussianBlur stdDeviation="2.80014"/>
<feComposite in2="hardAlpha" operator="out"/>
<feColorMatrix type="matrix" values="0 0 0 0 0 0 0 0 0 0 0 0 0 0 0 0 0 0 0.25 0"/>
<feBlend mode="normal" in2="BackgroundImageFix" result="effect1_dropShadow_33_49"/>
<feBlend mode="normal" in="SourceGraphic" in2="effect1_dropShadow_33_49" result="shape"/>
</filter>
<filter id="filter1_d_33_49" x="38.2955" y="3.79899" width="208.429" height="32.4286" filterUnits="userSpaceOnUse" color-interpolation-filters="sRGB">
<feFlood flood-opacity="0" result="BackgroundImageFix"/>
<feColorMatrix in="SourceAlpha" type="matrix" values="0 0 0 0 0 0 0 0 0 0 0 0 0 0 0 0 0 0 127 0" result="hardAlpha"/>
<feOffset/>
<feGaussianBlur stdDeviation="2.85714"/>
<feComposite in2="hardAlpha" operator="out"/>
<feColorMatrix type="matrix" values="0 0 0 0 0 0 0 0 0 0 0 0 0 0 0 0 0 0 0.25 0"/>
<feBlend mode="normal" in2="BackgroundImageFix" result="effect1_dropShadow_33_49"/>
<feBlend mode="normal" in="SourceGraphic" in2="effect1_dropShadow_33_49" result="shape"/>
</filter>
<linearGradient id="paint0_linear_33_49" x1="124.509" y1="0.0125732" x2="124.509" y2="40.014" gradientUnits="userSpaceOnUse">
<stop stop-color="#2C1B1B"/>
<stop offset="1" stop-color="#1F1414"/>
</linearGradient>
<linearGradient id="paint1_linear_33_49" x1="26.9136" y1="17.2132" x2="26.9136" y2="34.0155" gradientUnits="userSpaceOnUse">
<stop stop-color="#FF0000"/>
<stop offset="1" stop-color="#CC0000"/>
</linearGradient>
<clipPath id="clip0_33_49">
<rect x="0.00830078" y="0.0125732" width="249.001" height="40.0014" rx="8" fill="white"/>
</clipPath>
</defs>
</svg>
