<svg width="248" height="41" viewBox="0 0 248 41" fill="none" xmlns="http://www.w3.org/2000/svg">
<g clip-path="url(#clip0_33_49)">
<rect x="0.00830078" y="0.0125732" width="247.001" height="40.0014" rx="8" fill="url(#paint0_linear_33_49)"/>
<g filter="url(#filter0_d_33_49)">
<path fill-rule="evenodd" clip-rule="evenodd" d="M16.5877 6.20259C15.9982 6.84284 16.4749 7.19982 17.9203 7.20052C19.2335 7.20115 20.3974 7.38038 21.6815 7.77975C22.1822 7.93543 22.1844 7.89599 21.6408 8.51676C21.0371 9.20613 20.6153 9.73043 20.2951 10.1894C20.1487 10.3991 19.9409 10.6969 19.8331 10.851C18.6192 12.5895 17.0111 16.2535 16.7649 17.8423C16.7503 17.9366 16.7041 18.1292 16.6623 18.2704C16.6204 18.4116 16.5443 18.7373 16.4932 18.9943C16.442 19.2512 16.3505 19.6787 16.2899 19.9445C16.2291 20.2102 16.179 20.5255 16.1784 20.6451C16.1761 21.118 16.1234 21.1731 15.533 21.3206C12.5053 22.0767 10.0253 23.4097 8.90659 24.8822C7.36071 26.9171 7.83545 29.2558 10.1432 30.9737C10.7856 31.4519 11.9696 32.1382 12.4374 32.3033C12.6153 32.3661 12.874 32.4684 13.012 32.5304C14.043 32.9936 16.5979 33.6523 17.8827 33.7864C18.071 33.806 18.4384 33.8645 18.6993 33.9164C19.0159 33.9794 20.1036 34.0115 21.9731 34.0133C24.8937 34.0159 24.7156 34.0295 27.0669 33.6256C28.6926 33.3464 29.7312 33.0468 31.4997 32.3467C36.3421 30.4296 37.4596 26.3544 33.8744 23.6869C32.3528 22.5548 29.9801 21.5818 27.6502 21.1343C27.3936 21.0851 27.0368 21.0126 26.8575 20.9732C26.6782 20.9338 26.442 20.9016 26.3326 20.9016C26.0865 20.9016 26.0641 20.4388 26.2485 19.1644C26.3116 18.7283 26.418 17.9861 26.485 17.5151C26.678 16.158 27.0475 14.3153 27.2149 13.8756C27.2597 13.7579 27.28 13.6616 27.26 13.6616C27.2401 13.6616 27.2721 13.5302 27.3313 13.3696C27.4358 13.0863 27.7935 11.9494 27.8029 11.871C27.8079 11.8286 27.9765 11.3807 28.0812 11.1314C28.1172 11.0458 28.2524 10.7166 28.3818 10.3998C28.6873 9.65118 29.4354 8.39912 29.6683 8.24631C30.5205 7.6874 32.7149 7.2104 34.4731 7.20192C35.771 7.19562 36.0102 7.09318 36.0102 6.54338C36.0102 5.72608 32.0878 5.90558 29.9443 6.82105C29.8374 6.86673 29.5599 6.9794 29.3277 7.07153C27.9727 7.60879 26.2396 11.8284 25.4381 16.542C25.3544 17.0344 25.2656 17.6124 25.2407 17.8265C25.2159 18.0406 25.1639 18.4435 25.1252 18.7218C24.7675 21.2919 24.6636 26.9428 24.9687 27.2387C25.1599 27.4242 25.5394 27.4252 25.7838 27.2408C25.9194 27.1384 25.9443 27.0058 25.9782 26.2027L26.017 25.2819L26.7626 25.5322C27.9801 25.9411 28.7001 26.4188 28.7001 26.8181C28.7001 27.3229 27.1515 28.1177 25.4533 28.4845C24.5671 28.676 23.7696 28.8256 23.6063 28.831C21.6825 28.8955 21.136 29.1617 21.5451 29.8351L21.6987 30.0878L22.3802 30.0884C23.437 30.0892 25.0196 29.8486 26.2892 29.4943C26.5245 29.4286 26.7694 29.3616 26.8336 29.3452C28.0252 29.0425 29.3763 28.1721 29.7028 27.4968C30.3538 26.1507 28.8195 24.6641 26.2309 24.1329C25.9827 24.082 25.9782 24.0733 25.9782 23.6539C25.9782 23.2833 25.9963 23.232 26.1143 23.2674C26.1891 23.2899 26.5304 23.381 26.8725 23.4699C32.795 25.0079 32.9769 28.4154 27.2259 30.0908C26.9071 30.1837 26.5572 30.2746 26.4483 30.2928C26.3394 30.311 26.1979 30.3455 26.1337 30.3696C24.8348 30.8553 19.1892 30.8553 17.8903 30.3696C17.8262 30.3455 17.6846 30.311 17.5758 30.2928C16.8436 30.1702 15.6981 29.759 14.7797 29.2891C11.7339 27.7305 11.7948 25.7962 14.9379 24.2617C15.7751 23.8531 15.8057 23.8532 15.7756 24.2655C15.7525 24.5826 15.7339 24.6035 15.2074 24.9041C13.5534 25.8483 13.2164 27.2758 14.4176 28.2496C15.6336 29.2352 17.6708 29.3082 17.3809 28.3557C17.2876 28.0493 17.1052 27.9081 16.8026 27.9081C16.0237 27.9081 14.8574 27.2773 14.8574 26.856C14.8574 26.7128 15.4813 26.0397 15.6141 26.0397C15.6565 26.0397 15.6758 26.1211 15.6567 26.2206C15.6147 26.441 15.9691 26.896 16.1827 26.896C16.7246 26.896 16.8417 26.6034 16.9144 25.0666C16.9694 23.9052 17.0801 22.6793 17.2061 21.8358C17.2541 21.5146 17.3016 21.1643 17.3116 21.0573C17.3457 20.6919 17.5143 19.8515 17.7878 18.6829C18.7028 14.7738 20.1335 12.0433 23.0036 8.7285C23.3992 8.27153 23.7229 7.84407 23.7229 7.77856C23.7229 7.50874 23.4869 7.21124 23.1994 7.11848C23.0382 7.06656 22.8714 6.99748 22.8286 6.96511C22.2769 6.54703 20.0945 6.11179 18.2792 6.05777L16.7627 6.01257L16.5877 6.20259ZM26.8933 7.17558C26.5947 7.25384 25.3027 9.2453 24.5484 10.7897C24.0537 11.8027 23.3421 13.622 23.2159 14.1964C23.2006 14.2662 23.0816 14.7334 22.9514 15.2347C22.8212 15.736 22.6618 16.4191 22.5971 16.7527C22.5323 17.0864 22.4441 17.5346 22.4008 17.7486C22.3576 17.9628 22.3086 18.2781 22.2919 18.4493C22.2752 18.6206 22.2261 18.9709 22.1827 19.2278C22.0509 20.0087 21.7813 22.7629 21.7407 23.7432C21.7248 24.1285 21.6731 25.095 21.6257 25.891C21.5204 27.6645 21.6072 27.9677 22.1977 27.8885C22.7094 27.8199 22.7648 27.6307 22.8211 25.7629C22.9078 22.877 23.1809 20.1504 23.6551 17.4373C23.8823 16.1369 24.568 13.6712 24.9324 12.8441C24.9889 12.7157 25.129 12.3829 25.2435 12.1046C25.5438 11.3748 25.9407 10.6026 26.3966 9.86061C26.6155 9.50426 26.8297 9.15393 26.8725 9.08211C26.9153 9.01037 27.1015 8.74826 27.2863 8.49974C27.9064 7.66617 27.6981 6.96447 26.8933 7.17558ZM24.8506 7.36532C24.1492 7.58595 21.6626 11.5296 20.856 13.7004C20.5946 14.404 20.1494 15.7475 20.0177 16.2306C19.7606 17.1734 19.5388 18.0859 19.4502 18.5661C19.3987 18.8444 19.3092 19.2998 19.2511 19.5781C19.1931 19.8565 19.1096 20.3469 19.0656 20.668C18.8995 21.88 18.7978 22.7199 18.8026 22.8401C18.8053 22.9086 18.7603 23.3885 18.7025 23.9065C18.4207 26.4328 18.5427 27.397 19.1418 27.38C19.5696 27.3678 19.6706 27.1861 19.714 26.3506C19.7914 24.8622 20.0318 22.1688 20.1518 21.4465C20.1909 21.211 20.2366 20.8759 20.2533 20.7017C20.27 20.5276 20.3224 20.1948 20.3698 19.9621C20.7704 17.9971 20.8064 17.8302 20.9233 17.3915C21.4754 15.3189 22.0914 13.6634 22.8884 12.1101C23.351 11.2085 24.5813 9.33218 25.0614 8.7959C25.6505 8.13799 25.7349 7.80574 25.3985 7.46894C25.1894 7.25966 25.1875 7.25931 24.8506 7.36532ZM27.7138 22.3512C29.55 22.782 31.3038 23.4647 32.7369 24.3066C34.378 25.2707 35.207 27.0313 34.6251 28.3163C33.8775 29.9668 30.7227 31.7807 27.6859 32.3062C27.5379 32.3319 27.2944 32.3839 27.1447 32.4219C26.8626 32.4934 26.31 32.5803 25.0449 32.7515C24.5834 32.814 23.4454 32.8516 22.012 32.8516C20.5787 32.8516 19.4407 32.814 18.9791 32.7515C17.7141 32.5803 17.1615 32.4934 16.8794 32.4219C16.7297 32.3839 16.4861 32.3319 16.3382 32.3062C15.3488 32.1351 13.5683 31.5325 12.5136 31.012C8.03815 28.8031 8.08168 25.7882 12.6207 23.5956C13.435 23.2022 15.1111 22.6082 15.6934 22.5066C16 22.4531 16.0338 22.5899 15.7323 22.6636C15.6147 22.6923 15.2117 22.8482 14.8368 23.01C9.73109 25.2142 10.3607 29.37 16.0628 31.1029C16.2339 31.1549 16.5138 31.2419 16.685 31.2962C16.856 31.3505 17.2235 31.4363 17.5015 31.4868C17.7795 31.5374 18.1645 31.6086 18.357 31.6451C20.3644 32.0255 23.6597 32.0255 25.6671 31.6451C25.8596 31.6086 26.2445 31.5374 26.5225 31.4868C26.8006 31.4363 27.168 31.3505 27.3391 31.2962C27.5102 31.2419 27.7902 31.1547 27.9612 31.1025C34.7425 29.031 34.0439 23.8871 26.7559 22.2271C26.5619 22.1829 26.5355 22.1625 26.6639 22.1561C26.7631 22.1512 27.2355 22.239 27.7138 22.3512Z" fill="white"/>
<g opacity="0.7">
<mask id="path-4-outside-1_33_49" maskUnits="userSpaceOnUse" x="15.5112" y="14.2132" width="22" height="22" fill="black">
<rect fill="white" x="15.5112" y="14.2132" width="22" height="22"/>
<path fill-rule="evenodd" clip-rule="evenodd" d="M20.6483 17.4182C20.375 17.1448 19.9317 17.1448 19.6584 17.4182L18.7171 18.3595C18.4437 18.6329 18.4437 19.0762 18.7171 19.3496L24.9824 25.6153L18.7163 31.8792C18.4429 32.1525 18.4429 32.5957 18.7163 32.869L19.6578 33.8101C19.9312 34.0834 20.3745 34.0834 20.648 33.8101L26.9137 27.5467L33.177 33.8104C33.4503 34.0838 33.8936 34.0838 34.1669 33.8104L35.1082 32.8691C35.3816 32.5957 35.3816 32.1525 35.1082 31.8791L28.8453 25.6157L35.111 19.3524C35.3844 19.0791 35.3844 18.6359 35.111 18.3626L34.1695 17.4214C33.8961 17.1481 33.4528 17.1481 33.1793 17.4214L26.9141 23.6844L20.6483 17.4182Z"/>
</mask>
<path fill-rule="evenodd" clip-rule="evenodd" d="M20.6483 17.4182C20.375 17.1448 19.9317 17.1448 19.6584 17.4182L18.7171 18.3595C18.4437 18.6329 18.4437 19.0762 18.7171 19.3496L24.9824 25.6153L18.7163 31.8792C18.4429 32.1525 18.4429 32.5957 18.7163 32.869L19.6578 33.8101C19.9312 34.0834 20.3745 34.0834 20.648 33.8101L26.9137 27.5467L33.177 33.8104C33.4503 34.0838 33.8936 34.0838 34.1669 33.8104L35.1082 32.8691C35.3816 32.5957 35.3816 32.1525 35.1082 31.8791L28.8453 25.6157L35.111 19.3524C35.3844 19.0791 35.3844 18.6359 35.111 18.3626L34.1695 17.4214C33.8961 17.1481 33.4528 17.1481 33.1793 17.4214L26.9141 23.6844L20.6483 17.4182Z" fill="url(#paint1_linear_33_49)"/>
<path d="M19.6584 17.4182L18.1733 15.9333L18.1733 15.9333L19.6584 17.4182ZM20.6483 17.4182L19.1633 18.9032L19.1633 18.9032L20.6483 17.4182ZM18.7171 18.3595L17.2321 16.8746V16.8746L18.7171 18.3595ZM18.7171 19.3496L17.2321 20.8345L17.2321 20.8345L18.7171 19.3496ZM24.9824 25.6153L26.4672 27.1006L27.9527 25.6157L26.4675 24.1304L24.9824 25.6153ZM18.7163 31.8792L17.2316 30.3939L17.2316 30.3939L18.7163 31.8792ZM18.7163 32.869L20.201 31.3837H20.201L18.7163 32.869ZM19.6578 33.8101L18.173 35.2954H18.173L19.6578 33.8101ZM20.648 33.8101L19.1632 32.3248L19.1632 32.3248L20.648 33.8101ZM26.9137 27.5467L28.3987 26.0617L26.914 24.5769L25.4289 26.0614L26.9137 27.5467ZM33.177 33.8104L31.6919 35.2954H31.6919L33.177 33.8104ZM34.1669 33.8104L35.652 35.2954L34.1669 33.8104ZM35.1082 32.8691L36.5933 34.354L36.5933 34.354L35.1082 32.8691ZM35.1082 31.8791L33.6232 33.364H33.6232L35.1082 31.8791ZM28.8453 25.6157L27.3606 24.1305L25.8751 25.6154L27.3603 27.1007L28.8453 25.6157ZM35.111 19.3524L33.6262 17.8671L33.6262 17.8671L35.111 19.3524ZM35.111 18.3626L36.5957 16.8773L36.5957 16.8773L35.111 18.3626ZM34.1695 17.4214L35.6542 15.9362V15.9362L34.1695 17.4214ZM33.1793 17.4214L31.6946 15.9362L31.6946 15.9362L33.1793 17.4214ZM26.9141 23.6844L25.429 25.1693L26.9138 26.6542L28.3988 25.1697L26.9141 23.6844ZM21.1434 18.9032C20.5966 19.45 19.7101 19.45 19.1633 18.9032L22.1334 15.9333C21.0399 14.8397 19.2668 14.8397 18.1733 15.9333L21.1434 18.9032ZM20.2021 19.8445L21.1434 18.9032L18.1733 15.9333L17.2321 16.8746L20.2021 19.8445ZM20.2022 17.8646C20.7489 18.4114 20.7489 19.2977 20.2021 19.8445L17.2321 16.8746C16.1386 17.9681 16.1386 19.741 17.2321 20.8345L20.2022 17.8646ZM26.4675 24.1304L20.2022 17.8646L17.2321 20.8345L23.4974 27.1003L26.4675 24.1304ZM20.201 33.3644L26.4672 27.1006L23.4977 24.1301L17.2316 30.3939L20.201 33.3644ZM20.201 31.3837C20.7481 31.9306 20.7481 32.8176 20.201 33.3644L17.2316 30.3939C16.1376 31.4874 16.1376 33.2607 17.2316 34.3543L20.201 31.3837ZM21.1425 32.3248L20.201 31.3837L17.2316 34.3543L18.173 35.2954L21.1425 32.3248ZM19.1632 32.3248C19.7099 31.7784 20.5958 31.7784 21.1425 32.3248L18.173 35.2954C19.2666 36.3885 21.0392 36.3885 22.1327 35.2954L19.1632 32.3248ZM25.4289 26.0614L19.1632 32.3248L22.1327 35.2954L28.3984 29.032L25.4289 26.0614ZM34.662 32.3255L28.3987 26.0617L25.4286 29.0316L31.6919 35.2954L34.662 32.3255ZM32.6819 32.3255C33.2287 31.7787 34.1152 31.7787 34.662 32.3255L31.6919 35.2954C32.7855 36.389 34.5585 36.389 35.652 35.2954L32.6819 32.3255ZM33.6232 31.3841L32.6819 32.3255L35.652 35.2954L36.5933 34.354L33.6232 31.3841ZM33.6232 33.364C33.0765 32.8173 33.0765 31.9309 33.6232 31.3842L36.5933 34.354C37.6867 33.2605 37.6867 31.4876 36.5933 30.3941L33.6232 33.364ZM27.3603 27.1007L33.6232 33.364L36.5933 30.3941L30.3304 24.1308L27.3603 27.1007ZM33.6262 17.8671L27.3606 24.1305L30.33 27.101L36.5957 20.8377L33.6262 17.8671ZM33.6262 19.8478C33.0792 19.301 33.0792 18.414 33.6262 17.8671L36.5957 20.8377C37.6896 19.7441 37.6896 17.9708 36.5957 16.8773L33.6262 19.8478ZM32.6848 18.9067L33.6262 19.8478L36.5957 16.8773L35.6542 15.9362L32.6848 18.9067ZM34.664 18.9067C34.1174 19.4532 33.2314 19.4532 32.6848 18.9067L35.6542 15.9362C34.5607 14.8431 32.7881 14.8431 31.6946 15.9362L34.664 18.9067ZM28.3988 25.1697L34.664 18.9067L31.6946 15.9362L25.4294 22.1991L28.3988 25.1697ZM19.1633 18.9032L25.429 25.1693L28.3991 22.1994L22.1334 15.9333L19.1633 18.9032Z" fill="black" mask="url(#path-4-outside-1_33_49)"/>
</g>
</g>
<g filter="url(#filter1_d_33_49)">
<path d="M45.7889 26.5133L42.3599 14.1496H44.3219L46.7306 23.7242H46.8453L49.3507 14.1496H51.2946L53.7999 23.7302H53.9146L56.3173 14.1496H58.2853L54.8503 26.5133H52.9728L50.3709 17.2526H50.2743L47.6724 26.5133H45.7889ZM62.8342 26.7004C61.9648 26.7004 61.2062 26.5012 60.5582 26.1028C59.9103 25.7043 59.4072 25.1469 59.049 24.4305C58.6908 23.7141 58.5117 22.877 58.5117 21.9192C58.5117 20.9573 58.6908 20.1161 59.049 19.3957C59.4072 18.6753 59.9103 18.1159 60.5582 17.7175C61.2062 17.319 61.9648 17.1198 62.8342 17.1198C63.7035 17.1198 64.4621 17.319 65.1101 17.7175C65.758 18.1159 66.2611 18.6753 66.6193 19.3957C66.9775 20.1161 67.1566 20.9573 67.1566 21.9192C67.1566 22.877 66.9775 23.7141 66.6193 24.4305C66.2611 25.1469 65.758 25.7043 65.1101 26.1028C64.4621 26.5012 63.7035 26.7004 62.8342 26.7004ZM62.8402 25.1851C63.4036 25.1851 63.8705 25.0362 64.2408 24.7384C64.611 24.4406 64.8847 24.0442 65.0618 23.5491C65.2429 23.0541 65.3334 22.5088 65.3334 21.9131C65.3334 21.3215 65.2429 20.7782 65.0618 20.2832C64.8847 19.7841 64.611 19.3837 64.2408 19.0818C63.8705 18.78 63.4036 18.629 62.8402 18.629C62.2727 18.629 61.8018 18.78 61.4276 19.0818C61.0573 19.3837 60.7816 19.7841 60.6005 20.2832C60.4234 20.7782 60.3349 21.3215 60.3349 21.9131C60.3349 22.5088 60.4234 23.0541 60.6005 23.5491C60.7816 24.0442 61.0573 24.4406 61.4276 24.7384C61.8018 25.0362 62.2727 25.1851 62.8402 25.1851ZM70.9765 21.0076V26.5133H69.1714V17.2405H70.904V18.7498H71.0187C71.232 18.2588 71.5661 17.8644 72.0209 17.5665C72.4797 17.2687 73.0572 17.1198 73.7535 17.1198C74.3853 17.1198 74.9387 17.2526 75.4136 17.5182C75.8885 17.7798 76.2568 18.1702 76.5184 18.6894C76.78 19.2086 76.9108 19.8505 76.9108 20.6152V26.5133H75.1057V20.8325C75.1057 20.1604 74.9307 19.6352 74.5805 19.2569C74.2304 18.8745 73.7494 18.6834 73.1377 18.6834C72.7191 18.6834 72.3468 18.7739 72.0209 18.955C71.6989 19.1361 71.4433 19.4018 71.2542 19.7519C71.069 20.098 70.9765 20.5166 70.9765 21.0076ZM80.8831 14.1496V15.3087C80.8831 15.6508 80.8187 16.011 80.6899 16.3893C80.5651 16.7636 80.388 17.1238 80.1586 17.4699C79.9292 17.8161 79.6596 18.1139 79.3497 18.3634L78.4562 17.7235C78.6937 17.3774 78.8989 17.0091 79.072 16.6187C79.2491 16.2284 79.3376 15.7977 79.3376 15.3268V14.1496H80.8831ZM87.3124 17.2405V18.6894H82.2474V17.2405H87.3124ZM83.6057 15.019H85.4108V23.7906C85.4108 24.1408 85.4631 24.4044 85.5677 24.5815C85.6724 24.7545 85.8072 24.8732 85.9722 24.9376C86.1412 24.998 86.3244 25.0282 86.5216 25.0282C86.6664 25.0282 86.7932 25.0181 86.9019 24.998C87.0106 24.9779 87.0951 24.9618 87.1554 24.9497L87.4814 26.4408C87.3768 26.4811 87.2279 26.5213 87.0347 26.5616C86.8415 26.6058 86.6 26.63 86.3103 26.634C85.8354 26.6421 85.3927 26.5575 84.9821 26.3805C84.5716 26.2034 84.2396 25.9297 83.986 25.5594C83.7325 25.1892 83.6057 24.7243 83.6057 24.1649V15.019ZM100.757 19.5044L99.1206 19.7942C99.0522 19.5849 98.9435 19.3857 98.7946 19.1965C98.6498 19.0074 98.4525 18.8524 98.203 18.7317C97.9535 18.6109 97.6416 18.5506 97.2673 18.5506C96.7562 18.5506 96.3296 18.6653 95.9875 18.8947C95.6454 19.12 95.4743 19.4118 95.4743 19.77C95.4743 20.0799 95.589 20.3294 95.8184 20.5186C96.0478 20.7078 96.4181 20.8627 96.9292 20.9834L98.4022 21.3215C99.2555 21.5187 99.8913 21.8226 100.31 22.2331C100.728 22.6436 100.938 23.1769 100.938 23.8329C100.938 24.3883 100.777 24.8833 100.455 25.318C100.137 25.7486 99.6921 26.0867 99.1206 26.3322C98.5532 26.5777 97.8951 26.7004 97.1466 26.7004C96.1082 26.7004 95.261 26.4791 94.605 26.0364C93.949 25.5896 93.5465 24.9557 93.3976 24.1347L95.1423 23.8691C95.251 24.3239 95.4743 24.668 95.8124 24.9014C96.1505 25.1308 96.5912 25.2455 97.1345 25.2455C97.7261 25.2455 98.199 25.1228 98.5532 24.8773C98.9073 24.6277 99.0844 24.3239 99.0844 23.9657C99.0844 23.6759 98.9757 23.4324 98.7584 23.2352C98.5451 23.038 98.2171 22.8891 97.7744 22.7885L96.2048 22.4444C95.3395 22.2472 94.6996 21.9333 94.2851 21.5026C93.8745 21.072 93.6693 20.5266 93.6693 19.8666C93.6693 19.3193 93.8222 18.8403 94.1281 18.4298C94.434 18.0193 94.8565 17.6994 95.3958 17.4699C95.9351 17.2365 96.5529 17.1198 97.2492 17.1198C98.2513 17.1198 99.0401 17.3371 99.6157 17.7718C100.191 18.2024 100.572 18.78 100.757 19.5044ZM108.796 22.6677V17.2405H110.607V26.5133H108.833V24.9074H108.736C108.523 25.4025 108.181 25.815 107.71 26.145C107.243 26.471 106.661 26.634 105.965 26.634C105.369 26.634 104.842 26.5032 104.383 26.2416C103.929 25.976 103.57 25.5836 103.309 25.0644C103.051 24.5452 102.922 23.9033 102.922 23.1386V17.2405H104.727V22.9213C104.727 23.5532 104.903 24.0562 105.253 24.4305C105.603 24.8048 106.058 24.992 106.617 24.992C106.955 24.992 107.291 24.9074 107.625 24.7384C107.963 24.5694 108.243 24.3138 108.464 23.9717C108.69 23.6296 108.8 23.195 108.796 22.6677ZM113.033 29.9905V17.2405H114.796V18.7437H114.946C115.051 18.5506 115.202 18.3272 115.399 18.0736C115.596 17.8201 115.87 17.5987 116.22 17.4096C116.57 17.2164 117.033 17.1198 117.609 17.1198C118.357 17.1198 119.025 17.309 119.613 17.6873C120.201 18.0656 120.661 18.6109 120.995 19.3233C121.334 20.0356 121.503 20.8929 121.503 21.895C121.503 22.8971 121.336 23.7564 121.001 24.4728C120.667 25.1851 120.209 25.7345 119.625 26.1209C119.041 26.5032 118.375 26.6944 117.627 26.6944C117.063 26.6944 116.603 26.5998 116.244 26.4106C115.89 26.2215 115.613 26.0001 115.411 25.7466C115.21 25.493 115.055 25.2677 114.946 25.0704H114.838V29.9905H113.033ZM114.802 21.8769C114.802 22.5289 114.896 23.1004 115.085 23.5914C115.274 24.0824 115.548 24.4668 115.906 24.7444C116.265 25.0181 116.703 25.155 117.222 25.155C117.762 25.155 118.212 25.0121 118.575 24.7263C118.937 24.4366 119.211 24.0442 119.396 23.5491C119.585 23.0541 119.679 22.4967 119.679 21.8769C119.679 21.2652 119.587 20.7158 119.402 20.2288C119.221 19.7418 118.947 19.3575 118.581 19.0758C118.218 18.794 117.766 18.6532 117.222 18.6532C116.699 18.6532 116.256 18.788 115.894 19.0577C115.536 19.3273 115.264 19.7036 115.079 20.1866C114.894 20.6695 114.802 21.233 114.802 21.8769ZM123.525 29.9905V17.2405H125.288V18.7437H125.439C125.543 18.5506 125.694 18.3272 125.891 18.0736C126.089 17.8201 126.362 17.5987 126.712 17.4096C127.063 17.2164 127.525 17.1198 128.101 17.1198C128.849 17.1198 129.518 17.309 130.105 17.6873C130.693 18.0656 131.154 18.6109 131.488 19.3233C131.826 20.0356 131.995 20.8929 131.995 21.895C131.995 22.8971 131.828 23.7564 131.494 24.4728C131.16 25.1851 130.701 25.7345 130.117 26.1209C129.534 26.5032 128.868 26.6944 128.119 26.6944C127.556 26.6944 127.095 26.5998 126.737 26.4106C126.382 26.2215 126.105 26.0001 125.903 25.7466C125.702 25.493 125.547 25.2677 125.439 25.0704H125.33V29.9905H123.525ZM125.294 21.8769C125.294 22.5289 125.388 23.1004 125.577 23.5914C125.767 24.0824 126.04 24.4668 126.399 24.7444C126.757 25.0181 127.195 25.155 127.715 25.155C128.254 25.155 128.705 25.0121 129.067 24.7263C129.429 24.4366 129.703 24.0442 129.888 23.5491C130.077 23.0541 130.172 22.4967 130.172 21.8769C130.172 21.2652 130.079 20.7158 129.894 20.2288C129.713 19.7418 129.439 19.3575 129.073 19.0758C128.711 18.794 128.258 18.6532 127.715 18.6532C127.191 18.6532 126.749 18.788 126.386 19.0577C126.028 19.3273 125.757 19.7036 125.571 20.1866C125.386 20.6695 125.294 21.233 125.294 21.8769ZM137.923 26.7004C137.054 26.7004 136.295 26.5012 135.647 26.1028C134.999 25.7043 134.496 25.1469 134.138 24.4305C133.78 23.7141 133.601 22.877 133.601 21.9192C133.601 20.9573 133.78 20.1161 134.138 19.3957C134.496 18.6753 134.999 18.1159 135.647 17.7175C136.295 17.319 137.054 17.1198 137.923 17.1198C138.792 17.1198 139.551 17.319 140.199 17.7175C140.847 18.1159 141.35 18.6753 141.708 19.3957C142.066 20.1161 142.245 20.9573 142.245 21.9192C142.245 22.877 142.066 23.7141 141.708 24.4305C141.35 25.1469 140.847 25.7043 140.199 26.1028C139.551 26.5012 138.792 26.7004 137.923 26.7004ZM137.929 25.1851C138.492 25.1851 138.959 25.0362 139.33 24.7384C139.7 24.4406 139.974 24.0442 140.151 23.5491C140.332 23.0541 140.422 22.5088 140.422 21.9131C140.422 21.3215 140.332 20.7782 140.151 20.2832C139.974 19.7841 139.7 19.3837 139.33 19.0818C138.959 18.78 138.492 18.629 137.929 18.629C137.362 18.629 136.891 18.78 136.516 19.0818C136.146 19.3837 135.87 19.7841 135.689 20.2832C135.512 20.7782 135.424 21.3215 135.424 21.9131C135.424 22.5088 135.512 23.0541 135.689 23.5491C135.87 24.0442 136.146 24.4406 136.516 24.7384C136.891 25.0362 137.362 25.1851 137.929 25.1851ZM144.26 26.5133V17.2405H146.005V18.7136H146.102C146.271 18.2145 146.568 17.8221 146.995 17.5364C147.426 17.2466 147.913 17.1017 148.456 17.1017C148.569 17.1017 148.701 17.1057 148.854 17.1138C149.011 17.1218 149.134 17.1319 149.223 17.144V18.8705C149.15 18.8504 149.021 18.8283 148.836 18.8041C148.651 18.7759 148.466 18.7619 148.281 18.7619C147.854 18.7619 147.474 18.8524 147.14 19.0335C146.81 19.2106 146.548 19.4581 146.355 19.7761C146.162 20.09 146.065 20.4482 146.065 20.8506V26.5133H144.26ZM155.661 17.2405V18.6894H150.596V17.2405H155.661ZM151.954 15.019H153.759V23.7906C153.759 24.1408 153.812 24.4044 153.916 24.5815C154.021 24.7545 154.156 24.8732 154.321 24.9376C154.49 24.998 154.673 25.0282 154.87 25.0282C155.015 25.0282 155.142 25.0181 155.25 24.998C155.359 24.9779 155.444 24.9618 155.504 24.9497L155.83 26.4408C155.725 26.4811 155.576 26.5213 155.383 26.5616C155.19 26.6058 154.949 26.63 154.659 26.634C154.184 26.6421 153.741 26.5575 153.331 26.3805C152.92 26.2034 152.588 25.9297 152.335 25.5594C152.081 25.1892 151.954 24.7243 151.954 24.1649V15.019Z" fill="#E7CDCD"/>
<path d="M164.91 26.5133L161.312 14.1496H164.614L166.479 22.2512H166.582L168.713 14.1496H171.405L173.536 22.2693H173.639L175.51 14.1496H178.807L175.215 26.5133H172.335L170.107 19.0154H170.011L167.783 26.5133H164.91ZM181.626 26.6702C181.034 26.6702 180.509 26.5716 180.05 26.3744C179.595 26.1732 179.235 25.8713 178.97 25.4689C178.708 25.0624 178.577 24.5533 178.577 23.9415C178.577 23.4264 178.668 22.9917 178.849 22.6376C179.03 22.2834 179.28 21.9956 179.597 21.7743C179.915 21.5529 180.282 21.3859 180.696 21.2732C181.111 21.1565 181.553 21.078 182.024 21.0378C182.552 20.9895 182.976 20.9392 183.298 20.8869C183.62 20.8305 183.854 20.752 183.998 20.6514C184.147 20.5468 184.222 20.3999 184.222 20.2107V20.1805C184.222 19.8706 184.115 19.6312 183.902 19.4621C183.688 19.2931 183.401 19.2086 183.039 19.2086C182.648 19.2086 182.334 19.2931 182.097 19.4621C181.859 19.6312 181.708 19.8646 181.644 20.1624L178.921 20.0658C179.002 19.5024 179.209 18.9993 179.543 18.5566C179.881 18.1099 180.344 17.7597 180.932 17.5062C181.523 17.2486 182.234 17.1198 183.063 17.1198C183.654 17.1198 184.2 17.1902 184.699 17.3311C185.198 17.4679 185.632 17.6692 186.003 17.9348C186.373 18.1964 186.659 18.5184 186.86 18.9007C187.065 19.283 187.168 19.7197 187.168 20.2107V26.5133H184.391V25.2214H184.318C184.153 25.5353 183.942 25.8009 183.684 26.0182C183.431 26.2356 183.131 26.3986 182.785 26.5072C182.443 26.6159 182.057 26.6702 181.626 26.6702ZM182.537 24.7384C182.855 24.7384 183.141 24.674 183.395 24.5452C183.652 24.4164 183.858 24.2394 184.01 24.014C184.163 23.7846 184.24 23.519 184.24 23.2171V22.3357C184.155 22.38 184.053 22.4202 183.932 22.4565C183.815 22.4927 183.686 22.5269 183.546 22.5591C183.405 22.5913 183.26 22.6195 183.111 22.6436C182.962 22.6677 182.819 22.6899 182.682 22.71C182.405 22.7543 182.167 22.8227 181.97 22.9153C181.777 23.0078 181.628 23.1286 181.523 23.2775C181.423 23.4224 181.372 23.5954 181.372 23.7967C181.372 24.1025 181.481 24.336 181.698 24.4969C181.92 24.6579 182.199 24.7384 182.537 24.7384ZM194.207 17.2405V19.4138H188.357V17.2405H194.207ZM189.583 15.019H192.535V23.5974C192.535 23.7785 192.563 23.9254 192.619 24.0381C192.68 24.1468 192.766 24.2253 192.879 24.2736C192.991 24.3178 193.126 24.34 193.283 24.34C193.396 24.34 193.515 24.3299 193.639 24.3098C193.768 24.2856 193.865 24.2655 193.929 24.2494L194.376 26.3805C194.235 26.4207 194.036 26.471 193.778 26.5314C193.525 26.5918 193.221 26.63 192.867 26.6461C192.174 26.6783 191.581 26.5978 191.086 26.4046C190.595 26.2074 190.218 25.9015 189.957 25.487C189.699 25.0725 189.575 24.5513 189.583 23.9234V15.019ZM199.948 26.6883C198.978 26.6883 198.141 26.4972 197.437 26.1148C196.736 25.7285 196.197 25.1791 195.819 24.4668C195.444 23.7504 195.257 22.8992 195.257 21.9131C195.257 20.9553 195.446 20.1181 195.825 19.4018C196.203 18.6814 196.736 18.1219 197.425 17.7235C198.113 17.321 198.924 17.1198 199.857 17.1198C200.517 17.1198 201.121 17.2224 201.668 17.4277C202.216 17.6329 202.689 17.9368 203.087 18.3393C203.486 18.7417 203.796 19.2388 204.017 19.8304C204.238 20.418 204.349 21.0921 204.349 21.8528V22.5893H196.29V20.8748H201.602C201.598 20.5609 201.524 20.2811 201.379 20.0356C201.234 19.7901 201.035 19.599 200.781 19.4621C200.532 19.3213 200.244 19.2508 199.918 19.2508C199.588 19.2508 199.292 19.3253 199.03 19.4742C198.769 19.6191 198.561 19.8183 198.409 20.0719C198.256 20.3214 198.175 20.6051 198.167 20.9231V22.6677C198.167 23.0461 198.242 23.3781 198.39 23.6638C198.539 23.9456 198.751 24.1649 199.024 24.3219C199.298 24.4788 199.624 24.5573 200.002 24.5573C200.264 24.5573 200.501 24.5211 200.715 24.4486C200.928 24.3762 201.111 24.2695 201.264 24.1287C201.417 23.9878 201.532 23.8148 201.608 23.6095L204.319 23.688C204.206 24.2957 203.958 24.8249 203.576 25.2757C203.198 25.7224 202.701 26.0706 202.085 26.3201C201.469 26.5656 200.757 26.6883 199.948 26.6883ZM205.857 26.5133V17.2405H208.724V18.9309H208.821C208.99 18.3191 209.265 17.8644 209.648 17.5665C210.03 17.2647 210.475 17.1138 210.982 17.1138C211.119 17.1138 211.26 17.1238 211.405 17.144C211.549 17.1601 211.684 17.1862 211.809 17.2224V19.7881C211.668 19.7398 211.483 19.7016 211.254 19.6734C211.028 19.6453 210.827 19.6312 210.65 19.6312C210.3 19.6312 209.984 19.7096 209.702 19.8666C209.424 20.0195 209.205 20.2349 209.044 20.5126C208.887 20.7862 208.809 21.1082 208.809 21.4785V26.5133H205.857ZM218.714 17.2405V19.4138H212.749V17.2405H218.714ZM213.993 26.5133V16.7697C213.993 16.0533 214.128 15.4597 214.397 14.9888C214.667 14.5139 215.041 14.1597 215.52 13.9263C215.999 13.6888 216.553 13.5701 217.18 13.5701C217.591 13.5701 217.977 13.6023 218.339 13.6667C218.706 13.7271 218.977 13.7814 219.154 13.8297L218.684 15.9909C218.575 15.9547 218.442 15.9245 218.285 15.9003C218.132 15.8762 217.987 15.8641 217.85 15.8641C217.504 15.8641 217.267 15.9406 217.138 16.0935C217.009 16.2465 216.945 16.4557 216.945 16.7214V26.5133H213.993ZM222.383 26.6702C221.791 26.6702 221.266 26.5716 220.807 26.3744C220.352 26.1732 219.992 25.8713 219.726 25.4689C219.465 25.0624 219.334 24.5533 219.334 23.9415C219.334 23.4264 219.425 22.9917 219.606 22.6376C219.787 22.2834 220.036 21.9956 220.354 21.7743C220.672 21.5529 221.038 21.3859 221.453 21.2732C221.868 21.1565 222.31 21.078 222.781 21.0378C223.308 20.9895 223.733 20.9392 224.055 20.8869C224.377 20.8305 224.61 20.752 224.755 20.6514C224.904 20.5468 224.979 20.3999 224.979 20.2107V20.1805C224.979 19.8706 224.872 19.6312 224.659 19.4621C224.445 19.2931 224.158 19.2086 223.795 19.2086C223.405 19.2086 223.091 19.2931 222.854 19.4621C222.616 19.6312 222.465 19.8646 222.401 20.1624L219.678 20.0658C219.759 19.5024 219.966 18.9993 220.3 18.5566C220.638 18.1099 221.101 17.7597 221.688 17.5062C222.28 17.2486 222.99 17.1198 223.819 17.1198C224.411 17.1198 224.956 17.1902 225.456 17.3311C225.955 17.4679 226.389 17.6692 226.759 17.9348C227.13 18.1964 227.415 18.5184 227.617 18.9007C227.822 19.283 227.925 19.7197 227.925 20.2107V26.5133H225.148V25.2214H225.075C224.91 25.5353 224.699 25.8009 224.441 26.0182C224.188 26.2356 223.888 26.3986 223.542 26.5072C223.2 26.6159 222.813 26.6702 222.383 26.6702ZM223.294 24.7384C223.612 24.7384 223.898 24.674 224.152 24.5452C224.409 24.4164 224.614 24.2394 224.767 24.014C224.92 23.7846 224.997 23.519 224.997 23.2171V22.3357C224.912 22.38 224.81 22.4202 224.689 22.4565C224.572 22.4927 224.443 22.5269 224.302 22.5591C224.162 22.5913 224.017 22.6195 223.868 22.6436C223.719 22.6677 223.576 22.6899 223.439 22.71C223.161 22.7543 222.924 22.8227 222.727 22.9153C222.534 23.0078 222.385 23.1286 222.28 23.2775C222.179 23.4224 222.129 23.5954 222.129 23.7967C222.129 24.1025 222.238 24.336 222.455 24.4969C222.677 24.6579 222.956 24.7384 223.294 24.7384ZM232.682 14.1496V26.5133H229.73V14.1496H232.682ZM237.513 14.1496V26.5133H234.561V14.1496H237.513Z" fill="white"/>
</g>
</g>
<rect x="1.07973" y="1.084" width="244.858" height="37.8585" rx="6.92857" stroke="white" stroke-opacity="0.15" stroke-width="2.14286"/>
<defs>
<filter id="filter0_d_33_49" x="2.40802" y="0.412293" width="40.6083" height="41.3036" filterUnits="userSpaceOnUse" color-interpolation-filters="sRGB">
<feFlood flood-opacity="0" result="BackgroundImageFix"/>
<feColorMatrix in="SourceAlpha" type="matrix" values="0 0 0 0 0 0 0 0 0 0 0 0 0 0 0 0 0 0 127 0" result="hardAlpha"/>
<feOffset/>
<feGaussianBlur stdDeviation="2.80014"/>
<feComposite in2="hardAlpha" operator="out"/>
<feColorMatrix type="matrix" values="0 0 0 0 0 0 0 0 0 0 0 0 0 0 0 0 0 0 0.25 0"/>
<feBlend mode="normal" in2="BackgroundImageFix" result="effect1_dropShadow_33_49"/>
<feBlend mode="normal" in="SourceGraphic" in2="effect1_dropShadow_33_49" result="shape"/>
</filter>
<filter id="filter1_d_33_49" x="36.2955" y="3.79899" width="208.429" height="32.4286" filterUnits="userSpaceOnUse" color-interpolation-filters="sRGB">
<feFlood flood-opacity="0" result="BackgroundImageFix"/>
<feColorMatrix in="SourceAlpha" type="matrix" values="0 0 0 0 0 0 0 0 0 0 0 0 0 0 0 0 0 0 127 0" result="hardAlpha"/>
<feOffset/>
<feGaussianBlur stdDeviation="2.85714"/>
<feComposite in2="hardAlpha" operator="out"/>
<feColorMatrix type="matrix" values="0 0 0 0 0 0 0 0 0 0 0 0 0 0 0 0 0 0 0.25 0"/>
<feBlend mode="normal" in2="BackgroundImageFix" result="effect1_dropShadow_33_49"/>
<feBlend mode="normal" in="SourceGraphic" in2="effect1_dropShadow_33_49" result="shape"/>
</filter>
<linearGradient id="paint0_linear_33_49" x1="123.509" y1="0.0125732" x2="123.509" y2="40.014" gradientUnits="userSpaceOnUse">
<stop stop-color="#2C1B1B"/>
<stop offset="1" stop-color="#1F1414"/>
</linearGradient>
<linearGradient id="paint1_linear_33_49" x1="26.9136" y1="17.2132" x2="26.9136" y2="34.0155" gradientUnits="userSpaceOnUse">
<stop stop-color="#FF0000"/>
<stop offset="1" stop-color="#CC0000"/>
</linearGradient>
<clipPath id="clip0_33_49">
<rect x="0.00830078" y="0.0125732" width="247.001" height="40.0014" rx="8" fill="white"/>
</clipPath>
</defs>
</svg>
