<svg width="107" height="40" viewBox="0 0 107 40" fill="none" xmlns="http://www.w3.org/2000/svg">
<rect x="-0.000244141" y="-6.10352e-05" width="107" height="40" rx="6" fill="url(#paint0_linear_6_4)"/>
<g filter="url(#filter0_d_6_4)">
<path fill-rule="evenodd" clip-rule="evenodd" d="M26.3758 7.3929C26.7379 8.02991 26.8334 8.78422 26.6416 9.49138C26.4498 10.1985 25.9861 10.8012 25.3518 11.1679L17.1518 15.8809C17.0451 15.9425 16.9566 16.0311 16.8951 16.1379C16.8337 16.2446 16.8015 16.3657 16.8018 16.4889V23.8889C16.8015 24.0121 16.8337 24.1332 16.8951 24.2399C16.9566 24.3467 17.0451 24.4353 17.1518 24.4969L23.6438 28.2279C23.7485 28.2884 23.8674 28.3202 23.9883 28.3202C24.1093 28.3202 24.2281 28.2884 24.3328 28.2279L30.8238 24.4989C30.9305 24.4373 31.019 24.3487 31.0805 24.2419C31.1419 24.1352 31.1741 24.0141 31.1738 23.8909V19.2909L25.3388 22.5989C25.0242 22.7774 24.6773 22.8919 24.3182 22.9357C23.9592 22.9795 23.595 22.9518 23.2467 22.8542C22.8983 22.7566 22.5728 22.591 22.2888 22.367C22.0047 22.1429 21.7679 21.8649 21.5918 21.5489C21.2333 20.91 21.1419 20.1553 21.3374 19.4493C21.533 18.7433 21.9997 18.1433 22.6358 17.7799L30.9848 13.0419C31.5667 12.7138 32.2246 12.5443 32.8926 12.5502C33.5607 12.5561 34.2154 12.7373 34.7915 13.0756C35.3675 13.4139 35.8446 13.8976 36.1751 14.4781C36.5056 15.0587 36.6779 15.7159 36.6748 16.3839V24.4509C36.6757 25.3776 36.4323 26.2882 35.9692 27.0908C35.5061 27.8935 34.8396 28.5599 34.0368 29.0229L26.5848 33.3059C25.7946 33.7604 24.8989 33.9996 23.9873 33.9996C23.0757 33.9996 22.18 33.7604 21.3898 33.3059L13.9378 29.0219C13.1351 28.5589 12.4685 27.8925 12.0054 27.0898C11.5423 26.2872 11.2989 25.3766 11.2998 24.4499V15.9279C11.2988 15.0012 11.5421 14.0906 12.0053 13.2879C12.4684 12.4852 13.135 11.8188 13.9378 11.3559L22.6228 6.3639C22.9365 6.18388 23.2827 6.06768 23.6415 6.02198C24.0003 5.97628 24.3646 6.00199 24.7134 6.09763C25.0622 6.19327 25.3886 6.35695 25.674 6.57924C25.9593 6.80154 26.1978 7.07806 26.3758 7.3929Z" fill="url(#paint1_linear_6_4)"/>
</g>
<g filter="url(#filter1_d_6_4)">
<path d="M46.8787 17.9999V9.99994H49.7302C50.35 9.99994 50.8643 10.1067 51.2732 10.3203C51.6847 10.5338 51.9919 10.8294 52.1951 11.207C52.3982 11.582 52.4998 12.0156 52.4998 12.5077C52.4998 12.9973 52.3969 13.4283 52.1912 13.8007C51.988 14.1705 51.6807 14.4583 51.2693 14.664C50.8604 14.8697 50.3461 14.9726 49.7263 14.9726H47.5662V13.9335H49.6169C50.0076 13.9335 50.3253 13.8775 50.5701 13.7656C50.8175 13.6536 50.9985 13.4908 51.113 13.2773C51.2276 13.0637 51.2849 12.8072 51.2849 12.5077C51.2849 12.2057 51.2263 11.9439 51.1091 11.7226C50.9945 11.5012 50.8136 11.332 50.5662 11.2148C50.3214 11.095 49.9998 11.0351 49.6013 11.0351H48.0857V17.9999H46.8787ZM50.8279 14.3906L52.8044 17.9999H51.4294L49.4919 14.3906H50.8279ZM56.3855 18.121C55.7943 18.121 55.2852 17.9947 54.8582 17.7421C54.4337 17.4869 54.1055 17.1288 53.8738 16.6679C53.6446 16.2044 53.53 15.6614 53.53 15.039C53.53 14.4244 53.6446 13.8827 53.8738 13.414C54.1055 12.9452 54.4285 12.5794 54.8425 12.3163C55.2592 12.0533 55.7462 11.9218 56.3035 11.9218C56.642 11.9218 56.9701 11.9778 57.2878 12.0898C57.6055 12.2018 57.8907 12.3775 58.1433 12.6171C58.3959 12.8567 58.5951 13.1679 58.741 13.5507C58.8868 13.9309 58.9597 14.3932 58.9597 14.9374V15.3515H54.1902V14.4765H57.8152C57.8152 14.1692 57.7527 13.8971 57.6277 13.6601C57.5027 13.4205 57.3269 13.2317 57.1003 13.0937C56.8764 12.9557 56.6134 12.8867 56.3113 12.8867C55.9832 12.8867 55.6967 12.9674 55.4519 13.1288C55.2097 13.2877 55.0222 13.496 54.8894 13.7538C54.7592 14.0091 54.6941 14.2864 54.6941 14.5859V15.2695C54.6941 15.6705 54.7644 16.0117 54.905 16.2929C55.0483 16.5742 55.2475 16.789 55.5027 16.9374C55.7579 17.0833 56.0561 17.1562 56.3972 17.1562C56.6186 17.1562 56.8204 17.1249 57.0027 17.0624C57.185 16.9973 57.3425 16.901 57.4753 16.7734C57.6082 16.6458 57.7097 16.4882 57.78 16.3007L58.8855 16.4999C58.797 16.8255 58.6381 17.1106 58.4089 17.3554C58.1824 17.5976 57.8972 17.7864 57.5535 17.9218C57.2123 18.0546 56.823 18.121 56.3855 18.121ZM62.0017 18.1327C61.6215 18.1327 61.2777 18.0624 60.9705 17.9218C60.6632 17.7786 60.4197 17.5716 60.24 17.3007C60.0629 17.0299 59.9744 16.6979 59.9744 16.3046C59.9744 15.9661 60.0395 15.6874 60.1697 15.4687C60.2999 15.2499 60.4757 15.0768 60.697 14.9492C60.9184 14.8216 61.1658 14.7252 61.4392 14.6601C61.7126 14.595 61.9913 14.5455 62.2751 14.5117C62.6345 14.47 62.9262 14.4361 63.1501 14.4101C63.3741 14.3814 63.5369 14.3359 63.6384 14.2734C63.74 14.2109 63.7908 14.1093 63.7908 13.9687V13.9413C63.7908 13.6002 63.6944 13.3359 63.5017 13.1484C63.3116 12.9609 63.0277 12.8671 62.6501 12.8671C62.2569 12.8671 61.947 12.9544 61.7205 13.1288C61.4965 13.3007 61.3415 13.4921 61.2556 13.7031L60.158 13.4531C60.2882 13.0885 60.4783 12.7942 60.7283 12.5702C60.9809 12.3437 61.2712 12.1796 61.5994 12.0781C61.9275 11.9739 62.2725 11.9218 62.6345 11.9218C62.8741 11.9218 63.128 11.9505 63.3962 12.0078C63.6671 12.0624 63.9197 12.164 64.154 12.3124C64.391 12.4609 64.585 12.6731 64.7361 12.9492C64.8871 13.2226 64.9626 13.5781 64.9626 14.0156V17.9999H63.822V17.1796H63.7751C63.6996 17.3307 63.5863 17.4791 63.4353 17.6249C63.2843 17.7708 63.0902 17.8919 62.8533 17.9882C62.6163 18.0846 62.3324 18.1327 62.0017 18.1327ZM62.2556 17.1952C62.5785 17.1952 62.8546 17.1314 63.0837 17.0038C63.3155 16.8762 63.4913 16.7096 63.6111 16.5038C63.7335 16.2955 63.7947 16.0729 63.7947 15.8359V15.0624C63.753 15.1041 63.6723 15.1432 63.5525 15.1796C63.4353 15.2135 63.3012 15.2434 63.1501 15.2695C62.9991 15.2929 62.852 15.315 62.7087 15.3359C62.5655 15.3541 62.4457 15.3697 62.3494 15.3827C62.1228 15.4114 61.9158 15.4596 61.7283 15.5273C61.5434 15.595 61.3949 15.6926 61.283 15.8202C61.1736 15.9452 61.1189 16.1119 61.1189 16.3202C61.1189 16.6093 61.2257 16.8281 61.4392 16.9765C61.6527 17.1223 61.9249 17.1952 62.2556 17.1952ZM68.7644 18.1171C68.28 18.1171 67.8477 17.9934 67.4675 17.746C67.0899 17.496 66.793 17.1406 66.5769 16.6796C66.3634 16.2161 66.2566 15.6601 66.2566 15.0117C66.2566 14.3632 66.3647 13.8085 66.5808 13.3476C66.7996 12.8867 67.099 12.5338 67.4792 12.289C67.8594 12.0442 68.2904 11.9218 68.7722 11.9218C69.1446 11.9218 69.4441 11.9843 69.6706 12.1093C69.8998 12.2317 70.0769 12.3749 70.2019 12.539C70.3295 12.7031 70.4285 12.8476 70.4988 12.9726H70.5691V9.99994H71.7371V17.9999H70.5964V17.0663H70.4988C70.4285 17.1939 70.3269 17.3398 70.1941 17.5038C70.0639 17.6679 69.8842 17.8111 69.655 17.9335C69.4259 18.0559 69.129 18.1171 68.7644 18.1171ZM69.0222 17.121C69.3581 17.121 69.642 17.0325 69.8738 16.8554C70.1081 16.6757 70.2852 16.427 70.405 16.1093C70.5274 15.7916 70.5886 15.4218 70.5886 14.9999C70.5886 14.5833 70.5287 14.2187 70.4089 13.9062C70.2891 13.5937 70.1134 13.3502 69.8816 13.1757C69.6498 13.0012 69.3634 12.914 69.0222 12.914C68.6706 12.914 68.3777 13.0051 68.1433 13.1874C67.9089 13.3697 67.7318 13.6184 67.6121 13.9335C67.4949 14.2486 67.4363 14.6041 67.4363 14.9999C67.4363 15.401 67.4962 15.7617 67.616 16.082C67.7358 16.4023 67.9128 16.6562 68.1472 16.8437C68.3842 17.0286 68.6759 17.121 69.0222 17.121ZM74.1423 20.2499C73.9678 20.2499 73.809 20.2356 73.6658 20.207C73.5225 20.1809 73.4158 20.1523 73.3455 20.121L73.6267 19.164C73.8402 19.2213 74.0303 19.246 74.197 19.2382C74.3637 19.2304 74.5108 19.1679 74.6384 19.0507C74.7686 18.9335 74.8832 18.7421 74.9822 18.4765L75.1267 18.0781L72.9314 11.9999H74.1814L75.7009 16.6562H75.7634L77.2829 11.9999H78.5369L76.0642 18.8007C75.9496 19.1132 75.8038 19.3775 75.6267 19.5937C75.4496 19.8124 75.2387 19.9765 74.9939 20.0859C74.7491 20.1952 74.4652 20.2499 74.1423 20.2499ZM85.4011 11.9999V12.9374H82.0105V11.9999H85.4011ZM82.9402 17.9999V11.3046C82.9402 10.9296 83.0222 10.6184 83.1863 10.371C83.3503 10.121 83.5678 9.93483 83.8386 9.81244C84.1094 9.68744 84.4037 9.62494 84.7214 9.62494C84.9558 9.62494 85.1563 9.64447 85.323 9.68353C85.4897 9.71999 85.6134 9.75384 85.6941 9.78509L85.4206 10.7304C85.366 10.7148 85.2956 10.6966 85.2097 10.6757C85.1238 10.6523 85.0196 10.6406 84.8972 10.6406C84.6134 10.6406 84.4102 10.7109 84.2878 10.8515C84.168 10.9921 84.1081 11.1953 84.1081 11.4609V17.9999H82.9402ZM88.8972 18.121C88.3347 18.121 87.8438 17.9921 87.4245 17.7343C87.0053 17.4765 86.6798 17.1158 86.448 16.6523C86.2162 16.1887 86.1003 15.6471 86.1003 15.0273C86.1003 14.4049 86.2162 13.8606 86.448 13.3945C86.6798 12.9283 87.0053 12.5663 87.4245 12.3085C87.8438 12.0507 88.3347 11.9218 88.8972 11.9218C89.4597 11.9218 89.9506 12.0507 90.3699 12.3085C90.7891 12.5663 91.1147 12.9283 91.3464 13.3945C91.5782 13.8606 91.6941 14.4049 91.6941 15.0273C91.6941 15.6471 91.5782 16.1887 91.3464 16.6523C91.1147 17.1158 90.7891 17.4765 90.3699 17.7343C89.9506 17.9921 89.4597 18.121 88.8972 18.121ZM88.9011 17.1406C89.2657 17.1406 89.5678 17.0442 89.8074 16.8515C90.0469 16.6588 90.224 16.4023 90.3386 16.082C90.4558 15.7617 90.5144 15.4088 90.5144 15.0234C90.5144 14.6406 90.4558 14.289 90.3386 13.9687C90.224 13.6458 90.0469 13.3867 89.8074 13.1913C89.5678 12.996 89.2657 12.8984 88.9011 12.8984C88.5339 12.8984 88.2292 12.996 87.987 13.1913C87.7475 13.3867 87.5691 13.6458 87.4519 13.9687C87.3373 14.289 87.28 14.6406 87.28 15.0234C87.28 15.4088 87.3373 15.7617 87.4519 16.082C87.5691 16.4023 87.7475 16.6588 87.987 16.8515C88.2292 17.0442 88.5339 17.1406 88.9011 17.1406ZM92.9978 17.9999V11.9999H94.1267V12.9531H94.1892C94.2986 12.6301 94.4913 12.3762 94.7673 12.1913C95.046 12.0038 95.3611 11.9101 95.7126 11.9101C95.7855 11.9101 95.8715 11.9127 95.9704 11.9179C96.072 11.9231 96.1514 11.9296 96.2087 11.9374V13.0546C96.1619 13.0416 96.0785 13.0273 95.9587 13.0117C95.8389 12.9934 95.7191 12.9843 95.5994 12.9843C95.3233 12.9843 95.0772 13.0429 94.8611 13.1601C94.6475 13.2747 94.4783 13.4348 94.3533 13.6406C94.2283 13.8437 94.1658 14.0755 94.1658 14.3359V17.9999H92.9978Z" fill="#E8E8E8"/>
<path d="M52.3875 25.1235C52.3392 24.9445 52.2682 24.7869 52.1745 24.6505C52.0807 24.5113 51.9657 24.3934 51.8293 24.2968C51.6929 24.2002 51.5367 24.1278 51.3605 24.0795C51.1844 24.0283 50.9912 24.0028 50.781 24.0028C50.3577 24.0028 49.9912 24.1051 49.6816 24.3096C49.3748 24.5141 49.1375 24.8124 48.9699 25.2045C48.8023 25.5937 48.7185 26.0667 48.7185 26.6235C48.7185 27.1832 48.7995 27.6604 48.9614 28.0553C49.1233 28.4502 49.3577 28.7514 49.6645 28.9587C49.9713 29.1661 50.3435 29.2698 50.781 29.2698C51.1674 29.2698 51.4941 29.2073 51.7611 29.0823C52.031 28.9545 52.2355 28.7741 52.3748 28.5411C52.514 28.3082 52.5836 28.034 52.5836 27.7187L52.9756 27.7656H50.8534V26.2272H54.6162V27.382C54.6162 28.1633 54.45 28.8323 54.1177 29.3891C53.7881 29.946 53.3336 30.3735 52.754 30.6718C52.1773 30.9701 51.514 31.1193 50.764 31.1193C49.9316 31.1193 49.2 30.9389 48.5694 30.5781C47.9387 30.2173 47.4472 29.7031 47.0949 29.0354C46.7427 28.365 46.5665 27.5695 46.5665 26.6491C46.5665 25.9332 46.6731 25.2982 46.8861 24.7443C47.0992 24.1874 47.3961 23.7158 47.7767 23.3295C48.1603 22.9431 48.6034 22.6505 49.1063 22.4516C49.612 22.2528 50.156 22.1533 50.7384 22.1533C51.2441 22.1533 51.7142 22.2258 52.1489 22.3707C52.5864 22.5156 52.9728 22.7201 53.308 22.9843C53.6461 23.2485 53.9202 23.5624 54.1304 23.9261C54.3407 24.2897 54.4713 24.6889 54.5225 25.1235H52.3875ZM56.2696 30.9999V24.4545H58.3534V30.9999H56.2696ZM57.3137 23.6917C57.0211 23.6917 56.7696 23.5951 56.5594 23.4019C56.3492 23.2059 56.2441 22.9701 56.2441 22.6945C56.2441 22.4218 56.3492 22.1889 56.5594 21.9957C56.7696 21.7997 57.0211 21.7016 57.3137 21.7016C57.6091 21.7016 57.8605 21.7997 58.0679 21.9957C58.2782 22.1889 58.3833 22.4218 58.3833 22.6945C58.3833 22.9701 58.2782 23.2059 58.0679 23.4019C57.8605 23.5951 57.6091 23.6917 57.3137 23.6917ZM63.3744 24.4545V25.9886H59.2451V24.4545H63.3744ZM60.1102 22.8863H62.194V28.9417C62.194 29.0695 62.2139 29.1732 62.2537 29.2528C62.2963 29.3295 62.3574 29.3849 62.4369 29.419C62.5164 29.4502 62.6116 29.4658 62.7224 29.4658C62.802 29.4658 62.8858 29.4587 62.9738 29.4445C63.0647 29.4275 63.1329 29.4133 63.1784 29.4019L63.4937 30.9062C63.3943 30.9346 63.2537 30.9701 63.0718 31.0127C62.8929 31.0553 62.6784 31.0823 62.4284 31.0937C61.9397 31.1164 61.5207 31.0596 61.1713 30.9232C60.8247 30.784 60.5591 30.5681 60.3744 30.2755C60.1926 29.9829 60.1045 29.615 60.1102 29.1718V22.8863ZM64.4376 33.4545V24.4545H66.5001V25.5752H66.564C66.6493 25.3764 66.77 25.1846 66.9262 24.9999C67.0853 24.8153 67.287 24.6647 67.5314 24.5482C67.7785 24.4289 68.074 24.3693 68.4177 24.3693C68.8723 24.3693 69.297 24.4886 69.6919 24.7272C70.0896 24.9658 70.4106 25.3337 70.6549 25.8309C70.8993 26.3281 71.0214 26.9616 71.0214 27.7315C71.0214 28.4729 70.9035 29.0937 70.6677 29.5937C70.4348 30.0937 70.1194 30.4687 69.7217 30.7187C69.3268 30.9687 68.8879 31.0937 68.4049 31.0937C68.0754 31.0937 67.7899 31.0397 67.5484 30.9318C67.3069 30.8238 67.1038 30.6818 66.939 30.5056C66.7771 30.3295 66.6521 30.1406 66.564 29.9389H66.5214V33.4545H64.4376ZM66.4788 27.7272C66.4788 28.0795 66.5257 28.3863 66.6194 28.6477C66.716 28.909 66.8538 29.1122 67.0328 29.257C67.2146 29.3991 67.4319 29.4701 67.6848 29.4701C67.9404 29.4701 68.1578 29.3991 68.3368 29.257C68.5157 29.1122 68.6507 28.909 68.7416 28.6477C68.8353 28.3863 68.8822 28.0795 68.8822 27.7272C68.8822 27.3749 68.8353 27.0695 68.7416 26.811C68.6507 26.5525 68.5157 26.3522 68.3368 26.2102C68.1606 26.0681 67.9433 25.9971 67.6848 25.9971C67.4291 25.9971 67.2118 26.0667 67.0328 26.2059C66.8538 26.3451 66.716 26.544 66.6194 26.8025C66.5257 27.061 66.4788 27.3693 66.4788 27.7272ZM75.1688 31.1235C74.4813 31.1235 73.8904 30.9829 73.3961 30.7016C72.9046 30.4175 72.5253 30.0227 72.2583 29.517C71.9941 29.0085 71.862 28.419 71.862 27.7485C71.862 27.0752 71.9941 26.4857 72.2583 25.9801C72.5253 25.4715 72.9046 25.0766 73.3961 24.7954C73.8904 24.5113 74.4813 24.3693 75.1688 24.3693C75.8563 24.3693 76.4458 24.5113 76.9372 24.7954C77.4316 25.0766 77.8108 25.4715 78.075 25.9801C78.3421 26.4857 78.4756 27.0752 78.4756 27.7485C78.4756 28.419 78.3421 29.0085 78.075 29.517C77.8108 30.0227 77.4316 30.4175 76.9372 30.7016C76.4458 30.9829 75.8563 31.1235 75.1688 31.1235ZM75.1816 29.5511C75.4316 29.5511 75.6432 29.4744 75.8165 29.321C75.9898 29.1675 76.1219 28.9545 76.2128 28.6818C76.3066 28.409 76.3534 28.0937 76.3534 27.7357C76.3534 27.3721 76.3066 27.0539 76.2128 26.7812C76.1219 26.5085 75.9898 26.2954 75.8165 26.142C75.6432 25.9886 75.4316 25.9119 75.1816 25.9119C74.923 25.9119 74.7043 25.9886 74.5253 26.142C74.3492 26.2954 74.2142 26.5085 74.1205 26.7812C74.0296 27.0539 73.9841 27.3721 73.9841 27.7357C73.9841 28.0937 74.0296 28.409 74.1205 28.6818C74.2142 28.9545 74.3492 29.1675 74.5253 29.321C74.7043 29.4744 74.923 29.5511 75.1816 29.5511ZM81.9337 31.0937C81.4507 31.0937 81.0118 30.9687 80.6169 30.7187C80.222 30.4687 79.9067 30.0937 79.6709 29.5937C79.4351 29.0937 79.3172 28.4729 79.3172 27.7315C79.3172 26.9616 79.4394 26.3281 79.6837 25.8309C79.928 25.3337 80.2476 24.9658 80.6425 24.7272C81.0402 24.4886 81.4678 24.3693 81.9252 24.3693C82.2689 24.3693 82.563 24.4289 82.8073 24.5482C83.0516 24.6647 83.2533 24.8153 83.4124 24.9999C83.5715 25.1846 83.6922 25.3764 83.7746 25.5752H83.8172V22.2727H85.901V30.9999H83.8385V29.9389H83.7746C83.6865 30.1406 83.5615 30.3295 83.3996 30.5056C83.2377 30.6818 83.0345 30.8238 82.7902 30.9318C82.5488 31.0397 82.2632 31.0937 81.9337 31.0937ZM82.6581 29.4701C82.911 29.4701 83.1269 29.3991 83.3059 29.257C83.4848 29.1122 83.6226 28.909 83.7192 28.6477C83.8158 28.3863 83.8641 28.0795 83.8641 27.7272C83.8641 27.3693 83.8158 27.061 83.7192 26.8025C83.6255 26.544 83.4877 26.3451 83.3059 26.2059C83.1269 26.0667 82.911 25.9971 82.6581 25.9971C82.3996 25.9971 82.1809 26.0681 82.0019 26.2102C81.8229 26.3522 81.6865 26.5525 81.5928 26.811C81.5019 27.0695 81.4564 27.3749 81.4564 27.7272C81.4564 28.0795 81.5033 28.3863 81.597 28.6477C81.6908 28.909 81.8257 29.1122 82.0019 29.257C82.1809 29.3991 82.3996 29.4701 82.6581 29.4701Z" fill="url(#paint2_linear_6_4)"/>
</g>
<rect x="0.749756" y="0.749939" width="105.5" height="38.5" rx="5.25" stroke="white" stroke-opacity="0.15" stroke-width="1.5"/>
<defs>
<filter id="filter0_d_6_4" x="5.99976" y="1.99994" width="36" height="36" filterUnits="userSpaceOnUse" color-interpolation-filters="sRGB">
<feFlood flood-opacity="0" result="BackgroundImageFix"/>
<feColorMatrix in="SourceAlpha" type="matrix" values="0 0 0 0 0 0 0 0 0 0 0 0 0 0 0 0 0 0 127 0" result="hardAlpha"/>
<feOffset/>
<feGaussianBlur stdDeviation="2"/>
<feComposite in2="hardAlpha" operator="out"/>
<feColorMatrix type="matrix" values="0 0 0 0 0 0 0 0 0 0 0 0 0 0 0 0 0 0 0.25 0"/>
<feBlend mode="normal" in2="BackgroundImageFix" result="effect1_dropShadow_6_4"/>
<feBlend mode="normal" in="SourceGraphic" in2="effect1_dropShadow_6_4" result="shape"/>
</filter>
<filter id="filter1_d_6_4" x="41.9998" y="2.99994" width="59" height="34.4545" filterUnits="userSpaceOnUse" color-interpolation-filters="sRGB">
<feFlood flood-opacity="0" result="BackgroundImageFix"/>
<feColorMatrix in="SourceAlpha" type="matrix" values="0 0 0 0 0 0 0 0 0 0 0 0 0 0 0 0 0 0 127 0" result="hardAlpha"/>
<feOffset/>
<feGaussianBlur stdDeviation="2"/>
<feComposite in2="hardAlpha" operator="out"/>
<feColorMatrix type="matrix" values="0 0 0 0 0 0 0 0 0 0 0 0 0 0 0 0 0 0 0.25 0"/>
<feBlend mode="normal" in2="BackgroundImageFix" result="effect1_dropShadow_6_4"/>
<feBlend mode="normal" in="SourceGraphic" in2="effect1_dropShadow_6_4" result="shape"/>
</filter>
<linearGradient id="paint0_linear_6_4" x1="-0.500244" y1="40" x2="6.01869" y2="1.00623" gradientUnits="userSpaceOnUse">
<stop stop-color="#331C00"/>
<stop offset="1" stop-color="#392916"/>
</linearGradient>
<linearGradient id="paint1_linear_6_4" x1="30.3688" y1="10.2139" x2="17.2368" y2="30.7409" gradientUnits="userSpaceOnUse">
<stop stop-color="#FFB45B"/>
<stop offset="1" stop-color="#FF8A00"/>
</linearGradient>
<linearGradient id="paint2_linear_6_4" x1="45.9998" y1="33" x2="45.9998" y2="20" gradientUnits="userSpaceOnUse">
<stop stop-color="#FF8A00"/>
<stop offset="1" stop-color="#FFB45B"/>
</linearGradient>
</defs>
</svg>
