<svg width="121" height="40" viewBox="0 0 121 40" fill="none" xmlns="http://www.w3.org/2000/svg">
<rect x="-0.000244141" y="-2.28882e-05" width="121" height="40" rx="6" fill="url(#paint0_linear_18_2842)"/>
<g filter="url(#filter0_d_18_2842)">
<path d="M12.4998 16.2608V12.7929C12.5451 12.7901 12.5898 12.7301 12.6327 12.7149C13.3802 12.3347 14.12 11.937 14.8771 11.5787C15.104 11.4707 15.187 11.3652 15.1822 11.1105C15.1654 10.1838 15.1755 9.25657 15.176 8.32938C15.176 8.04446 15.176 8.04203 15.4116 7.92291C16.3884 7.42747 17.3672 6.93495 18.3431 6.43756C18.617 6.29851 18.914 6.20321 19.1539 5.99998H19.3708C19.3794 6.02088 19.3823 6.05297 19.3972 6.06075C20.6365 6.68407 21.8772 7.30349 23.1141 7.93118C23.1894 7.96959 23.2172 7.97251 23.2935 7.93118C23.7095 7.71385 24.1384 7.52082 24.552 7.29911C24.6657 7.23785 24.7223 7.24709 24.8307 7.30787C25.1512 7.48873 25.4871 7.64043 25.8186 7.80622C26.0321 7.91368 26.0321 7.91805 26.2144 7.82178C26.522 7.65939 26.8271 7.49262 27.1347 7.33072C27.352 7.21646 27.3746 7.21646 27.5756 7.31856C28.7911 7.93863 30.0075 8.55871 31.2249 9.17878C32.5716 9.86238 33.9213 10.5401 35.2651 11.2301C35.3491 11.2729 35.4211 11.2656 35.4997 11.2763V21.5381C35.4211 21.5488 35.3491 21.5415 35.2651 21.5843C33.6818 22.3943 32.0985 23.2024 30.5018 23.9905C30.236 24.1218 30.1377 24.2633 30.1401 24.5676C30.1544 26.6923 30.1439 28.817 30.1535 30.9413C30.1535 31.1523 30.0926 31.2651 29.9088 31.3502C29.5538 31.5145 29.2074 31.6978 28.8576 31.8733C28.8312 31.8864 28.8058 31.902 28.7803 31.9166C28.8131 31.924 28.8452 31.9342 28.8763 31.9472C29.2544 32.1417 29.6305 32.341 30.012 32.5307C30.0801 32.5647 30.0762 32.5793 30.0287 32.6162C29.9913 32.6409 29.952 32.6626 29.9112 32.6809C29.3321 32.9726 28.7472 33.2556 28.1768 33.5658C27.9167 33.7073 27.6245 33.7938 27.399 34H27.3271C27.2608 33.9465 27.1909 33.8978 27.1179 33.8541C24.5142 32.5329 21.91 31.2129 19.305 29.894C19.281 29.8795 19.2581 29.8632 19.2364 29.8454C19.2571 29.8366 19.2782 29.8293 19.2978 29.8191C20.1159 29.4039 20.9354 28.9926 21.7505 28.5705C21.8184 28.5299 21.8959 28.5084 21.9748 28.5084C22.0537 28.5084 22.1312 28.5299 22.1991 28.5705C22.5709 28.7699 22.95 28.9551 23.3261 29.1462C23.7056 28.9551 24.0856 28.765 24.4642 28.572C24.4949 28.5564 24.5194 28.5015 24.5429 28.5039C24.6566 28.5151 24.6518 28.4456 24.6513 28.3678C24.6513 27.9161 24.6484 27.4644 24.6513 27.0127C24.6513 26.9238 24.6139 26.9155 24.5395 26.8771C23.9158 26.5717 23.3021 26.2489 22.6837 25.9348C20.6887 24.9216 18.6932 23.9099 16.6969 22.8999C16.5957 22.8484 16.5424 22.8051 16.5444 22.6734C16.5535 21.9168 16.5468 21.1598 16.5501 20.4033C16.5501 20.2705 16.5184 20.1986 16.3822 20.1373C16.0463 19.9866 15.7278 19.7941 15.3948 19.6346C15.2509 19.5656 15.1621 19.5072 15.1683 19.3152C15.1856 18.7667 15.1683 18.2168 15.1803 17.6679C15.1837 17.5371 15.1223 17.5167 15.0364 17.4734C14.2687 17.0879 13.4958 16.7023 12.7334 16.3065C12.6509 16.2633 12.5808 16.2715 12.4998 16.2608ZM28.7017 27.7333V25.0246C28.7017 24.941 28.7194 24.905 28.5995 24.9668C27.8548 25.3504 27.0997 25.7141 26.3483 26.0851C26.248 26.1337 26.1046 26.1638 26.0604 26.246C26.0057 26.352 26.0297 26.5012 26.0249 26.632C26.0206 26.7414 26.0249 26.8513 26.0249 26.9612C26.0249 27.6691 26.0249 28.3765 26.0273 29.0845C26.0273 29.1817 25.9957 29.2104 25.9064 29.2527C25.5327 29.4297 25.169 29.629 24.8029 29.8206C24.7791 29.8354 24.7562 29.8516 24.7343 29.8692C24.7549 29.8779 24.776 29.8857 24.7962 29.8954C25.6257 30.3107 26.4563 30.722 27.2825 31.146C27.3515 31.1814 27.3722 31.1853 27.4441 31.146C27.8093 30.9515 28.1811 30.7711 28.5558 30.597C28.6633 30.5484 28.7069 30.4969 28.706 30.3695C28.6978 29.4904 28.7017 28.6119 28.7017 27.7333Z" fill="#4E84C4"/>
</g>
<g filter="url(#filter1_d_18_2842)">
<path d="M47.5544 18H46.2732L49.1521 9.99998H50.5466L53.4255 18H52.1443L49.8826 11.4531H49.8201L47.5544 18ZM47.7693 14.8672H51.9255V15.8828H47.7693V14.8672ZM58.8679 12L56.6921 18H55.4421L53.2624 12H54.5164L56.0359 16.6172H56.0984L57.614 12H58.8679ZM61.5398 18.1328C61.1596 18.1328 60.8158 18.0625 60.5085 17.9218C60.2012 17.7786 59.9578 17.5716 59.7781 17.3008C59.601 17.0299 59.5124 16.6979 59.5124 16.3047C59.5124 15.9661 59.5776 15.6875 59.7078 15.4687C59.838 15.25 60.0137 15.0768 60.2351 14.9492C60.4565 14.8216 60.7039 14.7252 60.9773 14.6601C61.2507 14.595 61.5294 14.5455 61.8132 14.5117C62.1726 14.47 62.4643 14.4362 62.6882 14.4101C62.9122 14.3815 63.0749 14.3359 63.1765 14.2734C63.2781 14.2109 63.3289 14.1093 63.3289 13.9687V13.9414C63.3289 13.6002 63.2325 13.3359 63.0398 13.1484C62.8497 12.9609 62.5658 12.8672 62.1882 12.8672C61.795 12.8672 61.4851 12.9544 61.2585 13.1289C61.0346 13.3008 60.8796 13.4922 60.7937 13.7031L59.696 13.4531C59.8262 13.0885 60.0164 12.7942 60.2664 12.5703C60.519 12.3437 60.8093 12.1797 61.1374 12.0781C61.4656 11.9739 61.8106 11.9219 62.1726 11.9219C62.4122 11.9219 62.6661 11.9505 62.9343 12.0078C63.2052 12.0625 63.4578 12.164 63.6921 12.3125C63.9291 12.4609 64.1231 12.6732 64.2742 12.9492C64.4252 13.2226 64.5007 13.5781 64.5007 14.0156V18H63.3601V17.1797H63.3132C63.2377 17.3307 63.1244 17.4791 62.9734 17.625C62.8223 17.7708 62.6283 17.8919 62.3914 17.9883C62.1544 18.0846 61.8705 18.1328 61.5398 18.1328ZM61.7937 17.1953C62.1166 17.1953 62.3927 17.1315 62.6218 17.0039C62.8536 16.8763 63.0294 16.7096 63.1492 16.5039C63.2716 16.2955 63.3328 16.0729 63.3328 15.8359V15.0625C63.2911 15.1041 63.2104 15.1432 63.0906 15.1797C62.9734 15.2135 62.8393 15.2435 62.6882 15.2695C62.5372 15.2929 62.3901 15.3151 62.2468 15.3359C62.1036 15.3541 61.9838 15.3698 61.8874 15.3828C61.6609 15.4114 61.4539 15.4596 61.2664 15.5273C61.0815 15.595 60.933 15.6927 60.821 15.8203C60.7117 15.9453 60.657 16.112 60.657 16.3203C60.657 16.6093 60.7637 16.8281 60.9773 16.9765C61.1908 17.1224 61.463 17.1953 61.7937 17.1953ZM66.0564 18V12H67.2244V18H66.0564ZM66.6462 11.0742C66.4431 11.0742 66.2686 11.0065 66.1228 10.8711C65.9796 10.733 65.908 10.569 65.908 10.3789C65.908 10.1862 65.9796 10.0221 66.1228 9.88669C66.2686 9.74867 66.4431 9.67966 66.6462 9.67966C66.8494 9.67966 67.0225 9.74867 67.1658 9.88669C67.3116 10.0221 67.3845 10.1862 67.3845 10.3789C67.3845 10.569 67.3116 10.733 67.1658 10.8711C67.0225 11.0065 66.8494 11.0742 66.6462 11.0742ZM69.9636 9.99998V18H68.7956V9.99998H69.9636ZM73.281 18.1328C72.9008 18.1328 72.557 18.0625 72.2497 17.9218C71.9425 17.7786 71.699 17.5716 71.5193 17.3008C71.3422 17.0299 71.2537 16.6979 71.2537 16.3047C71.2537 15.9661 71.3188 15.6875 71.449 15.4687C71.5792 15.25 71.755 15.0768 71.9763 14.9492C72.1977 14.8216 72.4451 14.7252 72.7185 14.6601C72.9919 14.595 73.2706 14.5455 73.5544 14.5117C73.9138 14.47 74.2055 14.4362 74.4294 14.4101C74.6534 14.3815 74.8162 14.3359 74.9177 14.2734C75.0193 14.2109 75.0701 14.1093 75.0701 13.9687V13.9414C75.0701 13.6002 74.9737 13.3359 74.781 13.1484C74.5909 12.9609 74.307 12.8672 73.9294 12.8672C73.5362 12.8672 73.2263 12.9544 72.9997 13.1289C72.7758 13.3008 72.6208 13.4922 72.5349 13.7031L71.4372 13.4531C71.5675 13.0885 71.7576 12.7942 72.0076 12.5703C72.2602 12.3437 72.5505 12.1797 72.8787 12.0781C73.2068 11.9739 73.5518 11.9219 73.9138 11.9219C74.1534 11.9219 74.4073 11.9505 74.6755 12.0078C74.9464 12.0625 75.199 12.164 75.4333 12.3125C75.6703 12.4609 75.8643 12.6732 76.0154 12.9492C76.1664 13.2226 76.2419 13.5781 76.2419 14.0156V18H75.1013V17.1797H75.0544C74.9789 17.3307 74.8656 17.4791 74.7146 17.625C74.5635 17.7708 74.3695 17.8919 74.1326 17.9883C73.8956 18.0846 73.6117 18.1328 73.281 18.1328ZM73.5349 17.1953C73.8578 17.1953 74.1339 17.1315 74.363 17.0039C74.5948 16.8763 74.7706 16.7096 74.8904 16.5039C75.0128 16.2955 75.074 16.0729 75.074 15.8359V15.0625C75.0323 15.1041 74.9516 15.1432 74.8318 15.1797C74.7146 15.2135 74.5805 15.2435 74.4294 15.2695C74.2784 15.2929 74.1313 15.3151 73.988 15.3359C73.8448 15.3541 73.725 15.3698 73.6287 15.3828C73.4021 15.4114 73.1951 15.4596 73.0076 15.5273C72.8227 15.595 72.6742 15.6927 72.5622 15.8203C72.4529 15.9453 72.3982 16.112 72.3982 16.3203C72.3982 16.6093 72.505 16.8281 72.7185 16.9765C72.932 17.1224 73.2042 17.1953 73.5349 17.1953ZM77.8913 18V9.99998H79.0593V12.9726H79.1296C79.1973 12.8476 79.295 12.7031 79.4226 12.539C79.5502 12.375 79.7273 12.2317 79.9538 12.1094C80.1804 11.9844 80.4799 11.9219 80.8523 11.9219C81.3367 11.9219 81.769 12.0442 82.1492 12.289C82.5294 12.5338 82.8275 12.8867 83.0437 13.3476C83.2624 13.8086 83.3718 14.3633 83.3718 15.0117C83.3718 15.6601 83.2637 16.2161 83.0476 16.6797C82.8315 17.1406 82.5346 17.4961 82.157 17.7461C81.7794 17.9935 81.3484 18.1172 80.864 18.1172C80.4994 18.1172 80.2012 18.056 79.9695 17.9336C79.7403 17.8112 79.5606 17.6679 79.4304 17.5039C79.3002 17.3398 79.1999 17.194 79.1296 17.0664H79.032V18H77.8913ZM79.0359 15C79.0359 15.4218 79.0971 15.7916 79.2195 16.1093C79.3419 16.4271 79.519 16.6758 79.7507 16.8554C79.9825 17.0325 80.2663 17.1211 80.6023 17.1211C80.9512 17.1211 81.2429 17.0286 81.4773 16.8437C81.7117 16.6562 81.8887 16.4023 82.0085 16.082C82.1309 15.7617 82.1921 15.401 82.1921 15C82.1921 14.6041 82.1322 14.2487 82.0124 13.9336C81.8953 13.6185 81.7182 13.3698 81.4812 13.1875C81.2468 13.0052 80.9538 12.914 80.6023 12.914C80.2637 12.914 79.9773 13.0013 79.7429 13.1758C79.5111 13.3502 79.3354 13.5937 79.2156 13.9062C79.0958 14.2187 79.0359 14.5833 79.0359 15ZM85.8513 9.99998V18H84.6833V9.99998H85.8513ZM90.0085 18.1211C89.4174 18.1211 88.9083 17.9948 88.4812 17.7422C88.0567 17.487 87.7286 17.1289 87.4968 16.6679C87.2676 16.2044 87.1531 15.6614 87.1531 15.039C87.1531 14.4245 87.2676 13.8828 87.4968 13.414C87.7286 12.9453 88.0515 12.5794 88.4656 12.3164C88.8822 12.0534 89.3692 11.9219 89.9265 11.9219C90.265 11.9219 90.5932 11.9778 90.9109 12.0898C91.2286 12.2018 91.5137 12.3776 91.7663 12.6172C92.0189 12.8567 92.2182 13.1679 92.364 13.5508C92.5098 13.931 92.5828 14.3932 92.5828 14.9375V15.3515H87.8132V14.4765H91.4382C91.4382 14.1692 91.3757 13.8971 91.2507 13.6601C91.1257 13.4205 90.9499 13.2317 90.7234 13.0937C90.4994 12.9557 90.2364 12.8867 89.9343 12.8867C89.6062 12.8867 89.3197 12.9674 89.0749 13.1289C88.8328 13.2877 88.6453 13.4961 88.5124 13.7539C88.3822 14.0091 88.3171 14.2864 88.3171 14.5859V15.2695C88.3171 15.6705 88.3874 16.0117 88.5281 16.2929C88.6713 16.5742 88.8705 16.789 89.1257 16.9375C89.3809 17.0833 89.6791 17.1562 90.0203 17.1562C90.2416 17.1562 90.4434 17.125 90.6257 17.0625C90.808 16.9974 90.9656 16.901 91.0984 16.7734C91.2312 16.6458 91.3328 16.4883 91.4031 16.3008L92.5085 16.5C92.42 16.8255 92.2611 17.1107 92.032 17.3554C91.8054 17.5976 91.5203 17.7864 91.1765 17.9218C90.8354 18.0547 90.446 18.1211 90.0085 18.1211ZM99.6452 12V12.9375H96.2546V12H99.6452ZM97.1843 18V11.3047C97.1843 10.9297 97.2663 10.6185 97.4304 10.3711C97.5945 10.1211 97.8119 9.93487 98.0827 9.81248C98.3536 9.68748 98.6479 9.62498 98.9656 9.62498C99.1999 9.62498 99.4005 9.64451 99.5671 9.68357C99.7338 9.72003 99.8575 9.75388 99.9382 9.78513L99.6648 10.7304C99.6101 10.7148 99.5398 10.6966 99.4538 10.6758C99.3679 10.6523 99.2637 10.6406 99.1413 10.6406C98.8575 10.6406 98.6544 10.7109 98.532 10.8515C98.4122 10.9922 98.3523 11.1953 98.3523 11.4609V18H97.1843ZM103.141 18.1211C102.579 18.1211 102.088 17.9922 101.669 17.7343C101.249 17.4765 100.924 17.1159 100.692 16.6523C100.46 16.1888 100.344 15.6471 100.344 15.0273C100.344 14.4049 100.46 13.8607 100.692 13.3945C100.924 12.9284 101.249 12.5664 101.669 12.3086C102.088 12.0508 102.579 11.9219 103.141 11.9219C103.704 11.9219 104.195 12.0508 104.614 12.3086C105.033 12.5664 105.359 12.9284 105.591 13.3945C105.822 13.8607 105.938 14.4049 105.938 15.0273C105.938 15.6471 105.822 16.1888 105.591 16.6523C105.359 17.1159 105.033 17.4765 104.614 17.7343C104.195 17.9922 103.704 18.1211 103.141 18.1211ZM103.145 17.1406C103.51 17.1406 103.812 17.0442 104.051 16.8515C104.291 16.6588 104.468 16.4023 104.583 16.082C104.7 15.7617 104.759 15.4088 104.759 15.0234C104.759 14.6406 104.7 14.289 104.583 13.9687C104.468 13.6458 104.291 13.3867 104.051 13.1914C103.812 12.9961 103.51 12.8984 103.145 12.8984C102.778 12.8984 102.473 12.9961 102.231 13.1914C101.992 13.3867 101.813 13.6458 101.696 13.9687C101.581 14.289 101.524 14.6406 101.524 15.0234C101.524 15.4088 101.581 15.7617 101.696 16.082C101.813 16.4023 101.992 16.6588 102.231 16.8515C102.473 17.0442 102.778 17.1406 103.145 17.1406ZM107.242 18V12H108.371V12.9531H108.433C108.543 12.6302 108.735 12.3763 109.011 12.1914C109.29 12.0039 109.605 11.9101 109.957 11.9101C110.03 11.9101 110.116 11.9127 110.215 11.9179C110.316 11.9232 110.396 11.9297 110.453 11.9375V13.0547C110.406 13.0416 110.323 13.0273 110.203 13.0117C110.083 12.9935 109.963 12.9844 109.843 12.9844C109.567 12.9844 109.321 13.0429 109.105 13.1601C108.892 13.2747 108.722 13.4349 108.597 13.6406C108.472 13.8437 108.41 14.0755 108.41 14.3359V18H107.242Z" fill="#E8E8E8"/>
<path d="M46.6603 31V22.2727H48.7696V29.2869H52.4003V31H46.6603ZM53.4923 31V24.4545H55.5761V31H53.4923ZM54.5363 23.6917C54.2437 23.6917 53.9923 23.5951 53.7821 23.402C53.5718 23.2059 53.4667 22.9701 53.4667 22.6946C53.4667 22.4218 53.5718 22.1889 53.7821 21.9957C53.9923 21.7997 54.2437 21.7017 54.5363 21.7017C54.8318 21.7017 55.0832 21.7997 55.2906 21.9957C55.5008 22.1889 55.6059 22.4218 55.6059 22.6946C55.6059 22.9701 55.5008 23.2059 55.2906 23.402C55.0832 23.5951 54.8318 23.6917 54.5363 23.6917ZM60.5971 24.4545V25.9886H56.4678V24.4545H60.5971ZM57.3328 22.8863H59.4167V28.9417C59.4167 29.0696 59.4365 29.1733 59.4763 29.2528C59.5189 29.3295 59.58 29.3849 59.6596 29.419C59.7391 29.4503 59.8343 29.4659 59.9451 29.4659C60.0246 29.4659 60.1084 29.4588 60.1965 29.4446C60.2874 29.4275 60.3556 29.4133 60.401 29.402L60.7164 30.9062C60.6169 30.9346 60.4763 30.9701 60.2945 31.0128C60.1155 31.0554 59.901 31.0824 59.651 31.0937C59.1624 31.1164 58.7434 31.0596 58.3939 30.9233C58.0473 30.7841 57.7817 30.5681 57.5971 30.2755C57.4152 29.9829 57.3272 29.615 57.3328 29.1718V22.8863ZM64.6496 31.1235C63.9649 31.1235 63.374 30.9886 62.8769 30.7187C62.3826 30.446 62.0019 30.0582 61.7348 29.5554C61.4706 29.0497 61.3385 28.4488 61.3385 27.7528C61.3385 27.0767 61.4721 26.4858 61.7391 25.9801C62.0061 25.4716 62.3826 25.0767 62.8684 24.7954C63.3542 24.5113 63.9266 24.3693 64.5857 24.3693C65.0516 24.3693 65.4777 24.4417 65.8641 24.5866C66.2505 24.7315 66.5843 24.946 66.8655 25.2301C67.1468 25.5142 67.3655 25.865 67.5218 26.2826C67.678 26.6974 67.7561 27.1733 67.7561 27.7102V28.2301H62.0672V27.0199H65.8172C65.8144 26.7983 65.7618 26.6008 65.6596 26.4275C65.5573 26.2542 65.4167 26.1193 65.2377 26.0227C65.0615 25.9233 64.8584 25.8735 64.6283 25.8735C64.3953 25.8735 64.1865 25.9261 64.0019 26.0312C63.8172 26.1335 63.6709 26.2741 63.563 26.4531C63.455 26.6292 63.3982 26.8295 63.3925 27.0539V28.2855C63.3925 28.5525 63.4451 28.7869 63.5502 28.9886C63.6553 29.1875 63.8044 29.3423 63.9976 29.4531C64.1908 29.5639 64.4209 29.6193 64.688 29.6193C64.8726 29.6193 65.0402 29.5937 65.1908 29.5426C65.3414 29.4914 65.4706 29.4162 65.5786 29.3167C65.6865 29.2173 65.7675 29.0951 65.8215 28.9503L67.7348 29.0056C67.6553 29.4346 67.4806 29.8082 67.2107 30.1264C66.9436 30.4417 66.5928 30.6875 66.1581 30.8636C65.7235 31.0369 65.2206 31.1235 64.6496 31.1235ZM68.8204 31V22.2727H70.9298V29.2869H74.5605V31H68.8204ZM78.7078 31.1235C78.0203 31.1235 77.4294 30.9829 76.9351 30.7017C76.4436 30.4176 76.0644 30.0227 75.7973 29.517C75.5331 29.0085 75.401 28.419 75.401 27.7485C75.401 27.0753 75.5331 26.4858 75.7973 25.9801C76.0644 25.4716 76.4436 25.0767 76.9351 24.7954C77.4294 24.5113 78.0203 24.3693 78.7078 24.3693C79.3953 24.3693 79.9848 24.5113 80.4763 24.7954C80.9706 25.0767 81.3499 25.4716 81.6141 25.9801C81.8811 26.4858 82.0147 27.0753 82.0147 27.7485C82.0147 28.419 81.8811 29.0085 81.6141 29.517C81.3499 30.0227 80.9706 30.4176 80.4763 30.7017C79.9848 30.9829 79.3953 31.1235 78.7078 31.1235ZM78.7206 29.5511C78.9706 29.5511 79.1823 29.4744 79.3556 29.321C79.5289 29.1676 79.661 28.9545 79.7519 28.6818C79.8456 28.4091 79.8925 28.0937 79.8925 27.7358C79.8925 27.3721 79.8456 27.0539 79.7519 26.7812C79.661 26.5085 79.5289 26.2954 79.3556 26.142C79.1823 25.9886 78.9706 25.9119 78.7206 25.9119C78.4621 25.9119 78.2434 25.9886 78.0644 26.142C77.8882 26.2954 77.7533 26.5085 77.6595 26.7812C77.5686 27.0539 77.5232 27.3721 77.5232 27.7358C77.5232 28.0937 77.5686 28.4091 77.6595 28.6818C77.7533 28.9545 77.8882 29.1676 78.0644 29.321C78.2434 29.4744 78.4621 29.5511 78.7206 29.5511ZM84.9273 31.1108C84.5097 31.1108 84.1389 31.0412 83.8151 30.902C83.4941 30.7599 83.2398 30.5468 83.0523 30.2628C82.8676 29.9758 82.7753 29.6164 82.7753 29.1846C82.7753 28.821 82.8392 28.5142 82.9671 28.2642C83.0949 28.0142 83.2711 27.811 83.4955 27.6548C83.7199 27.4985 83.9784 27.3806 84.2711 27.3011C84.5637 27.2187 84.8762 27.1633 85.2086 27.1349C85.5807 27.1008 85.8804 27.0653 86.1077 27.0284C86.335 26.9886 86.4997 26.9332 86.602 26.8622C86.7071 26.7883 86.7597 26.6846 86.7597 26.5511V26.5298C86.7597 26.311 86.6844 26.142 86.5338 26.0227C86.3833 25.9034 86.1801 25.8437 85.9245 25.8437C85.6489 25.8437 85.4273 25.9034 85.2597 26.0227C85.0921 26.142 84.9855 26.3068 84.9401 26.517L83.0182 26.4488C83.075 26.0511 83.2213 25.696 83.4571 25.3835C83.6958 25.0681 84.0225 24.821 84.4372 24.642C84.8549 24.4602 85.3563 24.3693 85.9415 24.3693C86.3591 24.3693 86.7441 24.419 87.0963 24.5184C87.4486 24.615 87.7554 24.7571 88.0168 24.9446C88.2782 25.1292 88.4799 25.3565 88.6219 25.6264C88.7668 25.8963 88.8392 26.2045 88.8392 26.5511V31H86.879V30.088H86.8279C86.7114 30.3096 86.5622 30.4971 86.3804 30.6505C86.2014 30.8039 85.9898 30.919 85.7455 30.9957C85.504 31.0724 85.2313 31.1108 84.9273 31.1108ZM85.5708 29.7471C85.7952 29.7471 85.9969 29.7017 86.1759 29.6108C86.3577 29.5199 86.5026 29.3949 86.6105 29.2358C86.7185 29.0738 86.7725 28.8863 86.7725 28.6733V28.0511C86.7128 28.0824 86.6404 28.1108 86.5551 28.1363C86.4728 28.1619 86.3818 28.186 86.2824 28.2088C86.183 28.2315 86.0807 28.2514 85.9756 28.2684C85.8705 28.2855 85.7696 28.3011 85.673 28.3153C85.477 28.3466 85.3094 28.3949 85.1702 28.4602C85.0338 28.5255 84.9287 28.6108 84.8549 28.7159C84.7838 28.8181 84.7483 28.9403 84.7483 29.0824C84.7483 29.2983 84.825 29.463 84.9784 29.5767C85.1347 29.6903 85.3321 29.7471 85.5708 29.7471ZM92.504 31.0937C92.021 31.0937 91.5821 30.9687 91.1872 30.7187C90.7924 30.4687 90.477 30.0937 90.2412 29.5937C90.0054 29.0937 89.8875 28.473 89.8875 27.7315C89.8875 26.9616 90.0097 26.3281 90.254 25.8309C90.4983 25.3338 90.8179 24.9659 91.2128 24.7272C91.6105 24.4886 92.0381 24.3693 92.4955 24.3693C92.8392 24.3693 93.1333 24.4289 93.3776 24.5483C93.6219 24.6647 93.8236 24.8153 93.9827 25C94.1418 25.1846 94.2625 25.3764 94.3449 25.5753H94.3875V22.2727H96.4713V31H94.4088V29.9389H94.3449C94.2568 30.1406 94.1318 30.3295 93.9699 30.5056C93.808 30.6818 93.6049 30.8238 93.3605 30.9318C93.1191 31.0397 92.8335 31.0937 92.504 31.0937ZM93.2284 29.4701C93.4813 29.4701 93.6972 29.3991 93.8762 29.2571C94.0551 29.1122 94.1929 28.9091 94.2895 28.6477C94.3861 28.3863 94.4344 28.0795 94.4344 27.7272C94.4344 27.3693 94.3861 27.061 94.2895 26.8025C94.1958 26.544 94.058 26.3451 93.8762 26.2059C93.6972 26.0667 93.4813 25.9971 93.2284 25.9971C92.9699 25.9971 92.7512 26.0681 92.5722 26.2102C92.3932 26.3522 92.2568 26.5525 92.1631 26.811C92.0722 27.0696 92.0267 27.375 92.0267 27.7272C92.0267 28.0795 92.0736 28.3863 92.1674 28.6477C92.2611 28.9091 92.396 29.1122 92.5722 29.2571C92.7512 29.3991 92.9699 29.4701 93.2284 29.4701ZM100.849 31.1235C100.164 31.1235 99.5732 30.9886 99.0761 30.7187C98.5818 30.446 98.2011 30.0582 97.934 29.5554C97.6698 29.0497 97.5377 28.4488 97.5377 27.7528C97.5377 27.0767 97.6713 26.4858 97.9383 25.9801C98.2054 25.4716 98.5818 25.0767 99.0676 24.7954C99.5534 24.5113 100.126 24.3693 100.785 24.3693C101.251 24.3693 101.677 24.4417 102.063 24.5866C102.45 24.7315 102.783 24.946 103.065 25.2301C103.346 25.5142 103.565 25.865 103.721 26.2826C103.877 26.6974 103.955 27.1733 103.955 27.7102V28.2301H98.2664V27.0199H102.016C102.014 26.7983 101.961 26.6008 101.859 26.4275C101.756 26.2542 101.616 26.1193 101.437 26.0227C101.261 25.9233 101.058 25.8735 100.828 25.8735C100.595 25.8735 100.386 25.9261 100.201 26.0312C100.016 26.1335 99.8701 26.2741 99.7622 26.4531C99.6542 26.6292 99.5974 26.8295 99.5917 27.0539V28.2855C99.5917 28.5525 99.6443 28.7869 99.7494 28.9886C99.8545 29.1875 100.004 29.3423 100.197 29.4531C100.39 29.5639 100.62 29.6193 100.887 29.6193C101.072 29.6193 101.239 29.5937 101.39 29.5426C101.541 29.4914 101.67 29.4162 101.778 29.3167C101.886 29.2173 101.967 29.0951 102.021 28.9503L103.934 29.0056C103.854 29.4346 103.68 29.8082 103.41 30.1264C103.143 30.4417 102.792 30.6875 102.357 30.8636C101.923 31.0369 101.42 31.1235 100.849 31.1235ZM105.02 31V24.4545H107.044V25.6477H107.112C107.231 25.2159 107.426 24.8949 107.696 24.6846C107.966 24.4716 108.28 24.365 108.638 24.365C108.734 24.365 108.834 24.3721 108.936 24.3863C109.038 24.3977 109.133 24.4162 109.221 24.4417V26.2528C109.122 26.2187 108.991 26.1917 108.829 26.1718C108.67 26.152 108.528 26.142 108.403 26.142C108.156 26.142 107.933 26.1974 107.734 26.3082C107.538 26.4162 107.383 26.5681 107.27 26.7642C107.159 26.9574 107.103 27.1846 107.103 27.446V31H105.02Z" fill="#4E84C4"/>
</g>
<rect x="0.749756" y="0.749977" width="119.5" height="38.5" rx="5.25" stroke="white" stroke-opacity="0.15" stroke-width="1.5"/>
<defs>
<filter id="filter0_d_18_2842" x="5.99976" y="1.99998" width="36" height="36" filterUnits="userSpaceOnUse" color-interpolation-filters="sRGB">
<feFlood flood-opacity="0" result="BackgroundImageFix"/>
<feColorMatrix in="SourceAlpha" type="matrix" values="0 0 0 0 0 0 0 0 0 0 0 0 0 0 0 0 0 0 127 0" result="hardAlpha"/>
<feOffset/>
<feGaussianBlur stdDeviation="2"/>
<feComposite in2="hardAlpha" operator="out"/>
<feColorMatrix type="matrix" values="0 0 0 0 0 0 0 0 0 0 0 0 0 0 0 0 0 0 0.25 0"/>
<feBlend mode="normal" in2="BackgroundImageFix" result="effect1_dropShadow_18_2842"/>
<feBlend mode="normal" in="SourceGraphic" in2="effect1_dropShadow_18_2842" result="shape"/>
</filter>
<filter id="filter1_d_18_2842" x="41.9998" y="2.99998" width="73" height="34" filterUnits="userSpaceOnUse" color-interpolation-filters="sRGB">
<feFlood flood-opacity="0" result="BackgroundImageFix"/>
<feColorMatrix in="SourceAlpha" type="matrix" values="0 0 0 0 0 0 0 0 0 0 0 0 0 0 0 0 0 0 127 0" result="hardAlpha"/>
<feOffset/>
<feGaussianBlur stdDeviation="2"/>
<feComposite in2="hardAlpha" operator="out"/>
<feColorMatrix type="matrix" values="0 0 0 0 0 0 0 0 0 0 0 0 0 0 0 0 0 0 0.25 0"/>
<feBlend mode="normal" in2="BackgroundImageFix" result="effect1_dropShadow_18_2842"/>
<feBlend mode="normal" in="SourceGraphic" in2="effect1_dropShadow_18_2842" result="shape"/>
</filter>
<linearGradient id="paint0_linear_18_2842" x1="60.4997" y1="-2.28882e-05" x2="60.4997" y2="40" gradientUnits="userSpaceOnUse">
<stop stop-color="#131F2E"/>
<stop offset="1" stop-color="#0E1621"/>
</linearGradient>
</defs>
</svg>
