<svg width="120" height="40" viewBox="0 0 120 40" fill="none" xmlns="http://www.w3.org/2000/svg">
<rect x="-0.000244141" y="-6.10352e-05" width="120" height="40" rx="6" fill="url(#paint0_linear_22_13)"/>
<g filter="url(#filter0_d_22_13)">
<path d="M22.9607 25.0365L19.2705 25.7021L26.651 29.6958L27.8811 27.6989L22.9607 25.0365Z" fill="#9C9C9C"/>
<path d="M22.9608 25.0365L27.8811 27.6989V25.0365L22.9608 22.3741V25.0365Z" fill="#7E7E7E"/>
<path d="M35.2615 17.0492V30.3616L15.5801 19.7121V6.39966L35.2615 17.0492Z" fill="#6A6A6A"/>
<path d="M16.3185 5.99994L15.5804 6.3993L35.2619 17.0488L35.9999 16.6494L16.3185 5.99994Z" fill="#9C9C9C"/>
<path d="M35.2616 30.3616L35.9996 29.9622V16.6498L35.2616 17.0491V30.3616Z" fill="#7E7E7E"/>
<path d="M16.8108 8.39612L34.0318 17.7149V28.3644L16.8108 19.0456V8.39612Z" fill="white"/>
<path d="M15.69 25.0808L11.9998 27.3439L24.3006 33.9999L27.9908 31.7369L15.69 25.0808Z" fill="#7E7E7E"/>
<path d="M24.3005 33.9999L27.9908 32.0031V31.7368L24.3005 33.9999Z" fill="#2D2D2D"/>
</g>
<g filter="url(#filter1_d_22_13)">
<path d="M47.5544 17.9999H46.2732L49.1521 9.99994H50.5466L53.4255 17.9999H52.1443L49.8826 11.4531H49.8201L47.5544 17.9999ZM47.7693 14.8671H51.9255V15.8827H47.7693V14.8671ZM58.8679 11.9999L56.6921 17.9999H55.4421L53.2624 11.9999H54.5164L56.0359 16.6171H56.0984L57.614 11.9999H58.8679ZM61.5398 18.1327C61.1596 18.1327 60.8158 18.0624 60.5085 17.9218C60.2012 17.7786 59.9578 17.5716 59.7781 17.3007C59.601 17.0299 59.5124 16.6979 59.5124 16.3046C59.5124 15.9661 59.5776 15.6874 59.7078 15.4687C59.838 15.2499 60.0137 15.0768 60.2351 14.9492C60.4565 14.8216 60.7039 14.7252 60.9773 14.6601C61.2507 14.595 61.5294 14.5455 61.8132 14.5117C62.1726 14.47 62.4643 14.4361 62.6882 14.4101C62.9122 14.3814 63.0749 14.3359 63.1765 14.2734C63.2781 14.2109 63.3289 14.1093 63.3289 13.9687V13.9413C63.3289 13.6002 63.2325 13.3359 63.0398 13.1484C62.8497 12.9609 62.5658 12.8671 62.1882 12.8671C61.795 12.8671 61.4851 12.9544 61.2585 13.1288C61.0346 13.3007 60.8796 13.4921 60.7937 13.7031L59.696 13.4531C59.8262 13.0885 60.0164 12.7942 60.2664 12.5702C60.519 12.3437 60.8093 12.1796 61.1374 12.0781C61.4656 11.9739 61.8106 11.9218 62.1726 11.9218C62.4122 11.9218 62.6661 11.9505 62.9343 12.0078C63.2052 12.0624 63.4578 12.164 63.6921 12.3124C63.9291 12.4609 64.1231 12.6731 64.2742 12.9492C64.4252 13.2226 64.5007 13.5781 64.5007 14.0156V17.9999H63.3601V17.1796H63.3132C63.2377 17.3307 63.1244 17.4791 62.9734 17.6249C62.8223 17.7708 62.6283 17.8919 62.3914 17.9882C62.1544 18.0846 61.8705 18.1327 61.5398 18.1327ZM61.7937 17.1952C62.1166 17.1952 62.3927 17.1314 62.6218 17.0038C62.8536 16.8762 63.0294 16.7096 63.1492 16.5038C63.2716 16.2955 63.3328 16.0729 63.3328 15.8359V15.0624C63.2911 15.1041 63.2104 15.1432 63.0906 15.1796C62.9734 15.2135 62.8393 15.2434 62.6882 15.2695C62.5372 15.2929 62.3901 15.315 62.2468 15.3359C62.1036 15.3541 61.9838 15.3697 61.8874 15.3827C61.6609 15.4114 61.4539 15.4596 61.2664 15.5273C61.0815 15.595 60.933 15.6926 60.821 15.8202C60.7117 15.9452 60.657 16.1119 60.657 16.3202C60.657 16.6093 60.7637 16.8281 60.9773 16.9765C61.1908 17.1223 61.463 17.1952 61.7937 17.1952ZM66.0564 17.9999V11.9999H67.2244V17.9999H66.0564ZM66.6462 11.0742C66.4431 11.0742 66.2686 11.0064 66.1228 10.871C65.9796 10.733 65.908 10.5689 65.908 10.3788C65.908 10.1861 65.9796 10.0221 66.1228 9.88666C66.2686 9.74864 66.4431 9.67963 66.6462 9.67963C66.8494 9.67963 67.0225 9.74864 67.1658 9.88666C67.3116 10.0221 67.3845 10.1861 67.3845 10.3788C67.3845 10.5689 67.3116 10.733 67.1658 10.871C67.0225 11.0064 66.8494 11.0742 66.6462 11.0742ZM69.9636 9.99994V17.9999H68.7956V9.99994H69.9636ZM73.281 18.1327C72.9008 18.1327 72.557 18.0624 72.2497 17.9218C71.9425 17.7786 71.699 17.5716 71.5193 17.3007C71.3422 17.0299 71.2537 16.6979 71.2537 16.3046C71.2537 15.9661 71.3188 15.6874 71.449 15.4687C71.5792 15.2499 71.755 15.0768 71.9763 14.9492C72.1977 14.8216 72.4451 14.7252 72.7185 14.6601C72.9919 14.595 73.2706 14.5455 73.5544 14.5117C73.9138 14.47 74.2055 14.4361 74.4294 14.4101C74.6534 14.3814 74.8162 14.3359 74.9177 14.2734C75.0193 14.2109 75.0701 14.1093 75.0701 13.9687V13.9413C75.0701 13.6002 74.9737 13.3359 74.781 13.1484C74.5909 12.9609 74.307 12.8671 73.9294 12.8671C73.5362 12.8671 73.2263 12.9544 72.9997 13.1288C72.7758 13.3007 72.6208 13.4921 72.5349 13.7031L71.4372 13.4531C71.5675 13.0885 71.7576 12.7942 72.0076 12.5702C72.2602 12.3437 72.5505 12.1796 72.8787 12.0781C73.2068 11.9739 73.5518 11.9218 73.9138 11.9218C74.1534 11.9218 74.4073 11.9505 74.6755 12.0078C74.9464 12.0624 75.199 12.164 75.4333 12.3124C75.6703 12.4609 75.8643 12.6731 76.0154 12.9492C76.1664 13.2226 76.2419 13.5781 76.2419 14.0156V17.9999H75.1013V17.1796H75.0544C74.9789 17.3307 74.8656 17.4791 74.7146 17.6249C74.5635 17.7708 74.3695 17.8919 74.1326 17.9882C73.8956 18.0846 73.6117 18.1327 73.281 18.1327ZM73.5349 17.1952C73.8578 17.1952 74.1339 17.1314 74.363 17.0038C74.5948 16.8762 74.7706 16.7096 74.8904 16.5038C75.0128 16.2955 75.074 16.0729 75.074 15.8359V15.0624C75.0323 15.1041 74.9516 15.1432 74.8318 15.1796C74.7146 15.2135 74.5805 15.2434 74.4294 15.2695C74.2784 15.2929 74.1313 15.315 73.988 15.3359C73.8448 15.3541 73.725 15.3697 73.6287 15.3827C73.4021 15.4114 73.1951 15.4596 73.0076 15.5273C72.8227 15.595 72.6742 15.6926 72.5622 15.8202C72.4529 15.9452 72.3982 16.1119 72.3982 16.3202C72.3982 16.6093 72.505 16.8281 72.7185 16.9765C72.932 17.1223 73.2042 17.1952 73.5349 17.1952ZM77.8913 17.9999V9.99994H79.0593V12.9726H79.1296C79.1973 12.8476 79.295 12.7031 79.4226 12.539C79.5502 12.3749 79.7273 12.2317 79.9538 12.1093C80.1804 11.9843 80.4799 11.9218 80.8523 11.9218C81.3367 11.9218 81.769 12.0442 82.1492 12.289C82.5294 12.5338 82.8275 12.8867 83.0437 13.3476C83.2624 13.8085 83.3718 14.3632 83.3718 15.0117C83.3718 15.6601 83.2637 16.2161 83.0476 16.6796C82.8315 17.1406 82.5346 17.496 82.157 17.746C81.7794 17.9934 81.3484 18.1171 80.864 18.1171C80.4994 18.1171 80.2012 18.0559 79.9695 17.9335C79.7403 17.8111 79.5606 17.6679 79.4304 17.5038C79.3002 17.3398 79.1999 17.1939 79.1296 17.0663H79.032V17.9999H77.8913ZM79.0359 14.9999C79.0359 15.4218 79.0971 15.7916 79.2195 16.1093C79.3419 16.427 79.519 16.6757 79.7507 16.8554C79.9825 17.0325 80.2663 17.121 80.6023 17.121C80.9512 17.121 81.2429 17.0286 81.4773 16.8437C81.7117 16.6562 81.8887 16.4023 82.0085 16.082C82.1309 15.7617 82.1921 15.401 82.1921 14.9999C82.1921 14.6041 82.1322 14.2486 82.0124 13.9335C81.8953 13.6184 81.7182 13.3697 81.4812 13.1874C81.2468 13.0051 80.9538 12.914 80.6023 12.914C80.2637 12.914 79.9773 13.0012 79.7429 13.1757C79.5111 13.3502 79.3354 13.5937 79.2156 13.9062C79.0958 14.2187 79.0359 14.5833 79.0359 14.9999ZM85.8513 9.99994V17.9999H84.6833V9.99994H85.8513ZM90.0085 18.121C89.4174 18.121 88.9083 17.9947 88.4812 17.7421C88.0567 17.4869 87.7286 17.1288 87.4968 16.6679C87.2676 16.2044 87.1531 15.6614 87.1531 15.039C87.1531 14.4244 87.2676 13.8827 87.4968 13.414C87.7286 12.9452 88.0515 12.5794 88.4656 12.3163C88.8822 12.0533 89.3692 11.9218 89.9265 11.9218C90.265 11.9218 90.5932 11.9778 90.9109 12.0898C91.2286 12.2018 91.5137 12.3775 91.7663 12.6171C92.0189 12.8567 92.2182 13.1679 92.364 13.5507C92.5098 13.9309 92.5828 14.3932 92.5828 14.9374V15.3515H87.8132V14.4765H91.4382C91.4382 14.1692 91.3757 13.8971 91.2507 13.6601C91.1257 13.4205 90.9499 13.2317 90.7234 13.0937C90.4994 12.9557 90.2364 12.8867 89.9343 12.8867C89.6062 12.8867 89.3197 12.9674 89.0749 13.1288C88.8328 13.2877 88.6453 13.496 88.5124 13.7538C88.3822 14.0091 88.3171 14.2864 88.3171 14.5859V15.2695C88.3171 15.6705 88.3874 16.0117 88.5281 16.2929C88.6713 16.5742 88.8705 16.789 89.1257 16.9374C89.3809 17.0833 89.6791 17.1562 90.0203 17.1562C90.2416 17.1562 90.4434 17.1249 90.6257 17.0624C90.808 16.9973 90.9656 16.901 91.0984 16.7734C91.2312 16.6458 91.3328 16.4882 91.4031 16.3007L92.5085 16.4999C92.42 16.8255 92.2611 17.1106 92.032 17.3554C91.8054 17.5976 91.5203 17.7864 91.1765 17.9218C90.8354 18.0546 90.446 18.121 90.0085 18.121ZM99.3171 18.121C98.7546 18.121 98.2637 17.9921 97.8445 17.7343C97.4252 17.4765 97.0997 17.1158 96.8679 16.6523C96.6361 16.1887 96.5202 15.6471 96.5202 15.0273C96.5202 14.4049 96.6361 13.8606 96.8679 13.3945C97.0997 12.9283 97.4252 12.5663 97.8445 12.3085C98.2637 12.0507 98.7546 11.9218 99.3171 11.9218C99.8796 11.9218 100.371 12.0507 100.79 12.3085C101.209 12.5663 101.535 12.9283 101.766 13.3945C101.998 13.8606 102.114 14.4049 102.114 15.0273C102.114 15.6471 101.998 16.1887 101.766 16.6523C101.535 17.1158 101.209 17.4765 100.79 17.7343C100.371 17.9921 99.8796 18.121 99.3171 18.121ZM99.321 17.1406C99.6856 17.1406 99.9877 17.0442 100.227 16.8515C100.467 16.6588 100.644 16.4023 100.759 16.082C100.876 15.7617 100.934 15.4088 100.934 15.0234C100.934 14.6406 100.876 14.289 100.759 13.9687C100.644 13.6458 100.467 13.3867 100.227 13.1913C99.9877 12.996 99.6856 12.8984 99.321 12.8984C98.9538 12.8984 98.6492 12.996 98.407 13.1913C98.1674 13.3867 97.989 13.6458 97.8718 13.9687C97.7572 14.289 97.6999 14.6406 97.6999 15.0234C97.6999 15.4088 97.7572 15.7617 97.8718 16.082C97.989 16.4023 98.1674 16.6588 98.407 16.8515C98.6492 17.0442 98.9538 17.1406 99.321 17.1406ZM104.586 14.4374V17.9999H103.418V11.9999H104.539V12.9765H104.613C104.751 12.6588 104.967 12.4036 105.261 12.2109C105.558 12.0182 105.932 11.9218 106.383 11.9218C106.791 11.9218 107.149 12.0078 107.457 12.1796C107.764 12.3489 108.002 12.6015 108.172 12.9374C108.341 13.2734 108.426 13.6887 108.426 14.1835V17.9999H107.258V14.3242C107.258 13.8893 107.144 13.5494 106.918 13.3046C106.691 13.0572 106.38 12.9335 105.984 12.9335C105.713 12.9335 105.472 12.9921 105.261 13.1093C105.053 13.2265 104.888 13.3984 104.765 13.6249C104.646 13.8489 104.586 14.1197 104.586 14.4374Z" fill="#E8E8E8"/>
<path d="M46.6603 30.9999V22.2727H50.2654C50.9188 22.2727 51.4827 22.4005 51.9571 22.6562C52.4344 22.909 52.8023 23.2627 53.0608 23.7173C53.3194 24.169 53.4486 24.6945 53.4486 25.294C53.4486 25.8962 53.3165 26.4232 53.0523 26.8749C52.7909 27.3238 52.4174 27.6718 51.9316 27.919C51.4458 28.1661 50.8691 28.2897 50.2015 28.2897H47.977V26.6278H49.8094C50.1276 26.6278 50.3932 26.5724 50.6063 26.4616C50.8222 26.3508 50.9856 26.196 51.0963 25.9971C51.2071 25.7954 51.2625 25.561 51.2625 25.294C51.2625 25.0241 51.2071 24.7911 51.0963 24.5951C50.9856 24.3962 50.8222 24.2428 50.6063 24.1349C50.3904 24.0269 50.1248 23.9729 49.8094 23.9729H48.7696V30.9999H46.6603ZM62.4103 25.4346H60.2796C60.2512 25.2158 60.1929 25.0184 60.1049 24.8423C60.0168 24.6661 59.9003 24.5156 59.7554 24.3906C59.6105 24.2656 59.4387 24.1704 59.2398 24.1051C59.0438 24.0369 58.8265 24.0028 58.5878 24.0028C58.1645 24.0028 57.7995 24.1065 57.4927 24.3139C57.1887 24.5212 56.9543 24.821 56.7895 25.213C56.6276 25.6051 56.5466 26.0795 56.5466 26.6363C56.5466 27.2158 56.629 27.7016 56.7938 28.0937C56.9614 28.4829 57.1958 28.7769 57.4969 28.9758C57.8009 29.1718 58.1603 29.2698 58.575 29.2698C58.808 29.2698 59.0196 29.24 59.21 29.1803C59.4032 29.1207 59.5722 29.034 59.7171 28.9204C59.8648 28.8039 59.9855 28.6633 60.0793 28.4985C60.1759 28.3309 60.2426 28.142 60.2796 27.9318L62.4103 27.9445C62.3733 28.3309 62.2611 28.7116 62.0736 29.0866C61.889 29.4616 61.6347 29.8039 61.3108 30.1136C60.987 30.4204 60.5921 30.6647 60.1262 30.8465C59.6631 31.0283 59.1319 31.1193 58.5324 31.1193C57.7427 31.1193 57.0353 30.946 56.4103 30.5994C55.7881 30.2499 55.2966 29.7414 54.9358 29.0738C54.575 28.4062 54.3946 27.5937 54.3946 26.6363C54.3946 25.6761 54.5779 24.8622 54.9444 24.1945C55.3108 23.5269 55.8066 23.0198 56.4316 22.6732C57.0566 22.3266 57.7569 22.1533 58.5324 22.1533C59.0608 22.1533 59.5495 22.2272 59.9983 22.3749C60.4472 22.5198 60.8421 22.7329 61.183 23.0141C61.5239 23.2926 61.8009 23.6349 62.014 24.0411C62.227 24.4474 62.3591 24.9119 62.4103 25.4346Z" fill="white"/>
</g>
<rect x="0.749756" y="0.749939" width="118.5" height="38.5" rx="5.25" stroke="white" stroke-opacity="0.15" stroke-width="1.5"/>
<defs>
<filter id="filter0_d_22_13" x="5.99976" y="1.99994" width="36" height="36" filterUnits="userSpaceOnUse" color-interpolation-filters="sRGB">
<feFlood flood-opacity="0" result="BackgroundImageFix"/>
<feColorMatrix in="SourceAlpha" type="matrix" values="0 0 0 0 0 0 0 0 0 0 0 0 0 0 0 0 0 0 127 0" result="hardAlpha"/>
<feOffset/>
<feGaussianBlur stdDeviation="2"/>
<feComposite in2="hardAlpha" operator="out"/>
<feColorMatrix type="matrix" values="0 0 0 0 0 0 0 0 0 0 0 0 0 0 0 0 0 0 0.25 0"/>
<feBlend mode="normal" in2="BackgroundImageFix" result="effect1_dropShadow_22_13"/>
<feBlend mode="normal" in="SourceGraphic" in2="effect1_dropShadow_22_13" result="shape"/>
</filter>
<filter id="filter1_d_22_13" x="41.9998" y="2.99994" width="72" height="34" filterUnits="userSpaceOnUse" color-interpolation-filters="sRGB">
<feFlood flood-opacity="0" result="BackgroundImageFix"/>
<feColorMatrix in="SourceAlpha" type="matrix" values="0 0 0 0 0 0 0 0 0 0 0 0 0 0 0 0 0 0 127 0" result="hardAlpha"/>
<feOffset/>
<feGaussianBlur stdDeviation="2"/>
<feComposite in2="hardAlpha" operator="out"/>
<feColorMatrix type="matrix" values="0 0 0 0 0 0 0 0 0 0 0 0 0 0 0 0 0 0 0.25 0"/>
<feBlend mode="normal" in2="BackgroundImageFix" result="effect1_dropShadow_22_13"/>
<feBlend mode="normal" in="SourceGraphic" in2="effect1_dropShadow_22_13" result="shape"/>
</filter>
<linearGradient id="paint0_linear_22_13" x1="-1.20075e-06" y1="40" x2="5.28542" y2="0.711061" gradientUnits="userSpaceOnUse">
<stop stop-color="#161616"/>
<stop offset="1" stop-color="#2D2D2D"/>
</linearGradient>
</defs>
</svg>
