<svg width="135" height="40" viewBox="0 0 135 40" fill="none" xmlns="http://www.w3.org/2000/svg">
<rect x="-0.000244141" y="-6.10352e-05" width="135" height="40" rx="6" fill="url(#paint0_linear_22_30)"/>
<g filter="url(#filter0_d_22_30)">
<path fill-rule="evenodd" clip-rule="evenodd" d="M37.7511 25.8379C37.204 26.5404 35.8641 27.0414 35.8641 27.0414L25.8956 30.6865V27.9984L33.2317 25.3375C34.0642 25.0337 34.192 24.6046 33.5154 24.3791C32.84 24.1531 31.6169 24.2179 30.7838 24.5229L25.8956 26.2755V23.4857L26.1774 23.3887C26.1774 23.3887 27.5898 22.8798 29.5761 22.6558C31.5623 22.4331 33.9942 22.6862 35.9034 23.4229C38.055 24.1151 38.2973 25.1353 37.751 25.8379H37.7511ZM26.8446 21.2605V14.386C26.8446 13.5787 26.6982 12.8355 25.9541 12.6251C25.3842 12.4392 25.0307 12.9778 25.0307 13.7845V31L20.4701 29.5264V9C22.4091 9.36638 25.2343 10.2327 26.753 10.7539C30.6152 12.1038 31.9247 13.7839 31.9247 17.5695C31.9247 21.2592 29.6874 22.6576 26.8446 21.2605ZM12.1018 27.7174C9.89288 27.0841 9.52535 25.7647 10.5321 25.0046C11.4626 24.3028 13.045 23.7745 13.045 23.7745L19.5841 21.4075V24.106L14.8784 25.8203C14.0472 26.1239 13.9194 26.5538 14.5949 26.7791C15.2709 27.0044 16.4945 26.9403 17.327 26.636L19.5841 25.8022V28.2164C19.441 28.2423 19.2815 28.2682 19.1339 28.2934C16.876 28.669 14.4714 28.5122 12.1018 27.7173V27.7174Z" fill="white"/>
</g>
<g filter="url(#filter1_d_22_30)">
<path d="M47.5544 17.9999H46.2732L49.1521 9.99994H50.5466L53.4255 17.9999H52.1443L49.8826 11.4531H49.8201L47.5544 17.9999ZM47.7693 14.8671H51.9255V15.8827H47.7693V14.8671ZM58.8679 11.9999L56.6921 17.9999H55.4421L53.2624 11.9999H54.5164L56.0359 16.6171H56.0984L57.614 11.9999H58.8679ZM61.5398 18.1327C61.1596 18.1327 60.8158 18.0624 60.5085 17.9218C60.2012 17.7786 59.9578 17.5716 59.7781 17.3007C59.601 17.0299 59.5124 16.6979 59.5124 16.3046C59.5124 15.9661 59.5776 15.6874 59.7078 15.4687C59.838 15.2499 60.0137 15.0768 60.2351 14.9492C60.4565 14.8216 60.7039 14.7252 60.9773 14.6601C61.2507 14.595 61.5294 14.5455 61.8132 14.5117C62.1726 14.47 62.4643 14.4361 62.6882 14.4101C62.9122 14.3814 63.0749 14.3359 63.1765 14.2734C63.2781 14.2109 63.3289 14.1093 63.3289 13.9687V13.9413C63.3289 13.6002 63.2325 13.3359 63.0398 13.1484C62.8497 12.9609 62.5658 12.8671 62.1882 12.8671C61.795 12.8671 61.4851 12.9544 61.2585 13.1288C61.0346 13.3007 60.8796 13.4921 60.7937 13.7031L59.696 13.4531C59.8262 13.0885 60.0164 12.7942 60.2664 12.5702C60.519 12.3437 60.8093 12.1796 61.1374 12.0781C61.4656 11.9739 61.8106 11.9218 62.1726 11.9218C62.4122 11.9218 62.6661 11.9505 62.9343 12.0078C63.2052 12.0624 63.4578 12.164 63.6921 12.3124C63.9291 12.4609 64.1231 12.6731 64.2742 12.9492C64.4252 13.2226 64.5007 13.5781 64.5007 14.0156V17.9999H63.3601V17.1796H63.3132C63.2377 17.3307 63.1244 17.4791 62.9734 17.6249C62.8223 17.7708 62.6283 17.8919 62.3914 17.9882C62.1544 18.0846 61.8705 18.1327 61.5398 18.1327ZM61.7937 17.1952C62.1166 17.1952 62.3927 17.1314 62.6218 17.0038C62.8536 16.8762 63.0294 16.7096 63.1492 16.5038C63.2716 16.2955 63.3328 16.0729 63.3328 15.8359V15.0624C63.2911 15.1041 63.2104 15.1432 63.0906 15.1796C62.9734 15.2135 62.8393 15.2434 62.6882 15.2695C62.5372 15.2929 62.3901 15.315 62.2468 15.3359C62.1036 15.3541 61.9838 15.3697 61.8874 15.3827C61.6609 15.4114 61.4539 15.4596 61.2664 15.5273C61.0815 15.595 60.933 15.6926 60.821 15.8202C60.7117 15.9452 60.657 16.1119 60.657 16.3202C60.657 16.6093 60.7637 16.8281 60.9773 16.9765C61.1908 17.1223 61.463 17.1952 61.7937 17.1952ZM66.0564 17.9999V11.9999H67.2244V17.9999H66.0564ZM66.6462 11.0742C66.4431 11.0742 66.2686 11.0064 66.1228 10.871C65.9796 10.733 65.908 10.5689 65.908 10.3788C65.908 10.1861 65.9796 10.0221 66.1228 9.88666C66.2686 9.74864 66.4431 9.67963 66.6462 9.67963C66.8494 9.67963 67.0225 9.74864 67.1658 9.88666C67.3116 10.0221 67.3845 10.1861 67.3845 10.3788C67.3845 10.5689 67.3116 10.733 67.1658 10.871C67.0225 11.0064 66.8494 11.0742 66.6462 11.0742ZM69.9636 9.99994V17.9999H68.7956V9.99994H69.9636ZM73.281 18.1327C72.9008 18.1327 72.557 18.0624 72.2497 17.9218C71.9425 17.7786 71.699 17.5716 71.5193 17.3007C71.3422 17.0299 71.2537 16.6979 71.2537 16.3046C71.2537 15.9661 71.3188 15.6874 71.449 15.4687C71.5792 15.2499 71.755 15.0768 71.9763 14.9492C72.1977 14.8216 72.4451 14.7252 72.7185 14.6601C72.9919 14.595 73.2706 14.5455 73.5544 14.5117C73.9138 14.47 74.2055 14.4361 74.4294 14.4101C74.6534 14.3814 74.8162 14.3359 74.9177 14.2734C75.0193 14.2109 75.0701 14.1093 75.0701 13.9687V13.9413C75.0701 13.6002 74.9737 13.3359 74.781 13.1484C74.5909 12.9609 74.307 12.8671 73.9294 12.8671C73.5362 12.8671 73.2263 12.9544 72.9997 13.1288C72.7758 13.3007 72.6208 13.4921 72.5349 13.7031L71.4372 13.4531C71.5675 13.0885 71.7576 12.7942 72.0076 12.5702C72.2602 12.3437 72.5505 12.1796 72.8787 12.0781C73.2068 11.9739 73.5518 11.9218 73.9138 11.9218C74.1534 11.9218 74.4073 11.9505 74.6755 12.0078C74.9464 12.0624 75.199 12.164 75.4333 12.3124C75.6703 12.4609 75.8643 12.6731 76.0154 12.9492C76.1664 13.2226 76.2419 13.5781 76.2419 14.0156V17.9999H75.1013V17.1796H75.0544C74.9789 17.3307 74.8656 17.4791 74.7146 17.6249C74.5635 17.7708 74.3695 17.8919 74.1326 17.9882C73.8956 18.0846 73.6117 18.1327 73.281 18.1327ZM73.5349 17.1952C73.8578 17.1952 74.1339 17.1314 74.363 17.0038C74.5948 16.8762 74.7706 16.7096 74.8904 16.5038C75.0128 16.2955 75.074 16.0729 75.074 15.8359V15.0624C75.0323 15.1041 74.9516 15.1432 74.8318 15.1796C74.7146 15.2135 74.5805 15.2434 74.4294 15.2695C74.2784 15.2929 74.1313 15.315 73.988 15.3359C73.8448 15.3541 73.725 15.3697 73.6287 15.3827C73.4021 15.4114 73.1951 15.4596 73.0076 15.5273C72.8227 15.595 72.6742 15.6926 72.5622 15.8202C72.4529 15.9452 72.3982 16.1119 72.3982 16.3202C72.3982 16.6093 72.505 16.8281 72.7185 16.9765C72.932 17.1223 73.2042 17.1952 73.5349 17.1952ZM77.8913 17.9999V9.99994H79.0593V12.9726H79.1296C79.1973 12.8476 79.295 12.7031 79.4226 12.539C79.5502 12.3749 79.7273 12.2317 79.9538 12.1093C80.1804 11.9843 80.4799 11.9218 80.8523 11.9218C81.3367 11.9218 81.769 12.0442 82.1492 12.289C82.5294 12.5338 82.8275 12.8867 83.0437 13.3476C83.2624 13.8085 83.3718 14.3632 83.3718 15.0117C83.3718 15.6601 83.2637 16.2161 83.0476 16.6796C82.8315 17.1406 82.5346 17.496 82.157 17.746C81.7794 17.9934 81.3484 18.1171 80.864 18.1171C80.4994 18.1171 80.2012 18.0559 79.9695 17.9335C79.7403 17.8111 79.5606 17.6679 79.4304 17.5038C79.3002 17.3398 79.1999 17.1939 79.1296 17.0663H79.032V17.9999H77.8913ZM79.0359 14.9999C79.0359 15.4218 79.0971 15.7916 79.2195 16.1093C79.3419 16.427 79.519 16.6757 79.7507 16.8554C79.9825 17.0325 80.2663 17.121 80.6023 17.121C80.9512 17.121 81.2429 17.0286 81.4773 16.8437C81.7117 16.6562 81.8887 16.4023 82.0085 16.082C82.1309 15.7617 82.1921 15.401 82.1921 14.9999C82.1921 14.6041 82.1322 14.2486 82.0124 13.9335C81.8953 13.6184 81.7182 13.3697 81.4812 13.1874C81.2468 13.0051 80.9538 12.914 80.6023 12.914C80.2637 12.914 79.9773 13.0012 79.7429 13.1757C79.5111 13.3502 79.3354 13.5937 79.2156 13.9062C79.0958 14.2187 79.0359 14.5833 79.0359 14.9999ZM85.8513 9.99994V17.9999H84.6833V9.99994H85.8513ZM90.0085 18.121C89.4174 18.121 88.9083 17.9947 88.4812 17.7421C88.0567 17.4869 87.7286 17.1288 87.4968 16.6679C87.2676 16.2044 87.1531 15.6614 87.1531 15.039C87.1531 14.4244 87.2676 13.8827 87.4968 13.414C87.7286 12.9452 88.0515 12.5794 88.4656 12.3163C88.8822 12.0533 89.3692 11.9218 89.9265 11.9218C90.265 11.9218 90.5932 11.9778 90.9109 12.0898C91.2286 12.2018 91.5137 12.3775 91.7663 12.6171C92.0189 12.8567 92.2182 13.1679 92.364 13.5507C92.5098 13.9309 92.5828 14.3932 92.5828 14.9374V15.3515H87.8132V14.4765H91.4382C91.4382 14.1692 91.3757 13.8971 91.2507 13.6601C91.1257 13.4205 90.9499 13.2317 90.7234 13.0937C90.4994 12.9557 90.2364 12.8867 89.9343 12.8867C89.6062 12.8867 89.3197 12.9674 89.0749 13.1288C88.8328 13.2877 88.6453 13.496 88.5124 13.7538C88.3822 14.0091 88.3171 14.2864 88.3171 14.5859V15.2695C88.3171 15.6705 88.3874 16.0117 88.5281 16.2929C88.6713 16.5742 88.8705 16.789 89.1257 16.9374C89.3809 17.0833 89.6791 17.1562 90.0203 17.1562C90.2416 17.1562 90.4434 17.1249 90.6257 17.0624C90.808 16.9973 90.9656 16.901 91.0984 16.7734C91.2312 16.6458 91.3328 16.4882 91.4031 16.3007L92.5085 16.4999C92.42 16.8255 92.2611 17.1106 92.032 17.3554C91.8054 17.5976 91.5203 17.7864 91.1765 17.9218C90.8354 18.0546 90.446 18.121 90.0085 18.121ZM99.3171 18.121C98.7546 18.121 98.2637 17.9921 97.8445 17.7343C97.4252 17.4765 97.0997 17.1158 96.8679 16.6523C96.6361 16.1887 96.5202 15.6471 96.5202 15.0273C96.5202 14.4049 96.6361 13.8606 96.8679 13.3945C97.0997 12.9283 97.4252 12.5663 97.8445 12.3085C98.2637 12.0507 98.7546 11.9218 99.3171 11.9218C99.8796 11.9218 100.371 12.0507 100.79 12.3085C101.209 12.5663 101.535 12.9283 101.766 13.3945C101.998 13.8606 102.114 14.4049 102.114 15.0273C102.114 15.6471 101.998 16.1887 101.766 16.6523C101.535 17.1158 101.209 17.4765 100.79 17.7343C100.371 17.9921 99.8796 18.121 99.3171 18.121ZM99.321 17.1406C99.6856 17.1406 99.9877 17.0442 100.227 16.8515C100.467 16.6588 100.644 16.4023 100.759 16.082C100.876 15.7617 100.934 15.4088 100.934 15.0234C100.934 14.6406 100.876 14.289 100.759 13.9687C100.644 13.6458 100.467 13.3867 100.227 13.1913C99.9877 12.996 99.6856 12.8984 99.321 12.8984C98.9538 12.8984 98.6492 12.996 98.407 13.1913C98.1674 13.3867 97.989 13.6458 97.8718 13.9687C97.7572 14.289 97.6999 14.6406 97.6999 15.0234C97.6999 15.4088 97.7572 15.7617 97.8718 16.082C97.989 16.4023 98.1674 16.6588 98.407 16.8515C98.6492 17.0442 98.9538 17.1406 99.321 17.1406ZM104.586 14.4374V17.9999H103.418V11.9999H104.539V12.9765H104.613C104.751 12.6588 104.967 12.4036 105.261 12.2109C105.558 12.0182 105.932 11.9218 106.383 11.9218C106.791 11.9218 107.149 12.0078 107.457 12.1796C107.764 12.3489 108.002 12.6015 108.172 12.9374C108.341 13.2734 108.426 13.6887 108.426 14.1835V17.9999H107.258V14.3242C107.258 13.8893 107.144 13.5494 106.918 13.3046C106.691 13.0572 106.38 12.9335 105.984 12.9335C105.713 12.9335 105.472 12.9921 105.261 13.1093C105.053 13.2265 104.888 13.3984 104.765 13.6249C104.646 13.8489 104.586 14.1197 104.586 14.4374Z" fill="#E8E8E8"/>
<path d="M46.6603 30.9999V22.2727H50.2654C50.9188 22.2727 51.4827 22.4005 51.9571 22.6562C52.4344 22.909 52.8023 23.2627 53.0608 23.7173C53.3194 24.169 53.4486 24.6945 53.4486 25.294C53.4486 25.8962 53.3165 26.4232 53.0523 26.8749C52.7909 27.3238 52.4174 27.6718 51.9316 27.919C51.4458 28.1661 50.8691 28.2897 50.2015 28.2897H47.977V26.6278H49.8094C50.1276 26.6278 50.3932 26.5724 50.6063 26.4616C50.8222 26.3508 50.9856 26.196 51.0963 25.9971C51.2071 25.7954 51.2625 25.561 51.2625 25.294C51.2625 25.0241 51.2071 24.7911 51.0963 24.5951C50.9856 24.3962 50.8222 24.2428 50.6063 24.1349C50.3904 24.0269 50.1248 23.9729 49.8094 23.9729H48.7696V30.9999H46.6603ZM56.5722 22.2727V30.9999H54.4884V22.2727H56.5722ZM59.7437 31.1107C59.3261 31.1107 58.9554 31.0411 58.6315 30.9019C58.3105 30.7599 58.0562 30.5468 57.8687 30.2627C57.6841 29.9758 57.5917 29.6164 57.5917 29.1846C57.5917 28.821 57.6556 28.5141 57.7835 28.2641C57.9113 28.0141 58.0875 27.811 58.3119 27.6548C58.5363 27.4985 58.7949 27.3806 59.0875 27.3011C59.3801 27.2187 59.6926 27.1633 60.025 27.1349C60.3971 27.1008 60.6968 27.0653 60.9241 27.0283C61.1514 26.9886 61.3162 26.9332 61.4184 26.8622C61.5235 26.7883 61.5761 26.6846 61.5761 26.5511V26.5298C61.5761 26.311 61.5008 26.142 61.3502 26.0227C61.1997 25.9033 60.9966 25.8437 60.7409 25.8437C60.4653 25.8437 60.2437 25.9033 60.0761 26.0227C59.9085 26.142 59.802 26.3068 59.7565 26.517L57.8346 26.4488C57.8914 26.0511 58.0377 25.696 58.2735 25.3835C58.5122 25.0681 58.8389 24.821 59.2537 24.642C59.6713 24.4602 60.1727 24.3693 60.7579 24.3693C61.1755 24.3693 61.5605 24.419 61.9127 24.5184C62.265 24.615 62.5718 24.757 62.8332 24.9445C63.0946 25.1292 63.2963 25.3565 63.4383 25.6264C63.5832 25.8962 63.6556 26.2045 63.6556 26.5511V30.9999H61.6954V30.088H61.6443C61.5278 30.3096 61.3787 30.4971 61.1968 30.6505C61.0179 30.8039 60.8062 30.919 60.5619 30.9957C60.3204 31.0724 60.0477 31.1107 59.7437 31.1107ZM60.3872 29.7471C60.6116 29.7471 60.8133 29.7016 60.9923 29.6107C61.1741 29.5198 61.319 29.3948 61.427 29.2357C61.5349 29.0738 61.5889 28.8863 61.5889 28.6732V28.0511C61.5292 28.0823 61.4568 28.1107 61.3716 28.1363C61.2892 28.1619 61.1983 28.186 61.0988 28.2087C60.9994 28.2315 60.8971 28.2514 60.792 28.2684C60.6869 28.2854 60.586 28.3011 60.4895 28.3153C60.2934 28.3465 60.1258 28.3948 59.9866 28.4602C59.8502 28.5255 59.7451 28.6107 59.6713 28.7158C59.6002 28.8181 59.5647 28.9403 59.5647 29.0823C59.5647 29.2982 59.6414 29.463 59.7949 29.5766C59.9511 29.6903 60.1485 29.7471 60.3872 29.7471ZM65.9696 33.4545C65.7196 33.4545 65.4838 33.4346 65.2622 33.3948C65.0406 33.3579 64.8502 33.3082 64.6912 33.2457L65.1514 31.7329C65.3559 31.8011 65.5406 31.8408 65.7054 31.8522C65.873 31.8636 66.0164 31.8366 66.1358 31.7712C66.2579 31.7087 66.3517 31.5965 66.417 31.4346L66.498 31.2386L64.1713 24.4545H66.3531L67.5591 29.1249H67.6272L68.8502 24.4545H71.0448L68.5775 31.6264C68.4582 31.9843 68.2892 32.2997 68.0704 32.5724C67.8545 32.8479 67.5747 33.0639 67.2309 33.2201C66.89 33.3764 66.4696 33.4545 65.9696 33.4545ZM76.5612 24.8891C76.5328 24.5766 76.4064 24.3337 76.1819 24.1604C75.9603 23.9843 75.6436 23.8962 75.2316 23.8962C74.9589 23.8962 74.7316 23.9318 74.5498 24.0028C74.368 24.0738 74.2316 24.1718 74.1407 24.2968C74.0498 24.419 74.0029 24.5596 74.0001 24.7187C73.9944 24.8494 74.02 24.9644 74.0768 25.0639C74.1365 25.1633 74.2217 25.2514 74.3325 25.3281C74.4461 25.4019 74.5825 25.4673 74.7416 25.5241C74.9007 25.5809 75.0796 25.6306 75.2785 25.6732L76.0285 25.8437C76.4603 25.9374 76.841 26.0624 77.1706 26.2187C77.5029 26.3749 77.7814 26.561 78.0058 26.7769C78.2331 26.9928 78.4049 27.2414 78.5214 27.5227C78.6379 27.8039 78.6975 28.1193 78.7004 28.4687C78.6975 29.0198 78.5583 29.4928 78.2828 29.8877C78.0072 30.2826 77.6109 30.5852 77.0939 30.7954C76.5796 31.0056 75.9589 31.1107 75.2316 31.1107C74.5015 31.1107 73.8652 31.0014 73.3225 30.7826C72.7799 30.5639 72.3581 30.2315 72.0569 29.7854C71.7558 29.3394 71.601 28.7755 71.5924 28.0937H73.6123C73.6294 28.3749 73.7046 28.6093 73.8382 28.7968C73.9717 28.9843 74.1549 29.1264 74.3879 29.2229C74.6237 29.3195 74.8964 29.3678 75.2061 29.3678C75.4902 29.3678 75.7316 29.3295 75.9305 29.2528C76.1322 29.1761 76.287 29.0695 76.395 28.9332C76.5029 28.7968 76.5583 28.6406 76.5612 28.4644C76.5583 28.2997 76.5072 28.159 76.4078 28.0426C76.3083 27.9232 76.1549 27.821 75.9475 27.7357C75.743 27.6477 75.4816 27.5667 75.1635 27.4928L74.2515 27.2798C73.4958 27.1065 72.9007 26.8266 72.466 26.4403C72.0314 26.0511 71.8154 25.5255 71.8183 24.8636C71.8154 24.3238 71.9603 23.8508 72.2529 23.4445C72.5456 23.0383 72.9504 22.7215 73.4674 22.4943C73.9845 22.267 74.574 22.1533 75.2359 22.1533C75.912 22.1533 76.4987 22.2684 76.9958 22.4985C77.4958 22.7258 77.8836 23.0454 78.1592 23.4573C78.4348 23.8693 78.5754 24.3465 78.5811 24.8891H76.5612ZM83.4603 24.4545V25.9886H79.3311V24.4545H83.4603ZM80.1961 22.8863H82.2799V28.9417C82.2799 29.0695 82.2998 29.1732 82.3396 29.2528C82.3822 29.3295 82.4433 29.3849 82.5228 29.419C82.6024 29.4502 82.6975 29.4658 82.8083 29.4658C82.8879 29.4658 82.9717 29.4587 83.0598 29.4445C83.1507 29.4275 83.2188 29.4133 83.2643 29.4019L83.5796 30.9062C83.4802 30.9346 83.3396 30.9701 83.1578 31.0127C82.9788 31.0553 82.7643 31.0823 82.5143 31.0937C82.0257 31.1164 81.6066 31.0596 81.2572 30.9232C80.9106 30.784 80.645 30.5681 80.4603 30.2755C80.2785 29.9829 80.1904 29.615 80.1961 29.1718V22.8863ZM86.3687 31.1107C85.9511 31.1107 85.5804 31.0411 85.2565 30.9019C84.9355 30.7599 84.6812 30.5468 84.4937 30.2627C84.309 29.9758 84.2167 29.6164 84.2167 29.1846C84.2167 28.821 84.2806 28.5141 84.4085 28.2641C84.5363 28.0141 84.7125 27.811 84.9369 27.6548C85.1613 27.4985 85.4198 27.3806 85.7125 27.3011C86.0051 27.2187 86.3176 27.1633 86.65 27.1349C87.0221 27.1008 87.3218 27.0653 87.5491 27.0283C87.7764 26.9886 87.9411 26.9332 88.0434 26.8622C88.1485 26.7883 88.2011 26.6846 88.2011 26.5511V26.5298C88.2011 26.311 88.1258 26.142 87.9752 26.0227C87.8247 25.9033 87.6215 25.8437 87.3659 25.8437C87.0903 25.8437 86.8687 25.9033 86.7011 26.0227C86.5335 26.142 86.4269 26.3068 86.3815 26.517L84.4596 26.4488C84.5164 26.0511 84.6627 25.696 84.8985 25.3835C85.1372 25.0681 85.4639 24.821 85.8787 24.642C86.2963 24.4602 86.7977 24.3693 87.3829 24.3693C87.8005 24.3693 88.1855 24.419 88.5377 24.5184C88.89 24.615 89.1968 24.757 89.4582 24.9445C89.7196 25.1292 89.9213 25.3565 90.0633 25.6264C90.2082 25.8962 90.2806 26.2045 90.2806 26.5511V30.9999H88.3204V30.088H88.2693C88.1528 30.3096 88.0036 30.4971 87.8218 30.6505C87.6429 30.8039 87.4312 30.919 87.1869 30.9957C86.9454 31.0724 86.6727 31.1107 86.3687 31.1107ZM87.0122 29.7471C87.2366 29.7471 87.4383 29.7016 87.6173 29.6107C87.7991 29.5198 87.944 29.3948 88.0519 29.2357C88.1599 29.0738 88.2139 28.8863 88.2139 28.6732V28.0511C88.1542 28.0823 88.0818 28.1107 87.9965 28.1363C87.9142 28.1619 87.8233 28.186 87.7238 28.2087C87.6244 28.2315 87.5221 28.2514 87.417 28.2684C87.3119 28.2854 87.211 28.3011 87.1144 28.3153C86.9184 28.3465 86.7508 28.3948 86.6116 28.4602C86.4752 28.5255 86.3701 28.6107 86.2963 28.7158C86.2252 28.8181 86.1897 28.9403 86.1897 29.0823C86.1897 29.2982 86.2664 29.463 86.4198 29.5766C86.5761 29.6903 86.7735 29.7471 87.0122 29.7471ZM95.2494 24.4545V25.9886H91.1201V24.4545H95.2494ZM91.9852 22.8863H94.069V28.9417C94.069 29.0695 94.0889 29.1732 94.1286 29.2528C94.1713 29.3295 94.2323 29.3849 94.3119 29.419C94.3914 29.4502 94.4866 29.4658 94.5974 29.4658C94.6769 29.4658 94.7607 29.4587 94.8488 29.4445C94.9397 29.4275 95.0079 29.4133 95.0534 29.4019L95.3687 30.9062C95.2693 30.9346 95.1286 30.9701 94.9468 31.0127C94.7679 31.0553 94.5534 31.0823 94.3034 31.0937C93.8147 31.1164 93.3957 31.0596 93.0463 30.9232C92.6997 30.784 92.434 30.5681 92.2494 30.2755C92.0676 29.9829 91.9795 29.615 91.9852 29.1718V22.8863ZM96.3126 30.9999V24.4545H98.3964V30.9999H96.3126ZM97.3566 23.6917C97.064 23.6917 96.8126 23.5951 96.6024 23.4019C96.3921 23.2059 96.287 22.9701 96.287 22.6945C96.287 22.4218 96.3921 22.1889 96.6024 21.9957C96.8126 21.7997 97.064 21.7016 97.3566 21.7016C97.6521 21.7016 97.9035 21.7997 98.1109 21.9957C98.3211 22.1889 98.4262 22.4218 98.4262 22.6945C98.4262 22.9701 98.3211 23.2059 98.1109 23.4019C97.9035 23.5951 97.6521 23.6917 97.3566 23.6917ZM102.778 31.1235C102.091 31.1235 101.5 30.9829 101.005 30.7016C100.514 30.4175 100.135 30.0227 99.8676 29.517C99.6034 29.0085 99.4713 28.419 99.4713 27.7485C99.4713 27.0752 99.6034 26.4857 99.8676 25.9801C100.135 25.4715 100.514 25.0766 101.005 24.7954C101.5 24.5113 102.091 24.3693 102.778 24.3693C103.466 24.3693 104.055 24.5113 104.547 24.7954C105.041 25.0766 105.42 25.4715 105.684 25.9801C105.951 26.4857 106.085 27.0752 106.085 27.7485C106.085 28.419 105.951 29.0085 105.684 29.517C105.42 30.0227 105.041 30.4175 104.547 30.7016C104.055 30.9829 103.466 31.1235 102.778 31.1235ZM102.791 29.5511C103.041 29.5511 103.253 29.4744 103.426 29.321C103.599 29.1675 103.731 28.9545 103.822 28.6818C103.916 28.409 103.963 28.0937 103.963 27.7357C103.963 27.3721 103.916 27.0539 103.822 26.7812C103.731 26.5085 103.599 26.2954 103.426 26.142C103.253 25.9886 103.041 25.9119 102.791 25.9119C102.532 25.9119 102.314 25.9886 102.135 26.142C101.959 26.2954 101.824 26.5085 101.73 26.7812C101.639 27.0539 101.593 27.3721 101.593 27.7357C101.593 28.0937 101.639 28.409 101.73 28.6818C101.824 28.9545 101.959 29.1675 102.135 29.321C102.314 29.4744 102.532 29.5511 102.791 29.5511ZM109.236 27.267V30.9999H107.152V24.4545H109.134V25.6562H109.206C109.351 25.2556 109.598 24.9417 109.948 24.7144C110.297 24.4843 110.714 24.3693 111.196 24.3693C111.657 24.3693 112.056 24.4729 112.394 24.6803C112.735 24.8849 112.999 25.1718 113.187 25.5411C113.377 25.9076 113.471 26.3366 113.468 26.8281V30.9999H111.384V27.2372C111.387 26.8735 111.294 26.5894 111.107 26.3849C110.922 26.1803 110.665 26.0781 110.336 26.0781C110.117 26.0781 109.924 26.1264 109.756 26.2229C109.591 26.3167 109.464 26.4516 109.373 26.6278C109.285 26.8039 109.239 27.017 109.236 27.267ZM120.66 31.1193C120.024 31.1193 119.458 31.0042 118.964 30.7741C118.47 30.544 118.079 30.2272 117.792 29.8238C117.508 29.4204 117.36 28.9573 117.349 28.4346H119.394C119.411 28.7556 119.542 29.0141 119.786 29.2102C120.031 29.4033 120.322 29.4999 120.66 29.4999C120.924 29.4999 121.158 29.4417 121.363 29.3252C121.568 29.2087 121.728 29.0454 121.845 28.8352C121.961 28.6221 122.018 28.3778 122.015 28.1022C122.018 27.821 121.96 27.5752 121.84 27.365C121.724 27.1548 121.562 26.9914 121.354 26.8749C121.15 26.7556 120.914 26.696 120.647 26.696C120.394 26.6931 120.154 26.7485 119.927 26.8622C119.703 26.9758 119.532 27.1306 119.416 27.3266L117.553 26.9772L117.933 22.2727H123.532V23.9729H119.667L119.467 26.0312H119.518C119.663 25.7897 119.896 25.5908 120.217 25.4346C120.541 25.2755 120.908 25.196 121.32 25.196C121.843 25.196 122.309 25.3181 122.718 25.5624C123.13 25.8039 123.454 26.1391 123.69 26.5681C123.928 26.9971 124.048 27.4886 124.048 28.0426C124.048 28.642 123.906 29.1732 123.622 29.6363C123.34 30.0994 122.945 30.463 122.437 30.7272C121.931 30.9886 121.339 31.1193 120.66 31.1193Z" fill="white"/>
</g>
<rect x="0.749756" y="0.749939" width="133.5" height="38.5" rx="5.25" stroke="white" stroke-opacity="0.15" stroke-width="1.5"/>
<defs>
<filter id="filter0_d_22_30" x="5.99976" y="1.99994" width="36.0002" height="36" filterUnits="userSpaceOnUse" color-interpolation-filters="sRGB">
<feFlood flood-opacity="0" result="BackgroundImageFix"/>
<feColorMatrix in="SourceAlpha" type="matrix" values="0 0 0 0 0 0 0 0 0 0 0 0 0 0 0 0 0 0 127 0" result="hardAlpha"/>
<feOffset/>
<feGaussianBlur stdDeviation="2"/>
<feComposite in2="hardAlpha" operator="out"/>
<feColorMatrix type="matrix" values="0 0 0 0 0 0 0 0 0 0 0 0 0 0 0 0 0 0 0.25 0"/>
<feBlend mode="normal" in2="BackgroundImageFix" result="effect1_dropShadow_22_30"/>
<feBlend mode="normal" in="SourceGraphic" in2="effect1_dropShadow_22_30" result="shape"/>
</filter>
<filter id="filter1_d_22_30" x="41.9998" y="2.99994" width="87" height="34.4545" filterUnits="userSpaceOnUse" color-interpolation-filters="sRGB">
<feFlood flood-opacity="0" result="BackgroundImageFix"/>
<feColorMatrix in="SourceAlpha" type="matrix" values="0 0 0 0 0 0 0 0 0 0 0 0 0 0 0 0 0 0 127 0" result="hardAlpha"/>
<feOffset/>
<feGaussianBlur stdDeviation="2"/>
<feComposite in2="hardAlpha" operator="out"/>
<feColorMatrix type="matrix" values="0 0 0 0 0 0 0 0 0 0 0 0 0 0 0 0 0 0 0.25 0"/>
<feBlend mode="normal" in2="BackgroundImageFix" result="effect1_dropShadow_22_30"/>
<feBlend mode="normal" in="SourceGraphic" in2="effect1_dropShadow_22_30" result="shape"/>
</filter>
<linearGradient id="paint0_linear_22_30" x1="-3.96972e-06" y1="-2.67158e-06" x2="-4.71601" y2="39.436" gradientUnits="userSpaceOnUse">
<stop stop-color="#131F33"/>
<stop offset="1" stop-color="#0D1422"/>
</linearGradient>
</defs>
</svg>
