<svg width="121" height="40" viewBox="0 0 121 40" fill="none" xmlns="http://www.w3.org/2000/svg">
<rect x="-0.000244141" y="-6.10352e-05" width="121" height="40" rx="6" fill="url(#paint0_linear_18_2894)"/>
<g filter="url(#filter0_d_18_2894)">
<path d="M30.4797 9.66559L24.9563 12.7961L30.4856 15.9209L36.009 12.7904L30.4797 9.66559Z" stroke="url(#paint1_linear_18_2894)" stroke-width="0.6" stroke-linejoin="round"/>
<path d="M23.9895 5.99994L18.4631 9.13044L23.9924 12.2524L29.5187 9.12472L23.9895 5.99994Z" stroke="url(#paint2_linear_18_2894)" stroke-width="0.6" stroke-linejoin="round"/>
<path d="M17.5051 9.67413L11.9788 12.8018L17.508 15.9266L23.0315 12.7989L17.5051 9.67413Z" stroke="url(#paint3_linear_18_2894)" stroke-width="0.6" stroke-linejoin="round"/>
<path d="M23.9953 13.3398L18.469 16.4703L23.9983 19.5922L29.5246 16.4646L23.9953 13.3398Z" stroke="url(#paint4_linear_18_2894)" stroke-width="0.6" stroke-linejoin="round"/>
<path d="M11.4998 13.6173L11.5027 19.8726L17.0319 22.9945L17.029 16.7421L11.4998 13.6173Z" stroke="url(#paint5_linear_18_2894)" stroke-width="0.6" stroke-linejoin="round"/>
<path d="M17.99 17.2858L17.9929 23.5383L23.5222 26.663L23.5193 20.4106L17.99 17.2858Z" stroke="url(#paint6_linear_18_2894)" stroke-width="0.6" stroke-linejoin="round"/>
<path d="M11.5026 20.9571L11.5055 27.2096L17.0348 30.3315L17.0318 24.079L11.5026 20.9571Z" stroke="url(#paint7_linear_18_2894)" stroke-width="0.6" stroke-linejoin="round"/>
<path d="M17.9929 24.6255L17.9958 30.878L23.5251 33.9999L23.5222 27.7475L17.9929 24.6255Z" stroke="url(#paint8_linear_18_2894)" stroke-width="0.6" stroke-linejoin="round"/>
<path d="M24.4861 33.9999L30.0124 30.8722L30.0095 24.6198L24.4832 27.7475L24.4861 33.9999Z" stroke="url(#paint9_linear_18_2894)" stroke-width="0.6" stroke-linejoin="round"/>
<path d="M30.9734 30.3257L36.4997 27.198L36.4939 20.9456L30.9705 24.0733L30.9734 30.3257Z" stroke="url(#paint10_linear_18_2894)" stroke-width="0.6" stroke-linejoin="round"/>
<path d="M30.9675 22.986L36.4939 19.8583L36.4909 13.6059L30.9646 16.7335L30.9675 22.986Z" stroke="url(#paint11_linear_18_2894)" stroke-width="0.6" stroke-linejoin="round"/>
<path d="M24.4802 20.4077L24.4831 26.6602L30.0066 23.5325L30.0037 17.2801L24.4802 20.4077Z" stroke="url(#paint12_linear_18_2894)" stroke-width="0.6" stroke-linejoin="round"/>
</g>
<g filter="url(#filter1_d_18_2894)">
<path d="M47.5544 17.9999H46.2732L49.1521 9.99994H50.5466L53.4255 17.9999H52.1443L49.8826 11.4531H49.8201L47.5544 17.9999ZM47.7693 14.8671H51.9255V15.8827H47.7693V14.8671ZM58.8679 11.9999L56.6921 17.9999H55.4421L53.2624 11.9999H54.5164L56.0359 16.6171H56.0984L57.614 11.9999H58.8679ZM61.5398 18.1327C61.1596 18.1327 60.8158 18.0624 60.5085 17.9218C60.2012 17.7786 59.9578 17.5716 59.7781 17.3007C59.601 17.0299 59.5124 16.6979 59.5124 16.3046C59.5124 15.9661 59.5776 15.6874 59.7078 15.4687C59.838 15.2499 60.0137 15.0768 60.2351 14.9492C60.4565 14.8216 60.7039 14.7252 60.9773 14.6601C61.2507 14.595 61.5294 14.5455 61.8132 14.5117C62.1726 14.47 62.4643 14.4361 62.6882 14.4101C62.9122 14.3814 63.0749 14.3359 63.1765 14.2734C63.2781 14.2109 63.3289 14.1093 63.3289 13.9687V13.9413C63.3289 13.6002 63.2325 13.3359 63.0398 13.1484C62.8497 12.9609 62.5658 12.8671 62.1882 12.8671C61.795 12.8671 61.4851 12.9544 61.2585 13.1288C61.0346 13.3007 60.8796 13.4921 60.7937 13.7031L59.696 13.4531C59.8262 13.0885 60.0164 12.7942 60.2664 12.5702C60.519 12.3437 60.8093 12.1796 61.1374 12.0781C61.4656 11.9739 61.8106 11.9218 62.1726 11.9218C62.4122 11.9218 62.6661 11.9505 62.9343 12.0078C63.2052 12.0624 63.4578 12.164 63.6921 12.3124C63.9291 12.4609 64.1231 12.6731 64.2742 12.9492C64.4252 13.2226 64.5007 13.5781 64.5007 14.0156V17.9999H63.3601V17.1796H63.3132C63.2377 17.3307 63.1244 17.4791 62.9734 17.6249C62.8223 17.7708 62.6283 17.8919 62.3914 17.9882C62.1544 18.0846 61.8705 18.1327 61.5398 18.1327ZM61.7937 17.1952C62.1166 17.1952 62.3927 17.1314 62.6218 17.0038C62.8536 16.8762 63.0294 16.7096 63.1492 16.5038C63.2716 16.2955 63.3328 16.0729 63.3328 15.8359V15.0624C63.2911 15.1041 63.2104 15.1432 63.0906 15.1796C62.9734 15.2135 62.8393 15.2434 62.6882 15.2695C62.5372 15.2929 62.3901 15.315 62.2468 15.3359C62.1036 15.3541 61.9838 15.3697 61.8874 15.3827C61.6609 15.4114 61.4539 15.4596 61.2664 15.5273C61.0815 15.595 60.933 15.6926 60.821 15.8202C60.7117 15.9452 60.657 16.1119 60.657 16.3202C60.657 16.6093 60.7637 16.8281 60.9773 16.9765C61.1908 17.1223 61.463 17.1952 61.7937 17.1952ZM66.0564 17.9999V11.9999H67.2244V17.9999H66.0564ZM66.6462 11.0742C66.4431 11.0742 66.2686 11.0064 66.1228 10.871C65.9796 10.733 65.908 10.5689 65.908 10.3788C65.908 10.1861 65.9796 10.0221 66.1228 9.88666C66.2686 9.74864 66.4431 9.67963 66.6462 9.67963C66.8494 9.67963 67.0225 9.74864 67.1658 9.88666C67.3116 10.0221 67.3845 10.1861 67.3845 10.3788C67.3845 10.5689 67.3116 10.733 67.1658 10.871C67.0225 11.0064 66.8494 11.0742 66.6462 11.0742ZM69.9636 9.99994V17.9999H68.7956V9.99994H69.9636ZM73.281 18.1327C72.9008 18.1327 72.557 18.0624 72.2497 17.9218C71.9425 17.7786 71.699 17.5716 71.5193 17.3007C71.3422 17.0299 71.2537 16.6979 71.2537 16.3046C71.2537 15.9661 71.3188 15.6874 71.449 15.4687C71.5792 15.2499 71.755 15.0768 71.9763 14.9492C72.1977 14.8216 72.4451 14.7252 72.7185 14.6601C72.9919 14.595 73.2706 14.5455 73.5544 14.5117C73.9138 14.47 74.2055 14.4361 74.4294 14.4101C74.6534 14.3814 74.8162 14.3359 74.9177 14.2734C75.0193 14.2109 75.0701 14.1093 75.0701 13.9687V13.9413C75.0701 13.6002 74.9737 13.3359 74.781 13.1484C74.5909 12.9609 74.307 12.8671 73.9294 12.8671C73.5362 12.8671 73.2263 12.9544 72.9997 13.1288C72.7758 13.3007 72.6208 13.4921 72.5349 13.7031L71.4372 13.4531C71.5675 13.0885 71.7576 12.7942 72.0076 12.5702C72.2602 12.3437 72.5505 12.1796 72.8787 12.0781C73.2068 11.9739 73.5518 11.9218 73.9138 11.9218C74.1534 11.9218 74.4073 11.9505 74.6755 12.0078C74.9464 12.0624 75.199 12.164 75.4333 12.3124C75.6703 12.4609 75.8643 12.6731 76.0154 12.9492C76.1664 13.2226 76.2419 13.5781 76.2419 14.0156V17.9999H75.1013V17.1796H75.0544C74.9789 17.3307 74.8656 17.4791 74.7146 17.6249C74.5635 17.7708 74.3695 17.8919 74.1326 17.9882C73.8956 18.0846 73.6117 18.1327 73.281 18.1327ZM73.5349 17.1952C73.8578 17.1952 74.1339 17.1314 74.363 17.0038C74.5948 16.8762 74.7706 16.7096 74.8904 16.5038C75.0128 16.2955 75.074 16.0729 75.074 15.8359V15.0624C75.0323 15.1041 74.9516 15.1432 74.8318 15.1796C74.7146 15.2135 74.5805 15.2434 74.4294 15.2695C74.2784 15.2929 74.1313 15.315 73.988 15.3359C73.8448 15.3541 73.725 15.3697 73.6287 15.3827C73.4021 15.4114 73.1951 15.4596 73.0076 15.5273C72.8227 15.595 72.6742 15.6926 72.5622 15.8202C72.4529 15.9452 72.3982 16.1119 72.3982 16.3202C72.3982 16.6093 72.505 16.8281 72.7185 16.9765C72.932 17.1223 73.2042 17.1952 73.5349 17.1952ZM77.8913 17.9999V9.99994H79.0593V12.9726H79.1296C79.1973 12.8476 79.295 12.7031 79.4226 12.539C79.5502 12.3749 79.7273 12.2317 79.9538 12.1093C80.1804 11.9843 80.4799 11.9218 80.8523 11.9218C81.3367 11.9218 81.769 12.0442 82.1492 12.289C82.5294 12.5338 82.8275 12.8867 83.0437 13.3476C83.2624 13.8085 83.3718 14.3632 83.3718 15.0117C83.3718 15.6601 83.2637 16.2161 83.0476 16.6796C82.8315 17.1406 82.5346 17.496 82.157 17.746C81.7794 17.9934 81.3484 18.1171 80.864 18.1171C80.4994 18.1171 80.2012 18.0559 79.9695 17.9335C79.7403 17.8111 79.5606 17.6679 79.4304 17.5038C79.3002 17.3398 79.1999 17.1939 79.1296 17.0663H79.032V17.9999H77.8913ZM79.0359 14.9999C79.0359 15.4218 79.0971 15.7916 79.2195 16.1093C79.3419 16.427 79.519 16.6757 79.7507 16.8554C79.9825 17.0325 80.2663 17.121 80.6023 17.121C80.9512 17.121 81.2429 17.0286 81.4773 16.8437C81.7117 16.6562 81.8887 16.4023 82.0085 16.082C82.1309 15.7617 82.1921 15.401 82.1921 14.9999C82.1921 14.6041 82.1322 14.2486 82.0124 13.9335C81.8953 13.6184 81.7182 13.3697 81.4812 13.1874C81.2468 13.0051 80.9538 12.914 80.6023 12.914C80.2637 12.914 79.9773 13.0012 79.7429 13.1757C79.5111 13.3502 79.3354 13.5937 79.2156 13.9062C79.0958 14.2187 79.0359 14.5833 79.0359 14.9999ZM85.8513 9.99994V17.9999H84.6833V9.99994H85.8513ZM90.0085 18.121C89.4174 18.121 88.9083 17.9947 88.4812 17.7421C88.0567 17.4869 87.7286 17.1288 87.4968 16.6679C87.2676 16.2044 87.1531 15.6614 87.1531 15.039C87.1531 14.4244 87.2676 13.8827 87.4968 13.414C87.7286 12.9452 88.0515 12.5794 88.4656 12.3163C88.8822 12.0533 89.3692 11.9218 89.9265 11.9218C90.265 11.9218 90.5932 11.9778 90.9109 12.0898C91.2286 12.2018 91.5137 12.3775 91.7663 12.6171C92.0189 12.8567 92.2182 13.1679 92.364 13.5507C92.5098 13.9309 92.5828 14.3932 92.5828 14.9374V15.3515H87.8132V14.4765H91.4382C91.4382 14.1692 91.3757 13.8971 91.2507 13.6601C91.1257 13.4205 90.9499 13.2317 90.7234 13.0937C90.4994 12.9557 90.2364 12.8867 89.9343 12.8867C89.6062 12.8867 89.3197 12.9674 89.0749 13.1288C88.8328 13.2877 88.6453 13.496 88.5124 13.7538C88.3822 14.0091 88.3171 14.2864 88.3171 14.5859V15.2695C88.3171 15.6705 88.3874 16.0117 88.5281 16.2929C88.6713 16.5742 88.8705 16.789 89.1257 16.9374C89.3809 17.0833 89.6791 17.1562 90.0203 17.1562C90.2416 17.1562 90.4434 17.1249 90.6257 17.0624C90.808 16.9973 90.9656 16.901 91.0984 16.7734C91.2312 16.6458 91.3328 16.4882 91.4031 16.3007L92.5085 16.4999C92.42 16.8255 92.2611 17.1106 92.032 17.3554C91.8054 17.5976 91.5203 17.7864 91.1765 17.9218C90.8354 18.0546 90.446 18.121 90.0085 18.121ZM99.6452 11.9999V12.9374H96.2546V11.9999H99.6452ZM97.1843 17.9999V11.3046C97.1843 10.9296 97.2663 10.6184 97.4304 10.371C97.5945 10.121 97.8119 9.93483 98.0827 9.81244C98.3536 9.68744 98.6479 9.62494 98.9656 9.62494C99.1999 9.62494 99.4005 9.64447 99.5671 9.68353C99.7338 9.71999 99.8575 9.75384 99.9382 9.78509L99.6648 10.7304C99.6101 10.7148 99.5398 10.6966 99.4538 10.6757C99.3679 10.6523 99.2637 10.6406 99.1413 10.6406C98.8575 10.6406 98.6544 10.7109 98.532 10.8515C98.4122 10.9921 98.3523 11.1953 98.3523 11.4609V17.9999H97.1843ZM103.141 18.121C102.579 18.121 102.088 17.9921 101.669 17.7343C101.249 17.4765 100.924 17.1158 100.692 16.6523C100.46 16.1887 100.344 15.6471 100.344 15.0273C100.344 14.4049 100.46 13.8606 100.692 13.3945C100.924 12.9283 101.249 12.5663 101.669 12.3085C102.088 12.0507 102.579 11.9218 103.141 11.9218C103.704 11.9218 104.195 12.0507 104.614 12.3085C105.033 12.5663 105.359 12.9283 105.591 13.3945C105.822 13.8606 105.938 14.4049 105.938 15.0273C105.938 15.6471 105.822 16.1887 105.591 16.6523C105.359 17.1158 105.033 17.4765 104.614 17.7343C104.195 17.9921 103.704 18.121 103.141 18.121ZM103.145 17.1406C103.51 17.1406 103.812 17.0442 104.051 16.8515C104.291 16.6588 104.468 16.4023 104.583 16.082C104.7 15.7617 104.759 15.4088 104.759 15.0234C104.759 14.6406 104.7 14.289 104.583 13.9687C104.468 13.6458 104.291 13.3867 104.051 13.1913C103.812 12.996 103.51 12.8984 103.145 12.8984C102.778 12.8984 102.473 12.996 102.231 13.1913C101.992 13.3867 101.813 13.6458 101.696 13.9687C101.581 14.289 101.524 14.6406 101.524 15.0234C101.524 15.4088 101.581 15.7617 101.696 16.082C101.813 16.4023 101.992 16.6588 102.231 16.8515C102.473 17.0442 102.778 17.1406 103.145 17.1406ZM107.242 17.9999V11.9999H108.371V12.9531H108.433C108.543 12.6301 108.735 12.3762 109.011 12.1913C109.29 12.0038 109.605 11.9101 109.957 11.9101C110.03 11.9101 110.116 11.9127 110.215 11.9179C110.316 11.9231 110.396 11.9296 110.453 11.9374V13.0546C110.406 13.0416 110.323 13.0273 110.203 13.0117C110.083 12.9934 109.963 12.9843 109.843 12.9843C109.567 12.9843 109.321 13.0429 109.105 13.1601C108.892 13.2747 108.722 13.4348 108.597 13.6406C108.472 13.8437 108.41 14.0755 108.41 14.3359V17.9999H107.242Z" fill="#E8E8E8"/>
<path d="M46.6603 30.9999V22.2727H50.2654C50.9188 22.2727 51.4827 22.4005 51.9571 22.6562C52.4344 22.909 52.8023 23.2627 53.0608 23.7173C53.3194 24.169 53.4486 24.6945 53.4486 25.294C53.4486 25.8962 53.3165 26.4232 53.0523 26.8749C52.7909 27.3238 52.4174 27.6718 51.9316 27.919C51.4458 28.1661 50.8691 28.2897 50.2015 28.2897H47.977V26.6278H49.8094C50.1276 26.6278 50.3932 26.5724 50.6063 26.4616C50.8222 26.3508 50.9856 26.196 51.0963 25.9971C51.2071 25.7954 51.2625 25.561 51.2625 25.294C51.2625 25.0241 51.2071 24.7911 51.0963 24.5951C50.9856 24.3962 50.8222 24.2428 50.6063 24.1349C50.3904 24.0269 50.1248 23.9729 49.8094 23.9729H48.7696V30.9999H46.6603ZM58.7114 28.1747V24.4545H60.7909V30.9999H58.8052V29.7812H58.737C58.5921 30.1818 58.3449 30.4999 57.9955 30.7357C57.6489 30.9687 57.2299 31.0852 56.7384 31.0852C56.2924 31.0852 55.9003 30.9829 55.5623 30.7783C55.2242 30.5738 54.9614 30.2883 54.7739 29.9218C54.5864 29.5525 54.4912 29.1207 54.4884 28.6264V24.4545H56.5722V28.2173C56.575 28.5724 56.6688 28.8522 56.8534 29.0568C57.0381 29.2613 57.2895 29.3636 57.6077 29.3636C57.8151 29.3636 58.0012 29.3181 58.1659 29.2272C58.3336 29.1335 58.4657 28.9985 58.5623 28.8224C58.6617 28.6434 58.7114 28.4275 58.7114 28.1747ZM62.1173 30.9999V24.4545H64.1414V25.6477H64.2096C64.3289 25.2158 64.5235 24.8948 64.7934 24.6846C65.0633 24.4715 65.3772 24.365 65.7352 24.365C65.8318 24.365 65.9312 24.3721 66.0335 24.3863C66.1358 24.3977 66.2309 24.4161 66.319 24.4417V26.2528C66.2196 26.2187 66.0889 26.1917 65.927 26.1718C65.7679 26.1519 65.6258 26.142 65.5008 26.142C65.2537 26.142 65.0306 26.1974 64.8318 26.3082C64.6358 26.4161 64.4809 26.5681 64.3673 26.7641C64.2565 26.9573 64.2011 27.1846 64.2011 27.446V30.9999H62.1173ZM67.1681 33.4545V24.4545H69.2306V25.5752H69.2945C69.3797 25.3764 69.5005 25.1846 69.6567 24.9999C69.8158 24.8153 70.0175 24.6647 70.2618 24.5482C70.509 24.4289 70.8044 24.3693 71.1482 24.3693C71.6027 24.3693 72.0274 24.4886 72.4223 24.7272C72.8201 24.9658 73.1411 25.3337 73.3854 25.8309C73.6297 26.3281 73.7519 26.9616 73.7519 27.7315C73.7519 28.4729 73.634 29.0937 73.3982 29.5937C73.1652 30.0937 72.8499 30.4687 72.4522 30.7187C72.0573 30.9687 71.6184 31.0937 71.1354 31.0937C70.8059 31.0937 70.5203 31.0397 70.2789 30.9318C70.0374 30.8238 69.8343 30.6818 69.6695 30.5056C69.5076 30.3295 69.3826 30.1406 69.2945 29.9389H69.2519V33.4545H67.1681ZM69.2093 27.7272C69.2093 28.0795 69.2561 28.3863 69.3499 28.6477C69.4465 28.909 69.5843 29.1122 69.7632 29.257C69.9451 29.3991 70.1624 29.4701 70.4152 29.4701C70.6709 29.4701 70.8882 29.3991 71.0672 29.257C71.2462 29.1122 71.3811 28.909 71.472 28.6477C71.5658 28.3863 71.6127 28.0795 71.6127 27.7272C71.6127 27.3749 71.5658 27.0695 71.472 26.811C71.3811 26.5525 71.2462 26.3522 71.0672 26.2102C70.8911 26.0681 70.6738 25.9971 70.4152 25.9971C70.1596 25.9971 69.9422 26.0667 69.7632 26.2059C69.5843 26.3451 69.4465 26.544 69.3499 26.8025C69.2561 27.061 69.2093 27.3693 69.2093 27.7272ZM79.0669 28.1747V24.4545H81.1464V30.9999H79.1606V29.7812H79.0924C78.9475 30.1818 78.7004 30.4999 78.351 30.7357C78.0044 30.9687 77.5853 31.0852 77.0939 31.0852C76.6478 31.0852 76.2558 30.9829 75.9177 30.7783C75.5796 30.5738 75.3169 30.2883 75.1294 29.9218C74.9419 29.5525 74.8467 29.1207 74.8439 28.6264V24.4545H76.9277V28.2173C76.9305 28.5724 77.0242 28.8522 77.2089 29.0568C77.3936 29.2613 77.645 29.3636 77.9632 29.3636C78.1706 29.3636 78.3566 29.3181 78.5214 29.2272C78.689 29.1335 78.8211 28.9985 78.9177 28.8224C79.0171 28.6434 79.0669 28.4275 79.0669 28.1747ZM82.4728 30.9999V24.4545H84.4969V25.6477H84.5651C84.6844 25.2158 84.879 24.8948 85.1489 24.6846C85.4188 24.4715 85.7327 24.365 86.0907 24.365C86.1872 24.365 86.2867 24.3721 86.3889 24.3863C86.4912 24.3977 86.5864 24.4161 86.6745 24.4417V26.2528C86.575 26.2187 86.4443 26.1917 86.2824 26.1718C86.1233 26.1519 85.9813 26.142 85.8563 26.142C85.6091 26.142 85.3861 26.1974 85.1872 26.3082C84.9912 26.4161 84.8364 26.5681 84.7228 26.7641C84.612 26.9573 84.5566 27.1846 84.5566 27.446V30.9999H82.4728Z" fill="url(#paint13_linear_18_2894)"/>
</g>
<rect x="0.749756" y="0.749939" width="119.5" height="38.5" rx="5.25" stroke="white" stroke-opacity="0.15" stroke-width="1.5"/>
<defs>
<filter id="filter0_d_18_2894" x="5.99976" y="1.69995" width="36" height="36.5999" filterUnits="userSpaceOnUse" color-interpolation-filters="sRGB">
<feFlood flood-opacity="0" result="BackgroundImageFix"/>
<feColorMatrix in="SourceAlpha" type="matrix" values="0 0 0 0 0 0 0 0 0 0 0 0 0 0 0 0 0 0 127 0" result="hardAlpha"/>
<feOffset/>
<feGaussianBlur stdDeviation="2"/>
<feComposite in2="hardAlpha" operator="out"/>
<feColorMatrix type="matrix" values="0 0 0 0 0 0 0 0 0 0 0 0 0 0 0 0 0 0 0.25 0"/>
<feBlend mode="normal" in2="BackgroundImageFix" result="effect1_dropShadow_18_2894"/>
<feBlend mode="normal" in="SourceGraphic" in2="effect1_dropShadow_18_2894" result="shape"/>
</filter>
<filter id="filter1_d_18_2894" x="41.9998" y="2.99994" width="73" height="34.4545" filterUnits="userSpaceOnUse" color-interpolation-filters="sRGB">
<feFlood flood-opacity="0" result="BackgroundImageFix"/>
<feColorMatrix in="SourceAlpha" type="matrix" values="0 0 0 0 0 0 0 0 0 0 0 0 0 0 0 0 0 0 127 0" result="hardAlpha"/>
<feOffset/>
<feGaussianBlur stdDeviation="2"/>
<feComposite in2="hardAlpha" operator="out"/>
<feColorMatrix type="matrix" values="0 0 0 0 0 0 0 0 0 0 0 0 0 0 0 0 0 0 0.25 0"/>
<feBlend mode="normal" in2="BackgroundImageFix" result="effect1_dropShadow_18_2894"/>
<feBlend mode="normal" in="SourceGraphic" in2="effect1_dropShadow_18_2894" result="shape"/>
</filter>
<linearGradient id="paint0_linear_18_2894" x1="-0.000243823" y1="6.00747e-05" x2="121" y2="40.0001" gradientUnits="userSpaceOnUse">
<stop stop-color="#08212E"/>
<stop offset="1" stop-color="#29002B"/>
</linearGradient>
<linearGradient id="paint1_linear_18_2894" x1="9.42294" y1="5.69952" x2="38.0321" y2="34.9024" gradientUnits="userSpaceOnUse">
<stop offset="0.15" stop-color="#25B8FF"/>
<stop offset="0.85" stop-color="#FA02FF"/>
</linearGradient>
<linearGradient id="paint2_linear_18_2894" x1="9.42294" y1="5.69948" x2="38.0321" y2="34.9023" gradientUnits="userSpaceOnUse">
<stop offset="0.15" stop-color="#25B8FF"/>
<stop offset="0.85" stop-color="#FA02FF"/>
</linearGradient>
<linearGradient id="paint3_linear_18_2894" x1="9.42297" y1="5.69948" x2="38.0322" y2="34.9023" gradientUnits="userSpaceOnUse">
<stop offset="0.15" stop-color="#25B8FF"/>
<stop offset="0.85" stop-color="#FA02FF"/>
</linearGradient>
<linearGradient id="paint4_linear_18_2894" x1="9.42296" y1="5.69952" x2="38.0322" y2="34.9024" gradientUnits="userSpaceOnUse">
<stop offset="0.15" stop-color="#25B8FF"/>
<stop offset="0.85" stop-color="#FA02FF"/>
</linearGradient>
<linearGradient id="paint5_linear_18_2894" x1="9.423" y1="5.69948" x2="38.0322" y2="34.9023" gradientUnits="userSpaceOnUse">
<stop offset="0.15" stop-color="#25B8FF"/>
<stop offset="0.85" stop-color="#FA02FF"/>
</linearGradient>
<linearGradient id="paint6_linear_18_2894" x1="9.42298" y1="5.69952" x2="38.0322" y2="34.9024" gradientUnits="userSpaceOnUse">
<stop offset="0.15" stop-color="#25B8FF"/>
<stop offset="0.85" stop-color="#FA02FF"/>
</linearGradient>
<linearGradient id="paint7_linear_18_2894" x1="9.42288" y1="5.69948" x2="38.0321" y2="34.9023" gradientUnits="userSpaceOnUse">
<stop offset="0.15" stop-color="#25B8FF"/>
<stop offset="0.85" stop-color="#FA02FF"/>
</linearGradient>
<linearGradient id="paint8_linear_18_2894" x1="9.42299" y1="5.69944" x2="38.0322" y2="34.9023" gradientUnits="userSpaceOnUse">
<stop offset="0.15" stop-color="#25B8FF"/>
<stop offset="0.85" stop-color="#FA02FF"/>
</linearGradient>
<linearGradient id="paint9_linear_18_2894" x1="9.42298" y1="5.69942" x2="38.0322" y2="34.9023" gradientUnits="userSpaceOnUse">
<stop offset="0.15" stop-color="#25B8FF"/>
<stop offset="0.85" stop-color="#FA02FF"/>
</linearGradient>
<linearGradient id="paint10_linear_18_2894" x1="9.42296" y1="5.69943" x2="38.0322" y2="34.9023" gradientUnits="userSpaceOnUse">
<stop offset="0.15" stop-color="#25B8FF"/>
<stop offset="0.85" stop-color="#FA02FF"/>
</linearGradient>
<linearGradient id="paint11_linear_18_2894" x1="9.42295" y1="5.69951" x2="38.0321" y2="34.9024" gradientUnits="userSpaceOnUse">
<stop offset="0.15" stop-color="#25B8FF"/>
<stop offset="0.85" stop-color="#FA02FF"/>
</linearGradient>
<linearGradient id="paint12_linear_18_2894" x1="9.42297" y1="5.69951" x2="38.0322" y2="34.9024" gradientUnits="userSpaceOnUse">
<stop offset="0.15" stop-color="#25B8FF"/>
<stop offset="0.85" stop-color="#FA02FF"/>
</linearGradient>
<linearGradient id="paint13_linear_18_2894" x1="45.9998" y1="20.0001" x2="86.9998" y2="20.0001" gradientUnits="userSpaceOnUse">
<stop stop-color="#93DAFF"/>
<stop offset="1" stop-color="#FC80FF"/>
</linearGradient>
</defs>
</svg>
