<svg width="121" height="40" viewBox="0 0 121 40" fill="none" xmlns="http://www.w3.org/2000/svg">
<g clip-path="url(#clip0_18_2854)">
<rect x="-0.000244141" y="-4.57764e-05" width="121" height="40" rx="6" fill="url(#paint0_linear_18_2854)"/>
<g filter="url(#filter0_d_18_2854)">
<path d="M17.7848 9.87545C17.7849 10.0066 17.8371 10.1324 17.9298 10.2252C18.0226 10.3179 18.1484 10.3701 18.2796 10.3702H19.121V12.2509H18.2796C18.1483 12.2509 18.0225 12.3031 17.9297 12.3959C17.8369 12.4887 17.7848 12.6145 17.7848 12.7457C17.7848 12.877 17.8369 13.0028 17.9297 13.0956C18.0225 13.1884 18.1483 13.2405 18.2796 13.2405H19.121V14.6828C19.121 14.7991 19.0748 14.9106 18.9926 14.9928C18.9103 15.075 18.7988 15.1212 18.6826 15.1212H17.2403V14.2798C17.2403 14.1486 17.1881 14.0228 17.0954 13.93C17.0026 13.8372 16.8767 13.785 16.7455 13.785C16.6143 13.785 16.4884 13.8372 16.3956 13.93C16.3028 14.0228 16.2507 14.1486 16.2507 14.2798V15.1212H14.37V14.2798C14.37 14.1486 14.3179 14.0228 14.2251 13.93C14.1323 13.8372 14.0065 13.785 13.8752 13.785C13.744 13.785 13.6181 13.8372 13.5254 13.93C13.4326 14.0228 13.3804 14.1486 13.3804 14.2798V15.1212H11.9381C11.8219 15.1211 11.7105 15.0749 11.6283 14.9927C11.5461 14.9105 11.4999 14.7991 11.4998 14.6828V7.93834C11.4998 7.82207 11.5459 7.71057 11.6282 7.62835C11.7104 7.54614 11.8219 7.49995 11.9381 7.49995H18.6826C18.7402 7.49989 18.7972 7.51119 18.8504 7.5332C18.9036 7.5552 18.952 7.58749 18.9927 7.62821C19.0334 7.66893 19.0657 7.71729 19.0877 7.7705C19.1097 7.82372 19.121 7.88075 19.121 7.93834V9.38018H18.2796C18.1483 9.3803 18.0225 9.43254 17.9297 9.52541C17.8369 9.61827 17.7848 9.74418 17.7848 9.87545Z" fill="#9722FF"/>
<path d="M26.3946 9.87545C26.3946 10.0067 26.4467 10.1325 26.5395 10.2253C26.6323 10.3181 26.7581 10.3702 26.8893 10.3702H27.7331V12.2509H26.8917C26.7605 12.2509 26.6347 12.3031 26.5419 12.3959C26.4491 12.4887 26.3969 12.6145 26.3969 12.7457C26.3969 12.877 26.4491 13.0028 26.5419 13.0956C26.6347 13.1884 26.7605 13.2405 26.8917 13.2405H27.7331V14.6828C27.733 14.7991 27.6868 14.9105 27.6046 14.9927C27.5224 15.0749 27.411 15.1211 27.2947 15.1212H20.5493C20.4331 15.1212 20.3216 15.075 20.2394 14.9928C20.1571 14.9106 20.111 14.7991 20.111 14.6828V13.2405H20.9519C21.0831 13.2405 21.2089 13.1884 21.3017 13.0956C21.3945 13.0028 21.4467 12.877 21.4467 12.7457C21.4467 12.6145 21.3945 12.4887 21.3017 12.3959C21.2089 12.3031 21.0831 12.2509 20.9519 12.2509H20.111V10.3702H20.9519C21.0182 10.3723 21.0842 10.361 21.1461 10.3371C21.2079 10.3131 21.2643 10.277 21.312 10.2308C21.3596 10.1846 21.3975 10.1294 21.4233 10.0683C21.4492 10.0072 21.4625 9.94154 21.4625 9.87521C21.4625 9.80887 21.4492 9.74322 21.4233 9.68213C21.3975 9.62104 21.3596 9.56577 21.312 9.5196C21.2643 9.47343 21.2079 9.4373 21.1461 9.41335C21.0842 9.38939 21.0182 9.37811 20.9519 9.38018H20.111V7.93834C20.1109 7.88075 20.1222 7.82372 20.1442 7.7705C20.1662 7.71729 20.1985 7.66893 20.2392 7.62821C20.2799 7.58749 20.3283 7.5552 20.3815 7.5332C20.4347 7.51119 20.4918 7.49989 20.5493 7.49995H27.2938C27.41 7.49995 27.5216 7.54614 27.6038 7.62835C27.686 7.71057 27.7322 7.82207 27.7322 7.93834V9.38018H26.8908C26.8256 9.37999 26.7611 9.39266 26.7009 9.41747C26.6407 9.44228 26.5859 9.47874 26.5398 9.52476C26.4937 9.57077 26.4571 9.62544 26.4322 9.68562C26.4073 9.7458 26.3945 9.81031 26.3946 9.87545Z" fill="#DC29DD"/>
<path d="M36.343 7.93834V14.6828C36.343 14.7991 36.2968 14.9106 36.2146 14.9928C36.1324 15.075 36.0209 15.1212 35.9046 15.1212H34.4623V14.2798C34.4623 14.1486 34.4102 14.0228 34.3174 13.93C34.2246 13.8372 34.0988 13.785 33.9675 13.785C33.8363 13.785 33.7105 13.8372 33.6177 13.93C33.5249 14.0228 33.4727 14.1486 33.4727 14.2798V15.1212H31.5921V14.2798C31.5921 14.1486 31.5399 14.0228 31.4471 13.93C31.3543 13.8372 31.2285 13.785 31.0973 13.785C30.966 13.785 30.8402 13.8372 30.7474 13.93C30.6546 14.0228 30.6025 14.1486 30.6025 14.2798V15.1212H29.1602C29.044 15.1211 28.9325 15.0749 28.8503 14.9927C28.7682 14.9105 28.7219 14.7991 28.7218 14.6828V13.2405H29.5632C29.6944 13.2405 29.8203 13.1884 29.9131 13.0956C30.0058 13.0028 30.058 12.877 30.058 12.7457C30.058 12.6145 30.0058 12.4887 29.9131 12.3959C29.8203 12.3031 29.6944 12.2509 29.5632 12.2509H28.7218V10.3702H29.5632C29.6918 10.3662 29.8138 10.3123 29.9034 10.2199C29.993 10.1275 30.0431 10.0039 30.0431 9.87521C30.0431 9.74652 29.993 9.62288 29.9034 9.53048C29.8138 9.43808 29.6918 9.38417 29.5632 9.38018H28.7218V7.93834C28.7218 7.82207 28.768 7.71057 28.8502 7.62835C28.9324 7.54614 29.0439 7.49995 29.1602 7.49995H35.9046C35.9622 7.49989 36.0192 7.51119 36.0725 7.5332C36.1257 7.5552 36.174 7.58749 36.2147 7.62821C36.2555 7.66893 36.2878 7.71729 36.3098 7.7705C36.3318 7.82372 36.3431 7.88075 36.343 7.93834Z" fill="#27A2FD"/>
<path d="M19.121 16.5492V23.2937C19.121 23.3513 19.1097 23.4083 19.0877 23.4616C19.0657 23.5148 19.0334 23.5631 18.9927 23.6038C18.952 23.6446 18.9036 23.6769 18.8504 23.6989C18.7972 23.7209 18.7402 23.7322 18.6826 23.7321H17.2403V22.8907C17.2403 22.7595 17.1881 22.6336 17.0954 22.5408C17.0026 22.448 16.8767 22.3959 16.7455 22.3959C16.6143 22.3959 16.4884 22.448 16.3956 22.5408C16.3028 22.6336 16.2507 22.7595 16.2507 22.8907V23.7331H14.37V22.8917C14.37 22.7604 14.3179 22.6346 14.2251 22.5418C14.1323 22.449 14.0065 22.3969 13.8752 22.3969C13.744 22.3969 13.6181 22.449 13.5254 22.5418C13.4326 22.6346 13.3804 22.7604 13.3804 22.8917V23.7331H11.9381C11.8219 23.7331 11.7104 23.6869 11.6282 23.6047C11.5459 23.5224 11.4998 23.4109 11.4998 23.2947V16.5492C11.4999 16.433 11.5461 16.3215 11.6283 16.2394C11.7105 16.1572 11.8219 16.111 11.9381 16.1108H13.3804V16.9522C13.3804 17.0834 13.4326 17.2093 13.5254 17.3021C13.6181 17.3949 13.744 17.447 13.8752 17.447C14.0065 17.447 14.1323 17.3949 14.2251 17.3021C14.3179 17.2093 14.37 17.0834 14.37 16.9522V16.1108H16.2507V16.9522C16.2507 17.0834 16.3028 17.2093 16.3956 17.3021C16.4884 17.3949 16.6143 17.447 16.7455 17.447C16.8767 17.447 17.0026 17.3949 17.0954 17.3021C17.1881 17.2093 17.2403 17.0834 17.2403 16.9522V16.1108H18.6826C18.7401 16.1108 18.7971 16.1222 18.8503 16.1442C18.9035 16.1662 18.9518 16.1985 18.9926 16.2392C19.0333 16.2799 19.0656 16.3283 19.0876 16.3814C19.1096 16.4346 19.121 16.4916 19.121 16.5492Z" fill="#DC29DD"/>
<path d="M26.3946 18.4863C26.3946 18.6175 26.4467 18.7434 26.5395 18.8362C26.6323 18.929 26.7581 18.9811 26.8893 18.9811H27.7331V20.8618H26.8917C26.7605 20.8618 26.6347 20.9139 26.5419 21.0067C26.4491 21.0995 26.3969 21.2254 26.3969 21.3566C26.3969 21.4878 26.4491 21.6137 26.5419 21.7065C26.6347 21.7993 26.7605 21.8514 26.8917 21.8514H27.7331V23.2937C27.7331 23.41 27.6869 23.5215 27.6047 23.6037C27.5225 23.6859 27.411 23.7321 27.2947 23.7321H25.8515V22.8907C25.8515 22.7595 25.7994 22.6336 25.7066 22.5408C25.6138 22.448 25.4879 22.3959 25.3567 22.3959C25.2255 22.3959 25.0996 22.448 25.0068 22.5408C24.914 22.6336 24.8619 22.7595 24.8619 22.8907V23.7331H22.9812V22.8917C22.9772 22.763 22.9233 22.641 22.8309 22.5514C22.7385 22.4619 22.6149 22.4118 22.4862 22.4118C22.3575 22.4118 22.2339 22.4619 22.1415 22.5514C22.0491 22.641 21.9952 22.763 21.9912 22.8917V23.7331H20.5493C20.4918 23.7331 20.4347 23.7218 20.3815 23.6998C20.3283 23.6778 20.2799 23.6455 20.2392 23.6048C20.1985 23.5641 20.1662 23.5157 20.1442 23.4625C20.1222 23.4093 20.1109 23.3523 20.111 23.2947V16.5492C20.111 16.4329 20.1571 16.3214 20.2394 16.2392C20.3216 16.157 20.4331 16.1108 20.5493 16.1108H27.2938C27.41 16.111 27.5214 16.1572 27.6036 16.2394C27.6858 16.3215 27.732 16.433 27.7322 16.5492V17.9915H26.8908C26.8257 17.9913 26.7612 18.004 26.701 18.0288C26.6408 18.0536 26.5861 18.09 26.54 18.1359C26.4939 18.1819 26.4573 18.2365 26.4324 18.2966C26.4074 18.3568 26.3946 18.4212 26.3946 18.4863Z" fill="#27A2FD"/>
<path d="M36.343 16.5492V23.2937C36.3431 23.3513 36.3318 23.4083 36.3098 23.4616C36.2878 23.5148 36.2555 23.5631 36.2147 23.6038C36.174 23.6446 36.1257 23.6769 36.0725 23.6989C36.0192 23.7209 35.9622 23.7322 35.9046 23.7321H29.1602C29.0439 23.7321 28.9324 23.6859 28.8502 23.6037C28.768 23.5215 28.7218 23.41 28.7218 23.2937V21.8514H29.5632C29.6944 21.8514 29.8203 21.7993 29.9131 21.7065C30.0058 21.6137 30.058 21.4878 30.058 21.3566C30.058 21.2254 30.0058 21.0995 29.9131 21.0067C29.8203 20.9139 29.6944 20.8618 29.5632 20.8618H28.7218V18.9811H29.5632C29.6944 18.9811 29.8203 18.929 29.9131 18.8362C30.0058 18.7434 30.058 18.6175 30.058 18.4863C30.058 18.3551 30.0058 18.2292 29.9131 18.1364C29.8203 18.0437 29.6944 17.9915 29.5632 17.9915H28.7218V16.5492C28.7219 16.433 28.7682 16.3216 28.8503 16.2394C28.9325 16.1572 29.044 16.111 29.1602 16.1108H30.6015V16.9522C30.6015 17.0834 30.6537 17.2093 30.7464 17.3021C30.8392 17.3949 30.9651 17.447 31.0963 17.447C31.2275 17.447 31.3534 17.3949 31.4462 17.3021C31.539 17.2093 31.5911 17.0834 31.5911 16.9522V16.1108H33.4718V16.9522C33.4718 17.0834 33.5239 17.2093 33.6167 17.3021C33.7095 17.3949 33.8353 17.447 33.9666 17.447C34.0978 17.447 34.2237 17.3949 34.3164 17.3021C34.4092 17.2093 34.4614 17.0834 34.4614 16.9522V16.1108H35.9037C35.9613 16.1107 36.0184 16.1219 36.0717 16.1439C36.125 16.1659 36.1735 16.1982 36.2143 16.2389C36.2551 16.2796 36.2874 16.328 36.3095 16.3812C36.3316 16.4345 36.343 16.4916 36.343 16.5492Z" fill="#3344FF"/>
<path d="M17.7848 27.0977C17.7849 27.2289 17.8371 27.3546 17.9298 27.4474C18.0226 27.5402 18.1484 27.5923 18.2796 27.5925H19.121V29.4727H18.2796C18.1509 29.4767 18.0289 29.5306 17.9394 29.623C17.8498 29.7154 17.7997 29.839 17.7997 29.9677C17.7997 30.0964 17.8498 30.22 17.9394 30.3124C18.0289 30.4048 18.1509 30.4587 18.2796 30.4627H19.121V31.9051C19.121 32.0213 19.0748 32.1328 18.9926 32.215C18.9103 32.2973 18.7988 32.3434 18.6826 32.3434H11.9381C11.8219 32.3433 11.7105 32.2971 11.6283 32.2149C11.5461 32.1327 11.4999 32.0213 11.4998 31.9051V25.1606C11.4998 25.0443 11.5459 24.9328 11.6282 24.8506C11.7104 24.7684 11.8219 24.7222 11.9381 24.7222H13.3804V25.5631C13.3804 25.6943 13.4326 25.8202 13.5254 25.913C13.6181 26.0057 13.744 26.0579 13.8752 26.0579C14.0065 26.0579 14.1323 26.0057 14.2251 25.913C14.3179 25.8202 14.37 25.6943 14.37 25.5631V24.7222H16.2507V25.5631C16.2507 25.6943 16.3028 25.8202 16.3956 25.913C16.4884 26.0057 16.6143 26.0579 16.7455 26.0579C16.8767 26.0579 17.0026 26.0057 17.0954 25.913C17.1881 25.8202 17.2403 25.6943 17.2403 25.5631V24.7222H18.6826C18.7402 24.7221 18.7972 24.7334 18.8504 24.7554C18.9036 24.7774 18.952 24.8097 18.9927 24.8504C19.0334 24.8911 19.0657 24.9395 19.0877 24.9927C19.1097 25.0459 19.121 25.103 19.121 25.1606V26.6014H18.2796C18.2145 26.6015 18.1501 26.6144 18.09 26.6394C18.0299 26.6643 17.9753 26.7009 17.9293 26.747C17.8834 26.7931 17.847 26.8478 17.8222 26.9079C17.7974 26.9681 17.7847 27.0326 17.7848 27.0977Z" fill="#9722FF"/>
<path d="M27.7331 25.1606V31.9051C27.733 32.0213 27.6868 32.1327 27.6046 32.2149C27.5224 32.2971 27.411 32.3433 27.2947 32.3434H20.5493C20.4331 32.3434 20.3216 32.2973 20.2394 32.215C20.1571 32.1328 20.111 32.0213 20.111 31.9051V30.4627H20.9519C21.0182 30.4648 21.0842 30.4535 21.1461 30.4296C21.2079 30.4056 21.2643 30.3695 21.312 30.3233C21.3596 30.2771 21.3975 30.2219 21.4233 30.1608C21.4492 30.0997 21.4625 30.034 21.4625 29.9677C21.4625 29.9014 21.4492 29.8357 21.4233 29.7746C21.3975 29.7135 21.3596 29.6583 21.312 29.6121C21.2643 29.5659 21.2079 29.5298 21.1461 29.5058C21.0842 29.4819 21.0182 29.4706 20.9519 29.4727H20.111V27.5925H20.9519C21.0182 27.5945 21.0842 27.5832 21.1461 27.5593C21.2079 27.5353 21.2643 27.4992 21.312 27.453C21.3596 27.4069 21.3975 27.3516 21.4233 27.2905C21.4492 27.2294 21.4625 27.1638 21.4625 27.0974C21.4625 27.0311 21.4492 26.9654 21.4233 26.9043C21.3975 26.8433 21.3596 26.788 21.312 26.7418C21.2643 26.6956 21.2079 26.6595 21.1461 26.6356C21.0842 26.6116 21.0182 26.6003 20.9519 26.6024H20.111V25.1606C20.1109 25.103 20.1222 25.0459 20.1442 24.9927C20.1662 24.9395 20.1985 24.8911 20.2392 24.8504C20.2799 24.8097 20.3283 24.7774 20.3815 24.7554C20.4347 24.7334 20.4918 24.7221 20.5493 24.7222H21.9912V25.5631C21.9891 25.6294 22.0004 25.6954 22.0243 25.7573C22.0483 25.8191 22.0844 25.8756 22.1306 25.9232C22.1768 25.9708 22.232 26.0087 22.2931 26.0346C22.3542 26.0604 22.4199 26.0737 22.4862 26.0737C22.5525 26.0737 22.6182 26.0604 22.6793 26.0346C22.7404 26.0087 22.7956 25.9708 22.8418 25.9232C22.888 25.8756 22.9241 25.8191 22.9481 25.7573C22.972 25.6954 22.9833 25.6294 22.9812 25.5631V24.7222H24.8619V25.5631C24.8619 25.6281 24.8747 25.6924 24.8996 25.7524C24.9244 25.8125 24.9609 25.867 25.0068 25.913C25.0528 25.9589 25.1073 25.9953 25.1673 26.0202C25.2274 26.0451 25.2917 26.0579 25.3567 26.0579C25.4217 26.0579 25.486 26.0451 25.546 26.0202C25.6061 25.9953 25.6606 25.9589 25.7066 25.913C25.7525 25.867 25.789 25.8125 25.8138 25.7524C25.8387 25.6924 25.8515 25.6281 25.8515 25.5631V24.7222H27.2938C27.3514 24.722 27.4085 24.7333 27.4618 24.7553C27.5151 24.7772 27.5636 24.8095 27.6044 24.8502C27.6452 24.891 27.6776 24.9393 27.6997 24.9926C27.7217 25.0458 27.7331 25.1029 27.7331 25.1606Z" fill="#3344FF"/>
<path d="M33.8007 25.0318L29.0317 29.8009C28.8605 29.9721 28.8605 30.2497 29.0317 30.4209L33.8007 35.19C33.9719 35.3612 34.2495 35.3612 34.4207 35.19L39.1897 30.4209C39.3609 30.2497 39.3609 29.9721 39.1897 29.8009L34.4207 25.0318C34.2495 24.8606 33.9719 24.8606 33.8007 25.0318Z" fill="#9722FF"/>
</g>
<g filter="url(#filter1_d_18_2854)">
<path d="M47.5544 18H46.2732L49.1521 9.99995H50.5466L53.4255 18H52.1443L49.8826 11.4531H49.8201L47.5544 18ZM47.7693 14.8671H51.9255V15.8828H47.7693V14.8671ZM58.8679 12L56.6921 18H55.4421L53.2624 12H54.5164L56.0359 16.6171H56.0984L57.614 12H58.8679ZM61.5398 18.1328C61.1596 18.1328 60.8158 18.0625 60.5085 17.9218C60.2012 17.7786 59.9578 17.5716 59.7781 17.3007C59.601 17.0299 59.5124 16.6979 59.5124 16.3046C59.5124 15.9661 59.5776 15.6875 59.7078 15.4687C59.838 15.25 60.0137 15.0768 60.2351 14.9492C60.4565 14.8216 60.7039 14.7252 60.9773 14.6601C61.2507 14.595 61.5294 14.5455 61.8132 14.5117C62.1726 14.47 62.4643 14.4361 62.6882 14.4101C62.9122 14.3815 63.0749 14.3359 63.1765 14.2734C63.2781 14.2109 63.3289 14.1093 63.3289 13.9687V13.9414C63.3289 13.6002 63.2325 13.3359 63.0398 13.1484C62.8497 12.9609 62.5658 12.8671 62.1882 12.8671C61.795 12.8671 61.4851 12.9544 61.2585 13.1289C61.0346 13.3007 60.8796 13.4921 60.7937 13.7031L59.696 13.4531C59.8262 13.0885 60.0164 12.7942 60.2664 12.5703C60.519 12.3437 60.8093 12.1796 61.1374 12.0781C61.4656 11.9739 61.8106 11.9218 62.1726 11.9218C62.4122 11.9218 62.6661 11.9505 62.9343 12.0078C63.2052 12.0625 63.4578 12.164 63.6921 12.3125C63.9291 12.4609 64.1231 12.6731 64.2742 12.9492C64.4252 13.2226 64.5007 13.5781 64.5007 14.0156V18H63.3601V17.1796H63.3132C63.2377 17.3307 63.1244 17.4791 62.9734 17.625C62.8223 17.7708 62.6283 17.8919 62.3914 17.9882C62.1544 18.0846 61.8705 18.1328 61.5398 18.1328ZM61.7937 17.1953C62.1166 17.1953 62.3927 17.1315 62.6218 17.0039C62.8536 16.8763 63.0294 16.7096 63.1492 16.5039C63.2716 16.2955 63.3328 16.0729 63.3328 15.8359V15.0625C63.2911 15.1041 63.2104 15.1432 63.0906 15.1796C62.9734 15.2135 62.8393 15.2434 62.6882 15.2695C62.5372 15.2929 62.3901 15.3151 62.2468 15.3359C62.1036 15.3541 61.9838 15.3697 61.8874 15.3828C61.6609 15.4114 61.4539 15.4596 61.2664 15.5273C61.0815 15.595 60.933 15.6927 60.821 15.8203C60.7117 15.9453 60.657 16.1119 60.657 16.3203C60.657 16.6093 60.7637 16.8281 60.9773 16.9765C61.1908 17.1223 61.463 17.1953 61.7937 17.1953ZM66.0564 18V12H67.2244V18H66.0564ZM66.6462 11.0742C66.4431 11.0742 66.2686 11.0065 66.1228 10.871C65.9796 10.733 65.908 10.569 65.908 10.3789C65.908 10.1862 65.9796 10.0221 66.1228 9.88667C66.2686 9.74865 66.4431 9.67964 66.6462 9.67964C66.8494 9.67964 67.0225 9.74865 67.1658 9.88667C67.3116 10.0221 67.3845 10.1862 67.3845 10.3789C67.3845 10.569 67.3116 10.733 67.1658 10.871C67.0225 11.0065 66.8494 11.0742 66.6462 11.0742ZM69.9636 9.99995V18H68.7956V9.99995H69.9636ZM73.281 18.1328C72.9008 18.1328 72.557 18.0625 72.2497 17.9218C71.9425 17.7786 71.699 17.5716 71.5193 17.3007C71.3422 17.0299 71.2537 16.6979 71.2537 16.3046C71.2537 15.9661 71.3188 15.6875 71.449 15.4687C71.5792 15.25 71.755 15.0768 71.9763 14.9492C72.1977 14.8216 72.4451 14.7252 72.7185 14.6601C72.9919 14.595 73.2706 14.5455 73.5544 14.5117C73.9138 14.47 74.2055 14.4361 74.4294 14.4101C74.6534 14.3815 74.8162 14.3359 74.9177 14.2734C75.0193 14.2109 75.0701 14.1093 75.0701 13.9687V13.9414C75.0701 13.6002 74.9737 13.3359 74.781 13.1484C74.5909 12.9609 74.307 12.8671 73.9294 12.8671C73.5362 12.8671 73.2263 12.9544 72.9997 13.1289C72.7758 13.3007 72.6208 13.4921 72.5349 13.7031L71.4372 13.4531C71.5675 13.0885 71.7576 12.7942 72.0076 12.5703C72.2602 12.3437 72.5505 12.1796 72.8787 12.0781C73.2068 11.9739 73.5518 11.9218 73.9138 11.9218C74.1534 11.9218 74.4073 11.9505 74.6755 12.0078C74.9464 12.0625 75.199 12.164 75.4333 12.3125C75.6703 12.4609 75.8643 12.6731 76.0154 12.9492C76.1664 13.2226 76.2419 13.5781 76.2419 14.0156V18H75.1013V17.1796H75.0544C74.9789 17.3307 74.8656 17.4791 74.7146 17.625C74.5635 17.7708 74.3695 17.8919 74.1326 17.9882C73.8956 18.0846 73.6117 18.1328 73.281 18.1328ZM73.5349 17.1953C73.8578 17.1953 74.1339 17.1315 74.363 17.0039C74.5948 16.8763 74.7706 16.7096 74.8904 16.5039C75.0128 16.2955 75.074 16.0729 75.074 15.8359V15.0625C75.0323 15.1041 74.9516 15.1432 74.8318 15.1796C74.7146 15.2135 74.5805 15.2434 74.4294 15.2695C74.2784 15.2929 74.1313 15.3151 73.988 15.3359C73.8448 15.3541 73.725 15.3697 73.6287 15.3828C73.4021 15.4114 73.1951 15.4596 73.0076 15.5273C72.8227 15.595 72.6742 15.6927 72.5622 15.8203C72.4529 15.9453 72.3982 16.1119 72.3982 16.3203C72.3982 16.6093 72.505 16.8281 72.7185 16.9765C72.932 17.1223 73.2042 17.1953 73.5349 17.1953ZM77.8913 18V9.99995H79.0593V12.9726H79.1296C79.1973 12.8476 79.295 12.7031 79.4226 12.539C79.5502 12.375 79.7273 12.2317 79.9538 12.1093C80.1804 11.9843 80.4799 11.9218 80.8523 11.9218C81.3367 11.9218 81.769 12.0442 82.1492 12.289C82.5294 12.5338 82.8275 12.8867 83.0437 13.3476C83.2624 13.8085 83.3718 14.3632 83.3718 15.0117C83.3718 15.6601 83.2637 16.2161 83.0476 16.6796C82.8315 17.1406 82.5346 17.496 82.157 17.746C81.7794 17.9934 81.3484 18.1171 80.864 18.1171C80.4994 18.1171 80.2012 18.0559 79.9695 17.9335C79.7403 17.8111 79.5606 17.6679 79.4304 17.5039C79.3002 17.3398 79.1999 17.194 79.1296 17.0664H79.032V18H77.8913ZM79.0359 15C79.0359 15.4218 79.0971 15.7916 79.2195 16.1093C79.3419 16.427 79.519 16.6757 79.7507 16.8554C79.9825 17.0325 80.2663 17.121 80.6023 17.121C80.9512 17.121 81.2429 17.0286 81.4773 16.8437C81.7117 16.6562 81.8887 16.4023 82.0085 16.082C82.1309 15.7617 82.1921 15.401 82.1921 15C82.1921 14.6041 82.1322 14.2486 82.0124 13.9335C81.8953 13.6184 81.7182 13.3697 81.4812 13.1875C81.2468 13.0052 80.9538 12.914 80.6023 12.914C80.2637 12.914 79.9773 13.0013 79.7429 13.1757C79.5111 13.3502 79.3354 13.5937 79.2156 13.9062C79.0958 14.2187 79.0359 14.5833 79.0359 15ZM85.8513 9.99995V18H84.6833V9.99995H85.8513ZM90.0085 18.121C89.4174 18.121 88.9083 17.9947 88.4812 17.7421C88.0567 17.4869 87.7286 17.1289 87.4968 16.6679C87.2676 16.2044 87.1531 15.6614 87.1531 15.039C87.1531 14.4244 87.2676 13.8828 87.4968 13.414C87.7286 12.9453 88.0515 12.5794 88.4656 12.3164C88.8822 12.0533 89.3692 11.9218 89.9265 11.9218C90.265 11.9218 90.5932 11.9778 90.9109 12.0898C91.2286 12.2018 91.5137 12.3776 91.7663 12.6171C92.0189 12.8567 92.2182 13.1679 92.364 13.5507C92.5098 13.9309 92.5828 14.3932 92.5828 14.9375V15.3515H87.8132V14.4765H91.4382C91.4382 14.1692 91.3757 13.8971 91.2507 13.6601C91.1257 13.4205 90.9499 13.2317 90.7234 13.0937C90.4994 12.9557 90.2364 12.8867 89.9343 12.8867C89.6062 12.8867 89.3197 12.9674 89.0749 13.1289C88.8328 13.2877 88.6453 13.496 88.5124 13.7539C88.3822 14.0091 88.3171 14.2864 88.3171 14.5859V15.2695C88.3171 15.6705 88.3874 16.0117 88.5281 16.2929C88.6713 16.5742 88.8705 16.789 89.1257 16.9375C89.3809 17.0833 89.6791 17.1562 90.0203 17.1562C90.2416 17.1562 90.4434 17.125 90.6257 17.0625C90.808 16.9973 90.9656 16.901 91.0984 16.7734C91.2312 16.6458 91.3328 16.4882 91.4031 16.3007L92.5085 16.5C92.42 16.8255 92.2611 17.1106 92.032 17.3554C91.8054 17.5976 91.5203 17.7864 91.1765 17.9218C90.8354 18.0546 90.446 18.121 90.0085 18.121ZM99.6452 12V12.9375H96.2546V12H99.6452ZM97.1843 18V11.3046C97.1843 10.9296 97.2663 10.6184 97.4304 10.371C97.5945 10.121 97.8119 9.93485 98.0827 9.81245C98.3536 9.68745 98.6479 9.62495 98.9656 9.62495C99.1999 9.62495 99.4005 9.64448 99.5671 9.68355C99.7338 9.72001 99.8575 9.75386 99.9382 9.78511L99.6648 10.7304C99.6101 10.7148 99.5398 10.6966 99.4538 10.6757C99.3679 10.6523 99.2637 10.6406 99.1413 10.6406C98.8575 10.6406 98.6544 10.7109 98.532 10.8515C98.4122 10.9921 98.3523 11.1953 98.3523 11.4609V18H97.1843ZM103.141 18.121C102.579 18.121 102.088 17.9921 101.669 17.7343C101.249 17.4765 100.924 17.1158 100.692 16.6523C100.46 16.1888 100.344 15.6471 100.344 15.0273C100.344 14.4049 100.46 13.8606 100.692 13.3945C100.924 12.9283 101.249 12.5664 101.669 12.3085C102.088 12.0507 102.579 11.9218 103.141 11.9218C103.704 11.9218 104.195 12.0507 104.614 12.3085C105.033 12.5664 105.359 12.9283 105.591 13.3945C105.822 13.8606 105.938 14.4049 105.938 15.0273C105.938 15.6471 105.822 16.1888 105.591 16.6523C105.359 17.1158 105.033 17.4765 104.614 17.7343C104.195 17.9921 103.704 18.121 103.141 18.121ZM103.145 17.1406C103.51 17.1406 103.812 17.0442 104.051 16.8515C104.291 16.6588 104.468 16.4023 104.583 16.082C104.7 15.7617 104.759 15.4088 104.759 15.0234C104.759 14.6406 104.7 14.289 104.583 13.9687C104.468 13.6458 104.291 13.3867 104.051 13.1914C103.812 12.996 103.51 12.8984 103.145 12.8984C102.778 12.8984 102.473 12.996 102.231 13.1914C101.992 13.3867 101.813 13.6458 101.696 13.9687C101.581 14.289 101.524 14.6406 101.524 15.0234C101.524 15.4088 101.581 15.7617 101.696 16.082C101.813 16.4023 101.992 16.6588 102.231 16.8515C102.473 17.0442 102.778 17.1406 103.145 17.1406ZM107.242 18V12H108.371V12.9531H108.433C108.543 12.6302 108.735 12.3763 109.011 12.1914C109.29 12.0039 109.605 11.9101 109.957 11.9101C110.03 11.9101 110.116 11.9127 110.215 11.9179C110.316 11.9231 110.396 11.9296 110.453 11.9375V13.0546C110.406 13.0416 110.323 13.0273 110.203 13.0117C110.083 12.9934 109.963 12.9843 109.843 12.9843C109.567 12.9843 109.321 13.0429 109.105 13.1601C108.892 13.2747 108.722 13.4348 108.597 13.6406C108.472 13.8437 108.41 14.0755 108.41 14.3359V18H107.242Z" fill="#E8E8E8"/>
<path d="M49.9969 27.8636H51.7015L52.4259 28.7883L53.3762 29.8792L54.8378 31.6818H52.9287L51.906 30.4588L51.3009 29.5894L49.9969 27.8636ZM54.8975 26.6363C54.8975 27.5965 54.7128 28.4105 54.3435 29.0781C53.9742 29.7457 53.4742 30.2528 52.8435 30.5994C52.2157 30.946 51.5111 31.1193 50.7299 31.1193C49.9458 31.1193 49.2398 30.9446 48.612 30.5951C47.9841 30.2457 47.4856 29.7386 47.1162 29.0738C46.7498 28.4062 46.5665 27.5937 46.5665 26.6363C46.5665 25.6761 46.7498 24.8622 47.1162 24.1946C47.4856 23.5269 47.9841 23.0198 48.612 22.6732C49.2398 22.3267 49.9458 22.1534 50.7299 22.1534C51.5111 22.1534 52.2157 22.3267 52.8435 22.6732C53.4742 23.0198 53.9742 23.5269 54.3435 24.1946C54.7128 24.8622 54.8975 25.6761 54.8975 26.6363ZM52.7412 26.6363C52.7412 26.0681 52.6603 25.588 52.4983 25.196C52.3392 24.8039 52.1091 24.5071 51.808 24.3054C51.5097 24.1036 51.1503 24.0028 50.7299 24.0028C50.3123 24.0028 49.9529 24.1036 49.6517 24.3054C49.3506 24.5071 49.1191 24.8039 48.9571 25.196C48.7981 25.588 48.7185 26.0681 48.7185 26.6363C48.7185 27.2045 48.7981 27.6846 48.9571 28.0767C49.1191 28.4687 49.3506 28.7656 49.6517 28.9673C49.9529 29.169 50.3123 29.2698 50.7299 29.2698C51.1503 29.2698 51.5097 29.169 51.808 28.9673C52.1091 28.7656 52.3392 28.4687 52.4983 28.0767C52.6603 27.6846 52.7412 27.2045 52.7412 26.6363ZM60.3637 28.1747V24.4545H62.4433V31H60.4575V29.7812H60.3893C60.2444 30.1818 59.9973 30.5 59.6478 30.7357C59.3012 30.9687 58.8822 31.0852 58.3907 31.0852C57.9447 31.0852 57.5527 30.9829 57.2146 30.7784C56.8765 30.5738 56.6137 30.2883 56.4262 29.9218C56.2387 29.5525 56.1436 29.1207 56.1407 28.6264V24.4545H58.2245V28.2173C58.2274 28.5724 58.3211 28.8522 58.5058 29.0568C58.6904 29.2613 58.9419 29.3636 59.2601 29.3636C59.4674 29.3636 59.6535 29.3181 59.8183 29.2272C59.9859 29.1335 60.118 28.9985 60.2146 28.8224C60.314 28.6434 60.3637 28.4275 60.3637 28.1747ZM63.7696 31V24.4545H65.8534V31H63.7696ZM64.8137 23.6917C64.5211 23.6917 64.2696 23.5951 64.0594 23.4019C63.8492 23.2059 63.7441 22.9701 63.7441 22.6946C63.7441 22.4218 63.8492 22.1889 64.0594 21.9957C64.2696 21.7997 64.5211 21.7017 64.8137 21.7017C65.1091 21.7017 65.3605 21.7997 65.5679 21.9957C65.7782 22.1889 65.8833 22.4218 65.8833 22.6946C65.8833 22.9701 65.7782 23.2059 65.5679 23.4019C65.3605 23.5951 65.1091 23.6917 64.8137 23.6917ZM69.2636 22.2727V31H67.1798V22.2727H69.2636ZM74.2845 24.4545V25.9886H70.1553V24.4545H74.2845ZM71.0203 22.8863H73.1042V28.9417C73.1042 29.0696 73.124 29.1732 73.1638 29.2528C73.2064 29.3295 73.2675 29.3849 73.347 29.419C73.4266 29.4502 73.5218 29.4659 73.6326 29.4659C73.7121 29.4659 73.7959 29.4588 73.884 29.4446C73.9749 29.4275 74.0431 29.4133 74.0885 29.4019L74.4039 30.9062C74.3044 30.9346 74.1638 30.9701 73.982 31.0127C73.803 31.0553 73.5885 31.0823 73.3385 31.0937C72.8499 31.1164 72.4309 31.0596 72.0814 30.9232C71.7348 30.784 71.4692 30.5681 71.2845 30.2755C71.1027 29.9829 71.0147 29.615 71.0203 29.1718V22.8863Z" fill="url(#paint1_linear_18_2854)"/>
</g>
</g>
<rect x="0.749756" y="0.749954" width="119.5" height="38.5" rx="5.25" stroke="white" stroke-opacity="0.15" stroke-width="1.5"/>
<defs>
<filter id="filter0_d_18_2854" x="5.99976" y="1.99995" width="37.3184" height="37.3184" filterUnits="userSpaceOnUse" color-interpolation-filters="sRGB">
<feFlood flood-opacity="0" result="BackgroundImageFix"/>
<feColorMatrix in="SourceAlpha" type="matrix" values="0 0 0 0 0 0 0 0 0 0 0 0 0 0 0 0 0 0 127 0" result="hardAlpha"/>
<feOffset/>
<feGaussianBlur stdDeviation="2"/>
<feComposite in2="hardAlpha" operator="out"/>
<feColorMatrix type="matrix" values="0 0 0 0 0 0 0 0 0 0 0 0 0 0 0 0 0 0 0.25 0"/>
<feBlend mode="normal" in2="BackgroundImageFix" result="effect1_dropShadow_18_2854"/>
<feBlend mode="normal" in="SourceGraphic" in2="effect1_dropShadow_18_2854" result="shape"/>
</filter>
<filter id="filter1_d_18_2854" x="41.9998" y="2.99995" width="73" height="34" filterUnits="userSpaceOnUse" color-interpolation-filters="sRGB">
<feFlood flood-opacity="0" result="BackgroundImageFix"/>
<feColorMatrix in="SourceAlpha" type="matrix" values="0 0 0 0 0 0 0 0 0 0 0 0 0 0 0 0 0 0 127 0" result="hardAlpha"/>
<feOffset/>
<feGaussianBlur stdDeviation="2"/>
<feComposite in2="hardAlpha" operator="out"/>
<feColorMatrix type="matrix" values="0 0 0 0 0 0 0 0 0 0 0 0 0 0 0 0 0 0 0.25 0"/>
<feBlend mode="normal" in2="BackgroundImageFix" result="effect1_dropShadow_18_2854"/>
<feBlend mode="normal" in="SourceGraphic" in2="effect1_dropShadow_18_2854" result="shape"/>
</filter>
<linearGradient id="paint0_linear_18_2854" x1="60.4997" y1="-4.57764e-05" x2="60.4997" y2="39.9999" gradientUnits="userSpaceOnUse">
<stop stop-color="#260C26"/>
<stop offset="1" stop-color="#0E1C2C"/>
</linearGradient>
<linearGradient id="paint1_linear_18_2854" x1="45.9998" y1="20" x2="74.9998" y2="20" gradientUnits="userSpaceOnUse">
<stop stop-color="#E17BE1"/>
<stop offset="1" stop-color="#98A1FF"/>
</linearGradient>
<clipPath id="clip0_18_2854">
<rect x="-0.000244141" y="-4.57764e-05" width="121" height="40" rx="6" fill="white"/>
</clipPath>
</defs>
</svg>
