<svg width="121" height="40" viewBox="0 0 121 40" fill="none" xmlns="http://www.w3.org/2000/svg">
<rect x="-0.000244141" y="-6.10352e-05" width="121" height="40" rx="6" fill="url(#paint0_linear_18_2869)"/>
<g filter="url(#filter0_d_18_2869)">
<path d="M23.4998 6.28861C23.8092 6.10998 24.1904 6.10998 24.4998 6.28861L35.6241 12.7113C35.9335 12.8899 36.1241 13.22 36.1241 13.5773V26.4226C36.1241 26.7798 35.9335 27.11 35.6241 27.2886L24.4998 33.7113C24.1904 33.8899 23.8092 33.8899 23.4998 33.7113L12.3754 27.2886C12.066 27.11 11.8754 26.7798 11.8754 26.4226V13.5773C11.8754 13.22 12.066 12.8899 12.3754 12.7113L23.4998 6.28861Z" fill="url(#paint1_linear_18_2869)"/>
</g>
<g filter="url(#filter1_d_18_2869)">
<path d="M47.5544 17.9999H46.2732L49.1521 9.99994H50.5466L53.4255 17.9999H52.1443L49.8826 11.4531H49.8201L47.5544 17.9999ZM47.7693 14.8671H51.9255V15.8827H47.7693V14.8671ZM58.8679 11.9999L56.6921 17.9999H55.4421L53.2624 11.9999H54.5164L56.0359 16.6171H56.0984L57.614 11.9999H58.8679ZM61.5398 18.1327C61.1596 18.1327 60.8158 18.0624 60.5085 17.9218C60.2012 17.7786 59.9578 17.5716 59.7781 17.3007C59.601 17.0299 59.5124 16.6979 59.5124 16.3046C59.5124 15.9661 59.5776 15.6874 59.7078 15.4687C59.838 15.2499 60.0137 15.0768 60.2351 14.9492C60.4565 14.8216 60.7039 14.7252 60.9773 14.6601C61.2507 14.595 61.5294 14.5455 61.8132 14.5117C62.1726 14.47 62.4643 14.4361 62.6882 14.4101C62.9122 14.3814 63.0749 14.3359 63.1765 14.2734C63.2781 14.2109 63.3289 14.1093 63.3289 13.9687V13.9413C63.3289 13.6002 63.2325 13.3359 63.0398 13.1484C62.8497 12.9609 62.5658 12.8671 62.1882 12.8671C61.795 12.8671 61.4851 12.9544 61.2585 13.1288C61.0346 13.3007 60.8796 13.4921 60.7937 13.7031L59.696 13.4531C59.8262 13.0885 60.0164 12.7942 60.2664 12.5702C60.519 12.3437 60.8093 12.1796 61.1374 12.0781C61.4656 11.9739 61.8106 11.9218 62.1726 11.9218C62.4122 11.9218 62.6661 11.9505 62.9343 12.0078C63.2052 12.0624 63.4578 12.164 63.6921 12.3124C63.9291 12.4609 64.1231 12.6731 64.2742 12.9492C64.4252 13.2226 64.5007 13.5781 64.5007 14.0156V17.9999H63.3601V17.1796H63.3132C63.2377 17.3307 63.1244 17.4791 62.9734 17.6249C62.8223 17.7708 62.6283 17.8919 62.3914 17.9882C62.1544 18.0846 61.8705 18.1327 61.5398 18.1327ZM61.7937 17.1952C62.1166 17.1952 62.3927 17.1314 62.6218 17.0038C62.8536 16.8762 63.0294 16.7096 63.1492 16.5038C63.2716 16.2955 63.3328 16.0729 63.3328 15.8359V15.0624C63.2911 15.1041 63.2104 15.1432 63.0906 15.1796C62.9734 15.2135 62.8393 15.2434 62.6882 15.2695C62.5372 15.2929 62.3901 15.315 62.2468 15.3359C62.1036 15.3541 61.9838 15.3697 61.8874 15.3827C61.6609 15.4114 61.4539 15.4596 61.2664 15.5273C61.0815 15.595 60.933 15.6926 60.821 15.8202C60.7117 15.9452 60.657 16.1119 60.657 16.3202C60.657 16.6093 60.7637 16.8281 60.9773 16.9765C61.1908 17.1223 61.463 17.1952 61.7937 17.1952ZM66.0564 17.9999V11.9999H67.2244V17.9999H66.0564ZM66.6462 11.0742C66.4431 11.0742 66.2686 11.0064 66.1228 10.871C65.9796 10.733 65.908 10.5689 65.908 10.3788C65.908 10.1861 65.9796 10.0221 66.1228 9.88666C66.2686 9.74864 66.4431 9.67963 66.6462 9.67963C66.8494 9.67963 67.0225 9.74864 67.1658 9.88666C67.3116 10.0221 67.3845 10.1861 67.3845 10.3788C67.3845 10.5689 67.3116 10.733 67.1658 10.871C67.0225 11.0064 66.8494 11.0742 66.6462 11.0742ZM69.9636 9.99994V17.9999H68.7956V9.99994H69.9636ZM73.281 18.1327C72.9008 18.1327 72.557 18.0624 72.2497 17.9218C71.9425 17.7786 71.699 17.5716 71.5193 17.3007C71.3422 17.0299 71.2537 16.6979 71.2537 16.3046C71.2537 15.9661 71.3188 15.6874 71.449 15.4687C71.5792 15.2499 71.755 15.0768 71.9763 14.9492C72.1977 14.8216 72.4451 14.7252 72.7185 14.6601C72.9919 14.595 73.2706 14.5455 73.5544 14.5117C73.9138 14.47 74.2055 14.4361 74.4294 14.4101C74.6534 14.3814 74.8162 14.3359 74.9177 14.2734C75.0193 14.2109 75.0701 14.1093 75.0701 13.9687V13.9413C75.0701 13.6002 74.9737 13.3359 74.781 13.1484C74.5909 12.9609 74.307 12.8671 73.9294 12.8671C73.5362 12.8671 73.2263 12.9544 72.9997 13.1288C72.7758 13.3007 72.6208 13.4921 72.5349 13.7031L71.4372 13.4531C71.5675 13.0885 71.7576 12.7942 72.0076 12.5702C72.2602 12.3437 72.5505 12.1796 72.8787 12.0781C73.2068 11.9739 73.5518 11.9218 73.9138 11.9218C74.1534 11.9218 74.4073 11.9505 74.6755 12.0078C74.9464 12.0624 75.199 12.164 75.4333 12.3124C75.6703 12.4609 75.8643 12.6731 76.0154 12.9492C76.1664 13.2226 76.2419 13.5781 76.2419 14.0156V17.9999H75.1013V17.1796H75.0544C74.9789 17.3307 74.8656 17.4791 74.7146 17.6249C74.5635 17.7708 74.3695 17.8919 74.1326 17.9882C73.8956 18.0846 73.6117 18.1327 73.281 18.1327ZM73.5349 17.1952C73.8578 17.1952 74.1339 17.1314 74.363 17.0038C74.5948 16.8762 74.7706 16.7096 74.8904 16.5038C75.0128 16.2955 75.074 16.0729 75.074 15.8359V15.0624C75.0323 15.1041 74.9516 15.1432 74.8318 15.1796C74.7146 15.2135 74.5805 15.2434 74.4294 15.2695C74.2784 15.2929 74.1313 15.315 73.988 15.3359C73.8448 15.3541 73.725 15.3697 73.6287 15.3827C73.4021 15.4114 73.1951 15.4596 73.0076 15.5273C72.8227 15.595 72.6742 15.6926 72.5622 15.8202C72.4529 15.9452 72.3982 16.1119 72.3982 16.3202C72.3982 16.6093 72.505 16.8281 72.7185 16.9765C72.932 17.1223 73.2042 17.1952 73.5349 17.1952ZM77.8913 17.9999V9.99994H79.0593V12.9726H79.1296C79.1973 12.8476 79.295 12.7031 79.4226 12.539C79.5502 12.3749 79.7273 12.2317 79.9538 12.1093C80.1804 11.9843 80.4799 11.9218 80.8523 11.9218C81.3367 11.9218 81.769 12.0442 82.1492 12.289C82.5294 12.5338 82.8275 12.8867 83.0437 13.3476C83.2624 13.8085 83.3718 14.3632 83.3718 15.0117C83.3718 15.6601 83.2637 16.2161 83.0476 16.6796C82.8315 17.1406 82.5346 17.496 82.157 17.746C81.7794 17.9934 81.3484 18.1171 80.864 18.1171C80.4994 18.1171 80.2012 18.0559 79.9695 17.9335C79.7403 17.8111 79.5606 17.6679 79.4304 17.5038C79.3002 17.3398 79.1999 17.1939 79.1296 17.0663H79.032V17.9999H77.8913ZM79.0359 14.9999C79.0359 15.4218 79.0971 15.7916 79.2195 16.1093C79.3419 16.427 79.519 16.6757 79.7507 16.8554C79.9825 17.0325 80.2663 17.121 80.6023 17.121C80.9512 17.121 81.2429 17.0286 81.4773 16.8437C81.7117 16.6562 81.8887 16.4023 82.0085 16.082C82.1309 15.7617 82.1921 15.401 82.1921 14.9999C82.1921 14.6041 82.1322 14.2486 82.0124 13.9335C81.8953 13.6184 81.7182 13.3697 81.4812 13.1874C81.2468 13.0051 80.9538 12.914 80.6023 12.914C80.2637 12.914 79.9773 13.0012 79.7429 13.1757C79.5111 13.3502 79.3354 13.5937 79.2156 13.9062C79.0958 14.2187 79.0359 14.5833 79.0359 14.9999ZM85.8513 9.99994V17.9999H84.6833V9.99994H85.8513ZM90.0085 18.121C89.4174 18.121 88.9083 17.9947 88.4812 17.7421C88.0567 17.4869 87.7286 17.1288 87.4968 16.6679C87.2676 16.2044 87.1531 15.6614 87.1531 15.039C87.1531 14.4244 87.2676 13.8827 87.4968 13.414C87.7286 12.9452 88.0515 12.5794 88.4656 12.3163C88.8822 12.0533 89.3692 11.9218 89.9265 11.9218C90.265 11.9218 90.5932 11.9778 90.9109 12.0898C91.2286 12.2018 91.5137 12.3775 91.7663 12.6171C92.0189 12.8567 92.2182 13.1679 92.364 13.5507C92.5098 13.9309 92.5828 14.3932 92.5828 14.9374V15.3515H87.8132V14.4765H91.4382C91.4382 14.1692 91.3757 13.8971 91.2507 13.6601C91.1257 13.4205 90.9499 13.2317 90.7234 13.0937C90.4994 12.9557 90.2364 12.8867 89.9343 12.8867C89.6062 12.8867 89.3197 12.9674 89.0749 13.1288C88.8328 13.2877 88.6453 13.496 88.5124 13.7538C88.3822 14.0091 88.3171 14.2864 88.3171 14.5859V15.2695C88.3171 15.6705 88.3874 16.0117 88.5281 16.2929C88.6713 16.5742 88.8705 16.789 89.1257 16.9374C89.3809 17.0833 89.6791 17.1562 90.0203 17.1562C90.2416 17.1562 90.4434 17.1249 90.6257 17.0624C90.808 16.9973 90.9656 16.901 91.0984 16.7734C91.2312 16.6458 91.3328 16.4882 91.4031 16.3007L92.5085 16.4999C92.42 16.8255 92.2611 17.1106 92.032 17.3554C91.8054 17.5976 91.5203 17.7864 91.1765 17.9218C90.8354 18.0546 90.446 18.121 90.0085 18.121ZM99.6452 11.9999V12.9374H96.2546V11.9999H99.6452ZM97.1843 17.9999V11.3046C97.1843 10.9296 97.2663 10.6184 97.4304 10.371C97.5945 10.121 97.8119 9.93483 98.0827 9.81244C98.3536 9.68744 98.6479 9.62494 98.9656 9.62494C99.1999 9.62494 99.4005 9.64447 99.5671 9.68353C99.7338 9.71999 99.8575 9.75384 99.9382 9.78509L99.6648 10.7304C99.6101 10.7148 99.5398 10.6966 99.4538 10.6757C99.3679 10.6523 99.2637 10.6406 99.1413 10.6406C98.8575 10.6406 98.6544 10.7109 98.532 10.8515C98.4122 10.9921 98.3523 11.1953 98.3523 11.4609V17.9999H97.1843ZM103.141 18.121C102.579 18.121 102.088 17.9921 101.669 17.7343C101.249 17.4765 100.924 17.1158 100.692 16.6523C100.46 16.1887 100.344 15.6471 100.344 15.0273C100.344 14.4049 100.46 13.8606 100.692 13.3945C100.924 12.9283 101.249 12.5663 101.669 12.3085C102.088 12.0507 102.579 11.9218 103.141 11.9218C103.704 11.9218 104.195 12.0507 104.614 12.3085C105.033 12.5663 105.359 12.9283 105.591 13.3945C105.822 13.8606 105.938 14.4049 105.938 15.0273C105.938 15.6471 105.822 16.1887 105.591 16.6523C105.359 17.1158 105.033 17.4765 104.614 17.7343C104.195 17.9921 103.704 18.121 103.141 18.121ZM103.145 17.1406C103.51 17.1406 103.812 17.0442 104.051 16.8515C104.291 16.6588 104.468 16.4023 104.583 16.082C104.7 15.7617 104.759 15.4088 104.759 15.0234C104.759 14.6406 104.7 14.289 104.583 13.9687C104.468 13.6458 104.291 13.3867 104.051 13.1913C103.812 12.996 103.51 12.8984 103.145 12.8984C102.778 12.8984 102.473 12.996 102.231 13.1913C101.992 13.3867 101.813 13.6458 101.696 13.9687C101.581 14.289 101.524 14.6406 101.524 15.0234C101.524 15.4088 101.581 15.7617 101.696 16.082C101.813 16.4023 101.992 16.6588 102.231 16.8515C102.473 17.0442 102.778 17.1406 103.145 17.1406ZM107.242 17.9999V11.9999H108.371V12.9531H108.433C108.543 12.6301 108.735 12.3762 109.011 12.1913C109.29 12.0038 109.605 11.9101 109.957 11.9101C110.03 11.9101 110.116 11.9127 110.215 11.9179C110.316 11.9231 110.396 11.9296 110.453 11.9374V13.0546C110.406 13.0416 110.323 13.0273 110.203 13.0117C110.083 12.9934 109.963 12.9843 109.843 12.9843C109.567 12.9843 109.321 13.0429 109.105 13.1601C108.892 13.2747 108.722 13.4348 108.597 13.6406C108.472 13.8437 108.41 14.0755 108.41 14.3359V17.9999H107.242Z" fill="#E8E8E8"/>
<path d="M46.6603 30.9999V22.2727H50.2654C50.9188 22.2727 51.4827 22.3906 51.9571 22.6264C52.4344 22.8593 52.8023 23.1945 53.0608 23.632C53.3194 24.0667 53.4486 24.5823 53.4486 25.1789C53.4486 25.784 53.3165 26.2982 53.0523 26.7215C52.7881 27.142 52.4131 27.463 51.9273 27.6846C51.4415 27.9033 50.8662 28.0127 50.2015 28.0127H47.9216V26.3508H49.8094C50.1276 26.3508 50.3932 26.3096 50.6063 26.2272C50.8222 26.142 50.9856 26.0141 51.0963 25.8437C51.2071 25.6704 51.2625 25.4488 51.2625 25.1789C51.2625 24.909 51.2071 24.686 51.0963 24.5099C50.9856 24.3309 50.8222 24.1974 50.6063 24.1093C50.3904 24.0184 50.1248 23.9729 49.8094 23.9729H48.7696V30.9999H46.6603ZM51.5736 27.0113L53.7469 30.9999H51.4458L49.3151 27.0113H51.5736ZM54.6056 30.9999V24.4545H56.6894V30.9999H54.6056ZM55.6496 23.6917C55.357 23.6917 55.1056 23.5951 54.8953 23.4019C54.6851 23.2059 54.58 22.9701 54.58 22.6945C54.58 22.4218 54.6851 22.1889 54.8953 21.9957C55.1056 21.7997 55.357 21.7016 55.6496 21.7016C55.9451 21.7016 56.1965 21.7997 56.4039 21.9957C56.6141 22.1889 56.7192 22.4218 56.7192 22.6945C56.7192 22.9701 56.6141 23.2059 56.4039 23.4019C56.1965 23.5951 55.9451 23.6917 55.6496 23.6917ZM61.7359 24.4545V25.9886H57.5257V24.4545H61.7359ZM58.4035 30.9999V24.1221C58.4035 23.6164 58.4987 23.1974 58.689 22.865C58.8794 22.5298 59.1436 22.2798 59.4816 22.115C59.8197 21.9474 60.2103 21.8636 60.6535 21.8636C60.9433 21.8636 61.216 21.8863 61.4717 21.9318C61.7302 21.9744 61.922 22.0127 62.047 22.0468L61.7146 23.5724C61.6379 23.5468 61.5441 23.5255 61.4333 23.5085C61.3254 23.4914 61.2231 23.4829 61.1265 23.4829C60.8822 23.4829 60.7146 23.5369 60.6237 23.6448C60.5328 23.7528 60.4873 23.9005 60.4873 24.088V30.9999H58.4035ZM66.433 24.4545V25.9886H62.3037V24.4545H66.433ZM63.1688 22.8863H65.2526V28.9417C65.2526 29.0695 65.2725 29.1732 65.3123 29.2528C65.3549 29.3295 65.4159 29.3849 65.4955 29.419C65.575 29.4502 65.6702 29.4658 65.781 29.4658C65.8605 29.4658 65.9444 29.4587 66.0324 29.4445C66.1233 29.4275 66.1915 29.4133 66.237 29.4019L66.5523 30.9062C66.4529 30.9346 66.3122 30.9701 66.1304 31.0127C65.9515 31.0553 65.737 31.0823 65.487 31.0937C64.9983 31.1164 64.5793 31.0596 64.2299 30.9232C63.8833 30.784 63.6176 30.5681 63.433 30.2755C63.2512 29.9829 63.1631 29.615 63.1688 29.1718V22.8863Z" fill="url(#paint2_linear_18_2869)"/>
</g>
<rect x="0.749756" y="0.749939" width="119.5" height="38.5" rx="5.25" stroke="white" stroke-opacity="0.15" stroke-width="1.5"/>
<defs>
<filter id="filter0_d_18_2869" x="5.99976" y="1.99994" width="36" height="36" filterUnits="userSpaceOnUse" color-interpolation-filters="sRGB">
<feFlood flood-opacity="0" result="BackgroundImageFix"/>
<feColorMatrix in="SourceAlpha" type="matrix" values="0 0 0 0 0 0 0 0 0 0 0 0 0 0 0 0 0 0 127 0" result="hardAlpha"/>
<feOffset/>
<feGaussianBlur stdDeviation="2"/>
<feComposite in2="hardAlpha" operator="out"/>
<feColorMatrix type="matrix" values="0 0 0 0 0 0 0 0 0 0 0 0 0 0 0 0 0 0 0.25 0"/>
<feBlend mode="normal" in2="BackgroundImageFix" result="effect1_dropShadow_18_2869"/>
<feBlend mode="normal" in="SourceGraphic" in2="effect1_dropShadow_18_2869" result="shape"/>
</filter>
<filter id="filter1_d_18_2869" x="41.9998" y="2.99994" width="73" height="34" filterUnits="userSpaceOnUse" color-interpolation-filters="sRGB">
<feFlood flood-opacity="0" result="BackgroundImageFix"/>
<feColorMatrix in="SourceAlpha" type="matrix" values="0 0 0 0 0 0 0 0 0 0 0 0 0 0 0 0 0 0 127 0" result="hardAlpha"/>
<feOffset/>
<feGaussianBlur stdDeviation="2"/>
<feComposite in2="hardAlpha" operator="out"/>
<feColorMatrix type="matrix" values="0 0 0 0 0 0 0 0 0 0 0 0 0 0 0 0 0 0 0.25 0"/>
<feBlend mode="normal" in2="BackgroundImageFix" result="effect1_dropShadow_18_2869"/>
<feBlend mode="normal" in="SourceGraphic" in2="effect1_dropShadow_18_2869" result="shape"/>
</filter>
<linearGradient id="paint0_linear_18_2869" x1="60.4997" y1="-6.10351e-05" x2="60.4997" y2="39.9999" gradientUnits="userSpaceOnUse">
<stop stop-color="#383838"/>
<stop offset="1" stop-color="#242424"/>
</linearGradient>
<linearGradient id="paint1_linear_18_2869" x1="9.99976" y1="6" x2="9.99976" y2="34" gradientUnits="userSpaceOnUse">
<stop stop-color="white"/>
<stop offset="1" stop-color="#B9B9B9"/>
</linearGradient>
<linearGradient id="paint2_linear_18_2869" x1="56.4998" y1="19.9999" x2="56.4998" y2="32.9999" gradientUnits="userSpaceOnUse">
<stop stop-color="white"/>
<stop offset="1" stop-color="#B9B9B9"/>
</linearGradient>
</defs>
</svg>
