<svg width="187" height="40" viewBox="0 0 187 40" fill="none" xmlns="http://www.w3.org/2000/svg">
<rect x="-0.000244141" y="-3.05176e-05" width="187" height="40" rx="6" fill="url(#paint0_linear_18_2848)"/>
<g filter="url(#filter0_d_18_2848)">
<path d="M10.408 12.4545H15.3227L18.7034 20.6931H18.8739L22.2545 12.4545H27.1693V27H23.3057V18.5909H23.192L19.9534 26.8863H17.6239L14.3852 18.5341H14.2716V27H10.408V12.4545ZM29.0408 27V12.4545H32.9896V23.8181H38.8703V27H29.0408Z" fill="#AEAEAE"/>
</g>
<g filter="url(#filter1_d_18_2848)">
<path d="M47.5544 18H46.2732L49.1521 9.99997H50.5466L53.4255 18H52.1443L49.8826 11.4531H49.8201L47.5544 18ZM47.7693 14.8672H51.9255V15.8828H47.7693V14.8672ZM58.8679 12L56.6921 18H55.4421L53.2624 12H54.5164L56.0359 16.6172H56.0984L57.614 12H58.8679ZM61.5398 18.1328C61.1596 18.1328 60.8158 18.0625 60.5085 17.9218C60.2012 17.7786 59.9578 17.5716 59.7781 17.3007C59.601 17.0299 59.5124 16.6979 59.5124 16.3047C59.5124 15.9661 59.5776 15.6875 59.7078 15.4687C59.838 15.25 60.0137 15.0768 60.2351 14.9492C60.4565 14.8216 60.7039 14.7252 60.9773 14.6601C61.2507 14.595 61.5294 14.5455 61.8132 14.5117C62.1726 14.47 62.4643 14.4362 62.6882 14.4101C62.9122 14.3815 63.0749 14.3359 63.1765 14.2734C63.2781 14.2109 63.3289 14.1093 63.3289 13.9687V13.9414C63.3289 13.6002 63.2325 13.3359 63.0398 13.1484C62.8497 12.9609 62.5658 12.8672 62.1882 12.8672C61.795 12.8672 61.4851 12.9544 61.2585 13.1289C61.0346 13.3007 60.8796 13.4922 60.7937 13.7031L59.696 13.4531C59.8262 13.0885 60.0164 12.7942 60.2664 12.5703C60.519 12.3437 60.8093 12.1797 61.1374 12.0781C61.4656 11.9739 61.8106 11.9218 62.1726 11.9218C62.4122 11.9218 62.6661 11.9505 62.9343 12.0078C63.2052 12.0625 63.4578 12.164 63.6921 12.3125C63.9291 12.4609 64.1231 12.6731 64.2742 12.9492C64.4252 13.2226 64.5007 13.5781 64.5007 14.0156V18H63.3601V17.1797H63.3132C63.2377 17.3307 63.1244 17.4791 62.9734 17.625C62.8223 17.7708 62.6283 17.8919 62.3914 17.9882C62.1544 18.0846 61.8705 18.1328 61.5398 18.1328ZM61.7937 17.1953C62.1166 17.1953 62.3927 17.1315 62.6218 17.0039C62.8536 16.8763 63.0294 16.7096 63.1492 16.5039C63.2716 16.2955 63.3328 16.0729 63.3328 15.8359V15.0625C63.2911 15.1041 63.2104 15.1432 63.0906 15.1797C62.9734 15.2135 62.8393 15.2435 62.6882 15.2695C62.5372 15.2929 62.3901 15.3151 62.2468 15.3359C62.1036 15.3541 61.9838 15.3698 61.8874 15.3828C61.6609 15.4114 61.4539 15.4596 61.2664 15.5273C61.0815 15.595 60.933 15.6927 60.821 15.8203C60.7117 15.9453 60.657 16.1119 60.657 16.3203C60.657 16.6093 60.7637 16.8281 60.9773 16.9765C61.1908 17.1224 61.463 17.1953 61.7937 17.1953ZM66.0564 18V12H67.2244V18H66.0564ZM66.6462 11.0742C66.4431 11.0742 66.2686 11.0065 66.1228 10.8711C65.9796 10.733 65.908 10.569 65.908 10.3789C65.908 10.1862 65.9796 10.0221 66.1228 9.88669C66.2686 9.74867 66.4431 9.67966 66.6462 9.67966C66.8494 9.67966 67.0225 9.74867 67.1658 9.88669C67.3116 10.0221 67.3845 10.1862 67.3845 10.3789C67.3845 10.569 67.3116 10.733 67.1658 10.8711C67.0225 11.0065 66.8494 11.0742 66.6462 11.0742ZM69.9636 9.99997V18H68.7956V9.99997H69.9636ZM73.281 18.1328C72.9008 18.1328 72.557 18.0625 72.2497 17.9218C71.9425 17.7786 71.699 17.5716 71.5193 17.3007C71.3422 17.0299 71.2537 16.6979 71.2537 16.3047C71.2537 15.9661 71.3188 15.6875 71.449 15.4687C71.5792 15.25 71.755 15.0768 71.9763 14.9492C72.1977 14.8216 72.4451 14.7252 72.7185 14.6601C72.9919 14.595 73.2706 14.5455 73.5544 14.5117C73.9138 14.47 74.2055 14.4362 74.4294 14.4101C74.6534 14.3815 74.8162 14.3359 74.9177 14.2734C75.0193 14.2109 75.0701 14.1093 75.0701 13.9687V13.9414C75.0701 13.6002 74.9737 13.3359 74.781 13.1484C74.5909 12.9609 74.307 12.8672 73.9294 12.8672C73.5362 12.8672 73.2263 12.9544 72.9997 13.1289C72.7758 13.3007 72.6208 13.4922 72.5349 13.7031L71.4372 13.4531C71.5675 13.0885 71.7576 12.7942 72.0076 12.5703C72.2602 12.3437 72.5505 12.1797 72.8787 12.0781C73.2068 11.9739 73.5518 11.9218 73.9138 11.9218C74.1534 11.9218 74.4073 11.9505 74.6755 12.0078C74.9464 12.0625 75.199 12.164 75.4333 12.3125C75.6703 12.4609 75.8643 12.6731 76.0154 12.9492C76.1664 13.2226 76.2419 13.5781 76.2419 14.0156V18H75.1013V17.1797H75.0544C74.9789 17.3307 74.8656 17.4791 74.7146 17.625C74.5635 17.7708 74.3695 17.8919 74.1326 17.9882C73.8956 18.0846 73.6117 18.1328 73.281 18.1328ZM73.5349 17.1953C73.8578 17.1953 74.1339 17.1315 74.363 17.0039C74.5948 16.8763 74.7706 16.7096 74.8904 16.5039C75.0128 16.2955 75.074 16.0729 75.074 15.8359V15.0625C75.0323 15.1041 74.9516 15.1432 74.8318 15.1797C74.7146 15.2135 74.5805 15.2435 74.4294 15.2695C74.2784 15.2929 74.1313 15.3151 73.988 15.3359C73.8448 15.3541 73.725 15.3698 73.6287 15.3828C73.4021 15.4114 73.1951 15.4596 73.0076 15.5273C72.8227 15.595 72.6742 15.6927 72.5622 15.8203C72.4529 15.9453 72.3982 16.1119 72.3982 16.3203C72.3982 16.6093 72.505 16.8281 72.7185 16.9765C72.932 17.1224 73.2042 17.1953 73.5349 17.1953ZM77.8913 18V9.99997H79.0593V12.9726H79.1296C79.1973 12.8476 79.295 12.7031 79.4226 12.539C79.5502 12.375 79.7273 12.2317 79.9538 12.1093C80.1804 11.9843 80.4799 11.9218 80.8523 11.9218C81.3367 11.9218 81.769 12.0442 82.1492 12.289C82.5294 12.5338 82.8275 12.8867 83.0437 13.3476C83.2624 13.8086 83.3718 14.3632 83.3718 15.0117C83.3718 15.6601 83.2637 16.2161 83.0476 16.6797C82.8315 17.1406 82.5346 17.4961 82.157 17.7461C81.7794 17.9935 81.3484 18.1172 80.864 18.1172C80.4994 18.1172 80.2012 18.056 79.9695 17.9336C79.7403 17.8112 79.5606 17.6679 79.4304 17.5039C79.3002 17.3398 79.1999 17.194 79.1296 17.0664H79.032V18H77.8913ZM79.0359 15C79.0359 15.4218 79.0971 15.7916 79.2195 16.1093C79.3419 16.427 79.519 16.6757 79.7507 16.8554C79.9825 17.0325 80.2663 17.1211 80.6023 17.1211C80.9512 17.1211 81.2429 17.0286 81.4773 16.8437C81.7117 16.6562 81.8887 16.4023 82.0085 16.082C82.1309 15.7617 82.1921 15.401 82.1921 15C82.1921 14.6041 82.1322 14.2487 82.0124 13.9336C81.8953 13.6185 81.7182 13.3698 81.4812 13.1875C81.2468 13.0052 80.9538 12.914 80.6023 12.914C80.2637 12.914 79.9773 13.0013 79.7429 13.1757C79.5111 13.3502 79.3354 13.5937 79.2156 13.9062C79.0958 14.2187 79.0359 14.5833 79.0359 15ZM85.8513 9.99997V18H84.6833V9.99997H85.8513ZM90.0085 18.1211C89.4174 18.1211 88.9083 17.9948 88.4812 17.7422C88.0567 17.4869 87.7286 17.1289 87.4968 16.6679C87.2676 16.2044 87.1531 15.6614 87.1531 15.039C87.1531 14.4244 87.2676 13.8828 87.4968 13.414C87.7286 12.9453 88.0515 12.5794 88.4656 12.3164C88.8822 12.0534 89.3692 11.9218 89.9265 11.9218C90.265 11.9218 90.5932 11.9778 90.9109 12.0898C91.2286 12.2018 91.5137 12.3776 91.7663 12.6172C92.0189 12.8567 92.2182 13.1679 92.364 13.5507C92.5098 13.931 92.5828 14.3932 92.5828 14.9375V15.3515H87.8132V14.4765H91.4382C91.4382 14.1692 91.3757 13.8971 91.2507 13.6601C91.1257 13.4205 90.9499 13.2317 90.7234 13.0937C90.4994 12.9557 90.2364 12.8867 89.9343 12.8867C89.6062 12.8867 89.3197 12.9674 89.0749 13.1289C88.8328 13.2877 88.6453 13.4961 88.5124 13.7539C88.3822 14.0091 88.3171 14.2864 88.3171 14.5859V15.2695C88.3171 15.6705 88.3874 16.0117 88.5281 16.2929C88.6713 16.5742 88.8705 16.789 89.1257 16.9375C89.3809 17.0833 89.6791 17.1562 90.0203 17.1562C90.2416 17.1562 90.4434 17.125 90.6257 17.0625C90.808 16.9974 90.9656 16.901 91.0984 16.7734C91.2312 16.6458 91.3328 16.4882 91.4031 16.3007L92.5085 16.5C92.42 16.8255 92.2611 17.1106 92.032 17.3554C91.8054 17.5976 91.5203 17.7864 91.1765 17.9218C90.8354 18.0547 90.446 18.1211 90.0085 18.1211ZM99.6452 12V12.9375H96.2546V12H99.6452ZM97.1843 18V11.3047C97.1843 10.9297 97.2663 10.6185 97.4304 10.3711C97.5945 10.1211 97.8119 9.93486 98.0827 9.81247C98.3536 9.68747 98.6479 9.62497 98.9656 9.62497C99.1999 9.62497 99.4005 9.6445 99.5671 9.68356C99.7338 9.72002 99.8575 9.75387 99.9382 9.78512L99.6648 10.7304C99.6101 10.7148 99.5398 10.6966 99.4538 10.6757C99.3679 10.6523 99.2637 10.6406 99.1413 10.6406C98.8575 10.6406 98.6544 10.7109 98.532 10.8515C98.4122 10.9922 98.3523 11.1953 98.3523 11.4609V18H97.1843ZM103.141 18.1211C102.579 18.1211 102.088 17.9922 101.669 17.7343C101.249 17.4765 100.924 17.1159 100.692 16.6523C100.46 16.1888 100.344 15.6471 100.344 15.0273C100.344 14.4049 100.46 13.8606 100.692 13.3945C100.924 12.9284 101.249 12.5664 101.669 12.3086C102.088 12.0507 102.579 11.9218 103.141 11.9218C103.704 11.9218 104.195 12.0507 104.614 12.3086C105.033 12.5664 105.359 12.9284 105.591 13.3945C105.822 13.8606 105.938 14.4049 105.938 15.0273C105.938 15.6471 105.822 16.1888 105.591 16.6523C105.359 17.1159 105.033 17.4765 104.614 17.7343C104.195 17.9922 103.704 18.1211 103.141 18.1211ZM103.145 17.1406C103.51 17.1406 103.812 17.0442 104.051 16.8515C104.291 16.6588 104.468 16.4023 104.583 16.082C104.7 15.7617 104.759 15.4088 104.759 15.0234C104.759 14.6406 104.7 14.289 104.583 13.9687C104.468 13.6458 104.291 13.3867 104.051 13.1914C103.812 12.9961 103.51 12.8984 103.145 12.8984C102.778 12.8984 102.473 12.9961 102.231 13.1914C101.992 13.3867 101.813 13.6458 101.696 13.9687C101.581 14.289 101.524 14.6406 101.524 15.0234C101.524 15.4088 101.581 15.7617 101.696 16.082C101.813 16.4023 101.992 16.6588 102.231 16.8515C102.473 17.0442 102.778 17.1406 103.145 17.1406ZM107.242 18V12H108.371V12.9531H108.433C108.543 12.6302 108.735 12.3763 109.011 12.1914C109.29 12.0039 109.605 11.9101 109.957 11.9101C110.03 11.9101 110.116 11.9127 110.215 11.9179C110.316 11.9231 110.396 11.9297 110.453 11.9375V13.0547C110.406 13.0416 110.323 13.0273 110.203 13.0117C110.083 12.9935 109.963 12.9843 109.843 12.9843C109.567 12.9843 109.321 13.0429 109.105 13.1601C108.892 13.2747 108.722 13.4349 108.597 13.6406C108.472 13.8437 108.41 14.0755 108.41 14.3359V18H107.242Z" fill="#E8E8E8"/>
<path d="M46.6603 31V22.2727H50.2654C50.9188 22.2727 51.4827 22.3906 51.9571 22.6264C52.4344 22.8593 52.8023 23.1946 53.0608 23.6321C53.3194 24.0667 53.4486 24.5824 53.4486 25.1789C53.4486 25.7841 53.3165 26.2983 53.0523 26.7216C52.7881 27.142 52.4131 27.463 51.9273 27.6846C51.4415 27.9034 50.8662 28.0128 50.2015 28.0128H47.9216V26.3508H49.8094C50.1276 26.3508 50.3932 26.3096 50.6063 26.2272C50.8222 26.142 50.9856 26.0142 51.0963 25.8437C51.2071 25.6704 51.2625 25.4488 51.2625 25.1789C51.2625 24.9091 51.2071 24.686 51.0963 24.5099C50.9856 24.3309 50.8222 24.1974 50.6063 24.1093C50.3904 24.0184 50.1248 23.973 49.8094 23.973H48.7696V31H46.6603ZM51.5736 27.0113L53.7469 31H51.4458L49.3151 27.0113H51.5736ZM54.6056 31V24.4545H56.6894V31H54.6056ZM55.6496 23.6917C55.357 23.6917 55.1056 23.5951 54.8953 23.402C54.6851 23.2059 54.58 22.9701 54.58 22.6946C54.58 22.4218 54.6851 22.1889 54.8953 21.9957C55.1056 21.7997 55.357 21.7017 55.6496 21.7017C55.9451 21.7017 56.1965 21.7997 56.4039 21.9957C56.6141 22.1889 56.7192 22.4218 56.7192 22.6946C56.7192 22.9701 56.6141 23.2059 56.4039 23.402C56.1965 23.5951 55.9451 23.6917 55.6496 23.6917ZM63.7302 26.4531L61.8169 26.5042C61.797 26.3679 61.743 26.2471 61.6549 26.142C61.5669 26.0341 61.4518 25.9503 61.3098 25.8906C61.1706 25.8281 61.0086 25.7968 60.824 25.7968C60.5825 25.7968 60.3765 25.8451 60.2061 25.9417C60.0385 26.0383 59.9561 26.169 59.9589 26.3338C59.9561 26.4616 60.0072 26.5724 60.1123 26.6662C60.2203 26.7599 60.412 26.8352 60.6876 26.892L61.949 27.1306C62.6024 27.2556 63.0882 27.463 63.4064 27.7528C63.7274 28.0426 63.8893 28.4261 63.8922 28.9034C63.8893 29.3522 63.7558 29.7429 63.4916 30.0753C63.2302 30.4076 62.8723 30.6662 62.4177 30.8508C61.9632 31.0326 61.4433 31.1235 60.8581 31.1235C59.9234 31.1235 59.1862 30.9318 58.6464 30.5483C58.1095 30.1619 57.8027 29.6449 57.726 28.9971L59.7842 28.946C59.8297 29.1846 59.9476 29.3664 60.1379 29.4914C60.3282 29.6164 60.5711 29.6789 60.8666 29.6789C61.1336 29.6789 61.351 29.6292 61.5186 29.5298C61.6862 29.4304 61.7714 29.2983 61.7743 29.1335C61.7714 28.9858 61.7061 28.8679 61.5782 28.7798C61.4504 28.6889 61.2501 28.6179 60.9774 28.5667L59.8353 28.3494C59.1791 28.2301 58.6904 28.0099 58.3694 27.6889C58.0484 27.365 57.8893 26.9531 57.8922 26.4531C57.8893 26.0156 58.0058 25.642 58.2416 25.3324C58.4774 25.0199 58.8126 24.7812 59.2473 24.6164C59.6819 24.4517 60.1947 24.3693 60.7856 24.3693C61.672 24.3693 62.3708 24.5554 62.8822 24.9275C63.3936 25.2968 63.6762 25.8054 63.7302 26.4531ZM69.1411 28.1747V24.4545H71.2206V31H69.2348V29.7812H69.1667C69.0218 30.1818 68.7746 30.5 68.4252 30.7358C68.0786 30.9687 67.6596 31.0852 67.1681 31.0852C66.7221 31.0852 66.33 30.9829 65.9919 30.7784C65.6539 30.5738 65.3911 30.2883 65.2036 29.9218C65.0161 29.5525 64.9209 29.1207 64.9181 28.6264V24.4545H67.0019V28.2173C67.0047 28.5724 67.0985 28.8522 67.2831 29.0568C67.4678 29.2613 67.7192 29.3636 68.0374 29.3636C68.2448 29.3636 68.4309 29.3181 68.5956 29.2272C68.7632 29.1335 68.8953 28.9985 68.9919 28.8224C69.0914 28.6434 69.1411 28.4275 69.1411 28.1747ZM75.5981 33.5909C74.976 33.5909 74.4433 33.5042 74.0001 33.3309C73.5569 33.1576 73.2089 32.9204 72.9561 32.6193C72.7032 32.3181 72.5512 31.9772 72.5001 31.5966L74.4731 31.4858C74.51 31.6193 74.5782 31.7358 74.6777 31.8352C74.7799 31.9346 74.912 32.0113 75.074 32.0653C75.2387 32.1193 75.4319 32.1463 75.6535 32.1463C76.0029 32.1463 76.2913 32.061 76.5186 31.8906C76.7487 31.723 76.8637 31.4289 76.8637 31.0085V29.8579H76.7913C76.7089 30.0596 76.5839 30.24 76.4163 30.3991C76.2487 30.5582 76.0399 30.6832 75.7899 30.7741C75.5427 30.865 75.2586 30.9105 74.9376 30.9105C74.4603 30.9105 74.0228 30.7997 73.6251 30.5781C73.2302 30.3537 72.9135 30.0071 72.6748 29.5383C72.439 29.0667 72.3211 28.4602 72.3211 27.7187C72.3211 26.9545 72.4433 26.3253 72.6876 25.8309C72.9319 25.3338 73.2515 24.9659 73.6464 24.7272C74.0441 24.4886 74.4717 24.3693 74.9291 24.3693C75.2728 24.3693 75.5669 24.4289 75.8112 24.5483C76.0583 24.6647 76.2615 24.8153 76.4206 25C76.5796 25.1846 76.7004 25.3764 76.7828 25.5753H76.8424V24.4545H78.9177V31.0255C78.9177 31.5795 78.7785 32.0468 78.5001 32.4275C78.2217 32.8082 77.8325 33.0966 77.3325 33.2926C76.8325 33.4914 76.2544 33.5909 75.5981 33.5909ZM75.662 29.3934C75.9149 29.3934 76.1308 29.3267 76.3098 29.1931C76.4887 29.0596 76.6265 28.8679 76.7231 28.6179C76.8197 28.3679 76.868 28.0681 76.868 27.7187C76.868 27.3636 76.8197 27.0582 76.7231 26.8025C76.6294 26.544 76.4916 26.3451 76.3098 26.2059C76.1308 26.0667 75.9149 25.9971 75.662 25.9971C75.4035 25.9971 75.1848 26.0681 75.0058 26.2102C74.8268 26.3522 74.6904 26.5525 74.5967 26.811C74.5058 27.0667 74.4603 27.3693 74.4603 27.7187C74.4603 28.0681 74.5072 28.3679 74.601 28.6179C74.6947 28.8679 74.8296 29.0596 75.0058 29.1931C75.1848 29.3267 75.4035 29.3934 75.662 29.3934ZM82.0914 31.1108C81.6738 31.1108 81.303 31.0412 80.9791 30.902C80.6581 30.7599 80.4039 30.5468 80.2164 30.2628C80.0317 29.9758 79.9394 29.6164 79.9394 29.1846C79.9394 28.821 80.0033 28.5142 80.1311 28.2642C80.259 28.0142 80.4351 27.811 80.6595 27.6548C80.884 27.4985 81.1425 27.3806 81.4351 27.3011C81.7277 27.2187 82.0402 27.1633 82.3726 27.1349C82.7448 27.1008 83.0445 27.0653 83.2718 27.0284C83.499 26.9886 83.6638 26.9332 83.7661 26.8622C83.8712 26.7883 83.9238 26.6846 83.9238 26.5511V26.5298C83.9238 26.311 83.8485 26.142 83.6979 26.0227C83.5473 25.9034 83.3442 25.8437 83.0885 25.8437C82.813 25.8437 82.5914 25.9034 82.4238 26.0227C82.2561 26.142 82.1496 26.3068 82.1041 26.517L80.1823 26.4488C80.2391 26.0511 80.3854 25.696 80.6212 25.3835C80.8598 25.0681 81.1865 24.821 81.6013 24.642C82.0189 24.4602 82.5203 24.3693 83.1056 24.3693C83.5232 24.3693 83.9081 24.419 84.2604 24.5184C84.6127 24.615 84.9195 24.7571 85.1809 24.9446C85.4422 25.1292 85.6439 25.3565 85.786 25.6264C85.9309 25.8963 86.0033 26.2045 86.0033 26.5511V31H84.0431V30.088H83.9919C83.8755 30.3096 83.7263 30.4971 83.5445 30.6505C83.3655 30.8039 83.1539 30.919 82.9095 30.9957C82.6681 31.0724 82.3953 31.1108 82.0914 31.1108ZM82.7348 29.7471C82.9593 29.7471 83.161 29.7017 83.3399 29.6108C83.5218 29.5199 83.6666 29.3949 83.7746 29.2358C83.8826 29.0738 83.9365 28.8863 83.9365 28.6733V28.0511C83.8769 28.0824 83.8044 28.1108 83.7192 28.1363C83.6368 28.1619 83.5459 28.186 83.4465 28.2088C83.347 28.2315 83.2448 28.2514 83.1397 28.2684C83.0345 28.2855 82.9337 28.3011 82.8371 28.3153C82.6411 28.3466 82.4735 28.3949 82.3343 28.4602C82.1979 28.5255 82.0928 28.6108 82.0189 28.7159C81.9479 28.8181 81.9124 28.9403 81.9124 29.0824C81.9124 29.2983 81.9891 29.463 82.1425 29.5767C82.2988 29.6903 82.4962 29.7471 82.7348 29.7471ZM87.2774 31V24.4545H89.259V25.6562H89.3314C89.4678 25.2585 89.6979 24.9446 90.0218 24.7145C90.3456 24.4843 90.732 24.3693 91.1809 24.3693C91.6354 24.3693 92.0246 24.4858 92.3485 24.7187C92.6723 24.9517 92.8783 25.2642 92.9664 25.6562H93.0345C93.1567 25.267 93.3953 24.9559 93.7505 24.723C94.1056 24.4872 94.5246 24.3693 95.0076 24.3693C95.6269 24.3693 96.1297 24.5681 96.5161 24.9659C96.9024 25.3608 97.0956 25.9034 97.0956 26.5937V31H95.0118V27.071C95.0118 26.7443 94.928 26.4957 94.7604 26.3253C94.5928 26.152 94.3755 26.0653 94.1084 26.0653C93.8215 26.0653 93.5956 26.1591 93.4309 26.3466C93.2689 26.5312 93.188 26.7798 93.188 27.0923V31H91.1851V27.0497C91.1851 26.7457 91.1027 26.5056 90.938 26.3295C90.7732 26.1534 90.5559 26.0653 90.286 26.0653C90.1041 26.0653 89.9436 26.1093 89.8044 26.1974C89.6652 26.2826 89.5559 26.4048 89.4763 26.5639C89.3996 26.723 89.3612 26.9105 89.3612 27.1264V31H87.2774ZM98.3868 31V24.4545H100.471V31H98.3868ZM99.4308 23.6917C99.1382 23.6917 98.8868 23.5951 98.6766 23.402C98.4664 23.2059 98.3612 22.9701 98.3612 22.6946C98.3612 22.4218 98.4664 22.1889 98.6766 21.9957C98.8868 21.7997 99.1382 21.7017 99.4308 21.7017C99.7263 21.7017 99.9777 21.7997 100.185 21.9957C100.395 22.1889 100.5 22.4218 100.5 22.6946C100.5 22.9701 100.395 23.2059 100.185 23.402C99.9777 23.5951 99.7263 23.6917 99.4308 23.6917ZM103.531 22.2727V23.2443C103.531 23.5142 103.477 23.7869 103.369 24.0625C103.264 24.3352 103.127 24.5909 102.956 24.8295C102.786 25.0681 102.605 25.2699 102.415 25.4346L101.529 24.9488C101.659 24.7329 101.776 24.49 101.878 24.2201C101.98 23.9474 102.031 23.6235 102.031 23.2485V22.2727H103.531ZM109.633 26.4531L107.719 26.5042C107.699 26.3679 107.645 26.2471 107.557 26.142C107.469 26.0341 107.354 25.9503 107.212 25.8906C107.073 25.8281 106.911 25.7968 106.726 25.7968C106.485 25.7968 106.279 25.8451 106.108 25.9417C105.941 26.0383 105.858 26.169 105.861 26.3338C105.858 26.4616 105.91 26.5724 106.015 26.6662C106.123 26.7599 106.314 26.8352 106.59 26.892L107.851 27.1306C108.505 27.2556 108.991 27.463 109.309 27.7528C109.63 28.0426 109.792 28.4261 109.794 28.9034C109.792 29.3522 109.658 29.7429 109.394 30.0753C109.133 30.4076 108.775 30.6662 108.32 30.8508C107.866 31.0326 107.346 31.1235 106.76 31.1235C105.826 31.1235 105.089 30.9318 104.549 30.5483C104.012 30.1619 103.705 29.6449 103.628 28.9971L105.687 28.946C105.732 29.1846 105.85 29.3664 106.04 29.4914C106.231 29.6164 106.473 29.6789 106.769 29.6789C107.036 29.6789 107.253 29.6292 107.421 29.5298C107.589 29.4304 107.674 29.2983 107.677 29.1335C107.674 28.9858 107.608 28.8679 107.481 28.7798C107.353 28.6889 107.152 28.6179 106.88 28.5667L105.738 28.3494C105.081 28.2301 104.593 28.0099 104.272 27.6889C103.951 27.365 103.792 26.9531 103.794 26.4531C103.792 26.0156 103.908 25.642 104.144 25.3324C104.38 25.0199 104.715 24.7812 105.15 24.6164C105.584 24.4517 106.097 24.3693 106.688 24.3693C107.574 24.3693 108.273 24.5554 108.785 24.9275C109.296 25.2968 109.579 25.8054 109.633 26.4531ZM113.399 22.2727H116.011L118.227 27.6761H118.329L120.545 22.2727H123.157V31H121.103V25.6392H121.031L118.934 30.9446H117.622L115.525 25.6093H115.453V31H113.399V22.2727ZM127.528 31.1235C126.841 31.1235 126.25 30.9829 125.755 30.7017C125.264 30.4176 124.885 30.0227 124.618 29.517C124.353 29.0085 124.221 28.419 124.221 27.7485C124.221 27.0753 124.353 26.4858 124.618 25.9801C124.885 25.4716 125.264 25.0767 125.755 24.7954C126.25 24.5113 126.841 24.3693 127.528 24.3693C128.216 24.3693 128.805 24.5113 129.297 24.7954C129.791 25.0767 130.17 25.4716 130.434 25.9801C130.701 26.4858 130.835 27.0753 130.835 27.7485C130.835 28.419 130.701 29.0085 130.434 29.517C130.17 30.0227 129.791 30.4176 129.297 30.7017C128.805 30.9829 128.216 31.1235 127.528 31.1235ZM127.541 29.5511C127.791 29.5511 128.003 29.4744 128.176 29.321C128.349 29.1676 128.481 28.9545 128.572 28.6818C128.666 28.4091 128.713 28.0937 128.713 27.7358C128.713 27.3721 128.666 27.0539 128.572 26.7812C128.481 26.5085 128.349 26.2954 128.176 26.142C128.003 25.9886 127.791 25.9119 127.541 25.9119C127.282 25.9119 127.064 25.9886 126.885 26.142C126.709 26.2954 126.574 26.5085 126.48 26.7812C126.389 27.0539 126.343 27.3721 126.343 27.7358C126.343 28.0937 126.389 28.4091 126.48 28.6818C126.574 28.9545 126.709 29.1676 126.885 29.321C127.064 29.4744 127.282 29.5511 127.541 29.5511ZM134.293 31.0937C133.81 31.0937 133.371 30.9687 132.976 30.7187C132.581 30.4687 132.266 30.0937 132.03 29.5937C131.794 29.0937 131.677 28.473 131.677 27.7315C131.677 26.9616 131.799 26.3281 132.043 25.8309C132.287 25.3338 132.607 24.9659 133.002 24.7272C133.4 24.4886 133.827 24.3693 134.285 24.3693C134.628 24.3693 134.922 24.4289 135.167 24.5483C135.411 24.6647 135.613 24.8153 135.772 25C135.931 25.1846 136.052 25.3764 136.134 25.5753H136.177V22.2727H138.26V31H136.198V29.9389H136.134C136.046 30.1406 135.921 30.3295 135.759 30.5056C135.597 30.6818 135.394 30.8238 135.15 30.9318C134.908 31.0397 134.623 31.0937 134.293 31.0937ZM135.017 29.4701C135.27 29.4701 135.486 29.3991 135.665 29.2571C135.844 29.1122 135.982 28.9091 136.079 28.6477C136.175 28.3863 136.223 28.0795 136.223 27.7272C136.223 27.3693 136.175 27.061 136.079 26.8025C135.985 26.544 135.847 26.3451 135.665 26.2059C135.486 26.0667 135.27 25.9971 135.017 25.9971C134.759 25.9971 134.54 26.0681 134.361 26.2102C134.182 26.3522 134.046 26.5525 133.952 26.811C133.861 27.0696 133.816 27.375 133.816 27.7272C133.816 28.0795 133.863 28.3863 133.956 28.6477C134.05 28.9091 134.185 29.1122 134.361 29.2571C134.54 29.3991 134.759 29.4701 135.017 29.4701ZM141.662 22.2727V31H139.578V22.2727H141.662ZM146.044 31.1235C145.356 31.1235 144.765 30.9829 144.271 30.7017C143.78 30.4176 143.4 30.0227 143.133 29.517C142.869 29.0085 142.737 28.419 142.737 27.7485C142.737 27.0753 142.869 26.4858 143.133 25.9801C143.4 25.4716 143.78 25.0767 144.271 24.7954C144.765 24.5113 145.356 24.3693 146.044 24.3693C146.731 24.3693 147.321 24.5113 147.812 24.7954C148.307 25.0767 148.686 25.4716 148.95 25.9801C149.217 26.4858 149.351 27.0753 149.351 27.7485C149.351 28.419 149.217 29.0085 148.95 29.517C148.686 30.0227 148.307 30.4176 147.812 30.7017C147.321 30.9829 146.731 31.1235 146.044 31.1235ZM146.057 29.5511C146.307 29.5511 146.518 29.4744 146.691 29.321C146.865 29.1676 146.997 28.9545 147.088 28.6818C147.182 28.4091 147.228 28.0937 147.228 27.7358C147.228 27.3721 147.182 27.0539 147.088 26.7812C146.997 26.5085 146.865 26.2954 146.691 26.142C146.518 25.9886 146.307 25.9119 146.057 25.9119C145.798 25.9119 145.579 25.9886 145.4 26.142C145.224 26.2954 145.089 26.5085 144.995 26.7812C144.905 27.0539 144.859 27.3721 144.859 27.7358C144.859 28.0937 144.905 28.4091 144.995 28.6818C145.089 28.9545 145.224 29.1676 145.4 29.321C145.579 29.4744 145.798 29.5511 146.057 29.5511ZM152.263 31.1108C151.846 31.1108 151.475 31.0412 151.151 30.902C150.83 30.7599 150.576 30.5468 150.388 30.2628C150.204 29.9758 150.111 29.6164 150.111 29.1846C150.111 28.821 150.175 28.5142 150.303 28.2642C150.431 28.0142 150.607 27.811 150.831 27.6548C151.056 27.4985 151.314 27.3806 151.607 27.3011C151.9 27.2187 152.212 27.1633 152.544 27.1349C152.917 27.1008 153.216 27.0653 153.444 27.0284C153.671 26.9886 153.836 26.9332 153.938 26.8622C154.043 26.7883 154.096 26.6846 154.096 26.5511V26.5298C154.096 26.311 154.02 26.142 153.87 26.0227C153.719 25.9034 153.516 25.8437 153.26 25.8437C152.985 25.8437 152.763 25.9034 152.596 26.0227C152.428 26.142 152.321 26.3068 152.276 26.517L150.354 26.4488C150.411 26.0511 150.557 25.696 150.793 25.3835C151.032 25.0681 151.358 24.821 151.773 24.642C152.191 24.4602 152.692 24.3693 153.277 24.3693C153.695 24.3693 154.08 24.419 154.432 24.5184C154.785 24.615 155.091 24.7571 155.353 24.9446C155.614 25.1292 155.816 25.3565 155.958 25.6264C156.103 25.8963 156.175 26.2045 156.175 26.5511V31H154.215V30.088H154.164C154.047 30.3096 153.898 30.4971 153.716 30.6505C153.537 30.8039 153.326 30.919 153.081 30.9957C152.84 31.0724 152.567 31.1108 152.263 31.1108ZM152.907 29.7471C153.131 29.7471 153.333 29.7017 153.512 29.6108C153.694 29.5199 153.839 29.3949 153.946 29.2358C154.054 29.0738 154.108 28.8863 154.108 28.6733V28.0511C154.049 28.0824 153.976 28.1108 153.891 28.1363C153.809 28.1619 153.718 28.186 153.618 28.2088C153.519 28.2315 153.417 28.2514 153.312 28.2684C153.206 28.2855 153.106 28.3011 153.009 28.3153C152.813 28.3466 152.645 28.3949 152.506 28.4602C152.37 28.5255 152.265 28.6108 152.191 28.7159C152.12 28.8181 152.084 28.9403 152.084 29.0824C152.084 29.2983 152.161 29.463 152.314 29.5767C152.471 29.6903 152.668 29.7471 152.907 29.7471ZM159.84 31.0937C159.357 31.0937 158.918 30.9687 158.523 30.7187C158.128 30.4687 157.813 30.0937 157.577 29.5937C157.341 29.0937 157.223 28.473 157.223 27.7315C157.223 26.9616 157.346 26.3281 157.59 25.8309C157.834 25.3338 158.154 24.9659 158.549 24.7272C158.946 24.4886 159.374 24.3693 159.831 24.3693C160.175 24.3693 160.469 24.4289 160.714 24.5483C160.958 24.6647 161.16 24.8153 161.319 25C161.478 25.1846 161.598 25.3764 161.681 25.5753H161.723V22.2727H163.807V31H161.745V29.9389H161.681C161.593 30.1406 161.468 30.3295 161.306 30.5056C161.144 30.6818 160.941 30.8238 160.696 30.9318C160.455 31.0397 160.169 31.0937 159.84 31.0937ZM160.564 29.4701C160.817 29.4701 161.033 29.3991 161.212 29.2571C161.391 29.1122 161.529 28.9091 161.625 28.6477C161.722 28.3863 161.77 28.0795 161.77 27.7272C161.77 27.3693 161.722 27.061 161.625 26.8025C161.532 26.544 161.394 26.3451 161.212 26.2059C161.033 26.0667 160.817 25.9971 160.564 25.9971C160.306 25.9971 160.087 26.0681 159.908 26.2102C159.729 26.3522 159.593 26.5525 159.499 26.811C159.408 27.0696 159.363 27.375 159.363 27.7272C159.363 28.0795 159.41 28.3863 159.503 28.6477C159.597 28.9091 159.732 29.1122 159.908 29.2571C160.087 29.3991 160.306 29.4701 160.564 29.4701ZM168.185 31.1235C167.5 31.1235 166.909 30.9886 166.412 30.7187C165.918 30.446 165.537 30.0582 165.27 29.5554C165.006 29.0497 164.874 28.4488 164.874 27.7528C164.874 27.0767 165.007 26.4858 165.274 25.9801C165.541 25.4716 165.918 25.0767 166.403 24.7954C166.889 24.5113 167.462 24.3693 168.121 24.3693C168.587 24.3693 169.013 24.4417 169.399 24.5866C169.786 24.7315 170.119 24.946 170.401 25.2301C170.682 25.5142 170.901 25.865 171.057 26.2826C171.213 26.6974 171.291 27.1733 171.291 27.7102V28.2301H165.602V27.0199H169.352C169.35 26.7983 169.297 26.6008 169.195 26.4275C169.092 26.2542 168.952 26.1193 168.773 26.0227C168.597 25.9233 168.394 25.8735 168.163 25.8735C167.93 25.8735 167.722 25.9261 167.537 26.0312C167.352 26.1335 167.206 26.2741 167.098 26.4531C166.99 26.6292 166.933 26.8295 166.928 27.0539V28.2855C166.928 28.5525 166.98 28.7869 167.085 28.9886C167.19 29.1875 167.34 29.3423 167.533 29.4531C167.726 29.5639 167.956 29.6193 168.223 29.6193C168.408 29.6193 168.575 29.5937 168.726 29.5426C168.876 29.4914 169.006 29.4162 169.114 29.3167C169.222 29.2173 169.303 29.0951 169.357 28.9503L171.27 29.0056C171.19 29.4346 171.016 29.8082 170.746 30.1264C170.479 30.4417 170.128 30.6875 169.693 30.8636C169.259 31.0369 168.756 31.1235 168.185 31.1235ZM172.356 31V24.4545H174.38V25.6477H174.448C174.567 25.2159 174.762 24.8949 175.032 24.6846C175.302 24.4716 175.615 24.365 175.973 24.365C176.07 24.365 176.169 24.3721 176.272 24.3863C176.374 24.3977 176.469 24.4162 176.557 24.4417V26.2528C176.458 26.2187 176.327 26.1917 176.165 26.1718C176.006 26.152 175.864 26.142 175.739 26.142C175.492 26.142 175.269 26.1974 175.07 26.3082C174.874 26.4162 174.719 26.5681 174.606 26.7642C174.495 26.9574 174.439 27.1846 174.439 27.446V31H172.356Z" fill="#AEAEAE"/>
</g>
<rect x="0.749756" y="0.749969" width="185.5" height="38.5" rx="5.25" stroke="white" stroke-opacity="0.15" stroke-width="1.5"/>
<defs>
<filter id="filter0_d_18_2848" x="5.99976" y="1.99997" width="36.8706" height="36" filterUnits="userSpaceOnUse" color-interpolation-filters="sRGB">
<feFlood flood-opacity="0" result="BackgroundImageFix"/>
<feColorMatrix in="SourceAlpha" type="matrix" values="0 0 0 0 0 0 0 0 0 0 0 0 0 0 0 0 0 0 127 0" result="hardAlpha"/>
<feOffset/>
<feGaussianBlur stdDeviation="2"/>
<feComposite in2="hardAlpha" operator="out"/>
<feColorMatrix type="matrix" values="0 0 0 0 0 0 0 0 0 0 0 0 0 0 0 0 0 0 0.25 0"/>
<feBlend mode="normal" in2="BackgroundImageFix" result="effect1_dropShadow_18_2848"/>
<feBlend mode="normal" in="SourceGraphic" in2="effect1_dropShadow_18_2848" result="shape"/>
</filter>
<filter id="filter1_d_18_2848" x="41.9998" y="2.99997" width="139" height="34.5909" filterUnits="userSpaceOnUse" color-interpolation-filters="sRGB">
<feFlood flood-opacity="0" result="BackgroundImageFix"/>
<feColorMatrix in="SourceAlpha" type="matrix" values="0 0 0 0 0 0 0 0 0 0 0 0 0 0 0 0 0 0 127 0" result="hardAlpha"/>
<feOffset/>
<feGaussianBlur stdDeviation="2"/>
<feComposite in2="hardAlpha" operator="out"/>
<feColorMatrix type="matrix" values="0 0 0 0 0 0 0 0 0 0 0 0 0 0 0 0 0 0 0.25 0"/>
<feBlend mode="normal" in2="BackgroundImageFix" result="effect1_dropShadow_18_2848"/>
<feBlend mode="normal" in="SourceGraphic" in2="effect1_dropShadow_18_2848" result="shape"/>
</filter>
<linearGradient id="paint0_linear_18_2848" x1="93.4997" y1="-3.05176e-05" x2="93.4997" y2="40" gradientUnits="userSpaceOnUse">
<stop stop-color="#2C2C2C"/>
<stop offset="1" stop-color="#1D1D1D"/>
</linearGradient>
</defs>
</svg>
