<svg width="121" height="40" viewBox="0 0 121 40" fill="none" xmlns="http://www.w3.org/2000/svg">
<rect x="-0.000244141" y="-6.10352e-05" width="121" height="40" rx="6" fill="url(#paint0_linear_18_2912)"/>
<g filter="url(#filter0_d_18_2912)">
<g clip-path="url(#clip0_18_2912)">
<path d="M36.5998 5.99994H11.3998C10.6298 5.99994 9.99976 6.62994 9.99976 7.39994V32.5999C9.99976 33.3699 10.6298 33.9999 11.3998 33.9999H13.6538C13.4158 27.6019 13.6398 26.6499 14.0878 26.0199C14.6338 25.2359 14.8578 25.1379 15.6838 24.4799C16.3838 23.9199 16.1318 23.0099 15.6278 22.3519C15.3198 21.9459 14.8858 21.4699 14.5498 21.0079C14.3398 20.6999 14.8578 18.8939 15.0538 18.2359C15.2498 17.5779 15.5858 15.4359 18.5258 14.8619C19.6318 14.6379 22.6698 14.4839 24.7558 14.6099C24.7418 14.5259 24.7138 14.4279 24.6998 14.3299C24.6578 14.1619 24.6298 13.9799 24.5878 13.7839C24.5458 13.6019 24.5038 13.4059 24.4618 13.2099C24.4198 13.0139 24.3638 12.8179 24.3218 12.6079C24.2658 12.3979 24.2238 12.2019 24.1538 11.9919C24.0418 11.5719 23.9018 11.1659 23.7338 10.7739C23.6498 10.5779 23.5658 10.3959 23.4678 10.2279C23.3698 10.0739 23.2718 9.93394 23.1878 9.87794C23.1738 9.86394 23.1598 9.84994 23.1458 9.84994H23.1318H23.1598C23.1598 9.84994 23.1738 9.84994 23.1598 9.84994L23.1178 9.83594H23.0898L23.0338 9.82194H22.9638C22.7818 9.80794 22.5858 9.80794 22.3758 9.82194C21.9698 9.84994 21.5358 9.93394 21.1158 10.0319C20.6958 10.1299 20.2898 10.2559 19.8978 10.3679C19.7298 10.4239 19.5758 10.4799 19.4218 10.5219C19.4358 10.6479 19.4498 10.7599 19.4498 10.8859C19.4498 12.7059 17.9798 14.1759 16.1598 14.1759C14.3398 14.1759 12.8838 12.7059 12.8838 10.8859C12.8838 9.06594 14.3538 7.59594 16.1738 7.59594C17.3918 7.59594 18.4558 8.25394 19.0298 9.24794C19.1698 9.19194 19.3238 9.13594 19.4778 9.07994C19.8698 8.92594 20.3038 8.77194 20.7518 8.63194C21.2138 8.49194 21.6898 8.35194 22.2218 8.28194C22.4878 8.23994 22.7678 8.22594 23.0758 8.23994H23.1878C23.2298 8.23994 23.2718 8.25394 23.2998 8.25394H23.3978L23.4398 8.26794H23.4538L23.4958 8.28194C23.4958 8.28194 23.5238 8.28194 23.5378 8.29594L23.5938 8.30994C23.6778 8.33794 23.7198 8.35194 23.7758 8.37994C23.8318 8.40794 23.8738 8.42194 23.9298 8.44994C24.0278 8.50594 24.1118 8.56194 24.1958 8.61794C24.3498 8.74394 24.4758 8.86994 24.5738 8.99594C24.6858 9.12194 24.7698 9.24794 24.8538 9.37394C25.0218 9.62594 25.1478 9.86394 25.2598 10.1019C25.4838 10.5779 25.6658 11.0539 25.8058 11.5019L26.0158 12.1739C26.0858 12.3979 26.1278 12.6079 26.1838 12.8179C26.2118 12.9159 26.2398 13.0279 26.2538 13.1259C26.2818 13.2239 26.2958 13.3219 26.3238 13.4199C26.3658 13.6159 26.4078 13.8119 26.4498 13.9939C26.5058 14.2739 26.5478 14.5399 26.5898 14.7779C29.7258 15.0859 32.1198 15.4919 33.1978 16.5699C34.7798 18.1099 35.9978 25.1099 35.1998 33.9999H36.5998C37.3698 33.9999 37.9998 33.3699 37.9998 32.5999V7.39994C37.9998 6.62994 37.3698 5.99994 36.5998 5.99994Z" fill="#F7CF0D"/>
<path d="M22.7957 25.7119C22.6137 26.2159 22.4597 32.1099 24.1957 32.1099C25.9317 32.1099 25.9457 26.0619 25.8897 25.7119C25.8337 25.3759 22.9777 25.2219 22.7957 25.7119ZM20.4997 19.9999C19.3097 19.8319 18.5957 25.6279 20.2617 25.9639C21.8297 26.2719 21.6757 20.1679 20.4997 19.9999ZM28.3117 19.9999C27.1217 19.8319 26.4077 25.6279 28.0737 25.9639C29.6417 26.2719 29.5017 20.1679 28.3117 19.9999Z" fill="#F7CF0D"/>
</g>
</g>
<g filter="url(#filter1_d_18_2912)">
<path d="M47.5544 17.9999H46.2732L49.1521 9.99994H50.5466L53.4255 17.9999H52.1443L49.8826 11.4531H49.8201L47.5544 17.9999ZM47.7693 14.8671H51.9255V15.8827H47.7693V14.8671ZM58.8679 11.9999L56.6921 17.9999H55.4421L53.2624 11.9999H54.5164L56.0359 16.6171H56.0984L57.614 11.9999H58.8679ZM61.5398 18.1327C61.1596 18.1327 60.8158 18.0624 60.5085 17.9218C60.2012 17.7786 59.9578 17.5716 59.7781 17.3007C59.601 17.0299 59.5124 16.6979 59.5124 16.3046C59.5124 15.9661 59.5776 15.6874 59.7078 15.4687C59.838 15.2499 60.0137 15.0768 60.2351 14.9492C60.4565 14.8216 60.7039 14.7252 60.9773 14.6601C61.2507 14.595 61.5294 14.5455 61.8132 14.5117C62.1726 14.47 62.4643 14.4361 62.6882 14.4101C62.9122 14.3814 63.0749 14.3359 63.1765 14.2734C63.2781 14.2109 63.3289 14.1093 63.3289 13.9687V13.9413C63.3289 13.6002 63.2325 13.3359 63.0398 13.1484C62.8497 12.9609 62.5658 12.8671 62.1882 12.8671C61.795 12.8671 61.4851 12.9544 61.2585 13.1288C61.0346 13.3007 60.8796 13.4921 60.7937 13.7031L59.696 13.4531C59.8262 13.0885 60.0164 12.7942 60.2664 12.5702C60.519 12.3437 60.8093 12.1796 61.1374 12.0781C61.4656 11.9739 61.8106 11.9218 62.1726 11.9218C62.4122 11.9218 62.6661 11.9505 62.9343 12.0078C63.2052 12.0624 63.4578 12.164 63.6921 12.3124C63.9291 12.4609 64.1231 12.6731 64.2742 12.9492C64.4252 13.2226 64.5007 13.5781 64.5007 14.0156V17.9999H63.3601V17.1796H63.3132C63.2377 17.3307 63.1244 17.4791 62.9734 17.6249C62.8223 17.7708 62.6283 17.8919 62.3914 17.9882C62.1544 18.0846 61.8705 18.1327 61.5398 18.1327ZM61.7937 17.1952C62.1166 17.1952 62.3927 17.1314 62.6218 17.0038C62.8536 16.8762 63.0294 16.7096 63.1492 16.5038C63.2716 16.2955 63.3328 16.0729 63.3328 15.8359V15.0624C63.2911 15.1041 63.2104 15.1432 63.0906 15.1796C62.9734 15.2135 62.8393 15.2434 62.6882 15.2695C62.5372 15.2929 62.3901 15.315 62.2468 15.3359C62.1036 15.3541 61.9838 15.3697 61.8874 15.3827C61.6609 15.4114 61.4539 15.4596 61.2664 15.5273C61.0815 15.595 60.933 15.6926 60.821 15.8202C60.7117 15.9452 60.657 16.1119 60.657 16.3202C60.657 16.6093 60.7637 16.8281 60.9773 16.9765C61.1908 17.1223 61.463 17.1952 61.7937 17.1952ZM66.0564 17.9999V11.9999H67.2244V17.9999H66.0564ZM66.6462 11.0742C66.4431 11.0742 66.2686 11.0064 66.1228 10.871C65.9796 10.733 65.908 10.5689 65.908 10.3788C65.908 10.1861 65.9796 10.0221 66.1228 9.88666C66.2686 9.74864 66.4431 9.67963 66.6462 9.67963C66.8494 9.67963 67.0225 9.74864 67.1658 9.88666C67.3116 10.0221 67.3845 10.1861 67.3845 10.3788C67.3845 10.5689 67.3116 10.733 67.1658 10.871C67.0225 11.0064 66.8494 11.0742 66.6462 11.0742ZM69.9636 9.99994V17.9999H68.7956V9.99994H69.9636ZM73.281 18.1327C72.9008 18.1327 72.557 18.0624 72.2497 17.9218C71.9425 17.7786 71.699 17.5716 71.5193 17.3007C71.3422 17.0299 71.2537 16.6979 71.2537 16.3046C71.2537 15.9661 71.3188 15.6874 71.449 15.4687C71.5792 15.2499 71.755 15.0768 71.9763 14.9492C72.1977 14.8216 72.4451 14.7252 72.7185 14.6601C72.9919 14.595 73.2706 14.5455 73.5544 14.5117C73.9138 14.47 74.2055 14.4361 74.4294 14.4101C74.6534 14.3814 74.8162 14.3359 74.9177 14.2734C75.0193 14.2109 75.0701 14.1093 75.0701 13.9687V13.9413C75.0701 13.6002 74.9737 13.3359 74.781 13.1484C74.5909 12.9609 74.307 12.8671 73.9294 12.8671C73.5362 12.8671 73.2263 12.9544 72.9997 13.1288C72.7758 13.3007 72.6208 13.4921 72.5349 13.7031L71.4372 13.4531C71.5675 13.0885 71.7576 12.7942 72.0076 12.5702C72.2602 12.3437 72.5505 12.1796 72.8787 12.0781C73.2068 11.9739 73.5518 11.9218 73.9138 11.9218C74.1534 11.9218 74.4073 11.9505 74.6755 12.0078C74.9464 12.0624 75.199 12.164 75.4333 12.3124C75.6703 12.4609 75.8643 12.6731 76.0154 12.9492C76.1664 13.2226 76.2419 13.5781 76.2419 14.0156V17.9999H75.1013V17.1796H75.0544C74.9789 17.3307 74.8656 17.4791 74.7146 17.6249C74.5635 17.7708 74.3695 17.8919 74.1326 17.9882C73.8956 18.0846 73.6117 18.1327 73.281 18.1327ZM73.5349 17.1952C73.8578 17.1952 74.1339 17.1314 74.363 17.0038C74.5948 16.8762 74.7706 16.7096 74.8904 16.5038C75.0128 16.2955 75.074 16.0729 75.074 15.8359V15.0624C75.0323 15.1041 74.9516 15.1432 74.8318 15.1796C74.7146 15.2135 74.5805 15.2434 74.4294 15.2695C74.2784 15.2929 74.1313 15.315 73.988 15.3359C73.8448 15.3541 73.725 15.3697 73.6287 15.3827C73.4021 15.4114 73.1951 15.4596 73.0076 15.5273C72.8227 15.595 72.6742 15.6926 72.5622 15.8202C72.4529 15.9452 72.3982 16.1119 72.3982 16.3202C72.3982 16.6093 72.505 16.8281 72.7185 16.9765C72.932 17.1223 73.2042 17.1952 73.5349 17.1952ZM77.8913 17.9999V9.99994H79.0593V12.9726H79.1296C79.1973 12.8476 79.295 12.7031 79.4226 12.539C79.5502 12.3749 79.7273 12.2317 79.9538 12.1093C80.1804 11.9843 80.4799 11.9218 80.8523 11.9218C81.3367 11.9218 81.769 12.0442 82.1492 12.289C82.5294 12.5338 82.8275 12.8867 83.0437 13.3476C83.2624 13.8085 83.3718 14.3632 83.3718 15.0117C83.3718 15.6601 83.2637 16.2161 83.0476 16.6796C82.8315 17.1406 82.5346 17.496 82.157 17.746C81.7794 17.9934 81.3484 18.1171 80.864 18.1171C80.4994 18.1171 80.2012 18.0559 79.9695 17.9335C79.7403 17.8111 79.5606 17.6679 79.4304 17.5038C79.3002 17.3398 79.1999 17.1939 79.1296 17.0663H79.032V17.9999H77.8913ZM79.0359 14.9999C79.0359 15.4218 79.0971 15.7916 79.2195 16.1093C79.3419 16.427 79.519 16.6757 79.7507 16.8554C79.9825 17.0325 80.2663 17.121 80.6023 17.121C80.9512 17.121 81.2429 17.0286 81.4773 16.8437C81.7117 16.6562 81.8887 16.4023 82.0085 16.082C82.1309 15.7617 82.1921 15.401 82.1921 14.9999C82.1921 14.6041 82.1322 14.2486 82.0124 13.9335C81.8953 13.6184 81.7182 13.3697 81.4812 13.1874C81.2468 13.0051 80.9538 12.914 80.6023 12.914C80.2637 12.914 79.9773 13.0012 79.7429 13.1757C79.5111 13.3502 79.3354 13.5937 79.2156 13.9062C79.0958 14.2187 79.0359 14.5833 79.0359 14.9999ZM85.8513 9.99994V17.9999H84.6833V9.99994H85.8513ZM90.0085 18.121C89.4174 18.121 88.9083 17.9947 88.4812 17.7421C88.0567 17.4869 87.7286 17.1288 87.4968 16.6679C87.2676 16.2044 87.1531 15.6614 87.1531 15.039C87.1531 14.4244 87.2676 13.8827 87.4968 13.414C87.7286 12.9452 88.0515 12.5794 88.4656 12.3163C88.8822 12.0533 89.3692 11.9218 89.9265 11.9218C90.265 11.9218 90.5932 11.9778 90.9109 12.0898C91.2286 12.2018 91.5137 12.3775 91.7663 12.6171C92.0189 12.8567 92.2182 13.1679 92.364 13.5507C92.5098 13.9309 92.5828 14.3932 92.5828 14.9374V15.3515H87.8132V14.4765H91.4382C91.4382 14.1692 91.3757 13.8971 91.2507 13.6601C91.1257 13.4205 90.9499 13.2317 90.7234 13.0937C90.4994 12.9557 90.2364 12.8867 89.9343 12.8867C89.6062 12.8867 89.3197 12.9674 89.0749 13.1288C88.8328 13.2877 88.6453 13.496 88.5124 13.7538C88.3822 14.0091 88.3171 14.2864 88.3171 14.5859V15.2695C88.3171 15.6705 88.3874 16.0117 88.5281 16.2929C88.6713 16.5742 88.8705 16.789 89.1257 16.9374C89.3809 17.0833 89.6791 17.1562 90.0203 17.1562C90.2416 17.1562 90.4434 17.1249 90.6257 17.0624C90.808 16.9973 90.9656 16.901 91.0984 16.7734C91.2312 16.6458 91.3328 16.4882 91.4031 16.3007L92.5085 16.4999C92.42 16.8255 92.2611 17.1106 92.032 17.3554C91.8054 17.5976 91.5203 17.7864 91.1765 17.9218C90.8354 18.0546 90.446 18.121 90.0085 18.121ZM99.6452 11.9999V12.9374H96.2546V11.9999H99.6452ZM97.1843 17.9999V11.3046C97.1843 10.9296 97.2663 10.6184 97.4304 10.371C97.5945 10.121 97.8119 9.93483 98.0827 9.81244C98.3536 9.68744 98.6479 9.62494 98.9656 9.62494C99.1999 9.62494 99.4005 9.64447 99.5671 9.68353C99.7338 9.71999 99.8575 9.75384 99.9382 9.78509L99.6648 10.7304C99.6101 10.7148 99.5398 10.6966 99.4538 10.6757C99.3679 10.6523 99.2637 10.6406 99.1413 10.6406C98.8575 10.6406 98.6544 10.7109 98.532 10.8515C98.4122 10.9921 98.3523 11.1953 98.3523 11.4609V17.9999H97.1843ZM103.141 18.121C102.579 18.121 102.088 17.9921 101.669 17.7343C101.249 17.4765 100.924 17.1158 100.692 16.6523C100.46 16.1887 100.344 15.6471 100.344 15.0273C100.344 14.4049 100.46 13.8606 100.692 13.3945C100.924 12.9283 101.249 12.5663 101.669 12.3085C102.088 12.0507 102.579 11.9218 103.141 11.9218C103.704 11.9218 104.195 12.0507 104.614 12.3085C105.033 12.5663 105.359 12.9283 105.591 13.3945C105.822 13.8606 105.938 14.4049 105.938 15.0273C105.938 15.6471 105.822 16.1887 105.591 16.6523C105.359 17.1158 105.033 17.4765 104.614 17.7343C104.195 17.9921 103.704 18.121 103.141 18.121ZM103.145 17.1406C103.51 17.1406 103.812 17.0442 104.051 16.8515C104.291 16.6588 104.468 16.4023 104.583 16.082C104.7 15.7617 104.759 15.4088 104.759 15.0234C104.759 14.6406 104.7 14.289 104.583 13.9687C104.468 13.6458 104.291 13.3867 104.051 13.1913C103.812 12.996 103.51 12.8984 103.145 12.8984C102.778 12.8984 102.473 12.996 102.231 13.1913C101.992 13.3867 101.813 13.6458 101.696 13.9687C101.581 14.289 101.524 14.6406 101.524 15.0234C101.524 15.4088 101.581 15.7617 101.696 16.082C101.813 16.4023 101.992 16.6588 102.231 16.8515C102.473 17.0442 102.778 17.1406 103.145 17.1406ZM107.242 17.9999V11.9999H108.371V12.9531H108.433C108.543 12.6301 108.735 12.3762 109.011 12.1913C109.29 12.0038 109.605 11.9101 109.957 11.9101C110.03 11.9101 110.116 11.9127 110.215 11.9179C110.316 11.9231 110.396 11.9296 110.453 11.9374V13.0546C110.406 13.0416 110.323 13.0273 110.203 13.0117C110.083 12.9934 109.963 12.9843 109.843 12.9843C109.567 12.9843 109.321 13.0429 109.105 13.1601C108.892 13.2747 108.722 13.4348 108.597 13.6406C108.472 13.8437 108.41 14.0755 108.41 14.3359V17.9999H107.242Z" fill="#E8E8E8"/>
<path d="M51.3776 24.8891C51.3492 24.5766 51.2228 24.3337 50.9983 24.1604C50.7767 23.9843 50.46 23.8962 50.0481 23.8962C49.7753 23.8962 49.5481 23.9318 49.3662 24.0028C49.1844 24.0738 49.0481 24.1718 48.9571 24.2968C48.8662 24.419 48.8194 24.5596 48.8165 24.7187C48.8108 24.8494 48.8364 24.9644 48.8932 25.0639C48.9529 25.1633 49.0381 25.2514 49.1489 25.3281C49.2625 25.4019 49.3989 25.4673 49.558 25.5241C49.7171 25.5809 49.8961 25.6306 50.0949 25.6732L50.8449 25.8437C51.2767 25.9374 51.6574 26.0624 51.987 26.2187C52.3194 26.3749 52.5978 26.561 52.8222 26.7769C53.0495 26.9928 53.2213 27.2414 53.3378 27.5227C53.4543 27.8039 53.514 28.1193 53.5168 28.4687C53.514 29.0198 53.3748 29.4928 53.0992 29.8877C52.8236 30.2826 52.4273 30.5852 51.9103 30.7954C51.3961 31.0056 50.7753 31.1107 50.0481 31.1107C49.3179 31.1107 48.6816 31.0014 48.139 30.7826C47.5963 30.5639 47.1745 30.2315 46.8733 29.7854C46.5722 29.3394 46.4174 28.7755 46.4088 28.0937H48.4287C48.4458 28.3749 48.5211 28.6093 48.6546 28.7968C48.7881 28.9843 48.9713 29.1264 49.2043 29.2229C49.4401 29.3195 49.7128 29.3678 50.0225 29.3678C50.3066 29.3678 50.5481 29.3295 50.7469 29.2528C50.9486 29.1761 51.1034 29.0695 51.2114 28.9332C51.3194 28.7968 51.3748 28.6406 51.3776 28.4644C51.3748 28.2997 51.3236 28.159 51.2242 28.0426C51.1248 27.9232 50.9713 27.821 50.764 27.7357C50.5594 27.6477 50.2981 27.5667 49.9799 27.4928L49.0679 27.2798C48.3123 27.1065 47.7171 26.8266 47.2824 26.4403C46.8478 26.0511 46.6319 25.5255 46.6347 24.8636C46.6319 24.3238 46.7767 23.8508 47.0694 23.4445C47.362 23.0383 47.7668 22.7215 48.2838 22.4943C48.8009 22.267 49.3904 22.1533 50.0523 22.1533C50.7284 22.1533 51.3151 22.2684 51.8123 22.4985C52.3123 22.7258 52.7 23.0454 52.9756 23.4573C53.2512 23.8693 53.3918 24.3465 53.3975 24.8891H51.3776ZM54.5821 33.4545V24.4545H56.6446V25.5752H56.7086C56.7938 25.3764 56.9145 25.1846 57.0708 24.9999C57.2299 24.8153 57.4316 24.6647 57.6759 24.5482C57.923 24.4289 58.2185 24.3693 58.5623 24.3693C59.0168 24.3693 59.4415 24.4886 59.8364 24.7272C60.2341 24.9658 60.5551 25.3337 60.7995 25.8309C61.0438 26.3281 61.1659 26.9616 61.1659 27.7315C61.1659 28.4729 61.048 29.0937 60.8123 29.5937C60.5793 30.0937 60.264 30.4687 59.8662 30.7187C59.4713 30.9687 59.0324 31.0937 58.5495 31.0937C58.2199 31.0937 57.9344 31.0397 57.6929 30.9318C57.4515 30.8238 57.2483 30.6818 57.0836 30.5056C56.9216 30.3295 56.7966 30.1406 56.7086 29.9389H56.6659V33.4545H54.5821ZM56.6233 27.7272C56.6233 28.0795 56.6702 28.3863 56.764 28.6477C56.8605 28.909 56.9983 29.1122 57.1773 29.257C57.3591 29.3991 57.5765 29.4701 57.8293 29.4701C58.085 29.4701 58.3023 29.3991 58.4813 29.257C58.6603 29.1122 58.7952 28.909 58.8861 28.6477C58.9799 28.3863 59.0267 28.0795 59.0267 27.7272C59.0267 27.3749 58.9799 27.0695 58.8861 26.811C58.7952 26.5525 58.6603 26.3522 58.4813 26.2102C58.3052 26.0681 58.0878 25.9971 57.8293 25.9971C57.5736 25.9971 57.3563 26.0667 57.1773 26.2059C56.9983 26.3451 56.8605 26.544 56.764 26.8025C56.6702 27.061 56.6233 27.3693 56.6233 27.7272ZM65.3133 31.1235C64.6258 31.1235 64.0349 30.9829 63.5406 30.7016C63.0491 30.4175 62.6699 30.0227 62.4028 29.517C62.1386 29.0085 62.0065 28.419 62.0065 27.7485C62.0065 27.0752 62.1386 26.4857 62.4028 25.9801C62.6699 25.4715 63.0491 25.0766 63.5406 24.7954C64.0349 24.5113 64.6258 24.3693 65.3133 24.3693C66.0008 24.3693 66.5903 24.5113 67.0818 24.7954C67.5761 25.0766 67.9554 25.4715 68.2196 25.9801C68.4866 26.4857 68.6201 27.0752 68.6201 27.7485C68.6201 28.419 68.4866 29.0085 68.2196 29.517C67.9554 30.0227 67.5761 30.4175 67.0818 30.7016C66.5903 30.9829 66.0008 31.1235 65.3133 31.1235ZM65.3261 29.5511C65.5761 29.5511 65.7877 29.4744 65.961 29.321C66.1343 29.1675 66.2664 28.9545 66.3573 28.6818C66.4511 28.409 66.498 28.0937 66.498 27.7357C66.498 27.3721 66.4511 27.0539 66.3573 26.7812C66.2664 26.5085 66.1343 26.2954 65.961 26.142C65.7877 25.9886 65.5761 25.9119 65.3261 25.9119C65.0676 25.9119 64.8488 25.9886 64.6698 26.142C64.4937 26.2954 64.3588 26.5085 64.265 26.7812C64.1741 27.0539 64.1287 27.3721 64.1287 27.7357C64.1287 28.0937 64.1741 28.409 64.265 28.6818C64.3588 28.9545 64.4937 29.1675 64.6698 29.321C64.8488 29.4744 65.0676 29.5511 65.3261 29.5511ZM71.7714 27.267V30.9999H69.6876V24.4545H71.6691V25.6562H71.7416C71.8865 25.2556 72.1336 24.9417 72.4831 24.7144C72.8325 24.4843 73.2487 24.3693 73.7316 24.3693C74.1919 24.3693 74.591 24.4729 74.9291 24.6803C75.27 24.8849 75.5342 25.1718 75.7217 25.5411C75.912 25.9076 76.0058 26.3366 76.0029 26.8281V30.9999H73.9191V27.2372C73.922 26.8735 73.8296 26.5894 73.6421 26.3849C73.4575 26.1803 73.2004 26.0781 72.8708 26.0781C72.6521 26.0781 72.4589 26.1264 72.2913 26.2229C72.1265 26.3167 71.9987 26.4516 71.9078 26.6278C71.8197 26.8039 71.7743 27.017 71.7714 27.267ZM80.3442 33.5908C79.722 33.5908 79.1894 33.5042 78.7462 33.3309C78.303 33.1576 77.955 32.9204 77.7022 32.6193C77.4493 32.3181 77.2973 31.9772 77.2462 31.5965L79.2192 31.4857C79.2561 31.6193 79.3243 31.7357 79.4238 31.8352C79.526 31.9346 79.6581 32.0113 79.8201 32.0653C79.9848 32.1193 80.178 32.1462 80.3996 32.1462C80.749 32.1462 81.0374 32.061 81.2647 31.8906C81.4948 31.7229 81.6098 31.4289 81.6098 31.0085V29.8579H81.5374C81.455 30.0596 81.33 30.24 81.1624 30.3991C80.9948 30.5582 80.786 30.6832 80.536 30.7741C80.2888 30.865 80.0047 30.9104 79.6837 30.9104C79.2064 30.9104 78.7689 30.7997 78.3712 30.5781C77.9763 30.3536 77.6595 30.007 77.4209 29.5383C77.1851 29.0667 77.0672 28.4602 77.0672 27.7187C77.0672 26.9545 77.1894 26.3252 77.4337 25.8309C77.678 25.3337 77.9976 24.9658 78.3925 24.7272C78.7902 24.4886 79.2178 24.3693 79.6752 24.3693C80.0189 24.3693 80.313 24.4289 80.5573 24.5482C80.8044 24.6647 81.0076 24.8153 81.1666 24.9999C81.3257 25.1846 81.4465 25.3764 81.5289 25.5752H81.5885V24.4545H83.6638V31.0255C83.6638 31.5795 83.5246 32.0468 83.2462 32.4275C82.9678 32.8082 82.5786 33.0965 82.0786 33.2925C81.5786 33.4914 81.0005 33.5908 80.3442 33.5908ZM80.4081 29.3934C80.661 29.3934 80.8769 29.3266 81.0559 29.1931C81.2348 29.0596 81.3726 28.8678 81.4692 28.6178C81.5658 28.3678 81.6141 28.0681 81.6141 27.7187C81.6141 27.3636 81.5658 27.0582 81.4692 26.8025C81.3755 26.544 81.2377 26.3451 81.0559 26.2059C80.8769 26.0667 80.661 25.9971 80.4081 25.9971C80.1496 25.9971 79.9309 26.0681 79.7519 26.2102C79.5729 26.3522 79.4365 26.5525 79.3428 26.811C79.2519 27.0667 79.2064 27.3693 79.2064 27.7187C79.2064 28.0681 79.2533 28.3678 79.347 28.6178C79.4408 28.8678 79.5757 29.0596 79.7519 29.1931C79.9309 29.3266 80.1496 29.3934 80.4081 29.3934ZM88.0519 31.1235C87.3673 31.1235 86.7764 30.9886 86.2792 30.7187C85.7849 30.446 85.4042 30.0582 85.1372 29.5553C84.873 29.0497 84.7409 28.4488 84.7409 27.7528C84.7409 27.0766 84.8744 26.4857 85.1414 25.9801C85.4085 25.4715 85.7849 25.0766 86.2707 24.7954C86.7565 24.5113 87.3289 24.3693 87.988 24.3693C88.4539 24.3693 88.8801 24.4417 89.2664 24.5866C89.6528 24.7315 89.9866 24.946 90.2679 25.2301C90.5491 25.5141 90.7679 25.865 90.9241 26.2826C91.0804 26.6974 91.1585 27.1732 91.1585 27.7102V28.2301H85.4696V27.0198H89.2196C89.2167 26.7982 89.1642 26.6008 89.0619 26.4275C88.9596 26.2542 88.819 26.1193 88.64 26.0227C88.4639 25.9232 88.2608 25.8735 88.0306 25.8735C87.7977 25.8735 87.5889 25.9261 87.4042 26.0312C87.2196 26.1335 87.0733 26.2741 86.9653 26.4531C86.8573 26.6292 86.8005 26.8295 86.7948 27.0539V28.2854C86.7948 28.5525 86.8474 28.7869 86.9525 28.9886C87.0576 29.1874 87.2068 29.3423 87.4 29.4531C87.5931 29.5639 87.8233 29.6193 88.0903 29.6193C88.275 29.6193 88.4426 29.5937 88.5931 29.5425C88.7437 29.4914 88.873 29.4161 88.9809 29.3167C89.0889 29.2173 89.1698 29.0951 89.2238 28.9502L91.1372 29.0056C91.0576 29.4346 90.8829 29.8082 90.613 30.1264C90.346 30.4417 89.9951 30.6874 89.5605 30.8636C89.1258 31.0369 88.623 31.1235 88.0519 31.1235Z" fill="#F7CF0D"/>
</g>
<rect x="0.749756" y="0.749939" width="119.5" height="38.5" rx="5.25" stroke="white" stroke-opacity="0.15" stroke-width="1.5"/>
<defs>
<filter id="filter0_d_18_2912" x="5.99976" y="1.99994" width="36" height="36" filterUnits="userSpaceOnUse" color-interpolation-filters="sRGB">
<feFlood flood-opacity="0" result="BackgroundImageFix"/>
<feColorMatrix in="SourceAlpha" type="matrix" values="0 0 0 0 0 0 0 0 0 0 0 0 0 0 0 0 0 0 127 0" result="hardAlpha"/>
<feOffset/>
<feGaussianBlur stdDeviation="2"/>
<feComposite in2="hardAlpha" operator="out"/>
<feColorMatrix type="matrix" values="0 0 0 0 0 0 0 0 0 0 0 0 0 0 0 0 0 0 0.25 0"/>
<feBlend mode="normal" in2="BackgroundImageFix" result="effect1_dropShadow_18_2912"/>
<feBlend mode="normal" in="SourceGraphic" in2="effect1_dropShadow_18_2912" result="shape"/>
</filter>
<filter id="filter1_d_18_2912" x="41.9998" y="2.99994" width="73" height="34.5909" filterUnits="userSpaceOnUse" color-interpolation-filters="sRGB">
<feFlood flood-opacity="0" result="BackgroundImageFix"/>
<feColorMatrix in="SourceAlpha" type="matrix" values="0 0 0 0 0 0 0 0 0 0 0 0 0 0 0 0 0 0 127 0" result="hardAlpha"/>
<feOffset/>
<feGaussianBlur stdDeviation="2"/>
<feComposite in2="hardAlpha" operator="out"/>
<feColorMatrix type="matrix" values="0 0 0 0 0 0 0 0 0 0 0 0 0 0 0 0 0 0 0.25 0"/>
<feBlend mode="normal" in2="BackgroundImageFix" result="effect1_dropShadow_18_2912"/>
<feBlend mode="normal" in="SourceGraphic" in2="effect1_dropShadow_18_2912" result="shape"/>
</filter>
<linearGradient id="paint0_linear_18_2912" x1="60.4997" y1="-6.10351e-05" x2="60.4997" y2="39.9999" gradientUnits="userSpaceOnUse">
<stop stop-color="#353518"/>
<stop offset="1" stop-color="#241F10"/>
</linearGradient>
<clipPath id="clip0_18_2912">
<rect width="28" height="28" fill="white" transform="translate(9.99976 5.99994)"/>
</clipPath>
</defs>
</svg>
