<svg width="128" height="40" viewBox="0 0 128 40" fill="none" xmlns="http://www.w3.org/2000/svg">
<rect x="-0.000244141" y="-6.10352e-05" width="128" height="40" rx="6" fill="url(#paint0_linear_22_133)"/>
<g filter="url(#filter0_d_22_133)">
<path d="M22.6036 33.9424C20.4468 33.7359 18.2632 32.9618 16.3874 31.7386C14.8155 30.7136 14.4605 30.2922 14.4605 29.4513C14.4605 27.7622 16.3187 24.8038 19.498 21.4313C21.3036 19.5159 23.8187 17.2708 24.0907 17.3316C24.6193 17.4498 28.8467 21.571 30.4293 23.5111C32.9318 26.579 34.0823 29.0909 33.4978 30.2107C33.0535 31.062 30.2966 32.7259 28.2712 33.3651C26.6019 33.8919 24.4096 34.1152 22.6036 33.9424V33.9424ZM12.3375 27.6952C11.0313 25.6924 10.3714 23.7206 10.0527 20.8689C9.94753 19.9272 9.98523 19.3886 10.2916 17.4558C10.6735 15.0468 12.0462 12.26 13.6955 10.5449C14.3979 9.8144 14.4607 9.7966 15.3169 10.0849C16.3567 10.435 17.4672 11.2015 19.1893 12.7578L20.1941 13.6659L19.6454 14.3396C17.0984 17.4669 14.4097 21.8998 13.3963 24.6423C12.8455 26.1332 12.6233 27.6298 12.8603 28.2529C13.0203 28.6736 12.8733 28.5168 12.3375 27.6952ZM35.2654 28.0358C35.3945 27.4062 35.2313 26.25 34.8488 25.0838C34.0204 22.5582 31.2515 17.8597 28.7089 14.6653L27.9085 13.6596L28.7745 12.865C29.9051 11.8274 30.6901 11.2061 31.5371 10.6784C32.2055 10.2621 33.1606 9.89348 33.5712 9.89348C33.8243 9.89348 34.7155 10.8178 35.4348 11.8265C36.549 13.3887 37.3687 15.2825 37.7839 17.254C38.0523 18.5278 38.0746 21.2545 37.8272 22.5252C37.6241 23.568 37.1953 24.9207 36.777 25.8381C36.4636 26.5255 35.684 27.8605 35.3424 28.2949C35.1668 28.5182 35.1666 28.5177 35.2654 28.0358H35.2654ZM22.8346 9.41657C21.6614 8.82116 19.8516 8.18202 18.8519 8.01006C18.5014 7.94978 17.9036 7.91616 17.5233 7.93535C16.6985 7.97698 16.7353 7.93387 18.0585 7.30905C19.1586 6.78959 20.0763 6.48412 21.322 6.2227C22.7233 5.92862 25.3574 5.92517 26.7364 6.2156C28.2258 6.5293 29.9797 7.18163 30.968 7.78949L31.2618 7.97015L30.5878 7.93614C29.2486 7.86855 27.2969 8.40929 25.2015 9.42849C24.5694 9.7359 24.0196 9.98143 23.9796 9.9741C23.9395 9.96677 23.4243 9.71588 22.8346 9.41657V9.41657Z" fill="white"/>
</g>
<g filter="url(#filter1_d_22_133)">
<path d="M47.5544 17.9999H46.2732L49.1521 9.99994H50.5466L53.4255 17.9999H52.1443L49.8826 11.4531H49.8201L47.5544 17.9999ZM47.7693 14.8671H51.9255V15.8827H47.7693V14.8671ZM58.8679 11.9999L56.6921 17.9999H55.4421L53.2624 11.9999H54.5164L56.0359 16.6171H56.0984L57.614 11.9999H58.8679ZM61.5398 18.1327C61.1596 18.1327 60.8158 18.0624 60.5085 17.9218C60.2012 17.7786 59.9578 17.5716 59.7781 17.3007C59.601 17.0299 59.5124 16.6979 59.5124 16.3046C59.5124 15.9661 59.5776 15.6874 59.7078 15.4687C59.838 15.2499 60.0137 15.0768 60.2351 14.9492C60.4565 14.8216 60.7039 14.7252 60.9773 14.6601C61.2507 14.595 61.5294 14.5455 61.8132 14.5117C62.1726 14.47 62.4643 14.4361 62.6882 14.4101C62.9122 14.3814 63.0749 14.3359 63.1765 14.2734C63.2781 14.2109 63.3289 14.1093 63.3289 13.9687V13.9413C63.3289 13.6002 63.2325 13.3359 63.0398 13.1484C62.8497 12.9609 62.5658 12.8671 62.1882 12.8671C61.795 12.8671 61.4851 12.9544 61.2585 13.1288C61.0346 13.3007 60.8796 13.4921 60.7937 13.7031L59.696 13.4531C59.8262 13.0885 60.0164 12.7942 60.2664 12.5702C60.519 12.3437 60.8093 12.1796 61.1374 12.0781C61.4656 11.9739 61.8106 11.9218 62.1726 11.9218C62.4122 11.9218 62.6661 11.9505 62.9343 12.0078C63.2052 12.0624 63.4578 12.164 63.6921 12.3124C63.9291 12.4609 64.1231 12.6731 64.2742 12.9492C64.4252 13.2226 64.5007 13.5781 64.5007 14.0156V17.9999H63.3601V17.1796H63.3132C63.2377 17.3307 63.1244 17.4791 62.9734 17.6249C62.8223 17.7708 62.6283 17.8919 62.3914 17.9882C62.1544 18.0846 61.8705 18.1327 61.5398 18.1327ZM61.7937 17.1952C62.1166 17.1952 62.3927 17.1314 62.6218 17.0038C62.8536 16.8762 63.0294 16.7096 63.1492 16.5038C63.2716 16.2955 63.3328 16.0729 63.3328 15.8359V15.0624C63.2911 15.1041 63.2104 15.1432 63.0906 15.1796C62.9734 15.2135 62.8393 15.2434 62.6882 15.2695C62.5372 15.2929 62.3901 15.315 62.2468 15.3359C62.1036 15.3541 61.9838 15.3697 61.8874 15.3827C61.6609 15.4114 61.4539 15.4596 61.2664 15.5273C61.0815 15.595 60.933 15.6926 60.821 15.8202C60.7117 15.9452 60.657 16.1119 60.657 16.3202C60.657 16.6093 60.7637 16.8281 60.9773 16.9765C61.1908 17.1223 61.463 17.1952 61.7937 17.1952ZM66.0564 17.9999V11.9999H67.2244V17.9999H66.0564ZM66.6462 11.0742C66.4431 11.0742 66.2686 11.0064 66.1228 10.871C65.9796 10.733 65.908 10.5689 65.908 10.3788C65.908 10.1861 65.9796 10.0221 66.1228 9.88666C66.2686 9.74864 66.4431 9.67963 66.6462 9.67963C66.8494 9.67963 67.0225 9.74864 67.1658 9.88666C67.3116 10.0221 67.3845 10.1861 67.3845 10.3788C67.3845 10.5689 67.3116 10.733 67.1658 10.871C67.0225 11.0064 66.8494 11.0742 66.6462 11.0742ZM69.9636 9.99994V17.9999H68.7956V9.99994H69.9636ZM73.281 18.1327C72.9008 18.1327 72.557 18.0624 72.2497 17.9218C71.9425 17.7786 71.699 17.5716 71.5193 17.3007C71.3422 17.0299 71.2537 16.6979 71.2537 16.3046C71.2537 15.9661 71.3188 15.6874 71.449 15.4687C71.5792 15.2499 71.755 15.0768 71.9763 14.9492C72.1977 14.8216 72.4451 14.7252 72.7185 14.6601C72.9919 14.595 73.2706 14.5455 73.5544 14.5117C73.9138 14.47 74.2055 14.4361 74.4294 14.4101C74.6534 14.3814 74.8162 14.3359 74.9177 14.2734C75.0193 14.2109 75.0701 14.1093 75.0701 13.9687V13.9413C75.0701 13.6002 74.9737 13.3359 74.781 13.1484C74.5909 12.9609 74.307 12.8671 73.9294 12.8671C73.5362 12.8671 73.2263 12.9544 72.9997 13.1288C72.7758 13.3007 72.6208 13.4921 72.5349 13.7031L71.4372 13.4531C71.5675 13.0885 71.7576 12.7942 72.0076 12.5702C72.2602 12.3437 72.5505 12.1796 72.8787 12.0781C73.2068 11.9739 73.5518 11.9218 73.9138 11.9218C74.1534 11.9218 74.4073 11.9505 74.6755 12.0078C74.9464 12.0624 75.199 12.164 75.4333 12.3124C75.6703 12.4609 75.8643 12.6731 76.0154 12.9492C76.1664 13.2226 76.2419 13.5781 76.2419 14.0156V17.9999H75.1013V17.1796H75.0544C74.9789 17.3307 74.8656 17.4791 74.7146 17.6249C74.5635 17.7708 74.3695 17.8919 74.1326 17.9882C73.8956 18.0846 73.6117 18.1327 73.281 18.1327ZM73.5349 17.1952C73.8578 17.1952 74.1339 17.1314 74.363 17.0038C74.5948 16.8762 74.7706 16.7096 74.8904 16.5038C75.0128 16.2955 75.074 16.0729 75.074 15.8359V15.0624C75.0323 15.1041 74.9516 15.1432 74.8318 15.1796C74.7146 15.2135 74.5805 15.2434 74.4294 15.2695C74.2784 15.2929 74.1313 15.315 73.988 15.3359C73.8448 15.3541 73.725 15.3697 73.6287 15.3827C73.4021 15.4114 73.1951 15.4596 73.0076 15.5273C72.8227 15.595 72.6742 15.6926 72.5622 15.8202C72.4529 15.9452 72.3982 16.1119 72.3982 16.3202C72.3982 16.6093 72.505 16.8281 72.7185 16.9765C72.932 17.1223 73.2042 17.1952 73.5349 17.1952ZM77.8913 17.9999V9.99994H79.0593V12.9726H79.1296C79.1973 12.8476 79.295 12.7031 79.4226 12.539C79.5502 12.3749 79.7273 12.2317 79.9538 12.1093C80.1804 11.9843 80.4799 11.9218 80.8523 11.9218C81.3367 11.9218 81.769 12.0442 82.1492 12.289C82.5294 12.5338 82.8275 12.8867 83.0437 13.3476C83.2624 13.8085 83.3718 14.3632 83.3718 15.0117C83.3718 15.6601 83.2637 16.2161 83.0476 16.6796C82.8315 17.1406 82.5346 17.496 82.157 17.746C81.7794 17.9934 81.3484 18.1171 80.864 18.1171C80.4994 18.1171 80.2012 18.0559 79.9695 17.9335C79.7403 17.8111 79.5606 17.6679 79.4304 17.5038C79.3002 17.3398 79.1999 17.1939 79.1296 17.0663H79.032V17.9999H77.8913ZM79.0359 14.9999C79.0359 15.4218 79.0971 15.7916 79.2195 16.1093C79.3419 16.427 79.519 16.6757 79.7507 16.8554C79.9825 17.0325 80.2663 17.121 80.6023 17.121C80.9512 17.121 81.2429 17.0286 81.4773 16.8437C81.7117 16.6562 81.8887 16.4023 82.0085 16.082C82.1309 15.7617 82.1921 15.401 82.1921 14.9999C82.1921 14.6041 82.1322 14.2486 82.0124 13.9335C81.8953 13.6184 81.7182 13.3697 81.4812 13.1874C81.2468 13.0051 80.9538 12.914 80.6023 12.914C80.2637 12.914 79.9773 13.0012 79.7429 13.1757C79.5111 13.3502 79.3354 13.5937 79.2156 13.9062C79.0958 14.2187 79.0359 14.5833 79.0359 14.9999ZM85.8513 9.99994V17.9999H84.6833V9.99994H85.8513ZM90.0085 18.121C89.4174 18.121 88.9083 17.9947 88.4812 17.7421C88.0567 17.4869 87.7286 17.1288 87.4968 16.6679C87.2676 16.2044 87.1531 15.6614 87.1531 15.039C87.1531 14.4244 87.2676 13.8827 87.4968 13.414C87.7286 12.9452 88.0515 12.5794 88.4656 12.3163C88.8822 12.0533 89.3692 11.9218 89.9265 11.9218C90.265 11.9218 90.5932 11.9778 90.9109 12.0898C91.2286 12.2018 91.5137 12.3775 91.7663 12.6171C92.0189 12.8567 92.2182 13.1679 92.364 13.5507C92.5098 13.9309 92.5828 14.3932 92.5828 14.9374V15.3515H87.8132V14.4765H91.4382C91.4382 14.1692 91.3757 13.8971 91.2507 13.6601C91.1257 13.4205 90.9499 13.2317 90.7234 13.0937C90.4994 12.9557 90.2364 12.8867 89.9343 12.8867C89.6062 12.8867 89.3197 12.9674 89.0749 13.1288C88.8328 13.2877 88.6453 13.496 88.5124 13.7538C88.3822 14.0091 88.3171 14.2864 88.3171 14.5859V15.2695C88.3171 15.6705 88.3874 16.0117 88.5281 16.2929C88.6713 16.5742 88.8705 16.789 89.1257 16.9374C89.3809 17.0833 89.6791 17.1562 90.0203 17.1562C90.2416 17.1562 90.4434 17.1249 90.6257 17.0624C90.808 16.9973 90.9656 16.901 91.0984 16.7734C91.2312 16.6458 91.3328 16.4882 91.4031 16.3007L92.5085 16.4999C92.42 16.8255 92.2611 17.1106 92.032 17.3554C91.8054 17.5976 91.5203 17.7864 91.1765 17.9218C90.8354 18.0546 90.446 18.121 90.0085 18.121ZM99.3171 18.121C98.7546 18.121 98.2637 17.9921 97.8445 17.7343C97.4252 17.4765 97.0997 17.1158 96.8679 16.6523C96.6361 16.1887 96.5202 15.6471 96.5202 15.0273C96.5202 14.4049 96.6361 13.8606 96.8679 13.3945C97.0997 12.9283 97.4252 12.5663 97.8445 12.3085C98.2637 12.0507 98.7546 11.9218 99.3171 11.9218C99.8796 11.9218 100.371 12.0507 100.79 12.3085C101.209 12.5663 101.535 12.9283 101.766 13.3945C101.998 13.8606 102.114 14.4049 102.114 15.0273C102.114 15.6471 101.998 16.1887 101.766 16.6523C101.535 17.1158 101.209 17.4765 100.79 17.7343C100.371 17.9921 99.8796 18.121 99.3171 18.121ZM99.321 17.1406C99.6856 17.1406 99.9877 17.0442 100.227 16.8515C100.467 16.6588 100.644 16.4023 100.759 16.082C100.876 15.7617 100.934 15.4088 100.934 15.0234C100.934 14.6406 100.876 14.289 100.759 13.9687C100.644 13.6458 100.467 13.3867 100.227 13.1913C99.9877 12.996 99.6856 12.8984 99.321 12.8984C98.9538 12.8984 98.6492 12.996 98.407 13.1913C98.1674 13.3867 97.989 13.6458 97.8718 13.9687C97.7572 14.289 97.6999 14.6406 97.6999 15.0234C97.6999 15.4088 97.7572 15.7617 97.8718 16.082C97.989 16.4023 98.1674 16.6588 98.407 16.8515C98.6492 17.0442 98.9538 17.1406 99.321 17.1406ZM104.586 14.4374V17.9999H103.418V11.9999H104.539V12.9765H104.613C104.751 12.6588 104.967 12.4036 105.261 12.2109C105.558 12.0182 105.932 11.9218 106.383 11.9218C106.791 11.9218 107.149 12.0078 107.457 12.1796C107.764 12.3489 108.002 12.6015 108.172 12.9374C108.341 13.2734 108.426 13.6887 108.426 14.1835V17.9999H107.258V14.3242C107.258 13.8893 107.144 13.5494 106.918 13.3046C106.691 13.0572 106.38 12.9335 105.984 12.9335C105.713 12.9335 105.472 12.9921 105.261 13.1093C105.053 13.2265 104.888 13.3984 104.765 13.6249C104.646 13.8489 104.586 14.1197 104.586 14.4374Z" fill="#E8E8E8"/>
<path d="M48.7952 22.2727L50.389 25.0298H50.4571L52.0679 22.2727H54.4287L51.7952 26.6363L54.514 30.9999H52.0935L50.4571 28.213H50.389L48.7526 30.9999H46.3492L49.0552 26.6363L46.4174 22.2727H48.7952ZM55.5196 30.9999V22.2727H57.6034V25.5752H57.6461C57.7313 25.3764 57.852 25.1846 58.0083 24.9999C58.1674 24.8153 58.3691 24.6647 58.6134 24.5482C58.8605 24.4289 59.156 24.3693 59.4998 24.3693C59.9543 24.3693 60.379 24.4886 60.7739 24.7272C61.1716 24.9658 61.4926 25.3337 61.737 25.8309C61.9813 26.3281 62.1034 26.9616 62.1034 27.7315C62.1034 28.4729 61.9855 29.0937 61.7498 29.5937C61.5168 30.0937 61.2015 30.4687 60.8037 30.7187C60.4088 30.9687 59.9699 31.0937 59.487 31.0937C59.1574 31.0937 58.8719 31.0397 58.6304 30.9318C58.389 30.8238 58.1858 30.6818 58.0211 30.5056C57.8591 30.3295 57.7341 30.1406 57.6461 29.9389H57.5821V30.9999H55.5196ZM57.5608 27.7272C57.5608 28.0795 57.6077 28.3863 57.7015 28.6477C57.798 28.909 57.9358 29.1122 58.1148 29.257C58.2966 29.3991 58.514 29.4701 58.7668 29.4701C59.0225 29.4701 59.2398 29.3991 59.4188 29.257C59.5978 29.1122 59.7327 28.909 59.8236 28.6477C59.9174 28.3863 59.9642 28.0795 59.9642 27.7272C59.9642 27.3749 59.9174 27.0695 59.8236 26.811C59.7327 26.5525 59.5978 26.3522 59.4188 26.2102C59.2426 26.0681 59.0253 25.9971 58.7668 25.9971C58.5111 25.9971 58.2938 26.0667 58.1148 26.2059C57.9358 26.3451 57.798 26.544 57.7015 26.8025C57.6077 27.061 57.5608 27.3693 57.5608 27.7272ZM66.2508 31.1235C65.5633 31.1235 64.9724 30.9829 64.4781 30.7016C63.9866 30.4175 63.6074 30.0227 63.3403 29.517C63.0761 29.0085 62.944 28.419 62.944 27.7485C62.944 27.0752 63.0761 26.4857 63.3403 25.9801C63.6074 25.4715 63.9866 25.0766 64.4781 24.7954C64.9724 24.5113 65.5633 24.3693 66.2508 24.3693C66.9383 24.3693 67.5278 24.5113 68.0193 24.7954C68.5136 25.0766 68.8929 25.4715 69.1571 25.9801C69.4241 26.4857 69.5576 27.0752 69.5576 27.7485C69.5576 28.419 69.4241 29.0085 69.1571 29.517C68.8929 30.0227 68.5136 30.4175 68.0193 30.7016C67.5278 30.9829 66.9383 31.1235 66.2508 31.1235ZM66.2636 29.5511C66.5136 29.5511 66.7252 29.4744 66.8985 29.321C67.0718 29.1675 67.2039 28.9545 67.2948 28.6818C67.3886 28.409 67.4355 28.0937 67.4355 27.7357C67.4355 27.3721 67.3886 27.0539 67.2948 26.7812C67.2039 26.5085 67.0718 26.2954 66.8985 26.142C66.7252 25.9886 66.5136 25.9119 66.2636 25.9119C66.0051 25.9119 65.7863 25.9886 65.6073 26.142C65.4312 26.2954 65.2963 26.5085 65.2025 26.7812C65.1116 27.0539 65.0662 27.3721 65.0662 27.7357C65.0662 28.0937 65.1116 28.409 65.2025 28.6818C65.2963 28.9545 65.4312 29.1675 65.6073 29.321C65.7863 29.4744 66.0051 29.5511 66.2636 29.5511ZM72.1635 24.4545L73.2416 26.6107L74.3581 24.4545H76.4589L74.6308 27.7272L76.5271 30.9999H74.4433L73.2416 28.8266L72.0697 30.9999H69.9561L71.8566 27.7272L70.0498 24.4545H72.1635ZM84.7057 24.8891C84.6773 24.5766 84.5509 24.3337 84.3264 24.1604C84.1049 23.9843 83.7881 23.8962 83.3762 23.8962C83.1034 23.8962 82.8762 23.9318 82.6943 24.0028C82.5125 24.0738 82.3762 24.1718 82.2853 24.2968C82.1943 24.419 82.1475 24.5596 82.1446 24.7187C82.1389 24.8494 82.1645 24.9644 82.2213 25.0639C82.281 25.1633 82.3662 25.2514 82.477 25.3281C82.5907 25.4019 82.727 25.4673 82.8861 25.5241C83.0452 25.5809 83.2242 25.6306 83.423 25.6732L84.173 25.8437C84.6049 25.9374 84.9855 26.0624 85.3151 26.2187C85.6475 26.3749 85.9259 26.561 86.1503 26.7769C86.3776 26.9928 86.5495 27.2414 86.6659 27.5227C86.7824 27.8039 86.8421 28.1193 86.8449 28.4687C86.8421 29.0198 86.7029 29.4928 86.4273 29.8877C86.1517 30.2826 85.7554 30.5852 85.2384 30.7954C84.7242 31.0056 84.1034 31.1107 83.3762 31.1107C82.6461 31.1107 82.0097 31.0014 81.4671 30.7826C80.9245 30.5639 80.5026 30.2315 80.2015 29.7854C79.9003 29.3394 79.7455 28.7755 79.737 28.0937H81.7568C81.7739 28.3749 81.8492 28.6093 81.9827 28.7968C82.1162 28.9843 82.2995 29.1264 82.5324 29.2229C82.7682 29.3195 83.0409 29.3678 83.3506 29.3678C83.6347 29.3678 83.8762 29.3295 84.075 29.2528C84.2767 29.1761 84.4316 29.0695 84.5395 28.9332C84.6475 28.7968 84.7029 28.6406 84.7057 28.4644C84.7029 28.2997 84.6517 28.159 84.5523 28.0426C84.4529 27.9232 84.2995 27.821 84.0921 27.7357C83.8875 27.6477 83.6262 27.5667 83.308 27.4928L82.3961 27.2798C81.6404 27.1065 81.0452 26.8266 80.6105 26.4403C80.1759 26.0511 79.96 25.5255 79.9628 24.8636C79.96 24.3238 80.1049 23.8508 80.3975 23.4445C80.6901 23.0383 81.0949 22.7215 81.612 22.4943C82.129 22.267 82.7185 22.1533 83.3804 22.1533C84.0566 22.1533 84.6432 22.2684 85.1404 22.4985C85.6404 22.7258 86.0282 23.0454 86.3037 23.4573C86.5793 23.8693 86.7199 24.3465 86.7256 24.8891H84.7057ZM90.9699 31.1235C90.2853 31.1235 89.6943 30.9886 89.1972 30.7187C88.7029 30.446 88.3222 30.0582 88.0551 29.5553C87.7909 29.0497 87.6588 28.4488 87.6588 27.7528C87.6588 27.0766 87.7924 26.4857 88.0594 25.9801C88.3264 25.4715 88.7029 25.0766 89.1887 24.7954C89.6745 24.5113 90.2469 24.3693 90.906 24.3693C91.3719 24.3693 91.798 24.4417 92.1844 24.5866C92.5708 24.7315 92.9046 24.946 93.1858 25.2301C93.4671 25.5141 93.6858 25.865 93.8421 26.2826C93.9983 26.6974 94.0764 27.1732 94.0764 27.7102V28.2301H88.3875V27.0198H92.1375C92.1347 26.7982 92.0821 26.6008 91.9799 26.4275C91.8776 26.2542 91.737 26.1193 91.558 26.0227C91.3818 25.9232 91.1787 25.8735 90.9486 25.8735C90.7157 25.8735 90.5068 25.9261 90.3222 26.0312C90.1375 26.1335 89.9912 26.2741 89.8833 26.4531C89.7753 26.6292 89.7185 26.8295 89.7128 27.0539V28.2854C89.7128 28.5525 89.7654 28.7869 89.8705 28.9886C89.9756 29.1874 90.1247 29.3423 90.3179 29.4531C90.5111 29.5639 90.7412 29.6193 91.0083 29.6193C91.1929 29.6193 91.3605 29.5937 91.5111 29.5425C91.6617 29.4914 91.7909 29.4161 91.8989 29.3167C92.0068 29.2173 92.0878 29.0951 92.1418 28.9502L94.0551 29.0056C93.9756 29.4346 93.8009 29.8082 93.531 30.1264C93.2639 30.4417 92.9131 30.6874 92.4784 30.8636C92.0438 31.0369 91.5409 31.1235 90.9699 31.1235ZM95.1407 30.9999V24.4545H97.1649V25.6477H97.2331C97.3524 25.2158 97.547 24.8948 97.8169 24.6846C98.0867 24.4715 98.4007 24.365 98.7586 24.365C98.8552 24.365 98.9546 24.3721 99.0569 24.3863C99.1592 24.3977 99.2544 24.4161 99.3424 24.4417V26.2528C99.243 26.2187 99.1123 26.1917 98.9504 26.1718C98.7913 26.1519 98.6492 26.142 98.5242 26.142C98.2771 26.142 98.0541 26.1974 97.8552 26.3082C97.6592 26.4161 97.5044 26.5681 97.3907 26.7641C97.2799 26.9573 97.2245 27.1846 97.2245 27.446V30.9999H95.1407ZM100.192 30.9999V24.4545H102.275V30.9999H100.192ZM101.236 23.6917C100.943 23.6917 100.692 23.5951 100.481 23.4019C100.271 23.2059 100.166 22.9701 100.166 22.6945C100.166 22.4218 100.271 22.1889 100.481 21.9957C100.692 21.7997 100.943 21.7016 101.236 21.7016C101.531 21.7016 101.782 21.7997 101.99 21.9957C102.2 22.1889 102.305 22.4218 102.305 22.6945C102.305 22.9701 102.2 23.2059 101.99 23.4019C101.782 23.5951 101.531 23.6917 101.236 23.6917ZM106.661 31.1235C105.977 31.1235 105.386 30.9886 104.889 30.7187C104.394 30.446 104.014 30.0582 103.747 29.5553C103.482 29.0497 103.35 28.4488 103.35 27.7528C103.35 27.0766 103.484 26.4857 103.751 25.9801C104.018 25.4715 104.394 25.0766 104.88 24.7954C105.366 24.5113 105.938 24.3693 106.597 24.3693C107.063 24.3693 107.489 24.4417 107.876 24.5866C108.262 24.7315 108.596 24.946 108.877 25.2301C109.158 25.5141 109.377 25.865 109.533 26.2826C109.69 26.6974 109.768 27.1732 109.768 27.7102V28.2301H104.079V27.0198H107.829C107.826 26.7982 107.774 26.6008 107.671 26.4275C107.569 26.2542 107.428 26.1193 107.249 26.0227C107.073 25.9232 106.87 25.8735 106.64 25.8735C106.407 25.8735 106.198 25.9261 106.014 26.0312C105.829 26.1335 105.683 26.2741 105.575 26.4531C105.467 26.6292 105.41 26.8295 105.404 27.0539V28.2854C105.404 28.5525 105.457 28.7869 105.562 28.9886C105.667 29.1874 105.816 29.3423 106.009 29.4531C106.203 29.5639 106.433 29.6193 106.7 29.6193C106.884 29.6193 107.052 29.5937 107.203 29.5425C107.353 29.4914 107.482 29.4161 107.59 29.3167C107.698 29.2173 107.779 29.0951 107.833 28.9502L109.747 29.0056C109.667 29.4346 109.492 29.8082 109.222 30.1264C108.955 30.4417 108.604 30.6874 108.17 30.8636C107.735 31.0369 107.232 31.1235 106.661 31.1235ZM116.547 26.4531L114.633 26.5042C114.613 26.3678 114.559 26.2471 114.471 26.142C114.383 26.034 114.268 25.9502 114.126 25.8906C113.987 25.8281 113.825 25.7968 113.64 25.7968C113.399 25.7968 113.193 25.8451 113.022 25.9417C112.855 26.0383 112.772 26.169 112.775 26.3337C112.772 26.4616 112.824 26.5724 112.929 26.6661C113.037 26.7599 113.228 26.8352 113.504 26.892L114.765 27.1306C115.419 27.2556 115.905 27.463 116.223 27.7528C116.544 28.0426 116.706 28.4261 116.709 28.9033C116.706 29.3522 116.572 29.7428 116.308 30.0752C116.047 30.4076 115.689 30.6661 115.234 30.8508C114.78 31.0326 114.26 31.1235 113.674 31.1235C112.74 31.1235 112.003 30.9318 111.463 30.5482C110.926 30.1619 110.619 29.6448 110.542 28.9971L112.601 28.946C112.646 29.1846 112.764 29.3664 112.954 29.4914C113.145 29.6164 113.388 29.6789 113.683 29.6789C113.95 29.6789 114.167 29.6292 114.335 29.5298C114.503 29.4303 114.588 29.2982 114.591 29.1335C114.588 28.9857 114.522 28.8678 114.395 28.7798C114.267 28.6889 114.066 28.6178 113.794 28.5667L112.652 28.3494C111.995 28.2301 111.507 28.0099 111.186 27.6889C110.865 27.365 110.706 26.9531 110.709 26.4531C110.706 26.0156 110.822 25.642 111.058 25.3323C111.294 25.0198 111.629 24.7812 112.064 24.6164C112.498 24.4516 113.011 24.3693 113.602 24.3693C114.488 24.3693 115.187 24.5553 115.699 24.9275C116.21 25.2968 116.493 25.8053 116.547 26.4531Z" fill="white"/>
</g>
<rect x="0.749756" y="0.749939" width="126.5" height="38.5" rx="5.25" stroke="white" stroke-opacity="0.15" stroke-width="1.5"/>
<defs>
<filter id="filter0_d_22_133" x="5.99976" y="1.99994" width="36" height="36" filterUnits="userSpaceOnUse" color-interpolation-filters="sRGB">
<feFlood flood-opacity="0" result="BackgroundImageFix"/>
<feColorMatrix in="SourceAlpha" type="matrix" values="0 0 0 0 0 0 0 0 0 0 0 0 0 0 0 0 0 0 127 0" result="hardAlpha"/>
<feOffset/>
<feGaussianBlur stdDeviation="2"/>
<feComposite in2="hardAlpha" operator="out"/>
<feColorMatrix type="matrix" values="0 0 0 0 0 0 0 0 0 0 0 0 0 0 0 0 0 0 0.25 0"/>
<feBlend mode="normal" in2="BackgroundImageFix" result="effect1_dropShadow_22_133"/>
<feBlend mode="normal" in="SourceGraphic" in2="effect1_dropShadow_22_133" result="shape"/>
</filter>
<filter id="filter1_d_22_133" x="41.9998" y="2.99994" width="80" height="34" filterUnits="userSpaceOnUse" color-interpolation-filters="sRGB">
<feFlood flood-opacity="0" result="BackgroundImageFix"/>
<feColorMatrix in="SourceAlpha" type="matrix" values="0 0 0 0 0 0 0 0 0 0 0 0 0 0 0 0 0 0 127 0" result="hardAlpha"/>
<feOffset/>
<feGaussianBlur stdDeviation="2"/>
<feComposite in2="hardAlpha" operator="out"/>
<feColorMatrix type="matrix" values="0 0 0 0 0 0 0 0 0 0 0 0 0 0 0 0 0 0 0.25 0"/>
<feBlend mode="normal" in2="BackgroundImageFix" result="effect1_dropShadow_22_133"/>
<feBlend mode="normal" in="SourceGraphic" in2="effect1_dropShadow_22_133" result="shape"/>
</filter>
<linearGradient id="paint0_linear_22_133" x1="64" y1="-6.51767e-06" x2="59.0339" y2="39.3737" gradientUnits="userSpaceOnUse">
<stop stop-color="#083407"/>
<stop offset="1" stop-color="#041D04"/>
</linearGradient>
</defs>
</svg>
