<svg width="164" height="56" viewBox="0 0 164 56" fill="none" xmlns="http://www.w3.org/2000/svg">
<rect x="-0.00012207" y="-3.05176e-05" width="164" height="56" rx="8" fill="url(#paint0_linear_7_188)"/>
<rect x="1.04988" y="1.04997" width="161.9" height="53.9" rx="6.95" stroke="white" stroke-opacity="0.15" stroke-width="2.1"/>
<g filter="url(#filter0_d_7_188)">
<path d="M48.2636 16.1633V45.7552C48.2636 46.5442 47.624 47.1838 46.835 47.1838H17.1647C16.3757 47.1838 15.7361 46.5442 15.7361 45.7552V10.245C15.7361 9.456 16.3757 8.81641 17.1647 8.81641H40.3515H46.835C47.624 8.81641 48.2636 9.456 48.2636 10.245V16.1633Z" fill="#F1F1F1"/>
<path d="M40.8899 21.0613H20.0328C19.4805 21.0613 19.0328 21.509 19.0328 22.0613C19.0328 22.6136 19.4805 23.0613 20.0328 23.0613H40.8899C41.4422 23.0613 41.8899 22.6136 41.8899 22.0613C41.8899 21.509 41.4422 21.0613 40.8899 21.0613Z" fill="#231F20"/>
<path d="M43.7471 25.9593H20.2526C19.7003 25.9593 19.2526 26.407 19.2526 26.9593C19.2526 27.5115 19.7003 27.9593 20.2526 27.9593H43.7471C44.2994 27.9593 44.7471 27.5115 44.7471 26.9593C44.7471 26.407 44.2994 25.9593 43.7471 25.9593Z" fill="#231F20"/>
<path d="M43.7471 30.8572H20.2526C19.7003 30.8572 19.2526 31.3049 19.2526 31.8572C19.2526 32.4095 19.7003 32.8572 20.2526 32.8572H43.7471C44.2994 32.8572 44.7471 32.4095 44.7471 31.8572C44.7471 31.3049 44.2994 30.8572 43.7471 30.8572Z" fill="#231F20"/>
<path d="M43.7471 35.7552H20.2526C19.7003 35.7552 19.2526 36.2029 19.2526 36.7552C19.2526 37.3074 19.7003 37.7552 20.2526 37.7552H43.7471C44.2994 37.7552 44.7471 37.3074 44.7471 36.7552C44.7471 36.2029 44.2994 35.7552 43.7471 35.7552Z" fill="#231F20"/>
<path d="M38.4723 40.6531H20.2526C19.7003 40.6531 19.2526 41.1008 19.2526 41.6531C19.2526 42.2054 19.7003 42.6531 20.2526 42.6531H38.4723C39.0246 42.6531 39.4723 42.2054 39.4723 41.6531C39.4723 41.1008 39.0246 40.6531 38.4723 40.6531Z" fill="#231F20"/>
<path d="M43.7471 40.6531H42.6702C42.1179 40.6531 41.6702 41.1008 41.6702 41.6531C41.6702 42.2054 42.1179 42.6531 42.6702 42.6531H43.7471C44.2994 42.6531 44.7471 42.2054 44.7471 41.6531C44.7471 41.1008 44.2994 40.6531 43.7471 40.6531Z" fill="#231F20"/>
<path d="M23.5273 11.6736H20.2526C19.7003 11.6736 19.2526 12.1213 19.2526 12.6736C19.2526 13.2258 19.7003 13.6736 20.2526 13.6736H23.5273C24.0796 13.6736 24.5273 13.2258 24.5273 12.6736C24.5273 12.1213 24.0796 11.6736 23.5273 11.6736Z" fill="#231F20"/>
<path d="M28.802 14.5307H20.2526C19.7003 14.5307 19.2526 14.9784 19.2526 15.5307C19.2526 16.083 19.7003 16.5307 20.2526 16.5307H28.802C29.3543 16.5307 29.802 16.083 29.802 15.5307C29.802 14.9784 29.3543 14.5307 28.802 14.5307Z" fill="#231F20"/>
</g>
<g filter="url(#filter1_d_7_188)">
<path d="M61.2783 24.5V12.8636H65.426C66.3275 12.8636 67.0756 13.0189 67.6703 13.3295C68.2688 13.6401 68.7158 14.07 69.0112 14.6193C69.3067 15.1647 69.4544 15.7954 69.4544 16.5113C69.4544 17.2235 69.3048 17.8503 69.0056 18.392C68.7101 18.9299 68.2631 19.3485 67.6646 19.6477C67.07 19.9469 66.3218 20.0966 65.4203 20.0966H62.2783V18.5852H65.2612C65.8294 18.5852 66.2915 18.5038 66.6476 18.3409C67.0075 18.178 67.2707 17.9413 67.4374 17.6306C67.604 17.32 67.6874 16.9469 67.6874 16.5113C67.6874 16.0719 67.6021 15.6913 67.4317 15.3693C67.265 15.0473 67.0018 14.8011 66.6419 14.6306C66.2859 14.4564 65.8181 14.3693 65.2385 14.3693H63.034V24.5H61.2783ZM67.0226 19.25L69.8976 24.5H67.8976L65.0794 19.25H67.0226ZM75.1064 24.6761C74.2466 24.6761 73.506 24.4924 72.8848 24.125C72.2674 23.7538 71.7901 23.2329 71.453 22.5625C71.1197 21.8882 70.953 21.0985 70.953 20.1931C70.953 19.2992 71.1197 18.5113 71.453 17.8295C71.7901 17.1477 72.2598 16.6155 72.8621 16.2329C73.4682 15.8503 74.1765 15.6591 74.9871 15.6591C75.4795 15.6591 75.9568 15.7405 76.4189 15.9034C76.881 16.0663 77.2958 16.3219 77.6632 16.6704C78.0306 17.0189 78.3204 17.4716 78.5325 18.0284C78.7447 18.5814 78.8507 19.2538 78.8507 20.0454V20.6477H71.9132V19.375H77.186C77.186 18.928 77.095 18.5322 76.9132 18.1875C76.7314 17.839 76.4757 17.5644 76.1462 17.3636C75.8204 17.1628 75.4378 17.0625 74.9985 17.0625C74.5212 17.0625 74.1045 17.1799 73.7485 17.4147C73.3962 17.6458 73.1235 17.9488 72.9303 18.3238C72.7409 18.695 72.6462 19.0985 72.6462 19.5341V20.5284C72.6462 21.1117 72.7485 21.6079 72.953 22.017C73.1613 22.4261 73.4511 22.7386 73.8223 22.9545C74.1935 23.1666 74.6272 23.2727 75.1235 23.2727C75.4454 23.2727 75.739 23.2272 76.0041 23.1363C76.2693 23.0416 76.4985 22.9015 76.6916 22.7159C76.8848 22.5303 77.0325 22.3011 77.1348 22.0284L78.7428 22.3181C78.614 22.7916 78.3829 23.2064 78.0496 23.5625C77.72 23.9147 77.3053 24.1894 76.8053 24.3863C76.3091 24.5795 75.7428 24.6761 75.1064 24.6761ZM83.2754 24.6931C82.7224 24.6931 82.2224 24.5909 81.7754 24.3863C81.3285 24.178 80.9743 23.8769 80.7129 23.4829C80.4554 23.089 80.3266 22.606 80.3266 22.0341C80.3266 21.5416 80.4213 21.1363 80.6107 20.8181C80.8001 20.5 81.0557 20.2481 81.3777 20.0625C81.6997 19.8769 82.0595 19.7367 82.4573 19.642C82.855 19.5473 83.2603 19.4753 83.6732 19.4261C84.1959 19.3655 84.6201 19.3163 84.9459 19.2784C85.2717 19.2367 85.5084 19.1704 85.6561 19.0795C85.8038 18.9886 85.8777 18.8409 85.8777 18.6363V18.5966C85.8777 18.1003 85.7376 17.7159 85.4573 17.4431C85.1807 17.1704 84.7679 17.0341 84.2186 17.0341C83.6467 17.0341 83.1959 17.161 82.8663 17.4147C82.5406 17.6647 82.3152 17.9431 82.1902 18.25L80.5936 17.8863C80.783 17.356 81.0595 16.928 81.4232 16.6022C81.7906 16.2727 82.2129 16.0341 82.6902 15.8863C83.1675 15.7348 83.6694 15.6591 84.1959 15.6591C84.5444 15.6591 84.9137 15.7007 85.3038 15.7841C85.6978 15.8636 86.0652 16.0113 86.4061 16.2272C86.7508 16.4431 87.033 16.7519 87.2527 17.1534C87.4724 17.5511 87.5823 18.0681 87.5823 18.7045V24.5H85.9232V23.3068H85.855C85.7451 23.5265 85.5804 23.7424 85.3607 23.9545C85.141 24.1666 84.8588 24.3428 84.5141 24.4829C84.1694 24.6231 83.7565 24.6931 83.2754 24.6931ZM83.6448 23.3295C84.1145 23.3295 84.516 23.2367 84.8493 23.0511C85.1864 22.8655 85.4421 22.6231 85.6163 22.3238C85.7944 22.0208 85.8834 21.6969 85.8834 21.3522V20.2272C85.8228 20.2878 85.7054 20.3447 85.5311 20.3977C85.3607 20.4469 85.1656 20.4905 84.9459 20.5284C84.7262 20.5625 84.5122 20.5947 84.3038 20.625C84.0955 20.6515 83.9213 20.6742 83.7811 20.6931C83.4516 20.7348 83.1504 20.8049 82.8777 20.9034C82.6088 21.0019 82.3929 21.1439 82.23 21.3295C82.0709 21.5113 81.9913 21.7538 81.9913 22.0568C81.9913 22.4772 82.1467 22.7954 82.4573 23.0113C82.7679 23.2235 83.1637 23.3295 83.6448 23.3295ZM93.1121 24.6704C92.4075 24.6704 91.7788 24.4905 91.2257 24.1306C90.6765 23.767 90.2447 23.25 89.9303 22.5795C89.6197 21.9053 89.4644 21.0966 89.4644 20.1534C89.4644 19.2102 89.6216 18.4034 89.9359 17.7329C90.2541 17.0625 90.6897 16.5492 91.2428 16.1931C91.7958 15.8371 92.4227 15.6591 93.1234 15.6591C93.6651 15.6591 94.1007 15.75 94.4303 15.9318C94.7636 16.1098 95.0212 16.3181 95.203 16.5568C95.3886 16.7954 95.5325 17.0056 95.6348 17.1875H95.7371V12.8636H97.4359V24.5H95.7769V23.142H95.6348C95.5325 23.3276 95.3848 23.5397 95.1916 23.7784C95.0022 24.017 94.7409 24.2253 94.4075 24.4034C94.0742 24.5814 93.6424 24.6704 93.1121 24.6704ZM93.4871 23.2216C93.9757 23.2216 94.3886 23.0928 94.7257 22.8352C95.0666 22.5738 95.3242 22.2121 95.4984 21.75C95.6765 21.2878 95.7655 20.75 95.7655 20.1363C95.7655 19.5303 95.6784 19 95.5041 18.5454C95.3299 18.0909 95.0742 17.7367 94.7371 17.4829C94.4 17.2291 93.9833 17.1022 93.4871 17.1022C92.9757 17.1022 92.5496 17.2348 92.2087 17.5C91.8678 17.7651 91.6102 18.1269 91.4359 18.5852C91.2655 19.0435 91.1803 19.5606 91.1803 20.1363C91.1803 20.7197 91.2674 21.2443 91.4416 21.7102C91.6159 22.1761 91.8734 22.5454 92.2144 22.8181C92.5591 23.0871 92.9833 23.2216 93.4871 23.2216ZM108.169 15.7727V17.1363H103.402V15.7727H108.169ZM104.68 13.6818H106.379V21.9375C106.379 22.267 106.428 22.5151 106.527 22.6818C106.625 22.8447 106.752 22.9564 106.908 23.017C107.067 23.0738 107.239 23.1022 107.425 23.1022C107.561 23.1022 107.68 23.0928 107.783 23.0738C107.885 23.0549 107.964 23.0397 108.021 23.0284L108.328 24.4318C108.23 24.4697 108.089 24.5075 107.908 24.5454C107.726 24.5871 107.498 24.6098 107.226 24.6136C106.779 24.6212 106.362 24.5416 105.976 24.375C105.589 24.2083 105.277 23.9507 105.038 23.6022C104.8 23.2538 104.68 22.8163 104.68 22.2897V13.6818ZM111.935 19.3181V24.5H110.236V12.8636H111.912V17.1931H112.02C112.224 16.7235 112.537 16.3503 112.957 16.0738C113.378 15.7973 113.927 15.6591 114.605 15.6591C115.203 15.6591 115.726 15.7822 116.173 16.0284C116.624 16.2746 116.972 16.642 117.219 17.1306C117.469 17.6155 117.594 18.2216 117.594 18.9488V24.5H115.895V19.1534C115.895 18.5132 115.73 18.017 115.4 17.6647C115.071 17.3087 114.613 17.1306 114.025 17.1306C113.624 17.1306 113.264 17.2159 112.946 17.3863C112.631 17.5568 112.383 17.8068 112.202 18.1363C112.024 18.4621 111.935 18.856 111.935 19.3181ZM123.622 24.6761C122.762 24.6761 122.022 24.4924 121.4 24.125C120.783 23.7538 120.306 23.2329 119.969 22.5625C119.635 21.8882 119.469 21.0985 119.469 20.1931C119.469 19.2992 119.635 18.5113 119.969 17.8295C120.306 17.1477 120.775 16.6155 121.378 16.2329C121.984 15.8503 122.692 15.6591 123.503 15.6591C123.995 15.6591 124.472 15.7405 124.935 15.9034C125.397 16.0663 125.811 16.3219 126.179 16.6704C126.546 17.0189 126.836 17.4716 127.048 18.0284C127.26 18.5814 127.366 19.2538 127.366 20.0454V20.6477H120.429V19.375H125.702C125.702 18.928 125.611 18.5322 125.429 18.1875C125.247 17.839 124.991 17.5644 124.662 17.3636C124.336 17.1628 123.953 17.0625 123.514 17.0625C123.037 17.0625 122.62 17.1799 122.264 17.4147C121.912 17.6458 121.639 17.9488 121.446 18.3238C121.256 18.695 121.162 19.0985 121.162 19.5341V20.5284C121.162 21.1117 121.264 21.6079 121.469 22.017C121.677 22.4261 121.967 22.7386 122.338 22.9545C122.709 23.1666 123.143 23.2727 123.639 23.2727C123.961 23.2727 124.255 23.2272 124.52 23.1363C124.785 23.0416 125.014 22.9015 125.207 22.7159C125.4 22.5303 125.548 22.3011 125.65 22.0284L127.258 22.3181C127.13 22.7916 126.899 23.2064 126.565 23.5625C126.236 23.9147 125.821 24.1894 125.321 24.3863C124.825 24.5795 124.258 24.6761 123.622 24.6761Z" fill="#E8E8E8"/>
<path d="M72.1583 35.6157H69.1398C69.0995 35.3058 69.017 35.0261 68.8923 34.7766C68.7675 34.5271 68.6025 34.3138 68.3972 34.1367C68.192 33.9596 67.9485 33.8248 67.6668 33.7322C67.3891 33.6356 67.0812 33.5873 66.7431 33.5873C66.1435 33.5873 65.6263 33.7342 65.1916 34.028C64.761 34.3218 64.429 34.7464 64.1955 35.3018C63.9661 35.8572 63.8514 36.5293 63.8514 37.3181C63.8514 38.1392 63.9682 38.8274 64.2016 39.3828C64.439 39.9342 64.7711 40.3507 65.1977 40.6324C65.6283 40.9101 66.1374 41.049 66.725 41.049C67.055 41.049 67.3549 41.0067 67.6245 40.9222C67.8982 40.8377 68.1377 40.7149 68.3429 40.5539C68.5522 40.3889 68.7232 40.1897 68.8561 39.9563C68.9929 39.7188 69.0875 39.4512 69.1398 39.1534L72.1583 39.1715C72.1059 39.7188 71.947 40.2581 71.6813 40.7894C71.4197 41.3206 71.0595 41.8056 70.6007 42.2443C70.1419 42.6789 69.5825 43.0251 68.9225 43.2826C68.2664 43.5402 67.5138 43.669 66.6646 43.669C65.5458 43.669 64.5437 43.4235 63.6583 42.9325C62.7769 42.4375 62.0806 41.7171 61.5695 40.7713C61.0584 39.8255 60.8028 38.6744 60.8028 37.3181C60.8028 35.9578 61.0624 34.8048 61.5816 33.859C62.1007 32.9132 62.803 32.1948 63.6884 31.7038C64.5739 31.2128 65.5659 30.9673 66.6646 30.9673C67.4132 30.9673 68.1055 31.0719 68.7414 31.2812C69.3772 31.4865 69.9367 31.7883 70.4196 32.1868C70.9026 32.5812 71.295 33.0661 71.5968 33.6417C71.8987 34.2172 72.0858 34.8752 72.1583 35.6157ZM76.8203 38.2116V43.5H73.8682V31.1363H76.7237V35.9297H76.8263C77.0356 35.3582 77.3777 34.9114 77.8526 34.5895C78.3315 34.2675 78.9171 34.1065 79.6093 34.1065C80.2613 34.1065 80.8288 34.2514 81.3118 34.5412C81.7947 34.8269 82.169 35.2314 82.4346 35.7546C82.7043 36.2778 82.8371 36.8895 82.8331 37.5898V43.5H79.881V38.1694C79.885 37.6542 79.7562 37.2517 79.4946 36.962C79.233 36.6722 78.8648 36.5273 78.3899 36.5273C78.08 36.5273 77.8063 36.5957 77.5689 36.7326C77.3354 36.8654 77.1523 37.0565 77.0195 37.3061C76.8907 37.5556 76.8243 37.8574 76.8203 38.2116ZM87.2898 43.6569C86.6982 43.6569 86.173 43.5583 85.7142 43.3611C85.2594 43.1599 84.8992 42.858 84.6336 42.4556C84.372 42.0491 84.2412 41.54 84.2412 40.9282C84.2412 40.4131 84.3317 39.9784 84.5128 39.6243C84.6939 39.2701 84.9435 38.9823 85.2614 38.761C85.5794 38.5396 85.9456 38.3726 86.3601 38.2599C86.7747 38.1432 87.2174 38.0647 87.6883 38.0245C88.2155 37.9762 88.6401 37.9259 88.962 37.8735C89.284 37.8172 89.5174 37.7387 89.6623 37.6381C89.8112 37.5335 89.8857 37.3866 89.8857 37.1974V37.1672C89.8857 36.8573 89.779 36.6179 89.5657 36.4488C89.3524 36.2798 89.0647 36.1953 88.7025 36.1953C88.3121 36.1953 87.9982 36.2798 87.7607 36.4488C87.5232 36.6179 87.3723 36.8513 87.3079 37.1491L84.5853 37.0525C84.6658 36.4891 84.873 35.986 85.2071 35.5433C85.5451 35.0966 86.008 34.7464 86.5956 34.4929C87.1872 34.2353 87.8975 34.1065 88.7266 34.1065C89.3182 34.1065 89.8636 34.1769 90.3626 34.3178C90.8617 34.4546 91.2963 34.6559 91.6666 34.9215C92.0369 35.1831 92.3226 35.5051 92.5238 35.8874C92.7291 36.2697 92.8317 36.7064 92.8317 37.1974V43.5H90.0547V42.2081H89.9823C89.8173 42.522 89.606 42.7876 89.3484 43.0049C89.0949 43.2223 88.795 43.3853 88.4489 43.4939C88.1068 43.6026 87.7205 43.6569 87.2898 43.6569ZM88.2014 41.7251C88.5193 41.7251 88.8051 41.6607 89.0586 41.5319C89.3162 41.4031 89.5215 41.2261 89.6744 41.0007C89.8273 40.7713 89.9038 40.5056 89.9038 40.2038V39.3224C89.8193 39.3667 89.7167 39.4069 89.5959 39.4431C89.4792 39.4794 89.3504 39.5136 89.2096 39.5458C89.0687 39.578 88.9238 39.6061 88.7749 39.6303C88.626 39.6544 88.4831 39.6766 88.3463 39.6967C88.0686 39.741 87.8311 39.8094 87.6339 39.902C87.4407 39.9945 87.2918 40.1153 87.1872 40.2642C87.0866 40.4091 87.0363 40.5821 87.0363 40.7833C87.0363 41.0892 87.1449 41.3226 87.3623 41.4836C87.5836 41.6446 87.8633 41.7251 88.2014 41.7251ZM97.5888 38.2116V43.5H94.6368V34.2272H97.4439V35.9297H97.5466C97.7518 35.3622 98.102 34.9175 98.597 34.5955C99.092 34.2695 99.6816 34.1065 100.366 34.1065C101.018 34.1065 101.583 34.2534 102.062 34.5472C102.545 34.837 102.919 35.2435 103.185 35.7667C103.455 36.2858 103.588 36.8936 103.583 37.5898V43.5H100.631V38.1694C100.635 37.6542 100.505 37.2517 100.239 36.962C99.9774 36.6722 99.6132 36.5273 99.1464 36.5273C98.8365 36.5273 98.5628 36.5957 98.3253 36.7326C98.0919 36.8654 97.9108 37.0565 97.782 37.3061C97.6572 37.5556 97.5928 37.8574 97.5888 38.2116ZM109.734 47.1704C108.852 47.1704 108.098 47.0477 107.47 46.8022C106.842 46.5567 106.349 46.2206 105.991 45.794C105.633 45.3674 105.417 44.8844 105.345 44.3451L108.14 44.1882C108.192 44.3773 108.289 44.5423 108.43 44.6832C108.575 44.8241 108.762 44.9327 108.991 45.0092C109.225 45.0857 109.498 45.1239 109.812 45.1239C110.307 45.1239 110.716 45.0032 111.038 44.7617C111.364 44.5242 111.527 44.1077 111.527 43.512V41.8821H111.424C111.307 42.1678 111.13 42.4234 110.893 42.6488C110.655 42.8741 110.359 43.0512 110.005 43.18C109.655 43.3088 109.253 43.3732 108.798 43.3732C108.122 43.3732 107.502 43.2162 106.939 42.9023C106.379 42.5844 105.93 42.0934 105.592 41.4293C105.258 40.7612 105.091 39.902 105.091 38.8515C105.091 37.7689 105.264 36.8775 105.61 36.1772C105.957 35.4729 106.409 34.9517 106.969 34.6136C107.532 34.2755 108.138 34.1065 108.786 34.1065C109.273 34.1065 109.689 34.191 110.035 34.3601C110.386 34.5251 110.673 34.7384 110.899 35C111.124 35.2616 111.295 35.5332 111.412 35.815H111.496V34.2272H114.436V43.5362C114.436 44.321 114.239 44.983 113.845 45.5223C113.45 46.0616 112.899 46.4701 112.191 46.7478C111.482 47.0296 110.663 47.1704 109.734 47.1704ZM109.824 41.224C110.182 41.224 110.488 41.1295 110.742 40.9403C110.995 40.7511 111.191 40.4795 111.327 40.1253C111.464 39.7712 111.533 39.3466 111.533 38.8515C111.533 38.3485 111.464 37.9158 111.327 37.5536C111.195 37.1873 110.999 36.9056 110.742 36.7084C110.488 36.5112 110.182 36.4126 109.824 36.4126C109.458 36.4126 109.148 36.5132 108.894 36.7145C108.641 36.9157 108.448 37.1994 108.315 37.5657C108.186 37.9279 108.122 38.3565 108.122 38.8515C108.122 39.3466 108.188 39.7712 108.321 40.1253C108.454 40.4795 108.645 40.7511 108.894 40.9403C109.148 41.1295 109.458 41.224 109.824 41.224ZM120.653 43.675C119.683 43.675 118.846 43.4839 118.142 43.1015C117.441 42.7152 116.902 42.1658 116.524 41.4534C116.149 40.7371 115.962 39.8859 115.962 38.8998C115.962 37.942 116.151 37.1048 116.53 36.3885C116.908 35.6681 117.441 35.1086 118.129 34.7102C118.818 34.3077 119.629 34.1065 120.562 34.1065C121.222 34.1065 121.826 34.2091 122.373 34.4144C122.921 34.6196 123.394 34.9235 123.792 35.326C124.191 35.7284 124.5 36.2255 124.722 36.8171C124.943 37.4047 125.054 38.0788 125.054 38.8395V39.576H116.995V37.8615H122.307C122.303 37.5476 122.229 37.2678 122.084 37.0223C121.939 36.7768 121.74 36.5857 121.486 36.4488C121.236 36.308 120.949 36.2375 120.623 36.2375C120.293 36.2375 119.997 36.312 119.735 36.4609C119.474 36.6058 119.266 36.805 119.113 37.0586C118.961 37.3081 118.88 37.5918 118.872 37.9098V39.6544C118.872 40.0328 118.946 40.3648 119.095 40.6505C119.244 40.9323 119.456 41.1516 119.729 41.3086C120.003 41.4655 120.329 41.544 120.707 41.544C120.969 41.544 121.206 41.5078 121.42 41.4353C121.633 41.3629 121.816 41.2562 121.969 41.1154C122.122 40.9745 122.237 40.8015 122.313 40.5962L125.024 40.6747C124.911 41.2824 124.663 41.8116 124.281 42.2624C123.903 42.7091 123.406 43.0573 122.79 43.3068C122.174 43.5523 121.462 43.675 120.653 43.675ZM129.514 31.1363V43.5H126.562V31.1363H129.514ZM135.721 43.675C134.747 43.675 133.91 43.4758 133.21 43.0774C132.513 42.6749 131.976 42.1155 131.598 41.3991C131.224 40.6787 131.036 39.8436 131.036 38.8938C131.036 37.94 131.224 37.1048 131.598 36.3885C131.976 35.6681 132.513 35.1086 133.21 34.7102C133.91 34.3077 134.747 34.1065 135.721 34.1065C136.695 34.1065 137.53 34.3077 138.226 34.7102C138.927 35.1086 139.464 35.6681 139.838 36.3885C140.217 37.1048 140.406 37.94 140.406 38.8938C140.406 39.8436 140.217 40.6787 139.838 41.3991C139.464 42.1155 138.927 42.6749 138.226 43.0774C137.53 43.4758 136.695 43.675 135.721 43.675ZM135.739 41.4474C136.093 41.4474 136.393 41.3387 136.639 41.1214C136.884 40.9041 137.071 40.6022 137.2 40.2159C137.333 39.8295 137.399 39.3828 137.399 38.8757C137.399 38.3605 137.333 37.9098 137.2 37.5234C137.071 37.137 136.884 36.8352 136.639 36.6179C136.393 36.4005 136.093 36.2919 135.739 36.2919C135.373 36.2919 135.063 36.4005 134.81 36.6179C134.56 36.8352 134.369 37.137 134.236 37.5234C134.107 37.9098 134.043 38.3605 134.043 38.8757C134.043 39.3828 134.107 39.8295 134.236 40.2159C134.369 40.6022 134.56 40.9041 134.81 41.1214C135.063 41.3387 135.373 41.4474 135.739 41.4474ZM146.24 47.1704C145.359 47.1704 144.604 47.0477 143.977 46.8022C143.349 46.5567 142.856 46.2206 142.498 45.794C142.139 45.3674 141.924 44.8844 141.852 44.3451L144.647 44.1882C144.699 44.3773 144.796 44.5423 144.936 44.6832C145.081 44.8241 145.268 44.9327 145.498 45.0092C145.731 45.0857 146.005 45.1239 146.319 45.1239C146.814 45.1239 147.222 45.0032 147.544 44.7617C147.87 44.5242 148.033 44.1077 148.033 43.512V41.8821H147.931C147.814 42.1678 147.637 42.4234 147.4 42.6488C147.162 42.8741 146.866 43.0512 146.512 43.18C146.162 43.3088 145.759 43.3732 145.305 43.3732C144.629 43.3732 144.009 43.2162 143.445 42.9023C142.886 42.5844 142.437 42.0934 142.099 41.4293C141.765 40.7612 141.598 39.902 141.598 38.8515C141.598 37.7689 141.771 36.8775 142.117 36.1772C142.463 35.4729 142.916 34.9517 143.476 34.6136C144.039 34.2755 144.645 34.1065 145.293 34.1065C145.78 34.1065 146.196 34.191 146.542 34.3601C146.892 34.5251 147.18 34.7384 147.406 35C147.631 35.2616 147.802 35.5332 147.919 35.815H148.003V34.2272H150.943V43.5362C150.943 44.321 150.746 44.983 150.352 45.5223C149.957 46.0616 149.406 46.4701 148.697 46.7478C147.989 47.0296 147.17 47.1704 146.24 47.1704ZM146.331 41.224C146.689 41.224 146.995 41.1295 147.249 40.9403C147.502 40.7511 147.697 40.4795 147.834 40.1253C147.971 39.7712 148.039 39.3466 148.039 38.8515C148.039 38.3485 147.971 37.9158 147.834 37.5536C147.701 37.1873 147.506 36.9056 147.249 36.7084C146.995 36.5112 146.689 36.4126 146.331 36.4126C145.965 36.4126 145.655 36.5132 145.401 36.7145C145.148 36.9157 144.955 37.1994 144.822 37.5657C144.693 37.9279 144.629 38.3565 144.629 38.8515C144.629 39.3466 144.695 39.7712 144.828 40.1253C144.961 40.4795 145.152 40.7511 145.401 40.9403C145.655 41.1295 145.965 41.224 146.331 41.224Z" fill="#F1F1F1"/>
</g>
<defs>
<filter id="filter0_d_7_188" x="6.28559" y="2.28568" width="51.4286" height="51.4286" filterUnits="userSpaceOnUse" color-interpolation-filters="sRGB">
<feFlood flood-opacity="0" result="BackgroundImageFix"/>
<feColorMatrix in="SourceAlpha" type="matrix" values="0 0 0 0 0 0 0 0 0 0 0 0 0 0 0 0 0 0 127 0" result="hardAlpha"/>
<feOffset/>
<feGaussianBlur stdDeviation="2.85714"/>
<feComposite in2="hardAlpha" operator="out"/>
<feColorMatrix type="matrix" values="0 0 0 0 0 0 0 0 0 0 0 0 0 0 0 0 0 0 0.25 0"/>
<feBlend mode="normal" in2="BackgroundImageFix" result="effect1_dropShadow_7_188"/>
<feBlend mode="normal" in="SourceGraphic" in2="effect1_dropShadow_7_188" result="shape"/>
</filter>
<filter id="filter1_d_7_188" x="54.3999" y="3.89997" width="103.2" height="48.8705" filterUnits="userSpaceOnUse" color-interpolation-filters="sRGB">
<feFlood flood-opacity="0" result="BackgroundImageFix"/>
<feColorMatrix in="SourceAlpha" type="matrix" values="0 0 0 0 0 0 0 0 0 0 0 0 0 0 0 0 0 0 127 0" result="hardAlpha"/>
<feOffset/>
<feGaussianBlur stdDeviation="2.8"/>
<feComposite in2="hardAlpha" operator="out"/>
<feColorMatrix type="matrix" values="0 0 0 0 0 0 0 0 0 0 0 0 0 0 0 0 0 0 0.25 0"/>
<feBlend mode="normal" in2="BackgroundImageFix" result="effect1_dropShadow_7_188"/>
<feBlend mode="normal" in="SourceGraphic" in2="effect1_dropShadow_7_188" result="shape"/>
</filter>
<linearGradient id="paint0_linear_7_188" x1="81.9999" y1="-3.05176e-05" x2="81.9999" y2="56" gradientUnits="userSpaceOnUse">
<stop stop-color="#303030"/>
<stop offset="1" stop-color="#1D1D1D"/>
</linearGradient>
</defs>
</svg>
