<svg width="203" height="56" viewBox="0 0 203 56" fill="none" xmlns="http://www.w3.org/2000/svg">
<rect x="-0.00012207" y="-1.52588e-05" width="203" height="56" rx="8" fill="url(#paint0_linear_28_389)"/>
<g filter="url(#filter0_d_28_389)">
<path d="M48.2636 16.1634V45.7552C48.2636 46.5442 47.624 47.1838 46.835 47.1838H17.1647C16.3757 47.1838 15.7361 46.5442 15.7361 45.7552V10.245C15.7361 9.45601 16.3757 8.81642 17.1647 8.81642H40.3515H46.835C47.624 8.81642 48.2636 9.45601 48.2636 10.245V16.1634Z" fill="#F1F1F1"/>
<path d="M40.8899 21.0613H20.0328C19.4805 21.0613 19.0328 21.509 19.0328 22.0613C19.0328 22.6136 19.4805 23.0613 20.0328 23.0613H40.8899C41.4422 23.0613 41.8899 22.6136 41.8899 22.0613C41.8899 21.509 41.4422 21.0613 40.8899 21.0613Z" fill="#231F20"/>
<path d="M43.7471 25.9593H20.2526C19.7003 25.9593 19.2526 26.407 19.2526 26.9593C19.2526 27.5116 19.7003 27.9593 20.2526 27.9593H43.7471C44.2994 27.9593 44.7471 27.5116 44.7471 26.9593C44.7471 26.407 44.2994 25.9593 43.7471 25.9593Z" fill="#231F20"/>
<path d="M43.7471 30.8572H20.2526C19.7003 30.8572 19.2526 31.3049 19.2526 31.8572C19.2526 32.4095 19.7003 32.8572 20.2526 32.8572H43.7471C44.2994 32.8572 44.7471 32.4095 44.7471 31.8572C44.7471 31.3049 44.2994 30.8572 43.7471 30.8572Z" fill="#231F20"/>
<path d="M43.7471 35.7552H20.2526C19.7003 35.7552 19.2526 36.2029 19.2526 36.7552C19.2526 37.3074 19.7003 37.7552 20.2526 37.7552H43.7471C44.2994 37.7552 44.7471 37.3074 44.7471 36.7552C44.7471 36.2029 44.2994 35.7552 43.7471 35.7552Z" fill="#231F20"/>
<path d="M38.4723 40.6531H20.2526C19.7003 40.6531 19.2526 41.1009 19.2526 41.6531C19.2526 42.2054 19.7003 42.6531 20.2526 42.6531H38.4723C39.0246 42.6531 39.4723 42.2054 39.4723 41.6531C39.4723 41.1009 39.0246 40.6531 38.4723 40.6531Z" fill="#231F20"/>
<path d="M43.7471 40.6531H42.6702C42.1179 40.6531 41.6702 41.1009 41.6702 41.6531C41.6702 42.2054 42.1179 42.6531 42.6702 42.6531H43.7471C44.2994 42.6531 44.7471 42.2054 44.7471 41.6531C44.7471 41.1009 44.2994 40.6531 43.7471 40.6531Z" fill="#231F20"/>
<path d="M23.5273 11.6736H20.2526C19.7003 11.6736 19.2526 12.1213 19.2526 12.6736C19.2526 13.2258 19.7003 13.6736 20.2526 13.6736H23.5273C24.0796 13.6736 24.5273 13.2258 24.5273 12.6736C24.5273 12.1213 24.0796 11.6736 23.5273 11.6736Z" fill="#231F20"/>
<path d="M28.802 14.5307H20.2526C19.7003 14.5307 19.2526 14.9784 19.2526 15.5307C19.2526 16.083 19.7003 16.5307 20.2526 16.5307H28.802C29.3543 16.5307 29.802 16.083 29.802 15.5307C29.802 14.9784 29.3543 14.5307 28.802 14.5307Z" fill="#231F20"/>
</g>
<g filter="url(#filter1_d_28_389)">
<path d="M61.2783 24.5V12.8636H65.426C66.3275 12.8636 67.0756 13.0189 67.6703 13.3295C68.2688 13.6401 68.7158 14.0701 69.0112 14.6193C69.3067 15.1648 69.4544 15.7954 69.4544 16.5113C69.4544 17.2235 69.3048 17.8504 69.0056 18.392C68.7101 18.9299 68.2631 19.3485 67.6646 19.6477C67.07 19.947 66.3218 20.0966 65.4203 20.0966H62.2783V18.5852H65.2612C65.8294 18.5852 66.2915 18.5038 66.6476 18.3409C67.0075 18.178 67.2707 17.9413 67.4374 17.6307C67.604 17.3201 67.6874 16.947 67.6874 16.5113C67.6874 16.072 67.6021 15.6913 67.4317 15.3693C67.265 15.0473 67.0018 14.8011 66.6419 14.6307C66.2859 14.4564 65.8181 14.3693 65.2385 14.3693H63.034V24.5H61.2783ZM67.0226 19.25L69.8976 24.5H67.8976L65.0794 19.25H67.0226ZM75.1064 24.6761C74.2466 24.6761 73.506 24.4924 72.8848 24.125C72.2674 23.7538 71.7901 23.2329 71.453 22.5625C71.1197 21.8882 70.953 21.0985 70.953 20.1932C70.953 19.2992 71.1197 18.5113 71.453 17.8295C71.7901 17.1477 72.2598 16.6155 72.8621 16.2329C73.4682 15.8504 74.1765 15.6591 74.9871 15.6591C75.4795 15.6591 75.9568 15.7405 76.4189 15.9034C76.881 16.0663 77.2958 16.322 77.6632 16.6704C78.0306 17.0189 78.3204 17.4716 78.5325 18.0284C78.7447 18.5814 78.8507 19.2538 78.8507 20.0454V20.6477H71.9132V19.375H77.186C77.186 18.928 77.095 18.5322 76.9132 18.1875C76.7314 17.839 76.4757 17.5644 76.1462 17.3636C75.8204 17.1629 75.4378 17.0625 74.9985 17.0625C74.5212 17.0625 74.1045 17.1799 73.7485 17.4148C73.3962 17.6458 73.1235 17.9488 72.9303 18.3238C72.7409 18.6951 72.6462 19.0985 72.6462 19.5341V20.5284C72.6462 21.1117 72.7485 21.6079 72.953 22.017C73.1613 22.4261 73.4511 22.7386 73.8223 22.9545C74.1935 23.1666 74.6272 23.2727 75.1235 23.2727C75.4454 23.2727 75.739 23.2273 76.0041 23.1363C76.2693 23.0416 76.4985 22.9015 76.6916 22.7159C76.8848 22.5303 77.0325 22.3011 77.1348 22.0284L78.7428 22.3182C78.614 22.7916 78.3829 23.2064 78.0496 23.5625C77.72 23.9148 77.3053 24.1894 76.8053 24.3863C76.3091 24.5795 75.7428 24.6761 75.1064 24.6761ZM83.2754 24.6932C82.7224 24.6932 82.2224 24.5909 81.7754 24.3863C81.3285 24.178 80.9743 23.8769 80.7129 23.4829C80.4554 23.089 80.3266 22.606 80.3266 22.0341C80.3266 21.5416 80.4213 21.1363 80.6107 20.8182C80.8001 20.5 81.0557 20.2481 81.3777 20.0625C81.6997 19.8769 82.0595 19.7367 82.4573 19.642C82.855 19.5473 83.2603 19.4754 83.6732 19.4261C84.1959 19.3655 84.6201 19.3163 84.9459 19.2784C85.2717 19.2367 85.5084 19.1704 85.6561 19.0795C85.8038 18.9886 85.8777 18.8409 85.8777 18.6363V18.5966C85.8777 18.1004 85.7376 17.7159 85.4573 17.4432C85.1807 17.1704 84.7679 17.0341 84.2186 17.0341C83.6467 17.0341 83.1959 17.161 82.8663 17.4148C82.5406 17.6648 82.3152 17.9432 82.1902 18.25L80.5936 17.8863C80.783 17.356 81.0595 16.928 81.4232 16.6023C81.7906 16.2727 82.2129 16.0341 82.6902 15.8863C83.1675 15.7348 83.6694 15.6591 84.1959 15.6591C84.5444 15.6591 84.9137 15.7007 85.3038 15.7841C85.6978 15.8636 86.0652 16.0113 86.4061 16.2273C86.7508 16.4432 87.033 16.7519 87.2527 17.1534C87.4724 17.5511 87.5823 18.0682 87.5823 18.7045V24.5H85.9232V23.3068H85.855C85.7451 23.5265 85.5804 23.7424 85.3607 23.9545C85.141 24.1666 84.8588 24.3428 84.5141 24.4829C84.1694 24.6231 83.7565 24.6932 83.2754 24.6932ZM83.6448 23.3295C84.1145 23.3295 84.516 23.2367 84.8493 23.0511C85.1864 22.8655 85.4421 22.6231 85.6163 22.3238C85.7944 22.0208 85.8834 21.697 85.8834 21.3523V20.2273C85.8228 20.2879 85.7054 20.3447 85.5311 20.3977C85.3607 20.447 85.1656 20.4905 84.9459 20.5284C84.7262 20.5625 84.5122 20.5947 84.3038 20.625C84.0955 20.6515 83.9213 20.6742 83.7811 20.6932C83.4516 20.7348 83.1504 20.8049 82.8777 20.9034C82.6088 21.0019 82.3929 21.1439 82.23 21.3295C82.0709 21.5113 81.9913 21.7538 81.9913 22.0568C81.9913 22.4773 82.1467 22.7954 82.4573 23.0113C82.7679 23.2235 83.1637 23.3295 83.6448 23.3295ZM93.1121 24.6704C92.4075 24.6704 91.7788 24.4905 91.2257 24.1307C90.6765 23.767 90.2447 23.25 89.9303 22.5795C89.6197 21.9053 89.4644 21.0966 89.4644 20.1534C89.4644 19.2102 89.6216 18.4034 89.9359 17.7329C90.2541 17.0625 90.6897 16.5492 91.2428 16.1932C91.7958 15.8371 92.4227 15.6591 93.1234 15.6591C93.6651 15.6591 94.1007 15.75 94.4303 15.9318C94.7636 16.1098 95.0212 16.3182 95.203 16.5568C95.3886 16.7954 95.5325 17.0057 95.6348 17.1875H95.7371V12.8636H97.4359V24.5H95.7769V23.142H95.6348C95.5325 23.3276 95.3848 23.5398 95.1916 23.7784C95.0022 24.017 94.7409 24.2254 94.4075 24.4034C94.0742 24.5814 93.6424 24.6704 93.1121 24.6704ZM93.4871 23.2216C93.9757 23.2216 94.3886 23.0928 94.7257 22.8352C95.0666 22.5738 95.3242 22.2121 95.4984 21.75C95.6765 21.2879 95.7655 20.75 95.7655 20.1363C95.7655 19.5303 95.6784 19 95.5041 18.5454C95.3299 18.0909 95.0742 17.7367 94.7371 17.4829C94.4 17.2291 93.9833 17.1023 93.4871 17.1023C92.9757 17.1023 92.5496 17.2348 92.2087 17.5C91.8678 17.7651 91.6102 18.1269 91.4359 18.5852C91.2655 19.0435 91.1803 19.5606 91.1803 20.1363C91.1803 20.7197 91.2674 21.2443 91.4416 21.7102C91.6159 22.1761 91.8734 22.5454 92.2144 22.8182C92.5591 23.0871 92.9833 23.2216 93.4871 23.2216ZM108.169 15.7727V17.1363H103.402V15.7727H108.169ZM104.68 13.6818H106.379V21.9375C106.379 22.267 106.428 22.5151 106.527 22.6818C106.625 22.8447 106.752 22.9564 106.908 23.017C107.067 23.0738 107.239 23.1023 107.425 23.1023C107.561 23.1023 107.68 23.0928 107.783 23.0738C107.885 23.0549 107.964 23.0398 108.021 23.0284L108.328 24.4318C108.23 24.4697 108.089 24.5076 107.908 24.5454C107.726 24.5871 107.498 24.6098 107.226 24.6136C106.779 24.6212 106.362 24.5416 105.976 24.375C105.589 24.2083 105.277 23.9507 105.038 23.6023C104.8 23.2538 104.68 22.8163 104.68 22.2898V13.6818ZM111.935 19.3182V24.5H110.236V12.8636H111.912V17.1932H112.02C112.224 16.7235 112.537 16.3504 112.957 16.0738C113.378 15.7973 113.927 15.6591 114.605 15.6591C115.203 15.6591 115.726 15.7822 116.173 16.0284C116.624 16.2746 116.972 16.642 117.219 17.1307C117.469 17.6155 117.594 18.2216 117.594 18.9488V24.5H115.895V19.1534C115.895 18.5132 115.73 18.017 115.4 17.6648C115.071 17.3087 114.613 17.1307 114.025 17.1307C113.624 17.1307 113.264 17.2159 112.946 17.3863C112.631 17.5568 112.383 17.8068 112.202 18.1363C112.024 18.4621 111.935 18.856 111.935 19.3182ZM123.622 24.6761C122.762 24.6761 122.022 24.4924 121.4 24.125C120.783 23.7538 120.306 23.2329 119.969 22.5625C119.635 21.8882 119.469 21.0985 119.469 20.1932C119.469 19.2992 119.635 18.5113 119.969 17.8295C120.306 17.1477 120.775 16.6155 121.378 16.2329C121.984 15.8504 122.692 15.6591 123.503 15.6591C123.995 15.6591 124.472 15.7405 124.935 15.9034C125.397 16.0663 125.811 16.322 126.179 16.6704C126.546 17.0189 126.836 17.4716 127.048 18.0284C127.26 18.5814 127.366 19.2538 127.366 20.0454V20.6477H120.429V19.375H125.702C125.702 18.928 125.611 18.5322 125.429 18.1875C125.247 17.839 124.991 17.5644 124.662 17.3636C124.336 17.1629 123.953 17.0625 123.514 17.0625C123.037 17.0625 122.62 17.1799 122.264 17.4148C121.912 17.6458 121.639 17.9488 121.446 18.3238C121.256 18.6951 121.162 19.0985 121.162 19.5341V20.5284C121.162 21.1117 121.264 21.6079 121.469 22.017C121.677 22.4261 121.967 22.7386 122.338 22.9545C122.709 23.1666 123.143 23.2727 123.639 23.2727C123.961 23.2727 124.255 23.2273 124.52 23.1363C124.785 23.0416 125.014 22.9015 125.207 22.7159C125.4 22.5303 125.548 22.3011 125.65 22.0284L127.258 22.3182C127.13 22.7916 126.899 23.2064 126.565 23.5625C126.236 23.9148 125.821 24.1894 125.321 24.3863C124.825 24.5795 124.258 24.6761 123.622 24.6761Z" fill="#E8E8E8"/>
<path d="M65.5056 43.5H60.9356V31.1363H65.4995C66.7592 31.1363 67.8439 31.3839 68.7534 31.8789C69.667 32.3699 70.3713 33.0782 70.8664 34.0039C71.3614 34.9255 71.6089 36.0283 71.6089 37.3121C71.6089 38.6 71.3614 39.7068 70.8664 40.6324C70.3753 41.5581 69.6731 42.2684 68.7595 42.7635C67.8459 43.2545 66.7612 43.5 65.5056 43.5ZM63.9239 40.9524H65.3909C66.0831 40.9524 66.6687 40.8357 67.1476 40.6022C67.6306 40.3648 67.9948 39.9804 68.2403 39.4492C68.4898 38.9139 68.6146 38.2016 68.6146 37.3121C68.6146 36.4227 68.4898 35.7143 68.2403 35.1871C67.9908 34.6559 67.6225 34.2735 67.1355 34.0401C66.6526 33.8027 66.0569 33.6839 65.3486 33.6839H63.9239V40.9524ZM77.682 43.675C76.7081 43.675 75.871 43.4758 75.1707 43.0774C74.4744 42.6749 73.9371 42.1155 73.5588 41.3991C73.1845 40.6787 72.9974 39.8436 72.9974 38.8938C72.9974 37.94 73.1845 37.1049 73.5588 36.3885C73.9371 35.6681 74.4744 35.1086 75.1707 34.7102C75.871 34.3077 76.7081 34.1065 77.682 34.1065C78.656 34.1065 79.4911 34.3077 80.1874 34.7102C80.8877 35.1086 81.4249 35.6681 81.7992 36.3885C82.1775 37.1049 82.3667 37.94 82.3667 38.8938C82.3667 39.8436 82.1775 40.6787 81.7992 41.3991C81.4249 42.1155 80.8877 42.6749 80.1874 43.0774C79.4911 43.4758 78.656 43.675 77.682 43.675ZM77.7002 41.4474C78.0543 41.4474 78.3542 41.3388 78.5997 41.1214C78.8452 40.9041 79.0323 40.6022 79.1611 40.2159C79.2939 39.8295 79.3603 39.3828 79.3603 38.8757C79.3603 38.3605 79.2939 37.9098 79.1611 37.5234C79.0323 37.137 78.8452 36.8352 78.5997 36.6179C78.3542 36.4005 78.0543 36.2919 77.7002 36.2919C77.3339 36.2919 77.024 36.4005 76.7705 36.6179C76.5209 36.8352 76.3298 37.137 76.197 37.5234C76.0682 37.9098 76.0038 38.3605 76.0038 38.8757C76.0038 39.3828 76.0682 39.8295 76.197 40.2159C76.3298 40.6022 76.5209 40.9041 76.7705 41.1214C77.024 41.3388 77.3339 41.4474 77.7002 41.4474ZM88.2074 43.675C87.2295 43.675 86.3903 43.4738 85.69 43.0714C84.9938 42.6689 84.4585 42.1095 84.0842 41.3931C83.7099 40.6727 83.5228 39.8396 83.5228 38.8938C83.5228 37.944 83.7099 37.1109 84.0842 36.3945C84.4625 35.6741 84.9998 35.1127 85.6961 34.7102C86.3964 34.3077 87.2315 34.1065 88.2014 34.1065C89.0586 34.1065 89.8052 34.2615 90.4411 34.5714C91.081 34.8812 91.5801 35.3199 91.9383 35.8874C92.3005 36.4509 92.4916 37.1129 92.5118 37.8736H89.7529C89.6965 37.3986 89.5356 37.0264 89.2699 36.7567C89.0083 36.4871 88.6662 36.3522 88.2437 36.3522C87.9016 36.3522 87.6017 36.4488 87.3442 36.642C87.0866 36.8312 86.8853 37.1129 86.7405 37.4872C86.5996 37.8575 86.5292 38.3163 86.5292 38.8636C86.5292 39.411 86.5996 39.8738 86.7405 40.2521C86.8853 40.6264 87.0866 40.9101 87.3442 41.1033C87.6017 41.2925 87.9016 41.387 88.2437 41.387C88.5173 41.387 88.7588 41.3287 88.9681 41.212C89.1814 41.0953 89.3565 40.9242 89.4933 40.6988C89.6301 40.4694 89.7167 40.1917 89.7529 39.8657H92.5118C92.4836 40.6304 92.2924 41.2985 91.9383 41.87C91.5881 42.4415 91.0951 42.8862 90.4592 43.2042C89.8273 43.5181 89.0768 43.675 88.2074 43.675ZM100.005 39.4975V34.2272H102.951V43.5H100.138V41.7734H100.041C99.8361 42.3409 99.4859 42.7916 98.9909 43.1257C98.4999 43.4557 97.9063 43.6207 97.21 43.6207C96.5781 43.6207 96.0227 43.4758 95.5438 43.1861C95.0649 42.8963 94.6926 42.4918 94.427 41.9726C94.1614 41.4494 94.0265 40.8377 94.0225 40.1374V34.2272H96.9746V39.5579C96.9786 40.0609 97.1114 40.4574 97.373 40.7471C97.6346 41.0369 97.9908 41.1818 98.4415 41.1818C98.7353 41.1818 98.9989 41.1174 99.2324 40.9886C99.4698 40.8558 99.657 40.6646 99.7938 40.4151C99.9347 40.1616 100.005 39.8557 100.005 39.4975ZM104.83 43.5V34.2272H107.637V35.9297H107.74C107.933 35.3662 108.259 34.9215 108.718 34.5955C109.177 34.2695 109.724 34.1065 110.36 34.1065C111.004 34.1065 111.555 34.2715 112.014 34.6015C112.473 34.9316 112.765 35.3743 112.889 35.9297H112.986C113.159 35.3783 113.497 34.9376 114 34.6076C114.503 34.2735 115.097 34.1065 115.781 34.1065C116.658 34.1065 117.371 34.3882 117.918 34.9517C118.466 35.5111 118.739 36.2798 118.739 37.2578V43.5H115.787V37.9339C115.787 37.4711 115.668 37.1189 115.431 36.8775C115.194 36.632 114.886 36.5092 114.507 36.5092C114.101 36.5092 113.781 36.642 113.547 36.9076C113.318 37.1692 113.203 37.5214 113.203 37.9641V43.5H110.366V37.9037C110.366 37.4731 110.249 37.133 110.016 36.8835C109.782 36.634 109.475 36.5092 109.092 36.5092C108.835 36.5092 108.607 36.5716 108.41 36.6964C108.213 36.8171 108.058 36.9901 107.945 37.2155C107.837 37.4409 107.782 37.7065 107.782 38.0124V43.5H104.83ZM124.903 43.675C123.933 43.675 123.096 43.4839 122.392 43.1015C121.691 42.7152 121.152 42.1658 120.774 41.4535C120.399 40.7371 120.212 39.8859 120.212 38.8998C120.212 37.942 120.401 37.1049 120.78 36.3885C121.158 35.6681 121.691 35.1086 122.379 34.7102C123.068 34.3077 123.879 34.1065 124.812 34.1065C125.472 34.1065 126.076 34.2091 126.623 34.4144C127.171 34.6196 127.644 34.9235 128.042 35.326C128.441 35.7284 128.75 36.2255 128.972 36.8171C129.193 37.4047 129.304 38.0788 129.304 38.8395V39.576H121.245V37.8615H126.557C126.553 37.5476 126.479 37.2678 126.334 37.0223C126.189 36.7768 125.99 36.5857 125.736 36.4488C125.486 36.308 125.199 36.2375 124.873 36.2375C124.543 36.2375 124.247 36.312 123.985 36.4609C123.724 36.6058 123.516 36.805 123.363 37.0586C123.211 37.3081 123.13 37.5918 123.122 37.9098V39.6544C123.122 40.0328 123.196 40.3648 123.345 40.6505C123.494 40.9323 123.706 41.1516 123.979 41.3086C124.253 41.4655 124.579 41.544 124.957 41.544C125.219 41.544 125.456 41.5078 125.67 41.4353C125.883 41.3629 126.066 41.2562 126.219 41.1154C126.372 40.9745 126.487 40.8015 126.563 40.5962L129.274 40.6747C129.161 41.2824 128.913 41.8116 128.531 42.2624C128.153 42.7091 127.656 43.0573 127.04 43.3068C126.424 43.5523 125.712 43.675 124.903 43.675ZM133.764 38.2116V43.5H130.812V34.2272H133.619V35.9297H133.721C133.927 35.3622 134.277 34.9175 134.772 34.5955C135.267 34.2695 135.856 34.1065 136.541 34.1065C137.193 34.1065 137.758 34.2534 138.237 34.5472C138.72 34.837 139.094 35.2435 139.36 35.7667C139.63 36.2858 139.762 36.8936 139.758 37.5898V43.5H136.806V38.1694C136.81 37.6542 136.679 37.2517 136.414 36.962C136.152 36.6722 135.788 36.5273 135.321 36.5273C135.011 36.5273 134.738 36.5957 134.5 36.7326C134.267 36.8654 134.086 37.0566 133.957 37.3061C133.832 37.5556 133.768 37.8575 133.764 38.2116ZM146.82 34.2272V36.4005H140.97V34.2272H146.82ZM142.196 32.0057H145.148V40.5841C145.148 40.7652 145.176 40.9121 145.232 41.0248C145.293 41.1335 145.379 41.212 145.492 41.2603C145.605 41.3045 145.739 41.3267 145.896 41.3267C146.009 41.3267 146.128 41.3166 146.253 41.2965C146.381 41.2723 146.478 41.2522 146.542 41.2361L146.989 43.3672C146.848 43.4074 146.649 43.4577 146.391 43.5181C146.138 43.5785 145.834 43.6167 145.48 43.6328C144.788 43.665 144.194 43.5845 143.699 43.3913C143.208 43.1941 142.832 42.8882 142.57 42.4737C142.312 42.0592 142.188 41.538 142.196 40.9101V32.0057ZM150.94 43.6569C150.349 43.6569 149.823 43.5583 149.365 43.3611C148.91 43.1599 148.55 42.858 148.284 42.4556C148.022 42.0491 147.892 41.54 147.892 40.9282C147.892 40.4131 147.982 39.9784 148.163 39.6243C148.344 39.2701 148.594 38.9823 148.912 38.761C149.23 38.5396 149.596 38.3726 150.011 38.2599C150.425 38.1432 150.868 38.0647 151.339 38.0245C151.866 37.9762 152.29 37.9259 152.612 37.8736C152.934 37.8172 153.168 37.7387 153.313 37.6381C153.462 37.5335 153.536 37.3866 153.536 37.1974V37.1672C153.536 36.8573 153.429 36.6179 153.216 36.4488C153.003 36.2798 152.715 36.1953 152.353 36.1953C151.962 36.1953 151.649 36.2798 151.411 36.4488C151.174 36.6179 151.023 36.8513 150.958 37.1491L148.236 37.0525C148.316 36.4891 148.523 35.986 148.857 35.5433C149.196 35.0966 149.658 34.7464 150.246 34.4929C150.838 34.2353 151.548 34.1065 152.377 34.1065C152.969 34.1065 153.514 34.1769 154.013 34.3178C154.512 34.4546 154.947 34.6559 155.317 34.9215C155.687 35.1831 155.973 35.5051 156.174 35.8874C156.379 36.2697 156.482 36.7064 156.482 37.1974V43.5H153.705V42.2081H153.633C153.468 42.522 153.256 42.7876 152.999 43.0049C152.745 43.2223 152.445 43.3853 152.099 43.4939C151.757 43.6026 151.371 43.6569 150.94 43.6569ZM151.852 41.7251C152.17 41.7251 152.455 41.6607 152.709 41.5319C152.967 41.4031 153.172 41.2261 153.325 41.0007C153.478 40.7713 153.554 40.5057 153.554 40.2038V39.3224C153.47 39.3667 153.367 39.4069 153.246 39.4432C153.13 39.4794 153.001 39.5136 152.86 39.5458C152.719 39.578 152.574 39.6062 152.425 39.6303C152.276 39.6544 152.133 39.6766 151.997 39.6967C151.719 39.741 151.482 39.8094 151.284 39.902C151.091 39.9945 150.942 40.1153 150.838 40.2642C150.737 40.4091 150.687 40.5821 150.687 40.7834C150.687 41.0892 150.795 41.3227 151.013 41.4836C151.234 41.6446 151.514 41.7251 151.852 41.7251ZM163.521 34.2272V36.4005H157.671V34.2272H163.521ZM158.897 32.0057H161.849V40.5841C161.849 40.7652 161.877 40.9121 161.933 41.0248C161.994 41.1335 162.08 41.212 162.193 41.2603C162.306 41.3045 162.441 41.3267 162.598 41.3267C162.71 41.3267 162.829 41.3166 162.954 41.2965C163.082 41.2723 163.179 41.2522 163.243 41.2361L163.69 43.3672C163.549 43.4074 163.35 43.4577 163.093 43.5181C162.839 43.5785 162.535 43.6167 162.181 43.6328C161.489 43.665 160.895 43.5845 160.4 43.3913C159.909 43.1941 159.533 42.8882 159.271 42.4737C159.014 42.0592 158.889 41.538 158.897 40.9101V32.0057ZM165.027 43.5V34.2272H167.979V43.5H165.027ZM166.506 33.1466C166.092 33.1466 165.736 33.0098 165.438 32.7361C165.14 32.4584 164.991 32.1244 164.991 31.734C164.991 31.3476 165.14 31.0176 165.438 30.7439C165.736 30.4662 166.092 30.3274 166.506 30.3274C166.925 30.3274 167.281 30.4662 167.575 30.7439C167.873 31.0176 168.022 31.3476 168.022 31.734C168.022 32.1244 167.873 32.4584 167.575 32.7361C167.281 33.0098 166.925 33.1466 166.506 33.1466ZM174.187 43.675C173.213 43.675 172.376 43.4758 171.676 43.0774C170.979 42.6749 170.442 42.1155 170.064 41.3991C169.689 40.6787 169.502 39.8436 169.502 38.8938C169.502 37.94 169.689 37.1049 170.064 36.3885C170.442 35.6681 170.979 35.1086 171.676 34.7102C172.376 34.3077 173.213 34.1065 174.187 34.1065C175.161 34.1065 175.996 34.3077 176.692 34.7102C177.393 35.1086 177.93 35.6681 178.304 36.3885C178.682 37.1049 178.872 37.94 178.872 38.8938C178.872 39.8436 178.682 40.6787 178.304 41.3991C177.93 42.1155 177.393 42.6749 176.692 43.0774C175.996 43.4758 175.161 43.675 174.187 43.675ZM174.205 41.4474C174.559 41.4474 174.859 41.3388 175.105 41.1214C175.35 40.9041 175.537 40.6022 175.666 40.2159C175.799 39.8295 175.865 39.3828 175.865 38.8757C175.865 38.3605 175.799 37.9098 175.666 37.5234C175.537 37.137 175.35 36.8352 175.105 36.6179C174.859 36.4005 174.559 36.2919 174.205 36.2919C173.839 36.2919 173.529 36.4005 173.275 36.6179C173.026 36.8352 172.835 37.137 172.702 37.5234C172.573 37.9098 172.509 38.3605 172.509 38.8757C172.509 39.3828 172.573 39.8295 172.702 40.2159C172.835 40.6022 173.026 40.9041 173.275 41.1214C173.529 41.3388 173.839 41.4474 174.205 41.4474ZM183.336 38.2116V43.5H180.384V34.2272H183.191V35.9297H183.294C183.499 35.3622 183.849 34.9175 184.344 34.5955C184.839 34.2695 185.429 34.1065 186.113 34.1065C186.765 34.1065 187.33 34.2534 187.809 34.5472C188.292 34.837 188.666 35.2435 188.932 35.7667C189.202 36.2858 189.335 36.8936 189.331 37.5898V43.5H186.378V38.1694C186.383 37.6542 186.252 37.2517 185.986 36.962C185.724 36.6722 185.36 36.5273 184.893 36.5273C184.583 36.5273 184.31 36.5957 184.072 36.7326C183.839 36.8654 183.658 37.0566 183.529 37.3061C183.404 37.5556 183.34 37.8575 183.336 38.2116Z" fill="#F1F1F1"/>
</g>
<rect x="1.04988" y="1.04998" width="200.9" height="53.9" rx="6.95" stroke="white" stroke-opacity="0.15" stroke-width="2.1"/>
<defs>
<filter id="filter0_d_28_389" x="6.28559" y="2.2857" width="51.4286" height="51.4286" filterUnits="userSpaceOnUse" color-interpolation-filters="sRGB">
<feFlood flood-opacity="0" result="BackgroundImageFix"/>
<feColorMatrix in="SourceAlpha" type="matrix" values="0 0 0 0 0 0 0 0 0 0 0 0 0 0 0 0 0 0 127 0" result="hardAlpha"/>
<feOffset/>
<feGaussianBlur stdDeviation="2.85714"/>
<feComposite in2="hardAlpha" operator="out"/>
<feColorMatrix type="matrix" values="0 0 0 0 0 0 0 0 0 0 0 0 0 0 0 0 0 0 0.25 0"/>
<feBlend mode="normal" in2="BackgroundImageFix" result="effect1_dropShadow_28_389"/>
<feBlend mode="normal" in="SourceGraphic" in2="effect1_dropShadow_28_389" result="shape"/>
</filter>
<filter id="filter1_d_28_389" x="54.3999" y="3.89998" width="142.2" height="48.2" filterUnits="userSpaceOnUse" color-interpolation-filters="sRGB">
<feFlood flood-opacity="0" result="BackgroundImageFix"/>
<feColorMatrix in="SourceAlpha" type="matrix" values="0 0 0 0 0 0 0 0 0 0 0 0 0 0 0 0 0 0 127 0" result="hardAlpha"/>
<feOffset/>
<feGaussianBlur stdDeviation="2.8"/>
<feComposite in2="hardAlpha" operator="out"/>
<feColorMatrix type="matrix" values="0 0 0 0 0 0 0 0 0 0 0 0 0 0 0 0 0 0 0.25 0"/>
<feBlend mode="normal" in2="BackgroundImageFix" result="effect1_dropShadow_28_389"/>
<feBlend mode="normal" in="SourceGraphic" in2="effect1_dropShadow_28_389" result="shape"/>
</filter>
<linearGradient id="paint0_linear_28_389" x1="101.5" y1="-1.52588e-05" x2="101.5" y2="56" gradientUnits="userSpaceOnUse">
<stop stop-color="#303030"/>
<stop offset="1" stop-color="#1D1D1D"/>
</linearGradient>
</defs>
</svg>
