<svg width="182" height="56" viewBox="0 0 182 56" fill="none" xmlns="http://www.w3.org/2000/svg">
<rect x="-0.00012207" y="-6.10352e-05" width="182" height="56" rx="8" fill="url(#paint0_linear_8_10)"/>
<rect x="1.04988" y="1.04994" width="179.9" height="53.9" rx="6.95" stroke="white" stroke-opacity="0.15" stroke-width="2.1"/>
<g filter="url(#filter0_d_8_10)">
<path d="M32 44.6667C41.2047 44.6667 48.6666 37.2048 48.6666 28C48.6666 18.7953 41.2047 11.3333 32 11.3333C22.7952 11.3333 15.3333 18.7953 15.3333 28C15.3333 37.2048 22.7952 44.6667 32 44.6667Z" stroke="#3FB950" stroke-width="2.86" stroke-linecap="round" stroke-linejoin="round"/>
<path d="M32 29.6667C32.9205 29.6667 33.6666 28.9205 33.6666 28C33.6666 27.0795 32.9205 26.3333 32 26.3333C31.0795 26.3333 30.3333 27.0795 30.3333 28C30.3333 28.9205 31.0795 29.6667 32 29.6667Z" fill="#3FB950" stroke="#3FB950" stroke-width="2.86" stroke-linecap="round" stroke-linejoin="round"/>
</g>
<g filter="url(#filter1_d_8_10)">
<path d="M67.6249 15.9204C67.5643 15.3825 67.3143 14.9658 66.8749 14.6704C66.4355 14.3711 65.8825 14.2215 65.2158 14.2215C64.7385 14.2215 64.3256 14.2973 63.9771 14.4488C63.6287 14.5965 63.3578 14.8011 63.1646 15.0624C62.9753 15.32 62.8806 15.6136 62.8806 15.9431C62.8806 16.2196 62.945 16.4583 63.0737 16.659C63.2063 16.8598 63.3787 17.0283 63.5908 17.1647C63.8067 17.2973 64.0378 17.409 64.284 17.4999C64.5302 17.5871 64.7669 17.659 64.9942 17.7158L66.1306 18.0113C66.5018 18.1022 66.8825 18.2253 67.2726 18.3806C67.6628 18.5359 68.0245 18.7405 68.3578 18.9943C68.6912 19.248 68.9601 19.5624 69.1646 19.9374C69.373 20.3124 69.4771 20.7613 69.4771 21.284C69.4771 21.9431 69.3067 22.5283 68.9658 23.0397C68.6287 23.5511 68.1381 23.9545 67.4942 24.2499C66.854 24.5454 66.0794 24.6931 65.1703 24.6931C64.2991 24.6931 63.5453 24.5549 62.909 24.2783C62.2726 24.0018 61.7745 23.6098 61.4147 23.1022C61.0548 22.5908 60.8559 21.9848 60.8181 21.284H62.5794C62.6135 21.7045 62.7499 22.0549 62.9885 22.3352C63.2309 22.6117 63.5396 22.8181 63.9146 22.9545C64.2934 23.0871 64.7082 23.1533 65.159 23.1533C65.6552 23.1533 66.0965 23.0757 66.4828 22.9204C66.873 22.7613 67.1798 22.5416 67.4033 22.2613C67.6268 21.9772 67.7385 21.6458 67.7385 21.267C67.7385 20.9223 67.64 20.6401 67.4431 20.4204C67.2499 20.2007 66.9866 20.0189 66.6533 19.8749C66.3237 19.731 65.9506 19.6041 65.534 19.4943L64.159 19.1193C63.2271 18.8655 62.4885 18.4924 61.9431 17.9999C61.4014 17.5075 61.1306 16.856 61.1306 16.0454C61.1306 15.3749 61.3124 14.7897 61.676 14.2897C62.0397 13.7897 62.5321 13.4015 63.1533 13.1249C63.7745 12.8446 64.4753 12.7045 65.2556 12.7045C66.0434 12.7045 66.7385 12.8427 67.3408 13.1193C67.9468 13.3958 68.4241 13.7765 68.7726 14.2613C69.1211 14.7424 69.3029 15.2954 69.3181 15.9204H67.6249ZM75.2002 24.6761C74.3403 24.6761 73.5998 24.4924 72.9786 24.1249C72.3611 23.7537 71.8839 23.2329 71.5467 22.5624C71.2134 21.8882 71.0467 21.0984 71.0467 20.1931C71.0467 19.2992 71.2134 18.5113 71.5467 17.8295C71.8839 17.1477 72.3536 16.6155 72.9558 16.2329C73.5619 15.8503 74.2702 15.659 75.0808 15.659C75.5733 15.659 76.0505 15.7405 76.5127 15.9033C76.9748 16.0662 77.3896 16.3219 77.757 16.6704C78.1244 17.0189 78.4142 17.4715 78.6263 18.0283C78.8384 18.5814 78.9445 19.2537 78.9445 20.0454V20.6477H72.007V19.3749H77.2797C77.2797 18.928 77.1888 18.5321 77.007 18.1874C76.8252 17.839 76.5695 17.5643 76.2399 17.3636C75.9142 17.1628 75.5316 17.0624 75.0922 17.0624C74.6149 17.0624 74.1983 17.1799 73.8422 17.4147C73.4899 17.6458 73.2172 17.9488 73.024 18.3238C72.8346 18.695 72.7399 19.0984 72.7399 19.534V20.5283C72.7399 21.1117 72.8422 21.6079 73.0467 22.017C73.2551 22.4261 73.5449 22.7386 73.9161 22.9545C74.2873 23.1666 74.721 23.2727 75.2172 23.2727C75.5392 23.2727 75.8327 23.2272 76.0979 23.1363C76.363 23.0416 76.5922 22.9015 76.7854 22.7158C76.9786 22.5302 77.1263 22.3011 77.2286 22.0283L78.8365 22.3181C78.7077 22.7916 78.4767 23.2064 78.1433 23.5624C77.8138 23.9147 77.399 24.1893 76.899 24.3863C76.4028 24.5795 75.8365 24.6761 75.2002 24.6761ZM84.5908 24.6761C83.7309 24.6761 82.9904 24.4924 82.3692 24.1249C81.7518 23.7537 81.2745 23.2329 80.9374 22.5624C80.604 21.8882 80.4374 21.0984 80.4374 20.1931C80.4374 19.2992 80.604 18.5113 80.9374 17.8295C81.2745 17.1477 81.7442 16.6155 82.3465 16.2329C82.9525 15.8503 83.6609 15.659 84.4715 15.659C84.9639 15.659 85.4412 15.7405 85.9033 15.9033C86.3654 16.0662 86.7802 16.3219 87.1476 16.6704C87.515 17.0189 87.8048 17.4715 88.0169 18.0283C88.229 18.5814 88.3351 19.2537 88.3351 20.0454V20.6477H81.3976V19.3749H86.6703C86.6703 18.928 86.5794 18.5321 86.3976 18.1874C86.2158 17.839 85.9601 17.5643 85.6306 17.3636C85.3048 17.1628 84.9222 17.0624 84.4828 17.0624C84.0056 17.0624 83.5889 17.1799 83.2328 17.4147C82.8806 17.6458 82.6078 17.9488 82.4146 18.3238C82.2253 18.695 82.1306 19.0984 82.1306 19.534V20.5283C82.1306 21.1117 82.2328 21.6079 82.4374 22.017C82.6457 22.4261 82.9355 22.7386 83.3067 22.9545C83.6779 23.1666 84.1116 23.2727 84.6078 23.2727C84.9298 23.2727 85.2234 23.2272 85.4885 23.1363C85.7537 23.0416 85.9828 22.9015 86.176 22.7158C86.3692 22.5302 86.5169 22.3011 86.6192 22.0283L88.2271 22.3181C88.0984 22.7916 87.8673 23.2064 87.534 23.5624C87.2044 23.9147 86.7896 24.1893 86.2896 24.3863C85.7934 24.5795 85.2271 24.6761 84.5908 24.6761ZM98.5283 15.7727V17.1363H93.7612V15.7727H98.5283ZM95.0396 13.6818H96.7385V21.9374C96.7385 22.267 96.7877 22.5151 96.8862 22.6818C96.9847 22.8446 97.1116 22.9564 97.2669 23.017C97.426 23.0738 97.5984 23.1022 97.784 23.1022C97.9203 23.1022 98.0396 23.0927 98.1419 23.0738C98.2442 23.0549 98.3237 23.0397 98.3805 23.0283L98.6874 24.4318C98.5889 24.4696 98.4487 24.5075 98.2669 24.5454C98.0851 24.5871 97.8578 24.6098 97.5851 24.6136C97.1381 24.6211 96.7215 24.5416 96.3351 24.3749C95.9487 24.2083 95.6362 23.9507 95.3976 23.6022C95.159 23.2537 95.0396 22.8162 95.0396 22.2897V13.6818ZM102.294 19.3181V24.4999H100.595V12.8636H102.271V17.1931H102.379C102.584 16.7234 102.896 16.3503 103.317 16.0738C103.737 15.7973 104.286 15.659 104.964 15.659C105.563 15.659 106.086 15.7821 106.533 16.0283C106.983 16.2746 107.332 16.642 107.578 17.1306C107.828 17.6155 107.953 18.2215 107.953 18.9488V24.4999H106.254V19.1533C106.254 18.5132 106.089 18.017 105.76 17.6647C105.43 17.3086 104.972 17.1306 104.385 17.1306C103.983 17.1306 103.623 17.2158 103.305 17.3863C102.991 17.5568 102.743 17.8068 102.561 18.1363C102.383 18.4621 102.294 18.856 102.294 19.3181ZM113.981 24.6761C113.122 24.6761 112.381 24.4924 111.76 24.1249C111.142 23.7537 110.665 23.2329 110.328 22.5624C109.995 21.8882 109.828 21.0984 109.828 20.1931C109.828 19.2992 109.995 18.5113 110.328 17.8295C110.665 17.1477 111.135 16.6155 111.737 16.2329C112.343 15.8503 113.051 15.659 113.862 15.659C114.355 15.659 114.832 15.7405 115.294 15.9033C115.756 16.0662 116.171 16.3219 116.538 16.6704C116.906 17.0189 117.195 17.4715 117.408 18.0283C117.62 18.5814 117.726 19.2537 117.726 20.0454V20.6477H110.788V19.3749H116.061C116.061 18.928 115.97 18.5321 115.788 18.1874C115.606 17.839 115.351 17.5643 115.021 17.3636C114.695 17.1628 114.313 17.0624 113.873 17.0624C113.396 17.0624 112.98 17.1799 112.623 17.4147C112.271 17.6458 111.998 17.9488 111.805 18.3238C111.616 18.695 111.521 19.0984 111.521 19.534V20.5283C111.521 21.1117 111.623 21.6079 111.828 22.017C112.036 22.4261 112.326 22.7386 112.697 22.9545C113.069 23.1666 113.502 23.2727 113.998 23.2727C114.32 23.2727 114.614 23.2272 114.879 23.1363C115.144 23.0416 115.373 22.9015 115.567 22.7158C115.76 22.5302 115.908 22.3011 116.01 22.0283L117.618 22.3181C117.489 22.7916 117.258 23.2064 116.925 23.5624C116.595 23.9147 116.18 24.1893 115.68 24.3863C115.184 24.5795 114.618 24.6761 113.981 24.6761Z" fill="#E8E8E8"/>
<path d="M63.9239 31.1363V43.4999H60.9356V31.1363H63.9239ZM73.8954 37.0585L71.1848 37.131C71.1566 36.9378 71.0802 36.7667 70.9554 36.6178C70.8306 36.4649 70.6676 36.3462 70.4664 36.2617C70.2692 36.1731 70.0398 36.1288 69.7782 36.1288C69.4361 36.1288 69.1443 36.1973 68.9028 36.3341C68.6654 36.4709 68.5487 36.6561 68.5527 36.8895C68.5487 37.0706 68.6211 37.2276 68.77 37.3604C68.923 37.4932 69.1946 37.5998 69.585 37.6803L71.3719 38.0184C72.2976 38.1955 72.9858 38.4893 73.4366 38.8998C73.8914 39.3103 74.1208 39.8536 74.1248 40.5298C74.1208 41.1657 73.9316 41.719 73.5573 42.1899C73.187 42.6608 72.6799 43.027 72.036 43.2886C71.3921 43.5462 70.6556 43.675 69.8265 43.675C68.5024 43.675 67.458 43.4033 66.6933 42.86C65.9327 42.3127 65.498 41.5802 65.3893 40.6626L68.3052 40.5901C68.3696 40.9282 68.5366 41.1858 68.8062 41.3629C69.0759 41.5399 69.42 41.6285 69.8386 41.6285C70.2169 41.6285 70.5248 41.5581 70.7622 41.4172C70.9997 41.2763 71.1204 41.0892 71.1244 40.8558C71.1204 40.6465 71.0278 40.4795 70.8467 40.3547C70.6656 40.2259 70.3819 40.1253 69.9955 40.0528L68.3776 39.745C67.4479 39.5759 66.7557 39.264 66.3009 38.8092C65.8461 38.3504 65.6208 37.7669 65.6248 37.0585C65.6208 36.4387 65.7858 35.9095 66.1198 35.4708C66.4539 35.0281 66.9288 34.69 67.5445 34.4566C68.1603 34.2232 68.8867 34.1065 69.7239 34.1065C70.9795 34.1065 71.9696 34.3701 72.694 34.8973C73.4185 35.4205 73.8189 36.1409 73.8954 37.0585ZM83.6737 37.0585L80.9631 37.131C80.9349 36.9378 80.8585 36.7667 80.7337 36.6178C80.609 36.4649 80.446 36.3462 80.2447 36.2617C80.0475 36.1731 79.8181 36.1288 79.5565 36.1288C79.2144 36.1288 78.9226 36.1973 78.6812 36.3341C78.4437 36.4709 78.327 36.6561 78.331 36.8895C78.327 37.0706 78.3994 37.2276 78.5483 37.3604C78.7013 37.4932 78.9729 37.5998 79.3633 37.6803L81.1503 38.0184C82.0759 38.1955 82.7641 38.4893 83.2149 38.8998C83.6697 39.3103 83.8991 39.8536 83.9031 40.5298C83.8991 41.1657 83.7099 41.719 83.3356 42.1899C82.9654 42.6608 82.4583 43.027 81.8143 43.2886C81.1704 43.5462 80.4339 43.675 79.6048 43.675C78.2807 43.675 77.2363 43.4033 76.4716 42.86C75.711 42.3127 75.2763 41.5802 75.1677 40.6626L78.0835 40.5901C78.1479 40.9282 78.3149 41.1858 78.5846 41.3629C78.8542 41.5399 79.1983 41.6285 79.6169 41.6285C79.9952 41.6285 80.3031 41.5581 80.5405 41.4172C80.778 41.2763 80.8987 41.0892 80.9027 40.8558C80.8987 40.6465 80.8062 40.4795 80.625 40.3547C80.4439 40.2259 80.1602 40.1253 79.7738 40.0528L78.1559 39.745C77.2263 39.5759 76.534 39.264 76.0792 38.8092C75.6245 38.3504 75.3991 37.7669 75.4031 37.0585C75.3991 36.4387 75.5641 35.9095 75.8981 35.4708C76.2322 35.0281 76.7071 34.69 77.3228 34.4566C77.9386 34.2232 78.6651 34.1065 79.5022 34.1065C80.7579 34.1065 81.7479 34.3701 82.4724 34.8973C83.1968 35.4205 83.5972 36.1409 83.6737 37.0585ZM91.3391 39.4974V34.2272H94.2851V43.4999H91.4719V41.7734H91.3753C91.1701 42.3408 90.8199 42.7916 90.3249 43.1256C89.8339 43.4557 89.2403 43.6207 88.544 43.6207C87.9121 43.6207 87.3567 43.4758 86.8778 43.186C86.3989 42.8962 86.0266 42.4918 85.761 41.9726C85.4953 41.4494 85.3605 40.8376 85.3565 40.1374V34.2272H88.3086V39.5578C88.3126 40.0609 88.4454 40.4573 88.707 40.7471C88.9686 41.0369 89.3248 41.1818 89.7755 41.1818C90.0693 41.1818 90.3329 41.1174 90.5664 40.9886C90.8038 40.8558 90.991 40.6646 91.1278 40.4151C91.2687 40.1615 91.3391 39.8556 91.3391 39.4974ZM100.499 43.675C99.5287 43.675 98.6916 43.4838 97.9873 43.1015C97.287 42.7151 96.7477 42.1658 96.3694 41.4534C95.9951 40.737 95.8079 39.8858 95.8079 38.8998C95.8079 37.9419 95.9971 37.1048 96.3754 36.3884C96.7537 35.668 97.287 35.1086 97.9752 34.7102C98.6634 34.3077 99.4744 34.1065 100.408 34.1065C101.068 34.1065 101.672 34.2091 102.219 34.4144C102.766 34.6196 103.239 34.9235 103.638 35.3259C104.036 35.7284 104.346 36.2254 104.568 36.8171C104.789 37.4046 104.9 38.0788 104.9 38.8394V39.5759H96.8402V37.8614H102.153C102.149 37.5475 102.074 37.2678 101.929 37.0223C101.784 36.7768 101.585 36.5856 101.332 36.4488C101.082 36.3079 100.794 36.2375 100.468 36.2375C100.138 36.2375 99.8426 36.312 99.581 36.4609C99.3194 36.6058 99.1121 36.805 98.9592 37.0585C98.8063 37.3081 98.7258 37.5918 98.7177 37.9097V39.6544C98.7177 40.0327 98.7922 40.3648 98.9411 40.6505C99.09 40.9322 99.3013 41.1516 99.575 41.3085C99.8486 41.4655 100.175 41.544 100.553 41.544C100.815 41.544 101.052 41.5077 101.265 41.4353C101.479 41.3629 101.662 41.2562 101.815 41.1153C101.968 40.9745 102.082 40.8014 102.159 40.5962L104.869 40.6747C104.757 41.2824 104.509 41.8116 104.127 42.2624C103.749 42.7091 103.251 43.0572 102.636 43.3068C102.02 43.5523 101.308 43.675 100.499 43.675ZM115.294 34.2272V36.4005H109.444V34.2272H115.294ZM110.669 32.0056H113.621V40.5841C113.621 40.7652 113.65 40.9121 113.706 41.0248C113.766 41.1335 113.853 41.2119 113.966 41.2602C114.078 41.3045 114.213 41.3266 114.37 41.3266C114.483 41.3266 114.601 41.3166 114.726 41.2965C114.855 41.2723 114.952 41.2522 115.016 41.2361L115.463 43.3671C115.322 43.4074 115.123 43.4577 114.865 43.518C114.611 43.5784 114.308 43.6166 113.953 43.6327C113.261 43.6649 112.668 43.5845 112.173 43.3913C111.682 43.1941 111.305 42.8882 111.044 42.4737C110.786 42.0591 110.661 41.5379 110.669 40.9101V32.0056ZM116.8 43.4999V34.2272H119.667V35.9176H119.764C119.933 35.3058 120.209 34.851 120.591 34.5532C120.973 34.2514 121.418 34.1004 121.925 34.1004C122.062 34.1004 122.203 34.1105 122.348 34.1306C122.493 34.1467 122.627 34.1729 122.752 34.2091V36.7748C122.611 36.7265 122.426 36.6883 122.197 36.6601C121.971 36.6319 121.77 36.6178 121.593 36.6178C121.243 36.6178 120.927 36.6963 120.645 36.8533C120.368 37.0062 120.148 37.2215 119.987 37.4992C119.83 37.7729 119.752 38.0949 119.752 38.4651V43.4999H116.8ZM126.22 43.6569C125.629 43.6569 125.104 43.5583 124.645 43.3611C124.19 43.1599 123.83 42.858 123.564 42.4555C123.303 42.0491 123.172 41.5399 123.172 40.9282C123.172 40.4131 123.262 39.9784 123.443 39.6242C123.625 39.2701 123.874 38.9823 124.192 38.7609C124.51 38.5396 124.876 38.3726 125.291 38.2599C125.705 38.1432 126.148 38.0647 126.619 38.0244C127.146 37.9761 127.571 37.9258 127.893 37.8735C128.215 37.8172 128.448 37.7387 128.593 37.6381C128.742 37.5334 128.816 37.3865 128.816 37.1974V37.1672C128.816 36.8573 128.71 36.6178 128.496 36.4488C128.283 36.2798 127.995 36.1952 127.633 36.1952C127.243 36.1952 126.929 36.2798 126.691 36.4488C126.454 36.6178 126.303 36.8513 126.239 37.1491L123.516 37.0525C123.596 36.489 123.804 35.986 124.138 35.5433C124.476 35.0965 124.939 34.7464 125.526 34.4928C126.118 34.2353 126.828 34.1065 127.657 34.1065C128.249 34.1065 128.794 34.1769 129.293 34.3178C129.792 34.4546 130.227 34.6558 130.597 34.9215C130.968 35.1831 131.253 35.505 131.454 35.8874C131.66 36.2697 131.762 36.7064 131.762 37.1974V43.4999H128.985V42.208H128.913C128.748 42.522 128.537 42.7876 128.279 43.0049C128.026 43.2222 127.726 43.3852 127.38 43.4939C127.037 43.6026 126.651 43.6569 126.22 43.6569ZM127.132 41.7251C127.45 41.7251 127.736 41.6607 127.989 41.5319C128.247 41.4031 128.452 41.226 128.605 41.0006C128.758 40.7712 128.834 40.5056 128.834 40.2038V39.3224C128.75 39.3666 128.647 39.4069 128.527 39.4431C128.41 39.4793 128.281 39.5135 128.14 39.5457C127.999 39.5779 127.854 39.6061 127.706 39.6303C127.557 39.6544 127.414 39.6765 127.277 39.6967C126.999 39.7409 126.762 39.8094 126.565 39.9019C126.371 39.9945 126.222 40.1152 126.118 40.2641C126.017 40.409 125.967 40.5821 125.967 40.7833C125.967 41.0892 126.076 41.3226 126.293 41.4836C126.514 41.6446 126.794 41.7251 127.132 41.7251ZM137.896 43.675C136.918 43.675 136.079 43.4738 135.378 43.0713C134.682 42.6689 134.147 42.1094 133.773 41.393C133.398 40.6726 133.211 39.8395 133.211 38.8938C133.211 37.9439 133.398 37.1109 133.773 36.3945C134.151 35.6741 134.688 35.1126 135.385 34.7102C136.085 34.3077 136.92 34.1065 137.89 34.1065C138.747 34.1065 139.494 34.2614 140.13 34.5713C140.769 34.8812 141.269 35.3199 141.627 35.8874C141.989 36.4508 142.18 37.1129 142.2 37.8735H139.441C139.385 37.3986 139.224 37.0263 138.958 36.7567C138.697 36.487 138.355 36.3522 137.932 36.3522C137.59 36.3522 137.29 36.4488 137.033 36.642C136.775 36.8311 136.574 37.1129 136.429 37.4872C136.288 37.8574 136.218 38.3162 136.218 38.8636C136.218 39.4109 136.288 39.8738 136.429 40.2521C136.574 40.6264 136.775 40.9101 137.033 41.1033C137.29 41.2924 137.59 41.387 137.932 41.387C138.206 41.387 138.447 41.3287 138.657 41.2119C138.87 41.0952 139.045 40.9242 139.182 40.6988C139.319 40.4694 139.405 40.1917 139.441 39.8657H142.2C142.172 40.6304 141.981 41.2985 141.627 41.87C141.277 42.4415 140.784 42.8862 140.148 43.2041C139.516 43.518 138.765 43.675 137.896 43.675ZM146.373 41.0671L146.385 37.5475H146.796L149.404 34.2272H152.748L148.873 38.9843H148.094L146.373 41.0671ZM143.711 43.4999V31.1363H146.663V43.4999H143.711ZM149.47 43.4999L147.043 39.6484L148.987 37.5536L152.881 43.4999H149.47ZM157.757 43.675C156.787 43.675 155.95 43.4838 155.246 43.1015C154.546 42.7151 154.006 42.1658 153.628 41.4534C153.254 40.737 153.067 39.8858 153.067 38.8998C153.067 37.9419 153.256 37.1048 153.634 36.3884C154.012 35.668 154.546 35.1086 155.234 34.7102C155.922 34.3077 156.733 34.1065 157.667 34.1065C158.327 34.1065 158.931 34.2091 159.478 34.4144C160.025 34.6196 160.498 34.9235 160.897 35.3259C161.295 35.7284 161.605 36.2254 161.826 36.8171C162.048 37.4046 162.158 38.0788 162.158 38.8394V39.5759H154.099V37.8614H159.412C159.407 37.5475 159.333 37.2678 159.188 37.0223C159.043 36.7768 158.844 36.5856 158.59 36.4488C158.341 36.3079 158.053 36.2375 157.727 36.2375C157.397 36.2375 157.101 36.312 156.84 36.4609C156.578 36.6058 156.371 36.805 156.218 37.0585C156.065 37.3081 155.985 37.5918 155.977 37.9097V39.6544C155.977 40.0327 156.051 40.3648 156.2 40.6505C156.349 40.9322 156.56 41.1516 156.834 41.3085C157.107 41.4655 157.433 41.544 157.812 41.544C158.073 41.544 158.311 41.5077 158.524 41.4353C158.737 41.3629 158.921 41.2562 159.073 41.1153C159.226 40.9745 159.341 40.8014 159.418 40.5962L162.128 40.6747C162.015 41.2824 161.768 41.8116 161.386 42.2624C161.007 42.7091 160.51 43.0572 159.894 43.3068C159.279 43.5523 158.566 43.675 157.757 43.675ZM163.666 43.4999V34.2272H166.534V35.9176H166.63C166.799 35.3058 167.075 34.851 167.457 34.5532C167.84 34.2514 168.284 34.1004 168.791 34.1004C168.928 34.1004 169.069 34.1105 169.214 34.1306C169.359 34.1467 169.494 34.1729 169.618 34.2091V36.7748C169.478 36.7265 169.292 36.6883 169.063 36.6601C168.838 36.6319 168.636 36.6178 168.459 36.6178C168.109 36.6178 167.793 36.6963 167.512 36.8533C167.234 37.0062 167.015 37.2215 166.854 37.4992C166.697 37.7729 166.618 38.0949 166.618 38.4651V43.4999H163.666Z" fill="white"/>
</g>
<defs>
<filter id="filter0_d_8_10" x="6.28559" y="2.28565" width="51.4287" height="51.4286" filterUnits="userSpaceOnUse" color-interpolation-filters="sRGB">
<feFlood flood-opacity="0" result="BackgroundImageFix"/>
<feColorMatrix in="SourceAlpha" type="matrix" values="0 0 0 0 0 0 0 0 0 0 0 0 0 0 0 0 0 0 127 0" result="hardAlpha"/>
<feOffset/>
<feGaussianBlur stdDeviation="2.85714"/>
<feComposite in2="hardAlpha" operator="out"/>
<feColorMatrix type="matrix" values="0 0 0 0 0 0 0 0 0 0 0 0 0 0 0 0 0 0 0.25 0"/>
<feBlend mode="normal" in2="BackgroundImageFix" result="effect1_dropShadow_8_10"/>
<feBlend mode="normal" in="SourceGraphic" in2="effect1_dropShadow_8_10" result="shape"/>
</filter>
<filter id="filter1_d_8_10" x="54.3999" y="3.89994" width="121.2" height="48.2" filterUnits="userSpaceOnUse" color-interpolation-filters="sRGB">
<feFlood flood-opacity="0" result="BackgroundImageFix"/>
<feColorMatrix in="SourceAlpha" type="matrix" values="0 0 0 0 0 0 0 0 0 0 0 0 0 0 0 0 0 0 127 0" result="hardAlpha"/>
<feOffset/>
<feGaussianBlur stdDeviation="2.8"/>
<feComposite in2="hardAlpha" operator="out"/>
<feColorMatrix type="matrix" values="0 0 0 0 0 0 0 0 0 0 0 0 0 0 0 0 0 0 0.25 0"/>
<feBlend mode="normal" in2="BackgroundImageFix" result="effect1_dropShadow_8_10"/>
<feBlend mode="normal" in="SourceGraphic" in2="effect1_dropShadow_8_10" result="shape"/>
</filter>
<linearGradient id="paint0_linear_8_10" x1="90.9999" y1="-6.10352e-05" x2="90.9999" y2="55.9999" gradientUnits="userSpaceOnUse">
<stop stop-color="#181F29"/>
<stop offset="1" stop-color="#0F131A"/>
</linearGradient>
</defs>
</svg>
