<svg width="184" height="56" viewBox="0 0 184 56" fill="none" xmlns="http://www.w3.org/2000/svg">
<rect x="-0.00012207" width="184" height="56" rx="8" fill="url(#paint0_linear_28_381)"/>
<g filter="url(#filter0_d_28_381)">
<path d="M30.0109 8.1135C23.1096 8.79897 17.1179 12.9385 14.015 19.1701C12.9807 21.2443 12.2852 23.6301 12.0534 25.8913L11.9999 26.4076H13.7831C14.7639 26.4076 15.5664 26.3809 15.5753 26.3364C15.6734 24.8853 16.3154 22.6064 17.0911 20.9772C19.8463 15.2086 25.5795 11.5854 31.9279 11.5854C34.6206 11.5854 36.9032 12.1106 39.2393 13.2679C41.8964 14.5854 44.0274 16.4549 45.6591 18.8852C46.3813 19.9624 47.3799 21.9298 47.2551 22.0366C47.2105 22.0811 46.4972 22.2948 45.6769 22.5084L44.1789 22.909L43.7866 22.1434C42.5205 19.6152 40.4073 17.4965 37.9108 16.2412C37.0102 15.7872 36.0829 15.44 35.9402 15.4935C35.8778 15.5113 35.7976 15.7249 35.7708 15.9653C35.7352 16.1967 35.6371 16.811 35.539 17.3273C35.4498 17.8437 35.3518 18.4134 35.325 18.5914L35.2626 18.9208L36.0205 19.2769C38.6241 20.4876 40.5054 22.731 41.299 25.5619C41.5308 26.3809 41.5575 26.5679 41.5575 28.01C41.5575 29.4522 41.5308 29.6391 41.299 30.4581C40.8264 32.1318 39.9883 33.6095 38.8381 34.7668C38.1782 35.4345 37.2064 36.1556 36.502 36.5206C36.2612 36.6363 36.074 36.7876 36.074 36.8499C36.0829 37.0013 36.93 40.1171 36.9924 40.1705C37.0726 40.2506 38.5795 39.4494 39.4622 38.8619C40.5678 38.123 42.1014 36.5918 42.8415 35.4879C43.8758 33.9389 44.5178 32.4522 44.919 30.6718C45.0884 29.8884 45.1241 29.4878 45.1241 28.0367C45.1241 26.5946 45.1419 26.3186 45.2578 26.2919C46.3456 25.9803 48.227 25.5174 48.2626 25.5441C48.325 25.6153 48.4231 27.102 48.4231 28.01C48.4231 29.2385 48.3072 30.4403 48.111 31.3038C48.0219 31.7134 47.9506 32.0605 47.9595 32.0694C47.9684 32.0872 48.7174 32.3543 49.6179 32.6837C50.8662 33.1377 51.2763 33.2534 51.3298 33.1644C51.4725 32.9241 51.8559 30.5739 51.954 29.3186C52.1591 26.5144 51.6687 23.2918 50.6433 20.7547C47.7544 13.6062 41.4416 8.85238 33.8449 8.1135C32.3202 7.96216 31.5177 7.96216 30.0109 8.1135Z" fill="#00D845"/>
<path d="M30.4567 14.897C29.8058 14.9593 28.3524 15.3065 27.6124 15.5647C23.9656 16.8466 20.9608 19.7754 19.6055 23.3808C18.5534 26.1673 18.5177 29.6658 19.5164 32.3988L19.7393 33.0042L18.919 33.476C17.2783 34.4285 16.9841 34.5977 16.9217 34.5977C16.8414 34.5977 16.4491 33.6095 16.1995 32.7727C15.9141 31.7757 15.611 30.3335 15.5753 29.6747C15.5664 29.6391 14.7639 29.6124 13.7831 29.6124H11.9999L12.0534 30.1198C12.5259 34.7223 14.648 39.0666 18.0273 42.3515C25.9539 50.0431 38.6062 49.8561 46.3367 41.9331C47.3532 40.8827 48.3607 39.5918 49.074 38.4167C49.6892 37.393 50.1618 36.4315 50.0905 36.3603C50.0548 36.3247 49.6268 36.1556 49.1364 35.9775C48.646 35.7995 47.9862 35.5591 47.6652 35.4523C47.3442 35.3366 47.0233 35.2119 46.9519 35.1852C46.8538 35.1496 46.729 35.301 46.4794 35.7817C44.9814 38.7016 42.1817 41.3545 39.0164 42.8679C36.3147 44.1498 33.5685 44.6305 30.314 44.3723C27.1309 44.1231 23.5822 42.5563 21.0054 40.2684C20.2742 39.6185 19.2132 38.4791 18.812 37.9093C18.6782 37.7135 18.6069 37.7669 20.6755 36.5651L21.4512 36.1111L22.5479 37.206C24.5095 39.1734 26.6138 40.3307 29.3065 40.9361C30.1 41.1052 30.4834 41.1408 31.9457 41.1408C32.8819 41.1408 33.6755 41.1141 33.7022 41.0874C33.7379 41.0607 33.5952 40.4376 33.3991 39.7076C33.2029 38.9776 32.9979 38.2209 32.9444 38.0161L32.8463 37.6511L31.5891 37.5977C29.2173 37.4998 27.336 36.752 25.5705 35.203C25.2763 34.9449 24.9464 34.6244 24.8483 34.4998L24.67 34.2683L26.6405 33.1288L28.6199 31.9982L30.6885 34.1882L33.0692 33.6986L35.4498 33.2178L38.6597 30.013L38.3744 28.9626C38.1961 28.2949 38.0534 27.921 37.9821 27.921C37.9108 27.921 37.1885 28.099 36.3682 28.3216L34.8703 28.7311L34.2461 29.3365C33.5685 29.9952 33.6666 29.9685 32.1954 30.102L31.6604 30.1555L31.0184 29.5234C30.6618 29.1851 30.3675 28.8824 30.3675 28.8646C30.3675 28.8379 30.2695 28.464 30.1535 28.0189L29.9395 27.2088L30.5191 26.4343C30.8401 25.9981 31.1165 25.642 31.1343 25.6242C31.1433 25.6064 31.5267 25.4907 31.9903 25.375L32.8195 25.1613L33.9519 24.0307C34.585 23.4076 35.0932 22.8556 35.0932 22.8022C35.0932 22.7488 34.7544 22.3749 34.3442 21.9654L33.5952 21.2265L31.4286 21.8141L29.253 22.4016L28.8072 22.8645C28.5664 23.1227 28.0582 23.6746 27.6926 24.093C27.3271 24.5025 26.8634 25.0278 26.6673 25.2503C25.9094 26.1049 25.9361 25.8468 26.4087 27.467C26.6316 28.2593 26.8099 28.9269 26.7921 28.9359C26.7475 28.9715 24.9018 30.0486 23.7605 30.6896C23.3325 30.93 22.9491 31.1258 22.8956 31.1258C22.8511 31.1258 22.7173 30.7519 22.6014 30.2979C22.4142 29.5946 22.3874 29.2741 22.3874 27.9655C22.3963 26.5857 22.4142 26.372 22.646 25.5619C23.1275 23.8527 23.9567 22.4194 25.1515 21.2265C26.7921 19.5885 28.9498 18.5825 31.1433 18.4312C32.0706 18.36 31.9992 18.4312 32.1508 17.4609C32.2043 17.1137 32.2845 16.6775 32.3291 16.4816C32.3737 16.2858 32.4272 15.9653 32.454 15.7694C32.4896 15.5736 32.5342 15.2798 32.561 15.1196L32.6144 14.8347L31.6961 14.8525C31.1878 14.8525 30.6261 14.8792 30.4567 14.897Z" fill="#00D845"/>
</g>
<g filter="url(#filter1_d_28_381)">
<path d="M74.9431 16.6477H73.1703C73.1021 16.2689 72.9753 15.9356 72.7896 15.6477C72.604 15.3598 72.3768 15.1155 72.1078 14.9148C71.8389 14.714 71.5378 14.5625 71.2044 14.4602C70.8749 14.358 70.5245 14.3068 70.1533 14.3068C69.4828 14.3068 68.8825 14.4754 68.3521 14.8125C67.8256 15.1496 67.409 15.6439 67.1021 16.2955C66.7991 16.947 66.6476 17.7424 66.6476 18.6818C66.6476 19.6288 66.7991 20.428 67.1021 21.0795C67.409 21.7311 67.8275 22.2235 68.3578 22.5568C68.8881 22.8901 69.4847 23.0568 70.1476 23.0568C70.515 23.0568 70.8635 23.0076 71.1931 22.9091C71.5264 22.8068 71.8275 22.6572 72.0965 22.4602C72.3654 22.2633 72.5927 22.0227 72.7783 21.7386C72.9677 21.4508 73.0984 21.1212 73.1703 20.75L74.9431 20.7557C74.8484 21.3276 74.6646 21.8542 74.3919 22.3352C74.123 22.8125 73.7764 23.2254 73.3521 23.5739C72.9317 23.9186 72.4506 24.1856 71.909 24.375C71.3673 24.5644 70.7764 24.6591 70.1362 24.6591C69.1287 24.6591 68.2309 24.4204 67.4431 23.9432C66.6552 23.4621 66.034 22.7746 65.5794 21.8807C65.1287 20.9867 64.9033 19.9204 64.9033 18.6818C64.9033 17.4394 65.1306 16.3731 65.5851 15.483C66.0397 14.589 66.6609 13.9034 67.4487 13.4261C68.2366 12.9451 69.1325 12.7045 70.1362 12.7045C70.7537 12.7045 71.3294 12.7936 71.8635 12.9716C72.4014 13.1458 72.8843 13.4034 73.3124 13.7443C73.7404 14.0814 74.0946 14.4943 74.3749 14.983C74.6552 15.4678 74.8446 16.0227 74.9431 16.6477ZM78.6064 19.3182V24.5H76.9075V12.8636H78.5837V17.1932H78.6916C78.8962 16.7235 79.2087 16.3504 79.6291 16.0739C80.0496 15.7973 80.5988 15.6591 81.2769 15.6591C81.8753 15.6591 82.3981 15.7822 82.845 16.0284C83.2958 16.2746 83.6443 16.642 83.8905 17.1307C84.1405 17.6155 84.2655 18.2216 84.2655 18.9489V24.5H82.5666V19.1534C82.5666 18.5133 82.4019 18.017 82.0723 17.6648C81.7428 17.3087 81.2844 17.1307 80.6973 17.1307C80.2958 17.1307 79.936 17.2159 79.6178 17.3864C79.3034 17.5568 79.0553 17.8068 78.8735 18.1364C78.6954 18.4621 78.6064 18.8561 78.6064 19.3182ZM90.2939 24.6761C89.4341 24.6761 88.6935 24.4924 88.0723 24.125C87.4549 23.7538 86.9776 23.2329 86.6405 22.5625C86.3072 21.8883 86.1405 21.0985 86.1405 20.1932C86.1405 19.2992 86.3072 18.5114 86.6405 17.8295C86.9776 17.1477 87.4473 16.6155 88.0496 16.233C88.6556 15.8504 89.364 15.6591 90.1746 15.6591C90.667 15.6591 91.1443 15.7405 91.6064 15.9034C92.0685 16.0663 92.4833 16.322 92.8507 16.6705C93.2181 17.0189 93.5079 17.4716 93.72 18.0284C93.9322 18.5814 94.0382 19.2538 94.0382 20.0454V20.6477H87.1007V19.375H92.3734C92.3734 18.928 92.2825 18.5322 92.1007 18.1875C91.9189 17.839 91.6632 17.5644 91.3337 17.3636C91.0079 17.1629 90.6253 17.0625 90.1859 17.0625C89.7087 17.0625 89.292 17.1799 88.936 17.4148C88.5837 17.6458 88.311 17.9489 88.1178 18.3239C87.9284 18.6951 87.8337 19.0985 87.8337 19.5341V20.5284C87.8337 21.1117 87.936 21.6079 88.1405 22.017C88.3488 22.4261 88.6386 22.7386 89.0098 22.9545C89.381 23.1667 89.8147 23.2727 90.3109 23.2727C90.6329 23.2727 90.9265 23.2273 91.1916 23.1364C91.4568 23.0417 91.6859 22.9015 91.8791 22.7159C92.0723 22.5303 92.22 22.3011 92.3223 22.0284L93.9303 22.3182C93.8015 22.7917 93.5704 23.2064 93.2371 23.5625C92.9075 23.9148 92.4928 24.1894 91.9928 24.3864C91.4966 24.5795 90.9303 24.6761 90.2939 24.6761ZM99.5993 24.6761C98.7546 24.6761 98.0273 24.4848 97.4175 24.1023C96.8114 23.7159 96.3455 23.1837 96.0198 22.5057C95.694 21.8276 95.5311 21.0511 95.5311 20.1761C95.5311 19.2898 95.6978 18.5076 96.0311 17.8295C96.3645 17.1477 96.8341 16.6155 97.4402 16.233C98.0463 15.8504 98.7603 15.6591 99.5823 15.6591C100.245 15.6591 100.836 15.7822 101.355 16.0284C101.874 16.2708 102.292 16.6117 102.611 17.0511C102.933 17.4905 103.124 18.0038 103.185 18.5909H101.531C101.44 18.1818 101.232 17.8295 100.906 17.5341C100.584 17.2386 100.152 17.0909 99.6107 17.0909C99.1372 17.0909 98.7224 17.2159 98.3663 17.4659C98.0141 17.7121 97.7395 18.0644 97.5425 18.5227C97.3455 18.9773 97.247 19.5151 97.247 20.1364C97.247 20.7727 97.3436 21.322 97.5368 21.7841C97.73 22.2462 98.0027 22.6042 98.355 22.8579C98.711 23.1117 99.1296 23.2386 99.6107 23.2386C99.9326 23.2386 100.224 23.1799 100.486 23.0625C100.751 22.9413 100.972 22.7689 101.15 22.5454C101.332 22.322 101.459 22.053 101.531 21.7386H103.185C103.124 22.303 102.94 22.8068 102.633 23.25C102.327 23.6932 101.916 24.0417 101.4 24.2954C100.889 24.5492 100.289 24.6761 99.5993 24.6761ZM106.564 21.5398L106.552 19.4659H106.848L110.325 15.7727H112.359L108.393 19.9773H108.126L106.564 21.5398ZM105.001 24.5V12.8636H106.7V24.5H105.001ZM110.513 24.5L107.388 20.3523L108.558 19.1648L112.598 24.5H110.513ZM121.818 24.6761C121 24.6761 120.286 24.4886 119.676 24.1136C119.066 23.7386 118.593 23.214 118.256 22.5398C117.918 21.8655 117.75 21.0776 117.75 20.1761C117.75 19.2708 117.918 18.4792 118.256 17.8011C118.593 17.1231 119.066 16.5966 119.676 16.2216C120.286 15.8466 121 15.6591 121.818 15.6591C122.636 15.6591 123.35 15.8466 123.96 16.2216C124.57 16.5966 125.043 17.1231 125.381 17.8011C125.718 18.4792 125.886 19.2708 125.886 20.1761C125.886 21.0776 125.718 21.8655 125.381 22.5398C125.043 23.214 124.57 23.7386 123.96 24.1136C123.35 24.4886 122.636 24.6761 121.818 24.6761ZM121.824 23.25C122.354 23.25 122.793 23.1098 123.142 22.8295C123.49 22.5492 123.748 22.1761 123.915 21.7102C124.085 21.2443 124.17 20.7311 124.17 20.1704C124.17 19.6136 124.085 19.1023 123.915 18.6364C123.748 18.1667 123.49 17.7898 123.142 17.5057C122.793 17.2216 122.354 17.0795 121.824 17.0795C121.29 17.0795 120.846 17.2216 120.494 17.5057C120.146 17.7898 119.886 18.1667 119.716 18.6364C119.549 19.1023 119.466 19.6136 119.466 20.1704C119.466 20.7311 119.549 21.2443 119.716 21.7102C119.886 22.1761 120.146 22.5492 120.494 22.8295C120.846 23.1098 121.29 23.25 121.824 23.25ZM133.311 20.8807V15.7727H135.015V24.5H133.345V22.9886H133.254C133.053 23.4545 132.731 23.8428 132.288 24.1534C131.849 24.4602 131.301 24.6136 130.646 24.6136C130.086 24.6136 129.589 24.4905 129.158 24.2443C128.729 23.9943 128.392 23.625 128.146 23.1364C127.904 22.6477 127.783 22.0436 127.783 21.3239V15.7727H129.481V21.1193C129.481 21.714 129.646 22.1875 129.976 22.5398C130.305 22.892 130.733 23.0682 131.26 23.0682C131.578 23.0682 131.894 22.9886 132.209 22.8295C132.527 22.6704 132.79 22.4299 132.998 22.1079C133.211 21.786 133.315 21.3769 133.311 20.8807ZM141.372 15.7727V17.1364H136.605V15.7727H141.372ZM137.883 13.6818H139.582V21.9375C139.582 22.267 139.631 22.5151 139.73 22.6818C139.828 22.8447 139.955 22.9564 140.111 23.017C140.27 23.0739 140.442 23.1023 140.628 23.1023C140.764 23.1023 140.883 23.0928 140.986 23.0739C141.088 23.0549 141.167 23.0398 141.224 23.0284L141.531 24.4318C141.433 24.4697 141.292 24.5076 141.111 24.5454C140.929 24.5871 140.702 24.6098 140.429 24.6136C139.982 24.6212 139.565 24.5417 139.179 24.375C138.792 24.2083 138.48 23.9508 138.241 23.6023C138.003 23.2538 137.883 22.8163 137.883 22.2898V13.6818ZM151.56 15.7727V17.1364H146.792V15.7727H151.56ZM148.071 13.6818H149.77V21.9375C149.77 22.267 149.819 22.5151 149.917 22.6818C150.016 22.8447 150.143 22.9564 150.298 23.017C150.457 23.0739 150.63 23.1023 150.815 23.1023C150.952 23.1023 151.071 23.0928 151.173 23.0739C151.275 23.0549 151.355 23.0398 151.412 23.0284L151.719 24.4318C151.62 24.4697 151.48 24.5076 151.298 24.5454C151.116 24.5871 150.889 24.6098 150.616 24.6136C150.169 24.6212 149.753 24.5417 149.366 24.375C148.98 24.2083 148.667 23.9508 148.429 23.6023C148.19 23.2538 148.071 22.8163 148.071 22.2898V13.6818ZM155.325 19.3182V24.5H153.626V12.8636H155.302V17.1932H155.41C155.615 16.7235 155.927 16.3504 156.348 16.0739C156.768 15.7973 157.318 15.6591 157.996 15.6591C158.594 15.6591 159.117 15.7822 159.564 16.0284C160.015 16.2746 160.363 16.642 160.609 17.1307C160.859 17.6155 160.984 18.2216 160.984 18.9489V24.5H159.285V19.1534C159.285 18.5133 159.121 18.017 158.791 17.6648C158.461 17.3087 158.003 17.1307 157.416 17.1307C157.015 17.1307 156.655 17.2159 156.336 17.3864C156.022 17.5568 155.774 17.8068 155.592 18.1364C155.414 18.4621 155.325 18.8561 155.325 19.3182ZM167.013 24.6761C166.153 24.6761 165.412 24.4924 164.791 24.125C164.174 23.7538 163.696 23.2329 163.359 22.5625C163.026 21.8883 162.859 21.0985 162.859 20.1932C162.859 19.2992 163.026 18.5114 163.359 17.8295C163.696 17.1477 164.166 16.6155 164.768 16.233C165.374 15.8504 166.083 15.6591 166.893 15.6591C167.386 15.6591 167.863 15.7405 168.325 15.9034C168.787 16.0663 169.202 16.322 169.569 16.6705C169.937 17.0189 170.227 17.4716 170.439 18.0284C170.651 18.5814 170.757 19.2538 170.757 20.0454V20.6477H163.819V19.375H169.092C169.092 18.928 169.001 18.5322 168.819 18.1875C168.638 17.839 168.382 17.5644 168.052 17.3636C167.727 17.1629 167.344 17.0625 166.905 17.0625C166.427 17.0625 166.011 17.1799 165.655 17.4148C165.302 17.6458 165.03 17.9489 164.836 18.3239C164.647 18.6951 164.552 19.0985 164.552 19.5341V20.5284C164.552 21.1117 164.655 21.6079 164.859 22.017C165.068 22.4261 165.357 22.7386 165.729 22.9545C166.1 23.1667 166.533 23.2727 167.03 23.2727C167.352 23.2727 167.645 23.2273 167.91 23.1364C168.176 23.0417 168.405 22.9015 168.598 22.7159C168.791 22.5303 168.939 22.3011 169.041 22.0284L170.649 22.3182C170.52 22.7917 170.289 23.2064 169.956 23.5625C169.626 23.9148 169.211 24.1894 168.711 24.3864C168.215 24.5795 167.649 24.6761 167.013 24.6761Z" fill="#E8E8E8"/>
<path d="M73.0492 35.1751C72.9808 34.9215 72.8802 34.6981 72.7474 34.505C72.6146 34.3078 72.4516 34.1407 72.2584 34.0039C72.0652 33.8671 71.8439 33.7644 71.5943 33.696C71.3448 33.6236 71.0711 33.5873 70.7733 33.5873C70.1736 33.5873 69.6545 33.7322 69.2158 34.022C68.7811 34.3118 68.4451 34.7344 68.2076 35.2898C67.9702 35.8411 67.8514 36.5112 67.8514 37.3001C67.8514 38.0929 67.9661 38.769 68.1955 39.3285C68.4249 39.8879 68.757 40.3145 69.1916 40.6083C69.6263 40.9021 70.1535 41.049 70.7733 41.049C71.3207 41.049 71.7835 40.9605 72.1618 40.7834C72.5441 40.6023 72.8339 40.3467 73.0311 40.0167C73.2283 39.6867 73.3269 39.2983 73.3269 38.8516L73.8823 38.918H70.8759V36.7386H76.2066V38.3746C76.2066 39.4814 75.9711 40.4292 75.5002 41.218C75.0334 42.0069 74.3894 42.6126 73.5684 43.0351C72.7514 43.4577 71.8117 43.669 70.7492 43.669C69.57 43.669 68.5336 43.4135 67.6401 42.9023C66.7467 42.3912 66.0504 41.6627 65.5514 40.717C65.0523 39.7672 64.8028 38.6403 64.8028 37.3363C64.8028 36.3221 64.9537 35.4226 65.2556 34.6378C65.5574 33.8489 65.978 33.1809 66.5173 32.6335C67.0606 32.0862 67.6884 31.6716 68.4008 31.3899C69.1172 31.1082 69.8879 30.9673 70.7129 30.9673C71.4293 30.9673 72.0954 31.0699 72.7112 31.2752C73.331 31.4805 73.8783 31.7702 74.3532 32.1445C74.8321 32.5188 75.2205 32.9635 75.5183 33.4787C75.8162 33.9938 76.0013 34.5593 76.0737 35.1751H73.0492ZM80.5818 43.6569C79.9902 43.6569 79.465 43.5583 79.0062 43.3611C78.5514 43.1599 78.1912 42.8581 77.9256 42.4556C77.664 42.0491 77.5332 41.54 77.5332 40.9283C77.5332 40.4131 77.6237 39.9784 77.8048 39.6243C77.9859 39.2701 78.2355 38.9824 78.5534 38.761C78.8714 38.5396 79.2376 38.3726 79.6521 38.2599C80.0667 38.1432 80.5094 38.0647 80.9803 38.0245C81.5075 37.9762 81.9321 37.9259 82.254 37.8736C82.576 37.8172 82.8094 37.7387 82.9543 37.6381C83.1032 37.5335 83.1777 37.3866 83.1777 37.1974V37.1672C83.1777 36.8574 83.071 36.6179 82.8577 36.4489C82.6444 36.2798 82.3567 36.1953 81.9945 36.1953C81.6041 36.1953 81.2901 36.2798 81.0527 36.4489C80.8152 36.6179 80.6643 36.8513 80.5999 37.1491L77.8773 37.0525C77.9578 36.4891 78.165 35.986 78.4991 35.5433C78.8371 35.0966 79.3 34.7464 79.8876 34.4929C80.4792 34.2353 81.1895 34.1065 82.0186 34.1065C82.6102 34.1065 83.1556 34.177 83.6546 34.3178C84.1537 34.4547 84.5883 34.6559 84.9586 34.9215C85.3289 35.1831 85.6146 35.5051 85.8158 35.8874C86.0211 36.2698 86.1237 36.7064 86.1237 37.1974V43.5H83.3467V42.2081H83.2743C83.1093 42.522 82.898 42.7876 82.6404 43.005C82.3869 43.2223 82.087 43.3853 81.7409 43.494C81.3988 43.6026 81.0124 43.6569 80.5818 43.6569ZM81.4934 41.7251C81.8113 41.7251 82.0971 41.6607 82.3506 41.5319C82.6082 41.4032 82.8135 41.2261 82.9664 41.0007C83.1193 40.7713 83.1958 40.5057 83.1958 40.2038V39.3224C83.1113 39.3667 83.0087 39.4069 82.8879 39.4432C82.7712 39.4794 82.6424 39.5136 82.5016 39.5458C82.3607 39.578 82.2158 39.6062 82.0669 39.6303C81.918 39.6545 81.7751 39.6766 81.6383 39.6967C81.3606 39.741 81.1231 39.8094 80.9259 39.902C80.7327 39.9945 80.5838 40.1153 80.4792 40.2642C80.3786 40.4091 80.3283 40.5821 80.3283 40.7834C80.3283 41.0892 80.4369 41.3227 80.6543 41.4837C80.8756 41.6446 81.1553 41.7251 81.4934 41.7251ZM90.8808 31.1364V43.5H87.9288V31.1364H90.8808ZM95.7119 31.1364V43.5H92.7598V31.1364H95.7119ZM101.925 43.6751C100.955 43.6751 100.118 43.4839 99.414 43.1016C98.7137 42.7152 98.1744 42.1658 97.7961 41.4535C97.4218 40.7371 97.2347 39.8859 97.2347 38.8998C97.2347 37.942 97.4238 37.1049 97.8022 36.3885C98.1805 35.6681 98.7137 35.1087 99.4019 34.7102C100.09 34.3078 100.901 34.1065 101.835 34.1065C102.495 34.1065 103.099 34.2092 103.646 34.4144C104.193 34.6197 104.666 34.9235 105.065 35.326C105.463 35.7284 105.773 36.2255 105.994 36.8171C106.216 37.4047 106.326 38.0788 106.326 38.8395V39.576H98.267V37.8615H103.58C103.575 37.5476 103.501 37.2679 103.356 37.0224C103.211 36.7769 103.012 36.5857 102.758 36.4489C102.509 36.308 102.221 36.2376 101.895 36.2376C101.565 36.2376 101.269 36.312 101.008 36.4609C100.746 36.6058 100.539 36.805 100.386 37.0586C100.233 37.3081 100.153 37.5918 100.144 37.9098V39.6545C100.144 40.0328 100.219 40.3648 100.368 40.6506C100.517 40.9323 100.728 41.1516 101.002 41.3086C101.275 41.4655 101.601 41.544 101.98 41.544C102.241 41.544 102.479 41.5078 102.692 41.4354C102.905 41.3629 103.088 41.2563 103.241 41.1154C103.394 40.9745 103.509 40.8015 103.586 40.5962L106.296 40.6747C106.183 41.2824 105.936 41.8117 105.554 42.2624C105.175 42.7092 104.678 43.0573 104.062 43.3068C103.447 43.5523 102.734 43.6751 101.925 43.6751ZM107.834 43.5V34.2273H110.702V35.9176H110.798C110.967 35.3059 111.243 34.8511 111.625 34.5533C112.008 34.2514 112.452 34.1005 112.959 34.1005C113.096 34.1005 113.237 34.1105 113.382 34.1307C113.527 34.1468 113.662 34.1729 113.786 34.2092V36.7748C113.646 36.7266 113.46 36.6883 113.231 36.6601C113.006 36.632 112.804 36.6179 112.627 36.6179C112.277 36.6179 111.961 36.6964 111.68 36.8533C111.402 37.0063 111.183 37.2216 111.022 37.4993C110.865 37.773 110.786 38.0949 110.786 38.4652V43.5H107.834ZM117.077 46.9773C116.722 46.9773 116.388 46.9491 116.074 46.8927C115.761 46.8404 115.491 46.77 115.265 46.6815L115.917 44.5383C116.207 44.6349 116.469 44.6913 116.702 44.7074C116.94 44.7235 117.143 44.6852 117.312 44.5927C117.485 44.5041 117.618 44.3452 117.71 44.1158L117.825 43.8381L114.529 34.2273H117.62L119.328 40.8437H119.425L121.158 34.2273H124.267L120.771 44.3874C120.602 44.8945 120.363 45.3413 120.053 45.7276C119.747 46.118 119.35 46.4239 118.863 46.6452C118.381 46.8666 117.785 46.9773 117.077 46.9773Z" fill="#00D845"/>
</g>
<rect x="1.04988" y="1.05" width="181.9" height="53.9" rx="6.95" stroke="white" stroke-opacity="0.15" stroke-width="2.1"/>
<defs>
<filter id="filter0_d_28_381" x="6.28559" y="2.28571" width="51.4286" height="51.4286" filterUnits="userSpaceOnUse" color-interpolation-filters="sRGB">
<feFlood flood-opacity="0" result="BackgroundImageFix"/>
<feColorMatrix in="SourceAlpha" type="matrix" values="0 0 0 0 0 0 0 0 0 0 0 0 0 0 0 0 0 0 127 0" result="hardAlpha"/>
<feOffset/>
<feGaussianBlur stdDeviation="2.85714"/>
<feComposite in2="hardAlpha" operator="out"/>
<feColorMatrix type="matrix" values="0 0 0 0 0 0 0 0 0 0 0 0 0 0 0 0 0 0 0.25 0"/>
<feBlend mode="normal" in2="BackgroundImageFix" result="effect1_dropShadow_28_381"/>
<feBlend mode="normal" in="SourceGraphic" in2="effect1_dropShadow_28_381" result="shape"/>
</filter>
<filter id="filter1_d_28_381" x="58.3999" y="3.9" width="119.2" height="48.6773" filterUnits="userSpaceOnUse" color-interpolation-filters="sRGB">
<feFlood flood-opacity="0" result="BackgroundImageFix"/>
<feColorMatrix in="SourceAlpha" type="matrix" values="0 0 0 0 0 0 0 0 0 0 0 0 0 0 0 0 0 0 127 0" result="hardAlpha"/>
<feOffset/>
<feGaussianBlur stdDeviation="2.8"/>
<feComposite in2="hardAlpha" operator="out"/>
<feColorMatrix type="matrix" values="0 0 0 0 0 0 0 0 0 0 0 0 0 0 0 0 0 0 0.25 0"/>
<feBlend mode="normal" in2="BackgroundImageFix" result="effect1_dropShadow_28_381"/>
<feBlend mode="normal" in="SourceGraphic" in2="effect1_dropShadow_28_381" result="shape"/>
</filter>
<linearGradient id="paint0_linear_28_381" x1="91.9999" y1="0" x2="91.9999" y2="56" gradientUnits="userSpaceOnUse">
<stop stop-color="#072C13"/>
<stop offset="1" stop-color="#041C0B"/>
</linearGradient>
</defs>
</svg>
