<svg width="183" height="56" viewBox="0 0 183 56" fill="none" xmlns="http://www.w3.org/2000/svg">
<rect x="-0.00012207" y="-6.10352e-05" width="183" height="56" rx="8" fill="url(#paint0_linear_8_25)"/>
<rect x="1.04988" y="1.04994" width="180.9" height="53.9" rx="6.95" stroke="white" stroke-opacity="0.15" stroke-width="2.1"/>
<g filter="url(#filter0_d_8_25)">
<path d="M20.3333 23C23.0947 23 25.3333 20.7614 25.3333 18C25.3333 15.2386 23.0947 13 20.3333 13C17.5719 13 15.3333 15.2386 15.3333 18C15.3333 20.7614 17.5719 23 20.3333 23Z" stroke="#3FB950" stroke-width="2.86" stroke-linecap="round" stroke-linejoin="round"/>
<path d="M20.3333 23V43" stroke="#3FB950" stroke-width="2.86" stroke-linecap="round" stroke-linejoin="round"/>
<path d="M43.6667 43C46.4281 43 48.6667 40.7614 48.6667 38C48.6667 35.2386 46.4281 33 43.6667 33C40.9053 33 38.6667 35.2386 38.6667 38C38.6667 40.7614 40.9053 43 43.6667 43Z" stroke="#3FB950" stroke-width="2.86" stroke-linecap="round" stroke-linejoin="round"/>
<path d="M37 23L32 18L37 13" stroke="#3FB950" stroke-width="2.86" stroke-linecap="round" stroke-linejoin="round"/>
<path d="M32 18H40.3333C41.2174 18 42.0652 18.3512 42.6904 18.9763C43.3155 19.6014 43.6667 20.4493 43.6667 21.3333V33" stroke="#3FB950" stroke-width="2.86" stroke-linecap="round" stroke-linejoin="round"/>
</g>
<g filter="url(#filter1_d_8_25)">
<path d="M67.6249 15.9204C67.5643 15.3825 67.3143 14.9658 66.8749 14.6704C66.4355 14.3711 65.8825 14.2215 65.2158 14.2215C64.7385 14.2215 64.3256 14.2973 63.9771 14.4488C63.6287 14.5965 63.3578 14.8011 63.1646 15.0624C62.9753 15.32 62.8806 15.6136 62.8806 15.9431C62.8806 16.2196 62.945 16.4583 63.0737 16.659C63.2063 16.8598 63.3787 17.0283 63.5908 17.1647C63.8067 17.2973 64.0378 17.409 64.284 17.4999C64.5302 17.5871 64.7669 17.659 64.9942 17.7158L66.1306 18.0113C66.5018 18.1022 66.8825 18.2253 67.2726 18.3806C67.6628 18.5359 68.0245 18.7405 68.3578 18.9943C68.6912 19.248 68.9601 19.5624 69.1646 19.9374C69.373 20.3124 69.4771 20.7613 69.4771 21.284C69.4771 21.9431 69.3067 22.5283 68.9658 23.0397C68.6287 23.5511 68.1381 23.9545 67.4942 24.2499C66.854 24.5454 66.0794 24.6931 65.1703 24.6931C64.2991 24.6931 63.5453 24.5549 62.909 24.2783C62.2726 24.0018 61.7745 23.6098 61.4147 23.1022C61.0548 22.5908 60.8559 21.9848 60.8181 21.284H62.5794C62.6135 21.7045 62.7499 22.0549 62.9885 22.3352C63.2309 22.6117 63.5396 22.8181 63.9146 22.9545C64.2934 23.0871 64.7082 23.1533 65.159 23.1533C65.6552 23.1533 66.0965 23.0757 66.4828 22.9204C66.873 22.7613 67.1798 22.5416 67.4033 22.2613C67.6268 21.9772 67.7385 21.6458 67.7385 21.267C67.7385 20.9223 67.64 20.6401 67.4431 20.4204C67.2499 20.2007 66.9866 20.0189 66.6533 19.8749C66.3237 19.731 65.9506 19.6041 65.534 19.4943L64.159 19.1193C63.2271 18.8655 62.4885 18.4924 61.9431 17.9999C61.4014 17.5075 61.1306 16.856 61.1306 16.0454C61.1306 15.3749 61.3124 14.7897 61.676 14.2897C62.0397 13.7897 62.5321 13.4015 63.1533 13.1249C63.7745 12.8446 64.4753 12.7045 65.2556 12.7045C66.0434 12.7045 66.7385 12.8427 67.3408 13.1193C67.9468 13.3958 68.4241 13.7765 68.7726 14.2613C69.1211 14.7424 69.3029 15.2954 69.3181 15.9204H67.6249ZM75.2002 24.6761C74.3403 24.6761 73.5998 24.4924 72.9786 24.1249C72.3611 23.7537 71.8839 23.2329 71.5467 22.5624C71.2134 21.8882 71.0467 21.0984 71.0467 20.1931C71.0467 19.2992 71.2134 18.5113 71.5467 17.8295C71.8839 17.1477 72.3536 16.6155 72.9558 16.2329C73.5619 15.8503 74.2702 15.659 75.0808 15.659C75.5733 15.659 76.0505 15.7405 76.5127 15.9033C76.9748 16.0662 77.3896 16.3219 77.757 16.6704C78.1244 17.0189 78.4142 17.4715 78.6263 18.0283C78.8384 18.5814 78.9445 19.2537 78.9445 20.0454V20.6477H72.007V19.3749H77.2797C77.2797 18.928 77.1888 18.5321 77.007 18.1874C76.8252 17.839 76.5695 17.5643 76.2399 17.3636C75.9142 17.1628 75.5316 17.0624 75.0922 17.0624C74.6149 17.0624 74.1983 17.1799 73.8422 17.4147C73.4899 17.6458 73.2172 17.9488 73.024 18.3238C72.8346 18.695 72.7399 19.0984 72.7399 19.534V20.5283C72.7399 21.1117 72.8422 21.6079 73.0467 22.017C73.2551 22.4261 73.5449 22.7386 73.9161 22.9545C74.2873 23.1666 74.721 23.2727 75.2172 23.2727C75.5392 23.2727 75.8327 23.2272 76.0979 23.1363C76.363 23.0416 76.5922 22.9015 76.7854 22.7158C76.9786 22.5302 77.1263 22.3011 77.2286 22.0283L78.8365 22.3181C78.7077 22.7916 78.4767 23.2064 78.1433 23.5624C77.8138 23.9147 77.399 24.1893 76.899 24.3863C76.4028 24.5795 75.8365 24.6761 75.2002 24.6761ZM84.5908 24.6761C83.7309 24.6761 82.9904 24.4924 82.3692 24.1249C81.7518 23.7537 81.2745 23.2329 80.9374 22.5624C80.604 21.8882 80.4374 21.0984 80.4374 20.1931C80.4374 19.2992 80.604 18.5113 80.9374 17.8295C81.2745 17.1477 81.7442 16.6155 82.3465 16.2329C82.9525 15.8503 83.6609 15.659 84.4715 15.659C84.9639 15.659 85.4412 15.7405 85.9033 15.9033C86.3654 16.0662 86.7802 16.3219 87.1476 16.6704C87.515 17.0189 87.8048 17.4715 88.0169 18.0283C88.229 18.5814 88.3351 19.2537 88.3351 20.0454V20.6477H81.3976V19.3749H86.6703C86.6703 18.928 86.5794 18.5321 86.3976 18.1874C86.2158 17.839 85.9601 17.5643 85.6306 17.3636C85.3048 17.1628 84.9222 17.0624 84.4828 17.0624C84.0056 17.0624 83.5889 17.1799 83.2328 17.4147C82.8806 17.6458 82.6078 17.9488 82.4146 18.3238C82.2253 18.695 82.1306 19.0984 82.1306 19.534V20.5283C82.1306 21.1117 82.2328 21.6079 82.4374 22.017C82.6457 22.4261 82.9355 22.7386 83.3067 22.9545C83.6779 23.1666 84.1116 23.2727 84.6078 23.2727C84.9298 23.2727 85.2234 23.2272 85.4885 23.1363C85.7537 23.0416 85.9828 22.9015 86.176 22.7158C86.3692 22.5302 86.5169 22.3011 86.6192 22.0283L88.2271 22.3181C88.0984 22.7916 87.8673 23.2064 87.534 23.5624C87.2044 23.9147 86.7896 24.1893 86.2896 24.3863C85.7934 24.5795 85.2271 24.6761 84.5908 24.6761ZM98.5283 15.7727V17.1363H93.7612V15.7727H98.5283ZM95.0396 13.6818H96.7385V21.9374C96.7385 22.267 96.7877 22.5151 96.8862 22.6818C96.9847 22.8446 97.1116 22.9564 97.2669 23.017C97.426 23.0738 97.5984 23.1022 97.784 23.1022C97.9203 23.1022 98.0396 23.0927 98.1419 23.0738C98.2442 23.0549 98.3237 23.0397 98.3805 23.0283L98.6874 24.4318C98.5889 24.4696 98.4487 24.5075 98.2669 24.5454C98.0851 24.5871 97.8578 24.6098 97.5851 24.6136C97.1381 24.6211 96.7215 24.5416 96.3351 24.3749C95.9487 24.2083 95.6362 23.9507 95.3976 23.6022C95.159 23.2537 95.0396 22.8162 95.0396 22.2897V13.6818ZM102.294 19.3181V24.4999H100.595V12.8636H102.271V17.1931H102.379C102.584 16.7234 102.896 16.3503 103.317 16.0738C103.737 15.7973 104.286 15.659 104.964 15.659C105.563 15.659 106.086 15.7821 106.533 16.0283C106.983 16.2746 107.332 16.642 107.578 17.1306C107.828 17.6155 107.953 18.2215 107.953 18.9488V24.4999H106.254V19.1533C106.254 18.5132 106.089 18.017 105.76 17.6647C105.43 17.3086 104.972 17.1306 104.385 17.1306C103.983 17.1306 103.623 17.2158 103.305 17.3863C102.991 17.5568 102.743 17.8068 102.561 18.1363C102.383 18.4621 102.294 18.856 102.294 19.3181ZM113.981 24.6761C113.122 24.6761 112.381 24.4924 111.76 24.1249C111.142 23.7537 110.665 23.2329 110.328 22.5624C109.995 21.8882 109.828 21.0984 109.828 20.1931C109.828 19.2992 109.995 18.5113 110.328 17.8295C110.665 17.1477 111.135 16.6155 111.737 16.2329C112.343 15.8503 113.051 15.659 113.862 15.659C114.355 15.659 114.832 15.7405 115.294 15.9033C115.756 16.0662 116.171 16.3219 116.538 16.6704C116.906 17.0189 117.195 17.4715 117.408 18.0283C117.62 18.5814 117.726 19.2537 117.726 20.0454V20.6477H110.788V19.3749H116.061C116.061 18.928 115.97 18.5321 115.788 18.1874C115.606 17.839 115.351 17.5643 115.021 17.3636C114.695 17.1628 114.313 17.0624 113.873 17.0624C113.396 17.0624 112.98 17.1799 112.623 17.4147C112.271 17.6458 111.998 17.9488 111.805 18.3238C111.616 18.695 111.521 19.0984 111.521 19.534V20.5283C111.521 21.1117 111.623 21.6079 111.828 22.017C112.036 22.4261 112.326 22.7386 112.697 22.9545C113.069 23.1666 113.502 23.2727 113.998 23.2727C114.32 23.2727 114.614 23.2272 114.879 23.1363C115.144 23.0416 115.373 22.9015 115.567 22.7158C115.76 22.5302 115.908 22.3011 116.01 22.0283L117.618 22.3181C117.489 22.7916 117.258 23.2064 116.925 23.5624C116.595 23.9147 116.18 24.1893 115.68 24.3863C115.184 24.5795 114.618 24.6761 113.981 24.6761Z" fill="#E8E8E8"/>
<path d="M60.9356 43.4999V31.1363H66.0428C66.9685 31.1363 67.7674 31.3174 68.4395 31.6796C69.1156 32.0378 69.6368 32.5389 70.0031 33.1828C70.3693 33.8227 70.5524 34.5673 70.5524 35.4165C70.5524 36.2697 70.3653 37.0163 69.991 37.6562C69.6207 38.2921 69.0915 38.7851 68.4033 39.1352C67.7151 39.4854 66.8981 39.6604 65.9523 39.6604H62.801V37.306H65.3969C65.8477 37.306 66.224 37.2276 66.5258 37.0706C66.8317 36.9136 67.0631 36.6943 67.22 36.4126C67.377 36.1268 67.4555 35.7948 67.4555 35.4165C67.4555 35.0341 67.377 34.7041 67.22 34.4264C67.0631 34.1447 66.8317 33.9274 66.5258 33.7744C66.2199 33.6215 65.8436 33.545 65.3969 33.545H63.9239V43.4999H60.9356ZM78.008 39.4974V34.2272H80.9541V43.4999H78.1409V41.7734H78.0443C77.839 42.3408 77.4889 42.7916 76.9938 43.1256C76.5028 43.4557 75.9092 43.6207 75.2129 43.6207C74.5811 43.6207 74.0257 43.4758 73.5467 43.186C73.0678 42.8962 72.6955 42.4918 72.4299 41.9726C72.1643 41.4494 72.0295 40.8376 72.0254 40.1374V34.2272H74.9775V39.5578C74.9815 40.0609 75.1143 40.4573 75.3759 40.7471C75.6375 41.0369 75.9937 41.1818 76.4445 41.1818C76.7383 41.1818 77.0019 41.1174 77.2353 40.9886C77.4728 40.8558 77.6599 40.6646 77.7967 40.4151C77.9376 40.1615 78.008 39.8556 78.008 39.4974ZM85.7851 31.1363V43.4999H82.8331V31.1363H85.7851ZM90.6162 31.1363V43.4999H87.6641V31.1363H90.6162ZM96.1475 43.4999V34.2272H99.015V35.9176H99.1116C99.2807 35.3058 99.5564 34.851 99.9387 34.5532C100.321 34.2514 100.766 34.1004 101.273 34.1004C101.41 34.1004 101.551 34.1105 101.695 34.1306C101.84 34.1467 101.975 34.1729 102.1 34.2091V36.7748C101.959 36.7265 101.774 36.6883 101.545 36.6601C101.319 36.6319 101.118 36.6178 100.941 36.6178C100.591 36.6178 100.275 36.6963 99.993 36.8533C99.7153 37.0062 99.496 37.2215 99.335 37.4992C99.178 37.7729 99.0996 38.0949 99.0996 38.4651V43.4999H96.1475ZM107.156 43.675C106.186 43.675 105.349 43.4838 104.644 43.1015C103.944 42.7151 103.405 42.1658 103.027 41.4534C102.652 40.737 102.465 39.8858 102.465 38.8998C102.465 37.9419 102.654 37.1048 103.033 36.3884C103.411 35.668 103.944 35.1086 104.632 34.7102C105.321 34.3077 106.132 34.1065 107.065 34.1065C107.725 34.1065 108.329 34.2091 108.876 34.4144C109.424 34.6196 109.897 34.9235 110.295 35.3259C110.693 35.7284 111.003 36.2254 111.225 36.8171C111.446 37.4046 111.557 38.0788 111.557 38.8394V39.5759H103.497V37.8614H108.81C108.806 37.5475 108.731 37.2678 108.587 37.0223C108.442 36.7768 108.242 36.5856 107.989 36.4488C107.739 36.3079 107.452 36.2375 107.126 36.2375C106.796 36.2375 106.5 36.312 106.238 36.4609C105.977 36.6058 105.769 36.805 105.616 37.0585C105.463 37.3081 105.383 37.5918 105.375 37.9097V39.6544C105.375 40.0327 105.449 40.3648 105.598 40.6505C105.747 40.9322 105.959 41.1516 106.232 41.3085C106.506 41.4655 106.832 41.544 107.21 41.544C107.472 41.544 107.709 41.5077 107.923 41.4353C108.136 41.3629 108.319 41.2562 108.472 41.1153C108.625 40.9745 108.74 40.8014 108.816 40.5962L111.527 40.6747C111.414 41.2824 111.166 41.8116 110.784 42.2624C110.406 42.7091 109.909 43.0572 109.293 43.3068C108.677 43.5523 107.965 43.675 107.156 43.675ZM119.12 46.9772V41.9967H119.059C118.934 42.2825 118.757 42.5501 118.528 42.7997C118.299 43.0492 118.011 43.2504 117.665 43.4033C117.323 43.5563 116.918 43.6327 116.451 43.6327C115.767 43.6327 115.145 43.4557 114.586 43.1015C114.026 42.7473 113.58 42.2161 113.246 41.5077C112.912 40.7994 112.745 39.92 112.745 38.8696C112.745 37.7789 112.918 36.8814 113.264 36.1771C113.61 35.4728 114.063 34.9516 114.622 34.6136C115.185 34.2755 115.791 34.1065 116.439 34.1065C116.926 34.1065 117.343 34.191 117.689 34.36C118.035 34.525 118.321 34.7383 118.546 34.9999C118.771 35.2615 118.942 35.5332 119.059 35.8149H119.15V34.2272H122.072V46.9772H119.12ZM117.477 41.3327C117.836 41.3327 118.142 41.2321 118.395 41.0308C118.649 40.8256 118.844 40.5378 118.981 40.1675C119.118 39.7973 119.186 39.3626 119.186 38.8636C119.186 38.3565 119.118 37.9198 118.981 37.5536C118.848 37.1873 118.653 36.9056 118.395 36.7084C118.142 36.5112 117.836 36.4126 117.477 36.4126C117.111 36.4126 116.801 36.5132 116.548 36.7144C116.294 36.9157 116.101 37.1994 115.968 37.5656C115.839 37.9319 115.775 38.3645 115.775 38.8636C115.775 39.3626 115.841 39.7973 115.974 40.1675C116.107 40.5378 116.298 40.8256 116.548 41.0308C116.801 41.2321 117.111 41.3327 117.477 41.3327ZM129.921 39.4974V34.2272H132.867V43.4999H130.054V41.7734H129.957C129.752 42.3408 129.402 42.7916 128.907 43.1256C128.416 43.4557 127.822 43.6207 127.126 43.6207C126.494 43.6207 125.939 43.4758 125.46 43.186C124.981 42.8962 124.609 42.4918 124.343 41.9726C124.077 41.4494 123.943 40.8376 123.939 40.1374V34.2272H126.891V39.5578C126.895 40.0609 127.027 40.4573 127.289 40.7471C127.551 41.0369 127.907 41.1818 128.358 41.1818C128.651 41.1818 128.915 41.1174 129.148 40.9886C129.386 40.8558 129.573 40.6646 129.71 40.4151C129.851 40.1615 129.921 39.8556 129.921 39.4974ZM139.081 43.675C138.111 43.675 137.274 43.4838 136.569 43.1015C135.869 42.7151 135.33 42.1658 134.951 41.4534C134.577 40.737 134.39 39.8858 134.39 38.8998C134.39 37.9419 134.579 37.1048 134.957 36.3884C135.336 35.668 135.869 35.1086 136.557 34.7102C137.245 34.3077 138.056 34.1065 138.99 34.1065C139.65 34.1065 140.254 34.2091 140.801 34.4144C141.349 34.6196 141.821 34.9235 142.22 35.3259C142.618 35.7284 142.928 36.2254 143.15 36.8171C143.371 37.4046 143.482 38.0788 143.482 38.8394V39.5759H135.422V37.8614H140.735C140.731 37.5475 140.656 37.2678 140.511 37.0223C140.367 36.7768 140.167 36.5856 139.914 36.4488C139.664 36.3079 139.376 36.2375 139.05 36.2375C138.72 36.2375 138.425 36.312 138.163 36.4609C137.901 36.6058 137.694 36.805 137.541 37.0585C137.388 37.3081 137.308 37.5918 137.3 37.9097V39.6544C137.3 40.0327 137.374 40.3648 137.523 40.6505C137.672 40.9322 137.883 41.1516 138.157 41.3085C138.431 41.4655 138.757 41.544 139.135 41.544C139.397 41.544 139.634 41.5077 139.847 41.4353C140.061 41.3629 140.244 41.2562 140.397 41.1153C140.55 40.9745 140.664 40.8014 140.741 40.5962L143.451 40.6747C143.339 41.2824 143.091 41.8116 142.709 42.2624C142.331 42.7091 141.833 43.0572 141.218 43.3068C140.602 43.5523 139.89 43.675 139.081 43.675ZM153.085 37.0585L150.374 37.131C150.346 36.9378 150.27 36.7667 150.145 36.6178C150.02 36.4649 149.857 36.3462 149.656 36.2617C149.459 36.1731 149.229 36.1288 148.968 36.1288C148.626 36.1288 148.334 36.1973 148.092 36.3341C147.855 36.4709 147.738 36.6561 147.742 36.8895C147.738 37.0706 147.811 37.2276 147.959 37.3604C148.112 37.4932 148.384 37.5998 148.774 37.6803L150.561 38.0184C151.487 38.1955 152.175 38.4893 152.626 38.8998C153.081 39.3103 153.31 39.8536 153.314 40.5298C153.31 41.1657 153.121 41.719 152.747 42.1899C152.376 42.6608 151.869 43.027 151.225 43.2886C150.581 43.5462 149.845 43.675 149.016 43.675C147.692 43.675 146.647 43.4033 145.883 42.86C145.122 42.3127 144.687 41.5802 144.579 40.6626L147.495 40.5901C147.559 40.9282 147.726 41.1858 147.996 41.3629C148.265 41.5399 148.609 41.6285 149.028 41.6285C149.406 41.6285 149.714 41.5581 149.952 41.4172C150.189 41.2763 150.31 41.0892 150.314 40.8558C150.31 40.6465 150.217 40.4795 150.036 40.3547C149.855 40.2259 149.571 40.1253 149.185 40.0528L147.567 39.745C146.637 39.5759 145.945 39.264 145.49 38.8092C145.036 38.3504 144.81 37.7669 144.814 37.0585C144.81 36.4387 144.975 35.9095 145.309 35.4708C145.643 35.0281 146.118 34.69 146.734 34.4566C147.35 34.2232 148.076 34.1065 148.913 34.1065C150.169 34.1065 151.159 34.3701 151.883 34.8973C152.608 35.4205 153.008 36.1409 153.085 37.0585ZM160.002 34.2272V36.4005H154.152V34.2272H160.002ZM155.377 32.0056H158.329V40.5841C158.329 40.7652 158.358 40.9121 158.414 41.0248C158.474 41.1335 158.561 41.2119 158.673 41.2602C158.786 41.3045 158.921 41.3266 159.078 41.3266C159.191 41.3266 159.309 41.3166 159.434 41.2965C159.563 41.2723 159.66 41.2522 159.724 41.2361L160.171 43.3671C160.03 43.4074 159.831 43.4577 159.573 43.518C159.319 43.5784 159.016 43.6166 158.661 43.6327C157.969 43.6649 157.376 43.5845 156.881 43.3913C156.39 43.1941 156.013 42.8882 155.752 42.4737C155.494 42.0591 155.369 41.5379 155.377 40.9101V32.0056ZM169.487 37.0585L166.777 37.131C166.748 36.9378 166.672 36.7667 166.547 36.6178C166.422 36.4649 166.259 36.3462 166.058 36.2617C165.861 36.1731 165.632 36.1288 165.37 36.1288C165.028 36.1288 164.736 36.1973 164.495 36.3341C164.257 36.4709 164.14 36.6561 164.144 36.8895C164.14 37.0706 164.213 37.2276 164.362 37.3604C164.515 37.4932 164.786 37.5998 165.177 37.6803L166.964 38.0184C167.889 38.1955 168.578 38.4893 169.028 38.8998C169.483 39.3103 169.713 39.8536 169.717 40.5298C169.713 41.1657 169.523 41.719 169.149 42.1899C168.779 42.6608 168.272 43.027 167.628 43.2886C166.984 43.5462 166.247 43.675 165.418 43.675C164.094 43.675 163.05 43.4033 162.285 42.86C161.524 42.3127 161.09 41.5802 160.981 40.6626L163.897 40.5901C163.961 40.9282 164.128 41.1858 164.398 41.3629C164.668 41.5399 165.012 41.6285 165.43 41.6285C165.809 41.6285 166.117 41.5581 166.354 41.4172C166.591 41.2763 166.712 41.0892 166.716 40.8558C166.712 40.6465 166.62 40.4795 166.439 40.3547C166.257 40.2259 165.974 40.1253 165.587 40.0528L163.969 39.745C163.04 39.5759 162.347 39.264 161.893 38.8092C161.438 38.3504 161.213 37.7669 161.217 37.0585C161.213 36.4387 161.378 35.9095 161.712 35.4708C162.046 35.0281 162.521 34.69 163.136 34.4566C163.752 34.2232 164.479 34.1065 165.316 34.1065C166.571 34.1065 167.561 34.3701 168.286 34.8973C169.01 35.4205 169.411 36.1409 169.487 37.0585Z" fill="white"/>
</g>
<defs>
<filter id="filter0_d_8_25" x="6.28559" y="2.28565" width="51.4287" height="51.4286" filterUnits="userSpaceOnUse" color-interpolation-filters="sRGB">
<feFlood flood-opacity="0" result="BackgroundImageFix"/>
<feColorMatrix in="SourceAlpha" type="matrix" values="0 0 0 0 0 0 0 0 0 0 0 0 0 0 0 0 0 0 127 0" result="hardAlpha"/>
<feOffset/>
<feGaussianBlur stdDeviation="2.85714"/>
<feComposite in2="hardAlpha" operator="out"/>
<feColorMatrix type="matrix" values="0 0 0 0 0 0 0 0 0 0 0 0 0 0 0 0 0 0 0.25 0"/>
<feBlend mode="normal" in2="BackgroundImageFix" result="effect1_dropShadow_8_25"/>
<feBlend mode="normal" in="SourceGraphic" in2="effect1_dropShadow_8_25" result="shape"/>
</filter>
<filter id="filter1_d_8_25" x="54.3999" y="3.89994" width="122.2" height="48.6773" filterUnits="userSpaceOnUse" color-interpolation-filters="sRGB">
<feFlood flood-opacity="0" result="BackgroundImageFix"/>
<feColorMatrix in="SourceAlpha" type="matrix" values="0 0 0 0 0 0 0 0 0 0 0 0 0 0 0 0 0 0 127 0" result="hardAlpha"/>
<feOffset/>
<feGaussianBlur stdDeviation="2.8"/>
<feComposite in2="hardAlpha" operator="out"/>
<feColorMatrix type="matrix" values="0 0 0 0 0 0 0 0 0 0 0 0 0 0 0 0 0 0 0.25 0"/>
<feBlend mode="normal" in2="BackgroundImageFix" result="effect1_dropShadow_8_25"/>
<feBlend mode="normal" in="SourceGraphic" in2="effect1_dropShadow_8_25" result="shape"/>
</filter>
<linearGradient id="paint0_linear_8_25" x1="91.4999" y1="-6.10352e-05" x2="91.4999" y2="55.9999" gradientUnits="userSpaceOnUse">
<stop stop-color="#181F29"/>
<stop offset="1" stop-color="#0F131A"/>
</linearGradient>
</defs>
</svg>
