<svg width="148" height="40" viewBox="0 0 148 40" fill="none" xmlns="http://www.w3.org/2000/svg">
<rect x="-6.10352e-05" y="-4.57764e-05" width="148" height="40" rx="6" fill="url(#paint0_linear_28_418)"/>
<g filter="url(#filter0_d_28_418)">
<path d="M22.5852 19.495C22.2571 19.53 22.0026 19.7916 21.9799 20.1163C21.9573 20.4409 22.1733 20.7345 22.493 20.8137C22.493 20.8137 24.1496 21.3605 26.9702 21.585C29.2352 21.7674 31.8035 21.4305 31.8035 21.4305C32.0696 21.434 32.3135 21.2844 32.4274 21.0473C32.5414 20.8102 32.505 20.5293 32.3343 20.328C32.1636 20.1268 31.8891 20.0428 31.6328 20.1123C31.6328 20.1123 29.1204 20.4208 27.0762 20.2523C24.3846 20.0423 22.9147 19.551 22.9147 19.551C22.8065 19.5247 22.693 19.5247 22.5857 19.551L22.5852 19.495ZM22.5852 16.1699C22.2731 16.2194 22.0363 16.4744 22.0141 16.7859C21.9919 17.0974 22.1906 17.3827 22.493 17.4741C22.493 17.4741 24.1496 18.021 26.9702 18.2455C29.2352 18.4279 31.8035 18.091 31.8035 18.091C32.0448 18.0604 32.247 17.906 32.3459 17.685C32.4447 17.4641 32.4079 17.2099 32.2603 17.0187C32.1126 16.8275 31.8745 16.7286 31.6324 16.7588C31.6324 16.7588 29.1199 17.0673 27.0758 16.8988C24.3842 16.6888 22.9142 16.1975 22.9142 16.1975C22.806 16.1712 22.6925 16.1712 22.5852 16.1975V16.1699ZM22.5852 12.8431C22.2571 12.8781 22.0026 13.1397 21.9799 13.4644C21.9573 13.789 22.1733 14.0826 22.493 14.1617C22.493 14.1617 24.1496 14.6946 26.9702 14.9331C29.2352 15.1155 31.8035 14.7786 31.8035 14.7786C32.0448 14.748 32.247 14.5936 32.3459 14.3726C32.4447 14.1517 32.4079 13.8975 32.2603 13.7063C32.1126 13.5151 31.8745 13.4162 31.6324 13.4464C31.6324 13.4464 29.1199 13.7549 27.0758 13.5864C24.3842 13.3764 22.9142 12.8851 22.9142 12.8851C22.806 12.8588 22.6925 12.8588 22.5852 12.8851V12.8431ZM22.5852 9.51626C22.2571 9.55126 22.0026 9.8129 21.9799 10.1375C21.9573 10.4622 22.1733 10.7557 22.493 10.8349C22.493 10.8349 24.1496 11.3818 26.9702 11.6062C29.2352 11.7887 31.8035 11.4518 31.8035 11.4518C32.0696 11.4553 32.3135 11.3057 32.4274 11.0685C32.5414 10.8314 32.505 10.5505 32.3343 10.3493C32.1636 10.148 31.8891 10.064 31.6328 10.1336C31.6328 10.1336 29.1204 10.442 27.0762 10.2736C24.3846 10.0636 22.9147 9.57226 22.9147 9.57226C22.8065 9.54601 22.693 9.54601 22.5857 9.57226L22.5852 9.51626ZM17.8628 6.00831C14.3154 6.00831 13.0002 7.10208 13.0002 7.10208V33.207C13.0002 33.207 14.2892 32.1132 18.4388 32.2812C22.5883 32.4492 23.4441 33.8843 28.5444 33.9853C33.6438 34.1253 34.9261 33.214 34.9261 33.214L35.0002 6.60113C35.0002 6.60113 32.7041 7.2469 28.238 7.27534C23.7718 7.27534 22.6983 6.15269 18.5988 6.01268C18.354 6.00372 18.1091 5.99949 17.8641 5.99999L17.8628 6.00831ZM20.827 7.71241C20.827 7.71241 22.9732 8.41374 26.9392 8.61018C30.2906 8.77862 33.6513 8.28774 33.6513 8.28774V31.9395C33.6513 31.9395 31.9503 32.8233 27.6983 32.5144C24.4037 32.276 20.7778 31.0514 20.7778 31.0514L20.827 7.71241ZM18.7571 8.32492C19.1385 8.32492 19.4467 8.62943 19.4467 9.00525C19.4467 9.38107 19.138 9.68558 18.7571 9.68558C18.7571 9.68558 17.6468 9.69127 16.9688 9.82558C15.8306 9.96559 15.0577 10.3445 15.0577 10.3445C14.8404 10.4792 14.5641 10.4823 14.3438 10.3532C14.1234 10.2242 13.9943 9.98265 14.0112 9.72977C14.028 9.47689 14.1859 9.25419 14.4218 9.15313C14.4218 9.15313 15.4297 8.63424 16.8349 8.4938C17.6464 8.3538 18.758 8.3538 18.758 8.3538L18.7571 8.32492ZM18.0956 11.6601C18.316 11.654 18.5367 11.654 18.7571 11.6601C19.1119 11.6898 19.3837 11.9825 19.3837 12.3338C19.3837 12.6851 19.1114 12.977 18.7571 13.0076C18.7571 13.0076 17.6468 13.0133 16.9688 13.1476C15.8306 13.2876 15.0577 13.6665 15.0577 13.6665C14.7295 13.8074 14.346 13.6752 14.1788 13.362C14.0116 13.0487 14.1167 12.662 14.4209 12.4738C14.4209 12.4738 15.4288 11.9409 16.834 11.8145C17.2402 11.8145 17.7209 11.8145 18.0956 11.6745V11.6601ZM18.7571 14.9838C19.1385 14.9838 19.4467 15.2883 19.4467 15.6642C19.4467 16.04 19.138 16.3445 18.7571 16.3445C18.7571 16.3445 17.6468 16.3375 16.9688 16.3445C15.8306 16.4845 15.0577 16.8634 15.0577 16.8634C14.7295 17.0042 14.346 16.8721 14.1788 16.5589C14.0116 16.2456 14.1167 15.8588 14.4209 15.6707C14.4209 15.6707 15.4288 15.1518 16.834 15.0114C17.6455 14.8714 18.7571 14.8714 18.7571 14.8714V14.9838Z" fill="white"/>
</g>
<g filter="url(#filter1_d_28_418)">
<path d="M46.8788 18V9.99995H49.7304C50.3502 9.99995 50.8645 10.1067 51.2734 10.3203C51.6848 10.5338 51.9921 10.8294 52.1952 11.207C52.3984 11.582 52.4999 12.0156 52.4999 12.5078C52.4999 12.9973 52.3971 13.4283 52.1913 13.8007C51.9882 14.1705 51.6809 14.4583 51.2695 14.664C50.8606 14.8697 50.3463 14.9726 49.7265 14.9726H47.5663V13.9335H49.6171C50.0078 13.9335 50.3255 13.8776 50.5703 13.7656C50.8176 13.6536 50.9986 13.4908 51.1132 13.2773C51.2278 13.0638 51.2851 12.8072 51.2851 12.5078C51.2851 12.2057 51.2265 11.944 51.1093 11.7226C50.9947 11.5013 50.8137 11.332 50.5663 11.2148C50.3216 11.095 49.9999 11.0351 49.6015 11.0351H48.0859V18H46.8788ZM50.8281 14.3906L52.8046 18H51.4296L49.4921 14.3906H50.8281ZM56.3857 18.121C55.7945 18.121 55.2854 17.9947 54.8583 17.7421C54.4339 17.4869 54.1057 17.1289 53.874 16.6679C53.6448 16.2044 53.5302 15.6614 53.5302 15.039C53.5302 14.4244 53.6448 13.8828 53.874 13.414C54.1057 12.9453 54.4286 12.5794 54.8427 12.3164C55.2594 12.0533 55.7464 11.9218 56.3036 11.9218C56.6422 11.9218 56.9703 11.9778 57.288 12.0898C57.6057 12.2018 57.8909 12.3776 58.1435 12.6171C58.3961 12.8567 58.5953 13.1679 58.7411 13.5507C58.887 13.9309 58.9599 14.3932 58.9599 14.9375V15.3515H54.1904V14.4765H57.8154C57.8154 14.1692 57.7529 13.8971 57.6279 13.6601C57.5029 13.4205 57.3271 13.2317 57.1005 13.0937C56.8766 12.9557 56.6135 12.8867 56.3115 12.8867C55.9833 12.8867 55.6969 12.9674 55.4521 13.1289C55.2099 13.2877 55.0224 13.496 54.8896 13.7539C54.7594 14.0091 54.6943 14.2864 54.6943 14.5859V15.2695C54.6943 15.6705 54.7646 16.0117 54.9052 16.2929C55.0484 16.5742 55.2477 16.789 55.5029 16.9375C55.7581 17.0833 56.0563 17.1562 56.3974 17.1562C56.6188 17.1562 56.8206 17.125 57.0029 17.0625C57.1852 16.9973 57.3427 16.901 57.4755 16.7734C57.6083 16.6458 57.7099 16.4882 57.7802 16.3007L58.8857 16.5C58.7971 16.8255 58.6383 17.1106 58.4091 17.3554C58.1826 17.5976 57.8974 17.7864 57.5536 17.9218C57.2125 18.0546 56.8232 18.121 56.3857 18.121ZM62.0019 18.1328C61.6217 18.1328 61.2779 18.0625 60.9706 17.9218C60.6633 17.7786 60.4199 17.5716 60.2402 17.3007C60.0631 17.0299 59.9745 16.6979 59.9745 16.3046C59.9745 15.9661 60.0396 15.6875 60.1699 15.4687C60.3001 15.25 60.4758 15.0768 60.6972 14.9492C60.9186 14.8216 61.166 14.7252 61.4394 14.6601C61.7128 14.595 61.9915 14.5455 62.2753 14.5117C62.6347 14.47 62.9264 14.4361 63.1503 14.4101C63.3743 14.3815 63.537 14.3359 63.6386 14.2734C63.7402 14.2109 63.7909 14.1093 63.7909 13.9687V13.9414C63.7909 13.6002 63.6946 13.3359 63.5019 13.1484C63.3118 12.9609 63.0279 12.8671 62.6503 12.8671C62.2571 12.8671 61.9472 12.9544 61.7206 13.1289C61.4967 13.3007 61.3417 13.4921 61.2558 13.7031L60.1581 13.4531C60.2883 13.0885 60.4785 12.7942 60.7285 12.5703C60.9811 12.3437 61.2714 12.1796 61.5995 12.0781C61.9277 11.9739 62.2727 11.9218 62.6347 11.9218C62.8743 11.9218 63.1282 11.9505 63.3964 12.0078C63.6673 12.0625 63.9199 12.164 64.1542 12.3125C64.3912 12.4609 64.5852 12.6731 64.7363 12.9492C64.8873 13.2226 64.9628 13.5781 64.9628 14.0156V18H63.8222V17.1796H63.7753C63.6998 17.3307 63.5865 17.4791 63.4355 17.625C63.2844 17.7708 63.0904 17.8919 62.8534 17.9882C62.6165 18.0846 62.3326 18.1328 62.0019 18.1328ZM62.2558 17.1953C62.5787 17.1953 62.8548 17.1315 63.0839 17.0039C63.3157 16.8763 63.4915 16.7096 63.6113 16.5039C63.7337 16.2955 63.7949 16.0729 63.7949 15.8359V15.0625C63.7532 15.1041 63.6725 15.1432 63.5527 15.1796C63.4355 15.2135 63.3014 15.2434 63.1503 15.2695C62.9993 15.2929 62.8521 15.3151 62.7089 15.3359C62.5657 15.3541 62.4459 15.3697 62.3495 15.3828C62.123 15.4114 61.9159 15.4596 61.7284 15.5273C61.5436 15.595 61.3951 15.6927 61.2831 15.8203C61.1738 15.9453 61.1191 16.1119 61.1191 16.3203C61.1191 16.6093 61.2258 16.8281 61.4394 16.9765C61.6529 17.1223 61.9251 17.1953 62.2558 17.1953ZM68.7646 18.1171C68.2802 18.1171 67.8479 17.9934 67.4677 17.746C67.0901 17.496 66.7932 17.1406 66.5771 16.6796C66.3635 16.2161 66.2568 15.6601 66.2568 15.0117C66.2568 14.3632 66.3648 13.8085 66.581 13.3476C66.7997 12.8867 67.0992 12.5338 67.4794 12.289C67.8596 12.0442 68.2906 11.9218 68.7724 11.9218C69.1448 11.9218 69.4443 11.9843 69.6708 12.1093C69.9 12.2317 70.0771 12.375 70.2021 12.539C70.3297 12.7031 70.4286 12.8476 70.499 12.9726H70.5693V9.99995H71.7372V18H70.5966V17.0664H70.499C70.4286 17.194 70.3271 17.3398 70.1943 17.5039C70.0641 17.6679 69.8844 17.8111 69.6552 17.9335C69.426 18.0559 69.1292 18.1171 68.7646 18.1171ZM69.0224 17.121C69.3583 17.121 69.6422 17.0325 69.874 16.8554C70.1083 16.6757 70.2854 16.427 70.4052 16.1093C70.5276 15.7916 70.5888 15.4218 70.5888 15C70.5888 14.5833 70.5289 14.2187 70.4091 13.9062C70.2893 13.5937 70.1135 13.3502 69.8818 13.1757C69.65 13.0013 69.3635 12.914 69.0224 12.914C68.6708 12.914 68.3779 13.0052 68.1435 13.1875C67.9091 13.3697 67.732 13.6184 67.6122 13.9335C67.495 14.2486 67.4365 14.6041 67.4365 15C67.4365 15.401 67.4964 15.7617 67.6161 16.082C67.7359 16.4023 67.913 16.6562 68.1474 16.8437C68.3844 17.0286 68.676 17.121 69.0224 17.121ZM79.1161 12V12.9375H75.8388V12H79.1161ZM76.7177 10.5625H77.8857V16.2382C77.8857 16.4648 77.9195 16.6354 77.9872 16.75C78.0549 16.8619 78.1422 16.9388 78.249 16.9804C78.3583 17.0195 78.4768 17.039 78.6044 17.039C78.6982 17.039 78.7802 17.0325 78.8505 17.0195C78.9208 17.0065 78.9755 16.996 79.0146 16.9882L79.2255 17.9531C79.1578 17.9791 79.0615 18.0052 78.9365 18.0312C78.8115 18.0598 78.6552 18.0755 78.4677 18.0781C78.1604 18.0833 77.874 18.0286 77.6083 17.914C77.3427 17.7994 77.1279 17.6223 76.9638 17.3828C76.7997 17.1432 76.7177 16.8424 76.7177 16.4804V10.5625ZM81.705 14.4375V18H80.537V9.99995H81.6894V12.9765H81.7636C81.9042 12.6536 82.1191 12.3971 82.4081 12.207C82.6972 12.0169 83.0748 11.9218 83.5409 11.9218C83.9524 11.9218 84.3118 12.0065 84.6191 12.1757C84.929 12.345 85.1685 12.5976 85.3378 12.9335C85.5097 13.2669 85.5956 13.6835 85.5956 14.1835V18H84.4277V14.3242C84.4277 13.8841 84.3144 13.5429 84.0878 13.3007C83.8613 13.0559 83.5462 12.9335 83.1425 12.9335C82.8665 12.9335 82.6191 12.9921 82.4003 13.1093C82.1842 13.2265 82.0136 13.3984 81.8886 13.625C81.7662 13.8489 81.705 14.1197 81.705 14.4375ZM89.7402 18.121C89.149 18.121 88.6399 17.9947 88.2128 17.7421C87.7883 17.4869 87.4602 17.1289 87.2284 16.6679C86.9993 16.2044 86.8847 15.6614 86.8847 15.039C86.8847 14.4244 86.9993 13.8828 87.2284 13.414C87.4602 12.9453 87.7831 12.5794 88.1972 12.3164C88.6139 12.0533 89.1008 11.9218 89.6581 11.9218C89.9967 11.9218 90.3248 11.9778 90.6425 12.0898C90.9602 12.2018 91.2454 12.3776 91.498 12.6171C91.7506 12.8567 91.9498 13.1679 92.0956 13.5507C92.2415 13.9309 92.3144 14.3932 92.3144 14.9375V15.3515H87.5448V14.4765H91.1698C91.1698 14.1692 91.1073 13.8971 90.9823 13.6601C90.8573 13.4205 90.6816 13.2317 90.455 13.0937C90.231 12.9557 89.968 12.8867 89.6659 12.8867C89.3378 12.8867 89.0514 12.9674 88.8066 13.1289C88.5644 13.2877 88.3769 13.496 88.2441 13.7539C88.1139 14.0091 88.0488 14.2864 88.0488 14.5859V15.2695C88.0488 15.6705 88.1191 16.0117 88.2597 16.2929C88.4029 16.5742 88.6021 16.789 88.8573 16.9375C89.1126 17.0833 89.4107 17.1562 89.7519 17.1562C89.9732 17.1562 90.1751 17.125 90.3573 17.0625C90.5396 16.9973 90.6972 16.901 90.83 16.7734C90.9628 16.6458 91.0644 16.4882 91.1347 16.3007L92.2402 16.5C92.1516 16.8255 91.9928 17.1106 91.7636 17.3554C91.537 17.5976 91.2519 17.7864 90.9081 17.9218C90.567 18.0546 90.1777 18.121 89.7402 18.121Z" fill="#E8E8E8"/>
<path d="M49.8863 31H46.6605V22.2727H49.882C50.7712 22.2727 51.5369 22.4474 52.1789 22.7968C52.8238 23.1434 53.321 23.6434 53.6704 24.2968C54.0198 24.9474 54.1945 25.7258 54.1945 26.6321C54.1945 27.5411 54.0198 28.3224 53.6704 28.9758C53.3238 29.6292 52.8281 30.1306 52.1832 30.4801C51.5383 30.8267 50.7727 31 49.8863 31ZM48.7698 29.2017H49.8053C50.294 29.2017 50.7073 29.1193 51.0454 28.9545C51.3863 28.7869 51.6434 28.5156 51.8167 28.1406C51.9928 27.7627 52.0809 27.2599 52.0809 26.6321C52.0809 26.0042 51.9928 25.5042 51.8167 25.1321C51.6406 24.7571 51.3806 24.4872 51.0369 24.3224C50.696 24.1548 50.2755 24.071 49.7755 24.071H48.7698V29.2017ZM58.4815 31.1235C57.794 31.1235 57.2031 30.9829 56.7087 30.7017C56.2173 30.4176 55.838 30.0227 55.571 29.517C55.3068 29.0085 55.1747 28.419 55.1747 27.7485C55.1747 27.0752 55.3068 26.4857 55.571 25.9801C55.838 25.4715 56.2173 25.0767 56.7087 24.7954C57.2031 24.5113 57.794 24.3693 58.4815 24.3693C59.169 24.3693 59.7585 24.5113 60.2499 24.7954C60.7443 25.0767 61.1235 25.4715 61.3877 25.9801C61.6548 26.4857 61.7883 27.0752 61.7883 27.7485C61.7883 28.419 61.6548 29.0085 61.3877 29.517C61.1235 30.0227 60.7443 30.4176 60.2499 30.7017C59.7585 30.9829 59.169 31.1235 58.4815 31.1235ZM58.4943 29.5511C58.7443 29.5511 58.9559 29.4744 59.1292 29.321C59.3025 29.1676 59.4346 28.9545 59.5255 28.6818C59.6193 28.409 59.6661 28.0937 59.6661 27.7357C59.6661 27.3721 59.6193 27.0539 59.5255 26.7812C59.4346 26.5085 59.3025 26.2954 59.1292 26.142C58.9559 25.9886 58.7443 25.9119 58.4943 25.9119C58.2357 25.9119 58.017 25.9886 57.838 26.142C57.6619 26.2954 57.5269 26.5085 57.4332 26.7812C57.3423 27.0539 57.2968 27.3721 57.2968 27.7357C57.2968 28.0937 57.3423 28.409 57.4332 28.6818C57.5269 28.9545 57.6619 29.1676 57.838 29.321C58.017 29.4744 58.2357 29.5511 58.4943 29.5511ZM65.9112 31.1235C65.2208 31.1235 64.6285 30.9815 64.1342 30.6974C63.6427 30.4133 63.2648 30.0184 63.0006 29.5127C62.7364 29.0042 62.6043 28.4161 62.6043 27.7485C62.6043 27.0781 62.7364 26.49 63.0006 25.9843C63.2677 25.4758 63.647 25.0795 64.1384 24.7954C64.6327 24.5113 65.2222 24.3693 65.9069 24.3693C66.512 24.3693 67.039 24.4786 67.4879 24.6974C67.9396 24.9161 68.2918 25.2258 68.5447 25.6264C68.8004 26.0241 68.9353 26.4914 68.9495 27.0284H67.0021C66.9623 26.6931 66.8487 26.4303 66.6612 26.24C66.4765 26.0497 66.235 25.9545 65.9367 25.9545C65.6952 25.9545 65.4836 26.0227 65.3018 26.159C65.12 26.2926 64.9779 26.4914 64.8756 26.7556C64.7762 27.017 64.7265 27.3409 64.7265 27.7272C64.7265 28.1136 64.7762 28.4403 64.8756 28.7073C64.9779 28.9715 65.12 29.1718 65.3018 29.3082C65.4836 29.4417 65.6952 29.5085 65.9367 29.5085C66.1299 29.5085 66.3004 29.4673 66.4481 29.3849C66.5987 29.3025 66.7222 29.1818 66.8188 29.0227C66.9154 28.8607 66.9765 28.6647 67.0021 28.4346H68.9495C68.9296 28.9744 68.7947 29.446 68.5447 29.8494C68.2975 30.2528 67.9495 30.5667 67.5006 30.7911C67.0546 31.0127 66.5248 31.1235 65.9112 31.1235ZM74.2389 28.1747V24.4545H76.3185V31H74.3327V29.7812H74.2645C74.1196 30.1818 73.8724 30.5 73.523 30.7357C73.1764 30.9687 72.7574 31.0852 72.2659 31.0852C71.8199 31.0852 71.4278 30.9829 71.0898 30.7784C70.7517 30.5738 70.4889 30.2883 70.3014 29.9218C70.1139 29.5525 70.0188 29.1207 70.0159 28.6264V24.4545H72.0997V28.2173C72.1026 28.5724 72.1963 28.8522 72.381 29.0568C72.5656 29.2613 72.817 29.3636 73.1352 29.3636C73.3426 29.3636 73.5287 29.3181 73.6935 29.2272C73.8611 29.1335 73.9932 28.9985 74.0898 28.8224C74.1892 28.6434 74.2389 28.4275 74.2389 28.1747ZM77.6448 31V24.4545H79.6263V25.6562H79.6988C79.8352 25.2585 80.0653 24.9446 80.3891 24.7144C80.713 24.4843 81.0994 24.3693 81.5482 24.3693C82.0028 24.3693 82.392 24.4857 82.7158 24.7187C83.0397 24.9517 83.2457 25.2642 83.3337 25.6562H83.4019C83.5241 25.267 83.7627 24.9559 84.1178 24.723C84.4729 24.4872 84.892 24.3693 85.3749 24.3693C85.9942 24.3693 86.4971 24.5681 86.8834 24.9659C87.2698 25.3607 87.463 25.9034 87.463 26.5937V31H85.3792V27.071C85.3792 26.7443 85.2954 26.4957 85.1278 26.3252C84.9602 26.1519 84.7428 26.0653 84.4758 26.0653C84.1888 26.0653 83.963 26.159 83.7982 26.3465C83.6363 26.5312 83.5553 26.7798 83.5553 27.0923V31H81.5525V27.0497C81.5525 26.7457 81.4701 26.5056 81.3053 26.3295C81.1406 26.1534 80.9232 26.0653 80.6533 26.0653C80.4715 26.0653 80.311 26.1093 80.1718 26.1974C80.0326 26.2826 79.9232 26.4048 79.8437 26.5639C79.767 26.723 79.7286 26.9105 79.7286 27.1264V31H77.6448ZM91.8138 31.1235C91.1292 31.1235 90.5383 30.9886 90.0411 30.7187C89.5468 30.446 89.1661 30.0582 88.8991 29.5553C88.6349 29.0497 88.5028 28.4488 88.5028 27.7528C88.5028 27.0767 88.6363 26.4857 88.9033 25.9801C89.1704 25.4715 89.5468 25.0767 90.0326 24.7954C90.5184 24.5113 91.0908 24.3693 91.7499 24.3693C92.2158 24.3693 92.642 24.4417 93.0283 24.5866C93.4147 24.7315 93.7485 24.946 94.0298 25.2301C94.311 25.5142 94.5298 25.865 94.686 26.2826C94.8423 26.6974 94.9204 27.1732 94.9204 27.7102V28.2301H89.2315V27.0198H92.9815C92.9786 26.7982 92.9261 26.6008 92.8238 26.4275C92.7215 26.2542 92.5809 26.1193 92.4019 26.0227C92.2258 25.9232 92.0227 25.8735 91.7925 25.8735C91.5596 25.8735 91.3508 25.9261 91.1661 26.0312C90.9815 26.1335 90.8352 26.2741 90.7272 26.4531C90.6192 26.6292 90.5624 26.8295 90.5567 27.0539V28.2855C90.5567 28.5525 90.6093 28.7869 90.7144 28.9886C90.8195 29.1875 90.9687 29.3423 91.1619 29.4531C91.355 29.5639 91.5852 29.6193 91.8522 29.6193C92.0369 29.6193 92.2045 29.5937 92.355 29.5426C92.5056 29.4914 92.6349 29.4161 92.7428 29.3167C92.8508 29.2173 92.9317 29.0951 92.9857 28.9502L94.8991 29.0056C94.8195 29.4346 94.6448 29.8082 94.3749 30.1264C94.1079 30.4417 93.757 30.6875 93.3224 30.8636C92.8877 31.0369 92.3849 31.1235 91.8138 31.1235ZM98.0685 27.267V31H95.9847V24.4545H97.9662V25.6562H98.0386C98.1835 25.2556 98.4307 24.9417 98.7801 24.7144C99.1295 24.4843 99.5457 24.3693 100.029 24.3693C100.489 24.3693 100.888 24.473 101.226 24.6804C101.567 24.8849 101.831 25.1718 102.019 25.5411C102.209 25.9076 102.303 26.3366 102.3 26.8281V31H100.216V27.2372C100.219 26.8735 100.127 26.5894 99.9392 26.3849C99.7545 26.1804 99.4974 26.0781 99.1679 26.0781C98.9491 26.0781 98.756 26.1264 98.5883 26.223C98.4236 26.3167 98.2957 26.4517 98.2048 26.6278C98.1168 26.8039 98.0713 27.017 98.0685 27.267ZM107.285 24.4545V25.9886H103.155V24.4545H107.285ZM104.021 22.8863H106.104V28.9417C106.104 29.0696 106.124 29.1732 106.164 29.2528C106.207 29.3295 106.268 29.3849 106.347 29.419C106.427 29.4502 106.522 29.4659 106.633 29.4659C106.712 29.4659 106.796 29.4588 106.884 29.4446C106.975 29.4275 107.043 29.4133 107.089 29.4019L107.404 30.9062C107.305 30.9346 107.164 30.9701 106.982 31.0127C106.803 31.0553 106.589 31.0823 106.339 31.0937C105.85 31.1164 105.431 31.0596 105.082 30.9232C104.735 30.784 104.469 30.5681 104.285 30.2755C104.103 29.9829 104.015 29.615 104.021 29.1718V22.8863ZM110.193 31.1107C109.775 31.1107 109.405 31.0411 109.081 30.9019C108.76 30.7599 108.506 30.5468 108.318 30.2627C108.133 29.9758 108.041 29.6164 108.041 29.1846C108.041 28.821 108.105 28.5142 108.233 28.2642C108.361 28.0142 108.537 27.811 108.761 27.6548C108.986 27.4985 109.244 27.3806 109.537 27.3011C109.829 27.2187 110.142 27.1633 110.474 27.1349C110.847 27.1008 111.146 27.0653 111.373 27.0284C111.601 26.9886 111.766 26.9332 111.868 26.8622C111.973 26.7883 112.025 26.6846 112.025 26.5511V26.5298C112.025 26.311 111.95 26.142 111.8 26.0227C111.649 25.9034 111.446 25.8437 111.19 25.8437C110.915 25.8437 110.693 25.9034 110.525 26.0227C110.358 26.142 110.251 26.3068 110.206 26.517L108.284 26.4488C108.341 26.0511 108.487 25.696 108.723 25.3835C108.962 25.0681 109.288 24.821 109.703 24.642C110.121 24.4602 110.622 24.3693 111.207 24.3693C111.625 24.3693 112.01 24.419 112.362 24.5184C112.714 24.615 113.021 24.7571 113.283 24.9446C113.544 25.1292 113.746 25.3565 113.888 25.6264C114.033 25.8963 114.105 26.2045 114.105 26.5511V31H112.145V30.088H112.094C111.977 30.3096 111.828 30.4971 111.646 30.6505C111.467 30.8039 111.256 30.919 111.011 30.9957C110.77 31.0724 110.497 31.1107 110.193 31.1107ZM110.837 29.7471C111.061 29.7471 111.263 29.7017 111.442 29.6107C111.623 29.5198 111.768 29.3948 111.876 29.2357C111.984 29.0738 112.038 28.8863 112.038 28.6732V28.0511C111.979 28.0823 111.906 28.1107 111.821 28.1363C111.739 28.1619 111.648 28.186 111.548 28.2088C111.449 28.2315 111.347 28.2514 111.241 28.2684C111.136 28.2855 111.035 28.3011 110.939 28.3153C110.743 28.3465 110.575 28.3948 110.436 28.4602C110.3 28.5255 110.195 28.6107 110.121 28.7159C110.05 28.8181 110.014 28.9403 110.014 29.0823C110.014 29.2982 110.091 29.463 110.244 29.5767C110.4 29.6903 110.598 29.7471 110.837 29.7471ZM119.074 24.4545V25.9886H114.945V24.4545H119.074ZM115.81 22.8863H117.893V28.9417C117.893 29.0696 117.913 29.1732 117.953 29.2528C117.996 29.3295 118.057 29.3849 118.136 29.419C118.216 29.4502 118.311 29.4659 118.422 29.4659C118.501 29.4659 118.585 29.4588 118.673 29.4446C118.764 29.4275 118.832 29.4133 118.878 29.4019L119.193 30.9062C119.094 30.9346 118.953 30.9701 118.771 31.0127C118.592 31.0553 118.378 31.0823 118.128 31.0937C117.639 31.1164 117.22 31.0596 116.871 30.9232C116.524 30.784 116.258 30.5681 116.074 30.2755C115.892 29.9829 115.804 29.615 115.81 29.1718V22.8863ZM120.137 31V24.4545H122.221V31H120.137ZM121.181 23.6917C120.888 23.6917 120.637 23.5951 120.427 23.4019C120.217 23.2059 120.111 22.9701 120.111 22.6946C120.111 22.4218 120.217 22.1889 120.427 21.9957C120.637 21.7997 120.888 21.7017 121.181 21.7017C121.476 21.7017 121.728 21.7997 121.935 21.9957C122.146 22.1889 122.251 22.4218 122.251 22.6946C122.251 22.9701 122.146 23.2059 121.935 23.4019C121.728 23.5951 121.476 23.6917 121.181 23.6917ZM126.603 31.1235C125.915 31.1235 125.324 30.9829 124.83 30.7017C124.338 30.4176 123.959 30.0227 123.692 29.517C123.428 29.0085 123.296 28.419 123.296 27.7485C123.296 27.0752 123.428 26.4857 123.692 25.9801C123.959 25.4715 124.338 25.0767 124.83 24.7954C125.324 24.5113 125.915 24.3693 126.603 24.3693C127.29 24.3693 127.88 24.5113 128.371 24.7954C128.865 25.0767 129.245 25.4715 129.509 25.9801C129.776 26.4857 129.909 27.0752 129.909 27.7485C129.909 28.419 129.776 29.0085 129.509 29.517C129.245 30.0227 128.865 30.4176 128.371 30.7017C127.88 30.9829 127.29 31.1235 126.603 31.1235ZM126.615 29.5511C126.865 29.5511 127.077 29.4744 127.25 29.321C127.424 29.1676 127.556 28.9545 127.647 28.6818C127.74 28.409 127.787 28.0937 127.787 27.7357C127.787 27.3721 127.74 27.0539 127.647 26.7812C127.556 26.5085 127.424 26.2954 127.25 26.142C127.077 25.9886 126.865 25.9119 126.615 25.9119C126.357 25.9119 126.138 25.9886 125.959 26.142C125.783 26.2954 125.648 26.5085 125.554 26.7812C125.463 27.0539 125.418 27.3721 125.418 27.7357C125.418 28.0937 125.463 28.409 125.554 28.6818C125.648 28.9545 125.783 29.1676 125.959 29.321C126.138 29.4744 126.357 29.5511 126.615 29.5511ZM133.061 27.267V31H130.977V24.4545H132.958V25.6562H133.031C133.176 25.2556 133.423 24.9417 133.772 24.7144C134.122 24.4843 134.538 24.3693 135.021 24.3693C135.481 24.3693 135.88 24.473 136.218 24.6804C136.559 24.8849 136.823 25.1718 137.011 25.5411C137.201 25.9076 137.295 26.3366 137.292 26.8281V31H135.208V27.2372C135.211 26.8735 135.119 26.5894 134.931 26.3849C134.747 26.1804 134.49 26.0781 134.16 26.0781C133.941 26.0781 133.748 26.1264 133.581 26.223C133.416 26.3167 133.288 26.4517 133.197 26.6278C133.109 26.8039 133.063 27.017 133.061 27.267Z" fill="white"/>
</g>
<rect x="0.749939" y="0.749954" width="146.5" height="38.5" rx="5.25" stroke="white" stroke-opacity="0.15" stroke-width="1.5"/>
<defs>
<filter id="filter0_d_28_418" x="5.99994" y="1.99995" width="36" height="36" filterUnits="userSpaceOnUse" color-interpolation-filters="sRGB">
<feFlood flood-opacity="0" result="BackgroundImageFix"/>
<feColorMatrix in="SourceAlpha" type="matrix" values="0 0 0 0 0 0 0 0 0 0 0 0 0 0 0 0 0 0 127 0" result="hardAlpha"/>
<feOffset/>
<feGaussianBlur stdDeviation="2"/>
<feComposite in2="hardAlpha" operator="out"/>
<feColorMatrix type="matrix" values="0 0 0 0 0 0 0 0 0 0 0 0 0 0 0 0 0 0 0.25 0"/>
<feBlend mode="normal" in2="BackgroundImageFix" result="effect1_dropShadow_28_418"/>
<feBlend mode="normal" in="SourceGraphic" in2="effect1_dropShadow_28_418" result="shape"/>
</filter>
<filter id="filter1_d_28_418" x="41.9999" y="2.99995" width="100" height="34" filterUnits="userSpaceOnUse" color-interpolation-filters="sRGB">
<feFlood flood-opacity="0" result="BackgroundImageFix"/>
<feColorMatrix in="SourceAlpha" type="matrix" values="0 0 0 0 0 0 0 0 0 0 0 0 0 0 0 0 0 0 127 0" result="hardAlpha"/>
<feOffset/>
<feGaussianBlur stdDeviation="2"/>
<feComposite in2="hardAlpha" operator="out"/>
<feColorMatrix type="matrix" values="0 0 0 0 0 0 0 0 0 0 0 0 0 0 0 0 0 0 0.25 0"/>
<feBlend mode="normal" in2="BackgroundImageFix" result="effect1_dropShadow_28_418"/>
<feBlend mode="normal" in="SourceGraphic" in2="effect1_dropShadow_28_418" result="shape"/>
</filter>
<linearGradient id="paint0_linear_28_418" x1="73.9999" y1="-4.57764e-05" x2="73.9999" y2="39.9999" gradientUnits="userSpaceOnUse">
<stop stop-color="#282D30"/>
<stop offset="1" stop-color="#1A1D1F"/>
</linearGradient>
</defs>
</svg>
