<svg width="146" height="56" viewBox="0 0 146 56" fill="none" xmlns="http://www.w3.org/2000/svg">
<rect x="-0.00012207" y="-9.15527e-05" width="146" height="56" rx="8" fill="url(#paint0_linear_4_107)"/>
<g filter="url(#filter0_d_4_107)">
<path d="M52.0003 15.6595V45.1428C52.0003 46.7208 50.7211 47.9999 49.1432 47.9999H14.8574C13.2795 47.9999 12.0003 46.7208 12.0003 45.1428V10.8571C12.0003 9.27913 13.2795 7.99994 14.8574 7.99994H42.2706H49.1432C50.7211 7.99994 52.0003 9.27913 52.0003 10.8571V15.6595Z" fill="#F1F1F1"/>
<path d="M40.5718 20.8571H20.5718C19.7828 20.8571 19.1432 21.4967 19.1432 22.2857C19.1432 23.0747 19.7828 23.7143 20.5718 23.7143H40.5718C41.3607 23.7143 42.0003 23.0747 42.0003 22.2857C42.0003 21.4967 41.3607 20.8571 40.5718 20.8571Z" fill="#231F20"/>
<path d="M43.4289 25.1428H20.5718C19.7828 25.1428 19.1432 25.7824 19.1432 26.5714C19.1432 27.3604 19.7828 28 20.5718 28H43.4289C44.2179 28 44.8575 27.3604 44.8575 26.5714C44.8575 25.7824 44.2179 25.1428 43.4289 25.1428Z" fill="#231F20"/>
<path d="M43.4289 29.4285H20.5718C19.7828 29.4285 19.1432 30.0681 19.1432 30.8571C19.1432 31.6461 19.7828 32.2857 20.5718 32.2857H43.4289C44.2179 32.2857 44.8575 31.6461 44.8575 30.8571C44.8575 30.0681 44.2179 29.4285 43.4289 29.4285Z" fill="#231F20"/>
<path d="M43.4289 33.7143H20.5718C19.7828 33.7143 19.1432 34.3539 19.1432 35.1428C19.1432 35.9318 19.7828 36.5714 20.5718 36.5714H43.4289C44.2179 36.5714 44.8575 35.9318 44.8575 35.1428C44.8575 34.3539 44.2179 33.7143 43.4289 33.7143Z" fill="#231F20"/>
<path d="M37.7146 40.8571H20.5718C19.7828 40.8571 19.1432 41.4967 19.1432 42.2857C19.1432 43.0747 19.7828 43.7143 20.5718 43.7143H37.7146C38.5036 43.7143 39.1432 43.0747 39.1432 42.2857C39.1432 41.4967 38.5036 40.8571 37.7146 40.8571Z" fill="#231F20"/>
<path d="M42.0003 42.2857C42.0003 43.0747 42.6399 43.7143 43.4289 43.7143C44.2179 43.7143 44.8574 43.0747 44.8574 42.2857C44.8574 41.4967 44.2179 40.8571 43.4289 40.8571C42.6399 40.8571 42.0003 41.4967 42.0003 42.2857Z" fill="#231F20"/>
<path d="M23.4289 12.2857H20.5718C19.7828 12.2857 19.1432 12.9253 19.1432 13.7142C19.1432 14.5032 19.7828 15.1428 20.5718 15.1428H23.4289C24.2179 15.1428 24.8575 14.5032 24.8575 13.7142C24.8575 12.9253 24.2179 12.2857 23.4289 12.2857Z" fill="#231F20"/>
<path d="M34.8575 12.2857H27.7146C26.9257 12.2857 26.2861 12.9253 26.2861 13.7142C26.2861 14.5032 26.9257 15.1428 27.7146 15.1428H34.8575C35.6465 15.1428 36.2861 14.5032 36.2861 13.7142C36.2861 12.9253 35.6465 12.2857 34.8575 12.2857Z" fill="#231F20"/>
</g>
<g filter="url(#filter1_d_4_107)">
<path d="M66.2953 12.8635L69.534 22.3408H69.6646L72.9033 12.8635H74.801L70.6135 24.4999H68.5851L64.3976 12.8635H66.2953ZM76.345 24.4999V15.7726H78.0439V24.4999H76.345ZM77.203 14.426C76.9075 14.426 76.6538 14.3276 76.4416 14.1306C76.2333 13.9298 76.1291 13.6912 76.1291 13.4147C76.1291 13.1344 76.2333 12.8957 76.4416 12.6988C76.6538 12.498 76.9075 12.3976 77.203 12.3976C77.4985 12.3976 77.7503 12.498 77.9587 12.6988C78.1708 12.8957 78.2769 13.1344 78.2769 13.4147C78.2769 13.6912 78.1708 13.9298 77.9587 14.1306C77.7503 14.3276 77.4985 14.426 77.203 14.426ZM86.8692 17.9033L85.3294 18.176C85.265 17.9791 85.1628 17.7916 85.0226 17.6135C84.8862 17.4355 84.7006 17.2897 84.4658 17.176C84.2309 17.0624 83.9374 17.0056 83.5851 17.0056C83.104 17.0056 82.7025 17.1135 82.3806 17.3295C82.0586 17.5416 81.8976 17.8162 81.8976 18.1533C81.8976 18.445 82.0056 18.6798 82.2215 18.8579C82.4374 19.0359 82.7859 19.1817 83.2669 19.2954L84.6533 19.6135C85.4563 19.7991 86.0548 20.0851 86.4487 20.4715C86.8427 20.8579 87.0396 21.3598 87.0396 21.9772C87.0396 22.4999 86.8881 22.9658 86.5851 23.3749C86.2859 23.7802 85.8673 24.0984 85.3294 24.3294C84.7953 24.5605 84.176 24.676 83.4715 24.676C82.4942 24.676 81.6968 24.4677 81.0794 24.051C80.462 23.6306 80.0832 23.034 79.9431 22.2613L81.5851 22.0113C81.6874 22.4393 81.8976 22.7632 82.2158 22.9829C82.534 23.1988 82.9487 23.3067 83.4601 23.3067C84.0169 23.3067 84.462 23.1912 84.7953 22.9601C85.1287 22.7253 85.2953 22.4393 85.2953 22.1022C85.2953 21.8295 85.1931 21.6003 84.9885 21.4147C84.7878 21.2291 84.479 21.0889 84.0624 20.9942L82.5851 20.6704C81.7707 20.4848 81.1684 20.1893 80.7783 19.784C80.3919 19.3787 80.1987 18.8654 80.1987 18.2442C80.1987 17.7291 80.3427 17.2783 80.6306 16.892C80.9184 16.5056 81.3162 16.2045 81.8237 15.9885C82.3313 15.7688 82.9128 15.659 83.5681 15.659C84.5112 15.659 85.2537 15.8635 85.7953 16.2726C86.337 16.6779 86.6949 17.2215 86.8692 17.9033ZM88.9075 24.4999V15.7726H90.6064V24.4999H88.9075ZM89.7655 14.426C89.47 14.426 89.2163 14.3276 89.0041 14.1306C88.7958 13.9298 88.6916 13.6912 88.6916 13.4147C88.6916 13.1344 88.7958 12.8957 89.0041 12.6988C89.2163 12.498 89.47 12.3976 89.7655 12.3976C90.0609 12.3976 90.3128 12.498 90.5212 12.6988C90.7333 12.8957 90.8394 13.1344 90.8394 13.4147C90.8394 13.6912 90.7333 13.9298 90.5212 14.1306C90.3128 14.3276 90.0609 14.426 89.7655 14.426ZM96.9658 15.7726V17.1363H92.1987V15.7726H96.9658ZM93.4771 13.6817H95.176V21.9374C95.176 22.2669 95.2252 22.5151 95.3237 22.6817C95.4222 22.8446 95.5491 22.9563 95.7044 23.0169C95.8635 23.0738 96.0359 23.1022 96.2215 23.1022C96.3578 23.1022 96.4771 23.0927 96.5794 23.0738C96.6817 23.0548 96.7612 23.0397 96.8181 23.0283L97.1249 24.4317C97.0264 24.4696 96.8862 24.5075 96.7044 24.5454C96.5226 24.587 96.2953 24.6098 96.0226 24.6135C95.5756 24.6211 95.159 24.5416 94.7726 24.3749C94.3862 24.2082 94.0737 23.9507 93.8351 23.6022C93.5965 23.2537 93.4771 22.8162 93.4771 22.2897V13.6817ZM107.153 15.7726V17.1363H102.386V15.7726H107.153ZM103.665 13.6817H105.364V21.9374C105.364 22.2669 105.413 22.5151 105.511 22.6817C105.61 22.8446 105.737 22.9563 105.892 23.0169C106.051 23.0738 106.223 23.1022 106.409 23.1022C106.545 23.1022 106.665 23.0927 106.767 23.0738C106.869 23.0548 106.949 23.0397 107.006 23.0283L107.312 24.4317C107.214 24.4696 107.074 24.5075 106.892 24.5454C106.71 24.587 106.483 24.6098 106.21 24.6135C105.763 24.6211 105.346 24.5416 104.96 24.3749C104.574 24.2082 104.261 23.9507 104.023 23.6022C103.784 23.2537 103.665 22.8162 103.665 22.2897V13.6817ZM110.919 19.3181V24.4999H109.22V12.8635H110.896V17.1931H111.004C111.209 16.7234 111.521 16.3503 111.942 16.0738C112.362 15.7973 112.911 15.659 113.589 15.659C114.188 15.659 114.711 15.7821 115.158 16.0283C115.608 16.2745 115.957 16.642 116.203 17.1306C116.453 17.6154 116.578 18.2215 116.578 18.9488V24.4999H114.879V19.1533C114.879 18.5132 114.714 18.017 114.385 17.6647C114.055 17.3086 113.597 17.1306 113.01 17.1306C112.608 17.1306 112.248 17.2158 111.93 17.3863C111.616 17.5567 111.368 17.8067 111.186 18.1363C111.008 18.462 110.919 18.856 110.919 19.3181ZM122.606 24.676C121.747 24.676 121.006 24.4923 120.385 24.1249C119.767 23.7537 119.29 23.2329 118.953 22.5624C118.62 21.8882 118.453 21.0984 118.453 20.1931C118.453 19.2991 118.62 18.5113 118.953 17.8295C119.29 17.1476 119.76 16.6154 120.362 16.2329C120.968 15.8503 121.676 15.659 122.487 15.659C122.98 15.659 123.457 15.7404 123.919 15.9033C124.381 16.0662 124.796 16.3219 125.163 16.6704C125.531 17.0188 125.82 17.4715 126.033 18.0283C126.245 18.5813 126.351 19.2537 126.351 20.0454V20.6476H119.413V19.3749H124.686C124.686 18.9279 124.595 18.5321 124.413 18.1874C124.231 17.8389 123.976 17.5643 123.646 17.3635C123.32 17.1628 122.938 17.0624 122.498 17.0624C122.021 17.0624 121.605 17.1798 121.248 17.4147C120.896 17.6457 120.623 17.9488 120.43 18.3238C120.241 18.695 120.146 19.0984 120.146 19.534V20.5283C120.146 21.1116 120.248 21.6079 120.453 22.017C120.661 22.426 120.951 22.7385 121.322 22.9544C121.694 23.1666 122.127 23.2726 122.623 23.2726C122.945 23.2726 123.239 23.2272 123.504 23.1363C123.769 23.0416 123.998 22.9014 124.192 22.7158C124.385 22.5302 124.533 22.301 124.635 22.0283L126.243 22.3181C126.114 22.7916 125.883 23.2063 125.55 23.5624C125.22 23.9147 124.805 24.1893 124.305 24.3863C123.809 24.5794 123.243 24.676 122.606 24.676Z" fill="#E8E8E8"/>
<path d="M67.8997 43.4999L64.3017 31.1363H67.6039L69.4693 39.2378H69.572L71.703 31.1363H74.3955L76.5265 39.2559H76.6291L78.5006 31.1363H81.7967L78.2048 43.4999H75.3252L73.0975 36.002H73.0009L70.7733 43.4999H67.8997ZM86.3365 43.675C85.3666 43.675 84.5295 43.4838 83.8252 43.1015C83.1249 42.7151 82.5856 42.1657 82.2073 41.4534C81.833 40.737 81.6458 39.8858 81.6458 38.8998C81.6458 37.9419 81.835 37.1048 82.2133 36.3884C82.5916 35.668 83.1249 35.1086 83.8131 34.7101C84.5013 34.3077 85.3123 34.1064 86.246 34.1064C86.906 34.1064 87.5097 34.2091 88.057 34.4143C88.6044 34.6196 89.0773 34.9234 89.4757 35.3259C89.8742 35.7284 90.1841 36.2254 90.4054 36.817C90.6268 37.4046 90.7374 38.0787 90.7374 38.8394V39.5759H82.6781V37.8614H87.9906C87.9866 37.5475 87.9122 37.2678 87.7673 37.0223C87.6224 36.7768 87.4232 36.5856 87.1696 36.4488C86.9201 36.3079 86.6323 36.2375 86.3063 36.2375C85.9763 36.2375 85.6805 36.3119 85.4189 36.4608C85.1573 36.6057 84.95 36.8049 84.7971 37.0585C84.6442 37.308 84.5637 37.5918 84.5556 37.9097V39.6544C84.5556 40.0327 84.6301 40.3647 84.779 40.6505C84.9279 40.9322 85.1392 41.1515 85.4129 41.3085C85.6865 41.4655 86.0125 41.5439 86.3909 41.5439C86.6525 41.5439 86.8899 41.5077 87.1032 41.4353C87.3165 41.3628 87.4996 41.2562 87.6526 41.1153C87.8055 40.9745 87.9202 40.8014 87.9967 40.5961L90.7073 40.6746C90.5946 41.2823 90.3471 41.8116 89.9647 42.2623C89.5864 42.7091 89.0894 43.0572 88.4736 43.3067C87.8578 43.5522 87.1455 43.675 86.3365 43.675ZM92.2452 43.4999V31.1363H95.1972V35.8149H95.2576C95.3783 35.5332 95.5494 35.2615 95.7707 34.9999C95.9961 34.7383 96.2819 34.525 96.628 34.36C96.9781 34.191 97.3967 34.1064 97.8837 34.1064C98.5276 34.1064 99.1293 34.2755 99.6887 34.6135C100.252 34.9516 100.707 35.4728 101.053 36.1771C101.399 36.8814 101.572 37.7789 101.572 38.8696C101.572 39.92 101.405 40.7994 101.071 41.5077C100.741 42.2161 100.294 42.7473 99.731 43.1015C99.1715 43.4556 98.5497 43.6327 97.8655 43.6327C97.3987 43.6327 96.9942 43.5562 96.6521 43.4033C96.31 43.2504 96.0223 43.0491 95.7888 42.7996C95.5594 42.5501 95.3824 42.2825 95.2576 41.9967H95.167V43.4999H92.2452ZM95.1369 38.8635C95.1369 39.3626 95.2033 39.7973 95.3361 40.1675C95.4729 40.5378 95.6681 40.8255 95.9217 41.0308C96.1792 41.232 96.4871 41.3326 96.8453 41.3326C97.2075 41.3326 97.5154 41.232 97.769 41.0308C98.0225 40.8255 98.2137 40.5378 98.3425 40.1675C98.4753 39.7973 98.5417 39.3626 98.5417 38.8635C98.5417 38.3645 98.4753 37.9318 98.3425 37.5656C98.2137 37.1994 98.0225 36.9156 97.769 36.7144C97.5194 36.5132 97.2115 36.4125 96.8453 36.4125C96.4831 36.4125 96.1752 36.5112 95.9217 36.7084C95.6681 36.9056 95.4729 37.1873 95.3361 37.5535C95.2033 37.9198 95.1369 38.3564 95.1369 38.8635ZM111.215 37.0585L108.504 37.1309C108.476 36.9378 108.399 36.7667 108.275 36.6178C108.15 36.4649 107.987 36.3461 107.786 36.2616C107.589 36.1731 107.359 36.1288 107.098 36.1288C106.755 36.1288 106.464 36.1972 106.222 36.3341C105.985 36.4709 105.868 36.656 105.872 36.8895C105.868 37.0706 105.94 37.2275 106.089 37.3603C106.242 37.4932 106.514 37.5998 106.904 37.6803L108.691 38.0184C109.617 38.1955 110.305 38.4893 110.756 38.8998C111.211 39.3103 111.44 39.8536 111.444 40.5297C111.44 41.1656 111.251 41.719 110.877 42.1899C110.506 42.6608 109.999 43.027 109.355 43.2886C108.711 43.5462 107.975 43.675 107.146 43.675C105.822 43.675 104.777 43.4033 104.013 42.86C103.252 42.3126 102.817 41.5802 102.709 40.6625L105.625 40.5901C105.689 40.9282 105.856 41.1857 106.126 41.3628C106.395 41.5399 106.739 41.6285 107.158 41.6285C107.536 41.6285 107.844 41.558 108.082 41.4172C108.319 41.2763 108.44 41.0892 108.444 40.8557C108.44 40.6464 108.347 40.4794 108.166 40.3547C107.985 40.2259 107.701 40.1253 107.315 40.0528L105.697 39.7449C104.767 39.5759 104.075 39.264 103.62 38.8092C103.165 38.3504 102.94 37.7668 102.944 37.0585C102.94 36.4387 103.105 35.9095 103.439 35.4708C103.773 35.0281 104.248 34.69 104.864 34.4566C105.48 34.2232 106.206 34.1064 107.043 34.1064C108.299 34.1064 109.289 34.3701 110.013 34.8973C110.738 35.4205 111.138 36.1409 111.215 37.0585ZM112.898 43.4999V34.2272H115.85V43.4999H112.898ZM114.377 33.1466C113.962 33.1466 113.606 33.0097 113.308 32.7361C113.01 32.4584 112.861 32.1243 112.861 31.7339C112.861 31.3476 113.01 31.0175 113.308 30.7439C113.606 30.4662 113.962 30.3273 114.377 30.3273C114.795 30.3273 115.151 30.4662 115.445 30.7439C115.743 31.0175 115.892 31.3476 115.892 31.7339C115.892 32.1243 115.743 32.4584 115.445 32.7361C115.151 33.0097 114.795 33.1466 114.377 33.1466ZM122.963 34.2272V36.4005H117.113V34.2272H122.963ZM118.338 32.0056H121.29V40.5841C121.29 40.7652 121.319 40.9121 121.375 41.0248C121.435 41.1334 121.522 41.2119 121.634 41.2602C121.747 41.3045 121.882 41.3266 122.039 41.3266C122.152 41.3266 122.27 41.3165 122.395 41.2964C122.524 41.2723 122.62 41.2522 122.685 41.2361L123.132 43.3671C122.991 43.4073 122.792 43.4576 122.534 43.518C122.28 43.5784 121.977 43.6166 121.622 43.6327C120.93 43.6649 120.337 43.5844 119.841 43.3912C119.35 43.194 118.974 42.8882 118.713 42.4736C118.455 42.0591 118.33 41.5379 118.338 40.9101V32.0056ZM128.704 43.675C127.734 43.675 126.897 43.4838 126.192 43.1015C125.492 42.7151 124.953 42.1657 124.574 41.4534C124.2 40.737 124.013 39.8858 124.013 38.8998C124.013 37.9419 124.202 37.1048 124.58 36.3884C124.959 35.668 125.492 35.1086 126.18 34.7101C126.868 34.3077 127.679 34.1064 128.613 34.1064C129.273 34.1064 129.877 34.2091 130.424 34.4143C130.972 34.6196 131.444 34.9234 131.843 35.3259C132.241 35.7284 132.551 36.2254 132.773 36.817C132.994 37.4046 133.105 38.0787 133.105 38.8394V39.5759H125.045V37.8614H130.358C130.354 37.5475 130.279 37.2678 130.134 37.0223C129.99 36.7768 129.79 36.5856 129.537 36.4488C129.287 36.3079 129 36.2375 128.674 36.2375C128.343 36.2375 128.048 36.3119 127.786 36.4608C127.524 36.6057 127.317 36.8049 127.164 37.0585C127.011 37.308 126.931 37.5918 126.923 37.9097V39.6544C126.923 40.0327 126.997 40.3647 127.146 40.6505C127.295 40.9322 127.506 41.1515 127.78 41.3085C128.054 41.4655 128.38 41.5439 128.758 41.5439C129.02 41.5439 129.257 41.5077 129.47 41.4353C129.684 41.3628 129.867 41.2562 130.02 41.1153C130.173 40.9745 130.287 40.8014 130.364 40.5961L133.074 40.6746C132.962 41.2823 132.714 41.8116 132.332 42.2623C131.954 42.7091 131.457 43.0572 130.841 43.3067C130.225 43.5522 129.513 43.675 128.704 43.675Z" fill="#F1F1F1"/>
</g>
<rect x="1.04988" y="1.04991" width="143.9" height="53.9" rx="6.95" stroke="white" stroke-opacity="0.15" stroke-width="2.1"/>
<defs>
<filter id="filter0_d_4_107" x="6.28559" y="2.28562" width="51.429" height="51.4286" filterUnits="userSpaceOnUse" color-interpolation-filters="sRGB">
<feFlood flood-opacity="0" result="BackgroundImageFix"/>
<feColorMatrix in="SourceAlpha" type="matrix" values="0 0 0 0 0 0 0 0 0 0 0 0 0 0 0 0 0 0 127 0" result="hardAlpha"/>
<feOffset/>
<feGaussianBlur stdDeviation="2.85714"/>
<feComposite in2="hardAlpha" operator="out"/>
<feColorMatrix type="matrix" values="0 0 0 0 0 0 0 0 0 0 0 0 0 0 0 0 0 0 0.25 0"/>
<feBlend mode="normal" in2="BackgroundImageFix" result="effect1_dropShadow_4_107"/>
<feBlend mode="normal" in="SourceGraphic" in2="effect1_dropShadow_4_107" result="shape"/>
</filter>
<filter id="filter1_d_4_107" x="58.3999" y="3.89991" width="81.2" height="48.2" filterUnits="userSpaceOnUse" color-interpolation-filters="sRGB">
<feFlood flood-opacity="0" result="BackgroundImageFix"/>
<feColorMatrix in="SourceAlpha" type="matrix" values="0 0 0 0 0 0 0 0 0 0 0 0 0 0 0 0 0 0 127 0" result="hardAlpha"/>
<feOffset/>
<feGaussianBlur stdDeviation="2.8"/>
<feComposite in2="hardAlpha" operator="out"/>
<feColorMatrix type="matrix" values="0 0 0 0 0 0 0 0 0 0 0 0 0 0 0 0 0 0 0.25 0"/>
<feBlend mode="normal" in2="BackgroundImageFix" result="effect1_dropShadow_4_107"/>
<feBlend mode="normal" in="SourceGraphic" in2="effect1_dropShadow_4_107" result="shape"/>
</filter>
<linearGradient id="paint0_linear_4_107" x1="72.9999" y1="-9.15527e-05" x2="72.9999" y2="55.9999" gradientUnits="userSpaceOnUse">
<stop stop-color="#2C2935"/>
<stop offset="1" stop-color="#262022"/>
</linearGradient>
</defs>
</svg>
