<svg width="138" height="28" viewBox="0 0 138 28" fill="none" xmlns="http://www.w3.org/2000/svg">
<g clip-path="url(#clip0_16_12)">
<rect x="-0.000976562" y="-3.8147e-06" width="137.5" height="28" rx="6" fill="url(#paint0_linear_16_12)"/>
<g filter="url(#filter0_d_16_12)">
<path d="M15.9993 23.2857C21.1277 23.2857 25.2851 19.1284 25.2851 14C25.2851 8.87164 21.1277 4.71428 15.9993 4.71428C10.871 4.71428 6.71362 8.87164 6.71362 14C6.71362 19.1284 10.871 23.2857 15.9993 23.2857Z" stroke="#F1F1F1" stroke-width="2" stroke-linecap="round" stroke-linejoin="round"/>
<path d="M6.71362 14H25.2851" stroke="#F1F1F1" stroke-width="2" stroke-linecap="round" stroke-linejoin="round"/>
<path d="M15.9994 4.71428C18.3221 7.25704 19.642 10.5569 19.7137 14C19.642 17.4431 18.3221 20.743 15.9994 23.2857C13.6768 20.743 12.3569 17.4431 12.2852 14C12.3569 10.5569 13.6768 7.25704 15.9994 4.71428V4.71428Z" stroke="#F1F1F1" stroke-width="2" stroke-linecap="round" stroke-linejoin="round"/>
</g>
<g filter="url(#filter1_d_16_12)">
<path d="M32.8779 18.5V10.5H34.085V13.9766H38.0732V10.5H39.2842V18.5H38.0732V15.0117H34.085V18.5H32.8779ZM43.5342 18.6211C42.943 18.6211 42.4339 18.4948 42.0068 18.2422C41.5824 17.987 41.2542 17.6289 41.0225 17.168C40.7933 16.7044 40.6787 16.1615 40.6787 15.5391C40.6787 14.9245 40.7933 14.3828 41.0225 13.9141C41.2542 13.4453 41.5771 13.0794 41.9912 12.8164C42.4079 12.5534 42.8949 12.4219 43.4521 12.4219C43.7907 12.4219 44.1188 12.4779 44.4365 12.5898C44.7542 12.7018 45.0394 12.8776 45.292 13.1172C45.5446 13.3568 45.7438 13.668 45.8896 14.0508C46.0355 14.431 46.1084 14.8932 46.1084 15.4375V15.8516H41.3389V14.9766H44.9639C44.9639 14.6693 44.9014 14.3971 44.7764 14.1602C44.6514 13.9206 44.4756 13.7318 44.249 13.5937C44.0251 13.4557 43.762 13.3867 43.46 13.3867C43.1318 13.3867 42.8454 13.4674 42.6006 13.6289C42.3584 13.7878 42.1709 13.9961 42.0381 14.2539C41.9079 14.5091 41.8428 14.7865 41.8428 15.0859V15.7695C41.8428 16.1706 41.9131 16.5117 42.0537 16.793C42.1969 17.0742 42.3962 17.2891 42.6514 17.4375C42.9066 17.5833 43.2047 17.6562 43.5459 17.6562C43.7672 17.6562 43.9691 17.625 44.1514 17.5625C44.3337 17.4974 44.4912 17.401 44.624 17.2734C44.7568 17.1458 44.8584 16.9883 44.9287 16.8008L46.0342 17C45.9456 17.3255 45.7868 17.6107 45.5576 17.8555C45.3311 18.0976 45.0459 18.2865 44.7021 18.4219C44.361 18.5547 43.9717 18.6211 43.5342 18.6211ZM48.5723 10.5V18.5H47.4043V10.5H48.5723ZM50.1435 20.75V12.5H51.2842V13.4727H51.3818C51.4495 13.3477 51.5472 13.2031 51.6748 13.0391C51.8024 12.875 51.9795 12.7318 52.206 12.6094C52.4326 12.4844 52.7321 12.4219 53.1045 12.4219C53.5889 12.4219 54.0212 12.5443 54.4014 12.7891C54.7816 13.0338 55.0797 13.3867 55.2959 13.8477C55.5146 14.3086 55.624 14.8633 55.624 15.5117C55.624 16.1601 55.5159 16.7161 55.2998 17.1797C55.0837 17.6406 54.7868 17.9961 54.4092 18.2461C54.0316 18.4935 53.6006 18.6172 53.1162 18.6172C52.7516 18.6172 52.4534 18.556 52.2217 18.4336C51.9925 18.3112 51.8128 18.168 51.6826 18.0039C51.5524 17.8398 51.4521 17.694 51.3818 17.5664H51.3115V20.75H50.1435ZM51.2881 15.5C51.2881 15.9219 51.3493 16.2917 51.4717 16.6094C51.5941 16.9271 51.7712 17.1758 52.0029 17.3555C52.2347 17.5325 52.5185 17.6211 52.8545 17.6211C53.2034 17.6211 53.4951 17.5286 53.7295 17.3437C53.9639 17.1562 54.1409 16.9023 54.2607 16.582C54.3831 16.2617 54.4443 15.901 54.4443 15.5C54.4443 15.1042 54.3844 14.7487 54.2646 14.4336C54.1475 14.1185 53.9704 13.8698 53.7334 13.6875C53.499 13.5052 53.206 13.4141 52.8545 13.4141C52.5159 13.4141 52.2295 13.5013 51.9951 13.6758C51.7633 13.8503 51.5876 14.0937 51.4678 14.4062C51.348 14.7187 51.2881 15.0833 51.2881 15.5ZM63.6445 16.0117V12.5H64.8164V18.5H63.668V17.4609H63.6055C63.4674 17.7812 63.2461 18.0482 62.9414 18.2617C62.6393 18.4726 62.263 18.5781 61.8125 18.5781C61.4271 18.5781 61.0859 18.4935 60.7891 18.3242C60.4948 18.1523 60.263 17.8984 60.0937 17.5625C59.9271 17.2266 59.8437 16.8112 59.8437 16.3164V12.5H61.0117V16.1758C61.0117 16.5846 61.125 16.9101 61.3516 17.1523C61.5781 17.3945 61.8724 17.5156 62.2344 17.5156C62.4531 17.5156 62.6706 17.4609 62.8867 17.3516C63.1055 17.2422 63.2864 17.0768 63.4297 16.8555C63.5755 16.6341 63.6471 16.3529 63.6445 16.0117ZM70.8818 13.9648L69.8232 14.1523C69.779 14.0169 69.7086 13.888 69.6123 13.7656C69.5185 13.6432 69.3909 13.543 69.2295 13.4648C69.068 13.3867 68.8662 13.3477 68.624 13.3477C68.2933 13.3477 68.0172 13.4219 67.7959 13.5703C67.5745 13.7161 67.4639 13.9049 67.4639 14.1367C67.4639 14.3372 67.5381 14.4987 67.6865 14.6211C67.835 14.7435 68.0745 14.8437 68.4053 14.9219L69.3584 15.1406C69.9105 15.2682 70.3219 15.4648 70.5928 15.7305C70.8636 15.9961 70.999 16.3411 70.999 16.7656C70.999 17.125 70.8948 17.4453 70.6865 17.7266C70.4808 18.0052 70.193 18.224 69.8232 18.3828C69.456 18.5417 69.0303 18.6211 68.5459 18.6211C67.874 18.6211 67.3258 18.4779 66.9014 18.1914C66.4769 17.9023 66.2165 17.4922 66.1201 16.9609L67.249 16.7891C67.3193 17.0833 67.4639 17.306 67.6826 17.457C67.9014 17.6055 68.1865 17.6797 68.5381 17.6797C68.9209 17.6797 69.2269 17.6003 69.456 17.4414C69.6852 17.2799 69.7998 17.0833 69.7998 16.8516C69.7998 16.6641 69.7295 16.5065 69.5889 16.3789C69.4508 16.2513 69.2386 16.1549 68.9521 16.0898L67.9365 15.8672C67.3766 15.7396 66.9626 15.5365 66.6943 15.2578C66.4287 14.9792 66.2959 14.6263 66.2959 14.1992C66.2959 13.845 66.3948 13.5352 66.5928 13.2695C66.7907 13.0039 67.0641 12.7969 67.4131 12.6484C67.762 12.4974 68.1618 12.4219 68.6123 12.4219C69.2607 12.4219 69.7711 12.5625 70.1435 12.8437C70.5159 13.1224 70.762 13.4961 70.8818 13.9648Z" fill="#E8E8E8"/>
<path d="M74.874 11.4858V9.77272H82.2504V11.4858H79.6041V18.5H77.5246V11.4858H74.874ZM82.6009 18.5V11.9545H84.6251V13.1477H84.6933C84.8126 12.7159 85.0072 12.3949 85.2771 12.1847C85.547 11.9716 85.8609 11.8651 86.2188 11.8651C86.3154 11.8651 86.4149 11.8722 86.5171 11.8864C86.6194 11.8977 86.7146 11.9162 86.8026 11.9418V13.7528C86.7032 13.7187 86.5725 13.6918 86.4106 13.6719C86.2515 13.652 86.1095 13.642 85.9845 13.642C85.7373 13.642 85.5143 13.6974 85.3154 13.8082C85.1194 13.9162 84.9646 14.0682 84.8509 14.2642C84.7401 14.4574 84.6847 14.6847 84.6847 14.946V18.5H82.6009ZM89.2508 18.6108C88.8332 18.6108 88.4624 18.5412 88.1386 18.402C87.8176 18.2599 87.5633 18.0469 87.3758 17.7628C87.1911 17.4758 87.0988 17.1165 87.0988 16.6847C87.0988 16.321 87.1627 16.0142 87.2906 15.7642C87.4184 15.5142 87.5945 15.3111 87.819 15.1548C88.0434 14.9986 88.3019 14.8807 88.5945 14.8011C88.8872 14.7187 89.1997 14.6633 89.532 14.6349C89.9042 14.6008 90.2039 14.5653 90.4312 14.5284C90.6585 14.4886 90.8232 14.4332 90.9255 14.3622C91.0306 14.2883 91.0832 14.1847 91.0832 14.0511V14.0298C91.0832 13.8111 91.0079 13.642 90.8573 13.5227C90.7068 13.4034 90.5036 13.3437 90.248 13.3437C89.9724 13.3437 89.7508 13.4034 89.5832 13.5227C89.4156 13.642 89.309 13.8068 89.2636 14.017L87.3417 13.9489C87.3985 13.5511 87.5448 13.196 87.7806 12.8835C88.0193 12.5682 88.346 12.321 88.7607 12.142C89.1784 11.9602 89.6798 11.8693 90.265 11.8693C90.6826 11.8693 91.0676 11.919 91.4198 12.0185C91.7721 12.1151 92.0789 12.2571 92.3403 12.4446C92.6016 12.6293 92.8034 12.8565 92.9454 13.1264C93.0903 13.3963 93.1627 13.7045 93.1627 14.0511V18.5H91.2025V17.5881H91.1514C91.0349 17.8097 90.8857 17.9972 90.7039 18.1506C90.5249 18.304 90.3133 18.419 90.069 18.4957C89.8275 18.5724 89.5548 18.6108 89.2508 18.6108ZM89.8943 17.2472C90.1187 17.2472 90.3204 17.2017 90.4994 17.1108C90.6812 17.0199 90.8261 16.8949 90.934 16.7358C91.042 16.5739 91.096 16.3864 91.096 16.1733V15.5511C91.0363 15.5824 90.9639 15.6108 90.8786 15.6364C90.7962 15.6619 90.7053 15.6861 90.6059 15.7088C90.5065 15.7315 90.4042 15.7514 90.2991 15.7685C90.194 15.7855 90.0931 15.8011 89.9965 15.8153C89.8005 15.8466 89.6329 15.8949 89.4937 15.9602C89.3573 16.0256 89.2522 16.1108 89.1784 16.2159C89.1073 16.3182 89.0718 16.4403 89.0718 16.5824C89.0718 16.7983 89.1485 16.9631 89.3019 17.0767C89.4582 17.1903 89.6556 17.2472 89.8943 17.2472ZM96.5207 14.767V18.5H94.4369V11.9545H96.4184V13.1562H96.4908C96.6357 12.7557 96.8829 12.4418 97.2323 12.2145C97.5818 11.9844 97.998 11.8693 98.4809 11.8693C98.9411 11.8693 99.3403 11.973 99.6783 12.1804C100.019 12.3849 100.283 12.6719 100.471 13.0412C100.661 13.4077 100.755 13.8366 100.752 14.3281V18.5H98.6684V14.7372C98.6712 14.3736 98.5789 14.0895 98.3914 13.8849C98.2068 13.6804 97.9497 13.5781 97.6201 13.5781C97.4014 13.5781 97.2082 13.6264 97.0406 13.723C96.8758 13.8168 96.748 13.9517 96.657 14.1278C96.569 14.304 96.5235 14.517 96.5207 14.767ZM107.757 13.9531L105.843 14.0043C105.824 13.8679 105.77 13.7472 105.682 13.642C105.593 13.5341 105.478 13.4503 105.336 13.3906C105.197 13.3281 105.035 13.2969 104.851 13.2969C104.609 13.2969 104.403 13.3452 104.233 13.4418C104.065 13.5383 103.983 13.669 103.986 13.8338C103.983 13.9616 104.034 14.0724 104.139 14.1662C104.247 14.2599 104.439 14.3352 104.714 14.392L105.976 14.6307C106.629 14.7557 107.115 14.9631 107.433 15.2528C107.754 15.5426 107.916 15.9261 107.919 16.4034C107.916 16.8523 107.782 17.2429 107.518 17.5753C107.257 17.9077 106.899 18.1662 106.444 18.3508C105.99 18.5327 105.47 18.6236 104.885 18.6236C103.95 18.6236 103.213 18.4318 102.673 18.0483C102.136 17.6619 101.829 17.1449 101.753 16.4972L103.811 16.446C103.856 16.6847 103.974 16.8665 104.164 16.9915C104.355 17.1165 104.598 17.179 104.893 17.179C105.16 17.179 105.378 17.1293 105.545 17.0298C105.713 16.9304 105.798 16.7983 105.801 16.6335C105.798 16.4858 105.733 16.3679 105.605 16.2798C105.477 16.1889 105.277 16.1179 105.004 16.0668L103.862 15.8494C103.206 15.7301 102.717 15.5099 102.396 15.1889C102.075 14.8651 101.916 14.4531 101.919 13.9531C101.916 13.5156 102.032 13.142 102.268 12.8324C102.504 12.5199 102.839 12.2812 103.274 12.1165C103.709 11.9517 104.221 11.8693 104.812 11.8693C105.699 11.8693 106.397 12.0554 106.909 12.4276C107.42 12.7969 107.703 13.3054 107.757 13.9531ZM111.028 9.77272V18.5H108.945V9.77272H111.028ZM114.2 18.6108C113.782 18.6108 113.412 18.5412 113.088 18.402C112.767 18.2599 112.513 18.0469 112.325 17.7628C112.14 17.4758 112.048 17.1165 112.048 16.6847C112.048 16.321 112.112 16.0142 112.24 15.7642C112.368 15.5142 112.544 15.3111 112.768 15.1548C112.993 14.9986 113.251 14.8807 113.544 14.8011C113.836 14.7187 114.149 14.6633 114.481 14.6349C114.853 14.6008 115.153 14.5653 115.38 14.5284C115.608 14.4886 115.772 14.4332 115.875 14.3622C115.98 14.2883 116.032 14.1847 116.032 14.0511V14.0298C116.032 13.8111 115.957 13.642 115.807 13.5227C115.656 13.4034 115.453 13.3437 115.197 13.3437C114.922 13.3437 114.7 13.4034 114.532 13.5227C114.365 13.642 114.258 13.8068 114.213 14.017L112.291 13.9489C112.348 13.5511 112.494 13.196 112.73 12.8835C112.968 12.5682 113.295 12.321 113.71 12.142C114.128 11.9602 114.629 11.8693 115.214 11.8693C115.632 11.8693 116.017 11.919 116.369 12.0185C116.721 12.1151 117.028 12.2571 117.289 12.4446C117.551 12.6293 117.753 12.8565 117.895 13.1264C118.039 13.3963 118.112 13.7045 118.112 14.0511V18.5H116.152V17.5881H116.101C115.984 17.8097 115.835 17.9972 115.653 18.1506C115.474 18.304 115.263 18.419 115.018 18.4957C114.777 18.5724 114.504 18.6108 114.2 18.6108ZM114.843 17.2472C115.068 17.2472 115.27 17.2017 115.449 17.1108C115.63 17.0199 115.775 16.8949 115.883 16.7358C115.991 16.5739 116.045 16.3864 116.045 16.1733V15.5511C115.986 15.5824 115.913 15.6108 115.828 15.6364C115.745 15.6619 115.655 15.6861 115.555 15.7088C115.456 15.7315 115.353 15.7514 115.248 15.7685C115.143 15.7855 115.042 15.8011 114.946 15.8153C114.75 15.8466 114.582 15.8949 114.443 15.9602C114.307 16.0256 114.201 16.1108 114.128 16.2159C114.057 16.3182 114.021 16.4403 114.021 16.5824C114.021 16.7983 114.098 16.9631 114.251 17.0767C114.407 17.1903 114.605 17.2472 114.843 17.2472ZM123.081 11.9545V13.4886H118.951V11.9545H123.081ZM119.816 10.3864H121.9V16.4418C121.9 16.5696 121.92 16.6733 121.96 16.7528C122.003 16.8295 122.064 16.8849 122.143 16.919C122.223 16.9503 122.318 16.9659 122.429 16.9659C122.508 16.9659 122.592 16.9588 122.68 16.9446C122.771 16.9276 122.839 16.9133 122.885 16.902L123.2 18.4062C123.101 18.4347 122.96 18.4702 122.778 18.5128C122.599 18.5554 122.385 18.5824 122.135 18.5937C121.646 18.6165 121.227 18.5597 120.878 18.4233C120.531 18.2841 120.265 18.0682 120.081 17.7756C119.899 17.4829 119.811 17.1151 119.816 16.6719V10.3864ZM127.133 18.6236C126.449 18.6236 125.858 18.4886 125.361 18.2187C124.866 17.946 124.486 17.5582 124.218 17.0554C123.954 16.5497 123.822 15.9489 123.822 15.2528C123.822 14.5767 123.956 13.9858 124.223 13.4801C124.49 12.9716 124.866 12.5767 125.352 12.2954C125.838 12.0114 126.41 11.8693 127.069 11.8693C127.535 11.8693 127.961 11.9418 128.348 12.0866C128.734 12.2315 129.068 12.446 129.349 12.7301C129.63 13.0142 129.849 13.3651 130.005 13.7827C130.162 14.1974 130.24 14.6733 130.24 15.2102V15.7301H124.551V14.5199H128.301C128.298 14.2983 128.245 14.1008 128.143 13.9276C128.041 13.7543 127.9 13.6193 127.721 13.5227C127.545 13.4233 127.342 13.3736 127.112 13.3736C126.879 13.3736 126.67 13.4261 126.486 13.5312C126.301 13.6335 126.155 13.7741 126.047 13.9531C125.939 14.1293 125.882 14.3295 125.876 14.554V15.7855C125.876 16.0526 125.929 16.2869 126.034 16.4886C126.139 16.6875 126.288 16.8423 126.481 16.9531C126.674 17.0639 126.905 17.1193 127.172 17.1193C127.356 17.1193 127.524 17.0937 127.674 17.0426C127.825 16.9915 127.954 16.9162 128.062 16.8168C128.17 16.7173 128.251 16.5952 128.305 16.4503L130.218 16.5057C130.139 16.9347 129.964 17.3082 129.694 17.6264C129.427 17.9418 129.076 18.1875 128.642 18.3636C128.207 18.5369 127.704 18.6236 127.133 18.6236Z" fill="#F1F1F1"/>
</g>
</g>
<rect x="0.749023" y="0.749996" width="136" height="26.5" rx="5.25" stroke="white" stroke-opacity="0.15" stroke-width="1.5"/>
<defs>
<filter id="filter0_d_16_12" x="1.71362" y="-0.285717" width="28.5715" height="28.5714" filterUnits="userSpaceOnUse" color-interpolation-filters="sRGB">
<feFlood flood-opacity="0" result="BackgroundImageFix"/>
<feColorMatrix in="SourceAlpha" type="matrix" values="0 0 0 0 0 0 0 0 0 0 0 0 0 0 0 0 0 0 127 0" result="hardAlpha"/>
<feOffset/>
<feGaussianBlur stdDeviation="2"/>
<feComposite in2="hardAlpha" operator="out"/>
<feColorMatrix type="matrix" values="0 0 0 0 0 0 0 0 0 0 0 0 0 0 0 0 0 0 0.25 0"/>
<feBlend mode="normal" in2="BackgroundImageFix" result="effect1_dropShadow_16_12"/>
<feBlend mode="normal" in="SourceGraphic" in2="effect1_dropShadow_16_12" result="shape"/>
</filter>
<filter id="filter1_d_16_12" x="27.999" y="3.5" width="107.5" height="21.25" filterUnits="userSpaceOnUse" color-interpolation-filters="sRGB">
<feFlood flood-opacity="0" result="BackgroundImageFix"/>
<feColorMatrix in="SourceAlpha" type="matrix" values="0 0 0 0 0 0 0 0 0 0 0 0 0 0 0 0 0 0 127 0" result="hardAlpha"/>
<feOffset/>
<feGaussianBlur stdDeviation="2"/>
<feComposite in2="hardAlpha" operator="out"/>
<feColorMatrix type="matrix" values="0 0 0 0 0 0 0 0 0 0 0 0 0 0 0 0 0 0 0.25 0"/>
<feBlend mode="normal" in2="BackgroundImageFix" result="effect1_dropShadow_16_12"/>
<feBlend mode="normal" in="SourceGraphic" in2="effect1_dropShadow_16_12" result="shape"/>
</filter>
<linearGradient id="paint0_linear_16_12" x1="68.749" y1="-3.8147e-06" x2="68.749" y2="28" gradientUnits="userSpaceOnUse">
<stop stop-color="#303030"/>
<stop offset="1" stop-color="#1D1D1D"/>
</linearGradient>
<clipPath id="clip0_16_12">
<rect x="-0.000976562" y="-3.8147e-06" width="137.5" height="28" rx="6" fill="white"/>
</clipPath>
</defs>
</svg>
