<svg width="226" height="41" viewBox="0 0 226 41" fill="none" xmlns="http://www.w3.org/2000/svg">
<rect x="0.00976562" y="0.00279236" width="225.001" height="40.0014" rx="8" fill="url(#paint0_linear_16_21)"/>
<g filter="url(#filter0_d_16_21)">
<path d="M25.9504 25.1708C25.542 25.1688 25.135 25.0886 24.7513 24.9274C23.8871 24.5642 23.126 23.8784 22.5069 22.9505C22.6835 22.6478 22.8426 22.3344 22.9847 22.0158C23.6076 20.6188 23.9038 19.089 23.9265 17.5706C23.9233 17.5405 23.9207 17.5102 23.9187 17.4799L23.917 17.402C23.9156 16.8066 23.8216 16.2032 23.6092 15.6414C23.3645 14.9942 22.9745 14.3464 22.3557 14.0938C22.2432 14.048 22.1249 14.0287 22.0072 14.0314C21.2288 12.6282 21.204 11.2835 22.0072 10.003C22.0215 10.003 22.0364 10.0031 22.0507 10.0032C22.9983 10.0132 23.9371 10.2953 24.7404 10.7879C26.9279 12.1292 28.0185 14.7431 28.0426 17.3095C28.0429 17.3396 28.0425 17.3697 28.0416 17.3997H28.0539C28.0507 20.112 27.3744 22.8624 25.9504 25.1708H25.9504ZM21.1002 29.4281C19.0571 30.2386 16.6842 30.1951 14.6591 29.2883C12.3293 28.2453 10.5491 26.2181 9.45268 23.904C7.57728 19.9459 7.53437 15.2143 9.31294 11.1955C10.6487 11.7109 11.8364 10.8901 11.8364 10.8901C11.8364 10.8901 11.8336 12.1531 13.1017 12.7865C11.8006 15.7264 11.832 19.2193 13.1358 22.0842C13.7635 23.4627 14.7224 24.7463 16.0515 25.4722C16.5259 25.7313 17.0471 25.8985 17.5834 25.9613C17.5854 25.9643 17.5873 25.9673 17.5893 25.9703C18.5363 27.3953 19.7291 28.583 21.1002 29.4281H21.1002Z" fill="url(#paint1_linear_16_21)"/>
<path opacity="0.3" fill-rule="evenodd" clip-rule="evenodd" d="M25.9493 25.1717C25.5411 25.1697 25.1343 25.0895 24.7508 24.9283C23.8864 24.5651 23.1253 23.8792 22.5062 22.951C22.6828 22.6482 22.842 22.3346 22.9842 22.0158C23.172 21.5946 23.3301 21.1614 23.4599 20.72C23.7609 19.6974 27.7562 20.9953 27.1467 22.68C26.8322 23.5492 26.4341 24.3861 25.9493 25.1717ZM21.0987 29.4285C19.0559 30.2386 16.6834 30.195 14.6586 29.2883C12.3288 28.2453 14.7219 24.7463 16.051 25.4722C16.5252 25.7312 17.0462 25.8984 17.5822 25.9612C17.5844 25.9646 17.5866 25.9679 17.5888 25.9712C18.5356 27.396 19.7281 28.5834 21.0987 29.4285V29.4285Z" fill="url(#paint2_linear_16_21)"/>
<path d="M15.983 17.3997C15.982 17.3697 15.9817 17.3396 15.982 17.3095C16.006 14.7431 17.0967 12.1292 19.2841 10.7879C20.0875 10.2953 21.0263 10.0132 21.9739 10.0032C21.9882 10.0031 22.003 10.003 22.0173 10.003V14.0314C21.8996 14.0287 21.7813 14.048 21.6689 14.0938C21.0501 14.3464 20.66 14.9942 20.4153 15.6414C20.2029 16.2032 20.1089 16.8066 20.1075 17.402L20.1058 17.4799C20.1039 17.5103 20.1013 17.5405 20.098 17.5706C20.1207 19.089 20.417 20.6188 21.0399 22.0158C21.7375 23.5804 22.8464 25.0197 24.4121 25.6775C25.5932 26.1739 26.9025 26.0569 27.9731 25.4722C29.3022 24.7463 30.2611 23.4627 30.8888 22.0842C32.1926 19.2193 32.2239 15.7264 30.9229 12.7865C32.1909 12.1531 32.1882 10.8901 32.1882 10.8901C32.1882 10.8901 33.3759 11.7109 34.7116 11.1955C36.4902 15.2143 36.4473 19.9459 34.5719 23.904C33.4755 26.2181 31.6952 28.2453 29.3654 29.2883C27.2914 30.217 24.8527 30.2402 22.7771 29.368C20.9119 28.5839 19.3948 27.1713 18.3034 25.5287C16.7226 23.1498 15.9741 20.2536 15.9707 17.3997H15.983Z" fill="url(#paint3_linear_16_21)"/>
</g>
<g filter="url(#filter1_d_16_21)">
<path d="M42.7598 15.7457V14.1399H52.3283V15.7457H48.4707V26.5035H46.6114V15.7457H42.7598ZM53.335 26.5035V17.2308H55.0797V18.7038H55.1763C55.3453 18.2047 55.6431 17.8123 56.0697 17.5266C56.5004 17.2368 56.9873 17.0919 57.5307 17.0919C57.6434 17.0919 57.7762 17.0959 57.9291 17.104C58.0861 17.112 58.2088 17.1221 58.2974 17.1342V18.8607C58.2249 18.8406 58.0961 18.8185 57.911 18.7943C57.7259 18.7662 57.5407 18.7521 57.3556 18.7521C56.929 18.7521 56.5487 18.8426 56.2146 19.0237C55.8846 19.2008 55.623 19.4483 55.4298 19.7663C55.2366 20.0802 55.14 20.4384 55.14 20.8408V26.5035H53.335ZM62.4749 26.7087C61.8873 26.7087 61.3561 26.6001 60.8812 26.3828C60.4063 26.1614 60.03 25.8414 59.7523 25.4229C59.4786 25.0043 59.3417 24.4912 59.3417 23.8835C59.3417 23.3603 59.4424 22.9296 59.6436 22.5916C59.8448 22.2535 60.1165 21.9859 60.4586 21.7886C60.8007 21.5914 61.183 21.4425 61.6056 21.3419C62.0282 21.2413 62.4588 21.1648 62.8975 21.1125C63.4529 21.0481 63.9037 20.9958 64.2498 20.9556C64.5959 20.9113 64.8474 20.8408 65.0044 20.7443C65.1613 20.6477 65.2398 20.4907 65.2398 20.2734V20.2311C65.2398 19.7039 65.0909 19.2954 64.7931 19.0056C64.4993 18.7158 64.0606 18.571 63.477 18.571C62.8693 18.571 62.3904 18.7058 62.0403 18.9754C61.6941 19.2411 61.4547 19.5369 61.3219 19.8629L59.6255 19.4765C59.8267 18.9131 60.1205 18.4583 60.5069 18.1122C60.8973 17.762 61.346 17.5085 61.8531 17.3515C62.3602 17.1905 62.8935 17.11 63.4529 17.11C63.8232 17.11 64.2156 17.1543 64.6301 17.2428C65.0487 17.3274 65.439 17.4843 65.8013 17.7137C66.1675 17.9431 66.4673 18.2711 66.7008 18.6977C66.9342 19.1203 67.0509 19.6697 67.0509 20.3458V26.5035H65.2881V25.2357H65.2157C65.099 25.4692 64.9239 25.6986 64.6905 25.9239C64.457 26.1493 64.1572 26.3365 63.791 26.4854C63.4247 26.6343 62.986 26.7087 62.4749 26.7087ZM62.8673 25.2599C63.3664 25.2599 63.793 25.1613 64.1471 24.9641C64.5053 24.7669 64.777 24.5093 64.9621 24.1913C65.1513 23.8694 65.2459 23.5253 65.2459 23.159V21.9637C65.1815 22.0281 65.0567 22.0885 64.8716 22.1448C64.6905 22.1971 64.4832 22.2434 64.2498 22.2837C64.0163 22.3199 63.789 22.3541 63.5676 22.3863C63.3462 22.4145 63.1611 22.4386 63.0122 22.4587C62.6621 22.503 62.3421 22.5775 62.0523 22.6821C61.7666 22.7868 61.5372 22.9377 61.3641 23.1349C61.1951 23.3281 61.1106 23.5856 61.1106 23.9076C61.1106 24.3543 61.2756 24.6924 61.6056 24.9218C61.9356 25.1472 62.3562 25.2599 62.8673 25.2599ZM71.2602 20.9978V26.5035H69.4551V17.2308H71.1877V18.74H71.3024C71.5157 18.249 71.8498 17.8546 72.3045 17.5568C72.7634 17.2589 73.3409 17.11 74.0371 17.11C74.669 17.11 75.2224 17.2428 75.6973 17.5085C76.1722 17.7701 76.5405 18.1605 76.8021 18.6796C77.0637 19.1988 77.1945 19.8407 77.1945 20.6054V26.5035H75.3894V20.8227C75.3894 20.1506 75.2143 19.6254 74.8642 19.2471C74.5141 18.8648 74.0331 18.6736 73.4214 18.6736C73.0028 18.6736 72.6305 18.7641 72.3045 18.9453C71.9826 19.1264 71.727 19.392 71.5379 19.7421C71.3527 20.0882 71.2602 20.5068 71.2602 20.9978ZM86.5638 19.4946L84.9278 19.7844C84.8593 19.5751 84.7507 19.3759 84.6018 19.1867C84.4569 18.9976 84.2597 18.8426 84.0102 18.7219C83.7606 18.6011 83.4487 18.5408 83.0744 18.5408C82.5633 18.5408 82.1367 18.6555 81.7946 18.8849C81.4525 19.1103 81.2815 19.402 81.2815 19.7602C81.2815 20.0701 81.3962 20.3197 81.6256 20.5088C81.855 20.698 82.2252 20.8529 82.7364 20.9737L84.2094 21.3117C85.0626 21.5089 85.6985 21.8128 86.117 22.2233C86.5356 22.6338 86.7449 23.1671 86.7449 23.8231C86.7449 24.3785 86.5839 24.8735 86.2619 25.3082C85.944 25.7388 85.4993 26.0769 84.9278 26.3224C84.3603 26.5679 83.7023 26.6906 82.9537 26.6906C81.9153 26.6906 81.0682 26.4693 80.4121 26.0266C79.7561 25.5798 79.3537 24.946 79.2048 24.1249L80.9494 23.8593C81.0581 24.3141 81.2815 24.6582 81.6195 24.8916C81.9576 25.121 82.3983 25.2357 82.9416 25.2357C83.5332 25.2357 84.0061 25.113 84.3603 24.8675C84.7145 24.618 84.8915 24.3141 84.8915 23.9559C84.8915 23.6661 84.7829 23.4226 84.5656 23.2254C84.3522 23.0282 84.0242 22.8793 83.5815 22.7787L82.0119 22.4346C81.1466 22.2374 80.5067 21.9235 80.0922 21.4928C79.6817 21.0622 79.4764 20.5169 79.4764 19.8568C79.4764 19.3095 79.6294 18.8306 79.9352 18.42C80.2411 18.0095 80.6637 17.6896 81.203 17.4602C81.7423 17.2267 82.3601 17.11 83.0563 17.11C84.0584 17.11 84.8473 17.3274 85.4228 17.762C85.9983 18.1926 86.3786 18.7702 86.5638 19.4946ZM90.5346 14.1399V26.5035H88.7295V14.1399H90.5346ZM95.6614 26.7087C95.0738 26.7087 94.5426 26.6001 94.0677 26.3828C93.5928 26.1614 93.2165 25.8414 92.9388 25.4229C92.6651 25.0043 92.5283 24.4912 92.5283 23.8835C92.5283 23.3603 92.6289 22.9296 92.8301 22.5916C93.0313 22.2535 93.303 21.9859 93.6451 21.7886C93.9872 21.5914 94.3695 21.4425 94.7921 21.3419C95.2147 21.2413 95.6453 21.1648 96.084 21.1125C96.6394 21.0481 97.0902 20.9958 97.4363 20.9556C97.7824 20.9113 98.0339 20.8408 98.1909 20.7443C98.3479 20.6477 98.4263 20.4907 98.4263 20.2734V20.2311C98.4263 19.7039 98.2774 19.2954 97.9796 19.0056C97.6858 18.7158 97.2471 18.571 96.6636 18.571C96.0558 18.571 95.5769 18.7058 95.2268 18.9754C94.8807 19.2411 94.6412 19.5369 94.5084 19.8629L92.812 19.4765C93.0132 18.9131 93.307 18.4583 93.6934 18.1122C94.0838 17.762 94.5325 17.5085 95.0396 17.3515C95.5467 17.1905 96.08 17.11 96.6394 17.11C97.0097 17.11 97.4021 17.1543 97.8166 17.2428C98.2352 17.3274 98.6256 17.4843 98.9878 17.7137C99.354 17.9431 99.6539 18.2711 99.8873 18.6977C100.121 19.1203 100.237 19.6697 100.237 20.3458V26.5035H98.4746V25.2357H98.4022C98.2855 25.4692 98.1104 25.6986 97.877 25.9239C97.6436 26.1493 97.3437 26.3365 96.9775 26.4854C96.6112 26.6343 96.1726 26.7087 95.6614 26.7087ZM96.0538 25.2599C96.5529 25.2599 96.9795 25.1613 97.3337 24.9641C97.6918 24.7669 97.9635 24.5093 98.1486 24.1913C98.3378 23.8694 98.4324 23.5253 98.4324 23.159V21.9637C98.368 22.0281 98.2432 22.0885 98.0581 22.1448C97.877 22.1971 97.6697 22.2434 97.4363 22.2837C97.2029 22.3199 96.9755 22.3541 96.7541 22.3863C96.5328 22.4145 96.3476 22.4386 96.1987 22.4587C95.8486 22.503 95.5286 22.5775 95.2388 22.6821C94.9531 22.7868 94.7237 22.9377 94.5506 23.1349C94.3816 23.3281 94.2971 23.5856 94.2971 23.9076C94.2971 24.3543 94.4621 24.6924 94.7921 24.9218C95.1221 25.1472 95.5427 25.2599 96.0538 25.2599ZM106.97 17.2308V18.6796H101.905V17.2308H106.97ZM103.263 15.0092H105.068V23.7808C105.068 24.131 105.121 24.3946 105.225 24.5717C105.33 24.7447 105.465 24.8635 105.63 24.9279C105.799 24.9882 105.982 25.0184 106.179 25.0184C106.324 25.0184 106.451 25.0083 106.56 24.9882C106.668 24.9681 106.753 24.952 106.813 24.9399L107.139 26.431C107.035 26.4713 106.886 26.5115 106.692 26.5518C106.499 26.5961 106.258 26.6202 105.968 26.6242C105.493 26.6323 105.05 26.5478 104.64 26.3707C104.229 26.1936 103.897 25.9199 103.644 25.5497C103.39 25.1794 103.263 24.7145 103.263 24.1551V15.0092ZM112.864 26.6906C111.95 26.6906 111.163 26.4954 110.503 26.1051C109.847 25.7106 109.34 25.1573 108.982 24.4449C108.628 23.7285 108.451 22.8894 108.451 21.9275C108.451 20.9777 108.628 20.1406 108.982 19.4161C109.34 18.6917 109.839 18.1262 110.479 17.7198C111.123 17.3133 111.876 17.11 112.737 17.11C113.26 17.11 113.767 17.1966 114.258 17.3696C114.749 17.5427 115.19 17.8143 115.58 18.1846C115.971 18.5549 116.279 19.0358 116.504 19.6274C116.729 20.215 116.842 20.9294 116.842 21.7705V22.4105H109.471V21.0582H115.073C115.073 20.5833 114.977 20.1627 114.783 19.7965C114.59 19.4262 114.319 19.1344 113.968 18.9211C113.622 18.7078 113.216 18.6011 112.749 18.6011C112.242 18.6011 111.799 18.7259 111.421 18.9754C111.047 19.2209 110.757 19.5429 110.552 19.9413C110.35 20.3358 110.25 20.7644 110.25 21.2272V22.2837C110.25 22.9035 110.358 23.4307 110.576 23.8654C110.797 24.3 111.105 24.632 111.499 24.8614C111.894 25.0868 112.355 25.1995 112.882 25.1995C113.224 25.1995 113.536 25.1512 113.817 25.0546C114.099 24.954 114.343 24.8051 114.548 24.6079C114.753 24.4107 114.91 24.1672 115.019 23.8774L116.727 24.1853C116.59 24.6884 116.345 25.1291 115.991 25.5074C115.641 25.8817 115.2 26.1735 114.669 26.3828C114.141 26.588 113.54 26.6906 112.864 26.6906ZM127.25 26.6906C126.38 26.6906 125.622 26.4914 124.974 26.093C124.326 25.6945 123.823 25.1371 123.465 24.4207C123.106 23.7044 122.927 22.8672 122.927 21.9094C122.927 20.9475 123.106 20.1064 123.465 19.3859C123.823 18.6655 124.326 18.1061 124.974 17.7077C125.622 17.3092 126.38 17.11 127.25 17.11C128.119 17.11 128.878 17.3092 129.526 17.7077C130.174 18.1061 130.677 18.6655 131.035 19.3859C131.393 20.1064 131.572 20.9475 131.572 21.9094C131.572 22.8672 131.393 23.7044 131.035 24.4207C130.677 25.1371 130.174 25.6945 129.526 26.093C128.878 26.4914 128.119 26.6906 127.25 26.6906ZM127.256 25.1754C127.819 25.1754 128.286 25.0265 128.656 24.7286C129.027 24.4308 129.3 24.0344 129.477 23.5394C129.658 23.0443 129.749 22.499 129.749 21.9033C129.749 21.3117 129.658 20.7684 129.477 20.2734C129.3 19.7743 129.027 19.3739 128.656 19.072C128.286 18.7702 127.819 18.6193 127.256 18.6193C126.688 18.6193 126.217 18.7702 125.843 19.072C125.473 19.3739 125.197 19.7743 125.016 20.2734C124.839 20.7684 124.75 21.3117 124.75 21.9033C124.75 22.499 124.839 23.0443 125.016 23.5394C125.197 24.0344 125.473 24.4308 125.843 24.7286C126.217 25.0265 126.688 25.1754 127.256 25.1754ZM135.392 20.9978V26.5035H133.587V17.2308H135.32V18.74H135.434C135.648 18.249 135.982 17.8546 136.436 17.5568C136.895 17.2589 137.473 17.11 138.169 17.11C138.801 17.11 139.354 17.2428 139.829 17.5085C140.304 17.7701 140.672 18.1605 140.934 18.6796C141.195 19.1988 141.326 19.8407 141.326 20.6054V26.5035H139.521V20.8227C139.521 20.1506 139.346 19.6254 138.996 19.2471C138.646 18.8648 138.165 18.6736 137.553 18.6736C137.135 18.6736 136.762 18.7641 136.436 18.9453C136.114 19.1264 135.859 19.392 135.67 19.7421C135.485 20.0882 135.392 20.5068 135.392 20.9978Z" fill="#E8E8E8"/>
<path d="M150.911 26.5035L147.313 14.1399H150.615L152.481 22.2414H152.583L154.714 14.1399H157.407L159.538 22.2595H159.64L161.512 14.1399H164.808L161.216 26.5035H158.337L156.109 19.0056H156.012L153.785 26.5035H150.911ZM169.348 26.6786C168.378 26.6786 167.541 26.4874 166.837 26.1051C166.136 25.7187 165.597 25.1693 165.219 24.457C164.844 23.7406 164.657 22.8894 164.657 21.9033C164.657 20.9455 164.846 20.1084 165.225 19.392C165.603 18.6716 166.136 18.1122 166.824 17.7137C167.513 17.3113 168.324 17.11 169.257 17.11C169.917 17.11 170.521 17.2127 171.068 17.4179C171.616 17.6232 172.089 17.927 172.487 18.3295C172.886 18.7319 173.195 19.229 173.417 19.8206C173.638 20.4082 173.749 21.0823 173.749 21.843V22.5795H165.689V20.865H171.002C170.998 20.5511 170.924 20.2714 170.779 20.0259C170.634 19.7804 170.435 19.5892 170.181 19.4524C169.931 19.3115 169.644 19.2411 169.318 19.2411C168.988 19.2411 168.692 19.3155 168.43 19.4644C168.169 19.6093 167.961 19.8085 167.808 20.0621C167.656 20.3116 167.575 20.5953 167.567 20.9133V22.658C167.567 23.0363 167.641 23.3683 167.79 23.6541C167.939 23.9358 168.151 24.1551 168.424 24.3121C168.698 24.469 169.024 24.5475 169.402 24.5475C169.664 24.5475 169.901 24.5113 170.115 24.4389C170.328 24.3664 170.511 24.2598 170.664 24.1189C170.817 23.978 170.932 23.805 171.008 23.5997L173.719 23.6782C173.606 24.2859 173.358 24.8152 172.976 25.2659C172.598 25.7127 172.101 26.0608 171.485 26.3103C170.869 26.5558 170.157 26.6786 169.348 26.6786ZM175.257 26.5035V14.1399H178.209V18.8185H178.269C178.39 18.5368 178.561 18.2651 178.782 18.0035C179.007 17.7419 179.293 17.5286 179.639 17.3636C179.989 17.1945 180.408 17.11 180.895 17.11C181.539 17.11 182.141 17.2791 182.7 17.6171C183.263 17.9552 183.718 18.4764 184.064 19.1807C184.411 19.885 184.584 20.7825 184.584 21.8732C184.584 22.9236 184.417 23.803 184.083 24.5113C183.752 25.2196 183.306 25.7509 182.742 26.1051C182.183 26.4592 181.561 26.6363 180.877 26.6363C180.41 26.6363 180.006 26.5598 179.663 26.4069C179.321 26.254 179.034 26.0527 178.8 25.8032C178.571 25.5537 178.394 25.286 178.269 25.0003H178.178V26.5035H175.257ZM178.148 21.8671C178.148 22.3662 178.215 22.8008 178.347 23.1711C178.484 23.5414 178.679 23.8291 178.933 24.0344C179.191 24.2356 179.498 24.3362 179.857 24.3362C180.219 24.3362 180.527 24.2356 180.78 24.0344C181.034 23.8291 181.225 23.5414 181.354 23.1711C181.487 22.8008 181.553 22.3662 181.553 21.8671C181.553 21.3681 181.487 20.9354 181.354 20.5692C181.225 20.2029 181.034 19.9192 180.78 19.718C180.531 19.5167 180.223 19.4161 179.857 19.4161C179.494 19.4161 179.187 19.5147 178.933 19.7119C178.679 19.9091 178.484 20.1909 178.347 20.5571C178.215 20.9234 178.148 21.36 178.148 21.8671ZM189.083 14.1399V26.5035H186.131V14.1399H189.083ZM193.576 26.6604C192.984 26.6604 192.459 26.5618 192 26.3646C191.545 26.1634 191.185 25.8616 190.919 25.4591C190.658 25.0526 190.527 24.5435 190.527 23.9318C190.527 23.4166 190.617 22.9819 190.799 22.6278C190.98 22.2736 191.229 21.9859 191.547 21.7645C191.865 21.5431 192.231 21.3761 192.646 21.2634C193.06 21.1467 193.503 21.0682 193.974 21.028C194.501 20.9797 194.926 20.9294 195.248 20.8771C195.57 20.8207 195.803 20.7422 195.948 20.6416C196.097 20.537 196.171 20.3901 196.171 20.2009V20.1707C196.171 19.8609 196.065 19.6214 195.852 19.4524C195.638 19.2833 195.35 19.1988 194.988 19.1988C194.598 19.1988 194.284 19.2833 194.046 19.4524C193.809 19.6214 193.658 19.8548 193.594 20.1526L190.871 20.056C190.952 19.4926 191.159 18.9895 191.493 18.5468C191.831 18.1001 192.294 17.7499 192.881 17.4964C193.473 17.2388 194.183 17.11 195.012 17.11C195.604 17.11 196.149 17.1805 196.648 17.3213C197.147 17.4582 197.582 17.6594 197.952 17.925C198.323 18.1866 198.608 18.5086 198.81 18.8909C199.015 19.2733 199.117 19.7099 199.117 20.2009V26.5035H196.34V25.2116H196.268C196.103 25.5255 195.892 25.7911 195.634 26.0085C195.381 26.2258 195.081 26.3888 194.735 26.4975C194.393 26.6061 194.006 26.6604 193.576 26.6604ZM194.487 24.7286C194.805 24.7286 195.091 24.6642 195.344 24.5354C195.602 24.4067 195.807 24.2296 195.96 24.0042C196.113 23.7748 196.19 23.5092 196.19 23.2073V22.3259C196.105 22.3702 196.002 22.4105 195.882 22.4467C195.765 22.4829 195.636 22.5171 195.495 22.5493C195.354 22.5815 195.21 22.6097 195.061 22.6338C194.912 22.658 194.769 22.6801 194.632 22.7002C194.354 22.7445 194.117 22.8129 193.92 22.9055C193.727 22.998 193.578 23.1188 193.473 23.2677C193.372 23.4126 193.322 23.5856 193.322 23.7869C193.322 24.0927 193.431 24.3262 193.648 24.4872C193.869 24.6481 194.149 24.7286 194.487 24.7286ZM206.157 17.2308V19.4041H200.307V17.2308H206.157ZM201.532 15.0092H204.484V23.5877C204.484 23.7688 204.512 23.9157 204.569 24.0283C204.629 24.137 204.716 24.2155 204.828 24.2638C204.941 24.3081 205.076 24.3302 205.233 24.3302C205.346 24.3302 205.464 24.3201 205.589 24.3C205.718 24.2759 205.814 24.2557 205.879 24.2396L206.326 26.3707C206.185 26.4109 205.985 26.4612 205.728 26.5216C205.474 26.582 205.171 26.6202 204.816 26.6363C204.124 26.6685 203.53 26.588 203.035 26.3948C202.544 26.1976 202.168 25.8917 201.907 25.4772C201.649 25.0627 201.524 24.5415 201.532 23.9136V15.0092ZM211.898 26.6786C210.928 26.6786 210.091 26.4874 209.386 26.1051C208.686 25.7187 208.147 25.1693 207.768 24.457C207.394 23.7406 207.207 22.8894 207.207 21.9033C207.207 20.9455 207.396 20.1084 207.774 19.392C208.153 18.6716 208.686 18.1122 209.374 17.7137C210.062 17.3113 210.873 17.11 211.807 17.11C212.467 17.11 213.071 17.2127 213.618 17.4179C214.166 17.6232 214.638 17.927 215.037 18.3295C215.435 18.7319 215.745 19.229 215.967 19.8206C216.188 20.4082 216.299 21.0823 216.299 21.843V22.5795H208.239V20.865H213.552C213.548 20.5511 213.473 20.2714 213.328 20.0259C213.184 19.7804 212.984 19.5892 212.731 19.4524C212.481 19.3115 212.193 19.2411 211.867 19.2411C211.537 19.2411 211.242 19.3155 210.98 19.4644C210.718 19.6093 210.511 19.8085 210.358 20.0621C210.205 20.3116 210.125 20.5953 210.117 20.9133V22.658C210.117 23.0363 210.191 23.3683 210.34 23.6541C210.489 23.9358 210.7 24.1551 210.974 24.3121C211.248 24.469 211.574 24.5475 211.952 24.5475C212.214 24.5475 212.451 24.5113 212.664 24.4389C212.878 24.3664 213.061 24.2598 213.214 24.1189C213.367 23.978 213.481 23.805 213.558 23.5997L216.268 23.6782C216.156 24.2859 215.908 24.8152 215.526 25.2659C215.148 25.7127 214.651 26.0608 214.035 26.3103C213.419 26.5558 212.707 26.6786 211.898 26.6786Z" fill="url(#paint4_linear_16_21)"/>
</g>
<rect x="1.08119" y="1.07422" width="222.858" height="37.8585" rx="6.92857" stroke="white" stroke-opacity="0.15" stroke-width="2.14286"/>
<defs>
<filter id="filter0_d_16_21" x="2.40949" y="0.402512" width="39.2035" height="39.202" filterUnits="userSpaceOnUse" color-interpolation-filters="sRGB">
<feFlood flood-opacity="0" result="BackgroundImageFix"/>
<feColorMatrix in="SourceAlpha" type="matrix" values="0 0 0 0 0 0 0 0 0 0 0 0 0 0 0 0 0 0 127 0" result="hardAlpha"/>
<feOffset/>
<feGaussianBlur stdDeviation="2.80014"/>
<feComposite in2="hardAlpha" operator="out"/>
<feColorMatrix type="matrix" values="0 0 0 0 0 0 0 0 0 0 0 0 0 0 0 0 0 0 0.25 0"/>
<feBlend mode="normal" in2="BackgroundImageFix" result="effect1_dropShadow_16_21"/>
<feBlend mode="normal" in="SourceGraphic" in2="effect1_dropShadow_16_21" result="shape"/>
</filter>
<filter id="filter1_d_16_21" x="36.2969" y="3.78921" width="186.429" height="32.4286" filterUnits="userSpaceOnUse" color-interpolation-filters="sRGB">
<feFlood flood-opacity="0" result="BackgroundImageFix"/>
<feColorMatrix in="SourceAlpha" type="matrix" values="0 0 0 0 0 0 0 0 0 0 0 0 0 0 0 0 0 0 127 0" result="hardAlpha"/>
<feOffset/>
<feGaussianBlur stdDeviation="2.85714"/>
<feComposite in2="hardAlpha" operator="out"/>
<feColorMatrix type="matrix" values="0 0 0 0 0 0 0 0 0 0 0 0 0 0 0 0 0 0 0.25 0"/>
<feBlend mode="normal" in2="BackgroundImageFix" result="effect1_dropShadow_16_21"/>
<feBlend mode="normal" in="SourceGraphic" in2="effect1_dropShadow_16_21" result="shape"/>
</filter>
<linearGradient id="paint0_linear_16_21" x1="112.51" y1="0.00279236" x2="112.51" y2="40.0042" gradientUnits="userSpaceOnUse">
<stop stop-color="#1A2C32"/>
<stop offset="1" stop-color="#0E1C0F"/>
</linearGradient>
<linearGradient id="paint1_linear_16_21" x1="8.01165" y1="17.6147" x2="21.6925" y2="17.6147" gradientUnits="userSpaceOnUse">
<stop stop-color="#00D2E6"/>
<stop offset="1" stop-color="#2ECCAA"/>
</linearGradient>
<linearGradient id="paint2_linear_16_21" x1="16.0178" y1="26.1185" x2="23.1207" y2="21.4245" gradientUnits="userSpaceOnUse">
<stop stop-opacity="0"/>
<stop offset="0.514"/>
<stop offset="1" stop-opacity="0"/>
</linearGradient>
<linearGradient id="paint3_linear_16_21" x1="36.0128" y1="17.9471" x2="22.3552" y2="17.9471" gradientUnits="userSpaceOnUse">
<stop stop-color="#1FA385"/>
<stop offset="1" stop-color="#2ECCAA"/>
</linearGradient>
<linearGradient id="paint4_linear_16_21" x1="147.012" y1="19.1958" x2="217.012" y2="19.1958" gradientUnits="userSpaceOnUse">
<stop stop-color="#00D2E6"/>
<stop offset="1" stop-color="#2ECCAA"/>
</linearGradient>
</defs>
</svg>
