<svg width="133" height="28" viewBox="0 0 133 28" fill="none" xmlns="http://www.w3.org/2000/svg">
<g clip-path="url(#clip0_28_2444)">
<rect x="0.499268" y="-3.8147e-06" width="132" height="28" rx="6" fill="url(#paint0_linear_28_2444)"/>
<g filter="url(#filter0_d_28_2444)">
<path d="M21.5353 8.27037L21.5206 8.26172L21.4868 8.25135C21.5004 8.26289 21.5175 8.2696 21.5353 8.27037Z" fill="#0D0C22"/>
<path d="M21.7445 9.80124L21.7292 9.80468L21.7445 9.80124Z" fill="#0D0C22"/>
<path d="M21.5407 8.26764C21.5387 8.26744 21.5368 8.26707 21.535 8.26655C21.5349 8.26756 21.5349 8.26859 21.535 8.2696C21.5371 8.26938 21.5391 8.2687 21.5407 8.26764Z" fill="#0D0C22"/>
<path d="M21.5349 8.27105H21.5366V8.26917L21.5349 8.27105Z" fill="#0D0C22"/>
<path d="M21.7322 9.79848L21.7568 9.78436L21.766 9.77916L21.7743 9.77023C21.7587 9.777 21.7444 9.78659 21.7322 9.79848Z" fill="#0D0C22"/>
<path d="M21.5773 8.30382L21.5532 8.28075L21.5369 8.27182C21.5456 8.2874 21.5602 8.29889 21.5773 8.30382Z" fill="#0D0C22"/>
<path d="M15.5925 23.1591C15.5733 23.1675 15.5564 23.1806 15.5435 23.1972L15.5587 23.1874C15.569 23.1779 15.5836 23.1667 15.5925 23.1591Z" fill="#0D0C22"/>
<path d="M19.0675 22.463C19.0675 22.4412 19.0569 22.4452 19.0595 22.523C19.0595 22.5168 19.0621 22.5104 19.0632 22.5044C19.0646 22.4905 19.0658 22.4769 19.0675 22.463Z" fill="#0D0C22"/>
<path d="M18.7075 23.1591C18.6882 23.1675 18.6714 23.1806 18.6584 23.1972L18.6736 23.1874C18.684 23.1779 18.6986 23.1667 18.7075 23.1591Z" fill="#0D0C22"/>
<path d="M13.1449 23.3247C13.1303 23.3119 13.1124 23.3036 13.0933 23.3004C13.1087 23.3079 13.1242 23.3154 13.1345 23.3211L13.1449 23.3247Z" fill="#0D0C22"/>
<path d="M12.5939 22.7877C12.5916 22.7651 12.5846 22.7431 12.5735 22.7232C12.5814 22.7438 12.588 22.7651 12.5933 22.7865L12.5939 22.7877Z" fill="#0D0C22"/>
<path d="M16.2932 13.1846C15.5371 13.5142 14.679 13.8878 13.5669 13.8878C13.1017 13.8868 12.6388 13.8218 12.1907 13.6946L12.9598 21.7333C12.987 22.0693 13.1374 22.3826 13.381 22.6109C13.6246 22.8393 13.9437 22.9659 14.2749 22.9659C14.2749 22.9659 15.3654 23.0236 15.7293 23.0236C16.121 23.0236 17.2953 22.9659 17.2953 22.9659C17.6265 22.9659 17.9455 22.8391 18.1891 22.6108C18.4326 22.3824 18.583 22.0693 18.6102 21.7333L19.4339 12.8502C19.0658 12.7223 18.6943 12.6372 18.2755 12.6372C17.5511 12.6369 16.9674 12.8909 16.2932 13.1846Z" fill="#FFDD00"/>
<path d="M9.80957 9.75501L9.82276 9.76741L9.83136 9.7726C9.82474 9.76599 9.81743 9.76009 9.80957 9.75501Z" fill="#0D0C22"/>
<path d="M22.9906 9.01309L22.8748 8.41837C22.7708 7.88477 22.5349 7.38057 21.9969 7.18771C21.8244 7.12601 21.6287 7.0995 21.4965 6.97179C21.3643 6.84409 21.3252 6.64575 21.2946 6.46182C21.238 6.12425 21.1847 5.78638 21.1267 5.44939C21.0765 5.15966 21.0369 4.8342 20.9064 4.56841C20.7364 4.21152 20.3839 4.0028 20.0333 3.86472C19.8537 3.79645 19.6703 3.7387 19.4842 3.69175C18.6083 3.45651 17.6874 3.37003 16.7863 3.32073C15.7047 3.25998 14.6203 3.27828 13.5413 3.37551C12.7382 3.44988 11.8923 3.53983 11.1291 3.82263C10.8502 3.92612 10.5628 4.05037 10.3507 4.26975C10.0904 4.53929 10.0055 4.95614 10.1955 5.29227C10.3306 5.53096 10.5594 5.69961 10.8021 5.81118C11.1182 5.95493 11.4483 6.06432 11.787 6.13751C12.73 6.34969 13.7067 6.43299 14.6701 6.46846C15.7379 6.51232 16.8074 6.47677 17.87 6.36207C18.1328 6.33267 18.3952 6.2974 18.657 6.25628C18.9654 6.20813 19.1634 5.79762 19.0725 5.51165C18.9637 5.16976 18.6715 5.03715 18.341 5.08876C18.2923 5.09653 18.2439 5.10373 18.1951 5.11094L18.16 5.11613C18.0481 5.13056 17.9361 5.14399 17.8242 5.15649C17.5929 5.18186 17.3611 5.20262 17.1287 5.21877C16.6082 5.25566 16.0863 5.27267 15.5647 5.27354C15.0521 5.27354 14.5392 5.25883 14.0278 5.22453C13.7945 5.20897 13.5617 5.18916 13.3295 5.16514C13.2238 5.1539 13.1185 5.14208 13.0132 5.12881L12.9129 5.11585L12.8911 5.11268L12.7872 5.0974C12.5748 5.06481 12.3624 5.02735 12.1523 4.98208C12.1311 4.97729 12.1121 4.96529 12.0985 4.94804C12.0849 4.9308 12.0775 4.90935 12.0775 4.88724C12.0775 4.86513 12.0849 4.84368 12.0985 4.82644C12.1121 4.80919 12.1311 4.79719 12.1523 4.7924H12.1562C12.3383 4.7529 12.5218 4.71917 12.7059 4.68977C12.7673 4.67997 12.8288 4.67036 12.8905 4.66094H12.8922C13.0075 4.65316 13.1233 4.63211 13.238 4.61828C14.2359 4.51262 15.2396 4.47659 16.2423 4.51046C16.7291 4.52488 17.2156 4.55399 17.7001 4.60415C17.8043 4.61511 17.908 4.62664 18.0116 4.63961C18.0513 4.64451 18.0912 4.65027 18.1312 4.65518L18.2116 4.667C18.446 4.70255 18.6793 4.7457 18.9113 4.79643C19.2551 4.87254 19.6966 4.89733 19.8495 5.28074C19.8982 5.40239 19.9203 5.5376 19.9472 5.6653L19.9815 5.82818C19.9824 5.8311 19.983 5.8341 19.9835 5.83711C20.0644 6.22149 20.1455 6.60586 20.2267 6.99023C20.2327 7.01863 20.2328 7.04797 20.2271 7.07642C20.2214 7.10488 20.2101 7.13182 20.1937 7.15561C20.1773 7.17939 20.1563 7.19948 20.132 7.21462C20.1076 7.22977 20.0805 7.23963 20.0523 7.24364H20.05L20.0004 7.25056L19.9515 7.25718C19.7963 7.27775 19.6409 7.29697 19.4853 7.31484C19.1789 7.3504 18.872 7.38114 18.5647 7.40709C17.954 7.45878 17.342 7.49271 16.7288 7.50886C16.4164 7.5173 16.104 7.52126 15.7918 7.52067C14.5489 7.51968 13.307 7.44613 12.0724 7.30042C11.9388 7.28428 11.8051 7.26698 11.6714 7.2494C11.7751 7.26296 11.5961 7.23901 11.5599 7.23384C11.4749 7.22172 11.3899 7.20914 11.305 7.19607C11.0198 7.15253 10.7364 7.09892 10.4518 7.05192C10.1077 6.99427 9.77863 7.0231 9.46741 7.19607C9.21195 7.33838 9.00519 7.55661 8.87471 7.82164C8.74048 8.10415 8.70055 8.41174 8.64052 8.71531C8.58048 9.01886 8.48703 9.34548 8.52243 9.65711C8.59861 10.3297 9.06048 10.8762 9.72483 10.9985C10.3498 11.1138 10.9782 11.2072 11.6083 11.2867C14.0834 11.5953 16.5839 11.6322 19.0668 11.3969C19.269 11.3777 19.4709 11.3567 19.6725 11.334C19.7355 11.327 19.7992 11.3344 19.859 11.3556C19.9188 11.3769 19.9732 11.4115 20.0182 11.457C20.0631 11.5024 20.0975 11.5575 20.1189 11.6182C20.1402 11.679 20.1479 11.7438 20.1415 11.808L20.0786 12.4301C19.9519 13.6871 19.8252 14.9441 19.6986 16.201C19.5664 17.521 19.4334 18.8408 19.2996 20.1605C19.2618 20.5322 19.224 20.9039 19.1863 21.2753C19.15 21.6412 19.145 22.0185 19.0767 22.3801C18.9691 22.9485 18.591 23.2977 18.0394 23.4254C17.534 23.5425 17.0177 23.604 16.4994 23.6086C15.9249 23.6118 15.3506 23.5859 14.776 23.589C14.1626 23.5926 13.4113 23.5349 12.9378 23.0702C12.5218 22.662 12.4643 22.0229 12.4077 21.4701C12.3322 20.7385 12.2574 20.007 12.1831 19.2755L11.7669 15.2082L11.4976 12.5765C11.493 12.533 11.4885 12.49 11.4843 12.4462C11.452 12.1323 11.2336 11.825 10.8896 11.8408C10.5951 11.8541 10.2603 12.1089 10.2949 12.4462L10.4945 14.3973L10.9074 18.4332C11.025 19.5796 11.1424 20.7261 11.2594 21.8729C11.2821 22.0926 11.3033 22.3129 11.3271 22.5325C11.4565 23.733 12.357 24.3798 13.4722 24.562C14.1235 24.6687 14.7907 24.6906 15.4517 24.7015C16.2989 24.7154 17.1547 24.7486 17.9881 24.5923C19.2231 24.3616 20.1497 23.5222 20.2819 22.2201C20.3197 21.8441 20.3574 21.4681 20.3952 21.092C20.5207 19.8482 20.6461 18.6042 20.7713 17.3602L21.1808 13.2955L21.3685 11.4326C21.3779 11.3402 21.4162 11.2534 21.4778 11.1849C21.5394 11.1164 21.621 11.07 21.7106 11.0524C22.0637 10.9823 22.4013 10.8627 22.6525 10.5891C23.0523 10.1535 23.1319 9.58562 22.9906 9.01309ZM9.7067 9.41496C9.71208 9.41236 9.70217 9.45934 9.69793 9.48125C9.69708 9.4481 9.69878 9.41869 9.7067 9.41496ZM9.74097 9.68478C9.7438 9.68276 9.7523 9.6943 9.76108 9.70814C9.74777 9.69544 9.73927 9.68594 9.74069 9.68478H9.74097ZM9.77467 9.73004C9.78685 9.75108 9.79336 9.76435 9.77467 9.73004V9.73004ZM9.84235 9.78596H9.84405C9.84405 9.78799 9.84716 9.79 9.8483 9.79203C9.84642 9.7898 9.84433 9.78777 9.84207 9.78596H9.84235ZM21.6942 9.70236C21.5673 9.82517 21.3761 9.88225 21.1873 9.9108C19.069 10.2308 16.92 10.3928 14.7785 10.3213C13.2459 10.268 11.7295 10.0947 10.2122 9.87648C10.0635 9.85516 9.90238 9.82748 9.80016 9.71591C9.60759 9.50546 9.70217 9.0817 9.7523 8.82744C9.79817 8.59451 9.88596 8.28404 10.1581 8.25088C10.5829 8.20015 11.0762 8.38262 11.4964 8.44749C12.0024 8.52608 12.5102 8.58903 13.0199 8.63631C15.1954 8.83811 17.4073 8.80668 19.5731 8.51149C19.9679 8.45748 20.3612 8.39473 20.7531 8.32324C21.1023 8.25953 21.4894 8.1399 21.7004 8.50802C21.8451 8.75883 21.8644 9.09438 21.842 9.37776C21.8351 9.50122 21.7821 9.61735 21.6939 9.70236H21.6942Z" fill="#E8E8E8"/>
</g>
<g filter="url(#filter1_d_28_2444)">
<path d="M33.1598 18.5V9.77272H36.799C37.4524 9.77272 37.9993 9.86505 38.4396 10.0497C38.8828 10.2344 39.2152 10.4929 39.4368 10.8253C39.6612 11.1577 39.7734 11.5426 39.7734 11.9801C39.7734 12.3125 39.7038 12.6094 39.5646 12.8707C39.4254 13.1293 39.2336 13.3437 38.9893 13.5142C38.745 13.6847 38.4623 13.804 38.1413 13.8722V13.9574C38.4936 13.9744 38.8189 14.0696 39.1172 14.2429C39.4183 14.4162 39.6598 14.6577 39.8416 14.9673C40.0234 15.2741 40.1143 15.6378 40.1143 16.0582C40.1143 16.527 39.995 16.946 39.7564 17.3153C39.5177 17.6818 39.1726 17.9716 38.7209 18.1847C38.2692 18.3949 37.7209 18.5 37.076 18.5H33.1598ZM35.2692 16.7997H36.5731C37.0305 16.7997 37.3672 16.7131 37.5831 16.5398C37.8018 16.3665 37.9112 16.125 37.9112 15.8153C37.9112 15.5909 37.8586 15.3977 37.7535 15.2358C37.6484 15.071 37.4993 14.9446 37.3061 14.8565C37.1129 14.7656 36.8814 14.7202 36.6115 14.7202H35.2692V16.7997ZM35.2692 13.3608H36.4368C36.6669 13.3608 36.8714 13.3224 37.0504 13.2457C37.2294 13.169 37.3686 13.0582 37.468 12.9133C37.5703 12.7685 37.6214 12.5937 37.6214 12.3892C37.6214 12.0966 37.5177 11.8665 37.3103 11.6989C37.103 11.5312 36.8231 11.4474 36.4709 11.4474H35.2692V13.3608ZM45.3515 15.6747V11.9545H47.4311V18.5H45.4453V17.2812H45.3771C45.2322 17.6818 44.9851 18 44.6356 18.2358C44.289 18.4687 43.87 18.5852 43.3785 18.5852C42.9325 18.5852 42.5405 18.4829 42.2024 18.2784C41.8643 18.0739 41.6015 17.7883 41.414 17.4219C41.2265 17.0526 41.1314 16.6207 41.1285 16.1264V11.9545H43.2123V15.7173C43.2152 16.0724 43.3089 16.3523 43.4936 16.5568C43.6782 16.7614 43.9297 16.8636 44.2478 16.8636C44.4552 16.8636 44.6413 16.8182 44.8061 16.7273C44.9737 16.6335 45.1058 16.4986 45.2024 16.3224C45.3018 16.1435 45.3515 15.9276 45.3515 15.6747ZM50.0316 20.9545C49.7816 20.9545 49.5458 20.9347 49.3242 20.8949C49.1026 20.8579 48.9123 20.8082 48.7532 20.7457L49.2134 19.2329C49.4179 19.3011 49.6026 19.3409 49.7674 19.3523C49.935 19.3636 50.0785 19.3366 50.1978 19.2713C50.3199 19.2088 50.4137 19.0966 50.479 18.9347L50.56 18.7386L48.2333 11.9545H50.4151L51.6211 16.625H51.6892L52.9123 11.9545H55.1069L52.6395 19.1264C52.5202 19.4844 52.3512 19.7997 52.1324 20.0724C51.9165 20.348 51.6367 20.5639 51.2929 20.7202C50.952 20.8764 50.5316 20.9545 50.0316 20.9545ZM63.7638 9.77272H65.8689V15.402C65.8689 16.0526 65.7141 16.6193 65.4044 17.1023C65.0948 17.5824 64.663 17.9545 64.109 18.2187C63.555 18.4801 62.9115 18.6108 62.1786 18.6108C61.4371 18.6108 60.7894 18.4801 60.2354 18.2187C59.6814 17.9545 59.251 17.5824 58.9442 17.1023C58.6374 16.6193 58.484 16.0526 58.484 15.402V9.77272H60.5934V15.2187C60.5934 15.5199 60.6587 15.7883 60.7894 16.0241C60.9229 16.2599 61.109 16.4446 61.3476 16.5781C61.5863 16.7116 61.8633 16.7784 62.1786 16.7784C62.4939 16.7784 62.7695 16.7116 63.0053 16.5781C63.2439 16.4446 63.43 16.2599 63.5635 16.0241C63.6971 15.7883 63.7638 15.5199 63.7638 15.2187V9.77272ZM72.9055 13.9531L70.9922 14.0043C70.9723 13.8679 70.9183 13.7472 70.8302 13.642C70.7422 13.5341 70.6271 13.4503 70.4851 13.3906C70.3458 13.3281 70.1839 13.2969 69.9993 13.2969C69.7578 13.2969 69.5518 13.3452 69.3814 13.4418C69.2137 13.5383 69.1314 13.669 69.1342 13.8338C69.1314 13.9616 69.1825 14.0724 69.2876 14.1662C69.3956 14.2599 69.5873 14.3352 69.8629 14.392L71.1243 14.6307C71.7777 14.7557 72.2635 14.9631 72.5816 15.2528C72.9027 15.5426 73.0646 15.9261 73.0674 16.4034C73.0646 16.8523 72.9311 17.2429 72.6669 17.5753C72.4055 17.9077 72.0476 18.1662 71.593 18.3508C71.1385 18.5327 70.6186 18.6236 70.0333 18.6236C69.0987 18.6236 68.3615 18.4318 67.8217 18.0483C67.2848 17.6619 66.978 17.1449 66.9012 16.4972L68.9595 16.446C69.0049 16.6847 69.1228 16.8665 69.3132 16.9915C69.5035 17.1165 69.7464 17.179 70.0419 17.179C70.3089 17.179 70.5262 17.1293 70.6939 17.0298C70.8615 16.9304 70.9467 16.7983 70.9495 16.6335C70.9467 16.4858 70.8814 16.3679 70.7535 16.2798C70.6257 16.1889 70.4254 16.1179 70.1527 16.0668L69.0106 15.8494C68.3544 15.7301 67.8657 15.5099 67.5447 15.1889C67.2237 14.8651 67.0646 14.4531 67.0674 13.9531C67.0646 13.5156 67.1811 13.142 67.4169 12.8324C67.6527 12.5199 67.9879 12.2812 68.4226 12.1165C68.8572 11.9517 69.37 11.8693 69.9609 11.8693C70.8473 11.8693 71.5461 12.0554 72.0575 12.4276C72.5689 12.7969 72.8515 13.3054 72.9055 13.9531ZM78.5167 18.6108C78.099 18.6108 77.7283 18.5412 77.4044 18.402C77.0834 18.2599 76.8292 18.0469 76.6417 17.7628C76.457 17.4758 76.3647 17.1165 76.3647 16.6847C76.3647 16.321 76.4286 16.0142 76.5564 15.7642C76.6843 15.5142 76.8604 15.3111 77.0848 15.1548C77.3093 14.9986 77.5678 14.8807 77.8604 14.8011C78.153 14.7187 78.4655 14.6633 78.7979 14.6349C79.1701 14.6008 79.4698 14.5653 79.6971 14.5284C79.9243 14.4886 80.0891 14.4332 80.1914 14.3622C80.2965 14.2883 80.349 14.1847 80.349 14.0511V14.0298C80.349 13.8111 80.2738 13.642 80.1232 13.5227C79.9726 13.4034 79.7695 13.3437 79.5138 13.3437C79.2382 13.3437 79.0167 13.4034 78.849 13.5227C78.6814 13.642 78.5749 13.8068 78.5294 14.017L76.6076 13.9489C76.6644 13.5511 76.8107 13.196 77.0465 12.8835C77.2851 12.5682 77.6118 12.321 78.0266 12.142C78.4442 11.9602 78.9456 11.8693 79.5309 11.8693C79.9485 11.8693 80.3334 11.919 80.6857 12.0185C81.038 12.1151 81.3448 12.2571 81.6061 12.4446C81.8675 12.6293 82.0692 12.8565 82.2113 13.1264C82.3561 13.3963 82.4286 13.7045 82.4286 14.0511V18.5H80.4684V17.5881H80.4172C80.3007 17.8097 80.1516 17.9972 79.9698 18.1506C79.7908 18.304 79.5792 18.419 79.3348 18.4957C79.0934 18.5724 78.8206 18.6108 78.5167 18.6108ZM79.1601 17.2472C79.3846 17.2472 79.5863 17.2017 79.7652 17.1108C79.9471 17.0199 80.0919 16.8949 80.1999 16.7358C80.3078 16.5739 80.3618 16.3864 80.3618 16.1733V15.5511C80.3022 15.5824 80.2297 15.6108 80.1445 15.6364C80.0621 15.6619 79.9712 15.6861 79.8718 15.7088C79.7723 15.7315 79.6701 15.7514 79.5649 15.7685C79.4598 15.7855 79.359 15.8011 79.2624 15.8153C79.0664 15.8466 78.8988 15.8949 78.7596 15.9602C78.6232 16.0256 78.5181 16.1108 78.4442 16.2159C78.3732 16.3182 78.3377 16.4403 78.3377 16.5824C78.3377 16.7983 78.4144 16.9631 78.5678 17.0767C78.724 17.1903 78.9215 17.2472 79.1601 17.2472ZM94.2027 12.9347H92.072C92.0436 12.7159 91.9854 12.5185 91.8973 12.3423C91.8093 12.1662 91.6928 12.0156 91.5479 11.8906C91.403 11.7656 91.2311 11.6704 91.0323 11.6051C90.8363 11.5369 90.6189 11.5028 90.3803 11.5028C89.957 11.5028 89.5919 11.6065 89.2851 11.8139C88.9811 12.0213 88.7468 12.321 88.582 12.7131C88.4201 13.1051 88.3391 13.5795 88.3391 14.1364C88.3391 14.7159 88.4215 15.2017 88.5863 15.5937C88.7539 15.9829 88.9882 16.277 89.2894 16.4758C89.5934 16.6719 89.9527 16.7699 90.3675 16.7699C90.6005 16.7699 90.8121 16.7401 91.0024 16.6804C91.1956 16.6207 91.3647 16.5341 91.5095 16.4204C91.6573 16.304 91.778 16.1633 91.8718 15.9986C91.9684 15.831 92.0351 15.642 92.072 15.4318L94.2027 15.4446C94.1658 15.831 94.0536 16.2116 93.8661 16.5866C93.6814 16.9616 93.4272 17.304 93.1033 17.6136C92.7794 17.9204 92.3845 18.1648 91.9186 18.3466C91.4556 18.5284 90.9243 18.6193 90.3249 18.6193C89.5351 18.6193 88.8277 18.446 88.2027 18.0994C87.5806 17.75 87.0891 17.2415 86.7283 16.5739C86.3675 15.9062 86.1871 15.0937 86.1871 14.1364C86.1871 13.1761 86.3703 12.3622 86.7368 11.6946C87.1033 11.027 87.599 10.5199 88.224 10.1733C88.849 9.8267 89.5493 9.6534 90.3249 9.6534C90.8533 9.6534 91.3419 9.72727 91.7908 9.875C92.2397 10.0199 92.6345 10.2329 92.9755 10.5142C93.3164 10.7926 93.5934 11.1349 93.8064 11.5412C94.0195 11.9474 94.1516 12.4119 94.2027 12.9347ZM98.4652 18.6236C97.7777 18.6236 97.1867 18.4829 96.6924 18.2017C96.201 17.9176 95.8217 17.5227 95.5546 17.017C95.2904 16.5085 95.1583 15.919 95.1583 15.2486C95.1583 14.5753 95.2904 13.9858 95.5546 13.4801C95.8217 12.9716 96.201 12.5767 96.6924 12.2954C97.1867 12.0114 97.7777 11.8693 98.4652 11.8693C99.1527 11.8693 99.7421 12.0114 100.234 12.2954C100.728 12.5767 101.107 12.9716 101.371 13.4801C101.638 13.9858 101.772 14.5753 101.772 15.2486C101.772 15.919 101.638 16.5085 101.371 17.017C101.107 17.5227 100.728 17.9176 100.234 18.2017C99.7421 18.4829 99.1527 18.6236 98.4652 18.6236ZM98.4779 17.0511C98.7279 17.0511 98.9396 16.9744 99.1129 16.821C99.2862 16.6676 99.4183 16.4545 99.5092 16.1818C99.6029 15.9091 99.6498 15.5937 99.6498 15.2358C99.6498 14.8722 99.6029 14.554 99.5092 14.2812C99.4183 14.0085 99.2862 13.7954 99.1129 13.642C98.9396 13.4886 98.7279 13.4119 98.4779 13.4119C98.2194 13.4119 98.0007 13.4886 97.8217 13.642C97.6456 13.7954 97.5106 14.0085 97.4169 14.2812C97.326 14.554 97.2805 14.8722 97.2805 15.2358C97.2805 15.5937 97.326 15.9091 97.4169 16.1818C97.5106 16.4545 97.6456 16.6676 97.8217 16.821C98.0007 16.9744 98.2194 17.0511 98.4779 17.0511ZM106.56 11.9545V13.4886H102.349V11.9545H106.56ZM103.227 18.5V11.6222C103.227 11.1165 103.322 10.6974 103.513 10.3651C103.703 10.0298 103.967 9.77982 104.305 9.61505C104.643 9.44744 105.034 9.36363 105.477 9.36363C105.767 9.36363 106.04 9.38636 106.295 9.43181C106.554 9.47443 106.746 9.51278 106.871 9.54687L106.538 11.0724C106.462 11.0469 106.368 11.0256 106.257 11.0085C106.149 10.9915 106.047 10.9829 105.95 10.9829C105.706 10.9829 105.538 11.0369 105.447 11.1449C105.356 11.2528 105.311 11.4006 105.311 11.5881V18.5H103.227ZM111.282 11.9545V13.4886H107.072V11.9545H111.282ZM107.95 18.5V11.6222C107.95 11.1165 108.045 10.6974 108.235 10.3651C108.426 10.0298 108.69 9.77982 109.028 9.61505C109.366 9.44744 109.757 9.36363 110.2 9.36363C110.49 9.36363 110.762 9.38636 111.018 9.43181C111.277 9.47443 111.468 9.51278 111.593 9.54687L111.261 11.0724C111.184 11.0469 111.091 11.0256 110.98 11.0085C110.872 10.9915 110.769 10.9829 110.673 10.9829C110.429 10.9829 110.261 11.0369 110.17 11.1449C110.079 11.2528 110.034 11.4006 110.034 11.5881V18.5H107.95ZM115.133 18.6236C114.449 18.6236 113.858 18.4886 113.361 18.2187C112.866 17.946 112.486 17.5582 112.219 17.0554C111.954 16.5497 111.822 15.9489 111.822 15.2528C111.822 14.5767 111.956 13.9858 112.223 13.4801C112.49 12.9716 112.866 12.5767 113.352 12.2954C113.838 12.0114 114.41 11.8693 115.07 11.8693C115.535 11.8693 115.962 11.9418 116.348 12.0866C116.734 12.2315 117.068 12.446 117.349 12.7301C117.631 13.0142 117.849 13.3651 118.006 13.7827C118.162 14.1974 118.24 14.6733 118.24 15.2102V15.7301H112.551V14.5199H116.301C116.298 14.2983 116.246 14.1008 116.143 13.9276C116.041 13.7543 115.901 13.6193 115.722 13.5227C115.545 13.4233 115.342 13.3736 115.112 13.3736C114.879 13.3736 114.67 13.4261 114.486 13.5312C114.301 13.6335 114.155 13.7741 114.047 13.9531C113.939 14.1293 113.882 14.3295 113.876 14.554V15.7855C113.876 16.0526 113.929 16.2869 114.034 16.4886C114.139 16.6875 114.288 16.8423 114.481 16.9531C114.675 17.0639 114.905 17.1193 115.172 17.1193C115.356 17.1193 115.524 17.0937 115.675 17.0426C115.825 16.9915 115.954 16.9162 116.062 16.8168C116.17 16.7173 116.251 16.5952 116.305 16.4503L118.219 16.5057C118.139 16.9347 117.964 17.3082 117.695 17.6264C117.428 17.9418 117.077 18.1875 116.642 18.3636C116.207 18.5369 115.704 18.6236 115.133 18.6236ZM122.364 18.6236C121.679 18.6236 121.088 18.4886 120.591 18.2187C120.097 17.946 119.716 17.5582 119.449 17.0554C119.185 16.5497 119.053 15.9489 119.053 15.2528C119.053 14.5767 119.186 13.9858 119.453 13.4801C119.72 12.9716 120.097 12.5767 120.583 12.2954C121.068 12.0114 121.641 11.8693 122.3 11.8693C122.766 11.8693 123.192 11.9418 123.578 12.0866C123.965 12.2315 124.299 12.446 124.58 12.7301C124.861 13.0142 125.08 13.3651 125.236 13.7827C125.392 14.1974 125.47 14.6733 125.47 15.2102V15.7301H119.782V14.5199H123.532C123.529 14.2983 123.476 14.1008 123.374 13.9276C123.272 13.7543 123.131 13.6193 122.952 13.5227C122.776 13.4233 122.573 13.3736 122.343 13.3736C122.11 13.3736 121.901 13.4261 121.716 13.5312C121.532 13.6335 121.385 13.7741 121.277 13.9531C121.169 14.1293 121.113 14.3295 121.107 14.554V15.7855C121.107 16.0526 121.159 16.2869 121.265 16.4886C121.37 16.6875 121.519 16.8423 121.712 16.9531C121.905 17.0639 122.135 17.1193 122.402 17.1193C122.587 17.1193 122.755 17.0937 122.905 17.0426C123.056 16.9915 123.185 16.9162 123.293 16.8168C123.401 16.7173 123.482 16.5952 123.536 16.4503L125.449 16.5057C125.37 16.9347 125.195 17.3082 124.925 17.6264C124.658 17.9418 124.307 18.1875 123.872 18.3636C123.438 18.5369 122.935 18.6236 122.364 18.6236Z" fill="#FFDD00"/>
</g>
</g>
<rect x="1.24927" y="0.749996" width="130.5" height="26.5" rx="5.25" stroke="white" stroke-opacity="0.15" stroke-width="1.5"/>
<defs>
<filter id="filter0_d_28_2444" x="2.49927" y="-0.714291" width="28" height="29.4286" filterUnits="userSpaceOnUse" color-interpolation-filters="sRGB">
<feFlood flood-opacity="0" result="BackgroundImageFix"/>
<feColorMatrix in="SourceAlpha" type="matrix" values="0 0 0 0 0 0 0 0 0 0 0 0 0 0 0 0 0 0 127 0" result="hardAlpha"/>
<feOffset/>
<feGaussianBlur stdDeviation="2"/>
<feComposite in2="hardAlpha" operator="out"/>
<feColorMatrix type="matrix" values="0 0 0 0 0 0 0 0 0 0 0 0 0 0 0 0 0 0 0.25 0"/>
<feBlend mode="normal" in2="BackgroundImageFix" result="effect1_dropShadow_28_2444"/>
<feBlend mode="normal" in="SourceGraphic" in2="effect1_dropShadow_28_2444" result="shape"/>
</filter>
<filter id="filter1_d_28_2444" x="28.4993" y="3.5" width="102" height="21.4545" filterUnits="userSpaceOnUse" color-interpolation-filters="sRGB">
<feFlood flood-opacity="0" result="BackgroundImageFix"/>
<feColorMatrix in="SourceAlpha" type="matrix" values="0 0 0 0 0 0 0 0 0 0 0 0 0 0 0 0 0 0 127 0" result="hardAlpha"/>
<feOffset/>
<feGaussianBlur stdDeviation="2"/>
<feComposite in2="hardAlpha" operator="out"/>
<feColorMatrix type="matrix" values="0 0 0 0 0 0 0 0 0 0 0 0 0 0 0 0 0 0 0.25 0"/>
<feBlend mode="normal" in2="BackgroundImageFix" result="effect1_dropShadow_28_2444"/>
<feBlend mode="normal" in="SourceGraphic" in2="effect1_dropShadow_28_2444" result="shape"/>
</filter>
<linearGradient id="paint0_linear_28_2444" x1="66.4992" y1="-3.8147e-06" x2="66.4992" y2="28" gradientUnits="userSpaceOnUse">
<stop stop-color="#372E00"/>
<stop offset="1" stop-color="#1E1900"/>
</linearGradient>
<clipPath id="clip0_28_2444">
<rect x="0.499268" y="-3.8147e-06" width="132" height="28" rx="6" fill="white"/>
</clipPath>
</defs>
</svg>
