<svg width="188" height="41" viewBox="0 0 188 41" fill="none" xmlns="http://www.w3.org/2000/svg">
<g clip-path="url(#clip0_28_2424)">
<rect x="0.00317383" width="187.001" height="40.0014" rx="8" fill="url(#paint0_linear_28_2424)"/>
<g filter="url(#filter0_d_28_2424)">
<path d="M29.7329 11.9788L29.7124 11.9667L29.665 11.9522C29.6841 11.9684 29.7079 11.9777 29.7329 11.9788Z" fill="#0D0C22"/>
<path d="M30.0262 14.1221L30.0044 14.1271L30.0262 14.1221Z" fill="#0D0C22"/>
<path d="M29.7407 11.975C29.7379 11.9747 29.7352 11.9742 29.7325 11.9735C29.7324 11.9749 29.7324 11.9764 29.7325 11.9778C29.7355 11.9775 29.7383 11.9765 29.7407 11.975Z" fill="#0D0C22"/>
<path d="M29.7324 11.979H29.7341V11.9771L29.7324 11.979Z" fill="#0D0C22"/>
<path d="M30.0085 14.1183L30.0431 14.0985L30.0559 14.0912L30.0676 14.0787C30.0457 14.0882 30.0257 14.1016 30.0085 14.1183Z" fill="#0D0C22"/>
<path d="M29.792 12.0257L29.7582 11.9934L29.7354 11.9809C29.7476 12.0027 29.768 12.0188 29.792 12.0257Z" fill="#0D0C22"/>
<path d="M21.4127 32.8241C21.3857 32.8358 21.3621 32.8541 21.344 32.8774L21.3653 32.8638C21.3797 32.8504 21.4002 32.8347 21.4127 32.8241Z" fill="#0D0C22"/>
<path d="M26.2779 31.8495C26.2779 31.819 26.2631 31.8246 26.2667 31.9335C26.2667 31.9248 26.2703 31.9159 26.2719 31.9074C26.2739 31.888 26.2755 31.869 26.2779 31.8495Z" fill="#0D0C22"/>
<path d="M25.774 32.8241C25.747 32.8358 25.7234 32.8541 25.7053 32.8774L25.7266 32.8638C25.741 32.8504 25.7615 32.8347 25.774 32.8241Z" fill="#0D0C22"/>
<path d="M17.9856 33.0559C17.9651 33.0381 17.9401 33.0263 17.9133 33.0219C17.935 33.0324 17.9567 33.043 17.9711 33.051L17.9856 33.0559Z" fill="#0D0C22"/>
<path d="M17.2143 32.3041C17.2111 32.2724 17.2014 32.2417 17.1858 32.2138C17.1969 32.2426 17.2061 32.2724 17.2135 32.3024L17.2143 32.3041Z" fill="#0D0C22"/>
<path d="M22.3937 18.8592C21.3351 19.3205 20.1338 19.8436 18.5768 19.8436C17.9255 19.8422 17.2773 19.7513 16.6499 19.5731L17.7267 30.8279C17.7649 31.2982 17.9754 31.7369 18.3165 32.0566C18.6576 32.3763 19.1043 32.5537 19.568 32.5537C19.568 32.5537 21.0948 32.6344 21.6043 32.6344C22.1526 32.6344 23.7968 32.5537 23.7968 32.5537C24.2604 32.5537 24.707 32.3761 25.0481 32.0564C25.3891 31.7367 25.5995 31.2982 25.6377 30.8279L26.791 18.391C26.2756 18.2118 25.7554 18.0927 25.169 18.0927C24.1548 18.0923 23.3377 18.4479 22.3937 18.8592Z" fill="#FFDD00"/>
<path d="M13.3162 14.0574L13.335 14.0751L13.3473 14.0826C13.3378 14.0731 13.3274 14.0647 13.3162 14.0574Z" fill="#0D0C22"/>
<path d="M31.7705 13.0187L31.6083 12.186C31.4628 11.439 31.1326 10.733 30.3793 10.463C30.1378 10.3766 29.8638 10.3395 29.6787 10.1607C29.4935 9.98193 29.4388 9.70424 29.396 9.44673C29.3167 8.9741 29.2422 8.50106 29.1609 8.02925C29.0907 7.62361 29.0352 7.16794 28.8524 6.79581C28.6145 6.29614 28.1209 6.00393 27.6301 5.8106C27.3786 5.71502 27.1219 5.63417 26.8613 5.56843C25.635 5.23909 24.3457 5.118 23.0841 5.04898C21.5698 4.96392 20.0515 4.98955 18.5408 5.12567C17.4164 5.2298 16.2321 5.35573 15.1636 5.75167C14.7731 5.89657 14.3707 6.07052 14.0737 6.37767C13.7094 6.75505 13.5904 7.33867 13.8564 7.80927C14.0456 8.14346 14.3659 8.37958 14.7057 8.53578C15.1483 8.73704 15.6105 8.89019 16.0847 8.99267C17.4049 9.28973 18.7724 9.40636 20.1212 9.45602C21.6162 9.51743 23.1135 9.46765 24.6014 9.30707C24.9693 9.2659 25.3366 9.21652 25.7032 9.15896C26.135 9.09155 26.4121 8.5168 26.2848 8.11642C26.1326 7.63775 25.7234 7.45209 25.2607 7.52434C25.1925 7.53522 25.1247 7.54531 25.0565 7.5554L25.0074 7.56267C24.8506 7.58286 24.6939 7.60168 24.5372 7.61918C24.2134 7.65469 23.8888 7.68375 23.5634 7.70637C22.8347 7.75802 22.104 7.78183 21.3737 7.78305C20.656 7.78305 19.938 7.76245 19.222 7.71443C18.8953 7.69264 18.5694 7.66492 18.2443 7.63128C18.0964 7.61554 17.9489 7.599 17.8014 7.58043L17.661 7.56227L17.6305 7.55784L17.485 7.53644C17.1877 7.49082 16.8903 7.43837 16.5961 7.37499C16.5664 7.36828 16.5399 7.35149 16.5208 7.32733C16.5018 7.30319 16.4914 7.27316 16.4914 7.24221C16.4914 7.21125 16.5018 7.18122 16.5208 7.15708C16.5399 7.13293 16.5664 7.11612 16.5961 7.10942H16.6017C16.8566 7.05412 17.1135 7.0069 17.3712 6.96573C17.4571 6.95201 17.5433 6.93856 17.6297 6.92537H17.6321C17.7935 6.91447 17.9556 6.88501 18.1162 6.86564C19.5133 6.71771 20.9186 6.66727 22.3224 6.71469C23.004 6.73487 23.6851 6.77563 24.3635 6.84586C24.5094 6.8612 24.6545 6.87734 24.7996 6.8955C24.8551 6.90237 24.911 6.91044 24.967 6.9173L25.0795 6.93385C25.4078 6.98363 25.7344 7.04403 26.0592 7.11507C26.5406 7.22162 27.1587 7.25633 27.3728 7.79313C27.441 7.96345 27.4719 8.15275 27.5095 8.33154L27.5575 8.55959C27.5588 8.56367 27.5597 8.56787 27.5603 8.57209C27.6737 9.11024 27.7872 9.64839 27.9009 10.1865C27.9092 10.2263 27.9094 10.2674 27.9014 10.3072C27.8935 10.3471 27.8776 10.3848 27.8547 10.4181C27.8317 10.4514 27.8023 10.4795 27.7683 10.5007C27.7342 10.5219 27.6962 10.5357 27.6566 10.5413H27.6535L27.5841 10.551L27.5155 10.5603C27.2982 10.5891 27.0807 10.616 26.8629 10.641C26.4339 10.6908 26.0043 10.7338 25.574 10.7702C24.7189 10.8425 23.8621 10.89 23.0036 10.9127C22.5661 10.9245 22.1288 10.93 21.6916 10.9292C19.9515 10.9278 18.2129 10.8248 16.4843 10.6208C16.2972 10.5982 16.11 10.574 15.9229 10.5494C16.068 10.5684 15.8174 10.5349 15.7667 10.5276C15.6477 10.5106 15.5288 10.493 15.4098 10.4747C15.0106 10.4138 14.6137 10.3387 14.2153 10.2729C13.7335 10.1922 13.2728 10.2326 12.8371 10.4747C12.4794 10.674 12.19 10.9795 12.0073 11.3506C11.8194 11.7461 11.7635 12.1767 11.6794 12.6018C11.5953 13.0268 11.4645 13.484 11.5141 13.9203C11.6207 14.862 12.2674 15.6272 13.1975 15.7984C14.0725 15.9598 14.9523 16.0906 15.8345 16.202C19.2998 16.634 22.8007 16.6857 26.2769 16.3561C26.56 16.3292 26.8427 16.2999 27.125 16.2682C27.2132 16.2583 27.3024 16.2686 27.3861 16.2984C27.4698 16.3282 27.546 16.3767 27.6089 16.4403C27.6719 16.5039 27.72 16.5811 27.7499 16.6661C27.7798 16.7511 27.7906 16.8419 27.7815 16.9317L27.6935 17.8027C27.5162 19.5627 27.3388 21.3226 27.1614 23.0823C26.9764 24.9303 26.7902 26.7782 26.6028 28.6258C26.5499 29.1463 26.4971 29.6666 26.4442 30.1866C26.3935 30.6989 26.3863 31.2272 26.2908 31.7334C26.1401 32.5293 25.6108 33.0181 24.8385 33.1969C24.1309 33.3608 23.4081 33.4469 22.6824 33.4535C21.878 33.4579 21.0739 33.4216 20.2695 33.426C19.4107 33.431 18.3589 33.3503 17.696 32.6996C17.1135 32.1282 17.033 31.2333 16.9537 30.4594C16.848 29.4351 16.7432 28.4109 16.6393 27.3868L16.0565 21.6923L15.6795 18.0077C15.6731 17.9468 15.6668 17.8866 15.6608 17.8253C15.6156 17.3858 15.3099 16.9555 14.8282 16.9777C14.4159 16.9963 13.9473 17.3531 13.9956 17.8253L14.2751 20.5569L14.8532 26.2075C15.0179 27.8125 15.1821 29.4177 15.346 31.0233C15.3778 31.3309 15.4075 31.6393 15.4408 31.9468C15.622 33.6275 16.8828 34.5332 18.4441 34.7882C19.356 34.9376 20.2901 34.9683 21.2155 34.9836C22.4017 35.003 23.5999 35.0495 24.7667 34.8306C26.4958 34.5076 27.793 33.3324 27.9782 31.5094C28.0311 30.983 28.0839 30.4566 28.1368 29.93C28.3125 28.1885 28.4881 26.447 28.6633 24.7052L29.2366 19.0143L29.4995 16.4062C29.5126 16.2769 29.5662 16.1553 29.6525 16.0594C29.7387 15.9635 29.853 15.8984 29.9784 15.8738C30.4728 15.7757 30.9454 15.6082 31.2971 15.2252C31.8569 14.6154 31.9683 13.8203 31.7705 13.0187ZM13.1721 13.5813C13.1797 13.5777 13.1658 13.6435 13.1598 13.6741C13.1587 13.6277 13.161 13.5866 13.1721 13.5813ZM13.2201 13.9591C13.2241 13.9563 13.236 13.9724 13.2483 13.9918C13.2296 13.974 13.2177 13.9607 13.2197 13.9591H13.2201ZM13.2673 14.0225C13.2843 14.0519 13.2935 14.0705 13.2673 14.0225V14.0225ZM13.362 14.1008H13.3644C13.3644 14.1036 13.3688 14.1064 13.3704 14.1092C13.3677 14.1061 13.3648 14.1033 13.3617 14.1008H13.362ZM29.9554 13.9837C29.7778 14.1556 29.5102 14.2356 29.2457 14.2755C26.2801 14.7235 23.2712 14.9504 20.273 14.8503C18.1273 14.7756 16.0042 14.533 13.8799 14.2275C13.6717 14.1976 13.4461 14.1589 13.303 14.0027C13.0334 13.708 13.1658 13.1147 13.236 12.7588C13.3002 12.4326 13.4231 11.998 13.8041 11.9515C14.3988 11.8805 15.0895 12.136 15.6779 12.2268C16.3862 12.3368 17.0973 12.425 17.8109 12.4912C20.8567 12.7737 23.9536 12.7297 26.9858 12.3164C27.5385 12.2408 28.0892 12.1529 28.6379 12.0528C29.1268 11.9636 29.6688 11.7962 29.9642 12.3116C30.1667 12.6627 30.1937 13.1325 30.1624 13.5293C30.1527 13.7021 30.0785 13.8647 29.955 13.9837H29.9554Z" fill="#E8E8E8"/>
</g>
<g filter="url(#filter1_d_28_2424)">
<path d="M42.9404 26.5007V14.1371H48.0959C49.0216 14.1371 49.7963 14.2679 50.4201 14.5295C51.048 14.7911 51.5188 15.1573 51.8328 15.6282C52.1507 16.0991 52.3097 16.6444 52.3097 17.2642C52.3097 17.7351 52.2111 18.1556 52.0139 18.5259C51.8167 18.8922 51.545 19.196 51.1989 19.4375C50.8528 19.679 50.4523 19.848 49.9975 19.9446V20.0653C50.4966 20.0895 50.9574 20.2243 51.38 20.4698C51.8066 20.7153 52.1487 21.0574 52.4063 21.4961C52.6638 21.9307 52.7926 22.4459 52.7926 23.0415C52.7926 23.7056 52.6236 24.2992 52.2855 24.8224C51.9475 25.3416 51.4585 25.7521 50.8186 26.054C50.1786 26.3518 49.4019 26.5007 48.4883 26.5007H42.9404ZM45.9286 24.092H47.7759C48.4239 24.092 48.9008 23.9692 49.2067 23.7237C49.5166 23.4782 49.6715 23.1361 49.6715 22.6974C49.6715 22.3795 49.5971 22.1058 49.4482 21.8764C49.2993 21.643 49.088 21.4639 48.8143 21.3391C48.5406 21.2103 48.2126 21.1459 47.8303 21.1459H45.9286V24.092ZM45.9286 19.2202H47.5828C47.9088 19.2202 48.1985 19.1658 48.4521 19.0572C48.7056 18.9485 48.9028 18.7915 49.0437 18.5863C49.1886 18.381 49.261 18.1335 49.261 17.8437C49.261 17.4292 49.1141 17.1032 48.8203 16.8658C48.5265 16.6283 48.1301 16.5096 47.6311 16.5096H45.9286V19.2202ZM60.212 22.4982V17.228H63.158V26.5007H60.3448V24.7741H60.2482C60.043 25.3416 59.6928 25.7924 59.1978 26.1264C58.7068 26.4564 58.1132 26.6214 57.4169 26.6214C56.7851 26.6214 56.2297 26.4765 55.7507 26.1868C55.2718 25.897 54.8995 25.4925 54.6339 24.9734C54.3683 24.4502 54.2334 23.8384 54.2294 23.1381V17.228H57.1815V22.5586C57.1855 23.0617 57.3183 23.4581 57.5799 23.7479C57.8415 24.0376 58.1977 24.1825 58.6485 24.1825C58.9423 24.1825 59.2059 24.1181 59.4393 23.9893C59.6767 23.8565 59.8639 23.6654 60.0007 23.4158C60.1416 23.1623 60.212 22.8564 60.212 22.4982ZM66.8421 29.978C66.4879 29.978 66.1539 29.9498 65.8399 29.8935C65.526 29.8411 65.2564 29.7707 65.031 29.6822L65.683 27.539C65.9728 27.6356 66.2344 27.692 66.4678 27.7081C66.7052 27.7242 66.9085 27.6859 67.0775 27.5934C67.2506 27.5048 67.3834 27.3459 67.476 27.1165L67.5907 26.8388L64.2945 17.228H67.3854L69.0939 23.8444H69.1904L70.923 17.228H74.0321L70.5367 27.3881C70.3676 27.8952 70.1282 28.342 69.8183 28.7283C69.5124 29.1187 69.116 29.4246 68.629 29.6459C68.1461 29.8673 67.5504 29.978 66.8421 29.978ZM78.8163 14.1371H82.517L85.6562 21.7919H85.8011L88.9403 14.1371H92.6409V26.5007H89.7311V18.9062H89.6285L86.6583 26.4222H84.7989L81.8288 18.864H81.7261V26.5007H78.8163V14.1371ZM98.8393 26.6758C97.8694 26.6758 97.0323 26.4846 96.328 26.1023C95.6277 25.7159 95.0884 25.1665 94.7101 24.4542C94.3358 23.7378 94.1486 22.8866 94.1486 21.9006C94.1486 20.9427 94.3378 20.1056 94.7161 19.3892C95.0944 18.6688 95.6277 18.1094 96.3159 17.7109C97.0041 17.3085 97.8151 17.1072 98.7488 17.1072C99.4088 17.1072 100.012 17.2099 100.56 17.4151C101.107 17.6204 101.58 17.9242 101.979 18.3267C102.377 18.7292 102.687 19.2262 102.908 19.8178C103.13 20.4054 103.24 21.0795 103.24 21.8402V22.5767H95.1809V20.8622H100.493C100.489 20.5483 100.415 20.2686 100.27 20.0231C100.125 19.7776 99.926 19.5864 99.6724 19.4496C99.4229 19.3087 99.1351 19.2383 98.8091 19.2383C98.4791 19.2383 98.1833 19.3127 97.9217 19.4616C97.6601 19.6065 97.4528 19.8057 97.2999 20.0593C97.147 20.3088 97.0665 20.5926 97.0584 20.9105V22.6552C97.0584 23.0335 97.1329 23.3655 97.2818 23.6513C97.4307 23.933 97.642 24.1523 97.9157 24.3093C98.1893 24.4663 98.5153 24.5447 98.8936 24.5447C99.1552 24.5447 99.3927 24.5085 99.606 24.4361C99.8193 24.3636 100.002 24.257 100.155 24.1161C100.308 23.9752 100.423 23.8022 100.499 23.5969L103.21 23.6754C103.097 24.2831 102.85 24.8124 102.468 25.2631C102.089 25.7099 101.592 26.058 100.976 26.3075C100.361 26.553 99.6483 26.6758 98.8393 26.6758ZM111.014 26.6577C110.423 26.6577 109.897 26.5591 109.439 26.3618C108.984 26.1606 108.624 25.8588 108.358 25.4563C108.096 25.0498 107.966 24.5407 107.966 23.929C107.966 23.4138 108.056 22.9792 108.237 22.625C108.418 22.2708 108.668 21.9831 108.986 21.7617C109.304 21.5404 109.67 21.3733 110.085 21.2606C110.499 21.1439 110.942 21.0654 111.413 21.0252C111.94 20.9769 112.365 20.9266 112.687 20.8743C113.008 20.8179 113.242 20.7395 113.387 20.6388C113.536 20.5342 113.61 20.3873 113.61 20.1981V20.168C113.61 19.8581 113.504 19.6186 113.29 19.4496C113.077 19.2805 112.789 19.196 112.427 19.196C112.037 19.196 111.723 19.2805 111.485 19.4496C111.248 19.6186 111.097 19.852 111.032 20.1498L108.31 20.0533C108.39 19.4898 108.598 18.9867 108.932 18.544C109.27 18.0973 109.732 17.7471 110.32 17.4936C110.912 17.236 111.622 17.1072 112.451 17.1072C113.043 17.1072 113.588 17.1777 114.087 17.3185C114.586 17.4554 115.021 17.6566 115.391 17.9222C115.761 18.1838 116.047 18.5058 116.248 18.8881C116.454 19.2705 116.556 19.7071 116.556 20.1981V26.5007H113.779V25.2088H113.707C113.542 25.5227 113.33 25.7883 113.073 26.0057C112.819 26.223 112.52 26.386 112.173 26.4947C111.831 26.6033 111.445 26.6577 111.014 26.6577ZM111.926 24.7258C112.244 24.7258 112.53 24.6614 112.783 24.5327C113.041 24.4039 113.246 24.2268 113.399 24.0014C113.552 23.772 113.628 23.5064 113.628 23.2045V22.3231C113.544 22.3674 113.441 22.4077 113.32 22.4439C113.204 22.4801 113.075 22.5143 112.934 22.5465C112.793 22.5787 112.648 22.6069 112.499 22.631C112.35 22.6552 112.208 22.6773 112.071 22.6974C111.793 22.7417 111.556 22.8101 111.358 22.9027C111.165 22.9953 111.016 23.116 110.912 23.2649C110.811 23.4098 110.761 23.5828 110.761 23.7841C110.761 24.0899 110.869 24.3234 111.087 24.4844C111.308 24.6453 111.588 24.7258 111.926 24.7258ZM133.236 18.6165H130.218C130.178 18.3066 130.095 18.0269 129.97 17.7773C129.845 17.5278 129.68 17.3145 129.475 17.1374C129.27 16.9603 129.026 16.8255 128.745 16.7329C128.467 16.6364 128.159 16.5881 127.821 16.5881C127.221 16.5881 126.704 16.735 126.27 17.0288C125.839 17.3226 125.507 17.7471 125.274 18.3025C125.044 18.8579 124.929 19.5301 124.929 20.3189C124.929 21.1399 125.046 21.8281 125.28 22.3835C125.517 22.9349 125.849 23.3514 126.276 23.6332C126.706 23.9109 127.215 24.0497 127.803 24.0497C128.133 24.0497 128.433 24.0074 128.703 23.9229C128.976 23.8384 129.216 23.7157 129.421 23.5547C129.63 23.3897 129.801 23.1904 129.934 22.957C130.071 22.7196 130.165 22.4519 130.218 22.1541L133.236 22.1722C133.184 22.7196 133.025 23.2589 132.759 23.7901C132.498 24.3214 132.138 24.8063 131.679 25.245C131.22 25.6797 130.66 26.0258 130 26.2834C129.344 26.5409 128.592 26.6697 127.743 26.6697C126.624 26.6697 125.622 26.4242 124.736 25.9332C123.855 25.4382 123.159 24.7178 122.647 23.772C122.136 22.8262 121.881 21.6752 121.881 20.3189C121.881 18.9586 122.14 17.8055 122.66 16.8597C123.179 15.9139 123.881 15.1955 124.766 14.7045C125.652 14.2135 126.644 13.968 127.743 13.968C128.491 13.968 129.183 14.0727 129.819 14.282C130.455 14.4872 131.015 14.7891 131.498 15.1875C131.981 15.5819 132.373 16.0669 132.675 16.6424C132.977 17.2179 133.164 17.8759 133.236 18.6165ZM139.275 26.6758C138.301 26.6758 137.464 26.4765 136.763 26.0781C136.067 25.6756 135.53 25.1162 135.151 24.3998C134.777 23.6794 134.59 22.8443 134.59 21.8945C134.59 20.9407 134.777 20.1056 135.151 19.3892C135.53 18.6688 136.067 18.1094 136.763 17.7109C137.464 17.3085 138.301 17.1072 139.275 17.1072C140.249 17.1072 141.084 17.3085 141.78 17.7109C142.48 18.1094 143.018 18.6688 143.392 19.3892C143.77 20.1056 143.959 20.9407 143.959 21.8945C143.959 22.8443 143.77 23.6794 143.392 24.3998C143.018 25.1162 142.48 25.6756 141.78 26.0781C141.084 26.4765 140.249 26.6758 139.275 26.6758ZM139.293 24.4481C139.647 24.4481 139.947 24.3395 140.192 24.1221C140.438 23.9048 140.625 23.603 140.754 23.2166C140.887 22.8302 140.953 22.3835 140.953 21.8764C140.953 21.3613 140.887 20.9105 140.754 20.5241C140.625 20.1378 140.438 19.8359 140.192 19.6186C139.947 19.4013 139.647 19.2926 139.293 19.2926C138.927 19.2926 138.617 19.4013 138.363 19.6186C138.114 19.8359 137.922 20.1378 137.79 20.5241C137.661 20.9105 137.596 21.3613 137.596 21.8764C137.596 22.3835 137.661 22.8302 137.79 23.2166C137.922 23.603 138.114 23.9048 138.363 24.1221C138.617 24.3395 138.927 24.4481 139.293 24.4481ZM150.742 17.228V19.4013H144.777V17.228H150.742ZM146.021 26.5007V16.7571C146.021 16.0407 146.156 15.4471 146.425 14.9762C146.695 14.5013 147.069 14.1471 147.548 13.9137C148.027 13.6762 148.581 13.5575 149.208 13.5575C149.619 13.5575 150.005 13.5897 150.368 13.6541C150.734 13.7145 151.005 13.7688 151.183 13.8171L150.712 15.9783C150.603 15.9421 150.47 15.9119 150.313 15.8878C150.16 15.8636 150.015 15.8516 149.879 15.8516C149.532 15.8516 149.295 15.928 149.166 16.081C149.037 16.2339 148.973 16.4432 148.973 16.7088V26.5007H146.021ZM157.432 17.228V19.4013H151.468V17.228H157.432ZM152.711 26.5007V16.7571C152.711 16.0407 152.846 15.4471 153.116 14.9762C153.385 14.5013 153.76 14.1471 154.239 13.9137C154.718 13.6762 155.271 13.5575 155.899 13.5575C156.309 13.5575 156.696 13.5897 157.058 13.6541C157.424 13.7145 157.696 13.7688 157.873 13.8171L157.402 15.9783C157.293 15.9421 157.161 15.9119 157.004 15.8878C156.851 15.8636 156.706 15.8516 156.569 15.8516C156.223 15.8516 155.985 15.928 155.857 16.081C155.728 16.2339 155.663 16.4432 155.663 16.7088V26.5007H152.711ZM162.888 26.6758C161.918 26.6758 161.081 26.4846 160.377 26.1023C159.676 25.7159 159.137 25.1665 158.759 24.4542C158.385 23.7378 158.197 22.8866 158.197 21.9006C158.197 20.9427 158.387 20.1056 158.765 19.3892C159.143 18.6688 159.676 18.1094 160.365 17.7109C161.053 17.3085 161.864 17.1072 162.798 17.1072C163.458 17.1072 164.061 17.2099 164.609 17.4151C165.156 17.6204 165.629 17.9242 166.027 18.3267C166.426 18.7292 166.736 19.2262 166.957 19.8178C167.178 20.4054 167.289 21.0795 167.289 21.8402V22.5767H159.23V20.8622H164.542C164.538 20.5483 164.464 20.2686 164.319 20.0231C164.174 19.7776 163.975 19.5864 163.721 19.4496C163.472 19.3087 163.184 19.2383 162.858 19.2383C162.528 19.2383 162.232 19.3127 161.971 19.4616C161.709 19.6065 161.502 19.8057 161.349 20.0593C161.196 20.3088 161.115 20.5926 161.107 20.9105V22.6552C161.107 23.0335 161.182 23.3655 161.331 23.6513C161.48 23.933 161.691 24.1523 161.964 24.3093C162.238 24.4663 162.564 24.5447 162.942 24.5447C163.204 24.5447 163.442 24.5085 163.655 24.4361C163.868 24.3636 164.051 24.257 164.204 24.1161C164.357 23.9752 164.472 23.8022 164.548 23.5969L167.259 23.6754C167.146 24.2831 166.899 24.8124 166.516 25.2631C166.138 25.7099 165.641 26.058 165.025 26.3075C164.409 26.553 163.697 26.6758 162.888 26.6758ZM173.131 26.6758C172.161 26.6758 171.324 26.4846 170.62 26.1023C169.92 25.7159 169.38 25.1665 169.002 24.4542C168.628 23.7378 168.441 22.8866 168.441 21.9006C168.441 20.9427 168.63 20.1056 169.008 19.3892C169.386 18.6688 169.92 18.1094 170.608 17.7109C171.296 17.3085 172.107 17.1072 173.041 17.1072C173.701 17.1072 174.304 17.2099 174.852 17.4151C175.399 17.6204 175.872 17.9242 176.27 18.3267C176.669 18.7292 176.979 19.2262 177.2 19.8178C177.422 20.4054 177.532 21.0795 177.532 21.8402V22.5767H169.473V20.8622H174.785C174.781 20.5483 174.707 20.2686 174.562 20.0231C174.417 19.7776 174.218 19.5864 173.964 19.4496C173.715 19.3087 173.427 19.2383 173.101 19.2383C172.771 19.2383 172.475 19.3127 172.214 19.4616C171.952 19.6065 171.745 19.8057 171.592 20.0593C171.439 20.3088 171.358 20.5926 171.35 20.9105V22.6552C171.35 23.0335 171.425 23.3655 171.574 23.6513C171.723 23.933 171.934 24.1523 172.208 24.3093C172.481 24.4663 172.807 24.5447 173.186 24.5447C173.447 24.5447 173.685 24.5085 173.898 24.4361C174.111 24.3636 174.294 24.257 174.447 24.1161C174.6 23.9752 174.715 23.8022 174.791 23.5969L177.502 23.6754C177.389 24.2831 177.142 24.8124 176.759 25.2631C176.381 25.7099 175.884 26.058 175.268 26.3075C174.653 26.553 173.94 26.6758 173.131 26.6758Z" fill="#FFDD00"/>
</g>
</g>
<rect x="1.0746" y="1.07143" width="184.858" height="37.8585" rx="6.92857" stroke="white" stroke-opacity="0.15" stroke-width="2.14286"/>
<defs>
<filter id="filter0_d_28_2424" x="2.40289" y="-0.600332" width="39.202" height="41.2021" filterUnits="userSpaceOnUse" color-interpolation-filters="sRGB">
<feFlood flood-opacity="0" result="BackgroundImageFix"/>
<feColorMatrix in="SourceAlpha" type="matrix" values="0 0 0 0 0 0 0 0 0 0 0 0 0 0 0 0 0 0 127 0" result="hardAlpha"/>
<feOffset/>
<feGaussianBlur stdDeviation="2.80014"/>
<feComposite in2="hardAlpha" operator="out"/>
<feColorMatrix type="matrix" values="0 0 0 0 0 0 0 0 0 0 0 0 0 0 0 0 0 0 0.25 0"/>
<feBlend mode="normal" in2="BackgroundImageFix" result="effect1_dropShadow_28_2424"/>
<feBlend mode="normal" in="SourceGraphic" in2="effect1_dropShadow_28_2424" result="shape"/>
</filter>
<filter id="filter1_d_28_2424" x="36.2904" y="3.78642" width="148.429" height="32.4286" filterUnits="userSpaceOnUse" color-interpolation-filters="sRGB">
<feFlood flood-opacity="0" result="BackgroundImageFix"/>
<feColorMatrix in="SourceAlpha" type="matrix" values="0 0 0 0 0 0 0 0 0 0 0 0 0 0 0 0 0 0 127 0" result="hardAlpha"/>
<feOffset/>
<feGaussianBlur stdDeviation="2.85714"/>
<feComposite in2="hardAlpha" operator="out"/>
<feColorMatrix type="matrix" values="0 0 0 0 0 0 0 0 0 0 0 0 0 0 0 0 0 0 0.25 0"/>
<feBlend mode="normal" in2="BackgroundImageFix" result="effect1_dropShadow_28_2424"/>
<feBlend mode="normal" in="SourceGraphic" in2="effect1_dropShadow_28_2424" result="shape"/>
</filter>
<linearGradient id="paint0_linear_28_2424" x1="93.5038" y1="0" x2="93.5038" y2="40.0014" gradientUnits="userSpaceOnUse">
<stop stop-color="#372E00"/>
<stop offset="1" stop-color="#1E1900"/>
</linearGradient>
<clipPath id="clip0_28_2424">
<rect x="0.00317383" width="187.001" height="40.0014" rx="8" fill="white"/>
</clipPath>
</defs>
</svg>
