<svg width="186" height="41" viewBox="0 0 186 41" fill="none" xmlns="http://www.w3.org/2000/svg">
<g clip-path="url(#clip0_28_2444)">
<rect x="0.00317383" y="0.00139618" width="185.001" height="40.0014" rx="8" fill="url(#paint0_linear_28_2444)"/>
<g filter="url(#filter0_d_28_2444)">
<path d="M29.7329 11.9802L29.7124 11.9681L29.665 11.9536C29.6841 11.9698 29.7079 11.9791 29.7329 11.9802Z" fill="#0D0C22"/>
<path d="M30.0262 14.1236L30.0044 14.1285L30.0262 14.1236Z" fill="#0D0C22"/>
<path d="M29.7407 11.9764C29.7379 11.9761 29.7352 11.9756 29.7325 11.9749C29.7324 11.9763 29.7324 11.9778 29.7325 11.9792C29.7355 11.9789 29.7383 11.9779 29.7407 11.9764Z" fill="#0D0C22"/>
<path d="M29.7324 11.9804H29.7341V11.9786L29.7324 11.9804Z" fill="#0D0C22"/>
<path d="M30.0085 14.1197L30.0431 14.0999L30.0559 14.0926L30.0676 14.0801C30.0457 14.0896 30.0257 14.103 30.0085 14.1197Z" fill="#0D0C22"/>
<path d="M29.792 12.0271L29.7582 11.9948L29.7354 11.9823C29.7476 12.0041 29.768 12.0202 29.792 12.0271Z" fill="#0D0C22"/>
<path d="M21.4127 32.8255C21.3857 32.8372 21.3621 32.8555 21.344 32.8788L21.3653 32.8652C21.3797 32.8518 21.4002 32.8361 21.4127 32.8255Z" fill="#0D0C22"/>
<path d="M26.2779 31.8509C26.2779 31.8204 26.2631 31.826 26.2667 31.9348C26.2667 31.9262 26.2703 31.9173 26.2719 31.9088C26.2739 31.8893 26.2755 31.8703 26.2779 31.8509Z" fill="#0D0C22"/>
<path d="M25.774 32.8255C25.747 32.8372 25.7234 32.8555 25.7053 32.8788L25.7266 32.8652C25.741 32.8518 25.7615 32.8361 25.774 32.8255Z" fill="#0D0C22"/>
<path d="M17.9856 33.0573C17.9651 33.0394 17.9401 33.0277 17.9133 33.0233C17.935 33.0338 17.9567 33.0444 17.9711 33.0523L17.9856 33.0573Z" fill="#0D0C22"/>
<path d="M17.2143 32.3055C17.2111 32.2738 17.2014 32.2431 17.1858 32.2152C17.1969 32.244 17.2061 32.2738 17.2135 32.3038L17.2143 32.3055Z" fill="#0D0C22"/>
<path d="M22.3937 18.8606C21.3351 19.3219 20.1338 19.845 18.5768 19.845C17.9255 19.8436 17.2773 19.7527 16.6499 19.5745L17.7267 30.8293C17.7649 31.2996 17.9754 31.7383 18.3165 32.058C18.6576 32.3777 19.1043 32.5551 19.568 32.5551C19.568 32.5551 21.0948 32.6357 21.6043 32.6357C22.1526 32.6357 23.7968 32.5551 23.7968 32.5551C24.2604 32.5551 24.707 32.3775 25.0481 32.0578C25.3891 31.738 25.5995 31.2996 25.6377 30.8293L26.791 18.3924C26.2756 18.2132 25.7554 18.0941 25.169 18.0941C24.1548 18.0937 23.3377 18.4493 22.3937 18.8606Z" fill="#FFDD00"/>
<path d="M13.3162 14.0588L13.335 14.0765L13.3473 14.084C13.3378 14.0745 13.3274 14.0661 13.3162 14.0588Z" fill="#0D0C22"/>
<path d="M31.7705 13.0201L31.6083 12.1874C31.4628 11.4404 31.1326 10.7344 30.3793 10.4644C30.1378 10.378 29.8638 10.3409 29.6787 10.1621C29.4935 9.98333 29.4388 9.70564 29.396 9.44813C29.3167 8.9755 29.2422 8.50247 29.1609 8.03065C29.0907 7.62501 29.0352 7.16934 28.8524 6.79722C28.6145 6.29754 28.1209 6.00533 27.6301 5.812C27.3786 5.71642 27.1219 5.63557 26.8613 5.56983C25.635 5.24049 24.3457 5.1194 23.0841 5.05039C21.5698 4.96533 20.0515 4.99095 18.5408 5.12707C17.4164 5.2312 16.2321 5.35713 15.1636 5.75307C14.7731 5.89797 14.3707 6.07192 14.0737 6.37907C13.7094 6.75645 13.5904 7.34007 13.8564 7.81067C14.0456 8.14486 14.3659 8.38098 14.7057 8.53718C15.1483 8.73844 15.6105 8.89159 16.0847 8.99408C17.4049 9.29114 18.7724 9.40776 20.1212 9.45742C21.6162 9.51883 23.1135 9.46906 24.6014 9.30847C24.9693 9.2673 25.3366 9.21793 25.7032 9.16036C26.135 9.09295 26.4121 8.51821 26.2848 8.11782C26.1326 7.63916 25.7234 7.45349 25.2607 7.52574C25.1925 7.53663 25.1247 7.54671 25.0565 7.5568L25.0074 7.56407C24.8506 7.58427 24.6939 7.60308 24.5372 7.62058C24.2134 7.65609 23.8888 7.68515 23.5634 7.70777C22.8347 7.75942 22.104 7.78323 21.3737 7.78445C20.656 7.78445 19.938 7.76385 19.222 7.71584C18.8953 7.69405 18.5694 7.66632 18.2443 7.63268C18.0964 7.61694 17.9489 7.6004 17.8014 7.58183L17.661 7.56367L17.6305 7.55924L17.485 7.53785C17.1877 7.49222 16.8903 7.43977 16.5961 7.37639C16.5664 7.36968 16.5399 7.35289 16.5208 7.32873C16.5018 7.30459 16.4914 7.27456 16.4914 7.24361C16.4914 7.21265 16.5018 7.18262 16.5208 7.15848C16.5399 7.13434 16.5664 7.11752 16.5961 7.11082H16.6017C16.8566 7.05553 17.1135 7.0083 17.3712 6.96713C17.4571 6.95341 17.5433 6.93996 17.6297 6.92677H17.6321C17.7935 6.91587 17.9556 6.88641 18.1162 6.86704C19.5133 6.71911 20.9186 6.66867 22.3224 6.71609C23.004 6.73627 23.6851 6.77703 24.3635 6.84726C24.5094 6.8626 24.6545 6.87874 24.7996 6.8969C24.8551 6.90377 24.911 6.91184 24.967 6.9187L25.0795 6.93525C25.4078 6.98503 25.7344 7.04543 26.0592 7.11647C26.5406 7.22302 27.1587 7.25773 27.3728 7.79453C27.441 7.96486 27.4719 8.15415 27.5095 8.33294L27.5575 8.56099C27.5588 8.56507 27.5597 8.56927 27.5603 8.57349C27.6737 9.11164 27.7872 9.64979 27.9009 10.1879C27.9092 10.2277 27.9094 10.2688 27.9014 10.3086C27.8935 10.3485 27.8776 10.3862 27.8546 10.4195C27.8317 10.4528 27.8023 10.4809 27.7683 10.5021C27.7342 10.5233 27.6962 10.5371 27.6566 10.5427H27.6535L27.5841 10.5524L27.5155 10.5617C27.2982 10.5905 27.0807 10.6174 26.8629 10.6424C26.4339 10.6922 26.0043 10.7352 25.574 10.7716C24.7189 10.8439 23.8621 10.8914 23.0036 10.9141C22.5661 10.9259 22.1288 10.9314 21.6916 10.9306C19.9515 10.9292 18.2129 10.8262 16.4843 10.6222C16.2972 10.5996 16.11 10.5754 15.9229 10.5508C16.068 10.5698 15.8174 10.5363 15.7667 10.529C15.6477 10.512 15.5288 10.4944 15.4098 10.4761C15.0106 10.4152 14.6137 10.3401 14.2153 10.2743C13.7335 10.1936 13.2728 10.234 12.8371 10.4761C12.4794 10.6754 12.19 10.9809 12.0073 11.352C11.8194 11.7475 11.7635 12.1781 11.6794 12.6032C11.5953 13.0282 11.4645 13.4855 11.5141 13.9218C11.6207 14.8634 12.2674 15.6286 13.1975 15.7998C14.0725 15.9612 14.9523 16.092 15.8345 16.2034C19.2998 16.6354 22.8007 16.6871 26.2769 16.3575C26.56 16.3306 26.8427 16.3013 27.125 16.2696C27.2131 16.2597 27.3024 16.27 27.3861 16.2998C27.4698 16.3296 27.546 16.3781 27.6089 16.4417C27.6719 16.5053 27.72 16.5825 27.7499 16.6675C27.7798 16.7525 27.7906 16.8433 27.7815 16.9331L27.6935 17.8041C27.5162 19.5641 27.3388 21.324 27.1614 23.0837C26.9764 24.9317 26.7902 26.7796 26.6028 28.6272C26.5499 29.1477 26.4971 29.668 26.4442 30.188C26.3935 30.7003 26.3863 31.2286 26.2908 31.7348C26.1401 32.5307 25.6108 33.0195 24.8385 33.1983C24.1309 33.3622 23.4081 33.4483 22.6824 33.4549C21.878 33.4593 21.0739 33.423 20.2695 33.4274C19.4107 33.4324 18.3589 33.3517 17.696 32.701C17.1135 32.1296 17.033 31.2347 16.9537 30.4608C16.848 29.4365 16.7432 28.4123 16.6393 27.3882L16.0565 21.6937L15.6795 18.0091C15.6731 17.9482 15.6668 17.888 15.6608 17.8267C15.6156 17.3872 15.3099 16.9569 14.8282 16.9791C14.4159 16.9977 13.9473 17.3545 13.9956 17.8267L14.2751 20.5583L14.8532 26.2089C15.0179 27.8139 15.1821 29.4191 15.346 31.0247C15.3778 31.3323 15.4075 31.6407 15.4408 31.9482C15.622 33.6289 16.8828 34.5346 18.4441 34.7896C19.356 34.939 20.2901 34.9697 21.2155 34.985C22.4017 35.0044 23.5999 35.0509 24.7667 34.832C26.4958 34.509 27.793 33.3338 27.9782 31.5108C28.0311 30.9844 28.0839 30.458 28.1368 29.9314C28.3125 28.1899 28.4881 26.4484 28.6633 24.7066L29.2366 19.0157L29.4995 16.4076C29.5126 16.2783 29.5662 16.1567 29.6525 16.0608C29.7387 15.9649 29.853 15.8999 29.9784 15.8752C30.4728 15.7771 30.9454 15.6096 31.2971 15.2266C31.8569 14.6168 31.9683 13.8217 31.7705 13.0201ZM13.1721 13.5827C13.1797 13.5791 13.1658 13.6449 13.1598 13.6755C13.1587 13.6291 13.161 13.588 13.1721 13.5827ZM13.2201 13.9605C13.2241 13.9577 13.236 13.9738 13.2483 13.9932C13.2296 13.9754 13.2177 13.9621 13.2197 13.9605H13.2201ZM13.2673 14.0239C13.2843 14.0533 13.2935 14.0719 13.2673 14.0239V14.0239ZM13.362 14.1022H13.3644C13.3644 14.105 13.3688 14.1078 13.3704 14.1106C13.3677 14.1075 13.3648 14.1047 13.3617 14.1022H13.362ZM29.9554 13.9851C29.7778 14.157 29.5102 14.237 29.2457 14.2769C26.2801 14.7249 23.2712 14.9518 20.273 14.8517C18.1273 14.777 16.0042 14.5344 13.8799 14.2289C13.6717 14.199 13.4461 14.1603 13.303 14.0041C13.0334 13.7094 13.1658 13.1161 13.236 12.7602C13.3002 12.434 13.4231 11.9994 13.8041 11.9529C14.3988 11.8819 15.0895 12.1374 15.6779 12.2282C16.3862 12.3382 17.0973 12.4264 17.8109 12.4926C20.8567 12.7751 23.9536 12.7311 26.9858 12.3178C27.5385 12.2422 28.0892 12.1543 28.6379 12.0542C29.1268 11.965 29.6688 11.7976 29.9642 12.313C30.1667 12.6641 30.1937 13.1339 30.1624 13.5307C30.1527 13.7035 30.0785 13.8661 29.955 13.9851H29.9554Z" fill="#E8E8E8"/>
</g>
<g filter="url(#filter1_d_28_2444)">
<path d="M44.9404 26.5021V14.1385H50.0959C51.0216 14.1385 51.7963 14.2693 52.4201 14.5309C53.048 14.7925 53.5188 15.1587 53.8328 15.6296C54.1507 16.1005 54.3097 16.6458 54.3097 17.2656C54.3097 17.7365 54.2111 18.157 54.0139 18.5273C53.8167 18.8935 53.545 19.1974 53.1989 19.4389C52.8528 19.6804 52.4523 19.8494 51.9975 19.946V20.0667C52.4966 20.0909 52.9574 20.2257 53.38 20.4712C53.8066 20.7167 54.1487 21.0588 54.4063 21.4975C54.6638 21.9321 54.7926 22.4473 54.7926 23.0429C54.7926 23.707 54.6236 24.3006 54.2855 24.8238C53.9475 25.343 53.4585 25.7535 52.8186 26.0554C52.1786 26.3532 51.4019 26.5021 50.4883 26.5021H44.9404ZM47.9286 24.0934H49.7759C50.4239 24.0934 50.9008 23.9706 51.2067 23.7251C51.5166 23.4796 51.6715 23.1375 51.6715 22.6988C51.6715 22.3809 51.5971 22.1072 51.4482 21.8778C51.2993 21.6444 51.088 21.4653 50.8143 21.3405C50.5406 21.2117 50.2126 21.1473 49.8303 21.1473H47.9286V24.0934ZM47.9286 19.2216H49.5828C49.9088 19.2216 50.1985 19.1672 50.4521 19.0586C50.7056 18.9499 50.9028 18.7929 51.0437 18.5877C51.1886 18.3824 51.261 18.1349 51.261 17.8451C51.261 17.4306 51.1141 17.1046 50.8203 16.8672C50.5265 16.6297 50.1301 16.511 49.6311 16.511H47.9286V19.2216ZM62.212 22.4996V17.2294H65.158V26.5021H62.3448V24.7755H62.2482C62.043 25.343 61.6928 25.7938 61.1978 26.1278C60.7068 26.4578 60.1132 26.6228 59.4169 26.6228C58.7851 26.6228 58.2297 26.4779 57.7507 26.1882C57.2718 25.8984 56.8995 25.4939 56.6339 24.9747C56.3683 24.4515 56.2334 23.8398 56.2294 23.1395V17.2294H59.1815V22.56C59.1855 23.0631 59.3183 23.4595 59.5799 23.7493C59.8415 24.039 60.1977 24.1839 60.6485 24.1839C60.9423 24.1839 61.2059 24.1195 61.4393 23.9907C61.6767 23.8579 61.8639 23.6667 62.0007 23.4172C62.1416 23.1637 62.212 22.8578 62.212 22.4996ZM68.8421 29.9794C68.4879 29.9794 68.1539 29.9512 67.8399 29.8948C67.526 29.8425 67.2564 29.7721 67.031 29.6836L67.683 27.5404C67.9728 27.637 68.2344 27.6934 68.4678 27.7095C68.7052 27.7256 68.9085 27.6873 69.0775 27.5948C69.2506 27.5062 69.3834 27.3473 69.476 27.1179L69.5907 26.8402L66.2945 17.2294H69.3854L71.0939 23.8458H71.1904L72.923 17.2294H76.0321L72.5367 27.3895C72.3676 27.8966 72.1282 28.3434 71.8183 28.7297C71.5124 29.1201 71.116 29.426 70.629 29.6473C70.1461 29.8687 69.5504 29.9794 68.8421 29.9794ZM88.2961 14.1385H91.2783V22.1132C91.2783 23.0349 91.059 23.8378 90.6203 24.522C90.1816 25.2021 89.5699 25.7294 88.7851 26.1037C88.0003 26.4739 87.0887 26.6591 86.0503 26.6591C84.9999 26.6591 84.0823 26.4739 83.2975 26.1037C82.5127 25.7294 81.903 25.2021 81.4683 24.522C81.0337 23.8378 80.8163 23.0349 80.8163 22.1132V14.1385H83.8046V21.8537C83.8046 22.2803 83.8972 22.6606 84.0823 22.9946C84.2715 23.3287 84.5351 23.5903 84.8731 23.7794C85.2112 23.9686 85.6036 24.0632 86.0503 24.0632C86.4971 24.0632 86.8875 23.9686 87.2215 23.7794C87.5596 23.5903 87.8232 23.3287 88.0123 22.9946C88.2015 22.6606 88.2961 22.2803 88.2961 21.8537V14.1385ZM101.247 20.0607L98.5362 20.1331C98.5081 19.9399 98.4316 19.7689 98.3068 19.62C98.1821 19.4671 98.0191 19.3483 97.8178 19.2638C97.6206 19.1753 97.3912 19.131 97.1296 19.131C96.7875 19.131 96.4957 19.1994 96.2543 19.3363C96.0168 19.4731 95.9001 19.6582 95.9041 19.8917C95.9001 20.0728 95.9725 20.2297 96.1215 20.3625C96.2744 20.4953 96.5461 20.602 96.9364 20.6825L98.7234 21.0206C99.649 21.1976 100.337 21.4914 100.788 21.902C101.243 22.3125 101.472 22.8558 101.476 23.5319C101.472 24.1678 101.283 24.7212 100.909 25.1921C100.538 25.663 100.031 26.0292 99.3874 26.2908C98.7435 26.5484 98.007 26.6772 97.1779 26.6772C95.8538 26.6772 94.8094 26.4055 94.0448 25.8622C93.2841 25.3148 92.8494 24.5823 92.7408 23.6647L95.6566 23.5923C95.721 23.9304 95.888 24.1879 96.1577 24.365C96.4273 24.5421 96.7714 24.6306 97.19 24.6306C97.5683 24.6306 97.8762 24.5602 98.1136 24.4194C98.3511 24.2785 98.4718 24.0913 98.4759 23.8579C98.4718 23.6486 98.3793 23.4816 98.1982 23.3569C98.0171 23.2281 97.7333 23.1274 97.347 23.055L95.7291 22.7471C94.7994 22.5781 94.1071 22.2662 93.6524 21.8114C93.1976 21.3526 92.9722 20.769 92.9762 20.0607C92.9722 19.4409 93.1372 18.9117 93.4712 18.473C93.8053 18.0303 94.2802 17.6922 94.896 17.4588C95.5117 17.2253 96.2382 17.1086 97.0753 17.1086C98.331 17.1086 99.321 17.3722 100.045 17.8995C100.77 18.4227 101.17 19.1431 101.247 20.0607ZM109.196 26.6591C108.604 26.6591 108.079 26.5605 107.62 26.3632C107.166 26.162 106.805 25.8602 106.54 25.4577C106.278 25.0512 106.147 24.5421 106.147 23.9304C106.147 23.4152 106.238 22.9806 106.419 22.6264C106.6 22.2722 106.85 21.9845 107.168 21.7631C107.485 21.5417 107.852 21.3747 108.266 21.262C108.681 21.1453 109.123 21.0668 109.594 21.0266C110.122 20.9783 110.546 20.928 110.868 20.8757C111.19 20.8193 111.424 20.7408 111.568 20.6402C111.717 20.5356 111.792 20.3887 111.792 20.1995V20.1694C111.792 19.8595 111.685 19.62 111.472 19.451C111.259 19.2819 110.971 19.1974 110.609 19.1974C110.218 19.1974 109.904 19.2819 109.667 19.451C109.429 19.62 109.278 19.8534 109.214 20.1512L106.491 20.0547C106.572 19.4912 106.779 18.9881 107.113 18.5454C107.451 18.0987 107.914 17.7485 108.502 17.495C109.093 17.2374 109.804 17.1086 110.633 17.1086C111.224 17.1086 111.77 17.1791 112.269 17.3199C112.768 17.4568 113.202 17.658 113.573 17.9236C113.943 18.1852 114.229 18.5072 114.43 18.8895C114.635 19.2719 114.738 19.7085 114.738 20.1995V26.5021H111.961V25.2102H111.888C111.723 25.5241 111.512 25.7897 111.255 26.0071C111.001 26.2244 110.701 26.3874 110.355 26.4961C110.013 26.6047 109.627 26.6591 109.196 26.6591ZM110.108 24.7272C110.425 24.7272 110.711 24.6628 110.965 24.5341C111.222 24.4053 111.428 24.2282 111.581 24.0028C111.733 23.7734 111.81 23.5078 111.81 23.2059V22.3245C111.725 22.3688 111.623 22.4091 111.502 22.4453C111.385 22.4815 111.257 22.5157 111.116 22.5479C110.975 22.5801 110.83 22.6083 110.681 22.6324C110.532 22.6566 110.389 22.6787 110.252 22.6988C109.975 22.7431 109.737 22.8115 109.54 22.9041C109.347 22.9966 109.198 23.1174 109.093 23.2663C108.993 23.4112 108.942 23.5842 108.942 23.7855C108.942 24.0913 109.051 24.3248 109.268 24.4858C109.49 24.6467 109.769 24.7272 110.108 24.7272ZM131.418 18.6179H128.399C128.359 18.308 128.277 18.0283 128.152 17.7787C128.027 17.5292 127.862 17.3159 127.657 17.1388C127.452 16.9617 127.208 16.8269 126.926 16.7343C126.649 16.6377 126.341 16.5895 126.003 16.5895C125.403 16.5895 124.886 16.7364 124.451 17.0301C124.021 17.3239 123.689 17.7485 123.455 18.3039C123.226 18.8593 123.111 19.5315 123.111 20.3203C123.111 21.1413 123.228 21.8295 123.461 22.3849C123.699 22.9363 124.031 23.3528 124.457 23.6346C124.888 23.9122 125.397 24.0511 125.985 24.0511C126.315 24.0511 126.614 24.0088 126.884 23.9243C127.158 23.8398 127.397 23.7171 127.603 23.5561C127.812 23.3911 127.983 23.1918 128.116 22.9584C128.253 22.721 128.347 22.4533 128.399 22.1555L131.418 22.1736C131.366 22.721 131.207 23.2603 130.941 23.7915C130.679 24.3228 130.319 24.8077 129.86 25.2464C129.402 25.6811 128.842 26.0272 128.182 26.2848C127.526 26.5423 126.773 26.6711 125.924 26.6711C124.805 26.6711 123.803 26.4256 122.918 25.9346C122.036 25.4396 121.34 24.7192 120.829 23.7734C120.318 22.8276 120.062 21.6766 120.062 20.3203C120.062 18.96 120.322 17.8069 120.841 16.8611C121.36 15.9153 122.063 15.1969 122.948 14.7059C123.833 14.2149 124.826 13.9694 125.924 13.9694C126.673 13.9694 127.365 14.0741 128.001 14.2833C128.637 14.4886 129.196 14.7904 129.679 15.1889C130.162 15.5833 130.555 16.0683 130.856 16.6438C131.158 17.2193 131.345 17.8773 131.418 18.6179ZM137.456 26.6772C136.482 26.6772 135.645 26.4779 134.945 26.0795C134.249 25.677 133.711 25.1176 133.333 24.4012C132.959 23.6808 132.772 22.8457 132.772 21.8959C132.772 20.9421 132.959 20.107 133.333 19.3906C133.711 18.6702 134.249 18.1108 134.945 17.7123C135.645 17.3099 136.482 17.1086 137.456 17.1086C138.43 17.1086 139.265 17.3099 139.962 17.7123C140.662 18.1108 141.199 18.6702 141.574 19.3906C141.952 20.107 142.141 20.9421 142.141 21.8959C142.141 22.8457 141.952 23.6808 141.574 24.4012C141.199 25.1176 140.662 25.677 139.962 26.0795C139.265 26.4779 138.43 26.6772 137.456 26.6772ZM137.474 24.4495C137.829 24.4495 138.128 24.3409 138.374 24.1235C138.619 23.9062 138.807 23.6044 138.935 23.218C139.068 22.8316 139.135 22.3849 139.135 21.8778C139.135 21.3627 139.068 20.9119 138.935 20.5255C138.807 20.1392 138.619 19.8373 138.374 19.62C138.128 19.4027 137.829 19.294 137.474 19.294C137.108 19.294 136.798 19.4027 136.545 19.62C136.295 19.8373 136.104 20.1392 135.971 20.5255C135.842 20.9119 135.778 21.3627 135.778 21.8778C135.778 22.3849 135.842 22.8316 135.971 23.218C136.104 23.6044 136.295 23.9062 136.545 24.1235C136.798 24.3409 137.108 24.4495 137.474 24.4495ZM148.923 17.2294V19.4027H142.959V17.2294H148.923ZM144.203 26.5021V16.7585C144.203 16.0421 144.337 15.4485 144.607 14.9776C144.877 14.5027 145.251 14.1485 145.73 13.9151C146.209 13.6776 146.762 13.5589 147.39 13.5589C147.801 13.5589 148.187 13.5911 148.549 13.6555C148.915 13.7159 149.187 13.7702 149.364 13.8185L148.893 15.9797C148.785 15.9435 148.652 15.9133 148.495 15.8892C148.342 15.865 148.197 15.8529 148.06 15.8529C147.714 15.8529 147.477 15.9294 147.348 16.0824C147.219 16.2353 147.155 16.4446 147.155 16.7102V26.5021H144.203ZM155.614 17.2294V19.4027H149.649V17.2294H155.614ZM150.893 26.5021V16.7585C150.893 16.0421 151.028 15.4485 151.297 14.9776C151.567 14.5027 151.941 14.1485 152.42 13.9151C152.899 13.6776 153.453 13.5589 154.081 13.5589C154.491 13.5589 154.877 13.5911 155.24 13.6555C155.606 13.7159 155.878 13.7702 156.055 13.8185L155.584 15.9797C155.475 15.9435 155.342 15.9133 155.185 15.8892C155.032 15.865 154.887 15.8529 154.751 15.8529C154.404 15.8529 154.167 15.9294 154.038 16.0824C153.909 16.2353 153.845 16.4446 153.845 16.7102V26.5021H150.893ZM161.07 26.6772C160.1 26.6772 159.263 26.486 158.558 26.1037C157.858 25.7173 157.319 25.1679 156.941 24.4556C156.566 23.7392 156.379 22.888 156.379 21.902C156.379 20.9441 156.568 20.107 156.947 19.3906C157.325 18.6702 157.858 18.1108 158.546 17.7123C159.235 17.3099 160.046 17.1086 160.979 17.1086C161.639 17.1086 162.243 17.2113 162.79 17.4165C163.338 17.6218 163.811 17.9256 164.209 18.3281C164.607 18.7306 164.917 19.2276 165.139 19.8192C165.36 20.4068 165.471 21.0809 165.471 21.8416V22.5781H157.411V20.8636H162.724C162.72 20.5497 162.645 20.27 162.501 20.0245C162.356 19.779 162.156 19.5878 161.903 19.451C161.653 19.3101 161.366 19.2397 161.04 19.2397C160.71 19.2397 160.414 19.3141 160.152 19.463C159.891 19.6079 159.683 19.8071 159.53 20.0607C159.377 20.3102 159.297 20.594 159.289 20.9119V22.6566C159.289 23.0349 159.363 23.3669 159.512 23.6527C159.661 23.9344 159.872 24.1537 160.146 24.3107C160.42 24.4676 160.746 24.5461 161.124 24.5461C161.386 24.5461 161.623 24.5099 161.836 24.4375C162.05 24.365 162.233 24.2584 162.386 24.1175C162.539 23.9766 162.653 23.8036 162.73 23.5983L165.441 23.6768C165.328 24.2845 165.08 24.8138 164.698 25.2645C164.32 25.7113 163.823 26.0594 163.207 26.3089C162.591 26.5544 161.879 26.6772 161.07 26.6772ZM171.313 26.6772C170.343 26.6772 169.506 26.486 168.802 26.1037C168.101 25.7173 167.562 25.1679 167.184 24.4556C166.809 23.7392 166.622 22.888 166.622 21.902C166.622 20.9441 166.811 20.107 167.19 19.3906C167.568 18.6702 168.101 18.1108 168.789 17.7123C169.478 17.3099 170.289 17.1086 171.222 17.1086C171.882 17.1086 172.486 17.2113 173.033 17.4165C173.581 17.6218 174.054 17.9256 174.452 18.3281C174.851 18.7306 175.16 19.2276 175.382 19.8192C175.603 20.4068 175.714 21.0809 175.714 21.8416V22.5781H167.655V20.8636H172.967C172.963 20.5497 172.889 20.27 172.744 20.0245C172.599 19.779 172.4 19.5878 172.146 19.451C171.896 19.3101 171.609 19.2397 171.283 19.2397C170.953 19.2397 170.657 19.3141 170.395 19.463C170.134 19.6079 169.926 19.8071 169.774 20.0607C169.621 20.3102 169.54 20.594 169.532 20.9119V22.6566C169.532 23.0349 169.606 23.3669 169.755 23.6527C169.904 23.9344 170.116 24.1537 170.389 24.3107C170.663 24.4676 170.989 24.5461 171.367 24.5461C171.629 24.5461 171.866 24.5099 172.08 24.4375C172.293 24.365 172.476 24.2584 172.629 24.1175C172.782 23.9766 172.897 23.8036 172.973 23.5983L175.684 23.6768C175.571 24.2845 175.323 24.8138 174.941 25.2645C174.563 25.7113 174.066 26.0594 173.45 26.3089C172.834 26.5544 172.122 26.6772 171.313 26.6772Z" fill="#FFDD00"/>
</g>
</g>
<rect x="1.0746" y="1.07282" width="182.858" height="37.8585" rx="6.92857" stroke="white" stroke-opacity="0.15" stroke-width="2.14286"/>
<defs>
<filter id="filter0_d_28_2444" x="2.40289" y="-0.59893" width="39.202" height="41.2021" filterUnits="userSpaceOnUse" color-interpolation-filters="sRGB">
<feFlood flood-opacity="0" result="BackgroundImageFix"/>
<feColorMatrix in="SourceAlpha" type="matrix" values="0 0 0 0 0 0 0 0 0 0 0 0 0 0 0 0 0 0 127 0" result="hardAlpha"/>
<feOffset/>
<feGaussianBlur stdDeviation="2.80014"/>
<feComposite in2="hardAlpha" operator="out"/>
<feColorMatrix type="matrix" values="0 0 0 0 0 0 0 0 0 0 0 0 0 0 0 0 0 0 0.25 0"/>
<feBlend mode="normal" in2="BackgroundImageFix" result="effect1_dropShadow_28_2444"/>
<feBlend mode="normal" in="SourceGraphic" in2="effect1_dropShadow_28_2444" result="shape"/>
</filter>
<filter id="filter1_d_28_2444" x="38.2904" y="3.78781" width="144.429" height="32.4286" filterUnits="userSpaceOnUse" color-interpolation-filters="sRGB">
<feFlood flood-opacity="0" result="BackgroundImageFix"/>
<feColorMatrix in="SourceAlpha" type="matrix" values="0 0 0 0 0 0 0 0 0 0 0 0 0 0 0 0 0 0 127 0" result="hardAlpha"/>
<feOffset/>
<feGaussianBlur stdDeviation="2.85714"/>
<feComposite in2="hardAlpha" operator="out"/>
<feColorMatrix type="matrix" values="0 0 0 0 0 0 0 0 0 0 0 0 0 0 0 0 0 0 0.25 0"/>
<feBlend mode="normal" in2="BackgroundImageFix" result="effect1_dropShadow_28_2444"/>
<feBlend mode="normal" in="SourceGraphic" in2="effect1_dropShadow_28_2444" result="shape"/>
</filter>
<linearGradient id="paint0_linear_28_2444" x1="92.5038" y1="0.00139618" x2="92.5038" y2="40.0028" gradientUnits="userSpaceOnUse">
<stop stop-color="#372E00"/>
<stop offset="1" stop-color="#1E1900"/>
</linearGradient>
<clipPath id="clip0_28_2444">
<rect x="0.00317383" y="0.00139618" width="185.001" height="40.0014" rx="8" fill="white"/>
</clipPath>
</defs>
</svg>
