<svg width="174" height="28" viewBox="0 0 174 28" fill="none" xmlns="http://www.w3.org/2000/svg">
<g clip-path="url(#clip0_28_2542)">
<rect x="0.499268" y="-3.05176e-05" width="173.5" height="28" rx="6" fill="url(#paint0_linear_28_2542)"/>
<g filter="url(#filter0_d_28_2542)">
<path d="M9.82084 8.35067C9.82084 8.89427 9.95783 9.40635 10.1992 9.85391H9.29162C8.86365 9.85391 8.45322 10.0239 8.1506 10.3265C7.84799 10.6292 7.67798 11.0396 7.67798 11.4676V13.4156C7.67798 14.002 7.99091 14.5141 8.4572 14.7971V21.2078C8.4572 22.0986 9.18004 22.8214 10.0708 22.8214H22.928C23.3559 22.8214 23.7664 22.6514 24.069 22.3488C24.3716 22.0462 24.5416 21.6358 24.5416 21.2078V14.7972C25.0081 14.5146 25.3208 14.0017 25.3208 13.4156V11.4676C25.3208 11.0396 25.1508 10.6292 24.8482 10.3265C24.5456 10.0239 24.1352 9.85391 23.7072 9.85391H22.7992C23.0014 9.4781 23.1265 9.06383 23.1652 8.63554C23.2181 8.04882 23.1065 7.45897 22.8431 6.93207C22.5796 6.40517 22.1747 5.96204 21.6736 5.65234C21.1725 5.34263 20.595 5.17859 20.0059 5.17859C18.877 5.17859 17.4067 5.81645 16.4994 7.32586C15.592 5.81643 14.121 5.17859 12.9929 5.17859C12.1516 5.17859 11.3448 5.51279 10.7499 6.10767C10.155 6.70255 9.82084 7.50938 9.82084 8.35067ZM12.9929 6.84742C13.7324 6.84742 15.3114 7.48508 15.6142 9.85391H12.9929C12.5942 9.85391 12.2119 9.69554 11.93 9.41362C11.648 9.13171 11.4897 8.74935 11.4897 8.35067C11.4897 7.95198 11.648 7.56962 11.93 7.28771C12.2119 7.0058 12.5942 6.84742 12.9929 6.84742ZM22.8728 15.0292V21.1526H17.3338V15.0292H22.8728ZM15.665 15.0292V21.1526H10.126V15.0292H15.665ZM23.652 11.5227V13.3604H17.3338V11.5227H23.652ZM15.665 11.5227V13.3604H9.34681V11.5227H15.665ZM21.5092 8.35067C21.5092 8.74935 21.3508 9.13171 21.0689 9.41362C20.7869 9.69554 20.4046 9.85391 20.0059 9.85391H17.3847C17.6874 7.48508 19.2664 6.84742 20.0059 6.84742C20.4046 6.84742 20.7869 7.0058 21.0689 7.28771C21.3508 7.56962 21.5092 7.95198 21.5092 8.35067Z" fill="white" stroke="white" stroke-width="0.5"/>
</g>
<g filter="url(#filter1_d_28_2542)">
<path d="M37.7415 12.6015C37.6998 12.2317 37.5279 11.9453 37.2258 11.7422C36.9237 11.5364 36.5435 11.4336 36.0852 11.4336C35.7571 11.4336 35.4732 11.4856 35.2336 11.5898C34.9941 11.6914 34.8079 11.832 34.675 12.0117C34.5448 12.1888 34.4797 12.3906 34.4797 12.6172C34.4797 12.8073 34.524 12.9713 34.6125 13.1093C34.7037 13.2474 34.8222 13.3632 34.968 13.457C35.1165 13.5481 35.2753 13.625 35.4446 13.6875C35.6138 13.7474 35.7766 13.7968 35.9329 13.8359L36.7141 14.039C36.9693 14.1015 37.231 14.1862 37.4993 14.2929C37.7675 14.3997 38.0162 14.5403 38.2454 14.7148C38.4745 14.8893 38.6594 15.1054 38.8 15.3632C38.9433 15.6211 39.0149 15.9297 39.0149 16.289C39.0149 16.7422 38.8977 17.1445 38.6633 17.4961C38.4316 17.8476 38.0943 18.125 37.6516 18.3281C37.2115 18.5312 36.679 18.6328 36.054 18.6328C35.455 18.6328 34.9368 18.5377 34.4993 18.3476C34.0618 18.1575 33.7193 17.888 33.4719 17.539C33.2245 17.1875 33.0878 16.7708 33.0618 16.289H34.2727C34.2961 16.5781 34.3899 16.819 34.554 17.0117C34.7206 17.2018 34.9329 17.3437 35.1907 17.4375C35.4511 17.5286 35.7362 17.5742 36.0461 17.5742C36.3873 17.5742 36.6907 17.5208 36.9563 17.414C37.2245 17.3047 37.4355 17.1536 37.5891 16.9609C37.7428 16.7656 37.8196 16.5377 37.8196 16.2773C37.8196 16.0403 37.7519 15.8463 37.6165 15.6953C37.4836 15.5442 37.3027 15.4192 37.0735 15.3203C36.8469 15.2213 36.5904 15.1341 36.304 15.0586L35.3586 14.8007C34.718 14.6263 34.2102 14.3698 33.8352 14.0312C33.4628 13.6927 33.2766 13.2448 33.2766 12.6875C33.2766 12.2265 33.4016 11.8242 33.6516 11.4804C33.9016 11.1367 34.2402 10.8698 34.6672 10.6797C35.0943 10.4869 35.5761 10.3906 36.1125 10.3906C36.6542 10.3906 37.1321 10.4856 37.5461 10.6757C37.9628 10.8659 38.2909 11.1276 38.5305 11.4609C38.7701 11.7916 38.8951 12.1718 38.9055 12.6015H37.7415ZM44.1643 16.0117V12.5H45.3362V18.5H44.1877V17.4609H44.1252C43.9872 17.7812 43.7659 18.0481 43.4612 18.2617C43.1591 18.4726 42.7828 18.5781 42.3323 18.5781C41.9469 18.5781 41.6057 18.4935 41.3088 18.3242C41.0146 18.1523 40.7828 17.8984 40.6135 17.5625C40.4469 17.2265 40.3635 16.8112 40.3635 16.3164V12.5H41.5315V16.1757C41.5315 16.5846 41.6448 16.9101 41.8713 17.1523C42.0979 17.3945 42.3922 17.5156 42.7541 17.5156C42.9729 17.5156 43.1903 17.4609 43.4065 17.3515C43.6252 17.2422 43.8062 17.0768 43.9495 16.8554C44.0953 16.6341 44.1669 16.3528 44.1643 16.0117ZM46.9055 20.75V12.5H48.0461V13.4726H48.1438C48.2115 13.3476 48.3092 13.2031 48.4368 13.039C48.5644 12.875 48.7415 12.7317 48.968 12.6093C49.1946 12.4843 49.4941 12.4218 49.8665 12.4218C50.3508 12.4218 50.7831 12.5442 51.1633 12.789C51.5435 13.0338 51.8417 13.3867 52.0579 13.8476C52.2766 14.3086 52.386 14.8632 52.386 15.5117C52.386 16.1601 52.2779 16.7161 52.0618 17.1797C51.8456 17.6406 51.5487 17.9961 51.1711 18.2461C50.7935 18.4935 50.3625 18.6172 49.8782 18.6172C49.5136 18.6172 49.2154 18.556 48.9836 18.4336C48.7545 18.3112 48.5748 18.1679 48.4446 18.0039C48.3144 17.8398 48.2141 17.694 48.1438 17.5664H48.0735V20.75H46.9055ZM48.05 15.5C48.05 15.9218 48.1112 16.2916 48.2336 16.6093C48.356 16.927 48.5331 17.1757 48.7649 17.3554C48.9967 17.5325 49.2805 17.6211 49.6165 17.6211C49.9654 17.6211 50.2571 17.5286 50.4914 17.3437C50.7258 17.1562 50.9029 16.9023 51.0227 16.582C51.1451 16.2617 51.2063 15.901 51.2063 15.5C51.2063 15.1041 51.1464 14.7487 51.0266 14.4336C50.9094 14.1185 50.7323 13.8698 50.4954 13.6875C50.261 13.5052 49.968 13.414 49.6165 13.414C49.2779 13.414 48.9915 13.5013 48.7571 13.6757C48.5253 13.8502 48.3495 14.0937 48.2297 14.4062C48.1099 14.7187 48.05 15.0833 48.05 15.5ZM53.6946 20.75V12.5H54.8352V13.4726H54.9329C55.0006 13.3476 55.0982 13.2031 55.2258 13.039C55.3534 12.875 55.5305 12.7317 55.7571 12.6093C55.9836 12.4843 56.2831 12.4218 56.6555 12.4218C57.1399 12.4218 57.5722 12.5442 57.9524 12.789C58.3326 13.0338 58.6308 13.3867 58.8469 13.8476C59.0657 14.3086 59.175 14.8632 59.175 15.5117C59.175 16.1601 59.067 16.7161 58.8508 17.1797C58.6347 17.6406 58.3378 17.9961 57.9602 18.2461C57.5826 18.4935 57.1516 18.6172 56.6672 18.6172C56.3026 18.6172 56.0045 18.556 55.7727 18.4336C55.5435 18.3112 55.3638 18.1679 55.2336 18.0039C55.1034 17.8398 55.0032 17.694 54.9329 17.5664H54.8625V20.75H53.6946ZM54.8391 15.5C54.8391 15.9218 54.9003 16.2916 55.0227 16.6093C55.1451 16.927 55.3222 17.1757 55.5539 17.3554C55.7857 17.5325 56.0696 17.6211 56.4055 17.6211C56.7545 17.6211 57.0461 17.5286 57.2805 17.3437C57.5149 17.1562 57.692 16.9023 57.8118 16.582C57.9342 16.2617 57.9954 15.901 57.9954 15.5C57.9954 15.1041 57.9355 14.7487 57.8157 14.4336C57.6985 14.1185 57.5214 13.8698 57.2844 13.6875C57.05 13.5052 56.7571 13.414 56.4055 13.414C56.067 13.414 55.7805 13.5013 55.5461 13.6757C55.3144 13.8502 55.1386 14.0937 55.0188 14.4062C54.899 14.7187 54.8391 15.0833 54.8391 15.5ZM63.011 18.6211C62.4485 18.6211 61.9576 18.4922 61.5383 18.2343C61.1191 17.9765 60.7935 17.6159 60.5618 17.1523C60.33 16.6888 60.2141 16.1471 60.2141 15.5273C60.2141 14.9049 60.33 14.3606 60.5618 13.8945C60.7935 13.4284 61.1191 13.0664 61.5383 12.8086C61.9576 12.5507 62.4485 12.4218 63.011 12.4218C63.5735 12.4218 64.0644 12.5507 64.4836 12.8086C64.9029 13.0664 65.2284 13.4284 65.4602 13.8945C65.692 14.3606 65.8079 14.9049 65.8079 15.5273C65.8079 16.1471 65.692 16.6888 65.4602 17.1523C65.2284 17.6159 64.9029 17.9765 64.4836 18.2343C64.0644 18.4922 63.5735 18.6211 63.011 18.6211ZM63.0149 17.6406C63.3795 17.6406 63.6816 17.5442 63.9211 17.3515C64.1607 17.1588 64.3378 16.9023 64.4524 16.582C64.5696 16.2617 64.6282 15.9088 64.6282 15.5234C64.6282 15.1406 64.5696 14.789 64.4524 14.4687C64.3378 14.1458 64.1607 13.8867 63.9211 13.6914C63.6816 13.4961 63.3795 13.3984 63.0149 13.3984C62.6477 13.3984 62.343 13.4961 62.1008 13.6914C61.8612 13.8867 61.6829 14.1458 61.5657 14.4687C61.4511 14.789 61.3938 15.1406 61.3938 15.5234C61.3938 15.9088 61.4511 16.2617 61.5657 16.582C61.6829 16.9023 61.8612 17.1588 62.1008 17.3515C62.343 17.5442 62.6477 17.6406 63.0149 17.6406ZM67.1116 18.5V12.5H68.2405V13.4531H68.303C68.4123 13.1302 68.6051 12.8763 68.8811 12.6914C69.1597 12.5039 69.4748 12.4101 69.8264 12.4101C69.8993 12.4101 69.9853 12.4127 70.0842 12.4179C70.1858 12.4231 70.2652 12.4297 70.3225 12.4375V13.5547C70.2756 13.5416 70.1923 13.5273 70.0725 13.5117C69.9527 13.4935 69.8329 13.4843 69.7131 13.4843C69.4371 13.4843 69.191 13.5429 68.9748 13.6601C68.7613 13.7747 68.592 13.9349 68.467 14.1406C68.342 14.3437 68.2795 14.5755 68.2795 14.8359V18.5H67.1116ZM74.4885 12.5V13.4375H71.2112V12.5H74.4885ZM72.0901 11.0625H73.258V16.7382C73.258 16.9648 73.2919 17.1354 73.3596 17.25C73.4273 17.3619 73.5146 17.4388 73.6213 17.4804C73.7307 17.5195 73.8492 17.539 73.9768 17.539C74.0705 17.539 74.1526 17.5325 74.2229 17.5195C74.2932 17.5065 74.3479 17.4961 74.387 17.4882L74.5979 18.4531C74.5302 18.4791 74.4338 18.5052 74.3088 18.5312C74.1838 18.5599 74.0276 18.5755 73.8401 18.5781C73.5328 18.5833 73.2463 18.5286 72.9807 18.414C72.7151 18.2994 72.5002 18.1224 72.3362 17.8828C72.1721 17.6432 72.0901 17.3424 72.0901 16.9804V11.0625ZM78.6916 18.5V12.5H79.8127V13.4765H79.8869C80.0119 13.1458 80.2164 12.888 80.5002 12.7031C80.7841 12.5156 81.1239 12.4218 81.5198 12.4218C81.9208 12.4218 82.2567 12.5156 82.5276 12.7031C82.801 12.8906 83.0028 13.1484 83.133 13.4765H83.1955C83.3388 13.1562 83.5666 12.901 83.8791 12.7109C84.1916 12.5182 84.564 12.4218 84.9963 12.4218C85.5406 12.4218 85.9846 12.5924 86.3284 12.9336C86.6747 13.2747 86.8479 13.789 86.8479 14.4765V18.5H85.6799V14.5859C85.6799 14.1797 85.5692 13.8854 85.3479 13.7031C85.1265 13.5208 84.8622 13.4297 84.5549 13.4297C84.1747 13.4297 83.8791 13.5468 83.6682 13.7812C83.4573 14.013 83.3518 14.3112 83.3518 14.6757V18.5H82.1877V14.5117C82.1877 14.1862 82.0862 13.9244 81.883 13.7265C81.6799 13.5286 81.4156 13.4297 81.0901 13.4297C80.8687 13.4297 80.6643 13.4882 80.4768 13.6054C80.2919 13.72 80.1422 13.8802 80.0276 14.0859C79.9156 14.2916 79.8596 14.5299 79.8596 14.8007V18.5H78.6916ZM90.9993 18.6211C90.4081 18.6211 89.899 18.4948 89.4719 18.2422C89.0474 17.9869 88.7193 17.6289 88.4875 17.1679C88.2584 16.7044 88.1438 16.1614 88.1438 15.539C88.1438 14.9244 88.2584 14.3828 88.4875 13.914C88.7193 13.4453 89.0422 13.0794 89.4563 12.8164C89.8729 12.5534 90.3599 12.4218 90.9172 12.4218C91.2558 12.4218 91.5839 12.4778 91.9016 12.5898C92.2193 12.7018 92.5045 12.8776 92.7571 13.1172C93.0097 13.3567 93.2089 13.6679 93.3547 14.0507C93.5006 14.431 93.5735 14.8932 93.5735 15.4375V15.8515H88.8039V14.9765H92.4289C92.4289 14.6692 92.3664 14.3971 92.2414 14.1601C92.1164 13.9205 91.9407 13.7317 91.7141 13.5937C91.4901 13.4557 91.2271 13.3867 90.925 13.3867C90.5969 13.3867 90.3104 13.4674 90.0657 13.6289C89.8235 13.7877 89.636 13.9961 89.5032 14.2539C89.3729 14.5091 89.3078 14.7864 89.3078 15.0859V15.7695C89.3078 16.1705 89.3782 16.5117 89.5188 16.7929C89.662 17.0742 89.8612 17.289 90.1164 17.4375C90.3716 17.5833 90.6698 17.6562 91.011 17.6562C91.2323 17.6562 91.4341 17.625 91.6164 17.5625C91.7987 17.4974 91.9563 17.401 92.0891 17.2734C92.2219 17.1458 92.3235 16.9882 92.3938 16.8007L93.4992 17C93.4107 17.3255 93.2519 17.6106 93.0227 17.8554C92.7961 18.0976 92.511 18.2864 92.1672 18.4218C91.8261 18.5547 91.4367 18.6211 90.9993 18.6211ZM97.8742 18.5V10.5H99.0422V13.4726H99.1125C99.1802 13.3476 99.2779 13.2031 99.4055 13.039C99.5331 12.875 99.7102 12.7317 99.9367 12.6093C100.163 12.4843 100.463 12.4218 100.835 12.4218C101.32 12.4218 101.752 12.5442 102.132 12.789C102.512 13.0338 102.81 13.3867 103.027 13.8476C103.245 14.3086 103.355 14.8632 103.355 15.5117C103.355 16.1601 103.247 16.7161 103.03 17.1797C102.814 17.6406 102.517 17.9961 102.14 18.2461C101.762 18.4935 101.331 18.6172 100.847 18.6172C100.482 18.6172 100.184 18.556 99.9524 18.4336C99.7232 18.3112 99.5435 18.1679 99.4133 18.0039C99.2831 17.8398 99.1828 17.694 99.1125 17.5664H99.0149V18.5H97.8742ZM99.0188 15.5C99.0188 15.9218 99.08 16.2916 99.2024 16.6093C99.3248 16.927 99.5019 17.1757 99.7336 17.3554C99.9654 17.5325 100.249 17.6211 100.585 17.6211C100.934 17.6211 101.226 17.5286 101.46 17.3437C101.695 17.1562 101.872 16.9023 101.991 16.582C102.114 16.2617 102.175 15.901 102.175 15.5C102.175 15.1041 102.115 14.7487 101.995 14.4336C101.878 14.1185 101.701 13.8698 101.464 13.6875C101.23 13.5052 100.937 13.414 100.585 13.414C100.247 13.414 99.9602 13.5013 99.7258 13.6757C99.494 13.8502 99.3183 14.0937 99.1985 14.4062C99.0787 14.7187 99.0188 15.0833 99.0188 15.5ZM105.2 20.75C105.026 20.75 104.867 20.7356 104.724 20.707C104.581 20.681 104.474 20.6523 104.404 20.6211L104.685 19.664C104.898 19.7213 105.088 19.7461 105.255 19.7382C105.422 19.7304 105.569 19.6679 105.697 19.5507C105.827 19.4336 105.941 19.2422 106.04 18.9765L106.185 18.5781L103.989 12.5H105.239L106.759 17.1562H106.822L108.341 12.5H109.595L107.122 19.3007C107.008 19.6132 106.862 19.8776 106.685 20.0937C106.508 20.3125 106.297 20.4765 106.052 20.5859C105.807 20.6953 105.523 20.75 105.2 20.75Z" fill="#E8E8E8"/>
<path d="M116.886 18.5H113.66V9.7727H116.881C117.771 9.7727 118.536 9.94741 119.178 10.2968C119.823 10.6434 120.32 11.1434 120.67 11.7968C121.019 12.4474 121.194 13.2258 121.194 14.1321C121.194 15.0412 121.019 15.8224 120.67 16.4758C120.323 17.1292 119.827 17.6306 119.183 17.9801C118.538 18.3267 117.772 18.5 116.886 18.5ZM115.769 16.7017H116.805C117.293 16.7017 117.707 16.6193 118.045 16.4545C118.386 16.2869 118.643 16.0156 118.816 15.6406C118.992 15.2628 119.08 14.7599 119.08 14.1321C119.08 13.5042 118.992 13.0042 118.816 12.6321C118.64 12.2571 118.38 11.9872 118.036 11.8224C117.695 11.6548 117.275 11.571 116.775 11.571H115.769V16.7017ZM125.481 18.6235C124.793 18.6235 124.202 18.4829 123.708 18.2017C123.217 17.9176 122.837 17.5227 122.57 17.017C122.306 16.5085 122.174 15.919 122.174 15.2485C122.174 14.5753 122.306 13.9858 122.57 13.4801C122.837 12.9716 123.217 12.5767 123.708 12.2954C124.202 12.0113 124.793 11.8693 125.481 11.8693C126.168 11.8693 126.758 12.0113 127.249 12.2954C127.744 12.5767 128.123 12.9716 128.387 13.4801C128.654 13.9858 128.788 14.5753 128.788 15.2485C128.788 15.919 128.654 16.5085 128.387 17.017C128.123 17.5227 127.744 17.9176 127.249 18.2017C126.758 18.4829 126.168 18.6235 125.481 18.6235ZM125.494 17.0511C125.744 17.0511 125.955 16.9744 126.129 16.821C126.302 16.6676 126.434 16.4545 126.525 16.1818C126.619 15.9091 126.665 15.5937 126.665 15.2358C126.665 14.8721 126.619 14.5539 126.525 14.2812C126.434 14.0085 126.302 13.7954 126.129 13.642C125.955 13.4886 125.744 13.4119 125.494 13.4119C125.235 13.4119 125.016 13.4886 124.837 13.642C124.661 13.7954 124.526 14.0085 124.433 14.2812C124.342 14.5539 124.296 14.8721 124.296 15.2358C124.296 15.5937 124.342 15.9091 124.433 16.1818C124.526 16.4545 124.661 16.6676 124.837 16.821C125.016 16.9744 125.235 17.0511 125.494 17.0511ZM131.939 14.767V18.5H129.855V11.9545H131.837V13.1562H131.909C132.054 12.7556 132.301 12.4417 132.651 12.2145C133 11.9843 133.416 11.8693 133.899 11.8693C134.359 11.8693 134.758 11.973 135.097 12.1804C135.437 12.3849 135.702 12.6718 135.889 13.0412C136.08 13.4076 136.173 13.8366 136.17 14.3281V18.5H134.087V14.7372C134.089 14.3735 133.997 14.0895 133.81 13.8849C133.625 13.6804 133.368 13.5781 133.038 13.5781C132.82 13.5781 132.626 13.6264 132.459 13.723C132.294 13.8167 132.166 13.9517 132.075 14.1278C131.987 14.3039 131.942 14.517 131.939 14.767ZM139.306 18.6108C138.888 18.6108 138.517 18.5412 138.194 18.402C137.872 18.2599 137.618 18.0468 137.431 17.7628C137.246 17.4758 137.154 17.1164 137.154 16.6846C137.154 16.321 137.218 16.0142 137.345 15.7642C137.473 15.5142 137.649 15.311 137.874 15.1548C138.098 14.9985 138.357 14.8806 138.649 14.8011C138.942 14.7187 139.255 14.6633 139.587 14.6349C139.959 14.6008 140.259 14.5653 140.486 14.5284C140.713 14.4886 140.878 14.4332 140.98 14.3622C141.086 14.2883 141.138 14.1846 141.138 14.0511V14.0298C141.138 13.811 141.063 13.642 140.912 13.5227C140.762 13.4034 140.559 13.3437 140.303 13.3437C140.027 13.3437 139.806 13.4034 139.638 13.5227C139.47 13.642 139.364 13.8068 139.319 14.017L137.397 13.9488C137.453 13.5511 137.6 13.196 137.836 12.8835C138.074 12.5681 138.401 12.321 138.816 12.142C139.233 11.9602 139.735 11.8693 140.32 11.8693C140.738 11.8693 141.122 11.919 141.475 12.0184C141.827 12.115 142.134 12.2571 142.395 12.4446C142.657 12.6292 142.858 12.8565 143 13.1264C143.145 13.3963 143.218 13.7045 143.218 14.0511V18.5H141.257V17.588H141.206C141.09 17.8096 140.941 17.9971 140.759 18.1505C140.58 18.3039 140.368 18.419 140.124 18.4957C139.882 18.5724 139.61 18.6108 139.306 18.6108ZM139.949 17.2471C140.174 17.2471 140.375 17.2017 140.554 17.1108C140.736 17.0199 140.881 16.8949 140.989 16.7358C141.097 16.5738 141.151 16.3863 141.151 16.1733V15.5511C141.091 15.5824 141.019 15.6108 140.934 15.6363C140.851 15.6619 140.76 15.686 140.661 15.7088C140.561 15.7315 140.459 15.7514 140.354 15.7684C140.249 15.7855 140.148 15.8011 140.051 15.8153C139.855 15.8466 139.688 15.8949 139.549 15.9602C139.412 16.0255 139.307 16.1108 139.233 16.2159C139.162 16.3181 139.127 16.4403 139.127 16.5824C139.127 16.7983 139.203 16.963 139.357 17.0767C139.513 17.1903 139.711 17.2471 139.949 17.2471ZM148.186 11.9545V13.4886H144.057V11.9545H148.186ZM144.922 10.3863H147.006V16.4417C147.006 16.5696 147.026 16.6733 147.066 16.7528C147.108 16.8295 147.169 16.8849 147.249 16.919C147.328 16.9503 147.424 16.9659 147.534 16.9659C147.614 16.9659 147.698 16.9588 147.786 16.9446C147.877 16.9275 147.945 16.9133 147.99 16.902L148.306 18.4062C148.206 18.4346 148.066 18.4701 147.884 18.5128C147.705 18.5554 147.49 18.5824 147.24 18.5937C146.752 18.6164 146.333 18.5596 145.983 18.4233C145.637 18.2841 145.371 18.0681 145.186 17.7755C145.005 17.4829 144.917 17.115 144.922 16.6718V10.3863ZM149.25 18.5V11.9545H151.333V18.5H149.25ZM150.294 11.1917C150.001 11.1917 149.75 11.0951 149.539 10.902C149.329 10.7059 149.224 10.4701 149.224 10.1946C149.224 9.92184 149.329 9.68889 149.539 9.49571C149.75 9.29968 150.001 9.20167 150.294 9.20167C150.589 9.20167 150.841 9.29968 151.048 9.49571C151.258 9.68889 151.363 9.92184 151.363 10.1946C151.363 10.4701 151.258 10.7059 151.048 10.902C150.841 11.0951 150.589 11.1917 150.294 11.1917ZM154.744 14.767V18.5H152.66V11.9545H154.641V13.1562H154.714C154.859 12.7556 155.106 12.4417 155.455 12.2145C155.805 11.9843 156.221 11.8693 156.704 11.8693C157.164 11.8693 157.563 11.973 157.901 12.1804C158.242 12.3849 158.506 12.6718 158.694 13.0412C158.884 13.4076 158.978 13.8366 158.975 14.3281V18.5H156.891V14.7372C156.894 14.3735 156.802 14.0895 156.614 13.8849C156.43 13.6804 156.173 13.5781 155.843 13.5781C155.624 13.5781 155.431 13.6264 155.263 13.723C155.099 13.8167 154.971 13.9517 154.88 14.1278C154.792 14.3039 154.746 14.517 154.744 14.767ZM163.316 21.0909C162.694 21.0909 162.162 21.0042 161.718 20.8309C161.275 20.6576 160.927 20.4204 160.674 20.1193C160.421 19.8181 160.269 19.4772 160.218 19.0966L162.191 18.9858C162.228 19.1193 162.296 19.2358 162.396 19.3352C162.498 19.4346 162.63 19.5113 162.792 19.5653C162.957 19.6193 163.15 19.6463 163.372 19.6463C163.721 19.6463 164.01 19.561 164.237 19.3906C164.467 19.223 164.582 18.9289 164.582 18.5085V17.3579H164.51C164.427 17.5596 164.302 17.74 164.135 17.8991C163.967 18.0582 163.758 18.1832 163.508 18.2741C163.261 18.365 162.977 18.4105 162.656 18.4105C162.179 18.4105 161.741 18.2997 161.343 18.0781C160.948 17.8537 160.632 17.5071 160.393 17.0383C160.157 16.5667 160.039 15.9602 160.039 15.2187C160.039 14.4545 160.162 13.8253 160.406 13.3309C160.65 12.8338 160.97 12.4659 161.365 12.2272C161.762 11.9886 162.19 11.8693 162.647 11.8693C162.991 11.8693 163.285 11.9289 163.529 12.0483C163.777 12.1647 163.98 12.3153 164.139 12.5C164.298 12.6846 164.419 12.8764 164.501 13.0753H164.561V11.9545H166.636V18.5255C166.636 19.0795 166.497 19.5468 166.218 19.9275C165.94 20.3082 165.551 20.5966 165.051 20.7926C164.551 20.9914 163.973 21.0909 163.316 21.0909ZM163.38 16.8934C163.633 16.8934 163.849 16.8267 164.028 16.6931C164.207 16.5596 164.345 16.3679 164.441 16.1179C164.538 15.8679 164.586 15.5681 164.586 15.2187C164.586 14.8636 164.538 14.5582 164.441 14.3025C164.348 14.044 164.21 13.8451 164.028 13.7059C163.849 13.5667 163.633 13.4971 163.38 13.4971C163.122 13.4971 162.903 13.5681 162.724 13.7102C162.545 13.8522 162.409 14.0525 162.315 14.311C162.224 14.5667 162.179 14.8693 162.179 15.2187C162.179 15.5681 162.225 15.8679 162.319 16.1179C162.413 16.3679 162.548 16.5596 162.724 16.6931C162.903 16.8267 163.122 16.8934 163.38 16.8934Z" fill="white"/>
</g>
</g>
<rect x="1.24927" y="0.749969" width="172" height="26.5" rx="5.25" stroke="white" stroke-opacity="0.15" stroke-width="1.5"/>
<defs>
<filter id="filter0_d_28_2542" x="2.49927" y="-3.05176e-05" width="28" height="28" filterUnits="userSpaceOnUse" color-interpolation-filters="sRGB">
<feFlood flood-opacity="0" result="BackgroundImageFix"/>
<feColorMatrix in="SourceAlpha" type="matrix" values="0 0 0 0 0 0 0 0 0 0 0 0 0 0 0 0 0 0 127 0" result="hardAlpha"/>
<feOffset/>
<feGaussianBlur stdDeviation="2"/>
<feComposite in2="hardAlpha" operator="out"/>
<feColorMatrix type="matrix" values="0 0 0 0 0 0 0 0 0 0 0 0 0 0 0 0 0 0 0.25 0"/>
<feBlend mode="normal" in2="BackgroundImageFix" result="effect1_dropShadow_28_2542"/>
<feBlend mode="normal" in="SourceGraphic" in2="effect1_dropShadow_28_2542" result="shape"/>
</filter>
<filter id="filter1_d_28_2542" x="28.4993" y="3.49997" width="143.5" height="21.5909" filterUnits="userSpaceOnUse" color-interpolation-filters="sRGB">
<feFlood flood-opacity="0" result="BackgroundImageFix"/>
<feColorMatrix in="SourceAlpha" type="matrix" values="0 0 0 0 0 0 0 0 0 0 0 0 0 0 0 0 0 0 127 0" result="hardAlpha"/>
<feOffset/>
<feGaussianBlur stdDeviation="2"/>
<feComposite in2="hardAlpha" operator="out"/>
<feColorMatrix type="matrix" values="0 0 0 0 0 0 0 0 0 0 0 0 0 0 0 0 0 0 0.25 0"/>
<feBlend mode="normal" in2="BackgroundImageFix" result="effect1_dropShadow_28_2542"/>
<feBlend mode="normal" in="SourceGraphic" in2="effect1_dropShadow_28_2542" result="shape"/>
</filter>
<linearGradient id="paint0_linear_28_2542" x1="87.2492" y1="-3.05176e-05" x2="87.2492" y2="28" gradientUnits="userSpaceOnUse">
<stop stop-color="#2D2D2D"/>
<stop offset="1" stop-color="#222222"/>
</linearGradient>
<clipPath id="clip0_28_2542">
<rect x="0.499268" y="-3.05176e-05" width="173.5" height="28" rx="6" fill="white"/>
</clipPath>
</defs>
</svg>
