<svg width="218" height="41" viewBox="0 0 218 41" fill="none" xmlns="http://www.w3.org/2000/svg">
<rect x="0.00317383" y="0.00279236" width="217.001" height="40.0014" rx="8" fill="url(#paint0_linear_28_2464)"/>
<g filter="url(#filter0_d_28_2464)">
<rect x="10.804" y="13.0032" width="15.4008" height="14.0007" fill="#FF5E5B"/>
<path d="M38.4052 16.0104C37.4031 10.6675 32.1063 10.003 32.1063 10.003H8.38446C7.60147 10.003 7.50425 11.0468 7.50425 11.0468C7.50425 11.0468 7.39795 20.6261 7.47573 26.5092C7.68833 29.6797 10.8281 30.004 10.8281 30.004C10.8281 30.004 21.545 29.974 26.3401 29.9399C29.5006 29.3828 29.8182 26.5838 29.7858 25.0561C35.4275 25.37 39.4073 21.3533 38.4052 16.0104ZM24.065 20.6026C22.4498 22.503 18.8654 25.8029 18.8654 25.8029C18.8654 25.8029 18.7086 25.9586 18.4635 25.833C18.365 25.7585 18.3235 25.7153 18.3235 25.7153C17.7493 25.1385 13.9574 21.7274 13.0941 20.5437C12.175 19.2815 11.7446 17.0123 12.9761 15.6913C14.2089 14.3702 16.8716 14.2708 18.6321 16.2236C18.6321 16.2236 20.6608 13.8928 23.1278 14.964C25.596 16.0366 25.5027 18.9022 24.065 20.6026ZM32.0674 21.2278C30.8644 21.3795 29.8869 21.2644 29.8869 21.2644V13.834H32.1815C32.1815 13.834 34.7366 14.5547 34.7366 17.2843C34.7366 19.7864 33.4597 20.7726 32.0674 21.2278Z" fill="white"/>
</g>
<g filter="url(#filter1_d_28_2464)">
<path d="M50.1062 17.3877C50.0418 16.8162 49.7762 16.3735 49.3093 16.0596C48.8425 15.7417 48.2549 15.5827 47.5465 15.5827C47.0394 15.5827 46.6008 15.6632 46.2305 15.8242C45.8602 15.9811 45.5725 16.1984 45.3672 16.4761C45.166 16.7498 45.0654 17.0617 45.0654 17.4119C45.0654 17.7057 45.1338 17.9592 45.2706 18.1725C45.4115 18.3858 45.5946 18.5649 45.82 18.7098C46.0494 18.8507 46.2949 18.9694 46.5565 19.066C46.8181 19.1586 47.0696 19.235 47.3111 19.2954L48.5185 19.6093C48.9129 19.7059 49.3174 19.8367 49.7319 20.0017C50.1464 20.1667 50.5308 20.3841 50.885 20.6537C51.2391 20.9234 51.5249 21.2574 51.7422 21.6558C51.9636 22.0543 52.0742 22.5312 52.0742 23.0866C52.0742 23.7869 51.8931 24.4087 51.5309 24.952C51.1727 25.4953 50.6515 25.9239 49.9673 26.2379C49.2872 26.5518 48.4642 26.7087 47.4982 26.7087C46.5726 26.7087 45.7717 26.5618 45.0955 26.268C44.4194 25.9743 43.8902 25.5577 43.5078 25.0184C43.1255 24.4751 42.9142 23.8311 42.874 23.0866H44.7454C44.7816 23.5333 44.9265 23.9056 45.1801 24.2034C45.4376 24.4972 45.7656 24.7166 46.1641 24.8614C46.5665 25.0023 47.0072 25.0727 47.4862 25.0727C48.0134 25.0727 48.4823 24.9902 48.8928 24.8252C49.3073 24.6562 49.6333 24.4228 49.8708 24.1249C50.1082 23.8231 50.2269 23.4709 50.2269 23.0685C50.2269 22.7022 50.1223 22.4024 49.913 22.169C49.7078 21.9355 49.4281 21.7424 49.0739 21.5894C48.7237 21.4365 48.3273 21.3017 47.8846 21.185L46.4237 20.7865C45.4336 20.5169 44.6488 20.1204 44.0693 19.5972C43.4937 19.074 43.206 18.3818 43.206 17.5205C43.206 16.8082 43.3992 16.1864 43.7855 15.6551C44.1719 15.1239 44.6951 14.7114 45.3551 14.4176C46.0152 14.1197 46.7597 13.9708 47.5888 13.9708C48.4259 13.9708 49.1644 14.1177 49.8044 14.4115C50.4483 14.7053 50.9554 15.1098 51.3257 15.6249C51.6959 16.1361 51.8891 16.7237 51.9052 17.3877H50.1062ZM60.0324 22.658V17.2308H61.8435V26.5035H60.0686V24.8977H59.9721C59.7587 25.3927 59.4167 25.8052 58.9458 26.1352C58.4789 26.4612 57.8974 26.6242 57.2011 26.6242C56.6055 26.6242 56.0782 26.4934 55.6194 26.2318C55.1646 25.9662 54.8065 25.5738 54.5449 25.0546C54.2873 24.5354 54.1585 23.8935 54.1585 23.1288V17.2308H55.9635V22.9115C55.9635 23.5434 56.1386 24.0465 56.4887 24.4207C56.8389 24.795 57.2937 24.9822 57.8531 24.9822C58.1912 24.9822 58.5272 24.8977 58.8613 24.7286C59.1993 24.5596 59.479 24.304 59.7004 23.9619C59.9258 23.6198 60.0364 23.1852 60.0324 22.658ZM64.2688 29.9808V17.2308H66.0316V18.734H66.1825C66.2872 18.5408 66.4381 18.3174 66.6353 18.0639C66.8325 17.8103 67.1062 17.589 67.4563 17.3998C67.8065 17.2066 68.2693 17.11 68.8448 17.11C69.5934 17.11 70.2615 17.2992 70.8491 17.6775C71.4367 18.0558 71.8975 18.6011 72.2315 19.3135C72.5696 20.0259 72.7387 20.8831 72.7387 21.8852C72.7387 22.8874 72.5716 23.7466 72.2376 24.463C71.9035 25.1754 71.4447 25.7247 70.8612 26.1111C70.2776 26.4934 69.6115 26.6846 68.8629 26.6846C68.2995 26.6846 67.8387 26.59 67.4805 26.4009C67.1263 26.2117 66.8486 25.9904 66.6474 25.7368C66.4462 25.4832 66.2912 25.2579 66.1825 25.0607H66.0739V29.9808H64.2688ZM66.0377 21.8671C66.0377 22.5191 66.1322 23.0906 66.3214 23.5816C66.5106 24.0726 66.7842 24.457 67.1424 24.7347C67.5006 25.0083 67.9393 25.1452 68.4585 25.1452C68.9978 25.1452 69.4485 25.0023 69.8107 24.7166C70.173 24.4268 70.4466 24.0344 70.6318 23.5394C70.8209 23.0443 70.9155 22.4869 70.9155 21.8671C70.9155 21.2554 70.8229 20.706 70.6378 20.219C70.4567 19.7321 70.183 19.3477 69.8168 19.066C69.4546 18.7843 69.0018 18.6434 68.4585 18.6434C67.9353 18.6434 67.4926 18.7782 67.1303 19.0479C66.7722 19.3175 66.5005 19.6938 66.3154 20.1768C66.1302 20.6597 66.0377 21.2232 66.0377 21.8671ZM74.761 29.9808V17.2308H76.5238V18.734H76.6747C76.7794 18.5408 76.9303 18.3174 77.1275 18.0639C77.3247 17.8103 77.5984 17.589 77.9485 17.3998C78.2987 17.2066 78.7615 17.11 79.337 17.11C80.0856 17.11 80.7537 17.2992 81.3413 17.6775C81.9289 18.0558 82.3897 18.6011 82.7237 19.3135C83.0618 20.0259 83.2308 20.8831 83.2308 21.8852C83.2308 22.8874 83.0638 23.7466 82.7298 24.463C82.3957 25.1754 81.9369 25.7247 81.3533 26.1111C80.7698 26.4934 80.1037 26.6846 79.3551 26.6846C78.7917 26.6846 78.3309 26.59 77.9727 26.4009C77.6185 26.2117 77.3408 25.9904 77.1396 25.7368C76.9383 25.4832 76.7834 25.2579 76.6747 25.0607H76.5661V29.9808H74.761ZM76.5298 21.8671C76.5298 22.5191 76.6244 23.0906 76.8136 23.5816C77.0027 24.0726 77.2764 24.457 77.6346 24.7347C77.9928 25.0083 78.4315 25.1452 78.9507 25.1452C79.4899 25.1452 79.9407 25.0023 80.3029 24.7166C80.6651 24.4268 80.9388 24.0344 81.1239 23.5394C81.3131 23.0443 81.4077 22.4869 81.4077 21.8671C81.4077 21.2554 81.3151 20.706 81.13 20.219C80.9489 19.7321 80.6752 19.3477 80.309 19.066C79.9467 18.7843 79.494 18.6434 78.9507 18.6434C78.4274 18.6434 77.9847 18.7782 77.6225 19.0479C77.2643 19.3175 76.9927 19.6938 76.8075 20.1768C76.6224 20.6597 76.5298 21.2232 76.5298 21.8671ZM89.1591 26.6906C88.2898 26.6906 87.5311 26.4914 86.8832 26.093C86.2352 25.6945 85.7321 25.1371 85.3739 24.4207C85.0158 23.7044 84.8367 22.8672 84.8367 21.9094C84.8367 20.9475 85.0158 20.1064 85.3739 19.3859C85.7321 18.6655 86.2352 18.1061 86.8832 17.7077C87.5311 17.3092 88.2898 17.11 89.1591 17.11C90.0284 17.11 90.7871 17.3092 91.435 17.7077C92.083 18.1061 92.5861 18.6655 92.9443 19.3859C93.3024 20.1064 93.4815 20.9475 93.4815 21.9094C93.4815 22.8672 93.3024 23.7044 92.9443 24.4207C92.5861 25.1371 92.083 25.6945 91.435 26.093C90.7871 26.4914 90.0284 26.6906 89.1591 26.6906ZM89.1651 25.1754C89.7286 25.1754 90.1954 25.0265 90.5657 24.7286C90.936 24.4308 91.2096 24.0344 91.3867 23.5394C91.5678 23.0443 91.6584 22.499 91.6584 21.9033C91.6584 21.3117 91.5678 20.7684 91.3867 20.2734C91.2096 19.7743 90.936 19.3739 90.5657 19.072C90.1954 18.7702 89.7286 18.6193 89.1651 18.6193C88.5977 18.6193 88.1268 18.7702 87.7525 19.072C87.3822 19.3739 87.1065 19.7743 86.9254 20.2734C86.7484 20.7684 86.6598 21.3117 86.6598 21.9033C86.6598 22.499 86.7484 23.0443 86.9254 23.5394C87.1065 24.0344 87.3822 24.4308 87.7525 24.7286C88.1268 25.0265 88.5977 25.1754 89.1651 25.1754ZM95.4964 26.5035V17.2308H97.241V18.7038H97.3376C97.5067 18.2047 97.8045 17.8123 98.2311 17.5266C98.6617 17.2368 99.1487 17.0919 99.692 17.0919C99.8047 17.0919 99.9375 17.0959 100.09 17.104C100.247 17.112 100.37 17.1221 100.459 17.1342V18.8607C100.386 18.8406 100.257 18.8185 100.072 18.7943C99.8872 18.7662 99.7021 18.7521 99.517 18.7521C99.0904 18.7521 98.71 18.8426 98.376 19.0237C98.046 19.2008 97.7844 19.4483 97.5912 19.7663C97.398 20.0802 97.3014 20.4384 97.3014 20.8408V26.5035H95.4964ZM106.897 17.2308V18.6796H101.832V17.2308H106.897ZM103.19 15.0092H104.995V23.7808C104.995 24.131 105.048 24.3946 105.152 24.5717C105.257 24.7447 105.392 24.8635 105.557 24.9279C105.726 24.9882 105.909 25.0184 106.106 25.0184C106.251 25.0184 106.378 25.0083 106.487 24.9882C106.595 24.9681 106.68 24.952 106.74 24.9399L107.066 26.431C106.962 26.4713 106.813 26.5115 106.619 26.5518C106.426 26.5961 106.185 26.6202 105.895 26.6242C105.42 26.6323 104.977 26.5478 104.567 26.3707C104.156 26.1936 103.824 25.9199 103.571 25.5497C103.317 25.1794 103.19 24.7145 103.19 24.1551V15.0092ZM113.393 26.5035V17.2308H115.125V18.74H115.24C115.433 18.2289 115.749 17.8304 116.188 17.5447C116.627 17.2549 117.152 17.11 117.764 17.11C118.383 17.11 118.903 17.2549 119.321 17.5447C119.744 17.8345 120.056 18.2329 120.257 18.74H120.353C120.575 18.245 120.927 17.8506 121.41 17.5568C121.893 17.2589 122.468 17.11 123.136 17.11C123.978 17.11 124.664 17.3736 125.195 17.9009C125.73 18.4281 125.998 19.223 125.998 20.2855V26.5035H124.193V20.4545C124.193 19.8266 124.022 19.3719 123.68 19.0901C123.338 18.8084 122.929 18.6676 122.454 18.6676C121.867 18.6676 121.41 18.8487 121.084 19.2109C120.758 19.5691 120.595 20.0299 120.595 20.5933V26.5035H118.796V20.3398C118.796 19.8367 118.639 19.4322 118.325 19.1264C118.011 18.8205 117.603 18.6676 117.1 18.6676C116.757 18.6676 116.441 18.7581 116.152 18.9392C115.866 19.1163 115.635 19.3638 115.457 19.6818C115.284 19.9997 115.198 20.368 115.198 20.7865V26.5035H113.393ZM132.414 26.6906C131.5 26.6906 130.713 26.4954 130.053 26.1051C129.397 25.7106 128.89 25.1573 128.532 24.4449C128.178 23.7285 128.001 22.8894 128.001 21.9275C128.001 20.9777 128.178 20.1406 128.532 19.4161C128.89 18.6917 129.389 18.1262 130.029 17.7198C130.673 17.3133 131.426 17.11 132.287 17.11C132.81 17.11 133.317 17.1966 133.808 17.3696C134.299 17.5427 134.74 17.8143 135.13 18.1846C135.521 18.5549 135.829 19.0358 136.054 19.6274C136.279 20.215 136.392 20.9294 136.392 21.7705V22.4105H129.021V21.0582H134.623C134.623 20.5833 134.527 20.1627 134.333 19.7965C134.14 19.4262 133.869 19.1344 133.518 18.9211C133.172 18.7078 132.766 18.6011 132.299 18.6011C131.792 18.6011 131.349 18.7259 130.971 18.9754C130.597 19.2209 130.307 19.5429 130.102 19.9413C129.9 20.3358 129.8 20.7644 129.8 21.2272V22.2837C129.8 22.9035 129.908 23.4307 130.126 23.8654C130.347 24.3 130.655 24.632 131.049 24.8614C131.444 25.0868 131.905 25.1995 132.432 25.1995C132.774 25.1995 133.086 25.1512 133.368 25.0546C133.649 24.954 133.893 24.8051 134.098 24.6079C134.303 24.4107 134.46 24.1672 134.569 23.8774L136.277 24.1853C136.141 24.6884 135.895 25.1291 135.541 25.5074C135.191 25.8817 134.75 26.1735 134.219 26.3828C133.692 26.588 133.09 26.6906 132.414 26.6906ZM146.8 26.6906C145.93 26.6906 145.172 26.4914 144.524 26.093C143.876 25.6945 143.373 25.1371 143.015 24.4207C142.656 23.7044 142.477 22.8672 142.477 21.9094C142.477 20.9475 142.656 20.1064 143.015 19.3859C143.373 18.6655 143.876 18.1061 144.524 17.7077C145.172 17.3092 145.93 17.11 146.8 17.11C147.669 17.11 148.428 17.3092 149.076 17.7077C149.724 18.1061 150.227 18.6655 150.585 19.3859C150.943 20.1064 151.122 20.9475 151.122 21.9094C151.122 22.8672 150.943 23.7044 150.585 24.4207C150.227 25.1371 149.724 25.6945 149.076 26.093C148.428 26.4914 147.669 26.6906 146.8 26.6906ZM146.806 25.1754C147.369 25.1754 147.836 25.0265 148.206 24.7286C148.577 24.4308 148.85 24.0344 149.027 23.5394C149.208 23.0443 149.299 22.499 149.299 21.9033C149.299 21.3117 149.208 20.7684 149.027 20.2734C148.85 19.7743 148.577 19.3739 148.206 19.072C147.836 18.7702 147.369 18.6193 146.806 18.6193C146.238 18.6193 145.767 18.7702 145.393 19.072C145.023 19.3739 144.747 19.7743 144.566 20.2734C144.389 20.7684 144.3 21.3117 144.3 21.9033C144.3 22.499 144.389 23.0443 144.566 23.5394C144.747 24.0344 145.023 24.4308 145.393 24.7286C145.767 25.0265 146.238 25.1754 146.806 25.1754ZM154.942 20.9978V26.5035H153.137V17.2308H154.87V18.74H154.984C155.198 18.249 155.532 17.8546 155.986 17.5568C156.445 17.2589 157.023 17.11 157.719 17.11C158.351 17.11 158.904 17.2428 159.379 17.5085C159.854 17.7701 160.222 18.1605 160.484 18.6796C160.746 19.1988 160.876 19.8407 160.876 20.6054V26.5035H159.071V20.8227C159.071 20.1506 158.896 19.6254 158.546 19.2471C158.196 18.8648 157.715 18.6736 157.103 18.6736C156.685 18.6736 156.312 18.7641 155.986 18.9453C155.664 19.1264 155.409 19.392 155.22 19.7421C155.035 20.0882 154.942 20.5068 154.942 20.9978Z" fill="#E8E8E8"/>
<path d="M167.94 26.5035V14.1399H170.929V19.3678H171.092L175.179 14.1399H178.698L174.315 19.6576L178.777 26.5035H175.203L172.124 21.6438L170.929 23.153V26.5035H167.94ZM183.525 26.6786C182.551 26.6786 181.714 26.4793 181.013 26.0809C180.317 25.6784 179.78 25.119 179.401 24.4026C179.027 23.6822 178.84 22.8471 178.84 21.8973C178.84 20.9435 179.027 20.1084 179.401 19.392C179.78 18.6716 180.317 18.1122 181.013 17.7137C181.714 17.3113 182.551 17.11 183.525 17.11C184.499 17.11 185.334 17.3113 186.03 17.7137C186.73 18.1122 187.268 18.6716 187.642 19.392C188.02 20.1084 188.209 20.9435 188.209 21.8973C188.209 22.8471 188.02 23.6822 187.642 24.4026C187.268 25.119 186.73 25.6784 186.03 26.0809C185.334 26.4793 184.499 26.6786 183.525 26.6786ZM183.543 24.4509C183.897 24.4509 184.197 24.3423 184.442 24.1249C184.688 23.9076 184.875 23.6058 185.004 23.2194C185.137 22.833 185.203 22.3863 185.203 21.8792C185.203 21.364 185.137 20.9133 185.004 20.5269C184.875 20.1406 184.688 19.8387 184.442 19.6214C184.197 19.4041 183.897 19.2954 183.543 19.2954C183.177 19.2954 182.867 19.4041 182.613 19.6214C182.364 19.8387 182.172 20.1406 182.04 20.5269C181.911 20.9133 181.846 21.364 181.846 21.8792C181.846 22.3863 181.911 22.833 182.04 23.2194C182.172 23.6058 182.364 23.9076 182.613 24.1249C182.867 24.3423 183.177 24.4509 183.543 24.4509ZM195.656 20.3639V22.6399H189.933V20.3639H195.656ZM203.01 17.2308V19.4041H197.046V17.2308H203.01ZM198.29 26.5035V16.7599C198.29 16.0435 198.424 15.4499 198.694 14.979C198.964 14.5041 199.338 14.1499 199.817 13.9165C200.296 13.679 200.849 13.5603 201.477 13.5603C201.888 13.5603 202.274 13.5925 202.636 13.6569C203.002 13.7173 203.274 13.7716 203.451 13.8199L202.98 15.9811C202.872 15.9449 202.739 15.9147 202.582 15.8906C202.429 15.8664 202.284 15.8543 202.147 15.8543C201.801 15.8543 201.564 15.9308 201.435 16.0837C201.306 16.2367 201.242 16.446 201.242 16.7116V26.5035H198.29ZM204.431 26.5035V17.2308H207.383V26.5035H204.431ZM205.91 16.1502C205.495 16.1502 205.139 16.0133 204.841 15.7396C204.543 15.4619 204.394 15.1279 204.394 14.7375C204.394 14.3511 204.543 14.0211 204.841 13.7475C205.139 13.4698 205.495 13.3309 205.91 13.3309C206.328 13.3309 206.684 13.4698 206.978 13.7475C207.276 14.0211 207.425 14.3511 207.425 14.7375C207.425 15.1279 207.276 15.4619 206.978 15.7396C206.684 16.0133 206.328 16.1502 205.91 16.1502Z" fill="#FF5E5B"/>
</g>
<rect x="1.0746" y="1.07422" width="214.858" height="37.8585" rx="6.92857" stroke="white" stroke-opacity="0.15" stroke-width="2.14286"/>
<defs>
<filter id="filter0_d_28_2464" x="1.84699" y="0.402512" width="42.3134" height="39.202" filterUnits="userSpaceOnUse" color-interpolation-filters="sRGB">
<feFlood flood-opacity="0" result="BackgroundImageFix"/>
<feColorMatrix in="SourceAlpha" type="matrix" values="0 0 0 0 0 0 0 0 0 0 0 0 0 0 0 0 0 0 127 0" result="hardAlpha"/>
<feOffset/>
<feGaussianBlur stdDeviation="2.80014"/>
<feComposite in2="hardAlpha" operator="out"/>
<feColorMatrix type="matrix" values="0 0 0 0 0 0 0 0 0 0 0 0 0 0 0 0 0 0 0.25 0"/>
<feBlend mode="normal" in2="BackgroundImageFix" result="effect1_dropShadow_28_2464"/>
<feBlend mode="normal" in="SourceGraphic" in2="effect1_dropShadow_28_2464" result="shape"/>
</filter>
<filter id="filter1_d_28_2464" x="36.2904" y="3.78921" width="178.429" height="32.4286" filterUnits="userSpaceOnUse" color-interpolation-filters="sRGB">
<feFlood flood-opacity="0" result="BackgroundImageFix"/>
<feColorMatrix in="SourceAlpha" type="matrix" values="0 0 0 0 0 0 0 0 0 0 0 0 0 0 0 0 0 0 127 0" result="hardAlpha"/>
<feOffset/>
<feGaussianBlur stdDeviation="2.85714"/>
<feComposite in2="hardAlpha" operator="out"/>
<feColorMatrix type="matrix" values="0 0 0 0 0 0 0 0 0 0 0 0 0 0 0 0 0 0 0.25 0"/>
<feBlend mode="normal" in2="BackgroundImageFix" result="effect1_dropShadow_28_2464"/>
<feBlend mode="normal" in="SourceGraphic" in2="effect1_dropShadow_28_2464" result="shape"/>
</filter>
<linearGradient id="paint0_linear_28_2464" x1="108.504" y1="0.00279236" x2="108.504" y2="40.0042" gradientUnits="userSpaceOnUse">
<stop stop-color="#002634"/>
<stop offset="1" stop-color="#00161F"/>
</linearGradient>
</defs>
</svg>
