<svg width="244" height="41" viewBox="0 0 244 41" fill="none" xmlns="http://www.w3.org/2000/svg">
<rect x="0.00317383" y="0.0111694" width="243.001" height="40.0014" rx="8" fill="url(#paint0_linear_28_2514)"/>
<g filter="url(#filter0_d_28_2514)">
<path d="M10.5032 9.01141V31.0126H14.5475V9.01141H10.5032ZM25.2479 9.01141C20.6821 9.01141 16.9665 12.7165 16.9665 17.2714C16.9665 21.812 20.6821 25.5056 25.2479 25.5056C29.8002 25.5056 33.5043 21.812 33.5043 17.2714C33.5043 12.7165 29.8011 9.01141 25.2479 9.01141Z" fill="#FF424E"/>
</g>
<g filter="url(#filter1_d_28_2514)">
<path d="M52.1062 17.3961C52.0418 16.8246 51.7762 16.3819 51.3093 16.068C50.8425 15.75 50.2549 15.5911 49.5465 15.5911C49.0394 15.5911 48.6008 15.6716 48.2305 15.8325C47.8602 15.9895 47.5725 16.2068 47.3672 16.4845C47.166 16.7582 47.0654 17.0701 47.0654 17.4202C47.0654 17.714 47.1338 17.9676 47.2706 18.1809C47.4115 18.3942 47.5946 18.5733 47.82 18.7182C48.0494 18.8591 48.2949 18.9778 48.5565 19.0744C48.8181 19.1669 49.0696 19.2434 49.3111 19.3038L50.5185 19.6177C50.9129 19.7143 51.3174 19.8451 51.7319 20.0101C52.1464 20.1751 52.5308 20.3924 52.885 20.6621C53.2391 20.9317 53.5249 21.2658 53.7422 21.6642C53.9636 22.0626 54.0742 22.5396 54.0742 23.095C54.0742 23.7952 53.8931 24.4171 53.5309 24.9604C53.1727 25.5037 52.6515 25.9323 51.9673 26.2462C51.2872 26.5602 50.4642 26.7171 49.4982 26.7171C48.5726 26.7171 47.7717 26.5702 47.0955 26.2764C46.4194 25.9826 45.8902 25.5661 45.5078 25.0268C45.1255 24.4835 44.9142 23.8395 44.874 23.095H46.7454C46.7816 23.5417 46.9265 23.914 47.1801 24.2118C47.4376 24.5056 47.7656 24.7249 48.1641 24.8698C48.5665 25.0107 49.0072 25.0811 49.4862 25.0811C50.0134 25.0811 50.4823 24.9986 50.8928 24.8336C51.3073 24.6646 51.6333 24.4311 51.8708 24.1333C52.1082 23.8315 52.2269 23.4793 52.2269 23.0769C52.2269 22.7106 52.1223 22.4108 51.913 22.1774C51.7078 21.9439 51.4281 21.7507 51.0739 21.5978C50.7237 21.4449 50.3273 21.31 49.8846 21.1933L48.4237 20.7949C47.4336 20.5252 46.6488 20.1288 46.0693 19.6056C45.4937 19.0824 45.206 18.3902 45.206 17.5289C45.206 16.8166 45.3992 16.1948 45.7855 15.6635C46.1719 15.1323 46.6951 14.7197 47.3551 14.4259C48.0152 14.1281 48.7597 13.9792 49.5888 13.9792C50.4259 13.9792 51.1644 14.1261 51.8044 14.4199C52.4483 14.7137 52.9554 15.1182 53.3257 15.6333C53.6959 16.1444 53.8891 16.732 53.9052 17.3961H52.1062ZM62.0324 22.6663V17.2391H63.8435V26.5119H62.0686V24.906H61.9721C61.7587 25.4011 61.4167 25.8136 60.9458 26.1436C60.4789 26.4696 59.8974 26.6326 59.2011 26.6326C58.6055 26.6326 58.0782 26.5018 57.6194 26.2402C57.1646 25.9746 56.8065 25.5822 56.5449 25.063C56.2873 24.5438 56.1585 23.9019 56.1585 23.1372V17.2391H57.9635V22.9199C57.9635 23.5518 58.1386 24.0548 58.4887 24.4291C58.8389 24.8034 59.2937 24.9906 59.8531 24.9906C60.1912 24.9906 60.5272 24.906 60.8613 24.737C61.1993 24.568 61.479 24.3124 61.7004 23.9703C61.9258 23.6282 62.0364 23.1936 62.0324 22.6663ZM66.2688 29.9891V17.2391H68.0316V18.7423H68.1825C68.2872 18.5492 68.4381 18.3258 68.6353 18.0722C68.8325 17.8187 69.1062 17.5973 69.4563 17.4082C69.8065 17.215 70.2693 17.1184 70.8448 17.1184C71.5934 17.1184 72.2615 17.3076 72.8491 17.6859C73.4367 18.0642 73.8975 18.6095 74.2315 19.3219C74.5696 20.0342 74.7387 20.8915 74.7387 21.8936C74.7387 22.8957 74.5716 23.755 74.2376 24.4714C73.9035 25.1837 73.4447 25.7331 72.8612 26.1195C72.2776 26.5018 71.6115 26.693 70.8629 26.693C70.2995 26.693 69.8387 26.5984 69.4805 26.4092C69.1263 26.2201 68.8486 25.9987 68.6474 25.7452C68.4462 25.4916 68.2912 25.2662 68.1825 25.069H68.0739V29.9891H66.2688ZM68.0377 21.8755C68.0377 22.5275 68.1322 23.099 68.3214 23.59C68.5106 24.081 68.7842 24.4653 69.1424 24.743C69.5006 25.0167 69.9393 25.1536 70.4585 25.1536C70.9978 25.1536 71.4485 25.0107 71.8107 24.7249C72.173 24.4352 72.4466 24.0428 72.6318 23.5477C72.8209 23.0527 72.9155 22.4953 72.9155 21.8755C72.9155 21.2638 72.8229 20.7144 72.6378 20.2274C72.4567 19.7404 72.183 19.3561 71.8168 19.0744C71.4546 18.7926 71.0018 18.6518 70.4585 18.6518C69.9353 18.6518 69.4926 18.7866 69.1303 19.0563C68.7722 19.3259 68.5005 19.7022 68.3154 20.1852C68.1302 20.6681 68.0377 21.2316 68.0377 21.8755ZM76.761 29.9891V17.2391H78.5238V18.7423H78.6747C78.7794 18.5492 78.9303 18.3258 79.1275 18.0722C79.3247 17.8187 79.5984 17.5973 79.9485 17.4082C80.2987 17.215 80.7615 17.1184 81.337 17.1184C82.0856 17.1184 82.7537 17.3076 83.3413 17.6859C83.9289 18.0642 84.3897 18.6095 84.7237 19.3219C85.0618 20.0342 85.2308 20.8915 85.2308 21.8936C85.2308 22.8957 85.0638 23.755 84.7298 24.4714C84.3957 25.1837 83.9369 25.7331 83.3533 26.1195C82.7698 26.5018 82.1037 26.693 81.3551 26.693C80.7917 26.693 80.3309 26.5984 79.9727 26.4092C79.6185 26.2201 79.3408 25.9987 79.1396 25.7452C78.9383 25.4916 78.7834 25.2662 78.6747 25.069H78.5661V29.9891H76.761ZM78.5298 21.8755C78.5298 22.5275 78.6244 23.099 78.8136 23.59C79.0027 24.081 79.2764 24.4653 79.6346 24.743C79.9928 25.0167 80.4315 25.1536 80.9507 25.1536C81.4899 25.1536 81.9407 25.0107 82.3029 24.7249C82.6651 24.4352 82.9388 24.0428 83.1239 23.5477C83.3131 23.0527 83.4077 22.4953 83.4077 21.8755C83.4077 21.2638 83.3151 20.7144 83.13 20.2274C82.9489 19.7404 82.6752 19.3561 82.309 19.0744C81.9467 18.7926 81.494 18.6518 80.9507 18.6518C80.4274 18.6518 79.9847 18.7866 79.6225 19.0563C79.2643 19.3259 78.9927 19.7022 78.8075 20.1852C78.6224 20.6681 78.5298 21.2316 78.5298 21.8755ZM91.1591 26.699C90.2898 26.699 89.5311 26.4998 88.8832 26.1014C88.2352 25.7029 87.7321 25.1455 87.3739 24.4291C87.0158 23.7127 86.8367 22.8756 86.8367 21.9178C86.8367 20.9559 87.0158 20.1147 87.3739 19.3943C87.7321 18.6739 88.2352 18.1145 88.8832 17.7161C89.5311 17.3176 90.2898 17.1184 91.1591 17.1184C92.0284 17.1184 92.7871 17.3176 93.435 17.7161C94.083 18.1145 94.5861 18.6739 94.9443 19.3943C95.3024 20.1147 95.4815 20.9559 95.4815 21.9178C95.4815 22.8756 95.3024 23.7127 94.9443 24.4291C94.5861 25.1455 94.083 25.7029 93.435 26.1014C92.7871 26.4998 92.0284 26.699 91.1591 26.699ZM91.1651 25.1837C91.7286 25.1837 92.1954 25.0348 92.5657 24.737C92.936 24.4392 93.2096 24.0428 93.3867 23.5477C93.5678 23.0527 93.6584 22.5074 93.6584 21.9117C93.6584 21.3201 93.5678 20.7768 93.3867 20.2818C93.2096 19.7827 92.936 19.3823 92.5657 19.0804C92.1954 18.7786 91.7286 18.6276 91.1651 18.6276C90.5977 18.6276 90.1268 18.7786 89.7525 19.0804C89.3822 19.3823 89.1065 19.7827 88.9254 20.2818C88.7484 20.7768 88.6598 21.3201 88.6598 21.9117C88.6598 22.5074 88.7484 23.0527 88.9254 23.5477C89.1065 24.0428 89.3822 24.4392 89.7525 24.737C90.1268 25.0348 90.5977 25.1837 91.1651 25.1837ZM97.4964 26.5119V17.2391H99.241V18.7122H99.3376C99.5067 18.2131 99.8045 17.8207 100.231 17.535C100.662 17.2452 101.149 17.1003 101.692 17.1003C101.805 17.1003 101.938 17.1043 102.09 17.1124C102.247 17.1204 102.37 17.1305 102.459 17.1426V18.8691C102.386 18.849 102.257 18.8269 102.072 18.8027C101.887 18.7745 101.702 18.7604 101.517 18.7604C101.09 18.7604 100.71 18.851 100.376 19.0321C100.046 19.2092 99.7844 19.4567 99.5912 19.7747C99.398 20.0886 99.3014 20.4468 99.3014 20.8492V26.5119H97.4964ZM108.897 17.2391V18.688H103.832V17.2391H108.897ZM105.19 15.0176H106.995V23.7892C106.995 24.1394 107.048 24.403 107.152 24.58C107.257 24.7531 107.392 24.8718 107.557 24.9362C107.726 24.9966 107.909 25.0268 108.106 25.0268C108.251 25.0268 108.378 25.0167 108.487 24.9966C108.595 24.9765 108.68 24.9604 108.74 24.9483L109.066 26.4394C108.962 26.4797 108.813 26.5199 108.619 26.5602C108.426 26.6044 108.185 26.6286 107.895 26.6326C107.42 26.6407 106.977 26.5561 106.567 26.3791C106.156 26.202 105.824 25.9283 105.571 25.558C105.317 25.1878 105.19 24.7229 105.19 24.1635V15.0176ZM115.393 26.5119V17.2391H117.125V18.7484H117.24C117.433 18.2372 117.749 17.8388 118.188 17.5531C118.627 17.2633 119.152 17.1184 119.764 17.1184C120.383 17.1184 120.903 17.2633 121.321 17.5531C121.744 17.8428 122.056 18.2413 122.257 18.7484H122.353C122.575 18.2533 122.927 17.8589 123.41 17.5651C123.893 17.2673 124.468 17.1184 125.136 17.1184C125.978 17.1184 126.664 17.382 127.195 17.9092C127.73 18.4365 127.998 19.2313 127.998 20.2938V26.5119H126.193V20.4629C126.193 19.835 126.022 19.3802 125.68 19.0985C125.338 18.8168 124.929 18.6759 124.454 18.6759C123.867 18.6759 123.41 18.857 123.084 19.2193C122.758 19.5774 122.595 20.0383 122.595 20.6017V26.5119H120.796V20.3482C120.796 19.8451 120.639 19.4406 120.325 19.1347C120.011 18.8289 119.603 18.6759 119.1 18.6759C118.757 18.6759 118.441 18.7665 118.152 18.9476C117.866 19.1247 117.635 19.3722 117.457 19.6901C117.284 20.0081 117.198 20.3763 117.198 20.7949V26.5119H115.393ZM134.414 26.699C133.5 26.699 132.713 26.5038 132.053 26.1134C131.397 25.719 130.89 25.1656 130.532 24.4533C130.178 23.7369 130.001 22.8978 130.001 21.9359C130.001 20.9861 130.178 20.1489 130.532 19.4245C130.89 18.7001 131.389 18.1346 132.029 17.7281C132.673 17.3216 133.426 17.1184 134.287 17.1184C134.81 17.1184 135.317 17.2049 135.808 17.378C136.299 17.551 136.74 17.8227 137.13 18.193C137.521 18.5632 137.829 19.0442 138.054 19.6358C138.279 20.2234 138.392 20.9378 138.392 21.7789V22.4188H131.021V21.0666H136.623C136.623 20.5917 136.527 20.1711 136.333 19.8048C136.14 19.4346 135.869 19.1428 135.518 18.9295C135.172 18.7162 134.766 18.6095 134.299 18.6095C133.792 18.6095 133.349 18.7343 132.971 18.9838C132.597 19.2293 132.307 19.5513 132.102 19.9497C131.9 20.3441 131.8 20.7728 131.8 21.2356V22.2921C131.8 22.9118 131.908 23.4391 132.126 23.8737C132.347 24.3084 132.655 24.6404 133.049 24.8698C133.444 25.0952 133.905 25.2079 134.432 25.2079C134.774 25.2079 135.086 25.1596 135.368 25.063C135.649 24.9624 135.893 24.8135 136.098 24.6163C136.303 24.4191 136.46 24.1756 136.569 23.8858L138.277 24.1937C138.141 24.6968 137.895 25.1375 137.541 25.5158C137.191 25.8901 136.75 26.1818 136.219 26.3911C135.692 26.5964 135.09 26.699 134.414 26.699ZM148.8 26.699C147.93 26.699 147.172 26.4998 146.524 26.1014C145.876 25.7029 145.373 25.1455 145.015 24.4291C144.656 23.7127 144.477 22.8756 144.477 21.9178C144.477 20.9559 144.656 20.1147 145.015 19.3943C145.373 18.6739 145.876 18.1145 146.524 17.7161C147.172 17.3176 147.93 17.1184 148.8 17.1184C149.669 17.1184 150.428 17.3176 151.076 17.7161C151.724 18.1145 152.227 18.6739 152.585 19.3943C152.943 20.1147 153.122 20.9559 153.122 21.9178C153.122 22.8756 152.943 23.7127 152.585 24.4291C152.227 25.1455 151.724 25.7029 151.076 26.1014C150.428 26.4998 149.669 26.699 148.8 26.699ZM148.806 25.1837C149.369 25.1837 149.836 25.0348 150.206 24.737C150.577 24.4392 150.85 24.0428 151.027 23.5477C151.208 23.0527 151.299 22.5074 151.299 21.9117C151.299 21.3201 151.208 20.7768 151.027 20.2818C150.85 19.7827 150.577 19.3823 150.206 19.0804C149.836 18.7786 149.369 18.6276 148.806 18.6276C148.238 18.6276 147.767 18.7786 147.393 19.0804C147.023 19.3823 146.747 19.7827 146.566 20.2818C146.389 20.7768 146.3 21.3201 146.3 21.9117C146.3 22.5074 146.389 23.0527 146.566 23.5477C146.747 24.0428 147.023 24.4392 147.393 24.737C147.767 25.0348 148.238 25.1837 148.806 25.1837ZM156.942 21.0062V26.5119H155.137V17.2391H156.87V18.7484H156.984C157.198 18.2574 157.532 17.863 157.986 17.5651C158.445 17.2673 159.023 17.1184 159.719 17.1184C160.351 17.1184 160.904 17.2512 161.379 17.5168C161.854 17.7784 162.222 18.1688 162.484 18.688C162.746 19.2072 162.876 19.8491 162.876 20.6138V26.5119H161.071V20.8311C161.071 20.159 160.896 19.6338 160.546 19.2555C160.196 18.8731 159.715 18.682 159.103 18.682C158.685 18.682 158.312 18.7725 157.986 18.9536C157.664 19.1347 157.409 19.4004 157.22 19.7505C157.035 20.0966 156.942 20.5152 156.942 21.0062Z" fill="#E8E8E8"/>
<path d="M169.94 26.5119V14.1482H175.048C175.973 14.1482 176.772 14.3293 177.444 14.6916C178.12 15.0497 178.642 15.5508 179.008 16.1948C179.374 16.8347 179.557 17.5792 179.557 18.4284C179.557 19.2816 179.37 20.0282 178.996 20.6681C178.625 21.304 178.096 21.797 177.408 22.1472C176.72 22.4973 175.903 22.6724 174.957 22.6724H171.806V20.318H174.402C174.852 20.318 175.229 20.2395 175.531 20.0825C175.836 19.9256 176.068 19.7062 176.225 19.4245C176.382 19.1388 176.46 18.8067 176.46 18.4284C176.46 18.0461 176.382 17.7161 176.225 17.4384C176.068 17.1566 175.836 16.9393 175.531 16.7864C175.225 16.6334 174.848 16.557 174.402 16.557H172.929V26.5119H169.94ZM183.312 26.6688C182.721 26.6688 182.195 26.5702 181.737 26.373C181.282 26.1718 180.922 25.8699 180.656 25.4675C180.394 25.061 180.264 24.5519 180.264 23.9401C180.264 23.425 180.354 22.9903 180.535 22.6362C180.716 22.282 180.966 21.9942 181.284 21.7729C181.602 21.5515 181.968 21.3845 182.382 21.2718C182.797 21.1551 183.24 21.0766 183.711 21.0364C184.238 20.9881 184.662 20.9378 184.984 20.8854C185.306 20.8291 185.54 20.7506 185.685 20.65C185.834 20.5454 185.908 20.3985 185.908 20.2093V20.1791C185.908 19.8692 185.801 19.6298 185.588 19.4607C185.375 19.2917 185.087 19.2072 184.725 19.2072C184.334 19.2072 184.02 19.2917 183.783 19.4607C183.546 19.6298 183.395 19.8632 183.33 20.161L180.608 20.0644C180.688 19.501 180.895 18.9979 181.229 18.5552C181.567 18.1085 182.03 17.7583 182.618 17.5048C183.21 17.2472 183.92 17.1184 184.749 17.1184C185.341 17.1184 185.886 17.1888 186.385 17.3297C186.884 17.4665 187.319 17.6678 187.689 17.9334C188.059 18.195 188.345 18.517 188.546 18.8993C188.751 19.2816 188.854 19.7183 188.854 20.2093V26.5119H186.077V25.22H186.005C185.84 25.5339 185.628 25.7995 185.371 26.0168C185.117 26.2342 184.817 26.3972 184.471 26.5058C184.129 26.6145 183.743 26.6688 183.312 26.6688ZM184.224 24.737C184.542 24.737 184.827 24.6726 185.081 24.5438C185.339 24.415 185.544 24.238 185.697 24.0126C185.85 23.7832 185.926 23.5175 185.926 23.2157V22.3343C185.842 22.3786 185.739 22.4188 185.618 22.455C185.502 22.4913 185.373 22.5255 185.232 22.5577C185.091 22.5899 184.946 22.618 184.797 22.6422C184.648 22.6663 184.505 22.6885 184.369 22.7086C184.091 22.7529 183.853 22.8213 183.656 22.9139C183.463 23.0064 183.314 23.1272 183.21 23.2761C183.109 23.421 183.059 23.594 183.059 23.7952C183.059 24.1011 183.167 24.3345 183.385 24.4955C183.606 24.6565 183.886 24.737 184.224 24.737ZM195.893 17.2391V19.4124H190.043V17.2391H195.893ZM191.269 15.0176H194.221V23.596C194.221 23.7771 194.249 23.924 194.305 24.0367C194.366 24.1454 194.452 24.2239 194.565 24.2722C194.678 24.3164 194.813 24.3386 194.969 24.3386C195.082 24.3386 195.201 24.3285 195.326 24.3084C195.454 24.2842 195.551 24.2641 195.615 24.248L196.062 26.3791C195.921 26.4193 195.722 26.4696 195.465 26.53C195.211 26.5903 194.907 26.6286 194.553 26.6447C193.861 26.6769 193.267 26.5964 192.772 26.4032C192.281 26.206 191.905 25.9001 191.643 25.4856C191.386 25.0711 191.261 24.5499 191.269 23.922V15.0176ZM197.399 26.5119V17.2391H200.267V18.9295H200.363C200.533 18.3177 200.808 17.863 201.191 17.5651C201.573 17.2633 202.018 17.1124 202.525 17.1124C202.662 17.1124 202.802 17.1224 202.947 17.1426C203.092 17.1586 203.227 17.1848 203.352 17.221V19.7867C203.211 19.7384 203.026 19.7002 202.796 19.672C202.571 19.6439 202.37 19.6298 202.193 19.6298C201.843 19.6298 201.527 19.7082 201.245 19.8652C200.967 20.0181 200.748 20.2335 200.587 20.5112C200.43 20.7848 200.351 21.1068 200.351 21.4771V26.5119H197.399ZM208.408 26.6869C207.438 26.6869 206.601 26.4958 205.896 26.1134C205.196 25.7271 204.657 25.1777 204.278 24.4653C203.904 23.749 203.717 22.8978 203.717 21.9117C203.717 20.9539 203.906 20.1167 204.284 19.4004C204.663 18.68 205.196 18.1205 205.884 17.7221C206.572 17.3196 207.383 17.1184 208.317 17.1184C208.977 17.1184 209.581 17.221 210.128 17.4263C210.676 17.6315 211.148 17.9354 211.547 18.3379C211.945 18.7403 212.255 19.2374 212.477 19.829C212.698 20.4166 212.809 21.0907 212.809 21.8514V22.5879H204.749V20.8734H210.062C210.058 20.5595 209.983 20.2797 209.838 20.0342C209.694 19.7887 209.494 19.5976 209.241 19.4607C208.991 19.3199 208.703 19.2494 208.377 19.2494C208.047 19.2494 207.752 19.3239 207.49 19.4728C207.228 19.6177 207.021 19.8169 206.868 20.0705C206.715 20.32 206.635 20.6037 206.627 20.9217V22.6663C206.627 23.0447 206.701 23.3767 206.85 23.6624C206.999 23.9442 207.21 24.1635 207.484 24.3205C207.758 24.4774 208.084 24.5559 208.462 24.5559C208.724 24.5559 208.961 24.5197 209.174 24.4472C209.388 24.3748 209.571 24.2681 209.724 24.1273C209.877 23.9864 209.991 23.8134 210.068 23.6081L212.778 23.6866C212.666 24.2943 212.418 24.8235 212.036 25.2743C211.658 25.721 211.161 26.0692 210.545 26.3187C209.929 26.5642 209.217 26.6869 208.408 26.6869ZM218.645 26.6869C217.671 26.6869 216.834 26.4877 216.133 26.0893C215.437 25.6868 214.9 25.1274 214.522 24.411C214.147 23.6906 213.96 22.8555 213.96 21.9057C213.96 20.9519 214.147 20.1167 214.522 19.4004C214.9 18.68 215.437 18.1205 216.133 17.7221C216.834 17.3196 217.671 17.1184 218.645 17.1184C219.619 17.1184 220.454 17.3196 221.15 17.7221C221.85 18.1205 222.388 18.68 222.762 19.4004C223.14 20.1167 223.329 20.9519 223.329 21.9057C223.329 22.8555 223.14 23.6906 222.762 24.411C222.388 25.1274 221.85 25.6868 221.15 26.0893C220.454 26.4877 219.619 26.6869 218.645 26.6869ZM218.663 24.4593C219.017 24.4593 219.317 24.3506 219.562 24.1333C219.808 23.916 219.995 23.6141 220.124 23.2278C220.257 22.8414 220.323 22.3947 220.323 21.8876C220.323 21.3724 220.257 20.9217 220.124 20.5353C219.995 20.1489 219.808 19.8471 219.562 19.6298C219.317 19.4124 219.017 19.3038 218.663 19.3038C218.297 19.3038 217.987 19.4124 217.733 19.6298C217.484 19.8471 217.293 20.1489 217.16 20.5353C217.031 20.9217 216.967 21.3724 216.967 21.8876C216.967 22.3947 217.031 22.8414 217.16 23.2278C217.293 23.6141 217.484 23.916 217.733 24.1333C217.987 24.3506 218.297 24.4593 218.663 24.4593ZM227.794 21.2235V26.5119H224.842V17.2391H227.649V18.9416H227.752C227.957 18.3741 228.307 17.9294 228.802 17.6074C229.297 17.2814 229.887 17.1184 230.571 17.1184C231.223 17.1184 231.788 17.2653 232.267 17.5591C232.75 17.8489 233.124 18.2554 233.39 18.7786C233.66 19.2977 233.792 19.9055 233.788 20.6017V26.5119H230.836V21.1813C230.84 20.6661 230.71 20.2636 230.444 19.9739C230.182 19.6841 229.818 19.5392 229.351 19.5392C229.041 19.5392 228.768 19.6076 228.53 19.7445C228.297 19.8773 228.116 20.0684 227.987 20.318C227.862 20.5675 227.798 20.8693 227.794 21.2235Z" fill="#FF424E"/>
</g>
<rect x="1.0746" y="1.0826" width="240.858" height="37.8585" rx="6.92857" stroke="white" stroke-opacity="0.15" stroke-width="2.14286"/>
<defs>
<filter id="filter0_d_28_2514" x="2.40289" y="0.410889" width="39.202" height="39.202" filterUnits="userSpaceOnUse" color-interpolation-filters="sRGB">
<feFlood flood-opacity="0" result="BackgroundImageFix"/>
<feColorMatrix in="SourceAlpha" type="matrix" values="0 0 0 0 0 0 0 0 0 0 0 0 0 0 0 0 0 0 127 0" result="hardAlpha"/>
<feOffset/>
<feGaussianBlur stdDeviation="2.80014"/>
<feComposite in2="hardAlpha" operator="out"/>
<feColorMatrix type="matrix" values="0 0 0 0 0 0 0 0 0 0 0 0 0 0 0 0 0 0 0.25 0"/>
<feBlend mode="normal" in2="BackgroundImageFix" result="effect1_dropShadow_28_2514"/>
<feBlend mode="normal" in="SourceGraphic" in2="effect1_dropShadow_28_2514" result="shape"/>
</filter>
<filter id="filter1_d_28_2514" x="38.2904" y="3.79759" width="202.429" height="32.4286" filterUnits="userSpaceOnUse" color-interpolation-filters="sRGB">
<feFlood flood-opacity="0" result="BackgroundImageFix"/>
<feColorMatrix in="SourceAlpha" type="matrix" values="0 0 0 0 0 0 0 0 0 0 0 0 0 0 0 0 0 0 127 0" result="hardAlpha"/>
<feOffset/>
<feGaussianBlur stdDeviation="2.85714"/>
<feComposite in2="hardAlpha" operator="out"/>
<feColorMatrix type="matrix" values="0 0 0 0 0 0 0 0 0 0 0 0 0 0 0 0 0 0 0.25 0"/>
<feBlend mode="normal" in2="BackgroundImageFix" result="effect1_dropShadow_28_2514"/>
<feBlend mode="normal" in="SourceGraphic" in2="effect1_dropShadow_28_2514" result="shape"/>
</filter>
<linearGradient id="paint0_linear_28_2514" x1="121.504" y1="0.0111694" x2="121.504" y2="40.0126" gradientUnits="userSpaceOnUse">
<stop stop-color="#300B0D"/>
<stop offset="1" stop-color="#210709"/>
</linearGradient>
</defs>
</svg>
