<svg width="242" height="41" viewBox="0 0 242 41" fill="none" xmlns="http://www.w3.org/2000/svg">
<rect x="0.00317383" y="0.0111694" width="241.001" height="40.0014" rx="8" fill="url(#paint0_linear_28_2514)"/>
<g filter="url(#filter0_d_28_2514)">
<path d="M10.5032 9.01141V31.0126H14.5475V9.01141H10.5032ZM25.2479 9.01141C20.6821 9.01141 16.9665 12.7165 16.9665 17.2714C16.9665 21.812 20.6821 25.5056 25.2479 25.5056C29.8002 25.5056 33.5043 21.812 33.5043 17.2714C33.5043 12.7165 29.8011 9.01141 25.2479 9.01141Z" fill="#FF424E"/>
</g>
<g filter="url(#filter1_d_28_2514)">
<path d="M50.1062 17.3961C50.0418 16.8246 49.7762 16.3819 49.3093 16.068C48.8425 15.75 48.2549 15.5911 47.5465 15.5911C47.0394 15.5911 46.6008 15.6716 46.2305 15.8325C45.8602 15.9895 45.5725 16.2068 45.3672 16.4845C45.166 16.7582 45.0654 17.0701 45.0654 17.4202C45.0654 17.714 45.1338 17.9676 45.2706 18.1809C45.4115 18.3942 45.5946 18.5733 45.82 18.7182C46.0494 18.8591 46.2949 18.9778 46.5565 19.0744C46.8181 19.1669 47.0696 19.2434 47.3111 19.3038L48.5185 19.6177C48.9129 19.7143 49.3174 19.8451 49.7319 20.0101C50.1464 20.1751 50.5308 20.3924 50.885 20.6621C51.2391 20.9317 51.5249 21.2658 51.7422 21.6642C51.9636 22.0626 52.0742 22.5396 52.0742 23.095C52.0742 23.7952 51.8931 24.4171 51.5309 24.9604C51.1727 25.5037 50.6515 25.9323 49.9673 26.2462C49.2872 26.5602 48.4642 26.7171 47.4982 26.7171C46.5726 26.7171 45.7717 26.5702 45.0955 26.2764C44.4194 25.9826 43.8902 25.5661 43.5078 25.0268C43.1255 24.4835 42.9142 23.8395 42.874 23.095H44.7454C44.7816 23.5417 44.9265 23.914 45.1801 24.2118C45.4376 24.5056 45.7656 24.7249 46.1641 24.8698C46.5665 25.0107 47.0072 25.0811 47.4862 25.0811C48.0134 25.0811 48.4823 24.9986 48.8928 24.8336C49.3073 24.6646 49.6333 24.4311 49.8708 24.1333C50.1082 23.8315 50.2269 23.4793 50.2269 23.0769C50.2269 22.7106 50.1223 22.4108 49.913 22.1774C49.7078 21.9439 49.4281 21.7507 49.0739 21.5978C48.7237 21.4449 48.3273 21.31 47.8846 21.1933L46.4237 20.7949C45.4336 20.5252 44.6488 20.1288 44.0693 19.6056C43.4937 19.0824 43.206 18.3902 43.206 17.5289C43.206 16.8166 43.3992 16.1948 43.7855 15.6635C44.1719 15.1323 44.6951 14.7197 45.3551 14.4259C46.0152 14.1281 46.7597 13.9792 47.5888 13.9792C48.4259 13.9792 49.1644 14.1261 49.8044 14.4199C50.4483 14.7137 50.9554 15.1182 51.3257 15.6333C51.6959 16.1444 51.8891 16.732 51.9052 17.3961H50.1062ZM60.0324 22.6663V17.2391H61.8435V26.5119H60.0686V24.906H59.9721C59.7587 25.4011 59.4167 25.8136 58.9458 26.1436C58.4789 26.4696 57.8974 26.6326 57.2011 26.6326C56.6055 26.6326 56.0782 26.5018 55.6194 26.2402C55.1646 25.9746 54.8065 25.5822 54.5449 25.063C54.2873 24.5438 54.1585 23.9019 54.1585 23.1372V17.2391H55.9635V22.9199C55.9635 23.5518 56.1386 24.0548 56.4887 24.4291C56.8389 24.8034 57.2937 24.9906 57.8531 24.9906C58.1912 24.9906 58.5272 24.906 58.8613 24.737C59.1993 24.568 59.479 24.3124 59.7004 23.9703C59.9258 23.6282 60.0364 23.1936 60.0324 22.6663ZM64.2688 29.9891V17.2391H66.0316V18.7423H66.1825C66.2872 18.5492 66.4381 18.3258 66.6353 18.0722C66.8325 17.8187 67.1062 17.5973 67.4563 17.4082C67.8065 17.215 68.2693 17.1184 68.8448 17.1184C69.5934 17.1184 70.2615 17.3076 70.8491 17.6859C71.4367 18.0642 71.8975 18.6095 72.2315 19.3219C72.5696 20.0342 72.7387 20.8915 72.7387 21.8936C72.7387 22.8957 72.5716 23.755 72.2376 24.4714C71.9035 25.1837 71.4447 25.7331 70.8612 26.1195C70.2776 26.5018 69.6115 26.693 68.8629 26.693C68.2995 26.693 67.8387 26.5984 67.4805 26.4092C67.1263 26.2201 66.8486 25.9987 66.6474 25.7452C66.4462 25.4916 66.2912 25.2662 66.1825 25.069H66.0739V29.9891H64.2688ZM66.0377 21.8755C66.0377 22.5275 66.1322 23.099 66.3214 23.59C66.5106 24.081 66.7842 24.4653 67.1424 24.743C67.5006 25.0167 67.9393 25.1536 68.4585 25.1536C68.9978 25.1536 69.4485 25.0107 69.8107 24.7249C70.173 24.4352 70.4466 24.0428 70.6318 23.5477C70.8209 23.0527 70.9155 22.4953 70.9155 21.8755C70.9155 21.2638 70.8229 20.7144 70.6378 20.2274C70.4567 19.7404 70.183 19.3561 69.8168 19.0744C69.4546 18.7926 69.0018 18.6518 68.4585 18.6518C67.9353 18.6518 67.4926 18.7866 67.1303 19.0563C66.7722 19.3259 66.5005 19.7022 66.3154 20.1852C66.1302 20.6681 66.0377 21.2316 66.0377 21.8755ZM74.761 29.9891V17.2391H76.5238V18.7423H76.6747C76.7794 18.5492 76.9303 18.3258 77.1275 18.0722C77.3247 17.8187 77.5984 17.5973 77.9485 17.4082C78.2987 17.215 78.7615 17.1184 79.337 17.1184C80.0856 17.1184 80.7537 17.3076 81.3413 17.6859C81.9289 18.0642 82.3897 18.6095 82.7237 19.3219C83.0618 20.0342 83.2308 20.8915 83.2308 21.8936C83.2308 22.8957 83.0638 23.755 82.7298 24.4714C82.3957 25.1837 81.9369 25.7331 81.3533 26.1195C80.7698 26.5018 80.1037 26.693 79.3551 26.693C78.7917 26.693 78.3309 26.5984 77.9727 26.4092C77.6185 26.2201 77.3408 25.9987 77.1396 25.7452C76.9383 25.4916 76.7834 25.2662 76.6747 25.069H76.5661V29.9891H74.761ZM76.5298 21.8755C76.5298 22.5275 76.6244 23.099 76.8136 23.59C77.0027 24.081 77.2764 24.4653 77.6346 24.743C77.9928 25.0167 78.4315 25.1536 78.9507 25.1536C79.4899 25.1536 79.9407 25.0107 80.3029 24.7249C80.6651 24.4352 80.9388 24.0428 81.1239 23.5477C81.3131 23.0527 81.4077 22.4953 81.4077 21.8755C81.4077 21.2638 81.3151 20.7144 81.13 20.2274C80.9489 19.7404 80.6752 19.3561 80.309 19.0744C79.9467 18.7926 79.494 18.6518 78.9507 18.6518C78.4274 18.6518 77.9847 18.7866 77.6225 19.0563C77.2643 19.3259 76.9927 19.7022 76.8075 20.1852C76.6224 20.6681 76.5298 21.2316 76.5298 21.8755ZM89.1591 26.699C88.2898 26.699 87.5311 26.4998 86.8832 26.1014C86.2352 25.7029 85.7321 25.1455 85.3739 24.4291C85.0158 23.7127 84.8367 22.8756 84.8367 21.9178C84.8367 20.9559 85.0158 20.1147 85.3739 19.3943C85.7321 18.6739 86.2352 18.1145 86.8832 17.7161C87.5311 17.3176 88.2898 17.1184 89.1591 17.1184C90.0284 17.1184 90.7871 17.3176 91.435 17.7161C92.083 18.1145 92.5861 18.6739 92.9443 19.3943C93.3024 20.1147 93.4815 20.9559 93.4815 21.9178C93.4815 22.8756 93.3024 23.7127 92.9443 24.4291C92.5861 25.1455 92.083 25.7029 91.435 26.1014C90.7871 26.4998 90.0284 26.699 89.1591 26.699ZM89.1651 25.1837C89.7286 25.1837 90.1954 25.0348 90.5657 24.737C90.936 24.4392 91.2096 24.0428 91.3867 23.5477C91.5678 23.0527 91.6584 22.5074 91.6584 21.9117C91.6584 21.3201 91.5678 20.7768 91.3867 20.2818C91.2096 19.7827 90.936 19.3823 90.5657 19.0804C90.1954 18.7786 89.7286 18.6276 89.1651 18.6276C88.5977 18.6276 88.1268 18.7786 87.7525 19.0804C87.3822 19.3823 87.1065 19.7827 86.9254 20.2818C86.7484 20.7768 86.6598 21.3201 86.6598 21.9117C86.6598 22.5074 86.7484 23.0527 86.9254 23.5477C87.1065 24.0428 87.3822 24.4392 87.7525 24.737C88.1268 25.0348 88.5977 25.1837 89.1651 25.1837ZM95.4964 26.5119V17.2391H97.241V18.7122H97.3376C97.5067 18.2131 97.8045 17.8207 98.2311 17.535C98.6617 17.2452 99.1487 17.1003 99.692 17.1003C99.8047 17.1003 99.9375 17.1043 100.09 17.1124C100.247 17.1204 100.37 17.1305 100.459 17.1426V18.8691C100.386 18.849 100.257 18.8269 100.072 18.8027C99.8872 18.7745 99.7021 18.7604 99.517 18.7604C99.0904 18.7604 98.71 18.851 98.376 19.0321C98.046 19.2092 97.7844 19.4567 97.5912 19.7747C97.398 20.0886 97.3014 20.4468 97.3014 20.8492V26.5119H95.4964ZM106.897 17.2391V18.688H101.832V17.2391H106.897ZM103.19 15.0176H104.995V23.7892C104.995 24.1394 105.048 24.403 105.152 24.58C105.257 24.7531 105.392 24.8718 105.557 24.9362C105.726 24.9966 105.909 25.0268 106.106 25.0268C106.251 25.0268 106.378 25.0167 106.487 24.9966C106.595 24.9765 106.68 24.9604 106.74 24.9483L107.066 26.4394C106.962 26.4797 106.813 26.5199 106.619 26.5602C106.426 26.6044 106.185 26.6286 105.895 26.6326C105.42 26.6407 104.977 26.5561 104.567 26.3791C104.156 26.202 103.824 25.9283 103.571 25.558C103.317 25.1878 103.19 24.7229 103.19 24.1635V15.0176ZM113.393 26.5119V17.2391H115.125V18.7484H115.24C115.433 18.2372 115.749 17.8388 116.188 17.5531C116.627 17.2633 117.152 17.1184 117.764 17.1184C118.383 17.1184 118.903 17.2633 119.321 17.5531C119.744 17.8428 120.056 18.2413 120.257 18.7484H120.353C120.575 18.2533 120.927 17.8589 121.41 17.5651C121.893 17.2673 122.468 17.1184 123.136 17.1184C123.978 17.1184 124.664 17.382 125.195 17.9092C125.73 18.4365 125.998 19.2313 125.998 20.2938V26.5119H124.193V20.4629C124.193 19.835 124.022 19.3802 123.68 19.0985C123.338 18.8168 122.929 18.6759 122.454 18.6759C121.867 18.6759 121.41 18.857 121.084 19.2193C120.758 19.5774 120.595 20.0383 120.595 20.6017V26.5119H118.796V20.3482C118.796 19.8451 118.639 19.4406 118.325 19.1347C118.011 18.8289 117.603 18.6759 117.1 18.6759C116.757 18.6759 116.441 18.7665 116.152 18.9476C115.866 19.1247 115.635 19.3722 115.457 19.6901C115.284 20.0081 115.198 20.3763 115.198 20.7949V26.5119H113.393ZM132.414 26.699C131.5 26.699 130.713 26.5038 130.053 26.1134C129.397 25.719 128.89 25.1656 128.532 24.4533C128.178 23.7369 128.001 22.8978 128.001 21.9359C128.001 20.9861 128.178 20.1489 128.532 19.4245C128.89 18.7001 129.389 18.1346 130.029 17.7281C130.673 17.3216 131.426 17.1184 132.287 17.1184C132.81 17.1184 133.317 17.2049 133.808 17.378C134.299 17.551 134.74 17.8227 135.13 18.193C135.521 18.5632 135.829 19.0442 136.054 19.6358C136.279 20.2234 136.392 20.9378 136.392 21.7789V22.4188H129.021V21.0666H134.623C134.623 20.5917 134.527 20.1711 134.333 19.8048C134.14 19.4346 133.869 19.1428 133.518 18.9295C133.172 18.7162 132.766 18.6095 132.299 18.6095C131.792 18.6095 131.349 18.7343 130.971 18.9838C130.597 19.2293 130.307 19.5513 130.102 19.9497C129.9 20.3441 129.8 20.7728 129.8 21.2356V22.2921C129.8 22.9118 129.908 23.4391 130.126 23.8737C130.347 24.3084 130.655 24.6404 131.049 24.8698C131.444 25.0952 131.905 25.2079 132.432 25.2079C132.774 25.2079 133.086 25.1596 133.368 25.063C133.649 24.9624 133.893 24.8135 134.098 24.6163C134.303 24.4191 134.46 24.1756 134.569 23.8858L136.277 24.1937C136.141 24.6968 135.895 25.1375 135.541 25.5158C135.191 25.8901 134.75 26.1818 134.219 26.3911C133.692 26.5964 133.09 26.699 132.414 26.699ZM146.8 26.699C145.93 26.699 145.172 26.4998 144.524 26.1014C143.876 25.7029 143.373 25.1455 143.015 24.4291C142.656 23.7127 142.477 22.8756 142.477 21.9178C142.477 20.9559 142.656 20.1147 143.015 19.3943C143.373 18.6739 143.876 18.1145 144.524 17.7161C145.172 17.3176 145.93 17.1184 146.8 17.1184C147.669 17.1184 148.428 17.3176 149.076 17.7161C149.724 18.1145 150.227 18.6739 150.585 19.3943C150.943 20.1147 151.122 20.9559 151.122 21.9178C151.122 22.8756 150.943 23.7127 150.585 24.4291C150.227 25.1455 149.724 25.7029 149.076 26.1014C148.428 26.4998 147.669 26.699 146.8 26.699ZM146.806 25.1837C147.369 25.1837 147.836 25.0348 148.206 24.737C148.577 24.4392 148.85 24.0428 149.027 23.5477C149.208 23.0527 149.299 22.5074 149.299 21.9117C149.299 21.3201 149.208 20.7768 149.027 20.2818C148.85 19.7827 148.577 19.3823 148.206 19.0804C147.836 18.7786 147.369 18.6276 146.806 18.6276C146.238 18.6276 145.767 18.7786 145.393 19.0804C145.023 19.3823 144.747 19.7827 144.566 20.2818C144.389 20.7768 144.3 21.3201 144.3 21.9117C144.3 22.5074 144.389 23.0527 144.566 23.5477C144.747 24.0428 145.023 24.4392 145.393 24.737C145.767 25.0348 146.238 25.1837 146.806 25.1837ZM154.942 21.0062V26.5119H153.137V17.2391H154.87V18.7484H154.984C155.198 18.2574 155.532 17.863 155.986 17.5651C156.445 17.2673 157.023 17.1184 157.719 17.1184C158.351 17.1184 158.904 17.2512 159.379 17.5168C159.854 17.7784 160.222 18.1688 160.484 18.688C160.746 19.2072 160.876 19.8491 160.876 20.6138V26.5119H159.071V20.8311C159.071 20.159 158.896 19.6338 158.546 19.2555C158.196 18.8731 157.715 18.682 157.103 18.682C156.685 18.682 156.312 18.7725 155.986 18.9536C155.664 19.1347 155.409 19.4004 155.22 19.7505C155.035 20.0966 154.942 20.5152 154.942 21.0062Z" fill="#E8E8E8"/>
<path d="M167.94 26.5119V14.1482H173.048C173.973 14.1482 174.772 14.3293 175.444 14.6916C176.12 15.0497 176.642 15.5508 177.008 16.1948C177.374 16.8347 177.557 17.5792 177.557 18.4284C177.557 19.2816 177.37 20.0282 176.996 20.6681C176.625 21.304 176.096 21.797 175.408 22.1472C174.72 22.4973 173.903 22.6724 172.957 22.6724H169.806V20.318H172.402C172.852 20.318 173.229 20.2395 173.531 20.0825C173.836 19.9256 174.068 19.7062 174.225 19.4245C174.382 19.1388 174.46 18.8067 174.46 18.4284C174.46 18.0461 174.382 17.7161 174.225 17.4384C174.068 17.1566 173.836 16.9393 173.531 16.7864C173.225 16.6334 172.848 16.557 172.402 16.557H170.929V26.5119H167.94ZM181.312 26.6688C180.721 26.6688 180.195 26.5702 179.737 26.373C179.282 26.1718 178.922 25.8699 178.656 25.4675C178.394 25.061 178.264 24.5519 178.264 23.9401C178.264 23.425 178.354 22.9903 178.535 22.6362C178.716 22.282 178.966 21.9942 179.284 21.7729C179.602 21.5515 179.968 21.3845 180.382 21.2718C180.797 21.1551 181.24 21.0766 181.711 21.0364C182.238 20.9881 182.662 20.9378 182.984 20.8854C183.306 20.8291 183.54 20.7506 183.685 20.65C183.834 20.5454 183.908 20.3985 183.908 20.2093V20.1791C183.908 19.8692 183.801 19.6298 183.588 19.4607C183.375 19.2917 183.087 19.2072 182.725 19.2072C182.334 19.2072 182.02 19.2917 181.783 19.4607C181.546 19.6298 181.395 19.8632 181.33 20.161L178.608 20.0644C178.688 19.501 178.895 18.9979 179.229 18.5552C179.567 18.1085 180.03 17.7583 180.618 17.5048C181.21 17.2472 181.92 17.1184 182.749 17.1184C183.341 17.1184 183.886 17.1888 184.385 17.3297C184.884 17.4665 185.319 17.6678 185.689 17.9334C186.059 18.195 186.345 18.517 186.546 18.8993C186.751 19.2816 186.854 19.7183 186.854 20.2093V26.5119H184.077V25.22H184.005C183.84 25.5339 183.628 25.7995 183.371 26.0168C183.117 26.2342 182.817 26.3972 182.471 26.5058C182.129 26.6145 181.743 26.6688 181.312 26.6688ZM182.224 24.737C182.542 24.737 182.827 24.6726 183.081 24.5438C183.339 24.415 183.544 24.238 183.697 24.0126C183.85 23.7832 183.926 23.5175 183.926 23.2157V22.3343C183.842 22.3786 183.739 22.4188 183.618 22.455C183.502 22.4913 183.373 22.5255 183.232 22.5577C183.091 22.5899 182.946 22.618 182.797 22.6422C182.648 22.6663 182.505 22.6885 182.369 22.7086C182.091 22.7529 181.853 22.8213 181.656 22.9139C181.463 23.0064 181.314 23.1272 181.21 23.2761C181.109 23.421 181.059 23.594 181.059 23.7952C181.059 24.1011 181.167 24.3345 181.385 24.4955C181.606 24.6565 181.886 24.737 182.224 24.737ZM193.893 17.2391V19.4124H188.043V17.2391H193.893ZM189.269 15.0176H192.221V23.596C192.221 23.7771 192.249 23.924 192.305 24.0367C192.366 24.1454 192.452 24.2239 192.565 24.2722C192.678 24.3164 192.813 24.3386 192.969 24.3386C193.082 24.3386 193.201 24.3285 193.326 24.3084C193.454 24.2842 193.551 24.2641 193.615 24.248L194.062 26.3791C193.921 26.4193 193.722 26.4696 193.465 26.53C193.211 26.5903 192.907 26.6286 192.553 26.6447C191.861 26.6769 191.267 26.5964 190.772 26.4032C190.281 26.206 189.905 25.9001 189.643 25.4856C189.386 25.0711 189.261 24.5499 189.269 23.922V15.0176ZM195.399 26.5119V17.2391H198.267V18.9295H198.363C198.533 18.3177 198.808 17.863 199.191 17.5651C199.573 17.2633 200.018 17.1124 200.525 17.1124C200.662 17.1124 200.802 17.1224 200.947 17.1426C201.092 17.1586 201.227 17.1848 201.352 17.221V19.7867C201.211 19.7384 201.026 19.7002 200.796 19.672C200.571 19.6439 200.37 19.6298 200.193 19.6298C199.843 19.6298 199.527 19.7082 199.245 19.8652C198.967 20.0181 198.748 20.2335 198.587 20.5112C198.43 20.7848 198.351 21.1068 198.351 21.4771V26.5119H195.399ZM206.408 26.6869C205.438 26.6869 204.601 26.4958 203.896 26.1134C203.196 25.7271 202.657 25.1777 202.278 24.4653C201.904 23.749 201.717 22.8978 201.717 21.9117C201.717 20.9539 201.906 20.1167 202.284 19.4004C202.663 18.68 203.196 18.1205 203.884 17.7221C204.572 17.3196 205.383 17.1184 206.317 17.1184C206.977 17.1184 207.581 17.221 208.128 17.4263C208.676 17.6315 209.148 17.9354 209.547 18.3379C209.945 18.7403 210.255 19.2374 210.477 19.829C210.698 20.4166 210.809 21.0907 210.809 21.8514V22.5879H202.749V20.8734H208.062C208.058 20.5595 207.983 20.2797 207.838 20.0342C207.694 19.7887 207.494 19.5976 207.241 19.4607C206.991 19.3199 206.703 19.2494 206.377 19.2494C206.047 19.2494 205.752 19.3239 205.49 19.4728C205.228 19.6177 205.021 19.8169 204.868 20.0705C204.715 20.32 204.635 20.6037 204.627 20.9217V22.6663C204.627 23.0447 204.701 23.3767 204.85 23.6624C204.999 23.9442 205.21 24.1635 205.484 24.3205C205.758 24.4774 206.084 24.5559 206.462 24.5559C206.724 24.5559 206.961 24.5197 207.174 24.4472C207.388 24.3748 207.571 24.2681 207.724 24.1273C207.877 23.9864 207.991 23.8134 208.068 23.6081L210.778 23.6866C210.666 24.2943 210.418 24.8235 210.036 25.2743C209.658 25.721 209.161 26.0692 208.545 26.3187C207.929 26.5642 207.217 26.6869 206.408 26.6869ZM216.645 26.6869C215.671 26.6869 214.834 26.4877 214.133 26.0893C213.437 25.6868 212.9 25.1274 212.522 24.411C212.147 23.6906 211.96 22.8555 211.96 21.9057C211.96 20.9519 212.147 20.1167 212.522 19.4004C212.9 18.68 213.437 18.1205 214.133 17.7221C214.834 17.3196 215.671 17.1184 216.645 17.1184C217.619 17.1184 218.454 17.3196 219.15 17.7221C219.85 18.1205 220.388 18.68 220.762 19.4004C221.14 20.1167 221.329 20.9519 221.329 21.9057C221.329 22.8555 221.14 23.6906 220.762 24.411C220.388 25.1274 219.85 25.6868 219.15 26.0893C218.454 26.4877 217.619 26.6869 216.645 26.6869ZM216.663 24.4593C217.017 24.4593 217.317 24.3506 217.562 24.1333C217.808 23.916 217.995 23.6141 218.124 23.2278C218.257 22.8414 218.323 22.3947 218.323 21.8876C218.323 21.3724 218.257 20.9217 218.124 20.5353C217.995 20.1489 217.808 19.8471 217.562 19.6298C217.317 19.4124 217.017 19.3038 216.663 19.3038C216.297 19.3038 215.987 19.4124 215.733 19.6298C215.484 19.8471 215.293 20.1489 215.16 20.5353C215.031 20.9217 214.967 21.3724 214.967 21.8876C214.967 22.3947 215.031 22.8414 215.16 23.2278C215.293 23.6141 215.484 23.916 215.733 24.1333C215.987 24.3506 216.297 24.4593 216.663 24.4593ZM225.794 21.2235V26.5119H222.842V17.2391H225.649V18.9416H225.752C225.957 18.3741 226.307 17.9294 226.802 17.6074C227.297 17.2814 227.887 17.1184 228.571 17.1184C229.223 17.1184 229.788 17.2653 230.267 17.5591C230.75 17.8489 231.124 18.2554 231.39 18.7786C231.66 19.2977 231.792 19.9055 231.788 20.6017V26.5119H228.836V21.1813C228.84 20.6661 228.71 20.2636 228.444 19.9739C228.182 19.6841 227.818 19.5392 227.351 19.5392C227.041 19.5392 226.768 19.6076 226.53 19.7445C226.297 19.8773 226.116 20.0684 225.987 20.318C225.862 20.5675 225.798 20.8693 225.794 21.2235Z" fill="#FF424E"/>
</g>
<rect x="1.0746" y="1.0826" width="238.858" height="37.8585" rx="6.92857" stroke="white" stroke-opacity="0.15" stroke-width="2.14286"/>
<defs>
<filter id="filter0_d_28_2514" x="2.40289" y="0.410889" width="39.202" height="39.202" filterUnits="userSpaceOnUse" color-interpolation-filters="sRGB">
<feFlood flood-opacity="0" result="BackgroundImageFix"/>
<feColorMatrix in="SourceAlpha" type="matrix" values="0 0 0 0 0 0 0 0 0 0 0 0 0 0 0 0 0 0 127 0" result="hardAlpha"/>
<feOffset/>
<feGaussianBlur stdDeviation="2.80014"/>
<feComposite in2="hardAlpha" operator="out"/>
<feColorMatrix type="matrix" values="0 0 0 0 0 0 0 0 0 0 0 0 0 0 0 0 0 0 0.25 0"/>
<feBlend mode="normal" in2="BackgroundImageFix" result="effect1_dropShadow_28_2514"/>
<feBlend mode="normal" in="SourceGraphic" in2="effect1_dropShadow_28_2514" result="shape"/>
</filter>
<filter id="filter1_d_28_2514" x="36.2904" y="3.79759" width="202.429" height="32.4286" filterUnits="userSpaceOnUse" color-interpolation-filters="sRGB">
<feFlood flood-opacity="0" result="BackgroundImageFix"/>
<feColorMatrix in="SourceAlpha" type="matrix" values="0 0 0 0 0 0 0 0 0 0 0 0 0 0 0 0 0 0 127 0" result="hardAlpha"/>
<feOffset/>
<feGaussianBlur stdDeviation="2.85714"/>
<feComposite in2="hardAlpha" operator="out"/>
<feColorMatrix type="matrix" values="0 0 0 0 0 0 0 0 0 0 0 0 0 0 0 0 0 0 0.25 0"/>
<feBlend mode="normal" in2="BackgroundImageFix" result="effect1_dropShadow_28_2514"/>
<feBlend mode="normal" in="SourceGraphic" in2="effect1_dropShadow_28_2514" result="shape"/>
</filter>
<linearGradient id="paint0_linear_28_2514" x1="120.504" y1="0.0111694" x2="120.504" y2="40.0126" gradientUnits="userSpaceOnUse">
<stop stop-color="#300B0D"/>
<stop offset="1" stop-color="#210709"/>
</linearGradient>
</defs>
</svg>
