<svg width="162" height="28" viewBox="0 0 162 28" fill="none" xmlns="http://www.w3.org/2000/svg">
<rect x="0.499268" y="-3.05176e-05" width="161.5" height="28" rx="6" fill="url(#paint0_linear_28_2521)"/>
<g filter="url(#filter0_d_28_2521)">
<path d="M8.28491 6.14288V21.8572H11.1736V6.14288H8.28491ZM18.8163 6.14288C15.5552 6.14288 12.9013 8.78922 12.9013 12.0426C12.9013 15.2857 15.5552 17.9239 18.8163 17.9239C22.0678 17.9239 24.7135 15.2857 24.7135 12.0426C24.7135 8.78922 22.0685 6.14288 18.8163 6.14288Z" fill="#FF424E"/>
</g>
<g filter="url(#filter1_d_28_2521)">
<path d="M37.7415 12.6015C37.6998 12.2317 37.5279 11.9453 37.2258 11.7422C36.9237 11.5364 36.5435 11.4336 36.0852 11.4336C35.7571 11.4336 35.4732 11.4856 35.2336 11.5898C34.9941 11.6914 34.8079 11.832 34.675 12.0117C34.5448 12.1888 34.4797 12.3906 34.4797 12.6172C34.4797 12.8073 34.524 12.9713 34.6125 13.1093C34.7037 13.2474 34.8222 13.3632 34.968 13.457C35.1165 13.5481 35.2753 13.625 35.4446 13.6875C35.6138 13.7474 35.7766 13.7968 35.9329 13.8359L36.7141 14.039C36.9693 14.1015 37.231 14.1862 37.4993 14.2929C37.7675 14.3997 38.0162 14.5403 38.2454 14.7148C38.4745 14.8893 38.6594 15.1054 38.8 15.3632C38.9433 15.6211 39.0149 15.9297 39.0149 16.289C39.0149 16.7422 38.8977 17.1445 38.6633 17.4961C38.4316 17.8476 38.0943 18.125 37.6516 18.3281C37.2115 18.5312 36.679 18.6328 36.054 18.6328C35.455 18.6328 34.9368 18.5377 34.4993 18.3476C34.0618 18.1575 33.7193 17.888 33.4719 17.539C33.2245 17.1875 33.0878 16.7708 33.0618 16.289H34.2727C34.2961 16.5781 34.3899 16.819 34.554 17.0117C34.7206 17.2018 34.9329 17.3437 35.1907 17.4375C35.4511 17.5286 35.7362 17.5742 36.0461 17.5742C36.3873 17.5742 36.6907 17.5208 36.9563 17.414C37.2245 17.3047 37.4355 17.1536 37.5891 16.9609C37.7428 16.7656 37.8196 16.5377 37.8196 16.2773C37.8196 16.0403 37.7519 15.8463 37.6165 15.6953C37.4836 15.5442 37.3027 15.4192 37.0735 15.3203C36.8469 15.2213 36.5904 15.1341 36.304 15.0586L35.3586 14.8007C34.718 14.6263 34.2102 14.3698 33.8352 14.0312C33.4628 13.6927 33.2766 13.2448 33.2766 12.6875C33.2766 12.2265 33.4016 11.8242 33.6516 11.4804C33.9016 11.1367 34.2402 10.8698 34.6672 10.6797C35.0943 10.4869 35.5761 10.3906 36.1125 10.3906C36.6542 10.3906 37.1321 10.4856 37.5461 10.6757C37.9628 10.8659 38.2909 11.1276 38.5305 11.4609C38.7701 11.7916 38.8951 12.1718 38.9055 12.6015H37.7415ZM44.1643 16.0117V12.5H45.3362V18.5H44.1877V17.4609H44.1252C43.9872 17.7812 43.7659 18.0481 43.4612 18.2617C43.1591 18.4726 42.7828 18.5781 42.3323 18.5781C41.9469 18.5781 41.6057 18.4935 41.3088 18.3242C41.0146 18.1523 40.7828 17.8984 40.6135 17.5625C40.4469 17.2265 40.3635 16.8112 40.3635 16.3164V12.5H41.5315V16.1757C41.5315 16.5846 41.6448 16.9101 41.8713 17.1523C42.0979 17.3945 42.3922 17.5156 42.7541 17.5156C42.9729 17.5156 43.1903 17.4609 43.4065 17.3515C43.6252 17.2422 43.8062 17.0768 43.9495 16.8554C44.0953 16.6341 44.1669 16.3528 44.1643 16.0117ZM46.9055 20.75V12.5H48.0461V13.4726H48.1438C48.2115 13.3476 48.3092 13.2031 48.4368 13.039C48.5644 12.875 48.7415 12.7317 48.968 12.6093C49.1946 12.4843 49.4941 12.4218 49.8665 12.4218C50.3508 12.4218 50.7831 12.5442 51.1633 12.789C51.5435 13.0338 51.8417 13.3867 52.0579 13.8476C52.2766 14.3086 52.386 14.8632 52.386 15.5117C52.386 16.1601 52.2779 16.7161 52.0618 17.1797C51.8456 17.6406 51.5487 17.9961 51.1711 18.2461C50.7935 18.4935 50.3625 18.6172 49.8782 18.6172C49.5136 18.6172 49.2154 18.556 48.9836 18.4336C48.7545 18.3112 48.5748 18.1679 48.4446 18.0039C48.3144 17.8398 48.2141 17.694 48.1438 17.5664H48.0735V20.75H46.9055ZM48.05 15.5C48.05 15.9218 48.1112 16.2916 48.2336 16.6093C48.356 16.927 48.5331 17.1757 48.7649 17.3554C48.9967 17.5325 49.2805 17.6211 49.6165 17.6211C49.9654 17.6211 50.2571 17.5286 50.4914 17.3437C50.7258 17.1562 50.9029 16.9023 51.0227 16.582C51.1451 16.2617 51.2063 15.901 51.2063 15.5C51.2063 15.1041 51.1464 14.7487 51.0266 14.4336C50.9094 14.1185 50.7323 13.8698 50.4954 13.6875C50.261 13.5052 49.968 13.414 49.6165 13.414C49.2779 13.414 48.9915 13.5013 48.7571 13.6757C48.5253 13.8502 48.3495 14.0937 48.2297 14.4062C48.1099 14.7187 48.05 15.0833 48.05 15.5ZM53.6946 20.75V12.5H54.8352V13.4726H54.9329C55.0006 13.3476 55.0982 13.2031 55.2258 13.039C55.3534 12.875 55.5305 12.7317 55.7571 12.6093C55.9836 12.4843 56.2831 12.4218 56.6555 12.4218C57.1399 12.4218 57.5722 12.5442 57.9524 12.789C58.3326 13.0338 58.6308 13.3867 58.8469 13.8476C59.0657 14.3086 59.175 14.8632 59.175 15.5117C59.175 16.1601 59.067 16.7161 58.8508 17.1797C58.6347 17.6406 58.3378 17.9961 57.9602 18.2461C57.5826 18.4935 57.1516 18.6172 56.6672 18.6172C56.3026 18.6172 56.0045 18.556 55.7727 18.4336C55.5435 18.3112 55.3638 18.1679 55.2336 18.0039C55.1034 17.8398 55.0032 17.694 54.9329 17.5664H54.8625V20.75H53.6946ZM54.8391 15.5C54.8391 15.9218 54.9003 16.2916 55.0227 16.6093C55.1451 16.927 55.3222 17.1757 55.5539 17.3554C55.7857 17.5325 56.0696 17.6211 56.4055 17.6211C56.7545 17.6211 57.0461 17.5286 57.2805 17.3437C57.5149 17.1562 57.692 16.9023 57.8118 16.582C57.9342 16.2617 57.9954 15.901 57.9954 15.5C57.9954 15.1041 57.9355 14.7487 57.8157 14.4336C57.6985 14.1185 57.5214 13.8698 57.2844 13.6875C57.05 13.5052 56.7571 13.414 56.4055 13.414C56.067 13.414 55.7805 13.5013 55.5461 13.6757C55.3144 13.8502 55.1386 14.0937 55.0188 14.4062C54.899 14.7187 54.8391 15.0833 54.8391 15.5ZM63.011 18.6211C62.4485 18.6211 61.9576 18.4922 61.5383 18.2343C61.1191 17.9765 60.7935 17.6159 60.5618 17.1523C60.33 16.6888 60.2141 16.1471 60.2141 15.5273C60.2141 14.9049 60.33 14.3606 60.5618 13.8945C60.7935 13.4284 61.1191 13.0664 61.5383 12.8086C61.9576 12.5507 62.4485 12.4218 63.011 12.4218C63.5735 12.4218 64.0644 12.5507 64.4836 12.8086C64.9029 13.0664 65.2284 13.4284 65.4602 13.8945C65.692 14.3606 65.8079 14.9049 65.8079 15.5273C65.8079 16.1471 65.692 16.6888 65.4602 17.1523C65.2284 17.6159 64.9029 17.9765 64.4836 18.2343C64.0644 18.4922 63.5735 18.6211 63.011 18.6211ZM63.0149 17.6406C63.3795 17.6406 63.6816 17.5442 63.9211 17.3515C64.1607 17.1588 64.3378 16.9023 64.4524 16.582C64.5696 16.2617 64.6282 15.9088 64.6282 15.5234C64.6282 15.1406 64.5696 14.789 64.4524 14.4687C64.3378 14.1458 64.1607 13.8867 63.9211 13.6914C63.6816 13.4961 63.3795 13.3984 63.0149 13.3984C62.6477 13.3984 62.343 13.4961 62.1008 13.6914C61.8612 13.8867 61.6829 14.1458 61.5657 14.4687C61.4511 14.789 61.3938 15.1406 61.3938 15.5234C61.3938 15.9088 61.4511 16.2617 61.5657 16.582C61.6829 16.9023 61.8612 17.1588 62.1008 17.3515C62.343 17.5442 62.6477 17.6406 63.0149 17.6406ZM67.1116 18.5V12.5H68.2405V13.4531H68.303C68.4123 13.1302 68.6051 12.8763 68.8811 12.6914C69.1597 12.5039 69.4748 12.4101 69.8264 12.4101C69.8993 12.4101 69.9853 12.4127 70.0842 12.4179C70.1858 12.4231 70.2652 12.4297 70.3225 12.4375V13.5547C70.2756 13.5416 70.1923 13.5273 70.0725 13.5117C69.9527 13.4935 69.8329 13.4843 69.7131 13.4843C69.4371 13.4843 69.191 13.5429 68.9748 13.6601C68.7613 13.7747 68.592 13.9349 68.467 14.1406C68.342 14.3437 68.2795 14.5755 68.2795 14.8359V18.5H67.1116ZM74.4885 12.5V13.4375H71.2112V12.5H74.4885ZM72.0901 11.0625H73.258V16.7382C73.258 16.9648 73.2919 17.1354 73.3596 17.25C73.4273 17.3619 73.5146 17.4388 73.6213 17.4804C73.7307 17.5195 73.8492 17.539 73.9768 17.539C74.0705 17.539 74.1526 17.5325 74.2229 17.5195C74.2932 17.5065 74.3479 17.4961 74.387 17.4882L74.5979 18.4531C74.5302 18.4791 74.4338 18.5052 74.3088 18.5312C74.1838 18.5599 74.0276 18.5755 73.8401 18.5781C73.5328 18.5833 73.2463 18.5286 72.9807 18.414C72.7151 18.2994 72.5002 18.1224 72.3362 17.8828C72.1721 17.6432 72.0901 17.3424 72.0901 16.9804V11.0625ZM82.4924 16.0117V12.5H83.6643V18.5H82.5159V17.4609H82.4534C82.3153 17.7812 82.094 18.0481 81.7893 18.2617C81.4872 18.4726 81.1109 18.5781 80.6604 18.5781C80.275 18.5781 79.9338 18.4935 79.6369 18.3242C79.3427 18.1523 79.1109 17.8984 78.9416 17.5625C78.775 17.2265 78.6916 16.8112 78.6916 16.3164V12.5H79.8596V16.1757C79.8596 16.5846 79.9729 16.9101 80.1994 17.1523C80.426 17.3945 80.7203 17.5156 81.0823 17.5156C81.301 17.5156 81.5185 17.4609 81.7346 17.3515C81.9534 17.2422 82.1343 17.0768 82.2776 16.8554C82.4234 16.6341 82.495 16.3528 82.4924 16.0117ZM89.7297 13.9648L88.6711 14.1523C88.6269 14.0169 88.5565 13.888 88.4602 13.7656C88.3664 13.6432 88.2388 13.5429 88.0774 13.4648C87.9159 13.3867 87.7141 13.3476 87.4719 13.3476C87.1412 13.3476 86.8651 13.4218 86.6438 13.5703C86.4224 13.7161 86.3118 13.9049 86.3118 14.1367C86.3118 14.3372 86.386 14.4987 86.5344 14.6211C86.6828 14.7435 86.9224 14.8437 87.2532 14.9218L88.2063 15.1406C88.7584 15.2682 89.1698 15.4648 89.4407 15.7304C89.7115 15.9961 89.8469 16.3411 89.8469 16.7656C89.8469 17.125 89.7427 17.4453 89.5344 17.7265C89.3287 18.0052 89.0409 18.2239 88.6711 18.3828C88.3039 18.5416 87.8782 18.6211 87.3938 18.6211C86.7219 18.6211 86.1737 18.4778 85.7493 18.1914C85.3248 17.9023 85.0644 17.4922 84.968 16.9609L86.0969 16.789C86.1672 17.0833 86.3118 17.306 86.5305 17.457C86.7493 17.6054 87.0344 17.6797 87.386 17.6797C87.7688 17.6797 88.0748 17.6002 88.3039 17.4414C88.5331 17.2799 88.6477 17.0833 88.6477 16.8515C88.6477 16.664 88.5774 16.5065 88.4368 16.3789C88.2987 16.2513 88.0865 16.1549 87.8 16.0898L86.7844 15.8672C86.2245 15.7396 85.8104 15.5364 85.5422 15.2578C85.2766 14.9791 85.1438 14.6263 85.1438 14.1992C85.1438 13.845 85.2427 13.5351 85.4407 13.2695C85.6386 13.0039 85.912 12.7968 86.261 12.6484C86.6099 12.4974 87.0097 12.4218 87.4602 12.4218C88.1086 12.4218 88.619 12.5625 88.9914 12.8437C89.3638 13.1224 89.6099 13.4961 89.7297 13.9648ZM96.5696 18.6211C96.0071 18.6211 95.5162 18.4922 95.0969 18.2343C94.6776 17.9765 94.3521 17.6159 94.1203 17.1523C93.8886 16.6888 93.7727 16.1471 93.7727 15.5273C93.7727 14.9049 93.8886 14.3606 94.1203 13.8945C94.3521 13.4284 94.6776 13.0664 95.0969 12.8086C95.5162 12.5507 96.0071 12.4218 96.5696 12.4218C97.1321 12.4218 97.6229 12.5507 98.0422 12.8086C98.4615 13.0664 98.787 13.4284 99.0188 13.8945C99.2505 14.3606 99.3664 14.9049 99.3664 15.5273C99.3664 16.1471 99.2505 16.6888 99.0188 17.1523C98.787 17.6159 98.4615 17.9765 98.0422 18.2343C97.6229 18.4922 97.1321 18.6211 96.5696 18.6211ZM96.5735 17.6406C96.9381 17.6406 97.2401 17.5442 97.4797 17.3515C97.7193 17.1588 97.8964 16.9023 98.011 16.582C98.1282 16.2617 98.1867 15.9088 98.1867 15.5234C98.1867 15.1406 98.1282 14.789 98.011 14.4687C97.8964 14.1458 97.7193 13.8867 97.4797 13.6914C97.2401 13.4961 96.9381 13.3984 96.5735 13.3984C96.2063 13.3984 95.9016 13.4961 95.6594 13.6914C95.4198 13.8867 95.2414 14.1458 95.1242 14.4687C95.0097 14.789 94.9524 15.1406 94.9524 15.5234C94.9524 15.9088 95.0097 16.2617 95.1242 16.582C95.2414 16.9023 95.4198 17.1588 95.6594 17.3515C95.9016 17.5442 96.2063 17.6406 96.5735 17.6406ZM101.838 14.9375V18.5H100.67V12.5H101.791V13.4765H101.865C102.003 13.1588 102.22 12.9036 102.514 12.7109C102.811 12.5182 103.184 12.4218 103.635 12.4218C104.044 12.4218 104.402 12.5078 104.709 12.6797C105.016 12.8489 105.255 13.1015 105.424 13.4375C105.593 13.7734 105.678 14.1888 105.678 14.6836V18.5H104.51V14.8242C104.51 14.3893 104.397 14.0494 104.17 13.8047C103.944 13.5573 103.632 13.4336 103.237 13.4336C102.966 13.4336 102.725 13.4922 102.514 13.6093C102.306 13.7265 102.14 13.8984 102.018 14.125C101.898 14.3489 101.838 14.6198 101.838 14.9375Z" fill="#E8E8E8"/>
<path d="M109.66 18.5V9.7727H113.265C113.918 9.7727 114.482 9.90054 114.957 10.1562C115.434 10.4091 115.802 10.7628 116.06 11.2173C116.319 11.669 116.448 12.1946 116.448 12.794C116.448 13.3963 116.316 13.9233 116.052 14.375C115.79 14.8238 115.417 15.1718 114.931 15.419C114.445 15.6662 113.869 15.7897 113.201 15.7897H110.977V14.1278H112.809C113.127 14.1278 113.393 14.0724 113.606 13.9616C113.822 13.8508 113.985 13.696 114.096 13.4971C114.207 13.2954 114.262 13.061 114.262 12.794C114.262 12.5241 114.207 12.2912 114.096 12.0951C113.985 11.8963 113.822 11.7429 113.606 11.6349C113.39 11.527 113.124 11.473 112.809 11.473H111.769V18.5H109.66ZM119.099 18.6108C118.681 18.6108 118.31 18.5412 117.986 18.402C117.665 18.2599 117.411 18.0468 117.224 17.7628C117.039 17.4758 116.947 17.1164 116.947 16.6846C116.947 16.321 117.011 16.0142 117.138 15.7642C117.266 15.5142 117.442 15.311 117.667 15.1548C117.891 14.9985 118.15 14.8806 118.442 14.8011C118.735 14.7187 119.048 14.6633 119.38 14.6349C119.752 14.6008 120.052 14.5653 120.279 14.5284C120.506 14.4886 120.671 14.4332 120.773 14.3622C120.879 14.2883 120.931 14.1846 120.931 14.0511V14.0298C120.931 13.811 120.856 13.642 120.705 13.5227C120.555 13.4034 120.352 13.3437 120.096 13.3437C119.82 13.3437 119.599 13.4034 119.431 13.5227C119.263 13.642 119.157 13.8068 119.111 14.017L117.19 13.9488C117.246 13.5511 117.393 13.196 117.629 12.8835C117.867 12.5681 118.194 12.321 118.609 12.142C119.026 11.9602 119.528 11.8693 120.113 11.8693C120.531 11.8693 120.915 11.919 121.268 12.0184C121.62 12.115 121.927 12.2571 122.188 12.4446C122.45 12.6292 122.651 12.8565 122.793 13.1264C122.938 13.3963 123.011 13.7045 123.011 14.0511V18.5H121.05V17.588H120.999C120.883 17.8096 120.734 17.9971 120.552 18.1505C120.373 18.3039 120.161 18.419 119.917 18.4957C119.675 18.5724 119.403 18.6108 119.099 18.6108ZM119.742 17.2471C119.967 17.2471 120.168 17.2017 120.347 17.1108C120.529 17.0199 120.674 16.8949 120.782 16.7358C120.89 16.5738 120.944 16.3863 120.944 16.1733V15.5511C120.884 15.5824 120.812 15.6108 120.727 15.6363C120.644 15.6619 120.553 15.686 120.454 15.7088C120.354 15.7315 120.252 15.7514 120.147 15.7684C120.042 15.7855 119.941 15.8011 119.844 15.8153C119.648 15.8466 119.481 15.8949 119.342 15.9602C119.205 16.0255 119.1 16.1108 119.026 16.2159C118.955 16.3181 118.92 16.4403 118.92 16.5824C118.92 16.7983 118.996 16.963 119.15 17.0767C119.306 17.1903 119.504 17.2471 119.742 17.2471ZM127.979 11.9545V13.4886H123.85V11.9545H127.979ZM124.715 10.3863H126.799V16.4417C126.799 16.5696 126.819 16.6733 126.859 16.7528C126.901 16.8295 126.962 16.8849 127.042 16.919C127.121 16.9503 127.217 16.9659 127.327 16.9659C127.407 16.9659 127.491 16.9588 127.579 16.9446C127.67 16.9275 127.738 16.9133 127.783 16.902L128.099 18.4062C127.999 18.4346 127.859 18.4701 127.677 18.5128C127.498 18.5554 127.283 18.5824 127.033 18.5937C126.545 18.6164 126.126 18.5596 125.776 18.4233C125.43 18.2841 125.164 18.0681 124.979 17.7755C124.798 17.4829 124.709 17.115 124.715 16.6718V10.3863ZM129.043 18.5V11.9545H131.067V13.1477H131.135C131.254 12.7159 131.449 12.3949 131.719 12.1846C131.989 11.9716 132.303 11.865 132.66 11.865C132.757 11.865 132.857 11.8721 132.959 11.8863C133.061 11.8977 133.156 11.9162 133.244 11.9417V13.7528C133.145 13.7187 133.014 13.6917 132.852 13.6718C132.693 13.652 132.551 13.642 132.426 13.642C132.179 13.642 131.956 13.6974 131.757 13.8082C131.561 13.9162 131.406 14.0681 131.293 14.2642C131.182 14.4574 131.126 14.6846 131.126 14.946V18.5H129.043ZM136.813 18.6235C136.129 18.6235 135.538 18.4886 135.04 18.2187C134.546 17.946 134.165 17.5582 133.898 17.0554C133.634 16.5497 133.502 15.9488 133.502 15.2528C133.502 14.5767 133.636 13.9858 133.903 13.4801C134.17 12.9716 134.546 12.5767 135.032 12.2954C135.518 12.0113 136.09 11.8693 136.749 11.8693C137.215 11.8693 137.641 11.9417 138.028 12.0866C138.414 12.2315 138.748 12.446 139.029 12.7301C139.31 13.0142 139.529 13.365 139.685 13.7826C139.842 14.1974 139.92 14.6733 139.92 15.2102V15.7301H134.231V14.5199H137.981C137.978 14.2983 137.925 14.1008 137.823 13.9275C137.721 13.7542 137.58 13.6193 137.401 13.5227C137.225 13.4233 137.022 13.3735 136.792 13.3735C136.559 13.3735 136.35 13.4261 136.165 13.5312C135.981 13.6335 135.834 13.7741 135.727 13.9531C135.619 14.1292 135.562 14.3295 135.556 14.5539V15.7855C135.556 16.0525 135.609 16.2869 135.714 16.4886C135.819 16.6875 135.968 16.8423 136.161 16.9531C136.354 17.0639 136.584 17.1193 136.852 17.1193C137.036 17.1193 137.204 17.0937 137.354 17.0426C137.505 16.9914 137.634 16.9162 137.742 16.8167C137.85 16.7173 137.931 16.5951 137.985 16.4503L139.898 16.5056C139.819 16.9346 139.644 17.3082 139.374 17.6264C139.107 17.9417 138.756 18.1875 138.322 18.3636C137.887 18.5369 137.384 18.6235 136.813 18.6235ZM144.039 18.6235C143.352 18.6235 142.761 18.4829 142.267 18.2017C141.775 17.9176 141.396 17.5227 141.129 17.017C140.865 16.5085 140.733 15.919 140.733 15.2485C140.733 14.5753 140.865 13.9858 141.129 13.4801C141.396 12.9716 141.775 12.5767 142.267 12.2954C142.761 12.0113 143.352 11.8693 144.039 11.8693C144.727 11.8693 145.316 12.0113 145.808 12.2954C146.302 12.5767 146.681 12.9716 146.946 13.4801C147.213 13.9858 147.346 14.5753 147.346 15.2485C147.346 15.919 147.213 16.5085 146.946 17.017C146.681 17.5227 146.302 17.9176 145.808 18.2017C145.316 18.4829 144.727 18.6235 144.039 18.6235ZM144.052 17.0511C144.302 17.0511 144.514 16.9744 144.687 16.821C144.86 16.6676 144.993 16.4545 145.083 16.1818C145.177 15.9091 145.224 15.5937 145.224 15.2358C145.224 14.8721 145.177 14.5539 145.083 14.2812C144.993 14.0085 144.86 13.7954 144.687 13.642C144.514 13.4886 144.302 13.4119 144.052 13.4119C143.794 13.4119 143.575 13.4886 143.396 13.642C143.22 13.7954 143.085 14.0085 142.991 14.2812C142.9 14.5539 142.855 14.8721 142.855 15.2358C142.855 15.5937 142.9 15.9091 142.991 16.1818C143.085 16.4545 143.22 16.6676 143.396 16.821C143.575 16.9744 143.794 17.0511 144.052 17.0511ZM150.497 14.767V18.5H148.414V11.9545H150.395V13.1562H150.468C150.613 12.7556 150.86 12.4417 151.209 12.2145C151.559 11.9843 151.975 11.8693 152.458 11.8693C152.918 11.8693 153.317 11.973 153.655 12.1804C153.996 12.3849 154.26 12.6718 154.448 13.0412C154.638 13.4076 154.732 13.8366 154.729 14.3281V18.5H152.645V14.7372C152.648 14.3735 152.556 14.0895 152.368 13.8849C152.184 13.6804 151.926 13.5781 151.597 13.5781C151.378 13.5781 151.185 13.6264 151.017 13.723C150.853 13.8167 150.725 13.9517 150.634 14.1278C150.546 14.3039 150.5 14.517 150.497 14.767Z" fill="#FF424E"/>
</g>
<rect x="1.24927" y="0.749969" width="160" height="26.5" rx="5.25" stroke="white" stroke-opacity="0.15" stroke-width="1.5"/>
<defs>
<filter id="filter0_d_28_2521" x="2.49927" y="-3.05176e-05" width="28" height="28" filterUnits="userSpaceOnUse" color-interpolation-filters="sRGB">
<feFlood flood-opacity="0" result="BackgroundImageFix"/>
<feColorMatrix in="SourceAlpha" type="matrix" values="0 0 0 0 0 0 0 0 0 0 0 0 0 0 0 0 0 0 127 0" result="hardAlpha"/>
<feOffset/>
<feGaussianBlur stdDeviation="2"/>
<feComposite in2="hardAlpha" operator="out"/>
<feColorMatrix type="matrix" values="0 0 0 0 0 0 0 0 0 0 0 0 0 0 0 0 0 0 0.25 0"/>
<feBlend mode="normal" in2="BackgroundImageFix" result="effect1_dropShadow_28_2521"/>
<feBlend mode="normal" in="SourceGraphic" in2="effect1_dropShadow_28_2521" result="shape"/>
</filter>
<filter id="filter1_d_28_2521" x="28.4993" y="3.49997" width="131.5" height="21.25" filterUnits="userSpaceOnUse" color-interpolation-filters="sRGB">
<feFlood flood-opacity="0" result="BackgroundImageFix"/>
<feColorMatrix in="SourceAlpha" type="matrix" values="0 0 0 0 0 0 0 0 0 0 0 0 0 0 0 0 0 0 127 0" result="hardAlpha"/>
<feOffset/>
<feGaussianBlur stdDeviation="2"/>
<feComposite in2="hardAlpha" operator="out"/>
<feColorMatrix type="matrix" values="0 0 0 0 0 0 0 0 0 0 0 0 0 0 0 0 0 0 0.25 0"/>
<feBlend mode="normal" in2="BackgroundImageFix" result="effect1_dropShadow_28_2521"/>
<feBlend mode="normal" in="SourceGraphic" in2="effect1_dropShadow_28_2521" result="shape"/>
</filter>
<linearGradient id="paint0_linear_28_2521" x1="81.2492" y1="-3.05176e-05" x2="81.2492" y2="28" gradientUnits="userSpaceOnUse">
<stop stop-color="#300B0D"/>
<stop offset="1" stop-color="#210709"/>
</linearGradient>
</defs>
</svg>
