<svg width="238" height="41" viewBox="0 0 238 41" fill="none" xmlns="http://www.w3.org/2000/svg">
<rect x="0.00317383" y="0.0125732" width="237.001" height="40.0014" rx="8" fill="url(#paint0_linear_28_2521)"/>
<g filter="url(#filter0_d_28_2521)">
<path d="M10.5032 9.01282V31.014H14.5475V9.01282H10.5032ZM25.2479 9.01282C20.6821 9.01282 16.9665 12.7179 16.9665 17.2728C16.9665 21.8134 20.6821 25.507 25.2479 25.507C29.8002 25.507 33.5043 21.8134 33.5043 17.2728C33.5043 12.7179 29.8011 9.01282 25.2479 9.01282Z" fill="#FF424E"/>
</g>
<g filter="url(#filter1_d_28_2521)">
<path d="M52.1062 17.3975C52.0418 16.826 51.7762 16.3833 51.3093 16.0694C50.8425 15.7514 50.2549 15.5925 49.5465 15.5925C49.0394 15.5925 48.6008 15.673 48.2305 15.8339C47.8602 15.9909 47.5725 16.2082 47.3672 16.4859C47.166 16.7596 47.0654 17.0715 47.0654 17.4217C47.0654 17.7155 47.1338 17.969 47.2706 18.1823C47.4115 18.3956 47.5946 18.5747 47.82 18.7196C48.0494 18.8605 48.2949 18.9792 48.5565 19.0758C48.8181 19.1683 49.0696 19.2448 49.3111 19.3052L50.5185 19.6191C50.9129 19.7157 51.3174 19.8465 51.7319 20.0115C52.1464 20.1765 52.5308 20.3938 52.885 20.6635C53.2391 20.9331 53.5249 21.2672 53.7422 21.6656C53.9636 22.0641 54.0742 22.541 54.0742 23.0964C54.0742 23.7967 53.8931 24.4185 53.5309 24.9618C53.1727 25.5051 52.6515 25.9337 51.9673 26.2476C51.2872 26.5616 50.4642 26.7185 49.4982 26.7185C48.5726 26.7185 47.7717 26.5716 47.0955 26.2778C46.4194 25.984 45.8902 25.5675 45.5078 25.0282C45.1255 24.4849 44.9142 23.8409 44.874 23.0964H46.7454C46.7816 23.5431 46.9265 23.9154 47.1801 24.2132C47.4376 24.507 47.7656 24.7263 48.1641 24.8712C48.5665 25.0121 49.0072 25.0825 49.4862 25.0825C50.0134 25.0825 50.4823 25 50.8928 24.835C51.3073 24.666 51.6333 24.4325 51.8708 24.1347C52.1082 23.8329 52.2269 23.4807 52.2269 23.0783C52.2269 22.712 52.1223 22.4122 51.913 22.1788C51.7078 21.9453 51.4281 21.7521 51.0739 21.5992C50.7237 21.4463 50.3273 21.3114 49.8846 21.1947L48.4237 20.7963C47.4336 20.5266 46.6488 20.1302 46.0693 19.607C45.4937 19.0838 45.206 18.3916 45.206 17.5303C45.206 16.818 45.3992 16.1962 45.7855 15.6649C46.1719 15.1337 46.6951 14.7211 47.3551 14.4273C48.0152 14.1295 48.7597 13.9806 49.5888 13.9806C50.4259 13.9806 51.1644 14.1275 51.8044 14.4213C52.4483 14.7151 52.9554 15.1196 53.3257 15.6347C53.6959 16.1458 53.8891 16.7334 53.9052 17.3975H52.1062ZM62.0324 22.6677V17.2405H63.8435V26.5133H62.0686V24.9074H61.9721C61.7587 25.4025 61.4167 25.815 60.9458 26.145C60.4789 26.471 59.8974 26.634 59.2011 26.634C58.6055 26.634 58.0782 26.5032 57.6194 26.2416C57.1646 25.976 56.8065 25.5836 56.5449 25.0644C56.2873 24.5452 56.1585 23.9033 56.1585 23.1386V17.2405H57.9635V22.9213C57.9635 23.5532 58.1386 24.0562 58.4887 24.4305C58.8389 24.8048 59.2937 24.992 59.8531 24.992C60.1912 24.992 60.5272 24.9074 60.8613 24.7384C61.1993 24.5694 61.479 24.3138 61.7004 23.9717C61.9258 23.6296 62.0364 23.195 62.0324 22.6677ZM66.2688 29.9905V17.2405H68.0316V18.7437H68.1825C68.2872 18.5506 68.4381 18.3272 68.6353 18.0736C68.8325 17.8201 69.1062 17.5987 69.4563 17.4096C69.8065 17.2164 70.2693 17.1198 70.8448 17.1198C71.5934 17.1198 72.2615 17.309 72.8491 17.6873C73.4367 18.0656 73.8975 18.6109 74.2315 19.3233C74.5696 20.0356 74.7387 20.8929 74.7387 21.895C74.7387 22.8971 74.5716 23.7564 74.2376 24.4728C73.9035 25.1851 73.4447 25.7345 72.8612 26.1209C72.2776 26.5032 71.6115 26.6944 70.8629 26.6944C70.2995 26.6944 69.8387 26.5998 69.4805 26.4106C69.1263 26.2215 68.8486 26.0001 68.6474 25.7466C68.4462 25.493 68.2912 25.2677 68.1825 25.0704H68.0739V29.9905H66.2688ZM68.0377 21.8769C68.0377 22.5289 68.1322 23.1004 68.3214 23.5914C68.5106 24.0824 68.7842 24.4668 69.1424 24.7444C69.5006 25.0181 69.9393 25.155 70.4585 25.155C70.9978 25.155 71.4485 25.0121 71.8107 24.7263C72.173 24.4366 72.4466 24.0442 72.6318 23.5491C72.8209 23.0541 72.9155 22.4967 72.9155 21.8769C72.9155 21.2652 72.8229 20.7158 72.6378 20.2288C72.4567 19.7418 72.183 19.3575 71.8168 19.0758C71.4546 18.794 71.0018 18.6532 70.4585 18.6532C69.9353 18.6532 69.4926 18.788 69.1303 19.0577C68.7722 19.3273 68.5005 19.7036 68.3154 20.1866C68.1302 20.6695 68.0377 21.233 68.0377 21.8769ZM76.761 29.9905V17.2405H78.5238V18.7437H78.6747C78.7794 18.5506 78.9303 18.3272 79.1275 18.0736C79.3247 17.8201 79.5984 17.5987 79.9485 17.4096C80.2987 17.2164 80.7615 17.1198 81.337 17.1198C82.0856 17.1198 82.7537 17.309 83.3413 17.6873C83.9289 18.0656 84.3897 18.6109 84.7237 19.3233C85.0618 20.0356 85.2308 20.8929 85.2308 21.895C85.2308 22.8971 85.0638 23.7564 84.7298 24.4728C84.3957 25.1851 83.9369 25.7345 83.3533 26.1209C82.7698 26.5032 82.1037 26.6944 81.3551 26.6944C80.7917 26.6944 80.3309 26.5998 79.9727 26.4106C79.6185 26.2215 79.3408 26.0001 79.1396 25.7466C78.9383 25.493 78.7834 25.2677 78.6747 25.0704H78.5661V29.9905H76.761ZM78.5298 21.8769C78.5298 22.5289 78.6244 23.1004 78.8136 23.5914C79.0027 24.0824 79.2764 24.4668 79.6346 24.7444C79.9928 25.0181 80.4315 25.155 80.9507 25.155C81.4899 25.155 81.9407 25.0121 82.3029 24.7263C82.6651 24.4366 82.9388 24.0442 83.1239 23.5491C83.3131 23.0541 83.4077 22.4967 83.4077 21.8769C83.4077 21.2652 83.3151 20.7158 83.13 20.2288C82.9489 19.7418 82.6752 19.3575 82.309 19.0758C81.9467 18.794 81.494 18.6532 80.9507 18.6532C80.4274 18.6532 79.9847 18.788 79.6225 19.0577C79.2643 19.3273 78.9927 19.7036 78.8075 20.1866C78.6224 20.6695 78.5298 21.233 78.5298 21.8769ZM91.1591 26.7004C90.2898 26.7004 89.5311 26.5012 88.8832 26.1028C88.2352 25.7043 87.7321 25.1469 87.3739 24.4305C87.0158 23.7141 86.8367 22.877 86.8367 21.9192C86.8367 20.9573 87.0158 20.1161 87.3739 19.3957C87.7321 18.6753 88.2352 18.1159 88.8832 17.7175C89.5311 17.319 90.2898 17.1198 91.1591 17.1198C92.0284 17.1198 92.7871 17.319 93.435 17.7175C94.083 18.1159 94.5861 18.6753 94.9443 19.3957C95.3024 20.1161 95.4815 20.9573 95.4815 21.9192C95.4815 22.877 95.3024 23.7141 94.9443 24.4305C94.5861 25.1469 94.083 25.7043 93.435 26.1028C92.7871 26.5012 92.0284 26.7004 91.1591 26.7004ZM91.1651 25.1851C91.7286 25.1851 92.1954 25.0362 92.5657 24.7384C92.936 24.4406 93.2096 24.0442 93.3867 23.5491C93.5678 23.0541 93.6584 22.5088 93.6584 21.9131C93.6584 21.3215 93.5678 20.7782 93.3867 20.2832C93.2096 19.7841 92.936 19.3837 92.5657 19.0818C92.1954 18.78 91.7286 18.629 91.1651 18.629C90.5977 18.629 90.1268 18.78 89.7525 19.0818C89.3822 19.3837 89.1065 19.7841 88.9254 20.2832C88.7484 20.7782 88.6598 21.3215 88.6598 21.9131C88.6598 22.5088 88.7484 23.0541 88.9254 23.5491C89.1065 24.0442 89.3822 24.4406 89.7525 24.7384C90.1268 25.0362 90.5977 25.1851 91.1651 25.1851ZM97.4964 26.5133V17.2405H99.241V18.7136H99.3376C99.5067 18.2145 99.8045 17.8221 100.231 17.5364C100.662 17.2466 101.149 17.1017 101.692 17.1017C101.805 17.1017 101.938 17.1057 102.09 17.1138C102.247 17.1218 102.37 17.1319 102.459 17.144V18.8705C102.386 18.8504 102.257 18.8283 102.072 18.8041C101.887 18.7759 101.702 18.7619 101.517 18.7619C101.09 18.7619 100.71 18.8524 100.376 19.0335C100.046 19.2106 99.7844 19.4581 99.5912 19.7761C99.398 20.09 99.3014 20.4482 99.3014 20.8506V26.5133H97.4964ZM108.897 17.2405V18.6894H103.832V17.2405H108.897ZM105.19 15.019H106.995V23.7906C106.995 24.1408 107.048 24.4044 107.152 24.5815C107.257 24.7545 107.392 24.8732 107.557 24.9376C107.726 24.998 107.909 25.0282 108.106 25.0282C108.251 25.0282 108.378 25.0181 108.487 24.998C108.595 24.9779 108.68 24.9618 108.74 24.9497L109.066 26.4408C108.962 26.4811 108.813 26.5213 108.619 26.5616C108.426 26.6058 108.185 26.63 107.895 26.634C107.42 26.6421 106.977 26.5575 106.567 26.3805C106.156 26.2034 105.824 25.9297 105.571 25.5594C105.317 25.1892 105.19 24.7243 105.19 24.1649V15.019ZM121.267 22.6677V17.2405H123.078V26.5133H121.303V24.9074H121.206C120.993 25.4025 120.651 25.815 120.18 26.145C119.713 26.471 119.132 26.634 118.435 26.634C117.84 26.634 117.313 26.5032 116.854 26.2416C116.399 25.976 116.041 25.5836 115.779 25.0644C115.522 24.5452 115.393 23.9033 115.393 23.1386V17.2405H117.198V22.9213C117.198 23.5532 117.373 24.0562 117.723 24.4305C118.073 24.8048 118.528 24.992 119.087 24.992C119.426 24.992 119.762 24.9074 120.096 24.7384C120.434 24.5694 120.713 24.3138 120.935 23.9717C121.16 23.6296 121.271 23.195 121.267 22.6677ZM132.452 19.5044L130.816 19.7942C130.747 19.5849 130.639 19.3857 130.49 19.1965C130.345 19.0074 130.148 18.8524 129.898 18.7317C129.649 18.6109 129.337 18.5506 128.962 18.5506C128.451 18.5506 128.025 18.6653 127.683 18.8947C127.34 19.12 127.169 19.4118 127.169 19.77C127.169 20.0799 127.284 20.3294 127.513 20.5186C127.743 20.7078 128.113 20.8627 128.624 20.9834L130.097 21.3215C130.951 21.5187 131.586 21.8226 132.005 22.2331C132.424 22.6436 132.633 23.1769 132.633 23.8329C132.633 24.3883 132.472 24.8833 132.15 25.318C131.832 25.7486 131.387 26.0867 130.816 26.3322C130.248 26.5777 129.59 26.7004 128.842 26.7004C127.803 26.7004 126.956 26.4791 126.3 26.0364C125.644 25.5896 125.242 24.9557 125.093 24.1347L126.837 23.8691C126.946 24.3239 127.169 24.668 127.507 24.9014C127.846 25.1308 128.286 25.2455 128.83 25.2455C129.421 25.2455 129.894 25.1228 130.248 24.8773C130.602 24.6277 130.779 24.3239 130.779 23.9657C130.779 23.6759 130.671 23.4324 130.453 23.2352C130.24 23.038 129.912 22.8891 129.469 22.7885L127.9 22.4444C127.035 22.2472 126.395 21.9333 125.98 21.5026C125.57 21.072 125.364 20.5266 125.364 19.8666C125.364 19.3193 125.517 18.8403 125.823 18.4298C126.129 18.0193 126.552 17.6994 127.091 17.4699C127.63 17.2365 128.248 17.1198 128.944 17.1198C129.946 17.1198 130.735 17.3371 131.311 17.7718C131.886 18.2024 132.267 18.78 132.452 19.5044ZM143.022 26.7004C142.153 26.7004 141.394 26.5012 140.746 26.1028C140.098 25.7043 139.595 25.1469 139.237 24.4305C138.879 23.7141 138.7 22.877 138.7 21.9192C138.7 20.9573 138.879 20.1161 139.237 19.3957C139.595 18.6753 140.098 18.1159 140.746 17.7175C141.394 17.319 142.153 17.1198 143.022 17.1198C143.892 17.1198 144.65 17.319 145.298 17.7175C145.946 18.1159 146.449 18.6753 146.808 19.3957C147.166 20.1161 147.345 20.9573 147.345 21.9192C147.345 22.877 147.166 23.7141 146.808 24.4305C146.449 25.1469 145.946 25.7043 145.298 26.1028C144.65 26.5012 143.892 26.7004 143.022 26.7004ZM143.028 25.1851C143.592 25.1851 144.059 25.0362 144.429 24.7384C144.799 24.4406 145.073 24.0442 145.25 23.5491C145.431 23.0541 145.522 22.5088 145.522 21.9131C145.522 21.3215 145.431 20.7782 145.25 20.2832C145.073 19.7841 144.799 19.3837 144.429 19.0818C144.059 18.78 143.592 18.629 143.028 18.629C142.461 18.629 141.99 18.78 141.616 19.0818C141.245 19.3837 140.97 19.7841 140.789 20.2832C140.612 20.7782 140.523 21.3215 140.523 21.9131C140.523 22.5088 140.612 23.0541 140.789 23.5491C140.97 24.0442 141.245 24.4406 141.616 24.7384C141.99 25.0362 142.461 25.1851 143.028 25.1851ZM151.165 21.0076V26.5133H149.36V17.2405H151.092V18.7498H151.207C151.42 18.2588 151.754 17.8644 152.209 17.5665C152.668 17.2687 153.245 17.1198 153.942 17.1198C154.574 17.1198 155.127 17.2526 155.602 17.5182C156.077 17.7798 156.445 18.1702 156.707 18.6894C156.968 19.2086 157.099 19.8505 157.099 20.6152V26.5133H155.294V20.8325C155.294 20.1604 155.119 19.6352 154.769 19.2569C154.419 18.8745 153.938 18.6834 153.326 18.6834C152.907 18.6834 152.535 18.7739 152.209 18.955C151.887 19.1361 151.632 19.4018 151.442 19.7519C151.257 20.098 151.165 20.5166 151.165 21.0076Z" fill="#E8E8E8"/>
<path d="M163.94 26.5133V14.1496H169.048C169.973 14.1496 170.772 14.3307 171.444 14.693C172.12 15.0512 172.642 15.5522 173.008 16.1962C173.374 16.8361 173.557 17.5806 173.557 18.4298C173.557 19.283 173.37 20.0296 172.996 20.6695C172.625 21.3054 172.096 21.7984 171.408 22.1486C170.72 22.4987 169.903 22.6738 168.957 22.6738H165.806V20.3194H168.402C168.852 20.3194 169.229 20.2409 169.531 20.0839C169.836 19.927 170.068 19.7076 170.225 19.4259C170.382 19.1402 170.46 18.8081 170.46 18.4298C170.46 18.0475 170.382 17.7175 170.225 17.4398C170.068 17.158 169.836 16.9407 169.531 16.7878C169.225 16.6348 168.848 16.5584 168.402 16.5584H166.929V26.5133H163.94ZM177.312 26.6702C176.721 26.6702 176.195 26.5716 175.737 26.3744C175.282 26.1732 174.922 25.8713 174.656 25.4689C174.394 25.0624 174.264 24.5533 174.264 23.9415C174.264 23.4264 174.354 22.9917 174.535 22.6376C174.716 22.2834 174.966 21.9956 175.284 21.7743C175.602 21.5529 175.968 21.3859 176.382 21.2732C176.797 21.1565 177.24 21.078 177.711 21.0378C178.238 20.9895 178.662 20.9392 178.984 20.8869C179.306 20.8305 179.54 20.752 179.685 20.6514C179.834 20.5468 179.908 20.3999 179.908 20.2107V20.1805C179.908 19.8706 179.801 19.6312 179.588 19.4621C179.375 19.2931 179.087 19.2086 178.725 19.2086C178.334 19.2086 178.02 19.2931 177.783 19.4621C177.546 19.6312 177.395 19.8646 177.33 20.1624L174.608 20.0658C174.688 19.5024 174.895 18.9993 175.229 18.5566C175.567 18.1099 176.03 17.7597 176.618 17.5062C177.21 17.2486 177.92 17.1198 178.749 17.1198C179.341 17.1198 179.886 17.1902 180.385 17.3311C180.884 17.4679 181.319 17.6692 181.689 17.9348C182.059 18.1964 182.345 18.5184 182.546 18.9007C182.751 19.283 182.854 19.7197 182.854 20.2107V26.5133H180.077V25.2214H180.005C179.84 25.5353 179.628 25.8009 179.371 26.0182C179.117 26.2356 178.817 26.3986 178.471 26.5072C178.129 26.6159 177.743 26.6702 177.312 26.6702ZM178.224 24.7384C178.542 24.7384 178.827 24.674 179.081 24.5452C179.339 24.4164 179.544 24.2394 179.697 24.014C179.85 23.7846 179.926 23.519 179.926 23.2171V22.3357C179.842 22.38 179.739 22.4202 179.618 22.4565C179.502 22.4927 179.373 22.5269 179.232 22.5591C179.091 22.5913 178.946 22.6195 178.797 22.6436C178.648 22.6677 178.505 22.6899 178.369 22.71C178.091 22.7543 177.853 22.8227 177.656 22.9153C177.463 23.0078 177.314 23.1286 177.21 23.2775C177.109 23.4224 177.059 23.5954 177.059 23.7967C177.059 24.1025 177.167 24.336 177.385 24.4969C177.606 24.6579 177.886 24.7384 178.224 24.7384ZM189.893 17.2405V19.4138H184.043V17.2405H189.893ZM185.269 15.019H188.221V23.5974C188.221 23.7785 188.249 23.9254 188.305 24.0381C188.366 24.1468 188.452 24.2253 188.565 24.2736C188.678 24.3178 188.813 24.34 188.969 24.34C189.082 24.34 189.201 24.3299 189.326 24.3098C189.454 24.2856 189.551 24.2655 189.615 24.2494L190.062 26.3805C189.921 26.4207 189.722 26.471 189.465 26.5314C189.211 26.5918 188.907 26.63 188.553 26.6461C187.861 26.6783 187.267 26.5978 186.772 26.4046C186.281 26.2074 185.905 25.9015 185.643 25.487C185.386 25.0725 185.261 24.5513 185.269 23.9234V15.019ZM191.399 26.5133V17.2405H194.267V18.9309H194.363C194.533 18.3191 194.808 17.8644 195.191 17.5665C195.573 17.2647 196.018 17.1138 196.525 17.1138C196.662 17.1138 196.802 17.1238 196.947 17.144C197.092 17.1601 197.227 17.1862 197.352 17.2224V19.7881C197.211 19.7398 197.026 19.7016 196.796 19.6734C196.571 19.6453 196.37 19.6312 196.193 19.6312C195.843 19.6312 195.527 19.7096 195.245 19.8666C194.967 20.0195 194.748 20.2349 194.587 20.5126C194.43 20.7862 194.351 21.1082 194.351 21.4785V26.5133H191.399ZM202.408 26.6883C201.438 26.6883 200.601 26.4972 199.896 26.1148C199.196 25.7285 198.657 25.1791 198.278 24.4668C197.904 23.7504 197.717 22.8992 197.717 21.9131C197.717 20.9553 197.906 20.1181 198.284 19.4018C198.663 18.6814 199.196 18.1219 199.884 17.7235C200.572 17.321 201.383 17.1198 202.317 17.1198C202.977 17.1198 203.581 17.2224 204.128 17.4277C204.676 17.6329 205.148 17.9368 205.547 18.3393C205.945 18.7417 206.255 19.2388 206.477 19.8304C206.698 20.418 206.809 21.0921 206.809 21.8528V22.5893H198.749V20.8748H204.062C204.058 20.5609 203.983 20.2811 203.838 20.0356C203.694 19.7901 203.494 19.599 203.241 19.4621C202.991 19.3213 202.703 19.2508 202.377 19.2508C202.047 19.2508 201.752 19.3253 201.49 19.4742C201.228 19.6191 201.021 19.8183 200.868 20.0719C200.715 20.3214 200.635 20.6051 200.627 20.9231V22.6677C200.627 23.0461 200.701 23.3781 200.85 23.6638C200.999 23.9456 201.21 24.1649 201.484 24.3219C201.758 24.4788 202.084 24.5573 202.462 24.5573C202.724 24.5573 202.961 24.5211 203.174 24.4486C203.388 24.3762 203.571 24.2695 203.724 24.1287C203.877 23.9878 203.991 23.8148 204.068 23.6095L206.778 23.688C206.666 24.2957 206.418 24.8249 206.036 25.2757C205.658 25.7224 205.161 26.0706 204.545 26.3201C203.929 26.5656 203.217 26.6883 202.408 26.6883ZM212.645 26.6883C211.671 26.6883 210.834 26.4891 210.133 26.0907C209.437 25.6882 208.9 25.1288 208.522 24.4124C208.147 23.692 207.96 22.8569 207.96 21.9071C207.96 20.9533 208.147 20.1181 208.522 19.4018C208.9 18.6814 209.437 18.1219 210.133 17.7235C210.834 17.321 211.671 17.1198 212.645 17.1198C213.619 17.1198 214.454 17.321 215.15 17.7235C215.85 18.1219 216.388 18.6814 216.762 19.4018C217.14 20.1181 217.329 20.9533 217.329 21.9071C217.329 22.8569 217.14 23.692 216.762 24.4124C216.388 25.1288 215.85 25.6882 215.15 26.0907C214.454 26.4891 213.619 26.6883 212.645 26.6883ZM212.663 24.4607C213.017 24.4607 213.317 24.352 213.562 24.1347C213.808 23.9174 213.995 23.6155 214.124 23.2292C214.257 22.8428 214.323 22.3961 214.323 21.889C214.323 21.3738 214.257 20.9231 214.124 20.5367C213.995 20.1503 213.808 19.8485 213.562 19.6312C213.317 19.4138 213.017 19.3052 212.663 19.3052C212.297 19.3052 211.987 19.4138 211.733 19.6312C211.484 19.8485 211.293 20.1503 211.16 20.5367C211.031 20.9231 210.967 21.3738 210.967 21.889C210.967 22.3961 211.031 22.8428 211.16 23.2292C211.293 23.6155 211.484 23.9174 211.733 24.1347C211.987 24.352 212.297 24.4607 212.663 24.4607ZM221.794 21.2249V26.5133H218.842V17.2405H221.649V18.943H221.752C221.957 18.3755 222.307 17.9308 222.802 17.6088C223.297 17.2828 223.887 17.1198 224.571 17.1198C225.223 17.1198 225.788 17.2667 226.267 17.5605C226.75 17.8503 227.124 18.2568 227.39 18.78C227.66 19.2991 227.792 19.9069 227.788 20.6031V26.5133H224.836V21.1827C224.84 20.6675 224.71 20.265 224.444 19.9753C224.182 19.6855 223.818 19.5406 223.351 19.5406C223.041 19.5406 222.768 19.609 222.53 19.7459C222.297 19.8787 222.116 20.0699 221.987 20.3194C221.862 20.5689 221.798 20.8708 221.794 21.2249Z" fill="#FF424E"/>
</g>
<rect x="1.0746" y="1.084" width="234.858" height="37.8585" rx="6.92857" stroke="white" stroke-opacity="0.15" stroke-width="2.14286"/>
<defs>
<filter id="filter0_d_28_2521" x="2.40289" y="0.412293" width="39.202" height="39.202" filterUnits="userSpaceOnUse" color-interpolation-filters="sRGB">
<feFlood flood-opacity="0" result="BackgroundImageFix"/>
<feColorMatrix in="SourceAlpha" type="matrix" values="0 0 0 0 0 0 0 0 0 0 0 0 0 0 0 0 0 0 127 0" result="hardAlpha"/>
<feOffset/>
<feGaussianBlur stdDeviation="2.80014"/>
<feComposite in2="hardAlpha" operator="out"/>
<feColorMatrix type="matrix" values="0 0 0 0 0 0 0 0 0 0 0 0 0 0 0 0 0 0 0.25 0"/>
<feBlend mode="normal" in2="BackgroundImageFix" result="effect1_dropShadow_28_2521"/>
<feBlend mode="normal" in="SourceGraphic" in2="effect1_dropShadow_28_2521" result="shape"/>
</filter>
<filter id="filter1_d_28_2521" x="38.2904" y="3.79899" width="196.429" height="32.4286" filterUnits="userSpaceOnUse" color-interpolation-filters="sRGB">
<feFlood flood-opacity="0" result="BackgroundImageFix"/>
<feColorMatrix in="SourceAlpha" type="matrix" values="0 0 0 0 0 0 0 0 0 0 0 0 0 0 0 0 0 0 127 0" result="hardAlpha"/>
<feOffset/>
<feGaussianBlur stdDeviation="2.85714"/>
<feComposite in2="hardAlpha" operator="out"/>
<feColorMatrix type="matrix" values="0 0 0 0 0 0 0 0 0 0 0 0 0 0 0 0 0 0 0.25 0"/>
<feBlend mode="normal" in2="BackgroundImageFix" result="effect1_dropShadow_28_2521"/>
<feBlend mode="normal" in="SourceGraphic" in2="effect1_dropShadow_28_2521" result="shape"/>
</filter>
<linearGradient id="paint0_linear_28_2521" x1="118.504" y1="0.0125732" x2="118.504" y2="40.014" gradientUnits="userSpaceOnUse">
<stop stop-color="#300B0D"/>
<stop offset="1" stop-color="#210709"/>
</linearGradient>
</defs>
</svg>
