<svg width="159" height="28" viewBox="0 0 159 28" fill="none" xmlns="http://www.w3.org/2000/svg">
<g clip-path="url(#clip0_28_2496)">
<rect x="-0.000488281" y="-1.52588e-05" width="158.5" height="28" rx="6" fill="url(#paint0_linear_28_2496)"/>
<g filter="url(#filter0_d_28_2496)">
<path d="M22.1941 10.4028L12.1442 21.3014H8.458C8.20202 21.3014 7.99723 21.047 8.04843 20.7926L10.5059 5.32488C10.5571 4.96871 10.8643 4.71431 11.2226 4.71431H17.4687C21.7692 4.86695 22.9467 7.05482 22.1788 10.4129L22.1941 10.4028Z" fill="#0045D9"/>
<path d="M22.3578 9.39536C23.8938 10.2094 24.2521 11.7359 23.7402 13.7711C23.0746 16.773 21.0779 18.0451 18.1597 18.0959L17.3405 18.1468C17.0334 18.1468 16.8286 18.3503 16.7774 18.6556L16.1118 22.6752C16.0606 23.0314 15.7534 23.2858 15.3951 23.2858H12.3232C12.0673 23.2858 11.8625 23.0314 11.9137 22.777L13.04 15.501C13.0912 15.2466 22.3578 9.39536 22.3578 9.39536Z" fill="#00A4EE"/>
<path d="M12.9788 15.8572L14.0027 9.39532C14.0363 9.24228 14.1197 9.10452 14.24 9.00334C14.3603 8.90217 14.5108 8.84322 14.6683 8.83563H19.5832C20.7607 8.83563 21.631 9.03915 22.3478 9.39532C22.0918 11.6341 21.0167 15.2466 15.7946 15.3484H13.5419C13.2859 15.3484 13.03 15.5519 12.9788 15.8572Z" fill="#002788"/>
</g>
<g filter="url(#filter1_d_28_2496)">
<path d="M37.2417 12.6015C37.2 12.2318 37.0282 11.9453 36.7261 11.7422C36.424 11.5364 36.0438 11.4336 35.5854 11.4336C35.2573 11.4336 34.9735 11.4857 34.7339 11.5898C34.4943 11.6914 34.3081 11.832 34.1753 12.0117C34.0451 12.1888 33.98 12.3906 33.98 12.6172C33.98 12.8073 34.0243 12.9713 34.1128 13.1094C34.2039 13.2474 34.3224 13.3633 34.4683 13.457C34.6167 13.5482 34.7756 13.625 34.9448 13.6875C35.1141 13.7474 35.2769 13.7969 35.4331 13.8359L36.2144 14.039C36.4696 14.1015 36.7313 14.1862 36.9995 14.293C37.2677 14.3997 37.5164 14.5403 37.7456 14.7148C37.9748 14.8893 38.1597 15.1055 38.3003 15.3633C38.4435 15.6211 38.5151 15.9297 38.5151 16.289C38.5151 16.7422 38.3979 17.1445 38.1636 17.4961C37.9318 17.8476 37.5946 18.125 37.1519 18.3281C36.7118 18.5312 36.1792 18.6328 35.5542 18.6328C34.9552 18.6328 34.437 18.5377 33.9995 18.3476C33.562 18.1575 33.2196 17.888 32.9722 17.539C32.7248 17.1875 32.5881 16.7708 32.562 16.289H33.7729C33.7964 16.5781 33.8901 16.819 34.0542 17.0117C34.2209 17.2018 34.4331 17.3437 34.6909 17.4375C34.9513 17.5286 35.2365 17.5742 35.5464 17.5742C35.8875 17.5742 36.1909 17.5208 36.4565 17.414C36.7248 17.3047 36.9357 17.1536 37.0894 16.9609C37.243 16.7656 37.3198 16.5377 37.3198 16.2773C37.3198 16.0403 37.2521 15.8463 37.1167 15.6953C36.9839 15.5443 36.8029 15.4193 36.5737 15.3203C36.3472 15.2213 36.0907 15.1341 35.8042 15.0586L34.8589 14.8008C34.2183 14.6263 33.7104 14.3698 33.3354 14.0312C32.9631 13.6927 32.7769 13.2448 32.7769 12.6875C32.7769 12.2265 32.9019 11.8242 33.1519 11.4805C33.4019 11.1367 33.7404 10.8698 34.1675 10.6797C34.5946 10.487 35.0763 10.3906 35.6128 10.3906C36.1545 10.3906 36.6323 10.4857 37.0464 10.6758C37.4631 10.8659 37.7912 11.1276 38.0308 11.4609C38.2703 11.7916 38.3953 12.1719 38.4058 12.6015H37.2417ZM43.6645 16.0117V12.5H44.8364V18.5H43.688V17.4609H43.6255C43.4875 17.7812 43.2661 18.0482 42.9614 18.2617C42.6593 18.4726 42.283 18.5781 41.8325 18.5781C41.4471 18.5781 41.106 18.4935 40.8091 18.3242C40.5148 18.1523 40.283 17.8984 40.1138 17.5625C39.9471 17.2265 39.8638 16.8112 39.8638 16.3164V12.5H41.0317V16.1758C41.0317 16.5846 41.145 16.9101 41.3716 17.1523C41.5981 17.3945 41.8924 17.5156 42.2544 17.5156C42.4731 17.5156 42.6906 17.4609 42.9067 17.3515C43.1255 17.2422 43.3065 17.0768 43.4497 16.8555C43.5955 16.6341 43.6672 16.3528 43.6645 16.0117ZM46.4058 20.75V12.5H47.5464V13.4726H47.644C47.7117 13.3476 47.8094 13.2031 47.937 13.039C48.0646 12.875 48.2417 12.7318 48.4683 12.6094C48.6948 12.4844 48.9943 12.4219 49.3667 12.4219C49.8511 12.4219 50.2834 12.5443 50.6636 12.789C51.0438 13.0338 51.342 13.3867 51.5581 13.8476C51.7768 14.3086 51.8862 14.8633 51.8862 15.5117C51.8862 16.1601 51.7782 16.7161 51.562 17.1797C51.3459 17.6406 51.049 17.9961 50.6714 18.2461C50.2938 18.4935 49.8628 18.6172 49.3784 18.6172C49.0138 18.6172 48.7157 18.556 48.4839 18.4336C48.2547 18.3112 48.075 18.168 47.9448 18.0039C47.8146 17.8398 47.7144 17.694 47.644 17.5664H47.5737V20.75H46.4058ZM47.5503 15.5C47.5503 15.9219 47.6115 16.2916 47.7339 16.6094C47.8563 16.9271 48.0334 17.1758 48.2651 17.3555C48.4969 17.5325 48.7808 17.6211 49.1167 17.6211C49.4657 17.6211 49.7573 17.5286 49.9917 17.3437C50.2261 17.1562 50.4032 16.9023 50.5229 16.582C50.6453 16.2617 50.7065 15.901 50.7065 15.5C50.7065 15.1041 50.6466 14.7487 50.5269 14.4336C50.4097 14.1185 50.2326 13.8698 49.9956 13.6875C49.7612 13.5052 49.4683 13.414 49.1167 13.414C48.7782 13.414 48.4917 13.5013 48.2573 13.6758C48.0255 13.8502 47.8498 14.0937 47.73 14.4062C47.6102 14.7187 47.5503 15.0833 47.5503 15.5ZM53.1948 20.75V12.5H54.3354V13.4726H54.4331C54.5008 13.3476 54.5985 13.2031 54.7261 13.039C54.8537 12.875 55.0308 12.7318 55.2573 12.6094C55.4839 12.4844 55.7834 12.4219 56.1558 12.4219C56.6401 12.4219 57.0724 12.5443 57.4526 12.789C57.8328 13.0338 58.131 13.3867 58.3472 13.8476C58.5659 14.3086 58.6753 14.8633 58.6753 15.5117C58.6753 16.1601 58.5672 16.7161 58.3511 17.1797C58.1349 17.6406 57.838 17.9961 57.4604 18.2461C57.0828 18.4935 56.6518 18.6172 56.1675 18.6172C55.8029 18.6172 55.5047 18.556 55.2729 18.4336C55.0438 18.3112 54.8641 18.168 54.7339 18.0039C54.6037 17.8398 54.5034 17.694 54.4331 17.5664H54.3628V20.75H53.1948ZM54.3393 15.5C54.3393 15.9219 54.4005 16.2916 54.5229 16.6094C54.6453 16.9271 54.8224 17.1758 55.0542 17.3555C55.286 17.5325 55.5698 17.6211 55.9058 17.6211C56.2547 17.6211 56.5464 17.5286 56.7808 17.3437C57.0151 17.1562 57.1922 16.9023 57.312 16.582C57.4344 16.2617 57.4956 15.901 57.4956 15.5C57.4956 15.1041 57.4357 14.7487 57.3159 14.4336C57.1987 14.1185 57.0216 13.8698 56.7847 13.6875C56.5503 13.5052 56.2573 13.414 55.9058 13.414C55.5672 13.414 55.2808 13.5013 55.0464 13.6758C54.8146 13.8502 54.6388 14.0937 54.519 14.4062C54.3992 14.7187 54.3393 15.0833 54.3393 15.5ZM62.5112 18.6211C61.9487 18.6211 61.4578 18.4922 61.0386 18.2344C60.6193 17.9765 60.2938 17.6159 60.062 17.1523C59.8302 16.6888 59.7143 16.1471 59.7143 15.5273C59.7143 14.9049 59.8302 14.3607 60.062 13.8945C60.2938 13.4284 60.6193 13.0664 61.0386 12.8086C61.4578 12.5508 61.9487 12.4219 62.5112 12.4219C63.0737 12.4219 63.5646 12.5508 63.9839 12.8086C64.4031 13.0664 64.7287 13.4284 64.9604 13.8945C65.1922 14.3607 65.3081 14.9049 65.3081 15.5273C65.3081 16.1471 65.1922 16.6888 64.9604 17.1523C64.7287 17.6159 64.4031 17.9765 63.9839 18.2344C63.5646 18.4922 63.0737 18.6211 62.5112 18.6211ZM62.5151 17.6406C62.8797 17.6406 63.1818 17.5443 63.4214 17.3515C63.661 17.1588 63.838 16.9023 63.9526 16.582C64.0698 16.2617 64.1284 15.9088 64.1284 15.5234C64.1284 15.1406 64.0698 14.789 63.9526 14.4687C63.838 14.1458 63.661 13.8867 63.4214 13.6914C63.1818 13.4961 62.8797 13.3984 62.5151 13.3984C62.1479 13.3984 61.8433 13.4961 61.6011 13.6914C61.3615 13.8867 61.1831 14.1458 61.0659 14.4687C60.9513 14.789 60.894 15.1406 60.894 15.5234C60.894 15.9088 60.9513 16.2617 61.0659 16.582C61.1831 16.9023 61.3615 17.1588 61.6011 17.3515C61.8433 17.5443 62.1479 17.6406 62.5151 17.6406ZM66.6118 18.5V12.5H67.7407V13.4531H67.8032C67.9126 13.1302 68.1053 12.8763 68.3813 12.6914C68.66 12.5039 68.9751 12.4101 69.3266 12.4101C69.3996 12.4101 69.4855 12.4127 69.5845 12.418C69.686 12.4232 69.7655 12.4297 69.8227 12.4375V13.5547C69.7759 13.5416 69.6925 13.5273 69.5727 13.5117C69.453 13.4935 69.3332 13.4844 69.2134 13.4844C68.9373 13.4844 68.6912 13.543 68.4751 13.6601C68.2615 13.7747 68.0923 13.9349 67.9673 14.1406C67.8423 14.3437 67.7798 14.5755 67.7798 14.8359V18.5H66.6118ZM73.9888 12.5V13.4375H70.7114V12.5H73.9888ZM71.5903 11.0625H72.7583V16.7383C72.7583 16.9648 72.7921 17.1354 72.8599 17.25C72.9276 17.362 73.0148 17.4388 73.1216 17.4805C73.2309 17.5195 73.3494 17.539 73.477 17.539C73.5708 17.539 73.6528 17.5325 73.7231 17.5195C73.7934 17.5065 73.8481 17.4961 73.8872 17.4883L74.0981 18.4531C74.0304 18.4791 73.9341 18.5052 73.8091 18.5312C73.6841 18.5599 73.5278 18.5755 73.3403 18.5781C73.033 18.5833 72.7466 18.5286 72.4809 18.414C72.2153 18.2995 72.0005 18.1224 71.8364 17.8828C71.6724 17.6432 71.5903 17.3424 71.5903 16.9805V11.0625ZM78.1919 18.5V12.5H79.313V13.4765H79.3872C79.5122 13.1458 79.7166 12.888 80.0005 12.7031C80.2843 12.5156 80.6242 12.4219 81.02 12.4219C81.421 12.4219 81.757 12.5156 82.0278 12.7031C82.3013 12.8906 82.5031 13.1484 82.6333 13.4765H82.6958C82.839 13.1562 83.0669 12.901 83.3794 12.7109C83.6919 12.5182 84.0643 12.4219 84.4966 12.4219C85.0408 12.4219 85.4848 12.5924 85.8286 12.9336C86.175 13.2747 86.3481 13.789 86.3481 14.4765V18.5H85.1802V14.5859C85.1802 14.1797 85.0695 13.8854 84.8481 13.7031C84.6268 13.5208 84.3625 13.4297 84.0552 13.4297C83.675 13.4297 83.3794 13.5469 83.1684 13.7812C82.9575 14.013 82.852 14.3112 82.852 14.6758V18.5H81.688V14.5117C81.688 14.1862 81.5864 13.9245 81.3833 13.7265C81.1802 13.5286 80.9158 13.4297 80.5903 13.4297C80.369 13.4297 80.1645 13.4883 79.977 13.6055C79.7921 13.72 79.6424 13.8802 79.5278 14.0859C79.4158 14.2916 79.3598 14.5299 79.3598 14.8008V18.5H78.1919ZM90.4995 18.6211C89.9083 18.6211 89.3992 18.4948 88.9722 18.2422C88.5477 17.987 88.2195 17.6289 87.9878 17.168C87.7586 16.7044 87.644 16.1614 87.644 15.539C87.644 14.9245 87.7586 14.3828 87.9878 13.914C88.2195 13.4453 88.5425 13.0794 88.9565 12.8164C89.3732 12.5534 89.8602 12.4219 90.4175 12.4219C90.756 12.4219 91.0841 12.4778 91.4018 12.5898C91.7195 12.7018 92.0047 12.8776 92.2573 13.1172C92.5099 13.3568 92.7091 13.668 92.855 14.0508C93.0008 14.431 93.0737 14.8932 93.0737 15.4375V15.8515H88.3042V14.9765H91.9292C91.9292 14.6693 91.8667 14.3971 91.7417 14.1601C91.6167 13.9206 91.4409 13.7318 91.2143 13.5937C90.9904 13.4557 90.7274 13.3867 90.4253 13.3867C90.0972 13.3867 89.8107 13.4674 89.5659 13.6289C89.3237 13.7877 89.1362 13.9961 89.0034 14.2539C88.8732 14.5091 88.8081 14.7864 88.8081 15.0859V15.7695C88.8081 16.1706 88.8784 16.5117 89.019 16.793C89.1623 17.0742 89.3615 17.289 89.6167 17.4375C89.8719 17.5833 90.1701 17.6562 90.5112 17.6562C90.7326 17.6562 90.9344 17.625 91.1167 17.5625C91.299 17.4974 91.4565 17.401 91.5893 17.2734C91.7222 17.1458 91.8237 16.9883 91.894 16.8008L92.9995 17C92.911 17.3255 92.7521 17.6107 92.5229 17.8555C92.2964 18.0976 92.0112 18.2864 91.6675 18.4219C91.3263 18.5547 90.937 18.6211 90.4995 18.6211ZM99.8081 18.6211C99.2456 18.6211 98.7547 18.4922 98.3354 18.2344C97.9162 17.9765 97.5906 17.6159 97.3589 17.1523C97.1271 16.6888 97.0112 16.1471 97.0112 15.5273C97.0112 14.9049 97.1271 14.3607 97.3589 13.8945C97.5906 13.4284 97.9162 13.0664 98.3354 12.8086C98.7547 12.5508 99.2456 12.4219 99.8081 12.4219C100.371 12.4219 100.861 12.5508 101.281 12.8086C101.7 13.0664 102.026 13.4284 102.257 13.8945C102.489 14.3607 102.605 14.9049 102.605 15.5273C102.605 16.1471 102.489 16.6888 102.257 17.1523C102.026 17.6159 101.7 17.9765 101.281 18.2344C100.861 18.4922 100.371 18.6211 99.8081 18.6211ZM99.812 17.6406C100.177 17.6406 100.479 17.5443 100.718 17.3515C100.958 17.1588 101.135 16.9023 101.249 16.582C101.367 16.2617 101.425 15.9088 101.425 15.5234C101.425 15.1406 101.367 14.789 101.249 14.4687C101.135 14.1458 100.958 13.8867 100.718 13.6914C100.479 13.4961 100.177 13.3984 99.812 13.3984C99.4448 13.3984 99.1401 13.4961 98.8979 13.6914C98.6583 13.8867 98.48 14.1458 98.3628 14.4687C98.2482 14.789 98.1909 15.1406 98.1909 15.5234C98.1909 15.9088 98.2482 16.2617 98.3628 16.582C98.48 16.9023 98.6583 17.1588 98.8979 17.3515C99.1401 17.5443 99.4448 17.6406 99.812 17.6406ZM105.077 14.9375V18.5H103.909V12.5H105.03V13.4765H105.104C105.242 13.1588 105.458 12.9036 105.752 12.7109C106.049 12.5182 106.423 12.4219 106.874 12.4219C107.282 12.4219 107.64 12.5078 107.948 12.6797C108.255 12.8489 108.493 13.1015 108.663 13.4375C108.832 13.7734 108.916 14.1888 108.916 14.6836V18.5H107.749V14.8242C107.749 14.3893 107.635 14.0495 107.409 13.8047C107.182 13.5573 106.871 13.4336 106.475 13.4336C106.204 13.4336 105.963 13.4922 105.752 13.6094C105.544 13.7265 105.379 13.8984 105.256 14.125C105.137 14.3489 105.077 14.6198 105.077 14.9375Z" fill="#E8E8E8"/>
<path d="M113.16 18.5V9.77271H116.765C117.419 9.77271 117.982 9.90055 118.457 10.1562C118.934 10.4091 119.302 10.7628 119.561 11.2173C119.819 11.669 119.948 12.1946 119.948 12.794C119.948 13.3963 119.816 13.9233 119.552 14.375C119.291 14.8238 118.917 15.1719 118.431 15.419C117.946 15.6662 117.369 15.7898 116.701 15.7898H114.477V14.1278H116.309C116.627 14.1278 116.893 14.0724 117.106 13.9616C117.322 13.8508 117.485 13.696 117.596 13.4971C117.707 13.2954 117.762 13.0611 117.762 12.794C117.762 12.5241 117.707 12.2912 117.596 12.0952C117.485 11.8963 117.322 11.7429 117.106 11.6349C116.89 11.527 116.625 11.473 116.309 11.473H115.269V18.5H113.16ZM122.599 18.6108C122.181 18.6108 121.811 18.5412 121.487 18.402C121.166 18.2599 120.911 18.0469 120.724 17.7628C120.539 17.4758 120.447 17.1165 120.447 16.6846C120.447 16.321 120.511 16.0142 120.639 15.7642C120.767 15.5142 120.943 15.3111 121.167 15.1548C121.392 14.9986 121.65 14.8807 121.943 14.8011C122.235 14.7187 122.548 14.6633 122.88 14.6349C123.252 14.6008 123.552 14.5653 123.779 14.5284C124.007 14.4886 124.171 14.4332 124.274 14.3622C124.379 14.2883 124.431 14.1846 124.431 14.0511V14.0298C124.431 13.8111 124.356 13.642 124.205 13.5227C124.055 13.4034 123.852 13.3437 123.596 13.3437C123.321 13.3437 123.099 13.4034 122.931 13.5227C122.764 13.642 122.657 13.8068 122.612 14.017L120.69 13.9488C120.747 13.5511 120.893 13.196 121.129 12.8835C121.367 12.5682 121.694 12.321 122.109 12.142C122.526 11.9602 123.028 11.8693 123.613 11.8693C124.031 11.8693 124.416 11.919 124.768 12.0184C125.12 12.115 125.427 12.2571 125.688 12.4446C125.95 12.6292 126.151 12.8565 126.294 13.1264C126.438 13.3963 126.511 13.7045 126.511 14.0511V18.5H124.551V17.588H124.5C124.383 17.8096 124.234 17.9971 124.052 18.1505C123.873 18.304 123.661 18.419 123.417 18.4957C123.176 18.5724 122.903 18.6108 122.599 18.6108ZM123.242 17.2471C123.467 17.2471 123.669 17.2017 123.848 17.1108C124.029 17.0199 124.174 16.8949 124.282 16.7358C124.39 16.5738 124.444 16.3863 124.444 16.1733V15.5511C124.384 15.5824 124.312 15.6108 124.227 15.6363C124.144 15.6619 124.053 15.6861 123.954 15.7088C123.855 15.7315 123.752 15.7514 123.647 15.7684C123.542 15.7855 123.441 15.8011 123.345 15.8153C123.149 15.8466 122.981 15.8949 122.842 15.9602C122.705 16.0256 122.6 16.1108 122.526 16.2159C122.455 16.3182 122.42 16.4403 122.42 16.5824C122.42 16.7983 122.497 16.9631 122.65 17.0767C122.806 17.1903 123.004 17.2471 123.242 17.2471ZM128.825 20.9545C128.575 20.9545 128.339 20.9346 128.117 20.8949C127.896 20.8579 127.705 20.8082 127.546 20.7457L128.007 19.2329C128.211 19.3011 128.396 19.3409 128.561 19.3523C128.728 19.3636 128.872 19.3366 128.991 19.2713C129.113 19.2088 129.207 19.0966 129.272 18.9346L129.353 18.7386L127.026 11.9545H129.208L130.414 16.625H130.482L131.705 11.9545H133.9L131.433 19.1264C131.313 19.4844 131.144 19.7997 130.926 20.0724C130.71 20.348 130.43 20.5639 130.086 20.7202C129.745 20.8764 129.325 20.9545 128.825 20.9545Z" fill="#0045D9"/>
<path d="M134.699 18.5V9.77271H138.304C138.958 9.77271 139.522 9.90055 139.996 10.1562C140.473 10.4091 140.841 10.7628 141.1 11.2173C141.358 11.669 141.487 12.1946 141.487 12.794C141.487 13.3963 141.355 13.9233 141.091 14.375C140.83 14.8238 140.456 15.1719 139.97 15.419C139.485 15.6662 138.908 15.7898 138.24 15.7898H136.016V14.1278H137.848C138.166 14.1278 138.432 14.0724 138.645 13.9616C138.861 13.8508 139.024 13.696 139.135 13.4971C139.246 13.2954 139.301 13.0611 139.301 12.794C139.301 12.5241 139.246 12.2912 139.135 12.0952C139.024 11.8963 138.861 11.7429 138.645 11.6349C138.429 11.527 138.164 11.473 137.848 11.473H136.808V18.5H134.699ZM144.138 18.6108C143.72 18.6108 143.35 18.5412 143.026 18.402C142.705 18.2599 142.45 18.0469 142.263 17.7628C142.078 17.4758 141.986 17.1165 141.986 16.6846C141.986 16.321 142.05 16.0142 142.178 15.7642C142.306 15.5142 142.482 15.3111 142.706 15.1548C142.931 14.9986 143.189 14.8807 143.482 14.8011C143.774 14.7187 144.087 14.6633 144.419 14.6349C144.791 14.6008 145.091 14.5653 145.318 14.5284C145.546 14.4886 145.71 14.4332 145.813 14.3622C145.918 14.2883 145.97 14.1846 145.97 14.0511V14.0298C145.97 13.8111 145.895 13.642 145.745 13.5227C145.594 13.4034 145.391 13.3437 145.135 13.3437C144.86 13.3437 144.638 13.4034 144.47 13.5227C144.303 13.642 144.196 13.8068 144.151 14.017L142.229 13.9488C142.286 13.5511 142.432 13.196 142.668 12.8835C142.906 12.5682 143.233 12.321 143.648 12.142C144.066 11.9602 144.567 11.8693 145.152 11.8693C145.57 11.8693 145.955 11.919 146.307 12.0184C146.659 12.115 146.966 12.2571 147.227 12.4446C147.489 12.6292 147.691 12.8565 147.833 13.1264C147.977 13.3963 148.05 13.7045 148.05 14.0511V18.5H146.09V17.588H146.039C145.922 17.8096 145.773 17.9971 145.591 18.1505C145.412 18.304 145.2 18.419 144.956 18.4957C144.715 18.5724 144.442 18.6108 144.138 18.6108ZM144.781 17.2471C145.006 17.2471 145.208 17.2017 145.387 17.1108C145.568 17.0199 145.713 16.8949 145.821 16.7358C145.929 16.5738 145.983 16.3863 145.983 16.1733V15.5511C145.924 15.5824 145.851 15.6108 145.766 15.6363C145.683 15.6619 145.593 15.6861 145.493 15.7088C145.394 15.7315 145.291 15.7514 145.186 15.7684C145.081 15.7855 144.98 15.8011 144.884 15.8153C144.688 15.8466 144.52 15.8949 144.381 15.9602C144.245 16.0256 144.139 16.1108 144.066 16.2159C143.995 16.3182 143.959 16.4403 143.959 16.5824C143.959 16.7983 144.036 16.9631 144.189 17.0767C144.345 17.1903 144.543 17.2471 144.781 17.2471ZM151.408 9.77271V18.5H149.324V9.77271H151.408Z" fill="#00A4EE"/>
</g>
</g>
<rect x="0.749512" y="0.749985" width="157" height="26.5" rx="5.25" stroke="white" stroke-opacity="0.15" stroke-width="1.5"/>
<defs>
<filter id="filter0_d_28_2496" x="1.99951" y="-1.52588e-05" width="28" height="28" filterUnits="userSpaceOnUse" color-interpolation-filters="sRGB">
<feFlood flood-opacity="0" result="BackgroundImageFix"/>
<feColorMatrix in="SourceAlpha" type="matrix" values="0 0 0 0 0 0 0 0 0 0 0 0 0 0 0 0 0 0 127 0" result="hardAlpha"/>
<feOffset/>
<feGaussianBlur stdDeviation="2"/>
<feComposite in2="hardAlpha" operator="out"/>
<feColorMatrix type="matrix" values="0 0 0 0 0 0 0 0 0 0 0 0 0 0 0 0 0 0 0.25 0"/>
<feBlend mode="normal" in2="BackgroundImageFix" result="effect1_dropShadow_28_2496"/>
<feBlend mode="normal" in="SourceGraphic" in2="effect1_dropShadow_28_2496" result="shape"/>
</filter>
<filter id="filter1_d_28_2496" x="27.9995" y="3.49998" width="128.5" height="21.4545" filterUnits="userSpaceOnUse" color-interpolation-filters="sRGB">
<feFlood flood-opacity="0" result="BackgroundImageFix"/>
<feColorMatrix in="SourceAlpha" type="matrix" values="0 0 0 0 0 0 0 0 0 0 0 0 0 0 0 0 0 0 127 0" result="hardAlpha"/>
<feOffset/>
<feGaussianBlur stdDeviation="2"/>
<feComposite in2="hardAlpha" operator="out"/>
<feColorMatrix type="matrix" values="0 0 0 0 0 0 0 0 0 0 0 0 0 0 0 0 0 0 0.25 0"/>
<feBlend mode="normal" in2="BackgroundImageFix" result="effect1_dropShadow_28_2496"/>
<feBlend mode="normal" in="SourceGraphic" in2="effect1_dropShadow_28_2496" result="shape"/>
</filter>
<linearGradient id="paint0_linear_28_2496" x1="79.2495" y1="-1.52588e-05" x2="79.2495" y2="28" gradientUnits="userSpaceOnUse">
<stop stop-color="#001239"/>
<stop offset="1" stop-color="#001F2D"/>
</linearGradient>
<clipPath id="clip0_28_2496">
<rect x="-0.000488281" y="-1.52588e-05" width="158.5" height="28" rx="6" fill="white"/>
</clipPath>
</defs>
</svg>
