<svg width="235" height="41" viewBox="0 0 235 41" fill="none" xmlns="http://www.w3.org/2000/svg">
<rect x="0.00317383" y="0.00836182" width="234.001" height="40.0014" rx="8" fill="url(#paint0_linear_28_2496)"/>
<g filter="url(#filter0_d_28_2496)">
<path d="M30.6767 14.9727L16.606 30.2315H11.4451C11.0867 30.2315 10.8 29.8754 10.8717 29.5192L14.3123 7.86329C14.3839 7.36464 14.814 7.00845 15.3158 7.00845H24.0607C30.0817 7.22216 31.7303 10.2853 30.6552 14.9869L30.6767 14.9727Z" fill="#0045D9"/>
<path d="M30.9059 13.5622C33.0562 14.702 33.558 16.8391 32.8412 19.6886C31.9094 23.8915 29.1139 25.6724 25.0282 25.7437L23.8813 25.8149C23.4512 25.8149 23.1645 26.0998 23.0928 26.5273L22.161 32.1549C22.0893 32.6536 21.6592 33.0098 21.1575 33.0098H16.8567C16.4983 33.0098 16.2116 32.6536 16.2833 32.2974L17.8602 22.1106C17.9319 21.7544 30.9059 13.5622 30.9059 13.5622Z" fill="#00A4EE"/>
<path d="M17.7744 22.6092L19.208 13.5622C19.255 13.3479 19.3718 13.1551 19.5402 13.0134C19.7087 12.8717 19.9194 12.7892 20.1398 12.7786H27.021C28.6697 12.7786 29.8882 13.0635 30.8917 13.5622C30.5333 16.6966 29.0281 21.7544 21.7168 21.8969H18.5629C18.2045 21.8969 17.8461 22.1818 17.7744 22.6092Z" fill="#002788"/>
</g>
<g filter="url(#filter1_d_28_2496)">
<path d="M52.1062 17.3933C52.0418 16.8218 51.7762 16.3791 51.3093 16.0652C50.8425 15.7472 50.2549 15.5883 49.5465 15.5883C49.0394 15.5883 48.6008 15.6687 48.2305 15.8297C47.8602 15.9867 47.5725 16.204 47.3672 16.4817C47.166 16.7554 47.0654 17.0673 47.0654 17.4174C47.0654 17.7112 47.1338 17.9648 47.2706 18.1781C47.4115 18.3914 47.5946 18.5705 47.82 18.7154C48.0494 18.8562 48.2949 18.975 48.5565 19.0716C48.8181 19.1641 49.0696 19.2406 49.3111 19.301L50.5185 19.6149C50.9129 19.7115 51.3174 19.8423 51.7319 20.0073C52.1464 20.1723 52.5308 20.3896 52.885 20.6593C53.2391 20.9289 53.5249 21.263 53.7422 21.6614C53.9636 22.0598 54.0742 22.5368 54.0742 23.0922C54.0742 23.7924 53.8931 24.4142 53.5309 24.9576C53.1727 25.5009 52.6515 25.9295 51.9673 26.2434C51.2872 26.5574 50.4642 26.7143 49.4982 26.7143C48.5726 26.7143 47.7717 26.5674 47.0955 26.2736C46.4194 25.9798 45.8902 25.5633 45.5078 25.024C45.1255 24.4807 44.9142 23.8367 44.874 23.0922H46.7454C46.7816 23.5389 46.9265 23.9112 47.1801 24.209C47.4376 24.5028 47.7656 24.7221 48.1641 24.867C48.5665 25.0079 49.0072 25.0783 49.4862 25.0783C50.0134 25.0783 50.4823 24.9958 50.8928 24.8308C51.3073 24.6618 51.6333 24.4283 51.8708 24.1305C52.1082 23.8287 52.2269 23.4765 52.2269 23.074C52.2269 22.7078 52.1223 22.408 51.913 22.1745C51.7078 21.9411 51.4281 21.7479 51.0739 21.595C50.7237 21.4421 50.3273 21.3072 49.8846 21.1905L48.4237 20.7921C47.4336 20.5224 46.6488 20.126 46.0693 19.6028C45.4937 19.0796 45.206 18.3874 45.206 17.5261C45.206 16.8137 45.3992 16.1919 45.7855 15.6607C46.1719 15.1294 46.6951 14.7169 47.3551 14.4231C48.0152 14.1253 48.7597 13.9764 49.5888 13.9764C50.4259 13.9764 51.1644 14.1233 51.8044 14.4171C52.4483 14.7109 52.9554 15.1154 53.3257 15.6305C53.6959 16.1416 53.8891 16.7292 53.9052 17.3933H52.1062ZM62.0324 22.6635V17.2363H63.8435V26.5091H62.0686V24.9032H61.9721C61.7587 25.3983 61.4167 25.8108 60.9458 26.1408C60.4789 26.4668 59.8974 26.6298 59.2011 26.6298C58.6055 26.6298 58.0782 26.499 57.6194 26.2374C57.1646 25.9718 56.8065 25.5794 56.5449 25.0602C56.2873 24.541 56.1585 23.8991 56.1585 23.1344V17.2363H57.9635V22.9171C57.9635 23.549 58.1386 24.052 58.4887 24.4263C58.8389 24.8006 59.2937 24.9878 59.8531 24.9878C60.1912 24.9878 60.5272 24.9032 60.8613 24.7342C61.1993 24.5652 61.479 24.3096 61.7004 23.9675C61.9258 23.6254 62.0364 23.1908 62.0324 22.6635ZM66.2688 29.9863V17.2363H68.0316V18.7395H68.1825C68.2872 18.5463 68.4381 18.323 68.6353 18.0694C68.8325 17.8159 69.1062 17.5945 69.4563 17.4054C69.8065 17.2122 70.2693 17.1156 70.8448 17.1156C71.5934 17.1156 72.2615 17.3048 72.8491 17.6831C73.4367 18.0614 73.8975 18.6067 74.2315 19.3191C74.5696 20.0314 74.7387 20.8887 74.7387 21.8908C74.7387 22.8929 74.5716 23.7522 74.2376 24.4686C73.9035 25.1809 73.4447 25.7303 72.8612 26.1167C72.2776 26.499 71.6115 26.6902 70.8629 26.6902C70.2995 26.6902 69.8387 26.5956 69.4805 26.4064C69.1263 26.2173 68.8486 25.9959 68.6474 25.7424C68.4462 25.4888 68.2912 25.2634 68.1825 25.0662H68.0739V29.9863H66.2688ZM68.0377 21.8727C68.0377 22.5247 68.1322 23.0962 68.3214 23.5872C68.5106 24.0782 68.7842 24.4625 69.1424 24.7402C69.5006 25.0139 69.9393 25.1507 70.4585 25.1507C70.9978 25.1507 71.4485 25.0079 71.8107 24.7221C72.173 24.4324 72.4466 24.04 72.6318 23.5449C72.8209 23.0499 72.9155 22.4925 72.9155 21.8727C72.9155 21.261 72.8229 20.7116 72.6378 20.2246C72.4567 19.7376 72.183 19.3533 71.8168 19.0716C71.4546 18.7898 71.0018 18.649 70.4585 18.649C69.9353 18.649 69.4926 18.7838 69.1303 19.0535C68.7722 19.3231 68.5005 19.6994 68.3154 20.1824C68.1302 20.6653 68.0377 21.2288 68.0377 21.8727ZM76.761 29.9863V17.2363H78.5238V18.7395H78.6747C78.7794 18.5463 78.9303 18.323 79.1275 18.0694C79.3247 17.8159 79.5984 17.5945 79.9485 17.4054C80.2987 17.2122 80.7615 17.1156 81.337 17.1156C82.0856 17.1156 82.7537 17.3048 83.3413 17.6831C83.9289 18.0614 84.3897 18.6067 84.7237 19.3191C85.0618 20.0314 85.2308 20.8887 85.2308 21.8908C85.2308 22.8929 85.0638 23.7522 84.7298 24.4686C84.3957 25.1809 83.9369 25.7303 83.3533 26.1167C82.7698 26.499 82.1037 26.6902 81.3551 26.6902C80.7917 26.6902 80.3309 26.5956 79.9727 26.4064C79.6185 26.2173 79.3408 25.9959 79.1396 25.7424C78.9383 25.4888 78.7834 25.2634 78.6747 25.0662H78.5661V29.9863H76.761ZM78.5298 21.8727C78.5298 22.5247 78.6244 23.0962 78.8136 23.5872C79.0027 24.0782 79.2764 24.4625 79.6346 24.7402C79.9928 25.0139 80.4315 25.1507 80.9507 25.1507C81.4899 25.1507 81.9407 25.0079 82.3029 24.7221C82.6651 24.4324 82.9388 24.04 83.1239 23.5449C83.3131 23.0499 83.4077 22.4925 83.4077 21.8727C83.4077 21.261 83.3151 20.7116 83.13 20.2246C82.9489 19.7376 82.6752 19.3533 82.309 19.0716C81.9467 18.7898 81.494 18.649 80.9507 18.649C80.4274 18.649 79.9847 18.7838 79.6225 19.0535C79.2643 19.3231 78.9927 19.6994 78.8075 20.1824C78.6224 20.6653 78.5298 21.2288 78.5298 21.8727ZM91.1591 26.6962C90.2898 26.6962 89.5311 26.497 88.8832 26.0985C88.2352 25.7001 87.7321 25.1427 87.3739 24.4263C87.0158 23.7099 86.8367 22.8728 86.8367 21.915C86.8367 20.9531 87.0158 20.1119 87.3739 19.3915C87.7321 18.6711 88.2352 18.1117 88.8832 17.7133C89.5311 17.3148 90.2898 17.1156 91.1591 17.1156C92.0284 17.1156 92.7871 17.3148 93.435 17.7133C94.083 18.1117 94.5861 18.6711 94.9443 19.3915C95.3024 20.1119 95.4815 20.9531 95.4815 21.915C95.4815 22.8728 95.3024 23.7099 94.9443 24.4263C94.5861 25.1427 94.083 25.7001 93.435 26.0985C92.7871 26.497 92.0284 26.6962 91.1591 26.6962ZM91.1651 25.1809C91.7286 25.1809 92.1954 25.032 92.5657 24.7342C92.936 24.4364 93.2096 24.04 93.3867 23.5449C93.5678 23.0499 93.6584 22.5046 93.6584 21.9089C93.6584 21.3173 93.5678 20.774 93.3867 20.2789C93.2096 19.7799 92.936 19.3794 92.5657 19.0776C92.1954 18.7758 91.7286 18.6248 91.1651 18.6248C90.5977 18.6248 90.1268 18.7758 89.7525 19.0776C89.3822 19.3794 89.1065 19.7799 88.9254 20.2789C88.7484 20.774 88.6598 21.3173 88.6598 21.9089C88.6598 22.5046 88.7484 23.0499 88.9254 23.5449C89.1065 24.04 89.3822 24.4364 89.7525 24.7342C90.1268 25.032 90.5977 25.1809 91.1651 25.1809ZM97.4964 26.5091V17.2363H99.241V18.7093H99.3376C99.5067 18.2103 99.8045 17.8179 100.231 17.5321C100.662 17.2424 101.149 17.0975 101.692 17.0975C101.805 17.0975 101.938 17.1015 102.09 17.1096C102.247 17.1176 102.37 17.1277 102.459 17.1397V18.8663C102.386 18.8462 102.257 18.824 102.072 18.7999C101.887 18.7717 101.702 18.7576 101.517 18.7576C101.09 18.7576 100.71 18.8482 100.376 19.0293C100.046 19.2064 99.7844 19.4539 99.5912 19.7718C99.398 20.0858 99.3014 20.444 99.3014 20.8464V26.5091H97.4964ZM108.897 17.2363V18.6852H103.832V17.2363H108.897ZM105.19 15.0147H106.995V23.7864C106.995 24.1365 107.048 24.4002 107.152 24.5772C107.257 24.7503 107.392 24.869 107.557 24.9334C107.726 24.9938 107.909 25.024 108.106 25.024C108.251 25.024 108.378 25.0139 108.487 24.9938C108.595 24.9737 108.68 24.9576 108.74 24.9455L109.066 26.4366C108.962 26.4769 108.813 26.5171 108.619 26.5574C108.426 26.6016 108.185 26.6258 107.895 26.6298C107.42 26.6378 106.977 26.5533 106.567 26.3762C106.156 26.1992 105.824 25.9255 105.571 25.5552C105.317 25.185 105.19 24.7201 105.19 24.1607V15.0147ZM115.393 26.5091V17.2363H117.125V18.7456H117.24C117.433 18.2344 117.749 17.836 118.188 17.5503C118.627 17.2605 119.152 17.1156 119.764 17.1156C120.383 17.1156 120.903 17.2605 121.321 17.5503C121.744 17.84 122.056 18.2385 122.257 18.7456H122.353C122.575 18.2505 122.927 17.8561 123.41 17.5623C123.893 17.2645 124.468 17.1156 125.136 17.1156C125.978 17.1156 126.664 17.3792 127.195 17.9064C127.73 18.4337 127.998 19.2285 127.998 20.291V26.5091H126.193V20.4601C126.193 19.8322 126.022 19.3774 125.68 19.0957C125.338 18.814 124.929 18.6731 124.454 18.6731C123.867 18.6731 123.41 18.8542 123.084 19.2164C122.758 19.5746 122.595 20.0355 122.595 20.5989V26.5091H120.796V20.3454C120.796 19.8423 120.639 19.4378 120.325 19.1319C120.011 18.8261 119.603 18.6731 119.1 18.6731C118.757 18.6731 118.441 18.7637 118.152 18.9448C117.866 19.1219 117.635 19.3694 117.457 19.6873C117.284 20.0053 117.198 20.3735 117.198 20.7921V26.5091H115.393ZM134.414 26.6962C133.5 26.6962 132.713 26.501 132.053 26.1106C131.397 25.7162 130.89 25.1628 130.532 24.4505C130.178 23.7341 130.001 22.8949 130.001 21.9331C130.001 20.9833 130.178 20.1461 130.532 19.4217C130.89 18.6973 131.389 18.1318 132.029 17.7253C132.673 17.3188 133.426 17.1156 134.287 17.1156C134.81 17.1156 135.317 17.2021 135.808 17.3752C136.299 17.5482 136.74 17.8199 137.13 18.1902C137.521 18.5604 137.829 19.0414 138.054 19.633C138.279 20.2206 138.392 20.935 138.392 21.7761V22.416H131.021V21.0637H136.623C136.623 20.5888 136.527 20.1683 136.333 19.802C136.14 19.4318 135.869 19.14 135.518 18.9267C135.172 18.7134 134.766 18.6067 134.299 18.6067C133.792 18.6067 133.349 18.7315 132.971 18.981C132.597 19.2265 132.307 19.5485 132.102 19.9469C131.9 20.3413 131.8 20.77 131.8 21.2328V22.2892C131.8 22.909 131.908 23.4363 132.126 23.8709C132.347 24.3056 132.655 24.6376 133.049 24.867C133.444 25.0924 133.905 25.2051 134.432 25.2051C134.774 25.2051 135.086 25.1568 135.368 25.0602C135.649 24.9596 135.893 24.8107 136.098 24.6135C136.303 24.4163 136.46 24.1728 136.569 23.883L138.277 24.1909C138.141 24.694 137.895 25.1347 137.541 25.513C137.191 25.8873 136.75 26.179 136.219 26.3883C135.692 26.5936 135.09 26.6962 134.414 26.6962ZM148.8 26.6962C147.93 26.6962 147.172 26.497 146.524 26.0985C145.876 25.7001 145.373 25.1427 145.015 24.4263C144.656 23.7099 144.477 22.8728 144.477 21.915C144.477 20.9531 144.656 20.1119 145.015 19.3915C145.373 18.6711 145.876 18.1117 146.524 17.7133C147.172 17.3148 147.93 17.1156 148.8 17.1156C149.669 17.1156 150.428 17.3148 151.076 17.7133C151.724 18.1117 152.227 18.6711 152.585 19.3915C152.943 20.1119 153.122 20.9531 153.122 21.915C153.122 22.8728 152.943 23.7099 152.585 24.4263C152.227 25.1427 151.724 25.7001 151.076 26.0985C150.428 26.497 149.669 26.6962 148.8 26.6962ZM148.806 25.1809C149.369 25.1809 149.836 25.032 150.206 24.7342C150.577 24.4364 150.85 24.04 151.027 23.5449C151.208 23.0499 151.299 22.5046 151.299 21.9089C151.299 21.3173 151.208 20.774 151.027 20.2789C150.85 19.7799 150.577 19.3794 150.206 19.0776C149.836 18.7758 149.369 18.6248 148.806 18.6248C148.238 18.6248 147.767 18.7758 147.393 19.0776C147.023 19.3794 146.747 19.7799 146.566 20.2789C146.389 20.774 146.3 21.3173 146.3 21.9089C146.3 22.5046 146.389 23.0499 146.566 23.5449C146.747 24.04 147.023 24.4364 147.393 24.7342C147.767 25.032 148.238 25.1809 148.806 25.1809ZM156.942 21.0034V26.5091H155.137V17.2363H156.87V18.7456H156.984C157.198 18.2546 157.532 17.8602 157.986 17.5623C158.445 17.2645 159.023 17.1156 159.719 17.1156C160.351 17.1156 160.904 17.2484 161.379 17.514C161.854 17.7756 162.222 18.166 162.484 18.6852C162.746 19.2044 162.876 19.8463 162.876 20.611V26.5091H161.071V20.8283C161.071 20.1562 160.896 19.631 160.546 19.2527C160.196 18.8703 159.715 18.6792 159.103 18.6792C158.685 18.6792 158.312 18.7697 157.986 18.9508C157.664 19.1319 157.409 19.3976 157.22 19.7477C157.035 20.0938 156.942 20.5124 156.942 21.0034Z" fill="#E8E8E8"/>
<path d="M169.94 26.5091V14.1454H175.048C175.973 14.1454 176.772 14.3265 177.444 14.6887C178.12 15.0469 178.642 15.548 179.008 16.1919C179.374 16.8319 179.557 17.5764 179.557 18.4256C179.557 19.2788 179.37 20.0254 178.996 20.6653C178.625 21.3012 178.096 21.7942 177.408 22.1444C176.72 22.4945 175.903 22.6696 174.957 22.6696H171.806V20.3152H174.402C174.852 20.3152 175.229 20.2367 175.531 20.0797C175.836 19.9228 176.068 19.7034 176.225 19.4217C176.382 19.136 176.46 18.8039 176.46 18.4256C176.46 18.0433 176.382 17.7133 176.225 17.4356C176.068 17.1538 175.836 16.9365 175.531 16.7836C175.225 16.6306 174.848 16.5542 174.402 16.5542H172.929V26.5091H169.94ZM183.312 26.666C182.721 26.666 182.195 26.5674 181.737 26.3702C181.282 26.169 180.922 25.8671 180.656 25.4647C180.394 25.0582 180.264 24.5491 180.264 23.9373C180.264 23.4222 180.354 22.9875 180.535 22.6333C180.716 22.2792 180.966 21.9914 181.284 21.7701C181.602 21.5487 181.968 21.3817 182.382 21.269C182.797 21.1523 183.24 21.0738 183.711 21.0336C184.238 20.9853 184.662 20.935 184.984 20.8826C185.306 20.8263 185.54 20.7478 185.685 20.6472C185.834 20.5426 185.908 20.3957 185.908 20.2065V20.1763C185.908 19.8664 185.801 19.627 185.588 19.4579C185.375 19.2889 185.087 19.2044 184.725 19.2044C184.334 19.2044 184.02 19.2889 183.783 19.4579C183.546 19.627 183.395 19.8604 183.33 20.1582L180.608 20.0616C180.688 19.4982 180.895 18.9951 181.229 18.5524C181.567 18.1057 182.03 17.7555 182.618 17.502C183.21 17.2444 183.92 17.1156 184.749 17.1156C185.341 17.1156 185.886 17.186 186.385 17.3269C186.884 17.4637 187.319 17.665 187.689 17.9306C188.059 18.1922 188.345 18.5142 188.546 18.8965C188.751 19.2788 188.854 19.7155 188.854 20.2065V26.5091H186.077V25.2172H186.005C185.84 25.5311 185.628 25.7967 185.371 26.014C185.117 26.2314 184.817 26.3944 184.471 26.503C184.129 26.6117 183.743 26.666 183.312 26.666ZM184.224 24.7342C184.542 24.7342 184.827 24.6698 185.081 24.541C185.339 24.4122 185.544 24.2351 185.697 24.0098C185.85 23.7804 185.926 23.5147 185.926 23.2129V22.3315C185.842 22.3758 185.739 22.416 185.618 22.4522C185.502 22.4885 185.373 22.5227 185.232 22.5549C185.091 22.5871 184.946 22.6152 184.797 22.6394C184.648 22.6635 184.505 22.6857 184.369 22.7058C184.091 22.7501 183.853 22.8185 183.656 22.911C183.463 23.0036 183.314 23.1244 183.21 23.2733C183.109 23.4182 183.059 23.5912 183.059 23.7924C183.059 24.0983 183.167 24.3317 183.385 24.4927C183.606 24.6537 183.886 24.7342 184.224 24.7342ZM192.132 29.9863C191.778 29.9863 191.444 29.9582 191.13 29.9018C190.816 29.8495 190.546 29.7791 190.321 29.6905L190.973 27.5474C191.263 27.644 191.524 27.7003 191.758 27.7164C191.995 27.7325 192.199 27.6943 192.368 27.6017C192.541 27.5132 192.673 27.3542 192.766 27.1248L192.881 26.8471L189.585 17.2363H192.675L194.384 23.8528H194.48L196.213 17.2363H199.322L195.827 27.3965C195.658 27.9036 195.418 28.3503 195.108 28.7367C194.802 29.1271 194.406 29.4329 193.919 29.6543C193.436 29.8757 192.84 29.9863 192.132 29.9863Z" fill="#0045D9"/>
<path d="M200.454 26.5091V14.1454H205.561C206.487 14.1454 207.286 14.3265 207.958 14.6887C208.634 15.0469 209.155 15.548 209.521 16.1919C209.888 16.8319 210.071 17.5764 210.071 18.4256C210.071 19.2788 209.884 20.0254 209.509 20.6653C209.139 21.3012 208.61 21.7942 207.922 22.1444C207.233 22.4945 206.417 22.6696 205.471 22.6696H202.319V20.3152H204.915C205.366 20.3152 205.742 20.2367 206.044 20.0797C206.35 19.9228 206.582 19.7034 206.738 19.4217C206.895 19.136 206.974 18.8039 206.974 18.4256C206.974 18.0433 206.895 17.7133 206.738 17.4356C206.582 17.1538 206.35 16.9365 206.044 16.7836C205.738 16.6306 205.362 16.5542 204.915 16.5542H203.442V26.5091H200.454ZM213.826 26.666C213.234 26.666 212.709 26.5674 212.25 26.3702C211.795 26.169 211.435 25.8671 211.17 25.4647C210.908 25.0582 210.777 24.5491 210.777 23.9373C210.777 23.4222 210.868 22.9875 211.049 22.6333C211.23 22.2792 211.479 21.9914 211.797 21.7701C212.115 21.5487 212.482 21.3817 212.896 21.269C213.311 21.1523 213.753 21.0738 214.224 21.0336C214.751 20.9853 215.176 20.935 215.498 20.8826C215.82 20.8263 216.053 20.7478 216.198 20.6472C216.347 20.5426 216.422 20.3957 216.422 20.2065V20.1763C216.422 19.8664 216.315 19.627 216.102 19.4579C215.888 19.2889 215.601 19.2044 215.238 19.2044C214.848 19.2044 214.534 19.2889 214.297 19.4579C214.059 19.627 213.908 19.8604 213.844 20.1582L211.121 20.0616C211.202 19.4982 211.409 18.9951 211.743 18.5524C212.081 18.1057 212.544 17.7555 213.132 17.502C213.723 17.2444 214.434 17.1156 215.263 17.1156C215.854 17.1156 216.4 17.186 216.899 17.3269C217.398 17.4637 217.832 17.665 218.203 17.9306C218.573 18.1922 218.859 18.5142 219.06 18.8965C219.265 19.2788 219.368 19.7155 219.368 20.2065V26.5091H216.591V25.2172H216.518C216.353 25.5311 216.142 25.7967 215.884 26.014C215.631 26.2314 215.331 26.3944 214.985 26.503C214.643 26.6117 214.256 26.666 213.826 26.666ZM214.737 24.7342C215.055 24.7342 215.341 24.6698 215.595 24.541C215.852 24.4122 216.057 24.2351 216.21 24.0098C216.363 23.7804 216.44 23.5147 216.44 23.2129V22.3315C216.355 22.3758 216.253 22.416 216.132 22.4522C216.015 22.4885 215.886 22.5227 215.746 22.5549C215.605 22.5871 215.46 22.6152 215.311 22.6394C215.162 22.6635 215.019 22.6857 214.882 22.7058C214.605 22.7501 214.367 22.8185 214.17 22.911C213.977 23.0036 213.828 23.1244 213.723 23.2733C213.623 23.4182 213.572 23.5912 213.572 23.7924C213.572 24.0983 213.681 24.3317 213.898 24.4927C214.12 24.6537 214.399 24.7342 214.737 24.7342ZM224.125 14.1454V26.5091H221.173V14.1454H224.125Z" fill="#00A4EE"/>
</g>
<rect x="1.0746" y="1.07979" width="231.858" height="37.8585" rx="6.92857" stroke="white" stroke-opacity="0.15" stroke-width="2.14286"/>
<defs>
<filter id="filter0_d_28_2496" x="2.40289" y="0.408082" width="39.202" height="39.202" filterUnits="userSpaceOnUse" color-interpolation-filters="sRGB">
<feFlood flood-opacity="0" result="BackgroundImageFix"/>
<feColorMatrix in="SourceAlpha" type="matrix" values="0 0 0 0 0 0 0 0 0 0 0 0 0 0 0 0 0 0 127 0" result="hardAlpha"/>
<feOffset/>
<feGaussianBlur stdDeviation="2.80014"/>
<feComposite in2="hardAlpha" operator="out"/>
<feColorMatrix type="matrix" values="0 0 0 0 0 0 0 0 0 0 0 0 0 0 0 0 0 0 0.25 0"/>
<feBlend mode="normal" in2="BackgroundImageFix" result="effect1_dropShadow_28_2496"/>
<feBlend mode="normal" in="SourceGraphic" in2="effect1_dropShadow_28_2496" result="shape"/>
</filter>
<filter id="filter1_d_28_2496" x="38.2904" y="3.79478" width="193.429" height="32.4286" filterUnits="userSpaceOnUse" color-interpolation-filters="sRGB">
<feFlood flood-opacity="0" result="BackgroundImageFix"/>
<feColorMatrix in="SourceAlpha" type="matrix" values="0 0 0 0 0 0 0 0 0 0 0 0 0 0 0 0 0 0 127 0" result="hardAlpha"/>
<feOffset/>
<feGaussianBlur stdDeviation="2.85714"/>
<feComposite in2="hardAlpha" operator="out"/>
<feColorMatrix type="matrix" values="0 0 0 0 0 0 0 0 0 0 0 0 0 0 0 0 0 0 0.25 0"/>
<feBlend mode="normal" in2="BackgroundImageFix" result="effect1_dropShadow_28_2496"/>
<feBlend mode="normal" in="SourceGraphic" in2="effect1_dropShadow_28_2496" result="shape"/>
</filter>
<linearGradient id="paint0_linear_28_2496" x1="117.004" y1="0.00836181" x2="117.004" y2="40.0098" gradientUnits="userSpaceOnUse">
<stop stop-color="#0E1B35"/>
<stop offset="1" stop-color="#0A1D25"/>
</linearGradient>
</defs>
</svg>
