<svg width="227" height="41" viewBox="0 0 227 41" fill="none" xmlns="http://www.w3.org/2000/svg">
<rect x="0.00317383" y="0.00976562" width="226.001" height="40.0014" rx="8" fill="url(#paint0_linear_28_2505)"/>
<g filter="url(#filter0_d_28_2505)">
<path d="M30.6767 14.9741L16.606 30.2329H11.4451C11.0867 30.2329 10.8 29.8768 10.8717 29.5206L14.3123 7.86469C14.3839 7.36604 14.814 7.00986 15.3158 7.00986H24.0607C30.0817 7.22357 31.7303 10.2867 30.6552 14.9883L30.6767 14.9741Z" fill="#0045D9"/>
<path d="M30.9059 13.5636C33.0562 14.7034 33.558 16.8405 32.8412 19.69C31.9094 23.8929 29.1139 25.6738 25.0282 25.7451L23.8813 25.8163C23.4512 25.8163 23.1645 26.1012 23.0928 26.5287L22.161 32.1563C22.0893 32.655 21.6592 33.0112 21.1575 33.0112H16.8567C16.4983 33.0112 16.2116 32.655 16.2833 32.2988L17.8602 22.112C17.9319 21.7558 30.9059 13.5636 30.9059 13.5636Z" fill="#00A4EE"/>
<path d="M17.7744 22.6106L19.208 13.5636C19.255 13.3493 19.3718 13.1565 19.5402 13.0148C19.7087 12.8732 19.9194 12.7906 20.1398 12.78H27.021C28.6697 12.78 29.8882 13.0649 30.8917 13.5636C30.5333 16.698 29.0281 21.7558 21.7168 21.8983H18.5629C18.2045 21.8983 17.8461 22.1832 17.7744 22.6106Z" fill="#002788"/>
</g>
<g filter="url(#filter1_d_28_2505)">
<path d="M50.1062 17.3947C50.0418 16.8232 49.7762 16.3805 49.3093 16.0666C48.8425 15.7486 48.2549 15.5897 47.5465 15.5897C47.0394 15.5897 46.6008 15.6701 46.2305 15.8311C45.8602 15.9881 45.5725 16.2054 45.3672 16.4831C45.166 16.7568 45.0654 17.0687 45.0654 17.4188C45.0654 17.7126 45.1338 17.9662 45.2706 18.1795C45.4115 18.3928 45.5946 18.5719 45.82 18.7168C46.0494 18.8576 46.2949 18.9764 46.5565 19.073C46.8181 19.1655 47.0696 19.242 47.3111 19.3024L48.5185 19.6163C48.9129 19.7129 49.3174 19.8437 49.7319 20.0087C50.1464 20.1737 50.5308 20.391 50.885 20.6607C51.2391 20.9303 51.5249 21.2644 51.7422 21.6628C51.9636 22.0612 52.0742 22.5382 52.0742 23.0936C52.0742 23.7938 51.8931 24.4156 51.5309 24.959C51.1727 25.5023 50.6515 25.9309 49.9673 26.2448C49.2872 26.5588 48.4642 26.7157 47.4982 26.7157C46.5726 26.7157 45.7717 26.5688 45.0955 26.275C44.4194 25.9812 43.8902 25.5647 43.5078 25.0254C43.1255 24.4821 42.9142 23.8381 42.874 23.0936H44.7454C44.7816 23.5403 44.9265 23.9126 45.1801 24.2104C45.4376 24.5042 45.7656 24.7235 46.1641 24.8684C46.5665 25.0093 47.0072 25.0797 47.4862 25.0797C48.0134 25.0797 48.4823 24.9972 48.8928 24.8322C49.3073 24.6632 49.6333 24.4297 49.8708 24.1319C50.1082 23.8301 50.2269 23.4779 50.2269 23.0754C50.2269 22.7092 50.1223 22.4094 49.913 22.1759C49.7078 21.9425 49.4281 21.7493 49.0739 21.5964C48.7237 21.4435 48.3273 21.3086 47.8846 21.1919L46.4237 20.7935C45.4336 20.5238 44.6488 20.1274 44.0693 19.6042C43.4937 19.081 43.206 18.3888 43.206 17.5275C43.206 16.8152 43.3992 16.1933 43.7855 15.6621C44.1719 15.1308 44.6951 14.7183 45.3551 14.4245C46.0152 14.1267 46.7597 13.9778 47.5888 13.9778C48.4259 13.9778 49.1644 14.1247 49.8044 14.4185C50.4483 14.7123 50.9554 15.1168 51.3257 15.6319C51.6959 16.143 51.8891 16.7306 51.9052 17.3947H50.1062ZM60.0324 22.6649V17.2377H61.8435V26.5105H60.0686V24.9046H59.9721C59.7587 25.3997 59.4167 25.8122 58.9458 26.1422C58.4789 26.4682 57.8974 26.6312 57.2011 26.6312C56.6055 26.6312 56.0782 26.5004 55.6194 26.2388C55.1646 25.9732 54.8065 25.5808 54.5449 25.0616C54.2873 24.5424 54.1585 23.9005 54.1585 23.1358V17.2377H55.9635V22.9185C55.9635 23.5504 56.1386 24.0534 56.4887 24.4277C56.8389 24.802 57.2937 24.9892 57.8531 24.9892C58.1912 24.9892 58.5272 24.9046 58.8613 24.7356C59.1993 24.5666 59.479 24.311 59.7004 23.9689C59.9258 23.6268 60.0364 23.1922 60.0324 22.6649ZM64.2688 29.9877V17.2377H66.0316V18.7409H66.1825C66.2872 18.5478 66.4381 18.3244 66.6353 18.0708C66.8325 17.8173 67.1062 17.5959 67.4563 17.4068C67.8065 17.2136 68.2693 17.117 68.8448 17.117C69.5934 17.117 70.2615 17.3062 70.8491 17.6845C71.4367 18.0628 71.8975 18.6081 72.2315 19.3205C72.5696 20.0328 72.7387 20.8901 72.7387 21.8922C72.7387 22.8943 72.5716 23.7536 72.2376 24.47C71.9035 25.1823 71.4447 25.7317 70.8612 26.1181C70.2776 26.5004 69.6115 26.6916 68.8629 26.6916C68.2995 26.6916 67.8387 26.597 67.4805 26.4078C67.1263 26.2187 66.8486 25.9973 66.6474 25.7438C66.4462 25.4902 66.2912 25.2648 66.1825 25.0676H66.0739V29.9877H64.2688ZM66.0377 21.8741C66.0377 22.5261 66.1322 23.0976 66.3214 23.5886C66.5106 24.0796 66.7842 24.4639 67.1424 24.7416C67.5006 25.0153 67.9393 25.1522 68.4585 25.1522C68.9978 25.1522 69.4485 25.0093 69.8107 24.7235C70.173 24.4338 70.4466 24.0414 70.6318 23.5463C70.8209 23.0513 70.9155 22.4939 70.9155 21.8741C70.9155 21.2624 70.8229 20.713 70.6378 20.226C70.4567 19.739 70.183 19.3547 69.8168 19.073C69.4546 18.7912 69.0018 18.6504 68.4585 18.6504C67.9353 18.6504 67.4926 18.7852 67.1303 19.0549C66.7722 19.3245 66.5005 19.7008 66.3154 20.1838C66.1302 20.6667 66.0377 21.2302 66.0377 21.8741ZM74.761 29.9877V17.2377H76.5238V18.7409H76.6747C76.7794 18.5478 76.9303 18.3244 77.1275 18.0708C77.3247 17.8173 77.5984 17.5959 77.9485 17.4068C78.2987 17.2136 78.7615 17.117 79.337 17.117C80.0856 17.117 80.7537 17.3062 81.3413 17.6845C81.9289 18.0628 82.3897 18.6081 82.7237 19.3205C83.0618 20.0328 83.2308 20.8901 83.2308 21.8922C83.2308 22.8943 83.0638 23.7536 82.7298 24.47C82.3957 25.1823 81.9369 25.7317 81.3533 26.1181C80.7698 26.5004 80.1037 26.6916 79.3551 26.6916C78.7917 26.6916 78.3309 26.597 77.9727 26.4078C77.6185 26.2187 77.3408 25.9973 77.1396 25.7438C76.9383 25.4902 76.7834 25.2648 76.6747 25.0676H76.5661V29.9877H74.761ZM76.5298 21.8741C76.5298 22.5261 76.6244 23.0976 76.8136 23.5886C77.0027 24.0796 77.2764 24.4639 77.6346 24.7416C77.9928 25.0153 78.4315 25.1522 78.9507 25.1522C79.4899 25.1522 79.9407 25.0093 80.3029 24.7235C80.6651 24.4338 80.9388 24.0414 81.1239 23.5463C81.3131 23.0513 81.4077 22.4939 81.4077 21.8741C81.4077 21.2624 81.3151 20.713 81.13 20.226C80.9489 19.739 80.6752 19.3547 80.309 19.073C79.9467 18.7912 79.494 18.6504 78.9507 18.6504C78.4274 18.6504 77.9847 18.7852 77.6225 19.0549C77.2643 19.3245 76.9927 19.7008 76.8075 20.1838C76.6224 20.6667 76.5298 21.2302 76.5298 21.8741ZM89.1591 26.6976C88.2898 26.6976 87.5311 26.4984 86.8832 26.1C86.2352 25.7015 85.7321 25.1441 85.3739 24.4277C85.0158 23.7113 84.8367 22.8742 84.8367 21.9164C84.8367 20.9545 85.0158 20.1133 85.3739 19.3929C85.7321 18.6725 86.2352 18.1131 86.8832 17.7147C87.5311 17.3162 88.2898 17.117 89.1591 17.117C90.0284 17.117 90.7871 17.3162 91.435 17.7147C92.083 18.1131 92.5861 18.6725 92.9443 19.3929C93.3024 20.1133 93.4815 20.9545 93.4815 21.9164C93.4815 22.8742 93.3024 23.7113 92.9443 24.4277C92.5861 25.1441 92.083 25.7015 91.435 26.1C90.7871 26.4984 90.0284 26.6976 89.1591 26.6976ZM89.1651 25.1823C89.7286 25.1823 90.1954 25.0334 90.5657 24.7356C90.936 24.4378 91.2096 24.0414 91.3867 23.5463C91.5678 23.0513 91.6584 22.506 91.6584 21.9103C91.6584 21.3187 91.5678 20.7754 91.3867 20.2804C91.2096 19.7813 90.936 19.3808 90.5657 19.079C90.1954 18.7772 89.7286 18.6262 89.1651 18.6262C88.5977 18.6262 88.1268 18.7772 87.7525 19.079C87.3822 19.3808 87.1065 19.7813 86.9254 20.2804C86.7484 20.7754 86.6598 21.3187 86.6598 21.9103C86.6598 22.506 86.7484 23.0513 86.9254 23.5463C87.1065 24.0414 87.3822 24.4378 87.7525 24.7356C88.1268 25.0334 88.5977 25.1823 89.1651 25.1823ZM95.4964 26.5105V17.2377H97.241V18.7107H97.3376C97.5067 18.2117 97.8045 17.8193 98.2311 17.5335C98.6617 17.2438 99.1487 17.0989 99.692 17.0989C99.8047 17.0989 99.9375 17.1029 100.09 17.111C100.247 17.119 100.37 17.1291 100.459 17.1411V18.8677C100.386 18.8476 100.257 18.8255 100.072 18.8013C99.8872 18.7731 99.7021 18.759 99.517 18.759C99.0904 18.759 98.71 18.8496 98.376 19.0307C98.046 19.2078 97.7844 19.4553 97.5912 19.7732C97.398 20.0872 97.3014 20.4454 97.3014 20.8478V26.5105H95.4964ZM106.897 17.2377V18.6866H101.832V17.2377H106.897ZM103.19 15.0161H104.995V23.7878C104.995 24.1379 105.048 24.4016 105.152 24.5786C105.257 24.7517 105.392 24.8704 105.557 24.9348C105.726 24.9952 105.909 25.0254 106.106 25.0254C106.251 25.0254 106.378 25.0153 106.487 24.9952C106.595 24.9751 106.68 24.959 106.74 24.9469L107.066 26.438C106.962 26.4783 106.813 26.5185 106.619 26.5588C106.426 26.603 106.185 26.6272 105.895 26.6312C105.42 26.6393 104.977 26.5547 104.567 26.3777C104.156 26.2006 103.824 25.9269 103.571 25.5566C103.317 25.1864 103.19 24.7215 103.19 24.1621V15.0161ZM119.267 22.6649V17.2377H121.078V26.5105H119.303V24.9046H119.206C118.993 25.3997 118.651 25.8122 118.18 26.1422C117.713 26.4682 117.132 26.6312 116.435 26.6312C115.84 26.6312 115.313 26.5004 114.854 26.2388C114.399 25.9732 114.041 25.5808 113.779 25.0616C113.522 24.5424 113.393 23.9005 113.393 23.1358V17.2377H115.198V22.9185C115.198 23.5504 115.373 24.0534 115.723 24.4277C116.073 24.802 116.528 24.9892 117.087 24.9892C117.426 24.9892 117.762 24.9046 118.096 24.7356C118.434 24.5666 118.713 24.311 118.935 23.9689C119.16 23.6268 119.271 23.1922 119.267 22.6649ZM130.452 19.5016L128.816 19.7914C128.747 19.5821 128.639 19.3829 128.49 19.1937C128.345 19.0045 128.148 18.8496 127.898 18.7289C127.649 18.6081 127.337 18.5478 126.962 18.5478C126.451 18.5478 126.025 18.6625 125.683 18.8919C125.34 19.1172 125.169 19.409 125.169 19.7672C125.169 20.0771 125.284 20.3266 125.513 20.5158C125.743 20.7049 126.113 20.8599 126.624 20.9806L128.097 21.3187C128.951 21.5159 129.586 21.8198 130.005 22.2303C130.424 22.6408 130.633 23.1741 130.633 23.8301C130.633 24.3855 130.472 24.8805 130.15 25.3152C129.832 25.7458 129.387 26.0839 128.816 26.3294C128.248 26.5749 127.59 26.6976 126.842 26.6976C125.803 26.6976 124.956 26.4763 124.3 26.0335C123.644 25.5868 123.242 24.9529 123.093 24.1319L124.837 23.8663C124.946 24.3211 125.169 24.6652 125.507 24.8986C125.846 25.128 126.286 25.2427 126.83 25.2427C127.421 25.2427 127.894 25.12 128.248 24.8745C128.602 24.6249 128.779 24.3211 128.779 23.9629C128.779 23.6731 128.671 23.4296 128.453 23.2324C128.24 23.0352 127.912 22.8863 127.469 22.7857L125.9 22.4416C125.035 22.2444 124.395 21.9304 123.98 21.4998C123.57 21.0692 123.364 20.5238 123.364 19.8638C123.364 19.3165 123.517 18.8375 123.823 18.427C124.129 18.0165 124.552 17.6965 125.091 17.4671C125.63 17.2337 126.248 17.117 126.944 17.117C127.946 17.117 128.735 17.3343 129.311 17.769C129.886 18.1996 130.267 18.7772 130.452 19.5016ZM141.022 26.6976C140.153 26.6976 139.394 26.4984 138.746 26.1C138.098 25.7015 137.595 25.1441 137.237 24.4277C136.879 23.7113 136.7 22.8742 136.7 21.9164C136.7 20.9545 136.879 20.1133 137.237 19.3929C137.595 18.6725 138.098 18.1131 138.746 17.7147C139.394 17.3162 140.153 17.117 141.022 17.117C141.892 17.117 142.65 17.3162 143.298 17.7147C143.946 18.1131 144.449 18.6725 144.808 19.3929C145.166 20.1133 145.345 20.9545 145.345 21.9164C145.345 22.8742 145.166 23.7113 144.808 24.4277C144.449 25.1441 143.946 25.7015 143.298 26.1C142.65 26.4984 141.892 26.6976 141.022 26.6976ZM141.028 25.1823C141.592 25.1823 142.059 25.0334 142.429 24.7356C142.799 24.4378 143.073 24.0414 143.25 23.5463C143.431 23.0513 143.522 22.506 143.522 21.9103C143.522 21.3187 143.431 20.7754 143.25 20.2804C143.073 19.7813 142.799 19.3808 142.429 19.079C142.059 18.7772 141.592 18.6262 141.028 18.6262C140.461 18.6262 139.99 18.7772 139.616 19.079C139.245 19.3808 138.97 19.7813 138.789 20.2804C138.612 20.7754 138.523 21.3187 138.523 21.9103C138.523 22.506 138.612 23.0513 138.789 23.5463C138.97 24.0414 139.245 24.4378 139.616 24.7356C139.99 25.0334 140.461 25.1823 141.028 25.1823ZM149.165 21.0048V26.5105H147.36V17.2377H149.092V18.747H149.207C149.42 18.256 149.754 17.8616 150.209 17.5637C150.668 17.2659 151.245 17.117 151.942 17.117C152.574 17.117 153.127 17.2498 153.602 17.5154C154.077 17.777 154.445 18.1674 154.707 18.6866C154.968 19.2058 155.099 19.8477 155.099 20.6124V26.5105H153.294V20.8297C153.294 20.1576 153.119 19.6324 152.769 19.2541C152.419 18.8717 151.938 18.6806 151.326 18.6806C150.907 18.6806 150.535 18.7711 150.209 18.9522C149.887 19.1333 149.632 19.399 149.442 19.7491C149.257 20.0952 149.165 20.5138 149.165 21.0048Z" fill="#E8E8E8"/>
<path d="M161.94 26.5105V14.1468H167.048C167.973 14.1468 168.772 14.3279 169.444 14.6902C170.12 15.0483 170.642 15.5494 171.008 16.1933C171.374 16.8333 171.557 17.5778 171.557 18.427C171.557 19.2802 171.37 20.0268 170.996 20.6667C170.625 21.3026 170.096 21.7956 169.408 22.1458C168.72 22.4959 167.903 22.671 166.957 22.671H163.806V20.3166H166.402C166.852 20.3166 167.229 20.2381 167.531 20.0811C167.836 19.9242 168.068 19.7048 168.225 19.4231C168.382 19.1374 168.46 18.8053 168.46 18.427C168.46 18.0447 168.382 17.7147 168.225 17.437C168.068 17.1552 167.836 16.9379 167.531 16.785C167.225 16.632 166.848 16.5556 166.402 16.5556H164.929V26.5105H161.94ZM175.312 26.6674C174.721 26.6674 174.195 26.5688 173.737 26.3716C173.282 26.1704 172.922 25.8685 172.656 25.4661C172.394 25.0596 172.264 24.5505 172.264 23.9387C172.264 23.4236 172.354 22.9889 172.535 22.6348C172.716 22.2806 172.966 21.9928 173.284 21.7715C173.602 21.5501 173.968 21.3831 174.382 21.2704C174.797 21.1537 175.24 21.0752 175.711 21.035C176.238 20.9867 176.662 20.9364 176.984 20.884C177.306 20.8277 177.54 20.7492 177.685 20.6486C177.834 20.544 177.908 20.3971 177.908 20.2079V20.1777C177.908 19.8678 177.801 19.6284 177.588 19.4593C177.375 19.2903 177.087 19.2058 176.725 19.2058C176.334 19.2058 176.02 19.2903 175.783 19.4593C175.546 19.6284 175.395 19.8618 175.33 20.1596L172.608 20.063C172.688 19.4996 172.895 18.9965 173.229 18.5538C173.567 18.1071 174.03 17.7569 174.618 17.5034C175.21 17.2458 175.92 17.117 176.749 17.117C177.341 17.117 177.886 17.1874 178.385 17.3283C178.884 17.4651 179.319 17.6664 179.689 17.932C180.059 18.1936 180.345 18.5156 180.546 18.8979C180.751 19.2802 180.854 19.7169 180.854 20.2079V26.5105H178.077V25.2186H178.005C177.84 25.5325 177.628 25.7981 177.371 26.0154C177.117 26.2328 176.817 26.3958 176.471 26.5044C176.129 26.6131 175.743 26.6674 175.312 26.6674ZM176.224 24.7356C176.542 24.7356 176.827 24.6712 177.081 24.5424C177.339 24.4136 177.544 24.2366 177.697 24.0112C177.85 23.7818 177.926 23.5161 177.926 23.2143V22.3329C177.842 22.3772 177.739 22.4174 177.618 22.4536C177.502 22.4899 177.373 22.5241 177.232 22.5563C177.091 22.5885 176.946 22.6166 176.797 22.6408C176.648 22.6649 176.505 22.6871 176.369 22.7072C176.091 22.7515 175.853 22.8199 175.656 22.9125C175.463 23.005 175.314 23.1258 175.21 23.2747C175.109 23.4196 175.059 23.5926 175.059 23.7938C175.059 24.0997 175.167 24.3331 175.385 24.4941C175.606 24.6551 175.886 24.7356 176.224 24.7356ZM184.132 29.9877C183.778 29.9877 183.444 29.9596 183.13 29.9032C182.816 29.8509 182.546 29.7805 182.321 29.6919L182.973 27.5488C183.263 27.6454 183.524 27.7017 183.758 27.7178C183.995 27.7339 184.199 27.6957 184.368 27.6031C184.541 27.5146 184.673 27.3556 184.766 27.1262L184.881 26.8485L181.585 17.2377H184.675L186.384 23.8542H186.48L188.213 17.2377H191.322L187.827 27.3979C187.658 27.905 187.418 28.3517 187.108 28.7381C186.802 29.1285 186.406 29.4343 185.919 29.6557C185.436 29.8771 184.84 29.9877 184.132 29.9877Z" fill="#0045D9"/>
<path d="M192.454 26.5105V14.1468H197.561C198.487 14.1468 199.286 14.3279 199.958 14.6902C200.634 15.0483 201.155 15.5494 201.521 16.1933C201.888 16.8333 202.071 17.5778 202.071 18.427C202.071 19.2802 201.884 20.0268 201.509 20.6667C201.139 21.3026 200.61 21.7956 199.922 22.1458C199.233 22.4959 198.417 22.671 197.471 22.671H194.319V20.3166H196.915C197.366 20.3166 197.742 20.2381 198.044 20.0811C198.35 19.9242 198.582 19.7048 198.738 19.4231C198.895 19.1374 198.974 18.8053 198.974 18.427C198.974 18.0447 198.895 17.7147 198.738 17.437C198.582 17.1552 198.35 16.9379 198.044 16.785C197.738 16.632 197.362 16.5556 196.915 16.5556H195.442V26.5105H192.454ZM205.826 26.6674C205.234 26.6674 204.709 26.5688 204.25 26.3716C203.795 26.1704 203.435 25.8685 203.17 25.4661C202.908 25.0596 202.777 24.5505 202.777 23.9387C202.777 23.4236 202.868 22.9889 203.049 22.6348C203.23 22.2806 203.479 21.9928 203.797 21.7715C204.115 21.5501 204.482 21.3831 204.896 21.2704C205.311 21.1537 205.753 21.0752 206.224 21.035C206.751 20.9867 207.176 20.9364 207.498 20.884C207.82 20.8277 208.053 20.7492 208.198 20.6486C208.347 20.544 208.422 20.3971 208.422 20.2079V20.1777C208.422 19.8678 208.315 19.6284 208.102 19.4593C207.888 19.2903 207.601 19.2058 207.238 19.2058C206.848 19.2058 206.534 19.2903 206.297 19.4593C206.059 19.6284 205.908 19.8618 205.844 20.1596L203.121 20.063C203.202 19.4996 203.409 18.9965 203.743 18.5538C204.081 18.1071 204.544 17.7569 205.132 17.5034C205.723 17.2458 206.434 17.117 207.263 17.117C207.854 17.117 208.4 17.1874 208.899 17.3283C209.398 17.4651 209.832 17.6664 210.203 17.932C210.573 18.1936 210.859 18.5156 211.06 18.8979C211.265 19.2802 211.368 19.7169 211.368 20.2079V26.5105H208.591V25.2186H208.518C208.353 25.5325 208.142 25.7981 207.884 26.0154C207.631 26.2328 207.331 26.3958 206.985 26.5044C206.643 26.6131 206.256 26.6674 205.826 26.6674ZM206.737 24.7356C207.055 24.7356 207.341 24.6712 207.595 24.5424C207.852 24.4136 208.057 24.2366 208.21 24.0112C208.363 23.7818 208.44 23.5161 208.44 23.2143V22.3329C208.355 22.3772 208.253 22.4174 208.132 22.4536C208.015 22.4899 207.886 22.5241 207.746 22.5563C207.605 22.5885 207.46 22.6166 207.311 22.6408C207.162 22.6649 207.019 22.6871 206.882 22.7072C206.605 22.7515 206.367 22.8199 206.17 22.9125C205.977 23.005 205.828 23.1258 205.723 23.2747C205.623 23.4196 205.572 23.5926 205.572 23.7938C205.572 24.0997 205.681 24.3331 205.898 24.4941C206.12 24.6551 206.399 24.7356 206.737 24.7356ZM216.125 14.1468V26.5105H213.173V14.1468H216.125Z" fill="#00A4EE"/>
</g>
<rect x="1.0746" y="1.08119" width="223.858" height="37.8585" rx="6.92857" stroke="white" stroke-opacity="0.15" stroke-width="2.14286"/>
<defs>
<filter id="filter0_d_28_2505" x="2.40289" y="0.409485" width="39.202" height="39.202" filterUnits="userSpaceOnUse" color-interpolation-filters="sRGB">
<feFlood flood-opacity="0" result="BackgroundImageFix"/>
<feColorMatrix in="SourceAlpha" type="matrix" values="0 0 0 0 0 0 0 0 0 0 0 0 0 0 0 0 0 0 127 0" result="hardAlpha"/>
<feOffset/>
<feGaussianBlur stdDeviation="2.80014"/>
<feComposite in2="hardAlpha" operator="out"/>
<feColorMatrix type="matrix" values="0 0 0 0 0 0 0 0 0 0 0 0 0 0 0 0 0 0 0.25 0"/>
<feBlend mode="normal" in2="BackgroundImageFix" result="effect1_dropShadow_28_2505"/>
<feBlend mode="normal" in="SourceGraphic" in2="effect1_dropShadow_28_2505" result="shape"/>
</filter>
<filter id="filter1_d_28_2505" x="36.2904" y="3.79618" width="187.429" height="32.4286" filterUnits="userSpaceOnUse" color-interpolation-filters="sRGB">
<feFlood flood-opacity="0" result="BackgroundImageFix"/>
<feColorMatrix in="SourceAlpha" type="matrix" values="0 0 0 0 0 0 0 0 0 0 0 0 0 0 0 0 0 0 127 0" result="hardAlpha"/>
<feOffset/>
<feGaussianBlur stdDeviation="2.85714"/>
<feComposite in2="hardAlpha" operator="out"/>
<feColorMatrix type="matrix" values="0 0 0 0 0 0 0 0 0 0 0 0 0 0 0 0 0 0 0.25 0"/>
<feBlend mode="normal" in2="BackgroundImageFix" result="effect1_dropShadow_28_2505"/>
<feBlend mode="normal" in="SourceGraphic" in2="effect1_dropShadow_28_2505" result="shape"/>
</filter>
<linearGradient id="paint0_linear_28_2505" x1="113.004" y1="0.00976562" x2="113.004" y2="40.0112" gradientUnits="userSpaceOnUse">
<stop stop-color="#0E1B35"/>
<stop offset="1" stop-color="#0A1D25"/>
</linearGradient>
</defs>
</svg>
