<svg width="233" height="41" viewBox="0 0 233 41" fill="none" xmlns="http://www.w3.org/2000/svg">
<rect x="0.00317383" y="0.00836182" width="232.001" height="40.0014" rx="8" fill="url(#paint0_linear_28_2496)"/>
<g filter="url(#filter0_d_28_2496)">
<path d="M30.6767 14.9727L16.606 30.2315H11.4451C11.0867 30.2315 10.8 29.8754 10.8717 29.5192L14.3123 7.86329C14.3839 7.36464 14.814 7.00845 15.3158 7.00845H24.0607C30.0817 7.22216 31.7303 10.2853 30.6552 14.9869L30.6767 14.9727Z" fill="#0045D9"/>
<path d="M30.9059 13.5622C33.0562 14.702 33.558 16.8391 32.8412 19.6886C31.9094 23.8915 29.1139 25.6724 25.0282 25.7437L23.8813 25.8149C23.4512 25.8149 23.1645 26.0998 23.0928 26.5273L22.161 32.1549C22.0893 32.6536 21.6592 33.0098 21.1575 33.0098H16.8567C16.4983 33.0098 16.2116 32.6536 16.2833 32.2974L17.8602 22.1106C17.9319 21.7544 30.9059 13.5622 30.9059 13.5622Z" fill="#00A4EE"/>
<path d="M17.7744 22.6092L19.208 13.5622C19.255 13.3479 19.3718 13.1551 19.5402 13.0134C19.7087 12.8717 19.9194 12.7892 20.1398 12.7786H27.021C28.6697 12.7786 29.8882 13.0635 30.8917 13.5622C30.5333 16.6966 29.0281 21.7544 21.7168 21.8969H18.5629C18.2045 21.8969 17.8461 22.1818 17.7744 22.6092Z" fill="#002788"/>
</g>
<g filter="url(#filter1_d_28_2496)">
<path d="M50.1062 17.3933C50.0418 16.8218 49.7762 16.3791 49.3093 16.0652C48.8425 15.7472 48.2549 15.5883 47.5465 15.5883C47.0394 15.5883 46.6008 15.6687 46.2305 15.8297C45.8602 15.9867 45.5725 16.204 45.3672 16.4817C45.166 16.7554 45.0654 17.0673 45.0654 17.4174C45.0654 17.7112 45.1338 17.9648 45.2706 18.1781C45.4115 18.3914 45.5946 18.5705 45.82 18.7154C46.0494 18.8562 46.2949 18.975 46.5565 19.0716C46.8181 19.1641 47.0696 19.2406 47.3111 19.301L48.5185 19.6149C48.9129 19.7115 49.3174 19.8423 49.7319 20.0073C50.1464 20.1723 50.5308 20.3896 50.885 20.6593C51.2391 20.9289 51.5249 21.263 51.7422 21.6614C51.9636 22.0598 52.0742 22.5368 52.0742 23.0922C52.0742 23.7924 51.8931 24.4142 51.5309 24.9576C51.1727 25.5009 50.6515 25.9295 49.9673 26.2434C49.2872 26.5574 48.4642 26.7143 47.4982 26.7143C46.5726 26.7143 45.7717 26.5674 45.0955 26.2736C44.4194 25.9798 43.8902 25.5633 43.5078 25.024C43.1255 24.4807 42.9142 23.8367 42.874 23.0922H44.7454C44.7816 23.5389 44.9265 23.9112 45.1801 24.209C45.4376 24.5028 45.7656 24.7221 46.1641 24.867C46.5665 25.0079 47.0072 25.0783 47.4862 25.0783C48.0134 25.0783 48.4823 24.9958 48.8928 24.8308C49.3073 24.6618 49.6333 24.4283 49.8708 24.1305C50.1082 23.8287 50.2269 23.4765 50.2269 23.074C50.2269 22.7078 50.1223 22.408 49.913 22.1745C49.7078 21.9411 49.4281 21.7479 49.0739 21.595C48.7237 21.4421 48.3273 21.3072 47.8846 21.1905L46.4237 20.7921C45.4336 20.5224 44.6488 20.126 44.0693 19.6028C43.4937 19.0796 43.206 18.3874 43.206 17.5261C43.206 16.8137 43.3992 16.1919 43.7855 15.6607C44.1719 15.1294 44.6951 14.7169 45.3551 14.4231C46.0152 14.1253 46.7597 13.9764 47.5888 13.9764C48.4259 13.9764 49.1644 14.1233 49.8044 14.4171C50.4483 14.7109 50.9554 15.1154 51.3257 15.6305C51.6959 16.1416 51.8891 16.7292 51.9052 17.3933H50.1062ZM60.0324 22.6635V17.2363H61.8435V26.5091H60.0686V24.9032H59.9721C59.7587 25.3983 59.4167 25.8108 58.9458 26.1408C58.4789 26.4668 57.8974 26.6298 57.2011 26.6298C56.6055 26.6298 56.0782 26.499 55.6194 26.2374C55.1646 25.9718 54.8065 25.5794 54.5449 25.0602C54.2873 24.541 54.1585 23.8991 54.1585 23.1344V17.2363H55.9635V22.9171C55.9635 23.549 56.1386 24.052 56.4887 24.4263C56.8389 24.8006 57.2937 24.9878 57.8531 24.9878C58.1912 24.9878 58.5272 24.9032 58.8613 24.7342C59.1993 24.5652 59.479 24.3096 59.7004 23.9675C59.9258 23.6254 60.0364 23.1908 60.0324 22.6635ZM64.2688 29.9863V17.2363H66.0316V18.7395H66.1825C66.2872 18.5463 66.4381 18.323 66.6353 18.0694C66.8325 17.8159 67.1062 17.5945 67.4563 17.4054C67.8065 17.2122 68.2693 17.1156 68.8448 17.1156C69.5934 17.1156 70.2615 17.3048 70.8491 17.6831C71.4367 18.0614 71.8975 18.6067 72.2315 19.3191C72.5696 20.0314 72.7387 20.8887 72.7387 21.8908C72.7387 22.8929 72.5716 23.7522 72.2376 24.4686C71.9035 25.1809 71.4447 25.7303 70.8612 26.1167C70.2776 26.499 69.6115 26.6902 68.8629 26.6902C68.2995 26.6902 67.8387 26.5956 67.4805 26.4064C67.1263 26.2173 66.8486 25.9959 66.6474 25.7424C66.4462 25.4888 66.2912 25.2634 66.1825 25.0662H66.0739V29.9863H64.2688ZM66.0377 21.8727C66.0377 22.5247 66.1322 23.0962 66.3214 23.5872C66.5106 24.0782 66.7842 24.4625 67.1424 24.7402C67.5006 25.0139 67.9393 25.1507 68.4585 25.1507C68.9978 25.1507 69.4485 25.0079 69.8107 24.7221C70.173 24.4324 70.4466 24.04 70.6318 23.5449C70.8209 23.0499 70.9155 22.4925 70.9155 21.8727C70.9155 21.261 70.8229 20.7116 70.6378 20.2246C70.4567 19.7376 70.183 19.3533 69.8168 19.0716C69.4546 18.7898 69.0018 18.649 68.4585 18.649C67.9353 18.649 67.4926 18.7838 67.1303 19.0535C66.7722 19.3231 66.5005 19.6994 66.3154 20.1824C66.1302 20.6653 66.0377 21.2288 66.0377 21.8727ZM74.761 29.9863V17.2363H76.5238V18.7395H76.6747C76.7794 18.5463 76.9303 18.323 77.1275 18.0694C77.3247 17.8159 77.5984 17.5945 77.9485 17.4054C78.2987 17.2122 78.7615 17.1156 79.337 17.1156C80.0856 17.1156 80.7537 17.3048 81.3413 17.6831C81.9289 18.0614 82.3897 18.6067 82.7237 19.3191C83.0618 20.0314 83.2308 20.8887 83.2308 21.8908C83.2308 22.8929 83.0638 23.7522 82.7298 24.4686C82.3957 25.1809 81.9369 25.7303 81.3533 26.1167C80.7698 26.499 80.1037 26.6902 79.3551 26.6902C78.7917 26.6902 78.3309 26.5956 77.9727 26.4064C77.6185 26.2173 77.3408 25.9959 77.1396 25.7424C76.9383 25.4888 76.7834 25.2634 76.6747 25.0662H76.5661V29.9863H74.761ZM76.5298 21.8727C76.5298 22.5247 76.6244 23.0962 76.8136 23.5872C77.0027 24.0782 77.2764 24.4625 77.6346 24.7402C77.9928 25.0139 78.4315 25.1507 78.9507 25.1507C79.4899 25.1507 79.9407 25.0079 80.3029 24.7221C80.6651 24.4324 80.9388 24.04 81.1239 23.5449C81.3131 23.0499 81.4077 22.4925 81.4077 21.8727C81.4077 21.261 81.3151 20.7116 81.13 20.2246C80.9489 19.7376 80.6752 19.3533 80.309 19.0716C79.9467 18.7898 79.494 18.649 78.9507 18.649C78.4274 18.649 77.9847 18.7838 77.6225 19.0535C77.2643 19.3231 76.9927 19.6994 76.8075 20.1824C76.6224 20.6653 76.5298 21.2288 76.5298 21.8727ZM89.1591 26.6962C88.2898 26.6962 87.5311 26.497 86.8832 26.0985C86.2352 25.7001 85.7321 25.1427 85.3739 24.4263C85.0158 23.7099 84.8367 22.8728 84.8367 21.915C84.8367 20.9531 85.0158 20.1119 85.3739 19.3915C85.7321 18.6711 86.2352 18.1117 86.8832 17.7133C87.5311 17.3148 88.2898 17.1156 89.1591 17.1156C90.0284 17.1156 90.7871 17.3148 91.435 17.7133C92.083 18.1117 92.5861 18.6711 92.9443 19.3915C93.3024 20.1119 93.4815 20.9531 93.4815 21.915C93.4815 22.8728 93.3024 23.7099 92.9443 24.4263C92.5861 25.1427 92.083 25.7001 91.435 26.0985C90.7871 26.497 90.0284 26.6962 89.1591 26.6962ZM89.1651 25.1809C89.7286 25.1809 90.1954 25.032 90.5657 24.7342C90.936 24.4364 91.2096 24.04 91.3867 23.5449C91.5678 23.0499 91.6584 22.5046 91.6584 21.9089C91.6584 21.3173 91.5678 20.774 91.3867 20.2789C91.2096 19.7799 90.936 19.3794 90.5657 19.0776C90.1954 18.7758 89.7286 18.6248 89.1651 18.6248C88.5977 18.6248 88.1268 18.7758 87.7525 19.0776C87.3822 19.3794 87.1065 19.7799 86.9254 20.2789C86.7484 20.774 86.6598 21.3173 86.6598 21.9089C86.6598 22.5046 86.7484 23.0499 86.9254 23.5449C87.1065 24.04 87.3822 24.4364 87.7525 24.7342C88.1268 25.032 88.5977 25.1809 89.1651 25.1809ZM95.4964 26.5091V17.2363H97.241V18.7093H97.3376C97.5067 18.2103 97.8045 17.8179 98.2311 17.5321C98.6617 17.2424 99.1487 17.0975 99.692 17.0975C99.8047 17.0975 99.9375 17.1015 100.09 17.1096C100.247 17.1176 100.37 17.1277 100.459 17.1397V18.8663C100.386 18.8462 100.257 18.824 100.072 18.7999C99.8872 18.7717 99.7021 18.7576 99.517 18.7576C99.0904 18.7576 98.71 18.8482 98.376 19.0293C98.046 19.2064 97.7844 19.4539 97.5912 19.7718C97.398 20.0858 97.3014 20.444 97.3014 20.8464V26.5091H95.4964ZM106.897 17.2363V18.6852H101.832V17.2363H106.897ZM103.19 15.0147H104.995V23.7864C104.995 24.1365 105.048 24.4002 105.152 24.5772C105.257 24.7503 105.392 24.869 105.557 24.9334C105.726 24.9938 105.909 25.024 106.106 25.024C106.251 25.024 106.378 25.0139 106.487 24.9938C106.595 24.9737 106.68 24.9576 106.74 24.9455L107.066 26.4366C106.962 26.4769 106.813 26.5171 106.619 26.5574C106.426 26.6016 106.185 26.6258 105.895 26.6298C105.42 26.6378 104.977 26.5533 104.567 26.3762C104.156 26.1992 103.824 25.9255 103.571 25.5552C103.317 25.185 103.19 24.7201 103.19 24.1607V15.0147ZM113.393 26.5091V17.2363H115.125V18.7456H115.24C115.433 18.2344 115.749 17.836 116.188 17.5503C116.627 17.2605 117.152 17.1156 117.764 17.1156C118.383 17.1156 118.903 17.2605 119.321 17.5503C119.744 17.84 120.056 18.2385 120.257 18.7456H120.353C120.575 18.2505 120.927 17.8561 121.41 17.5623C121.893 17.2645 122.468 17.1156 123.136 17.1156C123.978 17.1156 124.664 17.3792 125.195 17.9064C125.73 18.4337 125.998 19.2285 125.998 20.291V26.5091H124.193V20.4601C124.193 19.8322 124.022 19.3774 123.68 19.0957C123.338 18.814 122.929 18.6731 122.454 18.6731C121.867 18.6731 121.41 18.8542 121.084 19.2164C120.758 19.5746 120.595 20.0355 120.595 20.5989V26.5091H118.796V20.3454C118.796 19.8423 118.639 19.4378 118.325 19.1319C118.011 18.8261 117.603 18.6731 117.1 18.6731C116.757 18.6731 116.441 18.7637 116.152 18.9448C115.866 19.1219 115.635 19.3694 115.457 19.6873C115.284 20.0053 115.198 20.3735 115.198 20.7921V26.5091H113.393ZM132.414 26.6962C131.5 26.6962 130.713 26.501 130.053 26.1106C129.397 25.7162 128.89 25.1628 128.532 24.4505C128.178 23.7341 128.001 22.8949 128.001 21.9331C128.001 20.9833 128.178 20.1461 128.532 19.4217C128.89 18.6973 129.389 18.1318 130.029 17.7253C130.673 17.3188 131.426 17.1156 132.287 17.1156C132.81 17.1156 133.317 17.2021 133.808 17.3752C134.299 17.5482 134.74 17.8199 135.13 18.1902C135.521 18.5604 135.829 19.0414 136.054 19.633C136.279 20.2206 136.392 20.935 136.392 21.7761V22.416H129.021V21.0637H134.623C134.623 20.5888 134.527 20.1683 134.333 19.802C134.14 19.4318 133.869 19.14 133.518 18.9267C133.172 18.7134 132.766 18.6067 132.299 18.6067C131.792 18.6067 131.349 18.7315 130.971 18.981C130.597 19.2265 130.307 19.5485 130.102 19.9469C129.9 20.3413 129.8 20.77 129.8 21.2328V22.2892C129.8 22.909 129.908 23.4363 130.126 23.8709C130.347 24.3056 130.655 24.6376 131.049 24.867C131.444 25.0924 131.905 25.2051 132.432 25.2051C132.774 25.2051 133.086 25.1568 133.368 25.0602C133.649 24.9596 133.893 24.8107 134.098 24.6135C134.303 24.4163 134.46 24.1728 134.569 23.883L136.277 24.1909C136.141 24.694 135.895 25.1347 135.541 25.513C135.191 25.8873 134.75 26.179 134.219 26.3883C133.692 26.5936 133.09 26.6962 132.414 26.6962ZM146.8 26.6962C145.93 26.6962 145.172 26.497 144.524 26.0985C143.876 25.7001 143.373 25.1427 143.015 24.4263C142.656 23.7099 142.477 22.8728 142.477 21.915C142.477 20.9531 142.656 20.1119 143.015 19.3915C143.373 18.6711 143.876 18.1117 144.524 17.7133C145.172 17.3148 145.93 17.1156 146.8 17.1156C147.669 17.1156 148.428 17.3148 149.076 17.7133C149.724 18.1117 150.227 18.6711 150.585 19.3915C150.943 20.1119 151.122 20.9531 151.122 21.915C151.122 22.8728 150.943 23.7099 150.585 24.4263C150.227 25.1427 149.724 25.7001 149.076 26.0985C148.428 26.497 147.669 26.6962 146.8 26.6962ZM146.806 25.1809C147.369 25.1809 147.836 25.032 148.206 24.7342C148.577 24.4364 148.85 24.04 149.027 23.5449C149.208 23.0499 149.299 22.5046 149.299 21.9089C149.299 21.3173 149.208 20.774 149.027 20.2789C148.85 19.7799 148.577 19.3794 148.206 19.0776C147.836 18.7758 147.369 18.6248 146.806 18.6248C146.238 18.6248 145.767 18.7758 145.393 19.0776C145.023 19.3794 144.747 19.7799 144.566 20.2789C144.389 20.774 144.3 21.3173 144.3 21.9089C144.3 22.5046 144.389 23.0499 144.566 23.5449C144.747 24.04 145.023 24.4364 145.393 24.7342C145.767 25.032 146.238 25.1809 146.806 25.1809ZM154.942 21.0034V26.5091H153.137V17.2363H154.87V18.7456H154.984C155.198 18.2546 155.532 17.8602 155.986 17.5623C156.445 17.2645 157.023 17.1156 157.719 17.1156C158.351 17.1156 158.904 17.2484 159.379 17.514C159.854 17.7756 160.222 18.166 160.484 18.6852C160.746 19.2044 160.876 19.8463 160.876 20.611V26.5091H159.071V20.8283C159.071 20.1562 158.896 19.631 158.546 19.2527C158.196 18.8703 157.715 18.6792 157.103 18.6792C156.685 18.6792 156.312 18.7697 155.986 18.9508C155.664 19.1319 155.409 19.3976 155.22 19.7477C155.035 20.0938 154.942 20.5124 154.942 21.0034Z" fill="#E8E8E8"/>
<path d="M167.94 26.5091V14.1454H173.048C173.973 14.1454 174.772 14.3265 175.444 14.6887C176.12 15.0469 176.642 15.548 177.008 16.1919C177.374 16.8319 177.557 17.5764 177.557 18.4256C177.557 19.2788 177.37 20.0254 176.996 20.6653C176.625 21.3012 176.096 21.7942 175.408 22.1444C174.72 22.4945 173.903 22.6696 172.957 22.6696H169.806V20.3152H172.402C172.852 20.3152 173.229 20.2367 173.531 20.0797C173.836 19.9228 174.068 19.7034 174.225 19.4217C174.382 19.136 174.46 18.8039 174.46 18.4256C174.46 18.0433 174.382 17.7133 174.225 17.4356C174.068 17.1538 173.836 16.9365 173.531 16.7836C173.225 16.6306 172.848 16.5542 172.402 16.5542H170.929V26.5091H167.94ZM181.312 26.666C180.721 26.666 180.195 26.5674 179.737 26.3702C179.282 26.169 178.922 25.8671 178.656 25.4647C178.394 25.0582 178.264 24.5491 178.264 23.9373C178.264 23.4222 178.354 22.9875 178.535 22.6333C178.716 22.2792 178.966 21.9914 179.284 21.7701C179.602 21.5487 179.968 21.3817 180.382 21.269C180.797 21.1523 181.24 21.0738 181.711 21.0336C182.238 20.9853 182.662 20.935 182.984 20.8826C183.306 20.8263 183.54 20.7478 183.685 20.6472C183.834 20.5426 183.908 20.3957 183.908 20.2065V20.1763C183.908 19.8664 183.801 19.627 183.588 19.4579C183.375 19.2889 183.087 19.2044 182.725 19.2044C182.334 19.2044 182.02 19.2889 181.783 19.4579C181.546 19.627 181.395 19.8604 181.33 20.1582L178.608 20.0616C178.688 19.4982 178.895 18.9951 179.229 18.5524C179.567 18.1057 180.03 17.7555 180.618 17.502C181.21 17.2444 181.92 17.1156 182.749 17.1156C183.341 17.1156 183.886 17.186 184.385 17.3269C184.884 17.4637 185.319 17.665 185.689 17.9306C186.059 18.1922 186.345 18.5142 186.546 18.8965C186.751 19.2788 186.854 19.7155 186.854 20.2065V26.5091H184.077V25.2172H184.005C183.84 25.5311 183.628 25.7967 183.371 26.014C183.117 26.2314 182.817 26.3944 182.471 26.503C182.129 26.6117 181.743 26.666 181.312 26.666ZM182.224 24.7342C182.542 24.7342 182.827 24.6698 183.081 24.541C183.339 24.4122 183.544 24.2351 183.697 24.0098C183.85 23.7804 183.926 23.5147 183.926 23.2129V22.3315C183.842 22.3758 183.739 22.416 183.618 22.4522C183.502 22.4885 183.373 22.5227 183.232 22.5549C183.091 22.5871 182.946 22.6152 182.797 22.6394C182.648 22.6635 182.505 22.6857 182.369 22.7058C182.091 22.7501 181.853 22.8185 181.656 22.911C181.463 23.0036 181.314 23.1244 181.21 23.2733C181.109 23.4182 181.059 23.5912 181.059 23.7924C181.059 24.0983 181.167 24.3317 181.385 24.4927C181.606 24.6537 181.886 24.7342 182.224 24.7342ZM190.132 29.9863C189.778 29.9863 189.444 29.9582 189.13 29.9018C188.816 29.8495 188.546 29.7791 188.321 29.6905L188.973 27.5474C189.263 27.644 189.524 27.7003 189.758 27.7164C189.995 27.7325 190.199 27.6943 190.368 27.6017C190.541 27.5132 190.673 27.3542 190.766 27.1248L190.881 26.8471L187.585 17.2363H190.675L192.384 23.8528H192.48L194.213 17.2363H197.322L193.827 27.3965C193.658 27.9036 193.418 28.3503 193.108 28.7367C192.802 29.1271 192.406 29.4329 191.919 29.6543C191.436 29.8757 190.84 29.9863 190.132 29.9863Z" fill="#0045D9"/>
<path d="M198.454 26.5091V14.1454H203.561C204.487 14.1454 205.286 14.3265 205.958 14.6887C206.634 15.0469 207.155 15.548 207.521 16.1919C207.888 16.8319 208.071 17.5764 208.071 18.4256C208.071 19.2788 207.884 20.0254 207.509 20.6653C207.139 21.3012 206.61 21.7942 205.922 22.1444C205.233 22.4945 204.417 22.6696 203.471 22.6696H200.319V20.3152H202.915C203.366 20.3152 203.742 20.2367 204.044 20.0797C204.35 19.9228 204.582 19.7034 204.738 19.4217C204.895 19.136 204.974 18.8039 204.974 18.4256C204.974 18.0433 204.895 17.7133 204.738 17.4356C204.582 17.1538 204.35 16.9365 204.044 16.7836C203.738 16.6306 203.362 16.5542 202.915 16.5542H201.442V26.5091H198.454ZM211.826 26.666C211.234 26.666 210.709 26.5674 210.25 26.3702C209.795 26.169 209.435 25.8671 209.17 25.4647C208.908 25.0582 208.777 24.5491 208.777 23.9373C208.777 23.4222 208.868 22.9875 209.049 22.6333C209.23 22.2792 209.479 21.9914 209.797 21.7701C210.115 21.5487 210.482 21.3817 210.896 21.269C211.311 21.1523 211.753 21.0738 212.224 21.0336C212.751 20.9853 213.176 20.935 213.498 20.8826C213.82 20.8263 214.053 20.7478 214.198 20.6472C214.347 20.5426 214.422 20.3957 214.422 20.2065V20.1763C214.422 19.8664 214.315 19.627 214.102 19.4579C213.888 19.2889 213.601 19.2044 213.238 19.2044C212.848 19.2044 212.534 19.2889 212.297 19.4579C212.059 19.627 211.908 19.8604 211.844 20.1582L209.121 20.0616C209.202 19.4982 209.409 18.9951 209.743 18.5524C210.081 18.1057 210.544 17.7555 211.132 17.502C211.723 17.2444 212.434 17.1156 213.263 17.1156C213.854 17.1156 214.4 17.186 214.899 17.3269C215.398 17.4637 215.832 17.665 216.203 17.9306C216.573 18.1922 216.859 18.5142 217.06 18.8965C217.265 19.2788 217.368 19.7155 217.368 20.2065V26.5091H214.591V25.2172H214.518C214.353 25.5311 214.142 25.7967 213.884 26.014C213.631 26.2314 213.331 26.3944 212.985 26.503C212.643 26.6117 212.256 26.666 211.826 26.666ZM212.737 24.7342C213.055 24.7342 213.341 24.6698 213.595 24.541C213.852 24.4122 214.057 24.2351 214.21 24.0098C214.363 23.7804 214.44 23.5147 214.44 23.2129V22.3315C214.355 22.3758 214.253 22.416 214.132 22.4522C214.015 22.4885 213.886 22.5227 213.746 22.5549C213.605 22.5871 213.46 22.6152 213.311 22.6394C213.162 22.6635 213.019 22.6857 212.882 22.7058C212.605 22.7501 212.367 22.8185 212.17 22.911C211.977 23.0036 211.828 23.1244 211.723 23.2733C211.623 23.4182 211.572 23.5912 211.572 23.7924C211.572 24.0983 211.681 24.3317 211.898 24.4927C212.12 24.6537 212.399 24.7342 212.737 24.7342ZM222.125 14.1454V26.5091H219.173V14.1454H222.125Z" fill="#00A4EE"/>
</g>
<rect x="1.0746" y="1.07979" width="229.858" height="37.8585" rx="6.92857" stroke="white" stroke-opacity="0.15" stroke-width="2.14286"/>
<defs>
<filter id="filter0_d_28_2496" x="2.40289" y="0.408082" width="39.202" height="39.202" filterUnits="userSpaceOnUse" color-interpolation-filters="sRGB">
<feFlood flood-opacity="0" result="BackgroundImageFix"/>
<feColorMatrix in="SourceAlpha" type="matrix" values="0 0 0 0 0 0 0 0 0 0 0 0 0 0 0 0 0 0 127 0" result="hardAlpha"/>
<feOffset/>
<feGaussianBlur stdDeviation="2.80014"/>
<feComposite in2="hardAlpha" operator="out"/>
<feColorMatrix type="matrix" values="0 0 0 0 0 0 0 0 0 0 0 0 0 0 0 0 0 0 0.25 0"/>
<feBlend mode="normal" in2="BackgroundImageFix" result="effect1_dropShadow_28_2496"/>
<feBlend mode="normal" in="SourceGraphic" in2="effect1_dropShadow_28_2496" result="shape"/>
</filter>
<filter id="filter1_d_28_2496" x="36.2904" y="3.79478" width="193.429" height="32.4286" filterUnits="userSpaceOnUse" color-interpolation-filters="sRGB">
<feFlood flood-opacity="0" result="BackgroundImageFix"/>
<feColorMatrix in="SourceAlpha" type="matrix" values="0 0 0 0 0 0 0 0 0 0 0 0 0 0 0 0 0 0 127 0" result="hardAlpha"/>
<feOffset/>
<feGaussianBlur stdDeviation="2.85714"/>
<feComposite in2="hardAlpha" operator="out"/>
<feColorMatrix type="matrix" values="0 0 0 0 0 0 0 0 0 0 0 0 0 0 0 0 0 0 0.25 0"/>
<feBlend mode="normal" in2="BackgroundImageFix" result="effect1_dropShadow_28_2496"/>
<feBlend mode="normal" in="SourceGraphic" in2="effect1_dropShadow_28_2496" result="shape"/>
</filter>
<linearGradient id="paint0_linear_28_2496" x1="116.004" y1="0.00836181" x2="116.004" y2="40.0098" gradientUnits="userSpaceOnUse">
<stop stop-color="#0E1B35"/>
<stop offset="1" stop-color="#0A1D25"/>
</linearGradient>
</defs>
</svg>
