<svg width="229" height="41" viewBox="0 0 229 41" fill="none" xmlns="http://www.w3.org/2000/svg">
<rect x="0.00317383" y="0.00976562" width="228.001" height="40.0014" rx="8" fill="url(#paint0_linear_28_2505)"/>
<g filter="url(#filter0_d_28_2505)">
<path d="M30.6767 14.9741L16.606 30.2329H11.4451C11.0867 30.2329 10.8 29.8768 10.8717 29.5206L14.3123 7.86469C14.3839 7.36604 14.814 7.00986 15.3158 7.00986H24.0607C30.0817 7.22357 31.7303 10.2867 30.6552 14.9883L30.6767 14.9741Z" fill="#0045D9"/>
<path d="M30.9059 13.5636C33.0562 14.7034 33.558 16.8405 32.8412 19.69C31.9094 23.8929 29.1139 25.6738 25.0282 25.7451L23.8813 25.8163C23.4512 25.8163 23.1645 26.1012 23.0928 26.5287L22.161 32.1563C22.0893 32.655 21.6592 33.0112 21.1575 33.0112H16.8567C16.4983 33.0112 16.2116 32.655 16.2833 32.2988L17.8602 22.112C17.9319 21.7558 30.9059 13.5636 30.9059 13.5636Z" fill="#00A4EE"/>
<path d="M17.7744 22.6106L19.208 13.5636C19.255 13.3493 19.3718 13.1565 19.5402 13.0148C19.7087 12.8732 19.9194 12.7906 20.1398 12.78H27.021C28.6697 12.78 29.8882 13.0649 30.8917 13.5636C30.5333 16.698 29.0281 21.7558 21.7168 21.8983H18.5629C18.2045 21.8983 17.8461 22.1832 17.7744 22.6106Z" fill="#002788"/>
</g>
<g filter="url(#filter1_d_28_2505)">
<path d="M52.1062 17.3947C52.0418 16.8232 51.7762 16.3805 51.3093 16.0666C50.8425 15.7486 50.2549 15.5897 49.5465 15.5897C49.0394 15.5897 48.6008 15.6701 48.2305 15.8311C47.8602 15.9881 47.5725 16.2054 47.3672 16.4831C47.166 16.7568 47.0654 17.0687 47.0654 17.4188C47.0654 17.7126 47.1338 17.9662 47.2706 18.1795C47.4115 18.3928 47.5946 18.5719 47.82 18.7168C48.0494 18.8576 48.2949 18.9764 48.5565 19.073C48.8181 19.1655 49.0696 19.242 49.3111 19.3024L50.5185 19.6163C50.9129 19.7129 51.3174 19.8437 51.7319 20.0087C52.1464 20.1737 52.5308 20.391 52.885 20.6607C53.2391 20.9303 53.5249 21.2644 53.7422 21.6628C53.9636 22.0612 54.0742 22.5382 54.0742 23.0936C54.0742 23.7938 53.8931 24.4156 53.5309 24.959C53.1727 25.5023 52.6515 25.9309 51.9673 26.2448C51.2872 26.5588 50.4642 26.7157 49.4982 26.7157C48.5726 26.7157 47.7717 26.5688 47.0955 26.275C46.4194 25.9812 45.8902 25.5647 45.5078 25.0254C45.1255 24.4821 44.9142 23.8381 44.874 23.0936H46.7454C46.7816 23.5403 46.9265 23.9126 47.1801 24.2104C47.4376 24.5042 47.7656 24.7235 48.1641 24.8684C48.5665 25.0093 49.0072 25.0797 49.4862 25.0797C50.0134 25.0797 50.4823 24.9972 50.8928 24.8322C51.3073 24.6632 51.6333 24.4297 51.8708 24.1319C52.1082 23.8301 52.2269 23.4779 52.2269 23.0754C52.2269 22.7092 52.1223 22.4094 51.913 22.1759C51.7078 21.9425 51.4281 21.7493 51.0739 21.5964C50.7237 21.4435 50.3273 21.3086 49.8846 21.1919L48.4237 20.7935C47.4336 20.5238 46.6488 20.1274 46.0693 19.6042C45.4937 19.081 45.206 18.3888 45.206 17.5275C45.206 16.8152 45.3992 16.1933 45.7855 15.6621C46.1719 15.1308 46.6951 14.7183 47.3551 14.4245C48.0152 14.1267 48.7597 13.9778 49.5888 13.9778C50.4259 13.9778 51.1644 14.1247 51.8044 14.4185C52.4483 14.7123 52.9554 15.1168 53.3257 15.6319C53.6959 16.143 53.8891 16.7306 53.9052 17.3947H52.1062ZM62.0324 22.6649V17.2377H63.8435V26.5105H62.0686V24.9046H61.9721C61.7587 25.3997 61.4167 25.8122 60.9458 26.1422C60.4789 26.4682 59.8974 26.6312 59.2011 26.6312C58.6055 26.6312 58.0782 26.5004 57.6194 26.2388C57.1646 25.9732 56.8065 25.5808 56.5449 25.0616C56.2873 24.5424 56.1585 23.9005 56.1585 23.1358V17.2377H57.9635V22.9185C57.9635 23.5504 58.1386 24.0534 58.4887 24.4277C58.8389 24.802 59.2937 24.9892 59.8531 24.9892C60.1912 24.9892 60.5272 24.9046 60.8613 24.7356C61.1993 24.5666 61.479 24.311 61.7004 23.9689C61.9258 23.6268 62.0364 23.1922 62.0324 22.6649ZM66.2688 29.9877V17.2377H68.0316V18.7409H68.1825C68.2872 18.5478 68.4381 18.3244 68.6353 18.0708C68.8325 17.8173 69.1062 17.5959 69.4563 17.4068C69.8065 17.2136 70.2693 17.117 70.8448 17.117C71.5934 17.117 72.2615 17.3062 72.8491 17.6845C73.4367 18.0628 73.8975 18.6081 74.2315 19.3205C74.5696 20.0328 74.7387 20.8901 74.7387 21.8922C74.7387 22.8943 74.5716 23.7536 74.2376 24.47C73.9035 25.1823 73.4447 25.7317 72.8612 26.1181C72.2776 26.5004 71.6115 26.6916 70.8629 26.6916C70.2995 26.6916 69.8387 26.597 69.4805 26.4078C69.1263 26.2187 68.8486 25.9973 68.6474 25.7438C68.4462 25.4902 68.2912 25.2648 68.1825 25.0676H68.0739V29.9877H66.2688ZM68.0377 21.8741C68.0377 22.5261 68.1322 23.0976 68.3214 23.5886C68.5106 24.0796 68.7842 24.4639 69.1424 24.7416C69.5006 25.0153 69.9393 25.1522 70.4585 25.1522C70.9978 25.1522 71.4485 25.0093 71.8107 24.7235C72.173 24.4338 72.4466 24.0414 72.6318 23.5463C72.8209 23.0513 72.9155 22.4939 72.9155 21.8741C72.9155 21.2624 72.8229 20.713 72.6378 20.226C72.4567 19.739 72.183 19.3547 71.8168 19.073C71.4546 18.7912 71.0018 18.6504 70.4585 18.6504C69.9353 18.6504 69.4926 18.7852 69.1303 19.0549C68.7722 19.3245 68.5005 19.7008 68.3154 20.1838C68.1302 20.6667 68.0377 21.2302 68.0377 21.8741ZM76.761 29.9877V17.2377H78.5238V18.7409H78.6747C78.7794 18.5478 78.9303 18.3244 79.1275 18.0708C79.3247 17.8173 79.5984 17.5959 79.9485 17.4068C80.2987 17.2136 80.7615 17.117 81.337 17.117C82.0856 17.117 82.7537 17.3062 83.3413 17.6845C83.9289 18.0628 84.3897 18.6081 84.7237 19.3205C85.0618 20.0328 85.2308 20.8901 85.2308 21.8922C85.2308 22.8943 85.0638 23.7536 84.7298 24.47C84.3957 25.1823 83.9369 25.7317 83.3533 26.1181C82.7698 26.5004 82.1037 26.6916 81.3551 26.6916C80.7917 26.6916 80.3309 26.597 79.9727 26.4078C79.6185 26.2187 79.3408 25.9973 79.1396 25.7438C78.9383 25.4902 78.7834 25.2648 78.6747 25.0676H78.5661V29.9877H76.761ZM78.5298 21.8741C78.5298 22.5261 78.6244 23.0976 78.8136 23.5886C79.0027 24.0796 79.2764 24.4639 79.6346 24.7416C79.9928 25.0153 80.4315 25.1522 80.9507 25.1522C81.4899 25.1522 81.9407 25.0093 82.3029 24.7235C82.6651 24.4338 82.9388 24.0414 83.1239 23.5463C83.3131 23.0513 83.4077 22.4939 83.4077 21.8741C83.4077 21.2624 83.3151 20.713 83.13 20.226C82.9489 19.739 82.6752 19.3547 82.309 19.073C81.9467 18.7912 81.494 18.6504 80.9507 18.6504C80.4274 18.6504 79.9847 18.7852 79.6225 19.0549C79.2643 19.3245 78.9927 19.7008 78.8075 20.1838C78.6224 20.6667 78.5298 21.2302 78.5298 21.8741ZM91.1591 26.6976C90.2898 26.6976 89.5311 26.4984 88.8832 26.1C88.2352 25.7015 87.7321 25.1441 87.3739 24.4277C87.0158 23.7113 86.8367 22.8742 86.8367 21.9164C86.8367 20.9545 87.0158 20.1133 87.3739 19.3929C87.7321 18.6725 88.2352 18.1131 88.8832 17.7147C89.5311 17.3162 90.2898 17.117 91.1591 17.117C92.0284 17.117 92.7871 17.3162 93.435 17.7147C94.083 18.1131 94.5861 18.6725 94.9443 19.3929C95.3024 20.1133 95.4815 20.9545 95.4815 21.9164C95.4815 22.8742 95.3024 23.7113 94.9443 24.4277C94.5861 25.1441 94.083 25.7015 93.435 26.1C92.7871 26.4984 92.0284 26.6976 91.1591 26.6976ZM91.1651 25.1823C91.7286 25.1823 92.1954 25.0334 92.5657 24.7356C92.936 24.4378 93.2096 24.0414 93.3867 23.5463C93.5678 23.0513 93.6584 22.506 93.6584 21.9103C93.6584 21.3187 93.5678 20.7754 93.3867 20.2804C93.2096 19.7813 92.936 19.3808 92.5657 19.079C92.1954 18.7772 91.7286 18.6262 91.1651 18.6262C90.5977 18.6262 90.1268 18.7772 89.7525 19.079C89.3822 19.3808 89.1065 19.7813 88.9254 20.2804C88.7484 20.7754 88.6598 21.3187 88.6598 21.9103C88.6598 22.506 88.7484 23.0513 88.9254 23.5463C89.1065 24.0414 89.3822 24.4378 89.7525 24.7356C90.1268 25.0334 90.5977 25.1823 91.1651 25.1823ZM97.4964 26.5105V17.2377H99.241V18.7107H99.3376C99.5067 18.2117 99.8045 17.8193 100.231 17.5335C100.662 17.2438 101.149 17.0989 101.692 17.0989C101.805 17.0989 101.938 17.1029 102.09 17.111C102.247 17.119 102.37 17.1291 102.459 17.1411V18.8677C102.386 18.8476 102.257 18.8255 102.072 18.8013C101.887 18.7731 101.702 18.759 101.517 18.759C101.09 18.759 100.71 18.8496 100.376 19.0307C100.046 19.2078 99.7844 19.4553 99.5912 19.7732C99.398 20.0872 99.3014 20.4454 99.3014 20.8478V26.5105H97.4964ZM108.897 17.2377V18.6866H103.832V17.2377H108.897ZM105.19 15.0161H106.995V23.7878C106.995 24.1379 107.048 24.4016 107.152 24.5786C107.257 24.7517 107.392 24.8704 107.557 24.9348C107.726 24.9952 107.909 25.0254 108.106 25.0254C108.251 25.0254 108.378 25.0153 108.487 24.9952C108.595 24.9751 108.68 24.959 108.74 24.9469L109.066 26.438C108.962 26.4783 108.813 26.5185 108.619 26.5588C108.426 26.603 108.185 26.6272 107.895 26.6312C107.42 26.6393 106.977 26.5547 106.567 26.3777C106.156 26.2006 105.824 25.9269 105.571 25.5566C105.317 25.1864 105.19 24.7215 105.19 24.1621V15.0161ZM121.267 22.6649V17.2377H123.078V26.5105H121.303V24.9046H121.206C120.993 25.3997 120.651 25.8122 120.18 26.1422C119.713 26.4682 119.132 26.6312 118.435 26.6312C117.84 26.6312 117.313 26.5004 116.854 26.2388C116.399 25.9732 116.041 25.5808 115.779 25.0616C115.522 24.5424 115.393 23.9005 115.393 23.1358V17.2377H117.198V22.9185C117.198 23.5504 117.373 24.0534 117.723 24.4277C118.073 24.802 118.528 24.9892 119.087 24.9892C119.426 24.9892 119.762 24.9046 120.096 24.7356C120.434 24.5666 120.713 24.311 120.935 23.9689C121.16 23.6268 121.271 23.1922 121.267 22.6649ZM132.452 19.5016L130.816 19.7914C130.747 19.5821 130.639 19.3829 130.49 19.1937C130.345 19.0045 130.148 18.8496 129.898 18.7289C129.649 18.6081 129.337 18.5478 128.962 18.5478C128.451 18.5478 128.025 18.6625 127.683 18.8919C127.34 19.1172 127.169 19.409 127.169 19.7672C127.169 20.0771 127.284 20.3266 127.513 20.5158C127.743 20.7049 128.113 20.8599 128.624 20.9806L130.097 21.3187C130.951 21.5159 131.586 21.8198 132.005 22.2303C132.424 22.6408 132.633 23.1741 132.633 23.8301C132.633 24.3855 132.472 24.8805 132.15 25.3152C131.832 25.7458 131.387 26.0839 130.816 26.3294C130.248 26.5749 129.59 26.6976 128.842 26.6976C127.803 26.6976 126.956 26.4763 126.3 26.0335C125.644 25.5868 125.242 24.9529 125.093 24.1319L126.837 23.8663C126.946 24.3211 127.169 24.6652 127.507 24.8986C127.846 25.128 128.286 25.2427 128.83 25.2427C129.421 25.2427 129.894 25.12 130.248 24.8745C130.602 24.6249 130.779 24.3211 130.779 23.9629C130.779 23.6731 130.671 23.4296 130.453 23.2324C130.24 23.0352 129.912 22.8863 129.469 22.7857L127.9 22.4416C127.035 22.2444 126.395 21.9304 125.98 21.4998C125.57 21.0692 125.364 20.5238 125.364 19.8638C125.364 19.3165 125.517 18.8375 125.823 18.427C126.129 18.0165 126.552 17.6965 127.091 17.4671C127.63 17.2337 128.248 17.117 128.944 17.117C129.946 17.117 130.735 17.3343 131.311 17.769C131.886 18.1996 132.267 18.7772 132.452 19.5016ZM143.022 26.6976C142.153 26.6976 141.394 26.4984 140.746 26.1C140.098 25.7015 139.595 25.1441 139.237 24.4277C138.879 23.7113 138.7 22.8742 138.7 21.9164C138.7 20.9545 138.879 20.1133 139.237 19.3929C139.595 18.6725 140.098 18.1131 140.746 17.7147C141.394 17.3162 142.153 17.117 143.022 17.117C143.892 17.117 144.65 17.3162 145.298 17.7147C145.946 18.1131 146.449 18.6725 146.808 19.3929C147.166 20.1133 147.345 20.9545 147.345 21.9164C147.345 22.8742 147.166 23.7113 146.808 24.4277C146.449 25.1441 145.946 25.7015 145.298 26.1C144.65 26.4984 143.892 26.6976 143.022 26.6976ZM143.028 25.1823C143.592 25.1823 144.059 25.0334 144.429 24.7356C144.799 24.4378 145.073 24.0414 145.25 23.5463C145.431 23.0513 145.522 22.506 145.522 21.9103C145.522 21.3187 145.431 20.7754 145.25 20.2804C145.073 19.7813 144.799 19.3808 144.429 19.079C144.059 18.7772 143.592 18.6262 143.028 18.6262C142.461 18.6262 141.99 18.7772 141.616 19.079C141.245 19.3808 140.97 19.7813 140.789 20.2804C140.612 20.7754 140.523 21.3187 140.523 21.9103C140.523 22.506 140.612 23.0513 140.789 23.5463C140.97 24.0414 141.245 24.4378 141.616 24.7356C141.99 25.0334 142.461 25.1823 143.028 25.1823ZM151.165 21.0048V26.5105H149.36V17.2377H151.092V18.747H151.207C151.42 18.256 151.754 17.8616 152.209 17.5637C152.668 17.2659 153.245 17.117 153.942 17.117C154.574 17.117 155.127 17.2498 155.602 17.5154C156.077 17.777 156.445 18.1674 156.707 18.6866C156.968 19.2058 157.099 19.8477 157.099 20.6124V26.5105H155.294V20.8297C155.294 20.1576 155.119 19.6324 154.769 19.2541C154.419 18.8717 153.938 18.6806 153.326 18.6806C152.907 18.6806 152.535 18.7711 152.209 18.9522C151.887 19.1333 151.632 19.399 151.442 19.7491C151.257 20.0952 151.165 20.5138 151.165 21.0048Z" fill="#E8E8E8"/>
<path d="M163.94 26.5105V14.1468H169.048C169.973 14.1468 170.772 14.3279 171.444 14.6902C172.12 15.0483 172.642 15.5494 173.008 16.1933C173.374 16.8333 173.557 17.5778 173.557 18.427C173.557 19.2802 173.37 20.0268 172.996 20.6667C172.625 21.3026 172.096 21.7956 171.408 22.1458C170.72 22.4959 169.903 22.671 168.957 22.671H165.806V20.3166H168.402C168.852 20.3166 169.229 20.2381 169.531 20.0811C169.836 19.9242 170.068 19.7048 170.225 19.4231C170.382 19.1374 170.46 18.8053 170.46 18.427C170.46 18.0447 170.382 17.7147 170.225 17.437C170.068 17.1552 169.836 16.9379 169.531 16.785C169.225 16.632 168.848 16.5556 168.402 16.5556H166.929V26.5105H163.94ZM177.312 26.6674C176.721 26.6674 176.195 26.5688 175.737 26.3716C175.282 26.1704 174.922 25.8685 174.656 25.4661C174.394 25.0596 174.264 24.5505 174.264 23.9387C174.264 23.4236 174.354 22.9889 174.535 22.6348C174.716 22.2806 174.966 21.9928 175.284 21.7715C175.602 21.5501 175.968 21.3831 176.382 21.2704C176.797 21.1537 177.24 21.0752 177.711 21.035C178.238 20.9867 178.662 20.9364 178.984 20.884C179.306 20.8277 179.54 20.7492 179.685 20.6486C179.834 20.544 179.908 20.3971 179.908 20.2079V20.1777C179.908 19.8678 179.801 19.6284 179.588 19.4593C179.375 19.2903 179.087 19.2058 178.725 19.2058C178.334 19.2058 178.02 19.2903 177.783 19.4593C177.546 19.6284 177.395 19.8618 177.33 20.1596L174.608 20.063C174.688 19.4996 174.895 18.9965 175.229 18.5538C175.567 18.1071 176.03 17.7569 176.618 17.5034C177.21 17.2458 177.92 17.117 178.749 17.117C179.341 17.117 179.886 17.1874 180.385 17.3283C180.884 17.4651 181.319 17.6664 181.689 17.932C182.059 18.1936 182.345 18.5156 182.546 18.8979C182.751 19.2802 182.854 19.7169 182.854 20.2079V26.5105H180.077V25.2186H180.005C179.84 25.5325 179.628 25.7981 179.371 26.0154C179.117 26.2328 178.817 26.3958 178.471 26.5044C178.129 26.6131 177.743 26.6674 177.312 26.6674ZM178.224 24.7356C178.542 24.7356 178.827 24.6712 179.081 24.5424C179.339 24.4136 179.544 24.2366 179.697 24.0112C179.85 23.7818 179.926 23.5161 179.926 23.2143V22.3329C179.842 22.3772 179.739 22.4174 179.618 22.4536C179.502 22.4899 179.373 22.5241 179.232 22.5563C179.091 22.5885 178.946 22.6166 178.797 22.6408C178.648 22.6649 178.505 22.6871 178.369 22.7072C178.091 22.7515 177.853 22.8199 177.656 22.9125C177.463 23.005 177.314 23.1258 177.21 23.2747C177.109 23.4196 177.059 23.5926 177.059 23.7938C177.059 24.0997 177.167 24.3331 177.385 24.4941C177.606 24.6551 177.886 24.7356 178.224 24.7356ZM186.132 29.9877C185.778 29.9877 185.444 29.9596 185.13 29.9032C184.816 29.8509 184.546 29.7805 184.321 29.6919L184.973 27.5488C185.263 27.6454 185.524 27.7017 185.758 27.7178C185.995 27.7339 186.199 27.6957 186.368 27.6031C186.541 27.5146 186.673 27.3556 186.766 27.1262L186.881 26.8485L183.585 17.2377H186.675L188.384 23.8542H188.48L190.213 17.2377H193.322L189.827 27.3979C189.658 27.905 189.418 28.3517 189.108 28.7381C188.802 29.1285 188.406 29.4343 187.919 29.6557C187.436 29.8771 186.84 29.9877 186.132 29.9877Z" fill="#0045D9"/>
<path d="M194.454 26.5105V14.1468H199.561C200.487 14.1468 201.286 14.3279 201.958 14.6902C202.634 15.0483 203.155 15.5494 203.521 16.1933C203.888 16.8333 204.071 17.5778 204.071 18.427C204.071 19.2802 203.884 20.0268 203.509 20.6667C203.139 21.3026 202.61 21.7956 201.922 22.1458C201.233 22.4959 200.417 22.671 199.471 22.671H196.319V20.3166H198.915C199.366 20.3166 199.742 20.2381 200.044 20.0811C200.35 19.9242 200.582 19.7048 200.738 19.4231C200.895 19.1374 200.974 18.8053 200.974 18.427C200.974 18.0447 200.895 17.7147 200.738 17.437C200.582 17.1552 200.35 16.9379 200.044 16.785C199.738 16.632 199.362 16.5556 198.915 16.5556H197.442V26.5105H194.454ZM207.826 26.6674C207.234 26.6674 206.709 26.5688 206.25 26.3716C205.795 26.1704 205.435 25.8685 205.17 25.4661C204.908 25.0596 204.777 24.5505 204.777 23.9387C204.777 23.4236 204.868 22.9889 205.049 22.6348C205.23 22.2806 205.479 21.9928 205.797 21.7715C206.115 21.5501 206.482 21.3831 206.896 21.2704C207.311 21.1537 207.753 21.0752 208.224 21.035C208.751 20.9867 209.176 20.9364 209.498 20.884C209.82 20.8277 210.053 20.7492 210.198 20.6486C210.347 20.544 210.422 20.3971 210.422 20.2079V20.1777C210.422 19.8678 210.315 19.6284 210.102 19.4593C209.888 19.2903 209.601 19.2058 209.238 19.2058C208.848 19.2058 208.534 19.2903 208.297 19.4593C208.059 19.6284 207.908 19.8618 207.844 20.1596L205.121 20.063C205.202 19.4996 205.409 18.9965 205.743 18.5538C206.081 18.1071 206.544 17.7569 207.132 17.5034C207.723 17.2458 208.434 17.117 209.263 17.117C209.854 17.117 210.4 17.1874 210.899 17.3283C211.398 17.4651 211.832 17.6664 212.203 17.932C212.573 18.1936 212.859 18.5156 213.06 18.8979C213.265 19.2802 213.368 19.7169 213.368 20.2079V26.5105H210.591V25.2186H210.518C210.353 25.5325 210.142 25.7981 209.884 26.0154C209.631 26.2328 209.331 26.3958 208.985 26.5044C208.643 26.6131 208.256 26.6674 207.826 26.6674ZM208.737 24.7356C209.055 24.7356 209.341 24.6712 209.595 24.5424C209.852 24.4136 210.057 24.2366 210.21 24.0112C210.363 23.7818 210.44 23.5161 210.44 23.2143V22.3329C210.355 22.3772 210.253 22.4174 210.132 22.4536C210.015 22.4899 209.886 22.5241 209.746 22.5563C209.605 22.5885 209.46 22.6166 209.311 22.6408C209.162 22.6649 209.019 22.6871 208.882 22.7072C208.605 22.7515 208.367 22.8199 208.17 22.9125C207.977 23.005 207.828 23.1258 207.723 23.2747C207.623 23.4196 207.572 23.5926 207.572 23.7938C207.572 24.0997 207.681 24.3331 207.898 24.4941C208.12 24.6551 208.399 24.7356 208.737 24.7356ZM218.125 14.1468V26.5105H215.173V14.1468H218.125Z" fill="#00A4EE"/>
</g>
<rect x="1.0746" y="1.08119" width="225.858" height="37.8585" rx="6.92857" stroke="white" stroke-opacity="0.15" stroke-width="2.14286"/>
<defs>
<filter id="filter0_d_28_2505" x="2.40289" y="0.409485" width="39.202" height="39.202" filterUnits="userSpaceOnUse" color-interpolation-filters="sRGB">
<feFlood flood-opacity="0" result="BackgroundImageFix"/>
<feColorMatrix in="SourceAlpha" type="matrix" values="0 0 0 0 0 0 0 0 0 0 0 0 0 0 0 0 0 0 127 0" result="hardAlpha"/>
<feOffset/>
<feGaussianBlur stdDeviation="2.80014"/>
<feComposite in2="hardAlpha" operator="out"/>
<feColorMatrix type="matrix" values="0 0 0 0 0 0 0 0 0 0 0 0 0 0 0 0 0 0 0.25 0"/>
<feBlend mode="normal" in2="BackgroundImageFix" result="effect1_dropShadow_28_2505"/>
<feBlend mode="normal" in="SourceGraphic" in2="effect1_dropShadow_28_2505" result="shape"/>
</filter>
<filter id="filter1_d_28_2505" x="38.2904" y="3.79618" width="187.429" height="32.4286" filterUnits="userSpaceOnUse" color-interpolation-filters="sRGB">
<feFlood flood-opacity="0" result="BackgroundImageFix"/>
<feColorMatrix in="SourceAlpha" type="matrix" values="0 0 0 0 0 0 0 0 0 0 0 0 0 0 0 0 0 0 127 0" result="hardAlpha"/>
<feOffset/>
<feGaussianBlur stdDeviation="2.85714"/>
<feComposite in2="hardAlpha" operator="out"/>
<feColorMatrix type="matrix" values="0 0 0 0 0 0 0 0 0 0 0 0 0 0 0 0 0 0 0.25 0"/>
<feBlend mode="normal" in2="BackgroundImageFix" result="effect1_dropShadow_28_2505"/>
<feBlend mode="normal" in="SourceGraphic" in2="effect1_dropShadow_28_2505" result="shape"/>
</filter>
<linearGradient id="paint0_linear_28_2505" x1="114.004" y1="0.00976562" x2="114.004" y2="40.0112" gradientUnits="userSpaceOnUse">
<stop stop-color="#0E1B35"/>
<stop offset="1" stop-color="#0A1D25"/>
</linearGradient>
</defs>
</svg>
