<svg width="159" height="28" viewBox="0 0 159 28" fill="none" xmlns="http://www.w3.org/2000/svg">
<g clip-path="url(#clip0_28_2496)">
<rect x="0.499268" y="-1.52588e-05" width="158.5" height="28" rx="6" fill="url(#paint0_linear_28_2496)"/>
<g filter="url(#filter0_d_28_2496)">
<path d="M22.6939 10.4028L12.6439 21.3014H8.95776C8.70177 21.3014 8.49698 21.047 8.54818 20.7926L11.0056 5.32488C11.0568 4.96871 11.364 4.71431 11.7224 4.71431H17.9684C22.269 4.86695 23.4465 7.05482 22.6785 10.4129L22.6939 10.4028Z" fill="#0045D9"/>
<path d="M22.8576 9.39536C24.3935 10.2094 24.7519 11.7359 24.2399 13.7711C23.5744 16.773 21.5777 18.0451 18.6594 18.0959L17.8403 18.1468C17.5331 18.1468 17.3283 18.3504 17.2771 18.6556L16.6116 22.6752C16.5604 23.0314 16.2532 23.2858 15.8948 23.2858H12.823C12.567 23.2858 12.3622 23.0314 12.4134 22.777L13.5397 15.501C13.5909 15.2466 22.8576 9.39536 22.8576 9.39536Z" fill="#00A4EE"/>
<path d="M13.4785 15.8572L14.5025 9.39532C14.536 9.24228 14.6194 9.10452 14.7398 9.00334C14.8601 8.90217 15.0106 8.84322 15.168 8.83563H20.0829C21.2605 8.83563 22.1308 9.03915 22.8476 9.39532C22.5916 11.6341 21.5164 15.2466 16.2943 15.3484H14.0417C13.7857 15.3484 13.5297 15.5519 13.4785 15.8572Z" fill="#002788"/>
</g>
<g filter="url(#filter1_d_28_2496)">
<path d="M37.7415 12.6015C37.6998 12.2318 37.5279 11.9453 37.2258 11.7422C36.9237 11.5364 36.5435 11.4336 36.0852 11.4336C35.7571 11.4336 35.4732 11.4857 35.2336 11.5898C34.9941 11.6914 34.8079 11.832 34.675 12.0117C34.5448 12.1888 34.4797 12.3906 34.4797 12.6172C34.4797 12.8073 34.524 12.9713 34.6125 13.1094C34.7037 13.2474 34.8222 13.3633 34.968 13.457C35.1165 13.5482 35.2753 13.625 35.4446 13.6875C35.6138 13.7474 35.7766 13.7969 35.9329 13.8359L36.7141 14.039C36.9693 14.1015 37.231 14.1862 37.4993 14.293C37.7675 14.3997 38.0162 14.5403 38.2454 14.7148C38.4745 14.8893 38.6594 15.1055 38.8 15.3633C38.9433 15.6211 39.0149 15.9297 39.0149 16.289C39.0149 16.7422 38.8977 17.1445 38.6633 17.4961C38.4316 17.8476 38.0943 18.125 37.6516 18.3281C37.2115 18.5312 36.679 18.6328 36.054 18.6328C35.455 18.6328 34.9368 18.5377 34.4993 18.3476C34.0618 18.1575 33.7193 17.888 33.4719 17.539C33.2245 17.1875 33.0878 16.7708 33.0618 16.289H34.2727C34.2961 16.5781 34.3899 16.819 34.554 17.0117C34.7206 17.2018 34.9329 17.3437 35.1907 17.4375C35.4511 17.5286 35.7362 17.5742 36.0461 17.5742C36.3873 17.5742 36.6907 17.5208 36.9563 17.414C37.2245 17.3047 37.4355 17.1536 37.5891 16.9609C37.7428 16.7656 37.8196 16.5377 37.8196 16.2773C37.8196 16.0403 37.7519 15.8463 37.6165 15.6953C37.4836 15.5443 37.3027 15.4193 37.0735 15.3203C36.8469 15.2213 36.5904 15.1341 36.304 15.0586L35.3586 14.8008C34.718 14.6263 34.2102 14.3698 33.8352 14.0312C33.4628 13.6927 33.2766 13.2448 33.2766 12.6875C33.2766 12.2265 33.4016 11.8242 33.6516 11.4805C33.9016 11.1367 34.2402 10.8698 34.6672 10.6797C35.0943 10.487 35.5761 10.3906 36.1125 10.3906C36.6542 10.3906 37.1321 10.4857 37.5461 10.6758C37.9628 10.8659 38.2909 11.1276 38.5305 11.4609C38.7701 11.7916 38.8951 12.1719 38.9055 12.6015H37.7415ZM44.1643 16.0117V12.5H45.3362V18.5H44.1877V17.4609H44.1252C43.9872 17.7812 43.7659 18.0482 43.4612 18.2617C43.1591 18.4726 42.7828 18.5781 42.3323 18.5781C41.9469 18.5781 41.6057 18.4935 41.3088 18.3242C41.0146 18.1523 40.7828 17.8984 40.6135 17.5625C40.4469 17.2265 40.3635 16.8112 40.3635 16.3164V12.5H41.5315V16.1758C41.5315 16.5846 41.6448 16.9101 41.8713 17.1523C42.0979 17.3945 42.3922 17.5156 42.7541 17.5156C42.9729 17.5156 43.1903 17.4609 43.4065 17.3515C43.6252 17.2422 43.8062 17.0768 43.9495 16.8555C44.0953 16.6341 44.1669 16.3528 44.1643 16.0117ZM46.9055 20.75V12.5H48.0461V13.4726H48.1438C48.2115 13.3476 48.3092 13.2031 48.4368 13.039C48.5644 12.875 48.7415 12.7318 48.968 12.6094C49.1946 12.4844 49.4941 12.4219 49.8665 12.4219C50.3508 12.4219 50.7831 12.5443 51.1633 12.789C51.5435 13.0338 51.8417 13.3867 52.0579 13.8476C52.2766 14.3086 52.386 14.8633 52.386 15.5117C52.386 16.1601 52.2779 16.7161 52.0618 17.1797C51.8456 17.6406 51.5487 17.9961 51.1711 18.2461C50.7935 18.4935 50.3625 18.6172 49.8782 18.6172C49.5136 18.6172 49.2154 18.556 48.9836 18.4336C48.7545 18.3112 48.5748 18.168 48.4446 18.0039C48.3144 17.8398 48.2141 17.694 48.1438 17.5664H48.0735V20.75H46.9055ZM48.05 15.5C48.05 15.9219 48.1112 16.2916 48.2336 16.6094C48.356 16.9271 48.5331 17.1758 48.7649 17.3555C48.9967 17.5325 49.2805 17.6211 49.6165 17.6211C49.9654 17.6211 50.2571 17.5286 50.4914 17.3437C50.7258 17.1562 50.9029 16.9023 51.0227 16.582C51.1451 16.2617 51.2063 15.901 51.2063 15.5C51.2063 15.1041 51.1464 14.7487 51.0266 14.4336C50.9094 14.1185 50.7323 13.8698 50.4954 13.6875C50.261 13.5052 49.968 13.414 49.6165 13.414C49.2779 13.414 48.9915 13.5013 48.7571 13.6758C48.5253 13.8502 48.3495 14.0937 48.2297 14.4062C48.1099 14.7187 48.05 15.0833 48.05 15.5ZM53.6946 20.75V12.5H54.8352V13.4726H54.9329C55.0006 13.3476 55.0982 13.2031 55.2258 13.039C55.3534 12.875 55.5305 12.7318 55.7571 12.6094C55.9836 12.4844 56.2831 12.4219 56.6555 12.4219C57.1399 12.4219 57.5722 12.5443 57.9524 12.789C58.3326 13.0338 58.6308 13.3867 58.8469 13.8476C59.0657 14.3086 59.175 14.8633 59.175 15.5117C59.175 16.1601 59.067 16.7161 58.8508 17.1797C58.6347 17.6406 58.3378 17.9961 57.9602 18.2461C57.5826 18.4935 57.1516 18.6172 56.6672 18.6172C56.3026 18.6172 56.0045 18.556 55.7727 18.4336C55.5435 18.3112 55.3638 18.168 55.2336 18.0039C55.1034 17.8398 55.0032 17.694 54.9329 17.5664H54.8625V20.75H53.6946ZM54.8391 15.5C54.8391 15.9219 54.9003 16.2916 55.0227 16.6094C55.1451 16.9271 55.3222 17.1758 55.5539 17.3555C55.7857 17.5325 56.0696 17.6211 56.4055 17.6211C56.7545 17.6211 57.0461 17.5286 57.2805 17.3437C57.5149 17.1562 57.692 16.9023 57.8118 16.582C57.9342 16.2617 57.9954 15.901 57.9954 15.5C57.9954 15.1041 57.9355 14.7487 57.8157 14.4336C57.6985 14.1185 57.5214 13.8698 57.2844 13.6875C57.05 13.5052 56.7571 13.414 56.4055 13.414C56.067 13.414 55.7805 13.5013 55.5461 13.6758C55.3144 13.8502 55.1386 14.0937 55.0188 14.4062C54.899 14.7187 54.8391 15.0833 54.8391 15.5ZM63.011 18.6211C62.4485 18.6211 61.9576 18.4922 61.5383 18.2344C61.1191 17.9765 60.7935 17.6159 60.5618 17.1523C60.33 16.6888 60.2141 16.1471 60.2141 15.5273C60.2141 14.9049 60.33 14.3607 60.5618 13.8945C60.7935 13.4284 61.1191 13.0664 61.5383 12.8086C61.9576 12.5508 62.4485 12.4219 63.011 12.4219C63.5735 12.4219 64.0644 12.5508 64.4836 12.8086C64.9029 13.0664 65.2284 13.4284 65.4602 13.8945C65.692 14.3607 65.8079 14.9049 65.8079 15.5273C65.8079 16.1471 65.692 16.6888 65.4602 17.1523C65.2284 17.6159 64.9029 17.9765 64.4836 18.2344C64.0644 18.4922 63.5735 18.6211 63.011 18.6211ZM63.0149 17.6406C63.3795 17.6406 63.6816 17.5443 63.9211 17.3515C64.1607 17.1588 64.3378 16.9023 64.4524 16.582C64.5696 16.2617 64.6282 15.9088 64.6282 15.5234C64.6282 15.1406 64.5696 14.789 64.4524 14.4687C64.3378 14.1458 64.1607 13.8867 63.9211 13.6914C63.6816 13.4961 63.3795 13.3984 63.0149 13.3984C62.6477 13.3984 62.343 13.4961 62.1008 13.6914C61.8612 13.8867 61.6829 14.1458 61.5657 14.4687C61.4511 14.789 61.3938 15.1406 61.3938 15.5234C61.3938 15.9088 61.4511 16.2617 61.5657 16.582C61.6829 16.9023 61.8612 17.1588 62.1008 17.3515C62.343 17.5443 62.6477 17.6406 63.0149 17.6406ZM67.1116 18.5V12.5H68.2405V13.4531H68.303C68.4123 13.1302 68.6051 12.8763 68.8811 12.6914C69.1597 12.5039 69.4748 12.4101 69.8264 12.4101C69.8993 12.4101 69.9853 12.4127 70.0842 12.418C70.1858 12.4232 70.2652 12.4297 70.3225 12.4375V13.5547C70.2756 13.5416 70.1923 13.5273 70.0725 13.5117C69.9527 13.4935 69.8329 13.4844 69.7131 13.4844C69.4371 13.4844 69.191 13.543 68.9748 13.6601C68.7613 13.7747 68.592 13.9349 68.467 14.1406C68.342 14.3437 68.2795 14.5755 68.2795 14.8359V18.5H67.1116ZM74.4885 12.5V13.4375H71.2112V12.5H74.4885ZM72.0901 11.0625H73.258V16.7383C73.258 16.9648 73.2919 17.1354 73.3596 17.25C73.4273 17.362 73.5146 17.4388 73.6213 17.4805C73.7307 17.5195 73.8492 17.539 73.9768 17.539C74.0705 17.539 74.1526 17.5325 74.2229 17.5195C74.2932 17.5065 74.3479 17.4961 74.387 17.4883L74.5979 18.4531C74.5302 18.4791 74.4338 18.5052 74.3088 18.5312C74.1838 18.5599 74.0276 18.5755 73.8401 18.5781C73.5328 18.5833 73.2463 18.5286 72.9807 18.414C72.7151 18.2995 72.5002 18.1224 72.3362 17.8828C72.1721 17.6432 72.0901 17.3424 72.0901 16.9805V11.0625ZM78.6916 18.5V12.5H79.8127V13.4765H79.8869C80.0119 13.1458 80.2164 12.888 80.5002 12.7031C80.7841 12.5156 81.1239 12.4219 81.5198 12.4219C81.9208 12.4219 82.2567 12.5156 82.5276 12.7031C82.801 12.8906 83.0028 13.1484 83.133 13.4765H83.1955C83.3388 13.1562 83.5666 12.901 83.8791 12.7109C84.1916 12.5182 84.564 12.4219 84.9963 12.4219C85.5406 12.4219 85.9846 12.5924 86.3284 12.9336C86.6747 13.2747 86.8479 13.789 86.8479 14.4765V18.5H85.6799V14.5859C85.6799 14.1797 85.5692 13.8854 85.3479 13.7031C85.1265 13.5208 84.8622 13.4297 84.5549 13.4297C84.1747 13.4297 83.8791 13.5469 83.6682 13.7812C83.4573 14.013 83.3518 14.3112 83.3518 14.6758V18.5H82.1877V14.5117C82.1877 14.1862 82.0862 13.9245 81.883 13.7265C81.6799 13.5286 81.4156 13.4297 81.0901 13.4297C80.8687 13.4297 80.6643 13.4883 80.4768 13.6055C80.2919 13.72 80.1422 13.8802 80.0276 14.0859C79.9156 14.2916 79.8596 14.5299 79.8596 14.8008V18.5H78.6916ZM90.9993 18.6211C90.4081 18.6211 89.899 18.4948 89.4719 18.2422C89.0474 17.987 88.7193 17.6289 88.4875 17.168C88.2584 16.7044 88.1438 16.1614 88.1438 15.539C88.1438 14.9245 88.2584 14.3828 88.4875 13.914C88.7193 13.4453 89.0422 13.0794 89.4563 12.8164C89.8729 12.5534 90.3599 12.4219 90.9172 12.4219C91.2558 12.4219 91.5839 12.4778 91.9016 12.5898C92.2193 12.7018 92.5045 12.8776 92.7571 13.1172C93.0097 13.3568 93.2089 13.668 93.3547 14.0508C93.5006 14.431 93.5735 14.8932 93.5735 15.4375V15.8515H88.8039V14.9765H92.4289C92.4289 14.6693 92.3664 14.3971 92.2414 14.1601C92.1164 13.9206 91.9407 13.7318 91.7141 13.5937C91.4901 13.4557 91.2271 13.3867 90.925 13.3867C90.5969 13.3867 90.3104 13.4674 90.0657 13.6289C89.8235 13.7877 89.636 13.9961 89.5032 14.2539C89.3729 14.5091 89.3078 14.7864 89.3078 15.0859V15.7695C89.3078 16.1706 89.3782 16.5117 89.5188 16.793C89.662 17.0742 89.8612 17.289 90.1164 17.4375C90.3716 17.5833 90.6698 17.6562 91.011 17.6562C91.2323 17.6562 91.4341 17.625 91.6164 17.5625C91.7987 17.4974 91.9563 17.401 92.0891 17.2734C92.2219 17.1458 92.3235 16.9883 92.3938 16.8008L93.4992 17C93.4107 17.3255 93.2519 17.6107 93.0227 17.8555C92.7961 18.0976 92.511 18.2864 92.1672 18.4219C91.8261 18.5547 91.4367 18.6211 90.9993 18.6211ZM100.308 18.6211C99.7453 18.6211 99.2545 18.4922 98.8352 18.2344C98.4159 17.9765 98.0904 17.6159 97.8586 17.1523C97.6269 16.6888 97.511 16.1471 97.511 15.5273C97.511 14.9049 97.6269 14.3607 97.8586 13.8945C98.0904 13.4284 98.4159 13.0664 98.8352 12.8086C99.2545 12.5508 99.7453 12.4219 100.308 12.4219C100.87 12.4219 101.361 12.5508 101.78 12.8086C102.2 13.0664 102.525 13.4284 102.757 13.8945C102.989 14.3607 103.105 14.9049 103.105 15.5273C103.105 16.1471 102.989 16.6888 102.757 17.1523C102.525 17.6159 102.2 17.9765 101.78 18.2344C101.361 18.4922 100.87 18.6211 100.308 18.6211ZM100.312 17.6406C100.676 17.6406 100.978 17.5443 101.218 17.3515C101.458 17.1588 101.635 16.9023 101.749 16.582C101.866 16.2617 101.925 15.9088 101.925 15.5234C101.925 15.1406 101.866 14.789 101.749 14.4687C101.635 14.1458 101.458 13.8867 101.218 13.6914C100.978 13.4961 100.676 13.3984 100.312 13.3984C99.9446 13.3984 99.6399 13.4961 99.3977 13.6914C99.1581 13.8867 98.9797 14.1458 98.8625 14.4687C98.7479 14.789 98.6907 15.1406 98.6907 15.5234C98.6907 15.9088 98.7479 16.2617 98.8625 16.582C98.9797 16.9023 99.1581 17.1588 99.3977 17.3515C99.6399 17.5443 99.9446 17.6406 100.312 17.6406ZM105.576 14.9375V18.5H104.408V12.5H105.53V13.4765H105.604C105.742 13.1588 105.958 12.9036 106.252 12.7109C106.549 12.5182 106.923 12.4219 107.373 12.4219C107.782 12.4219 108.14 12.5078 108.447 12.6797C108.755 12.8489 108.993 13.1015 109.162 13.4375C109.332 13.7734 109.416 14.1888 109.416 14.6836V18.5H108.248V14.8242C108.248 14.3893 108.135 14.0495 107.908 13.8047C107.682 13.5573 107.371 13.4336 106.975 13.4336C106.704 13.4336 106.463 13.4922 106.252 13.6094C106.044 13.7265 105.878 13.8984 105.756 14.125C105.636 14.3489 105.576 14.6198 105.576 14.9375Z" fill="#E8E8E8"/>
<path d="M113.66 18.5V9.77271H117.265C117.918 9.77271 118.482 9.90055 118.957 10.1562C119.434 10.4091 119.802 10.7628 120.06 11.2173C120.319 11.669 120.448 12.1946 120.448 12.794C120.448 13.3963 120.316 13.9233 120.052 14.375C119.79 14.8238 119.417 15.1719 118.931 15.419C118.445 15.6662 117.869 15.7898 117.201 15.7898H114.977V14.1278H116.809C117.127 14.1278 117.393 14.0724 117.606 13.9616C117.822 13.8508 117.985 13.696 118.096 13.4971C118.207 13.2954 118.262 13.0611 118.262 12.794C118.262 12.5241 118.207 12.2912 118.096 12.0952C117.985 11.8963 117.822 11.7429 117.606 11.6349C117.39 11.527 117.124 11.473 116.809 11.473H115.769V18.5H113.66ZM123.099 18.6108C122.681 18.6108 122.31 18.5412 121.986 18.402C121.665 18.2599 121.411 18.0469 121.224 17.7628C121.039 17.4758 120.947 17.1165 120.947 16.6846C120.947 16.321 121.011 16.0142 121.138 15.7642C121.266 15.5142 121.442 15.3111 121.667 15.1548C121.891 14.9986 122.15 14.8807 122.442 14.8011C122.735 14.7187 123.048 14.6633 123.38 14.6349C123.752 14.6008 124.052 14.5653 124.279 14.5284C124.506 14.4886 124.671 14.4332 124.773 14.3622C124.879 14.2883 124.931 14.1846 124.931 14.0511V14.0298C124.931 13.8111 124.856 13.642 124.705 13.5227C124.555 13.4034 124.352 13.3437 124.096 13.3437C123.82 13.3437 123.599 13.4034 123.431 13.5227C123.263 13.642 123.157 13.8068 123.111 14.017L121.19 13.9488C121.246 13.5511 121.393 13.196 121.629 12.8835C121.867 12.5682 122.194 12.321 122.609 12.142C123.026 11.9602 123.528 11.8693 124.113 11.8693C124.531 11.8693 124.915 11.919 125.268 12.0184C125.62 12.115 125.927 12.2571 126.188 12.4446C126.45 12.6292 126.651 12.8565 126.793 13.1264C126.938 13.3963 127.011 13.7045 127.011 14.0511V18.5H125.05V17.588H124.999C124.883 17.8096 124.734 17.9971 124.552 18.1505C124.373 18.304 124.161 18.419 123.917 18.4957C123.675 18.5724 123.403 18.6108 123.099 18.6108ZM123.742 17.2471C123.967 17.2471 124.168 17.2017 124.347 17.1108C124.529 17.0199 124.674 16.8949 124.782 16.7358C124.89 16.5738 124.944 16.3863 124.944 16.1733V15.5511C124.884 15.5824 124.812 15.6108 124.727 15.6363C124.644 15.6619 124.553 15.6861 124.454 15.7088C124.354 15.7315 124.252 15.7514 124.147 15.7684C124.042 15.7855 123.941 15.8011 123.844 15.8153C123.648 15.8466 123.481 15.8949 123.342 15.9602C123.205 16.0256 123.1 16.1108 123.026 16.2159C122.955 16.3182 122.92 16.4403 122.92 16.5824C122.92 16.7983 122.996 16.9631 123.15 17.0767C123.306 17.1903 123.504 17.2471 123.742 17.2471ZM129.325 20.9545C129.075 20.9545 128.839 20.9346 128.617 20.8949C128.396 20.8579 128.205 20.8082 128.046 20.7457L128.506 19.2329C128.711 19.3011 128.896 19.3409 129.06 19.3523C129.228 19.3636 129.371 19.3366 129.491 19.2713C129.613 19.2088 129.707 19.0966 129.772 18.9346L129.853 18.7386L127.526 11.9545H129.708L130.914 16.625H130.982L132.205 11.9545H134.4L131.933 19.1264C131.813 19.4844 131.644 19.7997 131.425 20.0724C131.209 20.348 130.93 20.5639 130.586 20.7202C130.245 20.8764 129.825 20.9545 129.325 20.9545Z" fill="#0045D9"/>
<path d="M135.199 18.5V9.77271H138.804C139.457 9.77271 140.021 9.90055 140.496 10.1562C140.973 10.4091 141.341 10.7628 141.599 11.2173C141.858 11.669 141.987 12.1946 141.987 12.794C141.987 13.3963 141.855 13.9233 141.591 14.375C141.33 14.8238 140.956 15.1719 140.47 15.419C139.984 15.6662 139.408 15.7898 138.74 15.7898H136.516V14.1278H138.348C138.666 14.1278 138.932 14.0724 139.145 13.9616C139.361 13.8508 139.524 13.696 139.635 13.4971C139.746 13.2954 139.801 13.0611 139.801 12.794C139.801 12.5241 139.746 12.2912 139.635 12.0952C139.524 11.8963 139.361 11.7429 139.145 11.6349C138.929 11.527 138.663 11.473 138.348 11.473H137.308V18.5H135.199ZM144.638 18.6108C144.22 18.6108 143.849 18.5412 143.526 18.402C143.205 18.2599 142.95 18.0469 142.763 17.7628C142.578 17.4758 142.486 17.1165 142.486 16.6846C142.486 16.321 142.55 16.0142 142.678 15.7642C142.805 15.5142 142.982 15.3111 143.206 15.1548C143.43 14.9986 143.689 14.8807 143.982 14.8011C144.274 14.7187 144.587 14.6633 144.919 14.6349C145.291 14.6008 145.591 14.5653 145.818 14.5284C146.045 14.4886 146.21 14.4332 146.312 14.3622C146.418 14.2883 146.47 14.1846 146.47 14.0511V14.0298C146.47 13.8111 146.395 13.642 146.244 13.5227C146.094 13.4034 145.891 13.3437 145.635 13.3437C145.359 13.3437 145.138 13.4034 144.97 13.5227C144.803 13.642 144.696 13.8068 144.651 14.017L142.729 13.9488C142.785 13.5511 142.932 13.196 143.168 12.8835C143.406 12.5682 143.733 12.321 144.148 12.142C144.565 11.9602 145.067 11.8693 145.652 11.8693C146.07 11.8693 146.455 11.919 146.807 12.0184C147.159 12.115 147.466 12.2571 147.727 12.4446C147.989 12.6292 148.19 12.8565 148.332 13.1264C148.477 13.3963 148.55 13.7045 148.55 14.0511V18.5H146.589V17.588H146.538C146.422 17.8096 146.273 17.9971 146.091 18.1505C145.912 18.304 145.7 18.419 145.456 18.4957C145.214 18.5724 144.942 18.6108 144.638 18.6108ZM145.281 17.2471C145.506 17.2471 145.707 17.2017 145.886 17.1108C146.068 17.0199 146.213 16.8949 146.321 16.7358C146.429 16.5738 146.483 16.3863 146.483 16.1733V15.5511C146.423 15.5824 146.351 15.6108 146.266 15.6363C146.183 15.6619 146.092 15.6861 145.993 15.7088C145.893 15.7315 145.791 15.7514 145.686 15.7684C145.581 15.7855 145.48 15.8011 145.383 15.8153C145.187 15.8466 145.02 15.8949 144.881 15.9602C144.744 16.0256 144.639 16.1108 144.565 16.2159C144.494 16.3182 144.459 16.4403 144.459 16.5824C144.459 16.7983 144.535 16.9631 144.689 17.0767C144.845 17.1903 145.043 17.2471 145.281 17.2471ZM151.908 9.77271V18.5H149.824V9.77271H151.908Z" fill="#00A4EE"/>
</g>
</g>
<rect x="1.24927" y="0.749985" width="157" height="26.5" rx="5.25" stroke="white" stroke-opacity="0.15" stroke-width="1.5"/>
<defs>
<filter id="filter0_d_28_2496" x="2.49927" y="-1.52588e-05" width="28" height="28" filterUnits="userSpaceOnUse" color-interpolation-filters="sRGB">
<feFlood flood-opacity="0" result="BackgroundImageFix"/>
<feColorMatrix in="SourceAlpha" type="matrix" values="0 0 0 0 0 0 0 0 0 0 0 0 0 0 0 0 0 0 127 0" result="hardAlpha"/>
<feOffset/>
<feGaussianBlur stdDeviation="2"/>
<feComposite in2="hardAlpha" operator="out"/>
<feColorMatrix type="matrix" values="0 0 0 0 0 0 0 0 0 0 0 0 0 0 0 0 0 0 0.25 0"/>
<feBlend mode="normal" in2="BackgroundImageFix" result="effect1_dropShadow_28_2496"/>
<feBlend mode="normal" in="SourceGraphic" in2="effect1_dropShadow_28_2496" result="shape"/>
</filter>
<filter id="filter1_d_28_2496" x="28.4993" y="3.49998" width="128.5" height="21.4545" filterUnits="userSpaceOnUse" color-interpolation-filters="sRGB">
<feFlood flood-opacity="0" result="BackgroundImageFix"/>
<feColorMatrix in="SourceAlpha" type="matrix" values="0 0 0 0 0 0 0 0 0 0 0 0 0 0 0 0 0 0 127 0" result="hardAlpha"/>
<feOffset/>
<feGaussianBlur stdDeviation="2"/>
<feComposite in2="hardAlpha" operator="out"/>
<feColorMatrix type="matrix" values="0 0 0 0 0 0 0 0 0 0 0 0 0 0 0 0 0 0 0.25 0"/>
<feBlend mode="normal" in2="BackgroundImageFix" result="effect1_dropShadow_28_2496"/>
<feBlend mode="normal" in="SourceGraphic" in2="effect1_dropShadow_28_2496" result="shape"/>
</filter>
<linearGradient id="paint0_linear_28_2496" x1="79.7492" y1="-1.52588e-05" x2="79.7492" y2="28" gradientUnits="userSpaceOnUse">
<stop stop-color="#0E1B35"/>
<stop offset="1" stop-color="#0A1D25"/>
</linearGradient>
<clipPath id="clip0_28_2496">
<rect x="0.499268" y="-1.52588e-05" width="158.5" height="28" rx="6" fill="white"/>
</clipPath>
</defs>
</svg>
