<svg width="155" height="28" viewBox="0 0 155 28" fill="none" xmlns="http://www.w3.org/2000/svg">
<g clip-path="url(#clip0_28_2505)">
<rect x="-0.000488281" y="-3.05176e-05" width="154.5" height="28" rx="6" fill="url(#paint0_linear_28_2505)"/>
<g filter="url(#filter0_d_28_2505)">
<path d="M22.1941 10.4028L12.1442 21.3014H8.458C8.20202 21.3014 7.99723 21.047 8.04843 20.7926L10.5059 5.32486C10.5571 4.9687 10.8643 4.71429 11.2226 4.71429H17.4687C21.7692 4.86694 22.9467 7.0548 22.1788 10.4129L22.1941 10.4028Z" fill="#0045D9"/>
<path d="M22.3578 9.39532C23.8938 10.2094 24.2521 11.7358 23.7402 13.7711C23.0746 16.773 21.0779 18.045 18.1597 18.0959L17.3405 18.1468C17.0334 18.1468 16.8286 18.3503 16.7774 18.6556L16.1118 22.6752C16.0606 23.0313 15.7534 23.2857 15.3951 23.2857H12.3232C12.0673 23.2857 11.8625 23.0313 11.9137 22.7769L13.04 15.501C13.0912 15.2466 22.3578 9.39532 22.3578 9.39532Z" fill="#00A4EE"/>
<path d="M12.9788 15.8571L14.0027 9.39529C14.0363 9.24225 14.1197 9.10449 14.24 9.00331C14.3603 8.90214 14.5108 8.84319 14.6683 8.8356H19.5832C20.7607 8.8356 21.631 9.03912 22.3478 9.39529C22.0918 11.634 21.0167 15.2466 15.7946 15.3483H13.5419C13.2859 15.3483 13.03 15.5518 12.9788 15.8571Z" fill="#002788"/>
</g>
<g filter="url(#filter1_d_28_2505)">
<path d="M37.2417 12.6015C37.2 12.2317 37.0282 11.9453 36.7261 11.7422C36.424 11.5364 36.0438 11.4336 35.5854 11.4336C35.2573 11.4336 34.9735 11.4856 34.7339 11.5898C34.4943 11.6914 34.3081 11.832 34.1753 12.0117C34.0451 12.1888 33.98 12.3906 33.98 12.6172C33.98 12.8073 34.0243 12.9713 34.1128 13.1093C34.2039 13.2474 34.3224 13.3632 34.4683 13.457C34.6167 13.5481 34.7756 13.625 34.9448 13.6875C35.1141 13.7474 35.2769 13.7968 35.4331 13.8359L36.2144 14.039C36.4696 14.1015 36.7313 14.1862 36.9995 14.2929C37.2677 14.3997 37.5164 14.5403 37.7456 14.7148C37.9748 14.8893 38.1597 15.1054 38.3003 15.3632C38.4435 15.6211 38.5151 15.9297 38.5151 16.289C38.5151 16.7422 38.3979 17.1445 38.1636 17.4961C37.9318 17.8476 37.5946 18.125 37.1519 18.3281C36.7118 18.5312 36.1792 18.6328 35.5542 18.6328C34.9552 18.6328 34.437 18.5377 33.9995 18.3476C33.562 18.1575 33.2196 17.888 32.9722 17.539C32.7248 17.1875 32.5881 16.7708 32.562 16.289H33.7729C33.7964 16.5781 33.8901 16.819 34.0542 17.0117C34.2209 17.2018 34.4331 17.3437 34.6909 17.4375C34.9513 17.5286 35.2365 17.5742 35.5464 17.5742C35.8875 17.5742 36.1909 17.5208 36.4565 17.414C36.7248 17.3047 36.9357 17.1536 37.0894 16.9609C37.243 16.7656 37.3198 16.5377 37.3198 16.2773C37.3198 16.0403 37.2521 15.8463 37.1167 15.6953C36.9839 15.5442 36.8029 15.4192 36.5737 15.3203C36.3472 15.2213 36.0907 15.1341 35.8042 15.0586L34.8589 14.8007C34.2183 14.6263 33.7104 14.3698 33.3354 14.0312C32.9631 13.6927 32.7769 13.2448 32.7769 12.6875C32.7769 12.2265 32.9019 11.8242 33.1519 11.4804C33.4019 11.1367 33.7404 10.8698 34.1675 10.6797C34.5946 10.4869 35.0763 10.3906 35.6128 10.3906C36.1545 10.3906 36.6323 10.4856 37.0464 10.6757C37.4631 10.8659 37.7912 11.1276 38.0308 11.4609C38.2703 11.7916 38.3953 12.1718 38.4058 12.6015H37.2417ZM43.6645 16.0117V12.5H44.8364V18.5H43.688V17.4609H43.6255C43.4875 17.7812 43.2661 18.0481 42.9614 18.2617C42.6593 18.4726 42.283 18.5781 41.8325 18.5781C41.4471 18.5781 41.106 18.4935 40.8091 18.3242C40.5148 18.1523 40.283 17.8984 40.1138 17.5625C39.9471 17.2265 39.8638 16.8112 39.8638 16.3164V12.5H41.0317V16.1757C41.0317 16.5846 41.145 16.9101 41.3716 17.1523C41.5981 17.3945 41.8924 17.5156 42.2544 17.5156C42.4731 17.5156 42.6906 17.4609 42.9067 17.3515C43.1255 17.2422 43.3065 17.0768 43.4497 16.8554C43.5955 16.6341 43.6672 16.3528 43.6645 16.0117ZM46.4058 20.75V12.5H47.5464V13.4726H47.644C47.7117 13.3476 47.8094 13.2031 47.937 13.039C48.0646 12.875 48.2417 12.7317 48.4683 12.6093C48.6948 12.4843 48.9943 12.4218 49.3667 12.4218C49.8511 12.4218 50.2834 12.5442 50.6636 12.789C51.0438 13.0338 51.342 13.3867 51.5581 13.8476C51.7768 14.3086 51.8862 14.8632 51.8862 15.5117C51.8862 16.1601 51.7782 16.7161 51.562 17.1797C51.3459 17.6406 51.049 17.9961 50.6714 18.2461C50.2938 18.4935 49.8628 18.6172 49.3784 18.6172C49.0138 18.6172 48.7157 18.556 48.4839 18.4336C48.2547 18.3112 48.075 18.1679 47.9448 18.0039C47.8146 17.8398 47.7144 17.694 47.644 17.5664H47.5737V20.75H46.4058ZM47.5503 15.5C47.5503 15.9218 47.6115 16.2916 47.7339 16.6093C47.8563 16.927 48.0334 17.1757 48.2651 17.3554C48.4969 17.5325 48.7808 17.6211 49.1167 17.6211C49.4657 17.6211 49.7573 17.5286 49.9917 17.3437C50.2261 17.1562 50.4032 16.9023 50.5229 16.582C50.6453 16.2617 50.7065 15.901 50.7065 15.5C50.7065 15.1041 50.6466 14.7487 50.5269 14.4336C50.4097 14.1185 50.2326 13.8698 49.9956 13.6875C49.7612 13.5052 49.4683 13.414 49.1167 13.414C48.7782 13.414 48.4917 13.5013 48.2573 13.6757C48.0255 13.8502 47.8498 14.0937 47.73 14.4062C47.6102 14.7187 47.5503 15.0833 47.5503 15.5ZM53.1948 20.75V12.5H54.3354V13.4726H54.4331C54.5008 13.3476 54.5985 13.2031 54.7261 13.039C54.8537 12.875 55.0308 12.7317 55.2573 12.6093C55.4839 12.4843 55.7834 12.4218 56.1558 12.4218C56.6401 12.4218 57.0724 12.5442 57.4526 12.789C57.8328 13.0338 58.131 13.3867 58.3472 13.8476C58.5659 14.3086 58.6753 14.8632 58.6753 15.5117C58.6753 16.1601 58.5672 16.7161 58.3511 17.1797C58.1349 17.6406 57.838 17.9961 57.4604 18.2461C57.0828 18.4935 56.6518 18.6172 56.1675 18.6172C55.8029 18.6172 55.5047 18.556 55.2729 18.4336C55.0438 18.3112 54.8641 18.1679 54.7339 18.0039C54.6037 17.8398 54.5034 17.694 54.4331 17.5664H54.3628V20.75H53.1948ZM54.3393 15.5C54.3393 15.9218 54.4005 16.2916 54.5229 16.6093C54.6453 16.927 54.8224 17.1757 55.0542 17.3554C55.286 17.5325 55.5698 17.6211 55.9058 17.6211C56.2547 17.6211 56.5464 17.5286 56.7808 17.3437C57.0151 17.1562 57.1922 16.9023 57.312 16.582C57.4344 16.2617 57.4956 15.901 57.4956 15.5C57.4956 15.1041 57.4357 14.7487 57.3159 14.4336C57.1987 14.1185 57.0216 13.8698 56.7847 13.6875C56.5503 13.5052 56.2573 13.414 55.9058 13.414C55.5672 13.414 55.2808 13.5013 55.0464 13.6757C54.8146 13.8502 54.6388 14.0937 54.519 14.4062C54.3992 14.7187 54.3393 15.0833 54.3393 15.5ZM62.5112 18.6211C61.9487 18.6211 61.4578 18.4922 61.0386 18.2343C60.6193 17.9765 60.2938 17.6159 60.062 17.1523C59.8302 16.6888 59.7143 16.1471 59.7143 15.5273C59.7143 14.9049 59.8302 14.3606 60.062 13.8945C60.2938 13.4284 60.6193 13.0664 61.0386 12.8086C61.4578 12.5507 61.9487 12.4218 62.5112 12.4218C63.0737 12.4218 63.5646 12.5507 63.9839 12.8086C64.4031 13.0664 64.7287 13.4284 64.9604 13.8945C65.1922 14.3606 65.3081 14.9049 65.3081 15.5273C65.3081 16.1471 65.1922 16.6888 64.9604 17.1523C64.7287 17.6159 64.4031 17.9765 63.9839 18.2343C63.5646 18.4922 63.0737 18.6211 62.5112 18.6211ZM62.5151 17.6406C62.8797 17.6406 63.1818 17.5442 63.4214 17.3515C63.661 17.1588 63.838 16.9023 63.9526 16.582C64.0698 16.2617 64.1284 15.9088 64.1284 15.5234C64.1284 15.1406 64.0698 14.789 63.9526 14.4687C63.838 14.1458 63.661 13.8867 63.4214 13.6914C63.1818 13.4961 62.8797 13.3984 62.5151 13.3984C62.1479 13.3984 61.8433 13.4961 61.6011 13.6914C61.3615 13.8867 61.1831 14.1458 61.0659 14.4687C60.9513 14.789 60.894 15.1406 60.894 15.5234C60.894 15.9088 60.9513 16.2617 61.0659 16.582C61.1831 16.9023 61.3615 17.1588 61.6011 17.3515C61.8433 17.5442 62.1479 17.6406 62.5151 17.6406ZM66.6118 18.5V12.5H67.7407V13.4531H67.8032C67.9126 13.1302 68.1053 12.8763 68.3813 12.6914C68.66 12.5039 68.9751 12.4101 69.3266 12.4101C69.3996 12.4101 69.4855 12.4127 69.5845 12.4179C69.686 12.4231 69.7655 12.4297 69.8227 12.4375V13.5547C69.7759 13.5416 69.6925 13.5273 69.5727 13.5117C69.453 13.4935 69.3332 13.4843 69.2134 13.4843C68.9373 13.4843 68.6912 13.5429 68.4751 13.6601C68.2615 13.7747 68.0923 13.9349 67.9673 14.1406C67.8423 14.3437 67.7798 14.5755 67.7798 14.8359V18.5H66.6118ZM73.9888 12.5V13.4375H70.7114V12.5H73.9888ZM71.5903 11.0625H72.7583V16.7382C72.7583 16.9648 72.7921 17.1354 72.8599 17.25C72.9276 17.3619 73.0148 17.4388 73.1216 17.4804C73.2309 17.5195 73.3494 17.539 73.477 17.539C73.5708 17.539 73.6528 17.5325 73.7231 17.5195C73.7934 17.5065 73.8481 17.4961 73.8872 17.4882L74.0981 18.4531C74.0304 18.4791 73.9341 18.5052 73.8091 18.5312C73.6841 18.5599 73.5278 18.5755 73.3403 18.5781C73.033 18.5833 72.7466 18.5286 72.4809 18.414C72.2153 18.2994 72.0005 18.1224 71.8364 17.8828C71.6724 17.6432 71.5903 17.3424 71.5903 16.9804V11.0625ZM81.9927 16.0117V12.5H83.1645V18.5H82.0161V17.4609H81.9536C81.8156 17.7812 81.5942 18.0481 81.2895 18.2617C80.9875 18.4726 80.6112 18.5781 80.1606 18.5781C79.7752 18.5781 79.4341 18.4935 79.1372 18.3242C78.8429 18.1523 78.6112 17.8984 78.4419 17.5625C78.2752 17.2265 78.1919 16.8112 78.1919 16.3164V12.5H79.3598V16.1757C79.3598 16.5846 79.4731 16.9101 79.6997 17.1523C79.9263 17.3945 80.2205 17.5156 80.5825 17.5156C80.8013 17.5156 81.0187 17.4609 81.2348 17.3515C81.4536 17.2422 81.6346 17.0768 81.7778 16.8554C81.9237 16.6341 81.9953 16.3528 81.9927 16.0117ZM89.23 13.9648L88.1714 14.1523C88.1271 14.0169 88.0568 13.888 87.9604 13.7656C87.8667 13.6432 87.7391 13.5429 87.5776 13.4648C87.4162 13.3867 87.2143 13.3476 86.9722 13.3476C86.6414 13.3476 86.3654 13.4218 86.144 13.5703C85.9227 13.7161 85.812 13.9049 85.812 14.1367C85.812 14.3372 85.8862 14.4987 86.0347 14.6211C86.1831 14.7435 86.4227 14.8437 86.7534 14.9218L87.7065 15.1406C88.2586 15.2682 88.6701 15.4648 88.9409 15.7304C89.2117 15.9961 89.3472 16.3411 89.3472 16.7656C89.3472 17.125 89.243 17.4453 89.0347 17.7265C88.8289 18.0052 88.5412 18.2239 88.1714 18.3828C87.8042 18.5416 87.3784 18.6211 86.894 18.6211C86.2222 18.6211 85.674 18.4778 85.2495 18.1914C84.825 17.9023 84.5646 17.4922 84.4682 16.9609L85.5972 16.789C85.6675 17.0833 85.812 17.306 86.0307 17.457C86.2495 17.6054 86.5347 17.6797 86.8862 17.6797C87.269 17.6797 87.575 17.6002 87.8042 17.4414C88.0333 17.2799 88.1479 17.0833 88.1479 16.8515C88.1479 16.664 88.0776 16.5065 87.937 16.3789C87.799 16.2513 87.5867 16.1549 87.3003 16.0898L86.2847 15.8672C85.7248 15.7396 85.3107 15.5364 85.0425 15.2578C84.7768 14.9791 84.644 14.6263 84.644 14.1992C84.644 13.845 84.743 13.5351 84.9409 13.2695C85.1388 13.0039 85.4123 12.7968 85.7612 12.6484C86.1102 12.4974 86.5099 12.4218 86.9604 12.4218C87.6089 12.4218 88.1193 12.5625 88.4917 12.8437C88.8641 13.1224 89.1102 13.4961 89.23 13.9648ZM96.0698 18.6211C95.5073 18.6211 95.0164 18.4922 94.5971 18.2343C94.1779 17.9765 93.8524 17.6159 93.6206 17.1523C93.3888 16.6888 93.2729 16.1471 93.2729 15.5273C93.2729 14.9049 93.3888 14.3606 93.6206 13.8945C93.8524 13.4284 94.1779 13.0664 94.5971 12.8086C95.0164 12.5507 95.5073 12.4218 96.0698 12.4218C96.6323 12.4218 97.1232 12.5507 97.5425 12.8086C97.9617 13.0664 98.2873 13.4284 98.519 13.8945C98.7508 14.3606 98.8667 14.9049 98.8667 15.5273C98.8667 16.1471 98.7508 16.6888 98.519 17.1523C98.2873 17.6159 97.9617 17.9765 97.5425 18.2343C97.1232 18.4922 96.6323 18.6211 96.0698 18.6211ZM96.0737 17.6406C96.4383 17.6406 96.7404 17.5442 96.98 17.3515C97.2195 17.1588 97.3966 16.9023 97.5112 16.582C97.6284 16.2617 97.687 15.9088 97.687 15.5234C97.687 15.1406 97.6284 14.789 97.5112 14.4687C97.3966 14.1458 97.2195 13.8867 96.98 13.6914C96.7404 13.4961 96.4383 13.3984 96.0737 13.3984C95.7065 13.3984 95.4018 13.4961 95.1596 13.6914C94.9201 13.8867 94.7417 14.1458 94.6245 14.4687C94.5099 14.789 94.4526 15.1406 94.4526 15.5234C94.4526 15.9088 94.5099 16.2617 94.6245 16.582C94.7417 16.9023 94.9201 17.1588 95.1596 17.3515C95.4018 17.5442 95.7065 17.6406 96.0737 17.6406ZM101.338 14.9375V18.5H100.17V12.5H101.291V13.4765H101.366C101.504 13.1588 101.72 12.9036 102.014 12.7109C102.311 12.5182 102.685 12.4218 103.135 12.4218C103.544 12.4218 103.902 12.5078 104.209 12.6797C104.517 12.8489 104.755 13.1015 104.924 13.4375C105.094 13.7734 105.178 14.1888 105.178 14.6836V18.5H104.01V14.8242C104.01 14.3893 103.897 14.0494 103.67 13.8047C103.444 13.5573 103.133 13.4336 102.737 13.4336C102.466 13.4336 102.225 13.4922 102.014 13.6093C101.806 13.7265 101.64 13.8984 101.518 14.125C101.398 14.3489 101.338 14.6198 101.338 14.9375Z" fill="#E8E8E8"/>
<path d="M109.16 18.5V9.7727H112.765C113.419 9.7727 113.982 9.90054 114.457 10.1562C114.934 10.4091 115.302 10.7628 115.561 11.2173C115.819 11.669 115.948 12.1946 115.948 12.794C115.948 13.3963 115.816 13.9233 115.552 14.375C115.291 14.8238 114.917 15.1718 114.431 15.419C113.946 15.6662 113.369 15.7897 112.701 15.7897H110.477V14.1278H112.309C112.627 14.1278 112.893 14.0724 113.106 13.9616C113.322 13.8508 113.485 13.696 113.596 13.4971C113.707 13.2954 113.762 13.061 113.762 12.794C113.762 12.5241 113.707 12.2912 113.596 12.0951C113.485 11.8963 113.322 11.7429 113.106 11.6349C112.89 11.527 112.625 11.473 112.309 11.473H111.269V18.5H109.16ZM118.599 18.6108C118.181 18.6108 117.811 18.5412 117.487 18.402C117.166 18.2599 116.911 18.0468 116.724 17.7628C116.539 17.4758 116.447 17.1164 116.447 16.6846C116.447 16.321 116.511 16.0142 116.639 15.7642C116.767 15.5142 116.943 15.311 117.167 15.1548C117.392 14.9985 117.65 14.8806 117.943 14.8011C118.235 14.7187 118.548 14.6633 118.88 14.6349C119.252 14.6008 119.552 14.5653 119.779 14.5284C120.007 14.4886 120.171 14.4332 120.274 14.3622C120.379 14.2883 120.431 14.1846 120.431 14.0511V14.0298C120.431 13.811 120.356 13.642 120.205 13.5227C120.055 13.4034 119.852 13.3437 119.596 13.3437C119.321 13.3437 119.099 13.4034 118.931 13.5227C118.764 13.642 118.657 13.8068 118.612 14.017L116.69 13.9488C116.747 13.5511 116.893 13.196 117.129 12.8835C117.367 12.5681 117.694 12.321 118.109 12.142C118.526 11.9602 119.028 11.8693 119.613 11.8693C120.031 11.8693 120.416 11.919 120.768 12.0184C121.12 12.115 121.427 12.2571 121.688 12.4446C121.95 12.6292 122.151 12.8565 122.294 13.1264C122.438 13.3963 122.511 13.7045 122.511 14.0511V18.5H120.551V17.588H120.5C120.383 17.8096 120.234 17.9971 120.052 18.1505C119.873 18.3039 119.661 18.419 119.417 18.4957C119.176 18.5724 118.903 18.6108 118.599 18.6108ZM119.242 17.2471C119.467 17.2471 119.669 17.2017 119.848 17.1108C120.029 17.0199 120.174 16.8949 120.282 16.7358C120.39 16.5738 120.444 16.3863 120.444 16.1733V15.5511C120.384 15.5824 120.312 15.6108 120.227 15.6363C120.144 15.6619 120.053 15.686 119.954 15.7088C119.855 15.7315 119.752 15.7514 119.647 15.7684C119.542 15.7855 119.441 15.8011 119.345 15.8153C119.149 15.8466 118.981 15.8949 118.842 15.9602C118.705 16.0255 118.6 16.1108 118.526 16.2159C118.455 16.3181 118.42 16.4403 118.42 16.5824C118.42 16.7983 118.497 16.963 118.65 17.0767C118.806 17.1903 119.004 17.2471 119.242 17.2471ZM124.825 20.9545C124.575 20.9545 124.339 20.9346 124.117 20.8949C123.896 20.8579 123.705 20.8082 123.546 20.7457L124.007 19.2329C124.211 19.3011 124.396 19.3409 124.561 19.3522C124.728 19.3636 124.872 19.3366 124.991 19.2713C125.113 19.2088 125.207 19.0966 125.272 18.9346L125.353 18.7386L123.026 11.9545H125.208L126.414 16.625H126.482L127.705 11.9545H129.9L127.433 19.1264C127.313 19.4843 127.144 19.7997 126.926 20.0724C126.71 20.348 126.43 20.5639 126.086 20.7201C125.745 20.8764 125.325 20.9545 124.825 20.9545Z" fill="#0045D9"/>
<path d="M130.699 18.5V9.7727H134.304C134.958 9.7727 135.522 9.90054 135.996 10.1562C136.473 10.4091 136.841 10.7628 137.1 11.2173C137.358 11.669 137.487 12.1946 137.487 12.794C137.487 13.3963 137.355 13.9233 137.091 14.375C136.83 14.8238 136.456 15.1718 135.97 15.419C135.485 15.6662 134.908 15.7897 134.24 15.7897H132.016V14.1278H133.848C134.166 14.1278 134.432 14.0724 134.645 13.9616C134.861 13.8508 135.024 13.696 135.135 13.4971C135.246 13.2954 135.301 13.061 135.301 12.794C135.301 12.5241 135.246 12.2912 135.135 12.0951C135.024 11.8963 134.861 11.7429 134.645 11.6349C134.429 11.527 134.164 11.473 133.848 11.473H132.808V18.5H130.699ZM140.138 18.6108C139.72 18.6108 139.35 18.5412 139.026 18.402C138.705 18.2599 138.45 18.0468 138.263 17.7628C138.078 17.4758 137.986 17.1164 137.986 16.6846C137.986 16.321 138.05 16.0142 138.178 15.7642C138.306 15.5142 138.482 15.311 138.706 15.1548C138.931 14.9985 139.189 14.8806 139.482 14.8011C139.774 14.7187 140.087 14.6633 140.419 14.6349C140.791 14.6008 141.091 14.5653 141.318 14.5284C141.546 14.4886 141.71 14.4332 141.813 14.3622C141.918 14.2883 141.97 14.1846 141.97 14.0511V14.0298C141.97 13.811 141.895 13.642 141.745 13.5227C141.594 13.4034 141.391 13.3437 141.135 13.3437C140.86 13.3437 140.638 13.4034 140.47 13.5227C140.303 13.642 140.196 13.8068 140.151 14.017L138.229 13.9488C138.286 13.5511 138.432 13.196 138.668 12.8835C138.906 12.5681 139.233 12.321 139.648 12.142C140.066 11.9602 140.567 11.8693 141.152 11.8693C141.57 11.8693 141.955 11.919 142.307 12.0184C142.659 12.115 142.966 12.2571 143.227 12.4446C143.489 12.6292 143.691 12.8565 143.833 13.1264C143.977 13.3963 144.05 13.7045 144.05 14.0511V18.5H142.09V17.588H142.039C141.922 17.8096 141.773 17.9971 141.591 18.1505C141.412 18.3039 141.2 18.419 140.956 18.4957C140.715 18.5724 140.442 18.6108 140.138 18.6108ZM140.781 17.2471C141.006 17.2471 141.208 17.2017 141.387 17.1108C141.568 17.0199 141.713 16.8949 141.821 16.7358C141.929 16.5738 141.983 16.3863 141.983 16.1733V15.5511C141.924 15.5824 141.851 15.6108 141.766 15.6363C141.683 15.6619 141.593 15.686 141.493 15.7088C141.394 15.7315 141.291 15.7514 141.186 15.7684C141.081 15.7855 140.98 15.8011 140.884 15.8153C140.688 15.8466 140.52 15.8949 140.381 15.9602C140.245 16.0255 140.139 16.1108 140.066 16.2159C139.995 16.3181 139.959 16.4403 139.959 16.5824C139.959 16.7983 140.036 16.963 140.189 17.0767C140.345 17.1903 140.543 17.2471 140.781 17.2471ZM147.408 9.7727V18.5H145.324V9.7727H147.408Z" fill="#00A4EE"/>
</g>
</g>
<rect x="0.749512" y="0.749969" width="153" height="26.5" rx="5.25" stroke="white" stroke-opacity="0.15" stroke-width="1.5"/>
<defs>
<filter id="filter0_d_28_2505" x="1.99951" y="-3.05176e-05" width="28" height="28" filterUnits="userSpaceOnUse" color-interpolation-filters="sRGB">
<feFlood flood-opacity="0" result="BackgroundImageFix"/>
<feColorMatrix in="SourceAlpha" type="matrix" values="0 0 0 0 0 0 0 0 0 0 0 0 0 0 0 0 0 0 127 0" result="hardAlpha"/>
<feOffset/>
<feGaussianBlur stdDeviation="2"/>
<feComposite in2="hardAlpha" operator="out"/>
<feColorMatrix type="matrix" values="0 0 0 0 0 0 0 0 0 0 0 0 0 0 0 0 0 0 0.25 0"/>
<feBlend mode="normal" in2="BackgroundImageFix" result="effect1_dropShadow_28_2505"/>
<feBlend mode="normal" in="SourceGraphic" in2="effect1_dropShadow_28_2505" result="shape"/>
</filter>
<filter id="filter1_d_28_2505" x="27.9995" y="3.49997" width="124.5" height="21.4545" filterUnits="userSpaceOnUse" color-interpolation-filters="sRGB">
<feFlood flood-opacity="0" result="BackgroundImageFix"/>
<feColorMatrix in="SourceAlpha" type="matrix" values="0 0 0 0 0 0 0 0 0 0 0 0 0 0 0 0 0 0 127 0" result="hardAlpha"/>
<feOffset/>
<feGaussianBlur stdDeviation="2"/>
<feComposite in2="hardAlpha" operator="out"/>
<feColorMatrix type="matrix" values="0 0 0 0 0 0 0 0 0 0 0 0 0 0 0 0 0 0 0.25 0"/>
<feBlend mode="normal" in2="BackgroundImageFix" result="effect1_dropShadow_28_2505"/>
<feBlend mode="normal" in="SourceGraphic" in2="effect1_dropShadow_28_2505" result="shape"/>
</filter>
<linearGradient id="paint0_linear_28_2505" x1="77.2495" y1="-3.05176e-05" x2="77.2495" y2="28" gradientUnits="userSpaceOnUse">
<stop stop-color="#001239"/>
<stop offset="1" stop-color="#001F2D"/>
</linearGradient>
<clipPath id="clip0_28_2505">
<rect x="-0.000488281" y="-3.05176e-05" width="154.5" height="28" rx="6" fill="white"/>
</clipPath>
</defs>
</svg>
