<svg width="189" height="56" viewBox="0 0 189 56" fill="none" xmlns="http://www.w3.org/2000/svg">
<rect x="-0.000244141" y="-0.000183105" width="189" height="56" rx="8" fill="url(#paint0_linear_28_544)"/>
<g filter="url(#filter0_d_28_544)">
<path d="M18.7861 16.7012C18.7861 17.8503 19.0991 18.9272 19.6446 19.8506H17.5848C16.7668 19.8506 15.9822 20.1755 15.4038 20.754C14.8254 21.3324 14.5004 22.1169 14.5004 22.935V26.8311C14.5004 27.9802 15.1292 28.9807 16.0588 29.5124V42.4155C16.0588 44.1182 17.4406 45.4999 19.1433 45.4999H44.8575C45.6756 45.4999 46.4601 45.1749 47.0385 44.5965C47.617 44.0181 47.942 43.2335 47.942 42.4155V29.5126C48.8719 28.9818 49.5004 27.9798 49.5004 26.8311V22.935C49.5004 22.1169 49.1754 21.3324 48.597 20.754C48.0185 20.1755 47.234 19.8506 46.416 19.8506H44.3555C44.8207 19.0614 45.1068 18.1762 45.1896 17.2581C45.293 16.1111 45.075 14.958 44.56 13.9279C44.045 12.8978 43.2533 12.0315 42.2736 11.4261C41.2939 10.8206 40.165 10.4999 39.0134 10.4999C36.7536 10.4999 33.7769 11.8087 32.0004 14.9347C30.2238 11.8087 27.2457 10.4999 24.9874 10.4999C23.3427 10.4999 21.7654 11.1533 20.6024 12.3162C19.4395 13.4792 18.7861 15.0565 18.7861 16.7012ZM24.9874 13.5519C26.5549 13.5519 29.8283 14.9096 30.3911 19.8506H24.9874C24.1522 19.8506 23.3511 19.5188 22.7605 18.9281C22.1699 18.3375 21.8381 17.5365 21.8381 16.7012C21.8381 15.866 22.1699 15.0649 22.7605 14.4743C23.3511 13.8837 24.1522 13.5519 24.9874 13.5519ZM44.89 29.9155V42.4155C44.89 42.4241 44.8866 42.4324 44.8805 42.4384C44.8744 42.4445 44.8661 42.448 44.8575 42.448H33.5264V29.9155H44.89ZM30.4744 29.9155V42.448H19.1433C19.1254 42.448 19.1108 42.4333 19.1108 42.4155V29.9155H30.4744ZM46.4389 26.854C46.4328 26.8601 46.4246 26.8635 46.416 26.8635H33.5264V22.9025H46.416C46.4246 22.9025 46.4328 22.9059 46.4389 22.912C46.445 22.9181 46.4484 22.9264 46.4484 22.935V26.8311C46.4484 26.8397 46.445 26.8479 46.4389 26.854ZM30.4744 22.9025V26.8635H17.5848C17.567 26.8635 17.5523 26.8489 17.5523 26.8311V22.935C17.5523 22.9264 17.5558 22.9181 17.5619 22.912C17.5679 22.9059 17.5762 22.9025 17.5848 22.9025H30.4744ZM42.1627 16.7012C42.1627 17.5365 41.8309 18.3375 41.2403 18.9281C40.6497 19.5188 39.8486 19.8506 39.0134 19.8506H33.6097C34.1725 14.9096 37.4458 13.5519 39.0134 13.5519C39.8486 13.5519 40.6497 13.8837 41.2403 14.4743C41.8309 15.0649 42.1627 15.866 42.1627 16.7012Z" fill="white" stroke="white" stroke-width="0.714285"/>
</g>
<g filter="url(#filter1_d_28_544)">
<path d="M71.6248 15.9203C71.5641 15.3824 71.3141 14.9657 70.8748 14.6703C70.4354 14.371 69.8823 14.2214 69.2157 14.2214C68.7384 14.2214 68.3255 14.2972 67.977 14.4487C67.6285 14.5964 67.3577 14.801 67.1645 15.0623C66.9751 15.3199 66.8804 15.6135 66.8804 15.943C66.8804 16.2195 66.9448 16.4581 67.0736 16.6589C67.2062 16.8597 67.3785 17.0282 67.5907 17.1646C67.8066 17.2972 68.0376 17.4089 68.2838 17.4998C68.5301 17.5869 68.7668 17.6589 68.9941 17.7157L70.1304 18.0112C70.5016 18.1021 70.8823 18.2252 71.2725 18.3805C71.6626 18.5358 72.0244 18.7403 72.3577 18.9941C72.691 19.2479 72.96 19.5623 73.1645 19.9373C73.3729 20.3123 73.477 20.7612 73.477 21.2839C73.477 21.943 73.3066 22.5282 72.9657 23.0396C72.6285 23.5509 72.138 23.9544 71.4941 24.2498C70.8539 24.5453 70.0793 24.693 69.1702 24.693C68.299 24.693 67.5452 24.5547 66.9088 24.2782C66.2725 24.0017 65.7744 23.6097 65.4145 23.1021C65.0547 22.5907 64.8558 21.9847 64.8179 21.2839H66.5793C66.6134 21.7044 66.7498 22.0547 66.9884 22.335C67.2308 22.6116 67.5395 22.818 67.9145 22.9544C68.2933 23.0869 68.7081 23.1532 69.1588 23.1532C69.6551 23.1532 70.0963 23.0756 70.4827 22.9203C70.8729 22.7612 71.1797 22.5415 71.4032 22.2612C71.6266 21.9771 71.7384 21.6456 71.7384 21.2669C71.7384 20.9222 71.6399 20.64 71.4429 20.4203C71.2498 20.2006 70.9865 20.0188 70.6532 19.8748C70.3236 19.7309 69.9505 19.604 69.5338 19.4941L68.1588 19.1191C67.227 18.8653 66.4884 18.4922 65.9429 17.9998C65.4013 17.5074 65.1304 16.8559 65.1304 16.0453C65.1304 15.3748 65.3123 14.7896 65.6759 14.2896C66.0395 13.7896 66.532 13.4013 67.1532 13.1248C67.7744 12.8445 68.4751 12.7044 69.2554 12.7044C70.0433 12.7044 70.7384 12.8426 71.3407 13.1191C71.9467 13.3956 72.424 13.7763 72.7725 14.2612C73.121 14.7422 73.3028 15.2953 73.3179 15.9203H71.6248ZM80.9671 20.8805V15.7725H82.6716V24.4998H81.0012V22.9884H80.9103C80.7095 23.4544 80.3875 23.8426 79.9444 24.1532C79.505 24.46 78.9576 24.6134 78.3023 24.6134C77.7417 24.6134 77.2455 24.4903 76.8137 24.2441C76.3856 23.9941 76.0485 23.6248 75.8023 23.1362C75.5599 22.6475 75.4387 22.0434 75.4387 21.3237V15.7725H77.1375V21.1191C77.1375 21.7138 77.3023 22.1873 77.6319 22.5396C77.9614 22.8919 78.3894 23.068 78.9159 23.068C79.2341 23.068 79.5504 22.9884 79.8648 22.8294C80.183 22.6703 80.4462 22.4297 80.6546 22.1078C80.8667 21.7858 80.9709 21.3767 80.9671 20.8805ZM84.9543 27.7725V15.7725H86.6134V17.1873H86.7554C86.8539 17.0055 86.996 16.7953 87.1816 16.5566C87.3672 16.318 87.6247 16.1097 87.9543 15.9316C88.2838 15.7498 88.7194 15.6589 89.2611 15.6589C89.9657 15.6589 90.5944 15.8369 91.1475 16.193C91.7005 16.5491 92.1342 17.0623 92.4486 17.7328C92.7668 18.4032 92.9259 19.21 92.9259 20.1532C92.9259 21.0964 92.7687 21.9051 92.4543 22.5794C92.1399 23.2498 91.7081 23.7669 91.1588 24.1305C90.6096 24.4903 89.9827 24.6703 89.2782 24.6703C88.7479 24.6703 88.3141 24.5813 87.977 24.4032C87.6437 24.2252 87.3823 24.0169 87.1929 23.7782C87.0035 23.5396 86.8577 23.3275 86.7554 23.1419H86.6532V27.7725H84.9543ZM86.6191 20.1362C86.6191 20.7498 86.7081 21.2877 86.8861 21.7498C87.0641 22.2119 87.3217 22.5737 87.6588 22.835C87.996 23.0926 88.4088 23.2214 88.8975 23.2214C89.4051 23.2214 89.8293 23.0869 90.1702 22.818C90.5111 22.5453 90.7687 22.1759 90.9429 21.71C91.121 21.2441 91.21 20.7195 91.21 20.1362C91.21 19.5604 91.1229 19.0434 90.9486 18.585C90.7782 18.1267 90.5206 17.765 90.1759 17.4998C89.835 17.2347 89.4088 17.1021 88.8975 17.1021C88.4051 17.1021 87.9884 17.229 87.6475 17.4828C87.3104 17.7366 87.0547 18.0907 86.8804 18.5453C86.7062 18.9998 86.6191 19.5301 86.6191 20.1362ZM94.8293 27.7725V15.7725H96.4884V17.1873H96.6304C96.7289 17.0055 96.871 16.7953 97.0566 16.5566C97.2422 16.318 97.4997 16.1097 97.8293 15.9316C98.1588 15.7498 98.5944 15.6589 99.1361 15.6589C99.8407 15.6589 100.469 15.8369 101.022 16.193C101.576 16.5491 102.009 17.0623 102.324 17.7328C102.642 18.4032 102.801 19.21 102.801 20.1532C102.801 21.0964 102.644 21.9051 102.329 22.5794C102.015 23.2498 101.583 23.7669 101.034 24.1305C100.485 24.4903 99.8577 24.6703 99.1532 24.6703C98.6229 24.6703 98.1891 24.5813 97.852 24.4032C97.5187 24.2252 97.2573 24.0169 97.0679 23.7782C96.8785 23.5396 96.7327 23.3275 96.6304 23.1419H96.5282V27.7725H94.8293ZM96.4941 20.1362C96.4941 20.7498 96.5831 21.2877 96.7611 21.7498C96.9391 22.2119 97.1967 22.5737 97.5338 22.835C97.871 23.0926 98.2838 23.2214 98.7725 23.2214C99.28 23.2214 99.7043 23.0869 100.045 22.818C100.386 22.5453 100.644 22.1759 100.818 21.71C100.996 21.2441 101.085 20.7195 101.085 20.1362C101.085 19.5604 100.998 19.0434 100.824 18.585C100.653 18.1267 100.396 17.765 100.051 17.4998C99.71 17.2347 99.2838 17.1021 98.7725 17.1021C98.28 17.1021 97.8634 17.229 97.5225 17.4828C97.1854 17.7366 96.9297 18.0907 96.7554 18.5453C96.5812 18.9998 96.4941 19.5301 96.4941 20.1362ZM108.38 24.6759C107.562 24.6759 106.848 24.4884 106.238 24.1134C105.629 23.7384 105.155 23.2138 104.818 22.5396C104.481 21.8653 104.312 21.0775 104.312 20.1759C104.312 19.2706 104.481 18.479 104.818 17.801C105.155 17.1229 105.629 16.5964 106.238 16.2214C106.848 15.8464 107.562 15.6589 108.38 15.6589C109.199 15.6589 109.913 15.8464 110.522 16.2214C111.132 16.5964 111.606 17.1229 111.943 17.801C112.28 18.479 112.449 19.2706 112.449 20.1759C112.449 21.0775 112.28 21.8653 111.943 22.5396C111.606 23.2138 111.132 23.7384 110.522 24.1134C109.913 24.4884 109.199 24.6759 108.38 24.6759ZM108.386 23.2498C108.916 23.2498 109.356 23.1097 109.704 22.8294C110.053 22.5491 110.31 22.1759 110.477 21.71C110.647 21.2441 110.733 20.7309 110.733 20.1703C110.733 19.6135 110.647 19.1021 110.477 18.6362C110.31 18.1665 110.053 17.7896 109.704 17.5055C109.356 17.2214 108.916 17.0794 108.386 17.0794C107.852 17.0794 107.409 17.2214 107.057 17.5055C106.708 17.7896 106.449 18.1665 106.278 18.6362C106.111 19.1021 106.028 19.6135 106.028 20.1703C106.028 20.7309 106.111 21.2441 106.278 21.71C106.449 22.1759 106.708 22.5491 107.057 22.8294C107.409 23.1097 107.852 23.2498 108.386 23.2498ZM114.345 24.4998V15.7725H115.987V17.1589H116.078C116.237 16.6892 116.517 16.3199 116.919 16.051C117.324 15.7782 117.782 15.6419 118.294 15.6419C118.4 15.6419 118.525 15.6456 118.669 15.6532C118.817 15.6608 118.932 15.6703 119.015 15.6816V17.3066C118.947 17.2877 118.826 17.2669 118.652 17.2441C118.477 17.2176 118.303 17.2044 118.129 17.2044C117.727 17.2044 117.37 17.2896 117.055 17.46C116.745 17.6267 116.498 17.8597 116.317 18.1589C116.135 18.4544 116.044 18.7915 116.044 19.1703V24.4998H114.345ZM125.075 15.7725V17.1362H120.308V15.7725H125.075ZM121.586 13.6816H123.285V21.9373C123.285 22.2669 123.334 22.515 123.433 22.6816C123.531 22.8445 123.658 22.9563 123.814 23.0169C123.973 23.0737 124.145 23.1021 124.331 23.1021C124.467 23.1021 124.586 23.0926 124.689 23.0737C124.791 23.0547 124.87 23.0396 124.927 23.0282L125.234 24.4316C125.136 24.4695 124.995 24.5074 124.814 24.5453C124.632 24.5869 124.405 24.6097 124.132 24.6134C123.685 24.621 123.268 24.5415 122.882 24.3748C122.495 24.2081 122.183 23.9506 121.944 23.6021C121.706 23.2536 121.586 22.8161 121.586 22.2896V13.6816ZM131.189 24.4998V15.7725H132.819V17.193H132.927C133.109 16.7119 133.406 16.3369 133.819 16.068C134.232 15.7953 134.727 15.6589 135.302 15.6589C135.886 15.6589 136.374 15.7953 136.768 16.068C137.166 16.3407 137.459 16.7157 137.649 17.193H137.74C137.948 16.7271 138.28 16.3559 138.734 16.0794C139.189 15.7991 139.73 15.6589 140.359 15.6589C141.151 15.6589 141.797 15.907 142.297 16.4032C142.8 16.8994 143.052 17.6475 143.052 18.6475V24.4998H141.353V18.8066C141.353 18.2157 141.192 17.7877 140.87 17.5225C140.549 17.2574 140.164 17.1248 139.717 17.1248C139.164 17.1248 138.734 17.2953 138.427 17.6362C138.12 17.9733 137.967 18.407 137.967 18.9373V24.4998H136.274V18.6987C136.274 18.2252 136.126 17.8445 135.831 17.5566C135.535 17.2688 135.151 17.1248 134.677 17.1248C134.355 17.1248 134.058 17.21 133.785 17.3805C133.516 17.5472 133.299 17.7801 133.132 18.0794C132.969 18.3786 132.888 18.7252 132.888 19.1191V24.4998H131.189ZM149.091 24.6759C148.231 24.6759 147.49 24.4922 146.869 24.1248C146.252 23.7536 145.774 23.2328 145.437 22.5623C145.104 21.8881 144.937 21.0983 144.937 20.193C144.937 19.2991 145.104 18.5112 145.437 17.8294C145.774 17.1475 146.244 16.6153 146.846 16.2328C147.452 15.8502 148.161 15.6589 148.971 15.6589C149.464 15.6589 149.941 15.7403 150.403 15.9032C150.865 16.0661 151.28 16.3218 151.647 16.6703C152.015 17.0188 152.305 17.4714 152.517 18.0282C152.729 18.5813 152.835 19.2536 152.835 20.0453V20.6475H145.897V19.3748H151.17C151.17 18.9278 151.079 18.532 150.897 18.1873C150.716 17.8388 150.46 17.5642 150.13 17.3635C149.805 17.1627 149.422 17.0623 148.983 17.0623C148.505 17.0623 148.089 17.1797 147.733 17.4146C147.38 17.6456 147.108 17.9487 146.915 18.3237C146.725 18.6949 146.63 19.0983 146.63 19.5339V20.5282C146.63 21.1116 146.733 21.6078 146.937 22.0169C147.146 22.4259 147.435 22.7384 147.807 22.9544C148.178 23.1665 148.611 23.2725 149.108 23.2725C149.43 23.2725 149.723 23.2271 149.988 23.1362C150.254 23.0415 150.483 22.9013 150.676 22.7157C150.869 22.5301 151.017 22.3009 151.119 22.0282L152.727 22.318C152.598 22.7915 152.367 23.2063 152.034 23.5623C151.704 23.9146 151.29 24.1892 150.79 24.3862C150.293 24.5794 149.727 24.6759 149.091 24.6759ZM159.091 24.4998V12.8635H160.789V17.1873H160.892C160.99 17.0055 161.132 16.7953 161.318 16.5566C161.504 16.318 161.761 16.1097 162.091 15.9316C162.42 15.7498 162.856 15.6589 163.397 15.6589C164.102 15.6589 164.731 15.8369 165.284 16.193C165.837 16.5491 166.271 17.0623 166.585 17.7328C166.903 18.4032 167.062 19.21 167.062 20.1532C167.062 21.0964 166.905 21.9051 166.591 22.5794C166.276 23.2498 165.844 23.7669 165.295 24.1305C164.746 24.4903 164.119 24.6703 163.414 24.6703C162.884 24.6703 162.45 24.5813 162.113 24.4032C161.78 24.2252 161.519 24.0169 161.329 23.7782C161.14 23.5396 160.994 23.3275 160.892 23.1419H160.75V24.4998H159.091ZM160.755 20.1362C160.755 20.7498 160.844 21.2877 161.022 21.7498C161.2 22.2119 161.458 22.5737 161.795 22.835C162.132 23.0926 162.545 23.2214 163.034 23.2214C163.541 23.2214 163.966 23.0869 164.307 22.818C164.647 22.5453 164.905 22.1759 165.079 21.71C165.257 21.2441 165.346 20.7195 165.346 20.1362C165.346 19.5604 165.259 19.0434 165.085 18.585C164.914 18.1267 164.657 17.765 164.312 17.4998C163.971 17.2347 163.545 17.1021 163.034 17.1021C162.541 17.1021 162.125 17.229 161.784 17.4828C161.447 17.7366 161.191 18.0907 161.017 18.5453C160.843 18.9998 160.755 19.5301 160.755 20.1362ZM169.747 27.7725C169.493 27.7725 169.262 27.7517 169.054 27.71C168.845 27.6722 168.69 27.6305 168.588 27.585L168.997 26.193C169.307 26.2763 169.584 26.3123 169.826 26.3009C170.069 26.2896 170.283 26.1987 170.468 26.0282C170.658 25.8578 170.825 25.5794 170.968 25.193L171.179 24.6134L167.986 15.7725H169.804L172.014 22.5453H172.105L174.315 15.7725H176.139L172.542 25.6646C172.376 26.1191 172.164 26.5036 171.906 26.818C171.648 27.1362 171.342 27.3748 170.986 27.5339C170.629 27.693 170.217 27.7725 169.747 27.7725Z" fill="#E8E8E8"/>
<path d="M69.5054 43.4998H64.9355V31.1362H69.4994C70.7591 31.1362 71.8437 31.3837 72.7533 31.8787C73.6669 32.3697 74.3712 33.0781 74.8662 34.0037C75.3613 34.9254 75.6088 36.0281 75.6088 37.312C75.6088 38.5998 75.3613 39.7066 74.8662 40.6323C74.3752 41.5579 73.6729 42.2683 72.7593 42.7633C71.8458 43.2543 70.7611 43.4998 69.5054 43.4998ZM67.9238 40.9522H69.3907C70.083 40.9522 70.6686 40.8355 71.1475 40.6021C71.6304 40.3646 71.9947 39.9803 72.2402 39.449C72.4897 38.9138 72.6145 38.2014 72.6145 37.312C72.6145 36.4225 72.4897 35.7142 72.2402 35.187C71.9906 34.6557 71.6224 34.2734 71.1354 34.0399C70.6525 33.8025 70.0568 33.6838 69.3485 33.6838H67.9238V40.9522ZM81.6819 43.6749C80.708 43.6749 79.8708 43.4757 79.1706 43.0772C78.4743 42.6748 77.937 42.1153 77.5587 41.399C77.1844 40.6786 76.9973 39.8434 76.9973 38.8936C76.9973 37.9398 77.1844 37.1047 77.5587 36.3883C77.937 35.6679 78.4743 35.1085 79.1706 34.71C79.8708 34.3076 80.708 34.1063 81.6819 34.1063C82.6559 34.1063 83.491 34.3076 84.1872 34.71C84.8875 35.1085 85.4248 35.6679 85.7991 36.3883C86.1774 37.1047 86.3666 37.9398 86.3666 38.8936C86.3666 39.8434 86.1774 40.6786 85.7991 41.399C85.4248 42.1153 84.8875 42.6748 84.1872 43.0772C83.491 43.4757 82.6559 43.6749 81.6819 43.6749ZM81.7 41.4473C82.0542 41.4473 82.354 41.3386 82.5995 41.1213C82.845 40.9039 83.0322 40.6021 83.161 40.2157C83.2938 39.8294 83.3602 39.3826 83.3602 38.8755C83.3602 38.3604 83.2938 37.9096 83.161 37.5233C83.0322 37.1369 82.845 36.835 82.5995 36.6177C82.354 36.4004 82.0542 36.2917 81.7 36.2917C81.3338 36.2917 81.0239 36.4004 80.7703 36.6177C80.5208 36.835 80.3297 37.1369 80.1968 37.5233C80.0681 37.9096 80.0037 38.3604 80.0037 38.8755C80.0037 39.3826 80.0681 39.8294 80.1968 40.2157C80.3297 40.6021 80.5208 40.9039 80.7703 41.1213C81.0239 41.3386 81.3338 41.4473 81.7 41.4473ZM90.8309 38.2115V43.4998H87.8788V34.2271H90.686V35.9295H90.7886C90.9939 35.362 91.344 34.9173 91.8391 34.5953C92.3341 34.2693 92.9237 34.1063 93.6079 34.1063C94.2599 34.1063 94.8253 34.2532 95.3043 34.547C95.7872 34.8368 96.1615 35.2433 96.4271 35.7665C96.6968 36.2857 96.8296 36.8934 96.8256 37.5897V43.4998H93.8735V38.1692C93.8775 37.6541 93.7467 37.2516 93.4811 36.9618C93.2195 36.672 92.8553 36.5272 92.3884 36.5272C92.0785 36.5272 91.8048 36.5956 91.5674 36.7324C91.334 36.8652 91.1529 37.0564 91.0241 37.3059C90.8993 37.5554 90.8349 37.8573 90.8309 38.2115ZM101.267 43.6568C100.676 43.6568 100.15 43.5582 99.6916 43.361C99.2368 43.1597 98.8766 42.8579 98.611 42.4554C98.3494 42.0489 98.2186 41.5398 98.2186 40.9281C98.2186 40.4129 98.3091 39.9783 98.4902 39.6241C98.6714 39.2699 98.9209 38.9822 99.2388 38.7608C99.5568 38.5395 99.923 38.3724 100.338 38.2598C100.752 38.143 101.195 38.0646 101.666 38.0243C102.193 37.976 102.617 37.9257 102.939 37.8734C103.261 37.817 103.495 37.7386 103.64 37.638C103.789 37.5333 103.863 37.3864 103.863 37.1973V37.1671C103.863 36.8572 103.756 36.6177 103.543 36.4487C103.33 36.2796 103.042 36.1951 102.68 36.1951C102.289 36.1951 101.976 36.2796 101.738 36.4487C101.501 36.6177 101.35 36.8511 101.285 37.149L98.5627 37.0524C98.6432 36.4889 98.8504 35.9858 99.1845 35.5431C99.5226 35.0964 99.9854 34.7463 100.573 34.4927C101.165 34.2351 101.875 34.1063 102.704 34.1063C103.296 34.1063 103.841 34.1768 104.34 34.3176C104.839 34.4545 105.274 34.6557 105.644 34.9213C106.014 35.1829 106.3 35.5049 106.501 35.8872C106.707 36.2696 106.809 36.7063 106.809 37.1973V43.4998H104.032V42.2079H103.96C103.795 42.5218 103.583 42.7875 103.326 43.0048C103.072 43.2221 102.772 43.3851 102.426 43.4938C102.084 43.6024 101.698 43.6568 101.267 43.6568ZM102.179 41.725C102.497 41.725 102.783 41.6606 103.036 41.5318C103.294 41.403 103.499 41.2259 103.652 41.0005C103.805 40.7711 103.881 40.5055 103.881 40.2036V39.3223C103.797 39.3665 103.694 39.4068 103.573 39.443C103.457 39.4792 103.328 39.5134 103.187 39.5456C103.046 39.5778 102.901 39.606 102.752 39.6301C102.603 39.6543 102.461 39.6764 102.324 39.6965C102.046 39.7408 101.809 39.8092 101.611 39.9018C101.418 39.9944 101.269 40.1151 101.165 40.264C101.064 40.4089 101.014 40.582 101.014 40.7832C101.014 41.0891 101.122 41.3225 101.34 41.4835C101.561 41.6445 101.841 41.725 102.179 41.725ZM113.848 34.2271V36.4004H107.998V34.2271H113.848ZM109.224 32.0055H112.176V40.584C112.176 40.7651 112.204 40.912 112.26 41.0247C112.321 41.1333 112.407 41.2118 112.52 41.2601C112.633 41.3044 112.768 41.3265 112.925 41.3265C113.037 41.3265 113.156 41.3165 113.281 41.2963C113.41 41.2722 113.506 41.2521 113.57 41.236L114.017 43.367C113.876 43.4072 113.677 43.4576 113.42 43.5179C113.166 43.5783 112.862 43.6165 112.508 43.6326C111.816 43.6648 111.222 43.5843 110.727 43.3911C110.236 43.1939 109.86 42.8881 109.598 42.4735C109.341 42.059 109.216 41.5378 109.224 40.91V32.0055ZM115.354 43.4998V34.2271H118.306V43.4998H115.354ZM116.833 33.1465C116.419 33.1465 116.063 33.0096 115.765 32.736C115.467 32.4583 115.318 32.1242 115.318 31.7338C115.318 31.3475 115.467 31.0175 115.765 30.7438C116.063 30.4661 116.419 30.3272 116.833 30.3272C117.252 30.3272 117.608 30.4661 117.902 30.7438C118.2 31.0175 118.349 31.3475 118.349 31.7338C118.349 32.1242 118.2 32.4583 117.902 32.736C117.608 33.0096 117.252 33.1465 116.833 33.1465ZM123.138 38.2115V43.4998H120.185V34.2271H122.993V35.9295H123.095C123.301 35.362 123.651 34.9173 124.146 34.5953C124.641 34.2693 125.23 34.1063 125.915 34.1063C126.566 34.1063 127.132 34.2532 127.611 34.547C128.094 34.8368 128.468 35.2433 128.734 35.7665C129.003 36.2857 129.136 36.8934 129.132 37.5897V43.4998H126.18V38.1692C126.184 37.6541 126.053 37.2516 125.788 36.9618C125.526 36.672 125.162 36.5272 124.695 36.5272C124.385 36.5272 124.111 36.5956 123.874 36.7324C123.641 36.8652 123.459 37.0564 123.331 37.3059C123.206 37.5554 123.142 37.8573 123.138 38.2115ZM135.282 47.1703C134.401 47.1703 133.646 47.0475 133.018 46.802C132.391 46.5565 131.898 46.2205 131.539 45.7938C131.181 45.3672 130.966 44.8843 130.893 44.345L133.689 44.188C133.741 44.3772 133.837 44.5422 133.978 44.6831C134.123 44.8239 134.31 44.9326 134.54 45.009C134.773 45.0855 135.047 45.1237 135.361 45.1237C135.856 45.1237 136.264 45.003 136.586 44.7615C136.912 44.5241 137.075 44.1075 137.075 43.5119V41.8819H136.973C136.856 42.1677 136.679 42.4232 136.441 42.6486C136.204 42.874 135.908 43.0511 135.554 43.1799C135.204 43.3086 134.801 43.373 134.347 43.373C133.67 43.373 133.051 43.2161 132.487 42.9022C131.928 42.5842 131.479 42.0932 131.141 41.4291C130.807 40.7611 130.64 39.9018 130.64 38.8514C130.64 37.7688 130.813 36.8773 131.159 36.177C131.505 35.4727 131.958 34.9515 132.517 34.6135C133.081 34.2754 133.687 34.1063 134.335 34.1063C134.821 34.1063 135.238 34.1909 135.584 34.3599C135.934 34.5249 136.222 34.7382 136.447 34.9998C136.673 35.2614 136.844 35.5331 136.961 35.8148H137.045V34.2271H139.985V43.536C139.985 44.3208 139.788 44.9829 139.393 45.5222C138.999 46.0615 138.448 46.47 137.739 46.7477C137.031 47.0294 136.212 47.1703 135.282 47.1703ZM135.373 41.2239C135.731 41.2239 136.037 41.1293 136.29 40.9402C136.544 40.751 136.739 40.4793 136.876 40.1252C137.013 39.771 137.081 39.3464 137.081 38.8514C137.081 38.3483 137.013 37.9157 136.876 37.5534C136.743 37.1872 136.548 36.9055 136.29 36.7083C136.037 36.5111 135.731 36.4125 135.373 36.4125C135.007 36.4125 134.697 36.5131 134.443 36.7143C134.19 36.9155 133.996 37.1993 133.864 37.5655C133.735 37.9277 133.67 38.3563 133.67 38.8514C133.67 39.3464 133.737 39.771 133.87 40.1252C134.002 40.4793 134.194 40.751 134.443 40.9402C134.697 41.1293 135.007 41.2239 135.373 41.2239Z" fill="white"/>
</g>
<rect x="1.04976" y="1.04982" width="186.9" height="53.9" rx="6.95" stroke="white" stroke-opacity="0.15" stroke-width="2.1"/>
<defs>
<filter id="filter0_d_28_544" x="6.28547" y="2.28553" width="51.4286" height="51.4286" filterUnits="userSpaceOnUse" color-interpolation-filters="sRGB">
<feFlood flood-opacity="0" result="BackgroundImageFix"/>
<feColorMatrix in="SourceAlpha" type="matrix" values="0 0 0 0 0 0 0 0 0 0 0 0 0 0 0 0 0 0 127 0" result="hardAlpha"/>
<feOffset/>
<feGaussianBlur stdDeviation="2.85714"/>
<feComposite in2="hardAlpha" operator="out"/>
<feColorMatrix type="matrix" values="0 0 0 0 0 0 0 0 0 0 0 0 0 0 0 0 0 0 0.25 0"/>
<feBlend mode="normal" in2="BackgroundImageFix" result="effect1_dropShadow_28_544"/>
<feBlend mode="normal" in="SourceGraphic" in2="effect1_dropShadow_28_544" result="shape"/>
</filter>
<filter id="filter1_d_28_544" x="58.3998" y="3.89982" width="124.2" height="48.8705" filterUnits="userSpaceOnUse" color-interpolation-filters="sRGB">
<feFlood flood-opacity="0" result="BackgroundImageFix"/>
<feColorMatrix in="SourceAlpha" type="matrix" values="0 0 0 0 0 0 0 0 0 0 0 0 0 0 0 0 0 0 127 0" result="hardAlpha"/>
<feOffset/>
<feGaussianBlur stdDeviation="2.8"/>
<feComposite in2="hardAlpha" operator="out"/>
<feColorMatrix type="matrix" values="0 0 0 0 0 0 0 0 0 0 0 0 0 0 0 0 0 0 0.25 0"/>
<feBlend mode="normal" in2="BackgroundImageFix" result="effect1_dropShadow_28_544"/>
<feBlend mode="normal" in="SourceGraphic" in2="effect1_dropShadow_28_544" result="shape"/>
</filter>
<linearGradient id="paint0_linear_28_544" x1="94.4997" y1="-0.000183105" x2="94.4997" y2="55.9998" gradientUnits="userSpaceOnUse">
<stop stop-color="#2D2D2D"/>
<stop offset="1" stop-color="#222222"/>
</linearGradient>
</defs>
</svg>
