<svg width="184" height="56" viewBox="0 0 184 56" fill="none" xmlns="http://www.w3.org/2000/svg">
<rect x="-0.000244141" y="-9.15527e-05" width="184" height="56" rx="8" fill="url(#paint0_linear_28_490)"/>
<g filter="url(#filter0_d_28_490)">
<rect x="15.968" y="16.8889" width="22.2222" height="20.6349" fill="#FF5E5B"/>
<path d="M55.4295 22.2958C53.998 14.6634 46.4314 13.7143 46.4314 13.7143H12.5448C11.4263 13.7143 11.2875 15.2052 11.2875 15.2052C11.2875 15.2052 11.1356 28.8893 11.2467 37.2934C11.5504 41.8223 16.0355 42.2857 16.0355 42.2857C16.0355 42.2857 31.3446 42.2427 38.1945 42.1941C42.7093 41.3982 43.163 37.3999 43.1167 35.2176C51.1758 35.666 56.8609 29.9282 55.4295 22.2958V22.2958ZM34.9445 28.8557C32.6372 31.5705 27.5169 36.2844 27.5169 36.2844C27.5169 36.2844 27.2928 36.5068 26.9428 36.3274C26.8021 36.2209 26.7428 36.1592 26.7428 36.1592C25.9224 35.3353 20.5058 30.4625 19.2725 28.7716C17.9596 26.9686 17.3448 23.727 19.104 21.8399C20.8651 19.9528 24.6688 19.8108 27.1835 22.6003C27.1835 22.6003 30.0816 19.2709 33.6057 20.8011C37.1316 22.3331 36.9982 26.4268 34.9445 28.8557V28.8557ZM46.3759 29.7488C44.6574 29.9655 43.2611 29.8011 43.2611 29.8011V19.1868H46.5388C46.5388 19.1868 50.1888 20.2163 50.1888 24.1156C50.1888 27.6898 48.3647 29.0986 46.3759 29.7488V29.7488Z" fill="white"/>
</g>
<g filter="url(#filter1_d_28_490)">
<path d="M71.6248 15.9204C71.5641 15.3825 71.3141 14.9658 70.8748 14.6704C70.4354 14.3711 69.8823 14.2215 69.2157 14.2215C68.7384 14.2215 68.3255 14.2973 67.977 14.4488C67.6285 14.5965 67.3577 14.801 67.1645 15.0624C66.9751 15.32 66.8804 15.6135 66.8804 15.9431C66.8804 16.2196 66.9448 16.4582 67.0736 16.659C67.2062 16.8598 67.3785 17.0283 67.5907 17.1647C67.8066 17.2973 68.0376 17.409 68.2838 17.4999C68.5301 17.587 68.7668 17.659 68.9941 17.7158L70.1304 18.0113C70.5016 18.1022 70.8823 18.2253 71.2725 18.3806C71.6626 18.5359 72.0244 18.7404 72.3577 18.9942C72.691 19.248 72.96 19.5624 73.1645 19.9374C73.3729 20.3124 73.477 20.7613 73.477 21.284C73.477 21.9431 73.3066 22.5283 72.9657 23.0397C72.6285 23.551 72.138 23.9544 71.4941 24.2499C70.8539 24.5454 70.0793 24.6931 69.1702 24.6931C68.299 24.6931 67.5452 24.5548 66.9088 24.2783C66.2725 24.0018 65.7744 23.6098 65.4145 23.1022C65.0547 22.5908 64.8558 21.9848 64.8179 21.284H66.5793C66.6134 21.7045 66.7498 22.0548 66.9884 22.3351C67.2308 22.6116 67.5395 22.8181 67.9145 22.9544C68.2933 23.087 68.7081 23.1533 69.1588 23.1533C69.6551 23.1533 70.0963 23.0757 70.4827 22.9204C70.8729 22.7613 71.1797 22.5416 71.4032 22.2613C71.6266 21.9772 71.7384 21.6457 71.7384 21.267C71.7384 20.9223 71.6399 20.6401 71.4429 20.4204C71.2498 20.2007 70.9865 20.0188 70.6532 19.8749C70.3236 19.731 69.9505 19.6041 69.5338 19.4942L68.1588 19.1192C67.227 18.8654 66.4884 18.4923 65.9429 17.9999C65.4013 17.5075 65.1304 16.856 65.1304 16.0454C65.1304 15.3749 65.3123 14.7897 65.6759 14.2897C66.0395 13.7897 66.532 13.4014 67.1532 13.1249C67.7744 12.8446 68.4751 12.7045 69.2554 12.7045C70.0433 12.7045 70.7384 12.8427 71.3407 13.1192C71.9467 13.3957 72.424 13.7764 72.7725 14.2613C73.121 14.7423 73.3028 15.2954 73.3179 15.9204H71.6248ZM80.9671 20.8806V15.7726H82.6716V24.4999H81.0012V22.9885H80.9103C80.7095 23.4544 80.3875 23.8427 79.9444 24.1533C79.505 24.4601 78.9576 24.6135 78.3023 24.6135C77.7417 24.6135 77.2455 24.4904 76.8137 24.2442C76.3856 23.9942 76.0485 23.6249 75.8023 23.1363C75.5599 22.6476 75.4387 22.0435 75.4387 21.3238V15.7726H77.1375V21.1192C77.1375 21.7139 77.3023 22.1874 77.6319 22.5397C77.9614 22.8919 78.3894 23.0681 78.9159 23.0681C79.2341 23.0681 79.5504 22.9885 79.8648 22.8294C80.183 22.6704 80.4462 22.4298 80.6546 22.1079C80.8667 21.7859 80.9709 21.3768 80.9671 20.8806ZM84.9543 27.7726V15.7726H86.6134V17.1874H86.7554C86.8539 17.0056 86.996 16.7954 87.1816 16.5567C87.3672 16.3181 87.6247 16.1098 87.9543 15.9317C88.2838 15.7499 88.7194 15.659 89.2611 15.659C89.9657 15.659 90.5944 15.837 91.1475 16.1931C91.7005 16.5491 92.1342 17.0624 92.4486 17.7329C92.7668 18.4033 92.9259 19.2101 92.9259 20.1533C92.9259 21.0965 92.7687 21.9052 92.4543 22.5794C92.1399 23.2499 91.7081 23.7669 91.1588 24.1306C90.6096 24.4904 89.9827 24.6704 89.2782 24.6704C88.7479 24.6704 88.3141 24.5813 87.977 24.4033C87.6437 24.2253 87.3823 24.0169 87.1929 23.7783C87.0035 23.5397 86.8577 23.3276 86.7554 23.1419H86.6532V27.7726H84.9543ZM86.6191 20.1363C86.6191 20.7499 86.7081 21.2878 86.8861 21.7499C87.0641 22.212 87.3217 22.5738 87.6588 22.8351C87.996 23.0927 88.4088 23.2215 88.8975 23.2215C89.4051 23.2215 89.8293 23.087 90.1702 22.8181C90.5111 22.5454 90.7687 22.176 90.9429 21.7101C91.121 21.2442 91.21 20.7196 91.21 20.1363C91.21 19.5605 91.1229 19.0435 90.9486 18.5851C90.7782 18.1268 90.5206 17.7651 90.1759 17.4999C89.835 17.2348 89.4088 17.1022 88.8975 17.1022C88.4051 17.1022 87.9884 17.2291 87.6475 17.4829C87.3104 17.7366 87.0547 18.0908 86.8804 18.5454C86.7062 18.9999 86.6191 19.5302 86.6191 20.1363ZM94.8293 27.7726V15.7726H96.4884V17.1874H96.6304C96.7289 17.0056 96.871 16.7954 97.0566 16.5567C97.2422 16.3181 97.4997 16.1098 97.8293 15.9317C98.1588 15.7499 98.5944 15.659 99.1361 15.659C99.8407 15.659 100.469 15.837 101.022 16.1931C101.576 16.5491 102.009 17.0624 102.324 17.7329C102.642 18.4033 102.801 19.2101 102.801 20.1533C102.801 21.0965 102.644 21.9052 102.329 22.5794C102.015 23.2499 101.583 23.7669 101.034 24.1306C100.485 24.4904 99.8577 24.6704 99.1532 24.6704C98.6229 24.6704 98.1891 24.5813 97.852 24.4033C97.5187 24.2253 97.2573 24.0169 97.0679 23.7783C96.8785 23.5397 96.7327 23.3276 96.6304 23.1419H96.5282V27.7726H94.8293ZM96.4941 20.1363C96.4941 20.7499 96.5831 21.2878 96.7611 21.7499C96.9391 22.212 97.1967 22.5738 97.5338 22.8351C97.871 23.0927 98.2838 23.2215 98.7725 23.2215C99.28 23.2215 99.7043 23.087 100.045 22.8181C100.386 22.5454 100.644 22.176 100.818 21.7101C100.996 21.2442 101.085 20.7196 101.085 20.1363C101.085 19.5605 100.998 19.0435 100.824 18.5851C100.653 18.1268 100.396 17.7651 100.051 17.4999C99.71 17.2348 99.2838 17.1022 98.7725 17.1022C98.28 17.1022 97.8634 17.2291 97.5225 17.4829C97.1854 17.7366 96.9297 18.0908 96.7554 18.5454C96.5812 18.9999 96.4941 19.5302 96.4941 20.1363ZM108.38 24.676C107.562 24.676 106.848 24.4885 106.238 24.1135C105.629 23.7385 105.155 23.2139 104.818 22.5397C104.481 21.8654 104.312 21.0776 104.312 20.176C104.312 19.2707 104.481 18.4791 104.818 17.801C105.155 17.123 105.629 16.5965 106.238 16.2215C106.848 15.8465 107.562 15.659 108.38 15.659C109.199 15.659 109.913 15.8465 110.522 16.2215C111.132 16.5965 111.606 17.123 111.943 17.801C112.28 18.4791 112.449 19.2707 112.449 20.176C112.449 21.0776 112.28 21.8654 111.943 22.5397C111.606 23.2139 111.132 23.7385 110.522 24.1135C109.913 24.4885 109.199 24.676 108.38 24.676ZM108.386 23.2499C108.916 23.2499 109.356 23.1098 109.704 22.8294C110.053 22.5491 110.31 22.176 110.477 21.7101C110.647 21.2442 110.733 20.731 110.733 20.1704C110.733 19.6135 110.647 19.1022 110.477 18.6363C110.31 18.1666 110.053 17.7897 109.704 17.5056C109.356 17.2215 108.916 17.0795 108.386 17.0795C107.852 17.0795 107.409 17.2215 107.057 17.5056C106.708 17.7897 106.449 18.1666 106.278 18.6363C106.111 19.1022 106.028 19.6135 106.028 20.1704C106.028 20.731 106.111 21.2442 106.278 21.7101C106.449 22.176 106.708 22.5491 107.057 22.8294C107.409 23.1098 107.852 23.2499 108.386 23.2499ZM114.345 24.4999V15.7726H115.987V17.159H116.078C116.237 16.6893 116.517 16.32 116.919 16.051C117.324 15.7783 117.782 15.642 118.294 15.642C118.4 15.642 118.525 15.6457 118.669 15.6533C118.817 15.6609 118.932 15.6704 119.015 15.6817V17.3067C118.947 17.2878 118.826 17.267 118.652 17.2442C118.477 17.2177 118.303 17.2045 118.129 17.2045C117.727 17.2045 117.37 17.2897 117.055 17.4601C116.745 17.6268 116.498 17.8598 116.317 18.159C116.135 18.4545 116.044 18.7916 116.044 19.1704V24.4999H114.345ZM125.075 15.7726V17.1363H120.308V15.7726H125.075ZM121.586 13.6817H123.285V21.9374C123.285 22.2669 123.334 22.5151 123.433 22.6817C123.531 22.8446 123.658 22.9563 123.814 23.0169C123.973 23.0738 124.145 23.1022 124.331 23.1022C124.467 23.1022 124.586 23.0927 124.689 23.0738C124.791 23.0548 124.87 23.0397 124.927 23.0283L125.234 24.4317C125.136 24.4696 124.995 24.5075 124.814 24.5454C124.632 24.587 124.405 24.6098 124.132 24.6135C123.685 24.6211 123.268 24.5416 122.882 24.3749C122.495 24.2082 122.183 23.9507 121.944 23.6022C121.706 23.2537 121.586 22.8162 121.586 22.2897V13.6817ZM136.717 20.8806V15.7726H138.422V24.4999H136.751V22.9885H136.66C136.459 23.4544 136.138 23.8427 135.694 24.1533C135.255 24.4601 134.708 24.6135 134.052 24.6135C133.492 24.6135 132.995 24.4904 132.564 24.2442C132.136 23.9942 131.799 23.6249 131.552 23.1363C131.31 22.6476 131.189 22.0435 131.189 21.3238V15.7726H132.888V21.1192C132.888 21.7139 133.052 22.1874 133.382 22.5397C133.711 22.8919 134.139 23.0681 134.666 23.0681C134.984 23.0681 135.3 22.9885 135.615 22.8294C135.933 22.6704 136.196 22.4298 136.405 22.1079C136.617 21.7859 136.721 21.3768 136.717 20.8806ZM147.244 17.9033L145.704 18.176C145.64 17.9791 145.538 17.7916 145.397 17.6135C145.261 17.4355 145.075 17.2897 144.841 17.176C144.606 17.0624 144.312 17.0056 143.96 17.0056C143.479 17.0056 143.077 17.1135 142.755 17.3295C142.433 17.5416 142.272 17.8162 142.272 18.1533C142.272 18.445 142.38 18.6798 142.596 18.8579C142.812 19.0359 143.161 19.1817 143.642 19.2954L145.028 19.6135C145.831 19.7991 146.43 20.0851 146.824 20.4715C147.218 20.8579 147.415 21.3598 147.415 21.9772C147.415 22.4999 147.263 22.9658 146.96 23.3749C146.661 23.7802 146.242 24.0984 145.704 24.3294C145.17 24.5605 144.551 24.676 143.846 24.676C142.869 24.676 142.072 24.4677 141.454 24.051C140.837 23.6306 140.458 23.034 140.318 22.2613L141.96 22.0113C142.062 22.4393 142.272 22.7632 142.591 22.9829C142.909 23.1988 143.324 23.3067 143.835 23.3067C144.392 23.3067 144.837 23.1912 145.17 22.9601C145.504 22.7253 145.67 22.4393 145.67 22.1022C145.67 21.8295 145.568 21.6003 145.363 21.4147C145.163 21.2291 144.854 21.0889 144.437 20.9942L142.96 20.6704C142.146 20.4848 141.543 20.1893 141.153 19.784C140.767 19.3787 140.574 18.8654 140.574 18.2442C140.574 17.7291 140.718 17.2783 141.005 16.892C141.293 16.5056 141.691 16.2045 142.199 15.9885C142.706 15.7688 143.288 15.659 143.943 15.659C144.886 15.659 145.629 15.8635 146.17 16.2726C146.712 16.6779 147.07 17.2215 147.244 17.9033ZM157.193 24.676C156.375 24.676 155.661 24.4885 155.051 24.1135C154.441 23.7385 153.968 23.2139 153.63 22.5397C153.293 21.8654 153.125 21.0776 153.125 20.176C153.125 19.2707 153.293 18.4791 153.63 17.801C153.968 17.123 154.441 16.5965 155.051 16.2215C155.661 15.8465 156.375 15.659 157.193 15.659C158.011 15.659 158.725 15.8465 159.335 16.2215C159.945 16.5965 160.418 17.123 160.755 17.801C161.093 18.4791 161.261 19.2707 161.261 20.176C161.261 21.0776 161.093 21.8654 160.755 22.5397C160.418 23.2139 159.945 23.7385 159.335 24.1135C158.725 24.4885 158.011 24.676 157.193 24.676ZM157.199 23.2499C157.729 23.2499 158.168 23.1098 158.517 22.8294C158.865 22.5491 159.123 22.176 159.29 21.7101C159.46 21.2442 159.545 20.731 159.545 20.1704C159.545 19.6135 159.46 19.1022 159.29 18.6363C159.123 18.1666 158.865 17.7897 158.517 17.5056C158.168 17.2215 157.729 17.0795 157.199 17.0795C156.665 17.0795 156.221 17.2215 155.869 17.5056C155.521 17.7897 155.261 18.1666 155.091 18.6363C154.924 19.1022 154.841 19.6135 154.841 20.1704C154.841 20.731 154.924 21.2442 155.091 21.7101C155.261 22.176 155.521 22.5491 155.869 22.8294C156.221 23.1098 156.665 23.2499 157.199 23.2499ZM164.856 19.3181V24.4999H163.157V15.7726H164.788V17.1931H164.896C165.097 16.731 165.411 16.3598 165.839 16.0795C166.271 15.7991 166.815 15.659 167.47 15.659C168.065 15.659 168.585 15.784 169.032 16.034C169.479 16.2802 169.826 16.6476 170.072 17.1363C170.318 17.6249 170.441 18.2291 170.441 18.9488V24.4999H168.743V19.1533C168.743 18.5207 168.578 18.0264 168.248 17.6704C167.919 17.3105 167.466 17.1306 166.89 17.1306C166.496 17.1306 166.146 17.2158 165.839 17.3863C165.536 17.5567 165.296 17.8067 165.118 18.1363C164.943 18.462 164.856 18.856 164.856 19.3181Z" fill="#E8E8E8"/>
<path d="M64.9355 43.4999V31.1363H67.9238V36.3643H68.0868L72.1738 31.1363H75.6933L71.3105 36.654L75.7718 43.4999H72.1979L69.1191 38.6402L67.9238 40.1494V43.4999H64.9355ZM80.5198 43.675C79.5459 43.675 78.7087 43.4758 78.0085 43.0773C77.3122 42.6749 76.7749 42.1154 76.3966 41.3991C76.0223 40.6786 75.8352 39.8435 75.8352 38.8937C75.8352 37.9399 76.0223 37.1048 76.3966 36.3884C76.7749 35.668 77.3122 35.1086 78.0085 34.7101C78.7087 34.3077 79.5459 34.1064 80.5198 34.1064C81.4938 34.1064 82.3289 34.3077 83.0251 34.7101C83.7254 35.1086 84.2627 35.668 84.637 36.3884C85.0153 37.1048 85.2045 37.9399 85.2045 38.8937C85.2045 39.8435 85.0153 40.6786 84.637 41.3991C84.2627 42.1154 83.7254 42.6749 83.0251 43.0773C82.3289 43.4758 81.4938 43.675 80.5198 43.675ZM80.5379 41.4473C80.8921 41.4473 81.1919 41.3387 81.4374 41.1214C81.6829 40.904 81.8701 40.6022 81.9989 40.2158C82.1317 39.8295 82.1981 39.3827 82.1981 38.8756C82.1981 38.3605 82.1317 37.9097 81.9989 37.5233C81.8701 37.137 81.6829 36.8351 81.4374 36.6178C81.1919 36.4005 80.8921 36.2918 80.5379 36.2918C80.1717 36.2918 79.8618 36.4005 79.6082 36.6178C79.3587 36.8351 79.1675 37.137 79.0347 37.5233C78.9059 37.9097 78.8415 38.3605 78.8415 38.8756C78.8415 39.3827 78.9059 39.8295 79.0347 40.2158C79.1675 40.6022 79.3587 40.904 79.6082 41.1214C79.8618 41.3387 80.1717 41.4473 80.5379 41.4473ZM92.651 37.3603V39.6363H86.928V37.3603H92.651ZM100.006 34.2272V36.4005H94.041V34.2272H100.006ZM95.2846 43.4999V33.7563C95.2846 33.0399 95.4195 32.4463 95.6891 31.9754C95.9588 31.5005 96.3331 31.1463 96.812 30.9129C97.2909 30.6755 97.8443 30.5567 98.4721 30.5567C98.8826 30.5567 99.269 30.5889 99.6312 30.6533C99.9975 30.7137 100.269 30.768 100.446 30.8163L99.9753 32.9775C99.8667 32.9413 99.7339 32.9111 99.5769 32.887C99.424 32.8628 99.2791 32.8508 99.1422 32.8508C98.7961 32.8508 98.5587 32.9272 98.4299 33.0802C98.3011 33.2331 98.2367 33.4424 98.2367 33.708V43.4999H95.2846ZM101.426 43.4999V34.2272H104.378V43.4999H101.426ZM102.905 33.1466C102.49 33.1466 102.134 33.0097 101.836 32.7361C101.538 32.4584 101.389 32.1243 101.389 31.7339C101.389 31.3476 101.538 31.0175 101.836 30.7439C102.134 30.4662 102.49 30.3273 102.905 30.3273C103.323 30.3273 103.679 30.4662 103.973 30.7439C104.271 31.0175 104.42 31.3476 104.42 31.7339C104.42 32.1243 104.271 32.4584 103.973 32.7361C103.679 33.0097 103.323 33.1466 102.905 33.1466Z" fill="#29ABE0"/>
</g>
<rect x="1.04976" y="1.04991" width="181.9" height="53.9" rx="6.95" stroke="white" stroke-opacity="0.15" stroke-width="2.1"/>
<defs>
<filter id="filter0_d_28_490" x="5.49177" y="2.28562" width="55.873" height="51.4286" filterUnits="userSpaceOnUse" color-interpolation-filters="sRGB">
<feFlood flood-opacity="0" result="BackgroundImageFix"/>
<feColorMatrix in="SourceAlpha" type="matrix" values="0 0 0 0 0 0 0 0 0 0 0 0 0 0 0 0 0 0 127 0" result="hardAlpha"/>
<feOffset/>
<feGaussianBlur stdDeviation="2.85714"/>
<feComposite in2="hardAlpha" operator="out"/>
<feColorMatrix type="matrix" values="0 0 0 0 0 0 0 0 0 0 0 0 0 0 0 0 0 0 0.25 0"/>
<feBlend mode="normal" in2="BackgroundImageFix" result="effect1_dropShadow_28_490"/>
<feBlend mode="normal" in="SourceGraphic" in2="effect1_dropShadow_28_490" result="shape"/>
</filter>
<filter id="filter1_d_28_490" x="58.3998" y="3.89991" width="119.2" height="48.2" filterUnits="userSpaceOnUse" color-interpolation-filters="sRGB">
<feFlood flood-opacity="0" result="BackgroundImageFix"/>
<feColorMatrix in="SourceAlpha" type="matrix" values="0 0 0 0 0 0 0 0 0 0 0 0 0 0 0 0 0 0 127 0" result="hardAlpha"/>
<feOffset/>
<feGaussianBlur stdDeviation="2.8"/>
<feComposite in2="hardAlpha" operator="out"/>
<feColorMatrix type="matrix" values="0 0 0 0 0 0 0 0 0 0 0 0 0 0 0 0 0 0 0.25 0"/>
<feBlend mode="normal" in2="BackgroundImageFix" result="effect1_dropShadow_28_490"/>
<feBlend mode="normal" in="SourceGraphic" in2="effect1_dropShadow_28_490" result="shape"/>
</filter>
<linearGradient id="paint0_linear_28_490" x1="91.9997" y1="-9.15527e-05" x2="91.9997" y2="55.9999" gradientUnits="userSpaceOnUse">
<stop stop-color="#002634"/>
<stop offset="1" stop-color="#00161F"/>
</linearGradient>
</defs>
</svg>
