<svg width="190" height="56" viewBox="0 0 190 56" fill="none" xmlns="http://www.w3.org/2000/svg">
<rect x="-0.000244141" y="-6.10352e-05" width="190" height="56" rx="8" fill="url(#paint0_linear_28_482)"/>
<g filter="url(#filter0_d_28_482)">
<rect x="15.968" y="16.8889" width="22.2222" height="20.6349" fill="#FF5E5B"/>
<path d="M55.4295 22.2958C53.998 14.6634 46.4314 13.7143 46.4314 13.7143H12.5448C11.4263 13.7143 11.2875 15.2052 11.2875 15.2052C11.2875 15.2052 11.1356 28.8893 11.2467 37.2934C11.5504 41.8223 16.0355 42.2857 16.0355 42.2857C16.0355 42.2857 31.3446 42.2427 38.1945 42.1941C42.7093 41.3982 43.163 37.3999 43.1167 35.2176C51.1758 35.666 56.8609 29.9282 55.4295 22.2958V22.2958ZM34.9445 28.8557C32.6372 31.5705 27.5169 36.2844 27.5169 36.2844C27.5169 36.2844 27.2928 36.5068 26.9428 36.3274C26.8021 36.2209 26.7428 36.1592 26.7428 36.1592C25.9224 35.3353 20.5058 30.4625 19.2725 28.7716C17.9596 26.9686 17.3448 23.727 19.104 21.8399C20.8651 19.9528 24.6688 19.8108 27.1835 22.6003C27.1835 22.6003 30.0816 19.2709 33.6057 20.8011C37.1316 22.3331 36.9982 26.4268 34.9445 28.8557V28.8557ZM46.3759 29.7488C44.6574 29.9655 43.2611 29.8011 43.2611 29.8011V19.1868H46.5388C46.5388 19.1868 50.1888 20.2163 50.1888 24.1156C50.1888 27.6898 48.3647 29.0986 46.3759 29.7488V29.7488Z" fill="white"/>
</g>
<g filter="url(#filter1_d_28_482)">
<path d="M71.6248 15.9204C71.5641 15.3825 71.3141 14.9658 70.8748 14.6704C70.4354 14.3711 69.8823 14.2215 69.2157 14.2215C68.7384 14.2215 68.3255 14.2973 67.977 14.4488C67.6285 14.5965 67.3577 14.8011 67.1645 15.0624C66.9751 15.32 66.8804 15.6136 66.8804 15.9431C66.8804 16.2196 66.9448 16.4583 67.0736 16.659C67.2062 16.8598 67.3785 17.0283 67.5907 17.1647C67.8066 17.2973 68.0376 17.409 68.2838 17.4999C68.5301 17.5871 68.7668 17.659 68.9941 17.7158L70.1304 18.0113C70.5016 18.1022 70.8823 18.2253 71.2725 18.3806C71.6626 18.5359 72.0244 18.7405 72.3577 18.9943C72.691 19.248 72.96 19.5624 73.1645 19.9374C73.3729 20.3124 73.477 20.7613 73.477 21.284C73.477 21.9431 73.3066 22.5283 72.9657 23.0397C72.6285 23.5511 72.138 23.9545 71.4941 24.2499C70.8539 24.5454 70.0793 24.6931 69.1702 24.6931C68.299 24.6931 67.5452 24.5549 66.9088 24.2783C66.2725 24.0018 65.7744 23.6098 65.4145 23.1022C65.0547 22.5908 64.8558 21.9848 64.8179 21.284H66.5793C66.6134 21.7045 66.7498 22.0549 66.9884 22.3352C67.2308 22.6117 67.5395 22.8181 67.9145 22.9545C68.2933 23.0871 68.7081 23.1533 69.1588 23.1533C69.6551 23.1533 70.0963 23.0757 70.4827 22.9204C70.8729 22.7613 71.1797 22.5416 71.4032 22.2613C71.6266 21.9772 71.7384 21.6458 71.7384 21.267C71.7384 20.9223 71.6399 20.6401 71.4429 20.4204C71.2498 20.2007 70.9865 20.0189 70.6532 19.8749C70.3236 19.731 69.9505 19.6041 69.5338 19.4943L68.1588 19.1193C67.227 18.8655 66.4884 18.4924 65.9429 17.9999C65.4013 17.5075 65.1304 16.856 65.1304 16.0454C65.1304 15.3749 65.3123 14.7897 65.6759 14.2897C66.0395 13.7897 66.532 13.4015 67.1532 13.1249C67.7744 12.8446 68.4751 12.7045 69.2554 12.7045C70.0433 12.7045 70.7384 12.8427 71.3407 13.1193C71.9467 13.3958 72.424 13.7765 72.7725 14.2613C73.121 14.7424 73.3028 15.2954 73.3179 15.9204H71.6248ZM80.9671 20.8806V15.7727H82.6716V24.4999H81.0012V22.9886H80.9103C80.7095 23.4545 80.3875 23.8427 79.9444 24.1533C79.505 24.4602 78.9576 24.6136 78.3023 24.6136C77.7417 24.6136 77.2455 24.4905 76.8137 24.2443C76.3856 23.9943 76.0485 23.6249 75.8023 23.1363C75.5599 22.6477 75.4387 22.0435 75.4387 21.3238V15.7727H77.1375V21.1193C77.1375 21.714 77.3023 22.1874 77.6319 22.5397C77.9614 22.892 78.3894 23.0681 78.9159 23.0681C79.2341 23.0681 79.5504 22.9886 79.8648 22.8295C80.183 22.6704 80.4462 22.4299 80.6546 22.1079C80.8667 21.7859 80.9709 21.3768 80.9671 20.8806ZM84.9543 27.7727V15.7727H86.6134V17.1874H86.7554C86.8539 17.0056 86.996 16.7954 87.1816 16.5568C87.3672 16.3181 87.6247 16.1098 87.9543 15.9318C88.2838 15.7499 88.7194 15.659 89.2611 15.659C89.9657 15.659 90.5944 15.8371 91.1475 16.1931C91.7005 16.5492 92.1342 17.0624 92.4486 17.7329C92.7668 18.4033 92.9259 19.2102 92.9259 20.1533C92.9259 21.0965 92.7687 21.9052 92.4543 22.5795C92.1399 23.2499 91.7081 23.767 91.1588 24.1306C90.6096 24.4905 89.9827 24.6704 89.2782 24.6704C88.7479 24.6704 88.3141 24.5814 87.977 24.4033C87.6437 24.2253 87.3823 24.017 87.1929 23.7783C87.0035 23.5397 86.8577 23.3276 86.7554 23.142H86.6532V27.7727H84.9543ZM86.6191 20.1363C86.6191 20.7499 86.7081 21.2878 86.8861 21.7499C87.0641 22.2121 87.3217 22.5738 87.6588 22.8352C87.996 23.0927 88.4088 23.2215 88.8975 23.2215C89.4051 23.2215 89.8293 23.0871 90.1702 22.8181C90.5111 22.5454 90.7687 22.1761 90.9429 21.7102C91.121 21.2443 91.21 20.7196 91.21 20.1363C91.21 19.5605 91.1229 19.0435 90.9486 18.5852C90.7782 18.1268 90.5206 17.7651 90.1759 17.4999C89.835 17.2348 89.4088 17.1022 88.8975 17.1022C88.4051 17.1022 87.9884 17.2291 87.6475 17.4829C87.3104 17.7367 87.0547 18.0908 86.8804 18.5454C86.7062 18.9999 86.6191 19.5302 86.6191 20.1363ZM94.8293 27.7727V15.7727H96.4884V17.1874H96.6304C96.7289 17.0056 96.871 16.7954 97.0566 16.5568C97.2422 16.3181 97.4997 16.1098 97.8293 15.9318C98.1588 15.7499 98.5944 15.659 99.1361 15.659C99.8407 15.659 100.469 15.8371 101.022 16.1931C101.576 16.5492 102.009 17.0624 102.324 17.7329C102.642 18.4033 102.801 19.2102 102.801 20.1533C102.801 21.0965 102.644 21.9052 102.329 22.5795C102.015 23.2499 101.583 23.767 101.034 24.1306C100.485 24.4905 99.8577 24.6704 99.1532 24.6704C98.6229 24.6704 98.1891 24.5814 97.852 24.4033C97.5187 24.2253 97.2573 24.017 97.0679 23.7783C96.8785 23.5397 96.7327 23.3276 96.6304 23.142H96.5282V27.7727H94.8293ZM96.4941 20.1363C96.4941 20.7499 96.5831 21.2878 96.7611 21.7499C96.9391 22.2121 97.1967 22.5738 97.5338 22.8352C97.871 23.0927 98.2838 23.2215 98.7725 23.2215C99.28 23.2215 99.7043 23.0871 100.045 22.8181C100.386 22.5454 100.644 22.1761 100.818 21.7102C100.996 21.2443 101.085 20.7196 101.085 20.1363C101.085 19.5605 100.998 19.0435 100.824 18.5852C100.653 18.1268 100.396 17.7651 100.051 17.4999C99.71 17.2348 99.2838 17.1022 98.7725 17.1022C98.28 17.1022 97.8634 17.2291 97.5225 17.4829C97.1854 17.7367 96.9297 18.0908 96.7554 18.5454C96.5812 18.9999 96.4941 19.5302 96.4941 20.1363ZM108.38 24.6761C107.562 24.6761 106.848 24.4886 106.238 24.1136C105.629 23.7386 105.155 23.2139 104.818 22.5397C104.481 21.8655 104.312 21.0776 104.312 20.1761C104.312 19.2708 104.481 18.4791 104.818 17.8011C105.155 17.123 105.629 16.5965 106.238 16.2215C106.848 15.8465 107.562 15.659 108.38 15.659C109.199 15.659 109.913 15.8465 110.522 16.2215C111.132 16.5965 111.606 17.123 111.943 17.8011C112.28 18.4791 112.449 19.2708 112.449 20.1761C112.449 21.0776 112.28 21.8655 111.943 22.5397C111.606 23.2139 111.132 23.7386 110.522 24.1136C109.913 24.4886 109.199 24.6761 108.38 24.6761ZM108.386 23.2499C108.916 23.2499 109.356 23.1098 109.704 22.8295C110.053 22.5492 110.31 22.1761 110.477 21.7102C110.647 21.2443 110.733 20.731 110.733 20.1704C110.733 19.6136 110.647 19.1022 110.477 18.6363C110.31 18.1666 110.053 17.7897 109.704 17.5056C109.356 17.2215 108.916 17.0795 108.386 17.0795C107.852 17.0795 107.409 17.2215 107.057 17.5056C106.708 17.7897 106.449 18.1666 106.278 18.6363C106.111 19.1022 106.028 19.6136 106.028 20.1704C106.028 20.731 106.111 21.2443 106.278 21.7102C106.449 22.1761 106.708 22.5492 107.057 22.8295C107.409 23.1098 107.852 23.2499 108.386 23.2499ZM114.345 24.4999V15.7727H115.987V17.159H116.078C116.237 16.6893 116.517 16.32 116.919 16.0511C117.324 15.7783 117.782 15.642 118.294 15.642C118.4 15.642 118.525 15.6458 118.669 15.6533C118.817 15.6609 118.932 15.6704 119.015 15.6818V17.3068C118.947 17.2878 118.826 17.267 118.652 17.2443C118.477 17.2177 118.303 17.2045 118.129 17.2045C117.727 17.2045 117.37 17.2897 117.055 17.4602C116.745 17.6268 116.498 17.8598 116.317 18.159C116.135 18.4545 116.044 18.7916 116.044 19.1704V24.4999H114.345ZM125.075 15.7727V17.1363H120.308V15.7727H125.075ZM121.586 13.6818H123.285V21.9374C123.285 22.267 123.334 22.5151 123.433 22.6818C123.531 22.8446 123.658 22.9564 123.814 23.017C123.973 23.0738 124.145 23.1022 124.331 23.1022C124.467 23.1022 124.586 23.0927 124.689 23.0738C124.791 23.0549 124.87 23.0397 124.927 23.0283L125.234 24.4318C125.136 24.4696 124.995 24.5075 124.814 24.5454C124.632 24.5871 124.405 24.6098 124.132 24.6136C123.685 24.6211 123.268 24.5416 122.882 24.3749C122.495 24.2083 122.183 23.9507 121.944 23.6022C121.706 23.2537 121.586 22.8162 121.586 22.2897V13.6818ZM131.189 24.4999V15.7727H132.819V17.1931H132.927C133.109 16.7121 133.406 16.3371 133.819 16.0681C134.232 15.7954 134.727 15.659 135.302 15.659C135.886 15.659 136.374 15.7954 136.768 16.0681C137.166 16.3408 137.459 16.7158 137.649 17.1931H137.74C137.948 16.7272 138.28 16.356 138.734 16.0795C139.189 15.7992 139.73 15.659 140.359 15.659C141.151 15.659 141.797 15.9071 142.297 16.4033C142.8 16.8996 143.052 17.6477 143.052 18.6477V24.4999H141.353V18.8068C141.353 18.2158 141.192 17.7878 140.87 17.5227C140.549 17.2575 140.164 17.1249 139.717 17.1249C139.164 17.1249 138.734 17.2954 138.427 17.6363C138.12 17.9734 137.967 18.4071 137.967 18.9374V24.4999H136.274V18.6988C136.274 18.2253 136.126 17.8446 135.831 17.5568C135.535 17.2689 135.151 17.1249 134.677 17.1249C134.355 17.1249 134.058 17.2102 133.785 17.3806C133.516 17.5473 133.299 17.7802 133.132 18.0795C132.969 18.3787 132.888 18.7253 132.888 19.1193V24.4999H131.189ZM149.091 24.6761C148.231 24.6761 147.49 24.4924 146.869 24.1249C146.252 23.7537 145.774 23.2329 145.437 22.5624C145.104 21.8882 144.937 21.0984 144.937 20.1931C144.937 19.2992 145.104 18.5113 145.437 17.8295C145.774 17.1477 146.244 16.6155 146.846 16.2329C147.452 15.8503 148.161 15.659 148.971 15.659C149.464 15.659 149.941 15.7405 150.403 15.9033C150.865 16.0662 151.28 16.3219 151.647 16.6704C152.015 17.0189 152.305 17.4715 152.517 18.0283C152.729 18.5814 152.835 19.2537 152.835 20.0454V20.6477H145.897V19.3749H151.17C151.17 18.928 151.079 18.5321 150.897 18.1874C150.716 17.839 150.46 17.5643 150.13 17.3636C149.805 17.1628 149.422 17.0624 148.983 17.0624C148.505 17.0624 148.089 17.1799 147.733 17.4147C147.38 17.6458 147.108 17.9488 146.915 18.3238C146.725 18.695 146.63 19.0984 146.63 19.534V20.5283C146.63 21.1117 146.733 21.6079 146.937 22.017C147.146 22.4261 147.435 22.7386 147.807 22.9545C148.178 23.1666 148.611 23.2727 149.108 23.2727C149.43 23.2727 149.723 23.2272 149.988 23.1363C150.254 23.0416 150.483 22.9015 150.676 22.7158C150.869 22.5302 151.017 22.3011 151.119 22.0283L152.727 22.3181C152.598 22.7916 152.367 23.2064 152.034 23.5624C151.704 23.9147 151.29 24.1893 150.79 24.3863C150.293 24.5795 149.727 24.6761 149.091 24.6761ZM162.63 24.6761C161.812 24.6761 161.098 24.4886 160.488 24.1136C159.879 23.7386 159.405 23.2139 159.068 22.5397C158.731 21.8655 158.562 21.0776 158.562 20.1761C158.562 19.2708 158.731 18.4791 159.068 17.8011C159.405 17.123 159.879 16.5965 160.488 16.2215C161.098 15.8465 161.812 15.659 162.63 15.659C163.449 15.659 164.163 15.8465 164.772 16.2215C165.382 16.5965 165.856 17.123 166.193 17.8011C166.53 18.4791 166.699 19.2708 166.699 20.1761C166.699 21.0776 166.53 21.8655 166.193 22.5397C165.856 23.2139 165.382 23.7386 164.772 24.1136C164.163 24.4886 163.449 24.6761 162.63 24.6761ZM162.636 23.2499C163.166 23.2499 163.606 23.1098 163.954 22.8295C164.303 22.5492 164.56 22.1761 164.727 21.7102C164.897 21.2443 164.983 20.731 164.983 20.1704C164.983 19.6136 164.897 19.1022 164.727 18.6363C164.56 18.1666 164.303 17.7897 163.954 17.5056C163.606 17.2215 163.166 17.0795 162.636 17.0795C162.102 17.0795 161.659 17.2215 161.307 17.5056C160.958 17.7897 160.699 18.1666 160.528 18.6363C160.361 19.1022 160.278 19.6136 160.278 20.1704C160.278 20.731 160.361 21.2443 160.528 21.7102C160.699 22.1761 160.958 22.5492 161.307 22.8295C161.659 23.1098 162.102 23.2499 162.636 23.2499ZM170.294 19.3181V24.4999H168.595V15.7727H170.226V17.1931H170.334C170.534 16.731 170.849 16.3598 171.277 16.0795C171.709 15.7992 172.252 15.659 172.907 15.659C173.502 15.659 174.023 15.784 174.47 16.034C174.917 16.2802 175.263 16.6477 175.51 17.1363C175.756 17.6249 175.879 18.2291 175.879 18.9488V24.4999H174.18V19.1533C174.18 18.5208 174.015 18.0265 173.686 17.6704C173.356 17.3105 172.904 17.1306 172.328 17.1306C171.934 17.1306 171.584 17.2158 171.277 17.3863C170.974 17.5568 170.733 17.8068 170.555 18.1363C170.381 18.4621 170.294 18.856 170.294 19.3181Z" fill="#E8E8E8"/>
<path d="M64.9355 43.4999V31.1363H67.9238V36.3643H68.0868L72.1738 31.1363H75.6933L71.3105 36.6541L75.7718 43.4999H72.1979L69.1191 38.6402L67.9238 40.1494V43.4999H64.9355ZM80.5198 43.675C79.5459 43.675 78.7087 43.4758 78.0085 43.0773C77.3122 42.6749 76.7749 42.1155 76.3966 41.3991C76.0223 40.6787 75.8352 39.8436 75.8352 38.8938C75.8352 37.9399 76.0223 37.1048 76.3966 36.3884C76.7749 35.668 77.3122 35.1086 78.0085 34.7102C78.7087 34.3077 79.5459 34.1065 80.5198 34.1065C81.4938 34.1065 82.3289 34.3077 83.0251 34.7102C83.7254 35.1086 84.2627 35.668 84.637 36.3884C85.0153 37.1048 85.2045 37.9399 85.2045 38.8938C85.2045 39.8436 85.0153 40.6787 84.637 41.3991C84.2627 42.1155 83.7254 42.6749 83.0251 43.0773C82.3289 43.4758 81.4938 43.675 80.5198 43.675ZM80.5379 41.4474C80.8921 41.4474 81.1919 41.3387 81.4374 41.1214C81.6829 40.9041 81.8701 40.6022 81.9989 40.2158C82.1317 39.8295 82.1981 39.3827 82.1981 38.8756C82.1981 38.3605 82.1317 37.9097 81.9989 37.5234C81.8701 37.137 81.6829 36.8352 81.4374 36.6178C81.1919 36.4005 80.8921 36.2918 80.5379 36.2918C80.1717 36.2918 79.8618 36.4005 79.6082 36.6178C79.3587 36.8352 79.1675 37.137 79.0347 37.5234C78.9059 37.9097 78.8415 38.3605 78.8415 38.8756C78.8415 39.3827 78.9059 39.8295 79.0347 40.2158C79.1675 40.6022 79.3587 40.9041 79.6082 41.1214C79.8618 41.3387 80.1717 41.4474 80.5379 41.4474ZM92.651 37.3604V39.6363H86.928V37.3604H92.651ZM100.006 34.2272V36.4005H94.041V34.2272H100.006ZM95.2846 43.4999V33.7563C95.2846 33.0399 95.4195 32.4463 95.6891 31.9754C95.9588 31.5005 96.3331 31.1464 96.812 30.9129C97.2909 30.6755 97.8443 30.5568 98.4721 30.5568C98.8826 30.5568 99.269 30.589 99.6312 30.6533C99.9975 30.7137 100.269 30.768 100.446 30.8163L99.9753 32.9776C99.8667 32.9413 99.7339 32.9112 99.5769 32.887C99.424 32.8629 99.2791 32.8508 99.1422 32.8508C98.7961 32.8508 98.5587 32.9273 98.4299 33.0802C98.3011 33.2331 98.2367 33.4424 98.2367 33.708V43.4999H95.2846ZM101.426 43.4999V34.2272H104.378V43.4999H101.426ZM102.905 33.1466C102.49 33.1466 102.134 33.0098 101.836 32.7361C101.538 32.4584 101.389 32.1243 101.389 31.734C101.389 31.3476 101.538 31.0176 101.836 30.7439C102.134 30.4662 102.49 30.3274 102.905 30.3274C103.323 30.3274 103.679 30.4662 103.973 30.7439C104.271 31.0176 104.42 31.3476 104.42 31.734C104.42 32.1243 104.271 32.4584 103.973 32.7361C103.679 33.0098 103.323 33.1466 102.905 33.1466Z" fill="#29ABE0"/>
</g>
<rect x="1.04976" y="1.04994" width="187.9" height="53.9" rx="6.95" stroke="white" stroke-opacity="0.15" stroke-width="2.1"/>
<defs>
<filter id="filter0_d_28_482" x="5.49177" y="2.28565" width="55.873" height="51.4286" filterUnits="userSpaceOnUse" color-interpolation-filters="sRGB">
<feFlood flood-opacity="0" result="BackgroundImageFix"/>
<feColorMatrix in="SourceAlpha" type="matrix" values="0 0 0 0 0 0 0 0 0 0 0 0 0 0 0 0 0 0 127 0" result="hardAlpha"/>
<feOffset/>
<feGaussianBlur stdDeviation="2.85714"/>
<feComposite in2="hardAlpha" operator="out"/>
<feColorMatrix type="matrix" values="0 0 0 0 0 0 0 0 0 0 0 0 0 0 0 0 0 0 0.25 0"/>
<feBlend mode="normal" in2="BackgroundImageFix" result="effect1_dropShadow_28_482"/>
<feBlend mode="normal" in="SourceGraphic" in2="effect1_dropShadow_28_482" result="shape"/>
</filter>
<filter id="filter1_d_28_482" x="58.3998" y="3.89994" width="125.2" height="48.2" filterUnits="userSpaceOnUse" color-interpolation-filters="sRGB">
<feFlood flood-opacity="0" result="BackgroundImageFix"/>
<feColorMatrix in="SourceAlpha" type="matrix" values="0 0 0 0 0 0 0 0 0 0 0 0 0 0 0 0 0 0 127 0" result="hardAlpha"/>
<feOffset/>
<feGaussianBlur stdDeviation="2.8"/>
<feComposite in2="hardAlpha" operator="out"/>
<feColorMatrix type="matrix" values="0 0 0 0 0 0 0 0 0 0 0 0 0 0 0 0 0 0 0.25 0"/>
<feBlend mode="normal" in2="BackgroundImageFix" result="effect1_dropShadow_28_482"/>
<feBlend mode="normal" in="SourceGraphic" in2="effect1_dropShadow_28_482" result="shape"/>
</filter>
<linearGradient id="paint0_linear_28_482" x1="94.9997" y1="-6.10351e-05" x2="94.9997" y2="55.9999" gradientUnits="userSpaceOnUse">
<stop stop-color="#002634"/>
<stop offset="1" stop-color="#00161F"/>
</linearGradient>
</defs>
</svg>
