<svg width="184" height="56" viewBox="0 0 184 56" fill="none" xmlns="http://www.w3.org/2000/svg">
<rect x="-0.000244141" y="-0.000183105" width="184" height="56" rx="8" fill="url(#paint0_linear_28_523)"/>
<g filter="url(#filter0_d_28_523)">
<path d="M15.5715 12.2857V43.7144H21.3489V12.2857H15.5715ZM36.6343 12.2857C30.1122 12.2857 24.8044 17.5784 24.8044 24.0851C24.8044 30.5714 30.1122 35.8477 36.6343 35.8477C43.1373 35.8477 48.4287 30.5714 48.4287 24.0851C48.4287 17.5784 43.1387 12.2857 36.6343 12.2857Z" fill="#FF424E"/>
</g>
<g filter="url(#filter1_d_28_523)">
<path d="M71.6248 15.9203C71.5641 15.3824 71.3141 14.9657 70.8748 14.6703C70.4354 14.371 69.8823 14.2214 69.2157 14.2214C68.7384 14.2214 68.3255 14.2972 67.977 14.4487C67.6285 14.5964 67.3577 14.801 67.1645 15.0623C66.9751 15.3199 66.8804 15.6135 66.8804 15.943C66.8804 16.2195 66.9448 16.4581 67.0736 16.6589C67.2062 16.8597 67.3785 17.0282 67.5907 17.1646C67.8066 17.2972 68.0376 17.4089 68.2838 17.4998C68.5301 17.5869 68.7668 17.6589 68.9941 17.7157L70.1304 18.0112C70.5016 18.1021 70.8823 18.2252 71.2725 18.3805C71.6626 18.5358 72.0244 18.7403 72.3577 18.9941C72.691 19.2479 72.96 19.5623 73.1645 19.9373C73.3729 20.3123 73.477 20.7612 73.477 21.2839C73.477 21.943 73.3066 22.5282 72.9657 23.0396C72.6285 23.5509 72.138 23.9544 71.4941 24.2498C70.8539 24.5453 70.0793 24.693 69.1702 24.693C68.299 24.693 67.5452 24.5547 66.9088 24.2782C66.2725 24.0017 65.7744 23.6097 65.4145 23.1021C65.0547 22.5907 64.8558 21.9847 64.8179 21.2839H66.5793C66.6134 21.7044 66.7498 22.0547 66.9884 22.335C67.2308 22.6116 67.5395 22.818 67.9145 22.9544C68.2933 23.0869 68.7081 23.1532 69.1588 23.1532C69.6551 23.1532 70.0963 23.0756 70.4827 22.9203C70.8729 22.7612 71.1797 22.5415 71.4032 22.2612C71.6266 21.9771 71.7384 21.6456 71.7384 21.2669C71.7384 20.9222 71.6399 20.64 71.4429 20.4203C71.2498 20.2006 70.9865 20.0188 70.6532 19.8748C70.3236 19.7309 69.9505 19.604 69.5338 19.4941L68.1588 19.1191C67.227 18.8653 66.4884 18.4922 65.9429 17.9998C65.4013 17.5074 65.1304 16.8559 65.1304 16.0453C65.1304 15.3748 65.3123 14.7896 65.6759 14.2896C66.0395 13.7896 66.532 13.4013 67.1532 13.1248C67.7744 12.8445 68.4751 12.7044 69.2554 12.7044C70.0433 12.7044 70.7384 12.8426 71.3407 13.1191C71.9467 13.3956 72.424 13.7763 72.7725 14.2612C73.121 14.7422 73.3028 15.2953 73.3179 15.9203H71.6248ZM80.9671 20.8805V15.7725H82.6716V24.4998H81.0012V22.9884H80.9103C80.7095 23.4544 80.3875 23.8426 79.9444 24.1532C79.505 24.46 78.9576 24.6134 78.3023 24.6134C77.7417 24.6134 77.2455 24.4903 76.8137 24.2441C76.3856 23.9941 76.0485 23.6248 75.8023 23.1362C75.5599 22.6475 75.4387 22.0434 75.4387 21.3237V15.7725H77.1375V21.1191C77.1375 21.7138 77.3023 22.1873 77.6319 22.5396C77.9614 22.8919 78.3894 23.068 78.9159 23.068C79.2341 23.068 79.5504 22.9884 79.8648 22.8294C80.183 22.6703 80.4462 22.4297 80.6546 22.1078C80.8667 21.7858 80.9709 21.3767 80.9671 20.8805ZM84.9543 27.7725V15.7725H86.6134V17.1873H86.7554C86.8539 17.0055 86.996 16.7953 87.1816 16.5566C87.3672 16.318 87.6247 16.1097 87.9543 15.9316C88.2838 15.7498 88.7194 15.6589 89.2611 15.6589C89.9657 15.6589 90.5944 15.8369 91.1475 16.193C91.7005 16.5491 92.1342 17.0623 92.4486 17.7328C92.7668 18.4032 92.9259 19.21 92.9259 20.1532C92.9259 21.0964 92.7687 21.9051 92.4543 22.5794C92.1399 23.2498 91.7081 23.7669 91.1588 24.1305C90.6096 24.4903 89.9827 24.6703 89.2782 24.6703C88.7479 24.6703 88.3141 24.5813 87.977 24.4032C87.6437 24.2252 87.3823 24.0169 87.1929 23.7782C87.0035 23.5396 86.8577 23.3275 86.7554 23.1419H86.6532V27.7725H84.9543ZM86.6191 20.1362C86.6191 20.7498 86.7081 21.2877 86.8861 21.7498C87.0641 22.2119 87.3217 22.5737 87.6588 22.835C87.996 23.0926 88.4088 23.2214 88.8975 23.2214C89.4051 23.2214 89.8293 23.0869 90.1702 22.818C90.5111 22.5453 90.7687 22.1759 90.9429 21.71C91.121 21.2441 91.21 20.7195 91.21 20.1362C91.21 19.5604 91.1229 19.0434 90.9486 18.585C90.7782 18.1267 90.5206 17.765 90.1759 17.4998C89.835 17.2347 89.4088 17.1021 88.8975 17.1021C88.4051 17.1021 87.9884 17.229 87.6475 17.4828C87.3104 17.7366 87.0547 18.0907 86.8804 18.5453C86.7062 18.9998 86.6191 19.5301 86.6191 20.1362ZM94.8293 27.7725V15.7725H96.4884V17.1873H96.6304C96.7289 17.0055 96.871 16.7953 97.0566 16.5566C97.2422 16.318 97.4997 16.1097 97.8293 15.9316C98.1588 15.7498 98.5944 15.6589 99.1361 15.6589C99.8407 15.6589 100.469 15.8369 101.022 16.193C101.576 16.5491 102.009 17.0623 102.324 17.7328C102.642 18.4032 102.801 19.21 102.801 20.1532C102.801 21.0964 102.644 21.9051 102.329 22.5794C102.015 23.2498 101.583 23.7669 101.034 24.1305C100.485 24.4903 99.8577 24.6703 99.1532 24.6703C98.6229 24.6703 98.1891 24.5813 97.852 24.4032C97.5187 24.2252 97.2573 24.0169 97.0679 23.7782C96.8785 23.5396 96.7327 23.3275 96.6304 23.1419H96.5282V27.7725H94.8293ZM96.4941 20.1362C96.4941 20.7498 96.5831 21.2877 96.7611 21.7498C96.9391 22.2119 97.1967 22.5737 97.5338 22.835C97.871 23.0926 98.2838 23.2214 98.7725 23.2214C99.28 23.2214 99.7043 23.0869 100.045 22.818C100.386 22.5453 100.644 22.1759 100.818 21.71C100.996 21.2441 101.085 20.7195 101.085 20.1362C101.085 19.5604 100.998 19.0434 100.824 18.585C100.653 18.1267 100.396 17.765 100.051 17.4998C99.71 17.2347 99.2838 17.1021 98.7725 17.1021C98.28 17.1021 97.8634 17.229 97.5225 17.4828C97.1854 17.7366 96.9297 18.0907 96.7554 18.5453C96.5812 18.9998 96.4941 19.5301 96.4941 20.1362ZM108.38 24.6759C107.562 24.6759 106.848 24.4884 106.238 24.1134C105.629 23.7384 105.155 23.2138 104.818 22.5396C104.481 21.8653 104.312 21.0775 104.312 20.1759C104.312 19.2706 104.481 18.479 104.818 17.801C105.155 17.1229 105.629 16.5964 106.238 16.2214C106.848 15.8464 107.562 15.6589 108.38 15.6589C109.199 15.6589 109.913 15.8464 110.522 16.2214C111.132 16.5964 111.606 17.1229 111.943 17.801C112.28 18.479 112.449 19.2706 112.449 20.1759C112.449 21.0775 112.28 21.8653 111.943 22.5396C111.606 23.2138 111.132 23.7384 110.522 24.1134C109.913 24.4884 109.199 24.6759 108.38 24.6759ZM108.386 23.2498C108.916 23.2498 109.356 23.1097 109.704 22.8294C110.053 22.5491 110.31 22.1759 110.477 21.71C110.647 21.2441 110.733 20.7309 110.733 20.1703C110.733 19.6135 110.647 19.1021 110.477 18.6362C110.31 18.1665 110.053 17.7896 109.704 17.5055C109.356 17.2214 108.916 17.0794 108.386 17.0794C107.852 17.0794 107.409 17.2214 107.057 17.5055C106.708 17.7896 106.449 18.1665 106.278 18.6362C106.111 19.1021 106.028 19.6135 106.028 20.1703C106.028 20.7309 106.111 21.2441 106.278 21.71C106.449 22.1759 106.708 22.5491 107.057 22.8294C107.409 23.1097 107.852 23.2498 108.386 23.2498ZM114.345 24.4998V15.7725H115.987V17.1589H116.078C116.237 16.6892 116.517 16.3199 116.919 16.051C117.324 15.7782 117.782 15.6419 118.294 15.6419C118.4 15.6419 118.525 15.6456 118.669 15.6532C118.817 15.6608 118.932 15.6703 119.015 15.6816V17.3066C118.947 17.2877 118.826 17.2669 118.652 17.2441C118.477 17.2176 118.303 17.2044 118.129 17.2044C117.727 17.2044 117.37 17.2896 117.055 17.46C116.745 17.6267 116.498 17.8597 116.317 18.1589C116.135 18.4544 116.044 18.7915 116.044 19.1703V24.4998H114.345ZM125.075 15.7725V17.1362H120.308V15.7725H125.075ZM121.586 13.6816H123.285V21.9373C123.285 22.2669 123.334 22.515 123.433 22.6816C123.531 22.8445 123.658 22.9563 123.814 23.0169C123.973 23.0737 124.145 23.1021 124.331 23.1021C124.467 23.1021 124.586 23.0926 124.689 23.0737C124.791 23.0547 124.87 23.0396 124.927 23.0282L125.234 24.4316C125.136 24.4695 124.995 24.5074 124.814 24.5453C124.632 24.5869 124.405 24.6097 124.132 24.6134C123.685 24.621 123.268 24.5415 122.882 24.3748C122.495 24.2081 122.183 23.9506 121.944 23.6021C121.706 23.2536 121.586 22.8161 121.586 22.2896V13.6816ZM136.717 20.8805V15.7725H138.422V24.4998H136.751V22.9884H136.66C136.459 23.4544 136.138 23.8426 135.694 24.1532C135.255 24.46 134.708 24.6134 134.052 24.6134C133.492 24.6134 132.995 24.4903 132.564 24.2441C132.136 23.9941 131.799 23.6248 131.552 23.1362C131.31 22.6475 131.189 22.0434 131.189 21.3237V15.7725H132.888V21.1191C132.888 21.7138 133.052 22.1873 133.382 22.5396C133.711 22.8919 134.139 23.068 134.666 23.068C134.984 23.068 135.3 22.9884 135.615 22.8294C135.933 22.6703 136.196 22.4297 136.405 22.1078C136.617 21.7858 136.721 21.3767 136.717 20.8805ZM147.244 17.9032L145.704 18.176C145.64 17.979 145.538 17.7915 145.397 17.6135C145.261 17.4354 145.075 17.2896 144.841 17.176C144.606 17.0623 144.312 17.0055 143.96 17.0055C143.479 17.0055 143.077 17.1135 142.755 17.3294C142.433 17.5415 142.272 17.8161 142.272 18.1532C142.272 18.4449 142.38 18.6797 142.596 18.8578C142.812 19.0358 143.161 19.1816 143.642 19.2953L145.028 19.6134C145.831 19.7991 146.43 20.085 146.824 20.4714C147.218 20.8578 147.415 21.3597 147.415 21.9771C147.415 22.4998 147.263 22.9657 146.96 23.3748C146.661 23.7801 146.242 24.0983 145.704 24.3294C145.17 24.5604 144.551 24.6759 143.846 24.6759C142.869 24.6759 142.072 24.4676 141.454 24.0509C140.837 23.6305 140.458 23.0339 140.318 22.2612L141.96 22.0112C142.062 22.4392 142.272 22.7631 142.591 22.9828C142.909 23.1987 143.324 23.3066 143.835 23.3066C144.392 23.3066 144.837 23.1911 145.17 22.96C145.504 22.7252 145.67 22.4392 145.67 22.1021C145.67 21.8294 145.568 21.6002 145.363 21.4146C145.163 21.229 144.854 21.0888 144.437 20.9941L142.96 20.6703C142.146 20.4847 141.543 20.1892 141.153 19.7839C140.767 19.3786 140.574 18.8653 140.574 18.2441C140.574 17.729 140.718 17.2782 141.005 16.8919C141.293 16.5055 141.691 16.2044 142.199 15.9885C142.706 15.7688 143.288 15.6589 143.943 15.6589C144.886 15.6589 145.629 15.8635 146.17 16.2725C146.712 16.6778 147.07 17.2214 147.244 17.9032ZM157.193 24.6759C156.375 24.6759 155.661 24.4884 155.051 24.1134C154.441 23.7384 153.968 23.2138 153.63 22.5396C153.293 21.8653 153.125 21.0775 153.125 20.1759C153.125 19.2706 153.293 18.479 153.63 17.801C153.968 17.1229 154.441 16.5964 155.051 16.2214C155.661 15.8464 156.375 15.6589 157.193 15.6589C158.011 15.6589 158.725 15.8464 159.335 16.2214C159.945 16.5964 160.418 17.1229 160.755 17.801C161.093 18.479 161.261 19.2706 161.261 20.1759C161.261 21.0775 161.093 21.8653 160.755 22.5396C160.418 23.2138 159.945 23.7384 159.335 24.1134C158.725 24.4884 158.011 24.6759 157.193 24.6759ZM157.199 23.2498C157.729 23.2498 158.168 23.1097 158.517 22.8294C158.865 22.5491 159.123 22.1759 159.29 21.71C159.46 21.2441 159.545 20.7309 159.545 20.1703C159.545 19.6135 159.46 19.1021 159.29 18.6362C159.123 18.1665 158.865 17.7896 158.517 17.5055C158.168 17.2214 157.729 17.0794 157.199 17.0794C156.665 17.0794 156.221 17.2214 155.869 17.5055C155.521 17.7896 155.261 18.1665 155.091 18.6362C154.924 19.1021 154.841 19.6135 154.841 20.1703C154.841 20.7309 154.924 21.2441 155.091 21.71C155.261 22.1759 155.521 22.5491 155.869 22.8294C156.221 23.1097 156.665 23.2498 157.199 23.2498ZM164.856 19.318V24.4998H163.157V15.7725H164.788V17.193H164.896C165.097 16.7309 165.411 16.3597 165.839 16.0794C166.271 15.7991 166.815 15.6589 167.47 15.6589C168.065 15.6589 168.585 15.7839 169.032 16.0339C169.479 16.2801 169.826 16.6475 170.072 17.1362C170.318 17.6248 170.441 18.229 170.441 18.9487V24.4998H168.743V19.1532C168.743 18.5206 168.578 18.0263 168.248 17.6703C167.919 17.3104 167.466 17.1305 166.89 17.1305C166.496 17.1305 166.146 17.2157 165.839 17.3862C165.536 17.5566 165.296 17.8066 165.118 18.1362C164.943 18.4619 164.856 18.8559 164.856 19.318Z" fill="#E8E8E8"/>
<path d="M64.9355 43.4998V31.1362H70.0427C70.9684 31.1362 71.7673 31.3173 72.4394 31.6795C73.1155 32.0377 73.6367 32.5388 74.0029 33.1827C74.3692 33.8226 74.5523 34.5672 74.5523 35.4164C74.5523 36.2696 74.3652 37.0161 73.9909 37.6561C73.6206 38.292 73.0914 38.785 72.4032 39.1351C71.715 39.4853 70.898 39.6603 69.9522 39.6603H66.8009V37.3059H69.3968C69.8475 37.3059 70.2238 37.2274 70.5257 37.0705C70.8315 36.9135 71.063 36.6942 71.2199 36.4125C71.3769 36.1267 71.4554 35.7947 71.4554 35.4164C71.4554 35.034 71.3769 34.704 71.2199 34.4263C71.063 34.1446 70.8315 33.9273 70.5257 33.7743C70.2198 33.6214 69.8435 33.5449 69.3968 33.5449H67.9238V43.4998H64.9355ZM78.3073 43.6568C77.7157 43.6568 77.1904 43.5582 76.7316 43.361C76.2769 43.1597 75.9167 42.8579 75.651 42.4554C75.3894 42.0489 75.2586 41.5398 75.2586 40.9281C75.2586 40.4129 75.3492 39.9783 75.5303 39.6241C75.7114 39.2699 75.9609 38.9822 76.2789 38.7608C76.5968 38.5395 76.9631 38.3724 77.3776 38.2598C77.7921 38.143 78.2348 38.0646 78.7057 38.0243C79.2329 37.976 79.6575 37.9257 79.9795 37.8734C80.3015 37.817 80.5349 37.7386 80.6798 37.638C80.8287 37.5333 80.9032 37.3864 80.9032 37.1973V37.1671C80.9032 36.8572 80.7965 36.6177 80.5832 36.4487C80.3699 36.2796 80.0821 36.1951 79.7199 36.1951C79.3295 36.1951 79.0156 36.2796 78.7782 36.4487C78.5407 36.6177 78.3898 36.8511 78.3254 37.149L75.6027 37.0524C75.6832 36.4889 75.8905 35.9858 76.2245 35.5431C76.5626 35.0964 77.0254 34.7463 77.613 34.4927C78.2047 34.2351 78.915 34.1063 79.7441 34.1063C80.3357 34.1063 80.881 34.1768 81.3801 34.3176C81.8791 34.4545 82.3138 34.6557 82.6841 34.9213C83.0543 35.1829 83.3401 35.5049 83.5413 35.8872C83.7466 36.2696 83.8492 36.7063 83.8492 37.1973V43.4998H81.0722V42.2079H80.9998C80.8347 42.5218 80.6234 42.7875 80.3659 43.0048C80.1123 43.2221 79.8125 43.3851 79.4664 43.4938C79.1243 43.6024 78.7379 43.6568 78.3073 43.6568ZM79.2189 41.725C79.5368 41.725 79.8225 41.6606 80.0761 41.5318C80.3337 41.403 80.5389 41.2259 80.6919 41.0005C80.8448 40.7711 80.9213 40.5055 80.9213 40.2036V39.3223C80.8368 39.3665 80.7341 39.4068 80.6134 39.443C80.4967 39.4792 80.3679 39.5134 80.227 39.5456C80.0862 39.5778 79.9413 39.606 79.7924 39.6301C79.6435 39.6543 79.5006 39.6764 79.3637 39.6965C79.086 39.7408 78.8486 39.8092 78.6514 39.9018C78.4582 39.9944 78.3093 40.1151 78.2047 40.264C78.104 40.4089 78.0537 40.582 78.0537 40.7832C78.0537 41.0891 78.1624 41.3225 78.3797 41.4835C78.6011 41.6445 78.8808 41.725 79.2189 41.725ZM90.8882 34.2271V36.4004H85.0385V34.2271H90.8882ZM86.264 32.0055H89.216V40.584C89.216 40.7651 89.2442 40.912 89.3005 41.0247C89.3609 41.1333 89.4474 41.2118 89.5601 41.2601C89.6728 41.3044 89.8076 41.3265 89.9646 41.3265C90.0773 41.3265 90.196 41.3165 90.3208 41.2963C90.4496 41.2722 90.5461 41.2521 90.6105 41.236L91.0573 43.367C90.9164 43.4072 90.7172 43.4576 90.4596 43.5179C90.2061 43.5783 89.9022 43.6165 89.548 43.6326C88.8558 43.6648 88.2622 43.5843 87.7671 43.3911C87.2761 43.1939 86.8998 42.8881 86.6382 42.4735C86.3807 42.059 86.2559 41.5378 86.264 40.91V32.0055ZM92.3945 43.4998V34.2271H95.262V35.9174H95.3586C95.5276 35.3057 95.8033 34.8509 96.1856 34.5531C96.568 34.2512 97.0127 34.1003 97.5198 34.1003C97.6566 34.1003 97.7975 34.1104 97.9424 34.1305C98.0873 34.1466 98.2221 34.1728 98.3469 34.209V36.7747C98.206 36.7264 98.0209 36.6881 97.7915 36.66C97.5661 36.6318 97.3649 36.6177 97.1878 36.6177C96.8376 36.6177 96.5217 36.6962 96.24 36.8532C95.9623 37.0061 95.7429 37.2214 95.582 37.4991C95.425 37.7728 95.3465 38.0947 95.3465 38.465V43.4998H92.3945ZM103.403 43.6749C102.433 43.6749 101.596 43.4837 100.891 43.1014C100.191 42.715 99.6519 42.1657 99.2735 41.4533C98.8992 40.7369 98.7121 39.8857 98.7121 38.8997C98.7121 37.9418 98.9013 37.1047 99.2796 36.3883C99.6579 35.6679 100.191 35.1085 100.879 34.71C101.568 34.3076 102.379 34.1063 103.312 34.1063C103.972 34.1063 104.576 34.209 105.123 34.4142C105.671 34.6195 106.144 34.9233 106.542 35.3258C106.94 35.7283 107.25 36.2253 107.472 36.8169C107.693 37.4045 107.804 38.0786 107.804 38.8393V39.5758H99.7444V37.8613H105.057C105.053 37.5474 104.978 37.2677 104.834 37.0222C104.689 36.7767 104.489 36.5855 104.236 36.4487C103.986 36.3078 103.699 36.2374 103.373 36.2374C103.043 36.2374 102.747 36.3118 102.485 36.4608C102.224 36.6056 102.016 36.8049 101.863 37.0584C101.71 37.3079 101.63 37.5917 101.622 37.9096V39.6543C101.622 40.0326 101.696 40.3646 101.845 40.6504C101.994 40.9321 102.205 41.1514 102.479 41.3084C102.753 41.4654 103.079 41.5438 103.457 41.5438C103.719 41.5438 103.956 41.5076 104.169 41.4352C104.383 41.3627 104.566 41.2561 104.719 41.1152C104.872 40.9744 104.986 40.8013 105.063 40.596L107.774 40.6745C107.661 41.2822 107.413 41.8115 107.031 42.2622C106.653 42.709 106.156 43.0571 105.54 43.3066C104.924 43.5521 104.212 43.6749 103.403 43.6749ZM113.64 43.6749C112.666 43.6749 111.829 43.4757 111.129 43.0772C110.432 42.6748 109.895 42.1153 109.517 41.399C109.142 40.6786 108.955 39.8434 108.955 38.8936C108.955 37.9398 109.142 37.1047 109.517 36.3883C109.895 35.6679 110.432 35.1085 111.129 34.71C111.829 34.3076 112.666 34.1063 113.64 34.1063C114.614 34.1063 115.449 34.3076 116.145 34.71C116.846 35.1085 117.383 35.6679 117.757 36.3883C118.135 37.1047 118.325 37.9398 118.325 38.8936C118.325 39.8434 118.135 40.6786 117.757 41.399C117.383 42.1153 116.846 42.6748 116.145 43.0772C115.449 43.4757 114.614 43.6749 113.64 43.6749ZM113.658 41.4473C114.012 41.4473 114.312 41.3386 114.558 41.1213C114.803 40.9039 114.99 40.6021 115.119 40.2157C115.252 39.8294 115.318 39.3826 115.318 38.8755C115.318 38.3604 115.252 37.9096 115.119 37.5233C114.99 37.1369 114.803 36.835 114.558 36.6177C114.312 36.4004 114.012 36.2917 113.658 36.2917C113.292 36.2917 112.982 36.4004 112.728 36.6177C112.479 36.835 112.288 37.1369 112.155 37.5233C112.026 37.9096 111.962 38.3604 111.962 38.8755C111.962 39.3826 112.026 39.8294 112.155 40.2157C112.288 40.6021 112.479 40.9039 112.728 41.1213C112.982 41.3386 113.292 41.4473 113.658 41.4473ZM122.789 38.2115V43.4998H119.837V34.2271H122.644V35.9295H122.747C122.952 35.362 123.302 34.9173 123.797 34.5953C124.292 34.2693 124.882 34.1063 125.566 34.1063C126.218 34.1063 126.783 34.2532 127.262 34.547C127.745 34.8368 128.119 35.2433 128.385 35.7665C128.655 36.2857 128.788 36.8934 128.784 37.5897V43.4998H125.832V38.1692C125.836 37.6541 125.705 37.2516 125.439 36.9618C125.178 36.672 124.813 36.5272 124.346 36.5272C124.037 36.5272 123.763 36.5956 123.525 36.7324C123.292 36.8652 123.111 37.0564 122.982 37.3059C122.857 37.5554 122.793 37.8573 122.789 38.2115Z" fill="#FF424E"/>
</g>
<rect x="1.04976" y="1.04982" width="181.9" height="53.9" rx="6.95" stroke="white" stroke-opacity="0.15" stroke-width="2.1"/>
<defs>
<filter id="filter0_d_28_523" x="6.28547" y="2.28553" width="51.4286" height="51.4286" filterUnits="userSpaceOnUse" color-interpolation-filters="sRGB">
<feFlood flood-opacity="0" result="BackgroundImageFix"/>
<feColorMatrix in="SourceAlpha" type="matrix" values="0 0 0 0 0 0 0 0 0 0 0 0 0 0 0 0 0 0 127 0" result="hardAlpha"/>
<feOffset/>
<feGaussianBlur stdDeviation="2.85714"/>
<feComposite in2="hardAlpha" operator="out"/>
<feColorMatrix type="matrix" values="0 0 0 0 0 0 0 0 0 0 0 0 0 0 0 0 0 0 0.25 0"/>
<feBlend mode="normal" in2="BackgroundImageFix" result="effect1_dropShadow_28_523"/>
<feBlend mode="normal" in="SourceGraphic" in2="effect1_dropShadow_28_523" result="shape"/>
</filter>
<filter id="filter1_d_28_523" x="58.3998" y="3.89982" width="119.2" height="48.2" filterUnits="userSpaceOnUse" color-interpolation-filters="sRGB">
<feFlood flood-opacity="0" result="BackgroundImageFix"/>
<feColorMatrix in="SourceAlpha" type="matrix" values="0 0 0 0 0 0 0 0 0 0 0 0 0 0 0 0 0 0 127 0" result="hardAlpha"/>
<feOffset/>
<feGaussianBlur stdDeviation="2.8"/>
<feComposite in2="hardAlpha" operator="out"/>
<feColorMatrix type="matrix" values="0 0 0 0 0 0 0 0 0 0 0 0 0 0 0 0 0 0 0.25 0"/>
<feBlend mode="normal" in2="BackgroundImageFix" result="effect1_dropShadow_28_523"/>
<feBlend mode="normal" in="SourceGraphic" in2="effect1_dropShadow_28_523" result="shape"/>
</filter>
<linearGradient id="paint0_linear_28_523" x1="91.9997" y1="-0.000183105" x2="91.9997" y2="55.9998" gradientUnits="userSpaceOnUse">
<stop stop-color="#300B0D"/>
<stop offset="1" stop-color="#210709"/>
</linearGradient>
</defs>
</svg>
