<svg width="180" height="56" viewBox="0 0 180 56" fill="none" xmlns="http://www.w3.org/2000/svg">
<rect x="-0.000244141" y="-0.000183105" width="180" height="56" rx="8" fill="url(#paint0_linear_28_523)"/>
<g filter="url(#filter0_d_28_523)">
<path d="M15.5715 12.2857V43.7144H21.3489V12.2857H15.5715ZM36.6343 12.2857C30.1122 12.2857 24.8044 17.5784 24.8044 24.0851C24.8044 30.5714 30.1122 35.8477 36.6343 35.8477C43.1373 35.8477 48.4287 30.5714 48.4287 24.0851C48.4287 17.5784 43.1387 12.2857 36.6343 12.2857Z" fill="#FF424E"/>
</g>
<g filter="url(#filter1_d_28_523)">
<path d="M67.6248 15.9203C67.5641 15.3824 67.3141 14.9657 66.8748 14.6703C66.4354 14.371 65.8823 14.2214 65.2157 14.2214C64.7384 14.2214 64.3255 14.2972 63.977 14.4487C63.6285 14.5964 63.3577 14.801 63.1645 15.0623C62.9751 15.3199 62.8804 15.6135 62.8804 15.943C62.8804 16.2195 62.9448 16.4581 63.0736 16.6589C63.2062 16.8597 63.3785 17.0282 63.5907 17.1646C63.8066 17.2972 64.0376 17.4089 64.2838 17.4998C64.5301 17.5869 64.7668 17.6589 64.9941 17.7157L66.1304 18.0112C66.5016 18.1021 66.8823 18.2252 67.2725 18.3805C67.6626 18.5358 68.0244 18.7403 68.3577 18.9941C68.691 19.2479 68.96 19.5623 69.1645 19.9373C69.3729 20.3123 69.477 20.7612 69.477 21.2839C69.477 21.943 69.3066 22.5282 68.9657 23.0396C68.6285 23.5509 68.138 23.9544 67.4941 24.2498C66.8539 24.5453 66.0793 24.693 65.1702 24.693C64.299 24.693 63.5452 24.5547 62.9088 24.2782C62.2725 24.0017 61.7744 23.6097 61.4145 23.1021C61.0547 22.5907 60.8558 21.9847 60.8179 21.2839H62.5793C62.6134 21.7044 62.7498 22.0547 62.9884 22.335C63.2308 22.6116 63.5395 22.818 63.9145 22.9544C64.2933 23.0869 64.7081 23.1532 65.1588 23.1532C65.6551 23.1532 66.0963 23.0756 66.4827 22.9203C66.8729 22.7612 67.1797 22.5415 67.4032 22.2612C67.6266 21.9771 67.7384 21.6456 67.7384 21.2669C67.7384 20.9222 67.6399 20.64 67.4429 20.4203C67.2498 20.2006 66.9865 20.0188 66.6532 19.8748C66.3236 19.7309 65.9505 19.604 65.5338 19.4941L64.1588 19.1191C63.227 18.8653 62.4884 18.4922 61.9429 17.9998C61.4013 17.5074 61.1304 16.8559 61.1304 16.0453C61.1304 15.3748 61.3123 14.7896 61.6759 14.2896C62.0395 13.7896 62.532 13.4013 63.1532 13.1248C63.7744 12.8445 64.4751 12.7044 65.2554 12.7044C66.0433 12.7044 66.7384 12.8426 67.3407 13.1191C67.9467 13.3956 68.424 13.7763 68.7725 14.2612C69.121 14.7422 69.3028 15.2953 69.3179 15.9203H67.6248ZM76.9671 20.8805V15.7725H78.6716V24.4998H77.0012V22.9884H76.9103C76.7095 23.4544 76.3875 23.8426 75.9444 24.1532C75.505 24.46 74.9576 24.6134 74.3023 24.6134C73.7417 24.6134 73.2455 24.4903 72.8137 24.2441C72.3856 23.9941 72.0485 23.6248 71.8023 23.1362C71.5599 22.6475 71.4387 22.0434 71.4387 21.3237V15.7725H73.1375V21.1191C73.1375 21.7138 73.3023 22.1873 73.6319 22.5396C73.9614 22.8919 74.3894 23.068 74.9159 23.068C75.2341 23.068 75.5504 22.9884 75.8648 22.8294C76.183 22.6703 76.4462 22.4297 76.6546 22.1078C76.8667 21.7858 76.9709 21.3767 76.9671 20.8805ZM80.9543 27.7725V15.7725H82.6134V17.1873H82.7554C82.8539 17.0055 82.996 16.7953 83.1816 16.5566C83.3672 16.318 83.6247 16.1097 83.9543 15.9316C84.2838 15.7498 84.7194 15.6589 85.2611 15.6589C85.9657 15.6589 86.5944 15.8369 87.1475 16.193C87.7005 16.5491 88.1342 17.0623 88.4486 17.7328C88.7668 18.4032 88.9259 19.21 88.9259 20.1532C88.9259 21.0964 88.7687 21.9051 88.4543 22.5794C88.1399 23.2498 87.7081 23.7669 87.1588 24.1305C86.6096 24.4903 85.9827 24.6703 85.2782 24.6703C84.7479 24.6703 84.3141 24.5813 83.977 24.4032C83.6437 24.2252 83.3823 24.0169 83.1929 23.7782C83.0035 23.5396 82.8577 23.3275 82.7554 23.1419H82.6532V27.7725H80.9543ZM82.6191 20.1362C82.6191 20.7498 82.7081 21.2877 82.8861 21.7498C83.0641 22.2119 83.3217 22.5737 83.6588 22.835C83.996 23.0926 84.4088 23.2214 84.8975 23.2214C85.4051 23.2214 85.8293 23.0869 86.1702 22.818C86.5111 22.5453 86.7687 22.1759 86.9429 21.71C87.121 21.2441 87.21 20.7195 87.21 20.1362C87.21 19.5604 87.1229 19.0434 86.9486 18.585C86.7782 18.1267 86.5206 17.765 86.1759 17.4998C85.835 17.2347 85.4088 17.1021 84.8975 17.1021C84.4051 17.1021 83.9884 17.229 83.6475 17.4828C83.3104 17.7366 83.0547 18.0907 82.8804 18.5453C82.7062 18.9998 82.6191 19.5301 82.6191 20.1362ZM90.8293 27.7725V15.7725H92.4884V17.1873H92.6304C92.7289 17.0055 92.871 16.7953 93.0566 16.5566C93.2422 16.318 93.4997 16.1097 93.8293 15.9316C94.1588 15.7498 94.5944 15.6589 95.1361 15.6589C95.8407 15.6589 96.4694 15.8369 97.0225 16.193C97.5755 16.5491 98.0092 17.0623 98.3236 17.7328C98.6418 18.4032 98.8009 19.21 98.8009 20.1532C98.8009 21.0964 98.6437 21.9051 98.3293 22.5794C98.0149 23.2498 97.5831 23.7669 97.0338 24.1305C96.4846 24.4903 95.8577 24.6703 95.1532 24.6703C94.6229 24.6703 94.1891 24.5813 93.852 24.4032C93.5187 24.2252 93.2573 24.0169 93.0679 23.7782C92.8785 23.5396 92.7327 23.3275 92.6304 23.1419H92.5282V27.7725H90.8293ZM92.4941 20.1362C92.4941 20.7498 92.5831 21.2877 92.7611 21.7498C92.9391 22.2119 93.1967 22.5737 93.5338 22.835C93.871 23.0926 94.2838 23.2214 94.7725 23.2214C95.28 23.2214 95.7043 23.0869 96.0452 22.818C96.3861 22.5453 96.6437 22.1759 96.8179 21.71C96.996 21.2441 97.085 20.7195 97.085 20.1362C97.085 19.5604 96.9979 19.0434 96.8236 18.585C96.6532 18.1267 96.3956 17.765 96.0509 17.4998C95.71 17.2347 95.2838 17.1021 94.7725 17.1021C94.28 17.1021 93.8634 17.229 93.5225 17.4828C93.1854 17.7366 92.9297 18.0907 92.7554 18.5453C92.5812 18.9998 92.4941 19.5301 92.4941 20.1362ZM104.38 24.6759C103.562 24.6759 102.848 24.4884 102.238 24.1134C101.629 23.7384 101.155 23.2138 100.818 22.5396C100.481 21.8653 100.312 21.0775 100.312 20.1759C100.312 19.2706 100.481 18.479 100.818 17.801C101.155 17.1229 101.629 16.5964 102.238 16.2214C102.848 15.8464 103.562 15.6589 104.38 15.6589C105.199 15.6589 105.913 15.8464 106.522 16.2214C107.132 16.5964 107.606 17.1229 107.943 17.801C108.28 18.479 108.449 19.2706 108.449 20.1759C108.449 21.0775 108.28 21.8653 107.943 22.5396C107.606 23.2138 107.132 23.7384 106.522 24.1134C105.913 24.4884 105.199 24.6759 104.38 24.6759ZM104.386 23.2498C104.916 23.2498 105.356 23.1097 105.704 22.8294C106.053 22.5491 106.31 22.1759 106.477 21.71C106.647 21.2441 106.733 20.7309 106.733 20.1703C106.733 19.6135 106.647 19.1021 106.477 18.6362C106.31 18.1665 106.053 17.7896 105.704 17.5055C105.356 17.2214 104.916 17.0794 104.386 17.0794C103.852 17.0794 103.409 17.2214 103.057 17.5055C102.708 17.7896 102.449 18.1665 102.278 18.6362C102.111 19.1021 102.028 19.6135 102.028 20.1703C102.028 20.7309 102.111 21.2441 102.278 21.71C102.449 22.1759 102.708 22.5491 103.057 22.8294C103.409 23.1097 103.852 23.2498 104.386 23.2498ZM110.345 24.4998V15.7725H111.987V17.1589H112.078C112.237 16.6892 112.517 16.3199 112.919 16.051C113.324 15.7782 113.782 15.6419 114.294 15.6419C114.4 15.6419 114.525 15.6456 114.669 15.6532C114.817 15.6608 114.932 15.6703 115.015 15.6816V17.3066C114.947 17.2877 114.826 17.2669 114.652 17.2441C114.477 17.2176 114.303 17.2044 114.129 17.2044C113.727 17.2044 113.37 17.2896 113.055 17.46C112.745 17.6267 112.498 17.8597 112.317 18.1589C112.135 18.4544 112.044 18.7915 112.044 19.1703V24.4998H110.345ZM121.075 15.7725V17.1362H116.308V15.7725H121.075ZM117.586 13.6816H119.285V21.9373C119.285 22.2669 119.334 22.515 119.433 22.6816C119.531 22.8445 119.658 22.9563 119.814 23.0169C119.973 23.0737 120.145 23.1021 120.331 23.1021C120.467 23.1021 120.586 23.0926 120.689 23.0737C120.791 23.0547 120.87 23.0396 120.927 23.0282L121.234 24.4316C121.136 24.4695 120.995 24.5074 120.814 24.5453C120.632 24.5869 120.405 24.6097 120.132 24.6134C119.685 24.621 119.268 24.5415 118.882 24.3748C118.495 24.2081 118.183 23.9506 117.944 23.6021C117.706 23.2536 117.586 22.8161 117.586 22.2896V13.6816ZM132.717 20.8805V15.7725H134.422V24.4998H132.751V22.9884H132.66C132.459 23.4544 132.138 23.8426 131.694 24.1532C131.255 24.46 130.708 24.6134 130.052 24.6134C129.492 24.6134 128.995 24.4903 128.564 24.2441C128.136 23.9941 127.799 23.6248 127.552 23.1362C127.31 22.6475 127.189 22.0434 127.189 21.3237V15.7725H128.888V21.1191C128.888 21.7138 129.052 22.1873 129.382 22.5396C129.711 22.8919 130.139 23.068 130.666 23.068C130.984 23.068 131.3 22.9884 131.615 22.8294C131.933 22.6703 132.196 22.4297 132.405 22.1078C132.617 21.7858 132.721 21.3767 132.717 20.8805ZM143.244 17.9032L141.704 18.176C141.64 17.979 141.538 17.7915 141.397 17.6135C141.261 17.4354 141.075 17.2896 140.841 17.176C140.606 17.0623 140.312 17.0055 139.96 17.0055C139.479 17.0055 139.077 17.1135 138.755 17.3294C138.433 17.5415 138.272 17.8161 138.272 18.1532C138.272 18.4449 138.38 18.6797 138.596 18.8578C138.812 19.0358 139.161 19.1816 139.642 19.2953L141.028 19.6134C141.831 19.7991 142.43 20.085 142.824 20.4714C143.218 20.8578 143.415 21.3597 143.415 21.9771C143.415 22.4998 143.263 22.9657 142.96 23.3748C142.661 23.7801 142.242 24.0983 141.704 24.3294C141.17 24.5604 140.551 24.6759 139.846 24.6759C138.869 24.6759 138.072 24.4676 137.454 24.0509C136.837 23.6305 136.458 23.0339 136.318 22.2612L137.96 22.0112C138.062 22.4392 138.272 22.7631 138.591 22.9828C138.909 23.1987 139.324 23.3066 139.835 23.3066C140.392 23.3066 140.837 23.1911 141.17 22.96C141.504 22.7252 141.67 22.4392 141.67 22.1021C141.67 21.8294 141.568 21.6002 141.363 21.4146C141.163 21.229 140.854 21.0888 140.437 20.9941L138.96 20.6703C138.146 20.4847 137.543 20.1892 137.153 19.7839C136.767 19.3786 136.574 18.8653 136.574 18.2441C136.574 17.729 136.718 17.2782 137.005 16.8919C137.293 16.5055 137.691 16.2044 138.199 15.9885C138.706 15.7688 139.288 15.6589 139.943 15.6589C140.886 15.6589 141.629 15.8635 142.17 16.2725C142.712 16.6778 143.07 17.2214 143.244 17.9032ZM153.193 24.6759C152.375 24.6759 151.661 24.4884 151.051 24.1134C150.441 23.7384 149.968 23.2138 149.63 22.5396C149.293 21.8653 149.125 21.0775 149.125 20.1759C149.125 19.2706 149.293 18.479 149.63 17.801C149.968 17.1229 150.441 16.5964 151.051 16.2214C151.661 15.8464 152.375 15.6589 153.193 15.6589C154.011 15.6589 154.725 15.8464 155.335 16.2214C155.945 16.5964 156.418 17.1229 156.755 17.801C157.093 18.479 157.261 19.2706 157.261 20.1759C157.261 21.0775 157.093 21.8653 156.755 22.5396C156.418 23.2138 155.945 23.7384 155.335 24.1134C154.725 24.4884 154.011 24.6759 153.193 24.6759ZM153.199 23.2498C153.729 23.2498 154.168 23.1097 154.517 22.8294C154.865 22.5491 155.123 22.1759 155.29 21.71C155.46 21.2441 155.545 20.7309 155.545 20.1703C155.545 19.6135 155.46 19.1021 155.29 18.6362C155.123 18.1665 154.865 17.7896 154.517 17.5055C154.168 17.2214 153.729 17.0794 153.199 17.0794C152.665 17.0794 152.221 17.2214 151.869 17.5055C151.521 17.7896 151.261 18.1665 151.091 18.6362C150.924 19.1021 150.841 19.6135 150.841 20.1703C150.841 20.7309 150.924 21.2441 151.091 21.71C151.261 22.1759 151.521 22.5491 151.869 22.8294C152.221 23.1097 152.665 23.2498 153.199 23.2498ZM160.856 19.318V24.4998H159.157V15.7725H160.788V17.193H160.896C161.097 16.7309 161.411 16.3597 161.839 16.0794C162.271 15.7991 162.815 15.6589 163.47 15.6589C164.065 15.6589 164.585 15.7839 165.032 16.0339C165.479 16.2801 165.826 16.6475 166.072 17.1362C166.318 17.6248 166.441 18.229 166.441 18.9487V24.4998H164.743V19.1532C164.743 18.5206 164.578 18.0263 164.248 17.6703C163.919 17.3104 163.466 17.1305 162.89 17.1305C162.496 17.1305 162.146 17.2157 161.839 17.3862C161.536 17.5566 161.296 17.8066 161.118 18.1362C160.943 18.4619 160.856 18.8559 160.856 19.318Z" fill="#E8E8E8"/>
<path d="M60.9355 43.4998V31.1362H66.0427C66.9684 31.1362 67.7673 31.3173 68.4394 31.6795C69.1155 32.0377 69.6367 32.5388 70.0029 33.1827C70.3692 33.8226 70.5523 34.5672 70.5523 35.4164C70.5523 36.2696 70.3652 37.0161 69.9909 37.6561C69.6206 38.292 69.0914 38.785 68.4032 39.1351C67.715 39.4853 66.898 39.6603 65.9522 39.6603H62.8009V37.3059H65.3968C65.8475 37.3059 66.2238 37.2274 66.5257 37.0705C66.8315 36.9135 67.063 36.6942 67.2199 36.4125C67.3769 36.1267 67.4554 35.7947 67.4554 35.4164C67.4554 35.034 67.3769 34.704 67.2199 34.4263C67.063 34.1446 66.8315 33.9273 66.5257 33.7743C66.2198 33.6214 65.8435 33.5449 65.3968 33.5449H63.9238V43.4998H60.9355ZM74.3073 43.6568C73.7157 43.6568 73.1904 43.5582 72.7316 43.361C72.2769 43.1597 71.9167 42.8579 71.651 42.4554C71.3894 42.0489 71.2586 41.5398 71.2586 40.9281C71.2586 40.4129 71.3492 39.9783 71.5303 39.6241C71.7114 39.2699 71.9609 38.9822 72.2789 38.7608C72.5968 38.5395 72.9631 38.3724 73.3776 38.2598C73.7921 38.143 74.2348 38.0646 74.7057 38.0243C75.2329 37.976 75.6575 37.9257 75.9795 37.8734C76.3015 37.817 76.5349 37.7386 76.6798 37.638C76.8287 37.5333 76.9032 37.3864 76.9032 37.1973V37.1671C76.9032 36.8572 76.7965 36.6177 76.5832 36.4487C76.3699 36.2796 76.0821 36.1951 75.7199 36.1951C75.3295 36.1951 75.0156 36.2796 74.7782 36.4487C74.5407 36.6177 74.3898 36.8511 74.3254 37.149L71.6027 37.0524C71.6832 36.4889 71.8905 35.9858 72.2245 35.5431C72.5626 35.0964 73.0254 34.7463 73.613 34.4927C74.2047 34.2351 74.915 34.1063 75.7441 34.1063C76.3357 34.1063 76.881 34.1768 77.3801 34.3176C77.8791 34.4545 78.3138 34.6557 78.6841 34.9213C79.0543 35.1829 79.3401 35.5049 79.5413 35.8872C79.7466 36.2696 79.8492 36.7063 79.8492 37.1973V43.4998H77.0722V42.2079H76.9998C76.8347 42.5218 76.6234 42.7875 76.3659 43.0048C76.1123 43.2221 75.8125 43.3851 75.4664 43.4938C75.1243 43.6024 74.7379 43.6568 74.3073 43.6568ZM75.2189 41.725C75.5368 41.725 75.8225 41.6606 76.0761 41.5318C76.3337 41.403 76.5389 41.2259 76.6919 41.0005C76.8448 40.7711 76.9213 40.5055 76.9213 40.2036V39.3223C76.8368 39.3665 76.7341 39.4068 76.6134 39.443C76.4967 39.4792 76.3679 39.5134 76.227 39.5456C76.0862 39.5778 75.9413 39.606 75.7924 39.6301C75.6435 39.6543 75.5006 39.6764 75.3637 39.6965C75.086 39.7408 74.8486 39.8092 74.6514 39.9018C74.4582 39.9944 74.3093 40.1151 74.2047 40.264C74.104 40.4089 74.0537 40.582 74.0537 40.7832C74.0537 41.0891 74.1624 41.3225 74.3797 41.4835C74.6011 41.6445 74.8808 41.725 75.2189 41.725ZM86.8882 34.2271V36.4004H81.0385V34.2271H86.8882ZM82.264 32.0055H85.216V40.584C85.216 40.7651 85.2442 40.912 85.3005 41.0247C85.3609 41.1333 85.4474 41.2118 85.5601 41.2601C85.6728 41.3044 85.8076 41.3265 85.9646 41.3265C86.0773 41.3265 86.196 41.3165 86.3208 41.2963C86.4496 41.2722 86.5461 41.2521 86.6105 41.236L87.0573 43.367C86.9164 43.4072 86.7172 43.4576 86.4596 43.5179C86.2061 43.5783 85.9022 43.6165 85.548 43.6326C84.8558 43.6648 84.2622 43.5843 83.7671 43.3911C83.2761 43.1939 82.8998 42.8881 82.6382 42.4735C82.3807 42.059 82.2559 41.5378 82.264 40.91V32.0055ZM88.3945 43.4998V34.2271H91.262V35.9174H91.3586C91.5276 35.3057 91.8033 34.8509 92.1856 34.5531C92.568 34.2512 93.0127 34.1003 93.5198 34.1003C93.6566 34.1003 93.7975 34.1104 93.9424 34.1305C94.0873 34.1466 94.2221 34.1728 94.3469 34.209V36.7747C94.206 36.7264 94.0209 36.6881 93.7915 36.66C93.5661 36.6318 93.3649 36.6177 93.1878 36.6177C92.8376 36.6177 92.5217 36.6962 92.24 36.8532C91.9623 37.0061 91.7429 37.2214 91.582 37.4991C91.425 37.7728 91.3465 38.0947 91.3465 38.465V43.4998H88.3945ZM99.4028 43.6749C98.4329 43.6749 97.5957 43.4837 96.8914 43.1014C96.1912 42.715 95.6519 42.1657 95.2735 41.4533C94.8992 40.7369 94.7121 39.8857 94.7121 38.8997C94.7121 37.9418 94.9013 37.1047 95.2796 36.3883C95.6579 35.6679 96.1912 35.1085 96.8794 34.71C97.5676 34.3076 98.3785 34.1063 99.3122 34.1063C99.9723 34.1063 100.576 34.209 101.123 34.4142C101.671 34.6195 102.144 34.9233 102.542 35.3258C102.94 35.7283 103.25 36.2253 103.472 36.8169C103.693 37.4045 103.804 38.0786 103.804 38.8393V39.5758H95.7444V37.8613H101.057C101.053 37.5474 100.978 37.2677 100.834 37.0222C100.689 36.7767 100.489 36.5855 100.236 36.4487C99.9864 36.3078 99.6986 36.2374 99.3726 36.2374C99.0426 36.2374 98.7468 36.3118 98.4852 36.4608C98.2236 36.6056 98.0163 36.8049 97.8634 37.0584C97.7104 37.3079 97.63 37.5917 97.6219 37.9096V39.6543C97.6219 40.0326 97.6964 40.3646 97.8453 40.6504C97.9942 40.9321 98.2055 41.1514 98.4791 41.3084C98.7528 41.4654 99.0788 41.5438 99.4571 41.5438C99.7187 41.5438 99.9562 41.5076 100.169 41.4352C100.383 41.3627 100.566 41.2561 100.719 41.1152C100.872 40.9744 100.986 40.8013 101.063 40.596L103.774 40.6745C103.661 41.2822 103.413 41.8115 103.031 42.2622C102.653 42.709 102.156 43.0571 101.54 43.3066C100.924 43.5521 100.212 43.6749 99.4028 43.6749ZM109.64 43.6749C108.666 43.6749 107.829 43.4757 107.129 43.0772C106.432 42.6748 105.895 42.1153 105.517 41.399C105.142 40.6786 104.955 39.8434 104.955 38.8936C104.955 37.9398 105.142 37.1047 105.517 36.3883C105.895 35.6679 106.432 35.1085 107.129 34.71C107.829 34.3076 108.666 34.1063 109.64 34.1063C110.614 34.1063 111.449 34.3076 112.145 34.71C112.846 35.1085 113.383 35.6679 113.757 36.3883C114.135 37.1047 114.325 37.9398 114.325 38.8936C114.325 39.8434 114.135 40.6786 113.757 41.399C113.383 42.1153 112.846 42.6748 112.145 43.0772C111.449 43.4757 110.614 43.6749 109.64 43.6749ZM109.658 41.4473C110.012 41.4473 110.312 41.3386 110.558 41.1213C110.803 40.9039 110.99 40.6021 111.119 40.2157C111.252 39.8294 111.318 39.3826 111.318 38.8755C111.318 38.3604 111.252 37.9096 111.119 37.5233C110.99 37.1369 110.803 36.835 110.558 36.6177C110.312 36.4004 110.012 36.2917 109.658 36.2917C109.292 36.2917 108.982 36.4004 108.728 36.6177C108.479 36.835 108.288 37.1369 108.155 37.5233C108.026 37.9096 107.962 38.3604 107.962 38.8755C107.962 39.3826 108.026 39.8294 108.155 40.2157C108.288 40.6021 108.479 40.9039 108.728 41.1213C108.982 41.3386 109.292 41.4473 109.658 41.4473ZM118.789 38.2115V43.4998H115.837V34.2271H118.644V35.9295H118.747C118.952 35.362 119.302 34.9173 119.797 34.5953C120.292 34.2693 120.882 34.1063 121.566 34.1063C122.218 34.1063 122.783 34.2532 123.262 34.547C123.745 34.8368 124.119 35.2433 124.385 35.7665C124.655 36.2857 124.788 36.8934 124.784 37.5897V43.4998H121.832V38.1692C121.836 37.6541 121.705 37.2516 121.439 36.9618C121.178 36.672 120.813 36.5272 120.346 36.5272C120.037 36.5272 119.763 36.5956 119.525 36.7324C119.292 36.8652 119.111 37.0564 118.982 37.3059C118.857 37.5554 118.793 37.8573 118.789 38.2115Z" fill="#FF424E"/>
</g>
<rect x="1.04976" y="1.04982" width="177.9" height="53.9" rx="6.95" stroke="white" stroke-opacity="0.15" stroke-width="2.1"/>
<defs>
<filter id="filter0_d_28_523" x="6.28547" y="2.28553" width="51.4286" height="51.4286" filterUnits="userSpaceOnUse" color-interpolation-filters="sRGB">
<feFlood flood-opacity="0" result="BackgroundImageFix"/>
<feColorMatrix in="SourceAlpha" type="matrix" values="0 0 0 0 0 0 0 0 0 0 0 0 0 0 0 0 0 0 127 0" result="hardAlpha"/>
<feOffset/>
<feGaussianBlur stdDeviation="2.85714"/>
<feComposite in2="hardAlpha" operator="out"/>
<feColorMatrix type="matrix" values="0 0 0 0 0 0 0 0 0 0 0 0 0 0 0 0 0 0 0.25 0"/>
<feBlend mode="normal" in2="BackgroundImageFix" result="effect1_dropShadow_28_523"/>
<feBlend mode="normal" in="SourceGraphic" in2="effect1_dropShadow_28_523" result="shape"/>
</filter>
<filter id="filter1_d_28_523" x="54.3998" y="3.89982" width="119.2" height="48.2" filterUnits="userSpaceOnUse" color-interpolation-filters="sRGB">
<feFlood flood-opacity="0" result="BackgroundImageFix"/>
<feColorMatrix in="SourceAlpha" type="matrix" values="0 0 0 0 0 0 0 0 0 0 0 0 0 0 0 0 0 0 127 0" result="hardAlpha"/>
<feOffset/>
<feGaussianBlur stdDeviation="2.8"/>
<feComposite in2="hardAlpha" operator="out"/>
<feColorMatrix type="matrix" values="0 0 0 0 0 0 0 0 0 0 0 0 0 0 0 0 0 0 0.25 0"/>
<feBlend mode="normal" in2="BackgroundImageFix" result="effect1_dropShadow_28_523"/>
<feBlend mode="normal" in="SourceGraphic" in2="effect1_dropShadow_28_523" result="shape"/>
</filter>
<linearGradient id="paint0_linear_28_523" x1="89.9997" y1="-0.000183105" x2="89.9997" y2="55.9998" gradientUnits="userSpaceOnUse">
<stop stop-color="#300B0D"/>
<stop offset="1" stop-color="#210709"/>
</linearGradient>
</defs>
</svg>
