<svg width="180" height="56" viewBox="0 0 180 56" fill="none" xmlns="http://www.w3.org/2000/svg">
<rect x="-0.000244141" y="-0.000152588" width="180" height="56" rx="8" fill="url(#paint0_linear_28_507)"/>
<g filter="url(#filter0_d_28_507)">
<path d="M44.389 20.8054L24.2891 42.6027H16.9167C16.4048 42.6027 15.9952 42.0939 16.0976 41.5851L21.0125 10.6496C21.1149 9.9373 21.7292 9.4285 22.446 9.4285H34.9381C43.5392 9.73378 45.8942 14.1095 44.3583 20.8258L44.389 20.8054Z" fill="#0045D9"/>
<path d="M44.7167 18.7906C47.7885 20.4188 48.5052 23.4716 47.4813 27.5421C46.1502 33.546 42.1568 36.09 36.3204 36.1918L34.6821 36.2935C34.0677 36.2935 33.6581 36.7006 33.5557 37.3111L32.2246 45.3503C32.1222 46.0626 31.5078 46.5714 30.7911 46.5714H24.6474C24.1355 46.5714 23.7259 46.0626 23.8283 45.5538L26.081 31.0019C26.1834 30.4931 44.7167 18.7906 44.7167 18.7906Z" fill="#00A4EE"/>
<path d="M25.9581 31.7142L28.006 18.7905C28.0732 18.4844 28.24 18.2089 28.4806 18.0065C28.7213 17.8042 29.0223 17.6863 29.3371 17.6711H39.1669C41.522 17.6711 43.2627 18.0782 44.6962 18.7905C44.1842 23.268 42.034 30.493 31.5898 30.6966H27.0845C26.5725 30.6966 26.0605 31.1036 25.9581 31.7142Z" fill="#002788"/>
</g>
<g filter="url(#filter1_d_28_507)">
<path d="M67.6248 15.9203C67.5641 15.3824 67.3141 14.9658 66.8748 14.6703C66.4354 14.3711 65.8823 14.2214 65.2157 14.2214C64.7384 14.2214 64.3255 14.2972 63.977 14.4487C63.6285 14.5964 63.3577 14.801 63.1645 15.0623C62.9751 15.3199 62.8804 15.6135 62.8804 15.943C62.8804 16.2195 62.9448 16.4582 63.0736 16.6589C63.2062 16.8597 63.3785 17.0283 63.5907 17.1646C63.8066 17.2972 64.0376 17.4089 64.2838 17.4998C64.5301 17.587 64.7668 17.6589 64.9941 17.7158L66.1304 18.0112C66.5016 18.1021 66.8823 18.2252 67.2725 18.3805C67.6626 18.5358 68.0244 18.7404 68.3577 18.9942C68.691 19.248 68.96 19.5623 69.1645 19.9373C69.3729 20.3123 69.477 20.7612 69.477 21.2839C69.477 21.943 69.3066 22.5283 68.9657 23.0396C68.6285 23.551 68.138 23.9544 67.4941 24.2498C66.8539 24.5453 66.0793 24.693 65.1702 24.693C64.299 24.693 63.5452 24.5548 62.9088 24.2783C62.2725 24.0017 61.7744 23.6097 61.4145 23.1021C61.0547 22.5908 60.8558 21.9847 60.8179 21.2839H62.5793C62.6134 21.7044 62.7498 22.0548 62.9884 22.3351C63.2308 22.6116 63.5395 22.818 63.9145 22.9544C64.2933 23.087 64.7081 23.1533 65.1588 23.1533C65.6551 23.1533 66.0963 23.0756 66.4827 22.9203C66.8729 22.7612 67.1797 22.5415 67.4032 22.2612C67.6266 21.9771 67.7384 21.6457 67.7384 21.2669C67.7384 20.9222 67.6399 20.64 67.4429 20.4203C67.2498 20.2006 66.9865 20.0188 66.6532 19.8748C66.3236 19.7309 65.9505 19.604 65.5338 19.4942L64.1588 19.1192C63.227 18.8654 62.4884 18.4923 61.9429 17.9998C61.4013 17.5074 61.1304 16.8559 61.1304 16.0453C61.1304 15.3748 61.3123 14.7896 61.6759 14.2896C62.0395 13.7896 62.532 13.4014 63.1532 13.1248C63.7744 12.8445 64.4751 12.7044 65.2554 12.7044C66.0433 12.7044 66.7384 12.8426 67.3407 13.1192C67.9467 13.3957 68.424 13.7764 68.7725 14.2612C69.121 14.7423 69.3028 15.2953 69.3179 15.9203H67.6248ZM76.9671 20.8805V15.7726H78.6716V24.4998H77.0012V22.9885H76.9103C76.7095 23.4544 76.3875 23.8426 75.9444 24.1533C75.505 24.4601 74.9576 24.6135 74.3023 24.6135C73.7417 24.6135 73.2455 24.4904 72.8137 24.2442C72.3856 23.9942 72.0485 23.6248 71.8023 23.1362C71.5599 22.6476 71.4387 22.0434 71.4387 21.3237V15.7726H73.1375V21.1192C73.1375 21.7139 73.3023 22.1873 73.6319 22.5396C73.9614 22.8919 74.3894 23.068 74.9159 23.068C75.2341 23.068 75.5504 22.9885 75.8648 22.8294C76.183 22.6703 76.4462 22.4298 76.6546 22.1078C76.8667 21.7858 76.9709 21.3767 76.9671 20.8805ZM80.9543 27.7726V15.7726H82.6134V17.1873H82.7554C82.8539 17.0055 82.996 16.7953 83.1816 16.5567C83.3672 16.318 83.6247 16.1097 83.9543 15.9317C84.2838 15.7498 84.7194 15.6589 85.2611 15.6589C85.9657 15.6589 86.5944 15.837 87.1475 16.193C87.7005 16.5491 88.1342 17.0623 88.4486 17.7328C88.7668 18.4033 88.9259 19.2101 88.9259 20.1533C88.9259 21.0964 88.7687 21.9051 88.4543 22.5794C88.1399 23.2498 87.7081 23.7669 87.1588 24.1305C86.6096 24.4904 85.9827 24.6703 85.2782 24.6703C84.7479 24.6703 84.3141 24.5813 83.977 24.4033C83.6437 24.2252 83.3823 24.0169 83.1929 23.7783C83.0035 23.5396 82.8577 23.3275 82.7554 23.1419H82.6532V27.7726H80.9543ZM82.6191 20.1362C82.6191 20.7498 82.7081 21.2877 82.8861 21.7498C83.0641 22.212 83.3217 22.5737 83.6588 22.8351C83.996 23.0926 84.4088 23.2214 84.8975 23.2214C85.4051 23.2214 85.8293 23.087 86.1702 22.818C86.5111 22.5453 86.7687 22.176 86.9429 21.7101C87.121 21.2442 87.21 20.7195 87.21 20.1362C87.21 19.5605 87.1229 19.0434 86.9486 18.5851C86.7782 18.1267 86.5206 17.765 86.1759 17.4998C85.835 17.2347 85.4088 17.1021 84.8975 17.1021C84.4051 17.1021 83.9884 17.229 83.6475 17.4828C83.3104 17.7366 83.0547 18.0908 82.8804 18.5453C82.7062 18.9998 82.6191 19.5301 82.6191 20.1362ZM90.8293 27.7726V15.7726H92.4884V17.1873H92.6304C92.7289 17.0055 92.871 16.7953 93.0566 16.5567C93.2422 16.318 93.4997 16.1097 93.8293 15.9317C94.1588 15.7498 94.5944 15.6589 95.1361 15.6589C95.8407 15.6589 96.4694 15.837 97.0225 16.193C97.5755 16.5491 98.0092 17.0623 98.3236 17.7328C98.6418 18.4033 98.8009 19.2101 98.8009 20.1533C98.8009 21.0964 98.6437 21.9051 98.3293 22.5794C98.0149 23.2498 97.5831 23.7669 97.0338 24.1305C96.4846 24.4904 95.8577 24.6703 95.1532 24.6703C94.6229 24.6703 94.1891 24.5813 93.852 24.4033C93.5187 24.2252 93.2573 24.0169 93.0679 23.7783C92.8785 23.5396 92.7327 23.3275 92.6304 23.1419H92.5282V27.7726H90.8293ZM92.4941 20.1362C92.4941 20.7498 92.5831 21.2877 92.7611 21.7498C92.9391 22.212 93.1967 22.5737 93.5338 22.8351C93.871 23.0926 94.2838 23.2214 94.7725 23.2214C95.28 23.2214 95.7043 23.087 96.0452 22.818C96.3861 22.5453 96.6437 22.176 96.8179 21.7101C96.996 21.2442 97.085 20.7195 97.085 20.1362C97.085 19.5605 96.9979 19.0434 96.8236 18.5851C96.6532 18.1267 96.3956 17.765 96.0509 17.4998C95.71 17.2347 95.2838 17.1021 94.7725 17.1021C94.28 17.1021 93.8634 17.229 93.5225 17.4828C93.1854 17.7366 92.9297 18.0908 92.7554 18.5453C92.5812 18.9998 92.4941 19.5301 92.4941 20.1362ZM104.38 24.676C103.562 24.676 102.848 24.4885 102.238 24.1135C101.629 23.7385 101.155 23.2139 100.818 22.5396C100.481 21.8654 100.312 21.0775 100.312 20.176C100.312 19.2707 100.481 18.479 100.818 17.801C101.155 17.123 101.629 16.5964 102.238 16.2214C102.848 15.8464 103.562 15.6589 104.38 15.6589C105.199 15.6589 105.913 15.8464 106.522 16.2214C107.132 16.5964 107.606 17.123 107.943 17.801C108.28 18.479 108.449 19.2707 108.449 20.176C108.449 21.0775 108.28 21.8654 107.943 22.5396C107.606 23.2139 107.132 23.7385 106.522 24.1135C105.913 24.4885 105.199 24.676 104.38 24.676ZM104.386 23.2498C104.916 23.2498 105.356 23.1097 105.704 22.8294C106.053 22.5491 106.31 22.176 106.477 21.7101C106.647 21.2442 106.733 20.7309 106.733 20.1703C106.733 19.6135 106.647 19.1021 106.477 18.6362C106.31 18.1665 106.053 17.7896 105.704 17.5055C105.356 17.2214 104.916 17.0794 104.386 17.0794C103.852 17.0794 103.409 17.2214 103.057 17.5055C102.708 17.7896 102.449 18.1665 102.278 18.6362C102.111 19.1021 102.028 19.6135 102.028 20.1703C102.028 20.7309 102.111 21.2442 102.278 21.7101C102.449 22.176 102.708 22.5491 103.057 22.8294C103.409 23.1097 103.852 23.2498 104.386 23.2498ZM110.345 24.4998V15.7726H111.987V17.1589H112.078C112.237 16.6892 112.517 16.3199 112.919 16.051C113.324 15.7783 113.782 15.6419 114.294 15.6419C114.4 15.6419 114.525 15.6457 114.669 15.6533C114.817 15.6608 114.932 15.6703 115.015 15.6817V17.3067C114.947 17.2877 114.826 17.2669 114.652 17.2442C114.477 17.2176 114.303 17.2044 114.129 17.2044C113.727 17.2044 113.37 17.2896 113.055 17.4601C112.745 17.6267 112.498 17.8597 112.317 18.1589C112.135 18.4544 112.044 18.7915 112.044 19.1703V24.4998H110.345ZM121.075 15.7726V17.1362H116.308V15.7726H121.075ZM117.586 13.6817H119.285V21.9373C119.285 22.2669 119.334 22.515 119.433 22.6817C119.531 22.8445 119.658 22.9563 119.814 23.0169C119.973 23.0737 120.145 23.1021 120.331 23.1021C120.467 23.1021 120.586 23.0926 120.689 23.0737C120.791 23.0548 120.87 23.0396 120.927 23.0283L121.234 24.4317C121.136 24.4695 120.995 24.5074 120.814 24.5453C120.632 24.587 120.405 24.6097 120.132 24.6135C119.685 24.6211 119.268 24.5415 118.882 24.3748C118.495 24.2082 118.183 23.9506 117.944 23.6021C117.706 23.2536 117.586 22.8161 117.586 22.2896V13.6817ZM132.717 20.8805V15.7726H134.422V24.4998H132.751V22.9885H132.66C132.459 23.4544 132.138 23.8426 131.694 24.1533C131.255 24.4601 130.708 24.6135 130.052 24.6135C129.492 24.6135 128.995 24.4904 128.564 24.2442C128.136 23.9942 127.799 23.6248 127.552 23.1362C127.31 22.6476 127.189 22.0434 127.189 21.3237V15.7726H128.888V21.1192C128.888 21.7139 129.052 22.1873 129.382 22.5396C129.711 22.8919 130.139 23.068 130.666 23.068C130.984 23.068 131.3 22.9885 131.615 22.8294C131.933 22.6703 132.196 22.4298 132.405 22.1078C132.617 21.7858 132.721 21.3767 132.717 20.8805ZM143.244 17.9033L141.704 18.176C141.64 17.979 141.538 17.7915 141.397 17.6135C141.261 17.4355 141.075 17.2896 140.841 17.176C140.606 17.0623 140.312 17.0055 139.96 17.0055C139.479 17.0055 139.077 17.1135 138.755 17.3294C138.433 17.5415 138.272 17.8161 138.272 18.1533C138.272 18.4449 138.38 18.6798 138.596 18.8578C138.812 19.0358 139.161 19.1817 139.642 19.2953L141.028 19.6135C141.831 19.7991 142.43 20.0851 142.824 20.4714C143.218 20.8578 143.415 21.3597 143.415 21.9771C143.415 22.4998 143.263 22.9658 142.96 23.3748C142.661 23.7801 142.242 24.0983 141.704 24.3294C141.17 24.5604 140.551 24.676 139.846 24.676C138.869 24.676 138.072 24.4676 137.454 24.051C136.837 23.6305 136.458 23.0339 136.318 22.2612L137.96 22.0112C138.062 22.4392 138.272 22.7631 138.591 22.9828C138.909 23.1987 139.324 23.3067 139.835 23.3067C140.392 23.3067 140.837 23.1911 141.17 22.9601C141.504 22.7252 141.67 22.4392 141.67 22.1021C141.67 21.8294 141.568 21.6002 141.363 21.4146C141.163 21.229 140.854 21.0889 140.437 20.9942L138.96 20.6703C138.146 20.4847 137.543 20.1892 137.153 19.7839C136.767 19.3786 136.574 18.8654 136.574 18.2442C136.574 17.729 136.718 17.2783 137.005 16.8919C137.293 16.5055 137.691 16.2044 138.199 15.9885C138.706 15.7688 139.288 15.6589 139.943 15.6589C140.886 15.6589 141.629 15.8635 142.17 16.2726C142.712 16.6779 143.07 17.2214 143.244 17.9033ZM153.193 24.676C152.375 24.676 151.661 24.4885 151.051 24.1135C150.441 23.7385 149.968 23.2139 149.63 22.5396C149.293 21.8654 149.125 21.0775 149.125 20.176C149.125 19.2707 149.293 18.479 149.63 17.801C149.968 17.123 150.441 16.5964 151.051 16.2214C151.661 15.8464 152.375 15.6589 153.193 15.6589C154.011 15.6589 154.725 15.8464 155.335 16.2214C155.945 16.5964 156.418 17.123 156.755 17.801C157.093 18.479 157.261 19.2707 157.261 20.176C157.261 21.0775 157.093 21.8654 156.755 22.5396C156.418 23.2139 155.945 23.7385 155.335 24.1135C154.725 24.4885 154.011 24.676 153.193 24.676ZM153.199 23.2498C153.729 23.2498 154.168 23.1097 154.517 22.8294C154.865 22.5491 155.123 22.176 155.29 21.7101C155.46 21.2442 155.545 20.7309 155.545 20.1703C155.545 19.6135 155.46 19.1021 155.29 18.6362C155.123 18.1665 154.865 17.7896 154.517 17.5055C154.168 17.2214 153.729 17.0794 153.199 17.0794C152.665 17.0794 152.221 17.2214 151.869 17.5055C151.521 17.7896 151.261 18.1665 151.091 18.6362C150.924 19.1021 150.841 19.6135 150.841 20.1703C150.841 20.7309 150.924 21.2442 151.091 21.7101C151.261 22.176 151.521 22.5491 151.869 22.8294C152.221 23.1097 152.665 23.2498 153.199 23.2498ZM160.856 19.318V24.4998H159.157V15.7726H160.788V17.193H160.896C161.097 16.7309 161.411 16.3597 161.839 16.0794C162.271 15.7991 162.815 15.6589 163.47 15.6589C164.065 15.6589 164.585 15.7839 165.032 16.0339C165.479 16.2801 165.826 16.6476 166.072 17.1362C166.318 17.6248 166.441 18.229 166.441 18.9487V24.4998H164.743V19.1533C164.743 18.5207 164.578 18.0264 164.248 17.6703C163.919 17.3105 163.466 17.1305 162.89 17.1305C162.496 17.1305 162.146 17.2158 161.839 17.3862C161.536 17.5567 161.296 17.8067 161.118 18.1362C160.943 18.462 160.856 18.8559 160.856 19.318Z" fill="#E8E8E8"/>
<path d="M60.9355 43.4998V31.1362H66.0427C66.9684 31.1362 67.7673 31.3173 68.4394 31.6795C69.1155 32.0377 69.6367 32.5388 70.0029 33.1827C70.3692 33.8226 70.5523 34.5672 70.5523 35.4164C70.5523 36.2696 70.3652 37.0162 69.9909 37.6561C69.6206 38.292 69.0914 38.785 68.4032 39.1351C67.715 39.4853 66.898 39.6604 65.9522 39.6604H62.8009V37.306H65.3968C65.8475 37.306 66.2238 37.2275 66.5257 37.0705C66.8315 36.9136 67.063 36.6942 67.2199 36.4125C67.3769 36.1267 67.4554 35.7947 67.4554 35.4164C67.4554 35.0341 67.3769 34.704 67.2199 34.4263C67.063 34.1446 66.8315 33.9273 66.5257 33.7743C66.2198 33.6214 65.8435 33.5449 65.3968 33.5449H63.9238V43.4998H60.9355ZM74.3073 43.6568C73.7157 43.6568 73.1904 43.5582 72.7316 43.361C72.2769 43.1598 71.9167 42.8579 71.651 42.4555C71.3894 42.049 71.2586 41.5399 71.2586 40.9281C71.2586 40.413 71.3492 39.9783 71.5303 39.6241C71.7114 39.27 71.9609 38.9822 72.2789 38.7609C72.5968 38.5395 72.9631 38.3725 73.3776 38.2598C73.7921 38.1431 74.2348 38.0646 74.7057 38.0243C75.2329 37.9761 75.6575 37.9257 75.9795 37.8734C76.3015 37.8171 76.5349 37.7386 76.6798 37.638C76.8287 37.5333 76.9032 37.3864 76.9032 37.1973V37.1671C76.9032 36.8572 76.7965 36.6177 76.5832 36.4487C76.3699 36.2797 76.0821 36.1952 75.7199 36.1952C75.3295 36.1952 75.0156 36.2797 74.7782 36.4487C74.5407 36.6177 74.3898 36.8512 74.3254 37.149L71.6027 37.0524C71.6832 36.489 71.8905 35.9859 72.2245 35.5432C72.5626 35.0964 73.0254 34.7463 73.613 34.4927C74.2047 34.2352 74.915 34.1064 75.7441 34.1064C76.3357 34.1064 76.881 34.1768 77.3801 34.3177C77.8791 34.4545 78.3138 34.6557 78.6841 34.9214C79.0543 35.183 79.3401 35.5049 79.5413 35.8873C79.7466 36.2696 79.8492 36.7063 79.8492 37.1973V43.4998H77.0722V42.2079H76.9998C76.8347 42.5219 76.6234 42.7875 76.3659 43.0048C76.1123 43.2221 75.8125 43.3851 75.4664 43.4938C75.1243 43.6025 74.7379 43.6568 74.3073 43.6568ZM75.2189 41.725C75.5368 41.725 75.8225 41.6606 76.0761 41.5318C76.3337 41.403 76.5389 41.2259 76.6919 41.0006C76.8448 40.7712 76.9213 40.5055 76.9213 40.2037V39.3223C76.8368 39.3666 76.7341 39.4068 76.6134 39.443C76.4967 39.4792 76.3679 39.5135 76.227 39.5457C76.0862 39.5779 75.9413 39.606 75.7924 39.6302C75.6435 39.6543 75.5006 39.6765 75.3637 39.6966C75.086 39.7408 74.8486 39.8093 74.6514 39.9018C74.4582 39.9944 74.3093 40.1151 74.2047 40.264C74.104 40.4089 74.0537 40.582 74.0537 40.7832C74.0537 41.0891 74.1624 41.3225 74.3797 41.4835C74.6011 41.6445 74.8808 41.725 75.2189 41.725ZM83.1272 46.9771C82.7731 46.9771 82.439 46.9489 82.1251 46.8926C81.8112 46.8403 81.5415 46.7698 81.3162 46.6813L81.9681 44.5382C82.2579 44.6348 82.5195 44.6911 82.7529 44.7072C82.9904 44.7233 83.1936 44.6851 83.3627 44.5925C83.5357 44.504 83.6685 44.345 83.7611 44.1156L83.8758 43.8379L80.5797 34.2271H83.6706L85.379 40.8436H85.4756L87.2082 34.2271H90.3172L86.8218 44.3873C86.6528 44.8944 86.4133 45.3411 86.1034 45.7275C85.7976 46.1179 85.4011 46.4237 84.9142 46.6451C84.4312 46.8664 83.8356 46.9771 83.1272 46.9771Z" fill="#0045D9"/>
<path d="M91.4491 43.4998V31.1362H96.5564C97.482 31.1362 98.2809 31.3173 98.953 31.6795C99.6292 32.0377 100.15 32.5388 100.517 33.1827C100.883 33.8226 101.066 34.5672 101.066 35.4164C101.066 36.2696 100.879 37.0162 100.505 37.6561C100.134 38.292 99.605 38.785 98.9168 39.1351C98.2286 39.4853 97.4116 39.6604 96.4658 39.6604H93.3146V37.306H95.9104C96.3612 37.306 96.7375 37.2275 97.0393 37.0705C97.3452 36.9136 97.5766 36.6942 97.7336 36.4125C97.8905 36.1267 97.969 35.7947 97.969 35.4164C97.969 35.0341 97.8905 34.704 97.7336 34.4263C97.5766 34.1446 97.3452 33.9273 97.0393 33.7743C96.7335 33.6214 96.3572 33.5449 95.9104 33.5449H94.4374V43.4998H91.4491ZM104.821 43.6568C104.229 43.6568 103.704 43.5582 103.245 43.361C102.791 43.1598 102.43 42.8579 102.165 42.4555C101.903 42.049 101.772 41.5399 101.772 40.9281C101.772 40.413 101.863 39.9783 102.044 39.6241C102.225 39.27 102.475 38.9822 102.793 38.7609C103.11 38.5395 103.477 38.3725 103.891 38.2598C104.306 38.1431 104.748 38.0646 105.219 38.0243C105.747 37.9761 106.171 37.9257 106.493 37.8734C106.815 37.8171 107.049 37.7386 107.193 37.638C107.342 37.5333 107.417 37.3864 107.417 37.1973V37.1671C107.417 36.8572 107.31 36.6177 107.097 36.4487C106.884 36.2797 106.596 36.1952 106.234 36.1952C105.843 36.1952 105.529 36.2797 105.292 36.4487C105.054 36.6177 104.903 36.8512 104.839 37.149L102.116 37.0524C102.197 36.489 102.404 35.9859 102.738 35.5432C103.076 35.0964 103.539 34.7463 104.127 34.4927C104.718 34.2352 105.429 34.1064 106.258 34.1064C106.849 34.1064 107.395 34.1768 107.894 34.3177C108.393 34.4545 108.827 34.6557 109.198 34.9214C109.568 35.183 109.854 35.5049 110.055 35.8873C110.26 36.2696 110.363 36.7063 110.363 37.1973V43.4998H107.586V42.2079H107.513C107.348 42.5219 107.137 42.7875 106.88 43.0048C106.626 43.2221 106.326 43.3851 105.98 43.4938C105.638 43.6025 105.252 43.6568 104.821 43.6568ZM105.733 41.725C106.05 41.725 106.336 41.6606 106.59 41.5318C106.847 41.403 107.053 41.2259 107.206 41.0006C107.358 40.7712 107.435 40.5055 107.435 40.2037V39.3223C107.35 39.3666 107.248 39.4068 107.127 39.443C107.01 39.4792 106.882 39.5135 106.741 39.5457C106.6 39.5779 106.455 39.606 106.306 39.6302C106.157 39.6543 106.014 39.6765 105.877 39.6966C105.6 39.7408 105.362 39.8093 105.165 39.9018C104.972 39.9944 104.823 40.1151 104.718 40.264C104.618 40.4089 104.567 40.582 104.567 40.7832C104.567 41.0891 104.676 41.3225 104.893 41.4835C105.115 41.6445 105.394 41.725 105.733 41.725ZM115.12 31.1362V43.4998H112.168V31.1362H115.12Z" fill="#00A4EE"/>
</g>
<rect x="1.04976" y="1.04985" width="177.9" height="53.9" rx="6.95" stroke="white" stroke-opacity="0.15" stroke-width="2.1"/>
<defs>
<filter id="filter0_d_28_507" x="6.28547" y="2.28556" width="51.4286" height="51.4285" filterUnits="userSpaceOnUse" color-interpolation-filters="sRGB">
<feFlood flood-opacity="0" result="BackgroundImageFix"/>
<feColorMatrix in="SourceAlpha" type="matrix" values="0 0 0 0 0 0 0 0 0 0 0 0 0 0 0 0 0 0 127 0" result="hardAlpha"/>
<feOffset/>
<feGaussianBlur stdDeviation="2.85714"/>
<feComposite in2="hardAlpha" operator="out"/>
<feColorMatrix type="matrix" values="0 0 0 0 0 0 0 0 0 0 0 0 0 0 0 0 0 0 0.25 0"/>
<feBlend mode="normal" in2="BackgroundImageFix" result="effect1_dropShadow_28_507"/>
<feBlend mode="normal" in="SourceGraphic" in2="effect1_dropShadow_28_507" result="shape"/>
</filter>
<filter id="filter1_d_28_507" x="54.3998" y="3.89985" width="119.2" height="48.6773" filterUnits="userSpaceOnUse" color-interpolation-filters="sRGB">
<feFlood flood-opacity="0" result="BackgroundImageFix"/>
<feColorMatrix in="SourceAlpha" type="matrix" values="0 0 0 0 0 0 0 0 0 0 0 0 0 0 0 0 0 0 127 0" result="hardAlpha"/>
<feOffset/>
<feGaussianBlur stdDeviation="2.8"/>
<feComposite in2="hardAlpha" operator="out"/>
<feColorMatrix type="matrix" values="0 0 0 0 0 0 0 0 0 0 0 0 0 0 0 0 0 0 0.25 0"/>
<feBlend mode="normal" in2="BackgroundImageFix" result="effect1_dropShadow_28_507"/>
<feBlend mode="normal" in="SourceGraphic" in2="effect1_dropShadow_28_507" result="shape"/>
</filter>
<linearGradient id="paint0_linear_28_507" x1="89.9997" y1="-0.000152588" x2="89.9997" y2="55.9998" gradientUnits="userSpaceOnUse">
<stop stop-color="#0E1B35"/>
<stop offset="1" stop-color="#0A1D25"/>
</linearGradient>
</defs>
</svg>
