<svg width="41" height="40" viewBox="0 0 41 40" fill="none" xmlns="http://www.w3.org/2000/svg">
<g clip-path="url(#clip0_7_233)">
<rect x="0.0107422" y="-2.28882e-05" width="40" height="40" rx="8" fill="url(#paint0_linear_7_233)"/>
<g filter="url(#filter0_d_7_233)">
<path d="M31.3952 11.7143V32.0001C31.3952 32.789 30.7556 33.4286 29.9666 33.4286H10.0545C9.26557 33.4286 8.62598 32.789 8.62598 32.0001V8.00005C8.62598 7.21107 9.26557 6.57148 10.0545 6.57148H25.8567H29.9666C30.7556 6.57148 31.3952 7.21107 31.3952 8.00005V11.7143Z" fill="#F1F1F1"/>
<path d="M26.2336 15.1429H11.6336C11.247 15.1429 10.9336 15.4563 10.9336 15.8429C10.9336 16.2295 11.247 16.5429 11.6336 16.5429H26.2336C26.6202 16.5429 26.9336 16.2295 26.9336 15.8429C26.9336 15.4563 26.6202 15.1429 26.2336 15.1429Z" fill="#231F20"/>
<path d="M28.2336 18.5715H11.7874C11.4008 18.5715 11.0874 18.8849 11.0874 19.2715C11.0874 19.6581 11.4008 19.9715 11.7874 19.9715H28.2336C28.6202 19.9715 28.9336 19.6581 28.9336 19.2715C28.9336 18.8849 28.6202 18.5715 28.2336 18.5715Z" fill="#231F20"/>
<path d="M28.2336 22H11.7874C11.4008 22 11.0874 22.3134 11.0874 22.7C11.0874 23.0866 11.4008 23.4 11.7874 23.4H28.2336C28.6202 23.4 28.9336 23.0866 28.9336 22.7C28.9336 22.3134 28.6202 22 28.2336 22Z" fill="#231F20"/>
<path d="M28.2336 25.4286H11.7874C11.4008 25.4286 11.0874 25.742 11.0874 26.1286C11.0874 26.5152 11.4008 26.8286 11.7874 26.8286H28.2336C28.6202 26.8286 28.9336 26.5152 28.9336 26.1286C28.9336 25.742 28.6202 25.4286 28.2336 25.4286Z" fill="#231F20"/>
<path d="M24.5413 28.8572H11.7874C11.4008 28.8572 11.0874 29.1706 11.0874 29.5572C11.0874 29.9438 11.4008 30.2572 11.7874 30.2572H24.5413C24.9279 30.2572 25.2413 29.9438 25.2413 29.5572C25.2413 29.1706 24.9279 28.8572 24.5413 28.8572Z" fill="#231F20"/>
<path d="M28.2336 28.8572H27.4798C27.0932 28.8572 26.7798 29.1706 26.7798 29.5572C26.7798 29.9438 27.0932 30.2572 27.4798 30.2572H28.2336C28.6202 30.2572 28.9336 29.9438 28.9336 29.5572C28.9336 29.1706 28.6202 28.8572 28.2336 28.8572Z" fill="#231F20"/>
<path d="M14.0797 8.57148H11.7874C11.4008 8.57148 11.0874 8.88488 11.0874 9.27148C11.0874 9.65808 11.4008 9.97148 11.7874 9.97148H14.0797C14.4663 9.97148 14.7797 9.65808 14.7797 9.27148C14.7797 8.88488 14.4663 8.57148 14.0797 8.57148Z" fill="#231F20"/>
<path d="M17.772 10.5715H11.7874C11.4008 10.5715 11.0874 10.8849 11.0874 11.2715C11.0874 11.6581 11.4008 11.9715 11.7874 11.9715H17.772C18.1586 11.9715 18.472 11.6581 18.472 11.2715C18.472 10.8849 18.1586 10.5715 17.772 10.5715Z" fill="#231F20"/>
</g>
</g>
<rect x="1.06074" y="1.04998" width="37.9" height="37.9" rx="6.95" stroke="white" stroke-opacity="0.15" stroke-width="2.1"/>
<defs>
<filter id="filter0_d_7_233" x="0.296457" y="0.285692" width="39.4286" height="39.4286" filterUnits="userSpaceOnUse" color-interpolation-filters="sRGB">
<feFlood flood-opacity="0" result="BackgroundImageFix"/>
<feColorMatrix in="SourceAlpha" type="matrix" values="0 0 0 0 0 0 0 0 0 0 0 0 0 0 0 0 0 0 127 0" result="hardAlpha"/>
<feOffset/>
<feGaussianBlur stdDeviation="2.85714"/>
<feComposite in2="hardAlpha" operator="out"/>
<feColorMatrix type="matrix" values="0 0 0 0 0 0 0 0 0 0 0 0 0 0 0 0 0 0 0.25 0"/>
<feBlend mode="normal" in2="BackgroundImageFix" result="effect1_dropShadow_7_233"/>
<feBlend mode="normal" in="SourceGraphic" in2="effect1_dropShadow_7_233" result="shape"/>
</filter>
<linearGradient id="paint0_linear_7_233" x1="20.0107" y1="-2.28882e-05" x2="20.0107" y2="40" gradientUnits="userSpaceOnUse">
<stop stop-color="#303030"/>
<stop offset="1" stop-color="#1D1D1D"/>
</linearGradient>
<clipPath id="clip0_7_233">
<rect x="0.0107422" y="-2.28882e-05" width="40" height="40" rx="8" fill="white"/>
</clipPath>
</defs>
</svg>
