<svg width="41" height="40" viewBox="0 0 41 40" fill="none" xmlns="http://www.w3.org/2000/svg">
<rect x="0.0107422" y="-1.52588e-05" width="40" height="40" rx="8" fill="url(#paint0_linear_2_2048)"/>
<g filter="url(#filter0_d_2_2048)">
<path d="M31.3952 11.7143V32.4286C31.3952 32.9809 30.9475 33.4286 30.3952 33.4286H9.62598C9.07369 33.4286 8.62598 32.9809 8.62598 32.4286V7.57149C8.62598 7.0192 9.07369 6.57149 9.62598 6.57149H25.8567H30.3952C30.9475 6.57149 31.3952 7.0192 31.3952 7.57149V11.7143Z" fill="#F1F1F1"/>
<path d="M26.2336 15.1429H11.6336C11.247 15.1429 10.9336 15.4563 10.9336 15.8429C10.9336 16.2295 11.247 16.5429 11.6336 16.5429H26.2336C26.6202 16.5429 26.9336 16.2295 26.9336 15.8429C26.9336 15.4563 26.6202 15.1429 26.2336 15.1429Z" fill="#231F20"/>
<path d="M28.234 18.5715H11.7879C11.4013 18.5715 11.0879 18.8849 11.0879 19.2715C11.0879 19.6581 11.4013 19.9715 11.7879 19.9715H28.234C28.6206 19.9715 28.934 19.6581 28.934 19.2715C28.934 18.8849 28.6206 18.5715 28.234 18.5715Z" fill="#231F20"/>
<path d="M28.234 22H11.7879C11.4013 22 11.0879 22.3134 11.0879 22.7C11.0879 23.0866 11.4013 23.4 11.7879 23.4H28.234C28.6206 23.4 28.934 23.0866 28.934 22.7C28.934 22.3134 28.6206 22 28.234 22Z" fill="#231F20"/>
<path d="M28.234 25.4286H11.7879C11.4013 25.4286 11.0879 25.742 11.0879 26.1286C11.0879 26.5152 11.4013 26.8286 11.7879 26.8286H28.234C28.6206 26.8286 28.934 26.5152 28.934 26.1286C28.934 25.742 28.6206 25.4286 28.234 25.4286Z" fill="#231F20"/>
<path d="M24.5417 28.8572H11.7879C11.4013 28.8572 11.0879 29.1706 11.0879 29.5572C11.0879 29.9438 11.4013 30.2572 11.7879 30.2572H24.5417C24.9283 30.2572 25.2417 29.9438 25.2417 29.5572C25.2417 29.1706 24.9283 28.8572 24.5417 28.8572Z" fill="#231F20"/>
<path d="M28.2336 28.8572H27.4798C27.0932 28.8572 26.7798 29.1706 26.7798 29.5572C26.7798 29.9438 27.0932 30.2572 27.4798 30.2572H28.2336C28.6202 30.2572 28.9336 29.9438 28.9336 29.5572C28.9336 29.1706 28.6202 28.8572 28.2336 28.8572Z" fill="#231F20"/>
<path d="M14.0802 8.57149H11.7879C11.4013 8.57149 11.0879 8.88489 11.0879 9.27149C11.0879 9.65809 11.4013 9.97149 11.7879 9.97149H14.0802C14.4668 9.97149 14.7802 9.65809 14.7802 9.27149C14.7802 8.88489 14.4668 8.57149 14.0802 8.57149Z" fill="#231F20"/>
<path d="M17.7725 10.5715H11.7879C11.4013 10.5715 11.0879 10.8849 11.0879 11.2715C11.0879 11.6581 11.4013 11.9715 11.7879 11.9715H17.7725C18.1591 11.9715 18.4725 11.6581 18.4725 11.2715C18.4725 10.8849 18.1591 10.5715 17.7725 10.5715Z" fill="#231F20"/>
</g>
<rect x="1.06074" y="1.04998" width="37.9" height="37.9" rx="6.95" stroke="white" stroke-opacity="0.15" stroke-width="2.1"/>
<defs>
<filter id="filter0_d_2_2048" x="2.01074" y="1.99998" width="36" height="36" filterUnits="userSpaceOnUse" color-interpolation-filters="sRGB">
<feFlood flood-opacity="0" result="BackgroundImageFix"/>
<feColorMatrix in="SourceAlpha" type="matrix" values="0 0 0 0 0 0 0 0 0 0 0 0 0 0 0 0 0 0 127 0" result="hardAlpha"/>
<feOffset/>
<feGaussianBlur stdDeviation="2"/>
<feComposite in2="hardAlpha" operator="out"/>
<feColorMatrix type="matrix" values="0 0 0 0 0 0 0 0 0 0 0 0 0 0 0 0 0 0 0.25 0"/>
<feBlend mode="normal" in2="BackgroundImageFix" result="effect1_dropShadow_2_2048"/>
<feBlend mode="normal" in="SourceGraphic" in2="effect1_dropShadow_2_2048" result="shape"/>
</filter>
<linearGradient id="paint0_linear_2_2048" x1="20.0107" y1="-1.52588e-05" x2="20.0107" y2="40" gradientUnits="userSpaceOnUse">
<stop stop-color="#303030"/>
<stop offset="1" stop-color="#1D1D1D"/>
</linearGradient>
</defs>
</svg>
