<svg width="41" height="40" viewBox="0 0 41 40" fill="none" xmlns="http://www.w3.org/2000/svg">
<rect x="0.0107422" y="-3.05176e-05" width="40" height="40" rx="8" fill="url(#paint0_linear_2_2070)"/>
<g filter="url(#filter0_d_2_2070)">
<path fill-rule="evenodd" clip-rule="evenodd" d="M7.01123 10.2223C7.01123 9.89812 7.13963 9.58723 7.36817 9.358C7.59672 9.12878 7.90669 9.00001 8.2299 9.00001H15.1406C17.1343 9.00001 18.9055 9.96153 20.0153 11.4462C20.5827 10.6857 21.3192 10.0685 22.1664 9.6438C23.0135 9.21912 23.9478 8.99867 24.8949 9.00001H31.7925C32.1158 9.00001 32.4257 9.12878 32.6543 9.358C32.8828 9.58723 33.0112 9.89812 33.0112 10.2223V27.3342C33.0112 27.6584 32.8828 27.9693 32.6543 28.1985C32.4257 28.4277 32.1158 28.5565 31.7925 28.5565H24.4691C23.989 28.5565 23.5136 28.6513 23.07 28.8356C22.6265 29.0199 22.2234 29.29 21.8839 29.6305L20.8732 30.6425C20.6447 30.8714 20.335 31 20.012 31C19.6891 31 19.3793 30.8714 19.1508 30.6425L18.1402 29.6305C17.8007 29.29 17.3976 29.0199 16.954 28.8356C16.5105 28.6513 16.0351 28.5565 15.5549 28.5565H8.2299C7.90669 28.5565 7.59672 28.4277 7.36817 28.1985C7.13963 27.9693 7.01123 27.6584 7.01123 27.3342V10.2223ZM21.2372 15.1114C21.2372 14.1389 21.6224 13.2062 22.308 12.5186C22.9937 11.8309 23.9236 11.4446 24.8932 11.4446H30.5723V26.1119H24.4675C23.3138 26.1119 22.1927 26.4395 21.2307 27.0441L21.2372 15.1114ZM18.7934 27.0474L18.7999 18.7799L18.7966 15.1082C18.7958 14.1362 18.4102 13.2044 17.7246 12.5174C17.0391 11.8304 16.1097 11.4446 15.1406 11.4446H9.44858V26.1119H15.5533C16.6996 26.1119 17.8226 26.4361 18.7934 27.0474Z" fill="#E8E8E8"/>
</g>
<rect x="1.06074" y="1.04997" width="37.9" height="37.9" rx="6.95" stroke="white" stroke-opacity="0.15" stroke-width="2.1"/>
<defs>
<filter id="filter0_d_2_2070" x="2.01074" y="1.99997" width="36" height="36" filterUnits="userSpaceOnUse" color-interpolation-filters="sRGB">
<feFlood flood-opacity="0" result="BackgroundImageFix"/>
<feColorMatrix in="SourceAlpha" type="matrix" values="0 0 0 0 0 0 0 0 0 0 0 0 0 0 0 0 0 0 127 0" result="hardAlpha"/>
<feOffset/>
<feGaussianBlur stdDeviation="2"/>
<feComposite in2="hardAlpha" operator="out"/>
<feColorMatrix type="matrix" values="0 0 0 0 0 0 0 0 0 0 0 0 0 0 0 0 0 0 0.25 0"/>
<feBlend mode="normal" in2="BackgroundImageFix" result="effect1_dropShadow_2_2070"/>
<feBlend mode="normal" in="SourceGraphic" in2="effect1_dropShadow_2_2070" result="shape"/>
</filter>
<linearGradient id="paint0_linear_2_2070" x1="20.0107" y1="-3.05176e-05" x2="20.0107" y2="40" gradientUnits="userSpaceOnUse">
<stop stop-color="#1B2330"/>
<stop offset="1" stop-color="#10151D"/>
</linearGradient>
</defs>
</svg>
