<svg width="41" height="40" viewBox="0 0 41 40" fill="none" xmlns="http://www.w3.org/2000/svg">
<rect x="0.0107422" y="-2.28882e-05" width="40" height="40" rx="8" fill="url(#paint0_linear_2_2063)"/>
<g filter="url(#filter0_d_2_2063)">
<path d="M18.6139 26.6684C19.0513 26.6684 19.445 27.0146 19.445 27.4905C19.445 27.9232 19.0951 28.3126 18.6139 28.3126C18.1765 28.3126 17.7828 27.9664 17.7828 27.4905C17.7828 27.0146 18.1765 26.6684 18.6139 26.6684ZM31.4738 21.6495C31.0364 21.6495 30.6427 21.3033 30.6427 20.8274C30.6427 20.3947 30.9926 20.0053 31.4738 20.0053C31.9112 20.0053 32.3048 20.3515 32.3048 20.8274C32.3048 21.2601 31.9112 21.6495 31.4738 21.6495ZM31.4738 18.3179C30.0741 18.3179 28.9368 19.4429 28.9368 20.8274C28.9368 21.087 28.9805 21.3466 29.068 21.6062L20.7135 26.0194C20.2323 25.3272 19.445 24.9378 18.6139 24.9378C17.6516 24.9378 16.7768 25.5002 16.3394 26.3223L8.81592 22.4283C8.02859 21.9956 7.41621 20.7409 7.50369 19.5294C7.54743 18.9237 7.76614 18.4477 8.07233 18.2747C8.29103 18.1449 8.50974 18.1881 8.81592 18.3179L8.85966 18.3612C10.8718 19.3996 17.3892 22.7744 17.6516 22.9042C18.089 23.0773 18.3077 23.1638 19.0513 22.8177L32.5235 15.895C32.7423 15.8085 32.961 15.6354 32.961 15.3325C32.961 14.9431 32.5673 14.7701 32.5673 14.7701C31.78 14.4239 30.5989 13.8615 29.4617 13.3423C27.0122 12.2173 24.2128 10.9193 22.988 10.2703C21.9382 9.70785 21.0634 10.1838 20.9322 10.2703L20.626 10.4001C15.0709 13.1692 7.7224 16.7603 7.28499 17.0199C6.54139 17.4526 6.06024 18.3612 6.0165 19.4861C5.92902 21.2601 6.84758 23.1206 8.15981 23.7696L16.1207 27.8366C16.2956 29.0481 17.3892 30 18.6139 30C20.0136 30 21.1071 28.9183 21.1509 27.5338L29.8991 22.861C30.3365 23.2071 30.9051 23.3802 31.4738 23.3802C32.8735 23.3802 34.0107 22.2552 34.0107 20.8707C34.0107 19.4429 32.8735 18.3179 31.4738 18.3179Z" fill="#4285FD"/>
</g>
<rect x="1.06074" y="1.04998" width="37.9" height="37.9" rx="6.95" stroke="white" stroke-opacity="0.15" stroke-width="2.1"/>
<defs>
<filter id="filter0_d_2_2063" x="2.01074" y="1.99998" width="36" height="36" filterUnits="userSpaceOnUse" color-interpolation-filters="sRGB">
<feFlood flood-opacity="0" result="BackgroundImageFix"/>
<feColorMatrix in="SourceAlpha" type="matrix" values="0 0 0 0 0 0 0 0 0 0 0 0 0 0 0 0 0 0 127 0" result="hardAlpha"/>
<feOffset/>
<feGaussianBlur stdDeviation="2"/>
<feComposite in2="hardAlpha" operator="out"/>
<feColorMatrix type="matrix" values="0 0 0 0 0 0 0 0 0 0 0 0 0 0 0 0 0 0 0.25 0"/>
<feBlend mode="normal" in2="BackgroundImageFix" result="effect1_dropShadow_2_2063"/>
<feBlend mode="normal" in="SourceGraphic" in2="effect1_dropShadow_2_2063" result="shape"/>
</filter>
<linearGradient id="paint0_linear_2_2063" x1="20.0107" y1="-2.28882e-05" x2="20.0107" y2="40" gradientUnits="userSpaceOnUse">
<stop stop-color="#121E34"/>
<stop offset="1" stop-color="#0A121F"/>
</linearGradient>
</defs>
</svg>
