<svg width="41" height="40" viewBox="0 0 41 40" fill="none" xmlns="http://www.w3.org/2000/svg">
<rect x="0.0107422" y="-4.57764e-05" width="40" height="40" rx="8" fill="url(#paint0_linear_2_2077)"/>
<g filter="url(#filter0_d_2_2077)">
<path d="M18.5968 19.495C18.2686 19.53 18.0141 19.7916 17.9915 20.1163C17.9689 20.4409 18.1848 20.7345 18.5045 20.8137C18.5045 20.8137 20.1612 21.3605 22.9818 21.585C25.2468 21.7674 27.8151 21.4305 27.8151 21.4305C28.0811 21.434 28.325 21.2844 28.439 21.0473C28.5529 20.8102 28.5166 20.5293 28.3459 20.328C28.1751 20.1268 27.9007 20.0428 27.6444 20.1123C27.6444 20.1123 25.1319 20.4208 23.0877 20.2523C20.3962 20.0423 18.9262 19.551 18.9262 19.551C18.818 19.5247 18.7045 19.5247 18.5972 19.551L18.5968 19.495ZM18.5968 16.1699C18.2846 16.2194 18.0478 16.4744 18.0256 16.7859C18.0035 17.0974 18.2021 17.3827 18.5045 17.4741C18.5045 17.4741 20.1612 18.021 22.9818 18.2455C25.2468 18.4279 27.8151 18.091 27.8151 18.091C28.0563 18.0604 28.2585 17.906 28.3574 17.685C28.4563 17.4641 28.4195 17.2099 28.2718 17.0187C28.1241 16.8275 27.886 16.7286 27.6439 16.7588C27.6439 16.7588 25.1315 17.0673 23.0873 16.8988C20.3957 16.6888 18.9258 16.1975 18.9258 16.1975C18.8176 16.1712 18.7041 16.1712 18.5968 16.1975V16.1699ZM18.5968 12.8431C18.2686 12.8781 18.0141 13.1397 17.9915 13.4644C17.9689 13.789 18.1848 14.0826 18.5045 14.1617C18.5045 14.1617 20.1612 14.6946 22.9818 14.9331C25.2468 15.1155 27.8151 14.7786 27.8151 14.7786C28.0563 14.748 28.2585 14.5936 28.3574 14.3726C28.4563 14.1517 28.4195 13.8975 28.2718 13.7063C28.1241 13.5151 27.886 13.4162 27.6439 13.4464C27.6439 13.4464 25.1315 13.7549 23.0873 13.5864C20.3957 13.3764 18.9258 12.8851 18.9258 12.8851C18.8176 12.8588 18.7041 12.8588 18.5968 12.8851V12.8431ZM18.5968 9.51626C18.2686 9.55126 18.0141 9.8129 17.9915 10.1375C17.9689 10.4622 18.1848 10.7557 18.5045 10.8349C18.5045 10.8349 20.1612 11.3818 22.9818 11.6062C25.2468 11.7887 27.8151 11.4518 27.8151 11.4518C28.0811 11.4553 28.325 11.3057 28.439 11.0685C28.5529 10.8314 28.5166 10.5505 28.3459 10.3493C28.1751 10.148 27.9007 10.064 27.6444 10.1336C27.6444 10.1336 25.1319 10.442 23.0877 10.2736C20.3962 10.0636 18.9262 9.57226 18.9262 9.57226C18.818 9.54601 18.7045 9.54601 18.5972 9.57226L18.5968 9.51626ZM13.8743 6.00831C10.3269 6.00831 9.01172 7.10208 9.01172 7.10208V33.207C9.01172 33.207 10.3008 32.1132 14.4503 32.2812C18.5999 32.4492 19.4557 33.8843 24.5559 33.9853C29.6553 34.1253 30.9377 33.214 30.9377 33.214L31.0117 6.60113C31.0117 6.60113 28.7157 7.2469 24.2495 7.27534C19.7834 7.27534 18.7098 6.15269 14.6104 6.01268C14.3656 6.00372 14.1206 5.99949 13.8756 5.99999L13.8743 6.00831ZM16.8386 7.71241C16.8386 7.71241 18.9848 8.41374 22.9507 8.61018C26.3021 8.77862 29.6628 8.28774 29.6628 8.28774V31.9395C29.6628 31.9395 27.9619 32.8233 23.7099 32.5144C20.4152 32.276 16.7894 31.0514 16.7894 31.0514L16.8386 7.71241ZM14.7687 8.32492C15.15 8.32492 15.4582 8.62943 15.4582 9.00525C15.4582 9.38107 15.1496 9.68558 14.7687 9.68558C14.7687 9.68558 13.6584 9.69127 12.9804 9.82558C11.8421 9.96559 11.0692 10.3445 11.0692 10.3445C10.8519 10.4792 10.5757 10.4823 10.3553 10.3532C10.1349 10.2242 10.0059 9.98265 10.0227 9.72977C10.0396 9.47689 10.1974 9.25419 10.4333 9.15313C10.4333 9.15313 11.4412 8.63424 12.8464 8.4938C13.6579 8.3538 14.7696 8.3538 14.7696 8.3538L14.7687 8.32492ZM14.1071 11.6601C14.3276 11.654 14.5482 11.654 14.7687 11.6601C15.1234 11.6898 15.3952 11.9825 15.3952 12.3338C15.3952 12.6851 15.123 12.977 14.7687 13.0076C14.7687 13.0076 13.6584 13.0133 12.9804 13.1476C11.8421 13.2876 11.0692 13.6665 11.0692 13.6665C10.7411 13.8074 10.3575 13.6752 10.1903 13.362C10.0232 13.0487 10.1283 12.662 10.4324 12.4738C10.4324 12.4738 11.4403 11.9409 12.8456 11.8145C13.2517 11.8145 13.7324 11.8145 14.1071 11.6745V11.6601ZM14.7687 14.9838C15.15 14.9838 15.4582 15.2883 15.4582 15.6642C15.4582 16.04 15.1496 16.3445 14.7687 16.3445C14.7687 16.3445 13.6584 16.3375 12.9804 16.3445C11.8421 16.4845 11.0692 16.8634 11.0692 16.8634C10.7411 17.0042 10.3575 16.8721 10.1903 16.5589C10.0232 16.2456 10.1283 15.8588 10.4324 15.6707C10.4324 15.6707 11.4403 15.1518 12.8456 15.0114C13.657 14.8714 14.7687 14.8714 14.7687 14.8714V14.9838Z" fill="white"/>
</g>
<rect x="1.06074" y="1.04995" width="37.9" height="37.9" rx="6.95" stroke="white" stroke-opacity="0.15" stroke-width="2.1"/>
<defs>
<filter id="filter0_d_2_2077" x="2.01074" y="1.99995" width="36" height="36" filterUnits="userSpaceOnUse" color-interpolation-filters="sRGB">
<feFlood flood-opacity="0" result="BackgroundImageFix"/>
<feColorMatrix in="SourceAlpha" type="matrix" values="0 0 0 0 0 0 0 0 0 0 0 0 0 0 0 0 0 0 127 0" result="hardAlpha"/>
<feOffset/>
<feGaussianBlur stdDeviation="2"/>
<feComposite in2="hardAlpha" operator="out"/>
<feColorMatrix type="matrix" values="0 0 0 0 0 0 0 0 0 0 0 0 0 0 0 0 0 0 0.25 0"/>
<feBlend mode="normal" in2="BackgroundImageFix" result="effect1_dropShadow_2_2077"/>
<feBlend mode="normal" in="SourceGraphic" in2="effect1_dropShadow_2_2077" result="shape"/>
</filter>
<linearGradient id="paint0_linear_2_2077" x1="20.0107" y1="-4.57764e-05" x2="20.0107" y2="39.9999" gradientUnits="userSpaceOnUse">
<stop stop-color="#24292C"/>
<stop offset="1" stop-color="#171A1C"/>
</linearGradient>
</defs>
</svg>
