<svg width="253" height="41" viewBox="0 0 253 41" fill="none" xmlns="http://www.w3.org/2000/svg">
<g clip-path="url(#clip0_8_104)">
<rect x="-0.000732422" y="0.0401611" width="253" height="40" rx="8" fill="url(#paint0_linear_8_104)"/>
<g filter="url(#filter0_d_8_104)">
<path d="M32.5177 18.7801C32.393 18.7726 32.2686 18.7989 32.1574 18.856C32.0463 18.9131 31.9524 18.999 31.8857 19.1048C31.6339 18.9464 30.951 18.6137 30.6859 18.4768L30.5895 18.4285C30.5819 18.4252 30.5737 18.4235 30.5654 18.4235C30.5571 18.4235 30.5489 18.4252 30.5413 18.4285V18.4124C30.5427 18.3927 30.5427 18.373 30.5413 18.3533C30.8091 12.83 25.2307 8.5386 19.8291 10.1999C18.5366 10.6119 17.3616 11.3288 16.403 12.2904C15.4444 13.252 14.7302 14.4302 14.3203 15.7259C14.1001 16.5298 13.9831 17.3587 13.9722 18.1923L13.7686 18.2728L13.6213 18.3345C13.3535 18.4526 13.0857 18.5788 12.8179 18.7156C12.5501 18.8525 12.2823 18.984 12.0386 19.1531C12.0215 19.1637 12.0088 19.1801 12.0029 19.1994C11.997 19.2186 11.9983 19.2394 12.0065 19.2578C12.0163 19.2772 12.0331 19.2921 12.0535 19.2996C12.0738 19.307 12.0963 19.3065 12.1163 19.298C12.3841 19.1746 12.6519 19.0645 12.9197 18.9626C13.1875 18.8606 13.4687 18.7693 13.7472 18.6942H13.7633C13.8972 18.6539 14.0311 18.619 14.1677 18.5841L14.3766 18.5358H14.4007L14.5881 18.4956C14.8693 18.4338 15.1532 18.3963 15.4371 18.3614H15.4692C15.5094 18.3555 15.5479 18.3413 15.5823 18.3196C15.6166 18.298 15.6461 18.2694 15.6689 18.2357C15.6916 18.202 15.7071 18.1639 15.7143 18.1239C15.7215 18.0838 15.7203 18.0427 15.7107 18.0032C15.7012 17.9636 15.6835 17.9265 15.6589 17.8942C15.6342 17.8619 15.6031 17.8351 15.5675 17.8155C15.5319 17.7959 15.4927 17.784 15.4522 17.7805C15.4118 17.777 15.371 17.7819 15.3326 17.7951C15.0648 17.8595 14.797 17.9293 14.5533 18.0125L14.6042 17.9964C14.6196 17.2533 14.7267 16.5151 14.9229 15.7983C15.3026 14.6027 15.9628 13.5157 16.8482 12.6285C17.7335 11.7413 18.8181 11.0797 20.0112 10.6991C20.2257 10.6337 20.4428 10.5773 20.6619 10.53C20.8735 10.4844 21.7198 10.3636 20.7958 10.8816C19.2603 11.7664 18.1131 13.1977 17.5822 14.8912C17.3144 15.7581 17.2099 17.4677 17.3974 18.7801C17.4563 19.1907 17.3171 19.2712 17.0626 19.3785C16.527 19.6067 15.5897 20.02 15.1077 20.605C14.9202 20.8305 14.8399 20.605 14.7943 20.444C14.7006 20.0022 14.6433 19.5534 14.6229 19.1021C14.6219 19.0827 14.6167 19.0637 14.6075 19.0466C14.5983 19.0294 14.5854 19.0145 14.5698 19.003C14.5542 18.9914 14.5362 18.9835 14.5171 18.9797C14.498 18.976 14.4784 18.9765 14.4596 18.9813C14.3283 19.0135 14.1918 19.0457 14.0686 19.0887C14.042 19.0979 14.0191 19.1153 14.0032 19.1385C13.9873 19.1617 13.9792 19.1894 13.9802 19.2175C14.0552 20.9432 14.4917 22.5481 15.5362 22.4971C15.5561 22.4957 15.5754 22.4899 15.5929 22.4803C15.6104 22.4707 15.6257 22.4574 15.6376 22.4414C15.6495 22.4254 15.6579 22.4069 15.6621 22.3874C15.6663 22.3678 15.6663 22.3476 15.662 22.3281C15.4987 22.2397 15.371 22.0975 15.3005 21.9255C14.955 20.8895 18.158 19.5342 22.2634 18.9196C26.0341 18.3533 29.2719 18.611 29.8343 19.4725C29.9505 19.6201 29.9634 19.8241 29.8664 19.9851C29.6294 20.4115 29.2753 20.7608 28.8461 20.9915C28.8281 21.0024 28.8125 21.0169 28.8003 21.0341C28.7881 21.0512 28.7795 21.0706 28.775 21.0912C28.7704 21.1118 28.7702 21.1331 28.7741 21.1538C28.778 21.1744 28.7861 21.1941 28.7979 21.2116C28.8183 21.2436 28.85 21.2669 28.8866 21.2768C28.9233 21.2867 28.9623 21.2826 28.996 21.2653C29.5213 21.0078 29.9591 20.6007 30.2547 20.0951C30.4212 19.7156 30.5122 19.3072 30.5225 18.8928C30.7903 18.976 31.4973 19.2605 31.7678 19.3705H31.7893C31.778 19.4154 31.7708 19.4612 31.7678 19.5074C31.7601 19.706 31.8284 19.9 31.9589 20.0497C32.0894 20.1995 32.2721 20.2935 32.4695 20.3125C32.5624 20.3168 32.6553 20.3026 32.7428 20.2708C32.8302 20.2389 32.9105 20.19 32.979 20.1269C33.0474 20.0637 33.1028 19.9876 33.1417 19.903C33.1807 19.8183 33.2025 19.7267 33.2059 19.6335C33.2188 19.4344 33.1544 19.2381 33.0261 19.0855C32.8978 18.9329 32.7156 18.836 32.5177 18.8149V18.7801ZM27.2366 17.0356C27.2385 17.0866 27.2298 17.1375 27.211 17.1849C27.1923 17.2324 27.1638 17.2754 27.1275 17.3113C27.0913 17.3471 27.0479 17.375 27.0003 17.3932C26.9527 17.4113 26.9018 17.4193 26.8509 17.4167C25.9498 17.3469 25.0441 17.3631 24.1461 17.465C24.0946 17.4692 24.0428 17.4624 23.994 17.4451C23.9453 17.4278 23.9008 17.4004 23.8634 17.3647C23.8259 17.329 23.7965 17.2857 23.7769 17.2378C23.7573 17.1899 23.7481 17.1383 23.7497 17.0866V16.7699C23.75 16.7311 23.7634 16.6935 23.7877 16.6633C23.812 16.633 23.8458 16.612 23.8836 16.6035C24.9466 16.4258 26.0305 16.4131 27.0973 16.5659C27.1356 16.5724 27.1703 16.5925 27.1949 16.6226C27.2195 16.6527 27.2324 16.6907 27.2312 16.7296L27.2366 17.0356ZM29.1273 16.1365C29.1097 16.1637 29.0833 16.1839 29.0525 16.1936C29.0217 16.2034 28.9885 16.2022 28.9586 16.1902C26.6233 15.3018 22.9785 15.8037 22.9785 15.8037C21.7284 15.9283 20.4991 16.2115 19.3202 16.6464C19.2569 16.6707 19.1886 16.679 19.1213 16.6705C19.054 16.662 18.9898 16.637 18.9345 16.5977C18.8791 16.5584 18.8343 16.5061 18.8039 16.4453C18.7736 16.3845 18.7587 16.3172 18.7605 16.2492C18.77 15.9279 18.8022 15.6078 18.8569 15.2911C18.9752 14.4247 19.324 13.6061 19.8666 12.9213C19.8987 12.8837 19.9308 12.8461 19.9657 12.8112C19.9713 12.8012 19.9785 12.7921 19.9871 12.7844L20.0031 12.7656L20.0433 12.7227L20.0621 12.7039C21.6501 11.0399 24.4434 10.8494 26.4037 11.9336C27.384 12.4866 28.1965 13.2954 28.755 14.2739C28.8407 14.4349 29.3817 15.6883 29.1273 16.1365Z" fill="#0C9EF0"/>
<path d="M27.8848 14.0539C27.4418 13.2968 26.7664 12.7036 25.9593 12.3631C25.0592 11.9835 24.0791 11.8341 23.1071 11.9283C22.7619 11.9555 22.4222 12.0304 22.0975 12.151C22.0661 12.1601 22.039 12.1801 22.0211 12.2075C22.0032 12.2349 21.9956 12.2678 21.9998 12.3002C22.004 12.3327 22.0197 12.3626 22.044 12.3844C22.0683 12.4063 22.0997 12.4187 22.1323 12.4194C22.8646 12.342 23.6039 12.3618 24.331 12.4785C27.0091 13.0152 27.866 14.3061 27.9598 14.3571C27.9865 14.3706 28.0187 14.3437 28.0053 14.3169C27.9707 14.2254 27.9314 14.1358 27.8875 14.0485M15.9085 18.7371C15.9312 18.7692 15.9607 18.7958 15.9948 18.8152C16.0289 18.8345 16.0668 18.8462 16.1059 18.8492C16.145 18.8523 16.1842 18.8467 16.2209 18.8329C16.2576 18.8191 16.2909 18.7974 16.3183 18.7693C16.4074 18.6795 16.4727 18.5688 16.5084 18.4473C16.5905 18.1353 16.5708 17.8052 16.4522 17.5053C16.3758 17.3139 16.2371 17.154 16.0585 17.0517C16.0423 17.0414 16.0243 17.0345 16.0055 17.0313C15.9866 17.0281 15.9673 17.0286 15.9487 17.0329C15.8388 17.0698 15.7445 17.1425 15.6809 17.2396C15.673 17.2495 15.6673 17.261 15.6642 17.2732C15.6612 17.2855 15.6608 17.2984 15.663 17.3108C15.6653 17.3233 15.6702 17.3351 15.6775 17.3455C15.6847 17.3559 15.6941 17.3646 15.705 17.3711C15.8124 17.4279 15.9055 17.5084 15.9774 17.6064C16.0493 17.7045 16.0981 17.8177 16.1201 17.9374C16.1354 18.0599 16.1244 18.1844 16.0879 18.3024C16.0514 18.4204 15.9903 18.5293 15.9085 18.6217C15.8948 18.6378 15.8872 18.6583 15.8872 18.6794C15.8872 18.7006 15.8948 18.7211 15.9085 18.7371ZM10.9006 19.129C10.7861 19.1194 10.6709 19.1328 10.5617 19.1682C10.4524 19.2036 10.3513 19.2604 10.2641 19.3353C10.1769 19.4102 10.1054 19.5017 10.0538 19.6045C10.0021 19.7073 9.97136 19.8193 9.96325 19.9341C9.95946 20.1746 10.0489 20.4071 10.2127 20.5828C10.3766 20.7585 10.602 20.8637 10.8417 20.8761C11.0685 20.8925 11.2926 20.819 11.4659 20.6715C11.6392 20.5239 11.7478 20.3141 11.7683 20.0871C11.7778 19.8453 11.6922 19.6094 11.5299 19.4302C11.3676 19.251 11.1416 19.1429 10.9006 19.129Z" fill="#0C9EF0"/>
<path d="M35.9912 20.0683C35.9918 13.5085 31.4551 7.82476 25.0693 6.38409C18.683 4.94341 12.1539 8.13125 9.34968 14.0585C6.5455 19.9857 8.21499 27.0691 13.3697 31.1122L13.6375 31.3243C13.7286 31.394 13.8223 31.4611 13.9053 31.5282C15.3439 32.5483 16.9623 33.286 18.6749 33.7021H18.7151L18.9535 33.7585L19.0258 33.7719L19.2507 33.8202L19.3391 33.8363L19.5587 33.8766L19.6444 33.8927C19.789 33.916 19.9336 33.9375 20.0782 33.9571L20.1639 33.9705L20.3273 33.9893L20.4933 34.0081L20.6487 34.0242L20.8281 34.0403H23.0375L23.1901 34.0269L23.3856 34.0108L23.5463 33.992L23.7338 33.9705L23.8971 33.949L24.0766 33.9222L24.2426 33.8954L24.4167 33.8685L24.5854 33.8363L24.7568 33.8041L24.9255 33.7665L25.0915 33.7317L25.2603 33.6914L25.4236 33.6511L25.6298 33.6216L25.7852 33.5787L25.9592 33.5304L26.1119 33.4847L26.2833 33.4284C26.3342 33.415 26.3842 33.3989 26.4333 33.3801L26.6073 33.321L26.7519 33.27L26.926 33.2056L27.0653 33.1519L27.2367 33.0849L27.3706 33.0312L27.5473 32.956L27.6785 32.8997L27.8553 32.8192L27.9812 32.7601L28.1579 32.6742L28.2784 32.6125L28.4552 32.5239L28.573 32.4595C28.6346 32.43 28.6935 32.3978 28.7498 32.3656L28.8649 32.3012L29.0417 32.1992L29.1488 32.1348L29.3282 32.0274L29.43 31.963L29.6094 31.8503L29.7058 31.7859L29.8853 31.6651L29.9763 31.6034L30.1584 31.4746L30.2414 31.4128L30.4262 31.276L30.5012 31.2196L30.6887 31.0747L30.7556 31.0183L30.9458 30.8653L31.002 30.8143L31.1975 30.6506L31.243 30.6104L31.4439 30.4279L31.4733 30.4037L31.6849 30.2024C33.0509 28.8948 34.1376 27.3228 34.8792 25.5818C35.6209 23.8407 36.0019 21.9668 35.9993 20.0737M26.2592 24.765C26.2404 24.6094 26.2217 24.451 26.1976 24.2953C26.1735 24.1397 26.1521 23.984 26.1226 23.831C26.0931 23.6781 26.069 23.5224 26.0396 23.3694C26.0101 23.2165 25.9726 23.0608 25.9351 22.9212C25.9242 22.8703 25.9326 22.8172 25.9587 22.7722C25.9848 22.7272 26.0266 22.6935 26.0761 22.6777C26.1256 22.662 26.1792 22.6653 26.2264 22.687C26.2736 22.7087 26.3111 22.7472 26.3315 22.7951C26.3904 22.9615 26.4306 23.1118 26.4734 23.2728C26.5163 23.4338 26.5538 23.5868 26.5886 23.7452C26.6555 24.0645 26.7091 24.3812 26.76 24.7006C26.8242 25.1193 26.8671 25.5406 26.9019 25.9593C27.1697 25.9727 27.4563 25.9915 27.7321 26.0184C28.4801 26.0953 29.218 26.2509 29.9335 26.4827C29.9774 26.4989 30.0139 26.5308 30.0358 26.5722C30.0578 26.6137 30.0637 26.6618 30.0524 26.7074C30.0411 26.753 30.0134 26.7928 29.9747 26.8191C29.9359 26.8455 29.8888 26.8566 29.8424 26.8503H29.829C29.4702 26.7886 29.122 26.7027 28.7578 26.6625L28.49 26.6222L28.3561 26.6034H28.2222L27.6866 26.5524C27.5955 26.539 27.5045 26.5524 27.4188 26.5337L27.151 26.5175H26.9528V26.6544L26.9742 27.1348V28.5841C26.9742 28.9061 26.9501 29.2255 26.9394 29.5449C26.9287 29.8643 26.8939 30.1863 26.8644 30.5057C26.8567 30.5569 26.8304 30.6034 26.7905 30.6363C26.7506 30.6692 26.7 30.6861 26.6484 30.6837C26.5968 30.6814 26.5479 30.66 26.5112 30.6236C26.4744 30.5873 26.4524 30.5386 26.4493 30.4869C26.4493 30.1702 26.4493 29.8535 26.4654 29.5368C26.4815 29.2202 26.4654 28.9008 26.4654 28.5841C26.4654 28.2674 26.4654 27.9507 26.4493 27.6367L26.4333 27.1617V26.6437V26.4639H25.5388C25.3567 26.4639 25.1746 26.48 25.0032 26.4853C24.8318 26.4907 24.639 26.5041 24.4676 26.5202C24.1033 26.5444 23.7391 26.5793 23.3776 26.6195C22.6518 26.7027 21.9234 26.8074 21.2137 26.947C21.1641 26.9565 21.1126 26.9461 21.0706 26.9179C21.0285 26.8898 20.9991 26.8463 20.9888 26.7967C20.9803 26.7495 20.9896 26.7009 21.0148 26.6603C21.04 26.6196 21.0794 26.5898 21.1254 26.5766C21.4922 26.4773 21.8511 26.3995 22.218 26.327C22.5849 26.2545 22.9491 26.1955 23.3187 26.1391C23.5008 26.1096 23.6882 26.0908 23.873 26.0667C24.0578 26.0425 24.2426 26.0237 24.4274 26.0076C24.6122 25.9915 24.797 25.9727 24.9844 25.9647C25.1719 25.9566 25.3567 25.9378 25.5441 25.9352C25.8387 25.9217 26.1333 25.9191 26.4306 25.9352C26.3984 25.5406 26.3609 25.1488 26.3127 24.7596M19.1623 22.8568C19.0284 23.3023 18.7151 24.3759 18.5196 25.2159C18.0178 27.6646 17.6521 30.1393 17.4243 32.6286C16.2168 32.1829 15.0809 31.5627 14.0526 30.7875C14.2674 29.1716 14.6122 27.5758 15.0837 26.0157C15.2552 25.4495 15.4906 24.9047 15.7853 24.392C16.0214 24.0473 16.3475 23.7743 16.728 23.6029L16.7976 23.5707L16.9128 23.5063L17.0601 23.4312C17.1618 23.3829 17.2609 23.3345 17.36 23.2916L17.5127 23.2245L17.6626 23.1628L17.9679 23.0447C18.2357 22.9454 18.691 22.8058 18.9749 22.7226C19.1222 22.6797 19.1998 22.7226 19.1623 22.8568ZM31.0904 26.6142C30.6726 25.0549 30.1075 22.6126 28.4391 22.0517C26.6609 21.4451 24.7488 21.378 22.9009 21.4961C21.5854 21.5808 20.2837 21.814 19.0204 22.1912C18.4607 22.3549 16.6664 23.0447 16.3102 23.2272C15.9029 23.4113 15.5537 23.7036 15.3006 24.0726C14.9846 24.6218 14.7321 25.2052 14.5481 25.8117C14.098 27.3064 13.7535 28.831 13.517 30.3742C13.2037 30.1058 12.8984 29.8374 12.6065 29.5395C7.40836 24.3318 7.3848 15.8939 12.554 10.6573C17.7232 5.4206 26.1427 5.35296 31.3952 10.5059C36.6473 15.6588 36.759 24.0959 31.6447 29.3866C31.5202 28.4522 31.335 27.527 31.0904 26.6169" fill="#0C9EF0"/>
</g>
<g filter="url(#filter1_d_8_104)">
<path d="M43.3576 26.5402V14.1765H47.7645C48.7224 14.1765 49.5173 14.3415 50.1491 14.6716C50.785 15.0016 51.2599 15.4584 51.5738 16.0419C51.8878 16.6215 52.0447 17.2916 52.0447 18.0522C52.0447 18.8089 51.8857 19.4749 51.5678 20.0505C51.2539 20.622 50.779 21.0667 50.1431 21.3846C49.5112 21.7026 48.7164 21.8615 47.7585 21.8615H44.4201V20.2557H47.5895C48.1932 20.2557 48.6842 20.1692 49.0625 19.9961C49.4448 19.8231 49.7245 19.5715 49.9016 19.2415C50.0787 18.9115 50.1672 18.5151 50.1672 18.0522C50.1672 17.5854 50.0767 17.1809 49.8956 16.8388C49.7185 16.4967 49.4388 16.2351 49.0564 16.054C48.6781 15.8689 48.1811 15.7763 47.5653 15.7763H45.223V26.5402H43.3576ZM49.4609 20.962L52.5156 26.5402H50.3906L47.3963 20.962H49.4609ZM58.05 26.7273C57.1364 26.7273 56.3496 26.5321 55.6895 26.1417C55.0335 25.7473 54.5264 25.1939 54.1682 24.4816C53.814 23.7652 53.637 22.926 53.637 21.9642C53.637 21.0144 53.814 20.1772 54.1682 19.4528C54.5264 18.7284 55.0255 18.1629 55.6654 17.7564C56.3093 17.3499 57.0619 17.1467 57.9232 17.1467C58.4464 17.1467 58.9535 17.2332 59.4445 17.4063C59.9355 17.5793 60.3762 17.851 60.7666 18.2213C61.157 18.5915 61.4648 19.0725 61.6902 19.6641C61.9156 20.2517 62.0283 20.9661 62.0283 21.8072V22.4471H54.6572V21.0948H60.2595C60.2595 20.6199 60.1629 20.1994 59.9697 19.8331C59.7765 19.4629 59.5049 19.1711 59.1547 18.9578C58.8086 18.7445 58.4021 18.6378 57.9353 18.6378C57.4282 18.6378 56.9854 18.7626 56.6071 19.0121C56.2328 19.2576 55.9431 19.5796 55.7378 19.978C55.5366 20.3724 55.436 20.801 55.436 21.2639V22.3203C55.436 22.9401 55.5446 23.4674 55.762 23.902C55.9833 24.3367 56.2912 24.6687 56.6856 24.8981C57.08 25.1235 57.5408 25.2362 58.0681 25.2362C58.4102 25.2362 58.7221 25.1879 59.0038 25.0913C59.2855 24.9907 59.529 24.8418 59.7343 24.6446C59.9395 24.4474 60.0965 24.2039 60.2051 23.9141L61.9136 24.222C61.7768 24.7251 61.5313 25.1657 61.1771 25.5441C60.8269 25.9184 60.3862 26.2101 59.855 26.4194C59.3278 26.6247 58.7261 26.7273 58.05 26.7273ZM71.6979 17.2674L68.3354 26.5402H66.4036L63.035 17.2674H64.9728L67.3212 24.4031H67.4178L69.7601 17.2674H71.6979ZM73.3943 26.5402V17.2674H75.1994V26.5402H73.3943ZM74.3059 15.8367C73.992 15.8367 73.7223 15.732 73.4969 15.5228C73.2756 15.3095 73.1649 15.0559 73.1649 14.7621C73.1649 14.4643 73.2756 14.2107 73.4969 14.0015C73.7223 13.7881 73.992 13.6815 74.3059 13.6815C74.6198 13.6815 74.8875 13.7881 75.1088 14.0015C75.3342 14.2107 75.4469 14.4643 75.4469 14.7621C75.4469 15.0559 75.3342 15.3095 75.1088 15.5228C74.8875 15.732 74.6198 15.8367 74.3059 15.8367ZM81.6242 26.7273C80.7106 26.7273 79.9238 26.5321 79.2637 26.1417C78.6077 25.7473 78.1006 25.1939 77.7424 24.4816C77.3883 23.7652 77.2112 22.926 77.2112 21.9642C77.2112 21.0144 77.3883 20.1772 77.7424 19.4528C78.1006 18.7284 78.5997 18.1629 79.2396 17.7564C79.8835 17.3499 80.6361 17.1467 81.4974 17.1467C82.0206 17.1467 82.5277 17.2332 83.0187 17.4063C83.5097 17.5793 83.9504 17.851 84.3408 18.2213C84.7312 18.5915 85.0391 19.0725 85.2644 19.6641C85.4898 20.2517 85.6025 20.9661 85.6025 21.8072V22.4471H78.2314V21.0948H83.8337C83.8337 20.6199 83.7371 20.1994 83.5439 19.8331C83.3507 19.4629 83.0791 19.1711 82.7289 18.9578C82.3828 18.7445 81.9763 18.6378 81.5095 18.6378C81.0024 18.6378 80.5597 18.7626 80.1813 19.0121C79.8071 19.2576 79.5173 19.5796 79.312 19.978C79.1108 20.3724 79.0102 20.801 79.0102 21.2639V22.3203C79.0102 22.9401 79.1188 23.4674 79.3362 23.902C79.5575 24.3367 79.8654 24.6687 80.2598 24.8981C80.6542 25.1235 81.1151 25.2362 81.6423 25.2362C81.9844 25.2362 82.2963 25.1879 82.578 25.0913C82.8597 24.9907 83.1032 24.8418 83.3085 24.6446C83.5137 24.4474 83.6707 24.2039 83.7794 23.9141L85.4878 24.222C85.351 24.7251 85.1055 25.1657 84.7513 25.5441C84.4012 25.9184 83.9605 26.2101 83.4292 26.4194C82.902 26.6247 82.3003 26.7273 81.6242 26.7273ZM89.599 26.5402L86.8703 17.2674H88.7357L90.5528 24.0771H90.6433L92.4665 17.2674H94.3319L96.143 24.0469H96.2335L98.0386 17.2674H99.904L97.1813 26.5402H95.3401L93.4566 19.8452H93.3177L91.4342 26.5402H89.599ZM110.022 26.7273C109.153 26.7273 108.394 26.5281 107.746 26.1296C107.098 25.7312 106.595 25.1738 106.237 24.4574C105.879 23.741 105.699 22.9039 105.699 21.9461C105.699 20.9842 105.879 20.143 106.237 19.4226C106.595 18.7022 107.098 18.1428 107.746 17.7443C108.394 17.3459 109.153 17.1467 110.022 17.1467C110.891 17.1467 111.65 17.3459 112.298 17.7443C112.946 18.1428 113.449 18.7022 113.807 19.4226C114.165 20.143 114.344 20.9842 114.344 21.9461C114.344 22.9039 114.165 23.741 113.807 24.4574C113.449 25.1738 112.946 25.7312 112.298 26.1296C111.65 26.5281 110.891 26.7273 110.022 26.7273ZM110.028 25.212C110.591 25.212 111.058 25.0631 111.428 24.7653C111.799 24.4675 112.072 24.0711 112.25 23.576C112.431 23.081 112.521 22.5357 112.521 21.94C112.521 21.3484 112.431 20.8051 112.25 20.31C112.072 19.811 111.799 19.4105 111.428 19.1087C111.058 18.8068 110.591 18.6559 110.028 18.6559C109.46 18.6559 108.99 18.8068 108.615 19.1087C108.245 19.4105 107.969 19.811 107.788 20.31C107.611 20.8051 107.523 21.3484 107.523 21.94C107.523 22.5357 107.611 23.081 107.788 23.576C107.969 24.0711 108.245 24.4675 108.615 24.7653C108.99 25.0631 109.46 25.212 110.028 25.212ZM118.164 21.0345V26.5402H116.359V17.2674H118.092V18.7767H118.206C118.42 18.2857 118.754 17.8912 119.209 17.5934C119.667 17.2956 120.245 17.1467 120.941 17.1467C121.573 17.1467 122.126 17.2795 122.601 17.5451C123.076 17.8067 123.444 18.1971 123.706 18.7163C123.968 19.2355 124.098 19.8774 124.098 20.6421V26.5402H122.293V20.8594C122.293 20.1873 122.118 19.6621 121.768 19.2838C121.418 18.9014 120.937 18.7103 120.325 18.7103C119.907 18.7103 119.535 18.8008 119.209 18.9819C118.887 19.163 118.631 19.4287 118.442 19.7788C118.257 20.1249 118.164 20.5435 118.164 21.0345Z" fill="#E8E8E8"/>
<path d="M133.609 26.0402H130.398L134.569 13.6765H138.548L142.719 26.0402H139.507L136.604 16.7916H136.507L133.609 26.0402ZM133.181 21.1744H139.894V23.4443H133.181V21.1744ZM147.002 13.6765V26.0402H144.05V13.6765H147.002ZM154.115 16.7674V18.9407H148.266V16.7674H154.115ZM149.491 14.5458H152.443V23.1243C152.443 23.3054 152.471 23.4523 152.528 23.565C152.588 23.6737 152.674 23.7522 152.787 23.8005C152.9 23.8447 153.035 23.8669 153.192 23.8669C153.304 23.8669 153.423 23.8568 153.548 23.8367C153.677 23.8125 153.773 23.7924 153.838 23.7763L154.284 25.9073C154.143 25.9476 153.944 25.9979 153.687 26.0583C153.433 26.1186 153.129 26.1569 152.775 26.173C152.083 26.2052 151.489 26.1247 150.994 25.9315C150.503 25.7343 150.127 25.4284 149.865 25.0139C149.608 24.5993 149.483 24.0782 149.491 23.4503V14.5458ZM159.856 26.2152C158.886 26.2152 158.049 26.0241 157.345 25.6417C156.645 25.2554 156.105 24.706 155.727 23.9936C155.353 23.2773 155.166 22.426 155.166 21.44C155.166 20.4822 155.355 19.645 155.733 18.9287C156.112 18.2082 156.645 17.6488 157.333 17.2504C158.021 16.8479 158.832 16.6467 159.766 16.6467C160.426 16.6467 161.03 16.7493 161.577 16.9546C162.124 17.1598 162.597 17.4637 162.996 17.8662C163.394 18.2686 163.704 18.7657 163.925 19.3573C164.147 19.9449 164.257 20.619 164.257 21.3796V22.1162H156.198V20.4017H161.511C161.507 20.0877 161.432 19.808 161.287 19.5625C161.142 19.317 160.943 19.1259 160.69 18.989C160.44 18.8482 160.152 18.7777 159.826 18.7777C159.496 18.7777 159.2 18.8522 158.939 19.0011C158.677 19.146 158.47 19.3452 158.317 19.5988C158.164 19.8483 158.084 20.132 158.076 20.45V22.1946C158.076 22.5729 158.15 22.905 158.299 23.1907C158.448 23.4724 158.659 23.6918 158.933 23.8488C159.206 24.0057 159.532 24.0842 159.911 24.0842C160.172 24.0842 160.41 24.048 160.623 23.9755C160.836 23.9031 161.02 23.7964 161.172 23.6556C161.325 23.5147 161.44 23.3416 161.517 23.1364L164.227 23.2149C164.114 23.8226 163.867 24.3518 163.485 24.8026C163.106 25.2493 162.609 25.5974 161.993 25.847C161.378 26.0925 160.665 26.2152 159.856 26.2152ZM165.765 26.0402V16.7674H168.633V18.4578H168.729C168.898 17.846 169.174 17.3912 169.556 17.0934C169.939 16.7916 170.383 16.6407 170.89 16.6407C171.027 16.6407 171.168 16.6507 171.313 16.6708C171.458 16.6869 171.593 16.7131 171.717 16.7493V19.315C171.577 19.2667 171.391 19.2285 171.162 19.2003C170.937 19.1721 170.735 19.1581 170.558 19.1581C170.208 19.1581 169.892 19.2365 169.611 19.3935C169.333 19.5464 169.114 19.7617 168.953 20.0394C168.796 20.3131 168.717 20.6351 168.717 21.0054V26.0402H165.765ZM175.872 20.7518V26.0402H172.92V16.7674H175.728V18.4698H175.83C176.035 17.9024 176.386 17.4577 176.881 17.1357C177.376 16.8097 177.965 16.6467 178.649 16.6467C179.301 16.6467 179.867 16.7936 180.346 17.0874C180.829 17.3772 181.203 17.7836 181.469 18.3068C181.738 18.826 181.871 19.4337 181.867 20.13V26.0402H178.915V20.7095C178.919 20.1944 178.788 19.7919 178.523 19.5022C178.261 19.2124 177.897 19.0675 177.43 19.0675C177.12 19.0675 176.846 19.1359 176.609 19.2728C176.375 19.4056 176.194 19.5967 176.066 19.8463C175.941 20.0958 175.876 20.3976 175.872 20.7518ZM186.309 26.1971C185.717 26.1971 185.192 26.0985 184.733 25.9013C184.278 25.7001 183.918 25.3982 183.652 24.9958C183.391 24.5893 183.26 24.0802 183.26 23.4684C183.26 22.9533 183.351 22.5186 183.532 22.1644C183.713 21.8103 183.962 21.5225 184.28 21.3012C184.598 21.0798 184.965 20.9128 185.379 20.8001C185.794 20.6834 186.236 20.6049 186.707 20.5647C187.234 20.5164 187.659 20.4661 187.981 20.4137C188.303 20.3574 188.536 20.2789 188.681 20.1783C188.83 20.0737 188.905 19.9268 188.905 19.7376V19.7074C188.905 19.3975 188.798 19.1581 188.585 18.989C188.371 18.82 188.084 18.7355 187.721 18.7355C187.331 18.7355 187.017 18.82 186.78 18.989C186.542 19.1581 186.391 19.3915 186.327 19.6893L183.604 19.5927C183.685 19.0293 183.892 18.5262 184.226 18.0835C184.564 17.6368 185.027 17.2866 185.614 17.0331C186.206 16.7755 186.916 16.6467 187.746 16.6467C188.337 16.6467 188.882 16.7171 189.382 16.858C189.881 16.9948 190.315 17.1961 190.686 17.4617C191.056 17.7233 191.342 18.0452 191.543 18.4276C191.748 18.8099 191.851 19.2466 191.851 19.7376V26.0402H189.074V24.7483H189.001C188.836 25.0622 188.625 25.3278 188.367 25.5451C188.114 25.7625 187.814 25.9255 187.468 26.0341C187.126 26.1428 186.739 26.1971 186.309 26.1971ZM187.22 24.2653C187.538 24.2653 187.824 24.2009 188.078 24.0721C188.335 23.9433 188.54 23.7662 188.693 23.5409C188.846 23.3115 188.923 23.0458 188.923 22.744V21.8626C188.838 21.9069 188.736 21.9471 188.615 21.9833C188.498 22.0196 188.369 22.0538 188.228 22.086C188.088 22.1182 187.943 22.1463 187.794 22.1705C187.645 22.1946 187.502 22.2168 187.365 22.2369C187.087 22.2812 186.85 22.3496 186.653 22.4421C186.46 22.5347 186.311 22.6555 186.206 22.8044C186.105 22.9492 186.055 23.1223 186.055 23.3235C186.055 23.6294 186.164 23.8628 186.381 24.0238C186.603 24.1848 186.882 24.2653 187.22 24.2653ZM198.89 16.7674V18.9407H193.04V16.7674H198.89ZM194.265 14.5458H197.217V23.1243C197.217 23.3054 197.246 23.4523 197.302 23.565C197.362 23.6737 197.449 23.7522 197.562 23.8005C197.674 23.8447 197.809 23.8669 197.966 23.8669C198.079 23.8669 198.197 23.8568 198.322 23.8367C198.451 23.8125 198.548 23.7924 198.612 23.7763L199.059 25.9073C198.918 25.9476 198.719 25.9979 198.461 26.0583C198.208 26.1186 197.904 26.1569 197.549 26.173C196.857 26.2052 196.264 26.1247 195.769 25.9315C195.278 25.7343 194.901 25.4284 194.64 25.0139C194.382 24.5993 194.257 24.0782 194.265 23.4503V14.5458ZM200.396 26.0402V16.7674H203.348V26.0402H200.396ZM201.875 15.6868C201.46 15.6868 201.104 15.55 200.806 15.2763C200.509 14.9986 200.36 14.6646 200.36 14.2742C200.36 13.8878 200.509 13.5578 200.806 13.2841C201.104 13.0064 201.46 12.8676 201.875 12.8676C202.294 12.8676 202.65 13.0064 202.943 13.2841C203.241 13.5578 203.39 13.8878 203.39 14.2742C203.39 14.6646 203.241 14.9986 202.943 15.2763C202.65 15.55 202.294 15.6868 201.875 15.6868ZM214.222 16.7674L211.041 26.0402H207.66L204.484 16.7674H207.593L209.302 23.1545H209.398L211.113 16.7674H214.222ZM219.39 26.2152C218.42 26.2152 217.583 26.0241 216.878 25.6417C216.178 25.2554 215.639 24.706 215.26 23.9936C214.886 23.2773 214.699 22.426 214.699 21.44C214.699 20.4822 214.888 19.645 215.266 18.9287C215.645 18.2082 216.178 17.6488 216.866 17.2504C217.554 16.8479 218.365 16.6467 219.299 16.6467C219.959 16.6467 220.563 16.7493 221.11 16.9546C221.657 17.1598 222.13 17.4637 222.529 17.8662C222.927 18.2686 223.237 18.7657 223.458 19.3573C223.68 19.9449 223.791 20.619 223.791 21.3796V22.1162H215.731V20.4017H221.044C221.04 20.0877 220.965 19.808 220.82 19.5625C220.675 19.317 220.476 19.1259 220.223 18.989C219.973 18.8482 219.685 18.7777 219.359 18.7777C219.029 18.7777 218.734 18.8522 218.472 19.0011C218.21 19.146 218.003 19.3452 217.85 19.5988C217.697 19.8483 217.617 20.132 217.609 20.45V22.1946C217.609 22.5729 217.683 22.905 217.832 23.1907C217.981 23.4724 218.192 23.6918 218.466 23.8488C218.74 24.0057 219.066 24.0842 219.444 24.0842C219.706 24.0842 219.943 24.048 220.156 23.9755C220.37 23.9031 220.553 23.7964 220.706 23.6556C220.859 23.5147 220.973 23.3416 221.05 23.1364L223.76 23.2149C223.648 23.8226 223.4 24.3518 223.018 24.8026C222.639 25.2493 222.142 25.5974 221.527 25.847C220.911 26.0925 220.199 26.2152 219.39 26.2152ZM224.03 16.1034V13.6765H234.48V16.1034H230.731V26.0402H227.785V16.1034H224.03ZM238.924 26.2152C237.95 26.2152 237.113 26.016 236.412 25.6176C235.716 25.2151 235.179 24.6557 234.8 23.9393C234.426 23.2189 234.239 22.3838 234.239 21.434C234.239 20.4801 234.426 19.645 234.8 18.9287C235.179 18.2082 235.716 17.6488 236.412 17.2504C237.113 16.8479 237.95 16.6467 238.924 16.6467C239.898 16.6467 240.733 16.8479 241.429 17.2504C242.129 17.6488 242.666 18.2082 243.041 18.9287C243.419 19.645 243.608 20.4801 243.608 21.434C243.608 22.3838 243.419 23.2189 243.041 23.9393C242.666 24.6557 242.129 25.2151 241.429 25.6176C240.733 26.016 239.898 26.2152 238.924 26.2152ZM238.942 23.9876C239.296 23.9876 239.596 23.8789 239.841 23.6616C240.087 23.4443 240.274 23.1424 240.403 22.7561C240.535 22.3697 240.602 21.923 240.602 21.4159C240.602 20.9007 240.535 20.45 240.403 20.0636C240.274 19.6772 240.087 19.3754 239.841 19.1581C239.596 18.9407 239.296 18.8321 238.942 18.8321C238.575 18.8321 238.266 18.9407 238.012 19.1581C237.762 19.3754 237.571 19.6772 237.439 20.0636C237.31 20.45 237.245 20.9007 237.245 21.4159C237.245 21.923 237.31 22.3697 237.439 22.7561C237.571 23.1424 237.762 23.4443 238.012 23.6616C238.266 23.8789 238.575 23.9876 238.942 23.9876Z" fill="#0C9EF0"/>
</g>
</g>
<rect x="1.04927" y="1.09016" width="250.9" height="37.9" rx="6.95" stroke="white" stroke-opacity="0.15" stroke-width="2.1"/>
<defs>
<filter id="filter0_d_8_104" x="2.28498" y="0.325876" width="39.4286" height="39.4287" filterUnits="userSpaceOnUse" color-interpolation-filters="sRGB">
<feFlood flood-opacity="0" result="BackgroundImageFix"/>
<feColorMatrix in="SourceAlpha" type="matrix" values="0 0 0 0 0 0 0 0 0 0 0 0 0 0 0 0 0 0 127 0" result="hardAlpha"/>
<feOffset/>
<feGaussianBlur stdDeviation="2.85714"/>
<feComposite in2="hardAlpha" operator="out"/>
<feColorMatrix type="matrix" values="0 0 0 0 0 0 0 0 0 0 0 0 0 0 0 0 0 0 0.25 0"/>
<feBlend mode="normal" in2="BackgroundImageFix" result="effect1_dropShadow_8_104"/>
<feBlend mode="normal" in="SourceGraphic" in2="effect1_dropShadow_8_104" result="shape"/>
</filter>
<filter id="filter1_d_8_104" x="36.3993" y="3.94016" width="214.2" height="32.2" filterUnits="userSpaceOnUse" color-interpolation-filters="sRGB">
<feFlood flood-opacity="0" result="BackgroundImageFix"/>
<feColorMatrix in="SourceAlpha" type="matrix" values="0 0 0 0 0 0 0 0 0 0 0 0 0 0 0 0 0 0 127 0" result="hardAlpha"/>
<feOffset/>
<feGaussianBlur stdDeviation="2.8"/>
<feComposite in2="hardAlpha" operator="out"/>
<feColorMatrix type="matrix" values="0 0 0 0 0 0 0 0 0 0 0 0 0 0 0 0 0 0 0.25 0"/>
<feBlend mode="normal" in2="BackgroundImageFix" result="effect1_dropShadow_8_104"/>
<feBlend mode="normal" in="SourceGraphic" in2="effect1_dropShadow_8_104" result="shape"/>
</filter>
<linearGradient id="paint0_linear_8_104" x1="126.499" y1="0.0401611" x2="126.499" y2="40.0402" gradientUnits="userSpaceOnUse">
<stop stop-color="#152531"/>
<stop offset="1" stop-color="#0C161C"/>
</linearGradient>
<clipPath id="clip0_8_104">
<rect x="-0.000732422" y="0.0401611" width="253" height="40" rx="8" fill="white"/>
</clipPath>
</defs>
</svg>
