<svg width="165" height="28" viewBox="0 0 165 28" fill="none" xmlns="http://www.w3.org/2000/svg">
<g clip-path="url(#clip0_28_2603)">
<rect x="0.499268" y="-1.52588e-05" width="164.5" height="28" rx="6" fill="url(#paint0_linear_28_2603)"/>
<g filter="url(#filter0_d_28_2603)">
<path d="M24.1888 10.8187C24.0718 10.9087 22.0053 12.0628 22.0053 14.629C22.0053 17.5973 24.6348 18.6474 24.7135 18.6735C24.7014 18.7375 24.2958 20.1116 23.3271 21.5117C22.4634 22.7439 21.5614 23.974 20.1891 23.974C18.8169 23.974 18.4637 23.1839 16.8796 23.1839C15.3358 23.1839 14.7869 24 13.5317 24C12.2765 24 11.4007 22.8599 10.3937 21.4597C9.22732 19.8156 8.28491 17.2613 8.28491 14.8371C8.28491 10.9487 10.8357 8.88647 13.3461 8.88647C14.68 8.88647 15.7919 9.75456 16.6294 9.75456C17.4265 9.75456 18.6696 8.83447 20.1871 8.83447C20.7622 8.83447 22.8287 8.88647 24.1888 10.8187V10.8187ZM19.4667 7.1883C20.0943 6.45023 20.5382 5.42613 20.5382 4.40202C20.5382 4.26001 20.5261 4.116 20.4999 3.99998C19.4788 4.03799 18.2639 4.67405 17.5314 5.51614C16.9563 6.1642 16.4195 7.1883 16.4195 8.22641C16.4195 8.38242 16.4457 8.53844 16.4578 8.58844C16.5224 8.60044 16.6273 8.61445 16.7323 8.61445C17.6485 8.61445 18.8007 8.00639 19.4667 7.1883Z" fill="white"/>
</g>
<g filter="url(#filter1_d_28_2603)">
<path d="M34.054 18.5H32.7727L35.6516 10.5H37.0461L39.925 18.5H38.6438L36.3821 11.9531H36.3196L34.054 18.5ZM34.2688 15.3672H38.425V16.3828H34.2688V15.3672ZM45.3674 12.5L43.1916 18.5H41.9416L39.762 12.5H41.0159L42.5354 17.1172H42.5979L44.1135 12.5H45.3674ZM48.0393 18.6328C47.6591 18.6328 47.3153 18.5625 47.0081 18.4219C46.7008 18.2786 46.4573 18.0716 46.2776 17.8008C46.1005 17.5299 46.012 17.1979 46.012 16.8047C46.012 16.4661 46.0771 16.1875 46.2073 15.9687C46.3375 15.75 46.5133 15.5768 46.7346 15.4492C46.956 15.3216 47.2034 15.2252 47.4768 15.1601C47.7502 15.095 48.0289 15.0456 48.3127 15.0117C48.6721 14.97 48.9638 14.9362 49.1877 14.9101C49.4117 14.8815 49.5745 14.8359 49.676 14.7734C49.7776 14.7109 49.8284 14.6094 49.8284 14.4687V14.4414C49.8284 14.1002 49.732 13.8359 49.5393 13.6484C49.3492 13.4609 49.0653 13.3672 48.6877 13.3672C48.2945 13.3672 47.9846 13.4544 47.7581 13.6289C47.5341 13.8008 47.3791 13.9922 47.2932 14.2031L46.1956 13.9531C46.3258 13.5885 46.5159 13.2943 46.7659 13.0703C47.0185 12.8437 47.3088 12.6797 47.637 12.5781C47.9651 12.4739 48.3101 12.4219 48.6721 12.4219C48.9117 12.4219 49.1656 12.4505 49.4338 12.5078C49.7047 12.5625 49.9573 12.664 50.1916 12.8125C50.4286 12.9609 50.6226 13.1732 50.7737 13.4492C50.9247 13.7226 51.0002 14.0781 51.0002 14.5156V18.5H49.8596V17.6797H49.8127C49.7372 17.8307 49.6239 17.9791 49.4729 18.125C49.3219 18.2708 49.1278 18.3919 48.8909 18.4883C48.6539 18.5846 48.37 18.6328 48.0393 18.6328ZM48.2932 17.6953C48.6161 17.6953 48.8922 17.6315 49.1213 17.5039C49.3531 17.3763 49.5289 17.2096 49.6487 17.0039C49.7711 16.7956 49.8323 16.5729 49.8323 16.3359V15.5625C49.7906 15.6041 49.7099 15.6432 49.5901 15.6797C49.4729 15.7135 49.3388 15.7435 49.1877 15.7695C49.0367 15.793 48.8896 15.8151 48.7463 15.8359C48.6031 15.8541 48.4833 15.8698 48.387 15.8828C48.1604 15.9114 47.9534 15.9596 47.7659 16.0273C47.581 16.095 47.4325 16.1927 47.3206 16.3203C47.2112 16.4453 47.1565 16.612 47.1565 16.8203C47.1565 17.1094 47.2633 17.3281 47.4768 17.4765C47.6903 17.6224 47.9625 17.6953 48.2932 17.6953ZM52.5559 18.5V12.5H53.7239V18.5H52.5559ZM53.1457 11.5742C52.9426 11.5742 52.7681 11.5065 52.6223 11.3711C52.4791 11.2331 52.4075 11.069 52.4075 10.8789C52.4075 10.6862 52.4791 10.5221 52.6223 10.3867C52.7681 10.2487 52.9426 10.1797 53.1457 10.1797C53.3489 10.1797 53.522 10.2487 53.6653 10.3867C53.8111 10.5221 53.884 10.6862 53.884 10.8789C53.884 11.069 53.8111 11.2331 53.6653 11.3711C53.522 11.5065 53.3489 11.5742 53.1457 11.5742ZM56.4631 10.5V18.5H55.2952V10.5H56.4631ZM59.7805 18.6328C59.4003 18.6328 59.0566 18.5625 58.7493 18.4219C58.442 18.2786 58.1985 18.0716 58.0188 17.8008C57.8417 17.5299 57.7532 17.1979 57.7532 16.8047C57.7532 16.4661 57.8183 16.1875 57.9485 15.9687C58.0787 15.75 58.2545 15.5768 58.4758 15.4492C58.6972 15.3216 58.9446 15.2252 59.218 15.1601C59.4914 15.095 59.7701 15.0456 60.0539 15.0117C60.4133 14.97 60.705 14.9362 60.9289 14.9101C61.1529 14.8815 61.3157 14.8359 61.4172 14.7734C61.5188 14.7109 61.5696 14.6094 61.5696 14.4687V14.4414C61.5696 14.1002 61.4732 13.8359 61.2805 13.6484C61.0904 13.4609 60.8066 13.3672 60.4289 13.3672C60.0357 13.3672 59.7258 13.4544 59.4993 13.6289C59.2753 13.8008 59.1204 13.9922 59.0344 14.2031L57.9368 13.9531C58.067 13.5885 58.2571 13.2943 58.5071 13.0703C58.7597 12.8437 59.05 12.6797 59.3782 12.5781C59.7063 12.4739 60.0513 12.4219 60.4133 12.4219C60.6529 12.4219 60.9068 12.4505 61.175 12.5078C61.4459 12.5625 61.6985 12.664 61.9329 12.8125C62.1698 12.9609 62.3638 13.1732 62.5149 13.4492C62.6659 13.7226 62.7414 14.0781 62.7414 14.5156V18.5H61.6008V17.6797H61.5539C61.4784 17.8307 61.3651 17.9791 61.2141 18.125C61.0631 18.2708 60.8691 18.3919 60.6321 18.4883C60.3951 18.5846 60.1112 18.6328 59.7805 18.6328ZM60.0344 17.6953C60.3573 17.6953 60.6334 17.6315 60.8625 17.5039C61.0943 17.3763 61.2701 17.2096 61.3899 17.0039C61.5123 16.7956 61.5735 16.5729 61.5735 16.3359V15.5625C61.5318 15.6041 61.4511 15.6432 61.3313 15.6797C61.2141 15.7135 61.08 15.7435 60.9289 15.7695C60.7779 15.793 60.6308 15.8151 60.4875 15.8359C60.3443 15.8541 60.2245 15.8698 60.1282 15.8828C59.9016 15.9114 59.6946 15.9596 59.5071 16.0273C59.3222 16.095 59.1737 16.1927 59.0618 16.3203C58.9524 16.4453 58.8977 16.612 58.8977 16.8203C58.8977 17.1094 59.0045 17.3281 59.218 17.4765C59.4316 17.6224 59.7037 17.6953 60.0344 17.6953ZM64.3909 18.5V10.5H65.5588V13.4726H65.6291C65.6968 13.3476 65.7945 13.2031 65.9221 13.039C66.0497 12.875 66.2268 12.7318 66.4534 12.6094C66.6799 12.4844 66.9794 12.4219 67.3518 12.4219C67.8362 12.4219 68.2685 12.5443 68.6487 12.789C69.0289 13.0338 69.3271 13.3867 69.5432 13.8476C69.762 14.3086 69.8713 14.8633 69.8713 15.5117C69.8713 16.1601 69.7633 16.7161 69.5471 17.1797C69.331 17.6406 69.0341 17.9961 68.6565 18.2461C68.2789 18.4935 67.8479 18.6172 67.3635 18.6172C66.9989 18.6172 66.7008 18.556 66.469 18.4336C66.2398 18.3112 66.0601 18.168 65.9299 18.0039C65.7997 17.8398 65.6995 17.694 65.6291 17.5664H65.5315V18.5H64.3909ZM65.5354 15.5C65.5354 15.9219 65.5966 16.2916 65.719 16.6094C65.8414 16.9271 66.0185 17.1758 66.2502 17.3555C66.482 17.5325 66.7659 17.6211 67.1018 17.6211C67.4508 17.6211 67.7424 17.5286 67.9768 17.3437C68.2112 17.1562 68.3883 16.9023 68.508 16.582C68.6304 16.2617 68.6916 15.901 68.6916 15.5C68.6916 15.1041 68.6317 14.7487 68.512 14.4336C68.3948 14.1185 68.2177 13.8698 67.9807 13.6875C67.7463 13.5052 67.4534 13.414 67.1018 13.414C66.7633 13.414 66.4768 13.5013 66.2424 13.6758C66.0107 13.8502 65.8349 14.0937 65.7151 14.4062C65.5953 14.7187 65.5354 15.0833 65.5354 15.5ZM72.3508 10.5V18.5H71.1828V10.5H72.3508ZM76.508 18.6211C75.9169 18.6211 75.4078 18.4948 74.9807 18.2422C74.5562 17.987 74.2281 17.6289 73.9963 17.168C73.7672 16.7044 73.6526 16.1614 73.6526 15.539C73.6526 14.9245 73.7672 14.3828 73.9963 13.914C74.2281 13.4453 74.551 13.0794 74.9651 12.8164C75.3817 12.5534 75.8687 12.4219 76.426 12.4219C76.7646 12.4219 77.0927 12.4778 77.4104 12.5898C77.7281 12.7018 78.0133 12.8776 78.2659 13.1172C78.5185 13.3568 78.7177 13.668 78.8635 14.0508C79.0093 14.431 79.0823 14.8932 79.0823 15.4375V15.8515H74.3127V14.9765H77.9377C77.9377 14.6693 77.8752 14.3971 77.7502 14.1601C77.6252 13.9206 77.4494 13.7318 77.2229 13.5937C76.9989 13.4557 76.7359 13.3867 76.4338 13.3867C76.1057 13.3867 75.8192 13.4674 75.5745 13.6289C75.3323 13.7877 75.1448 13.9961 75.012 14.2539C74.8817 14.5091 74.8166 14.7864 74.8166 15.0859V15.7695C74.8166 16.1706 74.887 16.5117 75.0276 16.793C75.1708 17.0742 75.37 17.289 75.6252 17.4375C75.8804 17.5833 76.1786 17.6562 76.5198 17.6562C76.7411 17.6562 76.9429 17.625 77.1252 17.5625C77.3075 17.4974 77.4651 17.401 77.5979 17.2734C77.7307 17.1458 77.8323 16.9883 77.9026 16.8008L79.008 17C78.9195 17.3255 78.7606 17.6107 78.5315 17.8555C78.3049 18.0976 78.0198 18.2864 77.676 18.4219C77.3349 18.5547 76.9455 18.6211 76.508 18.6211ZM85.8166 18.6211C85.2541 18.6211 84.7632 18.4922 84.344 18.2344C83.9247 17.9765 83.5992 17.6159 83.3674 17.1523C83.1356 16.6888 83.0198 16.1471 83.0198 15.5273C83.0198 14.9049 83.1356 14.3607 83.3674 13.8945C83.5992 13.4284 83.9247 13.0664 84.344 12.8086C84.7632 12.5508 85.2541 12.4219 85.8166 12.4219C86.3791 12.4219 86.87 12.5508 87.2893 12.8086C87.7086 13.0664 88.0341 13.4284 88.2659 13.8945C88.4976 14.3607 88.6135 14.9049 88.6135 15.5273C88.6135 16.1471 88.4976 16.6888 88.2659 17.1523C88.0341 17.6159 87.7086 17.9765 87.2893 18.2344C86.87 18.4922 86.3791 18.6211 85.8166 18.6211ZM85.8205 17.6406C86.1851 17.6406 86.4872 17.5443 86.7268 17.3515C86.9664 17.1588 87.1435 16.9023 87.258 16.582C87.3752 16.2617 87.4338 15.9088 87.4338 15.5234C87.4338 15.1406 87.3752 14.789 87.258 14.4687C87.1435 14.1458 86.9664 13.8867 86.7268 13.6914C86.4872 13.4961 86.1851 13.3984 85.8205 13.3984C85.4534 13.3984 85.1487 13.4961 84.9065 13.6914C84.6669 13.8867 84.4885 14.1458 84.3713 14.4687C84.2567 14.789 84.1994 15.1406 84.1994 15.5234C84.1994 15.9088 84.2567 16.2617 84.3713 16.582C84.4885 16.9023 84.6669 17.1588 84.9065 17.3515C85.1487 17.5443 85.4534 17.6406 85.8205 17.6406ZM91.0852 14.9375V18.5H89.9172V12.5H91.0383V13.4765H91.1125C91.2506 13.1588 91.4667 12.9036 91.761 12.7109C92.0578 12.5182 92.4315 12.4219 92.8821 12.4219C93.2909 12.4219 93.649 12.5078 93.9563 12.6797C94.2636 12.8489 94.5019 13.1015 94.6711 13.4375C94.8404 13.7734 94.925 14.1888 94.925 14.6836V18.5H93.7571V14.8242C93.7571 14.3893 93.6438 14.0495 93.4172 13.8047C93.1907 13.5573 92.8795 13.4336 92.4836 13.4336C92.2128 13.4336 91.9719 13.4922 91.761 13.6094C91.5526 13.7265 91.3873 13.8984 91.2649 14.125C91.1451 14.3489 91.0852 14.6198 91.0852 14.9375Z" fill="#E8E8E8"/>
<path d="M101.548 18.5H99.2805L102.225 9.77271H105.033L107.978 18.5H105.711L103.661 11.9716H103.593L101.548 18.5ZM101.245 15.0653H105.984V16.6676H101.245V15.0653ZM108.918 20.9545V11.9545H110.98V13.0753H111.044C111.129 12.8764 111.25 12.6846 111.406 12.5C111.565 12.3153 111.767 12.1648 112.011 12.0483C112.258 11.929 112.554 11.8693 112.898 11.8693C113.352 11.8693 113.777 11.9886 114.172 12.2273C114.57 12.4659 114.891 12.8338 115.135 13.3309C115.379 13.8281 115.501 14.4616 115.501 15.2315C115.501 15.973 115.383 16.5937 115.148 17.0937C114.915 17.5937 114.599 17.9687 114.202 18.2187C113.807 18.4687 113.368 18.5937 112.885 18.5937C112.555 18.5937 112.27 18.5398 112.028 18.4318C111.787 18.3238 111.584 18.1818 111.419 18.0057C111.257 17.8295 111.132 17.6406 111.044 17.4389H111.001V20.9545H108.918ZM110.959 15.2273C110.959 15.5795 111.006 15.8863 111.099 16.1477C111.196 16.4091 111.334 16.6122 111.513 16.7571C111.695 16.8991 111.912 16.9702 112.165 16.9702C112.42 16.9702 112.638 16.8991 112.817 16.7571C112.996 16.6122 113.131 16.4091 113.222 16.1477C113.315 15.8863 113.362 15.5795 113.362 15.2273C113.362 14.875 113.315 14.5696 113.222 14.3111C113.131 14.0525 112.996 13.8523 112.817 13.7102C112.641 13.5682 112.423 13.4971 112.165 13.4971C111.909 13.4971 111.692 13.5667 111.513 13.7059C111.334 13.8452 111.196 14.044 111.099 14.3025C111.006 14.5611 110.959 14.8693 110.959 15.2273ZM116.593 20.9545V11.9545H118.656V13.0753H118.72C118.805 12.8764 118.926 12.6846 119.082 12.5C119.241 12.3153 119.443 12.1648 119.687 12.0483C119.934 11.929 120.23 11.8693 120.573 11.8693C121.028 11.8693 121.453 11.9886 121.848 12.2273C122.245 12.4659 122.566 12.8338 122.811 13.3309C123.055 13.8281 123.177 14.4616 123.177 15.2315C123.177 15.973 123.059 16.5937 122.823 17.0937C122.591 17.5937 122.275 17.9687 121.877 18.2187C121.483 18.4687 121.044 18.5937 120.561 18.5937C120.231 18.5937 119.946 18.5398 119.704 18.4318C119.463 18.3238 119.26 18.1818 119.095 18.0057C118.933 17.8295 118.808 17.6406 118.72 17.4389H118.677V20.9545H116.593ZM118.635 15.2273C118.635 15.5795 118.681 15.8863 118.775 16.1477C118.872 16.4091 119.01 16.6122 119.189 16.7571C119.37 16.8991 119.588 16.9702 119.841 16.9702C120.096 16.9702 120.314 16.8991 120.493 16.7571C120.671 16.6122 120.806 16.4091 120.897 16.1477C120.991 15.8863 121.038 15.5795 121.038 15.2273C121.038 14.875 120.991 14.5696 120.897 14.3111C120.806 14.0525 120.671 13.8523 120.493 13.7102C120.316 13.5682 120.099 13.4971 119.841 13.4971C119.585 13.4971 119.368 13.5667 119.189 13.7059C119.01 13.8452 118.872 14.044 118.775 14.3025C118.681 14.5611 118.635 14.8693 118.635 15.2273ZM131.565 12.3892C131.536 12.0767 131.41 11.8338 131.185 11.6605C130.964 11.4844 130.647 11.3963 130.235 11.3963C129.962 11.3963 129.735 11.4318 129.553 11.5028C129.371 11.5738 129.235 11.6719 129.144 11.7969C129.053 11.919 129.006 12.0596 129.004 12.2187C128.998 12.3494 129.023 12.4645 129.08 12.5639C129.14 12.6633 129.225 12.7514 129.336 12.8281C129.45 12.902 129.586 12.9673 129.745 13.0241C129.904 13.0809 130.083 13.1307 130.282 13.1733L131.032 13.3437C131.464 13.4375 131.844 13.5625 132.174 13.7187C132.506 13.875 132.785 14.0611 133.009 14.277C133.236 14.4929 133.408 14.7415 133.525 15.0227C133.641 15.304 133.701 15.6193 133.704 15.9687C133.701 16.5199 133.562 16.9929 133.286 17.3878C133.011 17.7827 132.614 18.0852 132.097 18.2954C131.583 18.5057 130.962 18.6108 130.235 18.6108C129.505 18.6108 128.869 18.5014 128.326 18.2827C127.783 18.0639 127.361 17.7315 127.06 17.2855C126.759 16.8395 126.604 16.2756 126.596 15.5937H128.616C128.633 15.875 128.708 16.1094 128.842 16.2969C128.975 16.4844 129.158 16.6264 129.391 16.723C129.627 16.8196 129.9 16.8679 130.209 16.8679C130.494 16.8679 130.735 16.8295 130.934 16.7528C131.136 16.6761 131.29 16.5696 131.398 16.4332C131.506 16.2969 131.562 16.1406 131.565 15.9645C131.562 15.7997 131.511 15.6591 131.411 15.5426C131.312 15.4233 131.158 15.321 130.951 15.2358C130.746 15.1477 130.485 15.0667 130.167 14.9929L129.255 14.7798C128.499 14.6065 127.904 14.3267 127.469 13.9403C127.035 13.5511 126.819 13.0256 126.822 12.3636C126.819 11.8238 126.964 11.3508 127.256 10.9446C127.549 10.5383 127.954 10.2216 128.471 9.9943C128.988 9.76703 129.577 9.65339 130.239 9.65339C130.915 9.65339 131.502 9.76845 131.999 9.99856C132.499 10.2258 132.887 10.5454 133.163 10.9574C133.438 11.3693 133.579 11.8466 133.584 12.3892H131.565ZM138.464 11.9545V13.4886H134.334V11.9545H138.464ZM135.2 10.3863H137.283V16.4417C137.283 16.5696 137.303 16.6733 137.343 16.7528C137.386 16.8295 137.447 16.8849 137.526 16.919C137.606 16.9503 137.701 16.9659 137.812 16.9659C137.891 16.9659 137.975 16.9588 138.063 16.9446C138.154 16.9275 138.222 16.9133 138.268 16.902L138.583 18.4062C138.484 18.4346 138.343 18.4702 138.161 18.5128C137.982 18.5554 137.768 18.5824 137.518 18.5937C137.029 18.6165 136.61 18.5596 136.261 18.4233C135.914 18.2841 135.648 18.0682 135.464 17.7755C135.282 17.4829 135.194 17.115 135.2 16.6719V10.3863ZM142.512 18.6236C141.825 18.6236 141.234 18.4829 140.739 18.2017C140.248 17.9176 139.869 17.5227 139.602 17.017C139.337 16.5085 139.205 15.919 139.205 15.2486C139.205 14.5753 139.337 13.9858 139.602 13.4801C139.869 12.9716 140.248 12.5767 140.739 12.2954C141.234 12.0113 141.825 11.8693 142.512 11.8693C143.2 11.8693 143.789 12.0113 144.281 12.2954C144.775 12.5767 145.154 12.9716 145.418 13.4801C145.685 13.9858 145.819 14.5753 145.819 15.2486C145.819 15.919 145.685 16.5085 145.418 17.017C145.154 17.5227 144.775 17.9176 144.281 18.2017C143.789 18.4829 143.2 18.6236 142.512 18.6236ZM142.525 17.0511C142.775 17.0511 142.986 16.9744 143.16 16.821C143.333 16.6676 143.465 16.4545 143.556 16.1818C143.65 15.9091 143.697 15.5937 143.697 15.2358C143.697 14.8721 143.65 14.554 143.556 14.2812C143.465 14.0085 143.333 13.7954 143.16 13.642C142.986 13.4886 142.775 13.4119 142.525 13.4119C142.266 13.4119 142.048 13.4886 141.869 13.642C141.692 13.7954 141.557 14.0085 141.464 14.2812C141.373 14.554 141.327 14.8721 141.327 15.2358C141.327 15.5937 141.373 15.9091 141.464 16.1818C141.557 16.4545 141.692 16.6676 141.869 16.821C142.048 16.9744 142.266 17.0511 142.525 17.0511ZM146.886 18.5V11.9545H148.91V13.1477H148.979C149.098 12.7159 149.293 12.3949 149.562 12.1846C149.832 11.9716 150.146 11.865 150.504 11.865C150.601 11.865 150.7 11.8721 150.803 11.8863C150.905 11.8977 151 11.9162 151.088 11.9417V13.7528C150.989 13.7187 150.858 13.6917 150.696 13.6719C150.537 13.652 150.395 13.642 150.27 13.642C150.023 13.642 149.8 13.6974 149.601 13.8082C149.405 13.9162 149.25 14.0682 149.136 14.2642C149.026 14.4574 148.97 14.6846 148.97 14.946V18.5H146.886ZM154.657 18.6236C153.972 18.6236 153.381 18.4886 152.884 18.2187C152.39 17.946 152.009 17.5582 151.742 17.0554C151.478 16.5497 151.346 15.9488 151.346 15.2528C151.346 14.5767 151.479 13.9858 151.746 13.4801C152.013 12.9716 152.39 12.5767 152.876 12.2954C153.361 12.0113 153.934 11.8693 154.593 11.8693C155.059 11.8693 155.485 11.9417 155.871 12.0866C156.258 12.2315 156.592 12.446 156.873 12.7301C157.154 13.0142 157.373 13.365 157.529 13.7827C157.685 14.1974 157.763 14.6733 157.763 15.2102V15.7301H152.075V14.5199H155.825C155.822 14.2983 155.769 14.1008 155.667 13.9275C155.565 13.7542 155.424 13.6193 155.245 13.5227C155.069 13.4233 154.866 13.3736 154.636 13.3736C154.403 13.3736 154.194 13.4261 154.009 13.5312C153.825 13.6335 153.678 13.7741 153.57 13.9531C153.462 14.1292 153.406 14.3295 153.4 14.554V15.7855C153.4 16.0525 153.452 16.2869 153.557 16.4886C153.663 16.6875 153.812 16.8423 154.005 16.9531C154.198 17.0639 154.428 17.1193 154.695 17.1193C154.88 17.1193 155.048 17.0937 155.198 17.0426C155.349 16.9915 155.478 16.9162 155.586 16.8167C155.694 16.7173 155.775 16.5952 155.829 16.4503L157.742 16.5057C157.663 16.9346 157.488 17.3082 157.218 17.6264C156.951 17.9417 156.6 18.1875 156.165 18.3636C155.731 18.5369 155.228 18.6236 154.657 18.6236Z" fill="white"/>
</g>
</g>
<rect x="1.24927" y="0.749985" width="163" height="26.5" rx="5.25" stroke="white" stroke-opacity="0.15" stroke-width="1.5"/>
<defs>
<filter id="filter0_d_28_2603" x="2.49927" y="-1.52588e-05" width="28" height="28" filterUnits="userSpaceOnUse" color-interpolation-filters="sRGB">
<feFlood flood-opacity="0" result="BackgroundImageFix"/>
<feColorMatrix in="SourceAlpha" type="matrix" values="0 0 0 0 0 0 0 0 0 0 0 0 0 0 0 0 0 0 127 0" result="hardAlpha"/>
<feOffset/>
<feGaussianBlur stdDeviation="2"/>
<feComposite in2="hardAlpha" operator="out"/>
<feColorMatrix type="matrix" values="0 0 0 0 0 0 0 0 0 0 0 0 0 0 0 0 0 0 0.25 0"/>
<feBlend mode="normal" in2="BackgroundImageFix" result="effect1_dropShadow_28_2603"/>
<feBlend mode="normal" in="SourceGraphic" in2="effect1_dropShadow_28_2603" result="shape"/>
</filter>
<filter id="filter1_d_28_2603" x="28.4993" y="3.49998" width="134.5" height="21.4545" filterUnits="userSpaceOnUse" color-interpolation-filters="sRGB">
<feFlood flood-opacity="0" result="BackgroundImageFix"/>
<feColorMatrix in="SourceAlpha" type="matrix" values="0 0 0 0 0 0 0 0 0 0 0 0 0 0 0 0 0 0 127 0" result="hardAlpha"/>
<feOffset/>
<feGaussianBlur stdDeviation="2"/>
<feComposite in2="hardAlpha" operator="out"/>
<feColorMatrix type="matrix" values="0 0 0 0 0 0 0 0 0 0 0 0 0 0 0 0 0 0 0.25 0"/>
<feBlend mode="normal" in2="BackgroundImageFix" result="effect1_dropShadow_28_2603"/>
<feBlend mode="normal" in="SourceGraphic" in2="effect1_dropShadow_28_2603" result="shape"/>
</filter>
<linearGradient id="paint0_linear_28_2603" x1="82.7492" y1="-1.52588e-05" x2="82.7492" y2="28" gradientUnits="userSpaceOnUse">
<stop stop-color="#1A1A1A"/>
<stop offset="1" stop-color="#0A0A0A"/>
</linearGradient>
<clipPath id="clip0_28_2603">
<rect x="0.499268" y="-1.52588e-05" width="164.5" height="28" rx="6" fill="white"/>
</clipPath>
</defs>
</svg>
