<svg width="236" height="41" viewBox="0 0 236 41" fill="none" xmlns="http://www.w3.org/2000/svg">
<g clip-path="url(#clip0_28_2603)">
<rect x="-0.000732422" y="0.00976562" width="236.001" height="40.0014" rx="8" fill="url(#paint0_linear_28_2603)"/>
<g filter="url(#filter0_d_28_2603)">
<path d="M32.7658 14.8564C32.602 14.9824 29.7088 16.5982 29.7088 20.1912C29.7088 24.347 33.3902 25.8172 33.5004 25.8536C33.4835 25.9432 32.9156 27.8671 31.5594 29.8274C30.3502 31.5525 29.0872 33.2747 27.166 33.2747C25.2448 33.2747 24.7503 32.1685 22.5324 32.1685C20.371 32.1685 19.6025 33.3111 17.8452 33.3111C16.0878 33.3111 14.8616 31.7149 13.4518 29.7546C11.8187 27.4526 10.4993 23.8765 10.4993 20.4824C10.4993 15.0384 14.0705 12.1511 17.5852 12.1511C19.4528 12.1511 21.0096 13.3665 22.1821 13.3665C23.2981 13.3665 25.0385 12.0783 27.1632 12.0783C27.9684 12.0783 30.8615 12.1511 32.7658 14.8564ZM26.1545 9.77359C27.0332 8.74024 27.6548 7.30642 27.6548 5.87261C27.6548 5.67378 27.6378 5.47215 27.6011 5.30972C26.1715 5.36293 24.4706 6.25346 23.445 7.43244C22.6398 8.33978 21.8882 9.77359 21.8882 11.227C21.8882 11.4454 21.925 11.6639 21.9419 11.7339C22.0323 11.7507 22.1793 11.7703 22.3262 11.7703C23.6089 11.7703 25.2222 10.919 26.1545 9.77359Z" fill="white"/>
</g>
<g filter="url(#filter1_d_28_2603)">
<path d="M44.4034 26.5105H42.4233L46.8725 14.1468H49.0277L53.4769 26.5105H51.4968L48.0014 16.3926H47.9049L44.4034 26.5105ZM44.7355 21.6688H51.1588V23.2384H44.7355V21.6688ZM61.8879 17.2377L58.5253 26.5105H56.5935L53.2249 17.2377H55.1627L57.5111 24.3734H57.6077L59.95 17.2377H61.8879ZM66.0171 26.7157C65.4296 26.7157 64.8983 26.6071 64.4234 26.3897C63.9485 26.1684 63.5722 25.8484 63.2945 25.4299C63.0208 25.0113 62.884 24.4982 62.884 23.8904C62.884 23.3672 62.9846 22.9366 63.1858 22.5985C63.3871 22.2605 63.6587 21.9928 64.0008 21.7956C64.3429 21.5984 64.7252 21.4495 65.1478 21.3489C65.5704 21.2483 66.0011 21.1718 66.4397 21.1195C66.9951 21.0551 67.4459 21.0028 67.792 20.9625C68.1381 20.9183 68.3897 20.8478 68.5466 20.7512C68.7036 20.6546 68.7821 20.4977 68.7821 20.2804V20.2381C68.7821 19.7109 68.6332 19.3024 68.3353 19.0126C68.0415 18.7228 67.6028 18.5779 67.0193 18.5779C66.4116 18.5779 65.9326 18.7128 65.5825 18.9824C65.2364 19.248 64.9969 19.5438 64.8641 19.8698L63.1677 19.4835C63.3689 18.92 63.6627 18.4652 64.0491 18.1191C64.4395 17.769 64.8882 17.5154 65.3953 17.3585C65.9024 17.1975 66.4357 17.117 66.9951 17.117C67.3654 17.117 67.7578 17.1613 68.1723 17.2498C68.5909 17.3343 68.9813 17.4913 69.3435 17.7207C69.7097 17.9501 70.0096 18.2781 70.243 18.7047C70.4764 19.1273 70.5931 19.6767 70.5931 20.3528V26.5105H68.8304V25.2427H68.7579C68.6412 25.4761 68.4661 25.7055 68.2327 25.9309C67.9993 26.1563 67.6994 26.3434 67.3332 26.4924C66.967 26.6413 66.5283 26.7157 66.0171 26.7157ZM66.4095 25.2669C66.9086 25.2669 67.3352 25.1683 67.6894 24.971C68.0476 24.7738 68.3192 24.5163 68.5044 24.1983C68.6935 23.8763 68.7881 23.5322 68.7881 23.166V21.9707C68.7237 22.0351 68.5989 22.0955 68.4138 22.1518C68.2327 22.2041 68.0254 22.2504 67.792 22.2906C67.5586 22.3269 67.3312 22.3611 67.1098 22.3933C66.8885 22.4214 66.7033 22.4456 66.5544 22.4657C66.2043 22.51 65.8843 22.5844 65.5946 22.6891C65.3088 22.7937 65.0794 22.9446 64.9064 23.1419C64.7373 23.335 64.6528 23.5926 64.6528 23.9146C64.6528 24.3613 64.8178 24.6994 65.1478 24.9288C65.4779 25.1542 65.8984 25.2669 66.4095 25.2669ZM72.9973 26.5105V17.2377H74.8024V26.5105H72.9973ZM73.9089 15.807C73.595 15.807 73.3254 15.7023 73.1 15.4931C72.8786 15.2798 72.7679 15.0262 72.7679 14.7324C72.7679 14.4346 72.8786 14.181 73.1 13.9718C73.3254 13.7585 73.595 13.6518 73.9089 13.6518C74.2228 13.6518 74.4905 13.7585 74.7118 13.9718C74.9372 14.181 75.0499 14.4346 75.0499 14.7324C75.0499 15.0262 74.9372 15.2798 74.7118 15.4931C74.4905 15.7023 74.2228 15.807 73.9089 15.807ZM79.0358 14.1468V26.5105H77.2307V14.1468H79.0358ZM84.1627 26.7157C83.5751 26.7157 83.0438 26.6071 82.5689 26.3897C82.094 26.1684 81.7177 25.8484 81.44 25.4299C81.1663 25.0113 81.0295 24.4982 81.0295 23.8904C81.0295 23.3672 81.1301 22.9366 81.3313 22.5985C81.5326 22.2605 81.8042 21.9928 82.1463 21.7956C82.4884 21.5984 82.8707 21.4495 83.2933 21.3489C83.7159 21.2483 84.1466 21.1718 84.5852 21.1195C85.1406 21.0551 85.5914 21.0028 85.9375 20.9625C86.2836 20.9183 86.5352 20.8478 86.6921 20.7512C86.8491 20.6546 86.9276 20.4977 86.9276 20.2804V20.2381C86.9276 19.7109 86.7787 19.3024 86.4808 19.0126C86.187 18.7228 85.7484 18.5779 85.1648 18.5779C84.5571 18.5779 84.0781 18.7128 83.728 18.9824C83.3819 19.248 83.1424 19.5438 83.0096 19.8698L81.3132 19.4835C81.5145 18.92 81.8082 18.4652 82.1946 18.1191C82.585 17.769 83.0337 17.5154 83.5408 17.3585C84.048 17.1975 84.5812 17.117 85.1406 17.117C85.5109 17.117 85.9033 17.1613 86.3178 17.2498C86.7364 17.3343 87.1268 17.4913 87.489 17.7207C87.8552 17.9501 88.1551 18.2781 88.3885 18.7047C88.6219 19.1273 88.7386 19.6767 88.7386 20.3528V26.5105H86.9759V25.2427H86.9034C86.7867 25.4761 86.6116 25.7055 86.3782 25.9309C86.1448 26.1563 85.8449 26.3434 85.4787 26.4924C85.1125 26.6413 84.6738 26.7157 84.1627 26.7157ZM84.5551 25.2669C85.0541 25.2669 85.4807 25.1683 85.8349 24.971C86.1931 24.7738 86.4647 24.5163 86.6499 24.1983C86.839 23.8763 86.9336 23.5322 86.9336 23.166V21.9707C86.8692 22.0351 86.7444 22.0955 86.5593 22.1518C86.3782 22.2041 86.1709 22.2504 85.9375 22.2906C85.7041 22.3269 85.4767 22.3611 85.2553 22.3933C85.034 22.4214 84.8488 22.4456 84.6999 22.4657C84.3498 22.51 84.0298 22.5844 83.7401 22.6891C83.4543 22.7937 83.2249 22.9446 83.0519 23.1419C82.8828 23.335 82.7983 23.5926 82.7983 23.9146C82.7983 24.3613 82.9633 24.6994 83.2933 24.9288C83.6234 25.1542 84.0439 25.2669 84.5551 25.2669ZM91.2877 26.5105V14.1468H93.0928V18.7409H93.2014C93.3061 18.5478 93.457 18.3244 93.6542 18.0708C93.8514 17.8173 94.1251 17.5959 94.4752 17.4068C94.8254 17.2136 95.2882 17.117 95.8637 17.117C96.6123 17.117 97.2804 17.3062 97.868 17.6845C98.4556 18.0628 98.9164 18.6081 99.2504 19.3205C99.5885 20.0328 99.7576 20.8901 99.7576 21.8922C99.7576 22.8943 99.5905 23.7536 99.2565 24.47C98.9224 25.1823 98.4636 25.7317 97.8801 26.1181C97.2965 26.5004 96.6304 26.6916 95.8818 26.6916C95.3184 26.6916 94.8576 26.597 94.4994 26.4078C94.1452 26.2187 93.8675 25.9973 93.6663 25.7438C93.4651 25.4902 93.3101 25.2648 93.2014 25.0676H93.0505V26.5105H91.2877ZM93.0566 21.8741C93.0566 22.5261 93.1511 23.0976 93.3403 23.5886C93.5295 24.0796 93.8031 24.4639 94.1613 24.7416C94.5195 25.0153 94.9582 25.1522 95.4774 25.1522C96.0167 25.1522 96.4674 25.0093 96.8296 24.7235C97.1919 24.4338 97.4655 24.0414 97.6507 23.5463C97.8398 23.0513 97.9344 22.4939 97.9344 21.8741C97.9344 21.2624 97.8418 20.713 97.6567 20.226C97.4756 19.739 97.2019 19.3547 96.8357 19.073C96.4735 18.7912 96.0207 18.6504 95.4774 18.6504C94.9542 18.6504 94.5115 18.7852 94.1492 19.0549C93.7911 19.3245 93.5194 19.7008 93.3343 20.1838C93.1491 20.6667 93.0566 21.2302 93.0566 21.8741ZM103.589 14.1468V26.5105H101.784V14.1468H103.589ZM110.014 26.6976C109.101 26.6976 108.314 26.5024 107.654 26.112C106.998 25.7176 106.491 25.1642 106.133 24.4519C105.778 23.7355 105.601 22.8964 105.601 21.9345C105.601 20.9847 105.778 20.1475 106.133 19.4231C106.491 18.6987 106.99 18.1332 107.63 17.7267C108.274 17.3202 109.026 17.117 109.888 17.117C110.411 17.117 110.918 17.2035 111.409 17.3766C111.9 17.5496 112.341 17.8213 112.731 18.1916C113.121 18.5618 113.429 19.0428 113.655 19.6344C113.88 20.222 113.993 20.9364 113.993 21.7775V22.4174H106.622V21.0652H112.224C112.224 20.5902 112.127 20.1697 111.934 19.8034C111.741 19.4332 111.469 19.1414 111.119 18.9281C110.773 18.7148 110.366 18.6081 109.9 18.6081C109.392 18.6081 108.95 18.7329 108.571 18.9824C108.197 19.2279 107.907 19.5499 107.702 19.9483C107.501 20.3427 107.4 20.7714 107.4 21.2342V22.2906C107.4 22.9104 107.509 23.4377 107.726 23.8723C107.948 24.307 108.256 24.639 108.65 24.8684C109.044 25.0938 109.505 25.2065 110.032 25.2065C110.374 25.2065 110.686 25.1582 110.968 25.0616C111.25 24.961 111.493 24.8121 111.699 24.6149C111.904 24.4177 112.061 24.1742 112.169 23.8844L113.878 24.1923C113.741 24.6954 113.496 25.1361 113.141 25.5144C112.791 25.8887 112.351 26.1804 111.819 26.3897C111.292 26.595 110.69 26.6976 110.014 26.6976ZM124.4 26.6976C123.531 26.6976 122.772 26.4984 122.124 26.1C121.476 25.7015 120.973 25.1441 120.615 24.4277C120.257 23.7113 120.078 22.8742 120.078 21.9164C120.078 20.9545 120.257 20.1133 120.615 19.3929C120.973 18.6725 121.476 18.1131 122.124 17.7147C122.772 17.3162 123.531 17.117 124.4 17.117C125.27 17.117 126.028 17.3162 126.676 17.7147C127.324 18.1131 127.827 18.6725 128.185 19.3929C128.544 20.1133 128.723 20.9545 128.723 21.9164C128.723 22.8742 128.544 23.7113 128.185 24.4277C127.827 25.1441 127.324 25.7015 126.676 26.1C126.028 26.4984 125.27 26.6976 124.4 26.6976ZM124.406 25.1823C124.97 25.1823 125.437 25.0334 125.807 24.7356C126.177 24.4378 126.451 24.0414 126.628 23.5463C126.809 23.0513 126.9 22.506 126.9 21.9103C126.9 21.3187 126.809 20.7754 126.628 20.2804C126.451 19.7813 126.177 19.3808 125.807 19.079C125.437 18.7772 124.97 18.6262 124.406 18.6262C123.839 18.6262 123.368 18.7772 122.994 19.079C122.623 19.3808 122.348 19.7813 122.167 20.2804C121.99 20.7754 121.901 21.3187 121.901 21.9103C121.901 22.506 121.99 23.0513 122.167 23.5463C122.348 24.0414 122.623 24.4378 122.994 24.7356C123.368 25.0334 123.839 25.1823 124.406 25.1823ZM132.543 21.0048V26.5105H130.738V17.2377H132.47V18.747H132.585C132.798 18.256 133.132 17.8616 133.587 17.5637C134.046 17.2659 134.623 17.117 135.32 17.117C135.951 17.117 136.505 17.2498 136.98 17.5154C137.455 17.777 137.823 18.1674 138.085 18.6866C138.346 19.2058 138.477 19.8477 138.477 20.6124V26.5105H136.672V20.8297C136.672 20.1576 136.497 19.6324 136.147 19.2541C135.797 18.8717 135.316 18.6806 134.704 18.6806C134.285 18.6806 133.913 18.7711 133.587 18.9522C133.265 19.1333 133.009 19.399 132.82 19.7491C132.635 20.0952 132.543 20.5138 132.543 21.0048Z" fill="#E8E8E8"/>
<path d="M147.611 26.5105H144.399L148.571 14.1468H152.549L156.721 26.5105H153.509L150.605 17.2619H150.509L147.611 26.5105ZM147.182 21.6447H153.895V23.9146H147.182V21.6447ZM158.052 29.9877V17.2377H160.974V18.8255H161.064C161.185 18.5437 161.356 18.2721 161.577 18.0105C161.803 17.7489 162.088 17.5356 162.434 17.3706C162.785 17.2015 163.203 17.117 163.69 17.117C164.334 17.117 164.936 17.286 165.495 17.6241C166.059 17.9622 166.513 18.4834 166.86 19.1877C167.206 19.892 167.379 20.7895 167.379 21.8801C167.379 22.9306 167.212 23.8099 166.878 24.5183C166.548 25.2266 166.101 25.7579 165.537 26.112C164.978 26.4662 164.356 26.6433 163.672 26.6433C163.205 26.6433 162.801 26.5668 162.459 26.4139C162.117 26.2609 161.829 26.0597 161.595 25.8102C161.366 25.5607 161.189 25.293 161.064 25.0073H161.004V29.9877H158.052ZM160.943 21.8741C160.943 22.3732 161.01 22.8078 161.143 23.1781C161.279 23.5483 161.475 23.8361 161.728 24.0414C161.986 24.2426 162.294 24.3432 162.652 24.3432C163.014 24.3432 163.322 24.2426 163.575 24.0414C163.829 23.8361 164.02 23.5483 164.149 23.1781C164.282 22.8078 164.348 22.3732 164.348 21.8741C164.348 21.375 164.282 20.9424 164.149 20.5762C164.02 20.2099 163.829 19.9262 163.575 19.725C163.326 19.5237 163.018 19.4231 162.652 19.4231C162.29 19.4231 161.982 19.5217 161.728 19.7189C161.475 19.9161 161.279 20.1978 161.143 20.5641C161.01 20.9303 160.943 21.367 160.943 21.8741ZM168.926 29.9877V17.2377H171.848V18.8255H171.938C172.059 18.5437 172.23 18.2721 172.451 18.0105C172.677 17.7489 172.962 17.5356 173.309 17.3706C173.659 17.2015 174.077 17.117 174.564 17.117C175.208 17.117 175.81 17.286 176.369 17.6241C176.933 17.9622 177.387 18.4834 177.734 19.1877C178.08 19.892 178.253 20.7895 178.253 21.8801C178.253 22.9306 178.086 23.8099 177.752 24.5183C177.422 25.2266 176.975 25.7579 176.412 26.112C175.852 26.4662 175.23 26.6433 174.546 26.6433C174.079 26.6433 173.675 26.5668 173.333 26.4139C172.991 26.2609 172.703 26.0597 172.469 25.8102C172.24 25.5607 172.063 25.293 171.938 25.0073H171.878V29.9877H168.926ZM171.817 21.8741C171.817 22.3732 171.884 22.8078 172.017 23.1781C172.153 23.5483 172.349 23.8361 172.602 24.0414C172.86 24.2426 173.168 24.3432 173.526 24.3432C173.888 24.3432 174.196 24.2426 174.449 24.0414C174.703 23.8361 174.894 23.5483 175.023 23.1781C175.156 22.8078 175.222 22.3732 175.222 21.8741C175.222 21.375 175.156 20.9424 175.023 20.5762C174.894 20.2099 174.703 19.9262 174.449 19.725C174.2 19.5237 173.892 19.4231 173.526 19.4231C173.164 19.4231 172.856 19.5217 172.602 19.7189C172.349 19.9161 172.153 20.1978 172.017 20.5641C171.884 20.9303 171.817 21.367 171.817 21.8741ZM190.135 17.8535C190.095 17.4108 189.916 17.0667 189.598 16.8212C189.284 16.5717 188.835 16.4469 188.251 16.4469C187.865 16.4469 187.543 16.4972 187.286 16.5978C187.028 16.6984 186.835 16.8373 186.706 17.0144C186.577 17.1874 186.511 17.3866 186.507 17.612C186.499 17.7972 186.535 17.9602 186.615 18.101C186.7 18.2419 186.821 18.3666 186.978 18.4753C187.139 18.5799 187.332 18.6725 187.557 18.753C187.783 18.8335 188.036 18.9039 188.318 18.9643L189.38 19.2058C189.992 19.3386 190.531 19.5157 190.998 19.737C191.469 19.9584 191.864 20.222 192.181 20.5279C192.503 20.8337 192.747 21.1859 192.912 21.5843C193.077 21.9828 193.161 22.4295 193.165 22.9245C193.161 23.7053 192.964 24.3754 192.574 24.9348C192.183 25.4942 191.622 25.9229 190.89 26.2207C190.161 26.5185 189.282 26.6674 188.251 26.6674C187.217 26.6674 186.316 26.5125 185.547 26.2026C184.778 25.8927 184.181 25.4218 183.754 24.7899C183.327 24.1581 183.108 23.3592 183.096 22.3933H185.957C185.982 22.7917 186.088 23.1237 186.277 23.3894C186.467 23.655 186.726 23.8562 187.056 23.9931C187.39 24.1299 187.777 24.1983 188.215 24.1983C188.618 24.1983 188.96 24.144 189.241 24.0353C189.527 23.9267 189.747 23.7757 189.9 23.5826C190.052 23.3894 190.131 23.168 190.135 22.9185C190.131 22.6851 190.058 22.4858 189.918 22.3208C189.777 22.1518 189.559 22.0069 189.266 21.8862C188.976 21.7614 188.606 21.6467 188.155 21.5421L186.863 21.2402C185.792 20.9947 184.949 20.5983 184.333 20.0509C183.718 19.4996 183.412 18.755 183.416 17.8173C183.412 17.0526 183.617 16.3825 184.032 15.807C184.446 15.2315 185.02 14.7827 185.752 14.4608C186.485 14.1388 187.32 13.9778 188.257 13.9778C189.215 13.9778 190.046 14.1408 190.751 14.4668C191.459 14.7888 192.008 15.2415 192.399 15.8251C192.789 16.4087 192.988 17.0848 192.996 17.8535H190.135ZM199.909 17.2377V19.411H194.059V17.2377H199.909ZM195.284 15.0161H198.237V23.5946C198.237 23.7757 198.265 23.9226 198.321 24.0353C198.381 24.144 198.468 24.2225 198.581 24.2708C198.693 24.315 198.828 24.3372 198.985 24.3372C199.098 24.3372 199.217 24.3271 199.341 24.307C199.47 24.2828 199.567 24.2627 199.631 24.2466L200.078 26.3777C199.937 26.4179 199.738 26.4682 199.48 26.5286C199.227 26.5889 198.923 26.6272 198.569 26.6433C197.876 26.6755 197.283 26.595 196.788 26.4018C196.297 26.2046 195.92 25.8987 195.659 25.4842C195.401 25.0696 195.276 24.5485 195.284 23.9206V15.0161ZM205.644 26.6855C204.67 26.6855 203.833 26.4863 203.132 26.0879C202.436 25.6854 201.899 25.126 201.521 24.4096C201.146 23.6892 200.959 22.8541 200.959 21.9043C200.959 20.9504 201.146 20.1153 201.521 19.399C201.899 18.6786 202.436 18.1191 203.132 17.7207C203.833 17.3182 204.67 17.117 205.644 17.117C206.618 17.117 207.453 17.3182 208.149 17.7207C208.849 18.1191 209.387 18.6786 209.761 19.399C210.139 20.1153 210.328 20.9504 210.328 21.9043C210.328 22.8541 210.139 23.6892 209.761 24.4096C209.387 25.126 208.849 25.6854 208.149 26.0879C207.453 26.4863 206.618 26.6855 205.644 26.6855ZM205.662 24.4579C206.016 24.4579 206.316 24.3492 206.561 24.1319C206.807 23.9146 206.994 23.6127 207.123 23.2264C207.256 22.84 207.322 22.3933 207.322 21.8862C207.322 21.371 207.256 20.9203 207.123 20.5339C206.994 20.1475 206.807 19.8457 206.561 19.6284C206.316 19.411 206.016 19.3024 205.662 19.3024C205.296 19.3024 204.986 19.411 204.732 19.6284C204.483 19.8457 204.292 20.1475 204.159 20.5339C204.03 20.9203 203.966 21.371 203.966 21.8862C203.966 22.3933 204.03 22.84 204.159 23.2264C204.292 23.6127 204.483 23.9146 204.732 24.1319C204.986 24.3492 205.296 24.4579 205.662 24.4579ZM211.841 26.5105V17.2377H214.708V18.9281H214.805C214.974 18.3163 215.25 17.8616 215.632 17.5637C216.014 17.2619 216.459 17.111 216.966 17.111C217.103 17.111 217.244 17.121 217.389 17.1411C217.534 17.1572 217.668 17.1834 217.793 17.2196V19.7853C217.652 19.737 217.467 19.6988 217.238 19.6706C217.012 19.6424 216.811 19.6284 216.634 19.6284C216.284 19.6284 215.968 19.7068 215.686 19.8638C215.409 20.0167 215.189 20.2321 215.028 20.5098C214.871 20.7834 214.793 21.1054 214.793 21.4757V26.5105H211.841ZM222.849 26.6855C221.879 26.6855 221.042 26.4944 220.338 26.112C219.637 25.7257 219.098 25.1763 218.72 24.4639C218.346 23.7476 218.158 22.8964 218.158 21.9103C218.158 20.9525 218.348 20.1153 218.726 19.399C219.104 18.6786 219.637 18.1191 220.326 17.7207C221.014 17.3182 221.825 17.117 222.759 17.117C223.419 17.117 224.022 17.2196 224.57 17.4249C225.117 17.6301 225.59 17.934 225.988 18.3365C226.387 18.7389 226.697 19.236 226.918 19.8276C227.139 20.4152 227.25 21.0893 227.25 21.85V22.5865H219.191V20.872H224.503C224.499 20.558 224.425 20.2783 224.28 20.0328C224.135 19.7873 223.936 19.5962 223.682 19.4593C223.433 19.3185 223.145 19.248 222.819 19.248C222.489 19.248 222.193 19.3225 221.931 19.4714C221.67 19.6163 221.463 19.8155 221.31 20.0691C221.157 20.3186 221.076 20.6023 221.068 20.9203V22.6649C221.068 23.0433 221.143 23.3753 221.292 23.661C221.44 23.9428 221.652 24.1621 221.925 24.3191C222.199 24.476 222.525 24.5545 222.903 24.5545C223.165 24.5545 223.402 24.5183 223.616 24.4458C223.829 24.3734 224.012 24.2667 224.165 24.1259C224.318 23.985 224.433 23.812 224.509 23.6067L227.22 23.6852C227.107 24.2929 226.86 24.8221 226.477 25.2729C226.099 25.7196 225.602 26.0678 224.986 26.3173C224.37 26.5628 223.658 26.6855 222.849 26.6855Z" fill="white"/>
</g>
</g>
<rect x="1.0707" y="1.08119" width="233.858" height="37.8585" rx="6.92857" stroke="white" stroke-opacity="0.15" stroke-width="2.14286"/>
<defs>
<filter id="filter0_d_28_2603" x="2.39899" y="-0.290557" width="39.202" height="39.902" filterUnits="userSpaceOnUse" color-interpolation-filters="sRGB">
<feFlood flood-opacity="0" result="BackgroundImageFix"/>
<feColorMatrix in="SourceAlpha" type="matrix" values="0 0 0 0 0 0 0 0 0 0 0 0 0 0 0 0 0 0 127 0" result="hardAlpha"/>
<feOffset/>
<feGaussianBlur stdDeviation="2.80014"/>
<feComposite in2="hardAlpha" operator="out"/>
<feColorMatrix type="matrix" values="0 0 0 0 0 0 0 0 0 0 0 0 0 0 0 0 0 0 0.25 0"/>
<feBlend mode="normal" in2="BackgroundImageFix" result="effect1_dropShadow_28_2603"/>
<feBlend mode="normal" in="SourceGraphic" in2="effect1_dropShadow_28_2603" result="shape"/>
</filter>
<filter id="filter1_d_28_2603" x="36.2864" y="3.79618" width="197.429" height="32.4286" filterUnits="userSpaceOnUse" color-interpolation-filters="sRGB">
<feFlood flood-opacity="0" result="BackgroundImageFix"/>
<feColorMatrix in="SourceAlpha" type="matrix" values="0 0 0 0 0 0 0 0 0 0 0 0 0 0 0 0 0 0 127 0" result="hardAlpha"/>
<feOffset/>
<feGaussianBlur stdDeviation="2.85714"/>
<feComposite in2="hardAlpha" operator="out"/>
<feColorMatrix type="matrix" values="0 0 0 0 0 0 0 0 0 0 0 0 0 0 0 0 0 0 0.25 0"/>
<feBlend mode="normal" in2="BackgroundImageFix" result="effect1_dropShadow_28_2603"/>
<feBlend mode="normal" in="SourceGraphic" in2="effect1_dropShadow_28_2603" result="shape"/>
</filter>
<linearGradient id="paint0_linear_28_2603" x1="118" y1="0.00976562" x2="118" y2="40.0112" gradientUnits="userSpaceOnUse">
<stop stop-color="#1E1E1E"/>
<stop offset="1" stop-color="#0D0D0D"/>
</linearGradient>
<clipPath id="clip0_28_2603">
<rect x="-0.000732422" y="0.00976562" width="236.001" height="40.0014" rx="8" fill="white"/>
</clipPath>
</defs>
</svg>
