<svg width="165" height="28" viewBox="0 0 165 28" fill="none" xmlns="http://www.w3.org/2000/svg">
<g clip-path="url(#clip0_28_2603)">
<rect x="-0.000488281" y="-1.52588e-05" width="164.5" height="28" rx="6" fill="url(#paint0_linear_28_2603)"/>
<g filter="url(#filter0_d_28_2603)">
<path d="M23.6892 10.3187C23.5721 10.4087 21.5057 11.5628 21.5057 14.129C21.5057 17.0973 24.1351 18.1474 24.2139 18.1735C24.2017 18.2375 23.7961 19.6116 22.8275 21.0117C21.9638 22.2439 21.0617 23.474 19.6895 23.474C18.3172 23.474 17.9641 22.6839 16.38 22.6839C14.8362 22.6839 14.2873 23.5 13.0321 23.5C11.7769 23.5 10.9011 22.3599 9.89409 20.9597C8.72769 19.3156 7.78528 16.7613 7.78528 14.3371C7.78528 10.4487 10.336 8.38647 12.8464 8.38647C14.1803 8.38647 15.2923 9.25456 16.1297 9.25456C16.9268 9.25456 18.1699 8.33447 19.6875 8.33447C20.2626 8.33447 22.329 8.38647 23.6892 10.3187ZM18.967 6.6883C19.5946 5.95023 20.0386 4.92613 20.0386 3.90202C20.0386 3.76001 20.0265 3.616 20.0003 3.49998C18.9791 3.53799 17.7643 4.17405 17.0318 5.01614C16.4566 5.6642 15.9199 6.6883 15.9199 7.72641C15.9199 7.88242 15.9461 8.03844 15.9582 8.08844C16.0228 8.10044 16.1277 8.11445 16.2326 8.11445C17.1488 8.11445 18.3011 7.50639 18.967 6.6883Z" fill="white"/>
</g>
<g filter="url(#filter1_d_28_2603)">
<path d="M33.5542 18.5H32.2729L35.1519 10.5H36.5464L39.4253 18.5H38.144L35.8823 11.9531H35.8198L33.5542 18.5ZM33.769 15.3672H37.9253V16.3828H33.769V15.3672ZM44.8677 12.5L42.6919 18.5H41.4419L39.2622 12.5H40.5161L42.0356 17.1172H42.0981L43.6138 12.5H44.8677ZM47.5395 18.6328C47.1593 18.6328 46.8156 18.5625 46.5083 18.4219C46.201 18.2786 45.9575 18.0716 45.7778 17.8008C45.6007 17.5299 45.5122 17.1979 45.5122 16.8047C45.5122 16.4661 45.5773 16.1875 45.7075 15.9687C45.8377 15.75 46.0135 15.5768 46.2349 15.4492C46.4562 15.3216 46.7036 15.2252 46.977 15.1601C47.2505 15.095 47.5291 15.0456 47.813 15.0117C48.1724 14.97 48.464 14.9362 48.688 14.9101C48.9119 14.8815 49.0747 14.8359 49.1763 14.7734C49.2778 14.7109 49.3286 14.6094 49.3286 14.4687V14.4414C49.3286 14.1002 49.2323 13.8359 49.0395 13.6484C48.8494 13.4609 48.5656 13.3672 48.188 13.3672C47.7948 13.3672 47.4849 13.4544 47.2583 13.6289C47.0343 13.8008 46.8794 13.9922 46.7935 14.2031L45.6958 13.9531C45.826 13.5885 46.0161 13.2943 46.2661 13.0703C46.5187 12.8437 46.8091 12.6797 47.1372 12.5781C47.4653 12.4739 47.8104 12.4219 48.1724 12.4219C48.4119 12.4219 48.6658 12.4505 48.9341 12.5078C49.2049 12.5625 49.4575 12.664 49.6919 12.8125C49.9289 12.9609 50.1229 13.1732 50.2739 13.4492C50.425 13.7226 50.5005 14.0781 50.5005 14.5156V18.5H49.3599V17.6797H49.313C49.2375 17.8307 49.1242 17.9791 48.9731 18.125C48.8221 18.2708 48.6281 18.3919 48.3911 18.4883C48.1541 18.5846 47.8703 18.6328 47.5395 18.6328ZM47.7935 17.6953C48.1164 17.6953 48.3924 17.6315 48.6216 17.5039C48.8533 17.3763 49.0291 17.2096 49.1489 17.0039C49.2713 16.7956 49.3325 16.5729 49.3325 16.3359V15.5625C49.2908 15.6041 49.2101 15.6432 49.0903 15.6797C48.9731 15.7135 48.839 15.7435 48.688 15.7695C48.5369 15.793 48.3898 15.8151 48.2466 15.8359C48.1033 15.8541 47.9836 15.8698 47.8872 15.8828C47.6606 15.9114 47.4536 15.9596 47.2661 16.0273C47.0812 16.095 46.9328 16.1927 46.8208 16.3203C46.7114 16.4453 46.6567 16.612 46.6567 16.8203C46.6567 17.1094 46.7635 17.3281 46.977 17.4765C47.1906 17.6224 47.4627 17.6953 47.7935 17.6953ZM52.0561 18.5V12.5H53.2241V18.5H52.0561ZM52.646 11.5742C52.4429 11.5742 52.2684 11.5065 52.1226 11.3711C51.9793 11.2331 51.9077 11.069 51.9077 10.8789C51.9077 10.6862 51.9793 10.5221 52.1226 10.3867C52.2684 10.2487 52.4429 10.1797 52.646 10.1797C52.8491 10.1797 53.0223 10.2487 53.1655 10.3867C53.3114 10.5221 53.3843 10.6862 53.3843 10.8789C53.3843 11.069 53.3114 11.2331 53.1655 11.3711C53.0223 11.5065 52.8491 11.5742 52.646 11.5742ZM55.9634 10.5V18.5H54.7954V10.5H55.9634ZM59.2808 18.6328C58.9005 18.6328 58.5568 18.5625 58.2495 18.4219C57.9422 18.2786 57.6987 18.0716 57.519 17.8008C57.342 17.5299 57.2534 17.1979 57.2534 16.8047C57.2534 16.4661 57.3185 16.1875 57.4487 15.9687C57.5789 15.75 57.7547 15.5768 57.9761 15.4492C58.1974 15.3216 58.4448 15.2252 58.7183 15.1601C58.9917 15.095 59.2703 15.0456 59.5542 15.0117C59.9136 14.97 60.2052 14.9362 60.4292 14.9101C60.6531 14.8815 60.8159 14.8359 60.9175 14.7734C61.019 14.7109 61.0698 14.6094 61.0698 14.4687V14.4414C61.0698 14.1002 60.9735 13.8359 60.7808 13.6484C60.5906 13.4609 60.3068 13.3672 59.9292 13.3672C59.536 13.3672 59.2261 13.4544 58.9995 13.6289C58.7755 13.8008 58.6206 13.9922 58.5347 14.2031L57.437 13.9531C57.5672 13.5885 57.7573 13.2943 58.0073 13.0703C58.2599 12.8437 58.5503 12.6797 58.8784 12.5781C59.2065 12.4739 59.5516 12.4219 59.9136 12.4219C60.1531 12.4219 60.4071 12.4505 60.6753 12.5078C60.9461 12.5625 61.1987 12.664 61.4331 12.8125C61.6701 12.9609 61.8641 13.1732 62.0151 13.4492C62.1662 13.7226 62.2417 14.0781 62.2417 14.5156V18.5H61.1011V17.6797H61.0542C60.9787 17.8307 60.8654 17.9791 60.7143 18.125C60.5633 18.2708 60.3693 18.3919 60.1323 18.4883C59.8953 18.5846 59.6115 18.6328 59.2808 18.6328ZM59.5347 17.6953C59.8576 17.6953 60.1336 17.6315 60.3628 17.5039C60.5946 17.3763 60.7703 17.2096 60.8901 17.0039C61.0125 16.7956 61.0737 16.5729 61.0737 16.3359V15.5625C61.0321 15.6041 60.9513 15.6432 60.8315 15.6797C60.7143 15.7135 60.5802 15.7435 60.4292 15.7695C60.2781 15.793 60.131 15.8151 59.9878 15.8359C59.8446 15.8541 59.7248 15.8698 59.6284 15.8828C59.4018 15.9114 59.1948 15.9596 59.0073 16.0273C58.8224 16.095 58.674 16.1927 58.562 16.3203C58.4526 16.4453 58.3979 16.612 58.3979 16.8203C58.3979 17.1094 58.5047 17.3281 58.7183 17.4765C58.9318 17.6224 59.2039 17.6953 59.5347 17.6953ZM63.8911 18.5V10.5H65.0591V13.4726H65.1294C65.1971 13.3476 65.2947 13.2031 65.4224 13.039C65.55 12.875 65.727 12.7318 65.9536 12.6094C66.1802 12.4844 66.4796 12.4219 66.852 12.4219C67.3364 12.4219 67.7687 12.5443 68.1489 12.789C68.5291 13.0338 68.8273 13.3867 69.0434 13.8476C69.2622 14.3086 69.3716 14.8633 69.3716 15.5117C69.3716 16.1601 69.2635 16.7161 69.0474 17.1797C68.8312 17.6406 68.5343 17.9961 68.1567 18.2461C67.7791 18.4935 67.3481 18.6172 66.8638 18.6172C66.4992 18.6172 66.201 18.556 65.9692 18.4336C65.7401 18.3112 65.5604 18.168 65.4302 18.0039C65.3 17.8398 65.1997 17.694 65.1294 17.5664H65.0317V18.5H63.8911ZM65.0356 15.5C65.0356 15.9219 65.0968 16.2916 65.2192 16.6094C65.3416 16.9271 65.5187 17.1758 65.7505 17.3555C65.9822 17.5325 66.2661 17.6211 66.602 17.6211C66.951 17.6211 67.2427 17.5286 67.477 17.3437C67.7114 17.1562 67.8885 16.9023 68.0083 16.582C68.1307 16.2617 68.1919 15.901 68.1919 15.5C68.1919 15.1041 68.132 14.7487 68.0122 14.4336C67.895 14.1185 67.7179 13.8698 67.4809 13.6875C67.2466 13.5052 66.9536 13.414 66.602 13.414C66.2635 13.414 65.977 13.5013 65.7427 13.6758C65.5109 13.8502 65.3351 14.0937 65.2153 14.4062C65.0955 14.7187 65.0356 15.0833 65.0356 15.5ZM71.8511 10.5V18.5H70.6831V10.5H71.8511ZM76.0083 18.6211C75.4171 18.6211 74.908 18.4948 74.4809 18.2422C74.0565 17.987 73.7283 17.6289 73.4966 17.168C73.2674 16.7044 73.1528 16.1614 73.1528 15.539C73.1528 14.9245 73.2674 14.3828 73.4966 13.914C73.7283 13.4453 74.0513 13.0794 74.4653 12.8164C74.882 12.5534 75.369 12.4219 75.9263 12.4219C76.2648 12.4219 76.5929 12.4778 76.9106 12.5898C77.2283 12.7018 77.5135 12.8776 77.7661 13.1172C78.0187 13.3568 78.2179 13.668 78.3638 14.0508C78.5096 14.431 78.5825 14.8932 78.5825 15.4375V15.8515H73.813V14.9765H77.438C77.438 14.6693 77.3755 14.3971 77.2505 14.1601C77.1255 13.9206 76.9497 13.7318 76.7231 13.5937C76.4992 13.4557 76.2362 13.3867 75.9341 13.3867C75.6059 13.3867 75.3195 13.4674 75.0747 13.6289C74.8325 13.7877 74.645 13.9961 74.5122 14.2539C74.382 14.5091 74.3169 14.7864 74.3169 15.0859V15.7695C74.3169 16.1706 74.3872 16.5117 74.5278 16.793C74.671 17.0742 74.8703 17.289 75.1255 17.4375C75.3807 17.5833 75.6789 17.6562 76.02 17.6562C76.2414 17.6562 76.4432 17.625 76.6255 17.5625C76.8078 17.4974 76.9653 17.401 77.0981 17.2734C77.2309 17.1458 77.3325 16.9883 77.4028 16.8008L78.5083 17C78.4197 17.3255 78.2609 17.6107 78.0317 17.8555C77.8052 18.0976 77.52 18.2864 77.1763 18.4219C76.8351 18.5547 76.4458 18.6211 76.0083 18.6211ZM85.3169 18.6211C84.7544 18.6211 84.2635 18.4922 83.8442 18.2344C83.425 17.9765 83.0994 17.6159 82.8677 17.1523C82.6359 16.6888 82.52 16.1471 82.52 15.5273C82.52 14.9049 82.6359 14.3607 82.8677 13.8945C83.0994 13.4284 83.425 13.0664 83.8442 12.8086C84.2635 12.5508 84.7544 12.4219 85.3169 12.4219C85.8794 12.4219 86.3703 12.5508 86.7895 12.8086C87.2088 13.0664 87.5343 13.4284 87.7661 13.8945C87.9979 14.3607 88.1138 14.9049 88.1138 15.5273C88.1138 16.1471 87.9979 16.6888 87.7661 17.1523C87.5343 17.6159 87.2088 17.9765 86.7895 18.2344C86.3703 18.4922 85.8794 18.6211 85.3169 18.6211ZM85.3208 17.6406C85.6854 17.6406 85.9875 17.5443 86.227 17.3515C86.4666 17.1588 86.6437 16.9023 86.7583 16.582C86.8755 16.2617 86.9341 15.9088 86.9341 15.5234C86.9341 15.1406 86.8755 14.789 86.7583 14.4687C86.6437 14.1458 86.4666 13.8867 86.227 13.6914C85.9875 13.4961 85.6854 13.3984 85.3208 13.3984C84.9536 13.3984 84.6489 13.4961 84.4067 13.6914C84.1671 13.8867 83.9888 14.1458 83.8716 14.4687C83.757 14.789 83.6997 15.1406 83.6997 15.5234C83.6997 15.9088 83.757 16.2617 83.8716 16.582C83.9888 16.9023 84.1671 17.1588 84.4067 17.3515C84.6489 17.5443 84.9536 17.6406 85.3208 17.6406ZM90.5854 14.9375V18.5H89.4175V12.5H90.5386V13.4765H90.6128C90.7508 13.1588 90.9669 12.9036 91.2612 12.7109C91.5581 12.5182 91.9318 12.4219 92.3823 12.4219C92.7912 12.4219 93.1492 12.5078 93.4565 12.6797C93.7638 12.8489 94.0021 13.1015 94.1714 13.4375C94.3406 13.7734 94.4253 14.1888 94.4253 14.6836V18.5H93.2573V14.8242C93.2573 14.3893 93.144 14.0495 92.9175 13.8047C92.6909 13.5573 92.3797 13.4336 91.9839 13.4336C91.713 13.4336 91.4722 13.4922 91.2612 13.6094C91.0529 13.7265 90.8875 13.8984 90.7651 14.125C90.6453 14.3489 90.5854 14.6198 90.5854 14.9375Z" fill="#E8E8E8"/>
<path d="M101.048 18.5H98.7808L101.725 9.77271H104.534L107.478 18.5H105.211L103.161 11.9716H103.093L101.048 18.5ZM100.745 15.0653H105.484V16.6676H100.745V15.0653ZM108.418 20.9545V11.9545H110.48V13.0753H110.544C110.629 12.8764 110.75 12.6846 110.906 12.5C111.066 12.3153 111.267 12.1648 111.512 12.0483C111.759 11.929 112.054 11.8693 112.398 11.8693C112.852 11.8693 113.277 11.9886 113.672 12.2273C114.07 12.4659 114.391 12.8338 114.635 13.3309C114.879 13.8281 115.002 14.4616 115.002 15.2315C115.002 15.973 114.884 16.5937 114.648 17.0937C114.415 17.5937 114.1 17.9687 113.702 18.2187C113.307 18.4687 112.868 18.5937 112.385 18.5937C112.056 18.5937 111.77 18.5398 111.529 18.4318C111.287 18.3238 111.084 18.1818 110.919 18.0057C110.757 17.8295 110.632 17.6406 110.544 17.4389H110.502V20.9545H108.418ZM110.459 15.2273C110.459 15.5795 110.506 15.8863 110.6 16.1477C110.696 16.4091 110.834 16.6122 111.013 16.7571C111.195 16.8991 111.412 16.9702 111.665 16.9702C111.921 16.9702 112.138 16.8991 112.317 16.7571C112.496 16.6122 112.631 16.4091 112.722 16.1477C112.816 15.8863 112.862 15.5795 112.862 15.2273C112.862 14.875 112.816 14.5696 112.722 14.3111C112.631 14.0525 112.496 13.8523 112.317 13.7102C112.141 13.5682 111.924 13.4971 111.665 13.4971C111.409 13.4971 111.192 13.5667 111.013 13.7059C110.834 13.8452 110.696 14.044 110.6 14.3025C110.506 14.5611 110.459 14.8693 110.459 15.2273ZM116.094 20.9545V11.9545H118.156V13.0753H118.22C118.305 12.8764 118.426 12.6846 118.582 12.5C118.741 12.3153 118.943 12.1648 119.187 12.0483C119.435 11.929 119.73 11.8693 120.074 11.8693C120.528 11.8693 120.953 11.9886 121.348 12.2273C121.746 12.4659 122.067 12.8338 122.311 13.3309C122.555 13.8281 122.677 14.4616 122.677 15.2315C122.677 15.973 122.56 16.5937 122.324 17.0937C122.091 17.5937 121.775 17.9687 121.378 18.2187C120.983 18.4687 120.544 18.5937 120.061 18.5937C119.731 18.5937 119.446 18.5398 119.204 18.4318C118.963 18.3238 118.76 18.1818 118.595 18.0057C118.433 17.8295 118.308 17.6406 118.22 17.4389H118.177V20.9545H116.094ZM118.135 15.2273C118.135 15.5795 118.182 15.8863 118.275 16.1477C118.372 16.4091 118.51 16.6122 118.689 16.7571C118.871 16.8991 119.088 16.9702 119.341 16.9702C119.596 16.9702 119.814 16.8991 119.993 16.7571C120.172 16.6122 120.307 16.4091 120.398 16.1477C120.491 15.8863 120.538 15.5795 120.538 15.2273C120.538 14.875 120.491 14.5696 120.398 14.3111C120.307 14.0525 120.172 13.8523 119.993 13.7102C119.817 13.5682 119.599 13.4971 119.341 13.4971C119.085 13.4971 118.868 13.5667 118.689 13.7059C118.51 13.8452 118.372 14.044 118.275 14.3025C118.182 14.5611 118.135 14.8693 118.135 15.2273ZM131.065 12.3892C131.036 12.0767 130.91 11.8338 130.686 11.6605C130.464 11.4844 130.147 11.3963 129.735 11.3963C129.463 11.3963 129.235 11.4318 129.053 11.5028C128.872 11.5738 128.735 11.6719 128.644 11.7969C128.553 11.919 128.507 12.0596 128.504 12.2187C128.498 12.3494 128.524 12.4645 128.58 12.5639C128.64 12.6633 128.725 12.7514 128.836 12.8281C128.95 12.902 129.086 12.9673 129.245 13.0241C129.404 13.0809 129.583 13.1307 129.782 13.1733L130.532 13.3437C130.964 13.4375 131.345 13.5625 131.674 13.7187C132.007 13.875 132.285 14.0611 132.509 14.277C132.737 14.4929 132.909 14.7415 133.025 15.0227C133.142 15.304 133.201 15.6193 133.204 15.9687C133.201 16.5199 133.062 16.9929 132.786 17.3878C132.511 17.7827 132.115 18.0852 131.598 18.2954C131.083 18.5057 130.463 18.6108 129.735 18.6108C129.005 18.6108 128.369 18.5014 127.826 18.2827C127.284 18.0639 126.862 17.7315 126.561 17.2855C126.259 16.8395 126.105 16.2756 126.096 15.5937H128.116C128.133 15.875 128.208 16.1094 128.342 16.2969C128.475 16.4844 128.659 16.6264 128.892 16.723C129.127 16.8196 129.4 16.8679 129.71 16.8679C129.994 16.8679 130.235 16.8295 130.434 16.7528C130.636 16.6761 130.791 16.5696 130.899 16.4332C131.007 16.2969 131.062 16.1406 131.065 15.9645C131.062 15.7997 131.011 15.6591 130.911 15.5426C130.812 15.4233 130.659 15.321 130.451 15.2358C130.247 15.1477 129.985 15.0667 129.667 14.9929L128.755 14.7798C128 14.6065 127.404 14.3267 126.97 13.9403C126.535 13.5511 126.319 13.0256 126.322 12.3636C126.319 11.8238 126.464 11.3508 126.757 10.9446C127.049 10.5383 127.454 10.2216 127.971 9.9943C128.488 9.76703 129.078 9.65339 129.74 9.65339C130.416 9.65339 131.002 9.76845 131.5 9.99856C132 10.2258 132.387 10.5454 132.663 10.9574C132.938 11.3693 133.079 11.8466 133.085 12.3892H131.065ZM137.964 11.9545V13.4886H133.835V11.9545H137.964ZM134.7 10.3863H136.784V16.4417C136.784 16.5696 136.803 16.6733 136.843 16.7528C136.886 16.8295 136.947 16.8849 137.026 16.919C137.106 16.9503 137.201 16.9659 137.312 16.9659C137.392 16.9659 137.475 16.9588 137.563 16.9446C137.654 16.9275 137.723 16.9133 137.768 16.902L138.083 18.4062C137.984 18.4346 137.843 18.4702 137.661 18.5128C137.482 18.5554 137.268 18.5824 137.018 18.5937C136.529 18.6165 136.11 18.5596 135.761 18.4233C135.414 18.2841 135.149 18.0682 134.964 17.7755C134.782 17.4829 134.694 17.115 134.7 16.6719V10.3863ZM142.012 18.6236C141.325 18.6236 140.734 18.4829 140.24 18.2017C139.748 17.9176 139.369 17.5227 139.102 17.017C138.838 16.5085 138.705 15.919 138.705 15.2486C138.705 14.5753 138.838 13.9858 139.102 13.4801C139.369 12.9716 139.748 12.5767 140.24 12.2954C140.734 12.0113 141.325 11.8693 142.012 11.8693C142.7 11.8693 143.289 12.0113 143.781 12.2954C144.275 12.5767 144.654 12.9716 144.919 13.4801C145.186 13.9858 145.319 14.5753 145.319 15.2486C145.319 15.919 145.186 16.5085 144.919 17.017C144.654 17.5227 144.275 17.9176 143.781 18.2017C143.289 18.4829 142.7 18.6236 142.012 18.6236ZM142.025 17.0511C142.275 17.0511 142.487 16.9744 142.66 16.821C142.833 16.6676 142.965 16.4545 143.056 16.1818C143.15 15.9091 143.197 15.5937 143.197 15.2358C143.197 14.8721 143.15 14.554 143.056 14.2812C142.965 14.0085 142.833 13.7954 142.66 13.642C142.487 13.4886 142.275 13.4119 142.025 13.4119C141.767 13.4119 141.548 13.4886 141.369 13.642C141.193 13.7954 141.058 14.0085 140.964 14.2812C140.873 14.554 140.828 14.8721 140.828 15.2358C140.828 15.5937 140.873 15.9091 140.964 16.1818C141.058 16.4545 141.193 16.6676 141.369 16.821C141.548 16.9744 141.767 17.0511 142.025 17.0511ZM146.387 18.5V11.9545H148.411V13.1477H148.479C148.598 12.7159 148.793 12.3949 149.063 12.1846C149.333 11.9716 149.647 11.865 150.004 11.865C150.101 11.865 150.2 11.8721 150.303 11.8863C150.405 11.8977 150.5 11.9162 150.588 11.9417V13.7528C150.489 13.7187 150.358 13.6917 150.196 13.6719C150.037 13.652 149.895 13.642 149.77 13.642C149.523 13.642 149.3 13.6974 149.101 13.8082C148.905 13.9162 148.75 14.0682 148.637 14.2642C148.526 14.4574 148.47 14.6846 148.47 14.946V18.5H146.387ZM154.157 18.6236C153.473 18.6236 152.882 18.4886 152.384 18.2187C151.89 17.946 151.509 17.5582 151.242 17.0554C150.978 16.5497 150.846 15.9488 150.846 15.2528C150.846 14.5767 150.98 13.9858 151.247 13.4801C151.514 12.9716 151.89 12.5767 152.376 12.2954C152.862 12.0113 153.434 11.8693 154.093 11.8693C154.559 11.8693 154.985 11.9417 155.372 12.0866C155.758 12.2315 156.092 12.446 156.373 12.7301C156.654 13.0142 156.873 13.365 157.029 13.7827C157.186 14.1974 157.264 14.6733 157.264 15.2102V15.7301H151.575V14.5199H155.325C155.322 14.2983 155.269 14.1008 155.167 13.9275C155.065 13.7542 154.924 13.6193 154.745 13.5227C154.569 13.4233 154.366 13.3736 154.136 13.3736C153.903 13.3736 153.694 13.4261 153.509 13.5312C153.325 13.6335 153.178 13.7741 153.071 13.9531C152.963 14.1292 152.906 14.3295 152.9 14.554V15.7855C152.9 16.0525 152.953 16.2869 153.058 16.4886C153.163 16.6875 153.312 16.8423 153.505 16.9531C153.698 17.0639 153.928 17.1193 154.196 17.1193C154.38 17.1193 154.548 17.0937 154.698 17.0426C154.849 16.9915 154.978 16.9162 155.086 16.8167C155.194 16.7173 155.275 16.5952 155.329 16.4503L157.242 16.5057C157.163 16.9346 156.988 17.3082 156.718 17.6264C156.451 17.9417 156.1 18.1875 155.666 18.3636C155.231 18.5369 154.728 18.6236 154.157 18.6236Z" fill="white"/>
</g>
</g>
<rect x="0.749512" y="0.749985" width="163" height="26.5" rx="5.25" stroke="white" stroke-opacity="0.15" stroke-width="1.5"/>
<defs>
<filter id="filter0_d_28_2603" x="1.99951" y="-0.500015" width="28" height="28.5" filterUnits="userSpaceOnUse" color-interpolation-filters="sRGB">
<feFlood flood-opacity="0" result="BackgroundImageFix"/>
<feColorMatrix in="SourceAlpha" type="matrix" values="0 0 0 0 0 0 0 0 0 0 0 0 0 0 0 0 0 0 127 0" result="hardAlpha"/>
<feOffset/>
<feGaussianBlur stdDeviation="2"/>
<feComposite in2="hardAlpha" operator="out"/>
<feColorMatrix type="matrix" values="0 0 0 0 0 0 0 0 0 0 0 0 0 0 0 0 0 0 0.25 0"/>
<feBlend mode="normal" in2="BackgroundImageFix" result="effect1_dropShadow_28_2603"/>
<feBlend mode="normal" in="SourceGraphic" in2="effect1_dropShadow_28_2603" result="shape"/>
</filter>
<filter id="filter1_d_28_2603" x="27.9995" y="3.49998" width="134.5" height="21.4545" filterUnits="userSpaceOnUse" color-interpolation-filters="sRGB">
<feFlood flood-opacity="0" result="BackgroundImageFix"/>
<feColorMatrix in="SourceAlpha" type="matrix" values="0 0 0 0 0 0 0 0 0 0 0 0 0 0 0 0 0 0 127 0" result="hardAlpha"/>
<feOffset/>
<feGaussianBlur stdDeviation="2"/>
<feComposite in2="hardAlpha" operator="out"/>
<feColorMatrix type="matrix" values="0 0 0 0 0 0 0 0 0 0 0 0 0 0 0 0 0 0 0.25 0"/>
<feBlend mode="normal" in2="BackgroundImageFix" result="effect1_dropShadow_28_2603"/>
<feBlend mode="normal" in="SourceGraphic" in2="effect1_dropShadow_28_2603" result="shape"/>
</filter>
<linearGradient id="paint0_linear_28_2603" x1="82.2495" y1="-1.52588e-05" x2="82.2495" y2="28" gradientUnits="userSpaceOnUse">
<stop stop-color="#1E1E1E"/>
<stop offset="1" stop-color="#0D0D0D"/>
</linearGradient>
<clipPath id="clip0_28_2603">
<rect x="-0.000488281" y="-1.52588e-05" width="164.5" height="28" rx="6" fill="white"/>
</clipPath>
</defs>
</svg>
