<svg width="238" height="41" viewBox="0 0 238 41" fill="none" xmlns="http://www.w3.org/2000/svg">
<g clip-path="url(#clip0_28_2603)">
<rect x="-0.000732422" y="0.00976562" width="238.001" height="40.0014" rx="8" fill="url(#paint0_linear_28_2603)"/>
<g filter="url(#filter0_d_28_2603)">
<path d="M32.7658 14.8564C32.602 14.9824 29.7088 16.5982 29.7088 20.1912C29.7088 24.347 33.3902 25.8172 33.5004 25.8536C33.4835 25.9432 32.9156 27.8671 31.5594 29.8274C30.3502 31.5525 29.0872 33.2747 27.166 33.2747C25.2448 33.2747 24.7503 32.1685 22.5324 32.1685C20.371 32.1685 19.6025 33.3111 17.8452 33.3111C16.0878 33.3111 14.8616 31.7149 13.4518 29.7546C11.8187 27.4526 10.4993 23.8765 10.4993 20.4824C10.4993 15.0384 14.0705 12.1511 17.5852 12.1511C19.4528 12.1511 21.0096 13.3665 22.1821 13.3665C23.2981 13.3665 25.0385 12.0783 27.1632 12.0783C27.9684 12.0783 30.8615 12.1511 32.7658 14.8564V14.8564ZM26.1545 9.77359C27.0332 8.74024 27.6548 7.30642 27.6548 5.87261C27.6548 5.67378 27.6378 5.47215 27.6011 5.30972C26.1715 5.36293 24.4706 6.25346 23.445 7.43244C22.6398 8.33978 21.8882 9.77359 21.8882 11.227C21.8882 11.4454 21.925 11.6639 21.9419 11.7339C22.0323 11.7507 22.1793 11.7703 22.3262 11.7703C23.6089 11.7703 25.2222 10.919 26.1545 9.77359Z" fill="white"/>
</g>
<g filter="url(#filter1_d_28_2603)">
<path d="M46.4034 26.5105H44.4233L48.8725 14.1468H51.0277L55.4769 26.5105H53.4968L50.0014 16.3926H49.9049L46.4034 26.5105ZM46.7355 21.6688H53.1588V23.2384H46.7355V21.6688ZM63.8879 17.2377L60.5253 26.5105H58.5935L55.2249 17.2377H57.1627L59.5111 24.3734H59.6077L61.95 17.2377H63.8879ZM68.0171 26.7157C67.4296 26.7157 66.8983 26.6071 66.4234 26.3897C65.9485 26.1684 65.5722 25.8484 65.2945 25.4299C65.0208 25.0113 64.884 24.4982 64.884 23.8904C64.884 23.3672 64.9846 22.9366 65.1858 22.5985C65.3871 22.2605 65.6587 21.9928 66.0008 21.7956C66.3429 21.5984 66.7252 21.4495 67.1478 21.3489C67.5704 21.2483 68.0011 21.1718 68.4397 21.1195C68.9951 21.0551 69.4459 21.0028 69.792 20.9625C70.1381 20.9183 70.3897 20.8478 70.5466 20.7512C70.7036 20.6546 70.7821 20.4977 70.7821 20.2804V20.2381C70.7821 19.7109 70.6332 19.3024 70.3353 19.0126C70.0415 18.7228 69.6028 18.5779 69.0193 18.5779C68.4116 18.5779 67.9326 18.7128 67.5825 18.9824C67.2364 19.248 66.9969 19.5438 66.8641 19.8698L65.1677 19.4835C65.3689 18.92 65.6627 18.4652 66.0491 18.1191C66.4395 17.769 66.8882 17.5154 67.3953 17.3585C67.9024 17.1975 68.4357 17.117 68.9951 17.117C69.3654 17.117 69.7578 17.1613 70.1723 17.2498C70.5909 17.3343 70.9813 17.4913 71.3435 17.7207C71.7097 17.9501 72.0096 18.2781 72.243 18.7047C72.4764 19.1273 72.5931 19.6767 72.5931 20.3528V26.5105H70.8304V25.2427H70.7579C70.6412 25.4761 70.4661 25.7055 70.2327 25.9309C69.9993 26.1563 69.6994 26.3434 69.3332 26.4924C68.967 26.6413 68.5283 26.7157 68.0171 26.7157ZM68.4095 25.2669C68.9086 25.2669 69.3352 25.1683 69.6894 24.971C70.0476 24.7738 70.3192 24.5163 70.5044 24.1983C70.6935 23.8763 70.7881 23.5322 70.7881 23.166V21.9707C70.7237 22.0351 70.5989 22.0955 70.4138 22.1518C70.2327 22.2041 70.0254 22.2504 69.792 22.2906C69.5586 22.3269 69.3312 22.3611 69.1098 22.3933C68.8885 22.4214 68.7033 22.4456 68.5544 22.4657C68.2043 22.51 67.8843 22.5844 67.5946 22.6891C67.3088 22.7937 67.0794 22.9446 66.9064 23.1419C66.7373 23.335 66.6528 23.5926 66.6528 23.9146C66.6528 24.3613 66.8178 24.6994 67.1478 24.9288C67.4779 25.1542 67.8984 25.2669 68.4095 25.2669ZM74.9973 26.5105V17.2377H76.8024V26.5105H74.9973ZM75.9089 15.807C75.595 15.807 75.3254 15.7023 75.1 15.4931C74.8786 15.2798 74.7679 15.0262 74.7679 14.7324C74.7679 14.4346 74.8786 14.181 75.1 13.9718C75.3254 13.7585 75.595 13.6518 75.9089 13.6518C76.2228 13.6518 76.4905 13.7585 76.7118 13.9718C76.9372 14.181 77.0499 14.4346 77.0499 14.7324C77.0499 15.0262 76.9372 15.2798 76.7118 15.4931C76.4905 15.7023 76.2228 15.807 75.9089 15.807ZM81.0358 14.1468V26.5105H79.2307V14.1468H81.0358ZM86.1627 26.7157C85.5751 26.7157 85.0438 26.6071 84.5689 26.3897C84.094 26.1684 83.7177 25.8484 83.44 25.4299C83.1663 25.0113 83.0295 24.4982 83.0295 23.8904C83.0295 23.3672 83.1301 22.9366 83.3313 22.5985C83.5326 22.2605 83.8042 21.9928 84.1463 21.7956C84.4884 21.5984 84.8707 21.4495 85.2933 21.3489C85.7159 21.2483 86.1466 21.1718 86.5852 21.1195C87.1406 21.0551 87.5914 21.0028 87.9375 20.9625C88.2836 20.9183 88.5352 20.8478 88.6921 20.7512C88.8491 20.6546 88.9276 20.4977 88.9276 20.2804V20.2381C88.9276 19.7109 88.7787 19.3024 88.4808 19.0126C88.187 18.7228 87.7484 18.5779 87.1648 18.5779C86.5571 18.5779 86.0781 18.7128 85.728 18.9824C85.3819 19.248 85.1424 19.5438 85.0096 19.8698L83.3132 19.4835C83.5145 18.92 83.8082 18.4652 84.1946 18.1191C84.585 17.769 85.0337 17.5154 85.5408 17.3585C86.048 17.1975 86.5812 17.117 87.1406 17.117C87.5109 17.117 87.9033 17.1613 88.3178 17.2498C88.7364 17.3343 89.1268 17.4913 89.489 17.7207C89.8552 17.9501 90.1551 18.2781 90.3885 18.7047C90.6219 19.1273 90.7386 19.6767 90.7386 20.3528V26.5105H88.9759V25.2427H88.9034C88.7867 25.4761 88.6116 25.7055 88.3782 25.9309C88.1448 26.1563 87.8449 26.3434 87.4787 26.4924C87.1125 26.6413 86.6738 26.7157 86.1627 26.7157ZM86.5551 25.2669C87.0541 25.2669 87.4807 25.1683 87.8349 24.971C88.1931 24.7738 88.4647 24.5163 88.6499 24.1983C88.839 23.8763 88.9336 23.5322 88.9336 23.166V21.9707C88.8692 22.0351 88.7444 22.0955 88.5593 22.1518C88.3782 22.2041 88.1709 22.2504 87.9375 22.2906C87.7041 22.3269 87.4767 22.3611 87.2553 22.3933C87.034 22.4214 86.8488 22.4456 86.6999 22.4657C86.3498 22.51 86.0298 22.5844 85.7401 22.6891C85.4543 22.7937 85.2249 22.9446 85.0519 23.1419C84.8828 23.335 84.7983 23.5926 84.7983 23.9146C84.7983 24.3613 84.9633 24.6994 85.2933 24.9288C85.6234 25.1542 86.0439 25.2669 86.5551 25.2669ZM93.2877 26.5105V14.1468H95.0928V18.7409H95.2014C95.3061 18.5478 95.457 18.3244 95.6542 18.0708C95.8514 17.8173 96.1251 17.5959 96.4752 17.4068C96.8254 17.2136 97.2882 17.117 97.8637 17.117C98.6123 17.117 99.2804 17.3062 99.868 17.6845C100.456 18.0628 100.916 18.6081 101.25 19.3205C101.589 20.0328 101.758 20.8901 101.758 21.8922C101.758 22.8943 101.591 23.7536 101.256 24.47C100.922 25.1823 100.464 25.7317 99.8801 26.1181C99.2965 26.5004 98.6304 26.6916 97.8818 26.6916C97.3184 26.6916 96.8576 26.597 96.4994 26.4078C96.1452 26.2187 95.8675 25.9973 95.6663 25.7438C95.4651 25.4902 95.3101 25.2648 95.2014 25.0676H95.0505V26.5105H93.2877ZM95.0566 21.8741C95.0566 22.5261 95.1511 23.0976 95.3403 23.5886C95.5295 24.0796 95.8031 24.4639 96.1613 24.7416C96.5195 25.0153 96.9582 25.1522 97.4774 25.1522C98.0167 25.1522 98.4674 25.0093 98.8296 24.7235C99.1919 24.4338 99.4655 24.0414 99.6507 23.5463C99.8398 23.0513 99.9344 22.4939 99.9344 21.8741C99.9344 21.2624 99.8418 20.713 99.6567 20.226C99.4756 19.739 99.2019 19.3547 98.8357 19.073C98.4735 18.7912 98.0207 18.6504 97.4774 18.6504C96.9542 18.6504 96.5115 18.7852 96.1492 19.0549C95.7911 19.3245 95.5194 19.7008 95.3343 20.1838C95.1491 20.6667 95.0566 21.2302 95.0566 21.8741ZM105.589 14.1468V26.5105H103.784V14.1468H105.589ZM112.014 26.6976C111.101 26.6976 110.314 26.5024 109.654 26.112C108.998 25.7176 108.491 25.1642 108.133 24.4519C107.778 23.7355 107.601 22.8964 107.601 21.9345C107.601 20.9847 107.778 20.1475 108.133 19.4231C108.491 18.6987 108.99 18.1332 109.63 17.7267C110.274 17.3202 111.026 17.117 111.888 17.117C112.411 17.117 112.918 17.2035 113.409 17.3766C113.9 17.5496 114.341 17.8213 114.731 18.1916C115.121 18.5618 115.429 19.0428 115.655 19.6344C115.88 20.222 115.993 20.9364 115.993 21.7775V22.4174H108.622V21.0652H114.224C114.224 20.5902 114.127 20.1697 113.934 19.8034C113.741 19.4332 113.469 19.1414 113.119 18.9281C112.773 18.7148 112.366 18.6081 111.9 18.6081C111.392 18.6081 110.95 18.7329 110.571 18.9824C110.197 19.2279 109.907 19.5499 109.702 19.9483C109.501 20.3427 109.4 20.7714 109.4 21.2342V22.2906C109.4 22.9104 109.509 23.4377 109.726 23.8723C109.948 24.307 110.256 24.639 110.65 24.8684C111.044 25.0938 111.505 25.2065 112.032 25.2065C112.374 25.2065 112.686 25.1582 112.968 25.0616C113.25 24.961 113.493 24.8121 113.699 24.6149C113.904 24.4177 114.061 24.1742 114.169 23.8844L115.878 24.1923C115.741 24.6954 115.496 25.1361 115.141 25.5144C114.791 25.8887 114.351 26.1804 113.819 26.3897C113.292 26.595 112.69 26.6976 112.014 26.6976ZM126.4 26.6976C125.531 26.6976 124.772 26.4984 124.124 26.1C123.476 25.7015 122.973 25.1441 122.615 24.4277C122.257 23.7113 122.078 22.8742 122.078 21.9164C122.078 20.9545 122.257 20.1133 122.615 19.3929C122.973 18.6725 123.476 18.1131 124.124 17.7147C124.772 17.3162 125.531 17.117 126.4 17.117C127.27 17.117 128.028 17.3162 128.676 17.7147C129.324 18.1131 129.827 18.6725 130.185 19.3929C130.544 20.1133 130.723 20.9545 130.723 21.9164C130.723 22.8742 130.544 23.7113 130.185 24.4277C129.827 25.1441 129.324 25.7015 128.676 26.1C128.028 26.4984 127.27 26.6976 126.4 26.6976ZM126.406 25.1823C126.97 25.1823 127.437 25.0334 127.807 24.7356C128.177 24.4378 128.451 24.0414 128.628 23.5463C128.809 23.0513 128.9 22.506 128.9 21.9103C128.9 21.3187 128.809 20.7754 128.628 20.2804C128.451 19.7813 128.177 19.3808 127.807 19.079C127.437 18.7772 126.97 18.6262 126.406 18.6262C125.839 18.6262 125.368 18.7772 124.994 19.079C124.623 19.3808 124.348 19.7813 124.167 20.2804C123.99 20.7754 123.901 21.3187 123.901 21.9103C123.901 22.506 123.99 23.0513 124.167 23.5463C124.348 24.0414 124.623 24.4378 124.994 24.7356C125.368 25.0334 125.839 25.1823 126.406 25.1823ZM134.543 21.0048V26.5105H132.738V17.2377H134.47V18.747H134.585C134.798 18.256 135.132 17.8616 135.587 17.5637C136.046 17.2659 136.623 17.117 137.32 17.117C137.951 17.117 138.505 17.2498 138.98 17.5154C139.455 17.777 139.823 18.1674 140.085 18.6866C140.346 19.2058 140.477 19.8477 140.477 20.6124V26.5105H138.672V20.8297C138.672 20.1576 138.497 19.6324 138.147 19.2541C137.797 18.8717 137.316 18.6806 136.704 18.6806C136.285 18.6806 135.913 18.7711 135.587 18.9522C135.265 19.1333 135.009 19.399 134.82 19.7491C134.635 20.0952 134.543 20.5138 134.543 21.0048Z" fill="#E8E8E8"/>
<path d="M149.611 26.5105H146.399L150.571 14.1468H154.549L158.721 26.5105H155.509L152.605 17.2619H152.509L149.611 26.5105ZM149.182 21.6447H155.895V23.9146H149.182V21.6447ZM160.052 29.9877V17.2377H162.974V18.8255H163.064C163.185 18.5437 163.356 18.2721 163.577 18.0105C163.803 17.7489 164.088 17.5356 164.434 17.3706C164.785 17.2015 165.203 17.117 165.69 17.117C166.334 17.117 166.936 17.286 167.495 17.6241C168.059 17.9622 168.513 18.4834 168.86 19.1877C169.206 19.892 169.379 20.7895 169.379 21.8801C169.379 22.9306 169.212 23.8099 168.878 24.5183C168.548 25.2266 168.101 25.7579 167.537 26.112C166.978 26.4662 166.356 26.6433 165.672 26.6433C165.205 26.6433 164.801 26.5668 164.459 26.4139C164.117 26.2609 163.829 26.0597 163.595 25.8102C163.366 25.5607 163.189 25.293 163.064 25.0073H163.004V29.9877H160.052ZM162.943 21.8741C162.943 22.3732 163.01 22.8078 163.143 23.1781C163.279 23.5483 163.475 23.8361 163.728 24.0414C163.986 24.2426 164.294 24.3432 164.652 24.3432C165.014 24.3432 165.322 24.2426 165.575 24.0414C165.829 23.8361 166.02 23.5483 166.149 23.1781C166.282 22.8078 166.348 22.3732 166.348 21.8741C166.348 21.375 166.282 20.9424 166.149 20.5762C166.02 20.2099 165.829 19.9262 165.575 19.725C165.326 19.5237 165.018 19.4231 164.652 19.4231C164.29 19.4231 163.982 19.5217 163.728 19.7189C163.475 19.9161 163.279 20.1978 163.143 20.5641C163.01 20.9303 162.943 21.367 162.943 21.8741ZM170.926 29.9877V17.2377H173.848V18.8255H173.938C174.059 18.5437 174.23 18.2721 174.451 18.0105C174.677 17.7489 174.962 17.5356 175.309 17.3706C175.659 17.2015 176.077 17.117 176.564 17.117C177.208 17.117 177.81 17.286 178.369 17.6241C178.933 17.9622 179.387 18.4834 179.734 19.1877C180.08 19.892 180.253 20.7895 180.253 21.8801C180.253 22.9306 180.086 23.8099 179.752 24.5183C179.422 25.2266 178.975 25.7579 178.412 26.112C177.852 26.4662 177.23 26.6433 176.546 26.6433C176.079 26.6433 175.675 26.5668 175.333 26.4139C174.991 26.2609 174.703 26.0597 174.469 25.8102C174.24 25.5607 174.063 25.293 173.938 25.0073H173.878V29.9877H170.926ZM173.817 21.8741C173.817 22.3732 173.884 22.8078 174.017 23.1781C174.153 23.5483 174.349 23.8361 174.602 24.0414C174.86 24.2426 175.168 24.3432 175.526 24.3432C175.888 24.3432 176.196 24.2426 176.449 24.0414C176.703 23.8361 176.894 23.5483 177.023 23.1781C177.156 22.8078 177.222 22.3732 177.222 21.8741C177.222 21.375 177.156 20.9424 177.023 20.5762C176.894 20.2099 176.703 19.9262 176.449 19.725C176.2 19.5237 175.892 19.4231 175.526 19.4231C175.164 19.4231 174.856 19.5217 174.602 19.7189C174.349 19.9161 174.153 20.1978 174.017 20.5641C173.884 20.9303 173.817 21.367 173.817 21.8741ZM192.135 17.8535C192.095 17.4108 191.916 17.0667 191.598 16.8212C191.284 16.5717 190.835 16.4469 190.251 16.4469C189.865 16.4469 189.543 16.4972 189.286 16.5978C189.028 16.6984 188.835 16.8373 188.706 17.0144C188.577 17.1874 188.511 17.3866 188.507 17.612C188.499 17.7972 188.535 17.9602 188.615 18.101C188.7 18.2419 188.821 18.3666 188.978 18.4753C189.139 18.5799 189.332 18.6725 189.557 18.753C189.783 18.8335 190.036 18.9039 190.318 18.9643L191.38 19.2058C191.992 19.3386 192.531 19.5157 192.998 19.737C193.469 19.9584 193.864 20.222 194.181 20.5279C194.503 20.8337 194.747 21.1859 194.912 21.5843C195.077 21.9828 195.161 22.4295 195.165 22.9245C195.161 23.7053 194.964 24.3754 194.574 24.9348C194.183 25.4942 193.622 25.9229 192.89 26.2207C192.161 26.5185 191.282 26.6674 190.251 26.6674C189.217 26.6674 188.316 26.5125 187.547 26.2026C186.778 25.8927 186.181 25.4218 185.754 24.7899C185.327 24.1581 185.108 23.3592 185.096 22.3933H187.957C187.982 22.7917 188.088 23.1237 188.277 23.3894C188.467 23.655 188.726 23.8562 189.056 23.9931C189.39 24.1299 189.777 24.1983 190.215 24.1983C190.618 24.1983 190.96 24.144 191.241 24.0353C191.527 23.9267 191.747 23.7757 191.9 23.5826C192.052 23.3894 192.131 23.168 192.135 22.9185C192.131 22.6851 192.058 22.4858 191.918 22.3208C191.777 22.1518 191.559 22.0069 191.266 21.8862C190.976 21.7614 190.606 21.6467 190.155 21.5421L188.863 21.2402C187.792 20.9947 186.949 20.5983 186.333 20.0509C185.718 19.4996 185.412 18.755 185.416 17.8173C185.412 17.0526 185.617 16.3825 186.032 15.807C186.446 15.2315 187.02 14.7827 187.752 14.4608C188.485 14.1388 189.32 13.9778 190.257 13.9778C191.215 13.9778 192.046 14.1408 192.751 14.4668C193.459 14.7888 194.008 15.2415 194.399 15.8251C194.789 16.4087 194.988 17.0848 194.996 17.8535H192.135ZM201.909 17.2377V19.411H196.059V17.2377H201.909ZM197.284 15.0161H200.237V23.5946C200.237 23.7757 200.265 23.9226 200.321 24.0353C200.381 24.144 200.468 24.2225 200.581 24.2708C200.693 24.315 200.828 24.3372 200.985 24.3372C201.098 24.3372 201.217 24.3271 201.341 24.307C201.47 24.2828 201.567 24.2627 201.631 24.2466L202.078 26.3777C201.937 26.4179 201.738 26.4682 201.48 26.5286C201.227 26.5889 200.923 26.6272 200.569 26.6433C199.876 26.6755 199.283 26.595 198.788 26.4018C198.297 26.2046 197.92 25.8987 197.659 25.4842C197.401 25.0696 197.276 24.5485 197.284 23.9206V15.0161ZM207.644 26.6855C206.67 26.6855 205.833 26.4863 205.132 26.0879C204.436 25.6854 203.899 25.126 203.521 24.4096C203.146 23.6892 202.959 22.8541 202.959 21.9043C202.959 20.9504 203.146 20.1153 203.521 19.399C203.899 18.6786 204.436 18.1191 205.132 17.7207C205.833 17.3182 206.67 17.117 207.644 17.117C208.618 17.117 209.453 17.3182 210.149 17.7207C210.849 18.1191 211.387 18.6786 211.761 19.399C212.139 20.1153 212.328 20.9504 212.328 21.9043C212.328 22.8541 212.139 23.6892 211.761 24.4096C211.387 25.126 210.849 25.6854 210.149 26.0879C209.453 26.4863 208.618 26.6855 207.644 26.6855ZM207.662 24.4579C208.016 24.4579 208.316 24.3492 208.561 24.1319C208.807 23.9146 208.994 23.6127 209.123 23.2264C209.256 22.84 209.322 22.3933 209.322 21.8862C209.322 21.371 209.256 20.9203 209.123 20.5339C208.994 20.1475 208.807 19.8457 208.561 19.6284C208.316 19.411 208.016 19.3024 207.662 19.3024C207.296 19.3024 206.986 19.411 206.732 19.6284C206.483 19.8457 206.292 20.1475 206.159 20.5339C206.03 20.9203 205.966 21.371 205.966 21.8862C205.966 22.3933 206.03 22.84 206.159 23.2264C206.292 23.6127 206.483 23.9146 206.732 24.1319C206.986 24.3492 207.296 24.4579 207.662 24.4579ZM213.841 26.5105V17.2377H216.708V18.9281H216.805C216.974 18.3163 217.25 17.8616 217.632 17.5637C218.014 17.2619 218.459 17.111 218.966 17.111C219.103 17.111 219.244 17.121 219.389 17.1411C219.534 17.1572 219.668 17.1834 219.793 17.2196V19.7853C219.652 19.737 219.467 19.6988 219.238 19.6706C219.012 19.6424 218.811 19.6284 218.634 19.6284C218.284 19.6284 217.968 19.7068 217.686 19.8638C217.409 20.0167 217.189 20.2321 217.028 20.5098C216.871 20.7834 216.793 21.1054 216.793 21.4757V26.5105H213.841ZM224.849 26.6855C223.879 26.6855 223.042 26.4944 222.338 26.112C221.637 25.7257 221.098 25.1763 220.72 24.4639C220.346 23.7476 220.158 22.8964 220.158 21.9103C220.158 20.9525 220.348 20.1153 220.726 19.399C221.104 18.6786 221.637 18.1191 222.326 17.7207C223.014 17.3182 223.825 17.117 224.759 17.117C225.419 17.117 226.022 17.2196 226.57 17.4249C227.117 17.6301 227.59 17.934 227.988 18.3365C228.387 18.7389 228.697 19.236 228.918 19.8276C229.139 20.4152 229.25 21.0893 229.25 21.85V22.5865H221.191V20.872H226.503C226.499 20.558 226.425 20.2783 226.28 20.0328C226.135 19.7873 225.936 19.5962 225.682 19.4593C225.433 19.3185 225.145 19.248 224.819 19.248C224.489 19.248 224.193 19.3225 223.931 19.4714C223.67 19.6163 223.463 19.8155 223.31 20.0691C223.157 20.3186 223.076 20.6023 223.068 20.9203V22.6649C223.068 23.0433 223.143 23.3753 223.292 23.661C223.44 23.9428 223.652 24.1621 223.925 24.3191C224.199 24.476 224.525 24.5545 224.903 24.5545C225.165 24.5545 225.402 24.5183 225.616 24.4458C225.829 24.3734 226.012 24.2667 226.165 24.1259C226.318 23.985 226.433 23.812 226.509 23.6067L229.22 23.6852C229.107 24.2929 228.86 24.8221 228.477 25.2729C228.099 25.7196 227.602 26.0678 226.986 26.3173C226.37 26.5628 225.658 26.6855 224.849 26.6855Z" fill="white"/>
</g>
</g>
<rect x="1.0707" y="1.08119" width="235.858" height="37.8585" rx="6.92857" stroke="white" stroke-opacity="0.15" stroke-width="2.14286"/>
<defs>
<filter id="filter0_d_28_2603" x="2.39899" y="-0.290557" width="39.202" height="39.902" filterUnits="userSpaceOnUse" color-interpolation-filters="sRGB">
<feFlood flood-opacity="0" result="BackgroundImageFix"/>
<feColorMatrix in="SourceAlpha" type="matrix" values="0 0 0 0 0 0 0 0 0 0 0 0 0 0 0 0 0 0 127 0" result="hardAlpha"/>
<feOffset/>
<feGaussianBlur stdDeviation="2.80014"/>
<feComposite in2="hardAlpha" operator="out"/>
<feColorMatrix type="matrix" values="0 0 0 0 0 0 0 0 0 0 0 0 0 0 0 0 0 0 0.25 0"/>
<feBlend mode="normal" in2="BackgroundImageFix" result="effect1_dropShadow_28_2603"/>
<feBlend mode="normal" in="SourceGraphic" in2="effect1_dropShadow_28_2603" result="shape"/>
</filter>
<filter id="filter1_d_28_2603" x="38.2864" y="3.79618" width="197.429" height="32.4286" filterUnits="userSpaceOnUse" color-interpolation-filters="sRGB">
<feFlood flood-opacity="0" result="BackgroundImageFix"/>
<feColorMatrix in="SourceAlpha" type="matrix" values="0 0 0 0 0 0 0 0 0 0 0 0 0 0 0 0 0 0 127 0" result="hardAlpha"/>
<feOffset/>
<feGaussianBlur stdDeviation="2.85714"/>
<feComposite in2="hardAlpha" operator="out"/>
<feColorMatrix type="matrix" values="0 0 0 0 0 0 0 0 0 0 0 0 0 0 0 0 0 0 0.25 0"/>
<feBlend mode="normal" in2="BackgroundImageFix" result="effect1_dropShadow_28_2603"/>
<feBlend mode="normal" in="SourceGraphic" in2="effect1_dropShadow_28_2603" result="shape"/>
</filter>
<linearGradient id="paint0_linear_28_2603" x1="119" y1="0.00976562" x2="119" y2="40.0112" gradientUnits="userSpaceOnUse">
<stop stop-color="#1E1E1E"/>
<stop offset="1" stop-color="#0D0D0D"/>
</linearGradient>
<clipPath id="clip0_28_2603">
<rect x="-0.000732422" y="0.00976562" width="238.001" height="40.0014" rx="8" fill="white"/>
</clipPath>
</defs>
</svg>
