<svg width="208" height="41" viewBox="0 0 208 41" fill="none" xmlns="http://www.w3.org/2000/svg">
<g clip-path="url(#clip0_2_3794)">
<rect x="-0.000732422" y="0.0401611" width="208" height="40" rx="8" fill="url(#paint0_linear_2_3794)"/>
<g filter="url(#filter0_d_2_3794)">
<path d="M11.4993 9.54028V30.5403H32.4993M28.9993 25.8736V16.5403M23.1659 25.8736V11.8736M17.3326 25.8736V22.3736" stroke="#00DDC3" stroke-width="3" stroke-linecap="round" stroke-linejoin="round"/>
</g>
<g filter="url(#filter1_d_2_3794)">
<path d="M44.402 26.5402H42.4219L46.8711 14.1765H49.0263L53.4755 26.5402H51.4954L48 16.4223H47.9034L44.402 26.5402ZM44.734 21.6985H51.1573V23.2681H44.734V21.6985ZM61.8864 17.2674L58.5239 26.5402H56.592L53.2234 17.2674H55.1613L57.5097 24.4031H57.6062L59.9486 17.2674H61.8864ZM66.0157 26.7454C65.4281 26.7454 64.8968 26.6367 64.4219 26.4194C63.947 26.1981 63.5707 25.8781 63.293 25.4595C63.0194 25.041 62.8825 24.5278 62.8825 23.9201C62.8825 23.3969 62.9831 22.9663 63.1844 22.6282C63.3856 22.2902 63.6573 22.0225 63.9993 21.8253C64.3414 21.6281 64.7238 21.4792 65.1464 21.3786C65.569 21.278 65.9996 21.2015 66.4383 21.1492C66.9937 21.0848 67.4444 21.0325 67.7905 20.9922C68.1367 20.9479 68.3882 20.8775 68.5452 20.7809C68.7021 20.6843 68.7806 20.5274 68.7806 20.31V20.2678C68.7806 19.7406 68.6317 19.3321 68.3339 19.0423C68.0401 18.7525 67.6014 18.6076 67.0178 18.6076C66.4101 18.6076 65.9312 18.7425 65.581 19.0121C65.2349 19.2777 64.9954 19.5735 64.8626 19.8995L63.1663 19.5132C63.3675 18.9497 63.6613 18.4949 64.0476 18.1488C64.438 17.7987 64.8868 17.5451 65.3939 17.3882C65.901 17.2272 66.4342 17.1467 66.9937 17.1467C67.3639 17.1467 67.7563 17.191 68.1709 17.2795C68.5894 17.364 68.9798 17.521 69.342 17.7504C69.7083 17.9798 70.0081 18.3078 70.2415 18.7344C70.475 19.157 70.5917 19.7064 70.5917 20.3825V26.5402H68.8289V25.2724H68.7565C68.6397 25.5058 68.4647 25.7352 68.2312 25.9606C67.9978 26.186 67.698 26.3731 67.3317 26.522C66.9655 26.671 66.5268 26.7454 66.0157 26.7454ZM66.4081 25.2965C66.9071 25.2965 67.3337 25.1979 67.6879 25.0007C68.0461 24.8035 68.3178 24.546 68.5029 24.228C68.6921 23.906 68.7866 23.5619 68.7866 23.1957V22.0004C68.7222 22.0648 68.5975 22.1251 68.4123 22.1815C68.2312 22.2338 68.024 22.2801 67.7905 22.3203C67.5571 22.3566 67.3297 22.3908 67.1084 22.423C66.887 22.4511 66.7019 22.4753 66.553 22.4954C66.2028 22.5397 65.8829 22.6141 65.5931 22.7188C65.3074 22.8234 65.0779 22.9743 64.9049 23.1715C64.7359 23.3647 64.6513 23.6223 64.6513 23.9443C64.6513 24.391 64.8163 24.7291 65.1464 24.9585C65.4764 25.1839 65.897 25.2965 66.4081 25.2965ZM72.9959 26.5402V17.2674H74.8009V26.5402H72.9959ZM73.9075 15.8367C73.5935 15.8367 73.3239 15.732 73.0985 15.5228C72.8772 15.3095 72.7665 15.0559 72.7665 14.7621C72.7665 14.4643 72.8772 14.2107 73.0985 14.0015C73.3239 13.7881 73.5935 13.6815 73.9075 13.6815C74.2214 13.6815 74.489 13.7881 74.7104 14.0015C74.9358 14.2107 75.0484 14.4643 75.0484 14.7621C75.0484 15.0559 74.9358 15.3095 74.7104 15.5228C74.489 15.732 74.2214 15.8367 73.9075 15.8367ZM79.0343 14.1765V26.5402H77.2293V14.1765H79.0343ZM84.1612 26.7454C83.5736 26.7454 83.0423 26.6367 82.5674 26.4194C82.0925 26.1981 81.7162 25.8781 81.4385 25.4595C81.1649 25.041 81.028 24.5278 81.028 23.9201C81.028 23.3969 81.1286 22.9663 81.3299 22.6282C81.5311 22.2902 81.8028 22.0225 82.1449 21.8253C82.4869 21.6281 82.8693 21.4792 83.2919 21.3786C83.7145 21.278 84.1451 21.2015 84.5838 21.1492C85.1392 21.0848 85.5899 21.0325 85.936 20.9922C86.2822 20.9479 86.5337 20.8775 86.6907 20.7809C86.8476 20.6843 86.9261 20.5274 86.9261 20.31V20.2678C86.9261 19.7406 86.7772 19.3321 86.4794 19.0423C86.1856 18.7525 85.7469 18.6076 85.1633 18.6076C84.5556 18.6076 84.0767 18.7425 83.7265 19.0121C83.3804 19.2777 83.1409 19.5735 83.0081 19.8995L81.3118 19.5132C81.513 18.9497 81.8068 18.4949 82.1931 18.1488C82.5835 17.7987 83.0323 17.5451 83.5394 17.3882C84.0465 17.2272 84.5797 17.1467 85.1392 17.1467C85.5094 17.1467 85.9018 17.191 86.3164 17.2795C86.7349 17.364 87.1253 17.521 87.4875 17.7504C87.8538 17.9798 88.1536 18.3078 88.387 18.7344C88.6205 19.157 88.7372 19.7064 88.7372 20.3825V26.5402H86.9744V25.2724H86.902C86.7852 25.5058 86.6102 25.7352 86.3767 25.9606C86.1433 26.186 85.8435 26.3731 85.4772 26.522C85.111 26.671 84.6723 26.7454 84.1612 26.7454ZM84.5536 25.2965C85.0526 25.2965 85.4793 25.1979 85.8334 25.0007C86.1916 24.8035 86.4633 24.546 86.6484 24.228C86.8376 23.906 86.9321 23.5619 86.9321 23.1957V22.0004C86.8677 22.0648 86.743 22.1251 86.5578 22.1815C86.3767 22.2338 86.1695 22.2801 85.936 22.3203C85.7026 22.3566 85.4752 22.3908 85.2539 22.423C85.0325 22.4511 84.8474 22.4753 84.6985 22.4954C84.3483 22.5397 84.0284 22.6141 83.7386 22.7188C83.4529 22.8234 83.2235 22.9743 83.0504 23.1715C82.8814 23.3647 82.7968 23.6223 82.7968 23.9443C82.7968 24.391 82.9619 24.7291 83.2919 24.9585C83.6219 25.1839 84.0425 25.2965 84.5536 25.2965ZM91.2863 26.5402V14.1765H93.0913V18.7706H93.2C93.3046 18.5774 93.4555 18.3541 93.6528 18.1005C93.85 17.847 94.1236 17.6256 94.4738 17.4365C94.8239 17.2433 95.2867 17.1467 95.8623 17.1467C96.6108 17.1467 97.2789 17.3359 97.8665 17.7142C98.4541 18.0925 98.9149 18.6378 99.249 19.3502C99.5871 20.0625 99.7561 20.9198 99.7561 21.9219C99.7561 22.924 99.5891 23.7833 99.255 24.4997C98.921 25.212 98.4622 25.7614 97.8786 26.1478C97.295 26.5301 96.629 26.7213 95.8804 26.7213C95.3169 26.7213 94.8561 26.6267 94.4979 26.4375C94.1438 26.2484 93.8661 26.027 93.6648 25.7735C93.4636 25.5199 93.3086 25.2945 93.2 25.0973H93.0491V26.5402H91.2863ZM93.0551 21.9038C93.0551 22.5558 93.1497 23.1273 93.3388 23.6183C93.528 24.1093 93.8017 24.4936 94.1599 24.7713C94.518 25.045 94.9567 25.1818 95.4759 25.1818C96.0152 25.1818 96.466 25.039 96.8282 24.7532C97.1904 24.4635 97.4641 24.0711 97.6492 23.576C97.8384 23.081 97.9329 22.5236 97.9329 21.9038C97.9329 21.2921 97.8404 20.7427 97.6552 20.2557C97.4741 19.7687 97.2005 19.3844 96.8342 19.1027C96.472 18.8209 96.0192 18.6801 95.4759 18.6801C94.9527 18.6801 94.51 18.8149 94.1478 19.0845C93.7896 19.3542 93.5179 19.7305 93.3328 20.2135C93.1477 20.6964 93.0551 21.2599 93.0551 21.9038ZM103.588 14.1765V26.5402H101.783V14.1765H103.588ZM110.013 26.7273C109.099 26.7273 108.312 26.5321 107.652 26.1417C106.996 25.7473 106.489 25.1939 106.131 24.4816C105.777 23.7652 105.6 22.926 105.6 21.9642C105.6 21.0144 105.777 20.1772 106.131 19.4528C106.489 18.7284 106.988 18.1629 107.628 17.7564C108.272 17.3499 109.025 17.1467 109.886 17.1467C110.409 17.1467 110.916 17.2332 111.407 17.4063C111.898 17.5793 112.339 17.851 112.729 18.2213C113.12 18.5915 113.428 19.0725 113.653 19.6641C113.878 20.2517 113.991 20.9661 113.991 21.8072V22.4471H106.62V21.0948H112.222C112.222 20.6199 112.126 20.1994 111.933 19.8331C111.739 19.4629 111.468 19.1711 111.118 18.9578C110.771 18.7445 110.365 18.6378 109.898 18.6378C109.391 18.6378 108.948 18.7626 108.57 19.0121C108.196 19.2576 107.906 19.5796 107.701 19.978C107.499 20.3724 107.399 20.801 107.399 21.2639V22.3203C107.399 22.9401 107.508 23.4674 107.725 23.902C107.946 24.3367 108.254 24.6687 108.648 24.8981C109.043 25.1235 109.504 25.2362 110.031 25.2362C110.373 25.2362 110.685 25.1879 110.967 25.0913C111.248 24.9907 111.492 24.8418 111.697 24.6446C111.902 24.4474 112.059 24.2039 112.168 23.9141L113.876 24.222C113.74 24.7251 113.494 25.1657 113.14 25.5441C112.79 25.9184 112.349 26.2101 111.818 26.4194C111.291 26.6247 110.689 26.7273 110.013 26.7273ZM124.399 26.7273C123.53 26.7273 122.771 26.5281 122.123 26.1296C121.475 25.7312 120.972 25.1738 120.614 24.4574C120.255 23.741 120.076 22.9039 120.076 21.9461C120.076 20.9842 120.255 20.143 120.614 19.4226C120.972 18.7022 121.475 18.1428 122.123 17.7443C122.771 17.3459 123.53 17.1467 124.399 17.1467C125.268 17.1467 126.027 17.3459 126.675 17.7443C127.323 18.1428 127.826 18.7022 128.184 19.4226C128.542 20.143 128.721 20.9842 128.721 21.9461C128.721 22.9039 128.542 23.741 128.184 24.4574C127.826 25.1738 127.323 25.7312 126.675 26.1296C126.027 26.5281 125.268 26.7273 124.399 26.7273ZM124.405 25.212C124.968 25.212 125.435 25.0631 125.805 24.7653C126.176 24.4675 126.449 24.0711 126.626 23.576C126.808 23.081 126.898 22.5357 126.898 21.94C126.898 21.3484 126.808 20.8051 126.626 20.31C126.449 19.811 126.176 19.4105 125.805 19.1087C125.435 18.8068 124.968 18.6559 124.405 18.6559C123.837 18.6559 123.367 18.8068 122.992 19.1087C122.622 19.4105 122.346 19.811 122.165 20.31C121.988 20.8051 121.9 21.3484 121.9 21.94C121.9 22.5357 121.988 23.081 122.165 23.576C122.346 24.0711 122.622 24.4675 122.992 24.7653C123.367 25.0631 123.837 25.212 124.405 25.212ZM132.541 21.0345V26.5402H130.736V17.2674H132.469V18.7767H132.583C132.797 18.2857 133.131 17.8912 133.586 17.5934C134.044 17.2956 134.622 17.1467 135.318 17.1467C135.95 17.1467 136.503 17.2795 136.978 17.5451C137.453 17.8067 137.821 18.1971 138.083 18.7163C138.345 19.2355 138.475 19.8774 138.475 20.6421V26.5402H136.67V20.8594C136.67 20.1873 136.495 19.6621 136.145 19.2838C135.795 18.9014 135.314 18.7103 134.702 18.7103C134.284 18.7103 133.912 18.8008 133.586 18.9819C133.264 19.163 133.008 19.4287 132.819 19.7788C132.634 20.1249 132.541 20.5435 132.541 21.0345Z" fill="#E8E8E8"/>
<path d="M144.935 26.0402V13.6765H147.887V18.3551H147.947C148.068 18.0734 148.239 17.8018 148.461 17.5402C148.686 17.2786 148.972 17.0653 149.318 16.9002C149.668 16.7312 150.087 16.6467 150.573 16.6467C151.217 16.6467 151.819 16.8157 152.379 17.1538C152.942 17.4919 153.397 18.0131 153.743 18.7174C154.089 19.4217 154.262 20.3192 154.262 21.4098C154.262 22.4603 154.095 23.3396 153.761 24.048C153.431 24.7563 152.984 25.2876 152.421 25.6417C151.861 25.9959 151.24 26.173 150.555 26.173C150.089 26.173 149.684 26.0965 149.342 25.9436C149 25.7906 148.712 25.5894 148.479 25.3399C148.249 25.0903 148.072 24.8227 147.947 24.537H147.857V26.0402H144.935ZM147.827 21.4038C147.827 21.9028 147.893 22.3375 148.026 22.7078C148.163 23.078 148.358 23.3658 148.611 23.5711C148.869 23.7723 149.177 23.8729 149.535 23.8729C149.897 23.8729 150.205 23.7723 150.459 23.5711C150.712 23.3658 150.904 23.078 151.032 22.7078C151.165 22.3375 151.232 21.9028 151.232 21.4038C151.232 20.9047 151.165 20.4721 151.032 20.1059C150.904 19.7396 150.712 19.4559 150.459 19.2546C150.209 19.0534 149.901 18.9528 149.535 18.9528C149.173 18.9528 148.865 19.0514 148.611 19.2486C148.358 19.4458 148.163 19.7275 148.026 20.0938C147.893 20.46 147.827 20.8967 147.827 21.4038ZM162.492 17.3832C162.452 16.9405 162.273 16.5964 161.955 16.3509C161.641 16.1014 161.192 15.9766 160.608 15.9766C160.222 15.9766 159.9 16.0269 159.642 16.1275C159.385 16.2281 159.192 16.367 159.063 16.5441C158.934 16.7171 158.868 16.9163 158.864 17.1417C158.856 17.3269 158.892 17.4899 158.972 17.6307C159.057 17.7716 159.178 17.8963 159.335 18.005C159.496 18.1096 159.689 18.2022 159.914 18.2827C160.14 18.3632 160.393 18.4336 160.675 18.494L161.737 18.7355C162.349 18.8683 162.888 19.0454 163.355 19.2667C163.826 19.4881 164.22 19.7517 164.538 20.0576C164.86 20.3634 165.104 20.7156 165.269 21.114C165.434 21.5125 165.518 21.9592 165.522 22.4542C165.518 23.235 165.321 23.9051 164.931 24.4645C164.54 25.0239 163.979 25.4526 163.247 25.7504C162.518 26.0482 161.639 26.1971 160.608 26.1971C159.574 26.1971 158.673 26.0422 157.904 25.7323C157.135 25.4224 156.537 24.9515 156.111 24.3196C155.684 23.6878 155.465 22.8889 155.453 21.923H158.314C158.338 22.3214 158.445 22.6534 158.634 22.9191C158.823 23.1847 159.083 23.3859 159.413 23.5228C159.747 23.6596 160.133 23.728 160.572 23.728C160.975 23.728 161.317 23.6737 161.598 23.565C161.884 23.4564 162.104 23.3054 162.256 23.1122C162.409 22.9191 162.488 22.6977 162.492 22.4482C162.488 22.2148 162.415 22.0155 162.275 21.8505C162.134 21.6815 161.916 21.5366 161.623 21.4159C161.333 21.2911 160.963 21.1764 160.512 21.0718L159.22 20.7699C158.149 20.5244 157.306 20.128 156.69 19.5806C156.075 19.0293 155.769 18.2847 155.773 17.347C155.769 16.5823 155.974 15.9122 156.389 15.3367C156.803 14.7612 157.377 14.3124 158.109 13.9904C158.842 13.6685 159.677 13.5075 160.614 13.5075C161.572 13.5075 162.403 13.6705 163.108 13.9965C163.816 14.3185 164.365 14.7712 164.756 15.3548C165.146 15.9384 165.345 16.6145 165.353 17.3832H162.492ZM172.266 16.7674V18.9407H166.416V16.7674H172.266ZM167.641 14.5458H170.593V23.1243C170.593 23.3054 170.622 23.4523 170.678 23.565C170.738 23.6737 170.825 23.7522 170.938 23.8005C171.05 23.8447 171.185 23.8669 171.342 23.8669C171.455 23.8669 171.573 23.8568 171.698 23.8367C171.827 23.8125 171.924 23.7924 171.988 23.7763L172.435 25.9073C172.294 25.9476 172.095 25.9979 171.837 26.0583C171.584 26.1186 171.28 26.1569 170.925 26.173C170.233 26.2052 169.64 26.1247 169.145 25.9315C168.654 25.7343 168.277 25.4284 168.016 25.0139C167.758 24.5993 167.633 24.0782 167.641 23.4503V14.5458ZM176.386 26.1971C175.794 26.1971 175.269 26.0985 174.81 25.9013C174.355 25.7001 173.995 25.3982 173.73 24.9958C173.468 24.5893 173.337 24.0802 173.337 23.4684C173.337 22.9533 173.428 22.5186 173.609 22.1644C173.79 21.8103 174.04 21.5225 174.357 21.3012C174.675 21.0798 175.042 20.9128 175.456 20.8001C175.871 20.6834 176.313 20.6049 176.784 20.5647C177.312 20.5164 177.736 20.4661 178.058 20.4137C178.38 20.3574 178.614 20.2789 178.758 20.1783C178.907 20.0737 178.982 19.9268 178.982 19.7376V19.7074C178.982 19.3975 178.875 19.1581 178.662 18.989C178.449 18.82 178.161 18.7355 177.799 18.7355C177.408 18.7355 177.094 18.82 176.857 18.989C176.619 19.1581 176.468 19.3915 176.404 19.6893L173.681 19.5927C173.762 19.0293 173.969 18.5262 174.303 18.0835C174.641 17.6368 175.104 17.2866 175.692 17.0331C176.283 16.7755 176.994 16.6467 177.823 16.6467C178.414 16.6467 178.96 16.7171 179.459 16.858C179.958 16.9948 180.392 17.1961 180.763 17.4617C181.133 17.7233 181.419 18.0452 181.62 18.4276C181.825 18.8099 181.928 19.2466 181.928 19.7376V26.0402H179.151V24.7483H179.078C178.913 25.0622 178.702 25.3278 178.444 25.5451C178.191 25.7625 177.891 25.9255 177.545 26.0341C177.203 26.1428 176.817 26.1971 176.386 26.1971ZM177.297 24.2653C177.615 24.2653 177.901 24.2009 178.155 24.0721C178.412 23.9433 178.618 23.7662 178.77 23.5409C178.923 23.3115 179 23.0458 179 22.744V21.8626C178.915 21.9069 178.813 21.9471 178.692 21.9833C178.575 22.0196 178.446 22.0538 178.306 22.086C178.165 22.1182 178.02 22.1463 177.871 22.1705C177.722 22.1946 177.579 22.2168 177.442 22.2369C177.165 22.2812 176.927 22.3496 176.73 22.4421C176.537 22.5347 176.388 22.6555 176.283 22.8044C176.183 22.9492 176.132 23.1223 176.132 23.3235C176.132 23.6294 176.241 23.8628 176.458 24.0238C176.68 24.1848 176.959 24.2653 177.297 24.2653ZM188.967 16.7674V18.9407H183.117V16.7674H188.967ZM184.343 14.5458H187.295V23.1243C187.295 23.3054 187.323 23.4523 187.379 23.565C187.44 23.6737 187.526 23.7522 187.639 23.8005C187.751 23.8447 187.886 23.8669 188.043 23.8669C188.156 23.8669 188.275 23.8568 188.399 23.8367C188.528 23.8125 188.625 23.7924 188.689 23.7763L189.136 25.9073C188.995 25.9476 188.796 25.9979 188.538 26.0583C188.285 26.1186 187.981 26.1569 187.627 26.173C186.934 26.2052 186.341 26.1247 185.846 25.9315C185.355 25.7343 184.978 25.4284 184.717 25.0139C184.459 24.5993 184.335 24.0782 184.343 23.4503V14.5458ZM198.452 19.5988L195.742 19.6712C195.714 19.478 195.637 19.307 195.512 19.1581C195.388 19.0051 195.225 18.8864 195.023 18.8019C194.826 18.7133 194.597 18.6691 194.335 18.6691C193.993 18.6691 193.701 18.7375 193.46 18.8743C193.222 19.0112 193.106 19.1963 193.11 19.4297C193.106 19.6108 193.178 19.7678 193.327 19.9006C193.48 20.0334 193.752 20.1401 194.142 20.2206L195.929 20.5586C196.855 20.7357 197.543 21.0295 197.994 21.44C198.448 21.8505 198.678 22.3939 198.682 23.07C198.678 23.7059 198.489 24.2593 198.114 24.7301C197.744 25.201 197.237 25.5673 196.593 25.8289C195.949 26.0864 195.213 26.2152 194.383 26.2152C193.059 26.2152 192.015 25.9436 191.25 25.4002C190.49 24.8529 190.055 24.1204 189.946 23.2028L192.862 23.1304C192.927 23.4684 193.094 23.726 193.363 23.9031C193.633 24.0802 193.977 24.1687 194.396 24.1687C194.774 24.1687 195.082 24.0983 195.319 23.9574C195.557 23.8166 195.677 23.6294 195.681 23.396C195.677 23.1867 195.585 23.0197 195.404 22.8949C195.223 22.7661 194.939 22.6655 194.553 22.5931L192.935 22.2852C192.005 22.1162 191.313 21.8042 190.858 21.3495C190.403 20.8907 190.178 20.3071 190.182 19.5988C190.178 18.979 190.343 18.4497 190.677 18.011C191.011 17.5683 191.486 17.2303 192.102 16.9968C192.717 16.7634 193.444 16.6467 194.281 16.6467C195.537 16.6467 196.527 16.9103 197.251 17.4375C197.975 17.9607 198.376 18.6811 198.452 19.5988Z" fill="#00DDC3"/>
</g>
</g>
<rect x="1.04927" y="1.09016" width="205.9" height="37.9" rx="6.95" stroke="white" stroke-opacity="0.15" stroke-width="2.1"/>
<defs>
<filter id="filter0_d_2_3794" x="2.28498" y="0.325876" width="39.4286" height="39.4287" filterUnits="userSpaceOnUse" color-interpolation-filters="sRGB">
<feFlood flood-opacity="0" result="BackgroundImageFix"/>
<feColorMatrix in="SourceAlpha" type="matrix" values="0 0 0 0 0 0 0 0 0 0 0 0 0 0 0 0 0 0 127 0" result="hardAlpha"/>
<feOffset/>
<feGaussianBlur stdDeviation="2.85714"/>
<feComposite in2="hardAlpha" operator="out"/>
<feColorMatrix type="matrix" values="0 0 0 0 0 0 0 0 0 0 0 0 0 0 0 0 0 0 0.25 0"/>
<feBlend mode="normal" in2="BackgroundImageFix" result="effect1_dropShadow_2_3794"/>
<feBlend mode="normal" in="SourceGraphic" in2="effect1_dropShadow_2_3794" result="shape"/>
</filter>
<filter id="filter1_d_2_3794" x="36.3993" y="3.94016" width="169.2" height="32.2" filterUnits="userSpaceOnUse" color-interpolation-filters="sRGB">
<feFlood flood-opacity="0" result="BackgroundImageFix"/>
<feColorMatrix in="SourceAlpha" type="matrix" values="0 0 0 0 0 0 0 0 0 0 0 0 0 0 0 0 0 0 127 0" result="hardAlpha"/>
<feOffset/>
<feGaussianBlur stdDeviation="2.8"/>
<feComposite in2="hardAlpha" operator="out"/>
<feColorMatrix type="matrix" values="0 0 0 0 0 0 0 0 0 0 0 0 0 0 0 0 0 0 0.25 0"/>
<feBlend mode="normal" in2="BackgroundImageFix" result="effect1_dropShadow_2_3794"/>
<feBlend mode="normal" in="SourceGraphic" in2="effect1_dropShadow_2_3794" result="shape"/>
</filter>
<linearGradient id="paint0_linear_2_3794" x1="103.999" y1="0.0401611" x2="103.999" y2="40.0402" gradientUnits="userSpaceOnUse">
<stop stop-color="#002723"/>
<stop offset="1" stop-color="#001D19"/>
</linearGradient>
<clipPath id="clip0_2_3794">
<rect x="-0.000732422" y="0.0401611" width="208" height="40" rx="8" fill="white"/>
</clipPath>
</defs>
</svg>
