<svg width="164" height="28" viewBox="0 0 164 28" fill="none" xmlns="http://www.w3.org/2000/svg">
<g clip-path="url(#clip0_45_21)">
<rect x="-0.000488281" y="-6.10352e-05" width="163.5" height="28" rx="6" fill="url(#paint0_linear_45_21)"/>
<g filter="url(#filter0_d_45_21)">
<path d="M15.9477 4.00464C15.2425 4.09791 14.3462 4.83766 13.729 5.18884C12.1528 6.08579 10.55 6.93636 8.96702 7.82077C8.44374 8.11313 7.9166 8.40032 7.39772 8.70052C7.23755 8.79318 6.9097 8.93588 7.03179 9.17692C7.17582 9.46123 7.77902 9.64852 8.04709 9.79819C8.99156 10.3256 9.95337 10.8355 10.9151 11.3302C11.2624 11.5088 11.6986 11.8987 12.1056 11.7329C13.0739 11.3385 14.0182 10.6503 14.9195 10.1171C15.2094 9.94558 15.7041 9.51394 16.0559 9.55689C16.3615 9.59423 16.7115 9.89636 16.9759 10.0478C17.6628 10.4415 18.3522 10.8348 19.0322 11.2407C19.3321 11.4197 19.802 11.8244 20.1686 11.7804C20.5314 11.7369 20.9278 11.4131 21.2509 11.2488C22.1617 10.7857 23.0468 10.2697 23.9565 9.80392C24.1827 9.68814 25.0765 9.35532 24.9981 9.03242C24.9509 8.83739 24.6535 8.72597 24.4977 8.63832L23.0366 7.82077C21.3273 6.8658 19.6142 5.91546 17.8958 4.97711C17.4243 4.71961 16.4963 3.93209 15.9477 4.00464ZM6.91872 10.5577C6.62309 10.6293 6.74836 11.4139 6.74836 11.6439V15.1869V18.1303C6.74836 18.4612 6.6412 19.028 6.80398 19.3237C7.06687 19.8013 8.17086 20.174 8.64234 20.4322C10.1988 21.2848 11.7378 22.1701 13.2961 23.0192C13.7659 23.2751 14.2357 23.5311 14.7031 23.7915C14.8674 23.883 15.0901 24.0562 15.2903 23.9819C15.5987 23.8675 15.4607 23.0288 15.4607 22.7635V19.9836C15.4607 19.6221 15.5628 19.0729 15.428 18.735C15.3075 18.4327 14.8044 18.2596 14.5407 18.1074C13.797 17.6778 12.5793 17.2424 12.0146 16.5926C11.8069 16.3536 11.8892 15.9181 11.8892 15.6229C11.8892 14.9107 12.0522 13.9691 11.872 13.2813C11.7765 12.9171 11.1564 12.743 10.861 12.5781C9.91462 12.0496 8.95754 11.5249 7.99298 11.031C7.73804 10.9005 7.20954 10.4872 6.91872 10.5577ZM25.0356 10.5519C24.6937 10.5384 24.143 10.9546 23.8483 11.1219C22.9752 11.6177 22.0784 12.0734 21.1967 12.5537C20.8951 12.718 20.2289 12.9131 20.1317 13.2815C19.9463 13.9836 20.1145 14.9499 20.1145 15.6775C20.1145 15.9408 20.1922 16.362 20.0202 16.5828C19.8389 16.8155 19.4464 16.9656 19.1945 17.11C18.6165 17.4412 18.0399 17.7741 17.4629 18.1074C17.1949 18.2621 16.7094 18.4293 16.5831 18.735C16.4428 19.0746 16.543 19.6197 16.543 19.9836V22.818C16.543 23.0815 16.4033 23.9315 16.7653 23.9941C16.9866 24.0323 17.228 23.8385 17.4088 23.737C17.858 23.4845 18.3118 23.2403 18.7616 22.9891C20.2929 22.1336 21.823 21.2748 23.3613 20.4322C23.8453 20.1671 24.8981 19.8232 25.1996 19.3551C25.338 19.1404 25.2553 18.7039 25.2553 18.4573V16.1135V11.8619C25.2553 11.6047 25.4047 10.5664 25.0356 10.5519Z" fill="#2F87C2"/>
</g>
<g filter="url(#filter1_d_45_21)">
<path d="M33.5542 18.4999H32.2729L35.1519 10.4999H36.5464L39.4253 18.4999H38.144L35.8823 11.9531H35.8198L33.5542 18.4999ZM33.769 15.3671H37.9253V16.3827H33.769V15.3671ZM44.8677 12.4999L42.6919 18.4999H41.4419L39.2622 12.4999H40.5161L42.0356 17.1171H42.0981L43.6138 12.4999H44.8677ZM47.5395 18.6327C47.1593 18.6327 46.8156 18.5624 46.5083 18.4218C46.201 18.2786 45.9575 18.0716 45.7778 17.8007C45.6007 17.5299 45.5122 17.1979 45.5122 16.8046C45.5122 16.4661 45.5773 16.1874 45.7075 15.9687C45.8377 15.7499 46.0135 15.5768 46.2349 15.4492C46.4562 15.3216 46.7036 15.2252 46.977 15.1601C47.2505 15.095 47.5291 15.0455 47.813 15.0117C48.1724 14.97 48.464 14.9361 48.688 14.9101C48.9119 14.8814 49.0747 14.8359 49.1763 14.7734C49.2778 14.7109 49.3286 14.6093 49.3286 14.4687V14.4413C49.3286 14.1002 49.2323 13.8359 49.0395 13.6484C48.8494 13.4609 48.5656 13.3671 48.188 13.3671C47.7948 13.3671 47.4849 13.4544 47.2583 13.6288C47.0343 13.8007 46.8794 13.9921 46.7935 14.2031L45.6958 13.9531C45.826 13.5885 46.0161 13.2942 46.2661 13.0702C46.5187 12.8437 46.8091 12.6796 47.1372 12.5781C47.4653 12.4739 47.8104 12.4218 48.1724 12.4218C48.4119 12.4218 48.6658 12.4505 48.9341 12.5078C49.2049 12.5624 49.4575 12.664 49.6919 12.8124C49.9289 12.9609 50.1229 13.1731 50.2739 13.4492C50.425 13.7226 50.5005 14.0781 50.5005 14.5156V18.4999H49.3599V17.6796H49.313C49.2375 17.8307 49.1242 17.9791 48.9731 18.1249C48.8221 18.2708 48.6281 18.3919 48.3911 18.4882C48.1541 18.5846 47.8703 18.6327 47.5395 18.6327ZM47.7935 17.6952C48.1164 17.6952 48.3924 17.6314 48.6216 17.5038C48.8533 17.3762 49.0291 17.2096 49.1489 17.0038C49.2713 16.7955 49.3325 16.5729 49.3325 16.3359V15.5624C49.2908 15.6041 49.2101 15.6432 49.0903 15.6796C48.9731 15.7135 48.839 15.7434 48.688 15.7695C48.5369 15.7929 48.3898 15.815 48.2466 15.8359C48.1033 15.8541 47.9836 15.8697 47.8872 15.8827C47.6606 15.9114 47.4536 15.9596 47.2661 16.0273C47.0812 16.095 46.9328 16.1926 46.8208 16.3202C46.7114 16.4452 46.6567 16.6119 46.6567 16.8202C46.6567 17.1093 46.7635 17.3281 46.977 17.4765C47.1906 17.6223 47.4627 17.6952 47.7935 17.6952ZM52.0561 18.4999V12.4999H53.2241V18.4999H52.0561ZM52.646 11.5742C52.4429 11.5742 52.2684 11.5064 52.1226 11.371C51.9793 11.233 51.9077 11.0689 51.9077 10.8788C51.9077 10.6861 51.9793 10.5221 52.1226 10.3867C52.2684 10.2486 52.4429 10.1796 52.646 10.1796C52.8491 10.1796 53.0223 10.2486 53.1655 10.3867C53.3114 10.5221 53.3843 10.6861 53.3843 10.8788C53.3843 11.0689 53.3114 11.233 53.1655 11.371C53.0223 11.5064 52.8491 11.5742 52.646 11.5742ZM55.9634 10.4999V18.4999H54.7954V10.4999H55.9634ZM59.2808 18.6327C58.9005 18.6327 58.5568 18.5624 58.2495 18.4218C57.9422 18.2786 57.6987 18.0716 57.519 17.8007C57.342 17.5299 57.2534 17.1979 57.2534 16.8046C57.2534 16.4661 57.3185 16.1874 57.4487 15.9687C57.5789 15.7499 57.7547 15.5768 57.9761 15.4492C58.1974 15.3216 58.4448 15.2252 58.7183 15.1601C58.9917 15.095 59.2703 15.0455 59.5542 15.0117C59.9136 14.97 60.2052 14.9361 60.4292 14.9101C60.6531 14.8814 60.8159 14.8359 60.9175 14.7734C61.019 14.7109 61.0698 14.6093 61.0698 14.4687V14.4413C61.0698 14.1002 60.9735 13.8359 60.7808 13.6484C60.5906 13.4609 60.3068 13.3671 59.9292 13.3671C59.536 13.3671 59.2261 13.4544 58.9995 13.6288C58.7755 13.8007 58.6206 13.9921 58.5347 14.2031L57.437 13.9531C57.5672 13.5885 57.7573 13.2942 58.0073 13.0702C58.2599 12.8437 58.5503 12.6796 58.8784 12.5781C59.2065 12.4739 59.5516 12.4218 59.9136 12.4218C60.1531 12.4218 60.4071 12.4505 60.6753 12.5078C60.9461 12.5624 61.1987 12.664 61.4331 12.8124C61.6701 12.9609 61.8641 13.1731 62.0151 13.4492C62.1662 13.7226 62.2417 14.0781 62.2417 14.5156V18.4999H61.1011V17.6796H61.0542C60.9787 17.8307 60.8654 17.9791 60.7143 18.1249C60.5633 18.2708 60.3693 18.3919 60.1323 18.4882C59.8953 18.5846 59.6115 18.6327 59.2808 18.6327ZM59.5347 17.6952C59.8576 17.6952 60.1336 17.6314 60.3628 17.5038C60.5946 17.3762 60.7703 17.2096 60.8901 17.0038C61.0125 16.7955 61.0737 16.5729 61.0737 16.3359V15.5624C61.0321 15.6041 60.9513 15.6432 60.8315 15.6796C60.7143 15.7135 60.5802 15.7434 60.4292 15.7695C60.2781 15.7929 60.131 15.815 59.9878 15.8359C59.8446 15.8541 59.7248 15.8697 59.6284 15.8827C59.4018 15.9114 59.1948 15.9596 59.0073 16.0273C58.8224 16.095 58.674 16.1926 58.562 16.3202C58.4526 16.4452 58.3979 16.6119 58.3979 16.8202C58.3979 17.1093 58.5047 17.3281 58.7183 17.4765C58.9318 17.6223 59.2039 17.6952 59.5347 17.6952ZM63.8911 18.4999V10.4999H65.0591V13.4726H65.1294C65.1971 13.3476 65.2947 13.2031 65.4224 13.039C65.55 12.8749 65.727 12.7317 65.9536 12.6093C66.1802 12.4843 66.4796 12.4218 66.852 12.4218C67.3364 12.4218 67.7687 12.5442 68.1489 12.789C68.5291 13.0338 68.8273 13.3867 69.0434 13.8476C69.2622 14.3085 69.3716 14.8632 69.3716 15.5117C69.3716 16.1601 69.2635 16.7161 69.0474 17.1796C68.8312 17.6406 68.5343 17.996 68.1567 18.246C67.7791 18.4934 67.3481 18.6171 66.8638 18.6171C66.4992 18.6171 66.201 18.5559 65.9692 18.4335C65.7401 18.3111 65.5604 18.1679 65.4302 18.0038C65.3 17.8398 65.1997 17.6939 65.1294 17.5663H65.0317V18.4999H63.8911ZM65.0356 15.4999C65.0356 15.9218 65.0968 16.2916 65.2192 16.6093C65.3416 16.927 65.5187 17.1757 65.7505 17.3554C65.9822 17.5325 66.2661 17.621 66.602 17.621C66.951 17.621 67.2427 17.5286 67.477 17.3437C67.7114 17.1562 67.8885 16.9023 68.0083 16.582C68.1307 16.2617 68.1919 15.901 68.1919 15.4999C68.1919 15.1041 68.132 14.7486 68.0122 14.4335C67.895 14.1184 67.7179 13.8697 67.4809 13.6874C67.2466 13.5051 66.9536 13.414 66.602 13.414C66.2635 13.414 65.977 13.5012 65.7427 13.6757C65.5109 13.8502 65.3351 14.0937 65.2153 14.4062C65.0955 14.7187 65.0356 15.0833 65.0356 15.4999ZM71.8511 10.4999V18.4999H70.6831V10.4999H71.8511ZM76.0083 18.621C75.4171 18.621 74.908 18.4947 74.4809 18.2421C74.0565 17.9869 73.7283 17.6288 73.4966 17.1679C73.2674 16.7044 73.1528 16.1614 73.1528 15.539C73.1528 14.9244 73.2674 14.3827 73.4966 13.914C73.7283 13.4452 74.0513 13.0794 74.4653 12.8163C74.882 12.5533 75.369 12.4218 75.9263 12.4218C76.2648 12.4218 76.5929 12.4778 76.9106 12.5898C77.2283 12.7018 77.5135 12.8775 77.7661 13.1171C78.0187 13.3567 78.2179 13.6679 78.3638 14.0507C78.5096 14.4309 78.5825 14.8932 78.5825 15.4374V15.8515H73.813V14.9765H77.438C77.438 14.6692 77.3755 14.3971 77.2505 14.1601C77.1255 13.9205 76.9497 13.7317 76.7231 13.5937C76.4992 13.4557 76.2362 13.3867 75.9341 13.3867C75.6059 13.3867 75.3195 13.4674 75.0747 13.6288C74.8325 13.7877 74.645 13.996 74.5122 14.2538C74.382 14.5091 74.3169 14.7864 74.3169 15.0859V15.7695C74.3169 16.1705 74.3872 16.5117 74.5278 16.7929C74.671 17.0742 74.8703 17.289 75.1255 17.4374C75.3807 17.5833 75.6789 17.6562 76.02 17.6562C76.2414 17.6562 76.4432 17.6249 76.6255 17.5624C76.8078 17.4973 76.9653 17.401 77.0981 17.2734C77.2309 17.1458 77.3325 16.9882 77.4028 16.8007L78.5083 16.9999C78.4197 17.3255 78.2609 17.6106 78.0317 17.8554C77.8052 18.0976 77.52 18.2864 77.1763 18.4218C76.8351 18.5546 76.4458 18.621 76.0083 18.621ZM85.3169 18.621C84.7544 18.621 84.2635 18.4921 83.8442 18.2343C83.425 17.9765 83.0994 17.6158 82.8677 17.1523C82.6359 16.6887 82.52 16.1471 82.52 15.5273C82.52 14.9049 82.6359 14.3606 82.8677 13.8945C83.0994 13.4283 83.425 13.0663 83.8442 12.8085C84.2635 12.5507 84.7544 12.4218 85.3169 12.4218C85.8794 12.4218 86.3703 12.5507 86.7895 12.8085C87.2088 13.0663 87.5343 13.4283 87.7661 13.8945C87.9979 14.3606 88.1138 14.9049 88.1138 15.5273C88.1138 16.1471 87.9979 16.6887 87.7661 17.1523C87.5343 17.6158 87.2088 17.9765 86.7895 18.2343C86.3703 18.4921 85.8794 18.621 85.3169 18.621ZM85.3208 17.6406C85.6854 17.6406 85.9875 17.5442 86.227 17.3515C86.4666 17.1588 86.6437 16.9023 86.7583 16.582C86.8755 16.2617 86.9341 15.9088 86.9341 15.5234C86.9341 15.1406 86.8755 14.789 86.7583 14.4687C86.6437 14.1458 86.4666 13.8867 86.227 13.6913C85.9875 13.496 85.6854 13.3984 85.3208 13.3984C84.9536 13.3984 84.6489 13.496 84.4067 13.6913C84.1671 13.8867 83.9888 14.1458 83.8716 14.4687C83.757 14.789 83.6997 15.1406 83.6997 15.5234C83.6997 15.9088 83.757 16.2617 83.8716 16.582C83.9888 16.9023 84.1671 17.1588 84.4067 17.3515C84.6489 17.5442 84.9536 17.6406 85.3208 17.6406ZM90.5854 14.9374V18.4999H89.4175V12.4999H90.5386V13.4765H90.6128C90.7508 13.1588 90.9669 12.9036 91.2612 12.7109C91.5581 12.5182 91.9318 12.4218 92.3823 12.4218C92.7912 12.4218 93.1492 12.5078 93.4565 12.6796C93.7638 12.8489 94.0021 13.1015 94.1714 13.4374C94.3406 13.7734 94.4253 14.1887 94.4253 14.6835V18.4999H93.2573V14.8242C93.2573 14.3893 93.144 14.0494 92.9175 13.8046C92.6909 13.5572 92.3797 13.4335 91.9839 13.4335C91.713 13.4335 91.4722 13.4921 91.2612 13.6093C91.0529 13.7265 90.8875 13.8984 90.7651 14.1249C90.6453 14.3489 90.5854 14.6197 90.5854 14.9374Z" fill="#E8E8E8"/>
<path d="M99.16 18.4999V9.77267H102.799C103.453 9.77267 104 9.86499 104.44 10.0497C104.883 10.2343 105.215 10.4928 105.437 10.8252C105.661 11.1576 105.774 11.5426 105.774 11.9801C105.774 12.3124 105.704 12.6093 105.565 12.8707C105.426 13.1292 105.234 13.3437 104.99 13.5141C104.745 13.6846 104.463 13.8039 104.142 13.8721V13.9573C104.494 13.9744 104.819 14.0695 105.117 14.2428C105.419 14.4161 105.66 14.6576 105.842 14.9673C106.024 15.2741 106.115 15.6377 106.115 16.0582C106.115 16.5269 105.995 16.946 105.757 17.3153C105.518 17.6818 105.173 17.9715 104.721 18.1846C104.269 18.3948 103.721 18.4999 103.076 18.4999H99.16ZM101.269 16.7997H102.573C103.031 16.7997 103.367 16.713 103.583 16.5397C103.802 16.3664 103.911 16.1249 103.911 15.8153C103.911 15.5908 103.859 15.3977 103.754 15.2357C103.649 15.071 103.5 14.9445 103.306 14.8565C103.113 14.7656 102.882 14.7201 102.612 14.7201H101.269V16.7997ZM101.269 13.3607H102.437C102.667 13.3607 102.872 13.3224 103.051 13.2457C103.23 13.169 103.369 13.0582 103.468 12.9133C103.571 12.7684 103.622 12.5937 103.622 12.3891C103.622 12.0965 103.518 11.8664 103.311 11.6988C103.103 11.5312 102.823 11.4474 102.471 11.4474H101.269V13.3607ZM111.352 15.6747V11.9545H113.431V18.4999H111.446V17.2812H111.377C111.232 17.6818 110.985 17.9999 110.636 18.2357C110.289 18.4687 109.87 18.5852 109.379 18.5852C108.933 18.5852 108.541 18.4829 108.203 18.2783C107.865 18.0738 107.602 17.7883 107.414 17.4218C107.227 17.0525 107.132 16.6207 107.129 16.1264V11.9545H109.213V15.7173C109.215 16.0724 109.309 16.3522 109.494 16.5568C109.678 16.7613 109.93 16.8636 110.248 16.8636C110.455 16.8636 110.642 16.8181 110.806 16.7272C110.974 16.6335 111.106 16.4985 111.203 16.3224C111.302 16.1434 111.352 15.9275 111.352 15.6747ZM114.758 18.4999V11.9545H116.841V18.4999H114.758ZM115.802 11.1917C115.509 11.1917 115.258 11.0951 115.047 10.9019C114.837 10.7059 114.732 10.4701 114.732 10.1945C114.732 9.92181 114.837 9.68886 115.047 9.49568C115.258 9.29965 115.509 9.20164 115.802 9.20164C116.097 9.20164 116.349 9.29965 116.556 9.49568C116.766 9.68886 116.871 9.92181 116.871 10.1945C116.871 10.4701 116.766 10.7059 116.556 10.9019C116.349 11.0951 116.097 11.1917 115.802 11.1917ZM120.252 9.77267V18.4999H118.168V9.77267H120.252ZM125.273 11.9545V13.4886H121.143V11.9545H125.273ZM122.008 10.3863H124.092V16.4417C124.092 16.5695 124.112 16.6732 124.152 16.7528C124.194 16.8295 124.256 16.8849 124.335 16.919C124.415 16.9502 124.51 16.9658 124.621 16.9658C124.7 16.9658 124.784 16.9587 124.872 16.9445C124.963 16.9275 125.031 16.9133 125.077 16.9019L125.392 18.4062C125.292 18.4346 125.152 18.4701 124.97 18.5127C124.791 18.5553 124.577 18.5823 124.327 18.5937C123.838 18.6164 123.419 18.5596 123.069 18.4232C122.723 18.284 122.457 18.0681 122.273 17.7755C122.091 17.4829 122.003 17.115 122.008 16.6718V10.3863ZM126.476 18.4999V9.77267H130.116C130.769 9.77267 131.316 9.86499 131.756 10.0497C132.199 10.2343 132.532 10.4928 132.753 10.8252C132.978 11.1576 133.09 11.5426 133.09 11.9801C133.09 12.3124 133.02 12.6093 132.881 12.8707C132.742 13.1292 132.55 13.3437 132.306 13.5141C132.062 13.6846 131.779 13.8039 131.458 13.8721V13.9573C131.81 13.9744 132.136 14.0695 132.434 14.2428C132.735 14.4161 132.976 14.6576 133.158 14.9673C133.34 15.2741 133.431 15.6377 133.431 16.0582C133.431 16.5269 133.312 16.946 133.073 17.3153C132.834 17.6818 132.489 17.9715 132.037 18.1846C131.586 18.3948 131.037 18.4999 130.393 18.4999H126.476ZM128.586 16.7997H129.89C130.347 16.7997 130.684 16.713 130.9 16.5397C131.118 16.3664 131.228 16.1249 131.228 15.8153C131.228 15.5908 131.175 15.3977 131.07 15.2357C130.965 15.071 130.816 14.9445 130.623 14.8565C130.43 14.7656 130.198 14.7201 129.928 14.7201H128.586V16.7997ZM128.586 13.3607H129.753C129.984 13.3607 130.188 13.3224 130.367 13.2457C130.546 13.169 130.685 13.0582 130.785 12.9133C130.887 12.7684 130.938 12.5937 130.938 12.3891C130.938 12.0965 130.834 11.8664 130.627 11.6988C130.42 11.5312 130.14 11.4474 129.787 11.4474H128.586V13.3607ZM135.719 20.9545C135.469 20.9545 135.234 20.9346 135.012 20.8948C134.79 20.8579 134.6 20.8082 134.441 20.7457L134.901 19.2329C135.106 19.3011 135.29 19.3408 135.455 19.3522C135.623 19.3636 135.766 19.3366 135.886 19.2712C136.008 19.2087 136.101 19.0965 136.167 18.9346L136.248 18.7386L133.921 11.9545H136.103L137.309 16.6249H137.377L138.6 11.9545H140.795L138.327 19.1264C138.208 19.4843 138.039 19.7997 137.82 20.0724C137.604 20.3479 137.324 20.5639 136.981 20.7201C136.64 20.8764 136.219 20.9545 135.719 20.9545ZM141.594 18.4999V9.77267H145.233C145.886 9.77267 146.433 9.86499 146.873 10.0497C147.317 10.2343 147.649 10.4928 147.871 10.8252C148.095 11.1576 148.207 11.5426 148.207 11.9801C148.207 12.3124 148.138 12.6093 147.998 12.8707C147.859 13.1292 147.667 13.3437 147.423 13.5141C147.179 13.6846 146.896 13.8039 146.575 13.8721V13.9573C146.927 13.9744 147.253 14.0695 147.551 14.2428C147.852 14.4161 148.094 14.6576 148.275 14.9673C148.457 15.2741 148.548 15.6377 148.548 16.0582C148.548 16.5269 148.429 16.946 148.19 17.3153C147.952 17.6818 147.606 17.9715 147.155 18.1846C146.703 18.3948 146.155 18.4999 145.51 18.4999H141.594ZM143.703 16.7997H145.007C145.464 16.7997 145.801 16.713 146.017 16.5397C146.236 16.3664 146.345 16.1249 146.345 15.8153C146.345 15.5908 146.292 15.3977 146.187 15.2357C146.082 15.071 145.933 14.9445 145.74 14.8565C145.547 14.7656 145.315 14.7201 145.045 14.7201H143.703V16.7997ZM143.703 13.3607H144.871C145.101 13.3607 145.305 13.3224 145.484 13.2457C145.663 13.169 145.802 13.0582 145.902 12.9133C146.004 12.7684 146.055 12.5937 146.055 12.3891C146.055 12.0965 145.952 11.8664 145.744 11.6988C145.537 11.5312 145.257 11.4474 144.905 11.4474H143.703V13.3607ZM149.562 18.4999V11.9545H151.646V18.4999H149.562ZM150.606 11.1917C150.314 11.1917 150.062 11.0951 149.852 10.9019C149.642 10.7059 149.537 10.4701 149.537 10.1945C149.537 9.92181 149.642 9.68886 149.852 9.49568C150.062 9.29965 150.314 9.20164 150.606 9.20164C150.902 9.20164 151.153 9.29965 151.361 9.49568C151.571 9.68886 151.676 9.92181 151.676 10.1945C151.676 10.4701 151.571 10.7059 151.361 10.9019C151.153 11.0951 150.902 11.1917 150.606 11.1917ZM156.667 11.9545V13.4886H152.538V11.9545H156.667ZM153.403 10.3863H155.487V16.4417C155.487 16.5695 155.507 16.6732 155.546 16.7528C155.589 16.8295 155.65 16.8849 155.73 16.919C155.809 16.9502 155.904 16.9658 156.015 16.9658C156.095 16.9658 156.178 16.9587 156.267 16.9445C156.357 16.9275 156.426 16.9133 156.471 16.9019L156.786 18.4062C156.687 18.4346 156.546 18.4701 156.365 18.5127C156.186 18.5553 155.971 18.5823 155.721 18.5937C155.232 18.6164 154.813 18.5596 154.464 18.4232C154.117 18.284 153.852 18.0681 153.667 17.7755C153.485 17.4829 153.397 17.115 153.403 16.6718V10.3863Z" fill="#2F87C2"/>
</g>
</g>
<rect x="0.749512" y="0.749939" width="162" height="26.5" rx="5.25" stroke="white" stroke-opacity="0.15" stroke-width="1.5"/>
<defs>
<filter id="filter0_d_45_21" x="1.99951" y="-6.10352e-05" width="28" height="28" filterUnits="userSpaceOnUse" color-interpolation-filters="sRGB">
<feFlood flood-opacity="0" result="BackgroundImageFix"/>
<feColorMatrix in="SourceAlpha" type="matrix" values="0 0 0 0 0 0 0 0 0 0 0 0 0 0 0 0 0 0 127 0" result="hardAlpha"/>
<feOffset/>
<feGaussianBlur stdDeviation="2"/>
<feComposite in2="hardAlpha" operator="out"/>
<feColorMatrix type="matrix" values="0 0 0 0 0 0 0 0 0 0 0 0 0 0 0 0 0 0 0.25 0"/>
<feBlend mode="normal" in2="BackgroundImageFix" result="effect1_dropShadow_45_21"/>
<feBlend mode="normal" in="SourceGraphic" in2="effect1_dropShadow_45_21" result="shape"/>
</filter>
<filter id="filter1_d_45_21" x="27.9995" y="3.49994" width="133.5" height="21.4545" filterUnits="userSpaceOnUse" color-interpolation-filters="sRGB">
<feFlood flood-opacity="0" result="BackgroundImageFix"/>
<feColorMatrix in="SourceAlpha" type="matrix" values="0 0 0 0 0 0 0 0 0 0 0 0 0 0 0 0 0 0 127 0" result="hardAlpha"/>
<feOffset/>
<feGaussianBlur stdDeviation="2"/>
<feComposite in2="hardAlpha" operator="out"/>
<feColorMatrix type="matrix" values="0 0 0 0 0 0 0 0 0 0 0 0 0 0 0 0 0 0 0.25 0"/>
<feBlend mode="normal" in2="BackgroundImageFix" result="effect1_dropShadow_45_21"/>
<feBlend mode="normal" in="SourceGraphic" in2="effect1_dropShadow_45_21" result="shape"/>
</filter>
<linearGradient id="paint0_linear_45_21" x1="81.7495" y1="-6.10351e-05" x2="81.7495" y2="27.9999" gradientUnits="userSpaceOnUse">
<stop stop-color="#09202F"/>
<stop offset="1" stop-color="#05111A"/>
</linearGradient>
<clipPath id="clip0_45_21">
<rect x="-0.000488281" y="-6.10352e-05" width="163.5" height="28" rx="6" fill="white"/>
</clipPath>
</defs>
</svg>
