<svg width="237" height="41" viewBox="0 0 237 41" fill="none" xmlns="http://www.w3.org/2000/svg">
<g clip-path="url(#clip0_45_21)">
<rect x="-0.000732422" y="0.0266113" width="237.001" height="40.0014" rx="8" fill="url(#paint0_linear_45_21)"/>
<g filter="url(#filter0_d_45_21)">
<path d="M21.9279 6.03319C20.9406 6.16377 19.6857 7.19949 18.8217 7.69115C16.6148 8.94695 14.3708 10.1378 12.1545 11.376C11.4219 11.7854 10.6838 12.1874 9.95738 12.6078C9.73312 12.7375 9.27411 12.9373 9.44504 13.2747C9.64669 13.6728 10.4912 13.935 10.8665 14.1446C12.1889 14.8829 13.5355 15.5968 14.882 16.2895C15.3681 16.5395 15.9789 17.0854 16.5488 16.8533C17.9045 16.3011 19.2265 15.3376 20.4884 14.591C20.8943 14.3509 21.5869 13.7466 22.0795 13.8067C22.5072 13.859 22.9973 14.282 23.3674 14.4941C24.3293 15.0452 25.2945 15.5959 26.2464 16.1642C26.6664 16.4149 27.3242 16.9814 27.8375 16.9198C28.3455 16.8589 28.9004 16.4055 29.3527 16.1755C30.628 15.5272 31.8672 14.8048 33.1409 14.1526C33.4575 13.9905 34.7089 13.5245 34.5992 13.0724C34.533 12.7994 34.1166 12.6434 33.8985 12.5207L31.8529 11.376C29.4598 10.039 27.0613 8.70847 24.6554 7.39472C23.9952 7.0342 22.696 5.93162 21.9279 6.03319ZM9.28673 15.2079C8.87283 15.3081 9.04822 16.4066 9.04822 16.7287V21.6891V25.8101C9.04822 26.2733 8.89818 27.067 9.12609 27.481C9.49415 28.1497 11.0398 28.6714 11.6999 29.0329C13.8791 30.2266 16.0337 31.4662 18.2156 32.6548C18.8733 33.0132 19.531 33.3717 20.1854 33.7362C20.4154 33.8644 20.7272 34.1068 21.0076 34.0027C21.4393 33.8426 21.2461 32.6684 21.2461 32.2969V28.4048C21.2461 27.8988 21.389 27.1298 21.2004 26.6567C21.0316 26.2334 20.3273 25.9912 19.9581 25.778C18.9167 25.1766 17.212 24.5669 16.4213 23.6573C16.1305 23.3226 16.2457 22.7129 16.2457 22.2996C16.2457 21.3024 16.474 19.9842 16.2216 19.0212C16.088 18.5112 15.2197 18.2676 14.8062 18.0366C13.4812 17.2968 12.1412 16.5621 10.7908 15.8706C10.4338 15.6878 9.6939 15.1092 9.28673 15.2079ZM34.6517 15.1998C34.173 15.1809 33.402 15.7637 32.9894 15.9979C31.7669 16.692 30.5113 17.33 29.277 18.0024C28.8546 18.2325 27.9219 18.5057 27.7858 19.0214C27.5262 20.0045 27.7617 21.3574 27.7617 22.3759C27.7617 22.7446 27.8706 23.3344 27.6297 23.6435C27.3759 23.9693 26.8264 24.1795 26.4737 24.3816C25.6644 24.8453 24.8571 25.3115 24.0493 25.778C23.6741 25.9946 22.9944 26.2287 22.8176 26.6567C22.6211 27.1323 22.7613 27.8953 22.7613 28.4048V32.3732C22.7613 32.7421 22.5659 33.9322 23.0726 34.0198C23.3825 34.0734 23.7205 33.802 23.9735 33.6598C24.6025 33.3064 25.2379 32.9645 25.8676 32.6127C28.0115 31.415 30.1538 30.2126 32.3075 29.0329C32.9852 28.6618 34.4592 28.1803 34.8813 27.525C35.075 27.2243 34.9592 26.6132 34.9592 26.268V22.9865V17.0339C34.9592 16.6739 35.1684 15.2202 34.6517 15.1998Z" fill="#2F87C2"/>
</g>
<g filter="url(#filter1_d_45_21)">
<path d="M46.4034 26.5273H44.4233L48.8725 14.1636H51.0277L55.4769 26.5273H53.4968L50.0014 16.4094H49.9049L46.4034 26.5273ZM46.7355 21.6857H53.1588V23.2553H46.7355V21.6857ZM63.8879 17.2546L60.5253 26.5273H58.5935L55.2249 17.2546H57.1627L59.5111 24.3902H59.6077L61.95 17.2546H63.8879ZM68.0171 26.7325C67.4296 26.7325 66.8983 26.6239 66.4234 26.4065C65.9485 26.1852 65.5722 25.8652 65.2945 25.4467C65.0208 25.0281 64.884 24.515 64.884 23.9072C64.884 23.384 64.9846 22.9534 65.1858 22.6153C65.3871 22.2773 65.6587 22.0096 66.0008 21.8124C66.3429 21.6152 66.7252 21.4663 67.1478 21.3657C67.5704 21.2651 68.0011 21.1886 68.4397 21.1363C68.9951 21.0719 69.4459 21.0196 69.792 20.9793C70.1381 20.9351 70.3897 20.8646 70.5466 20.768C70.7036 20.6715 70.7821 20.5145 70.7821 20.2972V20.2549C70.7821 19.7277 70.6332 19.3192 70.3353 19.0294C70.0415 18.7396 69.6028 18.5948 69.0193 18.5948C68.4116 18.5948 67.9326 18.7296 67.5825 18.9992C67.2364 19.2649 66.9969 19.5607 66.8641 19.8867L65.1677 19.5003C65.3689 18.9368 65.6627 18.4821 66.0491 18.1359C66.4395 17.7858 66.8882 17.5323 67.3953 17.3753C67.9024 17.2143 68.4357 17.1338 68.9951 17.1338C69.3654 17.1338 69.7578 17.1781 70.1723 17.2666C70.5909 17.3511 70.9813 17.5081 71.3435 17.7375C71.7097 17.9669 72.0096 18.2949 72.243 18.7215C72.4764 19.1441 72.5931 19.6935 72.5931 20.3696V26.5273H70.8304V25.2595H70.7579C70.6412 25.493 70.4661 25.7224 70.2327 25.9477C69.9993 26.1731 69.6994 26.3603 69.3332 26.5092C68.967 26.6581 68.5283 26.7325 68.0171 26.7325ZM68.4095 25.2837C68.9086 25.2837 69.3352 25.1851 69.6894 24.9879C70.0476 24.7907 70.3192 24.5331 70.5044 24.2151C70.6935 23.8932 70.7881 23.5491 70.7881 23.1828V21.9875C70.7237 22.0519 70.5989 22.1123 70.4138 22.1686C70.2327 22.2209 70.0254 22.2672 69.792 22.3075C69.5586 22.3437 69.3312 22.3779 69.1098 22.4101C68.8885 22.4383 68.7033 22.4624 68.5544 22.4825C68.2043 22.5268 67.8843 22.6013 67.5946 22.7059C67.3088 22.8105 67.0794 22.9615 66.9064 23.1587C66.7373 23.3519 66.6528 23.6094 66.6528 23.9314C66.6528 24.3781 66.8178 24.7162 67.1478 24.9456C67.4779 25.171 67.8984 25.2837 68.4095 25.2837ZM74.9973 26.5273V17.2546H76.8024V26.5273H74.9973ZM75.9089 15.8238C75.595 15.8238 75.3254 15.7192 75.1 15.5099C74.8786 15.2966 74.7679 15.043 74.7679 14.7492C74.7679 14.4514 74.8786 14.1979 75.1 13.9886C75.3254 13.7753 75.595 13.6686 75.9089 13.6686C76.2228 13.6686 76.4905 13.7753 76.7118 13.9886C76.9372 14.1979 77.0499 14.4514 77.0499 14.7492C77.0499 15.043 76.9372 15.2966 76.7118 15.5099C76.4905 15.7192 76.2228 15.8238 75.9089 15.8238ZM81.0358 14.1636V26.5273H79.2307V14.1636H81.0358ZM86.1627 26.7325C85.5751 26.7325 85.0438 26.6239 84.5689 26.4065C84.094 26.1852 83.7177 25.8652 83.44 25.4467C83.1663 25.0281 83.0295 24.515 83.0295 23.9072C83.0295 23.384 83.1301 22.9534 83.3313 22.6153C83.5326 22.2773 83.8042 22.0096 84.1463 21.8124C84.4884 21.6152 84.8707 21.4663 85.2933 21.3657C85.7159 21.2651 86.1466 21.1886 86.5852 21.1363C87.1406 21.0719 87.5914 21.0196 87.9375 20.9793C88.2836 20.9351 88.5352 20.8646 88.6921 20.768C88.8491 20.6715 88.9276 20.5145 88.9276 20.2972V20.2549C88.9276 19.7277 88.7787 19.3192 88.4808 19.0294C88.187 18.7396 87.7484 18.5948 87.1648 18.5948C86.5571 18.5948 86.0781 18.7296 85.728 18.9992C85.3819 19.2649 85.1424 19.5607 85.0096 19.8867L83.3132 19.5003C83.5145 18.9368 83.8082 18.4821 84.1946 18.1359C84.585 17.7858 85.0337 17.5323 85.5408 17.3753C86.048 17.2143 86.5812 17.1338 87.1406 17.1338C87.5109 17.1338 87.9033 17.1781 88.3178 17.2666C88.7364 17.3511 89.1268 17.5081 89.489 17.7375C89.8552 17.9669 90.1551 18.2949 90.3885 18.7215C90.6219 19.1441 90.7386 19.6935 90.7386 20.3696V26.5273H88.9759V25.2595H88.9034C88.7867 25.493 88.6116 25.7224 88.3782 25.9477C88.1448 26.1731 87.8449 26.3603 87.4787 26.5092C87.1125 26.6581 86.6738 26.7325 86.1627 26.7325ZM86.5551 25.2837C87.0541 25.2837 87.4807 25.1851 87.8349 24.9879C88.1931 24.7907 88.4647 24.5331 88.6499 24.2151C88.839 23.8932 88.9336 23.5491 88.9336 23.1828V21.9875C88.8692 22.0519 88.7444 22.1123 88.5593 22.1686C88.3782 22.2209 88.1709 22.2672 87.9375 22.3075C87.7041 22.3437 87.4767 22.3779 87.2553 22.4101C87.034 22.4383 86.8488 22.4624 86.6999 22.4825C86.3498 22.5268 86.0298 22.6013 85.7401 22.7059C85.4543 22.8105 85.2249 22.9615 85.0519 23.1587C84.8828 23.3519 84.7983 23.6094 84.7983 23.9314C84.7983 24.3781 84.9633 24.7162 85.2933 24.9456C85.6234 25.171 86.0439 25.2837 86.5551 25.2837ZM93.2877 26.5273V14.1636H95.0928V18.7577H95.2014C95.3061 18.5646 95.457 18.3412 95.6542 18.0876C95.8514 17.8341 96.1251 17.6127 96.4752 17.4236C96.8254 17.2304 97.2882 17.1338 97.8637 17.1338C98.6123 17.1338 99.2804 17.323 99.868 17.7013C100.456 18.0796 100.916 18.6249 101.25 19.3373C101.589 20.0497 101.758 20.9069 101.758 21.909C101.758 22.9112 101.591 23.7704 101.256 24.4868C100.922 25.1992 100.464 25.7485 99.8801 26.1349C99.2965 26.5172 98.6304 26.7084 97.8818 26.7084C97.3184 26.7084 96.8576 26.6138 96.4994 26.4246C96.1452 26.2355 95.8675 26.0141 95.6663 25.7606C95.4651 25.507 95.3101 25.2817 95.2014 25.0845H95.0505V26.5273H93.2877ZM95.0566 21.8909C95.0566 22.5429 95.1511 23.1144 95.3403 23.6054C95.5295 24.0964 95.8031 24.4808 96.1613 24.7585C96.5195 25.0321 96.9582 25.169 97.4774 25.169C98.0167 25.169 98.4674 25.0261 98.8296 24.7403C99.1919 24.4506 99.4655 24.0582 99.6507 23.5631C99.8398 23.0681 99.9344 22.5107 99.9344 21.8909C99.9344 21.2792 99.8418 20.7298 99.6567 20.2428C99.4756 19.7559 99.2019 19.3715 98.8357 19.0898C98.4735 18.8081 98.0207 18.6672 97.4774 18.6672C96.9542 18.6672 96.5115 18.802 96.1492 19.0717C95.7911 19.3413 95.5194 19.7176 95.3343 20.2006C95.1491 20.6835 95.0566 21.247 95.0566 21.8909ZM105.589 14.1636V26.5273H103.784V14.1636H105.589ZM112.014 26.7144C111.101 26.7144 110.314 26.5192 109.654 26.1288C108.998 25.7344 108.491 25.181 108.133 24.4687C107.778 23.7523 107.601 22.9132 107.601 21.9513C107.601 21.0015 107.778 20.1644 108.133 19.4399C108.491 18.7155 108.99 18.15 109.63 17.7435C110.274 17.3371 111.026 17.1338 111.888 17.1338C112.411 17.1338 112.918 17.2203 113.409 17.3934C113.9 17.5665 114.341 17.8381 114.731 18.2084C115.121 18.5787 115.429 19.0596 115.655 19.6512C115.88 20.2388 115.993 20.9532 115.993 21.7943V22.4342H108.622V21.082H114.224C114.224 20.6071 114.127 20.1865 113.934 19.8202C113.741 19.45 113.469 19.1582 113.119 18.9449C112.773 18.7316 112.366 18.6249 111.9 18.6249C111.392 18.6249 110.95 18.7497 110.571 18.9992C110.197 19.2447 109.907 19.5667 109.702 19.9651C109.501 20.3595 109.4 20.7882 109.4 21.251V22.3075C109.4 22.9273 109.509 23.4545 109.726 23.8891C109.948 24.3238 110.256 24.6558 110.65 24.8852C111.044 25.1106 111.505 25.2233 112.032 25.2233C112.374 25.2233 112.686 25.175 112.968 25.0784C113.25 24.9778 113.493 24.8289 113.699 24.6317C113.904 24.4345 114.061 24.191 114.169 23.9012L115.878 24.2091C115.741 24.7122 115.496 25.1529 115.141 25.5312C114.791 25.9055 114.351 26.1973 113.819 26.4065C113.292 26.6118 112.69 26.7144 112.014 26.7144ZM126.4 26.7144C125.531 26.7144 124.772 26.5152 124.124 26.1168C123.476 25.7183 122.973 25.1609 122.615 24.4445C122.257 23.7282 122.078 22.891 122.078 21.9332C122.078 20.9713 122.257 20.1301 122.615 19.4097C122.973 18.6893 123.476 18.1299 124.124 17.7315C124.772 17.333 125.531 17.1338 126.4 17.1338C127.27 17.1338 128.028 17.333 128.676 17.7315C129.324 18.1299 129.827 18.6893 130.185 19.4097C130.544 20.1301 130.723 20.9713 130.723 21.9332C130.723 22.891 130.544 23.7282 130.185 24.4445C129.827 25.1609 129.324 25.7183 128.676 26.1168C128.028 26.5152 127.27 26.7144 126.4 26.7144ZM126.406 25.1992C126.97 25.1992 127.437 25.0502 127.807 24.7524C128.177 24.4546 128.451 24.0582 128.628 23.5631C128.809 23.0681 128.9 22.5228 128.9 21.9271C128.9 21.3355 128.809 20.7922 128.628 20.2972C128.451 19.7981 128.177 19.3977 127.807 19.0958C127.437 18.794 126.97 18.643 126.406 18.643C125.839 18.643 125.368 18.794 124.994 19.0958C124.623 19.3977 124.348 19.7981 124.167 20.2972C123.99 20.7922 123.901 21.3355 123.901 21.9271C123.901 22.5228 123.99 23.0681 124.167 23.5631C124.348 24.0582 124.623 24.4546 124.994 24.7524C125.368 25.0502 125.839 25.1992 126.406 25.1992ZM134.543 21.0216V26.5273H132.738V17.2546H134.47V18.7638H134.585C134.798 18.2728 135.132 17.8784 135.587 17.5805C136.046 17.2827 136.623 17.1338 137.32 17.1338C137.951 17.1338 138.505 17.2666 138.98 17.5323C139.455 17.7939 139.823 18.1842 140.085 18.7034C140.346 19.2226 140.477 19.8645 140.477 20.6292V26.5273H138.672V20.8465C138.672 20.1744 138.497 19.6492 138.147 19.2709C137.797 18.8885 137.316 18.6974 136.704 18.6974C136.285 18.6974 135.913 18.7879 135.587 18.969C135.265 19.1501 135.009 19.4158 134.82 19.7659C134.635 20.112 134.543 20.5306 134.543 21.0216Z" fill="#E8E8E8"/>
<path d="M146.936 26.5273V14.1636H152.092C153.018 14.1636 153.792 14.2944 154.416 14.556C155.044 14.8176 155.515 15.1839 155.829 15.6548C156.147 16.1256 156.306 16.671 156.306 17.2908C156.306 17.7617 156.207 18.1822 156.01 18.5525C155.813 18.9187 155.541 19.2226 155.195 19.4641C154.849 19.7055 154.448 19.8746 153.994 19.9712V20.0919C154.493 20.1161 154.953 20.2509 155.376 20.4964C155.803 20.7419 156.145 21.084 156.402 21.5227C156.66 21.9573 156.789 22.4725 156.789 23.0681C156.789 23.7322 156.62 24.3258 156.282 24.849C155.944 25.3682 155.455 25.7787 154.815 26.0805C154.175 26.3784 153.398 26.5273 152.484 26.5273H146.936ZM149.925 24.1185H151.772C152.42 24.1185 152.897 23.9958 153.203 23.7503C153.513 23.5048 153.668 23.1627 153.668 22.724C153.668 22.4061 153.593 22.1324 153.444 21.903C153.295 21.6696 153.084 21.4905 152.81 21.3657C152.537 21.2369 152.209 21.1725 151.826 21.1725H149.925V24.1185ZM149.925 19.2467H151.579C151.905 19.2467 152.195 19.1924 152.448 19.0837C152.702 18.9751 152.899 18.8181 153.04 18.6129C153.185 18.4076 153.257 18.1601 153.257 17.8703C153.257 17.4558 153.11 17.1298 152.816 16.8923C152.523 16.6549 152.126 16.5362 151.627 16.5362H149.925V19.2467ZM164.208 22.5248V17.2546H167.154V26.5273H164.341V24.8007H164.244C164.039 25.3682 163.689 25.8189 163.194 26.153C162.703 26.483 162.109 26.648 161.413 26.648C160.781 26.648 160.226 26.5031 159.747 26.2134C159.268 25.9236 158.896 25.5191 158.63 24.9999C158.364 24.4767 158.23 23.865 158.226 23.1647V17.2546H161.178V22.5852C161.182 23.0882 161.314 23.4847 161.576 23.7744C161.838 24.0642 162.194 24.2091 162.645 24.2091C162.938 24.2091 163.202 24.1447 163.435 24.0159C163.673 23.8831 163.86 23.6919 163.997 23.4424C164.138 23.1889 164.208 22.883 164.208 22.5248ZM169.033 26.5273V17.2546H171.985V26.5273H169.033ZM170.512 16.1739C170.098 16.1739 169.741 16.0371 169.444 15.7634C169.146 15.4857 168.997 15.1517 168.997 14.7613C168.997 14.3749 169.146 14.0449 169.444 13.7712C169.741 13.4935 170.098 13.3547 170.512 13.3547C170.931 13.3547 171.287 13.4935 171.581 13.7712C171.879 14.0449 172.027 14.3749 172.027 14.7613C172.027 15.1517 171.879 15.4857 171.581 15.7634C171.287 16.0371 170.931 16.1739 170.512 16.1739ZM176.816 14.1636V26.5273H173.864V14.1636H176.816ZM183.929 17.2546V19.4278H178.079V17.2546H183.929ZM179.305 15.033H182.257V23.6114C182.257 23.7925 182.285 23.9394 182.342 24.0521C182.402 24.1608 182.488 24.2393 182.601 24.2876C182.714 24.3318 182.849 24.354 183.006 24.354C183.118 24.354 183.237 24.3439 183.362 24.3238C183.491 24.2997 183.587 24.2795 183.652 24.2634L184.098 26.3945C183.957 26.4347 183.758 26.485 183.501 26.5454C183.247 26.6058 182.943 26.644 182.589 26.6601C181.897 26.6923 181.303 26.6118 180.808 26.4186C180.317 26.2214 179.941 25.9155 179.679 25.501C179.422 25.0865 179.297 24.5653 179.305 23.9374V15.033ZM185.635 26.5273V14.1636H190.79C191.716 14.1636 192.491 14.2944 193.114 14.556C193.742 14.8176 194.213 15.1839 194.527 15.6548C194.845 16.1256 195.004 16.671 195.004 17.2908C195.004 17.7617 194.905 18.1822 194.708 18.5525C194.511 18.9187 194.239 19.2226 193.893 19.4641C193.547 19.7055 193.147 19.8746 192.692 19.9712V20.0919C193.191 20.1161 193.652 20.2509 194.074 20.4964C194.501 20.7419 194.843 21.084 195.101 21.5227C195.358 21.9573 195.487 22.4725 195.487 23.0681C195.487 23.7322 195.318 24.3258 194.98 24.849C194.642 25.3682 194.153 25.7787 193.513 26.0805C192.873 26.3784 192.096 26.5273 191.183 26.5273H185.635ZM188.623 24.1185H190.47C191.118 24.1185 191.595 23.9958 191.901 23.7503C192.211 23.5048 192.366 23.1627 192.366 22.724C192.366 22.4061 192.291 22.1324 192.142 21.903C191.994 21.6696 191.782 21.4905 191.509 21.3657C191.235 21.2369 190.907 21.1725 190.525 21.1725H188.623V24.1185ZM188.623 19.2467H190.277C190.603 19.2467 190.893 19.1924 191.146 19.0837C191.4 18.9751 191.597 18.8181 191.738 18.6129C191.883 18.4076 191.955 18.1601 191.955 17.8703C191.955 17.4558 191.808 17.1298 191.515 16.8923C191.221 16.6549 190.824 16.5362 190.325 16.5362H188.623V19.2467ZM198.729 30.0045C198.375 30.0045 198.041 29.9764 197.727 29.92C197.413 29.8677 197.143 29.7973 196.918 29.7087L197.57 27.5656C197.859 27.6622 198.121 27.7186 198.354 27.7347C198.592 27.7508 198.795 27.7125 198.964 27.62C199.137 27.5314 199.27 27.3724 199.363 27.143L199.477 26.8653L196.181 17.2546H199.272L200.981 23.871H201.077L202.81 17.2546H205.919L202.423 27.4147C202.254 27.9218 202.015 28.3685 201.705 28.7549C201.399 29.1453 201.003 29.4512 200.516 29.6725C200.033 29.8939 199.437 30.0045 198.729 30.0045ZM207.051 26.5273V14.1636H212.206C213.132 14.1636 213.907 14.2944 214.53 14.556C215.158 14.8176 215.629 15.1839 215.943 15.6548C216.261 16.1256 216.42 16.671 216.42 17.2908C216.42 17.7617 216.321 18.1822 216.124 18.5525C215.927 18.9187 215.655 19.2226 215.309 19.4641C214.963 19.7055 214.563 19.8746 214.108 19.9712V20.0919C214.607 20.1161 215.068 20.2509 215.49 20.4964C215.917 20.7419 216.259 21.084 216.517 21.5227C216.774 21.9573 216.903 22.4725 216.903 23.0681C216.903 23.7322 216.734 24.3258 216.396 24.849C216.058 25.3682 215.569 25.7787 214.929 26.0805C214.289 26.3784 213.512 26.5273 212.599 26.5273H207.051ZM210.039 24.1185H211.886C212.534 24.1185 213.011 23.9958 213.317 23.7503C213.627 23.5048 213.782 23.1627 213.782 22.724C213.782 22.4061 213.707 22.1324 213.559 21.903C213.41 21.6696 213.198 21.4905 212.925 21.3657C212.651 21.2369 212.323 21.1725 211.941 21.1725H210.039V24.1185ZM210.039 19.2467H211.693C212.019 19.2467 212.309 19.1924 212.562 19.0837C212.816 18.9751 213.013 18.8181 213.154 18.6129C213.299 18.4076 213.371 18.1601 213.371 17.8703C213.371 17.4558 213.224 17.1298 212.931 16.8923C212.637 16.6549 212.24 16.5362 211.741 16.5362H210.039V19.2467ZM218.34 26.5273V17.2546H221.292V26.5273H218.34ZM219.819 16.1739C219.404 16.1739 219.048 16.0371 218.75 15.7634C218.452 15.4857 218.304 15.1517 218.304 14.7613C218.304 14.3749 218.452 14.0449 218.75 13.7712C219.048 13.4935 219.404 13.3547 219.819 13.3547C220.237 13.3547 220.594 13.4935 220.887 13.7712C221.185 14.0449 221.334 14.3749 221.334 14.7613C221.334 15.1517 221.185 15.4857 220.887 15.7634C220.594 16.0371 220.237 16.1739 219.819 16.1739ZM228.405 17.2546V19.4278H222.555V17.2546H228.405ZM223.781 15.033H226.733V23.6114C226.733 23.7925 226.761 23.9394 226.817 24.0521C226.877 24.1608 226.964 24.2393 227.077 24.2876C227.189 24.3318 227.324 24.354 227.481 24.354C227.594 24.354 227.713 24.3439 227.837 24.3238C227.966 24.2997 228.063 24.2795 228.127 24.2634L228.574 26.3945C228.433 26.4347 228.234 26.485 227.976 26.5454C227.723 26.6058 227.419 26.644 227.065 26.6601C226.372 26.6923 225.779 26.6118 225.284 26.4186C224.793 26.2214 224.416 25.9155 224.155 25.501C223.897 25.0865 223.772 24.5653 223.781 23.9374V15.033Z" fill="#2F87C2"/>
</g>
</g>
<rect x="1.0707" y="1.09804" width="234.858" height="37.8585" rx="6.92857" stroke="white" stroke-opacity="0.15" stroke-width="2.14286"/>
<defs>
<filter id="filter0_d_45_21" x="2.39899" y="0.426331" width="39.202" height="39.202" filterUnits="userSpaceOnUse" color-interpolation-filters="sRGB">
<feFlood flood-opacity="0" result="BackgroundImageFix"/>
<feColorMatrix in="SourceAlpha" type="matrix" values="0 0 0 0 0 0 0 0 0 0 0 0 0 0 0 0 0 0 127 0" result="hardAlpha"/>
<feOffset/>
<feGaussianBlur stdDeviation="2.80014"/>
<feComposite in2="hardAlpha" operator="out"/>
<feColorMatrix type="matrix" values="0 0 0 0 0 0 0 0 0 0 0 0 0 0 0 0 0 0 0.25 0"/>
<feBlend mode="normal" in2="BackgroundImageFix" result="effect1_dropShadow_45_21"/>
<feBlend mode="normal" in="SourceGraphic" in2="effect1_dropShadow_45_21" result="shape"/>
</filter>
<filter id="filter1_d_45_21" x="38.2864" y="3.813" width="196.429" height="32.4286" filterUnits="userSpaceOnUse" color-interpolation-filters="sRGB">
<feFlood flood-opacity="0" result="BackgroundImageFix"/>
<feColorMatrix in="SourceAlpha" type="matrix" values="0 0 0 0 0 0 0 0 0 0 0 0 0 0 0 0 0 0 127 0" result="hardAlpha"/>
<feOffset/>
<feGaussianBlur stdDeviation="2.85714"/>
<feComposite in2="hardAlpha" operator="out"/>
<feColorMatrix type="matrix" values="0 0 0 0 0 0 0 0 0 0 0 0 0 0 0 0 0 0 0.25 0"/>
<feBlend mode="normal" in2="BackgroundImageFix" result="effect1_dropShadow_45_21"/>
<feBlend mode="normal" in="SourceGraphic" in2="effect1_dropShadow_45_21" result="shape"/>
</filter>
<linearGradient id="paint0_linear_45_21" x1="118.5" y1="0.0266113" x2="118.5" y2="40.028" gradientUnits="userSpaceOnUse">
<stop stop-color="#09202F"/>
<stop offset="1" stop-color="#05111A"/>
</linearGradient>
<clipPath id="clip0_45_21">
<rect x="-0.000732422" y="0.0266113" width="237.001" height="40.0014" rx="8" fill="white"/>
</clipPath>
</defs>
</svg>
