<svg width="235" height="41" viewBox="0 0 235 41" fill="none" xmlns="http://www.w3.org/2000/svg">
<g clip-path="url(#clip0_45_21)">
<rect x="-0.000732422" y="0.0266113" width="235.001" height="40.0014" rx="8" fill="url(#paint0_linear_45_21)"/>
<g filter="url(#filter0_d_45_21)">
<path d="M21.9279 6.03319C20.9406 6.16377 19.6857 7.19949 18.8217 7.69115C16.6148 8.94695 14.3708 10.1378 12.1545 11.376C11.4219 11.7854 10.6838 12.1874 9.95738 12.6078C9.73312 12.7375 9.27411 12.9373 9.44504 13.2747C9.64669 13.6728 10.4912 13.935 10.8665 14.1446C12.1889 14.8829 13.5355 15.5968 14.882 16.2895C15.3681 16.5395 15.979 17.0854 16.5488 16.8533C17.9045 16.3011 19.2265 15.3376 20.4884 14.591C20.8943 14.3509 21.5869 13.7466 22.0795 13.8067C22.5072 13.859 22.9973 14.282 23.3674 14.4941C24.3293 15.0452 25.2945 15.5959 26.2464 16.1642C26.6664 16.4149 27.3242 16.9814 27.8375 16.9198C28.3455 16.8589 28.9004 16.4055 29.3527 16.1755C30.628 15.5272 31.8672 14.8048 33.1409 14.1526C33.4575 13.9905 34.7089 13.5245 34.5992 13.0724C34.533 12.7994 34.1166 12.6434 33.8985 12.5207L31.8529 11.376C29.4598 10.039 27.0613 8.70847 24.6554 7.39472C23.9952 7.0342 22.696 5.93162 21.9279 6.03319ZM9.28673 15.2079C8.87283 15.3081 9.04822 16.4066 9.04822 16.7287V21.6891V25.8101C9.04822 26.2733 8.89818 27.067 9.12609 27.481C9.49415 28.1497 11.0398 28.6714 11.6999 29.0329C13.8791 30.2266 16.0337 31.4662 18.2156 32.6548C18.8733 33.0132 19.531 33.3717 20.1854 33.7362C20.4154 33.8644 20.7272 34.1068 21.0076 34.0027C21.4393 33.8426 21.2461 32.6684 21.2461 32.2969V28.4048C21.2461 27.8988 21.389 27.1298 21.2004 26.6567C21.0316 26.2334 20.3273 25.9912 19.9581 25.778C18.9167 25.1766 17.212 24.5669 16.4213 23.6573C16.1305 23.3226 16.2457 22.7129 16.2457 22.2996C16.2457 21.3024 16.474 19.9842 16.2216 19.0212C16.088 18.5112 15.2197 18.2676 14.8062 18.0366C13.4812 17.2968 12.1412 16.5621 10.7908 15.8706C10.4338 15.6878 9.6939 15.1092 9.28673 15.2079ZM34.6517 15.1998C34.173 15.1809 33.402 15.7637 32.9894 15.9979C31.7669 16.692 30.5113 17.33 29.277 18.0024C28.8546 18.2325 27.9219 18.5057 27.7858 19.0214C27.5262 20.0045 27.7617 21.3574 27.7617 22.3759C27.7617 22.7446 27.8706 23.3344 27.6297 23.6435C27.3759 23.9693 26.8264 24.1795 26.4737 24.3816C25.6644 24.8453 24.8571 25.3115 24.0493 25.778C23.6741 25.9946 22.9944 26.2287 22.8176 26.6567C22.6211 27.1323 22.7613 27.8953 22.7613 28.4048V32.3732C22.7613 32.7421 22.5659 33.9322 23.0726 34.0198C23.3825 34.0734 23.7205 33.802 23.9735 33.6598C24.6025 33.3064 25.2379 32.9645 25.8676 32.6127C28.0115 31.415 30.1538 30.2126 32.3075 29.0329C32.9852 28.6618 34.4592 28.1803 34.8813 27.525C35.075 27.2243 34.9592 26.6132 34.9592 26.268V22.9865V17.0339C34.9592 16.6739 35.1684 15.2202 34.6517 15.1998Z" fill="#2F87C2"/>
</g>
<g filter="url(#filter1_d_45_21)">
<path d="M44.4034 26.5273H42.4233L46.8725 14.1636H49.0277L53.4769 26.5273H51.4968L48.0014 16.4094H47.9049L44.4034 26.5273ZM44.7355 21.6857H51.1588V23.2553H44.7355V21.6857ZM61.8879 17.2546L58.5253 26.5273H56.5935L53.2249 17.2546H55.1627L57.5111 24.3902H57.6077L59.95 17.2546H61.8879ZM66.0171 26.7325C65.4296 26.7325 64.8983 26.6239 64.4234 26.4065C63.9485 26.1852 63.5722 25.8652 63.2945 25.4467C63.0208 25.0281 62.884 24.515 62.884 23.9072C62.884 23.384 62.9846 22.9534 63.1858 22.6153C63.3871 22.2773 63.6587 22.0096 64.0008 21.8124C64.3429 21.6152 64.7252 21.4663 65.1478 21.3657C65.5704 21.2651 66.0011 21.1886 66.4397 21.1363C66.9951 21.0719 67.4459 21.0196 67.792 20.9793C68.1381 20.9351 68.3897 20.8646 68.5466 20.768C68.7036 20.6715 68.7821 20.5145 68.7821 20.2972V20.2549C68.7821 19.7277 68.6332 19.3192 68.3353 19.0294C68.0415 18.7396 67.6028 18.5948 67.0193 18.5948C66.4116 18.5948 65.9326 18.7296 65.5825 18.9992C65.2364 19.2649 64.9969 19.5607 64.8641 19.8867L63.1677 19.5003C63.3689 18.9368 63.6627 18.4821 64.0491 18.1359C64.4395 17.7858 64.8882 17.5323 65.3953 17.3753C65.9024 17.2143 66.4357 17.1338 66.9951 17.1338C67.3654 17.1338 67.7578 17.1781 68.1723 17.2666C68.5909 17.3511 68.9813 17.5081 69.3435 17.7375C69.7097 17.9669 70.0096 18.2949 70.243 18.7215C70.4764 19.1441 70.5931 19.6935 70.5931 20.3696V26.5273H68.8304V25.2595H68.7579C68.6412 25.493 68.4661 25.7224 68.2327 25.9477C67.9993 26.1731 67.6994 26.3603 67.3332 26.5092C66.967 26.6581 66.5283 26.7325 66.0171 26.7325ZM66.4095 25.2837C66.9086 25.2837 67.3352 25.1851 67.6894 24.9879C68.0476 24.7907 68.3192 24.5331 68.5044 24.2151C68.6935 23.8932 68.7881 23.5491 68.7881 23.1828V21.9875C68.7237 22.0519 68.5989 22.1123 68.4138 22.1686C68.2327 22.2209 68.0254 22.2672 67.792 22.3075C67.5586 22.3437 67.3312 22.3779 67.1098 22.4101C66.8885 22.4383 66.7033 22.4624 66.5544 22.4825C66.2043 22.5268 65.8843 22.6013 65.5946 22.7059C65.3088 22.8105 65.0794 22.9615 64.9064 23.1587C64.7373 23.3519 64.6528 23.6094 64.6528 23.9314C64.6528 24.3781 64.8178 24.7162 65.1478 24.9456C65.4779 25.171 65.8984 25.2837 66.4095 25.2837ZM72.9973 26.5273V17.2546H74.8024V26.5273H72.9973ZM73.9089 15.8238C73.595 15.8238 73.3254 15.7192 73.1 15.5099C72.8786 15.2966 72.7679 15.043 72.7679 14.7492C72.7679 14.4514 72.8786 14.1979 73.1 13.9886C73.3254 13.7753 73.595 13.6686 73.9089 13.6686C74.2228 13.6686 74.4905 13.7753 74.7118 13.9886C74.9372 14.1979 75.0499 14.4514 75.0499 14.7492C75.0499 15.043 74.9372 15.2966 74.7118 15.5099C74.4905 15.7192 74.2228 15.8238 73.9089 15.8238ZM79.0358 14.1636V26.5273H77.2307V14.1636H79.0358ZM84.1627 26.7325C83.5751 26.7325 83.0438 26.6239 82.5689 26.4065C82.094 26.1852 81.7177 25.8652 81.44 25.4467C81.1663 25.0281 81.0295 24.515 81.0295 23.9072C81.0295 23.384 81.1301 22.9534 81.3313 22.6153C81.5326 22.2773 81.8042 22.0096 82.1463 21.8124C82.4884 21.6152 82.8707 21.4663 83.2933 21.3657C83.7159 21.2651 84.1466 21.1886 84.5852 21.1363C85.1406 21.0719 85.5914 21.0196 85.9375 20.9793C86.2836 20.9351 86.5352 20.8646 86.6921 20.768C86.8491 20.6715 86.9276 20.5145 86.9276 20.2972V20.2549C86.9276 19.7277 86.7787 19.3192 86.4808 19.0294C86.187 18.7396 85.7484 18.5948 85.1648 18.5948C84.5571 18.5948 84.0781 18.7296 83.728 18.9992C83.3819 19.2649 83.1424 19.5607 83.0096 19.8867L81.3132 19.5003C81.5145 18.9368 81.8082 18.4821 82.1946 18.1359C82.585 17.7858 83.0337 17.5323 83.5408 17.3753C84.048 17.2143 84.5812 17.1338 85.1406 17.1338C85.5109 17.1338 85.9033 17.1781 86.3178 17.2666C86.7364 17.3511 87.1268 17.5081 87.489 17.7375C87.8552 17.9669 88.1551 18.2949 88.3885 18.7215C88.6219 19.1441 88.7386 19.6935 88.7386 20.3696V26.5273H86.9759V25.2595H86.9034C86.7867 25.493 86.6116 25.7224 86.3782 25.9477C86.1448 26.1731 85.8449 26.3603 85.4787 26.5092C85.1125 26.6581 84.6738 26.7325 84.1627 26.7325ZM84.5551 25.2837C85.0541 25.2837 85.4807 25.1851 85.8349 24.9879C86.1931 24.7907 86.4647 24.5331 86.6499 24.2151C86.839 23.8932 86.9336 23.5491 86.9336 23.1828V21.9875C86.8692 22.0519 86.7444 22.1123 86.5593 22.1686C86.3782 22.2209 86.1709 22.2672 85.9375 22.3075C85.7041 22.3437 85.4767 22.3779 85.2553 22.4101C85.034 22.4383 84.8488 22.4624 84.6999 22.4825C84.3498 22.5268 84.0298 22.6013 83.7401 22.7059C83.4543 22.8105 83.2249 22.9615 83.0519 23.1587C82.8828 23.3519 82.7983 23.6094 82.7983 23.9314C82.7983 24.3781 82.9633 24.7162 83.2933 24.9456C83.6234 25.171 84.0439 25.2837 84.5551 25.2837ZM91.2877 26.5273V14.1636H93.0928V18.7577H93.2014C93.3061 18.5646 93.457 18.3412 93.6542 18.0876C93.8514 17.8341 94.1251 17.6127 94.4752 17.4236C94.8254 17.2304 95.2882 17.1338 95.8637 17.1338C96.6123 17.1338 97.2804 17.323 97.868 17.7013C98.4556 18.0796 98.9164 18.6249 99.2504 19.3373C99.5885 20.0497 99.7576 20.9069 99.7576 21.909C99.7576 22.9112 99.5905 23.7704 99.2565 24.4868C98.9224 25.1992 98.4636 25.7485 97.8801 26.1349C97.2965 26.5172 96.6304 26.7084 95.8818 26.7084C95.3184 26.7084 94.8576 26.6138 94.4994 26.4246C94.1452 26.2355 93.8675 26.0141 93.6663 25.7606C93.4651 25.507 93.3101 25.2817 93.2014 25.0845H93.0505V26.5273H91.2877ZM93.0566 21.8909C93.0566 22.5429 93.1511 23.1144 93.3403 23.6054C93.5295 24.0964 93.8031 24.4808 94.1613 24.7585C94.5195 25.0321 94.9582 25.169 95.4774 25.169C96.0167 25.169 96.4674 25.0261 96.8296 24.7403C97.1919 24.4506 97.4655 24.0582 97.6507 23.5631C97.8398 23.0681 97.9344 22.5107 97.9344 21.8909C97.9344 21.2792 97.8418 20.7298 97.6567 20.2428C97.4756 19.7559 97.2019 19.3715 96.8357 19.0898C96.4735 18.8081 96.0207 18.6672 95.4774 18.6672C94.9542 18.6672 94.5115 18.802 94.1492 19.0717C93.7911 19.3413 93.5194 19.7176 93.3343 20.2006C93.1491 20.6835 93.0566 21.247 93.0566 21.8909ZM103.589 14.1636V26.5273H101.784V14.1636H103.589ZM110.014 26.7144C109.101 26.7144 108.314 26.5192 107.654 26.1288C106.998 25.7344 106.491 25.181 106.133 24.4687C105.778 23.7523 105.601 22.9132 105.601 21.9513C105.601 21.0015 105.778 20.1644 106.133 19.4399C106.491 18.7155 106.99 18.15 107.63 17.7435C108.274 17.3371 109.026 17.1338 109.888 17.1338C110.411 17.1338 110.918 17.2203 111.409 17.3934C111.9 17.5665 112.341 17.8381 112.731 18.2084C113.121 18.5787 113.429 19.0596 113.655 19.6512C113.88 20.2388 113.993 20.9532 113.993 21.7943V22.4342H106.622V21.082H112.224C112.224 20.6071 112.127 20.1865 111.934 19.8202C111.741 19.45 111.469 19.1582 111.119 18.9449C110.773 18.7316 110.366 18.6249 109.9 18.6249C109.392 18.6249 108.95 18.7497 108.571 18.9992C108.197 19.2447 107.907 19.5667 107.702 19.9651C107.501 20.3595 107.4 20.7882 107.4 21.251V22.3075C107.4 22.9273 107.509 23.4545 107.726 23.8891C107.948 24.3238 108.256 24.6558 108.65 24.8852C109.044 25.1106 109.505 25.2233 110.032 25.2233C110.374 25.2233 110.686 25.175 110.968 25.0784C111.25 24.9778 111.493 24.8289 111.699 24.6317C111.904 24.4345 112.061 24.191 112.169 23.9012L113.878 24.2091C113.741 24.7122 113.496 25.1529 113.141 25.5312C112.791 25.9055 112.351 26.1973 111.819 26.4065C111.292 26.6118 110.69 26.7144 110.014 26.7144ZM124.4 26.7144C123.531 26.7144 122.772 26.5152 122.124 26.1168C121.476 25.7183 120.973 25.1609 120.615 24.4445C120.257 23.7282 120.078 22.891 120.078 21.9332C120.078 20.9713 120.257 20.1301 120.615 19.4097C120.973 18.6893 121.476 18.1299 122.124 17.7315C122.772 17.333 123.531 17.1338 124.4 17.1338C125.27 17.1338 126.028 17.333 126.676 17.7315C127.324 18.1299 127.827 18.6893 128.185 19.4097C128.544 20.1301 128.723 20.9713 128.723 21.9332C128.723 22.891 128.544 23.7282 128.185 24.4445C127.827 25.1609 127.324 25.7183 126.676 26.1168C126.028 26.5152 125.27 26.7144 124.4 26.7144ZM124.406 25.1992C124.97 25.1992 125.437 25.0502 125.807 24.7524C126.177 24.4546 126.451 24.0582 126.628 23.5631C126.809 23.0681 126.9 22.5228 126.9 21.9271C126.9 21.3355 126.809 20.7922 126.628 20.2972C126.451 19.7981 126.177 19.3977 125.807 19.0958C125.437 18.794 124.97 18.643 124.406 18.643C123.839 18.643 123.368 18.794 122.994 19.0958C122.623 19.3977 122.348 19.7981 122.167 20.2972C121.99 20.7922 121.901 21.3355 121.901 21.9271C121.901 22.5228 121.99 23.0681 122.167 23.5631C122.348 24.0582 122.623 24.4546 122.994 24.7524C123.368 25.0502 123.839 25.1992 124.406 25.1992ZM132.543 21.0216V26.5273H130.738V17.2546H132.47V18.7638H132.585C132.798 18.2728 133.132 17.8784 133.587 17.5805C134.046 17.2827 134.623 17.1338 135.32 17.1338C135.951 17.1338 136.505 17.2666 136.98 17.5323C137.455 17.7939 137.823 18.1842 138.085 18.7034C138.346 19.2226 138.477 19.8645 138.477 20.6292V26.5273H136.672V20.8465C136.672 20.1744 136.497 19.6492 136.147 19.2709C135.797 18.8885 135.316 18.6974 134.704 18.6974C134.285 18.6974 133.913 18.7879 133.587 18.969C133.265 19.1501 133.009 19.4158 132.82 19.7659C132.635 20.112 132.543 20.5306 132.543 21.0216Z" fill="#E8E8E8"/>
<path d="M144.936 26.5273V14.1636H150.092C151.018 14.1636 151.792 14.2944 152.416 14.556C153.044 14.8176 153.515 15.1839 153.829 15.6548C154.147 16.1256 154.306 16.671 154.306 17.2908C154.306 17.7617 154.207 18.1822 154.01 18.5525C153.813 18.9187 153.541 19.2226 153.195 19.4641C152.849 19.7055 152.448 19.8746 151.994 19.9712V20.0919C152.493 20.1161 152.953 20.2509 153.376 20.4964C153.803 20.7419 154.145 21.084 154.402 21.5227C154.66 21.9573 154.789 22.4725 154.789 23.0681C154.789 23.7322 154.62 24.3258 154.282 24.849C153.944 25.3682 153.455 25.7787 152.815 26.0805C152.175 26.3784 151.398 26.5273 150.484 26.5273H144.936ZM147.925 24.1185H149.772C150.42 24.1185 150.897 23.9958 151.203 23.7503C151.513 23.5048 151.668 23.1627 151.668 22.724C151.668 22.4061 151.593 22.1324 151.444 21.903C151.295 21.6696 151.084 21.4905 150.81 21.3657C150.537 21.2369 150.209 21.1725 149.826 21.1725H147.925V24.1185ZM147.925 19.2467H149.579C149.905 19.2467 150.195 19.1924 150.448 19.0837C150.702 18.9751 150.899 18.8181 151.04 18.6129C151.185 18.4076 151.257 18.1601 151.257 17.8703C151.257 17.4558 151.11 17.1298 150.816 16.8923C150.523 16.6549 150.126 16.5362 149.627 16.5362H147.925V19.2467ZM162.208 22.5248V17.2546H165.154V26.5273H162.341V24.8007H162.244C162.039 25.3682 161.689 25.8189 161.194 26.153C160.703 26.483 160.109 26.648 159.413 26.648C158.781 26.648 158.226 26.5031 157.747 26.2134C157.268 25.9236 156.896 25.5191 156.63 24.9999C156.364 24.4767 156.23 23.865 156.226 23.1647V17.2546H159.178V22.5852C159.182 23.0882 159.314 23.4847 159.576 23.7744C159.838 24.0642 160.194 24.2091 160.645 24.2091C160.938 24.2091 161.202 24.1447 161.435 24.0159C161.673 23.8831 161.86 23.6919 161.997 23.4424C162.138 23.1889 162.208 22.883 162.208 22.5248ZM167.033 26.5273V17.2546H169.985V26.5273H167.033ZM168.512 16.1739C168.098 16.1739 167.741 16.0371 167.444 15.7634C167.146 15.4857 166.997 15.1517 166.997 14.7613C166.997 14.3749 167.146 14.0449 167.444 13.7712C167.741 13.4935 168.098 13.3547 168.512 13.3547C168.931 13.3547 169.287 13.4935 169.581 13.7712C169.879 14.0449 170.027 14.3749 170.027 14.7613C170.027 15.1517 169.879 15.4857 169.581 15.7634C169.287 16.0371 168.931 16.1739 168.512 16.1739ZM174.816 14.1636V26.5273H171.864V14.1636H174.816ZM181.929 17.2546V19.4278H176.079V17.2546H181.929ZM177.305 15.033H180.257V23.6114C180.257 23.7925 180.285 23.9394 180.342 24.0521C180.402 24.1608 180.488 24.2393 180.601 24.2876C180.714 24.3318 180.849 24.354 181.006 24.354C181.118 24.354 181.237 24.3439 181.362 24.3238C181.491 24.2997 181.587 24.2795 181.652 24.2634L182.098 26.3945C181.957 26.4347 181.758 26.485 181.501 26.5454C181.247 26.6058 180.943 26.644 180.589 26.6601C179.897 26.6923 179.303 26.6118 178.808 26.4186C178.317 26.2214 177.941 25.9155 177.679 25.501C177.422 25.0865 177.297 24.5653 177.305 23.9374V15.033ZM183.635 26.5273V14.1636H188.79C189.716 14.1636 190.491 14.2944 191.114 14.556C191.742 14.8176 192.213 15.1839 192.527 15.6548C192.845 16.1256 193.004 16.671 193.004 17.2908C193.004 17.7617 192.905 18.1822 192.708 18.5525C192.511 18.9187 192.239 19.2226 191.893 19.4641C191.547 19.7055 191.147 19.8746 190.692 19.9712V20.0919C191.191 20.1161 191.652 20.2509 192.074 20.4964C192.501 20.7419 192.843 21.084 193.101 21.5227C193.358 21.9573 193.487 22.4725 193.487 23.0681C193.487 23.7322 193.318 24.3258 192.98 24.849C192.642 25.3682 192.153 25.7787 191.513 26.0805C190.873 26.3784 190.096 26.5273 189.183 26.5273H183.635ZM186.623 24.1185H188.47C189.118 24.1185 189.595 23.9958 189.901 23.7503C190.211 23.5048 190.366 23.1627 190.366 22.724C190.366 22.4061 190.291 22.1324 190.142 21.903C189.994 21.6696 189.782 21.4905 189.509 21.3657C189.235 21.2369 188.907 21.1725 188.525 21.1725H186.623V24.1185ZM186.623 19.2467H188.277C188.603 19.2467 188.893 19.1924 189.146 19.0837C189.4 18.9751 189.597 18.8181 189.738 18.6129C189.883 18.4076 189.955 18.1601 189.955 17.8703C189.955 17.4558 189.808 17.1298 189.515 16.8923C189.221 16.6549 188.824 16.5362 188.325 16.5362H186.623V19.2467ZM196.729 30.0045C196.375 30.0045 196.041 29.9764 195.727 29.92C195.413 29.8677 195.143 29.7973 194.918 29.7087L195.57 27.5656C195.859 27.6622 196.121 27.7186 196.354 27.7347C196.592 27.7508 196.795 27.7125 196.964 27.62C197.137 27.5314 197.27 27.3724 197.363 27.143L197.477 26.8653L194.181 17.2546H197.272L198.981 23.871H199.077L200.81 17.2546H203.919L200.423 27.4147C200.254 27.9218 200.015 28.3685 199.705 28.7549C199.399 29.1453 199.003 29.4512 198.516 29.6725C198.033 29.8939 197.437 30.0045 196.729 30.0045ZM205.051 26.5273V14.1636H210.206C211.132 14.1636 211.907 14.2944 212.53 14.556C213.158 14.8176 213.629 15.1839 213.943 15.6548C214.261 16.1256 214.42 16.671 214.42 17.2908C214.42 17.7617 214.321 18.1822 214.124 18.5525C213.927 18.9187 213.655 19.2226 213.309 19.4641C212.963 19.7055 212.563 19.8746 212.108 19.9712V20.0919C212.607 20.1161 213.068 20.2509 213.49 20.4964C213.917 20.7419 214.259 21.084 214.517 21.5227C214.774 21.9573 214.903 22.4725 214.903 23.0681C214.903 23.7322 214.734 24.3258 214.396 24.849C214.058 25.3682 213.569 25.7787 212.929 26.0805C212.289 26.3784 211.512 26.5273 210.599 26.5273H205.051ZM208.039 24.1185H209.886C210.534 24.1185 211.011 23.9958 211.317 23.7503C211.627 23.5048 211.782 23.1627 211.782 22.724C211.782 22.4061 211.707 22.1324 211.559 21.903C211.41 21.6696 211.198 21.4905 210.925 21.3657C210.651 21.2369 210.323 21.1725 209.941 21.1725H208.039V24.1185ZM208.039 19.2467H209.693C210.019 19.2467 210.309 19.1924 210.562 19.0837C210.816 18.9751 211.013 18.8181 211.154 18.6129C211.299 18.4076 211.371 18.1601 211.371 17.8703C211.371 17.4558 211.224 17.1298 210.931 16.8923C210.637 16.6549 210.24 16.5362 209.741 16.5362H208.039V19.2467ZM216.34 26.5273V17.2546H219.292V26.5273H216.34ZM217.819 16.1739C217.404 16.1739 217.048 16.0371 216.75 15.7634C216.452 15.4857 216.304 15.1517 216.304 14.7613C216.304 14.3749 216.452 14.0449 216.75 13.7712C217.048 13.4935 217.404 13.3547 217.819 13.3547C218.237 13.3547 218.594 13.4935 218.887 13.7712C219.185 14.0449 219.334 14.3749 219.334 14.7613C219.334 15.1517 219.185 15.4857 218.887 15.7634C218.594 16.0371 218.237 16.1739 217.819 16.1739ZM226.405 17.2546V19.4278H220.555V17.2546H226.405ZM221.781 15.033H224.733V23.6114C224.733 23.7925 224.761 23.9394 224.817 24.0521C224.877 24.1608 224.964 24.2393 225.077 24.2876C225.189 24.3318 225.324 24.354 225.481 24.354C225.594 24.354 225.713 24.3439 225.837 24.3238C225.966 24.2997 226.063 24.2795 226.127 24.2634L226.574 26.3945C226.433 26.4347 226.234 26.485 225.976 26.5454C225.723 26.6058 225.419 26.644 225.065 26.6601C224.372 26.6923 223.779 26.6118 223.284 26.4186C222.793 26.2214 222.416 25.9155 222.155 25.501C221.897 25.0865 221.772 24.5653 221.781 23.9374V15.033Z" fill="#2F87C2"/>
</g>
</g>
<rect x="1.0707" y="1.09804" width="232.858" height="37.8585" rx="6.92857" stroke="white" stroke-opacity="0.15" stroke-width="2.14286"/>
<defs>
<filter id="filter0_d_45_21" x="2.39899" y="0.426331" width="39.202" height="39.202" filterUnits="userSpaceOnUse" color-interpolation-filters="sRGB">
<feFlood flood-opacity="0" result="BackgroundImageFix"/>
<feColorMatrix in="SourceAlpha" type="matrix" values="0 0 0 0 0 0 0 0 0 0 0 0 0 0 0 0 0 0 127 0" result="hardAlpha"/>
<feOffset/>
<feGaussianBlur stdDeviation="2.80014"/>
<feComposite in2="hardAlpha" operator="out"/>
<feColorMatrix type="matrix" values="0 0 0 0 0 0 0 0 0 0 0 0 0 0 0 0 0 0 0.25 0"/>
<feBlend mode="normal" in2="BackgroundImageFix" result="effect1_dropShadow_45_21"/>
<feBlend mode="normal" in="SourceGraphic" in2="effect1_dropShadow_45_21" result="shape"/>
</filter>
<filter id="filter1_d_45_21" x="36.2864" y="3.813" width="196.429" height="32.4286" filterUnits="userSpaceOnUse" color-interpolation-filters="sRGB">
<feFlood flood-opacity="0" result="BackgroundImageFix"/>
<feColorMatrix in="SourceAlpha" type="matrix" values="0 0 0 0 0 0 0 0 0 0 0 0 0 0 0 0 0 0 127 0" result="hardAlpha"/>
<feOffset/>
<feGaussianBlur stdDeviation="2.85714"/>
<feComposite in2="hardAlpha" operator="out"/>
<feColorMatrix type="matrix" values="0 0 0 0 0 0 0 0 0 0 0 0 0 0 0 0 0 0 0.25 0"/>
<feBlend mode="normal" in2="BackgroundImageFix" result="effect1_dropShadow_45_21"/>
<feBlend mode="normal" in="SourceGraphic" in2="effect1_dropShadow_45_21" result="shape"/>
</filter>
<linearGradient id="paint0_linear_45_21" x1="117.5" y1="0.0266113" x2="117.5" y2="40.028" gradientUnits="userSpaceOnUse">
<stop stop-color="#09202F"/>
<stop offset="1" stop-color="#05111A"/>
</linearGradient>
<clipPath id="clip0_45_21">
<rect x="-0.000732422" y="0.0266113" width="235.001" height="40.0014" rx="8" fill="white"/>
</clipPath>
</defs>
</svg>
