<svg width="206" height="41" viewBox="0 0 206 41" fill="none" xmlns="http://www.w3.org/2000/svg">
<g clip-path="url(#clip0_2_3374)">
<rect x="-0.000732422" y="0.0375977" width="206.001" height="40.0014" rx="8" fill="url(#paint0_linear_2_3374)"/>
<g filter="url(#filter0_d_2_3374)">
<path d="M15.5697 6.0376V8.32617H11.5007V10.3455H9.40063V12.6341H11.5007V14.6534H13.6008V16.8074H17.8011V18.9613H26.2015V16.8074H30.4017V14.6534H32.3705V21.2499H30.4017V27.5771H28.1703V31.885H15.5697V34.039H28.1703V31.885H30.4017V27.5771H32.3705V21.2499H34.6019V10.3455H32.3705V12.6341H30.4017V14.6534H26.2015V16.8074H17.8011V14.6534H13.6008V12.6341H11.5007V10.3455H15.5697V8.32617H22.0013V6.0376H15.5697Z" fill="#353535"/>
<path d="M22.001 6.0376V8.32617H28.17V10.3455H32.3702V8.32617H28.17V6.0376H22.001Z" fill="#515151"/>
<path d="M15.5693 8.32617V10.3455H17.8007V8.32617H15.5693Z" fill="#A37B63"/>
<path d="M17.8008 8.32617V10.3455H19.9009V8.32617H17.8008Z" fill="#AB826B"/>
<path d="M19.9016 8.32617V10.3455H23.9706V8.32617H19.9016Z" fill="#ABA26B"/>
<path d="M23.97 8.32617V10.3455H26.2013V8.32617H23.97Z" fill="#AB826B"/>
<path d="M26.2014 8.32617V10.3455H28.1703V12.6341H30.4016V10.3455H28.1703V8.32617H26.2014Z" fill="#BF967E"/>
<path d="M11.5007 10.3455V12.634H13.6008V10.3455H11.5007Z" fill="#958C55"/>
<path d="M13.6006 10.3456V12.6342H15.5694V10.3456H13.6006Z" fill="#956C55"/>
<path d="M15.5693 10.3456V12.6342H17.8007V10.3456H15.5693Z" fill="#C33E1F"/>
<path d="M17.8008 10.3456V12.6342H19.9009V14.6535H22.001V16.8074H26.2012V14.6535H22.001V12.6342H19.9009V10.3456H17.8008Z" fill="#E38C3F"/>
<path d="M19.9016 10.3455V12.634H22.0017V14.6534H26.2019V12.634H23.9706V10.3455H19.9016Z" fill="#E4D25C"/>
<path d="M23.97 10.3455V12.634H26.2013V10.3455H23.97Z" fill="#E38C3F"/>
<path d="M26.2014 10.3455V12.634H28.1703V14.6534H30.4016V12.634H28.1703V10.3455H26.2014Z" fill="#CC4628"/>
<path d="M30.4016 10.3455V12.634H32.3705V10.3455H30.4016Z" fill="#BFB67E"/>
<path d="M9.40063 12.634V21.2498H11.5007V27.5771H13.6008V31.885H15.5697V27.5771H13.6008V21.2498H11.5007V12.634H9.40063Z" fill="#515151"/>
<path d="M13.6006 12.6342V14.6535H15.5694V12.6342H13.6006Z" fill="#DC8638"/>
<path d="M15.5693 12.6342V14.6535H17.8007V16.8074H19.9008V12.6342H15.5693Z" fill="#E2CF5A"/>
<path d="M26.2014 12.634V14.6534H28.1703V12.634H26.2014Z" fill="#EA9346"/>
<path d="M11.5007 14.6533V16.8073H13.6008V18.9612H17.801V16.8073H13.6008V14.6533H11.5007Z" fill="#E7E7E7"/>
<path d="M19.9016 14.6533V16.8073H22.0017V14.6533H19.9016Z" fill="#C54021"/>
<path d="M30.4016 14.6533V16.8073H32.3705V14.6533H30.4016Z" fill="#A9A9A9"/>
<path d="M11.5007 16.8074V21.2499H13.6008V27.5771H15.5697V29.8657H17.801V31.885H22.0013V23.2692H19.9012V21.2499H17.801V23.2692H15.5697V18.9613H13.6008V16.8074H11.5007Z" fill="#D8D8D8"/>
<path d="M26.2014 16.8074V18.9613H28.1703V16.8074H26.2014Z" fill="#EAD762"/>
<path d="M28.1707 16.8074V18.9613H30.402V16.8074H28.1707Z" fill="#CB4627"/>
<path d="M30.402 16.8074V21.2499H28.1707V27.5771H30.402V21.2499H32.3709V16.8074H30.402Z" fill="#727272"/>
<path d="M15.5693 18.9613V23.2692H17.8007V18.9613H15.5693Z" fill="white"/>
<path d="M17.8008 18.9613V21.2499H19.9009V18.9613H17.8008Z" fill="#D85334"/>
<path d="M19.9016 18.9613V21.2499H26.2019V18.9613H19.9016Z" fill="#CACACA"/>
<path d="M26.2014 18.9613V21.2499H28.1703V18.9613H26.2014Z" fill="#E99245"/>
<path d="M28.1707 18.9613V21.2499H30.402V18.9613H28.1707Z" fill="#969696"/>
<path d="M19.9016 21.2499V23.2692H22.0017V29.8657H23.9706V23.2692H26.2019V21.2499H19.9016Z" fill="#A8A8A8"/>
<path d="M26.2014 21.2499V23.2692H28.1703V21.2499H26.2014Z" fill="#CB4627"/>
<path d="M17.8008 23.2692V27.5771H19.9009V23.2692H17.8008Z" fill="white"/>
<path d="M23.9698 23.2692V29.8656H22.001V31.885H28.17V27.5771H26.2012V25.5577H28.17V23.2692H23.9698Z" fill="#969696"/>
<path d="M26.2014 25.5579V27.5772H28.1703V25.5579H26.2014Z" fill="#CB4627"/>
<path d="M15.5693 29.8657V31.8851H17.8007V29.8657H15.5693Z" fill="#969696"/>
</g>
<g filter="url(#filter1_d_2_3374)">
<path d="M44.4034 26.5383H42.4233L46.8725 14.1747H49.0277L53.4769 26.5383H51.4968L48.0014 16.4204H47.9049L44.4034 26.5383ZM44.7355 21.6967H51.1588V23.2663H44.7355V21.6967ZM61.8879 17.2656L58.5253 26.5383H56.5935L53.2249 17.2656H55.1627L57.5111 24.4013H57.6077L59.95 17.2656H61.8879ZM66.0171 26.7436C65.4296 26.7436 64.8983 26.6349 64.4234 26.4176C63.9485 26.1962 63.5722 25.8763 63.2945 25.4577C63.0208 25.0392 62.884 24.526 62.884 23.9183C62.884 23.3951 62.9846 22.9645 63.1858 22.6264C63.3871 22.2883 63.6587 22.0207 64.0008 21.8235C64.3429 21.6263 64.7252 21.4774 65.1478 21.3767C65.5704 21.2761 66.0011 21.1997 66.4397 21.1473C66.9951 21.083 67.4459 21.0306 67.792 20.9904C68.1381 20.9461 68.3897 20.8757 68.5466 20.7791C68.7036 20.6825 68.7821 20.5255 68.7821 20.3082V20.266C68.7821 19.7387 68.6332 19.3302 68.3353 19.0405C68.0415 18.7507 67.6028 18.6058 67.0193 18.6058C66.4116 18.6058 65.9326 18.7406 65.5825 19.0103C65.2364 19.2759 64.9969 19.5717 64.8641 19.8977L63.1677 19.5113C63.3689 18.9479 63.6627 18.4931 64.0491 18.147C64.4395 17.7968 64.8882 17.5433 65.3953 17.3863C65.9024 17.2254 66.4357 17.1449 66.9951 17.1449C67.3654 17.1449 67.7578 17.1891 68.1723 17.2777C68.5909 17.3622 68.9813 17.5192 69.3435 17.7486C69.7097 17.978 70.0096 18.306 70.243 18.7326C70.4764 19.1552 70.5931 19.7045 70.5931 20.3807V26.5383H68.8304V25.2706H68.7579C68.6412 25.504 68.4661 25.7334 68.2327 25.9588C67.9993 26.1842 67.6994 26.3713 67.3332 26.5202C66.967 26.6691 66.5283 26.7436 66.0171 26.7436ZM66.4095 25.2947C66.9086 25.2947 67.3352 25.1961 67.6894 24.9989C68.0476 24.8017 68.3192 24.5441 68.5044 24.2262C68.6935 23.9042 68.7881 23.5601 68.7881 23.1939V21.9986C68.7237 22.0629 68.5989 22.1233 68.4138 22.1797C68.2327 22.232 68.0254 22.2783 67.792 22.3185C67.5586 22.3547 67.3312 22.3889 67.1098 22.4211C66.8885 22.4493 66.7033 22.4735 66.5544 22.4936C66.2043 22.5379 65.8843 22.6123 65.5946 22.7169C65.3088 22.8216 65.0794 22.9725 64.9064 23.1697C64.7373 23.3629 64.6528 23.6205 64.6528 23.9424C64.6528 24.3892 64.8178 24.7272 65.1478 24.9566C65.4779 25.182 65.8984 25.2947 66.4095 25.2947ZM72.9973 26.5383V17.2656H74.8024V26.5383H72.9973ZM73.9089 15.8348C73.595 15.8348 73.3254 15.7302 73.1 15.5209C72.8786 15.3076 72.7679 15.0541 72.7679 14.7603C72.7679 14.4625 72.8786 14.2089 73.1 13.9996C73.3254 13.7863 73.595 13.6797 73.9089 13.6797C74.2228 13.6797 74.4905 13.7863 74.7118 13.9996C74.9372 14.2089 75.0499 14.4625 75.0499 14.7603C75.0499 15.0541 74.9372 15.3076 74.7118 15.5209C74.4905 15.7302 74.2228 15.8348 73.9089 15.8348ZM79.0358 14.1747V26.5383H77.2307V14.1747H79.0358ZM84.1627 26.7436C83.5751 26.7436 83.0438 26.6349 82.5689 26.4176C82.094 26.1962 81.7177 25.8763 81.44 25.4577C81.1663 25.0392 81.0295 24.526 81.0295 23.9183C81.0295 23.3951 81.1301 22.9645 81.3313 22.6264C81.5326 22.2883 81.8042 22.0207 82.1463 21.8235C82.4884 21.6263 82.8707 21.4774 83.2933 21.3767C83.7159 21.2761 84.1466 21.1997 84.5852 21.1473C85.1406 21.083 85.5914 21.0306 85.9375 20.9904C86.2836 20.9461 86.5352 20.8757 86.6921 20.7791C86.8491 20.6825 86.9276 20.5255 86.9276 20.3082V20.266C86.9276 19.7387 86.7787 19.3302 86.4808 19.0405C86.187 18.7507 85.7484 18.6058 85.1648 18.6058C84.5571 18.6058 84.0781 18.7406 83.728 19.0103C83.3819 19.2759 83.1424 19.5717 83.0096 19.8977L81.3132 19.5113C81.5145 18.9479 81.8082 18.4931 82.1946 18.147C82.585 17.7968 83.0337 17.5433 83.5408 17.3863C84.048 17.2254 84.5812 17.1449 85.1406 17.1449C85.5109 17.1449 85.9033 17.1891 86.3178 17.2777C86.7364 17.3622 87.1268 17.5192 87.489 17.7486C87.8552 17.978 88.1551 18.306 88.3885 18.7326C88.6219 19.1552 88.7386 19.7045 88.7386 20.3807V26.5383H86.9759V25.2706H86.9034C86.7867 25.504 86.6116 25.7334 86.3782 25.9588C86.1448 26.1842 85.8449 26.3713 85.4787 26.5202C85.1125 26.6691 84.6738 26.7436 84.1627 26.7436ZM84.5551 25.2947C85.0541 25.2947 85.4807 25.1961 85.8349 24.9989C86.1931 24.8017 86.4647 24.5441 86.6499 24.2262C86.839 23.9042 86.9336 23.5601 86.9336 23.1939V21.9986C86.8692 22.0629 86.7444 22.1233 86.5593 22.1797C86.3782 22.232 86.1709 22.2783 85.9375 22.3185C85.7041 22.3547 85.4767 22.3889 85.2553 22.4211C85.034 22.4493 84.8488 22.4735 84.6999 22.4936C84.3498 22.5379 84.0298 22.6123 83.7401 22.7169C83.4543 22.8216 83.2249 22.9725 83.0519 23.1697C82.8828 23.3629 82.7983 23.6205 82.7983 23.9424C82.7983 24.3892 82.9633 24.7272 83.2933 24.9566C83.6234 25.182 84.0439 25.2947 84.5551 25.2947ZM91.2877 26.5383V14.1747H93.0928V18.7688H93.2014C93.3061 18.5756 93.457 18.3522 93.6542 18.0987C93.8514 17.8451 94.1251 17.6238 94.4752 17.4346C94.8254 17.2415 95.2882 17.1449 95.8637 17.1449C96.6123 17.1449 97.2804 17.334 97.868 17.7123C98.4556 18.0906 98.9164 18.636 99.2504 19.3483C99.5885 20.0607 99.7576 20.9179 99.7576 21.9201C99.7576 22.9222 99.5905 23.7815 99.2565 24.4978C98.9224 25.2102 98.4636 25.7596 97.8801 26.1459C97.2965 26.5283 96.6304 26.7194 95.8818 26.7194C95.3184 26.7194 94.8576 26.6249 94.4994 26.4357C94.1452 26.2465 93.8675 26.0252 93.6663 25.7716C93.4651 25.5181 93.3101 25.2927 93.2014 25.0955H93.0505V26.5383H91.2877ZM93.0566 21.902C93.0566 22.554 93.1511 23.1254 93.3403 23.6165C93.5295 24.1075 93.8031 24.4918 94.1613 24.7695C94.5195 25.0432 94.9582 25.18 95.4774 25.18C96.0167 25.18 96.4674 25.0371 96.8296 24.7514C97.1919 24.4616 97.4655 24.0692 97.6507 23.5742C97.8398 23.0792 97.9344 22.5218 97.9344 21.902C97.9344 21.2902 97.8418 20.7409 97.6567 20.2539C97.4756 19.7669 97.2019 19.3826 96.8357 19.1008C96.4735 18.8191 96.0207 18.6782 95.4774 18.6782C94.9542 18.6782 94.5115 18.8131 94.1492 19.0827C93.7911 19.3524 93.5194 19.7287 93.3343 20.2116C93.1491 20.6946 93.0566 21.258 93.0566 21.902ZM103.589 14.1747V26.5383H101.784V14.1747H103.589ZM110.014 26.7255C109.101 26.7255 108.314 26.5303 107.654 26.1399C106.998 25.7455 106.491 25.1921 106.133 24.4797C105.778 23.7633 105.601 22.9242 105.601 21.9623C105.601 21.0125 105.778 20.1754 106.133 19.451C106.491 18.7265 106.99 18.1611 107.63 17.7546C108.274 17.3481 109.026 17.1449 109.888 17.1449C110.411 17.1449 110.918 17.2314 111.409 17.4044C111.9 17.5775 112.341 17.8492 112.731 18.2194C113.121 18.5897 113.429 19.0706 113.655 19.6623C113.88 20.2499 113.993 20.9642 113.993 21.8054V22.4453H106.622V21.093H112.224C112.224 20.6181 112.127 20.1975 111.934 19.8313C111.741 19.461 111.469 19.1692 111.119 18.9559C110.773 18.7426 110.366 18.636 109.9 18.636C109.392 18.636 108.95 18.7607 108.571 19.0103C108.197 19.2558 107.907 19.5777 107.702 19.9762C107.501 20.3706 107.4 20.7992 107.4 21.262V22.3185C107.4 22.9383 107.509 23.4655 107.726 23.9002C107.948 24.3348 108.256 24.6669 108.65 24.8963C109.044 25.1217 109.505 25.2343 110.032 25.2343C110.374 25.2343 110.686 25.1861 110.968 25.0895C111.25 24.9888 111.493 24.8399 111.699 24.6427C111.904 24.4455 112.061 24.202 112.169 23.9123L113.878 24.2201C113.741 24.7232 113.496 25.1639 113.141 25.5422C112.791 25.9165 112.351 26.2083 111.819 26.4176C111.292 26.6228 110.69 26.7255 110.014 26.7255ZM124.4 26.7255C123.531 26.7255 122.772 26.5263 122.124 26.1278C121.476 25.7294 120.973 25.172 120.615 24.4556C120.257 23.7392 120.078 22.9021 120.078 21.9442C120.078 20.9823 120.257 20.1412 120.615 19.4208C120.973 18.7004 121.476 18.141 122.124 17.7425C122.772 17.3441 123.531 17.1449 124.4 17.1449C125.27 17.1449 126.028 17.3441 126.676 17.7425C127.324 18.141 127.827 18.7004 128.185 19.4208C128.544 20.1412 128.723 20.9823 128.723 21.9442C128.723 22.9021 128.544 23.7392 128.185 24.4556C127.827 25.172 127.324 25.7294 126.676 26.1278C126.028 26.5263 125.27 26.7255 124.4 26.7255ZM124.406 25.2102C124.97 25.2102 125.437 25.0613 125.807 24.7635C126.177 24.4656 126.451 24.0692 126.628 23.5742C126.809 23.0792 126.9 22.5338 126.9 21.9382C126.9 21.3466 126.809 20.8032 126.628 20.3082C126.451 19.8092 126.177 19.4087 125.807 19.1069C125.437 18.805 124.97 18.6541 124.406 18.6541C123.839 18.6541 123.368 18.805 122.994 19.1069C122.623 19.4087 122.348 19.8092 122.167 20.3082C121.99 20.8032 121.901 21.3466 121.901 21.9382C121.901 22.5338 121.99 23.0792 122.167 23.5742C122.348 24.0692 122.623 24.4656 122.994 24.7635C123.368 25.0613 123.839 25.2102 124.406 25.2102ZM132.543 21.0326V26.5383H130.738V17.2656H132.47V18.7748H132.585C132.798 18.2838 133.132 17.8894 133.587 17.5916C134.046 17.2938 134.623 17.1449 135.32 17.1449C135.951 17.1449 136.505 17.2777 136.98 17.5433C137.455 17.8049 137.823 18.1953 138.085 18.7145C138.346 19.2336 138.477 19.8756 138.477 20.6402V26.5383H136.672V20.8576C136.672 20.1855 136.497 19.6602 136.147 19.2819C135.797 18.8996 135.316 18.7084 134.704 18.7084C134.285 18.7084 133.913 18.799 133.587 18.9801C133.265 19.1612 133.009 19.4268 132.82 19.777C132.635 20.1231 132.543 20.5416 132.543 21.0326Z" fill="#E8E8E8"/>
<path d="M144.936 26.5383V14.1747H150.092C151.018 14.1747 151.792 14.3055 152.416 14.5671C153.044 14.8287 153.515 15.1949 153.829 15.6658C154.147 16.1367 154.306 16.682 154.306 17.3018C154.306 17.7727 154.207 18.1933 154.01 18.5635C153.813 18.9298 153.541 19.2336 153.195 19.4751C152.849 19.7166 152.448 19.8856 151.994 19.9822V20.103C152.493 20.1271 152.953 20.2619 153.376 20.5074C153.803 20.7529 154.145 21.095 154.402 21.5337C154.66 21.9684 154.789 22.4835 154.789 23.0792C154.789 23.7432 154.62 24.3369 154.282 24.8601C153.944 25.3792 153.455 25.7897 152.815 26.0916C152.175 26.3894 151.398 26.5383 150.484 26.5383H144.936ZM147.925 24.1296H149.772C150.42 24.1296 150.897 24.0068 151.203 23.7613C151.513 23.5158 151.668 23.1737 151.668 22.7351C151.668 22.4171 151.593 22.1434 151.444 21.914C151.295 21.6806 151.084 21.5015 150.81 21.3767C150.537 21.248 150.209 21.1836 149.826 21.1836H147.925V24.1296ZM147.925 19.2578H149.579C149.905 19.2578 150.195 19.2035 150.448 19.0948C150.702 18.9861 150.899 18.8292 151.04 18.6239C151.185 18.4187 151.257 18.1711 151.257 17.8814C151.257 17.4668 151.11 17.1408 150.816 16.9034C150.523 16.6659 150.126 16.5472 149.627 16.5472H147.925V19.2578ZM162.208 22.5358V17.2656H165.154V26.5383H162.341V24.8118H162.244C162.039 25.3792 161.689 25.83 161.194 26.164C160.703 26.4941 160.109 26.6591 159.413 26.6591C158.781 26.6591 158.226 26.5142 157.747 26.2244C157.268 25.9346 156.896 25.5302 156.63 25.011C156.364 24.4878 156.23 23.876 156.226 23.1758V17.2656H159.178V22.5962C159.182 23.0993 159.314 23.4957 159.576 23.7855C159.838 24.0753 160.194 24.2201 160.645 24.2201C160.938 24.2201 161.202 24.1557 161.435 24.027C161.673 23.8941 161.86 23.703 161.997 23.4535C162.138 23.1999 162.208 22.894 162.208 22.5358ZM169.695 24.1054L169.707 20.5859H170.118L172.726 17.2656H176.07L172.195 22.0227H171.416L169.695 24.1054ZM167.033 26.5383V14.1747H169.985V26.5383H167.033ZM172.792 26.5383L170.366 22.6868L172.309 20.5919L176.203 26.5383H172.792ZM179.789 24.1054L179.801 20.5859H180.212L182.82 17.2656H186.164L182.288 22.0227H181.51L179.789 24.1054ZM177.127 26.5383V14.1747H180.079V26.5383H177.127ZM182.886 26.5383L180.459 22.6868L182.403 20.5919L186.297 26.5383H182.886ZM187.221 26.5383V17.2656H190.173V26.5383H187.221ZM188.7 16.185C188.285 16.185 187.929 16.0482 187.631 15.7745C187.333 15.4968 187.184 15.1627 187.184 14.7723C187.184 14.386 187.333 14.056 187.631 13.7823C187.929 13.5046 188.285 13.3657 188.7 13.3657C189.118 13.3657 189.474 13.5046 189.768 13.7823C190.066 14.056 190.215 14.386 190.215 14.7723C190.215 15.1627 190.066 15.4968 189.768 15.7745C189.474 16.0482 189.118 16.185 188.7 16.185ZM197.286 17.2656V19.4389H191.436V17.2656H197.286ZM192.661 15.044H195.613V23.6225C195.613 23.8036 195.642 23.9505 195.698 24.0632C195.758 24.1718 195.845 24.2503 195.958 24.2986C196.07 24.3429 196.205 24.365 196.362 24.365C196.475 24.365 196.593 24.355 196.718 24.3348C196.847 24.3107 196.944 24.2906 197.008 24.2745L197.455 26.4055C197.314 26.4458 197.115 26.4961 196.857 26.5564C196.604 26.6168 196.3 26.655 195.945 26.6711C195.253 26.7033 194.66 26.6228 194.165 26.4297C193.674 26.2325 193.297 25.9266 193.036 25.512C192.778 25.0975 192.653 24.5763 192.661 23.9485V15.044Z" fill="url(#paint1_linear_2_3374)"/>
</g>
</g>
<rect x="1.0707" y="1.10903" width="203.858" height="37.8585" rx="6.92857" stroke="white" stroke-opacity="0.15" stroke-width="2.14286"/>
<defs>
<filter id="filter0_d_2_3374" x="2.39899" y="0.437317" width="39.202" height="39.2019" filterUnits="userSpaceOnUse" color-interpolation-filters="sRGB">
<feFlood flood-opacity="0" result="BackgroundImageFix"/>
<feColorMatrix in="SourceAlpha" type="matrix" values="0 0 0 0 0 0 0 0 0 0 0 0 0 0 0 0 0 0 127 0" result="hardAlpha"/>
<feOffset/>
<feGaussianBlur stdDeviation="2.80014"/>
<feComposite in2="hardAlpha" operator="out"/>
<feColorMatrix type="matrix" values="0 0 0 0 0 0 0 0 0 0 0 0 0 0 0 0 0 0 0.25 0"/>
<feBlend mode="normal" in2="BackgroundImageFix" result="effect1_dropShadow_2_3374"/>
<feBlend mode="normal" in="SourceGraphic" in2="effect1_dropShadow_2_3374" result="shape"/>
</filter>
<filter id="filter1_d_2_3374" x="36.2864" y="3.82404" width="167.429" height="32.4286" filterUnits="userSpaceOnUse" color-interpolation-filters="sRGB">
<feFlood flood-opacity="0" result="BackgroundImageFix"/>
<feColorMatrix in="SourceAlpha" type="matrix" values="0 0 0 0 0 0 0 0 0 0 0 0 0 0 0 0 0 0 127 0" result="hardAlpha"/>
<feOffset/>
<feGaussianBlur stdDeviation="2.85714"/>
<feComposite in2="hardAlpha" operator="out"/>
<feColorMatrix type="matrix" values="0 0 0 0 0 0 0 0 0 0 0 0 0 0 0 0 0 0 0.25 0"/>
<feBlend mode="normal" in2="BackgroundImageFix" result="effect1_dropShadow_2_3374"/>
<feBlend mode="normal" in="SourceGraphic" in2="effect1_dropShadow_2_3374" result="shape"/>
</filter>
<linearGradient id="paint0_linear_2_3374" x1="103" y1="0.0375977" x2="103" y2="40.039" gradientUnits="userSpaceOnUse">
<stop stop-color="#342C18"/>
<stop offset="1" stop-color="#251A11"/>
</linearGradient>
<linearGradient id="paint1_linear_2_3374" x1="171.001" y1="9.53833" x2="171.001" y2="30.5383" gradientUnits="userSpaceOnUse">
<stop stop-color="white"/>
<stop offset="1" stop-color="#B9B9B9"/>
</linearGradient>
<clipPath id="clip0_2_3374">
<rect x="-0.000732422" y="0.0375977" width="206.001" height="40.0014" rx="8" fill="white"/>
</clipPath>
</defs>
</svg>
