<svg width="251" height="41" viewBox="0 0 251 41" fill="none" xmlns="http://www.w3.org/2000/svg">
<rect x="-0.000732422" y="0.0139771" width="251.001" height="40.0014" rx="8" fill="url(#paint0_linear_28_2623)"/>
<g filter="url(#filter0_d_28_2623)">
<path d="M32.6024 26.3073L32.5968 26.3618L32.5914 26.4216L32.5803 26.4761L32.5637 26.5305L32.553 26.5795L32.5364 26.6339L32.5143 26.6829L32.4922 26.7265L32.4704 26.7755L32.4428 26.819L32.4152 26.8626L32.3823 26.9061L32.3547 26.9496L32.3219 26.9877L32.2832 27.0258L32.2503 27.0585L32.2062 27.0966L32.1678 27.1293L32.1236 27.162L32.0797 27.1888L32.0358 27.2215L31.9861 27.2487L31.9366 27.2705L31.8873 27.2977L31.832 27.3195L31.777 27.3413L31.7221 27.3575L31.6672 27.3739L31.6175 27.3902L31.5625 27.4011L31.5131 27.412L31.4637 27.4229L31.4084 27.4338L31.3535 27.4392L31.3041 27.4447L31.2488 27.4501L31.1884 27.4556L31.1334 27.461H31.0785H31.018H30.9572H30.9023L30.8473 27.4556H30.7869L30.7319 27.4501L30.6767 27.4447L30.6163 27.4392L30.5613 27.4283L30.5064 27.4229L30.4511 27.412L30.3961 27.4011L30.3412 27.3902L30.2863 27.3793L30.2311 27.3631L30.1816 27.3521L30.1267 27.3358L30.0717 27.3195L30.0221 27.2977L29.9671 27.2813L29.9177 27.2651L29.8627 27.2433L29.813 27.2215L29.7636 27.1997L29.7142 27.1728L29.6645 27.151L29.615 27.1238L29.5712 27.0966L29.5214 27.0694L29.4775 27.0422L29.4333 27.015L29.3895 26.9823L29.3456 26.9496L29.3014 26.917L29.2574 26.8843L29.2188 26.8517L29.1749 26.8136L29.208 26.7701L29.2464 26.7319L29.2795 26.6883L29.3179 26.6448L29.3511 26.6067L29.3839 26.5632L29.4226 26.5196L29.4554 26.4815L29.4941 26.438L29.527 26.3999L29.5656 26.3563L29.5985 26.3127L29.6316 26.2747L29.67 26.2311L29.7031 26.1876L29.7415 26.1495L29.7746 26.1059L29.8185 26.1386L29.868 26.1713L29.9122 26.2039L29.9616 26.2366L30.0058 26.2638L30.0552 26.2964L30.099 26.3237L30.1488 26.3454L30.1927 26.3727L30.2421 26.3945L30.2918 26.4162L30.3412 26.438L30.3907 26.4543L30.4404 26.4761L30.4953 26.4924L30.5503 26.5087L30.5997 26.5251L30.655 26.536L30.7099 26.5469L30.7648 26.5577L30.8253 26.5632L30.8805 26.5741H30.9355L30.9959 26.5795H31.0509H31.1168L31.1773 26.5741L31.2326 26.5632L31.282 26.5523L31.3314 26.5414L31.3756 26.5251L31.414 26.5033L31.4582 26.4707L31.491 26.4325L31.5131 26.3889L31.5297 26.34L31.5352 26.2855V26.2747L31.5297 26.2093L31.5076 26.1549L31.4799 26.1168L31.4416 26.0842L31.3973 26.0515L31.3535 26.0298L31.3041 26.008L31.2488 25.9862L31.1828 25.959L31.1444 25.9481L31.1006 25.9372L31.0509 25.9208L31.0014 25.91L30.9465 25.8936L30.8912 25.8828L30.8308 25.8664L30.7758 25.8556L30.7154 25.8392L30.6604 25.8284L30.6052 25.812L30.5503 25.8011L30.4953 25.7848L30.4456 25.7685L30.3907 25.7576L30.3412 25.7412L30.2918 25.7249L30.2421 25.7086L30.1816 25.6868L30.1267 25.665L30.0717 25.6432L30.0165 25.6214L29.9671 25.5942L29.9122 25.567L29.868 25.5398L29.8185 25.5126L29.7746 25.48L29.7304 25.4528L29.6921 25.42L29.6535 25.382L29.615 25.3438L29.5819 25.3057L29.5491 25.2677L29.5214 25.2296L29.4941 25.186L29.4665 25.1371L29.4444 25.0993L29.4278 25.0557L29.4116 25.0067L29.395 24.9632L29.3839 24.9087L29.3729 24.8597L29.3673 24.8053L29.3618 24.7508L29.3563 24.691V24.6311V24.6202V24.5658L29.3618 24.5114L29.3673 24.4624L29.3729 24.4079L29.3839 24.359L29.395 24.31L29.4116 24.2609L29.4226 24.212L29.4444 24.163L29.4665 24.114L29.4886 24.0651L29.5159 24.016L29.5435 23.9671L29.5763 23.9235L29.6096 23.8799L29.6479 23.8364L29.6866 23.7983L29.725 23.7547L29.7691 23.7166L29.8075 23.6894L29.8517 23.6568L29.8956 23.6241L29.9395 23.5969L29.9892 23.5697L30.0386 23.5479L30.088 23.5207L30.1378 23.499L30.1927 23.4826L30.2476 23.4608L30.2973 23.4445L30.3412 23.4336L30.3907 23.4227L30.4404 23.4118L30.4953 23.401L30.5448 23.39L30.5997 23.3846L30.655 23.3792L30.7099 23.3737L30.7648 23.3683H30.8197H30.8805H30.941H31.0014L31.0619 23.3737L31.1224 23.3792H31.1773L31.2381 23.3846L31.293 23.3955L31.3535 23.401L31.4084 23.4118L31.4582 23.4227L31.5131 23.4336L31.568 23.4445L31.6175 23.4554L31.6727 23.4717L31.7221 23.488L31.7716 23.499L31.8268 23.5207L31.8762 23.537L31.9256 23.5588L31.975 23.5806L32.0303 23.6023L32.0797 23.6296L32.1236 23.6513L32.1733 23.6785L32.2228 23.7057L32.2666 23.733L32.3163 23.7657L32.3603 23.7928L32.4045 23.8255L32.4484 23.8582L32.4922 23.8908L32.4594 23.9344L32.4318 23.9779L32.3989 24.0215L32.3658 24.0651L32.333 24.114L32.3053 24.1575L32.2721 24.2011L32.2393 24.2447L32.2117 24.2882L32.1788 24.3318L32.1457 24.3753L32.118 24.4189L32.0852 24.4678L32.052 24.5114L32.0192 24.5549L31.9916 24.5984L31.9588 24.642L31.9146 24.6094L31.8652 24.5821L31.8212 24.5549L31.777 24.5222L31.7277 24.5005L31.6834 24.4733L31.634 24.4515L31.5902 24.4297L31.5404 24.4079L31.4965 24.3862L31.4471 24.3699L31.403 24.3481L31.3424 24.3318L31.2875 24.3154L31.2326 24.2991L31.1773 24.2882L31.1224 24.2773L31.0674 24.2664L31.0125 24.2609L30.9572 24.2555L30.9079 24.2501H30.8529H30.7869L30.7265 24.2609L30.6712 24.2719L30.6218 24.2827L30.5779 24.3045L30.5392 24.3263L30.4898 24.3699L30.4566 24.4189L30.4349 24.4678L30.4293 24.5222V24.5332L30.4349 24.6039L30.4622 24.6638L30.4843 24.6964L30.5226 24.7346L30.5724 24.7618L30.6163 24.789L30.6712 24.8108L30.7319 24.8326L30.798 24.8543L30.8419 24.8652L30.8857 24.8815L30.9355 24.8924L30.9849 24.9087L31.0398 24.9196L31.1006 24.936L31.1611 24.9522L31.2215 24.9686L31.282 24.9795L31.3369 24.9958L31.3973 25.0122L31.4526 25.023L31.5076 25.0394L31.5625 25.0557L31.6119 25.072L31.6672 25.0884L31.7166 25.1047L31.766 25.121L31.8268 25.1425L31.8817 25.1697L31.9366 25.1915L31.9916 25.2187L32.0413 25.2459L32.0908 25.2731L32.1346 25.3003L32.1788 25.333L32.2228 25.3602L32.2666 25.3983L32.3108 25.4364L32.3492 25.48L32.3878 25.518L32.4207 25.5616L32.4538 25.6106L32.4811 25.6541L32.5088 25.7032L32.5309 25.7467L32.5475 25.7956L32.5637 25.8446L32.5748 25.8936L32.5858 25.9481L32.5968 26.0026L32.6024 26.057L32.6079 26.1168V26.1767V26.1876V26.2475L32.6024 26.3073ZM28.7442 27.3957H28.6889H28.634H28.5791H28.5242H28.4689H28.4139H28.359H28.304H28.2433H28.1884H28.1334H28.0785H28.0232H27.9683H27.9133H27.8584H27.8031H27.7482H27.6933H27.6383H27.5834H27.5281H27.4732H27.4183H27.3633H27.308H27.2531H27.1982H27.1377H27.0825H27.0275H26.9726H26.9177H26.8624H26.8075H26.7525H26.6976H26.6423H26.5874H26.5325H26.4775H26.4222H26.3674H26.3124H26.2574H26.2022H26.1472H26.0868H26.0318H25.9769H25.9216H25.8667H25.8117H25.7569H25.7016H25.6467H25.5917V27.3413V27.2868V27.2324V27.1782V27.1238V27.0694V27.015V26.9606V26.9061V26.8517V26.7973V26.7428V26.6883V26.6339V26.5795V26.5251V26.4707V26.4162V26.3672V26.3127V26.2583V26.2039V26.1495V26.095V26.0406V25.9862V25.9317V25.8773V25.8229V25.7685V25.714V25.6596V25.6052V25.5507V25.4962V25.4418V25.3874V25.333V25.2786V25.2241V25.1697V25.1156V25.0612V25.0067V24.9522V24.8978V24.8434V24.789V24.7346V24.6801V24.6256V24.5712V24.5168V24.4624V24.4134V24.359V24.3045V24.2501V24.1957V24.1412V24.0868V24.0323V23.9779V23.9235V23.8691V23.8146V23.7601V23.7057V23.6513V23.5969V23.5425V23.488V23.4336H25.6467H25.7016H25.7569H25.8117H25.8667H25.9216H25.9769H26.0318H26.0868H26.1418H26.197H26.252H26.3068H26.3618H26.4115H26.4665H26.5214H26.5764H26.6316H26.6865H26.7414H26.7964H26.8516H26.9066H26.9615H27.0165H27.0718H27.1267H27.1816H27.2365H27.2918H27.3468H27.4017H27.4566H27.5116H27.5668H27.6218H27.6767H27.7316H27.7869H27.8418H27.8967H27.9517H28.0015H28.0564H28.1113H28.1663H28.2215H28.2764H28.3314H28.3863H28.4416H28.4965H28.5514H28.6064H28.6616H28.7166H28.7715V23.488V23.537V23.5914V23.6459V23.7003V23.7493V23.8037V23.8582V23.9071V23.9616V24.016V24.0651V24.1195V24.1739V24.2283V24.2773V24.3318H28.7166H28.6616H28.6064H28.5514H28.4965H28.4416H28.3918H28.3369H28.282H28.227H28.1718H28.1169H28.0619H28.0069H27.9517H27.8967H27.8418H27.7869H27.7316H27.6822H27.6273H27.5723H27.517H27.4622H27.4072H27.3523H27.297H27.2421H27.1872H27.1322H27.0769H27.022H26.9726H26.9177H26.8624H26.8075H26.7525H26.6976H26.6423V24.3862V24.4406V24.495V24.5494V24.6039V24.6529V24.7073V24.7618V24.8162V24.8706V24.925V24.9795H26.6976H26.7525H26.8075H26.8624H26.9177H26.9726H27.0275H27.0825H27.1322H27.1872H27.2421H27.297H27.3523H27.4072H27.4622H27.517H27.5723H27.6273H27.6822H27.7372H27.7924H27.8473H27.9023H27.9573H28.0125H28.0674H28.1169H28.1718H28.227H28.282H28.3369H28.3918H28.4471H28.502H28.557V25.0339V25.0829V25.1371V25.1915V25.2405V25.2949V25.3493V25.3983V25.4528V25.5072V25.5616V25.6106V25.665V25.7194V25.7685V25.8229H28.502H28.4471H28.3918H28.3369H28.282H28.227H28.1718H28.1169H28.0674H28.0125H27.9573H27.9023H27.8473H27.7924H27.7372H27.6822H27.6273H27.5723H27.517H27.4622H27.4072H27.3523H27.297H27.2421H27.1872H27.1322H27.0825H27.0275H26.9726H26.9177H26.8624H26.8075H26.7525H26.6976H26.6423V25.8773V25.9372V25.9916V26.0461V26.1059V26.1604V26.2148V26.2747V26.3291V26.3835V26.4434V26.4978H26.6976H26.7525H26.8075H26.8624H26.9177H26.9726H27.0275H27.0825H27.1377H27.1982H27.2531H27.308H27.3633H27.4183H27.4732H27.5281H27.5834H27.6383H27.6933H27.7482H27.8031H27.8584H27.9133H27.9683H28.0232H28.0785H28.1334H28.1884H28.2433H28.304H28.359H28.4139H28.4689H28.5242H28.5791H28.634H28.6889H28.7442H28.7991V26.5523V26.6013V26.6557V26.7101V26.7646V26.8136V26.868V26.9224V26.9714V27.0258V27.0802V27.1293V27.1834V27.2378V27.2922V27.3413V27.3957H28.7442ZM24.7244 27.3957H24.6695H24.6145H24.5538H24.4989H24.4439H24.389H24.3337H24.2788H24.2183H24.1634H24.1084H24.0532H23.9983H23.9433H23.8829H23.8276H23.7727H23.7177V27.3413V27.2868V27.2324V27.1779V27.1232V27.0688V27.0143V26.9598V26.9054V26.851V26.7966V26.7419V26.6874V26.633V26.5786V26.5241V26.4693V26.4149V26.3605V26.3061V26.2516V26.1972V26.1424V26.088V26.0336V25.9791V25.9247V25.8703V25.8155V25.761V25.7066V25.6522V25.5978V25.5434V25.4886V25.4342V25.3797V25.3253V25.2709V25.2161V25.1617V25.1072V25.0528L23.6901 25.0963L23.6573 25.1457L23.6296 25.1892L23.5968 25.2328L23.5692 25.2817L23.536 25.3253L23.5087 25.3689L23.481 25.4182L23.4482 25.4617L23.4206 25.5052L23.3875 25.5488L23.3602 25.5981L23.327 25.6417L23.2997 25.6852L23.272 25.7342L23.2389 25.778L23.2116 25.8216L23.1784 25.8706L23.1511 25.9141L23.118 25.9577L23.0907 26.007L23.063 26.0506L23.0299 26.0941L23.0026 26.1431L22.9694 26.1869L22.9421 26.2305L22.909 26.2741L22.8813 26.323L22.854 26.3668L22.8209 26.4104L22.7936 26.4594L22.7604 26.503L22.7328 26.5465L22.7 26.5959L22.6723 26.6394H22.6505L22.6174 26.5904L22.5897 26.5465L22.5569 26.4975L22.5293 26.454L22.4964 26.405L22.4688 26.3611L22.436 26.3121L22.4083 26.2685L22.3752 26.2196L22.3479 26.1761L22.3147 26.1267L22.2875 26.0832L22.2543 26.0342L22.2266 25.9907L22.1938 25.9413L22.1662 25.8978L22.1334 25.8488L22.1002 25.8053L22.0726 25.756L22.0397 25.7125L22.0121 25.6635L21.9793 25.6199L21.9517 25.5706L21.9188 25.527L21.8912 25.478L21.858 25.4345L21.8307 25.3855L21.7976 25.3416L21.7702 25.2927L21.7371 25.2491L21.7095 25.2001L21.6767 25.1566L21.6489 25.1072L21.6162 25.0637V25.1181V25.1726V25.227V25.2817V25.3362V25.3906V25.4451V25.4995V25.5542V25.6087V25.6577V25.7121V25.7665V25.821V25.8757V25.9302V25.9846V26.039V26.0934V26.1479V26.2026V26.2571V26.3115V26.3659V26.4204V26.4748V26.5296V26.584V26.6384V26.6928V26.7473V26.802V26.851V26.9054V26.9598V27.0143V27.0688V27.1232V27.1779V27.2324V27.2868V27.3413V27.3957H21.5612H21.506H21.451H21.3961H21.3412H21.286H21.231H21.176H21.1211H21.0658H21.0109H20.9559H20.901H20.8458H20.7909H20.7359H20.6809H20.6257H20.5708V27.3413V27.2868V27.2324V27.1782V27.1238V27.0694V27.015V26.9606V26.9061V26.8517V26.7973V26.7428V26.6883V26.6339V26.5795V26.5251V26.4707V26.4162V26.3672V26.3127V26.2583V26.2039V26.1495V26.095V26.0406V25.9862V25.9317V25.8773V25.8229V25.7685V25.714V25.6596V25.6052V25.5507V25.4962V25.4418V25.3874V25.333V25.2786V25.2241V25.1697V25.1156V25.0612V25.0067V24.9522V24.8978V24.8434V24.789V24.7346V24.6801V24.6256V24.5712V24.5168V24.4624V24.4134V24.359V24.3045V24.2501V24.1957V24.1412V24.0868V24.0323V23.9779V23.9235V23.8691V23.8146V23.7601V23.7057V23.6513V23.5969V23.5425V23.488V23.4336H20.6257H20.6809H20.7304H20.7853H20.8402H20.8955H20.9449H20.9998H21.0551H21.11H21.1595H21.2144H21.2697H21.3246H21.374H21.4289H21.4842H21.5392H21.5885H21.6435H21.6987L21.7261 23.4772L21.7537 23.5261L21.7865 23.5693L21.8141 23.6183L21.8418 23.6619L21.8691 23.7109L21.8967 23.7541L21.9296 23.8031L21.9571 23.8467L21.9848 23.8902L22.0121 23.9388L22.0397 23.9824L22.0726 24.0314L22.1002 24.075L22.1278 24.1236L22.1551 24.1671L22.1883 24.2107L22.216 24.2594L22.2432 24.3029L22.2708 24.3519L22.2982 24.3955L22.3313 24.4441L22.359 24.4877L22.3862 24.5366L22.4139 24.5799L22.4412 24.6234L22.4744 24.6724L22.502 24.716L22.5293 24.765L22.5569 24.8082L22.5842 24.8572L22.6174 24.9007L22.645 24.9494L22.6723 24.993L22.7 24.9494L22.7276 24.9007L22.7604 24.8572L22.788 24.8082L22.8153 24.765L22.843 24.716L22.8758 24.6724L22.9034 24.6234L22.9311 24.5799L22.9583 24.5366L22.9915 24.4877L23.0188 24.4441L23.0465 24.3955L23.074 24.3519L23.1069 24.3029L23.1345 24.2594L23.1622 24.2107L23.1894 24.1671L23.2172 24.1236L23.25 24.075L23.2776 24.0314L23.3052 23.9824L23.3326 23.9388L23.3657 23.8902L23.393 23.8467L23.4206 23.8031L23.4482 23.7541L23.481 23.7109L23.5087 23.6619L23.536 23.6183L23.5636 23.5693L23.5968 23.5261L23.6241 23.4772L23.6517 23.4336H23.7066H23.7616H23.8113H23.8663H23.9212H23.9761H24.0259H24.0809H24.1357H24.1907H24.2404H24.2954H24.3503H24.4053H24.4549H24.5099H24.5648H24.6198H24.6695H24.7244H24.7793V23.488V23.5425V23.5969V23.6513V23.7057V23.7601V23.8146V23.8691V23.9235V23.9779V24.0323V24.0868V24.1412V24.1957V24.2501V24.3045V24.359V24.4134V24.4624V24.5168V24.5712V24.6256V24.6801V24.7346V24.789V24.8434V24.8978V24.9522V25.0067V25.0612V25.1156V25.1697V25.2241V25.2786V25.333V25.3874V25.4418V25.4962V25.5507V25.6052V25.6596V25.714V25.7685V25.8229V25.8773V25.9317V25.9862V26.0406V26.095V26.1495V26.2039V26.2583V26.3127V26.3672V26.4162V26.4707V26.5251V26.5795V26.6339V26.6883V26.7428V26.7973V26.8517V26.9061V26.9606V27.015V27.0694V27.1238V27.1782V27.2324V27.2868V27.3413V27.3957H24.7244ZM18.3411 25.763L18.3246 25.7137L18.3028 25.6593L18.2807 25.6103L18.2641 25.561L18.2423 25.512L18.2203 25.4575L18.2036 25.4082L18.1815 25.3592L18.1598 25.3103L18.1432 25.261L18.121 25.2065L18.1048 25.1575L18.0827 25.1082L18.0606 25.0592L18.044 25.0102L18.0222 24.9555L18.0002 24.9065L17.9836 24.8575L17.9615 24.8082L17.9397 24.7538L17.9231 24.7045L17.901 24.6555L17.8792 24.7045L17.8627 24.7538L17.8406 24.8082L17.8184 24.8575L17.8022 24.9065L17.7801 24.9555L17.758 25.0102L17.7362 25.0592L17.7196 25.1082L17.6975 25.1575L17.6754 25.2065L17.6591 25.261L17.637 25.3103L17.6149 25.3592L17.5984 25.4082L17.5766 25.4575L17.5544 25.512L17.5324 25.561L17.5162 25.6103L17.494 25.6593L17.4719 25.7137L17.4553 25.763L17.4336 25.812H17.4885H17.5434H17.5984H17.6536H17.7085H17.7635H17.8184H17.8737H17.9231H17.978H18.0333H18.0882H18.1432H18.1981H18.2531H18.3083H18.3632L18.3411 25.763ZM20.0689 27.3957H20.0137H19.9642H19.9093H19.854H19.7991H19.7441H19.6947H19.6394H19.5845H19.5296H19.4746H19.4194H19.37H19.315H19.2601H19.2048H19.1499H19.1005H19.0456H18.9903L18.9685 27.3467L18.9519 27.2977L18.9299 27.2487L18.9077 27.1943L18.8915 27.1456L18.8694 27.0966L18.8473 27.0476L18.831 26.9986L18.8089 26.9496L18.7868 26.9007L18.7703 26.8517L18.7485 26.7973L18.7263 26.7483L18.7097 26.6993L18.6876 26.6503H18.6327H18.5778H18.5229H18.4679H18.4182H18.3632H18.3083H18.2531H18.1981H18.1432H18.0882H18.0333H17.978H17.9231H17.8737H17.8184H17.7635H17.7085H17.6536H17.5984H17.5434H17.4885H17.4336H17.3787H17.3288H17.274H17.219H17.1637H17.1088L17.087 26.6993L17.0705 26.7483L17.0483 26.7973L17.0263 26.8517L17.01 26.9007L16.9879 26.9496L16.9658 26.9986L16.9492 27.0476L16.9275 27.0966L16.9053 27.1456L16.8887 27.1943L16.8669 27.2487L16.8449 27.2977L16.8283 27.3467L16.8061 27.3957H16.7512H16.6963H16.6414H16.5861H16.5312H16.4707H16.4158H16.3608H16.3056H16.2507H16.1957H16.1408H16.0855H16.0306H15.9757H15.9152H15.8599H15.805H15.75H15.6951L15.7169 27.3467L15.739 27.2977L15.7611 27.2487L15.7829 27.1943L15.7995 27.1456L15.8216 27.0966L15.8437 27.0476L15.8654 26.9986L15.8875 26.9496L15.9097 26.8952L15.9314 26.8462L15.9536 26.7973L15.9701 26.7483L15.9922 26.6993L16.014 26.6503L16.0361 26.5959L16.0582 26.5469L16.08 26.4978L16.1021 26.4489L16.1242 26.3999L16.1408 26.3509L16.1625 26.2964L16.1846 26.2475L16.2068 26.1985L16.2285 26.1495L16.2507 26.1005L16.2728 26.0515L16.2945 25.997L16.3111 25.9481L16.3333 25.8991L16.3553 25.8501L16.3771 25.8011L16.3992 25.7521L16.4213 25.6977L16.4431 25.6487L16.4652 25.5997L16.4817 25.5507L16.5039 25.5018L16.5256 25.4528L16.5478 25.3983L16.5699 25.3493L16.5916 25.3003L16.6137 25.2513L16.6358 25.2024L16.6524 25.1533L16.6742 25.1047L16.6963 25.0502L16.7184 25.0013L16.7402 24.9522L16.7623 24.9032L16.7844 24.8543L16.8061 24.8053L16.8227 24.7508L16.8449 24.7019L16.8669 24.6529L16.8887 24.6039L16.9109 24.5549L16.9329 24.5059L16.9548 24.4515L16.9768 24.4025L16.9934 24.3535L17.0155 24.3045L17.0373 24.2555L17.0594 24.2065L17.0815 24.1521L17.1032 24.1031L17.1254 24.0541L17.1475 24.0051L17.1637 23.9562L17.1858 23.9071L17.208 23.8527L17.2301 23.8037L17.2519 23.7547L17.274 23.7057L17.2961 23.6568L17.3178 23.6078L17.3345 23.5534L17.3565 23.5044L17.3787 23.4554L17.4004 23.4064H17.4553H17.5051H17.56H17.6149H17.6702H17.7196H17.7745H17.8295H17.8848H17.9342H17.9891H18.044H18.0993H18.1487H18.2036H18.2585H18.3138H18.3632H18.4182L18.4403 23.4554L18.4624 23.5044L18.4842 23.5534L18.5063 23.6078L18.5229 23.6568L18.5446 23.7057L18.5667 23.7547L18.5888 23.8037L18.6109 23.8527L18.6327 23.9071L18.6548 23.9562L18.677 24.0051L18.6932 24.0541L18.7153 24.1031L18.7374 24.1521L18.7596 24.2065L18.7813 24.2555L18.8034 24.3045L18.8255 24.3535L18.8473 24.4025L18.8638 24.4515L18.8859 24.5059L18.9077 24.5549L18.9299 24.6039L18.9519 24.6529L18.9741 24.7019L18.9958 24.7508L19.0179 24.8053L19.0345 24.8543L19.0563 24.9032L19.0783 24.9522L19.1005 25.0013L19.1226 25.0502L19.1444 25.1047L19.1665 25.1533L19.1886 25.2024L19.2048 25.2513L19.2269 25.3003L19.249 25.3493L19.2708 25.3983L19.2929 25.4528L19.315 25.5018L19.3372 25.5507L19.3589 25.5997L19.3755 25.6487L19.3976 25.6977L19.4194 25.7521L19.4415 25.8011L19.4636 25.8501L19.4857 25.8991L19.5075 25.9481L19.5296 25.997L19.5461 26.0515L19.5679 26.1005L19.59 26.1495L19.6121 26.1985L19.6339 26.2475L19.656 26.2964L19.6782 26.3509L19.7003 26.3999L19.7165 26.4489L19.7386 26.4978L19.7608 26.5469L19.7825 26.5959L19.8046 26.6503L19.8267 26.6993L19.8488 26.7483L19.8705 26.7973L19.8872 26.8462L19.9093 26.8952L19.9311 26.9496L19.9531 26.9986L19.9752 27.0476L19.997 27.0966L20.0191 27.1456L20.0412 27.1943L20.0579 27.2487L20.0796 27.2977L20.1017 27.3467L20.1237 27.3957H20.0689ZM15.2491 26.8897L15.205 26.9224L15.1666 26.9496L15.1224 26.9823L15.0785 27.0095L15.0346 27.0422L14.9904 27.0694L14.9465 27.0966L14.8968 27.1238L14.8473 27.151L14.7979 27.1782L14.7482 27.1997L14.6988 27.2269L14.6439 27.2487L14.5945 27.2705L14.5392 27.2922L14.4898 27.314L14.4403 27.3303L14.3906 27.3467L14.3412 27.3631L14.2863 27.3793L14.2369 27.3957L14.1816 27.4066L14.1322 27.4175L14.0773 27.4283L14.022 27.4392L13.9671 27.4447L13.9066 27.4501L13.8517 27.4556L13.7912 27.461L13.7359 27.4665L13.6755 27.4719H13.615H13.5545H13.4941H13.4388L13.3839 27.4665L13.3234 27.461L13.2685 27.4556L13.2136 27.4501L13.1583 27.4447L13.1034 27.4338L13.0484 27.4229L12.999 27.412L12.9438 27.4011L12.8944 27.3848L12.8394 27.3739L12.7897 27.3575L12.7403 27.3358L12.6908 27.3195L12.636 27.2977L12.5862 27.2759L12.5368 27.2542L12.4874 27.2324L12.4376 27.2052L12.3938 27.1782L12.3443 27.151L12.3002 27.1238L12.2563 27.0966L12.2121 27.0639L12.1682 27.0313L12.1242 26.9986L12.0856 26.966L12.0472 26.9333L12.0085 26.8952L11.9702 26.8626L11.9315 26.8245L11.8931 26.7863L11.86 26.7483L11.8271 26.7047L11.794 26.6666L11.7664 26.6231L11.7335 26.5795L11.706 26.536L11.6786 26.4924L11.651 26.4434L11.6234 26.3999L11.6016 26.3509L11.5795 26.3019L11.5574 26.2529L11.5356 26.2039L11.519 26.1604L11.4969 26.1114L11.4858 26.0624L11.4696 26.0134L11.4585 25.959L11.442 25.91L11.4309 25.8556L11.4254 25.8066L11.4143 25.7521L11.4088 25.7032L11.4032 25.6487L11.3981 25.5942L11.3926 25.5398V25.48V25.4255V25.4146V25.3602L11.3981 25.3003V25.2459L11.4032 25.1915L11.4088 25.1316L11.4199 25.0775L11.4254 25.023L11.4364 24.974L11.453 24.9196L11.4641 24.8652L11.4803 24.8162L11.4969 24.7618L11.5135 24.7128L11.5356 24.6583L11.5574 24.6094L11.5795 24.5604L11.6016 24.5114L11.6234 24.4624L11.651 24.4134L11.6786 24.3699L11.706 24.3263L11.7335 24.2827L11.7612 24.2392L11.794 24.1957L11.8271 24.1521L11.86 24.1086L11.8931 24.0704L11.9315 24.0323L11.9646 23.9942L12.0031 23.9562L12.0417 23.918L12.08 23.8854L12.1242 23.8473L12.1626 23.8146L12.2065 23.7819L12.2507 23.7547L12.2946 23.7221L12.3389 23.6949L12.3827 23.6677L12.4321 23.6404L12.4819 23.6132L12.5312 23.586L12.5807 23.5642L12.6304 23.5425L12.6853 23.5152L12.7292 23.499L12.7841 23.4826L12.8339 23.4608L12.8833 23.4499L12.9327 23.4336L12.9879 23.4227L13.0374 23.4064L13.0923 23.3955L13.1473 23.39L13.2025 23.3792L13.2575 23.3737L13.3123 23.3683L13.3673 23.3628L13.4226 23.3574H13.4831H13.538H13.5984H13.6589L13.7197 23.3628L13.7802 23.3683H13.8351L13.89 23.3737L13.9505 23.3846L14.0002 23.39L14.0551 23.401L14.1101 23.4118L14.1598 23.4227L14.2092 23.4336L14.2587 23.4445L14.3084 23.4608L14.3578 23.4717L14.4017 23.488L14.4514 23.5044L14.5008 23.5261L14.5502 23.5479L14.6 23.5697L14.6494 23.5969L14.6988 23.6187L14.743 23.6459L14.7924 23.6731L14.8363 23.7003L14.886 23.7275L14.9299 23.7601L14.9738 23.7874L15.018 23.8201L15.0619 23.8527L15.1061 23.8908L15.15 23.9235L15.1168 23.9671L15.0785 24.0051L15.0453 24.0487L15.007 24.0922L14.9738 24.1358L14.941 24.1739L14.9022 24.2174L14.8695 24.2609L14.8363 24.2991L14.7979 24.3427L14.7648 24.3862L14.7264 24.4297L14.6932 24.4678L14.6604 24.5114L14.6218 24.5549L14.5889 24.5984L14.5502 24.6366L14.5174 24.6801L14.4732 24.6474L14.4293 24.6094L14.3851 24.5821L14.3412 24.5494L14.2973 24.5222L14.2531 24.495L14.2092 24.4678L14.1598 24.4406L14.1156 24.4189L14.0717 24.3971L14.0275 24.3807L13.9781 24.3644L13.9287 24.3481L13.879 24.3372L13.8241 24.3263L13.7691 24.3154L13.7141 24.31L13.6537 24.3045L13.5929 24.2991H13.5324H13.4775L13.4226 24.3045L13.3729 24.31L13.3179 24.3209L13.2685 24.3318L13.2188 24.3481L13.1694 24.3644L13.1199 24.3862L13.0705 24.4079L13.0263 24.4351L12.9825 24.4624L12.9382 24.4896L12.8999 24.5222L12.8612 24.5549L12.8228 24.5876L12.7897 24.6256L12.7513 24.6638L12.7182 24.7073L12.6908 24.7454L12.6632 24.789L12.636 24.838L12.6083 24.8815L12.5862 24.9305L12.5696 24.9795L12.5478 25.0285L12.5312 25.0829L12.5202 25.1371L12.5092 25.186L12.4981 25.2459L12.4926 25.3003L12.4874 25.3547V25.4146V25.4255V25.48L12.4926 25.5344L12.4981 25.5834L12.5036 25.6378L12.5147 25.6868L12.5257 25.7358L12.5368 25.7848L12.5534 25.8338L12.5696 25.8773L12.5918 25.9317L12.6138 25.9808L12.6411 26.0298L12.6688 26.0733L12.6964 26.1168L12.7292 26.1604L12.7624 26.1985L12.8007 26.2366L12.8339 26.2747L12.8722 26.3073L12.9165 26.34L12.9604 26.3727L13.0042 26.3999L13.0484 26.4271L13.0979 26.4489L13.1473 26.4707L13.1969 26.4924L13.2519 26.5087L13.3068 26.5251L13.3621 26.536L13.4171 26.5469L13.472 26.5523L13.5324 26.5577H13.5929H13.6589L13.7197 26.5523L13.7802 26.5469L13.8351 26.5414L13.89 26.5305L13.9453 26.5196L14.0002 26.5033L14.0496 26.4924L14.0991 26.4707L14.1433 26.4489L14.1927 26.4271L14.2313 26.4053L14.2753 26.3781V26.3237V26.2693V26.2148V26.1604V26.1005V26.0461V25.9916V25.9372V25.8828H14.2203H14.1706H14.1156H14.0607H14.0058H13.956H13.901H13.8461H13.7912H13.7415H13.6865H13.6316H13.5766H13.527H13.472V25.8284V25.7794V25.7249V25.6705V25.616V25.567V25.5126V25.4582V25.4038V25.3547V25.3003V25.2459V25.1915V25.1425V25.0884H13.527H13.5822H13.6372H13.692H13.747H13.8019H13.8572H13.9121H13.9671H14.022H14.0773H14.1322H14.1871H14.242H14.2973H14.3523H14.4072H14.4621H14.5174H14.5723H14.6273H14.6822H14.7374H14.7924H14.8473H14.9022H14.9575H15.0125H15.0674H15.1224H15.1776H15.2325H15.2875V25.1425V25.1969V25.2513V25.3003V25.3547V25.4092V25.4636V25.518V25.5725V25.6214V25.6759V25.7304V25.7848V25.8392V25.8936V25.9481V25.997V26.0515V26.1059V26.1604V26.2148V26.2693V26.3237V26.3727V26.4271V26.4815V26.536V26.5904V26.6448V26.6939V26.7483V26.8027V26.8571L15.2491 26.8897Z" fill="white"/>
<path d="M13.4803 14.4688H15.8647V12.6521H13.4803V8.94321H15.9597V7.12649H11.4556V20.238H15.9974V18.4213H13.4803V14.4688Z" fill="white"/>
<path d="M30.5583 14.8624V17.8219C30.5583 18.3464 30.3122 18.5898 29.8015 18.5898H29.4228C28.893 18.5898 28.6469 18.3464 28.6469 17.8219V9.54264C28.6469 9.01818 28.893 8.77483 29.4228 8.77483H29.7635C30.2745 8.77483 30.5206 9.01818 30.5206 9.54264V12.109H32.5074V9.43025C32.5074 7.80084 31.7126 7.01409 30.0665 7.01409H29.0822C27.4361 7.01409 26.6221 7.81942 26.6221 9.44914V17.9154C26.6221 19.5452 27.4361 20.3505 29.0822 20.3505H30.0853C31.7318 20.3505 32.5454 19.5452 32.5454 17.9154V14.8624H30.5583Z" fill="white"/>
<path d="M23.5269 20.238H25.5519V7.12643H23.5269V20.238Z" fill="white"/>
<path d="M20.5885 12.9517C20.5885 13.4762 20.3428 13.7199 19.8318 13.7199H18.999V8.88718H19.8318C20.3428 8.88718 20.5885 9.13058 20.5885 9.65498V12.9517ZM20.1533 7.12643H16.9741V20.238H18.999V15.4803H20.1533C21.7997 15.4803 22.6134 14.675 22.6134 13.0456V9.56148C22.6134 7.93176 21.7997 7.12643 20.1533 7.12643Z" fill="white"/>
<path fill-rule="evenodd" clip-rule="evenodd" d="M16.2314 32.0935H27.8229L21.9064 34.0154L16.2314 32.0935Z" fill="white"/>
</g>
<g filter="url(#filter1_d_28_2623)">
<path d="M44.4034 26.5147H42.4233L46.8725 14.151H49.0277L53.4769 26.5147H51.4968L48.0014 16.3968H47.9049L44.4034 26.5147ZM44.7355 21.6731H51.1588V23.2427H44.7355V21.6731ZM61.8879 17.2419L58.5253 26.5147H56.5935L53.2249 17.2419H55.1627L57.5111 24.3776H57.6077L59.95 17.2419H61.8879ZM66.0171 26.7199C65.4296 26.7199 64.8983 26.6113 64.4234 26.3939C63.9485 26.1726 63.5722 25.8526 63.2945 25.4341C63.0208 25.0155 62.884 24.5024 62.884 23.8946C62.884 23.3714 62.9846 22.9408 63.1858 22.6027C63.3871 22.2647 63.6587 21.997 64.0008 21.7998C64.3429 21.6026 64.7252 21.4537 65.1478 21.3531C65.5704 21.2525 66.0011 21.176 66.4397 21.1237C66.9951 21.0593 67.4459 21.007 67.792 20.9667C68.1381 20.9225 68.3897 20.852 68.5466 20.7554C68.7036 20.6589 68.7821 20.5019 68.7821 20.2846V20.2423C68.7821 19.7151 68.6332 19.3066 68.3353 19.0168C68.0415 18.727 67.6028 18.5821 67.0193 18.5821C66.4116 18.5821 65.9326 18.717 65.5825 18.9866C65.2364 19.2522 64.9969 19.5481 64.8641 19.8741L63.1677 19.4877C63.3689 18.9242 63.6627 18.4695 64.0491 18.1233C64.4395 17.7732 64.8882 17.5196 65.3953 17.3627C65.9024 17.2017 66.4357 17.1212 66.9951 17.1212C67.3654 17.1212 67.7578 17.1655 68.1723 17.254C68.5909 17.3385 68.9813 17.4955 69.3435 17.7249C69.7097 17.9543 70.0096 18.2823 70.243 18.7089C70.4764 19.1315 70.5931 19.6809 70.5931 20.357V26.5147H68.8304V25.2469H68.7579C68.6412 25.4803 68.4661 25.7097 68.2327 25.9351C67.9993 26.1605 67.6994 26.3477 67.3332 26.4966C66.967 26.6455 66.5283 26.7199 66.0171 26.7199ZM66.4095 25.2711C66.9086 25.2711 67.3352 25.1725 67.6894 24.9753C68.0476 24.7781 68.3192 24.5205 68.5044 24.2025C68.6935 23.8806 68.7881 23.5365 68.7881 23.1702V21.9749C68.7237 22.0393 68.5989 22.0997 68.4138 22.156C68.2327 22.2083 68.0254 22.2546 67.792 22.2949C67.5586 22.3311 67.3312 22.3653 67.1098 22.3975C66.8885 22.4257 66.7033 22.4498 66.5544 22.4699C66.2043 22.5142 65.8843 22.5887 65.5946 22.6933C65.3088 22.7979 65.0794 22.9489 64.9064 23.1461C64.7373 23.3392 64.6528 23.5968 64.6528 23.9188C64.6528 24.3655 64.8178 24.7036 65.1478 24.933C65.4779 25.1584 65.8984 25.2711 66.4095 25.2711ZM72.9973 26.5147V17.2419H74.8024V26.5147H72.9973ZM73.9089 15.8112C73.595 15.8112 73.3254 15.7066 73.1 15.4973C72.8786 15.284 72.7679 15.0304 72.7679 14.7366C72.7679 14.4388 72.8786 14.1853 73.1 13.976C73.3254 13.7627 73.595 13.656 73.9089 13.656C74.2228 13.656 74.4905 13.7627 74.7118 13.976C74.9372 14.1853 75.0499 14.4388 75.0499 14.7366C75.0499 15.0304 74.9372 15.284 74.7118 15.4973C74.4905 15.7066 74.2228 15.8112 73.9089 15.8112ZM79.0358 14.151V26.5147H77.2307V14.151H79.0358ZM84.1627 26.7199C83.5751 26.7199 83.0438 26.6113 82.5689 26.3939C82.094 26.1726 81.7177 25.8526 81.44 25.4341C81.1663 25.0155 81.0295 24.5024 81.0295 23.8946C81.0295 23.3714 81.1301 22.9408 81.3313 22.6027C81.5326 22.2647 81.8042 21.997 82.1463 21.7998C82.4884 21.6026 82.8707 21.4537 83.2933 21.3531C83.7159 21.2525 84.1466 21.176 84.5852 21.1237C85.1406 21.0593 85.5914 21.007 85.9375 20.9667C86.2836 20.9225 86.5352 20.852 86.6921 20.7554C86.8491 20.6589 86.9276 20.5019 86.9276 20.2846V20.2423C86.9276 19.7151 86.7787 19.3066 86.4808 19.0168C86.187 18.727 85.7484 18.5821 85.1648 18.5821C84.5571 18.5821 84.0781 18.717 83.728 18.9866C83.3819 19.2522 83.1424 19.5481 83.0096 19.8741L81.3132 19.4877C81.5145 18.9242 81.8082 18.4695 82.1946 18.1233C82.585 17.7732 83.0337 17.5196 83.5408 17.3627C84.048 17.2017 84.5812 17.1212 85.1406 17.1212C85.5109 17.1212 85.9033 17.1655 86.3178 17.254C86.7364 17.3385 87.1268 17.4955 87.489 17.7249C87.8552 17.9543 88.1551 18.2823 88.3885 18.7089C88.6219 19.1315 88.7386 19.6809 88.7386 20.357V26.5147H86.9759V25.2469H86.9034C86.7867 25.4803 86.6116 25.7097 86.3782 25.9351C86.1448 26.1605 85.8449 26.3477 85.4787 26.4966C85.1125 26.6455 84.6738 26.7199 84.1627 26.7199ZM84.5551 25.2711C85.0541 25.2711 85.4807 25.1725 85.8349 24.9753C86.1931 24.7781 86.4647 24.5205 86.6499 24.2025C86.839 23.8806 86.9336 23.5365 86.9336 23.1702V21.9749C86.8692 22.0393 86.7444 22.0997 86.5593 22.156C86.3782 22.2083 86.1709 22.2546 85.9375 22.2949C85.7041 22.3311 85.4767 22.3653 85.2553 22.3975C85.034 22.4257 84.8488 22.4498 84.6999 22.4699C84.3498 22.5142 84.0298 22.5887 83.7401 22.6933C83.4543 22.7979 83.2249 22.9489 83.0519 23.1461C82.8828 23.3392 82.7983 23.5968 82.7983 23.9188C82.7983 24.3655 82.9633 24.7036 83.2933 24.933C83.6234 25.1584 84.0439 25.2711 84.5551 25.2711ZM91.2877 26.5147V14.151H93.0928V18.7451H93.2014C93.3061 18.552 93.457 18.3286 93.6542 18.075C93.8514 17.8215 94.1251 17.6001 94.4752 17.411C94.8254 17.2178 95.2882 17.1212 95.8637 17.1212C96.6123 17.1212 97.2804 17.3104 97.868 17.6887C98.4556 18.067 98.9164 18.6123 99.2504 19.3247C99.5885 20.037 99.7576 20.8943 99.7576 21.8964C99.7576 22.8986 99.5905 23.7578 99.2565 24.4742C98.9224 25.1865 98.4636 25.7359 97.8801 26.1223C97.2965 26.5046 96.6304 26.6958 95.8818 26.6958C95.3184 26.6958 94.8576 26.6012 94.4994 26.412C94.1452 26.2229 93.8675 26.0015 93.6663 25.748C93.4651 25.4944 93.3101 25.2691 93.2014 25.0718H93.0505V26.5147H91.2877ZM93.0566 21.8783C93.0566 22.5303 93.1511 23.1018 93.3403 23.5928C93.5295 24.0838 93.8031 24.4682 94.1613 24.7459C94.5195 25.0195 94.9582 25.1564 95.4774 25.1564C96.0167 25.1564 96.4674 25.0135 96.8296 24.7277C97.1919 24.438 97.4655 24.0456 97.6507 23.5505C97.8398 23.0555 97.9344 22.4981 97.9344 21.8783C97.9344 21.2666 97.8418 20.7172 97.6567 20.2302C97.4756 19.7433 97.2019 19.3589 96.8357 19.0772C96.4735 18.7955 96.0207 18.6546 95.4774 18.6546C94.9542 18.6546 94.5115 18.7894 94.1492 19.0591C93.7911 19.3287 93.5194 19.705 93.3343 20.188C93.1491 20.6709 93.0566 21.2344 93.0566 21.8783ZM103.589 14.151V26.5147H101.784V14.151H103.589ZM110.014 26.7018C109.101 26.7018 108.314 26.5066 107.654 26.1162C106.998 25.7218 106.491 25.1684 106.133 24.4561C105.778 23.7397 105.601 22.9006 105.601 21.9387C105.601 20.9889 105.778 20.1517 106.133 19.4273C106.491 18.7029 106.99 18.1374 107.63 17.7309C108.274 17.3245 109.026 17.1212 109.888 17.1212C110.411 17.1212 110.918 17.2077 111.409 17.3808C111.9 17.5539 112.341 17.8255 112.731 18.1958C113.121 18.566 113.429 19.047 113.655 19.6386C113.88 20.2262 113.993 20.9406 113.993 21.7817V22.4216H106.622V21.0694H112.224C112.224 20.5945 112.127 20.1739 111.934 19.8076C111.741 19.4374 111.469 19.1456 111.119 18.9323C110.773 18.719 110.366 18.6123 109.9 18.6123C109.392 18.6123 108.95 18.7371 108.571 18.9866C108.197 19.2321 107.907 19.5541 107.702 19.9525C107.501 20.3469 107.4 20.7756 107.4 21.2384V22.2949C107.4 22.9147 107.509 23.4419 107.726 23.8765C107.948 24.3112 108.256 24.6432 108.65 24.8726C109.044 25.098 109.505 25.2107 110.032 25.2107C110.374 25.2107 110.686 25.1624 110.968 25.0658C111.25 24.9652 111.493 24.8163 111.699 24.6191C111.904 24.4219 112.061 24.1784 112.169 23.8886L113.878 24.1965C113.741 24.6996 113.496 25.1403 113.141 25.5186C112.791 25.8929 112.351 26.1847 111.819 26.3939C111.292 26.5992 110.69 26.7018 110.014 26.7018ZM124.4 26.7018C123.531 26.7018 122.772 26.5026 122.124 26.1042C121.476 25.7057 120.973 25.1483 120.615 24.4319C120.257 23.7156 120.078 22.8784 120.078 21.9206C120.078 20.9587 120.257 20.1175 120.615 19.3971C120.973 18.6767 121.476 18.1173 122.124 17.7189C122.772 17.3204 123.531 17.1212 124.4 17.1212C125.27 17.1212 126.028 17.3204 126.676 17.7189C127.324 18.1173 127.827 18.6767 128.185 19.3971C128.544 20.1175 128.723 20.9587 128.723 21.9206C128.723 22.8784 128.544 23.7156 128.185 24.4319C127.827 25.1483 127.324 25.7057 126.676 26.1042C126.028 26.5026 125.27 26.7018 124.4 26.7018ZM124.406 25.1865C124.97 25.1865 125.437 25.0376 125.807 24.7398C126.177 24.442 126.451 24.0456 126.628 23.5505C126.809 23.0555 126.9 22.5102 126.9 21.9145C126.9 21.3229 126.809 20.7796 126.628 20.2846C126.451 19.7855 126.177 19.3851 125.807 19.0832C125.437 18.7814 124.97 18.6304 124.406 18.6304C123.839 18.6304 123.368 18.7814 122.994 19.0832C122.623 19.3851 122.348 19.7855 122.167 20.2846C121.99 20.7796 121.901 21.3229 121.901 21.9145C121.901 22.5102 121.99 23.0555 122.167 23.5505C122.348 24.0456 122.623 24.442 122.994 24.7398C123.368 25.0376 123.839 25.1865 124.406 25.1865ZM132.543 21.009V26.5147H130.738V17.2419H132.47V18.7512H132.585C132.798 18.2602 133.132 17.8658 133.587 17.5679C134.046 17.2701 134.623 17.1212 135.32 17.1212C135.951 17.1212 136.505 17.254 136.98 17.5196C137.455 17.7812 137.823 18.1716 138.085 18.6908C138.346 19.21 138.477 19.8519 138.477 20.6166V26.5147H136.672V20.8339C136.672 20.1618 136.497 19.6366 136.147 19.2583C135.797 18.8759 135.316 18.6848 134.704 18.6848C134.285 18.6848 133.913 18.7753 133.587 18.9564C133.265 19.1375 133.009 19.4032 132.82 19.7533C132.635 20.0994 132.543 20.518 132.543 21.009Z" fill="#E8E8E8"/>
<path d="M144.936 26.5147V14.151H153.557V16.5779H147.925V19.1134H153.116V21.5463H147.925V24.0878H153.557V26.5147H144.936ZM155.429 29.9919V17.2419H158.351V18.8297H158.441C158.562 18.5479 158.733 18.2763 158.954 18.0147C159.18 17.7531 159.465 17.5398 159.811 17.3748C160.162 17.2057 160.58 17.1212 161.067 17.1212C161.711 17.1212 162.313 17.2902 162.872 17.6283C163.436 17.9664 163.89 18.4876 164.237 19.1919C164.583 19.8962 164.756 20.7937 164.756 21.8843C164.756 22.9348 164.589 23.8142 164.255 24.5225C163.925 25.2308 163.478 25.7621 162.914 26.1162C162.355 26.4704 161.733 26.6475 161.049 26.6475C160.582 26.6475 160.178 26.571 159.836 26.4181C159.494 26.2651 159.206 26.0639 158.972 25.8144C158.743 25.5649 158.566 25.2972 158.441 25.0115H158.381V29.9919H155.429ZM158.32 21.8783C158.32 22.3774 158.387 22.812 158.52 23.1823C158.656 23.5526 158.852 23.8403 159.105 24.0456C159.363 24.2468 159.671 24.3474 160.029 24.3474C160.391 24.3474 160.699 24.2468 160.952 24.0456C161.206 23.8403 161.397 23.5526 161.526 23.1823C161.659 22.812 161.725 22.3774 161.725 21.8783C161.725 21.3793 161.659 20.9466 161.526 20.5804C161.397 20.2141 161.206 19.9304 160.952 19.7292C160.703 19.5279 160.395 19.4273 160.029 19.4273C159.667 19.4273 159.359 19.5259 159.105 19.7231C158.852 19.9203 158.656 20.2021 158.52 20.5683C158.387 20.9345 158.32 21.3712 158.32 21.8783ZM166.303 26.5147V17.2419H169.255V26.5147H166.303ZM167.782 16.1613C167.367 16.1613 167.011 16.0245 166.713 15.7508C166.415 15.4731 166.266 15.1391 166.266 14.7487C166.266 14.3623 166.415 14.0323 166.713 13.7586C167.011 13.4809 167.367 13.3421 167.782 13.3421C168.2 13.3421 168.556 13.4809 168.85 13.7586C169.148 14.0323 169.297 14.3623 169.297 14.7487C169.297 15.1391 169.148 15.4731 168.85 15.7508C168.556 16.0245 168.2 16.1613 167.782 16.1613ZM175.462 26.6897C174.484 26.6897 173.645 26.4885 172.945 26.0861C172.249 25.6836 171.713 25.1242 171.339 24.4078C170.965 23.6874 170.778 22.8543 170.778 21.9085C170.778 20.9587 170.965 20.1256 171.339 19.4092C171.717 18.6888 172.255 18.1274 172.951 17.7249C173.651 17.3224 174.486 17.1212 175.456 17.1212C176.313 17.1212 177.06 17.2762 177.696 17.5861C178.336 17.8959 178.835 18.3346 179.193 18.9021C179.555 19.4656 179.746 20.1276 179.767 20.8883H177.008C176.951 20.4133 176.79 20.0411 176.525 19.7714C176.263 19.5018 175.921 19.3669 175.498 19.3669C175.156 19.3669 174.856 19.4635 174.599 19.6567C174.341 19.8459 174.14 20.1276 173.995 20.5019C173.854 20.8722 173.784 21.331 173.784 21.8783C173.784 22.4257 173.854 22.8885 173.995 23.2668C174.14 23.6411 174.341 23.9248 174.599 24.118C174.856 24.3072 175.156 24.4017 175.498 24.4017C175.772 24.4017 176.014 24.3434 176.223 24.2267C176.436 24.11 176.611 23.9389 176.748 23.7135C176.885 23.4841 176.971 23.2064 177.008 22.8804H179.767C179.738 23.6451 179.547 24.3132 179.193 24.8847C178.843 25.4562 178.35 25.9009 177.714 26.2189C177.082 26.5328 176.332 26.6897 175.462 26.6897ZM193.043 18.1897C192.975 17.9362 192.874 17.7128 192.741 17.5196C192.609 17.3224 192.446 17.1554 192.252 17.0186C192.059 16.8817 191.838 16.7791 191.588 16.7107C191.339 16.6383 191.065 16.602 190.767 16.602C190.168 16.602 189.648 16.7469 189.21 17.0367C188.775 17.3265 188.439 17.7491 188.202 18.3044C187.964 18.8558 187.845 19.5259 187.845 20.3147C187.845 21.1076 187.96 21.7837 188.19 22.3432C188.419 22.9026 188.751 23.3292 189.186 23.623C189.62 23.9168 190.148 24.0637 190.767 24.0637C191.315 24.0637 191.777 23.9751 192.156 23.7981C192.538 23.6169 192.828 23.3614 193.025 23.0314C193.222 22.7013 193.321 22.313 193.321 21.8662L193.876 21.9326H190.87V19.7533H196.201V21.3893C196.201 22.4961 195.965 23.4439 195.494 24.2327C195.027 25.0215 194.383 25.6272 193.562 26.0498C192.745 26.4724 191.806 26.6837 190.743 26.6837C189.564 26.6837 188.528 26.4281 187.634 25.917C186.741 25.4059 186.044 24.6774 185.545 23.7316C185.046 22.7818 184.797 21.6549 184.797 20.351C184.797 19.3368 184.948 18.4373 185.25 17.6525C185.551 16.8636 185.972 16.1955 186.511 15.6482C187.055 15.1009 187.682 14.6863 188.395 14.4046C189.111 14.1229 189.882 13.982 190.707 13.982C191.423 13.982 192.089 14.0846 192.705 14.2899C193.325 14.4951 193.872 14.7849 194.347 15.1592C194.826 15.5335 195.215 15.9782 195.512 16.4934C195.81 17.0085 195.995 17.574 196.068 18.1897H193.043ZM200.576 26.6716C199.984 26.6716 199.459 26.573 199 26.3758C198.545 26.1746 198.185 25.8727 197.92 25.4703C197.658 25.0638 197.527 24.5547 197.527 23.9429C197.527 23.4278 197.618 22.9931 197.799 22.639C197.98 22.2848 198.229 21.997 198.547 21.7757C198.865 21.5543 199.232 21.3873 199.646 21.2746C200.061 21.1579 200.503 21.0794 200.974 21.0392C201.501 20.9909 201.926 20.9406 202.248 20.8883C202.57 20.8319 202.803 20.7534 202.948 20.6528C203.097 20.5482 203.172 20.4013 203.172 20.2121V20.1819C203.172 19.872 203.065 19.6326 202.852 19.4635C202.638 19.2945 202.351 19.21 201.988 19.21C201.598 19.21 201.284 19.2945 201.047 19.4635C200.809 19.6326 200.658 19.866 200.594 20.1638L197.871 20.0672C197.952 19.5038 198.159 19.0007 198.493 18.558C198.831 18.1113 199.294 17.7611 199.882 17.5076C200.473 17.25 201.184 17.1212 202.013 17.1212C202.604 17.1212 203.15 17.1916 203.649 17.3325C204.148 17.4693 204.582 17.6706 204.953 17.9362C205.323 18.1978 205.609 18.5198 205.81 18.9021C206.015 19.2844 206.118 19.7211 206.118 20.2121V26.5147H203.341V25.2228H203.268C203.103 25.5367 202.892 25.8023 202.634 26.0196C202.381 26.237 202.081 26.4 201.735 26.5086C201.393 26.6173 201.006 26.6716 200.576 26.6716ZM201.487 24.7398C201.805 24.7398 202.091 24.6754 202.345 24.5466C202.602 24.4178 202.807 24.2408 202.96 24.0154C203.113 23.786 203.19 23.5204 203.19 23.2185V22.3371C203.105 22.3814 203.003 22.4216 202.882 22.4579C202.765 22.4941 202.636 22.5283 202.496 22.5605C202.355 22.5927 202.21 22.6209 202.061 22.645C201.912 22.6691 201.769 22.6913 201.632 22.7114C201.355 22.7557 201.117 22.8241 200.92 22.9167C200.727 23.0092 200.578 23.13 200.473 23.2789C200.373 23.4238 200.322 23.5968 200.322 23.7981C200.322 24.1039 200.431 24.3374 200.648 24.4983C200.87 24.6593 201.149 24.7398 201.487 24.7398ZM207.923 26.5147V17.2419H210.73V18.9444H210.833C211.026 18.3809 211.352 17.9362 211.811 17.6102C212.269 17.2842 212.817 17.1212 213.453 17.1212C214.097 17.1212 214.648 17.2862 215.107 17.6162C215.566 17.9463 215.857 18.389 215.982 18.9444H216.079C216.252 18.393 216.59 17.9523 217.093 17.6223C217.596 17.2882 218.19 17.1212 218.874 17.1212C219.751 17.1212 220.463 17.4029 221.011 17.9664C221.558 18.5258 221.832 19.2945 221.832 20.2725V26.5147H218.88V20.9486C218.88 20.4858 218.761 20.1336 218.524 19.8922C218.286 19.6467 217.978 19.5239 217.6 19.5239C217.193 19.5239 216.874 19.6567 216.64 19.9223C216.411 20.1839 216.296 20.5361 216.296 20.9788V26.5147H213.459V20.9184C213.459 20.4878 213.342 20.1477 213.108 19.8982C212.875 19.6487 212.567 19.5239 212.185 19.5239C211.927 19.5239 211.7 19.5863 211.503 19.7111C211.305 19.8318 211.151 20.0049 211.038 20.2302C210.929 20.4556 210.875 20.7212 210.875 21.0271V26.5147H207.923ZM227.996 26.6897C227.026 26.6897 226.189 26.4986 225.484 26.1162C224.784 25.7299 224.245 25.1805 223.866 24.4682C223.492 23.7518 223.305 22.9006 223.305 21.9145C223.305 20.9567 223.494 20.1196 223.872 19.4032C224.251 18.6828 224.784 18.1233 225.472 17.7249C226.16 17.3224 226.971 17.1212 227.905 17.1212C228.565 17.1212 229.169 17.2238 229.716 17.4291C230.263 17.6343 230.736 17.9382 231.135 18.3407C231.533 18.7431 231.843 19.2402 232.064 19.8318C232.286 20.4194 232.396 21.0935 232.396 21.8542V22.5907H224.337V20.8762H229.65C229.646 20.5623 229.571 20.2825 229.426 20.037C229.281 19.7915 229.082 19.6004 228.829 19.4635C228.579 19.3227 228.291 19.2522 227.965 19.2522C227.635 19.2522 227.34 19.3267 227.078 19.4756C226.816 19.6205 226.609 19.8197 226.456 20.0733C226.303 20.3228 226.223 20.6065 226.215 20.9245V22.6691C226.215 23.0475 226.289 23.3795 226.438 23.6652C226.587 23.947 226.798 24.1663 227.072 24.3233C227.346 24.4802 227.672 24.5587 228.05 24.5587C228.311 24.5587 228.549 24.5225 228.762 24.45C228.976 24.3776 229.159 24.2709 229.312 24.1301C229.465 23.9892 229.579 23.8162 229.656 23.6109L232.366 23.6894C232.254 24.2971 232.006 24.8263 231.624 25.2771C231.245 25.7238 230.748 26.072 230.133 26.3215C229.517 26.567 228.805 26.6897 227.996 26.6897ZM242 20.0733L239.289 20.1457C239.261 19.9525 239.185 19.7815 239.06 19.6326C238.935 19.4796 238.772 19.3609 238.571 19.2764C238.374 19.1879 238.144 19.1436 237.883 19.1436C237.54 19.1436 237.249 19.212 237.007 19.3488C236.77 19.4857 236.653 19.6708 236.657 19.9042C236.653 20.0853 236.725 20.2423 236.874 20.3751C237.027 20.5079 237.299 20.6146 237.689 20.6951L239.476 21.0331C240.402 21.2102 241.09 21.504 241.541 21.9145C241.996 22.325 242.225 22.8684 242.229 23.5445C242.225 24.1804 242.036 24.7338 241.662 25.2047C241.291 25.6755 240.784 26.0418 240.14 26.3034C239.496 26.561 238.76 26.6897 237.931 26.6897C236.607 26.6897 235.562 26.4181 234.798 25.8748C234.037 25.3274 233.602 24.5949 233.494 23.6773L236.41 23.6049C236.474 23.9429 236.641 24.2005 236.911 24.3776C237.18 24.5547 237.524 24.6432 237.943 24.6432C238.321 24.6432 238.629 24.5728 238.867 24.4319C239.104 24.2911 239.225 24.1039 239.229 23.8705C239.225 23.6612 239.132 23.4942 238.951 23.3694C238.77 23.2406 238.486 23.14 238.1 23.0676L236.482 22.7597C235.552 22.5907 234.86 22.2788 234.405 21.824C233.95 21.3652 233.725 20.7816 233.729 20.0733C233.725 19.4535 233.89 18.9242 234.224 18.4856C234.558 18.0428 235.033 17.7048 235.649 17.4714C236.265 17.2379 236.991 17.1212 237.828 17.1212C239.084 17.1212 240.074 17.3848 240.798 17.912C241.523 18.4352 241.923 19.1557 242 20.0733Z" fill="white"/>
</g>
<rect x="1.0707" y="1.08541" width="248.858" height="37.8585" rx="6.92857" stroke="white" stroke-opacity="0.15" stroke-width="2.14286"/>
<defs>
<filter id="filter0_d_28_2623" x="2.39899" y="0.413697" width="39.202" height="39.202" filterUnits="userSpaceOnUse" color-interpolation-filters="sRGB">
<feFlood flood-opacity="0" result="BackgroundImageFix"/>
<feColorMatrix in="SourceAlpha" type="matrix" values="0 0 0 0 0 0 0 0 0 0 0 0 0 0 0 0 0 0 127 0" result="hardAlpha"/>
<feOffset/>
<feGaussianBlur stdDeviation="2.80014"/>
<feComposite in2="hardAlpha" operator="out"/>
<feColorMatrix type="matrix" values="0 0 0 0 0 0 0 0 0 0 0 0 0 0 0 0 0 0 0.25 0"/>
<feBlend mode="normal" in2="BackgroundImageFix" result="effect1_dropShadow_28_2623"/>
<feBlend mode="normal" in="SourceGraphic" in2="effect1_dropShadow_28_2623" result="shape"/>
</filter>
<filter id="filter1_d_28_2623" x="36.2864" y="3.80039" width="212.429" height="32.4285" filterUnits="userSpaceOnUse" color-interpolation-filters="sRGB">
<feFlood flood-opacity="0" result="BackgroundImageFix"/>
<feColorMatrix in="SourceAlpha" type="matrix" values="0 0 0 0 0 0 0 0 0 0 0 0 0 0 0 0 0 0 127 0" result="hardAlpha"/>
<feOffset/>
<feGaussianBlur stdDeviation="2.85714"/>
<feComposite in2="hardAlpha" operator="out"/>
<feColorMatrix type="matrix" values="0 0 0 0 0 0 0 0 0 0 0 0 0 0 0 0 0 0 0.25 0"/>
<feBlend mode="normal" in2="BackgroundImageFix" result="effect1_dropShadow_28_2623"/>
<feBlend mode="normal" in="SourceGraphic" in2="effect1_dropShadow_28_2623" result="shape"/>
</filter>
<linearGradient id="paint0_linear_28_2623" x1="125.5" y1="0.013977" x2="125.5" y2="40.0154" gradientUnits="userSpaceOnUse">
<stop stop-color="#181818"/>
<stop offset="1" stop-color="#0F0F0F"/>
</linearGradient>
</defs>
</svg>
