<svg width="137" height="28" viewBox="0 0 137 28" fill="none" xmlns="http://www.w3.org/2000/svg">
<rect x="-0.000488281" y="-6.10352e-05" width="136.5" height="28" rx="6" fill="url(#paint0_linear_2_952)"/>
<g filter="url(#filter0_d_2_952)">
<path d="M9.50767 9.00077C9.30183 9.00077 9.07016 9.01622 8.80765 9.06875C8.53015 9.12282 7.74096 9.28734 7.09595 9.86203C5.66426 11.0454 6.02926 12.9263 6.07426 13.2097C6.12843 13.5542 6.29344 14.5128 7.08262 15.3478C8.54015 17.0016 11.6769 16.9637 11.6769 16.9637C11.6769 16.9637 12.0619 17.8157 12.6502 18.6005C13.4461 19.5761 14.2636 20.3369 15.0586 20.4288C17.0636 20.4288 21.0687 20.4258 21.0687 20.4258C21.0687 20.4258 21.4504 20.4288 21.9687 20.1214C22.4146 19.8712 22.8129 19.4316 22.8129 19.4316C22.8129 19.4316 23.2229 19.0246 23.7963 18.0953C23.9713 17.8095 24.1171 17.5322 24.2446 17.2704C24.2446 17.2704 26.0005 13.8169 26.0005 10.4553C25.9655 9.43719 25.6946 9.25799 25.6313 9.19851C25.5013 9.07802 25.3263 9.08033 25.3263 9.08033C25.3263 9.08033 21.5971 9.27498 19.6662 9.3167C19.2429 9.32519 18.8228 9.33446 18.4062 9.33755V12.7934L17.8778 12.5609C17.8778 11.4872 17.8745 9.33987 17.8745 9.33987C16.952 9.35223 15.0369 9.27498 15.0369 9.27498C15.0369 9.27498 10.5377 9.06643 10.0477 9.02472C9.89184 9.01622 9.7135 9 9.50767 9V9.00077ZM9.80267 10.4159H9.89517C9.89517 10.4159 10.121 12.1685 10.3952 13.1943C10.6244 14.0555 11.1835 15.4869 11.1835 15.4869C11.1835 15.4869 10.3535 15.3949 9.816 15.218C8.99099 14.9678 8.64181 14.6665 8.64181 14.6665C8.64181 14.6665 8.03347 14.2718 7.72846 13.4924C7.20345 12.1886 7.6843 11.393 7.6843 11.393C7.6843 11.393 7.95097 10.7295 8.90932 10.5086C9.23849 10.4267 9.6285 10.4159 9.80267 10.4159ZM16.7445 12.3886C16.9611 12.391 17.1686 12.4867 17.1686 12.4867L17.892 12.8127L17.4512 13.6431C17.3467 13.6415 17.2437 13.6666 17.1535 13.7155C17.0633 13.7643 16.9893 13.8352 16.9395 13.9204C16.8862 14.0123 16.8635 14.1169 16.8742 14.2208C16.8849 14.3247 16.9285 14.4233 16.9995 14.5043L16.217 15.9905C16.0896 15.9923 15.9665 16.0332 15.8669 16.1069C15.7674 16.1806 15.697 16.2828 15.667 16.3975C15.6382 16.5116 15.651 16.6312 15.7033 16.7378C15.7556 16.8444 15.8445 16.932 15.9561 16.9869C16.0773 17.0445 16.2166 17.0601 16.3491 17.0309C16.4815 17.0017 16.5984 16.9297 16.6786 16.8278C16.757 16.7261 16.7942 16.602 16.7837 16.4774C16.7732 16.3528 16.7156 16.2357 16.6211 16.1465L17.3845 14.699C17.4508 14.7048 17.5177 14.6996 17.582 14.6835C17.6652 14.6651 17.7425 14.6288 17.8078 14.5777C18.0989 14.6925 18.3818 14.8246 18.6545 14.9732C18.7536 15.0247 18.8359 15.0999 18.8928 15.191C18.9537 15.3532 18.832 15.6305 18.832 15.6305C18.7595 15.8545 18.247 16.8278 18.247 16.8278C18.1228 16.8248 18.0009 16.859 17.8994 16.9254C17.7979 16.9918 17.7222 17.0868 17.6837 17.1962C17.6541 17.2841 17.6499 17.3776 17.6715 17.4674C17.6932 17.5573 17.7398 17.6402 17.8069 17.7081C17.874 17.776 17.959 17.8264 18.0537 17.8542C18.1483 17.8821 18.2492 17.8864 18.3462 17.8668C18.4432 17.8473 18.533 17.8044 18.6066 17.7426C18.6801 17.6808 18.7349 17.6022 18.7654 17.5146C18.796 17.427 18.8012 17.3336 18.7805 17.2435C18.7599 17.1535 18.7142 17.0701 18.6478 17.0016C18.7087 16.8927 18.7653 16.7838 18.8262 16.6687C18.9845 16.362 19.2554 15.7727 19.2554 15.7727C19.2845 15.7217 19.437 15.4683 19.3412 15.1439C19.262 14.8079 18.9412 14.6511 18.9412 14.6511C18.552 14.4186 18.0112 14.2031 18.0112 14.2031C18.0112 14.2031 18.0112 14.0826 17.9762 13.9945C17.9494 13.9252 17.9074 13.8618 17.8528 13.8084L18.2828 12.988L20.6912 14.0702C20.6912 14.0702 21.0912 14.2386 21.1771 14.5484C21.2379 14.7662 21.1612 14.9608 21.1196 15.0558C20.9196 15.5093 19.3695 18.3904 19.3695 18.3904C19.3695 18.3904 19.1762 18.8183 18.7462 18.8446C18.6356 18.8521 18.5245 18.8403 18.4187 18.8098L18.2503 18.748L14.6586 17.1259C14.6586 17.1259 14.3111 16.9576 14.2503 16.6656C14.1811 16.4261 14.3369 16.1318 14.3369 16.1318L16.0645 12.832C16.0645 12.832 16.217 12.5462 16.4528 12.4481C16.5444 12.4094 16.6438 12.3891 16.7445 12.3886V12.3886Z" fill="#609926"/>
</g>
<g filter="url(#filter1_d_2_952)">
<path d="M33.5542 18.4999H32.2729L35.1519 10.4999H36.5464L39.4253 18.4999H38.144L35.8823 11.9531H35.8198L33.5542 18.4999ZM33.769 15.3671H37.9253V16.3827H33.769V15.3671ZM44.8677 12.4999L42.6919 18.4999H41.4419L39.2622 12.4999H40.5161L42.0356 17.1171H42.0981L43.6138 12.4999H44.8677ZM47.5395 18.6327C47.1593 18.6327 46.8156 18.5624 46.5083 18.4218C46.201 18.2786 45.9575 18.0716 45.7778 17.8007C45.6007 17.5299 45.5122 17.1979 45.5122 16.8046C45.5122 16.4661 45.5773 16.1874 45.7075 15.9687C45.8377 15.7499 46.0135 15.5768 46.2349 15.4492C46.4562 15.3216 46.7036 15.2252 46.977 15.1601C47.2505 15.095 47.5291 15.0455 47.813 15.0117C48.1724 14.97 48.464 14.9361 48.688 14.9101C48.9119 14.8814 49.0747 14.8359 49.1763 14.7734C49.2778 14.7109 49.3286 14.6093 49.3286 14.4687V14.4413C49.3286 14.1002 49.2323 13.8359 49.0395 13.6484C48.8494 13.4609 48.5656 13.3671 48.188 13.3671C47.7948 13.3671 47.4849 13.4544 47.2583 13.6288C47.0343 13.8007 46.8794 13.9921 46.7935 14.2031L45.6958 13.9531C45.826 13.5885 46.0161 13.2942 46.2661 13.0702C46.5187 12.8437 46.8091 12.6796 47.1372 12.5781C47.4653 12.4739 47.8104 12.4218 48.1724 12.4218C48.4119 12.4218 48.6658 12.4505 48.9341 12.5078C49.2049 12.5624 49.4575 12.664 49.6919 12.8124C49.9289 12.9609 50.1229 13.1731 50.2739 13.4492C50.425 13.7226 50.5005 14.0781 50.5005 14.5156V18.4999H49.3599V17.6796H49.313C49.2375 17.8307 49.1242 17.9791 48.9731 18.1249C48.8221 18.2708 48.6281 18.3919 48.3911 18.4882C48.1541 18.5846 47.8703 18.6327 47.5395 18.6327ZM47.7935 17.6952C48.1164 17.6952 48.3924 17.6314 48.6216 17.5038C48.8533 17.3762 49.0291 17.2096 49.1489 17.0038C49.2713 16.7955 49.3325 16.5729 49.3325 16.3359V15.5624C49.2908 15.6041 49.2101 15.6432 49.0903 15.6796C48.9731 15.7135 48.839 15.7434 48.688 15.7695C48.5369 15.7929 48.3898 15.815 48.2466 15.8359C48.1033 15.8541 47.9836 15.8697 47.8872 15.8827C47.6606 15.9114 47.4536 15.9596 47.2661 16.0273C47.0812 16.095 46.9328 16.1926 46.8208 16.3202C46.7114 16.4452 46.6567 16.6119 46.6567 16.8202C46.6567 17.1093 46.7635 17.3281 46.977 17.4765C47.1906 17.6223 47.4627 17.6952 47.7935 17.6952ZM52.0561 18.4999V12.4999H53.2241V18.4999H52.0561ZM52.646 11.5742C52.4429 11.5742 52.2684 11.5064 52.1226 11.371C51.9793 11.233 51.9077 11.0689 51.9077 10.8788C51.9077 10.6861 51.9793 10.5221 52.1226 10.3867C52.2684 10.2486 52.4429 10.1796 52.646 10.1796C52.8491 10.1796 53.0223 10.2486 53.1655 10.3867C53.3114 10.5221 53.3843 10.6861 53.3843 10.8788C53.3843 11.0689 53.3114 11.233 53.1655 11.371C53.0223 11.5064 52.8491 11.5742 52.646 11.5742ZM55.9634 10.4999V18.4999H54.7954V10.4999H55.9634ZM59.2808 18.6327C58.9005 18.6327 58.5568 18.5624 58.2495 18.4218C57.9422 18.2786 57.6987 18.0716 57.519 17.8007C57.342 17.5299 57.2534 17.1979 57.2534 16.8046C57.2534 16.4661 57.3185 16.1874 57.4487 15.9687C57.5789 15.7499 57.7547 15.5768 57.9761 15.4492C58.1974 15.3216 58.4448 15.2252 58.7183 15.1601C58.9917 15.095 59.2703 15.0455 59.5542 15.0117C59.9136 14.97 60.2052 14.9361 60.4292 14.9101C60.6531 14.8814 60.8159 14.8359 60.9175 14.7734C61.019 14.7109 61.0698 14.6093 61.0698 14.4687V14.4413C61.0698 14.1002 60.9735 13.8359 60.7808 13.6484C60.5906 13.4609 60.3068 13.3671 59.9292 13.3671C59.536 13.3671 59.2261 13.4544 58.9995 13.6288C58.7755 13.8007 58.6206 13.9921 58.5347 14.2031L57.437 13.9531C57.5672 13.5885 57.7573 13.2942 58.0073 13.0702C58.2599 12.8437 58.5503 12.6796 58.8784 12.5781C59.2065 12.4739 59.5516 12.4218 59.9136 12.4218C60.1531 12.4218 60.4071 12.4505 60.6753 12.5078C60.9461 12.5624 61.1987 12.664 61.4331 12.8124C61.6701 12.9609 61.8641 13.1731 62.0151 13.4492C62.1662 13.7226 62.2417 14.0781 62.2417 14.5156V18.4999H61.1011V17.6796H61.0542C60.9787 17.8307 60.8654 17.9791 60.7143 18.1249C60.5633 18.2708 60.3693 18.3919 60.1323 18.4882C59.8953 18.5846 59.6115 18.6327 59.2808 18.6327ZM59.5347 17.6952C59.8576 17.6952 60.1336 17.6314 60.3628 17.5038C60.5946 17.3762 60.7703 17.2096 60.8901 17.0038C61.0125 16.7955 61.0737 16.5729 61.0737 16.3359V15.5624C61.0321 15.6041 60.9513 15.6432 60.8315 15.6796C60.7143 15.7135 60.5802 15.7434 60.4292 15.7695C60.2781 15.7929 60.131 15.815 59.9878 15.8359C59.8446 15.8541 59.7248 15.8697 59.6284 15.8827C59.4018 15.9114 59.1948 15.9596 59.0073 16.0273C58.8224 16.095 58.674 16.1926 58.562 16.3202C58.4526 16.4452 58.3979 16.6119 58.3979 16.8202C58.3979 17.1093 58.5047 17.3281 58.7183 17.4765C58.9318 17.6223 59.2039 17.6952 59.5347 17.6952ZM63.8911 18.4999V10.4999H65.0591V13.4726H65.1294C65.1971 13.3476 65.2947 13.2031 65.4224 13.039C65.55 12.8749 65.727 12.7317 65.9536 12.6093C66.1802 12.4843 66.4796 12.4218 66.852 12.4218C67.3364 12.4218 67.7687 12.5442 68.1489 12.789C68.5291 13.0338 68.8273 13.3867 69.0434 13.8476C69.2622 14.3085 69.3716 14.8632 69.3716 15.5117C69.3716 16.1601 69.2635 16.7161 69.0474 17.1796C68.8312 17.6406 68.5343 17.996 68.1567 18.246C67.7791 18.4934 67.3481 18.6171 66.8638 18.6171C66.4992 18.6171 66.201 18.5559 65.9692 18.4335C65.7401 18.3111 65.5604 18.1679 65.4302 18.0038C65.3 17.8398 65.1997 17.6939 65.1294 17.5663H65.0317V18.4999H63.8911ZM65.0356 15.4999C65.0356 15.9218 65.0968 16.2916 65.2192 16.6093C65.3416 16.927 65.5187 17.1757 65.7505 17.3554C65.9822 17.5325 66.2661 17.621 66.602 17.621C66.951 17.621 67.2427 17.5286 67.477 17.3437C67.7114 17.1562 67.8885 16.9023 68.0083 16.582C68.1307 16.2617 68.1919 15.901 68.1919 15.4999C68.1919 15.1041 68.132 14.7486 68.0122 14.4335C67.895 14.1184 67.7179 13.8697 67.4809 13.6874C67.2466 13.5051 66.9536 13.414 66.602 13.414C66.2635 13.414 65.977 13.5012 65.7427 13.6757C65.5109 13.8502 65.3351 14.0937 65.2153 14.4062C65.0955 14.7187 65.0356 15.0833 65.0356 15.4999ZM71.8511 10.4999V18.4999H70.6831V10.4999H71.8511ZM76.0083 18.621C75.4171 18.621 74.908 18.4947 74.4809 18.2421C74.0565 17.9869 73.7283 17.6288 73.4966 17.1679C73.2674 16.7044 73.1528 16.1614 73.1528 15.539C73.1528 14.9244 73.2674 14.3827 73.4966 13.914C73.7283 13.4452 74.0513 13.0794 74.4653 12.8163C74.882 12.5533 75.369 12.4218 75.9263 12.4218C76.2648 12.4218 76.5929 12.4778 76.9106 12.5898C77.2283 12.7018 77.5135 12.8775 77.7661 13.1171C78.0187 13.3567 78.2179 13.6679 78.3638 14.0507C78.5096 14.4309 78.5825 14.8932 78.5825 15.4374V15.8515H73.813V14.9765H77.438C77.438 14.6692 77.3755 14.3971 77.2505 14.1601C77.1255 13.9205 76.9497 13.7317 76.7231 13.5937C76.4992 13.4557 76.2362 13.3867 75.9341 13.3867C75.6059 13.3867 75.3195 13.4674 75.0747 13.6288C74.8325 13.7877 74.645 13.996 74.5122 14.2538C74.382 14.5091 74.3169 14.7864 74.3169 15.0859V15.7695C74.3169 16.1705 74.3872 16.5117 74.5278 16.7929C74.671 17.0742 74.8703 17.289 75.1255 17.4374C75.3807 17.5833 75.6789 17.6562 76.02 17.6562C76.2414 17.6562 76.4432 17.6249 76.6255 17.5624C76.8078 17.4973 76.9653 17.401 77.0981 17.2734C77.2309 17.1458 77.3325 16.9882 77.4028 16.8007L78.5083 16.9999C78.4197 17.3255 78.2609 17.6106 78.0317 17.8554C77.8052 18.0976 77.52 18.2864 77.1763 18.4218C76.8351 18.5546 76.4458 18.621 76.0083 18.621ZM85.3169 18.621C84.7544 18.621 84.2635 18.4921 83.8442 18.2343C83.425 17.9765 83.0994 17.6158 82.8677 17.1523C82.6359 16.6887 82.52 16.1471 82.52 15.5273C82.52 14.9049 82.6359 14.3606 82.8677 13.8945C83.0994 13.4283 83.425 13.0663 83.8442 12.8085C84.2635 12.5507 84.7544 12.4218 85.3169 12.4218C85.8794 12.4218 86.3703 12.5507 86.7895 12.8085C87.2088 13.0663 87.5343 13.4283 87.7661 13.8945C87.9979 14.3606 88.1138 14.9049 88.1138 15.5273C88.1138 16.1471 87.9979 16.6887 87.7661 17.1523C87.5343 17.6158 87.2088 17.9765 86.7895 18.2343C86.3703 18.4921 85.8794 18.621 85.3169 18.621ZM85.3208 17.6406C85.6854 17.6406 85.9875 17.5442 86.227 17.3515C86.4666 17.1588 86.6437 16.9023 86.7583 16.582C86.8755 16.2617 86.9341 15.9088 86.9341 15.5234C86.9341 15.1406 86.8755 14.789 86.7583 14.4687C86.6437 14.1458 86.4666 13.8867 86.227 13.6913C85.9875 13.496 85.6854 13.3984 85.3208 13.3984C84.9536 13.3984 84.6489 13.496 84.4067 13.6913C84.1671 13.8867 83.9888 14.1458 83.8716 14.4687C83.757 14.789 83.6997 15.1406 83.6997 15.5234C83.6997 15.9088 83.757 16.2617 83.8716 16.582C83.9888 16.9023 84.1671 17.1588 84.4067 17.3515C84.6489 17.5442 84.9536 17.6406 85.3208 17.6406ZM90.5854 14.9374V18.4999H89.4175V12.4999H90.5386V13.4765H90.6128C90.7508 13.1588 90.9669 12.9036 91.2612 12.7109C91.5581 12.5182 91.9318 12.4218 92.3823 12.4218C92.7912 12.4218 93.1492 12.5078 93.4565 12.6796C93.7638 12.8489 94.0021 13.1015 94.1714 13.4374C94.3406 13.7734 94.4253 14.1887 94.4253 14.6835V18.4999H93.2573V14.8242C93.2573 14.3893 93.144 14.0494 92.9175 13.8046C92.6909 13.5572 92.3797 13.4335 91.9839 13.4335C91.713 13.4335 91.4722 13.4921 91.2612 13.6093C91.0529 13.7265 90.8875 13.8984 90.7651 14.1249C90.6453 14.3489 90.5854 14.6197 90.5854 14.9374Z" fill="#E8E8E8"/>
<path d="M104.887 12.6235C104.839 12.4445 104.768 12.2869 104.674 12.1505C104.58 12.0113 104.465 11.8934 104.329 11.7968C104.193 11.7002 104.036 11.6278 103.86 11.5795C103.684 11.5283 103.491 11.5028 103.281 11.5028C102.857 11.5028 102.491 11.6051 102.181 11.8096C101.875 12.0141 101.637 12.3124 101.47 12.7045C101.302 13.0937 101.218 13.5667 101.218 14.1235C101.218 14.6832 101.299 15.1604 101.461 15.5553C101.623 15.9502 101.857 16.2514 102.164 16.4587C102.471 16.6661 102.843 16.7698 103.281 16.7698C103.667 16.7698 103.994 16.7073 104.261 16.5823C104.531 16.4545 104.735 16.2741 104.875 16.0411C105.014 15.8082 105.083 15.534 105.083 15.2187L105.475 15.2656H103.353V13.7272H107.116V14.882C107.116 15.6633 106.95 16.3323 106.617 16.8891C106.288 17.446 105.833 17.8735 105.254 18.1718C104.677 18.4701 104.014 18.6193 103.264 18.6193C102.431 18.6193 101.7 18.4389 101.069 18.0781C100.438 17.7173 99.947 17.2031 99.5947 16.5354C99.2424 15.865 99.0663 15.0695 99.0663 14.1491C99.0663 13.4332 99.1728 12.7982 99.3859 12.2443C99.5989 11.6874 99.8958 11.2158 100.276 10.8295C100.66 10.4431 101.103 10.1505 101.606 9.95164C102.112 9.75278 102.656 9.65335 103.238 9.65335C103.744 9.65335 104.214 9.72579 104.649 9.87068C105.086 10.0156 105.473 10.2201 105.808 10.4843C106.146 10.7485 106.42 11.0624 106.63 11.4261C106.84 11.7897 106.971 12.1889 107.022 12.6235H104.887ZM108.769 18.4999V11.9545H110.853V18.4999H108.769ZM109.813 11.1917C109.521 11.1917 109.269 11.0951 109.059 10.9019C108.849 10.7059 108.744 10.4701 108.744 10.1945C108.744 9.92181 108.849 9.68886 109.059 9.49568C109.269 9.29965 109.521 9.20164 109.813 9.20164C110.109 9.20164 110.36 9.29965 110.568 9.49568C110.778 9.68886 110.883 9.92181 110.883 10.1945C110.883 10.4701 110.778 10.7059 110.568 10.9019C110.36 11.0951 110.109 11.1917 109.813 11.1917ZM115.874 11.9545V13.4886H111.745V11.9545H115.874ZM112.61 10.3863H114.694V16.4417C114.694 16.5695 114.714 16.6732 114.753 16.7528C114.796 16.8295 114.857 16.8849 114.937 16.919C115.016 16.9502 115.111 16.9658 115.222 16.9658C115.302 16.9658 115.386 16.9587 115.474 16.9445C115.564 16.9275 115.633 16.9133 115.678 16.9019L115.993 18.4062C115.894 18.4346 115.753 18.4701 115.572 18.5127C115.393 18.5553 115.178 18.5823 114.928 18.5937C114.439 18.6164 114.02 18.5596 113.671 18.4232C113.324 18.284 113.059 18.0681 112.874 17.7755C112.692 17.4829 112.604 17.115 112.61 16.6718V10.3863ZM119.927 18.6235C119.242 18.6235 118.651 18.4886 118.154 18.2187C117.66 17.946 117.279 17.5582 117.012 17.0553C116.748 16.5497 116.616 15.9488 116.616 15.2528C116.616 14.5766 116.749 13.9857 117.016 13.4801C117.283 12.9715 117.66 12.5766 118.145 12.2954C118.631 12.0113 119.204 11.8693 119.863 11.8693C120.329 11.8693 120.755 11.9417 121.141 12.0866C121.528 12.2315 121.861 12.446 122.143 12.7301C122.424 13.0141 122.643 13.365 122.799 13.7826C122.955 14.1974 123.033 14.6732 123.033 15.2102V15.7301H117.344V14.5198H121.094C121.091 14.2982 121.039 14.1008 120.937 13.9275C120.834 13.7542 120.694 13.6193 120.515 13.5227C120.339 13.4232 120.136 13.3735 119.905 13.3735C119.672 13.3735 119.464 13.4261 119.279 13.5312C119.094 13.6335 118.948 13.7741 118.84 13.9531C118.732 14.1292 118.675 14.3295 118.67 14.5539V15.7854C118.67 16.0525 118.722 16.2869 118.827 16.4886C118.932 16.6874 119.082 16.8423 119.275 16.9531C119.468 17.0639 119.698 17.1193 119.965 17.1193C120.15 17.1193 120.317 17.0937 120.468 17.0425C120.618 16.9914 120.748 16.9161 120.856 16.8167C120.964 16.7173 121.045 16.5951 121.099 16.4502L123.012 16.5056C122.932 16.9346 122.758 17.3082 122.488 17.6264C122.221 17.9417 121.87 18.1874 121.435 18.3636C121.001 18.5369 120.498 18.6235 119.927 18.6235ZM125.943 18.6107C125.525 18.6107 125.154 18.5411 124.83 18.4019C124.509 18.2599 124.255 18.0468 124.068 17.7627C123.883 17.4758 123.791 17.1164 123.791 16.6846C123.791 16.321 123.855 16.0141 123.982 15.7641C124.11 15.5141 124.286 15.311 124.511 15.1548C124.735 14.9985 124.994 14.8806 125.286 14.8011C125.579 14.7187 125.892 14.6633 126.224 14.6349C126.596 14.6008 126.896 14.5653 127.123 14.5283C127.35 14.4886 127.515 14.4332 127.617 14.3622C127.723 14.2883 127.775 14.1846 127.775 14.0511V14.0298C127.775 13.811 127.7 13.642 127.549 13.5227C127.399 13.4033 127.196 13.3437 126.94 13.3437C126.664 13.3437 126.443 13.4033 126.275 13.5227C126.107 13.642 126.001 13.8068 125.955 14.017L124.034 13.9488C124.09 13.5511 124.237 13.196 124.473 12.8835C124.711 12.5681 125.038 12.321 125.453 12.142C125.87 11.9602 126.372 11.8693 126.957 11.8693C127.375 11.8693 127.759 11.919 128.112 12.0184C128.464 12.115 128.771 12.257 129.032 12.4445C129.294 12.6292 129.495 12.8565 129.637 13.1264C129.782 13.3962 129.855 13.7045 129.855 14.0511V18.4999H127.894V17.588H127.843C127.727 17.8096 127.578 17.9971 127.396 18.1505C127.217 18.3039 127.005 18.419 126.761 18.4957C126.519 18.5724 126.247 18.6107 125.943 18.6107ZM126.586 17.2471C126.811 17.2471 127.012 17.2016 127.191 17.1107C127.373 17.0198 127.518 16.8948 127.626 16.7357C127.734 16.5738 127.788 16.3863 127.788 16.1732V15.5511C127.728 15.5823 127.656 15.6107 127.571 15.6363C127.488 15.6619 127.397 15.686 127.298 15.7087C127.198 15.7315 127.096 15.7514 126.991 15.7684C126.886 15.7854 126.785 15.8011 126.688 15.8153C126.492 15.8465 126.325 15.8948 126.186 15.9602C126.049 16.0255 125.944 16.1107 125.87 16.2158C125.799 16.3181 125.764 16.4403 125.764 16.5823C125.764 16.7982 125.84 16.963 125.994 17.0766C126.15 17.1903 126.348 17.2471 126.586 17.2471Z" fill="white"/>
<path d="M104.887 12.6235C104.839 12.4445 104.768 12.2869 104.674 12.1505C104.58 12.0113 104.465 11.8934 104.329 11.7968C104.193 11.7002 104.036 11.6278 103.86 11.5795C103.684 11.5283 103.491 11.5028 103.281 11.5028C102.857 11.5028 102.491 11.6051 102.181 11.8096C101.875 12.0141 101.637 12.3124 101.47 12.7045C101.302 13.0937 101.218 13.5667 101.218 14.1235C101.218 14.6832 101.299 15.1604 101.461 15.5553C101.623 15.9502 101.857 16.2514 102.164 16.4587C102.471 16.6661 102.843 16.7698 103.281 16.7698C103.667 16.7698 103.994 16.7073 104.261 16.5823C104.531 16.4545 104.735 16.2741 104.875 16.0411C105.014 15.8082 105.083 15.534 105.083 15.2187L105.475 15.2656H103.353V13.7272H107.116V14.882C107.116 15.6633 106.95 16.3323 106.617 16.8891C106.288 17.446 105.833 17.8735 105.254 18.1718C104.677 18.4701 104.014 18.6193 103.264 18.6193C102.431 18.6193 101.7 18.4389 101.069 18.0781C100.438 17.7173 99.947 17.2031 99.5947 16.5354C99.2424 15.865 99.0663 15.0695 99.0663 14.1491C99.0663 13.4332 99.1728 12.7982 99.3859 12.2443C99.5989 11.6874 99.8958 11.2158 100.276 10.8295C100.66 10.4431 101.103 10.1505 101.606 9.95164C102.112 9.75278 102.656 9.65335 103.238 9.65335C103.744 9.65335 104.214 9.72579 104.649 9.87068C105.086 10.0156 105.473 10.2201 105.808 10.4843C106.146 10.7485 106.42 11.0624 106.63 11.4261C106.84 11.7897 106.971 12.1889 107.022 12.6235H104.887ZM108.769 18.4999V11.9545H110.853V18.4999H108.769ZM109.813 11.1917C109.521 11.1917 109.269 11.0951 109.059 10.9019C108.849 10.7059 108.744 10.4701 108.744 10.1945C108.744 9.92181 108.849 9.68886 109.059 9.49568C109.269 9.29965 109.521 9.20164 109.813 9.20164C110.109 9.20164 110.36 9.29965 110.568 9.49568C110.778 9.68886 110.883 9.92181 110.883 10.1945C110.883 10.4701 110.778 10.7059 110.568 10.9019C110.36 11.0951 110.109 11.1917 109.813 11.1917ZM115.874 11.9545V13.4886H111.745V11.9545H115.874ZM112.61 10.3863H114.694V16.4417C114.694 16.5695 114.714 16.6732 114.753 16.7528C114.796 16.8295 114.857 16.8849 114.937 16.919C115.016 16.9502 115.111 16.9658 115.222 16.9658C115.302 16.9658 115.386 16.9587 115.474 16.9445C115.564 16.9275 115.633 16.9133 115.678 16.9019L115.993 18.4062C115.894 18.4346 115.753 18.4701 115.572 18.5127C115.393 18.5553 115.178 18.5823 114.928 18.5937C114.439 18.6164 114.02 18.5596 113.671 18.4232C113.324 18.284 113.059 18.0681 112.874 17.7755C112.692 17.4829 112.604 17.115 112.61 16.6718V10.3863ZM119.927 18.6235C119.242 18.6235 118.651 18.4886 118.154 18.2187C117.66 17.946 117.279 17.5582 117.012 17.0553C116.748 16.5497 116.616 15.9488 116.616 15.2528C116.616 14.5766 116.749 13.9857 117.016 13.4801C117.283 12.9715 117.66 12.5766 118.145 12.2954C118.631 12.0113 119.204 11.8693 119.863 11.8693C120.329 11.8693 120.755 11.9417 121.141 12.0866C121.528 12.2315 121.861 12.446 122.143 12.7301C122.424 13.0141 122.643 13.365 122.799 13.7826C122.955 14.1974 123.033 14.6732 123.033 15.2102V15.7301H117.344V14.5198H121.094C121.091 14.2982 121.039 14.1008 120.937 13.9275C120.834 13.7542 120.694 13.6193 120.515 13.5227C120.339 13.4232 120.136 13.3735 119.905 13.3735C119.672 13.3735 119.464 13.4261 119.279 13.5312C119.094 13.6335 118.948 13.7741 118.84 13.9531C118.732 14.1292 118.675 14.3295 118.67 14.5539V15.7854C118.67 16.0525 118.722 16.2869 118.827 16.4886C118.932 16.6874 119.082 16.8423 119.275 16.9531C119.468 17.0639 119.698 17.1193 119.965 17.1193C120.15 17.1193 120.317 17.0937 120.468 17.0425C120.618 16.9914 120.748 16.9161 120.856 16.8167C120.964 16.7173 121.045 16.5951 121.099 16.4502L123.012 16.5056C122.932 16.9346 122.758 17.3082 122.488 17.6264C122.221 17.9417 121.87 18.1874 121.435 18.3636C121.001 18.5369 120.498 18.6235 119.927 18.6235ZM125.943 18.6107C125.525 18.6107 125.154 18.5411 124.83 18.4019C124.509 18.2599 124.255 18.0468 124.068 17.7627C123.883 17.4758 123.791 17.1164 123.791 16.6846C123.791 16.321 123.855 16.0141 123.982 15.7641C124.11 15.5141 124.286 15.311 124.511 15.1548C124.735 14.9985 124.994 14.8806 125.286 14.8011C125.579 14.7187 125.892 14.6633 126.224 14.6349C126.596 14.6008 126.896 14.5653 127.123 14.5283C127.35 14.4886 127.515 14.4332 127.617 14.3622C127.723 14.2883 127.775 14.1846 127.775 14.0511V14.0298C127.775 13.811 127.7 13.642 127.549 13.5227C127.399 13.4033 127.196 13.3437 126.94 13.3437C126.664 13.3437 126.443 13.4033 126.275 13.5227C126.107 13.642 126.001 13.8068 125.955 14.017L124.034 13.9488C124.09 13.5511 124.237 13.196 124.473 12.8835C124.711 12.5681 125.038 12.321 125.453 12.142C125.87 11.9602 126.372 11.8693 126.957 11.8693C127.375 11.8693 127.759 11.919 128.112 12.0184C128.464 12.115 128.771 12.257 129.032 12.4445C129.294 12.6292 129.495 12.8565 129.637 13.1264C129.782 13.3962 129.855 13.7045 129.855 14.0511V18.4999H127.894V17.588H127.843C127.727 17.8096 127.578 17.9971 127.396 18.1505C127.217 18.3039 127.005 18.419 126.761 18.4957C126.519 18.5724 126.247 18.6107 125.943 18.6107ZM126.586 17.2471C126.811 17.2471 127.012 17.2016 127.191 17.1107C127.373 17.0198 127.518 16.8948 127.626 16.7357C127.734 16.5738 127.788 16.3863 127.788 16.1732V15.5511C127.728 15.5823 127.656 15.6107 127.571 15.6363C127.488 15.6619 127.397 15.686 127.298 15.7087C127.198 15.7315 127.096 15.7514 126.991 15.7684C126.886 15.7854 126.785 15.8011 126.688 15.8153C126.492 15.8465 126.325 15.8948 126.186 15.9602C126.049 16.0255 125.944 16.1107 125.87 16.2158C125.799 16.3181 125.764 16.4403 125.764 16.5823C125.764 16.7982 125.84 16.963 125.994 17.0766C126.15 17.1903 126.348 17.2471 126.586 17.2471Z" fill="url(#paint1_linear_2_952)"/>
</g>
<rect x="0.749512" y="0.749939" width="135" height="26.5" rx="5.25" stroke="white" stroke-opacity="0.15" stroke-width="1.5"/>
<defs>
<filter id="filter0_d_2_952" x="1.99951" y="-6.10352e-05" width="28.001" height="28" filterUnits="userSpaceOnUse" color-interpolation-filters="sRGB">
<feFlood flood-opacity="0" result="BackgroundImageFix"/>
<feColorMatrix in="SourceAlpha" type="matrix" values="0 0 0 0 0 0 0 0 0 0 0 0 0 0 0 0 0 0 127 0" result="hardAlpha"/>
<feOffset/>
<feGaussianBlur stdDeviation="2"/>
<feComposite in2="hardAlpha" operator="out"/>
<feColorMatrix type="matrix" values="0 0 0 0 0 0 0 0 0 0 0 0 0 0 0 0 0 0 0.25 0"/>
<feBlend mode="normal" in2="BackgroundImageFix" result="effect1_dropShadow_2_952"/>
<feBlend mode="normal" in="SourceGraphic" in2="effect1_dropShadow_2_952" result="shape"/>
</filter>
<filter id="filter1_d_2_952" x="27.9995" y="3.49994" width="106.5" height="21" filterUnits="userSpaceOnUse" color-interpolation-filters="sRGB">
<feFlood flood-opacity="0" result="BackgroundImageFix"/>
<feColorMatrix in="SourceAlpha" type="matrix" values="0 0 0 0 0 0 0 0 0 0 0 0 0 0 0 0 0 0 127 0" result="hardAlpha"/>
<feOffset/>
<feGaussianBlur stdDeviation="2"/>
<feComposite in2="hardAlpha" operator="out"/>
<feColorMatrix type="matrix" values="0 0 0 0 0 0 0 0 0 0 0 0 0 0 0 0 0 0 0.25 0"/>
<feBlend mode="normal" in2="BackgroundImageFix" result="effect1_dropShadow_2_952"/>
<feBlend mode="normal" in="SourceGraphic" in2="effect1_dropShadow_2_952" result="shape"/>
</filter>
<linearGradient id="paint0_linear_2_952" x1="68.2495" y1="-6.10351e-05" x2="68.2495" y2="27.9999" gradientUnits="userSpaceOnUse">
<stop stop-color="#263813"/>
<stop offset="1" stop-color="#131F07"/>
</linearGradient>
<linearGradient id="paint1_linear_2_952" x1="114.5" y1="7.49994" x2="114.5" y2="20.4999" gradientUnits="userSpaceOnUse">
<stop stop-color="#7AB3DE"/>
<stop stop-color="#7AB3DE"/>
<stop offset="0.0001" stop-color="#68A52B"/>
<stop offset="1" stop-color="#8AC74D"/>
</linearGradient>
</defs>
</svg>
