<svg width="200" height="41" viewBox="0 0 200 41" fill="none" xmlns="http://www.w3.org/2000/svg">
<rect x="-0.000732422" y="0.0361328" width="200.001" height="40.0014" rx="8" fill="url(#paint0_linear_2_952)"/>
<g filter="url(#filter0_d_2_952)">
<path d="M12.911 13.0377C12.6228 13.0377 12.2984 13.0593 11.9309 13.1329C11.5424 13.2086 10.4375 13.4389 9.53441 14.2435C7.52994 15.9003 8.04097 18.5337 8.10398 18.9305C8.17981 19.4129 8.41083 20.755 9.51574 21.924C11.5564 24.2394 15.948 24.1864 15.948 24.1864C15.948 24.1864 16.4871 25.3793 17.3108 26.478C18.425 27.8439 19.5696 28.9091 20.6827 29.0378C23.4899 29.0378 29.0973 29.0335 29.0973 29.0335C29.0973 29.0335 29.6316 29.0378 30.3574 28.6074C30.9816 28.257 31.5393 27.6417 31.5393 27.6417C31.5393 27.6417 32.1133 27.0717 32.916 25.7707C33.1611 25.3706 33.3652 24.9824 33.5437 24.6157C33.5437 24.6157 36.0021 19.7806 36.0021 15.0741C35.9531 13.6487 35.5739 13.3978 35.4852 13.3146C35.3032 13.1458 35.0582 13.1491 35.0582 13.1491C35.0582 13.1491 29.837 13.4216 27.1336 13.48C26.5409 13.4919 25.9529 13.5049 25.3695 13.5092V18.3476L24.6298 18.0221C24.6298 16.5189 24.6251 13.5125 24.6251 13.5125C23.3335 13.5298 20.6523 13.4216 20.6523 13.4216C20.6523 13.4216 14.3531 13.1296 13.667 13.0712C13.4488 13.0593 13.1992 13.0366 12.911 13.0366V13.0377ZM13.324 15.0189H13.4535C13.4535 15.0189 13.7697 17.4727 14.1536 18.9089C14.4744 20.1147 15.2573 22.1187 15.2573 22.1187C15.2573 22.1187 14.0952 21.99 13.3427 21.7423C12.1876 21.3919 11.6987 20.9702 11.6987 20.9702C11.6987 20.9702 10.847 20.4175 10.42 19.3264C9.68492 17.5009 10.3581 16.387 10.3581 16.387C10.3581 16.387 10.7315 15.458 12.0733 15.1487C12.5341 15.0341 13.0802 15.0189 13.324 15.0189ZM23.043 17.781C23.3464 17.7842 23.6369 17.9183 23.6369 17.9183L24.6496 18.3747L24.0324 19.5372C23.8861 19.5351 23.742 19.5701 23.6157 19.6386C23.4894 19.707 23.3858 19.8063 23.316 19.9255C23.2415 20.0542 23.2097 20.2006 23.2246 20.346C23.2396 20.4915 23.3006 20.6297 23.4 20.7431L22.3045 22.8238C22.1261 22.8263 21.9537 22.8836 21.8144 22.9868C21.675 23.0899 21.5765 23.2331 21.5344 23.3937C21.4942 23.5534 21.5121 23.7209 21.5853 23.8701C21.6586 24.0194 21.783 24.142 21.9393 24.2189C22.1089 24.2994 22.304 24.3213 22.4894 24.2804C22.6748 24.2396 22.8385 24.1388 22.9508 23.9961C23.0606 23.8537 23.1126 23.68 23.0979 23.5056C23.0832 23.3311 23.0026 23.1671 22.8703 23.0422L23.9391 21.0156C24.0319 21.0238 24.1256 21.0165 24.2156 20.994C24.332 20.9681 24.4403 20.9174 24.5318 20.8458C24.9394 21.0065 25.3353 21.1915 25.7172 21.3995C25.8559 21.4716 25.9711 21.577 26.0509 21.7045C26.1361 21.9316 25.9657 22.3198 25.9657 22.3198C25.8642 22.6334 25.1467 23.9961 25.1467 23.9961C24.9728 23.9918 24.8021 24.0398 24.66 24.1327C24.5179 24.2257 24.4119 24.3587 24.3579 24.5119C24.3165 24.6349 24.3107 24.7659 24.341 24.8916C24.3712 25.0174 24.4366 25.1336 24.5305 25.2286C24.6244 25.3236 24.7435 25.3942 24.876 25.4332C25.0085 25.4722 25.1497 25.4782 25.2855 25.4508C25.4214 25.4234 25.5471 25.3634 25.6501 25.2769C25.7531 25.1904 25.8298 25.0803 25.8725 24.9577C25.9153 24.8351 25.9226 24.7042 25.8937 24.5782C25.8648 24.4521 25.8007 24.3353 25.7079 24.2394C25.793 24.0869 25.8724 23.9344 25.9576 23.7733C26.1792 23.344 26.5584 22.5188 26.5584 22.5188C26.5993 22.4474 26.8128 22.0927 26.6786 21.6385C26.5678 21.1681 26.1186 20.9485 26.1186 20.9485C25.5737 20.623 24.8165 20.3213 24.8165 20.3213C24.8165 20.3213 24.8165 20.1526 24.7675 20.0293C24.73 19.9323 24.6712 19.8435 24.5948 19.7687L25.1968 18.6202L28.5687 20.1353C28.5687 20.1353 29.1288 20.371 29.2489 20.8047C29.3341 21.1097 29.2268 21.3822 29.1684 21.5152C28.8884 22.15 26.7183 26.1839 26.7183 26.1839C26.7183 26.1839 26.4476 26.783 25.8455 26.8197C25.6908 26.8302 25.5352 26.8137 25.387 26.7711L25.1513 26.6846L20.1226 24.4135C20.1226 24.4135 19.6361 24.1778 19.5509 23.769C19.4541 23.4337 19.6723 23.0217 19.6723 23.0217L22.0909 18.4017C22.0909 18.4017 22.3045 18.0016 22.6347 17.8642C22.7629 17.81 22.9021 17.7817 23.043 17.781V17.781Z" fill="#609926"/>
</g>
<g filter="url(#filter1_d_2_952)">
<path d="M46.4034 26.5369H44.4233L48.8725 14.1732H51.0277L55.4769 26.5369H53.4968L50.0014 16.419H49.9049L46.4034 26.5369ZM46.7355 21.6952H53.1588V23.2648H46.7355V21.6952ZM63.8879 17.2641L60.5253 26.5369H58.5935L55.2249 17.2641H57.1627L59.5111 24.3998H59.6077L61.95 17.2641H63.8879ZM68.0171 26.7421C67.4296 26.7421 66.8983 26.6335 66.4234 26.4161C65.9485 26.1948 65.5722 25.8748 65.2945 25.4562C65.0208 25.0377 64.884 24.5246 64.884 23.9168C64.884 23.3936 64.9846 22.963 65.1858 22.6249C65.3871 22.2869 65.6587 22.0192 66.0008 21.822C66.3429 21.6248 66.7252 21.4759 67.1478 21.3753C67.5704 21.2747 68.0011 21.1982 68.4397 21.1459C68.9951 21.0815 69.4459 21.0292 69.792 20.9889C70.1381 20.9447 70.3897 20.8742 70.5466 20.7776C70.7036 20.681 70.7821 20.5241 70.7821 20.3067V20.2645C70.7821 19.7373 70.6332 19.3288 70.3353 19.039C70.0415 18.7492 69.6028 18.6043 69.0193 18.6043C68.4116 18.6043 67.9326 18.7392 67.5825 19.0088C67.2364 19.2744 66.9969 19.5702 66.8641 19.8962L65.1677 19.5099C65.3689 18.9464 65.6627 18.4916 66.0491 18.1455C66.4395 17.7954 66.8882 17.5418 67.3953 17.3849C67.9024 17.2239 68.4357 17.1434 68.9951 17.1434C69.3654 17.1434 69.7578 17.1877 70.1723 17.2762C70.5909 17.3607 70.9813 17.5177 71.3435 17.7471C71.7097 17.9765 72.0096 18.3045 72.243 18.7311C72.4764 19.1537 72.5931 19.7031 72.5931 20.3792V26.5369H70.8304V25.2691H70.7579C70.6412 25.5025 70.4661 25.7319 70.2327 25.9573C69.9993 26.1827 69.6994 26.3698 69.3332 26.5187C68.967 26.6677 68.5283 26.7421 68.0171 26.7421ZM68.4095 25.2933C68.9086 25.2933 69.3352 25.1946 69.6894 24.9974C70.0476 24.8002 70.3192 24.5427 70.5044 24.2247C70.6935 23.9027 70.7881 23.5586 70.7881 23.1924V21.9971C70.7237 22.0615 70.5989 22.1219 70.4138 22.1782C70.2327 22.2305 70.0254 22.2768 69.792 22.317C69.5586 22.3533 69.3312 22.3875 69.1098 22.4197C68.8885 22.4478 68.7033 22.472 68.5544 22.4921C68.2043 22.5364 67.8843 22.6108 67.5946 22.7155C67.3088 22.8201 67.0794 22.971 66.9064 23.1683C66.7373 23.3614 66.6528 23.619 66.6528 23.941C66.6528 24.3877 66.8178 24.7258 67.1478 24.9552C67.4779 25.1806 67.8984 25.2933 68.4095 25.2933ZM74.9973 26.5369V17.2641H76.8024V26.5369H74.9973ZM75.9089 15.8334C75.595 15.8334 75.3254 15.7287 75.1 15.5195C74.8786 15.3062 74.7679 15.0526 74.7679 14.7588C74.7679 14.461 74.8786 14.2074 75.1 13.9982C75.3254 13.7849 75.595 13.6782 75.9089 13.6782C76.2228 13.6782 76.4905 13.7849 76.7118 13.9982C76.9372 14.2074 77.0499 14.461 77.0499 14.7588C77.0499 15.0526 76.9372 15.3062 76.7118 15.5195C76.4905 15.7287 76.2228 15.8334 75.9089 15.8334ZM81.0358 14.1732V26.5369H79.2307V14.1732H81.0358ZM86.1627 26.7421C85.5751 26.7421 85.0438 26.6335 84.5689 26.4161C84.094 26.1948 83.7177 25.8748 83.44 25.4562C83.1663 25.0377 83.0295 24.5246 83.0295 23.9168C83.0295 23.3936 83.1301 22.963 83.3313 22.6249C83.5326 22.2869 83.8042 22.0192 84.1463 21.822C84.4884 21.6248 84.8707 21.4759 85.2933 21.3753C85.7159 21.2747 86.1466 21.1982 86.5852 21.1459C87.1406 21.0815 87.5914 21.0292 87.9375 20.9889C88.2836 20.9447 88.5352 20.8742 88.6921 20.7776C88.8491 20.681 88.9276 20.5241 88.9276 20.3067V20.2645C88.9276 19.7373 88.7787 19.3288 88.4808 19.039C88.187 18.7492 87.7484 18.6043 87.1648 18.6043C86.5571 18.6043 86.0781 18.7392 85.728 19.0088C85.3819 19.2744 85.1424 19.5702 85.0096 19.8962L83.3132 19.5099C83.5145 18.9464 83.8082 18.4916 84.1946 18.1455C84.585 17.7954 85.0337 17.5418 85.5408 17.3849C86.048 17.2239 86.5812 17.1434 87.1406 17.1434C87.5109 17.1434 87.9033 17.1877 88.3178 17.2762C88.7364 17.3607 89.1268 17.5177 89.489 17.7471C89.8552 17.9765 90.1551 18.3045 90.3885 18.7311C90.6219 19.1537 90.7386 19.7031 90.7386 20.3792V26.5369H88.9759V25.2691H88.9034C88.7867 25.5025 88.6116 25.7319 88.3782 25.9573C88.1448 26.1827 87.8449 26.3698 87.4787 26.5187C87.1125 26.6677 86.6738 26.7421 86.1627 26.7421ZM86.5551 25.2933C87.0541 25.2933 87.4807 25.1946 87.8349 24.9974C88.1931 24.8002 88.4647 24.5427 88.6499 24.2247C88.839 23.9027 88.9336 23.5586 88.9336 23.1924V21.9971C88.8692 22.0615 88.7444 22.1219 88.5593 22.1782C88.3782 22.2305 88.1709 22.2768 87.9375 22.317C87.7041 22.3533 87.4767 22.3875 87.2553 22.4197C87.034 22.4478 86.8488 22.472 86.6999 22.4921C86.3498 22.5364 86.0298 22.6108 85.7401 22.7155C85.4543 22.8201 85.2249 22.971 85.0519 23.1683C84.8828 23.3614 84.7983 23.619 84.7983 23.941C84.7983 24.3877 84.9633 24.7258 85.2933 24.9552C85.6234 25.1806 86.0439 25.2933 86.5551 25.2933ZM93.2877 26.5369V14.1732H95.0928V18.7673H95.2014C95.3061 18.5741 95.457 18.3508 95.6542 18.0972C95.8514 17.8437 96.1251 17.6223 96.4752 17.4332C96.8254 17.24 97.2882 17.1434 97.8637 17.1434C98.6123 17.1434 99.2804 17.3326 99.868 17.7109C100.456 18.0892 100.916 18.6345 101.25 19.3469C101.589 20.0592 101.758 20.9165 101.758 21.9186C101.758 22.9207 101.591 23.78 101.256 24.4964C100.922 25.2087 100.464 25.7581 99.8801 26.1445C99.2965 26.5268 98.6304 26.718 97.8818 26.718C97.3184 26.718 96.8576 26.6234 96.4994 26.4342C96.1452 26.2451 95.8675 26.0237 95.6663 25.7702C95.4651 25.5166 95.3101 25.2912 95.2014 25.094H95.0505V26.5369H93.2877ZM95.0566 21.9005C95.0566 22.5525 95.1511 23.124 95.3403 23.615C95.5295 24.106 95.8031 24.4903 96.1613 24.768C96.5195 25.0417 96.9582 25.1786 97.4774 25.1786C98.0167 25.1786 98.4674 25.0357 98.8296 24.7499C99.1919 24.4602 99.4655 24.0678 99.6507 23.5727C99.8398 23.0777 99.9344 22.5203 99.9344 21.9005C99.9344 21.2888 99.8418 20.7394 99.6567 20.2524C99.4756 19.7654 99.2019 19.3811 98.8357 19.0994C98.4735 18.8176 98.0207 18.6768 97.4774 18.6768C96.9542 18.6768 96.5115 18.8116 96.1492 19.0813C95.7911 19.3509 95.5194 19.7272 95.3343 20.2102C95.1491 20.6931 95.0566 21.2566 95.0566 21.9005ZM105.589 14.1732V26.5369H103.784V14.1732H105.589ZM112.014 26.724C111.101 26.724 110.314 26.5288 109.654 26.1384C108.998 25.744 108.491 25.1906 108.133 24.4783C107.778 23.7619 107.601 22.9228 107.601 21.9609C107.601 21.0111 107.778 20.1739 108.133 19.4495C108.491 18.7251 108.99 18.1596 109.63 17.7531C110.274 17.3466 111.026 17.1434 111.888 17.1434C112.411 17.1434 112.918 17.2299 113.409 17.403C113.9 17.576 114.341 17.8477 114.731 18.218C115.121 18.5882 115.429 19.0692 115.655 19.6608C115.88 20.2484 115.993 20.9628 115.993 21.8039V22.4438H108.622V21.0915H114.224C114.224 20.6166 114.127 20.1961 113.934 19.8298C113.741 19.4596 113.469 19.1678 113.119 18.9545C112.773 18.7412 112.366 18.6345 111.9 18.6345C111.392 18.6345 110.95 18.7593 110.571 19.0088C110.197 19.2543 109.907 19.5763 109.702 19.9747C109.501 20.3691 109.4 20.7978 109.4 21.2606V22.317C109.4 22.9368 109.509 23.4641 109.726 23.8987C109.948 24.3334 110.256 24.6654 110.65 24.8948C111.044 25.1202 111.505 25.2329 112.032 25.2329C112.374 25.2329 112.686 25.1846 112.968 25.088C113.25 24.9874 113.493 24.8385 113.699 24.6413C113.904 24.4441 114.061 24.2006 114.169 23.9108L115.878 24.2187C115.741 24.7218 115.496 25.1625 115.141 25.5408C114.791 25.9151 114.351 26.2068 113.819 26.4161C113.292 26.6214 112.69 26.724 112.014 26.724ZM126.4 26.724C125.531 26.724 124.772 26.5248 124.124 26.1263C123.476 25.7279 122.973 25.1705 122.615 24.4541C122.257 23.7377 122.078 22.9006 122.078 21.9428C122.078 20.9809 122.257 20.1397 122.615 19.4193C122.973 18.6989 123.476 18.1395 124.124 17.7411C124.772 17.3426 125.531 17.1434 126.4 17.1434C127.27 17.1434 128.028 17.3426 128.676 17.7411C129.324 18.1395 129.827 18.6989 130.185 19.4193C130.544 20.1397 130.723 20.9809 130.723 21.9428C130.723 22.9006 130.544 23.7377 130.185 24.4541C129.827 25.1705 129.324 25.7279 128.676 26.1263C128.028 26.5248 127.27 26.724 126.4 26.724ZM126.406 25.2087C126.97 25.2087 127.437 25.0598 127.807 24.762C128.177 24.4642 128.451 24.0678 128.628 23.5727C128.809 23.0777 128.9 22.5324 128.9 21.9367C128.9 21.3451 128.809 20.8018 128.628 20.3067C128.451 19.8077 128.177 19.4072 127.807 19.1054C127.437 18.8036 126.97 18.6526 126.406 18.6526C125.839 18.6526 125.368 18.8036 124.994 19.1054C124.623 19.4072 124.348 19.8077 124.167 20.3067C123.99 20.8018 123.901 21.3451 123.901 21.9367C123.901 22.5324 123.99 23.0777 124.167 23.5727C124.348 24.0678 124.623 24.4642 124.994 24.762C125.368 25.0598 125.839 25.2087 126.406 25.2087ZM134.543 21.0312V26.5369H132.738V17.2641H134.47V18.7734H134.585C134.798 18.2824 135.132 17.888 135.587 17.5901C136.046 17.2923 136.623 17.1434 137.32 17.1434C137.951 17.1434 138.505 17.2762 138.98 17.5418C139.455 17.8034 139.823 18.1938 140.085 18.713C140.346 19.2322 140.477 19.8741 140.477 20.6388V26.5369H138.672V20.8561C138.672 20.184 138.497 19.6588 138.147 19.2805C137.797 18.8981 137.316 18.707 136.704 18.707C136.285 18.707 135.913 18.7975 135.587 18.9786C135.265 19.1597 135.009 19.4254 134.82 19.7755C134.635 20.1216 134.543 20.5402 134.543 21.0312Z" fill="#E8E8E8"/>
<path d="M155.05 18.2119C154.982 17.9584 154.881 17.735 154.748 17.5418C154.615 17.3446 154.452 17.1776 154.259 17.0408C154.066 16.9039 153.845 16.8013 153.595 16.7329C153.346 16.6604 153.072 16.6242 152.774 16.6242C152.174 16.6242 151.655 16.7691 151.217 17.0589C150.782 17.3487 150.446 17.7712 150.208 18.3266C149.971 18.878 149.852 19.5481 149.852 20.3369C149.852 21.1298 149.967 21.8059 150.196 22.3653C150.426 22.9248 150.758 23.3514 151.192 23.6452C151.627 23.939 152.154 24.0859 152.774 24.0859C153.322 24.0859 153.784 23.9973 154.163 23.8202C154.545 23.6391 154.835 23.3836 155.032 23.0536C155.229 22.7235 155.328 22.3352 155.328 21.8884L155.883 21.9548H152.877V19.7755H158.207V21.4115C158.207 22.5183 157.972 23.4661 157.501 24.2549C157.034 25.0437 156.39 25.6494 155.569 26.072C154.752 26.4946 153.813 26.7059 152.75 26.7059C151.571 26.7059 150.534 26.4503 149.641 25.9392C148.748 25.4281 148.051 24.6996 147.552 23.7538C147.053 22.804 146.804 21.6771 146.804 20.3732C146.804 19.359 146.955 18.4594 147.256 17.6746C147.558 16.8858 147.979 16.2177 148.518 15.6704C149.061 15.123 149.689 14.7085 150.402 14.4268C151.118 14.1451 151.889 14.0042 152.714 14.0042C153.43 14.0042 154.096 14.1068 154.712 14.3121C155.332 14.5173 155.879 14.8071 156.354 15.1814C156.833 15.5557 157.221 16.0004 157.519 16.5156C157.817 17.0307 158.002 17.5962 158.075 18.2119H155.05ZM160.55 26.5369V17.2641H163.502V26.5369H160.55ZM162.029 16.1835C161.614 16.1835 161.258 16.0467 160.96 15.773C160.662 15.4953 160.514 15.1613 160.514 14.7709C160.514 14.3845 160.662 14.0545 160.96 13.7808C161.258 13.5031 161.614 13.3643 162.029 13.3643C162.447 13.3643 162.804 13.5031 163.097 13.7808C163.395 14.0545 163.544 14.3845 163.544 14.7709C163.544 15.1613 163.395 15.4953 163.097 15.773C162.804 16.0467 162.447 16.1835 162.029 16.1835ZM170.615 17.2641V19.4374H164.765V17.2641H170.615ZM165.991 15.0425H168.943V23.621C168.943 23.8021 168.971 23.949 169.027 24.0617C169.087 24.1704 169.174 24.2489 169.287 24.2972C169.399 24.3414 169.534 24.3636 169.691 24.3636C169.804 24.3636 169.923 24.3535 170.047 24.3334C170.176 24.3092 170.273 24.2891 170.337 24.273L170.784 26.404C170.643 26.4443 170.444 26.4946 170.186 26.555C169.933 26.6153 169.629 26.6536 169.275 26.6697C168.582 26.7019 167.989 26.6214 167.494 26.4282C167.003 26.231 166.626 25.9251 166.365 25.5106C166.107 25.096 165.982 24.5749 165.991 23.947V15.0425ZM176.356 26.7119C175.386 26.7119 174.549 26.5208 173.845 26.1384C173.144 25.7521 172.605 25.2027 172.227 24.4903C171.852 23.774 171.665 22.9228 171.665 21.9367C171.665 20.9789 171.854 20.1417 172.233 19.4254C172.611 18.7049 173.144 18.1455 173.832 17.7471C174.521 17.3446 175.332 17.1434 176.265 17.1434C176.925 17.1434 177.529 17.246 178.076 17.4513C178.624 17.6565 179.097 17.9604 179.495 18.3629C179.894 18.7653 180.203 19.2624 180.425 19.854C180.646 20.4416 180.757 21.1157 180.757 21.8763V22.6129H172.698V20.8984H178.01C178.006 20.5844 177.932 20.3047 177.787 20.0592C177.642 19.8137 177.443 19.6226 177.189 19.4857C176.939 19.3449 176.652 19.2744 176.326 19.2744C175.996 19.2744 175.7 19.3489 175.438 19.4978C175.177 19.6427 174.969 19.8419 174.817 20.0955C174.664 20.345 174.583 20.6287 174.575 20.9467V22.6913C174.575 23.0697 174.649 23.4017 174.798 23.6874C174.947 23.9692 175.159 24.1885 175.432 24.3455C175.706 24.5024 176.032 24.5809 176.41 24.5809C176.672 24.5809 176.909 24.5447 177.123 24.4722C177.336 24.3998 177.519 24.2931 177.672 24.1523C177.825 24.0114 177.94 23.8384 178.016 23.6331L180.727 23.7116C180.614 24.3193 180.366 24.8485 179.984 25.2993C179.606 25.746 179.109 26.0942 178.493 26.3437C177.877 26.5892 177.165 26.7119 176.356 26.7119ZM184.879 26.6938C184.287 26.6938 183.762 26.5952 183.303 26.398C182.848 26.1968 182.488 25.8949 182.222 25.4925C181.961 25.086 181.83 24.5769 181.83 23.9651C181.83 23.45 181.92 23.0153 182.102 22.6612C182.283 22.307 182.532 22.0192 182.85 21.7979C183.168 21.5765 183.534 21.4095 183.949 21.2968C184.363 21.1801 184.806 21.1016 185.277 21.0614C185.804 21.0131 186.229 20.9628 186.551 20.9104C186.873 20.8541 187.106 20.7756 187.251 20.675C187.4 20.5704 187.474 20.4235 187.474 20.2343V20.2041C187.474 19.8942 187.368 19.6548 187.154 19.4857C186.941 19.3167 186.653 19.2322 186.291 19.2322C185.901 19.2322 185.587 19.3167 185.349 19.4857C185.112 19.6548 184.961 19.8882 184.897 20.186L182.174 20.0894C182.255 19.526 182.462 19.0229 182.796 18.5802C183.134 18.1335 183.597 17.7833 184.184 17.5298C184.776 17.2722 185.486 17.1434 186.315 17.1434C186.907 17.1434 187.452 17.2138 187.951 17.3547C188.45 17.4915 188.885 17.6928 189.255 17.9584C189.626 18.22 189.911 18.542 190.113 18.9243C190.318 19.3066 190.42 19.7433 190.42 20.2343V26.5369H187.643V25.245H187.571C187.406 25.5589 187.195 25.8245 186.937 26.0418C186.684 26.2592 186.384 26.4222 186.038 26.5308C185.696 26.6395 185.309 26.6938 184.879 26.6938ZM185.79 24.762C186.108 24.762 186.394 24.6976 186.647 24.5688C186.905 24.44 187.11 24.2629 187.263 24.0376C187.416 23.8082 187.493 23.5425 187.493 23.2407V22.3593C187.408 22.4036 187.305 22.4438 187.185 22.48C187.068 22.5163 186.939 22.5505 186.798 22.5827C186.657 22.6149 186.513 22.643 186.364 22.6672C186.215 22.6913 186.072 22.7135 185.935 22.7336C185.657 22.7779 185.42 22.8463 185.223 22.9388C185.029 23.0314 184.881 23.1522 184.776 23.3011C184.675 23.446 184.625 23.619 184.625 23.8202C184.625 24.1261 184.734 24.3595 184.951 24.5205C185.172 24.6815 185.452 24.762 185.79 24.762Z" fill="white"/>
<path d="M155.05 18.2119C154.982 17.9584 154.881 17.735 154.748 17.5418C154.615 17.3446 154.452 17.1776 154.259 17.0408C154.066 16.9039 153.845 16.8013 153.595 16.7329C153.346 16.6604 153.072 16.6242 152.774 16.6242C152.174 16.6242 151.655 16.7691 151.217 17.0589C150.782 17.3487 150.446 17.7712 150.208 18.3266C149.971 18.878 149.852 19.5481 149.852 20.3369C149.852 21.1298 149.967 21.8059 150.196 22.3653C150.426 22.9248 150.758 23.3514 151.192 23.6452C151.627 23.939 152.154 24.0859 152.774 24.0859C153.322 24.0859 153.784 23.9973 154.163 23.8202C154.545 23.6391 154.835 23.3836 155.032 23.0536C155.229 22.7235 155.328 22.3352 155.328 21.8884L155.883 21.9548H152.877V19.7755H158.207V21.4115C158.207 22.5183 157.972 23.4661 157.501 24.2549C157.034 25.0437 156.39 25.6494 155.569 26.072C154.752 26.4946 153.813 26.7059 152.75 26.7059C151.571 26.7059 150.534 26.4503 149.641 25.9392C148.748 25.4281 148.051 24.6996 147.552 23.7538C147.053 22.804 146.804 21.6771 146.804 20.3732C146.804 19.359 146.955 18.4594 147.256 17.6746C147.558 16.8858 147.979 16.2177 148.518 15.6704C149.061 15.123 149.689 14.7085 150.402 14.4268C151.118 14.1451 151.889 14.0042 152.714 14.0042C153.43 14.0042 154.096 14.1068 154.712 14.3121C155.332 14.5173 155.879 14.8071 156.354 15.1814C156.833 15.5557 157.221 16.0004 157.519 16.5156C157.817 17.0307 158.002 17.5962 158.075 18.2119H155.05ZM160.55 26.5369V17.2641H163.502V26.5369H160.55ZM162.029 16.1835C161.614 16.1835 161.258 16.0467 160.96 15.773C160.662 15.4953 160.514 15.1613 160.514 14.7709C160.514 14.3845 160.662 14.0545 160.96 13.7808C161.258 13.5031 161.614 13.3643 162.029 13.3643C162.447 13.3643 162.804 13.5031 163.097 13.7808C163.395 14.0545 163.544 14.3845 163.544 14.7709C163.544 15.1613 163.395 15.4953 163.097 15.773C162.804 16.0467 162.447 16.1835 162.029 16.1835ZM170.615 17.2641V19.4374H164.765V17.2641H170.615ZM165.991 15.0425H168.943V23.621C168.943 23.8021 168.971 23.949 169.027 24.0617C169.087 24.1704 169.174 24.2489 169.287 24.2972C169.399 24.3414 169.534 24.3636 169.691 24.3636C169.804 24.3636 169.923 24.3535 170.047 24.3334C170.176 24.3092 170.273 24.2891 170.337 24.273L170.784 26.404C170.643 26.4443 170.444 26.4946 170.186 26.555C169.933 26.6153 169.629 26.6536 169.275 26.6697C168.582 26.7019 167.989 26.6214 167.494 26.4282C167.003 26.231 166.626 25.9251 166.365 25.5106C166.107 25.096 165.982 24.5749 165.991 23.947V15.0425ZM176.356 26.7119C175.386 26.7119 174.549 26.5208 173.845 26.1384C173.144 25.7521 172.605 25.2027 172.227 24.4903C171.852 23.774 171.665 22.9228 171.665 21.9367C171.665 20.9789 171.854 20.1417 172.233 19.4254C172.611 18.7049 173.144 18.1455 173.832 17.7471C174.521 17.3446 175.332 17.1434 176.265 17.1434C176.925 17.1434 177.529 17.246 178.076 17.4513C178.624 17.6565 179.097 17.9604 179.495 18.3629C179.894 18.7653 180.203 19.2624 180.425 19.854C180.646 20.4416 180.757 21.1157 180.757 21.8763V22.6129H172.698V20.8984H178.01C178.006 20.5844 177.932 20.3047 177.787 20.0592C177.642 19.8137 177.443 19.6226 177.189 19.4857C176.939 19.3449 176.652 19.2744 176.326 19.2744C175.996 19.2744 175.7 19.3489 175.438 19.4978C175.177 19.6427 174.969 19.8419 174.817 20.0955C174.664 20.345 174.583 20.6287 174.575 20.9467V22.6913C174.575 23.0697 174.649 23.4017 174.798 23.6874C174.947 23.9692 175.159 24.1885 175.432 24.3455C175.706 24.5024 176.032 24.5809 176.41 24.5809C176.672 24.5809 176.909 24.5447 177.123 24.4722C177.336 24.3998 177.519 24.2931 177.672 24.1523C177.825 24.0114 177.94 23.8384 178.016 23.6331L180.727 23.7116C180.614 24.3193 180.366 24.8485 179.984 25.2993C179.606 25.746 179.109 26.0942 178.493 26.3437C177.877 26.5892 177.165 26.7119 176.356 26.7119ZM184.879 26.6938C184.287 26.6938 183.762 26.5952 183.303 26.398C182.848 26.1968 182.488 25.8949 182.222 25.4925C181.961 25.086 181.83 24.5769 181.83 23.9651C181.83 23.45 181.92 23.0153 182.102 22.6612C182.283 22.307 182.532 22.0192 182.85 21.7979C183.168 21.5765 183.534 21.4095 183.949 21.2968C184.363 21.1801 184.806 21.1016 185.277 21.0614C185.804 21.0131 186.229 20.9628 186.551 20.9104C186.873 20.8541 187.106 20.7756 187.251 20.675C187.4 20.5704 187.474 20.4235 187.474 20.2343V20.2041C187.474 19.8942 187.368 19.6548 187.154 19.4857C186.941 19.3167 186.653 19.2322 186.291 19.2322C185.901 19.2322 185.587 19.3167 185.349 19.4857C185.112 19.6548 184.961 19.8882 184.897 20.186L182.174 20.0894C182.255 19.526 182.462 19.0229 182.796 18.5802C183.134 18.1335 183.597 17.7833 184.184 17.5298C184.776 17.2722 185.486 17.1434 186.315 17.1434C186.907 17.1434 187.452 17.2138 187.951 17.3547C188.45 17.4915 188.885 17.6928 189.255 17.9584C189.626 18.22 189.911 18.542 190.113 18.9243C190.318 19.3066 190.42 19.7433 190.42 20.2343V26.5369H187.643V25.245H187.571C187.406 25.5589 187.195 25.8245 186.937 26.0418C186.684 26.2592 186.384 26.4222 186.038 26.5308C185.696 26.6395 185.309 26.6938 184.879 26.6938ZM185.79 24.762C186.108 24.762 186.394 24.6976 186.647 24.5688C186.905 24.44 187.11 24.2629 187.263 24.0376C187.416 23.8082 187.493 23.5425 187.493 23.2407V22.3593C187.408 22.4036 187.305 22.4438 187.185 22.48C187.068 22.5163 186.939 22.5505 186.798 22.5827C186.657 22.6149 186.513 22.643 186.364 22.6672C186.215 22.6913 186.072 22.7135 185.935 22.7336C185.657 22.7779 185.42 22.8463 185.223 22.9388C185.029 23.0314 184.881 23.1522 184.776 23.3011C184.675 23.446 184.625 23.619 184.625 23.8202C184.625 24.1261 184.734 24.3595 184.951 24.5205C185.172 24.6815 185.452 24.762 185.79 24.762Z" fill="url(#paint1_linear_2_952)"/>
</g>
<rect x="1.0707" y="1.10756" width="197.858" height="37.8585" rx="6.92857" stroke="white" stroke-opacity="0.15" stroke-width="2.14286"/>
<defs>
<filter id="filter0_d_2_952" x="2.39899" y="0.435853" width="39.2035" height="39.2019" filterUnits="userSpaceOnUse" color-interpolation-filters="sRGB">
<feFlood flood-opacity="0" result="BackgroundImageFix"/>
<feColorMatrix in="SourceAlpha" type="matrix" values="0 0 0 0 0 0 0 0 0 0 0 0 0 0 0 0 0 0 127 0" result="hardAlpha"/>
<feOffset/>
<feGaussianBlur stdDeviation="2.80014"/>
<feComposite in2="hardAlpha" operator="out"/>
<feColorMatrix type="matrix" values="0 0 0 0 0 0 0 0 0 0 0 0 0 0 0 0 0 0 0.25 0"/>
<feBlend mode="normal" in2="BackgroundImageFix" result="effect1_dropShadow_2_952"/>
<feBlend mode="normal" in="SourceGraphic" in2="effect1_dropShadow_2_952" result="shape"/>
</filter>
<filter id="filter1_d_2_952" x="38.2864" y="3.82258" width="159.429" height="32.4286" filterUnits="userSpaceOnUse" color-interpolation-filters="sRGB">
<feFlood flood-opacity="0" result="BackgroundImageFix"/>
<feColorMatrix in="SourceAlpha" type="matrix" values="0 0 0 0 0 0 0 0 0 0 0 0 0 0 0 0 0 0 127 0" result="hardAlpha"/>
<feOffset/>
<feGaussianBlur stdDeviation="2.85714"/>
<feComposite in2="hardAlpha" operator="out"/>
<feColorMatrix type="matrix" values="0 0 0 0 0 0 0 0 0 0 0 0 0 0 0 0 0 0 0.25 0"/>
<feBlend mode="normal" in2="BackgroundImageFix" result="effect1_dropShadow_2_952"/>
<feBlend mode="normal" in="SourceGraphic" in2="effect1_dropShadow_2_952" result="shape"/>
</filter>
<linearGradient id="paint0_linear_2_952" x1="99.9999" y1="0.0361328" x2="99.9999" y2="40.0375" gradientUnits="userSpaceOnUse">
<stop stop-color="#263813"/>
<stop offset="1" stop-color="#131F07"/>
</linearGradient>
<linearGradient id="paint1_linear_2_952" x1="169.001" y1="9.53687" x2="169.001" y2="30.5369" gradientUnits="userSpaceOnUse">
<stop stop-color="#7AB3DE"/>
<stop stop-color="#7AB3DE"/>
<stop offset="0.0001" stop-color="#68A52B"/>
<stop offset="1" stop-color="#8AC74D"/>
</linearGradient>
</defs>
</svg>
