<svg width="198" height="41" viewBox="0 0 198 41" fill="none" xmlns="http://www.w3.org/2000/svg">
<rect x="-0.000732422" y="0.0361328" width="198.001" height="40.0014" rx="8" fill="url(#paint0_linear_2_952)"/>
<g filter="url(#filter0_d_2_952)">
<path d="M12.911 13.0377C12.6228 13.0377 12.2984 13.0593 11.9309 13.1329C11.5424 13.2086 10.4375 13.4389 9.53441 14.2435C7.52994 15.9003 8.04097 18.5337 8.10398 18.9305C8.17981 19.4129 8.41083 20.755 9.51574 21.924C11.5564 24.2394 15.948 24.1864 15.948 24.1864C15.948 24.1864 16.4871 25.3793 17.3108 26.478C18.425 27.8439 19.5696 28.9091 20.6827 29.0378C23.4899 29.0378 29.0973 29.0335 29.0973 29.0335C29.0973 29.0335 29.6316 29.0378 30.3574 28.6074C30.9816 28.257 31.5393 27.6417 31.5393 27.6417C31.5393 27.6417 32.1133 27.0717 32.916 25.7707C33.1611 25.3706 33.3652 24.9824 33.5437 24.6157C33.5437 24.6157 36.0021 19.7806 36.0021 15.0741C35.9531 13.6487 35.5739 13.3978 35.4852 13.3146C35.3032 13.1458 35.0582 13.1491 35.0582 13.1491C35.0582 13.1491 29.837 13.4216 27.1336 13.48C26.5409 13.4919 25.9529 13.5049 25.3695 13.5092V18.3476L24.6298 18.0221C24.6298 16.5189 24.6251 13.5125 24.6251 13.5125C23.3335 13.5298 20.6523 13.4216 20.6523 13.4216C20.6523 13.4216 14.3531 13.1296 13.667 13.0712C13.4488 13.0593 13.1992 13.0366 12.911 13.0366V13.0377ZM13.324 15.0189H13.4535C13.4535 15.0189 13.7697 17.4727 14.1536 18.9089C14.4744 20.1147 15.2573 22.1187 15.2573 22.1187C15.2573 22.1187 14.0952 21.99 13.3427 21.7423C12.1876 21.3919 11.6987 20.9702 11.6987 20.9702C11.6987 20.9702 10.847 20.4175 10.42 19.3264C9.68492 17.5009 10.3581 16.387 10.3581 16.387C10.3581 16.387 10.7315 15.458 12.0733 15.1487C12.5341 15.0341 13.0802 15.0189 13.324 15.0189ZM23.043 17.781C23.3464 17.7842 23.6369 17.9183 23.6369 17.9183L24.6496 18.3747L24.0324 19.5372C23.8861 19.5351 23.742 19.5701 23.6157 19.6386C23.4894 19.707 23.3858 19.8063 23.316 19.9255C23.2415 20.0542 23.2097 20.2006 23.2246 20.346C23.2396 20.4915 23.3006 20.6297 23.4 20.7431L22.3045 22.8238C22.1261 22.8263 21.9537 22.8836 21.8144 22.9868C21.675 23.0899 21.5765 23.2331 21.5344 23.3937C21.4942 23.5534 21.5121 23.7209 21.5853 23.8701C21.6586 24.0194 21.783 24.142 21.9393 24.2189C22.1089 24.2994 22.304 24.3213 22.4894 24.2804C22.6748 24.2396 22.8385 24.1388 22.9508 23.9961C23.0606 23.8537 23.1126 23.68 23.0979 23.5056C23.0832 23.3311 23.0026 23.1671 22.8703 23.0422L23.9391 21.0156C24.0319 21.0238 24.1256 21.0165 24.2156 20.994C24.332 20.9681 24.4403 20.9174 24.5318 20.8458C24.9394 21.0065 25.3353 21.1915 25.7172 21.3995C25.8559 21.4716 25.9711 21.577 26.0509 21.7045C26.1361 21.9316 25.9657 22.3198 25.9657 22.3198C25.8642 22.6334 25.1467 23.9961 25.1467 23.9961C24.9728 23.9918 24.8021 24.0398 24.66 24.1327C24.5179 24.2257 24.4119 24.3587 24.3579 24.5119C24.3165 24.6349 24.3107 24.7659 24.341 24.8916C24.3712 25.0174 24.4366 25.1336 24.5305 25.2286C24.6244 25.3236 24.7435 25.3942 24.876 25.4332C25.0085 25.4722 25.1497 25.4782 25.2855 25.4508C25.4214 25.4234 25.5471 25.3634 25.6501 25.2769C25.7531 25.1904 25.8298 25.0803 25.8725 24.9577C25.9153 24.8351 25.9226 24.7042 25.8937 24.5782C25.8648 24.4521 25.8007 24.3353 25.7079 24.2394C25.793 24.0869 25.8724 23.9344 25.9576 23.7733C26.1792 23.344 26.5584 22.5188 26.5584 22.5188C26.5993 22.4474 26.8128 22.0927 26.6786 21.6385C26.5678 21.1681 26.1186 20.9485 26.1186 20.9485C25.5737 20.623 24.8165 20.3213 24.8165 20.3213C24.8165 20.3213 24.8165 20.1526 24.7675 20.0293C24.73 19.9323 24.6712 19.8435 24.5948 19.7687L25.1968 18.6202L28.5687 20.1353C28.5687 20.1353 29.1288 20.371 29.2489 20.8047C29.3341 21.1097 29.2268 21.3822 29.1684 21.5152C28.8884 22.15 26.7183 26.1839 26.7183 26.1839C26.7183 26.1839 26.4476 26.783 25.8455 26.8197C25.6908 26.8302 25.5352 26.8137 25.387 26.7711L25.1513 26.6846L20.1226 24.4135C20.1226 24.4135 19.6361 24.1778 19.5509 23.769C19.4541 23.4337 19.6723 23.0217 19.6723 23.0217L22.0909 18.4017C22.0909 18.4017 22.3045 18.0016 22.6347 17.8642C22.7629 17.81 22.9021 17.7817 23.043 17.781Z" fill="#609926"/>
</g>
<g filter="url(#filter1_d_2_952)">
<path d="M44.4034 26.5369H42.4233L46.8725 14.1732H49.0277L53.4769 26.5369H51.4968L48.0014 16.419H47.9049L44.4034 26.5369ZM44.7355 21.6952H51.1588V23.2648H44.7355V21.6952ZM61.8879 17.2641L58.5253 26.5369H56.5935L53.2249 17.2641H55.1627L57.5111 24.3998H57.6077L59.95 17.2641H61.8879ZM66.0171 26.7421C65.4296 26.7421 64.8983 26.6335 64.4234 26.4161C63.9485 26.1948 63.5722 25.8748 63.2945 25.4562C63.0208 25.0377 62.884 24.5246 62.884 23.9168C62.884 23.3936 62.9846 22.963 63.1858 22.6249C63.3871 22.2869 63.6587 22.0192 64.0008 21.822C64.3429 21.6248 64.7252 21.4759 65.1478 21.3753C65.5704 21.2747 66.0011 21.1982 66.4397 21.1459C66.9951 21.0815 67.4459 21.0292 67.792 20.9889C68.1381 20.9447 68.3897 20.8742 68.5466 20.7776C68.7036 20.681 68.7821 20.5241 68.7821 20.3067V20.2645C68.7821 19.7373 68.6332 19.3288 68.3353 19.039C68.0415 18.7492 67.6028 18.6043 67.0193 18.6043C66.4116 18.6043 65.9326 18.7392 65.5825 19.0088C65.2364 19.2744 64.9969 19.5702 64.8641 19.8962L63.1677 19.5099C63.3689 18.9464 63.6627 18.4916 64.0491 18.1455C64.4395 17.7954 64.8882 17.5418 65.3953 17.3849C65.9024 17.2239 66.4357 17.1434 66.9951 17.1434C67.3654 17.1434 67.7578 17.1877 68.1723 17.2762C68.5909 17.3607 68.9813 17.5177 69.3435 17.7471C69.7097 17.9765 70.0096 18.3045 70.243 18.7311C70.4764 19.1537 70.5931 19.7031 70.5931 20.3792V26.5369H68.8304V25.2691H68.7579C68.6412 25.5025 68.4661 25.7319 68.2327 25.9573C67.9993 26.1827 67.6994 26.3698 67.3332 26.5187C66.967 26.6677 66.5283 26.7421 66.0171 26.7421ZM66.4095 25.2933C66.9086 25.2933 67.3352 25.1946 67.6894 24.9974C68.0476 24.8002 68.3192 24.5427 68.5044 24.2247C68.6935 23.9027 68.7881 23.5586 68.7881 23.1924V21.9971C68.7237 22.0615 68.5989 22.1219 68.4138 22.1782C68.2327 22.2305 68.0254 22.2768 67.792 22.317C67.5586 22.3533 67.3312 22.3875 67.1098 22.4197C66.8885 22.4478 66.7033 22.472 66.5544 22.4921C66.2043 22.5364 65.8843 22.6108 65.5946 22.7155C65.3088 22.8201 65.0794 22.971 64.9064 23.1683C64.7373 23.3614 64.6528 23.619 64.6528 23.941C64.6528 24.3877 64.8178 24.7258 65.1478 24.9552C65.4779 25.1806 65.8984 25.2933 66.4095 25.2933ZM72.9973 26.5369V17.2641H74.8024V26.5369H72.9973ZM73.9089 15.8334C73.595 15.8334 73.3254 15.7287 73.1 15.5195C72.8786 15.3062 72.7679 15.0526 72.7679 14.7588C72.7679 14.461 72.8786 14.2074 73.1 13.9982C73.3254 13.7849 73.595 13.6782 73.9089 13.6782C74.2228 13.6782 74.4905 13.7849 74.7118 13.9982C74.9372 14.2074 75.0499 14.461 75.0499 14.7588C75.0499 15.0526 74.9372 15.3062 74.7118 15.5195C74.4905 15.7287 74.2228 15.8334 73.9089 15.8334ZM79.0358 14.1732V26.5369H77.2307V14.1732H79.0358ZM84.1627 26.7421C83.5751 26.7421 83.0438 26.6335 82.5689 26.4161C82.094 26.1948 81.7177 25.8748 81.44 25.4562C81.1663 25.0377 81.0295 24.5246 81.0295 23.9168C81.0295 23.3936 81.1301 22.963 81.3313 22.6249C81.5326 22.2869 81.8042 22.0192 82.1463 21.822C82.4884 21.6248 82.8707 21.4759 83.2933 21.3753C83.7159 21.2747 84.1466 21.1982 84.5852 21.1459C85.1406 21.0815 85.5914 21.0292 85.9375 20.9889C86.2836 20.9447 86.5352 20.8742 86.6921 20.7776C86.8491 20.681 86.9276 20.5241 86.9276 20.3067V20.2645C86.9276 19.7373 86.7787 19.3288 86.4808 19.039C86.187 18.7492 85.7484 18.6043 85.1648 18.6043C84.5571 18.6043 84.0781 18.7392 83.728 19.0088C83.3819 19.2744 83.1424 19.5702 83.0096 19.8962L81.3132 19.5099C81.5145 18.9464 81.8082 18.4916 82.1946 18.1455C82.585 17.7954 83.0337 17.5418 83.5408 17.3849C84.048 17.2239 84.5812 17.1434 85.1406 17.1434C85.5109 17.1434 85.9033 17.1877 86.3178 17.2762C86.7364 17.3607 87.1268 17.5177 87.489 17.7471C87.8552 17.9765 88.1551 18.3045 88.3885 18.7311C88.6219 19.1537 88.7386 19.7031 88.7386 20.3792V26.5369H86.9759V25.2691H86.9034C86.7867 25.5025 86.6116 25.7319 86.3782 25.9573C86.1448 26.1827 85.8449 26.3698 85.4787 26.5187C85.1125 26.6677 84.6738 26.7421 84.1627 26.7421ZM84.5551 25.2933C85.0541 25.2933 85.4807 25.1946 85.8349 24.9974C86.1931 24.8002 86.4647 24.5427 86.6499 24.2247C86.839 23.9027 86.9336 23.5586 86.9336 23.1924V21.9971C86.8692 22.0615 86.7444 22.1219 86.5593 22.1782C86.3782 22.2305 86.1709 22.2768 85.9375 22.317C85.7041 22.3533 85.4767 22.3875 85.2553 22.4197C85.034 22.4478 84.8488 22.472 84.6999 22.4921C84.3498 22.5364 84.0298 22.6108 83.7401 22.7155C83.4543 22.8201 83.2249 22.971 83.0519 23.1683C82.8828 23.3614 82.7983 23.619 82.7983 23.941C82.7983 24.3877 82.9633 24.7258 83.2933 24.9552C83.6234 25.1806 84.0439 25.2933 84.5551 25.2933ZM91.2877 26.5369V14.1732H93.0928V18.7673H93.2014C93.3061 18.5741 93.457 18.3508 93.6542 18.0972C93.8514 17.8437 94.1251 17.6223 94.4752 17.4332C94.8254 17.24 95.2882 17.1434 95.8637 17.1434C96.6123 17.1434 97.2804 17.3326 97.868 17.7109C98.4556 18.0892 98.9164 18.6345 99.2504 19.3469C99.5885 20.0592 99.7576 20.9165 99.7576 21.9186C99.7576 22.9207 99.5905 23.78 99.2565 24.4964C98.9224 25.2087 98.4636 25.7581 97.8801 26.1445C97.2965 26.5268 96.6304 26.718 95.8818 26.718C95.3184 26.718 94.8576 26.6234 94.4994 26.4342C94.1452 26.2451 93.8675 26.0237 93.6663 25.7702C93.4651 25.5166 93.3101 25.2912 93.2014 25.094H93.0505V26.5369H91.2877ZM93.0566 21.9005C93.0566 22.5525 93.1511 23.124 93.3403 23.615C93.5295 24.106 93.8031 24.4903 94.1613 24.768C94.5195 25.0417 94.9582 25.1786 95.4774 25.1786C96.0167 25.1786 96.4674 25.0357 96.8296 24.7499C97.1919 24.4602 97.4655 24.0678 97.6507 23.5727C97.8398 23.0777 97.9344 22.5203 97.9344 21.9005C97.9344 21.2888 97.8418 20.7394 97.6567 20.2524C97.4756 19.7654 97.2019 19.3811 96.8357 19.0994C96.4735 18.8176 96.0207 18.6768 95.4774 18.6768C94.9542 18.6768 94.5115 18.8116 94.1492 19.0813C93.7911 19.3509 93.5194 19.7272 93.3343 20.2102C93.1491 20.6931 93.0566 21.2566 93.0566 21.9005ZM103.589 14.1732V26.5369H101.784V14.1732H103.589ZM110.014 26.724C109.101 26.724 108.314 26.5288 107.654 26.1384C106.998 25.744 106.491 25.1906 106.133 24.4783C105.778 23.7619 105.601 22.9228 105.601 21.9609C105.601 21.0111 105.778 20.1739 106.133 19.4495C106.491 18.7251 106.99 18.1596 107.63 17.7531C108.274 17.3466 109.026 17.1434 109.888 17.1434C110.411 17.1434 110.918 17.2299 111.409 17.403C111.9 17.576 112.341 17.8477 112.731 18.218C113.121 18.5882 113.429 19.0692 113.655 19.6608C113.88 20.2484 113.993 20.9628 113.993 21.8039V22.4438H106.622V21.0915H112.224C112.224 20.6166 112.127 20.1961 111.934 19.8298C111.741 19.4596 111.469 19.1678 111.119 18.9545C110.773 18.7412 110.366 18.6345 109.9 18.6345C109.392 18.6345 108.95 18.7593 108.571 19.0088C108.197 19.2543 107.907 19.5763 107.702 19.9747C107.501 20.3691 107.4 20.7978 107.4 21.2606V22.317C107.4 22.9368 107.509 23.4641 107.726 23.8987C107.948 24.3334 108.256 24.6654 108.65 24.8948C109.044 25.1202 109.505 25.2329 110.032 25.2329C110.374 25.2329 110.686 25.1846 110.968 25.088C111.25 24.9874 111.493 24.8385 111.699 24.6413C111.904 24.4441 112.061 24.2006 112.169 23.9108L113.878 24.2187C113.741 24.7218 113.496 25.1625 113.141 25.5408C112.791 25.9151 112.351 26.2068 111.819 26.4161C111.292 26.6214 110.69 26.724 110.014 26.724ZM124.4 26.724C123.531 26.724 122.772 26.5248 122.124 26.1263C121.476 25.7279 120.973 25.1705 120.615 24.4541C120.257 23.7377 120.078 22.9006 120.078 21.9428C120.078 20.9809 120.257 20.1397 120.615 19.4193C120.973 18.6989 121.476 18.1395 122.124 17.7411C122.772 17.3426 123.531 17.1434 124.4 17.1434C125.27 17.1434 126.028 17.3426 126.676 17.7411C127.324 18.1395 127.827 18.6989 128.185 19.4193C128.544 20.1397 128.723 20.9809 128.723 21.9428C128.723 22.9006 128.544 23.7377 128.185 24.4541C127.827 25.1705 127.324 25.7279 126.676 26.1263C126.028 26.5248 125.27 26.724 124.4 26.724ZM124.406 25.2087C124.97 25.2087 125.437 25.0598 125.807 24.762C126.177 24.4642 126.451 24.0678 126.628 23.5727C126.809 23.0777 126.9 22.5324 126.9 21.9367C126.9 21.3451 126.809 20.8018 126.628 20.3067C126.451 19.8077 126.177 19.4072 125.807 19.1054C125.437 18.8036 124.97 18.6526 124.406 18.6526C123.839 18.6526 123.368 18.8036 122.994 19.1054C122.623 19.4072 122.348 19.8077 122.167 20.3067C121.99 20.8018 121.901 21.3451 121.901 21.9367C121.901 22.5324 121.99 23.0777 122.167 23.5727C122.348 24.0678 122.623 24.4642 122.994 24.762C123.368 25.0598 123.839 25.2087 124.406 25.2087ZM132.543 21.0312V26.5369H130.738V17.2641H132.47V18.7734H132.585C132.798 18.2824 133.132 17.888 133.587 17.5901C134.046 17.2923 134.623 17.1434 135.32 17.1434C135.951 17.1434 136.505 17.2762 136.98 17.5418C137.455 17.8034 137.823 18.1938 138.085 18.713C138.346 19.2322 138.477 19.8741 138.477 20.6388V26.5369H136.672V20.8561C136.672 20.184 136.497 19.6588 136.147 19.2805C135.797 18.8981 135.316 18.707 134.704 18.707C134.285 18.707 133.913 18.7975 133.587 18.9786C133.265 19.1597 133.009 19.4254 132.82 19.7755C132.635 20.1216 132.543 20.5402 132.543 21.0312Z" fill="#E8E8E8"/>
<path d="M153.05 18.2119C152.982 17.9584 152.881 17.735 152.748 17.5418C152.615 17.3446 152.452 17.1776 152.259 17.0408C152.066 16.9039 151.845 16.8013 151.595 16.7329C151.346 16.6604 151.072 16.6242 150.774 16.6242C150.174 16.6242 149.655 16.7691 149.217 17.0589C148.782 17.3487 148.446 17.7712 148.208 18.3266C147.971 18.878 147.852 19.5481 147.852 20.3369C147.852 21.1298 147.967 21.8059 148.196 22.3653C148.426 22.9248 148.758 23.3514 149.192 23.6452C149.627 23.939 150.154 24.0859 150.774 24.0859C151.322 24.0859 151.784 23.9973 152.163 23.8202C152.545 23.6391 152.835 23.3836 153.032 23.0536C153.229 22.7235 153.328 22.3352 153.328 21.8884L153.883 21.9548H150.877V19.7755H156.207V21.4115C156.207 22.5183 155.972 23.4661 155.501 24.2549C155.034 25.0437 154.39 25.6494 153.569 26.072C152.752 26.4946 151.813 26.7059 150.75 26.7059C149.571 26.7059 148.534 26.4503 147.641 25.9392C146.748 25.4281 146.051 24.6996 145.552 23.7538C145.053 22.804 144.804 21.6771 144.804 20.3732C144.804 19.359 144.955 18.4594 145.256 17.6746C145.558 16.8858 145.979 16.2177 146.518 15.6704C147.061 15.123 147.689 14.7085 148.402 14.4268C149.118 14.1451 149.889 14.0042 150.714 14.0042C151.43 14.0042 152.096 14.1068 152.712 14.3121C153.332 14.5173 153.879 14.8071 154.354 15.1814C154.833 15.5557 155.221 16.0004 155.519 16.5156C155.817 17.0307 156.002 17.5962 156.075 18.2119H153.05ZM158.55 26.5369V17.2641H161.502V26.5369H158.55ZM160.029 16.1835C159.614 16.1835 159.258 16.0467 158.96 15.773C158.662 15.4953 158.514 15.1613 158.514 14.7709C158.514 14.3845 158.662 14.0545 158.96 13.7808C159.258 13.5031 159.614 13.3643 160.029 13.3643C160.447 13.3643 160.804 13.5031 161.097 13.7808C161.395 14.0545 161.544 14.3845 161.544 14.7709C161.544 15.1613 161.395 15.4953 161.097 15.773C160.804 16.0467 160.447 16.1835 160.029 16.1835ZM168.615 17.2641V19.4374H162.765V17.2641H168.615ZM163.991 15.0425H166.943V23.621C166.943 23.8021 166.971 23.949 167.027 24.0617C167.087 24.1704 167.174 24.2489 167.287 24.2972C167.399 24.3414 167.534 24.3636 167.691 24.3636C167.804 24.3636 167.923 24.3535 168.047 24.3334C168.176 24.3092 168.273 24.2891 168.337 24.273L168.784 26.404C168.643 26.4443 168.444 26.4946 168.186 26.555C167.933 26.6153 167.629 26.6536 167.275 26.6697C166.582 26.7019 165.989 26.6214 165.494 26.4282C165.003 26.231 164.626 25.9251 164.365 25.5106C164.107 25.096 163.982 24.5749 163.991 23.947V15.0425ZM174.356 26.7119C173.386 26.7119 172.549 26.5208 171.845 26.1384C171.144 25.7521 170.605 25.2027 170.227 24.4903C169.852 23.774 169.665 22.9228 169.665 21.9367C169.665 20.9789 169.854 20.1417 170.233 19.4254C170.611 18.7049 171.144 18.1455 171.832 17.7471C172.521 17.3446 173.332 17.1434 174.265 17.1434C174.925 17.1434 175.529 17.246 176.076 17.4513C176.624 17.6565 177.097 17.9604 177.495 18.3629C177.894 18.7653 178.203 19.2624 178.425 19.854C178.646 20.4416 178.757 21.1157 178.757 21.8763V22.6129H170.698V20.8984H176.01C176.006 20.5844 175.932 20.3047 175.787 20.0592C175.642 19.8137 175.443 19.6226 175.189 19.4857C174.939 19.3449 174.652 19.2744 174.326 19.2744C173.996 19.2744 173.7 19.3489 173.438 19.4978C173.177 19.6427 172.969 19.8419 172.817 20.0955C172.664 20.345 172.583 20.6287 172.575 20.9467V22.6913C172.575 23.0697 172.649 23.4017 172.798 23.6874C172.947 23.9692 173.159 24.1885 173.432 24.3455C173.706 24.5024 174.032 24.5809 174.41 24.5809C174.672 24.5809 174.909 24.5447 175.123 24.4722C175.336 24.3998 175.519 24.2931 175.672 24.1523C175.825 24.0114 175.94 23.8384 176.016 23.6331L178.727 23.7116C178.614 24.3193 178.366 24.8485 177.984 25.2993C177.606 25.746 177.109 26.0942 176.493 26.3437C175.877 26.5892 175.165 26.7119 174.356 26.7119ZM182.879 26.6938C182.287 26.6938 181.762 26.5952 181.303 26.398C180.848 26.1968 180.488 25.8949 180.222 25.4925C179.961 25.086 179.83 24.5769 179.83 23.9651C179.83 23.45 179.92 23.0153 180.102 22.6612C180.283 22.307 180.532 22.0192 180.85 21.7979C181.168 21.5765 181.534 21.4095 181.949 21.2968C182.363 21.1801 182.806 21.1016 183.277 21.0614C183.804 21.0131 184.229 20.9628 184.551 20.9104C184.873 20.8541 185.106 20.7756 185.251 20.675C185.4 20.5704 185.474 20.4235 185.474 20.2343V20.2041C185.474 19.8942 185.368 19.6548 185.154 19.4857C184.941 19.3167 184.653 19.2322 184.291 19.2322C183.901 19.2322 183.587 19.3167 183.349 19.4857C183.112 19.6548 182.961 19.8882 182.897 20.186L180.174 20.0894C180.255 19.526 180.462 19.0229 180.796 18.5802C181.134 18.1335 181.597 17.7833 182.184 17.5298C182.776 17.2722 183.486 17.1434 184.315 17.1434C184.907 17.1434 185.452 17.2138 185.951 17.3547C186.45 17.4915 186.885 17.6928 187.255 17.9584C187.626 18.22 187.911 18.542 188.113 18.9243C188.318 19.3066 188.42 19.7433 188.42 20.2343V26.5369H185.643V25.245H185.571C185.406 25.5589 185.195 25.8245 184.937 26.0418C184.684 26.2592 184.384 26.4222 184.038 26.5308C183.696 26.6395 183.309 26.6938 182.879 26.6938ZM183.79 24.762C184.108 24.762 184.394 24.6976 184.647 24.5688C184.905 24.44 185.11 24.2629 185.263 24.0376C185.416 23.8082 185.493 23.5425 185.493 23.2407V22.3593C185.408 22.4036 185.305 22.4438 185.185 22.48C185.068 22.5163 184.939 22.5505 184.798 22.5827C184.657 22.6149 184.513 22.643 184.364 22.6672C184.215 22.6913 184.072 22.7135 183.935 22.7336C183.657 22.7779 183.42 22.8463 183.223 22.9388C183.029 23.0314 182.881 23.1522 182.776 23.3011C182.675 23.446 182.625 23.619 182.625 23.8202C182.625 24.1261 182.734 24.3595 182.951 24.5205C183.172 24.6815 183.452 24.762 183.79 24.762Z" fill="white"/>
<path d="M153.05 18.2119C152.982 17.9584 152.881 17.735 152.748 17.5418C152.615 17.3446 152.452 17.1776 152.259 17.0408C152.066 16.9039 151.845 16.8013 151.595 16.7329C151.346 16.6604 151.072 16.6242 150.774 16.6242C150.174 16.6242 149.655 16.7691 149.217 17.0589C148.782 17.3487 148.446 17.7712 148.208 18.3266C147.971 18.878 147.852 19.5481 147.852 20.3369C147.852 21.1298 147.967 21.8059 148.196 22.3653C148.426 22.9248 148.758 23.3514 149.192 23.6452C149.627 23.939 150.154 24.0859 150.774 24.0859C151.322 24.0859 151.784 23.9973 152.163 23.8202C152.545 23.6391 152.835 23.3836 153.032 23.0536C153.229 22.7235 153.328 22.3352 153.328 21.8884L153.883 21.9548H150.877V19.7755H156.207V21.4115C156.207 22.5183 155.972 23.4661 155.501 24.2549C155.034 25.0437 154.39 25.6494 153.569 26.072C152.752 26.4946 151.813 26.7059 150.75 26.7059C149.571 26.7059 148.534 26.4503 147.641 25.9392C146.748 25.4281 146.051 24.6996 145.552 23.7538C145.053 22.804 144.804 21.6771 144.804 20.3732C144.804 19.359 144.955 18.4594 145.256 17.6746C145.558 16.8858 145.979 16.2177 146.518 15.6704C147.061 15.123 147.689 14.7085 148.402 14.4268C149.118 14.1451 149.889 14.0042 150.714 14.0042C151.43 14.0042 152.096 14.1068 152.712 14.3121C153.332 14.5173 153.879 14.8071 154.354 15.1814C154.833 15.5557 155.221 16.0004 155.519 16.5156C155.817 17.0307 156.002 17.5962 156.075 18.2119H153.05ZM158.55 26.5369V17.2641H161.502V26.5369H158.55ZM160.029 16.1835C159.614 16.1835 159.258 16.0467 158.96 15.773C158.662 15.4953 158.514 15.1613 158.514 14.7709C158.514 14.3845 158.662 14.0545 158.96 13.7808C159.258 13.5031 159.614 13.3643 160.029 13.3643C160.447 13.3643 160.804 13.5031 161.097 13.7808C161.395 14.0545 161.544 14.3845 161.544 14.7709C161.544 15.1613 161.395 15.4953 161.097 15.773C160.804 16.0467 160.447 16.1835 160.029 16.1835ZM168.615 17.2641V19.4374H162.765V17.2641H168.615ZM163.991 15.0425H166.943V23.621C166.943 23.8021 166.971 23.949 167.027 24.0617C167.087 24.1704 167.174 24.2489 167.287 24.2972C167.399 24.3414 167.534 24.3636 167.691 24.3636C167.804 24.3636 167.923 24.3535 168.047 24.3334C168.176 24.3092 168.273 24.2891 168.337 24.273L168.784 26.404C168.643 26.4443 168.444 26.4946 168.186 26.555C167.933 26.6153 167.629 26.6536 167.275 26.6697C166.582 26.7019 165.989 26.6214 165.494 26.4282C165.003 26.231 164.626 25.9251 164.365 25.5106C164.107 25.096 163.982 24.5749 163.991 23.947V15.0425ZM174.356 26.7119C173.386 26.7119 172.549 26.5208 171.845 26.1384C171.144 25.7521 170.605 25.2027 170.227 24.4903C169.852 23.774 169.665 22.9228 169.665 21.9367C169.665 20.9789 169.854 20.1417 170.233 19.4254C170.611 18.7049 171.144 18.1455 171.832 17.7471C172.521 17.3446 173.332 17.1434 174.265 17.1434C174.925 17.1434 175.529 17.246 176.076 17.4513C176.624 17.6565 177.097 17.9604 177.495 18.3629C177.894 18.7653 178.203 19.2624 178.425 19.854C178.646 20.4416 178.757 21.1157 178.757 21.8763V22.6129H170.698V20.8984H176.01C176.006 20.5844 175.932 20.3047 175.787 20.0592C175.642 19.8137 175.443 19.6226 175.189 19.4857C174.939 19.3449 174.652 19.2744 174.326 19.2744C173.996 19.2744 173.7 19.3489 173.438 19.4978C173.177 19.6427 172.969 19.8419 172.817 20.0955C172.664 20.345 172.583 20.6287 172.575 20.9467V22.6913C172.575 23.0697 172.649 23.4017 172.798 23.6874C172.947 23.9692 173.159 24.1885 173.432 24.3455C173.706 24.5024 174.032 24.5809 174.41 24.5809C174.672 24.5809 174.909 24.5447 175.123 24.4722C175.336 24.3998 175.519 24.2931 175.672 24.1523C175.825 24.0114 175.94 23.8384 176.016 23.6331L178.727 23.7116C178.614 24.3193 178.366 24.8485 177.984 25.2993C177.606 25.746 177.109 26.0942 176.493 26.3437C175.877 26.5892 175.165 26.7119 174.356 26.7119ZM182.879 26.6938C182.287 26.6938 181.762 26.5952 181.303 26.398C180.848 26.1968 180.488 25.8949 180.222 25.4925C179.961 25.086 179.83 24.5769 179.83 23.9651C179.83 23.45 179.92 23.0153 180.102 22.6612C180.283 22.307 180.532 22.0192 180.85 21.7979C181.168 21.5765 181.534 21.4095 181.949 21.2968C182.363 21.1801 182.806 21.1016 183.277 21.0614C183.804 21.0131 184.229 20.9628 184.551 20.9104C184.873 20.8541 185.106 20.7756 185.251 20.675C185.4 20.5704 185.474 20.4235 185.474 20.2343V20.2041C185.474 19.8942 185.368 19.6548 185.154 19.4857C184.941 19.3167 184.653 19.2322 184.291 19.2322C183.901 19.2322 183.587 19.3167 183.349 19.4857C183.112 19.6548 182.961 19.8882 182.897 20.186L180.174 20.0894C180.255 19.526 180.462 19.0229 180.796 18.5802C181.134 18.1335 181.597 17.7833 182.184 17.5298C182.776 17.2722 183.486 17.1434 184.315 17.1434C184.907 17.1434 185.452 17.2138 185.951 17.3547C186.45 17.4915 186.885 17.6928 187.255 17.9584C187.626 18.22 187.911 18.542 188.113 18.9243C188.318 19.3066 188.42 19.7433 188.42 20.2343V26.5369H185.643V25.245H185.571C185.406 25.5589 185.195 25.8245 184.937 26.0418C184.684 26.2592 184.384 26.4222 184.038 26.5308C183.696 26.6395 183.309 26.6938 182.879 26.6938ZM183.79 24.762C184.108 24.762 184.394 24.6976 184.647 24.5688C184.905 24.44 185.11 24.2629 185.263 24.0376C185.416 23.8082 185.493 23.5425 185.493 23.2407V22.3593C185.408 22.4036 185.305 22.4438 185.185 22.48C185.068 22.5163 184.939 22.5505 184.798 22.5827C184.657 22.6149 184.513 22.643 184.364 22.6672C184.215 22.6913 184.072 22.7135 183.935 22.7336C183.657 22.7779 183.42 22.8463 183.223 22.9388C183.029 23.0314 182.881 23.1522 182.776 23.3011C182.675 23.446 182.625 23.619 182.625 23.8202C182.625 24.1261 182.734 24.3595 182.951 24.5205C183.172 24.6815 183.452 24.762 183.79 24.762Z" fill="url(#paint1_linear_2_952)"/>
</g>
<rect x="1.0707" y="1.10756" width="195.858" height="37.8585" rx="6.92857" stroke="white" stroke-opacity="0.15" stroke-width="2.14286"/>
<defs>
<filter id="filter0_d_2_952" x="2.39899" y="0.435853" width="39.2035" height="39.2019" filterUnits="userSpaceOnUse" color-interpolation-filters="sRGB">
<feFlood flood-opacity="0" result="BackgroundImageFix"/>
<feColorMatrix in="SourceAlpha" type="matrix" values="0 0 0 0 0 0 0 0 0 0 0 0 0 0 0 0 0 0 127 0" result="hardAlpha"/>
<feOffset/>
<feGaussianBlur stdDeviation="2.80014"/>
<feComposite in2="hardAlpha" operator="out"/>
<feColorMatrix type="matrix" values="0 0 0 0 0 0 0 0 0 0 0 0 0 0 0 0 0 0 0.25 0"/>
<feBlend mode="normal" in2="BackgroundImageFix" result="effect1_dropShadow_2_952"/>
<feBlend mode="normal" in="SourceGraphic" in2="effect1_dropShadow_2_952" result="shape"/>
</filter>
<filter id="filter1_d_2_952" x="36.2864" y="3.82258" width="159.429" height="32.4286" filterUnits="userSpaceOnUse" color-interpolation-filters="sRGB">
<feFlood flood-opacity="0" result="BackgroundImageFix"/>
<feColorMatrix in="SourceAlpha" type="matrix" values="0 0 0 0 0 0 0 0 0 0 0 0 0 0 0 0 0 0 127 0" result="hardAlpha"/>
<feOffset/>
<feGaussianBlur stdDeviation="2.85714"/>
<feComposite in2="hardAlpha" operator="out"/>
<feColorMatrix type="matrix" values="0 0 0 0 0 0 0 0 0 0 0 0 0 0 0 0 0 0 0.25 0"/>
<feBlend mode="normal" in2="BackgroundImageFix" result="effect1_dropShadow_2_952"/>
<feBlend mode="normal" in="SourceGraphic" in2="effect1_dropShadow_2_952" result="shape"/>
</filter>
<linearGradient id="paint0_linear_2_952" x1="98.9999" y1="0.0361328" x2="98.9999" y2="40.0375" gradientUnits="userSpaceOnUse">
<stop stop-color="#263813"/>
<stop offset="1" stop-color="#131F07"/>
</linearGradient>
<linearGradient id="paint1_linear_2_952" x1="167.001" y1="9.53687" x2="167.001" y2="30.5369" gradientUnits="userSpaceOnUse">
<stop stop-color="#7AB3DE"/>
<stop stop-color="#7AB3DE"/>
<stop offset="0.0001" stop-color="#68A52B"/>
<stop offset="1" stop-color="#8AC74D"/>
</linearGradient>
</defs>
</svg>
