<svg width="148" height="28" viewBox="0 0 148 28" fill="none" xmlns="http://www.w3.org/2000/svg">
<g clip-path="url(#clip0_28_2565)">
<rect x="0.499268" y="-3.8147e-06" width="147.5" height="28" rx="6" fill="url(#paint0_linear_28_2565)"/>
<g filter="url(#filter0_d_28_2565)">
<path d="M16.4999 4.35776C10.9752 4.35776 6.49927 8.78624 6.49927 14.2442C6.49927 18.6146 9.36445 22.3189 13.3353 23.6257C13.8372 23.719 14.0185 23.4132 14.0185 23.1487C14.0185 22.9139 14.0129 22.2929 14.0091 21.4686C11.2258 22.0643 10.6395 20.1395 10.6395 20.1395C10.1839 19.0001 9.52633 18.6943 9.52633 18.6943C8.62128 18.0832 9.59821 18.0961 9.59821 18.0961C10.6008 18.1635 11.1283 19.1126 11.1283 19.1126C12.0202 20.6252 13.4685 20.1877 14.0416 19.9332C14.1291 19.2961 14.3898 18.858 14.6735 18.6139C12.4534 18.3662 10.1189 17.5165 10.1189 13.7282C10.1189 12.6463 10.5064 11.7651 11.1471 11.0731C11.0364 10.8253 10.6977 9.81814 11.2352 8.45628C11.2352 8.45628 12.0721 8.19244 13.9854 9.47026C14.786 9.2509 15.6361 9.14154 16.4855 9.13597C17.3356 9.14154 18.185 9.25152 18.9857 9.47026C20.8877 8.19244 21.724 8.45628 21.724 8.45628C22.2609 9.81814 21.9221 10.8247 21.8246 11.0731C22.459 11.7651 22.8465 12.6469 22.8465 13.7282C22.8465 17.5252 20.5089 18.3624 18.2863 18.604C18.6338 18.9 18.9594 19.5087 18.9594 20.4324C18.9594 21.7547 18.9469 22.82 18.9469 23.1419C18.9469 23.3989 19.1219 23.7079 19.637 23.6084C23.6372 22.3152 26.4993 18.6078 26.4993 14.2435C26.4993 8.78563 22.0234 4.35714 16.4986 4.35714L16.4999 4.35776Z" fill="white"/>
</g>
<g filter="url(#filter1_d_28_2565)">
<path d="M34.054 18.5H32.7727L35.6516 10.5H37.0461L39.925 18.5H38.6438L36.3821 11.9531H36.3196L34.054 18.5ZM34.2688 15.3672H38.425V16.3828H34.2688V15.3672ZM45.3674 12.5L43.1916 18.5H41.9416L39.762 12.5H41.0159L42.5354 17.1172H42.5979L44.1135 12.5H45.3674ZM48.0393 18.6328C47.6591 18.6328 47.3153 18.5625 47.0081 18.4219C46.7008 18.2786 46.4573 18.0716 46.2776 17.8008C46.1005 17.5299 46.012 17.1979 46.012 16.8047C46.012 16.4661 46.0771 16.1875 46.2073 15.9687C46.3375 15.75 46.5133 15.5768 46.7346 15.4492C46.956 15.3216 47.2034 15.2253 47.4768 15.1602C47.7502 15.095 48.0289 15.0456 48.3127 15.0117C48.6721 14.97 48.9638 14.9362 49.1877 14.9102C49.4117 14.8815 49.5745 14.8359 49.676 14.7734C49.7776 14.7109 49.8284 14.6094 49.8284 14.4687V14.4414C49.8284 14.1003 49.732 13.8359 49.5393 13.6484C49.3492 13.4609 49.0653 13.3672 48.6877 13.3672C48.2945 13.3672 47.9846 13.4544 47.7581 13.6289C47.5341 13.8008 47.3791 13.9922 47.2932 14.2031L46.1956 13.9531C46.3258 13.5885 46.5159 13.2943 46.7659 13.0703C47.0185 12.8437 47.3088 12.6797 47.637 12.5781C47.9651 12.474 48.3101 12.4219 48.6721 12.4219C48.9117 12.4219 49.1656 12.4505 49.4338 12.5078C49.7047 12.5625 49.9573 12.6641 50.1916 12.8125C50.4286 12.9609 50.6226 13.1732 50.7737 13.4492C50.9247 13.7227 51.0002 14.0781 51.0002 14.5156V18.5H49.8596V17.6797H49.8127C49.7372 17.8307 49.6239 17.9792 49.4729 18.125C49.3219 18.2708 49.1278 18.3919 48.8909 18.4883C48.6539 18.5846 48.37 18.6328 48.0393 18.6328ZM48.2932 17.6953C48.6161 17.6953 48.8922 17.6315 49.1213 17.5039C49.3531 17.3763 49.5289 17.2096 49.6487 17.0039C49.7711 16.7956 49.8323 16.5729 49.8323 16.3359V15.5625C49.7906 15.6042 49.7099 15.6432 49.5901 15.6797C49.4729 15.7135 49.3388 15.7435 49.1877 15.7695C49.0367 15.793 48.8896 15.8151 48.7463 15.8359C48.6031 15.8542 48.4833 15.8698 48.387 15.8828C48.1604 15.9115 47.9534 15.9596 47.7659 16.0273C47.581 16.095 47.4325 16.1927 47.3206 16.3203C47.2112 16.4453 47.1565 16.612 47.1565 16.8203C47.1565 17.1094 47.2633 17.3281 47.4768 17.4766C47.6903 17.6224 47.9625 17.6953 48.2932 17.6953ZM52.5559 18.5V12.5H53.7239V18.5H52.5559ZM53.1457 11.5742C52.9426 11.5742 52.7681 11.5065 52.6223 11.3711C52.4791 11.2331 52.4075 11.069 52.4075 10.8789C52.4075 10.6862 52.4791 10.5221 52.6223 10.3867C52.7681 10.2487 52.9426 10.1797 53.1457 10.1797C53.3489 10.1797 53.522 10.2487 53.6653 10.3867C53.8111 10.5221 53.884 10.6862 53.884 10.8789C53.884 11.069 53.8111 11.2331 53.6653 11.3711C53.522 11.5065 53.3489 11.5742 53.1457 11.5742ZM56.4631 10.5V18.5H55.2952V10.5H56.4631ZM59.7805 18.6328C59.4003 18.6328 59.0566 18.5625 58.7493 18.4219C58.442 18.2786 58.1985 18.0716 58.0188 17.8008C57.8417 17.5299 57.7532 17.1979 57.7532 16.8047C57.7532 16.4661 57.8183 16.1875 57.9485 15.9687C58.0787 15.75 58.2545 15.5768 58.4758 15.4492C58.6972 15.3216 58.9446 15.2253 59.218 15.1602C59.4914 15.095 59.7701 15.0456 60.0539 15.0117C60.4133 14.97 60.705 14.9362 60.9289 14.9102C61.1529 14.8815 61.3157 14.8359 61.4172 14.7734C61.5188 14.7109 61.5696 14.6094 61.5696 14.4687V14.4414C61.5696 14.1003 61.4732 13.8359 61.2805 13.6484C61.0904 13.4609 60.8066 13.3672 60.4289 13.3672C60.0357 13.3672 59.7258 13.4544 59.4993 13.6289C59.2753 13.8008 59.1204 13.9922 59.0344 14.2031L57.9368 13.9531C58.067 13.5885 58.2571 13.2943 58.5071 13.0703C58.7597 12.8437 59.05 12.6797 59.3782 12.5781C59.7063 12.474 60.0513 12.4219 60.4133 12.4219C60.6529 12.4219 60.9068 12.4505 61.175 12.5078C61.4459 12.5625 61.6985 12.6641 61.9329 12.8125C62.1698 12.9609 62.3638 13.1732 62.5149 13.4492C62.6659 13.7227 62.7414 14.0781 62.7414 14.5156V18.5H61.6008V17.6797H61.5539C61.4784 17.8307 61.3651 17.9792 61.2141 18.125C61.0631 18.2708 60.8691 18.3919 60.6321 18.4883C60.3951 18.5846 60.1112 18.6328 59.7805 18.6328ZM60.0344 17.6953C60.3573 17.6953 60.6334 17.6315 60.8625 17.5039C61.0943 17.3763 61.2701 17.2096 61.3899 17.0039C61.5123 16.7956 61.5735 16.5729 61.5735 16.3359V15.5625C61.5318 15.6042 61.4511 15.6432 61.3313 15.6797C61.2141 15.7135 61.08 15.7435 60.9289 15.7695C60.7779 15.793 60.6308 15.8151 60.4875 15.8359C60.3443 15.8542 60.2245 15.8698 60.1282 15.8828C59.9016 15.9115 59.6946 15.9596 59.5071 16.0273C59.3222 16.095 59.1737 16.1927 59.0618 16.3203C58.9524 16.4453 58.8977 16.612 58.8977 16.8203C58.8977 17.1094 59.0045 17.3281 59.218 17.4766C59.4316 17.6224 59.7037 17.6953 60.0344 17.6953ZM64.3909 18.5V10.5H65.5588V13.4727H65.6291C65.6968 13.3477 65.7945 13.2031 65.9221 13.0391C66.0497 12.875 66.2268 12.7318 66.4534 12.6094C66.6799 12.4844 66.9794 12.4219 67.3518 12.4219C67.8362 12.4219 68.2685 12.5443 68.6487 12.7891C69.0289 13.0338 69.3271 13.3867 69.5432 13.8477C69.762 14.3086 69.8713 14.8633 69.8713 15.5117C69.8713 16.1601 69.7633 16.7161 69.5471 17.1797C69.331 17.6406 69.0341 17.9961 68.6565 18.2461C68.2789 18.4935 67.8479 18.6172 67.3635 18.6172C66.9989 18.6172 66.7008 18.556 66.469 18.4336C66.2398 18.3112 66.0601 18.168 65.9299 18.0039C65.7997 17.8398 65.6995 17.694 65.6291 17.5664H65.5315V18.5H64.3909ZM65.5354 15.5C65.5354 15.9219 65.5966 16.2917 65.719 16.6094C65.8414 16.9271 66.0185 17.1758 66.2502 17.3555C66.482 17.5325 66.7659 17.6211 67.1018 17.6211C67.4508 17.6211 67.7424 17.5286 67.9768 17.3437C68.2112 17.1562 68.3883 16.9023 68.508 16.582C68.6304 16.2617 68.6916 15.901 68.6916 15.5C68.6916 15.1042 68.6317 14.7487 68.512 14.4336C68.3948 14.1185 68.2177 13.8698 67.9807 13.6875C67.7463 13.5052 67.4534 13.4141 67.1018 13.4141C66.7633 13.4141 66.4768 13.5013 66.2424 13.6758C66.0107 13.8503 65.8349 14.0937 65.7151 14.4062C65.5953 14.7187 65.5354 15.0833 65.5354 15.5ZM72.3508 10.5V18.5H71.1828V10.5H72.3508ZM76.508 18.6211C75.9169 18.6211 75.4078 18.4948 74.9807 18.2422C74.5562 17.987 74.2281 17.6289 73.9963 17.168C73.7672 16.7044 73.6526 16.1615 73.6526 15.5391C73.6526 14.9245 73.7672 14.3828 73.9963 13.9141C74.2281 13.4453 74.551 13.0794 74.9651 12.8164C75.3817 12.5534 75.8687 12.4219 76.426 12.4219C76.7646 12.4219 77.0927 12.4779 77.4104 12.5898C77.7281 12.7018 78.0133 12.8776 78.2659 13.1172C78.5185 13.3568 78.7177 13.668 78.8635 14.0508C79.0093 14.431 79.0823 14.8932 79.0823 15.4375V15.8516H74.3127V14.9766H77.9377C77.9377 14.6693 77.8752 14.3971 77.7502 14.1602C77.6252 13.9206 77.4494 13.7318 77.2229 13.5937C76.9989 13.4557 76.7359 13.3867 76.4338 13.3867C76.1057 13.3867 75.8192 13.4674 75.5745 13.6289C75.3323 13.7878 75.1448 13.9961 75.012 14.2539C74.8817 14.5091 74.8166 14.7865 74.8166 15.0859V15.7695C74.8166 16.1706 74.887 16.5117 75.0276 16.793C75.1708 17.0742 75.37 17.2891 75.6252 17.4375C75.8804 17.5833 76.1786 17.6562 76.5198 17.6562C76.7411 17.6562 76.9429 17.625 77.1252 17.5625C77.3075 17.4974 77.4651 17.401 77.5979 17.2734C77.7307 17.1458 77.8323 16.9883 77.9026 16.8008L79.008 17C78.9195 17.3255 78.7606 17.6107 78.5315 17.8555C78.3049 18.0976 78.0198 18.2865 77.676 18.4219C77.3349 18.5547 76.9455 18.6211 76.508 18.6211ZM85.8166 18.6211C85.2541 18.6211 84.7632 18.4922 84.344 18.2344C83.9247 17.9766 83.5992 17.6159 83.3674 17.1523C83.1356 16.6888 83.0198 16.1471 83.0198 15.5273C83.0198 14.9049 83.1356 14.3607 83.3674 13.8945C83.5992 13.4284 83.9247 13.0664 84.344 12.8086C84.7632 12.5508 85.2541 12.4219 85.8166 12.4219C86.3791 12.4219 86.87 12.5508 87.2893 12.8086C87.7086 13.0664 88.0341 13.4284 88.2659 13.8945C88.4976 14.3607 88.6135 14.9049 88.6135 15.5273C88.6135 16.1471 88.4976 16.6888 88.2659 17.1523C88.0341 17.6159 87.7086 17.9766 87.2893 18.2344C86.87 18.4922 86.3791 18.6211 85.8166 18.6211ZM85.8205 17.6406C86.1851 17.6406 86.4872 17.5443 86.7268 17.3516C86.9664 17.1588 87.1435 16.9023 87.258 16.582C87.3752 16.2617 87.4338 15.9088 87.4338 15.5234C87.4338 15.1406 87.3752 14.7891 87.258 14.4687C87.1435 14.1458 86.9664 13.8867 86.7268 13.6914C86.4872 13.4961 86.1851 13.3984 85.8205 13.3984C85.4534 13.3984 85.1487 13.4961 84.9065 13.6914C84.6669 13.8867 84.4885 14.1458 84.3713 14.4687C84.2567 14.7891 84.1994 15.1406 84.1994 15.5234C84.1994 15.9088 84.2567 16.2617 84.3713 16.582C84.4885 16.9023 84.6669 17.1588 84.9065 17.3516C85.1487 17.5443 85.4534 17.6406 85.8205 17.6406ZM91.0852 14.9375V18.5H89.9172V12.5H91.0383V13.4766H91.1125C91.2506 13.1588 91.4667 12.9036 91.761 12.7109C92.0578 12.5182 92.4315 12.4219 92.8821 12.4219C93.2909 12.4219 93.649 12.5078 93.9563 12.6797C94.2636 12.849 94.5019 13.1016 94.6711 13.4375C94.8404 13.7734 94.925 14.1888 94.925 14.6836V18.5H93.7571V14.8242C93.7571 14.3893 93.6438 14.0495 93.4172 13.8047C93.1907 13.5573 92.8795 13.4336 92.4836 13.4336C92.2128 13.4336 91.9719 13.4922 91.761 13.6094C91.5526 13.7266 91.3873 13.8984 91.2649 14.125C91.1451 14.349 91.0852 14.6198 91.0852 14.9375Z" fill="#E8E8E8"/>
<path d="M105.387 12.6236C105.339 12.4446 105.268 12.2869 105.174 12.1506C105.08 12.0114 104.965 11.8935 104.829 11.7969C104.692 11.7003 104.536 11.6278 104.36 11.5795C104.184 11.5284 103.991 11.5028 103.781 11.5028C103.357 11.5028 102.991 11.6051 102.681 11.8097C102.374 12.0142 102.137 12.3125 101.969 12.7045C101.802 13.0937 101.718 13.5668 101.718 14.1236C101.718 14.6832 101.799 15.1605 101.961 15.5554C102.123 15.9503 102.357 16.2514 102.664 16.4588C102.971 16.6662 103.343 16.7699 103.781 16.7699C104.167 16.7699 104.494 16.7074 104.761 16.5824C105.031 16.4545 105.235 16.2741 105.374 16.0412C105.513 15.8082 105.583 15.5341 105.583 15.2187L105.975 15.2656H103.853V13.7273H107.616V14.8821C107.616 15.6633 107.45 16.3324 107.117 16.8892C106.788 17.446 106.333 17.8736 105.754 18.1719C105.177 18.4702 104.513 18.6193 103.763 18.6193C102.931 18.6193 102.2 18.4389 101.569 18.0781C100.938 17.7173 100.447 17.2031 100.094 16.5355C99.7422 15.8651 99.566 15.0696 99.566 14.1491C99.566 13.4332 99.6726 12.7983 99.8856 12.2443C100.099 11.6875 100.396 11.2159 100.776 10.8295C101.16 10.4432 101.603 10.1506 102.106 9.9517C102.611 9.75284 103.156 9.6534 103.738 9.6534C104.244 9.6534 104.714 9.72585 105.148 9.87073C105.586 10.0156 105.972 10.2202 106.308 10.4844C106.646 10.7486 106.92 11.0625 107.13 11.4261C107.34 11.7898 107.471 12.1889 107.522 12.6236H105.387ZM109.269 18.5V11.9545H111.353V18.5H109.269ZM110.313 11.1918C110.021 11.1918 109.769 11.0952 109.559 10.902C109.349 10.706 109.244 10.4702 109.244 10.1946C109.244 9.92187 109.349 9.68892 109.559 9.49573C109.769 9.29971 110.021 9.2017 110.313 9.2017C110.609 9.2017 110.86 9.29971 111.067 9.49573C111.278 9.68892 111.383 9.92187 111.383 10.1946C111.383 10.4702 111.278 10.706 111.067 10.902C110.86 11.0952 110.609 11.1918 110.313 11.1918ZM116.374 11.9545V13.4886H112.245V11.9545H116.374ZM113.11 10.3864H115.194V16.4418C115.194 16.5696 115.213 16.6733 115.253 16.7528C115.296 16.8295 115.357 16.8849 115.436 16.919C115.516 16.9503 115.611 16.9659 115.722 16.9659C115.801 16.9659 115.885 16.9588 115.973 16.9446C116.064 16.9276 116.132 16.9133 116.178 16.902L116.493 18.4062C116.394 18.4347 116.253 18.4702 116.071 18.5128C115.892 18.5554 115.678 18.5824 115.428 18.5937C114.939 18.6165 114.52 18.5597 114.171 18.4233C113.824 18.2841 113.559 18.0682 113.374 17.7756C113.192 17.4829 113.104 17.1151 113.11 16.6719V10.3864ZM117.578 18.5V9.77272H119.687V13.2756H123.126V9.77272H125.231V18.5H123.126V14.9929H119.687V18.5H117.578ZM130.777 15.6747V11.9545H132.857V18.5H130.871V17.2812H130.803C130.658 17.6818 130.411 18 130.061 18.2358C129.715 18.4687 129.296 18.5852 128.804 18.5852C128.358 18.5852 127.966 18.4829 127.628 18.2784C127.29 18.0739 127.027 17.7883 126.84 17.4219C126.652 17.0526 126.557 16.6207 126.554 16.1264V11.9545H128.638V15.7173C128.641 16.0724 128.735 16.3523 128.919 16.5568C129.104 16.7614 129.355 16.8636 129.674 16.8636C129.881 16.8636 130.067 16.8182 130.232 16.7273C130.399 16.6335 130.532 16.4986 130.628 16.3224C130.728 16.1435 130.777 15.9276 130.777 15.6747ZM134.183 18.5V9.77272H136.267V13.0753H136.31C136.395 12.8764 136.516 12.6847 136.672 12.5C136.831 12.3153 137.033 12.1648 137.277 12.0483C137.524 11.929 137.82 11.8693 138.163 11.8693C138.618 11.8693 139.043 11.9886 139.437 12.2273C139.835 12.4659 140.156 12.8338 140.401 13.331C140.645 13.8281 140.767 14.4616 140.767 15.2315C140.767 15.973 140.649 16.5937 140.413 17.0937C140.18 17.5937 139.865 17.9687 139.467 18.2187C139.072 18.4687 138.633 18.5937 138.151 18.5937C137.821 18.5937 137.535 18.5398 137.294 18.4318C137.053 18.3239 136.849 18.1818 136.685 18.0057C136.523 17.8295 136.398 17.6406 136.31 17.4389H136.246V18.5H134.183ZM136.224 15.2273C136.224 15.5795 136.271 15.8864 136.365 16.1477C136.462 16.4091 136.599 16.6122 136.778 16.7571C136.96 16.8991 137.178 16.9702 137.43 16.9702C137.686 16.9702 137.903 16.8991 138.082 16.7571C138.261 16.6122 138.396 16.4091 138.487 16.1477C138.581 15.8864 138.628 15.5795 138.628 15.2273C138.628 14.875 138.581 14.5696 138.487 14.3111C138.396 14.0526 138.261 13.8523 138.082 13.7102C137.906 13.5682 137.689 13.4972 137.43 13.4972C137.175 13.4972 136.957 13.5668 136.778 13.706C136.599 13.8452 136.462 14.044 136.365 14.3026C136.271 14.5611 136.224 14.8693 136.224 15.2273Z" fill="white"/>
</g>
</g>
<rect x="1.24927" y="0.749996" width="146" height="26.5" rx="5.25" stroke="white" stroke-opacity="0.15" stroke-width="1.5"/>
<defs>
<filter id="filter0_d_28_2565" x="2.49927" y="-3.8147e-06" width="28" height="28" filterUnits="userSpaceOnUse" color-interpolation-filters="sRGB">
<feFlood flood-opacity="0" result="BackgroundImageFix"/>
<feColorMatrix in="SourceAlpha" type="matrix" values="0 0 0 0 0 0 0 0 0 0 0 0 0 0 0 0 0 0 127 0" result="hardAlpha"/>
<feOffset/>
<feGaussianBlur stdDeviation="2"/>
<feComposite in2="hardAlpha" operator="out"/>
<feColorMatrix type="matrix" values="0 0 0 0 0 0 0 0 0 0 0 0 0 0 0 0 0 0 0.25 0"/>
<feBlend mode="normal" in2="BackgroundImageFix" result="effect1_dropShadow_28_2565"/>
<feBlend mode="normal" in="SourceGraphic" in2="effect1_dropShadow_28_2565" result="shape"/>
</filter>
<filter id="filter1_d_28_2565" x="28.4993" y="3.5" width="117.5" height="21" filterUnits="userSpaceOnUse" color-interpolation-filters="sRGB">
<feFlood flood-opacity="0" result="BackgroundImageFix"/>
<feColorMatrix in="SourceAlpha" type="matrix" values="0 0 0 0 0 0 0 0 0 0 0 0 0 0 0 0 0 0 127 0" result="hardAlpha"/>
<feOffset/>
<feGaussianBlur stdDeviation="2"/>
<feComposite in2="hardAlpha" operator="out"/>
<feColorMatrix type="matrix" values="0 0 0 0 0 0 0 0 0 0 0 0 0 0 0 0 0 0 0.25 0"/>
<feBlend mode="normal" in2="BackgroundImageFix" result="effect1_dropShadow_28_2565"/>
<feBlend mode="normal" in="SourceGraphic" in2="effect1_dropShadow_28_2565" result="shape"/>
</filter>
<linearGradient id="paint0_linear_28_2565" x1="74.2492" y1="-3.8147e-06" x2="74.2492" y2="28" gradientUnits="userSpaceOnUse">
<stop stop-color="#2B2B2B"/>
<stop offset="1" stop-color="#1C1C1C"/>
</linearGradient>
<clipPath id="clip0_28_2565">
<rect x="0.499268" y="-3.8147e-06" width="147.5" height="28" rx="6" fill="white"/>
</clipPath>
</defs>
</svg>
