<svg width="210" height="41" viewBox="0 0 210 41" fill="none" xmlns="http://www.w3.org/2000/svg">
<rect x="-0.000732422" y="0.00279236" width="210.001" height="40.0014" rx="8" fill="url(#paint0_linear_28_2571)"/>
<g filter="url(#filter0_d_28_2571)">
<path d="M22 33.0001L27.1563 17.0067H16.8438L22 33.0001Z" fill="#E24329"/>
<path d="M21.9998 33.0001L16.8435 17.0067H9.61816L21.9998 33.0001Z" fill="#FC6D26"/>
<path d="M9.61827 17.0067L8.05119 21.8671C7.98158 22.0832 7.98164 22.3159 8.05134 22.5319C8.12105 22.748 8.25682 22.9362 8.43921 23.0696L21.9999 33.0041L9.61827 17.0067Z" fill="#FCA326"/>
<path d="M9.61816 17.0067H16.8435L13.7384 7.37464C13.7033 7.2668 13.6354 7.17288 13.5443 7.10629C13.4531 7.03969 13.3434 7.00384 13.2308 7.00384C13.1183 7.00384 13.0086 7.03969 12.9174 7.10629C12.8263 7.17288 12.7583 7.2668 12.7233 7.37464L9.61816 17.0067Z" fill="#E24329"/>
<path d="M22 33.0001L27.1563 17.0067H34.3816L22 33.0001Z" fill="#FC6D26"/>
<path d="M34.3816 17.0067L35.9487 21.8671C36.0183 22.0832 36.0183 22.3159 35.9485 22.5319C35.8788 22.748 35.7431 22.9362 35.5607 23.0696L22 33.0041L34.3816 17.0067Z" fill="#FCA326"/>
<path d="M34.3816 17.0068H27.1562L30.2614 7.37364C30.2964 7.26581 30.3644 7.17189 30.4555 7.1053C30.5467 7.0387 30.6564 7.00285 30.7689 7.00285C30.8815 7.00285 30.9912 7.0387 31.0823 7.1053C31.1735 7.17189 31.2414 7.26581 31.2765 7.37364L34.3816 17.0068Z" fill="#E24329"/>
</g>
<g filter="url(#filter1_d_28_2571)">
<path d="M46.4034 26.5035H44.4233L48.8725 14.1399H51.0277L55.4769 26.5035H53.4968L50.0014 16.3856H49.9049L46.4034 26.5035ZM46.7355 21.6619H53.1588V23.2315H46.7355V21.6619ZM63.8879 17.2308L60.5253 26.5035H58.5935L55.2249 17.2308H57.1627L59.5111 24.3664H59.6077L61.95 17.2308H63.8879ZM68.0171 26.7087C67.4296 26.7087 66.8983 26.6001 66.4234 26.3828C65.9485 26.1614 65.5722 25.8414 65.2945 25.4229C65.0208 25.0043 64.884 24.4912 64.884 23.8835C64.884 23.3603 64.9846 22.9296 65.1858 22.5916C65.3871 22.2535 65.6587 21.9859 66.0008 21.7886C66.3429 21.5914 66.7252 21.4425 67.1478 21.3419C67.5704 21.2413 68.0011 21.1648 68.4397 21.1125C68.9951 21.0481 69.4459 20.9958 69.792 20.9556C70.1381 20.9113 70.3897 20.8408 70.5466 20.7443C70.7036 20.6477 70.7821 20.4907 70.7821 20.2734V20.2311C70.7821 19.7039 70.6332 19.2954 70.3353 19.0056C70.0415 18.7158 69.6028 18.571 69.0193 18.571C68.4116 18.571 67.9326 18.7058 67.5825 18.9754C67.2364 19.2411 66.9969 19.5369 66.8641 19.8629L65.1677 19.4765C65.3689 18.9131 65.6627 18.4583 66.0491 18.1122C66.4395 17.762 66.8882 17.5085 67.3953 17.3515C67.9024 17.1905 68.4357 17.11 68.9951 17.11C69.3654 17.11 69.7578 17.1543 70.1723 17.2428C70.5909 17.3274 70.9813 17.4843 71.3435 17.7137C71.7097 17.9431 72.0096 18.2711 72.243 18.6977C72.4764 19.1203 72.5931 19.6697 72.5931 20.3458V26.5035H70.8304V25.2357H70.7579C70.6412 25.4692 70.4661 25.6986 70.2327 25.9239C69.9993 26.1493 69.6994 26.3365 69.3332 26.4854C68.967 26.6343 68.5283 26.7087 68.0171 26.7087ZM68.4095 25.2599C68.9086 25.2599 69.3352 25.1613 69.6894 24.9641C70.0476 24.7669 70.3192 24.5093 70.5044 24.1913C70.6935 23.8694 70.7881 23.5253 70.7881 23.159V21.9637C70.7237 22.0281 70.5989 22.0885 70.4138 22.1448C70.2327 22.1971 70.0254 22.2434 69.792 22.2837C69.5586 22.3199 69.3312 22.3541 69.1098 22.3863C68.8885 22.4145 68.7033 22.4386 68.5544 22.4587C68.2043 22.503 67.8843 22.5775 67.5946 22.6821C67.3088 22.7868 67.0794 22.9377 66.9064 23.1349C66.7373 23.3281 66.6528 23.5856 66.6528 23.9076C66.6528 24.3543 66.8178 24.6924 67.1478 24.9218C67.4779 25.1472 67.8984 25.2599 68.4095 25.2599ZM74.9973 26.5035V17.2308H76.8024V26.5035H74.9973ZM75.9089 15.8C75.595 15.8 75.3254 15.6954 75.1 15.4861C74.8786 15.2728 74.7679 15.0192 74.7679 14.7254C74.7679 14.4276 74.8786 14.1741 75.1 13.9648C75.3254 13.7515 75.595 13.6448 75.9089 13.6448C76.2228 13.6448 76.4905 13.7515 76.7118 13.9648C76.9372 14.1741 77.0499 14.4276 77.0499 14.7254C77.0499 15.0192 76.9372 15.2728 76.7118 15.4861C76.4905 15.6954 76.2228 15.8 75.9089 15.8ZM81.0358 14.1399V26.5035H79.2307V14.1399H81.0358ZM86.1627 26.7087C85.5751 26.7087 85.0438 26.6001 84.5689 26.3828C84.094 26.1614 83.7177 25.8414 83.44 25.4229C83.1663 25.0043 83.0295 24.4912 83.0295 23.8835C83.0295 23.3603 83.1301 22.9296 83.3313 22.5916C83.5326 22.2535 83.8042 21.9859 84.1463 21.7886C84.4884 21.5914 84.8707 21.4425 85.2933 21.3419C85.7159 21.2413 86.1466 21.1648 86.5852 21.1125C87.1406 21.0481 87.5914 20.9958 87.9375 20.9556C88.2836 20.9113 88.5352 20.8408 88.6921 20.7443C88.8491 20.6477 88.9276 20.4907 88.9276 20.2734V20.2311C88.9276 19.7039 88.7787 19.2954 88.4808 19.0056C88.187 18.7158 87.7484 18.571 87.1648 18.571C86.5571 18.571 86.0781 18.7058 85.728 18.9754C85.3819 19.2411 85.1424 19.5369 85.0096 19.8629L83.3132 19.4765C83.5145 18.9131 83.8082 18.4583 84.1946 18.1122C84.585 17.762 85.0337 17.5085 85.5408 17.3515C86.048 17.1905 86.5812 17.11 87.1406 17.11C87.5109 17.11 87.9033 17.1543 88.3178 17.2428C88.7364 17.3274 89.1268 17.4843 89.489 17.7137C89.8552 17.9431 90.1551 18.2711 90.3885 18.6977C90.6219 19.1203 90.7386 19.6697 90.7386 20.3458V26.5035H88.9759V25.2357H88.9034C88.7867 25.4692 88.6116 25.6986 88.3782 25.9239C88.1448 26.1493 87.8449 26.3365 87.4787 26.4854C87.1125 26.6343 86.6738 26.7087 86.1627 26.7087ZM86.5551 25.2599C87.0541 25.2599 87.4807 25.1613 87.8349 24.9641C88.1931 24.7669 88.4647 24.5093 88.6499 24.1913C88.839 23.8694 88.9336 23.5253 88.9336 23.159V21.9637C88.8692 22.0281 88.7444 22.0885 88.5593 22.1448C88.3782 22.1971 88.1709 22.2434 87.9375 22.2837C87.7041 22.3199 87.4767 22.3541 87.2553 22.3863C87.034 22.4145 86.8488 22.4386 86.6999 22.4587C86.3498 22.503 86.0298 22.5775 85.7401 22.6821C85.4543 22.7868 85.2249 22.9377 85.0519 23.1349C84.8828 23.3281 84.7983 23.5856 84.7983 23.9076C84.7983 24.3543 84.9633 24.6924 85.2933 24.9218C85.6234 25.1472 86.0439 25.2599 86.5551 25.2599ZM93.2877 26.5035V14.1399H95.0928V18.734H95.2014C95.3061 18.5408 95.457 18.3174 95.6542 18.0639C95.8514 17.8103 96.1251 17.589 96.4752 17.3998C96.8254 17.2066 97.2882 17.11 97.8637 17.11C98.6123 17.11 99.2804 17.2992 99.868 17.6775C100.456 18.0558 100.916 18.6011 101.25 19.3135C101.589 20.0259 101.758 20.8831 101.758 21.8852C101.758 22.8874 101.591 23.7466 101.256 24.463C100.922 25.1754 100.464 25.7247 99.8801 26.1111C99.2965 26.4934 98.6304 26.6846 97.8818 26.6846C97.3184 26.6846 96.8576 26.59 96.4994 26.4009C96.1452 26.2117 95.8675 25.9904 95.6663 25.7368C95.4651 25.4832 95.3101 25.2579 95.2014 25.0607H95.0505V26.5035H93.2877ZM95.0566 21.8671C95.0566 22.5191 95.1511 23.0906 95.3403 23.5816C95.5295 24.0726 95.8031 24.457 96.1613 24.7347C96.5195 25.0083 96.9582 25.1452 97.4774 25.1452C98.0167 25.1452 98.4674 25.0023 98.8296 24.7166C99.1919 24.4268 99.4655 24.0344 99.6507 23.5394C99.8398 23.0443 99.9344 22.4869 99.9344 21.8671C99.9344 21.2554 99.8418 20.706 99.6567 20.219C99.4756 19.7321 99.2019 19.3477 98.8357 19.066C98.4735 18.7843 98.0207 18.6434 97.4774 18.6434C96.9542 18.6434 96.5115 18.7782 96.1492 19.0479C95.7911 19.3175 95.5194 19.6938 95.3343 20.1768C95.1491 20.6597 95.0566 21.2232 95.0566 21.8671ZM105.589 14.1399V26.5035H103.784V14.1399H105.589ZM112.014 26.6906C111.101 26.6906 110.314 26.4954 109.654 26.1051C108.998 25.7106 108.491 25.1573 108.133 24.4449C107.778 23.7285 107.601 22.8894 107.601 21.9275C107.601 20.9777 107.778 20.1406 108.133 19.4161C108.491 18.6917 108.99 18.1262 109.63 17.7198C110.274 17.3133 111.026 17.11 111.888 17.11C112.411 17.11 112.918 17.1966 113.409 17.3696C113.9 17.5427 114.341 17.8143 114.731 18.1846C115.121 18.5549 115.429 19.0358 115.655 19.6274C115.88 20.215 115.993 20.9294 115.993 21.7705V22.4105H108.622V21.0582H114.224C114.224 20.5833 114.127 20.1627 113.934 19.7965C113.741 19.4262 113.469 19.1344 113.119 18.9211C112.773 18.7078 112.366 18.6011 111.9 18.6011C111.392 18.6011 110.95 18.7259 110.571 18.9754C110.197 19.2209 109.907 19.5429 109.702 19.9413C109.501 20.3358 109.4 20.7644 109.4 21.2272V22.2837C109.4 22.9035 109.509 23.4307 109.726 23.8654C109.948 24.3 110.256 24.632 110.65 24.8614C111.044 25.0868 111.505 25.1995 112.032 25.1995C112.374 25.1995 112.686 25.1512 112.968 25.0546C113.25 24.954 113.493 24.8051 113.699 24.6079C113.904 24.4107 114.061 24.1672 114.169 23.8774L115.878 24.1853C115.741 24.6884 115.496 25.1291 115.141 25.5074C114.791 25.8817 114.351 26.1735 113.819 26.3828C113.292 26.588 112.69 26.6906 112.014 26.6906ZM126.4 26.6906C125.531 26.6906 124.772 26.4914 124.124 26.093C123.476 25.6945 122.973 25.1371 122.615 24.4207C122.257 23.7044 122.078 22.8672 122.078 21.9094C122.078 20.9475 122.257 20.1064 122.615 19.3859C122.973 18.6655 123.476 18.1061 124.124 17.7077C124.772 17.3092 125.531 17.11 126.4 17.11C127.27 17.11 128.028 17.3092 128.676 17.7077C129.324 18.1061 129.827 18.6655 130.185 19.3859C130.544 20.1064 130.723 20.9475 130.723 21.9094C130.723 22.8672 130.544 23.7044 130.185 24.4207C129.827 25.1371 129.324 25.6945 128.676 26.093C128.028 26.4914 127.27 26.6906 126.4 26.6906ZM126.406 25.1754C126.97 25.1754 127.437 25.0265 127.807 24.7286C128.177 24.4308 128.451 24.0344 128.628 23.5394C128.809 23.0443 128.9 22.499 128.9 21.9033C128.9 21.3117 128.809 20.7684 128.628 20.2734C128.451 19.7743 128.177 19.3739 127.807 19.072C127.437 18.7702 126.97 18.6193 126.406 18.6193C125.839 18.6193 125.368 18.7702 124.994 19.072C124.623 19.3739 124.348 19.7743 124.167 20.2734C123.99 20.7684 123.901 21.3117 123.901 21.9033C123.901 22.499 123.99 23.0443 124.167 23.5394C124.348 24.0344 124.623 24.4308 124.994 24.7286C125.368 25.0265 125.839 25.1754 126.406 25.1754ZM134.543 20.9978V26.5035H132.738V17.2308H134.47V18.74H134.585C134.798 18.249 135.132 17.8546 135.587 17.5568C136.046 17.2589 136.623 17.11 137.32 17.11C137.951 17.11 138.505 17.2428 138.98 17.5085C139.455 17.7701 139.823 18.1605 140.085 18.6796C140.346 19.1988 140.477 19.8407 140.477 20.6054V26.5035H138.672V20.8227C138.672 20.1506 138.497 19.6254 138.147 19.2471C137.797 18.8648 137.316 18.6736 136.704 18.6736C136.285 18.6736 135.913 18.7641 135.587 18.9453C135.265 19.1264 135.009 19.392 134.82 19.7421C134.635 20.0882 134.543 20.5068 134.543 20.9978Z" fill="#E8E8E8"/>
<path d="M155.05 18.1786C154.982 17.925 154.881 17.7016 154.748 17.5085C154.615 17.3113 154.452 17.1442 154.259 17.0074C154.066 16.8706 153.845 16.7679 153.595 16.6995C153.346 16.6271 153.072 16.5908 152.774 16.5908C152.174 16.5908 151.655 16.7357 151.217 17.0255C150.782 17.3153 150.446 17.7379 150.208 18.2933C149.971 18.8446 149.852 19.5147 149.852 20.3036C149.852 21.0964 149.967 21.7725 150.196 22.332C150.426 22.8914 150.758 23.318 151.192 23.6118C151.627 23.9056 152.154 24.0525 152.774 24.0525C153.322 24.0525 153.784 23.964 154.163 23.7869C154.545 23.6058 154.835 23.3502 155.032 23.0202C155.229 22.6902 155.328 22.3018 155.328 21.8551L155.883 21.9215H152.877V19.7421H158.207V21.3781C158.207 22.4849 157.972 23.4327 157.501 24.2215C157.034 25.0104 156.39 25.6161 155.569 26.0386C154.752 26.4612 153.813 26.6725 152.75 26.6725C151.571 26.6725 150.534 26.417 149.641 25.9058C148.748 25.3947 148.051 24.6663 147.552 23.7205C147.053 22.7707 146.804 21.6438 146.804 20.3398C146.804 19.3256 146.955 18.4261 147.256 17.6413C147.558 16.8525 147.979 16.1844 148.518 15.637C149.061 15.0897 149.689 14.6751 150.402 14.3934C151.118 14.1117 151.889 13.9708 152.714 13.9708C153.43 13.9708 154.096 14.0734 154.712 14.2787C155.332 14.484 155.879 14.7737 156.354 15.148C156.833 15.5223 157.221 15.967 157.519 16.4822C157.817 16.9973 158.002 17.5628 158.075 18.1786H155.05ZM160.55 26.5035V17.2308H163.502V26.5035H160.55ZM162.029 16.1502C161.614 16.1502 161.258 16.0133 160.96 15.7396C160.662 15.4619 160.514 15.1279 160.514 14.7375C160.514 14.3511 160.662 14.0211 160.96 13.7475C161.258 13.4698 161.614 13.3309 162.029 13.3309C162.447 13.3309 162.804 13.4698 163.097 13.7475C163.395 14.0211 163.544 14.3511 163.544 14.7375C163.544 15.1279 163.395 15.4619 163.097 15.7396C162.804 16.0133 162.447 16.1502 162.029 16.1502ZM170.615 17.2308V19.4041H164.765V17.2308H170.615ZM165.991 15.0092H168.943V23.5877C168.943 23.7688 168.971 23.9157 169.027 24.0283C169.087 24.137 169.174 24.2155 169.287 24.2638C169.399 24.3081 169.534 24.3302 169.691 24.3302C169.804 24.3302 169.923 24.3201 170.047 24.3C170.176 24.2759 170.273 24.2557 170.337 24.2396L170.784 26.3707C170.643 26.4109 170.444 26.4612 170.186 26.5216C169.933 26.582 169.629 26.6202 169.275 26.6363C168.582 26.6685 167.989 26.588 167.494 26.3948C167.003 26.1976 166.626 25.8917 166.365 25.4772C166.107 25.0627 165.982 24.5415 165.991 23.9136V15.0092ZM172.32 26.5035V14.1399H175.309V24.0766H180.452V26.5035H172.32ZM184.613 26.6604C184.021 26.6604 183.496 26.5618 183.037 26.3646C182.583 26.1634 182.222 25.8616 181.957 25.4591C181.695 25.0526 181.564 24.5435 181.564 23.9318C181.564 23.4166 181.655 22.9819 181.836 22.6278C182.017 22.2736 182.267 21.9859 182.585 21.7645C182.902 21.5431 183.269 21.3761 183.683 21.2634C184.098 21.1467 184.54 21.0682 185.011 21.028C185.539 20.9797 185.963 20.9294 186.285 20.8771C186.607 20.8207 186.841 20.7422 186.985 20.6416C187.134 20.537 187.209 20.3901 187.209 20.2009V20.1707C187.209 19.8609 187.102 19.6214 186.889 19.4524C186.676 19.2833 186.388 19.1988 186.026 19.1988C185.635 19.1988 185.321 19.2833 185.084 19.4524C184.846 19.6214 184.695 19.8548 184.631 20.1526L181.908 20.056C181.989 19.4926 182.196 18.9895 182.53 18.5468C182.868 18.1001 183.331 17.7499 183.919 17.4964C184.51 17.2388 185.221 17.11 186.05 17.11C186.641 17.11 187.187 17.1805 187.686 17.3213C188.185 17.4582 188.619 17.6594 188.99 17.925C189.36 18.1866 189.646 18.5086 189.847 18.8909C190.052 19.2733 190.155 19.7099 190.155 20.2009V26.5035H187.378V25.2116H187.305C187.14 25.5255 186.929 25.7911 186.672 26.0085C186.418 26.2258 186.118 26.3888 185.772 26.4975C185.43 26.6061 185.044 26.6604 184.613 26.6604ZM185.525 24.7286C185.842 24.7286 186.128 24.6642 186.382 24.5354C186.639 24.4067 186.845 24.2296 186.998 24.0042C187.15 23.7748 187.227 23.5092 187.227 23.2073V22.3259C187.142 22.3702 187.04 22.4105 186.919 22.4467C186.802 22.4829 186.674 22.5171 186.533 22.5493C186.392 22.5815 186.247 22.6097 186.098 22.6338C185.949 22.658 185.806 22.6801 185.669 22.7002C185.392 22.7445 185.154 22.8129 184.957 22.9055C184.764 22.998 184.615 23.1188 184.51 23.2677C184.41 23.4126 184.359 23.5856 184.359 23.7869C184.359 24.0927 184.468 24.3262 184.685 24.4872C184.907 24.6481 185.186 24.7286 185.525 24.7286ZM191.96 26.5035V14.1399H194.912V18.8185H194.972C195.093 18.5368 195.264 18.2651 195.485 18.0035C195.711 17.7419 195.997 17.5286 196.343 17.3636C196.693 17.1945 197.111 17.11 197.598 17.11C198.242 17.11 198.844 17.2791 199.403 17.6171C199.967 17.9552 200.422 18.4764 200.768 19.1807C201.114 19.885 201.287 20.7825 201.287 21.8732C201.287 22.9236 201.12 23.803 200.786 24.5113C200.456 25.2196 200.009 25.7509 199.446 26.1051C198.886 26.4592 198.264 26.6363 197.58 26.6363C197.113 26.6363 196.709 26.5598 196.367 26.4069C196.025 26.254 195.737 26.0527 195.504 25.8032C195.274 25.5537 195.097 25.286 194.972 25.0003H194.882V26.5035H191.96ZM194.852 21.8671C194.852 22.3662 194.918 22.8008 195.051 23.1711C195.188 23.5414 195.383 23.8291 195.636 24.0344C195.894 24.2356 196.202 24.3362 196.56 24.3362C196.922 24.3362 197.23 24.2356 197.484 24.0344C197.737 23.8291 197.928 23.5414 198.057 23.1711C198.19 22.8008 198.256 22.3662 198.256 21.8671C198.256 21.3681 198.19 20.9354 198.057 20.5692C197.928 20.2029 197.737 19.9192 197.484 19.718C197.234 19.5167 196.926 19.4161 196.56 19.4161C196.198 19.4161 195.89 19.5147 195.636 19.7119C195.383 19.9091 195.188 20.1909 195.051 20.5571C194.918 20.9234 194.852 21.36 194.852 21.8671Z" fill="url(#paint1_linear_28_2571)"/>
</g>
<rect x="1.0707" y="1.07422" width="207.858" height="37.8585" rx="6.92857" stroke="white" stroke-opacity="0.15" stroke-width="2.14286"/>
<defs>
<filter id="filter0_d_28_2571" x="2.39874" y="0.402512" width="39.2025" height="39.202" filterUnits="userSpaceOnUse" color-interpolation-filters="sRGB">
<feFlood flood-opacity="0" result="BackgroundImageFix"/>
<feColorMatrix in="SourceAlpha" type="matrix" values="0 0 0 0 0 0 0 0 0 0 0 0 0 0 0 0 0 0 127 0" result="hardAlpha"/>
<feOffset/>
<feGaussianBlur stdDeviation="2.80014"/>
<feComposite in2="hardAlpha" operator="out"/>
<feColorMatrix type="matrix" values="0 0 0 0 0 0 0 0 0 0 0 0 0 0 0 0 0 0 0.25 0"/>
<feBlend mode="normal" in2="BackgroundImageFix" result="effect1_dropShadow_28_2571"/>
<feBlend mode="normal" in="SourceGraphic" in2="effect1_dropShadow_28_2571" result="shape"/>
</filter>
<filter id="filter1_d_28_2571" x="38.2864" y="3.78921" width="169.429" height="32.4286" filterUnits="userSpaceOnUse" color-interpolation-filters="sRGB">
<feFlood flood-opacity="0" result="BackgroundImageFix"/>
<feColorMatrix in="SourceAlpha" type="matrix" values="0 0 0 0 0 0 0 0 0 0 0 0 0 0 0 0 0 0 127 0" result="hardAlpha"/>
<feOffset/>
<feGaussianBlur stdDeviation="2.85714"/>
<feComposite in2="hardAlpha" operator="out"/>
<feColorMatrix type="matrix" values="0 0 0 0 0 0 0 0 0 0 0 0 0 0 0 0 0 0 0.25 0"/>
<feBlend mode="normal" in2="BackgroundImageFix" result="effect1_dropShadow_28_2571"/>
<feBlend mode="normal" in="SourceGraphic" in2="effect1_dropShadow_28_2571" result="shape"/>
</filter>
<linearGradient id="paint0_linear_28_2571" x1="105" y1="0.00279236" x2="105" y2="40.0042" gradientUnits="userSpaceOnUse">
<stop stop-color="#2E0E09"/>
<stop offset="1" stop-color="#1F1506"/>
</linearGradient>
<linearGradient id="paint1_linear_28_2571" x1="174.001" y1="9.50349" x2="174.001" y2="30.5035" gradientUnits="userSpaceOnUse">
<stop stop-color="#E06955"/>
<stop offset="1" stop-color="#F5B253"/>
</linearGradient>
</defs>
</svg>
