<svg width="176" height="28" viewBox="0 0 176 28" fill="none" xmlns="http://www.w3.org/2000/svg">
<g clip-path="url(#clip0_1_142)">
<rect x="-0.000488281" y="-1.52588e-05" width="175.5" height="28" rx="6" fill="url(#paint0_linear_1_142)"/>
<g filter="url(#filter0_d_1_142)">
<path d="M15.3867 13.5526L6.79065 22.3424C6.88717 22.6762 7.06064 22.9842 7.29778 23.2426C7.53493 23.501 7.82948 23.7031 8.15891 23.8334C8.48835 23.9637 8.84395 24.0188 9.19852 23.9944C9.5531 23.97 9.89728 23.8668 10.2047 23.6927L19.8769 18.3163L15.3867 13.5526Z" fill="#EA4335"/>
<path d="M24.0788 12.0585L19.8961 9.72034L15.1881 13.7526L19.9153 18.3038L24.066 15.9907C24.4337 15.8028 24.7417 15.5203 24.9566 15.1737C25.1716 14.8271 25.2852 14.4297 25.2852 14.0246C25.2852 13.6195 25.1716 13.2221 24.9566 12.8755C24.7417 12.5289 24.4337 12.2464 24.066 12.0585H24.0788Z" fill="#FBBC04"/>
<path d="M6.79064 5.66298C6.73867 5.85046 6.71282 6.04391 6.71377 6.23813V21.7672C6.71429 21.9613 6.74012 22.1546 6.79064 22.3424L15.6813 13.7776L6.79064 5.66298Z" fill="#4285F4"/>
<path d="M15.4508 14.0027L19.8961 9.7203L10.2368 4.31888C9.87337 4.11117 9.46007 4.00115 9.03895 4.00005C8.53035 3.99907 8.03536 4.16042 7.62946 4.45952C7.22355 4.75862 6.92898 5.17905 6.79065 5.65673L15.4508 14.0027Z" fill="#34A853"/>
</g>
<g filter="url(#filter1_d_1_142)">
<path d="M33.5542 18.5H32.2729L35.1519 10.5H36.5464L39.4253 18.5H38.144L35.8823 11.9531H35.8198L33.5542 18.5ZM33.769 15.3672H37.9253V16.3828H33.769V15.3672ZM44.8677 12.5L42.6919 18.5H41.4419L39.2622 12.5H40.5161L42.0356 17.1172H42.0981L43.6138 12.5H44.8677ZM47.5395 18.6328C47.1593 18.6328 46.8156 18.5625 46.5083 18.4219C46.201 18.2786 45.9575 18.0716 45.7778 17.8008C45.6007 17.5299 45.5122 17.1979 45.5122 16.8047C45.5122 16.4661 45.5773 16.1875 45.7075 15.9687C45.8377 15.75 46.0135 15.5768 46.2349 15.4492C46.4562 15.3216 46.7036 15.2252 46.977 15.1601C47.2505 15.095 47.5291 15.0456 47.813 15.0117C48.1724 14.97 48.464 14.9362 48.688 14.9101C48.9119 14.8815 49.0747 14.8359 49.1763 14.7734C49.2778 14.7109 49.3286 14.6094 49.3286 14.4687V14.4414C49.3286 14.1002 49.2323 13.8359 49.0395 13.6484C48.8494 13.4609 48.5656 13.3672 48.188 13.3672C47.7948 13.3672 47.4849 13.4544 47.2583 13.6289C47.0343 13.8008 46.8794 13.9922 46.7935 14.2031L45.6958 13.9531C45.826 13.5885 46.0161 13.2943 46.2661 13.0703C46.5187 12.8437 46.8091 12.6797 47.1372 12.5781C47.4653 12.4739 47.8104 12.4219 48.1724 12.4219C48.4119 12.4219 48.6658 12.4505 48.9341 12.5078C49.2049 12.5625 49.4575 12.664 49.6919 12.8125C49.9289 12.9609 50.1229 13.1732 50.2739 13.4492C50.425 13.7226 50.5005 14.0781 50.5005 14.5156V18.5H49.3599V17.6797H49.313C49.2375 17.8307 49.1242 17.9791 48.9731 18.125C48.8221 18.2708 48.6281 18.3919 48.3911 18.4883C48.1541 18.5846 47.8703 18.6328 47.5395 18.6328ZM47.7935 17.6953C48.1164 17.6953 48.3924 17.6315 48.6216 17.5039C48.8533 17.3763 49.0291 17.2096 49.1489 17.0039C49.2713 16.7956 49.3325 16.5729 49.3325 16.3359V15.5625C49.2908 15.6041 49.2101 15.6432 49.0903 15.6797C48.9731 15.7135 48.839 15.7435 48.688 15.7695C48.5369 15.793 48.3898 15.8151 48.2466 15.8359C48.1033 15.8541 47.9836 15.8698 47.8872 15.8828C47.6606 15.9114 47.4536 15.9596 47.2661 16.0273C47.0812 16.095 46.9328 16.1927 46.8208 16.3203C46.7114 16.4453 46.6567 16.612 46.6567 16.8203C46.6567 17.1094 46.7635 17.3281 46.977 17.4765C47.1906 17.6224 47.4627 17.6953 47.7935 17.6953ZM52.0561 18.5V12.5H53.2241V18.5H52.0561ZM52.646 11.5742C52.4429 11.5742 52.2684 11.5065 52.1226 11.3711C51.9793 11.2331 51.9077 11.069 51.9077 10.8789C51.9077 10.6862 51.9793 10.5221 52.1226 10.3867C52.2684 10.2487 52.4429 10.1797 52.646 10.1797C52.8491 10.1797 53.0223 10.2487 53.1655 10.3867C53.3114 10.5221 53.3843 10.6862 53.3843 10.8789C53.3843 11.069 53.3114 11.2331 53.1655 11.3711C53.0223 11.5065 52.8491 11.5742 52.646 11.5742ZM55.9634 10.5V18.5H54.7954V10.5H55.9634ZM59.2808 18.6328C58.9005 18.6328 58.5568 18.5625 58.2495 18.4219C57.9422 18.2786 57.6987 18.0716 57.519 17.8008C57.342 17.5299 57.2534 17.1979 57.2534 16.8047C57.2534 16.4661 57.3185 16.1875 57.4487 15.9687C57.5789 15.75 57.7547 15.5768 57.9761 15.4492C58.1974 15.3216 58.4448 15.2252 58.7183 15.1601C58.9917 15.095 59.2703 15.0456 59.5542 15.0117C59.9136 14.97 60.2052 14.9362 60.4292 14.9101C60.6531 14.8815 60.8159 14.8359 60.9175 14.7734C61.019 14.7109 61.0698 14.6094 61.0698 14.4687V14.4414C61.0698 14.1002 60.9735 13.8359 60.7808 13.6484C60.5906 13.4609 60.3068 13.3672 59.9292 13.3672C59.536 13.3672 59.2261 13.4544 58.9995 13.6289C58.7755 13.8008 58.6206 13.9922 58.5347 14.2031L57.437 13.9531C57.5672 13.5885 57.7573 13.2943 58.0073 13.0703C58.2599 12.8437 58.5503 12.6797 58.8784 12.5781C59.2065 12.4739 59.5516 12.4219 59.9136 12.4219C60.1531 12.4219 60.4071 12.4505 60.6753 12.5078C60.9461 12.5625 61.1987 12.664 61.4331 12.8125C61.6701 12.9609 61.8641 13.1732 62.0151 13.4492C62.1662 13.7226 62.2417 14.0781 62.2417 14.5156V18.5H61.1011V17.6797H61.0542C60.9787 17.8307 60.8654 17.9791 60.7143 18.125C60.5633 18.2708 60.3693 18.3919 60.1323 18.4883C59.8953 18.5846 59.6115 18.6328 59.2808 18.6328ZM59.5347 17.6953C59.8576 17.6953 60.1336 17.6315 60.3628 17.5039C60.5946 17.3763 60.7703 17.2096 60.8901 17.0039C61.0125 16.7956 61.0737 16.5729 61.0737 16.3359V15.5625C61.0321 15.6041 60.9513 15.6432 60.8315 15.6797C60.7143 15.7135 60.5802 15.7435 60.4292 15.7695C60.2781 15.793 60.131 15.8151 59.9878 15.8359C59.8446 15.8541 59.7248 15.8698 59.6284 15.8828C59.4018 15.9114 59.1948 15.9596 59.0073 16.0273C58.8224 16.095 58.674 16.1927 58.562 16.3203C58.4526 16.4453 58.3979 16.612 58.3979 16.8203C58.3979 17.1094 58.5047 17.3281 58.7183 17.4765C58.9318 17.6224 59.2039 17.6953 59.5347 17.6953ZM63.8911 18.5V10.5H65.0591V13.4726H65.1294C65.1971 13.3476 65.2947 13.2031 65.4224 13.039C65.55 12.875 65.727 12.7318 65.9536 12.6094C66.1802 12.4844 66.4796 12.4219 66.852 12.4219C67.3364 12.4219 67.7687 12.5443 68.1489 12.789C68.5291 13.0338 68.8273 13.3867 69.0434 13.8476C69.2622 14.3086 69.3716 14.8633 69.3716 15.5117C69.3716 16.1601 69.2635 16.7161 69.0474 17.1797C68.8312 17.6406 68.5343 17.9961 68.1567 18.2461C67.7791 18.4935 67.3481 18.6172 66.8638 18.6172C66.4992 18.6172 66.201 18.556 65.9692 18.4336C65.7401 18.3112 65.5604 18.168 65.4302 18.0039C65.3 17.8398 65.1997 17.694 65.1294 17.5664H65.0317V18.5H63.8911ZM65.0356 15.5C65.0356 15.9219 65.0968 16.2916 65.2192 16.6094C65.3416 16.9271 65.5187 17.1758 65.7505 17.3555C65.9822 17.5325 66.2661 17.6211 66.602 17.6211C66.951 17.6211 67.2427 17.5286 67.477 17.3437C67.7114 17.1562 67.8885 16.9023 68.0083 16.582C68.1307 16.2617 68.1919 15.901 68.1919 15.5C68.1919 15.1041 68.132 14.7487 68.0122 14.4336C67.895 14.1185 67.7179 13.8698 67.4809 13.6875C67.2466 13.5052 66.9536 13.414 66.602 13.414C66.2635 13.414 65.977 13.5013 65.7427 13.6758C65.5109 13.8502 65.3351 14.0937 65.2153 14.4062C65.0955 14.7187 65.0356 15.0833 65.0356 15.5ZM71.8511 10.5V18.5H70.6831V10.5H71.8511ZM76.0083 18.6211C75.4171 18.6211 74.908 18.4948 74.4809 18.2422C74.0565 17.987 73.7283 17.6289 73.4966 17.168C73.2674 16.7044 73.1528 16.1614 73.1528 15.539C73.1528 14.9245 73.2674 14.3828 73.4966 13.914C73.7283 13.4453 74.0513 13.0794 74.4653 12.8164C74.882 12.5534 75.369 12.4219 75.9263 12.4219C76.2648 12.4219 76.5929 12.4778 76.9106 12.5898C77.2283 12.7018 77.5135 12.8776 77.7661 13.1172C78.0187 13.3568 78.2179 13.668 78.3638 14.0508C78.5096 14.431 78.5825 14.8932 78.5825 15.4375V15.8515H73.813V14.9765H77.438C77.438 14.6693 77.3755 14.3971 77.2505 14.1601C77.1255 13.9206 76.9497 13.7318 76.7231 13.5937C76.4992 13.4557 76.2362 13.3867 75.9341 13.3867C75.6059 13.3867 75.3195 13.4674 75.0747 13.6289C74.8325 13.7877 74.645 13.9961 74.5122 14.2539C74.382 14.5091 74.3169 14.7864 74.3169 15.0859V15.7695C74.3169 16.1706 74.3872 16.5117 74.5278 16.793C74.671 17.0742 74.8703 17.289 75.1255 17.4375C75.3807 17.5833 75.6789 17.6562 76.02 17.6562C76.2414 17.6562 76.4432 17.625 76.6255 17.5625C76.8078 17.4974 76.9653 17.401 77.0981 17.2734C77.2309 17.1458 77.3325 16.9883 77.4028 16.8008L78.5083 17C78.4197 17.3255 78.2609 17.6107 78.0317 17.8555C77.8052 18.0976 77.52 18.2864 77.1763 18.4219C76.8351 18.5547 76.4458 18.6211 76.0083 18.6211ZM85.3169 18.6211C84.7544 18.6211 84.2635 18.4922 83.8442 18.2344C83.425 17.9765 83.0994 17.6159 82.8677 17.1523C82.6359 16.6888 82.52 16.1471 82.52 15.5273C82.52 14.9049 82.6359 14.3607 82.8677 13.8945C83.0994 13.4284 83.425 13.0664 83.8442 12.8086C84.2635 12.5508 84.7544 12.4219 85.3169 12.4219C85.8794 12.4219 86.3703 12.5508 86.7895 12.8086C87.2088 13.0664 87.5343 13.4284 87.7661 13.8945C87.9979 14.3607 88.1138 14.9049 88.1138 15.5273C88.1138 16.1471 87.9979 16.6888 87.7661 17.1523C87.5343 17.6159 87.2088 17.9765 86.7895 18.2344C86.3703 18.4922 85.8794 18.6211 85.3169 18.6211ZM85.3208 17.6406C85.6854 17.6406 85.9875 17.5443 86.227 17.3515C86.4666 17.1588 86.6437 16.9023 86.7583 16.582C86.8755 16.2617 86.9341 15.9088 86.9341 15.5234C86.9341 15.1406 86.8755 14.789 86.7583 14.4687C86.6437 14.1458 86.4666 13.8867 86.227 13.6914C85.9875 13.4961 85.6854 13.3984 85.3208 13.3984C84.9536 13.3984 84.6489 13.4961 84.4067 13.6914C84.1671 13.8867 83.9888 14.1458 83.8716 14.4687C83.757 14.789 83.6997 15.1406 83.6997 15.5234C83.6997 15.9088 83.757 16.2617 83.8716 16.582C83.9888 16.9023 84.1671 17.1588 84.4067 17.3515C84.6489 17.5443 84.9536 17.6406 85.3208 17.6406ZM90.5854 14.9375V18.5H89.4175V12.5H90.5386V13.4765H90.6128C90.7508 13.1588 90.9669 12.9036 91.2612 12.7109C91.5581 12.5182 91.9318 12.4219 92.3823 12.4219C92.7912 12.4219 93.1492 12.5078 93.4565 12.6797C93.7638 12.8489 94.0021 13.1015 94.1714 13.4375C94.3406 13.7734 94.4253 14.1888 94.4253 14.6836V18.5H93.2573V14.8242C93.2573 14.3893 93.144 14.0495 92.9175 13.8047C92.6909 13.5573 92.3797 13.4336 91.9839 13.4336C91.713 13.4336 91.4722 13.4922 91.2612 13.6094C91.0529 13.7265 90.8875 13.8984 90.7651 14.125C90.6453 14.3489 90.5854 14.6198 90.5854 14.9375Z" fill="#E8E8E8"/>
<path d="M104.887 12.6236C104.839 12.4446 104.768 12.2869 104.674 12.1506C104.58 12.0113 104.465 11.8934 104.329 11.7969C104.193 11.7003 104.036 11.6278 103.86 11.5795C103.684 11.5284 103.491 11.5028 103.281 11.5028C102.857 11.5028 102.491 11.6051 102.181 11.8096C101.875 12.0142 101.637 12.3125 101.47 12.7045C101.302 13.0937 101.218 13.5667 101.218 14.1236C101.218 14.6832 101.299 15.1605 101.461 15.5554C101.623 15.9503 101.857 16.2514 102.164 16.4588C102.471 16.6662 102.843 16.7699 103.281 16.7699C103.667 16.7699 103.994 16.7074 104.261 16.5824C104.531 16.4545 104.735 16.2741 104.875 16.0412C105.014 15.8082 105.083 15.5341 105.083 15.2187L105.475 15.2656H103.353V13.7273H107.116V14.8821C107.116 15.6633 106.95 16.3324 106.617 16.8892C106.288 17.446 105.833 17.8736 105.254 18.1719C104.677 18.4702 104.014 18.6193 103.264 18.6193C102.431 18.6193 101.7 18.4389 101.069 18.0781C100.438 17.7173 99.947 17.2031 99.5947 16.5355C99.2424 15.865 99.0663 15.0696 99.0663 14.1491C99.0663 13.4332 99.1728 12.7983 99.3859 12.2443C99.5989 11.6875 99.8958 11.2159 100.276 10.8295C100.66 10.4432 101.103 10.1506 101.606 9.95169C102.112 9.75282 102.656 9.65339 103.238 9.65339C103.744 9.65339 104.214 9.72584 104.649 9.87072C105.086 10.0156 105.473 10.2202 105.808 10.4844C106.146 10.7486 106.42 11.0625 106.63 11.4261C106.84 11.7898 106.971 12.1889 107.022 12.6236H104.887ZM111.415 18.6236C110.727 18.6236 110.136 18.4829 109.642 18.2017C109.15 17.9176 108.771 17.5227 108.504 17.017C108.24 16.5085 108.108 15.919 108.108 15.2486C108.108 14.5753 108.24 13.9858 108.504 13.4801C108.771 12.9716 109.15 12.5767 109.642 12.2954C110.136 12.0113 110.727 11.8693 111.415 11.8693C112.102 11.8693 112.692 12.0113 113.183 12.2954C113.677 12.5767 114.057 12.9716 114.321 13.4801C114.588 13.9858 114.721 14.5753 114.721 15.2486C114.721 15.919 114.588 16.5085 114.321 17.017C114.057 17.5227 113.677 17.9176 113.183 18.2017C112.692 18.4829 112.102 18.6236 111.415 18.6236ZM111.427 17.0511C111.677 17.0511 111.889 16.9744 112.062 16.821C112.236 16.6676 112.368 16.4545 112.459 16.1818C112.552 15.9091 112.599 15.5937 112.599 15.2358C112.599 14.8721 112.552 14.554 112.459 14.2812C112.368 14.0085 112.236 13.7954 112.062 13.642C111.889 13.4886 111.677 13.4119 111.427 13.4119C111.169 13.4119 110.95 13.4886 110.771 13.642C110.595 13.7954 110.46 14.0085 110.366 14.2812C110.275 14.554 110.23 14.8721 110.23 15.2358C110.23 15.5937 110.275 15.9091 110.366 16.1818C110.46 16.4545 110.595 16.6676 110.771 16.821C110.95 16.9744 111.169 17.0511 111.427 17.0511ZM118.844 18.6236C118.157 18.6236 117.566 18.4829 117.072 18.2017C116.58 17.9176 116.201 17.5227 115.934 17.017C115.67 16.5085 115.538 15.919 115.538 15.2486C115.538 14.5753 115.67 13.9858 115.934 13.4801C116.201 12.9716 116.58 12.5767 117.072 12.2954C117.566 12.0113 118.157 11.8693 118.844 11.8693C119.532 11.8693 120.121 12.0113 120.613 12.2954C121.107 12.5767 121.486 12.9716 121.751 13.4801C122.018 13.9858 122.151 14.5753 122.151 15.2486C122.151 15.919 122.018 16.5085 121.751 17.017C121.486 17.5227 121.107 17.9176 120.613 18.2017C120.121 18.4829 119.532 18.6236 118.844 18.6236ZM118.857 17.0511C119.107 17.0511 119.319 16.9744 119.492 16.821C119.665 16.6676 119.797 16.4545 119.888 16.1818C119.982 15.9091 120.029 15.5937 120.029 15.2358C120.029 14.8721 119.982 14.554 119.888 14.2812C119.797 14.0085 119.665 13.7954 119.492 13.642C119.319 13.4886 119.107 13.4119 118.857 13.4119C118.599 13.4119 118.38 13.4886 118.201 13.642C118.025 13.7954 117.89 14.0085 117.796 14.2812C117.705 14.554 117.66 14.8721 117.66 15.2358C117.66 15.5937 117.705 15.9091 117.796 16.1818C117.89 16.4545 118.025 16.6676 118.201 16.821C118.38 16.9744 118.599 17.0511 118.857 17.0511ZM126.27 21.0909C125.648 21.0909 125.115 21.0042 124.672 20.8309C124.229 20.6577 123.881 20.4204 123.628 20.1193C123.375 19.8182 123.223 19.4773 123.172 19.0966L125.145 18.9858C125.182 19.1193 125.25 19.2358 125.349 19.3352C125.452 19.4346 125.584 19.5113 125.746 19.5653C125.91 19.6193 126.104 19.6463 126.325 19.6463C126.675 19.6463 126.963 19.5611 127.19 19.3906C127.42 19.223 127.535 18.929 127.535 18.5085V17.3579H127.463C127.381 17.5596 127.256 17.74 127.088 17.8991C126.92 18.0582 126.712 18.1832 126.462 18.2741C126.214 18.365 125.93 18.4105 125.609 18.4105C125.132 18.4105 124.694 18.2997 124.297 18.0781C123.902 17.8537 123.585 17.5071 123.346 17.0383C123.111 16.5667 122.993 15.9602 122.993 15.2187C122.993 14.4545 123.115 13.8253 123.359 13.3309C123.604 12.8338 123.923 12.4659 124.318 12.2273C124.716 11.9886 125.143 11.8693 125.601 11.8693C125.944 11.8693 126.238 11.929 126.483 12.0483C126.73 12.1648 126.933 12.3153 127.092 12.5C127.251 12.6846 127.372 12.8764 127.454 13.0753H127.514V11.9545H129.589V18.5255C129.589 19.0795 129.45 19.5469 129.172 19.9275C128.893 20.3082 128.504 20.5966 128.004 20.7926C127.504 20.9915 126.926 21.0909 126.27 21.0909ZM126.334 16.8934C126.587 16.8934 126.802 16.8267 126.981 16.6932C127.16 16.5596 127.298 16.3679 127.395 16.1179C127.491 15.8679 127.54 15.5682 127.54 15.2187C127.54 14.8636 127.491 14.5582 127.395 14.3025C127.301 14.044 127.163 13.8452 126.981 13.7059C126.802 13.5667 126.587 13.4971 126.334 13.4971C126.075 13.4971 125.856 13.5682 125.677 13.7102C125.498 13.8523 125.362 14.0525 125.268 14.3111C125.177 14.5667 125.132 14.8693 125.132 15.2187C125.132 15.5682 125.179 15.8679 125.273 16.1179C125.366 16.3679 125.501 16.5596 125.677 16.6932C125.856 16.8267 126.075 16.8934 126.334 16.8934ZM133.002 9.77271V18.5H130.918V9.77271H133.002ZM137.388 18.6236C136.703 18.6236 136.112 18.4886 135.615 18.2187C135.121 17.946 134.74 17.5582 134.473 17.0554C134.209 16.5497 134.077 15.9488 134.077 15.2528C134.077 14.5767 134.21 13.9858 134.477 13.4801C134.744 12.9716 135.121 12.5767 135.606 12.2954C136.092 12.0113 136.665 11.8693 137.324 11.8693C137.79 11.8693 138.216 11.9417 138.602 12.0866C138.988 12.2315 139.322 12.446 139.604 12.7301C139.885 13.0142 140.104 13.365 140.26 13.7827C140.416 14.1974 140.494 14.6733 140.494 15.2102V15.7301H134.805V14.5199H138.555C138.552 14.2983 138.5 14.1008 138.398 13.9275C138.295 13.7542 138.155 13.6193 137.976 13.5227C137.8 13.4233 137.596 13.3736 137.366 13.3736C137.133 13.3736 136.925 13.4261 136.74 13.5312C136.555 13.6335 136.409 13.7741 136.301 13.9531C136.193 14.1292 136.136 14.3295 136.131 14.554V15.7855C136.131 16.0525 136.183 16.2869 136.288 16.4886C136.393 16.6875 136.542 16.8423 136.736 16.9531C136.929 17.0639 137.159 17.1193 137.426 17.1193C137.611 17.1193 137.778 17.0937 137.929 17.0426C138.079 16.9915 138.209 16.9162 138.317 16.8167C138.425 16.7173 138.506 16.5952 138.56 16.4503L140.473 16.5057C140.393 16.9346 140.219 17.3082 139.949 17.6264C139.682 17.9417 139.331 18.1875 138.896 18.3636C138.462 18.5369 137.959 18.6236 137.388 18.6236ZM144.137 18.5V9.77271H147.742C148.395 9.77271 148.959 9.90055 149.433 10.1562C149.911 10.4091 150.279 10.7628 150.537 11.2173C150.796 11.669 150.925 12.1946 150.925 12.794C150.925 13.3963 150.793 13.9233 150.529 14.375C150.267 14.8238 149.894 15.1719 149.408 15.419C148.922 15.6662 148.345 15.7898 147.678 15.7898H145.453V14.1278H147.286C147.604 14.1278 147.87 14.0724 148.083 13.9616C148.299 13.8508 148.462 13.696 148.573 13.4971C148.683 13.2954 148.739 13.0611 148.739 12.794C148.739 12.5241 148.683 12.2912 148.573 12.0952C148.462 11.8963 148.299 11.7429 148.083 11.6349C147.867 11.527 147.601 11.473 147.286 11.473H146.246V18.5H144.137ZM154.049 9.77271V18.5H151.965V9.77271H154.049ZM157.22 18.6108C156.802 18.6108 156.432 18.5412 156.108 18.402C155.787 18.2599 155.533 18.0469 155.345 17.7628C155.16 17.4758 155.068 17.1165 155.068 16.6846C155.068 16.321 155.132 16.0142 155.26 15.7642C155.388 15.5142 155.564 15.3111 155.788 15.1548C156.013 14.9986 156.271 14.8807 156.564 14.8011C156.856 14.7187 157.169 14.6633 157.501 14.6349C157.873 14.6008 158.173 14.5653 158.4 14.5284C158.628 14.4886 158.792 14.4332 158.895 14.3622C159 14.2883 159.052 14.1846 159.052 14.0511V14.0298C159.052 13.8111 158.977 13.642 158.827 13.5227C158.676 13.4034 158.473 13.3437 158.217 13.3437C157.942 13.3437 157.72 13.4034 157.552 13.5227C157.385 13.642 157.278 13.8068 157.233 14.017L155.311 13.9488C155.368 13.5511 155.514 13.196 155.75 12.8835C155.988 12.5682 156.315 12.321 156.73 12.142C157.148 11.9602 157.649 11.8693 158.234 11.8693C158.652 11.8693 159.037 11.919 159.389 12.0184C159.741 12.115 160.048 12.2571 160.31 12.4446C160.571 12.6292 160.773 12.8565 160.915 13.1264C161.06 13.3963 161.132 13.7045 161.132 14.0511V18.5H159.172V17.588H159.121C159.004 17.8096 158.855 17.9971 158.673 18.1505C158.494 18.304 158.283 18.419 158.038 18.4957C157.797 18.5724 157.524 18.6108 157.22 18.6108ZM157.863 17.2471C158.088 17.2471 158.29 17.2017 158.469 17.1108C158.65 17.0199 158.795 16.8949 158.903 16.7358C159.011 16.5738 159.065 16.3863 159.065 16.1733V15.5511C159.006 15.5824 158.933 15.6108 158.848 15.6363C158.765 15.6619 158.675 15.6861 158.575 15.7088C158.476 15.7315 158.373 15.7514 158.268 15.7684C158.163 15.7855 158.062 15.8011 157.966 15.8153C157.77 15.8466 157.602 15.8949 157.463 15.9602C157.327 16.0256 157.221 16.1108 157.148 16.2159C157.077 16.3182 157.041 16.4403 157.041 16.5824C157.041 16.7983 157.118 16.9631 157.271 17.0767C157.427 17.1903 157.625 17.2471 157.863 17.2471ZM163.446 20.9545C163.196 20.9545 162.96 20.9346 162.738 20.8949C162.517 20.8579 162.327 20.8082 162.167 20.7457L162.628 19.2329C162.832 19.3011 163.017 19.3409 163.182 19.3523C163.349 19.3636 163.493 19.3366 163.612 19.2713C163.734 19.2088 163.828 19.0966 163.893 18.9346L163.974 18.7386L161.648 11.9545H163.829L165.035 16.625H165.104L166.327 11.9545H168.521L166.054 19.1264C165.935 19.4844 165.765 19.7997 165.547 20.0724C165.331 20.348 165.051 20.5639 164.707 20.7202C164.366 20.8764 163.946 20.9545 163.446 20.9545Z" fill="url(#paint1_linear_1_142)"/>
</g>
</g>
<rect x="0.749512" y="0.749985" width="174" height="26.5" rx="5.25" stroke="white" stroke-opacity="0.15" stroke-width="1.5"/>
<defs>
<filter id="filter0_d_1_142" x="1.99951" y="-1.52588e-05" width="28" height="28" filterUnits="userSpaceOnUse" color-interpolation-filters="sRGB">
<feFlood flood-opacity="0" result="BackgroundImageFix"/>
<feColorMatrix in="SourceAlpha" type="matrix" values="0 0 0 0 0 0 0 0 0 0 0 0 0 0 0 0 0 0 127 0" result="hardAlpha"/>
<feOffset/>
<feGaussianBlur stdDeviation="2"/>
<feComposite in2="hardAlpha" operator="out"/>
<feColorMatrix type="matrix" values="0 0 0 0 0 0 0 0 0 0 0 0 0 0 0 0 0 0 0.25 0"/>
<feBlend mode="normal" in2="BackgroundImageFix" result="effect1_dropShadow_1_142"/>
<feBlend mode="normal" in="SourceGraphic" in2="effect1_dropShadow_1_142" result="shape"/>
</filter>
<filter id="filter1_d_1_142" x="27.9995" y="3.49998" width="145.5" height="21.5909" filterUnits="userSpaceOnUse" color-interpolation-filters="sRGB">
<feFlood flood-opacity="0" result="BackgroundImageFix"/>
<feColorMatrix in="SourceAlpha" type="matrix" values="0 0 0 0 0 0 0 0 0 0 0 0 0 0 0 0 0 0 127 0" result="hardAlpha"/>
<feOffset/>
<feGaussianBlur stdDeviation="2"/>
<feComposite in2="hardAlpha" operator="out"/>
<feColorMatrix type="matrix" values="0 0 0 0 0 0 0 0 0 0 0 0 0 0 0 0 0 0 0.25 0"/>
<feBlend mode="normal" in2="BackgroundImageFix" result="effect1_dropShadow_1_142"/>
<feBlend mode="normal" in="SourceGraphic" in2="effect1_dropShadow_1_142" result="shape"/>
</filter>
<linearGradient id="paint0_linear_1_142" x1="87.7495" y1="-1.52588e-05" x2="87.7495" y2="28" gradientUnits="userSpaceOnUse">
<stop stop-color="#00171C"/>
<stop offset="0.333333" stop-color="#0A1209"/>
<stop offset="0.666667" stop-color="#100F06"/>
<stop offset="1" stop-color="#1A0000"/>
</linearGradient>
<linearGradient id="paint1_linear_1_142" x1="98.4995" y1="7.49998" x2="169.499" y2="7.49999" gradientUnits="userSpaceOnUse">
<stop stop-color="#5991EE"/>
<stop offset="0.333333" stop-color="#56AB6C"/>
<stop offset="0.666667" stop-color="#F5D26A"/>
<stop offset="1" stop-color="#EB786F"/>
</linearGradient>
<clipPath id="clip0_1_142">
<rect x="-0.000488281" y="-1.52588e-05" width="175.5" height="28" rx="6" fill="white"/>
</clipPath>
</defs>
</svg>
