<svg width="254" height="41" viewBox="0 0 254 41" fill="none" xmlns="http://www.w3.org/2000/svg">
<g clip-path="url(#clip0_1_142)">
<rect x="-0.000732422" y="0.00836182" width="254.001" height="40.0014" rx="8" fill="url(#paint0_linear_1_142)"/>
<g filter="url(#filter0_d_1_142)">
<path d="M21.1425 19.3826L9.10742 31.689C9.24256 32.1564 9.48542 32.5876 9.81744 32.9494C10.1495 33.3112 10.5619 33.5942 11.0231 33.7766C11.4843 33.959 11.9822 34.0361 12.4786 34.002C12.9751 33.9678 13.4569 33.8233 13.8874 33.5796L27.4291 26.0522L21.1425 19.3826Z" fill="#EA4335"/>
<path d="M33.3116 17.2907L27.4555 14.0172L20.864 19.6627L27.4824 26.0347L33.2937 22.7962C33.8085 22.5331 34.2398 22.1375 34.5406 21.6523C34.8415 21.167 35.0006 20.6107 35.0006 20.0435C35.0006 19.4763 34.8415 18.9199 34.5406 18.4347C34.2398 17.9494 33.8085 17.5538 33.2937 17.2907H33.3116Z" fill="#FBBC04"/>
<path d="M9.10741 8.33667C9.03466 8.59915 8.99846 8.87001 8.99979 9.14192V30.8837C9.00052 31.1555 9.03668 31.4261 9.10741 31.689L21.555 19.6977L9.10741 8.33667Z" fill="#4285F4"/>
<path d="M21.2322 20.0128L27.456 14.0172L13.9322 6.45485C13.4234 6.16403 12.8448 6.01001 12.2552 6.00846C11.5431 6.00708 10.8501 6.23299 10.2818 6.65175C9.71351 7.07051 9.30109 7.65915 9.10742 8.32793L21.2322 20.0128Z" fill="#34A853"/>
</g>
<g filter="url(#filter1_d_1_142)">
<path d="M46.4034 26.5091H44.4233L48.8725 14.1454H51.0277L55.4769 26.5091H53.4968L50.0014 16.3912H49.9049L46.4034 26.5091ZM46.7355 21.6674H53.1588V23.237H46.7355V21.6674ZM63.8879 17.2363L60.5253 26.5091H58.5935L55.2249 17.2363H57.1627L59.5111 24.372H59.6077L61.95 17.2363H63.8879ZM68.0171 26.7143C67.4296 26.7143 66.8983 26.6056 66.4234 26.3883C65.9485 26.167 65.5722 25.847 65.2945 25.4284C65.0208 25.0099 64.884 24.4967 64.884 23.889C64.884 23.3658 64.9846 22.9352 65.1858 22.5971C65.3871 22.2591 65.6587 21.9914 66.0008 21.7942C66.3429 21.597 66.7252 21.4481 67.1478 21.3475C67.5704 21.2469 68.0011 21.1704 68.4397 21.1181C68.9951 21.0537 69.4459 21.0014 69.792 20.9611C70.1381 20.9168 70.3897 20.8464 70.5466 20.7498C70.7036 20.6532 70.7821 20.4963 70.7821 20.2789V20.2367C70.7821 19.7095 70.6332 19.301 70.3353 19.0112C70.0415 18.7214 69.6028 18.5765 69.0193 18.5765C68.4116 18.5765 67.9326 18.7114 67.5825 18.981C67.2364 19.2466 66.9969 19.5424 66.8641 19.8684L65.1677 19.4821C65.3689 18.9186 65.6627 18.4638 66.0491 18.1177C66.4395 17.7676 66.8882 17.514 67.3953 17.3571C67.9024 17.1961 68.4357 17.1156 68.9951 17.1156C69.3654 17.1156 69.7578 17.1599 70.1723 17.2484C70.5909 17.3329 70.9813 17.4899 71.3435 17.7193C71.7097 17.9487 72.0096 18.2767 72.243 18.7033C72.4764 19.1259 72.5931 19.6753 72.5931 20.3514V26.5091H70.8304V25.2413H70.7579C70.6412 25.4747 70.4661 25.7041 70.2327 25.9295C69.9993 26.1549 69.6994 26.342 69.3332 26.4909C68.967 26.6399 68.5283 26.7143 68.0171 26.7143ZM68.4095 25.2655C68.9086 25.2655 69.3352 25.1668 69.6894 24.9696C70.0476 24.7724 70.3192 24.5149 70.5044 24.1969C70.6935 23.8749 70.7881 23.5308 70.7881 23.1646V21.9693C70.7237 22.0337 70.5989 22.0941 70.4138 22.1504C70.2327 22.2027 70.0254 22.249 69.792 22.2892C69.5586 22.3255 69.3312 22.3597 69.1098 22.3919C68.8885 22.42 68.7033 22.4442 68.5544 22.4643C68.2043 22.5086 67.8843 22.583 67.5946 22.6877C67.3088 22.7923 67.0794 22.9432 66.9064 23.1405C66.7373 23.3336 66.6528 23.5912 66.6528 23.9132C66.6528 24.3599 66.8178 24.698 67.1478 24.9274C67.4779 25.1528 67.8984 25.2655 68.4095 25.2655ZM74.9973 26.5091V17.2363H76.8024V26.5091H74.9973ZM75.9089 15.8056C75.595 15.8056 75.3254 15.7009 75.1 15.4917C74.8786 15.2784 74.7679 15.0248 74.7679 14.731C74.7679 14.4332 74.8786 14.1796 75.1 13.9704C75.3254 13.757 75.595 13.6504 75.9089 13.6504C76.2228 13.6504 76.4905 13.757 76.7118 13.9704C76.9372 14.1796 77.0499 14.4332 77.0499 14.731C77.0499 15.0248 76.9372 15.2784 76.7118 15.4917C76.4905 15.7009 76.2228 15.8056 75.9089 15.8056ZM81.0358 14.1454V26.5091H79.2307V14.1454H81.0358ZM86.1627 26.7143C85.5751 26.7143 85.0438 26.6056 84.5689 26.3883C84.094 26.167 83.7177 25.847 83.44 25.4284C83.1663 25.0099 83.0295 24.4967 83.0295 23.889C83.0295 23.3658 83.1301 22.9352 83.3313 22.5971C83.5326 22.2591 83.8042 21.9914 84.1463 21.7942C84.4884 21.597 84.8707 21.4481 85.2933 21.3475C85.7159 21.2469 86.1466 21.1704 86.5852 21.1181C87.1406 21.0537 87.5914 21.0014 87.9375 20.9611C88.2836 20.9168 88.5352 20.8464 88.6921 20.7498C88.8491 20.6532 88.9276 20.4963 88.9276 20.2789V20.2367C88.9276 19.7095 88.7787 19.301 88.4808 19.0112C88.187 18.7214 87.7484 18.5765 87.1648 18.5765C86.5571 18.5765 86.0781 18.7114 85.728 18.981C85.3819 19.2466 85.1424 19.5424 85.0096 19.8684L83.3132 19.4821C83.5145 18.9186 83.8082 18.4638 84.1946 18.1177C84.585 17.7676 85.0337 17.514 85.5408 17.3571C86.048 17.1961 86.5812 17.1156 87.1406 17.1156C87.5109 17.1156 87.9033 17.1599 88.3178 17.2484C88.7364 17.3329 89.1268 17.4899 89.489 17.7193C89.8552 17.9487 90.1551 18.2767 90.3885 18.7033C90.6219 19.1259 90.7386 19.6753 90.7386 20.3514V26.5091H88.9759V25.2413H88.9034C88.7867 25.4747 88.6116 25.7041 88.3782 25.9295C88.1448 26.1549 87.8449 26.342 87.4787 26.4909C87.1125 26.6399 86.6738 26.7143 86.1627 26.7143ZM86.5551 25.2655C87.0541 25.2655 87.4807 25.1668 87.8349 24.9696C88.1931 24.7724 88.4647 24.5149 88.6499 24.1969C88.839 23.8749 88.9336 23.5308 88.9336 23.1646V21.9693C88.8692 22.0337 88.7444 22.0941 88.5593 22.1504C88.3782 22.2027 88.1709 22.249 87.9375 22.2892C87.7041 22.3255 87.4767 22.3597 87.2553 22.3919C87.034 22.42 86.8488 22.4442 86.6999 22.4643C86.3498 22.5086 86.0298 22.583 85.7401 22.6877C85.4543 22.7923 85.2249 22.9432 85.0519 23.1405C84.8828 23.3336 84.7983 23.5912 84.7983 23.9132C84.7983 24.3599 84.9633 24.698 85.2933 24.9274C85.6234 25.1528 86.0439 25.2655 86.5551 25.2655ZM93.2877 26.5091V14.1454H95.0928V18.7395H95.2014C95.3061 18.5463 95.457 18.323 95.6542 18.0694C95.8514 17.8159 96.1251 17.5945 96.4752 17.4054C96.8254 17.2122 97.2882 17.1156 97.8637 17.1156C98.6123 17.1156 99.2804 17.3048 99.868 17.6831C100.456 18.0614 100.916 18.6067 101.25 19.3191C101.589 20.0314 101.758 20.8887 101.758 21.8908C101.758 22.8929 101.591 23.7522 101.256 24.4686C100.922 25.1809 100.464 25.7303 99.8801 26.1167C99.2965 26.499 98.6304 26.6902 97.8818 26.6902C97.3184 26.6902 96.8576 26.5956 96.4994 26.4064C96.1452 26.2173 95.8675 25.9959 95.6663 25.7424C95.4651 25.4888 95.3101 25.2634 95.2014 25.0662H95.0505V26.5091H93.2877ZM95.0566 21.8727C95.0566 22.5247 95.1511 23.0962 95.3403 23.5872C95.5295 24.0782 95.8031 24.4625 96.1613 24.7402C96.5195 25.0139 96.9582 25.1507 97.4774 25.1507C98.0167 25.1507 98.4674 25.0079 98.8296 24.7221C99.1919 24.4324 99.4655 24.04 99.6507 23.5449C99.8398 23.0499 99.9344 22.4925 99.9344 21.8727C99.9344 21.261 99.8418 20.7116 99.6567 20.2246C99.4756 19.7376 99.2019 19.3533 98.8357 19.0716C98.4735 18.7898 98.0207 18.649 97.4774 18.649C96.9542 18.649 96.5115 18.7838 96.1492 19.0535C95.7911 19.3231 95.5194 19.6994 95.3343 20.1824C95.1491 20.6653 95.0566 21.2288 95.0566 21.8727ZM105.589 14.1454V26.5091H103.784V14.1454H105.589ZM112.014 26.6962C111.101 26.6962 110.314 26.501 109.654 26.1106C108.998 25.7162 108.491 25.1628 108.133 24.4505C107.778 23.7341 107.601 22.8949 107.601 21.9331C107.601 20.9833 107.778 20.1461 108.133 19.4217C108.491 18.6973 108.99 18.1318 109.63 17.7253C110.274 17.3188 111.026 17.1156 111.888 17.1156C112.411 17.1156 112.918 17.2021 113.409 17.3752C113.9 17.5482 114.341 17.8199 114.731 18.1902C115.121 18.5604 115.429 19.0414 115.655 19.633C115.88 20.2206 115.993 20.935 115.993 21.7761V22.416H108.622V21.0637H114.224C114.224 20.5888 114.127 20.1683 113.934 19.802C113.741 19.4318 113.469 19.14 113.119 18.9267C112.773 18.7134 112.366 18.6067 111.9 18.6067C111.392 18.6067 110.95 18.7315 110.571 18.981C110.197 19.2265 109.907 19.5485 109.702 19.9469C109.501 20.3413 109.4 20.77 109.4 21.2328V22.2892C109.4 22.909 109.509 23.4363 109.726 23.8709C109.948 24.3056 110.256 24.6376 110.65 24.867C111.044 25.0924 111.505 25.2051 112.032 25.2051C112.374 25.2051 112.686 25.1568 112.968 25.0602C113.25 24.9596 113.493 24.8107 113.699 24.6135C113.904 24.4163 114.061 24.1728 114.169 23.883L115.878 24.1909C115.741 24.694 115.496 25.1347 115.141 25.513C114.791 25.8873 114.351 26.179 113.819 26.3883C113.292 26.5936 112.69 26.6962 112.014 26.6962ZM126.4 26.6962C125.531 26.6962 124.772 26.497 124.124 26.0985C123.476 25.7001 122.973 25.1427 122.615 24.4263C122.257 23.7099 122.078 22.8728 122.078 21.915C122.078 20.9531 122.257 20.1119 122.615 19.3915C122.973 18.6711 123.476 18.1117 124.124 17.7133C124.772 17.3148 125.531 17.1156 126.4 17.1156C127.27 17.1156 128.028 17.3148 128.676 17.7133C129.324 18.1117 129.827 18.6711 130.185 19.3915C130.544 20.1119 130.723 20.9531 130.723 21.915C130.723 22.8728 130.544 23.7099 130.185 24.4263C129.827 25.1427 129.324 25.7001 128.676 26.0985C128.028 26.497 127.27 26.6962 126.4 26.6962ZM126.406 25.1809C126.97 25.1809 127.437 25.032 127.807 24.7342C128.177 24.4364 128.451 24.04 128.628 23.5449C128.809 23.0499 128.9 22.5046 128.9 21.9089C128.9 21.3173 128.809 20.774 128.628 20.2789C128.451 19.7799 128.177 19.3794 127.807 19.0776C127.437 18.7758 126.97 18.6248 126.406 18.6248C125.839 18.6248 125.368 18.7758 124.994 19.0776C124.623 19.3794 124.348 19.7799 124.167 20.2789C123.99 20.774 123.901 21.3173 123.901 21.9089C123.901 22.5046 123.99 23.0499 124.167 23.5449C124.348 24.04 124.623 24.4364 124.994 24.7342C125.368 25.032 125.839 25.1809 126.406 25.1809ZM134.543 21.0034V26.5091H132.738V17.2363H134.47V18.7456H134.585C134.798 18.2546 135.132 17.8602 135.587 17.5623C136.046 17.2645 136.623 17.1156 137.32 17.1156C137.951 17.1156 138.505 17.2484 138.98 17.514C139.455 17.7756 139.823 18.166 140.085 18.6852C140.346 19.2044 140.477 19.8463 140.477 20.611V26.5091H138.672V20.8283C138.672 20.1562 138.497 19.631 138.147 19.2527C137.797 18.8703 137.316 18.6792 136.704 18.6792C136.285 18.6792 135.913 18.7697 135.587 18.9508C135.265 19.1319 135.009 19.3976 134.82 19.7477C134.635 20.0938 134.543 20.5124 134.543 21.0034Z" fill="#E8E8E8"/>
<path d="M155.05 18.1841C154.982 17.9306 154.881 17.7072 154.748 17.514C154.615 17.3168 154.452 17.1498 154.259 17.013C154.066 16.8761 153.845 16.7735 153.595 16.7051C153.346 16.6326 153.072 16.5964 152.774 16.5964C152.174 16.5964 151.655 16.7413 151.217 17.0311C150.782 17.3209 150.446 17.7434 150.208 18.2988C149.971 18.8502 149.852 19.5203 149.852 20.3091C149.852 21.102 149.967 21.7781 150.196 22.3375C150.426 22.897 150.758 23.3236 151.192 23.6174C151.627 23.9112 152.154 24.0581 152.774 24.0581C153.322 24.0581 153.784 23.9695 154.163 23.7924C154.545 23.6113 154.835 23.3558 155.032 23.0257C155.229 22.6957 155.328 22.3074 155.328 21.8606L155.883 21.927H152.877V19.7477H158.207V21.3837C158.207 22.4905 157.972 23.4383 157.501 24.2271C157.034 25.0159 156.39 25.6216 155.569 26.0442C154.752 26.4668 153.813 26.6781 152.75 26.6781C151.571 26.6781 150.534 26.4225 149.641 25.9114C148.748 25.4003 148.051 24.6718 147.552 23.726C147.053 22.7762 146.804 21.6493 146.804 20.3454C146.804 19.3311 146.955 18.4316 147.256 17.6468C147.558 16.858 147.979 16.1899 148.518 15.6426C149.061 15.0952 149.689 14.6807 150.402 14.399C151.118 14.1173 151.889 13.9764 152.714 13.9764C153.43 13.9764 154.096 14.079 154.712 14.2843C155.332 14.4895 155.879 14.7793 156.354 15.1536C156.833 15.5279 157.221 15.9726 157.519 16.4878C157.817 17.0029 158.002 17.5684 158.075 18.1841H155.05ZM164.297 26.6841C163.323 26.6841 162.486 26.4849 161.786 26.0865C161.09 25.684 160.552 25.1246 160.174 24.4082C159.8 23.6878 159.613 22.8527 159.613 21.9029C159.613 20.949 159.8 20.1139 160.174 19.3976C160.552 18.6771 161.09 18.1177 161.786 17.7193C162.486 17.3168 163.323 17.1156 164.297 17.1156C165.271 17.1156 166.106 17.3168 166.802 17.7193C167.503 18.1177 168.04 18.6771 168.414 19.3976C168.793 20.1139 168.982 20.949 168.982 21.9029C168.982 22.8527 168.793 23.6878 168.414 24.4082C168.04 25.1246 167.503 25.684 166.802 26.0865C166.106 26.4849 165.271 26.6841 164.297 26.6841ZM164.315 24.4565C164.669 24.4565 164.969 24.3478 165.215 24.1305C165.46 23.9132 165.647 23.6113 165.776 23.225C165.909 22.8386 165.975 22.3919 165.975 21.8848C165.975 21.3696 165.909 20.9189 165.776 20.5325C165.647 20.1461 165.46 19.8443 165.215 19.627C164.969 19.4096 164.669 19.301 164.315 19.301C163.949 19.301 163.639 19.4096 163.386 19.627C163.136 19.8443 162.945 20.1461 162.812 20.5325C162.683 20.9189 162.619 21.3696 162.619 21.8848C162.619 22.3919 162.683 22.8386 162.812 23.225C162.945 23.6113 163.136 23.9132 163.386 24.1305C163.639 24.3478 163.949 24.4565 164.315 24.4565ZM174.823 26.6841C173.849 26.6841 173.011 26.4849 172.311 26.0865C171.615 25.684 171.078 25.1246 170.699 24.4082C170.325 23.6878 170.138 22.8527 170.138 21.9029C170.138 20.949 170.325 20.1139 170.699 19.3976C171.078 18.6771 171.615 18.1177 172.311 17.7193C173.011 17.3168 173.849 17.1156 174.823 17.1156C175.797 17.1156 176.632 17.3168 177.328 17.7193C178.028 18.1177 178.565 18.6771 178.94 19.3976C179.318 20.1139 179.507 20.949 179.507 21.9029C179.507 22.8527 179.318 23.6878 178.94 24.4082C178.565 25.1246 178.028 25.684 177.328 26.0865C176.632 26.4849 175.797 26.6841 174.823 26.6841ZM174.841 24.4565C175.195 24.4565 175.495 24.3478 175.74 24.1305C175.986 23.9132 176.173 23.6113 176.302 23.225C176.434 22.8386 176.501 22.3919 176.501 21.8848C176.501 21.3696 176.434 20.9189 176.302 20.5325C176.173 20.1461 175.986 19.8443 175.74 19.627C175.495 19.4096 175.195 19.301 174.841 19.301C174.474 19.301 174.165 19.4096 173.911 19.627C173.661 19.8443 173.47 20.1461 173.337 20.5325C173.209 20.9189 173.144 21.3696 173.144 21.8848C173.144 22.3919 173.209 22.8386 173.337 23.225C173.47 23.6113 173.661 23.9132 173.911 24.1305C174.165 24.3478 174.474 24.4565 174.841 24.4565ZM185.342 30.1795C184.461 30.1795 183.706 30.0568 183.078 29.8113C182.45 29.5658 181.957 29.2297 181.599 28.8031C181.241 28.3765 181.025 27.8935 180.953 27.3542L183.748 27.1973C183.8 27.3864 183.897 27.5514 184.038 27.6923C184.183 27.8332 184.37 27.9418 184.599 28.0183C184.833 28.0948 185.106 28.133 185.42 28.133C185.915 28.133 186.324 28.0123 186.646 27.7708C186.972 27.5333 187.135 27.1168 187.135 26.5211V24.8912H187.032C186.916 25.1769 186.738 25.4325 186.501 25.6579C186.264 25.8832 185.968 26.0603 185.614 26.1891C185.263 26.3179 184.861 26.3823 184.406 26.3823C183.73 26.3823 183.11 26.2253 182.547 25.9114C181.987 25.5935 181.539 25.1025 181.201 24.4384C180.867 23.7703 180.699 22.911 180.699 21.8606C180.699 20.778 180.873 19.8865 181.219 19.1863C181.565 18.482 182.018 17.9608 182.577 17.6227C183.14 17.2846 183.746 17.1156 184.394 17.1156C184.881 17.1156 185.298 17.2001 185.644 17.3691C185.994 17.5342 186.282 17.7475 186.507 18.0091C186.732 18.2707 186.903 18.5423 187.02 18.824H187.105V17.2363H190.045V26.5453C190.045 27.3301 189.847 27.9921 189.453 28.5314C189.059 29.0707 188.507 29.4792 187.799 29.7569C187.091 30.0387 186.272 30.1795 185.342 30.1795ZM185.432 24.2331C185.791 24.2331 186.097 24.1386 186.35 23.9494C186.604 23.7602 186.799 23.4886 186.936 23.1344C187.072 22.7802 187.141 22.3557 187.141 21.8606C187.141 21.3575 187.072 20.9249 186.936 20.5627C186.803 20.1964 186.608 19.9147 186.35 19.7175C186.097 19.5203 185.791 19.4217 185.432 19.4217C185.066 19.4217 184.756 19.5223 184.503 19.7235C184.249 19.9248 184.056 20.2085 183.923 20.5748C183.794 20.937 183.73 21.3656 183.73 21.8606C183.73 22.3557 183.796 22.7802 183.929 23.1344C184.062 23.4886 184.253 23.7602 184.503 23.9494C184.756 24.1386 185.066 24.2331 185.432 24.2331ZM194.879 14.1454V26.5091H191.927V14.1454H194.879ZM201.092 26.6841C200.122 26.6841 199.285 26.493 198.581 26.1106C197.881 25.7243 197.341 25.1749 196.963 24.4625C196.589 23.7462 196.402 22.8949 196.402 21.9089C196.402 20.9511 196.591 20.1139 196.969 19.3976C197.347 18.6771 197.881 18.1177 198.569 17.7193C199.257 17.3168 200.068 17.1156 201.002 17.1156C201.662 17.1156 202.265 17.2182 202.813 17.4235C203.36 17.6287 203.833 17.9326 204.231 18.3351C204.63 18.7375 204.94 19.2346 205.161 19.8262C205.382 20.4138 205.493 21.0879 205.493 21.8485V22.5851H197.434V20.8706H202.746C202.742 20.5566 202.668 20.2769 202.523 20.0314C202.378 19.7859 202.179 19.5948 201.925 19.4579C201.676 19.3171 201.388 19.2466 201.062 19.2466C200.732 19.2466 200.436 19.3211 200.175 19.47C199.913 19.6149 199.706 19.8141 199.553 20.0677C199.4 20.3172 199.319 20.6009 199.311 20.9189V22.6635C199.311 23.0418 199.386 23.3739 199.535 23.6596C199.684 23.9414 199.895 24.1607 200.169 24.3177C200.442 24.4746 200.768 24.5531 201.147 24.5531C201.408 24.5531 201.646 24.5169 201.859 24.4444C202.072 24.372 202.255 24.2653 202.408 24.1245C202.561 23.9836 202.676 23.8106 202.752 23.6053L205.463 23.6838C205.35 24.2915 205.103 24.8207 204.72 25.2715C204.342 25.7182 203.845 26.0664 203.229 26.3159C202.614 26.5614 201.901 26.6841 201.092 26.6841ZM210.653 26.5091V14.1454H215.76C216.686 14.1454 217.485 14.3265 218.157 14.6887C218.833 15.0469 219.354 15.548 219.721 16.1919C220.087 16.8319 220.27 17.5764 220.27 18.4256C220.27 19.2788 220.083 20.0254 219.709 20.6653C219.338 21.3012 218.809 21.7942 218.121 22.1444C217.433 22.4945 216.616 22.6696 215.67 22.6696H212.519V20.3152H215.115C215.565 20.3152 215.942 20.2367 216.243 20.0797C216.549 19.9228 216.781 19.7034 216.938 19.4217C217.095 19.136 217.173 18.8039 217.173 18.4256C217.173 18.0433 217.095 17.7133 216.938 17.4356C216.781 17.1538 216.549 16.9365 216.243 16.7836C215.938 16.6306 215.561 16.5542 215.115 16.5542H213.642V26.5091H210.653ZM224.695 14.1454V26.5091H221.743V14.1454H224.695ZM229.188 26.666C228.596 26.666 228.071 26.5674 227.612 26.3702C227.158 26.169 226.797 25.8671 226.532 25.4647C226.27 25.0582 226.139 24.5491 226.139 23.9373C226.139 23.4222 226.23 22.9875 226.411 22.6333C226.592 22.2792 226.842 21.9914 227.16 21.7701C227.478 21.5487 227.844 21.3817 228.258 21.269C228.673 21.1523 229.116 21.0738 229.587 21.0336C230.114 20.9853 230.538 20.935 230.86 20.8826C231.182 20.8263 231.416 20.7478 231.561 20.6472C231.71 20.5426 231.784 20.3957 231.784 20.2065V20.1763C231.784 19.8664 231.677 19.627 231.464 19.4579C231.251 19.2889 230.963 19.2044 230.601 19.2044C230.21 19.2044 229.896 19.2889 229.659 19.4579C229.422 19.627 229.271 19.8604 229.206 20.1582L226.484 20.0616C226.564 19.4982 226.771 18.9951 227.105 18.5524C227.443 18.1057 227.906 17.7555 228.494 17.502C229.085 17.2444 229.796 17.1156 230.625 17.1156C231.217 17.1156 231.762 17.186 232.261 17.3269C232.76 17.4637 233.195 17.665 233.565 17.9306C233.935 18.1922 234.221 18.5142 234.422 18.8965C234.627 19.2788 234.73 19.7155 234.73 20.2065V26.5091H231.953V25.2172H231.881C231.716 25.5311 231.504 25.7967 231.247 26.014C230.993 26.2314 230.693 26.3944 230.347 26.503C230.005 26.6117 229.619 26.666 229.188 26.666ZM230.1 24.7342C230.418 24.7342 230.703 24.6698 230.957 24.541C231.215 24.4122 231.42 24.2351 231.573 24.0098C231.726 23.7804 231.802 23.5147 231.802 23.2129V22.3315C231.718 22.3758 231.615 22.416 231.494 22.4522C231.378 22.4885 231.249 22.5227 231.108 22.5549C230.967 22.5871 230.822 22.6152 230.673 22.6394C230.524 22.6635 230.381 22.6857 230.245 22.7058C229.967 22.7501 229.729 22.8185 229.532 22.911C229.339 23.0036 229.19 23.1244 229.085 23.2733C228.985 23.4182 228.935 23.5912 228.935 23.7924C228.935 24.0983 229.043 24.3317 229.261 24.4927C229.482 24.6537 229.762 24.7342 230.1 24.7342ZM238.008 29.9863C237.654 29.9863 237.32 29.9582 237.006 29.9018C236.692 29.8495 236.422 29.7791 236.197 29.6905L236.849 27.5474C237.139 27.644 237.4 27.7003 237.634 27.7164C237.871 27.7325 238.074 27.6943 238.244 27.6017C238.417 27.5132 238.549 27.3542 238.642 27.1248L238.757 26.8471L235.46 17.2363H238.551L240.26 23.8528H240.356L242.089 17.2363H245.198L241.703 27.3965C241.534 27.9036 241.294 28.3503 240.984 28.7367C240.678 29.1271 240.282 29.4329 239.795 29.6543C239.312 29.8757 238.716 29.9863 238.008 29.9863Z" fill="url(#paint1_linear_1_142)"/>
</g>
</g>
<rect x="1.0707" y="1.07979" width="251.858" height="37.8585" rx="6.92857" stroke="white" stroke-opacity="0.15" stroke-width="2.14286"/>
<defs>
<filter id="filter0_d_1_142" x="2.39899" y="0.408082" width="39.202" height="39.202" filterUnits="userSpaceOnUse" color-interpolation-filters="sRGB">
<feFlood flood-opacity="0" result="BackgroundImageFix"/>
<feColorMatrix in="SourceAlpha" type="matrix" values="0 0 0 0 0 0 0 0 0 0 0 0 0 0 0 0 0 0 127 0" result="hardAlpha"/>
<feOffset/>
<feGaussianBlur stdDeviation="2.80014"/>
<feComposite in2="hardAlpha" operator="out"/>
<feColorMatrix type="matrix" values="0 0 0 0 0 0 0 0 0 0 0 0 0 0 0 0 0 0 0.25 0"/>
<feBlend mode="normal" in2="BackgroundImageFix" result="effect1_dropShadow_1_142"/>
<feBlend mode="normal" in="SourceGraphic" in2="effect1_dropShadow_1_142" result="shape"/>
</filter>
<filter id="filter1_d_1_142" x="38.2864" y="3.79478" width="213.429" height="32.4286" filterUnits="userSpaceOnUse" color-interpolation-filters="sRGB">
<feFlood flood-opacity="0" result="BackgroundImageFix"/>
<feColorMatrix in="SourceAlpha" type="matrix" values="0 0 0 0 0 0 0 0 0 0 0 0 0 0 0 0 0 0 127 0" result="hardAlpha"/>
<feOffset/>
<feGaussianBlur stdDeviation="2.85714"/>
<feComposite in2="hardAlpha" operator="out"/>
<feColorMatrix type="matrix" values="0 0 0 0 0 0 0 0 0 0 0 0 0 0 0 0 0 0 0.25 0"/>
<feBlend mode="normal" in2="BackgroundImageFix" result="effect1_dropShadow_1_142"/>
<feBlend mode="normal" in="SourceGraphic" in2="effect1_dropShadow_1_142" result="shape"/>
</filter>
<linearGradient id="paint0_linear_1_142" x1="127" y1="0.00836181" x2="127" y2="40.0098" gradientUnits="userSpaceOnUse">
<stop stop-color="#00171C"/>
<stop offset="0.333333" stop-color="#0A1209"/>
<stop offset="0.666667" stop-color="#100F06"/>
<stop offset="1" stop-color="#1A0000"/>
</linearGradient>
<linearGradient id="paint1_linear_1_142" x1="146.001" y1="9.50906" x2="246.001" y2="9.50906" gradientUnits="userSpaceOnUse">
<stop stop-color="#5991EE"/>
<stop offset="0.333333" stop-color="#56AB6C"/>
<stop offset="0.666667" stop-color="#F5D26A"/>
<stop offset="1" stop-color="#EB786F"/>
</linearGradient>
<clipPath id="clip0_1_142">
<rect x="-0.000732422" y="0.00836182" width="254.001" height="40.0014" rx="8" fill="white"/>
</clipPath>
</defs>
</svg>
