<svg width="176" height="28" viewBox="0 0 176 28" fill="none" xmlns="http://www.w3.org/2000/svg">
<g clip-path="url(#clip0_28_2593)">
<rect x="0.499268" y="-1.52588e-05" width="175.5" height="28" rx="6" fill="url(#paint0_linear_28_2593)"/>
<g filter="url(#filter0_d_28_2593)">
<path d="M8.35631 4.31653C8.13041 4.55513 7.99487 4.93008 7.99487 5.40729V22.5982C7.99487 23.0754 8.13041 23.4503 8.35631 23.6889L8.41278 23.7458L17.9908 14.1107V13.8834L8.41278 4.24835L8.35631 4.31653Z" fill="url(#paint1_linear_28_2593)"/>
<path d="M21.1759 17.3262L17.9907 14.1107V13.8834L21.1872 10.668L21.2549 10.7134L25.0387 12.8722C26.123 13.4858 26.123 14.497 25.0387 15.1219L21.2549 17.2807L21.1759 17.3262Z" fill="url(#paint2_linear_28_2593)"/>
<path d="M21.2549 17.2807L17.9907 13.9971L8.3562 23.6889C8.70634 24.0639 9.30497 24.1207 9.96007 23.7344L21.2549 17.2807Z" fill="url(#paint3_linear_28_2593)"/>
<path d="M21.2549 10.7248L9.96007 4.27107C9.29367 3.89612 8.70634 3.94157 8.3562 4.31652L17.9907 14.0084L21.2549 10.7248Z" fill="url(#paint4_linear_28_2593)"/>
</g>
<g filter="url(#filter1_d_28_2593)">
<path d="M34.054 18.5H32.7727L35.6516 10.5H37.0461L39.925 18.5H38.6438L36.3821 11.9531H36.3196L34.054 18.5ZM34.2688 15.3672H38.425V16.3828H34.2688V15.3672ZM45.3674 12.5L43.1916 18.5H41.9416L39.762 12.5H41.0159L42.5354 17.1172H42.5979L44.1135 12.5H45.3674ZM48.0393 18.6328C47.6591 18.6328 47.3153 18.5625 47.0081 18.4219C46.7008 18.2786 46.4573 18.0716 46.2776 17.8008C46.1005 17.5299 46.012 17.1979 46.012 16.8047C46.012 16.4661 46.0771 16.1875 46.2073 15.9687C46.3375 15.75 46.5133 15.5768 46.7346 15.4492C46.956 15.3216 47.2034 15.2252 47.4768 15.1601C47.7502 15.095 48.0289 15.0456 48.3127 15.0117C48.6721 14.97 48.9638 14.9362 49.1877 14.9101C49.4117 14.8815 49.5745 14.8359 49.676 14.7734C49.7776 14.7109 49.8284 14.6094 49.8284 14.4687V14.4414C49.8284 14.1002 49.732 13.8359 49.5393 13.6484C49.3492 13.4609 49.0653 13.3672 48.6877 13.3672C48.2945 13.3672 47.9846 13.4544 47.7581 13.6289C47.5341 13.8008 47.3791 13.9922 47.2932 14.2031L46.1956 13.9531C46.3258 13.5885 46.5159 13.2943 46.7659 13.0703C47.0185 12.8437 47.3088 12.6797 47.637 12.5781C47.9651 12.4739 48.3101 12.4219 48.6721 12.4219C48.9117 12.4219 49.1656 12.4505 49.4338 12.5078C49.7047 12.5625 49.9573 12.664 50.1916 12.8125C50.4286 12.9609 50.6226 13.1732 50.7737 13.4492C50.9247 13.7226 51.0002 14.0781 51.0002 14.5156V18.5H49.8596V17.6797H49.8127C49.7372 17.8307 49.6239 17.9791 49.4729 18.125C49.3219 18.2708 49.1278 18.3919 48.8909 18.4883C48.6539 18.5846 48.37 18.6328 48.0393 18.6328ZM48.2932 17.6953C48.6161 17.6953 48.8922 17.6315 49.1213 17.5039C49.3531 17.3763 49.5289 17.2096 49.6487 17.0039C49.7711 16.7956 49.8323 16.5729 49.8323 16.3359V15.5625C49.7906 15.6041 49.7099 15.6432 49.5901 15.6797C49.4729 15.7135 49.3388 15.7435 49.1877 15.7695C49.0367 15.793 48.8896 15.8151 48.7463 15.8359C48.6031 15.8541 48.4833 15.8698 48.387 15.8828C48.1604 15.9114 47.9534 15.9596 47.7659 16.0273C47.581 16.095 47.4325 16.1927 47.3206 16.3203C47.2112 16.4453 47.1565 16.612 47.1565 16.8203C47.1565 17.1094 47.2633 17.3281 47.4768 17.4765C47.6903 17.6224 47.9625 17.6953 48.2932 17.6953ZM52.5559 18.5V12.5H53.7239V18.5H52.5559ZM53.1457 11.5742C52.9426 11.5742 52.7681 11.5065 52.6223 11.3711C52.4791 11.2331 52.4075 11.069 52.4075 10.8789C52.4075 10.6862 52.4791 10.5221 52.6223 10.3867C52.7681 10.2487 52.9426 10.1797 53.1457 10.1797C53.3489 10.1797 53.522 10.2487 53.6653 10.3867C53.8111 10.5221 53.884 10.6862 53.884 10.8789C53.884 11.069 53.8111 11.2331 53.6653 11.3711C53.522 11.5065 53.3489 11.5742 53.1457 11.5742ZM56.4631 10.5V18.5H55.2952V10.5H56.4631ZM59.7805 18.6328C59.4003 18.6328 59.0566 18.5625 58.7493 18.4219C58.442 18.2786 58.1985 18.0716 58.0188 17.8008C57.8417 17.5299 57.7532 17.1979 57.7532 16.8047C57.7532 16.4661 57.8183 16.1875 57.9485 15.9687C58.0787 15.75 58.2545 15.5768 58.4758 15.4492C58.6972 15.3216 58.9446 15.2252 59.218 15.1601C59.4914 15.095 59.7701 15.0456 60.0539 15.0117C60.4133 14.97 60.705 14.9362 60.9289 14.9101C61.1529 14.8815 61.3157 14.8359 61.4172 14.7734C61.5188 14.7109 61.5696 14.6094 61.5696 14.4687V14.4414C61.5696 14.1002 61.4732 13.8359 61.2805 13.6484C61.0904 13.4609 60.8066 13.3672 60.4289 13.3672C60.0357 13.3672 59.7258 13.4544 59.4993 13.6289C59.2753 13.8008 59.1204 13.9922 59.0344 14.2031L57.9368 13.9531C58.067 13.5885 58.2571 13.2943 58.5071 13.0703C58.7597 12.8437 59.05 12.6797 59.3782 12.5781C59.7063 12.4739 60.0513 12.4219 60.4133 12.4219C60.6529 12.4219 60.9068 12.4505 61.175 12.5078C61.4459 12.5625 61.6985 12.664 61.9329 12.8125C62.1698 12.9609 62.3638 13.1732 62.5149 13.4492C62.6659 13.7226 62.7414 14.0781 62.7414 14.5156V18.5H61.6008V17.6797H61.5539C61.4784 17.8307 61.3651 17.9791 61.2141 18.125C61.0631 18.2708 60.8691 18.3919 60.6321 18.4883C60.3951 18.5846 60.1112 18.6328 59.7805 18.6328ZM60.0344 17.6953C60.3573 17.6953 60.6334 17.6315 60.8625 17.5039C61.0943 17.3763 61.2701 17.2096 61.3899 17.0039C61.5123 16.7956 61.5735 16.5729 61.5735 16.3359V15.5625C61.5318 15.6041 61.4511 15.6432 61.3313 15.6797C61.2141 15.7135 61.08 15.7435 60.9289 15.7695C60.7779 15.793 60.6308 15.8151 60.4875 15.8359C60.3443 15.8541 60.2245 15.8698 60.1282 15.8828C59.9016 15.9114 59.6946 15.9596 59.5071 16.0273C59.3222 16.095 59.1737 16.1927 59.0618 16.3203C58.9524 16.4453 58.8977 16.612 58.8977 16.8203C58.8977 17.1094 59.0045 17.3281 59.218 17.4765C59.4316 17.6224 59.7037 17.6953 60.0344 17.6953ZM64.3909 18.5V10.5H65.5588V13.4726H65.6291C65.6968 13.3476 65.7945 13.2031 65.9221 13.039C66.0497 12.875 66.2268 12.7318 66.4534 12.6094C66.6799 12.4844 66.9794 12.4219 67.3518 12.4219C67.8362 12.4219 68.2685 12.5443 68.6487 12.789C69.0289 13.0338 69.3271 13.3867 69.5432 13.8476C69.762 14.3086 69.8713 14.8633 69.8713 15.5117C69.8713 16.1601 69.7633 16.7161 69.5471 17.1797C69.331 17.6406 69.0341 17.9961 68.6565 18.2461C68.2789 18.4935 67.8479 18.6172 67.3635 18.6172C66.9989 18.6172 66.7008 18.556 66.469 18.4336C66.2398 18.3112 66.0601 18.168 65.9299 18.0039C65.7997 17.8398 65.6995 17.694 65.6291 17.5664H65.5315V18.5H64.3909ZM65.5354 15.5C65.5354 15.9219 65.5966 16.2916 65.719 16.6094C65.8414 16.9271 66.0185 17.1758 66.2502 17.3555C66.482 17.5325 66.7659 17.6211 67.1018 17.6211C67.4508 17.6211 67.7424 17.5286 67.9768 17.3437C68.2112 17.1562 68.3883 16.9023 68.508 16.582C68.6304 16.2617 68.6916 15.901 68.6916 15.5C68.6916 15.1041 68.6317 14.7487 68.512 14.4336C68.3948 14.1185 68.2177 13.8698 67.9807 13.6875C67.7463 13.5052 67.4534 13.414 67.1018 13.414C66.7633 13.414 66.4768 13.5013 66.2424 13.6758C66.0107 13.8502 65.8349 14.0937 65.7151 14.4062C65.5953 14.7187 65.5354 15.0833 65.5354 15.5ZM72.3508 10.5V18.5H71.1828V10.5H72.3508ZM76.508 18.6211C75.9169 18.6211 75.4078 18.4948 74.9807 18.2422C74.5562 17.987 74.2281 17.6289 73.9963 17.168C73.7672 16.7044 73.6526 16.1614 73.6526 15.539C73.6526 14.9245 73.7672 14.3828 73.9963 13.914C74.2281 13.4453 74.551 13.0794 74.9651 12.8164C75.3817 12.5534 75.8687 12.4219 76.426 12.4219C76.7646 12.4219 77.0927 12.4778 77.4104 12.5898C77.7281 12.7018 78.0133 12.8776 78.2659 13.1172C78.5185 13.3568 78.7177 13.668 78.8635 14.0508C79.0093 14.431 79.0823 14.8932 79.0823 15.4375V15.8515H74.3127V14.9765H77.9377C77.9377 14.6693 77.8752 14.3971 77.7502 14.1601C77.6252 13.9206 77.4494 13.7318 77.2229 13.5937C76.9989 13.4557 76.7359 13.3867 76.4338 13.3867C76.1057 13.3867 75.8192 13.4674 75.5745 13.6289C75.3323 13.7877 75.1448 13.9961 75.012 14.2539C74.8817 14.5091 74.8166 14.7864 74.8166 15.0859V15.7695C74.8166 16.1706 74.887 16.5117 75.0276 16.793C75.1708 17.0742 75.37 17.289 75.6252 17.4375C75.8804 17.5833 76.1786 17.6562 76.5198 17.6562C76.7411 17.6562 76.9429 17.625 77.1252 17.5625C77.3075 17.4974 77.4651 17.401 77.5979 17.2734C77.7307 17.1458 77.8323 16.9883 77.9026 16.8008L79.008 17C78.9195 17.3255 78.7606 17.6107 78.5315 17.8555C78.3049 18.0976 78.0198 18.2864 77.676 18.4219C77.3349 18.5547 76.9455 18.6211 76.508 18.6211ZM85.8166 18.6211C85.2541 18.6211 84.7632 18.4922 84.344 18.2344C83.9247 17.9765 83.5992 17.6159 83.3674 17.1523C83.1356 16.6888 83.0198 16.1471 83.0198 15.5273C83.0198 14.9049 83.1356 14.3607 83.3674 13.8945C83.5992 13.4284 83.9247 13.0664 84.344 12.8086C84.7632 12.5508 85.2541 12.4219 85.8166 12.4219C86.3791 12.4219 86.87 12.5508 87.2893 12.8086C87.7086 13.0664 88.0341 13.4284 88.2659 13.8945C88.4976 14.3607 88.6135 14.9049 88.6135 15.5273C88.6135 16.1471 88.4976 16.6888 88.2659 17.1523C88.0341 17.6159 87.7086 17.9765 87.2893 18.2344C86.87 18.4922 86.3791 18.6211 85.8166 18.6211ZM85.8205 17.6406C86.1851 17.6406 86.4872 17.5443 86.7268 17.3515C86.9664 17.1588 87.1435 16.9023 87.258 16.582C87.3752 16.2617 87.4338 15.9088 87.4338 15.5234C87.4338 15.1406 87.3752 14.789 87.258 14.4687C87.1435 14.1458 86.9664 13.8867 86.7268 13.6914C86.4872 13.4961 86.1851 13.3984 85.8205 13.3984C85.4534 13.3984 85.1487 13.4961 84.9065 13.6914C84.6669 13.8867 84.4885 14.1458 84.3713 14.4687C84.2567 14.789 84.1994 15.1406 84.1994 15.5234C84.1994 15.9088 84.2567 16.2617 84.3713 16.582C84.4885 16.9023 84.6669 17.1588 84.9065 17.3515C85.1487 17.5443 85.4534 17.6406 85.8205 17.6406ZM91.0852 14.9375V18.5H89.9172V12.5H91.0383V13.4765H91.1125C91.2506 13.1588 91.4667 12.9036 91.761 12.7109C92.0578 12.5182 92.4315 12.4219 92.8821 12.4219C93.2909 12.4219 93.649 12.5078 93.9563 12.6797C94.2636 12.8489 94.5019 13.1015 94.6711 13.4375C94.8404 13.7734 94.925 14.1888 94.925 14.6836V18.5H93.7571V14.8242C93.7571 14.3893 93.6438 14.0495 93.4172 13.8047C93.1907 13.5573 92.8795 13.4336 92.4836 13.4336C92.2128 13.4336 91.9719 13.4922 91.761 13.6094C91.5526 13.7265 91.3873 13.8984 91.2649 14.125C91.1451 14.3489 91.0852 14.6198 91.0852 14.9375Z" fill="#E8E8E8"/>
<path d="M105.387 12.6236C105.339 12.4446 105.268 12.2869 105.174 12.1506C105.08 12.0113 104.965 11.8934 104.829 11.7969C104.692 11.7003 104.536 11.6278 104.36 11.5795C104.184 11.5284 103.991 11.5028 103.781 11.5028C103.357 11.5028 102.991 11.6051 102.681 11.8096C102.374 12.0142 102.137 12.3125 101.969 12.7045C101.802 13.0937 101.718 13.5667 101.718 14.1236C101.718 14.6832 101.799 15.1605 101.961 15.5554C102.123 15.9503 102.357 16.2514 102.664 16.4588C102.971 16.6662 103.343 16.7699 103.781 16.7699C104.167 16.7699 104.494 16.7074 104.761 16.5824C105.031 16.4545 105.235 16.2741 105.374 16.0412C105.513 15.8082 105.583 15.5341 105.583 15.2187L105.975 15.2656H103.853V13.7273H107.616V14.8821C107.616 15.6633 107.45 16.3324 107.117 16.8892C106.788 17.446 106.333 17.8736 105.754 18.1719C105.177 18.4702 104.513 18.6193 103.763 18.6193C102.931 18.6193 102.2 18.4389 101.569 18.0781C100.938 17.7173 100.447 17.2031 100.094 16.5355C99.7422 15.865 99.566 15.0696 99.566 14.1491C99.566 13.4332 99.6726 12.7983 99.8856 12.2443C100.099 11.6875 100.396 11.2159 100.776 10.8295C101.16 10.4432 101.603 10.1506 102.106 9.95169C102.611 9.75282 103.156 9.65339 103.738 9.65339C104.244 9.65339 104.714 9.72584 105.148 9.87072C105.586 10.0156 105.972 10.2202 106.308 10.4844C106.646 10.7486 106.92 11.0625 107.13 11.4261C107.34 11.7898 107.471 12.1889 107.522 12.6236H105.387ZM111.914 18.6236C111.227 18.6236 110.636 18.4829 110.142 18.2017C109.65 17.9176 109.271 17.5227 109.004 17.017C108.74 16.5085 108.608 15.919 108.608 15.2486C108.608 14.5753 108.74 13.9858 109.004 13.4801C109.271 12.9716 109.65 12.5767 110.142 12.2954C110.636 12.0113 111.227 11.8693 111.914 11.8693C112.602 11.8693 113.191 12.0113 113.683 12.2954C114.177 12.5767 114.556 12.9716 114.821 13.4801C115.088 13.9858 115.221 14.5753 115.221 15.2486C115.221 15.919 115.088 16.5085 114.821 17.017C114.556 17.5227 114.177 17.9176 113.683 18.2017C113.191 18.4829 112.602 18.6236 111.914 18.6236ZM111.927 17.0511C112.177 17.0511 112.389 16.9744 112.562 16.821C112.735 16.6676 112.868 16.4545 112.958 16.1818C113.052 15.9091 113.099 15.5937 113.099 15.2358C113.099 14.8721 113.052 14.554 112.958 14.2812C112.868 14.0085 112.735 13.7954 112.562 13.642C112.389 13.4886 112.177 13.4119 111.927 13.4119C111.669 13.4119 111.45 13.4886 111.271 13.642C111.095 13.7954 110.96 14.0085 110.866 14.2812C110.775 14.554 110.73 14.8721 110.73 15.2358C110.73 15.5937 110.775 15.9091 110.866 16.1818C110.96 16.4545 111.095 16.6676 111.271 16.821C111.45 16.9744 111.669 17.0511 111.927 17.0511ZM119.344 18.6236C118.657 18.6236 118.066 18.4829 117.571 18.2017C117.08 17.9176 116.701 17.5227 116.434 17.017C116.169 16.5085 116.037 15.919 116.037 15.2486C116.037 14.5753 116.169 13.9858 116.434 13.4801C116.701 12.9716 117.08 12.5767 117.571 12.2954C118.066 12.0113 118.657 11.8693 119.344 11.8693C120.032 11.8693 120.621 12.0113 121.113 12.2954C121.607 12.5767 121.986 12.9716 122.25 13.4801C122.517 13.9858 122.651 14.5753 122.651 15.2486C122.651 15.919 122.517 16.5085 122.25 17.017C121.986 17.5227 121.607 17.9176 121.113 18.2017C120.621 18.4829 120.032 18.6236 119.344 18.6236ZM119.357 17.0511C119.607 17.0511 119.819 16.9744 119.992 16.821C120.165 16.6676 120.297 16.4545 120.388 16.1818C120.482 15.9091 120.529 15.5937 120.529 15.2358C120.529 14.8721 120.482 14.554 120.388 14.2812C120.297 14.0085 120.165 13.7954 119.992 13.642C119.819 13.4886 119.607 13.4119 119.357 13.4119C119.098 13.4119 118.88 13.4886 118.701 13.642C118.524 13.7954 118.39 14.0085 118.296 14.2812C118.205 14.554 118.159 14.8721 118.159 15.2358C118.159 15.5937 118.205 15.9091 118.296 16.1818C118.39 16.4545 118.524 16.6676 118.701 16.821C118.88 16.9744 119.098 17.0511 119.357 17.0511ZM126.77 21.0909C126.147 21.0909 125.615 21.0042 125.171 20.8309C124.728 20.6577 124.38 20.4204 124.127 20.1193C123.875 19.8182 123.723 19.4773 123.671 19.0966L125.645 18.9858C125.681 19.1193 125.75 19.2358 125.849 19.3352C125.951 19.4346 126.083 19.5113 126.245 19.5653C126.41 19.6193 126.603 19.6463 126.825 19.6463C127.174 19.6463 127.463 19.5611 127.69 19.3906C127.92 19.223 128.035 18.929 128.035 18.5085V17.3579H127.963C127.88 17.5596 127.755 17.74 127.588 17.8991C127.42 18.0582 127.211 18.1832 126.961 18.2741C126.714 18.365 126.43 18.4105 126.109 18.4105C125.632 18.4105 125.194 18.2997 124.796 18.0781C124.402 17.8537 124.085 17.5071 123.846 17.0383C123.61 16.5667 123.493 15.9602 123.493 15.2187C123.493 14.4545 123.615 13.8253 123.859 13.3309C124.103 12.8338 124.423 12.4659 124.818 12.2273C125.216 11.9886 125.643 11.8693 126.1 11.8693C126.444 11.8693 126.738 11.929 126.983 12.0483C127.23 12.1648 127.433 12.3153 127.592 12.5C127.751 12.6846 127.872 12.8764 127.954 13.0753H128.014V11.9545H130.089V18.5255C130.089 19.0795 129.95 19.5469 129.671 19.9275C129.393 20.3082 129.004 20.5966 128.504 20.7926C128.004 20.9915 127.426 21.0909 126.77 21.0909ZM126.833 16.8934C127.086 16.8934 127.302 16.8267 127.481 16.6932C127.66 16.5596 127.798 16.3679 127.895 16.1179C127.991 15.8679 128.039 15.5682 128.039 15.2187C128.039 14.8636 127.991 14.5582 127.895 14.3025C127.801 14.044 127.663 13.8452 127.481 13.7059C127.302 13.5667 127.086 13.4971 126.833 13.4971C126.575 13.4971 126.356 13.5682 126.177 13.7102C125.998 13.8523 125.862 14.0525 125.768 14.3111C125.677 14.5667 125.632 14.8693 125.632 15.2187C125.632 15.5682 125.679 15.8679 125.772 16.1179C125.866 16.3679 126.001 16.5596 126.177 16.6932C126.356 16.8267 126.575 16.8934 126.833 16.8934ZM133.501 9.77271V18.5H131.418V9.77271H133.501ZM137.887 18.6236C137.203 18.6236 136.612 18.4886 136.115 18.2187C135.62 17.946 135.24 17.5582 134.973 17.0554C134.708 16.5497 134.576 15.9488 134.576 15.2528C134.576 14.5767 134.71 13.9858 134.977 13.4801C135.244 12.9716 135.62 12.5767 136.106 12.2954C136.592 12.0113 137.164 11.8693 137.823 11.8693C138.289 11.8693 138.716 11.9417 139.102 12.0866C139.488 12.2315 139.822 12.446 140.103 12.7301C140.385 13.0142 140.603 13.365 140.76 13.7827C140.916 14.1974 140.994 14.6733 140.994 15.2102V15.7301H135.305V14.5199H139.055C139.052 14.2983 139 14.1008 138.897 13.9275C138.795 13.7542 138.654 13.6193 138.475 13.5227C138.299 13.4233 138.096 13.3736 137.866 13.3736C137.633 13.3736 137.424 13.4261 137.24 13.5312C137.055 13.6335 136.909 13.7741 136.801 13.9531C136.693 14.1292 136.636 14.3295 136.63 14.554V15.7855C136.63 16.0525 136.683 16.2869 136.788 16.4886C136.893 16.6875 137.042 16.8423 137.235 16.9531C137.429 17.0639 137.659 17.1193 137.926 17.1193C138.11 17.1193 138.278 17.0937 138.429 17.0426C138.579 16.9915 138.708 16.9162 138.816 16.8167C138.924 16.7173 139.005 16.5952 139.059 16.4503L140.973 16.5057C140.893 16.9346 140.718 17.3082 140.448 17.6264C140.181 17.9417 139.831 18.1875 139.396 18.3636C138.961 18.5369 138.458 18.6236 137.887 18.6236ZM144.636 18.5V9.77271H148.241C148.895 9.77271 149.459 9.90055 149.933 10.1562C150.41 10.4091 150.778 10.7628 151.037 11.2173C151.295 11.669 151.425 12.1946 151.425 12.794C151.425 13.3963 151.293 13.9233 151.028 14.375C150.767 14.8238 150.393 15.1719 149.908 15.419C149.422 15.6662 148.845 15.7898 148.178 15.7898H145.953V14.1278H147.785C148.104 14.1278 148.369 14.0724 148.582 13.9616C148.798 13.8508 148.962 13.696 149.072 13.4971C149.183 13.2954 149.239 13.0611 149.239 12.794C149.239 12.5241 149.183 12.2912 149.072 12.0952C148.962 11.8963 148.798 11.7429 148.582 11.6349C148.366 11.527 148.101 11.473 147.785 11.473H146.746V18.5H144.636ZM154.548 9.77271V18.5H152.464V9.77271H154.548ZM157.72 18.6108C157.302 18.6108 156.931 18.5412 156.608 18.402C156.287 18.2599 156.032 18.0469 155.845 17.7628C155.66 17.4758 155.568 17.1165 155.568 16.6846C155.568 16.321 155.632 16.0142 155.76 15.7642C155.887 15.5142 156.064 15.3111 156.288 15.1548C156.512 14.9986 156.771 14.8807 157.064 14.8011C157.356 14.7187 157.669 14.6633 158.001 14.6349C158.373 14.6008 158.673 14.5653 158.9 14.5284C159.127 14.4886 159.292 14.4332 159.394 14.3622C159.5 14.2883 159.552 14.1846 159.552 14.0511V14.0298C159.552 13.8111 159.477 13.642 159.326 13.5227C159.176 13.4034 158.973 13.3437 158.717 13.3437C158.441 13.3437 158.22 13.4034 158.052 13.5227C157.885 13.642 157.778 13.8068 157.733 14.017L155.811 13.9488C155.868 13.5511 156.014 13.196 156.25 12.8835C156.488 12.5682 156.815 12.321 157.23 12.142C157.647 11.9602 158.149 11.8693 158.734 11.8693C159.152 11.8693 159.537 11.919 159.889 12.0184C160.241 12.115 160.548 12.2571 160.809 12.4446C161.071 12.6292 161.272 12.8565 161.414 13.1264C161.559 13.3963 161.632 13.7045 161.632 14.0511V18.5H159.671V17.588H159.62C159.504 17.8096 159.355 17.9971 159.173 18.1505C158.994 18.304 158.782 18.419 158.538 18.4957C158.296 18.5724 158.024 18.6108 157.72 18.6108ZM158.363 17.2471C158.588 17.2471 158.789 17.2017 158.968 17.1108C159.15 17.0199 159.295 16.8949 159.403 16.7358C159.511 16.5738 159.565 16.3863 159.565 16.1733V15.5511C159.505 15.5824 159.433 15.6108 159.348 15.6363C159.265 15.6619 159.174 15.6861 159.075 15.7088C158.975 15.7315 158.873 15.7514 158.768 15.7684C158.663 15.7855 158.562 15.8011 158.466 15.8153C158.269 15.8466 158.102 15.8949 157.963 15.9602C157.826 16.0256 157.721 16.1108 157.647 16.2159C157.576 16.3182 157.541 16.4403 157.541 16.5824C157.541 16.7983 157.618 16.9631 157.771 17.0767C157.927 17.1903 158.125 17.2471 158.363 17.2471ZM163.946 20.9545C163.696 20.9545 163.46 20.9346 163.238 20.8949C163.017 20.8579 162.826 20.8082 162.667 20.7457L163.127 19.2329C163.332 19.3011 163.517 19.3409 163.681 19.3523C163.849 19.3636 163.993 19.3366 164.112 19.2713C164.234 19.2088 164.328 19.0966 164.393 18.9346L164.474 18.7386L162.147 11.9545H164.329L165.535 16.625H165.603L166.826 11.9545H169.021L166.554 19.1264C166.434 19.4844 166.265 19.7997 166.046 20.0724C165.831 20.348 165.551 20.5639 165.207 20.7202C164.866 20.8764 164.446 20.9545 163.946 20.9545Z" fill="url(#paint5_linear_28_2593)"/>
</g>
</g>
<rect x="1.24927" y="0.749985" width="174" height="26.5" rx="5.25" stroke="white" stroke-opacity="0.15" stroke-width="1.5"/>
<defs>
<filter id="filter0_d_28_2593" x="2.49927" y="-1.52588e-05" width="28" height="28" filterUnits="userSpaceOnUse" color-interpolation-filters="sRGB">
<feFlood flood-opacity="0" result="BackgroundImageFix"/>
<feColorMatrix in="SourceAlpha" type="matrix" values="0 0 0 0 0 0 0 0 0 0 0 0 0 0 0 0 0 0 127 0" result="hardAlpha"/>
<feOffset/>
<feGaussianBlur stdDeviation="2"/>
<feComposite in2="hardAlpha" operator="out"/>
<feColorMatrix type="matrix" values="0 0 0 0 0 0 0 0 0 0 0 0 0 0 0 0 0 0 0.25 0"/>
<feBlend mode="normal" in2="BackgroundImageFix" result="effect1_dropShadow_28_2593"/>
<feBlend mode="normal" in="SourceGraphic" in2="effect1_dropShadow_28_2593" result="shape"/>
</filter>
<filter id="filter1_d_28_2593" x="28.4993" y="3.49998" width="145.5" height="21.5909" filterUnits="userSpaceOnUse" color-interpolation-filters="sRGB">
<feFlood flood-opacity="0" result="BackgroundImageFix"/>
<feColorMatrix in="SourceAlpha" type="matrix" values="0 0 0 0 0 0 0 0 0 0 0 0 0 0 0 0 0 0 127 0" result="hardAlpha"/>
<feOffset/>
<feGaussianBlur stdDeviation="2"/>
<feComposite in2="hardAlpha" operator="out"/>
<feColorMatrix type="matrix" values="0 0 0 0 0 0 0 0 0 0 0 0 0 0 0 0 0 0 0.25 0"/>
<feBlend mode="normal" in2="BackgroundImageFix" result="effect1_dropShadow_28_2593"/>
<feBlend mode="normal" in="SourceGraphic" in2="effect1_dropShadow_28_2593" result="shape"/>
</filter>
<linearGradient id="paint0_linear_28_2593" x1="88.2492" y1="-1.52588e-05" x2="88.2492" y2="28" gradientUnits="userSpaceOnUse">
<stop stop-color="#00171C"/>
<stop offset="0.333333" stop-color="#0A1209"/>
<stop offset="0.666667" stop-color="#100F06"/>
<stop offset="1" stop-color="#1A0000"/>
</linearGradient>
<linearGradient id="paint1_linear_28_2593" x1="17.132" y1="5.22027" x2="4.08426" y2="18.1907" gradientUnits="userSpaceOnUse">
<stop stop-color="#00A0FF"/>
<stop offset="0.007" stop-color="#00A1FF"/>
<stop offset="0.26" stop-color="#00BEFF"/>
<stop offset="0.512" stop-color="#00D2FF"/>
<stop offset="0.76" stop-color="#00DFFF"/>
<stop offset="1" stop-color="#00E3FF"/>
</linearGradient>
<linearGradient id="paint2_linear_28_2593" x1="26.4368" y1="14.0027" x2="7.73579" y2="14.0027" gradientUnits="userSpaceOnUse">
<stop stop-color="#FFE000"/>
<stop offset="0.409" stop-color="#FFBD00"/>
<stop offset="0.775" stop-color="#FFA500"/>
<stop offset="1" stop-color="#FF9C00"/>
</linearGradient>
<linearGradient id="paint3_linear_28_2593" x1="19.4781" y1="15.7901" x2="1.78454" y2="33.3789" gradientUnits="userSpaceOnUse">
<stop stop-color="#FF3A44"/>
<stop offset="1" stop-color="#C31162"/>
</linearGradient>
<linearGradient id="paint4_linear_28_2593" x1="5.93007" y1="-1.4134" x2="13.831" y2="6.44078" gradientUnits="userSpaceOnUse">
<stop stop-color="#32A071"/>
<stop offset="0.069" stop-color="#2DA771"/>
<stop offset="0.476" stop-color="#15CF74"/>
<stop offset="0.801" stop-color="#06E775"/>
<stop offset="1" stop-color="#00F076"/>
</linearGradient>
<linearGradient id="paint5_linear_28_2593" x1="98.9993" y1="7.49998" x2="169.999" y2="7.49999" gradientUnits="userSpaceOnUse">
<stop stop-color="#7EC8FF"/>
<stop offset="0.333333" stop-color="#76F0B2"/>
<stop offset="0.666667" stop-color="#FFDC77"/>
<stop offset="1" stop-color="#FF7D84"/>
</linearGradient>
<clipPath id="clip0_28_2593">
<rect x="0.499268" y="-1.52588e-05" width="175.5" height="28" rx="6" fill="white"/>
</clipPath>
</defs>
</svg>
