<svg width="252" height="41" viewBox="0 0 252 41" fill="none" xmlns="http://www.w3.org/2000/svg">
<g clip-path="url(#clip0_1_142)">
<rect x="-0.000732422" y="0.00836182" width="252.001" height="40.0014" rx="8" fill="url(#paint0_linear_1_142)"/>
<g filter="url(#filter0_d_1_142)">
<path d="M21.1425 19.3826L9.10742 31.689C9.24256 32.1564 9.48542 32.5876 9.81744 32.9494C10.1495 33.3112 10.5619 33.5942 11.0231 33.7766C11.4843 33.959 11.9822 34.0361 12.4786 34.002C12.9751 33.9678 13.4569 33.8233 13.8874 33.5796L27.4291 26.0522L21.1425 19.3826Z" fill="#EA4335"/>
<path d="M33.3116 17.2907L27.4555 14.0172L20.864 19.6627L27.4824 26.0347L33.2937 22.7962C33.8085 22.5331 34.2398 22.1375 34.5406 21.6523C34.8415 21.167 35.0006 20.6107 35.0006 20.0435C35.0006 19.4763 34.8415 18.9199 34.5406 18.4347C34.2398 17.9494 33.8085 17.5538 33.2937 17.2907H33.3116Z" fill="#FBBC04"/>
<path d="M9.10741 8.33667C9.03466 8.59915 8.99846 8.87001 8.99979 9.14192V30.8837C9.00052 31.1555 9.03668 31.4261 9.10741 31.689L21.555 19.6977L9.10741 8.33667Z" fill="#4285F4"/>
<path d="M21.2322 20.0128L27.456 14.0172L13.9322 6.45485C13.4234 6.16403 12.8448 6.01001 12.2552 6.00846C11.5431 6.00708 10.8501 6.23299 10.2818 6.65175C9.71351 7.07051 9.30109 7.65915 9.10742 8.32793L21.2322 20.0128Z" fill="#34A853"/>
</g>
<g filter="url(#filter1_d_1_142)">
<path d="M44.4034 26.5091H42.4233L46.8725 14.1454H49.0277L53.4769 26.5091H51.4968L48.0014 16.3912H47.9049L44.4034 26.5091ZM44.7355 21.6674H51.1588V23.237H44.7355V21.6674ZM61.8879 17.2363L58.5253 26.5091H56.5935L53.2249 17.2363H55.1627L57.5111 24.372H57.6077L59.95 17.2363H61.8879ZM66.0171 26.7143C65.4296 26.7143 64.8983 26.6056 64.4234 26.3883C63.9485 26.167 63.5722 25.847 63.2945 25.4284C63.0208 25.0099 62.884 24.4967 62.884 23.889C62.884 23.3658 62.9846 22.9352 63.1858 22.5971C63.3871 22.2591 63.6587 21.9914 64.0008 21.7942C64.3429 21.597 64.7252 21.4481 65.1478 21.3475C65.5704 21.2469 66.0011 21.1704 66.4397 21.1181C66.9951 21.0537 67.4459 21.0014 67.792 20.9611C68.1381 20.9168 68.3897 20.8464 68.5466 20.7498C68.7036 20.6532 68.7821 20.4963 68.7821 20.2789V20.2367C68.7821 19.7095 68.6332 19.301 68.3353 19.0112C68.0415 18.7214 67.6028 18.5765 67.0193 18.5765C66.4116 18.5765 65.9326 18.7114 65.5825 18.981C65.2364 19.2466 64.9969 19.5424 64.8641 19.8684L63.1677 19.4821C63.3689 18.9186 63.6627 18.4638 64.0491 18.1177C64.4395 17.7676 64.8882 17.514 65.3953 17.3571C65.9024 17.1961 66.4357 17.1156 66.9951 17.1156C67.3654 17.1156 67.7578 17.1599 68.1723 17.2484C68.5909 17.3329 68.9813 17.4899 69.3435 17.7193C69.7097 17.9487 70.0096 18.2767 70.243 18.7033C70.4764 19.1259 70.5931 19.6753 70.5931 20.3514V26.5091H68.8304V25.2413H68.7579C68.6412 25.4747 68.4661 25.7041 68.2327 25.9295C67.9993 26.1549 67.6994 26.342 67.3332 26.4909C66.967 26.6399 66.5283 26.7143 66.0171 26.7143ZM66.4095 25.2655C66.9086 25.2655 67.3352 25.1668 67.6894 24.9696C68.0476 24.7724 68.3192 24.5149 68.5044 24.1969C68.6935 23.8749 68.7881 23.5308 68.7881 23.1646V21.9693C68.7237 22.0337 68.5989 22.0941 68.4138 22.1504C68.2327 22.2027 68.0254 22.249 67.792 22.2892C67.5586 22.3255 67.3312 22.3597 67.1098 22.3919C66.8885 22.42 66.7033 22.4442 66.5544 22.4643C66.2043 22.5086 65.8843 22.583 65.5946 22.6877C65.3088 22.7923 65.0794 22.9432 64.9064 23.1405C64.7373 23.3336 64.6528 23.5912 64.6528 23.9132C64.6528 24.3599 64.8178 24.698 65.1478 24.9274C65.4779 25.1528 65.8984 25.2655 66.4095 25.2655ZM72.9973 26.5091V17.2363H74.8024V26.5091H72.9973ZM73.9089 15.8056C73.595 15.8056 73.3254 15.7009 73.1 15.4917C72.8786 15.2784 72.7679 15.0248 72.7679 14.731C72.7679 14.4332 72.8786 14.1796 73.1 13.9704C73.3254 13.757 73.595 13.6504 73.9089 13.6504C74.2228 13.6504 74.4905 13.757 74.7118 13.9704C74.9372 14.1796 75.0499 14.4332 75.0499 14.731C75.0499 15.0248 74.9372 15.2784 74.7118 15.4917C74.4905 15.7009 74.2228 15.8056 73.9089 15.8056ZM79.0358 14.1454V26.5091H77.2307V14.1454H79.0358ZM84.1627 26.7143C83.5751 26.7143 83.0438 26.6056 82.5689 26.3883C82.094 26.167 81.7177 25.847 81.44 25.4284C81.1663 25.0099 81.0295 24.4967 81.0295 23.889C81.0295 23.3658 81.1301 22.9352 81.3313 22.5971C81.5326 22.2591 81.8042 21.9914 82.1463 21.7942C82.4884 21.597 82.8707 21.4481 83.2933 21.3475C83.7159 21.2469 84.1466 21.1704 84.5852 21.1181C85.1406 21.0537 85.5914 21.0014 85.9375 20.9611C86.2836 20.9168 86.5352 20.8464 86.6921 20.7498C86.8491 20.6532 86.9276 20.4963 86.9276 20.2789V20.2367C86.9276 19.7095 86.7787 19.301 86.4808 19.0112C86.187 18.7214 85.7484 18.5765 85.1648 18.5765C84.5571 18.5765 84.0781 18.7114 83.728 18.981C83.3819 19.2466 83.1424 19.5424 83.0096 19.8684L81.3132 19.4821C81.5145 18.9186 81.8082 18.4638 82.1946 18.1177C82.585 17.7676 83.0337 17.514 83.5408 17.3571C84.048 17.1961 84.5812 17.1156 85.1406 17.1156C85.5109 17.1156 85.9033 17.1599 86.3178 17.2484C86.7364 17.3329 87.1268 17.4899 87.489 17.7193C87.8552 17.9487 88.1551 18.2767 88.3885 18.7033C88.6219 19.1259 88.7386 19.6753 88.7386 20.3514V26.5091H86.9759V25.2413H86.9034C86.7867 25.4747 86.6116 25.7041 86.3782 25.9295C86.1448 26.1549 85.8449 26.342 85.4787 26.4909C85.1125 26.6399 84.6738 26.7143 84.1627 26.7143ZM84.5551 25.2655C85.0541 25.2655 85.4807 25.1668 85.8349 24.9696C86.1931 24.7724 86.4647 24.5149 86.6499 24.1969C86.839 23.8749 86.9336 23.5308 86.9336 23.1646V21.9693C86.8692 22.0337 86.7444 22.0941 86.5593 22.1504C86.3782 22.2027 86.1709 22.249 85.9375 22.2892C85.7041 22.3255 85.4767 22.3597 85.2553 22.3919C85.034 22.42 84.8488 22.4442 84.6999 22.4643C84.3498 22.5086 84.0298 22.583 83.7401 22.6877C83.4543 22.7923 83.2249 22.9432 83.0519 23.1405C82.8828 23.3336 82.7983 23.5912 82.7983 23.9132C82.7983 24.3599 82.9633 24.698 83.2933 24.9274C83.6234 25.1528 84.0439 25.2655 84.5551 25.2655ZM91.2877 26.5091V14.1454H93.0928V18.7395H93.2014C93.3061 18.5463 93.457 18.323 93.6542 18.0694C93.8514 17.8159 94.1251 17.5945 94.4752 17.4054C94.8254 17.2122 95.2882 17.1156 95.8637 17.1156C96.6123 17.1156 97.2804 17.3048 97.868 17.6831C98.4556 18.0614 98.9164 18.6067 99.2504 19.3191C99.5885 20.0314 99.7576 20.8887 99.7576 21.8908C99.7576 22.8929 99.5905 23.7522 99.2565 24.4686C98.9224 25.1809 98.4636 25.7303 97.8801 26.1167C97.2965 26.499 96.6304 26.6902 95.8818 26.6902C95.3184 26.6902 94.8576 26.5956 94.4994 26.4064C94.1452 26.2173 93.8675 25.9959 93.6663 25.7424C93.4651 25.4888 93.3101 25.2634 93.2014 25.0662H93.0505V26.5091H91.2877ZM93.0566 21.8727C93.0566 22.5247 93.1511 23.0962 93.3403 23.5872C93.5295 24.0782 93.8031 24.4625 94.1613 24.7402C94.5195 25.0139 94.9582 25.1507 95.4774 25.1507C96.0167 25.1507 96.4674 25.0079 96.8296 24.7221C97.1919 24.4324 97.4655 24.04 97.6507 23.5449C97.8398 23.0499 97.9344 22.4925 97.9344 21.8727C97.9344 21.261 97.8418 20.7116 97.6567 20.2246C97.4756 19.7376 97.2019 19.3533 96.8357 19.0716C96.4735 18.7898 96.0207 18.649 95.4774 18.649C94.9542 18.649 94.5115 18.7838 94.1492 19.0535C93.7911 19.3231 93.5194 19.6994 93.3343 20.1824C93.1491 20.6653 93.0566 21.2288 93.0566 21.8727ZM103.589 14.1454V26.5091H101.784V14.1454H103.589ZM110.014 26.6962C109.101 26.6962 108.314 26.501 107.654 26.1106C106.998 25.7162 106.491 25.1628 106.133 24.4505C105.778 23.7341 105.601 22.8949 105.601 21.9331C105.601 20.9833 105.778 20.1461 106.133 19.4217C106.491 18.6973 106.99 18.1318 107.63 17.7253C108.274 17.3188 109.026 17.1156 109.888 17.1156C110.411 17.1156 110.918 17.2021 111.409 17.3752C111.9 17.5482 112.341 17.8199 112.731 18.1902C113.121 18.5604 113.429 19.0414 113.655 19.633C113.88 20.2206 113.993 20.935 113.993 21.7761V22.416H106.622V21.0637H112.224C112.224 20.5888 112.127 20.1683 111.934 19.802C111.741 19.4318 111.469 19.14 111.119 18.9267C110.773 18.7134 110.366 18.6067 109.9 18.6067C109.392 18.6067 108.95 18.7315 108.571 18.981C108.197 19.2265 107.907 19.5485 107.702 19.9469C107.501 20.3413 107.4 20.77 107.4 21.2328V22.2892C107.4 22.909 107.509 23.4363 107.726 23.8709C107.948 24.3056 108.256 24.6376 108.65 24.867C109.044 25.0924 109.505 25.2051 110.032 25.2051C110.374 25.2051 110.686 25.1568 110.968 25.0602C111.25 24.9596 111.493 24.8107 111.699 24.6135C111.904 24.4163 112.061 24.1728 112.169 23.883L113.878 24.1909C113.741 24.694 113.496 25.1347 113.141 25.513C112.791 25.8873 112.351 26.179 111.819 26.3883C111.292 26.5936 110.69 26.6962 110.014 26.6962ZM124.4 26.6962C123.531 26.6962 122.772 26.497 122.124 26.0985C121.476 25.7001 120.973 25.1427 120.615 24.4263C120.257 23.7099 120.078 22.8728 120.078 21.915C120.078 20.9531 120.257 20.1119 120.615 19.3915C120.973 18.6711 121.476 18.1117 122.124 17.7133C122.772 17.3148 123.531 17.1156 124.4 17.1156C125.27 17.1156 126.028 17.3148 126.676 17.7133C127.324 18.1117 127.827 18.6711 128.185 19.3915C128.544 20.1119 128.723 20.9531 128.723 21.915C128.723 22.8728 128.544 23.7099 128.185 24.4263C127.827 25.1427 127.324 25.7001 126.676 26.0985C126.028 26.497 125.27 26.6962 124.4 26.6962ZM124.406 25.1809C124.97 25.1809 125.437 25.032 125.807 24.7342C126.177 24.4364 126.451 24.04 126.628 23.5449C126.809 23.0499 126.9 22.5046 126.9 21.9089C126.9 21.3173 126.809 20.774 126.628 20.2789C126.451 19.7799 126.177 19.3794 125.807 19.0776C125.437 18.7758 124.97 18.6248 124.406 18.6248C123.839 18.6248 123.368 18.7758 122.994 19.0776C122.623 19.3794 122.348 19.7799 122.167 20.2789C121.99 20.774 121.901 21.3173 121.901 21.9089C121.901 22.5046 121.99 23.0499 122.167 23.5449C122.348 24.04 122.623 24.4364 122.994 24.7342C123.368 25.032 123.839 25.1809 124.406 25.1809ZM132.543 21.0034V26.5091H130.738V17.2363H132.47V18.7456H132.585C132.798 18.2546 133.132 17.8602 133.587 17.5623C134.046 17.2645 134.623 17.1156 135.32 17.1156C135.951 17.1156 136.505 17.2484 136.98 17.514C137.455 17.7756 137.823 18.166 138.085 18.6852C138.346 19.2044 138.477 19.8463 138.477 20.611V26.5091H136.672V20.8283C136.672 20.1562 136.497 19.631 136.147 19.2527C135.797 18.8703 135.316 18.6792 134.704 18.6792C134.285 18.6792 133.913 18.7697 133.587 18.9508C133.265 19.1319 133.009 19.3976 132.82 19.7477C132.635 20.0938 132.543 20.5124 132.543 21.0034Z" fill="#E8E8E8"/>
<path d="M153.05 18.1841C152.982 17.9306 152.881 17.7072 152.748 17.514C152.615 17.3168 152.452 17.1498 152.259 17.013C152.066 16.8761 151.845 16.7735 151.595 16.7051C151.346 16.6326 151.072 16.5964 150.774 16.5964C150.174 16.5964 149.655 16.7413 149.217 17.0311C148.782 17.3209 148.446 17.7434 148.208 18.2988C147.971 18.8502 147.852 19.5203 147.852 20.3091C147.852 21.102 147.967 21.7781 148.196 22.3375C148.426 22.897 148.758 23.3236 149.192 23.6174C149.627 23.9112 150.154 24.0581 150.774 24.0581C151.322 24.0581 151.784 23.9695 152.163 23.7924C152.545 23.6113 152.835 23.3558 153.032 23.0257C153.229 22.6957 153.328 22.3074 153.328 21.8606L153.883 21.927H150.877V19.7477H156.207V21.3837C156.207 22.4905 155.972 23.4383 155.501 24.2271C155.034 25.0159 154.39 25.6216 153.569 26.0442C152.752 26.4668 151.813 26.6781 150.75 26.6781C149.571 26.6781 148.534 26.4225 147.641 25.9114C146.748 25.4003 146.051 24.6718 145.552 23.726C145.053 22.7762 144.804 21.6493 144.804 20.3454C144.804 19.3311 144.955 18.4316 145.256 17.6468C145.558 16.858 145.979 16.1899 146.518 15.6426C147.061 15.0952 147.689 14.6807 148.402 14.399C149.118 14.1173 149.889 13.9764 150.714 13.9764C151.43 13.9764 152.096 14.079 152.712 14.2843C153.332 14.4895 153.879 14.7793 154.354 15.1536C154.833 15.5279 155.221 15.9726 155.519 16.4878C155.817 17.0029 156.002 17.5684 156.075 18.1841H153.05ZM162.297 26.6841C161.323 26.6841 160.486 26.4849 159.786 26.0865C159.09 25.684 158.552 25.1246 158.174 24.4082C157.8 23.6878 157.613 22.8527 157.613 21.9029C157.613 20.949 157.8 20.1139 158.174 19.3976C158.552 18.6771 159.09 18.1177 159.786 17.7193C160.486 17.3168 161.323 17.1156 162.297 17.1156C163.271 17.1156 164.106 17.3168 164.802 17.7193C165.503 18.1177 166.04 18.6771 166.414 19.3976C166.793 20.1139 166.982 20.949 166.982 21.9029C166.982 22.8527 166.793 23.6878 166.414 24.4082C166.04 25.1246 165.503 25.684 164.802 26.0865C164.106 26.4849 163.271 26.6841 162.297 26.6841ZM162.315 24.4565C162.669 24.4565 162.969 24.3478 163.215 24.1305C163.46 23.9132 163.647 23.6113 163.776 23.225C163.909 22.8386 163.975 22.3919 163.975 21.8848C163.975 21.3696 163.909 20.9189 163.776 20.5325C163.647 20.1461 163.46 19.8443 163.215 19.627C162.969 19.4096 162.669 19.301 162.315 19.301C161.949 19.301 161.639 19.4096 161.386 19.627C161.136 19.8443 160.945 20.1461 160.812 20.5325C160.683 20.9189 160.619 21.3696 160.619 21.8848C160.619 22.3919 160.683 22.8386 160.812 23.225C160.945 23.6113 161.136 23.9132 161.386 24.1305C161.639 24.3478 161.949 24.4565 162.315 24.4565ZM172.823 26.6841C171.849 26.6841 171.011 26.4849 170.311 26.0865C169.615 25.684 169.078 25.1246 168.699 24.4082C168.325 23.6878 168.138 22.8527 168.138 21.9029C168.138 20.949 168.325 20.1139 168.699 19.3976C169.078 18.6771 169.615 18.1177 170.311 17.7193C171.011 17.3168 171.849 17.1156 172.823 17.1156C173.797 17.1156 174.632 17.3168 175.328 17.7193C176.028 18.1177 176.565 18.6771 176.94 19.3976C177.318 20.1139 177.507 20.949 177.507 21.9029C177.507 22.8527 177.318 23.6878 176.94 24.4082C176.565 25.1246 176.028 25.684 175.328 26.0865C174.632 26.4849 173.797 26.6841 172.823 26.6841ZM172.841 24.4565C173.195 24.4565 173.495 24.3478 173.74 24.1305C173.986 23.9132 174.173 23.6113 174.302 23.225C174.434 22.8386 174.501 22.3919 174.501 21.8848C174.501 21.3696 174.434 20.9189 174.302 20.5325C174.173 20.1461 173.986 19.8443 173.74 19.627C173.495 19.4096 173.195 19.301 172.841 19.301C172.474 19.301 172.165 19.4096 171.911 19.627C171.661 19.8443 171.47 20.1461 171.337 20.5325C171.209 20.9189 171.144 21.3696 171.144 21.8848C171.144 22.3919 171.209 22.8386 171.337 23.225C171.47 23.6113 171.661 23.9132 171.911 24.1305C172.165 24.3478 172.474 24.4565 172.841 24.4565ZM183.342 30.1795C182.461 30.1795 181.706 30.0568 181.078 29.8113C180.45 29.5658 179.957 29.2297 179.599 28.8031C179.241 28.3765 179.025 27.8935 178.953 27.3542L181.748 27.1973C181.8 27.3864 181.897 27.5514 182.038 27.6923C182.183 27.8332 182.37 27.9418 182.599 28.0183C182.833 28.0948 183.106 28.133 183.42 28.133C183.915 28.133 184.324 28.0123 184.646 27.7708C184.972 27.5333 185.135 27.1168 185.135 26.5211V24.8912H185.032C184.916 25.1769 184.738 25.4325 184.501 25.6579C184.264 25.8832 183.968 26.0603 183.614 26.1891C183.263 26.3179 182.861 26.3823 182.406 26.3823C181.73 26.3823 181.11 26.2253 180.547 25.9114C179.987 25.5935 179.539 25.1025 179.201 24.4384C178.867 23.7703 178.699 22.911 178.699 21.8606C178.699 20.778 178.873 19.8865 179.219 19.1863C179.565 18.482 180.018 17.9608 180.577 17.6227C181.14 17.2846 181.746 17.1156 182.394 17.1156C182.881 17.1156 183.298 17.2001 183.644 17.3691C183.994 17.5342 184.282 17.7475 184.507 18.0091C184.732 18.2707 184.903 18.5423 185.02 18.824H185.105V17.2363H188.045V26.5453C188.045 27.3301 187.847 27.9921 187.453 28.5314C187.059 29.0707 186.507 29.4792 185.799 29.7569C185.091 30.0387 184.272 30.1795 183.342 30.1795ZM183.432 24.2331C183.791 24.2331 184.097 24.1386 184.35 23.9494C184.604 23.7602 184.799 23.4886 184.936 23.1344C185.072 22.7802 185.141 22.3557 185.141 21.8606C185.141 21.3575 185.072 20.9249 184.936 20.5627C184.803 20.1964 184.608 19.9147 184.35 19.7175C184.097 19.5203 183.791 19.4217 183.432 19.4217C183.066 19.4217 182.756 19.5223 182.503 19.7235C182.249 19.9248 182.056 20.2085 181.923 20.5748C181.794 20.937 181.73 21.3656 181.73 21.8606C181.73 22.3557 181.796 22.7802 181.929 23.1344C182.062 23.4886 182.253 23.7602 182.503 23.9494C182.756 24.1386 183.066 24.2331 183.432 24.2331ZM192.879 14.1454V26.5091H189.927V14.1454H192.879ZM199.092 26.6841C198.122 26.6841 197.285 26.493 196.581 26.1106C195.881 25.7243 195.341 25.1749 194.963 24.4625C194.589 23.7462 194.402 22.8949 194.402 21.9089C194.402 20.9511 194.591 20.1139 194.969 19.3976C195.347 18.6771 195.881 18.1177 196.569 17.7193C197.257 17.3168 198.068 17.1156 199.002 17.1156C199.662 17.1156 200.265 17.2182 200.813 17.4235C201.36 17.6287 201.833 17.9326 202.231 18.3351C202.63 18.7375 202.94 19.2346 203.161 19.8262C203.382 20.4138 203.493 21.0879 203.493 21.8485V22.5851H195.434V20.8706H200.746C200.742 20.5566 200.668 20.2769 200.523 20.0314C200.378 19.7859 200.179 19.5948 199.925 19.4579C199.676 19.3171 199.388 19.2466 199.062 19.2466C198.732 19.2466 198.436 19.3211 198.175 19.47C197.913 19.6149 197.706 19.8141 197.553 20.0677C197.4 20.3172 197.319 20.6009 197.311 20.9189V22.6635C197.311 23.0418 197.386 23.3739 197.535 23.6596C197.684 23.9414 197.895 24.1607 198.169 24.3177C198.442 24.4746 198.768 24.5531 199.147 24.5531C199.408 24.5531 199.646 24.5169 199.859 24.4444C200.072 24.372 200.255 24.2653 200.408 24.1245C200.561 23.9836 200.676 23.8106 200.752 23.6053L203.463 23.6838C203.35 24.2915 203.103 24.8207 202.72 25.2715C202.342 25.7182 201.845 26.0664 201.229 26.3159C200.614 26.5614 199.901 26.6841 199.092 26.6841ZM208.653 26.5091V14.1454H213.76C214.686 14.1454 215.485 14.3265 216.157 14.6887C216.833 15.0469 217.354 15.548 217.721 16.1919C218.087 16.8319 218.27 17.5764 218.27 18.4256C218.27 19.2788 218.083 20.0254 217.709 20.6653C217.338 21.3012 216.809 21.7942 216.121 22.1444C215.433 22.4945 214.616 22.6696 213.67 22.6696H210.519V20.3152H213.115C213.565 20.3152 213.942 20.2367 214.243 20.0797C214.549 19.9228 214.781 19.7034 214.938 19.4217C215.095 19.136 215.173 18.8039 215.173 18.4256C215.173 18.0433 215.095 17.7133 214.938 17.4356C214.781 17.1538 214.549 16.9365 214.243 16.7836C213.938 16.6306 213.561 16.5542 213.115 16.5542H211.642V26.5091H208.653ZM222.695 14.1454V26.5091H219.743V14.1454H222.695ZM227.188 26.666C226.596 26.666 226.071 26.5674 225.612 26.3702C225.158 26.169 224.797 25.8671 224.532 25.4647C224.27 25.0582 224.139 24.5491 224.139 23.9373C224.139 23.4222 224.23 22.9875 224.411 22.6333C224.592 22.2792 224.842 21.9914 225.16 21.7701C225.478 21.5487 225.844 21.3817 226.258 21.269C226.673 21.1523 227.116 21.0738 227.587 21.0336C228.114 20.9853 228.538 20.935 228.86 20.8826C229.182 20.8263 229.416 20.7478 229.561 20.6472C229.71 20.5426 229.784 20.3957 229.784 20.2065V20.1763C229.784 19.8664 229.677 19.627 229.464 19.4579C229.251 19.2889 228.963 19.2044 228.601 19.2044C228.21 19.2044 227.896 19.2889 227.659 19.4579C227.422 19.627 227.271 19.8604 227.206 20.1582L224.484 20.0616C224.564 19.4982 224.771 18.9951 225.105 18.5524C225.443 18.1057 225.906 17.7555 226.494 17.502C227.085 17.2444 227.796 17.1156 228.625 17.1156C229.217 17.1156 229.762 17.186 230.261 17.3269C230.76 17.4637 231.195 17.665 231.565 17.9306C231.935 18.1922 232.221 18.5142 232.422 18.8965C232.627 19.2788 232.73 19.7155 232.73 20.2065V26.5091H229.953V25.2172H229.881C229.716 25.5311 229.504 25.7967 229.247 26.014C228.993 26.2314 228.693 26.3944 228.347 26.503C228.005 26.6117 227.619 26.666 227.188 26.666ZM228.1 24.7342C228.418 24.7342 228.703 24.6698 228.957 24.541C229.215 24.4122 229.42 24.2351 229.573 24.0098C229.726 23.7804 229.802 23.5147 229.802 23.2129V22.3315C229.718 22.3758 229.615 22.416 229.494 22.4522C229.378 22.4885 229.249 22.5227 229.108 22.5549C228.967 22.5871 228.822 22.6152 228.673 22.6394C228.524 22.6635 228.381 22.6857 228.245 22.7058C227.967 22.7501 227.729 22.8185 227.532 22.911C227.339 23.0036 227.19 23.1244 227.085 23.2733C226.985 23.4182 226.935 23.5912 226.935 23.7924C226.935 24.0983 227.043 24.3317 227.261 24.4927C227.482 24.6537 227.762 24.7342 228.1 24.7342ZM236.008 29.9863C235.654 29.9863 235.32 29.9582 235.006 29.9018C234.692 29.8495 234.422 29.7791 234.197 29.6905L234.849 27.5474C235.139 27.644 235.4 27.7003 235.634 27.7164C235.871 27.7325 236.074 27.6943 236.244 27.6017C236.417 27.5132 236.549 27.3542 236.642 27.1248L236.757 26.8471L233.46 17.2363H236.551L238.26 23.8528H238.356L240.089 17.2363H243.198L239.703 27.3965C239.534 27.9036 239.294 28.3503 238.984 28.7367C238.678 29.1271 238.282 29.4329 237.795 29.6543C237.312 29.8757 236.716 29.9863 236.008 29.9863Z" fill="url(#paint1_linear_1_142)"/>
</g>
</g>
<rect x="1.0707" y="1.07979" width="249.858" height="37.8585" rx="6.92857" stroke="white" stroke-opacity="0.15" stroke-width="2.14286"/>
<defs>
<filter id="filter0_d_1_142" x="2.39899" y="0.408082" width="39.202" height="39.202" filterUnits="userSpaceOnUse" color-interpolation-filters="sRGB">
<feFlood flood-opacity="0" result="BackgroundImageFix"/>
<feColorMatrix in="SourceAlpha" type="matrix" values="0 0 0 0 0 0 0 0 0 0 0 0 0 0 0 0 0 0 127 0" result="hardAlpha"/>
<feOffset/>
<feGaussianBlur stdDeviation="2.80014"/>
<feComposite in2="hardAlpha" operator="out"/>
<feColorMatrix type="matrix" values="0 0 0 0 0 0 0 0 0 0 0 0 0 0 0 0 0 0 0.25 0"/>
<feBlend mode="normal" in2="BackgroundImageFix" result="effect1_dropShadow_1_142"/>
<feBlend mode="normal" in="SourceGraphic" in2="effect1_dropShadow_1_142" result="shape"/>
</filter>
<filter id="filter1_d_1_142" x="36.2864" y="3.79478" width="213.429" height="32.4286" filterUnits="userSpaceOnUse" color-interpolation-filters="sRGB">
<feFlood flood-opacity="0" result="BackgroundImageFix"/>
<feColorMatrix in="SourceAlpha" type="matrix" values="0 0 0 0 0 0 0 0 0 0 0 0 0 0 0 0 0 0 127 0" result="hardAlpha"/>
<feOffset/>
<feGaussianBlur stdDeviation="2.85714"/>
<feComposite in2="hardAlpha" operator="out"/>
<feColorMatrix type="matrix" values="0 0 0 0 0 0 0 0 0 0 0 0 0 0 0 0 0 0 0.25 0"/>
<feBlend mode="normal" in2="BackgroundImageFix" result="effect1_dropShadow_1_142"/>
<feBlend mode="normal" in="SourceGraphic" in2="effect1_dropShadow_1_142" result="shape"/>
</filter>
<linearGradient id="paint0_linear_1_142" x1="126" y1="0.00836181" x2="126" y2="40.0098" gradientUnits="userSpaceOnUse">
<stop stop-color="#00171C"/>
<stop offset="0.333333" stop-color="#0A1209"/>
<stop offset="0.666667" stop-color="#100F06"/>
<stop offset="1" stop-color="#1A0000"/>
</linearGradient>
<linearGradient id="paint1_linear_1_142" x1="144.001" y1="9.50906" x2="244.001" y2="9.50906" gradientUnits="userSpaceOnUse">
<stop stop-color="#5991EE"/>
<stop offset="0.333333" stop-color="#56AB6C"/>
<stop offset="0.666667" stop-color="#F5D26A"/>
<stop offset="1" stop-color="#EB786F"/>
</linearGradient>
<clipPath id="clip0_1_142">
<rect x="-0.000732422" y="0.00836182" width="252.001" height="40.0014" rx="8" fill="white"/>
</clipPath>
</defs>
</svg>
