<svg width="321" height="41" viewBox="0 0 321 41" fill="none" xmlns="http://www.w3.org/2000/svg">
<rect x="-0.000732422" y="0.0153809" width="321.001" height="40.0014" rx="8" fill="url(#paint0_linear_28_2640)"/>
<g filter="url(#filter0_d_28_2640)">
<path d="M34.4716 10.8704C32.7208 9.08433 30.0361 9.08433 28.2852 10.7513C28.1684 10.8704 28.1684 10.9894 28.1684 11.1085C28.1684 11.2276 28.1684 11.3466 28.2852 11.4657L28.8688 12.061C28.9855 12.1801 29.219 12.1801 29.4524 12.061C29.9193 11.7038 30.3862 11.5848 30.9699 11.5848C32.3706 11.5848 33.5378 12.7754 33.5378 14.2043C33.5378 14.9187 33.3044 15.514 32.8375 15.9903C29.3357 19.5623 24.5499 9.5606 13.9279 14.6805C13.2275 15.0377 12.8774 15.8712 13.2275 16.5856V16.7047L14.9784 19.9195C15.3286 20.6339 16.2624 20.8721 16.9628 20.5149L17.7798 20.0386C18.7137 19.4433 19.5307 18.8479 20.3478 18.1335C20.4645 18.0144 20.8147 18.0144 20.9314 18.1335C21.1649 18.2526 21.1649 18.4907 21.0482 18.7289L20.9314 18.8479C20.1144 19.5623 19.1806 20.2767 18.2468 20.8721L17.4297 21.2293C17.0795 21.4674 16.7293 21.5865 16.2624 21.5865C15.4453 21.5865 14.6283 21.1102 14.2781 20.3958L12.5272 17.3C9.25886 19.6814 7.1578 24.3251 8.32506 30.1594C8.32506 30.3975 8.55851 30.5166 8.79196 30.5166H10.7763C11.0098 30.5166 11.1265 30.3975 11.2432 30.1594C11.4767 28.4925 12.8774 27.4208 14.5115 27.659C15.7955 27.778 16.846 28.8497 16.9628 30.1594C16.9628 30.3975 17.1962 30.5166 17.4297 30.5166H19.2973C19.5307 30.5166 19.6475 30.3975 19.7642 30.1594C19.9976 28.4925 21.3983 27.4208 23.0325 27.659C24.3165 27.778 25.367 28.8497 25.4838 30.1594C25.4838 30.3975 25.7172 30.5166 25.9507 30.5166H27.8183C28.0517 30.5166 28.2852 30.2785 28.2852 30.0403C28.2852 27.3018 29.1022 24.206 31.0866 22.6581C37.9734 17.181 36.1058 12.5373 34.4716 10.8704V10.8704ZM27.2346 19.0861L25.8339 18.3717C25.8339 17.8954 26.1841 17.5382 26.651 17.5382C27.1179 17.5382 27.4681 17.8954 27.4681 18.3717C27.5848 18.7289 27.4681 18.967 27.2346 19.0861Z" fill="#7DC1D1"/>
</g>
<g filter="url(#filter1_d_28_2640)">
<path d="M46.4034 26.516H44.4233L48.8725 14.1524H51.0277L55.4769 26.516H53.4968L50.0014 16.3982H49.9049L46.4034 26.516ZM46.7355 21.6744H53.1588V23.244H46.7355V21.6744ZM63.8879 17.2433L60.5253 26.516H58.5935L55.2249 17.2433H57.1627L59.5111 24.379H59.6077L61.95 17.2433H63.8879ZM68.0171 26.7213C67.4296 26.7213 66.8983 26.6126 66.4234 26.3953C65.9485 26.174 65.5722 25.854 65.2945 25.4354C65.0208 25.0169 64.884 24.5037 64.884 23.896C64.884 23.3728 64.9846 22.9422 65.1858 22.6041C65.3871 22.266 65.6587 21.9984 66.0008 21.8012C66.3429 21.604 66.7252 21.4551 67.1478 21.3545C67.5704 21.2539 68.0011 21.1774 68.4397 21.1251C68.9951 21.0607 69.4459 21.0084 69.792 20.9681C70.1381 20.9238 70.3897 20.8534 70.5466 20.7568C70.7036 20.6602 70.7821 20.5033 70.7821 20.2859V20.2437C70.7821 19.7165 70.6332 19.308 70.3353 19.0182C70.0415 18.7284 69.6028 18.5835 69.0193 18.5835C68.4116 18.5835 67.9326 18.7183 67.5825 18.988C67.2364 19.2536 66.9969 19.5494 66.8641 19.8754L65.1677 19.4891C65.3689 18.9256 65.6627 18.4708 66.0491 18.1247C66.4395 17.7746 66.8882 17.521 67.3953 17.3641C67.9024 17.2031 68.4357 17.1226 68.9951 17.1226C69.3654 17.1226 69.7578 17.1669 70.1723 17.2554C70.5909 17.3399 70.9813 17.4969 71.3435 17.7263C71.7097 17.9557 72.0096 18.2837 72.243 18.7103C72.4764 19.1329 72.5931 19.6822 72.5931 20.3584V26.516H70.8304V25.2483H70.7579C70.6412 25.4817 70.4661 25.7111 70.2327 25.9365C69.9993 26.1619 69.6994 26.349 69.3332 26.4979C68.967 26.6468 68.5283 26.7213 68.0171 26.7213ZM68.4095 25.2724C68.9086 25.2724 69.3352 25.1738 69.6894 24.9766C70.0476 24.7794 70.3192 24.5218 70.5044 24.2039C70.6935 23.8819 70.7881 23.5378 70.7881 23.1716V21.9763C70.7237 22.0407 70.5989 22.101 70.4138 22.1574C70.2327 22.2097 70.0254 22.256 69.792 22.2962C69.5586 22.3325 69.3312 22.3667 69.1098 22.3989C68.8885 22.427 68.7033 22.4512 68.5544 22.4713C68.2043 22.5156 67.8843 22.59 67.5946 22.6947C67.3088 22.7993 67.0794 22.9502 66.9064 23.1474C66.7373 23.3406 66.6528 23.5982 66.6528 23.9202C66.6528 24.3669 66.8178 24.705 67.1478 24.9344C67.4779 25.1598 67.8984 25.2724 68.4095 25.2724ZM74.9973 26.516V17.2433H76.8024V26.516H74.9973ZM75.9089 15.8126C75.595 15.8126 75.3254 15.7079 75.1 15.4986C74.8786 15.2853 74.7679 15.0318 74.7679 14.738C74.7679 14.4402 74.8786 14.1866 75.1 13.9773C75.3254 13.764 75.595 13.6574 75.9089 13.6574C76.2228 13.6574 76.4905 13.764 76.7118 13.9773C76.9372 14.1866 77.0499 14.4402 77.0499 14.738C77.0499 15.0318 76.9372 15.2853 76.7118 15.4986C76.4905 15.7079 76.2228 15.8126 75.9089 15.8126ZM81.0358 14.1524V26.516H79.2307V14.1524H81.0358ZM86.1627 26.7213C85.5751 26.7213 85.0438 26.6126 84.5689 26.3953C84.094 26.174 83.7177 25.854 83.44 25.4354C83.1663 25.0169 83.0295 24.5037 83.0295 23.896C83.0295 23.3728 83.1301 22.9422 83.3313 22.6041C83.5326 22.266 83.8042 21.9984 84.1463 21.8012C84.4884 21.604 84.8707 21.4551 85.2933 21.3545C85.7159 21.2539 86.1466 21.1774 86.5852 21.1251C87.1406 21.0607 87.5914 21.0084 87.9375 20.9681C88.2836 20.9238 88.5352 20.8534 88.6921 20.7568C88.8491 20.6602 88.9276 20.5033 88.9276 20.2859V20.2437C88.9276 19.7165 88.7787 19.308 88.4808 19.0182C88.187 18.7284 87.7484 18.5835 87.1648 18.5835C86.5571 18.5835 86.0781 18.7183 85.728 18.988C85.3819 19.2536 85.1424 19.5494 85.0096 19.8754L83.3132 19.4891C83.5145 18.9256 83.8082 18.4708 84.1946 18.1247C84.585 17.7746 85.0337 17.521 85.5408 17.3641C86.048 17.2031 86.5812 17.1226 87.1406 17.1226C87.5109 17.1226 87.9033 17.1669 88.3178 17.2554C88.7364 17.3399 89.1268 17.4969 89.489 17.7263C89.8552 17.9557 90.1551 18.2837 90.3885 18.7103C90.6219 19.1329 90.7386 19.6822 90.7386 20.3584V26.516H88.9759V25.2483H88.9034C88.7867 25.4817 88.6116 25.7111 88.3782 25.9365C88.1448 26.1619 87.8449 26.349 87.4787 26.4979C87.1125 26.6468 86.6738 26.7213 86.1627 26.7213ZM86.5551 25.2724C87.0541 25.2724 87.4807 25.1738 87.8349 24.9766C88.1931 24.7794 88.4647 24.5218 88.6499 24.2039C88.839 23.8819 88.9336 23.5378 88.9336 23.1716V21.9763C88.8692 22.0407 88.7444 22.101 88.5593 22.1574C88.3782 22.2097 88.1709 22.256 87.9375 22.2962C87.7041 22.3325 87.4767 22.3667 87.2553 22.3989C87.034 22.427 86.8488 22.4512 86.6999 22.4713C86.3498 22.5156 86.0298 22.59 85.7401 22.6947C85.4543 22.7993 85.2249 22.9502 85.0519 23.1474C84.8828 23.3406 84.7983 23.5982 84.7983 23.9202C84.7983 24.3669 84.9633 24.705 85.2933 24.9344C85.6234 25.1598 86.0439 25.2724 86.5551 25.2724ZM93.2877 26.516V14.1524H95.0928V18.7465H95.2014C95.3061 18.5533 95.457 18.33 95.6542 18.0764C95.8514 17.8229 96.1251 17.6015 96.4752 17.4124C96.8254 17.2192 97.2882 17.1226 97.8637 17.1226C98.6123 17.1226 99.2804 17.3117 99.868 17.6901C100.456 18.0684 100.916 18.6137 101.25 19.3261C101.589 20.0384 101.758 20.8957 101.758 21.8978C101.758 22.8999 101.591 23.7592 101.256 24.4756C100.922 25.1879 100.464 25.7373 99.8801 26.1236C99.2965 26.506 98.6304 26.6972 97.8818 26.6972C97.3184 26.6972 96.8576 26.6026 96.4994 26.4134C96.1452 26.2243 95.8675 26.0029 95.6663 25.7494C95.4651 25.4958 95.3101 25.2704 95.2014 25.0732H95.0505V26.516H93.2877ZM95.0566 21.8797C95.0566 22.5317 95.1511 23.1032 95.3403 23.5942C95.5295 24.0852 95.8031 24.4695 96.1613 24.7472C96.5195 25.0209 96.9582 25.1577 97.4774 25.1577C98.0167 25.1577 98.4674 25.0149 98.8296 24.7291C99.1919 24.4393 99.4655 24.0469 99.6507 23.5519C99.8398 23.0569 99.9344 22.4995 99.9344 21.8797C99.9344 21.2679 99.8418 20.7186 99.6567 20.2316C99.4756 19.7446 99.2019 19.3603 98.8357 19.0785C98.4735 18.7968 98.0207 18.656 97.4774 18.656C96.9542 18.656 96.5115 18.7908 96.1492 19.0604C95.7911 19.3301 95.5194 19.7064 95.3343 20.1893C95.1491 20.6723 95.0566 21.2357 95.0566 21.8797ZM105.589 14.1524V26.516H103.784V14.1524H105.589ZM112.014 26.7032C111.101 26.7032 110.314 26.508 109.654 26.1176C108.998 25.7232 108.491 25.1698 108.133 24.4575C107.778 23.7411 107.601 22.9019 107.601 21.9401C107.601 20.9902 107.778 20.1531 108.133 19.4287C108.491 18.7043 108.99 18.1388 109.63 17.7323C110.274 17.3258 111.026 17.1226 111.888 17.1226C112.411 17.1226 112.918 17.2091 113.409 17.3822C113.9 17.5552 114.341 17.8269 114.731 18.1972C115.121 18.5674 115.429 19.0484 115.655 19.64C115.88 20.2276 115.993 20.9419 115.993 21.7831V22.423H108.622V21.0707H114.224C114.224 20.5958 114.127 20.1753 113.934 19.809C113.741 19.4388 113.469 19.147 113.119 18.9337C112.773 18.7204 112.366 18.6137 111.9 18.6137C111.392 18.6137 110.95 18.7385 110.571 18.988C110.197 19.2335 109.907 19.5555 109.702 19.9539C109.501 20.3483 109.4 20.7769 109.4 21.2398V22.2962C109.4 22.916 109.509 23.4432 109.726 23.8779C109.948 24.3126 110.256 24.6446 110.65 24.874C111.044 25.0994 111.505 25.2121 112.032 25.2121C112.374 25.2121 112.686 25.1638 112.968 25.0672C113.25 24.9666 113.493 24.8177 113.699 24.6205C113.904 24.4232 114.061 24.1798 114.169 23.89L115.878 24.1979C115.741 24.7009 115.496 25.1416 115.141 25.52C114.791 25.8942 114.351 26.186 113.819 26.3953C113.292 26.6006 112.69 26.7032 112.014 26.7032ZM126.4 26.7032C125.531 26.7032 124.772 26.504 124.124 26.1055C123.476 25.7071 122.973 25.1497 122.615 24.4333C122.257 23.7169 122.078 22.8798 122.078 21.9219C122.078 20.9601 122.257 20.1189 122.615 19.3985C122.973 18.6781 123.476 18.1187 124.124 17.7202C124.772 17.3218 125.531 17.1226 126.4 17.1226C127.27 17.1226 128.028 17.3218 128.676 17.7202C129.324 18.1187 129.827 18.6781 130.185 19.3985C130.544 20.1189 130.723 20.9601 130.723 21.9219C130.723 22.8798 130.544 23.7169 130.185 24.4333C129.827 25.1497 129.324 25.7071 128.676 26.1055C128.028 26.504 127.27 26.7032 126.4 26.7032ZM126.406 25.1879C126.97 25.1879 127.437 25.039 127.807 24.7412C128.177 24.4434 128.451 24.0469 128.628 23.5519C128.809 23.0569 128.9 22.5116 128.9 21.9159C128.9 21.3243 128.809 20.781 128.628 20.2859C128.451 19.7869 128.177 19.3864 127.807 19.0846C127.437 18.7827 126.97 18.6318 126.406 18.6318C125.839 18.6318 125.368 18.7827 124.994 19.0846C124.623 19.3864 124.348 19.7869 124.167 20.2859C123.99 20.781 123.901 21.3243 123.901 21.9159C123.901 22.5116 123.99 23.0569 124.167 23.5519C124.348 24.0469 124.623 24.4434 124.994 24.7412C125.368 25.039 125.839 25.1879 126.406 25.1879ZM134.543 21.0104V26.516H132.738V17.2433H134.47V18.7526H134.585C134.798 18.2616 135.132 17.8671 135.587 17.5693C136.046 17.2715 136.623 17.1226 137.32 17.1226C137.951 17.1226 138.505 17.2554 138.98 17.521C139.455 17.7826 139.823 18.173 140.085 18.6922C140.346 19.2114 140.477 19.8533 140.477 20.618V26.516H138.672V20.8353C138.672 20.1632 138.497 19.638 138.147 19.2597C137.797 18.8773 137.316 18.6861 136.704 18.6861C136.285 18.6861 135.913 18.7767 135.587 18.9578C135.265 19.1389 135.009 19.4045 134.82 19.7547C134.635 20.1008 134.543 20.5194 134.543 21.0104Z" fill="#E8E8E8"/>
<path d="M155.05 18.1911C154.982 17.9376 154.881 17.7142 154.748 17.521C154.615 17.3238 154.452 17.1568 154.259 17.02C154.066 16.8831 153.845 16.7805 153.595 16.7121C153.346 16.6396 153.072 16.6034 152.774 16.6034C152.174 16.6034 151.655 16.7483 151.217 17.0381C150.782 17.3278 150.446 17.7504 150.208 18.3058C149.971 18.8572 149.852 19.5273 149.852 20.3161C149.852 21.109 149.967 21.7851 150.196 22.3445C150.426 22.904 150.758 23.3306 151.192 23.6244C151.627 23.9182 152.154 24.0651 152.774 24.0651C153.322 24.0651 153.784 23.9765 154.163 23.7994C154.545 23.6183 154.835 23.3628 155.032 23.0327C155.229 22.7027 155.328 22.3143 155.328 21.8676L155.883 21.934H152.877V19.7547H158.207V21.3907C158.207 22.4975 157.972 23.4453 157.501 24.2341C157.034 25.0229 156.39 25.6286 155.569 26.0512C154.752 26.4738 153.813 26.6851 152.75 26.6851C151.571 26.6851 150.534 26.4295 149.641 25.9184C148.748 25.4073 148.051 24.6788 147.552 23.733C147.053 22.7832 146.804 21.6563 146.804 20.3523C146.804 19.3381 146.955 18.4386 147.256 17.6538C147.558 16.865 147.979 16.1969 148.518 15.6496C149.061 15.1022 149.689 14.6877 150.402 14.406C151.118 14.1242 151.889 13.9834 152.714 13.9834C153.43 13.9834 154.096 14.086 154.712 14.2913C155.332 14.4965 155.879 14.7863 156.354 15.1606C156.833 15.5349 157.221 15.9796 157.519 16.4947C157.817 17.0099 158.002 17.5754 158.075 18.1911H155.05ZM159.969 26.516V17.2433H162.836V18.9337H162.933C163.102 18.3219 163.378 17.8671 163.76 17.5693C164.142 17.2675 164.587 17.1165 165.094 17.1165C165.231 17.1165 165.372 17.1266 165.517 17.1467C165.662 17.1628 165.796 17.189 165.921 17.2252V19.7909C165.78 19.7426 165.595 19.7044 165.366 19.6762C165.14 19.648 164.939 19.6339 164.762 19.6339C164.412 19.6339 164.096 19.7124 163.814 19.8694C163.537 20.0223 163.317 20.2376 163.156 20.5153C162.999 20.789 162.921 21.111 162.921 21.4812V26.516H159.969ZM169.389 26.673C168.798 26.673 168.272 26.5744 167.814 26.3772C167.359 26.176 166.999 25.8741 166.733 25.4717C166.471 25.0652 166.341 24.5561 166.341 23.9443C166.341 23.4292 166.431 22.9945 166.612 22.6403C166.793 22.2862 167.043 21.9984 167.361 21.7771C167.679 21.5557 168.045 21.3887 168.46 21.276C168.874 21.1593 169.317 21.0808 169.788 21.0406C170.315 20.9923 170.74 20.9419 171.062 20.8896C171.384 20.8333 171.617 20.7548 171.762 20.6542C171.911 20.5495 171.985 20.4026 171.985 20.2135V20.1833C171.985 19.8734 171.879 19.6339 171.665 19.4649C171.452 19.2959 171.164 19.2114 170.802 19.2114C170.412 19.2114 170.098 19.2959 169.86 19.4649C169.623 19.6339 169.472 19.8674 169.407 20.1652L166.685 20.0686C166.765 19.5052 166.973 19.0021 167.307 18.5594C167.645 18.1126 168.107 17.7625 168.695 17.5089C169.287 17.2514 169.997 17.1226 170.826 17.1226C171.418 17.1226 171.963 17.193 172.462 17.3339C172.961 17.4707 173.396 17.6719 173.766 17.9376C174.136 18.1992 174.422 18.5211 174.623 18.9035C174.829 19.2858 174.931 19.7225 174.931 20.2135V26.516H172.154V25.2241H172.082C171.917 25.5381 171.705 25.8037 171.448 26.021C171.194 26.2383 170.895 26.4013 170.548 26.51C170.206 26.6187 169.82 26.673 169.389 26.673ZM170.301 24.7412C170.619 24.7412 170.905 24.6768 171.158 24.548C171.416 24.4192 171.621 24.2421 171.774 24.0168C171.927 23.7874 172.003 23.5217 172.003 23.2199V22.3385C171.919 22.3828 171.816 22.423 171.695 22.4592C171.579 22.4955 171.45 22.5297 171.309 22.5619C171.168 22.5941 171.023 22.6222 170.874 22.6464C170.725 22.6705 170.583 22.6927 170.446 22.7128C170.168 22.7571 169.931 22.8255 169.733 22.918C169.54 23.0106 169.391 23.1313 169.287 23.2803C169.186 23.4251 169.136 23.5982 169.136 23.7994C169.136 24.1053 169.244 24.3387 169.462 24.4997C169.683 24.6607 169.963 24.7412 170.301 24.7412ZM180.123 26.6489C179.439 26.6489 178.817 26.4718 178.258 26.1176C177.698 25.7634 177.251 25.2322 176.917 24.5239C176.583 23.8155 176.416 22.9361 176.416 21.8857C176.416 20.795 176.589 19.8976 176.935 19.1933C177.282 18.4889 177.734 17.9678 178.294 17.6297C178.857 17.2916 179.463 17.1226 180.111 17.1226C180.598 17.1226 181.014 17.2071 181.361 17.3761C181.707 17.5411 181.992 17.7544 182.218 18.016C182.443 18.2776 182.614 18.5493 182.731 18.831H182.791V14.1524H185.743V26.516H182.821V25.0129H182.731C182.606 25.2986 182.429 25.5662 182.2 25.8158C181.97 26.0653 181.683 26.2665 181.336 26.4195C180.994 26.5724 180.59 26.6489 180.123 26.6489ZM181.149 24.3488C181.507 24.3488 181.813 24.2482 182.067 24.0469C182.32 23.8417 182.516 23.5539 182.652 23.1837C182.789 22.8134 182.858 22.3787 182.858 21.8797C182.858 21.3726 182.789 20.9359 182.652 20.5697C182.52 20.2034 182.324 19.9217 182.067 19.7245C181.813 19.5273 181.507 19.4287 181.149 19.4287C180.783 19.4287 180.473 19.5293 180.22 19.7305C179.966 19.9318 179.773 20.2155 179.64 20.5817C179.511 20.948 179.447 21.3806 179.447 21.8797C179.447 22.3787 179.513 22.8134 179.646 23.1837C179.779 23.5539 179.97 23.8417 180.22 24.0469C180.473 24.2482 180.783 24.3488 181.149 24.3488ZM190.562 14.1524V26.516H187.61V14.1524H190.562ZM196.776 26.6911C195.806 26.6911 194.969 26.4999 194.264 26.1176C193.564 25.7312 193.025 25.1819 192.647 24.4695C192.272 23.7531 192.085 22.9019 192.085 21.9159C192.085 20.958 192.274 20.1209 192.653 19.4045C193.031 18.6841 193.564 18.1247 194.252 17.7263C194.941 17.3238 195.752 17.1226 196.685 17.1226C197.345 17.1226 197.949 17.2252 198.496 17.4305C199.044 17.6357 199.517 17.9396 199.915 18.342C200.313 18.7445 200.623 19.2415 200.845 19.8332C201.066 20.4208 201.177 21.0949 201.177 21.8555V22.592H193.117V20.8776H198.43C198.426 20.5636 198.351 20.2839 198.207 20.0384C198.062 19.7929 197.862 19.6017 197.609 19.4649C197.359 19.3241 197.072 19.2536 196.746 19.2536C196.416 19.2536 196.12 19.3281 195.858 19.477C195.597 19.6219 195.389 19.8211 195.236 20.0746C195.083 20.3242 195.003 20.6079 194.995 20.9258V22.6705C194.995 23.0488 195.069 23.3809 195.218 23.6666C195.367 23.9483 195.579 24.1677 195.852 24.3246C196.126 24.4816 196.452 24.5601 196.83 24.5601C197.092 24.5601 197.329 24.5239 197.543 24.4514C197.756 24.379 197.939 24.2723 198.092 24.1315C198.245 23.9906 198.36 23.8175 198.436 23.6123L201.147 23.6908C201.034 24.2985 200.786 24.8277 200.404 25.2785C200.026 25.7252 199.529 26.0733 198.913 26.3229C198.297 26.5684 197.585 26.6911 196.776 26.6911ZM206.337 26.516V14.1524H211.444C212.37 14.1524 213.169 14.3335 213.841 14.6957C214.517 15.0539 215.038 15.555 215.404 16.1989C215.771 16.8388 215.954 17.5834 215.954 18.4326C215.954 19.2858 215.767 20.0324 215.392 20.6723C215.022 21.3082 214.493 21.8012 213.805 22.1513C213.116 22.5015 212.299 22.6766 211.354 22.6766H208.202V20.3222H210.798C211.249 20.3222 211.625 20.2437 211.927 20.0867C212.233 19.9298 212.464 19.7104 212.621 19.4287C212.778 19.1429 212.857 18.8109 212.857 18.4326C212.857 18.0503 212.778 17.7202 212.621 17.4425C212.464 17.1608 212.233 16.9435 211.927 16.7906C211.621 16.6376 211.245 16.5611 210.798 16.5611H209.325V26.516H206.337ZM220.379 14.1524V26.516H217.427V14.1524H220.379ZM228.24 22.5136V17.2433H231.186V26.516H228.373V24.7895H228.277C228.071 25.357 227.721 25.8077 227.226 26.1418C226.735 26.4718 226.141 26.6368 225.445 26.6368C224.813 26.6368 224.258 26.4919 223.779 26.2021C223.3 25.9124 222.928 25.5079 222.662 24.9887C222.397 24.4655 222.262 23.8538 222.258 23.1535V17.2433H225.21V22.5739C225.214 23.077 225.347 23.4734 225.608 23.7632C225.87 24.053 226.226 24.1979 226.677 24.1979C226.971 24.1979 227.234 24.1335 227.468 24.0047C227.705 23.8719 227.892 23.6807 228.029 23.4312C228.17 23.1776 228.24 22.8718 228.24 22.5136ZM237.388 30.1865C236.506 30.1865 235.752 30.0637 235.124 29.8182C234.496 29.5727 234.003 29.2367 233.645 28.8101C233.287 28.3835 233.071 27.9005 232.999 27.3612L235.794 27.2043C235.846 27.3934 235.943 27.5584 236.084 27.6993C236.229 27.8401 236.416 27.9488 236.645 28.0253C236.879 28.1017 237.152 28.14 237.466 28.14C237.961 28.14 238.37 28.0192 238.692 27.7778C239.018 27.5403 239.181 27.1238 239.181 26.5281V24.8981H239.078C238.961 25.1839 238.784 25.4395 238.547 25.6648C238.309 25.8902 238.014 26.0673 237.659 26.1961C237.309 26.3249 236.907 26.3893 236.452 26.3893C235.776 26.3893 235.156 26.2323 234.593 25.9184C234.033 25.6004 233.585 25.1094 233.246 24.4454C232.912 23.7773 232.745 22.918 232.745 21.8676C232.745 20.785 232.918 19.8935 233.265 19.1933C233.611 18.4889 234.063 17.9678 234.623 17.6297C235.186 17.2916 235.792 17.1226 236.44 17.1226C236.927 17.1226 237.344 17.2071 237.69 17.3761C238.04 17.5411 238.328 17.7544 238.553 18.016C238.778 18.2776 238.949 18.5493 239.066 18.831H239.151V17.2433H242.091V26.5523C242.091 27.3371 241.893 27.9991 241.499 28.5384C241.105 29.0777 240.553 29.4862 239.845 29.7639C239.136 30.0456 238.317 30.1865 237.388 30.1865ZM237.478 24.2401C237.837 24.2401 238.142 24.1455 238.396 23.9564C238.649 23.7672 238.845 23.4956 238.982 23.1414C239.118 22.7872 239.187 22.3626 239.187 21.8676C239.187 21.3645 239.118 20.9319 238.982 20.5697C238.849 20.2034 238.654 19.9217 238.396 19.7245C238.142 19.5273 237.837 19.4287 237.478 19.4287C237.112 19.4287 236.802 19.5293 236.549 19.7305C236.295 19.9318 236.102 20.2155 235.969 20.5817C235.84 20.944 235.776 21.3726 235.776 21.8676C235.776 22.3626 235.842 22.7872 235.975 23.1414C236.108 23.4956 236.299 23.7672 236.549 23.9564C236.802 24.1455 237.112 24.2401 237.478 24.2401ZM243.973 26.516V17.2433H246.925V26.516H243.973ZM245.452 16.1627C245.037 16.1627 244.681 16.0259 244.383 15.7522C244.085 15.4745 243.936 15.1405 243.936 14.7501C243.936 14.3637 244.085 14.0337 244.383 13.76C244.681 13.4823 245.037 13.3435 245.452 13.3435C245.87 13.3435 246.226 13.4823 246.52 13.76C246.818 14.0337 246.967 14.3637 246.967 14.7501C246.967 15.1405 246.818 15.4745 246.52 15.7522C246.226 16.0259 245.87 16.1627 245.452 16.1627ZM251.756 21.2277V26.516H248.804V17.2433H251.611V18.9457H251.713C251.919 18.3783 252.269 17.9335 252.764 17.6116C253.259 17.2856 253.848 17.1226 254.533 17.1226C255.185 17.1226 255.75 17.2695 256.229 17.5633C256.712 17.8531 257.086 18.2595 257.352 18.7827C257.622 19.3019 257.754 19.9096 257.75 20.6059V26.516H254.798V21.1854C254.802 20.6703 254.672 20.2678 254.406 19.9781C254.144 19.6883 253.78 19.5434 253.313 19.5434C253.003 19.5434 252.73 19.6118 252.492 19.7486C252.259 19.8815 252.078 20.0726 251.949 20.3222C251.824 20.5717 251.76 20.8735 251.756 21.2277ZM263.23 26.516V14.1524H268.338C269.263 14.1524 270.062 14.3335 270.734 14.6957C271.41 15.0539 271.932 15.555 272.298 16.1989C272.664 16.8388 272.847 17.5834 272.847 18.4326C272.847 19.2858 272.66 20.0324 272.286 20.6723C271.915 21.3082 271.386 21.8012 270.698 22.1513C270.01 22.5015 269.193 22.6766 268.247 22.6766H265.096V20.3222H267.692C268.142 20.3222 268.519 20.2437 268.821 20.0867C269.126 19.9298 269.358 19.7104 269.515 19.4287C269.672 19.1429 269.75 18.8109 269.75 18.4326C269.75 18.0503 269.672 17.7202 269.515 17.4425C269.358 17.1608 269.126 16.9435 268.821 16.7906C268.515 16.6376 268.138 16.5611 267.692 16.5611H266.219V26.516H263.23ZM278.466 26.6911C277.492 26.6911 276.655 26.4919 275.955 26.0935C275.258 25.691 274.721 25.1316 274.343 24.4152C273.969 23.6948 273.781 22.8597 273.781 21.9099C273.781 20.956 273.969 20.1209 274.343 19.4045C274.721 18.6841 275.258 18.1247 275.955 17.7263C276.655 17.3238 277.492 17.1226 278.466 17.1226C279.44 17.1226 280.275 17.3238 280.971 17.7263C281.672 18.1247 282.209 18.6841 282.583 19.4045C282.962 20.1209 283.151 20.956 283.151 21.9099C283.151 22.8597 282.962 23.6948 282.583 24.4152C282.209 25.1316 281.672 25.691 280.971 26.0935C280.275 26.4919 279.44 26.6911 278.466 26.6911ZM278.484 24.4635C278.838 24.4635 279.138 24.3548 279.384 24.1375C279.629 23.9202 279.816 23.6183 279.945 23.232C280.078 22.8456 280.144 22.3989 280.144 21.8918C280.144 21.3766 280.078 20.9258 279.945 20.5395C279.816 20.1531 279.629 19.8513 279.384 19.6339C279.138 19.4166 278.838 19.308 278.484 19.308C278.118 19.308 277.808 19.4166 277.554 19.6339C277.305 19.8513 277.114 20.1531 276.981 20.5395C276.852 20.9258 276.788 21.3766 276.788 21.8918C276.788 22.3989 276.852 22.8456 276.981 23.232C277.114 23.6183 277.305 23.9202 277.554 24.1375C277.808 24.3548 278.118 24.4635 278.484 24.4635ZM284.663 26.516V17.2433H287.531V18.9337H287.627C287.796 18.3219 288.072 17.8671 288.454 17.5693C288.837 17.2675 289.281 17.1165 289.788 17.1165C289.925 17.1165 290.066 17.1266 290.211 17.1467C290.356 17.1628 290.491 17.189 290.615 17.2252V19.7909C290.475 19.7426 290.289 19.7044 290.06 19.6762C289.835 19.648 289.633 19.6339 289.456 19.6339C289.106 19.6339 288.79 19.7124 288.509 19.8694C288.231 20.0223 288.011 20.2376 287.85 20.5153C287.694 20.789 287.615 21.111 287.615 21.4812V26.516H284.663ZM297.484 17.2433V19.4166H291.634V17.2433H297.484ZM292.86 15.0217H295.812V23.6002C295.812 23.7813 295.84 23.9282 295.896 24.0409C295.957 24.1496 296.043 24.2281 296.156 24.2763C296.268 24.3206 296.403 24.3428 296.56 24.3428C296.673 24.3428 296.792 24.3327 296.916 24.3126C297.045 24.2884 297.142 24.2683 297.206 24.2522L297.653 26.3832C297.512 26.4235 297.313 26.4738 297.055 26.5342C296.802 26.5945 296.498 26.6328 296.144 26.6489C295.451 26.6811 294.858 26.6006 294.363 26.4074C293.872 26.2102 293.496 25.9043 293.234 25.4898C292.976 25.0752 292.852 24.554 292.86 23.9262V15.0217ZM301.604 26.673C301.012 26.673 300.487 26.5744 300.028 26.3772C299.574 26.176 299.213 25.8741 298.948 25.4717C298.686 25.0652 298.555 24.5561 298.555 23.9443C298.555 23.4292 298.646 22.9945 298.827 22.6403C299.008 22.2862 299.258 21.9984 299.576 21.7771C299.894 21.5557 300.26 21.3887 300.674 21.276C301.089 21.1593 301.532 21.0808 302.003 21.0406C302.53 20.9923 302.954 20.9419 303.276 20.8896C303.598 20.8333 303.832 20.7548 303.977 20.6542C304.126 20.5495 304.2 20.4026 304.2 20.2135V20.1833C304.2 19.8734 304.093 19.6339 303.88 19.4649C303.667 19.2959 303.379 19.2114 303.017 19.2114C302.626 19.2114 302.312 19.2959 302.075 19.4649C301.838 19.6339 301.687 19.8674 301.622 20.1652L298.9 20.0686C298.98 19.5052 299.187 19.0021 299.521 18.5594C299.859 18.1126 300.322 17.7625 300.91 17.5089C301.501 17.2514 302.212 17.1226 303.041 17.1226C303.633 17.1226 304.178 17.193 304.677 17.3339C305.176 17.4707 305.611 17.6719 305.981 17.9376C306.351 18.1992 306.637 18.5211 306.838 18.9035C307.043 19.2858 307.146 19.7225 307.146 20.2135V26.516H304.369V25.2241H304.297C304.132 25.5381 303.92 25.8037 303.663 26.021C303.409 26.2383 303.109 26.4013 302.763 26.51C302.421 26.6187 302.035 26.673 301.604 26.673ZM302.516 24.7412C302.834 24.7412 303.119 24.6768 303.373 24.548C303.631 24.4192 303.836 24.2421 303.989 24.0168C304.142 23.7874 304.218 23.5217 304.218 23.2199V22.3385C304.134 22.3828 304.031 22.423 303.91 22.4592C303.794 22.4955 303.665 22.5297 303.524 22.5619C303.383 22.5941 303.238 22.6222 303.089 22.6464C302.94 22.6705 302.797 22.6927 302.661 22.7128C302.383 22.7571 302.145 22.8255 301.948 22.918C301.755 23.0106 301.606 23.1313 301.501 23.2803C301.401 23.4251 301.351 23.5982 301.351 23.7994C301.351 24.1053 301.459 24.3387 301.677 24.4997C301.898 24.6607 302.178 24.7412 302.516 24.7412ZM311.903 14.1524V26.516H308.951V14.1524H311.903Z" fill="#7DC1D1"/>
</g>
<rect x="1.0707" y="1.08681" width="318.858" height="37.8585" rx="6.92857" stroke="white" stroke-opacity="0.15" stroke-width="2.14286"/>
<defs>
<filter id="filter0_d_28_2640" x="2.39899" y="0.415101" width="39.202" height="39.202" filterUnits="userSpaceOnUse" color-interpolation-filters="sRGB">
<feFlood flood-opacity="0" result="BackgroundImageFix"/>
<feColorMatrix in="SourceAlpha" type="matrix" values="0 0 0 0 0 0 0 0 0 0 0 0 0 0 0 0 0 0 127 0" result="hardAlpha"/>
<feOffset/>
<feGaussianBlur stdDeviation="2.80014"/>
<feComposite in2="hardAlpha" operator="out"/>
<feColorMatrix type="matrix" values="0 0 0 0 0 0 0 0 0 0 0 0 0 0 0 0 0 0 0.25 0"/>
<feBlend mode="normal" in2="BackgroundImageFix" result="effect1_dropShadow_28_2640"/>
<feBlend mode="normal" in="SourceGraphic" in2="effect1_dropShadow_28_2640" result="shape"/>
</filter>
<filter id="filter1_d_28_2640" x="38.2864" y="3.80177" width="280.429" height="32.4286" filterUnits="userSpaceOnUse" color-interpolation-filters="sRGB">
<feFlood flood-opacity="0" result="BackgroundImageFix"/>
<feColorMatrix in="SourceAlpha" type="matrix" values="0 0 0 0 0 0 0 0 0 0 0 0 0 0 0 0 0 0 127 0" result="hardAlpha"/>
<feOffset/>
<feGaussianBlur stdDeviation="2.85714"/>
<feComposite in2="hardAlpha" operator="out"/>
<feColorMatrix type="matrix" values="0 0 0 0 0 0 0 0 0 0 0 0 0 0 0 0 0 0 0.25 0"/>
<feBlend mode="normal" in2="BackgroundImageFix" result="effect1_dropShadow_28_2640"/>
<feBlend mode="normal" in="SourceGraphic" in2="effect1_dropShadow_28_2640" result="shape"/>
</filter>
<linearGradient id="paint0_linear_28_2640" x1="160.5" y1="0.0153809" x2="160.5" y2="40.0168" gradientUnits="userSpaceOnUse">
<stop stop-color="#19282C"/>
<stop offset="1" stop-color="#121C1F"/>
</linearGradient>
</defs>
</svg>
