<svg width="217" height="41" viewBox="0 0 217 41" fill="none" xmlns="http://www.w3.org/2000/svg">
<g clip-path="url(#clip0_28_2654)">
<rect x="-0.000732422" y="0.0181885" width="217.001" height="40.0014" rx="8" fill="url(#paint0_linear_28_2654)"/>
<g filter="url(#filter0_d_28_2654)">
<path d="M25.7267 6.01825C23.3556 6.4768 21.6793 7.41745 20.6762 8.72293L24.042 10.6638C24.4625 10.4641 24.9239 10.3501 25.4059 10.343C25.679 10.3391 25.9588 10.3696 26.2408 10.4377C26.4516 9.16511 26.296 7.68624 25.7268 6.01825H25.7267ZM19.958 9.58866L14.794 18.5201L20.3235 21.7124L21.6225 19.4656C21.0328 18.8846 20.7864 18.0007 20.7559 17.0797C20.7185 15.9534 20.9922 14.7011 21.5019 13.5687C21.8801 12.7283 22.3872 11.9496 23.029 11.3608L19.9581 9.5886L19.958 9.58866ZM32.2175 9.76289C30.4722 10.1004 29.1048 10.6999 28.1037 11.5129C28.6577 12.0942 28.9529 12.8036 29.0111 13.5315L32.3677 15.467C33.0024 13.9437 32.9901 12.0269 32.2174 9.76289H32.2175ZM10.775 10.2412L8.52238 14.1396L14.5788 16.6756L18.1897 10.4285L10.7751 10.2411L10.775 10.2412ZM25.4187 11.4257C25.0307 11.4319 24.6711 11.5598 24.3165 11.7724C23.6074 12.1978 22.9582 13.0379 22.5149 14.023C22.0715 15.008 21.8332 16.1296 21.8635 17.0428C21.8938 17.9549 22.1796 18.5889 22.6243 18.8464C22.6248 18.8466 22.6259 18.8462 22.6263 18.8464C23.0718 19.1024 23.7633 19.0334 24.569 18.6036C25.3755 18.1733 26.2285 17.4072 26.8606 16.5311C27.4927 15.6549 27.8967 14.6714 27.9108 13.8451C27.9249 13.0185 27.6328 12.3477 26.6936 11.8058C26.224 11.5349 25.8068 11.4197 25.4188 11.4258L25.4187 11.4257ZM28.9107 14.7552C28.7209 15.6043 28.2993 16.4328 27.7603 17.1799C27.0338 18.1872 26.0871 19.0498 25.0922 19.5806C24.2763 20.0159 23.3824 20.245 22.5817 20.0219L21.2847 22.2649L26.814 25.4552L31.9743 16.5219L28.9109 14.7552L28.9107 14.7552ZM32.1301 18.4701L28.5211 24.7193L33.748 28.6938L36.0007 24.7935L32.1301 18.4702L32.1301 18.4701ZM15.7032 20.3258C14.3686 20.9095 13.3442 21.699 12.6267 22.6597L17.8221 25.6572C18.2995 24.555 18.4783 23.2786 18.3268 21.8404L15.7031 20.3259L15.7032 20.3258ZM12.1351 23.657L7.99927 30.8088V33.0241L13.0963 24.2112L12.1351 23.657L12.1351 23.657ZM22.1938 24.0703C20.859 24.6541 19.8351 25.4432 19.1175 26.4043L24.313 29.4019C24.7905 28.2991 24.9695 27.022 24.8177 25.5831L22.1938 24.0705V24.0703ZM14.1727 24.8323L8.82876 34.0197H10.1125L15.1354 25.3884L14.1723 24.8323L14.1727 24.8323ZM16.2174 26.0113L11.5991 34.0197H12.8793L17.1767 26.5656L16.2175 26.0113H16.2174ZM18.6425 27.4109L14.8887 34.0196H16.1653L19.6036 27.9652L18.6425 27.4109H18.6425ZM20.6872 28.5917L17.6553 34.0196H18.9245L21.6483 29.1442L20.6872 28.5917L20.6872 28.5917ZM22.732 29.7707L20.42 34.0197H21.6855L23.695 30.3251L22.7319 29.7708L22.732 29.7707Z" fill="#6E93B7"/>
</g>
<g filter="url(#filter1_d_28_2654)">
<path d="M46.4034 26.5189H44.4233L48.8725 14.1552H51.0277L55.4769 26.5189H53.4968L50.0014 16.401H49.9049L46.4034 26.5189ZM46.7355 21.6772H53.1588V23.2468H46.7355V21.6772ZM63.8879 17.2461L60.5253 26.5189H58.5935L55.2249 17.2461H57.1627L59.5111 24.3818H59.6077L61.95 17.2461H63.8879ZM68.0171 26.7241C67.4296 26.7241 66.8983 26.6154 66.4234 26.3981C65.9485 26.1768 65.5722 25.8568 65.2945 25.4382C65.0208 25.0197 64.884 24.5065 64.884 23.8988C64.884 23.3756 64.9846 22.945 65.1858 22.6069C65.3871 22.2689 65.6587 22.0012 66.0008 21.804C66.3429 21.6068 66.7252 21.4579 67.1478 21.3573C67.5704 21.2567 68.0011 21.1802 68.4397 21.1279C68.9951 21.0635 69.4459 21.0112 69.792 20.9709C70.1381 20.9266 70.3897 20.8562 70.5466 20.7596C70.7036 20.663 70.7821 20.5061 70.7821 20.2887V20.2465C70.7821 19.7193 70.6332 19.3108 70.3353 19.021C70.0415 18.7312 69.6028 18.5863 69.0193 18.5863C68.4116 18.5863 67.9326 18.7212 67.5825 18.9908C67.2364 19.2564 66.9969 19.5522 66.8641 19.8782L65.1677 19.4919C65.3689 18.9284 65.6627 18.4736 66.0491 18.1275C66.4395 17.7774 66.8882 17.5238 67.3953 17.3669C67.9024 17.2059 68.4357 17.1254 68.9951 17.1254C69.3654 17.1254 69.7578 17.1697 70.1723 17.2582C70.5909 17.3427 70.9813 17.4997 71.3435 17.7291C71.7097 17.9585 72.0096 18.2865 72.243 18.7131C72.4764 19.1357 72.5931 19.6851 72.5931 20.3612V26.5189H70.8304V25.2511H70.7579C70.6412 25.4845 70.4661 25.7139 70.2327 25.9393C69.9993 26.1647 69.6994 26.3518 69.3332 26.5007C68.967 26.6497 68.5283 26.7241 68.0171 26.7241ZM68.4095 25.2752C68.9086 25.2752 69.3352 25.1766 69.6894 24.9794C70.0476 24.7822 70.3192 24.5247 70.5044 24.2067C70.6935 23.8847 70.7881 23.5406 70.7881 23.1744V21.9791C70.7237 22.0435 70.5989 22.1038 70.4138 22.1602C70.2327 22.2125 70.0254 22.2588 69.792 22.299C69.5586 22.3353 69.3312 22.3695 69.1098 22.4017C68.8885 22.4298 68.7033 22.454 68.5544 22.4741C68.2043 22.5184 67.8843 22.5928 67.5946 22.6975C67.3088 22.8021 67.0794 22.953 66.9064 23.1502C66.7373 23.3434 66.6528 23.601 66.6528 23.923C66.6528 24.3697 66.8178 24.7078 67.1478 24.9372C67.4779 25.1626 67.8984 25.2752 68.4095 25.2752ZM74.9973 26.5189V17.2461H76.8024V26.5189H74.9973ZM75.9089 15.8154C75.595 15.8154 75.3254 15.7107 75.1 15.5015C74.8786 15.2882 74.7679 15.0346 74.7679 14.7408C74.7679 14.443 74.8786 14.1894 75.1 13.9802C75.3254 13.7668 75.595 13.6602 75.9089 13.6602C76.2228 13.6602 76.4905 13.7668 76.7118 13.9802C76.9372 14.1894 77.0499 14.443 77.0499 14.7408C77.0499 15.0346 76.9372 15.2882 76.7118 15.5015C76.4905 15.7107 76.2228 15.8154 75.9089 15.8154ZM81.0358 14.1552V26.5189H79.2307V14.1552H81.0358ZM86.1627 26.7241C85.5751 26.7241 85.0438 26.6154 84.5689 26.3981C84.094 26.1768 83.7177 25.8568 83.44 25.4382C83.1663 25.0197 83.0295 24.5065 83.0295 23.8988C83.0295 23.3756 83.1301 22.945 83.3313 22.6069C83.5326 22.2689 83.8042 22.0012 84.1463 21.804C84.4884 21.6068 84.8707 21.4579 85.2933 21.3573C85.7159 21.2567 86.1466 21.1802 86.5852 21.1279C87.1406 21.0635 87.5914 21.0112 87.9375 20.9709C88.2836 20.9266 88.5352 20.8562 88.6921 20.7596C88.8491 20.663 88.9276 20.5061 88.9276 20.2887V20.2465C88.9276 19.7193 88.7787 19.3108 88.4808 19.021C88.187 18.7312 87.7484 18.5863 87.1648 18.5863C86.5571 18.5863 86.0781 18.7212 85.728 18.9908C85.3819 19.2564 85.1424 19.5522 85.0096 19.8782L83.3132 19.4919C83.5145 18.9284 83.8082 18.4736 84.1946 18.1275C84.585 17.7774 85.0337 17.5238 85.5408 17.3669C86.048 17.2059 86.5812 17.1254 87.1406 17.1254C87.5109 17.1254 87.9033 17.1697 88.3178 17.2582C88.7364 17.3427 89.1268 17.4997 89.489 17.7291C89.8552 17.9585 90.1551 18.2865 90.3885 18.7131C90.6219 19.1357 90.7386 19.6851 90.7386 20.3612V26.5189H88.9759V25.2511H88.9034C88.7867 25.4845 88.6116 25.7139 88.3782 25.9393C88.1448 26.1647 87.8449 26.3518 87.4787 26.5007C87.1125 26.6497 86.6738 26.7241 86.1627 26.7241ZM86.5551 25.2752C87.0541 25.2752 87.4807 25.1766 87.8349 24.9794C88.1931 24.7822 88.4647 24.5247 88.6499 24.2067C88.839 23.8847 88.9336 23.5406 88.9336 23.1744V21.9791C88.8692 22.0435 88.7444 22.1038 88.5593 22.1602C88.3782 22.2125 88.1709 22.2588 87.9375 22.299C87.7041 22.3353 87.4767 22.3695 87.2553 22.4017C87.034 22.4298 86.8488 22.454 86.6999 22.4741C86.3498 22.5184 86.0298 22.5928 85.7401 22.6975C85.4543 22.8021 85.2249 22.953 85.0519 23.1502C84.8828 23.3434 84.7983 23.601 84.7983 23.923C84.7983 24.3697 84.9633 24.7078 85.2933 24.9372C85.6234 25.1626 86.0439 25.2752 86.5551 25.2752ZM93.2877 26.5189V14.1552H95.0928V18.7493H95.2014C95.3061 18.5561 95.457 18.3328 95.6542 18.0792C95.8514 17.8257 96.1251 17.6043 96.4752 17.4152C96.8254 17.222 97.2882 17.1254 97.8637 17.1254C98.6123 17.1254 99.2804 17.3145 99.868 17.6929C100.456 18.0712 100.916 18.6165 101.25 19.3289C101.589 20.0412 101.758 20.8985 101.758 21.9006C101.758 22.9027 101.591 23.762 101.256 24.4784C100.922 25.1907 100.464 25.7401 99.8801 26.1265C99.2965 26.5088 98.6304 26.7 97.8818 26.7C97.3184 26.7 96.8576 26.6054 96.4994 26.4162C96.1452 26.2271 95.8675 26.0057 95.6663 25.7522C95.4651 25.4986 95.3101 25.2732 95.2014 25.076H95.0505V26.5189H93.2877ZM95.0566 21.8825C95.0566 22.5345 95.1511 23.106 95.3403 23.597C95.5295 24.088 95.8031 24.4723 96.1613 24.75C96.5195 25.0237 96.9582 25.1605 97.4774 25.1605C98.0167 25.1605 98.4674 25.0177 98.8296 24.7319C99.1919 24.4422 99.4655 24.0498 99.6507 23.5547C99.8398 23.0597 99.9344 22.5023 99.9344 21.8825C99.9344 21.2708 99.8418 20.7214 99.6567 20.2344C99.4756 19.7474 99.2019 19.3631 98.8357 19.0814C98.4735 18.7996 98.0207 18.6588 97.4774 18.6588C96.9542 18.6588 96.5115 18.7936 96.1492 19.0632C95.7911 19.3329 95.5194 19.7092 95.3343 20.1922C95.1491 20.6751 95.0566 21.2386 95.0566 21.8825ZM105.589 14.1552V26.5189H103.784V14.1552H105.589ZM112.014 26.706C111.101 26.706 110.314 26.5108 109.654 26.1204C108.998 25.726 108.491 25.1726 108.133 24.4603C107.778 23.7439 107.601 22.9047 107.601 21.9429C107.601 20.9931 107.778 20.1559 108.133 19.4315C108.491 18.7071 108.99 18.1416 109.63 17.7351C110.274 17.3286 111.026 17.1254 111.888 17.1254C112.411 17.1254 112.918 17.2119 113.409 17.385C113.9 17.558 114.341 17.8297 114.731 18.2C115.121 18.5702 115.429 19.0512 115.655 19.6428C115.88 20.2304 115.993 20.9448 115.993 21.7859V22.4258H108.622V21.0735H114.224C114.224 20.5986 114.127 20.1781 113.934 19.8118C113.741 19.4416 113.469 19.1498 113.119 18.9365C112.773 18.7232 112.366 18.6165 111.9 18.6165C111.392 18.6165 110.95 18.7413 110.571 18.9908C110.197 19.2363 109.907 19.5583 109.702 19.9567C109.501 20.3511 109.4 20.7797 109.4 21.2426V22.299C109.4 22.9188 109.509 23.4461 109.726 23.8807C109.948 24.3154 110.256 24.6474 110.65 24.8768C111.044 25.1022 111.505 25.2149 112.032 25.2149C112.374 25.2149 112.686 25.1666 112.968 25.07C113.25 24.9694 113.493 24.8205 113.699 24.6233C113.904 24.4261 114.061 24.1826 114.169 23.8928L115.878 24.2007C115.741 24.7038 115.496 25.1444 115.141 25.5228C114.791 25.8971 114.351 26.1888 113.819 26.3981C113.292 26.6034 112.69 26.706 112.014 26.706ZM126.4 26.706C125.531 26.706 124.772 26.5068 124.124 26.1083C123.476 25.7099 122.973 25.1525 122.615 24.4361C122.257 23.7197 122.078 22.8826 122.078 21.9248C122.078 20.9629 122.257 20.1217 122.615 19.4013C122.973 18.6809 123.476 18.1215 124.124 17.723C124.772 17.3246 125.531 17.1254 126.4 17.1254C127.27 17.1254 128.028 17.3246 128.676 17.723C129.324 18.1215 129.827 18.6809 130.185 19.4013C130.544 20.1217 130.723 20.9629 130.723 21.9248C130.723 22.8826 130.544 23.7197 130.185 24.4361C129.827 25.1525 129.324 25.7099 128.676 26.1083C128.028 26.5068 127.27 26.706 126.4 26.706ZM126.406 25.1907C126.97 25.1907 127.437 25.0418 127.807 24.744C128.177 24.4462 128.451 24.0498 128.628 23.5547C128.809 23.0597 128.9 22.5144 128.9 21.9187C128.9 21.3271 128.809 20.7838 128.628 20.2887C128.451 19.7897 128.177 19.3892 127.807 19.0874C127.437 18.7855 126.97 18.6346 126.406 18.6346C125.839 18.6346 125.368 18.7855 124.994 19.0874C124.623 19.3892 124.348 19.7897 124.167 20.2887C123.99 20.7838 123.901 21.3271 123.901 21.9187C123.901 22.5144 123.99 23.0597 124.167 23.5547C124.348 24.0498 124.623 24.4462 124.994 24.744C125.368 25.0418 125.839 25.1907 126.406 25.1907ZM134.543 21.0132V26.5189H132.738V17.2461H134.47V18.7554H134.585C134.798 18.2644 135.132 17.8699 135.587 17.5721C136.046 17.2743 136.623 17.1254 137.32 17.1254C137.951 17.1254 138.505 17.2582 138.98 17.5238C139.455 17.7854 139.823 18.1758 140.085 18.695C140.346 19.2142 140.477 19.8561 140.477 20.6208V26.5189H138.672V20.8381C138.672 20.166 138.497 19.6408 138.147 19.2625C137.797 18.8801 137.316 18.689 136.704 18.689C136.285 18.689 135.913 18.7795 135.587 18.9606C135.265 19.1417 135.009 19.4074 134.82 19.7575C134.635 20.1036 134.543 20.5222 134.543 21.0132Z" fill="#E8E8E8"/>
<path d="M151.959 14.1552H154.905V22.7035C154.901 23.5044 154.71 24.2047 154.332 24.8044C153.953 25.4 153.43 25.8628 152.762 26.1929C152.098 26.5229 151.329 26.6879 150.456 26.6879C149.683 26.6879 148.981 26.5531 148.349 26.2834C147.721 26.0138 147.22 25.5952 146.846 25.0277C146.476 24.4603 146.293 23.7338 146.297 22.8484H149.273C149.285 23.1663 149.345 23.438 149.454 23.6634C149.567 23.8847 149.721 24.0518 149.919 24.1645C150.116 24.2771 150.351 24.3335 150.625 24.3335C150.911 24.3335 151.152 24.2731 151.349 24.1524C151.547 24.0276 151.696 23.8445 151.796 23.603C151.901 23.3615 151.955 23.0617 151.959 22.7035V14.1552ZM156.781 26.5189V17.2461H159.733V26.5189H156.781ZM158.26 16.1655C157.846 16.1655 157.49 16.0287 157.192 15.755C156.894 15.4773 156.745 15.1433 156.745 14.7529C156.745 14.3665 156.894 14.0365 157.192 13.7628C157.49 13.4851 157.846 13.3463 158.26 13.3463C158.679 13.3463 159.035 13.4851 159.329 13.7628C159.627 14.0365 159.775 14.3665 159.775 14.7529C159.775 15.1433 159.627 15.4773 159.329 15.755C159.035 16.0287 158.679 16.1655 158.26 16.1655ZM166.846 17.2461V19.4194H160.996V17.2461H166.846ZM162.222 15.0245H165.174V23.603C165.174 23.7841 165.202 23.931 165.259 24.0437C165.319 24.1524 165.405 24.2309 165.518 24.2792C165.631 24.3234 165.766 24.3456 165.923 24.3456C166.035 24.3456 166.154 24.3355 166.279 24.3154C166.408 24.2912 166.504 24.2711 166.569 24.255L167.015 26.386C166.874 26.4263 166.675 26.4766 166.418 26.537C166.164 26.5973 165.86 26.6356 165.506 26.6517C164.814 26.6839 164.22 26.6034 163.725 26.4102C163.234 26.213 162.858 25.9071 162.596 25.4926C162.339 25.078 162.214 24.5569 162.222 23.929V15.0245ZM168.552 26.5189V14.1552H173.659C174.585 14.1552 175.383 14.3363 176.056 14.6985C176.732 15.0567 177.253 15.5578 177.619 16.2017C177.985 16.8417 178.169 17.5862 178.169 18.4354C178.169 19.2886 177.981 20.0352 177.607 20.6751C177.237 21.311 176.708 21.804 176.019 22.1542C175.331 22.5043 174.514 22.6794 173.568 22.6794H170.417V20.325H173.013C173.464 20.325 173.84 20.2465 174.142 20.0895C174.448 19.9326 174.679 19.7132 174.836 19.4315C174.993 19.1458 175.072 18.8137 175.072 18.4354C175.072 18.0531 174.993 17.723 174.836 17.4453C174.679 17.1636 174.448 16.9463 174.142 16.7934C173.836 16.6404 173.46 16.564 173.013 16.564H171.54V26.5189H168.552ZM181.923 26.6758C181.332 26.6758 180.807 26.5772 180.348 26.38C179.893 26.1788 179.533 25.8769 179.267 25.4745C179.006 25.068 178.875 24.5589 178.875 23.9471C178.875 23.432 178.965 22.9973 179.146 22.6431C179.328 22.289 179.577 22.0012 179.895 21.7799C180.213 21.5585 180.579 21.3915 180.994 21.2788C181.408 21.1621 181.851 21.0836 182.322 21.0434C182.849 20.9951 183.274 20.9448 183.596 20.8924C183.918 20.8361 184.151 20.7576 184.296 20.657C184.445 20.5524 184.519 20.4055 184.519 20.2163V20.1861C184.519 19.8762 184.413 19.6368 184.199 19.4677C183.986 19.2987 183.698 19.2142 183.336 19.2142C182.946 19.2142 182.632 19.2987 182.394 19.4677C182.157 19.6368 182.006 19.8702 181.942 20.168L179.219 20.0714C179.299 19.508 179.507 19.0049 179.841 18.5622C180.179 18.1154 180.642 17.7653 181.229 17.5118C181.821 17.2542 182.531 17.1254 183.36 17.1254C183.952 17.1254 184.497 17.1958 184.996 17.3367C185.495 17.4735 185.93 17.6748 186.3 17.9404C186.671 18.202 186.956 18.5239 187.158 18.9063C187.363 19.2886 187.465 19.7253 187.465 20.2163V26.5189H184.688V25.227H184.616C184.451 25.5409 184.24 25.8065 183.982 26.0238C183.729 26.2412 183.429 26.4042 183.083 26.5128C182.74 26.6215 182.354 26.6758 181.923 26.6758ZM182.835 24.744C183.153 24.744 183.439 24.6796 183.692 24.5508C183.95 24.422 184.155 24.2449 184.308 24.0196C184.461 23.7902 184.537 23.5245 184.537 23.2227V22.3413C184.453 22.3856 184.35 22.4258 184.23 22.462C184.113 22.4983 183.984 22.5325 183.843 22.5647C183.702 22.5969 183.557 22.625 183.409 22.6492C183.26 22.6733 183.117 22.6955 182.98 22.7156C182.702 22.7599 182.465 22.8283 182.268 22.9208C182.074 23.0134 181.925 23.1341 181.821 23.2831C181.72 23.4279 181.67 23.601 181.67 23.8022C181.67 24.1081 181.779 24.3415 181.996 24.5025C182.217 24.6635 182.497 24.744 182.835 24.744ZM193.599 26.6939C192.621 26.6939 191.782 26.4927 191.082 26.0902C190.385 25.6878 189.85 25.1283 189.476 24.412C189.101 23.6916 188.914 22.8585 188.914 21.9127C188.914 20.9629 189.101 20.1298 189.476 19.4134C189.854 18.693 190.391 18.1315 191.088 17.7291C191.788 17.3266 192.623 17.1254 193.593 17.1254C194.45 17.1254 195.197 17.2803 195.833 17.5902C196.472 17.9001 196.972 18.3388 197.33 18.9063C197.692 19.4697 197.883 20.1318 197.903 20.8924H195.144C195.088 20.4175 194.927 20.0453 194.661 19.7756C194.4 19.506 194.058 19.3711 193.635 19.3711C193.293 19.3711 192.993 19.4677 192.736 19.6609C192.478 19.8501 192.277 20.1318 192.132 20.5061C191.991 20.8763 191.921 21.3351 191.921 21.8825C191.921 22.4298 191.991 22.8927 192.132 23.271C192.277 23.6453 192.478 23.929 192.736 24.1222C192.993 24.3114 193.293 24.4059 193.635 24.4059C193.909 24.4059 194.15 24.3476 194.36 24.2309C194.573 24.1141 194.748 23.9431 194.885 23.7177C195.022 23.4883 195.108 23.2106 195.144 22.8846H197.903C197.875 23.6493 197.684 24.3174 197.33 24.8889C196.98 25.4604 196.487 25.9051 195.851 26.223C195.219 26.537 194.468 26.6939 193.599 26.6939ZM202.076 24.086L202.088 20.5664H202.499L205.107 17.2461H208.451L204.576 22.0032H203.797L202.076 24.086ZM199.414 26.5189V14.1552H202.366V26.5189H199.414ZM205.173 26.5189L202.746 22.6673L204.69 20.5725L208.584 26.5189H205.173Z" fill="#6E93B7"/>
</g>
</g>
<rect x="1.0707" y="1.08962" width="214.858" height="37.8585" rx="6.92857" stroke="white" stroke-opacity="0.15" stroke-width="2.14286"/>
<defs>
<filter id="filter0_d_28_2654" x="2.39899" y="0.417908" width="39.202" height="39.202" filterUnits="userSpaceOnUse" color-interpolation-filters="sRGB">
<feFlood flood-opacity="0" result="BackgroundImageFix"/>
<feColorMatrix in="SourceAlpha" type="matrix" values="0 0 0 0 0 0 0 0 0 0 0 0 0 0 0 0 0 0 127 0" result="hardAlpha"/>
<feOffset/>
<feGaussianBlur stdDeviation="2.80014"/>
<feComposite in2="hardAlpha" operator="out"/>
<feColorMatrix type="matrix" values="0 0 0 0 0 0 0 0 0 0 0 0 0 0 0 0 0 0 0.25 0"/>
<feBlend mode="normal" in2="BackgroundImageFix" result="effect1_dropShadow_28_2654"/>
<feBlend mode="normal" in="SourceGraphic" in2="effect1_dropShadow_28_2654" result="shape"/>
</filter>
<filter id="filter1_d_28_2654" x="38.2864" y="3.80457" width="176.429" height="32.4286" filterUnits="userSpaceOnUse" color-interpolation-filters="sRGB">
<feFlood flood-opacity="0" result="BackgroundImageFix"/>
<feColorMatrix in="SourceAlpha" type="matrix" values="0 0 0 0 0 0 0 0 0 0 0 0 0 0 0 0 0 0 127 0" result="hardAlpha"/>
<feOffset/>
<feGaussianBlur stdDeviation="2.85714"/>
<feComposite in2="hardAlpha" operator="out"/>
<feColorMatrix type="matrix" values="0 0 0 0 0 0 0 0 0 0 0 0 0 0 0 0 0 0 0.25 0"/>
<feBlend mode="normal" in2="BackgroundImageFix" result="effect1_dropShadow_28_2654"/>
<feBlend mode="normal" in="SourceGraphic" in2="effect1_dropShadow_28_2654" result="shape"/>
</filter>
<linearGradient id="paint0_linear_28_2654" x1="108.5" y1="0.0181885" x2="108.5" y2="40.0196" gradientUnits="userSpaceOnUse">
<stop stop-color="#1E2833"/>
<stop offset="1" stop-color="#141B22"/>
</linearGradient>
<clipPath id="clip0_28_2654">
<rect x="-0.000732422" y="0.0181885" width="217.001" height="40.0014" rx="8" fill="white"/>
</clipPath>
</defs>
</svg>
