<svg width="168" height="28" viewBox="0 0 168 28" fill="none" xmlns="http://www.w3.org/2000/svg">
<rect x="-0.000488281" y="-6.10352e-05" width="167.5" height="28" rx="6" fill="url(#paint0_linear_1_92)"/>
<g filter="url(#filter0_d_1_92)">
<path d="M6.69043 7.57147V7.93195C9.20882 9.81773 8.66045 18.1635 7.39301 20.9093H7.04172L5.63657 20.1883L5.28528 21.6302C7.15835 22.4395 8.66327 20.9644 9.26643 19.1069C10.4489 15.4667 9.41643 11.1921 10.5546 7.57147H6.69043ZM11.6085 7.57147V7.93195C13.8585 9.61677 14.4469 12.8438 15.2383 15.502C15.6096 16.7482 15.5949 18.2637 16.8778 18.7464L18.9855 12.2577H19.3368L21.4445 18.7464H21.7958C23.2828 15.3351 23.6011 10.2629 26.7139 7.93195V7.57147H22.8497L23.9035 8.29243L22.1471 15.1416C20.8252 12.4283 20.1848 10.1983 21.0932 7.57147H17.2291L18.7512 10.6956L17.2291 15.502H16.8778L15.8239 7.57147H11.6085Z" fill="white"/>
</g>
<g filter="url(#filter1_d_1_92)">
<path d="M33.5542 18.4999H32.2729L35.1519 10.4999H36.5464L39.4253 18.4999H38.144L35.8823 11.9531H35.8198L33.5542 18.4999ZM33.769 15.3671H37.9253V16.3827H33.769V15.3671ZM44.8677 12.4999L42.6919 18.4999H41.4419L39.2622 12.4999H40.5161L42.0356 17.1171H42.0981L43.6138 12.4999H44.8677ZM47.5395 18.6327C47.1593 18.6327 46.8156 18.5624 46.5083 18.4218C46.201 18.2786 45.9575 18.0716 45.7778 17.8007C45.6007 17.5299 45.5122 17.1979 45.5122 16.8046C45.5122 16.4661 45.5773 16.1874 45.7075 15.9687C45.8377 15.7499 46.0135 15.5768 46.2349 15.4492C46.4562 15.3216 46.7036 15.2252 46.977 15.1601C47.2505 15.095 47.5291 15.0455 47.813 15.0117C48.1724 14.97 48.464 14.9361 48.688 14.9101C48.9119 14.8814 49.0747 14.8359 49.1763 14.7734C49.2778 14.7109 49.3286 14.6093 49.3286 14.4687V14.4413C49.3286 14.1002 49.2323 13.8359 49.0395 13.6484C48.8494 13.4609 48.5656 13.3671 48.188 13.3671C47.7948 13.3671 47.4849 13.4544 47.2583 13.6288C47.0343 13.8007 46.8794 13.9921 46.7935 14.2031L45.6958 13.9531C45.826 13.5885 46.0161 13.2942 46.2661 13.0702C46.5187 12.8437 46.8091 12.6796 47.1372 12.5781C47.4653 12.4739 47.8104 12.4218 48.1724 12.4218C48.4119 12.4218 48.6658 12.4505 48.9341 12.5078C49.2049 12.5624 49.4575 12.664 49.6919 12.8124C49.9289 12.9609 50.1229 13.1731 50.2739 13.4492C50.425 13.7226 50.5005 14.0781 50.5005 14.5156V18.4999H49.3599V17.6796H49.313C49.2375 17.8307 49.1242 17.9791 48.9731 18.1249C48.8221 18.2708 48.6281 18.3919 48.3911 18.4882C48.1541 18.5846 47.8703 18.6327 47.5395 18.6327ZM47.7935 17.6952C48.1164 17.6952 48.3924 17.6314 48.6216 17.5038C48.8533 17.3762 49.0291 17.2096 49.1489 17.0038C49.2713 16.7955 49.3325 16.5729 49.3325 16.3359V15.5624C49.2908 15.6041 49.2101 15.6432 49.0903 15.6796C48.9731 15.7135 48.839 15.7434 48.688 15.7695C48.5369 15.7929 48.3898 15.815 48.2466 15.8359C48.1033 15.8541 47.9836 15.8697 47.8872 15.8827C47.6606 15.9114 47.4536 15.9596 47.2661 16.0273C47.0812 16.095 46.9328 16.1926 46.8208 16.3202C46.7114 16.4452 46.6567 16.6119 46.6567 16.8202C46.6567 17.1093 46.7635 17.3281 46.977 17.4765C47.1906 17.6223 47.4627 17.6952 47.7935 17.6952ZM52.0561 18.4999V12.4999H53.2241V18.4999H52.0561ZM52.646 11.5742C52.4429 11.5742 52.2684 11.5064 52.1226 11.371C51.9793 11.233 51.9077 11.0689 51.9077 10.8788C51.9077 10.6861 51.9793 10.5221 52.1226 10.3867C52.2684 10.2486 52.4429 10.1796 52.646 10.1796C52.8491 10.1796 53.0223 10.2486 53.1655 10.3867C53.3114 10.5221 53.3843 10.6861 53.3843 10.8788C53.3843 11.0689 53.3114 11.233 53.1655 11.371C53.0223 11.5064 52.8491 11.5742 52.646 11.5742ZM55.9634 10.4999V18.4999H54.7954V10.4999H55.9634ZM59.2808 18.6327C58.9005 18.6327 58.5568 18.5624 58.2495 18.4218C57.9422 18.2786 57.6987 18.0716 57.519 17.8007C57.342 17.5299 57.2534 17.1979 57.2534 16.8046C57.2534 16.4661 57.3185 16.1874 57.4487 15.9687C57.5789 15.7499 57.7547 15.5768 57.9761 15.4492C58.1974 15.3216 58.4448 15.2252 58.7183 15.1601C58.9917 15.095 59.2703 15.0455 59.5542 15.0117C59.9136 14.97 60.2052 14.9361 60.4292 14.9101C60.6531 14.8814 60.8159 14.8359 60.9175 14.7734C61.019 14.7109 61.0698 14.6093 61.0698 14.4687V14.4413C61.0698 14.1002 60.9735 13.8359 60.7808 13.6484C60.5906 13.4609 60.3068 13.3671 59.9292 13.3671C59.536 13.3671 59.2261 13.4544 58.9995 13.6288C58.7755 13.8007 58.6206 13.9921 58.5347 14.2031L57.437 13.9531C57.5672 13.5885 57.7573 13.2942 58.0073 13.0702C58.2599 12.8437 58.5503 12.6796 58.8784 12.5781C59.2065 12.4739 59.5516 12.4218 59.9136 12.4218C60.1531 12.4218 60.4071 12.4505 60.6753 12.5078C60.9461 12.5624 61.1987 12.664 61.4331 12.8124C61.6701 12.9609 61.8641 13.1731 62.0151 13.4492C62.1662 13.7226 62.2417 14.0781 62.2417 14.5156V18.4999H61.1011V17.6796H61.0542C60.9787 17.8307 60.8654 17.9791 60.7143 18.1249C60.5633 18.2708 60.3693 18.3919 60.1323 18.4882C59.8953 18.5846 59.6115 18.6327 59.2808 18.6327ZM59.5347 17.6952C59.8576 17.6952 60.1336 17.6314 60.3628 17.5038C60.5946 17.3762 60.7703 17.2096 60.8901 17.0038C61.0125 16.7955 61.0737 16.5729 61.0737 16.3359V15.5624C61.0321 15.6041 60.9513 15.6432 60.8315 15.6796C60.7143 15.7135 60.5802 15.7434 60.4292 15.7695C60.2781 15.7929 60.131 15.815 59.9878 15.8359C59.8446 15.8541 59.7248 15.8697 59.6284 15.8827C59.4018 15.9114 59.1948 15.9596 59.0073 16.0273C58.8224 16.095 58.674 16.1926 58.562 16.3202C58.4526 16.4452 58.3979 16.6119 58.3979 16.8202C58.3979 17.1093 58.5047 17.3281 58.7183 17.4765C58.9318 17.6223 59.2039 17.6952 59.5347 17.6952ZM63.8911 18.4999V10.4999H65.0591V13.4726H65.1294C65.1971 13.3476 65.2947 13.2031 65.4224 13.039C65.55 12.8749 65.727 12.7317 65.9536 12.6093C66.1802 12.4843 66.4796 12.4218 66.852 12.4218C67.3364 12.4218 67.7687 12.5442 68.1489 12.789C68.5291 13.0338 68.8273 13.3867 69.0434 13.8476C69.2622 14.3085 69.3716 14.8632 69.3716 15.5117C69.3716 16.1601 69.2635 16.7161 69.0474 17.1796C68.8312 17.6406 68.5343 17.996 68.1567 18.246C67.7791 18.4934 67.3481 18.6171 66.8638 18.6171C66.4992 18.6171 66.201 18.5559 65.9692 18.4335C65.7401 18.3111 65.5604 18.1679 65.4302 18.0038C65.3 17.8398 65.1997 17.6939 65.1294 17.5663H65.0317V18.4999H63.8911ZM65.0356 15.4999C65.0356 15.9218 65.0968 16.2916 65.2192 16.6093C65.3416 16.927 65.5187 17.1757 65.7505 17.3554C65.9822 17.5325 66.2661 17.621 66.602 17.621C66.951 17.621 67.2427 17.5286 67.477 17.3437C67.7114 17.1562 67.8885 16.9023 68.0083 16.582C68.1307 16.2617 68.1919 15.901 68.1919 15.4999C68.1919 15.1041 68.132 14.7486 68.0122 14.4335C67.895 14.1184 67.7179 13.8697 67.4809 13.6874C67.2466 13.5051 66.9536 13.414 66.602 13.414C66.2635 13.414 65.977 13.5012 65.7427 13.6757C65.5109 13.8502 65.3351 14.0937 65.2153 14.4062C65.0955 14.7187 65.0356 15.0833 65.0356 15.4999ZM71.8511 10.4999V18.4999H70.6831V10.4999H71.8511ZM76.0083 18.621C75.4171 18.621 74.908 18.4947 74.4809 18.2421C74.0565 17.9869 73.7283 17.6288 73.4966 17.1679C73.2674 16.7044 73.1528 16.1614 73.1528 15.539C73.1528 14.9244 73.2674 14.3827 73.4966 13.914C73.7283 13.4452 74.0513 13.0794 74.4653 12.8163C74.882 12.5533 75.369 12.4218 75.9263 12.4218C76.2648 12.4218 76.5929 12.4778 76.9106 12.5898C77.2283 12.7018 77.5135 12.8775 77.7661 13.1171C78.0187 13.3567 78.2179 13.6679 78.3638 14.0507C78.5096 14.4309 78.5825 14.8932 78.5825 15.4374V15.8515H73.813V14.9765H77.438C77.438 14.6692 77.3755 14.3971 77.2505 14.1601C77.1255 13.9205 76.9497 13.7317 76.7231 13.5937C76.4992 13.4557 76.2362 13.3867 75.9341 13.3867C75.6059 13.3867 75.3195 13.4674 75.0747 13.6288C74.8325 13.7877 74.645 13.996 74.5122 14.2538C74.382 14.5091 74.3169 14.7864 74.3169 15.0859V15.7695C74.3169 16.1705 74.3872 16.5117 74.5278 16.7929C74.671 17.0742 74.8703 17.289 75.1255 17.4374C75.3807 17.5833 75.6789 17.6562 76.02 17.6562C76.2414 17.6562 76.4432 17.6249 76.6255 17.5624C76.8078 17.4973 76.9653 17.401 77.0981 17.2734C77.2309 17.1458 77.3325 16.9882 77.4028 16.8007L78.5083 16.9999C78.4197 17.3255 78.2609 17.6106 78.0317 17.8554C77.8052 18.0976 77.52 18.2864 77.1763 18.4218C76.8351 18.5546 76.4458 18.621 76.0083 18.621ZM85.3169 18.621C84.7544 18.621 84.2635 18.4921 83.8442 18.2343C83.425 17.9765 83.0994 17.6158 82.8677 17.1523C82.6359 16.6887 82.52 16.1471 82.52 15.5273C82.52 14.9049 82.6359 14.3606 82.8677 13.8945C83.0994 13.4283 83.425 13.0663 83.8442 12.8085C84.2635 12.5507 84.7544 12.4218 85.3169 12.4218C85.8794 12.4218 86.3703 12.5507 86.7895 12.8085C87.2088 13.0663 87.5343 13.4283 87.7661 13.8945C87.9979 14.3606 88.1138 14.9049 88.1138 15.5273C88.1138 16.1471 87.9979 16.6887 87.7661 17.1523C87.5343 17.6158 87.2088 17.9765 86.7895 18.2343C86.3703 18.4921 85.8794 18.621 85.3169 18.621ZM85.3208 17.6406C85.6854 17.6406 85.9875 17.5442 86.227 17.3515C86.4666 17.1588 86.6437 16.9023 86.7583 16.582C86.8755 16.2617 86.9341 15.9088 86.9341 15.5234C86.9341 15.1406 86.8755 14.789 86.7583 14.4687C86.6437 14.1458 86.4666 13.8867 86.227 13.6913C85.9875 13.496 85.6854 13.3984 85.3208 13.3984C84.9536 13.3984 84.6489 13.496 84.4067 13.6913C84.1671 13.8867 83.9888 14.1458 83.8716 14.4687C83.757 14.789 83.6997 15.1406 83.6997 15.5234C83.6997 15.9088 83.757 16.2617 83.8716 16.582C83.9888 16.9023 84.1671 17.1588 84.4067 17.3515C84.6489 17.5442 84.9536 17.6406 85.3208 17.6406ZM90.5854 14.9374V18.4999H89.4175V12.4999H90.5386V13.4765H90.6128C90.7508 13.1588 90.9669 12.9036 91.2612 12.7109C91.5581 12.5182 91.9318 12.4218 92.3823 12.4218C92.7912 12.4218 93.1492 12.5078 93.4565 12.6796C93.7638 12.8489 94.0021 13.1015 94.1714 13.4374C94.3406 13.7734 94.4253 14.1887 94.4253 14.6835V18.4999H93.2573V14.8242C93.2573 14.3893 93.144 14.0494 92.9175 13.8046C92.6909 13.5572 92.3797 13.4335 91.9839 13.4335C91.713 13.4335 91.4722 13.4921 91.2612 13.6093C91.0529 13.7265 90.8875 13.8984 90.7651 14.1249C90.6453 14.3489 90.5854 14.6197 90.5854 14.9374Z" fill="#E8E8E8"/>
<path d="M102.705 9.77267H104.785V15.8068C104.782 16.3721 104.647 16.8664 104.38 17.2897C104.113 17.7102 103.744 18.0369 103.272 18.2698C102.803 18.5028 102.261 18.6193 101.644 18.6193C101.099 18.6193 100.603 18.5241 100.157 18.3337C99.714 18.1434 99.3603 17.8479 99.0961 17.4474C98.8347 17.0468 98.7055 16.534 98.7083 15.909H100.809C100.818 16.1335 100.86 16.3252 100.937 16.4843C101.017 16.6406 101.126 16.7585 101.265 16.838C101.404 16.9175 101.571 16.9573 101.764 16.9573C101.965 16.9573 102.136 16.9147 102.275 16.8295C102.414 16.7414 102.519 16.6122 102.59 16.4417C102.664 16.2712 102.703 16.0596 102.705 15.8068V9.77267ZM108.202 18.4999L105.662 9.77267H107.993L109.31 15.4914H109.382L110.886 9.77267H112.787L114.291 15.5042H114.363L115.685 9.77267H118.011L115.476 18.4999H113.443L111.871 13.2073H111.802L110.23 18.4999H108.202ZM118.883 18.4999V9.77267H122.488C123.141 9.77267 123.705 9.90051 124.18 10.1562C124.657 10.409 125.025 10.7627 125.283 11.2173C125.542 11.669 125.671 12.1945 125.671 12.794C125.671 13.3962 125.539 13.9232 125.275 14.3749C125.013 14.8238 124.64 15.1718 124.154 15.419C123.668 15.6661 123.091 15.7897 122.424 15.7897H120.199V14.1278H122.032C122.35 14.1278 122.616 14.0724 122.829 13.9616C123.045 13.8508 123.208 13.696 123.319 13.4971C123.43 13.2954 123.485 13.061 123.485 12.794C123.485 12.5241 123.43 12.2911 123.319 12.0951C123.208 11.8962 123.045 11.7428 122.829 11.6349C122.613 11.5269 122.347 11.4729 122.032 11.4729H120.992V18.4999H118.883ZM129.642 18.6235C128.957 18.6235 128.366 18.4886 127.869 18.2187C127.375 17.946 126.994 17.5582 126.727 17.0553C126.463 16.5497 126.33 15.9488 126.33 15.2528C126.33 14.5766 126.464 13.9857 126.731 13.4801C126.998 12.9715 127.375 12.5766 127.86 12.2954C128.346 12.0113 128.919 11.8693 129.578 11.8693C130.044 11.8693 130.47 11.9417 130.856 12.0866C131.242 12.2315 131.576 12.446 131.857 12.7301C132.139 13.0141 132.357 13.365 132.514 13.7826C132.67 14.1974 132.748 14.6732 132.748 15.2102V15.7301H127.059V14.5198H130.809C130.806 14.2982 130.754 14.1008 130.651 13.9275C130.549 13.7542 130.409 13.6193 130.23 13.5227C130.053 13.4232 129.85 13.3735 129.62 13.3735C129.387 13.3735 129.178 13.4261 128.994 13.5312C128.809 13.6335 128.663 13.7741 128.555 13.9531C128.447 14.1292 128.39 14.3295 128.384 14.5539V15.7854C128.384 16.0525 128.437 16.2869 128.542 16.4886C128.647 16.6874 128.796 16.8423 128.99 16.9531C129.183 17.0639 129.413 17.1193 129.68 17.1193C129.865 17.1193 130.032 17.0937 130.183 17.0425C130.333 16.9914 130.463 16.9161 130.571 16.8167C130.678 16.7173 130.759 16.5951 130.813 16.4502L132.727 16.5056C132.647 16.9346 132.473 17.3082 132.203 17.6264C131.936 17.9417 131.585 18.1874 131.15 18.3636C130.715 18.5369 130.213 18.6235 129.642 18.6235ZM133.812 20.9545V11.9545H135.875V13.0752H135.939C136.024 12.8764 136.145 12.6846 136.301 12.4999C136.46 12.3153 136.662 12.1647 136.906 12.0482C137.153 11.9289 137.449 11.8693 137.792 11.8693C138.247 11.8693 138.672 11.9886 139.067 12.2272C139.464 12.4658 139.785 12.8337 140.03 13.3309C140.274 13.8281 140.396 14.4616 140.396 15.2315C140.396 15.9729 140.278 16.5937 140.042 17.0937C139.81 17.5937 139.494 17.9687 139.096 18.2187C138.702 18.4687 138.263 18.5937 137.78 18.5937C137.45 18.5937 137.165 18.5397 136.923 18.4318C136.682 18.3238 136.479 18.1818 136.314 18.0056C136.152 17.8295 136.027 17.6406 135.939 17.4389H135.896V20.9545H133.812ZM135.854 15.2272C135.854 15.5795 135.9 15.8863 135.994 16.1477C136.091 16.409 136.229 16.6122 136.408 16.757C136.589 16.8991 136.807 16.9701 137.06 16.9701C137.315 16.9701 137.533 16.8991 137.712 16.757C137.89 16.6122 138.025 16.409 138.116 16.1477C138.21 15.8863 138.257 15.5795 138.257 15.2272C138.257 14.8749 138.21 14.5695 138.116 14.311C138.025 14.0525 137.89 13.8522 137.712 13.7102C137.535 13.5681 137.318 13.4971 137.06 13.4971C136.804 13.4971 136.587 13.5667 136.408 13.7059C136.229 13.8451 136.091 14.044 135.994 14.3025C135.9 14.561 135.854 14.8693 135.854 15.2272ZM141.488 20.9545V11.9545H143.551V13.0752H143.615C143.7 12.8764 143.821 12.6846 143.977 12.4999C144.136 12.3153 144.338 12.1647 144.582 12.0482C144.829 11.9289 145.124 11.8693 145.468 11.8693C145.923 11.8693 146.348 11.9886 146.742 12.2272C147.14 12.4658 147.461 12.8337 147.705 13.3309C147.95 13.8281 148.072 14.4616 148.072 15.2315C148.072 15.9729 147.954 16.5937 147.718 17.0937C147.485 17.5937 147.17 17.9687 146.772 18.2187C146.377 18.4687 145.938 18.5937 145.455 18.5937C145.126 18.5937 144.84 18.5397 144.599 18.4318C144.357 18.3238 144.154 18.1818 143.99 18.0056C143.828 17.8295 143.703 17.6406 143.615 17.4389H143.572V20.9545H141.488ZM143.529 15.2272C143.529 15.5795 143.576 15.8863 143.67 16.1477C143.767 16.409 143.904 16.6122 144.083 16.757C144.265 16.8991 144.482 16.9701 144.735 16.9701C144.991 16.9701 145.208 16.8991 145.387 16.757C145.566 16.6122 145.701 16.409 145.792 16.1477C145.886 15.8863 145.933 15.5795 145.933 15.2272C145.933 14.8749 145.886 14.5695 145.792 14.311C145.701 14.0525 145.566 13.8522 145.387 13.7102C145.211 13.5681 144.994 13.4971 144.735 13.4971C144.48 13.4971 144.262 13.5667 144.083 13.7059C143.904 13.8451 143.767 14.044 143.67 14.3025C143.576 14.561 143.529 14.8693 143.529 15.2272ZM152.224 18.6235C151.539 18.6235 150.948 18.4886 150.451 18.2187C149.957 17.946 149.576 17.5582 149.309 17.0553C149.045 16.5497 148.912 15.9488 148.912 15.2528C148.912 14.5766 149.046 13.9857 149.313 13.4801C149.58 12.9715 149.957 12.5766 150.442 12.2954C150.928 12.0113 151.501 11.8693 152.16 11.8693C152.626 11.8693 153.052 11.9417 153.438 12.0866C153.824 12.2315 154.158 12.446 154.439 12.7301C154.721 13.0141 154.939 13.365 155.096 13.7826C155.252 14.1974 155.33 14.6732 155.33 15.2102V15.7301H149.641V14.5198H153.391C153.388 14.2982 153.336 14.1008 153.234 13.9275C153.131 13.7542 152.991 13.6193 152.812 13.5227C152.636 13.4232 152.432 13.3735 152.202 13.3735C151.969 13.3735 151.761 13.4261 151.576 13.5312C151.391 13.6335 151.245 13.7741 151.137 13.9531C151.029 14.1292 150.972 14.3295 150.966 14.5539V15.7854C150.966 16.0525 151.019 16.2869 151.124 16.4886C151.229 16.6874 151.378 16.8423 151.572 16.9531C151.765 17.0639 151.995 17.1193 152.262 17.1193C152.447 17.1193 152.614 17.0937 152.765 17.0425C152.915 16.9914 153.045 16.9161 153.153 16.8167C153.261 16.7173 153.341 16.5951 153.395 16.4502L155.309 16.5056C155.229 16.9346 155.055 17.3082 154.785 17.6264C154.518 17.9417 154.167 18.1874 153.732 18.3636C153.297 18.5369 152.795 18.6235 152.224 18.6235ZM156.394 18.4999V11.9545H158.419V13.1477H158.487C158.606 12.7158 158.801 12.3948 159.071 12.1846C159.34 11.9715 159.654 11.865 160.012 11.865C160.109 11.865 160.208 11.8721 160.311 11.8863C160.413 11.8977 160.508 11.9161 160.596 11.9417V13.7528C160.497 13.7187 160.366 13.6917 160.204 13.6718C160.045 13.6519 159.903 13.642 159.778 13.642C159.531 13.642 159.308 13.6974 159.109 13.8082C158.913 13.9161 158.758 14.0681 158.644 14.2641C158.534 14.4573 158.478 14.6846 158.478 14.946V18.4999H156.394Z" fill="white"/>
</g>
<rect x="0.749512" y="0.749939" width="166" height="26.5" rx="5.25" stroke="white" stroke-opacity="0.15" stroke-width="1.5"/>
<defs>
<filter id="filter0_d_1_92" x="1.28528" y="-6.10352e-05" width="29.4286" height="28" filterUnits="userSpaceOnUse" color-interpolation-filters="sRGB">
<feFlood flood-opacity="0" result="BackgroundImageFix"/>
<feColorMatrix in="SourceAlpha" type="matrix" values="0 0 0 0 0 0 0 0 0 0 0 0 0 0 0 0 0 0 127 0" result="hardAlpha"/>
<feOffset/>
<feGaussianBlur stdDeviation="2"/>
<feComposite in2="hardAlpha" operator="out"/>
<feColorMatrix type="matrix" values="0 0 0 0 0 0 0 0 0 0 0 0 0 0 0 0 0 0 0.25 0"/>
<feBlend mode="normal" in2="BackgroundImageFix" result="effect1_dropShadow_1_92"/>
<feBlend mode="normal" in="SourceGraphic" in2="effect1_dropShadow_1_92" result="shape"/>
</filter>
<filter id="filter1_d_1_92" x="27.9995" y="3.49994" width="137.5" height="21.4545" filterUnits="userSpaceOnUse" color-interpolation-filters="sRGB">
<feFlood flood-opacity="0" result="BackgroundImageFix"/>
<feColorMatrix in="SourceAlpha" type="matrix" values="0 0 0 0 0 0 0 0 0 0 0 0 0 0 0 0 0 0 127 0" result="hardAlpha"/>
<feOffset/>
<feGaussianBlur stdDeviation="2"/>
<feComposite in2="hardAlpha" operator="out"/>
<feColorMatrix type="matrix" values="0 0 0 0 0 0 0 0 0 0 0 0 0 0 0 0 0 0 0.25 0"/>
<feBlend mode="normal" in2="BackgroundImageFix" result="effect1_dropShadow_1_92"/>
<feBlend mode="normal" in="SourceGraphic" in2="effect1_dropShadow_1_92" result="shape"/>
</filter>
<linearGradient id="paint0_linear_1_92" x1="83.7495" y1="-6.10351e-05" x2="83.7495" y2="27.9999" gradientUnits="userSpaceOnUse">
<stop stop-color="#3A0809"/>
<stop offset="1" stop-color="#230506"/>
</linearGradient>
</defs>
</svg>
