<svg width="193" height="28" viewBox="0 0 193 28" fill="none" xmlns="http://www.w3.org/2000/svg">
<g clip-path="url(#clip0_28_2609)">
<rect x="-0.000488281" y="-3.05176e-05" width="192.5" height="28" rx="6" fill="url(#paint0_linear_28_2609)"/>
<g filter="url(#filter0_d_28_2609)">
<path d="M23.6892 10.3187C23.5721 10.4087 21.5057 11.5628 21.5057 14.129C21.5057 17.0973 24.1351 18.1474 24.2139 18.1734C24.2017 18.2374 23.7961 19.6116 22.8275 21.0117C21.9638 22.2438 21.0617 23.474 19.6895 23.474C18.3172 23.474 17.9641 22.6839 16.38 22.6839C14.8362 22.6839 14.2873 23.5 13.0321 23.5C11.7769 23.5 10.9011 22.3599 9.89409 20.9597C8.72769 19.3156 7.78528 16.7613 7.78528 14.3371C7.78528 10.4487 10.336 8.38646 12.8464 8.38646C14.1803 8.38646 15.2923 9.25454 16.1297 9.25454C16.9268 9.25454 18.1699 8.33445 19.6875 8.33445C20.2626 8.33445 22.329 8.38646 23.6892 10.3187ZM18.967 6.68829C19.5946 5.95021 20.0386 4.92611 20.0386 3.90201C20.0386 3.76 20.0265 3.61598 20.0003 3.49997C18.9791 3.53797 17.7643 4.17404 17.0318 5.01612C16.4566 5.66419 15.9199 6.68829 15.9199 7.72639C15.9199 7.88241 15.9461 8.03842 15.9582 8.08843C16.0228 8.10043 16.1277 8.11443 16.2326 8.11443C17.1488 8.11443 18.3011 7.50637 18.967 6.68829Z" fill="white"/>
</g>
<g filter="url(#filter1_d_28_2609)">
<path d="M33.5542 18.5H32.2729L35.1519 10.5H36.5464L39.4253 18.5H38.144L35.8823 11.9531H35.8198L33.5542 18.5ZM33.769 15.3672H37.9253V16.3828H33.769V15.3672ZM44.8677 12.5L42.6919 18.5H41.4419L39.2622 12.5H40.5161L42.0356 17.1172H42.0981L43.6138 12.5H44.8677ZM47.5395 18.6328C47.1593 18.6328 46.8156 18.5625 46.5083 18.4218C46.201 18.2786 45.9575 18.0716 45.7778 17.8007C45.6007 17.5299 45.5122 17.1979 45.5122 16.8047C45.5122 16.4661 45.5773 16.1875 45.7075 15.9687C45.8377 15.75 46.0135 15.5768 46.2349 15.4492C46.4562 15.3216 46.7036 15.2252 46.977 15.1601C47.2505 15.095 47.5291 15.0455 47.813 15.0117C48.1724 14.97 48.464 14.9362 48.688 14.9101C48.9119 14.8815 49.0747 14.8359 49.1763 14.7734C49.2778 14.7109 49.3286 14.6093 49.3286 14.4687V14.4414C49.3286 14.1002 49.2323 13.8359 49.0395 13.6484C48.8494 13.4609 48.5656 13.3672 48.188 13.3672C47.7948 13.3672 47.4849 13.4544 47.2583 13.6289C47.0343 13.8007 46.8794 13.9922 46.7935 14.2031L45.6958 13.9531C45.826 13.5885 46.0161 13.2942 46.2661 13.0703C46.5187 12.8437 46.8091 12.6797 47.1372 12.5781C47.4653 12.4739 47.8104 12.4218 48.1724 12.4218C48.4119 12.4218 48.6658 12.4505 48.9341 12.5078C49.2049 12.5625 49.4575 12.664 49.6919 12.8125C49.9289 12.9609 50.1229 13.1731 50.2739 13.4492C50.425 13.7226 50.5005 14.0781 50.5005 14.5156V18.5H49.3599V17.6797H49.313C49.2375 17.8307 49.1242 17.9791 48.9731 18.125C48.8221 18.2708 48.6281 18.3919 48.3911 18.4882C48.1541 18.5846 47.8703 18.6328 47.5395 18.6328ZM47.7935 17.6953C48.1164 17.6953 48.3924 17.6315 48.6216 17.5039C48.8533 17.3763 49.0291 17.2096 49.1489 17.0039C49.2713 16.7955 49.3325 16.5729 49.3325 16.3359V15.5625C49.2908 15.6041 49.2101 15.6432 49.0903 15.6797C48.9731 15.7135 48.839 15.7435 48.688 15.7695C48.5369 15.7929 48.3898 15.8151 48.2466 15.8359C48.1033 15.8541 47.9836 15.8698 47.8872 15.8828C47.6606 15.9114 47.4536 15.9596 47.2661 16.0273C47.0812 16.095 46.9328 16.1927 46.8208 16.3203C46.7114 16.4453 46.6567 16.6119 46.6567 16.8203C46.6567 17.1093 46.7635 17.3281 46.977 17.4765C47.1906 17.6224 47.4627 17.6953 47.7935 17.6953ZM52.0561 18.5V12.5H53.2241V18.5H52.0561ZM52.646 11.5742C52.4429 11.5742 52.2684 11.5065 52.1226 11.3711C51.9793 11.233 51.9077 11.069 51.9077 10.8789C51.9077 10.6862 51.9793 10.5221 52.1226 10.3867C52.2684 10.2487 52.4429 10.1797 52.646 10.1797C52.8491 10.1797 53.0223 10.2487 53.1655 10.3867C53.3114 10.5221 53.3843 10.6862 53.3843 10.8789C53.3843 11.069 53.3114 11.233 53.1655 11.3711C53.0223 11.5065 52.8491 11.5742 52.646 11.5742ZM55.9634 10.5V18.5H54.7954V10.5H55.9634ZM59.2808 18.6328C58.9005 18.6328 58.5568 18.5625 58.2495 18.4218C57.9422 18.2786 57.6987 18.0716 57.519 17.8007C57.342 17.5299 57.2534 17.1979 57.2534 16.8047C57.2534 16.4661 57.3185 16.1875 57.4487 15.9687C57.5789 15.75 57.7547 15.5768 57.9761 15.4492C58.1974 15.3216 58.4448 15.2252 58.7183 15.1601C58.9917 15.095 59.2703 15.0455 59.5542 15.0117C59.9136 14.97 60.2052 14.9362 60.4292 14.9101C60.6531 14.8815 60.8159 14.8359 60.9175 14.7734C61.019 14.7109 61.0698 14.6093 61.0698 14.4687V14.4414C61.0698 14.1002 60.9735 13.8359 60.7808 13.6484C60.5906 13.4609 60.3068 13.3672 59.9292 13.3672C59.536 13.3672 59.2261 13.4544 58.9995 13.6289C58.7755 13.8007 58.6206 13.9922 58.5347 14.2031L57.437 13.9531C57.5672 13.5885 57.7573 13.2942 58.0073 13.0703C58.2599 12.8437 58.5503 12.6797 58.8784 12.5781C59.2065 12.4739 59.5516 12.4218 59.9136 12.4218C60.1531 12.4218 60.4071 12.4505 60.6753 12.5078C60.9461 12.5625 61.1987 12.664 61.4331 12.8125C61.6701 12.9609 61.8641 13.1731 62.0151 13.4492C62.1662 13.7226 62.2417 14.0781 62.2417 14.5156V18.5H61.1011V17.6797H61.0542C60.9787 17.8307 60.8654 17.9791 60.7143 18.125C60.5633 18.2708 60.3693 18.3919 60.1323 18.4882C59.8953 18.5846 59.6115 18.6328 59.2808 18.6328ZM59.5347 17.6953C59.8576 17.6953 60.1336 17.6315 60.3628 17.5039C60.5946 17.3763 60.7703 17.2096 60.8901 17.0039C61.0125 16.7955 61.0737 16.5729 61.0737 16.3359V15.5625C61.0321 15.6041 60.9513 15.6432 60.8315 15.6797C60.7143 15.7135 60.5802 15.7435 60.4292 15.7695C60.2781 15.7929 60.131 15.8151 59.9878 15.8359C59.8446 15.8541 59.7248 15.8698 59.6284 15.8828C59.4018 15.9114 59.1948 15.9596 59.0073 16.0273C58.8224 16.095 58.674 16.1927 58.562 16.3203C58.4526 16.4453 58.3979 16.6119 58.3979 16.8203C58.3979 17.1093 58.5047 17.3281 58.7183 17.4765C58.9318 17.6224 59.2039 17.6953 59.5347 17.6953ZM63.8911 18.5V10.5H65.0591V13.4726H65.1294C65.1971 13.3476 65.2947 13.2031 65.4224 13.039C65.55 12.875 65.727 12.7317 65.9536 12.6093C66.1802 12.4843 66.4796 12.4218 66.852 12.4218C67.3364 12.4218 67.7687 12.5442 68.1489 12.789C68.5291 13.0338 68.8273 13.3867 69.0434 13.8476C69.2622 14.3086 69.3716 14.8632 69.3716 15.5117C69.3716 16.1601 69.2635 16.7161 69.0474 17.1797C68.8312 17.6406 68.5343 17.9961 68.1567 18.2461C67.7791 18.4935 67.3481 18.6172 66.8638 18.6172C66.4992 18.6172 66.201 18.556 65.9692 18.4336C65.7401 18.3112 65.5604 18.1679 65.4302 18.0039C65.3 17.8398 65.1997 17.694 65.1294 17.5664H65.0317V18.5H63.8911ZM65.0356 15.5C65.0356 15.9218 65.0968 16.2916 65.2192 16.6093C65.3416 16.927 65.5187 17.1757 65.7505 17.3554C65.9822 17.5325 66.2661 17.6211 66.602 17.6211C66.951 17.6211 67.2427 17.5286 67.477 17.3437C67.7114 17.1562 67.8885 16.9023 68.0083 16.582C68.1307 16.2617 68.1919 15.901 68.1919 15.5C68.1919 15.1041 68.132 14.7487 68.0122 14.4336C67.895 14.1185 67.7179 13.8698 67.4809 13.6875C67.2466 13.5052 66.9536 13.414 66.602 13.414C66.2635 13.414 65.977 13.5013 65.7427 13.6757C65.5109 13.8502 65.3351 14.0937 65.2153 14.4062C65.0955 14.7187 65.0356 15.0833 65.0356 15.5ZM71.8511 10.5V18.5H70.6831V10.5H71.8511ZM76.0083 18.6211C75.4171 18.6211 74.908 18.4948 74.4809 18.2422C74.0565 17.9869 73.7283 17.6289 73.4966 17.1679C73.2674 16.7044 73.1528 16.1614 73.1528 15.539C73.1528 14.9244 73.2674 14.3828 73.4966 13.914C73.7283 13.4453 74.0513 13.0794 74.4653 12.8164C74.882 12.5534 75.369 12.4218 75.9263 12.4218C76.2648 12.4218 76.5929 12.4778 76.9106 12.5898C77.2283 12.7018 77.5135 12.8776 77.7661 13.1172C78.0187 13.3567 78.2179 13.6679 78.3638 14.0507C78.5096 14.431 78.5825 14.8932 78.5825 15.4375V15.8515H73.813V14.9765H77.438C77.438 14.6692 77.3755 14.3971 77.2505 14.1601C77.1255 13.9205 76.9497 13.7317 76.7231 13.5937C76.4992 13.4557 76.2362 13.3867 75.9341 13.3867C75.6059 13.3867 75.3195 13.4674 75.0747 13.6289C74.8325 13.7877 74.645 13.9961 74.5122 14.2539C74.382 14.5091 74.3169 14.7864 74.3169 15.0859V15.7695C74.3169 16.1705 74.3872 16.5117 74.5278 16.7929C74.671 17.0742 74.8703 17.289 75.1255 17.4375C75.3807 17.5833 75.6789 17.6562 76.02 17.6562C76.2414 17.6562 76.4432 17.625 76.6255 17.5625C76.8078 17.4974 76.9653 17.401 77.0981 17.2734C77.2309 17.1458 77.3325 16.9882 77.4028 16.8007L78.5083 17C78.4197 17.3255 78.2609 17.6106 78.0317 17.8554C77.8052 18.0976 77.52 18.2864 77.1763 18.4218C76.8351 18.5547 76.4458 18.6211 76.0083 18.6211ZM85.3169 18.6211C84.7544 18.6211 84.2635 18.4922 83.8442 18.2343C83.425 17.9765 83.0994 17.6159 82.8677 17.1523C82.6359 16.6888 82.52 16.1471 82.52 15.5273C82.52 14.9049 82.6359 14.3606 82.8677 13.8945C83.0994 13.4284 83.425 13.0664 83.8442 12.8086C84.2635 12.5507 84.7544 12.4218 85.3169 12.4218C85.8794 12.4218 86.3703 12.5507 86.7895 12.8086C87.2088 13.0664 87.5343 13.4284 87.7661 13.8945C87.9979 14.3606 88.1138 14.9049 88.1138 15.5273C88.1138 16.1471 87.9979 16.6888 87.7661 17.1523C87.5343 17.6159 87.2088 17.9765 86.7895 18.2343C86.3703 18.4922 85.8794 18.6211 85.3169 18.6211ZM85.3208 17.6406C85.6854 17.6406 85.9875 17.5442 86.227 17.3515C86.4666 17.1588 86.6437 16.9023 86.7583 16.582C86.8755 16.2617 86.9341 15.9088 86.9341 15.5234C86.9341 15.1406 86.8755 14.789 86.7583 14.4687C86.6437 14.1458 86.4666 13.8867 86.227 13.6914C85.9875 13.4961 85.6854 13.3984 85.3208 13.3984C84.9536 13.3984 84.6489 13.4961 84.4067 13.6914C84.1671 13.8867 83.9888 14.1458 83.8716 14.4687C83.757 14.789 83.6997 15.1406 83.6997 15.5234C83.6997 15.9088 83.757 16.2617 83.8716 16.582C83.9888 16.9023 84.1671 17.1588 84.4067 17.3515C84.6489 17.5442 84.9536 17.6406 85.3208 17.6406ZM90.5854 14.9375V18.5H89.4175V12.5H90.5386V13.4765H90.6128C90.7508 13.1588 90.9669 12.9036 91.2612 12.7109C91.5581 12.5182 91.9318 12.4218 92.3823 12.4218C92.7912 12.4218 93.1492 12.5078 93.4565 12.6797C93.7638 12.8489 94.0021 13.1015 94.1714 13.4375C94.3406 13.7734 94.4253 14.1888 94.4253 14.6836V18.5H93.2573V14.8242C93.2573 14.3893 93.144 14.0494 92.9175 13.8047C92.6909 13.5573 92.3797 13.4336 91.9839 13.4336C91.713 13.4336 91.4722 13.4922 91.2612 13.6093C91.0529 13.7265 90.8875 13.8984 90.7651 14.125C90.6453 14.3489 90.5854 14.6198 90.5854 14.9375Z" fill="#E8E8E8"/>
<path d="M99.16 9.7727H101.772L103.988 15.1761H104.09L106.306 9.7727H108.919V18.5H106.865V13.1392H106.792L104.696 18.4446H103.383L101.286 13.1093H101.214V18.5H99.16V9.7727ZM112.079 18.6108C111.662 18.6108 111.291 18.5412 110.967 18.402C110.646 18.2599 110.392 18.0468 110.204 17.7628C110.02 17.4758 109.927 17.1164 109.927 16.6846C109.927 16.321 109.991 16.0142 110.119 15.7642C110.247 15.5142 110.423 15.311 110.648 15.1548C110.872 14.9985 111.131 14.8806 111.423 14.8011C111.716 14.7187 112.028 14.6633 112.361 14.6349C112.733 14.6008 113.033 14.5653 113.26 14.5284C113.487 14.4886 113.652 14.4332 113.754 14.3622C113.859 14.2883 113.912 14.1846 113.912 14.0511V14.0298C113.912 13.811 113.837 13.642 113.686 13.5227C113.535 13.4034 113.332 13.3437 113.077 13.3437C112.801 13.3437 112.579 13.4034 112.412 13.5227C112.244 13.642 112.138 13.8068 112.092 14.017L110.17 13.9488C110.227 13.5511 110.373 13.196 110.609 12.8835C110.848 12.5681 111.175 12.321 111.589 12.142C112.007 11.9602 112.508 11.8693 113.094 11.8693C113.511 11.8693 113.896 11.919 114.248 12.0184C114.601 12.115 114.908 12.2571 115.169 12.4446C115.43 12.6292 115.632 12.8565 115.774 13.1264C115.919 13.3963 115.991 13.7045 115.991 14.0511V18.5H114.031V17.588H113.98C113.863 17.8096 113.714 17.9971 113.533 18.1505C113.354 18.3039 113.142 18.419 112.898 18.4957C112.656 18.5724 112.383 18.6108 112.079 18.6108ZM112.723 17.2471C112.947 17.2471 113.149 17.2017 113.328 17.1108C113.51 17.0199 113.655 16.8949 113.763 16.7358C113.871 16.5738 113.925 16.3863 113.925 16.1733V15.5511C113.865 15.5824 113.792 15.6108 113.707 15.6363C113.625 15.6619 113.534 15.686 113.435 15.7088C113.335 15.7315 113.233 15.7514 113.128 15.7684C113.023 15.7855 112.922 15.8011 112.825 15.8153C112.629 15.8466 112.462 15.8949 112.322 15.9602C112.186 16.0255 112.081 16.1108 112.007 16.2159C111.936 16.3181 111.9 16.4403 111.9 16.5824C111.9 16.7983 111.977 16.963 112.131 17.0767C112.287 17.1903 112.484 17.2471 112.723 17.2471ZM120.321 18.6235C119.631 18.6235 119.038 18.4815 118.544 18.1974C118.052 17.9133 117.675 17.5184 117.41 17.0128C117.146 16.5042 117.014 15.9162 117.014 15.2485C117.014 14.5781 117.146 13.99 117.41 13.4843C117.677 12.9758 118.057 12.5795 118.548 12.2954C119.042 12.0113 119.632 11.8693 120.317 11.8693C120.922 11.8693 121.449 11.9787 121.898 12.1974C122.349 12.4162 122.702 12.7258 122.954 13.1264C123.21 13.5241 123.345 13.9914 123.359 14.5284H121.412C121.372 14.1931 121.258 13.9304 121.071 13.74C120.886 13.5497 120.645 13.4545 120.346 13.4545C120.105 13.4545 119.893 13.5227 119.712 13.6591C119.53 13.7926 119.388 13.9914 119.285 14.2556C119.186 14.517 119.136 14.8409 119.136 15.2272C119.136 15.6136 119.186 15.9403 119.285 16.2074C119.388 16.4716 119.53 16.6718 119.712 16.8082C119.893 16.9417 120.105 17.0085 120.346 17.0085C120.54 17.0085 120.71 16.9673 120.858 16.8849C121.008 16.8025 121.132 16.6818 121.229 16.5227C121.325 16.3608 121.386 16.1647 121.412 15.9346H123.359C123.339 16.4744 123.204 16.946 122.954 17.3494C122.707 17.7528 122.359 18.0667 121.91 18.2912C121.464 18.5128 120.935 18.6235 120.321 18.6235ZM128.892 18.5H126.625L129.569 9.7727H132.377L135.322 18.5H133.055L131.005 11.9716H130.937L128.892 18.5ZM128.589 15.0653H133.328V16.6676H128.589V15.0653ZM136.262 20.9545V11.9545H138.324V13.0753H138.388C138.473 12.8764 138.594 12.6846 138.75 12.5C138.909 12.3153 139.111 12.1647 139.355 12.0483C139.602 11.9289 139.898 11.8693 140.242 11.8693C140.696 11.8693 141.121 11.9886 141.516 12.2272C141.914 12.4659 142.235 12.8338 142.479 13.3309C142.723 13.8281 142.845 14.4616 142.845 15.2315C142.845 15.973 142.727 16.5937 142.492 17.0937C142.259 17.5937 141.943 17.9687 141.546 18.2187C141.151 18.4687 140.712 18.5937 140.229 18.5937C139.899 18.5937 139.614 18.5397 139.372 18.4318C139.131 18.3238 138.928 18.1818 138.763 18.0056C138.601 17.8295 138.476 17.6406 138.388 17.4389H138.345V20.9545H136.262ZM138.303 15.2272C138.303 15.5795 138.35 15.8863 138.443 16.1477C138.54 16.4091 138.678 16.6122 138.857 16.7571C139.039 16.8991 139.256 16.9701 139.509 16.9701C139.764 16.9701 139.982 16.8991 140.161 16.7571C140.34 16.6122 140.475 16.4091 140.566 16.1477C140.659 15.8863 140.706 15.5795 140.706 15.2272C140.706 14.875 140.659 14.5696 140.566 14.311C140.475 14.0525 140.34 13.8522 140.161 13.7102C139.985 13.5681 139.767 13.4971 139.509 13.4971C139.253 13.4971 139.036 13.5667 138.857 13.7059C138.678 13.8451 138.54 14.044 138.443 14.3025C138.35 14.561 138.303 14.8693 138.303 15.2272ZM143.937 20.9545V11.9545H146V13.0753H146.064C146.149 12.8764 146.27 12.6846 146.426 12.5C146.585 12.3153 146.787 12.1647 147.031 12.0483C147.278 11.9289 147.574 11.8693 147.917 11.8693C148.372 11.8693 148.797 11.9886 149.192 12.2272C149.589 12.4659 149.91 12.8338 150.155 13.3309C150.399 13.8281 150.521 14.4616 150.521 15.2315C150.521 15.973 150.403 16.5937 150.167 17.0937C149.935 17.5937 149.619 17.9687 149.221 18.2187C148.827 18.4687 148.388 18.5937 147.905 18.5937C147.575 18.5937 147.29 18.5397 147.048 18.4318C146.807 18.3238 146.604 18.1818 146.439 18.0056C146.277 17.8295 146.152 17.6406 146.064 17.4389H146.021V20.9545H143.937ZM145.979 15.2272C145.979 15.5795 146.025 15.8863 146.119 16.1477C146.216 16.4091 146.354 16.6122 146.533 16.7571C146.714 16.8991 146.932 16.9701 147.185 16.9701C147.44 16.9701 147.658 16.8991 147.836 16.7571C148.015 16.6122 148.15 16.4091 148.241 16.1477C148.335 15.8863 148.382 15.5795 148.382 15.2272C148.382 14.875 148.335 14.5696 148.241 14.311C148.15 14.0525 148.015 13.8522 147.836 13.7102C147.66 13.5681 147.443 13.4971 147.185 13.4971C146.929 13.4971 146.712 13.5667 146.533 13.7059C146.354 13.8451 146.216 14.044 146.119 14.3025C146.025 14.561 145.979 14.8693 145.979 15.2272ZM158.909 12.3892C158.88 12.0767 158.754 11.8338 158.529 11.6605C158.308 11.4843 157.991 11.3963 157.579 11.3963C157.306 11.3963 157.079 11.4318 156.897 11.5028C156.715 11.5738 156.579 11.6718 156.488 11.7968C156.397 11.919 156.35 12.0596 156.348 12.2187C156.342 12.3494 156.367 12.4645 156.424 12.5639C156.484 12.6633 156.569 12.7514 156.68 12.8281C156.794 12.902 156.93 12.9673 157.089 13.0241C157.248 13.0809 157.427 13.1306 157.626 13.1733L158.376 13.3437C158.808 13.4375 159.188 13.5625 159.518 13.7187C159.85 13.875 160.129 14.061 160.353 14.277C160.58 14.4929 160.752 14.7414 160.869 15.0227C160.985 15.3039 161.045 15.6193 161.048 15.9687C161.045 16.5199 160.906 16.9929 160.63 17.3878C160.355 17.7826 159.958 18.0852 159.441 18.2954C158.927 18.5056 158.306 18.6108 157.579 18.6108C156.849 18.6108 156.213 18.5014 155.67 18.2826C155.127 18.0639 154.705 17.7315 154.404 17.2855C154.103 16.8395 153.948 16.2755 153.94 15.5937H155.96C155.977 15.875 156.052 16.1093 156.186 16.2968C156.319 16.4843 156.502 16.6264 156.735 16.723C156.971 16.8196 157.244 16.8679 157.553 16.8679C157.838 16.8679 158.079 16.8295 158.278 16.7528C158.48 16.6761 158.634 16.5696 158.742 16.4332C158.85 16.2968 158.906 16.1406 158.909 15.9645C158.906 15.7997 158.855 15.6591 158.755 15.5426C158.656 15.4233 158.502 15.321 158.295 15.2358C158.09 15.1477 157.829 15.0667 157.511 14.9929L156.599 14.7798C155.843 14.6065 155.248 14.3267 154.813 13.9403C154.379 13.5511 154.163 13.0255 154.166 12.3636C154.163 11.8238 154.308 11.3508 154.6 10.9446C154.893 10.5383 155.298 10.2216 155.815 9.99429C156.332 9.76701 156.921 9.65338 157.583 9.65338C158.259 9.65338 158.846 9.76843 159.343 9.99855C159.843 10.2258 160.231 10.5454 160.507 10.9574C160.782 11.3693 160.923 11.8466 160.928 12.3892H158.909ZM165.808 11.9545V13.4886H161.678V11.9545H165.808ZM162.544 10.3863H164.627V16.4417C164.627 16.5696 164.647 16.6733 164.687 16.7528C164.73 16.8295 164.791 16.8849 164.87 16.919C164.95 16.9503 165.045 16.9659 165.156 16.9659C165.235 16.9659 165.319 16.9588 165.407 16.9446C165.498 16.9275 165.566 16.9133 165.612 16.902L165.927 18.4062C165.828 18.4346 165.687 18.4701 165.505 18.5128C165.326 18.5554 165.112 18.5824 164.862 18.5937C164.373 18.6164 163.954 18.5596 163.605 18.4233C163.258 18.2841 162.992 18.0681 162.808 17.7755C162.626 17.4829 162.538 17.115 162.544 16.6718V10.3863ZM169.856 18.6235C169.169 18.6235 168.578 18.4829 168.083 18.2017C167.592 17.9176 167.213 17.5227 166.946 17.017C166.681 16.5085 166.549 15.919 166.549 15.2485C166.549 14.5753 166.681 13.9858 166.946 13.4801C167.213 12.9716 167.592 12.5767 168.083 12.2954C168.578 12.0113 169.169 11.8693 169.856 11.8693C170.544 11.8693 171.133 12.0113 171.624 12.2954C172.119 12.5767 172.498 12.9716 172.762 13.4801C173.029 13.9858 173.163 14.5753 173.163 15.2485C173.163 15.919 173.029 16.5085 172.762 17.017C172.498 17.5227 172.119 17.9176 171.624 18.2017C171.133 18.4829 170.544 18.6235 169.856 18.6235ZM169.869 17.0511C170.119 17.0511 170.33 16.9744 170.504 16.821C170.677 16.6676 170.809 16.4545 170.9 16.1818C170.994 15.9091 171.041 15.5937 171.041 15.2358C171.041 14.8721 170.994 14.5539 170.9 14.2812C170.809 14.0085 170.677 13.7954 170.504 13.642C170.33 13.4886 170.119 13.4119 169.869 13.4119C169.61 13.4119 169.392 13.4886 169.213 13.642C169.036 13.7954 168.901 14.0085 168.808 14.2812C168.717 14.5539 168.671 14.8721 168.671 15.2358C168.671 15.5937 168.717 15.9091 168.808 16.1818C168.901 16.4545 169.036 16.6676 169.213 16.821C169.392 16.9744 169.61 17.0511 169.869 17.0511ZM174.23 18.5V11.9545H176.254V13.1477H176.323C176.442 12.7159 176.637 12.3949 176.906 12.1846C177.176 11.9716 177.49 11.865 177.848 11.865C177.945 11.865 178.044 11.8721 178.147 11.8863C178.249 11.8977 178.344 11.9162 178.432 11.9417V13.7528C178.333 13.7187 178.202 13.6917 178.04 13.6718C177.881 13.652 177.739 13.642 177.614 13.642C177.367 13.642 177.144 13.6974 176.945 13.8082C176.749 13.9162 176.594 14.0681 176.48 14.2642C176.37 14.4574 176.314 14.6846 176.314 14.946V18.5H174.23ZM182.001 18.6235C181.316 18.6235 180.725 18.4886 180.228 18.2187C179.734 17.946 179.353 17.5582 179.086 17.0554C178.822 16.5497 178.69 15.9488 178.69 15.2528C178.69 14.5767 178.823 13.9858 179.09 13.4801C179.357 12.9716 179.734 12.5767 180.22 12.2954C180.705 12.0113 181.278 11.8693 181.937 11.8693C182.403 11.8693 182.829 11.9417 183.215 12.0866C183.602 12.2315 183.936 12.446 184.217 12.7301C184.498 13.0142 184.717 13.365 184.873 13.7826C185.029 14.1974 185.107 14.6733 185.107 15.2102V15.7301H179.419V14.5199H183.169C183.166 14.2983 183.113 14.1008 183.011 13.9275C182.909 13.7542 182.768 13.6193 182.589 13.5227C182.413 13.4233 182.21 13.3735 181.98 13.3735C181.747 13.3735 181.538 13.4261 181.353 13.5312C181.169 13.6335 181.022 13.7741 180.914 13.9531C180.806 14.1292 180.749 14.3295 180.744 14.5539V15.7855C180.744 16.0525 180.796 16.2869 180.901 16.4886C181.007 16.6875 181.156 16.8423 181.349 16.9531C181.542 17.0639 181.772 17.1193 182.039 17.1193C182.224 17.1193 182.392 17.0937 182.542 17.0426C182.693 16.9914 182.822 16.9162 182.93 16.8167C183.038 16.7173 183.119 16.5951 183.173 16.4503L185.086 16.5056C185.007 16.9346 184.832 17.3082 184.562 17.6264C184.295 17.9417 183.944 18.1875 183.509 18.3636C183.075 18.5369 182.572 18.6235 182.001 18.6235Z" fill="white"/>
</g>
</g>
<rect x="0.749512" y="0.749969" width="191" height="26.5" rx="5.25" stroke="white" stroke-opacity="0.15" stroke-width="1.5"/>
<defs>
<filter id="filter0_d_28_2609" x="1.99951" y="-0.500031" width="28" height="28.5" filterUnits="userSpaceOnUse" color-interpolation-filters="sRGB">
<feFlood flood-opacity="0" result="BackgroundImageFix"/>
<feColorMatrix in="SourceAlpha" type="matrix" values="0 0 0 0 0 0 0 0 0 0 0 0 0 0 0 0 0 0 127 0" result="hardAlpha"/>
<feOffset/>
<feGaussianBlur stdDeviation="2"/>
<feComposite in2="hardAlpha" operator="out"/>
<feColorMatrix type="matrix" values="0 0 0 0 0 0 0 0 0 0 0 0 0 0 0 0 0 0 0.25 0"/>
<feBlend mode="normal" in2="BackgroundImageFix" result="effect1_dropShadow_28_2609"/>
<feBlend mode="normal" in="SourceGraphic" in2="effect1_dropShadow_28_2609" result="shape"/>
</filter>
<filter id="filter1_d_28_2609" x="27.9995" y="3.49997" width="162.5" height="21.4545" filterUnits="userSpaceOnUse" color-interpolation-filters="sRGB">
<feFlood flood-opacity="0" result="BackgroundImageFix"/>
<feColorMatrix in="SourceAlpha" type="matrix" values="0 0 0 0 0 0 0 0 0 0 0 0 0 0 0 0 0 0 127 0" result="hardAlpha"/>
<feOffset/>
<feGaussianBlur stdDeviation="2"/>
<feComposite in2="hardAlpha" operator="out"/>
<feColorMatrix type="matrix" values="0 0 0 0 0 0 0 0 0 0 0 0 0 0 0 0 0 0 0.25 0"/>
<feBlend mode="normal" in2="BackgroundImageFix" result="effect1_dropShadow_28_2609"/>
<feBlend mode="normal" in="SourceGraphic" in2="effect1_dropShadow_28_2609" result="shape"/>
</filter>
<linearGradient id="paint0_linear_28_2609" x1="96.2495" y1="-3.05176e-05" x2="96.2495" y2="28" gradientUnits="userSpaceOnUse">
<stop stop-color="#1E1E1E"/>
<stop offset="1" stop-color="#0D0D0D"/>
</linearGradient>
<clipPath id="clip0_28_2609">
<rect x="-0.000488281" y="-3.05176e-05" width="192.5" height="28" rx="6" fill="white"/>
</clipPath>
</defs>
</svg>
