<svg width="278" height="41" viewBox="0 0 278 41" fill="none" xmlns="http://www.w3.org/2000/svg">
<g clip-path="url(#clip0_28_2609)">
<rect x="-0.000732422" y="0.0111694" width="278.001" height="40.0014" rx="8" fill="url(#paint0_linear_28_2609)"/>
<g filter="url(#filter0_d_28_2609)">
<path d="M32.7658 14.8578C32.602 14.9838 29.7088 16.5997 29.7088 20.1926C29.7088 24.3484 33.3902 25.8186 33.5004 25.855C33.4835 25.9446 32.9156 27.8685 31.5594 29.8288C30.3502 31.5539 29.0872 33.2761 27.166 33.2761C25.2448 33.2761 24.7503 32.17 22.5324 32.17C20.371 32.17 19.6025 33.3126 17.8452 33.3126C16.0878 33.3126 14.8616 31.7163 13.4518 29.756C11.8187 27.4541 10.4993 23.8779 10.4993 20.4838C10.4993 15.0398 14.0705 12.1526 17.5852 12.1526C19.4528 12.1526 21.0096 13.368 22.1821 13.368C23.2981 13.368 25.0385 12.0798 27.1632 12.0798C27.9684 12.0798 30.8615 12.1526 32.7658 14.8578V14.8578ZM26.1545 9.77503C27.0332 8.74167 27.6548 7.30786 27.6548 5.87404C27.6548 5.67521 27.6378 5.47358 27.6011 5.31116C26.1715 5.36437 24.4706 6.2549 23.445 7.43388C22.6398 8.34121 21.8882 9.77503 21.8882 11.2284C21.8882 11.4469 21.925 11.6653 21.9419 11.7353C22.0323 11.7521 22.1793 11.7717 22.3262 11.7717C23.6089 11.7717 25.2222 10.9204 26.1545 9.77503Z" fill="white"/>
</g>
<g filter="url(#filter1_d_28_2609)">
<path d="M46.4034 26.5119H44.4233L48.8725 14.1482H51.0277L55.4769 26.5119H53.4968L50.0014 16.394H49.9049L46.4034 26.5119ZM46.7355 21.6702H53.1588V23.2399H46.7355V21.6702ZM63.8879 17.2391L60.5253 26.5119H58.5935L55.2249 17.2391H57.1627L59.5111 24.3748H59.6077L61.95 17.2391H63.8879ZM68.0171 26.7171C67.4296 26.7171 66.8983 26.6085 66.4234 26.3911C65.9485 26.1698 65.5722 25.8498 65.2945 25.4313C65.0208 25.0127 64.884 24.4996 64.884 23.8918C64.884 23.3686 64.9846 22.938 65.1858 22.5999C65.3871 22.2619 65.6587 21.9942 66.0008 21.797C66.3429 21.5998 66.7252 21.4509 67.1478 21.3503C67.5704 21.2497 68.0011 21.1732 68.4397 21.1209C68.9951 21.0565 69.4459 21.0042 69.792 20.9639C70.1381 20.9197 70.3897 20.8492 70.5466 20.7526C70.7036 20.656 70.7821 20.4991 70.7821 20.2818V20.2395C70.7821 19.7123 70.6332 19.3038 70.3353 19.014C70.0415 18.7242 69.6028 18.5793 69.0193 18.5793C68.4116 18.5793 67.9326 18.7142 67.5825 18.9838C67.2364 19.2494 66.9969 19.5452 66.8641 19.8712L65.1677 19.4849C65.3689 18.9214 65.6627 18.4667 66.0491 18.1205C66.4395 17.7704 66.8882 17.5168 67.3953 17.3599C67.9024 17.1989 68.4357 17.1184 68.9951 17.1184C69.3654 17.1184 69.7578 17.1627 70.1723 17.2512C70.5909 17.3357 70.9813 17.4927 71.3435 17.7221C71.7097 17.9515 72.0096 18.2795 72.243 18.7061C72.4764 19.1287 72.5931 19.6781 72.5931 20.3542V26.5119H70.8304V25.2441H70.7579C70.6412 25.4775 70.4661 25.7069 70.2327 25.9323C69.9993 26.1577 69.6994 26.3448 69.3332 26.4938C68.967 26.6427 68.5283 26.7171 68.0171 26.7171ZM68.4095 25.2683C68.9086 25.2683 69.3352 25.1697 69.6894 24.9724C70.0476 24.7752 70.3192 24.5177 70.5044 24.1997C70.6935 23.8778 70.7881 23.5336 70.7881 23.1674V21.9721C70.7237 22.0365 70.5989 22.0969 70.4138 22.1532C70.2327 22.2055 70.0254 22.2518 69.792 22.2921C69.5586 22.3283 69.3312 22.3625 69.1098 22.3947C68.8885 22.4229 68.7033 22.447 68.5544 22.4671C68.2043 22.5114 67.8843 22.5858 67.5946 22.6905C67.3088 22.7951 67.0794 22.9461 66.9064 23.1433C66.7373 23.3364 66.6528 23.594 66.6528 23.916C66.6528 24.3627 66.8178 24.7008 67.1478 24.9302C67.4779 25.1556 67.8984 25.2683 68.4095 25.2683ZM74.9973 26.5119V17.2391H76.8024V26.5119H74.9973ZM75.9089 15.8084C75.595 15.8084 75.3254 15.7037 75.1 15.4945C74.8786 15.2812 74.7679 15.0276 74.7679 14.7338C74.7679 14.436 74.8786 14.1824 75.1 13.9732C75.3254 13.7599 75.595 13.6532 75.9089 13.6532C76.2228 13.6532 76.4905 13.7599 76.7118 13.9732C76.9372 14.1824 77.0499 14.436 77.0499 14.7338C77.0499 15.0276 76.9372 15.2812 76.7118 15.4945C76.4905 15.7037 76.2228 15.8084 75.9089 15.8084ZM81.0358 14.1482V26.5119H79.2307V14.1482H81.0358ZM86.1627 26.7171C85.5751 26.7171 85.0438 26.6085 84.5689 26.3911C84.094 26.1698 83.7177 25.8498 83.44 25.4313C83.1663 25.0127 83.0295 24.4996 83.0295 23.8918C83.0295 23.3686 83.1301 22.938 83.3313 22.5999C83.5326 22.2619 83.8042 21.9942 84.1463 21.797C84.4884 21.5998 84.8707 21.4509 85.2933 21.3503C85.7159 21.2497 86.1466 21.1732 86.5852 21.1209C87.1406 21.0565 87.5914 21.0042 87.9375 20.9639C88.2836 20.9197 88.5352 20.8492 88.6921 20.7526C88.8491 20.656 88.9276 20.4991 88.9276 20.2818V20.2395C88.9276 19.7123 88.7787 19.3038 88.4808 19.014C88.187 18.7242 87.7484 18.5793 87.1648 18.5793C86.5571 18.5793 86.0781 18.7142 85.728 18.9838C85.3819 19.2494 85.1424 19.5452 85.0096 19.8712L83.3132 19.4849C83.5145 18.9214 83.8082 18.4667 84.1946 18.1205C84.585 17.7704 85.0337 17.5168 85.5408 17.3599C86.048 17.1989 86.5812 17.1184 87.1406 17.1184C87.5109 17.1184 87.9033 17.1627 88.3178 17.2512C88.7364 17.3357 89.1268 17.4927 89.489 17.7221C89.8552 17.9515 90.1551 18.2795 90.3885 18.7061C90.6219 19.1287 90.7386 19.6781 90.7386 20.3542V26.5119H88.9759V25.2441H88.9034C88.7867 25.4775 88.6116 25.7069 88.3782 25.9323C88.1448 26.1577 87.8449 26.3448 87.4787 26.4938C87.1125 26.6427 86.6738 26.7171 86.1627 26.7171ZM86.5551 25.2683C87.0541 25.2683 87.4807 25.1697 87.8349 24.9724C88.1931 24.7752 88.4647 24.5177 88.6499 24.1997C88.839 23.8778 88.9336 23.5336 88.9336 23.1674V21.9721C88.8692 22.0365 88.7444 22.0969 88.5593 22.1532C88.3782 22.2055 88.1709 22.2518 87.9375 22.2921C87.7041 22.3283 87.4767 22.3625 87.2553 22.3947C87.034 22.4229 86.8488 22.447 86.6999 22.4671C86.3498 22.5114 86.0298 22.5858 85.7401 22.6905C85.4543 22.7951 85.2249 22.9461 85.0519 23.1433C84.8828 23.3364 84.7983 23.594 84.7983 23.916C84.7983 24.3627 84.9633 24.7008 85.2933 24.9302C85.6234 25.1556 86.0439 25.2683 86.5551 25.2683ZM93.2877 26.5119V14.1482H95.0928V18.7423H95.2014C95.3061 18.5492 95.457 18.3258 95.6542 18.0722C95.8514 17.8187 96.1251 17.5973 96.4752 17.4082C96.8254 17.215 97.2882 17.1184 97.8637 17.1184C98.6123 17.1184 99.2804 17.3076 99.868 17.6859C100.456 18.0642 100.916 18.6095 101.25 19.3219C101.589 20.0342 101.758 20.8915 101.758 21.8936C101.758 22.8957 101.591 23.755 101.256 24.4714C100.922 25.1837 100.464 25.7331 99.8801 26.1195C99.2965 26.5018 98.6304 26.693 97.8818 26.693C97.3184 26.693 96.8576 26.5984 96.4994 26.4092C96.1452 26.2201 95.8675 25.9987 95.6663 25.7452C95.4651 25.4916 95.3101 25.2662 95.2014 25.069H95.0505V26.5119H93.2877ZM95.0566 21.8755C95.0566 22.5275 95.1511 23.099 95.3403 23.59C95.5295 24.081 95.8031 24.4653 96.1613 24.743C96.5195 25.0167 96.9582 25.1536 97.4774 25.1536C98.0167 25.1536 98.4674 25.0107 98.8296 24.7249C99.1919 24.4352 99.4655 24.0428 99.6507 23.5477C99.8398 23.0527 99.9344 22.4953 99.9344 21.8755C99.9344 21.2638 99.8418 20.7144 99.6567 20.2274C99.4756 19.7404 99.2019 19.3561 98.8357 19.0744C98.4735 18.7926 98.0207 18.6518 97.4774 18.6518C96.9542 18.6518 96.5115 18.7866 96.1492 19.0563C95.7911 19.3259 95.5194 19.7022 95.3343 20.1852C95.1491 20.6681 95.0566 21.2316 95.0566 21.8755ZM105.589 14.1482V26.5119H103.784V14.1482H105.589ZM112.014 26.699C111.101 26.699 110.314 26.5038 109.654 26.1134C108.998 25.719 108.491 25.1656 108.133 24.4533C107.778 23.7369 107.601 22.8978 107.601 21.9359C107.601 20.9861 107.778 20.1489 108.133 19.4245C108.491 18.7001 108.99 18.1346 109.63 17.7281C110.274 17.3216 111.026 17.1184 111.888 17.1184C112.411 17.1184 112.918 17.2049 113.409 17.378C113.9 17.551 114.341 17.8227 114.731 18.193C115.121 18.5632 115.429 19.0442 115.655 19.6358C115.88 20.2234 115.993 20.9378 115.993 21.7789V22.4188H108.622V21.0666H114.224C114.224 20.5917 114.127 20.1711 113.934 19.8048C113.741 19.4346 113.469 19.1428 113.119 18.9295C112.773 18.7162 112.366 18.6095 111.9 18.6095C111.392 18.6095 110.95 18.7343 110.571 18.9838C110.197 19.2293 109.907 19.5513 109.702 19.9497C109.501 20.3441 109.4 20.7728 109.4 21.2356V22.2921C109.4 22.9118 109.509 23.4391 109.726 23.8737C109.948 24.3084 110.256 24.6404 110.65 24.8698C111.044 25.0952 111.505 25.2079 112.032 25.2079C112.374 25.2079 112.686 25.1596 112.968 25.063C113.25 24.9624 113.493 24.8135 113.699 24.6163C113.904 24.4191 114.061 24.1756 114.169 23.8858L115.878 24.1937C115.741 24.6968 115.496 25.1375 115.141 25.5158C114.791 25.8901 114.351 26.1818 113.819 26.3911C113.292 26.5964 112.69 26.699 112.014 26.699ZM126.4 26.699C125.531 26.699 124.772 26.4998 124.124 26.1014C123.476 25.7029 122.973 25.1455 122.615 24.4291C122.257 23.7127 122.078 22.8756 122.078 21.9178C122.078 20.9559 122.257 20.1147 122.615 19.3943C122.973 18.6739 123.476 18.1145 124.124 17.7161C124.772 17.3176 125.531 17.1184 126.4 17.1184C127.27 17.1184 128.028 17.3176 128.676 17.7161C129.324 18.1145 129.827 18.6739 130.185 19.3943C130.544 20.1147 130.723 20.9559 130.723 21.9178C130.723 22.8756 130.544 23.7127 130.185 24.4291C129.827 25.1455 129.324 25.7029 128.676 26.1014C128.028 26.4998 127.27 26.699 126.4 26.699ZM126.406 25.1837C126.97 25.1837 127.437 25.0348 127.807 24.737C128.177 24.4392 128.451 24.0428 128.628 23.5477C128.809 23.0527 128.9 22.5074 128.9 21.9117C128.9 21.3201 128.809 20.7768 128.628 20.2818C128.451 19.7827 128.177 19.3823 127.807 19.0804C127.437 18.7786 126.97 18.6276 126.406 18.6276C125.839 18.6276 125.368 18.7786 124.994 19.0804C124.623 19.3823 124.348 19.7827 124.167 20.2818C123.99 20.7768 123.901 21.3201 123.901 21.9117C123.901 22.5074 123.99 23.0527 124.167 23.5477C124.348 24.0428 124.623 24.4392 124.994 24.737C125.368 25.0348 125.839 25.1837 126.406 25.1837ZM134.543 21.0062V26.5119H132.738V17.2391H134.47V18.7484H134.585C134.798 18.2574 135.132 17.863 135.587 17.5651C136.046 17.2673 136.623 17.1184 137.32 17.1184C137.951 17.1184 138.505 17.2512 138.98 17.5168C139.455 17.7784 139.823 18.1688 140.085 18.688C140.346 19.2072 140.477 19.8491 140.477 20.6138V26.5119H138.672V20.8311C138.672 20.159 138.497 19.6338 138.147 19.2555C137.797 18.8731 137.316 18.682 136.704 18.682C136.285 18.682 135.913 18.7725 135.587 18.9536C135.265 19.1347 135.009 19.4004 134.82 19.7505C134.635 20.0966 134.543 20.5152 134.543 21.0062Z" fill="#E8E8E8"/>
<path d="M146.936 14.1482H150.637L153.776 21.8031H153.921L157.06 14.1482H160.761V26.5119H157.851V18.9174H157.749L154.778 26.4334H152.919L149.949 18.8751H149.846V26.5119H146.936V14.1482ZM165.239 26.6688C164.647 26.6688 164.122 26.5702 163.663 26.373C163.208 26.1718 162.848 25.8699 162.583 25.4675C162.321 25.061 162.19 24.5519 162.19 23.9401C162.19 23.425 162.281 22.9903 162.462 22.6362C162.643 22.282 162.893 21.9942 163.211 21.7729C163.528 21.5515 163.895 21.3845 164.309 21.2718C164.724 21.1551 165.166 21.0766 165.637 21.0364C166.165 20.9881 166.589 20.9378 166.911 20.8854C167.233 20.8291 167.467 20.7506 167.611 20.65C167.76 20.5454 167.835 20.3985 167.835 20.2093V20.1791C167.835 19.8692 167.728 19.6298 167.515 19.4607C167.302 19.2917 167.014 19.2072 166.652 19.2072C166.261 19.2072 165.947 19.2917 165.71 19.4607C165.472 19.6298 165.321 19.8632 165.257 20.161L162.534 20.0644C162.615 19.501 162.822 18.9979 163.156 18.5552C163.494 18.1085 163.957 17.7583 164.545 17.5048C165.136 17.2472 165.847 17.1184 166.676 17.1184C167.267 17.1184 167.813 17.1888 168.312 17.3297C168.811 17.4665 169.245 17.6678 169.616 17.9334C169.986 18.195 170.272 18.517 170.473 18.8993C170.678 19.2816 170.781 19.7183 170.781 20.2093V26.5119H168.004V25.22H167.931C167.766 25.5339 167.555 25.7995 167.298 26.0168C167.044 26.2342 166.744 26.3972 166.398 26.5058C166.056 26.6145 165.67 26.6688 165.239 26.6688ZM166.15 24.737C166.468 24.737 166.754 24.6726 167.008 24.5438C167.265 24.415 167.471 24.238 167.624 24.0126C167.776 23.7832 167.853 23.5175 167.853 23.2157V22.3343C167.768 22.3786 167.666 22.4188 167.545 22.455C167.428 22.4913 167.3 22.5255 167.159 22.5577C167.018 22.5899 166.873 22.618 166.724 22.6422C166.575 22.6663 166.432 22.6885 166.295 22.7086C166.018 22.7529 165.78 22.8213 165.583 22.9139C165.39 23.0064 165.241 23.1272 165.136 23.2761C165.036 23.421 164.985 23.594 164.985 23.7952C164.985 24.1011 165.094 24.3345 165.311 24.4955C165.533 24.6565 165.812 24.737 166.15 24.737ZM176.914 26.6869C175.936 26.6869 175.097 26.4857 174.397 26.0832C173.701 25.6808 173.165 25.1214 172.791 24.405C172.417 23.6846 172.23 22.8515 172.23 21.9057C172.23 20.9559 172.417 20.1228 172.791 19.4064C173.169 18.686 173.707 18.1246 174.403 17.7221C175.103 17.3196 175.938 17.1184 176.908 17.1184C177.766 17.1184 178.512 17.2734 179.148 17.5832C179.788 17.8931 180.287 18.3318 180.645 18.8993C181.007 19.4627 181.199 20.1248 181.219 20.8854H178.46C178.403 20.4105 178.242 20.0383 177.977 19.7686C177.715 19.499 177.373 19.3641 176.951 19.3641C176.608 19.3641 176.309 19.4607 176.051 19.6539C175.793 19.8431 175.592 20.1248 175.447 20.4991C175.307 20.8693 175.236 21.3282 175.236 21.8755C175.236 22.4229 175.307 22.8857 175.447 23.264C175.592 23.6383 175.793 23.922 176.051 24.1152C176.309 24.3044 176.608 24.3989 176.951 24.3989C177.224 24.3989 177.466 24.3406 177.675 24.2239C177.888 24.1072 178.063 23.9361 178.2 23.7107C178.337 23.4813 178.424 23.2036 178.46 22.8776H181.219C181.191 23.6423 180.999 24.3104 180.645 24.8819C180.295 25.4534 179.802 25.8981 179.166 26.2161C178.534 26.53 177.784 26.6869 176.914 26.6869ZM189.056 26.5119H185.844L190.016 14.1482H193.994L198.166 26.5119H194.954L192.05 17.2633H191.954L189.056 26.5119ZM188.627 21.6461H195.341V23.916H188.627V21.6461ZM199.497 29.9891V17.2391H202.419V18.8269H202.509C202.63 18.5451 202.801 18.2735 203.023 18.0119C203.248 17.7503 203.534 17.537 203.88 17.372C204.23 17.2029 204.649 17.1184 205.135 17.1184C205.779 17.1184 206.381 17.2874 206.941 17.6255C207.504 17.9636 207.959 18.4848 208.305 19.1891C208.651 19.8934 208.824 20.7909 208.824 21.8815C208.824 22.932 208.657 23.8113 208.323 24.5197C207.993 25.228 207.546 25.7593 206.983 26.1134C206.423 26.4676 205.802 26.6447 205.117 26.6447C204.651 26.6447 204.246 26.5682 203.904 26.4153C203.562 26.2623 203.274 26.0611 203.041 25.8116C202.811 25.5621 202.634 25.2944 202.509 25.0087H202.449V29.9891H199.497ZM202.389 21.8755C202.389 22.3746 202.455 22.8092 202.588 23.1795C202.725 23.5497 202.92 23.8375 203.173 24.0428C203.431 24.244 203.739 24.3446 204.097 24.3446C204.459 24.3446 204.767 24.244 205.021 24.0428C205.274 23.8375 205.465 23.5497 205.594 23.1795C205.727 22.8092 205.794 22.3746 205.794 21.8755C205.794 21.3765 205.727 20.9438 205.594 20.5776C205.465 20.2113 205.274 19.9276 205.021 19.7264C204.771 19.5251 204.463 19.4245 204.097 19.4245C203.735 19.4245 203.427 19.5231 203.173 19.7203C202.92 19.9175 202.725 20.1992 202.588 20.5655C202.455 20.9317 202.389 21.3684 202.389 21.8755ZM210.371 29.9891V17.2391H213.293V18.8269H213.383C213.504 18.5451 213.675 18.2735 213.897 18.0119C214.122 17.7503 214.408 17.537 214.754 17.372C215.104 17.2029 215.523 17.1184 216.01 17.1184C216.653 17.1184 217.255 17.2874 217.815 17.6255C218.378 17.9636 218.833 18.4848 219.179 19.1891C219.525 19.8934 219.698 20.7909 219.698 21.8815C219.698 22.932 219.531 23.8113 219.197 24.5197C218.867 25.228 218.42 25.7593 217.857 26.1134C217.297 26.4676 216.676 26.6447 215.991 26.6447C215.525 26.6447 215.12 26.5682 214.778 26.4153C214.436 26.2623 214.148 26.0611 213.915 25.8116C213.685 25.5621 213.508 25.2944 213.383 25.0087H213.323V29.9891H210.371ZM213.263 21.8755C213.263 22.3746 213.329 22.8092 213.462 23.1795C213.599 23.5497 213.794 23.8375 214.047 24.0428C214.305 24.244 214.613 24.3446 214.971 24.3446C215.333 24.3446 215.641 24.244 215.895 24.0428C216.148 23.8375 216.34 23.5497 216.468 23.1795C216.601 22.8092 216.668 22.3746 216.668 21.8755C216.668 21.3765 216.601 20.9438 216.468 20.5776C216.34 20.2113 216.148 19.9276 215.895 19.7264C215.645 19.5251 215.337 19.4245 214.971 19.4245C214.609 19.4245 214.301 19.5231 214.047 19.7203C213.794 19.9175 213.599 20.1992 213.462 20.5655C213.329 20.9317 213.263 21.3684 213.263 21.8755ZM231.58 17.8549C231.54 17.4122 231.361 17.0681 231.043 16.8226C230.729 16.5731 230.28 16.4483 229.697 16.4483C229.31 16.4483 228.988 16.4986 228.731 16.5992C228.473 16.6998 228.28 16.8387 228.151 17.0158C228.022 17.1888 227.956 17.3881 227.952 17.6134C227.944 17.7986 227.98 17.9616 228.061 18.1024C228.145 18.2433 228.266 18.368 228.423 18.4767C228.584 18.5814 228.777 18.6739 229.002 18.7544C229.228 18.8349 229.481 18.9053 229.763 18.9657L230.826 19.2072C231.437 19.34 231.977 19.5171 232.444 19.7384C232.914 19.9598 233.309 20.2234 233.627 20.5293C233.949 20.8351 234.192 21.1873 234.357 21.5857C234.522 21.9842 234.607 22.4309 234.611 22.9259C234.607 23.7067 234.41 24.3768 234.019 24.9362C233.629 25.4956 233.067 25.9243 232.335 26.2221C231.606 26.5199 230.727 26.6688 229.697 26.6688C228.662 26.6688 227.761 26.5139 226.992 26.204C226.223 25.8941 225.626 25.4232 225.199 24.7913C224.773 24.1595 224.553 23.3606 224.541 22.3947H227.403C227.427 22.7931 227.533 23.1251 227.723 23.3908C227.912 23.6564 228.171 23.8576 228.501 23.9945C228.835 24.1313 229.222 24.1997 229.661 24.1997C230.063 24.1997 230.405 24.1454 230.687 24.0367C230.973 23.9281 231.192 23.7771 231.345 23.584C231.498 23.3908 231.576 23.1694 231.58 22.9199C231.576 22.6865 231.504 22.4872 231.363 22.3222C231.222 22.1532 231.005 22.0083 230.711 21.8876C230.421 21.7628 230.051 21.6481 229.6 21.5435L228.308 21.2416C227.238 20.9961 226.395 20.5997 225.779 20.0524C225.163 19.501 224.857 18.7564 224.861 17.8187C224.857 17.054 225.062 16.3839 225.477 15.8084C225.891 15.2329 226.465 14.7841 227.197 14.4622C227.93 14.1402 228.765 13.9792 229.703 13.9792C230.661 13.9792 231.492 14.1422 232.196 14.4682C232.904 14.7902 233.454 15.2429 233.844 15.8265C234.234 16.4101 234.434 17.0862 234.442 17.8549H231.58ZM241.354 17.2391V19.4124H235.504V17.2391H241.354ZM236.73 15.0176H239.682V23.596C239.682 23.7771 239.71 23.924 239.766 24.0367C239.827 24.1454 239.913 24.2239 240.026 24.2722C240.139 24.3164 240.273 24.3386 240.43 24.3386C240.543 24.3386 240.662 24.3285 240.787 24.3084C240.915 24.2842 241.012 24.2641 241.076 24.248L241.523 26.3791C241.382 26.4193 241.183 26.4696 240.925 26.53C240.672 26.5903 240.368 26.6286 240.014 26.6447C239.322 26.6769 238.728 26.5964 238.233 26.4032C237.742 26.206 237.366 25.9001 237.104 25.4856C236.846 25.0711 236.722 24.5499 236.73 23.922V15.0176ZM247.089 26.6869C246.115 26.6869 245.278 26.4877 244.578 26.0893C243.882 25.6868 243.344 25.1274 242.966 24.411C242.592 23.6906 242.404 22.8555 242.404 21.9057C242.404 20.9519 242.592 20.1167 242.966 19.4004C243.344 18.68 243.882 18.1205 244.578 17.7221C245.278 17.3196 246.115 17.1184 247.089 17.1184C248.063 17.1184 248.898 17.3196 249.594 17.7221C250.295 18.1205 250.832 18.68 251.206 19.4004C251.585 20.1167 251.774 20.9519 251.774 21.9057C251.774 22.8555 251.585 23.6906 251.206 24.411C250.832 25.1274 250.295 25.6868 249.594 26.0893C248.898 26.4877 248.063 26.6869 247.089 26.6869ZM247.107 24.4593C247.461 24.4593 247.761 24.3506 248.007 24.1333C248.252 23.916 248.439 23.6141 248.568 23.2278C248.701 22.8414 248.767 22.3947 248.767 21.8876C248.767 21.3724 248.701 20.9217 248.568 20.5353C248.439 20.1489 248.252 19.8471 248.007 19.6298C247.761 19.4124 247.461 19.3038 247.107 19.3038C246.741 19.3038 246.431 19.4124 246.178 19.6298C245.928 19.8471 245.737 20.1489 245.604 20.5353C245.475 20.9217 245.411 21.3724 245.411 21.8876C245.411 22.3947 245.475 22.8414 245.604 23.2278C245.737 23.6141 245.928 23.916 246.178 24.1333C246.431 24.3506 246.741 24.4593 247.107 24.4593ZM253.286 26.5119V17.2391H256.154V18.9295H256.25C256.419 18.3177 256.695 17.863 257.077 17.5651C257.46 17.2633 257.904 17.1124 258.411 17.1124C258.548 17.1124 258.689 17.1224 258.834 17.1426C258.979 17.1586 259.114 17.1848 259.238 17.221V19.7867C259.098 19.7384 258.912 19.7002 258.683 19.672C258.458 19.6439 258.256 19.6298 258.079 19.6298C257.729 19.6298 257.413 19.7082 257.132 19.8652C256.854 20.0181 256.635 20.2335 256.474 20.5112C256.317 20.7848 256.238 21.1068 256.238 21.4771V26.5119H253.286ZM264.294 26.6869C263.324 26.6869 262.487 26.4958 261.783 26.1134C261.083 25.7271 260.543 25.1777 260.165 24.4653C259.791 23.749 259.604 22.8978 259.604 21.9117C259.604 20.9539 259.793 20.1167 260.171 19.4004C260.549 18.68 261.083 18.1205 261.771 17.7221C262.459 17.3196 263.27 17.1184 264.204 17.1184C264.864 17.1184 265.468 17.221 266.015 17.4263C266.562 17.6315 267.035 17.9354 267.434 18.3379C267.832 18.7403 268.142 19.2374 268.363 19.829C268.585 20.4166 268.695 21.0907 268.695 21.8514V22.5879H260.636V20.8734H265.948C265.944 20.5595 265.87 20.2797 265.725 20.0342C265.58 19.7887 265.381 19.5976 265.127 19.4607C264.878 19.3199 264.59 19.2494 264.264 19.2494C263.934 19.2494 263.638 19.3239 263.377 19.4728C263.115 19.6177 262.908 19.8169 262.755 20.0705C262.602 20.32 262.522 20.6037 262.513 20.9217V22.6663C262.513 23.0447 262.588 23.3767 262.737 23.6624C262.886 23.9442 263.097 24.1635 263.371 24.3205C263.644 24.4774 263.97 24.5559 264.349 24.5559C264.61 24.5559 264.848 24.5197 265.061 24.4472C265.274 24.3748 265.457 24.2681 265.61 24.1273C265.763 23.9864 265.878 23.8134 265.955 23.6081L268.665 23.6866C268.552 24.2943 268.305 24.8235 267.923 25.2743C267.544 25.721 267.047 26.0692 266.431 26.3187C265.816 26.5642 265.103 26.6869 264.294 26.6869Z" fill="white"/>
</g>
</g>
<rect x="1.0707" y="1.0826" width="275.858" height="37.8585" rx="6.92857" stroke="white" stroke-opacity="0.15" stroke-width="2.14286"/>
<defs>
<filter id="filter0_d_28_2609" x="2.39899" y="-0.289123" width="39.202" height="39.902" filterUnits="userSpaceOnUse" color-interpolation-filters="sRGB">
<feFlood flood-opacity="0" result="BackgroundImageFix"/>
<feColorMatrix in="SourceAlpha" type="matrix" values="0 0 0 0 0 0 0 0 0 0 0 0 0 0 0 0 0 0 127 0" result="hardAlpha"/>
<feOffset/>
<feGaussianBlur stdDeviation="2.80014"/>
<feComposite in2="hardAlpha" operator="out"/>
<feColorMatrix type="matrix" values="0 0 0 0 0 0 0 0 0 0 0 0 0 0 0 0 0 0 0.25 0"/>
<feBlend mode="normal" in2="BackgroundImageFix" result="effect1_dropShadow_28_2609"/>
<feBlend mode="normal" in="SourceGraphic" in2="effect1_dropShadow_28_2609" result="shape"/>
</filter>
<filter id="filter1_d_28_2609" x="38.2864" y="3.79759" width="237.429" height="32.4286" filterUnits="userSpaceOnUse" color-interpolation-filters="sRGB">
<feFlood flood-opacity="0" result="BackgroundImageFix"/>
<feColorMatrix in="SourceAlpha" type="matrix" values="0 0 0 0 0 0 0 0 0 0 0 0 0 0 0 0 0 0 127 0" result="hardAlpha"/>
<feOffset/>
<feGaussianBlur stdDeviation="2.85714"/>
<feComposite in2="hardAlpha" operator="out"/>
<feColorMatrix type="matrix" values="0 0 0 0 0 0 0 0 0 0 0 0 0 0 0 0 0 0 0.25 0"/>
<feBlend mode="normal" in2="BackgroundImageFix" result="effect1_dropShadow_28_2609"/>
<feBlend mode="normal" in="SourceGraphic" in2="effect1_dropShadow_28_2609" result="shape"/>
</filter>
<linearGradient id="paint0_linear_28_2609" x1="139" y1="0.0111694" x2="139" y2="40.0126" gradientUnits="userSpaceOnUse">
<stop stop-color="#1E1E1E"/>
<stop offset="1" stop-color="#0D0D0D"/>
</linearGradient>
<clipPath id="clip0_28_2609">
<rect x="-0.000732422" y="0.0111694" width="278.001" height="40.0014" rx="8" fill="white"/>
</clipPath>
</defs>
</svg>
