<svg width="276" height="41" viewBox="0 0 276 41" fill="none" xmlns="http://www.w3.org/2000/svg">
<g clip-path="url(#clip0_28_2609)">
<rect x="-0.000732422" y="0.0111694" width="276.001" height="40.0014" rx="8" fill="url(#paint0_linear_28_2609)"/>
<g filter="url(#filter0_d_28_2609)">
<path d="M32.7658 14.8578C32.602 14.9838 29.7088 16.5996 29.7088 20.1926C29.7088 24.3484 33.3902 25.8186 33.5004 25.855C33.4835 25.9447 32.9156 27.8685 31.5594 29.8288C30.3502 31.5539 29.0872 33.2761 27.166 33.2761C25.2448 33.2761 24.7503 32.17 22.5324 32.17C20.371 32.17 19.6025 33.3126 17.8452 33.3126C16.0878 33.3126 14.8616 31.7163 13.4518 29.756C11.8187 27.4541 10.4993 23.8779 10.4993 20.4838C10.4993 15.0398 14.0705 12.1526 17.5852 12.1526C19.4528 12.1526 21.0096 13.368 22.1821 13.368C23.2981 13.368 25.0385 12.0798 27.1632 12.0798C27.9684 12.0798 30.8615 12.1526 32.7658 14.8578ZM26.1545 9.77503C27.0332 8.74167 27.6548 7.30786 27.6548 5.87404C27.6548 5.67521 27.6378 5.47358 27.6011 5.31116C26.1715 5.36437 24.4706 6.2549 23.445 7.43388C22.6398 8.34121 21.8882 9.77503 21.8882 11.2284C21.8882 11.4469 21.925 11.6653 21.9419 11.7353C22.0323 11.7521 22.1793 11.7717 22.3262 11.7717C23.6089 11.7717 25.2222 10.9204 26.1545 9.77503Z" fill="white"/>
</g>
<g filter="url(#filter1_d_28_2609)">
<path d="M44.4034 26.5119H42.4233L46.8725 14.1482H49.0277L53.4769 26.5119H51.4968L48.0014 16.394H47.9049L44.4034 26.5119ZM44.7355 21.6702H51.1588V23.2399H44.7355V21.6702ZM61.8879 17.2391L58.5253 26.5119H56.5935L53.2249 17.2391H55.1627L57.5111 24.3748H57.6077L59.95 17.2391H61.8879ZM66.0171 26.7171C65.4296 26.7171 64.8983 26.6085 64.4234 26.3911C63.9485 26.1698 63.5722 25.8498 63.2945 25.4313C63.0208 25.0127 62.884 24.4996 62.884 23.8918C62.884 23.3686 62.9846 22.938 63.1858 22.5999C63.3871 22.2619 63.6587 21.9942 64.0008 21.797C64.3429 21.5998 64.7252 21.4509 65.1478 21.3503C65.5704 21.2497 66.0011 21.1732 66.4397 21.1209C66.9951 21.0565 67.4459 21.0042 67.792 20.9639C68.1381 20.9197 68.3897 20.8492 68.5466 20.7526C68.7036 20.656 68.7821 20.4991 68.7821 20.2818V20.2395C68.7821 19.7123 68.6332 19.3038 68.3353 19.014C68.0415 18.7242 67.6028 18.5793 67.0193 18.5793C66.4116 18.5793 65.9326 18.7142 65.5825 18.9838C65.2364 19.2494 64.9969 19.5452 64.8641 19.8712L63.1677 19.4849C63.3689 18.9214 63.6627 18.4667 64.0491 18.1205C64.4395 17.7704 64.8882 17.5168 65.3953 17.3599C65.9024 17.1989 66.4357 17.1184 66.9951 17.1184C67.3654 17.1184 67.7578 17.1627 68.1723 17.2512C68.5909 17.3357 68.9813 17.4927 69.3435 17.7221C69.7097 17.9515 70.0096 18.2795 70.243 18.7061C70.4764 19.1287 70.5931 19.6781 70.5931 20.3542V26.5119H68.8304V25.2441H68.7579C68.6412 25.4775 68.4661 25.7069 68.2327 25.9323C67.9993 26.1577 67.6994 26.3448 67.3332 26.4938C66.967 26.6427 66.5283 26.7171 66.0171 26.7171ZM66.4095 25.2683C66.9086 25.2683 67.3352 25.1697 67.6894 24.9724C68.0476 24.7752 68.3192 24.5177 68.5044 24.1997C68.6935 23.8778 68.7881 23.5336 68.7881 23.1674V21.9721C68.7237 22.0365 68.5989 22.0969 68.4138 22.1532C68.2327 22.2055 68.0254 22.2518 67.792 22.2921C67.5586 22.3283 67.3312 22.3625 67.1098 22.3947C66.8885 22.4229 66.7033 22.447 66.5544 22.4671C66.2043 22.5114 65.8843 22.5858 65.5946 22.6905C65.3088 22.7951 65.0794 22.9461 64.9064 23.1433C64.7373 23.3364 64.6528 23.594 64.6528 23.916C64.6528 24.3627 64.8178 24.7008 65.1478 24.9302C65.4779 25.1556 65.8984 25.2683 66.4095 25.2683ZM72.9973 26.5119V17.2391H74.8024V26.5119H72.9973ZM73.9089 15.8084C73.595 15.8084 73.3254 15.7037 73.1 15.4945C72.8786 15.2812 72.7679 15.0276 72.7679 14.7338C72.7679 14.436 72.8786 14.1824 73.1 13.9732C73.3254 13.7599 73.595 13.6532 73.9089 13.6532C74.2228 13.6532 74.4905 13.7599 74.7118 13.9732C74.9372 14.1824 75.0499 14.436 75.0499 14.7338C75.0499 15.0276 74.9372 15.2812 74.7118 15.4945C74.4905 15.7037 74.2228 15.8084 73.9089 15.8084ZM79.0358 14.1482V26.5119H77.2307V14.1482H79.0358ZM84.1627 26.7171C83.5751 26.7171 83.0438 26.6085 82.5689 26.3911C82.094 26.1698 81.7177 25.8498 81.44 25.4313C81.1663 25.0127 81.0295 24.4996 81.0295 23.8918C81.0295 23.3686 81.1301 22.938 81.3313 22.5999C81.5326 22.2619 81.8042 21.9942 82.1463 21.797C82.4884 21.5998 82.8707 21.4509 83.2933 21.3503C83.7159 21.2497 84.1466 21.1732 84.5852 21.1209C85.1406 21.0565 85.5914 21.0042 85.9375 20.9639C86.2836 20.9197 86.5352 20.8492 86.6921 20.7526C86.8491 20.656 86.9276 20.4991 86.9276 20.2818V20.2395C86.9276 19.7123 86.7787 19.3038 86.4808 19.014C86.187 18.7242 85.7484 18.5793 85.1648 18.5793C84.5571 18.5793 84.0781 18.7142 83.728 18.9838C83.3819 19.2494 83.1424 19.5452 83.0096 19.8712L81.3132 19.4849C81.5145 18.9214 81.8082 18.4667 82.1946 18.1205C82.585 17.7704 83.0337 17.5168 83.5408 17.3599C84.048 17.1989 84.5812 17.1184 85.1406 17.1184C85.5109 17.1184 85.9033 17.1627 86.3178 17.2512C86.7364 17.3357 87.1268 17.4927 87.489 17.7221C87.8552 17.9515 88.1551 18.2795 88.3885 18.7061C88.6219 19.1287 88.7386 19.6781 88.7386 20.3542V26.5119H86.9759V25.2441H86.9034C86.7867 25.4775 86.6116 25.7069 86.3782 25.9323C86.1448 26.1577 85.8449 26.3448 85.4787 26.4938C85.1125 26.6427 84.6738 26.7171 84.1627 26.7171ZM84.5551 25.2683C85.0541 25.2683 85.4807 25.1697 85.8349 24.9724C86.1931 24.7752 86.4647 24.5177 86.6499 24.1997C86.839 23.8778 86.9336 23.5336 86.9336 23.1674V21.9721C86.8692 22.0365 86.7444 22.0969 86.5593 22.1532C86.3782 22.2055 86.1709 22.2518 85.9375 22.2921C85.7041 22.3283 85.4767 22.3625 85.2553 22.3947C85.034 22.4229 84.8488 22.447 84.6999 22.4671C84.3498 22.5114 84.0298 22.5858 83.7401 22.6905C83.4543 22.7951 83.2249 22.9461 83.0519 23.1433C82.8828 23.3364 82.7983 23.594 82.7983 23.916C82.7983 24.3627 82.9633 24.7008 83.2933 24.9302C83.6234 25.1556 84.0439 25.2683 84.5551 25.2683ZM91.2877 26.5119V14.1482H93.0928V18.7423H93.2014C93.3061 18.5492 93.457 18.3258 93.6542 18.0722C93.8514 17.8187 94.1251 17.5973 94.4752 17.4082C94.8254 17.215 95.2882 17.1184 95.8637 17.1184C96.6123 17.1184 97.2804 17.3076 97.868 17.6859C98.4556 18.0642 98.9164 18.6095 99.2504 19.3219C99.5885 20.0342 99.7576 20.8915 99.7576 21.8936C99.7576 22.8957 99.5905 23.755 99.2565 24.4714C98.9224 25.1837 98.4636 25.7331 97.8801 26.1195C97.2965 26.5018 96.6304 26.693 95.8818 26.693C95.3184 26.693 94.8576 26.5984 94.4994 26.4092C94.1452 26.2201 93.8675 25.9987 93.6663 25.7452C93.4651 25.4916 93.3101 25.2662 93.2014 25.069H93.0505V26.5119H91.2877ZM93.0566 21.8755C93.0566 22.5275 93.1511 23.099 93.3403 23.59C93.5295 24.081 93.8031 24.4653 94.1613 24.743C94.5195 25.0167 94.9582 25.1536 95.4774 25.1536C96.0167 25.1536 96.4674 25.0107 96.8296 24.7249C97.1919 24.4352 97.4655 24.0428 97.6507 23.5477C97.8398 23.0527 97.9344 22.4953 97.9344 21.8755C97.9344 21.2638 97.8418 20.7144 97.6567 20.2274C97.4756 19.7404 97.2019 19.3561 96.8357 19.0744C96.4735 18.7926 96.0207 18.6518 95.4774 18.6518C94.9542 18.6518 94.5115 18.7866 94.1492 19.0563C93.7911 19.3259 93.5194 19.7022 93.3343 20.1852C93.1491 20.6681 93.0566 21.2316 93.0566 21.8755ZM103.589 14.1482V26.5119H101.784V14.1482H103.589ZM110.014 26.699C109.101 26.699 108.314 26.5038 107.654 26.1134C106.998 25.719 106.491 25.1656 106.133 24.4533C105.778 23.7369 105.601 22.8978 105.601 21.9359C105.601 20.9861 105.778 20.1489 106.133 19.4245C106.491 18.7001 106.99 18.1346 107.63 17.7281C108.274 17.3216 109.026 17.1184 109.888 17.1184C110.411 17.1184 110.918 17.2049 111.409 17.378C111.9 17.551 112.341 17.8227 112.731 18.193C113.121 18.5632 113.429 19.0442 113.655 19.6358C113.88 20.2234 113.993 20.9378 113.993 21.7789V22.4188H106.622V21.0666H112.224C112.224 20.5917 112.127 20.1711 111.934 19.8048C111.741 19.4346 111.469 19.1428 111.119 18.9295C110.773 18.7162 110.366 18.6095 109.9 18.6095C109.392 18.6095 108.95 18.7343 108.571 18.9838C108.197 19.2293 107.907 19.5513 107.702 19.9497C107.501 20.3441 107.4 20.7728 107.4 21.2356V22.2921C107.4 22.9118 107.509 23.4391 107.726 23.8737C107.948 24.3084 108.256 24.6404 108.65 24.8698C109.044 25.0952 109.505 25.2079 110.032 25.2079C110.374 25.2079 110.686 25.1596 110.968 25.063C111.25 24.9624 111.493 24.8135 111.699 24.6163C111.904 24.4191 112.061 24.1756 112.169 23.8858L113.878 24.1937C113.741 24.6968 113.496 25.1375 113.141 25.5158C112.791 25.8901 112.351 26.1818 111.819 26.3911C111.292 26.5964 110.69 26.699 110.014 26.699ZM124.4 26.699C123.531 26.699 122.772 26.4998 122.124 26.1014C121.476 25.7029 120.973 25.1455 120.615 24.4291C120.257 23.7127 120.078 22.8756 120.078 21.9178C120.078 20.9559 120.257 20.1147 120.615 19.3943C120.973 18.6739 121.476 18.1145 122.124 17.7161C122.772 17.3176 123.531 17.1184 124.4 17.1184C125.27 17.1184 126.028 17.3176 126.676 17.7161C127.324 18.1145 127.827 18.6739 128.185 19.3943C128.544 20.1147 128.723 20.9559 128.723 21.9178C128.723 22.8756 128.544 23.7127 128.185 24.4291C127.827 25.1455 127.324 25.7029 126.676 26.1014C126.028 26.4998 125.27 26.699 124.4 26.699ZM124.406 25.1837C124.97 25.1837 125.437 25.0348 125.807 24.737C126.177 24.4392 126.451 24.0428 126.628 23.5477C126.809 23.0527 126.9 22.5074 126.9 21.9117C126.9 21.3201 126.809 20.7768 126.628 20.2818C126.451 19.7827 126.177 19.3823 125.807 19.0804C125.437 18.7786 124.97 18.6276 124.406 18.6276C123.839 18.6276 123.368 18.7786 122.994 19.0804C122.623 19.3823 122.348 19.7827 122.167 20.2818C121.99 20.7768 121.901 21.3201 121.901 21.9117C121.901 22.5074 121.99 23.0527 122.167 23.5477C122.348 24.0428 122.623 24.4392 122.994 24.737C123.368 25.0348 123.839 25.1837 124.406 25.1837ZM132.543 21.0062V26.5119H130.738V17.2391H132.47V18.7484H132.585C132.798 18.2574 133.132 17.863 133.587 17.5651C134.046 17.2673 134.623 17.1184 135.32 17.1184C135.951 17.1184 136.505 17.2512 136.98 17.5168C137.455 17.7784 137.823 18.1688 138.085 18.688C138.346 19.2072 138.477 19.8491 138.477 20.6138V26.5119H136.672V20.8311C136.672 20.159 136.497 19.6338 136.147 19.2555C135.797 18.8731 135.316 18.682 134.704 18.682C134.285 18.682 133.913 18.7725 133.587 18.9536C133.265 19.1347 133.009 19.4004 132.82 19.7505C132.635 20.0966 132.543 20.5152 132.543 21.0062Z" fill="#E8E8E8"/>
<path d="M144.936 14.1482H148.637L151.776 21.8031H151.921L155.06 14.1482H158.761V26.5119H155.851V18.9174H155.749L152.778 26.4334H150.919L147.949 18.8751H147.846V26.5119H144.936V14.1482ZM163.239 26.6688C162.647 26.6688 162.122 26.5702 161.663 26.373C161.208 26.1718 160.848 25.8699 160.583 25.4675C160.321 25.061 160.19 24.5519 160.19 23.9401C160.19 23.425 160.281 22.9903 160.462 22.6362C160.643 22.282 160.893 21.9942 161.211 21.7729C161.528 21.5515 161.895 21.3845 162.309 21.2718C162.724 21.1551 163.166 21.0766 163.637 21.0364C164.165 20.9881 164.589 20.9378 164.911 20.8854C165.233 20.8291 165.467 20.7506 165.611 20.65C165.76 20.5454 165.835 20.3985 165.835 20.2093V20.1791C165.835 19.8692 165.728 19.6298 165.515 19.4607C165.302 19.2917 165.014 19.2072 164.652 19.2072C164.261 19.2072 163.947 19.2917 163.71 19.4607C163.472 19.6298 163.321 19.8632 163.257 20.161L160.534 20.0644C160.615 19.501 160.822 18.9979 161.156 18.5552C161.494 18.1085 161.957 17.7583 162.545 17.5048C163.136 17.2472 163.847 17.1184 164.676 17.1184C165.267 17.1184 165.813 17.1888 166.312 17.3297C166.811 17.4665 167.245 17.6678 167.616 17.9334C167.986 18.195 168.272 18.517 168.473 18.8993C168.678 19.2816 168.781 19.7183 168.781 20.2093V26.5119H166.004V25.22H165.931C165.766 25.5339 165.555 25.7995 165.298 26.0168C165.044 26.2342 164.744 26.3972 164.398 26.5058C164.056 26.6145 163.67 26.6688 163.239 26.6688ZM164.15 24.737C164.468 24.737 164.754 24.6726 165.008 24.5438C165.265 24.415 165.471 24.238 165.624 24.0126C165.776 23.7832 165.853 23.5175 165.853 23.2157V22.3343C165.768 22.3786 165.666 22.4188 165.545 22.455C165.428 22.4913 165.3 22.5255 165.159 22.5577C165.018 22.5899 164.873 22.618 164.724 22.6422C164.575 22.6663 164.432 22.6885 164.295 22.7086C164.018 22.7529 163.78 22.8213 163.583 22.9139C163.39 23.0064 163.241 23.1272 163.136 23.2761C163.036 23.421 162.985 23.594 162.985 23.7952C162.985 24.1011 163.094 24.3345 163.311 24.4955C163.533 24.6565 163.812 24.737 164.15 24.737ZM174.914 26.6869C173.936 26.6869 173.097 26.4857 172.397 26.0832C171.701 25.6808 171.165 25.1214 170.791 24.405C170.417 23.6846 170.23 22.8515 170.23 21.9057C170.23 20.9559 170.417 20.1228 170.791 19.4064C171.169 18.686 171.707 18.1246 172.403 17.7221C173.103 17.3196 173.938 17.1184 174.908 17.1184C175.766 17.1184 176.512 17.2734 177.148 17.5832C177.788 17.8931 178.287 18.3318 178.645 18.8993C179.007 19.4627 179.199 20.1248 179.219 20.8854H176.46C176.403 20.4105 176.242 20.0383 175.977 19.7686C175.715 19.499 175.373 19.3641 174.951 19.3641C174.608 19.3641 174.309 19.4607 174.051 19.6539C173.793 19.8431 173.592 20.1248 173.447 20.4991C173.307 20.8693 173.236 21.3282 173.236 21.8755C173.236 22.4229 173.307 22.8857 173.447 23.264C173.592 23.6383 173.793 23.922 174.051 24.1152C174.309 24.3044 174.608 24.3989 174.951 24.3989C175.224 24.3989 175.466 24.3406 175.675 24.2239C175.888 24.1072 176.063 23.9361 176.2 23.7107C176.337 23.4813 176.424 23.2036 176.46 22.8776H179.219C179.191 23.6423 178.999 24.3104 178.645 24.8819C178.295 25.4534 177.802 25.8981 177.166 26.2161C176.534 26.53 175.784 26.6869 174.914 26.6869ZM187.056 26.5119H183.844L188.016 14.1482H191.994L196.166 26.5119H192.954L190.05 17.2633H189.954L187.056 26.5119ZM186.627 21.6461H193.341V23.916H186.627V21.6461ZM197.497 29.9891V17.2391H200.419V18.8269H200.509C200.63 18.5451 200.801 18.2735 201.023 18.0119C201.248 17.7503 201.534 17.537 201.88 17.372C202.23 17.2029 202.649 17.1184 203.135 17.1184C203.779 17.1184 204.381 17.2874 204.941 17.6255C205.504 17.9636 205.959 18.4848 206.305 19.1891C206.651 19.8934 206.824 20.7909 206.824 21.8815C206.824 22.932 206.657 23.8113 206.323 24.5197C205.993 25.228 205.546 25.7593 204.983 26.1134C204.423 26.4676 203.802 26.6447 203.117 26.6447C202.651 26.6447 202.246 26.5682 201.904 26.4153C201.562 26.2623 201.274 26.0611 201.041 25.8116C200.811 25.5621 200.634 25.2944 200.509 25.0087H200.449V29.9891H197.497ZM200.389 21.8755C200.389 22.3746 200.455 22.8092 200.588 23.1795C200.725 23.5497 200.92 23.8375 201.173 24.0428C201.431 24.244 201.739 24.3446 202.097 24.3446C202.459 24.3446 202.767 24.244 203.021 24.0428C203.274 23.8375 203.465 23.5497 203.594 23.1795C203.727 22.8092 203.794 22.3746 203.794 21.8755C203.794 21.3765 203.727 20.9438 203.594 20.5776C203.465 20.2113 203.274 19.9276 203.021 19.7264C202.771 19.5251 202.463 19.4245 202.097 19.4245C201.735 19.4245 201.427 19.5231 201.173 19.7203C200.92 19.9175 200.725 20.1992 200.588 20.5655C200.455 20.9317 200.389 21.3684 200.389 21.8755ZM208.371 29.9891V17.2391H211.293V18.8269H211.383C211.504 18.5451 211.675 18.2735 211.897 18.0119C212.122 17.7503 212.408 17.537 212.754 17.372C213.104 17.2029 213.523 17.1184 214.01 17.1184C214.653 17.1184 215.255 17.2874 215.815 17.6255C216.378 17.9636 216.833 18.4848 217.179 19.1891C217.525 19.8934 217.698 20.7909 217.698 21.8815C217.698 22.932 217.531 23.8113 217.197 24.5197C216.867 25.228 216.42 25.7593 215.857 26.1134C215.297 26.4676 214.676 26.6447 213.991 26.6447C213.525 26.6447 213.12 26.5682 212.778 26.4153C212.436 26.2623 212.148 26.0611 211.915 25.8116C211.685 25.5621 211.508 25.2944 211.383 25.0087H211.323V29.9891H208.371ZM211.263 21.8755C211.263 22.3746 211.329 22.8092 211.462 23.1795C211.599 23.5497 211.794 23.8375 212.047 24.0428C212.305 24.244 212.613 24.3446 212.971 24.3446C213.333 24.3446 213.641 24.244 213.895 24.0428C214.148 23.8375 214.34 23.5497 214.468 23.1795C214.601 22.8092 214.668 22.3746 214.668 21.8755C214.668 21.3765 214.601 20.9438 214.468 20.5776C214.34 20.2113 214.148 19.9276 213.895 19.7264C213.645 19.5251 213.337 19.4245 212.971 19.4245C212.609 19.4245 212.301 19.5231 212.047 19.7203C211.794 19.9175 211.599 20.1992 211.462 20.5655C211.329 20.9317 211.263 21.3684 211.263 21.8755ZM229.58 17.8549C229.54 17.4122 229.361 17.0681 229.043 16.8226C228.729 16.5731 228.28 16.4483 227.697 16.4483C227.31 16.4483 226.988 16.4986 226.731 16.5992C226.473 16.6998 226.28 16.8387 226.151 17.0158C226.022 17.1888 225.956 17.3881 225.952 17.6134C225.944 17.7986 225.98 17.9616 226.061 18.1024C226.145 18.2433 226.266 18.368 226.423 18.4767C226.584 18.5814 226.777 18.6739 227.002 18.7544C227.228 18.8349 227.481 18.9053 227.763 18.9657L228.826 19.2072C229.437 19.34 229.977 19.5171 230.444 19.7384C230.914 19.9598 231.309 20.2234 231.627 20.5293C231.949 20.8351 232.192 21.1873 232.357 21.5857C232.522 21.9842 232.607 22.4309 232.611 22.9259C232.607 23.7067 232.41 24.3768 232.019 24.9362C231.629 25.4956 231.067 25.9243 230.335 26.2221C229.606 26.5199 228.727 26.6688 227.697 26.6688C226.662 26.6688 225.761 26.5139 224.992 26.204C224.223 25.8941 223.626 25.4232 223.199 24.7913C222.773 24.1595 222.553 23.3606 222.541 22.3947H225.403C225.427 22.7931 225.533 23.1251 225.723 23.3908C225.912 23.6564 226.171 23.8576 226.501 23.9945C226.835 24.1313 227.222 24.1997 227.661 24.1997C228.063 24.1997 228.405 24.1454 228.687 24.0367C228.973 23.9281 229.192 23.7771 229.345 23.584C229.498 23.3908 229.576 23.1694 229.58 22.9199C229.576 22.6865 229.504 22.4872 229.363 22.3222C229.222 22.1532 229.005 22.0083 228.711 21.8876C228.421 21.7628 228.051 21.6481 227.6 21.5435L226.308 21.2416C225.238 20.9961 224.395 20.5997 223.779 20.0524C223.163 19.501 222.857 18.7564 222.861 17.8187C222.857 17.054 223.062 16.3839 223.477 15.8084C223.891 15.2329 224.465 14.7841 225.197 14.4622C225.93 14.1402 226.765 13.9792 227.703 13.9792C228.661 13.9792 229.492 14.1422 230.196 14.4682C230.904 14.7902 231.454 15.2429 231.844 15.8265C232.234 16.4101 232.434 17.0862 232.442 17.8549H229.58ZM239.354 17.2391V19.4124H233.504V17.2391H239.354ZM234.73 15.0176H237.682V23.596C237.682 23.7771 237.71 23.924 237.766 24.0367C237.827 24.1454 237.913 24.2239 238.026 24.2722C238.139 24.3164 238.273 24.3386 238.43 24.3386C238.543 24.3386 238.662 24.3285 238.787 24.3084C238.915 24.2842 239.012 24.2641 239.076 24.248L239.523 26.3791C239.382 26.4193 239.183 26.4696 238.925 26.53C238.672 26.5903 238.368 26.6286 238.014 26.6447C237.322 26.6769 236.728 26.5964 236.233 26.4032C235.742 26.206 235.366 25.9001 235.104 25.4856C234.846 25.0711 234.722 24.5499 234.73 23.922V15.0176ZM245.089 26.6869C244.115 26.6869 243.278 26.4877 242.578 26.0893C241.882 25.6868 241.344 25.1274 240.966 24.411C240.592 23.6906 240.404 22.8555 240.404 21.9057C240.404 20.9519 240.592 20.1167 240.966 19.4004C241.344 18.68 241.882 18.1205 242.578 17.7221C243.278 17.3196 244.115 17.1184 245.089 17.1184C246.063 17.1184 246.898 17.3196 247.594 17.7221C248.295 18.1205 248.832 18.68 249.206 19.4004C249.585 20.1167 249.774 20.9519 249.774 21.9057C249.774 22.8555 249.585 23.6906 249.206 24.411C248.832 25.1274 248.295 25.6868 247.594 26.0893C246.898 26.4877 246.063 26.6869 245.089 26.6869ZM245.107 24.4593C245.461 24.4593 245.761 24.3506 246.007 24.1333C246.252 23.916 246.439 23.6141 246.568 23.2278C246.701 22.8414 246.767 22.3947 246.767 21.8876C246.767 21.3724 246.701 20.9217 246.568 20.5353C246.439 20.1489 246.252 19.8471 246.007 19.6298C245.761 19.4124 245.461 19.3038 245.107 19.3038C244.741 19.3038 244.431 19.4124 244.178 19.6298C243.928 19.8471 243.737 20.1489 243.604 20.5353C243.475 20.9217 243.411 21.3724 243.411 21.8876C243.411 22.3947 243.475 22.8414 243.604 23.2278C243.737 23.6141 243.928 23.916 244.178 24.1333C244.431 24.3506 244.741 24.4593 245.107 24.4593ZM251.286 26.5119V17.2391H254.154V18.9295H254.25C254.419 18.3177 254.695 17.863 255.077 17.5651C255.46 17.2633 255.904 17.1124 256.411 17.1124C256.548 17.1124 256.689 17.1224 256.834 17.1426C256.979 17.1586 257.114 17.1848 257.238 17.221V19.7867C257.098 19.7384 256.912 19.7002 256.683 19.672C256.458 19.6439 256.256 19.6298 256.079 19.6298C255.729 19.6298 255.413 19.7082 255.132 19.8652C254.854 20.0181 254.635 20.2335 254.474 20.5112C254.317 20.7848 254.238 21.1068 254.238 21.4771V26.5119H251.286ZM262.294 26.6869C261.324 26.6869 260.487 26.4958 259.783 26.1134C259.083 25.7271 258.543 25.1777 258.165 24.4653C257.791 23.749 257.604 22.8978 257.604 21.9117C257.604 20.9539 257.793 20.1167 258.171 19.4004C258.549 18.68 259.083 18.1205 259.771 17.7221C260.459 17.3196 261.27 17.1184 262.204 17.1184C262.864 17.1184 263.468 17.221 264.015 17.4263C264.562 17.6315 265.035 17.9354 265.434 18.3379C265.832 18.7403 266.142 19.2374 266.363 19.829C266.585 20.4166 266.695 21.0907 266.695 21.8514V22.5879H258.636V20.8734H263.948C263.944 20.5595 263.87 20.2797 263.725 20.0342C263.58 19.7887 263.381 19.5976 263.127 19.4607C262.878 19.3199 262.59 19.2494 262.264 19.2494C261.934 19.2494 261.638 19.3239 261.377 19.4728C261.115 19.6177 260.908 19.8169 260.755 20.0705C260.602 20.32 260.522 20.6037 260.513 20.9217V22.6663C260.513 23.0447 260.588 23.3767 260.737 23.6624C260.886 23.9442 261.097 24.1635 261.371 24.3205C261.644 24.4774 261.97 24.5559 262.349 24.5559C262.61 24.5559 262.848 24.5197 263.061 24.4472C263.274 24.3748 263.457 24.2681 263.61 24.1273C263.763 23.9864 263.878 23.8134 263.955 23.6081L266.665 23.6866C266.552 24.2943 266.305 24.8235 265.923 25.2743C265.544 25.721 265.047 26.0692 264.431 26.3187C263.816 26.5642 263.103 26.6869 262.294 26.6869Z" fill="white"/>
</g>
</g>
<rect x="1.0707" y="1.0826" width="273.858" height="37.8585" rx="6.92857" stroke="white" stroke-opacity="0.15" stroke-width="2.14286"/>
<defs>
<filter id="filter0_d_28_2609" x="2.39899" y="-0.289123" width="39.202" height="39.902" filterUnits="userSpaceOnUse" color-interpolation-filters="sRGB">
<feFlood flood-opacity="0" result="BackgroundImageFix"/>
<feColorMatrix in="SourceAlpha" type="matrix" values="0 0 0 0 0 0 0 0 0 0 0 0 0 0 0 0 0 0 127 0" result="hardAlpha"/>
<feOffset/>
<feGaussianBlur stdDeviation="2.80014"/>
<feComposite in2="hardAlpha" operator="out"/>
<feColorMatrix type="matrix" values="0 0 0 0 0 0 0 0 0 0 0 0 0 0 0 0 0 0 0.25 0"/>
<feBlend mode="normal" in2="BackgroundImageFix" result="effect1_dropShadow_28_2609"/>
<feBlend mode="normal" in="SourceGraphic" in2="effect1_dropShadow_28_2609" result="shape"/>
</filter>
<filter id="filter1_d_28_2609" x="36.2864" y="3.79759" width="237.429" height="32.4286" filterUnits="userSpaceOnUse" color-interpolation-filters="sRGB">
<feFlood flood-opacity="0" result="BackgroundImageFix"/>
<feColorMatrix in="SourceAlpha" type="matrix" values="0 0 0 0 0 0 0 0 0 0 0 0 0 0 0 0 0 0 127 0" result="hardAlpha"/>
<feOffset/>
<feGaussianBlur stdDeviation="2.85714"/>
<feComposite in2="hardAlpha" operator="out"/>
<feColorMatrix type="matrix" values="0 0 0 0 0 0 0 0 0 0 0 0 0 0 0 0 0 0 0.25 0"/>
<feBlend mode="normal" in2="BackgroundImageFix" result="effect1_dropShadow_28_2609"/>
<feBlend mode="normal" in="SourceGraphic" in2="effect1_dropShadow_28_2609" result="shape"/>
</filter>
<linearGradient id="paint0_linear_28_2609" x1="138" y1="0.0111694" x2="138" y2="40.0126" gradientUnits="userSpaceOnUse">
<stop stop-color="#1E1E1E"/>
<stop offset="1" stop-color="#0D0D0D"/>
</linearGradient>
<clipPath id="clip0_28_2609">
<rect x="-0.000732422" y="0.0111694" width="276.001" height="40.0014" rx="8" fill="white"/>
</clipPath>
</defs>
</svg>
