<svg width="193" height="28" viewBox="0 0 193 28" fill="none" xmlns="http://www.w3.org/2000/svg">
<g clip-path="url(#clip0_28_2609)">
<rect x="0.499268" y="-1.52588e-05" width="192.5" height="28" rx="6" fill="url(#paint0_linear_28_2609)"/>
<g filter="url(#filter0_d_28_2609)">
<path d="M24.1888 10.8187C24.0718 10.9087 22.0053 12.0628 22.0053 14.629C22.0053 17.5973 24.6348 18.6474 24.7135 18.6735C24.7014 18.7375 24.2958 20.1116 23.3271 21.5117C22.4634 22.7439 21.5614 23.974 20.1891 23.974C18.8169 23.974 18.4637 23.1839 16.8796 23.1839C15.3358 23.1839 14.7869 24 13.5317 24C12.2765 24 11.4007 22.8599 10.3937 21.4597C9.22732 19.8156 8.28491 17.2613 8.28491 14.8371C8.28491 10.9487 10.8357 8.88647 13.3461 8.88647C14.68 8.88647 15.7919 9.75456 16.6294 9.75456C17.4265 9.75456 18.6696 8.83447 20.1871 8.83447C20.7622 8.83447 22.8287 8.88647 24.1888 10.8187V10.8187ZM19.4667 7.1883C20.0943 6.45023 20.5382 5.42613 20.5382 4.40202C20.5382 4.26001 20.5261 4.116 20.4999 3.99998C19.4788 4.03799 18.2639 4.67405 17.5314 5.51614C16.9563 6.1642 16.4195 7.1883 16.4195 8.22641C16.4195 8.38242 16.4457 8.53844 16.4578 8.58844C16.5224 8.60044 16.6273 8.61445 16.7323 8.61445C17.6485 8.61445 18.8007 8.00639 19.4667 7.1883Z" fill="white"/>
</g>
<g filter="url(#filter1_d_28_2609)">
<path d="M34.054 18.5H32.7727L35.6516 10.5H37.0461L39.925 18.5H38.6438L36.3821 11.9531H36.3196L34.054 18.5ZM34.2688 15.3672H38.425V16.3828H34.2688V15.3672ZM45.3674 12.5L43.1916 18.5H41.9416L39.762 12.5H41.0159L42.5354 17.1172H42.5979L44.1135 12.5H45.3674ZM48.0393 18.6328C47.6591 18.6328 47.3153 18.5625 47.0081 18.4219C46.7008 18.2786 46.4573 18.0716 46.2776 17.8008C46.1005 17.5299 46.012 17.1979 46.012 16.8047C46.012 16.4661 46.0771 16.1875 46.2073 15.9687C46.3375 15.75 46.5133 15.5768 46.7346 15.4492C46.956 15.3216 47.2034 15.2252 47.4768 15.1601C47.7502 15.095 48.0289 15.0456 48.3127 15.0117C48.6721 14.97 48.9638 14.9362 49.1877 14.9101C49.4117 14.8815 49.5745 14.8359 49.676 14.7734C49.7776 14.7109 49.8284 14.6094 49.8284 14.4687V14.4414C49.8284 14.1002 49.732 13.8359 49.5393 13.6484C49.3492 13.4609 49.0653 13.3672 48.6877 13.3672C48.2945 13.3672 47.9846 13.4544 47.7581 13.6289C47.5341 13.8008 47.3791 13.9922 47.2932 14.2031L46.1956 13.9531C46.3258 13.5885 46.5159 13.2943 46.7659 13.0703C47.0185 12.8437 47.3088 12.6797 47.637 12.5781C47.9651 12.4739 48.3101 12.4219 48.6721 12.4219C48.9117 12.4219 49.1656 12.4505 49.4338 12.5078C49.7047 12.5625 49.9573 12.664 50.1916 12.8125C50.4286 12.9609 50.6226 13.1732 50.7737 13.4492C50.9247 13.7226 51.0002 14.0781 51.0002 14.5156V18.5H49.8596V17.6797H49.8127C49.7372 17.8307 49.6239 17.9791 49.4729 18.125C49.3219 18.2708 49.1278 18.3919 48.8909 18.4883C48.6539 18.5846 48.37 18.6328 48.0393 18.6328ZM48.2932 17.6953C48.6161 17.6953 48.8922 17.6315 49.1213 17.5039C49.3531 17.3763 49.5289 17.2096 49.6487 17.0039C49.7711 16.7956 49.8323 16.5729 49.8323 16.3359V15.5625C49.7906 15.6041 49.7099 15.6432 49.5901 15.6797C49.4729 15.7135 49.3388 15.7435 49.1877 15.7695C49.0367 15.793 48.8896 15.8151 48.7463 15.8359C48.6031 15.8541 48.4833 15.8698 48.387 15.8828C48.1604 15.9114 47.9534 15.9596 47.7659 16.0273C47.581 16.095 47.4325 16.1927 47.3206 16.3203C47.2112 16.4453 47.1565 16.612 47.1565 16.8203C47.1565 17.1094 47.2633 17.3281 47.4768 17.4765C47.6903 17.6224 47.9625 17.6953 48.2932 17.6953ZM52.5559 18.5V12.5H53.7239V18.5H52.5559ZM53.1457 11.5742C52.9426 11.5742 52.7681 11.5065 52.6223 11.3711C52.4791 11.2331 52.4075 11.069 52.4075 10.8789C52.4075 10.6862 52.4791 10.5221 52.6223 10.3867C52.7681 10.2487 52.9426 10.1797 53.1457 10.1797C53.3489 10.1797 53.522 10.2487 53.6653 10.3867C53.8111 10.5221 53.884 10.6862 53.884 10.8789C53.884 11.069 53.8111 11.2331 53.6653 11.3711C53.522 11.5065 53.3489 11.5742 53.1457 11.5742ZM56.4631 10.5V18.5H55.2952V10.5H56.4631ZM59.7805 18.6328C59.4003 18.6328 59.0566 18.5625 58.7493 18.4219C58.442 18.2786 58.1985 18.0716 58.0188 17.8008C57.8417 17.5299 57.7532 17.1979 57.7532 16.8047C57.7532 16.4661 57.8183 16.1875 57.9485 15.9687C58.0787 15.75 58.2545 15.5768 58.4758 15.4492C58.6972 15.3216 58.9446 15.2252 59.218 15.1601C59.4914 15.095 59.7701 15.0456 60.0539 15.0117C60.4133 14.97 60.705 14.9362 60.9289 14.9101C61.1529 14.8815 61.3157 14.8359 61.4172 14.7734C61.5188 14.7109 61.5696 14.6094 61.5696 14.4687V14.4414C61.5696 14.1002 61.4732 13.8359 61.2805 13.6484C61.0904 13.4609 60.8066 13.3672 60.4289 13.3672C60.0357 13.3672 59.7258 13.4544 59.4993 13.6289C59.2753 13.8008 59.1204 13.9922 59.0344 14.2031L57.9368 13.9531C58.067 13.5885 58.2571 13.2943 58.5071 13.0703C58.7597 12.8437 59.05 12.6797 59.3782 12.5781C59.7063 12.4739 60.0513 12.4219 60.4133 12.4219C60.6529 12.4219 60.9068 12.4505 61.175 12.5078C61.4459 12.5625 61.6985 12.664 61.9329 12.8125C62.1698 12.9609 62.3638 13.1732 62.5149 13.4492C62.6659 13.7226 62.7414 14.0781 62.7414 14.5156V18.5H61.6008V17.6797H61.5539C61.4784 17.8307 61.3651 17.9791 61.2141 18.125C61.0631 18.2708 60.8691 18.3919 60.6321 18.4883C60.3951 18.5846 60.1112 18.6328 59.7805 18.6328ZM60.0344 17.6953C60.3573 17.6953 60.6334 17.6315 60.8625 17.5039C61.0943 17.3763 61.2701 17.2096 61.3899 17.0039C61.5123 16.7956 61.5735 16.5729 61.5735 16.3359V15.5625C61.5318 15.6041 61.4511 15.6432 61.3313 15.6797C61.2141 15.7135 61.08 15.7435 60.9289 15.7695C60.7779 15.793 60.6308 15.8151 60.4875 15.8359C60.3443 15.8541 60.2245 15.8698 60.1282 15.8828C59.9016 15.9114 59.6946 15.9596 59.5071 16.0273C59.3222 16.095 59.1737 16.1927 59.0618 16.3203C58.9524 16.4453 58.8977 16.612 58.8977 16.8203C58.8977 17.1094 59.0045 17.3281 59.218 17.4765C59.4316 17.6224 59.7037 17.6953 60.0344 17.6953ZM64.3909 18.5V10.5H65.5588V13.4726H65.6291C65.6968 13.3476 65.7945 13.2031 65.9221 13.039C66.0497 12.875 66.2268 12.7318 66.4534 12.6094C66.6799 12.4844 66.9794 12.4219 67.3518 12.4219C67.8362 12.4219 68.2685 12.5443 68.6487 12.789C69.0289 13.0338 69.3271 13.3867 69.5432 13.8476C69.762 14.3086 69.8713 14.8633 69.8713 15.5117C69.8713 16.1601 69.7633 16.7161 69.5471 17.1797C69.331 17.6406 69.0341 17.9961 68.6565 18.2461C68.2789 18.4935 67.8479 18.6172 67.3635 18.6172C66.9989 18.6172 66.7008 18.556 66.469 18.4336C66.2398 18.3112 66.0601 18.168 65.9299 18.0039C65.7997 17.8398 65.6995 17.694 65.6291 17.5664H65.5315V18.5H64.3909ZM65.5354 15.5C65.5354 15.9219 65.5966 16.2916 65.719 16.6094C65.8414 16.9271 66.0185 17.1758 66.2502 17.3555C66.482 17.5325 66.7659 17.6211 67.1018 17.6211C67.4508 17.6211 67.7424 17.5286 67.9768 17.3437C68.2112 17.1562 68.3883 16.9023 68.508 16.582C68.6304 16.2617 68.6916 15.901 68.6916 15.5C68.6916 15.1041 68.6317 14.7487 68.512 14.4336C68.3948 14.1185 68.2177 13.8698 67.9807 13.6875C67.7463 13.5052 67.4534 13.414 67.1018 13.414C66.7633 13.414 66.4768 13.5013 66.2424 13.6758C66.0107 13.8502 65.8349 14.0937 65.7151 14.4062C65.5953 14.7187 65.5354 15.0833 65.5354 15.5ZM72.3508 10.5V18.5H71.1828V10.5H72.3508ZM76.508 18.6211C75.9169 18.6211 75.4078 18.4948 74.9807 18.2422C74.5562 17.987 74.2281 17.6289 73.9963 17.168C73.7672 16.7044 73.6526 16.1614 73.6526 15.539C73.6526 14.9245 73.7672 14.3828 73.9963 13.914C74.2281 13.4453 74.551 13.0794 74.9651 12.8164C75.3817 12.5534 75.8687 12.4219 76.426 12.4219C76.7646 12.4219 77.0927 12.4778 77.4104 12.5898C77.7281 12.7018 78.0133 12.8776 78.2659 13.1172C78.5185 13.3568 78.7177 13.668 78.8635 14.0508C79.0093 14.431 79.0823 14.8932 79.0823 15.4375V15.8515H74.3127V14.9765H77.9377C77.9377 14.6693 77.8752 14.3971 77.7502 14.1601C77.6252 13.9206 77.4494 13.7318 77.2229 13.5937C76.9989 13.4557 76.7359 13.3867 76.4338 13.3867C76.1057 13.3867 75.8192 13.4674 75.5745 13.6289C75.3323 13.7877 75.1448 13.9961 75.012 14.2539C74.8817 14.5091 74.8166 14.7864 74.8166 15.0859V15.7695C74.8166 16.1706 74.887 16.5117 75.0276 16.793C75.1708 17.0742 75.37 17.289 75.6252 17.4375C75.8804 17.5833 76.1786 17.6562 76.5198 17.6562C76.7411 17.6562 76.9429 17.625 77.1252 17.5625C77.3075 17.4974 77.4651 17.401 77.5979 17.2734C77.7307 17.1458 77.8323 16.9883 77.9026 16.8008L79.008 17C78.9195 17.3255 78.7606 17.6107 78.5315 17.8555C78.3049 18.0976 78.0198 18.2864 77.676 18.4219C77.3349 18.5547 76.9455 18.6211 76.508 18.6211ZM85.8166 18.6211C85.2541 18.6211 84.7632 18.4922 84.344 18.2344C83.9247 17.9765 83.5992 17.6159 83.3674 17.1523C83.1356 16.6888 83.0198 16.1471 83.0198 15.5273C83.0198 14.9049 83.1356 14.3607 83.3674 13.8945C83.5992 13.4284 83.9247 13.0664 84.344 12.8086C84.7632 12.5508 85.2541 12.4219 85.8166 12.4219C86.3791 12.4219 86.87 12.5508 87.2893 12.8086C87.7086 13.0664 88.0341 13.4284 88.2659 13.8945C88.4976 14.3607 88.6135 14.9049 88.6135 15.5273C88.6135 16.1471 88.4976 16.6888 88.2659 17.1523C88.0341 17.6159 87.7086 17.9765 87.2893 18.2344C86.87 18.4922 86.3791 18.6211 85.8166 18.6211ZM85.8205 17.6406C86.1851 17.6406 86.4872 17.5443 86.7268 17.3515C86.9664 17.1588 87.1435 16.9023 87.258 16.582C87.3752 16.2617 87.4338 15.9088 87.4338 15.5234C87.4338 15.1406 87.3752 14.789 87.258 14.4687C87.1435 14.1458 86.9664 13.8867 86.7268 13.6914C86.4872 13.4961 86.1851 13.3984 85.8205 13.3984C85.4534 13.3984 85.1487 13.4961 84.9065 13.6914C84.6669 13.8867 84.4885 14.1458 84.3713 14.4687C84.2567 14.789 84.1994 15.1406 84.1994 15.5234C84.1994 15.9088 84.2567 16.2617 84.3713 16.582C84.4885 16.9023 84.6669 17.1588 84.9065 17.3515C85.1487 17.5443 85.4534 17.6406 85.8205 17.6406ZM91.0852 14.9375V18.5H89.9172V12.5H91.0383V13.4765H91.1125C91.2506 13.1588 91.4667 12.9036 91.761 12.7109C92.0578 12.5182 92.4315 12.4219 92.8821 12.4219C93.2909 12.4219 93.649 12.5078 93.9563 12.6797C94.2636 12.8489 94.5019 13.1015 94.6711 13.4375C94.8404 13.7734 94.925 14.1888 94.925 14.6836V18.5H93.7571V14.8242C93.7571 14.3893 93.6438 14.0495 93.4172 13.8047C93.1907 13.5573 92.8795 13.4336 92.4836 13.4336C92.2128 13.4336 91.9719 13.4922 91.761 13.6094C91.5526 13.7265 91.3873 13.8984 91.2649 14.125C91.1451 14.3489 91.0852 14.6198 91.0852 14.9375Z" fill="#E8E8E8"/>
<path d="M99.6598 9.77271H102.272L104.488 15.1761H104.59L106.806 9.77271H109.418V18.5H107.364V13.1392H107.292L105.195 18.4446H103.883L101.786 13.1094H101.714V18.5H99.6598V9.77271ZM112.579 18.6108C112.162 18.6108 111.791 18.5412 111.467 18.402C111.146 18.2599 110.892 18.0469 110.704 17.7628C110.52 17.4758 110.427 17.1165 110.427 16.6846C110.427 16.321 110.491 16.0142 110.619 15.7642C110.747 15.5142 110.923 15.3111 111.147 15.1548C111.372 14.9986 111.63 14.8807 111.923 14.8011C112.216 14.7187 112.528 14.6633 112.86 14.6349C113.233 14.6008 113.532 14.5653 113.76 14.5284C113.987 14.4886 114.152 14.4332 114.254 14.3622C114.359 14.2883 114.412 14.1846 114.412 14.0511V14.0298C114.412 13.8111 114.336 13.642 114.186 13.5227C114.035 13.4034 113.832 13.3437 113.576 13.3437C113.301 13.3437 113.079 13.4034 112.912 13.5227C112.744 13.642 112.637 13.8068 112.592 14.017L110.67 13.9488C110.727 13.5511 110.873 13.196 111.109 12.8835C111.348 12.5682 111.674 12.321 112.089 12.142C112.507 11.9602 113.008 11.8693 113.593 11.8693C114.011 11.8693 114.396 11.919 114.748 12.0184C115.1 12.115 115.407 12.2571 115.669 12.4446C115.93 12.6292 116.132 12.8565 116.274 13.1264C116.419 13.3963 116.491 13.7045 116.491 14.0511V18.5H114.531V17.588H114.48C114.363 17.8096 114.214 17.9971 114.032 18.1505C113.853 18.304 113.642 18.419 113.397 18.4957C113.156 18.5724 112.883 18.6108 112.579 18.6108ZM113.223 17.2471C113.447 17.2471 113.649 17.2017 113.828 17.1108C114.01 17.0199 114.154 16.8949 114.262 16.7358C114.37 16.5738 114.424 16.3863 114.424 16.1733V15.5511C114.365 15.5824 114.292 15.6108 114.207 15.6363C114.125 15.6619 114.034 15.6861 113.934 15.7088C113.835 15.7315 113.733 15.7514 113.627 15.7684C113.522 15.7855 113.421 15.8011 113.325 15.8153C113.129 15.8466 112.961 15.8949 112.822 15.9602C112.686 16.0256 112.581 16.1108 112.507 16.2159C112.436 16.3182 112.4 16.4403 112.4 16.5824C112.4 16.7983 112.477 16.9631 112.63 17.0767C112.787 17.1903 112.984 17.2471 113.223 17.2471ZM120.821 18.6236C120.13 18.6236 119.538 18.4815 119.044 18.1974C118.552 17.9133 118.174 17.5184 117.91 17.0128C117.646 16.5042 117.514 15.9162 117.514 15.2486C117.514 14.5781 117.646 13.99 117.91 13.4844C118.177 12.9758 118.556 12.5795 119.048 12.2954C119.542 12.0113 120.132 11.8693 120.816 11.8693C121.421 11.8693 121.948 11.9787 122.397 12.1974C122.849 12.4162 123.201 12.7258 123.454 13.1264C123.71 13.5241 123.845 13.9915 123.859 14.5284H121.912C121.872 14.1932 121.758 13.9304 121.571 13.74C121.386 13.5497 121.145 13.4545 120.846 13.4545C120.605 13.4545 120.393 13.5227 120.211 13.6591C120.029 13.7926 119.887 13.9915 119.785 14.2557C119.686 14.517 119.636 14.8409 119.636 15.2273C119.636 15.6136 119.686 15.9403 119.785 16.2074C119.887 16.4716 120.029 16.6719 120.211 16.8082C120.393 16.9417 120.605 17.0085 120.846 17.0085C121.039 17.0085 121.21 16.9673 121.358 16.8849C121.508 16.8025 121.632 16.6818 121.728 16.5227C121.825 16.3608 121.886 16.1648 121.912 15.9346H123.859C123.839 16.4744 123.704 16.946 123.454 17.3494C123.207 17.7528 122.859 18.0667 122.41 18.2912C121.964 18.5128 121.434 18.6236 120.821 18.6236ZM129.391 18.5H127.124L130.069 9.77271H132.877L135.822 18.5H133.555L131.505 11.9716H131.437L129.391 18.5ZM129.089 15.0653H133.827V16.6676H129.089V15.0653ZM136.761 20.9545V11.9545H138.824V13.0753H138.888C138.973 12.8764 139.094 12.6846 139.25 12.5C139.409 12.3153 139.611 12.1648 139.855 12.0483C140.102 11.929 140.398 11.8693 140.741 11.8693C141.196 11.8693 141.621 11.9886 142.016 12.2273C142.413 12.4659 142.734 12.8338 142.979 13.3309C143.223 13.8281 143.345 14.4616 143.345 15.2315C143.345 15.973 143.227 16.5937 142.991 17.0937C142.758 17.5937 142.443 17.9687 142.045 18.2187C141.651 18.4687 141.212 18.5937 140.729 18.5937C140.399 18.5937 140.114 18.5398 139.872 18.4318C139.631 18.3238 139.428 18.1818 139.263 18.0057C139.101 17.8295 138.976 17.6406 138.888 17.4389H138.845V20.9545H136.761ZM138.803 15.2273C138.803 15.5795 138.849 15.8863 138.943 16.1477C139.04 16.4091 139.178 16.6122 139.356 16.7571C139.538 16.8991 139.756 16.9702 140.008 16.9702C140.264 16.9702 140.481 16.8991 140.66 16.7571C140.839 16.6122 140.974 16.4091 141.065 16.1477C141.159 15.8863 141.206 15.5795 141.206 15.2273C141.206 14.875 141.159 14.5696 141.065 14.3111C140.974 14.0525 140.839 13.8523 140.66 13.7102C140.484 13.5682 140.267 13.4971 140.008 13.4971C139.753 13.4971 139.535 13.5667 139.356 13.7059C139.178 13.8452 139.04 14.044 138.943 14.3025C138.849 14.5611 138.803 14.8693 138.803 15.2273ZM144.437 20.9545V11.9545H146.5V13.0753H146.564C146.649 12.8764 146.769 12.6846 146.926 12.5C147.085 12.3153 147.287 12.1648 147.531 12.0483C147.778 11.929 148.073 11.8693 148.417 11.8693C148.872 11.8693 149.296 11.9886 149.691 12.2273C150.089 12.4659 150.41 12.8338 150.654 13.3309C150.899 13.8281 151.021 14.4616 151.021 15.2315C151.021 15.973 150.903 16.5937 150.667 17.0937C150.434 17.5937 150.119 17.9687 149.721 18.2187C149.326 18.4687 148.887 18.5937 148.404 18.5937C148.075 18.5937 147.789 18.5398 147.548 18.4318C147.306 18.3238 147.103 18.1818 146.939 18.0057C146.777 17.8295 146.652 17.6406 146.564 17.4389H146.521V20.9545H144.437ZM146.478 15.2273C146.478 15.5795 146.525 15.8863 146.619 16.1477C146.716 16.4091 146.853 16.6122 147.032 16.7571C147.214 16.8991 147.431 16.9702 147.684 16.9702C147.94 16.9702 148.157 16.8991 148.336 16.7571C148.515 16.6122 148.65 16.4091 148.741 16.1477C148.835 15.8863 148.882 15.5795 148.882 15.2273C148.882 14.875 148.835 14.5696 148.741 14.3111C148.65 14.0525 148.515 13.8523 148.336 13.7102C148.16 13.5682 147.943 13.4971 147.684 13.4971C147.429 13.4971 147.211 13.5667 147.032 13.7059C146.853 13.8452 146.716 14.044 146.619 14.3025C146.525 14.5611 146.478 14.8693 146.478 15.2273ZM159.408 12.3892C159.38 12.0767 159.254 11.8338 159.029 11.6605C158.807 11.4844 158.491 11.3963 158.079 11.3963C157.806 11.3963 157.579 11.4318 157.397 11.5028C157.215 11.5738 157.079 11.6719 156.988 11.7969C156.897 11.919 156.85 12.0596 156.847 12.2187C156.842 12.3494 156.867 12.4645 156.924 12.5639C156.984 12.6633 157.069 12.7514 157.18 12.8281C157.293 12.902 157.43 12.9673 157.589 13.0241C157.748 13.0809 157.927 13.1307 158.126 13.1733L158.876 13.3437C159.307 13.4375 159.688 13.5625 160.018 13.7187C160.35 13.875 160.629 14.0611 160.853 14.277C161.08 14.4929 161.252 14.7415 161.369 15.0227C161.485 15.304 161.545 15.6193 161.548 15.9687C161.545 16.5199 161.405 16.9929 161.13 17.3878C160.854 17.7827 160.458 18.0852 159.941 18.2954C159.427 18.5057 158.806 18.6108 158.079 18.6108C157.349 18.6108 156.712 18.5014 156.17 18.2827C155.627 18.0639 155.205 17.7315 154.904 17.2855C154.603 16.8395 154.448 16.2756 154.44 15.5937H156.459C156.477 15.875 156.552 16.1094 156.685 16.2969C156.819 16.4844 157.002 16.6264 157.235 16.723C157.471 16.8196 157.744 16.8679 158.053 16.8679C158.337 16.8679 158.579 16.8295 158.778 16.7528C158.979 16.6761 159.134 16.5696 159.242 16.4332C159.35 16.2969 159.405 16.1406 159.408 15.9645C159.405 15.7997 159.354 15.6591 159.255 15.5426C159.155 15.4233 159.002 15.321 158.795 15.2358C158.59 15.1477 158.329 15.0667 158.011 14.9929L157.099 14.7798C156.343 14.6065 155.748 14.3267 155.313 13.9403C154.879 13.5511 154.663 13.0256 154.665 12.3636C154.663 11.8238 154.807 11.3508 155.1 10.9446C155.393 10.5383 155.798 10.2216 156.315 9.9943C156.832 9.76703 157.421 9.65339 158.083 9.65339C158.759 9.65339 159.346 9.76845 159.843 9.99856C160.343 10.2258 160.731 10.5454 161.006 10.9574C161.282 11.3693 161.423 11.8466 161.428 12.3892H159.408ZM166.307 11.9545V13.4886H162.178V11.9545H166.307ZM163.043 10.3863H165.127V16.4417C165.127 16.5696 165.147 16.6733 165.187 16.7528C165.229 16.8295 165.29 16.8849 165.37 16.919C165.45 16.9503 165.545 16.9659 165.655 16.9659C165.735 16.9659 165.819 16.9588 165.907 16.9446C165.998 16.9275 166.066 16.9133 166.111 16.902L166.427 18.4062C166.327 18.4346 166.187 18.4702 166.005 18.5128C165.826 18.5554 165.611 18.5824 165.361 18.5937C164.873 18.6165 164.454 18.5596 164.104 18.4233C163.758 18.2841 163.492 18.0682 163.307 17.7755C163.126 17.4829 163.038 17.115 163.043 16.6719V10.3863ZM170.356 18.6236C169.668 18.6236 169.077 18.4829 168.583 18.2017C168.092 17.9176 167.712 17.5227 167.445 17.017C167.181 16.5085 167.049 15.919 167.049 15.2486C167.049 14.5753 167.181 13.9858 167.445 13.4801C167.712 12.9716 168.092 12.5767 168.583 12.2954C169.077 12.0113 169.668 11.8693 170.356 11.8693C171.043 11.8693 171.633 12.0113 172.124 12.2954C172.619 12.5767 172.998 12.9716 173.262 13.4801C173.529 13.9858 173.663 14.5753 173.663 15.2486C173.663 15.919 173.529 16.5085 173.262 17.017C172.998 17.5227 172.619 17.9176 172.124 18.2017C171.633 18.4829 171.043 18.6236 170.356 18.6236ZM170.369 17.0511C170.619 17.0511 170.83 16.9744 171.004 16.821C171.177 16.6676 171.309 16.4545 171.4 16.1818C171.494 15.9091 171.54 15.5937 171.54 15.2358C171.54 14.8721 171.494 14.554 171.4 14.2812C171.309 14.0085 171.177 13.7954 171.004 13.642C170.83 13.4886 170.619 13.4119 170.369 13.4119C170.11 13.4119 169.891 13.4886 169.712 13.642C169.536 13.7954 169.401 14.0085 169.307 14.2812C169.217 14.554 169.171 14.8721 169.171 15.2358C169.171 15.5937 169.217 15.9091 169.307 16.1818C169.401 16.4545 169.536 16.6676 169.712 16.821C169.891 16.9744 170.11 17.0511 170.369 17.0511ZM174.73 18.5V11.9545H176.754V13.1477H176.822C176.942 12.7159 177.136 12.3949 177.406 12.1846C177.676 11.9716 177.99 11.865 178.348 11.865C178.445 11.865 178.544 11.8721 178.646 11.8863C178.749 11.8977 178.844 11.9162 178.932 11.9417V13.7528C178.832 13.7187 178.702 13.6917 178.54 13.6719C178.381 13.652 178.239 13.642 178.114 13.642C177.866 13.642 177.643 13.6974 177.445 13.8082C177.249 13.9162 177.094 14.0682 176.98 14.2642C176.869 14.4574 176.814 14.6846 176.814 14.946V18.5H174.73ZM182.501 18.6236C181.816 18.6236 181.225 18.4886 180.728 18.2187C180.234 17.946 179.853 17.5582 179.586 17.0554C179.322 16.5497 179.19 15.9488 179.19 15.2528C179.19 14.5767 179.323 13.9858 179.59 13.4801C179.857 12.9716 180.234 12.5767 180.719 12.2954C181.205 12.0113 181.778 11.8693 182.437 11.8693C182.903 11.8693 183.329 11.9417 183.715 12.0866C184.102 12.2315 184.435 12.446 184.717 12.7301C184.998 13.0142 185.217 13.365 185.373 13.7827C185.529 14.1974 185.607 14.6733 185.607 15.2102V15.7301H179.918V14.5199H183.668C183.665 14.2983 183.613 14.1008 183.511 13.9275C183.408 13.7542 183.268 13.6193 183.089 13.5227C182.913 13.4233 182.709 13.3736 182.479 13.3736C182.246 13.3736 182.038 13.4261 181.853 13.5312C181.668 13.6335 181.522 13.7741 181.414 13.9531C181.306 14.1292 181.249 14.3295 181.244 14.554V15.7855C181.244 16.0525 181.296 16.2869 181.401 16.4886C181.506 16.6875 181.655 16.8423 181.849 16.9531C182.042 17.0639 182.272 17.1193 182.539 17.1193C182.724 17.1193 182.891 17.0937 183.042 17.0426C183.192 16.9915 183.322 16.9162 183.43 16.8167C183.538 16.7173 183.619 16.5952 183.673 16.4503L185.586 16.5057C185.506 16.9346 185.332 17.3082 185.062 17.6264C184.795 17.9417 184.444 18.1875 184.009 18.3636C183.575 18.5369 183.072 18.6236 182.501 18.6236Z" fill="white"/>
</g>
</g>
<rect x="1.24927" y="0.749985" width="191" height="26.5" rx="5.25" stroke="white" stroke-opacity="0.15" stroke-width="1.5"/>
<defs>
<filter id="filter0_d_28_2609" x="2.49927" y="-1.52588e-05" width="28" height="28" filterUnits="userSpaceOnUse" color-interpolation-filters="sRGB">
<feFlood flood-opacity="0" result="BackgroundImageFix"/>
<feColorMatrix in="SourceAlpha" type="matrix" values="0 0 0 0 0 0 0 0 0 0 0 0 0 0 0 0 0 0 127 0" result="hardAlpha"/>
<feOffset/>
<feGaussianBlur stdDeviation="2"/>
<feComposite in2="hardAlpha" operator="out"/>
<feColorMatrix type="matrix" values="0 0 0 0 0 0 0 0 0 0 0 0 0 0 0 0 0 0 0.25 0"/>
<feBlend mode="normal" in2="BackgroundImageFix" result="effect1_dropShadow_28_2609"/>
<feBlend mode="normal" in="SourceGraphic" in2="effect1_dropShadow_28_2609" result="shape"/>
</filter>
<filter id="filter1_d_28_2609" x="28.4993" y="3.49998" width="162.5" height="21.4545" filterUnits="userSpaceOnUse" color-interpolation-filters="sRGB">
<feFlood flood-opacity="0" result="BackgroundImageFix"/>
<feColorMatrix in="SourceAlpha" type="matrix" values="0 0 0 0 0 0 0 0 0 0 0 0 0 0 0 0 0 0 127 0" result="hardAlpha"/>
<feOffset/>
<feGaussianBlur stdDeviation="2"/>
<feComposite in2="hardAlpha" operator="out"/>
<feColorMatrix type="matrix" values="0 0 0 0 0 0 0 0 0 0 0 0 0 0 0 0 0 0 0.25 0"/>
<feBlend mode="normal" in2="BackgroundImageFix" result="effect1_dropShadow_28_2609"/>
<feBlend mode="normal" in="SourceGraphic" in2="effect1_dropShadow_28_2609" result="shape"/>
</filter>
<linearGradient id="paint0_linear_28_2609" x1="96.7492" y1="-1.52588e-05" x2="96.7492" y2="28" gradientUnits="userSpaceOnUse">
<stop stop-color="#1A1A1A"/>
<stop offset="1" stop-color="#0A0A0A"/>
</linearGradient>
<clipPath id="clip0_28_2609">
<rect x="0.499268" y="-1.52588e-05" width="192.5" height="28" rx="6" fill="white"/>
</clipPath>
</defs>
</svg>
