<svg width="275" height="41" viewBox="0 0 275 41" fill="none" xmlns="http://www.w3.org/2000/svg">
<g clip-path="url(#clip0_28_2646)">
<rect x="-0.000732422" y="0.0167847" width="275.001" height="40.0014" rx="8" fill="url(#paint0_linear_28_2646)"/>
<g filter="url(#filter0_d_28_2646)">
<path fill-rule="evenodd" clip-rule="evenodd" d="M34.1249 13.0172L21.9999 6.01688L9.87495 13.0172V27.0179L21.9999 34.0183L34.1249 27.0179V13.0172ZM30.6607 15.0173L22.0001 10.017L13.3394 15.0173V25.0178L22.0001 30.0181L30.6607 25.0178V15.0173Z" fill="url(#paint1_linear_28_2646)"/>
</g>
<g filter="url(#filter1_d_28_2646)">
<path d="M44.4034 26.5175H42.4233L46.8725 14.1538H49.0277L53.4769 26.5175H51.4968L48.0014 16.3996H47.9049L44.4034 26.5175ZM44.7355 21.6758H51.1588V23.2454H44.7355V21.6758ZM61.8879 17.2447L58.5253 26.5175H56.5935L53.2249 17.2447H55.1627L57.5111 24.3804H57.6077L59.95 17.2447H61.8879ZM66.0171 26.7227C65.4296 26.7227 64.8983 26.614 64.4234 26.3967C63.9485 26.1754 63.5722 25.8554 63.2945 25.4368C63.0208 25.0183 62.884 24.5051 62.884 23.8974C62.884 23.3742 62.9846 22.9436 63.1858 22.6055C63.3871 22.2675 63.6587 21.9998 64.0008 21.8026C64.3429 21.6054 64.7252 21.4565 65.1478 21.3559C65.5704 21.2553 66.0011 21.1788 66.4397 21.1265C66.9951 21.0621 67.4459 21.0098 67.792 20.9695C68.1381 20.9252 68.3897 20.8548 68.5466 20.7582C68.7036 20.6616 68.7821 20.5047 68.7821 20.2873V20.2451C68.7821 19.7179 68.6332 19.3094 68.3353 19.0196C68.0415 18.7298 67.6028 18.5849 67.0193 18.5849C66.4116 18.5849 65.9326 18.7197 65.5825 18.9894C65.2364 19.255 64.9969 19.5508 64.8641 19.8768L63.1677 19.4905C63.3689 18.927 63.6627 18.4722 64.0491 18.1261C64.4395 17.776 64.8882 17.5224 65.3953 17.3655C65.9024 17.2045 66.4357 17.124 66.9951 17.124C67.3654 17.124 67.7578 17.1683 68.1723 17.2568C68.5909 17.3413 68.9813 17.4983 69.3435 17.7277C69.7097 17.9571 70.0096 18.2851 70.243 18.7117C70.4764 19.1343 70.5931 19.6836 70.5931 20.3598V26.5175H68.8304V25.2497H68.7579C68.6412 25.4831 68.4661 25.7125 68.2327 25.9379C67.9993 26.1633 67.6994 26.3504 67.3332 26.4993C66.967 26.6483 66.5283 26.7227 66.0171 26.7227ZM66.4095 25.2738C66.9086 25.2738 67.3352 25.1752 67.6894 24.978C68.0476 24.7808 68.3192 24.5233 68.5044 24.2053C68.6935 23.8833 68.7881 23.5392 68.7881 23.173V21.9777C68.7237 22.0421 68.5989 22.1024 68.4138 22.1588C68.2327 22.2111 68.0254 22.2574 67.792 22.2976C67.5586 22.3339 67.3312 22.3681 67.1098 22.4003C66.8885 22.4284 66.7033 22.4526 66.5544 22.4727C66.2043 22.517 65.8843 22.5914 65.5946 22.6961C65.3088 22.8007 65.0794 22.9516 64.9064 23.1488C64.7373 23.342 64.6528 23.5996 64.6528 23.9216C64.6528 24.3683 64.8178 24.7064 65.1478 24.9358C65.4779 25.1612 65.8984 25.2738 66.4095 25.2738ZM72.9973 26.5175V17.2447H74.8024V26.5175H72.9973ZM73.9089 15.814C73.595 15.814 73.3254 15.7093 73.1 15.5001C72.8786 15.2867 72.7679 15.0332 72.7679 14.7394C72.7679 14.4416 72.8786 14.188 73.1 13.9787C73.3254 13.7654 73.595 13.6588 73.9089 13.6588C74.2228 13.6588 74.4905 13.7654 74.7118 13.9787C74.9372 14.188 75.0499 14.4416 75.0499 14.7394C75.0499 15.0332 74.9372 15.2867 74.7118 15.5001C74.4905 15.7093 74.2228 15.814 73.9089 15.814ZM79.0358 14.1538V26.5175H77.2307V14.1538H79.0358ZM84.1627 26.7227C83.5751 26.7227 83.0438 26.614 82.5689 26.3967C82.094 26.1754 81.7177 25.8554 81.44 25.4368C81.1663 25.0183 81.0295 24.5051 81.0295 23.8974C81.0295 23.3742 81.1301 22.9436 81.3313 22.6055C81.5326 22.2675 81.8042 21.9998 82.1463 21.8026C82.4884 21.6054 82.8707 21.4565 83.2933 21.3559C83.7159 21.2553 84.1466 21.1788 84.5852 21.1265C85.1406 21.0621 85.5914 21.0098 85.9375 20.9695C86.2836 20.9252 86.5352 20.8548 86.6921 20.7582C86.8491 20.6616 86.9276 20.5047 86.9276 20.2873V20.2451C86.9276 19.7179 86.7787 19.3094 86.4808 19.0196C86.187 18.7298 85.7484 18.5849 85.1648 18.5849C84.5571 18.5849 84.0781 18.7197 83.728 18.9894C83.3819 19.255 83.1424 19.5508 83.0096 19.8768L81.3132 19.4905C81.5145 18.927 81.8082 18.4722 82.1946 18.1261C82.585 17.776 83.0337 17.5224 83.5408 17.3655C84.048 17.2045 84.5812 17.124 85.1406 17.124C85.5109 17.124 85.9033 17.1683 86.3178 17.2568C86.7364 17.3413 87.1268 17.4983 87.489 17.7277C87.8552 17.9571 88.1551 18.2851 88.3885 18.7117C88.6219 19.1343 88.7386 19.6836 88.7386 20.3598V26.5175H86.9759V25.2497H86.9034C86.7867 25.4831 86.6116 25.7125 86.3782 25.9379C86.1448 26.1633 85.8449 26.3504 85.4787 26.4993C85.1125 26.6483 84.6738 26.7227 84.1627 26.7227ZM84.5551 25.2738C85.0541 25.2738 85.4807 25.1752 85.8349 24.978C86.1931 24.7808 86.4647 24.5233 86.6499 24.2053C86.839 23.8833 86.9336 23.5392 86.9336 23.173V21.9777C86.8692 22.0421 86.7444 22.1024 86.5593 22.1588C86.3782 22.2111 86.1709 22.2574 85.9375 22.2976C85.7041 22.3339 85.4767 22.3681 85.2553 22.4003C85.034 22.4284 84.8488 22.4526 84.6999 22.4727C84.3498 22.517 84.0298 22.5914 83.7401 22.6961C83.4543 22.8007 83.2249 22.9516 83.0519 23.1488C82.8828 23.342 82.7983 23.5996 82.7983 23.9216C82.7983 24.3683 82.9633 24.7064 83.2933 24.9358C83.6234 25.1612 84.0439 25.2738 84.5551 25.2738ZM91.2877 26.5175V14.1538H93.0928V18.7479H93.2014C93.3061 18.5547 93.457 18.3314 93.6542 18.0778C93.8514 17.8243 94.1251 17.6029 94.4752 17.4138C94.8254 17.2206 95.2882 17.124 95.8637 17.124C96.6123 17.124 97.2804 17.3131 97.868 17.6915C98.4556 18.0698 98.9164 18.6151 99.2504 19.3275C99.5885 20.0398 99.7576 20.8971 99.7576 21.8992C99.7576 22.9013 99.5905 23.7606 99.2565 24.477C98.9224 25.1893 98.4636 25.7387 97.8801 26.1251C97.2965 26.5074 96.6304 26.6986 95.8818 26.6986C95.3184 26.6986 94.8576 26.604 94.4994 26.4148C94.1452 26.2257 93.8675 26.0043 93.6663 25.7508C93.4651 25.4972 93.3101 25.2718 93.2014 25.0746H93.0505V26.5175H91.2877ZM93.0566 21.8811C93.0566 22.5331 93.1511 23.1046 93.3403 23.5956C93.5295 24.0866 93.8031 24.4709 94.1613 24.7486C94.5195 25.0223 94.9582 25.1591 95.4774 25.1591C96.0167 25.1591 96.4674 25.0163 96.8296 24.7305C97.1919 24.4407 97.4655 24.0483 97.6507 23.5533C97.8398 23.0583 97.9344 22.5009 97.9344 21.8811C97.9344 21.2693 97.8418 20.72 97.6567 20.233C97.4756 19.746 97.2019 19.3617 96.8357 19.08C96.4735 18.7982 96.0207 18.6574 95.4774 18.6574C94.9542 18.6574 94.5115 18.7922 94.1492 19.0618C93.7911 19.3315 93.5194 19.7078 93.3343 20.1907C93.1491 20.6737 93.0566 21.2371 93.0566 21.8811ZM103.589 14.1538V26.5175H101.784V14.1538H103.589ZM110.014 26.7046C109.101 26.7046 108.314 26.5094 107.654 26.119C106.998 25.7246 106.491 25.1712 106.133 24.4589C105.778 23.7425 105.601 22.9033 105.601 21.9415C105.601 20.9916 105.778 20.1545 106.133 19.4301C106.491 18.7057 106.99 18.1402 107.63 17.7337C108.274 17.3272 109.026 17.124 109.888 17.124C110.411 17.124 110.918 17.2105 111.409 17.3836C111.9 17.5566 112.341 17.8283 112.731 18.1986C113.121 18.5688 113.429 19.0498 113.655 19.6414C113.88 20.229 113.993 20.9434 113.993 21.7845V22.4244H106.622V21.0721H112.224C112.224 20.5972 112.127 20.1767 111.934 19.8104C111.741 19.4402 111.469 19.1484 111.119 18.9351C110.773 18.7218 110.366 18.6151 109.9 18.6151C109.392 18.6151 108.95 18.7399 108.571 18.9894C108.197 19.2349 107.907 19.5569 107.702 19.9553C107.501 20.3497 107.4 20.7783 107.4 21.2412V22.2976C107.4 22.9174 107.509 23.4447 107.726 23.8793C107.948 24.314 108.256 24.646 108.65 24.8754C109.044 25.1008 109.505 25.2135 110.032 25.2135C110.374 25.2135 110.686 25.1652 110.968 25.0686C111.25 24.968 111.493 24.8191 111.699 24.6219C111.904 24.4246 112.061 24.1812 112.169 23.8914L113.878 24.1993C113.741 24.7023 113.496 25.143 113.141 25.5214C112.791 25.8956 112.351 26.1874 111.819 26.3967C111.292 26.602 110.69 26.7046 110.014 26.7046ZM124.4 26.7046C123.531 26.7046 122.772 26.5054 122.124 26.1069C121.476 25.7085 120.973 25.1511 120.615 24.4347C120.257 23.7183 120.078 22.8812 120.078 21.9233C120.078 20.9615 120.257 20.1203 120.615 19.3999C120.973 18.6795 121.476 18.1201 122.124 17.7216C122.772 17.3232 123.531 17.124 124.4 17.124C125.27 17.124 126.028 17.3232 126.676 17.7216C127.324 18.1201 127.827 18.6795 128.185 19.3999C128.544 20.1203 128.723 20.9615 128.723 21.9233C128.723 22.8812 128.544 23.7183 128.185 24.4347C127.827 25.1511 127.324 25.7085 126.676 26.1069C126.028 26.5054 125.27 26.7046 124.4 26.7046ZM124.406 25.1893C124.97 25.1893 125.437 25.0404 125.807 24.7426C126.177 24.4448 126.451 24.0483 126.628 23.5533C126.809 23.0583 126.9 22.513 126.9 21.9173C126.9 21.3257 126.809 20.7824 126.628 20.2873C126.451 19.7883 126.177 19.3878 125.807 19.086C125.437 18.7841 124.97 18.6332 124.406 18.6332C123.839 18.6332 123.368 18.7841 122.994 19.086C122.623 19.3878 122.348 19.7883 122.167 20.2873C121.99 20.7824 121.901 21.3257 121.901 21.9173C121.901 22.513 121.99 23.0583 122.167 23.5533C122.348 24.0483 122.623 24.4448 122.994 24.7426C123.368 25.0404 123.839 25.1893 124.406 25.1893ZM132.543 21.0118V26.5175H130.738V17.2447H132.47V18.754H132.585C132.798 18.263 133.132 17.8685 133.587 17.5707C134.046 17.2729 134.623 17.124 135.32 17.124C135.951 17.124 136.505 17.2568 136.98 17.5224C137.455 17.784 137.823 18.1744 138.085 18.6936C138.346 19.2128 138.477 19.8547 138.477 20.6194V26.5175H136.672V20.8367C136.672 20.1646 136.497 19.6394 136.147 19.2611C135.797 18.8787 135.316 18.6876 134.704 18.6876C134.285 18.6876 133.913 18.7781 133.587 18.9592C133.265 19.1403 133.009 19.4059 132.82 19.7561C132.635 20.1022 132.543 20.5208 132.543 21.0118Z" fill="#E8E8E8"/>
<path d="M144.936 14.1538H148.637L151.776 21.8086H151.921L155.06 14.1538H158.761V26.5175H155.851V18.923H155.749L152.778 26.439H150.919L147.949 18.8807H147.846V26.5175H144.936V14.1538ZM163.239 26.6744C162.647 26.6744 162.122 26.5758 161.663 26.3786C161.208 26.1774 160.848 25.8755 160.583 25.4731C160.321 25.0666 160.19 24.5575 160.19 23.9457C160.19 23.4306 160.281 22.9959 160.462 22.6417C160.643 22.2876 160.893 21.9998 161.211 21.7785C161.528 21.5571 161.895 21.3901 162.309 21.2774C162.724 21.1607 163.166 21.0822 163.637 21.042C164.165 20.9937 164.589 20.9434 164.911 20.891C165.233 20.8347 165.467 20.7562 165.611 20.6556C165.76 20.551 165.835 20.4041 165.835 20.2149V20.1847C165.835 19.8748 165.728 19.6354 165.515 19.4663C165.302 19.2973 165.014 19.2128 164.652 19.2128C164.261 19.2128 163.947 19.2973 163.71 19.4663C163.472 19.6354 163.321 19.8688 163.257 20.1666L160.534 20.07C160.615 19.5066 160.822 19.0035 161.156 18.5608C161.494 18.114 161.957 17.7639 162.545 17.5104C163.136 17.2528 163.847 17.124 164.676 17.124C165.267 17.124 165.813 17.1944 166.312 17.3353C166.811 17.4721 167.245 17.6733 167.616 17.939C167.986 18.2006 168.272 18.5225 168.473 18.9049C168.678 19.2872 168.781 19.7239 168.781 20.2149V26.5175H166.004V25.2255H165.931C165.766 25.5395 165.555 25.8051 165.298 26.0224C165.044 26.2398 164.744 26.4027 164.398 26.5114C164.056 26.6201 163.67 26.6744 163.239 26.6744ZM164.15 24.7426C164.468 24.7426 164.754 24.6782 165.008 24.5494C165.265 24.4206 165.471 24.2435 165.624 24.0182C165.776 23.7888 165.853 23.5231 165.853 23.2213V22.3399C165.768 22.3842 165.666 22.4244 165.545 22.4606C165.428 22.4969 165.3 22.5311 165.159 22.5633C165.018 22.5955 164.873 22.6236 164.724 22.6478C164.575 22.6719 164.432 22.6941 164.295 22.7142C164.018 22.7585 163.78 22.8269 163.583 22.9194C163.39 23.012 163.241 23.1327 163.136 23.2817C163.036 23.4265 162.985 23.5996 162.985 23.8008C162.985 24.1067 163.094 24.3401 163.311 24.5011C163.533 24.6621 163.812 24.7426 164.15 24.7426ZM179.249 17.2447L176.067 26.5175H172.687L169.511 17.2447H172.62L174.329 23.6318H174.425L176.14 17.2447H179.249ZM184.416 26.6925C183.447 26.6925 182.609 26.5014 181.905 26.119C181.205 25.7327 180.666 25.1833 180.287 24.4709C179.913 23.7545 179.726 22.9033 179.726 21.9173C179.726 20.9595 179.915 20.1223 180.293 19.4059C180.672 18.6855 181.205 18.1261 181.893 17.7277C182.581 17.3252 183.392 17.124 184.326 17.124C184.986 17.124 185.59 17.2266 186.137 17.4319C186.684 17.6371 187.157 17.941 187.556 18.3434C187.954 18.7459 188.264 19.243 188.485 19.8346C188.707 20.4222 188.817 21.0963 188.817 21.8569V22.5934H180.758V20.879H186.071C186.067 20.565 185.992 20.2853 185.847 20.0398C185.702 19.7943 185.503 19.6032 185.25 19.4663C185 19.3255 184.712 19.255 184.386 19.255C184.056 19.255 183.76 19.3295 183.499 19.4784C183.237 19.6233 183.03 19.8225 182.877 20.076C182.724 20.3256 182.644 20.6093 182.636 20.9273V22.6719C182.636 23.0502 182.71 23.3823 182.859 23.668C183.008 23.9497 183.219 24.1691 183.493 24.326C183.766 24.483 184.092 24.5615 184.471 24.5615C184.732 24.5615 184.97 24.5253 185.183 24.4528C185.396 24.3804 185.58 24.2737 185.733 24.1329C185.885 23.992 186 23.8189 186.077 23.6137L188.787 23.6922C188.675 24.2999 188.427 24.8291 188.045 25.2799C187.666 25.7266 187.169 26.0747 186.554 26.3243C185.938 26.5698 185.225 26.6925 184.416 26.6925ZM193.277 21.2291V26.5175H190.325V17.2447H193.132V18.9471H193.235C193.44 18.3797 193.79 17.9349 194.285 17.613C194.78 17.287 195.37 17.124 196.054 17.124C196.706 17.124 197.272 17.2709 197.751 17.5647C198.233 17.8545 198.608 18.2609 198.873 18.7841C199.143 19.3033 199.276 19.911 199.272 20.6073V26.5175H196.32V21.1868C196.324 20.6717 196.193 20.2692 195.927 19.9795C195.666 19.6897 195.302 19.5448 194.835 19.5448C194.525 19.5448 194.251 19.6132 194.014 19.7501C193.78 19.8829 193.599 20.074 193.47 20.3236C193.346 20.5731 193.281 20.8749 193.277 21.2291ZM215.975 18.6332H212.956C212.916 18.3233 212.833 18.0436 212.709 17.7941C212.584 17.5446 212.419 17.3313 212.214 17.1542C212.008 16.9771 211.765 16.8423 211.483 16.7497C211.205 16.6531 210.897 16.6048 210.559 16.6048C209.96 16.6048 209.443 16.7517 209.008 17.0455C208.577 17.3393 208.245 17.7639 208.012 18.3193C207.782 18.8747 207.668 19.5468 207.668 20.3356C207.668 21.1567 207.784 21.8449 208.018 22.4003C208.255 22.9516 208.587 23.3682 209.014 23.6499C209.445 23.9276 209.954 24.0665 210.541 24.0665C210.871 24.0665 211.171 24.0242 211.441 23.9397C211.714 23.8552 211.954 23.7324 212.159 23.5714C212.368 23.4064 212.54 23.2072 212.672 22.9738C212.809 22.7363 212.904 22.4687 212.956 22.1709L215.975 22.189C215.922 22.7363 215.763 23.2756 215.498 23.8069C215.236 24.3381 214.876 24.8231 214.417 25.2618C213.958 25.6964 213.399 26.0425 212.739 26.3001C212.083 26.5577 211.33 26.6865 210.481 26.6865C209.362 26.6865 208.36 26.441 207.475 25.95C206.593 25.455 205.897 24.7345 205.386 23.7888C204.875 22.843 204.619 21.6919 204.619 20.3356C204.619 18.9753 204.879 17.8223 205.398 16.8765C205.917 15.9307 206.619 15.2123 207.505 14.7213C208.39 14.2303 209.382 13.9848 210.481 13.9848C211.229 13.9848 211.922 14.0894 212.558 14.2987C213.194 14.504 213.753 14.8058 214.236 15.2042C214.719 15.5987 215.111 16.0836 215.413 16.6591C215.715 17.2347 215.902 17.8927 215.975 18.6332ZM222.019 26.6925C221.049 26.6925 220.212 26.5014 219.508 26.119C218.807 25.7327 218.268 25.1833 217.89 24.4709C217.515 23.7545 217.328 22.9033 217.328 21.9173C217.328 20.9595 217.517 20.1223 217.896 19.4059C218.274 18.6855 218.807 18.1261 219.496 17.7277C220.184 17.3252 220.995 17.124 221.928 17.124C222.588 17.124 223.192 17.2266 223.74 17.4319C224.287 17.6371 224.76 17.941 225.158 18.3434C225.557 18.7459 225.867 19.243 226.088 19.8346C226.309 20.4222 226.42 21.0963 226.42 21.8569V22.5934H218.361V20.879H223.673C223.669 20.565 223.595 20.2853 223.45 20.0398C223.305 19.7943 223.106 19.6032 222.852 19.4663C222.603 19.3255 222.315 19.255 221.989 19.255C221.659 19.255 221.363 19.3295 221.101 19.4784C220.84 19.6233 220.633 19.8225 220.48 20.076C220.327 20.3256 220.246 20.6093 220.238 20.9273V22.6719C220.238 23.0502 220.313 23.3823 220.461 23.668C220.61 23.9497 220.822 24.1691 221.095 24.326C221.369 24.483 221.695 24.5615 222.073 24.5615C222.335 24.5615 222.572 24.5253 222.786 24.4528C222.999 24.3804 223.182 24.2737 223.335 24.1329C223.488 23.992 223.603 23.8189 223.679 23.6137L226.39 23.6922C226.277 24.2999 226.03 24.8291 225.647 25.2799C225.269 25.7266 224.772 26.0747 224.156 26.3243C223.54 26.5698 222.828 26.6925 222.019 26.6925ZM230.88 21.2291V26.5175H227.928V17.2447H230.735V18.9471H230.837C231.043 18.3797 231.393 17.9349 231.888 17.613C232.383 17.287 232.973 17.124 233.657 17.124C234.309 17.124 234.874 17.2709 235.353 17.5647C235.836 17.8545 236.21 18.2609 236.476 18.7841C236.746 19.3033 236.878 19.911 236.874 20.6073V26.5175H233.922V21.1868C233.926 20.6717 233.796 20.2692 233.53 19.9795C233.268 19.6897 232.904 19.5448 232.437 19.5448C232.127 19.5448 231.854 19.6132 231.616 19.7501C231.383 19.8829 231.202 20.074 231.073 20.3236C230.948 20.5731 230.884 20.8749 230.88 21.2291ZM243.936 17.2447V19.418H238.086V17.2447H243.936ZM239.312 15.0231H242.264V23.6016C242.264 23.7827 242.292 23.9296 242.348 24.0423C242.409 24.151 242.495 24.2295 242.608 24.2777C242.721 24.322 242.855 24.3442 243.012 24.3442C243.125 24.3442 243.244 24.3341 243.369 24.314C243.497 24.2898 243.594 24.2697 243.658 24.2536L244.105 26.3846C243.964 26.4249 243.765 26.4752 243.507 26.5356C243.254 26.5959 242.95 26.6342 242.596 26.6503C241.904 26.6825 241.31 26.602 240.815 26.4088C240.324 26.2116 239.948 25.9057 239.686 25.4912C239.428 25.0766 239.304 24.5554 239.312 23.9276V15.0231ZM245.442 26.5175V17.2447H248.31V18.9351H248.406C248.575 18.3233 248.851 17.8685 249.233 17.5707C249.616 17.2689 250.061 17.118 250.568 17.118C250.704 17.118 250.845 17.128 250.99 17.1481C251.135 17.1642 251.27 17.1904 251.395 17.2266V19.7923C251.254 19.744 251.069 19.7058 250.839 19.6776C250.614 19.6494 250.413 19.6354 250.236 19.6354C249.885 19.6354 249.57 19.7138 249.288 19.8708C249.01 20.0237 248.791 20.239 248.63 20.5167C248.473 20.7904 248.394 21.1124 248.394 21.4827V26.5175H245.442ZM254.863 26.6744C254.271 26.6744 253.746 26.5758 253.287 26.3786C252.832 26.1774 252.472 25.8755 252.207 25.4731C251.945 25.0666 251.814 24.5575 251.814 23.9457C251.814 23.4306 251.905 22.9959 252.086 22.6417C252.267 22.2876 252.517 21.9998 252.835 21.7785C253.152 21.5571 253.519 21.3901 253.933 21.2774C254.348 21.1607 254.79 21.0822 255.261 21.042C255.789 20.9937 256.213 20.9434 256.535 20.891C256.857 20.8347 257.091 20.7562 257.235 20.6556C257.384 20.551 257.459 20.4041 257.459 20.2149V20.1847C257.459 19.8748 257.352 19.6354 257.139 19.4663C256.926 19.2973 256.638 19.2128 256.276 19.2128C255.885 19.2128 255.571 19.2973 255.334 19.4663C255.096 19.6354 254.945 19.8688 254.881 20.1666L252.158 20.07C252.239 19.5066 252.446 19.0035 252.78 18.5608C253.118 18.114 253.581 17.7639 254.169 17.5104C254.76 17.2528 255.471 17.124 256.3 17.124C256.891 17.124 257.437 17.1944 257.936 17.3353C258.435 17.4721 258.869 17.6733 259.24 17.939C259.61 18.2006 259.896 18.5225 260.097 18.9049C260.302 19.2872 260.405 19.7239 260.405 20.2149V26.5175H257.628V25.2255H257.555C257.39 25.5395 257.179 25.8051 256.922 26.0224C256.668 26.2398 256.368 26.4027 256.022 26.5114C255.68 26.6201 255.294 26.6744 254.863 26.6744ZM255.774 24.7426C256.092 24.7426 256.378 24.6782 256.632 24.5494C256.889 24.4206 257.095 24.2435 257.248 24.0182C257.4 23.7888 257.477 23.5231 257.477 23.2213V22.3399C257.392 22.3842 257.29 22.4244 257.169 22.4606C257.052 22.4969 256.924 22.5311 256.783 22.5633C256.642 22.5955 256.497 22.6236 256.348 22.6478C256.199 22.6719 256.056 22.6941 255.919 22.7142C255.642 22.7585 255.404 22.8269 255.207 22.9194C255.014 23.012 254.865 23.1327 254.76 23.2817C254.66 23.4265 254.609 23.5996 254.609 23.8008C254.609 24.1067 254.718 24.3401 254.935 24.5011C255.157 24.6621 255.436 24.7426 255.774 24.7426ZM265.162 14.1538V26.5175H262.21V14.1538H265.162Z" fill="url(#paint2_linear_28_2646)"/>
</g>
</g>
<rect x="1.0707" y="1.08821" width="272.858" height="37.8585" rx="6.92857" stroke="white" stroke-opacity="0.15" stroke-width="2.14286"/>
<defs>
<filter id="filter0_d_28_2646" x="2.39899" y="0.416504" width="39.202" height="39.2021" filterUnits="userSpaceOnUse" color-interpolation-filters="sRGB">
<feFlood flood-opacity="0" result="BackgroundImageFix"/>
<feColorMatrix in="SourceAlpha" type="matrix" values="0 0 0 0 0 0 0 0 0 0 0 0 0 0 0 0 0 0 127 0" result="hardAlpha"/>
<feOffset/>
<feGaussianBlur stdDeviation="2.80014"/>
<feComposite in2="hardAlpha" operator="out"/>
<feColorMatrix type="matrix" values="0 0 0 0 0 0 0 0 0 0 0 0 0 0 0 0 0 0 0.25 0"/>
<feBlend mode="normal" in2="BackgroundImageFix" result="effect1_dropShadow_28_2646"/>
<feBlend mode="normal" in="SourceGraphic" in2="effect1_dropShadow_28_2646" result="shape"/>
</filter>
<filter id="filter1_d_28_2646" x="36.2864" y="3.80317" width="236.429" height="32.4286" filterUnits="userSpaceOnUse" color-interpolation-filters="sRGB">
<feFlood flood-opacity="0" result="BackgroundImageFix"/>
<feColorMatrix in="SourceAlpha" type="matrix" values="0 0 0 0 0 0 0 0 0 0 0 0 0 0 0 0 0 0 127 0" result="hardAlpha"/>
<feOffset/>
<feGaussianBlur stdDeviation="2.85714"/>
<feComposite in2="hardAlpha" operator="out"/>
<feColorMatrix type="matrix" values="0 0 0 0 0 0 0 0 0 0 0 0 0 0 0 0 0 0 0.25 0"/>
<feBlend mode="normal" in2="BackgroundImageFix" result="effect1_dropShadow_28_2646"/>
<feBlend mode="normal" in="SourceGraphic" in2="effect1_dropShadow_28_2646" result="shape"/>
</filter>
<linearGradient id="paint0_linear_28_2646" x1="137.5" y1="0.0167847" x2="137.5" y2="40.0182" gradientUnits="userSpaceOnUse">
<stop stop-color="#141732"/>
<stop offset="1" stop-color="#0F1A23"/>
</linearGradient>
<linearGradient id="paint1_linear_28_2646" x1="12.4992" y1="10.0171" x2="33.5003" y2="27.018" gradientUnits="userSpaceOnUse">
<stop stop-color="#6E3BED"/>
<stop offset="1" stop-color="#4BA9EA"/>
</linearGradient>
<linearGradient id="paint2_linear_28_2646" x1="144.001" y1="9.51757" x2="267.001" y2="9.51756" gradientUnits="userSpaceOnUse">
<stop stop-color="#5865F2"/>
<stop offset="1" stop-color="#27A2FD"/>
</linearGradient>
<clipPath id="clip0_28_2646">
<rect x="-0.000732422" y="0.0167847" width="275.001" height="40.0014" rx="8" fill="white"/>
</clipPath>
</defs>
</svg>
