<svg width="176" height="28" viewBox="0 0 176 28" fill="none" xmlns="http://www.w3.org/2000/svg">
<g clip-path="url(#clip0_44_23)">
<rect x="-0.000488281" y="-6.10352e-05" width="175.5" height="28" rx="6" fill="url(#paint0_linear_44_23)"/>
<g filter="url(#filter0_d_44_23)">
<path d="M20.2875 4.46506C20.6313 4.26694 20.9994 4.11103 21.3815 4.00421C21.4758 3.98845 21.5703 4.01973 21.6615 4.04236C22.1356 4.19242 22.5573 4.46532 22.9681 4.73898C23.5522 5.14464 24.1083 5.59328 24.6157 6.09254C24.6759 6.14646 24.7346 6.20292 24.7839 6.26752C24.7244 6.26167 24.6655 6.25429 24.6063 6.24743C24.1673 6.19961 23.7346 6.3339 23.3347 6.50278C22.8845 6.7065 22.4691 6.98143 22.0875 7.29451C22.0286 7.34131 21.9722 7.39141 21.9168 7.44228C21.82 7.49544 21.7575 7.58979 21.6765 7.66228C21.5756 7.75485 21.4864 7.86091 21.3729 7.93848C21.2354 8.10558 21.0838 8.26174 20.9242 8.40722C20.7809 8.60839 20.6171 8.79406 20.4646 8.98811C20.3196 9.18344 20.1831 9.38487 20.0386 9.58071C20.0045 9.62725 19.9781 9.67863 19.9527 9.73026C19.7848 9.93855 19.6626 10.1804 19.5345 10.4147C19.4923 10.5266 19.4052 10.624 19.4075 10.7494C19.5548 10.8122 19.6923 10.8959 19.8341 10.9704C20.0767 11.0942 20.3165 11.2237 20.553 11.3595C20.407 11.445 20.24 11.4824 20.0899 11.5592C19.9037 11.6136 19.7324 11.7069 19.5467 11.7619C19.3145 11.8656 19.0716 11.9445 18.8382 12.046C18.5279 12.1556 18.2274 12.2896 17.919 12.4038C17.5051 12.563 17.0974 12.7393 16.6754 12.8761C16.6004 12.798 16.6083 12.677 16.5829 12.5778C16.5067 12.3623 16.4541 12.1393 16.3956 11.9188C16.3702 11.83 16.3428 11.7418 16.3293 11.6502C16.3166 11.6311 16.3039 11.6123 16.2915 11.5935C16.2737 11.4152 16.2 11.2499 16.167 11.0747C16.1441 10.9533 16.0893 10.8404 16.0768 10.7168C16.0697 10.7054 16.055 10.6822 16.0476 10.6708C16.0301 10.5179 15.9729 10.3742 15.9358 10.2259C15.8446 9.86581 15.7488 9.5067 15.648 9.14885C15.6165 8.99473 15.5613 8.84594 15.5415 8.68953C15.6502 8.70402 15.7353 8.77397 15.8281 8.82585C15.9902 8.89376 16.1363 8.99295 16.2955 9.0667C16.3883 9.10765 16.4683 9.17708 16.5702 9.19667C16.8814 8.48453 17.2223 7.78334 17.6311 7.12131C17.6497 7.08927 17.6639 7.05493 17.6794 7.02111C17.7891 6.88936 17.8684 6.73625 17.9685 6.59739C18.1029 6.40944 18.2335 6.21792 18.3864 6.04396C18.498 5.91654 18.5973 5.77844 18.717 5.65839C18.7965 5.57802 18.877 5.49842 18.9565 5.41779C19.1776 5.21128 19.4146 5.0218 19.6676 4.85597C19.8757 4.72804 20.0729 4.58231 20.2875 4.46506Z" fill="#FEFEFE"/>
<path d="M13.9145 5.16764C14.5618 5.00614 15.2287 4.9395 15.8941 4.91737C16.9319 4.91559 17.9779 5.06438 18.9565 5.4179C18.877 5.49852 18.7965 5.57813 18.717 5.6585C18.5973 5.77854 18.498 5.91665 18.3864 6.04407C18.2335 6.21803 18.1029 6.40954 17.9685 6.59749C17.8684 6.73636 17.7891 6.88947 17.6794 7.02121C17.6639 7.05504 17.6497 7.08937 17.6311 7.12142C17.2223 7.78345 16.8814 8.48464 16.5702 9.19677C16.4683 9.17719 16.3883 9.10776 16.2955 9.06681C16.1362 8.99305 15.9902 8.89386 15.8281 8.82596C15.7353 8.77407 15.6502 8.70413 15.5415 8.68963C15.5613 8.84605 15.6164 8.99483 15.6479 9.14896C15.7488 9.5068 15.8446 9.86592 15.9358 10.2261C15.9729 10.3743 16.03 10.518 16.0476 10.6709C16.0549 10.6823 16.0697 10.7055 16.0768 10.7169C16.0892 10.8405 16.1441 10.9534 16.167 11.0748C16.2 11.25 16.2737 11.4153 16.2915 11.5936C16.3039 11.6124 16.3166 11.6312 16.3293 11.6503C16.3428 11.7419 16.3702 11.8301 16.3956 11.9189C16.4541 12.1394 16.5067 12.3624 16.5829 12.5779C16.6083 12.6771 16.6004 12.7981 16.6753 12.8762C17.0973 12.7394 17.5051 12.5631 17.919 12.4039C18.2274 12.2897 18.5279 12.1557 18.8381 12.0461C19.0716 11.9446 19.3145 11.8657 19.5467 11.762C19.7324 11.707 19.9037 11.6137 20.0899 11.5593C20.24 11.4825 20.4069 11.4451 20.553 11.3596C20.3165 11.2238 20.0767 11.0943 19.834 10.9705C19.6923 10.896 19.5548 10.8123 19.4075 10.7495C19.4052 10.6241 19.4923 10.5267 19.5345 10.4148C19.6626 10.1805 19.7848 9.93866 19.9527 9.73036C19.9781 9.67873 20.0045 9.62736 20.0386 9.58081C20.1831 9.38498 20.3195 9.18355 20.4646 8.98822C20.617 8.79416 20.7809 8.6085 20.9242 8.40732C21.0838 8.26185 21.2354 8.10569 21.3729 7.93859C21.4864 7.86102 21.5756 7.75496 21.6765 7.66238C21.7575 7.5899 21.82 7.49554 21.9168 7.44239C21.9722 7.39152 22.0286 7.34142 22.0875 7.29462C22.396 7.51894 22.6261 7.82745 22.8825 8.10518C22.98 8.20411 23.0552 8.32161 23.148 8.42462C23.3375 8.6876 23.5311 8.9488 23.6909 9.23162C23.7917 9.37201 23.8687 9.52715 23.9536 9.67746C24.0191 9.79725 24.0557 9.93179 24.135 10.0445C24.5242 10.8342 24.778 11.6897 24.9142 12.5588C25.0143 13.1962 25.0252 13.8437 24.9993 14.4871C24.9518 15.2847 24.8011 16.0782 24.5384 16.8329C23.8334 16.1164 22.9724 15.5764 22.0898 15.1077C21.8784 14.9849 21.6523 14.891 21.4349 14.7801C21.2486 14.684 21.0578 14.5965 20.8635 14.5182C20.8226 14.506 20.8139 14.4643 20.8053 14.4286C20.8299 14.4093 20.8548 14.3902 20.8797 14.3712C20.9511 14.1619 21.0822 13.9792 21.1744 13.7786C21.2189 13.6728 21.2931 13.5825 21.3304 13.4731C21.2626 13.4718 21.1945 13.4769 21.132 13.5039C20.0449 13.7923 18.9583 14.0868 17.8732 14.3826C17.6258 14.4307 17.3892 14.524 17.1415 14.5744C17.1598 14.6603 17.1852 14.7445 17.2124 14.8285C17.308 15.0472 17.3773 15.2763 17.4749 15.4946C17.5602 15.7166 17.6387 15.9419 17.7343 16.1601C18.0282 16.9389 18.3443 17.7088 18.6341 18.4888C18.7284 18.3833 18.7749 18.248 18.847 18.1282C18.989 17.8662 19.128 17.6027 19.2698 17.3402C19.3196 17.3458 19.3712 17.3507 19.4156 17.3769C19.5457 17.4486 19.6854 17.5025 19.8089 17.5862C19.8503 17.6152 19.8991 17.6299 19.9476 17.6437C20.1 17.7739 20.2858 17.8565 20.4428 17.9812C20.7832 18.2012 21.1036 18.4509 21.4122 18.7136C21.5505 18.8108 21.6582 18.9451 21.8007 19.0361C21.8579 19.1122 21.9237 19.1806 21.9925 19.2462C22.0832 19.3322 22.1627 19.4309 22.2671 19.5016C22.3891 19.6671 22.5377 19.8111 22.6683 19.97C22.6132 20.0959 22.4986 20.1743 22.4076 20.2714C22.146 20.5705 21.8238 20.8055 21.5228 21.0619C21.396 21.1774 21.2433 21.2577 21.1074 21.361C20.7827 21.6044 20.429 21.8048 20.0647 21.9826C18.9903 22.5294 17.8031 22.8519 16.6001 22.9261C16.2907 22.9607 15.978 22.9384 15.6672 22.9437C14.8982 22.9045 14.1297 22.7858 13.3927 22.5571C13.3012 22.5299 13.2072 22.507 13.1226 22.461C13.3972 22.1741 13.6574 21.8719 13.8805 21.5428C13.9076 21.5026 13.9376 21.4642 13.9676 21.4263C13.974 21.4042 13.9803 21.3823 13.9869 21.361C14.1073 21.2603 14.1683 21.113 14.2588 20.9886C14.3454 20.8663 14.3962 20.7231 14.4823 20.6003C14.6208 20.3696 14.7371 20.1259 14.8779 19.8968C14.916 19.7668 14.9963 19.6552 15.0415 19.5278C15.1347 19.3607 15.213 19.1862 15.2867 19.0097C15.2996 19.0054 15.3255 18.9967 15.3382 18.9924C15.3446 18.9334 15.3515 18.8746 15.3588 18.8161C15.4841 18.8258 15.588 18.8996 15.6975 18.9535C15.934 19.0753 16.1601 19.2187 16.4027 19.3281C16.4 19.131 16.3194 18.9486 16.2755 18.7597C16.1403 18.2658 16.0178 17.7688 15.8786 17.2762C15.8654 17.2263 15.8453 17.1787 15.8237 17.1322C15.7752 16.8415 15.6711 16.5633 15.6119 16.2746C15.5529 16.1418 15.5412 15.9953 15.4998 15.8575C15.4259 15.6199 15.3664 15.3783 15.3118 15.1359C15.1802 15.1164 15.0756 15.2089 14.9561 15.2448C14.729 15.3206 14.5113 15.4216 14.2859 15.5022C14.0949 15.5831 13.8967 15.6454 13.7067 15.7283C13.6503 15.7532 13.5921 15.7736 13.5332 15.7911C13.3071 15.8926 13.0698 15.9653 12.8429 16.0648C12.6206 16.1464 12.3978 16.2273 12.1813 16.3239C11.9926 16.3962 11.7997 16.4603 11.6176 16.5485C11.566 16.5633 11.5142 16.5778 11.4623 16.592C11.4596 16.6144 11.4545 16.6591 11.4517 16.6813C11.8168 16.8692 12.1778 17.0651 12.5378 17.2627C12.5314 17.3092 12.5296 17.3586 12.5058 17.401C12.3597 17.6767 12.226 17.9608 12.0467 18.2172C11.7665 18.6419 11.4674 19.0547 11.1397 19.4438C11.0015 19.6076 10.847 19.7572 10.7136 19.9248C10.5465 20.0636 10.3884 20.217 10.2505 20.3854C10.1476 20.4535 10.0602 20.5413 9.96671 20.6216C9.78709 20.4553 9.61535 20.2806 9.44259 20.1074C9.12934 19.7567 8.84098 19.3843 8.56635 19.0028C8.48988 18.8619 8.37809 18.7439 8.3067 18.6C8.21346 18.4039 8.08897 18.2248 7.98659 18.0336C7.9401 17.8827 7.87176 17.7401 7.79224 17.604C7.699 17.4137 7.6304 17.2126 7.55088 17.0165C7.59814 16.9946 7.57984 16.9389 7.56308 16.9051C7.54859 16.9369 7.5397 16.9707 7.53665 17.0063C7.51938 16.9117 7.48737 16.8212 7.45383 16.7316C7.29225 16.224 7.16471 15.7039 7.09815 15.1749C7.06995 14.9633 7.03235 14.7522 7.03743 14.538C7.00822 14.1405 7.00491 13.7407 7.03667 13.3434C7.04607 13.2485 7.02498 13.1425 7.0608 13.057L7.07376 13.0616C7.07681 13.0667 7.08265 13.0771 7.08545 13.0822C7.08088 13.0423 7.07427 13.0023 7.0763 12.9624C7.11771 12.5972 7.17488 12.2335 7.26151 11.8762C7.30622 11.6722 7.37355 11.4743 7.42309 11.2716C7.43681 11.2665 7.46399 11.2564 7.47771 11.2513C7.69265 11.4662 7.91723 11.6714 8.15986 11.8548C8.3471 11.9865 8.52697 12.1285 8.71472 12.2592C9.37857 12.6926 10.0803 13.0662 10.7998 13.3973C10.9248 13.4655 11.0711 13.493 11.1816 13.5871C11.1857 13.6117 11.1819 13.6354 11.1702 13.6578C11.0462 13.8821 10.927 14.1089 10.8066 14.3356C10.7589 14.4152 10.7159 14.4976 10.6859 14.5858C10.8491 14.5957 10.9984 14.5243 11.1557 14.496C11.2985 14.4683 11.4301 14.4007 11.5754 14.3839C12.3353 14.1687 13.0992 13.9703 13.8617 13.7659C14.0453 13.7297 14.2196 13.656 14.4053 13.6295C14.4221 13.6166 14.4391 13.6038 14.4562 13.5914C14.6017 13.5888 14.7308 13.5105 14.8751 13.4996C14.791 13.2109 14.6609 12.939 14.5616 12.6557C14.3512 12.1241 14.1475 11.59 13.943 11.0562C13.8777 10.9219 13.8416 10.7759 13.7717 10.6439C13.6643 10.3202 13.5276 10.0071 13.4079 9.68763C13.3945 9.65457 13.3792 9.59022 13.3292 9.62024C13.2885 9.67365 13.2626 9.7357 13.2331 9.79547C13.1681 9.93306 13.0809 10.06 13.0299 10.2042C12.9163 10.3639 12.8365 10.5442 12.7448 10.7167C12.6097 10.7195 12.4928 10.6472 12.3782 10.5854C11.8386 10.3174 11.3559 9.95265 10.8757 9.59226C10.6837 9.43152 10.4842 9.27968 10.3005 9.10928C9.93191 8.75271 9.56174 8.39512 9.24367 7.992C9.38492 7.81015 9.55793 7.6573 9.71469 7.48918C9.88186 7.33328 10.0432 7.16949 10.2264 7.03139C10.4466 6.87217 10.6369 6.67227 10.8724 6.53417C11.159 6.34927 11.4319 6.13741 11.7474 6.00185C12.0894 5.79609 12.4623 5.64858 12.8315 5.49852C13.1864 5.37009 13.5469 5.25462 13.9145 5.16764Z" fill="#F9A332"/>
<path d="M8.24321 5.34351C8.42486 5.28323 8.61718 5.28985 8.8057 5.29086C9.0097 5.2962 9.21625 5.27357 9.41721 5.31935C9.79881 5.3491 10.1753 5.43532 10.5366 5.56071C10.8145 5.65074 11.0932 5.74001 11.361 5.85828C11.4865 5.91347 11.611 5.97731 11.7474 6.00172C11.4319 6.13728 11.159 6.34914 10.8725 6.53404C10.6369 6.67214 10.4467 6.87205 10.2264 7.03126C10.0432 7.16936 9.88188 7.33315 9.71471 7.48906C9.55796 7.65717 9.38495 7.81003 9.24369 7.99187C8.7714 7.39292 8.35652 6.70953 8.24931 5.94094C8.21933 5.74739 8.24931 5.55181 8.2455 5.35852L8.24321 5.34351Z" fill="#9D6B36"/>
<path d="M6.41907 7.67154C6.92541 6.82589 7.55445 6.05907 8.24549 5.35864C8.2493 5.55194 8.21932 5.74752 8.2493 5.94106C8.35651 6.70966 8.77139 7.39305 9.24368 7.992C9.56176 8.39512 9.93192 8.75271 10.3006 9.10928C10.4842 9.27969 10.6837 9.43152 10.8757 9.59226C11.3559 9.95265 11.8386 10.3174 12.3782 10.5854C12.4928 10.6472 12.6097 10.7195 12.7448 10.7167C12.8366 10.5442 12.9163 10.3639 13.0299 10.2042C13.081 10.06 13.1681 9.93307 13.2331 9.79547C13.2626 9.7357 13.2885 9.67365 13.3292 9.62024C13.3792 9.59023 13.3945 9.65457 13.4079 9.68764C13.5276 10.0071 13.6643 10.3202 13.7717 10.6439C13.8416 10.7759 13.8777 10.9219 13.943 11.0562C14.1475 11.59 14.3512 12.1241 14.5616 12.6557C14.6609 12.939 14.791 13.2109 14.8751 13.4996C14.7308 13.5105 14.6017 13.5888 14.4562 13.5914C14.4392 13.6038 14.4221 13.6166 14.4054 13.6295C14.2196 13.656 14.0454 13.7297 13.8617 13.7659C13.0993 13.9703 12.3353 14.1687 11.5754 14.3839C11.4301 14.4007 11.2985 14.4683 11.1557 14.496C10.9985 14.5243 10.8491 14.5957 10.686 14.5858C10.7159 14.4976 10.7589 14.4152 10.8066 14.3356C10.9271 14.109 11.0462 13.8821 11.1702 13.6578C11.1819 13.6354 11.1857 13.6117 11.1816 13.5871C11.0711 13.493 10.9248 13.4655 10.7998 13.3973C10.0803 13.0662 9.37858 12.6926 8.71473 12.2592C8.52698 12.1285 8.34711 11.9865 8.15987 11.8548C7.91725 11.6714 7.69266 11.4662 7.47773 11.2513C7.45842 11.2314 7.43962 11.2116 7.42107 11.1915C7.17565 10.9247 6.95005 10.6386 6.76332 10.327C6.43025 9.84965 6.16222 9.32343 6.0047 8.76136C5.99378 8.69447 6.00064 8.62529 6.0202 8.56069C6.09997 8.24328 6.26028 7.95487 6.41907 7.67154Z" fill="#FEFEFE"/>
<path d="M23.3347 6.5028C23.7346 6.33392 24.1672 6.19964 24.6062 6.24745C24.6756 6.26195 24.7511 6.2594 24.8148 6.29247C24.8532 6.61496 24.8631 6.94178 24.8316 7.26554C24.811 7.77268 24.6769 8.26736 24.5072 8.74296C24.4414 8.93422 24.3806 9.12802 24.2973 9.31292C24.2219 9.48739 24.1685 9.67585 24.0621 9.8343C24.087 9.90399 24.1157 9.97266 24.135 10.0444C24.0557 9.93171 24.0191 9.79717 23.9536 9.67738C23.8687 9.52707 23.7917 9.37192 23.6909 9.23153C23.5311 8.94872 23.3375 8.68752 23.148 8.42454C23.0552 8.32153 22.98 8.20403 22.8825 8.10509C22.6261 7.82736 22.3959 7.51886 22.0875 7.29454C22.4691 6.98145 22.8845 6.70652 23.3347 6.5028Z" fill="#9D6B36"/>
<path d="M7.42112 11.1914C7.43967 11.2115 7.45847 11.2313 7.47777 11.2512C7.46406 11.2563 7.43687 11.2664 7.42315 11.2715C7.37361 11.4742 7.30629 11.6721 7.26157 11.8761C7.17494 12.2334 7.11778 12.5971 7.07636 12.9623C7.07433 13.0023 7.08094 13.0422 7.08551 13.0821C7.08272 13.077 7.07687 13.0666 7.07382 13.0615C7.03902 12.926 7.08068 12.7889 7.09542 12.6538C7.15309 12.1563 7.28571 11.6721 7.42112 11.1914Z" fill="#9D6B36"/>
<path d="M21.1321 13.5039C21.1946 13.4769 21.2627 13.4718 21.3305 13.4731C21.2932 13.5824 21.219 13.6727 21.1745 13.7785C21.0823 13.9792 20.9512 14.1618 20.8798 14.3711C20.8549 14.3902 20.83 14.4093 20.8054 14.4286C20.814 14.4642 20.8226 14.5059 20.8635 14.5181C21.0579 14.5965 21.2487 14.684 21.4349 14.7801C21.6524 14.891 21.8785 14.9848 22.0899 15.1077C22.9725 15.5764 23.8335 16.1164 24.5385 16.8328C24.7943 17.1042 25.0265 17.3977 25.2227 17.7156C25.544 18.1762 25.8095 18.6798 25.9729 19.2187C26.04 19.395 25.9663 19.5819 25.9084 19.75C25.7099 20.2495 25.4089 20.6994 25.101 21.1366C24.7908 21.5575 24.4663 21.9698 24.1048 22.3478C24.0083 22.4487 23.913 22.5505 23.8195 22.6542C23.7867 22.7036 23.7364 22.7404 23.677 22.7486C23.7009 22.7178 23.7407 22.6972 23.7489 22.6563C23.8081 22.2201 23.7153 21.7747 23.5464 21.3721C23.3332 20.8607 23.0258 20.3917 22.6684 19.97C22.5378 19.811 22.3892 19.6671 22.2672 19.5015C22.1628 19.4308 22.0833 19.3321 21.9926 19.2462C21.9237 19.1806 21.8579 19.1121 21.8008 19.0361C21.6582 18.945 21.5505 18.8108 21.4123 18.7136C21.1036 18.4509 20.7833 18.2011 20.4428 17.9811C20.2858 17.8565 20.1001 17.7738 19.9477 17.6436C19.8991 17.6299 19.8504 17.6151 19.8089 17.5861C19.6855 17.5025 19.5457 17.4485 19.4157 17.3768C19.3712 17.3506 19.3196 17.3458 19.2698 17.3402C19.1281 17.6027 18.9891 17.8662 18.8471 18.1281C18.7749 18.2479 18.7284 18.3832 18.6342 18.4888C18.3443 17.7087 18.0283 16.9389 17.7343 16.1601C17.6388 15.9419 17.5603 15.7165 17.4749 15.4945C17.3774 15.2763 17.308 15.0471 17.2125 14.8284C17.1853 14.7445 17.1599 14.6603 17.1416 14.5743C17.3893 14.524 17.6258 14.4306 17.8733 14.3826C18.9584 14.0868 20.045 13.7923 21.1321 13.5039Z" fill="#FEFEFE"/>
<path d="M14.9562 15.2447C15.0756 15.2089 15.1802 15.1163 15.3118 15.1359C15.3665 15.3782 15.4259 15.6199 15.4998 15.8574C15.5412 15.9953 15.5529 16.1418 15.6119 16.2745C15.6711 16.5632 15.7752 16.8414 15.8238 17.1321C15.8454 17.1787 15.8654 17.2262 15.8786 17.2761C16.0179 17.7687 16.1403 18.2657 16.2755 18.7596C16.3194 18.9486 16.4 19.1309 16.4028 19.328C16.1601 19.2187 15.934 19.0752 15.6975 18.9534C15.588 18.8995 15.4841 18.8257 15.3588 18.8161C15.3515 18.8746 15.3446 18.9333 15.3383 18.9923C15.3256 18.9966 15.2996 19.0053 15.2867 19.0096C15.213 19.1861 15.1348 19.3606 15.0415 19.5277C14.9963 19.6551 14.916 19.7668 14.8779 19.8967C14.7372 20.1259 14.6208 20.3695 14.4823 20.6002C14.3962 20.723 14.3454 20.8662 14.2588 20.9886C14.1683 21.1129 14.1074 21.2602 13.9869 21.3609C13.9803 21.3823 13.974 21.4041 13.9676 21.4263C13.9376 21.4642 13.9077 21.5026 13.8805 21.5428C13.6574 21.8719 13.3973 22.174 13.1226 22.4609C12.8904 22.6806 12.6521 22.8966 12.3859 23.0749C12.0281 23.3119 11.6722 23.5558 11.2802 23.7336C11.0429 23.8409 10.7995 23.9429 10.5445 23.9999C10.3808 24.0027 10.2254 23.9414 10.075 23.8836C9.68421 23.715 9.31812 23.4945 8.96879 23.2521C8.32145 22.8101 7.72035 22.3012 7.1665 21.7465C7.35781 21.7564 7.55038 21.7831 7.74093 21.7488C8.07755 21.7129 8.40046 21.6015 8.70482 21.4568C9.16339 21.2414 9.57751 20.9433 9.96672 20.6216C10.0602 20.5412 10.1476 20.4535 10.2505 20.3853C10.3885 20.2169 10.5465 20.0636 10.7137 19.9247C10.847 19.7571 11.0015 19.6075 11.1397 19.4438C11.4674 19.0546 11.7665 18.6418 12.0467 18.2171C12.2261 17.9607 12.3597 17.6766 12.5058 17.401C12.5297 17.3585 12.5314 17.3091 12.5378 17.2626C12.1778 17.065 11.8168 16.8691 11.4517 16.6812C11.4545 16.6591 11.4596 16.6143 11.4624 16.5919C11.5142 16.5777 11.566 16.5632 11.6176 16.5484C11.7997 16.4602 11.9926 16.3961 12.1813 16.3239C12.3978 16.2272 12.6206 16.1463 12.8429 16.0647C13.0698 15.9652 13.3071 15.8925 13.5332 15.791C13.5921 15.7735 13.6503 15.7531 13.7067 15.7282C13.8967 15.6453 14.0949 15.583 14.286 15.5021C14.5113 15.4215 14.729 15.3205 14.9562 15.2447Z" fill="#FEFEFE"/>
<path d="M7.79224 17.604C7.87176 17.7401 7.9401 17.8828 7.98659 18.0336C8.08898 18.2248 8.21347 18.4039 8.30671 18.6C8.3781 18.7439 8.48988 18.8619 8.56635 19.0028C8.84099 19.3843 9.12934 19.7567 9.4426 20.1074C9.61536 20.2806 9.7871 20.4553 9.96672 20.6217C9.5775 20.9434 9.16339 21.2415 8.70481 21.4569C8.40045 21.6016 8.07755 21.713 7.74092 21.7489C7.55038 21.7832 7.3578 21.7565 7.1665 21.7466C7.16192 21.7463 7.15278 21.7458 7.14795 21.7456C7.08088 21.391 7.09307 21.0268 7.12178 20.669C7.15329 20.1489 7.2953 19.6432 7.47695 19.1577C7.60297 18.7584 7.77827 18.3759 7.95585 17.9982C7.91774 17.8619 7.82095 17.7457 7.79224 17.604Z" fill="#9D6B36"/>
<path d="M22.4077 20.2715C22.4987 20.1743 22.6133 20.096 22.6684 19.9701C23.0259 20.3918 23.3333 20.8608 23.5464 21.3722C23.7154 21.7748 23.8081 22.2202 23.7489 22.6564C23.7408 22.6973 23.7009 22.7179 23.677 22.7487L23.6691 22.7573C23.4077 22.7772 23.1445 22.7988 22.8823 22.7741C22.737 22.7767 22.5929 22.7624 22.4509 22.7321C22.1201 22.7065 21.7972 22.6202 21.4832 22.5162C21.2566 22.4498 21.0333 22.3723 20.8178 22.2756C20.672 22.2321 20.5341 22.167 20.3926 22.1116C20.2858 22.062 20.184 21.9979 20.0648 21.9826C20.4291 21.8048 20.7828 21.6044 21.1075 21.361C21.2434 21.2578 21.3961 21.1774 21.5229 21.0619C21.8239 20.8056 22.1461 20.5706 22.4077 20.2715Z" fill="#9D6B36"/>
</g>
<g filter="url(#filter1_d_44_23)">
<path d="M33.5542 18.4999H32.2729L35.1519 10.4999H36.5464L39.4253 18.4999H38.144L35.8823 11.9531H35.8198L33.5542 18.4999ZM33.769 15.3671H37.9253V16.3827H33.769V15.3671ZM44.8677 12.4999L42.6919 18.4999H41.4419L39.2622 12.4999H40.5161L42.0356 17.1171H42.0981L43.6138 12.4999H44.8677ZM47.5395 18.6327C47.1593 18.6327 46.8156 18.5624 46.5083 18.4218C46.201 18.2786 45.9575 18.0716 45.7778 17.8007C45.6007 17.5299 45.5122 17.1979 45.5122 16.8046C45.5122 16.4661 45.5773 16.1874 45.7075 15.9687C45.8377 15.7499 46.0135 15.5768 46.2349 15.4492C46.4562 15.3216 46.7036 15.2252 46.977 15.1601C47.2505 15.095 47.5291 15.0455 47.813 15.0117C48.1724 14.97 48.464 14.9361 48.688 14.9101C48.9119 14.8814 49.0747 14.8359 49.1763 14.7734C49.2778 14.7109 49.3286 14.6093 49.3286 14.4687V14.4413C49.3286 14.1002 49.2323 13.8359 49.0395 13.6484C48.8494 13.4609 48.5656 13.3671 48.188 13.3671C47.7948 13.3671 47.4849 13.4544 47.2583 13.6288C47.0343 13.8007 46.8794 13.9921 46.7935 14.2031L45.6958 13.9531C45.826 13.5885 46.0161 13.2942 46.2661 13.0702C46.5187 12.8437 46.8091 12.6796 47.1372 12.5781C47.4653 12.4739 47.8104 12.4218 48.1724 12.4218C48.4119 12.4218 48.6658 12.4505 48.9341 12.5078C49.2049 12.5624 49.4575 12.664 49.6919 12.8124C49.9289 12.9609 50.1229 13.1731 50.2739 13.4492C50.425 13.7226 50.5005 14.0781 50.5005 14.5156V18.4999H49.3599V17.6796H49.313C49.2375 17.8307 49.1242 17.9791 48.9731 18.1249C48.8221 18.2708 48.6281 18.3919 48.3911 18.4882C48.1541 18.5846 47.8703 18.6327 47.5395 18.6327ZM47.7935 17.6952C48.1164 17.6952 48.3924 17.6314 48.6216 17.5038C48.8533 17.3762 49.0291 17.2096 49.1489 17.0038C49.2713 16.7955 49.3325 16.5729 49.3325 16.3359V15.5624C49.2908 15.6041 49.2101 15.6432 49.0903 15.6796C48.9731 15.7135 48.839 15.7434 48.688 15.7695C48.5369 15.7929 48.3898 15.815 48.2466 15.8359C48.1033 15.8541 47.9836 15.8697 47.8872 15.8827C47.6606 15.9114 47.4536 15.9596 47.2661 16.0273C47.0812 16.095 46.9328 16.1926 46.8208 16.3202C46.7114 16.4452 46.6567 16.6119 46.6567 16.8202C46.6567 17.1093 46.7635 17.3281 46.977 17.4765C47.1906 17.6223 47.4627 17.6952 47.7935 17.6952ZM52.0561 18.4999V12.4999H53.2241V18.4999H52.0561ZM52.646 11.5742C52.4429 11.5742 52.2684 11.5064 52.1226 11.371C51.9793 11.233 51.9077 11.0689 51.9077 10.8788C51.9077 10.6861 51.9793 10.5221 52.1226 10.3867C52.2684 10.2486 52.4429 10.1796 52.646 10.1796C52.8491 10.1796 53.0223 10.2486 53.1655 10.3867C53.3114 10.5221 53.3843 10.6861 53.3843 10.8788C53.3843 11.0689 53.3114 11.233 53.1655 11.371C53.0223 11.5064 52.8491 11.5742 52.646 11.5742ZM55.9634 10.4999V18.4999H54.7954V10.4999H55.9634ZM59.2808 18.6327C58.9005 18.6327 58.5568 18.5624 58.2495 18.4218C57.9422 18.2786 57.6987 18.0716 57.519 17.8007C57.342 17.5299 57.2534 17.1979 57.2534 16.8046C57.2534 16.4661 57.3185 16.1874 57.4487 15.9687C57.5789 15.7499 57.7547 15.5768 57.9761 15.4492C58.1974 15.3216 58.4448 15.2252 58.7183 15.1601C58.9917 15.095 59.2703 15.0455 59.5542 15.0117C59.9136 14.97 60.2052 14.9361 60.4292 14.9101C60.6531 14.8814 60.8159 14.8359 60.9175 14.7734C61.019 14.7109 61.0698 14.6093 61.0698 14.4687V14.4413C61.0698 14.1002 60.9735 13.8359 60.7808 13.6484C60.5906 13.4609 60.3068 13.3671 59.9292 13.3671C59.536 13.3671 59.2261 13.4544 58.9995 13.6288C58.7755 13.8007 58.6206 13.9921 58.5347 14.2031L57.437 13.9531C57.5672 13.5885 57.7573 13.2942 58.0073 13.0702C58.2599 12.8437 58.5503 12.6796 58.8784 12.5781C59.2065 12.4739 59.5516 12.4218 59.9136 12.4218C60.1531 12.4218 60.4071 12.4505 60.6753 12.5078C60.9461 12.5624 61.1987 12.664 61.4331 12.8124C61.6701 12.9609 61.8641 13.1731 62.0151 13.4492C62.1662 13.7226 62.2417 14.0781 62.2417 14.5156V18.4999H61.1011V17.6796H61.0542C60.9787 17.8307 60.8654 17.9791 60.7143 18.1249C60.5633 18.2708 60.3693 18.3919 60.1323 18.4882C59.8953 18.5846 59.6115 18.6327 59.2808 18.6327ZM59.5347 17.6952C59.8576 17.6952 60.1336 17.6314 60.3628 17.5038C60.5946 17.3762 60.7703 17.2096 60.8901 17.0038C61.0125 16.7955 61.0737 16.5729 61.0737 16.3359V15.5624C61.0321 15.6041 60.9513 15.6432 60.8315 15.6796C60.7143 15.7135 60.5802 15.7434 60.4292 15.7695C60.2781 15.7929 60.131 15.815 59.9878 15.8359C59.8446 15.8541 59.7248 15.8697 59.6284 15.8827C59.4018 15.9114 59.1948 15.9596 59.0073 16.0273C58.8224 16.095 58.674 16.1926 58.562 16.3202C58.4526 16.4452 58.3979 16.6119 58.3979 16.8202C58.3979 17.1093 58.5047 17.3281 58.7183 17.4765C58.9318 17.6223 59.2039 17.6952 59.5347 17.6952ZM63.8911 18.4999V10.4999H65.0591V13.4726H65.1294C65.1971 13.3476 65.2947 13.2031 65.4224 13.039C65.55 12.8749 65.727 12.7317 65.9536 12.6093C66.1802 12.4843 66.4796 12.4218 66.852 12.4218C67.3364 12.4218 67.7687 12.5442 68.1489 12.789C68.5291 13.0338 68.8273 13.3867 69.0434 13.8476C69.2622 14.3085 69.3716 14.8632 69.3716 15.5117C69.3716 16.1601 69.2635 16.7161 69.0474 17.1796C68.8312 17.6406 68.5343 17.996 68.1567 18.246C67.7791 18.4934 67.3481 18.6171 66.8638 18.6171C66.4992 18.6171 66.201 18.5559 65.9692 18.4335C65.7401 18.3111 65.5604 18.1679 65.4302 18.0038C65.3 17.8398 65.1997 17.6939 65.1294 17.5663H65.0317V18.4999H63.8911ZM65.0356 15.4999C65.0356 15.9218 65.0968 16.2916 65.2192 16.6093C65.3416 16.927 65.5187 17.1757 65.7505 17.3554C65.9822 17.5325 66.2661 17.621 66.602 17.621C66.951 17.621 67.2427 17.5286 67.477 17.3437C67.7114 17.1562 67.8885 16.9023 68.0083 16.582C68.1307 16.2617 68.1919 15.901 68.1919 15.4999C68.1919 15.1041 68.132 14.7486 68.0122 14.4335C67.895 14.1184 67.7179 13.8697 67.4809 13.6874C67.2466 13.5051 66.9536 13.414 66.602 13.414C66.2635 13.414 65.977 13.5012 65.7427 13.6757C65.5109 13.8502 65.3351 14.0937 65.2153 14.4062C65.0955 14.7187 65.0356 15.0833 65.0356 15.4999ZM71.8511 10.4999V18.4999H70.6831V10.4999H71.8511ZM76.0083 18.621C75.4171 18.621 74.908 18.4947 74.4809 18.2421C74.0565 17.9869 73.7283 17.6288 73.4966 17.1679C73.2674 16.7044 73.1528 16.1614 73.1528 15.539C73.1528 14.9244 73.2674 14.3827 73.4966 13.914C73.7283 13.4452 74.0513 13.0794 74.4653 12.8163C74.882 12.5533 75.369 12.4218 75.9263 12.4218C76.2648 12.4218 76.5929 12.4778 76.9106 12.5898C77.2283 12.7018 77.5135 12.8775 77.7661 13.1171C78.0187 13.3567 78.2179 13.6679 78.3638 14.0507C78.5096 14.4309 78.5825 14.8932 78.5825 15.4374V15.8515H73.813V14.9765H77.438C77.438 14.6692 77.3755 14.3971 77.2505 14.1601C77.1255 13.9205 76.9497 13.7317 76.7231 13.5937C76.4992 13.4557 76.2362 13.3867 75.9341 13.3867C75.6059 13.3867 75.3195 13.4674 75.0747 13.6288C74.8325 13.7877 74.645 13.996 74.5122 14.2538C74.382 14.5091 74.3169 14.7864 74.3169 15.0859V15.7695C74.3169 16.1705 74.3872 16.5117 74.5278 16.7929C74.671 17.0742 74.8703 17.289 75.1255 17.4374C75.3807 17.5833 75.6789 17.6562 76.02 17.6562C76.2414 17.6562 76.4432 17.6249 76.6255 17.5624C76.8078 17.4973 76.9653 17.401 77.0981 17.2734C77.2309 17.1458 77.3325 16.9882 77.4028 16.8007L78.5083 16.9999C78.4197 17.3255 78.2609 17.6106 78.0317 17.8554C77.8052 18.0976 77.52 18.2864 77.1763 18.4218C76.8351 18.5546 76.4458 18.621 76.0083 18.621ZM85.3169 18.621C84.7544 18.621 84.2635 18.4921 83.8442 18.2343C83.425 17.9765 83.0994 17.6158 82.8677 17.1523C82.6359 16.6887 82.52 16.1471 82.52 15.5273C82.52 14.9049 82.6359 14.3606 82.8677 13.8945C83.0994 13.4283 83.425 13.0663 83.8442 12.8085C84.2635 12.5507 84.7544 12.4218 85.3169 12.4218C85.8794 12.4218 86.3703 12.5507 86.7895 12.8085C87.2088 13.0663 87.5343 13.4283 87.7661 13.8945C87.9979 14.3606 88.1138 14.9049 88.1138 15.5273C88.1138 16.1471 87.9979 16.6887 87.7661 17.1523C87.5343 17.6158 87.2088 17.9765 86.7895 18.2343C86.3703 18.4921 85.8794 18.621 85.3169 18.621ZM85.3208 17.6406C85.6854 17.6406 85.9875 17.5442 86.227 17.3515C86.4666 17.1588 86.6437 16.9023 86.7583 16.582C86.8755 16.2617 86.9341 15.9088 86.9341 15.5234C86.9341 15.1406 86.8755 14.789 86.7583 14.4687C86.6437 14.1458 86.4666 13.8867 86.227 13.6913C85.9875 13.496 85.6854 13.3984 85.3208 13.3984C84.9536 13.3984 84.6489 13.496 84.4067 13.6913C84.1671 13.8867 83.9888 14.1458 83.8716 14.4687C83.757 14.789 83.6997 15.1406 83.6997 15.5234C83.6997 15.9088 83.757 16.2617 83.8716 16.582C83.9888 16.9023 84.1671 17.1588 84.4067 17.3515C84.6489 17.5442 84.9536 17.6406 85.3208 17.6406ZM90.5854 14.9374V18.4999H89.4175V12.4999H90.5386V13.4765H90.6128C90.7508 13.1588 90.9669 12.9036 91.2612 12.7109C91.5581 12.5182 91.9318 12.4218 92.3823 12.4218C92.7912 12.4218 93.1492 12.5078 93.4565 12.6796C93.7638 12.8489 94.0021 13.1015 94.1714 13.4374C94.3406 13.7734 94.4253 14.1887 94.4253 14.6835V18.4999H93.2573V14.8242C93.2573 14.3893 93.144 14.0494 92.9175 13.8046C92.6909 13.5572 92.3797 13.4335 91.9839 13.4335C91.713 13.4335 91.4722 13.4921 91.2612 13.6093C91.0529 13.7265 90.8875 13.8984 90.7651 14.1249C90.6453 14.3489 90.5854 14.6197 90.5854 14.9374Z" fill="#E8E8E8"/>
<path d="M106.588 9.77267V18.4999H104.798L101.325 13.463H101.269V18.4999H99.16V9.77267H100.975L104.41 14.8011H104.482V9.77267H106.588ZM110.974 18.6235C110.289 18.6235 109.698 18.4886 109.201 18.2187C108.707 17.946 108.326 17.5582 108.059 17.0553C107.795 16.5497 107.663 15.9488 107.663 15.2528C107.663 14.5766 107.796 13.9857 108.063 13.4801C108.33 12.9715 108.707 12.5766 109.192 12.2954C109.678 12.0113 110.251 11.8693 110.91 11.8693C111.376 11.8693 111.802 11.9417 112.188 12.0866C112.574 12.2315 112.908 12.446 113.189 12.7301C113.471 13.0141 113.689 13.365 113.846 13.7826C114.002 14.1974 114.08 14.6732 114.08 15.2102V15.7301H108.391V14.5198H112.141C112.138 14.2982 112.086 14.1008 111.984 13.9275C111.881 13.7542 111.741 13.6193 111.562 13.5227C111.386 13.4232 111.182 13.3735 110.952 13.3735C110.719 13.3735 110.511 13.4261 110.326 13.5312C110.141 13.6335 109.995 13.7741 109.887 13.9531C109.779 14.1292 109.722 14.3295 109.716 14.5539V15.7854C109.716 16.0525 109.769 16.2869 109.874 16.4886C109.979 16.6874 110.128 16.8423 110.322 16.9531C110.515 17.0639 110.745 17.1193 111.012 17.1193C111.197 17.1193 111.364 17.0937 111.515 17.0425C111.665 16.9914 111.795 16.9161 111.903 16.8167C112.011 16.7173 112.091 16.5951 112.145 16.4502L114.059 16.5056C113.979 16.9346 113.805 17.3082 113.535 17.6264C113.268 17.9417 112.917 18.1874 112.482 18.3636C112.047 18.5369 111.545 18.6235 110.974 18.6235ZM116.823 11.9545L117.901 14.1107L119.018 11.9545H121.119L119.291 15.2272L121.187 18.4999H119.103L117.901 16.3266L116.73 18.4999H114.616L116.517 15.2272L114.71 11.9545H116.823ZM126.293 15.6747V11.9545H128.373V18.4999H126.387V17.2812H126.319C126.174 17.6818 125.927 17.9999 125.577 18.2357C125.231 18.4687 124.812 18.5852 124.32 18.5852C123.874 18.5852 123.482 18.4829 123.144 18.2783C122.806 18.0738 122.543 17.7883 122.356 17.4218C122.168 17.0525 122.073 16.6207 122.07 16.1264V11.9545H124.154V15.7173C124.157 16.0724 124.251 16.3522 124.435 16.5568C124.62 16.7613 124.871 16.8636 125.189 16.8636C125.397 16.8636 125.583 16.8181 125.748 16.7272C125.915 16.6335 126.047 16.4985 126.144 16.3224C126.243 16.1434 126.293 15.9275 126.293 15.6747ZM135.414 13.9531L133.5 14.0042C133.48 13.8678 133.426 13.7471 133.338 13.642C133.25 13.534 133.135 13.4502 132.993 13.3906C132.854 13.3281 132.692 13.2968 132.507 13.2968C132.266 13.2968 132.06 13.3451 131.889 13.4417C131.722 13.5383 131.639 13.669 131.642 13.8337C131.639 13.9616 131.691 14.0724 131.796 14.1661C131.904 14.2599 132.095 14.3352 132.371 14.392L133.632 14.6306C134.286 14.7556 134.772 14.963 135.09 15.2528C135.411 15.5426 135.573 15.9261 135.575 16.4033C135.573 16.8522 135.439 17.2428 135.175 17.5752C134.914 17.9076 134.556 18.1661 134.101 18.3508C133.647 18.5326 133.127 18.6235 132.541 18.6235C131.607 18.6235 130.87 18.4318 130.33 18.0482C129.793 17.6619 129.486 17.1448 129.409 16.4971L131.468 16.446C131.513 16.6846 131.631 16.8664 131.821 16.9914C132.012 17.1164 132.254 17.1789 132.55 17.1789C132.817 17.1789 133.034 17.1292 133.202 17.0298C133.37 16.9303 133.455 16.7982 133.458 16.6335C133.455 16.4857 133.389 16.3678 133.262 16.2798C133.134 16.1889 132.933 16.1178 132.661 16.0667L131.519 15.8494C130.862 15.7301 130.374 15.5099 130.053 15.1889C129.732 14.865 129.573 14.4531 129.575 13.9531C129.573 13.5156 129.689 13.142 129.925 12.8323C130.161 12.5198 130.496 12.2812 130.931 12.1164C131.365 11.9516 131.878 11.8693 132.469 11.8693C133.355 11.8693 134.054 12.0553 134.566 12.4275C135.077 12.7968 135.36 13.3053 135.414 13.9531ZM136.601 9.77267H139.214L141.43 15.1761H141.532L143.748 9.77267H146.36V18.4999H144.306V13.1391H144.234L142.137 18.4445H140.824L138.728 13.1093H138.655V18.4999H136.601V9.77267ZM150.731 18.6235C150.044 18.6235 149.453 18.4829 148.958 18.2016C148.467 17.9175 148.088 17.5227 147.821 17.017C147.556 16.5085 147.424 15.919 147.424 15.2485C147.424 14.5752 147.556 13.9857 147.821 13.4801C148.088 12.9715 148.467 12.5766 148.958 12.2954C149.453 12.0113 150.044 11.8693 150.731 11.8693C151.419 11.8693 152.008 12.0113 152.499 12.2954C152.994 12.5766 153.373 12.9715 153.637 13.4801C153.904 13.9857 154.038 14.5752 154.038 15.2485C154.038 15.919 153.904 16.5085 153.637 17.017C153.373 17.5227 152.994 17.9175 152.499 18.2016C152.008 18.4829 151.419 18.6235 150.731 18.6235ZM150.744 17.0511C150.994 17.0511 151.205 16.9744 151.379 16.821C151.552 16.6675 151.684 16.4545 151.775 16.1818C151.869 15.909 151.916 15.5937 151.916 15.2357C151.916 14.8721 151.869 14.5539 151.775 14.2812C151.684 14.0085 151.552 13.7954 151.379 13.642C151.205 13.4886 150.994 13.4119 150.744 13.4119C150.485 13.4119 150.267 13.4886 150.088 13.642C149.911 13.7954 149.776 14.0085 149.683 14.2812C149.592 14.5539 149.546 14.8721 149.546 15.2357C149.546 15.5937 149.592 15.909 149.683 16.1818C149.776 16.4545 149.911 16.6675 150.088 16.821C150.267 16.9744 150.485 17.0511 150.744 17.0511ZM157.496 18.5937C157.013 18.5937 156.574 18.4687 156.179 18.2187C155.784 17.9687 155.469 17.5937 155.233 17.0937C154.997 16.5937 154.879 15.9729 154.879 15.2315C154.879 14.4616 155.002 13.8281 155.246 13.3309C155.49 12.8337 155.81 12.4658 156.205 12.2272C156.602 11.9886 157.03 11.8693 157.487 11.8693C157.831 11.8693 158.125 11.9289 158.37 12.0482C158.614 12.1647 158.816 12.3153 158.975 12.4999C159.134 12.6846 159.254 12.8764 159.337 13.0752H159.379V9.77267H161.463V18.4999H159.401V17.4389H159.337C159.249 17.6406 159.124 17.8295 158.962 18.0056C158.8 18.1818 158.597 18.3238 158.352 18.4318C158.111 18.5397 157.825 18.5937 157.496 18.5937ZM158.22 16.9701C158.473 16.9701 158.689 16.8991 158.868 16.757C159.047 16.6122 159.185 16.409 159.281 16.1477C159.378 15.8863 159.426 15.5795 159.426 15.2272C159.426 14.8693 159.378 14.561 159.281 14.3025C159.188 14.044 159.05 13.8451 158.868 13.7059C158.689 13.5667 158.473 13.4971 158.22 13.4971C157.962 13.4971 157.743 13.5681 157.564 13.7102C157.385 13.8522 157.249 14.0525 157.155 14.311C157.064 14.5695 157.019 14.8749 157.019 15.2272C157.019 15.5795 157.066 15.8863 157.159 16.1477C157.253 16.409 157.388 16.6122 157.564 16.757C157.743 16.8991 157.962 16.9701 158.22 16.9701ZM168.496 13.9531L166.582 14.0042C166.562 13.8678 166.508 13.7471 166.42 13.642C166.332 13.534 166.217 13.4502 166.075 13.3906C165.936 13.3281 165.774 13.2968 165.589 13.2968C165.348 13.2968 165.142 13.3451 164.971 13.4417C164.804 13.5383 164.721 13.669 164.724 13.8337C164.721 13.9616 164.773 14.0724 164.878 14.1661C164.986 14.2599 165.177 14.3352 165.453 14.392L166.714 14.6306C167.368 14.7556 167.854 14.963 168.172 15.2528C168.493 15.5426 168.655 15.9261 168.658 16.4033C168.655 16.8522 168.521 17.2428 168.257 17.5752C167.996 17.9076 167.638 18.1661 167.183 18.3508C166.729 18.5326 166.209 18.6235 165.623 18.6235C164.689 18.6235 163.952 18.4318 163.412 18.0482C162.875 17.6619 162.568 17.1448 162.491 16.4971L164.55 16.446C164.595 16.6846 164.713 16.8664 164.903 16.9914C165.094 17.1164 165.336 17.1789 165.632 17.1789C165.899 17.1789 166.116 17.1292 166.284 17.0298C166.452 16.9303 166.537 16.7982 166.54 16.6335C166.537 16.4857 166.471 16.3678 166.344 16.2798C166.216 16.1889 166.015 16.1178 165.743 16.0667L164.601 15.8494C163.944 15.7301 163.456 15.5099 163.135 15.1889C162.814 14.865 162.655 14.4531 162.658 13.9531C162.655 13.5156 162.771 13.142 163.007 12.8323C163.243 12.5198 163.578 12.2812 164.013 12.1164C164.447 11.9516 164.96 11.8693 165.551 11.8693C166.437 11.8693 167.136 12.0553 167.648 12.4275C168.159 12.7968 168.442 13.3053 168.496 13.9531Z" fill="#F9A332"/>
</g>
</g>
<rect x="0.749512" y="0.749939" width="174" height="26.5" rx="5.25" stroke="white" stroke-opacity="0.15" stroke-width="1.5"/>
<defs>
<filter id="filter0_d_44_23" x="1.99951" y="-6.10352e-05" width="28" height="28" filterUnits="userSpaceOnUse" color-interpolation-filters="sRGB">
<feFlood flood-opacity="0" result="BackgroundImageFix"/>
<feColorMatrix in="SourceAlpha" type="matrix" values="0 0 0 0 0 0 0 0 0 0 0 0 0 0 0 0 0 0 127 0" result="hardAlpha"/>
<feOffset/>
<feGaussianBlur stdDeviation="2"/>
<feComposite in2="hardAlpha" operator="out"/>
<feColorMatrix type="matrix" values="0 0 0 0 0 0 0 0 0 0 0 0 0 0 0 0 0 0 0.25 0"/>
<feBlend mode="normal" in2="BackgroundImageFix" result="effect1_dropShadow_44_23"/>
<feBlend mode="normal" in="SourceGraphic" in2="effect1_dropShadow_44_23" result="shape"/>
</filter>
<filter id="filter1_d_44_23" x="27.9995" y="3.49994" width="145.5" height="21" filterUnits="userSpaceOnUse" color-interpolation-filters="sRGB">
<feFlood flood-opacity="0" result="BackgroundImageFix"/>
<feColorMatrix in="SourceAlpha" type="matrix" values="0 0 0 0 0 0 0 0 0 0 0 0 0 0 0 0 0 0 127 0" result="hardAlpha"/>
<feOffset/>
<feGaussianBlur stdDeviation="2"/>
<feComposite in2="hardAlpha" operator="out"/>
<feColorMatrix type="matrix" values="0 0 0 0 0 0 0 0 0 0 0 0 0 0 0 0 0 0 0.25 0"/>
<feBlend mode="normal" in2="BackgroundImageFix" result="effect1_dropShadow_44_23"/>
<feBlend mode="normal" in="SourceGraphic" in2="effect1_dropShadow_44_23" result="shape"/>
</filter>
<linearGradient id="paint0_linear_44_23" x1="87.7495" y1="-6.10351e-05" x2="87.7495" y2="27.9999" gradientUnits="userSpaceOnUse">
<stop stop-color="#301F09"/>
<stop offset="1" stop-color="#20150A"/>
</linearGradient>
<clipPath id="clip0_44_23">
<rect x="-0.000488281" y="-6.10352e-05" width="175.5" height="28" rx="6" fill="white"/>
</clipPath>
</defs>
</svg>
