<svg width="192" height="41" viewBox="0 0 192 41" fill="none" xmlns="http://www.w3.org/2000/svg">
<rect x="-0.000732422" y="0.00556946" width="192.001" height="40.0014" rx="8" fill="url(#paint0_linear_40_36)"/>
<g filter="url(#filter0_d_40_36)">
<path d="M10.8 30.5068C10.8 30.8934 11.1135 31.2068 11.5001 31.2068H21.3006C21.6872 31.2068 22.0006 30.8934 22.0006 30.5068V15.106C22.0006 14.7194 22.314 14.406 22.7006 14.406H26.9009C27.2875 14.406 27.6009 14.7194 27.6009 15.106V30.5068C27.6009 30.8934 27.9143 31.2068 28.3009 31.2068H32.5011C32.8877 31.2068 33.2012 30.8934 33.2012 30.5068V9.50576C33.2012 9.11914 32.8877 8.80573 32.5011 8.80573H11.5001C11.1135 8.80573 10.8 9.11914 10.8 9.50576V30.5068Z" fill="white"/>
</g>
<g filter="url(#filter1_d_40_36)">
<path d="M46.4034 26.5063H44.4233L48.8725 14.1426H51.0277L55.4769 26.5063H53.4968L50.0014 16.3884H49.9049L46.4034 26.5063ZM46.7355 21.6646H53.1588V23.2343H46.7355V21.6646ZM63.8879 17.2335L60.5253 26.5063H58.5935L55.2249 17.2335H57.1627L59.5111 24.3692H59.6077L61.95 17.2335H63.8879ZM68.0171 26.7115C67.4296 26.7115 66.8983 26.6029 66.4234 26.3855C65.9485 26.1642 65.5722 25.8442 65.2945 25.4257C65.0208 25.0071 64.884 24.494 64.884 23.8862C64.884 23.363 64.9846 22.9324 65.1858 22.5943C65.3871 22.2563 65.6587 21.9886 66.0008 21.7914C66.3429 21.5942 66.7252 21.4453 67.1478 21.3447C67.5704 21.2441 68.0011 21.1676 68.4397 21.1153C68.9951 21.0509 69.4459 20.9986 69.792 20.9583C70.1381 20.9141 70.3897 20.8436 70.5466 20.747C70.7036 20.6504 70.7821 20.4935 70.7821 20.2762V20.2339C70.7821 19.7067 70.6332 19.2982 70.3353 19.0084C70.0415 18.7186 69.6028 18.5737 69.0193 18.5737C68.4116 18.5737 67.9326 18.7086 67.5825 18.9782C67.2364 19.2438 66.9969 19.5396 66.8641 19.8656L65.1677 19.4793C65.3689 18.9158 65.6627 18.4611 66.0491 18.1149C66.4395 17.7648 66.8882 17.5112 67.3953 17.3543C67.9024 17.1933 68.4357 17.1128 68.9951 17.1128C69.3654 17.1128 69.7578 17.1571 70.1723 17.2456C70.5909 17.3301 70.9813 17.4871 71.3435 17.7165C71.7097 17.9459 72.0096 18.2739 72.243 18.7005C72.4764 19.1231 72.5931 19.6725 72.5931 20.3486V26.5063H70.8304V25.2385H70.7579C70.6412 25.4719 70.4661 25.7013 70.2327 25.9267C69.9993 26.1521 69.6994 26.3392 69.3332 26.4882C68.967 26.6371 68.5283 26.7115 68.0171 26.7115ZM68.4095 25.2627C68.9086 25.2627 69.3352 25.1641 69.6894 24.9668C70.0476 24.7696 70.3192 24.5121 70.5044 24.1941C70.6935 23.8722 70.7881 23.528 70.7881 23.1618V21.9665C70.7237 22.0309 70.5989 22.0913 70.4138 22.1476C70.2327 22.1999 70.0254 22.2462 69.792 22.2865C69.5586 22.3227 69.3312 22.3569 69.1098 22.3891C68.8885 22.4173 68.7033 22.4414 68.5544 22.4615C68.2043 22.5058 67.8843 22.5802 67.5946 22.6849C67.3088 22.7895 67.0794 22.9405 66.9064 23.1377C66.7373 23.3308 66.6528 23.5884 66.6528 23.9104C66.6528 24.3571 66.8178 24.6952 67.1478 24.9246C67.4779 25.15 67.8984 25.2627 68.4095 25.2627ZM74.9973 26.5063V17.2335H76.8024V26.5063H74.9973ZM75.9089 15.8028C75.595 15.8028 75.3254 15.6981 75.1 15.4889C74.8786 15.2756 74.7679 15.022 74.7679 14.7282C74.7679 14.4304 74.8786 14.1768 75.1 13.9676C75.3254 13.7543 75.595 13.6476 75.9089 13.6476C76.2228 13.6476 76.4905 13.7543 76.7118 13.9676C76.9372 14.1768 77.0499 14.4304 77.0499 14.7282C77.0499 15.022 76.9372 15.2756 76.7118 15.4889C76.4905 15.6981 76.2228 15.8028 75.9089 15.8028ZM81.0358 14.1426V26.5063H79.2307V14.1426H81.0358ZM86.1627 26.7115C85.5751 26.7115 85.0438 26.6029 84.5689 26.3855C84.094 26.1642 83.7177 25.8442 83.44 25.4257C83.1663 25.0071 83.0295 24.494 83.0295 23.8862C83.0295 23.363 83.1301 22.9324 83.3313 22.5943C83.5326 22.2563 83.8042 21.9886 84.1463 21.7914C84.4884 21.5942 84.8707 21.4453 85.2933 21.3447C85.7159 21.2441 86.1466 21.1676 86.5852 21.1153C87.1406 21.0509 87.5914 20.9986 87.9375 20.9583C88.2836 20.9141 88.5352 20.8436 88.6921 20.747C88.8491 20.6504 88.9276 20.4935 88.9276 20.2762V20.2339C88.9276 19.7067 88.7787 19.2982 88.4808 19.0084C88.187 18.7186 87.7484 18.5737 87.1648 18.5737C86.5571 18.5737 86.0781 18.7086 85.728 18.9782C85.3819 19.2438 85.1424 19.5396 85.0096 19.8656L83.3132 19.4793C83.5145 18.9158 83.8082 18.4611 84.1946 18.1149C84.585 17.7648 85.0337 17.5112 85.5408 17.3543C86.048 17.1933 86.5812 17.1128 87.1406 17.1128C87.5109 17.1128 87.9033 17.1571 88.3178 17.2456C88.7364 17.3301 89.1268 17.4871 89.489 17.7165C89.8552 17.9459 90.1551 18.2739 90.3885 18.7005C90.6219 19.1231 90.7386 19.6725 90.7386 20.3486V26.5063H88.9759V25.2385H88.9034C88.7867 25.4719 88.6116 25.7013 88.3782 25.9267C88.1448 26.1521 87.8449 26.3392 87.4787 26.4882C87.1125 26.6371 86.6738 26.7115 86.1627 26.7115ZM86.5551 25.2627C87.0541 25.2627 87.4807 25.1641 87.8349 24.9668C88.1931 24.7696 88.4647 24.5121 88.6499 24.1941C88.839 23.8722 88.9336 23.528 88.9336 23.1618V21.9665C88.8692 22.0309 88.7444 22.0913 88.5593 22.1476C88.3782 22.1999 88.1709 22.2462 87.9375 22.2865C87.7041 22.3227 87.4767 22.3569 87.2553 22.3891C87.034 22.4173 86.8488 22.4414 86.6999 22.4615C86.3498 22.5058 86.0298 22.5802 85.7401 22.6849C85.4543 22.7895 85.2249 22.9405 85.0519 23.1377C84.8828 23.3308 84.7983 23.5884 84.7983 23.9104C84.7983 24.3571 84.9633 24.6952 85.2933 24.9246C85.6234 25.15 86.0439 25.2627 86.5551 25.2627ZM93.2877 26.5063V14.1426H95.0928V18.7367H95.2014C95.3061 18.5436 95.457 18.3202 95.6542 18.0666C95.8514 17.8131 96.1251 17.5917 96.4752 17.4026C96.8254 17.2094 97.2882 17.1128 97.8637 17.1128C98.6123 17.1128 99.2804 17.302 99.868 17.6803C100.456 18.0586 100.916 18.6039 101.25 19.3163C101.589 20.0286 101.758 20.8859 101.758 21.888C101.758 22.8901 101.591 23.7494 101.256 24.4658C100.922 25.1781 100.464 25.7275 99.8801 26.1139C99.2965 26.4962 98.6304 26.6874 97.8818 26.6874C97.3184 26.6874 96.8576 26.5928 96.4994 26.4036C96.1452 26.2145 95.8675 25.9931 95.6663 25.7396C95.4651 25.486 95.3101 25.2606 95.2014 25.0634H95.0505V26.5063H93.2877ZM95.0566 21.8699C95.0566 22.5219 95.1511 23.0934 95.3403 23.5844C95.5295 24.0754 95.8031 24.4597 96.1613 24.7374C96.5195 25.0111 96.9582 25.148 97.4774 25.148C98.0167 25.148 98.4674 25.0051 98.8296 24.7193C99.1919 24.4296 99.4655 24.0372 99.6507 23.5421C99.8398 23.0471 99.9344 22.4897 99.9344 21.8699C99.9344 21.2582 99.8418 20.7088 99.6567 20.2218C99.4756 19.7348 99.2019 19.3505 98.8357 19.0688C98.4735 18.787 98.0207 18.6462 97.4774 18.6462C96.9542 18.6462 96.5115 18.781 96.1492 19.0507C95.7911 19.3203 95.5194 19.6966 95.3343 20.1796C95.1491 20.6625 95.0566 21.226 95.0566 21.8699ZM105.589 14.1426V26.5063H103.784V14.1426H105.589ZM112.014 26.6934C111.101 26.6934 110.314 26.4982 109.654 26.1078C108.998 25.7134 108.491 25.16 108.133 24.4477C107.778 23.7313 107.601 22.8922 107.601 21.9303C107.601 20.9805 107.778 20.1433 108.133 19.4189C108.491 18.6945 108.99 18.129 109.63 17.7225C110.274 17.316 111.026 17.1128 111.888 17.1128C112.411 17.1128 112.918 17.1993 113.409 17.3724C113.9 17.5454 114.341 17.8171 114.731 18.1874C115.121 18.5576 115.429 19.0386 115.655 19.6302C115.88 20.2178 115.993 20.9322 115.993 21.7733V22.4132H108.622V21.061H114.224C114.224 20.5861 114.127 20.1655 113.934 19.7992C113.741 19.429 113.469 19.1372 113.119 18.9239C112.773 18.7106 112.366 18.6039 111.9 18.6039C111.392 18.6039 110.95 18.7287 110.571 18.9782C110.197 19.2237 109.907 19.5457 109.702 19.9441C109.501 20.3385 109.4 20.7672 109.4 21.23V22.2865C109.4 22.9062 109.509 23.4335 109.726 23.8681C109.948 24.3028 110.256 24.6348 110.65 24.8642C111.044 25.0896 111.505 25.2023 112.032 25.2023C112.374 25.2023 112.686 25.154 112.968 25.0574C113.25 24.9568 113.493 24.8079 113.699 24.6107C113.904 24.4135 114.061 24.17 114.169 23.8802L115.878 24.1881C115.741 24.6912 115.496 25.1319 115.141 25.5102C114.791 25.8845 114.351 26.1762 113.819 26.3855C113.292 26.5908 112.69 26.6934 112.014 26.6934ZM126.4 26.6934C125.531 26.6934 124.772 26.4942 124.124 26.0958C123.476 25.6973 122.973 25.1399 122.615 24.4235C122.257 23.7071 122.078 22.87 122.078 21.9122C122.078 20.9503 122.257 20.1091 122.615 19.3887C122.973 18.6683 123.476 18.1089 124.124 17.7105C124.772 17.312 125.531 17.1128 126.4 17.1128C127.27 17.1128 128.028 17.312 128.676 17.7105C129.324 18.1089 129.827 18.6683 130.185 19.3887C130.544 20.1091 130.723 20.9503 130.723 21.9122C130.723 22.87 130.544 23.7071 130.185 24.4235C129.827 25.1399 129.324 25.6973 128.676 26.0958C128.028 26.4942 127.27 26.6934 126.4 26.6934ZM126.406 25.1781C126.97 25.1781 127.437 25.0292 127.807 24.7314C128.177 24.4336 128.451 24.0372 128.628 23.5421C128.809 23.0471 128.9 22.5018 128.9 21.9061C128.9 21.3145 128.809 20.7712 128.628 20.2762C128.451 19.7771 128.177 19.3767 127.807 19.0748C127.437 18.773 126.97 18.622 126.406 18.622C125.839 18.622 125.368 18.773 124.994 19.0748C124.623 19.3767 124.348 19.7771 124.167 20.2762C123.99 20.7712 123.901 21.3145 123.901 21.9061C123.901 22.5018 123.99 23.0471 124.167 23.5421C124.348 24.0372 124.623 24.4336 124.994 24.7314C125.368 25.0292 125.839 25.1781 126.406 25.1781ZM134.543 21.0006V26.5063H132.738V17.2335H134.47V18.7428H134.585C134.798 18.2518 135.132 17.8574 135.587 17.5595C136.046 17.2617 136.623 17.1128 137.32 17.1128C137.951 17.1128 138.505 17.2456 138.98 17.5112C139.455 17.7728 139.823 18.1632 140.085 18.6824C140.346 19.2016 140.477 19.8435 140.477 20.6082V26.5063H138.672V20.8255C138.672 20.1534 138.497 19.6282 138.147 19.2499C137.797 18.8675 137.316 18.6764 136.704 18.6764C136.285 18.6764 135.913 18.7669 135.587 18.948C135.265 19.1291 135.009 19.3948 134.82 19.7449C134.635 20.091 134.543 20.5096 134.543 21.0006Z" fill="#E8E8E8"/>
<path d="M149.889 21.2179V26.5063H146.936V17.2335H149.744V18.936H149.846C150.052 18.3685 150.402 17.9238 150.897 17.6018C151.392 17.2758 151.981 17.1128 152.666 17.1128C153.317 17.1128 153.883 17.2597 154.362 17.5535C154.845 17.8433 155.219 18.2498 155.485 18.773C155.754 19.2921 155.887 19.8999 155.883 20.5961V26.5063H152.931V21.1757C152.935 20.6605 152.804 20.258 152.539 19.9683C152.277 19.6785 151.913 19.5336 151.446 19.5336C151.136 19.5336 150.862 19.602 150.625 19.7389C150.392 19.8717 150.21 20.0628 150.082 20.3124C149.957 20.5619 149.893 20.8637 149.889 21.2179ZM157.711 29.9835V17.2335H160.633V18.8213H160.723C160.844 18.5395 161.015 18.2679 161.236 18.0063C161.462 17.7447 161.748 17.5314 162.094 17.3664C162.444 17.1973 162.862 17.1128 163.349 17.1128C163.993 17.1128 164.595 17.2818 165.154 17.6199C165.718 17.958 166.173 18.4792 166.519 19.1835C166.865 19.8878 167.038 20.7853 167.038 21.8759C167.038 22.9264 166.871 23.8057 166.537 24.5141C166.207 25.2224 165.76 25.7537 165.197 26.1078C164.637 26.462 164.015 26.6391 163.331 26.6391C162.864 26.6391 162.46 26.5626 162.118 26.4097C161.776 26.2567 161.488 26.0555 161.255 25.806C161.025 25.5565 160.848 25.2888 160.723 25.0031H160.663V29.9835H157.711ZM160.603 21.8699C160.603 22.369 160.669 22.8036 160.802 23.1739C160.939 23.5441 161.134 23.8319 161.387 24.0372C161.645 24.2384 161.953 24.339 162.311 24.339C162.673 24.339 162.981 24.2384 163.235 24.0372C163.488 23.8319 163.679 23.5441 163.808 23.1739C163.941 22.8036 164.007 22.369 164.007 21.8699C164.007 21.3709 163.941 20.9382 163.808 20.572C163.679 20.2057 163.488 19.922 163.235 19.7208C162.985 19.5195 162.677 19.4189 162.311 19.4189C161.949 19.4189 161.641 19.5175 161.387 19.7147C161.134 19.9119 160.939 20.1936 160.802 20.5599C160.669 20.9261 160.603 21.3628 160.603 21.8699ZM168.585 26.5063V17.2335H171.392V18.936H171.495C171.688 18.3725 172.014 17.9278 172.473 17.6018C172.931 17.2758 173.479 17.1128 174.115 17.1128C174.759 17.1128 175.31 17.2778 175.769 17.6078C176.228 17.9379 176.519 18.3806 176.644 18.936H176.741C176.914 18.3846 177.252 17.9439 177.755 17.6139C178.258 17.2798 178.852 17.1128 179.536 17.1128C180.413 17.1128 181.126 17.3945 181.673 17.958C182.22 18.5174 182.494 19.2861 182.494 20.2641V26.5063H179.542V20.9402C179.542 20.4774 179.423 20.1252 179.186 19.8838C178.948 19.6383 178.64 19.5155 178.262 19.5155C177.856 19.5155 177.536 19.6483 177.302 19.9139C177.073 20.1755 176.958 20.5277 176.958 20.9704V26.5063H174.121V20.91C174.121 20.4794 174.004 20.1393 173.771 19.8898C173.537 19.6403 173.229 19.5155 172.847 19.5155C172.589 19.5155 172.362 19.5779 172.165 19.7026C171.968 19.8234 171.813 19.9964 171.7 20.2218C171.591 20.4472 171.537 20.7128 171.537 21.0187V26.5063H168.585Z" fill="white"/>
</g>
<rect x="1.0707" y="1.077" width="189.858" height="37.8585" rx="6.92857" stroke="white" stroke-opacity="0.15" stroke-width="2.14286"/>
<defs>
<filter id="filter0_d_40_36" x="2.39899" y="0.405289" width="39.202" height="39.202" filterUnits="userSpaceOnUse" color-interpolation-filters="sRGB">
<feFlood flood-opacity="0" result="BackgroundImageFix"/>
<feColorMatrix in="SourceAlpha" type="matrix" values="0 0 0 0 0 0 0 0 0 0 0 0 0 0 0 0 0 0 127 0" result="hardAlpha"/>
<feOffset/>
<feGaussianBlur stdDeviation="2.80014"/>
<feComposite in2="hardAlpha" operator="out"/>
<feColorMatrix type="matrix" values="0 0 0 0 0 0 0 0 0 0 0 0 0 0 0 0 0 0 0.25 0"/>
<feBlend mode="normal" in2="BackgroundImageFix" result="effect1_dropShadow_40_36"/>
<feBlend mode="normal" in="SourceGraphic" in2="effect1_dropShadow_40_36" result="shape"/>
</filter>
<filter id="filter1_d_40_36" x="38.2864" y="3.79199" width="151.429" height="32.4286" filterUnits="userSpaceOnUse" color-interpolation-filters="sRGB">
<feFlood flood-opacity="0" result="BackgroundImageFix"/>
<feColorMatrix in="SourceAlpha" type="matrix" values="0 0 0 0 0 0 0 0 0 0 0 0 0 0 0 0 0 0 127 0" result="hardAlpha"/>
<feOffset/>
<feGaussianBlur stdDeviation="2.85714"/>
<feComposite in2="hardAlpha" operator="out"/>
<feColorMatrix type="matrix" values="0 0 0 0 0 0 0 0 0 0 0 0 0 0 0 0 0 0 0.25 0"/>
<feBlend mode="normal" in2="BackgroundImageFix" result="effect1_dropShadow_40_36"/>
<feBlend mode="normal" in="SourceGraphic" in2="effect1_dropShadow_40_36" result="shape"/>
</filter>
<linearGradient id="paint0_linear_40_36" x1="95.9999" y1="0.00556946" x2="95.9999" y2="40.007" gradientUnits="userSpaceOnUse">
<stop stop-color="#310D0D"/>
<stop offset="1" stop-color="#220909"/>
</linearGradient>
</defs>
</svg>
