<svg width="159" height="28" viewBox="0 0 159 28" fill="none" xmlns="http://www.w3.org/2000/svg">
<rect x="-0.000488281" y="-6.10352e-05" width="158.5" height="28" rx="6" fill="url(#paint0_linear_45_53)"/>
<g filter="url(#filter0_d_45_53)">
<path d="M9.57144 16.241L13.9794 15.8446L14.3717 13.177C12.7532 14.1147 11.3691 14.2809 9.46806 14.2809V8.20982C12.3602 8.20982 15.5429 9.15554 14.8621 12.5331L17.1177 10.9694C16.4374 7.59467 14.2763 6.00217 10.6449 6.00217C9.64591 6.00217 7.64286 5.93551 7.00001 6.54174C7 7.75413 7 8.96655 7.00001 10.179L7.00001 16.241C7.00001 17.133 6.99999 20.1814 7 21.0907C7.00001 22.3031 9.57143 22.3031 9.57144 21.0907C9.57144 19.7588 9.57143 17.7566 9.57144 16.241Z" fill="#05BBAB"/>
<path fill-rule="evenodd" clip-rule="evenodd" d="M18.2945 10.673C10.4031 12.0951 12.5786 22.8296 20.4521 21.5988C27.8321 20.4452 25.5949 9.35743 18.2945 10.673ZM18.4907 12.8857C13.7144 13.9227 15.5907 20.6315 20.256 19.3451C24.4084 18.2002 22.7058 11.9705 18.4907 12.8857Z" fill="#FBFBFB"/>
</g>
<g filter="url(#filter1_d_45_53)">
<path d="M33.5542 18.4999H32.2729L35.1519 10.4999H36.5464L39.4253 18.4999H38.144L35.8823 11.9531H35.8198L33.5542 18.4999ZM33.769 15.3671H37.9253V16.3827H33.769V15.3671ZM44.8677 12.4999L42.6919 18.4999H41.4419L39.2622 12.4999H40.5161L42.0356 17.1171H42.0981L43.6138 12.4999H44.8677ZM47.5395 18.6327C47.1593 18.6327 46.8156 18.5624 46.5083 18.4218C46.201 18.2786 45.9575 18.0716 45.7778 17.8007C45.6007 17.5299 45.5122 17.1979 45.5122 16.8046C45.5122 16.4661 45.5773 16.1874 45.7075 15.9687C45.8377 15.7499 46.0135 15.5768 46.2349 15.4492C46.4562 15.3216 46.7036 15.2252 46.977 15.1601C47.2505 15.095 47.5291 15.0455 47.813 15.0117C48.1724 14.97 48.464 14.9361 48.688 14.9101C48.9119 14.8814 49.0747 14.8359 49.1763 14.7734C49.2778 14.7109 49.3286 14.6093 49.3286 14.4687V14.4413C49.3286 14.1002 49.2323 13.8359 49.0395 13.6484C48.8494 13.4609 48.5656 13.3671 48.188 13.3671C47.7948 13.3671 47.4849 13.4544 47.2583 13.6288C47.0343 13.8007 46.8794 13.9921 46.7935 14.2031L45.6958 13.9531C45.826 13.5885 46.0161 13.2942 46.2661 13.0702C46.5187 12.8437 46.8091 12.6796 47.1372 12.5781C47.4653 12.4739 47.8104 12.4218 48.1724 12.4218C48.4119 12.4218 48.6658 12.4505 48.9341 12.5078C49.2049 12.5624 49.4575 12.664 49.6919 12.8124C49.9289 12.9609 50.1229 13.1731 50.2739 13.4492C50.425 13.7226 50.5005 14.0781 50.5005 14.5156V18.4999H49.3599V17.6796H49.313C49.2375 17.8307 49.1242 17.9791 48.9731 18.1249C48.8221 18.2708 48.6281 18.3919 48.3911 18.4882C48.1541 18.5846 47.8703 18.6327 47.5395 18.6327ZM47.7935 17.6952C48.1164 17.6952 48.3924 17.6314 48.6216 17.5038C48.8533 17.3762 49.0291 17.2096 49.1489 17.0038C49.2713 16.7955 49.3325 16.5729 49.3325 16.3359V15.5624C49.2908 15.6041 49.2101 15.6432 49.0903 15.6796C48.9731 15.7135 48.839 15.7434 48.688 15.7695C48.5369 15.7929 48.3898 15.815 48.2466 15.8359C48.1033 15.8541 47.9836 15.8697 47.8872 15.8827C47.6606 15.9114 47.4536 15.9596 47.2661 16.0273C47.0812 16.095 46.9328 16.1926 46.8208 16.3202C46.7114 16.4452 46.6567 16.6119 46.6567 16.8202C46.6567 17.1093 46.7635 17.3281 46.977 17.4765C47.1906 17.6223 47.4627 17.6952 47.7935 17.6952ZM52.0561 18.4999V12.4999H53.2241V18.4999H52.0561ZM52.646 11.5742C52.4429 11.5742 52.2684 11.5064 52.1226 11.371C51.9793 11.233 51.9077 11.0689 51.9077 10.8788C51.9077 10.6861 51.9793 10.5221 52.1226 10.3867C52.2684 10.2486 52.4429 10.1796 52.646 10.1796C52.8491 10.1796 53.0223 10.2486 53.1655 10.3867C53.3114 10.5221 53.3843 10.6861 53.3843 10.8788C53.3843 11.0689 53.3114 11.233 53.1655 11.371C53.0223 11.5064 52.8491 11.5742 52.646 11.5742ZM55.9634 10.4999V18.4999H54.7954V10.4999H55.9634ZM59.2808 18.6327C58.9005 18.6327 58.5568 18.5624 58.2495 18.4218C57.9422 18.2786 57.6987 18.0716 57.519 17.8007C57.342 17.5299 57.2534 17.1979 57.2534 16.8046C57.2534 16.4661 57.3185 16.1874 57.4487 15.9687C57.5789 15.7499 57.7547 15.5768 57.9761 15.4492C58.1974 15.3216 58.4448 15.2252 58.7183 15.1601C58.9917 15.095 59.2703 15.0455 59.5542 15.0117C59.9136 14.97 60.2052 14.9361 60.4292 14.9101C60.6531 14.8814 60.8159 14.8359 60.9175 14.7734C61.019 14.7109 61.0698 14.6093 61.0698 14.4687V14.4413C61.0698 14.1002 60.9735 13.8359 60.7808 13.6484C60.5906 13.4609 60.3068 13.3671 59.9292 13.3671C59.536 13.3671 59.2261 13.4544 58.9995 13.6288C58.7755 13.8007 58.6206 13.9921 58.5347 14.2031L57.437 13.9531C57.5672 13.5885 57.7573 13.2942 58.0073 13.0702C58.2599 12.8437 58.5503 12.6796 58.8784 12.5781C59.2065 12.4739 59.5516 12.4218 59.9136 12.4218C60.1531 12.4218 60.4071 12.4505 60.6753 12.5078C60.9461 12.5624 61.1987 12.664 61.4331 12.8124C61.6701 12.9609 61.8641 13.1731 62.0151 13.4492C62.1662 13.7226 62.2417 14.0781 62.2417 14.5156V18.4999H61.1011V17.6796H61.0542C60.9787 17.8307 60.8654 17.9791 60.7143 18.1249C60.5633 18.2708 60.3693 18.3919 60.1323 18.4882C59.8953 18.5846 59.6115 18.6327 59.2808 18.6327ZM59.5347 17.6952C59.8576 17.6952 60.1336 17.6314 60.3628 17.5038C60.5946 17.3762 60.7703 17.2096 60.8901 17.0038C61.0125 16.7955 61.0737 16.5729 61.0737 16.3359V15.5624C61.0321 15.6041 60.9513 15.6432 60.8315 15.6796C60.7143 15.7135 60.5802 15.7434 60.4292 15.7695C60.2781 15.7929 60.131 15.815 59.9878 15.8359C59.8446 15.8541 59.7248 15.8697 59.6284 15.8827C59.4018 15.9114 59.1948 15.9596 59.0073 16.0273C58.8224 16.095 58.674 16.1926 58.562 16.3202C58.4526 16.4452 58.3979 16.6119 58.3979 16.8202C58.3979 17.1093 58.5047 17.3281 58.7183 17.4765C58.9318 17.6223 59.2039 17.6952 59.5347 17.6952ZM63.8911 18.4999V10.4999H65.0591V13.4726H65.1294C65.1971 13.3476 65.2947 13.2031 65.4224 13.039C65.55 12.8749 65.727 12.7317 65.9536 12.6093C66.1802 12.4843 66.4796 12.4218 66.852 12.4218C67.3364 12.4218 67.7687 12.5442 68.1489 12.789C68.5291 13.0338 68.8273 13.3867 69.0434 13.8476C69.2622 14.3085 69.3716 14.8632 69.3716 15.5117C69.3716 16.1601 69.2635 16.7161 69.0474 17.1796C68.8312 17.6406 68.5343 17.996 68.1567 18.246C67.7791 18.4934 67.3481 18.6171 66.8638 18.6171C66.4992 18.6171 66.201 18.5559 65.9692 18.4335C65.7401 18.3111 65.5604 18.1679 65.4302 18.0038C65.3 17.8398 65.1997 17.6939 65.1294 17.5663H65.0317V18.4999H63.8911ZM65.0356 15.4999C65.0356 15.9218 65.0968 16.2916 65.2192 16.6093C65.3416 16.927 65.5187 17.1757 65.7505 17.3554C65.9822 17.5325 66.2661 17.621 66.602 17.621C66.951 17.621 67.2427 17.5286 67.477 17.3437C67.7114 17.1562 67.8885 16.9023 68.0083 16.582C68.1307 16.2617 68.1919 15.901 68.1919 15.4999C68.1919 15.1041 68.132 14.7486 68.0122 14.4335C67.895 14.1184 67.7179 13.8697 67.4809 13.6874C67.2466 13.5051 66.9536 13.414 66.602 13.414C66.2635 13.414 65.977 13.5012 65.7427 13.6757C65.5109 13.8502 65.3351 14.0937 65.2153 14.4062C65.0955 14.7187 65.0356 15.0833 65.0356 15.4999ZM71.8511 10.4999V18.4999H70.6831V10.4999H71.8511ZM76.0083 18.621C75.4171 18.621 74.908 18.4947 74.4809 18.2421C74.0565 17.9869 73.7283 17.6288 73.4966 17.1679C73.2674 16.7044 73.1528 16.1614 73.1528 15.539C73.1528 14.9244 73.2674 14.3827 73.4966 13.914C73.7283 13.4452 74.0513 13.0794 74.4653 12.8163C74.882 12.5533 75.369 12.4218 75.9263 12.4218C76.2648 12.4218 76.5929 12.4778 76.9106 12.5898C77.2283 12.7018 77.5135 12.8775 77.7661 13.1171C78.0187 13.3567 78.2179 13.6679 78.3638 14.0507C78.5096 14.4309 78.5825 14.8932 78.5825 15.4374V15.8515H73.813V14.9765H77.438C77.438 14.6692 77.3755 14.3971 77.2505 14.1601C77.1255 13.9205 76.9497 13.7317 76.7231 13.5937C76.4992 13.4557 76.2362 13.3867 75.9341 13.3867C75.6059 13.3867 75.3195 13.4674 75.0747 13.6288C74.8325 13.7877 74.645 13.996 74.5122 14.2538C74.382 14.5091 74.3169 14.7864 74.3169 15.0859V15.7695C74.3169 16.1705 74.3872 16.5117 74.5278 16.7929C74.671 17.0742 74.8703 17.289 75.1255 17.4374C75.3807 17.5833 75.6789 17.6562 76.02 17.6562C76.2414 17.6562 76.4432 17.6249 76.6255 17.5624C76.8078 17.4973 76.9653 17.401 77.0981 17.2734C77.2309 17.1458 77.3325 16.9882 77.4028 16.8007L78.5083 16.9999C78.4197 17.3255 78.2609 17.6106 78.0317 17.8554C77.8052 18.0976 77.52 18.2864 77.1763 18.4218C76.8351 18.5546 76.4458 18.621 76.0083 18.621ZM85.3169 18.621C84.7544 18.621 84.2635 18.4921 83.8442 18.2343C83.425 17.9765 83.0994 17.6158 82.8677 17.1523C82.6359 16.6887 82.52 16.1471 82.52 15.5273C82.52 14.9049 82.6359 14.3606 82.8677 13.8945C83.0994 13.4283 83.425 13.0663 83.8442 12.8085C84.2635 12.5507 84.7544 12.4218 85.3169 12.4218C85.8794 12.4218 86.3703 12.5507 86.7895 12.8085C87.2088 13.0663 87.5343 13.4283 87.7661 13.8945C87.9979 14.3606 88.1138 14.9049 88.1138 15.5273C88.1138 16.1471 87.9979 16.6887 87.7661 17.1523C87.5343 17.6158 87.2088 17.9765 86.7895 18.2343C86.3703 18.4921 85.8794 18.621 85.3169 18.621ZM85.3208 17.6406C85.6854 17.6406 85.9875 17.5442 86.227 17.3515C86.4666 17.1588 86.6437 16.9023 86.7583 16.582C86.8755 16.2617 86.9341 15.9088 86.9341 15.5234C86.9341 15.1406 86.8755 14.789 86.7583 14.4687C86.6437 14.1458 86.4666 13.8867 86.227 13.6913C85.9875 13.496 85.6854 13.3984 85.3208 13.3984C84.9536 13.3984 84.6489 13.496 84.4067 13.6913C84.1671 13.8867 83.9888 14.1458 83.8716 14.4687C83.757 14.789 83.6997 15.1406 83.6997 15.5234C83.6997 15.9088 83.757 16.2617 83.8716 16.582C83.9888 16.9023 84.1671 17.1588 84.4067 17.3515C84.6489 17.5442 84.9536 17.6406 85.3208 17.6406ZM90.5854 14.9374V18.4999H89.4175V12.4999H90.5386V13.4765H90.6128C90.7508 13.1588 90.9669 12.9036 91.2612 12.7109C91.5581 12.5182 91.9318 12.4218 92.3823 12.4218C92.7912 12.4218 93.1492 12.5078 93.4565 12.6796C93.7638 12.8489 94.0021 13.1015 94.1714 13.4374C94.3406 13.7734 94.4253 14.1887 94.4253 14.6835V18.4999H93.2573V14.8242C93.2573 14.3893 93.144 14.0494 92.9175 13.8046C92.6909 13.5572 92.3797 13.4335 91.9839 13.4335C91.713 13.4335 91.4722 13.4921 91.2612 13.6093C91.0529 13.7265 90.8875 13.8984 90.7651 14.1249C90.6453 14.3489 90.5854 14.6197 90.5854 14.9374Z" fill="#E8E8E8"/>
<path d="M99.16 18.4999V9.77267H102.765C103.419 9.77267 103.982 9.90051 104.457 10.1562C104.934 10.409 105.302 10.7627 105.561 11.2173C105.819 11.669 105.948 12.1945 105.948 12.794C105.948 13.3962 105.816 13.9232 105.552 14.3749C105.291 14.8238 104.917 15.1718 104.431 15.419C103.946 15.6661 103.369 15.7897 102.701 15.7897H100.477V14.1278H102.309C102.627 14.1278 102.893 14.0724 103.106 13.9616C103.322 13.8508 103.485 13.696 103.596 13.4971C103.707 13.2954 103.762 13.061 103.762 12.794C103.762 12.5241 103.707 12.2911 103.596 12.0951C103.485 11.8962 103.322 11.7428 103.106 11.6349C102.89 11.5269 102.625 11.4729 102.309 11.4729H101.269V18.4999H99.16ZM109.915 18.6235C109.227 18.6235 108.636 18.4829 108.142 18.2016C107.65 17.9175 107.271 17.5227 107.004 17.017C106.74 16.5085 106.608 15.919 106.608 15.2485C106.608 14.5752 106.74 13.9857 107.004 13.4801C107.271 12.9715 107.65 12.5766 108.142 12.2954C108.636 12.0113 109.227 11.8693 109.915 11.8693C110.602 11.8693 111.192 12.0113 111.683 12.2954C112.177 12.5766 112.557 12.9715 112.821 13.4801C113.088 13.9857 113.221 14.5752 113.221 15.2485C113.221 15.919 113.088 16.5085 112.821 17.017C112.557 17.5227 112.177 17.9175 111.683 18.2016C111.192 18.4829 110.602 18.6235 109.915 18.6235ZM109.927 17.0511C110.177 17.0511 110.389 16.9744 110.562 16.821C110.736 16.6675 110.868 16.4545 110.959 16.1818C111.052 15.909 111.099 15.5937 111.099 15.2357C111.099 14.8721 111.052 14.5539 110.959 14.2812C110.868 14.0085 110.736 13.7954 110.562 13.642C110.389 13.4886 110.177 13.4119 109.927 13.4119C109.669 13.4119 109.45 13.4886 109.271 13.642C109.095 13.7954 108.96 14.0085 108.866 14.2812C108.775 14.5539 108.73 14.8721 108.73 15.2357C108.73 15.5937 108.775 15.909 108.866 16.1818C108.96 16.4545 109.095 16.6675 109.271 16.821C109.45 16.9744 109.669 17.0511 109.927 17.0511ZM116.373 9.77267V18.4999H114.289V9.77267H116.373ZM118.973 20.9545C118.723 20.9545 118.487 20.9346 118.266 20.8948C118.044 20.8579 117.854 20.8082 117.695 20.7457L118.155 19.2329C118.36 19.3011 118.544 19.3408 118.709 19.3522C118.877 19.3636 119.02 19.3366 119.139 19.2712C119.262 19.2087 119.355 19.0965 119.421 18.9346L119.502 18.7386L117.175 11.9545H119.357L120.563 16.6249H120.631L121.854 11.9545H124.049L121.581 19.1264C121.462 19.4843 121.293 19.7997 121.074 20.0724C120.858 20.3479 120.578 20.5639 120.235 20.7201C119.894 20.8764 119.473 20.9545 118.973 20.9545Z" fill="#05BBAB"/>
<path d="M124.848 18.4999V11.9545H126.829V13.1562H126.901C127.038 12.7585 127.268 12.4445 127.592 12.2144C127.916 11.9843 128.302 11.8693 128.751 11.8693C129.205 11.8693 129.595 11.9857 129.919 12.2187C130.242 12.4516 130.448 12.7641 130.536 13.1562H130.605C130.727 12.767 130.965 12.4559 131.321 12.2229C131.676 11.9872 132.095 11.8693 132.578 11.8693C133.197 11.8693 133.7 12.0681 134.086 12.4658C134.473 12.8607 134.666 13.4033 134.666 14.0937V18.4999H132.582V14.571C132.582 14.2443 132.498 13.9957 132.33 13.8252C132.163 13.6519 131.946 13.5653 131.678 13.5653C131.392 13.5653 131.166 13.659 131.001 13.8465C130.839 14.0312 130.758 14.2798 130.758 14.5923V18.4999H128.755V14.5497C128.755 14.2457 128.673 14.0056 128.508 13.8295C128.343 13.6533 128.126 13.5653 127.856 13.5653C127.674 13.5653 127.514 13.6093 127.375 13.6974C127.235 13.7826 127.126 13.9048 127.046 14.0639C126.97 14.2229 126.931 14.4104 126.931 14.6264V18.4999H124.848ZM137.802 18.6107C137.384 18.6107 137.014 18.5411 136.69 18.4019C136.369 18.2599 136.115 18.0468 135.927 17.7627C135.742 17.4758 135.65 17.1164 135.65 16.6846C135.65 16.321 135.714 16.0141 135.842 15.7641C135.97 15.5141 136.146 15.311 136.37 15.1548C136.595 14.9985 136.853 14.8806 137.146 14.8011C137.438 14.7187 137.751 14.6633 138.083 14.6349C138.455 14.6008 138.755 14.5653 138.982 14.5283C139.21 14.4886 139.374 14.4332 139.477 14.3622C139.582 14.2883 139.634 14.1846 139.634 14.0511V14.0298C139.634 13.811 139.559 13.642 139.409 13.5227C139.258 13.4033 139.055 13.3437 138.799 13.3437C138.524 13.3437 138.302 13.4033 138.134 13.5227C137.967 13.642 137.86 13.8068 137.815 14.017L135.893 13.9488C135.95 13.5511 136.096 13.196 136.332 12.8835C136.571 12.5681 136.897 12.321 137.312 12.142C137.73 11.9602 138.231 11.8693 138.816 11.8693C139.234 11.8693 139.619 11.919 139.971 12.0184C140.323 12.115 140.63 12.257 140.892 12.4445C141.153 12.6292 141.355 12.8565 141.497 13.1264C141.642 13.3962 141.714 13.7045 141.714 14.0511V18.4999H139.754V17.588H139.703C139.586 17.8096 139.437 17.9971 139.255 18.1505C139.076 18.3039 138.865 18.419 138.62 18.4957C138.379 18.5724 138.106 18.6107 137.802 18.6107ZM138.446 17.2471C138.67 17.2471 138.872 17.2016 139.051 17.1107C139.232 17.0198 139.377 16.8948 139.485 16.7357C139.593 16.5738 139.647 16.3863 139.647 16.1732V15.5511C139.588 15.5823 139.515 15.6107 139.43 15.6363C139.348 15.6619 139.257 15.686 139.157 15.7087C139.058 15.7315 138.955 15.7514 138.85 15.7684C138.745 15.7854 138.644 15.8011 138.548 15.8153C138.352 15.8465 138.184 15.8948 138.045 15.9602C137.909 16.0255 137.803 16.1107 137.73 16.2158C137.659 16.3181 137.623 16.4403 137.623 16.5823C137.623 16.7982 137.7 16.963 137.853 17.0766C138.009 17.1903 138.207 17.2471 138.446 17.2471ZM142.988 18.4999V11.9545H145.012V13.1477H145.08C145.2 12.7158 145.394 12.3948 145.664 12.1846C145.934 11.9715 146.248 11.865 146.606 11.865C146.703 11.865 146.802 11.8721 146.904 11.8863C147.007 11.8977 147.102 11.9161 147.19 11.9417V13.7528C147.09 13.7187 146.96 13.6917 146.798 13.6718C146.639 13.6519 146.497 13.642 146.372 13.642C146.124 13.642 145.901 13.6974 145.703 13.8082C145.507 13.9161 145.352 14.0681 145.238 14.2641C145.127 14.4573 145.072 14.6846 145.072 14.946V18.4999H142.988ZM152.038 11.9545V13.4886H147.909V11.9545H152.038ZM148.774 10.3863H150.858V16.4417C150.858 16.5695 150.878 16.6732 150.917 16.7528C150.96 16.8295 151.021 16.8849 151.101 16.919C151.18 16.9502 151.275 16.9658 151.386 16.9658C151.466 16.9658 151.55 16.9587 151.638 16.9445C151.729 16.9275 151.797 16.9133 151.842 16.9019L152.158 18.4062C152.058 18.4346 151.917 18.4701 151.736 18.5127C151.557 18.5553 151.342 18.5823 151.092 18.5937C150.604 18.6164 150.185 18.5596 149.835 18.4232C149.488 18.284 149.223 18.0681 149.038 17.7755C148.856 17.4829 148.768 17.115 148.774 16.6718V10.3863Z" fill="#FBFBFB"/>
</g>
<rect x="0.749512" y="0.749939" width="157" height="26.5" rx="5.25" stroke="white" stroke-opacity="0.15" stroke-width="1.5"/>
<defs>
<filter id="filter0_d_45_53" x="1.99951" y="-6.10352e-05" width="28" height="28" filterUnits="userSpaceOnUse" color-interpolation-filters="sRGB">
<feFlood flood-opacity="0" result="BackgroundImageFix"/>
<feColorMatrix in="SourceAlpha" type="matrix" values="0 0 0 0 0 0 0 0 0 0 0 0 0 0 0 0 0 0 127 0" result="hardAlpha"/>
<feOffset/>
<feGaussianBlur stdDeviation="2"/>
<feComposite in2="hardAlpha" operator="out"/>
<feColorMatrix type="matrix" values="0 0 0 0 0 0 0 0 0 0 0 0 0 0 0 0 0 0 0.25 0"/>
<feBlend mode="normal" in2="BackgroundImageFix" result="effect1_dropShadow_45_53"/>
<feBlend mode="normal" in="SourceGraphic" in2="effect1_dropShadow_45_53" result="shape"/>
</filter>
<filter id="filter1_d_45_53" x="27.9995" y="3.49994" width="128.5" height="21.4545" filterUnits="userSpaceOnUse" color-interpolation-filters="sRGB">
<feFlood flood-opacity="0" result="BackgroundImageFix"/>
<feColorMatrix in="SourceAlpha" type="matrix" values="0 0 0 0 0 0 0 0 0 0 0 0 0 0 0 0 0 0 127 0" result="hardAlpha"/>
<feOffset/>
<feGaussianBlur stdDeviation="2"/>
<feComposite in2="hardAlpha" operator="out"/>
<feColorMatrix type="matrix" values="0 0 0 0 0 0 0 0 0 0 0 0 0 0 0 0 0 0 0.25 0"/>
<feBlend mode="normal" in2="BackgroundImageFix" result="effect1_dropShadow_45_53"/>
<feBlend mode="normal" in="SourceGraphic" in2="effect1_dropShadow_45_53" result="shape"/>
</filter>
<linearGradient id="paint0_linear_45_53" x1="79.2495" y1="-6.10351e-05" x2="79.2495" y2="27.9999" gradientUnits="userSpaceOnUse">
<stop stop-color="#012D29"/>
<stop offset="1" stop-color="#242424"/>
</linearGradient>
</defs>
</svg>
