<svg width="132" height="28" viewBox="0 0 132 28" fill="none" xmlns="http://www.w3.org/2000/svg">
<g clip-path="url(#clip0_48_165)">
<rect x="-0.000488281" y="-6.10352e-05" width="131.5" height="28" rx="6" fill="url(#paint0_linear_48_165)"/>
<g filter="url(#filter0_d_48_165)">
<path d="M11.7386 10.7311L14.5809 11.8214V15.3419L11.7386 14.2517V10.7311Z" fill="#E9E9FF" stroke="#CCCCCC" stroke-width="0.212801" stroke-linejoin="bevel"/>
<path d="M8.85425 11.8375V15.358L11.7386 14.2517V10.7311L8.85425 11.8375Z" fill="#353564" stroke="#CCCCCC" stroke-width="0.212801" stroke-linejoin="bevel"/>
<path d="M8.85425 15.3578L11.6965 16.4478L14.5808 15.3416L11.7386 14.2516L8.85425 15.3578Z" fill="#AFAFDE" stroke="#CCCCCC" stroke-width="0.212801" stroke-linejoin="bevel"/>
<path d="M8.85425 11.8373L11.6965 12.9273L14.5808 11.8211L11.7386 10.7311L8.85425 11.8373Z" fill="#F7F7F4" stroke="#CCCCCC" stroke-width="0.212801" stroke-linejoin="bevel"/>
<path d="M11.6965 12.9277V16.4483L14.5809 15.3419V11.8214L11.6965 12.9277Z" fill="white" stroke="#CCCCCC" stroke-width="0.212801" stroke-linejoin="bevel"/>
<path d="M8.85425 11.8375L11.6965 12.9278V16.4483L8.85425 15.3581V11.8375Z" fill="#EFEEEA" stroke="#CCCCCC" stroke-width="0.212801" stroke-linejoin="bevel"/>
<path d="M14.5933 8.26971L17.4355 9.35994V12.8805L14.5933 11.7903V8.26971Z" fill="#E9E9FF" stroke="#CCCCCC" stroke-width="0.212801" stroke-linejoin="bevel"/>
<path d="M11.7089 9.37608V12.8966L14.5932 11.7903V8.26971L11.7089 9.37608Z" fill="#353564" stroke="#CCCCCC" stroke-width="0.212801" stroke-linejoin="bevel"/>
<path d="M11.7089 12.8964L14.5511 13.9863L17.4355 12.8802L14.5932 11.7902L11.7089 12.8964Z" fill="#AFAFDE" stroke="#CCCCCC" stroke-width="0.212801" stroke-linejoin="bevel"/>
<path d="M11.7089 9.37584L14.5511 10.4658L17.4355 9.35971L14.5932 8.26971L11.7089 9.37584Z" fill="#F7F7F4" stroke="#CCCCCC" stroke-width="0.212801" stroke-linejoin="bevel"/>
<path d="M14.5511 10.4662V13.9868L17.4355 12.8804V9.35986L14.5511 10.4662Z" fill="white" stroke="#CCCCCC" stroke-width="0.212801" stroke-linejoin="bevel"/>
<path d="M11.7089 9.37604L14.5511 10.4663V13.9868L11.7089 12.8966V9.37604Z" fill="#EFEEEA" stroke="#CCCCCC" stroke-width="0.212801" stroke-linejoin="bevel"/>
<path d="M8.88391 15.3806L11.7262 16.4708V19.9914L8.88391 18.9012V15.3806Z" fill="#E9E9FF" stroke="#CCCCCC" stroke-width="0.212801" stroke-linejoin="bevel"/>
<path d="M5.99951 16.487V20.0075L8.88385 18.9012V15.3806L5.99951 16.487Z" fill="#353564" stroke="#CCCCCC" stroke-width="0.212801" stroke-linejoin="bevel"/>
<path d="M5.99951 20.0073L8.84178 21.0972L11.7261 19.9911L8.88385 18.9011L5.99951 20.0073Z" fill="#AFAFDE" stroke="#CCCCCC" stroke-width="0.212801" stroke-linejoin="bevel"/>
<path d="M5.99951 16.4867L8.84178 17.5767L11.7261 16.4706L8.88385 15.3806L5.99951 16.4867Z" fill="#F7F7F4" stroke="#CCCCCC" stroke-width="0.212801" stroke-linejoin="bevel"/>
<path d="M8.8418 17.5772V21.0977L11.7261 19.9914V16.4708L8.8418 17.5772Z" fill="white" stroke="#CCCCCC" stroke-width="0.212801" stroke-linejoin="bevel"/>
<path d="M5.99951 16.487L8.84178 17.5772V21.0978L5.99951 20.0075V16.487Z" fill="#EFEEEA" stroke="#CCCCCC" stroke-width="0.212801" stroke-linejoin="bevel"/>
<path d="M11.7385 16.4745L14.5808 17.5648V21.0853L11.7385 19.9951V16.4745Z" fill="#E9E9FF" stroke="#CCCCCC" stroke-width="0.212801" stroke-linejoin="bevel"/>
<path d="M8.85413 17.5809V21.1015L11.7385 19.9951V16.4745L8.85413 17.5809Z" fill="#353564" stroke="#CCCCCC" stroke-width="0.212801" stroke-linejoin="bevel"/>
<path d="M8.85413 21.1012L11.6964 22.1912L14.5807 21.0851L11.7385 19.9951L8.85413 21.1012Z" fill="#AFAFDE" stroke="#CCCCCC" stroke-width="0.212801" stroke-linejoin="bevel"/>
<path d="M8.85413 17.5807L11.6964 18.6707L14.5807 17.5645L11.7385 16.4745L8.85413 17.5807Z" fill="#F7F7F4" stroke="#CCCCCC" stroke-width="0.212801" stroke-linejoin="bevel"/>
<path d="M11.6964 18.6712V22.1917L14.5807 21.0854V17.5648L11.6964 18.6712Z" fill="white" stroke="#CCCCCC" stroke-width="0.212801" stroke-linejoin="bevel"/>
<path d="M8.85413 17.5809L11.6964 18.6712V22.1917L8.85413 21.1015V17.5809Z" fill="#EFEEEA" stroke="#CCCCCC" stroke-width="0.212801" stroke-linejoin="bevel"/>
<path d="M11.7385 12.9191L14.5808 14.0093V17.5298L11.7385 16.4396V12.9191Z" fill="#E9E9FF" stroke="#CCCCCC" stroke-width="0.212801" stroke-linejoin="bevel"/>
<path d="M8.85413 14.0254V17.546L11.7385 16.4396V12.9191L8.85413 14.0254Z" fill="#353564" stroke="#CCCCCC" stroke-width="0.212801" stroke-linejoin="bevel"/>
<path d="M8.85413 17.5457L11.6964 18.6357L14.5807 17.5296L11.7385 16.4396L8.85413 17.5457Z" fill="#AFAFDE" stroke="#CCCCCC" stroke-width="0.212801" stroke-linejoin="bevel"/>
<path d="M8.85413 14.0252L11.6964 15.1152L14.5807 14.0091L11.7385 12.9191L8.85413 14.0252Z" fill="#F7F7F4" stroke="#CCCCCC" stroke-width="0.212801" stroke-linejoin="bevel"/>
<path d="M11.6964 15.1156V18.6362L14.5807 17.5298V14.0093L11.6964 15.1156Z" fill="white" stroke="#CCCCCC" stroke-width="0.212801" stroke-linejoin="bevel"/>
<path d="M8.85413 14.0254L11.6964 15.1156V18.6362L8.85413 17.5459V14.0254Z" fill="#EFEEEA" stroke="#CCCCCC" stroke-width="0.212801" stroke-linejoin="bevel"/>
<path d="M23.1573 14.2866L25.9996 15.3768V18.8973L23.1573 17.8071V14.2866Z" fill="#E9E9FF" stroke="#CCCCCC" stroke-width="0.212801" stroke-linejoin="bevel"/>
<path d="M20.2729 15.3929V18.9135L23.1573 17.8071V14.2866L20.2729 15.3929Z" fill="#353564" stroke="#CCCCCC" stroke-width="0.212801" stroke-linejoin="bevel"/>
<path d="M20.2729 18.9133L23.1152 20.0033L25.9995 18.8971L23.1573 17.8071L20.2729 18.9133Z" fill="#AFAFDE" stroke="#CCCCCC" stroke-width="0.212801" stroke-linejoin="bevel"/>
<path d="M20.2729 15.3927L23.1152 16.4827L25.9995 15.3766L23.1573 14.2866L20.2729 15.3927Z" fill="#F7F7F4" stroke="#CCCCCC" stroke-width="0.212801" stroke-linejoin="bevel"/>
<path d="M23.1152 16.4832V20.0037L25.9996 18.8974V15.3768L23.1152 16.4832Z" fill="white" stroke="#CCCCCC" stroke-width="0.212801" stroke-linejoin="bevel"/>
<path d="M20.2729 15.3929L23.1152 16.4832V20.0037L20.2729 18.9135V15.3929Z" fill="#EFEEEA" stroke="#CCCCCC" stroke-width="0.212801" stroke-linejoin="bevel"/>
<path d="M20.3026 15.3806L23.1449 16.4708V19.9913L20.3026 18.9011V15.3806Z" fill="#E9E9FF" stroke="#CCCCCC" stroke-width="0.212801" stroke-linejoin="bevel"/>
<path d="M17.4182 16.4869V20.0075L20.3025 18.9011V15.3806L17.4182 16.4869Z" fill="#353564" stroke="#CCCCCC" stroke-width="0.212801" stroke-linejoin="bevel"/>
<path d="M17.4182 20.0072L20.2605 21.0972L23.1448 19.9911L20.3025 18.9011L17.4182 20.0072Z" fill="#AFAFDE" stroke="#CCCCCC" stroke-width="0.212801" stroke-linejoin="bevel"/>
<path d="M17.4182 16.4867L20.2605 17.5767L23.1448 16.4705L20.3025 15.3806L17.4182 16.4867Z" fill="#F7F7F4" stroke="#CCCCCC" stroke-width="0.212801" stroke-linejoin="bevel"/>
<path d="M20.2604 17.5771V21.0977L23.1447 19.9913V16.4708L20.2604 17.5771Z" fill="#FFD242" stroke="#CCCCCC" stroke-width="0.212801" stroke-linejoin="bevel"/>
<path d="M17.4182 16.4869L20.2605 17.5772V21.0977L17.4182 20.0075V16.4869Z" fill="#EFEEEA" stroke="#CCCCCC" stroke-width="0.212801" stroke-linejoin="bevel"/>
<path d="M22.0681 19.269C22.374 19.1517 22.622 18.7785 22.622 18.4355C22.622 18.0924 22.374 17.9094 22.0681 18.0268C21.7622 18.1441 21.5142 18.5174 21.5142 18.8604C21.5142 19.2034 21.7622 19.3864 22.0681 19.269Z" fill="white"/>
<path d="M17.4479 16.4745L20.2901 17.5648V21.0853L17.4479 19.9951V16.4745Z" fill="#E9E9FF" stroke="#CCCCCC" stroke-width="0.212801" stroke-linejoin="bevel"/>
<path d="M14.5636 17.5809V21.1015L17.4479 19.9951V16.4745L14.5636 17.5809Z" fill="#353564" stroke="#CCCCCC" stroke-width="0.212801" stroke-linejoin="bevel"/>
<path d="M14.5636 21.1012L17.4059 22.1912L20.2902 21.0851L17.4479 19.9951L14.5636 21.1012Z" fill="#AFAFDE" stroke="#CCCCCC" stroke-width="0.212801" stroke-linejoin="bevel"/>
<path d="M14.5636 17.5807L17.4059 18.6707L20.2902 17.5645L17.4479 16.4745L14.5636 17.5807Z" fill="#F7F7F4" stroke="#CCCCCC" stroke-width="0.212801" stroke-linejoin="bevel"/>
<path d="M17.4059 18.6712V22.1917L20.2902 21.0854V17.5648L17.4059 18.6712Z" fill="#FFD242" stroke="#CCCCCC" stroke-width="0.212801" stroke-linejoin="bevel"/>
<path d="M14.5636 17.5809L17.4059 18.6712V22.1917L14.5636 21.1015V17.5809Z" fill="#EFEEEA" stroke="#CCCCCC" stroke-width="0.212801" stroke-linejoin="bevel"/>
<path d="M14.5931 17.5685L17.4354 18.6588V22.1793L14.5931 21.0891V17.5685Z" fill="#E9E9FF" stroke="#CCCCCC" stroke-width="0.212801" stroke-linejoin="bevel"/>
<path d="M11.7089 18.6749V22.1955L14.5932 21.0891V17.5685L11.7089 18.6749Z" fill="#353564" stroke="#CCCCCC" stroke-width="0.212801" stroke-linejoin="bevel"/>
<path d="M11.7089 22.1952L14.5511 23.2852L17.4355 22.179L14.5932 21.0891L11.7089 22.1952Z" fill="#AFAFDE" stroke="#CCCCCC" stroke-width="0.212801" stroke-linejoin="bevel"/>
<path d="M11.7089 18.6747L14.5511 19.7647L17.4355 18.6585L14.5932 17.5685L11.7089 18.6747Z" fill="#F7F7F4" stroke="#CCCCCC" stroke-width="0.212801" stroke-linejoin="bevel"/>
<path d="M14.5511 19.7651V23.2857L17.4355 22.1793V18.6588L14.5511 19.7651Z" fill="white" stroke="#CCCCCC" stroke-width="0.212801" stroke-linejoin="bevel"/>
<path d="M11.7089 18.6749L14.5511 19.7651V23.2856L11.7089 22.1954V18.6749Z" fill="#EFEEEA" stroke="#CCCCCC" stroke-width="0.212801" stroke-linejoin="bevel"/>
<path d="M23.1573 10.7311L25.9996 11.8214V15.3419L23.1573 14.2517V10.7311Z" fill="#E9E9FF" stroke="#CCCCCC" stroke-width="0.212801" stroke-linejoin="bevel"/>
<path d="M20.2729 11.8375V15.358L23.1573 14.2517V10.7311L20.2729 11.8375Z" fill="#353564" stroke="#CCCCCC" stroke-width="0.212801" stroke-linejoin="bevel"/>
<path d="M20.2729 15.3578L23.1152 16.4478L25.9995 15.3416L23.1573 14.2516L20.2729 15.3578Z" fill="#AFAFDE" stroke="#CCCCCC" stroke-width="0.212801" stroke-linejoin="bevel"/>
<path d="M20.2729 11.8373L23.1152 12.9273L25.9995 11.8211L23.1573 10.7311L20.2729 11.8373Z" fill="#F7F7F4" stroke="#CCCCCC" stroke-width="0.212801" stroke-linejoin="bevel"/>
<path d="M23.1152 12.9277V16.4483L25.9996 15.3419V11.8214L23.1152 12.9277Z" fill="#FFD242" stroke="#CCCCCC" stroke-width="0.212801" stroke-linejoin="bevel"/>
<path d="M20.2729 11.8375L23.1152 12.9278V16.4483L20.2729 15.3581V11.8375Z" fill="#EFEEEA" stroke="#CCCCCC" stroke-width="0.212801" stroke-linejoin="bevel"/>
<path d="M23.1573 7.17572L25.9996 8.26595V11.7865L23.1573 10.6963V7.17572Z" fill="#E9E9FF" stroke="#CCCCCC" stroke-width="0.212801" stroke-linejoin="bevel"/>
<path d="M20.2729 8.28208V11.8026L23.1573 10.6963V7.17572L20.2729 8.28208Z" fill="#353564" stroke="#CCCCCC" stroke-width="0.212801" stroke-linejoin="bevel"/>
<path d="M20.2729 11.8024L23.1152 12.8924L25.9995 11.7862L23.1573 10.6962L20.2729 11.8024Z" fill="#AFAFDE" stroke="#CCCCCC" stroke-width="0.212801" stroke-linejoin="bevel"/>
<path d="M20.2729 8.28185L23.1152 9.37184L25.9995 8.26571L23.1573 7.17572L20.2729 8.28185Z" fill="#FFC91D" stroke="#CCCCCC" stroke-width="0.212801" stroke-linejoin="bevel"/>
<path d="M23.1152 9.37229V12.8928L25.9996 11.7865V8.26593L23.1152 9.37229Z" fill="#FFD242" stroke="#CCCCCC" stroke-width="0.212801" stroke-linejoin="bevel"/>
<path d="M20.2729 8.2821L23.1152 9.37233V12.8929L20.2729 11.8026V8.2821Z" fill="#EFEEEA" stroke="#CCCCCC" stroke-width="0.212801" stroke-linejoin="bevel"/>
<path d="M20.3026 11.8251L23.1449 12.9153V16.4358L20.3026 15.3456V11.8251Z" fill="#E9E9FF" stroke="#CCCCCC" stroke-width="0.212801" stroke-linejoin="bevel"/>
<path d="M17.4182 12.9314V16.452L20.3025 15.3456V11.8251L17.4182 12.9314Z" fill="#353564" stroke="#CCCCCC" stroke-width="0.212801" stroke-linejoin="bevel"/>
<path d="M17.4182 16.4518L20.2605 17.5418L23.1448 16.4356L20.3025 15.3456L17.4182 16.4518Z" fill="#AFAFDE" stroke="#CCCCCC" stroke-width="0.212801" stroke-linejoin="bevel"/>
<path d="M17.4182 12.9312L20.2605 14.0212L23.1448 12.9151L20.3025 11.8251L17.4182 12.9312Z" fill="#F7F7F4" stroke="#CCCCCC" stroke-width="0.212801" stroke-linejoin="bevel"/>
<path d="M20.2604 14.0217V17.5423L23.1447 16.4359V12.9153L20.2604 14.0217Z" fill="#FFD242" stroke="#CCCCCC" stroke-width="0.212801" stroke-linejoin="bevel"/>
<path d="M17.4182 12.9315L20.2605 14.0217V17.5422L17.4182 16.452V12.9315Z" fill="#EFEEEA" stroke="#CCCCCC" stroke-width="0.212801" stroke-linejoin="bevel"/>
<path d="M20.3026 8.26971L23.1449 9.35994V12.8805L20.3026 11.7903V8.26971Z" fill="#E9E9FF" stroke="#CCCCCC" stroke-width="0.212801" stroke-linejoin="bevel"/>
<path d="M17.4182 9.37608V12.8966L20.3025 11.7903V8.26971L17.4182 9.37608Z" fill="#353564" stroke="#CCCCCC" stroke-width="0.212801" stroke-linejoin="bevel"/>
<path d="M17.4182 12.8964L20.2605 13.9863L23.1448 12.8802L20.3025 11.7902L17.4182 12.8964Z" fill="#AFAFDE" stroke="#CCCCCC" stroke-width="0.212801" stroke-linejoin="bevel"/>
<path d="M17.4182 9.37584L20.2605 10.4658L23.1448 9.35971L20.3025 8.26971L17.4182 9.37584Z" fill="#F7F7F4" stroke="#CCCCCC" stroke-width="0.212801" stroke-linejoin="bevel"/>
<path d="M20.2604 10.4662V13.9868L23.1447 12.8804V9.35986L20.2604 10.4662Z" fill="#3775A9" stroke="#CCCCCC" stroke-width="0.212801" stroke-linejoin="bevel"/>
<path d="M17.4182 9.37604L20.2605 10.4663V13.9868L17.4182 12.8966V9.37604Z" fill="#EFEEEA" stroke="#CCCCCC" stroke-width="0.212801" stroke-linejoin="bevel"/>
<path d="M20.3026 4.71423L23.1449 5.80446V9.325L20.3026 8.23477V4.71423Z" fill="#E9E9FF" stroke="#CCCCCC" stroke-width="0.212801" stroke-linejoin="bevel"/>
<path d="M17.4182 5.8206V9.34114L20.3025 8.23477V4.71423L17.4182 5.8206Z" fill="#353564" stroke="#CCCCCC" stroke-width="0.212801" stroke-linejoin="bevel"/>
<path d="M17.4182 9.34087L20.2605 10.4309L23.1448 9.32474L20.3025 8.23474L17.4182 9.34087Z" fill="#AFAFDE" stroke="#CCCCCC" stroke-width="0.212801" stroke-linejoin="bevel"/>
<path d="M17.4182 5.82036L20.2605 6.91035L23.1448 5.80423L20.3025 4.71423L17.4182 5.82036Z" fill="#2F6491" stroke="#CCCCCC" stroke-width="0.212801" stroke-linejoin="bevel"/>
<path d="M20.2604 6.91081V10.4314L23.1447 9.32498V5.80444L20.2604 6.91081Z" fill="#3775A9" stroke="#CCCCCC" stroke-width="0.212801" stroke-linejoin="bevel"/>
<path d="M17.4182 5.82062L20.2605 6.91085V10.4314L17.4182 9.34116V5.82062Z" fill="#EFEEEA" stroke="#CCCCCC" stroke-width="0.212801" stroke-linejoin="bevel"/>
<path d="M17.4479 12.9191L20.2901 14.0093V17.5298L17.4479 16.4396V12.9191Z" fill="#E9E9FF" stroke="#CCCCCC" stroke-width="0.212801" stroke-linejoin="bevel"/>
<path d="M14.5636 14.0254V17.546L17.4479 16.4396V12.9191L14.5636 14.0254Z" fill="#353564" stroke="#CCCCCC" stroke-width="0.212801" stroke-linejoin="bevel"/>
<path d="M14.5636 17.5457L17.4059 18.6357L20.2902 17.5296L17.4479 16.4396L14.5636 17.5457Z" fill="#AFAFDE" stroke="#CCCCCC" stroke-width="0.212801" stroke-linejoin="bevel"/>
<path d="M14.5636 14.0252L17.4059 15.1152L20.2902 14.0091L17.4479 12.9191L14.5636 14.0252Z" fill="#F7F7F4" stroke="#CCCCCC" stroke-width="0.212801" stroke-linejoin="bevel"/>
<path d="M17.4059 15.1156V18.6362L20.2902 17.5298V14.0093L17.4059 15.1156Z" fill="#FFD242" stroke="#CCCCCC" stroke-width="0.212801" stroke-linejoin="bevel"/>
<path d="M14.5636 14.0254L17.4059 15.1156V18.6362L14.5636 17.5459V14.0254Z" fill="#EFEEEA" stroke="#CCCCCC" stroke-width="0.212801" stroke-linejoin="bevel"/>
<path d="M17.4479 9.36365L20.2901 10.4539V13.9744L17.4479 12.8842V9.36365Z" fill="#E9E9FF" stroke="#CCCCCC" stroke-width="0.212801" stroke-linejoin="bevel"/>
<path d="M14.5636 10.47V13.9906L17.4479 12.8842V9.36365L14.5636 10.47Z" fill="#353564" stroke="#CCCCCC" stroke-width="0.212801" stroke-linejoin="bevel"/>
<path d="M14.5636 13.9903L17.4059 15.0803L20.2902 13.9741L17.4479 12.8842L14.5636 13.9903Z" fill="#AFAFDE" stroke="#CCCCCC" stroke-width="0.212801" stroke-linejoin="bevel"/>
<path d="M14.5636 10.4698L17.4059 11.5598L20.2902 10.4536L17.4479 9.36365L14.5636 10.4698Z" fill="#F7F7F4" stroke="#CCCCCC" stroke-width="0.212801" stroke-linejoin="bevel"/>
<path d="M17.4059 11.5602V15.0808L20.2902 13.9744V10.4539L17.4059 11.5602Z" fill="#3775A9" stroke="#CCCCCC" stroke-width="0.212801" stroke-linejoin="bevel"/>
<path d="M14.5636 10.47L17.4059 11.5603V15.0808L14.5636 13.9906V10.47Z" fill="#EFEEEA" stroke="#CCCCCC" stroke-width="0.212801" stroke-linejoin="bevel"/>
<path d="M14.5931 14.0131L17.4354 15.1034V18.6239L14.5931 17.5337V14.0131Z" fill="#E9E9FF" stroke="#CCCCCC" stroke-width="0.212801" stroke-linejoin="bevel"/>
<path d="M11.7089 15.1195V18.64L14.5932 17.5337V14.0131L11.7089 15.1195Z" fill="#353564" stroke="#CCCCCC" stroke-width="0.212801" stroke-linejoin="bevel"/>
<path d="M11.7089 18.6398L14.5511 19.7298L17.4355 18.6236L14.5932 17.5336L11.7089 18.6398Z" fill="#AFAFDE" stroke="#CCCCCC" stroke-width="0.212801" stroke-linejoin="bevel"/>
<path d="M11.7089 15.1192L14.5511 16.2092L17.4355 15.1031L14.5932 14.0131L11.7089 15.1192Z" fill="#F7F7F4" stroke="#CCCCCC" stroke-width="0.212801" stroke-linejoin="bevel"/>
<path d="M14.5511 16.2097V19.7302L17.4355 18.6239V15.1033L14.5511 16.2097Z" fill="#3775A9" stroke="#CCCCCC" stroke-width="0.212801" stroke-linejoin="bevel"/>
<path d="M11.7089 15.1195L14.5511 16.2097V19.7303L11.7089 18.6401V15.1195Z" fill="#2F6491" stroke="#CCCCCC" stroke-width="0.212801" stroke-linejoin="bevel"/>
<path d="M14.5931 10.4576L17.4354 11.5479V15.0684L14.5931 13.9782V10.4576Z" fill="#E9E9FF" stroke="#CCCCCC" stroke-width="0.212801" stroke-linejoin="bevel"/>
<path d="M11.7089 11.564V15.0845L14.5932 13.9782V10.4576L11.7089 11.564Z" fill="#353564" stroke="#CCCCCC" stroke-width="0.212801" stroke-linejoin="bevel"/>
<path d="M11.7089 15.0843L14.5511 16.1743L17.4355 15.0682L14.5932 13.9782L11.7089 15.0843Z" fill="#AFAFDE" stroke="#CCCCCC" stroke-width="0.212801" stroke-linejoin="bevel"/>
<path d="M11.7089 11.5638L14.5511 12.6538L17.4355 11.5476L14.5932 10.4576L11.7089 11.5638Z" fill="#2F6491" stroke="#CCCCCC" stroke-width="0.212801" stroke-linejoin="bevel"/>
<path d="M14.5511 12.6543V16.1748L17.4355 15.0685V11.5479L14.5511 12.6543Z" fill="#3775A9" stroke="#CCCCCC" stroke-width="0.212801" stroke-linejoin="bevel"/>
<path d="M11.7089 11.564L14.5511 12.6543V16.1748L11.7089 15.0846V11.564Z" fill="#2F6491" stroke="#CCCCCC" stroke-width="0.212801" stroke-linejoin="bevel"/>
<path d="M17.4479 5.80823L20.2901 6.89846V10.419L17.4479 9.32877V5.80823Z" fill="#E9E9FF" stroke="#CCCCCC" stroke-width="0.212801" stroke-linejoin="bevel"/>
<path d="M14.5636 6.91459V10.4351L17.4479 9.32877V5.80823L14.5636 6.91459Z" fill="#353564" stroke="#CCCCCC" stroke-width="0.212801" stroke-linejoin="bevel"/>
<path d="M14.5636 10.4349L17.4059 11.5249L20.2902 10.4188L17.4479 9.3288L14.5636 10.4349Z" fill="#AFAFDE" stroke="#CCCCCC" stroke-width="0.212801" stroke-linejoin="bevel"/>
<path d="M14.5636 6.91435L17.4059 8.00435L20.2902 6.89822L17.4479 5.80823L14.5636 6.91435Z" fill="#2F6491" stroke="#CCCCCC" stroke-width="0.212801" stroke-linejoin="bevel"/>
<path d="M17.4059 8.00486V11.5254L20.2902 10.419V6.8985L17.4059 8.00486Z" fill="#3775A9" stroke="#CCCCCC" stroke-width="0.212801" stroke-linejoin="bevel"/>
<path d="M14.5636 6.91461L17.4059 8.00484V11.5254L14.5636 10.4352V6.91461Z" fill="#2F6491" stroke="#CCCCCC" stroke-width="0.212801" stroke-linejoin="bevel"/>
<path d="M18.4825 9.96902C18.7884 9.85168 19.0364 9.47847 19.0364 9.13544C19.0364 8.7924 18.7884 8.60945 18.4825 8.7268C18.1766 8.84414 17.9286 9.21735 17.9286 9.56038C17.9286 9.90342 18.1766 10.0864 18.4825 9.96902Z" fill="white"/>
</g>
<g filter="url(#filter1_d_48_165)">
<path d="M33.5542 18.4999H32.2729L35.1519 10.4999H36.5464L39.4253 18.4999H38.144L35.8823 11.9531H35.8198L33.5542 18.4999ZM33.769 15.3671H37.9253V16.3827H33.769V15.3671ZM44.8677 12.4999L42.6919 18.4999H41.4419L39.2622 12.4999H40.5161L42.0356 17.1171H42.0981L43.6138 12.4999H44.8677ZM47.5395 18.6327C47.1593 18.6327 46.8156 18.5624 46.5083 18.4218C46.201 18.2786 45.9575 18.0716 45.7778 17.8007C45.6007 17.5299 45.5122 17.1979 45.5122 16.8046C45.5122 16.4661 45.5773 16.1874 45.7075 15.9687C45.8377 15.7499 46.0135 15.5768 46.2349 15.4492C46.4562 15.3216 46.7036 15.2252 46.977 15.1601C47.2505 15.095 47.5291 15.0455 47.813 15.0117C48.1724 14.97 48.464 14.9361 48.688 14.9101C48.9119 14.8814 49.0747 14.8359 49.1763 14.7734C49.2778 14.7109 49.3286 14.6093 49.3286 14.4687V14.4413C49.3286 14.1002 49.2323 13.8359 49.0395 13.6484C48.8494 13.4609 48.5656 13.3671 48.188 13.3671C47.7948 13.3671 47.4849 13.4544 47.2583 13.6288C47.0343 13.8007 46.8794 13.9921 46.7935 14.2031L45.6958 13.9531C45.826 13.5885 46.0161 13.2942 46.2661 13.0702C46.5187 12.8437 46.8091 12.6796 47.1372 12.5781C47.4653 12.4739 47.8104 12.4218 48.1724 12.4218C48.4119 12.4218 48.6658 12.4505 48.9341 12.5078C49.2049 12.5624 49.4575 12.664 49.6919 12.8124C49.9289 12.9609 50.1229 13.1731 50.2739 13.4492C50.425 13.7226 50.5005 14.0781 50.5005 14.5156V18.4999H49.3599V17.6796H49.313C49.2375 17.8307 49.1242 17.9791 48.9731 18.1249C48.8221 18.2708 48.6281 18.3919 48.3911 18.4882C48.1541 18.5846 47.8703 18.6327 47.5395 18.6327ZM47.7935 17.6952C48.1164 17.6952 48.3924 17.6314 48.6216 17.5038C48.8533 17.3762 49.0291 17.2096 49.1489 17.0038C49.2713 16.7955 49.3325 16.5729 49.3325 16.3359V15.5624C49.2908 15.6041 49.2101 15.6432 49.0903 15.6796C48.9731 15.7135 48.839 15.7434 48.688 15.7695C48.5369 15.7929 48.3898 15.815 48.2466 15.8359C48.1033 15.8541 47.9836 15.8697 47.8872 15.8827C47.6606 15.9114 47.4536 15.9596 47.2661 16.0273C47.0812 16.095 46.9328 16.1926 46.8208 16.3202C46.7114 16.4452 46.6567 16.6119 46.6567 16.8202C46.6567 17.1093 46.7635 17.3281 46.977 17.4765C47.1906 17.6223 47.4627 17.6952 47.7935 17.6952ZM52.0561 18.4999V12.4999H53.2241V18.4999H52.0561ZM52.646 11.5742C52.4429 11.5742 52.2684 11.5064 52.1226 11.371C51.9793 11.233 51.9077 11.0689 51.9077 10.8788C51.9077 10.6861 51.9793 10.5221 52.1226 10.3867C52.2684 10.2486 52.4429 10.1796 52.646 10.1796C52.8491 10.1796 53.0223 10.2486 53.1655 10.3867C53.3114 10.5221 53.3843 10.6861 53.3843 10.8788C53.3843 11.0689 53.3114 11.233 53.1655 11.371C53.0223 11.5064 52.8491 11.5742 52.646 11.5742ZM55.9634 10.4999V18.4999H54.7954V10.4999H55.9634ZM59.2808 18.6327C58.9005 18.6327 58.5568 18.5624 58.2495 18.4218C57.9422 18.2786 57.6987 18.0716 57.519 17.8007C57.342 17.5299 57.2534 17.1979 57.2534 16.8046C57.2534 16.4661 57.3185 16.1874 57.4487 15.9687C57.5789 15.7499 57.7547 15.5768 57.9761 15.4492C58.1974 15.3216 58.4448 15.2252 58.7183 15.1601C58.9917 15.095 59.2703 15.0455 59.5542 15.0117C59.9136 14.97 60.2052 14.9361 60.4292 14.9101C60.6531 14.8814 60.8159 14.8359 60.9175 14.7734C61.019 14.7109 61.0698 14.6093 61.0698 14.4687V14.4413C61.0698 14.1002 60.9735 13.8359 60.7808 13.6484C60.5906 13.4609 60.3068 13.3671 59.9292 13.3671C59.536 13.3671 59.2261 13.4544 58.9995 13.6288C58.7755 13.8007 58.6206 13.9921 58.5347 14.2031L57.437 13.9531C57.5672 13.5885 57.7573 13.2942 58.0073 13.0702C58.2599 12.8437 58.5503 12.6796 58.8784 12.5781C59.2065 12.4739 59.5516 12.4218 59.9136 12.4218C60.1531 12.4218 60.4071 12.4505 60.6753 12.5078C60.9461 12.5624 61.1987 12.664 61.4331 12.8124C61.6701 12.9609 61.8641 13.1731 62.0151 13.4492C62.1662 13.7226 62.2417 14.0781 62.2417 14.5156V18.4999H61.1011V17.6796H61.0542C60.9787 17.8307 60.8654 17.9791 60.7143 18.1249C60.5633 18.2708 60.3693 18.3919 60.1323 18.4882C59.8953 18.5846 59.6115 18.6327 59.2808 18.6327ZM59.5347 17.6952C59.8576 17.6952 60.1336 17.6314 60.3628 17.5038C60.5946 17.3762 60.7703 17.2096 60.8901 17.0038C61.0125 16.7955 61.0737 16.5729 61.0737 16.3359V15.5624C61.0321 15.6041 60.9513 15.6432 60.8315 15.6796C60.7143 15.7135 60.5802 15.7434 60.4292 15.7695C60.2781 15.7929 60.131 15.815 59.9878 15.8359C59.8446 15.8541 59.7248 15.8697 59.6284 15.8827C59.4018 15.9114 59.1948 15.9596 59.0073 16.0273C58.8224 16.095 58.674 16.1926 58.562 16.3202C58.4526 16.4452 58.3979 16.6119 58.3979 16.8202C58.3979 17.1093 58.5047 17.3281 58.7183 17.4765C58.9318 17.6223 59.2039 17.6952 59.5347 17.6952ZM63.8911 18.4999V10.4999H65.0591V13.4726H65.1294C65.1971 13.3476 65.2947 13.2031 65.4224 13.039C65.55 12.8749 65.727 12.7317 65.9536 12.6093C66.1802 12.4843 66.4796 12.4218 66.852 12.4218C67.3364 12.4218 67.7687 12.5442 68.1489 12.789C68.5291 13.0338 68.8273 13.3867 69.0434 13.8476C69.2622 14.3085 69.3716 14.8632 69.3716 15.5117C69.3716 16.1601 69.2635 16.7161 69.0474 17.1796C68.8312 17.6406 68.5343 17.996 68.1567 18.246C67.7791 18.4934 67.3481 18.6171 66.8638 18.6171C66.4992 18.6171 66.201 18.5559 65.9692 18.4335C65.7401 18.3111 65.5604 18.1679 65.4302 18.0038C65.3 17.8398 65.1997 17.6939 65.1294 17.5663H65.0317V18.4999H63.8911ZM65.0356 15.4999C65.0356 15.9218 65.0968 16.2916 65.2192 16.6093C65.3416 16.927 65.5187 17.1757 65.7505 17.3554C65.9822 17.5325 66.2661 17.621 66.602 17.621C66.951 17.621 67.2427 17.5286 67.477 17.3437C67.7114 17.1562 67.8885 16.9023 68.0083 16.582C68.1307 16.2617 68.1919 15.901 68.1919 15.4999C68.1919 15.1041 68.132 14.7486 68.0122 14.4335C67.895 14.1184 67.7179 13.8697 67.4809 13.6874C67.2466 13.5051 66.9536 13.414 66.602 13.414C66.2635 13.414 65.977 13.5012 65.7427 13.6757C65.5109 13.8502 65.3351 14.0937 65.2153 14.4062C65.0955 14.7187 65.0356 15.0833 65.0356 15.4999ZM71.8511 10.4999V18.4999H70.6831V10.4999H71.8511ZM76.0083 18.621C75.4171 18.621 74.908 18.4947 74.4809 18.2421C74.0565 17.9869 73.7283 17.6288 73.4966 17.1679C73.2674 16.7044 73.1528 16.1614 73.1528 15.539C73.1528 14.9244 73.2674 14.3827 73.4966 13.914C73.7283 13.4452 74.0513 13.0794 74.4653 12.8163C74.882 12.5533 75.369 12.4218 75.9263 12.4218C76.2648 12.4218 76.5929 12.4778 76.9106 12.5898C77.2283 12.7018 77.5135 12.8775 77.7661 13.1171C78.0187 13.3567 78.2179 13.6679 78.3638 14.0507C78.5096 14.4309 78.5825 14.8932 78.5825 15.4374V15.8515H73.813V14.9765H77.438C77.438 14.6692 77.3755 14.3971 77.2505 14.1601C77.1255 13.9205 76.9497 13.7317 76.7231 13.5937C76.4992 13.4557 76.2362 13.3867 75.9341 13.3867C75.6059 13.3867 75.3195 13.4674 75.0747 13.6288C74.8325 13.7877 74.645 13.996 74.5122 14.2538C74.382 14.5091 74.3169 14.7864 74.3169 15.0859V15.7695C74.3169 16.1705 74.3872 16.5117 74.5278 16.7929C74.671 17.0742 74.8703 17.289 75.1255 17.4374C75.3807 17.5833 75.6789 17.6562 76.02 17.6562C76.2414 17.6562 76.4432 17.6249 76.6255 17.5624C76.8078 17.4973 76.9653 17.401 77.0981 17.2734C77.2309 17.1458 77.3325 16.9882 77.4028 16.8007L78.5083 16.9999C78.4197 17.3255 78.2609 17.6106 78.0317 17.8554C77.8052 18.0976 77.52 18.2864 77.1763 18.4218C76.8351 18.5546 76.4458 18.621 76.0083 18.621ZM85.3169 18.621C84.7544 18.621 84.2635 18.4921 83.8442 18.2343C83.425 17.9765 83.0994 17.6158 82.8677 17.1523C82.6359 16.6887 82.52 16.1471 82.52 15.5273C82.52 14.9049 82.6359 14.3606 82.8677 13.8945C83.0994 13.4283 83.425 13.0663 83.8442 12.8085C84.2635 12.5507 84.7544 12.4218 85.3169 12.4218C85.8794 12.4218 86.3703 12.5507 86.7895 12.8085C87.2088 13.0663 87.5343 13.4283 87.7661 13.8945C87.9979 14.3606 88.1138 14.9049 88.1138 15.5273C88.1138 16.1471 87.9979 16.6887 87.7661 17.1523C87.5343 17.6158 87.2088 17.9765 86.7895 18.2343C86.3703 18.4921 85.8794 18.621 85.3169 18.621ZM85.3208 17.6406C85.6854 17.6406 85.9875 17.5442 86.227 17.3515C86.4666 17.1588 86.6437 16.9023 86.7583 16.582C86.8755 16.2617 86.9341 15.9088 86.9341 15.5234C86.9341 15.1406 86.8755 14.789 86.7583 14.4687C86.6437 14.1458 86.4666 13.8867 86.227 13.6913C85.9875 13.496 85.6854 13.3984 85.3208 13.3984C84.9536 13.3984 84.6489 13.496 84.4067 13.6913C84.1671 13.8867 83.9888 14.1458 83.8716 14.4687C83.757 14.789 83.6997 15.1406 83.6997 15.5234C83.6997 15.9088 83.757 16.2617 83.8716 16.582C83.9888 16.9023 84.1671 17.1588 84.4067 17.3515C84.6489 17.5442 84.9536 17.6406 85.3208 17.6406ZM90.5854 14.9374V18.4999H89.4175V12.4999H90.5386V13.4765H90.6128C90.7508 13.1588 90.9669 12.9036 91.2612 12.7109C91.5581 12.5182 91.9318 12.4218 92.3823 12.4218C92.7912 12.4218 93.1492 12.5078 93.4565 12.6796C93.7638 12.8489 94.0021 13.1015 94.1714 13.4374C94.3406 13.7734 94.4253 14.1887 94.4253 14.6835V18.4999H93.2573V14.8242C93.2573 14.3893 93.144 14.0494 92.9175 13.8046C92.6909 13.5572 92.3797 13.4335 91.9839 13.4335C91.713 13.4335 91.4722 13.4921 91.2612 13.6093C91.0529 13.7265 90.8875 13.8984 90.7651 14.1249C90.6453 14.3489 90.5854 14.6197 90.5854 14.9374Z" fill="#E8E8E8"/>
<path d="M99.16 18.4999V9.77267H102.765C103.419 9.77267 103.982 9.90051 104.457 10.1562C104.934 10.409 105.302 10.7627 105.561 11.2173C105.819 11.669 105.948 12.1945 105.948 12.794C105.948 13.3962 105.816 13.9232 105.552 14.3749C105.291 14.8238 104.917 15.1718 104.431 15.419C103.946 15.6661 103.369 15.7897 102.701 15.7897H100.477V14.1278H102.309C102.627 14.1278 102.893 14.0724 103.106 13.9616C103.322 13.8508 103.485 13.696 103.596 13.4971C103.707 13.2954 103.762 13.061 103.762 12.794C103.762 12.5241 103.707 12.2911 103.596 12.0951C103.485 11.8962 103.322 11.7428 103.106 11.6349C102.89 11.5269 102.625 11.4729 102.309 11.4729H101.269V18.4999H99.16ZM108.262 20.9545C108.012 20.9545 107.776 20.9346 107.555 20.8948C107.333 20.8579 107.143 20.8082 106.984 20.7457L107.444 19.2329C107.649 19.3011 107.833 19.3408 107.998 19.3522C108.166 19.3636 108.309 19.3366 108.428 19.2712C108.551 19.2087 108.644 19.0965 108.71 18.9346L108.791 18.7386L106.464 11.9545H108.646L109.852 16.6249H109.92L111.143 11.9545H113.338L110.87 19.1264C110.751 19.4843 110.582 19.7997 110.363 20.0724C110.147 20.3479 109.867 20.5639 109.524 20.7201C109.183 20.8764 108.762 20.9545 108.262 20.9545ZM114.137 18.4999V9.77267H117.742C118.395 9.77267 118.959 9.90051 119.433 10.1562C119.911 10.409 120.279 10.7627 120.537 11.2173C120.796 11.669 120.925 12.1945 120.925 12.794C120.925 13.3962 120.793 13.9232 120.529 14.3749C120.267 14.8238 119.894 15.1718 119.408 15.419C118.922 15.6661 118.345 15.7897 117.678 15.7897H115.453V14.1278H117.286C117.604 14.1278 117.87 14.0724 118.083 13.9616C118.299 13.8508 118.462 13.696 118.573 13.4971C118.683 13.2954 118.739 13.061 118.739 12.794C118.739 12.5241 118.683 12.2911 118.573 12.0951C118.462 11.8962 118.299 11.7428 118.083 11.6349C117.867 11.5269 117.601 11.4729 117.286 11.4729H116.246V18.4999H114.137ZM124.074 9.77267V18.4999H121.965V9.77267H124.074Z" fill="white"/>
</g>
</g>
<rect x="0.749512" y="0.749939" width="130" height="26.5" rx="5.25" stroke="white" stroke-opacity="0.15" stroke-width="1.5"/>
<defs>
<filter id="filter0_d_48_165" x="1.89307" y="-6.10352e-05" width="28.2129" height="28" filterUnits="userSpaceOnUse" color-interpolation-filters="sRGB">
<feFlood flood-opacity="0" result="BackgroundImageFix"/>
<feColorMatrix in="SourceAlpha" type="matrix" values="0 0 0 0 0 0 0 0 0 0 0 0 0 0 0 0 0 0 127 0" result="hardAlpha"/>
<feOffset/>
<feGaussianBlur stdDeviation="2"/>
<feComposite in2="hardAlpha" operator="out"/>
<feColorMatrix type="matrix" values="0 0 0 0 0 0 0 0 0 0 0 0 0 0 0 0 0 0 0.25 0"/>
<feBlend mode="normal" in2="BackgroundImageFix" result="effect1_dropShadow_48_165"/>
<feBlend mode="normal" in="SourceGraphic" in2="effect1_dropShadow_48_165" result="shape"/>
</filter>
<filter id="filter1_d_48_165" x="27.9995" y="3.49994" width="101.5" height="21.4545" filterUnits="userSpaceOnUse" color-interpolation-filters="sRGB">
<feFlood flood-opacity="0" result="BackgroundImageFix"/>
<feColorMatrix in="SourceAlpha" type="matrix" values="0 0 0 0 0 0 0 0 0 0 0 0 0 0 0 0 0 0 127 0" result="hardAlpha"/>
<feOffset/>
<feGaussianBlur stdDeviation="2"/>
<feComposite in2="hardAlpha" operator="out"/>
<feColorMatrix type="matrix" values="0 0 0 0 0 0 0 0 0 0 0 0 0 0 0 0 0 0 0.25 0"/>
<feBlend mode="normal" in2="BackgroundImageFix" result="effect1_dropShadow_48_165"/>
<feBlend mode="normal" in="SourceGraphic" in2="effect1_dropShadow_48_165" result="shape"/>
</filter>
<linearGradient id="paint0_linear_48_165" x1="65.7495" y1="-6.10351e-05" x2="65.7495" y2="27.9999" gradientUnits="userSpaceOnUse">
<stop stop-color="#001F31"/>
<stop offset="1" stop-color="#00121D"/>
</linearGradient>
<clipPath id="clip0_48_165">
<rect x="-0.000488281" y="-6.10352e-05" width="131.5" height="28" rx="6" fill="white"/>
</clipPath>
</defs>
</svg>
