<svg width="208" height="41" viewBox="0 0 208 41" fill="none" xmlns="http://www.w3.org/2000/svg">
<rect x="-0.000732422" y="0.0388184" width="208.001" height="40.0014" rx="8" fill="url(#paint0_linear_2_3417)"/>
<rect x="1.0707" y="1.11025" width="205.858" height="37.8585" rx="6.92857" stroke="white" stroke-opacity="0.15" stroke-width="2.14286"/>
<g filter="url(#filter0_d_2_3417)">
<path fill-rule="evenodd" clip-rule="evenodd" d="M22.5252 8.09785C22.2139 8.19722 21.9748 8.37712 21.7038 8.71579C21.6275 8.81097 21.4963 8.84453 21.3256 8.81241C21.1231 8.77431 20.3546 8.72459 18.3432 8.61952C17.7554 8.58878 17.6361 8.60552 17.5307 8.73318C17.2786 9.03821 17.3465 10.021 17.6344 10.2346C17.7164 10.2955 18.1632 10.3045 18.603 10.2542C18.8399 10.2271 19.0758 10.203 19.6178 10.1503C19.7539 10.1371 19.9766 10.1152 20.1128 10.1016C20.2489 10.088 20.5329 10.0599 20.7439 10.0391C20.9549 10.0183 21.2647 9.97273 21.4324 9.9378L21.7373 9.87437L21.8284 9.9355C22.0946 10.1141 22.1679 10.2433 22.13 10.4671C22.0587 10.8875 22.0513 11.1189 22.0615 12.603C22.0743 14.4354 22.1171 14.2733 21.6101 14.313C21.2932 14.3378 21.1698 14.428 21.1143 14.6756C21.0877 14.7942 21.0938 15.9247 21.1227 16.2333C21.1409 16.427 20.9887 16.5372 20.6405 16.5825C20.2982 16.627 20.2156 16.8229 20.2889 17.4165C20.3048 17.5454 20.2263 17.6496 20.0241 17.7681C19.8404 17.8756 19.8018 18.1302 19.9461 18.2824C20.1034 18.4483 20.1112 18.5309 19.9866 18.7113C19.8571 18.899 19.8542 18.9284 19.853 20.0767C19.8518 21.2305 19.837 21.4191 19.7354 21.5703C19.5885 21.7889 18.8679 22.4531 18.698 22.5265C18.6462 22.5488 18.2073 22.5609 17.0314 22.5726C16.1534 22.5812 15.4045 22.5967 15.3671 22.6071C15.2162 22.6486 15.0767 22.6003 14.9414 22.4598C14.7529 22.2641 14.7742 22.2667 13.4798 22.2802C12.208 22.2935 12.2215 22.2953 12.191 22.1138C12.1567 21.9094 12.1366 21.8434 12.0538 21.6635C11.8962 21.3211 11.7573 21.2541 11.3184 21.3091C11.0386 21.3442 10.9754 21.4203 10.9069 21.8052C10.821 22.2874 10.7315 22.3884 10.4755 22.2919C10.3069 22.2283 10.2814 22.227 9.61877 22.2498C9.5779 22.2512 9.50354 22.245 9.45349 22.2361C9.40018 22.2267 9.32314 22.2331 9.26781 22.2517C9.2158 22.2693 9.08973 22.2861 8.9876 22.2893C8.5306 22.3032 8.45444 22.3266 8.34999 22.4857C8.11961 22.8363 7.92489 24.7968 8.02768 25.7312C8.14478 26.7964 8.29205 27.3012 8.5123 27.3924C8.81472 27.5176 10.1215 27.5755 10.4643 27.4787L10.6416 27.4287L10.7211 27.4851C10.8249 27.5589 10.8808 27.6906 10.9304 27.9783C10.9897 28.3231 11.0512 28.4003 11.3049 28.448C11.4781 28.4806 11.7126 28.4677 11.818 28.4198C12.0405 28.3187 12.1648 27.6263 12.0301 27.2381C11.9531 27.016 12.0106 26.9631 12.1119 27.163C12.2541 27.4438 12.4001 27.472 13.7149 27.472C14.9049 27.472 14.8192 27.4928 14.9859 27.1651C15.1201 26.9016 15.1809 26.853 15.3687 26.8598C15.4461 26.8626 16.0662 26.8745 16.7468 26.8861C18.1048 26.9094 17.9757 26.8941 18.405 27.0832C19.5292 27.5782 20.7601 27.8571 22.3031 27.9663C23.1514 28.0263 24.3184 28.0006 25.0504 27.9057C26.3664 27.7351 27.2341 27.5158 28.1318 27.1272C28.786 26.8439 29.0759 26.994 29.2103 27.6858C29.3154 28.2266 29.2902 28.3063 28.9733 28.4348C28.5266 28.6159 28.2498 28.8024 28.1839 28.9665C28.1364 29.0853 28.1586 29.2157 28.2867 29.5709C28.3209 29.666 28.3523 29.8049 28.3564 29.8796C28.368 30.0915 28.3898 30.1785 28.465 30.3126C28.5033 30.3811 28.5418 30.4922 28.5507 30.5596C28.5711 30.7167 28.631 30.9024 28.7016 31.0278C28.7353 31.0877 28.7634 31.1911 28.7729 31.2908C28.8173 31.7558 29.0186 31.8913 29.7777 31.967C29.8662 31.9758 29.9649 31.987 29.9972 31.9919C31.5397 32.2278 33.6705 31.5837 35.2027 30.4183C35.9172 29.8749 36.097 29.6172 35.957 29.3372C35.934 29.2913 35.9157 29.1965 35.9157 29.1236C35.9157 28.9808 35.8438 28.7602 35.7646 28.6596C35.7372 28.6248 35.71 28.5471 35.7044 28.4872C35.6935 28.3719 35.6165 28.1545 35.5558 28.0681C35.5359 28.0398 35.5197 27.9804 35.5197 27.9362C35.5197 27.8445 35.4593 27.6768 35.3908 27.5778C35.3652 27.541 35.3283 27.4571 35.3088 27.3916C35.2075 27.0513 34.631 26.8455 34.047 26.9412C33.5468 27.0232 33.5126 27.005 33.3681 26.5809C32.9079 25.2313 32.2814 24.2349 31.5567 23.7003C31.2816 23.4973 31.1786 23.4504 30.1489 23.0584C29.139 22.674 28.8835 22.5666 28.4209 22.3316C28.1443 22.1912 27.8381 22.0248 27.7403 21.9618C26.2451 20.9993 26.4064 21.2514 26.3519 19.7918C26.3152 18.8102 26.3074 18.7714 26.1151 18.6172C25.9589 18.492 25.9362 18.4341 25.9795 18.2716C26.0541 17.9923 26.015 17.8689 25.8073 17.7277C25.6451 17.6174 25.6227 17.5703 25.6479 17.3917C25.7329 16.7896 25.6359 16.5735 25.2625 16.5333C25.0366 16.5089 24.9419 16.4786 24.8774 16.4102L24.8191 16.3482L24.8172 15.4654C24.8146 14.2931 24.8227 14.3108 24.2831 14.2844C23.8975 14.2655 23.8087 14.2437 23.7281 14.1481L23.6644 14.0726L23.6642 12.414C23.6641 11.4503 23.6534 10.6633 23.6388 10.5359C23.6092 10.2784 23.613 10.2695 23.8425 10.0543C24.0179 9.88967 24.1289 9.82285 24.1966 9.84118C24.5948 9.94942 24.5303 9.9443 26.7087 10.04C28.3804 10.1135 28.3661 10.115 28.5029 9.8419C28.6819 9.48426 28.561 8.51669 28.3249 8.41703C28.2441 8.38297 27.9246 8.38434 27.6244 8.42013C27.4026 8.44662 27.344 8.45311 26.2632 8.57182C24.9205 8.71925 24.8945 8.72243 24.5642 8.77994C24.2411 8.83616 24.222 8.82988 24.0366 8.60624C23.6404 8.12837 23.0508 7.93 22.5252 8.09785Z" fill="url(#paint1_linear_2_3417)"/>
</g>
<g filter="url(#filter1_d_2_3417)">
<path d="M44.4034 26.5395H42.4233L46.8725 14.1759H49.0277L53.4769 26.5395H51.4968L48.0014 16.4217H47.9049L44.4034 26.5395ZM44.7355 21.6979H51.1588V23.2675H44.7355V21.6979ZM61.8879 17.2668L58.5253 26.5395H56.5935L53.2249 17.2668H55.1627L57.5111 24.4025H57.6077L59.95 17.2668H61.8879ZM66.0171 26.7448C65.4296 26.7448 64.8983 26.6361 64.4234 26.4188C63.9485 26.1975 63.5722 25.8775 63.2945 25.4589C63.0208 25.0404 62.884 24.5272 62.884 23.9195C62.884 23.3963 62.9846 22.9657 63.1858 22.6276C63.3871 22.2895 63.6587 22.0219 64.0008 21.8247C64.3429 21.6275 64.7252 21.4786 65.1478 21.378C65.5704 21.2774 66.0011 21.2009 66.4397 21.1486C66.9951 21.0842 67.4459 21.0319 67.792 20.9916C68.1381 20.9473 68.3897 20.8769 68.5466 20.7803C68.7036 20.6837 68.7821 20.5268 68.7821 20.3094V20.2672C68.7821 19.7399 68.6332 19.3315 68.3353 19.0417C68.0415 18.7519 67.6028 18.607 67.0193 18.607C66.4116 18.607 65.9326 18.7418 65.5825 19.0115C65.2364 19.2771 64.9969 19.5729 64.8641 19.8989L63.1677 19.5126C63.3689 18.9491 63.6627 18.4943 64.0491 18.1482C64.4395 17.7981 64.8882 17.5445 65.3953 17.3876C65.9024 17.2266 66.4357 17.1461 66.9951 17.1461C67.3654 17.1461 67.7578 17.1904 68.1723 17.2789C68.5909 17.3634 68.9813 17.5204 69.3435 17.7498C69.7097 17.9792 70.0096 18.3072 70.243 18.7338C70.4764 19.1564 70.5931 19.7057 70.5931 20.3819V26.5395H68.8304V25.2718H68.7579C68.6412 25.5052 68.4661 25.7346 68.2327 25.96C67.9993 26.1854 67.6994 26.3725 67.3332 26.5214C66.967 26.6703 66.5283 26.7448 66.0171 26.7448ZM66.4095 25.2959C66.9086 25.2959 67.3352 25.1973 67.6894 25.0001C68.0476 24.8029 68.3192 24.5453 68.5044 24.2274C68.6935 23.9054 68.7881 23.5613 68.7881 23.1951V21.9998C68.7237 22.0642 68.5989 22.1245 68.4138 22.1809C68.2327 22.2332 68.0254 22.2795 67.792 22.3197C67.5586 22.356 67.3312 22.3902 67.1098 22.4224C66.8885 22.4505 66.7033 22.4747 66.5544 22.4948C66.2043 22.5391 65.8843 22.6135 65.5946 22.7182C65.3088 22.8228 65.0794 22.9737 64.9064 23.1709C64.7373 23.3641 64.6528 23.6217 64.6528 23.9437C64.6528 24.3904 64.8178 24.7285 65.1478 24.9579C65.4779 25.1832 65.8984 25.2959 66.4095 25.2959ZM72.9973 26.5395V17.2668H74.8024V26.5395H72.9973ZM73.9089 15.8361C73.595 15.8361 73.3254 15.7314 73.1 15.5221C72.8786 15.3088 72.7679 15.0553 72.7679 14.7615C72.7679 14.4637 72.8786 14.2101 73.1 14.0008C73.3254 13.7875 73.595 13.6809 73.9089 13.6809C74.2228 13.6809 74.4905 13.7875 74.7118 14.0008C74.9372 14.2101 75.0499 14.4637 75.0499 14.7615C75.0499 15.0553 74.9372 15.3088 74.7118 15.5221C74.4905 15.7314 74.2228 15.8361 73.9089 15.8361ZM79.0358 14.1759V26.5395H77.2307V14.1759H79.0358ZM84.1627 26.7448C83.5751 26.7448 83.0438 26.6361 82.5689 26.4188C82.094 26.1975 81.7177 25.8775 81.44 25.4589C81.1663 25.0404 81.0295 24.5272 81.0295 23.9195C81.0295 23.3963 81.1301 22.9657 81.3313 22.6276C81.5326 22.2895 81.8042 22.0219 82.1463 21.8247C82.4884 21.6275 82.8707 21.4786 83.2933 21.378C83.7159 21.2774 84.1466 21.2009 84.5852 21.1486C85.1406 21.0842 85.5914 21.0319 85.9375 20.9916C86.2836 20.9473 86.5352 20.8769 86.6921 20.7803C86.8491 20.6837 86.9276 20.5268 86.9276 20.3094V20.2672C86.9276 19.7399 86.7787 19.3315 86.4808 19.0417C86.187 18.7519 85.7484 18.607 85.1648 18.607C84.5571 18.607 84.0781 18.7418 83.728 19.0115C83.3819 19.2771 83.1424 19.5729 83.0096 19.8989L81.3132 19.5126C81.5145 18.9491 81.8082 18.4943 82.1946 18.1482C82.585 17.7981 83.0337 17.5445 83.5408 17.3876C84.048 17.2266 84.5812 17.1461 85.1406 17.1461C85.5109 17.1461 85.9033 17.1904 86.3178 17.2789C86.7364 17.3634 87.1268 17.5204 87.489 17.7498C87.8552 17.9792 88.1551 18.3072 88.3885 18.7338C88.6219 19.1564 88.7386 19.7057 88.7386 20.3819V26.5395H86.9759V25.2718H86.9034C86.7867 25.5052 86.6116 25.7346 86.3782 25.96C86.1448 26.1854 85.8449 26.3725 85.4787 26.5214C85.1125 26.6703 84.6738 26.7448 84.1627 26.7448ZM84.5551 25.2959C85.0541 25.2959 85.4807 25.1973 85.8349 25.0001C86.1931 24.8029 86.4647 24.5453 86.6499 24.2274C86.839 23.9054 86.9336 23.5613 86.9336 23.1951V21.9998C86.8692 22.0642 86.7444 22.1245 86.5593 22.1809C86.3782 22.2332 86.1709 22.2795 85.9375 22.3197C85.7041 22.356 85.4767 22.3902 85.2553 22.4224C85.034 22.4505 84.8488 22.4747 84.6999 22.4948C84.3498 22.5391 84.0298 22.6135 83.7401 22.7182C83.4543 22.8228 83.2249 22.9737 83.0519 23.1709C82.8828 23.3641 82.7983 23.6217 82.7983 23.9437C82.7983 24.3904 82.9633 24.7285 83.2933 24.9579C83.6234 25.1832 84.0439 25.2959 84.5551 25.2959ZM91.2877 26.5395V14.1759H93.0928V18.77H93.2014C93.3061 18.5768 93.457 18.3535 93.6542 18.0999C93.8514 17.8464 94.1251 17.625 94.4752 17.4359C94.8254 17.2427 95.2882 17.1461 95.8637 17.1461C96.6123 17.1461 97.2804 17.3352 97.868 17.7136C98.4556 18.0919 98.9164 18.6372 99.2504 19.3496C99.5885 20.0619 99.7576 20.9192 99.7576 21.9213C99.7576 22.9234 99.5905 23.7827 99.2565 24.4991C98.9224 25.2114 98.4636 25.7608 97.8801 26.1471C97.2965 26.5295 96.6304 26.7207 95.8818 26.7207C95.3184 26.7207 94.8576 26.6261 94.4994 26.4369C94.1452 26.2478 93.8675 26.0264 93.6663 25.7729C93.4651 25.5193 93.3101 25.2939 93.2014 25.0967H93.0505V26.5395H91.2877ZM93.0566 21.9032C93.0566 22.5552 93.1511 23.1267 93.3403 23.6177C93.5295 24.1087 93.8031 24.493 94.1613 24.7707C94.5195 25.0444 94.9582 25.1812 95.4774 25.1812C96.0167 25.1812 96.4674 25.0384 96.8296 24.7526C97.1919 24.4628 97.4655 24.0704 97.6507 23.5754C97.8398 23.0804 97.9344 22.523 97.9344 21.9032C97.9344 21.2914 97.8418 20.7421 97.6567 20.2551C97.4756 19.7681 97.2019 19.3838 96.8357 19.102C96.4735 18.8203 96.0207 18.6795 95.4774 18.6795C94.9542 18.6795 94.5115 18.8143 94.1492 19.0839C93.7911 19.3536 93.5194 19.7299 93.3343 20.2128C93.1491 20.6958 93.0566 21.2592 93.0566 21.9032ZM103.589 14.1759V26.5395H101.784V14.1759H103.589ZM110.014 26.7267C109.101 26.7267 108.314 26.5315 107.654 26.1411C106.998 25.7467 106.491 25.1933 106.133 24.481C105.778 23.7646 105.601 22.9254 105.601 21.9636C105.601 21.0137 105.778 20.1766 106.133 19.4522C106.491 18.7278 106.99 18.1623 107.63 17.7558C108.274 17.3493 109.026 17.1461 109.888 17.1461C110.411 17.1461 110.918 17.2326 111.409 17.4057C111.9 17.5787 112.341 17.8504 112.731 18.2207C113.121 18.5909 113.429 19.0719 113.655 19.6635C113.88 20.2511 113.993 20.9654 113.993 21.8066V22.4465H106.622V21.0942H112.224C112.224 20.6193 112.127 20.1988 111.934 19.8325C111.741 19.4623 111.469 19.1705 111.119 18.9572C110.773 18.7439 110.366 18.6372 109.9 18.6372C109.392 18.6372 108.95 18.762 108.571 19.0115C108.197 19.257 107.907 19.579 107.702 19.9774C107.501 20.3718 107.4 20.8004 107.4 21.2633V22.3197C107.4 22.9395 107.509 23.4667 107.726 23.9014C107.948 24.3361 108.256 24.6681 108.65 24.8975C109.044 25.1229 109.505 25.2356 110.032 25.2356C110.374 25.2356 110.686 25.1873 110.968 25.0907C111.25 24.9901 111.493 24.8412 111.699 24.6439C111.904 24.4467 112.061 24.2033 112.169 23.9135L113.878 24.2214C113.741 24.7244 113.496 25.1651 113.141 25.5435C112.791 25.9177 112.351 26.2095 111.819 26.4188C111.292 26.6241 110.69 26.7267 110.014 26.7267ZM124.4 26.7267C123.531 26.7267 122.772 26.5275 122.124 26.129C121.476 25.7306 120.973 25.1732 120.615 24.4568C120.257 23.7404 120.078 22.9033 120.078 21.9454C120.078 20.9836 120.257 20.1424 120.615 19.422C120.973 18.7016 121.476 18.1422 122.124 17.7437C122.772 17.3453 123.531 17.1461 124.4 17.1461C125.27 17.1461 126.028 17.3453 126.676 17.7437C127.324 18.1422 127.827 18.7016 128.185 19.422C128.544 20.1424 128.723 20.9836 128.723 21.9454C128.723 22.9033 128.544 23.7404 128.185 24.4568C127.827 25.1732 127.324 25.7306 126.676 26.129C126.028 26.5275 125.27 26.7267 124.4 26.7267ZM124.406 25.2114C124.97 25.2114 125.437 25.0625 125.807 24.7647C126.177 24.4669 126.451 24.0704 126.628 23.5754C126.809 23.0804 126.9 22.535 126.9 21.9394C126.9 21.3478 126.809 20.8045 126.628 20.3094C126.451 19.8104 126.177 19.4099 125.807 19.1081C125.437 18.8062 124.97 18.6553 124.406 18.6553C123.839 18.6553 123.368 18.8062 122.994 19.1081C122.623 19.4099 122.348 19.8104 122.167 20.3094C121.99 20.8045 121.901 21.3478 121.901 21.9394C121.901 22.535 121.99 23.0804 122.167 23.5754C122.348 24.0704 122.623 24.4669 122.994 24.7647C123.368 25.0625 123.839 25.2114 124.406 25.2114ZM132.543 21.0339V26.5395H130.738V17.2668H132.47V18.7761H132.585C132.798 18.285 133.132 17.8906 133.587 17.5928C134.046 17.295 134.623 17.1461 135.32 17.1461C135.951 17.1461 136.505 17.2789 136.98 17.5445C137.455 17.8061 137.823 18.1965 138.085 18.7157C138.346 19.2349 138.477 19.8768 138.477 20.6415V26.5395H136.672V20.8588C136.672 20.1867 136.497 19.6615 136.147 19.2832C135.797 18.9008 135.316 18.7096 134.704 18.7096C134.285 18.7096 133.913 18.8002 133.587 18.9813C133.265 19.1624 133.009 19.428 132.82 19.7782C132.635 20.1243 132.543 20.5429 132.543 21.0339Z" fill="#E8E8E8"/>
<path d="M151.619 17.8826C151.579 17.4399 151.4 17.0958 151.082 16.8503C150.768 16.6007 150.319 16.476 149.736 16.476C149.349 16.476 149.027 16.5263 148.77 16.6269C148.512 16.7275 148.319 16.8664 148.19 17.0435C148.062 17.2165 147.995 17.4157 147.991 17.6411C147.983 17.8262 148.019 17.9892 148.1 18.1301C148.184 18.271 148.305 18.3957 148.462 18.5044C148.623 18.609 148.816 18.7016 149.042 18.7821C149.267 18.8626 149.52 18.933 149.802 18.9934L150.865 19.2349C151.476 19.3677 152.016 19.5448 152.483 19.7661C152.954 19.9875 153.348 20.2511 153.666 20.5569C153.988 20.8628 154.231 21.215 154.396 21.6134C154.561 22.0118 154.646 22.4586 154.65 22.9536C154.646 23.7344 154.449 24.4045 154.058 24.9639C153.668 25.5233 153.106 25.952 152.374 26.2498C151.645 26.5476 150.766 26.6965 149.736 26.6965C148.701 26.6965 147.8 26.5416 147.031 26.2317C146.263 25.9218 145.665 25.4509 145.238 24.819C144.812 24.1872 144.592 23.3883 144.58 22.4224H147.442C147.466 22.8208 147.573 23.1528 147.762 23.4185C147.951 23.6841 148.21 23.8853 148.541 24.0221C148.875 24.159 149.261 24.2274 149.7 24.2274C150.102 24.2274 150.444 24.1731 150.726 24.0644C151.012 23.9557 151.231 23.8048 151.384 23.6116C151.537 23.4185 151.615 23.1971 151.619 22.9476C151.615 22.7141 151.543 22.5149 151.402 22.3499C151.261 22.1809 151.044 22.036 150.75 21.9153C150.46 21.7905 150.09 21.6758 149.639 21.5712L148.347 21.2693C147.277 21.0238 146.434 20.6274 145.818 20.08C145.202 19.5287 144.896 18.7841 144.9 17.8464C144.896 17.0817 145.101 16.4116 145.516 15.8361C145.931 15.2605 146.504 14.8118 147.237 14.4898C147.969 14.1679 148.804 14.0069 149.742 14.0069C150.7 14.0069 151.531 14.1699 152.235 14.4959C152.943 14.8178 153.493 15.2706 153.883 15.8542C154.274 16.4377 154.473 17.1139 154.481 17.8826H151.619ZM156.159 30.0168V17.2668H159.081V18.8545H159.172C159.292 18.5728 159.463 18.3011 159.685 18.0395C159.91 17.7779 160.196 17.5646 160.542 17.3996C160.892 17.2306 161.311 17.1461 161.798 17.1461C162.442 17.1461 163.043 17.3151 163.603 17.6532C164.166 17.9913 164.621 18.5124 164.967 19.2167C165.313 19.9211 165.486 20.8185 165.486 21.9092C165.486 22.9596 165.319 23.839 164.985 24.5474C164.655 25.2557 164.208 25.7869 163.645 26.1411C163.085 26.4953 162.464 26.6724 161.779 26.6724C161.313 26.6724 160.908 26.5959 160.566 26.443C160.224 26.29 159.936 26.0888 159.703 25.8393C159.473 25.5897 159.296 25.3221 159.172 25.0364H159.111V30.0168H156.159ZM159.051 21.9032C159.051 22.4022 159.117 22.8369 159.25 23.2072C159.387 23.5774 159.582 23.8652 159.836 24.0704C160.093 24.2717 160.401 24.3723 160.759 24.3723C161.121 24.3723 161.429 24.2717 161.683 24.0704C161.936 23.8652 162.128 23.5774 162.256 23.2072C162.389 22.8369 162.456 22.4022 162.456 21.9032C162.456 21.4041 162.389 20.9715 162.256 20.6052C162.128 20.239 161.936 19.9553 161.683 19.754C161.433 19.5528 161.125 19.4522 160.759 19.4522C160.397 19.4522 160.089 19.5508 159.836 19.748C159.582 19.9452 159.387 20.2269 159.25 20.5932C159.117 20.9594 159.051 21.3961 159.051 21.9032ZM167.033 26.5395V17.2668H169.985V26.5395H167.033ZM168.512 16.1862C168.098 16.1862 167.741 16.0494 167.444 15.7757C167.146 15.498 166.997 15.164 166.997 14.7736C166.997 14.3872 167.146 14.0572 167.444 13.7835C167.741 13.5058 168.098 13.367 168.512 13.367C168.931 13.367 169.287 13.5058 169.581 13.7835C169.879 14.0572 170.027 14.3872 170.027 14.7736C170.027 15.164 169.879 15.498 169.581 15.7757C169.287 16.0494 168.931 16.1862 168.512 16.1862ZM176.187 30.21C175.305 30.21 174.551 30.0872 173.923 29.8417C173.295 29.5962 172.802 29.2602 172.444 28.8336C172.086 28.407 171.87 27.924 171.798 27.3847L174.593 27.2278C174.645 27.4169 174.742 27.5819 174.883 27.7228C175.028 27.8636 175.215 27.9723 175.444 28.0488C175.678 28.1252 175.951 28.1635 176.265 28.1635C176.76 28.1635 177.169 28.0427 177.491 27.8013C177.817 27.5638 177.98 27.1473 177.98 26.5516V24.9216H177.877C177.76 25.2074 177.583 25.463 177.346 25.6883C177.108 25.9137 176.812 26.0908 176.458 26.2196C176.108 26.3484 175.706 26.4128 175.251 26.4128C174.575 26.4128 173.955 26.2558 173.392 25.9419C172.832 25.6239 172.383 25.1329 172.045 24.4689C171.711 23.8008 171.544 22.9415 171.544 21.8911C171.544 20.8085 171.717 19.917 172.063 19.2167C172.41 18.5124 172.862 17.9913 173.422 17.6532C173.985 17.3151 174.591 17.1461 175.239 17.1461C175.726 17.1461 176.142 17.2306 176.488 17.3996C176.839 17.5646 177.126 17.7779 177.352 18.0395C177.577 18.3011 177.748 18.5728 177.865 18.8545H177.949V17.2668H180.889V26.5758C180.889 27.3606 180.692 28.0226 180.298 28.5619C179.903 29.1012 179.352 29.5097 178.644 29.7874C177.935 30.0691 177.116 30.21 176.187 30.21ZM176.277 24.2636C176.635 24.2636 176.941 24.169 177.195 23.9799C177.448 23.7907 177.644 23.5191 177.78 23.1649C177.917 22.8107 177.986 22.3861 177.986 21.8911C177.986 21.388 177.917 20.9554 177.78 20.5932C177.648 20.2269 177.452 19.9452 177.195 19.748C176.941 19.5508 176.635 19.4522 176.277 19.4522C175.911 19.4522 175.601 19.5528 175.347 19.754C175.094 19.9553 174.901 20.239 174.768 20.6052C174.639 20.9675 174.575 21.3961 174.575 21.8911C174.575 22.3861 174.641 22.8107 174.774 23.1649C174.907 23.5191 175.098 23.7907 175.347 23.9799C175.601 24.169 175.911 24.2636 176.277 24.2636ZM187.1 26.7146C186.126 26.7146 185.289 26.5154 184.589 26.117C183.892 25.7145 183.355 25.1551 182.977 24.4387C182.602 23.7183 182.415 22.8832 182.415 21.9334C182.415 20.9795 182.602 20.1444 182.977 19.428C183.355 18.7076 183.892 18.1482 184.589 17.7498C185.289 17.3473 186.126 17.1461 187.1 17.1461C188.074 17.1461 188.909 17.3473 189.605 17.7498C190.305 18.1482 190.843 18.7076 191.217 19.428C191.595 20.1444 191.785 20.9795 191.785 21.9334C191.785 22.8832 191.595 23.7183 191.217 24.4387C190.843 25.1551 190.305 25.7145 189.605 26.117C188.909 26.5154 188.074 26.7146 187.1 26.7146ZM187.118 24.487C187.472 24.487 187.772 24.3783 188.017 24.161C188.263 23.9437 188.45 23.6418 188.579 23.2555C188.712 22.8691 188.778 22.4224 188.778 21.9153C188.778 21.4001 188.712 20.9493 188.579 20.563C188.45 20.1766 188.263 19.8748 188.017 19.6574C187.772 19.4401 187.472 19.3315 187.118 19.3315C186.752 19.3315 186.442 19.4401 186.188 19.6574C185.939 19.8748 185.748 20.1766 185.615 20.563C185.486 20.9493 185.422 21.4001 185.422 21.9153C185.422 22.4224 185.486 22.8691 185.615 23.2555C185.748 23.6418 185.939 23.9437 186.188 24.161C186.442 24.3783 186.752 24.487 187.118 24.487ZM198.531 17.2668V19.4401H192.681V17.2668H198.531ZM193.907 15.0452H196.859V23.6237C196.859 23.8048 196.887 23.9517 196.943 24.0644C197.003 24.1731 197.09 24.2515 197.203 24.2998C197.315 24.3441 197.45 24.3663 197.607 24.3663C197.72 24.3663 197.839 24.3562 197.963 24.3361C198.092 24.3119 198.189 24.2918 198.253 24.2757L198.7 26.4067C198.559 26.447 198.36 26.4973 198.102 26.5577C197.849 26.618 197.545 26.6563 197.191 26.6724C196.498 26.7046 195.905 26.6241 195.41 26.4309C194.919 26.2337 194.542 25.9278 194.281 25.5133C194.023 25.0987 193.898 24.5775 193.907 23.9497V15.0452Z" fill="url(#paint2_linear_2_3417)"/>
</g>
<defs>
<filter id="filter0_d_2_3417" x="2.39899" y="0.438538" width="39.2023" height="39.2019" filterUnits="userSpaceOnUse" color-interpolation-filters="sRGB">
<feFlood flood-opacity="0" result="BackgroundImageFix"/>
<feColorMatrix in="SourceAlpha" type="matrix" values="0 0 0 0 0 0 0 0 0 0 0 0 0 0 0 0 0 0 127 0" result="hardAlpha"/>
<feOffset/>
<feGaussianBlur stdDeviation="2.80014"/>
<feComposite in2="hardAlpha" operator="out"/>
<feColorMatrix type="matrix" values="0 0 0 0 0 0 0 0 0 0 0 0 0 0 0 0 0 0 0.25 0"/>
<feBlend mode="normal" in2="BackgroundImageFix" result="effect1_dropShadow_2_3417"/>
<feBlend mode="normal" in="SourceGraphic" in2="effect1_dropShadow_2_3417" result="shape"/>
</filter>
<filter id="filter1_d_2_3417" x="36.2864" y="3.82526" width="169.429" height="32.4286" filterUnits="userSpaceOnUse" color-interpolation-filters="sRGB">
<feFlood flood-opacity="0" result="BackgroundImageFix"/>
<feColorMatrix in="SourceAlpha" type="matrix" values="0 0 0 0 0 0 0 0 0 0 0 0 0 0 0 0 0 0 127 0" result="hardAlpha"/>
<feOffset/>
<feGaussianBlur stdDeviation="2.85714"/>
<feComposite in2="hardAlpha" operator="out"/>
<feColorMatrix type="matrix" values="0 0 0 0 0 0 0 0 0 0 0 0 0 0 0 0 0 0 0.25 0"/>
<feBlend mode="normal" in2="BackgroundImageFix" result="effect1_dropShadow_2_3417"/>
<feBlend mode="normal" in="SourceGraphic" in2="effect1_dropShadow_2_3417" result="shape"/>
</filter>
<linearGradient id="paint0_linear_2_3417" x1="104" y1="0.0388184" x2="104" y2="40.0402" gradientUnits="userSpaceOnUse">
<stop stop-color="#342A1D"/>
<stop offset="1" stop-color="#1C1610"/>
</linearGradient>
<linearGradient id="paint1_linear_2_3417" x1="22.0002" y1="8.03906" x2="22.0002" y2="32.0403" gradientUnits="userSpaceOnUse">
<stop stop-color="#CEA260"/>
<stop offset="1" stop-color="#81562E"/>
</linearGradient>
<linearGradient id="paint2_linear_2_3417" x1="172.001" y1="9.53955" x2="172.001" y2="30.5395" gradientUnits="userSpaceOnUse">
<stop stop-color="#E9C48D"/>
<stop offset="1" stop-color="#A2825D"/>
</linearGradient>
</defs>
</svg>
