<svg width="214" height="41" viewBox="0 0 214 41" fill="none" xmlns="http://www.w3.org/2000/svg">
<g clip-path="url(#clip0_1_67)">
<rect x="-0.000732422" y="0.0307617" width="214.001" height="40.0014" rx="8" fill="url(#paint0_linear_1_67)"/>
<g filter="url(#filter0_d_1_67)">
<path d="M21.9999 6.03076C14.2677 6.03076 7.99927 12.2992 7.99927 20.0315C7.99927 27.7642 14.2677 34.0322 21.9999 34.0322C29.7329 34.0322 36.0007 27.7642 36.0007 20.0315C36.0007 12.2997 29.7329 6.03143 21.9997 6.03143L21.9999 6.03076ZM28.4205 26.2239C28.1697 26.6352 27.6314 26.7656 27.2201 26.5132C23.9329 24.5052 19.7947 24.0505 14.9213 25.1639C14.4516 25.2709 13.9835 24.9767 13.8765 24.5069C13.769 24.0371 14.0621 23.5689 14.5329 23.4619C19.8661 22.2435 24.4408 22.7681 28.1313 25.0235C28.5425 25.276 28.6729 25.8126 28.4205 26.2239ZM30.1341 22.4117C29.8182 22.9253 29.1461 23.0874 28.6328 22.7715C24.8695 20.4582 19.1328 19.7883 14.6815 21.1395C14.1042 21.3139 13.4945 20.9885 13.3193 20.4122C13.1454 19.8349 13.4709 19.2264 14.0472 19.0508C19.1318 17.508 25.4529 18.2553 29.7747 20.9111C30.2879 21.2271 30.4501 21.8991 30.1341 22.4117ZM30.2813 18.4419C25.7689 15.7617 18.3241 15.5153 14.0159 16.8228C13.3241 17.0327 12.5925 16.6421 12.3829 15.9503C12.1732 15.2581 12.5634 14.527 13.2557 14.3167C18.2013 12.8153 26.4226 13.1054 31.6177 16.1895C32.2413 16.5589 32.4453 17.3625 32.0758 17.984C31.708 18.6063 30.9022 18.8114 30.2819 18.4419H30.2813Z" fill="#1ED760"/>
</g>
<g filter="url(#filter1_d_1_67)">
<path d="M44.4034 26.5315H42.4233L46.8725 14.1679H49.0277L53.4769 26.5315H51.4968L48.0014 16.4136H47.9049L44.4034 26.5315ZM44.7355 21.6899H51.1588V23.2595H44.7355V21.6899ZM61.8879 17.2588L58.5253 26.5315H56.5935L53.2249 17.2588H55.1627L57.5111 24.3944H57.6077L59.95 17.2588H61.8879ZM66.0171 26.7367C65.4296 26.7367 64.8983 26.6281 64.4234 26.4108C63.9485 26.1894 63.5722 25.8694 63.2945 25.4509C63.0208 25.0323 62.884 24.5192 62.884 23.9115C62.884 23.3883 62.9846 22.9576 63.1858 22.6196C63.3871 22.2815 63.6587 22.0139 64.0008 21.8166C64.3429 21.6194 64.7252 21.4705 65.1478 21.3699C65.5704 21.2693 66.0011 21.1928 66.4397 21.1405C66.9951 21.0761 67.4459 21.0238 67.792 20.9836C68.1381 20.9393 68.3897 20.8688 68.5466 20.7723C68.7036 20.6757 68.7821 20.5187 68.7821 20.3014V20.2591C68.7821 19.7319 68.6332 19.3234 68.3353 19.0336C68.0415 18.7438 67.6028 18.599 67.0193 18.599C66.4116 18.599 65.9326 18.7338 65.5825 19.0034C65.2364 19.2691 64.9969 19.5649 64.8641 19.8909L63.1677 19.5045C63.3689 18.9411 63.6627 18.4863 64.0491 18.1402C64.4395 17.79 64.8882 17.5365 65.3953 17.3795C65.9024 17.2185 66.4357 17.138 66.9951 17.138C67.3654 17.138 67.7578 17.1823 68.1723 17.2708C68.5909 17.3554 68.9813 17.5123 69.3435 17.7417C69.7097 17.9711 70.0096 18.2991 70.243 18.7257C70.4764 19.1483 70.5931 19.6977 70.5931 20.3738V26.5315H68.8304V25.2637H68.7579C68.6412 25.4972 68.4661 25.7266 68.2327 25.9519C67.9993 26.1773 67.6994 26.3645 67.3332 26.5134C66.967 26.6623 66.5283 26.7367 66.0171 26.7367ZM66.4095 25.2879C66.9086 25.2879 67.3352 25.1893 67.6894 24.9921C68.0476 24.7949 68.3192 24.5373 68.5044 24.2193C68.6935 23.8974 68.7881 23.5533 68.7881 23.187V21.9917C68.7237 22.0561 68.5989 22.1165 68.4138 22.1728C68.2327 22.2251 68.0254 22.2714 67.792 22.3117C67.5586 22.3479 67.3312 22.3821 67.1098 22.4143C66.8885 22.4425 66.7033 22.4666 66.5544 22.4867C66.2043 22.531 65.8843 22.6055 65.5946 22.7101C65.3088 22.8148 65.0794 22.9657 64.9064 23.1629C64.7373 23.3561 64.6528 23.6136 64.6528 23.9356C64.6528 24.3823 64.8178 24.7204 65.1478 24.9498C65.4779 25.1752 65.8984 25.2879 66.4095 25.2879ZM72.9973 26.5315V17.2588H74.8024V26.5315H72.9973ZM73.9089 15.828C73.595 15.828 73.3254 15.7234 73.1 15.5141C72.8786 15.3008 72.7679 15.0472 72.7679 14.7534C72.7679 14.4556 72.8786 14.2021 73.1 13.9928C73.3254 13.7795 73.595 13.6728 73.9089 13.6728C74.2228 13.6728 74.4905 13.7795 74.7118 13.9928C74.9372 14.2021 75.0499 14.4556 75.0499 14.7534C75.0499 15.0472 74.9372 15.3008 74.7118 15.5141C74.4905 15.7234 74.2228 15.828 73.9089 15.828ZM79.0358 14.1679V26.5315H77.2307V14.1679H79.0358ZM84.1627 26.7367C83.5751 26.7367 83.0438 26.6281 82.5689 26.4108C82.094 26.1894 81.7177 25.8694 81.44 25.4509C81.1663 25.0323 81.0295 24.5192 81.0295 23.9115C81.0295 23.3883 81.1301 22.9576 81.3313 22.6196C81.5326 22.2815 81.8042 22.0139 82.1463 21.8166C82.4884 21.6194 82.8707 21.4705 83.2933 21.3699C83.7159 21.2693 84.1466 21.1928 84.5852 21.1405C85.1406 21.0761 85.5914 21.0238 85.9375 20.9836C86.2836 20.9393 86.5352 20.8688 86.6921 20.7723C86.8491 20.6757 86.9276 20.5187 86.9276 20.3014V20.2591C86.9276 19.7319 86.7787 19.3234 86.4808 19.0336C86.187 18.7438 85.7484 18.599 85.1648 18.599C84.5571 18.599 84.0781 18.7338 83.728 19.0034C83.3819 19.2691 83.1424 19.5649 83.0096 19.8909L81.3132 19.5045C81.5145 18.9411 81.8082 18.4863 82.1946 18.1402C82.585 17.79 83.0337 17.5365 83.5408 17.3795C84.048 17.2185 84.5812 17.138 85.1406 17.138C85.5109 17.138 85.9033 17.1823 86.3178 17.2708C86.7364 17.3554 87.1268 17.5123 87.489 17.7417C87.8552 17.9711 88.1551 18.2991 88.3885 18.7257C88.6219 19.1483 88.7386 19.6977 88.7386 20.3738V26.5315H86.9759V25.2637H86.9034C86.7867 25.4972 86.6116 25.7266 86.3782 25.9519C86.1448 26.1773 85.8449 26.3645 85.4787 26.5134C85.1125 26.6623 84.6738 26.7367 84.1627 26.7367ZM84.5551 25.2879C85.0541 25.2879 85.4807 25.1893 85.8349 24.9921C86.1931 24.7949 86.4647 24.5373 86.6499 24.2193C86.839 23.8974 86.9336 23.5533 86.9336 23.187V21.9917C86.8692 22.0561 86.7444 22.1165 86.5593 22.1728C86.3782 22.2251 86.1709 22.2714 85.9375 22.3117C85.7041 22.3479 85.4767 22.3821 85.2553 22.4143C85.034 22.4425 84.8488 22.4666 84.6999 22.4867C84.3498 22.531 84.0298 22.6055 83.7401 22.7101C83.4543 22.8148 83.2249 22.9657 83.0519 23.1629C82.8828 23.3561 82.7983 23.6136 82.7983 23.9356C82.7983 24.3823 82.9633 24.7204 83.2933 24.9498C83.6234 25.1752 84.0439 25.2879 84.5551 25.2879ZM91.2877 26.5315V14.1679H93.0928V18.762H93.2014C93.3061 18.5688 93.457 18.3454 93.6542 18.0919C93.8514 17.8383 94.1251 17.617 94.4752 17.4278C94.8254 17.2346 95.2882 17.138 95.8637 17.138C96.6123 17.138 97.2804 17.3272 97.868 17.7055C98.4556 18.0838 98.9164 18.6291 99.2504 19.3415C99.5885 20.0539 99.7576 20.9111 99.7576 21.9132C99.7576 22.9154 99.5905 23.7746 99.2565 24.491C98.9224 25.2034 98.4636 25.7527 97.8801 26.1391C97.2965 26.5214 96.6304 26.7126 95.8818 26.7126C95.3184 26.7126 94.8576 26.618 94.4994 26.4289C94.1452 26.2397 93.8675 26.0184 93.6663 25.7648C93.4651 25.5112 93.3101 25.2859 93.2014 25.0887H93.0505V26.5315H91.2877ZM93.0566 21.8951C93.0566 22.5471 93.1511 23.1186 93.3403 23.6096C93.5295 24.1006 93.8031 24.485 94.1613 24.7627C94.5195 25.0363 94.9582 25.1732 95.4774 25.1732C96.0167 25.1732 96.4674 25.0303 96.8296 24.7446C97.1919 24.4548 97.4655 24.0624 97.6507 23.5674C97.8398 23.0723 97.9344 22.5149 97.9344 21.8951C97.9344 21.2834 97.8418 20.734 97.6567 20.247C97.4756 19.7601 97.2019 19.3757 96.8357 19.094C96.4735 18.8123 96.0207 18.6714 95.4774 18.6714C94.9542 18.6714 94.5115 18.8062 94.1492 19.0759C93.7911 19.3455 93.5194 19.7218 93.3343 20.2048C93.1491 20.6877 93.0566 21.2512 93.0566 21.8951ZM103.589 14.1679V26.5315H101.784V14.1679H103.589ZM110.014 26.7186C109.101 26.7186 108.314 26.5234 107.654 26.1331C106.998 25.7386 106.491 25.1853 106.133 24.4729C105.778 23.7565 105.601 22.9174 105.601 21.9555C105.601 21.0057 105.778 20.1686 106.133 19.4441C106.491 18.7197 106.99 18.1542 107.63 17.7478C108.274 17.3413 109.026 17.138 109.888 17.138C110.411 17.138 110.918 17.2246 111.409 17.3976C111.9 17.5707 112.341 17.8423 112.731 18.2126C113.121 18.5829 113.429 19.0638 113.655 19.6554C113.88 20.243 113.993 20.9574 113.993 21.7985V22.4385H106.622V21.0862H112.224C112.224 20.6113 112.127 20.1907 111.934 19.8245C111.741 19.4542 111.469 19.1624 111.119 18.9491C110.773 18.7358 110.366 18.6291 109.9 18.6291C109.392 18.6291 108.95 18.7539 108.571 19.0034C108.197 19.2489 107.907 19.5709 107.702 19.9693C107.501 20.3638 107.4 20.7924 107.4 21.2552V22.3117C107.4 22.9315 107.509 23.4587 107.726 23.8934C107.948 24.328 108.256 24.66 108.65 24.8894C109.044 25.1148 109.505 25.2275 110.032 25.2275C110.374 25.2275 110.686 25.1792 110.968 25.0826C111.25 24.982 111.493 24.8331 111.699 24.6359C111.904 24.4387 112.061 24.1952 112.169 23.9054L113.878 24.2133C113.741 24.7164 113.496 25.1571 113.141 25.5354C112.791 25.9097 112.351 26.2015 111.819 26.4108C111.292 26.616 110.69 26.7186 110.014 26.7186ZM124.4 26.7186C123.531 26.7186 122.772 26.5194 122.124 26.121C121.476 25.7225 120.973 25.1651 120.615 24.4487C120.257 23.7324 120.078 22.8952 120.078 21.9374C120.078 20.9755 120.257 20.1344 120.615 19.4139C120.973 18.6935 121.476 18.1341 122.124 17.7357C122.772 17.3372 123.531 17.138 124.4 17.138C125.27 17.138 126.028 17.3372 126.676 17.7357C127.324 18.1341 127.827 18.6935 128.185 19.4139C128.544 20.1344 128.723 20.9755 128.723 21.9374C128.723 22.8952 128.544 23.7324 128.185 24.4487C127.827 25.1651 127.324 25.7225 126.676 26.121C126.028 26.5194 125.27 26.7186 124.4 26.7186ZM124.406 25.2034C124.97 25.2034 125.437 25.0545 125.807 24.7566C126.177 24.4588 126.451 24.0624 126.628 23.5674C126.809 23.0723 126.9 22.527 126.9 21.9313C126.9 21.3397 126.809 20.7964 126.628 20.3014C126.451 19.8023 126.177 19.4019 125.807 19.1C125.437 18.7982 124.97 18.6473 124.406 18.6473C123.839 18.6473 123.368 18.7982 122.994 19.1C122.623 19.4019 122.348 19.8023 122.167 20.3014C121.99 20.7964 121.901 21.3397 121.901 21.9313C121.901 22.527 121.99 23.0723 122.167 23.5674C122.348 24.0624 122.623 24.4588 122.994 24.7566C123.368 25.0545 123.839 25.2034 124.406 25.2034ZM132.543 21.0258V26.5315H130.738V17.2588H132.47V18.768H132.585C132.798 18.277 133.132 17.8826 133.587 17.5848C134.046 17.2869 134.623 17.138 135.32 17.138C135.951 17.138 136.505 17.2708 136.98 17.5365C137.455 17.7981 137.823 18.1885 138.085 18.7076C138.346 19.2268 138.477 19.8687 138.477 20.6334V26.5315H136.672V20.8507C136.672 20.1786 136.497 19.6534 136.147 19.2751C135.797 18.8928 135.316 18.7016 134.704 18.7016C134.285 18.7016 133.913 18.7921 133.587 18.9733C133.265 19.1544 133.009 19.42 132.82 19.7701C132.635 20.1162 132.543 20.5348 132.543 21.0258Z" fill="#E8E8E8"/>
<path d="M151.619 17.8745C151.579 17.4318 151.4 17.0877 151.082 16.8422C150.768 16.5927 150.319 16.4679 149.736 16.4679C149.349 16.4679 149.027 16.5182 148.77 16.6188C148.512 16.7195 148.319 16.8583 148.19 17.0354C148.062 17.2085 147.995 17.4077 147.991 17.6331C147.983 17.8182 148.019 17.9812 148.1 18.122C148.184 18.2629 148.305 18.3877 148.462 18.4963C148.623 18.601 148.816 18.6935 149.042 18.774C149.267 18.8545 149.52 18.925 149.802 18.9853L150.865 19.2268C151.476 19.3596 152.016 19.5367 152.483 19.7581C152.954 19.9794 153.348 20.243 153.666 20.5489C153.988 20.8548 154.231 21.2069 154.396 21.6054C154.561 22.0038 154.646 22.4505 154.65 22.9456C154.646 23.7263 154.449 24.3964 154.058 24.9559C153.668 25.5153 153.106 25.9439 152.374 26.2417C151.645 26.5395 150.766 26.6884 149.736 26.6884C148.701 26.6884 147.8 26.5335 147.031 26.2236C146.263 25.9137 145.665 25.4428 145.238 24.811C144.812 24.1791 144.592 23.3802 144.58 22.4143H147.442C147.466 22.8127 147.573 23.1448 147.762 23.4104C147.951 23.676 148.21 23.8773 148.541 24.0141C148.875 24.1509 149.261 24.2193 149.7 24.2193C150.102 24.2193 150.444 24.165 150.726 24.0563C151.012 23.9477 151.231 23.7968 151.384 23.6036C151.537 23.4104 151.615 23.189 151.619 22.9395C151.615 22.7061 151.543 22.5069 151.402 22.3419C151.261 22.1728 151.044 22.0279 150.75 21.9072C150.46 21.7824 150.09 21.6677 149.639 21.5631L148.347 21.2612C147.277 21.0157 146.434 20.6193 145.818 20.072C145.202 19.5206 144.896 18.776 144.9 17.8383C144.896 17.0736 145.101 16.4035 145.516 15.828C145.931 15.2525 146.504 14.8037 147.237 14.4818C147.969 14.1598 148.804 13.9988 149.742 13.9988C150.7 13.9988 151.531 14.1618 152.235 14.4878C152.943 14.8098 153.493 15.2626 153.883 15.8461C154.274 16.4297 154.473 17.1058 154.481 17.8745H151.619ZM156.159 30.0088V17.2588H159.081V18.8465H159.172C159.292 18.5648 159.463 18.2931 159.685 18.0315C159.91 17.7699 160.196 17.5566 160.542 17.3916C160.892 17.2225 161.311 17.138 161.798 17.138C162.442 17.138 163.043 17.3071 163.603 17.6451C164.166 17.9832 164.621 18.5044 164.967 19.2087C165.313 19.913 165.486 20.8105 165.486 21.9012C165.486 22.9516 165.319 23.831 164.985 24.5393C164.655 25.2476 164.208 25.7789 163.645 26.1331C163.085 26.4872 162.464 26.6643 161.779 26.6643C161.313 26.6643 160.908 26.5878 160.566 26.4349C160.224 26.282 159.936 26.0807 159.703 25.8312C159.473 25.5817 159.296 25.314 159.172 25.0283H159.111V30.0088H156.159ZM159.051 21.8951C159.051 22.3942 159.117 22.8288 159.25 23.1991C159.387 23.5694 159.582 23.8571 159.836 24.0624C160.093 24.2636 160.401 24.3642 160.759 24.3642C161.121 24.3642 161.429 24.2636 161.683 24.0624C161.936 23.8571 162.128 23.5694 162.256 23.1991C162.389 22.8288 162.456 22.3942 162.456 21.8951C162.456 21.3961 162.389 20.9634 162.256 20.5972C162.128 20.2309 161.936 19.9472 161.683 19.746C161.433 19.5447 161.125 19.4441 160.759 19.4441C160.397 19.4441 160.089 19.5427 159.836 19.7399C159.582 19.9371 159.387 20.2189 159.25 20.5851C159.117 20.9514 159.051 21.388 159.051 21.8951ZM171.362 26.7066C170.388 26.7066 169.551 26.5073 168.85 26.1089C168.154 25.7064 167.617 25.147 167.238 24.4306C166.864 23.7102 166.677 22.8751 166.677 21.9253C166.677 20.9715 166.864 20.1364 167.238 19.42C167.617 18.6996 168.154 18.1402 168.85 17.7417C169.551 17.3393 170.388 17.138 171.362 17.138C172.336 17.138 173.171 17.3393 173.867 17.7417C174.567 18.1402 175.105 18.6996 175.479 19.42C175.857 20.1364 176.046 20.9715 176.046 21.9253C176.046 22.8751 175.857 23.7102 175.479 24.4306C175.105 25.147 174.567 25.7064 173.867 26.1089C173.171 26.5073 172.336 26.7066 171.362 26.7066ZM171.38 24.4789C171.734 24.4789 172.034 24.3703 172.279 24.1529C172.525 23.9356 172.712 23.6338 172.841 23.2474C172.973 22.861 173.04 22.4143 173.04 21.9072C173.04 21.392 172.973 20.9413 172.841 20.5549C172.712 20.1686 172.525 19.8667 172.279 19.6494C172.034 19.4321 171.734 19.3234 171.38 19.3234C171.013 19.3234 170.704 19.4321 170.45 19.6494C170.201 19.8667 170.009 20.1686 169.877 20.5549C169.748 20.9413 169.683 21.392 169.683 21.9072C169.683 22.4143 169.748 22.861 169.877 23.2474C170.009 23.6338 170.201 23.9356 170.45 24.1529C170.704 24.3703 171.013 24.4789 171.38 24.4789ZM182.793 17.2588V19.4321H176.943V17.2588H182.793ZM178.168 15.0372H181.12V23.6157C181.12 23.7968 181.148 23.9437 181.205 24.0563C181.265 24.165 181.352 24.2435 181.464 24.2918C181.577 24.3361 181.712 24.3582 181.869 24.3582C181.982 24.3582 182.1 24.3481 182.225 24.328C182.354 24.3039 182.45 24.2837 182.515 24.2676L182.962 26.3987C182.821 26.4389 182.621 26.4892 182.364 26.5496C182.11 26.61 181.807 26.6482 181.452 26.6643C180.76 26.6965 180.166 26.616 179.671 26.4228C179.18 26.2256 178.804 25.9197 178.543 25.5052C178.285 25.0907 178.16 24.5695 178.168 23.9416V15.0372ZM184.299 26.5315V17.2588H187.251V26.5315H184.299ZM185.778 16.1782C185.363 16.1782 185.007 16.0413 184.709 15.7676C184.411 15.4899 184.263 15.1559 184.263 14.7655C184.263 14.3791 184.411 14.0491 184.709 13.7755C185.007 13.4978 185.363 13.3589 185.778 13.3589C186.196 13.3589 186.553 13.4978 186.846 13.7755C187.144 14.0491 187.293 14.3791 187.293 14.7655C187.293 15.1559 187.144 15.4899 186.846 15.7676C186.553 16.0413 186.196 16.1782 185.778 16.1782ZM194.4 17.2588V19.4321H188.436V17.2588H194.4ZM189.679 26.5315V16.7879C189.679 16.0715 189.814 15.4779 190.084 15.007C190.353 14.5321 190.728 14.1779 191.207 13.9445C191.685 13.707 192.239 13.5883 192.867 13.5883C193.277 13.5883 193.664 13.6205 194.026 13.6849C194.392 13.7453 194.664 13.7996 194.841 13.8479L194.37 16.0091C194.261 15.9729 194.128 15.9427 193.971 15.9186C193.818 15.8944 193.674 15.8823 193.537 15.8823C193.191 15.8823 192.953 15.9588 192.824 16.1117C192.696 16.2647 192.631 16.474 192.631 16.7396V26.5315H189.679ZM197.625 30.0088C197.271 30.0088 196.937 29.9806 196.623 29.9242C196.309 29.8719 196.04 29.8015 195.814 29.713L196.466 27.5698C196.756 27.6664 197.018 27.7228 197.251 27.7389C197.488 27.755 197.692 27.7167 197.861 27.6242C198.034 27.5356 198.167 27.3767 198.259 27.1473L198.374 26.8696L195.078 17.2588H198.169L199.877 23.8752H199.974L201.706 17.2588H204.815L201.32 27.4189C201.151 27.926 200.911 28.3728 200.601 28.7591C200.296 29.1495 199.899 29.4554 199.412 29.6767C198.929 29.8981 198.334 30.0088 197.625 30.0088Z" fill="#1ED760"/>
</g>
</g>
<rect x="1.0707" y="1.10219" width="211.858" height="37.8585" rx="6.92857" stroke="white" stroke-opacity="0.15" stroke-width="2.14286"/>
<defs>
<filter id="filter0_d_1_67" x="2.39899" y="0.430481" width="39.202" height="39.202" filterUnits="userSpaceOnUse" color-interpolation-filters="sRGB">
<feFlood flood-opacity="0" result="BackgroundImageFix"/>
<feColorMatrix in="SourceAlpha" type="matrix" values="0 0 0 0 0 0 0 0 0 0 0 0 0 0 0 0 0 0 127 0" result="hardAlpha"/>
<feOffset/>
<feGaussianBlur stdDeviation="2.80014"/>
<feComposite in2="hardAlpha" operator="out"/>
<feColorMatrix type="matrix" values="0 0 0 0 0 0 0 0 0 0 0 0 0 0 0 0 0 0 0.25 0"/>
<feBlend mode="normal" in2="BackgroundImageFix" result="effect1_dropShadow_1_67"/>
<feBlend mode="normal" in="SourceGraphic" in2="effect1_dropShadow_1_67" result="shape"/>
</filter>
<filter id="filter1_d_1_67" x="36.2864" y="3.81721" width="175.429" height="32.4286" filterUnits="userSpaceOnUse" color-interpolation-filters="sRGB">
<feFlood flood-opacity="0" result="BackgroundImageFix"/>
<feColorMatrix in="SourceAlpha" type="matrix" values="0 0 0 0 0 0 0 0 0 0 0 0 0 0 0 0 0 0 127 0" result="hardAlpha"/>
<feOffset/>
<feGaussianBlur stdDeviation="2.85714"/>
<feComposite in2="hardAlpha" operator="out"/>
<feColorMatrix type="matrix" values="0 0 0 0 0 0 0 0 0 0 0 0 0 0 0 0 0 0 0.25 0"/>
<feBlend mode="normal" in2="BackgroundImageFix" result="effect1_dropShadow_1_67"/>
<feBlend mode="normal" in="SourceGraphic" in2="effect1_dropShadow_1_67" result="shape"/>
</filter>
<linearGradient id="paint0_linear_1_67" x1="107" y1="0.0307617" x2="107" y2="40.0322" gradientUnits="userSpaceOnUse">
<stop stop-color="#073417"/>
<stop offset="1" stop-color="#041F0E"/>
</linearGradient>
<clipPath id="clip0_1_67">
<rect x="-0.000732422" y="0.0307617" width="214.001" height="40.0014" rx="8" fill="white"/>
</clipPath>
</defs>
</svg>
