<svg width="149" height="28" viewBox="0 0 149 28" fill="none" xmlns="http://www.w3.org/2000/svg">
<g clip-path="url(#clip0_1_67)">
<rect x="-0.000488281" y="-6.10352e-05" width="148.5" height="28" rx="6" fill="url(#paint0_linear_1_67)"/>
<g filter="url(#filter0_d_1_67)">
<path d="M15.9995 3.99994C10.4768 3.99994 5.99951 8.47717 5.99951 14C5.99951 19.5231 10.4768 23.9999 15.9995 23.9999C21.5228 23.9999 25.9995 19.5231 25.9995 14C25.9995 8.47753 21.5228 4.00042 15.9993 4.00042L15.9995 3.99994ZM20.5854 18.4229C20.4062 18.7167 20.0217 18.8098 19.728 18.6295C17.3801 17.1953 14.4244 16.8705 10.9435 17.6658C10.6081 17.7422 10.2738 17.5321 10.1973 17.1965C10.1205 16.8609 10.3299 16.5266 10.6661 16.4502C14.4754 15.5799 17.7429 15.9546 20.3788 17.5655C20.6725 17.7458 20.7657 18.1291 20.5854 18.4229ZM21.8093 15.7C21.5836 16.0668 21.1036 16.1827 20.737 15.957C18.049 14.3047 13.9517 13.8263 10.7723 14.7914C10.36 14.9159 9.92447 14.6835 9.79933 14.2719C9.67514 13.8596 9.90764 13.4249 10.3193 13.2995C13.9509 12.1975 18.4658 12.7313 21.5526 14.6282C21.9192 14.8539 22.035 15.3339 21.8093 15.7ZM21.9144 12.8646C18.6915 10.9503 13.3741 10.7742 10.2969 11.7082C9.80279 11.8581 9.28024 11.5791 9.1305 11.085C8.98076 10.5906 9.25947 10.0684 9.75395 9.91815C13.2863 8.84581 19.1584 9.05299 22.869 11.2558C23.3144 11.5196 23.4601 12.0937 23.1962 12.5375C22.9335 12.982 22.3579 13.1285 21.9149 12.8646H21.9144Z" fill="#1ED760"/>
</g>
<g filter="url(#filter1_d_1_67)">
<path d="M33.5542 18.4999H32.2729L35.1519 10.4999H36.5464L39.4253 18.4999H38.144L35.8823 11.9531H35.8198L33.5542 18.4999ZM33.769 15.3671H37.9253V16.3827H33.769V15.3671ZM44.8677 12.4999L42.6919 18.4999H41.4419L39.2622 12.4999H40.5161L42.0356 17.1171H42.0981L43.6138 12.4999H44.8677ZM47.5395 18.6327C47.1593 18.6327 46.8156 18.5624 46.5083 18.4218C46.201 18.2786 45.9575 18.0716 45.7778 17.8007C45.6007 17.5299 45.5122 17.1979 45.5122 16.8046C45.5122 16.4661 45.5773 16.1874 45.7075 15.9687C45.8377 15.7499 46.0135 15.5768 46.2349 15.4492C46.4562 15.3216 46.7036 15.2252 46.977 15.1601C47.2505 15.095 47.5291 15.0455 47.813 15.0117C48.1724 14.97 48.464 14.9361 48.688 14.9101C48.9119 14.8814 49.0747 14.8359 49.1763 14.7734C49.2778 14.7109 49.3286 14.6093 49.3286 14.4687V14.4413C49.3286 14.1002 49.2323 13.8359 49.0395 13.6484C48.8494 13.4609 48.5656 13.3671 48.188 13.3671C47.7948 13.3671 47.4849 13.4544 47.2583 13.6288C47.0343 13.8007 46.8794 13.9921 46.7935 14.2031L45.6958 13.9531C45.826 13.5885 46.0161 13.2942 46.2661 13.0702C46.5187 12.8437 46.8091 12.6796 47.1372 12.5781C47.4653 12.4739 47.8104 12.4218 48.1724 12.4218C48.4119 12.4218 48.6658 12.4505 48.9341 12.5078C49.2049 12.5624 49.4575 12.664 49.6919 12.8124C49.9289 12.9609 50.1229 13.1731 50.2739 13.4492C50.425 13.7226 50.5005 14.0781 50.5005 14.5156V18.4999H49.3599V17.6796H49.313C49.2375 17.8307 49.1242 17.9791 48.9731 18.1249C48.8221 18.2708 48.6281 18.3919 48.3911 18.4882C48.1541 18.5846 47.8703 18.6327 47.5395 18.6327ZM47.7935 17.6952C48.1164 17.6952 48.3924 17.6314 48.6216 17.5038C48.8533 17.3762 49.0291 17.2096 49.1489 17.0038C49.2713 16.7955 49.3325 16.5729 49.3325 16.3359V15.5624C49.2908 15.6041 49.2101 15.6432 49.0903 15.6796C48.9731 15.7135 48.839 15.7434 48.688 15.7695C48.5369 15.7929 48.3898 15.815 48.2466 15.8359C48.1033 15.8541 47.9836 15.8697 47.8872 15.8827C47.6606 15.9114 47.4536 15.9596 47.2661 16.0273C47.0812 16.095 46.9328 16.1926 46.8208 16.3202C46.7114 16.4452 46.6567 16.6119 46.6567 16.8202C46.6567 17.1093 46.7635 17.3281 46.977 17.4765C47.1906 17.6223 47.4627 17.6952 47.7935 17.6952ZM52.0561 18.4999V12.4999H53.2241V18.4999H52.0561ZM52.646 11.5742C52.4429 11.5742 52.2684 11.5064 52.1226 11.371C51.9793 11.233 51.9077 11.0689 51.9077 10.8788C51.9077 10.6861 51.9793 10.5221 52.1226 10.3867C52.2684 10.2486 52.4429 10.1796 52.646 10.1796C52.8491 10.1796 53.0223 10.2486 53.1655 10.3867C53.3114 10.5221 53.3843 10.6861 53.3843 10.8788C53.3843 11.0689 53.3114 11.233 53.1655 11.371C53.0223 11.5064 52.8491 11.5742 52.646 11.5742ZM55.9634 10.4999V18.4999H54.7954V10.4999H55.9634ZM59.2808 18.6327C58.9005 18.6327 58.5568 18.5624 58.2495 18.4218C57.9422 18.2786 57.6987 18.0716 57.519 17.8007C57.342 17.5299 57.2534 17.1979 57.2534 16.8046C57.2534 16.4661 57.3185 16.1874 57.4487 15.9687C57.5789 15.7499 57.7547 15.5768 57.9761 15.4492C58.1974 15.3216 58.4448 15.2252 58.7183 15.1601C58.9917 15.095 59.2703 15.0455 59.5542 15.0117C59.9136 14.97 60.2052 14.9361 60.4292 14.9101C60.6531 14.8814 60.8159 14.8359 60.9175 14.7734C61.019 14.7109 61.0698 14.6093 61.0698 14.4687V14.4413C61.0698 14.1002 60.9735 13.8359 60.7808 13.6484C60.5906 13.4609 60.3068 13.3671 59.9292 13.3671C59.536 13.3671 59.2261 13.4544 58.9995 13.6288C58.7755 13.8007 58.6206 13.9921 58.5347 14.2031L57.437 13.9531C57.5672 13.5885 57.7573 13.2942 58.0073 13.0702C58.2599 12.8437 58.5503 12.6796 58.8784 12.5781C59.2065 12.4739 59.5516 12.4218 59.9136 12.4218C60.1531 12.4218 60.4071 12.4505 60.6753 12.5078C60.9461 12.5624 61.1987 12.664 61.4331 12.8124C61.6701 12.9609 61.8641 13.1731 62.0151 13.4492C62.1662 13.7226 62.2417 14.0781 62.2417 14.5156V18.4999H61.1011V17.6796H61.0542C60.9787 17.8307 60.8654 17.9791 60.7143 18.1249C60.5633 18.2708 60.3693 18.3919 60.1323 18.4882C59.8953 18.5846 59.6115 18.6327 59.2808 18.6327ZM59.5347 17.6952C59.8576 17.6952 60.1336 17.6314 60.3628 17.5038C60.5946 17.3762 60.7703 17.2096 60.8901 17.0038C61.0125 16.7955 61.0737 16.5729 61.0737 16.3359V15.5624C61.0321 15.6041 60.9513 15.6432 60.8315 15.6796C60.7143 15.7135 60.5802 15.7434 60.4292 15.7695C60.2781 15.7929 60.131 15.815 59.9878 15.8359C59.8446 15.8541 59.7248 15.8697 59.6284 15.8827C59.4018 15.9114 59.1948 15.9596 59.0073 16.0273C58.8224 16.095 58.674 16.1926 58.562 16.3202C58.4526 16.4452 58.3979 16.6119 58.3979 16.8202C58.3979 17.1093 58.5047 17.3281 58.7183 17.4765C58.9318 17.6223 59.2039 17.6952 59.5347 17.6952ZM63.8911 18.4999V10.4999H65.0591V13.4726H65.1294C65.1971 13.3476 65.2947 13.2031 65.4224 13.039C65.55 12.8749 65.727 12.7317 65.9536 12.6093C66.1802 12.4843 66.4796 12.4218 66.852 12.4218C67.3364 12.4218 67.7687 12.5442 68.1489 12.789C68.5291 13.0338 68.8273 13.3867 69.0434 13.8476C69.2622 14.3085 69.3716 14.8632 69.3716 15.5117C69.3716 16.1601 69.2635 16.7161 69.0474 17.1796C68.8312 17.6406 68.5343 17.996 68.1567 18.246C67.7791 18.4934 67.3481 18.6171 66.8638 18.6171C66.4992 18.6171 66.201 18.5559 65.9692 18.4335C65.7401 18.3111 65.5604 18.1679 65.4302 18.0038C65.3 17.8398 65.1997 17.6939 65.1294 17.5663H65.0317V18.4999H63.8911ZM65.0356 15.4999C65.0356 15.9218 65.0968 16.2916 65.2192 16.6093C65.3416 16.927 65.5187 17.1757 65.7505 17.3554C65.9822 17.5325 66.2661 17.621 66.602 17.621C66.951 17.621 67.2427 17.5286 67.477 17.3437C67.7114 17.1562 67.8885 16.9023 68.0083 16.582C68.1307 16.2617 68.1919 15.901 68.1919 15.4999C68.1919 15.1041 68.132 14.7486 68.0122 14.4335C67.895 14.1184 67.7179 13.8697 67.4809 13.6874C67.2466 13.5051 66.9536 13.414 66.602 13.414C66.2635 13.414 65.977 13.5012 65.7427 13.6757C65.5109 13.8502 65.3351 14.0937 65.2153 14.4062C65.0955 14.7187 65.0356 15.0833 65.0356 15.4999ZM71.8511 10.4999V18.4999H70.6831V10.4999H71.8511ZM76.0083 18.621C75.4171 18.621 74.908 18.4947 74.4809 18.2421C74.0565 17.9869 73.7283 17.6288 73.4966 17.1679C73.2674 16.7044 73.1528 16.1614 73.1528 15.539C73.1528 14.9244 73.2674 14.3827 73.4966 13.914C73.7283 13.4452 74.0513 13.0794 74.4653 12.8163C74.882 12.5533 75.369 12.4218 75.9263 12.4218C76.2648 12.4218 76.5929 12.4778 76.9106 12.5898C77.2283 12.7018 77.5135 12.8775 77.7661 13.1171C78.0187 13.3567 78.2179 13.6679 78.3638 14.0507C78.5096 14.4309 78.5825 14.8932 78.5825 15.4374V15.8515H73.813V14.9765H77.438C77.438 14.6692 77.3755 14.3971 77.2505 14.1601C77.1255 13.9205 76.9497 13.7317 76.7231 13.5937C76.4992 13.4557 76.2362 13.3867 75.9341 13.3867C75.6059 13.3867 75.3195 13.4674 75.0747 13.6288C74.8325 13.7877 74.645 13.996 74.5122 14.2538C74.382 14.5091 74.3169 14.7864 74.3169 15.0859V15.7695C74.3169 16.1705 74.3872 16.5117 74.5278 16.7929C74.671 17.0742 74.8703 17.289 75.1255 17.4374C75.3807 17.5833 75.6789 17.6562 76.02 17.6562C76.2414 17.6562 76.4432 17.6249 76.6255 17.5624C76.8078 17.4973 76.9653 17.401 77.0981 17.2734C77.2309 17.1458 77.3325 16.9882 77.4028 16.8007L78.5083 16.9999C78.4197 17.3255 78.2609 17.6106 78.0317 17.8554C77.8052 18.0976 77.52 18.2864 77.1763 18.4218C76.8351 18.5546 76.4458 18.621 76.0083 18.621ZM85.3169 18.621C84.7544 18.621 84.2635 18.4921 83.8442 18.2343C83.425 17.9765 83.0994 17.6158 82.8677 17.1523C82.6359 16.6887 82.52 16.1471 82.52 15.5273C82.52 14.9049 82.6359 14.3606 82.8677 13.8945C83.0994 13.4283 83.425 13.0663 83.8442 12.8085C84.2635 12.5507 84.7544 12.4218 85.3169 12.4218C85.8794 12.4218 86.3703 12.5507 86.7895 12.8085C87.2088 13.0663 87.5343 13.4283 87.7661 13.8945C87.9979 14.3606 88.1138 14.9049 88.1138 15.5273C88.1138 16.1471 87.9979 16.6887 87.7661 17.1523C87.5343 17.6158 87.2088 17.9765 86.7895 18.2343C86.3703 18.4921 85.8794 18.621 85.3169 18.621ZM85.3208 17.6406C85.6854 17.6406 85.9875 17.5442 86.227 17.3515C86.4666 17.1588 86.6437 16.9023 86.7583 16.582C86.8755 16.2617 86.9341 15.9088 86.9341 15.5234C86.9341 15.1406 86.8755 14.789 86.7583 14.4687C86.6437 14.1458 86.4666 13.8867 86.227 13.6913C85.9875 13.496 85.6854 13.3984 85.3208 13.3984C84.9536 13.3984 84.6489 13.496 84.4067 13.6913C84.1671 13.8867 83.9888 14.1458 83.8716 14.4687C83.757 14.789 83.6997 15.1406 83.6997 15.5234C83.6997 15.9088 83.757 16.2617 83.8716 16.582C83.9888 16.9023 84.1671 17.1588 84.4067 17.3515C84.6489 17.5442 84.9536 17.6406 85.3208 17.6406ZM90.5854 14.9374V18.4999H89.4175V12.4999H90.5386V13.4765H90.6128C90.7508 13.1588 90.9669 12.9036 91.2612 12.7109C91.5581 12.5182 91.9318 12.4218 92.3823 12.4218C92.7912 12.4218 93.1492 12.5078 93.4565 12.6796C93.7638 12.8489 94.0021 13.1015 94.1714 13.4374C94.3406 13.7734 94.4253 14.1887 94.4253 14.6835V18.4999H93.2573V14.8242C93.2573 14.3893 93.144 14.0494 92.9175 13.8046C92.6909 13.5572 92.3797 13.4335 91.9839 13.4335C91.713 13.4335 91.4722 13.4921 91.2612 13.6093C91.0529 13.7265 90.8875 13.8984 90.7651 14.1249C90.6453 14.3489 90.5854 14.6197 90.5854 14.9374Z" fill="#E8E8E8"/>
<path d="M103.877 12.3891C103.849 12.0766 103.723 11.8337 103.498 11.6604C103.276 11.4843 102.96 11.3962 102.548 11.3962C102.275 11.3962 102.048 11.4318 101.866 11.5028C101.684 11.5738 101.548 11.6718 101.457 11.7968C101.366 11.919 101.319 12.0596 101.316 12.2187C101.311 12.3494 101.336 12.4644 101.393 12.5639C101.453 12.6633 101.538 12.7514 101.649 12.8281C101.762 12.9019 101.899 12.9673 102.058 13.0241C102.217 13.0809 102.396 13.1306 102.595 13.1732L103.345 13.3437C103.776 13.4374 104.157 13.5624 104.487 13.7187C104.819 13.8749 105.098 14.061 105.322 14.2769C105.549 14.4928 105.721 14.7414 105.838 15.0227C105.954 15.3039 106.014 15.6193 106.017 15.9687C106.014 16.5198 105.875 16.9928 105.599 17.3877C105.323 17.7826 104.927 18.0852 104.41 18.2954C103.896 18.5056 103.275 18.6107 102.548 18.6107C101.818 18.6107 101.181 18.5014 100.639 18.2826C100.096 18.0639 99.6742 17.7315 99.3731 17.2854C99.072 16.8394 98.9171 16.2755 98.9086 15.5937H100.928C100.946 15.8749 101.021 16.1093 101.154 16.2968C101.288 16.4843 101.471 16.6264 101.704 16.7229C101.94 16.8195 102.213 16.8678 102.522 16.8678C102.806 16.8678 103.048 16.8295 103.247 16.7528C103.448 16.6761 103.603 16.5695 103.711 16.4332C103.819 16.2968 103.875 16.1406 103.877 15.9644C103.875 15.7997 103.823 15.659 103.724 15.5426C103.625 15.4232 103.471 15.321 103.264 15.2357C103.059 15.1477 102.798 15.0667 102.48 14.9928L101.568 14.7798C100.812 14.6065 100.217 14.3266 99.7822 13.9403C99.3475 13.5511 99.1316 13.0255 99.1345 12.3636C99.1316 11.8238 99.2765 11.3508 99.5691 10.9445C99.8617 10.5383 100.267 10.2215 100.784 9.99426C101.301 9.76698 101.89 9.65335 102.552 9.65335C103.228 9.65335 103.815 9.7684 104.312 9.99852C104.812 10.2258 105.2 10.5454 105.475 10.9573C105.751 11.3693 105.892 11.8465 105.897 12.3891H103.877ZM107.082 20.9545V11.9545H109.144V13.0752H109.208C109.294 12.8764 109.414 12.6846 109.571 12.4999C109.73 12.3153 109.931 12.1647 110.176 12.0482C110.423 11.9289 110.718 11.8693 111.062 11.8693C111.517 11.8693 111.941 11.9886 112.336 12.2272C112.734 12.4658 113.055 12.8337 113.299 13.3309C113.544 13.8281 113.666 14.4616 113.666 15.2315C113.666 15.9729 113.548 16.5937 113.312 17.0937C113.079 17.5937 112.764 17.9687 112.366 18.2187C111.971 18.4687 111.532 18.5937 111.049 18.5937C110.72 18.5937 110.434 18.5397 110.193 18.4318C109.951 18.3238 109.748 18.1818 109.583 18.0056C109.421 17.8295 109.296 17.6406 109.208 17.4389H109.166V20.9545H107.082ZM109.123 15.2272C109.123 15.5795 109.17 15.8863 109.264 16.1477C109.36 16.409 109.498 16.6122 109.677 16.757C109.859 16.8991 110.076 16.9701 110.329 16.9701C110.585 16.9701 110.802 16.8991 110.981 16.757C111.16 16.6122 111.295 16.409 111.386 16.1477C111.48 15.8863 111.526 15.5795 111.526 15.2272C111.526 14.8749 111.48 14.5695 111.386 14.311C111.295 14.0525 111.16 13.8522 110.981 13.7102C110.805 13.5681 110.588 13.4971 110.329 13.4971C110.073 13.4971 109.856 13.5667 109.677 13.7059C109.498 13.8451 109.36 14.044 109.264 14.3025C109.17 14.561 109.123 14.8693 109.123 15.2272ZM117.813 18.6235C117.126 18.6235 116.535 18.4829 116.04 18.2016C115.549 17.9175 115.17 17.5227 114.903 17.017C114.638 16.5085 114.506 15.919 114.506 15.2485C114.506 14.5752 114.638 13.9857 114.903 13.4801C115.17 12.9715 115.549 12.5766 116.04 12.2954C116.535 12.0113 117.126 11.8693 117.813 11.8693C118.501 11.8693 119.09 12.0113 119.582 12.2954C120.076 12.5766 120.455 12.9715 120.719 13.4801C120.986 13.9857 121.12 14.5752 121.12 15.2485C121.12 15.919 120.986 16.5085 120.719 17.017C120.455 17.5227 120.076 17.9175 119.582 18.2016C119.09 18.4829 118.501 18.6235 117.813 18.6235ZM117.826 17.0511C118.076 17.0511 118.288 16.9744 118.461 16.821C118.634 16.6675 118.766 16.4545 118.857 16.1818C118.951 15.909 118.998 15.5937 118.998 15.2357C118.998 14.8721 118.951 14.5539 118.857 14.2812C118.766 14.0085 118.634 13.7954 118.461 13.642C118.288 13.4886 118.076 13.4119 117.826 13.4119C117.567 13.4119 117.349 13.4886 117.17 13.642C116.993 13.7954 116.859 14.0085 116.765 14.2812C116.674 14.5539 116.628 14.8721 116.628 15.2357C116.628 15.5937 116.674 15.909 116.765 16.1818C116.859 16.4545 116.993 16.6675 117.17 16.821C117.349 16.9744 117.567 17.0511 117.826 17.0511ZM125.882 11.9545V13.4886H121.753V11.9545H125.882ZM122.618 10.3863H124.702V16.4417C124.702 16.5695 124.721 16.6732 124.761 16.7528C124.804 16.8295 124.865 16.8849 124.944 16.919C125.024 16.9502 125.119 16.9658 125.23 16.9658C125.31 16.9658 125.393 16.9587 125.481 16.9445C125.572 16.9275 125.64 16.9133 125.686 16.9019L126.001 18.4062C125.902 18.4346 125.761 18.4701 125.579 18.5127C125.4 18.5553 125.186 18.5823 124.936 18.5937C124.447 18.6164 124.028 18.5596 123.679 18.4232C123.332 18.284 123.067 18.0681 122.882 17.7755C122.7 17.4829 122.612 17.115 122.618 16.6718V10.3863ZM126.945 18.4999V11.9545H129.029V18.4999H126.945ZM127.989 11.1917C127.697 11.1917 127.445 11.0951 127.235 10.9019C127.025 10.7059 126.92 10.4701 126.92 10.1945C126.92 9.92181 127.025 9.68886 127.235 9.49568C127.445 9.29965 127.697 9.20164 127.989 9.20164C128.285 9.20164 128.536 9.29965 128.743 9.49568C128.954 9.68886 129.059 9.92181 129.059 10.1945C129.059 10.4701 128.954 10.7059 128.743 10.9019C128.536 11.0951 128.285 11.1917 127.989 11.1917ZM134.075 11.9545V13.4886H129.865V11.9545H134.075ZM130.743 18.4999V11.6221C130.743 11.1164 130.838 10.6974 131.029 10.365C131.219 10.0298 131.483 9.77977 131.821 9.615C132.159 9.44738 132.55 9.36357 132.993 9.36357C133.283 9.36357 133.556 9.3863 133.811 9.43176C134.07 9.47437 134.262 9.51272 134.387 9.54681L134.054 11.0724C133.977 11.0468 133.884 11.0255 133.773 11.0085C133.665 10.9914 133.563 10.9829 133.466 10.9829C133.222 10.9829 133.054 11.0369 132.963 11.1448C132.872 11.2528 132.827 11.4005 132.827 11.588V18.4999H130.743ZM136.352 20.9545C136.102 20.9545 135.866 20.9346 135.645 20.8948C135.423 20.8579 135.233 20.8082 135.074 20.7457L135.534 19.2329C135.738 19.3011 135.923 19.3408 136.088 19.3522C136.256 19.3636 136.399 19.3366 136.518 19.2712C136.64 19.2087 136.734 19.0965 136.8 18.9346L136.881 18.7386L134.554 11.9545H136.736L137.942 16.6249H138.01L139.233 11.9545H141.427L138.96 19.1264C138.841 19.4843 138.672 19.7997 138.453 20.0724C138.237 20.3479 137.957 20.5639 137.613 20.7201C137.273 20.8764 136.852 20.9545 136.352 20.9545Z" fill="#1ED760"/>
</g>
</g>
<rect x="0.749512" y="0.749939" width="147" height="26.5" rx="5.25" stroke="white" stroke-opacity="0.15" stroke-width="1.5"/>
<defs>
<filter id="filter0_d_1_67" x="1.99951" y="-6.10352e-05" width="28" height="28" filterUnits="userSpaceOnUse" color-interpolation-filters="sRGB">
<feFlood flood-opacity="0" result="BackgroundImageFix"/>
<feColorMatrix in="SourceAlpha" type="matrix" values="0 0 0 0 0 0 0 0 0 0 0 0 0 0 0 0 0 0 127 0" result="hardAlpha"/>
<feOffset/>
<feGaussianBlur stdDeviation="2"/>
<feComposite in2="hardAlpha" operator="out"/>
<feColorMatrix type="matrix" values="0 0 0 0 0 0 0 0 0 0 0 0 0 0 0 0 0 0 0.25 0"/>
<feBlend mode="normal" in2="BackgroundImageFix" result="effect1_dropShadow_1_67"/>
<feBlend mode="normal" in="SourceGraphic" in2="effect1_dropShadow_1_67" result="shape"/>
</filter>
<filter id="filter1_d_1_67" x="27.9995" y="3.49994" width="118.5" height="21.4545" filterUnits="userSpaceOnUse" color-interpolation-filters="sRGB">
<feFlood flood-opacity="0" result="BackgroundImageFix"/>
<feColorMatrix in="SourceAlpha" type="matrix" values="0 0 0 0 0 0 0 0 0 0 0 0 0 0 0 0 0 0 127 0" result="hardAlpha"/>
<feOffset/>
<feGaussianBlur stdDeviation="2"/>
<feComposite in2="hardAlpha" operator="out"/>
<feColorMatrix type="matrix" values="0 0 0 0 0 0 0 0 0 0 0 0 0 0 0 0 0 0 0.25 0"/>
<feBlend mode="normal" in2="BackgroundImageFix" result="effect1_dropShadow_1_67"/>
<feBlend mode="normal" in="SourceGraphic" in2="effect1_dropShadow_1_67" result="shape"/>
</filter>
<linearGradient id="paint0_linear_1_67" x1="74.2495" y1="-6.10351e-05" x2="74.2495" y2="27.9999" gradientUnits="userSpaceOnUse">
<stop stop-color="#073417"/>
<stop offset="1" stop-color="#041F0E"/>
</linearGradient>
<clipPath id="clip0_1_67">
<rect x="-0.000488281" y="-6.10352e-05" width="148.5" height="28" rx="6" fill="white"/>
</clipPath>
</defs>
</svg>
