<svg width="208" height="41" viewBox="0 0 208 41" fill="none" xmlns="http://www.w3.org/2000/svg">
<g clip-path="url(#clip0_28_2615)">
<rect x="-0.000732422" y="0.0125732" width="208.001" height="40.0014" rx="8" fill="url(#paint0_linear_28_2615)"/>
<g filter="url(#filter0_d_28_2615)">
<path d="M8.57031 24.0394C10.3014 29.8076 15.6553 34.014 21.9907 34.014C29.728 34.014 36.0004 27.7456 36.0004 20.0133C36.0004 12.281 29.728 6.01257 21.9907 6.01257C14.5665 6.01257 8.49106 11.7848 8.01123 19.0831C8.91923 20.6044 9.27167 21.5455 8.56943 24.0394H8.57031Z" fill="url(#paint1_linear_28_2615)"/>
<path d="M21.269 16.5065L21.2703 16.5757L17.8423 21.5525C17.2872 21.5271 16.7303 21.6247 16.2015 21.8421C15.9712 21.9356 15.7514 22.0529 15.5456 22.1921L8.0176 19.0914C8.0176 19.0914 7.84336 21.9554 8.56923 24.0897L13.8912 26.2843C14.1539 27.4778 14.9769 28.5244 16.1861 29.0275C17.1375 29.4226 18.2068 29.4241 19.1592 29.0318C20.1117 28.6395 20.8694 27.8855 21.266 26.9353C21.4775 26.4292 21.5796 25.8841 21.5654 25.3357L26.4658 21.8334L26.5862 21.8356C29.5216 21.8356 31.9077 19.4441 31.9077 16.5065C31.9077 13.569 29.526 11.1863 26.5862 11.1801C23.652 11.1801 21.2647 13.569 21.2647 16.5065H21.269ZM20.446 26.5914C19.8094 28.1227 18.0529 28.8433 16.5263 28.2076C15.8489 27.9231 15.2997 27.3996 14.9835 26.7367L16.7159 27.4542C16.9835 27.5655 17.2704 27.6231 17.5603 27.6235C17.8502 27.624 18.1373 27.5674 18.4053 27.4569C18.6733 27.3464 18.9168 27.1843 19.1221 26.9797C19.3273 26.7751 19.4902 26.5321 19.6014 26.2646C19.8267 25.7241 19.828 25.1163 19.6051 24.5747C19.3823 24.0332 18.9534 23.6023 18.4128 23.3765L16.6178 22.6349C17.3087 22.3724 18.0941 22.3636 18.8287 22.6686C19.573 22.9762 20.1421 23.5555 20.4468 24.2962C20.7515 25.0369 20.7498 25.8538 20.4425 26.5914M26.591 20.057C25.6503 20.0545 24.7491 19.6795 24.0845 19.0142C23.42 18.3488 23.0464 17.4474 23.0456 16.5074C23.0467 15.5675 23.4204 14.6664 24.0848 14.0012C24.7493 13.3361 25.6505 12.9612 26.591 12.9587C27.5316 12.961 28.433 13.3358 29.0977 14.0009C29.7623 14.6661 30.1361 15.5674 30.1372 16.5074C30.1364 17.4476 29.7627 18.3491 29.098 19.0145C28.4333 19.6798 27.5318 20.0547 26.591 20.057M23.9344 16.5017C23.9338 15.7954 24.2138 15.1178 24.713 14.6178C25.2121 14.1177 25.8895 13.8362 26.5962 13.835C28.0651 13.835 29.2598 15.0295 29.2598 16.5017C29.2602 17.2082 28.9798 17.8858 28.4803 18.3857C27.9808 18.8856 27.3031 19.1669 26.5962 19.1675C25.8896 19.1665 25.2122 18.8851 24.713 18.3853C24.2138 17.8854 23.9336 17.2079 23.9339 16.5017H23.9344Z" fill="white"/>
</g>
<g filter="url(#filter1_d_28_2615)">
<path d="M46.4034 26.5133H44.4233L48.8725 14.1496H51.0277L55.4769 26.5133H53.4968L50.0014 16.3954H49.9049L46.4034 26.5133ZM46.7355 21.6717H53.1588V23.2413H46.7355V21.6717ZM63.8879 17.2405L60.5253 26.5133H58.5935L55.2249 17.2405H57.1627L59.5111 24.3762H59.6077L61.95 17.2405H63.8879ZM68.0171 26.7185C67.4296 26.7185 66.8983 26.6099 66.4234 26.3925C65.9485 26.1712 65.5722 25.8512 65.2945 25.4327C65.0208 25.0141 64.884 24.501 64.884 23.8932C64.884 23.37 64.9846 22.9394 65.1858 22.6013C65.3871 22.2633 65.6587 21.9956 66.0008 21.7984C66.3429 21.6012 66.7252 21.4523 67.1478 21.3517C67.5704 21.2511 68.0011 21.1746 68.4397 21.1223C68.9951 21.0579 69.4459 21.0056 69.792 20.9653C70.1381 20.9211 70.3897 20.8506 70.5466 20.754C70.7036 20.6574 70.7821 20.5005 70.7821 20.2832V20.2409C70.7821 19.7137 70.6332 19.3052 70.3353 19.0154C70.0415 18.7256 69.6028 18.5807 69.0193 18.5807C68.4116 18.5807 67.9326 18.7156 67.5825 18.9852C67.2364 19.2508 66.9969 19.5467 66.8641 19.8726L65.1677 19.4863C65.3689 18.9228 65.6627 18.4681 66.0491 18.1219C66.4395 17.7718 66.8882 17.5182 67.3953 17.3613C67.9024 17.2003 68.4357 17.1198 68.9951 17.1198C69.3654 17.1198 69.7578 17.1641 70.1723 17.2526C70.5909 17.3371 70.9813 17.4941 71.3435 17.7235C71.7097 17.9529 72.0096 18.2809 72.243 18.7075C72.4764 19.1301 72.5931 19.6795 72.5931 20.3556V26.5133H70.8304V25.2455H70.7579C70.6412 25.4789 70.4661 25.7083 70.2327 25.9337C69.9993 26.1591 69.6994 26.3462 69.3332 26.4952C68.967 26.6441 68.5283 26.7185 68.0171 26.7185ZM68.4095 25.2697C68.9086 25.2697 69.3352 25.1711 69.6894 24.9739C70.0476 24.7766 70.3192 24.5191 70.5044 24.2011C70.6935 23.8792 70.7881 23.5351 70.7881 23.1688V21.9735C70.7237 22.0379 70.5989 22.0983 70.4138 22.1546C70.2327 22.2069 70.0254 22.2532 69.792 22.2935C69.5586 22.3297 69.3312 22.3639 69.1098 22.3961C68.8885 22.4243 68.7033 22.4484 68.5544 22.4685C68.2043 22.5128 67.8843 22.5873 67.5946 22.6919C67.3088 22.7965 67.0794 22.9475 66.9064 23.1447C66.7373 23.3378 66.6528 23.5954 66.6528 23.9174C66.6528 24.3641 66.8178 24.7022 67.1478 24.9316C67.4779 25.157 67.8984 25.2697 68.4095 25.2697ZM74.9973 26.5133V17.2405H76.8024V26.5133H74.9973ZM75.9089 15.8098C75.595 15.8098 75.3254 15.7052 75.1 15.4959C74.8786 15.2826 74.7679 15.029 74.7679 14.7352C74.7679 14.4374 74.8786 14.1838 75.1 13.9746C75.3254 13.7613 75.595 13.6546 75.9089 13.6546C76.2228 13.6546 76.4905 13.7613 76.7118 13.9746C76.9372 14.1838 77.0499 14.4374 77.0499 14.7352C77.0499 15.029 76.9372 15.2826 76.7118 15.4959C76.4905 15.7052 76.2228 15.8098 75.9089 15.8098ZM81.0358 14.1496V26.5133H79.2307V14.1496H81.0358ZM86.1627 26.7185C85.5751 26.7185 85.0438 26.6099 84.5689 26.3925C84.094 26.1712 83.7177 25.8512 83.44 25.4327C83.1663 25.0141 83.0295 24.501 83.0295 23.8932C83.0295 23.37 83.1301 22.9394 83.3313 22.6013C83.5326 22.2633 83.8042 21.9956 84.1463 21.7984C84.4884 21.6012 84.8707 21.4523 85.2933 21.3517C85.7159 21.2511 86.1466 21.1746 86.5852 21.1223C87.1406 21.0579 87.5914 21.0056 87.9375 20.9653C88.2836 20.9211 88.5352 20.8506 88.6921 20.754C88.8491 20.6574 88.9276 20.5005 88.9276 20.2832V20.2409C88.9276 19.7137 88.7787 19.3052 88.4808 19.0154C88.187 18.7256 87.7484 18.5807 87.1648 18.5807C86.5571 18.5807 86.0781 18.7156 85.728 18.9852C85.3819 19.2508 85.1424 19.5467 85.0096 19.8726L83.3132 19.4863C83.5145 18.9228 83.8082 18.4681 84.1946 18.1219C84.585 17.7718 85.0337 17.5182 85.5408 17.3613C86.048 17.2003 86.5812 17.1198 87.1406 17.1198C87.5109 17.1198 87.9033 17.1641 88.3178 17.2526C88.7364 17.3371 89.1268 17.4941 89.489 17.7235C89.8552 17.9529 90.1551 18.2809 90.3885 18.7075C90.6219 19.1301 90.7386 19.6795 90.7386 20.3556V26.5133H88.9759V25.2455H88.9034C88.7867 25.4789 88.6116 25.7083 88.3782 25.9337C88.1448 26.1591 87.8449 26.3462 87.4787 26.4952C87.1125 26.6441 86.6738 26.7185 86.1627 26.7185ZM86.5551 25.2697C87.0541 25.2697 87.4807 25.1711 87.8349 24.9739C88.1931 24.7766 88.4647 24.5191 88.6499 24.2011C88.839 23.8792 88.9336 23.5351 88.9336 23.1688V21.9735C88.8692 22.0379 88.7444 22.0983 88.5593 22.1546C88.3782 22.2069 88.1709 22.2532 87.9375 22.2935C87.7041 22.3297 87.4767 22.3639 87.2553 22.3961C87.034 22.4243 86.8488 22.4484 86.6999 22.4685C86.3498 22.5128 86.0298 22.5873 85.7401 22.6919C85.4543 22.7965 85.2249 22.9475 85.0519 23.1447C84.8828 23.3378 84.7983 23.5954 84.7983 23.9174C84.7983 24.3641 84.9633 24.7022 85.2933 24.9316C85.6234 25.157 86.0439 25.2697 86.5551 25.2697ZM93.2877 26.5133V14.1496H95.0928V18.7437H95.2014C95.3061 18.5506 95.457 18.3272 95.6542 18.0736C95.8514 17.8201 96.1251 17.5987 96.4752 17.4096C96.8254 17.2164 97.2882 17.1198 97.8637 17.1198C98.6123 17.1198 99.2804 17.309 99.868 17.6873C100.456 18.0656 100.916 18.6109 101.25 19.3233C101.589 20.0356 101.758 20.8929 101.758 21.895C101.758 22.8971 101.591 23.7564 101.256 24.4728C100.922 25.1851 100.464 25.7345 99.8801 26.1209C99.2965 26.5032 98.6304 26.6944 97.8818 26.6944C97.3184 26.6944 96.8576 26.5998 96.4994 26.4106C96.1452 26.2215 95.8675 26.0001 95.6663 25.7466C95.4651 25.493 95.3101 25.2677 95.2014 25.0704H95.0505V26.5133H93.2877ZM95.0566 21.8769C95.0566 22.5289 95.1511 23.1004 95.3403 23.5914C95.5295 24.0824 95.8031 24.4668 96.1613 24.7444C96.5195 25.0181 96.9582 25.155 97.4774 25.155C98.0167 25.155 98.4674 25.0121 98.8296 24.7263C99.1919 24.4366 99.4655 24.0442 99.6507 23.5491C99.8398 23.0541 99.9344 22.4967 99.9344 21.8769C99.9344 21.2652 99.8418 20.7158 99.6567 20.2288C99.4756 19.7418 99.2019 19.3575 98.8357 19.0758C98.4735 18.794 98.0207 18.6532 97.4774 18.6532C96.9542 18.6532 96.5115 18.788 96.1492 19.0577C95.7911 19.3273 95.5194 19.7036 95.3343 20.1866C95.1491 20.6695 95.0566 21.233 95.0566 21.8769ZM105.589 14.1496V26.5133H103.784V14.1496H105.589ZM112.014 26.7004C111.101 26.7004 110.314 26.5052 109.654 26.1148C108.998 25.7204 108.491 25.167 108.133 24.4547C107.778 23.7383 107.601 22.8992 107.601 21.9373C107.601 20.9875 107.778 20.1503 108.133 19.4259C108.491 18.7015 108.99 18.136 109.63 17.7295C110.274 17.3231 111.026 17.1198 111.888 17.1198C112.411 17.1198 112.918 17.2063 113.409 17.3794C113.9 17.5525 114.341 17.8241 114.731 18.1944C115.121 18.5646 115.429 19.0456 115.655 19.6372C115.88 20.2248 115.993 20.9392 115.993 21.7803V22.4202H108.622V21.068H114.224C114.224 20.5931 114.127 20.1725 113.934 19.8062C113.741 19.436 113.469 19.1442 113.119 18.9309C112.773 18.7176 112.366 18.6109 111.9 18.6109C111.392 18.6109 110.95 18.7357 110.571 18.9852C110.197 19.2307 109.907 19.5527 109.702 19.9511C109.501 20.3455 109.4 20.7742 109.4 21.237V22.2935C109.4 22.9132 109.509 23.4405 109.726 23.8751C109.948 24.3098 110.256 24.6418 110.65 24.8712C111.044 25.0966 111.505 25.2093 112.032 25.2093C112.374 25.2093 112.686 25.161 112.968 25.0644C113.25 24.9638 113.493 24.8149 113.699 24.6177C113.904 24.4205 114.061 24.177 114.169 23.8872L115.878 24.1951C115.741 24.6982 115.496 25.1389 115.141 25.5172C114.791 25.8915 114.351 26.1833 113.819 26.3925C113.292 26.5978 112.69 26.7004 112.014 26.7004ZM126.4 26.7004C125.531 26.7004 124.772 26.5012 124.124 26.1028C123.476 25.7043 122.973 25.1469 122.615 24.4305C122.257 23.7141 122.078 22.877 122.078 21.9192C122.078 20.9573 122.257 20.1161 122.615 19.3957C122.973 18.6753 123.476 18.1159 124.124 17.7175C124.772 17.319 125.531 17.1198 126.4 17.1198C127.27 17.1198 128.028 17.319 128.676 17.7175C129.324 18.1159 129.827 18.6753 130.185 19.3957C130.544 20.1161 130.723 20.9573 130.723 21.9192C130.723 22.877 130.544 23.7141 130.185 24.4305C129.827 25.1469 129.324 25.7043 128.676 26.1028C128.028 26.5012 127.27 26.7004 126.4 26.7004ZM126.406 25.1851C126.97 25.1851 127.437 25.0362 127.807 24.7384C128.177 24.4406 128.451 24.0442 128.628 23.5491C128.809 23.0541 128.9 22.5088 128.9 21.9131C128.9 21.3215 128.809 20.7782 128.628 20.2832C128.451 19.7841 128.177 19.3837 127.807 19.0818C127.437 18.78 126.97 18.629 126.406 18.629C125.839 18.629 125.368 18.78 124.994 19.0818C124.623 19.3837 124.348 19.7841 124.167 20.2832C123.99 20.7782 123.901 21.3215 123.901 21.9131C123.901 22.5088 123.99 23.0541 124.167 23.5491C124.348 24.0442 124.623 24.4406 124.994 24.7384C125.368 25.0362 125.839 25.1851 126.406 25.1851ZM134.543 21.0076V26.5133H132.738V17.2405H134.47V18.7498H134.585C134.798 18.2588 135.132 17.8644 135.587 17.5665C136.046 17.2687 136.623 17.1198 137.32 17.1198C137.951 17.1198 138.505 17.2526 138.98 17.5182C139.455 17.7798 139.823 18.1702 140.085 18.6894C140.346 19.2086 140.477 19.8505 140.477 20.6152V26.5133H138.672V20.8325C138.672 20.1604 138.497 19.6352 138.147 19.2569C137.797 18.8745 137.316 18.6834 136.704 18.6834C136.285 18.6834 135.913 18.7739 135.587 18.955C135.265 19.1361 135.009 19.4018 134.82 19.7519C134.635 20.098 134.543 20.5166 134.543 21.0076Z" fill="#E8E8E8"/>
<path d="M153.619 17.8563C153.579 17.4136 153.4 17.0695 153.082 16.824C152.768 16.5745 152.319 16.4497 151.736 16.4497C151.349 16.4497 151.027 16.5 150.77 16.6006C150.512 16.7012 150.319 16.8401 150.19 17.0172C150.062 17.1902 149.995 17.3895 149.991 17.6148C149.983 17.8 150.019 17.963 150.1 18.1038C150.184 18.2447 150.305 18.3695 150.462 18.4781C150.623 18.5828 150.816 18.6753 151.042 18.7558C151.267 18.8363 151.52 18.9067 151.802 18.9671L152.865 19.2086C153.476 19.3414 154.016 19.5185 154.483 19.7398C154.954 19.9612 155.348 20.2248 155.666 20.5307C155.988 20.8365 156.231 21.1887 156.396 21.5871C156.561 21.9856 156.646 22.4323 156.65 22.9273C156.646 23.7081 156.449 24.3782 156.058 24.9376C155.668 25.4971 155.106 25.9257 154.374 26.2235C153.645 26.5213 152.766 26.6702 151.736 26.6702C150.701 26.6702 149.8 26.5153 149.031 26.2054C148.263 25.8955 147.665 25.4246 147.238 24.7927C146.812 24.1609 146.592 23.362 146.58 22.3961H149.442C149.466 22.7945 149.573 23.1266 149.762 23.3922C149.951 23.6578 150.21 23.859 150.541 23.9959C150.875 24.1327 151.261 24.2011 151.7 24.2011C152.102 24.2011 152.444 24.1468 152.726 24.0381C153.012 23.9295 153.231 23.7785 153.384 23.5854C153.537 23.3922 153.615 23.1708 153.619 22.9213C153.615 22.6879 153.543 22.4886 153.402 22.3236C153.261 22.1546 153.044 22.0097 152.75 21.889C152.46 21.7642 152.09 21.6495 151.639 21.5449L150.347 21.243C149.277 20.9975 148.434 20.6011 147.818 20.0538C147.202 19.5024 146.896 18.7578 146.9 17.8201C146.896 17.0554 147.101 16.3853 147.516 15.8098C147.931 15.2343 148.504 14.7855 149.237 14.4636C149.969 14.1416 150.804 13.9806 151.742 13.9806C152.7 13.9806 153.531 14.1436 154.235 14.4696C154.943 14.7916 155.493 15.2443 155.883 15.8279C156.274 16.4115 156.473 17.0876 156.481 17.8563H153.619ZM163.393 17.2405V19.4138H157.543V17.2405H163.393ZM158.769 15.019H161.721V23.5974C161.721 23.7785 161.749 23.9254 161.805 24.0381C161.866 24.1468 161.952 24.2253 162.065 24.2736C162.178 24.3178 162.313 24.34 162.469 24.34C162.582 24.34 162.701 24.3299 162.826 24.3098C162.954 24.2856 163.051 24.2655 163.115 24.2494L163.562 26.3805C163.421 26.4207 163.222 26.471 162.965 26.5314C162.711 26.5918 162.407 26.63 162.053 26.6461C161.361 26.6783 160.767 26.5978 160.272 26.4046C159.781 26.2074 159.405 25.9015 159.143 25.487C158.886 25.0725 158.761 24.5513 158.769 23.9234V15.019ZM169.134 26.6883C168.164 26.6883 167.327 26.4972 166.623 26.1148C165.923 25.7285 165.383 25.1791 165.005 24.4668C164.631 23.7504 164.444 22.8992 164.444 21.9131C164.444 20.9553 164.633 20.1181 165.011 19.4018C165.389 18.6814 165.923 18.1219 166.611 17.7235C167.299 17.321 168.11 17.1198 169.044 17.1198C169.704 17.1198 170.307 17.2224 170.855 17.4277C171.402 17.6329 171.875 17.9368 172.273 18.3393C172.672 18.7417 172.982 19.2388 173.203 19.8304C173.424 20.418 173.535 21.0921 173.535 21.8528V22.5893H165.476V20.8748H170.788C170.784 20.5609 170.71 20.2811 170.565 20.0356C170.42 19.7901 170.221 19.599 169.967 19.4621C169.718 19.3213 169.43 19.2508 169.104 19.2508C168.774 19.2508 168.478 19.3253 168.217 19.4742C167.955 19.6191 167.748 19.8183 167.595 20.0719C167.442 20.3214 167.361 20.6051 167.353 20.9231V22.6677C167.353 23.0461 167.428 23.3781 167.577 23.6638C167.726 23.9456 167.937 24.1649 168.211 24.3219C168.484 24.4788 168.81 24.5573 169.189 24.5573C169.45 24.5573 169.688 24.5211 169.901 24.4486C170.114 24.3762 170.297 24.2695 170.45 24.1287C170.603 23.9878 170.718 23.8148 170.794 23.6095L173.505 23.688C173.392 24.2957 173.145 24.8249 172.762 25.2757C172.384 25.7224 171.887 26.0706 171.271 26.3201C170.656 26.5656 169.943 26.6883 169.134 26.6883ZM177.657 26.6702C177.065 26.6702 176.54 26.5716 176.081 26.3744C175.626 26.1732 175.266 25.8713 175.001 25.4689C174.739 25.0624 174.608 24.5533 174.608 23.9415C174.608 23.4264 174.699 22.9917 174.88 22.6376C175.061 22.2834 175.311 21.9956 175.628 21.7743C175.946 21.5529 176.313 21.3859 176.727 21.2732C177.142 21.1565 177.584 21.078 178.055 21.0378C178.583 20.9895 179.007 20.9392 179.329 20.8869C179.651 20.8305 179.885 20.752 180.029 20.6514C180.178 20.5468 180.253 20.3999 180.253 20.2107V20.1805C180.253 19.8706 180.146 19.6312 179.933 19.4621C179.72 19.2931 179.432 19.2086 179.07 19.2086C178.679 19.2086 178.365 19.2931 178.128 19.4621C177.89 19.6312 177.739 19.8646 177.675 20.1624L174.952 20.0658C175.033 19.5024 175.24 18.9993 175.574 18.5566C175.912 18.1099 176.375 17.7597 176.963 17.5062C177.554 17.2486 178.265 17.1198 179.094 17.1198C179.685 17.1198 180.231 17.1902 180.73 17.3311C181.229 17.4679 181.663 17.6692 182.034 17.9348C182.404 18.1964 182.69 18.5184 182.891 18.9007C183.096 19.283 183.199 19.7197 183.199 20.2107V26.5133H180.422V25.2214H180.349C180.184 25.5353 179.973 25.8009 179.715 26.0182C179.462 26.2356 179.162 26.3986 178.816 26.5072C178.474 26.6159 178.088 26.6702 177.657 26.6702ZM178.568 24.7384C178.886 24.7384 179.172 24.674 179.426 24.5452C179.683 24.4164 179.889 24.2394 180.041 24.014C180.194 23.7846 180.271 23.519 180.271 23.2171V22.3357C180.186 22.38 180.084 22.4202 179.963 22.4565C179.846 22.4927 179.717 22.5269 179.577 22.5591C179.436 22.5913 179.291 22.6195 179.142 22.6436C178.993 22.6677 178.85 22.6899 178.713 22.71C178.436 22.7543 178.198 22.8227 178.001 22.9153C177.808 23.0078 177.659 23.1286 177.554 23.2775C177.454 23.4224 177.403 23.5954 177.403 23.7967C177.403 24.1025 177.512 24.336 177.729 24.4969C177.951 24.6579 178.23 24.7384 178.568 24.7384ZM185.004 26.5133V17.2405H187.811V18.943H187.914C188.107 18.3795 188.433 17.9348 188.892 17.6088C189.35 17.2828 189.898 17.1198 190.534 17.1198C191.178 17.1198 191.729 17.2848 192.188 17.6148C192.647 17.9449 192.938 18.3876 193.063 18.943H193.16C193.333 18.3916 193.671 17.9509 194.174 17.6209C194.677 17.2868 195.271 17.1198 195.955 17.1198C196.832 17.1198 197.545 17.4015 198.092 17.965C198.639 18.5244 198.913 19.2931 198.913 20.2711V26.5133H195.961V20.9472C195.961 20.4844 195.842 20.1322 195.605 19.8908C195.367 19.6453 195.059 19.5225 194.681 19.5225C194.275 19.5225 193.955 19.6553 193.721 19.9209C193.492 20.1825 193.377 20.5347 193.377 20.9774V26.5133H190.54V20.917C190.54 20.4864 190.423 20.1463 190.19 19.8968C189.956 19.6473 189.648 19.5225 189.266 19.5225C189.008 19.5225 188.781 19.5849 188.584 19.7096C188.387 19.8304 188.232 20.0034 188.119 20.2288C188.01 20.4542 187.956 20.7198 187.956 21.0257V26.5133H185.004Z" fill="white"/>
</g>
</g>
<rect x="1.0707" y="1.084" width="205.858" height="37.8585" rx="6.92857" stroke="white" stroke-opacity="0.15" stroke-width="2.14286"/>
<defs>
<filter id="filter0_d_28_2615" x="2.39899" y="0.412293" width="39.202" height="39.202" filterUnits="userSpaceOnUse" color-interpolation-filters="sRGB">
<feFlood flood-opacity="0" result="BackgroundImageFix"/>
<feColorMatrix in="SourceAlpha" type="matrix" values="0 0 0 0 0 0 0 0 0 0 0 0 0 0 0 0 0 0 127 0" result="hardAlpha"/>
<feOffset/>
<feGaussianBlur stdDeviation="2.80014"/>
<feComposite in2="hardAlpha" operator="out"/>
<feColorMatrix type="matrix" values="0 0 0 0 0 0 0 0 0 0 0 0 0 0 0 0 0 0 0.25 0"/>
<feBlend mode="normal" in2="BackgroundImageFix" result="effect1_dropShadow_28_2615"/>
<feBlend mode="normal" in="SourceGraphic" in2="effect1_dropShadow_28_2615" result="shape"/>
</filter>
<filter id="filter1_d_28_2615" x="38.2864" y="3.79899" width="167.429" height="32.4286" filterUnits="userSpaceOnUse" color-interpolation-filters="sRGB">
<feFlood flood-opacity="0" result="BackgroundImageFix"/>
<feColorMatrix in="SourceAlpha" type="matrix" values="0 0 0 0 0 0 0 0 0 0 0 0 0 0 0 0 0 0 127 0" result="hardAlpha"/>
<feOffset/>
<feGaussianBlur stdDeviation="2.85714"/>
<feComposite in2="hardAlpha" operator="out"/>
<feColorMatrix type="matrix" values="0 0 0 0 0 0 0 0 0 0 0 0 0 0 0 0 0 0 0.25 0"/>
<feBlend mode="normal" in2="BackgroundImageFix" result="effect1_dropShadow_28_2615"/>
<feBlend mode="normal" in="SourceGraphic" in2="effect1_dropShadow_28_2615" result="shape"/>
</filter>
<linearGradient id="paint0_linear_28_2615" x1="104" y1="0.0125732" x2="104" y2="40.014" gradientUnits="userSpaceOnUse">
<stop stop-color="#0D1B31"/>
<stop offset="1" stop-color="#081320"/>
</linearGradient>
<linearGradient id="paint1_linear_28_2615" x1="22.0058" y1="6.01257" x2="22.0058" y2="34.014" gradientUnits="userSpaceOnUse">
<stop stop-color="#111D2E"/>
<stop offset="0.212" stop-color="#051839"/>
<stop offset="0.407" stop-color="#0A1B48"/>
<stop offset="0.581" stop-color="#132E62"/>
<stop offset="0.738" stop-color="#144B7E"/>
<stop offset="0.873" stop-color="#136497"/>
<stop offset="1" stop-color="#1387B8"/>
</linearGradient>
<clipPath id="clip0_28_2615">
<rect x="-0.000732422" y="0.0125732" width="208.001" height="40.0014" rx="8" fill="white"/>
</clipPath>
</defs>
</svg>
