<svg width="168" height="41" viewBox="0 0 168 41" fill="none" xmlns="http://www.w3.org/2000/svg">
<rect x="-0.000732422" y="0.0401611" width="168" height="40" rx="8" fill="url(#paint0_linear_7_256)"/>
<rect x="1.04927" y="1.09016" width="165.9" height="37.9" rx="6.95" stroke="white" stroke-opacity="0.15" stroke-width="2.1"/>
<g filter="url(#filter0_d_7_256)">
<path fill-rule="evenodd" clip-rule="evenodd" d="M31.1501 8.04016H12.8522C11.2781 8.04016 10.0014 9.31594 9.99929 10.8911V29.1739C9.99625 29.933 10.2955 30.6621 10.8308 31.1999C11.3662 31.7378 12.0936 32.0402 12.8522 32.0402H31.1501C31.9081 32.0391 32.6345 31.7363 33.1691 31.1986C33.7036 30.6608 34.0023 29.9323 33.9992 29.1739V10.8911C33.9971 9.31744 32.7228 8.04228 31.1501 8.04016ZM20.3498 25.3265C20.3488 25.5802 20.2468 25.8231 20.0664 26.0014C19.8861 26.1797 19.6421 26.2788 19.3886 26.2768H15.3899C14.8669 26.2747 14.444 25.8498 14.444 25.3265V13.4188C14.444 12.8955 14.8669 12.4706 15.3899 12.4685H19.3886C19.9122 12.4706 20.3362 12.8948 20.3383 13.4188L20.3498 25.3265ZM29.5776 19.8593C29.5776 20.1134 29.476 20.3569 29.2954 20.5354C29.1148 20.714 28.8702 20.8127 28.6164 20.8097H24.6176C24.094 20.8075 23.6701 20.3833 23.668 19.8593V13.4188C23.6701 12.8948 24.094 12.4706 24.6176 12.4685H28.6164C29.1394 12.4706 29.5622 12.8955 29.5622 13.4188L29.5776 19.8593Z" fill="url(#paint1_linear_7_256)"/>
</g>
<g filter="url(#filter1_d_7_256)">
<path d="M44.4382 14.1765L47.8792 24.2461H48.0181L51.4591 14.1765H53.4755L49.0263 26.5402H46.8711L42.4219 14.1765H44.4382ZM55.116 26.5402V17.2674H56.921V26.5402H55.116ZM56.0276 15.8367C55.7137 15.8367 55.444 15.732 55.2186 15.5228C54.9973 15.3095 54.8866 15.0559 54.8866 14.7621C54.8866 14.4643 54.9973 14.2107 55.2186 14.0015C55.444 13.7881 55.7137 13.6815 56.0276 13.6815C56.3415 13.6815 56.6091 13.7881 56.8305 14.0015C57.0559 14.2107 57.1686 14.4643 57.1686 14.7621C57.1686 15.0559 57.0559 15.3095 56.8305 15.5228C56.6091 15.732 56.3415 15.8367 56.0276 15.8367ZM63.3459 26.7273C62.4323 26.7273 61.6455 26.5321 60.9854 26.1417C60.3294 25.7473 59.8223 25.1939 59.4641 24.4816C59.1099 23.7652 58.9329 22.926 58.9329 21.9642C58.9329 21.0144 59.1099 20.1772 59.4641 19.4528C59.8223 18.7284 60.3214 18.1629 60.9613 17.7564C61.6052 17.3499 62.3578 17.1467 63.2191 17.1467C63.7423 17.1467 64.2494 17.2332 64.7404 17.4063C65.2314 17.5793 65.6721 17.851 66.0625 18.2213C66.4529 18.5915 66.7607 19.0725 66.9861 19.6641C67.2115 20.2517 67.3242 20.9661 67.3242 21.8072V22.4471H59.9531V21.0948H65.5554C65.5554 20.6199 65.4588 20.1994 65.2656 19.8331C65.0724 19.4629 64.8008 19.1711 64.4506 18.9578C64.1045 18.7445 63.698 18.6378 63.2312 18.6378C62.724 18.6378 62.2813 18.7626 61.903 19.0121C61.5287 19.2576 61.239 19.5796 61.0337 19.978C60.8325 20.3724 60.7319 20.801 60.7319 21.2639V22.3203C60.7319 22.9401 60.8405 23.4674 61.0579 23.902C61.2792 24.3367 61.5871 24.6687 61.9815 24.8981C62.3759 25.1235 62.8367 25.2362 63.364 25.2362C63.7061 25.2362 64.018 25.1879 64.2997 25.0913C64.5814 24.9907 64.8249 24.8418 65.0302 24.6446C65.2354 24.4474 65.3924 24.2039 65.501 23.9141L67.2095 24.222C67.0727 24.7251 66.8271 25.1657 66.473 25.5441C66.1228 25.9184 65.6821 26.2101 65.1509 26.4194C64.6237 26.6247 64.022 26.7273 63.3459 26.7273ZM71.3206 26.5402L68.5919 17.2674H70.4574L72.2745 24.0771H72.365L74.1882 17.2674H76.0536L77.8647 24.0469H77.9552L79.7603 17.2674H81.6257L78.903 26.5402H77.0618L75.1782 19.8452H75.0394L73.1559 26.5402H71.3206ZM91.7436 26.7273C90.8743 26.7273 90.1156 26.5281 89.4676 26.1296C88.8197 25.7312 88.3166 25.1738 87.9584 24.4574C87.6002 23.741 87.4211 22.9039 87.4211 21.9461C87.4211 20.9842 87.6002 20.143 87.9584 19.4226C88.3166 18.7022 88.8197 18.1428 89.4676 17.7443C90.1156 17.3459 90.8743 17.1467 91.7436 17.1467C92.6129 17.1467 93.3715 17.3459 94.0195 17.7443C94.6675 18.1428 95.1705 18.7022 95.5287 19.4226C95.8869 20.143 96.066 20.9842 96.066 21.9461C96.066 22.9039 95.8869 23.741 95.5287 24.4574C95.1705 25.1738 94.6675 25.7312 94.0195 26.1296C93.3715 26.5281 92.6129 26.7273 91.7436 26.7273ZM91.7496 25.212C92.3131 25.212 92.7799 25.0631 93.1502 24.7653C93.5204 24.4675 93.7941 24.0711 93.9712 23.576C94.1523 23.081 94.2429 22.5357 94.2429 21.94C94.2429 21.3484 94.1523 20.8051 93.9712 20.31C93.7941 19.811 93.5204 19.4105 93.1502 19.1087C92.7799 18.8068 92.3131 18.6559 91.7496 18.6559C91.1821 18.6559 90.7113 18.8068 90.337 19.1087C89.9667 19.4105 89.691 19.811 89.5099 20.31C89.3328 20.8051 89.2443 21.3484 89.2443 21.94C89.2443 22.5357 89.3328 23.081 89.5099 23.576C89.691 24.0711 89.9667 24.4675 90.337 24.7653C90.7113 25.0631 91.1821 25.212 91.7496 25.212ZM99.8859 21.0345V26.5402H98.0808V17.2674H99.8134V18.7767H99.9281C100.141 18.2857 100.475 17.8912 100.93 17.5934C101.389 17.2956 101.967 17.1467 102.663 17.1467C103.295 17.1467 103.848 17.2795 104.323 17.5451C104.798 17.8067 105.166 18.1971 105.428 18.7163C105.689 19.2355 105.82 19.8774 105.82 20.6421V26.5402H104.015V20.8594C104.015 20.1873 103.84 19.6621 103.49 19.2838C103.14 18.9014 102.659 18.7103 102.047 18.7103C101.629 18.7103 101.256 18.8008 100.93 18.9819C100.608 19.163 100.353 19.4287 100.164 19.7788C99.9784 20.1249 99.8859 20.5435 99.8859 21.0345Z" fill="#E8E8E8"/>
<path d="M112.531 16.1034V13.6765H122.98V16.1034H119.232V26.0402H116.285V16.1034H112.531ZM123.477 26.0402V16.7674H126.345V18.4578H126.441C126.61 17.846 126.886 17.3912 127.268 17.0934C127.651 16.7916 128.095 16.6407 128.602 16.6407C128.739 16.6407 128.88 16.6507 129.025 16.6708C129.17 16.6869 129.305 16.7131 129.429 16.7493V19.315C129.289 19.2667 129.103 19.2285 128.874 19.2003C128.649 19.1721 128.447 19.1581 128.27 19.1581C127.92 19.1581 127.604 19.2365 127.323 19.3935C127.045 19.5464 126.825 19.7617 126.664 20.0394C126.508 20.3131 126.429 20.6351 126.429 21.0054V26.0402H123.477ZM134.485 26.2152C133.515 26.2152 132.678 26.0241 131.974 25.6417C131.274 25.2554 130.734 24.706 130.356 23.9936C129.982 23.2773 129.795 22.426 129.795 21.44C129.795 20.4822 129.984 19.645 130.362 18.9287C130.74 18.2082 131.274 17.6488 131.962 17.2504C132.65 16.8479 133.461 16.6467 134.395 16.6467C135.055 16.6467 135.658 16.7493 136.206 16.9546C136.753 17.1598 137.226 17.4637 137.625 17.8662C138.023 18.2686 138.333 18.7657 138.554 19.3573C138.776 19.9449 138.886 20.619 138.886 21.3796V22.1162H130.827V20.4017H136.139C136.135 20.0877 136.061 19.808 135.916 19.5625C135.771 19.317 135.572 19.1259 135.318 18.989C135.069 18.8482 134.781 18.7777 134.455 18.7777C134.125 18.7777 133.829 18.8522 133.568 19.0011C133.306 19.146 133.099 19.3452 132.946 19.5988C132.793 19.8483 132.712 20.132 132.704 20.45V22.1946C132.704 22.5729 132.779 22.905 132.928 23.1907C133.077 23.4724 133.288 23.6918 133.562 23.8488C133.835 24.0057 134.161 24.0842 134.54 24.0842C134.801 24.0842 135.039 24.048 135.252 23.9755C135.465 23.9031 135.648 23.7964 135.801 23.6556C135.954 23.5147 136.069 23.3416 136.145 23.1364L138.856 23.2149C138.743 23.8226 138.496 24.3518 138.114 24.8026C137.735 25.2493 137.238 25.5974 136.622 25.847C136.007 26.0925 135.294 26.2152 134.485 26.2152ZM143.346 13.6765V26.0402H140.394V13.6765H143.346ZM148.177 13.6765V26.0402H145.225V13.6765H148.177ZM154.385 26.2152C153.411 26.2152 152.573 26.016 151.873 25.6176C151.177 25.2151 150.64 24.6557 150.261 23.9393C149.887 23.2189 149.7 22.3838 149.7 21.434C149.7 20.4801 149.887 19.645 150.261 18.9287C150.64 18.2082 151.177 17.6488 151.873 17.2504C152.573 16.8479 153.411 16.6467 154.385 16.6467C155.359 16.6467 156.194 16.8479 156.89 17.2504C157.59 17.6488 158.127 18.2082 158.502 18.9287C158.88 19.645 159.069 20.4801 159.069 21.434C159.069 22.3838 158.88 23.2189 158.502 23.9393C158.127 24.6557 157.59 25.2151 156.89 25.6176C156.194 26.016 155.359 26.2152 154.385 26.2152ZM154.403 23.9876C154.757 23.9876 155.057 23.8789 155.302 23.6616C155.548 23.4443 155.735 23.1424 155.864 22.7561C155.996 22.3697 156.063 21.923 156.063 21.4159C156.063 20.9007 155.996 20.45 155.864 20.0636C155.735 19.6772 155.548 19.3754 155.302 19.1581C155.057 18.9407 154.757 18.8321 154.403 18.8321C154.036 18.8321 153.727 18.9407 153.473 19.1581C153.223 19.3754 153.032 19.6772 152.899 20.0636C152.771 20.45 152.706 20.9007 152.706 21.4159C152.706 21.923 152.771 22.3697 152.899 22.7561C153.032 23.1424 153.223 23.4443 153.473 23.6616C153.727 23.8789 154.036 23.9876 154.403 23.9876Z" fill="#2684FF"/>
</g>
<defs>
<filter id="filter0_d_7_256" x="2.28498" y="0.325876" width="39.4286" height="39.4286" filterUnits="userSpaceOnUse" color-interpolation-filters="sRGB">
<feFlood flood-opacity="0" result="BackgroundImageFix"/>
<feColorMatrix in="SourceAlpha" type="matrix" values="0 0 0 0 0 0 0 0 0 0 0 0 0 0 0 0 0 0 127 0" result="hardAlpha"/>
<feOffset/>
<feGaussianBlur stdDeviation="2.85714"/>
<feComposite in2="hardAlpha" operator="out"/>
<feColorMatrix type="matrix" values="0 0 0 0 0 0 0 0 0 0 0 0 0 0 0 0 0 0 0.25 0"/>
<feBlend mode="normal" in2="BackgroundImageFix" result="effect1_dropShadow_7_256"/>
<feBlend mode="normal" in="SourceGraphic" in2="effect1_dropShadow_7_256" result="shape"/>
</filter>
<filter id="filter1_d_7_256" x="36.3993" y="3.94016" width="129.2" height="32.2" filterUnits="userSpaceOnUse" color-interpolation-filters="sRGB">
<feFlood flood-opacity="0" result="BackgroundImageFix"/>
<feColorMatrix in="SourceAlpha" type="matrix" values="0 0 0 0 0 0 0 0 0 0 0 0 0 0 0 0 0 0 127 0" result="hardAlpha"/>
<feOffset/>
<feGaussianBlur stdDeviation="2.8"/>
<feComposite in2="hardAlpha" operator="out"/>
<feColorMatrix type="matrix" values="0 0 0 0 0 0 0 0 0 0 0 0 0 0 0 0 0 0 0.25 0"/>
<feBlend mode="normal" in2="BackgroundImageFix" result="effect1_dropShadow_7_256"/>
<feBlend mode="normal" in="SourceGraphic" in2="effect1_dropShadow_7_256" result="shape"/>
</filter>
<linearGradient id="paint0_linear_7_256" x1="83.9992" y1="0.0401611" x2="83.9992" y2="40.0402" gradientUnits="userSpaceOnUse">
<stop stop-color="#081F3E"/>
<stop offset="1" stop-color="#051428"/>
</linearGradient>
<linearGradient id="paint1_linear_7_256" x1="3757.6" y1="1544.04" x2="3757.6" y2="8.04016" gradientUnits="userSpaceOnUse">
<stop stop-color="#0052CC"/>
<stop offset="1" stop-color="#2684FF"/>
</linearGradient>
</defs>
</svg>
