<svg width="40" height="40" viewBox="0 0 40 40" fill="none" xmlns="http://www.w3.org/2000/svg">
<rect x="-0.000976562" y="-6.10352e-05" width="40" height="40" rx="6" fill="url(#paint0_linear_28_3449)"/>
<g filter="url(#filter0_d_28_3449)">
<path d="M30.7645 15.5461C30.6006 15.6721 27.7076 17.2879 27.7076 20.8806C27.7076 25.0362 31.3888 26.5064 31.499 26.5428C31.4821 26.6324 30.9142 28.5562 29.5581 30.5164C28.3489 32.2414 27.086 33.9635 25.1649 33.9635C23.2438 33.9635 22.7494 32.8574 20.5316 32.8574C18.3703 32.8574 17.6018 33.9999 15.8446 33.9999C14.0873 33.9999 12.8611 32.4038 11.4514 30.4436C9.81839 28.1417 8.49902 24.5658 8.49902 21.1719C8.49902 15.7281 12.0701 12.841 15.5846 12.841C17.4521 12.841 19.0088 14.0563 20.1812 14.0563C21.2972 14.0563 23.0375 12.7682 25.1621 12.7682C25.9673 12.7682 28.8603 12.841 30.7645 15.5461V15.5461ZM24.1535 10.4636C25.0321 9.43028 25.6537 7.99654 25.6537 6.5628C25.6537 6.36398 25.6367 6.16236 25.6 5.99994C24.1704 6.05314 22.4697 6.94363 21.4441 8.12255C20.6389 9.02984 19.8874 10.4636 19.8874 11.9169C19.8874 12.1354 19.9242 12.3538 19.9411 12.4238C20.0315 12.4406 20.1784 12.4602 20.3253 12.4602C21.608 12.4602 23.2212 11.6089 24.1535 10.4636Z" fill="white"/>
</g>
<rect x="0.749023" y="0.749939" width="38.5" height="38.5" rx="5.25" stroke="white" stroke-opacity="0.15" stroke-width="1.5"/>
<defs>
<filter id="filter0_d_28_3449" x="1.99902" y="1.99994" width="36" height="36" filterUnits="userSpaceOnUse" color-interpolation-filters="sRGB">
<feFlood flood-opacity="0" result="BackgroundImageFix"/>
<feColorMatrix in="SourceAlpha" type="matrix" values="0 0 0 0 0 0 0 0 0 0 0 0 0 0 0 0 0 0 127 0" result="hardAlpha"/>
<feOffset/>
<feGaussianBlur stdDeviation="2"/>
<feComposite in2="hardAlpha" operator="out"/>
<feColorMatrix type="matrix" values="0 0 0 0 0 0 0 0 0 0 0 0 0 0 0 0 0 0 0.25 0"/>
<feBlend mode="normal" in2="BackgroundImageFix" result="effect1_dropShadow_28_3449"/>
<feBlend mode="normal" in="SourceGraphic" in2="effect1_dropShadow_28_3449" result="shape"/>
</filter>
<linearGradient id="paint0_linear_28_3449" x1="19.999" y1="-6.10351e-05" x2="19.999" y2="39.9999" gradientUnits="userSpaceOnUse">
<stop stop-color="#1A1A1A"/>
<stop offset="1" stop-color="#0A0A0A"/>
</linearGradient>
</defs>
</svg>
