<svg width="41" height="40" viewBox="0 0 41 40" fill="none" xmlns="http://www.w3.org/2000/svg">
<rect x="0.499023" width="40" height="40" rx="6" fill="url(#paint0_linear_5_324)"/>
<g filter="url(#filter0_d_5_324)">
<path d="M13.9824 16.0974L20.65 13.9219C21.0919 13.7778 21.3743 13.3406 21.2462 12.8786C21.1272 12.4494 20.6381 12.1435 20.1957 12.286L13.5286 14.4614C13.0867 14.6056 12.8037 15.0427 12.9319 15.5047C13.0509 15.9339 13.54 16.2399 13.9824 16.0974Z" fill="#FF3E3E"/>
<path d="M20.1947 13.9219L26.8567 16.0945C27.2991 16.2387 27.7882 15.9311 27.9072 15.5019C28.0353 15.0399 27.7523 14.6028 27.3105 14.4586L20.6502 12.286C20.2078 12.1418 19.7181 12.4494 19.5991 12.8786C19.4716 13.3406 19.754 13.7777 20.1959 13.9219H20.1947Z" fill="#FF3E3E"/>
<path d="M13.3243 16.0119L19.9731 19.0254C20.3962 19.2177 20.8887 19.1498 21.1415 18.7212C21.3585 18.353 21.2588 17.7531 20.8352 17.5608L14.1863 14.5468C13.7633 14.3551 13.2707 14.4229 13.0179 14.8516C12.801 15.2197 12.9006 15.8197 13.3243 16.0119Z" fill="#FF3E3E"/>
<path d="M26.6506 14.544L19.9733 17.5625C19.5491 17.7542 19.4494 18.3542 19.6664 18.7229C19.9197 19.1515 20.4117 19.2188 20.8353 19.0271L27.5132 16.0091C27.9369 15.8174 28.0365 15.2174 27.8196 14.8488C27.5667 14.4196 27.0748 14.3528 26.6506 14.544Z" fill="#FF3E3E"/>
<path d="M13.3243 25.3865L19.9543 28.3898C20.378 28.5815 20.8699 28.5142 21.1227 28.0856C21.3403 27.7175 21.24 27.1169 20.8164 26.9252L14.1863 23.9219C13.7633 23.7297 13.2707 23.7975 13.0179 24.2262C12.801 24.5943 12.9006 25.1948 13.3243 25.3865Z" fill="#FF3E3E"/>
<path d="M20.8164 28.3897L27.5204 25.3672C27.9441 25.1761 28.0437 24.5756 27.8268 24.2069C27.5734 23.7777 27.082 23.7115 26.6584 23.9026L19.9543 26.9251C19.5301 27.1163 19.431 27.7168 19.648 28.0855C19.9008 28.5142 20.3927 28.5809 20.8164 28.3897Z" fill="#FF3E3E"/>
<path d="M26.23 15.2768L26.2362 23.6907V24.635C26.2362 25.7287 27.9444 25.7292 27.9444 24.635L27.9382 16.2212V15.2768C27.9382 14.1826 26.23 14.1826 26.23 15.2768Z" fill="#FF3E3E"/>
<path d="M12.9014 15.2798V24.6544C12.9014 25.7486 14.6096 25.7486 14.6096 24.6544V15.2798C14.6096 14.1856 12.9014 14.1856 12.9014 15.2798Z" fill="#FF3E3E"/>
<path d="M19.5498 18.2948L19.5327 26.7126V27.6576C19.5327 28.7512 21.2409 28.7512 21.2409 27.6576L21.2574 19.2398V18.2948C21.2574 17.2012 19.5492 17.2012 19.5492 18.2948H19.5498Z" fill="#FF3E3E"/>
<path d="M6.81244 20.192V19.2221C7.68322 19.2221 8.29067 19.0396 8.63481 18.6747C8.98416 18.3097 9.15884 17.6996 9.15884 16.8445V14.3416C9.15884 13.6221 9.22662 12.999 9.36219 12.4723C9.50298 11.9457 9.7298 11.5103 10.0427 11.1662C10.3555 10.822 10.7726 10.5665 11.2941 10.3997C11.8155 10.2328 12.4594 10.1494 13.2259 10.1494V11.6824C12.6211 11.6824 12.144 11.7762 11.7946 11.964C11.4505 12.1517 11.2054 12.4437 11.0594 12.8399C10.9186 13.231 10.8482 13.7316 10.8482 14.3416V17.4702C10.8482 17.8769 10.7935 18.2471 10.684 18.5808C10.5797 18.9145 10.3842 19.2013 10.0974 19.4411C9.81062 19.681 9.4013 19.8661 8.86945 19.9965C8.34281 20.1268 7.65715 20.192 6.81244 20.192ZM13.2259 30.172C12.4594 30.172 11.8155 30.0886 11.2941 29.9217C10.7726 29.7549 10.3555 29.4994 10.0427 29.1552C9.7298 28.8111 9.50298 28.3757 9.36219 27.8491C9.22662 27.3224 9.15884 26.6993 9.15884 25.9798V23.477C9.15884 22.6218 8.98416 22.0118 8.63481 21.6468C8.29067 21.2818 7.68322 21.0993 6.81244 21.0993V20.1294C7.65715 20.1294 8.34281 20.1946 8.86945 20.325C9.4013 20.4553 9.81062 20.6404 10.0974 20.8803C10.3842 21.1201 10.5797 21.4069 10.684 21.7406C10.7935 22.0743 10.8482 22.4445 10.8482 22.8512V25.9798C10.8482 26.5898 10.9186 27.0904 11.0594 27.4815C11.2054 27.8725 11.4505 28.1619 11.7946 28.3496C12.144 28.5426 12.6211 28.639 13.2259 28.639V30.172ZM6.81244 21.0993V19.2221H8.65828V21.0993H6.81244Z" fill="#FF3E3E"/>
<path d="M34.1856 20.0237V19.0538C33.3148 19.0538 32.7074 18.8713 32.3632 18.5063C32.0139 18.1413 31.8392 17.5313 31.8392 16.6761V14.1733C31.8392 13.4537 31.7714 12.8306 31.6359 12.304C31.4951 11.7774 31.2682 11.342 30.9554 10.9978C30.6425 10.6537 30.2254 10.3982 29.704 10.2314C29.1826 10.0645 28.5386 9.98107 27.7721 9.98107V11.5141C28.377 11.5141 28.8541 11.6079 29.2034 11.7956C29.5476 11.9833 29.7926 12.2753 29.9386 12.6716C30.0794 13.0627 30.1498 13.5632 30.1498 14.1733V17.3018C30.1498 17.7085 30.2045 18.0788 30.314 18.4125C30.4183 18.7462 30.6139 19.033 30.9006 19.2728C31.1874 19.5127 31.5967 19.6978 32.1286 19.8281C32.6552 19.9585 33.3409 20.0237 34.1856 20.0237ZM27.7721 30.0037C28.5386 30.0037 29.1826 29.9202 29.704 29.7534C30.2254 29.5865 30.6425 29.331 30.9554 28.9869C31.2682 28.6428 31.4951 28.2074 31.6359 27.6807C31.7714 27.1541 31.8392 26.531 31.8392 25.8114V23.3086C31.8392 22.4535 32.0139 21.8434 32.3632 21.4784C32.7074 21.1134 33.3148 20.9309 34.1856 20.9309V19.9611C33.3409 19.9611 32.6552 20.0263 32.1286 20.1566C31.5967 20.287 31.1874 20.4721 30.9006 20.7119C30.6139 20.9518 30.4183 21.2386 30.314 21.5723C30.2045 21.906 30.1498 22.2762 30.1498 22.6829V25.8114C30.1498 26.4215 30.0794 26.9221 29.9386 27.3131C29.7926 27.7042 29.5476 27.9936 29.2034 28.1813C28.8541 28.3742 28.377 28.4707 27.7721 28.4707V30.0037ZM34.1856 20.9309V19.0538H32.3398V20.9309H34.1856Z" fill="#FF3E3E"/>
</g>
<rect x="1.24902" y="0.75" width="38.5" height="38.5" rx="5.25" stroke="white" stroke-opacity="0.15" stroke-width="1.5"/>
<defs>
<filter id="filter0_d_5_324" x="2.49902" y="1.75" width="36" height="36.25" filterUnits="userSpaceOnUse" color-interpolation-filters="sRGB">
<feFlood flood-opacity="0" result="BackgroundImageFix"/>
<feColorMatrix in="SourceAlpha" type="matrix" values="0 0 0 0 0 0 0 0 0 0 0 0 0 0 0 0 0 0 127 0" result="hardAlpha"/>
<feOffset/>
<feGaussianBlur stdDeviation="2"/>
<feComposite in2="hardAlpha" operator="out"/>
<feColorMatrix type="matrix" values="0 0 0 0 0 0 0 0 0 0 0 0 0 0 0 0 0 0 0.25 0"/>
<feBlend mode="normal" in2="BackgroundImageFix" result="effect1_dropShadow_5_324"/>
<feBlend mode="normal" in="SourceGraphic" in2="effect1_dropShadow_5_324" result="shape"/>
</filter>
<linearGradient id="paint0_linear_5_324" x1="20.499" y1="0" x2="20.499" y2="40" gradientUnits="userSpaceOnUse">
<stop stop-color="#310D0D"/>
<stop offset="1" stop-color="#1D0808"/>
</linearGradient>
</defs>
</svg>
