<svg width="40" height="40" viewBox="0 0 40 40" fill="none" xmlns="http://www.w3.org/2000/svg">
<rect x="-0.000976562" y="-6.10352e-05" width="40" height="40" rx="6" fill="url(#paint0_linear_28_3514)"/>
<g filter="url(#filter0_d_28_3514)">
<path d="M12.8828 12L13.3711 14.087C10.9293 14.087 4.99902 14.087 4.99902 14.087C4.99902 14.087 5.13859 14.713 5.20836 14.7826C5.41766 15.1304 5.62696 15.5478 5.90603 15.8261C7.23162 17.3565 9.53387 17.9826 11.4176 18.3304C12.7432 18.6087 14.0688 18.6783 15.3944 18.7478L16.9292 22.8522H17.7665L18.2548 24.1739H17.5572L16.3711 28H28.0223L26.8363 24.1739H26.1386L26.6269 22.8522H27.4641C27.4641 22.8522 28.1618 18.6087 30.3246 16.6609C32.4177 14.7131 34.999 14.4348 34.999 14.4348V12H12.8828ZM24.6037 22.5043C24.0455 22.8522 23.4177 22.8522 22.9991 23.1304C22.72 23.2696 22.5804 23.6869 22.5804 23.6869C22.3013 23.0609 21.9525 22.8522 21.5339 22.7131C21.1153 22.5739 20.3479 22.6435 19.3013 21.7391C18.6037 21.113 18.5339 20.2783 18.6037 19.8609V19.7913C18.6037 19.7217 18.6037 19.7217 18.6037 19.6522C18.6037 19.5826 18.6037 19.5131 18.6734 19.4435C18.813 19.0261 19.1618 18.6087 19.8595 18.3304C19.8595 18.3304 19.3711 19.0261 19.8595 19.7217C20.1386 20.1391 20.6967 20.3478 21.185 20.0695C21.3943 19.9304 21.5339 19.6522 21.6037 19.4435C21.7432 18.9565 21.7432 18.4696 21.3246 18.1217C20.6967 17.5652 20.5572 16.8 20.9758 16.3131C20.9758 16.3131 21.1153 16.9391 21.7432 16.8696C22.1618 16.8696 22.1618 16.7304 22.0223 16.5913C21.9525 16.3826 21.0456 15.0609 22.3711 14.087C22.3711 14.087 23.2083 13.5304 24.1851 13.6C23.6269 13.6696 22.999 14.0174 22.7897 14.5739C22.7897 14.5739 22.7897 14.5739 22.7897 14.6435C22.5804 15.2 22.72 15.8261 23.1386 16.3826C23.4176 16.8 23.7664 17.1478 23.906 17.7044C23.6967 17.6348 23.5572 17.7044 23.4176 17.8435C23.2781 17.9826 23.2083 18.2609 23.2781 18.4696C23.3478 18.6087 23.4874 18.7478 23.6269 18.7478C23.6967 18.7478 23.6967 18.7478 23.7665 18.7478H23.8362C24.0455 18.6783 24.1851 18.4 24.1153 18.1913C24.2549 18.3305 24.3246 18.6783 24.2548 18.887C24.2548 19.0957 24.1153 19.3044 24.0456 19.4435C23.9758 19.5826 23.8362 19.7217 23.7665 19.8609C23.6967 20 23.6269 20.1391 23.6269 20.2783C23.6269 20.4174 23.627 20.6261 23.6967 20.7652C23.9758 21.1826 24.5339 20.7652 24.6734 20.4174C24.8827 20 24.813 19.5131 24.5339 19.0957C24.5339 19.0957 25.0222 19.3739 25.3711 20.3478C25.6502 21.1826 25.1618 22.1565 24.6037 22.5043Z" fill="#F16436"/>
</g>
<rect x="0.749023" y="0.749939" width="38.5" height="38.5" rx="5.25" stroke="white" stroke-opacity="0.15" stroke-width="1.5"/>
<defs>
<filter id="filter0_d_28_3514" x="0.999023" y="1.99994" width="38" height="36" filterUnits="userSpaceOnUse" color-interpolation-filters="sRGB">
<feFlood flood-opacity="0" result="BackgroundImageFix"/>
<feColorMatrix in="SourceAlpha" type="matrix" values="0 0 0 0 0 0 0 0 0 0 0 0 0 0 0 0 0 0 127 0" result="hardAlpha"/>
<feOffset/>
<feGaussianBlur stdDeviation="2"/>
<feComposite in2="hardAlpha" operator="out"/>
<feColorMatrix type="matrix" values="0 0 0 0 0 0 0 0 0 0 0 0 0 0 0 0 0 0 0.25 0"/>
<feBlend mode="normal" in2="BackgroundImageFix" result="effect1_dropShadow_28_3514"/>
<feBlend mode="normal" in="SourceGraphic" in2="effect1_dropShadow_28_3514" result="shape"/>
</filter>
<linearGradient id="paint0_linear_28_3514" x1="19.999" y1="-6.10351e-05" x2="19.999" y2="39.9999" gradientUnits="userSpaceOnUse">
<stop stop-color="#2E140B"/>
<stop offset="1" stop-color="#1E0C07"/>
</linearGradient>
</defs>
</svg>
