<svg width="40" height="40" viewBox="0 0 40 40" fill="none" xmlns="http://www.w3.org/2000/svg">
<rect x="-0.000976562" y="-6.10352e-05" width="40" height="40" rx="6" fill="url(#paint0_linear_9_39)"/>
<g filter="url(#filter0_d_9_39)">
<path d="M18.8971 6.00714C18.8317 6.01403 18.6217 6.03813 18.4323 6.05534C15.7395 6.33769 13.0881 7.47741 10.9257 9.28856C10.5262 9.61911 9.61717 10.5281 9.28661 10.9275C7.49604 13.0658 6.44925 15.4658 6.06359 18.3064C5.9775 18.9366 5.9775 21.0645 6.06359 21.6946C6.44925 24.5353 7.49604 26.9352 9.28661 29.0735C9.61717 29.4729 10.5262 30.3819 10.9257 30.7125C13.064 32.503 15.4641 33.5497 18.3049 33.9354C18.935 34.0215 21.063 34.0215 21.6932 33.9354C24.534 33.5497 26.934 32.503 29.0724 30.7125C29.4718 30.3819 30.3809 29.4729 30.7114 29.0735C32.502 26.9352 33.5488 24.5353 33.9345 21.6946C34.0205 21.0645 34.0205 18.9366 33.9345 18.3064C33.5488 15.4658 32.502 13.0658 30.7114 10.9275C30.3809 10.5281 29.4718 9.61911 29.0724 9.28856C26.9409 7.50495 24.5168 6.44443 21.7138 6.06911C21.4108 6.0278 20.9701 6.01058 20.154 6.00369C19.5307 5.99681 18.9626 6.00025 18.8971 6.00714ZM19.0693 7.49463C19.0693 7.89749 19.0969 8.77207 19.1347 9.6019C19.1554 10.0082 19.1795 10.5901 19.1898 10.8931C19.2277 11.9674 19.3413 14.7874 19.3586 15.0388L19.3758 15.2902L19.2208 15.2729C19.1347 15.266 19.0555 15.2454 19.0418 15.2351C19.0314 15.2213 19.0073 14.9837 18.9936 14.7048C18.9316 13.479 18.7284 8.72387 18.7077 8.02833L18.6871 7.26393L18.7835 7.25015C18.8352 7.24327 18.9212 7.23294 18.9763 7.22949L19.0693 7.22605V7.49463ZM22.3646 7.41199C22.3681 7.41543 22.3784 8.45529 22.3887 9.72241C22.4025 10.993 22.4197 12.1327 22.4301 12.2566C22.4404 12.384 22.437 12.4942 22.4197 12.5011C22.406 12.5114 22.3199 12.5114 22.2338 12.5011L22.0754 12.4873L22.0513 11.4854C22.0375 10.931 22.0203 10.3181 22.0134 10.1184C21.9859 9.50893 21.9618 7.43953 21.9824 7.38788C21.9962 7.35001 22.0341 7.34656 22.1787 7.37067C22.2786 7.39133 22.3612 7.40854 22.3646 7.41199ZM14.4001 8.56548C14.4207 8.59646 14.5826 10.4937 14.7823 12.9763C14.8477 13.8199 14.9131 14.5912 14.9235 14.6876C14.9407 14.8632 14.9372 14.8701 14.827 14.9389C14.7651 14.9768 14.7031 15.0078 14.6893 15.0078C14.679 15.0078 14.6583 14.9183 14.648 14.8081C14.5998 14.3605 14.4138 12.1981 14.283 10.6349C14.2072 9.71552 14.1384 8.89259 14.128 8.80306C14.1108 8.65156 14.1143 8.63778 14.2038 8.58958C14.314 8.53104 14.376 8.52071 14.4001 8.56548ZM23.8797 9.25757C23.9761 9.292 23.9865 9.30922 24.0071 9.50549C24.0416 9.84981 24.0312 11.4957 23.9934 11.4957C23.8935 11.4957 23.6869 11.3786 23.6697 11.3132C23.6594 11.2719 23.649 10.7829 23.649 10.2286C23.649 9.10951 23.6353 9.17493 23.8797 9.25757ZM17.5198 9.4194C17.5198 9.51237 17.5439 10.0254 17.5714 10.566C17.599 11.1066 17.63 11.7918 17.6437 12.0879C17.6678 12.6871 17.6747 12.6664 17.444 12.6802C17.3304 12.6836 17.3304 12.6836 17.3235 12.5114C17.3166 12.415 17.2994 12.1155 17.2787 11.84C17.2615 11.5646 17.2202 10.9689 17.1927 10.5144C17.1651 10.0598 17.1307 9.60878 17.1203 9.51237C17.0997 9.34021 17.1031 9.33332 17.1961 9.29889C17.2512 9.27823 17.3476 9.26101 17.4096 9.26101C17.5198 9.25757 17.5198 9.25757 17.5198 9.4194ZM27.0718 9.89113L27.1888 9.93933L27.2129 10.4007C27.2233 10.6521 27.2302 11.1961 27.2233 11.6059L27.2129 12.3565L27.0683 12.2842L26.9237 12.2153L26.9134 11.0722C26.9065 10.4421 26.9099 9.90835 26.9168 9.88424C26.9306 9.83259 26.9306 9.8326 27.0718 9.89113ZM20.7841 10.3422C20.8048 10.3629 20.853 12.0328 20.8564 12.8799L20.8599 13.3895L20.698 13.3654C20.6051 13.355 20.5293 13.3447 20.5259 13.3413C20.5155 13.3344 20.4122 10.7829 20.4122 10.535V10.2802L20.5878 10.3009C20.6877 10.3146 20.7738 10.3319 20.7841 10.3422ZM28.7143 10.5867C28.7556 10.6349 28.7625 11.3889 28.7728 15.5484C28.7831 20.3242 28.7831 20.4481 28.7212 20.4481C28.6833 20.4481 28.6316 20.4275 28.6006 20.4034C28.549 20.3655 28.5421 19.9489 28.5249 15.8686C28.5111 13.3964 28.4939 11.1514 28.4836 10.8793L28.4629 10.3835L28.5628 10.4558C28.6213 10.4971 28.6867 10.5557 28.7143 10.5867ZM25.6255 11.2925C25.6428 11.3063 25.66 11.5026 25.6634 11.7264C25.6806 12.4873 25.6841 17.153 25.6669 17.1667C25.66 17.1736 25.598 17.1564 25.5291 17.1289L25.4052 17.0772V14.147V11.2202L25.5016 11.2409C25.5532 11.2547 25.6083 11.2753 25.6255 11.2925ZM16.1218 11.4854C16.1321 11.5783 16.1493 11.7884 16.1596 11.9605C16.17 12.1292 16.1941 12.5149 16.2147 12.8145C16.256 13.4205 16.2492 13.4583 16.0529 13.4583C15.9496 13.4583 15.9358 13.448 15.922 13.3447C15.8876 13.1416 15.7671 11.4475 15.7843 11.4199C15.8015 11.3958 15.9806 11.3339 16.0632 11.327C16.0839 11.3235 16.1114 11.3958 16.1218 11.4854ZM10.4264 12.3634C10.4643 12.7284 10.54 13.4928 10.5951 14.0609C10.6536 14.629 10.7018 15.1111 10.7018 15.1318C10.7018 15.1731 10.4367 15.3039 10.4092 15.2764C10.3919 15.2592 10.0476 12.2119 10.0476 12.0742C10.0476 11.9915 10.3127 11.6437 10.3472 11.6816C10.3575 11.6885 10.3919 11.995 10.4264 12.3634ZM23.9279 12.7249L24.0278 12.7835L24.0312 13.5272C24.0347 13.9335 24.0416 14.388 24.0416 14.5361C24.0485 14.846 24.0106 14.8976 23.8246 14.8322L23.7179 14.7943V14.4982C23.7179 14.3329 23.7076 13.8543 23.6938 13.4308L23.6731 12.6664H23.7523C23.7936 12.6664 23.8728 12.6939 23.9279 12.7249ZM11.938 14.0609C12 14.722 12.0999 15.8376 12.1653 16.5401L12.2824 17.8141L12.1481 17.9483L12.0172 18.0826L11.9931 17.8106C11.9793 17.6591 11.9105 16.9567 11.8382 16.2474C11.7659 15.5381 11.6626 14.5085 11.6109 13.9611L11.5145 12.9694L11.6488 12.8454C11.7693 12.7318 11.7831 12.7284 11.8072 12.7903C11.821 12.8248 11.8795 13.3964 11.938 14.0609ZM9.35892 14.4775C9.43467 15.1559 9.63439 16.9601 9.80656 18.4855C9.97873 20.0109 10.1406 21.4811 10.1716 21.7566C10.1991 22.032 10.2473 22.4487 10.2749 22.6863C10.3231 23.0891 10.3231 23.1167 10.268 23.158C10.1853 23.22 10.1509 23.2131 10.1509 23.1408C10.1509 23.1098 10.1199 22.8481 10.082 22.5658C10.0201 22.094 9.91675 21.2952 9.68604 19.5013C9.63784 19.1397 9.54486 18.4201 9.47944 17.9001C9.41057 17.3802 9.31071 16.6055 9.25562 16.1785C9.20052 15.7515 9.10755 15.0216 9.04901 14.5499C8.98703 14.0816 8.94916 13.6649 8.95949 13.6202C8.98359 13.5272 9.18675 13.2035 9.20741 13.2242C9.2143 13.2345 9.28317 13.7958 9.35892 14.4775ZM8.30524 15.9616C8.35689 16.3748 8.45331 17.1289 8.51873 17.6419C8.58416 18.1515 8.6668 18.7885 8.70467 19.0536L8.7701 19.5357L8.69779 19.5977C8.65647 19.6321 8.61515 19.6459 8.60137 19.6321C8.5876 19.6183 8.56005 19.4806 8.53939 19.3291C8.51873 19.1776 8.39132 18.2927 8.25359 17.3664L8.00911 15.6792L8.08831 15.4451C8.12963 15.3177 8.17439 15.2144 8.18472 15.2144C8.19849 15.2144 8.25015 15.5518 8.30524 15.9616ZM27.2095 15.5105C27.2577 15.5587 27.2646 15.7722 27.2646 17.3527V19.1397H27.1682C26.9581 19.1397 26.9616 19.1914 26.9478 17.2356L26.9375 15.4554H27.0477C27.1062 15.4554 27.182 15.4795 27.2095 15.5105ZM19.6719 16.1269C20.4501 16.2439 21.1285 16.4609 21.7999 16.8052C22.2338 17.029 22.4404 17.1839 22.9225 17.6453C23.6387 18.3305 24.0795 18.9297 24.4927 19.7767C25.0953 21.0094 25.3294 22.1009 25.6255 25.0277C25.7598 26.3396 25.9354 28.7188 25.9733 29.6933C25.9837 29.9756 26.0078 30.4405 26.0284 30.7263C26.0663 31.3323 26.1111 31.2496 25.5773 31.5079C24.837 31.866 24.1242 32.1139 23.1842 32.3446C22.0341 32.6269 21.2903 32.7165 20.154 32.7199L19.3276 32.7234L19.3344 32.3274C19.3344 32.1105 19.3551 31.6043 19.3758 31.2083C19.4791 29.2904 19.4584 26.8698 19.3241 25.5269C19.2484 24.7557 19.1003 23.8191 19.0177 23.6125C19.0004 23.5677 19.0796 23.5299 19.4205 23.4128C20.0438 23.1959 20.5844 22.9238 20.667 22.7896C20.8151 22.5348 20.55 22.1698 20.2125 22.1698C20.154 22.1698 19.9784 22.2318 19.8165 22.3041C19.0452 22.6587 17.4991 23.0754 16.6073 23.1683C15.9909 23.2337 15.0336 23.1959 14.3691 23.0754C14.0075 23.0099 13.3601 22.7655 12.8195 22.4866C12.1963 22.1629 11.8141 21.7325 11.7004 21.2229C11.6385 20.9474 11.6557 20.3965 11.7349 20.0866C11.821 19.7457 12.062 19.2499 12.2824 18.9607C13.2637 17.6694 15.2885 16.5504 17.3648 16.1579C18.026 16.0339 18.9626 16.0201 19.6719 16.1269ZM30.2948 16.2336C30.4187 16.2853 30.4325 16.299 30.4325 16.4161C30.4394 17.3561 30.4187 19.5047 30.4015 19.5942C30.3981 19.6252 30.219 19.6287 30.1433 19.6011C30.0951 19.5839 30.0882 19.398 30.0882 17.8795C30.0882 16.7914 30.102 16.1785 30.1226 16.1785C30.1398 16.1785 30.219 16.2026 30.2948 16.2336ZM31.7996 18.124L31.9235 18.1756L31.8994 21.0266C31.8719 24.6592 31.8684 24.766 31.7376 25.0793C31.5241 25.5924 31.5344 25.6957 31.5551 23.4438C31.562 22.3178 31.5792 21.1781 31.5861 20.913C31.5929 20.6479 31.5998 19.9007 31.6033 19.2499C31.6033 18.4648 31.6136 18.0723 31.6377 18.0723C31.6584 18.0723 31.7307 18.0964 31.7996 18.124ZM11.0909 18.9813C11.1116 19.2602 11.1047 19.2878 11.0049 19.5081L10.8947 19.7423L10.8534 19.398C10.7879 18.847 10.7879 18.8229 10.9188 18.7403C10.9773 18.699 11.0393 18.6714 11.0496 18.6783C11.06 18.6852 11.0806 18.8229 11.0909 18.9813ZM8.96293 21.0576C8.99392 21.34 9.23496 23.2131 9.35892 24.1324C9.54486 25.5545 9.55864 25.7576 9.476 25.6716C9.46567 25.6612 9.38647 25.1826 9.30383 24.6076C8.76666 20.8958 8.7701 20.9199 8.81486 20.8923C8.90783 20.8303 8.93883 20.8648 8.96293 21.0576ZM11.4422 22.6346C11.4628 22.7207 11.5627 23.6538 11.5627 23.7674C11.5627 23.8639 11.4387 23.9534 11.3836 23.8983C11.3664 23.8811 11.3217 23.5884 11.2872 23.251C11.2493 22.9101 11.2115 22.5554 11.2011 22.4625L11.1805 22.2903L11.301 22.428C11.3699 22.5038 11.4318 22.5967 11.4422 22.6346ZM14.221 23.9327C14.2589 23.9672 14.283 24.1049 14.314 24.4768C14.3656 25.1482 14.3725 25.0965 14.2313 25.0965C14.0867 25.0965 14.0902 25.1069 14.0419 24.5009C13.9937 23.8845 13.9937 23.8914 14.0867 23.8914C14.1315 23.8914 14.19 23.9121 14.221 23.9327ZM16.9482 23.9844C16.9551 24.0188 16.9723 24.2254 16.986 24.4423C16.9964 24.6592 17.0274 25.1482 17.0549 25.5269C17.1513 26.918 17.1548 27.0936 17.0962 27.0936C17.0308 27.0936 17.0239 27.042 16.9482 26.0607C16.9206 25.6544 16.869 25.0139 16.8345 24.6386C16.8035 24.2633 16.7829 23.9499 16.7932 23.9431C16.8311 23.9017 16.931 23.9327 16.9482 23.9844ZM10.4746 24.6455C10.4952 24.6765 10.6261 25.7783 10.7879 27.283C10.8361 27.7375 10.8843 28.1748 10.8947 28.2575L10.9119 28.4055L10.8258 28.3504C10.7604 28.3057 10.7363 28.2609 10.7363 28.1817C10.7363 27.9648 10.5882 26.5358 10.4746 25.6612C10.4092 25.1654 10.3575 24.7281 10.3575 24.6868C10.3575 24.6145 10.4401 24.5869 10.4746 24.6455ZM30.3464 26.0848L30.3223 27.524L30.2362 27.6514C30.04 27.9407 30.0503 27.9958 30.0606 26.3843L30.0675 24.9072L30.1949 24.7763C30.2638 24.7075 30.3327 24.6489 30.3464 24.6489C30.3568 24.6489 30.3568 25.2963 30.3464 26.0848ZM27.1613 28.3676C27.1785 30.3682 27.1751 30.5231 27.12 30.5851C27.0855 30.623 27.0545 30.6471 27.0442 30.6367C27.0201 30.6092 26.9857 26.2466 27.0132 26.2225C27.027 26.2087 27.0614 26.2018 27.0924 26.2053C27.1372 26.2156 27.1475 26.4601 27.1613 28.3676ZM15.9152 26.9972C15.9393 27.2107 16.0253 28.2333 16.0598 28.7154C16.0804 29.0391 16.0804 29.0494 16.0047 29.0735C15.9634 29.0873 15.9152 29.0838 15.9014 29.0666C15.8773 29.0425 15.8015 28.2781 15.7085 27.1005L15.6844 26.8182H15.7912C15.891 26.8182 15.8979 26.8251 15.9152 26.9972ZM13.2086 28.2024C13.2327 28.2265 13.25 28.3125 13.25 28.3986C13.25 28.4881 13.2913 28.953 13.336 29.435C13.4669 30.7538 13.4772 30.9329 13.4187 30.8984C13.3292 30.8468 13.25 30.7676 13.2672 30.7469C13.2741 30.7332 13.2603 30.561 13.2327 30.3647C13.2086 30.165 13.1776 29.8413 13.1639 29.6416C13.1501 29.4419 13.1191 29.0769 13.0916 28.8325C13.0261 28.2299 13.0296 28.161 13.1053 28.161C13.1398 28.161 13.1845 28.1783 13.2086 28.2024ZM14.8374 30.5197C14.8477 30.5954 14.8684 30.8778 14.8821 31.1463C14.9062 31.6628 14.8959 31.7007 14.7547 31.594C14.7134 31.563 14.6859 31.4321 14.6445 31.0396C14.5722 30.3303 14.5688 30.3578 14.7031 30.3716C14.8029 30.3819 14.8167 30.3957 14.8374 30.5197Z" fill="white"/>
<path d="M13.608 17.7762C13.2499 17.9311 13.2223 18.4166 13.5598 18.5888C13.8043 18.7128 14.0522 18.6542 14.1796 18.4407C14.4206 18.0482 14.0281 17.5937 13.608 17.7762Z" fill="white"/>
<path d="M15.9427 18.1067C15.6122 18.3099 15.6122 18.7988 15.9427 19.002C16.2699 19.1983 16.6934 18.94 16.6934 18.5475C16.6934 18.1687 16.2595 17.9139 15.9427 18.1067Z" fill="white"/>
</g>
<rect x="0.749023" y="0.749939" width="38.5" height="38.5" rx="5.25" stroke="white" stroke-opacity="0.15" stroke-width="1.5"/>
<defs>
<filter id="filter0_d_9_39" x="1.99902" y="1.99994" width="36" height="36" filterUnits="userSpaceOnUse" color-interpolation-filters="sRGB">
<feFlood flood-opacity="0" result="BackgroundImageFix"/>
<feColorMatrix in="SourceAlpha" type="matrix" values="0 0 0 0 0 0 0 0 0 0 0 0 0 0 0 0 0 0 127 0" result="hardAlpha"/>
<feOffset/>
<feGaussianBlur stdDeviation="2"/>
<feComposite in2="hardAlpha" operator="out"/>
<feColorMatrix type="matrix" values="0 0 0 0 0 0 0 0 0 0 0 0 0 0 0 0 0 0 0.25 0"/>
<feBlend mode="normal" in2="BackgroundImageFix" result="effect1_dropShadow_9_39"/>
<feBlend mode="normal" in="SourceGraphic" in2="effect1_dropShadow_9_39" result="shape"/>
</filter>
<linearGradient id="paint0_linear_9_39" x1="19.999" y1="-6.10351e-05" x2="19.999" y2="39.9999" gradientUnits="userSpaceOnUse">
<stop stop-color="#282828"/>
<stop offset="1" stop-color="#1A1A1A"/>
</linearGradient>
</defs>
</svg>
