<svg width="40" height="40" viewBox="0 0 40 40" fill="none" xmlns="http://www.w3.org/2000/svg">
<rect x="-0.000976562" y="-6.10352e-05" width="40" height="40" rx="6" fill="url(#paint0_linear_1_152)"/>
<g filter="url(#filter0_d_1_152)">
<path d="M19.1412 19.3735L7.10669 31.6793C7.24182 32.1467 7.48467 32.5778 7.81667 32.9396C8.14868 33.3014 8.56105 33.5843 9.02226 33.7668C9.48347 33.9492 9.9813 34.0263 10.4777 33.9921C10.9741 33.958 11.456 33.8135 11.8864 33.5698L25.4274 26.0428L19.1412 19.3735Z" fill="#EA4335"/>
<path d="M31.31 17.2818L25.4542 14.0084L18.863 19.6537L25.4811 26.0253L31.2921 22.787C31.8069 22.5239 32.2381 22.1283 32.539 21.6431C32.8399 21.1579 32.9989 20.6015 32.9989 20.0344C32.9989 19.4672 32.8399 18.9109 32.539 18.4257C32.2381 17.9404 31.8069 17.5449 31.2921 17.2818H31.31Z" fill="#FBBC04"/>
<path d="M7.10667 8.32812C7.03392 8.5906 6.99773 8.86143 6.99906 9.13334V30.874C6.99979 31.1458 7.03595 31.4164 7.10667 31.6792L19.5536 19.6886L7.10667 8.32812Z" fill="#4285F4"/>
<path d="M19.2308 20.0037L25.4543 14.0084L11.9312 6.44637C11.4225 6.15557 10.8439 6.00155 10.2543 6.00001C9.54226 5.99863 8.84929 6.22453 8.28102 6.64326C7.71275 7.062 7.30035 7.65061 7.10669 8.31936L19.2308 20.0037Z" fill="#34A853"/>
</g>
<rect x="0.749023" y="0.749939" width="38.5" height="38.5" rx="5.25" stroke="white" stroke-opacity="0.15" stroke-width="1.5"/>
<defs>
<filter id="filter0_d_1_152" x="1.99902" y="1.99994" width="36" height="36.0001" filterUnits="userSpaceOnUse" color-interpolation-filters="sRGB">
<feFlood flood-opacity="0" result="BackgroundImageFix"/>
<feColorMatrix in="SourceAlpha" type="matrix" values="0 0 0 0 0 0 0 0 0 0 0 0 0 0 0 0 0 0 127 0" result="hardAlpha"/>
<feOffset/>
<feGaussianBlur stdDeviation="2"/>
<feComposite in2="hardAlpha" operator="out"/>
<feColorMatrix type="matrix" values="0 0 0 0 0 0 0 0 0 0 0 0 0 0 0 0 0 0 0.25 0"/>
<feBlend mode="normal" in2="BackgroundImageFix" result="effect1_dropShadow_1_152"/>
<feBlend mode="normal" in="SourceGraphic" in2="effect1_dropShadow_1_152" result="shape"/>
</filter>
<linearGradient id="paint0_linear_1_152" x1="19.999" y1="-6.10351e-05" x2="19.999" y2="39.9999" gradientUnits="userSpaceOnUse">
<stop stop-color="#00171C"/>
<stop offset="0.333333" stop-color="#0A1209"/>
<stop offset="0.666667" stop-color="#100F06"/>
<stop offset="1" stop-color="#1A0000"/>
</linearGradient>
</defs>
</svg>
