<svg width="56" height="56" viewBox="0 0 56 56" fill="none" xmlns="http://www.w3.org/2000/svg">
<g clip-path="url(#clip0_1_62)">
<rect width="56" height="56" rx="8.4" fill="url(#paint0_linear_1_62)"/>
<g filter="url(#filter0_d_1_62)">
<path d="M41 25.6755C38.0848 24.5349 33.7871 28.9075 31.6833 35.6248C30.5546 39.2913 30.1957 43.1727 30.6314 47L29.279 46.398C26.6943 37.9379 28.1369 28.6857 32.615 22L41 25.6755Z" fill="white"/>
<path d="M43.5263 39.413L33.1527 35.1351C35.0587 29.3583 38.5895 25.8923 40.8704 25.8923C41.1043 25.9007 41.3358 25.9428 41.5578 26.0172L41.7453 26.1108C42.5576 26.4856 45.026 28.6089 43.5263 39.413ZM39.808 13.7767C36.5732 15.5307 33.8082 18.0368 31.7467 21.0835C27.1848 27.7034 25.6226 36.6651 27.9972 45.0336C28.28 46.0425 28.6244 47.0331 29.0283 48L15.1241 42.2545C9.87481 29.3895 14.6866 14.0578 25.9038 8L39.808 13.7767Z" fill="white"/>
</g>
</g>
<rect x="1.05" y="1.05" width="53.9" height="53.9" rx="7.35" stroke="white" stroke-opacity="0.15" stroke-width="2.1"/>
<defs>
<filter id="filter0_d_1_62" x="-74.7143" y="-47.7143" width="252.429" height="235.929" filterUnits="userSpaceOnUse" color-interpolation-filters="sRGB">
<feFlood flood-opacity="0" result="BackgroundImageFix"/>
<feColorMatrix in="SourceAlpha" type="matrix" values="0 0 0 0 0 0 0 0 0 0 0 0 0 0 0 0 0 0 127 0" result="hardAlpha"/>
<feOffset/>
<feGaussianBlur stdDeviation="2.85714"/>
<feComposite in2="hardAlpha" operator="out"/>
<feColorMatrix type="matrix" values="0 0 0 0 0 0 0 0 0 0 0 0 0 0 0 0 0 0 0.25 0"/>
<feBlend mode="normal" in2="BackgroundImageFix" result="effect1_dropShadow_1_62"/>
<feBlend mode="normal" in="SourceGraphic" in2="effect1_dropShadow_1_62" result="shape"/>
</filter>
<linearGradient id="paint0_linear_1_62" x1="28" y1="0" x2="28" y2="56" gradientUnits="userSpaceOnUse">
<stop stop-color="#1C252C"/>
<stop offset="1" stop-color="#13191D"/>
</linearGradient>
<clipPath id="clip0_1_62">
<rect width="56" height="56" rx="8.4" fill="white"/>
</clipPath>
</defs>
</svg>
