<svg width="40" height="40" viewBox="0 0 40 40" fill="none" xmlns="http://www.w3.org/2000/svg">
<rect x="-0.000976562" y="-6.10352e-05" width="40" height="40" rx="6" fill="url(#paint0_linear_28_3455)"/>
<g filter="url(#filter0_d_28_3455)">
<path d="M30.7645 15.0461C30.6006 15.1721 27.7076 16.7879 27.7076 20.3806C27.7076 24.5362 31.3888 26.0064 31.499 26.0428C31.4821 26.1324 30.9142 28.0562 29.5581 30.0164C28.3489 31.7414 27.086 33.4635 25.1649 33.4635C23.2438 33.4635 22.7494 32.3574 20.5316 32.3574C18.3703 32.3574 17.6018 33.4999 15.8446 33.4999C14.0873 33.4999 12.8611 31.9038 11.4514 29.9436C9.81839 27.6417 8.49902 24.0658 8.49902 20.6719C8.49902 15.2281 12.0701 12.341 15.5846 12.341C17.4521 12.341 19.0088 13.5563 20.1812 13.5563C21.2972 13.5563 23.0375 12.2682 25.1621 12.2682C25.9673 12.2682 28.8603 12.341 30.7645 15.0461V15.0461ZM24.1535 9.96358C25.0321 8.93028 25.6537 7.49654 25.6537 6.0628C25.6537 5.86398 25.6367 5.66236 25.6 5.49994C24.1704 5.55314 22.4697 6.44363 21.4441 7.62255C20.6389 8.52984 19.8874 9.96358 19.8874 11.4169C19.8874 11.6354 19.9242 11.8538 19.9411 11.9238C20.0315 11.9406 20.1784 11.9602 20.3253 11.9602C21.608 11.9602 23.2212 11.1089 24.1535 9.96358Z" fill="white"/>
</g>
<rect x="0.749023" y="0.749939" width="38.5" height="38.5" rx="5.25" stroke="white" stroke-opacity="0.15" stroke-width="1.5"/>
<defs>
<filter id="filter0_d_28_3455" x="1.99902" y="1.49994" width="36" height="36.5" filterUnits="userSpaceOnUse" color-interpolation-filters="sRGB">
<feFlood flood-opacity="0" result="BackgroundImageFix"/>
<feColorMatrix in="SourceAlpha" type="matrix" values="0 0 0 0 0 0 0 0 0 0 0 0 0 0 0 0 0 0 127 0" result="hardAlpha"/>
<feOffset/>
<feGaussianBlur stdDeviation="2"/>
<feComposite in2="hardAlpha" operator="out"/>
<feColorMatrix type="matrix" values="0 0 0 0 0 0 0 0 0 0 0 0 0 0 0 0 0 0 0.25 0"/>
<feBlend mode="normal" in2="BackgroundImageFix" result="effect1_dropShadow_28_3455"/>
<feBlend mode="normal" in="SourceGraphic" in2="effect1_dropShadow_28_3455" result="shape"/>
</filter>
<linearGradient id="paint0_linear_28_3455" x1="19.999" y1="-6.10351e-05" x2="19.999" y2="39.9999" gradientUnits="userSpaceOnUse">
<stop stop-color="#1E1E1E"/>
<stop offset="1" stop-color="#0D0D0D"/>
</linearGradient>
</defs>
</svg>
