<svg width="40" height="40" viewBox="0 0 40 40" fill="none" xmlns="http://www.w3.org/2000/svg">
<g clip-path="url(#clip0_1_106)">
<rect x="-0.000976562" y="-6.10352e-05" width="40" height="40" rx="6" fill="url(#paint0_linear_1_106)"/>
<g filter="url(#filter0_d_1_106)">
<path d="M3.38408 21.5692C3.31313 21.5692 3.25683 21.6287 3.24765 21.7134L2.99902 23.7598L3.24765 25.771C3.25683 25.8558 3.3131 25.9148 3.38408 25.9148C3.45279 25.9148 3.50875 25.8562 3.51971 25.7717L3.81441 23.7598L3.51971 21.713C3.5091 21.6286 3.45245 21.5692 3.38408 21.5692ZM4.78231 20.4511C4.77059 20.3632 4.71246 20.3025 4.6408 20.3025C4.56876 20.3025 4.50915 20.3652 4.49929 20.4511C4.49929 20.4519 4.16508 23.7598 4.16508 23.7598L4.49929 26.9953C4.50881 27.082 4.56841 27.1446 4.6408 27.1446C4.71209 27.1446 4.77025 27.0836 4.78193 26.9961L5.16218 23.7598L4.78231 20.4511ZM10.0491 17.3991C9.91202 17.3991 9.79865 17.5208 9.79208 17.6753L9.5259 23.7626L9.79208 27.6965C9.79902 27.8502 9.91202 27.9715 10.0491 27.9715C10.1855 27.9715 10.2985 27.8498 10.3066 27.6957V27.6969L10.6075 23.7626L10.3066 17.6753C10.2985 17.5208 10.1855 17.3991 10.0491 17.3991ZM7.3232 19.5149C7.2179 19.5149 7.13198 19.606 7.12353 19.7276L6.82371 23.761L7.12353 27.6632C7.13157 27.784 7.21787 27.8752 7.3232 27.8752C7.4274 27.8752 7.51332 27.784 7.5225 27.6632L7.86327 23.761L7.5225 19.7268C7.51332 19.606 7.4274 19.5149 7.3232 19.5149ZM12.8193 27.9711C12.9893 27.9711 13.1275 27.8225 13.1345 27.6323L13.3956 23.7646L13.1349 15.6601C13.1279 15.47 12.9897 15.3214 12.8197 15.3214C12.6482 15.3214 12.5096 15.4704 12.5041 15.6606L12.2726 23.7641L12.5041 27.6335C12.5096 27.8221 12.6482 27.9711 12.8193 27.9711ZM18.4905 27.9894C18.7246 27.9894 18.9176 27.7805 18.922 27.5238L19.1041 23.7669L18.922 14.4069C18.9179 14.1506 18.7245 13.9414 18.4905 13.9414C18.2561 13.9414 18.0627 14.1502 18.059 14.4074L17.8963 23.7638C17.8963 23.7697 18.059 27.5261 18.059 27.5261C18.0627 27.7805 18.2565 27.9894 18.4905 27.9894ZM15.6333 27.9747C15.837 27.9747 16.0012 27.7976 16.0067 27.5717V27.5745L16.2282 23.7654L16.0063 15.6023C16.0008 15.3765 15.8366 15.1998 15.6329 15.1998C15.4278 15.1998 15.2637 15.3765 15.2593 15.6023L15.0622 23.7658L15.2596 27.5741C15.264 27.7976 15.4282 27.9747 15.6333 27.9747ZM8.68086 27.939C8.80189 27.939 8.89991 27.834 8.90905 27.6957L9.2301 23.761L8.90905 20.0181C8.90029 19.8798 8.8023 19.7756 8.68086 19.7756C8.55804 19.7756 8.46002 19.8805 8.45236 20.0197L8.16968 23.761L8.45236 27.6954C8.4604 27.834 8.558 27.939 8.68086 27.939ZM5.97654 27.7235C6.065 27.7235 6.13667 27.6478 6.14691 27.5432L6.50743 23.7602L6.14725 19.8346C6.13663 19.7296 6.06497 19.6539 5.9765 19.6539C5.8869 19.6539 5.81524 19.73 5.8061 19.8346L5.48873 23.7602L5.8061 27.5424C5.8149 27.6474 5.88656 27.7235 5.97654 27.7235ZM17.0565 15.4664C16.8353 15.4664 16.6579 15.657 16.6535 15.9011L16.4736 23.7662L16.6535 27.5507C16.6579 27.7916 16.8349 27.9822 17.0565 27.9822C17.2773 27.9822 17.4536 27.792 17.4587 27.548V27.5511L17.6605 23.7666L17.4587 15.9003C17.4535 15.657 17.2773 15.4664 17.0565 15.4664ZM11.4291 27.979C11.5819 27.979 11.7081 27.8439 11.7154 27.6715L11.9962 23.7637L11.7154 16.2842C11.7077 16.1114 11.5819 15.9767 11.4291 15.9767C11.2748 15.9767 11.149 16.1118 11.1424 16.2842L10.8938 23.7637L11.1428 27.6731C11.149 27.8439 11.2748 27.979 11.4291 27.979ZM14.5649 27.6102V27.6082L14.8062 23.765L14.5649 15.3876C14.559 15.1796 14.4077 15.0163 14.2208 15.0163C14.0328 15.0163 13.8815 15.1792 13.8764 15.3876L13.6621 23.7646L13.8767 27.6098C13.8819 27.8158 14.0333 27.9786 14.2208 27.9786C14.408 27.9786 14.5587 27.8158 14.5649 27.6086V27.6102H14.5649ZM32.8174 18.936C32.2444 18.936 31.6978 19.0616 31.1998 19.2878C30.867 15.2037 27.7063 12 23.8509 12C22.9076 12 21.9879 12.2013 21.1758 12.5416C20.8603 12.6739 20.7762 12.8102 20.7733 13.0745V27.4568C20.7766 27.7341 20.9751 27.9651 21.2249 27.9925C21.2355 27.9937 32.7425 28 32.8171 28C35.1265 28 36.999 25.971 36.999 23.4682C36.999 20.9654 35.1269 18.936 32.8174 18.936ZM19.9184 13.0618C19.6672 13.0618 19.461 13.2853 19.4573 13.5599L19.2686 23.7681L19.4577 27.4731C19.461 27.7437 19.6672 27.9668 19.9184 27.9668C20.1688 27.9668 20.3751 27.7437 20.3787 27.4691V27.4735L20.5838 23.7681L20.3787 13.5591C20.3751 13.2853 20.1688 13.0618 19.9184 13.0618Z" fill="url(#paint1_linear_1_106)"/>
</g>
</g>
<rect x="0.749023" y="0.749939" width="38.5" height="38.5" rx="5.25" stroke="white" stroke-opacity="0.15" stroke-width="1.5"/>
<defs>
<filter id="filter0_d_1_106" x="-1.00098" y="1.99994" width="42" height="36" filterUnits="userSpaceOnUse" color-interpolation-filters="sRGB">
<feFlood flood-opacity="0" result="BackgroundImageFix"/>
<feColorMatrix in="SourceAlpha" type="matrix" values="0 0 0 0 0 0 0 0 0 0 0 0 0 0 0 0 0 0 127 0" result="hardAlpha"/>
<feOffset/>
<feGaussianBlur stdDeviation="2"/>
<feComposite in2="hardAlpha" operator="out"/>
<feColorMatrix type="matrix" values="0 0 0 0 0 0 0 0 0 0 0 0 0 0 0 0 0 0 0.25 0"/>
<feBlend mode="normal" in2="BackgroundImageFix" result="effect1_dropShadow_1_106"/>
<feBlend mode="normal" in="SourceGraphic" in2="effect1_dropShadow_1_106" result="shape"/>
</filter>
<linearGradient id="paint0_linear_1_106" x1="19.999" y1="-6.10351e-05" x2="19.999" y2="39.9999" gradientUnits="userSpaceOnUse">
<stop stop-color="#402806"/>
<stop offset="1" stop-color="#270802"/>
</linearGradient>
<linearGradient id="paint1_linear_1_106" x1="19.9974" y1="11.9971" x2="19.9974" y2="32.9985" gradientUnits="userSpaceOnUse">
<stop stop-color="#F79810"/>
<stop offset="1" stop-color="#F8310E"/>
</linearGradient>
<clipPath id="clip0_1_106">
<rect x="-0.000976562" y="-6.10352e-05" width="40" height="40" rx="6" fill="white"/>
</clipPath>
</defs>
</svg>
