<svg width="40" height="40" viewBox="0 0 40 40" fill="none" xmlns="http://www.w3.org/2000/svg">
<rect x="-0.000976562" y="-6.10352e-05" width="40" height="40" rx="6" fill="url(#paint0_linear_28_3461)"/>
<g filter="url(#filter0_d_28_3461)">
<path d="M6.57003 24.0258C8.30102 29.7938 13.6546 33.9999 19.9898 33.9999C27.7267 33.9999 33.9988 27.7319 33.9988 19.9999C33.9988 12.268 27.7267 5.99994 19.9898 5.99994C12.5659 5.99994 6.49079 11.7719 6.01099 19.0698C6.91894 20.591 7.27136 21.5321 6.56916 24.0258H6.57003Z" fill="url(#paint1_linear_28_3461)"/>
<path d="M19.2681 16.4934L19.2694 16.5625L15.8416 21.539C15.2865 21.5137 14.7296 21.6112 14.2008 21.8287C13.9706 21.9222 13.7508 22.0395 13.545 22.1787L6.01736 19.0781C6.01736 19.0781 5.84312 21.942 6.56896 24.0761L11.8906 26.2706C12.1533 27.4641 12.9763 28.5106 14.1855 29.0137C15.1368 29.4087 16.206 29.4103 17.1584 29.018C18.1108 28.6257 18.8685 27.8717 19.2651 26.9216C19.4766 26.4155 19.5787 25.8704 19.5645 25.3221L24.4646 21.8199L24.585 21.8221C27.5203 21.8221 29.9062 19.4307 29.9062 16.4934C29.9062 13.556 27.5247 11.1734 24.585 11.1672C21.651 11.1672 19.2637 13.556 19.2637 16.4934H19.2681ZM18.4451 26.5777C17.8086 28.109 16.0522 28.8295 14.5256 28.1939C13.8482 27.9093 13.2991 27.3858 12.9829 26.723L14.7152 27.4405C14.9828 27.5518 15.2697 27.6093 15.5596 27.6098C15.8495 27.6103 16.1366 27.5536 16.4045 27.4432C16.6725 27.3327 16.916 27.1705 17.1213 26.966C17.3265 26.7614 17.4894 26.5184 17.6006 26.2509C17.8258 25.7104 17.8272 25.1027 17.6043 24.5612C17.3815 24.0197 16.9526 23.5887 16.412 23.363L14.6171 22.6214C15.308 22.3589 16.0933 22.3502 16.8279 22.6551C17.5722 22.9627 18.1413 23.5419 18.446 24.2826C18.7507 25.0233 18.7489 25.8401 18.4416 26.5777M24.5898 20.0437C23.6492 20.0411 22.748 19.6661 22.0835 19.0009C21.419 18.3356 21.0454 17.4342 21.0446 16.4942C21.0457 15.5544 21.4193 14.6533 22.0838 13.9882C22.7482 13.3231 23.6494 12.9482 24.5898 12.9457C25.5304 12.948 26.4317 13.3228 27.0964 13.9879C27.761 14.653 28.1348 15.5543 28.1358 16.4942C28.135 17.4344 27.7613 18.3359 27.0967 19.0012C26.432 19.6665 25.5305 20.0414 24.5898 20.0437M21.9333 16.4885C21.9328 15.7823 22.2128 15.1047 22.7119 14.6047C23.211 14.1047 23.8883 13.8231 24.595 13.822C26.0638 13.822 27.2585 15.0164 27.2585 16.4885C27.2589 17.195 26.9785 17.8726 26.479 18.3725C25.9796 18.8723 25.3019 19.1535 24.595 19.1542C23.8884 19.1532 23.2111 18.8718 22.7119 18.372C22.2127 17.8722 21.9325 17.1947 21.9329 16.4885H21.9333Z" fill="white"/>
</g>
<rect x="0.749023" y="0.749939" width="38.5" height="38.5" rx="5.25" stroke="white" stroke-opacity="0.15" stroke-width="1.5"/>
<defs>
<filter id="filter0_d_28_3461" x="1.99902" y="1.99994" width="36" height="36" filterUnits="userSpaceOnUse" color-interpolation-filters="sRGB">
<feFlood flood-opacity="0" result="BackgroundImageFix"/>
<feColorMatrix in="SourceAlpha" type="matrix" values="0 0 0 0 0 0 0 0 0 0 0 0 0 0 0 0 0 0 127 0" result="hardAlpha"/>
<feOffset/>
<feGaussianBlur stdDeviation="2"/>
<feComposite in2="hardAlpha" operator="out"/>
<feColorMatrix type="matrix" values="0 0 0 0 0 0 0 0 0 0 0 0 0 0 0 0 0 0 0.25 0"/>
<feBlend mode="normal" in2="BackgroundImageFix" result="effect1_dropShadow_28_3461"/>
<feBlend mode="normal" in="SourceGraphic" in2="effect1_dropShadow_28_3461" result="shape"/>
</filter>
<linearGradient id="paint0_linear_28_3461" x1="19.999" y1="-6.10351e-05" x2="19.999" y2="39.9999" gradientUnits="userSpaceOnUse">
<stop stop-color="#0D1B31"/>
<stop offset="1" stop-color="#081320"/>
</linearGradient>
<linearGradient id="paint1_linear_28_3461" x1="20.0049" y1="5.99994" x2="20.0049" y2="33.9999" gradientUnits="userSpaceOnUse">
<stop stop-color="#111D2E"/>
<stop offset="0.212" stop-color="#051839"/>
<stop offset="0.407" stop-color="#0A1B48"/>
<stop offset="0.581" stop-color="#132E62"/>
<stop offset="0.738" stop-color="#144B7E"/>
<stop offset="0.873" stop-color="#136497"/>
<stop offset="1" stop-color="#1387B8"/>
</linearGradient>
</defs>
</svg>
