<svg width="41" height="40" viewBox="0 0 41 40" fill="none" xmlns="http://www.w3.org/2000/svg">
<rect x="0.499023" y="-6.10352e-05" width="40" height="40" rx="6" fill="url(#paint0_linear_2_1178)"/>
<g filter="url(#filter0_d_2_1178)">
<path d="M6.49902 6H34.499V34H6.49902V6ZM32.2054 27.322C32.0012 26.0445 31.1694 24.9712 28.7019 23.9702C27.8432 23.5677 26.8889 23.2877 26.6054 22.6402C26.4992 22.2552 26.4829 22.0452 26.5517 21.8177C26.7267 21.064 27.6192 20.8377 28.3192 21.0477C28.7742 21.1877 29.1942 21.5377 29.4579 22.0977C30.6642 21.309 30.6642 21.309 31.5054 20.7852C31.1904 20.2952 31.034 20.084 30.8217 19.8752C30.0867 19.0527 29.1079 18.6327 27.5154 18.6688L26.6929 18.7727C25.9042 18.9652 25.1529 19.3852 24.6979 19.9452C23.3679 21.4513 23.7517 24.0763 25.3617 25.1613C26.9542 26.3513 29.2829 26.6127 29.5804 27.7338C29.8604 29.0988 28.5654 29.5363 27.2867 29.3788C26.3405 29.1688 25.8167 28.6952 25.2392 27.8202L23.1042 29.0463C23.3492 29.6063 23.6292 29.8502 24.0492 30.3402C26.0792 32.3888 31.1542 32.2838 32.0654 29.1688C32.0992 29.0638 32.3454 28.3463 32.1517 27.2438L32.2054 27.322ZM21.7252 18.8695H19.1025C19.1025 21.1305 19.092 23.3775 19.092 25.642C19.092 27.0793 19.1655 28.3988 18.931 28.8048C18.546 29.6087 17.5544 29.506 17.104 29.3648C16.642 29.1362 16.4075 28.8212 16.1357 28.3673C16.0622 28.2448 16.0074 28.1387 15.9875 28.1387L13.8584 29.4512C14.2142 30.1862 14.7334 30.8185 15.403 31.221C16.4005 31.816 17.741 32.0085 19.1445 31.6935C20.058 31.4298 20.8455 30.8873 21.2574 30.0473C21.8524 28.9623 21.7264 27.6323 21.7205 26.1437C21.7345 23.7473 21.7205 21.3498 21.7205 18.9348L21.7252 18.8695Z" fill="#F7DF1E"/>
</g>
<rect x="1.24902" y="0.749939" width="38.5" height="38.5" rx="5.25" stroke="white" stroke-opacity="0.15" stroke-width="1.5"/>
<defs>
<filter id="filter0_d_2_1178" x="2.49902" y="1.99994" width="36" height="36.0001" filterUnits="userSpaceOnUse" color-interpolation-filters="sRGB">
<feFlood flood-opacity="0" result="BackgroundImageFix"/>
<feColorMatrix in="SourceAlpha" type="matrix" values="0 0 0 0 0 0 0 0 0 0 0 0 0 0 0 0 0 0 127 0" result="hardAlpha"/>
<feOffset/>
<feGaussianBlur stdDeviation="2"/>
<feComposite in2="hardAlpha" operator="out"/>
<feColorMatrix type="matrix" values="0 0 0 0 0 0 0 0 0 0 0 0 0 0 0 0 0 0 0.25 0"/>
<feBlend mode="normal" in2="BackgroundImageFix" result="effect1_dropShadow_2_1178"/>
<feBlend mode="normal" in="SourceGraphic" in2="effect1_dropShadow_2_1178" result="shape"/>
</filter>
<linearGradient id="paint0_linear_2_1178" x1="20.499" y1="-6.10351e-05" x2="20.499" y2="39.9999" gradientUnits="userSpaceOnUse">
<stop stop-color="#35300A"/>
<stop offset="1" stop-color="#232004"/>
</linearGradient>
</defs>
</svg>
