<svg width="41" height="40" viewBox="0 0 41 40" fill="none" xmlns="http://www.w3.org/2000/svg">
<g clip-path="url(#clip0_40_468)">
<rect x="0.499023" y="-6.10352e-05" width="40" height="40" rx="6" fill="url(#paint0_linear_40_468)"/>
<g filter="url(#filter0_d_40_468)">
<path d="M10.4556 33.0237C16.4223 34.0028 21.8666 33.79 25.4366 33.1551C27.2171 32.8384 28.5472 32.4142 29.2409 31.9704C29.4154 31.8588 29.5556 31.7422 29.6528 31.6208C29.7502 31.4991 29.8096 31.3654 29.8069 31.2238C29.8015 30.9447 29.5633 30.7228 29.1913 30.5477L29.1598 30.5215H29.1147H29.1072L29.068 30.7029C29.0349 30.7428 29.0349 30.7427 29.0348 30.7427L29.0351 30.7429L29.0394 30.7468C29.0435 30.7506 29.0499 30.7566 29.0579 30.7648C29.0738 30.7812 29.0952 30.8055 29.1161 30.8358C29.159 30.8978 29.1933 30.9755 29.189 31.0597C29.185 31.1393 29.1452 31.2482 28.9928 31.3746C28.8379 31.503 28.5722 31.6441 28.132 31.7795C26.4811 32.2755 22.9971 32.6014 19.5423 32.6389C17.8173 32.6576 16.1048 32.6044 14.6384 32.4654C13.1678 32.3261 11.9582 32.1017 11.2305 31.7845L11.23 31.7842C11.1074 31.7315 11.0482 31.6832 11.0232 31.6488C11.0045 31.623 11.0039 31.6054 11.0134 31.5814C11.0266 31.5479 11.0623 31.5013 11.1324 31.4448C11.2005 31.39 11.2912 31.3337 11.3988 31.278C11.8324 31.0533 12.4771 30.869 12.785 30.8206L12.785 30.821L12.7938 30.8189C13.113 30.7451 13.3576 30.7084 13.5212 30.6901C13.6031 30.681 13.6647 30.6765 13.7053 30.6743C13.7256 30.6732 13.7406 30.6727 13.7503 30.6724L13.7608 30.6722L13.763 30.6722L13.7632 30.6722H13.7633H13.7633H13.7634H13.7634H14.1603L13.8348 30.4447C13.6609 30.3231 13.4039 30.2729 13.1186 30.2645C12.8287 30.2559 12.4893 30.2901 12.1337 30.3552C11.4225 30.4855 10.6299 30.7425 10.0087 31.0484C9.69845 31.2012 9.42568 31.3687 9.22649 31.5424C9.03212 31.712 8.88489 31.9074 8.87459 32.1184C8.86355 32.3445 9.0093 32.5308 9.2641 32.6742C9.5187 32.8175 9.90868 32.9353 10.4556 33.0237ZM10.4556 33.0237C10.4556 33.0237 10.4555 33.0237 10.4555 33.0237L10.4757 32.9003L10.4558 33.0237C10.4557 33.0237 10.4557 33.0237 10.4556 33.0237ZM16.1761 28.2997L16.1762 28.2997L16.1763 28.2996L16.1763 28.2996L16.555 28.0681H16.1109H16.11H16.0926L16.0758 28.0728C15.4968 28.2375 15.0902 28.4275 14.8442 28.6373C14.7203 28.743 14.6318 28.8583 14.5865 28.9831C14.5404 29.1101 14.542 29.2392 14.5856 29.3635C14.67 29.6041 14.9067 29.8156 15.2249 29.9949C15.5482 30.1772 15.9778 30.3387 16.4843 30.4688C18.5068 30.9883 21.8361 31.0258 24.7782 29.7611L25.0651 29.6377L24.7723 29.529C24.2074 29.3193 23.6642 29.0545 23.1506 28.7382L23.1091 28.7127L23.0613 28.7219C20.4828 29.2203 19.2497 29.2691 16.924 28.971L16.9209 28.9706C16.4392 28.9209 16.1677 28.8414 16.025 28.7606C15.9552 28.7211 15.9245 28.6858 15.9114 28.6616C15.8996 28.64 15.8974 28.6195 15.9027 28.5954C15.9155 28.5364 15.9713 28.4652 16.0454 28.399C16.0796 28.3684 16.113 28.3432 16.1378 28.3255C16.1502 28.3168 16.1602 28.31 16.167 28.3056L16.1745 28.3008L16.1761 28.2998L16.1761 28.2997ZM15.49 24.9371V24.6843L15.3032 24.827C14.681 25.0393 14.2434 25.2588 13.9762 25.482C13.7054 25.7082 13.5823 25.9655 13.6786 26.2301C13.7668 26.4724 14.026 26.6699 14.3704 26.8302C14.7221 26.9938 15.1931 27.1324 15.7529 27.2399C17.9903 27.6696 21.7346 27.6181 25.2654 26.5606L25.6411 26.4481L25.2696 26.3225C24.8368 26.1761 24.4442 25.9294 24.1235 25.6024L24.0759 25.5539L24.0093 25.5674C20.5856 26.2647 18.606 26.2152 16.0751 25.9659C15.5954 25.9161 15.3373 25.8216 15.2088 25.7251C15.1472 25.6788 15.119 25.6347 15.1065 25.5972C15.0938 25.5594 15.0936 25.5173 15.1061 25.4696C15.1323 25.369 15.2096 25.2625 15.292 25.1743C15.3317 25.1319 15.3696 25.0969 15.3975 25.0726C15.408 25.0634 15.417 25.0559 15.424 25.05L15.49 25.0277V24.938V24.9371ZM16.7618 21.4745L16.7174 21.3854L16.6324 21.4058L16.6322 21.4058C16.615 21.405 16.5897 21.4039 16.557 21.4031C16.4914 21.4013 16.3955 21.4003 16.2727 21.4031C16.0271 21.4086 15.6735 21.4292 15.2386 21.4893C14.3688 21.6096 13.1726 21.8881 11.8637 22.5211L11.8636 22.5211L11.8627 22.5216C11.6672 22.6182 11.5171 22.7159 11.4156 22.8163C11.3145 22.9164 11.2486 23.033 11.2568 23.1628C11.265 23.2917 11.344 23.3963 11.4465 23.4785C11.5497 23.5612 11.6916 23.6337 11.8608 23.6983C12.5344 23.9556 13.766 24.133 15.2486 24.2176C18.2203 24.3871 22.2698 24.1869 25.0515 23.4558L25.0705 23.4508L25.0871 23.4402C25.3553 23.2687 25.6867 23.0958 25.9531 22.965C26.0859 22.8998 26.2017 22.8455 26.2843 22.8075C26.3256 22.7885 26.3585 22.7735 26.381 22.7634L26.4068 22.7519L26.4134 22.749L26.415 22.7483L26.4154 22.7481L26.4155 22.7481L26.4155 22.7481L26.4155 22.748L26.3432 22.5106L26.3651 22.6336L26.3432 22.5106L26.3432 22.5106L26.3429 22.5106L26.3417 22.5109L26.3369 22.5117L26.3178 22.515L26.2432 22.528C26.1777 22.5393 26.0816 22.5556 25.9592 22.5759C25.7144 22.6163 25.3647 22.6724 24.945 22.7348C24.1055 22.8595 22.9874 23.009 21.8703 23.1091C19.1309 23.3086 16.2039 23.3582 14.7234 23.1594L14.7228 23.1594C14.2899 23.1035 14.0071 23.0356 13.838 22.9638C13.7532 22.9277 13.7063 22.8945 13.6826 22.8692C13.6621 22.8472 13.6632 22.8364 13.6636 22.8322L13.6637 22.8321C13.6647 22.8221 13.672 22.7984 13.7058 22.7602C13.7388 22.723 13.7893 22.6809 13.8584 22.635C13.9964 22.5432 14.1909 22.4478 14.4185 22.3535C14.8725 22.1653 15.4368 21.9899 15.89 21.8611C16.1162 21.7968 16.3136 21.7444 16.4545 21.7081C16.525 21.69 16.5812 21.6758 16.6198 21.6663L16.6548 21.6577L16.8601 21.6721L16.7627 21.4764L16.7618 21.4745ZM26.8006 21.7754C26.8005 21.7754 26.8005 21.7755 26.9124 21.8311L26.8005 21.7755L26.6341 22.1102L26.9681 21.9431L26.9682 21.943L26.9683 21.943L26.9683 21.9429L26.9684 21.9429L26.969 21.9426L26.9744 21.9401C26.9796 21.9377 26.988 21.9339 26.9997 21.9289C27.0231 21.9189 27.0598 21.9042 27.1104 21.8862C27.2114 21.8504 27.368 21.8018 27.5861 21.7529C28.423 21.5908 29.4436 22.1688 29.6045 23.1104C29.7633 24.0399 29.0938 25.4212 26.3345 26.8652H26.2862L26.2516 26.9342C26.23 26.9771 26.2091 27.0084 26.1944 27.0281C26.187 27.0379 26.1812 27.0448 26.1777 27.0488L26.1746 27.0524L26.1743 27.0527L26.1743 27.0527C26.1741 27.0529 26.174 27.053 26.1741 27.0529L25.8517 27.377L26.2951 27.2612C28.1763 26.7697 29.4259 26.0824 30.181 25.3371C30.9378 24.5902 31.1996 23.7817 31.0897 23.0646C30.8699 21.6301 29.1951 20.6682 27.3721 21.3118C27.1718 21.3703 27.0299 21.4852 26.9388 21.5838C26.8929 21.6335 26.8591 21.6798 26.8366 21.7142C26.8253 21.7315 26.8167 21.7459 26.8108 21.7564L26.8038 21.7692L26.8017 21.7732L26.801 21.7746L26.8007 21.7751L26.8006 21.7753L26.8006 21.7754ZM13.7218 34.5476C14.3358 34.7221 15.3707 34.9185 17.0749 35.0216V35.0218L17.1918 35.0294C19.8881 35.2052 23.2975 35.1551 26.061 34.74C27.4417 34.5326 28.6695 34.233 29.5679 33.8201C30.4583 33.411 31.0683 32.8698 31.1236 32.1581L30.8845 32.1027C30.8829 32.102 30.883 32.102 30.883 32.102L30.8831 32.1016L30.8834 32.101L30.8837 32.1001C30.8839 32.0998 30.884 32.0996 30.884 32.0995L30.8826 32.1024C30.8806 32.1062 30.8764 32.1138 30.8692 32.1249C30.8548 32.147 30.8283 32.1832 30.7831 32.2308C30.6926 32.3262 30.5269 32.4678 30.2336 32.6352C29.6461 32.9703 28.5526 33.4051 26.5428 33.7787C21.9743 34.6271 16.3099 34.526 12.9854 33.9789L12.546 33.9065L12.8836 34.197L12.9651 34.1022C12.8836 34.197 12.8837 34.197 12.8838 34.1971L12.8841 34.1974L12.8846 34.1978L12.8858 34.1989L12.8892 34.2016L12.8992 34.2093C12.9074 34.2154 12.9189 34.2235 12.9341 34.2333C12.9645 34.253 13.0098 34.2796 13.0742 34.3112C13.2027 34.3745 13.4077 34.4584 13.7218 34.5476Z" fill="#4E7896" stroke="#4E7896" stroke-width="0.25"/>
<path d="M22.9864 5L23.0758 4.91256L22.7529 4.58278L22.8652 5.0304C23.1702 6.247 23.0534 7.24355 22.6803 8.10423C22.3059 8.96822 21.6696 9.70371 20.9218 10.3899C20.422 10.8485 19.8795 11.2791 19.3357 11.7107C19.063 11.9272 18.7899 12.1439 18.5218 12.3645C17.7246 13.0205 16.9776 13.7061 16.4562 14.4993C16.0929 15.0471 15.9512 15.6096 15.9929 16.1852C16.0344 16.7581 16.2571 17.3361 16.609 17.9195C17.3109 19.0833 18.5448 20.2968 19.964 21.5734L20.1621 21.4304C19.9084 20.8503 19.5169 20.2874 19.1289 19.7295C19.0887 19.6718 19.0485 19.6141 19.0086 19.5564C18.579 18.9362 18.1699 18.3183 17.9427 17.6635C17.7173 17.0138 17.6717 16.3297 17.9711 15.5738C18.2721 14.8135 18.9266 13.9691 20.1253 13.0123C23.1569 10.6189 23.9219 8.60717 23.9024 7.17098C23.8927 6.45561 23.6882 5.89313 23.4854 5.50908C23.3841 5.3171 23.2831 5.16948 23.2069 5.06922C23.1687 5.01907 23.1367 4.9807 23.1139 4.95448C23.1025 4.94137 23.0933 4.93129 23.0868 4.92429L23.0792 4.9161L23.0769 4.91375L23.0762 4.91301L23.0759 4.91275C23.0758 4.91265 23.0758 4.91256 22.9864 5ZM21.3067 19.4583L21.3073 19.459C21.6528 19.8541 21.7963 20.2332 21.8243 20.5772C21.8525 20.9228 21.7649 21.2433 21.6316 21.5202C21.4983 21.7973 21.321 22.027 21.1759 22.188C21.1035 22.2683 21.0398 22.3309 20.9945 22.3731C20.9718 22.3942 20.9538 22.4102 20.9417 22.4207L20.9281 22.4323L20.9249 22.435L20.9243 22.4355L20.9243 22.4355L20.9242 22.4355L20.9247 22.4362L21.0606 22.6434L21.0033 22.5324C21.0606 22.6434 21.0607 22.6434 21.0607 22.6434L21.0609 22.6433L21.0616 22.6429L21.0639 22.6417L21.0724 22.6373L21.1042 22.6201C21.1317 22.6051 21.1714 22.583 21.2212 22.5541C21.3207 22.4963 21.4605 22.4112 21.6227 22.3018C21.9465 22.0835 22.3629 21.7658 22.7267 21.3711C23.0897 20.9773 23.4076 20.4989 23.5215 19.9588C23.6364 19.4135 23.5404 18.8178 23.0981 18.2024C23.0269 18.0985 22.957 17.9977 22.8887 17.8994C22.5827 17.4584 22.3121 17.0685 22.1301 16.6865C21.9106 16.2257 21.8287 15.7925 21.9752 15.3182C22.1238 14.8375 22.5128 14.2958 23.2799 13.6353C24.0458 12.9758 25.1778 12.2071 26.7945 11.2694L26.7014 11.0401L26.7318 11.1613C26.7014 11.0401 26.7014 11.0401 26.7012 11.0401L26.7008 11.0402L26.6993 11.0406L26.6934 11.0421L26.671 11.0479C26.6514 11.053 26.6226 11.0606 26.5853 11.0708C26.5108 11.0911 26.4025 11.1216 26.2666 11.1624C25.9948 11.244 25.6123 11.3667 25.1688 11.5318C24.2829 11.8615 23.1482 12.362 22.1647 13.0435C21.1837 13.7233 20.3358 14.5952 20.0538 15.6733C19.7694 16.7606 20.0686 18.0227 21.3067 19.4583Z" fill="#F58219" stroke="#F58219" stroke-width="0.25"/>
<path d="M26.0408 24.8182V35H23.5849V27.1151H23.5252L21.2482 28.5071V26.3793L23.7589 24.8182H26.0408ZM32.9998 24.8182V35H30.5439V27.1151H30.4842L28.2072 28.5071V26.3793L30.7179 24.8182H32.9998Z" fill="#F58219"/>
<path d="M26.0408 24.8182H26.5408V24.3182H26.0408V24.8182ZM26.0408 35V35.5H26.5408V35H26.0408ZM23.5849 35H23.0849V35.5H23.5849V35ZM23.5849 27.1151H24.0849V26.6151H23.5849V27.1151ZM23.5252 27.1151V26.6151H23.3845L23.2644 26.6885L23.5252 27.1151ZM21.2482 28.5071H20.7482V29.3988L21.509 28.9337L21.2482 28.5071ZM21.2482 26.3793L20.9842 25.9546L20.7482 26.1014V26.3793H21.2482ZM23.7589 24.8182V24.3182H23.6161L23.4949 24.3936L23.7589 24.8182ZM25.5408 24.8182V35H26.5408V24.8182H25.5408ZM26.0408 34.5H23.5849V35.5H26.0408V34.5ZM24.0849 35V27.1151H23.0849V35H24.0849ZM23.5849 26.6151H23.5252V27.6151H23.5849V26.6151ZM23.2644 26.6885L20.9874 28.0805L21.509 28.9337L23.786 27.5417L23.2644 26.6885ZM21.7482 28.5071V26.3793H20.7482V28.5071H21.7482ZM21.5122 26.8039L24.0229 25.2428L23.4949 24.3936L20.9842 25.9546L21.5122 26.8039ZM23.7589 25.3182H26.0408V24.3182H23.7589V25.3182ZM32.9998 24.8182H33.4998V24.3182H32.9998V24.8182ZM32.9998 35V35.5H33.4998V35H32.9998ZM30.5439 35H30.0439V35.5H30.5439V35ZM30.5439 27.1151H31.0439V26.6151H30.5439V27.1151ZM30.4842 27.1151V26.6151H30.3435L30.2234 26.6885L30.4842 27.1151ZM28.2072 28.5071H27.7072V29.3988L28.468 28.9337L28.2072 28.5071ZM28.2072 26.3793L27.9432 25.9546L27.7072 26.1014V26.3793H28.2072ZM30.7179 24.8182V24.3182H30.5751L30.4538 24.3936L30.7179 24.8182ZM32.4998 24.8182V35H33.4998V24.8182H32.4998ZM32.9998 34.5H30.5439V35.5H32.9998V34.5ZM31.0439 35V27.1151H30.0439V35H31.0439ZM30.5439 26.6151H30.4842V27.6151H30.5439V26.6151ZM30.2234 26.6885L27.9464 28.0805L28.468 28.9337L30.745 27.5417L30.2234 26.6885ZM28.7072 28.5071V26.3793H27.7072V28.5071H28.7072ZM28.4712 26.8039L30.9819 25.2428L30.4538 24.3936L27.9432 25.9546L28.4712 26.8039ZM30.7179 25.3182H32.9998V24.3182H30.7179V25.3182Z" fill="white" fill-opacity="0.25"/>
</g>
</g>
<rect x="1.24902" y="0.749939" width="38.5" height="38.5" rx="5.25" stroke="white" stroke-opacity="0.15" stroke-width="1.5"/>
<defs>
<filter id="filter0_d_40_468" x="2.49902" y="0.165558" width="36" height="39.0844" filterUnits="userSpaceOnUse" color-interpolation-filters="sRGB">
<feFlood flood-opacity="0" result="BackgroundImageFix"/>
<feColorMatrix in="SourceAlpha" type="matrix" values="0 0 0 0 0 0 0 0 0 0 0 0 0 0 0 0 0 0 127 0" result="hardAlpha"/>
<feOffset/>
<feGaussianBlur stdDeviation="2"/>
<feComposite in2="hardAlpha" operator="out"/>
<feColorMatrix type="matrix" values="0 0 0 0 0 0 0 0 0 0 0 0 0 0 0 0 0 0 0.25 0"/>
<feBlend mode="normal" in2="BackgroundImageFix" result="effect1_dropShadow_40_468"/>
<feBlend mode="normal" in="SourceGraphic" in2="effect1_dropShadow_40_468" result="shape"/>
</filter>
<linearGradient id="paint0_linear_40_468" x1="20.499" y1="-6.10351e-05" x2="20.499" y2="39.9999" gradientUnits="userSpaceOnUse">
<stop stop-color="#2F1A07"/>
<stop offset="1" stop-color="#111A21"/>
</linearGradient>
<clipPath id="clip0_40_468">
<rect x="0.499023" y="-6.10352e-05" width="40" height="40" rx="6" fill="white"/>
</clipPath>
</defs>
</svg>
