<svg width="41" height="40" viewBox="0 0 41 40" fill="none" xmlns="http://www.w3.org/2000/svg">
<rect x="0.499023" y="-6.10352e-05" width="40" height="40" rx="6" fill="url(#paint0_linear_3_772)"/>
<g filter="url(#filter0_d_3_772)">
<path d="M31.2528 6.92571C30.74 7.13492 29.8396 7.79569 28.7422 8.78294L29.3701 10.4951C30.0961 9.7312 30.8261 9.05782 31.54 8.49459C31.5923 8.45132 31.6244 8.42773 31.6244 8.42773C31.5979 8.45211 31.5665 8.4702 31.54 8.49459C31.3061 8.68102 30.597 9.28989 29.4778 10.5439C30.3674 10.6234 31.749 10.637 32.8847 10.6049C33.4808 8.84498 32.9491 7.92752 32.9491 7.92752C32.9491 7.92752 32.3091 6.49471 31.2528 6.92571Z" fill="url(#paint1_linear_3_772)"/>
<path d="M26.401 19.8809C26.2853 19.8872 26.1704 19.8879 26.0554 19.8887C26.1125 19.8911 26.176 19.8887 26.2338 19.8856C26.2909 19.8879 26.3488 19.8848 26.401 19.8809Z" fill="#BE202E"/>
<path opacity="0.35" d="M26.401 19.8809C26.2853 19.8872 26.1704 19.8879 26.0554 19.8887C26.1125 19.8911 26.176 19.8887 26.2338 19.8856C26.2909 19.8879 26.3488 19.8848 26.401 19.8809Z" fill="#BE202E"/>
<path d="M26.8972 18.5285C26.8916 18.5277 26.8916 18.5277 26.8972 18.5285C26.9141 18.5309 26.9317 18.5278 26.9486 18.5301C27.0234 18.5293 27.0981 18.5286 27.168 18.5215C27.0812 18.5262 26.9896 18.5246 26.8972 18.5285Z" fill="#BE202E"/>
<path opacity="0.35" d="M26.8972 18.5285C26.8916 18.5277 26.8916 18.5277 26.8972 18.5285C26.9141 18.5309 26.9317 18.5278 26.9486 18.5301C27.0234 18.5293 27.0981 18.5286 27.168 18.5215C27.0812 18.5262 26.9896 18.5246 26.8972 18.5285Z" fill="#BE202E"/>
<path d="M26.226 14.2475C26.5605 13.8054 26.8934 13.3743 27.2246 12.9542C27.5696 12.5192 27.9177 12.1014 28.2699 11.6955C28.2908 11.6703 28.3117 11.6452 28.3318 11.6255C28.6767 11.2298 29.0192 10.8506 29.365 10.4888L28.7363 8.78214C28.6631 8.85058 28.5843 8.91823 28.5047 8.99139C28.2129 9.25964 27.9066 9.54835 27.5914 9.85829C27.2361 10.2076 26.8718 10.5781 26.4932 10.9691C26.1474 11.3309 25.7929 11.714 25.4367 12.1082C25.1344 12.448 24.8313 12.7934 24.5265 13.1497C24.5129 13.1647 24.5056 13.1749 24.492 13.1899L25.2948 15.511C25.6092 15.0885 25.918 14.6653 26.226 14.2475Z" fill="url(#paint2_linear_3_772)"/>
<path d="M19.3372 25.7428C19.1329 26.1189 18.9214 26.5051 18.7139 26.9032C18.7131 26.9087 18.7067 26.9134 18.7059 26.919C18.6745 26.9764 18.644 27.0283 18.6182 27.0865C18.4759 27.3532 18.3544 27.5947 18.0681 28.1392C18.3783 28.3343 18.5863 28.7569 18.7694 29.2321C18.8081 28.771 18.6797 28.3147 18.3624 27.9331C19.9777 28.2323 21.4429 28.0271 22.3338 26.9604C22.411 26.8644 22.489 26.7629 22.5622 26.6551C22.1706 27.0162 21.7398 27.1357 20.9755 26.9838L20.9699 26.983L20.9755 26.9838C22.1788 26.6464 22.8171 26.2468 23.433 25.5294C23.5785 25.3587 23.7264 25.1714 23.8776 24.9622C22.7417 25.8204 21.553 25.9406 20.3749 25.5565L19.4546 25.5288C19.4152 25.602 19.3766 25.6696 19.3372 25.7428Z" fill="url(#paint3_linear_3_772)"/>
<path d="M20.0503 23.814C20.3197 23.3459 20.5956 22.8731 20.8722 22.3948C21.14 21.9377 21.4134 21.4814 21.6933 21.0204C21.9731 20.5594 22.2586 20.0992 22.5441 19.639C22.8368 19.1685 23.1343 18.7043 23.4375 18.241C23.7342 17.7823 24.0422 17.3252 24.3438 16.8729C24.4539 16.7085 24.5633 16.5496 24.6791 16.3859C24.8688 16.109 25.0642 15.8329 25.2596 15.5567C25.2677 15.541 25.2814 15.5261 25.2894 15.5103L24.497 13.1963C24.476 13.2215 24.4543 13.2522 24.4278 13.2765C24.1078 13.6589 23.7814 14.0459 23.4646 14.4456C23.1413 14.8499 22.8229 15.2606 22.5085 15.683C22.244 16.0394 21.985 16.3966 21.7253 16.7592C21.6747 16.8308 21.6232 16.9079 21.5725 16.9795C21.2589 17.4358 20.9638 17.8834 20.7001 18.313C20.3993 18.7992 20.1299 19.2672 19.887 19.711C19.7294 20.0036 19.579 20.2861 19.4415 20.559C19.3273 20.7903 19.2179 21.0279 19.1093 21.26C18.8567 21.8092 18.6323 22.3622 18.4304 22.9184L19.2373 25.2514C19.4407 24.8808 19.6555 24.5119 19.8662 24.1311C19.9273 24.0272 19.9884 23.9234 20.0503 23.814Z" fill="url(#paint4_linear_3_772)"/>
<path d="M18.4021 22.9929C18.1599 23.6671 17.9572 24.3469 17.805 25.0337C17.8018 25.0558 17.7922 25.0825 17.7889 25.1045C17.5207 24.505 16.6546 23.8329 16.6594 23.8392C17.1943 24.892 17.5676 25.911 17.5046 26.8519C17.1341 26.8731 16.6543 26.6992 16.116 26.4159C16.6341 27.0336 17.0568 27.2445 17.2256 27.3074C16.675 27.2641 16.0529 27.5535 15.417 27.8973C16.3044 27.6787 17.0044 27.6418 17.4721 27.8197C16.3896 29.8431 15.2741 32.0924 14.1376 34.4848C14.3835 34.4518 14.5476 34.3118 14.6569 34.1135C14.858 33.6808 16.21 30.8352 18.2102 27.1306C18.2657 27.0259 18.3268 26.9221 18.3831 26.8119C18.3992 26.7805 18.4144 26.7545 18.4305 26.723C18.642 26.3368 18.8608 25.9403 19.0868 25.5335C19.1406 25.4399 19.1881 25.351 19.242 25.2574L19.2428 25.2519L18.4359 22.919C18.4206 22.9449 18.4118 22.9662 18.4021 22.9929Z" fill="url(#paint5_linear_3_772)"/>
<path d="M25.4474 15.7237C25.4039 15.7851 25.3669 15.8417 25.3235 15.9031C25.1989 16.088 25.0686 16.2721 24.9432 16.4624C24.8041 16.6678 24.6641 16.8786 24.5178 17.0942C24.4446 17.2019 24.3714 17.3097 24.2975 17.423C24.0763 17.7574 23.8536 18.1027 23.6236 18.4583C23.3413 18.8965 23.0567 19.3512 22.7631 19.8272C22.4849 20.2772 22.1978 20.7484 21.9091 21.2307C21.6349 21.6925 21.3534 22.1645 21.0687 22.6586C20.8154 23.0952 20.5597 23.5483 20.2967 24.0117C20.2822 24.0322 20.2726 24.0589 20.2581 24.0794C20.0016 24.538 19.737 25.0124 19.4708 25.4978C19.4635 25.508 19.4563 25.5183 19.4547 25.5293L20.3749 25.557C20.3589 25.5491 20.342 25.5467 20.3203 25.5381C21.4254 25.5579 22.9815 24.9665 24.0532 24.1161C24.5468 23.7244 25.0123 23.25 25.4634 22.6781C25.8011 22.2533 26.1235 21.7757 26.4492 21.2368C26.7299 20.7703 27.0114 20.2589 27.288 19.7019C27.022 19.794 26.7214 19.8474 26.3967 19.8694C26.3388 19.8725 26.2809 19.8757 26.2231 19.8788C26.1652 19.882 26.1081 19.8796 26.0447 19.8819C27.1129 19.6437 27.8557 19.0002 28.4491 18.1616C28.159 18.3008 27.6919 18.4715 27.1575 18.5147C27.0875 18.5217 27.0128 18.5225 26.938 18.5233C26.9212 18.5209 26.9035 18.5241 26.881 18.5209C27.2507 18.4266 27.5722 18.3086 27.8592 18.1521C27.9211 18.1214 27.9782 18.0844 28.0353 18.0475C28.1237 17.9924 28.2073 17.931 28.2909 17.8697C28.3432 17.8264 28.3946 17.7887 28.4469 17.7454C28.5651 17.6439 28.6792 17.5306 28.7837 17.4048C28.8183 17.3646 28.8521 17.33 28.881 17.2891C28.9245 17.2278 28.9671 17.1719 29.0041 17.1153C29.185 16.8596 29.3338 16.6275 29.456 16.4198C29.5171 16.316 29.571 16.2223 29.6184 16.1334C29.6353 16.0965 29.657 16.0658 29.6739 16.0288C29.723 15.9289 29.7704 15.84 29.805 15.7605C29.8565 15.6441 29.8935 15.5481 29.9152 15.4781C29.8775 15.5009 29.8341 15.5229 29.7858 15.5387C29.4563 15.6724 28.9089 15.7643 28.4757 15.7824L29.3212 15.8108L28.4757 15.7824C28.4701 15.7816 28.4644 15.7808 28.458 15.7855C28.4178 15.7855 28.372 15.7847 28.3254 15.7894C28.3318 15.7847 28.3431 15.7863 28.3495 15.7816L25.4586 15.686C25.461 15.7088 25.4538 15.719 25.4474 15.7237Z" fill="url(#paint6_linear_3_772)"/>
<path d="M29.4776 10.5442C29.1689 10.8888 28.8296 11.2853 28.4605 11.7282C28.4396 11.7533 28.4195 11.773 28.4042 11.799C28.0834 12.1868 27.7457 12.6116 27.3839 13.0836C27.0719 13.4896 26.7446 13.9215 26.3997 14.3958C26.0989 14.8034 25.7942 15.2384 25.4685 15.6986L28.3594 15.7942C29.2412 15.5355 29.6616 15.2515 30.0933 14.8118C30.2083 14.693 30.3249 14.5632 30.4423 14.4279C30.8001 14.0228 31.1587 13.5728 31.4836 13.1181C31.8004 12.6791 32.0882 12.2417 32.3126 11.8459C32.459 11.5911 32.5796 11.355 32.6737 11.1434C32.7526 10.9577 32.8185 10.7815 32.8781 10.61C31.7488 10.6374 30.3673 10.6238 29.4776 10.5442Z" fill="url(#paint7_linear_3_772)"/>
<path d="M26.233 19.8915C26.1751 19.8947 26.1181 19.8923 26.0546 19.8947C26.1124 19.8915 26.1703 19.8884 26.233 19.8915Z" fill="#BE202E"/>
<path opacity="0.35" d="M26.233 19.8915C26.1751 19.8947 26.1181 19.8923 26.0546 19.8947C26.1124 19.8915 26.1703 19.8884 26.233 19.8915Z" fill="#BE202E"/>
<path d="M26.233 19.8915C26.1751 19.8947 26.1181 19.8923 26.0546 19.8947C26.1124 19.8915 26.1703 19.8884 26.233 19.8915Z" fill="url(#paint8_linear_3_772)"/>
<path d="M26.8918 18.5278C26.9088 18.5302 26.9266 18.5271 26.9492 18.5303C26.9322 18.5279 26.9144 18.531 26.8918 18.5278Z" fill="#BE202E"/>
<path opacity="0.35" d="M26.8918 18.5278C26.9088 18.5302 26.9266 18.5271 26.9492 18.5303C26.9322 18.5279 26.9144 18.531 26.8918 18.5278Z" fill="#BE202E"/>
<path d="M26.8918 18.5278C26.9088 18.5302 26.9266 18.5271 26.9492 18.5303C26.9322 18.5279 26.9144 18.531 26.8918 18.5278Z" fill="url(#paint9_linear_3_772)"/>
<path d="M11.0535 6.30969C10.8764 6.76115 10.7582 7.73347 10.7337 9.02993L12.2439 9.68242C12.1873 8.75692 12.1927 7.88431 12.2605 7.0893C12.2642 7.02986 12.2684 6.99514 12.2684 6.99514C12.2681 7.0268 12.2608 7.05764 12.2605 7.0893C12.2395 7.35097 12.2046 8.17089 12.342 9.64441C12.94 9.13219 13.7965 8.2694 14.472 7.5337C13.6813 6.08014 12.7523 5.85361 12.7523 5.85361C12.7523 5.85361 11.4182 5.37981 11.0535 6.30969Z" fill="url(#paint10_linear_3_772)"/>
<path d="M16.5897 17.3021C16.5228 17.3789 16.4528 17.4518 16.3828 17.5248C16.4194 17.4902 16.4568 17.4488 16.4902 17.4104C16.5268 17.3758 16.5602 17.3374 16.5897 17.3021Z" fill="#BE202E"/>
<path opacity="0.35" d="M16.5897 17.3021C16.5228 17.3789 16.4528 17.4518 16.3828 17.5248C16.4194 17.4902 16.4568 17.4488 16.4902 17.4104C16.5268 17.3758 16.5602 17.3374 16.5897 17.3021Z" fill="#BE202E"/>
<path d="M16.0055 16.161C16.0015 16.1641 16.0015 16.1641 16.0055 16.161C16.0174 16.1518 16.0262 16.1387 16.0381 16.1295C16.0834 16.0819 16.1288 16.0343 16.167 15.9859C16.1169 16.0435 16.0596 16.1003 16.0055 16.161Z" fill="#BE202E"/>
<path opacity="0.35" d="M16.0055 16.161C16.0015 16.1641 16.0015 16.1641 16.0055 16.161C16.0174 16.1518 16.0262 16.1387 16.0381 16.1295C16.0834 16.0819 16.1288 16.0343 16.167 15.9859C16.1169 16.0435 16.0596 16.1003 16.0055 16.161Z" fill="#BE202E"/>
<path d="M12.7811 13.9629C12.6958 13.4813 12.6168 13.0074 12.544 12.5413C12.4697 12.0574 12.4088 11.5821 12.3581 11.1115C12.3544 11.0829 12.3507 11.0543 12.3501 11.0296C12.3017 10.5698 12.2626 10.1217 12.2369 9.68212L10.7299 9.0335C10.73 9.12154 10.7261 9.21264 10.7254 9.30762C10.7226 9.65589 10.7244 10.0258 10.7347 10.4143C10.7462 10.8523 10.7663 11.3088 10.7909 11.787C10.8166 12.2265 10.8508 12.6847 10.8913 13.1506C10.9291 13.5493 10.9701 13.9519 11.0173 14.3622C11.0188 14.38 11.021 14.3908 11.0225 14.4086L13.0401 15.3237C12.9554 14.8668 12.8667 14.4129 12.7811 13.9629Z" fill="url(#paint11_linear_3_772)"/>
<path d="M16.1084 25.3453C16.2301 25.7043 16.3542 26.0742 16.4885 26.4488C16.4916 26.4527 16.4908 26.4596 16.4939 26.4635C16.5124 26.5185 16.5277 26.5695 16.5502 26.6214C16.6381 26.8745 16.7223 27.0989 16.9044 27.6128C17.2229 27.5367 17.6281 27.6643 18.0527 27.8399C17.7735 27.5332 17.3949 27.3347 16.9495 27.3011C18.137 26.4658 18.901 25.4163 18.7466 24.2014C18.7309 24.094 18.712 23.9827 18.6861 23.8705C18.6832 24.3385 18.4974 24.6833 17.9288 25.0722L17.9248 25.0752L17.9288 25.0722C18.4452 24.1069 18.5742 23.4598 18.4806 22.6321C18.4577 22.4358 18.4254 22.2279 18.3807 22.0044C18.2478 23.2462 17.5975 24.0693 16.6225 24.5769L16.0398 25.1402C16.0637 25.2098 16.0845 25.2756 16.1084 25.3453Z" fill="url(#paint12_linear_3_772)"/>
<path d="M15.2786 23.7149C15.1363 23.2584 14.9949 22.7949 14.8503 22.3276C14.7142 21.8789 14.5821 21.4271 14.4509 20.9683C14.3197 20.5096 14.1924 20.0478 14.0651 19.586C13.9355 19.1133 13.8131 18.6415 13.6946 18.1666C13.5753 17.6987 13.4639 17.2246 13.3516 16.7575C13.3111 16.5874 13.2738 16.4211 13.2373 16.2479C13.1718 15.9587 13.1102 15.6664 13.0486 15.3741C13.0432 15.3594 13.0418 15.3416 13.0364 15.3269L11.0298 14.4096C11.0335 14.4382 11.0404 14.4707 11.0401 14.5023C11.095 14.9382 11.1491 15.3811 11.2174 15.8255C11.2848 16.2769 11.3593 16.7291 11.444 17.1861C11.5159 17.5711 11.5917 17.953 11.6707 18.3389C11.6866 18.4146 11.7057 18.4943 11.7217 18.5701C11.8291 19.0472 11.9422 19.5074 12.0627 19.9367C12.1976 20.4241 12.3399 20.8806 12.4825 21.3054C12.5781 21.584 12.6714 21.8518 12.7664 22.1056C12.8483 22.3193 12.9373 22.5337 13.0232 22.7443C13.2291 23.2398 13.4548 23.72 13.6964 24.1879L15.7243 25.1077C15.6056 24.7525 15.4949 24.3912 15.374 24.0251C15.3432 23.923 15.3125 23.8209 15.2786 23.7149Z" fill="url(#paint13_linear_3_772)"/>
<path d="M13.728 24.251C14.0225 24.8165 14.3447 25.3606 14.7027 25.8771C14.7152 25.8926 14.7268 25.9151 14.7393 25.9306C14.1808 25.7326 13.2079 25.8672 13.215 25.868C14.2349 26.1754 15.1334 26.5639 15.7131 27.1799C15.4997 27.4265 15.0911 27.6224 14.5747 27.7884C15.2984 27.8399 15.6963 27.7026 15.8412 27.6347C15.475 27.9553 15.2835 28.5248 15.1193 29.1362C15.52 28.4429 15.9252 27.9789 16.329 27.7929C16.9945 29.7145 17.7881 31.7951 18.6629 33.9767C18.7921 33.8014 18.8007 33.6122 18.7375 33.4219C18.5765 33.0301 17.5362 30.4352 16.3289 26.9056C16.2942 26.8065 16.2635 26.7044 16.2257 26.6015C16.2148 26.5721 16.2072 26.5465 16.1964 26.5171C16.0723 26.1472 15.9459 25.7665 15.8173 25.375C15.7889 25.2837 15.7596 25.1993 15.7311 25.108L15.728 25.1041L13.7001 24.1844C13.7078 24.2099 13.7163 24.2285 13.728 24.251Z" fill="url(#paint14_linear_3_772)"/>
<path d="M13.2734 15.3571C13.2871 15.422 13.3016 15.48 13.3153 15.545C13.3603 15.7368 13.4014 15.9316 13.4495 16.1273C13.4991 16.3408 13.5518 16.5581 13.6037 16.7823C13.6296 16.8945 13.6555 17.0066 13.6846 17.1226C13.7686 17.4668 13.8589 17.8187 13.9515 18.1815C14.0662 18.6278 14.1904 19.0857 14.3231 19.5622C14.4481 20.0132 14.5816 20.4828 14.7214 20.9601C14.8566 21.4158 14.9941 21.8823 15.1441 22.3643C15.2756 22.7914 15.4164 23.2301 15.5596 23.6797C15.5641 23.7013 15.5758 23.7238 15.5804 23.7454C15.7244 24.188 15.8737 24.6453 16.0294 25.1104C16.0317 25.1212 16.034 25.1321 16.0402 25.1398L16.6229 24.5766C16.6079 24.5819 16.596 24.5911 16.577 24.5994C17.2679 23.9148 17.8339 22.5714 17.9325 21.3751C17.9779 20.824 17.9518 20.24 17.8527 19.6053C17.7807 19.1323 17.6648 18.6366 17.5105 18.1012C17.3761 17.6386 17.2128 17.148 17.0165 16.6325C16.9138 16.8566 16.7645 17.0789 16.5798 17.297C16.5463 17.3355 16.5129 17.3739 16.4794 17.4123C16.446 17.4507 16.4095 17.4852 16.372 17.5267C16.8708 16.7073 16.9037 15.8449 16.7167 14.9572C16.6301 15.2254 16.4558 15.6244 16.1563 15.9878C16.1181 16.0362 16.0727 16.0838 16.0274 16.1314C16.0155 16.1406 16.0067 16.1537 15.9908 16.166C16.1556 15.8751 16.2753 15.6001 16.3485 15.3233C16.3663 15.2655 16.3771 15.2069 16.3878 15.1482C16.4059 15.0588 16.4168 14.9685 16.4278 14.8782C16.4314 14.8188 16.4382 14.7632 16.4418 14.7038C16.4476 14.5671 16.4432 14.4258 16.4246 14.2828C16.4195 14.2364 16.4175 14.1939 16.4083 14.1506C16.3947 14.0857 16.3841 14.0246 16.3696 13.9666C16.3126 13.696 16.2513 13.46 16.1898 13.2558C16.1591 13.1537 16.1306 13.0624 16.1013 12.978C16.0874 12.9447 16.0806 12.9123 16.0666 12.879C16.0311 12.7868 16.0018 12.7025 15.9708 12.632C15.9258 12.5283 15.8855 12.4462 15.8528 12.3896C15.8446 12.4274 15.8325 12.4682 15.8132 12.5083C15.6989 12.7979 15.4236 13.1994 15.1697 13.4836L15.707 12.9679L15.1697 13.4836C15.1657 13.4866 15.1617 13.4897 15.1609 13.4966C15.1362 13.522 15.1076 13.5504 15.0821 13.5827C15.0829 13.5757 15.0909 13.5696 15.0917 13.5626L13.2555 15.3268C13.272 15.3393 13.2743 15.3501 13.2734 15.3571Z" fill="url(#paint15_linear_3_772)"/>
<path d="M12.342 9.64476C12.379 10.0504 12.4314 10.5071 12.496 11.011C12.4997 11.0396 12.5003 11.0643 12.508 11.0899C12.566 11.5296 12.638 12.0027 12.7262 12.5199C12.8015 12.9652 12.8845 13.436 12.9846 13.9439C13.0679 14.3831 13.1668 14.8416 13.2694 15.3288L15.1056 13.5646C15.4765 12.8502 15.5479 12.4112 15.5238 11.8697C15.5162 11.7245 15.5025 11.5715 15.4856 11.4146C15.4388 10.9409 15.3632 10.4393 15.2637 9.95603C15.1696 9.48747 15.0588 9.03812 14.9364 8.65433C14.8587 8.40597 14.7776 8.18538 14.6963 7.99645C14.6227 7.83306 14.5473 7.68356 14.4712 7.541C13.7964 8.26975 12.94 9.13254 12.342 9.64476Z" fill="url(#paint16_linear_3_772)"/>
<path d="M16.4931 17.4142C16.4597 17.4526 16.4231 17.4871 16.3857 17.5286C16.4192 17.4902 16.4526 17.4518 16.4931 17.4142Z" fill="#BE202E"/>
<path opacity="0.35" d="M16.4931 17.4142C16.4597 17.4526 16.4231 17.4871 16.3857 17.5286C16.4192 17.4902 16.4526 17.4518 16.4931 17.4142Z" fill="#BE202E"/>
<path d="M16.4931 17.4142C16.4597 17.4526 16.4231 17.4871 16.3857 17.5286C16.4192 17.4902 16.4526 17.4518 16.4931 17.4142Z" fill="url(#paint17_linear_3_772)"/>
<path d="M16.0016 16.1639C16.0134 16.1548 16.022 16.1419 16.0377 16.1298C16.0259 16.1389 16.0173 16.1518 16.0016 16.1639Z" fill="#BE202E"/>
<path opacity="0.35" d="M16.0016 16.1639C16.0134 16.1548 16.022 16.1419 16.0377 16.1298C16.0259 16.1389 16.0173 16.1518 16.0016 16.1639Z" fill="#BE202E"/>
<path d="M16.0016 16.1639C16.0134 16.1548 16.022 16.1419 16.0377 16.1298C16.0259 16.1389 16.0173 16.1518 16.0016 16.1639Z" fill="url(#paint18_linear_3_772)"/>
</g>
<rect x="1.24902" y="0.749939" width="38.5" height="38.5" rx="5.25" stroke="white" stroke-opacity="0.15" stroke-width="1.5"/>
<defs>
<filter id="filter0_d_3_772" x="2.49902" y="1.73291" width="36" height="36.7519" filterUnits="userSpaceOnUse" color-interpolation-filters="sRGB">
<feFlood flood-opacity="0" result="BackgroundImageFix"/>
<feColorMatrix in="SourceAlpha" type="matrix" values="0 0 0 0 0 0 0 0 0 0 0 0 0 0 0 0 0 0 127 0" result="hardAlpha"/>
<feOffset/>
<feGaussianBlur stdDeviation="2"/>
<feComposite in2="hardAlpha" operator="out"/>
<feColorMatrix type="matrix" values="0 0 0 0 0 0 0 0 0 0 0 0 0 0 0 0 0 0 0.25 0"/>
<feBlend mode="normal" in2="BackgroundImageFix" result="effect1_dropShadow_3_772"/>
<feBlend mode="normal" in="SourceGraphic" in2="effect1_dropShadow_3_772" result="shape"/>
</filter>
<linearGradient id="paint0_linear_3_772" x1="20.499" y1="-6.10351e-05" x2="20.499" y2="39.9999" gradientUnits="userSpaceOnUse">
<stop stop-color="#352008"/>
<stop offset="0.5" stop-color="#30080D"/>
<stop offset="1" stop-color="#12112E"/>
</linearGradient>
<linearGradient id="paint1_linear_3_772" x1="29.4484" y1="9.07789" x2="36.0032" y2="8.2097" gradientUnits="userSpaceOnUse">
<stop stop-color="#F69923"/>
<stop offset="0.3123" stop-color="#F79A23"/>
<stop offset="0.8383" stop-color="#E97826"/>
</linearGradient>
<linearGradient id="paint2_linear_3_772" x1="11.5861" y1="34.861" x2="27.8588" y2="9.40174" gradientUnits="userSpaceOnUse">
<stop offset="0.3233" stop-color="#9E2064"/>
<stop offset="0.6302" stop-color="#C92037"/>
<stop offset="0.7514" stop-color="#CD2335"/>
<stop offset="1" stop-color="#E97826"/>
</linearGradient>
<linearGradient id="paint3_linear_3_772" x1="16.186" y1="33.4722" x2="25.8829" y2="18.3009" gradientUnits="userSpaceOnUse">
<stop stop-color="#282662"/>
<stop offset="0.0954839" stop-color="#662E8D"/>
<stop offset="0.7882" stop-color="#9F2064"/>
<stop offset="0.9487" stop-color="#CD2032"/>
</linearGradient>
<linearGradient id="paint4_linear_3_772" x1="12.289" y1="33.2962" x2="28.5617" y2="7.83689" gradientUnits="userSpaceOnUse">
<stop offset="0.3233" stop-color="#9E2064"/>
<stop offset="0.6302" stop-color="#C92037"/>
<stop offset="0.7514" stop-color="#CD2335"/>
<stop offset="1" stop-color="#E97826"/>
</linearGradient>
<linearGradient id="paint5_linear_3_772" x1="13.8594" y1="31.6844" x2="22.4112" y2="18.3048" gradientUnits="userSpaceOnUse">
<stop stop-color="#282662"/>
<stop offset="0.0954839" stop-color="#662E8D"/>
<stop offset="0.7882" stop-color="#9F2064"/>
<stop offset="0.9487" stop-color="#CD2032"/>
</linearGradient>
<linearGradient id="paint6_linear_3_772" x1="14.9463" y1="34.995" x2="31.219" y2="9.5357" gradientUnits="userSpaceOnUse">
<stop offset="0.3233" stop-color="#9E2064"/>
<stop offset="0.6302" stop-color="#C92037"/>
<stop offset="0.7514" stop-color="#CD2335"/>
<stop offset="1" stop-color="#E97826"/>
</linearGradient>
<linearGradient id="paint7_linear_3_772" x1="13.7742" y1="36.4703" x2="30.0469" y2="11.011" gradientUnits="userSpaceOnUse">
<stop offset="0.3233" stop-color="#9E2064"/>
<stop offset="0.6302" stop-color="#C92037"/>
<stop offset="0.7514" stop-color="#CD2335"/>
<stop offset="1" stop-color="#E97826"/>
</linearGradient>
<linearGradient id="paint8_linear_3_772" x1="15.737" y1="35.5004" x2="32.0098" y2="10.0411" gradientUnits="userSpaceOnUse">
<stop offset="0.3233" stop-color="#9E2064"/>
<stop offset="0.6302" stop-color="#C92037"/>
<stop offset="0.7514" stop-color="#CD2335"/>
<stop offset="1" stop-color="#E97826"/>
</linearGradient>
<linearGradient id="paint9_linear_3_772" x1="15.5872" y1="35.4347" x2="31.8135" y2="9.90259" gradientUnits="userSpaceOnUse">
<stop offset="0.3233" stop-color="#9E2064"/>
<stop offset="0.6302" stop-color="#C92037"/>
<stop offset="0.7514" stop-color="#CD2335"/>
<stop offset="1" stop-color="#E97826"/>
</linearGradient>
<linearGradient id="paint10_linear_3_772" x1="11.3607" y1="8.76525" x2="14.7389" y2="4.0489" gradientUnits="userSpaceOnUse">
<stop stop-color="#F69923"/>
<stop offset="0.3123" stop-color="#F79A23"/>
<stop offset="0.8383" stop-color="#E97826"/>
</linearGradient>
<linearGradient id="paint11_linear_3_772" x1="17.3449" y1="35.8159" x2="11.3243" y2="9.79825" gradientUnits="userSpaceOnUse">
<stop offset="0.3233" stop-color="#9E2064"/>
<stop offset="0.6302" stop-color="#C92037"/>
<stop offset="0.7514" stop-color="#CD2335"/>
<stop offset="1" stop-color="#E97826"/>
</linearGradient>
<linearGradient id="paint12_linear_3_772" x1="19.254" y1="32.0651" x2="15.6663" y2="16.5611" gradientUnits="userSpaceOnUse">
<stop stop-color="#282662"/>
<stop offset="0.0954839" stop-color="#662E8D"/>
<stop offset="0.7882" stop-color="#9F2064"/>
<stop offset="0.9487" stop-color="#CD2032"/>
</linearGradient>
<linearGradient id="paint13_linear_3_772" x1="16.748" y1="34.4148" x2="10.7273" y2="8.39709" gradientUnits="userSpaceOnUse">
<stop offset="0.3233" stop-color="#9E2064"/>
<stop offset="0.6302" stop-color="#C92037"/>
<stop offset="0.7514" stop-color="#CD2335"/>
<stop offset="1" stop-color="#E97826"/>
</linearGradient>
<linearGradient id="paint14_linear_3_772" x1="16.6522" y1="32.4373" x2="13.4882" y2="18.7643" gradientUnits="userSpaceOnUse">
<stop stop-color="#282662"/>
<stop offset="0.0954839" stop-color="#662E8D"/>
<stop offset="0.7882" stop-color="#9F2064"/>
<stop offset="0.9487" stop-color="#CD2032"/>
</linearGradient>
<linearGradient id="paint15_linear_3_772" x1="19.4942" y1="33.7786" x2="13.4736" y2="7.76092" gradientUnits="userSpaceOnUse">
<stop offset="0.3233" stop-color="#9E2064"/>
<stop offset="0.6302" stop-color="#C92037"/>
<stop offset="0.7514" stop-color="#CD2335"/>
<stop offset="1" stop-color="#E97826"/>
</linearGradient>
<linearGradient id="paint16_linear_3_772" x1="19.7441" y1="35.4214" x2="13.7235" y2="9.40371" gradientUnits="userSpaceOnUse">
<stop offset="0.3233" stop-color="#9E2064"/>
<stop offset="0.6302" stop-color="#C92037"/>
<stop offset="0.7514" stop-color="#CD2335"/>
<stop offset="1" stop-color="#E97826"/>
</linearGradient>
<linearGradient id="paint17_linear_3_772" x1="20.3106" y1="33.5899" x2="14.29" y2="7.5722" gradientUnits="userSpaceOnUse">
<stop offset="0.3233" stop-color="#9E2064"/>
<stop offset="0.6302" stop-color="#C92037"/>
<stop offset="0.7514" stop-color="#CD2335"/>
<stop offset="1" stop-color="#E97826"/>
</linearGradient>
<linearGradient id="paint18_linear_3_772" x1="20.222" y1="33.4486" x2="14.3145" y2="7.64624" gradientUnits="userSpaceOnUse">
<stop offset="0.3233" stop-color="#9E2064"/>
<stop offset="0.6302" stop-color="#C92037"/>
<stop offset="0.7514" stop-color="#CD2335"/>
<stop offset="1" stop-color="#E97826"/>
</linearGradient>
</defs>
</svg>
