<svg width="41" height="40" viewBox="0 0 41 40" fill="none" xmlns="http://www.w3.org/2000/svg">
<g filter="url(#filter0_d_2_1192)">
<path d="M9.41683 8.90667C9.98128 8.31462 10.6581 7.84106 11.4077 7.51368C12.1573 7.1863 12.9647 7.01167 13.7826 7L27.4324 7C28.9166 7 30.3032 7.65 31.5815 8.90667C32.1762 9.4491 32.6531 10.1078 32.9829 10.842C33.3128 11.5762 33.4884 12.3702 33.499 13.175V27.0092C33.499 28.4608 32.8924 29.8042 31.679 31.05C31.1098 31.6507 30.4269 32.1324 29.6701 32.4672C28.9132 32.8019 28.0974 32.983 27.2699 33H13.8584C12.2219 32.984 10.6455 32.3803 9.41683 31.2992C8.24685 30.2375 7.60769 28.6992 7.49936 26.6408V13.2075C7.49049 12.3948 7.65722 11.5898 7.98816 10.8476C8.3191 10.1053 8.80643 9.44323 9.41683 8.90667V8.90667ZM16.1876 17.8983L24.7783 28.7967H27.0749C27.6058 28.7317 28.0283 28.58 28.3424 28.3308C28.6674 28.0817 28.8841 27.7242 29.0357 27.2475V21.8958C29.1224 20.8667 29.7616 20.2275 30.9532 20C29.7616 19.5667 29.1224 18.895 29.0357 17.985V12.8717C28.9057 12.395 28.6783 12.005 28.3424 11.7125C28.0163 11.4163 27.6009 11.2371 27.1616 11.2033H24.8325V22.2533L16.1876 11.1925H13.7718C13.1651 11.3008 12.721 11.5175 12.4176 11.8425C12.1143 12.1675 11.9193 12.6875 11.8326 13.3917V18.6458C11.4535 19.3933 10.8576 19.8375 10.0452 20C10.966 20.1733 11.5618 20.6608 11.8326 21.4733V26.6408C11.8543 27.2367 12.0493 27.7242 12.4176 28.125C12.7751 28.515 13.176 28.6992 13.6093 28.6667H16.1659L16.1876 17.8983Z" fill="#3655FF"/>
</g>
<rect x="1.24902" y="0.749939" width="38.5" height="38.5" rx="5.25" stroke="white" stroke-opacity="0.15" stroke-width="1.5"/>
<defs>
<filter id="filter0_d_2_1192" x="2.49902" y="1.99994" width="36" height="36" filterUnits="userSpaceOnUse" color-interpolation-filters="sRGB">
<feFlood flood-opacity="0" result="BackgroundImageFix"/>
<feColorMatrix in="SourceAlpha" type="matrix" values="0 0 0 0 0 0 0 0 0 0 0 0 0 0 0 0 0 0 127 0" result="hardAlpha"/>
<feOffset/>
<feGaussianBlur stdDeviation="2"/>
<feComposite in2="hardAlpha" operator="out"/>
<feColorMatrix type="matrix" values="0 0 0 0 0 0 0 0 0 0 0 0 0 0 0 0 0 0 0.25 0"/>
<feBlend mode="normal" in2="BackgroundImageFix" result="effect1_dropShadow_2_1192"/>
<feBlend mode="normal" in="SourceGraphic" in2="effect1_dropShadow_2_1192" result="shape"/>
</filter>
</defs>
</svg>
