<svg width="41" height="40" viewBox="0 0 41 40" fill="none" xmlns="http://www.w3.org/2000/svg">
<rect x="0.499023" y="-0.00012207" width="40" height="40" rx="6" fill="url(#paint0_linear_2_1245)"/>
<g filter="url(#filter0_d_2_1245)">
<path d="M20.0002 5.99988C19.7945 5.99988 19.6387 6.00139 19.582 6.00769C19.5218 6.01388 19.3301 6.03219 19.1578 6.04596C15.1808 6.40448 11.4558 8.54998 9.0964 11.8476C7.7826 13.6812 6.94236 15.7609 6.62502 17.964C6.51279 18.7329 6.49902 18.96 6.49902 20.0027C6.49902 21.0453 6.51302 21.2725 6.62502 22.0415C7.3857 27.2985 11.1273 31.7154 16.2019 33.3518C17.1106 33.6447 18.0686 33.8445 19.1579 33.9649C19.5821 34.0115 21.4159 34.0115 21.8401 33.9649C23.7205 33.7569 25.3135 33.2917 26.8845 32.4899C27.1254 32.3667 27.1719 32.3339 27.1392 32.3063C27.1172 32.2901 26.0907 30.9136 24.8591 29.2497L22.6203 26.2257L19.8148 22.0743C18.2711 19.7919 17.0011 17.9257 16.9901 17.9257C16.9792 17.9226 16.9683 19.7675 16.9627 22.0195C16.9549 25.9631 16.9519 26.1217 16.9025 26.2148C16.8313 26.349 16.7765 26.4036 16.6617 26.4638C16.5742 26.5074 16.4974 26.5157 16.0842 26.5157H15.6105L15.4848 26.4364C15.4068 26.3875 15.3434 26.3185 15.3014 26.2366L15.2438 26.1134L15.25 20.6266L15.2578 15.137L15.3425 15.0302C15.3864 14.9727 15.4795 14.899 15.5451 14.8634C15.6573 14.8086 15.7012 14.8031 16.1746 14.8031C16.7331 14.8031 16.8261 14.8249 16.9711 14.9836C17.0123 15.0275 18.5313 17.3154 20.3486 20.0712C22.1887 22.8605 24.0299 25.649 25.8722 28.4369L28.0891 31.7948L28.2011 31.7209C29.1948 31.075 30.2457 30.1555 31.0777 29.1978C32.8486 27.1644 33.9901 24.6851 34.3733 22.0414C34.4854 21.2725 34.499 21.0451 34.499 20.0027C34.499 18.96 34.485 18.7329 34.3733 17.9638C33.6123 12.7068 29.8708 8.28993 24.7964 6.65356C23.9013 6.36341 22.9488 6.16356 21.8814 6.04316C21.6843 6.02263 20.6173 6.00046 20.0004 5.99999L20.0002 5.99988ZM24.7468 14.4197C25.152 14.4197 25.223 14.4259 25.3134 14.4745C25.4449 14.5401 25.5514 14.6661 25.5899 14.7974C25.6116 14.8685 25.6172 16.3902 25.6116 19.8192L25.6038 24.7396L24.7363 23.4096L23.8658 22.0796V18.5026C23.8658 16.1902 23.8767 14.8902 23.8931 14.8273C23.9369 14.6742 24.0327 14.5536 24.1641 14.4826C24.2763 14.425 24.3173 14.4196 24.7471 14.4196L24.7468 14.4197Z" fill="white"/>
</g>
<rect x="1.24902" y="0.749878" width="38.5" height="38.5" rx="5.25" stroke="white" stroke-opacity="0.15" stroke-width="1.5"/>
<defs>
<filter id="filter0_d_2_1245" x="2.49902" y="1.99988" width="36" height="36" filterUnits="userSpaceOnUse" color-interpolation-filters="sRGB">
<feFlood flood-opacity="0" result="BackgroundImageFix"/>
<feColorMatrix in="SourceAlpha" type="matrix" values="0 0 0 0 0 0 0 0 0 0 0 0 0 0 0 0 0 0 127 0" result="hardAlpha"/>
<feOffset/>
<feGaussianBlur stdDeviation="2"/>
<feComposite in2="hardAlpha" operator="out"/>
<feColorMatrix type="matrix" values="0 0 0 0 0 0 0 0 0 0 0 0 0 0 0 0 0 0 0.25 0"/>
<feBlend mode="normal" in2="BackgroundImageFix" result="effect1_dropShadow_2_1245"/>
<feBlend mode="normal" in="SourceGraphic" in2="effect1_dropShadow_2_1245" result="shape"/>
</filter>
<linearGradient id="paint0_linear_2_1245" x1="20.499" y1="-0.00012207" x2="20.499" y2="39.9999" gradientUnits="userSpaceOnUse">
<stop stop-color="#1E1E1E"/>
<stop offset="1" stop-color="#0D0D0D"/>
</linearGradient>
</defs>
</svg>
