<svg width="41" height="40" viewBox="0 0 41 40" fill="none" xmlns="http://www.w3.org/2000/svg">
<rect x="0.499023" width="40" height="40" rx="6" fill="url(#paint0_linear_2_1222)"/>
<g filter="url(#filter0_d_2_1222)">
<path fill-rule="evenodd" clip-rule="evenodd" d="M19.2968 11.2263C18.4843 9.82921 16.4529 9.82918 15.6404 11.2263L6.785 26.4525C5.97246 27.8496 6.98813 29.5959 8.6132 29.5959H15.5262C14.8318 28.989 14.5747 27.9392 15.1002 27.0385L21.8069 15.5421L19.2968 11.2263Z" fill="#80EEC0"/>
<path d="M24.9081 14.5662C25.5805 13.4231 27.2616 13.4231 27.9341 14.5662L35.2626 27.0239C35.9351 28.167 35.0946 29.5959 33.7498 29.5959H19.0924C17.7476 29.5959 16.907 28.167 17.5794 27.0239L24.9081 14.5662Z" fill="#00DC82"/>
</g>
<rect x="1.24902" y="0.75" width="38.5" height="38.5" rx="5.25" stroke="white" stroke-opacity="0.15" stroke-width="1.5"/>
<defs>
<filter id="filter0_d_2_1222" x="2.49902" y="2" width="37.0005" height="36" filterUnits="userSpaceOnUse" color-interpolation-filters="sRGB">
<feFlood flood-opacity="0" result="BackgroundImageFix"/>
<feColorMatrix in="SourceAlpha" type="matrix" values="0 0 0 0 0 0 0 0 0 0 0 0 0 0 0 0 0 0 127 0" result="hardAlpha"/>
<feOffset/>
<feGaussianBlur stdDeviation="2"/>
<feComposite in2="hardAlpha" operator="out"/>
<feColorMatrix type="matrix" values="0 0 0 0 0 0 0 0 0 0 0 0 0 0 0 0 0 0 0.25 0"/>
<feBlend mode="normal" in2="BackgroundImageFix" result="effect1_dropShadow_2_1222"/>
<feBlend mode="normal" in="SourceGraphic" in2="effect1_dropShadow_2_1222" result="shape"/>
</filter>
<linearGradient id="paint0_linear_2_1222" x1="20.499" y1="0" x2="20.499" y2="40" gradientUnits="userSpaceOnUse">
<stop stop-color="#0C3826"/>
<stop offset="1" stop-color="#052115"/>
</linearGradient>
</defs>
</svg>
