<svg width="41" height="40" viewBox="0 0 41 40" fill="none" xmlns="http://www.w3.org/2000/svg">
<rect x="0.499023" y="-6.10352e-05" width="40" height="40" rx="6" fill="url(#paint0_linear_2_1199)"/>
<g filter="url(#filter0_d_2_1199)">
<path d="M23.7015 6C23.7015 6.049 23.7015 6.09917 23.7015 6.1505C23.7015 7.92383 22.2642 9.36117 20.4909 9.36117C18.7175 9.36117 17.2802 7.92383 17.2802 6.1505C17.2802 6.098 17.2802 6.049 17.2802 6H6.49902V34H34.499V6H23.7015ZM19.862 31.0028L18.4982 24.256H18.4749L17.0002 31.0028H15.1207L12.9927 21.0897H14.8477L16.117 27.8365H16.1404L17.6699 21.0897H19.4047L20.7779 27.9193H20.8012L22.2502 21.0897H24.0714L21.7065 31.0028H19.862ZM30.0762 31.0028L29.4439 28.7967H26.106L25.6195 31.0028H23.7645L26.1632 21.0897H29.0904L32.007 31.0028H30.0762V31.0028ZM27.2797 23.5327L26.47 27.1703H28.9889L28.0602 23.5327H27.2797Z" fill="#654FF0"/>
</g>
<rect x="1.24902" y="0.749939" width="38.5" height="38.5" rx="5.25" stroke="white" stroke-opacity="0.15" stroke-width="1.5"/>
<defs>
<filter id="filter0_d_2_1199" x="2.49902" y="1.99994" width="36" height="36.0001" filterUnits="userSpaceOnUse" color-interpolation-filters="sRGB">
<feFlood flood-opacity="0" result="BackgroundImageFix"/>
<feColorMatrix in="SourceAlpha" type="matrix" values="0 0 0 0 0 0 0 0 0 0 0 0 0 0 0 0 0 0 127 0" result="hardAlpha"/>
<feOffset/>
<feGaussianBlur stdDeviation="2"/>
<feComposite in2="hardAlpha" operator="out"/>
<feColorMatrix type="matrix" values="0 0 0 0 0 0 0 0 0 0 0 0 0 0 0 0 0 0 0.25 0"/>
<feBlend mode="normal" in2="BackgroundImageFix" result="effect1_dropShadow_2_1199"/>
<feBlend mode="normal" in="SourceGraphic" in2="effect1_dropShadow_2_1199" result="shape"/>
</filter>
<linearGradient id="paint0_linear_2_1199" x1="20.499" y1="-6.10351e-05" x2="20.499" y2="39.9999" gradientUnits="userSpaceOnUse">
<stop stop-color="#140E3A"/>
<stop offset="1" stop-color="#0A0622"/>
</linearGradient>
</defs>
</svg>
