<svg width="130" height="40" viewBox="0 0 130 40" fill="none" xmlns="http://www.w3.org/2000/svg">
<rect x="-0.000244141" y="-3.05176e-05" width="130" height="40" rx="6" fill="url(#paint0_linear_18_2465)"/>
<g filter="url(#filter0_d_18_2465)">
<path d="M37.4737 18.7544L25.2487 6.52939C25.0815 6.36158 24.8827 6.22843 24.664 6.13758C24.4452 6.04674 24.2106 5.99997 23.9737 5.99997C23.7368 5.99997 23.5022 6.04674 23.2834 6.13758C23.0646 6.22843 22.8659 6.36158 22.6987 6.52939L20.1597 9.06839L23.3797 12.2884C23.7594 12.1592 24.1678 12.1392 24.5583 12.2308C24.9488 12.3224 25.3057 12.5218 25.5884 12.8063C25.871 13.0909 26.0681 13.4491 26.1571 13.8402C26.2461 14.2313 26.2234 14.6395 26.0917 15.0184L29.1917 18.1184C29.6551 17.9592 30.159 17.9636 30.6195 18.1309C31.08 18.2981 31.4693 18.6181 31.7226 19.0376C31.9758 19.457 32.0776 19.9506 32.0111 20.436C31.9446 20.9214 31.7138 21.3694 31.357 21.7053C31.0003 22.0412 30.5393 22.2447 30.0508 22.2819C29.5622 22.3192 29.0757 22.1879 28.6722 21.9099C28.2687 21.632 27.9727 21.2241 27.8334 20.7544C27.6941 20.2847 27.7199 19.7814 27.9067 19.3284L25.0117 16.4334V24.0504C25.4502 24.2677 25.8011 24.6286 26.0058 25.0732C26.2106 25.5177 26.2568 26.019 26.1369 26.4935C26.0169 26.968 25.7381 27.3871 25.3467 27.6809C24.9553 27.9748 24.4751 28.1257 23.986 28.1085C23.4968 28.0913 23.0284 27.9071 22.6586 27.5864C22.2888 27.2658 22.04 26.8282 21.9537 26.3465C21.8674 25.8647 21.9487 25.3679 22.1842 24.9389C22.4196 24.5098 22.795 24.1743 23.2477 23.9884V16.3014C22.9858 16.1939 22.7477 16.0357 22.5472 15.8359C22.3467 15.636 22.1877 15.3984 22.0795 15.1369C21.9712 14.8753 21.9157 14.5949 21.9163 14.3118C21.9168 14.0287 21.9734 13.7485 22.0827 13.4874L18.9127 10.3154L10.5297 18.7014C10.3617 18.8686 10.2284 19.0674 10.1375 19.2863C10.0466 19.5052 9.99976 19.7399 9.99976 19.9769C9.99976 20.2139 10.0466 20.4486 10.1375 20.6675C10.2284 20.8864 10.3617 21.0851 10.5297 21.2524L22.7547 33.4734C22.9219 33.6412 23.1206 33.7743 23.3394 33.8652C23.5582 33.956 23.7928 34.0028 24.0297 34.0028C24.2666 34.0028 24.5012 33.956 24.72 33.8652C24.9387 33.7743 25.1375 33.6412 25.3047 33.4734L37.4737 21.3014C37.6416 21.1341 37.7749 20.9354 37.8658 20.7165C37.9568 20.4976 38.0036 20.2629 38.0036 20.0259C38.0036 19.7889 37.9568 19.5542 37.8658 19.3353C37.7749 19.1164 37.6416 18.9176 37.4737 18.7504" fill="#DD4C35"/>
<path d="M20.1597 9.06839L23.3797 12.2884C23.7594 12.1592 24.1678 12.1392 24.5583 12.2308C24.9488 12.3224 25.3057 12.5218 25.5884 12.8063C25.8711 13.0909 26.0681 13.4491 26.1571 13.8402C26.2461 14.2313 26.2234 14.6395 26.0917 15.0184L29.1917 18.1184C29.6551 17.9592 30.159 17.9636 30.6196 18.1309C31.0801 18.2981 31.4694 18.6181 31.7226 19.0376C31.9758 19.457 32.0777 19.9506 32.0111 20.436C31.9446 20.9214 31.7138 21.3694 31.3571 21.7053C31.0004 22.0412 30.5394 22.2447 30.0508 22.2819C29.5623 22.3192 29.0757 22.1879 28.6722 21.9099C28.2688 21.632 27.9727 21.2241 27.8334 20.7544C27.6941 20.2847 27.72 19.7814 27.9067 19.3284L25.0117 16.4334V24.0504C25.4503 24.2677 25.8011 24.6286 26.0059 25.0732C26.2106 25.5177 26.2569 26.019 26.1369 26.4935C26.017 26.968 25.7381 27.3871 25.3467 27.6809C24.9554 27.9748 24.4751 28.1257 23.986 28.1085C23.4969 28.0913 23.0284 27.9071 22.6586 27.5864C22.2889 27.2658 22.0401 26.8282 21.9538 26.3465C21.8674 25.8647 21.9488 25.3679 22.1842 24.9389C22.4197 24.5098 22.795 24.1743 23.2477 23.9884V16.3014C22.9858 16.1939 22.7478 16.0357 22.5473 15.8359C22.3468 15.636 22.1878 15.3984 22.0795 15.1369C21.9712 14.8753 21.9157 14.5949 21.9163 14.3118C21.9169 14.0287 21.9734 13.7485 22.0827 13.4874L18.9127 10.3154" fill="white"/>
</g>
<g filter="url(#filter1_d_18_2465)">
<path d="M53.5232 12.6015H52.3044C52.2576 12.3411 52.1703 12.1119 52.0427 11.914C51.9151 11.7161 51.7589 11.5481 51.574 11.4101C51.3891 11.2721 51.182 11.1679 50.9529 11.0976C50.7263 11.0273 50.4854 10.9922 50.2302 10.9922C49.7693 10.9922 49.3565 11.108 48.9919 11.3398C48.63 11.5716 48.3435 11.9114 48.1326 12.3593C47.9242 12.8073 47.8201 13.3541 47.8201 14C47.8201 14.651 47.9242 15.2005 48.1326 15.6484C48.3435 16.0963 48.6313 16.4349 48.9958 16.664C49.3604 16.8932 49.7706 17.0078 50.2263 17.0078C50.4789 17.0078 50.7185 16.9739 50.9451 16.9062C51.1742 16.8359 51.3813 16.733 51.5662 16.5976C51.7511 16.4622 51.9073 16.2968 52.0349 16.1015C52.1651 15.9036 52.255 15.6771 52.3044 15.4218L53.5232 15.4257C53.4581 15.819 53.3318 16.181 53.1443 16.5117C52.9594 16.8398 52.7211 17.1237 52.4294 17.3632C52.1404 17.6002 51.8097 17.7838 51.4373 17.914C51.0649 18.0442 50.6586 18.1093 50.2185 18.1093C49.5258 18.1093 48.9086 17.9453 48.3669 17.6172C47.8253 17.2864 47.3982 16.8138 47.0857 16.1992C46.7758 15.5846 46.6208 14.8515 46.6208 14C46.6208 13.1458 46.7771 12.4127 47.0896 11.8007C47.4021 11.1862 47.8292 10.7148 48.3708 10.3867C48.9125 10.056 49.5284 9.89059 50.2185 9.89059C50.643 9.89059 51.0388 9.95179 51.406 10.0742C51.7758 10.194 52.1078 10.3711 52.4021 10.6054C52.6964 10.8372 52.9399 11.1211 53.1326 11.457C53.3253 11.7903 53.4555 12.1718 53.5232 12.6015ZM56.0417 14.4375V18H54.8738V9.99997H56.0261V12.9765H56.1003C56.241 12.6536 56.4558 12.3971 56.7449 12.207C57.0339 12.0169 57.4115 11.9218 57.8777 11.9218C58.2891 11.9218 58.6485 12.0065 58.9558 12.1757C59.2657 12.345 59.5053 12.5976 59.6746 12.9336C59.8464 13.2669 59.9324 13.6836 59.9324 14.1836V18H58.7644V14.3242C58.7644 13.8841 58.6511 13.5429 58.4246 13.3007C58.198 13.056 57.8829 12.9336 57.4792 12.9336C57.2032 12.9336 56.9558 12.9922 56.7371 13.1093C56.5209 13.2265 56.3503 13.3984 56.2253 13.625C56.1029 13.8489 56.0417 14.1198 56.0417 14.4375ZM64.0769 18.1211C63.4858 18.1211 62.9766 17.9948 62.5496 17.7422C62.1251 17.4869 61.797 17.1289 61.5652 16.6679C61.336 16.2044 61.2214 15.6614 61.2214 15.039C61.2214 14.4244 61.336 13.8828 61.5652 13.414C61.797 12.9453 62.1199 12.5794 62.5339 12.3164C62.9506 12.0534 63.4376 11.9218 63.9949 11.9218C64.3334 11.9218 64.6615 11.9778 64.9792 12.0898C65.297 12.2018 65.5821 12.3776 65.8347 12.6172C66.0873 12.8567 66.2865 13.1679 66.4324 13.5507C66.5782 13.931 66.6511 14.3932 66.6511 14.9375V15.3515H61.8816V14.4765H65.5066C65.5066 14.1692 65.4441 13.8971 65.3191 13.6601C65.1941 13.4205 65.0183 13.2317 64.7917 13.0937C64.5678 12.9557 64.3048 12.8867 64.0027 12.8867C63.6746 12.8867 63.3881 12.9674 63.1433 13.1289C62.9011 13.2877 62.7136 13.4961 62.5808 13.7539C62.4506 14.0091 62.3855 14.2864 62.3855 14.5859V15.2695C62.3855 15.6705 62.4558 16.0117 62.5964 16.2929C62.7397 16.5742 62.9389 16.789 63.1941 16.9375C63.4493 17.0833 63.7475 17.1562 64.0886 17.1562C64.31 17.1562 64.5118 17.125 64.6941 17.0625C64.8764 16.9974 65.0339 16.901 65.1667 16.7734C65.2996 16.6458 65.4011 16.4882 65.4714 16.3007L66.5769 16.5C66.4884 16.8255 66.3295 17.1106 66.1003 17.3554C65.8738 17.5976 65.5886 17.7864 65.2449 17.9218C64.9037 18.0547 64.5144 18.1211 64.0769 18.1211ZM70.4744 18.1211C69.8936 18.1211 69.3936 17.9895 68.9744 17.7265C68.5577 17.4609 68.2374 17.095 68.0134 16.6289C67.7895 16.1627 67.6775 15.6289 67.6775 15.0273C67.6775 14.4179 67.7921 13.8802 68.0212 13.414C68.2504 12.9453 68.5733 12.5794 68.99 12.3164C69.4067 12.0534 69.8975 11.9218 70.4626 11.9218C70.9184 11.9218 71.3246 12.0065 71.6814 12.1757C72.0382 12.3424 72.3259 12.5768 72.5447 12.8789C72.766 13.181 72.8975 13.5338 72.9392 13.9375H71.8025C71.74 13.6562 71.5968 13.414 71.3728 13.2109C71.1514 13.0078 70.8546 12.9062 70.4822 12.9062C70.1566 12.9062 69.8715 12.9922 69.6267 13.164C69.3845 13.3333 69.1957 13.5755 69.0603 13.8906C68.9249 14.2031 68.8572 14.5729 68.8572 15C68.8572 15.4375 68.9236 15.8151 69.0564 16.1328C69.1892 16.4505 69.3767 16.6966 69.6189 16.8711C69.8637 17.0455 70.1514 17.1328 70.4822 17.1328C70.7035 17.1328 70.904 17.0924 71.0837 17.0117C71.266 16.9284 71.4184 16.8099 71.5408 16.6562C71.6658 16.5026 71.753 16.3177 71.8025 16.1015H72.9392C72.8975 16.4895 72.7712 16.8359 72.5603 17.1406C72.3494 17.4453 72.0668 17.6849 71.7126 17.8593C71.3611 18.0338 70.9483 18.1211 70.4744 18.1211ZM75.2624 15.9648L75.2546 14.539H75.4578L77.8484 12H79.2468L76.5203 14.8906H76.3367L75.2624 15.9648ZM74.1882 18V9.99997H75.3562V18H74.1882ZM77.9773 18L75.8288 15.1484L76.6335 14.332L79.4109 18H77.9773ZM85.7497 18.1211C85.1872 18.1211 84.6964 17.9922 84.2771 17.7343C83.8578 17.4765 83.5323 17.1159 83.3005 16.6523C83.0688 16.1888 82.9529 15.6471 82.9529 15.0273C82.9529 14.4049 83.0688 13.8606 83.3005 13.3945C83.5323 12.9284 83.8578 12.5664 84.2771 12.3086C84.6964 12.0507 85.1872 11.9218 85.7497 11.9218C86.3122 11.9218 86.8031 12.0507 87.2224 12.3086C87.6417 12.5664 87.9672 12.9284 88.199 13.3945C88.4307 13.8606 88.5466 14.4049 88.5466 15.0273C88.5466 15.6471 88.4307 16.1888 88.199 16.6523C87.9672 17.1159 87.6417 17.4765 87.2224 17.7343C86.8031 17.9922 86.3122 18.1211 85.7497 18.1211ZM85.7537 17.1406C86.1182 17.1406 86.4203 17.0442 86.6599 16.8515C86.8995 16.6588 87.0766 16.4023 87.1912 16.082C87.3083 15.7617 87.3669 15.4088 87.3669 15.0234C87.3669 14.6406 87.3083 14.289 87.1912 13.9687C87.0766 13.6458 86.8995 13.3867 86.6599 13.1914C86.4203 12.9961 86.1182 12.8984 85.7537 12.8984C85.3865 12.8984 85.0818 12.9961 84.8396 13.1914C84.6 13.3867 84.4216 13.6458 84.3044 13.9687C84.1898 14.289 84.1326 14.6406 84.1326 15.0234C84.1326 15.4088 84.1898 15.7617 84.3044 16.082C84.4216 16.4023 84.6 16.6588 84.8396 16.8515C85.0818 17.0442 85.3865 17.1406 85.7537 17.1406ZM93.6511 15.5117V12H94.823V18H93.6745V16.9609H93.612C93.474 17.2812 93.2527 17.5481 92.948 17.7617C92.6459 17.9726 92.2696 18.0781 91.8191 18.0781C91.4337 18.0781 91.0925 17.9935 90.7956 17.8242C90.5014 17.6523 90.2696 17.3984 90.1003 17.0625C89.9337 16.7265 89.8503 16.3112 89.8503 15.8164V12H91.0183V15.6757C91.0183 16.0846 91.1316 16.4101 91.3581 16.6523C91.5847 16.8945 91.879 17.0156 92.241 17.0156C92.4597 17.0156 92.6772 16.9609 92.8933 16.8515C93.112 16.7422 93.293 16.5768 93.4363 16.3554C93.5821 16.1341 93.6537 15.8528 93.6511 15.5117ZM99.1931 12V12.9375H95.9158V12H99.1931ZM96.7947 10.5625H97.9626V16.2382C97.9626 16.4648 97.9965 16.6354 98.0642 16.75C98.1319 16.8619 98.2191 16.9388 98.3259 16.9804C98.4353 17.0195 98.5538 17.039 98.6814 17.039C98.7751 17.039 98.8572 17.0325 98.9275 17.0195C98.9978 17.0065 99.0525 16.9961 99.0915 16.9882L99.3025 17.9531C99.2348 17.9791 99.1384 18.0052 99.0134 18.0312C98.8884 18.0599 98.7322 18.0755 98.5447 18.0781C98.2374 18.0833 97.9509 18.0286 97.6853 17.914C97.4197 17.7994 97.2048 17.6224 97.0408 17.3828C96.8767 17.1432 96.7947 16.8424 96.7947 16.4804V10.5625ZM106.197 12V12.9375H102.92V12H106.197ZM103.799 10.5625H104.967V16.2382C104.967 16.4648 105 16.6354 105.068 16.75C105.136 16.8619 105.223 16.9388 105.33 16.9804C105.439 17.0195 105.558 17.039 105.685 17.039C105.779 17.039 105.861 17.0325 105.931 17.0195C106.002 17.0065 106.056 16.9961 106.095 16.9882L106.306 17.9531C106.239 17.9791 106.142 18.0052 106.017 18.0312C105.892 18.0599 105.736 18.0755 105.549 18.0781C105.241 18.0833 104.955 18.0286 104.689 17.914C104.424 17.7994 104.209 17.6224 104.045 17.3828C103.881 17.1432 103.799 16.8424 103.799 16.4804V10.5625ZM108.786 14.4375V18H107.618V9.99997H108.77V12.9765H108.844C108.985 12.6536 109.2 12.3971 109.489 12.207C109.778 12.0169 110.156 11.9218 110.622 11.9218C111.033 11.9218 111.393 12.0065 111.7 12.1757C112.01 12.345 112.249 12.5976 112.419 12.9336C112.591 13.2669 112.676 13.6836 112.676 14.1836V18H111.509V14.3242C111.509 13.8841 111.395 13.5429 111.169 13.3007C110.942 13.056 110.627 12.9336 110.223 12.9336C109.947 12.9336 109.7 12.9922 109.481 13.1093C109.265 13.2265 109.094 13.3984 108.969 13.625C108.847 13.8489 108.786 14.1198 108.786 14.4375ZM116.821 18.1211C116.23 18.1211 115.721 17.9948 115.294 17.7422C114.869 17.4869 114.541 17.1289 114.309 16.6679C114.08 16.2044 113.966 15.6614 113.966 15.039C113.966 14.4244 114.08 13.8828 114.309 13.414C114.541 12.9453 114.864 12.5794 115.278 12.3164C115.695 12.0534 116.182 11.9218 116.739 11.9218C117.078 11.9218 117.406 11.9778 117.723 12.0898C118.041 12.2018 118.326 12.3776 118.579 12.6172C118.831 12.8567 119.031 13.1679 119.176 13.5507C119.322 13.931 119.395 14.3932 119.395 14.9375V15.3515H114.626V14.4765H118.251C118.251 14.1692 118.188 13.8971 118.063 13.6601C117.938 13.4205 117.762 13.2317 117.536 13.0937C117.312 12.9557 117.049 12.8867 116.747 12.8867C116.419 12.8867 116.132 12.9674 115.887 13.1289C115.645 13.2877 115.458 13.4961 115.325 13.7539C115.195 14.0091 115.13 14.2864 115.13 14.5859V15.2695C115.13 15.6705 115.2 16.0117 115.341 16.2929C115.484 16.5742 115.683 16.789 115.938 16.9375C116.193 17.0833 116.492 17.1562 116.833 17.1562C117.054 17.1562 117.256 17.125 117.438 17.0625C117.621 16.9974 117.778 16.901 117.911 16.7734C118.044 16.6458 118.145 16.4882 118.216 16.3007L119.321 16.5C119.232 16.8255 119.074 17.1106 118.844 17.3554C118.618 17.5976 118.333 17.7864 117.989 17.9218C117.648 18.0547 117.259 18.1211 116.821 18.1211Z" fill="#E8E8E8"/>
<path d="M46.6603 31V22.2727H50.2654C50.9188 22.2727 51.4827 22.3906 51.9571 22.6264C52.4344 22.8593 52.8023 23.1946 53.0608 23.6321C53.3194 24.0667 53.4486 24.5824 53.4486 25.1789C53.4486 25.7841 53.3165 26.2983 53.0523 26.7216C52.7881 27.142 52.4131 27.463 51.9273 27.6846C51.4415 27.9034 50.8662 28.0128 50.2015 28.0128H47.9216V26.3508H49.8094C50.1276 26.3508 50.3932 26.3096 50.6063 26.2272C50.8222 26.142 50.9856 26.0142 51.0963 25.8437C51.2071 25.6704 51.2625 25.4488 51.2625 25.1789C51.2625 24.9091 51.2071 24.686 51.0963 24.5099C50.9856 24.3309 50.8222 24.1974 50.6063 24.1093C50.3904 24.0184 50.1248 23.973 49.8094 23.973H48.7696V31H46.6603ZM51.5736 27.0113L53.7469 31H51.4458L49.3151 27.0113H51.5736ZM57.5363 31.1235C56.8517 31.1235 56.2608 30.9886 55.7636 30.7187C55.2693 30.446 54.8886 30.0582 54.6216 29.5554C54.3574 29.0497 54.2253 28.4488 54.2253 27.7528C54.2253 27.0767 54.3588 26.4858 54.6258 25.9801C54.8929 25.4716 55.2693 25.0767 55.7551 24.7954C56.2409 24.5113 56.8133 24.3693 57.4724 24.3693C57.9383 24.3693 58.3645 24.4417 58.7508 24.5866C59.1372 24.7315 59.471 24.946 59.7522 25.2301C60.0335 25.5142 60.2522 25.865 60.4085 26.2826C60.5647 26.6974 60.6429 27.1733 60.6429 27.7102V28.2301H54.9539V27.0199H58.7039C58.7011 26.7983 58.6485 26.6008 58.5463 26.4275C58.444 26.2542 58.3034 26.1193 58.1244 26.0227C57.9483 25.9233 57.7451 25.8735 57.515 25.8735C57.2821 25.8735 57.0733 25.9261 56.8886 26.0312C56.7039 26.1335 56.5576 26.2741 56.4497 26.4531C56.3417 26.6292 56.2849 26.8295 56.2792 27.0539V28.2855C56.2792 28.5525 56.3318 28.7869 56.4369 28.9886C56.542 29.1875 56.6912 29.3423 56.8843 29.4531C57.0775 29.5639 57.3076 29.6193 57.5747 29.6193C57.7593 29.6193 57.927 29.5937 58.0775 29.5426C58.2281 29.4914 58.3574 29.4162 58.4653 29.3167C58.5733 29.2173 58.6542 29.0951 58.7082 28.9503L60.6216 29.0056C60.542 29.4346 60.3673 29.8082 60.0974 30.1264C59.8304 30.4417 59.4795 30.6875 59.0449 30.8636C58.6102 31.0369 58.1074 31.1235 57.5363 31.1235ZM61.7071 33.4545V24.4545H63.7696V25.5753H63.8336C63.9188 25.3764 64.0395 25.1846 64.1958 25C64.3549 24.8153 64.5566 24.6647 64.8009 24.5483C65.048 24.4289 65.3435 24.3693 65.6872 24.3693C66.1418 24.3693 66.5665 24.4886 66.9614 24.7272C67.3591 24.9659 67.6801 25.3338 67.9245 25.8309C68.1688 26.3281 68.2909 26.9616 68.2909 27.7315C68.2909 28.473 68.173 29.0937 67.9372 29.5937C67.7043 30.0937 67.389 30.4687 66.9912 30.7187C66.5963 30.9687 66.1574 31.0937 65.6745 31.0937C65.3449 31.0937 65.0594 31.0397 64.8179 30.9318C64.5765 30.8238 64.3733 30.6818 64.2086 30.5056C64.0466 30.3295 63.9216 30.1406 63.8336 29.9389H63.7909V33.4545H61.7071ZM63.7483 27.7272C63.7483 28.0795 63.7952 28.3863 63.889 28.6477C63.9855 28.9091 64.1233 29.1122 64.3023 29.2571C64.4841 29.3991 64.7015 29.4701 64.9543 29.4701C65.21 29.4701 65.4273 29.3991 65.6063 29.2571C65.7853 29.1122 65.9202 28.9091 66.0111 28.6477C66.1049 28.3863 66.1517 28.0795 66.1517 27.7272C66.1517 27.375 66.1049 27.0696 66.0111 26.811C65.9202 26.5525 65.7853 26.3522 65.6063 26.2102C65.4301 26.0681 65.2128 25.9971 64.9543 25.9971C64.6986 25.9971 64.4813 26.0667 64.3023 26.2059C64.1233 26.3451 63.9855 26.544 63.889 26.8025C63.7952 27.061 63.7483 27.3693 63.7483 27.7272ZM72.4383 31.1235C71.7508 31.1235 71.1599 30.9829 70.6656 30.7017C70.1741 30.4176 69.7948 30.0227 69.5278 29.517C69.2636 29.0085 69.1315 28.419 69.1315 27.7485C69.1315 27.0753 69.2636 26.4858 69.5278 25.9801C69.7948 25.4716 70.1741 25.0767 70.6656 24.7954C71.1599 24.5113 71.7508 24.3693 72.4383 24.3693C73.1258 24.3693 73.7153 24.5113 74.2068 24.7954C74.7011 25.0767 75.0804 25.4716 75.3446 25.9801C75.6116 26.4858 75.7451 27.0753 75.7451 27.7485C75.7451 28.419 75.6116 29.0085 75.3446 29.517C75.0804 30.0227 74.7011 30.4176 74.2068 30.7017C73.7153 30.9829 73.1258 31.1235 72.4383 31.1235ZM72.4511 29.5511C72.7011 29.5511 72.9127 29.4744 73.086 29.321C73.2593 29.1676 73.3914 28.9545 73.4823 28.6818C73.5761 28.4091 73.623 28.0937 73.623 27.7358C73.623 27.3721 73.5761 27.0539 73.4823 26.7812C73.3914 26.5085 73.2593 26.2954 73.086 26.142C72.9127 25.9886 72.7011 25.9119 72.4511 25.9119C72.1926 25.9119 71.9738 25.9886 71.7948 26.142C71.6187 26.2954 71.4838 26.5085 71.39 26.7812C71.2991 27.0539 71.2537 27.3721 71.2537 27.7358C71.2537 28.0937 71.2991 28.4091 71.39 28.6818C71.4838 28.9545 71.6187 29.1676 71.7948 29.321C71.9738 29.4744 72.1926 29.5511 72.4511 29.5511ZM82.5271 26.4531L80.6137 26.5042C80.5939 26.3679 80.5399 26.2471 80.4518 26.142C80.3637 26.0341 80.2487 25.9503 80.1066 25.8906C79.9674 25.8281 79.8055 25.7968 79.6208 25.7968C79.3794 25.7968 79.1734 25.8451 79.0029 25.9417C78.8353 26.0383 78.7529 26.169 78.7558 26.3338C78.7529 26.4616 78.8041 26.5724 78.9092 26.6662C79.0171 26.7599 79.2089 26.8352 79.4845 26.892L80.7458 27.1306C81.3992 27.2556 81.885 27.463 82.2032 27.7528C82.5242 28.0426 82.6862 28.4261 82.689 28.9034C82.6862 29.3522 82.5527 29.7429 82.2885 30.0753C82.0271 30.4076 81.6691 30.6662 81.2146 30.8508C80.76 31.0326 80.2402 31.1235 79.6549 31.1235C78.7203 31.1235 77.9831 30.9318 77.4433 30.5483C76.9064 30.1619 76.5995 29.6449 76.5228 28.9971L78.5811 28.946C78.6265 29.1846 78.7444 29.3664 78.9348 29.4914C79.1251 29.6164 79.368 29.6789 79.6635 29.6789C79.9305 29.6789 80.1478 29.6292 80.3154 29.5298C80.4831 29.4304 80.5683 29.2983 80.5711 29.1335C80.5683 28.9858 80.5029 28.8679 80.3751 28.7798C80.2473 28.6889 80.047 28.6179 79.7742 28.5667L78.6322 28.3494C77.976 28.2301 77.4873 28.0099 77.1663 27.6889C76.8453 27.365 76.6862 26.9531 76.689 26.4531C76.6862 26.0156 76.8027 25.642 77.0385 25.3324C77.2742 25.0199 77.6095 24.7812 78.0441 24.6164C78.4788 24.4517 78.9916 24.3693 79.5825 24.3693C80.4689 24.3693 81.1677 24.5554 81.6791 24.9275C82.1904 25.2968 82.4731 25.8054 82.5271 26.4531ZM83.7149 31V24.4545H85.7987V31H83.7149ZM84.759 23.6917C84.4664 23.6917 84.2149 23.5951 84.0047 23.402C83.7945 23.2059 83.6894 22.9701 83.6894 22.6946C83.6894 22.4218 83.7945 22.1889 84.0047 21.9957C84.2149 21.7997 84.4664 21.7017 84.759 21.7017C85.0544 21.7017 85.3059 21.7997 85.5132 21.9957C85.7235 22.1889 85.8286 22.4218 85.8286 22.6946C85.8286 22.9701 85.7235 23.2059 85.5132 23.402C85.3059 23.5951 85.0544 23.6917 84.759 23.6917ZM90.8197 24.4545V25.9886H86.6904V24.4545H90.8197ZM87.5555 22.8863H89.6393V28.9417C89.6393 29.0696 89.6592 29.1733 89.699 29.2528C89.7416 29.3295 89.8027 29.3849 89.8822 29.419C89.9617 29.4503 90.0569 29.4659 90.1677 29.4659C90.2473 29.4659 90.3311 29.4588 90.4191 29.4446C90.51 29.4275 90.5782 29.4133 90.6237 29.402L90.939 30.9062C90.8396 30.9346 90.699 30.9701 90.5171 31.0128C90.3382 31.0554 90.1237 31.0824 89.8737 31.0937C89.385 31.1164 88.966 31.0596 88.6166 30.9233C88.27 30.7841 88.0044 30.5681 87.8197 30.2755C87.6379 29.9829 87.5498 29.615 87.5555 29.1718V22.8863ZM94.868 31.1235C94.1805 31.1235 93.5896 30.9829 93.0953 30.7017C92.6038 30.4176 92.2245 30.0227 91.9575 29.517C91.6933 29.0085 91.5612 28.419 91.5612 27.7485C91.5612 27.0753 91.6933 26.4858 91.9575 25.9801C92.2245 25.4716 92.6038 25.0767 93.0953 24.7954C93.5896 24.5113 94.1805 24.3693 94.868 24.3693C95.5555 24.3693 96.145 24.5113 96.6365 24.7954C97.1308 25.0767 97.51 25.4716 97.7742 25.9801C98.0413 26.4858 98.1748 27.0753 98.1748 27.7485C98.1748 28.419 98.0413 29.0085 97.7742 29.517C97.51 30.0227 97.1308 30.4176 96.6365 30.7017C96.145 30.9829 95.5555 31.1235 94.868 31.1235ZM94.8808 29.5511C95.1308 29.5511 95.3424 29.4744 95.5157 29.321C95.689 29.1676 95.8211 28.9545 95.912 28.6818C96.0058 28.4091 96.0527 28.0937 96.0527 27.7358C96.0527 27.3721 96.0058 27.0539 95.912 26.7812C95.8211 26.5085 95.689 26.2954 95.5157 26.142C95.3424 25.9886 95.1308 25.9119 94.8808 25.9119C94.6223 25.9119 94.4035 25.9886 94.2245 26.142C94.0484 26.2954 93.9134 26.5085 93.8197 26.7812C93.7288 27.0539 93.6833 27.3721 93.6833 27.7358C93.6833 28.0937 93.7288 28.4091 93.8197 28.6818C93.9134 28.9545 94.0484 29.1676 94.2245 29.321C94.4035 29.4744 94.6223 29.5511 94.8808 29.5511ZM99.2423 31V24.4545H101.266V25.6477H101.335C101.454 25.2159 101.649 24.8949 101.918 24.6846C102.188 24.4716 102.502 24.365 102.86 24.365C102.957 24.365 103.056 24.3721 103.158 24.3863C103.261 24.3977 103.356 24.4162 103.444 24.4417V26.2528C103.345 26.2187 103.214 26.1917 103.052 26.1718C102.893 26.152 102.751 26.142 102.626 26.142C102.379 26.142 102.156 26.1974 101.957 26.3082C101.761 26.4162 101.606 26.5681 101.492 26.7642C101.381 26.9574 101.326 27.1846 101.326 27.446V31H99.2423ZM105.766 33.4545C105.516 33.4545 105.281 33.4346 105.059 33.3949C104.837 33.3579 104.647 33.3082 104.488 33.2457L104.948 31.7329C105.153 31.8011 105.337 31.8409 105.502 31.8522C105.67 31.8636 105.813 31.8366 105.933 31.7713C106.055 31.7088 106.149 31.5966 106.214 31.4346L106.295 31.2386L103.968 24.4545H106.15L107.356 29.125H107.424L108.647 24.4545H110.842L108.374 31.6264C108.255 31.9843 108.086 32.2997 107.867 32.5724C107.651 32.848 107.372 33.0639 107.028 33.2201C106.687 33.3764 106.266 33.4545 105.766 33.4545Z" fill="#DD4C35"/>
</g>
<rect x="0.749756" y="0.749969" width="128.5" height="38.5" rx="5.25" stroke="white" stroke-opacity="0.15" stroke-width="1.5"/>
<defs>
<filter id="filter0_d_18_2465" x="5.99976" y="1.99997" width="36.0038" height="36.0028" filterUnits="userSpaceOnUse" color-interpolation-filters="sRGB">
<feFlood flood-opacity="0" result="BackgroundImageFix"/>
<feColorMatrix in="SourceAlpha" type="matrix" values="0 0 0 0 0 0 0 0 0 0 0 0 0 0 0 0 0 0 127 0" result="hardAlpha"/>
<feOffset/>
<feGaussianBlur stdDeviation="2"/>
<feComposite in2="hardAlpha" operator="out"/>
<feColorMatrix type="matrix" values="0 0 0 0 0 0 0 0 0 0 0 0 0 0 0 0 0 0 0.25 0"/>
<feBlend mode="normal" in2="BackgroundImageFix" result="effect1_dropShadow_18_2465"/>
<feBlend mode="normal" in="SourceGraphic" in2="effect1_dropShadow_18_2465" result="shape"/>
</filter>
<filter id="filter1_d_18_2465" x="41.9998" y="2.99997" width="82" height="34.4545" filterUnits="userSpaceOnUse" color-interpolation-filters="sRGB">
<feFlood flood-opacity="0" result="BackgroundImageFix"/>
<feColorMatrix in="SourceAlpha" type="matrix" values="0 0 0 0 0 0 0 0 0 0 0 0 0 0 0 0 0 0 127 0" result="hardAlpha"/>
<feOffset/>
<feGaussianBlur stdDeviation="2"/>
<feComposite in2="hardAlpha" operator="out"/>
<feColorMatrix type="matrix" values="0 0 0 0 0 0 0 0 0 0 0 0 0 0 0 0 0 0 0.25 0"/>
<feBlend mode="normal" in2="BackgroundImageFix" result="effect1_dropShadow_18_2465"/>
<feBlend mode="normal" in="SourceGraphic" in2="effect1_dropShadow_18_2465" result="shape"/>
</filter>
<linearGradient id="paint0_linear_18_2465" x1="64.9997" y1="-3.05176e-05" x2="64.9997" y2="40" gradientUnits="userSpaceOnUse">
<stop stop-color="#361712"/>
<stop offset="1" stop-color="#1D0C09"/>
</linearGradient>
</defs>
</svg>
