<svg width="41" height="40" viewBox="0 0 41 40" fill="none" xmlns="http://www.w3.org/2000/svg">
<rect x="0.0107422" y="-6.10352e-05" width="40" height="40" rx="8" fill="url(#paint0_linear_2_2666)"/>
<g filter="url(#filter0_d_2_2666)">
<path d="M13.3758 6V8.28846H9.1779V10.3077H7.01123V12.5962H9.1779V14.6154H11.3446V16.7692H15.6779V18.9231H24.3446V16.7692H28.6779V14.6154H30.7091V21.2115H28.6779V27.5385H26.3758V31.8462H13.3758V34H26.3758V31.8462H28.6779V27.5385H30.7091V21.2115H33.0112V10.3077H30.7091V12.5962H28.6779V14.6154H24.3446V16.7692H15.6779V14.6154H11.3446V12.5962H9.1779V10.3077H13.3758V8.28846H20.0112V6H13.3758Z" fill="#353535"/>
<path d="M20.0117 6V8.28846H26.3763V10.3077H30.7096V8.28846H26.3763V6H20.0117Z" fill="#515151"/>
<path d="M13.3765 8.28842V10.3077H15.6785V8.28842H13.3765Z" fill="#A37B63"/>
<path d="M15.6777 8.28845V10.3077H17.8444V8.28845H15.6777Z" fill="#AB826B"/>
<path d="M17.8447 8.28842V10.3077H22.0426V8.28842H17.8447Z" fill="#ABA26B"/>
<path d="M22.043 8.28845V10.3077H24.3451V8.28845H22.043Z" fill="#AB826B"/>
<path d="M24.3452 8.28845V10.3077H26.3765V12.5961H28.6785V10.3077H26.3765V8.28845H24.3452Z" fill="#BF967E"/>
<path d="M9.17773 10.3077V12.5962H11.3444V10.3077H9.17773Z" fill="#958C55"/>
<path d="M11.3447 10.3077V12.5962H13.376V10.3077H11.3447Z" fill="#956C55"/>
<path d="M13.3765 10.3077V12.5962H15.6785V10.3077H13.3765Z" fill="#C33E1F"/>
<path d="M15.6777 10.3077V12.5962H17.8444V14.6154H20.0111V16.7693H24.3444V14.6154H20.0111V12.5962H17.8444V10.3077H15.6777Z" fill="#E38C3F"/>
<path d="M17.8447 10.3077V12.5962H20.0114V14.6154H24.3447V12.5962H22.0426V10.3077H17.8447Z" fill="#E4D25C"/>
<path d="M22.043 10.3077V12.5962H24.3451V10.3077H22.043Z" fill="#E38C3F"/>
<path d="M24.3452 10.3077V12.5962H26.3765V14.6154H28.6785V12.5962H26.3765V10.3077H24.3452Z" fill="#CC4628"/>
<path d="M28.6782 10.3077V12.5962H30.7095V10.3077H28.6782Z" fill="#BFB67E"/>
<path d="M7.01123 12.5961V21.2115H9.1779V27.5384H11.3446V31.8461H13.3758V27.5384H11.3446V21.2115H9.1779V12.5961H7.01123Z" fill="#515151"/>
<path d="M11.3447 12.5962V14.6154H13.376V12.5962H11.3447Z" fill="#DC8638"/>
<path d="M13.3765 12.5962V14.6154H15.6785V16.7692H17.8452V12.5962H13.3765Z" fill="#E2CF5A"/>
<path d="M24.3452 12.5962V14.6154H26.3765V12.5962H24.3452Z" fill="#EA9346"/>
<path d="M9.17773 14.6154V16.7692H11.3444V18.923H15.6777V16.7692H11.3444V14.6154H9.17773Z" fill="#E7E7E7"/>
<path d="M17.8447 14.6154V16.7692H20.0114V14.6154H17.8447Z" fill="#C54021"/>
<path d="M28.6782 14.6154V16.7692H30.7095V14.6154H28.6782Z" fill="#A9A9A9"/>
<path d="M9.17773 16.7693V21.2116H11.3444V27.5385H13.3757V29.8269H15.6777V31.8462H20.0111V23.2308H17.8444V21.2116H15.6777V23.2308H13.3757V18.9231H11.3444V16.7693H9.17773Z" fill="#D8D8D8"/>
<path d="M24.3452 16.7693V18.9231H26.3765V16.7693H24.3452Z" fill="#EAD762"/>
<path d="M26.376 16.7693V18.9231H28.6781V16.7693H26.376Z" fill="#CB4627"/>
<path d="M28.6781 16.7693V21.2116H26.376V27.5385H28.6781V21.2116H30.7093V16.7693H28.6781Z" fill="#727272"/>
<path d="M13.3765 18.9231V23.2308H15.6785V18.9231H13.3765Z" fill="white"/>
<path d="M15.6777 18.9231V21.2116H17.8444V18.9231H15.6777Z" fill="#D85334"/>
<path d="M17.8447 18.9231V21.2115H24.3447V18.9231H17.8447Z" fill="#CACACA"/>
<path d="M24.3452 18.9231V21.2116H26.3765V18.9231H24.3452Z" fill="#E99245"/>
<path d="M26.376 18.9231V21.2116H28.6781V18.9231H26.376Z" fill="#969696"/>
<path d="M17.8447 21.2115V23.2308H20.0114V29.8269H22.0426V23.2308H24.3447V21.2115H17.8447Z" fill="#A8A8A8"/>
<path d="M24.3452 21.2115V23.2308H26.3765V21.2115H24.3452Z" fill="#CB4627"/>
<path d="M15.6777 23.2307V27.5384H17.8444V23.2307H15.6777Z" fill="white"/>
<path d="M22.043 23.2307V29.8269H20.0117V31.8461H26.3763V27.5384H24.3451V25.5192H26.3763V23.2307H22.043Z" fill="#969696"/>
<path d="M24.3452 25.5193V27.5385H26.3765V25.5193H24.3452Z" fill="#CB4627"/>
<path d="M13.3765 29.8269V31.8461H15.6785V29.8269H13.3765Z" fill="#969696"/>
</g>
<rect x="1.06074" y="1.04994" width="37.9" height="37.9" rx="6.95" stroke="white" stroke-opacity="0.15" stroke-width="2.1"/>
<defs>
<filter id="filter0_d_2_2666" x="2.01074" y="1.99994" width="36" height="36.0001" filterUnits="userSpaceOnUse" color-interpolation-filters="sRGB">
<feFlood flood-opacity="0" result="BackgroundImageFix"/>
<feColorMatrix in="SourceAlpha" type="matrix" values="0 0 0 0 0 0 0 0 0 0 0 0 0 0 0 0 0 0 127 0" result="hardAlpha"/>
<feOffset/>
<feGaussianBlur stdDeviation="2"/>
<feComposite in2="hardAlpha" operator="out"/>
<feColorMatrix type="matrix" values="0 0 0 0 0 0 0 0 0 0 0 0 0 0 0 0 0 0 0.25 0"/>
<feBlend mode="normal" in2="BackgroundImageFix" result="effect1_dropShadow_2_2666"/>
<feBlend mode="normal" in="SourceGraphic" in2="effect1_dropShadow_2_2666" result="shape"/>
</filter>
<linearGradient id="paint0_linear_2_2666" x1="20.0107" y1="-6.10351e-05" x2="20.0107" y2="39.9999" gradientUnits="userSpaceOnUse">
<stop stop-color="#342C18"/>
<stop offset="1" stop-color="#251A11"/>
</linearGradient>
</defs>
</svg>
