<svg width="41" height="40" viewBox="0 0 41 40" fill="none" xmlns="http://www.w3.org/2000/svg">
<rect x="0.0107422" y="-1.52588e-05" width="40" height="40" rx="8" fill="url(#paint0_linear_2_2627)"/>
<g filter="url(#filter0_d_2_2627)">
<path d="M31.338 14.7658L19.3107 14.1667H34.0107V13H17.4016V15.4594V17.4144C17.4016 17.4459 16.9244 14.545 16.7971 13.7252H15.4926V15.8694V17.8243C15.4926 17.8558 14.9198 14.3874 14.888 13.9459C11.5789 13.9459 6.01074 13.9459 6.01074 13.9459C6.61529 14.4504 9.9562 17.2883 12.3426 18.4549C13.5198 19.0225 14.9835 19.054 16.288 19.0856C16.9562 19.1171 17.6244 19.1486 18.1335 19.6531C18.8653 20.3468 19.0244 21.4504 18.388 22.2703C17.7835 23.0901 16.0653 23.2793 16.0653 23.2793L14.6016 24.982V27H17.8789L17.9744 25.0135L20.8062 23.027C20.5198 23.2793 19.8198 23.9099 18.8335 25.4549C18.6107 25.8018 18.4198 26.1802 18.2926 26.5585C18.9926 25.9594 20.4562 25.5495 22.1744 25.5495C23.8607 25.5495 25.3244 25.9594 26.0244 26.5585C25.8971 26.1802 25.7062 25.8018 25.4835 25.4549C24.4653 23.9099 23.7971 23.2793 23.5107 23.027L26.3426 25.0135L26.438 27H29.4926V24.982L28.0607 23.2477C28.0607 23.2477 25.9289 23.1216 25.388 22.2387C23.7335 19.7793 25.9926 15.9324 31.338 14.7658Z" fill="#DFA86A"/>
</g>
<rect x="1.06074" y="1.04998" width="37.9" height="37.9" rx="6.95" stroke="white" stroke-opacity="0.15" stroke-width="2.1"/>
<defs>
<filter id="filter0_d_2_2627" x="2.01074" y="1.99998" width="36" height="36" filterUnits="userSpaceOnUse" color-interpolation-filters="sRGB">
<feFlood flood-opacity="0" result="BackgroundImageFix"/>
<feColorMatrix in="SourceAlpha" type="matrix" values="0 0 0 0 0 0 0 0 0 0 0 0 0 0 0 0 0 0 127 0" result="hardAlpha"/>
<feOffset/>
<feGaussianBlur stdDeviation="2"/>
<feComposite in2="hardAlpha" operator="out"/>
<feColorMatrix type="matrix" values="0 0 0 0 0 0 0 0 0 0 0 0 0 0 0 0 0 0 0.25 0"/>
<feBlend mode="normal" in2="BackgroundImageFix" result="effect1_dropShadow_2_2627"/>
<feBlend mode="normal" in="SourceGraphic" in2="effect1_dropShadow_2_2627" result="shape"/>
</filter>
<linearGradient id="paint0_linear_2_2627" x1="20.0107" y1="-1.52588e-05" x2="20.0107" y2="40" gradientUnits="userSpaceOnUse">
<stop stop-color="#251E17"/>
<stop offset="1" stop-color="#1B1610"/>
</linearGradient>
</defs>
</svg>
