<svg width="41" height="40" viewBox="0 0 41 40" fill="none" xmlns="http://www.w3.org/2000/svg">
<rect x="0.0107422" y="-6.10352e-05" width="40" height="40" rx="8" fill="url(#paint0_linear_2_2772)"/>
<g filter="url(#filter0_d_2_2772)">
<path fill-rule="evenodd" clip-rule="evenodd" d="M22.3865 7.39296C22.7486 8.02997 22.8441 8.78428 22.6523 9.49144C22.4605 10.1986 21.9969 10.8012 21.3625 11.168L13.1625 15.881C13.0559 15.9426 12.9673 16.0312 12.9059 16.138C12.8444 16.2447 12.8122 16.3658 12.8125 16.489V23.889C12.8122 24.0121 12.8444 24.1332 12.9059 24.24C12.9673 24.3467 13.0559 24.4354 13.1625 24.497L19.6545 28.228C19.7593 28.2884 19.8781 28.3203 19.999 28.3203C20.12 28.3203 20.2388 28.2884 20.3435 28.228L26.8345 24.499C26.9412 24.4374 27.0298 24.3487 27.0912 24.242C27.1527 24.1352 27.1849 24.0141 27.1845 23.891V19.291L21.3495 22.599C21.0349 22.7775 20.6881 22.8919 20.329 22.9357C19.9699 22.9795 19.6057 22.9519 19.2574 22.8542C18.9091 22.7566 18.5835 22.591 18.2995 22.367C18.0155 22.143 17.7786 21.865 17.6025 21.549C17.244 20.9101 17.1526 20.1554 17.3482 19.4494C17.5437 18.7434 18.0104 18.1433 18.6465 17.78L26.9955 13.042C27.5775 12.7139 28.2354 12.5443 28.9034 12.5502C29.5714 12.5562 30.2262 12.7373 30.8022 13.0757C31.3782 13.414 31.8554 13.8976 32.1859 14.4782C32.5164 15.0588 32.6887 15.7159 32.6855 16.384V24.451C32.6865 25.3777 32.4431 26.2882 31.9799 27.0909C31.5168 27.8936 30.8503 28.56 30.0475 29.023L22.5955 33.306C21.8053 33.7605 20.9097 33.9996 19.998 33.9996C19.0864 33.9996 18.1908 33.7605 17.4005 33.306L9.94855 29.022C9.1458 28.559 8.47928 27.8926 8.01615 27.0899C7.55302 26.2872 7.30964 25.3767 7.31055 24.45V15.928C7.30954 15.0012 7.55287 14.0906 8.01602 13.288C8.47916 12.4853 9.14574 11.8189 9.94855 11.356L18.6335 6.36396C18.9472 6.18394 19.2935 6.06774 19.6522 6.02204C20.011 5.97635 20.3753 6.00206 20.7241 6.09769C21.0729 6.19333 21.3994 6.35701 21.6847 6.5793C21.97 6.8016 22.2085 7.07812 22.3865 7.39296Z" fill="url(#paint1_linear_2_2772)"/>
</g>
<rect x="1.06074" y="1.04994" width="37.9" height="37.9" rx="6.95" stroke="white" stroke-opacity="0.15" stroke-width="2.1"/>
<defs>
<filter id="filter0_d_2_2772" x="2.01074" y="1.99994" width="36" height="36" filterUnits="userSpaceOnUse" color-interpolation-filters="sRGB">
<feFlood flood-opacity="0" result="BackgroundImageFix"/>
<feColorMatrix in="SourceAlpha" type="matrix" values="0 0 0 0 0 0 0 0 0 0 0 0 0 0 0 0 0 0 127 0" result="hardAlpha"/>
<feOffset/>
<feGaussianBlur stdDeviation="2"/>
<feComposite in2="hardAlpha" operator="out"/>
<feColorMatrix type="matrix" values="0 0 0 0 0 0 0 0 0 0 0 0 0 0 0 0 0 0 0.25 0"/>
<feBlend mode="normal" in2="BackgroundImageFix" result="effect1_dropShadow_2_2772"/>
<feBlend mode="normal" in="SourceGraphic" in2="effect1_dropShadow_2_2772" result="shape"/>
</filter>
<linearGradient id="paint0_linear_2_2772" x1="-0.176174" y1="40" x2="14.7619" y2="6.59675" gradientUnits="userSpaceOnUse">
<stop stop-color="#331C00"/>
<stop offset="1" stop-color="#392916"/>
</linearGradient>
<linearGradient id="paint1_linear_2_2772" x1="26.3795" y1="10.214" x2="13.2476" y2="30.741" gradientUnits="userSpaceOnUse">
<stop stop-color="#FFB45B"/>
<stop offset="1" stop-color="#FF8A00"/>
</linearGradient>
</defs>
</svg>
