<svg width="41" height="40" viewBox="0 0 41 40" fill="none" xmlns="http://www.w3.org/2000/svg">
<rect x="0.0107422" y="-2.28882e-05" width="40" height="40" rx="8" fill="url(#paint0_linear_2_2633)"/>
<g filter="url(#filter0_d_2_2633)">
<path d="M8.51025 16.2608V12.7929C8.55558 12.7901 8.6003 12.7301 8.64315 12.7149C9.39066 12.3347 10.1305 11.937 10.8876 11.5787C11.1145 11.4707 11.1975 11.3652 11.1927 11.1105C11.1759 10.1838 11.186 9.25657 11.1865 8.32938C11.1865 8.04446 11.1865 8.04203 11.4221 7.92291C12.3989 7.42747 13.3777 6.93495 14.3536 6.43756C14.6275 6.29851 14.9245 6.20321 15.1644 5.99998H15.3813C15.3899 6.02088 15.3928 6.05297 15.4077 6.06075C16.6469 6.68407 17.8877 7.30349 19.1246 7.93118C19.1999 7.96959 19.2277 7.97251 19.304 7.93118C19.72 7.71385 20.1489 7.52082 20.5625 7.29911C20.6762 7.23785 20.7328 7.24709 20.8412 7.30787C21.1617 7.48873 21.4976 7.64043 21.8291 7.80622C22.0426 7.91368 22.0426 7.91805 22.2249 7.82178C22.5325 7.65939 22.8376 7.49262 23.1452 7.33072C23.3625 7.21646 23.3851 7.21646 23.5861 7.31856C24.8016 7.93863 26.018 8.55871 27.2354 9.17878C28.5821 9.86238 29.9318 10.5401 31.2756 11.2301C31.3596 11.2729 31.4316 11.2656 31.5102 11.2763V21.5381C31.4316 21.5488 31.3596 21.5415 31.2756 21.5843C29.6923 22.3943 28.109 23.2024 26.5123 23.9905C26.2465 24.1218 26.1482 24.2633 26.1506 24.5676C26.1649 26.6923 26.1544 28.817 26.164 30.9413C26.164 31.1523 26.1031 31.2651 25.9193 31.3502C25.5643 31.5145 25.2179 31.6978 24.8681 31.8733C24.8417 31.8864 24.8163 31.902 24.7908 31.9166C24.8236 31.924 24.8557 31.9342 24.8868 31.9472C25.2649 32.1417 25.641 32.341 26.0225 32.5307C26.0906 32.5647 26.0867 32.5793 26.0392 32.6162C26.0018 32.6409 25.9625 32.6626 25.9217 32.6809C25.3426 32.9726 24.7577 33.2556 24.1873 33.5658C23.9272 33.7073 23.635 33.7938 23.4095 34H23.3376C23.2713 33.9465 23.2014 33.8978 23.1284 33.8541C20.5247 32.5329 17.9205 31.2129 15.3155 29.894C15.2915 29.8795 15.2686 29.8632 15.2469 29.8454C15.2676 29.8366 15.2887 29.8293 15.3083 29.8191C16.1264 29.4039 16.9459 28.9926 17.761 28.5705C17.8289 28.5299 17.9064 28.5084 17.9853 28.5084C18.0642 28.5084 18.1417 28.5299 18.2096 28.5705C18.5814 28.7699 18.9605 28.9551 19.3366 29.1462C19.7161 28.9551 20.0961 28.765 20.4747 28.572C20.5054 28.5564 20.5299 28.5015 20.5534 28.5039C20.6671 28.5151 20.6623 28.4456 20.6618 28.3678C20.6618 27.9161 20.6589 27.4644 20.6618 27.0127C20.6618 26.9238 20.6244 26.9155 20.55 26.8771C19.9263 26.5717 19.3126 26.2489 18.6942 25.9348C16.6992 24.9216 14.7037 23.9099 12.7074 22.8999C12.6062 22.8484 12.5529 22.8051 12.5549 22.6734C12.564 21.9168 12.5573 21.1598 12.5606 20.4033C12.5606 20.2705 12.5289 20.1986 12.3927 20.1373C12.0568 19.9866 11.7383 19.7941 11.4053 19.6346C11.2613 19.5656 11.1726 19.5072 11.1788 19.3152C11.1961 18.7667 11.1788 18.2168 11.1908 17.6679C11.1942 17.5371 11.1328 17.5167 11.0469 17.4734C10.2792 17.0879 9.50629 16.7023 8.74391 16.3065C8.66139 16.2633 8.59134 16.2715 8.51025 16.2608ZM24.7122 27.7333V25.0246C24.7122 24.941 24.7299 24.905 24.61 24.9668C23.8653 25.3504 23.1102 25.7141 22.3588 26.0851C22.2585 26.1337 22.1151 26.1638 22.0709 26.246C22.0162 26.352 22.0402 26.5012 22.0354 26.632C22.0311 26.7414 22.0354 26.8513 22.0354 26.9612C22.0354 27.6691 22.0354 28.3765 22.0378 29.0845C22.0378 29.1817 22.0062 29.2104 21.9169 29.2527C21.5432 29.4297 21.1795 29.629 20.8134 29.8206C20.7896 29.8354 20.7667 29.8516 20.7448 29.8692C20.7654 29.8779 20.7865 29.8857 20.8067 29.8954C21.6362 30.3107 22.4668 30.722 23.2929 31.146C23.362 31.1814 23.3827 31.1853 23.4546 31.146C23.8198 30.9515 24.1916 30.7711 24.5663 30.597C24.6738 30.5484 24.7174 30.4969 24.7165 30.3695C24.7083 29.4904 24.7122 28.6119 24.7122 27.7333Z" fill="#4E84C4"/>
</g>
<rect x="1.06074" y="1.04998" width="37.9" height="37.9" rx="6.95" stroke="white" stroke-opacity="0.15" stroke-width="2.1"/>
<defs>
<filter id="filter0_d_2_2633" x="2.01074" y="1.99998" width="36" height="36" filterUnits="userSpaceOnUse" color-interpolation-filters="sRGB">
<feFlood flood-opacity="0" result="BackgroundImageFix"/>
<feColorMatrix in="SourceAlpha" type="matrix" values="0 0 0 0 0 0 0 0 0 0 0 0 0 0 0 0 0 0 127 0" result="hardAlpha"/>
<feOffset/>
<feGaussianBlur stdDeviation="2"/>
<feComposite in2="hardAlpha" operator="out"/>
<feColorMatrix type="matrix" values="0 0 0 0 0 0 0 0 0 0 0 0 0 0 0 0 0 0 0.25 0"/>
<feBlend mode="normal" in2="BackgroundImageFix" result="effect1_dropShadow_2_2633"/>
<feBlend mode="normal" in="SourceGraphic" in2="effect1_dropShadow_2_2633" result="shape"/>
</filter>
<linearGradient id="paint0_linear_2_2633" x1="20.0107" y1="-2.28882e-05" x2="20.0107" y2="40" gradientUnits="userSpaceOnUse">
<stop stop-color="#131F2E"/>
<stop offset="1" stop-color="#0C141E"/>
</linearGradient>
</defs>
</svg>
