<svg width="41" height="40" viewBox="0 0 41 40" fill="none" xmlns="http://www.w3.org/2000/svg">
<rect x="0.0107422" y="-6.10352e-05" width="40" height="40" rx="8" fill="url(#paint0_linear_2_2778)"/>
<g filter="url(#filter0_d_2_2778)">
<path d="M18.9715 25.0365L15.2812 25.7021L22.6617 29.6958L23.8918 27.6989L18.9715 25.0365Z" fill="#9C9C9C"/>
<path d="M18.9717 25.0366L23.892 27.699V25.0366L18.9717 22.3741V25.0366Z" fill="#7E7E7E"/>
<path d="M31.2723 17.0492V30.3616L11.5908 19.7121V6.39966L31.2723 17.0492Z" fill="#6A6A6A"/>
<path d="M12.3289 5.99994L11.5908 6.3993L31.2723 17.0488L32.0103 16.6494L12.3289 5.99994Z" fill="#9C9C9C"/>
<path d="M31.2725 30.3616L32.0105 29.9622V16.6498L31.2725 17.0491V30.3616Z" fill="#7E7E7E"/>
<path d="M12.8213 8.39612L30.0423 17.7149V28.3644L12.8213 19.0456V8.39612Z" fill="white"/>
<path d="M11.701 25.0809L8.01074 27.3439L20.3116 34L24.0018 31.7369L11.701 25.0809Z" fill="#7E7E7E"/>
<path d="M20.3115 33.9999L24.0018 32.0031V31.7368L20.3115 33.9999Z" fill="#2D2D2D"/>
</g>
<rect x="1.06074" y="1.04994" width="37.9" height="37.9" rx="6.95" stroke="white" stroke-opacity="0.15" stroke-width="2.1"/>
<defs>
<filter id="filter0_d_2_2778" x="2.01074" y="1.99994" width="36" height="36.0001" filterUnits="userSpaceOnUse" color-interpolation-filters="sRGB">
<feFlood flood-opacity="0" result="BackgroundImageFix"/>
<feColorMatrix in="SourceAlpha" type="matrix" values="0 0 0 0 0 0 0 0 0 0 0 0 0 0 0 0 0 0 127 0" result="hardAlpha"/>
<feOffset/>
<feGaussianBlur stdDeviation="2"/>
<feComposite in2="hardAlpha" operator="out"/>
<feColorMatrix type="matrix" values="0 0 0 0 0 0 0 0 0 0 0 0 0 0 0 0 0 0 0.25 0"/>
<feBlend mode="normal" in2="BackgroundImageFix" result="effect1_dropShadow_2_2778"/>
<feBlend mode="normal" in="SourceGraphic" in2="effect1_dropShadow_2_2778" result="shape"/>
</filter>
<linearGradient id="paint0_linear_2_2778" x1="0.0108232" y1="40" x2="13.893" y2="5.6026" gradientUnits="userSpaceOnUse">
<stop stop-color="#161616"/>
<stop offset="1" stop-color="#2D2D2D"/>
</linearGradient>
</defs>
</svg>
