<svg width="41" height="40" viewBox="0 0 41 40" fill="none" xmlns="http://www.w3.org/2000/svg">
<rect x="0.0107422" y="-6.10352e-05" width="40" height="40" rx="8" fill="url(#paint0_linear_2_2804)"/>
<g filter="url(#filter0_d_2_2804)">
<path fill-rule="evenodd" clip-rule="evenodd" d="M33.7619 25.8379C33.2147 26.5404 31.8748 27.0414 31.8748 27.0414L21.9063 30.6864V27.9984L29.2424 25.3375C30.0749 25.0337 30.2028 24.6046 29.5261 24.3791C28.8507 24.1531 27.6276 24.2179 26.7946 24.5229L21.9063 26.2755V23.4857L22.1881 23.3887C22.1881 23.3887 23.6006 22.8798 25.5869 22.6558C27.573 22.4331 30.0049 22.6861 31.9142 23.4229C34.0658 24.1151 34.308 25.1353 33.7617 25.8379H33.7619ZM22.8553 21.2605V14.386C22.8553 13.5787 22.709 12.8355 21.9648 12.6251C21.3949 12.4392 21.0414 12.9778 21.0414 13.7845V31L16.4808 29.5264V9C18.4199 9.36638 21.245 10.2327 22.7637 10.7539C26.626 12.1038 27.9355 13.7839 27.9355 17.5695C27.9355 21.2592 25.6982 22.6576 22.8553 21.2605ZM8.11251 27.7174C5.90362 27.0841 5.53609 25.7647 6.54281 25.0046C7.47332 24.3028 9.05574 23.7745 9.05574 23.7745L15.5949 21.4075V24.106L10.8892 25.8203C10.0579 26.1239 9.9301 26.5538 10.6056 26.7791C11.2816 27.0044 12.5052 26.9403 13.3377 26.636L15.5949 25.8022V28.2164C15.4517 28.2423 15.2922 28.2682 15.1446 28.2934C12.8868 28.669 10.4822 28.5122 8.11251 27.7173V27.7174Z" fill="white"/>
</g>
<rect x="1.06074" y="1.04994" width="37.9" height="37.9" rx="6.95" stroke="white" stroke-opacity="0.15" stroke-width="2.1"/>
<defs>
<filter id="filter0_d_2_2804" x="2.01074" y="1.99994" width="36" height="36" filterUnits="userSpaceOnUse" color-interpolation-filters="sRGB">
<feFlood flood-opacity="0" result="BackgroundImageFix"/>
<feColorMatrix in="SourceAlpha" type="matrix" values="0 0 0 0 0 0 0 0 0 0 0 0 0 0 0 0 0 0 127 0" result="hardAlpha"/>
<feOffset/>
<feGaussianBlur stdDeviation="2"/>
<feComposite in2="hardAlpha" operator="out"/>
<feColorMatrix type="matrix" values="0 0 0 0 0 0 0 0 0 0 0 0 0 0 0 0 0 0 0.25 0"/>
<feBlend mode="normal" in2="BackgroundImageFix" result="effect1_dropShadow_2_2804"/>
<feBlend mode="normal" in="SourceGraphic" in2="effect1_dropShadow_2_2804" result="shape"/>
</filter>
<linearGradient id="paint0_linear_2_2804" x1="0.0108133" y1="-2.67158e-06" x2="-13.8719" y2="34.3969" gradientUnits="userSpaceOnUse">
<stop stop-color="#131F33"/>
<stop offset="1" stop-color="#0D1422"/>
</linearGradient>
</defs>
</svg>
