<svg width="41" height="40" viewBox="0 0 41 40" fill="none" xmlns="http://www.w3.org/2000/svg">
<rect x="0.0107422" y="-6.10352e-05" width="40" height="40" rx="8" fill="url(#paint0_linear_2_2792)"/>
<g filter="url(#filter0_d_2_2792)">
<path fill-rule="evenodd" clip-rule="evenodd" d="M33.7619 25.8378C33.2147 26.5403 31.8748 27.0413 31.8748 27.0413L21.9063 30.6864V27.9984L29.2424 25.3374C30.0749 25.0336 30.2028 24.6045 29.5261 24.3791C28.8507 24.153 27.6276 24.2178 26.7946 24.5229L21.9063 26.2754V23.4856L22.1881 23.3886C22.1881 23.3886 23.6006 22.8797 25.5869 22.6557C27.573 22.433 30.0049 22.6861 31.9142 23.4229C34.0658 24.115 34.308 25.1353 33.7617 25.8378H33.7619ZM22.8553 21.2605V14.3859C22.8553 13.5786 22.709 12.8355 21.9648 12.625C21.3949 12.4391 21.0414 12.9777 21.0414 13.7845V30.9999L16.4808 29.5264V8.99994C18.4199 9.36632 21.245 10.2327 22.7637 10.7538C26.626 12.1037 27.9355 13.7839 27.9355 17.5695C27.9355 21.2592 25.6982 22.6576 22.8553 21.2605ZM8.11251 27.7174C5.90362 27.0841 5.53609 25.7647 6.54281 25.0046C7.47332 24.3028 9.05574 23.7744 9.05574 23.7744L15.5949 21.4074V24.106L10.8892 25.8202C10.0579 26.1239 9.9301 26.5537 10.6056 26.779C11.2816 27.0043 12.5052 26.9403 13.3377 26.6359L15.5949 25.8021V28.2163C15.4517 28.2422 15.2922 28.2681 15.1446 28.2933C12.8868 28.6689 10.4822 28.5122 8.11251 27.7172V27.7174Z" fill="white"/>
</g>
<rect x="1.06074" y="1.04994" width="37.9" height="37.9" rx="6.95" stroke="white" stroke-opacity="0.15" stroke-width="2.1"/>
<defs>
<filter id="filter0_d_2_2792" x="2.01074" y="1.99994" width="36" height="36" filterUnits="userSpaceOnUse" color-interpolation-filters="sRGB">
<feFlood flood-opacity="0" result="BackgroundImageFix"/>
<feColorMatrix in="SourceAlpha" type="matrix" values="0 0 0 0 0 0 0 0 0 0 0 0 0 0 0 0 0 0 127 0" result="hardAlpha"/>
<feOffset/>
<feGaussianBlur stdDeviation="2"/>
<feComposite in2="hardAlpha" operator="out"/>
<feColorMatrix type="matrix" values="0 0 0 0 0 0 0 0 0 0 0 0 0 0 0 0 0 0 0.25 0"/>
<feBlend mode="normal" in2="BackgroundImageFix" result="effect1_dropShadow_2_2792"/>
<feBlend mode="normal" in="SourceGraphic" in2="effect1_dropShadow_2_2792" result="shape"/>
</filter>
<linearGradient id="paint0_linear_2_2792" x1="0.0108133" y1="-2.67158e-06" x2="-13.8719" y2="34.3969" gradientUnits="userSpaceOnUse">
<stop stop-color="#131F33"/>
<stop offset="1" stop-color="#0D1422"/>
</linearGradient>
</defs>
</svg>
