<svg width="41" height="40" viewBox="0 0 41 40" fill="none" xmlns="http://www.w3.org/2000/svg">
<rect x="0.0107422" y="-6.10352e-05" width="40" height="40" rx="8" fill="url(#paint0_linear_2_2746)"/>
<g filter="url(#filter0_d_2_2746)">
<path d="M26.4907 9.66559L20.9673 12.7961L26.4966 15.9209L32.02 12.7904L26.4907 9.66559Z" stroke="url(#paint1_linear_2_2746)" stroke-width="0.6" stroke-linejoin="round"/>
<path d="M20.0005 5.99994L14.4741 9.13044L20.0034 12.2524L25.5297 9.12472L20.0005 5.99994Z" stroke="url(#paint2_linear_2_2746)" stroke-width="0.6" stroke-linejoin="round"/>
<path d="M13.5161 9.67413L7.98975 12.8018L13.519 15.9266L19.0424 12.7989L13.5161 9.67413Z" stroke="url(#paint3_linear_2_2746)" stroke-width="0.6" stroke-linejoin="round"/>
<path d="M20.0058 13.3397L14.4795 16.4702L20.0088 19.5921L25.5351 16.4645L20.0058 13.3397Z" stroke="url(#paint4_linear_2_2746)" stroke-width="0.6" stroke-linejoin="round"/>
<path d="M7.51025 13.6172L7.51317 19.8725L13.0424 22.9945L13.0395 16.742L7.51025 13.6172Z" stroke="url(#paint5_linear_2_2746)" stroke-width="0.6" stroke-linejoin="round"/>
<path d="M14.001 17.2858L14.0039 23.5382L19.5332 26.663L19.5302 20.4105L14.001 17.2858Z" stroke="url(#paint6_linear_2_2746)" stroke-width="0.6" stroke-linejoin="round"/>
<path d="M7.51367 20.9572L7.51659 27.2096L13.0459 30.3315L13.0429 24.0791L7.51367 20.9572Z" stroke="url(#paint7_linear_2_2746)" stroke-width="0.6" stroke-linejoin="round"/>
<path d="M14.0034 24.6255L14.0063 30.8779L19.5356 33.9998L19.5327 27.7474L14.0034 24.6255Z" stroke="url(#paint8_linear_2_2746)" stroke-width="0.6" stroke-linejoin="round"/>
<path d="M20.4966 33.9999L26.0229 30.8722L26.02 24.6198L20.4937 27.7475L20.4966 33.9999Z" stroke="url(#paint9_linear_2_2746)" stroke-width="0.6" stroke-linejoin="round"/>
<path d="M26.9844 30.3257L32.5107 27.198L32.5049 20.9456L26.9814 24.0733L26.9844 30.3257Z" stroke="url(#paint10_linear_2_2746)" stroke-width="0.6" stroke-linejoin="round"/>
<path d="M26.9785 22.9859L32.5049 19.8583L32.5019 13.6058L26.9756 16.7335L26.9785 22.9859Z" stroke="url(#paint11_linear_2_2746)" stroke-width="0.6" stroke-linejoin="round"/>
<path d="M20.4912 20.4077L20.4941 26.6602L26.0176 23.5325L26.0146 17.2801L20.4912 20.4077Z" stroke="url(#paint12_linear_2_2746)" stroke-width="0.6" stroke-linejoin="round"/>
</g>
<rect x="1.06074" y="1.04994" width="37.9" height="37.9" rx="6.95" stroke="white" stroke-opacity="0.15" stroke-width="2.1"/>
<defs>
<filter id="filter0_d_2_2746" x="2.01074" y="1.69995" width="36" height="36.5999" filterUnits="userSpaceOnUse" color-interpolation-filters="sRGB">
<feFlood flood-opacity="0" result="BackgroundImageFix"/>
<feColorMatrix in="SourceAlpha" type="matrix" values="0 0 0 0 0 0 0 0 0 0 0 0 0 0 0 0 0 0 127 0" result="hardAlpha"/>
<feOffset/>
<feGaussianBlur stdDeviation="2"/>
<feComposite in2="hardAlpha" operator="out"/>
<feColorMatrix type="matrix" values="0 0 0 0 0 0 0 0 0 0 0 0 0 0 0 0 0 0 0.25 0"/>
<feBlend mode="normal" in2="BackgroundImageFix" result="effect1_dropShadow_2_2746"/>
<feBlend mode="normal" in="SourceGraphic" in2="effect1_dropShadow_2_2746" result="shape"/>
</filter>
<linearGradient id="paint0_linear_2_2746" x1="0.0107423" y1="6.00747e-05" x2="43.8584" y2="4.79182" gradientUnits="userSpaceOnUse">
<stop stop-color="#092230"/>
<stop offset="1" stop-color="#200521"/>
</linearGradient>
<linearGradient id="paint1_linear_2_2746" x1="5.43393" y1="5.69952" x2="34.0431" y2="34.9024" gradientUnits="userSpaceOnUse">
<stop offset="0.15" stop-color="#25B8FF"/>
<stop offset="0.85" stop-color="#FA02FF"/>
</linearGradient>
<linearGradient id="paint2_linear_2_2746" x1="5.43393" y1="5.69948" x2="34.0431" y2="34.9023" gradientUnits="userSpaceOnUse">
<stop offset="0.15" stop-color="#25B8FF"/>
<stop offset="0.85" stop-color="#FA02FF"/>
</linearGradient>
<linearGradient id="paint3_linear_2_2746" x1="5.43396" y1="5.69948" x2="34.0432" y2="34.9023" gradientUnits="userSpaceOnUse">
<stop offset="0.15" stop-color="#25B8FF"/>
<stop offset="0.85" stop-color="#FA02FF"/>
</linearGradient>
<linearGradient id="paint4_linear_2_2746" x1="5.43346" y1="5.69946" x2="34.0426" y2="34.9023" gradientUnits="userSpaceOnUse">
<stop offset="0.15" stop-color="#25B8FF"/>
<stop offset="0.85" stop-color="#FA02FF"/>
</linearGradient>
<linearGradient id="paint5_linear_2_2746" x1="5.43349" y1="5.69942" x2="34.0427" y2="34.9023" gradientUnits="userSpaceOnUse">
<stop offset="0.15" stop-color="#25B8FF"/>
<stop offset="0.85" stop-color="#FA02FF"/>
</linearGradient>
<linearGradient id="paint6_linear_2_2746" x1="5.43397" y1="5.69946" x2="34.0432" y2="34.9023" gradientUnits="userSpaceOnUse">
<stop offset="0.15" stop-color="#25B8FF"/>
<stop offset="0.85" stop-color="#FA02FF"/>
</linearGradient>
<linearGradient id="paint7_linear_2_2746" x1="5.43399" y1="5.69951" x2="34.0432" y2="34.9024" gradientUnits="userSpaceOnUse">
<stop offset="0.15" stop-color="#25B8FF"/>
<stop offset="0.85" stop-color="#FA02FF"/>
</linearGradient>
<linearGradient id="paint8_linear_2_2746" x1="5.43349" y1="5.69937" x2="34.0427" y2="34.9022" gradientUnits="userSpaceOnUse">
<stop offset="0.15" stop-color="#25B8FF"/>
<stop offset="0.85" stop-color="#FA02FF"/>
</linearGradient>
<linearGradient id="paint9_linear_2_2746" x1="5.43348" y1="5.69942" x2="34.0427" y2="34.9023" gradientUnits="userSpaceOnUse">
<stop offset="0.15" stop-color="#25B8FF"/>
<stop offset="0.85" stop-color="#FA02FF"/>
</linearGradient>
<linearGradient id="paint10_linear_2_2746" x1="5.43395" y1="5.69943" x2="34.0431" y2="34.9023" gradientUnits="userSpaceOnUse">
<stop offset="0.15" stop-color="#25B8FF"/>
<stop offset="0.85" stop-color="#FA02FF"/>
</linearGradient>
<linearGradient id="paint11_linear_2_2746" x1="5.43393" y1="5.69945" x2="34.0431" y2="34.9023" gradientUnits="userSpaceOnUse">
<stop offset="0.15" stop-color="#25B8FF"/>
<stop offset="0.85" stop-color="#FA02FF"/>
</linearGradient>
<linearGradient id="paint12_linear_2_2746" x1="5.43396" y1="5.69951" x2="34.0432" y2="34.9024" gradientUnits="userSpaceOnUse">
<stop offset="0.15" stop-color="#25B8FF"/>
<stop offset="0.85" stop-color="#FA02FF"/>
</linearGradient>
</defs>
</svg>
