<svg width="41" height="40" viewBox="0 0 41 40" fill="none" xmlns="http://www.w3.org/2000/svg">
<g clip-path="url(#clip0_2_2645)">
<rect x="0.0107422" y="-4.57764e-05" width="40" height="40" rx="8" fill="url(#paint0_linear_2_2645)"/>
<g filter="url(#filter0_d_2_2645)">
<path d="M13.7953 9.87545C13.7954 10.0066 13.8476 10.1324 13.9403 10.2252C14.0331 10.3179 14.1589 10.3701 14.2901 10.3702H15.1315V12.2509H14.2901C14.1588 12.2509 14.033 12.3031 13.9402 12.3959C13.8474 12.4887 13.7953 12.6145 13.7953 12.7457C13.7953 12.877 13.8474 13.0028 13.9402 13.0956C14.033 13.1884 14.1588 13.2405 14.2901 13.2405H15.1315V14.6828C15.1315 14.7991 15.0853 14.9106 15.0031 14.9928C14.9208 15.075 14.8093 15.1212 14.6931 15.1212H13.2508V14.2798C13.2508 14.1486 13.1986 14.0228 13.1059 13.93C13.0131 13.8372 12.8872 13.785 12.756 13.785C12.6248 13.785 12.4989 13.8372 12.4061 13.93C12.3133 14.0228 12.2612 14.1486 12.2612 14.2798V15.1212H10.3805V14.2798C10.3805 14.1486 10.3284 14.0228 10.2356 13.93C10.1428 13.8372 10.0169 13.785 9.88572 13.785C9.7545 13.785 9.62865 13.8372 9.53585 13.93C9.44306 14.0228 9.39093 14.1486 9.39093 14.2798V15.1212H7.94863C7.83241 15.1211 7.72098 15.0749 7.63879 14.9927C7.55661 14.9105 7.51038 14.7991 7.51025 14.6828V7.93834C7.51025 7.82207 7.55644 7.71057 7.63865 7.62835C7.72086 7.54614 7.83237 7.49995 7.94863 7.49995H14.6931C14.7507 7.49989 14.8077 7.51119 14.8609 7.5332C14.9141 7.5552 14.9625 7.58749 15.0032 7.62821C15.0439 7.66893 15.0762 7.71729 15.0982 7.7705C15.1202 7.82372 15.1315 7.88075 15.1315 7.93834V9.38018H14.2901C14.1588 9.3803 14.0329 9.43254 13.9402 9.52541C13.8474 9.61827 13.7953 9.74418 13.7953 9.87545Z" fill="#9722FF"/>
<path d="M22.4057 9.87542C22.4057 10.0066 22.4578 10.1325 22.5506 10.2253C22.6434 10.3181 22.7692 10.3702 22.9005 10.3702H23.7442V12.2509H22.9028C22.7716 12.2509 22.6458 12.303 22.553 12.3958C22.4602 12.4886 22.4081 12.6145 22.4081 12.7457C22.4081 12.8769 22.4602 13.0028 22.553 13.0956C22.6458 13.1884 22.7716 13.2405 22.9028 13.2405H23.7442V14.6828C23.7441 14.799 23.6979 14.9105 23.6157 14.9927C23.5335 15.0748 23.4221 15.1211 23.3058 15.1212H16.5605C16.4442 15.1212 16.3327 15.075 16.2505 14.9928C16.1683 14.9106 16.1221 14.7991 16.1221 14.6828V13.2405H16.963C17.0942 13.2405 17.2201 13.1884 17.3128 13.0956C17.4056 13.0028 17.4578 12.8769 17.4578 12.7457C17.4578 12.6145 17.4056 12.4886 17.3128 12.3958C17.2201 12.303 17.0942 12.2509 16.963 12.2509H16.1221V10.3702H16.963C17.0293 10.3723 17.0953 10.361 17.1572 10.337C17.219 10.3131 17.2755 10.277 17.3231 10.2308C17.3707 10.1846 17.4086 10.1293 17.4344 10.0683C17.4603 10.0072 17.4736 9.94151 17.4736 9.87518C17.4736 9.80884 17.4603 9.74318 17.4344 9.6821C17.4086 9.62101 17.3707 9.56574 17.3231 9.51957C17.2755 9.4734 17.219 9.43726 17.1572 9.41331C17.0953 9.38936 17.0293 9.37808 16.963 9.38014H16.1221V7.93831C16.122 7.88072 16.1333 7.82369 16.1553 7.77047C16.1773 7.71726 16.2096 7.6689 16.2503 7.62818C16.291 7.58746 16.3394 7.55517 16.3926 7.53317C16.4458 7.51116 16.5029 7.49986 16.5605 7.49992H23.3049C23.4212 7.49992 23.5327 7.54611 23.6149 7.62832C23.6971 7.71054 23.7433 7.82204 23.7433 7.93831V9.38014H22.9019C22.8367 9.37996 22.7722 9.39263 22.712 9.41744C22.6518 9.44225 22.597 9.47871 22.5509 9.52473C22.5048 9.57074 22.4683 9.62541 22.4433 9.68559C22.4184 9.74577 22.4056 9.81028 22.4057 9.87542Z" fill="#DC29DD"/>
<path d="M32.3541 7.93831V14.6828C32.3541 14.7991 32.3079 14.9106 32.2257 14.9928C32.1435 15.075 32.032 15.1212 31.9157 15.1212H30.4734V14.2798C30.4734 14.1486 30.4213 14.0227 30.3285 13.9299C30.2357 13.8371 30.1099 13.785 29.9786 13.785C29.8474 13.785 29.7216 13.8371 29.6288 13.9299C29.536 14.0227 29.4838 14.1486 29.4838 14.2798V15.1212H27.6032V14.2798C27.6032 14.1486 27.551 14.0227 27.4582 13.9299C27.3655 13.8371 27.2396 13.785 27.1084 13.785C26.9772 13.785 26.8513 13.8371 26.7585 13.9299C26.6657 14.0227 26.6136 14.1486 26.6136 14.2798V15.1212H25.1713C25.0551 15.1211 24.9436 15.0748 24.8614 14.9927C24.7793 14.9105 24.733 14.799 24.7329 14.6828V13.2405H25.5743C25.7055 13.2405 25.8314 13.1884 25.9242 13.0956C26.017 13.0028 26.0691 12.8769 26.0691 12.7457C26.0691 12.6145 26.017 12.4886 25.9242 12.3958C25.8314 12.303 25.7055 12.2509 25.5743 12.2509H24.7329V10.3702H25.5743C25.7029 10.3662 25.8249 10.3123 25.9145 10.2199C26.0041 10.1275 26.0542 10.0039 26.0542 9.87518C26.0542 9.74649 26.0041 9.62285 25.9145 9.53045C25.8249 9.43805 25.7029 9.38414 25.5743 9.38014H24.7329V7.93831C24.7329 7.82204 24.7791 7.71054 24.8613 7.62832C24.9435 7.54611 25.055 7.49992 25.1713 7.49992H31.9157C31.9733 7.49986 32.0303 7.51116 32.0836 7.53317C32.1368 7.55517 32.1851 7.58746 32.2259 7.62818C32.2666 7.6689 32.2989 7.71726 32.3209 7.77047C32.3429 7.82369 32.3542 7.88072 32.3541 7.93831Z" fill="#27A2FD"/>
<path d="M15.1315 16.5492V23.2937C15.1315 23.3513 15.1202 23.4083 15.0982 23.4615C15.0762 23.5147 15.0439 23.5631 15.0032 23.6038C14.9625 23.6445 14.9141 23.6768 14.8609 23.6988C14.8077 23.7208 14.7507 23.7321 14.6931 23.7321H13.2508V22.8907C13.2508 22.7595 13.1986 22.6336 13.1059 22.5408C13.0131 22.448 12.8872 22.3959 12.756 22.3959C12.6248 22.3959 12.4989 22.448 12.4061 22.5408C12.3133 22.6336 12.2612 22.7595 12.2612 22.8907V23.733H10.3805V22.8916C10.3805 22.7604 10.3284 22.6346 10.2356 22.5418C10.1428 22.449 10.0169 22.3968 9.88572 22.3968C9.7545 22.3968 9.62865 22.449 9.53585 22.5418C9.44306 22.6346 9.39093 22.7604 9.39093 22.8916V23.733H7.94863C7.83237 23.733 7.72086 23.6868 7.63865 23.6046C7.55644 23.5224 7.51025 23.4109 7.51025 23.2946V16.5492C7.51038 16.433 7.55661 16.3215 7.63879 16.2393C7.72098 16.1571 7.83241 16.1109 7.94863 16.1108H9.39093V16.9522C9.39093 17.0834 9.44306 17.2093 9.53585 17.3021C9.62865 17.3948 9.7545 17.447 9.88572 17.447C10.0169 17.447 10.1428 17.3948 10.2356 17.3021C10.3284 17.2093 10.3805 17.0834 10.3805 16.9522V16.1108H12.2612V16.9522C12.2612 17.0834 12.3133 17.2093 12.4061 17.3021C12.4989 17.3948 12.6248 17.447 12.756 17.447C12.8872 17.447 13.0131 17.3948 13.1059 17.3021C13.1986 17.2093 13.2508 17.0834 13.2508 16.9522V16.1108H14.6931C14.7506 16.1108 14.8076 16.1221 14.8608 16.1442C14.914 16.1662 14.9623 16.1985 15.0031 16.2392C15.0438 16.2799 15.0761 16.3282 15.0981 16.3814C15.1201 16.4346 15.1315 16.4916 15.1315 16.5492Z" fill="#DC29DD"/>
<path d="M22.4057 18.4863C22.4057 18.6175 22.4578 18.7434 22.5506 18.8362C22.6434 18.929 22.7692 18.9811 22.9005 18.9811H23.7442V20.8618H22.9028C22.7716 20.8618 22.6458 20.9139 22.553 21.0067C22.4602 21.0995 22.4081 21.2253 22.4081 21.3566C22.4081 21.4878 22.4602 21.6137 22.553 21.7064C22.6458 21.7992 22.7716 21.8514 22.9028 21.8514H23.7442V23.2937C23.7442 23.41 23.698 23.5215 23.6158 23.6037C23.5336 23.6859 23.4221 23.7321 23.3058 23.7321H21.8626V22.8907C21.8626 22.7595 21.8105 22.6336 21.7177 22.5408C21.6249 22.448 21.499 22.3959 21.3678 22.3959C21.2366 22.3959 21.1107 22.448 21.0179 22.5408C20.9251 22.6336 20.873 22.7595 20.873 22.8907V23.733H18.9923V22.8916C18.9883 22.763 18.9344 22.641 18.842 22.5514C18.7496 22.4618 18.626 22.4117 18.4973 22.4117C18.3686 22.4117 18.245 22.4618 18.1526 22.5514C18.0602 22.641 18.0063 22.763 18.0023 22.8916V23.733H16.5605C16.5029 23.7331 16.4458 23.7218 16.3926 23.6998C16.3394 23.6778 16.291 23.6455 16.2503 23.6048C16.2096 23.564 16.1773 23.5157 16.1553 23.4625C16.1333 23.4093 16.122 23.3522 16.1221 23.2946V16.5492C16.1221 16.4329 16.1683 16.3214 16.2505 16.2392C16.3327 16.157 16.4442 16.1108 16.5605 16.1108H23.3049C23.4211 16.1109 23.5325 16.1571 23.6147 16.2393C23.6969 16.3215 23.7431 16.433 23.7433 16.5492V17.9915H22.9019C22.8368 17.9913 22.7723 18.004 22.7121 18.0287C22.6519 18.0535 22.5972 18.0899 22.5511 18.1359C22.505 18.1819 22.4684 18.2365 22.4435 18.2966C22.4185 18.3567 22.4057 18.4212 22.4057 18.4863Z" fill="#27A2FD"/>
<path d="M32.3541 16.5492V23.2937C32.3542 23.3513 32.3429 23.4083 32.3209 23.4615C32.2989 23.5147 32.2666 23.5631 32.2259 23.6038C32.1851 23.6445 32.1368 23.6768 32.0836 23.6988C32.0303 23.7208 31.9733 23.7321 31.9157 23.7321H25.1713C25.055 23.7321 24.9435 23.6859 24.8613 23.6037C24.7791 23.5215 24.7329 23.41 24.7329 23.2937V21.8514H25.5743C25.7055 21.8514 25.8314 21.7992 25.9242 21.7065C26.017 21.6137 26.0691 21.4878 26.0691 21.3566C26.0691 21.2254 26.017 21.0995 25.9242 21.0067C25.8314 20.9139 25.7055 20.8618 25.5743 20.8618H24.7329V18.9811H25.5743C25.7055 18.9811 25.8314 18.929 25.9242 18.8362C26.017 18.7434 26.0691 18.6175 26.0691 18.4863C26.0691 18.3551 26.017 18.2292 25.9242 18.1364C25.8314 18.0436 25.7055 17.9915 25.5743 17.9915H24.7329V16.5492C24.733 16.433 24.7793 16.3215 24.8614 16.2393C24.9436 16.1571 25.0551 16.1109 25.1713 16.1108H26.6126V16.9522C26.6126 17.0834 26.6648 17.2093 26.7576 17.3021C26.8503 17.3949 26.9762 17.447 27.1074 17.447C27.2386 17.447 27.3645 17.3949 27.4573 17.3021C27.5501 17.2093 27.6022 17.0834 27.6022 16.9522V16.1108H29.4829V16.9522C29.4829 17.0834 29.535 17.2093 29.6278 17.3021C29.7206 17.3949 29.8465 17.447 29.9777 17.447C30.1089 17.447 30.2348 17.3949 30.3276 17.3021C30.4203 17.2093 30.4725 17.0834 30.4725 16.9522V16.1108H31.9148C31.9724 16.1107 32.0295 16.1219 32.0828 16.1439C32.1361 16.1659 32.1846 16.1981 32.2254 16.2389C32.2662 16.2796 32.2986 16.3279 32.3206 16.3812C32.3427 16.4344 32.3541 16.4915 32.3541 16.5492Z" fill="#3344FF"/>
<path d="M13.7953 27.0976C13.7954 27.2288 13.8476 27.3546 13.9403 27.4474C14.0331 27.5401 14.1589 27.5923 14.2901 27.5924H15.1315V29.4726H14.2901C14.1614 29.4766 14.0394 29.5306 13.9499 29.623C13.8603 29.7154 13.8102 29.839 13.8102 29.9677C13.8102 30.0964 13.8603 30.22 13.9499 30.3124C14.0394 30.4048 14.1614 30.4587 14.2901 30.4627H15.1315V31.905C15.1315 32.0213 15.0853 32.1328 15.0031 32.215C14.9208 32.2972 14.8093 32.3434 14.6931 32.3434H7.94863C7.83241 32.3433 7.72098 32.2971 7.63879 32.2149C7.55661 32.1327 7.51038 32.0213 7.51025 31.905V25.1605C7.51025 25.0443 7.55644 24.9328 7.63865 24.8505C7.72086 24.7683 7.83237 24.7221 7.94863 24.7221H9.39093V25.5631C9.39093 25.6943 9.44306 25.8201 9.53585 25.9129C9.62865 26.0057 9.7545 26.0578 9.88572 26.0578C10.0169 26.0578 10.1428 26.0057 10.2356 25.9129C10.3284 25.8201 10.3805 25.6943 10.3805 25.5631V24.7221H12.2612V25.5631C12.2612 25.6943 12.3133 25.8201 12.4061 25.9129C12.4989 26.0057 12.6248 26.0578 12.756 26.0578C12.8872 26.0578 13.0131 26.0057 13.1059 25.9129C13.1986 25.8201 13.2508 25.6943 13.2508 25.5631V24.7221H14.6931C14.7507 24.7221 14.8077 24.7334 14.8609 24.7554C14.9141 24.7774 14.9625 24.8097 15.0032 24.8504C15.0439 24.8911 15.0762 24.9395 15.0982 24.9927C15.1202 25.0459 15.1315 25.1029 15.1315 25.1605V26.6014H14.2901C14.225 26.6015 14.1606 26.6144 14.1005 26.6393C14.0404 26.6643 13.9858 26.7009 13.9398 26.747C13.8939 26.7931 13.8575 26.8477 13.8327 26.9079C13.8079 26.9681 13.7952 27.0326 13.7953 27.0976Z" fill="#9722FF"/>
<path d="M23.7442 25.1605V31.905C23.7441 32.0213 23.6979 32.1327 23.6157 32.2149C23.5335 32.2971 23.4221 32.3433 23.3058 32.3434H16.5605C16.4442 32.3434 16.3327 32.2972 16.2505 32.215C16.1683 32.1328 16.1221 32.0213 16.1221 31.905V30.4627H16.963C17.0293 30.4648 17.0953 30.4535 17.1572 30.4295C17.219 30.4056 17.2755 30.3695 17.3231 30.3233C17.3707 30.2771 17.4086 30.2218 17.4344 30.1608C17.4603 30.0997 17.4736 30.034 17.4736 29.9677C17.4736 29.9013 17.4603 29.8357 17.4344 29.7746C17.4086 29.7135 17.3707 29.6582 17.3231 29.6121C17.2755 29.5659 17.219 29.5298 17.1572 29.5058C17.0953 29.4819 17.0293 29.4706 16.963 29.4726H16.1221V27.5924H16.963C17.0293 27.5945 17.0953 27.5832 17.1572 27.5593C17.219 27.5353 17.2755 27.4992 17.3231 27.453C17.3707 27.4068 17.4086 27.3516 17.4344 27.2905C17.4603 27.2294 17.4736 27.1637 17.4736 27.0974C17.4736 27.0311 17.4603 26.9654 17.4344 26.9043C17.4086 26.8432 17.3707 26.788 17.3231 26.7418C17.2755 26.6956 17.219 26.6595 17.1572 26.6355C17.0953 26.6116 17.0293 26.6003 16.963 26.6024H16.1221V25.1605C16.122 25.1029 16.1333 25.0459 16.1553 24.9927C16.1773 24.9395 16.2096 24.8911 16.2503 24.8504C16.291 24.8097 16.3394 24.7774 16.3926 24.7554C16.4458 24.7334 16.5029 24.7221 16.5605 24.7221H18.0023V25.5631C18.0002 25.6294 18.0115 25.6954 18.0354 25.7573C18.0594 25.8191 18.0955 25.8755 18.1417 25.9232C18.1879 25.9708 18.2431 26.0087 18.3042 26.0345C18.3653 26.0604 18.431 26.0737 18.4973 26.0737C18.5636 26.0737 18.6293 26.0604 18.6904 26.0345C18.7515 26.0087 18.8067 25.9708 18.8529 25.9232C18.8991 25.8755 18.9352 25.8191 18.9592 25.7573C18.9831 25.6954 18.9944 25.6294 18.9923 25.5631V24.7221H20.873V25.5631C20.873 25.628 20.8858 25.6924 20.9107 25.7524C20.9355 25.8124 20.972 25.867 21.0179 25.9129C21.0639 25.9589 21.1184 25.9953 21.1785 26.0202C21.2385 26.045 21.3028 26.0578 21.3678 26.0578C21.4328 26.0578 21.4971 26.045 21.5571 26.0202C21.6172 25.9953 21.6717 25.9589 21.7177 25.9129C21.7636 25.867 21.8001 25.8124 21.8249 25.7524C21.8498 25.6924 21.8626 25.628 21.8626 25.5631V24.7221H23.3049C23.3625 24.722 23.4196 24.7333 23.4729 24.7552C23.5262 24.7772 23.5747 24.8095 23.6155 24.8502C23.6563 24.8909 23.6887 24.9393 23.7108 24.9925C23.7329 25.0458 23.7442 25.1029 23.7442 25.1605Z" fill="#3344FF"/>
<path d="M29.8119 25.0318L25.0429 29.8009C24.8717 29.9721 24.8717 30.2496 25.0429 30.4208L29.8119 35.1899C29.9831 35.3611 30.2607 35.3611 30.4319 35.1899L35.2009 30.4208C35.3721 30.2496 35.3721 29.9721 35.2009 29.8009L30.4319 25.0318C30.2607 24.8606 29.9831 24.8606 29.8119 25.0318Z" fill="#9722FF"/>
</g>
</g>
<rect x="1.06074" y="1.04995" width="37.9" height="37.9" rx="6.95" stroke="white" stroke-opacity="0.15" stroke-width="2.1"/>
<defs>
<filter id="filter0_d_2_2645" x="2.01074" y="1.99995" width="37.3184" height="37.3184" filterUnits="userSpaceOnUse" color-interpolation-filters="sRGB">
<feFlood flood-opacity="0" result="BackgroundImageFix"/>
<feColorMatrix in="SourceAlpha" type="matrix" values="0 0 0 0 0 0 0 0 0 0 0 0 0 0 0 0 0 0 127 0" result="hardAlpha"/>
<feOffset/>
<feGaussianBlur stdDeviation="2"/>
<feComposite in2="hardAlpha" operator="out"/>
<feColorMatrix type="matrix" values="0 0 0 0 0 0 0 0 0 0 0 0 0 0 0 0 0 0 0.25 0"/>
<feBlend mode="normal" in2="BackgroundImageFix" result="effect1_dropShadow_2_2645"/>
<feBlend mode="normal" in="SourceGraphic" in2="effect1_dropShadow_2_2645" result="shape"/>
</filter>
<linearGradient id="paint0_linear_2_2645" x1="20.0107" y1="-4.57764e-05" x2="20.0107" y2="39.9999" gradientUnits="userSpaceOnUse">
<stop stop-color="#260C26"/>
<stop offset="1" stop-color="#0E1C2C"/>
</linearGradient>
<clipPath id="clip0_2_2645">
<rect x="0.0107422" y="-4.57764e-05" width="40" height="40" rx="8" fill="white"/>
</clipPath>
</defs>
</svg>
