<svg width="41" height="40" viewBox="0 0 41 40" fill="none" xmlns="http://www.w3.org/2000/svg">
<rect x="0.0107422" y="-6.10352e-05" width="40" height="40" rx="8" fill="url(#paint0_linear_2_2660)"/>
<g filter="url(#filter0_d_2_2660)">
<path d="M19.5107 6.28861C19.8201 6.10998 20.2013 6.10998 20.5107 6.28861L31.6351 12.7113C31.9445 12.8899 32.1351 13.22 32.1351 13.5773V26.4226C32.1351 26.7798 31.9445 27.11 31.6351 27.2886L20.5107 33.7113C20.2013 33.8899 19.8201 33.8899 19.5107 33.7113L8.38639 27.2886C8.07699 27.11 7.88639 26.7798 7.88639 26.4226V13.5773C7.88639 13.22 8.07699 12.8899 8.38639 12.7113L19.5107 6.28861Z" fill="url(#paint1_linear_2_2660)"/>
</g>
<rect x="1.06074" y="1.04994" width="37.9" height="37.9" rx="6.95" stroke="white" stroke-opacity="0.15" stroke-width="2.1"/>
<defs>
<filter id="filter0_d_2_2660" x="2.01074" y="1.99994" width="36" height="36" filterUnits="userSpaceOnUse" color-interpolation-filters="sRGB">
<feFlood flood-opacity="0" result="BackgroundImageFix"/>
<feColorMatrix in="SourceAlpha" type="matrix" values="0 0 0 0 0 0 0 0 0 0 0 0 0 0 0 0 0 0 127 0" result="hardAlpha"/>
<feOffset/>
<feGaussianBlur stdDeviation="2"/>
<feComposite in2="hardAlpha" operator="out"/>
<feColorMatrix type="matrix" values="0 0 0 0 0 0 0 0 0 0 0 0 0 0 0 0 0 0 0.25 0"/>
<feBlend mode="normal" in2="BackgroundImageFix" result="effect1_dropShadow_2_2660"/>
<feBlend mode="normal" in="SourceGraphic" in2="effect1_dropShadow_2_2660" result="shape"/>
</filter>
<linearGradient id="paint0_linear_2_2660" x1="20.0107" y1="-6.10351e-05" x2="20.0107" y2="39.9999" gradientUnits="userSpaceOnUse">
<stop stop-color="#383838"/>
<stop offset="1" stop-color="#242424"/>
</linearGradient>
<linearGradient id="paint1_linear_2_2660" x1="6.01075" y1="6" x2="6.01074" y2="34" gradientUnits="userSpaceOnUse">
<stop stop-color="white"/>
<stop offset="1" stop-color="#B9B9B9"/>
</linearGradient>
</defs>
</svg>
