<svg width="41" height="40" viewBox="0 0 41 40" fill="none" xmlns="http://www.w3.org/2000/svg">
<rect x="0.0107422" y="-6.10352e-05" width="40" height="40" rx="8" fill="url(#paint0_linear_2_2709)"/>
<g filter="url(#filter0_d_2_2709)">
<path fill-rule="evenodd" clip-rule="evenodd" d="M20.5357 8.05885C20.2245 8.15821 19.9853 8.3381 19.7143 8.67675C19.6381 8.77193 19.5068 8.80548 19.3361 8.77337C19.1337 8.73527 18.3653 8.68555 16.3539 8.58049C15.7661 8.54975 15.6469 8.56649 15.5414 8.69414C15.2893 8.99916 15.3573 9.98191 15.6451 10.1955C15.7272 10.2564 16.1739 10.2654 16.6137 10.2151C16.8506 10.188 17.0865 10.1639 17.6284 10.1112C17.7646 10.098 17.9873 10.0761 18.1234 10.0625C18.2595 10.0489 18.5435 10.0208 18.7545 9.99995C18.9654 9.97917 19.2753 9.93363 19.443 9.89871L19.7478 9.83528L19.839 9.8964C20.1051 10.075 20.1785 10.2042 20.1405 10.428C20.0692 10.8484 20.0618 11.0797 20.0721 12.5637C20.0848 14.3961 20.1276 14.234 19.6207 14.2737C19.3037 14.2985 19.1804 14.3886 19.1249 14.6363C19.0982 14.7549 19.1044 15.8853 19.1333 16.1939C19.1515 16.3875 18.9993 16.4977 18.6511 16.5431C18.3088 16.5876 18.2262 16.7834 18.2995 17.377C18.3154 17.506 18.2369 17.6102 18.0347 17.7286C17.8511 17.8361 17.8125 18.0907 17.9567 18.2429C18.114 18.4087 18.1218 18.4914 17.9973 18.6718C17.8677 18.8595 17.8648 18.8888 17.8637 20.0371C17.8624 21.1909 17.8476 21.3794 17.7461 21.5306C17.5992 21.7492 16.8786 22.4134 16.7086 22.4867C16.6569 22.509 16.218 22.5211 15.0422 22.5328C14.1642 22.5415 13.4153 22.557 13.378 22.5673C13.227 22.6088 13.0875 22.5606 12.9523 22.42C12.7638 22.2244 12.7851 22.227 11.4907 22.2405C10.219 22.2538 10.2325 22.2556 10.2021 22.0741C10.1677 21.8697 10.1476 21.8037 10.0648 21.6238C9.90725 21.2814 9.7683 21.2145 9.32942 21.2695C9.04972 21.3045 8.98651 21.3807 8.91801 21.7655C8.83208 22.2477 8.74261 22.3487 8.48664 22.2521C8.31805 22.1886 8.29252 22.1873 7.62991 22.2101C7.58905 22.2114 7.5147 22.2053 7.46464 22.1964C7.41134 22.187 7.33431 22.1934 7.27898 22.212C7.22697 22.2295 7.1009 22.2464 6.99878 22.2495C6.54181 22.2635 6.46564 22.2869 6.3612 22.446C6.13084 22.7966 5.93613 24.7569 6.03891 25.6913C6.15601 26.7564 6.30327 27.2613 6.52351 27.3525C6.82591 27.4777 8.13267 27.5355 8.47543 27.4387L8.65271 27.3887L8.7322 27.4451C8.83599 27.5189 8.8919 27.6506 8.94145 27.9383C9.00083 28.2831 9.06231 28.3603 9.31596 28.408C9.48912 28.4406 9.72368 28.4277 9.82906 28.3798C10.0515 28.2786 10.1758 27.5863 10.0411 27.1981C9.9641 26.976 10.0217 26.9232 10.1229 27.1231C10.2651 27.4038 10.4112 27.432 11.7258 27.4321C12.9157 27.4321 12.8301 27.4528 12.9968 27.1251C13.1309 26.8616 13.1918 26.8131 13.3796 26.8199C13.4569 26.8227 14.077 26.8345 14.7576 26.8462C16.1156 26.8694 15.9865 26.8541 16.4157 27.0432C17.5398 27.5382 18.7707 27.8171 20.3136 27.9263C21.1619 27.9863 22.3289 27.9606 23.0608 27.8657C24.3767 27.6951 25.2443 27.4759 26.142 27.0872C26.7962 26.8039 27.0861 26.9541 27.2205 27.6458C27.3256 28.1866 27.3004 28.2662 26.9835 28.3947C26.5368 28.5759 26.26 28.7624 26.1942 28.9265C26.1466 29.0452 26.1688 29.1757 26.2969 29.5308C26.3312 29.6259 26.3625 29.7648 26.3666 29.8395C26.3782 30.0514 26.4 30.1384 26.4752 30.2725C26.5135 30.341 26.552 30.452 26.5609 30.5194C26.5813 30.6765 26.6412 30.8623 26.7117 30.9876C26.7455 31.0476 26.7736 31.151 26.7831 31.2506C26.8275 31.7156 27.0288 31.8511 27.7878 31.9268C27.8763 31.9356 27.975 31.9468 28.0073 31.9517C29.5498 32.1876 31.6805 31.5435 33.2125 30.3782C33.927 29.8348 34.1068 29.5772 33.9668 29.2971C33.9439 29.2512 33.9255 29.1564 33.9255 29.0835C33.9255 28.9407 33.8537 28.7201 33.7745 28.6196C33.747 28.5847 33.7198 28.5071 33.7142 28.4471C33.7034 28.3319 33.6263 28.1145 33.5657 28.0281C33.5458 27.9998 33.5296 27.9404 33.5296 27.8962C33.5296 27.8046 33.4692 27.6368 33.4006 27.5378C33.3751 27.501 33.3382 27.4171 33.3187 27.3516C33.2173 27.0113 32.6409 26.8056 32.057 26.9013C31.5567 26.9832 31.5226 26.965 31.378 26.541C30.9179 25.1914 30.2914 24.1951 29.5668 23.6605C29.2916 23.4575 29.1887 23.4106 28.159 23.0186C27.1492 22.6343 26.8937 22.5268 26.4311 22.2919C26.1545 22.1515 25.8483 21.9851 25.7505 21.9221C24.2554 20.9597 24.4167 21.2117 24.3622 19.7522C24.3256 18.7706 24.3177 18.7319 24.1254 18.5777C23.9692 18.4525 23.9465 18.3946 23.9898 18.2321C24.0644 17.9528 24.0253 17.8294 23.8177 17.6882C23.6554 17.5779 23.6331 17.5308 23.6583 17.3523C23.7432 16.7502 23.6462 16.5341 23.2729 16.4938C23.047 16.4694 22.9523 16.4392 22.8878 16.3707L22.8295 16.3087L22.8276 15.426C22.825 14.2538 22.8331 14.2715 22.2936 14.245C21.9079 14.2261 21.8191 14.2043 21.7385 14.1088L21.6749 14.0333L21.6746 12.3747C21.6745 11.4111 21.6639 10.6242 21.6493 10.4968C21.6197 10.2393 21.6234 10.2304 21.8529 10.0152C22.0283 9.85058 22.1394 9.78376 22.207 9.80209C22.6052 9.91033 22.5407 9.9052 24.7189 10.0009C26.3906 10.0743 26.3764 10.0759 26.5131 9.80281C26.6921 9.44518 26.5712 8.47766 26.3351 8.37801C26.2543 8.34395 25.9349 8.34532 25.6346 8.38111C25.4129 8.40759 25.3543 8.41409 24.2735 8.53279C22.9309 8.68021 22.9049 8.68339 22.5746 8.7409C22.2515 8.79711 22.2324 8.79084 22.047 8.56721C21.6509 8.08937 21.0612 7.891 20.5357 8.05885Z" fill="url(#paint1_linear_2_2709)"/>
</g>
<rect x="1.06074" y="1.04994" width="37.9" height="37.9" rx="6.95" stroke="white" stroke-opacity="0.15" stroke-width="2.1"/>
<defs>
<filter id="filter0_d_2_2709" x="2.01074" y="1.99994" width="36" height="36" filterUnits="userSpaceOnUse" color-interpolation-filters="sRGB">
<feFlood flood-opacity="0" result="BackgroundImageFix"/>
<feColorMatrix in="SourceAlpha" type="matrix" values="0 0 0 0 0 0 0 0 0 0 0 0 0 0 0 0 0 0 127 0" result="hardAlpha"/>
<feOffset/>
<feGaussianBlur stdDeviation="2"/>
<feComposite in2="hardAlpha" operator="out"/>
<feColorMatrix type="matrix" values="0 0 0 0 0 0 0 0 0 0 0 0 0 0 0 0 0 0 0.25 0"/>
<feBlend mode="normal" in2="BackgroundImageFix" result="effect1_dropShadow_2_2709"/>
<feBlend mode="normal" in="SourceGraphic" in2="effect1_dropShadow_2_2709" result="shape"/>
</filter>
<linearGradient id="paint0_linear_2_2709" x1="20.0107" y1="-6.10351e-05" x2="20.0107" y2="39.9999" gradientUnits="userSpaceOnUse">
<stop stop-color="#342A1D"/>
<stop offset="1" stop-color="#1C1610"/>
</linearGradient>
<linearGradient id="paint1_linear_2_2709" x1="20.0107" y1="8.00006" x2="20.0107" y2="32.0001" gradientUnits="userSpaceOnUse">
<stop stop-color="#CEA260"/>
<stop offset="1" stop-color="#81562E"/>
</linearGradient>
</defs>
</svg>
