<svg width="41" height="40" viewBox="0 0 41 40" fill="none" xmlns="http://www.w3.org/2000/svg">
<rect x="0.0107422" y="-6.10352e-05" width="40" height="40" rx="8" fill="url(#paint0_linear_2_2764)"/>
<g filter="url(#filter0_d_2_2764)">
<g clip-path="url(#clip0_2_2764)">
<path d="M32.6107 5.99994H7.41074C6.64074 5.99994 6.01074 6.62994 6.01074 7.39994V32.5999C6.01074 33.3699 6.64074 33.9999 7.41074 33.9999H9.66474C9.42674 27.6019 9.65074 26.6499 10.0987 26.0199C10.6447 25.2359 10.8687 25.1379 11.6947 24.4799C12.3947 23.9199 12.1427 23.0099 11.6387 22.3519C11.3307 21.9459 10.8967 21.4699 10.5607 21.0079C10.3507 20.6999 10.8687 18.8939 11.0647 18.2359C11.2607 17.5779 11.5967 15.4359 14.5367 14.8619C15.6427 14.6379 18.6807 14.4839 20.7667 14.6099C20.7527 14.5259 20.7247 14.4279 20.7107 14.3299C20.6687 14.1619 20.6407 13.9799 20.5987 13.7839C20.5567 13.6019 20.5147 13.4059 20.4727 13.2099C20.4307 13.0139 20.3747 12.8179 20.3327 12.6079C20.2767 12.3979 20.2347 12.2019 20.1647 11.9919C20.0527 11.5719 19.9127 11.1659 19.7447 10.7739C19.6607 10.5779 19.5767 10.3959 19.4787 10.2279C19.3807 10.0739 19.2827 9.93394 19.1987 9.87794C19.1847 9.86394 19.1707 9.84994 19.1567 9.84994H19.1427H19.1707C19.1707 9.84994 19.1847 9.84994 19.1707 9.84994L19.1287 9.83594H19.1007L19.0447 9.82194H18.9747C18.7927 9.80794 18.5967 9.80794 18.3867 9.82194C17.9807 9.84994 17.5467 9.93394 17.1267 10.0319C16.7067 10.1299 16.3007 10.2559 15.9087 10.3679C15.7407 10.4239 15.5867 10.4799 15.4327 10.5219C15.4467 10.6479 15.4607 10.7599 15.4607 10.8859C15.4607 12.7059 13.9907 14.1759 12.1707 14.1759C10.3507 14.1759 8.89474 12.7059 8.89474 10.8859C8.89474 9.06594 10.3647 7.59594 12.1847 7.59594C13.4027 7.59594 14.4667 8.25394 15.0407 9.24794C15.1807 9.19194 15.3347 9.13594 15.4887 9.07994C15.8807 8.92594 16.3147 8.77194 16.7627 8.63194C17.2247 8.49194 17.7007 8.35194 18.2327 8.28194C18.4987 8.23994 18.7787 8.22594 19.0867 8.23994H19.1987C19.2407 8.23994 19.2827 8.25394 19.3107 8.25394H19.4087L19.4507 8.26794H19.4647L19.5067 8.28194C19.5067 8.28194 19.5347 8.28194 19.5487 8.29594L19.6047 8.30994C19.6887 8.33794 19.7307 8.35194 19.7867 8.37994C19.8427 8.40794 19.8847 8.42194 19.9407 8.44994C20.0387 8.50594 20.1227 8.56194 20.2067 8.61794C20.3607 8.74394 20.4867 8.86994 20.5847 8.99594C20.6967 9.12194 20.7807 9.24794 20.8647 9.37394C21.0327 9.62594 21.1587 9.86394 21.2707 10.1019C21.4947 10.5779 21.6767 11.0539 21.8167 11.5019L22.0267 12.1739C22.0967 12.3979 22.1387 12.6079 22.1947 12.8179C22.2227 12.9159 22.2507 13.0279 22.2647 13.1259C22.2927 13.2239 22.3067 13.3219 22.3347 13.4199C22.3767 13.6159 22.4187 13.8119 22.4607 13.9939C22.5167 14.2739 22.5587 14.5399 22.6007 14.7779C25.7367 15.0859 28.1307 15.4919 29.2087 16.5699C30.7907 18.1099 32.0087 25.1099 31.2107 33.9999H32.6107C33.3807 33.9999 34.0107 33.3699 34.0107 32.5999V7.39994C34.0107 6.62994 33.3807 5.99994 32.6107 5.99994Z" fill="#F7CF0D"/>
<path d="M18.8067 25.7119C18.6247 26.2159 18.4707 32.1099 20.2067 32.1099C21.9427 32.1099 21.9567 26.0619 21.9007 25.7119C21.8447 25.3759 18.9887 25.2219 18.8067 25.7119ZM16.5107 19.9999C15.3207 19.8319 14.6067 25.6279 16.2727 25.9639C17.8407 26.2719 17.6867 20.1679 16.5107 19.9999ZM24.3227 19.9999C23.1327 19.8319 22.4187 25.6279 24.0847 25.9639C25.6527 26.2719 25.5127 20.1679 24.3227 19.9999Z" fill="#F7CF0D"/>
</g>
</g>
<rect x="1.06074" y="1.04994" width="37.9" height="37.9" rx="6.95" stroke="white" stroke-opacity="0.15" stroke-width="2.1"/>
<defs>
<filter id="filter0_d_2_2764" x="2.01074" y="1.99994" width="36" height="36" filterUnits="userSpaceOnUse" color-interpolation-filters="sRGB">
<feFlood flood-opacity="0" result="BackgroundImageFix"/>
<feColorMatrix in="SourceAlpha" type="matrix" values="0 0 0 0 0 0 0 0 0 0 0 0 0 0 0 0 0 0 127 0" result="hardAlpha"/>
<feOffset/>
<feGaussianBlur stdDeviation="2"/>
<feComposite in2="hardAlpha" operator="out"/>
<feColorMatrix type="matrix" values="0 0 0 0 0 0 0 0 0 0 0 0 0 0 0 0 0 0 0.25 0"/>
<feBlend mode="normal" in2="BackgroundImageFix" result="effect1_dropShadow_2_2764"/>
<feBlend mode="normal" in="SourceGraphic" in2="effect1_dropShadow_2_2764" result="shape"/>
</filter>
<linearGradient id="paint0_linear_2_2764" x1="20.0107" y1="-6.10351e-05" x2="20.0107" y2="39.9999" gradientUnits="userSpaceOnUse">
<stop stop-color="#353518"/>
<stop offset="1" stop-color="#241F10"/>
</linearGradient>
<clipPath id="clip0_2_2764">
<rect width="28" height="28" fill="white" transform="translate(6.01074 5.99994)"/>
</clipPath>
</defs>
</svg>
