<svg width="41" height="40" viewBox="0 0 41 40" fill="none" xmlns="http://www.w3.org/2000/svg">
<rect x="0.0107422" y="-6.10352e-05" width="40" height="40" rx="8" fill="url(#paint0_linear_2_2810)"/>
<g filter="url(#filter0_d_2_2810)">
<path d="M12.0052 6.0929C9.21611 6.59147 6.97207 8.65533 6.26465 11.3685C6.00951 12.3482 5.99212 12.9222 6.02111 20.5225C6.0385 27.5025 6.0443 27.6648 6.16027 28.204C6.80391 31.1085 8.8682 33.1781 11.8023 33.8622C12.185 33.9492 12.672 33.9666 15.8091 33.9839C19.0562 34.0071 19.3926 34.0013 19.4795 33.9144C19.5665 33.8274 19.5723 32.7085 19.5723 20.0239C19.5723 10.6206 19.5549 6.19145 19.5143 6.11029C19.4563 6.00594 19.3578 6.00014 15.9598 6.00594C13.1997 6.01174 12.3705 6.02913 12.0052 6.0929ZM17.2529 20.0065V31.752L14.8929 31.723C12.7184 31.6998 12.4865 31.6882 12.0516 31.578C10.1845 31.0969 8.79861 29.6591 8.41011 27.7866C8.28254 27.2011 8.28254 12.7772 8.40431 12.2033C8.75222 10.5743 9.88294 9.22347 11.408 8.61475C12.1734 8.30749 12.5271 8.2727 15.0089 8.2669L17.2529 8.26111V20.0065Z" fill="white"/>
<path d="M12.5038 11.8031C12.1385 11.8727 11.5818 12.151 11.2861 12.4118C10.6773 12.9394 10.3757 13.6873 10.4221 14.5685C10.4453 15.0264 10.4743 15.1482 10.6599 15.5192C10.9324 16.0816 11.3441 16.4932 11.9066 16.7714C12.2951 16.9628 12.3936 16.9859 12.8981 17.0033C13.3562 17.0207 13.5186 17.0033 13.8259 16.899C15.0842 16.4758 15.8438 15.2525 15.6292 14.0003C15.3799 12.5104 13.965 11.5132 12.5038 11.8031Z" fill="white"/>
<path d="M22.3961 6.04064C22.3729 6.05803 22.3555 12.3424 22.3555 20.0065C22.3555 32.6505 22.3613 33.9317 22.4482 33.9665C22.6048 34.0245 27.1045 34.0013 27.6611 33.9433C30.0154 33.6766 32.0912 32.2447 33.2219 30.117C33.3669 29.8446 33.5583 29.3866 33.6568 29.1025C34.0221 28.0126 34.0106 28.3025 34.0106 19.9717C34.0106 13.3221 33.999 12.3308 33.9178 11.9076C33.3437 8.88714 31.0417 6.60878 28.0149 6.08702C27.609 6.01745 26.9827 6.00006 24.9648 6.00006C23.5732 6.00006 22.4135 6.01745 22.3961 6.04064ZM28.5889 18.6673C29.4935 18.905 30.2357 19.5948 30.5372 20.476C30.7286 21.021 30.7228 21.821 30.5314 22.3196C30.1777 23.2356 29.4819 23.8791 28.5889 24.1168C27.1393 24.4936 25.5969 23.6182 25.1736 22.1805C25.046 21.7399 25.0518 20.9978 25.1968 20.5456C25.6316 19.1253 27.1393 18.2904 28.5889 18.6673Z" fill="white"/>
</g>
<rect x="1.06074" y="1.04994" width="37.9" height="37.9" rx="6.95" stroke="white" stroke-opacity="0.15" stroke-width="2.1"/>
<defs>
<filter id="filter0_d_2_2810" x="2.01074" y="1.99994" width="36" height="36.0001" filterUnits="userSpaceOnUse" color-interpolation-filters="sRGB">
<feFlood flood-opacity="0" result="BackgroundImageFix"/>
<feColorMatrix in="SourceAlpha" type="matrix" values="0 0 0 0 0 0 0 0 0 0 0 0 0 0 0 0 0 0 127 0" result="hardAlpha"/>
<feOffset/>
<feGaussianBlur stdDeviation="2"/>
<feComposite in2="hardAlpha" operator="out"/>
<feColorMatrix type="matrix" values="0 0 0 0 0 0 0 0 0 0 0 0 0 0 0 0 0 0 0.25 0"/>
<feBlend mode="normal" in2="BackgroundImageFix" result="effect1_dropShadow_2_2810"/>
<feBlend mode="normal" in="SourceGraphic" in2="effect1_dropShadow_2_2810" result="shape"/>
</filter>
<linearGradient id="paint0_linear_2_2810" x1="0.0108133" y1="-2.67158e-06" x2="-13.8719" y2="34.3969" gradientUnits="userSpaceOnUse">
<stop stop-color="#40080B"/>
<stop offset="1" stop-color="#240507"/>
</linearGradient>
</defs>
</svg>
