<svg width="41" height="40" viewBox="0 0 41 40" fill="none" xmlns="http://www.w3.org/2000/svg">
<rect x="0.0107422" y="-6.10352e-05" width="40" height="40" rx="8" fill="url(#paint0_linear_2_2722)"/>
<g filter="url(#filter0_d_2_2722)">
<path fill-rule="evenodd" clip-rule="evenodd" d="M14.5893 6.18995C13.9998 6.83017 14.4764 7.18713 15.9218 7.18783C17.2349 7.18846 18.3987 7.36768 19.6828 7.76703C20.1835 7.9227 20.1857 7.88326 19.6421 8.504C19.0384 9.19333 18.6166 9.7176 18.2964 10.1765C18.1501 10.3863 17.9422 10.684 17.8345 10.8382C16.6206 12.5765 15.0126 16.2403 14.7664 17.829C14.7518 17.9233 14.7056 18.116 14.6638 18.2572C14.6219 18.3983 14.5459 18.7241 14.4947 18.981C14.4435 19.2379 14.3521 19.6654 14.2914 19.9311C14.2306 20.1968 14.1805 20.5121 14.1799 20.6318C14.1777 21.1046 14.125 21.1597 13.5346 21.3072C10.507 22.0633 8.02711 23.3962 6.9085 24.8687C5.36269 26.9034 5.83742 29.242 8.14504 30.9598C8.78745 31.438 9.97136 32.1242 10.4391 32.2893C10.6171 32.3522 10.8757 32.4544 11.0137 32.5165C12.0447 32.9796 14.5994 33.6383 15.8842 33.7723C16.0724 33.792 16.4399 33.8505 16.7007 33.9024C17.0173 33.9653 18.1049 33.9975 19.9744 33.9993C22.8948 34.0018 22.7167 34.0154 25.0679 33.6116C26.6935 33.3324 27.732 33.0328 29.5005 32.3327C34.3426 30.4158 35.46 26.3407 31.875 23.6733C30.3536 22.5414 27.9809 21.5683 25.6512 21.1209C25.3945 21.0717 25.0378 20.9992 24.8585 20.9598C24.6792 20.9204 24.443 20.8882 24.3336 20.8882C24.0875 20.8882 24.0651 20.4254 24.2495 19.1512C24.3126 18.715 24.419 17.9729 24.486 17.5019C24.679 16.1448 25.0485 14.3023 25.2159 13.8626C25.2607 13.7449 25.281 13.6485 25.261 13.6485C25.2411 13.6485 25.2731 13.5172 25.3323 13.3566C25.4368 13.0733 25.7944 11.9365 25.8038 11.858C25.8089 11.8157 25.9775 11.3678 26.0822 11.1186C26.1181 11.0329 26.2533 10.7037 26.3827 10.387C26.6882 9.63836 27.4363 8.38637 27.6692 8.23356C28.5213 7.67469 30.7156 7.19771 32.4737 7.18923C33.7716 7.18292 34.0107 7.0805 34.0107 6.53072C34.0107 5.71346 30.0886 5.89296 27.9452 6.80838C27.8383 6.85406 27.5608 6.96672 27.3286 7.05885C25.9736 7.59608 24.2407 11.8155 23.4392 16.5288C23.3555 17.0212 23.2666 17.5992 23.2418 17.8133C23.217 18.0274 23.165 18.4302 23.1262 18.7085C22.7686 21.2785 22.6647 26.9291 22.9698 27.225C23.161 27.4105 23.5405 27.4115 23.7848 27.2271C23.9205 27.1247 23.9453 26.9921 23.9792 26.189L24.0181 25.2683L24.7636 25.5186C25.9811 25.9274 26.701 26.4052 26.701 26.8044C26.701 27.3092 25.1525 28.1039 23.4543 28.4708C22.5682 28.6622 21.7707 28.8118 21.6075 28.8172C19.6838 28.8817 19.1373 29.1479 19.5464 29.8213L19.6999 30.074L20.3815 30.0746C21.4382 30.0753 23.0207 29.8348 24.2903 29.4804C24.5255 29.4148 24.7705 29.3477 24.8346 29.3314C26.0261 29.0288 27.3772 28.1583 27.7037 27.4831C28.3546 26.137 26.8205 24.6505 24.232 24.1193C23.9838 24.0685 23.9792 24.0597 23.9792 23.6403C23.9792 23.2698 23.9973 23.2185 24.1153 23.2539C24.1902 23.2764 24.5314 23.3675 24.8735 23.4564C30.7957 24.9943 30.9776 28.4016 25.2269 30.0769C24.9081 30.1698 24.5582 30.2607 24.4493 30.2789C24.3405 30.2971 24.1989 30.3317 24.1348 30.3557C22.8359 30.8414 17.1906 30.8414 15.8918 30.3557C15.8276 30.3317 15.6861 30.2971 15.5773 30.2789C14.8451 30.1564 13.6997 29.7452 12.7813 29.2753C9.73564 27.7168 9.79653 25.7826 12.9395 24.2482C13.7767 23.8395 13.8073 23.8397 13.7772 24.252C13.7541 24.5691 13.7355 24.5899 13.209 24.8905C11.555 25.8347 11.2181 27.2621 12.4192 28.2358C13.6351 29.2214 15.6723 29.2944 15.3824 28.3419C15.2891 28.0356 15.1067 27.8943 14.8041 27.8943C14.0252 27.8943 12.859 27.2636 12.859 26.8423C12.859 26.6991 13.4829 26.0261 13.6157 26.0261C13.6581 26.0261 13.6773 26.1075 13.6583 26.207C13.6162 26.4273 13.9706 26.8824 14.1842 26.8824C14.7262 26.8824 14.8432 26.5898 14.9159 25.053C14.9709 23.8917 15.0816 22.6658 15.2076 21.8224C15.2556 21.5012 15.3031 21.1509 15.3131 21.0439C15.3472 20.6785 15.5158 19.8382 15.7893 18.6696C16.7042 14.7607 18.1348 12.0304 21.0048 8.71573C21.4004 8.25879 21.724 7.83134 21.724 7.76584C21.724 7.49603 21.4881 7.19855 21.2005 7.10579C21.0394 7.05387 20.8726 6.98479 20.8298 6.95242C20.2782 6.53437 18.0958 6.09915 16.2806 6.04513L14.7642 5.99994L14.5893 6.18995ZM24.8943 7.16289C24.5958 7.24115 23.3038 9.2325 22.5495 10.7769C22.0548 11.7897 21.3432 13.609 21.2171 14.1834C21.2018 14.2532 21.0828 14.7203 20.9526 15.2216C20.8224 15.7228 20.663 16.4059 20.5983 16.7396C20.5336 17.0732 20.4453 17.5214 20.4021 17.7354C20.3589 17.9495 20.3098 18.2648 20.2932 18.436C20.2764 18.6073 20.2273 18.9576 20.184 19.2145C20.0522 19.9954 19.7826 22.7494 19.742 23.7297C19.7261 24.115 19.6743 25.0814 19.627 25.8773C19.5217 27.6508 19.6085 27.9539 20.199 27.8748C20.7106 27.8062 20.7661 27.617 20.8223 25.7493C20.909 22.8635 21.1821 20.1371 21.6562 17.4241C21.8835 16.1238 22.5691 13.6582 22.9335 12.8311C22.9901 12.7027 23.1301 12.3699 23.2446 12.0916C23.5449 11.3619 23.9417 10.5897 24.3976 9.84778C24.6166 9.49145 24.8307 9.14114 24.8735 9.06933C24.9163 8.99758 25.1025 8.73548 25.2873 8.48698C25.9073 7.65346 25.699 6.95179 24.8943 7.16289ZM22.8517 7.35261C22.1503 7.57324 19.6639 11.5167 18.8573 13.6874C18.5959 14.391 18.1508 15.7344 18.0191 16.2175C17.762 17.1602 17.5402 18.0727 17.4515 18.5528C17.4001 18.8311 17.3106 19.2865 17.2525 19.5648C17.1945 19.8431 17.111 20.3336 17.067 20.6547C16.9009 21.8666 16.7992 22.7064 16.804 22.8266C16.8067 22.8951 16.7617 23.3749 16.7039 23.893C16.4222 26.4191 16.5441 27.3833 17.1432 27.3663C17.571 27.3541 17.672 27.1724 17.7154 26.3369C17.7928 24.8486 18.0332 22.1554 18.1532 21.4331C18.1923 21.1976 18.2379 20.8625 18.2546 20.6884C18.2713 20.5142 18.3238 20.1814 18.3712 19.9488C18.7717 17.9839 18.8077 17.817 18.9246 17.3783C19.4767 15.3058 20.0926 13.6504 20.8896 12.0972C21.3522 11.1956 22.5824 9.31938 23.0625 8.78313C23.6516 8.12525 23.736 7.79302 23.3995 7.45623C23.1905 7.24696 23.1886 7.24661 22.8517 7.35261ZM25.7147 22.3378C27.5509 22.7685 29.3046 23.4512 30.7376 24.293C32.3786 25.2571 33.2076 27.0176 32.6257 28.3026C31.8782 29.953 28.7236 31.7668 25.6869 32.2923C25.5389 32.3179 25.2954 32.3699 25.1457 32.408C24.8636 32.4795 24.311 32.5663 23.046 32.7375C22.5845 32.8 21.4465 32.8376 20.0133 32.8376C18.58 32.8376 17.4421 32.8 16.9805 32.7375C15.7156 32.5663 15.1629 32.4795 14.8809 32.408C14.7312 32.3699 14.4876 32.3179 14.3397 32.2923C13.3503 32.1211 11.57 31.5186 10.5154 30.9981C6.0401 28.7893 6.08363 25.7746 10.6224 23.582C11.4367 23.1887 13.1127 22.5947 13.695 22.4932C14.0015 22.4396 14.0354 22.5765 13.7339 22.6501C13.6162 22.6788 13.2133 22.8347 12.8384 22.9965C7.73295 25.2006 8.36249 29.3562 14.0644 31.089C14.2354 31.141 14.5154 31.228 14.6865 31.2823C14.8575 31.3366 15.225 31.4224 15.503 31.4729C15.781 31.5235 16.1659 31.5947 16.3584 31.6312C18.3657 32.0115 21.6609 32.0115 23.6682 31.6312C23.8606 31.5947 24.2456 31.5235 24.5235 31.4729C24.8016 31.4224 25.169 31.3366 25.3401 31.2823C25.5112 31.228 25.7912 31.1408 25.9622 31.0886C32.7431 29.0172 32.0445 23.8736 24.7569 22.2136C24.5629 22.1695 24.5365 22.1491 24.6649 22.1427C24.7641 22.1377 25.2365 22.2255 25.7147 22.3378Z" fill="white"/>
</g>
<rect x="1.06074" y="1.04994" width="37.9" height="37.9" rx="6.95" stroke="white" stroke-opacity="0.15" stroke-width="2.1"/>
<defs>
<filter id="filter0_d_2_2722" x="2.01074" y="1.99994" width="36" height="36" filterUnits="userSpaceOnUse" color-interpolation-filters="sRGB">
<feFlood flood-opacity="0" result="BackgroundImageFix"/>
<feColorMatrix in="SourceAlpha" type="matrix" values="0 0 0 0 0 0 0 0 0 0 0 0 0 0 0 0 0 0 127 0" result="hardAlpha"/>
<feOffset/>
<feGaussianBlur stdDeviation="2"/>
<feComposite in2="hardAlpha" operator="out"/>
<feColorMatrix type="matrix" values="0 0 0 0 0 0 0 0 0 0 0 0 0 0 0 0 0 0 0.25 0"/>
<feBlend mode="normal" in2="BackgroundImageFix" result="effect1_dropShadow_2_2722"/>
<feBlend mode="normal" in="SourceGraphic" in2="effect1_dropShadow_2_2722" result="shape"/>
</filter>
<linearGradient id="paint0_linear_2_2722" x1="20.0107" y1="-6.10351e-05" x2="20.0107" y2="39.9999" gradientUnits="userSpaceOnUse">
<stop stop-color="#11192C"/>
<stop offset="1" stop-color="#13111D"/>
</linearGradient>
</defs>
</svg>
