<svg width="41" height="40" viewBox="0 0 41 40" fill="none" xmlns="http://www.w3.org/2000/svg">
<rect x="0.0107422" y="-0.00012207" width="40" height="40" rx="8" fill="url(#paint0_linear_2_2833)"/>
<g filter="url(#filter0_d_2_2833)">
<path d="M18.6146 33.9423C16.4578 33.7358 14.2742 32.9617 12.3984 31.7385C10.8265 30.7135 10.4715 30.2921 10.4715 29.4513C10.4715 27.7622 12.3297 24.8038 15.509 21.4312C17.3146 19.5159 19.8296 17.2708 20.1016 17.3316C20.6303 17.4497 24.8577 21.571 26.4403 23.511C28.9428 26.5789 30.0933 29.0908 29.5088 30.2107C29.0645 31.062 26.3076 32.7258 24.2822 33.365C22.6129 33.8919 20.4206 34.1152 18.6146 33.9423ZM8.34849 27.6951C7.04228 25.6923 6.38234 23.7206 6.06372 20.8688C5.95851 19.9271 5.99621 19.3885 6.30263 17.4557C6.68452 15.0467 8.05714 12.2599 9.70646 10.5448C10.4089 9.81434 10.4717 9.79654 11.3279 10.0848C12.3677 10.4349 13.4782 11.2014 15.2003 12.7578L16.2051 13.6658L15.6564 14.3395C13.1094 17.4669 10.4206 21.8997 9.40733 24.6422C8.85646 26.1332 8.63427 27.6298 8.87129 28.2528C9.03132 28.6735 8.88433 28.5167 8.34849 27.6951ZM31.2764 28.0357C31.4055 27.4062 31.2422 26.2499 30.8597 25.0837C30.0313 22.5581 27.2625 17.8597 24.7199 14.6652L23.9195 13.6596L24.7854 12.8649C25.9161 11.8273 26.7011 11.206 27.5481 10.6784C28.2165 10.262 29.1716 9.89342 29.5822 9.89342C29.8353 9.89342 30.7264 10.8177 31.4458 11.8264C32.56 13.3887 33.3797 15.2825 33.7949 17.2539C34.0633 18.5278 34.0856 21.2544 33.8382 22.5251C33.6351 23.5679 33.2063 24.9206 32.788 25.838C32.4746 26.5254 31.695 27.8604 31.3534 28.2948C31.1778 28.5182 31.1776 28.5177 31.2764 28.0357H31.2764ZM18.8456 9.41651C17.6724 8.8211 15.8626 8.18196 14.8629 8.01C14.5124 7.94972 13.9145 7.9161 13.5343 7.93529C12.7094 7.97692 12.7463 7.93381 14.0695 7.30899C15.1696 6.78953 16.0873 6.48406 17.333 6.22264C18.7343 5.92856 21.3683 5.92511 22.7474 6.21554C24.2368 6.52924 25.9907 7.18157 26.979 7.78943L27.2728 7.97009L26.5988 7.93608C25.2596 7.86849 23.3079 8.40923 21.2125 9.42843C20.5804 9.73584 20.0306 9.98137 19.9905 9.97404C19.9505 9.96671 19.4353 9.71582 18.8456 9.41651V9.41651Z" fill="white"/>
</g>
<rect x="1.06074" y="1.04988" width="37.9" height="37.9" rx="6.95" stroke="white" stroke-opacity="0.15" stroke-width="2.1"/>
<defs>
<filter id="filter0_d_2_2833" x="2.01074" y="1.99988" width="36" height="36" filterUnits="userSpaceOnUse" color-interpolation-filters="sRGB">
<feFlood flood-opacity="0" result="BackgroundImageFix"/>
<feColorMatrix in="SourceAlpha" type="matrix" values="0 0 0 0 0 0 0 0 0 0 0 0 0 0 0 0 0 0 127 0" result="hardAlpha"/>
<feOffset/>
<feGaussianBlur stdDeviation="2"/>
<feComposite in2="hardAlpha" operator="out"/>
<feColorMatrix type="matrix" values="0 0 0 0 0 0 0 0 0 0 0 0 0 0 0 0 0 0 0.25 0"/>
<feBlend mode="normal" in2="BackgroundImageFix" result="effect1_dropShadow_2_2833"/>
<feBlend mode="normal" in="SourceGraphic" in2="effect1_dropShadow_2_2833" result="shape"/>
</filter>
<linearGradient id="paint0_linear_2_2833" x1="20.0108" y1="-6.75528e-05" x2="6.1281" y2="34.3968" gradientUnits="userSpaceOnUse">
<stop stop-color="#083407"/>
<stop offset="1" stop-color="#041D04"/>
</linearGradient>
</defs>
</svg>
