<svg width="41" height="40" viewBox="0 0 41 40" fill="none" xmlns="http://www.w3.org/2000/svg">
<rect x="0.0107422" width="40" height="40" rx="8" fill="url(#paint0_linear_2_2826)"/>
<g filter="url(#filter0_d_2_2826)">
<path d="M18.6146 33.9424C16.4578 33.736 14.2742 32.9618 12.3984 31.7386C10.8265 30.7136 10.4715 30.2923 10.4715 29.4514C10.4715 27.7623 12.3297 24.8039 15.509 21.4314C17.3146 19.516 19.8296 17.2709 20.1016 17.3317C20.6303 17.4498 24.8577 21.5711 26.4403 23.5112C28.9428 26.579 30.0933 29.0909 29.5088 30.2108C29.0645 31.0621 26.3076 32.726 24.2822 33.3652C22.6129 33.892 20.4206 34.1153 18.6146 33.9424ZM8.34849 27.6952C7.04228 25.6924 6.38234 23.7207 6.06372 20.8689C5.95851 19.9272 5.99621 19.3886 6.30263 17.4558C6.68452 15.0469 8.05714 12.26 9.70646 10.5449C10.4089 9.81446 10.4717 9.79666 11.3279 10.085C12.3677 10.435 13.4782 11.2015 15.2003 12.7579L16.2051 13.666L15.6564 14.3397C13.1094 17.467 10.4206 21.8998 9.40733 24.6423C8.85646 26.1333 8.63427 27.6299 8.87129 28.253C9.03132 28.6736 8.88433 28.5168 8.34849 27.6952ZM31.2764 28.0359C31.4055 27.4063 31.2422 26.25 30.8597 25.0838C30.0313 22.5582 27.2625 17.8598 24.7199 14.6653L23.9195 13.6597L24.7854 12.865C25.9161 11.8274 26.7011 11.2061 27.5481 10.6785C28.2165 10.2621 29.1716 9.89355 29.5822 9.89355C29.8353 9.89355 30.7264 10.8178 31.4458 11.8265C32.56 13.3888 33.3797 15.2826 33.7949 17.2541C34.0633 18.5279 34.0856 21.2546 33.8382 22.5253C33.6351 23.5681 33.2063 24.9207 32.788 25.8381C32.4746 26.5255 31.695 27.8605 31.3534 28.295C31.1778 28.5183 31.1776 28.5178 31.2764 28.0359H31.2764ZM18.8456 9.41663C17.6724 8.82122 15.8626 8.18208 14.8629 8.01013C14.5124 7.94984 13.9145 7.91622 13.5343 7.93541C12.7094 7.97704 12.7463 7.93393 14.0695 7.30911C15.1696 6.78965 16.0873 6.48418 17.333 6.22276C18.7343 5.92868 21.3683 5.92523 22.7474 6.21566C24.2368 6.52936 25.9907 7.18169 26.979 7.78955L27.2728 7.97021L26.5988 7.9362C25.2596 7.86861 23.3079 8.40935 21.2125 9.42855C20.5804 9.73596 20.0306 9.98149 19.9905 9.97416C19.9505 9.96683 19.4353 9.71594 18.8456 9.41663V9.41663Z" fill="white"/>
</g>
<rect x="1.06074" y="1.05" width="37.9" height="37.9" rx="6.95" stroke="white" stroke-opacity="0.15" stroke-width="2.1"/>
<defs>
<filter id="filter0_d_2_2826" x="2.01074" y="2" width="36" height="36" filterUnits="userSpaceOnUse" color-interpolation-filters="sRGB">
<feFlood flood-opacity="0" result="BackgroundImageFix"/>
<feColorMatrix in="SourceAlpha" type="matrix" values="0 0 0 0 0 0 0 0 0 0 0 0 0 0 0 0 0 0 127 0" result="hardAlpha"/>
<feOffset/>
<feGaussianBlur stdDeviation="2"/>
<feComposite in2="hardAlpha" operator="out"/>
<feColorMatrix type="matrix" values="0 0 0 0 0 0 0 0 0 0 0 0 0 0 0 0 0 0 0.25 0"/>
<feBlend mode="normal" in2="BackgroundImageFix" result="effect1_dropShadow_2_2826"/>
<feBlend mode="normal" in="SourceGraphic" in2="effect1_dropShadow_2_2826" result="shape"/>
</filter>
<linearGradient id="paint0_linear_2_2826" x1="20.0108" y1="5.45175e-05" x2="6.1281" y2="34.3969" gradientUnits="userSpaceOnUse">
<stop stop-color="#083407"/>
<stop offset="1" stop-color="#041D04"/>
</linearGradient>
</defs>
</svg>
