<svg width="263" height="41" viewBox="0 0 263 41" fill="none" xmlns="http://www.w3.org/2000/svg">
<rect x="0.00683594" y="0.0153809" width="262.001" height="40.0014" rx="8" fill="url(#paint0_linear_31_14)"/>
<g filter="url(#filter0_d_31_14)">
<path fill-rule="evenodd" clip-rule="evenodd" d="M28.803 18.0706C28.9618 18.3184 29.1203 18.5658 29.3019 18.796C29.3402 18.7053 29.3835 18.6133 29.4274 18.5201C29.5391 18.2825 29.6544 18.0376 29.6987 17.789C29.7312 17.6064 29.6916 17.4275 29.6519 17.248C29.62 17.1043 29.5881 16.9602 29.5932 16.8136C29.6083 16.377 29.7931 15.9241 29.9619 15.5106C29.9862 15.4511 30.0101 15.3924 30.0332 15.3346C30.1177 15.1232 30.2437 14.9109 30.4416 14.7874C30.4987 14.7518 30.5646 14.7274 30.6306 14.7029C30.7273 14.6671 30.8242 14.6312 30.8944 14.5598C31.1088 14.3415 31.264 13.7459 31.2894 13.4466C31.3338 12.9239 31.1312 12.3575 30.9374 11.8159C30.8437 11.5539 30.7521 11.2977 30.6915 11.0551C30.3437 9.66268 30.8203 8.00189 32.1487 7.30476C33.1378 6.78572 34.5169 6.97066 35.2688 7.81444C35.7982 8.40857 36.0078 9.14367 36.0078 9.92232C36.0078 10.4477 35.9787 11.3522 35.5237 11.7172C35.2397 11.945 34.6672 11.9277 34.4782 11.589C34.3086 11.2853 34.3936 10.9579 34.4793 10.6276C34.5461 10.37 34.6134 10.1107 34.5608 9.85938C34.4511 9.33584 33.9154 8.65499 33.3191 8.73617C32.8461 8.80058 32.4767 9.25475 32.3146 9.67058C32.1368 10.1265 32.2908 10.6057 32.4367 11.0593C32.4636 11.1428 32.4901 11.2254 32.5143 11.3069L32.5198 11.3254C32.7669 12.158 33.0013 12.9477 32.9005 13.8242C32.8756 14.0402 32.7979 14.2487 32.7206 14.456C32.6393 14.6742 32.5584 14.8912 32.5401 15.1144C32.5299 15.2389 32.5778 15.3623 32.6262 15.4868C32.6671 15.5921 32.7083 15.6983 32.7149 15.8066C32.752 16.4152 32.5373 17.0241 32.2765 17.5688C32.1585 17.8153 31.9735 17.9686 31.7861 18.1237C31.6467 18.2393 31.5059 18.3559 31.3906 18.5128C31.1748 18.8064 31.0399 19.1698 30.9075 19.5262C30.8402 19.7075 30.7735 19.8871 30.6972 20.0547C30.6462 20.1666 30.584 20.2792 30.521 20.3931C30.401 20.6102 30.2785 20.8317 30.227 21.0616C30.1872 21.2395 30.2476 21.4614 30.3032 21.6653C30.3269 21.7521 30.3496 21.8357 30.3634 21.9112C30.4642 22.465 30.553 23.0471 30.5663 23.6104C30.626 26.1313 30.0052 28.7062 28.279 30.6276C27.7435 31.2237 27.1129 31.7456 26.4235 32.1568C23.8612 33.6849 20.6533 33.0195 18.3259 31.3906C17.5198 30.8264 16.8599 30.1437 16.1919 29.4525C15.9643 29.217 15.7358 28.9805 15.5002 28.7474C15.2939 28.5433 15.0668 28.4774 14.8338 28.4098C14.681 28.3654 14.5257 28.3203 14.372 28.2351C13.9563 28.0045 13.4927 27.3952 13.2761 26.9774C13.179 26.7901 13.1868 26.5981 13.1945 26.4095C13.201 26.2485 13.2075 26.0899 13.1484 25.939C13.082 25.7693 12.9536 25.6171 12.8258 25.4655C12.7305 25.3526 12.6355 25.24 12.5667 25.1208C12.2711 24.6087 12.1717 24.0349 12.1311 23.4531C12.1146 23.2184 12.1223 22.9638 12.1301 22.7036C12.1553 21.8604 12.1824 20.9582 11.3986 20.4829C10.5016 19.9389 9.41185 20.9854 9.54476 21.9112C9.58359 22.1816 9.71179 22.3946 9.83862 22.6053C9.99137 22.8591 10.1421 23.1096 10.1324 23.4531C10.1221 23.8213 9.868 24.0441 9.50076 24.0449C9.01509 24.0461 8.712 23.7095 8.46945 23.3272C7.98279 22.5603 7.90037 21.5503 8.12576 20.684C8.65348 18.6557 11.3242 17.8894 12.8536 19.3339C13.7192 20.1515 13.7578 21.2198 13.7975 22.3204C13.7986 22.3518 13.7998 22.3833 13.8009 22.4147C13.8047 22.5165 13.8069 22.615 13.8092 22.7107C13.8245 23.3757 13.8369 23.9085 14.3127 24.4908C14.4694 24.6826 14.6728 24.7087 14.8852 24.7359C15.0195 24.7531 15.1573 24.7707 15.2893 24.8309C15.5872 24.9668 15.8201 25.2615 16.0301 25.5273C16.0736 25.5824 16.1162 25.6363 16.1582 25.6873C16.3052 25.8657 16.4563 26.0566 16.5113 26.2851C16.5396 26.4028 16.5503 26.5203 16.5608 26.6362C16.5805 26.8519 16.5997 27.0626 16.7307 27.2606C17.1625 27.9136 17.7983 28.4986 18.3891 29.0059C19.2805 29.7712 20.2235 30.4557 21.3309 30.8786C24.1588 31.9588 26.9618 30.1182 28.1307 27.5438C28.7798 26.1143 28.8371 24.7355 28.8275 23.2014C28.6222 23.3764 28.444 23.5889 28.2656 23.8016C28.1205 23.9745 27.9753 24.1477 27.8153 24.301C27.0408 25.0433 26.1819 25.6449 25.1899 26.0605C24.2965 26.4349 23.3132 26.6217 22.3431 26.5989C21.6168 26.5819 20.8579 26.4188 20.1921 26.1312C16.146 24.3838 15.3419 18.3582 18.9269 15.6825C19.4554 15.288 20.0376 14.9769 20.6666 14.7783C21.4421 14.5334 22.2601 14.4222 23.0706 14.4895C24.1198 14.5767 25.1284 14.8762 26.0439 15.3976C26.9097 15.8906 27.6924 16.566 28.3072 17.3485C28.4879 17.5786 28.6456 17.8248 28.803 18.0706ZM20.4136 16.8983C20.9545 16.5605 21.5838 16.3641 22.2166 16.2927C24.3059 16.057 26.2643 17.5028 27.3722 19.1421C27.6164 19.5036 27.8214 19.8835 28.0124 20.2749C28.0255 20.3018 28.0399 20.3299 28.0548 20.3589C28.1314 20.5083 28.2211 20.6832 28.2113 20.8413C28.2022 20.9883 28.0992 21.1311 28.0104 21.2542C27.9958 21.2745 27.9815 21.2942 27.9682 21.3133C27.7509 21.6242 27.5288 21.9376 27.2818 22.2259C26.2395 23.4423 24.7864 24.5845 23.1339 24.7713C22.5304 24.8396 21.913 24.8099 21.3309 24.6236C20.8254 24.4618 20.3427 24.1981 19.9391 23.8556C17.7059 21.9606 17.9033 18.4658 20.4136 16.8983Z" fill="#FCFCFC"/>
</g>
<g filter="url(#filter1_d_31_14)">
<path d="M46.411 26.516H44.4309L48.8801 14.1524H51.0353L55.4845 26.516H53.5044L50.009 16.3982H49.9124L46.411 26.516ZM46.743 21.6744H53.1663V23.244H46.743V21.6744ZM63.8955 17.2433L60.5329 26.516H58.6011L55.2325 17.2433H57.1703L59.5187 24.379H59.6153L61.9576 17.2433H63.8955ZM68.0247 26.7213C67.4371 26.7213 66.9059 26.6126 66.431 26.3953C65.9561 26.174 65.5798 25.854 65.3021 25.4354C65.0284 25.0169 64.8916 24.5037 64.8916 23.896C64.8916 23.3728 64.9922 22.9422 65.1934 22.6041C65.3946 22.266 65.6663 21.9984 66.0084 21.8012C66.3505 21.604 66.7328 21.4551 67.1554 21.3545C67.578 21.2539 68.0086 21.1774 68.4473 21.1251C69.0027 21.0607 69.4535 21.0084 69.7996 20.9681C70.1457 20.9238 70.3972 20.8534 70.5542 20.7568C70.7112 20.6602 70.7896 20.5033 70.7896 20.2859V20.2437C70.7896 19.7165 70.6407 19.308 70.3429 19.0182C70.0491 18.7284 69.6104 18.5835 69.0268 18.5835C68.4191 18.5835 67.9402 18.7183 67.5901 18.988C67.2439 19.2536 67.0045 19.5494 66.8717 19.8754L65.1753 19.4891C65.3765 18.9256 65.6703 18.4708 66.0567 18.1247C66.4471 17.7746 66.8958 17.521 67.4029 17.3641C67.91 17.2031 68.4433 17.1226 69.0027 17.1226C69.373 17.1226 69.7654 17.1669 70.1799 17.2554C70.5985 17.3399 70.9889 17.4969 71.3511 17.7263C71.7173 17.9557 72.0171 18.2837 72.2506 18.7103C72.484 19.1329 72.6007 19.6822 72.6007 20.3584V26.516H70.8379V25.2483H70.7655C70.6488 25.4817 70.4737 25.7111 70.2403 25.9365C70.0068 26.1619 69.707 26.349 69.3408 26.4979C68.9745 26.6468 68.5358 26.7213 68.0247 26.7213ZM68.4171 25.2724C68.9162 25.2724 69.3428 25.1738 69.6969 24.9766C70.0551 24.7794 70.3268 24.5218 70.5119 24.2039C70.7011 23.8819 70.7957 23.5378 70.7957 23.1716V21.9763C70.7313 22.0407 70.6065 22.101 70.4214 22.1574C70.2403 22.2097 70.033 22.256 69.7996 22.2962C69.5661 22.3325 69.3388 22.3667 69.1174 22.3989C68.896 22.427 68.7109 22.4512 68.562 22.4713C68.2119 22.5156 67.8919 22.59 67.6021 22.6947C67.3164 22.7993 67.087 22.9502 66.9139 23.1474C66.7449 23.3406 66.6604 23.5982 66.6604 23.9202C66.6604 24.3669 66.8254 24.705 67.1554 24.9344C67.4854 25.1598 67.906 25.2724 68.4171 25.2724ZM75.0049 26.516V17.2433H76.81V26.516H75.0049ZM75.9165 15.8126C75.6026 15.8126 75.3329 15.7079 75.1075 15.4986C74.8862 15.2853 74.7755 15.0318 74.7755 14.738C74.7755 14.4402 74.8862 14.1866 75.1075 13.9773C75.3329 13.764 75.6026 13.6574 75.9165 13.6574C76.2304 13.6574 76.4981 13.764 76.7194 13.9773C76.9448 14.1866 77.0575 14.4402 77.0575 14.738C77.0575 15.0318 76.9448 15.2853 76.7194 15.4986C76.4981 15.7079 76.2304 15.8126 75.9165 15.8126ZM81.0434 14.1524V26.516H79.2383V14.1524H81.0434ZM86.1702 26.7213C85.5826 26.7213 85.0514 26.6126 84.5765 26.3953C84.1016 26.174 83.7253 25.854 83.4476 25.4354C83.1739 25.0169 83.0371 24.5037 83.0371 23.896C83.0371 23.3728 83.1377 22.9422 83.3389 22.6041C83.5401 22.266 83.8118 21.9984 84.1539 21.8012C84.496 21.604 84.8783 21.4551 85.3009 21.3545C85.7235 21.2539 86.1541 21.1774 86.5928 21.1251C87.1482 21.0607 87.599 21.0084 87.9451 20.9681C88.2912 20.9238 88.5427 20.8534 88.6997 20.7568C88.8567 20.6602 88.9351 20.5033 88.9351 20.2859V20.2437C88.9351 19.7165 88.7862 19.308 88.4884 19.0182C88.1946 18.7284 87.7559 18.5835 87.1724 18.5835C86.5646 18.5835 86.0857 18.7183 85.7356 18.988C85.3894 19.2536 85.15 19.5494 85.0172 19.8754L83.3208 19.4891C83.522 18.9256 83.8158 18.4708 84.2022 18.1247C84.5926 17.7746 85.0413 17.521 85.5484 17.3641C86.0555 17.2031 86.5888 17.1226 87.1482 17.1226C87.5185 17.1226 87.9109 17.1669 88.3254 17.2554C88.744 17.3399 89.1344 17.4969 89.4966 17.7263C89.8628 17.9557 90.1626 18.2837 90.3961 18.7103C90.6295 19.1329 90.7462 19.6822 90.7462 20.3584V26.516H88.9834V25.2483H88.911C88.7943 25.4817 88.6192 25.7111 88.3858 25.9365C88.1523 26.1619 87.8525 26.349 87.4863 26.4979C87.12 26.6468 86.6813 26.7213 86.1702 26.7213ZM86.5626 25.2724C87.0617 25.2724 87.4883 25.1738 87.8424 24.9766C88.2006 24.7794 88.4723 24.5218 88.6574 24.2039C88.8466 23.8819 88.9412 23.5378 88.9412 23.1716V21.9763C88.8768 22.0407 88.752 22.101 88.5669 22.1574C88.3858 22.2097 88.1785 22.256 87.9451 22.2962C87.7116 22.3325 87.4843 22.3667 87.2629 22.3989C87.0416 22.427 86.8564 22.4512 86.7075 22.4713C86.3574 22.5156 86.0374 22.59 85.7476 22.6947C85.4619 22.7993 85.2325 22.9502 85.0594 23.1474C84.8904 23.3406 84.8059 23.5982 84.8059 23.9202C84.8059 24.3669 84.9709 24.705 85.3009 24.9344C85.6309 25.1598 86.0515 25.2724 86.5626 25.2724ZM93.2953 26.516V14.1524H95.1003V18.7465H95.209C95.3137 18.5533 95.4646 18.33 95.6618 18.0764C95.859 17.8229 96.1327 17.6015 96.4828 17.4124C96.8329 17.2192 97.2958 17.1226 97.8713 17.1226C98.6199 17.1226 99.288 17.3117 99.8756 17.6901C100.463 18.0684 100.924 18.6137 101.258 19.3261C101.596 20.0384 101.765 20.8957 101.765 21.8978C101.765 22.8999 101.598 23.7592 101.264 24.4756C100.93 25.1879 100.471 25.7373 99.8876 26.1236C99.3041 26.506 98.638 26.6972 97.8894 26.6972C97.326 26.6972 96.8651 26.6026 96.507 26.4134C96.1528 26.2243 95.8751 26.0029 95.6739 25.7494C95.4726 25.4958 95.3177 25.2704 95.209 25.0732H95.0581V26.516H93.2953ZM95.0641 21.8797C95.0641 22.5317 95.1587 23.1032 95.3479 23.5942C95.537 24.0852 95.8107 24.4695 96.1689 24.7472C96.5271 25.0209 96.9658 25.1577 97.4849 25.1577C98.0242 25.1577 98.475 25.0149 98.8372 24.7291C99.1994 24.4393 99.4731 24.0469 99.6582 23.5519C99.8474 23.0569 99.942 22.4995 99.942 21.8797C99.942 21.2679 99.8494 20.7186 99.6643 20.2316C99.4832 19.7446 99.2095 19.3603 98.8432 19.0785C98.481 18.7968 98.0283 18.656 97.4849 18.656C96.9617 18.656 96.519 18.7908 96.1568 19.0604C95.7986 19.3301 95.527 19.7064 95.3418 20.1893C95.1567 20.6723 95.0641 21.2357 95.0641 21.8797ZM105.597 14.1524V26.516H103.792V14.1524H105.597ZM112.022 26.7032C111.108 26.7032 110.321 26.508 109.661 26.1176C109.005 25.7232 108.498 25.1698 108.14 24.4575C107.786 23.7411 107.609 22.9019 107.609 21.9401C107.609 20.9902 107.786 20.1531 108.14 19.4287C108.498 18.7043 108.997 18.1388 109.637 17.7323C110.281 17.3258 111.034 17.1226 111.895 17.1226C112.418 17.1226 112.925 17.2091 113.416 17.3822C113.907 17.5552 114.348 17.8269 114.738 18.1972C115.129 18.5674 115.437 19.0484 115.662 19.64C115.888 20.2276 116 20.9419 116 21.7831V22.423H108.629V21.0707H114.231C114.231 20.5958 114.135 20.1753 113.942 19.809C113.748 19.4388 113.477 19.147 113.127 18.9337C112.781 18.7204 112.374 18.6137 111.907 18.6137C111.4 18.6137 110.957 18.7385 110.579 18.988C110.205 19.2335 109.915 19.5555 109.71 19.9539C109.508 20.3483 109.408 20.7769 109.408 21.2398V22.2962C109.408 22.916 109.517 23.4432 109.734 23.8779C109.955 24.3126 110.263 24.6446 110.658 24.874C111.052 25.0994 111.513 25.2121 112.04 25.2121C112.382 25.2121 112.694 25.1638 112.976 25.0672C113.257 24.9666 113.501 24.8177 113.706 24.6205C113.911 24.4232 114.068 24.1798 114.177 23.89L115.885 24.1979C115.749 24.7009 115.503 25.1416 115.149 25.52C114.799 25.8942 114.358 26.186 113.827 26.3953C113.3 26.6006 112.698 26.7032 112.022 26.7032ZM126.915 17.2433V18.6922H121.675V17.2433H126.915ZM123.112 26.516V16.1687C123.112 15.5892 123.238 15.1083 123.492 14.7259C123.746 14.3396 124.082 14.0518 124.5 13.8626C124.919 13.6695 125.374 13.5729 125.865 13.5729C126.227 13.5729 126.537 13.6031 126.794 13.6634C127.052 13.7198 127.243 13.7721 127.368 13.8204L126.945 15.2813C126.861 15.2572 126.752 15.229 126.619 15.1968C126.486 15.1606 126.325 15.1425 126.136 15.1425C125.698 15.1425 125.384 15.2511 125.194 15.4685C125.009 15.6858 124.917 15.9997 124.917 16.4102V26.516H123.112ZM132.318 26.7032C131.449 26.7032 130.69 26.504 130.042 26.1055C129.394 25.7071 128.891 25.1497 128.533 24.4333C128.175 23.7169 127.996 22.8798 127.996 21.9219C127.996 20.9601 128.175 20.1189 128.533 19.3985C128.891 18.6781 129.394 18.1187 130.042 17.7202C130.69 17.3218 131.449 17.1226 132.318 17.1226C133.187 17.1226 133.946 17.3218 134.594 17.7202C135.242 18.1187 135.745 18.6781 136.103 19.3985C136.461 20.1189 136.64 20.9601 136.64 21.9219C136.64 22.8798 136.461 23.7169 136.103 24.4333C135.745 25.1497 135.242 25.7071 134.594 26.1055C133.946 26.504 133.187 26.7032 132.318 26.7032ZM132.324 25.1879C132.888 25.1879 133.354 25.039 133.725 24.7412C134.095 24.4434 134.369 24.0469 134.546 23.5519C134.727 23.0569 134.817 22.5116 134.817 21.9159C134.817 21.3243 134.727 20.781 134.546 20.2859C134.369 19.7869 134.095 19.3864 133.725 19.0846C133.354 18.7827 132.888 18.6318 132.324 18.6318C131.757 18.6318 131.286 18.7827 130.911 19.0846C130.541 19.3864 130.265 19.7869 130.084 20.2859C129.907 20.781 129.819 21.3243 129.819 21.9159C129.819 22.5116 129.907 23.0569 130.084 23.5519C130.265 24.0469 130.541 24.4434 130.911 24.7412C131.286 25.039 131.757 25.1879 132.324 25.1879ZM138.655 26.516V17.2433H140.4V18.7163H140.497C140.666 18.2173 140.963 17.8249 141.39 17.5391C141.821 17.2494 142.308 17.1045 142.851 17.1045C142.964 17.1045 143.096 17.1085 143.249 17.1165C143.406 17.1246 143.529 17.1347 143.618 17.1467V18.8733C143.545 18.8532 143.416 18.831 143.231 18.8069C143.046 18.7787 142.861 18.7646 142.676 18.7646C142.249 18.7646 141.869 18.8552 141.535 19.0363C141.205 19.2134 140.943 19.4609 140.75 19.7788C140.557 20.0928 140.46 20.4509 140.46 20.8534V26.516H138.655Z" fill="#E8E8E8"/>
<path d="M148.944 26.516V14.1524H154.1C155.025 14.1524 155.8 14.2832 156.424 14.5448C157.052 14.8064 157.523 15.1727 157.836 15.6435C158.154 16.1144 158.313 16.6598 158.313 17.2795C158.313 17.7504 158.215 18.171 158.018 18.5413C157.82 18.9075 157.549 19.2114 157.203 19.4528C156.856 19.6943 156.456 19.8634 156.001 19.9599V20.0807C156.5 20.1048 156.961 20.2397 157.384 20.4852C157.81 20.7307 158.152 21.0727 158.41 21.5114C158.668 21.9461 158.796 22.4612 158.796 23.0569C158.796 23.7209 158.627 24.3146 158.289 24.8378C157.951 25.357 157.462 25.7675 156.822 26.0693C156.182 26.3671 155.406 26.516 154.492 26.516H148.944ZM151.932 24.1073H153.78C154.428 24.1073 154.904 23.9846 155.21 23.7391C155.52 23.4936 155.675 23.1515 155.675 22.7128C155.675 22.3948 155.601 22.1212 155.452 21.8918C155.303 21.6583 155.092 21.4792 154.818 21.3545C154.544 21.2257 154.216 21.1613 153.834 21.1613H151.932V24.1073ZM151.932 19.2355H153.586C153.912 19.2355 154.202 19.1812 154.456 19.0725C154.709 18.9638 154.906 18.8069 155.047 18.6016C155.192 18.3964 155.265 18.1489 155.265 17.8591C155.265 17.4446 155.118 17.1186 154.824 16.8811C154.53 16.6437 154.134 16.5249 153.635 16.5249H151.932V19.2355ZM166.216 22.5136V17.2433H169.162V26.516H166.348V24.7895H166.252C166.047 25.357 165.697 25.8077 165.201 26.1418C164.71 26.4718 164.117 26.6368 163.421 26.6368C162.789 26.6368 162.233 26.4919 161.754 26.2021C161.275 25.9124 160.903 25.5079 160.638 24.9887C160.372 24.4655 160.237 23.8538 160.233 23.1535V17.2433H163.185V22.5739C163.189 23.077 163.322 23.4734 163.584 23.7632C163.845 24.053 164.201 24.1979 164.652 24.1979C164.946 24.1979 165.21 24.1335 165.443 24.0047C165.68 23.8719 165.868 23.6807 166.004 23.4312C166.145 23.1776 166.216 22.8718 166.216 22.5136ZM173.993 21.2277V26.516H171.041V17.2433H173.848V18.9457H173.95C174.156 18.3783 174.506 17.9335 175.001 17.6116C175.496 17.2856 176.086 17.1226 176.77 17.1226C177.422 17.1226 177.987 17.2695 178.466 17.5633C178.949 17.8531 179.323 18.2595 179.589 18.7827C179.859 19.3019 179.991 19.9096 179.987 20.6059V26.516H177.035V21.1854C177.039 20.6703 176.909 20.2678 176.643 19.9781C176.381 19.6883 176.017 19.5434 175.55 19.5434C175.24 19.5434 174.967 19.6118 174.729 19.7486C174.496 19.8815 174.315 20.0726 174.186 20.3222C174.061 20.5717 173.997 20.8735 173.993 21.2277ZM186.138 30.1865C185.256 30.1865 184.502 30.0637 183.874 29.8182C183.246 29.5727 182.753 29.2367 182.395 28.8101C182.036 28.3835 181.821 27.9005 181.749 27.3612L184.544 27.2043C184.596 27.3934 184.693 27.5584 184.834 27.6993C184.978 27.8401 185.166 27.9488 185.395 28.0253C185.628 28.1017 185.902 28.14 186.216 28.14C186.711 28.14 187.12 28.0192 187.442 27.7778C187.768 27.5403 187.931 27.1238 187.931 26.5281V24.8981H187.828C187.711 25.1839 187.534 25.4395 187.297 25.6648C187.059 25.8902 186.763 26.0673 186.409 26.1961C186.059 26.3249 185.657 26.3893 185.202 26.3893C184.526 26.3893 183.906 26.2323 183.342 25.9184C182.783 25.6004 182.334 25.1094 181.996 24.4454C181.662 23.7773 181.495 22.918 181.495 21.8676C181.495 20.785 181.668 19.8935 182.014 19.1933C182.36 18.4889 182.813 17.9678 183.373 17.6297C183.936 17.2916 184.542 17.1226 185.19 17.1226C185.677 17.1226 186.093 17.2071 186.439 17.3761C186.79 17.5411 187.077 17.7544 187.303 18.016C187.528 18.2776 187.699 18.5493 187.816 18.831H187.9V17.2433H190.84V26.5523C190.84 27.3371 190.643 27.9991 190.249 28.5384C189.854 29.0777 189.303 29.4862 188.595 29.7639C187.886 30.0456 187.067 30.1865 186.138 30.1865ZM186.228 24.2401C186.586 24.2401 186.892 24.1455 187.146 23.9564C187.399 23.7672 187.594 23.4956 187.731 23.1414C187.868 22.7872 187.937 22.3626 187.937 21.8676C187.937 21.3645 187.868 20.9319 187.731 20.5697C187.598 20.2034 187.403 19.9217 187.146 19.7245C186.892 19.5273 186.586 19.4287 186.228 19.4287C185.862 19.4287 185.552 19.5293 185.298 19.7305C185.045 19.9318 184.852 20.2155 184.719 20.5817C184.59 20.944 184.526 21.3726 184.526 21.8676C184.526 22.3626 184.592 22.7872 184.725 23.1414C184.858 23.4956 185.049 23.7672 185.298 23.9564C185.552 24.1455 185.862 24.2401 186.228 24.2401ZM197.057 26.6911C196.087 26.6911 195.25 26.4999 194.545 26.1176C193.845 25.7312 193.306 25.1819 192.928 24.4695C192.553 23.7531 192.366 22.9019 192.366 21.9159C192.366 20.958 192.555 20.1209 192.934 19.4045C193.312 18.6841 193.845 18.1247 194.533 17.7263C195.222 17.3238 196.033 17.1226 196.966 17.1226C197.626 17.1226 198.23 17.2252 198.777 17.4305C199.325 17.6357 199.798 17.9396 200.196 18.342C200.594 18.7445 200.904 19.2415 201.126 19.8332C201.347 20.4208 201.458 21.0949 201.458 21.8555V22.592H193.398V20.8776H198.711C198.707 20.5636 198.632 20.2839 198.488 20.0384C198.343 19.7929 198.143 19.6017 197.89 19.4649C197.64 19.3241 197.353 19.2536 197.027 19.2536C196.697 19.2536 196.401 19.3281 196.139 19.477C195.878 19.6219 195.67 19.8211 195.517 20.0746C195.364 20.3242 195.284 20.6079 195.276 20.9258V22.6705C195.276 23.0488 195.35 23.3809 195.499 23.6666C195.648 23.9483 195.86 24.1677 196.133 24.3246C196.407 24.4816 196.733 24.5601 197.111 24.5601C197.373 24.5601 197.61 24.5239 197.824 24.4514C198.037 24.379 198.22 24.2723 198.373 24.1315C198.526 23.9906 198.641 23.8175 198.717 23.6123L201.428 23.6908C201.315 24.2985 201.067 24.8277 200.685 25.2785C200.307 25.7252 199.81 26.0733 199.194 26.3229C198.578 26.5684 197.866 26.6911 197.057 26.6911ZM207.3 26.6911C206.33 26.6911 205.493 26.4999 204.789 26.1176C204.088 25.7312 203.549 25.1819 203.171 24.4695C202.796 23.7531 202.609 22.9019 202.609 21.9159C202.609 20.958 202.798 20.1209 203.177 19.4045C203.555 18.6841 204.088 18.1247 204.777 17.7263C205.465 17.3238 206.276 17.1226 207.209 17.1226C207.869 17.1226 208.473 17.2252 209.021 17.4305C209.568 17.6357 210.041 17.9396 210.439 18.342C210.838 18.7445 211.148 19.2415 211.369 19.8332C211.59 20.4208 211.701 21.0949 211.701 21.8555V22.592H203.642V20.8776H208.954C208.95 20.5636 208.876 20.2839 208.731 20.0384C208.586 19.7929 208.387 19.6017 208.133 19.4649C207.884 19.3241 207.596 19.2536 207.27 19.2536C206.94 19.2536 206.644 19.3281 206.382 19.477C206.121 19.6219 205.914 19.8211 205.761 20.0746C205.608 20.3242 205.527 20.6079 205.519 20.9258V22.6705C205.519 23.0488 205.594 23.3809 205.742 23.6666C205.891 23.9483 206.103 24.1677 206.376 24.3246C206.65 24.4816 206.976 24.5601 207.354 24.5601C207.616 24.5601 207.853 24.5239 208.067 24.4514C208.28 24.379 208.463 24.2723 208.616 24.1315C208.769 23.9906 208.884 23.8175 208.96 23.6123L211.671 23.6908C211.558 24.2985 211.311 24.8277 210.928 25.2785C210.55 25.7252 210.053 26.0733 209.437 26.3229C208.821 26.5684 208.109 26.6911 207.3 26.6911ZM224.431 18.6318H221.413C221.373 18.3219 221.29 18.0422 221.165 17.7927C221.041 17.5432 220.876 17.3299 220.67 17.1528C220.465 16.9757 220.222 16.8409 219.94 16.7483C219.662 16.6517 219.354 16.6034 219.016 16.6034C218.417 16.6034 217.899 16.7503 217.465 17.0441C217.034 17.3379 216.702 17.7625 216.469 18.3179C216.239 18.8733 216.124 19.5454 216.124 20.3342C216.124 21.1553 216.241 21.8435 216.475 22.3989C216.712 22.9502 217.044 23.3668 217.471 23.6485C217.901 23.9262 218.41 24.0651 218.998 24.0651C219.328 24.0651 219.628 24.0228 219.898 23.9383C220.171 23.8538 220.411 23.731 220.616 23.57C220.825 23.405 220.996 23.2058 221.129 22.9724C221.266 22.7349 221.361 22.4673 221.413 22.1695L224.431 22.1876C224.379 22.7349 224.22 23.2742 223.954 23.8055C223.693 24.3367 223.333 24.8217 222.874 25.2604C222.415 25.695 221.856 26.0411 221.196 26.2987C220.539 26.5563 219.787 26.6851 218.938 26.6851C217.819 26.6851 216.817 26.4396 215.931 25.9486C215.05 25.4535 214.354 24.7331 213.843 23.7874C213.331 22.8416 213.076 21.6905 213.076 20.3342C213.076 18.9739 213.335 17.8209 213.855 16.8751C214.374 15.9293 215.076 15.2109 215.961 14.7199C216.847 14.2289 217.839 13.9834 218.938 13.9834C219.686 13.9834 220.379 14.088 221.014 14.2973C221.65 14.5026 222.21 14.8044 222.693 15.2028C223.176 15.5973 223.568 16.0822 223.87 16.6577C224.172 17.2333 224.359 17.8913 224.431 18.6318ZM230.47 26.6911C229.496 26.6911 228.659 26.4919 227.958 26.0935C227.262 25.691 226.725 25.1316 226.347 24.4152C225.972 23.6948 225.785 22.8597 225.785 21.9099C225.785 20.956 225.972 20.1209 226.347 19.4045C226.725 18.6841 227.262 18.1247 227.958 17.7263C228.659 17.3238 229.496 17.1226 230.47 17.1226C231.444 17.1226 232.279 17.3238 232.975 17.7263C233.675 18.1247 234.213 18.6841 234.587 19.4045C234.965 20.1209 235.154 20.956 235.154 21.9099C235.154 22.8597 234.965 23.6948 234.587 24.4152C234.213 25.1316 233.675 25.691 232.975 26.0935C232.279 26.4919 231.444 26.6911 230.47 26.6911ZM230.488 24.4635C230.842 24.4635 231.142 24.3548 231.387 24.1375C231.633 23.9202 231.82 23.6183 231.949 23.232C232.082 22.8456 232.148 22.3989 232.148 21.8918C232.148 21.3766 232.082 20.9258 231.949 20.5395C231.82 20.1531 231.633 19.8513 231.387 19.6339C231.142 19.4166 230.842 19.308 230.488 19.308C230.122 19.308 229.812 19.4166 229.558 19.6339C229.309 19.8513 229.117 20.1531 228.985 20.5395C228.856 20.9258 228.791 21.3766 228.791 21.8918C228.791 22.3989 228.856 22.8456 228.985 23.232C229.117 23.6183 229.309 23.9202 229.558 24.1375C229.812 24.3548 230.122 24.4635 230.488 24.4635ZM236.667 26.516V17.2433H239.534V18.9337H239.631C239.8 18.3219 240.076 17.8671 240.458 17.5693C240.84 17.2675 241.285 17.1165 241.792 17.1165C241.929 17.1165 242.07 17.1266 242.215 17.1467C242.359 17.1628 242.494 17.189 242.619 17.2252V19.7909C242.478 19.7426 242.293 19.7044 242.064 19.6762C241.838 19.648 241.637 19.6339 241.46 19.6339C241.11 19.6339 240.794 19.7124 240.512 19.8694C240.234 20.0223 240.015 20.2376 239.854 20.5153C239.697 20.789 239.619 21.111 239.619 21.4812V26.516H236.667ZM246.727 26.6489C246.043 26.6489 245.421 26.4718 244.862 26.1176C244.302 25.7634 243.856 25.2322 243.522 24.5239C243.188 23.8155 243.021 22.9361 243.021 21.8857C243.021 20.795 243.194 19.8976 243.54 19.1933C243.886 18.4889 244.339 17.9678 244.898 17.6297C245.461 17.2916 246.067 17.1226 246.715 17.1226C247.202 17.1226 247.619 17.2071 247.965 17.3761C248.311 17.5411 248.597 17.7544 248.822 18.016C249.047 18.2776 249.218 18.5493 249.335 18.831H249.396V14.1524H252.348V26.516H249.426V25.0129H249.335C249.21 25.2986 249.033 25.5662 248.804 25.8158C248.574 26.0653 248.287 26.2665 247.941 26.4195C247.599 26.5724 247.194 26.6489 246.727 26.6489ZM247.753 24.3488C248.112 24.3488 248.418 24.2482 248.671 24.0469C248.925 23.8417 249.12 23.5539 249.257 23.1837C249.394 22.8134 249.462 22.3787 249.462 21.8797C249.462 21.3726 249.394 20.9359 249.257 20.5697C249.124 20.2034 248.929 19.9217 248.671 19.7245C248.418 19.5273 248.112 19.4287 247.753 19.4287C247.387 19.4287 247.077 19.5293 246.824 19.7305C246.57 19.9318 246.377 20.2155 246.244 20.5817C246.115 20.948 246.051 21.3806 246.051 21.8797C246.051 22.3787 246.117 22.8134 246.25 23.1837C246.383 23.5539 246.574 23.8417 246.824 24.0469C247.077 24.2482 247.387 24.3488 247.753 24.3488Z" fill="white"/>
</g>
<rect x="1.07826" y="1.08681" width="259.858" height="37.8585" rx="6.92857" stroke="white" stroke-opacity="0.15" stroke-width="2.14286"/>
<defs>
<filter id="filter0_d_31_14" x="2.40607" y="0.415101" width="39.2025" height="39.202" filterUnits="userSpaceOnUse" color-interpolation-filters="sRGB">
<feFlood flood-opacity="0" result="BackgroundImageFix"/>
<feColorMatrix in="SourceAlpha" type="matrix" values="0 0 0 0 0 0 0 0 0 0 0 0 0 0 0 0 0 0 127 0" result="hardAlpha"/>
<feOffset/>
<feGaussianBlur stdDeviation="2.80014"/>
<feComposite in2="hardAlpha" operator="out"/>
<feColorMatrix type="matrix" values="0 0 0 0 0 0 0 0 0 0 0 0 0 0 0 0 0 0 0.25 0"/>
<feBlend mode="normal" in2="BackgroundImageFix" result="effect1_dropShadow_31_14"/>
<feBlend mode="normal" in="SourceGraphic" in2="effect1_dropShadow_31_14" result="shape"/>
</filter>
<filter id="filter1_d_31_14" x="38.294" y="3.80177" width="221.429" height="32.4286" filterUnits="userSpaceOnUse" color-interpolation-filters="sRGB">
<feFlood flood-opacity="0" result="BackgroundImageFix"/>
<feColorMatrix in="SourceAlpha" type="matrix" values="0 0 0 0 0 0 0 0 0 0 0 0 0 0 0 0 0 0 127 0" result="hardAlpha"/>
<feOffset/>
<feGaussianBlur stdDeviation="2.85714"/>
<feComposite in2="hardAlpha" operator="out"/>
<feColorMatrix type="matrix" values="0 0 0 0 0 0 0 0 0 0 0 0 0 0 0 0 0 0 0.25 0"/>
<feBlend mode="normal" in2="BackgroundImageFix" result="effect1_dropShadow_31_14"/>
<feBlend mode="normal" in="SourceGraphic" in2="effect1_dropShadow_31_14" result="shape"/>
</filter>
<linearGradient id="paint0_linear_31_14" x1="131.007" y1="0.0153809" x2="131.007" y2="40.0168" gradientUnits="userSpaceOnUse">
<stop stop-color="#322E20"/>
<stop offset="1" stop-color="#201C15"/>
</linearGradient>
</defs>
</svg>
