<svg width="178" height="41" viewBox="0 0 178 41" fill="none" xmlns="http://www.w3.org/2000/svg">
<g clip-path="url(#clip0_28_3019)">
<rect x="0.00683594" y="0.0209961" width="177.001" height="40.0014" rx="8" fill="url(#paint0_linear_28_3019)"/>
<g filter="url(#filter0_d_28_3019)">
<path d="M20.9678 25.0584L17.2773 25.724L24.6582 29.7179L25.8883 27.721L20.9678 25.0584Z" fill="#9C9C9C"/>
<path d="M20.9678 25.0585L25.8883 27.721V25.0585L20.9678 22.3959V25.0585Z" fill="#7E7E7E"/>
<path d="M33.2698 17.0708V30.3839L13.5874 19.7338V6.42072L33.2698 17.0708Z" fill="#6A6A6A"/>
<path d="M14.3255 6.02094L13.5874 6.42032L33.2698 17.0704L34.0079 16.671L14.3255 6.02094Z" fill="#9C9C9C"/>
<path d="M33.2705 30.3839L34.0086 29.9845V16.6714L33.2705 17.0708V30.3839Z" fill="#7E7E7E"/>
<path d="M14.8184 8.41724L32.0402 17.7365V28.3865L14.8184 19.0673V8.41724Z" fill="white"/>
<path d="M13.6968 25.1028L10.0063 27.366L22.3078 34.0224L25.9982 31.7592L13.6968 25.1028Z" fill="#7E7E7E"/>
<path d="M22.3086 34.0223L25.999 32.0254V31.7592L22.3086 34.0223Z" fill="#2D2D2D"/>
</g>
<g filter="url(#filter1_d_28_3019)">
<path d="M44.411 26.5217H42.4309L46.8801 14.158H49.0353L53.4845 26.5217H51.5044L48.009 16.4038H47.9124L44.411 26.5217ZM44.743 21.68H51.1663V23.2496H44.743V21.68ZM61.8955 17.2489L58.5329 26.5217H56.6011L53.2325 17.2489H55.1703L57.5187 24.3846H57.6153L59.9576 17.2489H61.8955ZM66.0247 26.7269C65.4371 26.7269 64.9059 26.6183 64.431 26.4009C63.9561 26.1796 63.5798 25.8596 63.3021 25.4411C63.0284 25.0225 62.8916 24.5094 62.8916 23.9016C62.8916 23.3784 62.9922 22.9478 63.1934 22.6097C63.3946 22.2717 63.6663 22.004 64.0084 21.8068C64.3505 21.6096 64.7328 21.4607 65.1554 21.3601C65.578 21.2595 66.0086 21.183 66.4473 21.1307C67.0027 21.0663 67.4535 21.014 67.7996 20.9737C68.1457 20.9295 68.3972 20.859 68.5542 20.7624C68.7112 20.6658 68.7896 20.5089 68.7896 20.2916V20.2493C68.7896 19.7221 68.6407 19.3136 68.3429 19.0238C68.0491 18.734 67.6104 18.5891 67.0268 18.5891C66.4191 18.5891 65.9402 18.724 65.5901 18.9936C65.2439 19.2592 65.0045 19.555 64.8717 19.881L63.1753 19.4947C63.3765 18.9312 63.6703 18.4764 64.0567 18.1303C64.4471 17.7802 64.8958 17.5266 65.4029 17.3697C65.91 17.2087 66.4433 17.1282 67.0027 17.1282C67.373 17.1282 67.7654 17.1725 68.1799 17.261C68.5985 17.3455 68.9889 17.5025 69.3511 17.7319C69.7173 17.9613 70.0171 18.2893 70.2506 18.7159C70.484 19.1385 70.6007 19.6879 70.6007 20.364V26.5217H68.8379V25.2539H68.7655C68.6488 25.4873 68.4737 25.7167 68.2403 25.9421C68.0068 26.1675 67.707 26.3546 67.3408 26.5036C66.9745 26.6525 66.5358 26.7269 66.0247 26.7269ZM66.4171 25.2781C66.9162 25.2781 67.3428 25.1795 67.6969 24.9822C68.0551 24.785 68.3268 24.5275 68.5119 24.2095C68.7011 23.8875 68.7957 23.5434 68.7957 23.1772V21.9819C68.7313 22.0463 68.6065 22.1067 68.4214 22.163C68.2403 22.2153 68.033 22.2616 67.7996 22.3018C67.5661 22.3381 67.3388 22.3723 67.1174 22.4045C66.896 22.4326 66.7109 22.4568 66.562 22.4769C66.2119 22.5212 65.8919 22.5956 65.6021 22.7003C65.3164 22.8049 65.087 22.9558 64.9139 23.1531C64.7449 23.3462 64.6604 23.6038 64.6604 23.9258C64.6604 24.3725 64.8254 24.7106 65.1554 24.94C65.4854 25.1654 65.906 25.2781 66.4171 25.2781ZM73.0049 26.5217V17.2489H74.81V26.5217H73.0049ZM73.9165 15.8182C73.6026 15.8182 73.3329 15.7135 73.1075 15.5043C72.8862 15.291 72.7755 15.0374 72.7755 14.7436C72.7755 14.4458 72.8862 14.1922 73.1075 13.983C73.3329 13.7697 73.6026 13.663 73.9165 13.663C74.2304 13.663 74.4981 13.7697 74.7194 13.983C74.9448 14.1922 75.0575 14.4458 75.0575 14.7436C75.0575 15.0374 74.9448 15.291 74.7194 15.5043C74.4981 15.7135 74.2304 15.8182 73.9165 15.8182ZM79.0434 14.158V26.5217H77.2383V14.158H79.0434ZM84.1702 26.7269C83.5826 26.7269 83.0514 26.6183 82.5765 26.4009C82.1016 26.1796 81.7253 25.8596 81.4476 25.4411C81.1739 25.0225 81.0371 24.5094 81.0371 23.9016C81.0371 23.3784 81.1377 22.9478 81.3389 22.6097C81.5401 22.2717 81.8118 22.004 82.1539 21.8068C82.496 21.6096 82.8783 21.4607 83.3009 21.3601C83.7235 21.2595 84.1541 21.183 84.5928 21.1307C85.1482 21.0663 85.599 21.014 85.9451 20.9737C86.2912 20.9295 86.5427 20.859 86.6997 20.7624C86.8567 20.6658 86.9351 20.5089 86.9351 20.2916V20.2493C86.9351 19.7221 86.7862 19.3136 86.4884 19.0238C86.1946 18.734 85.7559 18.5891 85.1724 18.5891C84.5646 18.5891 84.0857 18.724 83.7356 18.9936C83.3894 19.2592 83.15 19.555 83.0172 19.881L81.3208 19.4947C81.522 18.9312 81.8158 18.4764 82.2022 18.1303C82.5926 17.7802 83.0413 17.5266 83.5484 17.3697C84.0555 17.2087 84.5888 17.1282 85.1482 17.1282C85.5185 17.1282 85.9109 17.1725 86.3254 17.261C86.744 17.3455 87.1344 17.5025 87.4966 17.7319C87.8628 17.9613 88.1626 18.2893 88.3961 18.7159C88.6295 19.1385 88.7462 19.6879 88.7462 20.364V26.5217H86.9834V25.2539H86.911C86.7943 25.4873 86.6192 25.7167 86.3858 25.9421C86.1523 26.1675 85.8525 26.3546 85.4863 26.5036C85.12 26.6525 84.6813 26.7269 84.1702 26.7269ZM84.5626 25.2781C85.0617 25.2781 85.4883 25.1795 85.8424 24.9822C86.2006 24.785 86.4723 24.5275 86.6574 24.2095C86.8466 23.8875 86.9412 23.5434 86.9412 23.1772V21.9819C86.8768 22.0463 86.752 22.1067 86.5669 22.163C86.3858 22.2153 86.1785 22.2616 85.9451 22.3018C85.7116 22.3381 85.4843 22.3723 85.2629 22.4045C85.0416 22.4326 84.8564 22.4568 84.7075 22.4769C84.3574 22.5212 84.0374 22.5956 83.7476 22.7003C83.4619 22.8049 83.2325 22.9558 83.0594 23.1531C82.8904 23.3462 82.8059 23.6038 82.8059 23.9258C82.8059 24.3725 82.9709 24.7106 83.3009 24.94C83.6309 25.1654 84.0515 25.2781 84.5626 25.2781ZM91.2953 26.5217V14.158H93.1003V18.7521H93.209C93.3137 18.559 93.4646 18.3356 93.6618 18.082C93.859 17.8285 94.1327 17.6071 94.4828 17.418C94.8329 17.2248 95.2958 17.1282 95.8713 17.1282C96.6199 17.1282 97.288 17.3174 97.8756 17.6957C98.4632 18.074 98.924 18.6193 99.258 19.3317C99.5961 20.044 99.7651 20.9013 99.7651 21.9034C99.7651 22.9055 99.5981 23.7648 99.2641 24.4812C98.93 25.1935 98.4712 25.7429 97.8876 26.1293C97.3041 26.5116 96.638 26.7028 95.8894 26.7028C95.326 26.7028 94.8651 26.6082 94.507 26.419C94.1528 26.2299 93.8751 26.0085 93.6739 25.755C93.4726 25.5014 93.3177 25.276 93.209 25.0788H93.0581V26.5217H91.2953ZM93.0641 21.8853C93.0641 22.5373 93.1587 23.1088 93.3479 23.5998C93.537 24.0908 93.8107 24.4751 94.1689 24.7528C94.5271 25.0265 94.9658 25.1634 95.4849 25.1634C96.0242 25.1634 96.475 25.0205 96.8372 24.7347C97.1994 24.445 97.4731 24.0526 97.6582 23.5575C97.8474 23.0625 97.942 22.5051 97.942 21.8853C97.942 21.2736 97.8494 20.7242 97.6643 20.2372C97.4832 19.7502 97.2095 19.3659 96.8432 19.0842C96.481 18.8024 96.0283 18.6616 95.4849 18.6616C94.9617 18.6616 94.519 18.7964 94.1568 19.0661C93.7986 19.3357 93.527 19.712 93.3418 20.195C93.1567 20.6779 93.0641 21.2414 93.0641 21.8853ZM103.597 14.158V26.5217H101.792V14.158H103.597ZM110.022 26.7088C109.108 26.7088 108.321 26.5136 107.661 26.1232C107.005 25.7288 106.498 25.1754 106.14 24.4631C105.786 23.7467 105.609 22.9076 105.609 21.9457C105.609 20.9959 105.786 20.1587 106.14 19.4343C106.498 18.7099 106.997 18.1444 107.637 17.7379C108.281 17.3314 109.034 17.1282 109.895 17.1282C110.418 17.1282 110.925 17.2147 111.416 17.3878C111.907 17.5608 112.348 17.8325 112.738 18.2028C113.129 18.573 113.437 19.054 113.662 19.6456C113.888 20.2332 114 20.9476 114 21.7887V22.4286H106.629V21.0764H112.231C112.231 20.6014 112.135 20.1809 111.942 19.8146C111.748 19.4444 111.477 19.1526 111.127 18.9393C110.781 18.726 110.374 18.6193 109.907 18.6193C109.4 18.6193 108.957 18.7441 108.579 18.9936C108.205 19.2391 107.915 19.5611 107.71 19.9595C107.508 20.3539 107.408 20.7826 107.408 21.2454V22.3018C107.408 22.9216 107.517 23.4489 107.734 23.8835C107.955 24.3182 108.263 24.6502 108.658 24.8796C109.052 25.105 109.513 25.2177 110.04 25.2177C110.382 25.2177 110.694 25.1694 110.976 25.0728C111.257 24.9722 111.501 24.8233 111.706 24.6261C111.911 24.4289 112.068 24.1854 112.177 23.8956L113.885 24.2035C113.749 24.7066 113.503 25.1473 113.149 25.5256C112.799 25.8999 112.358 26.1916 111.827 26.4009C111.3 26.6062 110.698 26.7088 110.022 26.7088ZM124.408 26.7088C123.539 26.7088 122.78 26.5096 122.132 26.1112C121.484 25.7127 120.981 25.1553 120.623 24.4389C120.265 23.7225 120.085 22.8854 120.085 21.9276C120.085 20.9657 120.265 20.1245 120.623 19.4041C120.981 18.6837 121.484 18.1243 122.132 17.7259C122.78 17.3274 123.539 17.1282 124.408 17.1282C125.277 17.1282 126.036 17.3274 126.684 17.7259C127.332 18.1243 127.835 18.6837 128.193 19.4041C128.551 20.1245 128.73 20.9657 128.73 21.9276C128.73 22.8854 128.551 23.7225 128.193 24.4389C127.835 25.1553 127.332 25.7127 126.684 26.1112C126.036 26.5096 125.277 26.7088 124.408 26.7088ZM124.414 25.1935C124.977 25.1935 125.444 25.0446 125.814 24.7468C126.185 24.449 126.458 24.0526 126.635 23.5575C126.817 23.0625 126.907 22.5172 126.907 21.9215C126.907 21.3299 126.817 20.7866 126.635 20.2916C126.458 19.7925 126.185 19.392 125.814 19.0902C125.444 18.7884 124.977 18.6374 124.414 18.6374C123.846 18.6374 123.376 18.7884 123.001 19.0902C122.631 19.392 122.355 19.7925 122.174 20.2916C121.997 20.7866 121.909 21.3299 121.909 21.9215C121.909 22.5172 121.997 23.0625 122.174 23.5575C122.355 24.0526 122.631 24.449 123.001 24.7468C123.376 25.0446 123.846 25.1935 124.414 25.1935ZM132.55 21.016V26.5217H130.745V17.2489H132.478V18.7582H132.592C132.806 18.2672 133.14 17.8728 133.595 17.5749C134.053 17.2771 134.631 17.1282 135.327 17.1282C135.959 17.1282 136.512 17.261 136.987 17.5266C137.462 17.7882 137.83 18.1786 138.092 18.6978C138.354 19.217 138.484 19.8589 138.484 20.6236V26.5217H136.679V20.8409C136.679 20.1688 136.504 19.6436 136.154 19.2653C135.804 18.8829 135.323 18.6918 134.711 18.6918C134.293 18.6918 133.921 18.7823 133.595 18.9634C133.273 19.1445 133.017 19.4102 132.828 19.7603C132.643 20.1064 132.55 20.525 132.55 21.016Z" fill="#E8E8E8"/>
<path d="M144.944 26.5217V14.158H150.051C150.977 14.158 151.776 14.3391 152.448 14.7014C153.124 15.0595 153.645 15.5606 154.011 16.2045C154.378 16.8445 154.561 17.589 154.561 18.4382C154.561 19.2914 154.374 20.038 153.999 20.6779C153.629 21.3138 153.1 21.8068 152.412 22.157C151.723 22.5071 150.906 22.6822 149.961 22.6822H146.809V20.3278H149.405C149.856 20.3278 150.232 20.2493 150.534 20.0923C150.84 19.9354 151.072 19.716 151.228 19.4343C151.385 19.1486 151.464 18.8165 151.464 18.4382C151.464 18.0559 151.385 17.7259 151.228 17.4482C151.072 17.1664 150.84 16.9491 150.534 16.7962C150.228 16.6432 149.852 16.5668 149.405 16.5668H147.932V26.5217H144.944ZM167.257 18.6374H164.238C164.198 18.3275 164.115 18.0478 163.991 17.7983C163.866 17.5488 163.701 17.3355 163.496 17.1584C163.29 16.9813 163.047 16.8465 162.765 16.7539C162.487 16.6573 162.179 16.609 161.841 16.609C161.242 16.609 160.725 16.7559 160.29 17.0497C159.859 17.3435 159.527 17.7681 159.294 18.3235C159.064 18.8789 158.95 19.551 158.95 20.3398C158.95 21.1609 159.066 21.8491 159.3 22.4045C159.537 22.9558 159.869 23.3724 160.296 23.6541C160.727 23.9318 161.236 24.0707 161.823 24.0707C162.153 24.0707 162.453 24.0284 162.723 23.9439C162.996 23.8594 163.236 23.7366 163.441 23.5756C163.65 23.4106 163.822 23.2114 163.954 22.978C164.091 22.7405 164.186 22.4729 164.238 22.1751L167.257 22.1932C167.204 22.7405 167.045 23.2798 166.78 23.8111C166.518 24.3423 166.158 24.8273 165.699 25.266C165.24 25.7006 164.681 26.0468 164.021 26.3043C163.365 26.5619 162.612 26.6907 161.763 26.6907C160.644 26.6907 159.642 26.4452 158.757 25.9542C157.875 25.4592 157.179 24.7388 156.668 23.793C156.157 22.8472 155.901 21.6961 155.901 20.3398C155.901 18.9795 156.161 17.8265 156.68 16.8807C157.199 15.9349 157.901 15.2165 158.787 14.7255C159.672 14.2345 160.664 13.989 161.763 13.989C162.511 13.989 163.204 14.0936 163.84 14.3029C164.476 14.5082 165.035 14.81 165.518 15.2085C166.001 15.6029 166.393 16.0878 166.695 16.6634C166.997 17.2389 167.184 17.8969 167.257 18.6374Z" fill="white"/>
</g>
</g>
<rect x="1.07826" y="1.09242" width="174.859" height="37.8585" rx="6.92857" stroke="white" stroke-opacity="0.15" stroke-width="2.14286"/>
<defs>
<filter id="filter0_d_28_3019" x="2.40656" y="0.420655" width="39.202" height="39.202" filterUnits="userSpaceOnUse" color-interpolation-filters="sRGB">
<feFlood flood-opacity="0" result="BackgroundImageFix"/>
<feColorMatrix in="SourceAlpha" type="matrix" values="0 0 0 0 0 0 0 0 0 0 0 0 0 0 0 0 0 0 127 0" result="hardAlpha"/>
<feOffset/>
<feGaussianBlur stdDeviation="2.80014"/>
<feComposite in2="hardAlpha" operator="out"/>
<feColorMatrix type="matrix" values="0 0 0 0 0 0 0 0 0 0 0 0 0 0 0 0 0 0 0.25 0"/>
<feBlend mode="normal" in2="BackgroundImageFix" result="effect1_dropShadow_28_3019"/>
<feBlend mode="normal" in="SourceGraphic" in2="effect1_dropShadow_28_3019" result="shape"/>
</filter>
<filter id="filter1_d_28_3019" x="36.294" y="3.80738" width="138.429" height="32.4286" filterUnits="userSpaceOnUse" color-interpolation-filters="sRGB">
<feFlood flood-opacity="0" result="BackgroundImageFix"/>
<feColorMatrix in="SourceAlpha" type="matrix" values="0 0 0 0 0 0 0 0 0 0 0 0 0 0 0 0 0 0 127 0" result="hardAlpha"/>
<feOffset/>
<feGaussianBlur stdDeviation="2.85714"/>
<feComposite in2="hardAlpha" operator="out"/>
<feColorMatrix type="matrix" values="0 0 0 0 0 0 0 0 0 0 0 0 0 0 0 0 0 0 0.25 0"/>
<feBlend mode="normal" in2="BackgroundImageFix" result="effect1_dropShadow_28_3019"/>
<feBlend mode="normal" in="SourceGraphic" in2="effect1_dropShadow_28_3019" result="shape"/>
</filter>
<linearGradient id="paint0_linear_28_3019" x1="0.00719427" y1="40.0225" x2="3.62551" y2="0.351103" gradientUnits="userSpaceOnUse">
<stop stop-color="#161616"/>
<stop offset="1" stop-color="#2D2D2D"/>
</linearGradient>
<clipPath id="clip0_28_3019">
<rect x="0.00683594" y="0.0209961" width="177.001" height="40.0014" rx="8" fill="white"/>
</clipPath>
</defs>
</svg>
