<svg width="267" height="41" viewBox="0 0 267 41" fill="none" xmlns="http://www.w3.org/2000/svg">
<rect x="0.00683594" y="0.0223999" width="266.001" height="40.0014" rx="8" fill="url(#paint0_linear_28_3033)"/>
<g filter="url(#filter0_d_28_3033)">
<path fill-rule="evenodd" clip-rule="evenodd" d="M35.7594 25.8613C35.2122 26.5639 33.8722 27.0649 33.8722 27.0649L23.9032 30.7101V28.022L31.2397 25.3609C32.0722 25.0571 32.2001 24.6279 31.5234 24.4025C30.848 24.1764 29.6248 24.2412 28.7917 24.5463L23.9032 26.299V23.509L24.185 23.412C24.185 23.412 25.5976 22.9031 27.584 22.679C29.5702 22.4563 32.0022 22.7094 33.9116 23.4462C36.0633 24.1384 36.3055 25.1587 35.7592 25.8613H35.7594ZM24.8523 21.2837V14.4088C24.8523 13.6015 24.7059 12.8583 23.9617 12.6478C23.3918 12.462 23.0383 13.0005 23.0383 13.8073V31.0237L18.4774 29.55V9.02258C20.4166 9.38898 23.2419 10.2554 24.7606 10.7765C28.6231 12.1265 29.9327 13.8068 29.9327 17.5925C29.9327 21.2824 27.6953 22.6809 24.8523 21.2837ZM10.1087 27.7409C7.89971 27.1076 7.53216 25.7882 8.53893 25.028C9.46948 24.3262 11.052 23.7978 11.052 23.7978L17.5914 21.4307V24.1294L12.8855 25.8437C12.0542 26.1474 11.9264 26.5772 12.602 26.8026C13.278 27.0279 14.5017 26.9638 15.3342 26.6595L17.5914 25.8256V28.2399C17.4483 28.2658 17.2888 28.2918 17.1411 28.317C14.8832 28.6926 12.4785 28.5358 10.1087 27.7408V27.7409Z" fill="white"/>
</g>
<g filter="url(#filter1_d_28_3033)">
<path d="M46.411 26.5231H44.4309L48.8801 14.1594H51.0353L55.4845 26.5231H53.5044L50.009 16.4052H49.9124L46.411 26.5231ZM46.743 21.6814H53.1663V23.2511H46.743V21.6814ZM63.8955 17.2503L60.5329 26.5231H58.6011L55.2325 17.2503H57.1703L59.5187 24.386H59.6153L61.9576 17.2503H63.8955ZM68.0247 26.7283C67.4371 26.7283 66.9059 26.6197 66.431 26.4023C65.9561 26.181 65.5798 25.861 65.3021 25.4425C65.0284 25.0239 64.8916 24.5108 64.8916 23.903C64.8916 23.3798 64.9922 22.9492 65.1934 22.6111C65.3946 22.2731 65.6663 22.0054 66.0084 21.8082C66.3505 21.611 66.7328 21.4621 67.1554 21.3615C67.578 21.2609 68.0086 21.1844 68.4473 21.1321C69.0027 21.0677 69.4535 21.0154 69.7996 20.9751C70.1457 20.9309 70.3972 20.8604 70.5542 20.7638C70.7112 20.6672 70.7896 20.5103 70.7896 20.293V20.2507C70.7896 19.7235 70.6407 19.315 70.3429 19.0252C70.0491 18.7354 69.6104 18.5905 69.0268 18.5905C68.4191 18.5905 67.9402 18.7254 67.5901 18.995C67.2439 19.2606 67.0045 19.5564 66.8717 19.8824L65.1753 19.4961C65.3765 18.9326 65.6703 18.4779 66.0567 18.1317C66.4471 17.7816 66.8958 17.528 67.4029 17.3711C67.91 17.2101 68.4433 17.1296 69.0027 17.1296C69.373 17.1296 69.7654 17.1739 70.1799 17.2624C70.5985 17.3469 70.9889 17.5039 71.3511 17.7333C71.7173 17.9627 72.0171 18.2907 72.2506 18.7173C72.484 19.1399 72.6007 19.6893 72.6007 20.3654V26.5231H70.8379V25.2553H70.7655C70.6488 25.4887 70.4737 25.7181 70.2403 25.9435C70.0068 26.1689 69.707 26.356 69.3408 26.505C68.9745 26.6539 68.5358 26.7283 68.0247 26.7283ZM68.4171 25.2795C68.9162 25.2795 69.3428 25.1809 69.6969 24.9836C70.0551 24.7864 70.3268 24.5289 70.5119 24.2109C70.7011 23.889 70.7957 23.5448 70.7957 23.1786V21.9833C70.7313 22.0477 70.6065 22.1081 70.4214 22.1644C70.2403 22.2167 70.033 22.263 69.7996 22.3033C69.5661 22.3395 69.3388 22.3737 69.1174 22.4059C68.896 22.4341 68.7109 22.4582 68.562 22.4783C68.2119 22.5226 67.8919 22.597 67.6021 22.7017C67.3164 22.8063 67.087 22.9573 66.9139 23.1545C66.7449 23.3476 66.6604 23.6052 66.6604 23.9272C66.6604 24.3739 66.8254 24.712 67.1554 24.9414C67.4854 25.1668 67.906 25.2795 68.4171 25.2795ZM75.0049 26.5231V17.2503H76.81V26.5231H75.0049ZM75.9165 15.8196C75.6026 15.8196 75.3329 15.7149 75.1075 15.5057C74.8862 15.2924 74.7755 15.0388 74.7755 14.745C74.7755 14.4472 74.8862 14.1936 75.1075 13.9844C75.3329 13.7711 75.6026 13.6644 75.9165 13.6644C76.2304 13.6644 76.4981 13.7711 76.7194 13.9844C76.9448 14.1936 77.0575 14.4472 77.0575 14.745C77.0575 15.0388 76.9448 15.2924 76.7194 15.5057C76.4981 15.7149 76.2304 15.8196 75.9165 15.8196ZM81.0434 14.1594V26.5231H79.2383V14.1594H81.0434ZM86.1702 26.7283C85.5826 26.7283 85.0514 26.6197 84.5765 26.4023C84.1016 26.181 83.7253 25.861 83.4476 25.4425C83.1739 25.0239 83.0371 24.5108 83.0371 23.903C83.0371 23.3798 83.1377 22.9492 83.3389 22.6111C83.5401 22.2731 83.8118 22.0054 84.1539 21.8082C84.496 21.611 84.8783 21.4621 85.3009 21.3615C85.7235 21.2609 86.1541 21.1844 86.5928 21.1321C87.1482 21.0677 87.599 21.0154 87.9451 20.9751C88.2912 20.9309 88.5427 20.8604 88.6997 20.7638C88.8567 20.6672 88.9351 20.5103 88.9351 20.293V20.2507C88.9351 19.7235 88.7862 19.315 88.4884 19.0252C88.1946 18.7354 87.7559 18.5905 87.1724 18.5905C86.5646 18.5905 86.0857 18.7254 85.7356 18.995C85.3894 19.2606 85.15 19.5564 85.0172 19.8824L83.3208 19.4961C83.522 18.9326 83.8158 18.4779 84.2022 18.1317C84.5926 17.7816 85.0413 17.528 85.5484 17.3711C86.0555 17.2101 86.5888 17.1296 87.1482 17.1296C87.5185 17.1296 87.9109 17.1739 88.3254 17.2624C88.744 17.3469 89.1344 17.5039 89.4966 17.7333C89.8628 17.9627 90.1626 18.2907 90.3961 18.7173C90.6295 19.1399 90.7462 19.6893 90.7462 20.3654V26.5231H88.9834V25.2553H88.911C88.7943 25.4887 88.6192 25.7181 88.3858 25.9435C88.1523 26.1689 87.8525 26.356 87.4863 26.505C87.12 26.6539 86.6813 26.7283 86.1702 26.7283ZM86.5626 25.2795C87.0617 25.2795 87.4883 25.1809 87.8424 24.9836C88.2006 24.7864 88.4723 24.5289 88.6574 24.2109C88.8466 23.889 88.9412 23.5448 88.9412 23.1786V21.9833C88.8768 22.0477 88.752 22.1081 88.5669 22.1644C88.3858 22.2167 88.1785 22.263 87.9451 22.3033C87.7116 22.3395 87.4843 22.3737 87.2629 22.4059C87.0416 22.4341 86.8564 22.4582 86.7075 22.4783C86.3574 22.5226 86.0374 22.597 85.7476 22.7017C85.4619 22.8063 85.2325 22.9573 85.0594 23.1545C84.8904 23.3476 84.8059 23.6052 84.8059 23.9272C84.8059 24.3739 84.9709 24.712 85.3009 24.9414C85.6309 25.1668 86.0515 25.2795 86.5626 25.2795ZM93.2953 26.5231V14.1594H95.1003V18.7535H95.209C95.3137 18.5604 95.4646 18.337 95.6618 18.0834C95.859 17.8299 96.1327 17.6085 96.4828 17.4194C96.8329 17.2262 97.2958 17.1296 97.8713 17.1296C98.6199 17.1296 99.288 17.3188 99.8756 17.6971C100.463 18.0754 100.924 18.6207 101.258 19.3331C101.596 20.0454 101.765 20.9027 101.765 21.9048C101.765 22.9069 101.598 23.7662 101.264 24.4826C100.93 25.1949 100.471 25.7443 99.8876 26.1307C99.3041 26.513 98.638 26.7042 97.8894 26.7042C97.326 26.7042 96.8651 26.6096 96.507 26.4204C96.1528 26.2313 95.8751 26.0099 95.6739 25.7564C95.4726 25.5028 95.3177 25.2774 95.209 25.0802H95.0581V26.5231H93.2953ZM95.0641 21.8867C95.0641 22.5387 95.1587 23.1102 95.3479 23.6012C95.537 24.0922 95.8107 24.4765 96.1689 24.7542C96.5271 25.0279 96.9658 25.1648 97.4849 25.1648C98.0242 25.1648 98.475 25.0219 98.8372 24.7361C99.1994 24.4464 99.4731 24.054 99.6582 23.5589C99.8474 23.0639 99.942 22.5065 99.942 21.8867C99.942 21.275 99.8494 20.7256 99.6643 20.2386C99.4832 19.7516 99.2095 19.3673 98.8432 19.0856C98.481 18.8038 98.0283 18.663 97.4849 18.663C96.9617 18.663 96.519 18.7978 96.1568 19.0675C95.7986 19.3371 95.527 19.7134 95.3418 20.1964C95.1567 20.6793 95.0641 21.2428 95.0641 21.8867ZM105.597 14.1594V26.5231H103.792V14.1594H105.597ZM112.022 26.7102C111.108 26.7102 110.321 26.515 109.661 26.1246C109.005 25.7302 108.498 25.1768 108.14 24.4645C107.786 23.7481 107.609 22.909 107.609 21.9471C107.609 20.9973 107.786 20.1601 108.14 19.4357C108.498 18.7113 108.997 18.1458 109.637 17.7393C110.281 17.3328 111.034 17.1296 111.895 17.1296C112.418 17.1296 112.925 17.2161 113.416 17.3892C113.907 17.5622 114.348 17.8339 114.738 18.2042C115.129 18.5744 115.437 19.0554 115.662 19.647C115.888 20.2346 116 20.949 116 21.7901V22.43H108.629V21.0778H114.231C114.231 20.6029 114.135 20.1823 113.942 19.816C113.748 19.4458 113.477 19.154 113.127 18.9407C112.781 18.7274 112.374 18.6207 111.907 18.6207C111.4 18.6207 110.957 18.7455 110.579 18.995C110.205 19.2405 109.915 19.5625 109.71 19.9609C109.508 20.3553 109.408 20.784 109.408 21.2468V22.3033C109.408 22.923 109.517 23.4503 109.734 23.8849C109.955 24.3196 110.263 24.6516 110.658 24.881C111.052 25.1064 111.513 25.2191 112.04 25.2191C112.382 25.2191 112.694 25.1708 112.976 25.0742C113.257 24.9736 113.501 24.8247 113.706 24.6275C113.911 24.4303 114.068 24.1868 114.177 23.897L115.885 24.2049C115.749 24.708 115.503 25.1487 115.149 25.527C114.799 25.9013 114.358 26.193 113.827 26.4023C113.3 26.6076 112.698 26.7102 112.022 26.7102ZM126.408 26.7102C125.539 26.7102 124.78 26.511 124.132 26.1126C123.484 25.7141 122.981 25.1567 122.623 24.4403C122.265 23.7239 122.085 22.8868 122.085 21.929C122.085 20.9671 122.265 20.1259 122.623 19.4055C122.981 18.6851 123.484 18.1257 124.132 17.7273C124.78 17.3288 125.539 17.1296 126.408 17.1296C127.277 17.1296 128.036 17.3288 128.684 17.7273C129.332 18.1257 129.835 18.6851 130.193 19.4055C130.551 20.1259 130.73 20.9671 130.73 21.929C130.73 22.8868 130.551 23.7239 130.193 24.4403C129.835 25.1567 129.332 25.7141 128.684 26.1126C128.036 26.511 127.277 26.7102 126.408 26.7102ZM126.414 25.1949C126.977 25.1949 127.444 25.046 127.814 24.7482C128.185 24.4504 128.458 24.054 128.635 23.5589C128.817 23.0639 128.907 22.5186 128.907 21.9229C128.907 21.3313 128.817 20.788 128.635 20.293C128.458 19.7939 128.185 19.3935 127.814 19.0916C127.444 18.7898 126.977 18.6388 126.414 18.6388C125.846 18.6388 125.376 18.7898 125.001 19.0916C124.631 19.3935 124.355 19.7939 124.174 20.293C123.997 20.788 123.909 21.3313 123.909 21.9229C123.909 22.5186 123.997 23.0639 124.174 23.5589C124.355 24.054 124.631 24.4504 125.001 24.7482C125.376 25.046 125.846 25.1949 126.414 25.1949ZM134.55 21.0174V26.5231H132.745V17.2503H134.478V18.7596H134.592C134.806 18.2686 135.14 17.8742 135.595 17.5763C136.053 17.2785 136.631 17.1296 137.327 17.1296C137.959 17.1296 138.512 17.2624 138.987 17.528C139.462 17.7896 139.83 18.18 140.092 18.6992C140.354 19.2184 140.484 19.8603 140.484 20.625V26.5231H138.679V20.8423C138.679 20.1702 138.504 19.645 138.154 19.2667C137.804 18.8843 137.323 18.6932 136.711 18.6932C136.293 18.6932 135.921 18.7837 135.595 18.9648C135.273 19.1459 135.017 19.4116 134.828 19.7617C134.643 20.1078 134.55 20.5264 134.55 21.0174Z" fill="#E8E8E8"/>
<path d="M146.944 26.5231V14.1594H152.051C152.977 14.1594 153.776 14.3405 154.448 14.7028C155.124 15.0609 155.645 15.562 156.011 16.206C156.378 16.8459 156.561 17.5904 156.561 18.4396C156.561 19.2928 156.374 20.0394 155.999 20.6793C155.629 21.3152 155.1 21.8082 154.412 22.1584C153.723 22.5085 152.906 22.6836 151.961 22.6836H148.809V20.3292H151.405C151.856 20.3292 152.232 20.2507 152.534 20.0937C152.84 19.9368 153.072 19.7174 153.228 19.4357C153.385 19.15 153.464 18.8179 153.464 18.4396C153.464 18.0573 153.385 17.7273 153.228 17.4496C153.072 17.1678 152.84 16.9505 152.534 16.7976C152.228 16.6446 151.852 16.5682 151.405 16.5682H149.932V26.5231H146.944ZM160.986 14.1594V26.5231H158.034V14.1594H160.986ZM165.479 26.68C164.887 26.68 164.362 26.5814 163.903 26.3842C163.448 26.183 163.088 25.8811 162.823 25.4787C162.561 25.0722 162.43 24.5631 162.43 23.9513C162.43 23.4362 162.521 23.0015 162.702 22.6474C162.883 22.2932 163.133 22.0054 163.451 21.7841C163.768 21.5627 164.135 21.3957 164.549 21.283C164.964 21.1663 165.406 21.0878 165.877 21.0476C166.405 20.9993 166.829 20.949 167.151 20.8966C167.473 20.8403 167.707 20.7618 167.851 20.6612C168 20.5566 168.075 20.4097 168.075 20.2205V20.1903C168.075 19.8804 167.968 19.641 167.755 19.4719C167.542 19.3029 167.254 19.2184 166.892 19.2184C166.501 19.2184 166.187 19.3029 165.95 19.4719C165.712 19.641 165.561 19.8744 165.497 20.1722L162.774 20.0756C162.855 19.5122 163.062 19.0091 163.396 18.5664C163.734 18.1197 164.197 17.7695 164.785 17.516C165.376 17.2584 166.087 17.1296 166.916 17.1296C167.507 17.1296 168.053 17.2 168.552 17.3409C169.051 17.4777 169.485 17.679 169.856 17.9446C170.226 18.2062 170.512 18.5282 170.713 18.9105C170.918 19.2928 171.021 19.7295 171.021 20.2205V26.5231H168.244V25.2312H168.171C168.006 25.5451 167.795 25.8107 167.538 26.028C167.284 26.2454 166.984 26.4084 166.638 26.517C166.296 26.6257 165.91 26.68 165.479 26.68ZM166.39 24.7482C166.708 24.7482 166.994 24.6838 167.248 24.555C167.505 24.4262 167.711 24.2492 167.863 24.0238C168.016 23.7944 168.093 23.5287 168.093 23.2269V22.3455C168.008 22.3898 167.906 22.43 167.785 22.4662C167.668 22.5025 167.54 22.5367 167.399 22.5689C167.258 22.6011 167.113 22.6292 166.964 22.6534C166.815 22.6775 166.672 22.6997 166.535 22.7198C166.258 22.7641 166.02 22.8325 165.823 22.9251C165.63 23.0176 165.481 23.1384 165.376 23.2873C165.276 23.4322 165.225 23.6052 165.225 23.8064C165.225 24.1123 165.334 24.3457 165.551 24.5067C165.773 24.6677 166.052 24.7482 166.39 24.7482ZM174.299 30.0003C173.945 30.0003 173.611 29.9722 173.297 29.9158C172.983 29.8635 172.713 29.7931 172.488 29.7045L173.14 27.5614C173.43 27.658 173.691 27.7144 173.925 27.7305C174.162 27.7466 174.365 27.7083 174.534 27.6158C174.707 27.5272 174.84 27.3682 174.933 27.1388L175.047 26.8611L171.751 17.2503H174.842L176.551 23.8668H176.647L178.38 17.2503H181.489L177.993 27.4105C177.824 27.9176 177.585 28.3643 177.275 28.7507C176.969 29.1411 176.573 29.447 176.086 29.6683C175.603 29.8897 175.007 30.0003 174.299 30.0003ZM189.304 17.8661C189.263 17.4234 189.084 17.0793 188.766 16.8338C188.452 16.5843 188.004 16.4595 187.42 16.4595C187.034 16.4595 186.712 16.5098 186.454 16.6104C186.197 16.711 186.003 16.8499 185.875 17.027C185.746 17.2 185.679 17.3993 185.675 17.6246C185.667 17.8098 185.704 17.9728 185.784 18.1136C185.869 18.2545 185.989 18.3792 186.146 18.4879C186.307 18.5926 186.501 18.6851 186.726 18.7656C186.951 18.8461 187.205 18.9165 187.487 18.9769L188.549 19.2184C189.161 19.3512 189.7 19.5283 190.167 19.7496C190.638 19.971 191.032 20.2346 191.35 20.5405C191.672 20.8463 191.916 21.1985 192.081 21.5969C192.246 21.9954 192.33 22.4421 192.334 22.9371C192.33 23.7179 192.133 24.388 191.743 24.9474C191.352 25.5068 190.791 25.9355 190.058 26.2333C189.33 26.5311 188.45 26.68 187.42 26.68C186.386 26.68 185.484 26.5251 184.716 26.2152C183.947 25.9053 183.349 25.4344 182.923 24.8025C182.496 24.1707 182.277 23.3718 182.265 22.4059H185.126C185.15 22.8043 185.257 23.1363 185.446 23.402C185.635 23.6676 185.895 23.8688 186.225 24.0057C186.559 24.1425 186.945 24.2109 187.384 24.2109C187.786 24.2109 188.128 24.1566 188.41 24.0479C188.696 23.9393 188.915 23.7883 189.068 23.5952C189.221 23.402 189.3 23.1806 189.304 22.9311C189.3 22.6977 189.227 22.4984 189.086 22.3334C188.945 22.1644 188.728 22.0195 188.434 21.8988C188.145 21.774 187.774 21.6593 187.324 21.5547L186.032 21.2528C184.961 21.0073 184.118 20.6109 183.502 20.0636C182.886 19.5122 182.581 18.7676 182.585 17.8299C182.581 17.0652 182.786 16.3951 183.2 15.8196C183.615 15.2441 184.188 14.7953 184.921 14.4734C185.653 14.1514 186.488 13.9904 187.426 13.9904C188.384 13.9904 189.215 14.1534 189.919 14.4794C190.628 14.8014 191.177 15.2541 191.568 15.8377C191.958 16.4213 192.157 17.0974 192.165 17.8661H189.304ZM199.077 17.2503V19.4236H193.228V17.2503H199.077ZM194.453 15.0288H197.405V23.6072C197.405 23.7883 197.433 23.9352 197.49 24.0479C197.55 24.1566 197.637 24.2351 197.749 24.2834C197.862 24.3276 197.997 24.3498 198.154 24.3498C198.266 24.3498 198.385 24.3397 198.51 24.3196C198.639 24.2954 198.735 24.2753 198.8 24.2592L199.246 26.3903C199.106 26.4305 198.906 26.4808 198.649 26.5412C198.395 26.6015 198.091 26.6398 197.737 26.6559C197.045 26.6881 196.451 26.6076 195.956 26.4144C195.465 26.2172 195.089 25.9113 194.827 25.4968C194.57 25.0823 194.445 24.5611 194.453 23.9332V15.0288ZM203.198 26.68C202.606 26.68 202.081 26.5814 201.622 26.3842C201.167 26.183 200.807 25.8811 200.541 25.4787C200.28 25.0722 200.149 24.5631 200.149 23.9513C200.149 23.4362 200.24 23.0015 200.421 22.6474C200.602 22.2932 200.851 22.0054 201.169 21.7841C201.487 21.5627 201.853 21.3957 202.268 21.283C202.682 21.1663 203.125 21.0878 203.596 21.0476C204.123 20.9993 204.548 20.949 204.87 20.8966C205.192 20.8403 205.425 20.7618 205.57 20.6612C205.719 20.5566 205.794 20.4097 205.794 20.2205V20.1903C205.794 19.8804 205.687 19.641 205.474 19.4719C205.26 19.3029 204.973 19.2184 204.61 19.2184C204.22 19.2184 203.906 19.3029 203.669 19.4719C203.431 19.641 203.28 19.8744 203.216 20.1722L200.493 20.0756C200.574 19.5122 200.781 19.0091 201.115 18.5664C201.453 18.1197 201.916 17.7695 202.503 17.516C203.095 17.2584 203.805 17.1296 204.634 17.1296C205.226 17.1296 205.771 17.2 206.27 17.3409C206.769 17.4777 207.204 17.679 207.574 17.9446C207.945 18.2062 208.23 18.5282 208.432 18.9105C208.637 19.2928 208.74 19.7295 208.74 20.2205V26.5231H205.963V25.2312H205.89C205.725 25.5451 205.514 25.8107 205.256 26.028C205.003 26.2454 204.703 26.4084 204.357 26.517C204.015 26.6257 203.628 26.68 203.198 26.68ZM204.109 24.7482C204.427 24.7482 204.713 24.6838 204.966 24.555C205.224 24.4262 205.429 24.2492 205.582 24.0238C205.735 23.7944 205.812 23.5287 205.812 23.2269V22.3455C205.727 22.3898 205.624 22.43 205.504 22.4662C205.387 22.5025 205.258 22.5367 205.117 22.5689C204.977 22.6011 204.832 22.6292 204.683 22.6534C204.534 22.6775 204.391 22.6997 204.254 22.7198C203.976 22.7641 203.739 22.8325 203.542 22.9251C203.349 23.0176 203.2 23.1384 203.095 23.2873C202.994 23.4322 202.944 23.6052 202.944 23.8064C202.944 24.1123 203.053 24.3457 203.27 24.5067C203.491 24.6677 203.771 24.7482 204.109 24.7482ZM215.779 17.2503V19.4236H209.929V17.2503H215.779ZM211.154 15.0288H214.106V23.6072C214.106 23.7883 214.135 23.9352 214.191 24.0479C214.251 24.1566 214.338 24.2351 214.45 24.2834C214.563 24.3276 214.698 24.3498 214.855 24.3498C214.968 24.3498 215.086 24.3397 215.211 24.3196C215.34 24.2954 215.437 24.2753 215.501 24.2592L215.948 26.3903C215.807 26.4305 215.608 26.4808 215.35 26.5412C215.096 26.6015 214.793 26.6398 214.438 26.6559C213.746 26.6881 213.153 26.6076 212.658 26.4144C212.167 26.2172 211.79 25.9113 211.529 25.4968C211.271 25.0823 211.146 24.5611 211.154 23.9332V15.0288ZM217.285 26.5231V17.2503H220.237V26.5231H217.285ZM218.764 16.1697C218.349 16.1697 217.993 16.0329 217.695 15.7592C217.398 15.4815 217.249 15.1475 217.249 14.7571C217.249 14.3707 217.398 14.0407 217.695 13.767C217.993 13.4893 218.349 13.3505 218.764 13.3505C219.182 13.3505 219.539 13.4893 219.832 13.767C220.13 14.0407 220.279 14.3707 220.279 14.7571C220.279 15.1475 220.13 15.4815 219.832 15.7592C219.539 16.0329 219.182 16.1697 218.764 16.1697ZM226.444 26.6981C225.47 26.6981 224.633 26.4989 223.933 26.1005C223.237 25.698 222.699 25.1386 222.321 24.4222C221.947 23.7018 221.76 22.8667 221.76 21.9169C221.76 20.9631 221.947 20.1279 222.321 19.4116C222.699 18.6912 223.237 18.1317 223.933 17.7333C224.633 17.3308 225.47 17.1296 226.444 17.1296C227.418 17.1296 228.253 17.3308 228.95 17.7333C229.65 18.1317 230.187 18.6912 230.562 19.4116C230.94 20.1279 231.129 20.9631 231.129 21.9169C231.129 22.8667 230.94 23.7018 230.562 24.4222C230.187 25.1386 229.65 25.698 228.95 26.1005C228.253 26.4989 227.418 26.6981 226.444 26.6981ZM226.462 24.4705C226.817 24.4705 227.116 24.3618 227.362 24.1445C227.607 23.9272 227.795 23.6253 227.923 23.239C228.056 22.8526 228.123 22.4059 228.123 21.8988C228.123 21.3836 228.056 20.9329 227.923 20.5465C227.795 20.1601 227.607 19.8583 227.362 19.641C227.116 19.4236 226.817 19.315 226.462 19.315C226.096 19.315 225.786 19.4236 225.533 19.641C225.283 19.8583 225.092 20.1601 224.959 20.5465C224.83 20.9329 224.766 21.3836 224.766 21.8988C224.766 22.4059 224.83 22.8526 224.959 23.239C225.092 23.6253 225.283 23.9272 225.533 24.1445C225.786 24.3618 226.096 24.4705 226.462 24.4705ZM235.593 21.2347V26.5231H232.641V17.2503H235.448V18.9528H235.551C235.756 18.3853 236.106 17.9406 236.601 17.6186C237.097 17.2926 237.686 17.1296 238.37 17.1296C239.022 17.1296 239.588 17.2765 240.067 17.5703C240.55 17.8601 240.924 18.2666 241.19 18.7898C241.459 19.3089 241.592 19.9167 241.588 20.6129V26.5231H238.636V21.1925C238.64 20.6773 238.509 20.2748 238.244 19.9851C237.982 19.6953 237.618 19.5504 237.151 19.5504C236.841 19.5504 236.567 19.6188 236.33 19.7557C236.096 19.8885 235.915 20.0796 235.787 20.3292C235.662 20.5787 235.597 20.8805 235.593 21.2347ZM251.777 26.6921C250.875 26.6921 250.074 26.5291 249.374 26.2031C248.674 25.8771 248.12 25.4284 247.714 24.8569C247.312 24.2854 247.102 23.6294 247.086 22.8888H249.984C250.008 23.3436 250.193 23.7099 250.539 23.9876C250.885 24.2612 251.298 24.3981 251.777 24.3981C252.151 24.3981 252.483 24.3156 252.773 24.1506C253.063 23.9855 253.29 23.7541 253.455 23.4563C253.62 23.1545 253.701 22.8083 253.697 22.418C253.701 22.0195 253.618 21.6714 253.449 21.3736C253.284 21.0757 253.055 20.8443 252.761 20.6793C252.471 20.5103 252.137 20.4258 251.759 20.4258C251.401 20.4217 251.06 20.5002 250.738 20.6612C250.421 20.8222 250.179 21.0415 250.014 21.3192L247.376 20.8242L247.913 14.1594H255.846V16.5682H250.37L250.086 19.484H250.159C250.364 19.1419 250.694 18.8602 251.149 18.6388C251.608 18.4135 252.129 18.3008 252.713 18.3008C253.453 18.3008 254.113 18.4738 254.693 18.8199C255.276 19.162 255.735 19.6369 256.069 20.2447C256.407 20.8524 256.576 21.5486 256.576 22.3334C256.576 23.1826 256.375 23.9352 255.972 24.5912C255.574 25.2473 255.015 25.7624 254.294 26.1367C253.578 26.507 252.739 26.6921 251.777 26.6921Z" fill="white"/>
</g>
<rect x="1.07826" y="1.09383" width="263.858" height="37.8585" rx="6.92857" stroke="white" stroke-opacity="0.15" stroke-width="2.14286"/>
<defs>
<filter id="filter0_d_28_3033" x="2.40656" y="0.42212" width="39.202" height="39.202" filterUnits="userSpaceOnUse" color-interpolation-filters="sRGB">
<feFlood flood-opacity="0" result="BackgroundImageFix"/>
<feColorMatrix in="SourceAlpha" type="matrix" values="0 0 0 0 0 0 0 0 0 0 0 0 0 0 0 0 0 0 127 0" result="hardAlpha"/>
<feOffset/>
<feGaussianBlur stdDeviation="2.80014"/>
<feComposite in2="hardAlpha" operator="out"/>
<feColorMatrix type="matrix" values="0 0 0 0 0 0 0 0 0 0 0 0 0 0 0 0 0 0 0.25 0"/>
<feBlend mode="normal" in2="BackgroundImageFix" result="effect1_dropShadow_28_3033"/>
<feBlend mode="normal" in="SourceGraphic" in2="effect1_dropShadow_28_3033" result="shape"/>
</filter>
<filter id="filter1_d_28_3033" x="38.294" y="3.80879" width="225.429" height="32.4286" filterUnits="userSpaceOnUse" color-interpolation-filters="sRGB">
<feFlood flood-opacity="0" result="BackgroundImageFix"/>
<feColorMatrix in="SourceAlpha" type="matrix" values="0 0 0 0 0 0 0 0 0 0 0 0 0 0 0 0 0 0 127 0" result="hardAlpha"/>
<feOffset/>
<feGaussianBlur stdDeviation="2.85714"/>
<feComposite in2="hardAlpha" operator="out"/>
<feColorMatrix type="matrix" values="0 0 0 0 0 0 0 0 0 0 0 0 0 0 0 0 0 0 0.25 0"/>
<feBlend mode="normal" in2="BackgroundImageFix" result="effect1_dropShadow_28_3033"/>
<feBlend mode="normal" in="SourceGraphic" in2="effect1_dropShadow_28_3033" result="shape"/>
</filter>
<linearGradient id="paint0_linear_28_3033" x1="0.00730916" y1="0.0224583" x2="-2.41163" y2="39.8771" gradientUnits="userSpaceOnUse">
<stop stop-color="#131F33"/>
<stop offset="1" stop-color="#0D1422"/>
</linearGradient>
</defs>
</svg>
