<svg width="187" height="41" viewBox="0 0 187 41" fill="none" xmlns="http://www.w3.org/2000/svg">
<g clip-path="url(#clip0_28_2962)">
<rect x="0.00683594" y="0.00695801" width="186.001" height="40.0014" rx="8" fill="url(#paint0_linear_28_2962)"/>
<g filter="url(#filter0_d_28_2962)">
<path d="M21.3075 6.41112C21.7407 6.16102 22.2744 6.16102 22.7076 6.41112L33.4325 12.6031C33.8656 12.8532 34.1325 13.3154 34.1325 13.8156V26.1997C34.1325 26.6999 33.8656 27.1621 33.4325 27.4122L22.7076 33.6042C22.2744 33.8543 21.7407 33.8543 21.3075 33.6042L10.5826 27.4122C10.1494 27.1621 9.88257 26.6999 9.88257 26.1997V13.8156C9.88257 13.3154 10.1494 12.8532 10.5826 12.6031L21.3075 6.41112Z" fill="url(#paint1_linear_28_2962)"/>
</g>
<g filter="url(#filter1_d_28_2962)">
<path d="M46.411 26.5077H44.4309L48.8801 14.144H51.0353L55.4845 26.5077H53.5044L50.009 16.3898H49.9124L46.411 26.5077ZM46.743 21.666H53.1663V23.2356H46.743V21.666ZM63.8955 17.2349L60.5329 26.5077H58.6011L55.2325 17.2349H57.1703L59.5187 24.3706H59.6153L61.9576 17.2349H63.8955ZM68.0247 26.7129C67.4371 26.7129 66.9059 26.6042 66.431 26.3869C65.9561 26.1656 65.5798 25.8456 65.3021 25.427C65.0284 25.0085 64.8916 24.4953 64.8916 23.8876C64.8916 23.3644 64.9922 22.9338 65.1934 22.5957C65.3946 22.2577 65.6663 21.99 66.0084 21.7928C66.3505 21.5956 66.7328 21.4467 67.1554 21.3461C67.578 21.2455 68.0086 21.169 68.4473 21.1167C69.0027 21.0523 69.4535 21 69.7996 20.9597C70.1457 20.9154 70.3972 20.845 70.5542 20.7484C70.7112 20.6518 70.7896 20.4949 70.7896 20.2775V20.2353C70.7896 19.7081 70.6407 19.2996 70.3429 19.0098C70.0491 18.72 69.6104 18.5751 69.0268 18.5751C68.4191 18.5751 67.9402 18.71 67.5901 18.9796C67.2439 19.2452 67.0045 19.541 66.8717 19.867L65.1753 19.4807C65.3765 18.9172 65.6703 18.4624 66.0567 18.1163C66.4471 17.7662 66.8958 17.5126 67.4029 17.3557C67.91 17.1947 68.4433 17.1142 69.0027 17.1142C69.373 17.1142 69.7654 17.1585 70.1799 17.247C70.5985 17.3315 70.9889 17.4885 71.3511 17.7179C71.7173 17.9473 72.0171 18.2753 72.2506 18.7019C72.484 19.1245 72.6007 19.6739 72.6007 20.35V26.5077H70.8379V25.2399H70.7655C70.6488 25.4733 70.4737 25.7027 70.2403 25.9281C70.0068 26.1535 69.707 26.3406 69.3408 26.4895C68.9745 26.6385 68.5358 26.7129 68.0247 26.7129ZM68.4171 25.264C68.9162 25.264 69.3428 25.1654 69.6969 24.9682C70.0551 24.771 70.3268 24.5135 70.5119 24.1955C70.7011 23.8735 70.7957 23.5294 70.7957 23.1632V21.9679C70.7313 22.0323 70.6065 22.0926 70.4214 22.149C70.2403 22.2013 70.033 22.2476 69.7996 22.2878C69.5661 22.3241 69.3388 22.3583 69.1174 22.3905C68.896 22.4186 68.7109 22.4428 68.562 22.4629C68.2119 22.5072 67.8919 22.5816 67.6021 22.6863C67.3164 22.7909 67.087 22.9418 66.9139 23.139C66.7449 23.3322 66.6604 23.5898 66.6604 23.9118C66.6604 24.3585 66.8254 24.6966 67.1554 24.926C67.4854 25.1514 67.906 25.264 68.4171 25.264ZM75.0049 26.5077V17.2349H76.81V26.5077H75.0049ZM75.9165 15.8042C75.6026 15.8042 75.3329 15.6995 75.1075 15.4903C74.8862 15.277 74.7755 15.0234 74.7755 14.7296C74.7755 14.4318 74.8862 14.1782 75.1075 13.969C75.3329 13.7556 75.6026 13.649 75.9165 13.649C76.2304 13.649 76.4981 13.7556 76.7194 13.969C76.9448 14.1782 77.0575 14.4318 77.0575 14.7296C77.0575 15.0234 76.9448 15.277 76.7194 15.4903C76.4981 15.6995 76.2304 15.8042 75.9165 15.8042ZM81.0434 14.144V26.5077H79.2383V14.144H81.0434ZM86.1702 26.7129C85.5826 26.7129 85.0514 26.6042 84.5765 26.3869C84.1016 26.1656 83.7253 25.8456 83.4476 25.427C83.1739 25.0085 83.0371 24.4953 83.0371 23.8876C83.0371 23.3644 83.1377 22.9338 83.3389 22.5957C83.5401 22.2577 83.8118 21.99 84.1539 21.7928C84.496 21.5956 84.8783 21.4467 85.3009 21.3461C85.7235 21.2455 86.1541 21.169 86.5928 21.1167C87.1482 21.0523 87.599 21 87.9451 20.9597C88.2912 20.9154 88.5427 20.845 88.6997 20.7484C88.8567 20.6518 88.9351 20.4949 88.9351 20.2775V20.2353C88.9351 19.7081 88.7862 19.2996 88.4884 19.0098C88.1946 18.72 87.7559 18.5751 87.1724 18.5751C86.5646 18.5751 86.0857 18.71 85.7356 18.9796C85.3894 19.2452 85.15 19.541 85.0172 19.867L83.3208 19.4807C83.522 18.9172 83.8158 18.4624 84.2022 18.1163C84.5926 17.7662 85.0413 17.5126 85.5484 17.3557C86.0555 17.1947 86.5888 17.1142 87.1482 17.1142C87.5185 17.1142 87.9109 17.1585 88.3254 17.247C88.744 17.3315 89.1344 17.4885 89.4966 17.7179C89.8628 17.9473 90.1626 18.2753 90.3961 18.7019C90.6295 19.1245 90.7462 19.6739 90.7462 20.35V26.5077H88.9834V25.2399H88.911C88.7943 25.4733 88.6192 25.7027 88.3858 25.9281C88.1523 26.1535 87.8525 26.3406 87.4863 26.4895C87.12 26.6385 86.6813 26.7129 86.1702 26.7129ZM86.5626 25.264C87.0617 25.264 87.4883 25.1654 87.8424 24.9682C88.2006 24.771 88.4723 24.5135 88.6574 24.1955C88.8466 23.8735 88.9412 23.5294 88.9412 23.1632V21.9679C88.8768 22.0323 88.752 22.0926 88.5669 22.149C88.3858 22.2013 88.1785 22.2476 87.9451 22.2878C87.7116 22.3241 87.4843 22.3583 87.2629 22.3905C87.0416 22.4186 86.8564 22.4428 86.7075 22.4629C86.3574 22.5072 86.0374 22.5816 85.7476 22.6863C85.4619 22.7909 85.2325 22.9418 85.0594 23.139C84.8904 23.3322 84.8059 23.5898 84.8059 23.9118C84.8059 24.3585 84.9709 24.6966 85.3009 24.926C85.6309 25.1514 86.0515 25.264 86.5626 25.264ZM93.2953 26.5077V14.144H95.1003V18.7381H95.209C95.3137 18.5449 95.4646 18.3216 95.6618 18.068C95.859 17.8145 96.1327 17.5931 96.4828 17.404C96.8329 17.2108 97.2958 17.1142 97.8713 17.1142C98.6199 17.1142 99.288 17.3033 99.8756 17.6817C100.463 18.06 100.924 18.6053 101.258 19.3177C101.596 20.03 101.765 20.8873 101.765 21.8894C101.765 22.8915 101.598 23.7508 101.264 24.4672C100.93 25.1795 100.471 25.7289 99.8876 26.1153C99.3041 26.4976 98.638 26.6888 97.8894 26.6888C97.326 26.6888 96.8651 26.5942 96.507 26.405C96.1528 26.2159 95.8751 25.9945 95.6739 25.741C95.4726 25.4874 95.3177 25.262 95.209 25.0648H95.0581V26.5077H93.2953ZM95.0641 21.8713C95.0641 22.5233 95.1587 23.0948 95.3479 23.5858C95.537 24.0768 95.8107 24.4611 96.1689 24.7388C96.5271 25.0125 96.9658 25.1493 97.4849 25.1493C98.0242 25.1493 98.475 25.0065 98.8372 24.7207C99.1994 24.431 99.4731 24.0386 99.6582 23.5435C99.8474 23.0485 99.942 22.4911 99.942 21.8713C99.942 21.2596 99.8494 20.7102 99.6643 20.2232C99.4832 19.7362 99.2095 19.3519 98.8432 19.0702C98.481 18.7884 98.0283 18.6476 97.4849 18.6476C96.9617 18.6476 96.519 18.7824 96.1568 19.052C95.7986 19.3217 95.527 19.698 95.3418 20.181C95.1567 20.6639 95.0641 21.2274 95.0641 21.8713ZM105.597 14.144V26.5077H103.792V14.144H105.597ZM112.022 26.6948C111.108 26.6948 110.321 26.4996 109.661 26.1092C109.005 25.7148 108.498 25.1614 108.14 24.4491C107.786 23.7327 107.609 22.8935 107.609 21.9317C107.609 20.9819 107.786 20.1447 108.14 19.4203C108.498 18.6959 108.997 18.1304 109.637 17.7239C110.281 17.3174 111.034 17.1142 111.895 17.1142C112.418 17.1142 112.925 17.2007 113.416 17.3738C113.907 17.5468 114.348 17.8185 114.738 18.1888C115.129 18.559 115.437 19.04 115.662 19.6316C115.888 20.2192 116 20.9336 116 21.7747V22.4146H108.629V21.0623H114.231C114.231 20.5874 114.135 20.1669 113.942 19.8006C113.748 19.4304 113.477 19.1386 113.127 18.9253C112.781 18.712 112.374 18.6053 111.907 18.6053C111.4 18.6053 110.957 18.7301 110.579 18.9796C110.205 19.2251 109.915 19.5471 109.71 19.9455C109.508 20.3399 109.408 20.7685 109.408 21.2314V22.2878C109.408 22.9076 109.517 23.4349 109.734 23.8695C109.955 24.3042 110.263 24.6362 110.658 24.8656C111.052 25.091 111.513 25.2037 112.04 25.2037C112.382 25.2037 112.694 25.1554 112.976 25.0588C113.257 24.9582 113.501 24.8093 113.706 24.6121C113.911 24.4149 114.068 24.1714 114.177 23.8816L115.885 24.1895C115.749 24.6926 115.503 25.1332 115.149 25.5116C114.799 25.8859 114.358 26.1776 113.827 26.3869C113.3 26.5922 112.698 26.6948 112.022 26.6948ZM126.915 17.2349V18.6838H121.675V17.2349H126.915ZM123.112 26.5077V16.1604C123.112 15.5808 123.238 15.0999 123.492 14.7175C123.746 14.3312 124.082 14.0434 124.5 13.8542C124.919 13.6611 125.374 13.5645 125.865 13.5645C126.227 13.5645 126.537 13.5947 126.794 13.655C127.052 13.7114 127.243 13.7637 127.368 13.812L126.945 15.2729C126.861 15.2488 126.752 15.2206 126.619 15.1884C126.486 15.1522 126.325 15.1341 126.136 15.1341C125.698 15.1341 125.384 15.2427 125.194 15.4601C125.009 15.6774 124.917 15.9913 124.917 16.4018V26.5077H123.112ZM132.318 26.6948C131.449 26.6948 130.69 26.4956 130.042 26.0971C129.394 25.6987 128.891 25.1413 128.533 24.4249C128.175 23.7085 127.996 22.8714 127.996 21.9136C127.996 20.9517 128.175 20.1105 128.533 19.3901C128.891 18.6697 129.394 18.1103 130.042 17.7118C130.69 17.3134 131.449 17.1142 132.318 17.1142C133.187 17.1142 133.946 17.3134 134.594 17.7118C135.242 18.1103 135.745 18.6697 136.103 19.3901C136.461 20.1105 136.64 20.9517 136.64 21.9136C136.64 22.8714 136.461 23.7085 136.103 24.4249C135.745 25.1413 135.242 25.6987 134.594 26.0971C133.946 26.4956 133.187 26.6948 132.318 26.6948ZM132.324 25.1795C132.888 25.1795 133.354 25.0306 133.725 24.7328C134.095 24.435 134.369 24.0386 134.546 23.5435C134.727 23.0485 134.817 22.5032 134.817 21.9075C134.817 21.3159 134.727 20.7726 134.546 20.2775C134.369 19.7785 134.095 19.378 133.725 19.0762C133.354 18.7743 132.888 18.6234 132.324 18.6234C131.757 18.6234 131.286 18.7743 130.911 19.0762C130.541 19.378 130.265 19.7785 130.084 20.2775C129.907 20.7726 129.819 21.3159 129.819 21.9075C129.819 22.5032 129.907 23.0485 130.084 23.5435C130.265 24.0386 130.541 24.435 130.911 24.7328C131.286 25.0306 131.757 25.1795 132.324 25.1795ZM138.655 26.5077V17.2349H140.4V18.7079H140.497C140.666 18.2089 140.963 17.8165 141.39 17.5307C141.821 17.241 142.308 17.0961 142.851 17.0961C142.964 17.0961 143.096 17.1001 143.249 17.1082C143.406 17.1162 143.529 17.1263 143.618 17.1383V18.8649C143.545 18.8448 143.416 18.8226 143.231 18.7985C143.046 18.7703 142.861 18.7562 142.676 18.7562C142.249 18.7562 141.869 18.8468 141.535 19.0279C141.205 19.205 140.943 19.4525 140.75 19.7704C140.557 20.0844 140.46 20.4426 140.46 20.845V26.5077H138.655Z" fill="#E8E8E8"/>
<path d="M148.944 26.5077V14.144H154.051C154.977 14.144 155.776 14.311 156.448 14.6451C157.124 14.9751 157.645 15.45 158.011 16.0698C158.378 16.6856 158.561 17.416 158.561 18.2612C158.561 19.1185 158.374 19.8469 157.999 20.4466C157.625 21.0422 157.094 21.497 156.406 21.8109C155.717 22.1208 154.902 22.2758 153.961 22.2758H150.731V19.9214H153.405C153.856 19.9214 154.232 19.863 154.534 19.7463C154.84 19.6256 155.072 19.4444 155.228 19.203C155.385 18.9575 155.464 18.6435 155.464 18.2612C155.464 17.8789 155.385 17.5629 155.228 17.3134C155.072 17.0599 154.84 16.8707 154.534 16.7459C154.228 16.6172 153.852 16.5528 153.405 16.5528H151.932V26.5077H148.944ZM155.905 20.8571L158.983 26.5077H155.723L152.705 20.8571H155.905ZM160.2 26.5077V17.2349H163.152V26.5077H160.2ZM161.679 16.1543C161.264 16.1543 160.908 16.0175 160.61 15.7438C160.313 15.4661 160.164 15.1321 160.164 14.7417C160.164 14.3553 160.313 14.0253 160.61 13.7516C160.908 13.4739 161.264 13.3351 161.679 13.3351C162.097 13.3351 162.454 13.4739 162.747 13.7516C163.045 14.0253 163.194 14.3553 163.194 14.7417C163.194 15.1321 163.045 15.4661 162.747 15.7438C162.454 16.0175 162.097 16.1543 161.679 16.1543ZM170.301 17.2349V19.4082H164.337V17.2349H170.301ZM165.58 26.5077V16.764C165.58 16.0477 165.715 15.454 165.985 14.9832C166.254 14.5082 166.629 14.1541 167.108 13.9207C167.587 13.6832 168.14 13.5645 168.768 13.5645C169.178 13.5645 169.565 13.5967 169.927 13.6611C170.293 13.7214 170.565 13.7758 170.742 13.8241L170.271 15.9853C170.162 15.9491 170.03 15.9189 169.873 15.8947C169.72 15.8706 169.575 15.8585 169.438 15.8585C169.092 15.8585 168.854 15.935 168.726 16.0879C168.597 16.2408 168.532 16.4501 168.532 16.7158V26.5077H165.58ZM176.955 17.2349V19.4082H171.106V17.2349H176.955ZM172.331 15.0133H175.283V23.5918C175.283 23.7729 175.311 23.9198 175.368 24.0325C175.428 24.1412 175.515 24.2197 175.627 24.268C175.74 24.3122 175.875 24.3344 176.032 24.3344C176.144 24.3344 176.263 24.3243 176.388 24.3042C176.517 24.28 176.613 24.2599 176.678 24.2438L177.124 26.3748C176.984 26.4151 176.784 26.4654 176.527 26.5258C176.273 26.5861 175.969 26.6244 175.615 26.6405C174.923 26.6727 174.329 26.5922 173.834 26.399C173.343 26.2018 172.967 25.8959 172.705 25.4814C172.448 25.0668 172.323 24.5457 172.331 23.9178V15.0133Z" fill="url(#paint2_linear_28_2962)"/>
</g>
</g>
<rect x="1.07826" y="1.07839" width="183.858" height="37.8585" rx="6.92857" stroke="white" stroke-opacity="0.15" stroke-width="2.14286"/>
<defs>
<filter id="filter0_d_28_2962" x="2.40656" y="0.406678" width="39.202" height="39.202" filterUnits="userSpaceOnUse" color-interpolation-filters="sRGB">
<feFlood flood-opacity="0" result="BackgroundImageFix"/>
<feColorMatrix in="SourceAlpha" type="matrix" values="0 0 0 0 0 0 0 0 0 0 0 0 0 0 0 0 0 0 127 0" result="hardAlpha"/>
<feOffset/>
<feGaussianBlur stdDeviation="2.80014"/>
<feComposite in2="hardAlpha" operator="out"/>
<feColorMatrix type="matrix" values="0 0 0 0 0 0 0 0 0 0 0 0 0 0 0 0 0 0 0.25 0"/>
<feBlend mode="normal" in2="BackgroundImageFix" result="effect1_dropShadow_28_2962"/>
<feBlend mode="normal" in="SourceGraphic" in2="effect1_dropShadow_28_2962" result="shape"/>
</filter>
<filter id="filter1_d_28_2962" x="38.294" y="3.79337" width="145.429" height="32.4286" filterUnits="userSpaceOnUse" color-interpolation-filters="sRGB">
<feFlood flood-opacity="0" result="BackgroundImageFix"/>
<feColorMatrix in="SourceAlpha" type="matrix" values="0 0 0 0 0 0 0 0 0 0 0 0 0 0 0 0 0 0 127 0" result="hardAlpha"/>
<feOffset/>
<feGaussianBlur stdDeviation="2.85714"/>
<feComposite in2="hardAlpha" operator="out"/>
<feColorMatrix type="matrix" values="0 0 0 0 0 0 0 0 0 0 0 0 0 0 0 0 0 0 0.25 0"/>
<feBlend mode="normal" in2="BackgroundImageFix" result="effect1_dropShadow_28_2962"/>
<feBlend mode="normal" in="SourceGraphic" in2="effect1_dropShadow_28_2962" result="shape"/>
</filter>
<linearGradient id="paint0_linear_28_2962" x1="93.0075" y1="0.00695801" x2="93.0075" y2="40.0084" gradientUnits="userSpaceOnUse">
<stop stop-color="#383838"/>
<stop offset="1" stop-color="#242424"/>
</linearGradient>
<linearGradient id="paint1_linear_28_2962" x1="8.00684" y1="6.00702" x2="8.00684" y2="34.0084" gradientUnits="userSpaceOnUse">
<stop stop-color="white"/>
<stop offset="1" stop-color="#B9B9B9"/>
</linearGradient>
<linearGradient id="paint2_linear_28_2962" x1="163.008" y1="9.50766" x2="163.008" y2="30.5077" gradientUnits="userSpaceOnUse">
<stop stop-color="white"/>
<stop offset="1" stop-color="#B9B9B9"/>
</linearGradient>
<clipPath id="clip0_28_2962">
<rect x="0.00683594" y="0.00695801" width="186.001" height="40.0014" rx="8" fill="white"/>
</clipPath>
</defs>
</svg>
