<svg width="185" height="41" viewBox="0 0 185 41" fill="none" xmlns="http://www.w3.org/2000/svg">
<g clip-path="url(#clip0_28_2962)">
<rect x="0.00683594" y="0.00695801" width="184.001" height="40.0014" rx="8" fill="url(#paint0_linear_28_2962)"/>
<g filter="url(#filter0_d_28_2962)">
<path d="M21.3075 6.41112C21.7407 6.16102 22.2744 6.16102 22.7076 6.41112L33.4325 12.6031C33.8656 12.8532 34.1325 13.3154 34.1325 13.8156V26.1997C34.1325 26.6999 33.8656 27.1621 33.4325 27.4122L22.7076 33.6042C22.2744 33.8543 21.7407 33.8543 21.3075 33.6042L10.5826 27.4122C10.1494 27.1621 9.88257 26.6999 9.88257 26.1997V13.8156C9.88257 13.3154 10.1494 12.8532 10.5826 12.6031L21.3075 6.41112Z" fill="url(#paint1_linear_28_2962)"/>
</g>
<g filter="url(#filter1_d_28_2962)">
<path d="M44.411 26.5077H42.4309L46.8801 14.144H49.0353L53.4845 26.5077H51.5044L48.009 16.3898H47.9124L44.411 26.5077ZM44.743 21.666H51.1663V23.2356H44.743V21.666ZM61.8955 17.2349L58.5329 26.5077H56.6011L53.2325 17.2349H55.1703L57.5187 24.3706H57.6153L59.9576 17.2349H61.8955ZM66.0247 26.7129C65.4371 26.7129 64.9059 26.6042 64.431 26.3869C63.9561 26.1656 63.5798 25.8456 63.3021 25.427C63.0284 25.0085 62.8916 24.4953 62.8916 23.8876C62.8916 23.3644 62.9922 22.9338 63.1934 22.5957C63.3946 22.2577 63.6663 21.99 64.0084 21.7928C64.3505 21.5956 64.7328 21.4467 65.1554 21.3461C65.578 21.2455 66.0086 21.169 66.4473 21.1167C67.0027 21.0523 67.4535 21 67.7996 20.9597C68.1457 20.9154 68.3972 20.845 68.5542 20.7484C68.7112 20.6518 68.7896 20.4949 68.7896 20.2775V20.2353C68.7896 19.7081 68.6407 19.2996 68.3429 19.0098C68.0491 18.72 67.6104 18.5751 67.0268 18.5751C66.4191 18.5751 65.9402 18.71 65.5901 18.9796C65.2439 19.2452 65.0045 19.541 64.8717 19.867L63.1753 19.4807C63.3765 18.9172 63.6703 18.4624 64.0567 18.1163C64.4471 17.7662 64.8958 17.5126 65.4029 17.3557C65.91 17.1947 66.4433 17.1142 67.0027 17.1142C67.373 17.1142 67.7654 17.1585 68.1799 17.247C68.5985 17.3315 68.9889 17.4885 69.3511 17.7179C69.7173 17.9473 70.0171 18.2753 70.2506 18.7019C70.484 19.1245 70.6007 19.6739 70.6007 20.35V26.5077H68.8379V25.2399H68.7655C68.6488 25.4733 68.4737 25.7027 68.2403 25.9281C68.0068 26.1535 67.707 26.3406 67.3408 26.4895C66.9745 26.6385 66.5358 26.7129 66.0247 26.7129ZM66.4171 25.264C66.9162 25.264 67.3428 25.1654 67.6969 24.9682C68.0551 24.771 68.3268 24.5135 68.5119 24.1955C68.7011 23.8735 68.7957 23.5294 68.7957 23.1632V21.9679C68.7313 22.0323 68.6065 22.0926 68.4214 22.149C68.2403 22.2013 68.033 22.2476 67.7996 22.2878C67.5661 22.3241 67.3388 22.3583 67.1174 22.3905C66.896 22.4186 66.7109 22.4428 66.562 22.4629C66.2119 22.5072 65.8919 22.5816 65.6021 22.6863C65.3164 22.7909 65.087 22.9418 64.9139 23.139C64.7449 23.3322 64.6604 23.5898 64.6604 23.9118C64.6604 24.3585 64.8254 24.6966 65.1554 24.926C65.4854 25.1514 65.906 25.264 66.4171 25.264ZM73.0049 26.5077V17.2349H74.81V26.5077H73.0049ZM73.9165 15.8042C73.6026 15.8042 73.3329 15.6995 73.1075 15.4903C72.8862 15.277 72.7755 15.0234 72.7755 14.7296C72.7755 14.4318 72.8862 14.1782 73.1075 13.969C73.3329 13.7556 73.6026 13.649 73.9165 13.649C74.2304 13.649 74.4981 13.7556 74.7194 13.969C74.9448 14.1782 75.0575 14.4318 75.0575 14.7296C75.0575 15.0234 74.9448 15.277 74.7194 15.4903C74.4981 15.6995 74.2304 15.8042 73.9165 15.8042ZM79.0434 14.144V26.5077H77.2383V14.144H79.0434ZM84.1702 26.7129C83.5826 26.7129 83.0514 26.6042 82.5765 26.3869C82.1016 26.1656 81.7253 25.8456 81.4476 25.427C81.1739 25.0085 81.0371 24.4953 81.0371 23.8876C81.0371 23.3644 81.1377 22.9338 81.3389 22.5957C81.5401 22.2577 81.8118 21.99 82.1539 21.7928C82.496 21.5956 82.8783 21.4467 83.3009 21.3461C83.7235 21.2455 84.1541 21.169 84.5928 21.1167C85.1482 21.0523 85.599 21 85.9451 20.9597C86.2912 20.9154 86.5427 20.845 86.6997 20.7484C86.8567 20.6518 86.9351 20.4949 86.9351 20.2775V20.2353C86.9351 19.7081 86.7862 19.2996 86.4884 19.0098C86.1946 18.72 85.7559 18.5751 85.1724 18.5751C84.5646 18.5751 84.0857 18.71 83.7356 18.9796C83.3894 19.2452 83.15 19.541 83.0172 19.867L81.3208 19.4807C81.522 18.9172 81.8158 18.4624 82.2022 18.1163C82.5926 17.7662 83.0413 17.5126 83.5484 17.3557C84.0555 17.1947 84.5888 17.1142 85.1482 17.1142C85.5185 17.1142 85.9109 17.1585 86.3254 17.247C86.744 17.3315 87.1344 17.4885 87.4966 17.7179C87.8628 17.9473 88.1626 18.2753 88.3961 18.7019C88.6295 19.1245 88.7462 19.6739 88.7462 20.35V26.5077H86.9834V25.2399H86.911C86.7943 25.4733 86.6192 25.7027 86.3858 25.9281C86.1523 26.1535 85.8525 26.3406 85.4863 26.4895C85.12 26.6385 84.6813 26.7129 84.1702 26.7129ZM84.5626 25.264C85.0617 25.264 85.4883 25.1654 85.8424 24.9682C86.2006 24.771 86.4723 24.5135 86.6574 24.1955C86.8466 23.8735 86.9412 23.5294 86.9412 23.1632V21.9679C86.8768 22.0323 86.752 22.0926 86.5669 22.149C86.3858 22.2013 86.1785 22.2476 85.9451 22.2878C85.7116 22.3241 85.4843 22.3583 85.2629 22.3905C85.0416 22.4186 84.8564 22.4428 84.7075 22.4629C84.3574 22.5072 84.0374 22.5816 83.7476 22.6863C83.4619 22.7909 83.2325 22.9418 83.0594 23.139C82.8904 23.3322 82.8059 23.5898 82.8059 23.9118C82.8059 24.3585 82.9709 24.6966 83.3009 24.926C83.6309 25.1514 84.0515 25.264 84.5626 25.264ZM91.2953 26.5077V14.144H93.1003V18.7381H93.209C93.3137 18.5449 93.4646 18.3216 93.6618 18.068C93.859 17.8145 94.1327 17.5931 94.4828 17.404C94.8329 17.2108 95.2958 17.1142 95.8713 17.1142C96.6199 17.1142 97.288 17.3033 97.8756 17.6817C98.4632 18.06 98.924 18.6053 99.258 19.3177C99.5961 20.03 99.7651 20.8873 99.7651 21.8894C99.7651 22.8915 99.5981 23.7508 99.2641 24.4672C98.93 25.1795 98.4712 25.7289 97.8876 26.1153C97.3041 26.4976 96.638 26.6888 95.8894 26.6888C95.326 26.6888 94.8651 26.5942 94.507 26.405C94.1528 26.2159 93.8751 25.9945 93.6739 25.741C93.4726 25.4874 93.3177 25.262 93.209 25.0648H93.0581V26.5077H91.2953ZM93.0641 21.8713C93.0641 22.5233 93.1587 23.0948 93.3479 23.5858C93.537 24.0768 93.8107 24.4611 94.1689 24.7388C94.5271 25.0125 94.9658 25.1493 95.4849 25.1493C96.0242 25.1493 96.475 25.0065 96.8372 24.7207C97.1994 24.431 97.4731 24.0386 97.6582 23.5435C97.8474 23.0485 97.942 22.4911 97.942 21.8713C97.942 21.2596 97.8494 20.7102 97.6643 20.2232C97.4832 19.7362 97.2095 19.3519 96.8432 19.0702C96.481 18.7884 96.0283 18.6476 95.4849 18.6476C94.9617 18.6476 94.519 18.7824 94.1568 19.052C93.7986 19.3217 93.527 19.698 93.3418 20.181C93.1567 20.6639 93.0641 21.2274 93.0641 21.8713ZM103.597 14.144V26.5077H101.792V14.144H103.597ZM110.022 26.6948C109.108 26.6948 108.321 26.4996 107.661 26.1092C107.005 25.7148 106.498 25.1614 106.14 24.4491C105.786 23.7327 105.609 22.8935 105.609 21.9317C105.609 20.9819 105.786 20.1447 106.14 19.4203C106.498 18.6959 106.997 18.1304 107.637 17.7239C108.281 17.3174 109.034 17.1142 109.895 17.1142C110.418 17.1142 110.925 17.2007 111.416 17.3738C111.907 17.5468 112.348 17.8185 112.738 18.1888C113.129 18.559 113.437 19.04 113.662 19.6316C113.888 20.2192 114 20.9336 114 21.7747V22.4146H106.629V21.0623H112.231C112.231 20.5874 112.135 20.1669 111.942 19.8006C111.748 19.4304 111.477 19.1386 111.127 18.9253C110.781 18.712 110.374 18.6053 109.907 18.6053C109.4 18.6053 108.957 18.7301 108.579 18.9796C108.205 19.2251 107.915 19.5471 107.71 19.9455C107.508 20.3399 107.408 20.7685 107.408 21.2314V22.2878C107.408 22.9076 107.517 23.4349 107.734 23.8695C107.955 24.3042 108.263 24.6362 108.658 24.8656C109.052 25.091 109.513 25.2037 110.04 25.2037C110.382 25.2037 110.694 25.1554 110.976 25.0588C111.257 24.9582 111.501 24.8093 111.706 24.6121C111.911 24.4149 112.068 24.1714 112.177 23.8816L113.885 24.1895C113.749 24.6926 113.503 25.1332 113.149 25.5116C112.799 25.8859 112.358 26.1776 111.827 26.3869C111.3 26.5922 110.698 26.6948 110.022 26.6948ZM124.915 17.2349V18.6838H119.675V17.2349H124.915ZM121.112 26.5077V16.1604C121.112 15.5808 121.238 15.0999 121.492 14.7175C121.746 14.3312 122.082 14.0434 122.5 13.8542C122.919 13.6611 123.374 13.5645 123.865 13.5645C124.227 13.5645 124.537 13.5947 124.794 13.655C125.052 13.7114 125.243 13.7637 125.368 13.812L124.945 15.2729C124.861 15.2488 124.752 15.2206 124.619 15.1884C124.486 15.1522 124.325 15.1341 124.136 15.1341C123.698 15.1341 123.384 15.2427 123.194 15.4601C123.009 15.6774 122.917 15.9913 122.917 16.4018V26.5077H121.112ZM130.318 26.6948C129.449 26.6948 128.69 26.4956 128.042 26.0971C127.394 25.6987 126.891 25.1413 126.533 24.4249C126.175 23.7085 125.996 22.8714 125.996 21.9136C125.996 20.9517 126.175 20.1105 126.533 19.3901C126.891 18.6697 127.394 18.1103 128.042 17.7118C128.69 17.3134 129.449 17.1142 130.318 17.1142C131.187 17.1142 131.946 17.3134 132.594 17.7118C133.242 18.1103 133.745 18.6697 134.103 19.3901C134.461 20.1105 134.64 20.9517 134.64 21.9136C134.64 22.8714 134.461 23.7085 134.103 24.4249C133.745 25.1413 133.242 25.6987 132.594 26.0971C131.946 26.4956 131.187 26.6948 130.318 26.6948ZM130.324 25.1795C130.888 25.1795 131.354 25.0306 131.725 24.7328C132.095 24.435 132.369 24.0386 132.546 23.5435C132.727 23.0485 132.817 22.5032 132.817 21.9075C132.817 21.3159 132.727 20.7726 132.546 20.2775C132.369 19.7785 132.095 19.378 131.725 19.0762C131.354 18.7743 130.888 18.6234 130.324 18.6234C129.757 18.6234 129.286 18.7743 128.911 19.0762C128.541 19.378 128.265 19.7785 128.084 20.2775C127.907 20.7726 127.819 21.3159 127.819 21.9075C127.819 22.5032 127.907 23.0485 128.084 23.5435C128.265 24.0386 128.541 24.435 128.911 24.7328C129.286 25.0306 129.757 25.1795 130.324 25.1795ZM136.655 26.5077V17.2349H138.4V18.7079H138.497C138.666 18.2089 138.963 17.8165 139.39 17.5307C139.821 17.241 140.308 17.0961 140.851 17.0961C140.964 17.0961 141.096 17.1001 141.249 17.1082C141.406 17.1162 141.529 17.1263 141.618 17.1383V18.8649C141.545 18.8448 141.416 18.8226 141.231 18.7985C141.046 18.7703 140.861 18.7562 140.676 18.7562C140.249 18.7562 139.869 18.8468 139.535 19.0279C139.205 19.205 138.943 19.4525 138.75 19.7704C138.557 20.0844 138.46 20.4426 138.46 20.845V26.5077H136.655Z" fill="#E8E8E8"/>
<path d="M146.944 26.5077V14.144H152.051C152.977 14.144 153.776 14.311 154.448 14.6451C155.124 14.9751 155.645 15.45 156.011 16.0698C156.378 16.6856 156.561 17.416 156.561 18.2612C156.561 19.1185 156.374 19.8469 155.999 20.4466C155.625 21.0422 155.094 21.497 154.406 21.8109C153.717 22.1208 152.902 22.2758 151.961 22.2758H148.731V19.9214H151.405C151.856 19.9214 152.232 19.863 152.534 19.7463C152.84 19.6256 153.072 19.4444 153.228 19.203C153.385 18.9575 153.464 18.6435 153.464 18.2612C153.464 17.8789 153.385 17.5629 153.228 17.3134C153.072 17.0599 152.84 16.8707 152.534 16.7459C152.228 16.6172 151.852 16.5528 151.405 16.5528H149.932V26.5077H146.944ZM153.905 20.8571L156.983 26.5077H153.723L150.705 20.8571H153.905ZM158.2 26.5077V17.2349H161.152V26.5077H158.2ZM159.679 16.1543C159.264 16.1543 158.908 16.0175 158.61 15.7438C158.313 15.4661 158.164 15.1321 158.164 14.7417C158.164 14.3553 158.313 14.0253 158.61 13.7516C158.908 13.4739 159.264 13.3351 159.679 13.3351C160.097 13.3351 160.454 13.4739 160.747 13.7516C161.045 14.0253 161.194 14.3553 161.194 14.7417C161.194 15.1321 161.045 15.4661 160.747 15.7438C160.454 16.0175 160.097 16.1543 159.679 16.1543ZM168.301 17.2349V19.4082H162.337V17.2349H168.301ZM163.58 26.5077V16.764C163.58 16.0477 163.715 15.454 163.985 14.9832C164.254 14.5082 164.629 14.1541 165.108 13.9207C165.587 13.6832 166.14 13.5645 166.768 13.5645C167.178 13.5645 167.565 13.5967 167.927 13.6611C168.293 13.7214 168.565 13.7758 168.742 13.8241L168.271 15.9853C168.162 15.9491 168.03 15.9189 167.873 15.8947C167.72 15.8706 167.575 15.8585 167.438 15.8585C167.092 15.8585 166.854 15.935 166.726 16.0879C166.597 16.2408 166.532 16.4501 166.532 16.7158V26.5077H163.58ZM174.955 17.2349V19.4082H169.106V17.2349H174.955ZM170.331 15.0133H173.283V23.5918C173.283 23.7729 173.311 23.9198 173.368 24.0325C173.428 24.1412 173.515 24.2197 173.627 24.268C173.74 24.3122 173.875 24.3344 174.032 24.3344C174.144 24.3344 174.263 24.3243 174.388 24.3042C174.517 24.28 174.613 24.2599 174.678 24.2438L175.124 26.3748C174.984 26.4151 174.784 26.4654 174.527 26.5258C174.273 26.5861 173.969 26.6244 173.615 26.6405C172.923 26.6727 172.329 26.5922 171.834 26.399C171.343 26.2018 170.967 25.8959 170.705 25.4814C170.448 25.0668 170.323 24.5457 170.331 23.9178V15.0133Z" fill="url(#paint2_linear_28_2962)"/>
</g>
</g>
<rect x="1.07826" y="1.07839" width="181.858" height="37.8585" rx="6.92857" stroke="white" stroke-opacity="0.15" stroke-width="2.14286"/>
<defs>
<filter id="filter0_d_28_2962" x="2.40656" y="0.406678" width="39.202" height="39.202" filterUnits="userSpaceOnUse" color-interpolation-filters="sRGB">
<feFlood flood-opacity="0" result="BackgroundImageFix"/>
<feColorMatrix in="SourceAlpha" type="matrix" values="0 0 0 0 0 0 0 0 0 0 0 0 0 0 0 0 0 0 127 0" result="hardAlpha"/>
<feOffset/>
<feGaussianBlur stdDeviation="2.80014"/>
<feComposite in2="hardAlpha" operator="out"/>
<feColorMatrix type="matrix" values="0 0 0 0 0 0 0 0 0 0 0 0 0 0 0 0 0 0 0.25 0"/>
<feBlend mode="normal" in2="BackgroundImageFix" result="effect1_dropShadow_28_2962"/>
<feBlend mode="normal" in="SourceGraphic" in2="effect1_dropShadow_28_2962" result="shape"/>
</filter>
<filter id="filter1_d_28_2962" x="36.294" y="3.79337" width="145.429" height="32.4286" filterUnits="userSpaceOnUse" color-interpolation-filters="sRGB">
<feFlood flood-opacity="0" result="BackgroundImageFix"/>
<feColorMatrix in="SourceAlpha" type="matrix" values="0 0 0 0 0 0 0 0 0 0 0 0 0 0 0 0 0 0 127 0" result="hardAlpha"/>
<feOffset/>
<feGaussianBlur stdDeviation="2.85714"/>
<feComposite in2="hardAlpha" operator="out"/>
<feColorMatrix type="matrix" values="0 0 0 0 0 0 0 0 0 0 0 0 0 0 0 0 0 0 0.25 0"/>
<feBlend mode="normal" in2="BackgroundImageFix" result="effect1_dropShadow_28_2962"/>
<feBlend mode="normal" in="SourceGraphic" in2="effect1_dropShadow_28_2962" result="shape"/>
</filter>
<linearGradient id="paint0_linear_28_2962" x1="92.0075" y1="0.00695801" x2="92.0075" y2="40.0084" gradientUnits="userSpaceOnUse">
<stop stop-color="#383838"/>
<stop offset="1" stop-color="#242424"/>
</linearGradient>
<linearGradient id="paint1_linear_28_2962" x1="8.00684" y1="6.00702" x2="8.00684" y2="34.0084" gradientUnits="userSpaceOnUse">
<stop stop-color="white"/>
<stop offset="1" stop-color="#B9B9B9"/>
</linearGradient>
<linearGradient id="paint2_linear_28_2962" x1="161.008" y1="9.50766" x2="161.008" y2="30.5077" gradientUnits="userSpaceOnUse">
<stop stop-color="white"/>
<stop offset="1" stop-color="#B9B9B9"/>
</linearGradient>
<clipPath id="clip0_28_2962">
<rect x="0.00683594" y="0.00695801" width="184.001" height="40.0014" rx="8" fill="white"/>
</clipPath>
</defs>
</svg>
