<svg width="127" height="28" viewBox="0 0 127 28" fill="none" xmlns="http://www.w3.org/2000/svg">
<g clip-path="url(#clip0_28_2962)">
<rect x="-0.000732422" y="-1.52588e-05" width="126.5" height="28" rx="6" fill="url(#paint0_linear_28_2962)"/>
<g filter="url(#filter0_d_28_2962)">
<path d="M15.4993 4.28866C15.8087 4.11003 16.1899 4.11003 16.4993 4.28866L24.1595 8.71131C24.4689 8.88994 24.6595 9.22007 24.6595 9.57733V18.4226C24.6595 18.7799 24.4689 19.11 24.1595 19.2887L16.4993 23.7113C16.1899 23.8899 15.8087 23.8899 15.4993 23.7113L7.83901 19.2887C7.52961 19.11 7.33901 18.7799 7.33901 18.4226V9.57734C7.33901 9.22007 7.52961 8.88994 7.83901 8.71131L15.4993 4.28866Z" fill="url(#paint1_linear_28_2962)"/>
</g>
<g filter="url(#filter1_d_28_2962)">
<path d="M33.554 18.5H32.2727L35.1516 10.5H36.5461L39.425 18.5H38.1438L35.8821 11.9531H35.8196L33.554 18.5ZM33.7688 15.3672H37.925V16.3828H33.7688V15.3672ZM44.8674 12.5L42.6916 18.5H41.4416L39.262 12.5H40.5159L42.0354 17.1172H42.0979L43.6135 12.5H44.8674ZM47.5393 18.6328C47.1591 18.6328 46.8153 18.5625 46.5081 18.4219C46.2008 18.2786 45.9573 18.0716 45.7776 17.8008C45.6005 17.5299 45.512 17.1979 45.512 16.8047C45.512 16.4661 45.5771 16.1875 45.7073 15.9687C45.8375 15.75 46.0133 15.5768 46.2346 15.4492C46.456 15.3216 46.7034 15.2252 46.9768 15.1601C47.2502 15.095 47.5289 15.0456 47.8127 15.0117C48.1721 14.97 48.4638 14.9362 48.6877 14.9101C48.9117 14.8815 49.0745 14.8359 49.176 14.7734C49.2776 14.7109 49.3284 14.6094 49.3284 14.4687V14.4414C49.3284 14.1002 49.232 13.8359 49.0393 13.6484C48.8492 13.4609 48.5653 13.3672 48.1877 13.3672C47.7945 13.3672 47.4846 13.4544 47.2581 13.6289C47.0341 13.8008 46.8791 13.9922 46.7932 14.2031L45.6956 13.9531C45.8258 13.5885 46.0159 13.2943 46.2659 13.0703C46.5185 12.8437 46.8088 12.6797 47.137 12.5781C47.4651 12.4739 47.8101 12.4219 48.1721 12.4219C48.4117 12.4219 48.6656 12.4505 48.9338 12.5078C49.2047 12.5625 49.4573 12.664 49.6916 12.8125C49.9286 12.9609 50.1226 13.1732 50.2737 13.4492C50.4247 13.7226 50.5002 14.0781 50.5002 14.5156V18.5H49.3596V17.6797H49.3127C49.2372 17.8307 49.1239 17.9791 48.9729 18.125C48.8219 18.2708 48.6278 18.3919 48.3909 18.4883C48.1539 18.5846 47.87 18.6328 47.5393 18.6328ZM47.7932 17.6953C48.1161 17.6953 48.3922 17.6315 48.6213 17.5039C48.8531 17.3763 49.0289 17.2096 49.1487 17.0039C49.2711 16.7956 49.3323 16.5729 49.3323 16.3359V15.5625C49.2906 15.6041 49.2099 15.6432 49.0901 15.6797C48.9729 15.7135 48.8388 15.7435 48.6877 15.7695C48.5367 15.793 48.3896 15.8151 48.2463 15.8359C48.1031 15.8541 47.9833 15.8698 47.887 15.8828C47.6604 15.9114 47.4534 15.9596 47.2659 16.0273C47.081 16.095 46.9325 16.1927 46.8206 16.3203C46.7112 16.4453 46.6565 16.612 46.6565 16.8203C46.6565 17.1094 46.7633 17.3281 46.9768 17.4765C47.1903 17.6224 47.4625 17.6953 47.7932 17.6953ZM52.0559 18.5V12.5H53.2239V18.5H52.0559ZM52.6457 11.5742C52.4426 11.5742 52.2681 11.5065 52.1223 11.3711C51.9791 11.2331 51.9075 11.069 51.9075 10.8789C51.9075 10.6862 51.9791 10.5221 52.1223 10.3867C52.2681 10.2487 52.4426 10.1797 52.6457 10.1797C52.8489 10.1797 53.022 10.2487 53.1653 10.3867C53.3111 10.5221 53.384 10.6862 53.384 10.8789C53.384 11.069 53.3111 11.2331 53.1653 11.3711C53.022 11.5065 52.8489 11.5742 52.6457 11.5742ZM55.9631 10.5V18.5H54.7952V10.5H55.9631ZM59.2805 18.6328C58.9003 18.6328 58.5566 18.5625 58.2493 18.4219C57.942 18.2786 57.6985 18.0716 57.5188 17.8008C57.3417 17.5299 57.2532 17.1979 57.2532 16.8047C57.2532 16.4661 57.3183 16.1875 57.4485 15.9687C57.5787 15.75 57.7545 15.5768 57.9758 15.4492C58.1972 15.3216 58.4446 15.2252 58.718 15.1601C58.9914 15.095 59.2701 15.0456 59.5539 15.0117C59.9133 14.97 60.205 14.9362 60.4289 14.9101C60.6529 14.8815 60.8157 14.8359 60.9172 14.7734C61.0188 14.7109 61.0696 14.6094 61.0696 14.4687V14.4414C61.0696 14.1002 60.9732 13.8359 60.7805 13.6484C60.5904 13.4609 60.3066 13.3672 59.9289 13.3672C59.5357 13.3672 59.2258 13.4544 58.9993 13.6289C58.7753 13.8008 58.6204 13.9922 58.5344 14.2031L57.4368 13.9531C57.567 13.5885 57.7571 13.2943 58.0071 13.0703C58.2597 12.8437 58.55 12.6797 58.8782 12.5781C59.2063 12.4739 59.5513 12.4219 59.9133 12.4219C60.1529 12.4219 60.4068 12.4505 60.675 12.5078C60.9459 12.5625 61.1985 12.664 61.4329 12.8125C61.6698 12.9609 61.8638 13.1732 62.0149 13.4492C62.1659 13.7226 62.2414 14.0781 62.2414 14.5156V18.5H61.1008V17.6797H61.0539C60.9784 17.8307 60.8651 17.9791 60.7141 18.125C60.5631 18.2708 60.3691 18.3919 60.1321 18.4883C59.8951 18.5846 59.6112 18.6328 59.2805 18.6328ZM59.5344 17.6953C59.8573 17.6953 60.1334 17.6315 60.3625 17.5039C60.5943 17.3763 60.7701 17.2096 60.8899 17.0039C61.0123 16.7956 61.0735 16.5729 61.0735 16.3359V15.5625C61.0318 15.6041 60.9511 15.6432 60.8313 15.6797C60.7141 15.7135 60.58 15.7435 60.4289 15.7695C60.2779 15.793 60.1308 15.8151 59.9875 15.8359C59.8443 15.8541 59.7245 15.8698 59.6282 15.8828C59.4016 15.9114 59.1946 15.9596 59.0071 16.0273C58.8222 16.095 58.6737 16.1927 58.5618 16.3203C58.4524 16.4453 58.3977 16.612 58.3977 16.8203C58.3977 17.1094 58.5045 17.3281 58.718 17.4765C58.9316 17.6224 59.2037 17.6953 59.5344 17.6953ZM63.8909 18.5V10.5H65.0588V13.4726H65.1291C65.1968 13.3476 65.2945 13.2031 65.4221 13.039C65.5497 12.875 65.7268 12.7318 65.9534 12.6094C66.1799 12.4844 66.4794 12.4219 66.8518 12.4219C67.3362 12.4219 67.7685 12.5443 68.1487 12.789C68.5289 13.0338 68.8271 13.3867 69.0432 13.8476C69.262 14.3086 69.3713 14.8633 69.3713 15.5117C69.3713 16.1601 69.2633 16.7161 69.0471 17.1797C68.831 17.6406 68.5341 17.9961 68.1565 18.2461C67.7789 18.4935 67.3479 18.6172 66.8635 18.6172C66.4989 18.6172 66.2008 18.556 65.969 18.4336C65.7398 18.3112 65.5601 18.168 65.4299 18.0039C65.2997 17.8398 65.1995 17.694 65.1291 17.5664H65.0315V18.5H63.8909ZM65.0354 15.5C65.0354 15.9219 65.0966 16.2916 65.219 16.6094C65.3414 16.9271 65.5185 17.1758 65.7502 17.3555C65.982 17.5325 66.2659 17.6211 66.6018 17.6211C66.9508 17.6211 67.2424 17.5286 67.4768 17.3437C67.7112 17.1562 67.8883 16.9023 68.008 16.582C68.1304 16.2617 68.1916 15.901 68.1916 15.5C68.1916 15.1041 68.1317 14.7487 68.012 14.4336C67.8948 14.1185 67.7177 13.8698 67.4807 13.6875C67.2463 13.5052 66.9534 13.414 66.6018 13.414C66.2633 13.414 65.9768 13.5013 65.7424 13.6758C65.5107 13.8502 65.3349 14.0937 65.2151 14.4062C65.0953 14.7187 65.0354 15.0833 65.0354 15.5ZM71.8508 10.5V18.5H70.6828V10.5H71.8508ZM76.008 18.6211C75.4169 18.6211 74.9078 18.4948 74.4807 18.2422C74.0562 17.987 73.7281 17.6289 73.4963 17.168C73.2672 16.7044 73.1526 16.1614 73.1526 15.539C73.1526 14.9245 73.2672 14.3828 73.4963 13.914C73.7281 13.4453 74.051 13.0794 74.4651 12.8164C74.8817 12.5534 75.3687 12.4219 75.926 12.4219C76.2646 12.4219 76.5927 12.4778 76.9104 12.5898C77.2281 12.7018 77.5133 12.8776 77.7659 13.1172C78.0185 13.3568 78.2177 13.668 78.3635 14.0508C78.5093 14.431 78.5823 14.8932 78.5823 15.4375V15.8515H73.8127V14.9765H77.4377C77.4377 14.6693 77.3752 14.3971 77.2502 14.1601C77.1252 13.9206 76.9494 13.7318 76.7229 13.5937C76.4989 13.4557 76.2359 13.3867 75.9338 13.3867C75.6057 13.3867 75.3192 13.4674 75.0745 13.6289C74.8323 13.7877 74.6448 13.9961 74.512 14.2539C74.3817 14.5091 74.3166 14.7864 74.3166 15.0859V15.7695C74.3166 16.1706 74.387 16.5117 74.5276 16.793C74.6708 17.0742 74.87 17.289 75.1252 17.4375C75.3804 17.5833 75.6786 17.6562 76.0198 17.6562C76.2411 17.6562 76.4429 17.625 76.6252 17.5625C76.8075 17.4974 76.9651 17.401 77.0979 17.2734C77.2307 17.1458 77.3323 16.9883 77.4026 16.8008L78.508 17C78.4195 17.3255 78.2606 17.6107 78.0315 17.8555C77.8049 18.0976 77.5198 18.2864 77.176 18.4219C76.8349 18.5547 76.4455 18.6211 76.008 18.6211ZM85.6448 12.5V13.4375H82.2541V12.5H85.6448ZM83.1838 18.5V11.8047C83.1838 11.4297 83.2659 11.1185 83.4299 10.8711C83.594 10.6211 83.8114 10.4349 84.0823 10.3125C84.3531 10.1875 84.6474 10.125 84.9651 10.125C85.1994 10.125 85.4 10.1445 85.5666 10.1836C85.7333 10.22 85.857 10.2539 85.9377 10.2851L85.6643 11.2305C85.6096 11.2148 85.5393 11.1966 85.4534 11.1758C85.3674 11.1523 85.2632 11.1406 85.1409 11.1406C84.857 11.1406 84.6539 11.2109 84.5315 11.3515C84.4117 11.4922 84.3518 11.6953 84.3518 11.9609V18.5H83.1838ZM89.1409 18.6211C88.5784 18.6211 88.0875 18.4922 87.6682 18.2344C87.2489 17.9765 86.9234 17.6159 86.6916 17.1523C86.4599 16.6888 86.344 16.1471 86.344 15.5273C86.344 14.9049 86.4599 14.3607 86.6916 13.8945C86.9234 13.4284 87.2489 13.0664 87.6682 12.8086C88.0875 12.5508 88.5784 12.4219 89.1409 12.4219C89.7034 12.4219 90.1942 12.5508 90.6135 12.8086C91.0328 13.0664 91.3583 13.4284 91.5901 13.8945C91.8218 14.3607 91.9377 14.9049 91.9377 15.5273C91.9377 16.1471 91.8218 16.6888 91.5901 17.1523C91.3583 17.6159 91.0328 17.9765 90.6135 18.2344C90.1942 18.4922 89.7034 18.6211 89.1409 18.6211ZM89.1448 17.6406C89.5093 17.6406 89.8114 17.5443 90.051 17.3515C90.2906 17.1588 90.4677 16.9023 90.5823 16.582C90.6994 16.2617 90.758 15.9088 90.758 15.5234C90.758 15.1406 90.6994 14.789 90.5823 14.4687C90.4677 14.1458 90.2906 13.8867 90.051 13.6914C89.8114 13.4961 89.5093 13.3984 89.1448 13.3984C88.7776 13.3984 88.4729 13.4961 88.2307 13.6914C87.9911 13.8867 87.8127 14.1458 87.6955 14.4687C87.581 14.789 87.5237 15.1406 87.5237 15.5234C87.5237 15.9088 87.581 16.2617 87.6955 16.582C87.8127 16.9023 87.9911 17.1588 88.2307 17.3515C88.4729 17.5443 88.7776 17.6406 89.1448 17.6406ZM93.2414 18.5V12.5H94.3703V13.4531H94.4328C94.5422 13.1302 94.7349 12.8763 95.011 12.6914C95.2896 12.5039 95.6047 12.4101 95.9563 12.4101C96.0292 12.4101 96.1151 12.4127 96.2141 12.418C96.3157 12.4232 96.3951 12.4297 96.4524 12.4375V13.5547C96.4055 13.5416 96.3222 13.5273 96.2024 13.5117C96.0826 13.4935 95.9628 13.4844 95.843 13.4844C95.567 13.4844 95.3209 13.543 95.1047 13.6601C94.8912 13.7747 94.7219 13.9349 94.5969 14.1406C94.4719 14.3437 94.4094 14.5755 94.4094 14.8359V18.5H93.2414Z" fill="#E8E8E8"/>
<path d="M100.16 18.5V9.77271H103.765C104.418 9.77271 104.982 9.89061 105.457 10.1264C105.934 10.3594 106.302 10.6946 106.56 11.1321C106.819 11.5667 106.948 12.0824 106.948 12.679C106.948 13.2841 106.816 13.7983 106.552 14.2216C106.288 14.642 105.913 14.9631 105.427 15.1846C104.941 15.4034 104.366 15.5128 103.701 15.5128H101.421V13.8508H103.309C103.627 13.8508 103.893 13.8096 104.106 13.7273C104.322 13.642 104.485 13.5142 104.596 13.3437C104.707 13.1704 104.762 12.9488 104.762 12.679C104.762 12.4091 104.707 12.1861 104.596 12.0099C104.485 11.8309 104.322 11.6974 104.106 11.6094C103.89 11.5184 103.624 11.473 103.309 11.473H102.269V18.5H100.16ZM105.073 14.5113L107.246 18.5H104.945L102.815 14.5113H105.073ZM108.105 18.5V11.9545H110.189V18.5H108.105ZM109.149 11.1917C108.857 11.1917 108.605 11.0952 108.395 10.902C108.185 10.7059 108.08 10.4702 108.08 10.1946C108.08 9.92186 108.185 9.6889 108.395 9.49572C108.605 9.2997 108.857 9.20169 109.149 9.20169C109.445 9.20169 109.696 9.2997 109.903 9.49572C110.114 9.6889 110.219 9.92186 110.219 10.1946C110.219 10.4702 110.114 10.7059 109.903 10.902C109.696 11.0952 109.445 11.1917 109.149 11.1917ZM115.235 11.9545V13.4886H111.025V11.9545H115.235ZM111.903 18.5V11.6221C111.903 11.1165 111.998 10.6974 112.189 10.365C112.379 10.0298 112.643 9.77981 112.981 9.61504C113.319 9.44743 113.71 9.36362 114.153 9.36362C114.443 9.36362 114.716 9.38635 114.971 9.4318C115.23 9.47442 115.421 9.51277 115.546 9.54686L115.214 11.0724C115.137 11.0469 115.044 11.0256 114.933 11.0085C114.825 10.9915 114.723 10.9829 114.626 10.9829C114.382 10.9829 114.214 11.0369 114.123 11.1449C114.032 11.2528 113.987 11.4006 113.987 11.5881V18.5H111.903ZM119.933 11.9545V13.4886H115.803V11.9545H119.933ZM116.668 10.3863H118.752V16.4417C118.752 16.5696 118.772 16.6733 118.812 16.7528C118.854 16.8295 118.915 16.8849 118.995 16.919C119.075 16.9503 119.17 16.9659 119.281 16.9659C119.36 16.9659 119.444 16.9588 119.532 16.9446C119.623 16.9275 119.691 16.9133 119.736 16.902L120.052 18.4062C119.952 18.4346 119.812 18.4702 119.63 18.5128C119.451 18.5554 119.236 18.5824 118.986 18.5937C118.498 18.6165 118.079 18.5596 117.729 18.4233C117.383 18.2841 117.117 18.0682 116.933 17.7755C116.751 17.4829 116.663 17.115 116.668 16.6719V10.3863Z" fill="url(#paint2_linear_28_2962)"/>
</g>
</g>
<rect x="0.749268" y="0.749985" width="125" height="26.5" rx="5.25" stroke="white" stroke-opacity="0.15" stroke-width="1.5"/>
<defs>
<filter id="filter0_d_28_2962" x="1.99927" y="-1.52588e-05" width="28" height="28" filterUnits="userSpaceOnUse" color-interpolation-filters="sRGB">
<feFlood flood-opacity="0" result="BackgroundImageFix"/>
<feColorMatrix in="SourceAlpha" type="matrix" values="0 0 0 0 0 0 0 0 0 0 0 0 0 0 0 0 0 0 127 0" result="hardAlpha"/>
<feOffset/>
<feGaussianBlur stdDeviation="2"/>
<feComposite in2="hardAlpha" operator="out"/>
<feColorMatrix type="matrix" values="0 0 0 0 0 0 0 0 0 0 0 0 0 0 0 0 0 0 0.25 0"/>
<feBlend mode="normal" in2="BackgroundImageFix" result="effect1_dropShadow_28_2962"/>
<feBlend mode="normal" in="SourceGraphic" in2="effect1_dropShadow_28_2962" result="shape"/>
</filter>
<filter id="filter1_d_28_2962" x="27.9993" y="3.49998" width="96.5" height="21" filterUnits="userSpaceOnUse" color-interpolation-filters="sRGB">
<feFlood flood-opacity="0" result="BackgroundImageFix"/>
<feColorMatrix in="SourceAlpha" type="matrix" values="0 0 0 0 0 0 0 0 0 0 0 0 0 0 0 0 0 0 127 0" result="hardAlpha"/>
<feOffset/>
<feGaussianBlur stdDeviation="2"/>
<feComposite in2="hardAlpha" operator="out"/>
<feColorMatrix type="matrix" values="0 0 0 0 0 0 0 0 0 0 0 0 0 0 0 0 0 0 0.25 0"/>
<feBlend mode="normal" in2="BackgroundImageFix" result="effect1_dropShadow_28_2962"/>
<feBlend mode="normal" in="SourceGraphic" in2="effect1_dropShadow_28_2962" result="shape"/>
</filter>
<linearGradient id="paint0_linear_28_2962" x1="63.2493" y1="-1.52588e-05" x2="63.2493" y2="28" gradientUnits="userSpaceOnUse">
<stop stop-color="#383838"/>
<stop offset="1" stop-color="#242424"/>
</linearGradient>
<linearGradient id="paint1_linear_28_2962" x1="5.99927" y1="4.00003" x2="5.99927" y2="24" gradientUnits="userSpaceOnUse">
<stop stop-color="white"/>
<stop offset="1" stop-color="#B9B9B9"/>
</linearGradient>
<linearGradient id="paint2_linear_28_2962" x1="109.999" y1="7.49998" x2="109.999" y2="20.5" gradientUnits="userSpaceOnUse">
<stop stop-color="white"/>
<stop offset="1" stop-color="#B9B9B9"/>
</linearGradient>
<clipPath id="clip0_28_2962">
<rect x="-0.000732422" y="-1.52588e-05" width="126.5" height="28" rx="6" fill="white"/>
</clipPath>
</defs>
</svg>
