<svg width="145" height="28" viewBox="0 0 145 28" fill="none" xmlns="http://www.w3.org/2000/svg">
<rect x="-0.000732422" y="-3.05176e-05" width="144.5" height="28" rx="6" fill="url(#paint0_linear_28_2974)"/>
<g filter="url(#filter0_d_28_2974)">
<path fill-rule="evenodd" clip-rule="evenodd" d="M16.3742 5.47061C16.1519 5.54158 15.9811 5.67008 15.7875 5.91197C15.7331 5.97995 15.6393 6.00392 15.5174 5.98099C15.3728 5.95377 14.8239 5.91826 13.3872 5.84321C12.9674 5.82125 12.8822 5.83321 12.8069 5.92439C12.6268 6.14226 12.6754 6.84423 12.881 6.99679C12.9396 7.04029 13.2587 7.04674 13.5728 7.01081C13.742 6.99143 13.9105 6.97422 14.2976 6.93659C14.3949 6.92716 14.5539 6.91149 14.6512 6.9018C14.7484 6.89211 14.9512 6.87201 15.1019 6.85711C15.2526 6.84227 15.474 6.80974 15.5937 6.7848L15.8115 6.73949L15.8766 6.78315C16.0667 6.91072 16.1191 7.00303 16.0919 7.16286C16.041 7.46315 16.0357 7.6284 16.0431 8.68838C16.0522 9.9972 16.0828 9.88144 15.7206 9.90979C15.4943 9.92752 15.4062 9.9919 15.3665 10.1688C15.3475 10.2535 15.3519 11.0609 15.3725 11.2813C15.3855 11.4197 15.2768 11.4984 15.0281 11.5308C14.7836 11.5626 14.7246 11.7024 14.777 12.1264C14.7883 12.2185 14.7323 12.293 14.5878 12.3776C14.4567 12.4544 14.4291 12.6363 14.5321 12.745C14.6444 12.8634 14.65 12.9224 14.5611 13.0513C14.4685 13.1853 14.4665 13.2063 14.4656 14.0265C14.4648 14.8506 14.4542 14.9853 14.3816 15.0933C14.2767 15.2495 13.762 15.7239 13.6406 15.7762C13.6037 15.7922 13.2902 15.8008 12.4503 15.8092C11.8232 15.8154 11.2883 15.8264 11.2616 15.8338C11.1538 15.8635 11.0541 15.829 10.9575 15.7286C10.8229 15.5888 10.8381 15.5907 9.91355 15.6004C9.00515 15.6099 9.01482 15.6111 8.99307 15.4815C8.96853 15.3355 8.95416 15.2883 8.89501 15.1598C8.78249 14.9153 8.68324 14.8675 8.36975 14.9068C8.16997 14.9318 8.12481 14.9862 8.07589 15.2611C8.01451 15.6055 7.95061 15.6776 7.76777 15.6087C7.64734 15.5633 7.62911 15.5624 7.15582 15.5786C7.12663 15.5796 7.07352 15.5752 7.03777 15.5689C6.99969 15.5621 6.94467 15.5667 6.90515 15.58C6.868 15.5925 6.77796 15.6046 6.70501 15.6068C6.3786 15.6168 6.3242 15.6335 6.2496 15.7471C6.08505 15.9976 5.94597 17.3978 6.01938 18.0653C6.10303 18.826 6.20821 19.1866 6.36553 19.2518C6.58153 19.3412 7.51493 19.3825 7.75976 19.3134L7.88639 19.2776L7.94317 19.318C8.0173 19.3706 8.05724 19.4647 8.09263 19.6702C8.13504 19.9165 8.17896 19.9716 8.36014 20.0057C8.48382 20.029 8.65137 20.0198 8.72664 19.9856C8.88555 19.9133 8.97431 19.4188 8.87811 19.1415C8.82309 18.9829 8.86422 18.9451 8.93655 19.0879C9.03812 19.2885 9.14242 19.3086 10.0815 19.3086C10.9314 19.3086 10.8702 19.3234 10.9893 19.0894C11.0851 18.9012 11.1286 18.8665 11.2627 18.8713C11.318 18.8733 11.7609 18.8818 12.247 18.8902C13.217 18.9067 13.1248 18.8958 13.4314 19.0309C14.2343 19.3844 15.1136 19.5837 16.2156 19.6616C16.8215 19.7045 17.6551 19.6861 18.1779 19.6183C19.1178 19.4965 19.7376 19.3399 20.3788 19.0623C20.846 18.8599 21.0531 18.9672 21.1491 19.4613C21.2242 19.8476 21.2061 19.9045 20.9798 19.9963C20.6607 20.1256 20.463 20.2589 20.416 20.3761C20.382 20.4609 20.3979 20.5541 20.4894 20.8077C20.5139 20.8756 20.5363 20.9749 20.5392 21.0282C20.5474 21.1796 20.563 21.2417 20.6167 21.3375C20.6441 21.3864 20.6716 21.4657 20.6779 21.5139C20.6925 21.6261 20.7353 21.7588 20.7857 21.8483C20.8098 21.8911 20.8299 21.965 20.8366 22.0362C20.8684 22.3683 21.0121 22.4651 21.5543 22.5191C21.6175 22.5254 21.6881 22.5335 21.7111 22.537C22.8129 22.7055 24.3348 22.2454 25.4291 21.413C25.9395 21.0248 26.0679 20.8408 25.9679 20.6408C25.9515 20.608 25.9384 20.5403 25.9384 20.4882C25.9384 20.3862 25.8871 20.2287 25.8305 20.1569C25.8109 20.132 25.7915 20.0765 25.7875 20.0337C25.7797 19.9514 25.7247 19.7961 25.6814 19.7344C25.6671 19.7142 25.6556 19.6717 25.6556 19.6402C25.6556 19.5747 25.6124 19.4549 25.5635 19.3842C25.5452 19.3579 25.5189 19.298 25.5049 19.2512C25.4325 19.0081 25.0208 18.8611 24.6037 18.9295C24.2464 18.988 24.222 18.975 24.1188 18.6721C23.7901 17.7082 23.3426 16.9965 22.825 16.6146C22.6285 16.4696 22.555 16.4361 21.8195 16.1562C21.0982 15.8816 20.9157 15.8049 20.5852 15.6371C20.3877 15.5368 20.1689 15.4179 20.0991 15.373C19.0312 14.6855 19.1464 14.8655 19.1075 13.823C19.0813 13.1219 19.0757 13.0942 18.9383 12.9841C18.8267 12.8946 18.8105 12.8533 18.8415 12.7372C18.8947 12.5377 18.8668 12.4496 18.7185 12.3487C18.6026 12.2699 18.5867 12.2363 18.6046 12.1088C18.6653 11.6787 18.5961 11.5244 18.3294 11.4956C18.168 11.4782 18.1004 11.4566 18.0543 11.4077L18.0127 11.3634L18.0113 10.7329C18.0095 9.89556 18.0152 9.90819 17.6299 9.88933C17.3544 9.87582 17.2909 9.86026 17.2334 9.79201L17.1879 9.7381L17.1878 8.55339C17.1877 7.86508 17.1801 7.30301 17.1696 7.21198C17.1485 7.02808 17.1512 7.02174 17.3151 6.86799C17.4404 6.75042 17.5197 6.70269 17.568 6.71578C17.8524 6.79309 17.8064 6.78944 19.3623 6.85778C20.5563 6.91025 20.5461 6.91139 20.6438 6.7163C20.7717 6.46085 20.6853 5.76976 20.5167 5.69858C20.4589 5.67425 20.2308 5.67523 20.0163 5.7008C19.8579 5.71971 19.8161 5.72435 19.0441 5.80914C18.0851 5.91444 18.0665 5.91671 17.8306 5.95779C17.5998 5.99794 17.5862 5.99346 17.4537 5.83373C17.1708 5.49241 16.7496 5.35072 16.3742 5.47061Z" fill="url(#paint1_linear_28_2974)"/>
</g>
<g filter="url(#filter1_d_28_2974)">
<path d="M33.554 18.5H32.2727L35.1516 10.5H36.5461L39.425 18.5H38.1438L35.8821 11.9531H35.8196L33.554 18.5ZM33.7688 15.3672H37.925V16.3828H33.7688V15.3672ZM44.8674 12.5L42.6916 18.5H41.4416L39.262 12.5H40.5159L42.0354 17.1172H42.0979L43.6135 12.5H44.8674ZM47.5393 18.6328C47.1591 18.6328 46.8153 18.5625 46.5081 18.4218C46.2008 18.2786 45.9573 18.0716 45.7776 17.8007C45.6005 17.5299 45.512 17.1979 45.512 16.8047C45.512 16.4661 45.5771 16.1875 45.7073 15.9687C45.8375 15.75 46.0133 15.5768 46.2346 15.4492C46.456 15.3216 46.7034 15.2252 46.9768 15.1601C47.2502 15.095 47.5289 15.0455 47.8127 15.0117C48.1721 14.97 48.4638 14.9362 48.6877 14.9101C48.9117 14.8815 49.0745 14.8359 49.176 14.7734C49.2776 14.7109 49.3284 14.6093 49.3284 14.4687V14.4414C49.3284 14.1002 49.232 13.8359 49.0393 13.6484C48.8492 13.4609 48.5653 13.3672 48.1877 13.3672C47.7945 13.3672 47.4846 13.4544 47.2581 13.6289C47.0341 13.8007 46.8791 13.9922 46.7932 14.2031L45.6956 13.9531C45.8258 13.5885 46.0159 13.2942 46.2659 13.0703C46.5185 12.8437 46.8088 12.6797 47.137 12.5781C47.4651 12.4739 47.8101 12.4218 48.1721 12.4218C48.4117 12.4218 48.6656 12.4505 48.9338 12.5078C49.2047 12.5625 49.4573 12.664 49.6916 12.8125C49.9286 12.9609 50.1226 13.1731 50.2737 13.4492C50.4247 13.7226 50.5002 14.0781 50.5002 14.5156V18.5H49.3596V17.6797H49.3127C49.2372 17.8307 49.1239 17.9791 48.9729 18.125C48.8219 18.2708 48.6278 18.3919 48.3909 18.4882C48.1539 18.5846 47.87 18.6328 47.5393 18.6328ZM47.7932 17.6953C48.1161 17.6953 48.3922 17.6315 48.6213 17.5039C48.8531 17.3763 49.0289 17.2096 49.1487 17.0039C49.2711 16.7955 49.3323 16.5729 49.3323 16.3359V15.5625C49.2906 15.6041 49.2099 15.6432 49.0901 15.6797C48.9729 15.7135 48.8388 15.7435 48.6877 15.7695C48.5367 15.7929 48.3896 15.8151 48.2463 15.8359C48.1031 15.8541 47.9833 15.8698 47.887 15.8828C47.6604 15.9114 47.4534 15.9596 47.2659 16.0273C47.081 16.095 46.9325 16.1927 46.8206 16.3203C46.7112 16.4453 46.6565 16.6119 46.6565 16.8203C46.6565 17.1093 46.7633 17.3281 46.9768 17.4765C47.1903 17.6224 47.4625 17.6953 47.7932 17.6953ZM52.0559 18.5V12.5H53.2239V18.5H52.0559ZM52.6457 11.5742C52.4426 11.5742 52.2681 11.5065 52.1223 11.3711C51.9791 11.233 51.9075 11.069 51.9075 10.8789C51.9075 10.6862 51.9791 10.5221 52.1223 10.3867C52.2681 10.2487 52.4426 10.1797 52.6457 10.1797C52.8489 10.1797 53.022 10.2487 53.1653 10.3867C53.3111 10.5221 53.384 10.6862 53.384 10.8789C53.384 11.069 53.3111 11.233 53.1653 11.3711C53.022 11.5065 52.8489 11.5742 52.6457 11.5742ZM55.9631 10.5V18.5H54.7952V10.5H55.9631ZM59.2805 18.6328C58.9003 18.6328 58.5566 18.5625 58.2493 18.4218C57.942 18.2786 57.6985 18.0716 57.5188 17.8007C57.3417 17.5299 57.2532 17.1979 57.2532 16.8047C57.2532 16.4661 57.3183 16.1875 57.4485 15.9687C57.5787 15.75 57.7545 15.5768 57.9758 15.4492C58.1972 15.3216 58.4446 15.2252 58.718 15.1601C58.9914 15.095 59.2701 15.0455 59.5539 15.0117C59.9133 14.97 60.205 14.9362 60.4289 14.9101C60.6529 14.8815 60.8157 14.8359 60.9172 14.7734C61.0188 14.7109 61.0696 14.6093 61.0696 14.4687V14.4414C61.0696 14.1002 60.9732 13.8359 60.7805 13.6484C60.5904 13.4609 60.3066 13.3672 59.9289 13.3672C59.5357 13.3672 59.2258 13.4544 58.9993 13.6289C58.7753 13.8007 58.6204 13.9922 58.5344 14.2031L57.4368 13.9531C57.567 13.5885 57.7571 13.2942 58.0071 13.0703C58.2597 12.8437 58.55 12.6797 58.8782 12.5781C59.2063 12.4739 59.5513 12.4218 59.9133 12.4218C60.1529 12.4218 60.4068 12.4505 60.675 12.5078C60.9459 12.5625 61.1985 12.664 61.4329 12.8125C61.6698 12.9609 61.8638 13.1731 62.0149 13.4492C62.1659 13.7226 62.2414 14.0781 62.2414 14.5156V18.5H61.1008V17.6797H61.0539C60.9784 17.8307 60.8651 17.9791 60.7141 18.125C60.5631 18.2708 60.3691 18.3919 60.1321 18.4882C59.8951 18.5846 59.6112 18.6328 59.2805 18.6328ZM59.5344 17.6953C59.8573 17.6953 60.1334 17.6315 60.3625 17.5039C60.5943 17.3763 60.7701 17.2096 60.8899 17.0039C61.0123 16.7955 61.0735 16.5729 61.0735 16.3359V15.5625C61.0318 15.6041 60.9511 15.6432 60.8313 15.6797C60.7141 15.7135 60.58 15.7435 60.4289 15.7695C60.2779 15.7929 60.1308 15.8151 59.9875 15.8359C59.8443 15.8541 59.7245 15.8698 59.6282 15.8828C59.4016 15.9114 59.1946 15.9596 59.0071 16.0273C58.8222 16.095 58.6737 16.1927 58.5618 16.3203C58.4524 16.4453 58.3977 16.6119 58.3977 16.8203C58.3977 17.1093 58.5045 17.3281 58.718 17.4765C58.9316 17.6224 59.2037 17.6953 59.5344 17.6953ZM63.8909 18.5V10.5H65.0588V13.4726H65.1291C65.1968 13.3476 65.2945 13.2031 65.4221 13.039C65.5497 12.875 65.7268 12.7317 65.9534 12.6093C66.1799 12.4843 66.4794 12.4218 66.8518 12.4218C67.3362 12.4218 67.7685 12.5442 68.1487 12.789C68.5289 13.0338 68.8271 13.3867 69.0432 13.8476C69.262 14.3086 69.3713 14.8632 69.3713 15.5117C69.3713 16.1601 69.2633 16.7161 69.0471 17.1797C68.831 17.6406 68.5341 17.9961 68.1565 18.2461C67.7789 18.4935 67.3479 18.6172 66.8635 18.6172C66.4989 18.6172 66.2008 18.556 65.969 18.4336C65.7398 18.3112 65.5601 18.1679 65.4299 18.0039C65.2997 17.8398 65.1995 17.694 65.1291 17.5664H65.0315V18.5H63.8909ZM65.0354 15.5C65.0354 15.9218 65.0966 16.2916 65.219 16.6093C65.3414 16.927 65.5185 17.1757 65.7502 17.3554C65.982 17.5325 66.2659 17.6211 66.6018 17.6211C66.9508 17.6211 67.2424 17.5286 67.4768 17.3437C67.7112 17.1562 67.8883 16.9023 68.008 16.582C68.1304 16.2617 68.1916 15.901 68.1916 15.5C68.1916 15.1041 68.1317 14.7487 68.012 14.4336C67.8948 14.1185 67.7177 13.8698 67.4807 13.6875C67.2463 13.5052 66.9534 13.414 66.6018 13.414C66.2633 13.414 65.9768 13.5013 65.7424 13.6757C65.5107 13.8502 65.3349 14.0937 65.2151 14.4062C65.0953 14.7187 65.0354 15.0833 65.0354 15.5ZM71.8508 10.5V18.5H70.6828V10.5H71.8508ZM76.008 18.6211C75.4169 18.6211 74.9078 18.4948 74.4807 18.2422C74.0562 17.9869 73.7281 17.6289 73.4963 17.1679C73.2672 16.7044 73.1526 16.1614 73.1526 15.539C73.1526 14.9244 73.2672 14.3828 73.4963 13.914C73.7281 13.4453 74.051 13.0794 74.4651 12.8164C74.8817 12.5534 75.3687 12.4218 75.926 12.4218C76.2646 12.4218 76.5927 12.4778 76.9104 12.5898C77.2281 12.7018 77.5133 12.8776 77.7659 13.1172C78.0185 13.3567 78.2177 13.6679 78.3635 14.0507C78.5093 14.431 78.5823 14.8932 78.5823 15.4375V15.8515H73.8127V14.9765H77.4377C77.4377 14.6692 77.3752 14.3971 77.2502 14.1601C77.1252 13.9205 76.9494 13.7317 76.7229 13.5937C76.4989 13.4557 76.2359 13.3867 75.9338 13.3867C75.6057 13.3867 75.3192 13.4674 75.0745 13.6289C74.8323 13.7877 74.6448 13.9961 74.512 14.2539C74.3817 14.5091 74.3166 14.7864 74.3166 15.0859V15.7695C74.3166 16.1705 74.387 16.5117 74.5276 16.7929C74.6708 17.0742 74.87 17.289 75.1252 17.4375C75.3804 17.5833 75.6786 17.6562 76.0198 17.6562C76.2411 17.6562 76.4429 17.625 76.6252 17.5625C76.8075 17.4974 76.9651 17.401 77.0979 17.2734C77.2307 17.1458 77.3323 16.9882 77.4026 16.8007L78.508 17C78.4195 17.3255 78.2606 17.6106 78.0315 17.8554C77.8049 18.0976 77.5198 18.2864 77.176 18.4218C76.8349 18.5547 76.4455 18.6211 76.008 18.6211ZM85.6448 12.5V13.4375H82.2541V12.5H85.6448ZM83.1838 18.5V11.8047C83.1838 11.4297 83.2659 11.1185 83.4299 10.8711C83.594 10.6211 83.8114 10.4349 84.0823 10.3125C84.3531 10.1875 84.6474 10.125 84.9651 10.125C85.1994 10.125 85.4 10.1445 85.5666 10.1836C85.7333 10.22 85.857 10.2539 85.9377 10.2851L85.6643 11.2304C85.6096 11.2148 85.5393 11.1966 85.4534 11.1757C85.3674 11.1523 85.2632 11.1406 85.1409 11.1406C84.857 11.1406 84.6539 11.2109 84.5315 11.3515C84.4117 11.4922 84.3518 11.6953 84.3518 11.9609V18.5H83.1838ZM89.1409 18.6211C88.5784 18.6211 88.0875 18.4922 87.6682 18.2343C87.2489 17.9765 86.9234 17.6159 86.6916 17.1523C86.4599 16.6888 86.344 16.1471 86.344 15.5273C86.344 14.9049 86.4599 14.3606 86.6916 13.8945C86.9234 13.4284 87.2489 13.0664 87.6682 12.8086C88.0875 12.5507 88.5784 12.4218 89.1409 12.4218C89.7034 12.4218 90.1942 12.5507 90.6135 12.8086C91.0328 13.0664 91.3583 13.4284 91.5901 13.8945C91.8218 14.3606 91.9377 14.9049 91.9377 15.5273C91.9377 16.1471 91.8218 16.6888 91.5901 17.1523C91.3583 17.6159 91.0328 17.9765 90.6135 18.2343C90.1942 18.4922 89.7034 18.6211 89.1409 18.6211ZM89.1448 17.6406C89.5093 17.6406 89.8114 17.5442 90.051 17.3515C90.2906 17.1588 90.4677 16.9023 90.5823 16.582C90.6994 16.2617 90.758 15.9088 90.758 15.5234C90.758 15.1406 90.6994 14.789 90.5823 14.4687C90.4677 14.1458 90.2906 13.8867 90.051 13.6914C89.8114 13.4961 89.5093 13.3984 89.1448 13.3984C88.7776 13.3984 88.4729 13.4961 88.2307 13.6914C87.9911 13.8867 87.8127 14.1458 87.6955 14.4687C87.581 14.789 87.5237 15.1406 87.5237 15.5234C87.5237 15.9088 87.581 16.2617 87.6955 16.582C87.8127 16.9023 87.9911 17.1588 88.2307 17.3515C88.4729 17.5442 88.7776 17.6406 89.1448 17.6406ZM93.2414 18.5V12.5H94.3703V13.4531H94.4328C94.5422 13.1302 94.7349 12.8763 95.011 12.6914C95.2896 12.5039 95.6047 12.4101 95.9563 12.4101C96.0292 12.4101 96.1151 12.4127 96.2141 12.4179C96.3157 12.4231 96.3951 12.4297 96.4524 12.4375V13.5547C96.4055 13.5416 96.3222 13.5273 96.2024 13.5117C96.0826 13.4935 95.9628 13.4843 95.843 13.4843C95.567 13.4843 95.3209 13.5429 95.1047 13.6601C94.8912 13.7747 94.7219 13.9349 94.5969 14.1406C94.4719 14.3437 94.4094 14.5755 94.4094 14.8359V18.5H93.2414Z" fill="#E8E8E8"/>
<path d="M104.877 12.3892C104.849 12.0767 104.722 11.8338 104.498 11.6605C104.276 11.4843 103.959 11.3963 103.548 11.3963C103.275 11.3963 103.048 11.4318 102.866 11.5028C102.684 11.5738 102.548 11.6718 102.457 11.7968C102.366 11.919 102.319 12.0596 102.316 12.2187C102.31 12.3494 102.336 12.4645 102.393 12.5639C102.452 12.6633 102.538 12.7514 102.648 12.8281C102.762 12.902 102.898 12.9673 103.058 13.0241C103.217 13.0809 103.396 13.1306 103.594 13.1733L104.344 13.3437C104.776 13.4375 105.157 13.5625 105.486 13.7187C105.819 13.875 106.097 14.061 106.322 14.277C106.549 14.4929 106.721 14.7414 106.837 15.0227C106.954 15.3039 107.013 15.6193 107.016 15.9687C107.013 16.5199 106.874 16.9929 106.599 17.3878C106.323 17.7826 105.927 18.0852 105.41 18.2954C104.896 18.5056 104.275 18.6108 103.548 18.6108C102.817 18.6108 102.181 18.5014 101.638 18.2826C101.096 18.0639 100.674 17.7315 100.373 17.2855C100.072 16.8395 99.9169 16.2755 99.9084 15.5937H101.928C101.945 15.875 102.021 16.1093 102.154 16.2968C102.288 16.4843 102.471 16.6264 102.704 16.723C102.94 16.8196 103.212 16.8679 103.522 16.8679C103.806 16.8679 104.048 16.8295 104.246 16.7528C104.448 16.6761 104.603 16.5696 104.711 16.4332C104.819 16.2968 104.874 16.1406 104.877 15.9645C104.874 15.7997 104.823 15.6591 104.724 15.5426C104.624 15.4233 104.471 15.321 104.263 15.2358C104.059 15.1477 103.798 15.0667 103.479 14.9929L102.567 14.7798C101.812 14.6065 101.217 14.3267 100.782 13.9403C100.347 13.5511 100.131 13.0255 100.134 12.3636C100.131 11.8238 100.276 11.3508 100.569 10.9446C100.861 10.5383 101.266 10.2216 101.783 9.99429C102.3 9.76701 102.89 9.65338 103.552 9.65338C104.228 9.65338 104.815 9.76843 105.312 9.99855C105.812 10.2258 106.2 10.5454 106.475 10.9574C106.751 11.3693 106.891 11.8466 106.897 12.3892H104.877ZM108.082 20.9545V11.9545H110.144V13.0753H110.208C110.293 12.8764 110.414 12.6846 110.57 12.5C110.729 12.3153 110.931 12.1647 111.175 12.0483C111.423 11.9289 111.718 11.8693 112.062 11.8693C112.516 11.8693 112.941 11.9886 113.336 12.2272C113.734 12.4659 114.055 12.8338 114.299 13.3309C114.543 13.8281 114.665 14.4616 114.665 15.2315C114.665 15.973 114.548 16.5937 114.312 17.0937C114.079 17.5937 113.763 17.9687 113.366 18.2187C112.971 18.4687 112.532 18.5937 112.049 18.5937C111.719 18.5937 111.434 18.5397 111.192 18.4318C110.951 18.3238 110.748 18.1818 110.583 18.0056C110.421 17.8295 110.296 17.6406 110.208 17.4389H110.165V20.9545H108.082ZM110.123 15.2272C110.123 15.5795 110.17 15.8863 110.263 16.1477C110.36 16.4091 110.498 16.6122 110.677 16.7571C110.859 16.8991 111.076 16.9701 111.329 16.9701C111.584 16.9701 111.802 16.8991 111.981 16.7571C112.16 16.6122 112.295 16.4091 112.386 16.1477C112.479 15.8863 112.526 15.5795 112.526 15.2272C112.526 14.875 112.479 14.5696 112.386 14.311C112.295 14.0525 112.16 13.8522 111.981 13.7102C111.805 13.5681 111.587 13.4971 111.329 13.4971C111.073 13.4971 110.856 13.5667 110.677 13.7059C110.498 13.8451 110.36 14.044 110.263 14.3025C110.17 14.561 110.123 14.8693 110.123 15.2272ZM115.757 18.5V11.9545H117.841V18.5H115.757ZM116.801 11.1917C116.509 11.1917 116.257 11.0951 116.047 10.902C115.837 10.7059 115.732 10.4701 115.732 10.1946C115.732 9.92184 115.837 9.68889 116.047 9.49571C116.257 9.29968 116.509 9.20167 116.801 9.20167C117.097 9.20167 117.348 9.29968 117.556 9.49571C117.766 9.68889 117.871 9.92184 117.871 10.1946C117.871 10.4701 117.766 10.7059 117.556 10.902C117.348 11.0951 117.097 11.1917 116.801 11.1917ZM122.219 21.0909C121.597 21.0909 121.064 21.0042 120.621 20.8309C120.178 20.6576 119.83 20.4204 119.577 20.1193C119.324 19.8181 119.172 19.4772 119.121 19.0966L121.094 18.9858C121.131 19.1193 121.199 19.2358 121.298 19.3352C121.401 19.4346 121.533 19.5113 121.695 19.5653C121.859 19.6193 122.053 19.6463 122.274 19.6463C122.624 19.6463 122.912 19.561 123.139 19.3906C123.369 19.223 123.484 18.9289 123.484 18.5085V17.3579H123.412C123.33 17.5596 123.205 17.74 123.037 17.8991C122.869 18.0582 122.66 18.1832 122.41 18.2741C122.163 18.365 121.879 18.4105 121.558 18.4105C121.081 18.4105 120.643 18.2997 120.246 18.0781C119.851 17.8537 119.534 17.5071 119.295 17.0383C119.06 16.5667 118.942 15.9602 118.942 15.2187C118.942 14.4545 119.064 13.8253 119.308 13.3309C119.553 12.8338 119.872 12.4659 120.267 12.2272C120.665 11.9886 121.092 11.8693 121.55 11.8693C121.893 11.8693 122.187 11.9289 122.432 12.0483C122.679 12.1647 122.882 12.3153 123.041 12.5C123.2 12.6846 123.321 12.8764 123.403 13.0753H123.463V11.9545H125.538V18.5255C125.538 19.0795 125.399 19.5468 125.121 19.9275C124.842 20.3082 124.453 20.5966 123.953 20.7926C123.453 20.9914 122.875 21.0909 122.219 21.0909ZM122.283 16.8934C122.535 16.8934 122.751 16.8267 122.93 16.6931C123.109 16.5596 123.247 16.3679 123.344 16.1179C123.44 15.8679 123.489 15.5681 123.489 15.2187C123.489 14.8636 123.44 14.5582 123.344 14.3025C123.25 14.044 123.112 13.8451 122.93 13.7059C122.751 13.5667 122.535 13.4971 122.283 13.4971C122.024 13.4971 121.805 13.5681 121.626 13.7102C121.447 13.8522 121.311 14.0525 121.217 14.311C121.126 14.5667 121.081 14.8693 121.081 15.2187C121.081 15.5681 121.128 15.8679 121.222 16.1179C121.315 16.3679 121.45 16.5596 121.626 16.6931C121.805 16.8267 122.024 16.8934 122.283 16.8934ZM129.922 18.6235C129.235 18.6235 128.644 18.4829 128.149 18.2017C127.658 17.9176 127.279 17.5227 127.012 17.017C126.747 16.5085 126.615 15.919 126.615 15.2485C126.615 14.5753 126.747 13.9858 127.012 13.4801C127.279 12.9716 127.658 12.5767 128.149 12.2954C128.644 12.0113 129.235 11.8693 129.922 11.8693C130.61 11.8693 131.199 12.0113 131.691 12.2954C132.185 12.5767 132.564 12.9716 132.828 13.4801C133.095 13.9858 133.229 14.5753 133.229 15.2485C133.229 15.919 133.095 16.5085 132.828 17.017C132.564 17.5227 132.185 17.9176 131.691 18.2017C131.199 18.4829 130.61 18.6235 129.922 18.6235ZM129.935 17.0511C130.185 17.0511 130.397 16.9744 130.57 16.821C130.743 16.6676 130.875 16.4545 130.966 16.1818C131.06 15.9091 131.107 15.5937 131.107 15.2358C131.107 14.8721 131.06 14.5539 130.966 14.2812C130.875 14.0085 130.743 13.7954 130.57 13.642C130.397 13.4886 130.185 13.4119 129.935 13.4119C129.676 13.4119 129.458 13.4886 129.279 13.642C129.103 13.7954 128.968 14.0085 128.874 14.2812C128.783 14.5539 128.738 14.8721 128.738 15.2358C128.738 15.5937 128.783 15.9091 128.874 16.1818C128.968 16.4545 129.103 16.6676 129.279 16.821C129.458 16.9744 129.676 17.0511 129.935 17.0511ZM137.991 11.9545V13.4886H133.862V11.9545H137.991ZM134.727 10.3863H136.811V16.4417C136.811 16.5696 136.831 16.6733 136.87 16.7528C136.913 16.8295 136.974 16.8849 137.054 16.919C137.133 16.9503 137.228 16.9659 137.339 16.9659C137.419 16.9659 137.502 16.9588 137.591 16.9446C137.681 16.9275 137.75 16.9133 137.795 16.902L138.11 18.4062C138.011 18.4346 137.87 18.4701 137.689 18.5128C137.51 18.5554 137.295 18.5824 137.045 18.5937C136.556 18.6164 136.137 18.5596 135.788 18.4233C135.441 18.2841 135.176 18.0681 134.991 17.7755C134.809 17.4829 134.721 17.115 134.727 16.6718V10.3863Z" fill="url(#paint2_linear_28_2974)"/>
</g>
<rect x="0.749268" y="0.749969" width="143" height="26.5" rx="5.25" stroke="white" stroke-opacity="0.15" stroke-width="1.5"/>
<defs>
<filter id="filter0_d_28_2974" x="1.99927" y="-3.05176e-05" width="28" height="28" filterUnits="userSpaceOnUse" color-interpolation-filters="sRGB">
<feFlood flood-opacity="0" result="BackgroundImageFix"/>
<feColorMatrix in="SourceAlpha" type="matrix" values="0 0 0 0 0 0 0 0 0 0 0 0 0 0 0 0 0 0 127 0" result="hardAlpha"/>
<feOffset/>
<feGaussianBlur stdDeviation="2"/>
<feComposite in2="hardAlpha" operator="out"/>
<feColorMatrix type="matrix" values="0 0 0 0 0 0 0 0 0 0 0 0 0 0 0 0 0 0 0.25 0"/>
<feBlend mode="normal" in2="BackgroundImageFix" result="effect1_dropShadow_28_2974"/>
<feBlend mode="normal" in="SourceGraphic" in2="effect1_dropShadow_28_2974" result="shape"/>
</filter>
<filter id="filter1_d_28_2974" x="27.9993" y="3.49997" width="114.5" height="21.5909" filterUnits="userSpaceOnUse" color-interpolation-filters="sRGB">
<feFlood flood-opacity="0" result="BackgroundImageFix"/>
<feColorMatrix in="SourceAlpha" type="matrix" values="0 0 0 0 0 0 0 0 0 0 0 0 0 0 0 0 0 0 127 0" result="hardAlpha"/>
<feOffset/>
<feGaussianBlur stdDeviation="2"/>
<feComposite in2="hardAlpha" operator="out"/>
<feColorMatrix type="matrix" values="0 0 0 0 0 0 0 0 0 0 0 0 0 0 0 0 0 0 0.25 0"/>
<feBlend mode="normal" in2="BackgroundImageFix" result="effect1_dropShadow_28_2974"/>
<feBlend mode="normal" in="SourceGraphic" in2="effect1_dropShadow_28_2974" result="shape"/>
</filter>
<linearGradient id="paint0_linear_28_2974" x1="72.2492" y1="-3.05176e-05" x2="72.2492" y2="28" gradientUnits="userSpaceOnUse">
<stop stop-color="#342A1D"/>
<stop offset="1" stop-color="#1C1610"/>
</linearGradient>
<linearGradient id="paint1_linear_28_2974" x1="15.9993" y1="5.42862" x2="15.9993" y2="22.5715" gradientUnits="userSpaceOnUse">
<stop stop-color="#CEA260"/>
<stop offset="1" stop-color="#81562E"/>
</linearGradient>
<linearGradient id="paint2_linear_28_2974" x1="118.999" y1="7.49997" x2="118.999" y2="20.5" gradientUnits="userSpaceOnUse">
<stop stop-color="#E9C48D"/>
<stop offset="1" stop-color="#A2825D"/>
</linearGradient>
</defs>
</svg>
