<svg width="152" height="28" viewBox="0 0 152 28" fill="none" xmlns="http://www.w3.org/2000/svg">
<g clip-path="url(#clip0_28_3005)">
<rect x="-0.000732422" y="-3.05176e-05" width="151.5" height="28" rx="6" fill="url(#paint0_linear_28_3005)"/>
<g filter="url(#filter0_d_28_3005)">
<path d="M24.9993 3.99997H6.99927C6.44927 3.99997 5.99927 4.44997 5.99927 4.99997V23C5.99927 23.55 6.44927 24 6.99927 24H8.60927C8.43927 19.43 8.59927 18.75 8.91927 18.3C9.30927 17.74 9.46927 17.67 10.0593 17.2C10.5593 16.8 10.3793 16.15 10.0193 15.68C9.79927 15.39 9.48927 15.05 9.24927 14.72C9.09927 14.5 9.46927 13.21 9.60927 12.74C9.74927 12.27 9.98927 10.74 12.0893 10.33C12.8793 10.17 15.0493 10.06 16.5393 10.15C16.5293 10.09 16.5093 10.02 16.4993 9.94997C16.4693 9.82997 16.4493 9.69997 16.4193 9.55997C16.3893 9.42997 16.3593 9.28997 16.3293 9.14997C16.2993 9.00997 16.2593 8.86997 16.2293 8.71997C16.1893 8.56997 16.1593 8.42997 16.1093 8.27997C16.0293 7.97997 15.9293 7.68997 15.8093 7.40997C15.7493 7.26997 15.6893 7.13997 15.6193 7.01997C15.5493 6.90997 15.4793 6.80997 15.4193 6.76997C15.4093 6.75997 15.3993 6.74997 15.3893 6.74997H15.3793H15.3993C15.3993 6.74997 15.4093 6.74997 15.3993 6.74997L15.3693 6.73997H15.3493L15.3093 6.72997H15.2593C15.1293 6.71997 14.9893 6.71997 14.8393 6.72997C14.5493 6.74997 14.2393 6.80997 13.9393 6.87997C13.6393 6.94997 13.3493 7.03997 13.0693 7.11997C12.9493 7.15997 12.8393 7.19997 12.7293 7.22997C12.7393 7.31997 12.7493 7.39997 12.7493 7.48997C12.7493 8.78997 11.6993 9.83997 10.3993 9.83997C9.09927 9.83997 8.05927 8.78997 8.05927 7.48997C8.05927 6.18997 9.10927 5.13997 10.4093 5.13997C11.2793 5.13997 12.0393 5.60997 12.4493 6.31997C12.5493 6.27997 12.6593 6.23997 12.7693 6.19997C13.0493 6.08997 13.3593 5.97997 13.6793 5.87997C14.0093 5.77997 14.3493 5.67997 14.7293 5.62997C14.9193 5.59997 15.1193 5.58997 15.3393 5.59997H15.4193C15.4493 5.59997 15.4793 5.60997 15.4993 5.60997H15.5693L15.5993 5.61997H15.6093L15.6393 5.62997C15.6393 5.62997 15.6593 5.62997 15.6693 5.63997L15.7093 5.64997C15.7693 5.66997 15.7993 5.67997 15.8393 5.69997C15.8793 5.71997 15.9093 5.72997 15.9493 5.74997C16.0193 5.78997 16.0793 5.82997 16.1393 5.86997C16.2493 5.95997 16.3393 6.04997 16.4093 6.13997C16.4893 6.22997 16.5493 6.31997 16.6093 6.40997C16.7293 6.58997 16.8193 6.75997 16.8993 6.92997C17.0593 7.26997 17.1893 7.60997 17.2893 7.92997L17.4393 8.40997C17.4893 8.56997 17.5193 8.71997 17.5593 8.86997C17.5793 8.93997 17.5993 9.01997 17.6093 9.08997C17.6293 9.15997 17.6393 9.22997 17.6593 9.29997C17.6893 9.43997 17.7193 9.57997 17.7493 9.70997C17.7893 9.90997 17.8193 10.1 17.8493 10.27C20.0893 10.49 21.7993 10.78 22.5693 11.55C23.6993 12.65 24.5693 17.65 23.9993 24H24.9993C25.5493 24 25.9993 23.55 25.9993 23V4.99997C25.9993 4.44997 25.5493 3.99997 24.9993 3.99997V3.99997Z" fill="#F7CF0D"/>
<path d="M15.1392 18.08C15.0092 18.44 14.8992 22.65 16.1392 22.65C17.3792 22.65 17.3892 18.33 17.3492 18.08C17.3092 17.84 15.2692 17.73 15.1392 18.08ZM13.4992 14C12.6492 13.88 12.1392 18.02 13.3292 18.26C14.4492 18.48 14.3392 14.12 13.4992 14ZM19.0792 14C18.2292 13.88 17.7192 18.02 18.9092 18.26C20.0292 18.48 19.9292 14.12 19.0792 14Z" fill="#F7CF0D"/>
</g>
<g filter="url(#filter1_d_28_3005)">
<path d="M33.554 18.5H32.2727L35.1516 10.5H36.5461L39.425 18.5H38.1438L35.8821 11.9531H35.8196L33.554 18.5ZM33.7688 15.3672H37.925V16.3828H33.7688V15.3672ZM44.8674 12.5L42.6916 18.5H41.4416L39.262 12.5H40.5159L42.0354 17.1172H42.0979L43.6135 12.5H44.8674ZM47.5393 18.6328C47.1591 18.6328 46.8153 18.5625 46.5081 18.4218C46.2008 18.2786 45.9573 18.0716 45.7776 17.8007C45.6005 17.5299 45.512 17.1979 45.512 16.8047C45.512 16.4661 45.5771 16.1875 45.7073 15.9687C45.8375 15.75 46.0133 15.5768 46.2346 15.4492C46.456 15.3216 46.7034 15.2252 46.9768 15.1601C47.2502 15.095 47.5289 15.0455 47.8127 15.0117C48.1721 14.97 48.4638 14.9362 48.6877 14.9101C48.9117 14.8815 49.0745 14.8359 49.176 14.7734C49.2776 14.7109 49.3284 14.6093 49.3284 14.4687V14.4414C49.3284 14.1002 49.232 13.8359 49.0393 13.6484C48.8492 13.4609 48.5653 13.3672 48.1877 13.3672C47.7945 13.3672 47.4846 13.4544 47.2581 13.6289C47.0341 13.8007 46.8791 13.9922 46.7932 14.2031L45.6956 13.9531C45.8258 13.5885 46.0159 13.2942 46.2659 13.0703C46.5185 12.8437 46.8088 12.6797 47.137 12.5781C47.4651 12.4739 47.8101 12.4218 48.1721 12.4218C48.4117 12.4218 48.6656 12.4505 48.9338 12.5078C49.2047 12.5625 49.4573 12.664 49.6916 12.8125C49.9286 12.9609 50.1226 13.1731 50.2737 13.4492C50.4247 13.7226 50.5002 14.0781 50.5002 14.5156V18.5H49.3596V17.6797H49.3127C49.2372 17.8307 49.1239 17.9791 48.9729 18.125C48.8219 18.2708 48.6278 18.3919 48.3909 18.4882C48.1539 18.5846 47.87 18.6328 47.5393 18.6328ZM47.7932 17.6953C48.1161 17.6953 48.3922 17.6315 48.6213 17.5039C48.8531 17.3763 49.0289 17.2096 49.1487 17.0039C49.2711 16.7955 49.3323 16.5729 49.3323 16.3359V15.5625C49.2906 15.6041 49.2099 15.6432 49.0901 15.6797C48.9729 15.7135 48.8388 15.7435 48.6877 15.7695C48.5367 15.7929 48.3896 15.8151 48.2463 15.8359C48.1031 15.8541 47.9833 15.8698 47.887 15.8828C47.6604 15.9114 47.4534 15.9596 47.2659 16.0273C47.081 16.095 46.9325 16.1927 46.8206 16.3203C46.7112 16.4453 46.6565 16.6119 46.6565 16.8203C46.6565 17.1093 46.7633 17.3281 46.9768 17.4765C47.1903 17.6224 47.4625 17.6953 47.7932 17.6953ZM52.0559 18.5V12.5H53.2239V18.5H52.0559ZM52.6457 11.5742C52.4426 11.5742 52.2681 11.5065 52.1223 11.3711C51.9791 11.233 51.9075 11.069 51.9075 10.8789C51.9075 10.6862 51.9791 10.5221 52.1223 10.3867C52.2681 10.2487 52.4426 10.1797 52.6457 10.1797C52.8489 10.1797 53.022 10.2487 53.1653 10.3867C53.3111 10.5221 53.384 10.6862 53.384 10.8789C53.384 11.069 53.3111 11.233 53.1653 11.3711C53.022 11.5065 52.8489 11.5742 52.6457 11.5742ZM55.9631 10.5V18.5H54.7952V10.5H55.9631ZM59.2805 18.6328C58.9003 18.6328 58.5566 18.5625 58.2493 18.4218C57.942 18.2786 57.6985 18.0716 57.5188 17.8007C57.3417 17.5299 57.2532 17.1979 57.2532 16.8047C57.2532 16.4661 57.3183 16.1875 57.4485 15.9687C57.5787 15.75 57.7545 15.5768 57.9758 15.4492C58.1972 15.3216 58.4446 15.2252 58.718 15.1601C58.9914 15.095 59.2701 15.0455 59.5539 15.0117C59.9133 14.97 60.205 14.9362 60.4289 14.9101C60.6529 14.8815 60.8157 14.8359 60.9172 14.7734C61.0188 14.7109 61.0696 14.6093 61.0696 14.4687V14.4414C61.0696 14.1002 60.9732 13.8359 60.7805 13.6484C60.5904 13.4609 60.3066 13.3672 59.9289 13.3672C59.5357 13.3672 59.2258 13.4544 58.9993 13.6289C58.7753 13.8007 58.6204 13.9922 58.5344 14.2031L57.4368 13.9531C57.567 13.5885 57.7571 13.2942 58.0071 13.0703C58.2597 12.8437 58.55 12.6797 58.8782 12.5781C59.2063 12.4739 59.5513 12.4218 59.9133 12.4218C60.1529 12.4218 60.4068 12.4505 60.675 12.5078C60.9459 12.5625 61.1985 12.664 61.4329 12.8125C61.6698 12.9609 61.8638 13.1731 62.0149 13.4492C62.1659 13.7226 62.2414 14.0781 62.2414 14.5156V18.5H61.1008V17.6797H61.0539C60.9784 17.8307 60.8651 17.9791 60.7141 18.125C60.5631 18.2708 60.3691 18.3919 60.1321 18.4882C59.8951 18.5846 59.6112 18.6328 59.2805 18.6328ZM59.5344 17.6953C59.8573 17.6953 60.1334 17.6315 60.3625 17.5039C60.5943 17.3763 60.7701 17.2096 60.8899 17.0039C61.0123 16.7955 61.0735 16.5729 61.0735 16.3359V15.5625C61.0318 15.6041 60.9511 15.6432 60.8313 15.6797C60.7141 15.7135 60.58 15.7435 60.4289 15.7695C60.2779 15.7929 60.1308 15.8151 59.9875 15.8359C59.8443 15.8541 59.7245 15.8698 59.6282 15.8828C59.4016 15.9114 59.1946 15.9596 59.0071 16.0273C58.8222 16.095 58.6737 16.1927 58.5618 16.3203C58.4524 16.4453 58.3977 16.6119 58.3977 16.8203C58.3977 17.1093 58.5045 17.3281 58.718 17.4765C58.9316 17.6224 59.2037 17.6953 59.5344 17.6953ZM63.8909 18.5V10.5H65.0588V13.4726H65.1291C65.1968 13.3476 65.2945 13.2031 65.4221 13.039C65.5497 12.875 65.7268 12.7317 65.9534 12.6093C66.1799 12.4843 66.4794 12.4218 66.8518 12.4218C67.3362 12.4218 67.7685 12.5442 68.1487 12.789C68.5289 13.0338 68.8271 13.3867 69.0432 13.8476C69.262 14.3086 69.3713 14.8632 69.3713 15.5117C69.3713 16.1601 69.2633 16.7161 69.0471 17.1797C68.831 17.6406 68.5341 17.9961 68.1565 18.2461C67.7789 18.4935 67.3479 18.6172 66.8635 18.6172C66.4989 18.6172 66.2008 18.556 65.969 18.4336C65.7398 18.3112 65.5601 18.1679 65.4299 18.0039C65.2997 17.8398 65.1995 17.694 65.1291 17.5664H65.0315V18.5H63.8909ZM65.0354 15.5C65.0354 15.9218 65.0966 16.2916 65.219 16.6093C65.3414 16.927 65.5185 17.1757 65.7502 17.3554C65.982 17.5325 66.2659 17.6211 66.6018 17.6211C66.9508 17.6211 67.2424 17.5286 67.4768 17.3437C67.7112 17.1562 67.8883 16.9023 68.008 16.582C68.1304 16.2617 68.1916 15.901 68.1916 15.5C68.1916 15.1041 68.1317 14.7487 68.012 14.4336C67.8948 14.1185 67.7177 13.8698 67.4807 13.6875C67.2463 13.5052 66.9534 13.414 66.6018 13.414C66.2633 13.414 65.9768 13.5013 65.7424 13.6757C65.5107 13.8502 65.3349 14.0937 65.2151 14.4062C65.0953 14.7187 65.0354 15.0833 65.0354 15.5ZM71.8508 10.5V18.5H70.6828V10.5H71.8508ZM76.008 18.6211C75.4169 18.6211 74.9078 18.4948 74.4807 18.2422C74.0562 17.9869 73.7281 17.6289 73.4963 17.1679C73.2672 16.7044 73.1526 16.1614 73.1526 15.539C73.1526 14.9244 73.2672 14.3828 73.4963 13.914C73.7281 13.4453 74.051 13.0794 74.4651 12.8164C74.8817 12.5534 75.3687 12.4218 75.926 12.4218C76.2646 12.4218 76.5927 12.4778 76.9104 12.5898C77.2281 12.7018 77.5133 12.8776 77.7659 13.1172C78.0185 13.3567 78.2177 13.6679 78.3635 14.0507C78.5093 14.431 78.5823 14.8932 78.5823 15.4375V15.8515H73.8127V14.9765H77.4377C77.4377 14.6692 77.3752 14.3971 77.2502 14.1601C77.1252 13.9205 76.9494 13.7317 76.7229 13.5937C76.4989 13.4557 76.2359 13.3867 75.9338 13.3867C75.6057 13.3867 75.3192 13.4674 75.0745 13.6289C74.8323 13.7877 74.6448 13.9961 74.512 14.2539C74.3817 14.5091 74.3166 14.7864 74.3166 15.0859V15.7695C74.3166 16.1705 74.387 16.5117 74.5276 16.7929C74.6708 17.0742 74.87 17.289 75.1252 17.4375C75.3804 17.5833 75.6786 17.6562 76.0198 17.6562C76.2411 17.6562 76.4429 17.625 76.6252 17.5625C76.8075 17.4974 76.9651 17.401 77.0979 17.2734C77.2307 17.1458 77.3323 16.9882 77.4026 16.8007L78.508 17C78.4195 17.3255 78.2606 17.6106 78.0315 17.8554C77.8049 18.0976 77.5198 18.2864 77.176 18.4218C76.8349 18.5547 76.4455 18.6211 76.008 18.6211ZM85.6448 12.5V13.4375H82.2541V12.5H85.6448ZM83.1838 18.5V11.8047C83.1838 11.4297 83.2659 11.1185 83.4299 10.8711C83.594 10.6211 83.8114 10.4349 84.0823 10.3125C84.3531 10.1875 84.6474 10.125 84.9651 10.125C85.1994 10.125 85.4 10.1445 85.5666 10.1836C85.7333 10.22 85.857 10.2539 85.9377 10.2851L85.6643 11.2304C85.6096 11.2148 85.5393 11.1966 85.4534 11.1757C85.3674 11.1523 85.2632 11.1406 85.1409 11.1406C84.857 11.1406 84.6539 11.2109 84.5315 11.3515C84.4117 11.4922 84.3518 11.6953 84.3518 11.9609V18.5H83.1838ZM89.1409 18.6211C88.5784 18.6211 88.0875 18.4922 87.6682 18.2343C87.2489 17.9765 86.9234 17.6159 86.6916 17.1523C86.4599 16.6888 86.344 16.1471 86.344 15.5273C86.344 14.9049 86.4599 14.3606 86.6916 13.8945C86.9234 13.4284 87.2489 13.0664 87.6682 12.8086C88.0875 12.5507 88.5784 12.4218 89.1409 12.4218C89.7034 12.4218 90.1942 12.5507 90.6135 12.8086C91.0328 13.0664 91.3583 13.4284 91.5901 13.8945C91.8218 14.3606 91.9377 14.9049 91.9377 15.5273C91.9377 16.1471 91.8218 16.6888 91.5901 17.1523C91.3583 17.6159 91.0328 17.9765 90.6135 18.2343C90.1942 18.4922 89.7034 18.6211 89.1409 18.6211ZM89.1448 17.6406C89.5093 17.6406 89.8114 17.5442 90.051 17.3515C90.2906 17.1588 90.4677 16.9023 90.5823 16.582C90.6994 16.2617 90.758 15.9088 90.758 15.5234C90.758 15.1406 90.6994 14.789 90.5823 14.4687C90.4677 14.1458 90.2906 13.8867 90.051 13.6914C89.8114 13.4961 89.5093 13.3984 89.1448 13.3984C88.7776 13.3984 88.4729 13.4961 88.2307 13.6914C87.9911 13.8867 87.8127 14.1458 87.6955 14.4687C87.581 14.789 87.5237 15.1406 87.5237 15.5234C87.5237 15.9088 87.581 16.2617 87.6955 16.582C87.8127 16.9023 87.9911 17.1588 88.2307 17.3515C88.4729 17.5442 88.7776 17.6406 89.1448 17.6406ZM93.2414 18.5V12.5H94.3703V13.4531H94.4328C94.5422 13.1302 94.7349 12.8763 95.011 12.6914C95.2896 12.5039 95.6047 12.4101 95.9563 12.4101C96.0292 12.4101 96.1151 12.4127 96.2141 12.4179C96.3157 12.4231 96.3951 12.4297 96.4524 12.4375V13.5547C96.4055 13.5416 96.3222 13.5273 96.2024 13.5117C96.0826 13.4935 95.9628 13.4843 95.843 13.4843C95.567 13.4843 95.3209 13.5429 95.1047 13.6601C94.8912 13.7747 94.7219 13.9349 94.5969 14.1406C94.4719 14.3437 94.4094 14.5755 94.4094 14.8359V18.5H93.2414Z" fill="#E8E8E8"/>
<path d="M104.877 12.3892C104.849 12.0767 104.722 11.8338 104.498 11.6605C104.276 11.4843 103.959 11.3963 103.548 11.3963C103.275 11.3963 103.048 11.4318 102.866 11.5028C102.684 11.5738 102.548 11.6718 102.457 11.7968C102.366 11.919 102.319 12.0596 102.316 12.2187C102.31 12.3494 102.336 12.4645 102.393 12.5639C102.452 12.6633 102.538 12.7514 102.648 12.8281C102.762 12.902 102.898 12.9673 103.058 13.0241C103.217 13.0809 103.396 13.1306 103.594 13.1733L104.344 13.3437C104.776 13.4375 105.157 13.5625 105.486 13.7187C105.819 13.875 106.097 14.061 106.322 14.277C106.549 14.4929 106.721 14.7414 106.837 15.0227C106.954 15.3039 107.013 15.6193 107.016 15.9687C107.013 16.5199 106.874 16.9929 106.599 17.3878C106.323 17.7826 105.927 18.0852 105.41 18.2954C104.896 18.5056 104.275 18.6108 103.548 18.6108C102.817 18.6108 102.181 18.5014 101.638 18.2826C101.096 18.0639 100.674 17.7315 100.373 17.2855C100.072 16.8395 99.9169 16.2755 99.9084 15.5937H101.928C101.945 15.875 102.021 16.1093 102.154 16.2968C102.288 16.4843 102.471 16.6264 102.704 16.723C102.94 16.8196 103.212 16.8679 103.522 16.8679C103.806 16.8679 104.048 16.8295 104.246 16.7528C104.448 16.6761 104.603 16.5696 104.711 16.4332C104.819 16.2968 104.874 16.1406 104.877 15.9645C104.874 15.7997 104.823 15.6591 104.724 15.5426C104.624 15.4233 104.471 15.321 104.263 15.2358C104.059 15.1477 103.798 15.0667 103.479 14.9929L102.567 14.7798C101.812 14.6065 101.217 14.3267 100.782 13.9403C100.347 13.5511 100.131 13.0255 100.134 12.3636C100.131 11.8238 100.276 11.3508 100.569 10.9446C100.861 10.5383 101.266 10.2216 101.783 9.99429C102.3 9.76701 102.89 9.65338 103.552 9.65338C104.228 9.65338 104.815 9.76843 105.312 9.99855C105.812 10.2258 106.2 10.5454 106.475 10.9574C106.751 11.3693 106.891 11.8466 106.897 12.3892H104.877ZM108.082 20.9545V11.9545H110.144V13.0753H110.208C110.293 12.8764 110.414 12.6846 110.57 12.5C110.729 12.3153 110.931 12.1647 111.175 12.0483C111.423 11.9289 111.718 11.8693 112.062 11.8693C112.516 11.8693 112.941 11.9886 113.336 12.2272C113.734 12.4659 114.055 12.8338 114.299 13.3309C114.543 13.8281 114.665 14.4616 114.665 15.2315C114.665 15.973 114.548 16.5937 114.312 17.0937C114.079 17.5937 113.763 17.9687 113.366 18.2187C112.971 18.4687 112.532 18.5937 112.049 18.5937C111.719 18.5937 111.434 18.5397 111.192 18.4318C110.951 18.3238 110.748 18.1818 110.583 18.0056C110.421 17.8295 110.296 17.6406 110.208 17.4389H110.165V20.9545H108.082ZM110.123 15.2272C110.123 15.5795 110.17 15.8863 110.263 16.1477C110.36 16.4091 110.498 16.6122 110.677 16.7571C110.859 16.8991 111.076 16.9701 111.329 16.9701C111.584 16.9701 111.802 16.8991 111.981 16.7571C112.16 16.6122 112.295 16.4091 112.386 16.1477C112.479 15.8863 112.526 15.5795 112.526 15.2272C112.526 14.875 112.479 14.5696 112.386 14.311C112.295 14.0525 112.16 13.8522 111.981 13.7102C111.805 13.5681 111.587 13.4971 111.329 13.4971C111.073 13.4971 110.856 13.5667 110.677 13.7059C110.498 13.8451 110.36 14.044 110.263 14.3025C110.17 14.561 110.123 14.8693 110.123 15.2272ZM118.813 18.6235C118.125 18.6235 117.534 18.4829 117.04 18.2017C116.549 17.9176 116.169 17.5227 115.902 17.017C115.638 16.5085 115.506 15.919 115.506 15.2485C115.506 14.5753 115.638 13.9858 115.902 13.4801C116.169 12.9716 116.549 12.5767 117.04 12.2954C117.534 12.0113 118.125 11.8693 118.813 11.8693C119.5 11.8693 120.09 12.0113 120.581 12.2954C121.076 12.5767 121.455 12.9716 121.719 13.4801C121.986 13.9858 122.12 14.5753 122.12 15.2485C122.12 15.919 121.986 16.5085 121.719 17.017C121.455 17.5227 121.076 17.9176 120.581 18.2017C120.09 18.4829 119.5 18.6235 118.813 18.6235ZM118.826 17.0511C119.076 17.0511 119.287 16.9744 119.461 16.821C119.634 16.6676 119.766 16.4545 119.857 16.1818C119.951 15.9091 119.997 15.5937 119.997 15.2358C119.997 14.8721 119.951 14.5539 119.857 14.2812C119.766 14.0085 119.634 13.7954 119.461 13.642C119.287 13.4886 119.076 13.4119 118.826 13.4119C118.567 13.4119 118.348 13.4886 118.169 13.642C117.993 13.7954 117.858 14.0085 117.765 14.2812C117.674 14.5539 117.628 14.8721 117.628 15.2358C117.628 15.5937 117.674 15.9091 117.765 16.1818C117.858 16.4545 117.993 16.6676 118.169 16.821C118.348 16.9744 118.567 17.0511 118.826 17.0511ZM125.271 14.767V18.5H123.187V11.9545H125.169V13.1562H125.241C125.386 12.7556 125.633 12.4417 125.983 12.2145C126.332 11.9843 126.748 11.8693 127.231 11.8693C127.691 11.8693 128.091 11.973 128.429 12.1804C128.77 12.3849 129.034 12.6718 129.221 13.0412C129.412 13.4076 129.505 13.8366 129.502 14.3281V18.5H127.419V14.7372C127.421 14.3735 127.329 14.0895 127.142 13.8849C126.957 13.6804 126.7 13.5781 126.37 13.5781C126.152 13.5781 125.958 13.6264 125.791 13.723C125.626 13.8167 125.498 13.9517 125.407 14.1278C125.319 14.3039 125.274 14.517 125.271 14.767ZM133.844 21.0909C133.222 21.0909 132.689 21.0042 132.246 20.8309C131.803 20.6576 131.455 20.4204 131.202 20.1193C130.949 19.8181 130.797 19.4772 130.746 19.0966L132.719 18.9858C132.756 19.1193 132.824 19.2358 132.923 19.3352C133.026 19.4346 133.158 19.5113 133.32 19.5653C133.484 19.6193 133.678 19.6463 133.899 19.6463C134.249 19.6463 134.537 19.561 134.764 19.3906C134.994 19.223 135.109 18.9289 135.109 18.5085V17.3579H135.037C134.955 17.5596 134.83 17.74 134.662 17.8991C134.494 18.0582 134.285 18.1832 134.035 18.2741C133.788 18.365 133.504 18.4105 133.183 18.4105C132.706 18.4105 132.268 18.2997 131.871 18.0781C131.476 17.8537 131.159 17.5071 130.92 17.0383C130.685 16.5667 130.567 15.9602 130.567 15.2187C130.567 14.4545 130.689 13.8253 130.933 13.3309C131.178 12.8338 131.497 12.4659 131.892 12.2272C132.29 11.9886 132.717 11.8693 133.175 11.8693C133.518 11.8693 133.812 11.9289 134.057 12.0483C134.304 12.1647 134.507 12.3153 134.666 12.5C134.825 12.6846 134.946 12.8764 135.028 13.0753H135.088V11.9545H137.163V18.5255C137.163 19.0795 137.024 19.5468 136.746 19.9275C136.467 20.3082 136.078 20.5966 135.578 20.7926C135.078 20.9914 134.5 21.0909 133.844 21.0909ZM133.908 16.8934C134.16 16.8934 134.376 16.8267 134.555 16.6931C134.734 16.5596 134.872 16.3679 134.969 16.1179C135.065 15.8679 135.114 15.5681 135.114 15.2187C135.114 14.8636 135.065 14.5582 134.969 14.3025C134.875 14.044 134.737 13.8451 134.555 13.7059C134.376 13.5667 134.16 13.4971 133.908 13.4971C133.649 13.4971 133.43 13.5681 133.251 13.7102C133.072 13.8522 132.936 14.0525 132.842 14.311C132.751 14.5667 132.706 14.8693 132.706 15.2187C132.706 15.5681 132.753 15.8679 132.847 16.1179C132.94 16.3679 133.075 16.5596 133.251 16.6931C133.43 16.8267 133.649 16.8934 133.908 16.8934ZM141.551 18.6235C140.867 18.6235 140.276 18.4886 139.779 18.2187C139.284 17.946 138.904 17.5582 138.637 17.0554C138.372 16.5497 138.24 15.9488 138.24 15.2528C138.24 14.5767 138.374 13.9858 138.641 13.4801C138.908 12.9716 139.284 12.5767 139.77 12.2954C140.256 12.0113 140.828 11.8693 141.488 11.8693C141.953 11.8693 142.38 11.9417 142.766 12.0866C143.152 12.2315 143.486 12.446 143.767 12.7301C144.049 13.0142 144.267 13.365 144.424 13.7826C144.58 14.1974 144.658 14.6733 144.658 15.2102V15.7301H138.969V14.5199H142.719C142.716 14.2983 142.664 14.1008 142.561 13.9275C142.459 13.7542 142.319 13.6193 142.14 13.5227C141.963 13.4233 141.76 13.3735 141.53 13.3735C141.297 13.3735 141.088 13.4261 140.904 13.5312C140.719 13.6335 140.573 13.7741 140.465 13.9531C140.357 14.1292 140.3 14.3295 140.294 14.5539V15.7855C140.294 16.0525 140.347 16.2869 140.452 16.4886C140.557 16.6875 140.706 16.8423 140.899 16.9531C141.093 17.0639 141.323 17.1193 141.59 17.1193C141.774 17.1193 141.942 17.0937 142.093 17.0426C142.243 16.9914 142.372 16.9162 142.48 16.8167C142.588 16.7173 142.669 16.5951 142.723 16.4503L144.637 16.5056C144.557 16.9346 144.382 17.3082 144.113 17.6264C143.845 17.9417 143.495 18.1875 143.06 18.3636C142.625 18.5369 142.122 18.6235 141.551 18.6235Z" fill="#F7CF0D"/>
</g>
</g>
<rect x="0.749268" y="0.749969" width="150" height="26.5" rx="5.25" stroke="white" stroke-opacity="0.15" stroke-width="1.5"/>
<defs>
<filter id="filter0_d_28_3005" x="1.99927" y="-3.05176e-05" width="28" height="28" filterUnits="userSpaceOnUse" color-interpolation-filters="sRGB">
<feFlood flood-opacity="0" result="BackgroundImageFix"/>
<feColorMatrix in="SourceAlpha" type="matrix" values="0 0 0 0 0 0 0 0 0 0 0 0 0 0 0 0 0 0 127 0" result="hardAlpha"/>
<feOffset/>
<feGaussianBlur stdDeviation="2"/>
<feComposite in2="hardAlpha" operator="out"/>
<feColorMatrix type="matrix" values="0 0 0 0 0 0 0 0 0 0 0 0 0 0 0 0 0 0 0.25 0"/>
<feBlend mode="normal" in2="BackgroundImageFix" result="effect1_dropShadow_28_3005"/>
<feBlend mode="normal" in="SourceGraphic" in2="effect1_dropShadow_28_3005" result="shape"/>
</filter>
<filter id="filter1_d_28_3005" x="27.9993" y="3.49997" width="121.5" height="21.5909" filterUnits="userSpaceOnUse" color-interpolation-filters="sRGB">
<feFlood flood-opacity="0" result="BackgroundImageFix"/>
<feColorMatrix in="SourceAlpha" type="matrix" values="0 0 0 0 0 0 0 0 0 0 0 0 0 0 0 0 0 0 127 0" result="hardAlpha"/>
<feOffset/>
<feGaussianBlur stdDeviation="2"/>
<feComposite in2="hardAlpha" operator="out"/>
<feColorMatrix type="matrix" values="0 0 0 0 0 0 0 0 0 0 0 0 0 0 0 0 0 0 0.25 0"/>
<feBlend mode="normal" in2="BackgroundImageFix" result="effect1_dropShadow_28_3005"/>
<feBlend mode="normal" in="SourceGraphic" in2="effect1_dropShadow_28_3005" result="shape"/>
</filter>
<linearGradient id="paint0_linear_28_3005" x1="75.7492" y1="-3.05176e-05" x2="75.7492" y2="28" gradientUnits="userSpaceOnUse">
<stop stop-color="#353518"/>
<stop offset="1" stop-color="#241F10"/>
</linearGradient>
<clipPath id="clip0_28_3005">
<rect x="-0.000732422" y="-3.05176e-05" width="151.5" height="28" rx="6" fill="white"/>
</clipPath>
</defs>
</svg>
