<svg width="57" height="56" viewBox="0 0 57 56" fill="none" xmlns="http://www.w3.org/2000/svg">
<rect x="0.0107422" y="-3.05176e-05" width="56" height="56" rx="8.4" fill="url(#paint0_linear_1_562)"/>
<g filter="url(#filter0_d_1_562)">
<g clip-path="url(#clip0_1_562)">
<mask id="mask0_1_562" style="mask-type:alpha" maskUnits="userSpaceOnUse" x="8" y="8" width="41" height="40">
<path d="M48.0107 8H8.01074V48H48.0107V8Z" fill="white"/>
</mask>
<g mask="url(#mask0_1_562)">
<path d="M48.0107 8H8.01074V48H48.0107V8Z" fill="#CBFFF6"/>
<path d="M41.7612 45.5C45.213 45.5 48.0112 42.7018 48.0112 39.25C48.0112 35.7982 45.213 33 41.7612 33C38.3095 33 35.5112 35.7982 35.5112 39.25C35.5112 42.7018 38.3095 45.5 41.7612 45.5Z" fill="#E5FF45"/>
<path d="M44.2612 28C49.0937 28 53.0112 24.0825 53.0112 19.25C53.0112 14.4175 49.0937 10.5 44.2612 10.5C39.4287 10.5 35.5112 14.4175 35.5112 19.25C35.5112 24.0825 39.4287 28 44.2612 28Z" fill="#45FF79"/>
<path d="M13.0112 33C17.1534 33 20.5112 29.6421 20.5112 25.5C20.5112 21.3579 17.1534 18 13.0112 18C8.86909 18 5.51123 21.3579 5.51123 25.5C5.51123 29.6421 8.86909 33 13.0112 33Z" fill="#FFD18B"/>
<path d="M32.7724 23.6341C33.3084 21.6336 32.1213 19.5774 30.1208 19.0413C28.1203 18.5053 26.064 19.6925 25.528 21.693L22.9398 31.3523C22.4037 33.3527 23.5909 35.409 25.5914 35.945C27.5919 36.4811 29.6482 35.2939 30.1842 33.2934L32.7724 23.6341Z" fill="white" fill-opacity="0.3" stroke="black" stroke-width="2.5"/>
<path d="M26.4749 37.476L26.7985 36.2685L24.3837 35.6215L24.0601 36.829L26.4749 37.476ZM22.766 41.6585C22.5874 42.3252 22.9831 43.0107 23.6499 43.1895C24.3168 43.3682 25.0022 42.9725 25.1809 42.3055L22.766 41.6585ZM24.0601 36.829L22.766 41.6585L25.1809 42.3055L26.4749 37.476L24.0601 36.829Z" fill="black"/>
<path d="M31.0904 15.4191L30.4434 17.8339" stroke="black" stroke-width="2.5" stroke-linecap="square"/>
<path d="M35.9205 16.7132L26.2612 14.125" stroke="black" stroke-width="2.5" stroke-linecap="round"/>
<mask id="mask1_1_562" style="mask-type:alpha" maskUnits="userSpaceOnUse" x="24" y="20" width="8" height="15">
<path d="M31.5644 23.3106C31.9218 21.9769 31.1303 20.6061 29.7967 20.2487C28.463 19.8914 27.0921 20.6828 26.7348 22.0165L24.1466 31.6758C23.7892 33.0094 24.5807 34.3803 25.9144 34.7376C27.248 35.095 28.6189 34.3035 28.9762 32.9699L31.5644 23.3106Z" fill="white"/>
</mask>
<g mask="url(#mask1_1_562)">
<path d="M40.0317 24.9506H15.0317V34.9506H40.0317V24.9506Z" fill="url(#paint1_linear_1_562)"/>
</g>
</g>
</g>
</g>
<rect x="1.06074" y="1.04997" width="53.9" height="53.9" rx="7.35" stroke="white" stroke-opacity="0.15" stroke-width="2.1"/>
<defs>
<filter id="filter0_d_1_562" x="2.29646" y="2.28568" width="51.4286" height="51.4286" filterUnits="userSpaceOnUse" color-interpolation-filters="sRGB">
<feFlood flood-opacity="0" result="BackgroundImageFix"/>
<feColorMatrix in="SourceAlpha" type="matrix" values="0 0 0 0 0 0 0 0 0 0 0 0 0 0 0 0 0 0 127 0" result="hardAlpha"/>
<feOffset/>
<feGaussianBlur stdDeviation="2.85714"/>
<feComposite in2="hardAlpha" operator="out"/>
<feColorMatrix type="matrix" values="0 0 0 0 0 0 0 0 0 0 0 0 0 0 0 0 0 0 0.25 0"/>
<feBlend mode="normal" in2="BackgroundImageFix" result="effect1_dropShadow_1_562"/>
<feBlend mode="normal" in="SourceGraphic" in2="effect1_dropShadow_1_562" result="shape"/>
</filter>
<linearGradient id="paint0_linear_1_562" x1="28.0107" y1="-3.05176e-05" x2="28.0107" y2="56" gradientUnits="userSpaceOnUse">
<stop stop-color="#2A2E11"/>
<stop offset="1" stop-color="#102B17"/>
</linearGradient>
<linearGradient id="paint1_linear_1_562" x1="27.5317" y1="24.9506" x2="27.5317" y2="34.9505" gradientUnits="userSpaceOnUse">
<stop stop-color="#00FF19"/>
<stop offset="0.0001" stop-color="#42FF00"/>
<stop offset="1" stop-color="#CCFF00"/>
</linearGradient>
<clipPath id="clip0_1_562">
<rect x="8.01074" y="8" width="40" height="40" rx="20" fill="white"/>
</clipPath>
</defs>
</svg>
