<svg width="57" height="56" viewBox="0 0 57 56" fill="none" xmlns="http://www.w3.org/2000/svg">
<rect x="0.0107422" y="-0.000152588" width="56" height="56" rx="8.4" fill="url(#paint0_linear_40_651)"/>
<g filter="url(#filter0_d_40_651)">
<path fill-rule="evenodd" clip-rule="evenodd" d="M27.7036 18.049H44.9344V25.0809H27.7036V18.049Z" fill="white"/>
<path fill-rule="evenodd" clip-rule="evenodd" d="M12.1133 41.0062C10.5958 41.0062 9.27372 40.1733 8.56397 38.938C8.20161 39.566 8.01073 40.2796 8.01074 41.0062C8.01074 43.2908 9.84746 45.1427 12.1133 45.1427H16.2159V41.0062H12.1133Z" fill="#3ECC5F"/>
<path fill-rule="evenodd" clip-rule="evenodd" d="M30.5715 19.1608L44.9346 18.2558V16.1876C44.9346 13.903 43.0978 12.0511 40.832 12.0511H22.3705L21.8576 11.1556C21.6295 10.7574 21.0599 10.7574 20.832 11.1556L20.3192 12.0511L19.8064 11.1556C19.5785 10.7574 19.0086 10.7574 18.7807 11.1556L18.2679 12.0511L17.7551 11.1556C17.5272 10.7574 16.9573 10.7574 16.7294 11.1556L16.2166 12.0511C16.2121 12.0511 16.208 12.0517 16.2033 12.0517L15.3536 11.1953C15.0316 10.8704 14.4814 11.0189 14.3633 11.4629L14.0825 12.5185L13.0174 12.2306C12.5768 12.1117 12.1741 12.5179 12.2923 12.962L12.5774 14.036L11.5309 14.3187C11.0903 14.4378 10.9428 14.9927 11.265 15.3177L12.1147 16.1743C12.1147 16.1787 12.114 16.183 12.114 16.1876L11.2258 16.7046C10.831 16.9344 10.831 17.5089 11.2258 17.7387L12.114 18.2558L11.2258 18.7728C10.831 19.0026 10.831 19.5772 11.2258 19.8069L12.114 20.324L11.2258 20.8411C10.831 21.0708 10.831 21.6454 11.2258 21.8752L12.114 22.3922L11.2258 22.9093C10.831 23.1391 10.831 23.7136 11.2258 23.9434L12.114 24.4604L11.2258 24.9775C10.831 25.2073 10.831 25.7818 11.2258 26.0116L12.114 26.5287L11.2258 27.0457C10.831 27.2755 10.831 27.8501 11.2258 28.0798L12.114 28.5969L11.2258 29.1139C10.831 29.3437 10.831 29.9183 11.2258 30.1481L12.114 30.6651L11.2258 31.1822C10.831 31.412 10.831 31.9865 11.2258 32.2163L12.114 32.7333L11.2258 33.2504C10.831 33.4802 10.831 34.0547 11.2258 34.2845L12.114 34.8016L11.2258 35.3186C10.831 35.5484 10.831 36.123 11.2258 36.3527L12.114 36.8698L11.2258 37.3868C10.831 37.6166 10.831 38.1912 11.2258 38.421L12.114 38.938L11.2258 39.4551C10.831 39.6848 10.831 40.2594 11.2258 40.4892L12.114 41.0062C12.114 43.2908 13.9508 45.1427 16.2166 45.1427H40.832C43.0978 45.1427 44.9346 43.2908 44.9346 41.0062V24.4604L30.5715 23.5554C30.0171 23.5204 29.4967 23.2737 29.1164 22.8655C28.736 22.4572 28.5243 21.9182 28.5243 21.3581C28.5243 20.1956 29.4207 19.2334 30.5715 19.1608Z" fill="#3ECC5F"/>
<path fill-rule="evenodd" clip-rule="evenodd" d="M36.729 45.1427H42.8829V36.8698H36.729V45.1427Z" fill="#3ECC5F"/>
<path fill-rule="evenodd" clip-rule="evenodd" d="M46.9859 39.9721C46.941 39.9721 46.8981 39.9797 46.8548 39.9853C46.847 39.9543 46.8396 39.9231 46.831 39.892C47.0496 39.7999 47.2298 39.6343 47.341 39.4233C47.4522 39.2124 47.4876 38.9692 47.441 38.7349C47.3945 38.5007 47.269 38.2899 47.0858 38.1384C46.9026 37.9869 46.6731 37.904 46.4361 37.9039C46.2122 37.9047 45.9947 37.98 45.8175 38.1181C45.7948 38.0948 45.7719 38.0716 45.7488 38.0486C45.8828 37.871 45.9556 37.6541 45.9561 37.4309C45.956 37.1926 45.8743 36.9617 45.7248 36.7772C45.5752 36.5927 45.3671 36.4659 45.1356 36.4182C44.9041 36.3706 44.6633 36.405 44.454 36.5157C44.2448 36.6264 44.0798 36.8065 43.9871 37.0257C43.9568 37.017 43.9262 37.0098 43.8958 37.0019C43.9014 36.9583 43.909 36.915 43.909 36.8697C43.909 36.5955 43.8009 36.3324 43.6086 36.1385C43.4162 35.9446 43.1553 35.8356 42.8833 35.8356C42.6113 35.8356 42.3504 35.9446 42.1581 36.1385C41.9657 36.3324 41.8577 36.5955 41.8577 36.8697C41.8577 36.915 41.8653 36.9583 41.8708 37.0019C41.8405 37.0098 41.8099 37.017 41.7795 37.0257C41.6871 36.8061 41.5223 36.6255 41.3129 36.5145C41.1035 36.4035 40.8625 36.3689 40.6307 36.4166C40.3989 36.4643 40.1907 36.5913 40.0412 36.7762C39.8917 36.9611 39.8102 37.1923 39.8105 37.4309C39.8105 37.6635 39.8893 37.8757 40.0179 38.0486C39.2554 38.7998 38.7808 39.8465 38.7808 41.0062C38.7808 43.2908 40.6175 45.1426 42.8833 45.1426C44.799 45.1426 46.4033 43.8169 46.8548 42.0271C46.8981 42.0327 46.941 42.0403 46.9859 42.0403C47.2579 42.0403 47.5188 41.9314 47.7111 41.7374C47.9035 41.5435 48.0115 41.2805 48.0115 41.0062C48.0115 40.7319 47.9035 40.4689 47.7111 40.275C47.5188 40.081 47.2579 39.9721 46.9859 39.9721" fill="#44D860"/>
<path fill-rule="evenodd" clip-rule="evenodd" d="M38.7808 32.7333H44.9346V28.5969H38.7808V32.7333Z" fill="#3ECC5F"/>
<path fill-rule="evenodd" clip-rule="evenodd" d="M46.9854 31.1821C47.1214 31.1821 47.2518 31.1277 47.348 31.0307C47.4442 30.9337 47.4982 30.8022 47.4982 30.6651C47.4982 30.5279 47.4442 30.3964 47.348 30.2995C47.2518 30.2025 47.1214 30.148 46.9854 30.148C46.963 30.148 46.9415 30.152 46.9199 30.1546C46.9158 30.1391 46.9124 30.1236 46.908 30.1081C47.0172 30.0619 47.1072 29.979 47.1626 29.8736C47.2181 29.7682 47.2357 29.6466 47.2125 29.5296C47.1892 29.4125 47.1265 29.3072 47.035 29.2314C46.9436 29.1557 46.8289 29.1142 46.7105 29.1139C46.5938 29.1139 46.4873 29.1547 46.4012 29.221C46.3899 29.2093 46.3784 29.1977 46.3667 29.1863C46.4311 29.1001 46.4705 28.9937 46.4705 28.8773C46.4705 28.7581 46.4296 28.6426 46.3548 28.5504C46.2801 28.4581 46.176 28.3947 46.0602 28.3708C45.9444 28.347 45.824 28.3643 45.7193 28.4197C45.6147 28.4751 45.5322 28.5652 45.4859 28.6748C45.3063 28.6236 45.1207 28.5974 44.9341 28.5969C43.8014 28.5969 42.8828 29.523 42.8828 30.6651C42.8828 31.8071 43.8014 32.7333 44.9341 32.7333C45.1257 32.7333 45.3101 32.7048 45.4859 32.6553C45.5322 32.765 45.6147 32.8551 45.7193 32.9105C45.824 32.9659 45.9444 32.9831 46.0602 32.9593C46.176 32.9355 46.2801 32.8721 46.3548 32.7798C46.4296 32.6875 46.4705 32.572 46.4705 32.4528C46.4705 32.3364 46.4311 32.2301 46.3667 32.1439C46.3784 32.1325 46.3899 32.1209 46.4012 32.1091C46.4873 32.1755 46.5938 32.2162 46.7105 32.2162C46.829 32.2162 46.9439 32.1748 47.0355 32.0991C47.1272 32.0233 47.19 31.9179 47.2133 31.8008C47.2366 31.6836 47.2189 31.5619 47.1632 31.4564C47.1076 31.3509 47.0174 31.2681 46.908 31.222C46.9124 31.2067 46.9158 31.191 46.9199 31.1755C46.9415 31.1782 46.963 31.1821 46.9854 31.1821Z" fill="#44D860"/>
<path fill-rule="evenodd" clip-rule="evenodd" d="M20.3195 18.7728C20.1835 18.7728 20.053 18.7183 19.9569 18.6214C19.8607 18.5244 19.8067 18.3929 19.8067 18.2558C19.8067 17.4003 19.1166 16.7046 18.2682 16.7046C17.4198 16.7046 16.7297 17.4003 16.7297 18.2558C16.7297 18.3929 16.6757 18.5244 16.5795 18.6214C16.4834 18.7183 16.3529 18.7728 16.2169 18.7728C16.0809 18.7728 15.9505 18.7183 15.8543 18.6214C15.7581 18.5244 15.7041 18.3929 15.7041 18.2558C15.7041 16.8301 16.8543 15.6705 18.2682 15.6705C19.6822 15.6705 20.8323 16.8301 20.8323 18.2558C20.8323 18.3929 20.7783 18.5244 20.6821 18.6214C20.5859 18.7183 20.4555 18.7728 20.3195 18.7728" fill="black"/>
<path fill-rule="evenodd" clip-rule="evenodd" d="M28.5239 45.1427H40.8316C43.0975 45.1427 44.9342 43.2908 44.9342 41.0063V26.5287H32.6265C30.3606 26.5287 28.5239 28.3806 28.5239 30.6651V45.1427Z" fill="#FFFF50"/>
<path fill-rule="evenodd" clip-rule="evenodd" d="M41.8615 32.9402H31.5969C31.5425 32.9402 31.4903 32.9184 31.4519 32.8796C31.4134 32.8408 31.3918 32.7882 31.3918 32.7334C31.3918 32.6785 31.4134 32.6259 31.4519 32.5871C31.4903 32.5483 31.5425 32.5266 31.5969 32.5266H41.8615C41.9159 32.5266 41.9681 32.5483 42.0066 32.5871C42.045 32.6259 42.0667 32.6785 42.0667 32.7334C42.0667 32.7882 42.045 32.8408 42.0066 32.8796C41.9681 32.9184 41.9159 32.9402 41.8615 32.9402ZM41.8615 37.0767H31.5969C31.5425 37.0767 31.4903 37.0549 31.4519 37.0161C31.4134 36.9773 31.3918 36.9247 31.3918 36.8698C31.3918 36.815 31.4134 36.7624 31.4519 36.7236C31.4903 36.6848 31.5425 36.663 31.5969 36.663H41.8615C41.9159 36.663 41.9681 36.6848 42.0066 36.7236C42.045 36.7624 42.0667 36.815 42.0667 36.8698C42.0667 36.9247 42.045 36.9773 42.0066 37.0161C41.9681 37.0549 41.9159 37.0767 41.8615 37.0767ZM41.8615 41.2131H31.5969C31.5425 41.2131 31.4903 41.1913 31.4519 41.1525C31.4134 41.1137 31.3918 41.0611 31.3918 41.0063C31.3918 40.9514 31.4134 40.8988 31.4519 40.86C31.4903 40.8212 31.5425 40.7995 31.5969 40.7995H41.8615C41.9159 40.7995 41.9681 40.8212 42.0066 40.86C42.045 40.8988 42.0667 40.9514 42.0667 41.0063C42.0667 41.0611 42.045 41.1137 42.0066 41.1525C41.9681 41.1913 41.9159 41.2131 41.8615 41.2131ZM41.8615 30.9104H31.5969C31.5425 30.9104 31.4903 30.8887 31.4519 30.8499C31.4134 30.8111 31.3918 30.7585 31.3918 30.7036C31.3918 30.6488 31.4134 30.5962 31.4519 30.5574C31.4903 30.5186 31.5425 30.4968 31.5969 30.4968H41.8615C41.9159 30.4968 41.9681 30.5186 42.0066 30.5574C42.045 30.5962 42.0667 30.6488 42.0667 30.7036C42.0667 30.7585 42.045 30.8111 42.0066 30.8499C41.9681 30.8887 41.9159 30.9104 41.8615 30.9104ZM41.8615 35.0084H31.5969C31.5425 35.0084 31.4903 34.9866 31.4519 34.9479C31.4134 34.9091 31.3918 34.8565 31.3918 34.8016C31.3918 34.7468 31.4134 34.6941 31.4519 34.6554C31.4903 34.6166 31.5425 34.5948 31.5969 34.5948H41.8615C41.9159 34.5948 41.9681 34.6166 42.0066 34.6554C42.045 34.6941 42.0667 34.7468 42.0667 34.8016C42.0667 34.8565 42.045 34.9091 42.0066 34.9479C41.9681 34.9866 41.9159 35.0084 41.8615 35.0084ZM41.8615 39.1449H31.5969C31.5425 39.1449 31.4903 39.1231 31.4519 39.0843C31.4134 39.0455 31.3918 38.9929 31.3918 38.9381C31.3918 38.8832 31.4134 38.8306 31.4519 38.7918C31.4903 38.753 31.5425 38.7312 31.5969 38.7312H41.8615C41.9159 38.7312 41.9681 38.753 42.0066 38.7918C42.045 38.8306 42.0667 38.8832 42.0667 38.9381C42.0667 38.9929 42.045 39.0455 42.0066 39.0843C41.9681 39.1231 41.9159 39.1449 41.8615 39.1449ZM44.9344 20.0368C44.9319 20.0368 44.9298 20.0355 44.9274 20.0357C44.2935 20.0574 43.9936 20.6967 43.729 21.2607C43.4529 21.8502 43.2394 22.2334 42.8894 22.2218C42.5019 22.2078 42.2804 21.7664 42.0457 21.2994C41.7762 20.7629 41.4685 20.1544 40.8226 20.1772C40.1977 20.1987 39.8968 20.7551 39.6314 21.2458C39.3489 21.7687 39.1567 22.0866 38.786 22.0719C38.3908 22.0574 38.1807 21.6986 37.9376 21.2833C37.6667 20.8208 37.3534 20.3009 36.72 20.3187C36.1058 20.34 35.8041 20.8119 35.5378 21.2287C35.2562 21.6692 35.0589 21.9377 34.6835 21.9217C34.2788 21.9073 34.0697 21.6094 33.8279 21.2647C33.5563 20.8773 33.2502 20.4388 32.6187 20.4601C32.018 20.4808 31.7163 20.8676 31.4503 21.2084C31.1975 21.5319 31.0002 21.7879 30.5828 21.7718C30.5284 21.7698 30.4754 21.7897 30.4356 21.8271C30.3957 21.8645 30.3722 21.9163 30.3703 21.9712C30.3683 22.026 30.388 22.0794 30.4251 22.1196C30.4622 22.1598 30.5136 22.1835 30.568 22.1854C31.1869 22.2063 31.5003 21.8132 31.7725 21.4643C32.0139 21.1548 32.2224 20.8878 32.6326 20.8738C33.0277 20.8568 33.2129 21.1044 33.4931 21.5035C33.7592 21.8829 34.0611 22.313 34.6687 22.3352C35.3052 22.3567 35.6115 21.8771 35.8827 21.4527C36.1251 21.0734 36.3344 20.746 36.7339 20.7321C37.1017 20.7182 37.3019 21.0113 37.5842 21.4934C37.8503 21.9478 38.1516 22.4626 38.7713 22.4853C39.4123 22.5077 39.7218 21.9435 39.9916 21.444C40.2252 21.0121 40.4457 20.6043 40.8365 20.5906C41.2043 20.5819 41.3961 20.9205 41.6798 21.4862C41.9448 22.0142 42.2453 22.6123 42.8747 22.6353L42.9093 22.6359C43.5378 22.6359 43.8361 21.9999 44.1001 21.4376C44.3337 20.9391 44.5549 20.4696 44.9344 20.4504V20.0368V20.0368Z" fill="black"/>
<path fill-rule="evenodd" clip-rule="evenodd" d="M24.4219 45.1427H32.627V36.8698H24.4219V45.1427Z" fill="#3ECC5F"/>
<path d="M44.8845 23.6792L28.93 27.9895C28.7111 28.0486 28.5812 28.2754 28.6399 28.4961L30.199 34.3629C30.2576 34.5835 30.4826 34.7145 30.7015 34.6554L46.656 30.3451C46.8748 30.2859 47.0047 30.0591 46.9461 29.8384L45.3869 23.9717C45.3283 23.751 45.1033 23.62 44.8845 23.6792Z" fill="#D8D8D8"/>
<path d="M33.7445 31.2011L33.1732 31.3554C33.0638 31.385 32.9989 31.4984 33.0282 31.6087L33.1813 32.1847C33.2106 32.295 33.3231 32.3605 33.4325 32.3309L34.0037 32.1766C34.1131 32.147 34.1781 32.0336 34.1488 31.9233L33.9957 31.3473C33.9664 31.237 33.8539 31.1715 33.7445 31.2011Z" fill="#4A4A4A"/>
<path d="M34.8914 30.8913L34.3202 31.0456C34.2108 31.0752 34.1458 31.1886 34.1752 31.2989L34.3282 31.8749C34.3575 31.9852 34.47 32.0507 34.5795 32.0211L35.1507 31.8668C35.2601 31.8372 35.3251 31.7238 35.2957 31.6135L35.1427 31.0375C35.1134 30.9272 35.0009 30.8617 34.8914 30.8913Z" fill="#4A4A4A"/>
<path d="M36.0379 30.5815L35.4667 30.7359C35.3573 30.7654 35.2923 30.8788 35.3216 30.9892L35.4747 31.5651C35.504 31.6755 35.6165 31.7409 35.7259 31.7114L36.2972 31.557C36.4066 31.5275 36.4715 31.4141 36.4422 31.3037L36.2892 30.7278C36.2598 30.6175 36.1474 30.552 36.0379 30.5815Z" fill="#4A4A4A"/>
<path d="M37.1849 30.2717L36.6137 30.4261C36.5042 30.4556 36.4393 30.569 36.4686 30.6794L36.6217 31.2553C36.651 31.3656 36.7635 31.4311 36.8729 31.4016L37.4441 31.2472C37.5536 31.2177 37.6185 31.1043 37.5892 30.9939L37.4361 30.418C37.4068 30.3076 37.2943 30.2422 37.1849 30.2717Z" fill="#4A4A4A"/>
<path d="M38.3304 29.962L37.7592 30.1163C37.6497 30.1459 37.5848 30.2593 37.6141 30.3696L37.7672 30.9456C37.7965 31.0559 37.909 31.1214 38.0184 31.0918L38.5897 30.9375C38.6991 30.9079 38.764 30.7945 38.7347 30.6842L38.5816 30.1082C38.5523 29.9979 38.4398 29.9324 38.3304 29.962Z" fill="#4A4A4A"/>
<path d="M39.4769 29.6522L38.9057 29.8065C38.7962 29.8361 38.7313 29.9495 38.7606 30.0598L38.9137 30.6358C38.943 30.7461 39.0555 30.8116 39.1649 30.782L39.7361 30.6277C39.8456 30.5981 39.9105 30.4847 39.8812 30.3744L39.7281 29.7984C39.6988 29.6881 39.5863 29.6226 39.4769 29.6522Z" fill="#4A4A4A"/>
<path d="M40.6244 29.3424L40.0531 29.4968C39.9437 29.5263 39.8788 29.6397 39.9081 29.7501L40.0611 30.326C40.0905 30.4364 40.2029 30.5018 40.3124 30.4723L40.8836 30.3179C40.993 30.2884 41.058 30.175 41.0286 30.0646L40.8756 29.4887C40.8463 29.3784 40.7338 29.3129 40.6244 29.3424Z" fill="#4A4A4A"/>
<path d="M41.7713 29.0326L41.2001 29.1869C41.0907 29.2165 41.0257 29.3299 41.055 29.4403L41.2081 30.0162C41.2374 30.1265 41.3499 30.192 41.4593 30.1625L42.0306 30.0081C42.14 29.9786 42.2049 29.8652 42.1756 29.7548L42.0226 29.1789C41.9932 29.0685 41.8808 29.0031 41.7713 29.0326Z" fill="#4A4A4A"/>
<path d="M42.9173 28.7229L42.3461 28.8772C42.2367 28.9068 42.1717 29.0202 42.201 29.1305L42.3541 29.7065C42.3834 29.8168 42.4959 29.8823 42.6053 29.8527L43.1766 29.6984C43.286 29.6688 43.3509 29.5554 43.3216 29.4451L43.1686 28.8691C43.1392 28.7588 43.0268 28.6933 42.9173 28.7229Z" fill="#4A4A4A"/>
<path fill-rule="evenodd" clip-rule="evenodd" d="M30.1279 32.1784L32.5622 31.5207C32.6148 31.5065 32.6708 31.514 32.7179 31.5414C32.765 31.5688 32.7994 31.614 32.8134 31.667L32.9664 32.2427C32.9805 32.2957 32.9732 32.3522 32.946 32.3997C32.9188 32.4472 32.874 32.4818 32.8214 32.496L30.3871 33.1537C30.3345 33.1679 30.2785 33.1605 30.2314 33.133C30.1843 33.1056 30.1499 33.0604 30.1358 33.0074L29.9828 32.4315C29.9687 32.3785 29.9761 32.3221 30.0033 32.2746C30.0305 32.2271 30.0753 32.1924 30.1278 32.1782L30.1279 32.1784ZM43.5288 28.558L45.9633 27.9003C46.0159 27.8861 46.0719 27.8935 46.119 27.9209C46.1661 27.9483 46.2005 27.9935 46.2145 28.0465L46.3676 28.6223C46.3816 28.6752 46.3743 28.7317 46.3471 28.7792C46.3199 28.8267 46.2751 28.8614 46.2225 28.8756L43.7878 29.5333C43.7352 29.5475 43.6792 29.5401 43.6321 29.5127C43.585 29.4852 43.5506 29.4401 43.5366 29.3871L43.3835 28.8111C43.3694 28.7581 43.3768 28.7017 43.404 28.6542C43.4312 28.6067 43.476 28.572 43.5285 28.5578L43.5288 28.558Z" fill="#4A4A4A"/>
<path fill-rule="evenodd" clip-rule="evenodd" d="M29.5082 29.8439L30.4375 29.5928C30.49 29.5787 30.546 29.5861 30.5931 29.6135C30.6402 29.6409 30.6746 29.6861 30.6887 29.7391L30.8417 30.3148C30.8558 30.3678 30.8484 30.4243 30.8212 30.4718C30.794 30.5193 30.7492 30.554 30.6967 30.5681L29.7674 30.8192C29.7148 30.8334 29.6588 30.826 29.6117 30.7985C29.5646 30.7711 29.5302 30.7259 29.5162 30.673L29.3631 30.0972C29.3491 30.0442 29.3564 29.9878 29.3836 29.9403C29.4108 29.8928 29.4556 29.8581 29.5082 29.8439V29.8439Z" fill="#4A4A4A"/>
<path d="M31.5843 29.283L31.0131 29.4373C30.9037 29.4669 30.8387 29.5803 30.868 29.6907L31.0211 30.2666C31.0504 30.3769 31.1629 30.4424 31.2723 30.4128L31.8436 30.2585C31.953 30.229 32.0179 30.1155 31.9886 30.0052L31.8355 29.4293C31.8062 29.3189 31.6937 29.2535 31.5843 29.283Z" fill="#4A4A4A"/>
<path d="M32.7303 28.9732L32.1591 29.1275C32.0496 29.1571 31.9847 29.2705 32.014 29.3808L32.1671 29.9568C32.1964 30.0671 32.3089 30.1326 32.4183 30.103L32.9896 29.9487C33.099 29.9191 33.1639 29.8057 33.1346 29.6954L32.9815 29.1194C32.9522 29.0091 32.8397 28.9436 32.7303 28.9732Z" fill="#4A4A4A"/>
<path d="M33.8773 28.6635L33.306 28.8178C33.1966 28.8473 33.1317 28.9607 33.161 29.0711L33.3141 29.647C33.3434 29.7574 33.4559 29.8228 33.5653 29.7933L34.1365 29.639C34.246 29.6094 34.3109 29.496 34.2816 29.3856L34.1285 28.8097C34.0992 28.6994 33.9867 28.6339 33.8773 28.6635Z" fill="#4A4A4A"/>
<path d="M35.0243 28.3537L34.453 28.508C34.3436 28.5376 34.2787 28.651 34.308 28.7613L34.461 29.3373C34.4904 29.4476 34.6028 29.5131 34.7123 29.4835L35.2835 29.3292C35.3929 29.2996 35.4579 29.1862 35.4285 29.0759L35.2755 28.4999C35.2462 28.3896 35.1337 28.3241 35.0243 28.3537Z" fill="#4A4A4A"/>
<path d="M36.1707 28.0439L35.5995 28.1982C35.4901 28.2277 35.4251 28.3412 35.4545 28.4515L35.6075 29.0274C35.6368 29.1378 35.7493 29.2032 35.8587 29.1737L36.43 29.0194C36.5394 28.9898 36.6044 28.8764 36.575 28.7661L36.422 28.1901C36.3926 28.0798 36.2802 28.0143 36.1707 28.0439Z" fill="#4A4A4A"/>
<path d="M37.3167 27.7341L36.7455 27.8884C36.6361 27.918 36.5711 28.0314 36.6005 28.1417L36.7535 28.7177C36.7828 28.828 36.8953 28.8935 37.0047 28.8639L37.576 28.7096C37.6854 28.68 37.7503 28.5666 37.721 28.4563L37.568 27.8803C37.5386 27.77 37.4262 27.7045 37.3167 27.7341Z" fill="#4A4A4A"/>
<path d="M38.4637 27.4244L37.8925 27.5787C37.783 27.6083 37.7181 27.7217 37.7474 27.832L37.9005 28.408C37.9298 28.5183 38.0423 28.5838 38.1517 28.5542L38.723 28.3999C38.8324 28.3703 38.8973 28.2569 38.868 28.1466L38.7149 27.5706C38.6856 27.4603 38.5731 27.3948 38.4637 27.4244Z" fill="#4A4A4A"/>
<path d="M39.6107 27.1146L39.0394 27.2689C38.93 27.2985 38.8651 27.4119 38.8944 27.5223L39.0475 28.0982C39.0768 28.2085 39.1893 28.274 39.2987 28.2445L39.8699 28.0901C39.9794 28.0606 40.0443 27.9472 40.015 27.8368L39.8619 27.2609C39.8326 27.1505 39.7201 27.0851 39.6107 27.1146Z" fill="#4A4A4A"/>
<path d="M40.7567 26.8048L40.1854 26.9591C40.076 26.9887 40.0111 27.1021 40.0404 27.2124L40.1935 27.7884C40.2228 27.8987 40.3353 27.9642 40.4447 27.9346L41.0159 27.7803C41.1253 27.7507 41.1903 27.6373 41.161 27.527L41.0079 26.9511C40.9786 26.8407 40.8661 26.7752 40.7567 26.8048Z" fill="#4A4A4A"/>
<path d="M41.9032 26.495L41.3319 26.6494C41.2225 26.6789 41.1576 26.7923 41.1869 26.9027L41.3399 27.4786C41.3693 27.5889 41.4817 27.6544 41.5912 27.6249L42.1624 27.4705C42.2718 27.441 42.3368 27.3276 42.3075 27.2172L42.1544 26.6413C42.1251 26.5309 42.0126 26.4655 41.9032 26.495Z" fill="#4A4A4A"/>
<path d="M43.0501 26.1853L42.4789 26.3396C42.3695 26.3692 42.3045 26.4826 42.3339 26.5929L42.4869 27.1689C42.5162 27.2792 42.6287 27.3447 42.7381 27.3151L43.3094 27.1608C43.4188 27.1312 43.4837 27.0178 43.4544 26.9075L43.3014 26.3315C43.272 26.2212 43.1596 26.1557 43.0501 26.1853Z" fill="#4A4A4A"/>
<path d="M44.1971 25.8755L43.6259 26.0299C43.5164 26.0594 43.4515 26.1728 43.4808 26.2832L43.6339 26.8591C43.6632 26.9695 43.7757 27.0349 43.8851 27.0054L44.4564 26.8511C44.5658 26.8215 44.6307 26.7081 44.6014 26.5977L44.4483 26.0218C44.419 25.9115 44.3065 25.846 44.1971 25.8755Z" fill="#4A4A4A"/>
<path d="M45.3436 25.5657L44.7724 25.7201C44.6629 25.7496 44.598 25.863 44.6273 25.9734L44.7804 26.5493C44.8097 26.6596 44.9222 26.7251 45.0316 26.6956L45.6028 26.5412C45.7123 26.5117 45.7772 26.3983 45.7479 26.2879L45.5948 25.712C45.5655 25.6016 45.453 25.5362 45.3436 25.5657Z" fill="#4A4A4A"/>
<path fill-rule="evenodd" clip-rule="evenodd" d="M45.3087 25.4351L44.3792 25.6862C44.3267 25.7004 44.2707 25.693 44.2236 25.6656C44.1765 25.6381 44.1421 25.593 44.128 25.54L43.9749 24.964C43.9609 24.911 43.9682 24.8546 43.9954 24.8071C44.0226 24.7596 44.0674 24.7249 44.12 24.7107L45.0495 24.4596C45.102 24.4454 45.158 24.4529 45.2051 24.4803C45.2522 24.5077 45.2866 24.5529 45.3007 24.6059L45.4537 25.1818C45.4678 25.2348 45.4605 25.2913 45.4333 25.3388C45.4061 25.3863 45.3612 25.4209 45.3087 25.4351V25.4351Z" fill="#4A4A4A"/>
<path d="M43.2331 25.9959L43.8043 25.8416C43.9137 25.8121 43.9787 25.6986 43.9494 25.5883L43.7963 25.0124C43.767 24.902 43.6545 24.8366 43.5451 24.8661L42.9738 25.0204C42.8644 25.05 42.7995 25.1634 42.8288 25.2737L42.9818 25.8497C43.0112 25.96 43.1236 26.0255 43.2331 25.9959Z" fill="#4A4A4A"/>
<path d="M42.0866 26.3058L42.6578 26.1514C42.7672 26.1219 42.8322 26.0085 42.8029 25.8981L42.6498 25.3222C42.6205 25.2118 42.508 25.1464 42.3986 25.1759L41.8273 25.3303C41.7179 25.3598 41.653 25.4732 41.6823 25.5836L41.8354 26.1595C41.8647 26.2698 41.9772 26.3353 42.0866 26.3058Z" fill="#4A4A4A"/>
<path d="M40.9396 26.6155L41.5108 26.4612C41.6203 26.4316 41.6852 26.3182 41.6559 26.2079L41.5028 25.6319C41.4735 25.5216 41.361 25.4561 41.2516 25.4857L40.6804 25.64C40.5709 25.6696 40.506 25.783 40.5353 25.8933L40.6884 26.4693C40.7177 26.5796 40.8302 26.6451 40.9396 26.6155Z" fill="#4A4A4A"/>
<path d="M39.7926 26.9252L40.3639 26.7709C40.4733 26.7413 40.5382 26.6279 40.5089 26.5176L40.3559 25.9417C40.3265 25.8313 40.2141 25.7658 40.1046 25.7954L39.5334 25.9497C39.424 25.9793 39.359 26.0927 39.3883 26.203L39.5414 26.779C39.5707 26.8893 39.6832 26.9548 39.7926 26.9252Z" fill="#4A4A4A"/>
<path d="M38.6462 27.2351L39.2174 27.0808C39.3268 27.0512 39.3918 26.9378 39.3624 26.8275L39.2094 26.2515C39.1801 26.1412 39.0676 26.0757 38.9581 26.1053L38.3869 26.2596C38.2775 26.2892 38.2125 26.4026 38.2419 26.5129L38.3949 27.0889C38.4242 27.1992 38.5367 27.2647 38.6462 27.2351Z" fill="#4A4A4A"/>
<path d="M37.5002 27.5449L38.0714 27.3905C38.1808 27.361 38.2458 27.2476 38.2164 27.1372L38.0634 26.5613C38.0341 26.4509 37.9216 26.3855 37.8121 26.415L37.2409 26.5694C37.1315 26.5989 37.0665 26.7123 37.0959 26.8227L37.2489 27.3986C37.2783 27.5089 37.3907 27.5744 37.5002 27.5449Z" fill="#4A4A4A"/>
<path d="M36.3532 27.8547L36.9244 27.7004C37.0338 27.6708 37.0988 27.5574 37.0695 27.4471L36.9164 26.8711C36.8871 26.7608 36.7746 26.6953 36.6652 26.7249L36.0939 26.8792C35.9845 26.9088 35.9196 27.0222 35.9489 27.1325L36.102 27.7085C36.1313 27.8188 36.2438 27.8843 36.3532 27.8547Z" fill="#4A4A4A"/>
<path d="M35.2062 28.1644L35.7774 28.0101C35.8869 27.9805 35.9518 27.8671 35.9225 27.7568L35.7694 27.1808C35.7401 27.0705 35.6276 27.005 35.5182 27.0346L34.947 27.1889C34.8375 27.2185 34.7726 27.3319 34.8019 27.4422L34.955 28.0182C34.9843 28.1285 35.0968 28.194 35.2062 28.1644Z" fill="#4A4A4A"/>
<path d="M34.0597 28.4742L34.631 28.3199C34.7404 28.2903 34.8053 28.1769 34.776 28.0666L34.6229 27.4906C34.5936 27.3803 34.4811 27.3148 34.3717 27.3444L33.8005 27.4987C33.6911 27.5283 33.6261 27.6417 33.6554 27.752L33.8085 28.328C33.8378 28.4383 33.9503 28.5038 34.0597 28.4742Z" fill="#4A4A4A"/>
<path d="M32.9128 28.7839L33.484 28.6296C33.5934 28.6 33.6584 28.4866 33.629 28.3763L33.476 27.8004C33.4467 27.69 33.3342 27.6245 33.2247 27.6541L32.6535 27.8084C32.5441 27.838 32.4791 27.9514 32.5085 28.0617L32.6615 28.6377C32.6908 28.748 32.8033 28.8135 32.9128 28.7839Z" fill="#4A4A4A"/>
<path d="M31.7668 29.0938L32.338 28.9394C32.4474 28.9099 32.5124 28.7965 32.483 28.6861L32.33 28.1102C32.3007 27.9998 32.1882 27.9344 32.0788 27.9639L31.5075 28.1182C31.3981 28.1478 31.3331 28.2612 31.3625 28.3716L31.5155 28.9475C31.5449 29.0578 31.6573 29.1233 31.7668 29.0938Z" fill="#4A4A4A"/>
<path d="M30.6198 29.4035L31.191 29.2492C31.3005 29.2196 31.3654 29.1062 31.3361 28.9959L31.183 28.4199C31.1537 28.3096 31.0412 28.2441 30.9318 28.2737L30.3605 28.428C30.2511 28.4576 30.1862 28.571 30.2155 28.6813L30.3686 29.2573C30.3979 29.3676 30.5104 29.4331 30.6198 29.4035Z" fill="#4A4A4A"/>
<path d="M29.4733 29.7133L30.0445 29.5589C30.154 29.5294 30.2189 29.416 30.1896 29.3056L30.0365 28.7297C30.0072 28.6193 29.8947 28.5539 29.7853 28.5834L29.2141 28.7378C29.1046 28.7673 29.0397 28.8807 29.069 28.9911L29.2221 29.567C29.2514 29.6773 29.3639 29.7428 29.4733 29.7133Z" fill="#4A4A4A"/>
<path d="M43.2331 25.9959L43.8043 25.8416C43.9137 25.8121 43.9787 25.6986 43.9494 25.5883L43.7963 25.0124C43.767 24.902 43.6545 24.8366 43.5451 24.8661L42.9738 25.0204C42.8644 25.05 42.7995 25.1634 42.8288 25.2737L42.9818 25.8497C43.0112 25.96 43.1236 26.0255 43.2331 25.9959Z" fill="#4A4A4A"/>
<path d="M42.0866 26.3058L42.6578 26.1514C42.7672 26.1219 42.8322 26.0085 42.8029 25.8981L42.6498 25.3222C42.6205 25.2118 42.508 25.1464 42.3986 25.1759L41.8273 25.3303C41.7179 25.3598 41.653 25.4732 41.6823 25.5836L41.8354 26.1595C41.8647 26.2698 41.9772 26.3353 42.0866 26.3058Z" fill="#4A4A4A"/>
<path d="M40.9396 26.6155L41.5108 26.4612C41.6203 26.4316 41.6852 26.3182 41.6559 26.2079L41.5028 25.6319C41.4735 25.5216 41.361 25.4561 41.2516 25.4857L40.6804 25.64C40.5709 25.6696 40.506 25.783 40.5353 25.8933L40.6884 26.4693C40.7177 26.5796 40.8302 26.6451 40.9396 26.6155Z" fill="#4A4A4A"/>
<path d="M39.7926 26.9252L40.3639 26.7709C40.4733 26.7413 40.5382 26.6279 40.5089 26.5176L40.3559 25.9417C40.3265 25.8313 40.2141 25.7658 40.1046 25.7954L39.5334 25.9497C39.424 25.9793 39.359 26.0927 39.3883 26.203L39.5414 26.779C39.5707 26.8893 39.6832 26.9548 39.7926 26.9252Z" fill="#4A4A4A"/>
<path d="M38.6462 27.2351L39.2174 27.0808C39.3268 27.0512 39.3918 26.9378 39.3624 26.8275L39.2094 26.2515C39.1801 26.1412 39.0676 26.0757 38.9581 26.1053L38.3869 26.2596C38.2775 26.2892 38.2125 26.4026 38.2419 26.5129L38.3949 27.0889C38.4242 27.1992 38.5367 27.2647 38.6462 27.2351Z" fill="#4A4A4A"/>
<path d="M37.5002 27.5449L38.0714 27.3905C38.1808 27.361 38.2458 27.2476 38.2164 27.1372L38.0634 26.5613C38.0341 26.4509 37.9216 26.3855 37.8121 26.415L37.2409 26.5694C37.1315 26.5989 37.0665 26.7123 37.0959 26.8227L37.2489 27.3986C37.2783 27.5089 37.3907 27.5744 37.5002 27.5449Z" fill="#4A4A4A"/>
<path d="M36.3532 27.8547L36.9244 27.7004C37.0338 27.6708 37.0988 27.5574 37.0695 27.4471L36.9164 26.8711C36.8871 26.7608 36.7746 26.6953 36.6652 26.7249L36.0939 26.8792C35.9845 26.9088 35.9196 27.0222 35.9489 27.1325L36.102 27.7085C36.1313 27.8188 36.2438 27.8843 36.3532 27.8547Z" fill="#4A4A4A"/>
<path d="M35.2062 28.1644L35.7774 28.0101C35.8869 27.9805 35.9518 27.8671 35.9225 27.7568L35.7694 27.1808C35.7401 27.0705 35.6276 27.005 35.5182 27.0346L34.947 27.1889C34.8375 27.2185 34.7726 27.3319 34.8019 27.4422L34.955 28.0182C34.9843 28.1285 35.0968 28.194 35.2062 28.1644Z" fill="#4A4A4A"/>
<path d="M34.0597 28.4742L34.631 28.3199C34.7404 28.2903 34.8053 28.1769 34.776 28.0666L34.6229 27.4906C34.5936 27.3803 34.4811 27.3148 34.3717 27.3444L33.8005 27.4987C33.6911 27.5283 33.6261 27.6417 33.6554 27.752L33.8085 28.328C33.8378 28.4383 33.9503 28.5038 34.0597 28.4742Z" fill="#4A4A4A"/>
<path d="M32.9128 28.7839L33.484 28.6296C33.5934 28.6 33.6584 28.4866 33.629 28.3763L33.476 27.8004C33.4467 27.69 33.3342 27.6245 33.2247 27.6541L32.6535 27.8084C32.5441 27.838 32.4791 27.9514 32.5085 28.0617L32.6615 28.6377C32.6908 28.748 32.8033 28.8135 32.9128 28.7839Z" fill="#4A4A4A"/>
<path d="M31.7668 29.0938L32.338 28.9394C32.4474 28.9099 32.5124 28.7965 32.483 28.6861L32.33 28.1102C32.3007 27.9998 32.1882 27.9344 32.0788 27.9639L31.5075 28.1182C31.3981 28.1478 31.3331 28.2612 31.3625 28.3716L31.5155 28.9475C31.5449 29.0578 31.6573 29.1233 31.7668 29.0938Z" fill="#4A4A4A"/>
<path d="M30.6198 29.4035L31.191 29.2492C31.3005 29.2196 31.3654 29.1062 31.3361 28.9959L31.183 28.4199C31.1537 28.3096 31.0412 28.2441 30.9318 28.2737L30.3605 28.428C30.2511 28.4576 30.1862 28.571 30.2155 28.6813L30.3686 29.2573C30.3979 29.3676 30.5104 29.4331 30.6198 29.4035Z" fill="#4A4A4A"/>
<path d="M29.4733 29.7133L30.0445 29.5589C30.154 29.5294 30.2189 29.416 30.1896 29.3056L30.0365 28.7297C30.0072 28.6193 29.8947 28.5539 29.7853 28.5834L29.2141 28.7378C29.1046 28.7673 29.0397 28.8807 29.069 28.9911L29.2221 29.567C29.2514 29.6773 29.3639 29.7428 29.4733 29.7133Z" fill="#4A4A4A"/>
<path fill-rule="evenodd" clip-rule="evenodd" d="M29.8148 30.9998L31.1384 30.6422C31.191 30.628 31.2469 30.6354 31.2941 30.6629C31.3412 30.6903 31.3756 30.7355 31.3896 30.7885L31.5427 31.3644C31.5568 31.4174 31.5494 31.4738 31.5222 31.5213C31.495 31.5688 31.4502 31.6035 31.3976 31.6177L30.0741 31.9753C30.0215 31.9895 29.9655 31.9821 29.9184 31.9546C29.8713 31.9272 29.8369 31.882 29.8229 31.829L29.6698 31.2533C29.6558 31.2003 29.6631 31.1439 29.6903 31.0963C29.7175 31.0488 29.7623 31.0142 29.8149 31L29.8148 30.9998Z" fill="#4A4A4A"/>
<path d="M32.3216 30.3227L31.7504 30.477C31.641 30.5066 31.576 30.62 31.6053 30.7304L31.7584 31.3063C31.7877 31.4166 31.9002 31.4821 32.0096 31.4526L32.5809 31.2982C32.6903 31.2687 32.7552 31.1553 32.7259 31.0449L32.5728 30.469C32.5435 30.3586 32.431 30.2932 32.3216 30.3227Z" fill="#4A4A4A"/>
<path d="M33.4681 30.0129L32.8969 30.1673C32.7874 30.1968 32.7225 30.3102 32.7518 30.4206L32.9049 30.9965C32.9342 31.1069 33.0467 31.1723 33.1561 31.1428L33.7273 30.9884C33.8368 30.9589 33.9017 30.8455 33.8724 30.7351L33.7193 30.1592C33.69 30.0489 33.5775 29.9834 33.4681 30.0129Z" fill="#4A4A4A"/>
<path d="M34.6151 29.7032L34.0438 29.8575C33.9344 29.8871 33.8695 30.0005 33.8988 30.1108L34.0519 30.6868C34.0812 30.7971 34.1937 30.8626 34.3031 30.833L34.8743 30.6787C34.9837 30.6491 35.0487 30.5357 35.0194 30.4254L34.8663 29.8494C34.837 29.7391 34.7245 29.6736 34.6151 29.7032Z" fill="#4A4A4A"/>
<path d="M35.7611 29.3934L35.1898 29.5478C35.0804 29.5773 35.0155 29.6907 35.0448 29.8011L35.1979 30.377C35.2272 30.4873 35.3397 30.5528 35.4491 30.5233L36.0203 30.3689C36.1297 30.3394 36.1947 30.226 36.1654 30.1156L36.0123 29.5397C35.983 29.4293 35.8705 29.3639 35.7611 29.3934Z" fill="#4A4A4A"/>
<path d="M36.908 29.0836L36.3368 29.238C36.2274 29.2675 36.1624 29.3809 36.1918 29.4913L36.3448 30.0672C36.3741 30.1776 36.4866 30.243 36.5961 30.2135L37.1673 30.0592C37.2767 30.0296 37.3417 29.9162 37.3123 29.8058L37.1593 29.2299C37.13 29.1196 37.0175 29.0541 36.908 29.0836Z" fill="#4A4A4A"/>
<path d="M38.0545 28.7738L37.4833 28.9282C37.3739 28.9577 37.3089 29.0711 37.3382 29.1815L37.4913 29.7574C37.5206 29.8677 37.6331 29.9332 37.7425 29.9037L38.3138 29.7493C38.4232 29.7198 38.4881 29.6064 38.4588 29.496L38.3058 28.9201C38.2764 28.8097 38.164 28.7443 38.0545 28.7738Z" fill="#4A4A4A"/>
<path d="M39.2015 28.4641L38.6303 28.6184C38.5208 28.648 38.4559 28.7614 38.4852 28.8717L38.6383 29.4477C38.6676 29.558 38.7801 29.6235 38.8895 29.5939L39.4607 29.4396C39.5702 29.41 39.6351 29.2966 39.6058 29.1863L39.4527 28.6103C39.4234 28.5 39.3109 28.4345 39.2015 28.4641Z" fill="#4A4A4A"/>
<path d="M40.347 28.1544L39.7758 28.3087C39.6663 28.3383 39.6014 28.4517 39.6307 28.562L39.7838 29.138C39.8131 29.2483 39.9256 29.3138 40.035 29.2842L40.6063 29.1299C40.7157 29.1003 40.7806 28.9869 40.7513 28.8766L40.5982 28.3006C40.5689 28.1903 40.4564 28.1248 40.347 28.1544Z" fill="#4A4A4A"/>
<path d="M41.494 27.8446L40.9227 27.9989C40.8133 28.0285 40.7484 28.1419 40.7777 28.2522L40.9308 28.8282C40.9601 28.9385 41.0726 29.004 41.182 28.9744L41.7532 28.8201C41.8627 28.7905 41.9276 28.6771 41.8983 28.5668L41.7452 27.9908C41.7159 27.8805 41.6034 27.815 41.494 27.8446Z" fill="#4A4A4A"/>
<path d="M42.6405 27.5348L42.0692 27.6891C41.9598 27.7187 41.8949 27.8321 41.9242 27.9425L42.0772 28.5184C42.1066 28.6287 42.219 28.6942 42.3285 28.6646L42.8997 28.5103C43.0091 28.4808 43.0741 28.3674 43.0448 28.257L42.8917 27.6811C42.8624 27.5707 42.7499 27.5053 42.6405 27.5348Z" fill="#4A4A4A"/>
<path d="M43.7874 27.225L43.2162 27.3794C43.1068 27.4089 43.0418 27.5223 43.0712 27.6327L43.2242 28.2086C43.2535 28.319 43.366 28.3844 43.4754 28.3549L44.0467 28.2005C44.1561 28.171 44.2211 28.0576 44.1917 27.9472L44.0387 27.3713C44.0093 27.2609 43.8969 27.1955 43.7874 27.225Z" fill="#4A4A4A"/>
<path fill-rule="evenodd" clip-rule="evenodd" d="M44.399 27.0599L45.6509 26.7217C45.7034 26.7075 45.7594 26.7149 45.8065 26.7423C45.8536 26.7697 45.888 26.8149 45.9021 26.8679L46.0552 27.4438C46.0692 27.4968 46.0619 27.5533 46.0347 27.6008C46.0075 27.6483 45.9627 27.683 45.9101 27.6972L44.6581 28.0354C44.6055 28.0496 44.5495 28.0422 44.5024 28.0147C44.4553 27.9873 44.4209 27.9421 44.4068 27.8892L44.2538 27.3134C44.2397 27.2604 44.2471 27.204 44.2743 27.1565C44.3015 27.109 44.3463 27.0743 44.3989 27.0601L44.399 27.0599Z" fill="#4A4A4A"/>
<path d="M31.0194 33.2299L30.4481 33.3843C30.3387 33.4138 30.2738 33.5272 30.3031 33.6376L30.4562 34.2135C30.4855 34.3239 30.598 34.3893 30.7074 34.3598L31.2786 34.2055C31.388 34.1759 31.453 34.0625 31.4237 33.9521L31.2706 33.3762C31.2413 33.2659 31.1288 33.2004 31.0194 33.2299Z" fill="#4A4A4A"/>
<path d="M32.1663 32.9202L31.5951 33.0745C31.4857 33.1041 31.4207 33.2175 31.4501 33.3278L31.6031 33.9037C31.6324 34.0141 31.7449 34.0796 31.8544 34.05L32.4256 33.8957C32.535 33.8661 32.6 33.7527 32.5706 33.6424L32.4176 33.0664C32.3883 32.9561 32.2758 32.8906 32.1663 32.9202Z" fill="#4A4A4A"/>
<path d="M33.3128 32.6104L32.7416 32.7647C32.6322 32.7943 32.5672 32.9077 32.5965 33.018L32.7496 33.594C32.7789 33.7043 32.8914 33.7698 33.0008 33.7402L33.5721 33.5859C33.6815 33.5563 33.7464 33.4429 33.7171 33.3326L33.5641 32.7566C33.5347 32.6463 33.4223 32.5808 33.3128 32.6104Z" fill="#4A4A4A"/>
<path d="M34.4598 32.3006L33.8886 32.4549C33.7791 32.4845 33.7142 32.5979 33.7435 32.7082L33.8966 33.2842C33.9259 33.3945 34.0384 33.46 34.1478 33.4304L34.719 33.2761C34.8285 33.2465 34.8934 33.1331 34.8641 33.0228L34.711 32.4468C34.6817 32.3365 34.5692 32.271 34.4598 32.3006Z" fill="#4A4A4A"/>
<path fill-rule="evenodd" clip-rule="evenodd" d="M35.0346 32.1452L40.5507 30.6549C40.6033 30.6407 40.6593 30.6482 40.7064 30.6756C40.7535 30.703 40.7879 30.7482 40.802 30.8012L40.9551 31.3773C40.9692 31.4303 40.9618 31.4868 40.9346 31.5343C40.9074 31.5818 40.8626 31.6164 40.81 31.6306L35.2939 33.1209C35.2413 33.1351 35.1853 33.1277 35.1382 33.1002C35.0911 33.0728 35.0567 33.0276 35.0426 32.9747L34.8895 32.3985C34.8754 32.3455 34.8828 32.2891 34.91 32.2416C34.9372 32.1941 34.982 32.1594 35.0346 32.1452V32.1452ZM41.1259 30.4995L41.8406 30.3065C41.8932 30.2923 41.9492 30.2997 41.9963 30.3271C42.0434 30.3545 42.0778 30.3997 42.0919 30.4527L42.245 31.0289C42.2591 31.0818 42.2517 31.1383 42.2245 31.1858C42.1973 31.2333 42.1525 31.268 42.0999 31.2822L41.3852 31.4752C41.3327 31.4894 41.2767 31.482 41.2296 31.4546C41.1825 31.4272 41.1481 31.382 41.134 31.329L40.9809 30.7528C40.9668 30.6999 40.9742 30.6434 41.0014 30.5959C41.0286 30.5484 41.0734 30.5137 41.1259 30.4995Z" fill="#4A4A4A"/>
<path d="M42.9876 29.9967L42.4164 30.151C42.307 30.1806 42.242 30.294 42.2714 30.4043L42.4244 30.9803C42.4537 31.0906 42.5662 31.1561 42.6756 31.1265L43.2469 30.9722C43.3563 30.9426 43.4212 30.8292 43.3919 30.7189L43.2389 30.1429C43.2095 30.0326 43.0971 29.9671 42.9876 29.9967Z" fill="#4A4A4A"/>
<path d="M44.1346 29.6869L43.5634 29.8412C43.4539 29.8708 43.389 29.9842 43.4183 30.0946L43.5714 30.6705C43.6007 30.7808 43.7132 30.8463 43.8226 30.8167L44.3938 30.6624C44.5033 30.6329 44.5682 30.5195 44.5389 30.4091L44.3858 29.8332C44.3565 29.7228 44.244 29.6574 44.1346 29.6869Z" fill="#4A4A4A"/>
<path d="M46.284 29.1061L45.7128 29.2604C45.6034 29.29 45.5384 29.4034 45.5677 29.5137L45.7208 30.0897C45.7501 30.2 45.8626 30.2655 45.972 30.2359L46.5433 30.0816C46.6527 30.052 46.7176 29.9386 46.6883 29.8283L46.5352 29.2524C46.5059 29.142 46.3934 29.0765 46.284 29.1061Z" fill="#4A4A4A"/>
<path d="M44.5501 30.0199L44.4927 29.8041C44.4786 29.7512 44.486 29.6947 44.5132 29.6472C44.5404 29.5997 44.5852 29.565 44.6378 29.5508L45.209 29.3965C45.2616 29.3823 45.3176 29.3897 45.3647 29.4172C45.4118 29.4446 45.4462 29.4898 45.4602 29.5428L45.5176 29.7585L44.5501 30.0199Z" fill="#4A4A4A"/>
<path d="M45.5559 29.9029L45.6132 30.1187C45.6273 30.1717 45.6199 30.2281 45.5927 30.2756C45.5655 30.3231 45.5207 30.3578 45.4682 30.372L44.8969 30.5263C44.8444 30.5405 44.7884 30.5331 44.7413 30.5056C44.6942 30.4782 44.6598 30.433 44.6457 30.3801L44.5884 30.1643L45.5559 29.9029Z" fill="#4A4A4A"/>
<path d="M44.8493 23.9181L29.1549 28.1581C29.0362 28.1902 28.9657 28.3133 28.9975 28.433C29.0294 28.5527 29.1514 28.6237 29.2701 28.5916L44.9645 24.3516C45.0832 24.3195 45.1537 24.1965 45.1219 24.0768C45.0901 23.9571 44.968 23.886 44.8493 23.9181Z" fill="#4A4A4A"/>
<path opacity="0.136" d="M30.1144 27.9764L29.4968 28.1433C29.4177 28.1646 29.3707 28.2466 29.3919 28.3264L29.392 28.3266C29.4132 28.4064 29.4945 28.4537 29.5736 28.4323L30.1912 28.2655C30.2703 28.2441 30.3173 28.1621 30.2961 28.0824L30.296 28.0822C30.2748 28.0024 30.1935 27.955 30.1144 27.9764Z" fill="#D8D8D8"/>
<path opacity="0.136" d="M31.3507 27.6422L30.7331 27.809C30.654 27.8304 30.607 27.9124 30.6282 27.9922L30.6283 27.9924C30.6495 28.0721 30.7308 28.1195 30.8099 28.0981L31.4275 27.9312C31.5066 27.9099 31.5536 27.8279 31.5324 27.7481L31.5323 27.7479C31.5111 27.6681 31.4298 27.6208 31.3507 27.6422Z" fill="#D8D8D8"/>
<path opacity="0.136" d="M32.3028 27.3851L31.6852 27.5519C31.6061 27.5733 31.5592 27.6553 31.5804 27.735L31.5804 27.7352C31.6016 27.815 31.683 27.8624 31.7621 27.841L32.3797 27.6741C32.4588 27.6528 32.5057 27.5708 32.4845 27.491L32.4845 27.4908C32.4633 27.411 32.382 27.3637 32.3028 27.3851Z" fill="#D8D8D8"/>
<path opacity="0.136" d="M33.2545 27.1279L32.6369 27.2948C32.5578 27.3162 32.5108 27.3982 32.532 27.4779L32.5321 27.4781C32.5533 27.5579 32.6346 27.6052 32.7137 27.5839L33.3313 27.417C33.4104 27.3956 33.4574 27.3136 33.4362 27.2339L33.4361 27.2337C33.4149 27.1539 33.3336 27.1066 33.2545 27.1279Z" fill="#D8D8D8"/>
<path opacity="0.136" d="M34.2067 26.8707L33.5891 27.0376C33.5099 27.059 33.463 27.141 33.4842 27.2207L33.4842 27.2209C33.5054 27.3007 33.5868 27.348 33.6659 27.3267L34.2835 27.1598C34.3626 27.1384 34.4095 27.0564 34.3883 26.9767L34.3883 26.9765C34.3671 26.8967 34.2858 26.8494 34.2067 26.8707Z" fill="#D8D8D8"/>
<path opacity="0.136" d="M35.3951 26.5493L34.7775 26.7162C34.6984 26.7376 34.6515 26.8195 34.6727 26.8993L34.6727 26.8995C34.6939 26.9793 34.7752 27.0266 34.8544 27.0053L35.472 26.8384C35.5511 26.817 35.598 26.735 35.5768 26.6553L35.5768 26.6551C35.5556 26.5753 35.4742 26.528 35.3951 26.5493Z" fill="#D8D8D8"/>
<path opacity="0.136" d="M36.3483 26.2923L35.7307 26.4592C35.6515 26.4805 35.6046 26.5625 35.6258 26.6423L35.6258 26.6425C35.647 26.7223 35.7284 26.7696 35.8075 26.7482L36.4251 26.5814C36.5042 26.56 36.5511 26.478 36.5299 26.3982L36.5299 26.398C36.5087 26.3183 36.4274 26.2709 36.3483 26.2923Z" fill="#D8D8D8"/>
<path opacity="0.136" d="M37.2989 26.0351L36.6813 26.202C36.6022 26.2233 36.5553 26.3053 36.5765 26.3851L36.5765 26.3853C36.5977 26.4651 36.679 26.5124 36.7582 26.491L37.3758 26.3242C37.4549 26.3028 37.5018 26.2208 37.4806 26.141L37.4806 26.1408C37.4594 26.0611 37.3781 26.0137 37.2989 26.0351Z" fill="#D8D8D8"/>
<path opacity="0.136" d="M38.2511 25.778L37.6335 25.9448C37.5544 25.9662 37.5074 26.0482 37.5286 26.128L37.5287 26.1282C37.5499 26.208 37.6312 26.2553 37.7103 26.2339L38.3279 26.0671C38.407 26.0457 38.454 25.9637 38.4328 25.8839L38.4327 25.8837C38.4115 25.804 38.3302 25.7566 38.2511 25.778Z" fill="#D8D8D8"/>
<path opacity="0.136" d="M39.441 25.4566L38.8234 25.6234C38.7443 25.6448 38.6974 25.7268 38.7186 25.8065L38.7186 25.8067C38.7398 25.8865 38.8211 25.9339 38.9003 25.9125L39.5179 25.7456C39.597 25.7243 39.6439 25.6423 39.6227 25.5625L39.6227 25.5623C39.6015 25.4825 39.5201 25.4352 39.441 25.4566Z" fill="#D8D8D8"/>
<path opacity="0.136" d="M40.3932 25.1994L39.7756 25.3663C39.6965 25.3876 39.6495 25.4696 39.6707 25.5494L39.6708 25.5496C39.692 25.6294 39.7733 25.6767 39.8524 25.6553L40.47 25.4885C40.5491 25.4671 40.5961 25.3851 40.5749 25.3054L40.5748 25.3052C40.5536 25.2254 40.4723 25.178 40.3932 25.1994Z" fill="#D8D8D8"/>
<path opacity="0.136" d="M41.3448 24.9423L40.7272 25.1091C40.6481 25.1305 40.6012 25.2125 40.6224 25.2923L40.6224 25.2925C40.6436 25.3722 40.7249 25.4196 40.8041 25.3982L41.4217 25.2313C41.5008 25.21 41.5477 25.128 41.5265 25.0482L41.5265 25.048C41.5053 24.9682 41.424 24.9209 41.3448 24.9423Z" fill="#D8D8D8"/>
<path opacity="0.136" d="M42.5328 24.6209L41.9152 24.7877C41.8361 24.8091 41.7892 24.8911 41.8104 24.9709L41.8104 24.9711C41.8316 25.0509 41.9129 25.0982 41.992 25.0768L42.6096 24.91C42.6888 24.8886 42.7357 24.8066 42.7145 24.7268L42.7145 24.7266C42.6933 24.6469 42.6119 24.5995 42.5328 24.6209Z" fill="#D8D8D8"/>
<path opacity="0.136" d="M43.4859 24.3638L42.8684 24.5307C42.7892 24.552 42.7423 24.634 42.7635 24.7138L42.7635 24.714C42.7847 24.7938 42.8661 24.8411 42.9452 24.8197L43.5628 24.6529C43.6419 24.6315 43.6888 24.5495 43.6676 24.4697L43.6676 24.4695C43.6464 24.3898 43.5651 24.3424 43.4859 24.3638Z" fill="#D8D8D8"/>
<path opacity="0.136" d="M44.4366 24.1066L43.819 24.2735C43.7399 24.2949 43.693 24.3769 43.7142 24.4566L43.7142 24.4568C43.7354 24.5366 43.8167 24.5839 43.8959 24.5626L44.5135 24.3957C44.5926 24.3743 44.6395 24.2923 44.6183 24.2126L44.6183 24.2124C44.5971 24.1326 44.5158 24.0853 44.4366 24.1066Z" fill="#D8D8D8"/>
<path fill-rule="evenodd" clip-rule="evenodd" d="M36.7291 39.972C36.6841 39.972 36.6413 39.9797 36.598 39.9853C36.5902 39.9543 36.5828 39.923 36.5742 39.892C36.7928 39.7999 36.973 39.6342 37.0842 39.4233C37.1954 39.2124 37.2307 38.9691 37.1842 38.7349C37.1377 38.5007 37.0122 38.2899 36.829 38.1384C36.6458 37.9869 36.4162 37.904 36.1793 37.9038C35.9553 37.9046 35.7379 37.98 35.5606 38.1181C35.5379 38.0947 35.515 38.0716 35.4919 38.0486C35.6259 37.8709 35.6988 37.654 35.6993 37.4308C35.6992 37.1926 35.6174 36.9617 35.4679 36.7771C35.3184 36.5926 35.1103 36.4658 34.8788 36.4182C34.6472 36.3706 34.4065 36.405 34.1972 36.5157C33.9879 36.6264 33.823 36.8065 33.7303 37.0257C33.6999 37.017 33.6694 37.0097 33.639 37.0019C33.6445 36.9582 33.6521 36.915 33.6521 36.8697C33.6521 36.5955 33.5441 36.3324 33.3517 36.1385C33.1594 35.9446 32.8985 35.8356 32.6265 35.8356C32.3545 35.8356 32.0936 35.9446 31.9013 36.1385C31.7089 36.3324 31.6008 36.5955 31.6008 36.8697C31.6008 36.915 31.6084 36.9582 31.614 37.0019C31.5836 37.0097 31.5531 37.017 31.5227 37.0257C31.4303 36.8061 31.2654 36.6255 31.0561 36.5145C30.8467 36.4035 30.6057 36.3689 30.3739 36.4166C30.1421 36.4643 29.9338 36.5913 29.7843 36.7762C29.6348 36.961 29.5533 37.1923 29.5537 37.4308C29.5537 37.6635 29.6324 37.8757 29.7611 38.0486C28.9986 38.7998 28.5239 39.8465 28.5239 41.0062C28.5239 43.2907 30.3606 45.1426 32.6265 45.1426C34.5422 45.1426 36.1465 43.8169 36.598 42.027C36.6413 42.0326 36.6841 42.0403 36.7291 42.0403C37.0011 42.0403 37.2619 41.9313 37.4543 41.7374C37.6466 41.5435 37.7547 41.2804 37.7547 41.0062C37.7547 40.7319 37.6466 40.4689 37.4543 40.2749C37.2619 40.081 37.0011 39.972 36.7291 39.972" fill="#44D860"/>
<path fill-rule="evenodd" clip-rule="evenodd" d="M24.4219 32.7333H32.627V28.5969H24.4219V32.7333Z" fill="#3ECC5F"/>
<path fill-rule="evenodd" clip-rule="evenodd" d="M34.6782 31.1822C34.8143 31.1822 34.9447 31.1277 35.0409 31.0307C35.137 30.9338 35.1911 30.8022 35.1911 30.6651C35.1911 30.528 35.137 30.3965 35.0409 30.2995C34.9447 30.2025 34.8143 30.1481 34.6782 30.1481C34.6559 30.1481 34.6344 30.152 34.6128 30.1547C34.6087 30.1392 34.6052 30.1236 34.6009 30.1081C34.7101 30.0619 34.8 29.9791 34.8555 29.8736C34.911 29.7682 34.9286 29.6466 34.9053 29.5296C34.8821 29.4126 34.8194 29.3072 34.7279 29.2315C34.6364 29.1557 34.5218 29.1142 34.4034 29.1139C34.2867 29.1139 34.1802 29.1547 34.094 29.2211C34.0828 29.2093 34.0713 29.1977 34.0596 29.1863C34.124 29.1001 34.1634 28.9938 34.1634 28.8773C34.1633 28.7582 34.1225 28.6427 34.0477 28.5504C33.9729 28.4581 33.8688 28.3947 33.753 28.3709C33.6372 28.3471 33.5168 28.3643 33.4122 28.4197C33.3075 28.4751 33.2251 28.5652 33.1788 28.6749C32.9992 28.6236 32.8136 28.5974 32.627 28.5969C31.4942 28.5969 30.5757 29.523 30.5757 30.6651C30.5757 31.8072 31.4942 32.7333 32.627 32.7333C32.8186 32.7333 33.003 32.7048 33.1788 32.6554C33.2251 32.765 33.3075 32.8551 33.4122 32.9105C33.5168 32.9659 33.6372 32.9832 33.753 32.9593C33.8688 32.9355 33.9729 32.8721 34.0477 32.7798C34.1225 32.6875 34.1633 32.572 34.1634 32.4529C34.1634 32.3364 34.124 32.2301 34.0596 32.1439C34.0713 32.1325 34.0828 32.1209 34.094 32.1091C34.1802 32.1755 34.2867 32.2163 34.4034 32.2163C34.5219 32.2163 34.6367 32.1749 34.7284 32.0991C34.8201 32.0234 34.8829 31.918 34.9062 31.8008C34.9294 31.6836 34.9118 31.5619 34.8561 31.4564C34.8005 31.3509 34.7103 31.2681 34.6009 31.2221C34.6052 31.2068 34.6087 31.1911 34.6128 31.1755C34.6344 31.1782 34.6559 31.1822 34.6782 31.1822Z" fill="#44D860"/>
<path fill-rule="evenodd" clip-rule="evenodd" d="M36.7291 15.929C36.6963 15.929 36.6614 15.9249 36.6286 15.9187C36.5956 15.9122 36.5633 15.9025 36.5322 15.8897C36.5014 15.8773 36.4727 15.8608 36.4438 15.8422C36.4171 15.8235 36.3907 15.8008 36.3658 15.778C36.3435 15.7532 36.3209 15.7284 36.3025 15.6994C36.284 15.6705 36.2676 15.6415 36.2551 15.6105C36.2299 15.5474 36.2167 15.48 36.2163 15.412C36.2163 15.3789 36.2204 15.3437 36.2266 15.3106C36.2327 15.2775 36.243 15.2465 36.2551 15.2134C36.2676 15.1824 36.284 15.1534 36.3025 15.1245C36.3209 15.0976 36.3435 15.0707 36.3658 15.0459C36.3907 15.0231 36.4171 15.0004 36.4438 14.9818C36.4727 14.9632 36.5014 14.9466 36.5322 14.9342C36.5628 14.9218 36.5958 14.9115 36.6286 14.9053C36.6943 14.8908 36.762 14.8908 36.8296 14.9053C36.8623 14.9115 36.8953 14.9218 36.9261 14.9342C36.9566 14.9466 36.9855 14.9632 37.0143 14.9818C37.0409 15.0004 37.0674 15.0231 37.0922 15.0459C37.1148 15.0707 37.1373 15.0976 37.1558 15.1245C37.1743 15.1534 37.1907 15.1824 37.203 15.2134C37.2153 15.2465 37.2255 15.2775 37.2317 15.3106C37.2376 15.3437 37.2419 15.3789 37.2419 15.412C37.2419 15.5485 37.1864 15.6829 37.0922 15.778C37.0674 15.8008 37.0409 15.8235 37.0143 15.8422C36.9855 15.8608 36.9566 15.8773 36.9261 15.8897C36.8635 15.9154 36.7967 15.9288 36.7291 15.929M40.8317 15.6705C40.6963 15.6705 40.565 15.6147 40.4684 15.5195C40.4456 15.4947 40.4245 15.4685 40.405 15.4409C40.3866 15.412 40.3702 15.383 40.3576 15.352C40.3325 15.2888 40.3193 15.2215 40.3189 15.1534C40.3189 15.0169 40.3743 14.8846 40.4684 14.7874C40.4932 14.7646 40.5197 14.7419 40.5464 14.7232C40.5753 14.7046 40.604 14.6881 40.6348 14.6757C40.6653 14.6633 40.6984 14.6529 40.7312 14.6467C40.7968 14.6322 40.8666 14.6322 40.9322 14.6467C40.9648 14.6529 40.9978 14.6633 41.0286 14.6757C41.0592 14.6881 41.0881 14.7046 41.1168 14.7232C41.1435 14.7419 41.17 14.7646 41.1948 14.7874C41.2889 14.8846 41.3445 15.0169 41.3445 15.1534C41.3445 15.1865 41.3402 15.2217 41.3343 15.2548C41.3281 15.2879 41.3178 15.321 41.3055 15.352C41.2912 15.383 41.2768 15.412 41.2584 15.4409C41.2399 15.4678 41.2173 15.4947 41.1948 15.5195C41.17 15.5423 41.1435 15.565 41.1168 15.5836C41.0881 15.6022 41.0592 15.6188 41.0286 15.6312C40.9661 15.6569 40.8992 15.6703 40.8317 15.6705Z" fill="black"/>
</g>
<rect x="1.06074" y="1.04985" width="53.9" height="53.9" rx="7.35" stroke="white" stroke-opacity="0.15" stroke-width="2.1"/>
<defs>
<filter id="filter0_d_40_651" x="2.29646" y="2.28556" width="51.4295" height="51.4285" filterUnits="userSpaceOnUse" color-interpolation-filters="sRGB">
<feFlood flood-opacity="0" result="BackgroundImageFix"/>
<feColorMatrix in="SourceAlpha" type="matrix" values="0 0 0 0 0 0 0 0 0 0 0 0 0 0 0 0 0 0 127 0" result="hardAlpha"/>
<feOffset/>
<feGaussianBlur stdDeviation="2.85714"/>
<feComposite in2="hardAlpha" operator="out"/>
<feColorMatrix type="matrix" values="0 0 0 0 0 0 0 0 0 0 0 0 0 0 0 0 0 0 0.25 0"/>
<feBlend mode="normal" in2="BackgroundImageFix" result="effect1_dropShadow_40_651"/>
<feBlend mode="normal" in="SourceGraphic" in2="effect1_dropShadow_40_651" result="shape"/>
</filter>
<linearGradient id="paint0_linear_40_651" x1="28.0107" y1="-0.000152588" x2="28.0107" y2="55.9998" gradientUnits="userSpaceOnUse">
<stop stop-color="#103519"/>
<stop offset="1" stop-color="#22220A"/>
</linearGradient>
</defs>
</svg>
