<svg width="57" height="56" viewBox="0 0 57 56" fill="none" xmlns="http://www.w3.org/2000/svg">
<rect x="0.0107422" y="-0.00012207" width="56" height="56" rx="8" fill="url(#paint0_linear_2_3744)"/>
<rect x="1.06074" y="1.04988" width="53.9" height="53.9" rx="6.95" stroke="white" stroke-opacity="0.15" stroke-width="2.1"/>
<g filter="url(#filter0_d_2_3744)">
<path d="M19.964 42.0561C18.4401 40.8469 16.8147 39.6876 15.7039 38.0552C13.3667 35.1763 11.5672 31.8433 10.3369 28.3407C9.59333 26.0631 9.33866 23.6212 8.38007 21.4317C7.37728 19.8414 8.55191 18.1029 10.2785 17.5974C11.0473 17.4486 12.3989 16.7171 10.7673 17.2399C9.30455 18.3227 9.16298 16.2571 10.663 16.1263C11.6866 15.989 12.0634 15.1436 11.7134 14.3825C10.6145 13.6595 14.3779 12.865 12.4843 11.7863C10.5117 9.63917 15.2436 9.22585 14.0762 11.6643C13.7967 13.5394 17.3826 11.3207 16.5506 13.486C17.3962 14.5258 19.7173 13.7226 19.6597 15.1815C20.8915 15.2669 21.3143 16.3126 22.4707 16.3929C23.6692 16.9389 25.8419 17.3692 26.2497 18.7318C25.0607 19.6815 22.3073 16.77 22.175 19.399C22.5342 23.2825 22.4427 27.2831 23.8511 30.9815C24.5172 33.2208 26.1322 34.9836 27.5906 36.7277C28.986 38.4359 30.8762 39.6383 32.8028 40.6508C34.4928 41.455 36.3148 41.9883 38.1566 42.3229C38.9036 41.7464 40.2225 39.6033 41.3879 40.507C41.4432 41.5224 39.0749 42.6297 41.2765 42.5175C42.5693 42.124 43.466 43.5262 44.5305 42.2614C45.5113 43.4335 48.6071 41.5126 47.9093 43.9083C46.9656 44.5226 45.5894 44.1514 44.6441 44.9964C43.0857 44.2111 41.845 45.699 40.1198 45.5109C38.2038 45.8571 36.2546 45.9968 34.3121 45.9999C31.1253 45.7459 27.871 45.6388 24.8394 44.5194C23.1316 44.0187 21.4649 43.0376 19.964 42.0561ZM22.6553 43.2326C24.323 43.9602 25.9536 44.727 27.7812 44.9583C30.6808 45.3652 33.6751 45.991 36.585 45.4201C35.268 44.8202 33.9065 45.6539 32.5944 44.9911C31.0208 45.3327 29.3321 44.9041 27.7323 44.6931C25.9131 43.8755 23.9499 43.3134 22.2463 42.2522C20.1176 41.4677 23.3472 43.2582 23.9221 43.4032C25.2528 44.1652 22.4587 43.0125 22.0648 42.6957C20.9503 42.065 20.8082 42.1968 21.9545 42.8374C22.1853 42.9737 22.4135 43.1165 22.6553 43.2326ZM19.4821 40.9702C21.0981 41.574 19.475 39.8237 18.7345 39.9254C18.4064 39.3511 17.481 38.9884 18.1338 38.6799C16.9596 39.0912 16.9038 37.116 16.3518 37.3982C15.1096 37.0024 15.8683 35.6006 14.3886 34.7397C14.2536 33.8326 12.9185 33.0458 12.4927 31.6775C12.3046 30.977 10.9843 28.9652 11.7954 30.8374C12.4859 32.6398 13.7009 34.1833 14.712 35.725C15.4972 37.1929 16.4242 38.727 17.8541 39.6427C18.3361 40.1092 18.8015 40.8239 19.4821 40.9702ZM14.8268 35.8136C14.8832 35.5674 15.1223 36.3465 14.8268 35.8136V35.8136ZM21.4174 41.6941C20.9028 41.4904 21.7753 41.5324 21.4174 41.6941V41.6941ZM22.2947 42.0169C21.8942 42.2662 22.2038 41.5711 22.2947 42.0169V42.0169ZM23.3927 42.479C22.5871 42.1624 23.9155 41.9768 23.3927 42.479V42.479ZM25.2747 43.5372C24.258 43.3585 25.5923 43.0635 25.2747 43.5372V43.5372ZM21.6608 40.9956C20.612 40.9883 22.4727 40.4657 21.6608 40.9956V40.9956ZM22.4845 41.41C22.1909 41.5355 22.4615 41.1299 22.4845 41.41V41.41ZM26.6014 44.0024C27.2633 44.4238 30.4662 44.926 28.4606 44.1752C28.125 44.2466 24.7416 43.2098 26.6014 44.0024ZM20.0657 38.867C19.0384 38.5568 20.0013 38.586 20.0657 38.867V38.867ZM21.9822 39.9939C20.947 39.7232 22.481 39.6429 21.9822 39.9939V39.9939ZM23.5944 40.9911C22.4332 40.7176 24.3101 40.7189 23.5944 40.9911V40.9911ZM19.2858 38.0101C20.0624 38.6109 22.4178 38.0871 20.4751 37.6514C19.5909 37.1759 17.5982 36.8504 18.9565 37.9381L19.2858 38.0101ZM24.6863 41.3355C23.3297 41.0179 25.0097 40.7794 24.6863 41.3355V41.3355ZM23.0452 40.0197C24.9442 40.5616 21.4483 38.8081 22.5767 39.8202L22.8268 39.9344L23.0452 40.0197ZM26.3354 41.9382C24.7109 41.688 28.1338 41.9555 26.3354 41.9382V41.9382ZM18.5938 36.9603C18.15 36.9886 18.5236 36.6223 18.5938 36.9603V36.9603ZM29.3776 43.6598C28.7907 44.1141 29.4255 43.0494 29.3776 43.6598V43.6598ZM21.6629 38.8565C21.101 38.8434 21.5541 38.5351 21.6629 38.8565V38.8565ZM18.7644 36.7482C17.3508 36.2893 19.7968 36.6857 18.7644 36.7482V36.7482ZM15.3306 34.509C14.2071 33.6114 15.2021 34.0097 15.3306 34.509V34.509ZM24.345 40.2806C24.1559 40.063 24.256 40.3282 24.345 40.2806V40.2806ZM29.9558 43.7543C29.6502 43.8802 29.9378 43.4218 29.9558 43.7543V43.7543ZM23.8484 39.7633C22.968 39.6336 23.9494 39.3349 23.8484 39.7633V39.7633ZM19.6684 37.0906C18.438 36.5667 20.4365 37.0077 19.6684 37.0906V37.0906ZM26.7393 41.5233C25.5726 41.2898 27.9363 41.0449 26.7393 41.5233V41.5233ZM23.0613 39.0045C24.4409 39.1839 21.4199 38.0578 22.7586 38.9037L23.0613 39.0045ZM27.8559 41.9787C29.1438 41.2019 28.7192 43.7978 30.041 42.198C31.3448 41.2376 28.915 43.3854 30.5219 42.3693C31.684 41.5851 33.4004 42.741 34.4848 43.1181C35.2646 43.0795 36.0226 43.7984 36.822 43.361C38.3609 42.9428 33.8128 42.7408 35.005 41.9989C33.5969 42.4123 32.5566 41.506 31.8637 40.596C30.2843 40.2281 28.4581 39.4134 27.6698 38.0032C27.3484 37.4738 28.1341 38.0778 27.3924 37.2123C26.4407 36.3583 25.9654 35.3888 25.3265 34.3507C24.5633 33.9399 24.4743 32.7308 24.3972 34.3102C24.4032 33.3134 23.4757 32.6425 23.2493 32.9214C23.2452 31.9614 24.2419 32.4426 23.5442 31.7323C23.394 30.7374 22.8995 29.7006 22.7509 28.5773C22.52 28.0358 22.7184 26.876 21.9627 28.1018C21.6874 29.3973 21.8714 26.5098 22.2995 27.462C22.8614 26.4904 22.0977 26.6046 22.0665 26.7396C22.4325 25.9198 22.2981 24.7569 21.9709 25.2005C22.166 24.3316 22.2791 22.0028 21.679 22.4155C22.0428 21.5069 22.3688 18.2579 20.7898 19.4966C20.1498 19.5057 19.0416 19.731 18.5177 19.9938C20.1603 20.9072 18.3525 20.3237 17.6839 20.1785C17.5968 21.0237 16.9346 20.6582 16.1072 20.6664C17.4287 20.8314 15.4637 22.03 14.7056 21.5644C13.7211 22.0391 15.5553 23.2241 14.7254 23.5905C14.8274 24.1429 13.2171 23.3911 13.3435 24.6667C12.3877 24.2611 13.2119 26.1799 13.6901 25.531C15.3157 25.9748 14.8345 26.9868 14.8759 27.9481C14.611 28.5083 13.5682 26.6315 14.6436 26.7184C13.7952 25.3279 13.7051 26.2158 13.0001 26.8618C12.8361 26.9087 14.7985 27.7809 13.567 28.2122C14.6504 28.3808 14.6813 29.3374 14.9018 29.9427C15.553 30.627 15.4198 29.1871 16.199 30.0094C15.7059 29.2768 13.5872 27.9451 15.293 28.3722C15.2839 27.6348 14.9845 27.0402 15.5071 27.0547C16.0247 26.1091 14.9651 29.3862 16.1317 28.1844C16.4546 28.0421 16.5346 27.2375 17.1151 28.2603C17.9581 29.0971 17.4196 29.7034 16.2303 28.9373C16.4431 29.6655 17.8212 29.9257 17.5623 31.0645C17.8368 32.0661 18.2209 31.6972 18.5558 31.6393C18.8184 32.6124 18.9676 31.8968 18.98 31.4337C20.1827 31.6935 19.901 32.4107 20.2773 32.9118C21.106 33.2892 19.0911 30.3537 20.5139 32.0291C22.0108 33.3926 21.0752 33.9617 19.7319 33.7433C20.5821 33.674 20.8563 34.9029 21.9198 34.8598C22.8896 35.3252 23.5462 37.1129 21.8746 36.3687C21.2948 35.8413 19.2431 35.1907 20.9188 36.1939C22.4666 36.917 23.6958 37.3496 25.1886 38.2572C26.2569 39.0266 26.7184 39.9079 27.1233 40.0824C26.2254 40.515 24.4175 39.7369 25.76 39.4984C24.9227 39.3445 23.9808 38.9173 24.7829 39.9699C25.4649 40.5443 27.1991 40.4835 27.51 40.5486C27.2465 41.1344 26.7942 41.181 27.5208 41.2264C26.7102 41.6622 27.7807 41.7297 27.8559 41.9787ZM26.1983 37.2562C25.7051 36.7359 25.5776 35.7613 26.1107 36.6093C26.3841 36.7201 26.9865 38.202 26.1983 37.2562ZM31.5964 40.7156C31.6053 40.9514 31.904 40.6955 31.5964 40.7156V40.7156ZM25.4196 35.9804C25.4007 35.1937 25.598 36.5872 25.4196 35.9804V35.9804ZM24.8831 35.2521C24.2628 34.0429 25.6651 35.5946 24.8831 35.2521V35.2521ZM18.3816 30.7249C18.5608 31.3537 18.746 30.6269 18.3816 30.7249V30.7249ZM23.5559 33.5545C23.7798 32.7066 23.819 34.266 23.5559 33.5545V33.5545ZM19.9004 30.9901C19.6427 30.5222 20.4394 31.4289 19.9004 30.9901V30.9901ZM23.0376 32.0047C22.45 30.6764 23.4537 31.2791 23.1676 32.2224L23.0376 32.0047ZM17.6274 28.3646C17.3647 27.9288 16.9301 26.6501 17.07 26.2598C17.1966 26.8955 18.41 28.9956 17.6652 27.1297C16.8422 25.5656 18.6491 27.6374 18.8349 28.0276C18.9215 28.4157 18.3271 27.9215 18.7299 28.8315C17.9954 27.7955 18.2963 29.4038 17.6274 28.3646ZM15.9554 27.2022C16.0242 26.1889 16.3382 27.8971 15.9554 27.2022V27.2022ZM16.7075 27.4634C17.0664 26.6986 17.316 28.5296 16.7075 27.4634V27.4634ZM14.8983 26.0514C14.2758 25.4273 13.8253 24.8521 14.9274 25.6641C15.3521 25.6808 13.9839 24.3558 15.0297 25.2433C16.1294 25.4456 15.5727 27.0624 14.8983 26.0514ZM15.8486 26.0264C16.0406 26.3821 16.2101 25.6649 15.8486 26.0264V26.0264ZM16.4334 26.2155C15.8853 25.1791 17.0986 26.65 16.4334 26.2155V26.2155ZM15.2709 25.0947C13.4612 23.4699 17.5449 25.9443 15.5666 25.3959L15.2709 25.0947ZM20.4559 28.1341C19.6728 27.6603 20.2484 24.7991 20.5155 26.756C21.2768 26.5075 20.4734 27.7666 21.0413 27.755C20.9518 28.5494 20.6978 28.835 20.4559 28.1341ZM22.3738 29.2776C22.4506 28.4153 22.5354 29.8672 22.3738 29.2776V29.2776ZM22.0406 28.9456C22.0496 29.3794 22.1269 28.5772 22.0406 28.9456V28.9456ZM15.6259 24.5608C14.4633 22.9425 19.0047 26.1978 16.3706 24.9712C16.0953 24.8986 15.7641 24.8727 15.6259 24.5608ZM19.319 26.5362C19.209 25.1736 19.5647 26.7621 19.319 26.5362V26.5362ZM22.1229 28.3509C22.1391 28.8644 22.3399 27.5747 22.1229 28.3509V28.3509ZM15.804 23.9432C16.495 23.7941 18.6675 25.1675 16.6725 24.3355C16.4508 24.0879 15.9782 24.2004 15.804 23.9432ZM21.7377 26.9268C21.8115 25.5335 22.1502 26.0945 21.7402 27.1262L21.7377 26.9268ZM16.3184 23.4583C16.5999 23.0417 15.571 21.5746 16.4667 22.9321C16.8537 23.2423 17.5872 23.4518 16.9396 23.5823C17.9582 24.4889 16.6912 23.828 16.3184 23.4583ZM21.4442 26.4916C21.6157 27.4215 21.6387 24.9044 21.4442 26.4916V26.4916ZM15.7304 21.9923C15.8439 22.2814 15.9454 21.8996 15.7304 21.9923V21.9923ZM17.0674 22.7952C17.4115 22.0668 17.7022 23.6076 17.0674 22.7952V22.7952ZM20.8388 24.9119C20.8352 24.6321 20.91 25.3188 20.8388 24.9119V24.9119ZM20.6204 24.4239C20.0969 23.121 21.1073 25.1137 20.6204 24.4239V24.4239ZM20.299 23.5697C20.2111 23.0313 20.5976 24.246 20.299 23.5697V23.5697ZM20.822 22.7118C20.4628 22.0732 21.2756 19.8975 21.3663 21.2469C20.9872 22.2982 21.257 22.8864 21.5215 21.4762C22.0099 20.3664 21.416 23.6662 20.822 22.7118ZM21.3596 19.4762C21.3943 19.71 21.5162 19.2822 21.3596 19.4762V19.4762ZM20.4619 37.3222C20.249 37.1347 20.4886 37.4415 20.4619 37.3222V37.3222ZM22.3112 38.266C23.3399 38.5322 23.3346 38.1045 22.4049 37.9774C21.9048 37.5081 20.3269 37.0103 21.7392 37.9192C21.8328 38.1582 22.1283 38.1526 22.3112 38.266ZM18.6589 35.8186C19.2256 36.2449 20.7935 37.0269 19.4662 35.9809C19.9137 35.4563 18.6097 35.1771 19.0423 34.8262C17.942 34.147 18.1743 34.2074 18.9452 34.2288C17.6228 33.6325 19.136 33.6771 19.0648 33.3715C18.5549 33.2699 16.5322 32.4645 17.7221 33.4377C16.5125 32.8155 17.4339 33.6695 17.0683 33.5792C15.8313 33.2389 18.1698 34.5297 16.8718 34.2093C17.5814 34.7766 18.7819 35.6625 17.1718 34.8097C16.9597 35.1177 18.324 35.5847 18.6589 35.8186ZM20.593 36.9396C19.4401 36.0055 22.9447 37.7042 20.593 36.9396V36.9396ZM30.494 42.9909C30.1726 43.3924 30.5243 42.5202 30.494 42.9909V42.9909ZM31.5116 43.423C32.0542 42.8926 31.5338 44.2679 32.4107 43.2931C32.4201 42.5953 32.3837 42.1832 31.403 43.0308C31.1327 43.1821 31.012 43.8252 31.5116 43.423ZM15.3578 33.188C14.1898 32.5305 15.1912 32.5271 15.3578 33.188V33.188ZM16.4445 33.9064C15.0047 33.2953 16.041 33.2314 16.4445 33.9064V33.9064ZM22.6264 37.6677C23.23 38.2085 25.3985 38.0645 23.3595 37.7342C23.0575 37.2838 21.4419 37.3922 22.6264 37.6677ZM31.1246 42.9626C30.2245 43.3134 32.0535 42.1762 31.1246 42.9626V42.9626ZM33.0565 44.3021C32.6561 44.4125 33.0623 44.0497 33.0565 44.3021V44.3021ZM33.0595 43.9487C32.0627 44.0138 34.0882 42.8491 33.0595 43.9487V43.9487ZM12.6852 30.9306C11.8084 29.6685 12.1402 29.1012 11.2947 28.0707C11.1346 27.2827 9.84423 25.4945 10.6273 27.389C11.3445 28.497 11.5576 30.2124 12.6852 30.9306ZM32.7368 43.5992C31.96 43.0616 34.6293 42.3651 32.7368 43.5992V43.5992ZM34.1815 44.1702C33.582 43.9985 35.1292 43.3492 34.1815 44.1702V44.1702ZM15.0357 31.793C14.3352 31.7409 15.307 31.3859 15.0357 31.793V31.793ZM33.8799 43.7803C34.7975 43.1834 33.6684 43.2751 33.7135 43.8352L33.8799 43.7803ZM21.4266 35.8612C20.942 35.8955 21.3951 35.4582 21.4266 35.8612V35.8612ZM22.1962 36.308C21.8201 36.3864 21.9516 35.8091 22.1962 36.308V36.308ZM35.3523 44.1837C36.5278 43.3281 34.6396 44.0199 35.1055 44.3458L35.3523 44.1837ZM34.9021 43.9642C33.891 44.323 35.8598 43.1546 34.9021 43.9642V43.9642ZM37.2021 45.5095C36.4209 45.3689 37.8451 45.075 37.2021 45.5095V45.5095ZM15.6254 31.4994C16.4873 31.6942 19.0698 33.6409 17.5462 31.634C16.766 31.401 17.2339 29.4767 16.438 29.8173C16.9722 30.7176 16.8775 31.1009 15.7559 30.5332C14.3463 29.839 14.9637 30.8773 15.2392 31.1634C14.8638 31.2495 15.7358 31.4922 15.6254 31.4994ZM11.6987 28.3707C11.853 27.7269 10.2779 24.8286 10.9549 26.9185C11.1993 27.3562 11.1744 28.1859 11.6987 28.3707ZM18.906 32.8536C18.4622 32.4792 18.8849 32.8006 18.906 32.8536V32.8536ZM19.9989 33.1102C18.7908 32.8333 19.9983 32.4282 19.9989 33.1102V33.1102ZM29.4698 39.1339C28.7558 39.123 29.2892 38.6679 29.4698 39.1339V39.1339ZM29.9246 39.469C29.6622 39.5194 29.8575 39.2082 29.9246 39.469V39.469ZM33.6786 41.8546C33.2281 41.8202 34.0397 41.5855 33.6786 41.8546V41.8546ZM13.6601 28.8759C12.5537 28.5883 14.6928 28.4725 13.6601 28.8759V28.8759ZM28.6361 38.3947C27.9777 38.562 28.6246 37.7202 28.6361 38.3947V38.3947ZM13.2521 27.9167C12.6384 27.7678 13.9155 27.6906 13.2521 27.9167V27.9167ZM15.1775 28.8576C14.9739 28.9415 15.1655 28.6359 15.1775 28.8576V28.8576ZM38.6619 43.3865C39.5149 43.212 41.4588 43.8246 41.773 43.1583C40.7371 43.133 38.1891 42.421 38.0685 43.3283L38.2953 43.3643L38.6619 43.3865ZM15.7895 29.0132C15.2612 28.9877 15.8043 28.3297 15.7895 29.0132V29.0132ZM10.7271 25.4703C9.85264 25.2732 10.4972 24.1681 10.7271 25.4703V25.4703ZM11.9343 25.7765C10.8293 25.4002 11.9491 25.3583 11.9343 25.7765V25.7765ZM12.6241 26.1183C12.4247 25.9553 12.468 26.3242 12.6241 26.1183V26.1183ZM16.965 28.9277C16.4812 28.7874 17.1693 28.7383 16.965 28.9277V28.9277ZM12.1646 25.3473C10.7664 25.2 12.048 24.3638 12.1646 25.3473V25.3473ZM9.68969 23.7272C9.4485 23.8984 9.65449 23.2733 9.68969 23.7272V23.7272ZM10.0578 23.4467C9.74175 23.5152 9.99777 22.9085 10.0578 23.4467V23.4467ZM12.0919 24.6716C12.952 24.3308 10.5252 23.9666 11.9162 24.6072L12.0919 24.6716ZM39.3148 41.6362C38.6151 41.4787 39.8653 41.127 39.3148 41.6362V41.6362ZM42.6035 43.3561C42.0481 43.4427 42.8241 42.6977 42.6035 43.3561V43.3561ZM12.2998 23.596C11.6179 23.7225 12.3904 22.9592 12.2998 23.596V23.596ZM9.40579 21.6399C9.25032 20.7407 9.27159 19.1625 10.7586 19.6959C8.77368 20.0934 12.1324 22.1848 11.7083 20.5336C12.5429 20.5748 13.341 20.036 12.903 20.8537C14.5474 20.6705 15.6875 19.2319 17.2759 19.4335C18.5132 19.2683 19.866 19.143 21.1994 18.6405C22.2957 18.5608 23.351 17.37 22.7501 16.6642C21.2551 16.5366 19.6901 16.7253 18.0378 17.0567C16.2067 17.4407 14.5435 18.1703 12.696 18.4835C10.8952 18.7276 13.0582 19.156 12.5424 19.2514C11.6027 19.5803 13.663 19.8021 12.4206 20.1489C11.6533 20.0017 10.8546 19.7357 11.1823 18.9199C9.45735 19.1458 7.94158 19.868 9.30442 21.639L9.40579 21.6399ZM13.5624 19.5041C13.9668 18.0009 15.7292 20.7411 14.2253 19.7038C14.0457 19.5682 13.7502 19.4575 13.5624 19.5041ZM13.6411 18.7753C13.9514 19.0213 14.2248 18.3366 13.6411 18.7753V18.7753ZM14.3823 18.7872C14.435 18.0955 16.079 19.1534 14.6534 19.0362L14.3823 18.7872ZM15.3962 18.3759C15.5026 18.7642 15.7665 17.9394 15.3962 18.3759V18.3759ZM15.6556 18.2007C16.2721 17.4533 19.147 17.7237 17.0427 18.1278C16.4786 17.6994 16.0463 18.3804 15.6556 18.2007ZM19.4074 17.6172C19.3136 15.5757 21.2714 18.3427 19.4074 17.6172V17.6172ZM20.472 17.6113C20.8612 16.5824 21.9824 17.1985 20.6521 17.4046C20.681 17.5141 20.6131 17.9358 20.472 17.6113ZM11.88 23.0679C10.6454 22.4446 13.0429 22.3495 11.88 23.0679V23.0679ZM12.7398 23.309C11.8539 23.1316 13.1476 22.8716 12.7398 23.309V23.309ZM10.2063 21.4949C9.41999 21.2991 10.8708 20.9799 10.2063 21.4949V21.4949ZM44.5447 43.1679C44.0368 43.4371 44.5639 42.5704 44.5447 43.1679V43.1679ZM41.0555 40.7656C40.6071 40.8256 41.1547 40.0777 41.0555 40.7656V40.7656ZM45.5042 43.3995C46.4333 43.4027 48.3192 43.1085 46.2977 43.1094C45.9805 43.1593 44.4494 43.1486 45.5042 43.3995ZM13.4962 22.8873C14.2481 22.8352 14.6726 22.0506 13.3508 22.0957C11.3022 21.8817 15.1582 22.8034 13.088 22.5398C12.8098 22.7257 13.48 22.9388 13.4962 22.8873ZM14.1584 23.2255C13.9259 23.4842 14.0799 22.7384 14.1584 23.2255V23.2255ZM14.9439 21.1123C14.4924 21.0032 15.2702 20.704 14.9439 21.1123V21.1123ZM12.4433 16.8954C13.7852 16.4348 15.6202 15.9173 16.2538 17.1221C15.609 16.3391 15.9936 15.5683 16.6026 16.7131C17.4638 17.8714 17.895 16.1863 17.3348 15.7978C17.9731 16.5979 18.6991 16.976 17.7622 15.8484C18.7804 14.6128 15.7235 16.0102 15.0288 15.9961C14.6945 16.1475 11.5775 16.7981 12.4433 16.8954ZM13.2297 15.3758C13.995 14.7931 15.8765 15.7225 14.6692 14.7967C14.5512 14.6915 12.0251 15.4987 13.2297 15.3758ZM16.0198 15.492C16.9155 15.5151 15.6334 14.2781 16.7007 14.8386C16.5255 14.2609 15.4581 14.1527 14.9363 13.9219C14.6411 14.4501 15.537 15.4991 16.0198 15.492ZM13.719 12.9369C13.1759 13.1517 14.0288 12.5131 13.719 12.9369V12.9369ZM14.8593 13.2122C16.3027 13.0191 14.4914 12.5851 14.5684 13.1967L14.8593 13.2122ZM12.7301 11.5314C11.7138 10.1929 14.6414 11.7564 13.6088 10.3549C12.7397 9.65676 11.9046 11.1406 12.7301 11.5314ZM25.7726 18.6189C26.2388 17.7852 23.8482 17.4952 25.4586 18.3234C25.6069 18.3734 25.5733 18.6766 25.7726 18.6189Z" fill="white"/>
</g>
<defs>
<filter id="filter0_d_2_3744" x="2.29646" y="2.28559" width="51.4286" height="51.4286" filterUnits="userSpaceOnUse" color-interpolation-filters="sRGB">
<feFlood flood-opacity="0" result="BackgroundImageFix"/>
<feColorMatrix in="SourceAlpha" type="matrix" values="0 0 0 0 0 0 0 0 0 0 0 0 0 0 0 0 0 0 127 0" result="hardAlpha"/>
<feOffset/>
<feGaussianBlur stdDeviation="2.85714"/>
<feComposite in2="hardAlpha" operator="out"/>
<feColorMatrix type="matrix" values="0 0 0 0 0 0 0 0 0 0 0 0 0 0 0 0 0 0 0.25 0"/>
<feBlend mode="normal" in2="BackgroundImageFix" result="effect1_dropShadow_2_3744"/>
<feBlend mode="normal" in="SourceGraphic" in2="effect1_dropShadow_2_3744" result="shape"/>
</filter>
<linearGradient id="paint0_linear_2_3744" x1="28.0107" y1="-0.00012207" x2="28.0107" y2="55.9999" gradientUnits="userSpaceOnUse">
<stop stop-color="#0A2135"/>
<stop offset="1" stop-color="#041823"/>
</linearGradient>
</defs>
</svg>
