<svg width="57" height="56" viewBox="0 0 57 56" fill="none" xmlns="http://www.w3.org/2000/svg">
<g clip-path="url(#clip0_2_3174)">
<rect x="0.0107422" y="-6.10352e-05" width="56" height="56" rx="8" fill="url(#paint0_linear_2_3174)"/>
<g filter="url(#filter0_d_2_3174)">
<g clip-path="url(#clip1_2_3174)">
<path fill-rule="evenodd" clip-rule="evenodd" d="M13.0533 29.6325C13.1134 30.8712 14.3498 30.298 14.9098 29.9108C15.4413 29.5431 15.5968 29.8487 15.6434 29.1232C15.674 28.6463 15.7289 28.1693 15.7019 27.6905C14.8981 27.6176 14.0238 27.8092 13.3647 28.2884C13.0253 28.5353 12.3888 29.3232 13.0533 29.6325Z" fill="#F6D2A2" stroke="black" stroke-width="0.5" stroke-linecap="round"/>
<path fill-rule="evenodd" clip-rule="evenodd" d="M13.0532 29.6324C13.2332 29.5654 13.4239 29.5179 13.546 29.355L13.0532 29.6324Z" fill="#C6B198"/>
<path d="M13.0532 29.6324C13.2332 29.5654 13.4239 29.5179 13.546 29.355" stroke="black" stroke-width="0.5" stroke-linecap="round"/>
<path fill-rule="evenodd" clip-rule="evenodd" d="M15.9105 14.8754C11.1727 13.5419 14.6957 7.50914 18.5003 9.99048L15.9105 14.8754Z" fill="#6AD7E5" stroke="black" stroke-width="0.5" stroke-linecap="round"/>
<path fill-rule="evenodd" clip-rule="evenodd" d="M36.9609 9.53776C40.7111 6.90133 44.1 12.8496 39.7416 14.3462L36.9609 9.53776Z" fill="#6AD7E5" stroke="black" stroke-width="0.5" stroke-linecap="round"/>
<path fill-rule="evenodd" clip-rule="evenodd" d="M37.7674 44.8779C38.72 45.4678 40.4611 47.2516 39.0321 48.1165C37.6591 49.3747 36.8907 46.7354 35.6855 46.3697C36.2045 45.6642 36.8624 45.021 37.7674 44.8779Z" fill="#F6D2A2" stroke="black" stroke-width="0.5" stroke-linecap="round"/>
<path d="M39.0321 48.1164C38.8203 47.6948 38.7492 47.2027 38.3955 46.8629" stroke="black" stroke-width="0.5" stroke-linecap="round"/>
<path fill-rule="evenodd" clip-rule="evenodd" d="M20.7495 46.8937C19.6314 47.0669 19.0021 48.0765 18.0701 48.5892C17.1918 49.1134 16.8558 48.4214 16.7767 48.2809C16.639 48.2181 16.6505 48.3394 16.4381 48.1253C15.6239 46.8391 17.2864 45.899 18.1522 45.26C19.358 45.0161 20.1137 46.0624 20.7495 46.8937Z" fill="#F6D2A2" stroke="black" stroke-width="0.5" stroke-linecap="round"/>
<path d="M16.7769 48.2808C16.8194 47.7906 17.2078 47.4623 17.3927 47.0479" stroke="black" stroke-width="0.5" stroke-linecap="round"/>
<path fill-rule="evenodd" clip-rule="evenodd" d="M16.1085 13.2092C15.4834 12.8782 15.0249 12.4288 15.4072 11.7052C15.7612 11.0353 16.4188 11.108 17.0439 11.4389L16.1085 13.2092Z" fill="black"/>
<path fill-rule="evenodd" clip-rule="evenodd" d="M38.7538 12.58C39.3789 12.2491 39.8374 11.7996 39.4551 11.076C39.1011 10.4061 38.4435 10.4789 37.8184 10.8098L38.7538 12.58Z" fill="black"/>
<path fill-rule="evenodd" clip-rule="evenodd" d="M43.0567 29.4752C42.9966 30.7139 41.7603 30.1408 41.2003 29.7535C40.6687 29.3858 40.5133 29.6915 40.4666 28.9659C40.436 28.489 40.3811 28.0121 40.4081 27.5333C41.212 27.4604 42.0863 27.6519 42.7453 28.1311C43.0847 28.378 43.7212 29.1659 43.0567 29.4752Z" fill="#F6D2A2" stroke="black" stroke-width="0.5" stroke-linecap="round"/>
<path fill-rule="evenodd" clip-rule="evenodd" d="M43.0567 29.4752C42.8768 29.4081 42.6861 29.3606 42.564 29.1977L43.0567 29.4752Z" fill="#C6B198"/>
<path d="M43.0567 29.4752C42.8768 29.4081 42.6861 29.3606 42.564 29.1977" stroke="black" stroke-width="0.5" stroke-linecap="round"/>
<path fill-rule="evenodd" clip-rule="evenodd" d="M27.5803 7.03217C32.3235 7.03217 36.7699 7.71111 39.0878 12.2722C41.1684 17.3847 40.4285 22.8976 40.7458 28.3007C41.0183 32.9401 41.6224 38.3001 39.4721 42.5994C37.2099 47.1226 31.5572 48.2605 26.9 48.0938C23.242 47.9628 18.823 46.7683 16.7584 43.4231C14.3362 39.4987 15.483 33.6634 15.6589 29.2966C15.8673 24.1241 14.2591 18.9357 15.9568 13.8742C17.7181 8.62356 22.4681 7.43695 27.5803 7.03217Z" fill="#6AD7E5" stroke="black" stroke-width="0.5" stroke-linecap="round"/>
<path fill-rule="evenodd" clip-rule="evenodd" d="M28.4175 13.4052C29.2691 18.3601 37.3611 17.0501 36.1988 12.0528C35.1566 7.57155 28.1345 8.81195 28.4175 13.4052Z" fill="white" stroke="black" stroke-width="0.5" stroke-linecap="round"/>
<path fill-rule="evenodd" clip-rule="evenodd" d="M18.7475 14.2066C19.8513 18.5204 26.7515 17.4159 26.4914 13.0889C26.1798 7.90651 17.6922 8.90649 18.7475 14.2066Z" fill="white" stroke="black" stroke-width="0.5" stroke-linecap="round"/>
<path fill-rule="evenodd" clip-rule="evenodd" d="M29.3937 19.351C29.3973 19.9952 29.5399 20.7184 29.4182 21.4037C29.2539 21.7146 28.9316 21.7474 28.6538 21.873C28.2695 21.8127 27.9464 21.5602 27.7924 21.2004C27.6937 20.4182 27.8291 19.6609 27.854 18.8784L29.3937 19.351Z" fill="white" stroke="black" stroke-width="0.5" stroke-linecap="round"/>
<path d="M20.651 14.7663C21.2946 14.7663 21.8162 14.2007 21.8162 13.5031C21.8162 12.8054 21.2946 12.2399 20.651 12.2399C20.0075 12.2399 19.4858 12.8054 19.4858 13.5031C19.4858 14.2007 20.0075 14.7663 20.651 14.7663Z" fill="black"/>
<path d="M21.1809 14.1092C21.3327 14.1092 21.4556 13.9655 21.4556 13.7882C21.4556 13.6109 21.3327 13.4672 21.1809 13.4672C21.0292 13.4672 20.9062 13.6109 20.9062 13.7882C20.9062 13.9655 21.0292 14.1092 21.1809 14.1092Z" fill="white"/>
<path d="M30.4134 14.4517C31.0462 14.4517 31.5591 13.8861 31.5591 13.1885C31.5591 12.4908 31.0462 11.9253 30.4134 11.9253C29.7806 11.9253 29.2676 12.4908 29.2676 13.1885C29.2676 13.8861 29.7806 14.4517 30.4134 14.4517Z" fill="black"/>
<path d="M30.9347 13.7946C31.0839 13.7946 31.2048 13.6509 31.2048 13.4736C31.2048 13.2963 31.0839 13.1525 30.9347 13.1525C30.7855 13.1525 30.6646 13.2963 30.6646 13.4736C30.6646 13.6509 30.7855 13.7946 30.9347 13.7946Z" fill="white"/>
<path fill-rule="evenodd" clip-rule="evenodd" d="M26.0641 19.2809C25.5557 20.514 26.3476 22.98 27.727 21.1611C27.6283 20.3789 27.7637 19.6216 27.7886 18.8391L26.0641 19.2809Z" fill="white" stroke="black" stroke-width="0.5" stroke-linecap="round"/>
<path fill-rule="evenodd" clip-rule="evenodd" d="M26.2383 16.906C25.2907 16.9869 24.5162 18.1145 25.0089 19.0066C25.6613 20.1881 27.1175 18.9021 28.0245 19.0225C29.0684 19.0439 29.9237 20.1273 30.7621 19.2184C31.6945 18.2075 30.3606 17.2229 29.3181 16.7827L26.2383 16.906Z" fill="#F6D2A2" stroke="#231F20" stroke-width="0.5" stroke-linecap="round"/>
<path fill-rule="evenodd" clip-rule="evenodd" d="M26.1191 16.8566C26.0489 15.2136 29.1787 15.0082 29.5483 16.3835C29.917 17.7555 26.2732 18.0742 26.1191 16.8566Z" fill="black"/>
</g>
</g>
</g>
<rect x="1.06074" y="1.04994" width="53.9" height="53.9" rx="6.95" stroke="white" stroke-opacity="0.15" stroke-width="2.1"/>
<defs>
<filter id="filter0_d_2_3174" x="0.296457" y="0.285715" width="55.4286" height="55.4286" filterUnits="userSpaceOnUse" color-interpolation-filters="sRGB">
<feFlood flood-opacity="0" result="BackgroundImageFix"/>
<feColorMatrix in="SourceAlpha" type="matrix" values="0 0 0 0 0 0 0 0 0 0 0 0 0 0 0 0 0 0 127 0" result="hardAlpha"/>
<feOffset/>
<feGaussianBlur stdDeviation="2.85714"/>
<feComposite in2="hardAlpha" operator="out"/>
<feColorMatrix type="matrix" values="0 0 0 0 0 0 0 0 0 0 0 0 0 0 0 0 0 0 0.25 0"/>
<feBlend mode="normal" in2="BackgroundImageFix" result="effect1_dropShadow_2_3174"/>
<feBlend mode="normal" in="SourceGraphic" in2="effect1_dropShadow_2_3174" result="shape"/>
</filter>
<linearGradient id="paint0_linear_2_3174" x1="28.0107" y1="-6.10352e-05" x2="28.0107" y2="55.9999" gradientUnits="userSpaceOnUse">
<stop stop-color="#152A2D"/>
<stop offset="1" stop-color="#102022"/>
</linearGradient>
<clipPath id="clip0_2_3174">
<rect x="0.0107422" y="-6.10352e-05" width="56" height="56" rx="8" fill="white"/>
</clipPath>
<clipPath id="clip1_2_3174">
<rect width="31.5857" height="44" fill="white" transform="translate(12.2178 6)"/>
</clipPath>
</defs>
</svg>
