<svg width="57" height="56" viewBox="0 0 57 56" fill="none" xmlns="http://www.w3.org/2000/svg">
<rect x="0.0107422" y="-0.000183105" width="56" height="56" rx="8.4" fill="url(#paint0_linear_3_765)"/>
<g filter="url(#filter0_d_3_765)">
<path d="M45.8265 14.9351C43.3254 12.3838 39.4903 12.3838 36.9891 14.765C36.8224 14.9351 36.8224 15.1052 36.8224 15.2753C36.8224 15.4454 36.8224 15.6155 36.9891 15.7856L37.8229 16.636C37.9896 16.8061 38.3231 16.8061 38.6566 16.636C39.3235 16.1258 39.9905 15.9557 40.8242 15.9557C42.8251 15.9557 44.4926 17.6566 44.4926 19.6976C44.4926 20.7182 44.1591 21.5686 43.4921 22.249C38.4898 27.3516 31.6534 13.0641 16.4798 20.378C15.4793 20.8882 14.9791 22.0789 15.4793 23.0994V23.2695L17.9805 27.8619C18.4807 28.8824 19.8146 29.2226 20.8151 28.7123L21.9823 28.032C23.3162 27.1815 24.4834 26.3311 25.6506 25.3106C25.8174 25.1405 26.3176 25.1405 26.4844 25.3106C26.8178 25.4806 26.8178 25.8208 26.6511 26.161L26.4844 26.3311C25.3172 27.3516 23.9832 28.3722 22.6493 29.2226L21.4821 29.7329C20.9818 30.073 20.4816 30.2431 19.8146 30.2431C18.6474 30.2431 17.4802 29.5628 16.98 28.5422L14.4789 24.1199C9.81007 27.5217 6.8087 34.1552 8.47613 42.4895C8.47613 42.8297 8.80962 42.9998 9.1431 42.9998H11.9777C12.3112 42.9998 12.478 42.8297 12.6447 42.4895C12.9782 40.1083 14.9791 38.5775 17.3135 38.9177C19.1477 39.0878 20.6484 40.6186 20.8151 42.4895C20.8151 42.8297 21.1486 42.9998 21.4821 42.9998H24.15C24.4834 42.9998 24.6502 42.8297 24.8169 42.4895C25.1504 40.1083 27.1513 38.5775 29.4857 38.9177C31.3199 39.0878 32.8206 40.6186 32.9873 42.4895C32.9873 42.8297 33.3208 42.9998 33.6543 42.9998H36.3222C36.6557 42.9998 36.9891 42.6596 36.9891 42.3195C36.9891 38.4074 38.1563 33.9851 40.991 31.7739C50.8288 23.9498 48.1609 17.3164 45.8265 14.9351ZM35.4885 26.6713L33.4875 25.6507C33.4875 24.9704 33.9878 24.4601 34.6547 24.4601C35.3217 24.4601 35.8219 24.9704 35.8219 25.6507C35.9887 26.161 35.8219 26.5012 35.4885 26.6713Z" fill="#7DC1D1"/>
</g>
<rect x="1.06074" y="1.04982" width="53.9" height="53.9" rx="7.35" stroke="white" stroke-opacity="0.15" stroke-width="2.1"/>
<defs>
<filter id="filter0_d_3_765" x="2.29646" y="2.28553" width="51.4286" height="51.4286" filterUnits="userSpaceOnUse" color-interpolation-filters="sRGB">
<feFlood flood-opacity="0" result="BackgroundImageFix"/>
<feColorMatrix in="SourceAlpha" type="matrix" values="0 0 0 0 0 0 0 0 0 0 0 0 0 0 0 0 0 0 127 0" result="hardAlpha"/>
<feOffset/>
<feGaussianBlur stdDeviation="2.85714"/>
<feComposite in2="hardAlpha" operator="out"/>
<feColorMatrix type="matrix" values="0 0 0 0 0 0 0 0 0 0 0 0 0 0 0 0 0 0 0.25 0"/>
<feBlend mode="normal" in2="BackgroundImageFix" result="effect1_dropShadow_3_765"/>
<feBlend mode="normal" in="SourceGraphic" in2="effect1_dropShadow_3_765" result="shape"/>
</filter>
<linearGradient id="paint0_linear_3_765" x1="28.0107" y1="-0.000183105" x2="28.0107" y2="55.9998" gradientUnits="userSpaceOnUse">
<stop stop-color="#19282C"/>
<stop offset="1" stop-color="#121C1F"/>
</linearGradient>
</defs>
</svg>
