<svg width="57" height="56" viewBox="0 0 57 56" fill="none" xmlns="http://www.w3.org/2000/svg">
<g clip-path="url(#clip0_40_460)">
<rect x="0.0107422" y="-0.000183105" width="56" height="56" rx="8.4" fill="url(#paint0_linear_40_460)"/>
<g filter="url(#filter0_d_40_460)">
<path d="M13.6633 46.6052C22.1871 48.0039 29.9647 47.6999 35.0648 46.7929C37.6084 46.3406 39.5085 45.7344 40.4995 45.1005C40.7488 44.941 40.9491 44.7746 41.0879 44.6011C41.227 44.4273 41.3119 44.2363 41.308 44.0339C41.3003 43.6352 40.9601 43.3181 40.4287 43.0681L40.3836 43.0307H40.3192H40.3085L40.2525 43.2898C40.2052 43.3467 40.2052 43.3467 40.2051 43.3466L40.2055 43.347L40.2116 43.3525C40.2175 43.3579 40.2267 43.3665 40.238 43.3782C40.2608 43.4017 40.2913 43.4363 40.3212 43.4796C40.3825 43.5683 40.4315 43.6792 40.4254 43.7995C40.4196 43.9131 40.3627 44.0688 40.1451 44.2493C39.9238 44.4328 39.5442 44.6343 38.9154 44.8277C36.5571 45.5363 31.5798 46.002 26.6444 46.0555C24.1801 46.0822 21.7336 46.0062 19.6387 45.8077C17.5379 45.6087 15.81 45.2881 14.7704 44.8349L14.7696 44.8345C14.5945 44.7592 14.51 44.6903 14.4743 44.6411C14.4475 44.6043 14.4466 44.5791 14.4601 44.5447C14.479 44.4969 14.53 44.4303 14.6301 44.3497C14.7274 44.2713 14.8571 44.1909 15.0107 44.1113C15.6303 43.7903 16.5511 43.5271 16.991 43.458L16.9911 43.4584L17.0036 43.4556C17.4596 43.35 17.809 43.2976 18.0428 43.2716C18.1597 43.2585 18.2478 43.2521 18.3058 43.2489C18.3348 43.2474 18.3562 43.2466 18.3701 43.2462L18.3851 43.2459L18.3883 43.2459L18.3885 43.2459H18.3886H18.3887H18.3887H18.3888H18.9557L18.4908 42.9209C18.2423 42.7473 17.8752 42.6755 17.4677 42.6634C17.0535 42.6512 16.5687 42.7001 16.0606 42.7931C15.0446 42.9792 13.9124 43.3463 13.0249 43.7833C12.5817 44.0016 12.192 44.2409 11.9075 44.4891C11.6298 44.7313 11.4195 45.0105 11.4048 45.3119C11.389 45.6349 11.5972 45.901 11.9612 46.1059C12.3249 46.3106 12.882 46.4789 13.6633 46.6052ZM13.6633 46.6052C13.6632 46.6052 13.6632 46.6052 13.6631 46.6051L13.692 46.4289L13.6636 46.6052C13.6635 46.6052 13.6634 46.6052 13.6633 46.6052ZM23.1195 49.4594C20.6848 49.312 19.2065 49.0315 18.3294 48.7823C17.8806 48.6547 17.5878 48.535 17.4041 48.4446C17.3123 48.3993 17.2475 48.3613 17.2041 48.3333C17.1824 48.3192 17.166 48.3076 17.1542 48.2989C17.1483 48.2945 17.1435 48.2908 17.1399 48.2879L17.1351 48.284L17.1333 48.2825L17.1326 48.2819L17.1322 48.2816C17.1321 48.2814 17.1319 48.2813 17.2484 48.1459L17.1319 48.2813L16.6497 47.8664L17.2774 47.9697C22.0266 48.7514 30.1187 48.8958 36.645 47.6837M23.1195 49.4594L36.6776 47.8593M23.1195 49.4594V49.4597L23.2865 49.4706C27.1383 49.7216 32.0089 49.6501 35.9568 49.0571C37.9292 48.7608 39.6832 48.3327 40.9666 47.743C42.2386 47.1585 43.1101 46.3853 43.1891 45.3687L42.8474 45.2895M23.1195 49.4594L42.9337 45.7473C42.9434 45.7375 42.9527 45.7279 42.9617 45.7184C43.0404 45.6354 43.0921 45.5667 43.1251 45.5158C43.1417 45.4903 43.1536 45.4693 43.1618 45.4533C43.166 45.4453 43.1692 45.4385 43.1717 45.4331L43.1749 45.4259L43.1761 45.423L43.1766 45.4218L43.1769 45.4212C43.177 45.421 43.1771 45.4207 43.0111 45.3548M36.645 47.6837L36.6776 47.8593M36.645 47.6837C36.645 47.6837 36.645 47.6837 36.645 47.6837L36.6776 47.8593M36.645 47.6837C39.5162 47.1501 41.0784 46.529 41.9176 46.0502C42.3367 45.8111 42.5733 45.6088 42.7026 45.4725C42.7672 45.4045 42.8051 45.3528 42.8256 45.3212C42.8359 45.3054 42.8419 45.2945 42.8447 45.289L42.8468 45.2848C42.8468 45.2848 42.8467 45.2852 42.8464 45.2858L42.8458 45.2871L42.8455 45.288L42.8453 45.2884C42.8453 45.2885 42.8453 45.2886 42.8474 45.2895M36.6776 47.8593C40.8283 47.0879 42.2852 46.129 42.7758 45.6525C42.8057 45.5506 42.8248 45.4468 42.8331 45.341L43.0111 45.3548M42.8474 45.2895L42.8451 45.2889L43.0111 45.3548M42.8474 45.2895C42.8544 45.2925 42.8843 45.3045 43.0111 45.3548M21.8356 39.8567L21.8357 39.8566L21.8357 39.8565L21.8358 39.8565L22.3767 39.5257H21.7424H21.7411H21.7162L21.6922 39.5325C20.8651 39.7677 20.2842 40.0392 19.9328 40.3389C19.7557 40.49 19.6293 40.6546 19.5646 40.8329C19.4987 41.0144 19.501 41.1988 19.5633 41.3764C19.6839 41.72 20.0221 42.0221 20.4767 42.2784C20.9385 42.5387 21.5523 42.7695 22.2757 42.9553C25.1651 43.6975 29.9211 43.7511 34.1242 41.9443L34.5341 41.7681L34.1158 41.6128C33.3087 41.3132 32.5328 40.9349 31.7991 40.4831L31.7398 40.4466L31.6715 40.4598C27.9879 41.1718 26.2263 41.2415 22.9039 40.8156L22.9039 40.8155L22.8995 40.8151C22.2113 40.7441 21.8234 40.6305 21.6197 40.5151C21.5199 40.4586 21.4761 40.4081 21.4573 40.3737C21.4404 40.3428 21.4374 40.3135 21.4449 40.2791C21.4632 40.1948 21.5429 40.093 21.6487 39.9985C21.6976 39.9548 21.7453 39.9187 21.7808 39.8935C21.7984 39.881 21.8128 39.8714 21.8224 39.8651L21.8331 39.8582L21.8354 39.8567L21.8356 39.8567ZM20.8554 35.0529V34.6918L20.5885 34.8957C19.6996 35.199 19.0745 35.5125 18.6928 35.8314C18.3059 36.1545 18.1301 36.5221 18.2676 36.9001C18.3937 37.2463 18.7639 37.5284 19.2559 37.7573C19.7584 37.9911 20.4312 38.1891 21.2309 38.3427C24.4272 38.9565 29.7762 38.8829 34.8202 37.3722L35.3568 37.2115L34.8262 37.032C34.2079 36.8229 33.647 36.4706 33.1889 36.0034L33.1209 35.934L33.0257 35.9534C28.1348 36.9495 25.3068 36.8788 21.6911 36.5226C21.0059 36.4515 20.6372 36.3165 20.4537 36.1786C20.3656 36.1124 20.3253 36.0495 20.3075 35.996C20.2894 35.9419 20.2891 35.8818 20.3069 35.8136C20.3443 35.6699 20.4547 35.5178 20.5725 35.3918C20.6292 35.3312 20.6834 35.2812 20.7232 35.2464C20.7382 35.2334 20.751 35.2226 20.7611 35.2143L20.8554 35.1823V35.0543V35.0529ZM22.6722 30.1064L22.6089 29.9791L22.4873 30.0083L22.4871 30.0082C22.4624 30.007 22.4264 30.0055 22.3796 30.0043C22.2859 30.0018 22.149 30.0004 21.9735 30.0043C21.6227 30.0122 21.1176 30.0416 20.4962 30.1275C19.2537 30.2994 17.5448 30.6972 15.6748 31.6015L15.6748 31.6015L15.6734 31.6022C15.3942 31.7403 15.1798 31.8797 15.0348 32.0232C14.8903 32.1662 14.7962 32.3327 14.808 32.5182C14.8197 32.7024 14.9326 32.8518 15.0789 32.9692C15.2263 33.0874 15.4291 33.191 15.6708 33.2833C16.6331 33.6508 18.3925 33.9042 20.5105 34.025C24.7557 34.2672 30.5408 33.9812 34.5146 32.9368L34.5418 32.9296L34.5655 32.9145C34.9486 32.6695 35.422 32.4225 35.8026 32.2356C35.9924 32.1425 36.1578 32.0649 36.2758 32.0106C36.3347 31.9834 36.3818 31.9621 36.414 31.9477L36.4508 31.9312L36.4602 31.927L36.4625 31.926L36.463 31.9258L36.4631 31.9257L36.4632 31.9257L36.4631 31.9257L36.36 31.5865L36.3913 31.7623L36.3599 31.5865L36.3598 31.5865L36.3594 31.5866L36.3577 31.5869L36.3509 31.5881L36.3237 31.5928L36.217 31.6114C36.1235 31.6275 35.9862 31.6508 35.8114 31.6797C35.4617 31.7375 34.962 31.8177 34.3624 31.9067C33.1633 32.0849 31.5659 32.2985 29.9701 32.4414C26.0567 32.7266 21.8752 32.7973 19.7602 32.5134L19.7593 32.5133C19.1409 32.4335 18.7369 32.3365 18.4953 32.2339C18.3742 32.1824 18.3072 32.135 18.2734 32.0987C18.2441 32.0674 18.2457 32.0519 18.2463 32.0459L18.2463 32.0458C18.2477 32.0315 18.2582 31.9976 18.3065 31.9431C18.3536 31.89 18.4258 31.8298 18.5245 31.7642C18.7216 31.6331 18.9995 31.4968 19.3247 31.362C19.9733 31.0932 20.7793 30.8426 21.4268 30.6586C21.7498 30.5668 22.032 30.492 22.2332 30.4401C22.3339 30.4141 22.4142 30.394 22.4694 30.3803L22.5193 30.368L22.8125 30.3887L22.6735 30.1091L22.6722 30.1064ZM37.1731 30.6158L37.0132 30.5363L36.7754 31.0145L37.2526 30.7757L37.2526 30.7757L37.2528 30.7756L37.2529 30.7756L37.253 30.7756L37.253 30.7755L37.2539 30.7751L37.2616 30.7715C37.269 30.768 37.281 30.7626 37.2978 30.7555C37.3312 30.7413 37.3836 30.7202 37.4559 30.6946C37.6002 30.6434 37.8239 30.5739 38.1354 30.504C39.3311 30.2724 40.7891 31.0982 41.0189 32.4434C41.2458 33.7713 40.2893 35.7445 36.3475 37.8074H36.2784L36.229 37.9059C36.1982 37.9672 36.1683 38.0119 36.1473 38.04C36.1368 38.0541 36.1285 38.064 36.1235 38.0697L36.1187 38.0751L36.1186 38.0752C36.1183 38.0756 36.1182 38.0757 36.1183 38.0755L35.6578 38.5386L36.2912 38.3731C38.9786 37.6709 40.7638 36.689 41.8425 35.6244C42.9236 34.5574 43.2977 33.4024 43.1406 32.3779C42.8266 30.3287 40.434 28.9545 37.8297 29.8739C37.5437 29.9575 37.3409 30.1216 37.2108 30.2624C37.1452 30.3335 37.097 30.3996 37.0648 30.4488C37.0487 30.4735 37.0364 30.4941 37.0279 30.5091C37.0236 30.5166 37.0203 30.5227 37.0179 30.5273L37.0149 30.5331L37.0139 30.535L37.0135 30.5357L37.0134 30.536L37.0133 30.5362C37.0133 30.5363 37.0132 30.5363 37.1731 30.6158ZM17.8099 48.2331C17.7076 48.1925 17.626 48.1557 17.5619 48.1241C17.4814 48.0845 17.4288 48.0533 17.398 48.0334C17.3826 48.0234 17.3727 48.0163 17.3674 48.0124L17.3631 48.0091L17.8099 48.2331Z" fill="#4E7896" stroke="#4E7896" stroke-width="0.357143"/>
<path d="M31.5645 6.57135L31.6921 6.44644L31.2309 5.97532L31.3913 6.61478C31.827 8.35277 31.6601 9.77642 31.1272 11.006C30.5922 12.2402 29.6833 13.2909 28.615 14.2712C27.9009 14.9264 27.1259 15.5415 26.3491 16.158C25.9595 16.4673 25.5694 16.7769 25.1863 17.0921C24.0476 18.0291 22.9804 19.0087 22.2356 20.1418C21.7166 20.9244 21.5141 21.7279 21.5737 22.5502C21.633 23.3687 21.9512 24.1943 22.4538 25.0277C23.4566 26.6903 25.2193 28.4239 27.2467 30.2477L27.5297 30.0433C27.1673 29.2147 26.6079 28.4104 26.0536 27.6136C25.9963 27.5311 25.9389 27.4486 25.8819 27.3663C25.2682 26.4803 24.6837 25.5975 24.3591 24.662C24.0371 23.7339 23.972 22.7566 24.3996 21.6768C24.8297 20.5907 25.7647 19.3844 27.4771 18.0176C31.808 14.5984 32.9008 11.7245 32.873 9.67276C32.8592 8.65079 32.5669 7.84725 32.2773 7.2986C32.1326 7.02436 31.9883 6.81347 31.8794 6.67024C31.8249 6.59859 31.7792 6.54378 31.7465 6.50632C31.7302 6.48759 31.7172 6.47319 31.7079 6.46319L31.6969 6.4515L31.6937 6.44813L31.6927 6.44708L31.6923 6.4467C31.6922 6.44656 31.6921 6.44644 31.5645 6.57135ZM29.1649 27.2261L29.1657 27.227C29.6593 27.7916 29.8642 28.3331 29.9043 28.8245C29.9445 29.3182 29.8194 29.776 29.629 30.1716C29.4385 30.5675 29.1852 30.8956 28.9779 31.1257C28.8746 31.2404 28.7835 31.3298 28.7188 31.3901C28.6864 31.4202 28.6607 31.443 28.6434 31.458L28.624 31.4747L28.6194 31.4785L28.6186 31.4792L28.6185 31.4792L28.6185 31.4793C28.6185 31.4793 28.6185 31.4793 28.619 31.4799L28.8133 31.7763L28.7314 31.6176C28.8133 31.7763 28.8134 31.7762 28.8135 31.7762L28.8138 31.776L28.8147 31.7755L28.818 31.7738L28.8301 31.7674C28.8406 31.7619 28.8559 31.7537 28.8755 31.743C28.9148 31.7215 28.9716 31.6899 29.0427 31.6486C29.1848 31.566 29.3845 31.4446 29.6163 31.2883C30.0789 30.9763 30.6737 30.5226 31.1935 29.9587C31.712 29.3961 32.1662 28.7127 32.3288 27.9411C32.4929 27.1621 32.3558 26.3111 31.724 25.4319C31.6223 25.2836 31.5224 25.1395 31.4249 24.9991C30.9877 24.3691 30.6011 23.8121 30.3412 23.2664C30.0276 22.6081 29.9105 21.9892 30.1199 21.3117C30.3321 20.6249 30.8878 19.8511 31.9837 18.9075C33.0779 17.9654 34.695 16.8672 37.0045 15.5277L36.8716 15.2L36.9149 15.3732C36.8716 15.2 36.8715 15.2 36.8713 15.2001L36.8707 15.2002L36.8685 15.2008L36.8602 15.2029L36.8282 15.2112C36.8002 15.2185 36.759 15.2294 36.7058 15.2439C36.5993 15.273 36.4446 15.3165 36.2504 15.3748C35.8621 15.4913 35.3157 15.6666 34.6821 15.9025C33.4166 16.3735 31.7955 17.0885 30.3905 18.0621C28.9891 19.0332 27.7779 20.2787 27.375 21.8189C26.9687 23.3722 27.3962 25.1752 29.1649 27.2261Z" fill="#F58219" stroke="#F58219" stroke-width="0.357143"/>
<path d="M39.9452 47.607C38.8136 47.607 37.8027 47.4271 36.9125 47.0672C36.0271 46.7026 35.3311 46.2102 34.8244 45.59C34.3226 44.965 34.0716 44.2595 34.0716 43.4735C34.0716 42.8722 34.216 42.3205 34.5048 41.8187C34.7937 41.3168 35.1843 40.9001 35.6767 40.5687C36.1739 40.2325 36.7279 40.017 37.3386 39.9223V39.8087C36.5385 39.6619 35.8827 39.2902 35.3713 38.6937C34.8647 38.0971 34.6114 37.3987 34.6114 36.5985C34.6114 35.8409 34.841 35.1662 35.3003 34.5743C35.7643 33.9825 36.3964 33.5161 37.1966 33.1752C38.0015 32.8343 38.9177 32.6638 39.9452 32.6638C40.9726 32.6638 41.8865 32.8343 42.6867 33.1752C43.4916 33.5161 44.1237 33.9825 44.583 34.5743C45.047 35.1662 45.279 35.8409 45.279 36.5985C45.279 37.4034 45.0209 38.1042 44.5048 38.7008C43.9935 39.2926 43.3424 39.6619 42.5517 39.8087V39.9223C43.1578 40.017 43.707 40.2325 44.1994 40.5687C44.6966 40.9001 45.0896 41.3168 45.3784 41.8187C45.672 42.3205 45.8188 42.8722 45.8188 43.4735C45.8188 44.2595 45.5654 44.965 45.0588 45.59C44.5522 46.2102 43.8562 46.7026 42.9707 47.0672C42.0901 47.4271 41.0815 47.607 39.9452 47.607ZM39.9452 45.1141C40.3761 45.1141 40.7548 45.0336 41.0815 44.8726C41.4082 44.7069 41.6639 44.4773 41.8486 44.1837C42.038 43.8902 42.1327 43.5587 42.1327 43.1894C42.1327 42.8106 42.038 42.4744 41.8486 42.1809C41.6592 41.8873 41.3988 41.6577 41.0673 41.492C40.7406 41.3215 40.3666 41.2363 39.9452 41.2363C39.5285 41.2363 39.1545 41.3215 38.823 41.492C38.4916 41.6577 38.2312 41.8873 38.0418 42.1809C37.8524 42.4744 37.7577 42.8106 37.7577 43.1894C37.7577 43.5587 37.85 43.8902 38.0347 44.1837C38.2241 44.4725 38.4821 44.6998 38.8088 44.8655C39.1403 45.0312 39.519 45.1141 39.9452 45.1141ZM39.9452 38.7576C40.3145 38.7576 40.6412 38.6818 40.9253 38.5303C41.2141 38.3788 41.439 38.1681 41.6 37.8982C41.7657 37.6283 41.8486 37.3229 41.8486 36.982C41.8486 36.6411 41.7657 36.3404 41.6 36.08C41.439 35.8196 41.2165 35.616 40.9324 35.4692C40.6483 35.3177 40.3192 35.242 39.9452 35.242C39.5759 35.242 39.2468 35.3177 38.958 35.4692C38.6691 35.616 38.4442 35.8196 38.2833 36.08C38.1223 36.3404 38.0418 36.6411 38.0418 36.982C38.0418 37.3229 38.1223 37.6283 38.2833 37.8982C38.449 38.1634 38.6762 38.3741 38.9651 38.5303C39.2539 38.6818 39.5806 38.7576 39.9452 38.7576Z" fill="#F58219"/>
<path d="M36.9125 47.0672L36.6405 47.7277L36.6448 47.7295L36.9125 47.0672ZM34.8244 45.59L34.2675 46.0372L34.2712 46.0418L34.8244 45.59ZM34.5048 41.8187L35.1239 42.1749L34.5048 41.8187ZM35.6767 40.5687L36.0756 41.1612L36.0768 41.1604L35.6767 40.5687ZM37.3386 39.9223L37.4481 40.6282L38.0529 40.5344V39.9223H37.3386ZM37.3386 39.8087H38.0529V39.2135L37.4675 39.1061L37.3386 39.8087ZM35.3713 38.6937L34.8269 39.156L34.829 39.1585L35.3713 38.6937ZM35.3003 34.5743L34.7382 34.1336L34.736 34.1364L35.3003 34.5743ZM37.1966 33.1752L36.918 32.5175L36.9166 32.5181L37.1966 33.1752ZM42.6867 33.1752L42.4067 33.8323L42.4081 33.8329L42.6867 33.1752ZM44.583 34.5743L44.0186 35.0122L44.0208 35.015L44.583 34.5743ZM44.5048 38.7008L43.9646 38.2334L43.9643 38.2338L44.5048 38.7008ZM42.5517 39.8087L42.4213 39.1064L41.8374 39.2148V39.8087H42.5517ZM42.5517 39.9223H41.8374V40.5337L42.4414 40.6281L42.5517 39.9223ZM44.1994 40.5687L43.7967 41.1586L43.8032 41.163L44.1994 40.5687ZM45.3784 41.8187L44.7593 42.1749L44.7619 42.1793L45.3784 41.8187ZM45.0588 45.59L45.612 46.0418L45.6137 46.0398L45.0588 45.59ZM42.9707 47.0672L43.2409 47.7285L43.2427 47.7277L42.9707 47.0672ZM41.0815 44.8726L41.3973 45.5134L41.4047 45.5097L41.0815 44.8726ZM41.8486 44.1837L41.2483 43.7965L41.244 43.8034L41.8486 44.1837ZM41.8486 42.1809L41.2484 42.5681V42.5681L41.8486 42.1809ZM41.0673 41.492L40.7369 42.1253L40.7479 42.1308L41.0673 41.492ZM38.823 41.492L39.1425 42.1309L39.1497 42.1272L38.823 41.492ZM38.0418 42.1809L37.4416 41.7936V41.7936L38.0418 42.1809ZM38.0347 44.1837L37.4299 44.5641L37.4374 44.5754L38.0347 44.1837ZM38.8088 44.8655L38.4857 45.5026L38.4894 45.5044L38.8088 44.8655ZM40.9253 38.5303L40.5935 37.8978L40.5892 37.9001L40.9253 38.5303ZM41.6 37.8982L40.9913 37.5244L40.9866 37.5323L41.6 37.8982ZM41.6 36.08L40.9924 36.4556L40.9974 36.4635L41.6 36.08ZM40.9324 35.4692L40.5962 36.0995L40.6045 36.1038L40.9324 35.4692ZM38.958 35.4692L39.2816 36.1061L39.2898 36.1018L38.958 35.4692ZM38.2833 36.08L38.8908 36.4556L38.2833 36.08ZM38.2833 37.8982L37.6698 38.2641L37.6736 38.2705L37.6775 38.2768L38.2833 37.8982ZM38.9651 38.5303L38.6252 39.1586L38.6332 39.1628L38.9651 38.5303ZM39.9452 46.8927C38.8892 46.8927 37.9716 46.7249 37.1802 46.405L36.6448 47.7295C37.6338 48.1292 38.7379 48.3213 39.9452 48.3213V46.8927ZM37.1845 46.4067C36.3873 46.0785 35.7959 45.6502 35.3776 45.1381L34.2712 46.0418C34.8662 46.7703 35.6669 47.3268 36.6405 47.7277L37.1845 46.4067ZM35.3814 45.1427C34.9791 44.6418 34.7859 44.0934 34.7859 43.4735H33.3573C33.3573 44.4256 33.666 45.2881 34.2675 46.0372L35.3814 45.1427ZM34.7859 43.4735C34.7859 42.9922 34.8999 42.5642 35.1239 42.1749L33.8858 41.4624C33.5321 42.0769 33.3573 42.7521 33.3573 43.4735H34.7859ZM35.1239 42.1749C35.357 41.77 35.6713 41.4333 36.0756 41.1612L35.2779 39.9761C34.6973 40.3669 34.2304 40.8635 33.8858 41.4624L35.1239 42.1749ZM36.0768 41.1604C36.484 40.885 36.9382 40.7073 37.4481 40.6282L37.2292 39.2165C36.5175 39.3268 35.8637 39.58 35.2766 39.9769L36.0768 41.1604ZM38.0529 39.9223V39.8087H36.6244V39.9223H38.0529ZM37.4675 39.1061C36.8221 38.9878 36.3145 38.6965 35.9136 38.2288L34.829 39.1585C35.4509 39.884 36.2548 40.3361 37.2098 40.5113L37.4675 39.1061ZM35.9158 38.2313C35.5214 37.7669 35.3257 37.2334 35.3257 36.5985H33.8971C33.8971 37.5639 34.2079 38.4272 34.8269 39.156L35.9158 38.2313ZM35.3257 36.5985C35.3257 35.9975 35.5037 35.4773 35.8646 35.0122L34.736 34.1364C34.1783 34.8551 33.8971 35.6843 33.8971 36.5985H35.3257ZM35.8624 35.015C36.2412 34.5319 36.7697 34.1335 37.4766 33.8323L36.9166 32.5181C36.0231 32.8987 35.2874 33.4331 34.7382 34.1336L35.8624 35.015ZM37.4752 33.8329C38.1779 33.5353 38.9969 33.3781 39.9452 33.3781V31.9495C38.8386 31.9495 37.8251 32.1333 36.918 32.5175L37.4752 33.8329ZM39.9452 33.3781C40.8936 33.3781 41.7096 33.5353 42.4067 33.8323L42.9666 32.5181C42.0634 32.1332 41.0517 31.9495 39.9452 31.9495V33.3781ZM42.4081 33.8329C43.1194 34.1342 43.6459 34.5319 44.0187 35.0122L45.1473 34.1364C44.6015 33.4331 43.8637 32.898 42.9652 32.5175L42.4081 33.8329ZM44.0208 35.015C44.3855 35.4802 44.5647 35.9994 44.5647 36.5985H45.9933C45.9933 35.6824 45.7085 34.8522 45.1451 34.1336L44.0208 35.015ZM44.5647 36.5985C44.5647 37.2356 44.366 37.7695 43.9646 38.2334L45.045 39.1681C45.6759 38.4388 45.9933 37.5712 45.9933 36.5985H44.5647ZM43.9643 38.2338C43.5622 38.6992 43.0575 38.9883 42.4213 39.1064L42.6821 40.511C43.6274 40.3355 44.4247 39.886 45.0453 39.1677L43.9643 38.2338ZM41.8374 39.8087V39.9223H43.266V39.8087H41.8374ZM42.4414 40.6281C42.9457 40.7069 43.3945 40.884 43.7967 41.1586L44.6022 39.9787C44.0195 39.581 43.3698 39.3272 42.662 39.2166L42.4414 40.6281ZM43.8032 41.163C44.2117 41.4353 44.5272 41.7716 44.7593 42.1749L45.9975 41.4624C45.652 40.8619 45.1815 40.3649 44.5957 39.9743L43.8032 41.163ZM44.7619 42.1793C44.9892 42.5679 45.1045 42.9944 45.1045 43.4735H46.533C46.533 42.7499 46.3548 42.0732 45.995 41.458L44.7619 42.1793ZM45.1045 43.4735C45.1045 44.0915 44.9101 44.6391 44.5039 45.1402L45.6137 46.0398C46.2208 45.2908 46.533 44.4274 46.533 43.4735H45.1045ZM44.5056 45.1381C44.0873 45.6502 43.496 46.0785 42.6988 46.4067L43.2427 47.7277C44.2164 47.3268 45.017 46.7703 45.612 46.0418L44.5056 45.1381ZM42.7006 46.406C41.9206 46.7247 41.0065 46.8927 39.9452 46.8927V48.3213C41.1566 48.3213 42.2595 48.1294 43.2409 47.7285L42.7006 46.406ZM39.9452 45.8284C40.4656 45.8284 40.9559 45.7308 41.3973 45.5134L40.7658 44.2319C40.5537 44.3364 40.2865 44.3998 39.9452 44.3998V45.8284ZM41.4047 45.5097C41.8399 45.2889 42.1958 44.9733 42.4532 44.564L41.244 43.8034C41.1321 43.9812 40.9766 44.125 40.7584 44.2356L41.4047 45.5097ZM42.4488 44.5709C42.717 44.1552 42.847 43.6878 42.847 43.1894H41.4184C41.4184 43.4296 41.359 43.6251 41.2484 43.7965L42.4488 44.5709ZM42.847 43.1894C42.847 42.6853 42.7189 42.2124 42.4488 41.7936L41.2484 42.5681C41.357 42.7365 41.4184 42.9359 41.4184 43.1894H42.847ZM42.4488 41.7936C42.1858 41.386 41.8254 41.0724 41.3868 40.8531L40.7479 42.1308C40.9721 42.2429 41.1326 42.3886 41.2484 42.5681L42.4488 41.7936ZM41.3977 40.8587C40.9552 40.6278 40.465 40.522 39.9452 40.522V41.9506C40.2682 41.9506 40.526 42.0152 40.7369 42.1252L41.3977 40.8587ZM39.9452 40.522C39.4285 40.522 38.9403 40.6284 38.4963 40.8567L39.1497 42.1272C39.3687 42.0145 39.6286 41.9506 39.9452 41.9506V40.522ZM38.5036 40.8531C38.0649 41.0724 37.7046 41.386 37.4416 41.7936L38.642 42.5681C38.7578 42.3886 38.9182 42.2429 39.1425 42.1308L38.5036 40.8531ZM37.4416 41.7936C37.1714 42.2124 37.0434 42.6853 37.0434 43.1894H38.472C38.472 42.9359 38.5333 42.7365 38.642 42.5681L37.4416 41.7936ZM37.0434 43.1894C37.0434 43.6842 37.169 44.1491 37.4301 44.564L38.6393 43.8034C38.531 43.6312 38.472 43.4333 38.472 43.1894H37.0434ZM37.4374 44.5754C37.6993 44.9749 38.0547 45.2839 38.4857 45.5025L39.1319 44.2285C38.9095 44.1157 38.7488 43.9702 38.632 43.792L37.4374 44.5754ZM38.4894 45.5044C38.9339 45.7267 39.4248 45.8284 39.9452 45.8284V44.3998C39.6133 44.3998 39.3466 44.3358 39.1283 44.2267L38.4894 45.5044ZM39.9452 39.4719C40.4144 39.4719 40.8596 39.3749 41.2614 39.1606L40.5892 37.9001C40.4228 37.9888 40.2146 38.0433 39.9452 38.0433V39.4719ZM41.2571 39.1628C41.658 38.9526 41.9823 38.6516 42.2135 38.2641L40.9866 37.5323C40.8957 37.6846 40.7703 37.805 40.5935 37.8978L41.2571 39.1628ZM42.2087 38.272C42.4488 37.881 42.5629 37.4444 42.5629 36.982H41.1343C41.1343 37.2015 41.0827 37.3756 40.9913 37.5244L42.2087 38.272ZM42.5629 36.982C42.5629 36.5199 42.4488 36.0834 42.2026 35.6965L40.9974 36.4635C41.0827 36.5975 41.1343 36.7623 41.1343 36.982H42.5629ZM42.2076 35.7044C41.9755 35.3289 41.654 35.0381 41.2603 34.8346L40.6045 36.1038C40.779 36.194 40.9026 36.3103 40.9924 36.4556L42.2076 35.7044ZM41.2685 34.839C40.8654 34.624 40.4174 34.5277 39.9452 34.5277V35.9562C40.221 35.9562 40.4312 36.0115 40.5963 36.0995L41.2685 34.839ZM39.9452 34.5277C39.4757 34.5277 39.0302 34.6247 38.6261 34.8367L39.2898 36.1018C39.4634 36.0107 39.676 35.9562 39.9452 35.9562V34.5277ZM38.6344 34.8325C38.2358 35.035 37.9096 35.326 37.6757 35.7044L38.8908 36.4556C38.9788 36.3132 39.1025 36.197 39.2816 36.106L38.6344 34.8325ZM37.6757 35.7044C37.4372 36.0902 37.3275 36.5239 37.3275 36.982H38.7561C38.7561 36.7583 38.8073 36.5907 38.8908 36.4556L37.6757 35.7044ZM37.3275 36.982C37.3275 37.4405 37.4373 37.8743 37.6698 38.2641L38.8967 37.5323C38.8073 37.3824 38.7561 37.2054 38.7561 36.982H37.3275ZM37.6775 38.2768C37.9121 38.6521 38.2333 38.9465 38.6252 39.1585L39.3049 37.9021C39.1192 37.8016 38.9858 37.6746 38.889 37.5196L37.6775 38.2768ZM38.6332 39.1628C39.036 39.3741 39.4788 39.4719 39.9452 39.4719V38.0433C39.6824 38.0433 39.4718 37.9895 39.2969 37.8978L38.6332 39.1628Z" fill="white" fill-opacity="0.25"/>
</g>
</g>
<rect x="1.06074" y="1.04982" width="53.9" height="53.9" rx="7.35" stroke="white" stroke-opacity="0.15" stroke-width="2.1"/>
<defs>
<filter id="filter0_d_40_460" x="2.29646" y="-0.335013" width="51.4286" height="55.8349" filterUnits="userSpaceOnUse" color-interpolation-filters="sRGB">
<feFlood flood-opacity="0" result="BackgroundImageFix"/>
<feColorMatrix in="SourceAlpha" type="matrix" values="0 0 0 0 0 0 0 0 0 0 0 0 0 0 0 0 0 0 127 0" result="hardAlpha"/>
<feOffset/>
<feGaussianBlur stdDeviation="2.85714"/>
<feComposite in2="hardAlpha" operator="out"/>
<feColorMatrix type="matrix" values="0 0 0 0 0 0 0 0 0 0 0 0 0 0 0 0 0 0 0.25 0"/>
<feBlend mode="normal" in2="BackgroundImageFix" result="effect1_dropShadow_40_460"/>
<feBlend mode="normal" in="SourceGraphic" in2="effect1_dropShadow_40_460" result="shape"/>
</filter>
<linearGradient id="paint0_linear_40_460" x1="28.0107" y1="-0.000183105" x2="28.0107" y2="55.9998" gradientUnits="userSpaceOnUse">
<stop stop-color="#2F1A07"/>
<stop offset="1" stop-color="#111A21"/>
</linearGradient>
<clipPath id="clip0_40_460">
<rect x="0.0107422" y="-0.000183105" width="56" height="56" rx="8.4" fill="white"/>
</clipPath>
</defs>
</svg>
