<svg width="57" height="56" viewBox="0 0 57 56" fill="none" xmlns="http://www.w3.org/2000/svg">
<g clip-path="url(#clip0_40_452)">
<rect x="0.0107422" y="-0.000183105" width="56" height="56" rx="8.4" fill="url(#paint0_linear_40_452)"/>
<g filter="url(#filter0_d_40_452)">
<path d="M23.1195 49.4593C20.6848 49.3119 19.2065 49.0314 18.3294 48.7821C17.8806 48.6546 17.5878 48.5348 17.4041 48.4444C17.3123 48.3992 17.2475 48.3612 17.2041 48.3331C17.1824 48.3191 17.166 48.3075 17.1542 48.2987C17.1483 48.2944 17.1435 48.2907 17.1399 48.2877L17.1351 48.2839L17.1333 48.2824L17.1326 48.2817L17.1322 48.2814C17.1321 48.2813 17.1319 48.2812 17.2484 48.1458L17.1319 48.2812L16.6497 47.8663L17.2774 47.9696C22.0266 48.7513 30.1187 48.8957 36.645 47.6836M23.1195 49.4593L36.6776 47.8592M23.1195 49.4593V49.4595L23.2865 49.4704C27.1383 49.7215 32.0089 49.65 35.9568 49.057C37.9292 48.7607 39.6832 48.3326 40.9666 47.7429C42.2386 47.1584 43.1101 46.3852 43.1891 45.3685L42.8474 45.2894M23.1195 49.4593L42.9337 45.7472C42.9434 45.7374 42.9527 45.7277 42.9617 45.7183C43.0405 45.6353 43.0921 45.5666 43.1251 45.5156C43.1417 45.4902 43.1536 45.4692 43.1619 45.4532C43.166 45.4452 43.1693 45.4384 43.1717 45.433L43.1749 45.4258L43.1761 45.4229L43.1766 45.4217L43.1769 45.4211C43.177 45.4208 43.1771 45.4206 43.0111 45.3547M36.645 47.6836L36.6776 47.8592M36.645 47.6836C36.645 47.6836 36.645 47.6836 36.645 47.6836L36.6776 47.8592M36.645 47.6836C39.5162 47.15 41.0784 46.5288 41.9176 46.05C42.3367 45.811 42.5733 45.6087 42.7026 45.4724C42.7672 45.4043 42.8051 45.3527 42.8256 45.3211C42.8359 45.3053 42.8419 45.2944 42.8447 45.2889L42.8468 45.2847C42.8468 45.2847 42.8467 45.285 42.8464 45.2857L42.8458 45.287L42.8455 45.2878L42.8453 45.2883C42.8453 45.2884 42.8453 45.2884 42.8474 45.2894M36.6776 47.8592C40.8283 47.0877 42.2852 46.1288 42.7758 45.6523C42.8057 45.5505 42.8248 45.4466 42.8331 45.3409L43.0111 45.3547M42.8474 45.2894L42.8451 45.2888L43.0111 45.3547M42.8474 45.2894C42.8544 45.2923 42.8843 45.3044 43.0111 45.3547M21.8356 39.8565L21.8357 39.8565L21.8357 39.8564L21.8358 39.8564L22.3767 39.5256H21.7424H21.7411H21.7162L21.6922 39.5324C20.8651 39.7676 20.2842 40.0391 19.9328 40.3388C19.7557 40.4899 19.6293 40.6545 19.5646 40.8328C19.4987 41.0143 19.501 41.1986 19.5633 41.3763C19.6839 41.7199 20.0221 42.022 20.4767 42.2783C20.9385 42.5386 21.5523 42.7694 22.2757 42.9552C25.1651 43.6974 29.9211 43.751 34.1242 41.9442L34.5341 41.768L34.1158 41.6127C33.3087 41.3131 32.5328 40.9347 31.7991 40.4829L31.7398 40.4465L31.6715 40.4597C27.9879 41.1717 26.2263 41.2414 22.9039 40.8155L22.9039 40.8154L22.8995 40.815C22.2113 40.7439 21.8234 40.6304 21.6197 40.515C21.5199 40.4584 21.4761 40.408 21.4573 40.3735C21.4404 40.3426 21.4374 40.3134 21.4449 40.279C21.4632 40.1947 21.5429 40.0929 21.6487 39.9984C21.6976 39.9547 21.7453 39.9186 21.7808 39.8934C21.7984 39.8809 21.8128 39.8713 21.8224 39.8649L21.8331 39.8581L21.8354 39.8566L21.8356 39.8565ZM20.8554 35.0528V34.6917L20.5885 34.8956C19.6996 35.1988 19.0745 35.5124 18.6928 35.8313C18.3059 36.1544 18.1301 36.522 18.2676 36.8999C18.3937 37.2461 18.7639 37.5283 19.2559 37.7572C19.7584 37.9909 20.4312 38.189 21.2309 38.3425C24.4272 38.9564 29.7762 38.8827 34.8202 37.3721L35.3568 37.2114L34.8262 37.0319C34.2079 36.8228 33.647 36.4704 33.1889 36.0032L33.1209 35.9339L33.0257 35.9533C28.1348 36.9494 25.3068 36.8787 21.6912 36.5225C21.006 36.4514 20.6372 36.3164 20.4537 36.1785C20.3656 36.1123 20.3253 36.0494 20.3075 35.9959C20.2894 35.9417 20.2891 35.8817 20.3069 35.8135C20.3443 35.6698 20.4547 35.5176 20.5725 35.3917C20.6292 35.3311 20.6834 35.2811 20.7232 35.2463C20.7382 35.2333 20.751 35.2225 20.7611 35.2142L20.8554 35.1822V35.0541V35.0528ZM40.4287 43.0679L40.3836 43.0306H40.3192H40.3085L40.2525 43.2897C40.2052 43.3466 40.2052 43.3466 40.2051 43.3465L40.2055 43.3469L40.2116 43.3524C40.2175 43.3577 40.2267 43.3664 40.238 43.3781C40.2608 43.4016 40.2913 43.4362 40.3212 43.4795C40.3825 43.5681 40.4315 43.6791 40.4254 43.7994C40.4196 43.913 40.3627 44.0687 40.1451 44.2492C39.9238 44.4327 39.5442 44.6342 38.9154 44.8276C36.5571 45.5362 31.5798 46.0018 26.6444 46.0554C24.1801 46.0821 21.7336 46.006 19.6387 45.8076C17.5379 45.6085 15.81 45.288 14.7704 44.8347L14.7696 44.8344C14.5945 44.7591 14.51 44.6901 14.4743 44.641C14.4475 44.6041 14.4466 44.579 14.4601 44.5446C14.479 44.4968 14.53 44.4302 14.6301 44.3495C14.7274 44.2712 14.8571 44.1908 15.0107 44.1112C15.6303 43.7902 16.5511 43.527 16.991 43.4579L16.9911 43.4583L17.0036 43.4554C17.4596 43.3499 17.809 43.2975 18.0428 43.2714C18.1597 43.2584 18.2478 43.252 18.3058 43.2488C18.3348 43.2472 18.3562 43.2465 18.3701 43.2461L18.3851 43.2458L18.3883 43.2457L18.3885 43.2457L18.3886 43.2457H18.3887H18.3887H18.3888L18.9557 43.2457L18.4908 42.9208C18.2423 42.7471 17.8752 42.6754 17.4677 42.6633C17.0535 42.6511 16.5687 42.6999 16.0606 42.793C15.0446 42.9791 13.9124 43.3462 13.0249 43.7832C12.5817 44.0015 12.192 44.2408 11.9075 44.489C11.6298 44.7312 11.4195 45.0104 11.4048 45.3118C11.389 45.6348 11.5972 45.9009 11.9612 46.1058C12.3249 46.3105 12.882 46.4788 13.6633 46.6051C22.1871 48.0037 29.9647 47.6998 35.0648 46.7928C37.6084 46.3404 39.5085 45.7343 40.4995 45.1004C40.7488 44.9409 40.9491 44.7744 41.0879 44.601C41.227 44.4271 41.3119 44.2362 41.308 44.0338C41.3003 43.6351 40.9601 43.318 40.4287 43.0679ZM22.6722 30.1063L22.6089 29.979L22.4873 30.0081L22.4871 30.0081C22.4624 30.0069 22.4264 30.0054 22.3796 30.0042C22.2859 30.0017 22.149 30.0003 21.9735 30.0042C21.6227 30.0121 21.1176 30.0415 20.4962 30.1274C19.2537 30.2992 17.5448 30.6971 15.6748 31.6014L15.6748 31.6014L15.6734 31.6021C15.3942 31.7401 15.1798 31.8796 15.0348 32.0231C14.8903 32.1661 14.7962 32.3326 14.808 32.518C14.8197 32.7023 14.9326 32.8517 15.0789 32.969C15.2263 33.0872 15.4291 33.1908 15.6708 33.2831C16.6331 33.6507 18.3925 33.9041 20.5105 34.0249C24.7557 34.2671 30.5408 33.9811 34.5146 32.9366L34.5418 32.9295L34.5655 32.9144C34.9486 32.6694 35.422 32.4224 35.8026 32.2355C35.9924 32.1424 36.1578 32.0647 36.2758 32.0104C36.3347 31.9833 36.3818 31.962 36.414 31.9475L36.4508 31.9311L36.4602 31.9269L36.4625 31.9259L36.463 31.9257L36.4631 31.9256L36.4632 31.9256L36.4631 31.9256L36.36 31.5863L36.3913 31.7621L36.3599 31.5863L36.3598 31.5864L36.3594 31.5864L36.3577 31.5867L36.3509 31.5879L36.3237 31.5927L36.217 31.6112C36.1235 31.6273 35.9862 31.6507 35.8114 31.6796C35.4617 31.7374 34.962 31.8175 34.3624 31.9066C33.1633 32.0847 31.5659 32.2984 29.9701 32.4413C26.0567 32.7264 21.8752 32.7972 19.7602 32.5133L19.7593 32.5132C19.1409 32.4334 18.7369 32.3364 18.4953 32.2337C18.3742 32.1823 18.3072 32.1348 18.2734 32.0986C18.2441 32.0672 18.2457 32.0518 18.2463 32.0458L18.2463 32.0457C18.2477 32.0314 18.2582 31.9975 18.3065 31.943C18.3536 31.8898 18.4258 31.8296 18.5245 31.764C18.7216 31.633 18.9995 31.4967 19.3247 31.3619C19.9733 31.0931 20.7793 30.8425 21.4268 30.6585C21.7498 30.5667 22.032 30.4918 22.2332 30.44C22.3339 30.414 22.4142 30.3938 22.4694 30.3802L22.5193 30.3679L22.8125 30.3885L22.6735 30.109L22.6722 30.1063ZM37.1731 30.6157L37.0132 30.5362L36.7754 31.0144L37.2526 30.7756L37.2526 30.7756L37.2528 30.7755L37.2529 30.7755L37.253 30.7754L37.253 30.7754L37.2539 30.775L37.2616 30.7713C37.269 30.7679 37.281 30.7625 37.2978 30.7554C37.3312 30.7412 37.3836 30.7201 37.4559 30.6944C37.6002 30.6433 37.8239 30.5738 38.1354 30.5039C39.3311 30.2723 40.7891 31.0981 41.0189 32.4433C41.2458 33.7711 40.2893 35.7444 36.3475 37.8073H36.2784L36.229 37.9058C36.1982 37.9671 36.1683 38.0117 36.1473 38.0399C36.1368 38.0539 36.1285 38.0638 36.1235 38.0696L36.1187 38.075L36.1186 38.075C36.1183 38.0754 36.1182 38.0756 36.1183 38.0754L35.6578 38.5384L36.2912 38.3729C38.9786 37.6707 40.7638 36.6889 41.8425 35.6243C42.9236 34.5572 43.2977 33.4023 43.1406 32.3778C42.8266 30.3286 40.434 28.9544 37.8297 29.8738C37.5437 29.9573 37.3409 30.1215 37.2108 30.2623C37.1452 30.3333 37.097 30.3995 37.0648 30.4487C37.0487 30.4734 37.0364 30.4939 37.0279 30.509C37.0236 30.5165 37.0203 30.5226 37.0179 30.5272L37.0149 30.5329L37.0139 30.5349L37.0135 30.5356L37.0134 30.5359L37.0133 30.5361C37.0133 30.5361 37.0132 30.5362 37.1731 30.6157ZM17.8099 48.233C17.7076 48.1924 17.626 48.1556 17.5619 48.124C17.4814 48.0844 17.4288 48.0532 17.398 48.0332C17.3826 48.0233 17.3727 48.0162 17.3674 48.0122L17.3631 48.009L17.8099 48.233Z" fill="#4E7896" stroke="#4E7896" stroke-width="0.357143"/>
<path d="M31.5645 6.57123L31.6921 6.44632L31.2309 5.9752L31.3913 6.61466C31.827 8.35265 31.6601 9.7763 31.1272 11.0058C30.5922 12.2401 29.6833 13.2908 28.615 14.271C27.9009 14.9262 27.1259 15.5414 26.3491 16.1579C25.9595 16.4672 25.5694 16.7768 25.1863 17.092C24.0476 18.029 22.9804 19.0086 22.2356 20.1417C21.7166 20.9242 21.5141 21.7277 21.5737 22.5501C21.633 23.3686 21.9512 24.1942 22.4538 25.0276C23.4566 26.6902 25.2193 28.4238 27.2467 30.2475L27.5297 30.0432C27.1673 29.2146 26.6079 28.4103 26.0536 27.6134C25.9963 27.5309 25.9389 27.4485 25.8819 27.3661C25.2682 26.4802 24.6837 25.5974 24.3591 24.6619C24.0371 23.7338 23.972 22.7565 24.3996 21.6766C24.8297 20.5906 25.7647 19.3843 27.4771 18.0175C31.808 14.5983 32.9008 11.7243 32.873 9.67263C32.8592 8.65067 32.5669 7.84712 32.2773 7.29848C32.1326 7.02423 31.9883 6.81335 31.8794 6.67012C31.8249 6.59847 31.7792 6.54365 31.7465 6.5062C31.7302 6.48747 31.7172 6.47307 31.7079 6.46307L31.6969 6.45137L31.6937 6.44801L31.6927 6.44695L31.6923 6.44658C31.6922 6.44644 31.6921 6.44632 31.5645 6.57123ZM28.6186 31.4791L28.6185 31.4791L28.6185 31.4791C28.6185 31.4791 28.6185 31.4791 28.619 31.4798L28.8133 31.7761L28.7314 31.6175C28.8133 31.7761 28.8134 31.7761 28.8135 31.7761L28.8138 31.7759L28.8147 31.7754L28.818 31.7737L28.8301 31.7673C28.8406 31.7617 28.8559 31.7536 28.8755 31.7429C28.9148 31.7214 28.9716 31.6898 29.0427 31.6485C29.1848 31.5659 29.3845 31.4444 29.6163 31.2881C30.0789 30.9762 30.6737 30.5224 31.1935 29.9586C31.712 29.3959 32.1662 28.7125 32.3288 27.941C32.4929 27.162 32.3558 26.311 31.7239 25.4318C31.6223 25.2834 31.5224 25.1394 31.4249 24.999C30.9877 24.369 30.6011 23.8119 30.3412 23.2663C30.0276 22.6079 29.9105 21.989 30.1199 21.3115C30.3321 20.6248 30.8878 19.851 31.9837 18.9074C33.0779 17.9653 34.695 16.867 37.0045 15.5276L36.8716 15.1999L36.9149 15.3731C36.8716 15.1999 36.8715 15.1999 36.8713 15.1999L36.8707 15.2001L36.8685 15.2006L36.8602 15.2028L36.8282 15.211C36.8002 15.2184 36.759 15.2293 36.7058 15.2438C36.5993 15.2729 36.4446 15.3164 36.2504 15.3747C35.8621 15.4912 35.3157 15.6665 34.6821 15.9024C33.4166 16.3734 31.7955 17.0884 30.3905 18.062C28.9891 19.0331 27.7779 20.2786 27.375 21.8188C26.9687 23.372 27.3962 25.1751 29.1649 27.226L29.3001 27.1094L29.1657 27.2269C29.6593 27.7914 29.8642 28.333 29.9043 28.8244C29.9445 29.3181 29.8194 29.7759 29.629 30.1714C29.4385 30.5674 29.1852 30.8955 28.9779 31.1256C28.8746 31.2402 28.7835 31.3296 28.7188 31.3899C28.6864 31.4201 28.6607 31.4429 28.6434 31.4579L28.624 31.4745L28.6194 31.4783L28.6186 31.4791Z" fill="#F58219" stroke="#F58219" stroke-width="0.357143"/>
</g>
</g>
<rect x="1.06074" y="1.04982" width="53.9" height="53.9" rx="7.35" stroke="white" stroke-opacity="0.15" stroke-width="2.1"/>
<defs>
<filter id="filter0_d_40_452" x="2.29646" y="-0.335135" width="51.4286" height="55.8349" filterUnits="userSpaceOnUse" color-interpolation-filters="sRGB">
<feFlood flood-opacity="0" result="BackgroundImageFix"/>
<feColorMatrix in="SourceAlpha" type="matrix" values="0 0 0 0 0 0 0 0 0 0 0 0 0 0 0 0 0 0 127 0" result="hardAlpha"/>
<feOffset/>
<feGaussianBlur stdDeviation="2.85714"/>
<feComposite in2="hardAlpha" operator="out"/>
<feColorMatrix type="matrix" values="0 0 0 0 0 0 0 0 0 0 0 0 0 0 0 0 0 0 0.25 0"/>
<feBlend mode="normal" in2="BackgroundImageFix" result="effect1_dropShadow_40_452"/>
<feBlend mode="normal" in="SourceGraphic" in2="effect1_dropShadow_40_452" result="shape"/>
</filter>
<linearGradient id="paint0_linear_40_452" x1="28.0107" y1="-0.000183105" x2="28.0107" y2="55.9998" gradientUnits="userSpaceOnUse">
<stop stop-color="#2F1A07"/>
<stop offset="1" stop-color="#111A21"/>
</linearGradient>
<clipPath id="clip0_40_452">
<rect x="0.0107422" y="-0.000183105" width="56" height="56" rx="8.4" fill="white"/>
</clipPath>
</defs>
</svg>
