<svg width="57" height="56" viewBox="0 0 57 56" fill="none" xmlns="http://www.w3.org/2000/svg">
<rect x="0.0107422" y="-0.000183105" width="56" height="56" rx="8.4" fill="url(#paint0_linear_2_1178)"/>
<g filter="url(#filter0_d_2_1178)">
<path d="M8.01074 7.99988H48.0107V47.9999H8.01074V7.99988ZM44.7341 38.4599C44.4424 36.6349 43.2541 35.1015 39.7291 33.6715C38.5024 33.0965 37.1391 32.6965 36.7341 31.7715C36.5824 31.2215 36.5591 30.9215 36.6574 30.5965C36.9074 29.5199 38.1824 29.1965 39.1824 29.4965C39.8324 29.6965 40.4324 30.1965 40.8091 30.9965C42.5324 29.8699 42.5324 29.8699 43.7341 29.1215C43.2841 28.4215 43.0607 28.1199 42.7574 27.8215C41.7074 26.6465 40.3091 26.0465 38.0341 26.0982L36.8591 26.2465C35.7324 26.5215 34.6591 27.1215 34.0091 27.9215C32.1091 30.0732 32.6574 33.8232 34.9574 35.3732C37.2324 37.0732 40.5591 37.4465 40.9841 39.0482C41.3841 40.9982 39.5341 41.6232 37.7074 41.3982C36.3557 41.0982 35.6074 40.4215 34.7824 39.1715L31.7324 40.9232C32.0824 41.7232 32.4824 42.0715 33.0824 42.7715C35.9824 45.6982 43.2324 45.5482 44.5341 41.0982C44.5824 40.9482 44.9341 39.9232 44.6574 38.3482L44.7341 38.4599V38.4599ZM29.7624 26.3849H26.0157C26.0157 29.6149 26.0007 32.8249 26.0007 36.0599C26.0007 38.1132 26.1057 39.9982 25.7707 40.5782C25.2207 41.7265 23.8041 41.5799 23.1607 41.3782C22.5007 41.0515 22.1657 40.6015 21.7774 39.9532C21.6724 39.7782 21.5941 39.6265 21.5657 39.6265L18.5241 41.5015C19.0324 42.5515 19.7741 43.4549 20.7307 44.0299C22.1557 44.8799 24.0707 45.1549 26.0757 44.7049C27.3807 44.3282 28.5057 43.5532 29.0941 42.3532C29.9441 40.8032 29.7641 38.9032 29.7557 36.7765C29.7757 33.3532 29.7557 29.9282 29.7557 26.4782L29.7624 26.3849V26.3849Z" fill="#F7DF1E"/>
</g>
<rect x="1.06074" y="1.04982" width="53.9" height="53.9" rx="7.35" stroke="white" stroke-opacity="0.15" stroke-width="2.1"/>
<defs>
<filter id="filter0_d_2_1178" x="2.29646" y="2.28553" width="51.4286" height="51.4286" filterUnits="userSpaceOnUse" color-interpolation-filters="sRGB">
<feFlood flood-opacity="0" result="BackgroundImageFix"/>
<feColorMatrix in="SourceAlpha" type="matrix" values="0 0 0 0 0 0 0 0 0 0 0 0 0 0 0 0 0 0 127 0" result="hardAlpha"/>
<feOffset/>
<feGaussianBlur stdDeviation="2.85714"/>
<feComposite in2="hardAlpha" operator="out"/>
<feColorMatrix type="matrix" values="0 0 0 0 0 0 0 0 0 0 0 0 0 0 0 0 0 0 0.25 0"/>
<feBlend mode="normal" in2="BackgroundImageFix" result="effect1_dropShadow_2_1178"/>
<feBlend mode="normal" in="SourceGraphic" in2="effect1_dropShadow_2_1178" result="shape"/>
</filter>
<linearGradient id="paint0_linear_2_1178" x1="28.0107" y1="-0.000183105" x2="28.0107" y2="55.9998" gradientUnits="userSpaceOnUse">
<stop stop-color="#35300A"/>
<stop offset="1" stop-color="#232004"/>
</linearGradient>
</defs>
</svg>
