<svg width="57" height="56" viewBox="0 0 57 56" fill="none" xmlns="http://www.w3.org/2000/svg">
<g clip-path="url(#clip0_40_468)">
<rect x="0.0107422" y="-0.000183105" width="56" height="56" rx="8.4" fill="url(#paint0_linear_40_468)"/>
<g filter="url(#filter0_d_40_468)">
<path d="M13.6633 46.6052C22.1871 48.0039 29.9647 47.6999 35.0648 46.7929C37.6084 46.3406 39.5085 45.7344 40.4995 45.1005C40.7488 44.941 40.9491 44.7746 41.0879 44.6011C41.227 44.4273 41.3119 44.2363 41.308 44.0339C41.3003 43.6352 40.9601 43.3181 40.4287 43.0681L40.3836 43.0307H40.3192H40.3085L40.2525 43.2898C40.2052 43.3467 40.2052 43.3467 40.2051 43.3466L40.2055 43.347L40.2116 43.3525C40.2175 43.3579 40.2267 43.3665 40.238 43.3782C40.2608 43.4017 40.2913 43.4363 40.3212 43.4796C40.3825 43.5683 40.4315 43.6792 40.4254 43.7995C40.4196 43.9131 40.3627 44.0688 40.1451 44.2493C39.9238 44.4328 39.5442 44.6343 38.9154 44.8277C36.5571 45.5363 31.5798 46.002 26.6444 46.0555C24.1801 46.0822 21.7336 46.0062 19.6387 45.8077C17.5379 45.6087 15.81 45.2881 14.7704 44.8349L14.7696 44.8345C14.5945 44.7592 14.51 44.6903 14.4743 44.6411C14.4475 44.6043 14.4466 44.5791 14.4601 44.5447C14.479 44.4969 14.53 44.4303 14.6301 44.3497C14.7274 44.2713 14.8571 44.1909 15.0107 44.1113C15.6303 43.7903 16.5511 43.5271 16.991 43.458L16.9911 43.4584L17.0036 43.4556C17.4596 43.35 17.809 43.2976 18.0428 43.2716C18.1597 43.2585 18.2478 43.2521 18.3058 43.2489C18.3348 43.2474 18.3562 43.2466 18.3701 43.2462L18.3851 43.2459L18.3883 43.2459L18.3885 43.2459H18.3886H18.3887H18.3887H18.3888H18.9557L18.4908 42.9209C18.2423 42.7473 17.8752 42.6755 17.4677 42.6634C17.0535 42.6512 16.5687 42.7001 16.0606 42.7931C15.0446 42.9792 13.9124 43.3463 13.0249 43.7833C12.5817 44.0016 12.192 44.2409 11.9075 44.4891C11.6298 44.7313 11.4195 45.0105 11.4048 45.3119C11.389 45.6349 11.5972 45.901 11.9612 46.1059C12.3249 46.3106 12.882 46.4789 13.6633 46.6052ZM13.6633 46.6052C13.6632 46.6052 13.6632 46.6052 13.6631 46.6051L13.692 46.4289L13.6636 46.6052C13.6635 46.6052 13.6634 46.6052 13.6633 46.6052ZM23.1195 49.4594C20.6848 49.312 19.2065 49.0315 18.3294 48.7823C17.8806 48.6547 17.5878 48.535 17.4041 48.4446C17.3123 48.3993 17.2475 48.3613 17.2041 48.3333C17.1824 48.3192 17.166 48.3076 17.1542 48.2989C17.1483 48.2945 17.1435 48.2908 17.1399 48.2879L17.1351 48.284L17.1333 48.2825L17.1326 48.2819L17.1322 48.2816C17.1321 48.2814 17.1319 48.2813 17.2484 48.1459L17.1319 48.2813L16.6497 47.8664L17.2774 47.9697C22.0266 48.7514 30.1187 48.8958 36.645 47.6837M23.1195 49.4594L36.6776 47.8593M23.1195 49.4594V49.4597L23.2865 49.4706C27.1383 49.7216 32.0089 49.6501 35.9568 49.0571C37.9292 48.7608 39.6832 48.3327 40.9666 47.743C42.2386 47.1585 43.1101 46.3853 43.1891 45.3687L42.8474 45.2895M23.1195 49.4594L42.9337 45.7473C42.9434 45.7375 42.9527 45.7279 42.9617 45.7184C43.0404 45.6354 43.0921 45.5667 43.1251 45.5158C43.1417 45.4903 43.1536 45.4693 43.1618 45.4533C43.166 45.4453 43.1692 45.4385 43.1717 45.4331L43.1749 45.4259L43.1761 45.423L43.1766 45.4218L43.1769 45.4212C43.177 45.421 43.1771 45.4207 43.0111 45.3548M36.645 47.6837L36.6776 47.8593M36.645 47.6837C36.645 47.6837 36.645 47.6837 36.645 47.6837L36.6776 47.8593M36.645 47.6837C39.5162 47.1501 41.0784 46.529 41.9176 46.0502C42.3367 45.8111 42.5733 45.6088 42.7026 45.4725C42.7672 45.4045 42.8051 45.3528 42.8256 45.3212C42.8359 45.3054 42.8419 45.2945 42.8447 45.289L42.8468 45.2848C42.8468 45.2848 42.8467 45.2852 42.8464 45.2858L42.8458 45.2871L42.8455 45.288L42.8453 45.2884C42.8453 45.2885 42.8453 45.2886 42.8474 45.2895M36.6776 47.8593C40.8283 47.0879 42.2852 46.129 42.7758 45.6525C42.8057 45.5506 42.8248 45.4468 42.8331 45.341L43.0111 45.3548M42.8474 45.2895L42.8451 45.2889L43.0111 45.3548M42.8474 45.2895C42.8544 45.2925 42.8843 45.3045 43.0111 45.3548M21.8356 39.8567L21.8357 39.8566L21.8357 39.8565L21.8358 39.8565L22.3767 39.5257H21.7424H21.7411H21.7162L21.6922 39.5325C20.8651 39.7677 20.2842 40.0392 19.9328 40.3389C19.7557 40.49 19.6293 40.6546 19.5646 40.8329C19.4987 41.0144 19.501 41.1988 19.5633 41.3764C19.6839 41.72 20.0221 42.0221 20.4767 42.2784C20.9385 42.5387 21.5523 42.7695 22.2757 42.9553C25.1651 43.6975 29.9211 43.7511 34.1242 41.9443L34.5341 41.7681L34.1158 41.6128C33.3087 41.3132 32.5328 40.9349 31.7991 40.4831L31.7398 40.4466L31.6715 40.4598C27.9879 41.1718 26.2263 41.2415 22.9039 40.8156L22.9039 40.8155L22.8995 40.8151C22.2113 40.7441 21.8234 40.6305 21.6197 40.5151C21.5199 40.4586 21.4761 40.4081 21.4573 40.3737C21.4404 40.3428 21.4374 40.3135 21.4449 40.2791C21.4632 40.1948 21.5429 40.093 21.6487 39.9985C21.6976 39.9548 21.7453 39.9187 21.7808 39.8935C21.7984 39.881 21.8128 39.8714 21.8224 39.8651L21.8331 39.8582L21.8354 39.8567L21.8356 39.8567ZM20.8554 35.0529V34.6918L20.5885 34.8957C19.6996 35.199 19.0745 35.5125 18.6928 35.8314C18.3059 36.1545 18.1301 36.5221 18.2676 36.9001C18.3937 37.2463 18.7639 37.5284 19.2559 37.7573C19.7584 37.9911 20.4312 38.1891 21.2309 38.3427C24.4272 38.9565 29.7762 38.8829 34.8202 37.3722L35.3568 37.2115L34.8262 37.032C34.2079 36.8229 33.647 36.4706 33.1889 36.0034L33.1209 35.934L33.0257 35.9534C28.1348 36.9495 25.3068 36.8788 21.6911 36.5226C21.0059 36.4515 20.6372 36.3165 20.4537 36.1786C20.3656 36.1124 20.3253 36.0495 20.3075 35.996C20.2894 35.9419 20.2891 35.8818 20.3069 35.8136C20.3443 35.6699 20.4547 35.5178 20.5725 35.3918C20.6292 35.3312 20.6834 35.2812 20.7232 35.2464C20.7382 35.2334 20.751 35.2226 20.7611 35.2143L20.8554 35.1823V35.0543V35.0529ZM22.6722 30.1064L22.6089 29.9791L22.4873 30.0083L22.4871 30.0082C22.4624 30.007 22.4264 30.0055 22.3796 30.0043C22.2859 30.0018 22.149 30.0004 21.9735 30.0043C21.6227 30.0122 21.1176 30.0416 20.4962 30.1275C19.2537 30.2994 17.5448 30.6972 15.6748 31.6015L15.6748 31.6015L15.6734 31.6022C15.3942 31.7403 15.1798 31.8797 15.0348 32.0232C14.8903 32.1662 14.7962 32.3327 14.808 32.5182C14.8197 32.7024 14.9326 32.8518 15.0789 32.9692C15.2263 33.0874 15.4291 33.191 15.6708 33.2833C16.6331 33.6508 18.3925 33.9042 20.5105 34.025C24.7557 34.2672 30.5408 33.9812 34.5146 32.9368L34.5418 32.9296L34.5655 32.9145C34.9486 32.6695 35.422 32.4225 35.8026 32.2356C35.9924 32.1425 36.1578 32.0649 36.2758 32.0106C36.3347 31.9834 36.3818 31.9621 36.414 31.9477L36.4508 31.9312L36.4602 31.927L36.4625 31.926L36.463 31.9258L36.4631 31.9257L36.4632 31.9257L36.4631 31.9257L36.36 31.5865L36.3913 31.7623L36.3599 31.5865L36.3598 31.5865L36.3594 31.5866L36.3577 31.5869L36.3509 31.5881L36.3237 31.5928L36.217 31.6114C36.1235 31.6275 35.9862 31.6508 35.8114 31.6797C35.4617 31.7375 34.962 31.8177 34.3624 31.9067C33.1633 32.0849 31.5659 32.2985 29.9701 32.4414C26.0567 32.7266 21.8752 32.7973 19.7602 32.5134L19.7593 32.5133C19.1409 32.4335 18.7369 32.3365 18.4953 32.2339C18.3742 32.1824 18.3072 32.135 18.2734 32.0987C18.2441 32.0674 18.2457 32.0519 18.2463 32.0459L18.2463 32.0458C18.2477 32.0315 18.2582 31.9976 18.3065 31.9431C18.3536 31.89 18.4258 31.8298 18.5245 31.7642C18.7216 31.6331 18.9995 31.4968 19.3247 31.362C19.9733 31.0932 20.7793 30.8426 21.4268 30.6586C21.7498 30.5668 22.032 30.492 22.2332 30.4401C22.3339 30.4141 22.4142 30.394 22.4694 30.3803L22.5193 30.368L22.8125 30.3887L22.6735 30.1091L22.6722 30.1064ZM37.1731 30.6158L37.0132 30.5363L36.7754 31.0145L37.2526 30.7757L37.2526 30.7757L37.2528 30.7756L37.2529 30.7756L37.253 30.7756L37.253 30.7755L37.2539 30.7751L37.2616 30.7715C37.269 30.768 37.281 30.7626 37.2978 30.7555C37.3312 30.7413 37.3836 30.7202 37.4559 30.6946C37.6002 30.6434 37.8239 30.5739 38.1354 30.504C39.3311 30.2724 40.7891 31.0982 41.0189 32.4434C41.2458 33.7713 40.2893 35.7445 36.3475 37.8074H36.2784L36.229 37.9059C36.1982 37.9672 36.1683 38.0119 36.1473 38.04C36.1368 38.0541 36.1285 38.064 36.1235 38.0697L36.1187 38.0751L36.1186 38.0752C36.1183 38.0756 36.1182 38.0757 36.1183 38.0755L35.6578 38.5386L36.2912 38.3731C38.9786 37.6709 40.7638 36.689 41.8425 35.6244C42.9236 34.5574 43.2977 33.4024 43.1406 32.3779C42.8266 30.3287 40.434 28.9545 37.8297 29.8739C37.5437 29.9575 37.3409 30.1216 37.2108 30.2624C37.1452 30.3335 37.097 30.3996 37.0648 30.4488C37.0487 30.4735 37.0364 30.4941 37.0279 30.5091C37.0236 30.5166 37.0203 30.5227 37.0179 30.5273L37.0149 30.5331L37.0139 30.535L37.0135 30.5357L37.0134 30.536L37.0133 30.5362C37.0133 30.5363 37.0132 30.5363 37.1731 30.6158ZM17.8099 48.2331C17.7076 48.1925 17.626 48.1557 17.5619 48.1241C17.4814 48.0845 17.4288 48.0533 17.398 48.0334C17.3826 48.0234 17.3727 48.0163 17.3674 48.0124L17.3631 48.0091L17.8099 48.2331Z" fill="#4E7896" stroke="#4E7896" stroke-width="0.357143"/>
<path d="M31.5645 6.57135L31.6921 6.44644L31.2309 5.97532L31.3913 6.61478C31.827 8.35277 31.6601 9.77642 31.1272 11.006C30.5922 12.2402 29.6833 13.2909 28.615 14.2712C27.9009 14.9264 27.1259 15.5415 26.3491 16.158C25.9595 16.4673 25.5694 16.7769 25.1863 17.0921C24.0476 18.0291 22.9804 19.0087 22.2356 20.1418C21.7166 20.9244 21.5141 21.7279 21.5737 22.5502C21.633 23.3687 21.9512 24.1943 22.4538 25.0277C23.4566 26.6903 25.2193 28.4239 27.2467 30.2477L27.5297 30.0433C27.1673 29.2147 26.6079 28.4104 26.0536 27.6136C25.9963 27.5311 25.9389 27.4486 25.8819 27.3663C25.2682 26.4803 24.6837 25.5975 24.3591 24.662C24.0371 23.7339 23.972 22.7566 24.3996 21.6768C24.8297 20.5907 25.7647 19.3844 27.4771 18.0176C31.808 14.5984 32.9008 11.7245 32.873 9.67276C32.8592 8.65079 32.5669 7.84725 32.2773 7.2986C32.1326 7.02436 31.9883 6.81347 31.8794 6.67024C31.8249 6.59859 31.7792 6.54378 31.7465 6.50632C31.7302 6.48759 31.7172 6.47319 31.7079 6.46319L31.6969 6.4515L31.6937 6.44813L31.6927 6.44708L31.6923 6.4467C31.6922 6.44656 31.6921 6.44644 31.5645 6.57135ZM29.1649 27.2261L29.1657 27.227C29.6593 27.7916 29.8642 28.3331 29.9043 28.8245C29.9445 29.3182 29.8194 29.776 29.629 30.1716C29.4385 30.5675 29.1852 30.8956 28.9779 31.1257C28.8746 31.2404 28.7835 31.3298 28.7188 31.3901C28.6864 31.4202 28.6607 31.443 28.6434 31.458L28.624 31.4747L28.6194 31.4785L28.6186 31.4792L28.6185 31.4792L28.6185 31.4793C28.6185 31.4793 28.6185 31.4793 28.619 31.4799L28.8133 31.7763L28.7314 31.6176C28.8133 31.7763 28.8134 31.7762 28.8135 31.7762L28.8138 31.776L28.8147 31.7755L28.818 31.7738L28.8301 31.7674C28.8406 31.7619 28.8559 31.7537 28.8755 31.743C28.9148 31.7215 28.9716 31.6899 29.0427 31.6486C29.1848 31.566 29.3845 31.4446 29.6163 31.2883C30.0789 30.9763 30.6737 30.5226 31.1935 29.9587C31.712 29.3961 32.1662 28.7127 32.3288 27.9411C32.4929 27.1621 32.3558 26.3111 31.724 25.4319C31.6223 25.2836 31.5224 25.1395 31.4249 24.9991C30.9877 24.3691 30.6011 23.8121 30.3412 23.2664C30.0276 22.6081 29.9105 21.9892 30.1199 21.3117C30.3321 20.6249 30.8878 19.8511 31.9837 18.9075C33.0779 17.9654 34.695 16.8672 37.0045 15.5277L36.8716 15.2L36.9149 15.3732C36.8716 15.2 36.8715 15.2 36.8713 15.2001L36.8707 15.2002L36.8685 15.2008L36.8602 15.2029L36.8282 15.2112C36.8002 15.2185 36.759 15.2294 36.7058 15.2439C36.5993 15.273 36.4446 15.3165 36.2504 15.3748C35.8621 15.4913 35.3157 15.6666 34.6821 15.9025C33.4166 16.3735 31.7955 17.0885 30.3905 18.0621C28.9891 19.0332 27.7779 20.2787 27.375 21.8189C26.9687 23.3722 27.3962 25.1752 29.1649 27.2261Z" fill="#F58219" stroke="#F58219" stroke-width="0.357143"/>
<path d="M34.9077 32.8627V47.4081H31.3992V36.1439H31.3139L28.0611 38.1326V35.0928L31.6477 32.8627H34.9077ZM44.8491 32.8627V47.4081H41.3406V36.1439H41.2553L38.0025 38.1326V35.0928L41.5891 32.8627H44.8491Z" fill="#F58219"/>
<path d="M34.9077 32.8627H35.622V32.1484H34.9077V32.8627ZM34.9077 47.4081V48.1224H35.622V47.4081H34.9077ZM31.3992 47.4081H30.6849V48.1224H31.3992V47.4081ZM31.3992 36.1439H32.1134V35.4297H31.3992V36.1439ZM31.3139 36.1439V35.4297H31.1129L30.9414 35.5345L31.3139 36.1439ZM28.0611 38.1326H27.3468V39.4065L28.4337 38.742L28.0611 38.1326ZM28.0611 35.0928L27.6839 34.4862L27.3468 34.6958V35.0928H28.0611ZM31.6477 32.8627V32.1484H31.4438L31.2706 32.2561L31.6477 32.8627ZM34.1934 32.8627V47.4081H35.622V32.8627H34.1934ZM34.9077 46.6939H31.3992V48.1224H34.9077V46.6939ZM32.1134 47.4081V36.1439H30.6849V47.4081H32.1134ZM31.3992 35.4297H31.3139V36.8582H31.3992V35.4297ZM30.9414 35.5345L27.6885 37.5232L28.4337 38.742L31.6865 36.7534L30.9414 35.5345ZM28.7754 38.1326V35.0928H27.3468V38.1326H28.7754ZM28.4383 35.6994L32.0249 33.4693L31.2706 32.2561L27.6839 34.4862L28.4383 35.6994ZM31.6477 33.577H34.9077V32.1484H31.6477V33.577ZM44.8491 32.8627H45.5634V32.1484H44.8491V32.8627ZM44.8491 47.4081V48.1224H45.5634V47.4081H44.8491ZM41.3406 47.4081H40.6263V48.1224H41.3406V47.4081ZM41.3406 36.1439H42.0548V35.4297H41.3406V36.1439ZM41.2553 36.1439V35.4297H41.0543L40.8828 35.5345L41.2553 36.1439ZM38.0025 38.1326H37.2882V39.4065L38.3751 38.742L38.0025 38.1326ZM38.0025 35.0928L37.6253 34.4862L37.2882 34.6958V35.0928H38.0025ZM41.5891 32.8627V32.1484H41.3852L41.212 32.2561L41.5891 32.8627ZM44.1348 32.8627V47.4081H45.5634V32.8627H44.1348ZM44.8491 46.6939H41.3406V48.1224H44.8491V46.6939ZM42.0548 47.4081V36.1439H40.6263V47.4081H42.0548ZM41.3406 35.4297H41.2553V36.8582H41.3406V35.4297ZM40.8828 35.5345L37.6299 37.5232L38.3751 38.742L41.6279 36.7534L40.8828 35.5345ZM38.7168 38.1326V35.0928H37.2882V38.1326H38.7168ZM38.3797 35.6994L41.9663 33.4693L41.212 32.2561L37.6253 34.4862L38.3797 35.6994ZM41.5891 33.577H44.8491V32.1484H41.5891V33.577Z" fill="white" fill-opacity="0.25"/>
</g>
</g>
<rect x="1.06074" y="1.04982" width="53.9" height="53.9" rx="7.35" stroke="white" stroke-opacity="0.15" stroke-width="2.1"/>
<defs>
<filter id="filter0_d_40_468" x="2.29646" y="-0.335013" width="51.4286" height="55.8349" filterUnits="userSpaceOnUse" color-interpolation-filters="sRGB">
<feFlood flood-opacity="0" result="BackgroundImageFix"/>
<feColorMatrix in="SourceAlpha" type="matrix" values="0 0 0 0 0 0 0 0 0 0 0 0 0 0 0 0 0 0 127 0" result="hardAlpha"/>
<feOffset/>
<feGaussianBlur stdDeviation="2.85714"/>
<feComposite in2="hardAlpha" operator="out"/>
<feColorMatrix type="matrix" values="0 0 0 0 0 0 0 0 0 0 0 0 0 0 0 0 0 0 0.25 0"/>
<feBlend mode="normal" in2="BackgroundImageFix" result="effect1_dropShadow_40_468"/>
<feBlend mode="normal" in="SourceGraphic" in2="effect1_dropShadow_40_468" result="shape"/>
</filter>
<linearGradient id="paint0_linear_40_468" x1="28.0107" y1="-0.000183105" x2="28.0107" y2="55.9998" gradientUnits="userSpaceOnUse">
<stop stop-color="#2F1A07"/>
<stop offset="1" stop-color="#111A21"/>
</linearGradient>
<clipPath id="clip0_40_468">
<rect x="0.0107422" y="-0.000183105" width="56" height="56" rx="8.4" fill="white"/>
</clipPath>
</defs>
</svg>
