<svg width="57" height="56" viewBox="0 0 57 56" fill="none" xmlns="http://www.w3.org/2000/svg">
<rect x="0.0107422" y="-9.15527e-05" width="56" height="56" rx="8.4" fill="url(#paint0_linear_40_637)"/>
<g filter="url(#filter0_d_40_637)">
<path d="M12.7135 44.7561C12.1063 44.4957 11.5556 44.1372 11.0667 43.6827C9.03683 41.7923 8.81686 38.7932 10.449 36.8079L10.4271 36.7869L10.7432 36.4833L35.7376 11.9032C36.1108 11.5386 36.4774 10.4523 36.6397 9.82828C36.6716 9.6768 36.7251 9.55207 36.8225 9.44038L36.8527 9.40861L36.8737 9.38849L36.8786 9.377L36.9077 9.35255C37.3017 8.95413 38.0019 8.96877 38.9756 9.38629C40.1499 9.88986 41.6232 10.9296 43.0237 12.2355C44.1984 13.3356 45.1964 14.5058 45.8146 15.5209C46.5484 16.7099 46.6829 17.5525 46.2038 18.0193L46.1181 18.07L46.0796 18.0826C45.9581 18.1491 45.8381 18.2122 45.7017 18.2412C44.9631 18.451 43.8513 18.8758 43.5709 19.1636L18.2826 44.1112L18.2589 44.0894C16.7298 45.2756 14.6208 45.5545 12.723 44.7485L12.7125 44.744L12.7135 44.7561ZM11.5138 37.0178L11.4438 37.0849C9.81856 38.7215 9.92695 41.4026 11.6999 43.0586C12.0989 43.4337 12.553 43.7236 13.0521 43.9376C14.7464 44.6641 16.657 44.3468 17.9257 43.113L18.0157 43.033L42.8896 18.5509C43.4188 18.02 45.0732 17.5054 45.4002 17.4124L45.4394 17.3981C45.4709 17.3825 45.4848 17.3885 45.4954 17.3639C45.5376 17.2654 45.5789 16.8751 44.9774 15.8885C44.3949 14.9393 43.4704 13.8434 42.3622 12.8145C41.0785 11.6267 39.6565 10.607 38.6095 10.1581C37.929 9.86625 37.6375 9.90056 37.5698 9.95706L37.5417 10.0227C37.4964 10.2054 37.0698 11.8313 36.4162 12.4837L11.5159 37.0128L11.5138 37.0178V37.0178ZM35.2292 24.8293C35.2292 24.8293 32.7666 25.9281 30.9513 25.9269C29.1356 25.9216 28.077 25.2637 26.3709 25.4317C24.6698 25.5979 23.5217 26.353 23.5217 26.353L12.027 37.6711C10.7554 38.96 10.8774 41.1612 12.287 42.4845C13.7024 43.8084 15.9311 43.814 17.2389 42.5562L35.2292 24.8293V24.8293ZM19.5979 37.527C19.8082 37.5376 19.9905 37.6954 19.9882 37.8984C19.9883 38.1005 19.8319 38.2627 19.6191 38.2531C19.4074 38.2459 19.2265 38.0848 19.2282 37.8834C19.2232 37.6928 19.3802 37.5289 19.5979 37.527ZM19.0967 33.8109C18.7836 33.8088 18.5139 33.561 18.513 33.2595C18.4978 32.9576 18.7481 32.7113 19.0611 32.7231C19.3791 32.7235 19.6457 32.9738 19.6479 33.272C19.6715 33.5736 19.4409 33.7934 19.103 33.7961L19.0967 33.8109ZM20.367 32.2261C20.3551 31.6615 20.8055 31.2037 21.4013 31.1969C21.9858 31.2066 22.4744 31.657 22.5094 32.2258C22.5172 32.7906 22.0703 33.2499 21.4794 33.2549C20.8672 33.2372 20.3818 32.7843 20.345 32.2148L20.367 32.2261V32.2261ZM26.1893 30.3356C26.5084 30.3286 26.7739 30.5862 26.7783 30.8795C26.792 31.1847 26.5418 31.431 26.2305 31.4199C25.9108 31.4188 25.6424 31.1677 25.6433 30.867C25.6212 30.5621 25.8784 30.3188 26.1914 30.3306L26.1893 30.3356V30.3356ZM24.9036 27.1049C25.1164 27.1145 25.2979 27.274 25.2939 27.4762C25.2957 27.6791 25.1348 27.8472 24.9252 27.835C24.7141 27.8261 24.5308 27.6659 24.536 27.466C24.5338 27.2591 24.7062 27.098 24.9036 27.1049V27.1049ZM38.5869 11.4346C38.945 11.0811 40.4336 11.9117 41.909 13.2982C43.3819 14.6759 44.2863 16.0838 43.9299 16.4381C43.5626 16.7935 42.0747 15.9612 40.6025 14.5819C39.1197 13.198 38.2171 11.7909 38.5823 11.4307L38.5876 11.4329L38.5869 11.4346Z" fill="#FF0000"/>
</g>
<rect x="1.06074" y="1.04991" width="53.9" height="53.9" rx="7.35" stroke="white" stroke-opacity="0.15" stroke-width="2.1"/>
<defs>
<filter id="filter0_d_40_637" x="2.29646" y="2.28562" width="51.4286" height="51.4286" filterUnits="userSpaceOnUse" color-interpolation-filters="sRGB">
<feFlood flood-opacity="0" result="BackgroundImageFix"/>
<feColorMatrix in="SourceAlpha" type="matrix" values="0 0 0 0 0 0 0 0 0 0 0 0 0 0 0 0 0 0 127 0" result="hardAlpha"/>
<feOffset/>
<feGaussianBlur stdDeviation="2.85714"/>
<feComposite in2="hardAlpha" operator="out"/>
<feColorMatrix type="matrix" values="0 0 0 0 0 0 0 0 0 0 0 0 0 0 0 0 0 0 0.25 0"/>
<feBlend mode="normal" in2="BackgroundImageFix" result="effect1_dropShadow_40_637"/>
<feBlend mode="normal" in="SourceGraphic" in2="effect1_dropShadow_40_637" result="shape"/>
</filter>
<linearGradient id="paint0_linear_40_637" x1="28.0107" y1="-9.15527e-05" x2="28.0107" y2="55.9999" gradientUnits="userSpaceOnUse">
<stop stop-color="#360A0A"/>
<stop offset="1" stop-color="#1E0505"/>
</linearGradient>
</defs>
</svg>
