<svg width="57" height="56" viewBox="0 0 57 56" fill="none" xmlns="http://www.w3.org/2000/svg">
<rect x="0.0107422" y="-0.000244141" width="56" height="56" rx="8.4" fill="url(#paint0_linear_2_1192)"/>
<g filter="url(#filter0_d_2_1192)">
<path d="M12.1797 12.1522C12.986 11.3064 13.9529 10.6299 15.0238 10.1622C16.0947 9.69449 17.2481 9.44501 18.4165 9.42834L37.9162 9.42834C40.0365 9.42834 42.0174 10.3569 43.8435 12.1522C44.693 12.9271 45.3744 13.868 45.8456 14.9169C46.3167 15.9657 46.5676 17.1001 46.5828 18.2498V38.0129C46.5828 40.0867 45.7161 42.0057 43.9828 43.7855C43.1696 44.6437 42.1941 45.3318 41.1128 45.81C40.0316 46.2882 38.8661 46.547 37.6841 46.5712H18.5248C16.1869 46.5483 13.935 45.686 12.1797 44.1414C10.5083 42.6248 9.59518 40.4272 9.44042 37.4867V18.2962C9.42775 17.1353 9.66594 15.9853 10.1387 14.9249C10.6115 13.8645 11.3077 12.9187 12.1797 12.1522ZM21.8522 24.9974L34.1246 40.5664H37.4055C38.1639 40.4736 38.7674 40.2569 39.2162 39.901C39.6805 39.545 39.99 39.0343 40.2067 38.3533V30.7081C40.3305 29.2379 41.2436 28.3248 42.9459 27.9998C41.2436 27.3807 40.3305 26.4212 40.2067 25.1212V17.8164C40.021 17.1355 39.696 16.5783 39.2162 16.1605C38.7504 15.7373 38.1568 15.4814 37.5293 15.4331H34.202V31.2188L21.8522 15.4176H18.401C17.5344 15.5724 16.8998 15.8819 16.4665 16.3462C16.0332 16.8105 15.7546 17.5533 15.6308 18.5593V26.0653C15.0892 27.1331 14.238 27.7676 13.0773 27.9998C14.3927 28.2474 15.2439 28.9438 15.6308 30.1045V37.4867C15.6618 38.3379 15.9403 39.0343 16.4665 39.6069C16.9772 40.1641 17.5498 40.4272 18.1689 40.3807H21.8212L21.8522 24.9974Z" fill="#3655FF"/>
</g>
<rect x="1.06074" y="1.04976" width="53.9" height="53.9" rx="7.35" stroke="white" stroke-opacity="0.15" stroke-width="2.1"/>
<defs>
<filter id="filter0_d_2_1192" x="2.29646" y="2.28547" width="51.4286" height="51.4286" filterUnits="userSpaceOnUse" color-interpolation-filters="sRGB">
<feFlood flood-opacity="0" result="BackgroundImageFix"/>
<feColorMatrix in="SourceAlpha" type="matrix" values="0 0 0 0 0 0 0 0 0 0 0 0 0 0 0 0 0 0 127 0" result="hardAlpha"/>
<feOffset/>
<feGaussianBlur stdDeviation="2.85714"/>
<feComposite in2="hardAlpha" operator="out"/>
<feColorMatrix type="matrix" values="0 0 0 0 0 0 0 0 0 0 0 0 0 0 0 0 0 0 0.25 0"/>
<feBlend mode="normal" in2="BackgroundImageFix" result="effect1_dropShadow_2_1192"/>
<feBlend mode="normal" in="SourceGraphic" in2="effect1_dropShadow_2_1192" result="shape"/>
</filter>
<linearGradient id="paint0_linear_2_1192" x1="28.0107" y1="-0.000244141" x2="28.0107" y2="55.9997" gradientUnits="userSpaceOnUse">
<stop stop-color="#0D1439"/>
<stop offset="1" stop-color="#060B24"/>
</linearGradient>
</defs>
</svg>
