<svg width="57" height="56" viewBox="0 0 57 56" fill="none" xmlns="http://www.w3.org/2000/svg">
<rect x="0.0107422" y="-0.000244141" width="56" height="56" rx="8.4" fill="url(#paint0_linear_2_1252)"/>
<g filter="url(#filter0_d_2_1252)">
<path d="M27.2981 7.99976C27.0042 7.99976 26.7817 8.00192 26.7007 8.01092C26.6147 8.01976 26.3409 8.04592 26.0947 8.06559C20.4133 8.57776 15.0918 11.6428 11.7213 16.3536C9.84442 18.9731 8.64408 21.9441 8.19074 25.0914C8.03041 26.1898 8.01074 26.5143 8.01074 28.0038C8.01074 29.4933 8.03074 29.8178 8.19074 30.9164C9.27742 38.4264 14.6226 44.7363 21.872 47.0739C23.1702 47.4924 24.5387 47.7778 26.0949 47.9498C26.7009 48.0164 29.3206 48.0164 29.9266 47.9498C32.6128 47.6526 34.8886 46.9881 37.1328 45.8426C37.477 45.6666 37.5435 45.6198 37.4967 45.5804C37.4653 45.5573 35.9988 43.5908 34.2395 41.2138L31.0411 36.8938L27.0332 30.9633C24.828 27.7026 23.0137 25.0366 22.998 25.0366C22.9824 25.0323 22.9669 27.6678 22.9589 30.8849C22.9477 36.5186 22.9434 36.7453 22.8729 36.8783C22.7712 37.0699 22.6929 37.1479 22.5289 37.2339C22.4039 37.2963 22.2942 37.3081 21.7039 37.3081H21.0272L20.8475 37.1948C20.7361 37.125 20.6456 37.0264 20.5855 36.9094L20.5033 36.7334L20.5122 28.8951L20.5233 21.0528L20.6443 20.9003C20.707 20.8181 20.84 20.7128 20.9337 20.6619C21.094 20.5836 21.1567 20.5758 21.833 20.5758C22.6309 20.5758 22.7637 20.6069 22.9709 20.8336C23.0297 20.8964 25.1997 24.1648 27.7959 28.1016C30.4246 32.0863 33.0548 36.07 35.6866 40.0526L38.8537 44.8496L39.0137 44.7441C40.4333 43.8214 41.9345 42.5078 43.1232 41.1396C45.6531 38.2348 47.2837 34.6929 47.8311 30.9163C47.9912 29.8178 48.0107 29.4929 48.0107 28.0038C48.0107 26.5143 47.9907 26.1898 47.8311 25.0911C46.7441 17.5811 41.399 11.2713 34.1498 8.93359C32.8711 8.51909 31.5104 8.23359 29.9856 8.06159C29.7039 8.03226 28.1797 8.00059 27.2984 7.99992L27.2981 7.99976ZM34.079 20.0281C34.6578 20.0281 34.7593 20.0369 34.8885 20.1064C35.0763 20.2001 35.2285 20.3801 35.2835 20.5676C35.3145 20.6693 35.3225 22.8431 35.3145 27.7416L35.3033 34.7708L34.064 32.8708L32.8204 30.9708V25.8608C32.8204 22.5574 32.8359 20.7003 32.8594 20.6104C32.9219 20.3916 33.0588 20.2194 33.2466 20.1179C33.4068 20.0356 33.4655 20.0279 34.0795 20.0279L34.079 20.0281Z" fill="white"/>
</g>
<rect x="1.06074" y="1.04976" width="53.9" height="53.9" rx="7.35" stroke="white" stroke-opacity="0.15" stroke-width="2.1"/>
<defs>
<filter id="filter0_d_2_1252" x="2.29646" y="2.28547" width="51.4286" height="51.4286" filterUnits="userSpaceOnUse" color-interpolation-filters="sRGB">
<feFlood flood-opacity="0" result="BackgroundImageFix"/>
<feColorMatrix in="SourceAlpha" type="matrix" values="0 0 0 0 0 0 0 0 0 0 0 0 0 0 0 0 0 0 127 0" result="hardAlpha"/>
<feOffset/>
<feGaussianBlur stdDeviation="2.85714"/>
<feComposite in2="hardAlpha" operator="out"/>
<feColorMatrix type="matrix" values="0 0 0 0 0 0 0 0 0 0 0 0 0 0 0 0 0 0 0.25 0"/>
<feBlend mode="normal" in2="BackgroundImageFix" result="effect1_dropShadow_2_1252"/>
<feBlend mode="normal" in="SourceGraphic" in2="effect1_dropShadow_2_1252" result="shape"/>
</filter>
<linearGradient id="paint0_linear_2_1252" x1="28.0107" y1="-0.000244141" x2="28.0107" y2="55.9997" gradientUnits="userSpaceOnUse">
<stop stop-color="#1E1E1E"/>
<stop offset="1" stop-color="#0D0D0D"/>
</linearGradient>
</defs>
</svg>
