<svg width="57" height="56" viewBox="0 0 57 56" fill="none" xmlns="http://www.w3.org/2000/svg">
<rect x="0.0107422" y="-0.00012207" width="56" height="56" rx="8" fill="url(#paint0_linear_2_3734)"/>
<rect x="1.06074" y="1.04988" width="53.9" height="53.9" rx="6.95" stroke="white" stroke-opacity="0.15" stroke-width="2.1"/>
<g filter="url(#filter0_d_2_3734)">
<g clip-path="url(#clip0_2_3734)">
<path fill-rule="evenodd" clip-rule="evenodd" d="M28.0108 7.99978C39.0566 7.99978 48.0108 16.9541 48.0108 27.9999C48.0108 39.0456 39.0566 47.9999 28.0108 47.9999C16.9651 47.9999 8.01074 39.0456 8.01074 27.9999C8.01074 16.9541 16.9651 7.99978 28.0108 7.99978Z" fill="#CD6699"/>
<path d="M24.036 34.662C24.327 35.7383 24.2951 36.7421 23.9946 37.6511C23.9612 37.752 23.9244 37.8519 23.8845 37.9506C23.8446 38.0492 23.8013 38.1466 23.755 38.2428C23.5232 38.7237 23.2121 39.1739 22.8312 39.5894C21.6692 40.8571 20.0456 41.3365 19.3494 40.9326C18.5976 40.4968 18.9742 38.7094 20.3215 37.2853C21.7709 35.753 23.8563 34.7679 23.8563 34.7679L23.8531 34.7617C23.9132 34.7294 23.9742 34.6961 24.036 34.662ZM40.5561 16.5601C39.6504 13.008 33.7607 11.8404 28.1864 13.8208C24.869 14.9992 21.2777 16.849 18.6955 19.2643C15.6252 22.1361 15.1356 24.6356 15.3374 25.68C16.0493 29.3652 21.0988 31.7741 23.1746 33.5613V33.5721C22.5625 33.8734 18.0825 36.1406 17.0341 38.4584C15.9279 40.9037 17.2102 42.6584 18.0592 42.8946C20.6896 43.6264 23.3888 42.3101 24.8394 40.1464C26.2393 38.0583 26.1227 35.362 25.5144 34.0207C26.3536 33.7993 27.3319 33.7001 28.5752 33.8454C32.0836 34.2552 32.7719 36.4458 32.6403 37.3624C32.5088 38.2793 31.7729 38.7834 31.5269 38.9356C31.2808 39.0878 31.2057 39.1405 31.2264 39.2536C31.2562 39.4181 31.3701 39.412 31.5799 39.3765C31.8687 39.3278 33.4222 38.6308 33.4886 36.9384C33.5732 34.7898 31.5141 32.3863 27.8683 32.4491C26.3668 32.475 25.4227 32.6178 24.7407 32.8717C24.6903 32.8142 24.639 32.7571 24.5859 32.7005C22.332 30.2957 18.1653 28.5947 18.342 25.3618C18.4062 24.1866 18.8147 21.0918 26.3483 17.3378C32.5196 14.2627 37.46 15.109 38.3138 16.9844C39.5333 19.6637 35.6734 24.6435 29.2645 25.3618C26.8227 25.6356 25.5371 24.6892 25.2173 24.3368C24.8805 23.9658 24.8304 23.949 24.7047 24.0186C24.4998 24.132 24.6296 24.4596 24.7047 24.6549C24.896 25.1529 25.6812 26.036 27.02 26.4753C28.1976 26.8618 31.0645 27.0741 34.5315 25.733C38.4145 24.231 41.4467 20.0527 40.5561 16.5601Z" fill="white"/>
</g>
</g>
<defs>
<filter id="filter0_d_2_3734" x="2.29646" y="2.28559" width="51.4286" height="51.4286" filterUnits="userSpaceOnUse" color-interpolation-filters="sRGB">
<feFlood flood-opacity="0" result="BackgroundImageFix"/>
<feColorMatrix in="SourceAlpha" type="matrix" values="0 0 0 0 0 0 0 0 0 0 0 0 0 0 0 0 0 0 127 0" result="hardAlpha"/>
<feOffset/>
<feGaussianBlur stdDeviation="2.85714"/>
<feComposite in2="hardAlpha" operator="out"/>
<feColorMatrix type="matrix" values="0 0 0 0 0 0 0 0 0 0 0 0 0 0 0 0 0 0 0.25 0"/>
<feBlend mode="normal" in2="BackgroundImageFix" result="effect1_dropShadow_2_3734"/>
<feBlend mode="normal" in="SourceGraphic" in2="effect1_dropShadow_2_3734" result="shape"/>
</filter>
<linearGradient id="paint0_linear_2_3734" x1="28.0107" y1="-0.00012207" x2="28.0107" y2="55.9999" gradientUnits="userSpaceOnUse">
<stop stop-color="#442132"/>
<stop offset="1" stop-color="#26121C"/>
</linearGradient>
<clipPath id="clip0_2_3734">
<rect width="40" height="40" fill="white" transform="translate(8.01074 7.99988)"/>
</clipPath>
</defs>
</svg>
