<svg width="57" height="56" viewBox="0 0 57 56" fill="none" xmlns="http://www.w3.org/2000/svg">
<rect x="0.0107422" y="-0.000244141" width="56" height="56" rx="8.4" fill="url(#paint0_linear_2_1185)"/>
<g filter="url(#filter0_d_2_1185)">
<path d="M9.88574 7.99976C8.84741 7.99976 8.01074 8.83642 8.01074 9.87476V46.1248C8.01074 47.1631 8.84741 47.9998 9.88574 47.9998H46.1357C47.1741 47.9998 48.0107 47.1631 48.0107 46.1248V9.87476C48.0107 8.83642 47.1741 7.99976 46.1357 7.99976H9.88574ZM38.8241 24.2498C39.8441 24.2498 40.7474 24.3114 41.5357 24.4348C42.2793 24.5462 43.0089 24.7361 43.7124 25.0014V29.0981C43.3747 28.8646 43.0159 28.6631 42.6407 28.4964C42.2538 28.3223 41.8543 28.1775 41.4457 28.0631C40.6717 27.8474 39.8725 27.7353 39.0691 27.7298C38.5691 27.7298 38.1141 27.7764 37.7041 27.8731C37.3386 27.9512 36.9881 28.0874 36.6657 28.2764C36.3824 28.4498 36.1657 28.6581 36.0107 28.8998C35.8548 29.1433 35.7737 29.4272 35.7774 29.7164C35.7774 30.0431 35.8657 30.3381 36.0374 30.5981C36.2107 30.8581 36.4574 31.1048 36.7757 31.3381C37.0941 31.5714 37.4807 31.7981 37.9357 32.0214C38.3907 32.2464 38.9057 32.4781 39.4791 32.7148C40.2624 33.0431 40.9657 33.3931 41.5891 33.7614C42.2124 34.1314 42.7474 34.5498 43.1941 35.0164C43.6407 35.4814 43.9807 36.0131 44.2174 36.6114C44.4541 37.2098 44.5741 37.9048 44.5741 38.6998C44.5741 39.7948 44.3657 40.7164 43.9524 41.4598C43.5486 42.1929 42.969 42.8142 42.2657 43.2681C41.5077 43.7487 40.6676 44.0855 39.7874 44.2614C38.8441 44.4614 37.8491 44.5614 36.8041 44.5614C35.7756 44.5659 34.7489 44.4744 33.7374 44.2881C32.8623 44.1367 32.0136 43.86 31.2174 43.4664V39.0831C32.7237 40.365 34.6345 41.0733 36.6124 41.0831C37.1674 41.0831 37.6524 41.0331 38.0657 40.9331C38.4807 40.8331 38.8257 40.6931 39.1041 40.5164C39.3807 40.3364 39.5874 40.1264 39.7257 39.8831C39.8786 39.5998 39.9482 39.279 39.9264 38.9578C39.9045 38.6366 39.7922 38.3281 39.6024 38.0681C39.3548 37.7404 39.0519 37.4584 38.7074 37.2348C38.2802 36.9516 37.8303 36.704 37.3624 36.4948C36.8078 36.2415 36.2483 35.9992 35.6841 35.7681C34.1541 35.1298 33.0141 34.3481 32.2624 33.4264C31.5124 32.5048 31.1357 31.3898 31.1357 30.0848C31.1357 29.0614 31.3407 28.1831 31.7507 27.4481C32.1607 26.7131 32.7174 26.1081 33.4241 25.6331C34.1715 25.14 35.0013 24.7849 35.8741 24.5848C36.8407 24.3569 37.831 24.2444 38.8241 24.2498ZM13.6357 24.5631H29.5741V28.1731H23.8541V44.2498H19.3257V28.1731H13.6357V24.5631Z" fill="#3178C6"/>
</g>
<rect x="1.06074" y="1.04976" width="53.9" height="53.9" rx="7.35" stroke="white" stroke-opacity="0.15" stroke-width="2.1"/>
<defs>
<filter id="filter0_d_2_1185" x="2.29646" y="2.28547" width="51.4286" height="51.4286" filterUnits="userSpaceOnUse" color-interpolation-filters="sRGB">
<feFlood flood-opacity="0" result="BackgroundImageFix"/>
<feColorMatrix in="SourceAlpha" type="matrix" values="0 0 0 0 0 0 0 0 0 0 0 0 0 0 0 0 0 0 127 0" result="hardAlpha"/>
<feOffset/>
<feGaussianBlur stdDeviation="2.85714"/>
<feComposite in2="hardAlpha" operator="out"/>
<feColorMatrix type="matrix" values="0 0 0 0 0 0 0 0 0 0 0 0 0 0 0 0 0 0 0.25 0"/>
<feBlend mode="normal" in2="BackgroundImageFix" result="effect1_dropShadow_2_1185"/>
<feBlend mode="normal" in="SourceGraphic" in2="effect1_dropShadow_2_1185" result="shape"/>
</filter>
<linearGradient id="paint0_linear_2_1185" x1="28.0107" y1="-0.000244141" x2="28.0107" y2="55.9997" gradientUnits="userSpaceOnUse">
<stop stop-color="#0C1F34"/>
<stop offset="1" stop-color="#051220"/>
</linearGradient>
</defs>
</svg>
