<svg width="57" height="56" viewBox="0 0 57 56" fill="none" xmlns="http://www.w3.org/2000/svg">
<rect x="0.0107422" y="-0.000244141" width="56" height="56" rx="8.4" fill="url(#paint0_linear_2_1199)"/>
<g filter="url(#filter0_d_2_1199)">
<path d="M32.5857 7.99976C32.5857 8.06976 32.5857 8.14142 32.5857 8.21476C32.5857 10.7481 30.5324 12.8014 27.9991 12.8014C25.4657 12.8014 23.4124 10.7481 23.4124 8.21476C23.4124 8.13976 23.4124 8.06976 23.4124 7.99976H8.01074V47.9998H48.0107V7.99976H32.5857ZM27.1007 43.7181L25.1524 34.0798H25.1191L23.0124 43.7181H20.3274L17.2874 29.5564H19.9374L21.7507 39.1948H21.7841L23.9691 29.5564H26.4474L28.4091 39.3131H28.4424L30.5124 29.5564H33.1141L29.7357 43.7181H27.1007ZM41.6924 43.7181L40.7891 40.5664H36.0207L35.3257 43.7181H32.6757L36.1024 29.5564H40.2841L44.4507 43.7181H41.6924V43.7181ZM37.6974 33.0464L36.5407 38.2431H40.1391L38.8124 33.0464H37.6974Z" fill="#654FF0"/>
</g>
<rect x="1.06074" y="1.04976" width="53.9" height="53.9" rx="7.35" stroke="white" stroke-opacity="0.15" stroke-width="2.1"/>
<defs>
<filter id="filter0_d_2_1199" x="2.29646" y="2.28547" width="51.4286" height="51.4286" filterUnits="userSpaceOnUse" color-interpolation-filters="sRGB">
<feFlood flood-opacity="0" result="BackgroundImageFix"/>
<feColorMatrix in="SourceAlpha" type="matrix" values="0 0 0 0 0 0 0 0 0 0 0 0 0 0 0 0 0 0 127 0" result="hardAlpha"/>
<feOffset/>
<feGaussianBlur stdDeviation="2.85714"/>
<feComposite in2="hardAlpha" operator="out"/>
<feColorMatrix type="matrix" values="0 0 0 0 0 0 0 0 0 0 0 0 0 0 0 0 0 0 0.25 0"/>
<feBlend mode="normal" in2="BackgroundImageFix" result="effect1_dropShadow_2_1199"/>
<feBlend mode="normal" in="SourceGraphic" in2="effect1_dropShadow_2_1199" result="shape"/>
</filter>
<linearGradient id="paint0_linear_2_1199" x1="28.0107" y1="-0.000244141" x2="28.0107" y2="55.9997" gradientUnits="userSpaceOnUse">
<stop stop-color="#140E3A"/>
<stop offset="1" stop-color="#0A0622"/>
</linearGradient>
</defs>
</svg>
