<svg width="40" height="40" viewBox="0 0 40 40" fill="none" xmlns="http://www.w3.org/2000/svg">
<rect x="-0.000976562" y="-4.57764e-05" width="40" height="40" rx="6" fill="url(#paint0_linear_28_3563)"/>
<g filter="url(#filter0_d_28_3563)">
<path fill-rule="evenodd" clip-rule="evenodd" d="M10.6741 6.10964C10.4105 6.31221 10.366 6.67094 10.366 8.59253C10.366 10.0008 10.3397 10.5178 10.2658 10.564C10.2107 10.5985 9.45934 10.7417 8.59614 10.8823L7.02673 11.138L7.00472 13.233C6.98778 14.8463 7.00674 15.347 7.08718 15.4106C7.15779 15.4665 7.67244 15.4166 8.67574 15.2567C9.49203 15.1267 10.2065 15.0372 10.2635 15.0579C10.3457 15.0878 10.3627 16.5119 10.3459 21.9611L10.3248 28.8266L8.67574 28.8683L7.02673 28.91V31.455V34H14.2H21.3733V31.455V28.91L19.6831 28.8683L17.9928 28.8266L17.9718 21.3353C17.955 15.3853 17.972 13.8362 18.0542 13.8064C18.1606 13.7678 27.6411 12.2781 28.0107 12.2419C28.2057 12.2228 28.218 12.2467 28.2395 12.6807L28.2623 13.1396L26.6485 14.6416L25.0347 16.1434L24.5645 16.1852L24.0942 16.2269V17.8958V19.5646H28.5467H32.999V17.8958V16.2269L32.5687 16.2018L32.1384 16.1767L30.7754 14.6661L29.4124 13.1556V12.6362C29.4124 12.0189 29.4579 11.9699 30.1055 11.8906C30.7188 11.8155 30.8136 11.7778 30.8161 11.6079C30.8199 11.343 30.2137 7.54825 30.1572 7.48398C30.1258 7.44819 27.4012 7.85246 24.1027 8.38238C20.8041 8.91224 18.0707 9.32423 18.0284 9.2978C17.9861 9.27136 17.9516 8.67552 17.9516 7.97375C17.9516 6.64793 17.8773 6.22717 17.6185 6.08703C17.3793 5.95744 10.8445 5.97873 10.6741 6.10964ZM16.6143 8.37665C16.6405 9.59601 16.6549 9.56167 16.0697 9.67399L15.6365 9.75712L14.1556 8.57803C13.3411 7.92952 12.6747 7.36625 12.6747 7.32643C12.6747 7.28655 13.5559 7.26401 14.6329 7.27634L16.5911 7.29868L16.6143 8.37665ZM13.3343 9.49707C13.9526 9.99897 13.9323 10.0284 12.8463 10.2014C11.6122 10.398 11.6853 10.4537 11.6853 9.31784C11.6853 8.05128 11.5326 8.03466 13.3343 9.49707ZM16.6159 14.5381C16.6444 15.0906 16.6051 15.11 16.1696 14.758C15.9933 14.6155 15.7771 14.4474 15.6892 14.3844C15.4868 14.2396 15.5332 14.1954 15.9819 14.105C16.5661 13.9875 16.5882 14.0027 16.6159 14.5381ZM29.5922 15.1862C30.0148 15.6465 30.373 16.0595 30.3881 16.1041C30.4053 16.1549 29.7662 16.1852 28.6772 16.1852C27.7211 16.1852 26.9378 16.157 26.9367 16.1226C26.9341 16.0496 28.6844 14.3578 28.7677 14.3528C28.7985 14.351 29.1695 14.7261 29.5922 15.1862ZM14.468 14.9829C15.3751 15.7151 15.4109 15.6914 13.4374 15.6654L11.7265 15.6429L11.7006 15.2769C11.6662 14.7904 11.6818 14.7804 12.7661 14.6037C13.2827 14.5194 13.7238 14.4468 13.7465 14.4422C13.7692 14.4376 14.0939 14.6809 14.468 14.9829ZM16.6138 18.2921C16.6263 19.0149 16.6078 19.6058 16.5726 19.6051C16.4796 19.6035 13.3807 17.1163 13.3474 17.0167C13.3291 16.9616 13.8831 16.9404 14.9553 16.9552L16.5911 16.9779L16.6138 18.2921ZM13.5462 18.817C14.4679 19.5494 15.1936 20.1776 15.1587 20.213C15.1238 20.2484 14.3372 20.2672 13.4109 20.2547L11.7265 20.2321L11.7038 18.8268C11.6873 17.7989 11.7066 17.4301 11.7757 17.4535C11.8276 17.471 12.6244 18.0846 13.5462 18.817ZM16.614 22.8123C16.6266 23.4971 16.608 24.0841 16.5728 24.1167C16.5098 24.175 13.4024 21.749 13.3474 21.5987C13.3307 21.5531 13.9835 21.531 14.9553 21.5445L16.5911 21.5672L16.614 22.8123ZM13.5409 23.3757C14.4727 24.118 15.2035 24.7571 15.1651 24.796C15.1267 24.8348 14.3372 24.8564 13.4109 24.844L11.7265 24.8214L11.7039 23.4238C11.6894 22.5275 11.711 22.0261 11.7641 22.0261C11.8097 22.0261 12.6093 22.6334 13.5409 23.3757ZM16.6138 27.3872C16.6316 28.411 16.6133 28.7002 16.5314 28.6962C16.3949 28.6895 13.3979 26.2731 13.3533 26.1338C13.3264 26.0498 13.6612 26.0324 14.9553 26.0504L16.5911 26.073L16.6138 27.3872ZM14.5669 28.8077C14.5692 28.8432 13.931 28.8619 13.1488 28.8494L11.7265 28.8266L11.7032 27.7882C11.6904 27.2171 11.6986 26.7006 11.7214 26.6404C11.7619 26.5336 14.5577 28.663 14.5669 28.8077Z" fill="url(#paint1_linear_28_3563)"/>
</g>
<rect x="0.749023" y="0.749954" width="38.5" height="38.5" rx="5.25" stroke="white" stroke-opacity="0.15" stroke-width="1.5"/>
<defs>
<filter id="filter0_d_28_3563" x="1.99902" y="1.99995" width="36" height="36" filterUnits="userSpaceOnUse" color-interpolation-filters="sRGB">
<feFlood flood-opacity="0" result="BackgroundImageFix"/>
<feColorMatrix in="SourceAlpha" type="matrix" values="0 0 0 0 0 0 0 0 0 0 0 0 0 0 0 0 0 0 127 0" result="hardAlpha"/>
<feOffset/>
<feGaussianBlur stdDeviation="2"/>
<feComposite in2="hardAlpha" operator="out"/>
<feColorMatrix type="matrix" values="0 0 0 0 0 0 0 0 0 0 0 0 0 0 0 0 0 0 0.25 0"/>
<feBlend mode="normal" in2="BackgroundImageFix" result="effect1_dropShadow_28_3563"/>
<feBlend mode="normal" in="SourceGraphic" in2="effect1_dropShadow_28_3563" result="shape"/>
</filter>
<linearGradient id="paint0_linear_28_3563" x1="19.999" y1="-4.57764e-05" x2="19.999" y2="39.9999" gradientUnits="userSpaceOnUse">
<stop stop-color="#311D14"/>
<stop offset="1" stop-color="#1C0B0B"/>
</linearGradient>
<linearGradient id="paint1_linear_28_3563" x1="19.999" y1="5.99995" x2="19.999" y2="34" gradientUnits="userSpaceOnUse">
<stop stop-color="#E05718"/>
<stop offset="1" stop-color="#D63833"/>
</linearGradient>
</defs>
</svg>
