<svg width="40" height="40" viewBox="0 0 40 40" fill="none" xmlns="http://www.w3.org/2000/svg">
<rect x="-0.000976562" y="-6.10352e-05" width="40" height="40" rx="6" fill="url(#paint0_linear_28_3583)"/>
<g filter="url(#filter0_d_28_3583)">
<path d="M8.74902 25.7499V23.9999H13.999V25.7499H8.74902ZM13.999 23.9999V22.2499H15.749V23.9999H13.999ZM6.99902 23.9999V15.2499H8.74902V23.9999H6.99902ZM13.999 16.9999V15.2499H15.749V16.9999H13.999ZM8.74902 15.2499V13.4999H13.999V15.2499H8.74902ZM17.499 25.7499V23.9999H19.249V15.2499H17.499V13.4999H22.749V15.2499H20.999V23.9999H22.749V25.7499H17.499ZM27.999 25.7499V15.2499H24.499V13.4999H33.249V15.2499H29.749V25.7499H27.999Z" fill="white"/>
</g>
<rect x="0.749023" y="0.749939" width="38.5" height="38.5" rx="5.25" stroke="white" stroke-opacity="0.15" stroke-width="1.5"/>
<defs>
<filter id="filter0_d_28_3583" x="1.99902" y="1.99994" width="36" height="36" filterUnits="userSpaceOnUse" color-interpolation-filters="sRGB">
<feFlood flood-opacity="0" result="BackgroundImageFix"/>
<feColorMatrix in="SourceAlpha" type="matrix" values="0 0 0 0 0 0 0 0 0 0 0 0 0 0 0 0 0 0 127 0" result="hardAlpha"/>
<feOffset/>
<feGaussianBlur stdDeviation="2"/>
<feComposite in2="hardAlpha" operator="out"/>
<feColorMatrix type="matrix" values="0 0 0 0 0 0 0 0 0 0 0 0 0 0 0 0 0 0 0.25 0"/>
<feBlend mode="normal" in2="BackgroundImageFix" result="effect1_dropShadow_28_3583"/>
<feBlend mode="normal" in="SourceGraphic" in2="effect1_dropShadow_28_3583" result="shape"/>
</filter>
<linearGradient id="paint0_linear_28_3583" x1="19.999" y1="-6.10351e-05" x2="19.9991" y2="38" gradientUnits="userSpaceOnUse">
<stop stop-color="#343434"/>
<stop offset="1" stop-color="#232323"/>
</linearGradient>
</defs>
</svg>
