<svg width="40" height="40" viewBox="0 0 40 40" fill="none" xmlns="http://www.w3.org/2000/svg">
<g clip-path="url(#clip0_28_3542)">
<rect x="-0.000976562" y="-2.28882e-05" width="40" height="40" rx="6" fill="url(#paint0_linear_28_3542)"/>
<g filter="url(#filter0_d_28_3542)">
<path d="M13.784 9.87547C13.7842 10.0067 13.8363 10.1324 13.9291 10.2252C14.0219 10.318 14.1477 10.3701 14.2788 10.3703H15.1202V12.251H14.2788C14.1476 12.251 14.0218 12.3031 13.929 12.3959C13.8362 12.4887 13.784 12.6145 13.784 12.7458C13.784 12.877 13.8362 13.0028 13.929 13.0956C14.0218 13.1884 14.1476 13.2406 14.2788 13.2406H15.1202V14.6829C15.1202 14.7991 15.074 14.9106 14.9918 14.9929C14.9096 15.0751 14.7981 15.1213 14.6818 15.1213H13.2395V14.2799C13.2395 14.1486 13.1874 14.0228 13.0946 13.93C13.0018 13.8372 12.876 13.7851 12.7448 13.7851C12.6135 13.7851 12.4877 13.8372 12.3949 13.93C12.3021 14.0228 12.25 14.1486 12.25 14.2799V15.1213H10.3693V14.2799C10.3693 14.1486 10.3172 14.0228 10.2244 13.93C10.1316 13.8372 10.0057 13.7851 9.87449 13.7851C9.74327 13.7851 9.61741 13.8372 9.52462 13.93C9.43183 14.0228 9.3797 14.1486 9.3797 14.2799V15.1213H7.9374C7.82118 15.1211 7.70975 15.0749 7.62756 14.9927C7.54538 14.9105 7.49915 14.7991 7.49902 14.6829V7.93836C7.49902 7.82209 7.54521 7.71059 7.62742 7.62838C7.70963 7.54616 7.82114 7.49998 7.9374 7.49998H14.6818C14.7394 7.49991 14.7965 7.51121 14.8497 7.53322C14.9029 7.55523 14.9512 7.58752 14.992 7.62824C15.0327 7.66896 15.065 7.71731 15.087 7.77052C15.109 7.82374 15.1203 7.88077 15.1202 7.93836V9.3802H14.2788C14.1476 9.38033 14.0217 9.43256 13.9289 9.52543C13.8362 9.6183 13.784 9.7442 13.784 9.87547V9.87547Z" fill="#9722FF"/>
<path d="M22.3939 9.87547C22.3939 10.0067 22.4461 10.1326 22.5389 10.2253C22.6317 10.3181 22.7575 10.3703 22.8887 10.3703H23.7325V12.251H22.8911C22.7599 12.251 22.634 12.3031 22.5413 12.3959C22.4485 12.4887 22.3963 12.6145 22.3963 12.7458C22.3963 12.877 22.4485 13.0028 22.5413 13.0956C22.634 13.1884 22.7599 13.2406 22.8911 13.2406H23.7325V14.6829C23.7324 14.7991 23.6862 14.9105 23.604 14.9927C23.5218 15.0749 23.4104 15.1211 23.2941 15.1213H16.5487C16.4325 15.1213 16.321 15.0751 16.2387 14.9929C16.1565 14.9106 16.1104 14.7991 16.1104 14.6829V13.2406H16.9513C17.0825 13.2406 17.2083 13.1884 17.3011 13.0956C17.3939 13.0028 17.446 12.877 17.446 12.7458C17.446 12.6145 17.3939 12.4887 17.3011 12.3959C17.2083 12.3031 17.0825 12.251 16.9513 12.251H16.1104V10.3703H16.9513C17.0176 10.3723 17.0836 10.361 17.1455 10.3371C17.2073 10.3131 17.2637 10.277 17.3114 10.2308C17.359 10.1847 17.3969 10.1294 17.4227 10.0683C17.4486 10.0072 17.4619 9.94157 17.4619 9.87523C17.4619 9.8089 17.4486 9.74324 17.4227 9.68215C17.3969 9.62106 17.359 9.5658 17.3114 9.51962C17.2637 9.47345 17.2073 9.43732 17.1455 9.41337C17.0836 9.38942 17.0176 9.37814 16.9513 9.3802H16.1104V7.93836C16.1103 7.88077 16.1216 7.82374 16.1436 7.77052C16.1656 7.71731 16.1979 7.66896 16.2386 7.62824C16.2793 7.58752 16.3277 7.55523 16.3809 7.53322C16.4341 7.51121 16.4911 7.49991 16.5487 7.49998H23.2932C23.4094 7.49998 23.5209 7.54616 23.6032 7.62838C23.6854 7.71059 23.7315 7.82209 23.7315 7.93836V9.3802H22.8902C22.825 9.38001 22.7605 9.39268 22.7003 9.4175C22.64 9.44231 22.5853 9.47877 22.5392 9.52478C22.4931 9.5708 22.4565 9.62546 22.4316 9.68564C22.4067 9.74582 22.3939 9.81033 22.3939 9.87547V9.87547Z" fill="#DC29DD"/>
<path d="M32.3424 7.93836V14.6829C32.3424 14.7991 32.2962 14.9106 32.214 14.9929C32.1318 15.0751 32.0203 15.1213 31.904 15.1213H30.4617V14.2799C30.4617 14.1486 30.4096 14.0228 30.3168 13.93C30.224 13.8372 30.0981 13.7851 29.9669 13.7851C29.8357 13.7851 29.7098 13.8372 29.6171 13.93C29.5243 14.0228 29.4721 14.1486 29.4721 14.2799V15.1213H27.5914V14.2799C27.5914 14.1486 27.5393 14.0228 27.4465 13.93C27.3537 13.8372 27.2279 13.7851 27.0967 13.7851C26.9654 13.7851 26.8396 13.8372 26.7468 13.93C26.654 14.0228 26.6019 14.1486 26.6019 14.2799V15.1213H25.1596C25.0433 15.1211 24.9319 15.0749 24.8497 14.9927C24.7675 14.9105 24.7213 14.7991 24.7212 14.6829V13.2406H25.5626C25.6938 13.2406 25.8197 13.1884 25.9124 13.0956C26.0052 13.0028 26.0574 12.877 26.0574 12.7458C26.0574 12.6145 26.0052 12.4887 25.9124 12.3959C25.8197 12.3031 25.6938 12.251 25.5626 12.251H24.7212V10.3703H25.5626C25.6912 10.3663 25.8132 10.3124 25.9028 10.22C25.9924 10.1276 26.0425 10.0039 26.0425 9.87523C26.0425 9.74654 25.9924 9.6229 25.9028 9.5305C25.8132 9.4381 25.6912 9.3842 25.5626 9.3802H24.7212V7.93836C24.7212 7.82209 24.7674 7.71059 24.8496 7.62838C24.9318 7.54616 25.0433 7.49998 25.1596 7.49998H31.904C31.9616 7.49991 32.0186 7.51121 32.0718 7.53322C32.1251 7.55523 32.1734 7.58752 32.2141 7.62824C32.2549 7.66896 32.2871 7.71731 32.3091 7.77052C32.3312 7.82374 32.3425 7.88077 32.3424 7.93836Z" fill="#27A2FD"/>
<path d="M15.1202 16.5492V23.2937C15.1203 23.3513 15.109 23.4084 15.087 23.4616C15.065 23.5148 15.0327 23.5631 14.992 23.6039C14.9512 23.6446 14.9029 23.6769 14.8497 23.6989C14.7965 23.7209 14.7394 23.7322 14.6818 23.7321H13.2395V22.8907C13.2395 22.7595 13.1874 22.6336 13.0946 22.5409C13.0018 22.4481 12.876 22.3959 12.7448 22.3959C12.6135 22.3959 12.4877 22.4481 12.3949 22.5409C12.3021 22.6336 12.25 22.7595 12.25 22.8907V23.7331H10.3693V22.8917C10.3693 22.7605 10.3172 22.6346 10.2244 22.5418C10.1316 22.449 10.0057 22.3969 9.87449 22.3969C9.74327 22.3969 9.61741 22.449 9.52462 22.5418C9.43183 22.6346 9.3797 22.7605 9.3797 22.8917V23.7331H7.9374C7.82114 23.7331 7.70963 23.6869 7.62742 23.6047C7.54521 23.5225 7.49902 23.411 7.49902 23.2947V16.5492C7.49915 16.433 7.54538 16.3216 7.62756 16.2394C7.70975 16.1572 7.82118 16.111 7.9374 16.1108H9.3797V16.9522C9.3797 17.0835 9.43183 17.2093 9.52462 17.3021C9.61741 17.3949 9.74327 17.447 9.87449 17.447C10.0057 17.447 10.1316 17.3949 10.2244 17.3021C10.3172 17.2093 10.3693 17.0835 10.3693 16.9522V16.1108H12.25V16.9522C12.25 17.0835 12.3021 17.2093 12.3949 17.3021C12.4877 17.3949 12.6135 17.447 12.7448 17.447C12.876 17.447 13.0018 17.3949 13.0946 17.3021C13.1874 17.2093 13.2395 17.0835 13.2395 16.9522V16.1108H14.6818C14.7394 16.1108 14.7964 16.1222 14.8496 16.1442C14.9028 16.1662 14.9511 16.1985 14.9918 16.2392C15.0325 16.2799 15.0648 16.3283 15.0869 16.3815C15.1089 16.4346 15.1202 16.4917 15.1202 16.5492V16.5492Z" fill="#DC29DD"/>
<path d="M22.3939 18.4863C22.3939 18.6176 22.4461 18.7434 22.5389 18.8362C22.6317 18.929 22.7575 18.9811 22.8887 18.9811H23.7325V20.8618H22.8911C22.7599 20.8618 22.634 20.914 22.5413 21.0067C22.4485 21.0995 22.3963 21.2254 22.3963 21.3566C22.3963 21.4879 22.4485 21.6137 22.5413 21.7065C22.634 21.7993 22.7599 21.8514 22.8911 21.8514H23.7325V23.2937C23.7325 23.41 23.6863 23.5215 23.6041 23.6037C23.5219 23.6859 23.4104 23.7321 23.2941 23.7321H21.8509V22.8907C21.8509 22.7595 21.7987 22.6336 21.7059 22.5409C21.6132 22.4481 21.4873 22.3959 21.3561 22.3959C21.2249 22.3959 21.099 22.4481 21.0062 22.5409C20.9134 22.6336 20.8613 22.7595 20.8613 22.8907V23.7331H18.9806V22.8917C18.9766 22.7631 18.9227 22.641 18.8303 22.5515C18.7379 22.4619 18.6143 22.4118 18.4856 22.4118C18.3569 22.4118 18.2333 22.4619 18.1409 22.5515C18.0485 22.641 17.9946 22.7631 17.9906 22.8917V23.7331H16.5487C16.4911 23.7331 16.4341 23.7218 16.3809 23.6998C16.3277 23.6778 16.2793 23.6455 16.2386 23.6048C16.1979 23.5641 16.1656 23.5157 16.1436 23.4625C16.1216 23.4093 16.1103 23.3523 16.1104 23.2947V16.5492C16.1104 16.433 16.1565 16.3215 16.2387 16.2392C16.321 16.157 16.4325 16.1108 16.5487 16.1108H23.2932C23.4094 16.111 23.5208 16.1572 23.603 16.2394C23.6852 16.3216 23.7314 16.433 23.7315 16.5492V17.9915H22.8902C22.8251 17.9913 22.7606 18.004 22.7004 18.0288C22.6402 18.0536 22.5855 18.09 22.5394 18.136C22.4933 18.1819 22.4567 18.2365 22.4317 18.2967C22.4068 18.3568 22.3939 18.4212 22.3939 18.4863V18.4863Z" fill="#27A2FD"/>
<path d="M32.3424 16.5492V23.2937C32.3425 23.3513 32.3312 23.4084 32.3091 23.4616C32.2871 23.5148 32.2549 23.5631 32.2141 23.6039C32.1734 23.6446 32.1251 23.6769 32.0718 23.6989C32.0186 23.7209 31.9616 23.7322 31.904 23.7321H25.1596C25.0433 23.7321 24.9318 23.6859 24.8496 23.6037C24.7674 23.5215 24.7212 23.41 24.7212 23.2937V21.8514H25.5626C25.6938 21.8514 25.8197 21.7993 25.9124 21.7065C26.0052 21.6137 26.0574 21.4879 26.0574 21.3566C26.0574 21.2254 26.0052 21.0995 25.9124 21.0068C25.8197 20.914 25.6938 20.8618 25.5626 20.8618H24.7212V18.9811H25.5626C25.6938 18.9811 25.8197 18.929 25.9124 18.8362C26.0052 18.7434 26.0574 18.6176 26.0574 18.4863C26.0574 18.3551 26.0052 18.2293 25.9124 18.1365C25.8197 18.0437 25.6938 17.9915 25.5626 17.9915H24.7212V16.5492C24.7213 16.433 24.7675 16.3216 24.8497 16.2394C24.9319 16.1572 25.0433 16.111 25.1596 16.1108H26.6009V16.9522C26.6009 17.0835 26.653 17.2093 26.7458 17.3021C26.8386 17.3949 26.9645 17.447 27.0957 17.447C27.2269 17.447 27.3528 17.3949 27.4456 17.3021C27.5384 17.2093 27.5905 17.0835 27.5905 16.9522V16.1108H29.4712V16.9522C29.4712 17.0835 29.5233 17.2093 29.6161 17.3021C29.7089 17.3949 29.8347 17.447 29.966 17.447C30.0972 17.447 30.223 17.3949 30.3158 17.3021C30.4086 17.2093 30.4608 17.0835 30.4608 16.9522V16.1108H31.9031C31.9607 16.1107 32.0178 16.122 32.0711 16.1439C32.1244 16.1659 32.1728 16.1982 32.2137 16.2389C32.2545 16.2796 32.2868 16.328 32.3089 16.3812C32.331 16.4345 32.3424 16.4916 32.3424 16.5492Z" fill="#3344FF"/>
<path d="M13.784 27.0977C13.7842 27.2289 13.8363 27.3546 13.9291 27.4474C14.0219 27.5402 14.1477 27.5923 14.2788 27.5925H15.1202V29.4727H14.2788C14.1502 29.4767 14.0282 29.5306 13.9386 29.623C13.849 29.7154 13.799 29.839 13.799 29.9677C13.799 30.0964 13.849 30.2201 13.9386 30.3125C14.0282 30.4049 14.1502 30.4588 14.2788 30.4628H15.1202V31.9051C15.1202 32.0213 15.074 32.1328 14.9918 32.2151C14.9096 32.2973 14.7981 32.3435 14.6818 32.3435H7.9374C7.82118 32.3433 7.70975 32.2971 7.62756 32.2149C7.54538 32.1327 7.49915 32.0213 7.49902 31.9051V25.1606C7.49902 25.0443 7.54521 24.9328 7.62742 24.8506C7.70963 24.7684 7.82114 24.7222 7.9374 24.7222H9.3797V25.5631C9.3797 25.6943 9.43183 25.8202 9.52462 25.913C9.61741 26.0058 9.74327 26.0579 9.87449 26.0579C10.0057 26.0579 10.1316 26.0058 10.2244 25.913C10.3172 25.8202 10.3693 25.6943 10.3693 25.5631V24.7222H12.25V25.5631C12.25 25.6943 12.3021 25.8202 12.3949 25.913C12.4877 26.0058 12.6135 26.0579 12.7448 26.0579C12.876 26.0579 13.0018 26.0058 13.0946 25.913C13.1874 25.8202 13.2395 25.6943 13.2395 25.5631V24.7222H14.6818C14.7394 24.7221 14.7965 24.7334 14.8497 24.7554C14.9029 24.7774 14.9512 24.8097 14.992 24.8504C15.0327 24.8912 15.065 24.9395 15.087 24.9927C15.109 25.0459 15.1203 25.103 15.1202 25.1606V26.6014H14.2788C14.2138 26.6015 14.1493 26.6144 14.0892 26.6394C14.0291 26.6644 13.9746 26.7009 13.9286 26.747C13.8827 26.7931 13.8462 26.8478 13.8214 26.908C13.7966 26.9681 13.7839 27.0326 13.784 27.0977Z" fill="#9722FF"/>
<path d="M23.7325 25.1606V31.9051C23.7324 32.0213 23.6862 32.1327 23.604 32.2149C23.5218 32.2971 23.4104 32.3433 23.2941 32.3435H16.5487C16.4325 32.3435 16.321 32.2973 16.2387 32.2151C16.1565 32.1328 16.1104 32.0213 16.1104 31.9051V30.4628H16.9513C17.0176 30.4648 17.0836 30.4535 17.1455 30.4296C17.2073 30.4056 17.2637 30.3695 17.3114 30.3233C17.359 30.2772 17.3969 30.2219 17.4227 30.1608C17.4486 30.0997 17.4619 30.0341 17.4619 29.9677C17.4619 29.9014 17.4486 29.8357 17.4227 29.7746C17.3969 29.7136 17.359 29.6583 17.3114 29.6121C17.2637 29.5659 17.2073 29.5298 17.1455 29.5059C17.0836 29.4819 17.0176 29.4706 16.9513 29.4727H16.1104V27.5925H16.9513C17.0176 27.5945 17.0836 27.5833 17.1455 27.5593C17.2073 27.5354 17.2637 27.4992 17.3114 27.453C17.359 27.4069 17.3969 27.3516 17.4227 27.2905C17.4486 27.2294 17.4619 27.1638 17.4619 27.0974C17.4619 27.0311 17.4486 26.9654 17.4227 26.9044C17.3969 26.8433 17.359 26.788 17.3114 26.7418C17.2637 26.6957 17.2073 26.6595 17.1455 26.6356C17.0836 26.6116 17.0176 26.6003 16.9513 26.6024H16.1104V25.1606C16.1103 25.103 16.1216 25.0459 16.1436 24.9927C16.1656 24.9395 16.1979 24.8912 16.2386 24.8504C16.2793 24.8097 16.3277 24.7774 16.3809 24.7554C16.4341 24.7334 16.4911 24.7221 16.5487 24.7222H17.9906V25.5631C17.9885 25.6294 17.9998 25.6954 18.0237 25.7573C18.0477 25.8192 18.0838 25.8756 18.13 25.9232C18.1761 25.9708 18.2314 26.0087 18.2925 26.0346C18.3536 26.0604 18.4192 26.0738 18.4856 26.0738C18.5519 26.0738 18.6176 26.0604 18.6787 26.0346C18.7397 26.0087 18.795 25.9708 18.8412 25.9232C18.8874 25.8756 18.9235 25.8192 18.9474 25.7573C18.9714 25.6954 18.9827 25.6294 18.9806 25.5631V24.7222H20.8613V25.5631C20.8613 25.6281 20.8741 25.6924 20.899 25.7524C20.9238 25.8125 20.9603 25.867 21.0062 25.913C21.0522 25.9589 21.1067 25.9954 21.1667 26.0202C21.2268 26.0451 21.2911 26.0579 21.3561 26.0579C21.4211 26.0579 21.4854 26.0451 21.5454 26.0202C21.6055 25.9954 21.66 25.9589 21.7059 25.913C21.7519 25.867 21.7883 25.8125 21.8132 25.7524C21.8381 25.6924 21.8509 25.6281 21.8509 25.5631V24.7222H23.2932C23.3508 24.7221 23.4079 24.7333 23.4612 24.7553C23.5145 24.7773 23.563 24.8095 23.6038 24.8502C23.6446 24.891 23.677 24.9393 23.699 24.9926C23.7211 25.0458 23.7325 25.1029 23.7325 25.1606V25.1606Z" fill="#3344FF"/>
<path d="M29.8002 25.0318L25.0312 29.8009C24.86 29.9721 24.86 30.2497 25.0312 30.4209L29.8002 35.19C29.9714 35.3612 30.249 35.3612 30.4202 35.19L35.1892 30.4209C35.3604 30.2497 35.3604 29.9721 35.1892 29.8009L30.4202 25.0318C30.249 24.8606 29.9714 24.8606 29.8002 25.0318Z" fill="#9722FF"/>
</g>
</g>
<rect x="0.749023" y="0.749977" width="38.5" height="38.5" rx="5.25" stroke="white" stroke-opacity="0.15" stroke-width="1.5"/>
<defs>
<filter id="filter0_d_28_3542" x="1.99902" y="1.99998" width="37.3184" height="37.3184" filterUnits="userSpaceOnUse" color-interpolation-filters="sRGB">
<feFlood flood-opacity="0" result="BackgroundImageFix"/>
<feColorMatrix in="SourceAlpha" type="matrix" values="0 0 0 0 0 0 0 0 0 0 0 0 0 0 0 0 0 0 127 0" result="hardAlpha"/>
<feOffset/>
<feGaussianBlur stdDeviation="2"/>
<feComposite in2="hardAlpha" operator="out"/>
<feColorMatrix type="matrix" values="0 0 0 0 0 0 0 0 0 0 0 0 0 0 0 0 0 0 0.25 0"/>
<feBlend mode="normal" in2="BackgroundImageFix" result="effect1_dropShadow_28_3542"/>
<feBlend mode="normal" in="SourceGraphic" in2="effect1_dropShadow_28_3542" result="shape"/>
</filter>
<linearGradient id="paint0_linear_28_3542" x1="19.999" y1="-2.28882e-05" x2="19.999" y2="40" gradientUnits="userSpaceOnUse">
<stop stop-color="#260C26"/>
<stop offset="1" stop-color="#0E1C2C"/>
</linearGradient>
<clipPath id="clip0_28_3542">
<rect x="-0.000976562" y="-2.28882e-05" width="40" height="40" rx="6" fill="white"/>
</clipPath>
</defs>
</svg>
