<svg width="312" height="41" viewBox="0 0 312 41" fill="none" xmlns="http://www.w3.org/2000/svg">
<rect x="0.00439453" y="0.0111694" width="311.001" height="40.0014" rx="8" fill="url(#paint0_linear_28_2744)"/>
<g filter="url(#filter0_d_28_2744)">
<path d="M9.0045 25.7611V24.011H14.2548V25.7611H9.0045ZM14.2548 24.011V22.2609H16.0049V24.011H14.2548ZM7.25442 24.011V15.2606H9.0045V24.011H7.25442ZM14.2548 17.0106V15.2606H16.0049V17.0106H14.2548ZM9.0045 15.2606V13.5105H14.2548V15.2606H9.0045ZM17.7549 25.7611V13.5105H26.5054V15.2606H19.505V17.0106H23.0052V18.7607H19.505V24.011H26.5054V25.7611H17.7549ZM31.7556 18.7607V17.0106H33.5057V18.7607H31.7556ZM28.2555 25.7611V13.5105H30.0055V15.2606H31.7556V17.0106H30.0055V25.7611H28.2555ZM35.2558 25.7611V17.0106H33.5057V15.2606H35.2558V13.5105H37.0059V25.7611H35.2558Z" fill="white"/>
</g>
<g filter="url(#filter1_d_28_2744)">
<path d="M43.3642 26.5119V14.1482H47.7711C48.729 14.1482 49.5238 14.3132 50.1557 14.6433C50.7916 14.9733 51.2665 15.4301 51.5804 16.0136C51.8944 16.5932 52.0513 17.2633 52.0513 18.0239C52.0513 18.7806 51.8923 19.4466 51.5744 20.0222C51.2605 20.5937 50.7856 21.0384 50.1497 21.3563C49.5178 21.6743 48.723 21.8332 47.7651 21.8332H44.4267V20.2274H47.5961C48.1997 20.2274 48.6908 20.1409 49.0691 19.9678C49.4514 19.7948 49.7311 19.5432 49.9082 19.2132C50.0853 18.8832 50.1738 18.4868 50.1738 18.0239C50.1738 17.5571 50.0833 17.1526 49.9022 16.8105C49.7251 16.4684 49.4454 16.2068 49.063 16.0257C48.6847 15.8406 48.1877 15.748 47.5719 15.748H45.2296V26.5119H43.3642ZM49.4675 20.9337L52.5222 26.5119H50.3972L47.4029 20.9337H49.4675ZM58.0565 26.699C57.143 26.699 56.3561 26.5038 55.6961 26.1134C55.0401 25.719 54.533 25.1656 54.1748 24.4533C53.8206 23.7369 53.6436 22.8978 53.6436 21.9359C53.6436 20.9861 53.8206 20.1489 54.1748 19.4245C54.533 18.7001 55.032 18.1346 55.672 17.7281C56.3159 17.3216 57.0685 17.1184 57.9298 17.1184C58.453 17.1184 58.9601 17.2049 59.4511 17.378C59.9421 17.551 60.3828 17.8227 60.7732 18.193C61.1636 18.5632 61.4714 19.0442 61.6968 19.6358C61.9222 20.2234 62.0349 20.9378 62.0349 21.7789V22.4188H54.6638V21.0666H60.2661C60.2661 20.5917 60.1695 20.1711 59.9763 19.8048C59.7831 19.4346 59.5114 19.1428 59.1613 18.9295C58.8152 18.7162 58.4087 18.6095 57.9418 18.6095C57.4347 18.6095 56.992 18.7343 56.6137 18.9838C56.2394 19.2293 55.9497 19.5513 55.7444 19.9497C55.5432 20.3441 55.4426 20.7728 55.4426 21.2356V22.2921C55.4426 22.9118 55.5512 23.4391 55.7686 23.8737C55.9899 24.3084 56.2978 24.6404 56.6922 24.8698C57.0866 25.0952 57.5474 25.2079 58.0747 25.2079C58.4168 25.2079 58.7287 25.1596 59.0104 25.063C59.2921 24.9624 59.5356 24.8135 59.7409 24.6163C59.9461 24.4191 60.1031 24.1756 60.2117 23.8858L61.9202 24.1937C61.7833 24.6968 61.5378 25.1375 61.1837 25.5158C60.8335 25.8901 60.3928 26.1818 59.8616 26.3911C59.3344 26.5964 58.7327 26.699 58.0565 26.699ZM70.2979 29.9891V25.069H70.1893C70.0806 25.2662 69.9236 25.4916 69.7184 25.7452C69.5172 25.9987 69.2395 26.2201 68.8853 26.4092C68.5311 26.5984 68.0723 26.693 67.5089 26.693C66.7603 26.693 66.0922 26.5018 65.5046 26.1195C64.921 25.7331 64.4622 25.1837 64.1282 24.4714C63.7982 23.755 63.6332 22.8957 63.6332 21.8936C63.6332 20.8915 63.8002 20.0342 64.1342 19.3219C64.4723 18.6095 64.9351 18.0642 65.5227 17.6859C66.1103 17.3076 66.7764 17.1184 67.5209 17.1184C68.0965 17.1184 68.5593 17.215 68.9094 17.4082C69.2636 17.5973 69.5373 17.8187 69.7305 18.0722C69.9277 18.3258 70.0806 18.5492 70.1893 18.7423H70.3402V17.2391H72.103V29.9891H70.2979ZM67.9073 25.1536C68.4265 25.1536 68.8652 25.0167 69.2234 24.743C69.5856 24.4653 69.8592 24.081 70.0444 23.59C70.2335 23.099 70.3281 22.5275 70.3281 21.8755C70.3281 21.2316 70.2356 20.6681 70.0504 20.1852C69.8653 19.7022 69.5936 19.3259 69.2354 19.0563C68.8772 18.7866 68.4345 18.6518 67.9073 18.6518C67.364 18.6518 66.9112 18.7926 66.549 19.0744C66.1868 19.3561 65.9131 19.7404 65.728 20.2274C65.5469 20.7144 65.4563 21.2638 65.4563 21.8755C65.4563 22.4953 65.5489 23.0527 65.734 23.5477C65.9191 24.0428 66.1928 24.4352 66.555 24.7249C66.9213 25.0107 67.372 25.1536 67.9073 25.1536ZM80.4038 22.6663V17.2391H82.2148V26.5119H80.44V24.906H80.3434C80.1301 25.4011 79.788 25.8136 79.3171 26.1436C78.8502 26.4696 78.2687 26.6326 77.5724 26.6326C76.9768 26.6326 76.4496 26.5018 75.9908 26.2402C75.536 25.9746 75.1778 25.5822 74.9162 25.063C74.6586 24.5438 74.5298 23.9019 74.5298 23.1372V17.2391H76.3349V22.9199C76.3349 23.5518 76.5099 24.0548 76.8601 24.4291C77.2102 24.8034 77.665 24.9906 78.2244 24.9906C78.5625 24.9906 78.8985 24.906 79.2326 24.737C79.5707 24.568 79.8504 24.3124 80.0717 23.9703C80.2971 23.6282 80.4078 23.1936 80.4038 22.6663ZM84.6402 26.5119V17.2391H86.4452V26.5119H84.6402ZM85.5517 15.8084C85.2378 15.8084 84.9682 15.7037 84.7428 15.4945C84.5214 15.2812 84.4108 15.0276 84.4108 14.7338C84.4108 14.436 84.5214 14.1824 84.7428 13.9732C84.9682 13.7599 85.2378 13.6532 85.5517 13.6532C85.8657 13.6532 86.1333 13.7599 86.3547 13.9732C86.58 14.1824 86.6927 14.436 86.6927 14.7338C86.6927 15.0276 86.58 15.2812 86.3547 15.4945C86.1333 15.7037 85.8657 15.8084 85.5517 15.8084ZM88.8736 26.5119V17.2391H90.6182V18.7122H90.7148C90.8839 18.2131 91.1817 17.8207 91.6083 17.535C92.0389 17.2452 92.5259 17.1003 93.0692 17.1003C93.1819 17.1003 93.3147 17.1043 93.4677 17.1124C93.6246 17.1204 93.7474 17.1305 93.8359 17.1426V18.8691C93.7635 18.849 93.6347 18.8269 93.4496 18.8027C93.2644 18.7745 93.0793 18.7604 92.8942 18.7604C92.4676 18.7604 92.0872 18.851 91.7532 19.0321C91.4232 19.2092 91.1616 19.4567 90.9684 19.7747C90.7752 20.0886 90.6786 20.4468 90.6786 20.8492V26.5119H88.8736ZM99.0624 26.699C98.1488 26.699 97.362 26.5038 96.702 26.1134C96.0459 25.719 95.5388 25.1656 95.1806 24.4533C94.8265 23.7369 94.6494 22.8978 94.6494 21.9359C94.6494 20.9861 94.8265 20.1489 95.1806 19.4245C95.5388 18.7001 96.0379 18.1346 96.6778 17.7281C97.3217 17.3216 98.0744 17.1184 98.9356 17.1184C99.4588 17.1184 99.9659 17.2049 100.457 17.378C100.948 17.551 101.389 17.8227 101.779 18.193C102.169 18.5632 102.477 19.0442 102.703 19.6358C102.928 20.2234 103.041 20.9378 103.041 21.7789V22.4188H95.6696V21.0666H101.272C101.272 20.5917 101.175 20.1711 100.982 19.8048C100.789 19.4346 100.517 19.1428 100.167 18.9295C99.821 18.7162 99.4145 18.6095 98.9477 18.6095C98.4406 18.6095 97.9979 18.7343 97.6196 18.9838C97.2453 19.2293 96.9555 19.5513 96.7503 19.9497C96.549 20.3441 96.4484 20.7728 96.4484 21.2356V22.2921C96.4484 22.9118 96.5571 23.4391 96.7744 23.8737C96.9958 24.3084 97.3036 24.6404 97.698 24.8698C98.0925 25.0952 98.5533 25.2079 99.0805 25.2079C99.4226 25.2079 99.7345 25.1596 100.016 25.063C100.298 24.9624 100.541 24.8135 100.747 24.6163C100.952 24.4191 101.109 24.1756 101.218 23.8858L102.926 24.1937C102.789 24.6968 102.544 25.1375 102.19 25.5158C101.839 25.8901 101.399 26.1818 100.867 26.3911C100.34 26.5964 99.7385 26.699 99.0624 26.699ZM111.992 19.503L110.356 19.7928C110.288 19.5835 110.179 19.3843 110.03 19.1951C109.885 19.0059 109.688 18.851 109.438 18.7303C109.189 18.6095 108.877 18.5492 108.503 18.5492C107.992 18.5492 107.565 18.6639 107.223 18.8933C106.881 19.1186 106.71 19.4104 106.71 19.7686C106.71 20.0785 106.824 20.328 107.054 20.5172C107.283 20.7064 107.653 20.8613 108.165 20.982L109.638 21.3201C110.491 21.5173 111.127 21.8212 111.545 22.2317C111.964 22.6422 112.173 23.1755 112.173 23.8315C112.173 24.3869 112.012 24.8819 111.69 25.3166C111.372 25.7472 110.927 26.0853 110.356 26.3308C109.789 26.5763 109.13 26.699 108.382 26.699C107.344 26.699 106.496 26.4777 105.84 26.0349C105.184 25.5882 104.782 24.9543 104.633 24.1333L106.378 23.8677C106.486 24.3225 106.71 24.6666 107.048 24.9C107.386 25.1294 107.827 25.2441 108.37 25.2441C108.961 25.2441 109.434 25.1214 109.789 24.8759C110.143 24.6263 110.32 24.3225 110.32 23.9643C110.32 23.6745 110.211 23.431 109.994 23.2338C109.78 23.0366 109.452 22.8877 109.01 22.7871L107.44 22.443C106.575 22.2458 105.935 21.9318 105.52 21.5012C105.11 21.0706 104.905 20.5252 104.905 19.8652C104.905 19.3179 105.058 18.8389 105.363 18.4284C105.669 18.0179 106.092 17.6979 106.631 17.4685C107.17 17.2351 107.788 17.1184 108.485 17.1184C109.487 17.1184 110.275 17.3357 110.851 17.7704C111.427 18.201 111.807 18.7786 111.992 19.503Z" fill="#E8E8E8"/>
<path d="M129.164 18.6276H126.146C126.106 18.3177 126.023 18.038 125.898 17.7885C125.773 17.539 125.608 17.3257 125.403 17.1486C125.198 16.9715 124.954 16.8367 124.673 16.7441C124.395 16.6475 124.087 16.5992 123.749 16.5992C123.149 16.5992 122.632 16.7461 122.198 17.0399C121.767 17.3337 121.435 17.7583 121.202 18.3137C120.972 18.8691 120.857 19.5412 120.857 20.33C120.857 21.1511 120.974 21.8393 121.208 22.3947C121.445 22.9461 121.777 23.3626 122.204 23.6443C122.634 23.922 123.143 24.0609 123.731 24.0609C124.061 24.0609 124.361 24.0186 124.631 23.9341C124.904 23.8496 125.144 23.7268 125.349 23.5658C125.558 23.4008 125.729 23.2016 125.862 22.9682C125.999 22.7307 126.093 22.4631 126.146 22.1653L129.164 22.1834C129.112 22.7307 128.953 23.27 128.687 23.8013C128.426 24.3325 128.066 24.8175 127.607 25.2562C127.148 25.6908 126.588 26.037 125.928 26.2945C125.272 26.5521 124.52 26.6809 123.671 26.6809C122.552 26.6809 121.55 26.4354 120.664 25.9444C119.783 25.4494 119.087 24.729 118.575 23.7832C118.064 22.8374 117.809 21.6863 117.809 20.33C117.809 18.9697 118.068 17.8167 118.588 16.8709C119.107 15.9251 119.809 15.2067 120.694 14.7157C121.58 14.2247 122.572 13.9792 123.671 13.9792C124.419 13.9792 125.111 14.0838 125.747 14.2931C126.383 14.4984 126.943 14.8002 127.426 15.1987C127.909 15.5931 128.301 16.078 128.603 16.6536C128.905 17.2291 129.092 17.8871 129.164 18.6276ZM136.857 22.5094V17.2391H139.803V26.5119H136.99V24.7853H136.893C136.688 25.3528 136.338 25.8035 135.843 26.1376C135.352 26.4676 134.758 26.6326 134.062 26.6326C133.43 26.6326 132.874 26.4877 132.396 26.1979C131.917 25.9082 131.544 25.5037 131.279 24.9845C131.013 24.4613 130.878 23.8496 130.874 23.1493V17.2391H133.826V22.5698C133.83 23.0728 133.963 23.4693 134.225 23.759C134.486 24.0488 134.842 24.1937 135.293 24.1937C135.587 24.1937 135.851 24.1293 136.084 24.0005C136.322 23.8677 136.509 23.6765 136.646 23.427C136.786 23.1734 136.857 22.8676 136.857 22.5094ZM149.777 20.0705L147.067 20.1429C147.039 19.9497 146.962 19.7787 146.837 19.6298C146.713 19.4768 146.55 19.3581 146.348 19.2736C146.151 19.185 145.922 19.1408 145.66 19.1408C145.318 19.1408 145.026 19.2092 144.785 19.346C144.547 19.4829 144.431 19.668 144.435 19.9014C144.431 20.0825 144.503 20.2395 144.652 20.3723C144.805 20.5051 145.077 20.6118 145.467 20.6923L147.254 21.0303C148.18 21.2074 148.868 21.5012 149.319 21.9117C149.773 22.3222 150.003 22.8656 150.007 23.5417C150.003 24.1776 149.814 24.731 149.439 25.2019C149.069 25.6727 148.562 26.039 147.918 26.3006C147.274 26.5581 146.538 26.6869 145.708 26.6869C144.384 26.6869 143.34 26.4153 142.575 25.872C141.815 25.3246 141.38 24.5921 141.271 23.6745L144.187 23.6021C144.252 23.9401 144.419 24.1977 144.688 24.3748C144.958 24.5519 145.302 24.6404 145.721 24.6404C146.099 24.6404 146.407 24.57 146.644 24.4291C146.882 24.2883 147.002 24.1011 147.006 23.8677C147.002 23.6584 146.91 23.4914 146.729 23.3666C146.548 23.2378 146.264 23.1372 145.877 23.0648L144.26 22.7569C143.33 22.5879 142.638 22.276 142.183 21.8212C141.728 21.3624 141.503 20.7788 141.507 20.0705C141.503 19.4507 141.668 18.9214 142.002 18.4827C142.336 18.04 142.811 17.702 143.426 17.4685C144.042 17.2351 144.769 17.1184 145.606 17.1184C146.861 17.1184 147.852 17.382 148.576 17.9092C149.3 18.4324 149.701 19.1528 149.777 20.0705ZM156.694 17.2391V19.4124H150.844V17.2391H156.694ZM152.07 15.0176H155.022V23.596C155.022 23.7771 155.05 23.924 155.106 24.0367C155.167 24.1454 155.253 24.2239 155.366 24.2722C155.479 24.3164 155.614 24.3386 155.77 24.3386C155.883 24.3386 156.002 24.3285 156.127 24.3084C156.255 24.2842 156.352 24.2641 156.416 24.248L156.863 26.3791C156.722 26.4193 156.523 26.4696 156.266 26.53C156.012 26.5903 155.708 26.6286 155.354 26.6447C154.662 26.6769 154.068 26.5964 153.573 26.4032C153.082 26.206 152.706 25.9001 152.444 25.4856C152.187 25.0711 152.062 24.5499 152.07 23.922V15.0176ZM162.429 26.6869C161.455 26.6869 160.618 26.4877 159.918 26.0893C159.222 25.6868 158.684 25.1274 158.306 24.411C157.932 23.6906 157.745 22.8555 157.745 21.9057C157.745 20.9519 157.932 20.1167 158.306 19.4004C158.684 18.68 159.222 18.1205 159.918 17.7221C160.618 17.3196 161.455 17.1184 162.429 17.1184C163.403 17.1184 164.238 17.3196 164.935 17.7221C165.635 18.1205 166.172 18.68 166.546 19.4004C166.925 20.1167 167.114 20.9519 167.114 21.9057C167.114 22.8555 166.925 23.6906 166.546 24.411C166.172 25.1274 165.635 25.6868 164.935 26.0893C164.238 26.4877 163.403 26.6869 162.429 26.6869ZM162.447 24.4593C162.802 24.4593 163.101 24.3506 163.347 24.1333C163.592 23.916 163.779 23.6141 163.908 23.2278C164.041 22.8414 164.107 22.3947 164.107 21.8876C164.107 21.3724 164.041 20.9217 163.908 20.5353C163.779 20.1489 163.592 19.8471 163.347 19.6298C163.101 19.4124 162.802 19.3038 162.447 19.3038C162.081 19.3038 161.771 19.4124 161.518 19.6298C161.268 19.8471 161.077 20.1489 160.944 20.5353C160.815 20.9217 160.751 21.3724 160.751 21.8876C160.751 22.3947 160.815 22.8414 160.944 23.2278C161.077 23.6141 161.268 23.916 161.518 24.1333C161.771 24.3506 162.081 24.4593 162.447 24.4593ZM168.626 26.5119V17.2391H171.433V18.9416H171.536C171.729 18.3781 172.055 17.9334 172.514 17.6074C172.973 17.2814 173.52 17.1184 174.156 17.1184C174.8 17.1184 175.351 17.2834 175.81 17.6134C176.269 17.9435 176.561 18.3862 176.685 18.9416H176.782C176.955 18.3902 177.293 17.9495 177.796 17.6195C178.299 17.2854 178.893 17.1184 179.577 17.1184C180.454 17.1184 181.167 17.4001 181.714 17.9636C182.262 18.523 182.535 19.2917 182.535 20.2697V26.5119H179.583V20.9458C179.583 20.483 179.464 20.1308 179.227 19.8894C178.99 19.6439 178.682 19.5211 178.303 19.5211C177.897 19.5211 177.577 19.6539 177.343 19.9195C177.114 20.1811 176.999 20.5333 176.999 20.976V26.5119H174.162V20.9156C174.162 20.485 174.045 20.1449 173.812 19.8954C173.578 19.6459 173.271 19.5211 172.888 19.5211C172.631 19.5211 172.403 19.5835 172.206 19.7082C172.009 19.829 171.854 20.002 171.741 20.2274C171.633 20.4528 171.578 20.7184 171.578 21.0243V26.5119H168.626ZM188.017 26.5119V14.1482H196.637V16.5751H191.005V19.1106H196.197V21.5435H191.005V24.085H196.637V26.5119H188.017ZM201.461 21.2235V26.5119H198.509V17.2391H201.316V18.9416H201.419C201.624 18.3741 201.974 17.9294 202.469 17.6074C202.964 17.2814 203.554 17.1184 204.238 17.1184C204.89 17.1184 205.455 17.2653 205.934 17.5591C206.417 17.8489 206.792 18.2554 207.057 18.7786C207.327 19.2977 207.46 19.9055 207.456 20.6017V26.5119H204.504V21.1813C204.508 20.6661 204.377 20.2636 204.111 19.9739C203.85 19.6841 203.485 19.5392 203.019 19.5392C202.709 19.5392 202.435 19.6076 202.198 19.7445C201.964 19.8773 201.783 20.0684 201.654 20.318C201.529 20.5675 201.465 20.8693 201.461 21.2235ZM214.517 17.2391V19.4124H208.668V17.2391H214.517ZM209.893 15.0176H212.845V23.596C212.845 23.7771 212.873 23.924 212.93 24.0367C212.99 24.1454 213.077 24.2239 213.189 24.2722C213.302 24.3164 213.437 24.3386 213.594 24.3386C213.706 24.3386 213.825 24.3285 213.95 24.3084C214.079 24.2842 214.175 24.2641 214.24 24.248L214.686 26.3791C214.546 26.4193 214.346 26.4696 214.089 26.53C213.835 26.5903 213.531 26.6286 213.177 26.6447C212.485 26.6769 211.891 26.5964 211.396 26.4032C210.905 26.206 210.529 25.9001 210.267 25.4856C210.01 25.0711 209.885 24.5499 209.893 23.922V15.0176ZM216.024 26.5119V17.2391H218.976V26.5119H216.024ZM217.503 16.1585C217.088 16.1585 216.732 16.0217 216.434 15.748C216.136 15.4703 215.987 15.1363 215.987 14.7459C215.987 14.3595 216.136 14.0295 216.434 13.7558C216.732 13.4781 217.088 13.3393 217.503 13.3393C217.921 13.3393 218.277 13.4781 218.571 13.7558C218.869 14.0295 219.018 14.3595 219.018 14.7459C219.018 15.1363 218.869 15.4703 218.571 15.748C218.277 16.0217 217.921 16.1585 217.503 16.1585ZM226.089 17.2391V19.4124H220.239V17.2391H226.089ZM221.464 15.0176H224.416V23.596C224.416 23.7771 224.445 23.924 224.501 24.0367C224.561 24.1454 224.648 24.2239 224.761 24.2722C224.873 24.3164 225.008 24.3386 225.165 24.3386C225.278 24.3386 225.396 24.3285 225.521 24.3084C225.65 24.2842 225.747 24.2641 225.811 24.248L226.258 26.3791C226.117 26.4193 225.918 26.4696 225.66 26.53C225.406 26.5903 225.103 26.6286 224.748 26.6447C224.056 26.6769 223.463 26.5964 222.968 26.4032C222.477 26.206 222.1 25.9001 221.839 25.4856C221.581 25.0711 221.456 24.5499 221.464 23.922V15.0176ZM229.4 29.9891C229.046 29.9891 228.712 29.961 228.398 29.9046C228.084 29.8523 227.814 29.7819 227.589 29.6933L228.241 27.5502C228.531 27.6468 228.792 27.7032 229.026 27.7193C229.263 27.7354 229.466 27.6971 229.635 27.6046C229.808 27.516 229.941 27.357 230.034 27.1276L230.148 26.8499L226.852 17.2391H229.943L231.652 23.8556H231.748L233.481 17.2391H236.59L233.095 27.3993C232.925 27.9064 232.686 28.3531 232.376 28.7395C232.07 29.1299 231.674 29.4358 231.187 29.6571C230.704 29.8785 230.108 29.9891 229.4 29.9891ZM241.374 14.1482H245.075L248.214 21.8031H248.359L251.498 14.1482H255.199V26.5119H252.289V18.9174H252.186L249.216 26.4334H247.357L244.387 18.8751H244.284V26.5119H241.374V14.1482ZM261.391 26.6869C260.417 26.6869 259.58 26.4877 258.88 26.0893C258.183 25.6868 257.646 25.1274 257.268 24.411C256.894 23.6906 256.706 22.8555 256.706 21.9057C256.706 20.9519 256.894 20.1167 257.268 19.4004C257.646 18.68 258.183 18.1205 258.88 17.7221C259.58 17.3196 260.417 17.1184 261.391 17.1184C262.365 17.1184 263.2 17.3196 263.896 17.7221C264.597 18.1205 265.134 18.68 265.508 19.4004C265.887 20.1167 266.076 20.9519 266.076 21.9057C266.076 22.8555 265.887 23.6906 265.508 24.411C265.134 25.1274 264.597 25.6868 263.896 26.0893C263.2 26.4877 262.365 26.6869 261.391 26.6869ZM261.409 24.4593C261.763 24.4593 262.063 24.3506 262.309 24.1333C262.554 23.916 262.741 23.6141 262.87 23.2278C263.003 22.8414 263.069 22.3947 263.069 21.8876C263.069 21.3724 263.003 20.9217 262.87 20.5353C262.741 20.1489 262.554 19.8471 262.309 19.6298C262.063 19.4124 261.763 19.3038 261.409 19.3038C261.043 19.3038 260.733 19.4124 260.48 19.6298C260.23 19.8471 260.039 20.1489 259.906 20.5353C259.777 20.9217 259.713 21.3724 259.713 21.8876C259.713 22.3947 259.777 22.8414 259.906 23.2278C260.039 23.6141 260.23 23.916 260.48 24.1333C260.733 24.3506 261.043 24.4593 261.409 24.4593ZM270.975 26.6447C270.291 26.6447 269.669 26.4676 269.109 26.1134C268.55 25.7593 268.103 25.228 267.769 24.5197C267.435 23.8113 267.268 22.932 267.268 21.8815C267.268 20.7909 267.441 19.8934 267.787 19.1891C268.133 18.4848 268.586 17.9636 269.146 17.6255C269.709 17.2874 270.315 17.1184 270.963 17.1184C271.45 17.1184 271.866 17.2029 272.212 17.372C272.558 17.537 272.844 17.7503 273.07 18.0119C273.295 18.2735 273.466 18.5451 273.583 18.8269H273.643V14.1482H276.595V26.5119H273.673V25.0087H273.583C273.458 25.2944 273.281 25.5621 273.051 25.8116C272.822 26.0611 272.534 26.2623 272.188 26.4153C271.846 26.5682 271.442 26.6447 270.975 26.6447ZM272.001 24.3446C272.359 24.3446 272.665 24.244 272.919 24.0428C273.172 23.8375 273.367 23.5497 273.504 23.1795C273.641 22.8092 273.709 22.3746 273.709 21.8755C273.709 21.3684 273.641 20.9317 273.504 20.5655C273.371 20.1992 273.176 19.9175 272.919 19.7203C272.665 19.5231 272.359 19.4245 272.001 19.4245C271.635 19.4245 271.325 19.5251 271.071 19.7264C270.818 19.9276 270.625 20.2113 270.492 20.5776C270.363 20.9438 270.299 21.3765 270.299 21.8755C270.299 22.3746 270.365 22.8092 270.498 23.1795C270.631 23.5497 270.822 23.8375 271.071 24.0428C271.325 24.244 271.635 24.3446 272.001 24.3446ZM282.797 26.6869C281.827 26.6869 280.99 26.4958 280.285 26.1134C279.585 25.7271 279.046 25.1777 278.667 24.4653C278.293 23.749 278.106 22.8978 278.106 21.9117C278.106 20.9539 278.295 20.1167 278.673 19.4004C279.052 18.68 279.585 18.1205 280.273 17.7221C280.961 17.3196 281.772 17.1184 282.706 17.1184C283.366 17.1184 283.97 17.221 284.517 17.4263C285.064 17.6315 285.537 17.9354 285.936 18.3379C286.334 18.7403 286.644 19.2374 286.865 19.829C287.087 20.4166 287.197 21.0907 287.197 21.8514V22.5879H279.138V20.8734H284.451C284.447 20.5595 284.372 20.2797 284.227 20.0342C284.082 19.7887 283.883 19.5976 283.63 19.4607C283.38 19.3199 283.092 19.2494 282.766 19.2494C282.436 19.2494 282.141 19.3239 281.879 19.4728C281.617 19.6177 281.41 19.8169 281.257 20.0705C281.104 20.32 281.024 20.6037 281.016 20.9217V22.6663C281.016 23.0447 281.09 23.3767 281.239 23.6624C281.388 23.9442 281.599 24.1635 281.873 24.3205C282.147 24.4774 282.473 24.5559 282.851 24.5559C283.112 24.5559 283.35 24.5197 283.563 24.4472C283.777 24.3748 283.96 24.2681 284.113 24.1273C284.266 23.9864 284.38 23.8134 284.457 23.6081L287.167 23.6866C287.055 24.2943 286.807 24.8235 286.425 25.2743C286.046 25.721 285.549 26.0692 284.934 26.3187C284.318 26.5642 283.606 26.6869 282.797 26.6869ZM291.657 14.1482V26.5119H288.705V14.1482H291.657ZM301.632 20.0705L298.921 20.1429C298.893 19.9497 298.817 19.7787 298.692 19.6298C298.567 19.4768 298.404 19.3581 298.203 19.2736C298.006 19.185 297.776 19.1408 297.515 19.1408C297.173 19.1408 296.881 19.2092 296.639 19.346C296.402 19.4829 296.285 19.668 296.289 19.9014C296.285 20.0825 296.358 20.2395 296.506 20.3723C296.659 20.5051 296.931 20.6118 297.321 20.6923L299.108 21.0303C300.034 21.2074 300.722 21.5012 301.173 21.9117C301.628 22.3222 301.857 22.8656 301.861 23.5417C301.857 24.1776 301.668 24.731 301.294 25.2019C300.923 25.6727 300.416 26.039 299.772 26.3006C299.128 26.5581 298.392 26.6869 297.563 26.6869C296.239 26.6869 295.194 26.4153 294.43 25.872C293.669 25.3246 293.234 24.5921 293.126 23.6745L296.042 23.6021C296.106 23.9401 296.273 24.1977 296.543 24.3748C296.812 24.5519 297.156 24.6404 297.575 24.6404C297.953 24.6404 298.261 24.57 298.499 24.4291C298.736 24.2883 298.857 24.1011 298.861 23.8677C298.857 23.6584 298.764 23.4914 298.583 23.3666C298.402 23.2378 298.118 23.1372 297.732 23.0648L296.114 22.7569C295.184 22.5879 294.492 22.276 294.037 21.8212C293.583 21.3624 293.357 20.7788 293.361 20.0705C293.357 19.4507 293.522 18.9214 293.856 18.4827C294.19 18.04 294.665 17.702 295.281 17.4685C295.897 17.2351 296.623 17.1184 297.46 17.1184C298.716 17.1184 299.706 17.382 300.43 17.9092C301.155 18.4324 301.555 19.1528 301.632 20.0705Z" fill="white"/>
</g>
<rect x="1.07582" y="1.0826" width="308.858" height="37.8585" rx="6.92857" stroke="white" stroke-opacity="0.15" stroke-width="2.14286"/>
<defs>
<filter id="filter0_d_28_2744" x="1.65411" y="0.410889" width="40.952" height="39.202" filterUnits="userSpaceOnUse" color-interpolation-filters="sRGB">
<feFlood flood-opacity="0" result="BackgroundImageFix"/>
<feColorMatrix in="SourceAlpha" type="matrix" values="0 0 0 0 0 0 0 0 0 0 0 0 0 0 0 0 0 0 127 0" result="hardAlpha"/>
<feOffset/>
<feGaussianBlur stdDeviation="2.80014"/>
<feComposite in2="hardAlpha" operator="out"/>
<feColorMatrix type="matrix" values="0 0 0 0 0 0 0 0 0 0 0 0 0 0 0 0 0 0 0.25 0"/>
<feBlend mode="normal" in2="BackgroundImageFix" result="effect1_dropShadow_28_2744"/>
<feBlend mode="normal" in="SourceGraphic" in2="effect1_dropShadow_28_2744" result="shape"/>
</filter>
<filter id="filter1_d_28_2744" x="36.2916" y="3.79759" width="272.429" height="32.4286" filterUnits="userSpaceOnUse" color-interpolation-filters="sRGB">
<feFlood flood-opacity="0" result="BackgroundImageFix"/>
<feColorMatrix in="SourceAlpha" type="matrix" values="0 0 0 0 0 0 0 0 0 0 0 0 0 0 0 0 0 0 127 0" result="hardAlpha"/>
<feOffset/>
<feGaussianBlur stdDeviation="2.85714"/>
<feComposite in2="hardAlpha" operator="out"/>
<feColorMatrix type="matrix" values="0 0 0 0 0 0 0 0 0 0 0 0 0 0 0 0 0 0 0.25 0"/>
<feBlend mode="normal" in2="BackgroundImageFix" result="effect1_dropShadow_28_2744"/>
<feBlend mode="normal" in="SourceGraphic" in2="effect1_dropShadow_28_2744" result="shape"/>
</filter>
<linearGradient id="paint0_linear_28_2744" x1="155.505" y1="0.0111694" x2="155.505" y2="38.0126" gradientUnits="userSpaceOnUse">
<stop stop-color="#343434"/>
<stop offset="1" stop-color="#232323"/>
</linearGradient>
</defs>
</svg>
