<svg width="219" height="28" viewBox="0 0 219 28" fill="none" xmlns="http://www.w3.org/2000/svg">
<rect x="-0.000732422" y="-3.05176e-05" width="218.5" height="28" rx="6" fill="url(#paint0_linear_28_2737)"/>
<g filter="url(#filter0_d_28_2737)">
<path d="M7.96363 18.3928V17.1428H11.7136V18.3928H7.96363ZM11.7136 17.1428V15.8928H12.9636V17.1428H11.7136ZM6.71363 17.1428V10.8928H7.96363V17.1428H6.71363ZM11.7136 12.1428V10.8928H12.9636V12.1428H11.7136ZM7.96363 10.8928V9.64282H11.7136V10.8928H7.96363ZM14.2136 18.3928V17.1428H15.4636V10.8928H14.2136V9.64282H17.9636V10.8928H16.7136V17.1428H17.9636V18.3928H14.2136ZM21.7136 18.3928V10.8928H19.2136V9.64282H25.4636V10.8928H22.9636V18.3928H21.7136Z" fill="white"/>
</g>
<g filter="url(#filter1_d_28_2737)">
<path d="M32.8782 18.5V10.5H35.7297C36.3495 10.5 36.8638 10.6067 37.2727 10.8203C37.6842 11.0338 37.9915 11.3294 38.1946 11.707C38.3977 12.082 38.4993 12.5156 38.4993 13.0078C38.4993 13.4974 38.3964 13.9284 38.1907 14.3007C37.9875 14.6705 37.6803 14.9583 37.2688 15.164C36.8599 15.3698 36.3456 15.4726 35.7258 15.4726H33.5657V14.4336H35.6165C36.0071 14.4336 36.3248 14.3776 36.5696 14.2656C36.817 14.1536 36.998 13.9909 37.1125 13.7773C37.2271 13.5638 37.2844 13.3073 37.2844 13.0078C37.2844 12.7057 37.2258 12.444 37.1086 12.2226C36.9941 12.0013 36.8131 11.832 36.5657 11.7148C36.3209 11.595 35.9993 11.5351 35.6008 11.5351H34.0852V18.5H32.8782ZM36.8274 14.8906L38.804 18.5H37.429L35.4915 14.8906H36.8274ZM42.385 18.6211C41.7939 18.6211 41.2847 18.4948 40.8577 18.2422C40.4332 17.9869 40.1051 17.6289 39.8733 17.1679C39.6441 16.7044 39.5295 16.1614 39.5295 15.539C39.5295 14.9244 39.6441 14.3828 39.8733 13.914C40.1051 13.4453 40.428 13.0794 40.842 12.8164C41.2587 12.5534 41.7457 12.4218 42.303 12.4218C42.6415 12.4218 42.9696 12.4778 43.2874 12.5898C43.6051 12.7018 43.8902 12.8776 44.1428 13.1172C44.3954 13.3567 44.5946 13.6679 44.7405 14.0507C44.8863 14.431 44.9592 14.8932 44.9592 15.4375V15.8515H40.1897V14.9765H43.8147C43.8147 14.6692 43.7522 14.3971 43.6272 14.1601C43.5022 13.9205 43.3264 13.7317 43.0999 13.5937C42.8759 13.4557 42.6129 13.3867 42.3108 13.3867C41.9827 13.3867 41.6962 13.4674 41.4514 13.6289C41.2092 13.7877 41.0217 13.9961 40.8889 14.2539C40.7587 14.5091 40.6936 14.7864 40.6936 15.0859V15.7695C40.6936 16.1705 40.7639 16.5117 40.9045 16.7929C41.0478 17.0742 41.247 17.289 41.5022 17.4375C41.7574 17.5833 42.0556 17.6562 42.3967 17.6562C42.6181 17.6562 42.8199 17.625 43.0022 17.5625C43.1845 17.4974 43.342 17.401 43.4749 17.2734C43.6077 17.1458 43.7092 16.9882 43.7795 16.8007L44.885 17C44.7965 17.3255 44.6376 17.6106 44.4084 17.8554C44.1819 18.0976 43.8967 18.2864 43.553 18.4218C43.2118 18.5547 42.8225 18.6211 42.385 18.6211ZM50.3059 20.75V17.5664H50.2356C50.1653 17.694 50.0637 17.8398 49.9309 18.0039C49.8007 18.1679 49.621 18.3112 49.3918 18.4336C49.1627 18.556 48.8658 18.6172 48.5012 18.6172C48.0168 18.6172 47.5845 18.4935 47.2043 18.2461C46.8267 17.9961 46.5299 17.6406 46.3137 17.1797C46.1002 16.7161 45.9934 16.1601 45.9934 15.5117C45.9934 14.8632 46.1015 14.3086 46.3176 13.8476C46.5364 13.3867 46.8359 13.0338 47.2161 12.789C47.5963 12.5442 48.0273 12.4218 48.509 12.4218C48.8814 12.4218 49.1809 12.4843 49.4075 12.6093C49.6366 12.7317 49.8137 12.875 49.9387 13.039C50.0663 13.2031 50.1653 13.3476 50.2356 13.4726H50.3332V12.5H51.4739V20.75H50.3059ZM48.759 17.6211C49.095 17.6211 49.3788 17.5325 49.6106 17.3554C49.845 17.1757 50.022 16.927 50.1418 16.6093C50.2642 16.2916 50.3254 15.9218 50.3254 15.5C50.3254 15.0833 50.2655 14.7187 50.1457 14.4062C50.026 14.0937 49.8502 13.8502 49.6184 13.6757C49.3866 13.5013 49.1002 13.414 48.759 13.414C48.4075 13.414 48.1145 13.5052 47.8801 13.6875C47.6457 13.8698 47.4687 14.1185 47.3489 14.4336C47.2317 14.7487 47.1731 15.1041 47.1731 15.5C47.1731 15.901 47.233 16.2617 47.3528 16.582C47.4726 16.9023 47.6497 17.1562 47.884 17.3437C48.121 17.5286 48.4127 17.6211 48.759 17.6211ZM56.845 16.0117V12.5H58.0168V18.5H56.8684V17.4609H56.8059C56.6679 17.7812 56.4465 18.0481 56.1418 18.2617C55.8398 18.4726 55.4635 18.5781 55.0129 18.5781C54.6275 18.5781 54.2864 18.4935 53.9895 18.3242C53.6952 18.1523 53.4635 17.8984 53.2942 17.5625C53.1275 17.2265 53.0442 16.8112 53.0442 16.3164V12.5H54.2122V16.1757C54.2122 16.5846 54.3254 16.9101 54.552 17.1523C54.7786 17.3945 55.0728 17.5156 55.4348 17.5156C55.6536 17.5156 55.871 17.4609 56.0872 17.3515C56.3059 17.2422 56.4869 17.0768 56.6301 16.8554C56.776 16.6341 56.8476 16.3528 56.845 16.0117ZM59.5862 18.5V12.5H60.7541V18.5H59.5862ZM60.176 11.5742C59.9729 11.5742 59.7984 11.5065 59.6526 11.3711C59.5094 11.233 59.4377 11.069 59.4377 10.8789C59.4377 10.6862 59.5094 10.5221 59.6526 10.3867C59.7984 10.2487 59.9729 10.1797 60.176 10.1797C60.3791 10.1797 60.5523 10.2487 60.6955 10.3867C60.8414 10.5221 60.9143 10.6862 60.9143 10.8789C60.9143 11.069 60.8414 11.233 60.6955 11.3711C60.5523 11.5065 60.3791 11.5742 60.176 11.5742ZM62.3254 18.5V12.5H63.4543V13.4531H63.5168C63.6262 13.1302 63.8189 12.8763 64.095 12.6914C64.3736 12.5039 64.6887 12.4101 65.0403 12.4101C65.1132 12.4101 65.1991 12.4127 65.2981 12.4179C65.3996 12.4231 65.4791 12.4297 65.5364 12.4375V13.5547C65.4895 13.5416 65.4062 13.5273 65.2864 13.5117C65.1666 13.4935 65.0468 13.4843 64.927 13.4843C64.651 13.4843 64.4049 13.5429 64.1887 13.6601C63.9752 13.7747 63.8059 13.9349 63.6809 14.1406C63.5559 14.3437 63.4934 14.5755 63.4934 14.8359V18.5H62.3254ZM68.9182 18.6211C68.3271 18.6211 67.8179 18.4948 67.3909 18.2422C66.9664 17.9869 66.6383 17.6289 66.4065 17.1679C66.1773 16.7044 66.0627 16.1614 66.0627 15.539C66.0627 14.9244 66.1773 14.3828 66.4065 13.914C66.6383 13.4453 66.9612 13.0794 67.3752 12.8164C67.7919 12.5534 68.2789 12.4218 68.8362 12.4218C69.1747 12.4218 69.5028 12.4778 69.8205 12.5898C70.1383 12.7018 70.4234 12.8776 70.676 13.1172C70.9286 13.3567 71.1278 13.6679 71.2737 14.0507C71.4195 14.431 71.4924 14.8932 71.4924 15.4375V15.8515H66.7229V14.9765H70.3479C70.3479 14.6692 70.2854 14.3971 70.1604 14.1601C70.0354 13.9205 69.8596 13.7317 69.633 13.5937C69.4091 13.4557 69.1461 13.3867 68.844 13.3867C68.5159 13.3867 68.2294 13.4674 67.9846 13.6289C67.7424 13.7877 67.5549 13.9961 67.4221 14.2539C67.2919 14.5091 67.2268 14.7864 67.2268 15.0859V15.7695C67.2268 16.1705 67.2971 16.5117 67.4377 16.7929C67.581 17.0742 67.7802 17.289 68.0354 17.4375C68.2906 17.5833 68.5888 17.6562 68.9299 17.6562C69.1513 17.6562 69.3531 17.625 69.5354 17.5625C69.7177 17.4974 69.8752 17.401 70.008 17.2734C70.1409 17.1458 70.2424 16.9882 70.3127 16.8007L71.4182 17C71.3297 17.3255 71.1708 17.6106 70.9416 17.8554C70.7151 18.0976 70.4299 18.2864 70.0862 18.4218C69.745 18.5547 69.3557 18.6211 68.9182 18.6211ZM77.2844 13.9648L76.2258 14.1523C76.1815 14.0169 76.1112 13.888 76.0149 13.7656C75.9211 13.6432 75.7935 13.5429 75.6321 13.4648C75.4706 13.3867 75.2688 13.3476 75.0266 13.3476C74.6959 13.3476 74.4198 13.4218 74.1985 13.5703C73.9771 13.7161 73.8664 13.9049 73.8664 14.1367C73.8664 14.3372 73.9407 14.4987 74.0891 14.6211C74.2375 14.7435 74.4771 14.8437 74.8078 14.9218L75.761 15.1406C76.3131 15.2682 76.7245 15.4648 76.9953 15.7304C77.2662 15.9961 77.4016 16.3411 77.4016 16.7656C77.4016 17.125 77.2974 17.4453 77.0891 17.7265C76.8834 18.0052 76.5956 18.2239 76.2258 18.3828C75.8586 18.5416 75.4328 18.6211 74.9485 18.6211C74.2766 18.6211 73.7284 18.4778 73.3039 18.1914C72.8795 17.9023 72.619 17.4922 72.5227 16.9609L73.6516 16.789C73.7219 17.0833 73.8664 17.306 74.0852 17.457C74.3039 17.6054 74.5891 17.6797 74.9407 17.6797C75.3235 17.6797 75.6295 17.6002 75.8586 17.4414C76.0878 17.2799 76.2024 17.0833 76.2024 16.8515C76.2024 16.664 76.1321 16.5065 75.9914 16.3789C75.8534 16.2513 75.6412 16.1549 75.3547 16.0898L74.3391 15.8672C73.7792 15.7396 73.3651 15.5364 73.0969 15.2578C72.8313 14.9791 72.6985 14.6263 72.6985 14.1992C72.6985 13.845 72.7974 13.5351 72.9953 13.2695C73.1933 13.0039 73.4667 12.7968 73.8157 12.6484C74.1646 12.4974 74.5644 12.4218 75.0149 12.4218C75.6633 12.4218 76.1737 12.5625 76.5461 12.8437C76.9185 13.1224 77.1646 13.4961 77.2844 13.9648Z" fill="#E8E8E8"/>
<path d="M89.0817 12.9346H86.951C86.9226 12.7159 86.8643 12.5184 86.7763 12.3423C86.6882 12.1662 86.5717 12.0156 86.4268 11.8906C86.2819 11.7656 86.1101 11.6704 85.9112 11.6051C85.7152 11.5369 85.4978 11.5028 85.2592 11.5028C84.8359 11.5028 84.4709 11.6065 84.164 11.8139C83.8601 12.0213 83.6257 12.321 83.4609 12.713C83.299 13.1051 83.218 13.5795 83.218 14.1363C83.218 14.7159 83.3004 15.2017 83.4652 15.5937C83.6328 15.9829 83.8672 16.277 84.1683 16.4758C84.4723 16.6718 84.8317 16.7699 85.2464 16.7699C85.4794 16.7699 85.691 16.74 85.8814 16.6804C86.0746 16.6207 86.2436 16.5341 86.3885 16.4204C86.5362 16.3039 86.6569 16.1633 86.7507 15.9985C86.8473 15.8309 86.914 15.642 86.951 15.4318L89.0817 15.4446C89.0447 15.8309 88.9325 16.2116 88.745 16.5866C88.5603 16.9616 88.3061 17.3039 87.9822 17.6136C87.6584 17.9204 87.2635 18.1647 86.7976 18.3466C86.3345 18.5284 85.8032 18.6193 85.2038 18.6193C84.414 18.6193 83.7067 18.446 83.0817 18.0994C82.4595 17.75 81.968 17.2414 81.6072 16.5738C81.2464 15.9062 81.066 15.0937 81.066 14.1363C81.066 13.1761 81.2493 12.3622 81.6157 11.6946C81.9822 11.027 82.478 10.5199 83.103 10.1733C83.728 9.82667 84.4282 9.65338 85.2038 9.65338C85.7322 9.65338 86.2209 9.72724 86.6697 9.87497C87.1186 10.0199 87.5135 10.2329 87.8544 10.5142C88.1953 10.7926 88.4723 11.1349 88.6853 11.5412C88.8984 11.9474 89.0305 12.4119 89.0817 12.9346ZM94.5117 15.6747V11.9545H96.5912V18.5H94.6054V17.2812H94.5373C94.3924 17.6818 94.1452 18 93.7958 18.2358C93.4492 18.4687 93.0302 18.5852 92.5387 18.5852C92.0927 18.5852 91.7006 18.4829 91.3625 18.2784C91.0245 18.0738 90.7617 17.7883 90.5742 17.4218C90.3867 17.0525 90.2915 16.6207 90.2887 16.1264V11.9545H92.3725V15.7173C92.3753 16.0724 92.4691 16.3522 92.6537 16.5568C92.8384 16.7613 93.0898 16.8636 93.408 16.8636C93.6154 16.8636 93.8015 16.8181 93.9662 16.7272C94.1339 16.6335 94.266 16.4985 94.3625 16.3224C94.462 16.1434 94.5117 15.9275 94.5117 15.6747ZM103.632 13.9531L101.719 14.0042C101.699 13.8679 101.645 13.7471 101.557 13.642C101.469 13.5341 101.354 13.4503 101.212 13.3906C101.072 13.3281 100.91 13.2968 100.726 13.2968C100.484 13.2968 100.278 13.3451 100.108 13.4417C99.9403 13.5383 99.8579 13.669 99.8608 13.8338C99.8579 13.9616 99.9091 14.0724 100.014 14.1662C100.122 14.2599 100.314 14.3352 100.589 14.392L101.851 14.6306C102.504 14.7556 102.99 14.963 103.308 15.2528C103.629 15.5426 103.791 15.9261 103.794 16.4034C103.791 16.8522 103.658 17.2429 103.393 17.5753C103.132 17.9076 102.774 18.1662 102.32 18.3508C101.865 18.5326 101.345 18.6235 100.76 18.6235C99.8253 18.6235 99.088 18.4318 98.5483 18.0483C98.0113 17.6619 97.7045 17.1449 97.6278 16.4971L99.6861 16.446C99.7315 16.6846 99.8494 16.8664 100.04 16.9914C100.23 17.1164 100.473 17.1789 100.768 17.1789C101.035 17.1789 101.253 17.1292 101.42 17.0298C101.588 16.9304 101.673 16.7983 101.676 16.6335C101.673 16.4858 101.608 16.3679 101.48 16.2798C101.352 16.1889 101.152 16.1179 100.879 16.0667L99.7372 15.8494C99.0809 15.7301 98.5923 15.5099 98.2713 15.1889C97.9503 14.865 97.7912 14.4531 97.794 13.9531C97.7912 13.5156 97.9076 13.142 98.1434 12.8324C98.3792 12.5199 98.7145 12.2812 99.1491 12.1164C99.5838 11.9517 100.097 11.8693 100.687 11.8693C101.574 11.8693 102.273 12.0554 102.784 12.4275C103.295 12.7968 103.578 13.3054 103.632 13.9531ZM108.515 11.9545V13.4886H104.385V11.9545H108.515ZM105.25 10.3863H107.334V16.4417C107.334 16.5696 107.354 16.6733 107.394 16.7528C107.436 16.8295 107.497 16.8849 107.577 16.919C107.657 16.9503 107.752 16.9659 107.863 16.9659C107.942 16.9659 108.026 16.9588 108.114 16.9446C108.205 16.9275 108.273 16.9133 108.319 16.902L108.634 18.4062C108.534 18.4346 108.394 18.4701 108.212 18.5128C108.033 18.5554 107.819 18.5824 107.569 18.5937C107.08 18.6164 106.661 18.5596 106.311 18.4233C105.965 18.2841 105.699 18.0681 105.515 17.7755C105.333 17.4829 105.245 17.115 105.25 16.6718V10.3863ZM112.563 18.6235C111.875 18.6235 111.284 18.4829 110.79 18.2017C110.299 17.9176 109.919 17.5227 109.652 17.017C109.388 16.5085 109.256 15.919 109.256 15.2485C109.256 14.5753 109.388 13.9858 109.652 13.4801C109.919 12.9716 110.299 12.5767 110.79 12.2954C111.284 12.0113 111.875 11.8693 112.563 11.8693C113.25 11.8693 113.84 12.0113 114.331 12.2954C114.826 12.5767 115.205 12.9716 115.469 13.4801C115.736 13.9858 115.87 14.5753 115.87 15.2485C115.87 15.919 115.736 16.5085 115.469 17.017C115.205 17.5227 114.826 17.9176 114.331 18.2017C113.84 18.4829 113.25 18.6235 112.563 18.6235ZM112.576 17.0511C112.826 17.0511 113.037 16.9744 113.211 16.821C113.384 16.6676 113.516 16.4545 113.607 16.1818C113.701 15.9091 113.747 15.5937 113.747 15.2358C113.747 14.8721 113.701 14.5539 113.607 14.2812C113.516 14.0085 113.384 13.7954 113.211 13.642C113.037 13.4886 112.826 13.4119 112.576 13.4119C112.317 13.4119 112.098 13.4886 111.919 13.642C111.743 13.7954 111.608 14.0085 111.515 14.2812C111.424 14.5539 111.378 14.8721 111.378 15.2358C111.378 15.5937 111.424 15.9091 111.515 16.1818C111.608 16.4545 111.743 16.6676 111.919 16.821C112.098 16.9744 112.317 17.0511 112.576 17.0511ZM116.937 18.5V11.9545H118.919V13.1562H118.991C119.127 12.7585 119.358 12.4446 119.681 12.2145C120.005 11.9843 120.392 11.8693 120.841 11.8693C121.295 11.8693 121.684 11.9858 122.008 12.2187C122.332 12.4517 122.538 12.7642 122.626 13.1562H122.694C122.816 12.767 123.055 12.4559 123.41 12.223C123.765 11.9872 124.184 11.8693 124.667 11.8693C125.287 11.8693 125.789 12.0681 126.176 12.4659C126.562 12.8608 126.755 13.4034 126.755 14.0937V18.5H124.671V14.571C124.671 14.2443 124.588 13.9957 124.42 13.8253C124.252 13.652 124.035 13.5653 123.768 13.5653C123.481 13.5653 123.255 13.6591 123.091 13.8466C122.929 14.0312 122.848 14.2798 122.848 14.5923V18.5H120.845V14.5497C120.845 14.2457 120.762 14.0056 120.598 13.8295C120.433 13.6534 120.216 13.5653 119.946 13.5653C119.764 13.5653 119.603 13.6093 119.464 13.6974C119.325 13.7826 119.216 13.9048 119.136 14.0639C119.059 14.223 119.021 14.4105 119.021 14.6264V18.5H116.937ZM132.734 9.7727V18.5H130.625V9.7727H132.734ZM137.753 11.9545V13.4886H133.624V11.9545H137.753ZM134.489 10.3863H136.572V16.4417C136.572 16.5696 136.592 16.6733 136.632 16.7528C136.675 16.8295 136.736 16.8849 136.815 16.919C136.895 16.9503 136.99 16.9659 137.101 16.9659C137.18 16.9659 137.264 16.9588 137.352 16.9446C137.443 16.9275 137.511 16.9133 137.557 16.902L137.872 18.4062C137.773 18.4346 137.632 18.4701 137.45 18.5128C137.271 18.5554 137.057 18.5824 136.807 18.5937C136.318 18.6164 135.899 18.5596 135.55 18.4233C135.203 18.2841 134.937 18.0681 134.753 17.7755C134.571 17.4829 134.483 17.115 134.489 16.6718V10.3863ZM141.805 18.6235C141.121 18.6235 140.53 18.4886 140.033 18.2187C139.538 17.946 139.158 17.5582 138.891 17.0554C138.626 16.5497 138.494 15.9488 138.494 15.2528C138.494 14.5767 138.628 13.9858 138.895 13.4801C139.162 12.9716 139.538 12.5767 140.024 12.2954C140.51 12.0113 141.082 11.8693 141.741 11.8693C142.207 11.8693 142.633 11.9417 143.02 12.0866C143.406 12.2315 143.74 12.446 144.021 12.7301C144.303 13.0142 144.521 13.365 144.678 13.7826C144.834 14.1974 144.912 14.6733 144.912 15.2102V15.7301H139.223V14.5199H142.973C142.97 14.2983 142.918 14.1008 142.815 13.9275C142.713 13.7542 142.572 13.6193 142.393 13.5227C142.217 13.4233 142.014 13.3735 141.784 13.3735C141.551 13.3735 141.342 13.4261 141.158 13.5312C140.973 13.6335 140.827 13.7741 140.719 13.9531C140.611 14.1292 140.554 14.3295 140.548 14.5539V15.7855C140.548 16.0525 140.601 16.2869 140.706 16.4886C140.811 16.6875 140.96 16.8423 141.153 16.9531C141.347 17.0639 141.577 17.1193 141.844 17.1193C142.028 17.1193 142.196 17.0937 142.347 17.0426C142.497 16.9914 142.626 16.9162 142.734 16.8167C142.842 16.7173 142.923 16.5951 142.977 16.4503L144.891 16.5056C144.811 16.9346 144.636 17.3082 144.366 17.6264C144.099 17.9417 143.749 18.1875 143.314 18.3636C142.879 18.5369 142.376 18.6235 141.805 18.6235ZM145.976 18.5V11.9545H147.958V13.1562H148.03C148.167 12.7585 148.397 12.4446 148.72 12.2145C149.044 11.9843 149.431 11.8693 149.88 11.8693C150.334 11.8693 150.723 11.9858 151.047 12.2187C151.371 12.4517 151.577 12.7642 151.665 13.1562H151.733C151.855 12.767 152.094 12.4559 152.449 12.223C152.804 11.9872 153.223 11.8693 153.706 11.8693C154.326 11.8693 154.828 12.0681 155.215 12.4659C155.601 12.8608 155.794 13.4034 155.794 14.0937V18.5H153.711V14.571C153.711 14.2443 153.627 13.9957 153.459 13.8253C153.292 13.652 153.074 13.5653 152.807 13.5653C152.52 13.5653 152.294 13.6591 152.13 13.8466C151.968 14.0312 151.887 14.2798 151.887 14.5923V18.5H149.884V14.5497C149.884 14.2457 149.801 14.0056 149.637 13.8295C149.472 13.6534 149.255 13.5653 148.985 13.5653C148.803 13.5653 148.642 13.6093 148.503 13.6974C148.364 13.7826 148.255 13.9048 148.175 14.0639C148.098 14.223 148.06 14.4105 148.06 14.6264V18.5H145.976ZM159.378 11.4858V9.7727H166.755V11.4858H164.108V18.5H162.029V11.4858H159.378ZM169.895 18.6235C169.211 18.6235 168.62 18.4886 168.122 18.2187C167.628 17.946 167.247 17.5582 166.98 17.0554C166.716 16.5497 166.584 15.9488 166.584 15.2528C166.584 14.5767 166.718 13.9858 166.985 13.4801C167.252 12.9716 167.628 12.5767 168.114 12.2954C168.6 12.0113 169.172 11.8693 169.831 11.8693C170.297 11.8693 170.723 11.9417 171.11 12.0866C171.496 12.2315 171.83 12.446 172.111 12.7301C172.392 13.0142 172.611 13.365 172.767 13.7826C172.924 14.1974 173.002 14.6733 173.002 15.2102V15.7301H167.313V14.5199H171.063C171.06 14.2983 171.007 14.1008 170.905 13.9275C170.803 13.7542 170.662 13.6193 170.483 13.5227C170.307 13.4233 170.104 13.3735 169.874 13.3735C169.641 13.3735 169.432 13.4261 169.247 13.5312C169.063 13.6335 168.916 13.7741 168.809 13.9531C168.701 14.1292 168.644 14.3295 168.638 14.5539V15.7855C168.638 16.0525 168.691 16.2869 168.796 16.4886C168.901 16.6875 169.05 16.8423 169.243 16.9531C169.436 17.0639 169.666 17.1193 169.934 17.1193C170.118 17.1193 170.286 17.0937 170.436 17.0426C170.587 16.9914 170.716 16.9162 170.824 16.8167C170.932 16.7173 171.013 16.5951 171.067 16.4503L172.98 16.5056C172.901 16.9346 172.726 17.3082 172.456 17.6264C172.189 17.9417 171.838 18.1875 171.404 18.3636C170.969 18.5369 170.466 18.6235 169.895 18.6235ZM175.745 11.9545L176.823 14.1108L177.94 11.9545H180.04L178.212 15.2272L180.109 18.5H178.025L176.823 16.3267L175.651 18.5H173.538L175.438 15.2272L173.631 11.9545H175.745ZM184.686 11.9545V13.4886H180.557V11.9545H184.686ZM181.422 10.3863H183.506V16.4417C183.506 16.5696 183.526 16.6733 183.566 16.7528C183.608 16.8295 183.669 16.8849 183.749 16.919C183.828 16.9503 183.924 16.9659 184.034 16.9659C184.114 16.9659 184.198 16.9588 184.286 16.9446C184.377 16.9275 184.445 16.9133 184.49 16.902L184.806 18.4062C184.706 18.4346 184.566 18.4701 184.384 18.5128C184.205 18.5554 183.99 18.5824 183.74 18.5937C183.252 18.6164 182.833 18.5596 182.483 18.4233C182.137 18.2841 181.871 18.0681 181.686 17.7755C181.505 17.4829 181.416 17.115 181.422 16.6718V10.3863ZM189.973 15.6747V11.9545H192.052V18.5H190.066V17.2812H189.998C189.853 17.6818 189.606 18 189.257 18.2358C188.91 18.4687 188.491 18.5852 188 18.5852C187.554 18.5852 187.162 18.4829 186.823 18.2784C186.485 18.0738 186.223 17.7883 186.035 17.4218C185.848 17.0525 185.752 16.6207 185.75 16.1264V11.9545H187.833V15.7173C187.836 16.0724 187.93 16.3522 188.115 16.5568C188.299 16.7613 188.551 16.8636 188.869 16.8636C189.076 16.8636 189.262 16.8181 189.427 16.7272C189.595 16.6335 189.727 16.4985 189.823 16.3224C189.923 16.1434 189.973 15.9275 189.973 15.6747ZM193.378 18.5V11.9545H195.403V13.1477H195.471C195.59 12.7159 195.785 12.3949 196.055 12.1846C196.325 11.9716 196.638 11.865 196.996 11.865C197.093 11.865 197.192 11.8721 197.295 11.8863C197.397 11.8977 197.492 11.9162 197.58 11.9417V13.7528C197.481 13.7187 197.35 13.6917 197.188 13.6718C197.029 13.652 196.887 13.642 196.762 13.642C196.515 13.642 196.292 13.6974 196.093 13.8082C195.897 13.9162 195.742 14.0681 195.628 14.2642C195.518 14.4574 195.462 14.6846 195.462 14.946V18.5H193.378ZM201.149 18.6235C200.464 18.6235 199.874 18.4886 199.376 18.2187C198.882 17.946 198.501 17.5582 198.234 17.0554C197.97 16.5497 197.838 15.9488 197.838 15.2528C197.838 14.5767 197.972 13.9858 198.239 13.4801C198.506 12.9716 198.882 12.5767 199.368 12.2954C199.854 12.0113 200.426 11.8693 201.085 11.8693C201.551 11.8693 201.977 11.9417 202.364 12.0866C202.75 12.2315 203.084 12.446 203.365 12.7301C203.646 13.0142 203.865 13.365 204.021 13.7826C204.177 14.1974 204.256 14.6733 204.256 15.2102V15.7301H198.567V14.5199H202.317C202.314 14.2983 202.261 14.1008 202.159 13.9275C202.057 13.7542 201.916 13.6193 201.737 13.5227C201.561 13.4233 201.358 13.3735 201.128 13.3735C200.895 13.3735 200.686 13.4261 200.501 13.5312C200.317 13.6335 200.17 13.7741 200.062 13.9531C199.954 14.1292 199.898 14.3295 199.892 14.5539V15.7855C199.892 16.0525 199.945 16.2869 200.05 16.4886C200.155 16.6875 200.304 16.8423 200.497 16.9531C200.69 17.0639 200.92 17.1193 201.187 17.1193C201.372 17.1193 201.54 17.0937 201.69 17.0426C201.841 16.9914 201.97 16.9162 202.078 16.8167C202.186 16.7173 202.267 16.5951 202.321 16.4503L204.234 16.5056C204.155 16.9346 203.98 17.3082 203.71 17.6264C203.443 17.9417 203.092 18.1875 202.658 18.3636C202.223 18.5369 201.72 18.6235 201.149 18.6235ZM211.034 13.9531L209.121 14.0042C209.101 13.8679 209.047 13.7471 208.959 13.642C208.871 13.5341 208.756 13.4503 208.614 13.3906C208.475 13.3281 208.313 13.2968 208.128 13.2968C207.887 13.2968 207.681 13.3451 207.51 13.4417C207.343 13.5383 207.26 13.669 207.263 13.8338C207.26 13.9616 207.311 14.0724 207.416 14.1662C207.524 14.2599 207.716 14.3352 207.992 14.392L209.253 14.6306C209.907 14.7556 210.392 14.963 210.711 15.2528C211.032 15.5426 211.193 15.9261 211.196 16.4034C211.193 16.8522 211.06 17.2429 210.796 17.5753C210.534 17.9076 210.176 18.1662 209.722 18.3508C209.267 18.5326 208.747 18.6235 208.162 18.6235C207.228 18.6235 206.49 18.4318 205.951 18.0483C205.414 17.6619 205.107 17.1449 205.03 16.4971L207.088 16.446C207.134 16.6846 207.252 16.8664 207.442 16.9914C207.632 17.1164 207.875 17.1789 208.171 17.1789C208.438 17.1789 208.655 17.1292 208.823 17.0298C208.99 16.9304 209.076 16.7983 209.078 16.6335C209.076 16.4858 209.01 16.3679 208.882 16.2798C208.755 16.1889 208.554 16.1179 208.282 16.0667L207.139 15.8494C206.483 15.7301 205.995 15.5099 205.674 15.1889C205.353 14.865 205.193 14.4531 205.196 13.9531C205.193 13.5156 205.31 13.142 205.546 12.8324C205.782 12.5199 206.117 12.2812 206.551 12.1164C206.986 11.9517 207.499 11.8693 208.09 11.8693C208.976 11.8693 209.675 12.0554 210.186 12.4275C210.698 12.7968 210.98 13.3054 211.034 13.9531Z" fill="white"/>
</g>
<rect x="0.749268" y="0.749969" width="217" height="26.5" rx="5.25" stroke="white" stroke-opacity="0.15" stroke-width="1.5"/>
<defs>
<filter id="filter0_d_28_2737" x="1.99927" y="-3.05176e-05" width="28" height="28" filterUnits="userSpaceOnUse" color-interpolation-filters="sRGB">
<feFlood flood-opacity="0" result="BackgroundImageFix"/>
<feColorMatrix in="SourceAlpha" type="matrix" values="0 0 0 0 0 0 0 0 0 0 0 0 0 0 0 0 0 0 127 0" result="hardAlpha"/>
<feOffset/>
<feGaussianBlur stdDeviation="2"/>
<feComposite in2="hardAlpha" operator="out"/>
<feColorMatrix type="matrix" values="0 0 0 0 0 0 0 0 0 0 0 0 0 0 0 0 0 0 0.25 0"/>
<feBlend mode="normal" in2="BackgroundImageFix" result="effect1_dropShadow_28_2737"/>
<feBlend mode="normal" in="SourceGraphic" in2="effect1_dropShadow_28_2737" result="shape"/>
</filter>
<filter id="filter1_d_28_2737" x="27.9993" y="3.49997" width="188.5" height="21.25" filterUnits="userSpaceOnUse" color-interpolation-filters="sRGB">
<feFlood flood-opacity="0" result="BackgroundImageFix"/>
<feColorMatrix in="SourceAlpha" type="matrix" values="0 0 0 0 0 0 0 0 0 0 0 0 0 0 0 0 0 0 127 0" result="hardAlpha"/>
<feOffset/>
<feGaussianBlur stdDeviation="2"/>
<feComposite in2="hardAlpha" operator="out"/>
<feColorMatrix type="matrix" values="0 0 0 0 0 0 0 0 0 0 0 0 0 0 0 0 0 0 0.25 0"/>
<feBlend mode="normal" in2="BackgroundImageFix" result="effect1_dropShadow_28_2737"/>
<feBlend mode="normal" in="SourceGraphic" in2="effect1_dropShadow_28_2737" result="shape"/>
</filter>
<linearGradient id="paint0_linear_28_2737" x1="109.249" y1="-3.05176e-05" x2="109.249" y2="26.6" gradientUnits="userSpaceOnUse">
<stop stop-color="#3E3E3E"/>
<stop offset="1" stop-color="#272727"/>
</linearGradient>
</defs>
</svg>
