<svg width="268" height="41" viewBox="0 0 268 41" fill="none" xmlns="http://www.w3.org/2000/svg">
<g clip-path="url(#clip0_28_2711)">
<rect x="0.00439453" y="0.00418091" width="267.001" height="40.0014" rx="8" fill="url(#paint0_linear_28_2711)"/>
<g filter="url(#filter0_d_28_2711)">
<path d="M23.0887 6.00418V8.01533H21.0767V12.0376H19.0647V14.0488H17.0527V15.9052H15.0407V17.9164H13.0286V19.9275H11.0166V21.9387H9.00464V25.961H11.0166V27.9721H13.0286V29.9833H15.0407V31.9944H17.0527V34.0056H19.0647V31.9944H21.0767V29.9833H23.0887V27.9721H25.1007V25.961H27.1127V23.9498H28.9699V21.9387H32.9939V19.9275H35.0059V15.9052H32.9939V14.0488H30.9819V12.0376H28.9699V10.0265H27.1127V8.01533H25.1007V6.00418H23.0887Z" fill="#115110"/>
<path d="M23.0889 8.01534V10.0265H25.1009V12.0376H27.1129V14.0488H28.9701V15.9052H30.9821V14.0488H28.9701V12.0376H27.1129V10.0265H25.1009V8.01534H23.0889Z" fill="#9CFF55"/>
<path d="M23.0889 10.0265V12.0376H25.1V10.0265H23.0889Z" fill="#90EB4B"/>
<path d="M21.0771 12.0376V15.9052H17.0531V17.9164H15.0411V19.9275H13.0291V23.9498H15.0411V25.961H17.0531V27.9721H21.0771V23.9498H19.0651V21.9387H23.0891V23.9498H25.1011V19.9275H23.0891V17.9164H27.1131V15.9052H25.1011V14.0488H23.0891V12.0376H21.0771Z" fill="#9CFF55"/>
<path d="M23.0889 12.0376V14.0488H25.1009V15.9052H27.1129V17.9164H28.9701V15.9052H27.1129V14.0488H25.1009V12.0376H23.0889Z" fill="#115110"/>
<path d="M25.1008 12.0376V14.0488H27.112V12.0376H25.1008Z" fill="#89DC42"/>
<path d="M19.0647 14.0488V15.9052H21.0758V14.0488H19.0647Z" fill="#90EB4B"/>
<path d="M27.1128 14.0488V15.9052H28.9692V14.0488H27.1128Z" fill="#89DC42"/>
<path d="M21.0771 15.9052V17.9164H23.0883V15.9052H21.0771Z" fill="#90EB4B"/>
<path d="M28.97 15.9052V17.9164H30.9811V15.9052H28.97Z" fill="#89DC42"/>
<path d="M23.0889 17.9164V19.9275H27.1129V17.9164H23.0889Z" fill="#90EB4B"/>
<path d="M27.1128 17.9164V19.9275H25.1008V23.9498H27.1128V21.9387H28.9701V17.9164H27.1128Z" fill="#89DC42"/>
<path d="M30.9822 17.9164V19.9275H32.9933V17.9164H30.9822Z" fill="#5E8D2F"/>
<path d="M17.0527 19.9275V21.9387H19.0639V19.9275H17.0527Z" fill="#90EB4B"/>
<path d="M11.0166 21.9387V23.9499H13.0286V25.961H15.0406V27.9722H17.0526V29.9833H19.0646V27.9722H17.0526V25.961H15.0406V23.9499H13.0286V21.9387H11.0166Z" fill="#80CC3D"/>
<path d="M19.0647 21.9387V23.9499H23.0887V21.9387H19.0647Z" fill="#90EB4B"/>
<path d="M11.0166 23.9498V25.961H13.0278V23.9498H11.0166Z" fill="#6EAA33"/>
<path d="M21.0771 23.9498V27.9721H23.0892V25.961H25.1012V23.9498H21.0771Z" fill="#89DC42"/>
<path d="M13.0291 25.961V27.9721H15.0411V25.961H13.0291ZM15.0411 27.9721V29.9833H17.0531V27.9721H15.0411Z" fill="#6EAA33"/>
<path d="M19.0647 27.9721V29.9833H21.0758V27.9721H19.0647Z" fill="#89DC42"/>
<path d="M17.0527 29.9833V31.9944H19.0639V29.9833H17.0527Z" fill="#6EAA33"/>
</g>
<g filter="url(#filter1_d_28_2711)">
<path d="M45.3642 26.5049V14.1412H49.7711C50.729 14.1412 51.5238 14.3063 52.1557 14.6363C52.7916 14.9663 53.2665 15.4231 53.5804 16.0067C53.8944 16.5862 54.0513 17.2563 54.0513 18.017C54.0513 18.7736 53.8923 19.4397 53.5744 20.0152C53.2605 20.5867 52.7856 21.0314 52.1497 21.3493C51.5178 21.6673 50.723 21.8263 49.7651 21.8263H46.4267V20.2204H49.5961C50.1997 20.2204 50.6908 20.1339 51.0691 19.9608C51.4514 19.7878 51.7311 19.5362 51.9082 19.2062C52.0853 18.8762 52.1738 18.4798 52.1738 18.017C52.1738 17.5501 52.0833 17.1456 51.9022 16.8035C51.7251 16.4614 51.4454 16.1998 51.063 16.0187C50.6847 15.8336 50.1877 15.741 49.5719 15.741H47.2296V26.5049H45.3642ZM51.4675 20.9268L54.5222 26.5049H52.3972L49.4029 20.9268H51.4675ZM60.0565 26.692C59.143 26.692 58.3561 26.4968 57.6961 26.1064C57.0401 25.712 56.533 25.1586 56.1748 24.4463C55.8206 23.7299 55.6436 22.8908 55.6436 21.9289C55.6436 20.9791 55.8206 20.142 56.1748 19.4175C56.533 18.6931 57.032 18.1276 57.672 17.7211C58.3159 17.3147 59.0685 17.1114 59.9298 17.1114C60.453 17.1114 60.9601 17.1979 61.4511 17.371C61.9421 17.5441 62.3828 17.8157 62.7732 18.186C63.1636 18.5563 63.4714 19.0372 63.6968 19.6288C63.9222 20.2164 64.0349 20.9308 64.0349 21.7719V22.4118H56.6638V21.0596H62.2661C62.2661 20.5847 62.1695 20.1641 61.9763 19.7978C61.7831 19.4276 61.5114 19.1358 61.1613 18.9225C60.8152 18.7092 60.4087 18.6025 59.9418 18.6025C59.4347 18.6025 58.992 18.7273 58.6137 18.9768C58.2394 19.2223 57.9497 19.5443 57.7444 19.9427C57.5432 20.3371 57.4426 20.7658 57.4426 21.2286V22.2851C57.4426 22.9049 57.5512 23.4321 57.7686 23.8667C57.9899 24.3014 58.2978 24.6334 58.6922 24.8628C59.0866 25.0882 59.5474 25.2009 60.0747 25.2009C60.4168 25.2009 60.7287 25.1526 61.0104 25.056C61.2921 24.9554 61.5356 24.8065 61.7409 24.6093C61.9461 24.4121 62.1031 24.1686 62.2117 23.8788L63.9202 24.1867C63.7833 24.6898 63.5378 25.1305 63.1837 25.5088C62.8335 25.8831 62.3928 26.1749 61.8616 26.3841C61.3344 26.5894 60.7327 26.692 60.0565 26.692ZM72.2979 29.9821V25.0621H72.1893C72.0806 25.2593 71.9236 25.4846 71.7184 25.7382C71.5172 25.9917 71.2395 26.2131 70.8853 26.4022C70.5311 26.5914 70.0723 26.686 69.5089 26.686C68.7603 26.686 68.0922 26.4948 67.5046 26.1125C66.921 25.7261 66.4622 25.1768 66.1282 24.4644C65.7982 23.748 65.6332 22.8888 65.6332 21.8866C65.6332 20.8845 65.8002 20.0273 66.1342 19.3149C66.4723 18.6025 66.9351 18.0572 67.5227 17.6789C68.1103 17.3006 68.7764 17.1114 69.5209 17.1114C70.0965 17.1114 70.5593 17.208 70.9094 17.4012C71.2636 17.5903 71.5373 17.8117 71.7305 18.0652C71.9277 18.3188 72.0806 18.5422 72.1893 18.7353H72.3402V17.2322H74.103V29.9821H72.2979ZM69.9073 25.1466C70.4265 25.1466 70.8652 25.0097 71.2234 24.7361C71.5856 24.4584 71.8592 24.074 72.0444 23.583C72.2335 23.092 72.3281 22.5205 72.3281 21.8685C72.3281 21.2246 72.2356 20.6611 72.0504 20.1782C71.8653 19.6952 71.5936 19.3189 71.2354 19.0493C70.8772 18.7796 70.4345 18.6448 69.9073 18.6448C69.364 18.6448 68.9112 18.7857 68.549 19.0674C68.1868 19.3491 67.9131 19.7335 67.728 20.2204C67.5469 20.7074 67.4563 21.2568 67.4563 21.8685C67.4563 22.4883 67.5489 23.0457 67.734 23.5407C67.9191 24.0358 68.1928 24.4282 68.555 24.7179C68.9213 25.0037 69.372 25.1466 69.9073 25.1466ZM82.4038 22.6594V17.2322H84.2148V26.5049H82.44V24.8991H82.3434C82.1301 25.3941 81.788 25.8066 81.3171 26.1366C80.8502 26.4626 80.2687 26.6256 79.5724 26.6256C78.9768 26.6256 78.4496 26.4948 77.9908 26.2332C77.536 25.9676 77.1778 25.5752 76.9162 25.056C76.6586 24.5368 76.5298 23.8949 76.5298 23.1302V17.2322H78.3349V22.9129C78.3349 23.5448 78.5099 24.0478 78.8601 24.4221C79.2102 24.7964 79.665 24.9836 80.2244 24.9836C80.5625 24.9836 80.8985 24.8991 81.2326 24.73C81.5707 24.561 81.8504 24.3054 82.0717 23.9633C82.2971 23.6212 82.4078 23.1866 82.4038 22.6594ZM86.6402 26.5049V17.2322H88.4452V26.5049H86.6402ZM87.5517 15.8014C87.2378 15.8014 86.9682 15.6968 86.7428 15.4875C86.5214 15.2742 86.4108 15.0206 86.4108 14.7268C86.4108 14.429 86.5214 14.1755 86.7428 13.9662C86.9682 13.7529 87.2378 13.6462 87.5517 13.6462C87.8657 13.6462 88.1333 13.7529 88.3547 13.9662C88.58 14.1755 88.6927 14.429 88.6927 14.7268C88.6927 15.0206 88.58 15.2742 88.3547 15.4875C88.1333 15.6968 87.8657 15.8014 87.5517 15.8014ZM90.8736 26.5049V17.2322H92.6182V18.7052H92.7148C92.8839 18.2061 93.1817 17.8137 93.6083 17.528C94.0389 17.2382 94.5259 17.0933 95.0692 17.0933C95.1819 17.0933 95.3147 17.0973 95.4677 17.1054C95.6246 17.1134 95.7474 17.1235 95.8359 17.1356V18.8621C95.7635 18.842 95.6347 18.8199 95.4496 18.7957C95.2644 18.7675 95.0793 18.7535 94.8942 18.7535C94.4676 18.7535 94.0872 18.844 93.7532 19.0251C93.4232 19.2022 93.1616 19.4497 92.9684 19.7677C92.7752 20.0816 92.6786 20.4398 92.6786 20.8422V26.5049H90.8736ZM101.062 26.692C100.149 26.692 99.362 26.4968 98.702 26.1064C98.0459 25.712 97.5388 25.1586 97.1806 24.4463C96.8265 23.7299 96.6494 22.8908 96.6494 21.9289C96.6494 20.9791 96.8265 20.142 97.1806 19.4175C97.5388 18.6931 98.0379 18.1276 98.6778 17.7211C99.3217 17.3147 100.074 17.1114 100.936 17.1114C101.459 17.1114 101.966 17.1979 102.457 17.371C102.948 17.5441 103.389 17.8157 103.779 18.186C104.169 18.5563 104.477 19.0372 104.703 19.6288C104.928 20.2164 105.041 20.9308 105.041 21.7719V22.4118H97.6696V21.0596H103.272C103.272 20.5847 103.175 20.1641 102.982 19.7978C102.789 19.4276 102.517 19.1358 102.167 18.9225C101.821 18.7092 101.415 18.6025 100.948 18.6025C100.441 18.6025 99.9979 18.7273 99.6196 18.9768C99.2453 19.2223 98.9555 19.5443 98.7503 19.9427C98.549 20.3371 98.4484 20.7658 98.4484 21.2286V22.2851C98.4484 22.9049 98.5571 23.4321 98.7744 23.8667C98.9958 24.3014 99.3036 24.6334 99.698 24.8628C100.092 25.0882 100.553 25.2009 101.081 25.2009C101.423 25.2009 101.735 25.1526 102.016 25.056C102.298 24.9554 102.541 24.8065 102.747 24.6093C102.952 24.4121 103.109 24.1686 103.218 23.8788L104.926 24.1867C104.789 24.6898 104.544 25.1305 104.19 25.5088C103.839 25.8831 103.399 26.1749 102.867 26.3841C102.34 26.5894 101.739 26.692 101.062 26.692ZM113.992 19.496L112.356 19.7858C112.288 19.5765 112.179 19.3773 112.03 19.1881C111.885 18.999 111.688 18.844 111.438 18.7233C111.189 18.6025 110.877 18.5422 110.503 18.5422C109.992 18.5422 109.565 18.6569 109.223 18.8863C108.881 19.1117 108.71 19.4034 108.71 19.7616C108.71 20.0715 108.824 20.321 109.054 20.5102C109.283 20.6994 109.653 20.8543 110.165 20.975L111.638 21.3131C112.491 21.5103 113.127 21.8142 113.545 22.2247C113.964 22.6352 114.173 23.1685 114.173 23.8245C114.173 24.3799 114.012 24.8749 113.69 25.3096C113.372 25.7402 112.927 26.0783 112.356 26.3238C111.789 26.5693 111.13 26.692 110.382 26.692C109.344 26.692 108.496 26.4707 107.84 26.028C107.184 25.5812 106.782 24.9473 106.633 24.1263L108.378 23.8607C108.486 24.3155 108.71 24.6596 109.048 24.893C109.386 25.1224 109.827 25.2371 110.37 25.2371C110.961 25.2371 111.434 25.1144 111.789 24.8689C112.143 24.6193 112.32 24.3155 112.32 23.9573C112.32 23.6675 112.211 23.424 111.994 23.2268C111.78 23.0296 111.452 22.8807 111.01 22.7801L109.44 22.436C108.575 22.2388 107.935 21.9249 107.52 21.4942C107.11 21.0636 106.905 20.5183 106.905 19.8582C106.905 19.3109 107.058 18.8319 107.363 18.4214C107.669 18.0109 108.092 17.691 108.631 17.4616C109.17 17.2281 109.788 17.1114 110.485 17.1114C111.487 17.1114 112.275 17.3287 112.851 17.7634C113.427 18.194 113.807 18.7716 113.992 19.496Z" fill="#E8E8E8"/>
<path d="M131.164 18.6206H128.146C128.106 18.3108 128.023 18.031 127.898 17.7815C127.773 17.532 127.608 17.3187 127.403 17.1416C127.198 16.9645 126.954 16.8297 126.673 16.7371C126.395 16.6405 126.087 16.5922 125.749 16.5922C125.149 16.5922 124.632 16.7391 124.198 17.0329C123.767 17.3267 123.435 17.7513 123.202 18.3067C122.972 18.8621 122.857 19.5342 122.857 20.3231C122.857 21.1441 122.974 21.8323 123.208 22.3877C123.445 22.9391 123.777 23.3556 124.204 23.6373C124.634 23.915 125.143 24.0539 125.731 24.0539C126.061 24.0539 126.361 24.0116 126.631 23.9271C126.904 23.8426 127.144 23.7198 127.349 23.5589C127.558 23.3938 127.729 23.1946 127.862 22.9612C127.999 22.7237 128.093 22.4561 128.146 22.1583L131.164 22.1764C131.112 22.7237 130.953 23.263 130.687 23.7943C130.426 24.3255 130.066 24.8105 129.607 25.2492C129.148 25.6839 128.588 26.03 127.928 26.2875C127.272 26.5451 126.52 26.6739 125.671 26.6739C124.552 26.6739 123.55 26.4284 122.664 25.9374C121.783 25.4424 121.087 24.722 120.575 23.7762C120.064 22.8304 119.809 21.6794 119.809 20.3231C119.809 18.9627 120.068 17.8097 120.588 16.8639C121.107 15.9181 121.809 15.1997 122.694 14.7087C123.58 14.2177 124.572 13.9722 125.671 13.9722C126.419 13.9722 127.111 14.0769 127.747 14.2861C128.383 14.4914 128.943 14.7932 129.426 15.1917C129.909 15.5861 130.301 16.0711 130.603 16.6466C130.905 17.2221 131.092 17.8801 131.164 18.6206ZM135.826 14.1412V26.5049H132.874V14.1412H135.826ZM142.034 26.6799C141.06 26.6799 140.223 26.4807 139.522 26.0823C138.826 25.6798 138.289 25.1204 137.911 24.404C137.536 23.6836 137.349 22.8485 137.349 21.8987C137.349 20.9449 137.536 20.1098 137.911 19.3934C138.289 18.673 138.826 18.1135 139.522 17.7151C140.223 17.3126 141.06 17.1114 142.034 17.1114C143.008 17.1114 143.843 17.3126 144.539 17.7151C145.239 18.1135 145.777 18.673 146.151 19.3934C146.529 20.1098 146.718 20.9449 146.718 21.8987C146.718 22.8485 146.529 23.6836 146.151 24.404C145.777 25.1204 145.239 25.6798 144.539 26.0823C143.843 26.4807 143.008 26.6799 142.034 26.6799ZM142.052 24.4523C142.406 24.4523 142.706 24.3437 142.951 24.1263C143.197 23.909 143.384 23.6072 143.513 23.2208C143.646 22.8344 143.712 22.3877 143.712 21.8806C143.712 21.3654 143.646 20.9147 143.513 20.5283C143.384 20.142 143.197 19.8401 142.951 19.6228C142.706 19.4054 142.406 19.2968 142.052 19.2968C141.686 19.2968 141.376 19.4054 141.122 19.6228C140.873 19.8401 140.681 20.142 140.549 20.5283C140.42 20.9147 140.355 21.3654 140.355 21.8806C140.355 22.3877 140.42 22.8344 140.549 23.2208C140.681 23.6072 140.873 23.909 141.122 24.1263C141.376 24.3437 141.686 24.4523 142.052 24.4523ZM153.465 17.2322V19.4054H147.615V17.2322H153.465ZM148.84 15.0106H151.792V23.589C151.792 23.7701 151.821 23.917 151.877 24.0297C151.937 24.1384 152.024 24.2169 152.137 24.2652C152.249 24.3094 152.384 24.3316 152.541 24.3316C152.654 24.3316 152.772 24.3215 152.897 24.3014C153.026 24.2773 153.123 24.2571 153.187 24.241L153.634 26.3721C153.493 26.4123 153.294 26.4626 153.036 26.523C152.782 26.5834 152.479 26.6216 152.124 26.6377C151.432 26.6699 150.839 26.5894 150.344 26.3962C149.853 26.199 149.476 25.8931 149.215 25.4786C148.957 25.0641 148.832 24.5429 148.84 23.915V15.0106ZM158.122 21.2165V26.5049H155.17V14.1412H158.026V18.9346H158.128C158.337 18.3631 158.68 17.9163 159.154 17.5944C159.633 17.2724 160.219 17.1114 160.911 17.1114C161.563 17.1114 162.131 17.2563 162.614 17.5461C163.097 17.8318 163.471 18.2363 163.736 18.7595C164.006 19.2827 164.139 19.8944 164.135 20.5947V26.5049H161.183V21.1743C161.187 20.6591 161.058 20.2567 160.797 19.9669C160.535 19.6771 160.167 19.5322 159.692 19.5322C159.382 19.5322 159.108 19.6006 158.871 19.7375C158.637 19.8703 158.454 20.0615 158.321 20.311C158.193 20.5605 158.126 20.8624 158.122 21.2165ZM180.853 18.6206H177.834C177.794 18.3108 177.711 18.031 177.587 17.7815C177.462 17.532 177.297 17.3187 177.092 17.1416C176.886 16.9645 176.643 16.8297 176.361 16.7371C176.084 16.6405 175.776 16.5922 175.438 16.5922C174.838 16.5922 174.321 16.7391 173.886 17.0329C173.455 17.3267 173.123 17.7513 172.89 18.3067C172.661 18.8621 172.546 19.5342 172.546 20.3231C172.546 21.1441 172.663 21.8323 172.896 22.3877C173.133 22.9391 173.466 23.3556 173.892 23.6373C174.323 23.915 174.832 24.0539 175.419 24.0539C175.749 24.0539 176.049 24.0116 176.319 23.9271C176.593 23.8426 176.832 23.7198 177.037 23.5589C177.247 23.3938 177.418 23.1946 177.55 22.9612C177.687 22.7237 177.782 22.4561 177.834 22.1583L180.853 22.1764C180.8 22.7237 180.641 23.263 180.376 23.7943C180.114 24.3255 179.754 24.8105 179.295 25.2492C178.836 25.6839 178.277 26.03 177.617 26.2875C176.961 26.5451 176.208 26.6739 175.359 26.6739C174.24 26.6739 173.238 26.4284 172.353 25.9374C171.471 25.4424 170.775 24.722 170.264 23.7762C169.753 22.8304 169.497 21.6794 169.497 20.3231C169.497 18.9627 169.757 17.8097 170.276 16.8639C170.795 15.9181 171.497 15.1997 172.383 14.7087C173.268 14.2177 174.26 13.9722 175.359 13.9722C176.108 13.9722 176.8 14.0769 177.436 14.2861C178.072 14.4914 178.631 14.7932 179.114 15.1917C179.597 15.5861 179.989 16.0711 180.291 16.6466C180.593 17.2221 180.78 17.8801 180.853 18.6206ZM186.891 26.6799C185.917 26.6799 185.08 26.4807 184.38 26.0823C183.684 25.6798 183.146 25.1204 182.768 24.404C182.394 23.6836 182.206 22.8485 182.206 21.8987C182.206 20.9449 182.394 20.1098 182.768 19.3934C183.146 18.673 183.684 18.1135 184.38 17.7151C185.08 17.3126 185.917 17.1114 186.891 17.1114C187.865 17.1114 188.7 17.3126 189.396 17.7151C190.097 18.1135 190.634 18.673 191.008 19.3934C191.387 20.1098 191.576 20.9449 191.576 21.8987C191.576 22.8485 191.387 23.6836 191.008 24.404C190.634 25.1204 190.097 25.6798 189.396 26.0823C188.7 26.4807 187.865 26.6799 186.891 26.6799ZM186.909 24.4523C187.263 24.4523 187.563 24.3437 187.809 24.1263C188.054 23.909 188.241 23.6072 188.37 23.2208C188.503 22.8344 188.569 22.3877 188.569 21.8806C188.569 21.3654 188.503 20.9147 188.37 20.5283C188.241 20.142 188.054 19.8401 187.809 19.6228C187.563 19.4054 187.263 19.2968 186.909 19.2968C186.543 19.2968 186.233 19.4054 185.98 19.6228C185.73 19.8401 185.539 20.142 185.406 20.5283C185.277 20.9147 185.213 21.3654 185.213 21.8806C185.213 22.3877 185.277 22.8344 185.406 23.2208C185.539 23.6072 185.73 23.909 185.98 24.1263C186.233 24.3437 186.543 24.4523 186.909 24.4523ZM196.04 21.2165V26.5049H193.088V17.2322H195.895V18.9346H195.998C196.203 18.3671 196.553 17.9224 197.048 17.6004C197.543 17.2744 198.133 17.1114 198.817 17.1114C199.469 17.1114 200.035 17.2583 200.513 17.5521C200.996 17.8419 201.371 18.2484 201.636 18.7716C201.906 19.2907 202.039 19.8985 202.035 20.5947V26.5049H199.083V21.1743C199.087 20.6591 198.956 20.2567 198.69 19.9669C198.429 19.6771 198.064 19.5322 197.598 19.5322C197.288 19.5322 197.014 19.6006 196.777 19.7375C196.543 19.8703 196.362 20.0615 196.233 20.311C196.109 20.5605 196.044 20.8624 196.04 21.2165ZM209.133 17.2322V19.4054H203.168V17.2322H209.133ZM204.412 26.5049V16.7613C204.412 16.0449 204.547 15.4513 204.816 14.9804C205.086 14.5055 205.46 14.1513 205.939 13.9179C206.418 13.6804 206.971 13.5617 207.599 13.5617C208.01 13.5617 208.396 13.5939 208.758 13.6583C209.125 13.7187 209.396 13.773 209.573 13.8213L209.103 15.9825C208.994 15.9463 208.861 15.9161 208.704 15.892C208.551 15.8678 208.406 15.8557 208.269 15.8557C207.923 15.8557 207.686 15.9322 207.557 16.0851C207.428 16.2381 207.364 16.4474 207.364 16.713V26.5049H204.412ZM210.553 26.5049V17.2322H213.505V26.5049H210.553ZM212.032 16.1515C211.617 16.1515 211.261 16.0147 210.963 15.741C210.666 15.4633 210.517 15.1293 210.517 14.7389C210.517 14.3525 210.666 14.0225 210.963 13.7488C211.261 13.4711 211.617 13.3323 212.032 13.3323C212.45 13.3323 212.807 13.4711 213.1 13.7488C213.398 14.0225 213.547 14.3525 213.547 14.7389C213.547 15.1293 213.398 15.4633 213.1 15.741C212.807 16.0147 212.45 16.1515 212.032 16.1515ZM219.706 30.1753C218.825 30.1753 218.07 30.0526 217.443 29.8071C216.815 29.5616 216.322 29.2255 215.963 28.7989C215.605 28.3723 215.39 27.8893 215.318 27.35L218.113 27.1931C218.165 27.3822 218.262 27.5473 218.402 27.6881C218.547 27.829 218.734 27.9376 218.964 28.0141C219.197 28.0906 219.471 28.1288 219.785 28.1288C220.28 28.1288 220.688 28.0081 221.01 27.7666C221.336 27.5291 221.499 27.1126 221.499 26.517V24.887H221.397C221.28 25.1727 221.103 25.4283 220.865 25.6537C220.628 25.879 220.332 26.0561 219.978 26.1849C219.628 26.3137 219.225 26.3781 218.771 26.3781C218.095 26.3781 217.475 26.2211 216.911 25.9072C216.352 25.5893 215.903 25.0983 215.565 24.4342C215.231 23.7661 215.064 22.9069 215.064 21.8564C215.064 20.7738 215.237 19.8824 215.583 19.1821C215.929 18.4778 216.382 17.9566 216.941 17.6185C217.505 17.2804 218.111 17.1114 218.759 17.1114C219.246 17.1114 219.662 17.1959 220.008 17.365C220.358 17.53 220.646 17.7433 220.872 18.0049C221.097 18.2665 221.268 18.5381 221.385 18.8199H221.469V17.2322H224.409V26.5411C224.409 27.3259 224.212 27.988 223.818 28.5272C223.423 29.0665 222.872 29.475 222.163 29.7527C221.455 30.0345 220.636 30.1753 219.706 30.1753ZM219.797 24.229C220.155 24.229 220.461 24.1344 220.715 23.9452C220.968 23.7561 221.163 23.4844 221.3 23.1302C221.437 22.7761 221.505 22.3515 221.505 21.8564C221.505 21.3534 221.437 20.9207 221.3 20.5585C221.167 20.1923 220.972 19.9105 220.715 19.7133C220.461 19.5161 220.155 19.4175 219.797 19.4175C219.431 19.4175 219.121 19.5181 218.867 19.7194C218.614 19.9206 218.421 20.2043 218.288 20.5706C218.159 20.9328 218.095 21.3614 218.095 21.8564C218.095 22.3515 218.161 22.7761 218.294 23.1302C218.427 23.4844 218.618 23.7561 218.867 23.9452C219.121 24.1344 219.431 24.229 219.797 24.229ZM232.618 26.5049H229.406L233.578 14.1412H237.556L241.728 26.5049H238.516L235.612 17.2563H235.516L232.618 26.5049ZM232.189 21.6391H238.902V23.909H232.189V21.6391ZM243.059 26.5049V14.1412H248.166C249.092 14.1412 249.891 14.3224 250.563 14.6846C251.239 15.0428 251.76 15.5438 252.126 16.1878C252.492 16.8277 252.676 17.5722 252.676 18.4214C252.676 19.2746 252.488 20.0212 252.114 20.6611C251.744 21.297 251.215 21.79 250.526 22.1402C249.838 22.4903 249.021 22.6654 248.075 22.6654H244.924V20.311H247.52C247.971 20.311 248.347 20.2325 248.649 20.0755C248.955 19.9186 249.186 19.6992 249.343 19.4175C249.5 19.1318 249.579 18.7997 249.579 18.4214C249.579 18.0391 249.5 17.7091 249.343 17.4314C249.186 17.1496 248.955 16.9323 248.649 16.7794C248.343 16.6264 247.967 16.55 247.52 16.55H246.047V26.5049H243.059ZM257.137 14.1412V26.5049H254.149V14.1412H257.137Z" fill="url(#paint1_linear_28_2711)"/>
</g>
</g>
<rect x="1.07582" y="1.07561" width="264.858" height="37.8585" rx="6.92857" stroke="white" stroke-opacity="0.15" stroke-width="2.14286"/>
<defs>
<filter id="filter0_d_28_2711" x="2.40411" y="0.403901" width="39.202" height="39.202" filterUnits="userSpaceOnUse" color-interpolation-filters="sRGB">
<feFlood flood-opacity="0" result="BackgroundImageFix"/>
<feColorMatrix in="SourceAlpha" type="matrix" values="0 0 0 0 0 0 0 0 0 0 0 0 0 0 0 0 0 0 127 0" result="hardAlpha"/>
<feOffset/>
<feGaussianBlur stdDeviation="2.80014"/>
<feComposite in2="hardAlpha" operator="out"/>
<feColorMatrix type="matrix" values="0 0 0 0 0 0 0 0 0 0 0 0 0 0 0 0 0 0 0.25 0"/>
<feBlend mode="normal" in2="BackgroundImageFix" result="effect1_dropShadow_28_2711"/>
<feBlend mode="normal" in="SourceGraphic" in2="effect1_dropShadow_28_2711" result="shape"/>
</filter>
<filter id="filter1_d_28_2711" x="38.2916" y="3.7906" width="226.429" height="32.4286" filterUnits="userSpaceOnUse" color-interpolation-filters="sRGB">
<feFlood flood-opacity="0" result="BackgroundImageFix"/>
<feColorMatrix in="SourceAlpha" type="matrix" values="0 0 0 0 0 0 0 0 0 0 0 0 0 0 0 0 0 0 127 0" result="hardAlpha"/>
<feOffset/>
<feGaussianBlur stdDeviation="2.85714"/>
<feComposite in2="hardAlpha" operator="out"/>
<feColorMatrix type="matrix" values="0 0 0 0 0 0 0 0 0 0 0 0 0 0 0 0 0 0 0.25 0"/>
<feBlend mode="normal" in2="BackgroundImageFix" result="effect1_dropShadow_28_2711"/>
<feBlend mode="normal" in="SourceGraphic" in2="effect1_dropShadow_28_2711" result="shape"/>
</filter>
<linearGradient id="paint0_linear_28_2711" x1="133.505" y1="0.00418091" x2="133.505" y2="40.0056" gradientUnits="userSpaceOnUse">
<stop stop-color="#213116"/>
<stop offset="1" stop-color="#151E0D"/>
</linearGradient>
<linearGradient id="paint1_linear_28_2711" x1="194.532" y1="9.50488" x2="194.532" y2="27.2741" gradientUnits="userSpaceOnUse">
<stop stop-color="#9CFF55"/>
<stop offset="1" stop-color="#89DC42"/>
</linearGradient>
<clipPath id="clip0_28_2711">
<rect x="0.00439453" y="0.00418091" width="267.001" height="40.0014" rx="8" fill="white"/>
</clipPath>
</defs>
</svg>
