<svg width="208" height="28" viewBox="0 0 208 28" fill="none" xmlns="http://www.w3.org/2000/svg">
<rect x="-0.000732422" y="-3.05176e-05" width="207.5" height="28" rx="6" fill="url(#paint0_linear_38_16)"/>
<g filter="url(#filter0_d_38_16)">
<path d="M9.49927 19.25V17.75H13.9993V19.25H9.49927ZM13.9993 17.75V16.25H15.4993V17.75H13.9993ZM7.99927 17.75V10.25H9.49927V17.75H7.99927ZM13.9993 11.75V10.25H15.4993V11.75H13.9993ZM9.49927 10.25V8.74997H13.9993V10.25H9.49927ZM19.9993 19.25V10.25H16.9993V8.74997H24.4993V10.25H21.4993V19.25H19.9993Z" fill="white"/>
</g>
<g filter="url(#filter1_d_38_16)">
<path d="M32.8782 18.5V10.5H35.7297C36.3495 10.5 36.8638 10.6067 37.2727 10.8203C37.6842 11.0338 37.9915 11.3294 38.1946 11.707C38.3977 12.082 38.4993 12.5156 38.4993 13.0078C38.4993 13.4974 38.3964 13.9284 38.1907 14.3007C37.9875 14.6705 37.6803 14.9583 37.2688 15.164C36.8599 15.3698 36.3456 15.4726 35.7258 15.4726H33.5657V14.4336H35.6165C36.0071 14.4336 36.3248 14.3776 36.5696 14.2656C36.817 14.1536 36.998 13.9909 37.1125 13.7773C37.2271 13.5638 37.2844 13.3073 37.2844 13.0078C37.2844 12.7057 37.2258 12.444 37.1086 12.2226C36.9941 12.0013 36.8131 11.832 36.5657 11.7148C36.3209 11.595 35.9993 11.5351 35.6008 11.5351H34.0852V18.5H32.8782ZM36.8274 14.8906L38.804 18.5H37.429L35.4915 14.8906H36.8274ZM42.385 18.6211C41.7939 18.6211 41.2847 18.4948 40.8577 18.2422C40.4332 17.9869 40.1051 17.6289 39.8733 17.1679C39.6441 16.7044 39.5295 16.1614 39.5295 15.539C39.5295 14.9244 39.6441 14.3828 39.8733 13.914C40.1051 13.4453 40.428 13.0794 40.842 12.8164C41.2587 12.5534 41.7457 12.4218 42.303 12.4218C42.6415 12.4218 42.9696 12.4778 43.2874 12.5898C43.6051 12.7018 43.8902 12.8776 44.1428 13.1172C44.3954 13.3567 44.5946 13.6679 44.7405 14.0507C44.8863 14.431 44.9592 14.8932 44.9592 15.4375V15.8515H40.1897V14.9765H43.8147C43.8147 14.6692 43.7522 14.3971 43.6272 14.1601C43.5022 13.9205 43.3264 13.7317 43.0999 13.5937C42.8759 13.4557 42.6129 13.3867 42.3108 13.3867C41.9827 13.3867 41.6962 13.4674 41.4514 13.6289C41.2092 13.7877 41.0217 13.9961 40.8889 14.2539C40.7587 14.5091 40.6936 14.7864 40.6936 15.0859V15.7695C40.6936 16.1705 40.7639 16.5117 40.9045 16.7929C41.0478 17.0742 41.247 17.289 41.5022 17.4375C41.7574 17.5833 42.0556 17.6562 42.3967 17.6562C42.6181 17.6562 42.8199 17.625 43.0022 17.5625C43.1845 17.4974 43.342 17.401 43.4749 17.2734C43.6077 17.1458 43.7092 16.9882 43.7795 16.8007L44.885 17C44.7965 17.3255 44.6376 17.6106 44.4084 17.8554C44.1819 18.0976 43.8967 18.2864 43.553 18.4218C43.2118 18.5547 42.8225 18.6211 42.385 18.6211ZM50.3059 20.75V17.5664H50.2356C50.1653 17.694 50.0637 17.8398 49.9309 18.0039C49.8007 18.1679 49.621 18.3112 49.3918 18.4336C49.1627 18.556 48.8658 18.6172 48.5012 18.6172C48.0168 18.6172 47.5845 18.4935 47.2043 18.2461C46.8267 17.9961 46.5299 17.6406 46.3137 17.1797C46.1002 16.7161 45.9934 16.1601 45.9934 15.5117C45.9934 14.8632 46.1015 14.3086 46.3176 13.8476C46.5364 13.3867 46.8359 13.0338 47.2161 12.789C47.5963 12.5442 48.0273 12.4218 48.509 12.4218C48.8814 12.4218 49.1809 12.4843 49.4075 12.6093C49.6366 12.7317 49.8137 12.875 49.9387 13.039C50.0663 13.2031 50.1653 13.3476 50.2356 13.4726H50.3332V12.5H51.4739V20.75H50.3059ZM48.759 17.6211C49.095 17.6211 49.3788 17.5325 49.6106 17.3554C49.845 17.1757 50.022 16.927 50.1418 16.6093C50.2642 16.2916 50.3254 15.9218 50.3254 15.5C50.3254 15.0833 50.2655 14.7187 50.1457 14.4062C50.026 14.0937 49.8502 13.8502 49.6184 13.6757C49.3866 13.5013 49.1002 13.414 48.759 13.414C48.4075 13.414 48.1145 13.5052 47.8801 13.6875C47.6457 13.8698 47.4687 14.1185 47.3489 14.4336C47.2317 14.7487 47.1731 15.1041 47.1731 15.5C47.1731 15.901 47.233 16.2617 47.3528 16.582C47.4726 16.9023 47.6497 17.1562 47.884 17.3437C48.121 17.5286 48.4127 17.6211 48.759 17.6211ZM56.845 16.0117V12.5H58.0168V18.5H56.8684V17.4609H56.8059C56.6679 17.7812 56.4465 18.0481 56.1418 18.2617C55.8398 18.4726 55.4635 18.5781 55.0129 18.5781C54.6275 18.5781 54.2864 18.4935 53.9895 18.3242C53.6952 18.1523 53.4635 17.8984 53.2942 17.5625C53.1275 17.2265 53.0442 16.8112 53.0442 16.3164V12.5H54.2122V16.1757C54.2122 16.5846 54.3254 16.9101 54.552 17.1523C54.7786 17.3945 55.0728 17.5156 55.4348 17.5156C55.6536 17.5156 55.871 17.4609 56.0872 17.3515C56.3059 17.2422 56.4869 17.0768 56.6301 16.8554C56.776 16.6341 56.8476 16.3528 56.845 16.0117ZM59.5862 18.5V12.5H60.7541V18.5H59.5862ZM60.176 11.5742C59.9729 11.5742 59.7984 11.5065 59.6526 11.3711C59.5094 11.233 59.4377 11.069 59.4377 10.8789C59.4377 10.6862 59.5094 10.5221 59.6526 10.3867C59.7984 10.2487 59.9729 10.1797 60.176 10.1797C60.3791 10.1797 60.5523 10.2487 60.6955 10.3867C60.8414 10.5221 60.9143 10.6862 60.9143 10.8789C60.9143 11.069 60.8414 11.233 60.6955 11.3711C60.5523 11.5065 60.3791 11.5742 60.176 11.5742ZM62.3254 18.5V12.5H63.4543V13.4531H63.5168C63.6262 13.1302 63.8189 12.8763 64.095 12.6914C64.3736 12.5039 64.6887 12.4101 65.0403 12.4101C65.1132 12.4101 65.1991 12.4127 65.2981 12.4179C65.3996 12.4231 65.4791 12.4297 65.5364 12.4375V13.5547C65.4895 13.5416 65.4062 13.5273 65.2864 13.5117C65.1666 13.4935 65.0468 13.4843 64.927 13.4843C64.651 13.4843 64.4049 13.5429 64.1887 13.6601C63.9752 13.7747 63.8059 13.9349 63.6809 14.1406C63.5559 14.3437 63.4934 14.5755 63.4934 14.8359V18.5H62.3254ZM68.9182 18.6211C68.3271 18.6211 67.8179 18.4948 67.3909 18.2422C66.9664 17.9869 66.6383 17.6289 66.4065 17.1679C66.1773 16.7044 66.0627 16.1614 66.0627 15.539C66.0627 14.9244 66.1773 14.3828 66.4065 13.914C66.6383 13.4453 66.9612 13.0794 67.3752 12.8164C67.7919 12.5534 68.2789 12.4218 68.8362 12.4218C69.1747 12.4218 69.5028 12.4778 69.8205 12.5898C70.1383 12.7018 70.4234 12.8776 70.676 13.1172C70.9286 13.3567 71.1278 13.6679 71.2737 14.0507C71.4195 14.431 71.4924 14.8932 71.4924 15.4375V15.8515H66.7229V14.9765H70.3479C70.3479 14.6692 70.2854 14.3971 70.1604 14.1601C70.0354 13.9205 69.8596 13.7317 69.633 13.5937C69.4091 13.4557 69.1461 13.3867 68.844 13.3867C68.5159 13.3867 68.2294 13.4674 67.9846 13.6289C67.7424 13.7877 67.5549 13.9961 67.4221 14.2539C67.2919 14.5091 67.2268 14.7864 67.2268 15.0859V15.7695C67.2268 16.1705 67.2971 16.5117 67.4377 16.7929C67.581 17.0742 67.7802 17.289 68.0354 17.4375C68.2906 17.5833 68.5888 17.6562 68.9299 17.6562C69.1513 17.6562 69.3531 17.625 69.5354 17.5625C69.7177 17.4974 69.8752 17.401 70.008 17.2734C70.1409 17.1458 70.2424 16.9882 70.3127 16.8007L71.4182 17C71.3297 17.3255 71.1708 17.6106 70.9416 17.8554C70.7151 18.0976 70.4299 18.2864 70.0862 18.4218C69.745 18.5547 69.3557 18.6211 68.9182 18.6211ZM77.2844 13.9648L76.2258 14.1523C76.1815 14.0169 76.1112 13.888 76.0149 13.7656C75.9211 13.6432 75.7935 13.5429 75.6321 13.4648C75.4706 13.3867 75.2688 13.3476 75.0266 13.3476C74.6959 13.3476 74.4198 13.4218 74.1985 13.5703C73.9771 13.7161 73.8664 13.9049 73.8664 14.1367C73.8664 14.3372 73.9407 14.4987 74.0891 14.6211C74.2375 14.7435 74.4771 14.8437 74.8078 14.9218L75.761 15.1406C76.3131 15.2682 76.7245 15.4648 76.9953 15.7304C77.2662 15.9961 77.4016 16.3411 77.4016 16.7656C77.4016 17.125 77.2974 17.4453 77.0891 17.7265C76.8834 18.0052 76.5956 18.2239 76.2258 18.3828C75.8586 18.5416 75.4328 18.6211 74.9485 18.6211C74.2766 18.6211 73.7284 18.4778 73.3039 18.1914C72.8795 17.9023 72.619 17.4922 72.5227 16.9609L73.6516 16.789C73.7219 17.0833 73.8664 17.306 74.0852 17.457C74.3039 17.6054 74.5891 17.6797 74.9407 17.6797C75.3235 17.6797 75.6295 17.6002 75.8586 17.4414C76.0878 17.2799 76.2024 17.0833 76.2024 16.8515C76.2024 16.664 76.1321 16.5065 75.9914 16.3789C75.8534 16.2513 75.6412 16.1549 75.3547 16.0898L74.3391 15.8672C73.7792 15.7396 73.3651 15.5364 73.0969 15.2578C72.8313 14.9791 72.6985 14.6263 72.6985 14.1992C72.6985 13.845 72.7974 13.5351 72.9953 13.2695C73.1933 13.0039 73.4667 12.7968 73.8157 12.6484C74.1646 12.4974 74.5644 12.4218 75.0149 12.4218C75.6633 12.4218 76.1737 12.5625 76.5461 12.8437C76.9185 13.1224 77.1646 13.4961 77.2844 13.9648Z" fill="#E8E8E8"/>
<path d="M89.0817 12.9346H86.951C86.9226 12.7159 86.8643 12.5184 86.7763 12.3423C86.6882 12.1662 86.5717 12.0156 86.4268 11.8906C86.2819 11.7656 86.1101 11.6704 85.9112 11.6051C85.7152 11.5369 85.4978 11.5028 85.2592 11.5028C84.8359 11.5028 84.4709 11.6065 84.164 11.8139C83.8601 12.0213 83.6257 12.321 83.4609 12.713C83.299 13.1051 83.218 13.5795 83.218 14.1363C83.218 14.7159 83.3004 15.2017 83.4652 15.5937C83.6328 15.9829 83.8672 16.277 84.1683 16.4758C84.4723 16.6718 84.8317 16.7699 85.2464 16.7699C85.4794 16.7699 85.691 16.74 85.8814 16.6804C86.0746 16.6207 86.2436 16.5341 86.3885 16.4204C86.5362 16.3039 86.6569 16.1633 86.7507 15.9985C86.8473 15.8309 86.914 15.642 86.951 15.4318L89.0817 15.4446C89.0447 15.8309 88.9325 16.2116 88.745 16.5866C88.5603 16.9616 88.3061 17.3039 87.9822 17.6136C87.6584 17.9204 87.2635 18.1647 86.7976 18.3466C86.3345 18.5284 85.8032 18.6193 85.2038 18.6193C84.414 18.6193 83.7067 18.446 83.0817 18.0994C82.4595 17.75 81.968 17.2414 81.6072 16.5738C81.2464 15.9062 81.066 15.0937 81.066 14.1363C81.066 13.1761 81.2493 12.3622 81.6157 11.6946C81.9822 11.027 82.478 10.5199 83.103 10.1733C83.728 9.82667 84.4282 9.65338 85.2038 9.65338C85.7322 9.65338 86.2209 9.72724 86.6697 9.87497C87.1186 10.0199 87.5135 10.2329 87.8544 10.5142C88.1953 10.7926 88.4723 11.1349 88.6853 11.5412C88.8984 11.9474 89.0305 12.4119 89.0817 12.9346ZM93.3441 18.6235C92.6566 18.6235 92.0657 18.4829 91.5714 18.2017C91.0799 17.9176 90.7006 17.5227 90.4336 17.017C90.1694 16.5085 90.0373 15.919 90.0373 15.2485C90.0373 14.5753 90.1694 13.9858 90.4336 13.4801C90.7006 12.9716 91.0799 12.5767 91.5714 12.2954C92.0657 12.0113 92.6566 11.8693 93.3441 11.8693C94.0316 11.8693 94.6211 12.0113 95.1125 12.2954C95.6069 12.5767 95.9861 12.9716 96.2503 13.4801C96.5174 13.9858 96.6509 14.5753 96.6509 15.2485C96.6509 15.919 96.5174 16.5085 96.2503 17.017C95.9861 17.5227 95.6069 17.9176 95.1125 18.2017C94.6211 18.4829 94.0316 18.6235 93.3441 18.6235ZM93.3569 17.0511C93.6069 17.0511 93.8185 16.9744 93.9918 16.821C94.1651 16.6676 94.2972 16.4545 94.3881 16.1818C94.4819 15.9091 94.5287 15.5937 94.5287 15.2358C94.5287 14.8721 94.4819 14.5539 94.3881 14.2812C94.2972 14.0085 94.1651 13.7954 93.9918 13.642C93.8185 13.4886 93.6069 13.4119 93.3569 13.4119C93.0983 13.4119 92.8796 13.4886 92.7006 13.642C92.5245 13.7954 92.3895 14.0085 92.2958 14.2812C92.2049 14.5539 92.1594 14.8721 92.1594 15.2358C92.1594 15.5937 92.2049 15.9091 92.2958 16.1818C92.3895 16.4545 92.5245 16.6676 92.7006 16.821C92.8796 16.9744 93.0983 17.0511 93.3569 17.0511ZM99.8022 14.767V18.5H97.7184V11.9545H99.6999V13.1562H99.7723C99.9172 12.7556 100.164 12.4417 100.514 12.2145C100.863 11.9843 101.279 11.8693 101.762 11.8693C102.223 11.8693 102.622 11.973 102.96 12.1804C103.301 12.3849 103.565 12.6718 103.752 13.0412C103.943 13.4076 104.037 13.8366 104.034 14.3281V18.5H101.95V14.7372C101.953 14.3735 101.86 14.0895 101.673 13.8849C101.488 13.6804 101.231 13.5781 100.902 13.5781C100.683 13.5781 100.49 13.6264 100.322 13.723C100.157 13.8167 100.029 13.9517 99.9385 14.1278C99.8505 14.3039 99.805 14.517 99.8022 14.767ZM107.408 14.767V18.5H105.324V11.9545H107.305V13.1562H107.378C107.523 12.7556 107.77 12.4417 108.119 12.2145C108.469 11.9843 108.885 11.8693 109.368 11.8693C109.828 11.8693 110.227 11.973 110.565 12.1804C110.906 12.3849 111.17 12.6718 111.358 13.0412C111.548 13.4076 111.642 13.8366 111.639 14.3281V18.5H109.555V14.7372C109.558 14.3735 109.466 14.0895 109.278 13.8849C109.094 13.6804 108.837 13.5781 108.507 13.5781C108.288 13.5781 108.095 13.6264 107.928 13.723C107.763 13.8167 107.635 13.9517 107.544 14.1278C107.456 14.3039 107.41 14.517 107.408 14.767ZM115.989 18.6235C115.304 18.6235 114.713 18.4886 114.216 18.2187C113.722 17.946 113.341 17.5582 113.074 17.0554C112.81 16.5497 112.678 15.9488 112.678 15.2528C112.678 14.5767 112.811 13.9858 113.078 13.4801C113.345 12.9716 113.722 12.5767 114.208 12.2954C114.694 12.0113 115.266 11.8693 115.925 11.8693C116.391 11.8693 116.817 11.9417 117.203 12.0866C117.59 12.2315 117.924 12.446 118.205 12.7301C118.486 13.0142 118.705 13.365 118.861 13.7826C119.017 14.1974 119.095 14.6733 119.095 15.2102V15.7301H113.407V14.5199H117.157C117.154 14.2983 117.101 14.1008 116.999 13.9275C116.897 13.7542 116.756 13.6193 116.577 13.5227C116.401 13.4233 116.198 13.3735 115.968 13.3735C115.735 13.3735 115.526 13.4261 115.341 13.5312C115.157 13.6335 115.01 13.7741 114.902 13.9531C114.794 14.1292 114.738 14.3295 114.732 14.5539V15.7855C114.732 16.0525 114.784 16.2869 114.89 16.4886C114.995 16.6875 115.144 16.8423 115.337 16.9531C115.53 17.0639 115.76 17.1193 116.027 17.1193C116.212 17.1193 116.38 17.0937 116.53 17.0426C116.681 16.9914 116.81 16.9162 116.918 16.8167C117.026 16.7173 117.107 16.5951 117.161 16.4503L119.074 16.5056C118.995 16.9346 118.82 17.3082 118.55 17.6264C118.283 17.9417 117.932 18.1875 117.497 18.3636C117.063 18.5369 116.56 18.6235 115.989 18.6235ZM123.215 18.6235C122.525 18.6235 121.932 18.4815 121.438 18.1974C120.947 17.9133 120.569 17.5184 120.305 17.0128C120.04 16.5042 119.908 15.9162 119.908 15.2485C119.908 14.5781 120.04 13.99 120.305 13.4843C120.572 12.9758 120.951 12.5795 121.442 12.2954C121.937 12.0113 122.526 11.8693 123.211 11.8693C123.816 11.8693 124.343 11.9787 124.792 12.1974C125.244 12.4162 125.596 12.7258 125.849 13.1264C126.104 13.5241 126.239 13.9914 126.254 14.5284H124.306C124.266 14.1931 124.153 13.9304 123.965 13.74C123.781 13.5497 123.539 13.4545 123.241 13.4545C122.999 13.4545 122.788 13.5227 122.606 13.6591C122.424 13.7926 122.282 13.9914 122.18 14.2556C122.08 14.517 122.031 14.8409 122.031 15.2272C122.031 15.6136 122.08 15.9403 122.18 16.2074C122.282 16.4716 122.424 16.6718 122.606 16.8082C122.788 16.9417 122.999 17.0085 123.241 17.0085C123.434 17.0085 123.604 16.9673 123.752 16.8849C123.903 16.8025 124.026 16.6818 124.123 16.5227C124.219 16.3608 124.281 16.1647 124.306 15.9346H126.254C126.234 16.4744 126.099 16.946 125.849 17.3494C125.602 17.7528 125.254 18.0667 124.805 18.2912C124.359 18.5128 123.829 18.6235 123.215 18.6235ZM131.015 11.9545V13.4886H126.885V11.9545H131.015ZM127.75 10.3863H129.834V16.4417C129.834 16.5696 129.854 16.6733 129.894 16.7528C129.936 16.8295 129.997 16.8849 130.077 16.919C130.157 16.9503 130.252 16.9659 130.363 16.9659C130.442 16.9659 130.526 16.9588 130.614 16.9446C130.705 16.9275 130.773 16.9133 130.818 16.902L131.134 18.4062C131.034 18.4346 130.894 18.4701 130.712 18.5128C130.533 18.5554 130.318 18.5824 130.068 18.5937C129.58 18.6164 129.161 18.5596 128.811 18.4233C128.465 18.2841 128.199 18.0681 128.015 17.7755C127.833 17.4829 127.745 17.115 127.75 16.6718V10.3863ZM135.067 18.6235C134.382 18.6235 133.792 18.4886 133.294 18.2187C132.8 17.946 132.419 17.5582 132.152 17.0554C131.888 16.5497 131.756 15.9488 131.756 15.2528C131.756 14.5767 131.89 13.9858 132.157 13.4801C132.424 12.9716 132.8 12.5767 133.286 12.2954C133.772 12.0113 134.344 11.8693 135.003 11.8693C135.469 11.8693 135.895 11.9417 136.282 12.0866C136.668 12.2315 137.002 12.446 137.283 12.7301C137.564 13.0142 137.783 13.365 137.939 13.7826C138.095 14.1974 138.174 14.6733 138.174 15.2102V15.7301H132.485V14.5199H136.235C136.232 14.2983 136.179 14.1008 136.077 13.9275C135.975 13.7542 135.834 13.6193 135.655 13.5227C135.479 13.4233 135.276 13.3735 135.046 13.3735C134.813 13.3735 134.604 13.4261 134.419 13.5312C134.235 13.6335 134.088 13.7741 133.98 13.9531C133.872 14.1292 133.816 14.3295 133.81 14.5539V15.7855C133.81 16.0525 133.863 16.2869 133.968 16.4886C134.073 16.6875 134.222 16.8423 134.415 16.9531C134.608 17.0639 134.838 17.1193 135.105 17.1193C135.29 17.1193 135.458 17.0937 135.608 17.0426C135.759 16.9914 135.888 16.9162 135.996 16.8167C136.104 16.7173 136.185 16.5951 136.239 16.4503L138.152 16.5056C138.073 16.9346 137.898 17.3082 137.628 17.6264C137.361 17.9417 137.01 18.1875 136.576 18.3636C136.141 18.5369 135.638 18.6235 135.067 18.6235ZM141.629 18.5937C141.146 18.5937 140.707 18.4687 140.312 18.2187C139.917 17.9687 139.602 17.5937 139.366 17.0937C139.13 16.5937 139.012 15.973 139.012 15.2315C139.012 14.4616 139.134 13.8281 139.379 13.3309C139.623 12.8338 139.942 12.4659 140.337 12.2272C140.735 11.9886 141.163 11.8693 141.62 11.8693C141.964 11.8693 142.258 11.9289 142.502 12.0483C142.746 12.1647 142.948 12.3153 143.107 12.5C143.266 12.6846 143.387 12.8764 143.469 13.0753H143.512V9.7727H145.596V18.5H143.533V17.4389H143.469C143.381 17.6406 143.256 17.8295 143.094 18.0056C142.932 18.1818 142.729 18.3238 142.485 18.4318C142.244 18.5397 141.958 18.5937 141.629 18.5937ZM142.353 16.9701C142.606 16.9701 142.822 16.8991 143.001 16.7571C143.18 16.6122 143.317 16.4091 143.414 16.1477C143.511 15.8863 143.559 15.5795 143.559 15.2272C143.559 14.8693 143.511 14.561 143.414 14.3025C143.32 14.044 143.182 13.8451 143.001 13.7059C142.822 13.5667 142.606 13.4971 142.353 13.4971C142.094 13.4971 141.876 13.5681 141.697 13.7102C141.518 13.8522 141.381 14.0525 141.288 14.311C141.197 14.5696 141.151 14.875 141.151 15.2272C141.151 15.5795 141.198 15.8863 141.292 16.1477C141.386 16.4091 141.521 16.6122 141.697 16.7571C141.876 16.8991 142.094 16.9701 142.353 16.9701ZM149.206 11.4858V9.7727H156.583V11.4858H153.936V18.5H151.857V11.4858H149.206ZM159.723 18.6235C159.039 18.6235 158.448 18.4886 157.951 18.2187C157.456 17.946 157.076 17.5582 156.809 17.0554C156.544 16.5497 156.412 15.9488 156.412 15.2528C156.412 14.5767 156.546 13.9858 156.813 13.4801C157.08 12.9716 157.456 12.5767 157.942 12.2954C158.428 12.0113 159 11.8693 159.659 11.8693C160.125 11.8693 160.551 11.9417 160.938 12.0866C161.324 12.2315 161.658 12.446 161.939 12.7301C162.22 13.0142 162.439 13.365 162.595 13.7826C162.752 14.1974 162.83 14.6733 162.83 15.2102V15.7301H157.141V14.5199H160.891C160.888 14.2983 160.836 14.1008 160.733 13.9275C160.631 13.7542 160.49 13.6193 160.311 13.5227C160.135 13.4233 159.932 13.3735 159.702 13.3735C159.469 13.3735 159.26 13.4261 159.076 13.5312C158.891 13.6335 158.745 13.7741 158.637 13.9531C158.529 14.1292 158.472 14.3295 158.466 14.5539V15.7855C158.466 16.0525 158.519 16.2869 158.624 16.4886C158.729 16.6875 158.878 16.8423 159.071 16.9531C159.265 17.0639 159.495 17.1193 159.762 17.1193C159.946 17.1193 160.114 17.0937 160.265 17.0426C160.415 16.9914 160.544 16.9162 160.652 16.8167C160.76 16.7173 160.841 16.5951 160.895 16.4503L162.809 16.5056C162.729 16.9346 162.554 17.3082 162.284 17.6264C162.017 17.9417 161.667 18.1875 161.232 18.3636C160.797 18.5369 160.294 18.6235 159.723 18.6235ZM165.573 11.9545L166.651 14.1108L167.768 11.9545H169.869L168.04 15.2272L169.937 18.5H167.853L166.651 16.3267L165.479 18.5H163.366L165.266 15.2272L163.459 11.9545H165.573ZM174.515 11.9545V13.4886H170.385V11.9545H174.515ZM171.25 10.3863H173.334V16.4417C173.334 16.5696 173.354 16.6733 173.394 16.7528C173.436 16.8295 173.497 16.8849 173.577 16.919C173.657 16.9503 173.752 16.9659 173.863 16.9659C173.942 16.9659 174.026 16.9588 174.114 16.9446C174.205 16.9275 174.273 16.9133 174.318 16.902L174.634 18.4062C174.534 18.4346 174.394 18.4701 174.212 18.5128C174.033 18.5554 173.818 18.5824 173.568 18.5937C173.08 18.6164 172.661 18.5596 172.311 18.4233C171.965 18.2841 171.699 18.0681 171.515 17.7755C171.333 17.4829 171.245 17.115 171.25 16.6718V10.3863ZM179.801 15.6747V11.9545H181.88V18.5H179.894V17.2812H179.826C179.681 17.6818 179.434 18 179.085 18.2358C178.738 18.4687 178.319 18.5852 177.828 18.5852C177.382 18.5852 176.99 18.4829 176.652 18.2784C176.314 18.0738 176.051 17.7883 175.863 17.4218C175.676 17.0525 175.581 16.6207 175.578 16.1264V11.9545H177.662V15.7173C177.664 16.0724 177.758 16.3522 177.943 16.5568C178.127 16.7613 178.379 16.8636 178.697 16.8636C178.904 16.8636 179.091 16.8181 179.255 16.7272C179.423 16.6335 179.555 16.4985 179.652 16.3224C179.751 16.1434 179.801 15.9275 179.801 15.6747ZM183.207 18.5V11.9545H185.231V13.1477H185.299C185.418 12.7159 185.613 12.3949 185.883 12.1846C186.153 11.9716 186.467 11.865 186.825 11.865C186.921 11.865 187.021 11.8721 187.123 11.8863C187.225 11.8977 187.32 11.9162 187.408 11.9417V13.7528C187.309 13.7187 187.178 13.6917 187.016 13.6718C186.857 13.652 186.715 13.642 186.59 13.642C186.343 13.642 186.12 13.6974 185.921 13.8082C185.725 13.9162 185.57 14.0681 185.457 14.2642C185.346 14.4574 185.29 14.6846 185.29 14.946V18.5H183.207ZM190.977 18.6235C190.293 18.6235 189.702 18.4886 189.204 18.2187C188.71 17.946 188.329 17.5582 188.062 17.0554C187.798 16.5497 187.666 15.9488 187.666 15.2528C187.666 14.5767 187.8 13.9858 188.067 13.4801C188.334 12.9716 188.71 12.5767 189.196 12.2954C189.682 12.0113 190.254 11.8693 190.913 11.8693C191.379 11.8693 191.805 11.9417 192.192 12.0866C192.578 12.2315 192.912 12.446 193.193 12.7301C193.474 13.0142 193.693 13.365 193.849 13.7826C194.006 14.1974 194.084 14.6733 194.084 15.2102V15.7301H188.395V14.5199H192.145C192.142 14.2983 192.089 14.1008 191.987 13.9275C191.885 13.7542 191.744 13.6193 191.565 13.5227C191.389 13.4233 191.186 13.3735 190.956 13.3735C190.723 13.3735 190.514 13.4261 190.329 13.5312C190.145 13.6335 189.999 13.7741 189.891 13.9531C189.783 14.1292 189.726 14.3295 189.72 14.5539V15.7855C189.72 16.0525 189.773 16.2869 189.878 16.4886C189.983 16.6875 190.132 16.8423 190.325 16.9531C190.518 17.0639 190.749 17.1193 191.016 17.1193C191.2 17.1193 191.368 17.0937 191.518 17.0426C191.669 16.9914 191.798 16.9162 191.906 16.8167C192.014 16.7173 192.095 16.5951 192.149 16.4503L194.062 16.5056C193.983 16.9346 193.808 17.3082 193.538 17.6264C193.271 17.9417 192.92 18.1875 192.486 18.3636C192.051 18.5369 191.548 18.6235 190.977 18.6235ZM200.863 13.9531L198.949 14.0042C198.929 13.8679 198.875 13.7471 198.787 13.642C198.699 13.5341 198.584 13.4503 198.442 13.3906C198.303 13.3281 198.141 13.2968 197.956 13.2968C197.715 13.2968 197.509 13.3451 197.338 13.4417C197.171 13.5383 197.088 13.669 197.091 13.8338C197.088 13.9616 197.14 14.0724 197.245 14.1662C197.353 14.2599 197.544 14.3352 197.82 14.392L199.081 14.6306C199.735 14.7556 200.22 14.963 200.539 15.2528C200.86 15.5426 201.022 15.9261 201.024 16.4034C201.022 16.8522 200.888 17.2429 200.624 17.5753C200.363 17.9076 200.005 18.1662 199.55 18.3508C199.095 18.5326 198.576 18.6235 197.99 18.6235C197.056 18.6235 196.318 18.4318 195.779 18.0483C195.242 17.6619 194.935 17.1449 194.858 16.4971L196.916 16.446C196.962 16.6846 197.08 16.8664 197.27 16.9914C197.461 17.1164 197.703 17.1789 197.999 17.1789C198.266 17.1789 198.483 17.1292 198.651 17.0298C198.818 16.9304 198.904 16.7983 198.907 16.6335C198.904 16.4858 198.838 16.3679 198.711 16.2798C198.583 16.1889 198.382 16.1179 198.11 16.0667L196.968 15.8494C196.311 15.7301 195.823 15.5099 195.502 15.1889C195.181 14.865 195.022 14.4531 195.024 13.9531C195.022 13.5156 195.138 13.142 195.374 12.8324C195.61 12.5199 195.945 12.2812 196.38 12.1164C196.814 11.9517 197.327 11.8693 197.918 11.8693C198.804 11.8693 199.503 12.0554 200.015 12.4275C200.526 12.7968 200.809 13.3054 200.863 13.9531Z" fill="white"/>
</g>
<rect x="0.749268" y="0.749969" width="206" height="26.5" rx="5.25" stroke="white" stroke-opacity="0.15" stroke-width="1.5"/>
<defs>
<filter id="filter0_d_38_16" x="1.99927" y="-3.05176e-05" width="28" height="28" filterUnits="userSpaceOnUse" color-interpolation-filters="sRGB">
<feFlood flood-opacity="0" result="BackgroundImageFix"/>
<feColorMatrix in="SourceAlpha" type="matrix" values="0 0 0 0 0 0 0 0 0 0 0 0 0 0 0 0 0 0 127 0" result="hardAlpha"/>
<feOffset/>
<feGaussianBlur stdDeviation="2"/>
<feComposite in2="hardAlpha" operator="out"/>
<feColorMatrix type="matrix" values="0 0 0 0 0 0 0 0 0 0 0 0 0 0 0 0 0 0 0.25 0"/>
<feBlend mode="normal" in2="BackgroundImageFix" result="effect1_dropShadow_38_16"/>
<feBlend mode="normal" in="SourceGraphic" in2="effect1_dropShadow_38_16" result="shape"/>
</filter>
<filter id="filter1_d_38_16" x="27.9993" y="3.49997" width="177.5" height="21.25" filterUnits="userSpaceOnUse" color-interpolation-filters="sRGB">
<feFlood flood-opacity="0" result="BackgroundImageFix"/>
<feColorMatrix in="SourceAlpha" type="matrix" values="0 0 0 0 0 0 0 0 0 0 0 0 0 0 0 0 0 0 127 0" result="hardAlpha"/>
<feOffset/>
<feGaussianBlur stdDeviation="2"/>
<feComposite in2="hardAlpha" operator="out"/>
<feColorMatrix type="matrix" values="0 0 0 0 0 0 0 0 0 0 0 0 0 0 0 0 0 0 0.25 0"/>
<feBlend mode="normal" in2="BackgroundImageFix" result="effect1_dropShadow_38_16"/>
<feBlend mode="normal" in="SourceGraphic" in2="effect1_dropShadow_38_16" result="shape"/>
</filter>
<linearGradient id="paint0_linear_38_16" x1="103.749" y1="-3.05176e-05" x2="103.749" y2="26.6" gradientUnits="userSpaceOnUse">
<stop stop-color="#3E3E3E"/>
<stop offset="1" stop-color="#272727"/>
</linearGradient>
</defs>
</svg>
