<svg width="300" height="41" viewBox="0 0 300 41" fill="none" xmlns="http://www.w3.org/2000/svg">
<rect x="0.00439453" y="0.0125732" width="299.001" height="40.0014" rx="8" fill="url(#paint0_linear_38_16)"/>
<g filter="url(#filter0_d_38_16)">
<path d="M12.3039 26.7623V24.6622H18.6042V26.7623H12.3039ZM18.6042 24.6622V22.5621H20.7043V24.6622H18.6042ZM10.2038 24.6622V14.1617H12.3039V24.6622H10.2038ZM18.6042 16.2618V14.1617H20.7043V16.2618H18.6042ZM12.3039 14.1617V12.0616H18.6042V14.1617H12.3039ZM27.0047 26.7623V14.1617H22.8044V12.0616H33.305V14.1617H29.1048V26.7623H27.0047Z" fill="white"/>
</g>
<g filter="url(#filter1_d_38_16)">
<path d="M45.3642 26.5133V14.1496H49.7711C50.729 14.1496 51.5238 14.3146 52.1557 14.6447C52.7916 14.9747 53.2665 15.4315 53.5804 16.015C53.8944 16.5946 54.0513 17.2647 54.0513 18.0253C54.0513 18.782 53.8923 19.448 53.5744 20.0236C53.2605 20.5951 52.7856 21.0398 52.1497 21.3577C51.5178 21.6757 50.723 21.8346 49.7651 21.8346H46.4267V20.2288H49.5961C50.1997 20.2288 50.6908 20.1423 51.0691 19.9692C51.4514 19.7962 51.7311 19.5446 51.9082 19.2146C52.0853 18.8846 52.1738 18.4882 52.1738 18.0253C52.1738 17.5585 52.0833 17.154 51.9022 16.8119C51.7251 16.4698 51.4454 16.2082 51.063 16.0271C50.6847 15.842 50.1877 15.7494 49.5719 15.7494H47.2296V26.5133H45.3642ZM51.4675 20.9351L54.5222 26.5133H52.3972L49.4029 20.9351H51.4675ZM60.0565 26.7004C59.143 26.7004 58.3561 26.5052 57.6961 26.1148C57.0401 25.7204 56.533 25.167 56.1748 24.4547C55.8206 23.7383 55.6436 22.8992 55.6436 21.9373C55.6436 20.9875 55.8206 20.1503 56.1748 19.4259C56.533 18.7015 57.032 18.136 57.672 17.7295C58.3159 17.3231 59.0685 17.1198 59.9298 17.1198C60.453 17.1198 60.9601 17.2063 61.4511 17.3794C61.9421 17.5525 62.3828 17.8241 62.7732 18.1944C63.1636 18.5646 63.4714 19.0456 63.6968 19.6372C63.9222 20.2248 64.0349 20.9392 64.0349 21.7803V22.4202H56.6638V21.068H62.2661C62.2661 20.5931 62.1695 20.1725 61.9763 19.8062C61.7831 19.436 61.5114 19.1442 61.1613 18.9309C60.8152 18.7176 60.4087 18.6109 59.9418 18.6109C59.4347 18.6109 58.992 18.7357 58.6137 18.9852C58.2394 19.2307 57.9497 19.5527 57.7444 19.9511C57.5432 20.3455 57.4426 20.7742 57.4426 21.237V22.2935C57.4426 22.9132 57.5512 23.4405 57.7686 23.8751C57.9899 24.3098 58.2978 24.6418 58.6922 24.8712C59.0866 25.0966 59.5474 25.2093 60.0747 25.2093C60.4168 25.2093 60.7287 25.161 61.0104 25.0644C61.2921 24.9638 61.5356 24.8149 61.7409 24.6177C61.9461 24.4205 62.1031 24.177 62.2117 23.8872L63.9202 24.1951C63.7833 24.6982 63.5378 25.1389 63.1837 25.5172C62.8335 25.8915 62.3928 26.1833 61.8616 26.3925C61.3344 26.5978 60.7327 26.7004 60.0565 26.7004ZM72.2979 29.9905V25.0704H72.1893C72.0806 25.2677 71.9236 25.493 71.7184 25.7466C71.5172 26.0001 71.2395 26.2215 70.8853 26.4106C70.5311 26.5998 70.0723 26.6944 69.5089 26.6944C68.7603 26.6944 68.0922 26.5032 67.5046 26.1209C66.921 25.7345 66.4622 25.1851 66.1282 24.4728C65.7982 23.7564 65.6332 22.8971 65.6332 21.895C65.6332 20.8929 65.8002 20.0356 66.1342 19.3233C66.4723 18.6109 66.9351 18.0656 67.5227 17.6873C68.1103 17.309 68.7764 17.1198 69.5209 17.1198C70.0965 17.1198 70.5593 17.2164 70.9094 17.4096C71.2636 17.5987 71.5373 17.8201 71.7305 18.0736C71.9277 18.3272 72.0806 18.5506 72.1893 18.7437H72.3402V17.2405H74.103V29.9905H72.2979ZM69.9073 25.155C70.4265 25.155 70.8652 25.0181 71.2234 24.7444C71.5856 24.4668 71.8592 24.0824 72.0444 23.5914C72.2335 23.1004 72.3281 22.5289 72.3281 21.8769C72.3281 21.233 72.2356 20.6695 72.0504 20.1866C71.8653 19.7036 71.5936 19.3273 71.2354 19.0577C70.8772 18.788 70.4345 18.6532 69.9073 18.6532C69.364 18.6532 68.9112 18.794 68.549 19.0758C68.1868 19.3575 67.9131 19.7418 67.728 20.2288C67.5469 20.7158 67.4563 21.2652 67.4563 21.8769C67.4563 22.4967 67.5489 23.0541 67.734 23.5491C67.9191 24.0442 68.1928 24.4366 68.555 24.7263C68.9213 25.0121 69.372 25.155 69.9073 25.155ZM82.4038 22.6677V17.2405H84.2148V26.5133H82.44V24.9074H82.3434C82.1301 25.4025 81.788 25.815 81.3171 26.145C80.8502 26.471 80.2687 26.634 79.5724 26.634C78.9768 26.634 78.4496 26.5032 77.9908 26.2416C77.536 25.976 77.1778 25.5836 76.9162 25.0644C76.6586 24.5452 76.5298 23.9033 76.5298 23.1386V17.2405H78.3349V22.9213C78.3349 23.5532 78.5099 24.0562 78.8601 24.4305C79.2102 24.8048 79.665 24.992 80.2244 24.992C80.5625 24.992 80.8985 24.9074 81.2326 24.7384C81.5707 24.5694 81.8504 24.3138 82.0717 23.9717C82.2971 23.6296 82.4078 23.195 82.4038 22.6677ZM86.6402 26.5133V17.2405H88.4452V26.5133H86.6402ZM87.5517 15.8098C87.2378 15.8098 86.9682 15.7052 86.7428 15.4959C86.5214 15.2826 86.4108 15.029 86.4108 14.7352C86.4108 14.4374 86.5214 14.1838 86.7428 13.9746C86.9682 13.7613 87.2378 13.6546 87.5517 13.6546C87.8657 13.6546 88.1333 13.7613 88.3547 13.9746C88.58 14.1838 88.6927 14.4374 88.6927 14.7352C88.6927 15.029 88.58 15.2826 88.3547 15.4959C88.1333 15.7052 87.8657 15.8098 87.5517 15.8098ZM90.8736 26.5133V17.2405H92.6182V18.7136H92.7148C92.8839 18.2145 93.1817 17.8221 93.6083 17.5364C94.0389 17.2466 94.5259 17.1017 95.0692 17.1017C95.1819 17.1017 95.3147 17.1057 95.4677 17.1138C95.6246 17.1218 95.7474 17.1319 95.8359 17.144V18.8705C95.7635 18.8504 95.6347 18.8283 95.4496 18.8041C95.2644 18.7759 95.0793 18.7619 94.8942 18.7619C94.4676 18.7619 94.0872 18.8524 93.7532 19.0335C93.4232 19.2106 93.1616 19.4581 92.9684 19.7761C92.7752 20.09 92.6786 20.4482 92.6786 20.8506V26.5133H90.8736ZM101.062 26.7004C100.149 26.7004 99.362 26.5052 98.702 26.1148C98.0459 25.7204 97.5388 25.167 97.1806 24.4547C96.8265 23.7383 96.6494 22.8992 96.6494 21.9373C96.6494 20.9875 96.8265 20.1503 97.1806 19.4259C97.5388 18.7015 98.0379 18.136 98.6778 17.7295C99.3217 17.3231 100.074 17.1198 100.936 17.1198C101.459 17.1198 101.966 17.2063 102.457 17.3794C102.948 17.5525 103.389 17.8241 103.779 18.1944C104.169 18.5646 104.477 19.0456 104.703 19.6372C104.928 20.2248 105.041 20.9392 105.041 21.7803V22.4202H97.6696V21.068H103.272C103.272 20.5931 103.175 20.1725 102.982 19.8062C102.789 19.436 102.517 19.1442 102.167 18.9309C101.821 18.7176 101.415 18.6109 100.948 18.6109C100.441 18.6109 99.9979 18.7357 99.6196 18.9852C99.2453 19.2307 98.9555 19.5527 98.7503 19.9511C98.549 20.3455 98.4484 20.7742 98.4484 21.237V22.2935C98.4484 22.9132 98.5571 23.4405 98.7744 23.8751C98.9958 24.3098 99.3036 24.6418 99.698 24.8712C100.092 25.0966 100.553 25.2093 101.081 25.2093C101.423 25.2093 101.735 25.161 102.016 25.0644C102.298 24.9638 102.541 24.8149 102.747 24.6177C102.952 24.4205 103.109 24.177 103.218 23.8872L104.926 24.1951C104.789 24.6982 104.544 25.1389 104.19 25.5172C103.839 25.8915 103.399 26.1833 102.867 26.3925C102.34 26.5978 101.739 26.7004 101.062 26.7004ZM113.992 19.5044L112.356 19.7942C112.288 19.5849 112.179 19.3857 112.03 19.1965C111.885 19.0074 111.688 18.8524 111.438 18.7317C111.189 18.6109 110.877 18.5506 110.503 18.5506C109.992 18.5506 109.565 18.6653 109.223 18.8947C108.881 19.12 108.71 19.4118 108.71 19.77C108.71 20.0799 108.824 20.3294 109.054 20.5186C109.283 20.7078 109.653 20.8627 110.165 20.9834L111.638 21.3215C112.491 21.5187 113.127 21.8226 113.545 22.2331C113.964 22.6436 114.173 23.1769 114.173 23.8329C114.173 24.3883 114.012 24.8833 113.69 25.318C113.372 25.7486 112.927 26.0867 112.356 26.3322C111.789 26.5777 111.13 26.7004 110.382 26.7004C109.344 26.7004 108.496 26.4791 107.84 26.0364C107.184 25.5896 106.782 24.9557 106.633 24.1347L108.378 23.8691C108.486 24.3239 108.71 24.668 109.048 24.9014C109.386 25.1308 109.827 25.2455 110.37 25.2455C110.961 25.2455 111.434 25.1228 111.789 24.8773C112.143 24.6277 112.32 24.3239 112.32 23.9657C112.32 23.6759 112.211 23.4324 111.994 23.2352C111.78 23.038 111.452 22.8891 111.01 22.7885L109.44 22.4444C108.575 22.2472 107.935 21.9333 107.52 21.5026C107.11 21.072 106.905 20.5266 106.905 19.8666C106.905 19.3193 107.058 18.8403 107.363 18.4298C107.669 18.0193 108.092 17.6994 108.631 17.4699C109.17 17.2365 109.788 17.1198 110.485 17.1198C111.487 17.1198 112.275 17.3371 112.851 17.7718C113.427 18.2024 113.807 18.78 113.992 19.5044Z" fill="#E8E8E8"/>
<path d="M131.164 18.629H128.146C128.106 18.3191 128.023 18.0394 127.898 17.7899C127.773 17.5404 127.608 17.3271 127.403 17.15C127.198 16.9729 126.954 16.8381 126.673 16.7455C126.395 16.6489 126.087 16.6006 125.749 16.6006C125.149 16.6006 124.632 16.7475 124.198 17.0413C123.767 17.3351 123.435 17.7597 123.202 18.3151C122.972 18.8705 122.857 19.5426 122.857 20.3315C122.857 21.1525 122.974 21.8407 123.208 22.3961C123.445 22.9475 123.777 23.364 124.204 23.6457C124.634 23.9234 125.143 24.0623 125.731 24.0623C126.061 24.0623 126.361 24.02 126.631 23.9355C126.904 23.851 127.144 23.7282 127.349 23.5672C127.558 23.4022 127.729 23.203 127.862 22.9696C127.999 22.7321 128.093 22.4645 128.146 22.1667L131.164 22.1848C131.112 22.7321 130.953 23.2714 130.687 23.8027C130.426 24.3339 130.066 24.8189 129.607 25.2576C129.148 25.6922 128.588 26.0384 127.928 26.2959C127.272 26.5535 126.52 26.6823 125.671 26.6823C124.552 26.6823 123.55 26.4368 122.664 25.9458C121.783 25.4508 121.087 24.7304 120.575 23.7846C120.064 22.8388 119.809 21.6878 119.809 20.3315C119.809 18.9711 120.068 17.8181 120.588 16.8723C121.107 15.9265 121.809 15.2081 122.694 14.7171C123.58 14.2261 124.572 13.9806 125.671 13.9806C126.419 13.9806 127.111 14.0852 127.747 14.2945C128.383 14.4998 128.943 14.8016 129.426 15.2001C129.909 15.5945 130.301 16.0794 130.603 16.655C130.905 17.2305 131.092 17.8885 131.164 18.629ZM137.203 26.6883C136.229 26.6883 135.392 26.4891 134.691 26.0907C133.995 25.6882 133.458 25.1288 133.079 24.4124C132.705 23.692 132.518 22.8569 132.518 21.9071C132.518 20.9533 132.705 20.1181 133.079 19.4018C133.458 18.6814 133.995 18.1219 134.691 17.7235C135.392 17.321 136.229 17.1198 137.203 17.1198C138.177 17.1198 139.012 17.321 139.708 17.7235C140.408 18.1219 140.946 18.6814 141.32 19.4018C141.698 20.1181 141.887 20.9533 141.887 21.9071C141.887 22.8569 141.698 23.692 141.32 24.4124C140.946 25.1288 140.408 25.6882 139.708 26.0907C139.012 26.4891 138.177 26.6883 137.203 26.6883ZM137.221 24.4607C137.575 24.4607 137.875 24.352 138.12 24.1347C138.366 23.9174 138.553 23.6155 138.682 23.2292C138.815 22.8428 138.881 22.3961 138.881 21.889C138.881 21.3738 138.815 20.9231 138.682 20.5367C138.553 20.1503 138.366 19.8485 138.12 19.6312C137.875 19.4138 137.575 19.3052 137.221 19.3052C136.855 19.3052 136.545 19.4138 136.291 19.6312C136.042 19.8485 135.85 20.1503 135.718 20.5367C135.589 20.9231 135.524 21.3738 135.524 21.889C135.524 22.3961 135.589 22.8428 135.718 23.2292C135.85 23.6155 136.042 23.9174 136.291 24.1347C136.545 24.352 136.855 24.4607 137.221 24.4607ZM146.352 21.2249V26.5133H143.4V17.2405H146.207V18.943H146.309C146.515 18.3755 146.865 17.9308 147.36 17.6088C147.855 17.2828 148.444 17.1198 149.129 17.1198C149.781 17.1198 150.346 17.2667 150.825 17.5605C151.308 17.8503 151.682 18.2568 151.948 18.78C152.218 19.2991 152.35 19.9069 152.346 20.6031V26.5133H149.394V21.1827C149.398 20.6675 149.267 20.265 149.002 19.9753C148.74 19.6855 148.376 19.5406 147.909 19.5406C147.599 19.5406 147.326 19.609 147.088 19.7459C146.855 19.8787 146.674 20.0699 146.545 20.3194C146.42 20.5689 146.356 20.8708 146.352 21.2249ZM157.126 21.2249V26.5133H154.174V17.2405H156.981V18.943H157.084C157.289 18.3755 157.639 17.9308 158.134 17.6088C158.629 17.2828 159.219 17.1198 159.903 17.1198C160.555 17.1198 161.12 17.2667 161.599 17.5605C162.082 17.8503 162.457 18.2568 162.722 18.78C162.992 19.2991 163.125 19.9069 163.121 20.6031V26.5133H160.169V21.1827C160.173 20.6675 160.042 20.265 159.776 19.9753C159.515 19.6855 159.15 19.5406 158.684 19.5406C158.374 19.5406 158.1 19.609 157.863 19.7459C157.629 19.8787 157.448 20.0699 157.319 20.3194C157.194 20.5689 157.13 20.8708 157.126 21.2249ZM169.283 26.6883C168.313 26.6883 167.476 26.4972 166.772 26.1148C166.071 25.7285 165.532 25.1791 165.154 24.4668C164.779 23.7504 164.592 22.8992 164.592 21.9131C164.592 20.9553 164.781 20.1181 165.16 19.4018C165.538 18.6814 166.071 18.1219 166.759 17.7235C167.448 17.321 168.259 17.1198 169.192 17.1198C169.852 17.1198 170.456 17.2224 171.003 17.4277C171.551 17.6329 172.024 17.9368 172.422 18.3393C172.821 18.7417 173.13 19.2388 173.352 19.8304C173.573 20.418 173.684 21.0921 173.684 21.8528V22.5893H165.625V20.8748H170.937C170.933 20.5609 170.859 20.2811 170.714 20.0356C170.569 19.7901 170.37 19.599 170.116 19.4621C169.866 19.3213 169.579 19.2508 169.253 19.2508C168.923 19.2508 168.627 19.3253 168.365 19.4742C168.104 19.6191 167.896 19.8183 167.744 20.0719C167.591 20.3214 167.51 20.6051 167.502 20.9231V22.6677C167.502 23.0461 167.576 23.3781 167.725 23.6638C167.874 23.9456 168.086 24.1649 168.359 24.3219C168.633 24.4788 168.959 24.5573 169.337 24.5573C169.599 24.5573 169.836 24.5211 170.05 24.4486C170.263 24.3762 170.446 24.2695 170.599 24.1287C170.752 23.9878 170.867 23.8148 170.943 23.6095L173.654 23.688C173.541 24.2957 173.293 24.8249 172.911 25.2757C172.533 25.7224 172.036 26.0706 171.42 26.3201C170.804 26.5656 170.092 26.6883 169.283 26.6883ZM179.52 26.6883C178.542 26.6883 177.703 26.4871 177.003 26.0846C176.306 25.6822 175.771 25.1228 175.397 24.4064C175.023 23.686 174.835 22.8529 174.835 21.9071C174.835 20.9573 175.023 20.1242 175.397 19.4078C175.775 18.6874 176.312 18.126 177.009 17.7235C177.709 17.321 178.544 17.1198 179.514 17.1198C180.371 17.1198 181.118 17.2748 181.754 17.5847C182.394 17.8945 182.893 18.3332 183.251 18.9007C183.613 19.4641 183.804 20.1262 183.824 20.8869H181.066C181.009 20.4119 180.848 20.0397 180.583 19.77C180.321 19.5004 179.979 19.3655 179.556 19.3655C179.214 19.3655 178.914 19.4621 178.657 19.6553C178.399 19.8445 178.198 20.1262 178.053 20.5005C177.912 20.8708 177.842 21.3296 177.842 21.8769C177.842 22.4243 177.912 22.8871 178.053 23.2654C178.198 23.6397 178.399 23.9234 178.657 24.1166C178.914 24.3058 179.214 24.4003 179.556 24.4003C179.83 24.4003 180.071 24.342 180.281 24.2253C180.494 24.1086 180.669 23.9375 180.806 23.7121C180.943 23.4827 181.029 23.205 181.066 22.879H183.824C183.796 23.6437 183.605 24.3118 183.251 24.8833C182.901 25.4548 182.408 25.8995 181.772 26.2175C181.14 26.5314 180.389 26.6883 179.52 26.6883ZM190.569 17.2405V19.4138H184.719V17.2405H190.569ZM185.945 15.019H188.897V23.5974C188.897 23.7785 188.925 23.9254 188.981 24.0381C189.042 24.1468 189.128 24.2253 189.241 24.2736C189.354 24.3178 189.489 24.34 189.645 24.34C189.758 24.34 189.877 24.3299 190.002 24.3098C190.13 24.2856 190.227 24.2655 190.291 24.2494L190.738 26.3805C190.597 26.4207 190.398 26.471 190.141 26.5314C189.887 26.5918 189.583 26.63 189.229 26.6461C188.537 26.6783 187.943 26.5978 187.448 26.4046C186.957 26.2074 186.581 25.9015 186.319 25.487C186.062 25.0725 185.937 24.5513 185.945 23.9234V15.019ZM196.31 26.6883C195.34 26.6883 194.503 26.4972 193.799 26.1148C193.099 25.7285 192.559 25.1791 192.181 24.4668C191.807 23.7504 191.62 22.8992 191.62 21.9131C191.62 20.9553 191.809 20.1181 192.187 19.4018C192.565 18.6814 193.099 18.1219 193.787 17.7235C194.475 17.321 195.286 17.1198 196.22 17.1198C196.88 17.1198 197.483 17.2224 198.031 17.4277C198.578 17.6329 199.051 17.9368 199.449 18.3393C199.848 18.7417 200.158 19.2388 200.379 19.8304C200.601 20.418 200.711 21.0921 200.711 21.8528V22.5893H192.652V20.8748H197.964C197.96 20.5609 197.886 20.2811 197.741 20.0356C197.596 19.7901 197.397 19.599 197.143 19.4621C196.894 19.3213 196.606 19.2508 196.28 19.2508C195.95 19.2508 195.654 19.3253 195.393 19.4742C195.131 19.6191 194.924 19.8183 194.771 20.0719C194.618 20.3214 194.537 20.6051 194.529 20.9231V22.6677C194.529 23.0461 194.604 23.3781 194.753 23.6638C194.902 23.9456 195.113 24.1649 195.387 24.3219C195.66 24.4788 195.986 24.5573 196.365 24.5573C196.626 24.5573 196.864 24.5211 197.077 24.4486C197.29 24.3762 197.473 24.2695 197.626 24.1287C197.779 23.9878 197.894 23.8148 197.97 23.6095L200.681 23.688C200.568 24.2957 200.321 24.8249 199.938 25.2757C199.56 25.7224 199.063 26.0706 198.447 26.3201C197.832 26.5656 197.119 26.6883 196.31 26.6883ZM205.606 26.6461C204.921 26.6461 204.3 26.469 203.74 26.1148C203.181 25.7607 202.734 25.2294 202.4 24.5211C202.066 23.8128 201.899 22.9334 201.899 21.8829C201.899 20.7923 202.072 19.8948 202.418 19.1905C202.764 18.4862 203.217 17.965 203.776 17.6269C204.34 17.2888 204.946 17.1198 205.594 17.1198C206.081 17.1198 206.497 17.2043 206.843 17.3734C207.189 17.5384 207.475 17.7517 207.7 18.0133C207.926 18.2749 208.097 18.5465 208.214 18.8283H208.274V14.1496H211.226V26.5133H208.304V25.0101H208.214C208.089 25.2958 207.912 25.5635 207.682 25.813C207.453 26.0625 207.165 26.2637 206.819 26.4167C206.477 26.5696 206.072 26.6461 205.606 26.6461ZM206.632 24.346C206.99 24.346 207.296 24.2454 207.55 24.0442C207.803 23.8389 207.998 23.5511 208.135 23.1809C208.272 22.8106 208.34 22.376 208.34 21.8769C208.34 21.3698 208.272 20.9331 208.135 20.5669C208.002 20.2007 207.807 19.9189 207.55 19.7217C207.296 19.5245 206.99 19.4259 206.632 19.4259C206.266 19.4259 205.956 19.5265 205.702 19.7278C205.449 19.929 205.255 20.2127 205.123 20.579C204.994 20.9452 204.929 21.3779 204.929 21.8769C204.929 22.376 204.996 22.8106 205.129 23.1809C205.262 23.5511 205.453 23.8389 205.702 24.0442C205.956 24.2454 206.266 24.346 206.632 24.346ZM216.341 16.5765V14.1496H226.791V16.5765H223.042V26.5133H220.096V16.5765H216.341ZM231.24 26.6883C230.27 26.6883 229.433 26.4972 228.729 26.1148C228.028 25.7285 227.489 25.1791 227.111 24.4668C226.736 23.7504 226.549 22.8992 226.549 21.9131C226.549 20.9553 226.738 20.1181 227.117 19.4018C227.495 18.6814 228.028 18.1219 228.716 17.7235C229.405 17.321 230.216 17.1198 231.149 17.1198C231.809 17.1198 232.413 17.2224 232.96 17.4277C233.508 17.6329 233.981 17.9368 234.379 18.3393C234.778 18.7417 235.087 19.2388 235.309 19.8304C235.53 20.418 235.641 21.0921 235.641 21.8528V22.5893H227.582V20.8748H232.894C232.89 20.5609 232.816 20.2811 232.671 20.0356C232.526 19.7901 232.327 19.599 232.073 19.4621C231.824 19.3213 231.536 19.2508 231.21 19.2508C230.88 19.2508 230.584 19.3253 230.322 19.4742C230.061 19.6191 229.853 19.8183 229.701 20.0719C229.548 20.3214 229.467 20.6051 229.459 20.9231V22.6677C229.459 23.0461 229.533 23.3781 229.682 23.6638C229.831 23.9456 230.043 24.1649 230.316 24.3219C230.59 24.4788 230.916 24.5573 231.294 24.5573C231.556 24.5573 231.793 24.5211 232.007 24.4486C232.22 24.3762 232.403 24.2695 232.556 24.1287C232.709 23.9878 232.824 23.8148 232.9 23.6095L235.611 23.688C235.498 24.2957 235.25 24.8249 234.868 25.2757C234.49 25.7224 233.993 26.0706 233.377 26.3201C232.761 26.5656 232.049 26.6883 231.24 26.6883ZM239.527 17.2405L241.054 20.2952L242.636 17.2405H245.612L243.023 21.8769L245.709 26.5133H242.757L241.054 23.4344L239.394 26.5133H236.4L239.092 21.8769L236.533 17.2405H239.527ZM252.194 17.2405V19.4138H246.344V17.2405H252.194ZM247.57 15.019H250.522V23.5974C250.522 23.7785 250.55 23.9254 250.606 24.0381C250.667 24.1468 250.753 24.2253 250.866 24.2736C250.979 24.3178 251.114 24.34 251.27 24.34C251.383 24.34 251.502 24.3299 251.627 24.3098C251.755 24.2856 251.852 24.2655 251.916 24.2494L252.363 26.3805C252.222 26.4207 252.023 26.471 251.765 26.5314C251.512 26.5918 251.208 26.63 250.854 26.6461C250.162 26.6783 249.568 26.5978 249.073 26.4046C248.582 26.2074 248.206 25.9015 247.944 25.487C247.687 25.0725 247.562 24.5513 247.57 23.9234V15.019ZM259.683 22.5108V17.2405H262.629V26.5133H259.816V24.7867H259.719C259.514 25.3542 259.164 25.8049 258.669 26.139C258.178 26.469 257.584 26.634 256.888 26.634C256.256 26.634 255.701 26.4891 255.222 26.1993C254.743 25.9096 254.37 25.5051 254.105 24.9859C253.839 24.4627 253.704 23.851 253.7 23.1507V17.2405H256.652V22.5712C256.656 23.0742 256.789 23.4707 257.051 23.7604C257.312 24.0502 257.669 24.1951 258.119 24.1951C258.413 24.1951 258.677 24.1307 258.91 24.0019C259.148 23.8691 259.335 23.6779 259.472 23.4284C259.612 23.1748 259.683 22.869 259.683 22.5108ZM264.508 26.5133V17.2405H267.375V18.9309H267.472C267.641 18.3191 267.917 17.8644 268.299 17.5665C268.681 17.2647 269.126 17.1138 269.633 17.1138C269.77 17.1138 269.911 17.1238 270.056 17.144C270.201 17.1601 270.336 17.1862 270.46 17.2224V19.7881C270.319 19.7398 270.134 19.7016 269.905 19.6734C269.68 19.6453 269.478 19.6312 269.301 19.6312C268.951 19.6312 268.635 19.7096 268.353 19.8666C268.076 20.0195 267.856 20.2349 267.695 20.5126C267.538 20.7862 267.46 21.1082 267.46 21.4785V26.5133H264.508ZM275.516 26.6883C274.546 26.6883 273.709 26.4972 273.005 26.1148C272.305 25.7285 271.765 25.1791 271.387 24.4668C271.013 23.7504 270.826 22.8992 270.826 21.9131C270.826 20.9553 271.015 20.1181 271.393 19.4018C271.771 18.6814 272.305 18.1219 272.993 17.7235C273.681 17.321 274.492 17.1198 275.426 17.1198C276.086 17.1198 276.689 17.2224 277.237 17.4277C277.784 17.6329 278.257 17.9368 278.655 18.3393C279.054 18.7417 279.364 19.2388 279.585 19.8304C279.807 20.418 279.917 21.0921 279.917 21.8528V22.5893H271.858V20.8748H277.17C277.166 20.5609 277.092 20.2811 276.947 20.0356C276.802 19.7901 276.603 19.599 276.349 19.4621C276.1 19.3213 275.812 19.2508 275.486 19.2508C275.156 19.2508 274.86 19.3253 274.599 19.4742C274.337 19.6191 274.13 19.8183 273.977 20.0719C273.824 20.3214 273.743 20.6051 273.735 20.9231V22.6677C273.735 23.0461 273.81 23.3781 273.959 23.6638C274.108 23.9456 274.319 24.1649 274.593 24.3219C274.866 24.4788 275.192 24.5573 275.571 24.5573C275.832 24.5573 276.07 24.5211 276.283 24.4486C276.496 24.3762 276.679 24.2695 276.832 24.1287C276.985 23.9878 277.1 23.8148 277.176 23.6095L279.887 23.688C279.774 24.2957 279.527 24.8249 279.144 25.2757C278.766 25.7224 278.269 26.0706 277.653 26.3201C277.038 26.5656 276.325 26.6883 275.516 26.6883ZM289.52 20.0719L286.81 20.1443C286.782 19.9511 286.705 19.7801 286.58 19.6312C286.456 19.4782 286.293 19.3595 286.091 19.275C285.894 19.1864 285.665 19.1422 285.403 19.1422C285.061 19.1422 284.769 19.2106 284.528 19.3474C284.29 19.4843 284.174 19.6694 284.178 19.9028C284.174 20.0839 284.246 20.2409 284.395 20.3737C284.548 20.5065 284.82 20.6132 285.21 20.6937L286.997 21.0317C287.923 21.2088 288.611 21.5026 289.062 21.9131C289.516 22.3236 289.746 22.867 289.75 23.5431C289.746 24.179 289.557 24.7324 289.182 25.2033C288.812 25.6741 288.305 26.0404 287.661 26.302C287.017 26.5596 286.281 26.6883 285.452 26.6883C284.127 26.6883 283.083 26.4167 282.318 25.8734C281.558 25.326 281.123 24.5935 281.014 23.6759L283.93 23.6035C283.995 23.9415 284.162 24.1991 284.431 24.3762C284.701 24.5533 285.045 24.6418 285.464 24.6418C285.842 24.6418 286.15 24.5714 286.387 24.4305C286.625 24.2897 286.745 24.1025 286.75 23.8691C286.745 23.6598 286.653 23.4928 286.472 23.368C286.291 23.2392 286.007 23.1386 285.621 23.0662L284.003 22.7583C283.073 22.5893 282.381 22.2774 281.926 21.8226C281.471 21.3638 281.246 20.7802 281.25 20.0719C281.246 19.4521 281.411 18.9228 281.745 18.4842C282.079 18.0414 282.554 17.7034 283.17 17.4699C283.785 17.2365 284.512 17.1198 285.349 17.1198C286.605 17.1198 287.595 17.3834 288.319 17.9106C289.044 18.4338 289.444 19.1543 289.52 20.0719Z" fill="white"/>
</g>
<rect x="1.07582" y="1.084" width="296.858" height="37.8585" rx="6.92857" stroke="white" stroke-opacity="0.15" stroke-width="2.14286"/>
<defs>
<filter id="filter0_d_38_16" x="2.40411" y="0.412293" width="39.202" height="39.202" filterUnits="userSpaceOnUse" color-interpolation-filters="sRGB">
<feFlood flood-opacity="0" result="BackgroundImageFix"/>
<feColorMatrix in="SourceAlpha" type="matrix" values="0 0 0 0 0 0 0 0 0 0 0 0 0 0 0 0 0 0 127 0" result="hardAlpha"/>
<feOffset/>
<feGaussianBlur stdDeviation="2.80014"/>
<feComposite in2="hardAlpha" operator="out"/>
<feColorMatrix type="matrix" values="0 0 0 0 0 0 0 0 0 0 0 0 0 0 0 0 0 0 0.25 0"/>
<feBlend mode="normal" in2="BackgroundImageFix" result="effect1_dropShadow_38_16"/>
<feBlend mode="normal" in="SourceGraphic" in2="effect1_dropShadow_38_16" result="shape"/>
</filter>
<filter id="filter1_d_38_16" x="38.2916" y="3.79899" width="258.429" height="32.4286" filterUnits="userSpaceOnUse" color-interpolation-filters="sRGB">
<feFlood flood-opacity="0" result="BackgroundImageFix"/>
<feColorMatrix in="SourceAlpha" type="matrix" values="0 0 0 0 0 0 0 0 0 0 0 0 0 0 0 0 0 0 127 0" result="hardAlpha"/>
<feOffset/>
<feGaussianBlur stdDeviation="2.85714"/>
<feComposite in2="hardAlpha" operator="out"/>
<feColorMatrix type="matrix" values="0 0 0 0 0 0 0 0 0 0 0 0 0 0 0 0 0 0 0.25 0"/>
<feBlend mode="normal" in2="BackgroundImageFix" result="effect1_dropShadow_38_16"/>
<feBlend mode="normal" in="SourceGraphic" in2="effect1_dropShadow_38_16" result="shape"/>
</filter>
<linearGradient id="paint0_linear_38_16" x1="149.505" y1="0.0125732" x2="149.505" y2="38.014" gradientUnits="userSpaceOnUse">
<stop stop-color="#343434"/>
<stop offset="1" stop-color="#232323"/>
</linearGradient>
</defs>
</svg>
