<svg width="198" height="41" viewBox="0 0 198 41" fill="none" xmlns="http://www.w3.org/2000/svg">
<rect x="0.00439453" y="0.00836182" width="197.001" height="40.0014" rx="8" fill="url(#paint0_linear_28_2730)"/>
<g filter="url(#filter0_d_28_2730)">
<path d="M13.0046 26.5081V24.408H19.3049V26.5081H13.0046ZM10.9044 24.408V13.9074H13.0046V24.408H10.9044ZM19.3049 24.408V13.9074H21.405V24.408H19.3049ZM13.0046 13.9074V11.8073H19.3049V13.9074H13.0046ZM23.5051 26.5081V11.8073H34.0056V13.9074H25.6052V16.0075H29.8054V18.1076H25.6052V26.5081H23.5051Z" fill="#E29F00"/>
</g>
<g filter="url(#filter1_d_28_2730)">
<path d="M43.3642 26.5091V14.1454H47.7711C48.729 14.1454 49.5238 14.3104 50.1557 14.6405C50.7916 14.9705 51.2665 15.4273 51.5804 16.0108C51.8944 16.5904 52.0513 17.2605 52.0513 18.0211C52.0513 18.7778 51.8923 19.4438 51.5744 20.0194C51.2605 20.5909 50.7856 21.0356 50.1497 21.3535C49.5178 21.6715 48.723 21.8304 47.7651 21.8304H44.4267V20.2246H47.5961C48.1997 20.2246 48.6908 20.1381 49.0691 19.965C49.4514 19.792 49.7311 19.5404 49.9082 19.2104C50.0853 18.8804 50.1738 18.484 50.1738 18.0211C50.1738 17.5543 50.0833 17.1498 49.9022 16.8077C49.7251 16.4656 49.4454 16.204 49.063 16.0229C48.6847 15.8378 48.1877 15.7452 47.5719 15.7452H45.2296V26.5091H43.3642ZM49.4675 20.9309L52.5222 26.5091H50.3972L47.4029 20.9309H49.4675ZM58.0565 26.6962C57.143 26.6962 56.3561 26.501 55.6961 26.1106C55.0401 25.7162 54.533 25.1628 54.1748 24.4505C53.8206 23.7341 53.6436 22.8949 53.6436 21.9331C53.6436 20.9833 53.8206 20.1461 54.1748 19.4217C54.533 18.6973 55.032 18.1318 55.672 17.7253C56.3159 17.3188 57.0685 17.1156 57.9298 17.1156C58.453 17.1156 58.9601 17.2021 59.4511 17.3752C59.9421 17.5482 60.3828 17.8199 60.7732 18.1902C61.1636 18.5604 61.4714 19.0414 61.6968 19.633C61.9222 20.2206 62.0349 20.935 62.0349 21.7761V22.416H54.6638V21.0637H60.2661C60.2661 20.5888 60.1695 20.1683 59.9763 19.802C59.7831 19.4318 59.5114 19.14 59.1613 18.9267C58.8152 18.7134 58.4087 18.6067 57.9418 18.6067C57.4347 18.6067 56.992 18.7315 56.6137 18.981C56.2394 19.2265 55.9497 19.5485 55.7444 19.9469C55.5432 20.3413 55.4426 20.77 55.4426 21.2328V22.2892C55.4426 22.909 55.5512 23.4363 55.7686 23.8709C55.9899 24.3056 56.2978 24.6376 56.6922 24.867C57.0866 25.0924 57.5474 25.2051 58.0747 25.2051C58.4168 25.2051 58.7287 25.1568 59.0104 25.0602C59.2921 24.9596 59.5356 24.8107 59.7409 24.6135C59.9461 24.4163 60.1031 24.1728 60.2117 23.883L61.9202 24.1909C61.7833 24.694 61.5378 25.1347 61.1837 25.513C60.8335 25.8873 60.3928 26.179 59.8616 26.3883C59.3344 26.5936 58.7327 26.6962 58.0565 26.6962ZM70.2979 29.9863V25.0662H70.1893C70.0806 25.2634 69.9236 25.4888 69.7184 25.7424C69.5172 25.9959 69.2395 26.2173 68.8853 26.4064C68.5311 26.5956 68.0723 26.6902 67.5089 26.6902C66.7603 26.6902 66.0922 26.499 65.5046 26.1167C64.921 25.7303 64.4622 25.1809 64.1282 24.4686C63.7982 23.7522 63.6332 22.8929 63.6332 21.8908C63.6332 20.8887 63.8002 20.0314 64.1342 19.3191C64.4723 18.6067 64.9351 18.0614 65.5227 17.6831C66.1103 17.3048 66.7764 17.1156 67.5209 17.1156C68.0965 17.1156 68.5593 17.2122 68.9094 17.4054C69.2636 17.5945 69.5373 17.8159 69.7305 18.0694C69.9277 18.323 70.0806 18.5463 70.1893 18.7395H70.3402V17.2363H72.103V29.9863H70.2979ZM67.9073 25.1507C68.4265 25.1507 68.8652 25.0139 69.2234 24.7402C69.5856 24.4625 69.8592 24.0782 70.0444 23.5872C70.2335 23.0962 70.3281 22.5247 70.3281 21.8727C70.3281 21.2288 70.2356 20.6653 70.0504 20.1824C69.8653 19.6994 69.5936 19.3231 69.2354 19.0535C68.8772 18.7838 68.4345 18.649 67.9073 18.649C67.364 18.649 66.9112 18.7898 66.549 19.0716C66.1868 19.3533 65.9131 19.7376 65.728 20.2246C65.5469 20.7116 65.4563 21.261 65.4563 21.8727C65.4563 22.4925 65.5489 23.0499 65.734 23.5449C65.9191 24.04 66.1928 24.4324 66.555 24.7221C66.9213 25.0079 67.372 25.1507 67.9073 25.1507ZM80.4038 22.6635V17.2363H82.2148V26.5091H80.44V24.9032H80.3434C80.1301 25.3983 79.788 25.8108 79.3171 26.1408C78.8502 26.4668 78.2687 26.6298 77.5724 26.6298C76.9768 26.6298 76.4496 26.499 75.9908 26.2374C75.536 25.9718 75.1778 25.5794 74.9162 25.0602C74.6586 24.541 74.5298 23.8991 74.5298 23.1344V17.2363H76.3349V22.9171C76.3349 23.549 76.5099 24.052 76.8601 24.4263C77.2102 24.8006 77.665 24.9878 78.2244 24.9878C78.5625 24.9878 78.8985 24.9032 79.2326 24.7342C79.5707 24.5652 79.8504 24.3096 80.0717 23.9675C80.2971 23.6254 80.4078 23.1908 80.4038 22.6635ZM84.6402 26.5091V17.2363H86.4452V26.5091H84.6402ZM85.5517 15.8056C85.2378 15.8056 84.9682 15.7009 84.7428 15.4917C84.5214 15.2784 84.4108 15.0248 84.4108 14.731C84.4108 14.4332 84.5214 14.1796 84.7428 13.9704C84.9682 13.757 85.2378 13.6504 85.5517 13.6504C85.8657 13.6504 86.1333 13.757 86.3547 13.9704C86.58 14.1796 86.6927 14.4332 86.6927 14.731C86.6927 15.0248 86.58 15.2784 86.3547 15.4917C86.1333 15.7009 85.8657 15.8056 85.5517 15.8056ZM88.8736 26.5091V17.2363H90.6182V18.7093H90.7148C90.8839 18.2103 91.1817 17.8179 91.6083 17.5321C92.0389 17.2424 92.5259 17.0975 93.0692 17.0975C93.1819 17.0975 93.3147 17.1015 93.4677 17.1096C93.6246 17.1176 93.7474 17.1277 93.8359 17.1397V18.8663C93.7635 18.8462 93.6347 18.824 93.4496 18.7999C93.2644 18.7717 93.0793 18.7576 92.8942 18.7576C92.4676 18.7576 92.0872 18.8482 91.7532 19.0293C91.4232 19.2064 91.1616 19.4539 90.9684 19.7718C90.7752 20.0858 90.6786 20.444 90.6786 20.8464V26.5091H88.8736ZM99.0624 26.6962C98.1488 26.6962 97.362 26.501 96.702 26.1106C96.0459 25.7162 95.5388 25.1628 95.1806 24.4505C94.8265 23.7341 94.6494 22.8949 94.6494 21.9331C94.6494 20.9833 94.8265 20.1461 95.1806 19.4217C95.5388 18.6973 96.0379 18.1318 96.6778 17.7253C97.3217 17.3188 98.0744 17.1156 98.9356 17.1156C99.4588 17.1156 99.9659 17.2021 100.457 17.3752C100.948 17.5482 101.389 17.8199 101.779 18.1902C102.169 18.5604 102.477 19.0414 102.703 19.633C102.928 20.2206 103.041 20.935 103.041 21.7761V22.416H95.6696V21.0637H101.272C101.272 20.5888 101.175 20.1683 100.982 19.802C100.789 19.4318 100.517 19.14 100.167 18.9267C99.821 18.7134 99.4145 18.6067 98.9477 18.6067C98.4406 18.6067 97.9979 18.7315 97.6196 18.981C97.2453 19.2265 96.9555 19.5485 96.7503 19.9469C96.549 20.3413 96.4484 20.77 96.4484 21.2328V22.2892C96.4484 22.909 96.5571 23.4363 96.7744 23.8709C96.9958 24.3056 97.3036 24.6376 97.698 24.867C98.0925 25.0924 98.5533 25.2051 99.0805 25.2051C99.4226 25.2051 99.7345 25.1568 100.016 25.0602C100.298 24.9596 100.541 24.8107 100.747 24.6135C100.952 24.4163 101.109 24.1728 101.218 23.883L102.926 24.1909C102.789 24.694 102.544 25.1347 102.19 25.513C101.839 25.8873 101.399 26.179 100.867 26.3883C100.34 26.5936 99.7385 26.6962 99.0624 26.6962ZM111.992 19.5002L110.356 19.79C110.288 19.5807 110.179 19.3815 110.03 19.1923C109.885 19.0031 109.688 18.8482 109.438 18.7275C109.189 18.6067 108.877 18.5463 108.503 18.5463C107.992 18.5463 107.565 18.661 107.223 18.8905C106.881 19.1158 106.71 19.4076 106.71 19.7658C106.71 20.0757 106.824 20.3252 107.054 20.5144C107.283 20.7035 107.653 20.8585 108.165 20.9792L109.638 21.3173C110.491 21.5145 111.127 21.8184 111.545 22.2289C111.964 22.6394 112.173 23.1726 112.173 23.8287C112.173 24.3841 112.012 24.8791 111.69 25.3137C111.372 25.7444 110.927 26.0824 110.356 26.328C109.789 26.5735 109.13 26.6962 108.382 26.6962C107.344 26.6962 106.496 26.4748 105.84 26.0321C105.184 25.5854 104.782 24.9515 104.633 24.1305L106.378 23.8649C106.486 24.3197 106.71 24.6638 107.048 24.8972C107.386 25.1266 107.827 25.2413 108.37 25.2413C108.961 25.2413 109.434 25.1186 109.789 24.8731C110.143 24.6235 110.32 24.3197 110.32 23.9615C110.32 23.6717 110.211 23.4282 109.994 23.231C109.78 23.0338 109.452 22.8849 109.01 22.7843L107.44 22.4402C106.575 22.243 105.935 21.929 105.52 21.4984C105.11 21.0678 104.905 20.5224 104.905 19.8624C104.905 19.3151 105.058 18.8361 105.363 18.4256C105.669 18.0151 106.092 17.6951 106.631 17.4657C107.17 17.2323 107.788 17.1156 108.485 17.1156C109.487 17.1156 110.275 17.3329 110.851 17.7676C111.427 18.1982 111.807 18.7758 111.992 19.5002Z" fill="#E8E8E8"/>
<path d="M129.611 20.3272C129.611 21.6876 129.349 22.8406 128.826 23.7864C128.303 24.7322 127.595 25.4506 126.701 25.9416C125.812 26.4326 124.814 26.6781 123.707 26.6781C122.596 26.6781 121.596 26.4306 120.706 25.9356C119.817 25.4405 119.111 24.7221 118.588 23.7804C118.068 22.8346 117.809 21.6835 117.809 20.3272C117.809 18.9669 118.068 17.8139 118.588 16.8681C119.111 15.9223 119.817 15.2039 120.706 14.7129C121.596 14.2219 122.596 13.9764 123.707 13.9764C124.814 13.9764 125.812 14.2219 126.701 14.7129C127.595 15.2039 128.303 15.9223 128.826 16.8681C129.349 17.8139 129.611 18.9669 129.611 20.3272ZM126.556 20.3272C126.556 19.5223 126.442 18.8422 126.212 18.2868C125.987 17.7314 125.661 17.3108 125.234 17.025C124.812 16.7393 124.302 16.5964 123.707 16.5964C123.115 16.5964 122.606 16.7393 122.18 17.025C121.753 17.3108 121.425 17.7314 121.195 18.2868C120.97 18.8422 120.857 19.5223 120.857 20.3272C120.857 21.1322 120.97 21.8123 121.195 22.3677C121.425 22.9231 121.753 23.3437 122.18 23.6294C122.606 23.9152 123.115 24.0581 123.707 24.0581C124.302 24.0581 124.812 23.9152 125.234 23.6294C125.661 23.3437 125.987 22.9231 126.212 22.3677C126.442 21.8123 126.556 21.1322 126.556 20.3272ZM131.356 29.9863V17.2363H134.278V18.824H134.368C134.489 18.5423 134.66 18.2707 134.881 18.0091C135.107 17.7475 135.392 17.5342 135.738 17.3691C136.089 17.2001 136.507 17.1156 136.994 17.1156C137.638 17.1156 138.24 17.2846 138.799 17.6227C139.363 17.9608 139.817 18.482 140.164 19.1863C140.51 19.8906 140.683 20.7881 140.683 21.8787C140.683 22.9292 140.516 23.8085 140.182 24.5169C139.852 25.2252 139.405 25.7565 138.841 26.1106C138.282 26.4648 137.66 26.6419 136.976 26.6419C136.509 26.6419 136.105 26.5654 135.763 26.4125C135.421 26.2595 135.133 26.0583 134.899 25.8088C134.67 25.5592 134.493 25.2916 134.368 25.0059H134.308V29.9863H131.356ZM134.247 21.8727C134.247 22.3717 134.314 22.8064 134.447 23.1767C134.583 23.5469 134.779 23.8347 135.032 24.04C135.29 24.2412 135.598 24.3418 135.956 24.3418C136.318 24.3418 136.626 24.2412 136.879 24.04C137.133 23.8347 137.324 23.5469 137.453 23.1767C137.586 22.8064 137.652 22.3717 137.652 21.8727C137.652 21.3736 137.586 20.941 137.453 20.5748C137.324 20.2085 137.133 19.9248 136.879 19.7235C136.63 19.5223 136.322 19.4217 135.956 19.4217C135.594 19.4217 135.286 19.5203 135.032 19.7175C134.779 19.9147 134.583 20.1964 134.447 20.5627C134.314 20.9289 134.247 21.3656 134.247 21.8727ZM147.464 17.2363V19.4096H141.614V17.2363H147.464ZM142.839 15.0147H145.791V23.5932C145.791 23.7743 145.82 23.9212 145.876 24.0339C145.936 24.1426 146.023 24.2211 146.136 24.2694C146.248 24.3136 146.383 24.3358 146.54 24.3358C146.653 24.3358 146.771 24.3257 146.896 24.3056C147.025 24.2814 147.122 24.2613 147.186 24.2452L147.633 26.3762C147.492 26.4165 147.293 26.4668 147.035 26.5272C146.782 26.5875 146.478 26.6258 146.123 26.6419C145.431 26.6741 144.838 26.5936 144.343 26.4004C143.852 26.2032 143.475 25.8973 143.214 25.4828C142.956 25.0682 142.831 24.5471 142.839 23.9192V15.0147ZM148.97 26.5091V17.2363H151.922V26.5091H148.97ZM150.449 16.1557C150.034 16.1557 149.678 16.0189 149.38 15.7452C149.083 15.4675 148.934 15.1335 148.934 14.7431C148.934 14.3567 149.083 14.0267 149.38 13.753C149.678 13.4753 150.034 13.3365 150.449 13.3365C150.868 13.3365 151.224 13.4753 151.517 13.753C151.815 14.0267 151.964 14.3567 151.964 14.7431C151.964 15.1335 151.815 15.4675 151.517 15.7452C151.224 16.0189 150.868 16.1557 150.449 16.1557ZM153.801 26.5091V14.1454H162.241V16.5723H156.789V19.1078H161.703V21.5407H156.789V26.5091H153.801ZM163.745 26.5091V17.2363H166.697V26.5091H163.745ZM165.224 16.1557C164.81 16.1557 164.454 16.0189 164.156 15.7452C163.858 15.4675 163.709 15.1335 163.709 14.7431C163.709 14.3567 163.858 14.0267 164.156 13.753C164.454 13.4753 164.81 13.3365 165.224 13.3365C165.643 13.3365 165.999 13.4753 166.293 13.753C166.591 14.0267 166.74 14.3567 166.74 14.7431C166.74 15.1335 166.591 15.4675 166.293 15.7452C165.999 16.0189 165.643 16.1557 165.224 16.1557ZM171.528 21.2207V26.5091H168.576V17.2363H171.384V18.9387H171.486C171.691 18.3713 172.042 17.9266 172.537 17.6046C173.032 17.2786 173.621 17.1156 174.305 17.1156C174.957 17.1156 175.523 17.2625 176.002 17.5563C176.485 17.8461 176.859 18.2526 177.125 18.7758C177.394 19.2949 177.527 19.9026 177.523 20.5989V26.5091H174.571V21.1784C174.575 20.6633 174.444 20.2608 174.179 19.9711C173.917 19.6813 173.553 19.5364 173.086 19.5364C172.776 19.5364 172.502 19.6048 172.265 19.7417C172.031 19.8745 171.85 20.0656 171.722 20.3152C171.597 20.5647 171.532 20.8665 171.528 21.2207ZM183.685 26.6841C182.715 26.6841 181.878 26.493 181.174 26.1106C180.474 25.7243 179.934 25.1749 179.556 24.4625C179.182 23.7462 178.995 22.8949 178.995 21.9089C178.995 20.9511 179.184 20.1139 179.562 19.3976C179.94 18.6771 180.474 18.1177 181.162 17.7193C181.85 17.3168 182.661 17.1156 183.595 17.1156C184.255 17.1156 184.858 17.2182 185.406 17.4235C185.953 17.6287 186.426 17.9326 186.824 18.3351C187.223 18.7375 187.533 19.2346 187.754 19.8262C187.976 20.4138 188.086 21.0879 188.086 21.8485V22.5851H180.027V20.8706H185.339C185.335 20.5566 185.261 20.2769 185.116 20.0314C184.971 19.7859 184.772 19.5948 184.518 19.4579C184.269 19.3171 183.981 19.2466 183.655 19.2466C183.325 19.2466 183.029 19.3211 182.768 19.47C182.506 19.6149 182.299 19.8141 182.146 20.0677C181.993 20.3172 181.912 20.6009 181.904 20.9189V22.6635C181.904 23.0418 181.979 23.3739 182.128 23.6596C182.277 23.9414 182.488 24.1607 182.762 24.3177C183.035 24.4746 183.361 24.5531 183.74 24.5531C184.001 24.5531 184.239 24.5169 184.452 24.4444C184.665 24.372 184.848 24.2653 185.001 24.1245C185.154 23.9836 185.269 23.8106 185.345 23.6053L188.056 23.6838C187.943 24.2915 187.696 24.8207 187.313 25.2715C186.935 25.7182 186.438 26.0664 185.822 26.3159C185.207 26.5614 184.494 26.6841 183.685 26.6841Z" fill="#E29F00"/>
</g>
<rect x="1.07582" y="1.07979" width="194.858" height="37.8585" rx="6.92857" stroke="white" stroke-opacity="0.15" stroke-width="2.14286"/>
<defs>
<filter id="filter0_d_28_2730" x="2.40411" y="0.408082" width="39.202" height="39.202" filterUnits="userSpaceOnUse" color-interpolation-filters="sRGB">
<feFlood flood-opacity="0" result="BackgroundImageFix"/>
<feColorMatrix in="SourceAlpha" type="matrix" values="0 0 0 0 0 0 0 0 0 0 0 0 0 0 0 0 0 0 127 0" result="hardAlpha"/>
<feOffset/>
<feGaussianBlur stdDeviation="2.80014"/>
<feComposite in2="hardAlpha" operator="out"/>
<feColorMatrix type="matrix" values="0 0 0 0 0 0 0 0 0 0 0 0 0 0 0 0 0 0 0.25 0"/>
<feBlend mode="normal" in2="BackgroundImageFix" result="effect1_dropShadow_28_2730"/>
<feBlend mode="normal" in="SourceGraphic" in2="effect1_dropShadow_28_2730" result="shape"/>
</filter>
<filter id="filter1_d_28_2730" x="36.2916" y="3.79478" width="158.429" height="32.4286" filterUnits="userSpaceOnUse" color-interpolation-filters="sRGB">
<feFlood flood-opacity="0" result="BackgroundImageFix"/>
<feColorMatrix in="SourceAlpha" type="matrix" values="0 0 0 0 0 0 0 0 0 0 0 0 0 0 0 0 0 0 127 0" result="hardAlpha"/>
<feOffset/>
<feGaussianBlur stdDeviation="2.85714"/>
<feComposite in2="hardAlpha" operator="out"/>
<feColorMatrix type="matrix" values="0 0 0 0 0 0 0 0 0 0 0 0 0 0 0 0 0 0 0.25 0"/>
<feBlend mode="normal" in2="BackgroundImageFix" result="effect1_dropShadow_28_2730"/>
<feBlend mode="normal" in="SourceGraphic" in2="effect1_dropShadow_28_2730" result="shape"/>
</filter>
<linearGradient id="paint0_linear_28_2730" x1="98.5051" y1="0.00836181" x2="98.5051" y2="38.0098" gradientUnits="userSpaceOnUse">
<stop stop-color="#361212"/>
<stop offset="1" stop-color="#240C0C"/>
</linearGradient>
</defs>
</svg>
