<svg width="200" height="41" viewBox="0 0 200 41" fill="none" xmlns="http://www.w3.org/2000/svg">
<rect x="0.00439453" y="0.00836182" width="199.001" height="40.0014" rx="8" fill="url(#paint0_linear_28_2730)"/>
<g filter="url(#filter0_d_28_2730)">
<path d="M13.0046 26.5081V24.408H19.3049V26.5081H13.0046ZM10.9044 24.408V13.9074H13.0046V24.408H10.9044ZM19.3049 24.408V13.9074H21.405V24.408H19.3049ZM13.0046 13.9074V11.8073H19.3049V13.9074H13.0046ZM23.5051 26.5081V11.8073H34.0056V13.9074H25.6052V16.0075H29.8054V18.1076H25.6052V26.5081H23.5051Z" fill="#E29F00"/>
</g>
<g filter="url(#filter1_d_28_2730)">
<path d="M45.3642 26.5091V14.1454H49.7711C50.729 14.1454 51.5238 14.3104 52.1557 14.6405C52.7916 14.9705 53.2665 15.4273 53.5804 16.0108C53.8944 16.5904 54.0513 17.2605 54.0513 18.0211C54.0513 18.7778 53.8923 19.4438 53.5744 20.0194C53.2605 20.5909 52.7856 21.0356 52.1497 21.3535C51.5178 21.6715 50.723 21.8304 49.7651 21.8304H46.4267V20.2246H49.5961C50.1997 20.2246 50.6908 20.1381 51.0691 19.965C51.4514 19.792 51.7311 19.5404 51.9082 19.2104C52.0853 18.8804 52.1738 18.484 52.1738 18.0211C52.1738 17.5543 52.0833 17.1498 51.9022 16.8077C51.7251 16.4656 51.4454 16.204 51.063 16.0229C50.6847 15.8378 50.1877 15.7452 49.5719 15.7452H47.2296V26.5091H45.3642ZM51.4675 20.9309L54.5222 26.5091H52.3972L49.4029 20.9309H51.4675ZM60.0565 26.6962C59.143 26.6962 58.3561 26.501 57.6961 26.1106C57.0401 25.7162 56.533 25.1628 56.1748 24.4505C55.8206 23.7341 55.6436 22.8949 55.6436 21.9331C55.6436 20.9833 55.8206 20.1461 56.1748 19.4217C56.533 18.6973 57.032 18.1318 57.672 17.7253C58.3159 17.3188 59.0685 17.1156 59.9298 17.1156C60.453 17.1156 60.9601 17.2021 61.4511 17.3752C61.9421 17.5482 62.3828 17.8199 62.7732 18.1902C63.1636 18.5604 63.4714 19.0414 63.6968 19.633C63.9222 20.2206 64.0349 20.935 64.0349 21.7761V22.416H56.6638V21.0637H62.2661C62.2661 20.5888 62.1695 20.1683 61.9763 19.802C61.7831 19.4318 61.5114 19.14 61.1613 18.9267C60.8152 18.7134 60.4087 18.6067 59.9418 18.6067C59.4347 18.6067 58.992 18.7315 58.6137 18.981C58.2394 19.2265 57.9497 19.5485 57.7444 19.9469C57.5432 20.3413 57.4426 20.77 57.4426 21.2328V22.2892C57.4426 22.909 57.5512 23.4363 57.7686 23.8709C57.9899 24.3056 58.2978 24.6376 58.6922 24.867C59.0866 25.0924 59.5474 25.2051 60.0747 25.2051C60.4168 25.2051 60.7287 25.1568 61.0104 25.0602C61.2921 24.9596 61.5356 24.8107 61.7409 24.6135C61.9461 24.4163 62.1031 24.1728 62.2117 23.883L63.9202 24.1909C63.7833 24.694 63.5378 25.1347 63.1837 25.513C62.8335 25.8873 62.3928 26.179 61.8616 26.3883C61.3344 26.5936 60.7327 26.6962 60.0565 26.6962ZM72.2979 29.9863V25.0662H72.1893C72.0806 25.2634 71.9236 25.4888 71.7184 25.7424C71.5172 25.9959 71.2395 26.2173 70.8853 26.4064C70.5311 26.5956 70.0723 26.6902 69.5089 26.6902C68.7603 26.6902 68.0922 26.499 67.5046 26.1167C66.921 25.7303 66.4622 25.1809 66.1282 24.4686C65.7982 23.7522 65.6332 22.8929 65.6332 21.8908C65.6332 20.8887 65.8002 20.0314 66.1342 19.3191C66.4723 18.6067 66.9351 18.0614 67.5227 17.6831C68.1103 17.3048 68.7764 17.1156 69.5209 17.1156C70.0965 17.1156 70.5593 17.2122 70.9094 17.4054C71.2636 17.5945 71.5373 17.8159 71.7305 18.0694C71.9277 18.323 72.0806 18.5463 72.1893 18.7395H72.3402V17.2363H74.103V29.9863H72.2979ZM69.9073 25.1507C70.4265 25.1507 70.8652 25.0139 71.2234 24.7402C71.5856 24.4625 71.8592 24.0782 72.0444 23.5872C72.2335 23.0962 72.3281 22.5247 72.3281 21.8727C72.3281 21.2288 72.2356 20.6653 72.0504 20.1824C71.8653 19.6994 71.5936 19.3231 71.2354 19.0535C70.8772 18.7838 70.4345 18.649 69.9073 18.649C69.364 18.649 68.9112 18.7898 68.549 19.0716C68.1868 19.3533 67.9131 19.7376 67.728 20.2246C67.5469 20.7116 67.4563 21.261 67.4563 21.8727C67.4563 22.4925 67.5489 23.0499 67.734 23.5449C67.9191 24.04 68.1928 24.4324 68.555 24.7221C68.9213 25.0079 69.372 25.1507 69.9073 25.1507ZM82.4038 22.6635V17.2363H84.2148V26.5091H82.44V24.9032H82.3434C82.1301 25.3983 81.788 25.8108 81.3171 26.1408C80.8502 26.4668 80.2687 26.6298 79.5724 26.6298C78.9768 26.6298 78.4496 26.499 77.9908 26.2374C77.536 25.9718 77.1778 25.5794 76.9162 25.0602C76.6586 24.541 76.5298 23.8991 76.5298 23.1344V17.2363H78.3349V22.9171C78.3349 23.549 78.5099 24.052 78.8601 24.4263C79.2102 24.8006 79.665 24.9878 80.2244 24.9878C80.5625 24.9878 80.8985 24.9032 81.2326 24.7342C81.5707 24.5652 81.8504 24.3096 82.0717 23.9675C82.2971 23.6254 82.4078 23.1908 82.4038 22.6635ZM86.6402 26.5091V17.2363H88.4452V26.5091H86.6402ZM87.5517 15.8056C87.2378 15.8056 86.9682 15.7009 86.7428 15.4917C86.5214 15.2784 86.4108 15.0248 86.4108 14.731C86.4108 14.4332 86.5214 14.1796 86.7428 13.9704C86.9682 13.757 87.2378 13.6504 87.5517 13.6504C87.8657 13.6504 88.1333 13.757 88.3547 13.9704C88.58 14.1796 88.6927 14.4332 88.6927 14.731C88.6927 15.0248 88.58 15.2784 88.3547 15.4917C88.1333 15.7009 87.8657 15.8056 87.5517 15.8056ZM90.8736 26.5091V17.2363H92.6182V18.7093H92.7148C92.8839 18.2103 93.1817 17.8179 93.6083 17.5321C94.0389 17.2424 94.5259 17.0975 95.0692 17.0975C95.1819 17.0975 95.3147 17.1015 95.4677 17.1096C95.6246 17.1176 95.7474 17.1277 95.8359 17.1397V18.8663C95.7635 18.8462 95.6347 18.824 95.4496 18.7999C95.2644 18.7717 95.0793 18.7576 94.8942 18.7576C94.4676 18.7576 94.0872 18.8482 93.7532 19.0293C93.4232 19.2064 93.1616 19.4539 92.9684 19.7718C92.7752 20.0858 92.6786 20.444 92.6786 20.8464V26.5091H90.8736ZM101.062 26.6962C100.149 26.6962 99.362 26.501 98.702 26.1106C98.0459 25.7162 97.5388 25.1628 97.1806 24.4505C96.8265 23.7341 96.6494 22.8949 96.6494 21.9331C96.6494 20.9833 96.8265 20.1461 97.1806 19.4217C97.5388 18.6973 98.0379 18.1318 98.6778 17.7253C99.3217 17.3188 100.074 17.1156 100.936 17.1156C101.459 17.1156 101.966 17.2021 102.457 17.3752C102.948 17.5482 103.389 17.8199 103.779 18.1902C104.169 18.5604 104.477 19.0414 104.703 19.633C104.928 20.2206 105.041 20.935 105.041 21.7761V22.416H97.6696V21.0637H103.272C103.272 20.5888 103.175 20.1683 102.982 19.802C102.789 19.4318 102.517 19.14 102.167 18.9267C101.821 18.7134 101.415 18.6067 100.948 18.6067C100.441 18.6067 99.9979 18.7315 99.6196 18.981C99.2453 19.2265 98.9555 19.5485 98.7503 19.9469C98.549 20.3413 98.4484 20.77 98.4484 21.2328V22.2892C98.4484 22.909 98.5571 23.4363 98.7744 23.8709C98.9958 24.3056 99.3036 24.6376 99.698 24.867C100.092 25.0924 100.553 25.2051 101.081 25.2051C101.423 25.2051 101.735 25.1568 102.016 25.0602C102.298 24.9596 102.541 24.8107 102.747 24.6135C102.952 24.4163 103.109 24.1728 103.218 23.883L104.926 24.1909C104.789 24.694 104.544 25.1347 104.19 25.513C103.839 25.8873 103.399 26.179 102.867 26.3883C102.34 26.5936 101.739 26.6962 101.062 26.6962ZM113.992 19.5002L112.356 19.79C112.288 19.5807 112.179 19.3815 112.03 19.1923C111.885 19.0031 111.688 18.8482 111.438 18.7275C111.189 18.6067 110.877 18.5463 110.503 18.5463C109.992 18.5463 109.565 18.661 109.223 18.8905C108.881 19.1158 108.71 19.4076 108.71 19.7658C108.71 20.0757 108.824 20.3252 109.054 20.5144C109.283 20.7035 109.653 20.8585 110.165 20.9792L111.638 21.3173C112.491 21.5145 113.127 21.8184 113.545 22.2289C113.964 22.6394 114.173 23.1726 114.173 23.8287C114.173 24.3841 114.012 24.8791 113.69 25.3137C113.372 25.7444 112.927 26.0824 112.356 26.328C111.789 26.5735 111.13 26.6962 110.382 26.6962C109.344 26.6962 108.496 26.4748 107.84 26.0321C107.184 25.5854 106.782 24.9515 106.633 24.1305L108.378 23.8649C108.486 24.3197 108.71 24.6638 109.048 24.8972C109.386 25.1266 109.827 25.2413 110.37 25.2413C110.961 25.2413 111.434 25.1186 111.789 24.8731C112.143 24.6235 112.32 24.3197 112.32 23.9615C112.32 23.6717 112.211 23.4282 111.994 23.231C111.78 23.0338 111.452 22.8849 111.01 22.7843L109.44 22.4402C108.575 22.243 107.935 21.929 107.52 21.4984C107.11 21.0678 106.905 20.5224 106.905 19.8624C106.905 19.3151 107.058 18.8361 107.363 18.4256C107.669 18.0151 108.092 17.6951 108.631 17.4657C109.17 17.2323 109.788 17.1156 110.485 17.1156C111.487 17.1156 112.275 17.3329 112.851 17.7676C113.427 18.1982 113.807 18.7758 113.992 19.5002Z" fill="#E8E8E8"/>
<path d="M131.611 20.3272C131.611 21.6876 131.349 22.8406 130.826 23.7864C130.303 24.7322 129.595 25.4506 128.701 25.9416C127.812 26.4326 126.814 26.6781 125.707 26.6781C124.596 26.6781 123.596 26.4306 122.706 25.9356C121.817 25.4405 121.111 24.7221 120.588 23.7804C120.068 22.8346 119.809 21.6835 119.809 20.3272C119.809 18.9669 120.068 17.8139 120.588 16.8681C121.111 15.9223 121.817 15.2039 122.706 14.7129C123.596 14.2219 124.596 13.9764 125.707 13.9764C126.814 13.9764 127.812 14.2219 128.701 14.7129C129.595 15.2039 130.303 15.9223 130.826 16.8681C131.349 17.8139 131.611 18.9669 131.611 20.3272ZM128.556 20.3272C128.556 19.5223 128.442 18.8422 128.212 18.2868C127.987 17.7314 127.661 17.3108 127.234 17.025C126.812 16.7393 126.302 16.5964 125.707 16.5964C125.115 16.5964 124.606 16.7393 124.18 17.025C123.753 17.3108 123.425 17.7314 123.195 18.2868C122.97 18.8422 122.857 19.5223 122.857 20.3272C122.857 21.1322 122.97 21.8123 123.195 22.3677C123.425 22.9231 123.753 23.3437 124.18 23.6294C124.606 23.9152 125.115 24.0581 125.707 24.0581C126.302 24.0581 126.812 23.9152 127.234 23.6294C127.661 23.3437 127.987 22.9231 128.212 22.3677C128.442 21.8123 128.556 21.1322 128.556 20.3272ZM133.356 29.9863V17.2363H136.278V18.824H136.368C136.489 18.5423 136.66 18.2707 136.881 18.0091C137.107 17.7475 137.392 17.5342 137.738 17.3691C138.089 17.2001 138.507 17.1156 138.994 17.1156C139.638 17.1156 140.24 17.2846 140.799 17.6227C141.363 17.9608 141.817 18.482 142.164 19.1863C142.51 19.8906 142.683 20.7881 142.683 21.8787C142.683 22.9292 142.516 23.8085 142.182 24.5169C141.852 25.2252 141.405 25.7565 140.841 26.1106C140.282 26.4648 139.66 26.6419 138.976 26.6419C138.509 26.6419 138.105 26.5654 137.763 26.4125C137.421 26.2595 137.133 26.0583 136.899 25.8088C136.67 25.5592 136.493 25.2916 136.368 25.0059H136.308V29.9863H133.356ZM136.247 21.8727C136.247 22.3717 136.314 22.8064 136.447 23.1767C136.583 23.5469 136.779 23.8347 137.032 24.04C137.29 24.2412 137.598 24.3418 137.956 24.3418C138.318 24.3418 138.626 24.2412 138.879 24.04C139.133 23.8347 139.324 23.5469 139.453 23.1767C139.586 22.8064 139.652 22.3717 139.652 21.8727C139.652 21.3736 139.586 20.941 139.453 20.5748C139.324 20.2085 139.133 19.9248 138.879 19.7235C138.63 19.5223 138.322 19.4217 137.956 19.4217C137.594 19.4217 137.286 19.5203 137.032 19.7175C136.779 19.9147 136.583 20.1964 136.447 20.5627C136.314 20.9289 136.247 21.3656 136.247 21.8727ZM149.464 17.2363V19.4096H143.614V17.2363H149.464ZM144.839 15.0147H147.791V23.5932C147.791 23.7743 147.82 23.9212 147.876 24.0339C147.936 24.1426 148.023 24.2211 148.136 24.2694C148.248 24.3136 148.383 24.3358 148.54 24.3358C148.653 24.3358 148.771 24.3257 148.896 24.3056C149.025 24.2814 149.122 24.2613 149.186 24.2452L149.633 26.3762C149.492 26.4165 149.293 26.4668 149.035 26.5272C148.782 26.5875 148.478 26.6258 148.123 26.6419C147.431 26.6741 146.838 26.5936 146.343 26.4004C145.852 26.2032 145.475 25.8973 145.214 25.4828C144.956 25.0682 144.831 24.5471 144.839 23.9192V15.0147ZM150.97 26.5091V17.2363H153.922V26.5091H150.97ZM152.449 16.1557C152.034 16.1557 151.678 16.0189 151.38 15.7452C151.083 15.4675 150.934 15.1335 150.934 14.7431C150.934 14.3567 151.083 14.0267 151.38 13.753C151.678 13.4753 152.034 13.3365 152.449 13.3365C152.868 13.3365 153.224 13.4753 153.517 13.753C153.815 14.0267 153.964 14.3567 153.964 14.7431C153.964 15.1335 153.815 15.4675 153.517 15.7452C153.224 16.0189 152.868 16.1557 152.449 16.1557ZM155.801 26.5091V14.1454H164.241V16.5723H158.789V19.1078H163.703V21.5407H158.789V26.5091H155.801ZM165.745 26.5091V17.2363H168.697V26.5091H165.745ZM167.224 16.1557C166.81 16.1557 166.454 16.0189 166.156 15.7452C165.858 15.4675 165.709 15.1335 165.709 14.7431C165.709 14.3567 165.858 14.0267 166.156 13.753C166.454 13.4753 166.81 13.3365 167.224 13.3365C167.643 13.3365 167.999 13.4753 168.293 13.753C168.591 14.0267 168.74 14.3567 168.74 14.7431C168.74 15.1335 168.591 15.4675 168.293 15.7452C167.999 16.0189 167.643 16.1557 167.224 16.1557ZM173.528 21.2207V26.5091H170.576V17.2363H173.384V18.9387H173.486C173.691 18.3713 174.042 17.9266 174.537 17.6046C175.032 17.2786 175.621 17.1156 176.305 17.1156C176.957 17.1156 177.523 17.2625 178.002 17.5563C178.485 17.8461 178.859 18.2526 179.125 18.7758C179.394 19.2949 179.527 19.9026 179.523 20.5989V26.5091H176.571V21.1784C176.575 20.6633 176.444 20.2608 176.179 19.9711C175.917 19.6813 175.553 19.5364 175.086 19.5364C174.776 19.5364 174.502 19.6048 174.265 19.7417C174.031 19.8745 173.85 20.0656 173.722 20.3152C173.597 20.5647 173.532 20.8665 173.528 21.2207ZM185.685 26.6841C184.715 26.6841 183.878 26.493 183.174 26.1106C182.474 25.7243 181.934 25.1749 181.556 24.4625C181.182 23.7462 180.995 22.8949 180.995 21.9089C180.995 20.9511 181.184 20.1139 181.562 19.3976C181.94 18.6771 182.474 18.1177 183.162 17.7193C183.85 17.3168 184.661 17.1156 185.595 17.1156C186.255 17.1156 186.858 17.2182 187.406 17.4235C187.953 17.6287 188.426 17.9326 188.824 18.3351C189.223 18.7375 189.533 19.2346 189.754 19.8262C189.976 20.4138 190.086 21.0879 190.086 21.8485V22.5851H182.027V20.8706H187.339C187.335 20.5566 187.261 20.2769 187.116 20.0314C186.971 19.7859 186.772 19.5948 186.518 19.4579C186.269 19.3171 185.981 19.2466 185.655 19.2466C185.325 19.2466 185.029 19.3211 184.768 19.47C184.506 19.6149 184.299 19.8141 184.146 20.0677C183.993 20.3172 183.912 20.6009 183.904 20.9189V22.6635C183.904 23.0418 183.979 23.3739 184.128 23.6596C184.277 23.9414 184.488 24.1607 184.762 24.3177C185.035 24.4746 185.361 24.5531 185.74 24.5531C186.001 24.5531 186.239 24.5169 186.452 24.4444C186.665 24.372 186.848 24.2653 187.001 24.1245C187.154 23.9836 187.269 23.8106 187.345 23.6053L190.056 23.6838C189.943 24.2915 189.696 24.8207 189.313 25.2715C188.935 25.7182 188.438 26.0664 187.822 26.3159C187.207 26.5614 186.494 26.6841 185.685 26.6841Z" fill="#E29F00"/>
</g>
<rect x="1.07582" y="1.07979" width="196.858" height="37.8585" rx="6.92857" stroke="white" stroke-opacity="0.15" stroke-width="2.14286"/>
<defs>
<filter id="filter0_d_28_2730" x="2.40411" y="0.408082" width="39.202" height="39.202" filterUnits="userSpaceOnUse" color-interpolation-filters="sRGB">
<feFlood flood-opacity="0" result="BackgroundImageFix"/>
<feColorMatrix in="SourceAlpha" type="matrix" values="0 0 0 0 0 0 0 0 0 0 0 0 0 0 0 0 0 0 127 0" result="hardAlpha"/>
<feOffset/>
<feGaussianBlur stdDeviation="2.80014"/>
<feComposite in2="hardAlpha" operator="out"/>
<feColorMatrix type="matrix" values="0 0 0 0 0 0 0 0 0 0 0 0 0 0 0 0 0 0 0.25 0"/>
<feBlend mode="normal" in2="BackgroundImageFix" result="effect1_dropShadow_28_2730"/>
<feBlend mode="normal" in="SourceGraphic" in2="effect1_dropShadow_28_2730" result="shape"/>
</filter>
<filter id="filter1_d_28_2730" x="38.2916" y="3.79478" width="158.429" height="32.4286" filterUnits="userSpaceOnUse" color-interpolation-filters="sRGB">
<feFlood flood-opacity="0" result="BackgroundImageFix"/>
<feColorMatrix in="SourceAlpha" type="matrix" values="0 0 0 0 0 0 0 0 0 0 0 0 0 0 0 0 0 0 127 0" result="hardAlpha"/>
<feOffset/>
<feGaussianBlur stdDeviation="2.85714"/>
<feComposite in2="hardAlpha" operator="out"/>
<feColorMatrix type="matrix" values="0 0 0 0 0 0 0 0 0 0 0 0 0 0 0 0 0 0 0.25 0"/>
<feBlend mode="normal" in2="BackgroundImageFix" result="effect1_dropShadow_28_2730"/>
<feBlend mode="normal" in="SourceGraphic" in2="effect1_dropShadow_28_2730" result="shape"/>
</filter>
<linearGradient id="paint0_linear_28_2730" x1="99.5051" y1="0.00836181" x2="99.5051" y2="38.0098" gradientUnits="userSpaceOnUse">
<stop stop-color="#361212"/>
<stop offset="1" stop-color="#240C0C"/>
</linearGradient>
</defs>
</svg>
