<svg width="277" height="41" viewBox="0 0 277 41" fill="none" xmlns="http://www.w3.org/2000/svg">
<g clip-path="url(#clip0_28_2681)">
<rect x="0.00439453" y="0.00139618" width="276.001" height="40.0014" rx="8" fill="url(#paint0_linear_28_2681)"/>
<g filter="url(#filter0_d_28_2681)">
<path d="M15.79 9.87709C15.7901 10.0083 15.8423 10.1341 15.935 10.2268C16.0278 10.3196 16.1536 10.3718 16.2848 10.3719H17.1262V12.2527H16.2848C16.1536 12.2527 16.0277 12.3048 15.9349 12.3976C15.8421 12.4904 15.79 12.6163 15.79 12.7475C15.79 12.8788 15.8421 13.0046 15.9349 13.0974C16.0277 13.1902 16.1536 13.2423 16.2848 13.2423H17.1262V14.6847C17.1262 14.801 17.08 14.9125 16.9978 14.9947C16.9156 15.077 16.8041 15.1231 16.6878 15.1231H15.2454V14.2817C15.2454 14.1505 15.1933 14.0246 15.1005 13.9318C15.0077 13.839 14.8819 13.7869 14.7506 13.7869C14.6194 13.7869 14.4935 13.839 14.4007 13.9318C14.3079 14.0246 14.2558 14.1505 14.2558 14.2817V15.1231H12.375V14.2817C12.375 14.1505 12.3229 14.0246 12.2301 13.9318C12.1373 13.839 12.0115 13.7869 11.8802 13.7869C11.749 13.7869 11.6231 13.839 11.5303 13.9318C11.4375 14.0246 11.3854 14.1505 11.3854 14.2817V15.1231H9.94304C9.82681 15.123 9.71537 15.0768 9.63318 14.9946C9.55099 14.9124 9.50477 14.801 9.50464 14.6847V7.93989C9.50464 7.82361 9.55083 7.7121 9.63304 7.62989C9.71526 7.54767 9.82677 7.50148 9.94304 7.50148H16.6878C16.7454 7.50142 16.8024 7.51271 16.8557 7.53472C16.9089 7.55673 16.9572 7.58902 16.998 7.62975C17.0387 7.67047 17.071 7.71882 17.093 7.77204C17.115 7.82526 17.1263 7.8823 17.1262 7.93989V9.3818H16.2848C16.1535 9.38192 16.0277 9.43416 15.9349 9.52703C15.8421 9.61991 15.79 9.74582 15.79 9.87709Z" fill="#9722FF"/>
<path d="M24.4004 9.87709C24.4004 10.0083 24.4525 10.1342 24.5453 10.227C24.6381 10.3198 24.7639 10.3719 24.8952 10.3719H25.739V12.2527H24.8976C24.7663 12.2527 24.6405 12.3048 24.5477 12.3976C24.4549 12.4904 24.4028 12.6163 24.4028 12.7475C24.4028 12.8788 24.4549 13.0046 24.5477 13.0974C24.6405 13.1902 24.7663 13.2423 24.8976 13.2423H25.739V14.6847C25.7389 14.801 25.6926 14.9124 25.6104 14.9946C25.5283 15.0768 25.4168 15.123 25.3006 15.1231H18.5549C18.4386 15.1231 18.3271 15.077 18.2449 14.9947C18.1626 14.9125 18.1165 14.801 18.1165 14.6847V13.2423H18.9574C19.0886 13.2423 19.2145 13.1902 19.3073 13.0974C19.4001 13.0046 19.4522 12.8788 19.4522 12.7475C19.4522 12.6163 19.4001 12.4904 19.3073 12.3976C19.2145 12.3048 19.0886 12.2527 18.9574 12.2527H18.1165V10.3719H18.9574C19.0237 10.374 19.0898 10.3627 19.1516 10.3387C19.2135 10.3148 19.2699 10.2787 19.3175 10.2325C19.3652 10.1863 19.403 10.131 19.4289 10.0699C19.4548 10.0089 19.4681 9.94319 19.4681 9.87685C19.4681 9.81052 19.4548 9.74485 19.4289 9.68376C19.403 9.62267 19.3652 9.5674 19.3175 9.52123C19.2699 9.47505 19.2135 9.43892 19.1516 9.41497C19.0898 9.39102 19.0237 9.37974 18.9574 9.3818H18.1165V7.93989C18.1164 7.8823 18.1277 7.82526 18.1497 7.77204C18.1717 7.71882 18.204 7.67047 18.2447 7.62975C18.2854 7.58902 18.3338 7.55673 18.387 7.53472C18.4402 7.51271 18.4973 7.50142 18.5549 7.50148H25.2996C25.4159 7.50148 25.5274 7.54767 25.6096 7.62989C25.6918 7.7121 25.738 7.82361 25.738 7.93989V9.3818H24.8966C24.8315 9.38161 24.7669 9.39428 24.7067 9.41909C24.6465 9.44391 24.5917 9.48037 24.5456 9.52639C24.4995 9.5724 24.463 9.62707 24.438 9.68726C24.4131 9.74744 24.4003 9.81195 24.4004 9.87709Z" fill="#DC29DD"/>
<path d="M34.3496 7.93986V14.6847C34.3496 14.801 34.3034 14.9125 34.2212 14.9947C34.139 15.0769 34.0275 15.1231 33.9112 15.1231H32.4688V14.2817C32.4688 14.1505 32.4167 14.0246 32.3239 13.9318C32.2311 13.839 32.1053 13.7869 31.974 13.7869C31.8428 13.7869 31.7169 13.839 31.6241 13.9318C31.5313 14.0246 31.4792 14.1505 31.4792 14.2817V15.1231H29.5984V14.2817C29.5984 14.1505 29.5463 14.0246 29.4535 13.9318C29.3607 13.839 29.2348 13.7869 29.1036 13.7869C28.9724 13.7869 28.8465 13.839 28.7537 13.9318C28.6609 14.0246 28.6088 14.1505 28.6088 14.2817V15.1231H27.1664C27.0502 15.123 26.9388 15.0768 26.8566 14.9946C26.7744 14.9124 26.7282 14.8009 26.728 14.6847V13.2423H27.5695C27.7007 13.2423 27.8265 13.1902 27.9193 13.0974C28.0121 13.0046 28.0643 12.8787 28.0643 12.7475C28.0643 12.6163 28.0121 12.4904 27.9193 12.3976C27.8265 12.3048 27.7007 12.2527 27.5695 12.2527H26.728V10.3719H27.5695C27.6981 10.3679 27.8201 10.314 27.9097 10.2216C27.9993 10.1292 28.0494 10.0055 28.0494 9.87683C28.0494 9.74813 27.9993 9.62449 27.9097 9.53209C27.8201 9.43968 27.6981 9.38577 27.5695 9.38177H26.728V7.93986C26.728 7.82359 26.7742 7.71208 26.8564 7.62986C26.9386 7.54765 27.0502 7.50146 27.1664 7.50146H33.9112C33.9688 7.50139 34.0258 7.51269 34.079 7.5347C34.1323 7.55671 34.1806 7.589 34.2213 7.62972C34.2621 7.67045 34.2944 7.7188 34.3164 7.77202C34.3384 7.82524 34.3497 7.88227 34.3496 7.93986Z" fill="#27A2FD"/>
<path d="M17.1265 16.5512V23.296C17.1265 23.3536 17.1152 23.4107 17.0932 23.4639C17.0712 23.5171 17.0389 23.5654 16.9982 23.6062C16.9575 23.6469 16.9091 23.6792 16.8559 23.7012C16.8027 23.7232 16.7457 23.7345 16.6881 23.7344H15.2457V22.893C15.2457 22.7618 15.1936 22.6359 15.1008 22.5431C15.008 22.4503 14.8821 22.3982 14.7509 22.3982C14.6196 22.3982 14.4938 22.4503 14.401 22.5431C14.3082 22.6359 14.2561 22.7618 14.2561 22.893V23.7354H12.3753V22.894C12.3753 22.7627 12.3232 22.6369 12.2304 22.5441C12.1376 22.4513 12.0117 22.3991 11.8805 22.3991C11.7492 22.3991 11.6234 22.4513 11.5306 22.5441C11.4378 22.6369 11.3857 22.7627 11.3857 22.894V23.7354H9.94328C9.82701 23.7354 9.7155 23.6892 9.63329 23.607C9.55107 23.5248 9.50488 23.4133 9.50488 23.297V16.5512C9.50501 16.435 9.55124 16.3235 9.63343 16.2413C9.71562 16.1591 9.82705 16.1129 9.94328 16.1128H11.3857V16.9542C11.3857 17.0854 11.4378 17.2113 11.5306 17.3041C11.6234 17.3969 11.7492 17.449 11.8805 17.449C12.0117 17.449 12.1376 17.3969 12.2304 17.3041C12.3232 17.2113 12.3753 17.0854 12.3753 16.9542V16.1128H14.2561V16.9542C14.2561 17.0854 14.3082 17.2113 14.401 17.3041C14.4938 17.3969 14.6196 17.449 14.7509 17.449C14.8821 17.449 15.008 17.3969 15.1008 17.3041C15.1936 17.2113 15.2457 17.0854 15.2457 16.9542V16.1128H16.6881C16.7456 16.1128 16.8026 16.1241 16.8558 16.1461C16.909 16.1682 16.9574 16.2005 16.9981 16.2412C17.0388 16.2819 17.0711 16.3302 17.0931 16.3834C17.1151 16.4366 17.1265 16.4936 17.1265 16.5512Z" fill="#DC29DD"/>
<path d="M24.4004 18.4884C24.4004 18.6196 24.4525 18.7455 24.5453 18.8383C24.6381 18.9311 24.7639 18.9832 24.8952 18.9832H25.739V20.864H24.8976C24.7663 20.864 24.6405 20.9161 24.5477 21.0089C24.4549 21.1017 24.4028 21.2276 24.4028 21.3588C24.4028 21.4901 24.4549 21.6159 24.5477 21.7087C24.6405 21.8015 24.7663 21.8536 24.8976 21.8536H25.739V23.296C25.739 23.4123 25.6928 23.5238 25.6106 23.606C25.5284 23.6882 25.4169 23.7344 25.3006 23.7344H23.8573V22.893C23.8573 22.7618 23.8051 22.6359 23.7123 22.5431C23.6195 22.4503 23.4937 22.3982 23.3624 22.3982C23.2312 22.3982 23.1054 22.4503 23.0126 22.5431C22.9198 22.6359 22.8676 22.7618 22.8676 22.893V23.7354H20.9869V22.894C20.9829 22.7653 20.929 22.6433 20.8365 22.5537C20.7441 22.4641 20.6205 22.414 20.4918 22.414C20.3631 22.414 20.2395 22.4641 20.1471 22.5537C20.0547 22.6433 20.0007 22.7653 19.9968 22.894V23.7354H18.5549C18.4973 23.7355 18.4402 23.7242 18.387 23.7021C18.3338 23.6801 18.2854 23.6478 18.2447 23.6071C18.204 23.5664 18.1717 23.5181 18.1497 23.4648C18.1277 23.4116 18.1164 23.3546 18.1165 23.297V16.5512C18.1165 16.4349 18.1626 16.3234 18.2449 16.2412C18.3271 16.159 18.4386 16.1128 18.5549 16.1128H25.2996C25.4159 16.1129 25.5273 16.1591 25.6095 16.2413C25.6917 16.3235 25.7379 16.435 25.738 16.5512V17.9936H24.8966C24.8315 17.9934 24.767 18.006 24.7068 18.0308C24.6466 18.0556 24.5919 18.092 24.5458 18.138C24.4997 18.184 24.4631 18.2386 24.4382 18.2987C24.4132 18.3588 24.4004 18.4233 24.4004 18.4884Z" fill="#27A2FD"/>
<path d="M34.3496 16.5512V23.296C34.3497 23.3536 34.3384 23.4106 34.3164 23.4639C34.2944 23.5171 34.2621 23.5654 34.2213 23.6062C34.1806 23.6469 34.1323 23.6792 34.079 23.7012C34.0258 23.7232 33.9688 23.7345 33.9112 23.7344H27.1664C27.0502 23.7344 26.9386 23.6882 26.8564 23.606C26.7742 23.5238 26.728 23.4123 26.728 23.296V21.8536H27.5695C27.7007 21.8536 27.8265 21.8015 27.9193 21.7087C28.0121 21.6159 28.0643 21.49 28.0643 21.3588C28.0643 21.2276 28.0121 21.1017 27.9193 21.0089C27.8265 20.9161 27.7007 20.864 27.5695 20.864H26.728V18.9832H27.5695C27.7007 18.9832 27.8265 18.9311 27.9193 18.8383C28.0121 18.7455 28.0643 18.6196 28.0643 18.4884C28.0643 18.3571 28.0121 18.2313 27.9193 18.1385C27.8265 18.0457 27.7007 17.9936 27.5695 17.9936H26.728V16.5512C26.7282 16.4349 26.7744 16.3235 26.8566 16.2413C26.9388 16.1591 27.0502 16.1129 27.1664 16.1128H28.6078V16.9542C28.6078 17.0854 28.66 17.2113 28.7528 17.3041C28.8456 17.3969 28.9714 17.449 29.1027 17.449C29.2339 17.449 29.3598 17.3969 29.4525 17.3041C29.5453 17.2113 29.5975 17.0854 29.5975 16.9542V16.1128H31.4782V16.9542C31.4782 17.0854 31.5304 17.2113 31.6232 17.3041C31.716 17.3969 31.8418 17.449 31.9731 17.449C32.1043 17.449 32.2302 17.3969 32.323 17.3041C32.4157 17.2113 32.4679 17.0854 32.4679 16.9542V16.1128H33.9102C33.9679 16.1126 34.025 16.1239 34.0783 16.1459C34.1316 16.1678 34.1801 16.2001 34.2209 16.2408C34.2617 16.2816 34.2941 16.3299 34.3161 16.3832C34.3382 16.4364 34.3496 16.4935 34.3496 16.5512Z" fill="#3344FF"/>
<path d="M15.7902 27.1002C15.7904 27.2314 15.8425 27.3572 15.9353 27.4499C16.0281 27.5427 16.1538 27.5949 16.285 27.595H17.1265V29.4753H16.285C16.1564 29.4793 16.0344 29.5332 15.9448 29.6256C15.8552 29.718 15.8051 29.8417 15.8051 29.9704C15.8051 30.0991 15.8552 30.2227 15.9448 30.3151C16.0344 30.4075 16.1564 30.4614 16.285 30.4654H17.1265V31.9078C17.1265 32.0241 17.0803 32.1356 16.9981 32.2178C16.9158 32.3 16.8043 32.3462 16.6881 32.3462H9.94328C9.82705 32.3461 9.71562 32.2999 9.63343 32.2177C9.55124 32.1355 9.50501 32.024 9.50488 31.9078V25.163C9.50488 25.0467 9.55107 24.9352 9.63329 24.853C9.7155 24.7707 9.82701 24.7246 9.94328 24.7246H11.3857V25.5655C11.3857 25.6967 11.4378 25.8226 11.5306 25.9154C11.6234 26.0082 11.7492 26.0603 11.8805 26.0603C12.0117 26.0603 12.1376 26.0082 12.2304 25.9154C12.3232 25.8226 12.3753 25.6967 12.3753 25.5655V24.7246H14.2561V25.5655C14.2561 25.6967 14.3082 25.8226 14.401 25.9154C14.4938 26.0082 14.6196 26.0603 14.7509 26.0603C14.8821 26.0603 15.008 26.0082 15.1008 25.9154C15.1936 25.8226 15.2457 25.6967 15.2457 25.5655V24.7246H16.6881C16.7457 24.7245 16.8027 24.7358 16.8559 24.7578C16.9091 24.7798 16.9575 24.8121 16.9982 24.8528C17.0389 24.8935 17.0712 24.9419 17.0932 24.9951C17.1152 25.0483 17.1265 25.1054 17.1265 25.163V26.6039H16.285C16.22 26.604 16.1555 26.6169 16.0954 26.6418C16.0353 26.6668 15.9807 26.7034 15.9348 26.7495C15.8888 26.7956 15.8524 26.8503 15.8276 26.9104C15.8028 26.9706 15.7901 27.0351 15.7902 27.1002Z" fill="#9722FF"/>
<path d="M25.739 25.163V31.9078C25.7389 32.024 25.6926 32.1355 25.6104 32.2177C25.5283 32.2999 25.4168 32.3461 25.3006 32.3462H18.5549C18.4386 32.3462 18.3271 32.3 18.2449 32.2178C18.1626 32.1356 18.1165 32.0241 18.1165 31.9078V30.4654H18.9574C19.0237 30.4675 19.0898 30.4562 19.1516 30.4323C19.2135 30.4083 19.2699 30.3722 19.3175 30.326C19.3652 30.2798 19.403 30.2245 19.4289 30.1635C19.4548 30.1024 19.4681 30.0367 19.4681 29.9704C19.4681 29.904 19.4548 29.8384 19.4289 29.7773C19.403 29.7162 19.3652 29.6609 19.3175 29.6147C19.2699 29.5686 19.2135 29.5324 19.1516 29.5085C19.0898 29.4845 19.0237 29.4732 18.9574 29.4753H18.1165V27.595H18.9574C19.0237 27.5971 19.0898 27.5858 19.1516 27.5618C19.2135 27.5379 19.2699 27.5017 19.3175 27.4556C19.3652 27.4094 19.403 27.3541 19.4289 27.293C19.4548 27.2319 19.4681 27.1663 19.4681 27.0999C19.4681 27.0336 19.4548 26.9679 19.4289 26.9068C19.403 26.8458 19.3652 26.7905 19.3175 26.7443C19.2699 26.6981 19.2135 26.662 19.1516 26.638C19.0898 26.6141 19.0237 26.6028 18.9574 26.6049H18.1165V25.163C18.1164 25.1054 18.1277 25.0483 18.1497 24.9951C18.1717 24.9419 18.204 24.8935 18.2447 24.8528C18.2854 24.8121 18.3338 24.7798 18.387 24.7578C18.4402 24.7358 18.4973 24.7245 18.5549 24.7246H19.9968V25.5655C19.9947 25.6318 20.006 25.6979 20.0299 25.7597C20.0539 25.8216 20.09 25.878 20.1362 25.9256C20.1824 25.9733 20.2376 26.0111 20.2987 26.037C20.3598 26.0629 20.4255 26.0762 20.4918 26.0762C20.5581 26.0762 20.6238 26.0629 20.6849 26.037C20.746 26.0111 20.8013 25.9733 20.8474 25.9256C20.8936 25.878 20.9297 25.8216 20.9537 25.7597C20.9776 25.6979 20.9889 25.6318 20.9869 25.5655V24.7246H22.8676V25.5655C22.8676 25.6305 22.8804 25.6948 22.9053 25.7549C22.9302 25.8149 22.9666 25.8695 23.0126 25.9154C23.0585 25.9614 23.1131 25.9978 23.1731 26.0227C23.2331 26.0475 23.2975 26.0603 23.3624 26.0603C23.4274 26.0603 23.4918 26.0475 23.5518 26.0227C23.6118 25.9978 23.6664 25.9614 23.7123 25.9154C23.7583 25.8695 23.7947 25.8149 23.8196 25.7549C23.8445 25.6948 23.8573 25.6305 23.8573 25.5655V24.7246H25.2996C25.3573 24.7244 25.4144 24.7357 25.4677 24.7577C25.521 24.7796 25.5694 24.8119 25.6103 24.8526C25.6511 24.8933 25.6834 24.9417 25.7055 24.995C25.7276 25.0482 25.739 25.1053 25.739 25.163Z" fill="#3344FF"/>
<path d="M31.8073 25.0342L27.038 29.8035C26.8668 29.9747 26.8668 30.2523 27.038 30.4235L31.8073 35.1929C31.9785 35.3641 32.2561 35.3641 32.4273 35.1929L37.1966 30.4235C37.3678 30.2523 37.3678 29.9747 37.1966 29.8035L32.4273 25.0342C32.2561 24.863 31.9785 24.863 31.8073 25.0342Z" fill="#9722FF"/>
</g>
<g filter="url(#filter1_d_28_2681)">
<path d="M43.3642 26.5021V14.1385H47.7711C48.729 14.1385 49.5238 14.3035 50.1557 14.6335C50.7916 14.9635 51.2665 15.4203 51.5804 16.0039C51.8944 16.5834 52.0513 17.2535 52.0513 18.0142C52.0513 18.7708 51.8923 19.4369 51.5744 20.0124C51.2605 20.5839 50.7856 21.0286 50.1497 21.3466C49.5178 21.6645 48.723 21.8235 47.7651 21.8235H44.4267V20.2176H47.5961C48.1997 20.2176 48.6908 20.1311 49.0691 19.9581C49.4514 19.785 49.7311 19.5335 49.9082 19.2034C50.0853 18.8734 50.1738 18.477 50.1738 18.0142C50.1738 17.5473 50.0833 17.1428 49.9022 16.8007C49.7251 16.4587 49.4454 16.1971 49.063 16.0159C48.6847 15.8308 48.1877 15.7382 47.5719 15.7382H45.2296V26.5021H43.3642ZM49.4675 20.924L52.5222 26.5021H50.3972L47.4029 20.924H49.4675ZM58.0565 26.6892C57.143 26.6892 56.3561 26.494 55.6961 26.1037C55.0401 25.7092 54.533 25.1559 54.1748 24.4435C53.8206 23.7271 53.6436 22.888 53.6436 21.9261C53.6436 20.9763 53.8206 20.1392 54.1748 19.4147C54.533 18.6903 55.032 18.1248 55.672 17.7184C56.3159 17.3119 57.0685 17.1086 57.9298 17.1086C58.453 17.1086 58.9601 17.1952 59.4511 17.3682C59.9421 17.5413 60.3828 17.8129 60.7732 18.1832C61.1636 18.5535 61.4714 19.0344 61.6968 19.626C61.9222 20.2136 62.0349 20.928 62.0349 21.7691V22.4091H54.6638V21.0568H60.2661C60.2661 20.5819 60.1695 20.1613 59.9763 19.7951C59.7831 19.4248 59.5114 19.133 59.1613 18.9197C58.8152 18.7064 58.4087 18.5998 57.9418 18.5998C57.4347 18.5998 56.992 18.7245 56.6137 18.974C56.2394 19.2195 55.9497 19.5415 55.7444 19.9399C55.5432 20.3344 55.4426 20.763 55.4426 21.2258V22.2823C55.4426 22.9021 55.5512 23.4293 55.7686 23.864C55.9899 24.2986 56.2978 24.6306 56.6922 24.86C57.0866 25.0854 57.5474 25.1981 58.0747 25.1981C58.4168 25.1981 58.7287 25.1498 59.0104 25.0532C59.2921 24.9526 59.5356 24.8037 59.7409 24.6065C59.9461 24.4093 60.1031 24.1658 60.2117 23.876L61.9202 24.1839C61.7833 24.687 61.5378 25.1277 61.1837 25.506C60.8335 25.8803 60.3928 26.1721 59.8616 26.3814C59.3344 26.5866 58.7327 26.6892 58.0565 26.6892ZM70.2979 29.9794V25.0593H70.1893C70.0806 25.2565 69.9236 25.4819 69.7184 25.7354C69.5172 25.989 69.2395 26.2103 68.8853 26.3995C68.5311 26.5886 68.0723 26.6832 67.5089 26.6832C66.7603 26.6832 66.0922 26.492 65.5046 26.1097C64.921 25.7233 64.4622 25.174 64.1282 24.4616C63.7982 23.7452 63.6332 22.886 63.6332 21.8838C63.6332 20.8817 63.8002 20.0245 64.1342 19.3121C64.4723 18.5998 64.9351 18.0544 65.5227 17.6761C66.1103 17.2978 66.7764 17.1086 67.5209 17.1086C68.0965 17.1086 68.5593 17.2052 68.9094 17.3984C69.2636 17.5876 69.5373 17.8089 69.7305 18.0625C69.9277 18.316 70.0806 18.5394 70.1893 18.7326H70.3402V17.2294H72.103V29.9794H70.2979ZM67.9073 25.1438C68.4265 25.1438 68.8652 25.0069 69.2234 24.7333C69.5856 24.4556 69.8592 24.0712 70.0444 23.5802C70.2335 23.0892 70.3281 22.5177 70.3281 21.8657C70.3281 21.2218 70.2356 20.6583 70.0504 20.1754C69.8653 19.6924 69.5936 19.3161 69.2354 19.0465C68.8772 18.7768 68.4345 18.642 67.9073 18.642C67.364 18.642 66.9112 18.7829 66.549 19.0646C66.1868 19.3463 65.9131 19.7307 65.728 20.2176C65.5469 20.7046 65.4563 21.254 65.4563 21.8657C65.4563 22.4855 65.5489 23.0429 65.734 23.538C65.9191 24.033 66.1928 24.4254 66.555 24.7152C66.9213 25.0009 67.372 25.1438 67.9073 25.1438ZM80.4038 22.6566V17.2294H82.2148V26.5021H80.44V24.8963H80.3434C80.1301 25.3913 79.788 25.8038 79.3171 26.1338C78.8502 26.4598 78.2687 26.6228 77.5724 26.6228C76.9768 26.6228 76.4496 26.492 75.9908 26.2304C75.536 25.9648 75.1778 25.5724 74.9162 25.0532C74.6586 24.5341 74.5298 23.8921 74.5298 23.1274V17.2294H76.3349V22.9101C76.3349 23.542 76.5099 24.0451 76.8601 24.4194C77.2102 24.7936 77.665 24.9808 78.2244 24.9808C78.5625 24.9808 78.8985 24.8963 79.2326 24.7272C79.5707 24.5582 79.8504 24.3026 80.0717 23.9605C80.2971 23.6185 80.4078 23.1838 80.4038 22.6566ZM84.6402 26.5021V17.2294H86.4452V26.5021H84.6402ZM85.5517 15.7986C85.2378 15.7986 84.9682 15.694 84.7428 15.4847C84.5214 15.2714 84.4108 15.0178 84.4108 14.724C84.4108 14.4262 84.5214 14.1727 84.7428 13.9634C84.9682 13.7501 85.2378 13.6434 85.5517 13.6434C85.8657 13.6434 86.1333 13.7501 86.3547 13.9634C86.58 14.1727 86.6927 14.4262 86.6927 14.724C86.6927 15.0178 86.58 15.2714 86.3547 15.4847C86.1333 15.694 85.8657 15.7986 85.5517 15.7986ZM88.8736 26.5021V17.2294H90.6182V18.7024H90.7148C90.8839 18.2033 91.1817 17.8109 91.6083 17.5252C92.0389 17.2354 92.5259 17.0905 93.0692 17.0905C93.1819 17.0905 93.3147 17.0945 93.4677 17.1026C93.6246 17.1106 93.7474 17.1207 93.8359 17.1328V18.8593C93.7635 18.8392 93.6347 18.8171 93.4496 18.7929C93.2644 18.7648 93.0793 18.7507 92.8942 18.7507C92.4676 18.7507 92.0872 18.8412 91.7532 19.0223C91.4232 19.1994 91.1616 19.4469 90.9684 19.7649C90.7752 20.0788 90.6786 20.437 90.6786 20.8395V26.5021H88.8736ZM99.0624 26.6892C98.1488 26.6892 97.362 26.494 96.702 26.1037C96.0459 25.7092 95.5388 25.1559 95.1806 24.4435C94.8265 23.7271 94.6494 22.888 94.6494 21.9261C94.6494 20.9763 94.8265 20.1392 95.1806 19.4147C95.5388 18.6903 96.0379 18.1248 96.6778 17.7184C97.3217 17.3119 98.0744 17.1086 98.9356 17.1086C99.4588 17.1086 99.9659 17.1952 100.457 17.3682C100.948 17.5413 101.389 17.8129 101.779 18.1832C102.169 18.5535 102.477 19.0344 102.703 19.626C102.928 20.2136 103.041 20.928 103.041 21.7691V22.4091H95.6696V21.0568H101.272C101.272 20.5819 101.175 20.1613 100.982 19.7951C100.789 19.4248 100.517 19.133 100.167 18.9197C99.821 18.7064 99.4145 18.5998 98.9477 18.5998C98.4406 18.5998 97.9979 18.7245 97.6196 18.974C97.2453 19.2195 96.9555 19.5415 96.7503 19.9399C96.549 20.3344 96.4484 20.763 96.4484 21.2258V22.2823C96.4484 22.9021 96.5571 23.4293 96.7744 23.864C96.9958 24.2986 97.3036 24.6306 97.698 24.86C98.0925 25.0854 98.5533 25.1981 99.0805 25.1981C99.4226 25.1981 99.7345 25.1498 100.016 25.0532C100.298 24.9526 100.541 24.8037 100.747 24.6065C100.952 24.4093 101.109 24.1658 101.218 23.876L102.926 24.1839C102.789 24.687 102.544 25.1277 102.19 25.506C101.839 25.8803 101.399 26.1721 100.867 26.3814C100.34 26.5866 99.7385 26.6892 99.0624 26.6892ZM111.992 19.4932L110.356 19.783C110.288 19.5737 110.179 19.3745 110.03 19.1853C109.885 18.9962 109.688 18.8412 109.438 18.7205C109.189 18.5998 108.877 18.5394 108.503 18.5394C107.992 18.5394 107.565 18.6541 107.223 18.8835C106.881 19.1089 106.71 19.4007 106.71 19.7588C106.71 20.0687 106.824 20.3183 107.054 20.5074C107.283 20.6966 107.653 20.8515 108.165 20.9723L109.638 21.3103C110.491 21.5075 111.127 21.8114 111.545 22.2219C111.964 22.6324 112.173 23.1657 112.173 23.8217C112.173 24.3771 112.012 24.8721 111.69 25.3068C111.372 25.7374 110.927 26.0755 110.356 26.321C109.789 26.5665 109.13 26.6892 108.382 26.6892C107.344 26.6892 106.496 26.4679 105.84 26.0252C105.184 25.5784 104.782 24.9446 104.633 24.1235L106.378 23.8579C106.486 24.3127 106.71 24.6568 107.048 24.8902C107.386 25.1196 107.827 25.2343 108.37 25.2343C108.961 25.2343 109.434 25.1116 109.789 24.8661C110.143 24.6166 110.32 24.3127 110.32 23.9545C110.32 23.6647 110.211 23.4212 109.994 23.224C109.78 23.0268 109.452 22.8779 109.01 22.7773L107.44 22.4332C106.575 22.236 105.935 21.9221 105.52 21.4914C105.11 21.0608 104.905 20.5155 104.905 19.8554C104.905 19.3081 105.058 18.8292 105.363 18.4186C105.669 18.0081 106.092 17.6882 106.631 17.4588C107.17 17.2253 107.788 17.1086 108.485 17.1086C109.487 17.1086 110.275 17.326 110.851 17.7606C111.427 18.1913 111.807 18.7688 111.992 19.4932Z" fill="#E8E8E8"/>
<path d="M122.668 22.0589H125.083L126.11 23.3689L127.456 24.9144L129.526 27.468H126.822L125.373 25.7354L124.516 24.5039L122.668 22.0589ZM129.611 20.3203C129.611 21.6806 129.349 22.8337 128.826 23.7794C128.303 24.7252 127.595 25.4436 126.701 25.9346C125.812 26.4256 124.814 26.6711 123.707 26.6711C122.596 26.6711 121.596 26.4236 120.706 25.9286C119.817 25.4336 119.111 24.7152 118.588 23.7734C118.068 22.8276 117.809 21.6766 117.809 20.3203C117.809 18.96 118.068 17.8069 118.588 16.8611C119.111 15.9153 119.817 15.1969 120.706 14.7059C121.596 14.2149 122.596 13.9694 123.707 13.9694C124.814 13.9694 125.812 14.2149 126.701 14.7059C127.595 15.1969 128.303 15.9153 128.826 16.8611C129.349 17.8069 129.611 18.96 129.611 20.3203ZM126.556 20.3203C126.556 19.5154 126.442 18.8352 126.212 18.2798C125.987 17.7244 125.661 17.3038 125.234 17.0181C124.812 16.7323 124.302 16.5895 123.707 16.5895C123.115 16.5895 122.606 16.7323 122.18 17.0181C121.753 17.3038 121.425 17.7244 121.195 18.2798C120.97 18.8352 120.857 19.5154 120.857 20.3203C120.857 21.1252 120.97 21.8054 121.195 22.3608C121.425 22.9162 121.753 23.3367 122.18 23.6225C122.606 23.9082 123.115 24.0511 123.707 24.0511C124.302 24.0511 124.812 23.9082 125.234 23.6225C125.661 23.3367 125.987 22.9162 126.212 22.3608C126.442 21.8054 126.556 21.1252 126.556 20.3203ZM137.355 22.4996V17.2294H140.301V26.5021H137.488V24.7755H137.391C137.186 25.343 136.836 25.7938 136.341 26.1278C135.85 26.4578 135.256 26.6228 134.56 26.6228C133.928 26.6228 133.372 26.4779 132.894 26.1882C132.415 25.8984 132.042 25.4939 131.777 24.9747C131.511 24.4515 131.376 23.8398 131.372 23.1395V17.2294H134.324V22.56C134.328 23.0631 134.461 23.4595 134.723 23.7493C134.984 24.039 135.341 24.1839 135.791 24.1839C136.085 24.1839 136.349 24.1195 136.582 23.9907C136.82 23.8579 137.007 23.6667 137.144 23.4172C137.284 23.1637 137.355 22.8578 137.355 22.4996ZM142.18 26.5021V17.2294H145.132V26.5021H142.18ZM143.659 16.1488C143.244 16.1488 142.888 16.0119 142.59 15.7382C142.293 15.4605 142.144 15.1265 142.144 14.7361C142.144 14.3498 142.293 14.0197 142.59 13.7461C142.888 13.4684 143.244 13.3295 143.659 13.3295C144.077 13.3295 144.434 13.4684 144.727 13.7461C145.025 14.0197 145.174 14.3498 145.174 14.7361C145.174 15.1265 145.025 15.4605 144.727 15.7382C144.434 16.0119 144.077 16.1488 143.659 16.1488ZM149.963 14.1385V26.5021H147.011V14.1385H149.963ZM157.076 17.2294V19.4027H151.226V17.2294H157.076ZM152.452 15.0078H155.404V23.5863C155.404 23.7674 155.432 23.9143 155.488 24.027C155.549 24.1356 155.635 24.2141 155.748 24.2624C155.861 24.3067 155.995 24.3288 156.152 24.3288C156.265 24.3288 156.384 24.3187 156.509 24.2986C156.637 24.2745 156.734 24.2543 156.798 24.2382L157.245 26.3693C157.104 26.4095 156.905 26.4598 156.647 26.5202C156.394 26.5806 156.09 26.6188 155.736 26.6349C155.044 26.6671 154.45 26.5866 153.955 26.3934C153.464 26.1962 153.088 25.8904 152.826 25.4758C152.568 25.0613 152.444 24.5401 152.452 23.9123V15.0078ZM162.817 26.6772C161.847 26.6772 161.01 26.486 160.306 26.1037C159.605 25.7173 159.066 25.1679 158.688 24.4556C158.314 23.7392 158.126 22.888 158.126 21.902C158.126 20.9441 158.316 20.107 158.694 19.3906C159.072 18.6702 159.605 18.1108 160.294 17.7123C160.982 17.3099 161.793 17.1086 162.727 17.1086C163.387 17.1086 163.99 17.2113 164.538 17.4165C165.085 17.6218 165.558 17.9256 165.956 18.3281C166.355 18.7306 166.665 19.2276 166.886 19.8192C167.107 20.4068 167.218 21.0809 167.218 21.8416V22.5781H159.159V20.8636H164.471C164.467 20.5497 164.393 20.27 164.248 20.0245C164.103 19.779 163.904 19.5878 163.65 19.451C163.401 19.3101 163.113 19.2397 162.787 19.2397C162.457 19.2397 162.161 19.3141 161.899 19.463C161.638 19.6079 161.431 19.8071 161.278 20.0607C161.125 20.3102 161.044 20.594 161.036 20.9119V22.6566C161.036 23.0349 161.111 23.3669 161.26 23.6527C161.408 23.9344 161.62 24.1537 161.893 24.3107C162.167 24.4676 162.493 24.5461 162.871 24.5461C163.133 24.5461 163.37 24.5099 163.584 24.4375C163.797 24.365 163.98 24.2584 164.133 24.1175C164.286 23.9766 164.401 23.8036 164.477 23.5983L167.188 23.6768C167.075 24.2845 166.828 24.8138 166.445 25.2645C166.067 25.7113 165.57 26.0594 164.954 26.3089C164.338 26.5544 163.626 26.6772 162.817 26.6772ZM172.112 26.6349C171.428 26.6349 170.806 26.4578 170.247 26.1037C169.688 25.7495 169.241 25.2182 168.907 24.5099C168.573 23.8016 168.406 22.9222 168.406 21.8718C168.406 20.7811 168.579 19.8836 168.925 19.1793C169.271 18.475 169.724 17.9538 170.283 17.6157C170.847 17.2777 171.452 17.1086 172.1 17.1086C172.587 17.1086 173.004 17.1931 173.35 17.3622C173.696 17.5272 173.982 17.7405 174.207 18.0021C174.433 18.2637 174.604 18.5354 174.72 18.8171H174.781V14.1385H177.733V26.5021H174.811V24.9989H174.72C174.596 25.2846 174.419 25.5523 174.189 25.8018C173.96 26.0513 173.672 26.2526 173.326 26.4055C172.984 26.5584 172.579 26.6349 172.112 26.6349ZM173.139 24.3348C173.497 24.3348 173.803 24.2342 174.056 24.033C174.31 23.8277 174.505 23.54 174.642 23.1697C174.779 22.7994 174.847 22.3648 174.847 21.8657C174.847 21.3586 174.779 20.922 174.642 20.5557C174.509 20.1895 174.314 19.9078 174.056 19.7105C173.803 19.5133 173.497 19.4147 173.139 19.4147C172.773 19.4147 172.463 19.5154 172.209 19.7166C171.956 19.9178 171.762 20.2016 171.63 20.5678C171.501 20.934 171.436 21.3667 171.436 21.8657C171.436 22.3648 171.503 22.7994 171.636 23.1697C171.768 23.54 171.96 23.8277 172.209 24.033C172.463 24.2342 172.773 24.3348 173.139 24.3348ZM183.252 26.5021V14.1385H191.692V16.5653H186.24V19.1008H191.154V21.5337H186.24V26.5021H183.252ZM195.661 26.6591C195.069 26.6591 194.544 26.5605 194.085 26.3632C193.631 26.162 193.27 25.8602 193.005 25.4577C192.743 25.0512 192.612 24.5421 192.612 23.9304C192.612 23.4152 192.703 22.9806 192.884 22.6264C193.065 22.2722 193.315 21.9845 193.633 21.7631C193.951 21.5417 194.317 21.3747 194.731 21.262C195.146 21.1453 195.589 21.0668 196.059 21.0266C196.587 20.9783 197.011 20.928 197.333 20.8757C197.655 20.8193 197.889 20.7408 198.034 20.6402C198.182 20.5356 198.257 20.3887 198.257 20.1995V20.1694C198.257 19.8595 198.15 19.62 197.937 19.451C197.724 19.2819 197.436 19.1974 197.074 19.1974C196.683 19.1974 196.369 19.2819 196.132 19.451C195.894 19.62 195.744 19.8534 195.679 20.1512L192.956 20.0547C193.037 19.4912 193.244 18.9881 193.578 18.5454C193.916 18.0987 194.379 17.7485 194.967 17.495C195.558 17.2374 196.269 17.1086 197.098 17.1086C197.689 17.1086 198.235 17.1791 198.734 17.3199C199.233 17.4568 199.668 17.658 200.038 17.9236C200.408 18.1852 200.694 18.5072 200.895 18.8895C201.1 19.2719 201.203 19.7085 201.203 20.1995V26.5021H198.426V25.2102H198.353C198.188 25.5241 197.977 25.7897 197.72 26.0071C197.466 26.2244 197.166 26.3874 196.82 26.4961C196.478 26.6047 196.092 26.6591 195.661 26.6591ZM196.573 24.7272C196.891 24.7272 197.176 24.6628 197.43 24.5341C197.687 24.4053 197.893 24.2282 198.046 24.0028C198.199 23.7734 198.275 23.5078 198.275 23.2059V22.3245C198.19 22.3688 198.088 22.4091 197.967 22.4453C197.85 22.4815 197.722 22.5157 197.581 22.5479C197.44 22.5801 197.295 22.6083 197.146 22.6324C196.997 22.6566 196.854 22.6787 196.717 22.6988C196.44 22.7431 196.202 22.8115 196.005 22.9041C195.812 22.9966 195.663 23.1174 195.558 23.2663C195.458 23.4112 195.407 23.5842 195.407 23.7855C195.407 24.0913 195.516 24.3248 195.733 24.4858C195.955 24.6467 196.235 24.7272 196.573 24.7272ZM203.008 26.5021V14.1385H205.96V18.8171H206.02C206.141 18.5354 206.312 18.2637 206.534 18.0021C206.759 17.7405 207.045 17.5272 207.391 17.3622C207.741 17.1931 208.159 17.1086 208.646 17.1086C209.29 17.1086 209.892 17.2777 210.451 17.6157C211.015 17.9538 211.47 18.475 211.816 19.1793C212.162 19.8836 212.335 20.7811 212.335 21.8718C212.335 22.9222 212.168 23.8016 211.834 24.5099C211.504 25.2182 211.057 25.7495 210.494 26.1037C209.934 26.4578 209.313 26.6349 208.628 26.6349C208.161 26.6349 207.757 26.5584 207.415 26.4055C207.073 26.2526 206.785 26.0513 206.552 25.8018C206.322 25.5523 206.145 25.2846 206.02 24.9989H205.93V26.5021H203.008ZM205.9 21.8657C205.9 22.3648 205.966 22.7994 206.099 23.1697C206.236 23.54 206.431 23.8277 206.684 24.033C206.942 24.2342 207.25 24.3348 207.608 24.3348C207.97 24.3348 208.278 24.2342 208.532 24.033C208.785 23.8277 208.976 23.54 209.105 23.1697C209.238 22.7994 209.304 22.3648 209.304 21.8657C209.304 21.3667 209.238 20.934 209.105 20.5678C208.976 20.2016 208.785 19.9178 208.532 19.7166C208.282 19.5154 207.974 19.4147 207.608 19.4147C207.246 19.4147 206.938 19.5133 206.684 19.7105C206.431 19.9078 206.236 20.1895 206.099 20.5557C205.966 20.922 205.9 21.3586 205.9 21.8657ZM213.882 26.5021V17.2294H216.75V18.9197H216.846C217.015 18.308 217.291 17.8532 217.673 17.5554C218.056 17.2535 218.5 17.1026 219.007 17.1026C219.144 17.1026 219.285 17.1127 219.43 17.1328C219.575 17.1489 219.71 17.175 219.834 17.2113V19.777C219.694 19.7287 219.508 19.6904 219.279 19.6623C219.054 19.6341 218.852 19.62 218.675 19.62C218.325 19.62 218.009 19.6985 217.728 19.8554C217.45 20.0084 217.23 20.2237 217.069 20.5014C216.913 20.7751 216.834 21.097 216.834 21.4673V26.5021H213.882ZM221.037 26.5021V17.2294H223.989V26.5021H221.037ZM222.516 16.1488C222.102 16.1488 221.746 16.0119 221.448 15.7382C221.15 15.4605 221.001 15.1265 221.001 14.7361C221.001 14.3498 221.15 14.0197 221.448 13.7461C221.746 13.4684 222.102 13.3295 222.516 13.3295C222.935 13.3295 223.291 13.4684 223.585 13.7461C223.883 14.0197 224.032 14.3498 224.032 14.7361C224.032 15.1265 223.883 15.4605 223.585 15.7382C223.291 16.0119 222.935 16.1488 222.516 16.1488ZM230.197 26.6772C229.219 26.6772 228.38 26.4759 227.679 26.0735C226.983 25.671 226.448 25.1116 226.074 24.3952C225.699 23.6748 225.512 22.8417 225.512 21.8959C225.512 20.9461 225.699 20.113 226.074 19.3966C226.452 18.6762 226.989 18.1148 227.685 17.7123C228.386 17.3099 229.221 17.1086 230.191 17.1086C231.048 17.1086 231.795 17.2636 232.43 17.5735C233.07 17.8834 233.569 18.3221 233.928 18.8895C234.29 19.453 234.481 20.115 234.501 20.8757H231.742C231.686 20.4008 231.525 20.0285 231.259 19.7588C230.998 19.4892 230.656 19.3544 230.233 19.3544C229.891 19.3544 229.591 19.451 229.334 19.6441C229.076 19.8333 228.875 20.115 228.73 20.4893C228.589 20.8596 228.519 21.3184 228.519 21.8657C228.519 22.4131 228.589 22.8759 228.73 23.2542C228.875 23.6285 229.076 23.9122 229.334 24.1054C229.591 24.2946 229.891 24.3892 230.233 24.3892C230.507 24.3892 230.748 24.3308 230.957 24.2141C231.171 24.0974 231.346 23.9263 231.483 23.701C231.619 23.4716 231.706 23.1939 231.742 22.8679H234.501C234.473 23.6325 234.282 24.3006 233.928 24.8721C233.577 25.4436 233.084 25.8883 232.449 26.2063C231.817 26.5202 231.066 26.6772 230.197 26.6772ZM242.339 26.5021H239.127L243.298 14.1385H247.277L251.448 26.5021H248.237L245.333 17.2535H245.236L242.339 26.5021ZM241.91 21.6363H248.623V23.9062H241.91V21.6363ZM252.779 26.5021V14.1385H257.887C258.812 14.1385 259.611 14.3196 260.283 14.6818C260.959 15.04 261.481 15.541 261.847 16.185C262.213 16.8249 262.396 17.5694 262.396 18.4186C262.396 19.2719 262.209 20.0184 261.835 20.6583C261.465 21.2942 260.935 21.7873 260.247 22.1374C259.559 22.4875 258.742 22.6626 257.796 22.6626H254.645V20.3082H257.241C257.691 20.3082 258.068 20.2297 258.37 20.0728C258.676 19.9158 258.907 19.6965 259.064 19.4147C259.221 19.129 259.299 18.797 259.299 18.4186C259.299 18.0363 259.221 17.7063 259.064 17.4286C258.907 17.1469 258.676 16.9295 258.37 16.7766C258.064 16.6237 257.687 16.5472 257.241 16.5472H255.768V26.5021H252.779ZM266.858 14.1385V26.5021H263.869V14.1385H266.858Z" fill="url(#paint1_linear_28_2681)"/>
</g>
</g>
<rect x="1.07582" y="1.07282" width="273.858" height="37.8585" rx="6.92857" stroke="white" stroke-opacity="0.15" stroke-width="2.14286"/>
<defs>
<filter id="filter0_d_28_2681" x="2.40411" y="0.401116" width="40.5211" height="40.5204" filterUnits="userSpaceOnUse" color-interpolation-filters="sRGB">
<feFlood flood-opacity="0" result="BackgroundImageFix"/>
<feColorMatrix in="SourceAlpha" type="matrix" values="0 0 0 0 0 0 0 0 0 0 0 0 0 0 0 0 0 0 127 0" result="hardAlpha"/>
<feOffset/>
<feGaussianBlur stdDeviation="2.80014"/>
<feComposite in2="hardAlpha" operator="out"/>
<feColorMatrix type="matrix" values="0 0 0 0 0 0 0 0 0 0 0 0 0 0 0 0 0 0 0.25 0"/>
<feBlend mode="normal" in2="BackgroundImageFix" result="effect1_dropShadow_28_2681"/>
<feBlend mode="normal" in="SourceGraphic" in2="effect1_dropShadow_28_2681" result="shape"/>
</filter>
<filter id="filter1_d_28_2681" x="36.2916" y="3.78781" width="237.429" height="32.4286" filterUnits="userSpaceOnUse" color-interpolation-filters="sRGB">
<feFlood flood-opacity="0" result="BackgroundImageFix"/>
<feColorMatrix in="SourceAlpha" type="matrix" values="0 0 0 0 0 0 0 0 0 0 0 0 0 0 0 0 0 0 127 0" result="hardAlpha"/>
<feOffset/>
<feGaussianBlur stdDeviation="2.85714"/>
<feComposite in2="hardAlpha" operator="out"/>
<feColorMatrix type="matrix" values="0 0 0 0 0 0 0 0 0 0 0 0 0 0 0 0 0 0 0.25 0"/>
<feBlend mode="normal" in2="BackgroundImageFix" result="effect1_dropShadow_28_2681"/>
<feBlend mode="normal" in="SourceGraphic" in2="effect1_dropShadow_28_2681" result="shape"/>
</filter>
<linearGradient id="paint0_linear_28_2681" x1="138.005" y1="0.00139618" x2="138.005" y2="40.0028" gradientUnits="userSpaceOnUse">
<stop stop-color="#2A0E2B"/>
<stop offset="1" stop-color="#0C1723"/>
</linearGradient>
<linearGradient id="paint1_linear_28_2681" x1="117.006" y1="9.50219" x2="268.006" y2="9.50221" gradientUnits="userSpaceOnUse">
<stop stop-color="#E17BE1"/>
<stop offset="1" stop-color="#98A1FF"/>
</linearGradient>
<clipPath id="clip0_28_2681">
<rect x="0.00439453" y="0.00139618" width="276.001" height="40.0014" rx="8" fill="white"/>
</clipPath>
</defs>
</svg>
