<svg width="228" height="28" viewBox="0 0 228 28" fill="none" xmlns="http://www.w3.org/2000/svg">
<g clip-path="url(#clip0_28_2696)">
<rect x="-0.000732422" y="-7.62939e-06" width="227.5" height="28" rx="6" fill="url(#paint0_linear_28_2696)"/>
<g filter="url(#filter0_d_28_2696)">
<path d="M11.5601 6.7682C11.5602 6.86191 11.5975 6.95175 11.6637 7.01801C11.73 7.08427 11.8198 7.12154 11.9135 7.12163H12.5145V8.46498H11.9135C11.8198 8.46498 11.7299 8.50222 11.6636 8.5685C11.5973 8.63478 11.5601 8.72467 11.5601 8.81841C11.5601 8.91214 11.5973 9.00204 11.6636 9.06832C11.7299 9.1346 11.8198 9.17183 11.9135 9.17183H12.5145V10.2021C12.5145 10.2851 12.4815 10.3648 12.4228 10.4235C12.3641 10.4822 12.2844 10.5152 12.2014 10.5152H11.1712V9.9142C11.1712 9.82046 11.1339 9.73057 11.0677 9.66429C11.0014 9.59801 10.9115 9.56077 10.8178 9.56077C10.724 9.56077 10.6341 9.59801 10.5678 9.66429C10.5016 9.73057 10.4643 9.82046 10.4643 9.9142V10.5152H9.12099V9.9142C9.12099 9.82046 9.08375 9.73057 9.01747 9.66429C8.95119 9.59801 8.8613 9.56077 8.76757 9.56077C8.67383 9.56077 8.58394 9.59801 8.51766 9.66429C8.45138 9.73057 8.41414 9.82046 8.41414 9.9142V10.5152H7.38393C7.30091 10.5151 7.22132 10.4821 7.16261 10.4234C7.10391 10.3647 7.07089 10.2851 7.0708 10.2021V5.38455C7.0708 5.3015 7.10379 5.22186 7.16251 5.16313C7.22124 5.10441 7.30088 5.07142 7.38393 5.07142H12.2014C12.2425 5.07137 12.2833 5.07944 12.3213 5.09516C12.3593 5.11088 12.3938 5.13395 12.4229 5.16303C12.452 5.19212 12.4751 5.22666 12.4908 5.26467C12.5065 5.30268 12.5146 5.34342 12.5145 5.38455V6.41443H11.9135C11.8198 6.41452 11.7299 6.45184 11.6636 6.51817C11.5973 6.5845 11.5601 6.67444 11.5601 6.7682Z" fill="#9722FF"/>
<path d="M17.71 6.7682C17.71 6.86194 17.7472 6.95183 17.8135 7.01811C17.8798 7.08439 17.9696 7.12163 18.0634 7.12163H18.6661V8.46498H18.0651C17.9714 8.46498 17.8815 8.50222 17.8152 8.5685C17.7489 8.63478 17.7117 8.72467 17.7117 8.81841C17.7117 8.91214 17.7489 9.00204 17.8152 9.06832C17.8815 9.1346 17.9714 9.17183 18.0651 9.17183H18.6661V10.2021C18.666 10.2851 18.633 10.3647 18.5743 10.4234C18.5156 10.4821 18.436 10.5151 18.3529 10.5152H13.5348C13.4518 10.5152 13.3721 10.4822 13.3134 10.4235C13.2547 10.3648 13.2217 10.2851 13.2217 10.2021V9.17183H13.8223C13.9161 9.17183 14.006 9.1346 14.0722 9.06832C14.1385 9.00204 14.1757 8.91214 14.1757 8.81841C14.1757 8.72467 14.1385 8.63478 14.0722 8.5685C14.006 8.50222 13.9161 8.46498 13.8223 8.46498H13.2217V7.12163H13.8223C13.8697 7.1231 13.9169 7.11504 13.961 7.09793C14.0052 7.08083 14.0455 7.05502 14.0795 7.02204C14.1136 6.98906 14.1406 6.94958 14.1591 6.90594C14.1776 6.86231 14.1871 6.81541 14.1871 6.76803C14.1871 6.72065 14.1776 6.67375 14.1591 6.63012C14.1406 6.58648 14.1136 6.547 14.0795 6.51402C14.0455 6.48104 14.0052 6.45523 13.961 6.43813C13.9169 6.42102 13.8697 6.41296 13.8223 6.41443H13.2217V5.38455C13.2216 5.34342 13.2297 5.30268 13.2454 5.26467C13.2611 5.22666 13.2842 5.19212 13.3133 5.16303C13.3424 5.13395 13.3769 5.11088 13.4149 5.09516C13.4529 5.07944 13.4937 5.07137 13.5348 5.07142H18.3523C18.4353 5.07142 18.515 5.10441 18.5737 5.16313C18.6324 5.22186 18.6654 5.3015 18.6654 5.38455V6.41443H18.0644C18.0179 6.4143 17.9718 6.42335 17.9288 6.44107C17.8857 6.4588 17.8466 6.48484 17.8137 6.51771C17.7808 6.55058 17.7547 6.58962 17.7369 6.63261C17.7191 6.67559 17.7099 6.72167 17.71 6.7682Z" fill="#DC29DD"/>
<path d="M24.816 5.38455V10.2021C24.816 10.2851 24.783 10.3648 24.7243 10.4235C24.6656 10.4822 24.5859 10.5152 24.5029 10.5152H23.4727V9.9142C23.4727 9.82046 23.4355 9.73057 23.3692 9.66429C23.3029 9.59801 23.213 9.56077 23.1193 9.56077C23.0255 9.56077 22.9356 9.59801 22.8694 9.66429C22.8031 9.73057 22.7658 9.82046 22.7658 9.9142V10.5152H21.4225V9.9142C21.4225 9.82046 21.3853 9.73057 21.319 9.66429C21.2527 9.59801 21.1628 9.56077 21.0691 9.56077C20.9753 9.56077 20.8855 9.59801 20.8192 9.66429C20.7529 9.73057 20.7157 9.82046 20.7157 9.9142V10.5152H19.6854C19.6024 10.5151 19.5228 10.4821 19.4641 10.4234C19.4054 10.3647 19.3724 10.2851 19.3723 10.2021V9.17183H19.9733C20.067 9.17183 20.1569 9.1346 20.2232 9.06832C20.2895 9.00204 20.3267 8.91214 20.3267 8.81841C20.3267 8.72467 20.2895 8.63478 20.2232 8.5685C20.1569 8.50222 20.067 8.46498 19.9733 8.46498H19.3723V7.12163H19.9733C20.0652 7.11877 20.1523 7.08026 20.2163 7.01426C20.2803 6.94826 20.3161 6.85995 20.3161 6.76803C20.3161 6.67611 20.2803 6.5878 20.2163 6.5218C20.1523 6.4558 20.0652 6.41729 19.9733 6.41443H19.3723V5.38455C19.3723 5.3015 19.4053 5.22186 19.464 5.16313C19.5228 5.10441 19.6024 5.07142 19.6854 5.07142H24.5029C24.544 5.07137 24.5848 5.07944 24.6228 5.09516C24.6608 5.11088 24.6953 5.13395 24.7244 5.16303C24.7535 5.19212 24.7766 5.22666 24.7923 5.26467C24.808 5.30268 24.8161 5.34342 24.816 5.38455Z" fill="#27A2FD"/>
<path d="M12.5145 11.5352V16.3527C12.5146 16.3938 12.5065 16.4345 12.4908 16.4726C12.4751 16.5106 12.452 16.5451 12.4229 16.5742C12.3938 16.6033 12.3593 16.6263 12.3213 16.6421C12.2833 16.6578 12.2425 16.6659 12.2014 16.6658H11.1712V16.0648C11.1712 15.9711 11.1339 15.8812 11.0677 15.8149C11.0014 15.7486 10.9115 15.7114 10.8178 15.7114C10.724 15.7114 10.6341 15.7486 10.5678 15.8149C10.5016 15.8812 10.4643 15.9711 10.4643 16.0648V16.6665H9.12099V16.0655C9.12099 15.9718 9.08375 15.8819 9.01747 15.8156C8.95119 15.7493 8.8613 15.7121 8.76757 15.7121C8.67383 15.7121 8.58394 15.7493 8.51766 15.8156C8.45138 15.8819 8.41414 15.9718 8.41414 16.0655V16.6665H7.38393C7.30088 16.6665 7.22124 16.6335 7.16251 16.5748C7.10379 16.5161 7.0708 16.4364 7.0708 16.3534V11.5352C7.07089 11.4522 7.10391 11.3726 7.16261 11.3139C7.22132 11.2551 7.30091 11.2221 7.38393 11.222H8.41414V11.823C8.41414 11.9168 8.45138 12.0067 8.51766 12.0729C8.58394 12.1392 8.67383 12.1765 8.76757 12.1765C8.8613 12.1765 8.95119 12.1392 9.01747 12.0729C9.08375 12.0067 9.12099 11.9168 9.12099 11.823V11.222H10.4643V11.823C10.4643 11.9168 10.5016 12.0067 10.5678 12.0729C10.6341 12.1392 10.724 12.1765 10.8178 12.1765C10.9115 12.1765 11.0014 12.1392 11.0677 12.0729C11.1339 12.0067 11.1712 11.9168 11.1712 11.823V11.222H12.2014C12.2425 11.222 12.2832 11.2301 12.3212 11.2459C12.3592 11.2616 12.3937 11.2847 12.4228 11.3138C12.4519 11.3428 12.4749 11.3773 12.4907 11.4153C12.5064 11.4533 12.5145 11.494 12.5145 11.5352Z" fill="#DC29DD"/>
<path d="M17.71 12.9188C17.71 13.0126 17.7472 13.1024 17.8135 13.1687C17.8798 13.235 17.9696 13.2722 18.0634 13.2722H18.6661V14.6156H18.0651C17.9714 14.6156 17.8815 14.6528 17.8152 14.7191C17.7489 14.7854 17.7117 14.8753 17.7117 14.969C17.7117 15.0628 17.7489 15.1527 17.8152 15.2189C17.8815 15.2852 17.9714 15.3225 18.0651 15.3225H18.6661V16.3527C18.6661 16.4357 18.6331 16.5154 18.5744 16.5741C18.5156 16.6328 18.436 16.6658 18.3529 16.6658H17.3221V16.0648C17.3221 15.9711 17.2848 15.8812 17.2185 15.8149C17.1523 15.7486 17.0624 15.7114 16.9686 15.7114C16.8749 15.7114 16.785 15.7486 16.7187 15.8149C16.6524 15.8812 16.6152 15.9711 16.6152 16.0648V16.6665H15.2719V16.0655C15.269 15.9736 15.2305 15.8865 15.1645 15.8225C15.0985 15.7585 15.0102 15.7227 14.9183 15.7227C14.8264 15.7227 14.738 15.7585 14.672 15.8225C14.606 15.8865 14.5675 15.9736 14.5647 16.0655V16.6665H13.5348C13.4937 16.6665 13.4529 16.6585 13.4149 16.6427C13.3769 16.627 13.3424 16.604 13.3133 16.5749C13.2842 16.5458 13.2611 16.5113 13.2454 16.4732C13.2297 16.4352 13.2216 16.3945 13.2217 16.3534V11.5352C13.2217 11.4521 13.2547 11.3725 13.3134 11.3138C13.3721 11.255 13.4518 11.222 13.5348 11.222H18.3523C18.4353 11.2221 18.5149 11.2551 18.5736 11.3139C18.6323 11.3726 18.6653 11.4522 18.6654 11.5352V12.5654H18.0644C18.0179 12.5653 17.9718 12.5743 17.9288 12.592C17.8858 12.6097 17.8468 12.6357 17.8138 12.6685C17.7809 12.7014 17.7548 12.7404 17.737 12.7833C17.7191 12.8263 17.71 12.8723 17.71 12.9188Z" fill="#27A2FD"/>
<path d="M24.816 11.5352V16.3527C24.8161 16.3938 24.808 16.4345 24.7923 16.4726C24.7766 16.5106 24.7535 16.5451 24.7244 16.5742C24.6953 16.6033 24.6608 16.6263 24.6228 16.6421C24.5848 16.6578 24.544 16.6659 24.5029 16.6658H19.6854C19.6024 16.6658 19.5228 16.6328 19.464 16.5741C19.4053 16.5154 19.3723 16.4357 19.3723 16.3527V15.3225H19.9733C20.067 15.3225 20.1569 15.2852 20.2232 15.2189C20.2895 15.1527 20.3267 15.0628 20.3267 14.969C20.3267 14.8753 20.2895 14.7854 20.2232 14.7191C20.1569 14.6528 20.067 14.6156 19.9733 14.6156H19.3723V13.2722H19.9733C20.067 13.2722 20.1569 13.235 20.2232 13.1687C20.2895 13.1024 20.3267 13.0126 20.3267 12.9188C20.3267 12.8251 20.2895 12.7352 20.2232 12.6689C20.1569 12.6026 20.067 12.5654 19.9733 12.5654H19.3723V11.5352C19.3724 11.4522 19.4054 11.3726 19.4641 11.3139C19.5228 11.2551 19.6024 11.2221 19.6854 11.222H20.715V11.823C20.715 11.9168 20.7522 12.0067 20.8185 12.0729C20.8848 12.1392 20.9747 12.1765 21.0684 12.1765C21.1621 12.1765 21.252 12.1392 21.3183 12.0729C21.3846 12.0067 21.4218 11.9168 21.4218 11.823V11.222H22.7652V11.823C22.7652 11.9168 22.8024 12.0067 22.8687 12.0729C22.935 12.1392 23.0248 12.1765 23.1186 12.1765C23.2123 12.1765 23.3022 12.1392 23.3685 12.0729C23.4348 12.0067 23.472 11.9168 23.472 11.823V11.222H24.5022C24.5434 11.2219 24.5842 11.23 24.6223 11.2457C24.6603 11.2614 24.6949 11.2844 24.7241 11.3135C24.7532 11.3426 24.7763 11.3771 24.7921 11.4152C24.8079 11.4532 24.816 11.494 24.816 11.5352Z" fill="#3344FF"/>
<path d="M11.5601 19.0698C11.5602 19.1635 11.5975 19.2533 11.6637 19.3196C11.73 19.3859 11.8198 19.4231 11.9135 19.4232H12.5145V20.7662H11.9135C11.8217 20.7691 11.7345 20.8076 11.6705 20.8736C11.6065 20.9396 11.5708 21.0279 11.5708 21.1198C11.5708 21.2117 11.6065 21.3001 11.6705 21.3661C11.7345 21.4321 11.8217 21.4706 11.9135 21.4734H12.5145V22.5036C12.5145 22.5867 12.4815 22.6663 12.4228 22.7251C12.3641 22.7838 12.2844 22.8168 12.2014 22.8168H7.38393C7.30091 22.8167 7.22132 22.7837 7.16261 22.725C7.10391 22.6663 7.07089 22.5867 7.0708 22.5036V17.6861C7.0708 17.6031 7.10379 17.5234 7.16251 17.4647C7.22124 17.406 7.30088 17.373 7.38393 17.373H8.41414V17.9737C8.41414 18.0674 8.45138 18.1573 8.51766 18.2236C8.58394 18.2898 8.67383 18.3271 8.76757 18.3271C8.8613 18.3271 8.95119 18.2898 9.01747 18.2236C9.08375 18.1573 9.12099 18.0674 9.12099 17.9737V17.373H10.4643V17.9737C10.4643 18.0674 10.5016 18.1573 10.5678 18.2236C10.6341 18.2898 10.724 18.3271 10.8178 18.3271C10.9115 18.3271 11.0014 18.2898 11.0677 18.2236C11.1339 18.1573 11.1712 18.0674 11.1712 17.9737V17.373H12.2014C12.2425 17.373 12.2833 17.381 12.3213 17.3967C12.3593 17.4125 12.3938 17.4355 12.4229 17.4646C12.452 17.4937 12.4751 17.5282 12.4908 17.5662C12.5065 17.6043 12.5146 17.645 12.5145 17.6861V18.7153H11.9135C11.867 18.7154 11.821 18.7246 11.7781 18.7424C11.7352 18.7603 11.6962 18.7864 11.6634 18.8193C11.6305 18.8522 11.6045 18.8913 11.5868 18.9343C11.5691 18.9772 11.56 19.0233 11.5601 19.0698Z" fill="#9722FF"/>
<path d="M18.6661 17.6861V22.5036C18.666 22.5867 18.633 22.6663 18.5743 22.725C18.5156 22.7837 18.436 22.8167 18.3529 22.8168H13.5348C13.4518 22.8168 13.3721 22.7838 13.3134 22.7251C13.2547 22.6663 13.2217 22.5867 13.2217 22.5036V21.4734H13.8223C13.8697 21.4749 13.9169 21.4668 13.961 21.4497C14.0052 21.4326 14.0455 21.4068 14.0795 21.3738C14.1136 21.3408 14.1406 21.3014 14.1591 21.2577C14.1776 21.2141 14.1871 21.1672 14.1871 21.1198C14.1871 21.0724 14.1776 21.0255 14.1591 20.9819C14.1406 20.9383 14.1136 20.8988 14.0795 20.8658C14.0455 20.8328 14.0052 20.807 13.961 20.7899C13.9169 20.7728 13.8697 20.7648 13.8223 20.7662H13.2217V19.4232H13.8223C13.8697 19.4247 13.9169 19.4166 13.961 19.3995C14.0052 19.3824 14.0455 19.3566 14.0795 19.3236C14.1136 19.2906 14.1406 19.2512 14.1591 19.2075C14.1776 19.1639 14.1871 19.117 14.1871 19.0696C14.1871 19.0222 14.1776 18.9753 14.1591 18.9317C14.1406 18.8881 14.1136 18.8486 14.0795 18.8156C14.0455 18.7826 14.0052 18.7568 13.961 18.7397C13.9169 18.7226 13.8697 18.7145 13.8223 18.716H13.2217V17.6861C13.2216 17.645 13.2297 17.6043 13.2454 17.5662C13.2611 17.5282 13.2842 17.4937 13.3133 17.4646C13.3424 17.4355 13.3769 17.4125 13.4149 17.3967C13.4529 17.381 13.4937 17.373 13.5348 17.373H14.5647V17.9737C14.5632 18.021 14.5713 18.0682 14.5884 18.1124C14.6055 18.1566 14.6313 18.1969 14.6643 18.2309C14.6972 18.2649 14.7367 18.2919 14.7804 18.3104C14.824 18.3289 14.8709 18.3384 14.9183 18.3384C14.9657 18.3384 15.0126 18.3289 15.0562 18.3104C15.0998 18.2919 15.1393 18.2649 15.1723 18.2309C15.2053 18.1969 15.2311 18.1566 15.2482 18.1124C15.2653 18.0682 15.2733 18.021 15.2719 17.9737V17.373H16.6152V17.9737C16.6152 18.0201 16.6243 18.066 16.6421 18.1089C16.6599 18.1518 16.6859 18.1907 16.7187 18.2236C16.7515 18.2564 16.7905 18.2824 16.8334 18.3002C16.8763 18.3179 16.9222 18.3271 16.9686 18.3271C17.015 18.3271 17.061 18.3179 17.1039 18.3002C17.1468 18.2824 17.1857 18.2564 17.2185 18.2236C17.2514 18.1907 17.2774 18.1518 17.2951 18.1089C17.3129 18.066 17.3221 18.0201 17.3221 17.9737V17.373H18.3523C18.3934 17.3729 18.4342 17.3809 18.4723 17.3966C18.5104 17.4123 18.545 17.4354 18.5741 17.4645C18.6033 17.4936 18.6264 17.5281 18.6422 17.5661C18.658 17.6042 18.6661 17.645 18.6661 17.6861Z" fill="#3344FF"/>
<path d="M23.0002 17.5942L19.5937 21.0007C19.4714 21.123 19.4714 21.3212 19.5937 21.4435L23.0002 24.85C23.1225 24.9723 23.3207 24.9723 23.443 24.85L26.8495 21.4435C26.9718 21.3212 26.9718 21.123 26.8495 21.0007L23.443 17.5942C23.3207 17.4719 23.1225 17.4719 23.0002 17.5942Z" fill="#9722FF"/>
</g>
<g filter="url(#filter1_d_28_2696)">
<path d="M32.8782 18.5V10.5H35.7297C36.3495 10.5 36.8638 10.6068 37.2727 10.8203C37.6842 11.0338 37.9915 11.3294 38.1946 11.707C38.3977 12.082 38.4993 12.5156 38.4993 13.0078C38.4993 13.4974 38.3964 13.9284 38.1907 14.3008C37.9875 14.6706 37.6803 14.9583 37.2688 15.1641C36.8599 15.3698 36.3456 15.4726 35.7258 15.4726H33.5657V14.4336H35.6165C36.0071 14.4336 36.3248 14.3776 36.5696 14.2656C36.817 14.1536 36.998 13.9909 37.1125 13.7773C37.2271 13.5638 37.2844 13.3073 37.2844 13.0078C37.2844 12.7057 37.2258 12.444 37.1086 12.2226C36.9941 12.0013 36.8131 11.832 36.5657 11.7148C36.3209 11.595 35.9993 11.5351 35.6008 11.5351H34.0852V18.5H32.8782ZM36.8274 14.8906L38.804 18.5H37.429L35.4915 14.8906H36.8274ZM42.385 18.6211C41.7939 18.6211 41.2847 18.4948 40.8577 18.2422C40.4332 17.987 40.1051 17.6289 39.8733 17.168C39.6441 16.7044 39.5295 16.1614 39.5295 15.5391C39.5295 14.9245 39.6441 14.3828 39.8733 13.9141C40.1051 13.4453 40.428 13.0794 40.842 12.8164C41.2587 12.5534 41.7457 12.4219 42.303 12.4219C42.6415 12.4219 42.9696 12.4779 43.2874 12.5898C43.6051 12.7018 43.8902 12.8776 44.1428 13.1172C44.3954 13.3568 44.5946 13.668 44.7405 14.0508C44.8863 14.431 44.9592 14.8932 44.9592 15.4375V15.8516H40.1897V14.9766H43.8147C43.8147 14.6693 43.7522 14.3971 43.6272 14.1601C43.5022 13.9206 43.3264 13.7318 43.0999 13.5937C42.8759 13.4557 42.6129 13.3867 42.3108 13.3867C41.9827 13.3867 41.6962 13.4674 41.4514 13.6289C41.2092 13.7878 41.0217 13.9961 40.8889 14.2539C40.7587 14.5091 40.6936 14.7864 40.6936 15.0859V15.7695C40.6936 16.1706 40.7639 16.5117 40.9045 16.793C41.0478 17.0742 41.247 17.2891 41.5022 17.4375C41.7574 17.5833 42.0556 17.6562 42.3967 17.6562C42.6181 17.6562 42.8199 17.625 43.0022 17.5625C43.1845 17.4974 43.342 17.401 43.4749 17.2734C43.6077 17.1458 43.7092 16.9883 43.7795 16.8008L44.885 17C44.7965 17.3255 44.6376 17.6107 44.4084 17.8555C44.1819 18.0976 43.8967 18.2864 43.553 18.4219C43.2118 18.5547 42.8225 18.6211 42.385 18.6211ZM50.3059 20.75V17.5664H50.2356C50.1653 17.694 50.0637 17.8398 49.9309 18.0039C49.8007 18.168 49.621 18.3112 49.3918 18.4336C49.1627 18.556 48.8658 18.6172 48.5012 18.6172C48.0168 18.6172 47.5845 18.4935 47.2043 18.2461C46.8267 17.9961 46.5299 17.6406 46.3137 17.1797C46.1002 16.7161 45.9934 16.1601 45.9934 15.5117C45.9934 14.8633 46.1015 14.3086 46.3176 13.8476C46.5364 13.3867 46.8359 13.0338 47.2161 12.7891C47.5963 12.5443 48.0273 12.4219 48.509 12.4219C48.8814 12.4219 49.1809 12.4844 49.4075 12.6094C49.6366 12.7318 49.8137 12.875 49.9387 13.0391C50.0663 13.2031 50.1653 13.3476 50.2356 13.4726H50.3332V12.5H51.4739V20.75H50.3059ZM48.759 17.6211C49.095 17.6211 49.3788 17.5325 49.6106 17.3555C49.845 17.1758 50.022 16.9271 50.1418 16.6094C50.2642 16.2917 50.3254 15.9219 50.3254 15.5C50.3254 15.0833 50.2655 14.7187 50.1457 14.4062C50.026 14.0937 49.8502 13.8503 49.6184 13.6758C49.3866 13.5013 49.1002 13.4141 48.759 13.4141C48.4075 13.4141 48.1145 13.5052 47.8801 13.6875C47.6457 13.8698 47.4687 14.1185 47.3489 14.4336C47.2317 14.7487 47.1731 15.1042 47.1731 15.5C47.1731 15.901 47.233 16.2617 47.3528 16.582C47.4726 16.9023 47.6497 17.1562 47.884 17.3437C48.121 17.5286 48.4127 17.6211 48.759 17.6211ZM56.845 16.0117V12.5H58.0168V18.5H56.8684V17.4609H56.8059C56.6679 17.7812 56.4465 18.0482 56.1418 18.2617C55.8398 18.4726 55.4635 18.5781 55.0129 18.5781C54.6275 18.5781 54.2864 18.4935 53.9895 18.3242C53.6952 18.1523 53.4635 17.8984 53.2942 17.5625C53.1275 17.2266 53.0442 16.8112 53.0442 16.3164V12.5H54.2122V16.1758C54.2122 16.5846 54.3254 16.9101 54.552 17.1523C54.7786 17.3945 55.0728 17.5156 55.4348 17.5156C55.6536 17.5156 55.871 17.4609 56.0872 17.3516C56.3059 17.2422 56.4869 17.0768 56.6301 16.8555C56.776 16.6341 56.8476 16.3529 56.845 16.0117ZM59.5862 18.5V12.5H60.7541V18.5H59.5862ZM60.176 11.5742C59.9729 11.5742 59.7984 11.5065 59.6526 11.3711C59.5094 11.2331 59.4377 11.069 59.4377 10.8789C59.4377 10.6862 59.5094 10.5221 59.6526 10.3867C59.7984 10.2487 59.9729 10.1797 60.176 10.1797C60.3791 10.1797 60.5523 10.2487 60.6955 10.3867C60.8414 10.5221 60.9143 10.6862 60.9143 10.8789C60.9143 11.069 60.8414 11.2331 60.6955 11.3711C60.5523 11.5065 60.3791 11.5742 60.176 11.5742ZM62.3254 18.5V12.5H63.4543V13.4531H63.5168C63.6262 13.1302 63.8189 12.8763 64.095 12.6914C64.3736 12.5039 64.6887 12.4101 65.0403 12.4101C65.1132 12.4101 65.1991 12.4128 65.2981 12.418C65.3996 12.4232 65.4791 12.4297 65.5364 12.4375V13.5547C65.4895 13.5417 65.4062 13.5273 65.2864 13.5117C65.1666 13.4935 65.0468 13.4844 64.927 13.4844C64.651 13.4844 64.4049 13.543 64.1887 13.6601C63.9752 13.7747 63.8059 13.9349 63.6809 14.1406C63.5559 14.3437 63.4934 14.5755 63.4934 14.8359V18.5H62.3254ZM68.9182 18.6211C68.3271 18.6211 67.8179 18.4948 67.3909 18.2422C66.9664 17.987 66.6383 17.6289 66.4065 17.168C66.1773 16.7044 66.0627 16.1614 66.0627 15.5391C66.0627 14.9245 66.1773 14.3828 66.4065 13.9141C66.6383 13.4453 66.9612 13.0794 67.3752 12.8164C67.7919 12.5534 68.2789 12.4219 68.8362 12.4219C69.1747 12.4219 69.5028 12.4779 69.8205 12.5898C70.1383 12.7018 70.4234 12.8776 70.676 13.1172C70.9286 13.3568 71.1278 13.668 71.2737 14.0508C71.4195 14.431 71.4924 14.8932 71.4924 15.4375V15.8516H66.7229V14.9766H70.3479C70.3479 14.6693 70.2854 14.3971 70.1604 14.1601C70.0354 13.9206 69.8596 13.7318 69.633 13.5937C69.4091 13.4557 69.1461 13.3867 68.844 13.3867C68.5159 13.3867 68.2294 13.4674 67.9846 13.6289C67.7424 13.7878 67.5549 13.9961 67.4221 14.2539C67.2919 14.5091 67.2268 14.7864 67.2268 15.0859V15.7695C67.2268 16.1706 67.2971 16.5117 67.4377 16.793C67.581 17.0742 67.7802 17.2891 68.0354 17.4375C68.2906 17.5833 68.5888 17.6562 68.9299 17.6562C69.1513 17.6562 69.3531 17.625 69.5354 17.5625C69.7177 17.4974 69.8752 17.401 70.008 17.2734C70.1409 17.1458 70.2424 16.9883 70.3127 16.8008L71.4182 17C71.3297 17.3255 71.1708 17.6107 70.9416 17.8555C70.7151 18.0976 70.4299 18.2864 70.0862 18.4219C69.745 18.5547 69.3557 18.6211 68.9182 18.6211ZM77.2844 13.9648L76.2258 14.1523C76.1815 14.0169 76.1112 13.888 76.0149 13.7656C75.9211 13.6432 75.7935 13.543 75.6321 13.4648C75.4706 13.3867 75.2688 13.3476 75.0266 13.3476C74.6959 13.3476 74.4198 13.4219 74.1985 13.5703C73.9771 13.7161 73.8664 13.9049 73.8664 14.1367C73.8664 14.3372 73.9407 14.4987 74.0891 14.6211C74.2375 14.7435 74.4771 14.8437 74.8078 14.9219L75.761 15.1406C76.3131 15.2682 76.7245 15.4648 76.9953 15.7305C77.2662 15.9961 77.4016 16.3411 77.4016 16.7656C77.4016 17.125 77.2974 17.4453 77.0891 17.7266C76.8834 18.0052 76.5956 18.2239 76.2258 18.3828C75.8586 18.5417 75.4328 18.6211 74.9485 18.6211C74.2766 18.6211 73.7284 18.4779 73.3039 18.1914C72.8795 17.9023 72.619 17.4922 72.5227 16.9609L73.6516 16.7891C73.7219 17.0833 73.8664 17.306 74.0852 17.457C74.3039 17.6055 74.5891 17.6797 74.9407 17.6797C75.3235 17.6797 75.6295 17.6002 75.8586 17.4414C76.0878 17.2799 76.2024 17.0833 76.2024 16.8516C76.2024 16.6641 76.1321 16.5065 75.9914 16.3789C75.8534 16.2513 75.6412 16.1549 75.3547 16.0898L74.3391 15.8672C73.7792 15.7396 73.3651 15.5364 73.0969 15.2578C72.8313 14.9792 72.6985 14.6263 72.6985 14.1992C72.6985 13.845 72.7974 13.5351 72.9953 13.2695C73.1933 13.0039 73.4667 12.7969 73.8157 12.6484C74.1646 12.4974 74.5644 12.4219 75.0149 12.4219C75.6633 12.4219 76.1737 12.5625 76.5461 12.8437C76.9185 13.1224 77.1646 13.4961 77.2844 13.9648Z" fill="#E8E8E8"/>
<path d="M84.4964 15.3636H86.201L86.9254 16.2883L87.8757 17.3793L89.3373 19.1818H87.4282L86.4055 17.9588L85.8004 17.0895L84.4964 15.3636ZM89.397 14.1364C89.397 15.0966 89.2123 15.9105 88.843 16.5781C88.4737 17.2457 87.9737 17.7528 87.343 18.0994C86.7152 18.446 86.0106 18.6193 85.2294 18.6193C84.4453 18.6193 83.7393 18.4446 83.1115 18.0952C82.4836 17.7457 81.9851 17.2386 81.6157 16.5739C81.2493 15.9062 81.066 15.0937 81.066 14.1364C81.066 13.1761 81.2493 12.3622 81.6157 11.6946C81.9851 11.027 82.4836 10.5199 83.1115 10.1733C83.7393 9.8267 84.4453 9.6534 85.2294 9.6534C86.0106 9.6534 86.7152 9.8267 87.343 10.1733C87.9737 10.5199 88.4737 11.027 88.843 11.6946C89.2123 12.3622 89.397 13.1761 89.397 14.1364ZM87.2407 14.1364C87.2407 13.5682 87.1598 13.0881 86.9978 12.696C86.8388 12.304 86.6086 12.0071 86.3075 11.8054C86.0092 11.6037 85.6498 11.5028 85.2294 11.5028C84.8118 11.5028 84.4524 11.6037 84.1513 11.8054C83.8501 12.0071 83.6186 12.304 83.4567 12.696C83.2976 13.0881 83.218 13.5682 83.218 14.1364C83.218 14.7045 83.2976 15.1846 83.4567 15.5767C83.6186 15.9687 83.8501 16.2656 84.1513 16.4673C84.4524 16.669 84.8118 16.7699 85.2294 16.7699C85.6498 16.7699 86.0092 16.669 86.3075 16.4673C86.6086 16.2656 86.8388 15.9687 86.9978 15.5767C87.1598 15.1846 87.2407 14.7045 87.2407 14.1364ZM94.8633 15.6747V11.9545H96.9428V18.5H94.957V17.2812H94.8888C94.7439 17.6818 94.4968 18 94.1473 18.2358C93.8008 18.4687 93.3817 18.5852 92.8902 18.5852C92.4442 18.5852 92.0522 18.4829 91.7141 18.2784C91.376 18.0739 91.1133 17.7883 90.9258 17.4219C90.7383 17.0525 90.6431 16.6207 90.6402 16.1264V11.9545H92.7241V15.7173C92.7269 16.0724 92.8206 16.3523 93.0053 16.5568C93.19 16.7614 93.4414 16.8636 93.7596 16.8636C93.9669 16.8636 94.153 16.8182 94.3178 16.7273C94.4854 16.6335 94.6175 16.4986 94.7141 16.3224C94.8135 16.1435 94.8633 15.9275 94.8633 15.6747ZM98.2691 18.5V11.9545H100.353V18.5H98.2691ZM99.3132 11.1918C99.0206 11.1918 98.7691 11.0952 98.5589 10.902C98.3487 10.706 98.2436 10.4702 98.2436 10.1946C98.2436 9.92187 98.3487 9.68891 98.5589 9.49573C98.7691 9.29971 99.0206 9.2017 99.3132 9.2017C99.6086 9.2017 99.8601 9.29971 100.067 9.49573C100.278 9.68891 100.383 9.92187 100.383 10.1946C100.383 10.4702 100.278 10.706 100.067 10.902C99.8601 11.0952 99.6086 11.1918 99.3132 11.1918ZM103.763 9.77272V18.5H101.679V9.77272H103.763ZM108.784 11.9545V13.4886H104.655V11.9545H108.784ZM105.52 10.3864H107.604V16.4418C107.604 16.5696 107.624 16.6733 107.663 16.7528C107.706 16.8295 107.767 16.8849 107.847 16.919C107.926 16.9503 108.021 16.9659 108.132 16.9659C108.212 16.9659 108.295 16.9588 108.383 16.9446C108.474 16.9275 108.543 16.9133 108.588 16.902L108.903 18.4062C108.804 18.4346 108.663 18.4702 108.482 18.5128C108.303 18.5554 108.088 18.5824 107.838 18.5937C107.349 18.6165 106.93 18.5596 106.581 18.4233C106.234 18.2841 105.969 18.0682 105.784 17.7756C105.602 17.4829 105.514 17.115 105.52 16.6719V10.3864ZM117.143 12.3892C117.114 12.0767 116.988 11.8338 116.763 11.6605C116.542 11.4844 116.225 11.3963 115.813 11.3963C115.54 11.3963 115.313 11.4318 115.131 11.5028C114.95 11.5739 114.813 11.6719 114.722 11.7969C114.631 11.919 114.584 12.0597 114.582 12.2187C114.576 12.3494 114.602 12.4645 114.658 12.5639C114.718 12.6633 114.803 12.7514 114.914 12.8281C115.028 12.902 115.164 12.9673 115.323 13.0241C115.482 13.081 115.661 13.1307 115.86 13.1733L116.61 13.3437C117.042 13.4375 117.423 13.5625 117.752 13.7187C118.084 13.875 118.363 14.0611 118.587 14.277C118.815 14.4929 118.986 14.7415 119.103 15.0227C119.219 15.304 119.279 15.6193 119.282 15.9687C119.279 16.5199 119.14 16.9929 118.864 17.3878C118.589 17.7827 118.192 18.0852 117.675 18.2954C117.161 18.5057 116.54 18.6108 115.813 18.6108C115.083 18.6108 114.447 18.5014 113.904 18.2827C113.361 18.0639 112.94 17.7315 112.638 17.2855C112.337 16.8395 112.182 16.2756 112.174 15.5937H114.194C114.211 15.875 114.286 16.1094 114.42 16.2969C114.553 16.4844 114.736 16.6264 114.969 16.723C115.205 16.8196 115.478 16.8679 115.788 16.8679C116.072 16.8679 116.313 16.8295 116.512 16.7528C116.714 16.6761 116.869 16.5696 116.977 16.4332C117.084 16.2969 117.14 16.1406 117.143 15.9645C117.14 15.7997 117.089 15.6591 116.989 15.5426C116.89 15.4233 116.736 15.321 116.529 15.2358C116.325 15.1477 116.063 15.0668 115.745 14.9929L114.833 14.7798C114.077 14.6065 113.482 14.3267 113.048 13.9403C112.613 13.5511 112.397 13.0256 112.4 12.3636C112.397 11.8239 112.542 11.3508 112.834 10.9446C113.127 10.5383 113.532 10.2216 114.049 9.99431C114.566 9.76704 115.156 9.6534 115.817 9.6534C116.494 9.6534 117.08 9.76846 117.577 9.99857C118.077 10.2258 118.465 10.5454 118.741 10.9574C119.016 11.3693 119.157 11.8466 119.163 12.3892H117.143ZM124.042 11.9545V13.4886H119.913V11.9545H124.042ZM120.778 10.3864H122.861V16.4418C122.861 16.5696 122.881 16.6733 122.921 16.7528C122.964 16.8295 123.025 16.8849 123.104 16.919C123.184 16.9503 123.279 16.9659 123.39 16.9659C123.469 16.9659 123.553 16.9588 123.641 16.9446C123.732 16.9275 123.8 16.9133 123.846 16.902L124.161 18.4062C124.062 18.4346 123.921 18.4702 123.739 18.5128C123.56 18.5554 123.346 18.5824 123.096 18.5937C122.607 18.6165 122.188 18.5596 121.839 18.4233C121.492 18.2841 121.227 18.0682 121.042 17.7756C120.86 17.4829 120.772 17.115 120.778 16.6719V10.3864ZM126.95 18.6108C126.533 18.6108 126.162 18.5412 125.838 18.402C125.517 18.2599 125.263 18.0469 125.075 17.7628C124.891 17.4758 124.798 17.1165 124.798 16.6846C124.798 16.321 124.862 16.0142 124.99 15.7642C125.118 15.5142 125.294 15.3111 125.518 15.1548C125.743 14.9986 126.001 14.8807 126.294 14.8011C126.587 14.7187 126.899 14.6633 127.231 14.6349C127.604 14.6008 127.903 14.5653 128.131 14.5284C128.358 14.4886 128.523 14.4332 128.625 14.3622C128.73 14.2883 128.783 14.1846 128.783 14.0511V14.0298C128.783 13.8111 128.707 13.642 128.557 13.5227C128.406 13.4034 128.203 13.3437 127.947 13.3437C127.672 13.3437 127.45 13.4034 127.283 13.5227C127.115 13.642 127.008 13.8068 126.963 14.017L125.041 13.9489C125.098 13.5511 125.244 13.196 125.48 12.8835C125.719 12.5682 126.045 12.321 126.46 12.142C126.878 11.9602 127.379 11.8693 127.964 11.8693C128.382 11.8693 128.767 11.919 129.119 12.0185C129.472 12.115 129.778 12.2571 130.04 12.4446C130.301 12.6293 130.503 12.8565 130.645 13.1264C130.79 13.3963 130.862 13.7045 130.862 14.0511V18.5H128.902V17.5881H128.851C128.734 17.8096 128.585 17.9971 128.403 18.1506C128.224 18.304 128.013 18.419 127.768 18.4957C127.527 18.5724 127.254 18.6108 126.95 18.6108ZM127.594 17.2471C127.818 17.2471 128.02 17.2017 128.199 17.1108C128.381 17.0199 128.526 16.8949 128.633 16.7358C128.741 16.5739 128.795 16.3864 128.795 16.1733V15.5511C128.736 15.5824 128.663 15.6108 128.578 15.6364C128.496 15.6619 128.405 15.6861 128.305 15.7088C128.206 15.7315 128.104 15.7514 127.999 15.7685C127.893 15.7855 127.793 15.8011 127.696 15.8153C127.5 15.8466 127.332 15.8949 127.193 15.9602C127.057 16.0256 126.952 16.1108 126.878 16.2159C126.807 16.3182 126.771 16.4403 126.771 16.5824C126.771 16.7983 126.848 16.9631 127.001 17.0767C127.158 17.1903 127.355 17.2471 127.594 17.2471ZM134.22 14.767V18.5H132.136V11.9545H134.118V13.1562H134.19C134.335 12.7557 134.582 12.4418 134.932 12.2145C135.281 11.9844 135.697 11.8693 136.18 11.8693C136.641 11.8693 137.04 11.973 137.378 12.1804C137.719 12.3849 137.983 12.6719 138.17 13.0412C138.361 13.4077 138.455 13.8366 138.452 14.3281V18.5H136.368V14.7372C136.371 14.3736 136.278 14.0895 136.091 13.8849C135.906 13.6804 135.649 13.5781 135.32 13.5781C135.101 13.5781 134.908 13.6264 134.74 13.723C134.575 13.8168 134.447 13.9517 134.356 14.1278C134.268 14.304 134.223 14.517 134.22 14.767ZM142.132 18.5937C141.649 18.5937 141.211 18.4687 140.816 18.2187C140.421 17.9687 140.105 17.5937 139.87 17.0937C139.634 16.5937 139.516 15.973 139.516 15.2315C139.516 14.4616 139.638 13.8281 139.882 13.331C140.127 12.8338 140.446 12.4659 140.841 12.2273C141.239 11.9886 141.667 11.8693 142.124 11.8693C142.468 11.8693 142.762 11.929 143.006 12.0483C143.25 12.1648 143.452 12.3153 143.611 12.5C143.77 12.6846 143.891 12.8764 143.973 13.0753H144.016V9.77272H146.1V18.5H144.037V17.4389H143.973C143.885 17.6406 143.76 17.8295 143.598 18.0057C143.436 18.1818 143.233 18.3239 142.989 18.4318C142.747 18.5398 142.462 18.5937 142.132 18.5937ZM142.857 16.9702C143.11 16.9702 143.326 16.8991 143.505 16.7571C143.684 16.6122 143.821 16.4091 143.918 16.1477C144.015 15.8864 144.063 15.5795 144.063 15.2273C144.063 14.8693 144.015 14.5611 143.918 14.3025C143.824 14.044 143.686 13.8452 143.505 13.706C143.326 13.5668 143.11 13.4971 142.857 13.4971C142.598 13.4971 142.38 13.5682 142.201 13.7102C142.022 13.8523 141.885 14.0525 141.792 14.3111C141.701 14.5696 141.655 14.875 141.655 15.2273C141.655 15.5795 141.702 15.8864 141.796 16.1477C141.89 16.4091 142.024 16.6122 142.201 16.7571C142.38 16.8991 142.598 16.9702 142.857 16.9702ZM149.263 18.6108C148.845 18.6108 148.474 18.5412 148.151 18.402C147.83 18.2599 147.575 18.0469 147.388 17.7628C147.203 17.4758 147.111 17.1165 147.111 16.6846C147.111 16.321 147.175 16.0142 147.303 15.7642C147.43 15.5142 147.606 15.3111 147.831 15.1548C148.055 14.9986 148.314 14.8807 148.606 14.8011C148.899 14.7187 149.212 14.6633 149.544 14.6349C149.916 14.6008 150.216 14.5653 150.443 14.5284C150.67 14.4886 150.835 14.4332 150.937 14.3622C151.043 14.2883 151.095 14.1846 151.095 14.0511V14.0298C151.095 13.8111 151.02 13.642 150.869 13.5227C150.719 13.4034 150.516 13.3437 150.26 13.3437C149.984 13.3437 149.763 13.4034 149.595 13.5227C149.428 13.642 149.321 13.8068 149.276 14.017L147.354 13.9489C147.41 13.5511 147.557 13.196 147.793 12.8835C148.031 12.5682 148.358 12.321 148.773 12.142C149.19 11.9602 149.692 11.8693 150.277 11.8693C150.695 11.8693 151.08 11.919 151.432 12.0185C151.784 12.115 152.091 12.2571 152.352 12.4446C152.614 12.6293 152.815 12.8565 152.957 13.1264C153.102 13.3963 153.175 13.7045 153.175 14.0511V18.5H151.214V17.5881H151.163C151.047 17.8096 150.898 17.9971 150.716 18.1506C150.537 18.304 150.325 18.419 150.081 18.4957C149.839 18.5724 149.567 18.6108 149.263 18.6108ZM149.906 17.2471C150.131 17.2471 150.332 17.2017 150.511 17.1108C150.693 17.0199 150.838 16.8949 150.946 16.7358C151.054 16.5739 151.108 16.3864 151.108 16.1733V15.5511C151.048 15.5824 150.976 15.6108 150.891 15.6364C150.808 15.6619 150.717 15.6861 150.618 15.7088C150.518 15.7315 150.416 15.7514 150.311 15.7685C150.206 15.7855 150.105 15.8011 150.008 15.8153C149.812 15.8466 149.645 15.8949 149.506 15.9602C149.369 16.0256 149.264 16.1108 149.19 16.2159C149.119 16.3182 149.084 16.4403 149.084 16.5824C149.084 16.7983 149.16 16.9631 149.314 17.0767C149.47 17.1903 149.668 17.2471 149.906 17.2471ZM154.449 18.5V11.9545H156.473V13.1477H156.541C156.66 12.7159 156.855 12.3949 157.125 12.1846C157.395 11.9716 157.709 11.865 158.067 11.865C158.163 11.865 158.263 11.8722 158.365 11.8864C158.467 11.8977 158.562 11.9162 158.651 11.9418V13.7528C158.551 13.7187 158.42 13.6918 158.258 13.6719C158.099 13.652 157.957 13.642 157.832 13.642C157.585 13.642 157.362 13.6974 157.163 13.8082C156.967 13.9162 156.812 14.0682 156.699 14.2642C156.588 14.4574 156.533 14.6846 156.533 14.946V18.5H154.449ZM161.55 18.5937C161.067 18.5937 160.629 18.4687 160.234 18.2187C159.839 17.9687 159.523 17.5937 159.288 17.0937C159.052 16.5937 158.934 15.973 158.934 15.2315C158.934 14.4616 159.056 13.8281 159.3 13.331C159.545 12.8338 159.864 12.4659 160.259 12.2273C160.657 11.9886 161.084 11.8693 161.542 11.8693C161.886 11.8693 162.18 11.929 162.424 12.0483C162.668 12.1648 162.87 12.3153 163.029 12.5C163.188 12.6846 163.309 12.8764 163.391 13.0753H163.434V9.77272H165.518V18.5H163.455V17.4389H163.391C163.303 17.6406 163.178 17.8295 163.016 18.0057C162.854 18.1818 162.651 18.3239 162.407 18.4318C162.165 18.5398 161.88 18.5937 161.55 18.5937ZM162.275 16.9702C162.528 16.9702 162.744 16.8991 162.923 16.7571C163.102 16.6122 163.239 16.4091 163.336 16.1477C163.432 15.8864 163.481 15.5795 163.481 15.2273C163.481 14.8693 163.432 14.5611 163.336 14.3025C163.242 14.044 163.104 13.8452 162.923 13.706C162.744 13.5668 162.528 13.4971 162.275 13.4971C162.016 13.4971 161.798 13.5682 161.619 13.7102C161.44 13.8523 161.303 14.0525 161.209 14.3111C161.119 14.5696 161.073 14.875 161.073 15.2273C161.073 15.5795 161.12 15.8864 161.214 16.1477C161.307 16.4091 161.442 16.6122 161.619 16.7571C161.798 16.8991 162.016 16.9702 162.275 16.9702ZM169.414 18.5V9.77272H171.523V16.7869H175.154V18.5H169.414ZM176.246 18.5V11.9545H178.329V18.5H176.246ZM177.29 11.1918C176.997 11.1918 176.746 11.0952 176.535 10.902C176.325 10.706 176.22 10.4702 176.22 10.1946C176.22 9.92187 176.325 9.68891 176.535 9.49573C176.746 9.29971 176.997 9.2017 177.29 9.2017C177.585 9.2017 177.837 9.29971 178.044 9.49573C178.254 9.68891 178.359 9.92187 178.359 10.1946C178.359 10.4702 178.254 10.706 178.044 10.902C177.837 11.0952 177.585 11.1918 177.29 11.1918ZM179.656 18.5V9.77272H181.74V13.0753H181.782C181.867 12.8764 181.988 12.6846 182.144 12.5C182.304 12.3153 182.505 12.1648 182.75 12.0483C182.997 11.929 183.292 11.8693 183.636 11.8693C184.091 11.8693 184.515 11.9886 184.91 12.2273C185.308 12.4659 185.629 12.8338 185.873 13.331C186.117 13.8281 186.24 14.4616 186.24 15.2315C186.24 15.973 186.122 16.5937 185.886 17.0937C185.653 17.5937 185.338 17.9687 184.94 18.2187C184.545 18.4687 184.106 18.5937 183.623 18.5937C183.294 18.5937 183.008 18.5398 182.767 18.4318C182.525 18.3239 182.322 18.1818 182.157 18.0057C181.995 17.8295 181.87 17.6406 181.782 17.4389H181.718V18.5H179.656ZM181.697 15.2273C181.697 15.5795 181.744 15.8864 181.838 16.1477C181.934 16.4091 182.072 16.6122 182.251 16.7571C182.433 16.8991 182.65 16.9702 182.903 16.9702C183.159 16.9702 183.376 16.8991 183.555 16.7571C183.734 16.6122 183.869 16.4091 183.96 16.1477C184.054 15.8864 184.1 15.5795 184.1 15.2273C184.1 14.875 184.054 14.5696 183.96 14.3111C183.869 14.0525 183.734 13.8523 183.555 13.7102C183.379 13.5682 183.162 13.4971 182.903 13.4971C182.647 13.4971 182.43 13.5668 182.251 13.706C182.072 13.8452 181.934 14.044 181.838 14.3025C181.744 14.5611 181.697 14.8693 181.697 15.2273ZM187.332 18.5V11.9545H189.356V13.1477H189.424C189.543 12.7159 189.738 12.3949 190.008 12.1846C190.278 11.9716 190.592 11.865 190.95 11.865C191.046 11.865 191.146 11.8722 191.248 11.8864C191.35 11.8977 191.445 11.9162 191.533 11.9418V13.7528C191.434 13.7187 191.303 13.6918 191.141 13.6719C190.982 13.652 190.84 13.642 190.715 13.642C190.468 13.642 190.245 13.6974 190.046 13.8082C189.85 13.9162 189.695 14.0682 189.582 14.2642C189.471 14.4574 189.415 14.6846 189.415 14.946V18.5H187.332ZM193.981 18.6108C193.564 18.6108 193.193 18.5412 192.869 18.402C192.548 18.2599 192.294 18.0469 192.106 17.7628C191.922 17.4758 191.829 17.1165 191.829 16.6846C191.829 16.321 191.893 16.0142 192.021 15.7642C192.149 15.5142 192.325 15.3111 192.55 15.1548C192.774 14.9986 193.033 14.8807 193.325 14.8011C193.618 14.7187 193.93 14.6633 194.263 14.6349C194.635 14.6008 194.935 14.5653 195.162 14.5284C195.389 14.4886 195.554 14.4332 195.656 14.3622C195.761 14.2883 195.814 14.1846 195.814 14.0511V14.0298C195.814 13.8111 195.739 13.642 195.588 13.5227C195.437 13.4034 195.234 13.3437 194.979 13.3437C194.703 13.3437 194.481 13.4034 194.314 13.5227C194.146 13.642 194.04 13.8068 193.994 14.017L192.072 13.9489C192.129 13.5511 192.276 13.196 192.511 12.8835C192.75 12.5682 193.077 12.321 193.491 12.142C193.909 11.9602 194.41 11.8693 194.996 11.8693C195.413 11.8693 195.798 11.919 196.151 12.0185C196.503 12.115 196.81 12.2571 197.071 12.4446C197.332 12.6293 197.534 12.8565 197.676 13.1264C197.821 13.3963 197.893 13.7045 197.893 14.0511V18.5H195.933V17.5881H195.882C195.766 17.8096 195.616 17.9971 195.435 18.1506C195.256 18.304 195.044 18.419 194.8 18.4957C194.558 18.5724 194.285 18.6108 193.981 18.6108ZM194.625 17.2471C194.849 17.2471 195.051 17.2017 195.23 17.1108C195.412 17.0199 195.557 16.8949 195.665 16.7358C195.773 16.5739 195.827 16.3864 195.827 16.1733V15.5511C195.767 15.5824 195.695 15.6108 195.609 15.6364C195.527 15.6619 195.436 15.6861 195.337 15.7088C195.237 15.7315 195.135 15.7514 195.03 15.7685C194.925 15.7855 194.824 15.8011 194.727 15.8153C194.531 15.8466 194.364 15.8949 194.224 15.9602C194.088 16.0256 193.983 16.1108 193.909 16.2159C193.838 16.3182 193.803 16.4403 193.803 16.5824C193.803 16.7983 193.879 16.9631 194.033 17.0767C194.189 17.1903 194.386 17.2471 194.625 17.2471ZM199.168 18.5V11.9545H201.192V13.1477H201.26C201.379 12.7159 201.574 12.3949 201.844 12.1846C202.114 11.9716 202.427 11.865 202.785 11.865C202.882 11.865 202.981 11.8722 203.084 11.8864C203.186 11.8977 203.281 11.9162 203.369 11.9418V13.7528C203.27 13.7187 203.139 13.6918 202.977 13.6719C202.818 13.652 202.676 13.642 202.551 13.642C202.304 13.642 202.081 13.6974 201.882 13.8082C201.686 13.9162 201.531 14.0682 201.418 14.2642C201.307 14.4574 201.251 14.6846 201.251 14.946V18.5H199.168ZM204.218 18.5V11.9545H206.302V18.5H204.218ZM205.262 11.1918C204.97 11.1918 204.718 11.0952 204.508 10.902C204.298 10.706 204.193 10.4702 204.193 10.1946C204.193 9.92187 204.298 9.68891 204.508 9.49573C204.718 9.29971 204.97 9.2017 205.262 9.2017C205.558 9.2017 205.809 9.29971 206.017 9.49573C206.227 9.68891 206.332 9.92187 206.332 10.1946C206.332 10.4702 206.227 10.706 206.017 10.902C205.809 11.0952 205.558 11.1918 205.262 11.1918ZM210.688 18.6236C210.003 18.6236 209.413 18.4886 208.915 18.2187C208.421 17.946 208.04 17.5582 207.773 17.0554C207.509 16.5497 207.377 15.9489 207.377 15.2528C207.377 14.5767 207.511 13.9858 207.778 13.4801C208.045 12.9716 208.421 12.5767 208.907 12.2954C209.393 12.0114 209.965 11.8693 210.624 11.8693C211.09 11.8693 211.516 11.9418 211.903 12.0866C212.289 12.2315 212.623 12.446 212.904 12.7301C213.185 13.0142 213.404 13.365 213.56 13.7827C213.717 14.1974 213.795 14.6733 213.795 15.2102V15.7301H208.106V14.5199H211.856C211.853 14.2983 211.8 14.1008 211.698 13.9275C211.596 13.7543 211.455 13.6193 211.276 13.5227C211.1 13.4233 210.897 13.3736 210.667 13.3736C210.434 13.3736 210.225 13.4261 210.04 13.5312C209.856 13.6335 209.709 13.7741 209.602 13.9531C209.494 14.1293 209.437 14.3295 209.431 14.554V15.7855C209.431 16.0525 209.484 16.2869 209.589 16.4886C209.694 16.6875 209.843 16.8423 210.036 16.9531C210.229 17.0639 210.459 17.1193 210.727 17.1193C210.911 17.1193 211.079 17.0937 211.229 17.0426C211.38 16.9915 211.509 16.9162 211.617 16.8168C211.725 16.7173 211.806 16.5952 211.86 16.4503L213.773 16.5057C213.694 16.9346 213.519 17.3082 213.249 17.6264C212.982 17.9418 212.631 18.1875 212.197 18.3636C211.762 18.5369 211.259 18.6236 210.688 18.6236ZM220.573 13.9531L218.66 14.0043C218.64 13.8679 218.586 13.7471 218.498 13.642C218.41 13.5341 218.295 13.4503 218.153 13.3906C218.014 13.3281 217.852 13.2969 217.667 13.2969C217.426 13.2969 217.22 13.3452 217.049 13.4418C216.882 13.5383 216.799 13.669 216.802 13.8338C216.799 13.9616 216.85 14.0724 216.956 14.1662C217.064 14.2599 217.255 14.3352 217.531 14.392L218.792 14.6307C219.446 14.7557 219.931 14.9631 220.25 15.2528C220.571 15.5426 220.733 15.9261 220.735 16.4034C220.733 16.8523 220.599 17.2429 220.335 17.5753C220.073 17.9077 219.715 18.1662 219.261 18.3508C218.806 18.5327 218.287 18.6236 217.701 18.6236C216.767 18.6236 216.029 18.4318 215.49 18.0483C214.953 17.6619 214.646 17.1449 214.569 16.4971L216.627 16.446C216.673 16.6846 216.791 16.8665 216.981 16.9915C217.171 17.1165 217.414 17.179 217.71 17.179C217.977 17.179 218.194 17.1293 218.362 17.0298C218.529 16.9304 218.615 16.7983 218.617 16.6335C218.615 16.4858 218.549 16.3679 218.421 16.2798C218.294 16.1889 218.093 16.1179 217.821 16.0668L216.679 15.8494C216.022 15.7301 215.534 15.5099 215.213 15.1889C214.892 14.865 214.733 14.4531 214.735 13.9531C214.733 13.5156 214.849 13.142 215.085 12.8324C215.321 12.5199 215.656 12.2812 216.09 12.1165C216.525 11.9517 217.038 11.8693 217.629 11.8693C218.515 11.8693 219.214 12.0554 219.725 12.4275C220.237 12.7969 220.519 13.3054 220.573 13.9531Z" fill="url(#paint1_linear_28_2696)"/>
</g>
</g>
<rect x="0.749268" y="0.749992" width="226" height="26.5" rx="5.25" stroke="white" stroke-opacity="0.15" stroke-width="1.5"/>
<defs>
<filter id="filter0_d_28_2696" x="1.99927" y="-7.62939e-06" width="28.9419" height="28.9417" filterUnits="userSpaceOnUse" color-interpolation-filters="sRGB">
<feFlood flood-opacity="0" result="BackgroundImageFix"/>
<feColorMatrix in="SourceAlpha" type="matrix" values="0 0 0 0 0 0 0 0 0 0 0 0 0 0 0 0 0 0 127 0" result="hardAlpha"/>
<feOffset/>
<feGaussianBlur stdDeviation="2"/>
<feComposite in2="hardAlpha" operator="out"/>
<feColorMatrix type="matrix" values="0 0 0 0 0 0 0 0 0 0 0 0 0 0 0 0 0 0 0.25 0"/>
<feBlend mode="normal" in2="BackgroundImageFix" result="effect1_dropShadow_28_2696"/>
<feBlend mode="normal" in="SourceGraphic" in2="effect1_dropShadow_28_2696" result="shape"/>
</filter>
<filter id="filter1_d_28_2696" x="27.9993" y="3.49999" width="197.5" height="21.25" filterUnits="userSpaceOnUse" color-interpolation-filters="sRGB">
<feFlood flood-opacity="0" result="BackgroundImageFix"/>
<feColorMatrix in="SourceAlpha" type="matrix" values="0 0 0 0 0 0 0 0 0 0 0 0 0 0 0 0 0 0 127 0" result="hardAlpha"/>
<feOffset/>
<feGaussianBlur stdDeviation="2"/>
<feComposite in2="hardAlpha" operator="out"/>
<feColorMatrix type="matrix" values="0 0 0 0 0 0 0 0 0 0 0 0 0 0 0 0 0 0 0.25 0"/>
<feBlend mode="normal" in2="BackgroundImageFix" result="effect1_dropShadow_28_2696"/>
<feBlend mode="normal" in="SourceGraphic" in2="effect1_dropShadow_28_2696" result="shape"/>
</filter>
<linearGradient id="paint0_linear_28_2696" x1="113.749" y1="-7.62939e-06" x2="113.749" y2="28" gradientUnits="userSpaceOnUse">
<stop stop-color="#2A0E2B"/>
<stop offset="1" stop-color="#0C1723"/>
</linearGradient>
<linearGradient id="paint1_linear_28_2696" x1="80.4993" y1="7.50005" x2="221.499" y2="7.50008" gradientUnits="userSpaceOnUse">
<stop stop-color="#E17BE1"/>
<stop offset="1" stop-color="#98A1FF"/>
</linearGradient>
<clipPath id="clip0_28_2696">
<rect x="-0.000732422" y="-7.62939e-06" width="227.5" height="28" rx="6" fill="white"/>
</clipPath>
</defs>
</svg>
