<svg width="131" height="40" viewBox="0 0 131 40" fill="none" xmlns="http://www.w3.org/2000/svg">
<rect x="-0.000244141" y="-1.14441e-05" width="131" height="40" rx="6" fill="url(#paint0_linear_18_3117)"/>
<g filter="url(#filter0_d_18_3117)">
<path d="M35.327 14.7658L23.2998 14.1667H37.9997V13H21.3907V15.4594V17.4144C21.3907 17.4459 20.9134 14.545 20.7861 13.7252H19.4816V15.8694V17.8243C19.4816 17.8558 18.9088 14.3874 18.877 13.9459C15.5679 13.9459 9.99976 13.9459 9.99976 13.9459C10.6043 14.4504 13.9452 17.2883 16.3316 18.4549C17.5088 19.0225 18.9725 19.054 20.277 19.0856C20.9452 19.1171 21.6134 19.1486 22.1225 19.6531C22.8543 20.3468 23.0134 21.4504 22.377 22.2703C21.7725 23.0901 20.0543 23.2793 20.0543 23.2793L18.5907 24.982V27H21.8679L21.9634 25.0135L24.7952 23.027C24.5088 23.2793 23.8088 23.9099 22.8225 25.4549C22.5998 25.8018 22.4088 26.1802 22.2816 26.5585C22.9816 25.9594 24.4452 25.5495 26.1634 25.5495C27.8498 25.5495 29.3134 25.9594 30.0134 26.5585C29.8861 26.1802 29.6952 25.8018 29.4725 25.4549C28.4543 23.9099 27.7861 23.2793 27.4998 23.027L30.3316 25.0135L30.427 27H33.4816V24.982L32.0497 23.2477C32.0497 23.2477 29.9179 23.1216 29.377 22.2387C27.7225 19.7793 29.9816 15.9324 35.327 14.7658Z" fill="#DFA86A"/>
</g>
<g filter="url(#filter1_d_18_3117)">
<path d="M48.4451 18L46.2263 9.99998H47.4958L49.0544 16.1953H49.1287L50.7498 9.99998H52.0076L53.6287 16.1992H53.7029L55.2576 9.99998H56.531L54.3083 18H53.0935L51.4099 12.0078H51.3474L49.6638 18H48.4451ZM59.4744 18.1211C58.9119 18.1211 58.421 17.9922 58.0017 17.7344C57.5824 17.4765 57.2569 17.1159 57.0251 16.6523C56.7934 16.1888 56.6775 15.6471 56.6775 15.0273C56.6775 14.4049 56.7934 13.8607 57.0251 13.3945C57.2569 12.9284 57.5824 12.5664 58.0017 12.3086C58.421 12.0508 58.9119 11.9219 59.4744 11.9219C60.0369 11.9219 60.5277 12.0508 60.947 12.3086C61.3663 12.5664 61.6918 12.9284 61.9236 13.3945C62.1554 13.8607 62.2712 14.4049 62.2712 15.0273C62.2712 15.6471 62.1554 16.1888 61.9236 16.6523C61.6918 17.1159 61.3663 17.4765 60.947 17.7344C60.5277 17.9922 60.0369 18.1211 59.4744 18.1211ZM59.4783 17.1406C59.8429 17.1406 60.1449 17.0443 60.3845 16.8515C60.6241 16.6588 60.8012 16.4023 60.9158 16.082C61.033 15.7617 61.0915 15.4088 61.0915 15.0234C61.0915 14.6406 61.033 14.289 60.9158 13.9687C60.8012 13.6458 60.6241 13.3867 60.3845 13.1914C60.1449 12.9961 59.8429 12.8984 59.4783 12.8984C59.1111 12.8984 58.8064 12.9961 58.5642 13.1914C58.3246 13.3867 58.1462 13.6458 58.029 13.9687C57.9145 14.289 57.8572 14.6406 57.8572 15.0234C57.8572 15.4088 57.9145 15.7617 58.029 16.082C58.1462 16.4023 58.3246 16.6588 58.5642 16.8515C58.8064 17.0443 59.1111 17.1406 59.4783 17.1406ZM64.7429 14.4375V18H63.5749V12H64.696V12.9765H64.7703C64.9083 12.6588 65.1244 12.4036 65.4187 12.2109C65.7156 12.0182 66.0893 11.9219 66.5398 11.9219C66.9486 11.9219 67.3067 12.0078 67.614 12.1797C67.9213 12.3489 68.1596 12.6015 68.3289 12.9375C68.4981 13.2734 68.5828 13.6888 68.5828 14.1836V18H67.4148V14.3242C67.4148 13.8893 67.3015 13.5495 67.0749 13.3047C66.8484 13.0573 66.5372 12.9336 66.1414 12.9336C65.8705 12.9336 65.6296 12.9922 65.4187 13.1094C65.2104 13.2265 65.045 13.3984 64.9226 13.625C64.8028 13.8489 64.7429 14.1198 64.7429 14.4375ZM71.1531 9.99998V10.75C71.1531 10.9713 71.1114 11.2044 71.0281 11.4492C70.9473 11.6914 70.8328 11.9245 70.6843 12.1484C70.5359 12.3724 70.3614 12.5651 70.1609 12.7265L69.5828 12.3125C69.7364 12.0885 69.8692 11.8502 69.9812 11.5976C70.0958 11.345 70.1531 11.0664 70.1531 10.7617V9.99998H71.1531ZM75.3132 12V12.9375H72.0359V12H75.3132ZM72.9148 10.5625H74.0828V16.2383C74.0828 16.4648 74.1166 16.6354 74.1843 16.75C74.252 16.862 74.3393 16.9388 74.446 16.9805C74.5554 17.0195 74.6739 17.039 74.8015 17.039C74.8953 17.039 74.9773 17.0325 75.0476 17.0195C75.1179 17.0065 75.1726 16.9961 75.2117 16.9883L75.4226 17.9531C75.3549 17.9791 75.2585 18.0052 75.1335 18.0312C75.0085 18.0599 74.8523 18.0755 74.6648 18.0781C74.3575 18.0833 74.071 18.0286 73.8054 17.914C73.5398 17.7995 73.3249 17.6224 73.1609 17.3828C72.9968 17.1432 72.9148 16.8424 72.9148 16.4805V10.5625ZM84.0124 13.4648L82.9538 13.6523C82.9096 13.5169 82.8393 13.388 82.7429 13.2656C82.6492 13.1432 82.5216 13.043 82.3601 12.9648C82.1986 12.8867 81.9968 12.8476 81.7546 12.8476C81.4239 12.8476 81.1479 12.9219 80.9265 13.0703C80.7051 13.2161 80.5945 13.4049 80.5945 13.6367C80.5945 13.8372 80.6687 13.9987 80.8171 14.1211C80.9656 14.2435 81.2051 14.3437 81.5359 14.4219L82.489 14.6406C83.0411 14.7682 83.4525 14.9648 83.7234 15.2305C83.9942 15.4961 84.1296 15.8411 84.1296 16.2656C84.1296 16.625 84.0255 16.9453 83.8171 17.2265C83.6114 17.5052 83.3236 17.7239 82.9538 17.8828C82.5867 18.0416 82.1609 18.1211 81.6765 18.1211C81.0046 18.1211 80.4565 17.9778 80.032 17.6914C79.6075 17.4023 79.3471 16.9922 79.2507 16.4609L80.3796 16.289C80.4499 16.5833 80.5945 16.806 80.8132 16.957C81.032 17.1055 81.3171 17.1797 81.6687 17.1797C82.0515 17.1797 82.3575 17.1002 82.5867 16.9414C82.8158 16.7799 82.9304 16.5833 82.9304 16.3515C82.9304 16.164 82.8601 16.0065 82.7195 15.8789C82.5815 15.7513 82.3692 15.6549 82.0828 15.5898L81.0671 15.3672C80.5072 15.2396 80.0932 15.0364 79.8249 14.7578C79.5593 14.4791 79.4265 14.1263 79.4265 13.6992C79.4265 13.345 79.5255 13.0351 79.7234 12.7695C79.9213 12.5039 80.1947 12.2969 80.5437 12.1484C80.8926 11.9974 81.2924 11.9219 81.7429 11.9219C82.3913 11.9219 82.9018 12.0625 83.2742 12.3437C83.6466 12.6224 83.8926 12.9961 84.0124 13.4648ZM89.2146 15.5117V12H90.3865V18H89.238V16.9609H89.1755C89.0375 17.2812 88.8161 17.5482 88.5115 17.7617C88.2094 17.9726 87.8331 18.0781 87.3826 18.0781C86.9971 18.0781 86.656 17.9935 86.3591 17.8242C86.0648 17.6523 85.8331 17.3984 85.6638 17.0625C85.4971 16.7265 85.4138 16.3112 85.4138 15.8164V12H86.5818V15.6758C86.5818 16.0846 86.6951 16.4101 86.9216 16.6523C87.1482 16.8945 87.4425 17.0156 87.8044 17.0156C88.0232 17.0156 88.2406 16.9609 88.4568 16.8515C88.6755 16.7422 88.8565 16.5768 88.9997 16.3555C89.1456 16.1341 89.2172 15.8528 89.2146 15.5117ZM91.9558 20.25V12H93.0964V12.9726H93.1941C93.2618 12.8476 93.3594 12.7031 93.487 12.539C93.6147 12.375 93.7917 12.2318 94.0183 12.1094C94.2449 11.9844 94.5443 11.9219 94.9167 11.9219C95.4011 11.9219 95.8334 12.0443 96.2136 12.289C96.5938 12.5338 96.892 12.8867 97.1081 13.3476C97.3269 13.8086 97.4363 14.3633 97.4363 15.0117C97.4363 15.6601 97.3282 16.2161 97.112 16.6797C96.8959 17.1406 96.599 17.4961 96.2214 17.7461C95.8438 17.9935 95.4128 18.1172 94.9285 18.1172C94.5639 18.1172 94.2657 18.056 94.0339 17.9336C93.8048 17.8112 93.6251 17.668 93.4949 17.5039C93.3647 17.3398 93.2644 17.194 93.1941 17.0664H93.1238V20.25H91.9558ZM93.1003 15C93.1003 15.4219 93.1615 15.7916 93.2839 16.1094C93.4063 16.4271 93.5834 16.6758 93.8152 16.8555C94.0469 17.0325 94.3308 17.1211 94.6667 17.1211C95.0157 17.1211 95.3074 17.0286 95.5417 16.8437C95.7761 16.6562 95.9532 16.4023 96.073 16.082C96.1954 15.7617 96.2566 15.401 96.2566 15C96.2566 14.6041 96.1967 14.2487 96.0769 13.9336C95.9597 13.6185 95.7826 13.3698 95.5456 13.1875C95.3113 13.0052 95.0183 12.914 94.6667 12.914C94.3282 12.914 94.0417 13.0013 93.8074 13.1758C93.5756 13.3502 93.3998 13.5937 93.28 13.9062C93.1602 14.2187 93.1003 14.5833 93.1003 15ZM98.7449 20.25V12H99.8855V12.9726H99.9831C100.051 12.8476 100.149 12.7031 100.276 12.539C100.404 12.375 100.581 12.2318 100.807 12.1094C101.034 11.9844 101.333 11.9219 101.706 11.9219C102.19 11.9219 102.622 12.0443 103.003 12.289C103.383 12.5338 103.681 12.8867 103.897 13.3476C104.116 13.8086 104.225 14.3633 104.225 15.0117C104.225 15.6601 104.117 16.2161 103.901 16.6797C103.685 17.1406 103.388 17.4961 103.01 17.7461C102.633 17.9935 102.202 18.1172 101.718 18.1172C101.353 18.1172 101.055 18.056 100.823 17.9336C100.594 17.8112 100.414 17.668 100.284 17.5039C100.154 17.3398 100.053 17.194 99.9831 17.0664H99.9128V20.25H98.7449ZM99.8894 15C99.8894 15.4219 99.9506 15.7916 100.073 16.1094C100.195 16.4271 100.372 16.6758 100.604 16.8555C100.836 17.0325 101.12 17.1211 101.456 17.1211C101.805 17.1211 102.096 17.0286 102.331 16.8437C102.565 16.6562 102.742 16.4023 102.862 16.082C102.984 15.7617 103.046 15.401 103.046 15C103.046 14.6041 102.986 14.2487 102.866 13.9336C102.749 13.6185 102.572 13.3698 102.335 13.1875C102.1 13.0052 101.807 12.914 101.456 12.914C101.117 12.914 100.831 13.0013 100.596 13.1758C100.365 13.3502 100.189 13.5937 100.069 13.9062C99.9493 14.2187 99.8894 14.5833 99.8894 15ZM108.061 18.1211C107.499 18.1211 107.008 17.9922 106.589 17.7344C106.169 17.4765 105.844 17.1159 105.612 16.6523C105.38 16.1888 105.264 15.6471 105.264 15.0273C105.264 14.4049 105.38 13.8607 105.612 13.3945C105.844 12.9284 106.169 12.5664 106.589 12.3086C107.008 12.0508 107.499 11.9219 108.061 11.9219C108.624 11.9219 109.115 12.0508 109.534 12.3086C109.953 12.5664 110.279 12.9284 110.51 13.3945C110.742 13.8607 110.858 14.4049 110.858 15.0273C110.858 15.6471 110.742 16.1888 110.51 16.6523C110.279 17.1159 109.953 17.4765 109.534 17.7344C109.115 17.9922 108.624 18.1211 108.061 18.1211ZM108.065 17.1406C108.43 17.1406 108.732 17.0443 108.971 16.8515C109.211 16.6588 109.388 16.4023 109.503 16.082C109.62 15.7617 109.678 15.4088 109.678 15.0234C109.678 14.6406 109.62 14.289 109.503 13.9687C109.388 13.6458 109.211 13.3867 108.971 13.1914C108.732 12.9961 108.43 12.8984 108.065 12.8984C107.698 12.8984 107.393 12.9961 107.151 13.1914C106.912 13.3867 106.733 13.6458 106.616 13.9687C106.501 14.289 106.444 14.6406 106.444 15.0234C106.444 15.4088 106.501 15.7617 106.616 16.082C106.733 16.4023 106.912 16.6588 107.151 16.8515C107.393 17.0443 107.698 17.1406 108.065 17.1406ZM112.162 18V12H113.291V12.9531H113.353C113.463 12.6302 113.655 12.3763 113.931 12.1914C114.21 12.0039 114.525 11.9101 114.877 11.9101C114.95 11.9101 115.036 11.9127 115.135 11.918C115.236 11.9232 115.315 11.9297 115.373 11.9375V13.0547C115.326 13.0416 115.243 13.0273 115.123 13.0117C115.003 12.9935 114.883 12.9844 114.763 12.9844C114.487 12.9844 114.241 13.043 114.025 13.1601C113.812 13.2747 113.642 13.4349 113.517 13.6406C113.392 13.8437 113.33 14.0755 113.33 14.3359V18H112.162ZM119.539 12V12.9375H116.261V12H119.539ZM117.14 10.5625H118.308V16.2383C118.308 16.4648 118.342 16.6354 118.41 16.75C118.478 16.862 118.565 16.9388 118.672 16.9805C118.781 17.0195 118.899 17.039 119.027 17.039C119.121 17.039 119.203 17.0325 119.273 17.0195C119.343 17.0065 119.398 16.9961 119.437 16.9883L119.648 17.9531C119.58 17.9791 119.484 18.0052 119.359 18.0312C119.234 18.0599 119.078 18.0755 118.89 18.0781C118.583 18.0833 118.297 18.0286 118.031 17.914C117.765 17.7995 117.551 17.6224 117.386 17.3828C117.222 17.1432 117.14 16.8424 117.14 16.4805V10.5625Z" fill="#E8E8E8"/>
<path d="M46.6603 31V22.2727H52.6177V23.9858H48.7696V25.7755H52.2384V27.4929H48.7696V31H46.6603ZM56.2547 31.1236C55.5672 31.1236 54.9763 30.9829 54.482 30.7017C53.9905 30.4176 53.6113 30.0227 53.3442 29.517C53.08 29.0085 52.9479 28.419 52.9479 27.7486C52.9479 27.0753 53.08 26.4858 53.3442 25.9801C53.6113 25.4716 53.9905 25.0767 54.482 24.7954C54.9763 24.5113 55.5672 24.3693 56.2547 24.3693C56.9422 24.3693 57.5317 24.5113 58.0232 24.7954C58.5175 25.0767 58.8968 25.4716 59.161 25.9801C59.428 26.4858 59.5615 27.0753 59.5615 27.7486C59.5615 28.419 59.428 29.0085 59.161 29.517C58.8968 30.0227 58.5175 30.4176 58.0232 30.7017C57.5317 30.9829 56.9422 31.1236 56.2547 31.1236ZM56.2675 29.5511C56.5175 29.5511 56.7292 29.4744 56.9025 29.321C57.0757 29.1676 57.2078 28.9545 57.2988 28.6818C57.3925 28.4091 57.4394 28.0937 57.4394 27.7358C57.4394 27.3721 57.3925 27.054 57.2988 26.7812C57.2078 26.5085 57.0757 26.2954 56.9025 26.142C56.7292 25.9886 56.5175 25.9119 56.2675 25.9119C56.009 25.9119 55.7902 25.9886 55.6113 26.142C55.4351 26.2954 55.3002 26.5085 55.2064 26.7812C55.1155 27.054 55.0701 27.3721 55.0701 27.7358C55.0701 28.0937 55.1155 28.4091 55.2064 28.6818C55.3002 28.9545 55.4351 29.1676 55.6113 29.321C55.7902 29.4744 56.009 29.5511 56.2675 29.5511ZM60.629 31V24.4545H62.6532V25.6477H62.7213C62.8407 25.2159 63.0353 24.8949 63.3051 24.6846C63.575 24.4716 63.889 24.365 64.2469 24.365C64.3435 24.365 64.4429 24.3721 64.5452 24.3863C64.6475 24.3977 64.7426 24.4162 64.8307 24.4417V26.2528C64.7313 26.2187 64.6006 26.1917 64.4387 26.1719C64.2796 26.152 64.1375 26.142 64.0125 26.142C63.7654 26.142 63.5424 26.1974 63.3435 26.3082C63.1475 26.4162 62.9926 26.5682 62.879 26.7642C62.7682 26.9574 62.7128 27.1846 62.7128 27.446V31H60.629ZM68.3911 33.5909C67.7689 33.5909 67.2363 33.5042 66.7931 33.3309C66.3499 33.1576 66.0019 32.9204 65.749 32.6193C65.4962 32.3182 65.3442 31.9772 65.2931 31.5966L67.2661 31.4858C67.303 31.6193 67.3712 31.7358 67.4706 31.8352C67.5729 31.9346 67.705 32.0113 67.8669 32.0653C68.0317 32.1193 68.2249 32.1463 68.4465 32.1463C68.7959 32.1463 69.0843 32.0611 69.3115 31.8906C69.5417 31.723 69.6567 31.429 69.6567 31.0085V29.8579H69.5843C69.5019 30.0596 69.3769 30.24 69.2093 30.3991C69.0417 30.5582 68.8328 30.6832 68.5828 30.7741C68.3357 30.865 68.0516 30.9105 67.7306 30.9105C67.2533 30.9105 66.8158 30.7997 66.4181 30.5781C66.0232 30.3537 65.7064 30.0071 65.4678 29.5383C65.232 29.0667 65.1141 28.4602 65.1141 27.7187C65.1141 26.9545 65.2363 26.3253 65.4806 25.8309C65.7249 25.3338 66.0445 24.9659 66.4394 24.7272C66.8371 24.4886 67.2647 24.3693 67.7221 24.3693C68.0658 24.3693 68.3598 24.429 68.6042 24.5483C68.8513 24.6647 69.0544 24.8153 69.2135 25C69.3726 25.1846 69.4934 25.3764 69.5757 25.5753H69.6354V24.4545H71.7107V31.0255C71.7107 31.5795 71.5715 32.0468 71.2931 32.4275C71.0147 32.8082 70.6255 33.0966 70.1255 33.2926C69.6255 33.4915 69.0473 33.5909 68.3911 33.5909ZM68.455 29.3934C68.7078 29.3934 68.9238 29.3267 69.1027 29.1932C69.2817 29.0596 69.4195 28.8679 69.5161 28.6179C69.6127 28.3679 69.661 28.0682 69.661 27.7187C69.661 27.3636 69.6127 27.0582 69.5161 26.8025C69.4223 26.544 69.2846 26.3451 69.1027 26.2059C68.9238 26.0667 68.7078 25.9971 68.455 25.9971C68.1965 25.9971 67.9777 26.0682 67.7988 26.2102C67.6198 26.3522 67.4834 26.5525 67.3897 26.8111C67.2988 27.0667 67.2533 27.3693 67.2533 27.7187C67.2533 28.0682 67.3002 28.3679 67.3939 28.6179C67.4877 28.8679 67.6226 29.0596 67.7988 29.1932C67.9777 29.3267 68.1965 29.3934 68.455 29.3934ZM76.0988 31.1236C75.4142 31.1236 74.8233 30.9886 74.3261 30.7187C73.8318 30.446 73.4511 30.0582 73.1841 29.5554C72.9198 29.0497 72.7877 28.4488 72.7877 27.7528C72.7877 27.0767 72.9213 26.4858 73.1883 25.9801C73.4554 25.4716 73.8318 25.0767 74.3176 24.7954C74.8034 24.5113 75.3758 24.3693 76.0349 24.3693C76.5008 24.3693 76.9269 24.4417 77.3133 24.5866C77.6997 24.7315 78.0335 24.946 78.3147 25.2301C78.596 25.5142 78.8147 25.865 78.971 26.2826C79.1272 26.6974 79.2054 27.1733 79.2054 27.7102V28.2301H73.5164V27.0199H77.2664C77.2636 26.7983 77.211 26.6008 77.1088 26.4275C77.0065 26.2542 76.8659 26.1193 76.6869 26.0227C76.5108 25.9233 76.3076 25.8736 76.0775 25.8736C75.8446 25.8736 75.6358 25.9261 75.4511 26.0312C75.2664 26.1335 75.1201 26.2741 75.0122 26.4531C74.9042 26.6292 74.8474 26.8295 74.8417 27.054V28.2855C74.8417 28.5525 74.8943 28.7869 74.9994 28.9886C75.1045 29.1875 75.2537 29.3423 75.4468 29.4531C75.64 29.5639 75.8701 29.6193 76.1372 29.6193C76.3218 29.6193 76.4894 29.5937 76.64 29.5426C76.7906 29.4915 76.9198 29.4162 77.0278 29.3167C77.1358 29.2173 77.2167 29.0951 77.2707 28.9503L79.1841 29.0057C79.1045 29.4346 78.9298 29.8082 78.6599 30.1264C78.3929 30.4417 78.042 30.6875 77.6073 30.8636C77.1727 31.0369 76.6698 31.1236 76.0988 31.1236Z" fill="#DFA86A"/>
</g>
<rect x="0.749756" y="0.749989" width="129.5" height="38.5" rx="5.25" stroke="white" stroke-opacity="0.15" stroke-width="1.5"/>
<defs>
<filter id="filter0_d_18_3117" x="5.99976" y="1.99998" width="36" height="36" filterUnits="userSpaceOnUse" color-interpolation-filters="sRGB">
<feFlood flood-opacity="0" result="BackgroundImageFix"/>
<feColorMatrix in="SourceAlpha" type="matrix" values="0 0 0 0 0 0 0 0 0 0 0 0 0 0 0 0 0 0 127 0" result="hardAlpha"/>
<feOffset/>
<feGaussianBlur stdDeviation="2"/>
<feComposite in2="hardAlpha" operator="out"/>
<feColorMatrix type="matrix" values="0 0 0 0 0 0 0 0 0 0 0 0 0 0 0 0 0 0 0.25 0"/>
<feBlend mode="normal" in2="BackgroundImageFix" result="effect1_dropShadow_18_3117"/>
<feBlend mode="normal" in="SourceGraphic" in2="effect1_dropShadow_18_3117" result="shape"/>
</filter>
<filter id="filter1_d_18_3117" x="41.9998" y="2.99998" width="83" height="34.5909" filterUnits="userSpaceOnUse" color-interpolation-filters="sRGB">
<feFlood flood-opacity="0" result="BackgroundImageFix"/>
<feColorMatrix in="SourceAlpha" type="matrix" values="0 0 0 0 0 0 0 0 0 0 0 0 0 0 0 0 0 0 127 0" result="hardAlpha"/>
<feOffset/>
<feGaussianBlur stdDeviation="2"/>
<feComposite in2="hardAlpha" operator="out"/>
<feColorMatrix type="matrix" values="0 0 0 0 0 0 0 0 0 0 0 0 0 0 0 0 0 0 0.25 0"/>
<feBlend mode="normal" in2="BackgroundImageFix" result="effect1_dropShadow_18_3117"/>
<feBlend mode="normal" in="SourceGraphic" in2="effect1_dropShadow_18_3117" result="shape"/>
</filter>
<linearGradient id="paint0_linear_18_3117" x1="65.4997" y1="-1.14441e-05" x2="65.4997" y2="40" gradientUnits="userSpaceOnUse">
<stop stop-color="#2C1B1B"/>
<stop offset="1" stop-color="#1F1414"/>
</linearGradient>
</defs>
</svg>
