<svg width="131" height="40" viewBox="0 0 131 40" fill="none" xmlns="http://www.w3.org/2000/svg">
<g clip-path="url(#clip0_18_3135)">
<rect x="-0.000244141" y="-4.57764e-05" width="131" height="40" rx="6" fill="url(#paint0_linear_18_3135)"/>
<g filter="url(#filter0_d_18_3135)">
<path d="M17.7848 9.87545C17.7849 10.0066 17.8371 10.1324 17.9298 10.2252C18.0226 10.3179 18.1484 10.3701 18.2796 10.3702H19.121V12.2509H18.2796C18.1483 12.2509 18.0225 12.3031 17.9297 12.3959C17.8369 12.4887 17.7848 12.6145 17.7848 12.7457C17.7848 12.877 17.8369 13.0028 17.9297 13.0956C18.0225 13.1884 18.1483 13.2405 18.2796 13.2405H19.121V14.6828C19.121 14.7991 19.0748 14.9106 18.9926 14.9928C18.9103 15.075 18.7988 15.1212 18.6826 15.1212H17.2403V14.2798C17.2403 14.1486 17.1881 14.0228 17.0954 13.93C17.0026 13.8372 16.8767 13.785 16.7455 13.785C16.6143 13.785 16.4884 13.8372 16.3956 13.93C16.3028 14.0228 16.2507 14.1486 16.2507 14.2798V15.1212H14.37V14.2798C14.37 14.1486 14.3179 14.0228 14.2251 13.93C14.1323 13.8372 14.0065 13.785 13.8752 13.785C13.744 13.785 13.6181 13.8372 13.5254 13.93C13.4326 14.0228 13.3804 14.1486 13.3804 14.2798V15.1212H11.9381C11.8219 15.1211 11.7105 15.0749 11.6283 14.9927C11.5461 14.9105 11.4999 14.7991 11.4998 14.6828V7.93834C11.4998 7.82207 11.5459 7.71057 11.6282 7.62835C11.7104 7.54614 11.8219 7.49995 11.9381 7.49995H18.6826C18.7402 7.49989 18.7972 7.51119 18.8504 7.5332C18.9036 7.5552 18.952 7.58749 18.9927 7.62821C19.0334 7.66893 19.0657 7.71729 19.0877 7.7705C19.1097 7.82372 19.121 7.88075 19.121 7.93834V9.38018H18.2796C18.1483 9.3803 18.0225 9.43254 17.9297 9.52541C17.8369 9.61827 17.7848 9.74418 17.7848 9.87545V9.87545Z" fill="#9722FF"/>
<path d="M26.3946 9.87545C26.3946 10.0067 26.4467 10.1325 26.5395 10.2253C26.6323 10.3181 26.7581 10.3702 26.8893 10.3702H27.7331V12.2509H26.8917C26.7605 12.2509 26.6347 12.3031 26.5419 12.3959C26.4491 12.4887 26.3969 12.6145 26.3969 12.7457C26.3969 12.877 26.4491 13.0028 26.5419 13.0956C26.6347 13.1884 26.7605 13.2405 26.8917 13.2405H27.7331V14.6828C27.733 14.7991 27.6868 14.9105 27.6046 14.9927C27.5224 15.0749 27.411 15.1211 27.2947 15.1212H20.5493C20.4331 15.1212 20.3216 15.075 20.2394 14.9928C20.1571 14.9106 20.111 14.7991 20.111 14.6828V13.2405H20.9519C21.0831 13.2405 21.2089 13.1884 21.3017 13.0956C21.3945 13.0028 21.4467 12.877 21.4467 12.7457C21.4467 12.6145 21.3945 12.4887 21.3017 12.3959C21.2089 12.3031 21.0831 12.2509 20.9519 12.2509H20.111V10.3702H20.9519C21.0182 10.3723 21.0842 10.361 21.1461 10.3371C21.2079 10.3131 21.2643 10.277 21.312 10.2308C21.3596 10.1846 21.3975 10.1294 21.4233 10.0683C21.4492 10.0072 21.4625 9.94154 21.4625 9.87521C21.4625 9.80887 21.4492 9.74322 21.4233 9.68213C21.3975 9.62104 21.3596 9.56577 21.312 9.5196C21.2643 9.47343 21.2079 9.4373 21.1461 9.41334C21.0842 9.38939 21.0182 9.37811 20.9519 9.38018H20.111V7.93834C20.1109 7.88075 20.1222 7.82372 20.1442 7.7705C20.1662 7.71729 20.1985 7.66893 20.2392 7.62821C20.2799 7.58749 20.3283 7.5552 20.3815 7.5332C20.4347 7.51119 20.4918 7.49989 20.5493 7.49995H27.2938C27.41 7.49995 27.5216 7.54614 27.6038 7.62835C27.686 7.71057 27.7322 7.82207 27.7322 7.93834V9.38018H26.8908C26.8256 9.37999 26.7611 9.39266 26.7009 9.41747C26.6407 9.44228 26.5859 9.47874 26.5398 9.52476C26.4937 9.57077 26.4571 9.62544 26.4322 9.68562C26.4073 9.7458 26.3945 9.81031 26.3946 9.87545V9.87545Z" fill="#DC29DD"/>
<path d="M36.343 7.93834V14.6828C36.343 14.7991 36.2968 14.9106 36.2146 14.9928C36.1324 15.075 36.0209 15.1212 35.9046 15.1212H34.4623V14.2798C34.4623 14.1486 34.4102 14.0228 34.3174 13.93C34.2246 13.8372 34.0988 13.785 33.9675 13.785C33.8363 13.785 33.7105 13.8372 33.6177 13.93C33.5249 14.0228 33.4727 14.1486 33.4727 14.2798V15.1212H31.5921V14.2798C31.5921 14.1486 31.5399 14.0228 31.4471 13.93C31.3543 13.8372 31.2285 13.785 31.0973 13.785C30.966 13.785 30.8402 13.8372 30.7474 13.93C30.6546 14.0228 30.6025 14.1486 30.6025 14.2798V15.1212H29.1602C29.044 15.1211 28.9325 15.0749 28.8503 14.9927C28.7682 14.9105 28.7219 14.7991 28.7218 14.6828V13.2405H29.5632C29.6944 13.2405 29.8203 13.1884 29.9131 13.0956C30.0058 13.0028 30.058 12.877 30.058 12.7457C30.058 12.6145 30.0058 12.4887 29.9131 12.3959C29.8203 12.3031 29.6944 12.2509 29.5632 12.2509H28.7218V10.3702H29.5632C29.6918 10.3662 29.8138 10.3123 29.9034 10.2199C29.993 10.1275 30.0431 10.0039 30.0431 9.87521C30.0431 9.74652 29.993 9.62288 29.9034 9.53048C29.8138 9.43808 29.6918 9.38417 29.5632 9.38018H28.7218V7.93834C28.7218 7.82207 28.768 7.71057 28.8502 7.62835C28.9324 7.54614 29.0439 7.49995 29.1602 7.49995H35.9046C35.9622 7.49989 36.0192 7.51119 36.0725 7.5332C36.1257 7.5552 36.174 7.58749 36.2147 7.62821C36.2555 7.66893 36.2878 7.71729 36.3098 7.7705C36.3318 7.82372 36.3431 7.88075 36.343 7.93834Z" fill="#27A2FD"/>
<path d="M19.121 16.5492V23.2937C19.121 23.3513 19.1097 23.4083 19.0877 23.4616C19.0657 23.5148 19.0334 23.5631 18.9927 23.6038C18.952 23.6446 18.9036 23.6769 18.8504 23.6989C18.7972 23.7209 18.7402 23.7322 18.6826 23.7321H17.2403V22.8907C17.2403 22.7595 17.1881 22.6336 17.0954 22.5408C17.0026 22.448 16.8767 22.3959 16.7455 22.3959C16.6143 22.3959 16.4884 22.448 16.3956 22.5408C16.3028 22.6336 16.2507 22.7595 16.2507 22.8907V23.7331H14.37V22.8917C14.37 22.7604 14.3179 22.6346 14.2251 22.5418C14.1323 22.449 14.0065 22.3969 13.8752 22.3969C13.744 22.3969 13.6181 22.449 13.5254 22.5418C13.4326 22.6346 13.3804 22.7604 13.3804 22.8917V23.7331H11.9381C11.8219 23.7331 11.7104 23.6869 11.6282 23.6047C11.5459 23.5224 11.4998 23.4109 11.4998 23.2947V16.5492C11.4999 16.433 11.5461 16.3215 11.6283 16.2394C11.7105 16.1572 11.8219 16.111 11.9381 16.1108H13.3804V16.9522C13.3804 17.0834 13.4326 17.2093 13.5254 17.3021C13.6181 17.3949 13.744 17.447 13.8752 17.447C14.0065 17.447 14.1323 17.3949 14.2251 17.3021C14.3179 17.2093 14.37 17.0834 14.37 16.9522V16.1108H16.2507V16.9522C16.2507 17.0834 16.3028 17.2093 16.3956 17.3021C16.4884 17.3949 16.6143 17.447 16.7455 17.447C16.8767 17.447 17.0026 17.3949 17.0954 17.3021C17.1881 17.2093 17.2403 17.0834 17.2403 16.9522V16.1108H18.6826C18.7401 16.1108 18.7971 16.1222 18.8503 16.1442C18.9035 16.1662 18.9518 16.1985 18.9926 16.2392C19.0333 16.2799 19.0656 16.3283 19.0876 16.3814C19.1096 16.4346 19.121 16.4916 19.121 16.5492V16.5492Z" fill="#DC29DD"/>
<path d="M26.3946 18.4863C26.3946 18.6175 26.4467 18.7434 26.5395 18.8362C26.6323 18.929 26.7581 18.9811 26.8893 18.9811H27.7331V20.8618H26.8917C26.7605 20.8618 26.6347 20.9139 26.5419 21.0067C26.4491 21.0995 26.3969 21.2254 26.3969 21.3566C26.3969 21.4878 26.4491 21.6137 26.5419 21.7065C26.6347 21.7993 26.7605 21.8514 26.8917 21.8514H27.7331V23.2937C27.7331 23.41 27.6869 23.5215 27.6047 23.6037C27.5225 23.6859 27.411 23.7321 27.2947 23.7321H25.8515V22.8907C25.8515 22.7595 25.7994 22.6336 25.7066 22.5408C25.6138 22.448 25.4879 22.3959 25.3567 22.3959C25.2255 22.3959 25.0996 22.448 25.0068 22.5408C24.914 22.6336 24.8619 22.7595 24.8619 22.8907V23.7331H22.9812V22.8917C22.9772 22.763 22.9233 22.641 22.8309 22.5514C22.7385 22.4619 22.6149 22.4118 22.4862 22.4118C22.3575 22.4118 22.2339 22.4619 22.1415 22.5514C22.0491 22.641 21.9952 22.763 21.9912 22.8917V23.7331H20.5493C20.4918 23.7331 20.4347 23.7218 20.3815 23.6998C20.3283 23.6778 20.2799 23.6455 20.2392 23.6048C20.1985 23.5641 20.1662 23.5157 20.1442 23.4625C20.1222 23.4093 20.1109 23.3523 20.111 23.2947V16.5492C20.111 16.4329 20.1571 16.3214 20.2394 16.2392C20.3216 16.157 20.4331 16.1108 20.5493 16.1108H27.2938C27.41 16.111 27.5214 16.1572 27.6036 16.2394C27.6858 16.3215 27.732 16.433 27.7322 16.5492V17.9915H26.8908C26.8257 17.9913 26.7612 18.004 26.701 18.0288C26.6408 18.0536 26.5861 18.09 26.54 18.1359C26.4939 18.1819 26.4573 18.2365 26.4324 18.2966C26.4074 18.3568 26.3946 18.4212 26.3946 18.4863V18.4863Z" fill="#27A2FD"/>
<path d="M36.343 16.5492V23.2937C36.3431 23.3513 36.3318 23.4083 36.3098 23.4616C36.2878 23.5148 36.2555 23.5631 36.2147 23.6038C36.174 23.6446 36.1257 23.6769 36.0725 23.6989C36.0192 23.7209 35.9622 23.7322 35.9046 23.7321H29.1602C29.0439 23.7321 28.9324 23.6859 28.8502 23.6037C28.768 23.5215 28.7218 23.41 28.7218 23.2937V21.8514H29.5632C29.6944 21.8514 29.8203 21.7993 29.9131 21.7065C30.0058 21.6137 30.058 21.4878 30.058 21.3566C30.058 21.2254 30.0058 21.0995 29.9131 21.0067C29.8203 20.9139 29.6944 20.8618 29.5632 20.8618H28.7218V18.9811H29.5632C29.6944 18.9811 29.8203 18.929 29.9131 18.8362C30.0058 18.7434 30.058 18.6175 30.058 18.4863C30.058 18.3551 30.0058 18.2292 29.9131 18.1364C29.8203 18.0437 29.6944 17.9915 29.5632 17.9915H28.7218V16.5492C28.7219 16.433 28.7682 16.3216 28.8503 16.2394C28.9325 16.1572 29.044 16.111 29.1602 16.1108H30.6015V16.9522C30.6015 17.0834 30.6537 17.2093 30.7464 17.3021C30.8392 17.3949 30.9651 17.447 31.0963 17.447C31.2275 17.447 31.3534 17.3949 31.4462 17.3021C31.539 17.2093 31.5911 17.0834 31.5911 16.9522V16.1108H33.4718V16.9522C33.4718 17.0834 33.5239 17.2093 33.6167 17.3021C33.7095 17.3949 33.8353 17.447 33.9666 17.447C34.0978 17.447 34.2237 17.3949 34.3164 17.3021C34.4092 17.2093 34.4614 17.0834 34.4614 16.9522V16.1108H35.9037C35.9613 16.1107 36.0184 16.1219 36.0717 16.1439C36.125 16.1659 36.1735 16.1982 36.2143 16.2389C36.2551 16.2796 36.2874 16.328 36.3095 16.3812C36.3316 16.4345 36.343 16.4916 36.343 16.5492Z" fill="#3344FF"/>
<path d="M17.7848 27.0977C17.7849 27.2289 17.8371 27.3546 17.9298 27.4474C18.0226 27.5402 18.1484 27.5923 18.2796 27.5925H19.121V29.4727H18.2796C18.1509 29.4767 18.0289 29.5306 17.9394 29.623C17.8498 29.7154 17.7997 29.839 17.7997 29.9677C17.7997 30.0964 17.8498 30.22 17.9394 30.3124C18.0289 30.4048 18.1509 30.4587 18.2796 30.4627H19.121V31.9051C19.121 32.0213 19.0748 32.1328 18.9926 32.215C18.9103 32.2973 18.7988 32.3434 18.6826 32.3434H11.9381C11.8219 32.3433 11.7105 32.2971 11.6283 32.2149C11.5461 32.1327 11.4999 32.0213 11.4998 31.9051V25.1606C11.4998 25.0443 11.5459 24.9328 11.6282 24.8506C11.7104 24.7684 11.8219 24.7222 11.9381 24.7222H13.3804V25.5631C13.3804 25.6943 13.4326 25.8202 13.5254 25.913C13.6181 26.0057 13.744 26.0579 13.8752 26.0579C14.0065 26.0579 14.1323 26.0057 14.2251 25.913C14.3179 25.8202 14.37 25.6943 14.37 25.5631V24.7222H16.2507V25.5631C16.2507 25.6943 16.3028 25.8202 16.3956 25.913C16.4884 26.0057 16.6143 26.0579 16.7455 26.0579C16.8767 26.0579 17.0026 26.0057 17.0954 25.913C17.1881 25.8202 17.2403 25.6943 17.2403 25.5631V24.7222H18.6826C18.7402 24.7221 18.7972 24.7334 18.8504 24.7554C18.9036 24.7774 18.952 24.8097 18.9927 24.8504C19.0334 24.8911 19.0657 24.9395 19.0877 24.9927C19.1097 25.0459 19.121 25.103 19.121 25.1606V26.6014H18.2796C18.2145 26.6015 18.1501 26.6144 18.09 26.6394C18.0299 26.6643 17.9753 26.7009 17.9293 26.747C17.8834 26.7931 17.847 26.8478 17.8222 26.9079C17.7974 26.9681 17.7847 27.0326 17.7848 27.0977Z" fill="#9722FF"/>
<path d="M27.7331 25.1606V31.9051C27.733 32.0213 27.6868 32.1327 27.6046 32.2149C27.5224 32.2971 27.411 32.3433 27.2947 32.3434H20.5493C20.4331 32.3434 20.3216 32.2973 20.2394 32.215C20.1571 32.1328 20.111 32.0213 20.111 31.9051V30.4627H20.9519C21.0182 30.4648 21.0842 30.4535 21.1461 30.4296C21.2079 30.4056 21.2643 30.3695 21.312 30.3233C21.3596 30.2771 21.3975 30.2219 21.4233 30.1608C21.4492 30.0997 21.4625 30.034 21.4625 29.9677C21.4625 29.9014 21.4492 29.8357 21.4233 29.7746C21.3975 29.7135 21.3596 29.6583 21.312 29.6121C21.2643 29.5659 21.2079 29.5298 21.1461 29.5058C21.0842 29.4819 21.0182 29.4706 20.9519 29.4727H20.111V27.5925H20.9519C21.0182 27.5945 21.0842 27.5832 21.1461 27.5593C21.2079 27.5353 21.2643 27.4992 21.312 27.453C21.3596 27.4069 21.3975 27.3516 21.4233 27.2905C21.4492 27.2294 21.4625 27.1638 21.4625 27.0974C21.4625 27.0311 21.4492 26.9654 21.4233 26.9043C21.3975 26.8433 21.3596 26.788 21.312 26.7418C21.2643 26.6956 21.2079 26.6595 21.1461 26.6356C21.0842 26.6116 21.0182 26.6003 20.9519 26.6024H20.111V25.1606C20.1109 25.103 20.1222 25.0459 20.1442 24.9927C20.1662 24.9395 20.1985 24.8911 20.2392 24.8504C20.2799 24.8097 20.3283 24.7774 20.3815 24.7554C20.4347 24.7334 20.4918 24.7221 20.5493 24.7222H21.9912V25.5631C21.9891 25.6294 22.0004 25.6954 22.0243 25.7573C22.0483 25.8191 22.0844 25.8756 22.1306 25.9232C22.1768 25.9708 22.232 26.0087 22.2931 26.0346C22.3542 26.0604 22.4199 26.0737 22.4862 26.0737C22.5525 26.0737 22.6182 26.0604 22.6793 26.0346C22.7404 26.0087 22.7956 25.9708 22.8418 25.9232C22.888 25.8756 22.9241 25.8191 22.9481 25.7573C22.972 25.6954 22.9833 25.6294 22.9812 25.5631V24.7222H24.8619V25.5631C24.8619 25.6281 24.8747 25.6924 24.8996 25.7524C24.9244 25.8125 24.9609 25.867 25.0068 25.913C25.0528 25.9589 25.1073 25.9953 25.1673 26.0202C25.2274 26.0451 25.2917 26.0579 25.3567 26.0579C25.4217 26.0579 25.486 26.0451 25.546 26.0202C25.6061 25.9953 25.6606 25.9589 25.7066 25.913C25.7525 25.867 25.789 25.8125 25.8138 25.7524C25.8387 25.6924 25.8515 25.6281 25.8515 25.5631V24.7222H27.2938C27.3514 24.722 27.4085 24.7333 27.4618 24.7553C27.5151 24.7772 27.5636 24.8095 27.6044 24.8502C27.6452 24.891 27.6776 24.9393 27.6997 24.9926C27.7217 25.0458 27.7331 25.1029 27.7331 25.1606V25.1606Z" fill="#3344FF"/>
<path d="M33.8007 25.0318L29.0317 29.8009C28.8605 29.9721 28.8605 30.2497 29.0317 30.4209L33.8007 35.19C33.9719 35.3612 34.2495 35.3612 34.4207 35.19L39.1897 30.4209C39.3609 30.2497 39.3609 29.9721 39.1897 29.8009L34.4207 25.0318C34.2495 24.8606 33.9719 24.8606 33.8007 25.0318Z" fill="#9722FF"/>
</g>
<g filter="url(#filter1_d_18_3135)">
<path d="M48.4451 18L46.2263 9.99995H47.4958L49.0544 16.1953H49.1287L50.7498 9.99995H52.0076L53.6287 16.1992H53.7029L55.2576 9.99995H56.531L54.3083 18H53.0935L51.4099 12.0078H51.3474L49.6638 18H48.4451ZM59.4744 18.121C58.9119 18.121 58.421 17.9921 58.0017 17.7343C57.5824 17.4765 57.2569 17.1158 57.0251 16.6523C56.7934 16.1888 56.6775 15.6471 56.6775 15.0273C56.6775 14.4049 56.7934 13.8606 57.0251 13.3945C57.2569 12.9283 57.5824 12.5664 58.0017 12.3085C58.421 12.0507 58.9119 11.9218 59.4744 11.9218C60.0369 11.9218 60.5277 12.0507 60.947 12.3085C61.3663 12.5664 61.6918 12.9283 61.9236 13.3945C62.1554 13.8606 62.2712 14.4049 62.2712 15.0273C62.2712 15.6471 62.1554 16.1888 61.9236 16.6523C61.6918 17.1158 61.3663 17.4765 60.947 17.7343C60.5277 17.9921 60.0369 18.121 59.4744 18.121ZM59.4783 17.1406C59.8429 17.1406 60.1449 17.0442 60.3845 16.8515C60.6241 16.6588 60.8012 16.4023 60.9158 16.082C61.033 15.7617 61.0915 15.4088 61.0915 15.0234C61.0915 14.6406 61.033 14.289 60.9158 13.9687C60.8012 13.6458 60.6241 13.3867 60.3845 13.1914C60.1449 12.996 59.8429 12.8984 59.4783 12.8984C59.1111 12.8984 58.8064 12.996 58.5642 13.1914C58.3246 13.3867 58.1462 13.6458 58.029 13.9687C57.9145 14.289 57.8572 14.6406 57.8572 15.0234C57.8572 15.4088 57.9145 15.7617 58.029 16.082C58.1462 16.4023 58.3246 16.6588 58.5642 16.8515C58.8064 17.0442 59.1111 17.1406 59.4783 17.1406ZM64.7429 14.4375V18H63.5749V12H64.696V12.9765H64.7703C64.9083 12.6588 65.1244 12.4036 65.4187 12.2109C65.7156 12.0182 66.0893 11.9218 66.5398 11.9218C66.9486 11.9218 67.3067 12.0078 67.614 12.1796C67.9213 12.3489 68.1596 12.6015 68.3289 12.9375C68.4981 13.2734 68.5828 13.6888 68.5828 14.1835V18H67.4148V14.3242C67.4148 13.8893 67.3015 13.5494 67.0749 13.3046C66.8484 13.0572 66.5372 12.9335 66.1414 12.9335C65.8705 12.9335 65.6296 12.9921 65.4187 13.1093C65.2104 13.2265 65.045 13.3984 64.9226 13.625C64.8028 13.8489 64.7429 14.1197 64.7429 14.4375ZM71.1531 9.99995V10.75C71.1531 10.9713 71.1114 11.2044 71.0281 11.4492C70.9473 11.6914 70.8328 11.9244 70.6843 12.1484C70.5359 12.3723 70.3614 12.5651 70.1609 12.7265L69.5828 12.3125C69.7364 12.0885 69.8692 11.8502 69.9812 11.5976C70.0958 11.345 70.1531 11.0664 70.1531 10.7617V9.99995H71.1531ZM75.3132 12V12.9375H72.0359V12H75.3132ZM72.9148 10.5625H74.0828V16.2382C74.0828 16.4648 74.1166 16.6354 74.1843 16.75C74.252 16.8619 74.3393 16.9388 74.446 16.9804C74.5554 17.0195 74.6739 17.039 74.8015 17.039C74.8953 17.039 74.9773 17.0325 75.0476 17.0195C75.1179 17.0065 75.1726 16.996 75.2117 16.9882L75.4226 17.9531C75.3549 17.9791 75.2585 18.0052 75.1335 18.0312C75.0085 18.0598 74.8523 18.0755 74.6648 18.0781C74.3575 18.0833 74.071 18.0286 73.8054 17.914C73.5398 17.7994 73.3249 17.6223 73.1609 17.3828C72.9968 17.1432 72.9148 16.8424 72.9148 16.4804V10.5625ZM84.0124 13.4648L82.9538 13.6523C82.9096 13.5169 82.8393 13.388 82.7429 13.2656C82.6492 13.1432 82.5216 13.0429 82.3601 12.9648C82.1986 12.8867 81.9968 12.8476 81.7546 12.8476C81.4239 12.8476 81.1479 12.9218 80.9265 13.0703C80.7051 13.2161 80.5945 13.4049 80.5945 13.6367C80.5945 13.8372 80.6687 13.9987 80.8171 14.121C80.9656 14.2434 81.2051 14.3437 81.5359 14.4218L82.489 14.6406C83.0411 14.7682 83.4525 14.9648 83.7234 15.2304C83.9942 15.496 84.1296 15.8411 84.1296 16.2656C84.1296 16.625 84.0255 16.9453 83.8171 17.2265C83.6114 17.5052 83.3236 17.7239 82.9538 17.8828C82.5867 18.0416 82.1609 18.121 81.6765 18.121C81.0046 18.121 80.4565 17.9778 80.032 17.6914C79.6075 17.4023 79.3471 16.9921 79.2507 16.4609L80.3796 16.289C80.4499 16.5833 80.5945 16.8059 80.8132 16.957C81.032 17.1054 81.3171 17.1796 81.6687 17.1796C82.0515 17.1796 82.3575 17.1002 82.5867 16.9414C82.8158 16.7799 82.9304 16.5833 82.9304 16.3515C82.9304 16.164 82.8601 16.0065 82.7195 15.8789C82.5815 15.7513 82.3692 15.6549 82.0828 15.5898L81.0671 15.3671C80.5072 15.2395 80.0932 15.0364 79.8249 14.7578C79.5593 14.4791 79.4265 14.1263 79.4265 13.6992C79.4265 13.345 79.5255 13.0351 79.7234 12.7695C79.9213 12.5039 80.1947 12.2968 80.5437 12.1484C80.8926 11.9973 81.2924 11.9218 81.7429 11.9218C82.3913 11.9218 82.9018 12.0625 83.2742 12.3437C83.6466 12.6223 83.8926 12.996 84.0124 13.4648ZM89.2146 15.5117V12H90.3865V18H89.238V16.9609H89.1755C89.0375 17.2812 88.8161 17.5481 88.5115 17.7617C88.2094 17.9726 87.8331 18.0781 87.3826 18.0781C86.9971 18.0781 86.656 17.9934 86.3591 17.8242C86.0648 17.6523 85.8331 17.3984 85.6638 17.0625C85.4971 16.7265 85.4138 16.3111 85.4138 15.8164V12H86.5818V15.6757C86.5818 16.0846 86.6951 16.4101 86.9216 16.6523C87.1482 16.8945 87.4425 17.0156 87.8044 17.0156C88.0232 17.0156 88.2406 16.9609 88.4568 16.8515C88.6755 16.7421 88.8565 16.5768 88.9997 16.3554C89.1456 16.1341 89.2172 15.8528 89.2146 15.5117ZM91.9558 20.25V12H93.0964V12.9726H93.1941C93.2618 12.8476 93.3594 12.7031 93.487 12.539C93.6147 12.375 93.7917 12.2317 94.0183 12.1093C94.2449 11.9843 94.5443 11.9218 94.9167 11.9218C95.4011 11.9218 95.8334 12.0442 96.2136 12.289C96.5938 12.5338 96.892 12.8867 97.1081 13.3476C97.3269 13.8085 97.4363 14.3632 97.4363 15.0117C97.4363 15.6601 97.3282 16.2161 97.112 16.6796C96.8959 17.1406 96.599 17.496 96.2214 17.746C95.8438 17.9934 95.4128 18.1171 94.9285 18.1171C94.5639 18.1171 94.2657 18.0559 94.0339 17.9335C93.8048 17.8111 93.6251 17.6679 93.4949 17.5039C93.3647 17.3398 93.2644 17.194 93.1941 17.0664H93.1238V20.25H91.9558ZM93.1003 15C93.1003 15.4218 93.1615 15.7916 93.2839 16.1093C93.4063 16.427 93.5834 16.6757 93.8152 16.8554C94.0469 17.0325 94.3308 17.121 94.6667 17.121C95.0157 17.121 95.3074 17.0286 95.5417 16.8437C95.7761 16.6562 95.9532 16.4023 96.073 16.082C96.1954 15.7617 96.2566 15.401 96.2566 15C96.2566 14.6041 96.1967 14.2486 96.0769 13.9335C95.9597 13.6184 95.7826 13.3697 95.5456 13.1875C95.3113 13.0052 95.0183 12.914 94.6667 12.914C94.3282 12.914 94.0417 13.0013 93.8074 13.1757C93.5756 13.3502 93.3998 13.5937 93.28 13.9062C93.1602 14.2187 93.1003 14.5833 93.1003 15ZM98.7449 20.25V12H99.8855V12.9726H99.9831C100.051 12.8476 100.149 12.7031 100.276 12.539C100.404 12.375 100.581 12.2317 100.807 12.1093C101.034 11.9843 101.333 11.9218 101.706 11.9218C102.19 11.9218 102.622 12.0442 103.003 12.289C103.383 12.5338 103.681 12.8867 103.897 13.3476C104.116 13.8085 104.225 14.3632 104.225 15.0117C104.225 15.6601 104.117 16.2161 103.901 16.6796C103.685 17.1406 103.388 17.496 103.01 17.746C102.633 17.9934 102.202 18.1171 101.718 18.1171C101.353 18.1171 101.055 18.0559 100.823 17.9335C100.594 17.8111 100.414 17.6679 100.284 17.5039C100.154 17.3398 100.053 17.194 99.9831 17.0664H99.9128V20.25H98.7449ZM99.8894 15C99.8894 15.4218 99.9506 15.7916 100.073 16.1093C100.195 16.427 100.372 16.6757 100.604 16.8554C100.836 17.0325 101.12 17.121 101.456 17.121C101.805 17.121 102.096 17.0286 102.331 16.8437C102.565 16.6562 102.742 16.4023 102.862 16.082C102.984 15.7617 103.046 15.401 103.046 15C103.046 14.6041 102.986 14.2486 102.866 13.9335C102.749 13.6184 102.572 13.3697 102.335 13.1875C102.1 13.0052 101.807 12.914 101.456 12.914C101.117 12.914 100.831 13.0013 100.596 13.1757C100.365 13.3502 100.189 13.5937 100.069 13.9062C99.9493 14.2187 99.8894 14.5833 99.8894 15ZM108.061 18.121C107.499 18.121 107.008 17.9921 106.589 17.7343C106.169 17.4765 105.844 17.1158 105.612 16.6523C105.38 16.1888 105.264 15.6471 105.264 15.0273C105.264 14.4049 105.38 13.8606 105.612 13.3945C105.844 12.9283 106.169 12.5664 106.589 12.3085C107.008 12.0507 107.499 11.9218 108.061 11.9218C108.624 11.9218 109.115 12.0507 109.534 12.3085C109.953 12.5664 110.279 12.9283 110.51 13.3945C110.742 13.8606 110.858 14.4049 110.858 15.0273C110.858 15.6471 110.742 16.1888 110.51 16.6523C110.279 17.1158 109.953 17.4765 109.534 17.7343C109.115 17.9921 108.624 18.121 108.061 18.121ZM108.065 17.1406C108.43 17.1406 108.732 17.0442 108.971 16.8515C109.211 16.6588 109.388 16.4023 109.503 16.082C109.62 15.7617 109.678 15.4088 109.678 15.0234C109.678 14.6406 109.62 14.289 109.503 13.9687C109.388 13.6458 109.211 13.3867 108.971 13.1914C108.732 12.996 108.43 12.8984 108.065 12.8984C107.698 12.8984 107.393 12.996 107.151 13.1914C106.912 13.3867 106.733 13.6458 106.616 13.9687C106.501 14.289 106.444 14.6406 106.444 15.0234C106.444 15.4088 106.501 15.7617 106.616 16.082C106.733 16.4023 106.912 16.6588 107.151 16.8515C107.393 17.0442 107.698 17.1406 108.065 17.1406ZM112.162 18V12H113.291V12.9531H113.353C113.463 12.6302 113.655 12.3763 113.931 12.1914C114.21 12.0039 114.525 11.9101 114.877 11.9101C114.95 11.9101 115.036 11.9127 115.135 11.9179C115.236 11.9231 115.315 11.9296 115.373 11.9375V13.0546C115.326 13.0416 115.243 13.0273 115.123 13.0117C115.003 12.9934 114.883 12.9843 114.763 12.9843C114.487 12.9843 114.241 13.0429 114.025 13.1601C113.812 13.2747 113.642 13.4348 113.517 13.6406C113.392 13.8437 113.33 14.0755 113.33 14.3359V18H112.162ZM119.539 12V12.9375H116.261V12H119.539ZM117.14 10.5625H118.308V16.2382C118.308 16.4648 118.342 16.6354 118.41 16.75C118.478 16.8619 118.565 16.9388 118.672 16.9804C118.781 17.0195 118.899 17.039 119.027 17.039C119.121 17.039 119.203 17.0325 119.273 17.0195C119.343 17.0065 119.398 16.996 119.437 16.9882L119.648 17.9531C119.58 17.9791 119.484 18.0052 119.359 18.0312C119.234 18.0598 119.078 18.0755 118.89 18.0781C118.583 18.0833 118.297 18.0286 118.031 17.914C117.765 17.7994 117.551 17.6223 117.386 17.3828C117.222 17.1432 117.14 16.8424 117.14 16.4804V10.5625Z" fill="#E8E8E8"/>
<path d="M49.9969 27.8636H51.7015L52.4259 28.7883L53.3762 29.8792L54.8378 31.6818H52.9287L51.906 30.4588L51.3009 29.5894L49.9969 27.8636ZM54.8975 26.6363C54.8975 27.5965 54.7128 28.4105 54.3435 29.0781C53.9742 29.7457 53.4742 30.2528 52.8435 30.5994C52.2157 30.946 51.5111 31.1193 50.7299 31.1193C49.9458 31.1193 49.2398 30.9446 48.612 30.5951C47.9841 30.2457 47.4856 29.7386 47.1162 29.0738C46.7498 28.4062 46.5665 27.5937 46.5665 26.6363C46.5665 25.6761 46.7498 24.8622 47.1162 24.1946C47.4856 23.5269 47.9841 23.0198 48.612 22.6732C49.2398 22.3267 49.9458 22.1534 50.7299 22.1534C51.5111 22.1534 52.2157 22.3267 52.8435 22.6732C53.4742 23.0198 53.9742 23.5269 54.3435 24.1946C54.7128 24.8622 54.8975 25.6761 54.8975 26.6363ZM52.7412 26.6363C52.7412 26.0681 52.6603 25.588 52.4983 25.196C52.3392 24.8039 52.1091 24.5071 51.808 24.3054C51.5097 24.1036 51.1503 24.0028 50.7299 24.0028C50.3123 24.0028 49.9529 24.1036 49.6517 24.3054C49.3506 24.5071 49.1191 24.8039 48.9571 25.196C48.7981 25.588 48.7185 26.0681 48.7185 26.6363C48.7185 27.2045 48.7981 27.6846 48.9571 28.0767C49.1191 28.4687 49.3506 28.7656 49.6517 28.9673C49.9529 29.169 50.3123 29.2698 50.7299 29.2698C51.1503 29.2698 51.5097 29.169 51.808 28.9673C52.1091 28.7656 52.3392 28.4687 52.4983 28.0767C52.6603 27.6846 52.7412 27.2045 52.7412 26.6363ZM60.3637 28.1747V24.4545H62.4433V31H60.4575V29.7812H60.3893C60.2444 30.1818 59.9973 30.5 59.6478 30.7357C59.3012 30.9687 58.8822 31.0852 58.3907 31.0852C57.9447 31.0852 57.5527 30.9829 57.2146 30.7784C56.8765 30.5738 56.6137 30.2883 56.4262 29.9218C56.2387 29.5525 56.1436 29.1207 56.1407 28.6264V24.4545H58.2245V28.2173C58.2274 28.5724 58.3211 28.8522 58.5058 29.0568C58.6904 29.2613 58.9419 29.3636 59.2601 29.3636C59.4674 29.3636 59.6535 29.3181 59.8183 29.2272C59.9859 29.1335 60.118 28.9985 60.2146 28.8224C60.314 28.6434 60.3637 28.4275 60.3637 28.1747ZM63.7696 31V24.4545H65.8534V31H63.7696ZM64.8137 23.6917C64.5211 23.6917 64.2696 23.5951 64.0594 23.4019C63.8492 23.2059 63.7441 22.9701 63.7441 22.6946C63.7441 22.4218 63.8492 22.1889 64.0594 21.9957C64.2696 21.7997 64.5211 21.7017 64.8137 21.7017C65.1091 21.7017 65.3605 21.7997 65.5679 21.9957C65.7782 22.1889 65.8833 22.4218 65.8833 22.6946C65.8833 22.9701 65.7782 23.2059 65.5679 23.4019C65.3605 23.5951 65.1091 23.6917 64.8137 23.6917ZM69.2636 22.2727V31H67.1798V22.2727H69.2636ZM74.2845 24.4545V25.9886H70.1553V24.4545H74.2845ZM71.0203 22.8863H73.1042V28.9417C73.1042 29.0696 73.124 29.1732 73.1638 29.2528C73.2064 29.3295 73.2675 29.3849 73.347 29.419C73.4266 29.4502 73.5218 29.4659 73.6326 29.4659C73.7121 29.4659 73.7959 29.4588 73.884 29.4446C73.9749 29.4275 74.0431 29.4133 74.0885 29.4019L74.4039 30.9062C74.3044 30.9346 74.1638 30.9701 73.982 31.0127C73.803 31.0553 73.5885 31.0823 73.3385 31.0937C72.8499 31.1164 72.4309 31.0596 72.0814 30.9232C71.7348 30.784 71.4692 30.5681 71.2845 30.2755C71.1027 29.9829 71.0147 29.615 71.0203 29.1718V22.8863Z" fill="url(#paint1_linear_18_3135)"/>
</g>
</g>
<rect x="0.749756" y="0.749954" width="129.5" height="38.5" rx="5.25" stroke="white" stroke-opacity="0.15" stroke-width="1.5"/>
<defs>
<filter id="filter0_d_18_3135" x="5.99976" y="1.99995" width="37.3184" height="37.3184" filterUnits="userSpaceOnUse" color-interpolation-filters="sRGB">
<feFlood flood-opacity="0" result="BackgroundImageFix"/>
<feColorMatrix in="SourceAlpha" type="matrix" values="0 0 0 0 0 0 0 0 0 0 0 0 0 0 0 0 0 0 127 0" result="hardAlpha"/>
<feOffset/>
<feGaussianBlur stdDeviation="2"/>
<feComposite in2="hardAlpha" operator="out"/>
<feColorMatrix type="matrix" values="0 0 0 0 0 0 0 0 0 0 0 0 0 0 0 0 0 0 0.25 0"/>
<feBlend mode="normal" in2="BackgroundImageFix" result="effect1_dropShadow_18_3135"/>
<feBlend mode="normal" in="SourceGraphic" in2="effect1_dropShadow_18_3135" result="shape"/>
</filter>
<filter id="filter1_d_18_3135" x="41.9998" y="2.99995" width="83" height="34" filterUnits="userSpaceOnUse" color-interpolation-filters="sRGB">
<feFlood flood-opacity="0" result="BackgroundImageFix"/>
<feColorMatrix in="SourceAlpha" type="matrix" values="0 0 0 0 0 0 0 0 0 0 0 0 0 0 0 0 0 0 127 0" result="hardAlpha"/>
<feOffset/>
<feGaussianBlur stdDeviation="2"/>
<feComposite in2="hardAlpha" operator="out"/>
<feColorMatrix type="matrix" values="0 0 0 0 0 0 0 0 0 0 0 0 0 0 0 0 0 0 0.25 0"/>
<feBlend mode="normal" in2="BackgroundImageFix" result="effect1_dropShadow_18_3135"/>
<feBlend mode="normal" in="SourceGraphic" in2="effect1_dropShadow_18_3135" result="shape"/>
</filter>
<linearGradient id="paint0_linear_18_3135" x1="65.4997" y1="-4.57764e-05" x2="65.4997" y2="39.9999" gradientUnits="userSpaceOnUse">
<stop stop-color="#2C1B1B"/>
<stop offset="1" stop-color="#1F1414"/>
</linearGradient>
<linearGradient id="paint1_linear_18_3135" x1="45.9998" y1="20" x2="74.9998" y2="20" gradientUnits="userSpaceOnUse">
<stop stop-color="#E17BE1"/>
<stop offset="1" stop-color="#98A1FF"/>
</linearGradient>
<clipPath id="clip0_18_3135">
<rect x="-0.000244141" y="-4.57764e-05" width="131" height="40" rx="6" fill="white"/>
</clipPath>
</defs>
</svg>
