<svg width="131" height="40" viewBox="0 0 131 40" fill="none" xmlns="http://www.w3.org/2000/svg">
<rect x="-0.000244141" y="-6.10352e-05" width="131" height="40" rx="6" fill="url(#paint0_linear_18_3150)"/>
<g filter="url(#filter0_d_18_3150)">
<path d="M23.4998 6.28861C23.8092 6.10998 24.1904 6.10998 24.4998 6.28861L35.6241 12.7113C35.9335 12.8899 36.1241 13.22 36.1241 13.5773V26.4226C36.1241 26.7798 35.9335 27.11 35.6241 27.2886L24.4998 33.7113C24.1904 33.8899 23.8092 33.8899 23.4998 33.7113L12.3754 27.2886C12.066 27.11 11.8754 26.7798 11.8754 26.4226V13.5773C11.8754 13.22 12.066 12.8899 12.3754 12.7113L23.4998 6.28861Z" fill="url(#paint1_linear_18_3150)"/>
</g>
<g filter="url(#filter1_d_18_3150)">
<path d="M48.4451 17.9999L46.2263 9.99994H47.4958L49.0544 16.1952H49.1287L50.7498 9.99994H52.0076L53.6287 16.1992H53.7029L55.2576 9.99994H56.531L54.3083 17.9999H53.0935L51.4099 12.0078H51.3474L49.6638 17.9999H48.4451ZM59.4744 18.121C58.9119 18.121 58.421 17.9921 58.0017 17.7343C57.5824 17.4765 57.2569 17.1158 57.0251 16.6523C56.7934 16.1887 56.6775 15.6471 56.6775 15.0273C56.6775 14.4049 56.7934 13.8606 57.0251 13.3945C57.2569 12.9283 57.5824 12.5663 58.0017 12.3085C58.421 12.0507 58.9119 11.9218 59.4744 11.9218C60.0369 11.9218 60.5277 12.0507 60.947 12.3085C61.3663 12.5663 61.6918 12.9283 61.9236 13.3945C62.1554 13.8606 62.2712 14.4049 62.2712 15.0273C62.2712 15.6471 62.1554 16.1887 61.9236 16.6523C61.6918 17.1158 61.3663 17.4765 60.947 17.7343C60.5277 17.9921 60.0369 18.121 59.4744 18.121ZM59.4783 17.1406C59.8429 17.1406 60.1449 17.0442 60.3845 16.8515C60.6241 16.6588 60.8012 16.4023 60.9158 16.082C61.033 15.7617 61.0915 15.4088 61.0915 15.0234C61.0915 14.6406 61.033 14.289 60.9158 13.9687C60.8012 13.6458 60.6241 13.3867 60.3845 13.1913C60.1449 12.996 59.8429 12.8984 59.4783 12.8984C59.1111 12.8984 58.8064 12.996 58.5642 13.1913C58.3246 13.3867 58.1462 13.6458 58.029 13.9687C57.9145 14.289 57.8572 14.6406 57.8572 15.0234C57.8572 15.4088 57.9145 15.7617 58.029 16.082C58.1462 16.4023 58.3246 16.6588 58.5642 16.8515C58.8064 17.0442 59.1111 17.1406 59.4783 17.1406ZM64.7429 14.4374V17.9999H63.5749V11.9999H64.696V12.9765H64.7703C64.9083 12.6588 65.1244 12.4036 65.4187 12.2109C65.7156 12.0182 66.0893 11.9218 66.5398 11.9218C66.9486 11.9218 67.3067 12.0078 67.614 12.1796C67.9213 12.3489 68.1596 12.6015 68.3289 12.9374C68.4981 13.2734 68.5828 13.6887 68.5828 14.1835V17.9999H67.4148V14.3242C67.4148 13.8893 67.3015 13.5494 67.0749 13.3046C66.8484 13.0572 66.5372 12.9335 66.1414 12.9335C65.8705 12.9335 65.6296 12.9921 65.4187 13.1093C65.2104 13.2265 65.045 13.3984 64.9226 13.6249C64.8028 13.8489 64.7429 14.1197 64.7429 14.4374ZM71.1531 9.99994V10.7499C71.1531 10.9713 71.1114 11.2044 71.0281 11.4492C70.9473 11.6913 70.8328 11.9244 70.6843 12.1484C70.5359 12.3723 70.3614 12.565 70.1609 12.7265L69.5828 12.3124C69.7364 12.0885 69.8692 11.8502 69.9812 11.5976C70.0958 11.345 70.1531 11.0663 70.1531 10.7617V9.99994H71.1531ZM75.3132 11.9999V12.9374H72.0359V11.9999H75.3132ZM72.9148 10.5624H74.0828V16.2382C74.0828 16.4648 74.1166 16.6354 74.1843 16.7499C74.252 16.8619 74.3393 16.9387 74.446 16.9804C74.5554 17.0195 74.6739 17.039 74.8015 17.039C74.8953 17.039 74.9773 17.0325 75.0476 17.0195C75.1179 17.0064 75.1726 16.996 75.2117 16.9882L75.4226 17.9531C75.3549 17.9791 75.2585 18.0051 75.1335 18.0312C75.0085 18.0598 74.8523 18.0755 74.6648 18.0781C74.3575 18.0833 74.071 18.0286 73.8054 17.914C73.5398 17.7994 73.3249 17.6223 73.1609 17.3827C72.9968 17.1432 72.9148 16.8424 72.9148 16.4804V10.5624ZM84.0124 13.4648L82.9538 13.6523C82.9096 13.5169 82.8393 13.388 82.7429 13.2656C82.6492 13.1432 82.5216 13.0429 82.3601 12.9648C82.1986 12.8867 81.9968 12.8476 81.7546 12.8476C81.4239 12.8476 81.1479 12.9218 80.9265 13.0702C80.7051 13.2161 80.5945 13.4049 80.5945 13.6367C80.5945 13.8372 80.6687 13.9986 80.8171 14.121C80.9656 14.2434 81.2051 14.3437 81.5359 14.4218L82.489 14.6406C83.0411 14.7682 83.4525 14.9648 83.7234 15.2304C83.9942 15.496 84.1296 15.8411 84.1296 16.2656C84.1296 16.6249 84.0255 16.9452 83.8171 17.2265C83.6114 17.5051 83.3236 17.7239 82.9538 17.8827C82.5867 18.0416 82.1609 18.121 81.6765 18.121C81.0046 18.121 80.4565 17.9778 80.032 17.6913C79.6075 17.4023 79.3471 16.9921 79.2507 16.4609L80.3796 16.289C80.4499 16.5833 80.5945 16.8059 80.8132 16.957C81.032 17.1054 81.3171 17.1796 81.6687 17.1796C82.0515 17.1796 82.3575 17.1002 82.5867 16.9413C82.8158 16.7799 82.9304 16.5833 82.9304 16.3515C82.9304 16.164 82.8601 16.0064 82.7195 15.8788C82.5815 15.7512 82.3692 15.6549 82.0828 15.5898L81.0671 15.3671C80.5072 15.2395 80.0932 15.0364 79.8249 14.7577C79.5593 14.4791 79.4265 14.1262 79.4265 13.6992C79.4265 13.345 79.5255 13.0351 79.7234 12.7695C79.9213 12.5038 80.1947 12.2968 80.5437 12.1484C80.8926 11.9973 81.2924 11.9218 81.7429 11.9218C82.3913 11.9218 82.9018 12.0624 83.2742 12.3437C83.6466 12.6223 83.8926 12.996 84.0124 13.4648ZM89.2146 15.5117V11.9999H90.3865V17.9999H89.238V16.9609H89.1755C89.0375 17.2812 88.8161 17.5481 88.5115 17.7617C88.2094 17.9726 87.8331 18.0781 87.3826 18.0781C86.9971 18.0781 86.656 17.9934 86.3591 17.8242C86.0648 17.6523 85.8331 17.3984 85.6638 17.0624C85.4971 16.7265 85.4138 16.3111 85.4138 15.8163V11.9999H86.5818V15.6757C86.5818 16.0846 86.6951 16.4101 86.9216 16.6523C87.1482 16.8945 87.4425 17.0156 87.8044 17.0156C88.0232 17.0156 88.2406 16.9609 88.4568 16.8515C88.6755 16.7421 88.8565 16.5768 88.9997 16.3554C89.1456 16.1341 89.2172 15.8528 89.2146 15.5117ZM91.9558 20.2499V11.9999H93.0964V12.9726H93.1941C93.2618 12.8476 93.3594 12.7031 93.487 12.539C93.6147 12.3749 93.7917 12.2317 94.0183 12.1093C94.2449 11.9843 94.5443 11.9218 94.9167 11.9218C95.4011 11.9218 95.8334 12.0442 96.2136 12.289C96.5938 12.5338 96.892 12.8867 97.1081 13.3476C97.3269 13.8085 97.4363 14.3632 97.4363 15.0117C97.4363 15.6601 97.3282 16.2161 97.112 16.6796C96.8959 17.1406 96.599 17.496 96.2214 17.746C95.8438 17.9934 95.4128 18.1171 94.9285 18.1171C94.5639 18.1171 94.2657 18.0559 94.0339 17.9335C93.8048 17.8111 93.6251 17.6679 93.4949 17.5038C93.3647 17.3398 93.2644 17.1939 93.1941 17.0663H93.1238V20.2499H91.9558ZM93.1003 14.9999C93.1003 15.4218 93.1615 15.7916 93.2839 16.1093C93.4063 16.427 93.5834 16.6757 93.8152 16.8554C94.0469 17.0325 94.3308 17.121 94.6667 17.121C95.0157 17.121 95.3074 17.0286 95.5417 16.8437C95.7761 16.6562 95.9532 16.4023 96.073 16.082C96.1954 15.7617 96.2566 15.401 96.2566 14.9999C96.2566 14.6041 96.1967 14.2486 96.0769 13.9335C95.9597 13.6184 95.7826 13.3697 95.5456 13.1874C95.3113 13.0051 95.0183 12.914 94.6667 12.914C94.3282 12.914 94.0417 13.0012 93.8074 13.1757C93.5756 13.3502 93.3998 13.5937 93.28 13.9062C93.1602 14.2187 93.1003 14.5833 93.1003 14.9999ZM98.7449 20.2499V11.9999H99.8855V12.9726H99.9831C100.051 12.8476 100.149 12.7031 100.276 12.539C100.404 12.3749 100.581 12.2317 100.807 12.1093C101.034 11.9843 101.333 11.9218 101.706 11.9218C102.19 11.9218 102.622 12.0442 103.003 12.289C103.383 12.5338 103.681 12.8867 103.897 13.3476C104.116 13.8085 104.225 14.3632 104.225 15.0117C104.225 15.6601 104.117 16.2161 103.901 16.6796C103.685 17.1406 103.388 17.496 103.01 17.746C102.633 17.9934 102.202 18.1171 101.718 18.1171C101.353 18.1171 101.055 18.0559 100.823 17.9335C100.594 17.8111 100.414 17.6679 100.284 17.5038C100.154 17.3398 100.053 17.1939 99.9831 17.0663H99.9128V20.2499H98.7449ZM99.8894 14.9999C99.8894 15.4218 99.9506 15.7916 100.073 16.1093C100.195 16.427 100.372 16.6757 100.604 16.8554C100.836 17.0325 101.12 17.121 101.456 17.121C101.805 17.121 102.096 17.0286 102.331 16.8437C102.565 16.6562 102.742 16.4023 102.862 16.082C102.984 15.7617 103.046 15.401 103.046 14.9999C103.046 14.6041 102.986 14.2486 102.866 13.9335C102.749 13.6184 102.572 13.3697 102.335 13.1874C102.1 13.0051 101.807 12.914 101.456 12.914C101.117 12.914 100.831 13.0012 100.596 13.1757C100.365 13.3502 100.189 13.5937 100.069 13.9062C99.9493 14.2187 99.8894 14.5833 99.8894 14.9999ZM108.061 18.121C107.499 18.121 107.008 17.9921 106.589 17.7343C106.169 17.4765 105.844 17.1158 105.612 16.6523C105.38 16.1887 105.264 15.6471 105.264 15.0273C105.264 14.4049 105.38 13.8606 105.612 13.3945C105.844 12.9283 106.169 12.5663 106.589 12.3085C107.008 12.0507 107.499 11.9218 108.061 11.9218C108.624 11.9218 109.115 12.0507 109.534 12.3085C109.953 12.5663 110.279 12.9283 110.51 13.3945C110.742 13.8606 110.858 14.4049 110.858 15.0273C110.858 15.6471 110.742 16.1887 110.51 16.6523C110.279 17.1158 109.953 17.4765 109.534 17.7343C109.115 17.9921 108.624 18.121 108.061 18.121ZM108.065 17.1406C108.43 17.1406 108.732 17.0442 108.971 16.8515C109.211 16.6588 109.388 16.4023 109.503 16.082C109.62 15.7617 109.678 15.4088 109.678 15.0234C109.678 14.6406 109.62 14.289 109.503 13.9687C109.388 13.6458 109.211 13.3867 108.971 13.1913C108.732 12.996 108.43 12.8984 108.065 12.8984C107.698 12.8984 107.393 12.996 107.151 13.1913C106.912 13.3867 106.733 13.6458 106.616 13.9687C106.501 14.289 106.444 14.6406 106.444 15.0234C106.444 15.4088 106.501 15.7617 106.616 16.082C106.733 16.4023 106.912 16.6588 107.151 16.8515C107.393 17.0442 107.698 17.1406 108.065 17.1406ZM112.162 17.9999V11.9999H113.291V12.9531H113.353C113.463 12.6301 113.655 12.3762 113.931 12.1913C114.21 12.0038 114.525 11.9101 114.877 11.9101C114.95 11.9101 115.036 11.9127 115.135 11.9179C115.236 11.9231 115.315 11.9296 115.373 11.9374V13.0546C115.326 13.0416 115.243 13.0273 115.123 13.0117C115.003 12.9934 114.883 12.9843 114.763 12.9843C114.487 12.9843 114.241 13.0429 114.025 13.1601C113.812 13.2747 113.642 13.4348 113.517 13.6406C113.392 13.8437 113.33 14.0755 113.33 14.3359V17.9999H112.162ZM119.539 11.9999V12.9374H116.261V11.9999H119.539ZM117.14 10.5624H118.308V16.2382C118.308 16.4648 118.342 16.6354 118.41 16.7499C118.478 16.8619 118.565 16.9387 118.672 16.9804C118.781 17.0195 118.899 17.039 119.027 17.039C119.121 17.039 119.203 17.0325 119.273 17.0195C119.343 17.0064 119.398 16.996 119.437 16.9882L119.648 17.9531C119.58 17.9791 119.484 18.0051 119.359 18.0312C119.234 18.0598 119.078 18.0755 118.89 18.0781C118.583 18.0833 118.297 18.0286 118.031 17.914C117.765 17.7994 117.551 17.6223 117.386 17.3827C117.222 17.1432 117.14 16.8424 117.14 16.4804V10.5624Z" fill="#E8E8E8"/>
<path d="M46.6603 30.9999V22.2727H50.2654C50.9188 22.2727 51.4827 22.3906 51.9571 22.6264C52.4344 22.8593 52.8023 23.1945 53.0608 23.632C53.3194 24.0667 53.4486 24.5823 53.4486 25.1789C53.4486 25.784 53.3165 26.2982 53.0523 26.7215C52.7881 27.142 52.4131 27.463 51.9273 27.6846C51.4415 27.9033 50.8662 28.0127 50.2015 28.0127H47.9216V26.3508H49.8094C50.1276 26.3508 50.3932 26.3096 50.6063 26.2272C50.8222 26.142 50.9856 26.0141 51.0963 25.8437C51.2071 25.6704 51.2625 25.4488 51.2625 25.1789C51.2625 24.909 51.2071 24.686 51.0963 24.5099C50.9856 24.3309 50.8222 24.1974 50.6063 24.1093C50.3904 24.0184 50.1248 23.9729 49.8094 23.9729H48.7696V30.9999H46.6603ZM51.5736 27.0113L53.7469 30.9999H51.4458L49.3151 27.0113H51.5736ZM54.6056 30.9999V24.4545H56.6894V30.9999H54.6056ZM55.6496 23.6917C55.357 23.6917 55.1056 23.5951 54.8953 23.4019C54.6851 23.2059 54.58 22.9701 54.58 22.6945C54.58 22.4218 54.6851 22.1889 54.8953 21.9957C55.1056 21.7997 55.357 21.7016 55.6496 21.7016C55.9451 21.7016 56.1965 21.7997 56.4039 21.9957C56.6141 22.1889 56.7192 22.4218 56.7192 22.6945C56.7192 22.9701 56.6141 23.2059 56.4039 23.4019C56.1965 23.5951 55.9451 23.6917 55.6496 23.6917ZM61.7359 24.4545V25.9886H57.5257V24.4545H61.7359ZM58.4035 30.9999V24.1221C58.4035 23.6164 58.4987 23.1974 58.689 22.865C58.8794 22.5298 59.1436 22.2798 59.4816 22.115C59.8197 21.9474 60.2103 21.8636 60.6535 21.8636C60.9433 21.8636 61.216 21.8863 61.4717 21.9318C61.7302 21.9744 61.922 22.0127 62.047 22.0468L61.7146 23.5724C61.6379 23.5468 61.5441 23.5255 61.4333 23.5085C61.3254 23.4914 61.2231 23.4829 61.1265 23.4829C60.8822 23.4829 60.7146 23.5369 60.6237 23.6448C60.5328 23.7528 60.4873 23.9005 60.4873 24.088V30.9999H58.4035ZM66.433 24.4545V25.9886H62.3037V24.4545H66.433ZM63.1688 22.8863H65.2526V28.9417C65.2526 29.0695 65.2725 29.1732 65.3123 29.2528C65.3549 29.3295 65.4159 29.3849 65.4955 29.419C65.575 29.4502 65.6702 29.4658 65.781 29.4658C65.8605 29.4658 65.9444 29.4587 66.0324 29.4445C66.1233 29.4275 66.1915 29.4133 66.237 29.4019L66.5523 30.9062C66.4529 30.9346 66.3122 30.9701 66.1304 31.0127C65.9515 31.0553 65.737 31.0823 65.487 31.0937C64.9983 31.1164 64.5793 31.0596 64.2299 30.9232C63.8833 30.784 63.6176 30.5681 63.433 30.2755C63.2512 29.9829 63.1631 29.615 63.1688 29.1718V22.8863Z" fill="url(#paint2_linear_18_3150)"/>
</g>
<rect x="0.749756" y="0.749939" width="129.5" height="38.5" rx="5.25" stroke="white" stroke-opacity="0.15" stroke-width="1.5"/>
<defs>
<filter id="filter0_d_18_3150" x="5.99976" y="1.99994" width="36" height="36" filterUnits="userSpaceOnUse" color-interpolation-filters="sRGB">
<feFlood flood-opacity="0" result="BackgroundImageFix"/>
<feColorMatrix in="SourceAlpha" type="matrix" values="0 0 0 0 0 0 0 0 0 0 0 0 0 0 0 0 0 0 127 0" result="hardAlpha"/>
<feOffset/>
<feGaussianBlur stdDeviation="2"/>
<feComposite in2="hardAlpha" operator="out"/>
<feColorMatrix type="matrix" values="0 0 0 0 0 0 0 0 0 0 0 0 0 0 0 0 0 0 0.25 0"/>
<feBlend mode="normal" in2="BackgroundImageFix" result="effect1_dropShadow_18_3150"/>
<feBlend mode="normal" in="SourceGraphic" in2="effect1_dropShadow_18_3150" result="shape"/>
</filter>
<filter id="filter1_d_18_3150" x="41.9998" y="2.99994" width="83" height="34" filterUnits="userSpaceOnUse" color-interpolation-filters="sRGB">
<feFlood flood-opacity="0" result="BackgroundImageFix"/>
<feColorMatrix in="SourceAlpha" type="matrix" values="0 0 0 0 0 0 0 0 0 0 0 0 0 0 0 0 0 0 127 0" result="hardAlpha"/>
<feOffset/>
<feGaussianBlur stdDeviation="2"/>
<feComposite in2="hardAlpha" operator="out"/>
<feColorMatrix type="matrix" values="0 0 0 0 0 0 0 0 0 0 0 0 0 0 0 0 0 0 0.25 0"/>
<feBlend mode="normal" in2="BackgroundImageFix" result="effect1_dropShadow_18_3150"/>
<feBlend mode="normal" in="SourceGraphic" in2="effect1_dropShadow_18_3150" result="shape"/>
</filter>
<linearGradient id="paint0_linear_18_3150" x1="65.4997" y1="-6.10351e-05" x2="65.4997" y2="39.9999" gradientUnits="userSpaceOnUse">
<stop stop-color="#2C1B1B"/>
<stop offset="1" stop-color="#1F1414"/>
</linearGradient>
<linearGradient id="paint1_linear_18_3150" x1="9.99976" y1="6" x2="9.99976" y2="34" gradientUnits="userSpaceOnUse">
<stop stop-color="white"/>
<stop offset="1" stop-color="#B9B9B9"/>
</linearGradient>
<linearGradient id="paint2_linear_18_3150" x1="56.4998" y1="19.9999" x2="56.4998" y2="32.9999" gradientUnits="userSpaceOnUse">
<stop stop-color="white"/>
<stop offset="1" stop-color="#B9B9B9"/>
</linearGradient>
</defs>
</svg>
