<svg width="131" height="40" viewBox="0 0 131 40" fill="none" xmlns="http://www.w3.org/2000/svg">
<rect x="-0.000244141" y="-6.10352e-05" width="131" height="40" rx="6" fill="url(#paint0_linear_18_3193)"/>
<g filter="url(#filter0_d_18_3193)">
<g clip-path="url(#clip0_18_3193)">
<path d="M36.5998 5.99994H11.3998C10.6298 5.99994 9.99976 6.62994 9.99976 7.39994V32.5999C9.99976 33.3699 10.6298 33.9999 11.3998 33.9999H13.6538C13.4158 27.6019 13.6398 26.6499 14.0878 26.0199C14.6338 25.2359 14.8578 25.1379 15.6838 24.4799C16.3838 23.9199 16.1318 23.0099 15.6278 22.3519C15.3198 21.9459 14.8858 21.4699 14.5498 21.0079C14.3398 20.6999 14.8578 18.8939 15.0538 18.2359C15.2498 17.5779 15.5858 15.4359 18.5258 14.8619C19.6318 14.6379 22.6698 14.4839 24.7558 14.6099C24.7418 14.5259 24.7138 14.4279 24.6998 14.3299C24.6578 14.1619 24.6298 13.9799 24.5878 13.7839C24.5458 13.6019 24.5038 13.4059 24.4618 13.2099C24.4198 13.0139 24.3638 12.8179 24.3218 12.6079C24.2658 12.3979 24.2238 12.2019 24.1538 11.9919C24.0418 11.5719 23.9018 11.1659 23.7338 10.7739C23.6498 10.5779 23.5658 10.3959 23.4678 10.2279C23.3698 10.0739 23.2718 9.93394 23.1878 9.87794C23.1738 9.86394 23.1598 9.84994 23.1458 9.84994H23.1318H23.1598C23.1598 9.84994 23.1738 9.84994 23.1598 9.84994L23.1178 9.83594H23.0898L23.0338 9.82194H22.9638C22.7818 9.80794 22.5858 9.80794 22.3758 9.82194C21.9698 9.84994 21.5358 9.93394 21.1158 10.0319C20.6958 10.1299 20.2898 10.2559 19.8978 10.3679C19.7298 10.4239 19.5758 10.4799 19.4218 10.5219C19.4358 10.6479 19.4498 10.7599 19.4498 10.8859C19.4498 12.7059 17.9798 14.1759 16.1598 14.1759C14.3398 14.1759 12.8838 12.7059 12.8838 10.8859C12.8838 9.06594 14.3538 7.59594 16.1738 7.59594C17.3918 7.59594 18.4558 8.25394 19.0298 9.24794C19.1698 9.19194 19.3238 9.13594 19.4778 9.07994C19.8698 8.92594 20.3038 8.77194 20.7518 8.63194C21.2138 8.49194 21.6898 8.35194 22.2218 8.28194C22.4878 8.23994 22.7678 8.22594 23.0758 8.23994H23.1878C23.2298 8.23994 23.2718 8.25394 23.2998 8.25394H23.3978L23.4398 8.26794H23.4538L23.4958 8.28194C23.4958 8.28194 23.5238 8.28194 23.5378 8.29594L23.5938 8.30994C23.6778 8.33794 23.7198 8.35194 23.7758 8.37994C23.8318 8.40794 23.8738 8.42194 23.9298 8.44994C24.0278 8.50594 24.1118 8.56194 24.1958 8.61794C24.3498 8.74394 24.4758 8.86994 24.5738 8.99594C24.6858 9.12194 24.7698 9.24794 24.8538 9.37394C25.0218 9.62594 25.1478 9.86394 25.2598 10.1019C25.4838 10.5779 25.6658 11.0539 25.8058 11.5019L26.0158 12.1739C26.0858 12.3979 26.1278 12.6079 26.1838 12.8179C26.2118 12.9159 26.2398 13.0279 26.2538 13.1259C26.2818 13.2239 26.2958 13.3219 26.3238 13.4199C26.3658 13.6159 26.4078 13.8119 26.4498 13.9939C26.5058 14.2739 26.5478 14.5399 26.5898 14.7779C29.7258 15.0859 32.1198 15.4919 33.1978 16.5699C34.7798 18.1099 35.9978 25.1099 35.1998 33.9999H36.5998C37.3698 33.9999 37.9998 33.3699 37.9998 32.5999V7.39994C37.9998 6.62994 37.3698 5.99994 36.5998 5.99994V5.99994Z" fill="#F7CF0D"/>
<path d="M22.7957 25.7119C22.6137 26.2159 22.4597 32.1099 24.1957 32.1099C25.9317 32.1099 25.9457 26.0619 25.8897 25.7119C25.8337 25.3759 22.9777 25.2219 22.7957 25.7119ZM20.4997 19.9999C19.3097 19.8319 18.5957 25.6279 20.2617 25.9639C21.8297 26.2719 21.6757 20.1679 20.4997 19.9999ZM28.3117 19.9999C27.1217 19.8319 26.4077 25.6279 28.0737 25.9639C29.6417 26.2719 29.5017 20.1679 28.3117 19.9999Z" fill="#F7CF0D"/>
</g>
</g>
<g filter="url(#filter1_d_18_3193)">
<path d="M48.4451 17.9999L46.2263 9.99994H47.4958L49.0544 16.1952H49.1287L50.7498 9.99994H52.0076L53.6287 16.1992H53.7029L55.2576 9.99994H56.531L54.3083 17.9999H53.0935L51.4099 12.0078H51.3474L49.6638 17.9999H48.4451ZM59.4744 18.121C58.9119 18.121 58.421 17.9921 58.0017 17.7343C57.5824 17.4765 57.2569 17.1158 57.0251 16.6523C56.7934 16.1887 56.6775 15.6471 56.6775 15.0273C56.6775 14.4049 56.7934 13.8606 57.0251 13.3945C57.2569 12.9283 57.5824 12.5663 58.0017 12.3085C58.421 12.0507 58.9119 11.9218 59.4744 11.9218C60.0369 11.9218 60.5277 12.0507 60.947 12.3085C61.3663 12.5663 61.6918 12.9283 61.9236 13.3945C62.1554 13.8606 62.2712 14.4049 62.2712 15.0273C62.2712 15.6471 62.1554 16.1887 61.9236 16.6523C61.6918 17.1158 61.3663 17.4765 60.947 17.7343C60.5277 17.9921 60.0369 18.121 59.4744 18.121ZM59.4783 17.1406C59.8429 17.1406 60.1449 17.0442 60.3845 16.8515C60.6241 16.6588 60.8012 16.4023 60.9158 16.082C61.033 15.7617 61.0915 15.4088 61.0915 15.0234C61.0915 14.6406 61.033 14.289 60.9158 13.9687C60.8012 13.6458 60.6241 13.3867 60.3845 13.1913C60.1449 12.996 59.8429 12.8984 59.4783 12.8984C59.1111 12.8984 58.8064 12.996 58.5642 13.1913C58.3246 13.3867 58.1462 13.6458 58.029 13.9687C57.9145 14.289 57.8572 14.6406 57.8572 15.0234C57.8572 15.4088 57.9145 15.7617 58.029 16.082C58.1462 16.4023 58.3246 16.6588 58.5642 16.8515C58.8064 17.0442 59.1111 17.1406 59.4783 17.1406ZM64.7429 14.4374V17.9999H63.5749V11.9999H64.696V12.9765H64.7703C64.9083 12.6588 65.1244 12.4036 65.4187 12.2109C65.7156 12.0182 66.0893 11.9218 66.5398 11.9218C66.9486 11.9218 67.3067 12.0078 67.614 12.1796C67.9213 12.3489 68.1596 12.6015 68.3289 12.9374C68.4981 13.2734 68.5828 13.6887 68.5828 14.1835V17.9999H67.4148V14.3242C67.4148 13.8893 67.3015 13.5494 67.0749 13.3046C66.8484 13.0572 66.5372 12.9335 66.1414 12.9335C65.8705 12.9335 65.6296 12.9921 65.4187 13.1093C65.2104 13.2265 65.045 13.3984 64.9226 13.6249C64.8028 13.8489 64.7429 14.1197 64.7429 14.4374ZM71.1531 9.99994V10.7499C71.1531 10.9713 71.1114 11.2044 71.0281 11.4492C70.9473 11.6913 70.8328 11.9244 70.6843 12.1484C70.5359 12.3723 70.3614 12.565 70.1609 12.7265L69.5828 12.3124C69.7364 12.0885 69.8692 11.8502 69.9812 11.5976C70.0958 11.345 70.1531 11.0663 70.1531 10.7617V9.99994H71.1531ZM75.3132 11.9999V12.9374H72.0359V11.9999H75.3132ZM72.9148 10.5624H74.0828V16.2382C74.0828 16.4648 74.1166 16.6354 74.1843 16.7499C74.252 16.8619 74.3393 16.9387 74.446 16.9804C74.5554 17.0195 74.6739 17.039 74.8015 17.039C74.8953 17.039 74.9773 17.0325 75.0476 17.0195C75.1179 17.0064 75.1726 16.996 75.2117 16.9882L75.4226 17.9531C75.3549 17.9791 75.2585 18.0051 75.1335 18.0312C75.0085 18.0598 74.8523 18.0755 74.6648 18.0781C74.3575 18.0833 74.071 18.0286 73.8054 17.914C73.5398 17.7994 73.3249 17.6223 73.1609 17.3827C72.9968 17.1432 72.9148 16.8424 72.9148 16.4804V10.5624ZM84.0124 13.4648L82.9538 13.6523C82.9096 13.5169 82.8393 13.388 82.7429 13.2656C82.6492 13.1432 82.5216 13.0429 82.3601 12.9648C82.1986 12.8867 81.9968 12.8476 81.7546 12.8476C81.4239 12.8476 81.1479 12.9218 80.9265 13.0702C80.7051 13.2161 80.5945 13.4049 80.5945 13.6367C80.5945 13.8372 80.6687 13.9986 80.8171 14.121C80.9656 14.2434 81.2051 14.3437 81.5359 14.4218L82.489 14.6406C83.0411 14.7682 83.4525 14.9648 83.7234 15.2304C83.9942 15.496 84.1296 15.8411 84.1296 16.2656C84.1296 16.6249 84.0255 16.9452 83.8171 17.2265C83.6114 17.5051 83.3236 17.7239 82.9538 17.8827C82.5867 18.0416 82.1609 18.121 81.6765 18.121C81.0046 18.121 80.4565 17.9778 80.032 17.6913C79.6075 17.4023 79.3471 16.9921 79.2507 16.4609L80.3796 16.289C80.4499 16.5833 80.5945 16.8059 80.8132 16.957C81.032 17.1054 81.3171 17.1796 81.6687 17.1796C82.0515 17.1796 82.3575 17.1002 82.5867 16.9413C82.8158 16.7799 82.9304 16.5833 82.9304 16.3515C82.9304 16.164 82.8601 16.0064 82.7195 15.8788C82.5815 15.7512 82.3692 15.6549 82.0828 15.5898L81.0671 15.3671C80.5072 15.2395 80.0932 15.0364 79.8249 14.7577C79.5593 14.4791 79.4265 14.1262 79.4265 13.6992C79.4265 13.345 79.5255 13.0351 79.7234 12.7695C79.9213 12.5038 80.1947 12.2968 80.5437 12.1484C80.8926 11.9973 81.2924 11.9218 81.7429 11.9218C82.3913 11.9218 82.9018 12.0624 83.2742 12.3437C83.6466 12.6223 83.8926 12.996 84.0124 13.4648ZM89.2146 15.5117V11.9999H90.3865V17.9999H89.238V16.9609H89.1755C89.0375 17.2812 88.8161 17.5481 88.5115 17.7617C88.2094 17.9726 87.8331 18.0781 87.3826 18.0781C86.9971 18.0781 86.656 17.9934 86.3591 17.8242C86.0648 17.6523 85.8331 17.3984 85.6638 17.0624C85.4971 16.7265 85.4138 16.3111 85.4138 15.8163V11.9999H86.5818V15.6757C86.5818 16.0846 86.6951 16.4101 86.9216 16.6523C87.1482 16.8945 87.4425 17.0156 87.8044 17.0156C88.0232 17.0156 88.2406 16.9609 88.4568 16.8515C88.6755 16.7421 88.8565 16.5768 88.9997 16.3554C89.1456 16.1341 89.2172 15.8528 89.2146 15.5117ZM91.9558 20.2499V11.9999H93.0964V12.9726H93.1941C93.2618 12.8476 93.3594 12.7031 93.487 12.539C93.6147 12.3749 93.7917 12.2317 94.0183 12.1093C94.2449 11.9843 94.5443 11.9218 94.9167 11.9218C95.4011 11.9218 95.8334 12.0442 96.2136 12.289C96.5938 12.5338 96.892 12.8867 97.1081 13.3476C97.3269 13.8085 97.4363 14.3632 97.4363 15.0117C97.4363 15.6601 97.3282 16.2161 97.112 16.6796C96.8959 17.1406 96.599 17.496 96.2214 17.746C95.8438 17.9934 95.4128 18.1171 94.9285 18.1171C94.5639 18.1171 94.2657 18.0559 94.0339 17.9335C93.8048 17.8111 93.6251 17.6679 93.4949 17.5038C93.3647 17.3398 93.2644 17.1939 93.1941 17.0663H93.1238V20.2499H91.9558ZM93.1003 14.9999C93.1003 15.4218 93.1615 15.7916 93.2839 16.1093C93.4063 16.427 93.5834 16.6757 93.8152 16.8554C94.0469 17.0325 94.3308 17.121 94.6667 17.121C95.0157 17.121 95.3074 17.0286 95.5417 16.8437C95.7761 16.6562 95.9532 16.4023 96.073 16.082C96.1954 15.7617 96.2566 15.401 96.2566 14.9999C96.2566 14.6041 96.1967 14.2486 96.0769 13.9335C95.9597 13.6184 95.7826 13.3697 95.5456 13.1874C95.3113 13.0051 95.0183 12.914 94.6667 12.914C94.3282 12.914 94.0417 13.0012 93.8074 13.1757C93.5756 13.3502 93.3998 13.5937 93.28 13.9062C93.1602 14.2187 93.1003 14.5833 93.1003 14.9999ZM98.7449 20.2499V11.9999H99.8855V12.9726H99.9831C100.051 12.8476 100.149 12.7031 100.276 12.539C100.404 12.3749 100.581 12.2317 100.807 12.1093C101.034 11.9843 101.333 11.9218 101.706 11.9218C102.19 11.9218 102.622 12.0442 103.003 12.289C103.383 12.5338 103.681 12.8867 103.897 13.3476C104.116 13.8085 104.225 14.3632 104.225 15.0117C104.225 15.6601 104.117 16.2161 103.901 16.6796C103.685 17.1406 103.388 17.496 103.01 17.746C102.633 17.9934 102.202 18.1171 101.718 18.1171C101.353 18.1171 101.055 18.0559 100.823 17.9335C100.594 17.8111 100.414 17.6679 100.284 17.5038C100.154 17.3398 100.053 17.1939 99.9831 17.0663H99.9128V20.2499H98.7449ZM99.8894 14.9999C99.8894 15.4218 99.9506 15.7916 100.073 16.1093C100.195 16.427 100.372 16.6757 100.604 16.8554C100.836 17.0325 101.12 17.121 101.456 17.121C101.805 17.121 102.096 17.0286 102.331 16.8437C102.565 16.6562 102.742 16.4023 102.862 16.082C102.984 15.7617 103.046 15.401 103.046 14.9999C103.046 14.6041 102.986 14.2486 102.866 13.9335C102.749 13.6184 102.572 13.3697 102.335 13.1874C102.1 13.0051 101.807 12.914 101.456 12.914C101.117 12.914 100.831 13.0012 100.596 13.1757C100.365 13.3502 100.189 13.5937 100.069 13.9062C99.9493 14.2187 99.8894 14.5833 99.8894 14.9999ZM108.061 18.121C107.499 18.121 107.008 17.9921 106.589 17.7343C106.169 17.4765 105.844 17.1158 105.612 16.6523C105.38 16.1887 105.264 15.6471 105.264 15.0273C105.264 14.4049 105.38 13.8606 105.612 13.3945C105.844 12.9283 106.169 12.5663 106.589 12.3085C107.008 12.0507 107.499 11.9218 108.061 11.9218C108.624 11.9218 109.115 12.0507 109.534 12.3085C109.953 12.5663 110.279 12.9283 110.51 13.3945C110.742 13.8606 110.858 14.4049 110.858 15.0273C110.858 15.6471 110.742 16.1887 110.51 16.6523C110.279 17.1158 109.953 17.4765 109.534 17.7343C109.115 17.9921 108.624 18.121 108.061 18.121ZM108.065 17.1406C108.43 17.1406 108.732 17.0442 108.971 16.8515C109.211 16.6588 109.388 16.4023 109.503 16.082C109.62 15.7617 109.678 15.4088 109.678 15.0234C109.678 14.6406 109.62 14.289 109.503 13.9687C109.388 13.6458 109.211 13.3867 108.971 13.1913C108.732 12.996 108.43 12.8984 108.065 12.8984C107.698 12.8984 107.393 12.996 107.151 13.1913C106.912 13.3867 106.733 13.6458 106.616 13.9687C106.501 14.289 106.444 14.6406 106.444 15.0234C106.444 15.4088 106.501 15.7617 106.616 16.082C106.733 16.4023 106.912 16.6588 107.151 16.8515C107.393 17.0442 107.698 17.1406 108.065 17.1406ZM112.162 17.9999V11.9999H113.291V12.9531H113.353C113.463 12.6301 113.655 12.3762 113.931 12.1913C114.21 12.0038 114.525 11.9101 114.877 11.9101C114.95 11.9101 115.036 11.9127 115.135 11.9179C115.236 11.9231 115.315 11.9296 115.373 11.9374V13.0546C115.326 13.0416 115.243 13.0273 115.123 13.0117C115.003 12.9934 114.883 12.9843 114.763 12.9843C114.487 12.9843 114.241 13.0429 114.025 13.1601C113.812 13.2747 113.642 13.4348 113.517 13.6406C113.392 13.8437 113.33 14.0755 113.33 14.3359V17.9999H112.162ZM119.539 11.9999V12.9374H116.261V11.9999H119.539ZM117.14 10.5624H118.308V16.2382C118.308 16.4648 118.342 16.6354 118.41 16.7499C118.478 16.8619 118.565 16.9387 118.672 16.9804C118.781 17.0195 118.899 17.039 119.027 17.039C119.121 17.039 119.203 17.0325 119.273 17.0195C119.343 17.0064 119.398 16.996 119.437 16.9882L119.648 17.9531C119.58 17.9791 119.484 18.0051 119.359 18.0312C119.234 18.0598 119.078 18.0755 118.89 18.0781C118.583 18.0833 118.297 18.0286 118.031 17.914C117.765 17.7994 117.551 17.6223 117.386 17.3827C117.222 17.1432 117.14 16.8424 117.14 16.4804V10.5624Z" fill="#E8E8E8"/>
<path d="M51.3776 24.8891C51.3492 24.5766 51.2228 24.3337 50.9983 24.1604C50.7767 23.9843 50.46 23.8962 50.0481 23.8962C49.7753 23.8962 49.5481 23.9318 49.3662 24.0028C49.1844 24.0738 49.0481 24.1718 48.9571 24.2968C48.8662 24.419 48.8194 24.5596 48.8165 24.7187C48.8108 24.8494 48.8364 24.9644 48.8932 25.0639C48.9529 25.1633 49.0381 25.2514 49.1489 25.3281C49.2625 25.4019 49.3989 25.4673 49.558 25.5241C49.7171 25.5809 49.8961 25.6306 50.0949 25.6732L50.8449 25.8437C51.2767 25.9374 51.6574 26.0624 51.987 26.2187C52.3194 26.3749 52.5978 26.561 52.8222 26.7769C53.0495 26.9928 53.2213 27.2414 53.3378 27.5227C53.4543 27.8039 53.514 28.1193 53.5168 28.4687C53.514 29.0198 53.3748 29.4928 53.0992 29.8877C52.8236 30.2826 52.4273 30.5852 51.9103 30.7954C51.3961 31.0056 50.7753 31.1107 50.0481 31.1107C49.3179 31.1107 48.6816 31.0014 48.139 30.7826C47.5963 30.5639 47.1745 30.2315 46.8733 29.7854C46.5722 29.3394 46.4174 28.7755 46.4088 28.0937H48.4287C48.4458 28.3749 48.5211 28.6093 48.6546 28.7968C48.7881 28.9843 48.9713 29.1264 49.2043 29.2229C49.4401 29.3195 49.7128 29.3678 50.0225 29.3678C50.3066 29.3678 50.5481 29.3295 50.7469 29.2528C50.9486 29.1761 51.1034 29.0695 51.2114 28.9332C51.3194 28.7968 51.3748 28.6406 51.3776 28.4644C51.3748 28.2997 51.3236 28.159 51.2242 28.0426C51.1248 27.9232 50.9713 27.821 50.764 27.7357C50.5594 27.6477 50.2981 27.5667 49.9799 27.4928L49.0679 27.2798C48.3123 27.1065 47.7171 26.8266 47.2824 26.4403C46.8478 26.0511 46.6319 25.5255 46.6347 24.8636C46.6319 24.3238 46.7767 23.8508 47.0694 23.4445C47.362 23.0383 47.7668 22.7215 48.2838 22.4943C48.8009 22.267 49.3904 22.1533 50.0523 22.1533C50.7284 22.1533 51.3151 22.2684 51.8123 22.4985C52.3123 22.7258 52.7 23.0454 52.9756 23.4573C53.2512 23.8693 53.3918 24.3465 53.3975 24.8891H51.3776ZM54.5821 33.4545V24.4545H56.6446V25.5752H56.7086C56.7938 25.3764 56.9145 25.1846 57.0708 24.9999C57.2299 24.8153 57.4316 24.6647 57.6759 24.5482C57.923 24.4289 58.2185 24.3693 58.5623 24.3693C59.0168 24.3693 59.4415 24.4886 59.8364 24.7272C60.2341 24.9658 60.5551 25.3337 60.7995 25.8309C61.0438 26.3281 61.1659 26.9616 61.1659 27.7315C61.1659 28.4729 61.048 29.0937 60.8123 29.5937C60.5793 30.0937 60.264 30.4687 59.8662 30.7187C59.4713 30.9687 59.0324 31.0937 58.5495 31.0937C58.2199 31.0937 57.9344 31.0397 57.6929 30.9318C57.4515 30.8238 57.2483 30.6818 57.0836 30.5056C56.9216 30.3295 56.7966 30.1406 56.7086 29.9389H56.6659V33.4545H54.5821ZM56.6233 27.7272C56.6233 28.0795 56.6702 28.3863 56.764 28.6477C56.8605 28.909 56.9983 29.1122 57.1773 29.257C57.3591 29.3991 57.5765 29.4701 57.8293 29.4701C58.085 29.4701 58.3023 29.3991 58.4813 29.257C58.6603 29.1122 58.7952 28.909 58.8861 28.6477C58.9799 28.3863 59.0267 28.0795 59.0267 27.7272C59.0267 27.3749 58.9799 27.0695 58.8861 26.811C58.7952 26.5525 58.6603 26.3522 58.4813 26.2102C58.3052 26.0681 58.0878 25.9971 57.8293 25.9971C57.5736 25.9971 57.3563 26.0667 57.1773 26.2059C56.9983 26.3451 56.8605 26.544 56.764 26.8025C56.6702 27.061 56.6233 27.3693 56.6233 27.7272ZM65.3133 31.1235C64.6258 31.1235 64.0349 30.9829 63.5406 30.7016C63.0491 30.4175 62.6699 30.0227 62.4028 29.517C62.1386 29.0085 62.0065 28.419 62.0065 27.7485C62.0065 27.0752 62.1386 26.4857 62.4028 25.9801C62.6699 25.4715 63.0491 25.0766 63.5406 24.7954C64.0349 24.5113 64.6258 24.3693 65.3133 24.3693C66.0008 24.3693 66.5903 24.5113 67.0818 24.7954C67.5761 25.0766 67.9554 25.4715 68.2196 25.9801C68.4866 26.4857 68.6201 27.0752 68.6201 27.7485C68.6201 28.419 68.4866 29.0085 68.2196 29.517C67.9554 30.0227 67.5761 30.4175 67.0818 30.7016C66.5903 30.9829 66.0008 31.1235 65.3133 31.1235ZM65.3261 29.5511C65.5761 29.5511 65.7877 29.4744 65.961 29.321C66.1343 29.1675 66.2664 28.9545 66.3573 28.6818C66.4511 28.409 66.498 28.0937 66.498 27.7357C66.498 27.3721 66.4511 27.0539 66.3573 26.7812C66.2664 26.5085 66.1343 26.2954 65.961 26.142C65.7877 25.9886 65.5761 25.9119 65.3261 25.9119C65.0676 25.9119 64.8488 25.9886 64.6698 26.142C64.4937 26.2954 64.3588 26.5085 64.265 26.7812C64.1741 27.0539 64.1287 27.3721 64.1287 27.7357C64.1287 28.0937 64.1741 28.409 64.265 28.6818C64.3588 28.9545 64.4937 29.1675 64.6698 29.321C64.8488 29.4744 65.0676 29.5511 65.3261 29.5511ZM71.7714 27.267V30.9999H69.6876V24.4545H71.6691V25.6562H71.7416C71.8865 25.2556 72.1336 24.9417 72.4831 24.7144C72.8325 24.4843 73.2487 24.3693 73.7316 24.3693C74.1919 24.3693 74.591 24.4729 74.9291 24.6803C75.27 24.8849 75.5342 25.1718 75.7217 25.5411C75.912 25.9076 76.0058 26.3366 76.0029 26.8281V30.9999H73.9191V27.2372C73.922 26.8735 73.8296 26.5894 73.6421 26.3849C73.4575 26.1803 73.2004 26.0781 72.8708 26.0781C72.6521 26.0781 72.4589 26.1264 72.2913 26.2229C72.1265 26.3167 71.9987 26.4516 71.9078 26.6278C71.8197 26.8039 71.7743 27.017 71.7714 27.267ZM80.3442 33.5908C79.722 33.5908 79.1894 33.5042 78.7462 33.3309C78.303 33.1576 77.955 32.9204 77.7022 32.6193C77.4493 32.3181 77.2973 31.9772 77.2462 31.5965L79.2192 31.4857C79.2561 31.6193 79.3243 31.7357 79.4238 31.8352C79.526 31.9346 79.6581 32.0113 79.8201 32.0653C79.9848 32.1193 80.178 32.1462 80.3996 32.1462C80.749 32.1462 81.0374 32.061 81.2647 31.8906C81.4948 31.7229 81.6098 31.4289 81.6098 31.0085V29.8579H81.5374C81.455 30.0596 81.33 30.24 81.1624 30.3991C80.9948 30.5582 80.786 30.6832 80.536 30.7741C80.2888 30.865 80.0047 30.9104 79.6837 30.9104C79.2064 30.9104 78.7689 30.7997 78.3712 30.5781C77.9763 30.3536 77.6595 30.007 77.4209 29.5383C77.1851 29.0667 77.0672 28.4602 77.0672 27.7187C77.0672 26.9545 77.1894 26.3252 77.4337 25.8309C77.678 25.3337 77.9976 24.9658 78.3925 24.7272C78.7902 24.4886 79.2178 24.3693 79.6752 24.3693C80.0189 24.3693 80.313 24.4289 80.5573 24.5482C80.8044 24.6647 81.0076 24.8153 81.1666 24.9999C81.3257 25.1846 81.4465 25.3764 81.5289 25.5752H81.5885V24.4545H83.6638V31.0255C83.6638 31.5795 83.5246 32.0468 83.2462 32.4275C82.9678 32.8082 82.5786 33.0965 82.0786 33.2925C81.5786 33.4914 81.0005 33.5908 80.3442 33.5908ZM80.4081 29.3934C80.661 29.3934 80.8769 29.3266 81.0559 29.1931C81.2348 29.0596 81.3726 28.8678 81.4692 28.6178C81.5658 28.3678 81.6141 28.0681 81.6141 27.7187C81.6141 27.3636 81.5658 27.0582 81.4692 26.8025C81.3755 26.544 81.2377 26.3451 81.0559 26.2059C80.8769 26.0667 80.661 25.9971 80.4081 25.9971C80.1496 25.9971 79.9309 26.0681 79.7519 26.2102C79.5729 26.3522 79.4365 26.5525 79.3428 26.811C79.2519 27.0667 79.2064 27.3693 79.2064 27.7187C79.2064 28.0681 79.2533 28.3678 79.347 28.6178C79.4408 28.8678 79.5757 29.0596 79.7519 29.1931C79.9309 29.3266 80.1496 29.3934 80.4081 29.3934ZM88.0519 31.1235C87.3673 31.1235 86.7764 30.9886 86.2792 30.7187C85.7849 30.446 85.4042 30.0582 85.1372 29.5553C84.873 29.0497 84.7409 28.4488 84.7409 27.7528C84.7409 27.0766 84.8744 26.4857 85.1414 25.9801C85.4085 25.4715 85.7849 25.0766 86.2707 24.7954C86.7565 24.5113 87.3289 24.3693 87.988 24.3693C88.4539 24.3693 88.8801 24.4417 89.2664 24.5866C89.6528 24.7315 89.9866 24.946 90.2679 25.2301C90.5491 25.5141 90.7679 25.865 90.9241 26.2826C91.0804 26.6974 91.1585 27.1732 91.1585 27.7102V28.2301H85.4696V27.0198H89.2196C89.2167 26.7982 89.1642 26.6008 89.0619 26.4275C88.9596 26.2542 88.819 26.1193 88.64 26.0227C88.4639 25.9232 88.2608 25.8735 88.0306 25.8735C87.7977 25.8735 87.5889 25.9261 87.4042 26.0312C87.2196 26.1335 87.0733 26.2741 86.9653 26.4531C86.8573 26.6292 86.8005 26.8295 86.7948 27.0539V28.2854C86.7948 28.5525 86.8474 28.7869 86.9525 28.9886C87.0576 29.1874 87.2068 29.3423 87.4 29.4531C87.5931 29.5639 87.8233 29.6193 88.0903 29.6193C88.275 29.6193 88.4426 29.5937 88.5931 29.5425C88.7437 29.4914 88.873 29.4161 88.9809 29.3167C89.0889 29.2173 89.1698 29.0951 89.2238 28.9502L91.1372 29.0056C91.0576 29.4346 90.8829 29.8082 90.613 30.1264C90.346 30.4417 89.9951 30.6874 89.5605 30.8636C89.1258 31.0369 88.623 31.1235 88.0519 31.1235Z" fill="#F7CF0D"/>
</g>
<rect x="0.749756" y="0.749939" width="129.5" height="38.5" rx="5.25" stroke="white" stroke-opacity="0.15" stroke-width="1.5"/>
<defs>
<filter id="filter0_d_18_3193" x="5.99976" y="1.99994" width="36" height="36" filterUnits="userSpaceOnUse" color-interpolation-filters="sRGB">
<feFlood flood-opacity="0" result="BackgroundImageFix"/>
<feColorMatrix in="SourceAlpha" type="matrix" values="0 0 0 0 0 0 0 0 0 0 0 0 0 0 0 0 0 0 127 0" result="hardAlpha"/>
<feOffset/>
<feGaussianBlur stdDeviation="2"/>
<feComposite in2="hardAlpha" operator="out"/>
<feColorMatrix type="matrix" values="0 0 0 0 0 0 0 0 0 0 0 0 0 0 0 0 0 0 0.25 0"/>
<feBlend mode="normal" in2="BackgroundImageFix" result="effect1_dropShadow_18_3193"/>
<feBlend mode="normal" in="SourceGraphic" in2="effect1_dropShadow_18_3193" result="shape"/>
</filter>
<filter id="filter1_d_18_3193" x="41.9998" y="2.99994" width="83" height="34.5909" filterUnits="userSpaceOnUse" color-interpolation-filters="sRGB">
<feFlood flood-opacity="0" result="BackgroundImageFix"/>
<feColorMatrix in="SourceAlpha" type="matrix" values="0 0 0 0 0 0 0 0 0 0 0 0 0 0 0 0 0 0 127 0" result="hardAlpha"/>
<feOffset/>
<feGaussianBlur stdDeviation="2"/>
<feComposite in2="hardAlpha" operator="out"/>
<feColorMatrix type="matrix" values="0 0 0 0 0 0 0 0 0 0 0 0 0 0 0 0 0 0 0.25 0"/>
<feBlend mode="normal" in2="BackgroundImageFix" result="effect1_dropShadow_18_3193"/>
<feBlend mode="normal" in="SourceGraphic" in2="effect1_dropShadow_18_3193" result="shape"/>
</filter>
<linearGradient id="paint0_linear_18_3193" x1="65.4997" y1="-6.10351e-05" x2="65.4997" y2="39.9999" gradientUnits="userSpaceOnUse">
<stop stop-color="#2C1B1B"/>
<stop offset="1" stop-color="#1F1414"/>
</linearGradient>
<clipPath id="clip0_18_3193">
<rect width="28" height="28" fill="white" transform="translate(9.99976 5.99994)"/>
</clipPath>
</defs>
</svg>
