<svg width="41" height="40" viewBox="0 0 41 40" fill="none" xmlns="http://www.w3.org/2000/svg">
<rect x="0.0107422" y="-3.05176e-05" width="40" height="40" rx="8" fill="url(#paint0_linear_2_1702)"/>
<g filter="url(#filter0_d_2_1702)">
<g clip-path="url(#clip0_2_1702)">
<rect x="6.01074" y="5.99997" width="28.0001" height="28.0001" fill="#FFC4C4"/>
<mask id="mask0_2_1702" style="mask-type:alpha" maskUnits="userSpaceOnUse" x="7" y="9" width="28" height="25">
<rect x="7.87451" y="13.4723" width="23.1849" height="20.6502" transform="rotate(-9.78 7.87451 13.4723)" fill="#D9D9D9"/>
</mask>
<g mask="url(#mask0_2_1702)">
<rect x="15.4535" y="9.15796" width="5.12496" height="19.6599" rx="2.56248" transform="rotate(-9.77729 15.4535 9.15796)" fill="white" fill-opacity="0.3" stroke="black" stroke-width="1.75"/>
</g>
<mask id="mask1_2_1702" style="mask-type:alpha" maskUnits="userSpaceOnUse" x="16" y="9" width="7" height="19">
<rect x="16.4209" y="9.62112" width="3.37496" height="18.1641" rx="1.68748" transform="rotate(-9.77729 16.4209 9.62112)" fill="white"/>
</mask>
<g mask="url(#mask1_2_1702)">
<rect x="10.6958" y="14.2776" width="20.6894" height="15.0468" fill="url(#paint1_linear_2_1702)"/>
</g>
<path d="M27.1879 7.49097L38.265 15.45L25.8338 21.0635L27.1879 7.49097Z" fill="#FF5E5E"/>
<path d="M32.1676 24.084L33.6366 34.7137L23.6966 30.6711L32.1676 24.084Z" fill="#FFA337"/>
<path d="M7.94076 13.1922L14.5893 21.6151L3.97061 23.1614L7.94076 13.1922Z" fill="#FFEE57"/>
</g>
</g>
<rect x="1.06074" y="1.04997" width="37.9" height="37.9" rx="6.95" stroke="white" stroke-opacity="0.15" stroke-width="2.1"/>
<defs>
<filter id="filter0_d_2_1702" x="2.01074" y="1.99997" width="36" height="36.0001" filterUnits="userSpaceOnUse" color-interpolation-filters="sRGB">
<feFlood flood-opacity="0" result="BackgroundImageFix"/>
<feColorMatrix in="SourceAlpha" type="matrix" values="0 0 0 0 0 0 0 0 0 0 0 0 0 0 0 0 0 0 127 0" result="hardAlpha"/>
<feOffset/>
<feGaussianBlur stdDeviation="2"/>
<feComposite in2="hardAlpha" operator="out"/>
<feColorMatrix type="matrix" values="0 0 0 0 0 0 0 0 0 0 0 0 0 0 0 0 0 0 0.25 0"/>
<feBlend mode="normal" in2="BackgroundImageFix" result="effect1_dropShadow_2_1702"/>
<feBlend mode="normal" in="SourceGraphic" in2="effect1_dropShadow_2_1702" result="shape"/>
</filter>
<linearGradient id="paint0_linear_2_1702" x1="20.0107" y1="-3.05176e-05" x2="20.0107" y2="40" gradientUnits="userSpaceOnUse">
<stop stop-color="#363313"/>
<stop offset="1" stop-color="#2D0F0F"/>
</linearGradient>
<linearGradient id="paint1_linear_2_1702" x1="21.0405" y1="14.2776" x2="21.0405" y2="29.3245" gradientUnits="userSpaceOnUse">
<stop stop-color="#FF4D00"/>
<stop offset="0.0885417" stop-color="#FF4D00"/>
<stop offset="1" stop-color="#FF0000"/>
</linearGradient>
<clipPath id="clip0_2_1702">
<rect x="6.01074" y="5.99997" width="28.0001" height="28.0001" rx="14" fill="white"/>
</clipPath>
</defs>
</svg>
