<svg width="41" height="40" viewBox="0 0 41 40" fill="none" xmlns="http://www.w3.org/2000/svg">
<rect x="0.0107422" y="-6.10352e-05" width="40" height="40" rx="8" fill="url(#paint0_linear_2_1738)"/>
<g filter="url(#filter0_d_2_1738)">
<path fill-rule="evenodd" clip-rule="evenodd" d="M19.7954 13.0343H31.8569V17.9567H19.7954V13.0343Z" fill="white"/>
<path fill-rule="evenodd" clip-rule="evenodd" d="M8.88254 29.1044C7.82026 29.1044 6.89482 28.5214 6.398 27.6566C6.14435 28.0962 6.01073 28.5958 6.01074 29.1044C6.01074 30.7036 7.29644 31.9999 8.88254 31.9999H11.7543V29.1044H8.88254Z" fill="#3ECC5F"/>
<path fill-rule="evenodd" clip-rule="evenodd" d="M21.803 13.8126L31.8571 13.1791V11.7314C31.8571 10.1322 30.5714 8.83584 28.9853 8.83584H16.0622L15.7033 8.20896C15.5436 7.93027 15.1449 7.93027 14.9853 8.20896L14.6264 8.83584L14.2674 8.20896C14.1078 7.93027 13.709 7.93027 13.5494 8.20896L13.1905 8.83584L12.8315 8.20896C12.672 7.93027 12.2731 7.93027 12.1135 8.20896L11.7546 8.83584C11.7514 8.83584 11.7485 8.83627 11.7452 8.83627L11.1505 8.23676C10.925 8.00931 10.5399 8.11326 10.4572 8.4241L10.2606 9.16303L9.51513 8.9615C9.2067 8.87826 8.92483 9.1626 9.00754 9.47343L9.20713 10.2252L8.47454 10.4232C8.16611 10.5065 8.06286 10.895 8.28844 11.1224L8.88319 11.7221C8.88319 11.7251 8.88276 11.7282 8.88276 11.7314L8.26102 12.0933C7.98461 12.2541 7.98461 12.6563 8.26102 12.8172L8.88276 13.1791L8.26102 13.541C7.98461 13.7019 7.98461 14.1041 8.26102 14.2649L8.88276 14.6269L8.26102 14.9888C7.98461 15.1496 7.98461 15.5518 8.26102 15.7127L8.88276 16.0746L8.26102 16.4366C7.98461 16.5974 7.98461 16.9996 8.26102 17.1604L8.88276 17.5224L8.26102 17.8843C7.98461 18.0452 7.98461 18.4473 8.26102 18.6082L8.88276 18.9701L8.26102 19.3321C7.98461 19.4929 7.98461 19.8951 8.26102 20.056L8.88276 20.4179L8.26102 20.7798C7.98461 20.9407 7.98461 21.3429 8.26102 21.5037L8.88276 21.8656L8.26102 22.2276C7.98461 22.3884 7.98461 22.7906 8.26102 22.9515L8.88276 23.3134L8.26102 23.6753C7.98461 23.8362 7.98461 24.2384 8.26102 24.3992L8.88276 24.7612L8.26102 25.1231C7.98461 25.2839 7.98461 25.6861 8.26102 25.847L8.88276 26.2089L8.26102 26.5709C7.98461 26.7317 7.98461 27.1339 8.26102 27.2947L8.88276 27.6567L8.26102 28.0186C7.98461 28.1795 7.98461 28.5816 8.26102 28.7425L8.88276 29.1044C8.88276 30.7036 10.1685 31.9999 11.7546 31.9999H28.9853C30.5714 31.9999 31.8571 30.7036 31.8571 29.1044V17.5224L21.803 16.8888C21.4149 16.8643 21.0506 16.6916 20.7844 16.4059C20.5182 16.1201 20.3699 15.7428 20.3699 15.3507C20.3699 14.537 20.9974 13.8635 21.803 13.8126Z" fill="#3ECC5F"/>
<path fill-rule="evenodd" clip-rule="evenodd" d="M26.1133 31.9999H30.421V26.2089H26.1133V31.9999Z" fill="#3ECC5F"/>
<path fill-rule="evenodd" clip-rule="evenodd" d="M33.2934 28.3805C33.2619 28.3805 33.2319 28.3859 33.2016 28.3898C33.1962 28.368 33.191 28.3462 33.185 28.3245C33.338 28.26 33.4641 28.144 33.542 27.9964C33.6198 27.8487 33.6446 27.6784 33.612 27.5145C33.5794 27.3505 33.4916 27.203 33.3633 27.0969C33.2351 26.9909 33.0744 26.9329 32.9086 26.9327C32.7518 26.9333 32.5996 26.986 32.4755 27.0827C32.4596 27.0664 32.4436 27.0502 32.4274 27.0341C32.5212 26.9097 32.5722 26.7579 32.5726 26.6016C32.5725 26.4349 32.5153 26.2732 32.4106 26.1441C32.3059 26.0149 32.1603 25.9262 31.9982 25.8928C31.8361 25.8595 31.6676 25.8836 31.5211 25.961C31.3746 26.0385 31.2592 26.1646 31.1943 26.318C31.173 26.3119 31.1516 26.3069 31.1304 26.3014C31.1342 26.2708 31.1395 26.2406 31.1395 26.2089C31.1395 26.0169 31.0639 25.8328 30.9293 25.697C30.7946 25.5613 30.612 25.485 30.4216 25.485C30.2312 25.485 30.0486 25.5613 29.9139 25.697C29.7793 25.8328 29.7037 26.0169 29.7037 26.2089C29.7037 26.2406 29.709 26.2708 29.7128 26.3014C29.6916 26.3069 29.6702 26.3119 29.6489 26.318C29.5843 26.1643 29.4689 26.0379 29.3223 25.9602C29.1757 25.8825 29.007 25.8583 28.8448 25.8917C28.6825 25.9251 28.5367 26.014 28.4321 26.1434C28.3274 26.2728 28.2704 26.4347 28.2706 26.6016C28.2706 26.7645 28.3258 26.9131 28.4158 27.0341C27.8821 27.5599 27.5498 28.2926 27.5498 29.1044C27.5498 30.7036 28.8355 31.9999 30.4216 31.9999C31.7626 31.9999 32.8856 31.0719 33.2016 29.819C33.2319 29.8229 33.2619 29.8283 33.2934 29.8283C33.4838 29.8283 33.6664 29.752 33.8011 29.6162C33.9357 29.4805 34.0113 29.2964 34.0113 29.1044C34.0113 28.9124 33.9357 28.7283 33.8011 28.5925C33.6664 28.4568 33.4838 28.3805 33.2934 28.3805Z" fill="#44D860"/>
<path fill-rule="evenodd" clip-rule="evenodd" d="M27.5498 23.3134H31.8575V20.4178H27.5498V23.3134Z" fill="#3ECC5F"/>
<path fill-rule="evenodd" clip-rule="evenodd" d="M33.2927 22.2276C33.3879 22.2276 33.4792 22.1894 33.5465 22.1215C33.6138 22.0537 33.6517 21.9616 33.6517 21.8656C33.6517 21.7696 33.6138 21.6776 33.5465 21.6097C33.4792 21.5418 33.3879 21.5037 33.2927 21.5037C33.277 21.5037 33.262 21.5064 33.2469 21.5083C33.244 21.4975 33.2416 21.4866 33.2386 21.4757C33.315 21.4434 33.3779 21.3854 33.4168 21.3116C33.4556 21.2378 33.4679 21.1527 33.4517 21.0708C33.4354 20.9888 33.3915 20.9151 33.3275 20.8621C33.2634 20.809 33.1832 20.78 33.1003 20.7798C33.0186 20.7798 32.9441 20.8083 32.8837 20.8548C32.8759 20.8465 32.8678 20.8384 32.8596 20.8305C32.9047 20.7701 32.9323 20.6957 32.9323 20.6142C32.9323 20.5308 32.9037 20.4499 32.8513 20.3853C32.799 20.3207 32.7261 20.2763 32.645 20.2597C32.564 20.243 32.4797 20.2551 32.4064 20.2938C32.3332 20.3326 32.2755 20.3957 32.2431 20.4724C32.1174 20.4366 31.9874 20.4182 31.8568 20.4179C31.0639 20.4179 30.4209 21.0662 30.4209 21.8656C30.4209 22.6651 31.0639 23.3134 31.8568 23.3134C31.9909 23.3134 32.12 23.2934 32.2431 23.2588C32.2755 23.3355 32.3332 23.3986 32.4064 23.4374C32.4797 23.4762 32.564 23.4882 32.645 23.4716C32.7261 23.4549 32.799 23.4105 32.8513 23.3459C32.9037 23.2813 32.9323 23.2005 32.9323 23.1171C32.9323 23.0355 32.9047 22.9611 32.8596 22.9008C32.8678 22.8928 32.8759 22.8847 32.8837 22.8764C32.9441 22.9229 33.0186 22.9514 33.1003 22.9514C33.1832 22.9514 33.2636 22.9224 33.3278 22.8694C33.392 22.8164 33.4359 22.7426 33.4522 22.6606C33.4685 22.5786 33.4561 22.4934 33.4172 22.4195C33.3782 22.3457 33.3151 22.2877 33.2386 22.2555C33.2416 22.2448 33.244 22.2338 33.2469 22.2229C33.262 22.2248 33.277 22.2276 33.2927 22.2276Z" fill="#44D860"/>
<path fill-rule="evenodd" clip-rule="evenodd" d="M14.6268 13.541C14.5316 13.541 14.4403 13.5029 14.3729 13.435C14.3056 13.3671 14.2678 13.2751 14.2678 13.1791C14.2678 12.5803 13.7848 12.0933 13.1909 12.0933C12.597 12.0933 12.1139 12.5803 12.1139 13.1791C12.1139 13.2751 12.0761 13.3671 12.0088 13.435C11.9415 13.5029 11.8502 13.541 11.755 13.541C11.6598 13.541 11.5685 13.5029 11.5011 13.435C11.4338 13.3671 11.396 13.2751 11.396 13.1791C11.396 12.1811 12.2011 11.3694 13.1909 11.3694C14.1806 11.3694 14.9857 12.1811 14.9857 13.1791C14.9857 13.2751 14.9479 13.3671 14.8806 13.435C14.8133 13.5029 14.722 13.541 14.6268 13.541Z" fill="black"/>
<path fill-rule="evenodd" clip-rule="evenodd" d="M20.3696 31.9999H28.985C30.5711 31.9999 31.8568 30.7036 31.8568 29.1044V18.9701H23.2414C21.6553 18.9701 20.3696 20.2664 20.3696 21.8656V31.9999Z" fill="#FFFF50"/>
<path fill-rule="evenodd" clip-rule="evenodd" d="M29.7061 23.4582H22.5209C22.4828 23.4582 22.4463 23.4429 22.4193 23.4158C22.3924 23.3886 22.3773 23.3518 22.3773 23.3134C22.3773 23.275 22.3924 23.2382 22.4193 23.211C22.4463 23.1839 22.4828 23.1686 22.5209 23.1686H29.7061C29.7442 23.1686 29.7807 23.1839 29.8076 23.211C29.8346 23.2382 29.8497 23.275 29.8497 23.3134C29.8497 23.3518 29.8346 23.3886 29.8076 23.4158C29.7807 23.4429 29.7442 23.4582 29.7061 23.4582ZM29.7061 26.3537H22.5209C22.4828 26.3537 22.4463 26.3384 22.4193 26.3113C22.3924 26.2841 22.3773 26.2473 22.3773 26.2089C22.3773 26.1705 22.3924 26.1337 22.4193 26.1065C22.4463 26.0794 22.4828 26.0641 22.5209 26.0641H29.7061C29.7442 26.0641 29.7807 26.0794 29.8076 26.1065C29.8346 26.1337 29.8497 26.1705 29.8497 26.2089C29.8497 26.2473 29.8346 26.2841 29.8076 26.3113C29.7807 26.3384 29.7442 26.3537 29.7061 26.3537ZM29.7061 29.2492H22.5209C22.4828 29.2492 22.4463 29.2339 22.4193 29.2068C22.3924 29.1796 22.3773 29.1428 22.3773 29.1044C22.3773 29.066 22.3924 29.0292 22.4193 29.002C22.4463 28.9749 22.4828 28.9596 22.5209 28.9596H29.7061C29.7442 28.9596 29.7807 28.9749 29.8076 29.002C29.8346 29.0292 29.8497 29.066 29.8497 29.1044C29.8497 29.1428 29.8346 29.1796 29.8076 29.2068C29.7807 29.2339 29.7442 29.2492 29.7061 29.2492ZM29.7061 22.0373H22.5209C22.4828 22.0373 22.4463 22.0221 22.4193 21.9949C22.3924 21.9678 22.3773 21.931 22.3773 21.8926C22.3773 21.8542 22.3924 21.8173 22.4193 21.7902C22.4463 21.763 22.4828 21.7478 22.5209 21.7478H29.7061C29.7442 21.7478 29.7807 21.763 29.8076 21.7902C29.8346 21.8173 29.8497 21.8542 29.8497 21.8926C29.8497 21.931 29.8346 21.9678 29.8076 21.9949C29.7807 22.0221 29.7442 22.0373 29.7061 22.0373ZM29.7061 24.9059H22.5209C22.4828 24.9059 22.4463 24.8907 22.4193 24.8635C22.3924 24.8364 22.3773 24.7995 22.3773 24.7611C22.3773 24.7228 22.3924 24.6859 22.4193 24.6588C22.4463 24.6316 22.4828 24.6164 22.5209 24.6164H29.7061C29.7442 24.6164 29.7807 24.6316 29.8076 24.6588C29.8346 24.6859 29.8497 24.7228 29.8497 24.7611C29.8497 24.7995 29.8346 24.8364 29.8076 24.8635C29.7807 24.8907 29.7442 24.9059 29.7061 24.9059ZM29.7061 27.8014H22.5209C22.4828 27.8014 22.4463 27.7862 22.4193 27.759C22.3924 27.7319 22.3773 27.6951 22.3773 27.6567C22.3773 27.6183 22.3924 27.5814 22.4193 27.5543C22.4463 27.5271 22.4828 27.5119 22.5209 27.5119H29.7061C29.7442 27.5119 29.7807 27.5271 29.8076 27.5543C29.8346 27.5814 29.8497 27.6183 29.8497 27.6567C29.8497 27.6951 29.8346 27.7319 29.8076 27.759C29.7807 27.7862 29.7442 27.8014 29.7061 27.8014ZM31.8571 14.4258C31.8554 14.4258 31.8539 14.4249 31.8522 14.425C31.4085 14.4402 31.1986 14.8877 31.0133 15.2825C30.8201 15.6952 30.6706 15.9634 30.4256 15.9553C30.1544 15.9455 29.9993 15.6365 29.835 15.3096C29.6464 14.9341 29.431 14.5081 28.9788 14.5241C28.5414 14.5391 28.3308 14.9286 28.145 15.2721C27.9473 15.6381 27.8127 15.8606 27.5533 15.8504C27.2766 15.8402 27.1295 15.589 26.9594 15.2983C26.7697 14.9746 26.5504 14.6106 26.107 14.6231C25.6771 14.638 25.4659 14.9684 25.2795 15.2601C25.0824 15.5685 24.9442 15.7564 24.6815 15.7452C24.3982 15.7351 24.2518 15.5266 24.0826 15.2853C23.8924 15.0141 23.6782 14.7072 23.2361 14.7221C22.8157 14.7366 22.6044 15.0073 22.4182 15.2459C22.2413 15.4723 22.1032 15.6516 21.811 15.6403C21.7729 15.6389 21.7358 15.6528 21.7079 15.679C21.68 15.7052 21.6636 15.7414 21.6622 15.7798C21.6608 15.8182 21.6746 15.8556 21.7006 15.8837C21.7266 15.9119 21.7625 15.9285 21.8006 15.9298C22.2338 15.9445 22.4532 15.6692 22.6438 15.425C22.8128 15.2084 22.9587 15.0215 23.2459 15.0117C23.5224 14.9998 23.6521 15.1731 23.8482 15.4525C24.0344 15.718 24.2458 16.0192 24.6711 16.0347C25.1167 16.0497 25.3311 15.714 25.5209 15.4169C25.6906 15.1514 25.8371 14.9222 26.1168 14.9125C26.3742 14.9028 26.5144 15.1079 26.712 15.4454C26.8982 15.7635 27.1091 16.1238 27.5429 16.1398C27.9916 16.1554 28.2083 15.7604 28.3971 15.4108C28.5607 15.1085 28.715 14.823 28.9886 14.8135C29.246 14.8074 29.3803 15.0444 29.5789 15.4403C29.7644 15.81 29.9748 16.2287 30.4153 16.2447L30.4396 16.2452C30.8795 16.2452 31.0883 15.8 31.2731 15.4063C31.4366 15.0574 31.5914 14.7288 31.8571 14.7153V14.4258Z" fill="black"/>
<path fill-rule="evenodd" clip-rule="evenodd" d="M17.4985 31.9999H23.2421V26.2089H17.4985V31.9999Z" fill="#3ECC5F"/>
<path d="M31.822 16.9755L20.6539 19.9927C20.5007 20.0341 20.4097 20.1928 20.4508 20.3473L21.5422 24.4541C21.5832 24.6085 21.7407 24.7002 21.8939 24.6588L33.0621 21.6416C33.2153 21.6002 33.3062 21.4414 33.2651 21.287L32.1737 17.1802C32.1327 17.0257 31.9752 16.9341 31.822 16.9755Z" fill="#D8D8D8"/>
<path d="M24.0244 22.2408L23.6245 22.3488C23.5479 22.3695 23.5025 22.4489 23.523 22.5261L23.6301 22.9293C23.6507 23.0065 23.7294 23.0524 23.806 23.0317L24.2059 22.9236C24.2825 22.9029 24.3279 22.8236 24.3074 22.7463L24.2003 22.3432C24.1797 22.2659 24.101 22.2201 24.0244 22.2408Z" fill="#4A4A4A"/>
<path d="M24.8271 22.0239L24.4273 22.132C24.3507 22.1527 24.3052 22.232 24.3257 22.3093L24.4329 22.7124C24.4534 22.7897 24.5321 22.8355 24.6087 22.8148L25.0086 22.7068C25.0852 22.6861 25.1307 22.6067 25.1101 22.5295L25.003 22.1263C24.9825 22.0491 24.9037 22.0032 24.8271 22.0239Z" fill="#4A4A4A"/>
<path d="M25.6294 21.8071L25.2295 21.9151C25.1529 21.9358 25.1075 22.0152 25.128 22.0924L25.2351 22.4956C25.2557 22.5728 25.3344 22.6187 25.411 22.598L25.8109 22.49C25.8875 22.4693 25.9329 22.3899 25.9124 22.3126L25.8052 21.9095C25.7847 21.8322 25.706 21.7864 25.6294 21.8071Z" fill="#4A4A4A"/>
<path d="M26.4326 21.5902L26.0327 21.6983C25.9561 21.719 25.9107 21.7984 25.9312 21.8756L26.0383 22.2788C26.0589 22.356 26.1376 22.4018 26.2142 22.3811L26.6141 22.2731C26.6907 22.2524 26.7361 22.173 26.7156 22.0958L26.6085 21.6926C26.5879 21.6154 26.5092 21.5696 26.4326 21.5902Z" fill="#4A4A4A"/>
<path d="M27.2344 21.3734L26.8345 21.4815C26.7579 21.5021 26.7124 21.5815 26.733 21.6588L26.8401 22.0619C26.8606 22.1392 26.9394 22.185 27.016 22.1643L27.4158 22.0563C27.4924 22.0356 27.5379 21.9562 27.5174 21.879L27.4102 21.4758C27.3897 21.3986 27.311 21.3527 27.2344 21.3734Z" fill="#4A4A4A"/>
<path d="M28.0366 21.1566L27.6367 21.2646C27.5601 21.2853 27.5147 21.3647 27.5352 21.4419L27.6424 21.8451C27.6629 21.9223 27.7416 21.9681 27.8182 21.9474L28.2181 21.8394C28.2947 21.8187 28.3401 21.7393 28.3196 21.6621L28.2125 21.2589C28.1919 21.1817 28.1132 21.1359 28.0366 21.1566Z" fill="#4A4A4A"/>
<path d="M28.8398 20.9397L28.44 21.0478C28.3634 21.0685 28.3179 21.1478 28.3384 21.2251L28.4456 21.6282C28.4661 21.7055 28.5448 21.7513 28.6214 21.7306L29.0213 21.6226C29.0979 21.6019 29.1434 21.5225 29.1228 21.4453L29.0157 21.0421C28.9952 20.9649 28.9164 20.919 28.8398 20.9397Z" fill="#4A4A4A"/>
<path d="M29.6431 20.7228L29.2432 20.8309C29.1666 20.8516 29.1211 20.931 29.1417 21.0082L29.2488 21.4114C29.2693 21.4886 29.3481 21.5344 29.4247 21.5137L29.8245 21.4057C29.9011 21.385 29.9466 21.3056 29.9261 21.2284L29.8189 20.8252C29.7984 20.748 29.7197 20.7022 29.6431 20.7228Z" fill="#4A4A4A"/>
<path d="M30.4453 20.5061L30.0454 20.6141C29.9688 20.6348 29.9234 20.7142 29.9439 20.7914L30.051 21.1946C30.0716 21.2718 30.1503 21.3176 30.2269 21.2969L30.6268 21.1889C30.7034 21.1682 30.7488 21.0888 30.7283 21.0116L30.6212 20.6084C30.6006 20.5312 30.5219 20.4854 30.4453 20.5061Z" fill="#4A4A4A"/>
<path fill-rule="evenodd" clip-rule="evenodd" d="M21.4927 22.925L23.1968 22.4646C23.2336 22.4547 23.2727 22.4599 23.3057 22.4791C23.3387 22.4983 23.3628 22.5299 23.3726 22.567L23.4797 22.97C23.4896 23.0071 23.4844 23.0466 23.4654 23.0799C23.4464 23.1131 23.415 23.1374 23.3782 23.1473L21.6742 23.6077C21.6374 23.6176 21.5982 23.6124 21.5652 23.5932C21.5322 23.574 21.5082 23.5424 21.4983 23.5053L21.3912 23.1022C21.3813 23.0651 21.3865 23.0255 21.4055 22.9923C21.4246 22.959 21.4559 22.9348 21.4927 22.9248L21.4927 22.925ZM30.8734 20.3907L32.5775 19.9303C32.6143 19.9203 32.6535 19.9255 32.6865 19.9447C32.7195 19.9639 32.7435 19.9956 32.7534 20.0327L32.8605 20.4357C32.8704 20.4728 32.8652 20.5123 32.8462 20.5455C32.8271 20.5788 32.7958 20.6031 32.759 20.613L31.0547 21.0734C31.0179 21.0834 30.9787 21.0782 30.9457 21.059C30.9127 21.0398 30.8887 21.0082 30.8788 20.9711L30.7717 20.5679C30.7618 20.5308 30.767 20.4913 30.786 20.458C30.8051 20.4248 30.8364 20.4005 30.8732 20.3906L30.8734 20.3907Z" fill="#4A4A4A"/>
<path fill-rule="evenodd" clip-rule="evenodd" d="M21.0586 21.2908L21.7091 21.1151C21.7459 21.1052 21.7851 21.1104 21.8181 21.1296C21.851 21.1488 21.8751 21.1804 21.885 21.2175L21.9921 21.6205C22.0019 21.6576 21.9968 21.6971 21.9777 21.7304C21.9587 21.7636 21.9273 21.7879 21.8905 21.7978L21.2401 21.9735C21.2033 21.9835 21.1641 21.9783 21.1311 21.9591C21.0981 21.9399 21.074 21.9083 21.0642 21.8712L20.9571 21.4682C20.9472 21.4311 20.9524 21.3915 20.9714 21.3583C20.9905 21.325 21.0218 21.3008 21.0586 21.2908Z" fill="#4A4A4A"/>
<path d="M22.5122 20.8982L22.1123 21.0062C22.0357 21.0269 21.9903 21.1063 22.0108 21.1835L22.1179 21.5867C22.1385 21.6639 22.2172 21.7097 22.2938 21.6891L22.6937 21.581C22.7703 21.5603 22.8157 21.4809 22.7952 21.4037L22.6881 21.0005C22.6675 20.9233 22.5888 20.8775 22.5122 20.8982Z" fill="#4A4A4A"/>
<path d="M23.3144 20.6813L22.9146 20.7893C22.838 20.81 22.7925 20.8894 22.813 20.9666L22.9202 21.3698C22.9407 21.447 23.0194 21.4928 23.096 21.4721L23.4959 21.3641C23.5725 21.3434 23.618 21.264 23.5974 21.1868L23.4903 20.7836C23.4698 20.7064 23.391 20.6606 23.3144 20.6813Z" fill="#4A4A4A"/>
<path d="M24.1172 20.4645L23.7173 20.5725C23.6407 20.5932 23.5953 20.6726 23.6158 20.7498L23.7229 21.153C23.7434 21.2302 23.8222 21.276 23.8988 21.2553L24.2986 21.1473C24.3752 21.1266 24.4207 21.0472 24.4002 20.97L24.293 20.5668C24.2725 20.4896 24.1938 20.4438 24.1172 20.4645Z" fill="#4A4A4A"/>
<path d="M24.9199 20.2476L24.52 20.3557C24.4434 20.3764 24.398 20.4557 24.4185 20.533L24.5257 20.9361C24.5462 21.0134 24.6249 21.0592 24.7015 21.0385L25.1014 20.9305C25.178 20.9098 25.2234 20.8304 25.2029 20.7532L25.0958 20.35C25.0752 20.2728 24.9965 20.2269 24.9199 20.2476Z" fill="#4A4A4A"/>
<path d="M25.7226 20.0307L25.3228 20.1388C25.2462 20.1595 25.2007 20.2388 25.2212 20.3161L25.3284 20.7192C25.3489 20.7965 25.4276 20.8423 25.5042 20.8216L25.9041 20.7136C25.9807 20.6929 26.0262 20.6135 26.0056 20.5363L25.8985 20.1331C25.878 20.0559 25.7992 20.01 25.7226 20.0307Z" fill="#4A4A4A"/>
<path d="M26.5249 19.8139L26.125 19.9219C26.0484 19.9426 26.003 20.022 26.0235 20.0993L26.1306 20.5024C26.1512 20.5797 26.2299 20.6255 26.3065 20.6048L26.7064 20.4968C26.783 20.4761 26.8284 20.3967 26.8079 20.3195L26.7007 19.9163C26.6802 19.8391 26.6015 19.7932 26.5249 19.8139Z" fill="#4A4A4A"/>
<path d="M27.3276 19.5971L26.9278 19.7051C26.8512 19.7258 26.8057 19.8052 26.8262 19.8824L26.9334 20.2856C26.9539 20.3628 27.0326 20.4087 27.1092 20.388L27.5091 20.2799C27.5857 20.2592 27.6312 20.1799 27.6106 20.1026L27.5035 19.6995C27.483 19.6222 27.4042 19.5764 27.3276 19.5971Z" fill="#4A4A4A"/>
<path d="M28.1304 19.3803L27.7305 19.4883C27.6539 19.509 27.6084 19.5884 27.629 19.6656L27.7361 20.0688C27.7566 20.146 27.8354 20.1918 27.912 20.1711L28.3118 20.0631C28.3884 20.0424 28.4339 19.963 28.4134 19.8858L28.3062 19.4826C28.2857 19.4054 28.207 19.3596 28.1304 19.3803Z" fill="#4A4A4A"/>
<path d="M28.9326 19.1634L28.5327 19.2714C28.4561 19.2921 28.4107 19.3715 28.4312 19.4487L28.5383 19.8519C28.5589 19.9291 28.6376 19.975 28.7142 19.9543L29.1141 19.8463C29.1907 19.8256 29.2361 19.7462 29.2156 19.6689L29.1085 19.2658C29.0879 19.1885 29.0092 19.1427 28.9326 19.1634Z" fill="#4A4A4A"/>
<path d="M29.7353 18.9465L29.3355 19.0546C29.2589 19.0753 29.2134 19.1547 29.2339 19.2319L29.3411 19.635C29.3616 19.7123 29.4403 19.7581 29.5169 19.7374L29.9168 19.6294C29.9934 19.6087 30.0389 19.5293 30.0183 19.4521L29.9112 19.0489C29.8907 18.9717 29.8119 18.9258 29.7353 18.9465Z" fill="#4A4A4A"/>
<path d="M30.5381 18.7298L30.1382 18.8378C30.0616 18.8585 30.0162 18.9379 30.0367 19.0151L30.1438 19.4183C30.1643 19.4955 30.2431 19.5413 30.3197 19.5207L30.7195 19.4126C30.7961 19.3919 30.8416 19.3125 30.8211 19.2353L30.7139 18.8321C30.6934 18.7549 30.6147 18.7091 30.5381 18.7298Z" fill="#4A4A4A"/>
<path d="M31.3408 18.5129L30.9409 18.621C30.8643 18.6417 30.8189 18.7211 30.8394 18.7983L30.9466 19.2015C30.9671 19.2787 31.0458 19.3245 31.1224 19.3038L31.5223 19.1958C31.5989 19.1751 31.6443 19.0957 31.6238 19.0185L31.5167 18.6153C31.4961 18.5381 31.4174 18.4923 31.3408 18.5129Z" fill="#4A4A4A"/>
<path d="M32.1435 18.2961L31.7437 18.4041C31.6671 18.4248 31.6216 18.5042 31.6421 18.5814L31.7493 18.9846C31.7698 19.0618 31.8485 19.1076 31.9251 19.0869L32.325 18.9789C32.4016 18.9582 32.4471 18.8788 32.4265 18.8016L32.3194 18.3984C32.2989 18.3212 32.2201 18.2754 32.1435 18.2961Z" fill="#4A4A4A"/>
<path fill-rule="evenodd" clip-rule="evenodd" d="M32.1191 18.2046L31.4685 18.3804C31.4317 18.3903 31.3925 18.3851 31.3595 18.3659C31.3265 18.3467 31.3025 18.3151 31.2926 18.278L31.1855 17.8749C31.1756 17.8378 31.1808 17.7982 31.1998 17.765C31.2189 17.7317 31.2502 17.7075 31.287 17.6975L31.9376 17.5218C31.9744 17.5118 32.0136 17.517 32.0466 17.5362C32.0796 17.5554 32.1036 17.587 32.1135 17.6241L32.2206 18.0273C32.2305 18.0644 32.2253 18.1039 32.2063 18.1372C32.1873 18.1704 32.1559 18.1947 32.1191 18.2046V18.2046Z" fill="#4A4A4A"/>
<path d="M30.666 18.5972L31.0659 18.4892C31.1425 18.4685 31.188 18.3891 31.1674 18.3118L31.0603 17.9087C31.0398 17.8314 30.961 17.7856 30.8844 17.8063L30.4846 17.9143C30.408 17.935 30.3625 18.0144 30.383 18.0917L30.4902 18.4948C30.5107 18.5721 30.5894 18.6179 30.666 18.5972Z" fill="#4A4A4A"/>
<path d="M29.8638 18.814L30.2636 18.706C30.3402 18.6853 30.3857 18.6059 30.3652 18.5287L30.258 18.1255C30.2375 18.0483 30.1588 18.0025 30.0822 18.0232L29.6823 18.1312C29.6057 18.1519 29.5603 18.2313 29.5808 18.3085L29.6879 18.7117C29.7084 18.7889 29.7872 18.8347 29.8638 18.814Z" fill="#4A4A4A"/>
<path d="M29.0606 19.0309L29.4604 18.9228C29.537 18.9022 29.5825 18.8228 29.562 18.7455L29.4548 18.3424C29.4343 18.2651 29.3556 18.2193 29.279 18.24L28.8791 18.348C28.8025 18.3687 28.757 18.4481 28.7776 18.5253L28.8847 18.9285C28.9052 19.0057 28.984 19.0516 29.0606 19.0309Z" fill="#4A4A4A"/>
<path d="M28.2578 19.2477L28.6577 19.1397C28.7343 19.119 28.7797 19.0396 28.7592 18.9624L28.6521 18.5592C28.6316 18.482 28.5528 18.4361 28.4762 18.4568L28.0764 18.5649C27.9998 18.5855 27.9543 18.6649 27.9748 18.7422L28.082 19.1453C28.1025 19.2226 28.1812 19.2684 28.2578 19.2477Z" fill="#4A4A4A"/>
<path d="M27.4556 19.4646L27.8554 19.3566C27.932 19.3359 27.9775 19.2565 27.957 19.1792L27.8498 18.7761C27.8293 18.6989 27.7506 18.653 27.674 18.6737L27.2741 18.7817C27.1975 18.8024 27.1521 18.8818 27.1726 18.9591L27.2797 19.3622C27.3002 19.4395 27.379 19.4853 27.4556 19.4646Z" fill="#4A4A4A"/>
<path d="M26.6533 19.6814L27.0532 19.5734C27.1298 19.5527 27.1753 19.4733 27.1547 19.3961L27.0476 18.9929C27.0271 18.9157 26.9483 18.8698 26.8717 18.8905L26.4719 18.9986C26.3953 19.0193 26.3498 19.0986 26.3703 19.1759L26.4775 19.579C26.498 19.6563 26.5767 19.7021 26.6533 19.6814Z" fill="#4A4A4A"/>
<path d="M25.8501 19.8983L26.25 19.7903C26.3266 19.7696 26.372 19.6902 26.3515 19.613L26.2444 19.2098C26.2238 19.1326 26.1451 19.0868 26.0685 19.1075L25.6686 19.2155C25.592 19.2362 25.5466 19.3156 25.5671 19.3928L25.6743 19.796C25.6948 19.8732 25.7735 19.919 25.8501 19.8983Z" fill="#4A4A4A"/>
<path d="M25.0474 20.1151L25.4472 20.0071C25.5238 19.9864 25.5693 19.907 25.5488 19.8298L25.4416 19.4266C25.4211 19.3494 25.3424 19.3036 25.2658 19.3243L24.8659 19.4323C24.7893 19.453 24.7438 19.5324 24.7644 19.6096L24.8715 20.0128C24.892 20.09 24.9708 20.1358 25.0474 20.1151Z" fill="#4A4A4A"/>
<path d="M24.2446 20.332L24.6445 20.2239C24.7211 20.2032 24.7666 20.1239 24.746 20.0466L24.6389 19.6435C24.6184 19.5662 24.5396 19.5204 24.463 19.5411L24.0632 19.6491C23.9866 19.6698 23.9411 19.7492 23.9616 19.8264L24.0688 20.2296C24.0893 20.3068 24.168 20.3527 24.2446 20.332Z" fill="#4A4A4A"/>
<path d="M23.4419 20.5488L23.8418 20.4408C23.9184 20.4201 23.9638 20.3407 23.9433 20.2634L23.8362 19.8603C23.8156 19.783 23.7369 19.7372 23.6603 19.7579L23.2604 19.8659C23.1838 19.8866 23.1384 19.966 23.1589 20.0433L23.266 20.4464C23.2866 20.5236 23.3653 20.5695 23.4419 20.5488Z" fill="#4A4A4A"/>
<path d="M22.6397 20.7656L23.0395 20.6576C23.1161 20.6369 23.1616 20.5575 23.1411 20.4803L23.0339 20.0771C23.0134 19.9999 22.9347 19.9541 22.8581 19.9748L22.4582 20.0828C22.3816 20.1035 22.3361 20.1829 22.3567 20.2601L22.4638 20.6633C22.4843 20.7405 22.5631 20.7863 22.6397 20.7656Z" fill="#4A4A4A"/>
<path d="M21.8369 20.9825L22.2368 20.8744C22.3134 20.8538 22.3588 20.7744 22.3383 20.6971L22.2312 20.294C22.2107 20.2167 22.1319 20.1709 22.0553 20.1916L21.6555 20.2996C21.5789 20.3203 21.5334 20.3997 21.5539 20.4769L21.6611 20.8801C21.6816 20.9573 21.7603 21.0032 21.8369 20.9825Z" fill="#4A4A4A"/>
<path d="M21.0342 21.1993L21.4341 21.0913C21.5107 21.0706 21.5561 20.9912 21.5356 20.914L21.4284 20.5108C21.4079 20.4336 21.3292 20.3877 21.2526 20.4084L20.8527 20.5164C20.7761 20.5371 20.7307 20.6165 20.7512 20.6938L20.8583 21.0969C20.8789 21.1742 20.9576 21.22 21.0342 21.1993Z" fill="#4A4A4A"/>
<path d="M30.666 18.5972L31.0659 18.4892C31.1425 18.4685 31.188 18.3891 31.1674 18.3118L31.0603 17.9087C31.0398 17.8314 30.961 17.7856 30.8844 17.8063L30.4846 17.9143C30.408 17.935 30.3625 18.0144 30.383 18.0917L30.4902 18.4948C30.5107 18.5721 30.5894 18.6179 30.666 18.5972Z" fill="#4A4A4A"/>
<path d="M29.8638 18.814L30.2636 18.706C30.3402 18.6853 30.3857 18.6059 30.3652 18.5287L30.258 18.1255C30.2375 18.0483 30.1588 18.0025 30.0822 18.0232L29.6823 18.1312C29.6057 18.1519 29.5603 18.2313 29.5808 18.3085L29.6879 18.7117C29.7084 18.7889 29.7872 18.8347 29.8638 18.814Z" fill="#4A4A4A"/>
<path d="M29.0606 19.0309L29.4604 18.9228C29.537 18.9022 29.5825 18.8228 29.562 18.7455L29.4548 18.3424C29.4343 18.2651 29.3556 18.2193 29.279 18.24L28.8791 18.348C28.8025 18.3687 28.757 18.4481 28.7776 18.5253L28.8847 18.9285C28.9052 19.0057 28.984 19.0516 29.0606 19.0309Z" fill="#4A4A4A"/>
<path d="M28.2578 19.2477L28.6577 19.1397C28.7343 19.119 28.7797 19.0396 28.7592 18.9624L28.6521 18.5592C28.6316 18.482 28.5528 18.4361 28.4762 18.4568L28.0764 18.5649C27.9998 18.5855 27.9543 18.6649 27.9748 18.7422L28.082 19.1453C28.1025 19.2226 28.1812 19.2684 28.2578 19.2477Z" fill="#4A4A4A"/>
<path d="M27.4556 19.4646L27.8554 19.3566C27.932 19.3359 27.9775 19.2565 27.957 19.1792L27.8498 18.7761C27.8293 18.6989 27.7506 18.653 27.674 18.6737L27.2741 18.7817C27.1975 18.8024 27.1521 18.8818 27.1726 18.9591L27.2797 19.3622C27.3002 19.4395 27.379 19.4853 27.4556 19.4646Z" fill="#4A4A4A"/>
<path d="M26.6533 19.6814L27.0532 19.5734C27.1298 19.5527 27.1753 19.4733 27.1547 19.3961L27.0476 18.9929C27.0271 18.9157 26.9483 18.8698 26.8717 18.8905L26.4719 18.9986C26.3953 19.0193 26.3498 19.0986 26.3703 19.1759L26.4775 19.579C26.498 19.6563 26.5767 19.7021 26.6533 19.6814Z" fill="#4A4A4A"/>
<path d="M25.8501 19.8983L26.25 19.7903C26.3266 19.7696 26.372 19.6902 26.3515 19.613L26.2444 19.2098C26.2238 19.1326 26.1451 19.0868 26.0685 19.1075L25.6686 19.2155C25.592 19.2362 25.5466 19.3156 25.5671 19.3928L25.6743 19.796C25.6948 19.8732 25.7735 19.919 25.8501 19.8983Z" fill="#4A4A4A"/>
<path d="M25.0474 20.1151L25.4472 20.0071C25.5238 19.9864 25.5693 19.907 25.5488 19.8298L25.4416 19.4266C25.4211 19.3494 25.3424 19.3036 25.2658 19.3243L24.8659 19.4323C24.7893 19.453 24.7438 19.5324 24.7644 19.6096L24.8715 20.0128C24.892 20.09 24.9708 20.1358 25.0474 20.1151Z" fill="#4A4A4A"/>
<path d="M24.2446 20.332L24.6445 20.2239C24.7211 20.2032 24.7666 20.1239 24.746 20.0466L24.6389 19.6435C24.6184 19.5662 24.5396 19.5204 24.463 19.5411L24.0632 19.6491C23.9866 19.6698 23.9411 19.7492 23.9616 19.8264L24.0688 20.2296C24.0893 20.3068 24.168 20.3527 24.2446 20.332Z" fill="#4A4A4A"/>
<path d="M23.4419 20.5488L23.8418 20.4408C23.9184 20.4201 23.9638 20.3407 23.9433 20.2634L23.8362 19.8603C23.8156 19.783 23.7369 19.7372 23.6603 19.7579L23.2604 19.8659C23.1838 19.8866 23.1384 19.966 23.1589 20.0433L23.266 20.4464C23.2866 20.5236 23.3653 20.5695 23.4419 20.5488Z" fill="#4A4A4A"/>
<path d="M22.6397 20.7656L23.0395 20.6576C23.1161 20.6369 23.1616 20.5575 23.1411 20.4803L23.0339 20.0771C23.0134 19.9999 22.9347 19.9541 22.8581 19.9748L22.4582 20.0828C22.3816 20.1035 22.3361 20.1829 22.3567 20.2601L22.4638 20.6633C22.4843 20.7405 22.5631 20.7863 22.6397 20.7656Z" fill="#4A4A4A"/>
<path d="M21.8369 20.9825L22.2368 20.8744C22.3134 20.8538 22.3588 20.7744 22.3383 20.6971L22.2312 20.294C22.2107 20.2167 22.1319 20.1709 22.0553 20.1916L21.6555 20.2996C21.5789 20.3203 21.5334 20.3997 21.5539 20.4769L21.6611 20.8801C21.6816 20.9573 21.7603 21.0032 21.8369 20.9825Z" fill="#4A4A4A"/>
<path d="M21.0342 21.1993L21.4341 21.0913C21.5107 21.0706 21.5561 20.9912 21.5356 20.914L21.4284 20.5108C21.4079 20.4336 21.3292 20.3877 21.2526 20.4084L20.8527 20.5164C20.7761 20.5371 20.7307 20.6165 20.7512 20.6938L20.8583 21.0969C20.8789 21.1742 20.9576 21.22 21.0342 21.1993Z" fill="#4A4A4A"/>
<path fill-rule="evenodd" clip-rule="evenodd" d="M21.2735 22.0999L22.2 21.8496C22.2367 21.8396 22.2759 21.8448 22.3089 21.864C22.3419 21.8832 22.366 21.9149 22.3758 21.952L22.483 22.3551C22.4928 22.3922 22.4877 22.4317 22.4686 22.465C22.4496 22.4982 22.4182 22.5225 22.3814 22.5324L21.4549 22.7827C21.4181 22.7927 21.379 22.7875 21.346 22.7683C21.313 22.7491 21.2889 22.7175 21.2791 22.6804L21.172 22.2773C21.1621 22.2403 21.1673 22.2007 21.1863 22.1675C21.2054 22.1342 21.2367 22.11 21.2735 22.1L21.2735 22.0999Z" fill="#4A4A4A"/>
<path d="M23.0283 21.6259L22.6284 21.734C22.5518 21.7546 22.5064 21.834 22.5269 21.9113L22.6341 22.3144C22.6546 22.3917 22.7333 22.4375 22.8099 22.4168L23.2098 22.3088C23.2864 22.2881 23.3318 22.2087 23.3113 22.1315L23.2042 21.7283C23.1836 21.6511 23.1049 21.6052 23.0283 21.6259Z" fill="#4A4A4A"/>
<path d="M23.8306 21.4091L23.4307 21.5171C23.3541 21.5378 23.3086 21.6172 23.3292 21.6944L23.4363 22.0976C23.4568 22.1748 23.5356 22.2207 23.6122 22.2L24.012 22.0919C24.0886 22.0713 24.1341 21.9919 24.1136 21.9146L24.0064 21.5115C23.9859 21.4342 23.9072 21.3884 23.8306 21.4091Z" fill="#4A4A4A"/>
<path d="M24.6338 21.1923L24.2339 21.3003C24.1573 21.321 24.1119 21.4004 24.1324 21.4776L24.2395 21.8808C24.26 21.958 24.3388 22.0038 24.4154 21.9831L24.8152 21.8751C24.8918 21.8544 24.9373 21.775 24.9168 21.6978L24.8096 21.2946C24.7891 21.2174 24.7104 21.1716 24.6338 21.1923Z" fill="#4A4A4A"/>
<path d="M25.4355 20.9754L25.0357 21.0835C24.9591 21.1042 24.9136 21.1836 24.9341 21.2608L25.0413 21.6639C25.0618 21.7412 25.1405 21.787 25.2171 21.7663L25.617 21.6583C25.6936 21.6376 25.7391 21.5582 25.7185 21.481L25.6114 21.0778C25.5909 21.0006 25.5121 20.9547 25.4355 20.9754Z" fill="#4A4A4A"/>
<path d="M26.2388 20.7586L25.8389 20.8666C25.7623 20.8873 25.7168 20.9667 25.7374 21.0439L25.8445 21.4471C25.865 21.5243 25.9438 21.5702 26.0204 21.5495L26.4202 21.4414C26.4968 21.4207 26.5423 21.3414 26.5218 21.2641L26.4146 20.861C26.3941 20.7837 26.3154 20.7379 26.2388 20.7586Z" fill="#4A4A4A"/>
<path d="M27.041 20.5417L26.6411 20.6498C26.5645 20.6704 26.5191 20.7498 26.5396 20.8271L26.6467 21.2302C26.6673 21.3075 26.746 21.3533 26.8226 21.3326L27.2225 21.2246C27.2991 21.2039 27.3445 21.1245 27.324 21.0473L27.2169 20.6441C27.1963 20.5669 27.1176 20.521 27.041 20.5417Z" fill="#4A4A4A"/>
<path d="M27.8442 20.3249L27.4444 20.4329C27.3678 20.4536 27.3223 20.533 27.3428 20.6102L27.45 21.0134C27.4705 21.0906 27.5492 21.1364 27.6258 21.1157L28.0257 21.0077C28.1023 20.987 28.1478 20.9076 28.1272 20.8304L28.0201 20.4272C27.9996 20.35 27.9208 20.3042 27.8442 20.3249Z" fill="#4A4A4A"/>
<path d="M28.646 20.1081L28.2461 20.2161C28.1695 20.2368 28.1241 20.3162 28.1446 20.3934L28.2517 20.7966C28.2723 20.8738 28.351 20.9197 28.4276 20.899L28.8275 20.791C28.9041 20.7703 28.9495 20.6909 28.929 20.6136L28.8218 20.2105C28.8013 20.1332 28.7226 20.0874 28.646 20.1081Z" fill="#4A4A4A"/>
<path d="M29.4487 19.8912L29.0489 19.9992C28.9723 20.0199 28.9268 20.0993 28.9473 20.1766L29.0545 20.5797C29.075 20.657 29.1537 20.7028 29.2303 20.6821L29.6302 20.5741C29.7068 20.5534 29.7522 20.474 29.7317 20.3968L29.6246 19.9936C29.6041 19.9164 29.5253 19.8705 29.4487 19.8912Z" fill="#4A4A4A"/>
<path d="M30.2515 19.6744L29.8516 19.7824C29.775 19.8031 29.7295 19.8825 29.7501 19.9597L29.8572 20.3629C29.8777 20.4401 29.9565 20.486 30.0331 20.4653L30.4329 20.3572C30.5095 20.3365 30.555 20.2572 30.5345 20.1799L30.4273 19.7768C30.4068 19.6995 30.3281 19.6537 30.2515 19.6744Z" fill="#4A4A4A"/>
<path d="M31.0542 19.4576L30.6543 19.5656C30.5777 19.5863 30.5323 19.6657 30.5528 19.7429L30.6599 20.1461C30.6805 20.2233 30.7592 20.2691 30.8358 20.2484L31.2357 20.1404C31.3123 20.1197 31.3577 20.0403 31.3372 19.9631L31.23 19.5599C31.2095 19.4827 31.1308 19.4369 31.0542 19.4576Z" fill="#4A4A4A"/>
<path fill-rule="evenodd" clip-rule="evenodd" d="M31.4821 19.3419L32.3584 19.1052C32.3952 19.0952 32.4344 19.1004 32.4673 19.1196C32.5003 19.1388 32.5244 19.1705 32.5342 19.2075L32.6414 19.6107C32.6512 19.6478 32.6461 19.6873 32.627 19.7206C32.608 19.7538 32.5766 19.7781 32.5399 19.788L31.6634 20.0248C31.6266 20.0347 31.5875 20.0295 31.5545 20.0103C31.5215 19.9911 31.4974 19.9595 31.4876 19.9224L31.3805 19.5194C31.3706 19.4823 31.3758 19.4428 31.3948 19.4095C31.4138 19.3763 31.4452 19.352 31.482 19.3421L31.4821 19.3419Z" fill="#4A4A4A"/>
<path d="M22.1167 23.661L21.7168 23.769C21.6402 23.7897 21.5948 23.8691 21.6153 23.9463L21.7224 24.3495C21.743 24.4267 21.8217 24.4726 21.8983 24.4519L22.2982 24.3438C22.3748 24.3231 22.4202 24.2438 22.3997 24.1665L22.2925 23.7634C22.272 23.6861 22.1933 23.6403 22.1167 23.661Z" fill="#4A4A4A"/>
<path d="M22.9194 23.4441L22.5196 23.5522C22.443 23.5729 22.3975 23.6522 22.418 23.7295L22.5252 24.1326C22.5457 24.2099 22.6244 24.2557 22.701 24.235L23.1009 24.127C23.1775 24.1063 23.2229 24.0269 23.2024 23.9497L23.0953 23.5465C23.0748 23.4693 22.996 23.4234 22.9194 23.4441Z" fill="#4A4A4A"/>
<path d="M23.7222 23.2273L23.3223 23.3353C23.2457 23.356 23.2002 23.4354 23.2208 23.5126L23.3279 23.9158C23.3484 23.993 23.4272 24.0389 23.5038 24.0182L23.9036 23.9102C23.9802 23.8895 24.0257 23.8101 24.0052 23.7328L23.898 23.3297C23.8775 23.2524 23.7988 23.2066 23.7222 23.2273Z" fill="#4A4A4A"/>
<path d="M24.5249 23.0104L24.125 23.1185C24.0484 23.1392 24.003 23.2186 24.0235 23.2958L24.1306 23.699C24.1512 23.7762 24.2299 23.822 24.3065 23.8013L24.7064 23.6933C24.783 23.6726 24.8284 23.5932 24.8079 23.516L24.7007 23.1128C24.6802 23.0356 24.6015 22.9898 24.5249 23.0104Z" fill="#4A4A4A"/>
<path fill-rule="evenodd" clip-rule="evenodd" d="M24.9273 22.9017L28.7886 21.8585C28.8254 21.8486 28.8646 21.8538 28.8976 21.873C28.9305 21.8922 28.9546 21.9238 28.9645 21.9609L29.0716 22.3642C29.0815 22.4013 29.0763 22.4408 29.0573 22.474C29.0383 22.5073 29.0069 22.5315 28.9701 22.5415L25.1088 23.5847C25.072 23.5946 25.0328 23.5894 24.9998 23.5702C24.9668 23.551 24.9428 23.5194 24.9329 23.4823L24.8257 23.079C24.8159 23.0419 24.821 23.0024 24.8401 22.9691C24.8591 22.9359 24.8905 22.9116 24.9273 22.9017ZM29.1912 21.7497L29.6915 21.6146C29.7283 21.6046 29.7675 21.6098 29.8005 21.629C29.8335 21.6482 29.8575 21.6798 29.8674 21.7169L29.9746 22.1202C29.9844 22.1573 29.9793 22.1968 29.9602 22.2301C29.9412 22.2633 29.9098 22.2876 29.873 22.2975L29.3727 22.4327C29.336 22.4426 29.2968 22.4374 29.2638 22.4182C29.2308 22.399 29.2067 22.3674 29.1969 22.3303L29.0897 21.927C29.0798 21.8899 29.085 21.8504 29.104 21.8172C29.1231 21.7839 29.1545 21.7597 29.1912 21.7497Z" fill="#4A4A4A"/>
<path d="M30.4946 21.3977L30.0948 21.5057C30.0182 21.5264 29.9727 21.6058 29.9932 21.683L30.1004 22.0862C30.1209 22.1634 30.1996 22.2092 30.2762 22.1885L30.6761 22.0805C30.7527 22.0598 30.7981 21.9804 30.7776 21.9032L30.6705 21.5C30.65 21.4228 30.5712 21.377 30.4946 21.3977Z" fill="#4A4A4A"/>
<path d="M31.2973 21.1809L30.8975 21.2889C30.8209 21.3096 30.7754 21.389 30.796 21.4662L30.9031 21.8694C30.9236 21.9466 31.0024 21.9925 31.079 21.9718L31.4788 21.8637C31.5554 21.843 31.6009 21.7637 31.5804 21.6864L31.4732 21.2833C31.4527 21.206 31.3739 21.1602 31.2973 21.1809Z" fill="#4A4A4A"/>
<path d="M32.8017 20.7743L32.4019 20.8823C32.3253 20.903 32.2798 20.9824 32.3003 21.0596L32.4075 21.4628C32.428 21.54 32.5068 21.5859 32.5834 21.5652L32.9832 21.4572C33.0598 21.4365 33.1053 21.3571 33.0847 21.2798L32.9776 20.8767C32.9571 20.7994 32.8783 20.7536 32.8017 20.7743Z" fill="#4A4A4A"/>
<path d="M31.5879 21.414L31.5477 21.2629C31.5379 21.2258 31.543 21.1863 31.5621 21.1531C31.5811 21.1198 31.6125 21.0956 31.6493 21.0856L32.0491 20.9776C32.0859 20.9676 32.1251 20.9729 32.1581 20.992C32.1911 21.0112 32.2151 21.0429 32.225 21.08L32.2651 21.231L31.5879 21.414Z" fill="#4A4A4A"/>
<path d="M32.292 21.3321L32.3321 21.4831C32.342 21.5202 32.3368 21.5597 32.3178 21.593C32.2988 21.6262 32.2674 21.6505 32.2306 21.6604L31.8307 21.7684C31.794 21.7784 31.7548 21.7732 31.7218 21.754C31.6888 21.7348 31.6647 21.7032 31.6549 21.6661L31.6147 21.515L32.292 21.3321Z" fill="#4A4A4A"/>
<path d="M31.7977 17.1427L20.8116 20.1107C20.7285 20.1332 20.6792 20.2193 20.7015 20.3031C20.7237 20.3869 20.8092 20.4367 20.8923 20.4142L31.8783 17.4462C31.9614 17.4237 32.0108 17.3376 31.9885 17.2538C31.9662 17.17 31.8808 17.1203 31.7977 17.1427Z" fill="#4A4A4A"/>
<path opacity="0.136" d="M21.4833 19.9836L21.051 20.1004C20.9956 20.1153 20.9627 20.1727 20.9776 20.2285L20.9776 20.2287C20.9924 20.2845 21.0494 20.3177 21.1047 20.3027L21.5371 20.1859C21.5924 20.1709 21.6253 20.1135 21.6105 20.0577L21.6104 20.0576C21.5956 20.0017 21.5387 19.9686 21.4833 19.9836Z" fill="#D8D8D8"/>
<path opacity="0.136" d="M22.3485 19.7495L21.9162 19.8663C21.8608 19.8813 21.8279 19.9387 21.8428 19.9945L21.8428 19.9947C21.8577 20.0505 21.9146 20.0837 21.97 20.0687L22.4023 19.9519C22.4577 19.9369 22.4905 19.8795 22.4757 19.8237L22.4757 19.8236C22.4608 19.7677 22.4039 19.7346 22.3485 19.7495Z" fill="#D8D8D8"/>
<path opacity="0.136" d="M23.015 19.5696L22.5827 19.6863C22.5273 19.7013 22.4945 19.7587 22.5093 19.8145L22.5093 19.8147C22.5242 19.8705 22.5811 19.9037 22.6365 19.8887L23.0688 19.7719C23.1242 19.7569 23.157 19.6995 23.1422 19.6437L23.1422 19.6436C23.1273 19.5877 23.0704 19.5546 23.015 19.5696Z" fill="#D8D8D8"/>
<path opacity="0.136" d="M23.681 19.3896L23.2487 19.5064C23.1933 19.5213 23.1605 19.5787 23.1753 19.6346L23.1753 19.6347C23.1902 19.6906 23.2471 19.7237 23.3025 19.7087L23.7348 19.5919C23.7902 19.577 23.8231 19.5196 23.8082 19.4637L23.8082 19.4636C23.7933 19.4078 23.7364 19.3746 23.681 19.3896Z" fill="#D8D8D8"/>
<path opacity="0.136" d="M24.3475 19.2095L23.9152 19.3263C23.8598 19.3413 23.827 19.3987 23.8418 19.4545L23.8418 19.4547C23.8567 19.5105 23.9136 19.5436 23.969 19.5287L24.4013 19.4119C24.4567 19.3969 24.4896 19.3395 24.4747 19.2837L24.4747 19.2836C24.4598 19.2277 24.4029 19.1946 24.3475 19.2095Z" fill="#D8D8D8"/>
<path opacity="0.136" d="M25.1796 18.9846L24.7473 19.1014C24.6919 19.1163 24.659 19.1737 24.6738 19.2296L24.6739 19.2297C24.6887 19.2856 24.7456 19.3187 24.801 19.3037L25.2333 19.1869C25.2887 19.172 25.3216 19.1146 25.3068 19.0587L25.3067 19.0586C25.2919 19.0028 25.235 18.9696 25.1796 18.9846Z" fill="#D8D8D8"/>
<path opacity="0.136" d="M25.8466 18.8047L25.4142 18.9215C25.3589 18.9364 25.326 18.9938 25.3408 19.0497L25.3409 19.0498C25.3557 19.1056 25.4126 19.1388 25.468 19.1238L25.9003 19.007C25.9557 18.992 25.9886 18.9347 25.9737 18.8788L25.9737 18.8787C25.9589 18.8228 25.9019 18.7897 25.8466 18.8047Z" fill="#D8D8D8"/>
<path opacity="0.136" d="M26.5121 18.6246L26.0798 18.7414C26.0244 18.7564 25.9915 18.8138 26.0064 18.8696L26.0064 18.8698C26.0212 18.9256 26.0782 18.9587 26.1335 18.9438L26.5659 18.827C26.6212 18.812 26.6541 18.7546 26.6393 18.6988L26.6392 18.6987C26.6244 18.6428 26.5675 18.6097 26.5121 18.6246Z" fill="#D8D8D8"/>
<path opacity="0.136" d="M27.1786 18.4446L26.7463 18.5614C26.6909 18.5764 26.658 18.6338 26.6729 18.6896L26.6729 18.6898C26.6877 18.7456 26.7447 18.7788 26.8 18.7638L27.2324 18.647C27.2878 18.632 27.3206 18.5746 27.3058 18.5188L27.3057 18.5187C27.2909 18.4628 27.234 18.4297 27.1786 18.4446Z" fill="#D8D8D8"/>
<path opacity="0.136" d="M28.0116 18.2196L27.5793 18.3364C27.5239 18.3514 27.491 18.4088 27.5059 18.4646L27.5059 18.4648C27.5208 18.5206 27.5777 18.5537 27.6331 18.5388L28.0654 18.422C28.1208 18.407 28.1536 18.3496 28.1388 18.2938L28.1387 18.2937C28.1239 18.2378 28.067 18.2047 28.0116 18.2196Z" fill="#D8D8D8"/>
<path opacity="0.136" d="M28.6781 18.0396L28.2458 18.1564C28.1904 18.1714 28.1575 18.2288 28.1724 18.2846L28.1724 18.2848C28.1873 18.3406 28.2442 18.3738 28.2996 18.3588L28.7319 18.242C28.7873 18.227 28.8201 18.1696 28.8053 18.1138L28.8053 18.1137C28.7904 18.0578 28.7335 18.0247 28.6781 18.0396Z" fill="#D8D8D8"/>
<path opacity="0.136" d="M29.3446 17.8597L28.9123 17.9764C28.8569 17.9914 28.824 18.0488 28.8389 18.1046L28.8389 18.1048C28.8538 18.1606 28.9107 18.1938 28.9661 18.1788L29.3984 18.062C29.4538 18.047 29.4866 17.9896 29.4718 17.9338L29.4718 17.9337C29.4569 17.8778 29.4 17.8447 29.3446 17.8597Z" fill="#D8D8D8"/>
<path opacity="0.136" d="M30.1762 17.6346L29.7438 17.7514C29.6885 17.7664 29.6556 17.8238 29.6704 17.8796L29.6705 17.8798C29.6853 17.9356 29.7422 17.9688 29.7976 17.9538L30.2299 17.837C30.2853 17.822 30.3182 17.7646 30.3033 17.7088L30.3033 17.7087C30.2885 17.6528 30.2315 17.6197 30.1762 17.6346Z" fill="#D8D8D8"/>
<path opacity="0.136" d="M30.8431 17.4547L30.4108 17.5715C30.3554 17.5864 30.3226 17.6438 30.3374 17.6997L30.3375 17.6998C30.3523 17.7557 30.4092 17.7888 30.4646 17.7738L30.8969 17.657C30.9523 17.6421 30.9852 17.5847 30.9703 17.5288L30.9703 17.5287C30.9555 17.4729 30.8985 17.4397 30.8431 17.4547Z" fill="#D8D8D8"/>
<path opacity="0.136" d="M31.5087 17.2747L31.0764 17.3915C31.021 17.4064 30.9881 17.4638 31.0029 17.5197L31.003 17.5198C31.0178 17.5757 31.0747 17.6088 31.1301 17.5938L31.5624 17.477C31.6178 17.4621 31.6507 17.4047 31.6359 17.3488L31.6358 17.3487C31.621 17.2929 31.5641 17.2597 31.5087 17.2747Z" fill="#D8D8D8"/>
<path fill-rule="evenodd" clip-rule="evenodd" d="M26.1132 28.3805C26.0818 28.3805 26.0518 28.3859 26.0215 28.3898C26.016 28.368 26.0108 28.3462 26.0048 28.3245C26.1578 28.26 26.284 28.144 26.3618 27.9964C26.4397 27.8487 26.4644 27.6784 26.4318 27.5145C26.3993 27.3505 26.3114 27.203 26.1832 27.0969C26.0549 26.9909 25.8942 26.9329 25.7284 26.9327C25.5716 26.9333 25.4194 26.986 25.2953 27.0827C25.2794 27.0664 25.2634 27.0502 25.2472 27.0341C25.341 26.9097 25.392 26.7579 25.3924 26.6016C25.3923 26.4349 25.3351 26.2732 25.2304 26.1441C25.1258 26.0149 24.9801 25.9262 24.818 25.8928C24.6559 25.8595 24.4874 25.8836 24.3409 25.961C24.1944 26.0385 24.079 26.1646 24.0141 26.318C23.9928 26.3119 23.9714 26.3069 23.9502 26.3014C23.9541 26.2708 23.9594 26.2406 23.9594 26.2089C23.9594 26.0169 23.8837 25.8328 23.7491 25.697C23.6144 25.5613 23.4318 25.485 23.2414 25.485C23.051 25.485 22.8684 25.5613 22.7338 25.697C22.5991 25.8328 22.5235 26.0169 22.5235 26.2089C22.5235 26.2406 22.5288 26.2708 22.5327 26.3014C22.5114 26.3069 22.49 26.3119 22.4688 26.318C22.4041 26.1643 22.2887 26.0379 22.1421 25.9602C21.9956 25.8825 21.8269 25.8583 21.6646 25.8917C21.5024 25.9251 21.3566 26.014 21.2519 26.1434C21.1473 26.2728 21.0902 26.4347 21.0904 26.6016C21.0904 26.7645 21.1456 26.9131 21.2356 27.0341C20.7019 27.5599 20.3696 28.2926 20.3696 29.1044C20.3696 30.7036 21.6553 31.9999 23.2414 31.9999C24.5824 31.9999 25.7054 31.0719 26.0215 29.819C26.0518 29.8229 26.0818 29.8283 26.1132 29.8283C26.3036 29.8283 26.4862 29.752 26.6209 29.6162C26.7555 29.4805 26.8312 29.2964 26.8312 29.1044C26.8312 28.9124 26.7555 28.7283 26.6209 28.5925C26.4862 28.4568 26.3036 28.3805 26.1132 28.3805Z" fill="#44D860"/>
<path fill-rule="evenodd" clip-rule="evenodd" d="M17.4985 23.3134H23.2421V20.4178H17.4985V23.3134Z" fill="#3ECC5F"/>
<path fill-rule="evenodd" clip-rule="evenodd" d="M24.6779 22.2276C24.7732 22.2276 24.8645 22.1894 24.9318 22.1215C24.9991 22.0537 25.0369 21.9616 25.0369 21.8656C25.0369 21.7696 24.9991 21.6776 24.9318 21.6097C24.8645 21.5418 24.7732 21.5037 24.6779 21.5037C24.6623 21.5037 24.6472 21.5064 24.6321 21.5083C24.6293 21.4975 24.6268 21.4866 24.6238 21.4757C24.7002 21.4434 24.7632 21.3854 24.802 21.3116C24.8409 21.2378 24.8532 21.1527 24.8369 21.0708C24.8206 20.9888 24.7768 20.9151 24.7127 20.8621C24.6487 20.809 24.5684 20.78 24.4855 20.7798C24.4038 20.7798 24.3293 20.8083 24.269 20.8548C24.2611 20.8465 24.2531 20.8384 24.2449 20.8305C24.29 20.7701 24.3175 20.6957 24.3175 20.6142C24.3175 20.5308 24.2889 20.4499 24.2366 20.3853C24.1842 20.3207 24.1114 20.2763 24.0303 20.2597C23.9492 20.243 23.865 20.2551 23.7917 20.2938C23.7184 20.3326 23.6607 20.3957 23.6283 20.4724C23.5026 20.4366 23.3727 20.4182 23.242 20.4179C22.4491 20.4179 21.8062 21.0662 21.8062 21.8656C21.8062 22.6651 22.4491 23.3134 23.242 23.3134C23.3762 23.3134 23.5052 23.2934 23.6283 23.2588C23.6607 23.3355 23.7184 23.3986 23.7917 23.4374C23.865 23.4762 23.9492 23.4882 24.0303 23.4716C24.1114 23.4549 24.1842 23.4105 24.2366 23.3459C24.2889 23.2813 24.3175 23.2005 24.3175 23.1171C24.3175 23.0355 24.29 22.9611 24.2449 22.9008C24.2531 22.8928 24.2611 22.8847 24.269 22.8764C24.3293 22.9229 24.4038 22.9514 24.4855 22.9514C24.5685 22.9514 24.6489 22.9224 24.7131 22.8694C24.7772 22.8164 24.8212 22.7426 24.8375 22.6606C24.8538 22.5786 24.8414 22.4934 24.8024 22.4195C24.7635 22.3457 24.7004 22.2877 24.6238 22.2555C24.6268 22.2448 24.6293 22.2338 24.6321 22.2229C24.6472 22.2248 24.6623 22.2276 24.6779 22.2276Z" fill="#44D860"/>
<path fill-rule="evenodd" clip-rule="evenodd" d="M26.1134 11.5504C26.0904 11.5504 26.066 11.5475 26.043 11.5431C26.0199 11.5386 25.9973 11.5318 25.9755 11.5228C25.954 11.5142 25.9339 11.5026 25.9136 11.4895C25.895 11.4765 25.8764 11.4606 25.8591 11.4447C25.8434 11.4273 25.8276 11.4099 25.8147 11.3897C25.8018 11.3694 25.7903 11.3491 25.7815 11.3274C25.7639 11.2832 25.7547 11.236 25.7544 11.1884C25.7544 11.1652 25.7573 11.1406 25.7616 11.1175C25.7659 11.0943 25.7731 11.0726 25.7815 11.0494C25.7903 11.0277 25.8018 11.0074 25.8147 10.9872C25.8276 10.9684 25.8434 10.9495 25.8591 10.9322C25.8764 10.9162 25.895 10.9003 25.9136 10.8873C25.9339 10.8742 25.954 10.8627 25.9755 10.854C25.9969 10.8453 26.02 10.8381 26.043 10.8337C26.089 10.8236 26.1363 10.8236 26.1837 10.8337C26.2066 10.8381 26.2297 10.8453 26.2512 10.854C26.2726 10.8627 26.2929 10.8742 26.313 10.8873C26.3316 10.9003 26.3501 10.9162 26.3675 10.9322C26.3833 10.9495 26.3991 10.9684 26.412 10.9872C26.425 11.0074 26.4364 11.0277 26.4451 11.0494C26.4537 11.0726 26.4609 11.0943 26.4652 11.1175C26.4693 11.1406 26.4723 11.1652 26.4723 11.1884C26.4723 11.284 26.4334 11.3781 26.3675 11.4447C26.3501 11.4606 26.3316 11.4765 26.313 11.4895C26.2929 11.5026 26.2726 11.5142 26.2512 11.5228C26.2074 11.5408 26.1606 11.5502 26.1134 11.5504ZM28.9852 11.3694C28.8904 11.3694 28.7985 11.3303 28.7309 11.2637C28.7149 11.2463 28.7001 11.228 28.6865 11.2087C28.6736 11.1884 28.6621 11.1681 28.6533 11.1464C28.6357 11.1022 28.6265 11.0551 28.6262 11.0074C28.6262 10.9119 28.665 10.8192 28.7309 10.7512C28.7482 10.7353 28.7668 10.7193 28.7854 10.7063C28.8057 10.6933 28.8258 10.6817 28.8473 10.673C28.8687 10.6643 28.8918 10.6571 28.9148 10.6527C28.9608 10.6426 29.0096 10.6426 29.0555 10.6527C29.0784 10.6571 29.1015 10.6643 29.123 10.673C29.1444 10.6817 29.1647 10.6933 29.1848 10.7063C29.2034 10.7193 29.2219 10.7353 29.2393 10.7512C29.3052 10.8192 29.3441 10.9119 29.3441 11.0074C29.3441 11.0306 29.3411 11.0552 29.337 11.0784C29.3327 11.1015 29.3255 11.1247 29.3169 11.1464C29.3068 11.1681 29.2968 11.1884 29.2838 11.2087C29.2709 11.2275 29.2551 11.2463 29.2393 11.2637C29.2219 11.2796 29.2034 11.2955 29.1848 11.3086C29.1647 11.3216 29.1444 11.3332 29.123 11.3419C29.0792 11.3599 29.0324 11.3692 28.9852 11.3694Z" fill="black"/>
</g>
<rect x="1.06074" y="1.04994" width="37.9" height="37.9" rx="6.95" stroke="white" stroke-opacity="0.15" stroke-width="2.1"/>
<defs>
<filter id="filter0_d_2_1738" x="2.01074" y="1.99994" width="36.0005" height="36" filterUnits="userSpaceOnUse" color-interpolation-filters="sRGB">
<feFlood flood-opacity="0" result="BackgroundImageFix"/>
<feColorMatrix in="SourceAlpha" type="matrix" values="0 0 0 0 0 0 0 0 0 0 0 0 0 0 0 0 0 0 127 0" result="hardAlpha"/>
<feOffset/>
<feGaussianBlur stdDeviation="2"/>
<feComposite in2="hardAlpha" operator="out"/>
<feColorMatrix type="matrix" values="0 0 0 0 0 0 0 0 0 0 0 0 0 0 0 0 0 0 0.25 0"/>
<feBlend mode="normal" in2="BackgroundImageFix" result="effect1_dropShadow_2_1738"/>
<feBlend mode="normal" in="SourceGraphic" in2="effect1_dropShadow_2_1738" result="shape"/>
</filter>
<linearGradient id="paint0_linear_2_1738" x1="20.0107" y1="-6.10351e-05" x2="20.0107" y2="39.9999" gradientUnits="userSpaceOnUse">
<stop stop-color="#103519"/>
<stop offset="1" stop-color="#22220A"/>
</linearGradient>
</defs>
</svg>
