<svg width="41" height="40" viewBox="0 0 41 40" fill="none" xmlns="http://www.w3.org/2000/svg">
<g clip-path="url(#clip0_2_3769)">
<rect x="0.0107422" y="-0.00012207" width="40" height="40" rx="8" fill="url(#paint0_linear_2_3769)"/>
<g filter="url(#filter0_d_2_3769)">
<path d="M14.378 29.8393C13.3113 28.9929 12.1735 28.1813 11.396 27.0386C9.75992 25.0234 8.50024 22.6903 7.63907 20.2385C7.11855 18.6441 6.94029 16.9349 6.26927 15.4022C5.56732 14.289 6.38956 13.072 7.5982 12.7182C8.13631 12.614 9.08248 12.1019 7.94035 12.4679C6.91641 13.2259 6.81731 11.7799 7.86729 11.6884C8.58385 11.5923 8.84763 11.0005 8.60259 10.4677C7.8334 9.96166 10.4678 9.4055 9.14226 8.65039C7.76144 7.14741 11.0737 6.85808 10.2565 8.56501C10.0609 9.87757 12.571 8.32444 11.9886 9.84016C12.5806 10.5681 14.2053 10.0058 14.165 11.027C15.0273 11.0868 15.3233 11.8188 16.1327 11.875C16.9717 12.2572 18.4926 12.5584 18.778 13.5122C17.9457 14.177 16.0183 12.139 15.9257 13.9793C16.1772 16.6978 16.1131 19.4982 17.099 22.087C17.5653 23.6546 18.6957 24.8885 19.7166 26.1094C20.6934 27.3051 22.0166 28.1468 23.3652 28.8556C24.5482 29.4185 25.8236 29.7918 27.1129 30.026C27.6358 29.6225 28.559 28.1223 29.3748 28.7549C29.4135 29.4657 27.7556 30.2408 29.2968 30.1622C30.2017 29.8868 30.8294 30.8683 31.5746 29.983C32.2612 30.8035 34.4282 29.4588 33.9397 31.1358C33.2792 31.5658 32.3158 31.306 31.6541 31.8975C30.5632 31.3478 29.6947 32.3893 28.4871 32.2576C27.1459 32.5 25.7814 32.5978 24.4217 32.5999C22.1909 32.4221 19.913 32.3471 17.7908 31.5636C16.5953 31.2131 15.4287 30.5263 14.378 29.8393ZM16.262 30.6628C17.4293 31.1721 18.5708 31.7089 19.8501 31.8708C21.8798 32.1556 23.9758 32.5937 26.0127 32.1941C25.0908 31.7741 24.1377 32.3577 23.2193 31.8938C22.1178 32.1329 20.9357 31.8329 19.8159 31.6851C18.5424 31.1129 17.1682 30.7193 15.9756 29.9765C14.4855 29.4274 16.7463 30.6807 17.1487 30.7822C18.0802 31.3156 16.1243 30.5088 15.8486 30.287C15.0684 29.8455 14.969 29.9377 15.7713 30.3862C15.933 30.4816 16.0927 30.5816 16.262 30.6628ZM14.0407 29.0791C15.1719 29.5018 14.0357 28.2766 13.5174 28.3478C13.2877 27.9458 12.6399 27.6918 13.0969 27.4759C12.2749 27.7638 12.2359 26.3812 11.8495 26.5787C10.9799 26.3017 11.5111 25.3204 10.4753 24.7178C10.3807 24.0828 9.44618 23.532 9.1481 22.5742C9.01645 22.0839 8.09226 20.6756 8.65999 21.9862C9.14338 23.2478 9.99388 24.3283 10.7017 25.4075C11.2512 26.435 11.9002 27.5089 12.9011 28.1499C13.2385 28.4764 13.5642 28.9768 14.0407 29.0791ZM10.782 25.4695C10.8215 25.2971 10.9889 25.8425 10.782 25.4695V25.4695ZM15.3954 29.5858C15.0352 29.4433 15.6459 29.4727 15.3954 29.5858V29.5858ZM16.0095 29.8118C15.7292 29.9863 15.9459 29.4998 16.0095 29.8118V29.8118ZM16.7781 30.1353C16.2142 29.9137 17.144 29.7838 16.7781 30.1353V30.1353ZM18.0955 30.8761C17.3838 30.7509 18.3179 30.5445 18.0955 30.8761V30.8761ZM15.5658 29.0969C14.8316 29.0918 16.1341 28.726 15.5658 29.0969V29.0969ZM16.1424 29.387C15.9369 29.4748 16.1263 29.1909 16.1424 29.387V29.387ZM19.0242 31.2017C19.4875 31.4967 21.7296 31.8482 20.3256 31.3227C20.0907 31.3726 17.7224 30.6468 19.0242 31.2017ZM14.4492 27.6069C13.7301 27.3897 14.4041 27.4102 14.4492 27.6069V27.6069ZM15.7908 28.3957C15.0661 28.2062 16.1399 28.15 15.7908 28.3957V28.3957ZM16.9193 29.0938C16.1065 28.9023 17.4203 28.9032 16.9193 29.0938V29.0938ZM13.9033 27.007C14.4469 27.4276 16.0957 27.0609 14.7358 26.756C14.1169 26.4231 12.7219 26.1953 13.6727 26.9567L13.9033 27.007ZM17.6836 29.3348C16.734 29.1126 17.91 28.9456 17.6836 29.3348V29.3348ZM16.5349 28.4138C17.8642 28.7931 15.4171 27.5657 16.2069 28.2742L16.382 28.3541L16.5349 28.4138ZM18.838 29.7567C17.7009 29.5816 20.0969 29.7688 18.838 29.7567V29.7567ZM13.4189 26.2722C13.1082 26.292 13.3697 26.0356 13.4189 26.2722V26.2722ZM20.9675 30.9619C20.5567 31.2798 21.0011 30.5346 20.9675 30.9619V30.9619ZM15.5673 27.5995C15.1739 27.5903 15.4911 27.3745 15.5673 27.5995V27.5995ZM13.5383 26.1238C12.5488 25.8025 14.261 26.08 13.5383 26.1238V26.1238ZM11.1347 24.5563C10.3482 23.928 11.0447 24.2067 11.1347 24.5563V24.5563ZM17.4447 28.5964C17.3123 28.4441 17.3824 28.6297 17.4447 28.5964V28.5964ZM21.3723 31.028C21.1584 31.1161 21.3597 30.7953 21.3723 31.028V31.028ZM17.0971 28.2343C16.4808 28.1435 17.1678 27.9344 17.0971 28.2343V28.2343ZM14.1711 26.3634C13.3098 25.9967 14.7088 26.3054 14.1711 26.3634V26.3634ZM19.1207 29.4663C18.3041 29.3028 19.9586 29.1314 19.1207 29.4663V29.4663ZM16.5461 27.7031C17.5118 27.8287 15.3971 27.0405 16.3343 27.6326L16.5461 27.7031ZM19.9023 29.7851C20.8039 29.2413 20.5067 31.0584 21.4319 29.9386C22.3446 29.2663 20.6437 30.7698 21.7685 30.0585C22.582 29.5096 23.7835 30.3187 24.5426 30.5827C25.0884 30.5556 25.6191 31.0589 26.1786 30.7527C27.2559 30.46 24.0722 30.3185 24.9067 29.7992C23.9211 30.0886 23.1928 29.4542 22.7078 28.8172C21.6022 28.5596 20.3239 27.9894 19.7721 27.0022C19.5471 26.6316 20.0971 27.0545 19.5779 26.4486C18.9117 25.8508 18.579 25.1722 18.1318 24.4455C17.5975 24.1579 17.5353 23.3115 17.4813 24.4171C17.4855 23.7194 16.8362 23.2497 16.6777 23.445C16.6749 22.773 17.3726 23.1098 16.8842 22.6126C16.779 21.9162 16.4329 21.1904 16.3289 20.4041C16.1672 20.025 16.3061 19.2132 15.7771 20.0713C15.5844 20.9781 15.7132 18.9569 16.0129 19.6234C16.4062 18.9432 15.8716 19.0232 15.8497 19.1177C16.106 18.5438 16.0119 17.7298 15.7829 18.0404C15.9194 17.4321 15.9986 15.8019 15.5785 16.0908C15.8332 15.4548 16.0614 13.1805 14.9561 14.0476C14.5081 14.054 13.7323 14.2117 13.3656 14.3957C14.5154 15.0351 13.25 14.6266 12.782 14.5249C12.721 15.1166 12.2574 14.8607 11.6783 14.8665C12.6033 14.982 11.2278 15.821 10.6972 15.4951C10.008 15.8274 11.2919 16.6569 10.711 16.9134C10.7824 17.3 9.65516 16.7737 9.74369 17.6667C9.07463 17.3827 9.65156 18.7259 9.98629 18.2717C11.1242 18.5824 10.7874 19.2908 10.8164 19.9637C10.6309 20.3558 9.90096 19.042 10.6538 19.1029C10.0599 18.1295 9.9968 18.751 9.50328 19.2032C9.38847 19.2361 10.7621 19.8466 9.90009 20.1485C10.6585 20.2666 10.6801 20.9362 10.8345 21.3599C11.2904 21.8389 11.1971 20.8309 11.7425 21.4066C11.3973 20.8937 9.91423 19.9616 11.1083 20.2606C11.1019 19.7444 10.8924 19.3282 11.2582 19.3383C11.6205 18.6763 10.8788 20.9703 11.6954 20.129C11.9214 20.0295 11.9774 19.4663 12.3838 20.1822C12.9739 20.768 12.5969 21.1924 11.7644 20.6561C11.9134 21.1658 12.8781 21.348 12.6968 22.1451C12.889 22.8462 13.1579 22.588 13.3923 22.5475C13.5761 23.2287 13.6805 22.7278 13.6893 22.4036C14.5311 22.5854 14.3339 23.0875 14.5973 23.4382C15.1774 23.7024 13.767 21.6476 14.7629 22.8204C15.8108 23.7748 15.1559 24.1732 14.2156 24.0203C14.8107 23.9718 15.0026 24.8321 15.7471 24.8018C16.4259 25.1276 16.8855 26.379 15.7154 25.8581C15.3096 25.4889 13.8734 25.0335 15.0464 25.7357C16.1298 26.2419 16.9903 26.5447 18.0352 27.1801C18.783 27.7186 19.1061 28.3355 19.3895 28.4576C18.761 28.7605 17.4955 28.2158 18.4352 28.0489C17.8491 27.9411 17.1898 27.6421 17.7513 28.3789C18.2287 28.781 19.4426 28.7384 19.6602 28.784C19.4758 29.1941 19.1592 29.2267 19.6678 29.2585C19.1004 29.5635 19.8497 29.6108 19.9023 29.7851ZM18.742 26.4793C18.3968 26.1151 18.3075 25.4329 18.6807 26.0265C18.8721 26.1041 19.2937 27.1414 18.742 26.4793ZM22.5207 28.9009C22.5269 29.066 22.736 28.8869 22.5207 28.9009V28.9009ZM18.1969 25.5863C18.1837 25.0356 18.3218 26.011 18.1969 25.5863V25.5863ZM17.8214 25.0765C17.3872 24.23 18.3688 25.3162 17.8214 25.0765V25.0765ZM13.2703 21.9074C13.3958 22.3476 13.5254 21.8388 13.2703 21.9074V21.9074ZM16.8924 23.8882C17.0491 23.2946 17.0765 24.3862 16.8924 23.8882V23.8882ZM14.3335 22.0931C14.1531 21.7655 14.7108 22.4002 14.3335 22.0931V22.0931ZM16.5296 22.8033C16.1182 21.8735 16.8208 22.2954 16.6206 22.9557L16.5296 22.8033ZM12.7424 20.2552C12.5585 19.9502 12.2543 19.0551 12.3522 18.7818C12.4408 19.2268 13.2902 20.6969 12.7689 19.3908C12.1927 18.2959 13.4576 19.7462 13.5877 20.0193C13.6483 20.291 13.2322 19.9451 13.5141 20.5821C13 19.8568 13.2106 20.9827 12.7424 20.2552ZM11.572 19.4415C11.6202 18.7323 11.8399 19.9279 11.572 19.4415V19.4415ZM12.0985 19.6244C12.3497 19.089 12.5245 20.3707 12.0985 19.6244V19.6244ZM10.832 18.636C10.3963 18.1991 10.0809 17.7964 10.8524 18.3649C11.1497 18.3766 10.192 17.4491 10.924 18.0703C11.6938 18.2119 11.3041 19.3437 10.832 18.636ZM11.4973 18.6184C11.6316 18.8675 11.7503 18.3654 11.4973 18.6184V18.6184ZM11.9066 18.7508C11.523 18.0253 12.3722 19.055 11.9066 18.7508V18.7508ZM11.0929 17.9663C9.82609 16.8289 12.6847 18.561 11.2998 18.1771L11.0929 17.9663ZM14.7224 20.0938C14.1742 19.7622 14.5771 17.7593 14.7641 19.1292C15.297 18.9553 14.7346 19.8366 15.1321 19.8285C15.0695 20.3846 14.8917 20.5845 14.7224 20.0938ZM16.0649 20.8943C16.1186 20.2907 16.178 21.307 16.0649 20.8943V20.8943ZM15.8317 20.6619C15.8379 20.9655 15.892 20.404 15.8317 20.6619V20.6619ZM11.3414 17.5925C10.5275 16.4597 13.7065 18.7384 11.8626 17.8799C11.6699 17.829 11.4381 17.8109 11.3414 17.5925ZM13.9265 18.9754C13.8495 18.0215 14.0985 19.1335 13.9265 18.9754V18.9754ZM15.8893 20.2456C15.9006 20.605 16.0411 19.7023 15.8893 20.2456V20.2456ZM11.466 17.1602C11.9497 17.0558 13.4705 18.0172 12.0739 17.4348C11.9188 17.2615 11.588 17.3403 11.466 17.1602ZM15.6196 19.2487C15.6713 18.2734 15.9083 18.6662 15.6214 19.3884L15.6196 19.2487ZM11.8261 16.8208C12.0232 16.5292 11.3029 15.5022 11.9299 16.4524C12.2008 16.6696 12.7143 16.8163 12.2609 16.9076C12.9739 17.5422 12.087 17.0796 11.8261 16.8208ZM15.4142 18.9441C15.5342 19.595 15.5503 17.833 15.4142 18.9441V18.9441ZM11.4145 15.7946C11.494 15.997 11.565 15.7297 11.4145 15.7946V15.7946ZM12.3504 16.3566C12.5913 15.8467 12.7947 16.9253 12.3504 16.3566V16.3566ZM14.9904 17.8383C14.9879 17.6425 15.0402 18.1231 14.9904 17.8383V17.8383ZM14.8375 17.4967C14.4711 16.5847 15.1783 17.9796 14.8375 17.4967V17.4967ZM14.6125 16.8988C14.551 16.5219 14.8215 17.3722 14.6125 16.8988V16.8988ZM14.9787 16.2983C14.7272 15.8512 15.2962 14.3283 15.3597 15.2728C15.0943 16.0088 15.2831 16.4205 15.4682 15.4333C15.8101 14.6564 15.3944 16.9664 14.9787 16.2983ZM15.3549 14.0334C15.3793 14.197 15.4645 13.8976 15.3549 14.0334V14.0334ZM14.7265 26.5255C14.5775 26.3943 14.7453 26.609 14.7265 26.5255V26.5255ZM16.0211 27.1862C16.7411 27.3726 16.7374 27.0731 16.0866 26.9842C15.7366 26.6556 14.6321 26.3072 15.6207 26.9434C15.6862 27.1107 15.893 27.1068 16.0211 27.1862ZM13.4645 25.473C13.8611 25.7714 14.9587 26.3188 14.0296 25.5866C14.3428 25.2194 13.43 25.024 13.7328 24.7784C12.9626 24.3029 13.1252 24.3452 13.6648 24.3601C12.7392 23.9427 13.7984 23.974 13.7486 23.7601C13.3916 23.6889 11.9758 23.1251 12.8087 23.8064C11.962 23.3708 12.6069 23.9686 12.351 23.9054C11.4851 23.6673 13.1221 24.5708 12.2135 24.3465C12.7102 24.7436 13.5506 25.3638 12.4235 24.7668C12.275 24.9824 13.23 25.3093 13.4645 25.473ZM14.8183 26.2577C14.0113 25.6039 16.4645 26.7929 14.8183 26.2577V26.2577ZM21.749 30.4936C21.524 30.7747 21.7702 30.1641 21.749 30.4936V30.4936ZM22.4614 30.7961C22.8412 30.4248 22.4769 31.3875 23.0907 30.7052C23.0973 30.2167 23.0718 29.9282 22.3853 30.5216C22.1961 30.6274 22.1116 31.0776 22.4614 30.7961ZM11.1537 23.6316C10.3361 23.1714 11.0371 23.169 11.1537 23.6316V23.6316ZM11.9144 24.1344C10.9065 23.7067 11.6319 23.6619 11.9144 24.1344V24.1344ZM16.2417 26.7674C16.6642 27.146 18.1822 27.0452 16.7549 26.814C16.5435 26.4986 15.4125 26.5745 16.2417 26.7674ZM22.1904 30.4738C21.5604 30.7194 22.8407 29.9233 22.1904 30.4738V30.4738ZM23.5428 31.4114C23.2625 31.4888 23.5468 31.2348 23.5428 31.4114V31.4114ZM23.5449 31.1641C22.8471 31.2096 24.2649 30.3944 23.5449 31.1641V31.1641ZM9.28285 22.0514C8.66913 21.168 8.90134 20.7709 8.3095 20.0495C8.19746 19.4979 7.29419 18.2462 7.84231 19.5723C8.34436 20.3479 8.49354 21.5487 9.28285 22.0514ZM23.319 30.9194C22.7752 30.5431 24.6438 30.0556 23.319 30.9194V30.9194ZM24.3303 31.3191C23.9106 31.1989 24.9937 30.7444 24.3303 31.3191V31.3191ZM10.9282 22.6551C10.4379 22.6186 11.1181 22.3701 10.9282 22.6551V22.6551ZM24.1191 31.0462C24.7615 30.6284 23.9711 30.6925 24.0027 31.0846L24.1191 31.0462ZM15.4018 25.5029C15.0626 25.5268 15.3798 25.2207 15.4018 25.5029V25.5029ZM15.9406 25.8156C15.6773 25.8705 15.7694 25.4664 15.9406 25.8156V25.8156ZM25.1498 31.3286C25.9727 30.7297 24.651 31.2139 24.9771 31.442L25.1498 31.3286ZM24.8347 31.1749C24.127 31.4261 25.5051 30.6082 24.8347 31.1749V31.1749ZM26.4447 32.2566C25.8979 32.1582 26.8948 31.9525 26.4447 32.2566V32.2566ZM11.341 22.4496C11.9444 22.586 13.7521 23.9486 12.6856 22.5438C12.1394 22.3807 12.467 21.0337 11.9098 21.2721C12.2838 21.9023 12.2175 22.1706 11.4324 21.7733C10.4456 21.2873 10.8778 22.0141 11.0707 22.2144C10.8079 22.2746 11.4183 22.4445 11.341 22.4496ZM8.5923 20.2595C8.70031 19.8088 7.59776 17.78 8.07166 19.2429C8.24272 19.5494 8.22533 20.1301 8.5923 20.2595ZM13.6374 23.3975C13.3267 23.1354 13.6226 23.3604 13.6374 23.3975V23.3975ZM14.4024 23.5772C13.5568 23.3833 14.402 23.0997 14.4024 23.5772V23.5772ZM21.0321 27.7937C20.5323 27.7861 20.9057 27.4675 21.0321 27.7937V27.7937ZM21.3505 28.0283C21.1668 28.0636 21.3035 27.8457 21.3505 28.0283V28.0283ZM23.9783 29.6982C23.6629 29.6741 24.231 29.5098 23.9783 29.6982V29.6982ZM9.96531 20.6131C9.19079 20.4118 10.6882 20.3308 9.96531 20.6131V20.6131ZM20.4485 27.2763C19.9876 27.3934 20.4404 26.8041 20.4485 27.2763V27.2763ZM9.6797 19.9417C9.25014 19.8374 10.144 19.7834 9.6797 19.9417V19.9417ZM11.0275 20.6003C10.8849 20.6591 11.0191 20.4451 11.0275 20.6003V20.6003ZM27.4666 30.7706C28.0637 30.6484 29.4244 31.0772 29.6443 30.6108C28.9192 30.5931 27.1356 30.0947 27.0512 30.7298L27.2099 30.755L27.4666 30.7706ZM11.4559 20.7092C11.0861 20.6914 11.4662 20.2308 11.4559 20.7092V20.7092ZM7.91216 18.2292C7.30007 18.0913 7.75123 17.3177 7.91216 18.2292V18.2292ZM8.7572 18.4435C7.98373 18.1801 8.76759 18.1508 8.7572 18.4435V18.4435ZM9.24012 18.6828C9.10053 18.5687 9.13086 18.8269 9.24012 18.6828V18.6828ZM12.2787 20.6494C11.94 20.5512 12.4218 20.5168 12.2787 20.6494V20.6494ZM8.91847 18.1431C7.93973 18.04 8.8368 17.4546 8.91847 18.1431V18.1431ZM7.186 17.009C7.01717 17.1289 7.16136 16.6913 7.186 17.009V17.009ZM7.4437 16.8127C7.22245 16.8606 7.40166 16.4359 7.4437 16.8127V16.8127ZM8.86756 17.6701C9.46964 17.4315 7.77086 17.1766 8.74453 17.6251L8.86756 17.6701ZM27.9236 29.5453C27.4338 29.4351 28.309 29.1889 27.9236 29.5453V29.5453ZM30.2257 30.7492C29.8369 30.8099 30.3801 30.2884 30.2257 30.7492V30.7492ZM9.01307 16.9172C8.53574 17.0057 9.0765 16.4714 9.01307 16.9172V16.9172ZM6.98727 15.5479C6.87845 14.9185 6.89333 13.8137 7.93425 14.1871C6.5448 14.4654 8.89591 15.9294 8.59901 14.7735C9.18324 14.8024 9.7419 14.4252 9.43531 14.9976C10.5864 14.8693 11.3845 13.8623 12.4964 14.0034C13.3625 13.8878 14.3095 13.8001 15.2428 13.4483C16.0102 13.3926 16.7489 12.559 16.3283 12.065C15.2818 11.9756 14.1863 12.1077 13.0297 12.3397C11.7479 12.6085 10.5837 13.1192 9.29042 13.3385C8.02988 13.5093 9.54397 13.8092 9.1829 13.876C8.52513 14.1062 9.96734 14.2615 9.09762 14.5042C8.5605 14.4012 8.00143 14.215 8.23086 13.6439C7.02337 13.802 5.96233 14.3076 6.91632 15.5473L6.98727 15.5479ZM9.89689 14.0529C10.18 13.0006 11.4137 14.9187 10.3609 14.1926C10.2352 14.0977 10.0284 14.0202 9.89689 14.0529ZM9.95198 13.5427C10.1692 13.7149 10.3606 13.2356 9.95198 13.5427V13.5427ZM10.4708 13.551C10.5077 13.0668 11.6585 13.8074 10.6606 13.7253L10.4708 13.551ZM11.1806 13.2631C11.2551 13.5349 11.4397 12.9576 11.1806 13.2631V13.2631ZM11.3621 13.1405C11.7937 12.6173 13.8061 12.8066 12.3331 13.0895C11.9383 12.7896 11.6356 13.2663 11.3621 13.1405ZM13.9884 12.732C13.9228 11.303 15.2932 13.2399 13.9884 12.732V12.732ZM14.7336 12.7279C15.0061 12.0077 15.7909 12.4389 14.8597 12.5832C14.8799 12.6598 14.8324 12.955 14.7336 12.7279ZM8.71922 16.5475C7.85502 16.1112 9.53326 16.0446 8.71922 16.5475V16.5475ZM9.32111 16.7163C8.70096 16.5921 9.60652 16.4101 9.32111 16.7163V16.7163ZM7.54764 15.4464C6.99721 15.3094 8.01279 15.086 7.54764 15.4464V15.4464ZM31.5845 30.6175C31.229 30.806 31.598 30.1993 31.5845 30.6175V30.6175ZM29.1421 28.9359C28.8282 28.9779 29.2115 28.4544 29.1421 28.9359V28.9359ZM32.2562 30.7797C32.9065 30.7819 34.2266 30.5759 32.8116 30.5766C32.5896 30.6115 31.5178 30.604 32.2562 30.7797ZM9.85055 16.4211C10.3769 16.3847 10.674 15.8354 9.74876 15.867C8.31478 15.7172 11.0139 16.3623 9.56481 16.1779C9.37009 16.308 9.83924 16.4571 9.85055 16.4211ZM10.3141 16.6578C10.1513 16.8389 10.2591 16.3169 10.3141 16.6578V16.6578ZM10.8639 15.1786C10.5479 15.1022 11.0923 14.8928 10.8639 15.1786V15.1786ZM9.11355 12.2267C10.0529 11.9043 11.3374 11.5421 11.7809 12.3855C11.3295 11.8374 11.5988 11.2978 12.0251 12.0992C12.6279 12.91 12.9297 11.7304 12.5376 11.4584C12.9844 12.0185 13.4926 12.2832 12.8368 11.4938C13.5495 10.6289 11.4097 11.6071 10.9234 11.5973C10.6893 11.7032 8.50745 12.1586 9.11355 12.2267ZM9.66405 11.1631C10.1998 10.7551 11.5168 11.4057 10.6717 10.7577C10.589 10.684 8.82079 11.2491 9.66405 11.1631ZM11.6171 11.2444C12.244 11.2606 11.3466 10.3947 12.0937 10.787C11.971 10.3826 11.2239 10.3069 10.8586 10.1453C10.652 10.5151 11.2791 11.2494 11.6171 11.2444ZM10.0065 9.45581C9.62637 9.6062 10.2234 9.15916 10.0065 9.45581V9.45581ZM10.8047 9.64856C11.8151 9.51336 10.5472 9.20959 10.6011 9.6377L10.8047 9.64856ZM9.31428 8.47196C8.60287 7.53502 10.6522 8.62945 9.92939 7.64845C9.32104 7.15972 8.73645 8.19844 9.31428 8.47196ZM18.4441 13.4332C18.7704 12.8497 17.097 12.6466 18.2242 13.2264C18.328 13.2614 18.3045 13.4736 18.4441 13.4332Z" fill="white"/>
</g>
</g>
<rect x="1.06074" y="1.04988" width="37.9" height="37.9" rx="6.95" stroke="white" stroke-opacity="0.15" stroke-width="2.1"/>
<defs>
<filter id="filter0_d_2_3769" x="0.296457" y="0.285593" width="39.4286" height="39.4286" filterUnits="userSpaceOnUse" color-interpolation-filters="sRGB">
<feFlood flood-opacity="0" result="BackgroundImageFix"/>
<feColorMatrix in="SourceAlpha" type="matrix" values="0 0 0 0 0 0 0 0 0 0 0 0 0 0 0 0 0 0 127 0" result="hardAlpha"/>
<feOffset/>
<feGaussianBlur stdDeviation="2.85714"/>
<feComposite in2="hardAlpha" operator="out"/>
<feColorMatrix type="matrix" values="0 0 0 0 0 0 0 0 0 0 0 0 0 0 0 0 0 0 0.25 0"/>
<feBlend mode="normal" in2="BackgroundImageFix" result="effect1_dropShadow_2_3769"/>
<feBlend mode="normal" in="SourceGraphic" in2="effect1_dropShadow_2_3769" result="shape"/>
</filter>
<linearGradient id="paint0_linear_2_3769" x1="20.0107" y1="-0.00012207" x2="20.0107" y2="39.9999" gradientUnits="userSpaceOnUse">
<stop stop-color="#0A2135"/>
<stop offset="1" stop-color="#041823"/>
</linearGradient>
<clipPath id="clip0_2_3769">
<rect x="0.0107422" y="-0.00012207" width="40" height="40" rx="8" fill="white"/>
</clipPath>
</defs>
</svg>
