<svg width="41" height="40" viewBox="0 0 41 40" fill="none" xmlns="http://www.w3.org/2000/svg">
<g clip-path="url(#clip0_2_3208)">
<rect x="0.0107422" y="-6.10352e-05" width="40" height="40" rx="8" fill="url(#paint0_linear_2_3208)"/>
<g filter="url(#filter0_d_2_3208)">
<path fill-rule="evenodd" clip-rule="evenodd" d="M9.54086 21.1427C9.58288 22.0098 10.4484 21.6086 10.8404 21.3375C11.2124 21.0801 11.3212 21.2941 11.3539 20.7862C11.3753 20.4523 11.4138 20.1185 11.3948 19.7833C10.8322 19.7323 10.2201 19.8664 9.75884 20.2018C9.52122 20.3746 9.0757 20.9262 9.54086 21.1427Z" fill="#F6D2A2" stroke="black" stroke-width="0.35" stroke-linecap="round"/>
<path fill-rule="evenodd" clip-rule="evenodd" d="M9.54102 21.1427C9.66697 21.0958 9.80046 21.0625 9.88594 20.9485L9.54102 21.1427Z" fill="#C6B198"/>
<path d="M9.54102 21.1427C9.66697 21.0958 9.80046 21.0625 9.88594 20.9485" stroke="black" stroke-width="0.35" stroke-linecap="round"/>
<path fill-rule="evenodd" clip-rule="evenodd" d="M11.541 10.8128C8.22448 9.87932 10.6906 5.6564 13.3538 7.39334L11.541 10.8128Z" fill="#6AD7E5" stroke="black" stroke-width="0.35" stroke-linecap="round"/>
<path fill-rule="evenodd" clip-rule="evenodd" d="M26.2764 7.07643C28.9015 5.23092 31.2737 9.39472 28.2228 10.4424L26.2764 7.07643Z" fill="#6AD7E5" stroke="black" stroke-width="0.35" stroke-linecap="round"/>
<path fill-rule="evenodd" clip-rule="evenodd" d="M26.8411 31.8145C27.5079 32.2275 28.7267 33.4761 27.7264 34.0816C26.7653 34.9623 26.2274 33.1148 25.3838 32.8588C25.7471 32.365 26.2076 31.9147 26.8411 31.8145Z" fill="#F6D2A2" stroke="black" stroke-width="0.35" stroke-linecap="round"/>
<path d="M27.7264 34.0815C27.5781 33.7864 27.5283 33.4419 27.2808 33.204" stroke="black" stroke-width="0.35" stroke-linecap="round"/>
<path fill-rule="evenodd" clip-rule="evenodd" d="M14.9282 33.2256C14.1455 33.3468 13.705 34.0535 13.0526 34.4124C12.4378 34.7793 12.2026 34.2949 12.1472 34.1966C12.0508 34.1526 12.0589 34.2376 11.9102 34.0877C11.3402 33.1873 12.504 32.5293 13.11 32.082C13.9541 31.9112 14.4831 32.6437 14.9282 33.2256Z" fill="#F6D2A2" stroke="black" stroke-width="0.35" stroke-linecap="round"/>
<path d="M12.1475 34.1965C12.1773 33.8534 12.4491 33.6236 12.5786 33.3335" stroke="black" stroke-width="0.35" stroke-linecap="round"/>
<path fill-rule="evenodd" clip-rule="evenodd" d="M11.6795 9.64643C11.2419 9.41478 10.9209 9.10015 11.1886 8.59362C11.4364 8.12469 11.8967 8.17561 12.3343 8.40727L11.6795 9.64643Z" fill="black"/>
<path fill-rule="evenodd" clip-rule="evenodd" d="M27.5313 9.206C27.9688 8.97435 28.2898 8.65972 28.0222 8.15319C27.7744 7.68426 27.3141 7.73518 26.8765 7.96684L27.5313 9.206Z" fill="black"/>
<path fill-rule="evenodd" clip-rule="evenodd" d="M30.5431 21.0326C30.5011 21.8998 29.6357 21.4985 29.2436 21.2275C28.8716 20.9701 28.7628 21.184 28.7301 20.6761C28.7087 20.3423 28.6702 20.0084 28.6892 19.6733C29.2518 19.6223 29.8639 19.7564 30.3252 20.0918C30.5627 20.2646 31.0083 20.8162 30.5431 21.0326Z" fill="#F6D2A2" stroke="black" stroke-width="0.35" stroke-linecap="round"/>
<path fill-rule="evenodd" clip-rule="evenodd" d="M30.5432 21.0326C30.4172 20.9857 30.2837 20.9524 30.1982 20.8384L30.5432 21.0326Z" fill="#C6B198"/>
<path d="M30.5432 21.0326C30.4172 20.9857 30.2837 20.9524 30.1982 20.8384" stroke="black" stroke-width="0.35" stroke-linecap="round"/>
<path fill-rule="evenodd" clip-rule="evenodd" d="M19.7096 5.32251C23.0298 5.32251 26.1423 5.79777 27.7649 8.99056C29.2212 12.5693 28.7033 16.4283 28.9254 20.2105C29.1162 23.4581 29.5391 27.2101 28.0338 30.2196C26.4503 33.3858 22.4934 34.1823 19.2334 34.0657C16.6727 33.9739 13.5794 33.1378 12.1342 30.7962C10.4387 28.0491 11.2414 23.9644 11.3646 20.9077C11.5105 17.2868 10.3847 13.655 11.5732 10.1119C12.806 6.43649 16.1311 5.60586 19.7096 5.32251Z" fill="#6AD7E5" stroke="black" stroke-width="0.35" stroke-linecap="round"/>
<path fill-rule="evenodd" clip-rule="evenodd" d="M20.2959 9.78365C20.892 13.2521 26.5564 12.335 25.7428 8.83692C25.0132 5.70006 20.0977 6.56834 20.2959 9.78365Z" fill="white" stroke="black" stroke-width="0.35" stroke-linecap="round"/>
<path fill-rule="evenodd" clip-rule="evenodd" d="M13.5269 10.3446C14.2995 13.3642 19.1297 12.5911 18.9477 9.56217C18.7295 5.93453 12.7882 6.63451 13.5269 10.3446Z" fill="white" stroke="black" stroke-width="0.35" stroke-linecap="round"/>
<path fill-rule="evenodd" clip-rule="evenodd" d="M20.9793 13.9457C20.9818 14.3966 21.0817 14.9029 20.9965 15.3826C20.8815 15.6001 20.6558 15.6232 20.4614 15.7111C20.1924 15.6688 19.9662 15.4921 19.8584 15.2403C19.7893 14.6927 19.8841 14.1626 19.9015 13.6148L20.9793 13.9457Z" fill="white" stroke="black" stroke-width="0.35" stroke-linecap="round"/>
<path d="M14.8591 10.7364C15.3096 10.7364 15.6747 10.3405 15.6747 9.85214C15.6747 9.36378 15.3096 8.9679 14.8591 8.9679C14.4086 8.9679 14.0435 9.36378 14.0435 9.85214C14.0435 10.3405 14.4086 10.7364 14.8591 10.7364Z" fill="black"/>
<path d="M15.2299 10.2764C15.3361 10.2764 15.4222 10.1758 15.4222 10.0517C15.4222 9.92758 15.3361 9.82697 15.2299 9.82697C15.1237 9.82697 15.0376 9.92758 15.0376 10.0517C15.0376 10.1758 15.1237 10.2764 15.2299 10.2764Z" fill="white"/>
<path d="M21.6932 10.5162C22.1361 10.5162 22.4952 10.1203 22.4952 9.63192C22.4952 9.14357 22.1361 8.74768 21.6932 8.74768C21.2502 8.74768 20.8911 9.14357 20.8911 9.63192C20.8911 10.1203 21.2502 10.5162 21.6932 10.5162Z" fill="black"/>
<path d="M22.0578 10.0562C22.1622 10.0562 22.2469 9.95558 22.2469 9.83147C22.2469 9.70736 22.1622 9.60675 22.0578 9.60675C21.9533 9.60675 21.8687 9.70736 21.8687 9.83147C21.8687 9.95558 21.9533 10.0562 22.0578 10.0562Z" fill="white"/>
<path fill-rule="evenodd" clip-rule="evenodd" d="M18.6485 13.8966C18.2926 14.7598 18.8469 16.486 19.8125 15.2128C19.7435 14.6653 19.8382 14.1351 19.8557 13.5873L18.6485 13.8966Z" fill="white" stroke="black" stroke-width="0.35" stroke-linecap="round"/>
<path fill-rule="evenodd" clip-rule="evenodd" d="M18.7704 12.2342C18.1071 12.2908 17.5649 13.0801 17.9098 13.7046C18.3665 14.5317 19.3858 13.6314 20.0207 13.7158C20.7514 13.7307 21.3501 14.4891 21.937 13.8528C22.5897 13.1452 21.656 12.456 20.9262 12.1479L18.7704 12.2342Z" fill="#F6D2A2" stroke="#231F20" stroke-width="0.35" stroke-linecap="round"/>
<path fill-rule="evenodd" clip-rule="evenodd" d="M18.6867 12.1996C18.6376 11.0495 20.8284 10.9057 21.0871 11.8684C21.3452 12.8289 18.7946 13.0519 18.6867 12.1996Z" fill="black"/>
</g>
</g>
<rect x="1.06074" y="1.04994" width="37.9" height="37.9" rx="6.95" stroke="white" stroke-opacity="0.15" stroke-width="2.1"/>
<defs>
<filter id="filter0_d_2_3208" x="0.610839" y="0.599975" width="38.7998" height="38.8" filterUnits="userSpaceOnUse" color-interpolation-filters="sRGB">
<feFlood flood-opacity="0" result="BackgroundImageFix"/>
<feColorMatrix in="SourceAlpha" type="matrix" values="0 0 0 0 0 0 0 0 0 0 0 0 0 0 0 0 0 0 127 0" result="hardAlpha"/>
<feOffset/>
<feGaussianBlur stdDeviation="2"/>
<feComposite in2="hardAlpha" operator="out"/>
<feColorMatrix type="matrix" values="0 0 0 0 0 0 0 0 0 0 0 0 0 0 0 0 0 0 0.25 0"/>
<feBlend mode="normal" in2="BackgroundImageFix" result="effect1_dropShadow_2_3208"/>
<feBlend mode="normal" in="SourceGraphic" in2="effect1_dropShadow_2_3208" result="shape"/>
</filter>
<linearGradient id="paint0_linear_2_3208" x1="20.0107" y1="-6.10352e-05" x2="20.0107" y2="39.9999" gradientUnits="userSpaceOnUse">
<stop stop-color="#152A2D"/>
<stop offset="1" stop-color="#102022"/>
</linearGradient>
<clipPath id="clip0_2_3208">
<rect x="0.0107422" y="-6.10352e-05" width="40" height="40" rx="8" fill="white"/>
</clipPath>
</defs>
</svg>
