<svg width="41" height="40" viewBox="0 0 41 40" fill="none" xmlns="http://www.w3.org/2000/svg">
<rect x="0.0107422" y="-6.10352e-05" width="40" height="40" rx="8" fill="url(#paint0_linear_2_1958)"/>
<g filter="url(#filter0_d_2_1958)">
<path d="M6.01074 6H34.0107V34H6.01074V6ZM31.7171 27.322C31.5129 26.0445 30.6811 24.9712 28.2136 23.9702C27.3549 23.5677 26.4006 23.2877 26.1171 22.6402C26.0109 22.2552 25.9946 22.0452 26.0634 21.8177C26.2384 21.064 27.1309 20.8377 27.8309 21.0477C28.2859 21.1877 28.7059 21.5377 28.9696 22.0977C30.1759 21.309 30.1759 21.309 31.0171 20.7852C30.7021 20.2952 30.5457 20.084 30.3334 19.8752C29.5984 19.0527 28.6196 18.6327 27.0271 18.6688L26.2046 18.7727C25.4159 18.9652 24.6646 19.3852 24.2096 19.9452C22.8796 21.4513 23.2634 24.0763 24.8734 25.1613C26.4659 26.3513 28.7946 26.6127 29.0921 27.7338C29.3721 29.0988 28.0771 29.5363 26.7984 29.3788C25.8522 29.1688 25.3284 28.6952 24.7509 27.8202L22.6159 29.0463C22.8609 29.6063 23.1409 29.8502 23.5609 30.3402C25.5909 32.3888 30.6659 32.2838 31.5771 29.1688C31.6109 29.0638 31.8571 28.3463 31.6634 27.2438L31.7171 27.322ZM21.2369 18.8695H18.6142C18.6142 21.1305 18.6037 23.3775 18.6037 25.642C18.6037 27.0793 18.6772 28.3988 18.4427 28.8048C18.0577 29.6087 17.0661 29.506 16.6157 29.3648C16.1537 29.1362 15.9192 28.8212 15.6474 28.3673C15.5739 28.2448 15.5191 28.1387 15.4992 28.1387L13.3701 29.4512C13.7259 30.1862 14.2451 30.8185 14.9147 31.221C15.9122 31.816 17.2527 32.0085 18.6562 31.6935C19.5697 31.4298 20.3572 30.8873 20.7691 30.0473C21.3641 28.9623 21.2381 27.6323 21.2322 26.1437C21.2462 23.7473 21.2322 21.3498 21.2322 18.9348L21.2369 18.8695Z" fill="#F7DF1E"/>
</g>
<rect x="1.06074" y="1.04994" width="37.9" height="37.9" rx="6.95" stroke="white" stroke-opacity="0.15" stroke-width="2.1"/>
<defs>
<filter id="filter0_d_2_1958" x="2.01074" y="1.99994" width="36" height="36.0001" filterUnits="userSpaceOnUse" color-interpolation-filters="sRGB">
<feFlood flood-opacity="0" result="BackgroundImageFix"/>
<feColorMatrix in="SourceAlpha" type="matrix" values="0 0 0 0 0 0 0 0 0 0 0 0 0 0 0 0 0 0 127 0" result="hardAlpha"/>
<feOffset/>
<feGaussianBlur stdDeviation="2"/>
<feComposite in2="hardAlpha" operator="out"/>
<feColorMatrix type="matrix" values="0 0 0 0 0 0 0 0 0 0 0 0 0 0 0 0 0 0 0.25 0"/>
<feBlend mode="normal" in2="BackgroundImageFix" result="effect1_dropShadow_2_1958"/>
<feBlend mode="normal" in="SourceGraphic" in2="effect1_dropShadow_2_1958" result="shape"/>
</filter>
<linearGradient id="paint0_linear_2_1958" x1="20.0107" y1="-6.10351e-05" x2="20.0107" y2="39.9999" gradientUnits="userSpaceOnUse">
<stop stop-color="#35300A"/>
<stop offset="1" stop-color="#232004"/>
</linearGradient>
</defs>
</svg>
