<svg width="41" height="40" viewBox="0 0 41 40" fill="none" xmlns="http://www.w3.org/2000/svg">
<g clip-path="url(#clip0_2_1857)">
<rect x="0.0107422" y="-6.10352e-05" width="40" height="40" rx="8" fill="url(#paint0_linear_2_1857)"/>
<g filter="url(#filter0_d_2_1857)">
<path d="M9.96736 33.0236C15.934 34.0026 21.3783 33.7899 24.9483 33.155C26.7288 32.8383 28.0589 32.414 28.7526 31.9703C28.9272 31.8587 29.0674 31.7421 29.1645 31.6207C29.2619 31.499 29.3213 31.3653 29.3186 31.2236C29.3132 30.9446 29.0751 30.7226 28.7031 30.5476L28.6715 30.5214H28.6264H28.619L28.5797 30.7028C28.5466 30.7427 28.5466 30.7426 28.5466 30.7426L28.5468 30.7428L28.5511 30.7467C28.5552 30.7504 28.5617 30.7565 28.5696 30.7647C28.5855 30.7811 28.6069 30.8053 28.6278 30.8356C28.6707 30.8977 28.7051 30.9754 28.7008 31.0596C28.6967 31.1391 28.6569 31.2481 28.5045 31.3744C28.3496 31.5029 28.0839 31.644 27.6437 31.7793C25.9928 32.2754 22.5088 32.6013 19.0541 32.6388C17.3291 32.6575 15.6165 32.6042 14.1501 32.4653C12.6795 32.326 11.47 32.1016 10.7422 31.7843L10.7417 31.7841C10.6191 31.7314 10.56 31.6831 10.535 31.6487C10.5162 31.6229 10.5156 31.6053 10.5251 31.5813C10.5383 31.5478 10.574 31.5011 10.6441 31.4447C10.7122 31.3899 10.8029 31.3336 10.9105 31.2778C11.3442 31.0532 11.9888 30.8689 12.2967 30.8205L12.2968 30.8208L12.3055 30.8188C12.6247 30.7449 12.8693 30.7082 13.033 30.69C13.1148 30.6809 13.1764 30.6764 13.217 30.6742C13.2373 30.6731 13.2524 30.6725 13.262 30.6723L13.2725 30.6721L13.2748 30.672L13.2749 30.672H13.275H13.275H13.2751H13.2751H13.672L13.3466 30.4446C13.1726 30.323 12.9156 30.2728 12.6303 30.2643C12.3404 30.2558 12.0011 30.29 11.6454 30.3551C10.9342 30.4854 10.1416 30.7424 9.52043 31.0483C9.21017 31.201 8.9374 31.3686 8.73821 31.5423C8.54384 31.7119 8.39661 31.9073 8.38631 32.1182C8.37527 32.3444 8.52101 32.5306 8.77582 32.6741C9.03042 32.8174 9.4204 32.9352 9.96736 33.0236ZM9.96736 33.0236C9.96729 33.0236 9.96723 33.0235 9.96717 33.0235L9.98741 32.9002L9.96747 33.0236C9.96743 33.0236 9.9674 33.0236 9.96736 33.0236ZM26.4242 21.831C26.3122 21.7754 26.3123 21.7753 26.3123 21.7753L26.3123 21.7752L26.3124 21.775L26.3127 21.7744L26.3134 21.7731L26.3155 21.7691L26.3225 21.7563C26.3285 21.7458 26.337 21.7314 26.3483 21.7141C26.3709 21.6797 26.4046 21.6334 26.4505 21.5836C26.5416 21.4851 26.6836 21.3701 26.8838 21.3116C28.7068 20.6681 30.3816 21.63 30.6014 23.0645C30.7113 23.7816 30.4495 24.5901 29.6927 25.337C28.9377 26.0822 27.688 26.7695 25.8068 27.2611L25.3634 27.3769L26.4242 21.831ZM26.4242 21.831L26.3122 21.7754L26.1458 22.1101L26.4242 21.831ZM25.8462 26.8651C28.6055 25.4211 29.2751 24.0398 29.1162 23.1103C28.9553 22.1687 27.9348 21.5906 27.0978 21.7527C26.8797 21.8017 26.7231 21.8503 26.6221 21.8861C26.5715 21.9041 26.5348 21.9188 26.5114 21.9288C26.4997 21.9338 26.4913 21.9376 26.4861 21.94L26.4807 21.9425L26.4801 21.9428L26.4801 21.9428L26.48 21.9428L26.4799 21.9429L26.4798 21.9429L25.8462 26.8651ZM25.8462 26.8651H25.7979L25.7633 26.9341C25.7417 26.977 25.7208 27.0082 25.7061 27.0279C25.6987 27.0378 25.693 27.0447 25.6895 27.0487L25.6863 27.0523L25.6861 27.0525L25.686 27.0526L25.6858 27.0528L25.8462 26.8651ZM15.6879 28.2996L15.6879 28.2995L15.688 28.2995L15.688 28.2995L16.0667 28.068H15.6227H15.6217H15.6043L15.5875 28.0727C15.0085 28.2373 14.6019 28.4274 14.356 28.6372C14.232 28.7429 14.1435 28.8582 14.0982 28.983C14.0521 29.11 14.0537 29.2391 14.0973 29.3634C14.1817 29.604 14.4184 29.8154 14.7366 29.9948C15.0599 30.177 15.4896 30.3386 15.996 30.4687C18.0185 30.9882 21.3478 31.0257 24.2899 29.7609L24.5769 29.6376L24.284 29.5289C23.7191 29.3192 23.1759 29.0543 22.6623 28.7381L22.6209 28.7126L22.5731 28.7218C19.9945 29.2202 18.7614 29.269 16.4357 28.9708L16.4327 28.9705C15.9509 28.9208 15.6794 28.8413 15.5368 28.7605C15.4669 28.7209 15.4362 28.6856 15.4231 28.6615C15.4113 28.6399 15.4091 28.6194 15.4144 28.5953C15.4272 28.5363 15.483 28.465 15.5571 28.3989C15.5913 28.3683 15.6247 28.343 15.6495 28.3254C15.6619 28.3166 15.6719 28.3099 15.6787 28.3055L15.6862 28.3007L15.6878 28.2996L15.6879 28.2996ZM15.0018 24.937V24.6842L14.8149 24.8269C14.1927 25.0392 13.7551 25.2587 13.4879 25.4819C13.2171 25.7081 13.094 25.9654 13.1903 26.23C13.2785 26.4723 13.5377 26.6698 13.8821 26.8301C14.2339 26.9937 14.7048 27.1323 15.2646 27.2398C17.502 27.6695 21.2463 27.6179 24.7771 26.5605L25.1528 26.448L24.7813 26.3223C24.3485 26.176 23.9559 25.9293 23.6352 25.6023L23.5876 25.5537L23.521 25.5673C20.0973 26.2646 18.1177 26.2151 15.5868 25.9658C15.1071 25.916 14.849 25.8215 14.7206 25.725C14.6589 25.6786 14.6307 25.6346 14.6182 25.5971C14.6056 25.5592 14.6053 25.5172 14.6178 25.4695C14.644 25.3689 14.7213 25.2624 14.8038 25.1742C14.8434 25.1318 14.8813 25.0968 14.9092 25.0724C14.9197 25.0633 14.9287 25.0557 14.9357 25.0499L15.0018 25.0276V24.9379V24.937ZM16.2735 21.4744L16.2292 21.3853L16.1441 21.4057L16.1439 21.4057C16.1267 21.4049 16.1015 21.4038 16.0687 21.4029C16.0031 21.4012 15.9073 21.4002 15.7844 21.403C15.5388 21.4085 15.1853 21.4291 14.7503 21.4892C13.8805 21.6095 12.6843 21.888 11.3754 22.521L11.3754 22.521L11.3744 22.5215C11.1789 22.6181 11.0288 22.7158 10.9274 22.8162C10.8262 22.9163 10.7603 23.0328 10.7685 23.1627C10.7767 23.2916 10.8558 23.3962 10.9582 23.4783C11.0614 23.5611 11.2033 23.6336 11.3725 23.6982C12.0461 23.9555 13.2777 24.1329 14.7603 24.2174C17.732 24.387 21.7815 24.1868 24.5632 23.4557L24.5822 23.4507L24.5988 23.4401C24.867 23.2686 25.1984 23.0957 25.4648 22.9649C25.5976 22.8997 25.7134 22.8453 25.796 22.8073C25.8373 22.7883 25.8702 22.7734 25.8928 22.7633L25.9185 22.7518L25.9251 22.7489L25.9267 22.7481L25.9271 22.748L25.9272 22.7479L25.9272 22.7479L25.9272 22.7479L25.855 22.5105L25.8769 22.6335L25.8549 22.5105L25.8549 22.5105L25.8546 22.5105L25.8534 22.5107L25.8486 22.5116L25.8296 22.5149L25.7549 22.5279C25.6894 22.5392 25.5933 22.5555 25.4709 22.5757C25.2262 22.6162 24.8764 22.6723 24.4567 22.7346C23.6173 22.8593 22.4991 23.0089 21.382 23.1089C18.6426 23.3085 15.7156 23.3581 14.2351 23.1593L14.2345 23.1592C13.8016 23.1034 13.5188 23.0355 13.3497 22.9636C13.2649 22.9276 13.218 22.8944 13.1943 22.8691C13.1738 22.8471 13.1749 22.8363 13.1754 22.8321L13.1754 22.832C13.1764 22.822 13.1837 22.7982 13.2175 22.7601C13.2505 22.7229 13.301 22.6808 13.3701 22.6348C13.5081 22.5431 13.7026 22.4477 13.9303 22.3534C14.3843 22.1652 14.9485 21.9898 15.4018 21.861C15.6279 21.7967 15.8253 21.7443 15.9662 21.708C16.0367 21.6898 16.0929 21.6757 16.1315 21.6661L16.1665 21.6575L16.3717 21.672L16.2744 21.4763L16.2735 21.4744ZM13.2336 34.5475C13.8475 34.722 14.8824 34.9183 16.5867 35.0215V35.0217L16.7035 35.0293C19.3998 35.205 22.8092 35.155 25.5727 34.7399C26.9534 34.5325 28.1812 34.2328 29.0796 33.82C29.97 33.4109 30.5801 32.8696 30.6354 32.158L30.3962 32.1026C30.3947 32.1019 30.3947 32.1019 30.3947 32.1018L30.3948 32.1015L30.3951 32.1009L30.3954 32.1L30.3957 32.0994L30.3943 32.1023C30.3923 32.1061 30.3881 32.1137 30.3809 32.1248C30.3666 32.1469 30.34 32.1831 30.2948 32.2307C30.2043 32.3261 30.0386 32.4677 29.7453 32.635C29.1578 32.9702 28.0643 33.405 26.0545 33.7786C21.486 34.627 15.8216 34.5259 12.4971 33.9787L12.0578 33.9064L12.3953 34.1968L12.4768 34.1021C12.3953 34.1968 12.3954 34.1969 12.3955 34.197L12.3958 34.1972L12.3963 34.1977L12.3976 34.1987L12.4009 34.2014L12.4109 34.2091C12.4192 34.2153 12.4306 34.2234 12.4458 34.2332C12.4762 34.2529 12.5216 34.2795 12.5859 34.3111C12.7144 34.3744 12.9194 34.4582 13.2336 34.5475Z" fill="#4E7896" stroke="#4E7896" stroke-width="0.25"/>
<path d="M22.4982 4.99991L22.5875 4.91247L22.2647 4.58269L22.3769 5.03031C22.682 6.2469 22.5651 7.24346 22.1921 8.10414C21.8176 8.96813 21.1813 9.70362 20.4335 10.3898C19.9337 10.8484 19.3912 11.279 18.8474 11.7106C18.5747 11.9271 18.3016 12.1438 18.0335 12.3645C17.2363 13.0204 16.4893 13.706 15.9679 14.4993C15.6047 15.047 15.4629 15.6095 15.5046 16.1851C15.5462 16.7581 15.7688 17.336 16.1207 17.9194C16.8226 19.0832 18.0566 20.2967 19.4757 21.5733L19.6738 21.4303C19.4202 20.8502 19.0286 20.2873 18.6406 19.7295C18.6004 19.6717 18.5603 19.614 18.5203 19.5563C18.0907 18.9362 17.6816 18.3182 17.4544 17.6634C17.229 17.0137 17.1834 16.3296 17.4828 15.5737C17.7838 14.8134 18.4384 13.969 19.6371 13.0122C22.6686 10.6188 23.4336 8.60707 23.4141 7.17089C23.4044 6.45552 23.1999 5.89304 22.9972 5.50899C22.8958 5.31701 22.7949 5.16939 22.7186 5.06913C22.6805 5.01898 22.6485 4.98061 22.6256 4.95439C22.6142 4.94128 22.605 4.9312 22.5986 4.9242L22.5909 4.91601L22.5886 4.91366L22.5879 4.91292L22.5877 4.91266C22.5876 4.91256 22.5875 4.91247 22.4982 4.99991ZM20.5723 22.6433L20.515 22.5323C20.5723 22.6433 20.5724 22.6433 20.5725 22.6433L20.5727 22.6432L20.5733 22.6428L20.5756 22.6416L20.5841 22.6372L20.6159 22.62C20.6434 22.605 20.6831 22.5829 20.7329 22.554C20.8324 22.4962 20.9722 22.4112 21.1344 22.3018C21.4583 22.0834 21.8746 21.7657 22.2384 21.371C22.6015 20.9772 22.9194 20.4988 23.0332 19.9587C23.1481 19.4134 23.0521 18.8177 22.6098 18.2023C22.5387 18.0985 22.4687 17.9976 22.4005 17.8993C22.0944 17.4584 21.8238 17.0684 21.6418 16.6864C21.4224 16.2256 21.3404 15.7924 21.487 15.3181C21.6355 14.8374 22.0245 14.2957 22.7916 13.6352C23.5575 12.9757 24.6895 12.207 26.3062 11.2694L26.2131 11.04L26.2435 11.1612C26.2131 11.04 26.2131 11.04 26.213 11.04L26.2125 11.0401L26.211 11.0405L26.2052 11.042L26.1828 11.0478C26.1632 11.0529 26.1343 11.0605 26.0971 11.0707C26.0225 11.0911 25.9142 11.1215 25.7783 11.1623C25.5065 11.2439 25.124 11.3666 24.6805 11.5317C23.7946 11.8614 22.6599 12.3619 21.6764 13.0434C20.6954 13.7232 19.8475 14.5951 19.5655 15.6732C19.2811 16.7605 19.5803 18.0226 20.8185 19.4583L20.9131 19.3766L20.819 19.4589C21.1645 19.8541 21.308 20.2332 21.336 20.5771C21.3642 20.9227 21.2766 21.2432 21.1434 21.5201C21.01 21.7972 20.8327 22.0269 20.6876 22.188C20.6152 22.2682 20.5515 22.3308 20.5062 22.373C20.4835 22.3941 20.4655 22.4101 20.4534 22.4206L20.4398 22.4322L20.4366 22.4349L20.436 22.4354L20.436 22.4354L20.4359 22.4354L20.4365 22.4361L20.5723 22.6433Z" fill="#F58219" stroke="#F58219" stroke-width="0.25"/>
</g>
</g>
<rect x="1.06074" y="1.04994" width="37.9" height="37.9" rx="6.95" stroke="white" stroke-opacity="0.15" stroke-width="2.1"/>
<defs>
<filter id="filter0_d_2_1857" x="2.01074" y="0.165467" width="36" height="39.0844" filterUnits="userSpaceOnUse" color-interpolation-filters="sRGB">
<feFlood flood-opacity="0" result="BackgroundImageFix"/>
<feColorMatrix in="SourceAlpha" type="matrix" values="0 0 0 0 0 0 0 0 0 0 0 0 0 0 0 0 0 0 127 0" result="hardAlpha"/>
<feOffset/>
<feGaussianBlur stdDeviation="2"/>
<feComposite in2="hardAlpha" operator="out"/>
<feColorMatrix type="matrix" values="0 0 0 0 0 0 0 0 0 0 0 0 0 0 0 0 0 0 0.25 0"/>
<feBlend mode="normal" in2="BackgroundImageFix" result="effect1_dropShadow_2_1857"/>
<feBlend mode="normal" in="SourceGraphic" in2="effect1_dropShadow_2_1857" result="shape"/>
</filter>
<linearGradient id="paint0_linear_2_1857" x1="20.0107" y1="-6.10351e-05" x2="20.0107" y2="39.9999" gradientUnits="userSpaceOnUse">
<stop stop-color="#2F1A07"/>
<stop offset="1" stop-color="#111A21"/>
</linearGradient>
<clipPath id="clip0_2_1857">
<rect x="0.0107422" y="-6.10352e-05" width="40" height="40" rx="8" fill="white"/>
</clipPath>
</defs>
</svg>
