<svg width="41" height="40" viewBox="0 0 41 40" fill="none" xmlns="http://www.w3.org/2000/svg">
<g clip-path="url(#clip0_2_1865)">
<rect x="0.0107422" y="-6.10352e-05" width="40" height="40" rx="8" fill="url(#paint0_linear_2_1865)"/>
<g filter="url(#filter0_d_2_1865)">
<path d="M9.96736 33.0237C15.934 34.0027 21.3783 33.79 24.9483 33.1551C26.7288 32.8384 28.0589 32.4141 28.7526 31.9704C28.9272 31.8587 29.0674 31.7422 29.1645 31.6208C29.2619 31.4991 29.3213 31.3654 29.3186 31.2237C29.3132 30.9447 29.0751 30.7227 28.7031 30.5477L28.6715 30.5215H28.6264H28.619L28.5797 30.7029C28.5466 30.7427 28.5466 30.7427 28.5466 30.7427L28.5468 30.7429L28.5511 30.7468C28.5552 30.7505 28.5617 30.7566 28.5696 30.7648C28.5855 30.7812 28.6069 30.8054 28.6278 30.8357C28.6707 30.8978 28.7051 30.9755 28.7008 31.0597C28.6967 31.1392 28.6569 31.2482 28.5045 31.3745C28.3496 31.503 28.0839 31.6441 27.6437 31.7794C25.9928 32.2755 22.5088 32.6014 19.0541 32.6389C17.3291 32.6576 15.6165 32.6043 14.1501 32.4654C12.6795 32.3261 11.47 32.1017 10.7422 31.7844L10.7417 31.7842C10.6191 31.7315 10.56 31.6832 10.535 31.6488C10.5162 31.623 10.5156 31.6054 10.5251 31.5813C10.5383 31.5479 10.574 31.5012 10.6441 31.4448C10.7122 31.39 10.8029 31.3337 10.9105 31.2779C11.3442 31.0533 11.9888 30.869 12.2967 30.8206L12.2968 30.8209L12.3055 30.8189C12.6247 30.745 12.8693 30.7083 13.033 30.6901C13.1148 30.681 13.1764 30.6765 13.217 30.6743C13.2373 30.6732 13.2524 30.6726 13.262 30.6724L13.2725 30.6722L13.2748 30.6721L13.2749 30.6721H13.275H13.275H13.2751H13.2751H13.672L13.3466 30.4447C13.1726 30.3231 12.9156 30.2729 12.6303 30.2644C12.3404 30.2559 12.0011 30.2901 11.6454 30.3552C10.9342 30.4855 10.1416 30.7425 9.52043 31.0484C9.21017 31.2011 8.9374 31.3687 8.73821 31.5424C8.54384 31.712 8.39661 31.9074 8.38631 32.1183C8.37527 32.3444 8.52101 32.5307 8.77582 32.6742C9.03042 32.8174 9.4204 32.9353 9.96736 33.0237ZM9.96736 33.0237C9.96729 33.0236 9.96723 33.0236 9.96717 33.0236L9.98741 32.9003L9.96747 33.0237C9.96743 33.0237 9.9674 33.0237 9.96736 33.0237ZM26.4242 21.8311C26.3122 21.7754 26.3123 21.7754 26.3123 21.7754L26.3123 21.7753L26.3124 21.775L26.3127 21.7745L26.3134 21.7732L26.3155 21.7692L26.3225 21.7564C26.3285 21.7459 26.337 21.7315 26.3483 21.7142C26.3709 21.6798 26.4046 21.6335 26.4505 21.5837C26.5416 21.4852 26.6836 21.3702 26.8838 21.3117C28.7068 20.6682 30.3816 21.6301 30.6014 23.0646C30.7113 23.7817 30.4495 24.5902 29.6927 25.3371C28.9377 26.0823 27.688 26.7696 25.8068 27.2612L25.3634 27.377L26.4242 21.8311ZM26.4242 21.8311L26.3122 21.7754L26.1458 22.1102L26.4242 21.8311ZM25.8462 26.8652C28.6055 25.4212 29.2751 24.0399 29.1162 23.1104C28.9553 22.1688 27.9348 21.5907 27.0978 21.7528C26.8797 21.8018 26.7231 21.8504 26.6221 21.8862C26.5715 21.9042 26.5348 21.9189 26.5114 21.9289C26.4997 21.9339 26.4913 21.9377 26.4861 21.9401L26.4807 21.9426L26.4801 21.9429L26.4801 21.9429L26.48 21.9429L26.4799 21.943L26.4798 21.943L25.8462 26.8652ZM25.8462 26.8652H25.7979L25.7633 26.9341C25.7417 26.9771 25.7208 27.0083 25.7061 27.028C25.6987 27.0379 25.693 27.0448 25.6895 27.0488L25.6863 27.0524L25.6861 27.0526L25.686 27.0526L25.6858 27.0529L25.8462 26.8652ZM15.6879 28.2997L15.6879 28.2996L15.688 28.2996L15.688 28.2996L16.0667 28.068H15.6227H15.6217H15.6043L15.5875 28.0728C15.0085 28.2374 14.6019 28.4275 14.356 28.6373C14.232 28.743 14.1435 28.8582 14.0982 28.9831C14.0521 29.1101 14.0537 29.2392 14.0973 29.3635C14.1817 29.6041 14.4184 29.8155 14.7366 29.9949C15.0599 30.1771 15.4896 30.3387 15.996 30.4687C18.0185 30.9883 21.3478 31.0258 24.2899 29.761L24.5769 29.6377L24.284 29.529C23.7191 29.3193 23.1759 29.0544 22.6623 28.7382L22.6209 28.7126L22.5731 28.7219C19.9945 29.2203 18.7614 29.2691 16.4357 28.9709L16.4327 28.9706C15.9509 28.9209 15.6794 28.8414 15.5368 28.7606C15.4669 28.721 15.4362 28.6857 15.4231 28.6616C15.4113 28.64 15.4091 28.6195 15.4144 28.5954C15.4272 28.5364 15.483 28.4651 15.5571 28.399C15.5913 28.3684 15.6247 28.3431 15.6495 28.3255C15.6619 28.3167 15.6719 28.31 15.6787 28.3056L15.6862 28.3007L15.6878 28.2997L15.6879 28.2997ZM15.0018 24.9371V24.6843L14.8149 24.827C14.1927 25.0393 13.7551 25.2588 13.4879 25.482C13.2171 25.7082 13.094 25.9655 13.1903 26.2301C13.2785 26.4724 13.5377 26.6699 13.8821 26.8301C14.2339 26.9938 14.7048 27.1324 15.2646 27.2399C17.502 27.6696 21.2463 27.618 24.7771 26.5606L25.1528 26.4481L24.7813 26.3224C24.3485 26.176 23.9559 25.9294 23.6352 25.6024L23.5876 25.5538L23.521 25.5674C20.0973 26.2647 18.1177 26.2152 15.5868 25.9658C15.1071 25.9161 14.849 25.8216 14.7206 25.7251C14.6589 25.6787 14.6307 25.6347 14.6182 25.5972C14.6056 25.5593 14.6053 25.5173 14.6178 25.4696C14.644 25.369 14.7213 25.2625 14.8038 25.1743C14.8434 25.1319 14.8813 25.0969 14.9092 25.0725C14.9197 25.0634 14.9287 25.0558 14.9357 25.05L15.0018 25.0277V24.938V24.9371ZM16.2735 21.4745L16.2292 21.3854L16.1441 21.4058L16.1439 21.4058C16.1267 21.405 16.1015 21.4039 16.0687 21.403C16.0031 21.4013 15.9073 21.4003 15.7844 21.4031C15.5388 21.4086 15.1853 21.4292 14.7503 21.4893C13.8805 21.6096 12.6843 21.8881 11.3754 22.5211L11.3754 22.5211L11.3744 22.5216C11.1789 22.6182 11.0288 22.7158 10.9274 22.8163C10.8262 22.9164 10.7603 23.0329 10.7685 23.1627C10.7767 23.2917 10.8558 23.3963 10.9582 23.4784C11.0614 23.5612 11.2033 23.6337 11.3725 23.6983C12.0461 23.9556 13.2777 24.1329 14.7603 24.2175C17.732 24.3871 21.7815 24.1869 24.5632 23.4558L24.5822 23.4508L24.5988 23.4402C24.867 23.2687 25.1984 23.0958 25.4648 22.965C25.5976 22.8998 25.7134 22.8454 25.796 22.8074C25.8373 22.7884 25.8702 22.7735 25.8928 22.7634L25.9185 22.7519L25.9251 22.749L25.9267 22.7482L25.9271 22.7481L25.9272 22.748L25.9272 22.748L25.9272 22.748L25.855 22.5105L25.8769 22.6336L25.8549 22.5105L25.8549 22.5106L25.8546 22.5106L25.8534 22.5108L25.8486 22.5117L25.8296 22.515L25.7549 22.528C25.6894 22.5392 25.5933 22.5556 25.4709 22.5758C25.2262 22.6163 24.8764 22.6724 24.4567 22.7347C23.6173 22.8594 22.4991 23.009 21.382 23.109C18.6426 23.3086 15.7156 23.3582 14.2351 23.1594L14.2345 23.1593C13.8016 23.1035 13.5188 23.0356 13.3497 22.9637C13.2649 22.9277 13.218 22.8945 13.1943 22.8691C13.1738 22.8472 13.1749 22.8364 13.1754 22.8322L13.1754 22.8321C13.1764 22.8221 13.1837 22.7983 13.2175 22.7602C13.2505 22.723 13.301 22.6809 13.3701 22.6349C13.5081 22.5432 13.7026 22.4478 13.9303 22.3535C14.3843 22.1653 14.9485 21.9899 15.4018 21.861C15.6279 21.7968 15.8253 21.7444 15.9662 21.7081C16.0367 21.6899 16.0929 21.6758 16.1315 21.6662L16.1665 21.6576L16.3717 21.6721L16.2744 21.4764L16.2735 21.4745ZM13.2336 34.5476C13.8475 34.7221 14.8824 34.9184 16.5867 35.0216V35.0218L16.7035 35.0294C19.3998 35.2051 22.8092 35.1551 25.5727 34.74C26.9534 34.5326 28.1812 34.2329 29.0796 33.8201C29.97 33.411 30.5801 32.8697 30.6354 32.1581L30.3962 32.1027C30.3947 32.102 30.3947 32.102 30.3947 32.1019L30.3948 32.1016L30.3951 32.101L30.3954 32.1001L30.3957 32.0995L30.3943 32.1023C30.3923 32.1062 30.3881 32.1138 30.3809 32.1249C30.3666 32.147 30.34 32.1831 30.2948 32.2308C30.2043 32.3262 30.0386 32.4678 29.7453 32.6351C29.1578 32.9703 28.0643 33.4051 26.0545 33.7786C21.486 34.6271 15.8216 34.526 12.4971 33.9788L12.0578 33.9065L12.3953 34.1969L12.4768 34.1022C12.3953 34.1969 12.3954 34.197 12.3955 34.1971L12.3958 34.1973L12.3963 34.1978L12.3976 34.1988L12.4009 34.2015L12.4109 34.2092C12.4192 34.2154 12.4306 34.2235 12.4458 34.2333C12.4762 34.253 12.5216 34.2795 12.5859 34.3112C12.7144 34.3745 12.9194 34.4583 13.2336 34.5476Z" fill="#4E7896" stroke="#4E7896" stroke-width="0.25"/>
<path d="M22.4982 5.00003L22.5875 4.91259L22.2647 4.58281L22.3769 5.03043C22.682 6.24703 22.5651 7.24358 22.1921 8.10426C21.8176 8.96825 21.1813 9.70374 20.4335 10.3899C19.9337 10.8485 19.3912 11.2791 18.8474 11.7107C18.5747 11.9272 18.3016 12.1439 18.0335 12.3646C17.2363 13.0205 16.4893 13.7062 15.9679 14.4994C15.6047 15.0471 15.4629 15.6096 15.5046 16.1852C15.5462 16.7582 15.7688 17.3361 16.1207 17.9195C16.8226 19.0833 18.0566 20.2968 19.4757 21.5734L19.6738 21.4304C19.4202 20.8504 19.0286 20.2874 18.6406 19.7296C18.6004 19.6718 18.5603 19.6141 18.5203 19.5565C18.0907 18.9363 17.6816 18.3184 17.4544 17.6635C17.229 17.0138 17.1834 16.3297 17.4828 15.5738C17.7838 14.8136 18.4384 13.9691 19.6371 13.0124C22.6686 10.6189 23.4336 8.6072 23.4141 7.17101C23.4044 6.45564 23.1999 5.89316 22.9972 5.50911C22.8958 5.31713 22.7949 5.16951 22.7186 5.06925C22.6805 5.0191 22.6485 4.98073 22.6256 4.95451C22.6142 4.9414 22.605 4.93132 22.5986 4.92432L22.5909 4.91613L22.5886 4.91378L22.5879 4.91304L22.5877 4.91278C22.5876 4.91268 22.5875 4.91259 22.4982 5.00003ZM20.5723 22.6435L20.515 22.5324C20.5723 22.6435 20.5724 22.6434 20.5725 22.6434L20.5727 22.6433L20.5733 22.643L20.5756 22.6418L20.5841 22.6373L20.6159 22.6202C20.6434 22.6052 20.6831 22.583 20.7329 22.5541C20.8324 22.4963 20.9722 22.4113 21.1344 22.3019C21.4583 22.0835 21.8746 21.7659 22.2384 21.3712C22.6015 20.9773 22.9194 20.499 23.0332 19.9589C23.1481 19.4135 23.0521 18.8178 22.6098 18.2024C22.5387 18.0986 22.4687 17.9977 22.4005 17.8994C22.0944 17.4585 21.8238 17.0685 21.6418 16.6865C21.4224 16.2257 21.3404 15.7925 21.487 15.3183C21.6355 14.8375 22.0245 14.2959 22.7916 13.6353C23.5575 12.9759 24.6895 12.2071 26.3062 11.2695L26.2131 11.0401L26.2435 11.1613C26.2131 11.0401 26.2131 11.0401 26.213 11.0401L26.2125 11.0402L26.211 11.0406L26.2052 11.0421L26.1828 11.0479C26.1632 11.053 26.1343 11.0607 26.0971 11.0708C26.0225 11.0912 25.9142 11.1217 25.7783 11.1624C25.5065 11.244 25.124 11.3667 24.6805 11.5318C23.7946 11.8615 22.6599 12.3621 21.6764 13.0435C20.6954 13.7233 19.8475 14.5952 19.5655 15.6734C19.2811 16.7606 19.5803 18.0227 20.8185 19.4584L20.9131 19.3768L20.819 19.459C21.1645 19.8542 21.308 20.2333 21.336 20.5773C21.3642 20.9228 21.2766 21.2433 21.1434 21.5202C21.01 21.7974 20.8327 22.027 20.6876 22.1881C20.6152 22.2683 20.5515 22.3309 20.5062 22.3731C20.4835 22.3942 20.4655 22.4102 20.4534 22.4207L20.4398 22.4323L20.4366 22.435L20.436 22.4355L20.436 22.4355L20.4359 22.4356L20.4365 22.4362L20.5723 22.6435Z" fill="#F58219" stroke="#F58219" stroke-width="0.25"/>
<path d="M26.8888 32.4449C25.9835 32.4449 25.1747 32.3009 24.4626 32.013C23.7543 31.7214 23.1975 31.3274 22.7922 30.8312C22.3907 30.3312 22.1899 29.7668 22.1899 29.138C22.1899 28.657 22.3054 28.2157 22.5365 27.8142C22.7675 27.4127 23.08 27.0793 23.474 26.8142C23.8717 26.5452 24.3149 26.3729 24.8035 26.2971V26.2062C24.1634 26.0888 23.6388 25.7914 23.2297 25.3142C22.8244 24.8369 22.6217 24.2782 22.6217 23.638C22.6217 23.032 22.8054 22.4922 23.1729 22.0187C23.5441 21.5452 24.0497 21.1721 24.6899 20.8994C25.3338 20.6267 26.0668 20.4903 26.8888 20.4903C27.7107 20.4903 28.4418 20.6267 29.0819 20.8994C29.7259 21.1721 30.2316 21.5452 30.599 22.0187C30.9702 22.4922 31.1558 23.032 31.1558 23.638C31.1558 24.282 30.9494 24.8426 30.5365 25.3199C30.1274 25.7933 29.6066 26.0888 28.974 26.2062V26.2971C29.4588 26.3729 29.8982 26.5452 30.2922 26.8142C30.6899 27.0793 31.0043 27.4127 31.2354 27.8142C31.4702 28.2157 31.5876 28.657 31.5876 29.138C31.5876 29.7668 31.385 30.3312 30.9797 30.8312C30.5744 31.3274 30.0175 31.7214 29.3092 32.013C28.6047 32.3009 27.7979 32.4449 26.8888 32.4449ZM26.8888 30.4505C27.2335 30.4505 27.5365 30.3861 27.7979 30.2574C28.0592 30.1248 28.2638 29.9411 28.4115 29.7062C28.563 29.4714 28.6388 29.2062 28.6388 28.9108C28.6388 28.6077 28.563 28.3388 28.4115 28.1039C28.26 27.8691 28.0516 27.6854 27.7865 27.5528C27.5251 27.4164 27.2259 27.3483 26.8888 27.3483C26.5554 27.3483 26.2562 27.4164 25.991 27.5528C25.7259 27.6854 25.5175 27.8691 25.366 28.1039C25.2145 28.3388 25.1388 28.6077 25.1388 28.9108C25.1388 29.2062 25.2126 29.4714 25.3604 29.7062C25.5119 29.9373 25.7183 30.1191 25.9797 30.2517C26.2448 30.3843 26.5479 30.4505 26.8888 30.4505ZM26.8888 25.3653C27.1842 25.3653 27.4456 25.3047 27.6729 25.1835C27.9039 25.0623 28.0838 24.8937 28.2126 24.6778C28.3452 24.4619 28.4115 24.2176 28.4115 23.9449C28.4115 23.6721 28.3452 23.4316 28.2126 23.2233C28.0838 23.0149 27.9058 22.8521 27.6785 22.7346C27.4513 22.6134 27.188 22.5528 26.8888 22.5528C26.5933 22.5528 26.33 22.6134 26.099 22.7346C25.8679 22.8521 25.688 23.0149 25.5592 23.2233C25.4304 23.4316 25.366 23.6721 25.366 23.9449C25.366 24.2176 25.4304 24.4619 25.5592 24.6778C25.6918 24.8899 25.8736 25.0585 26.1047 25.1835C26.3357 25.3047 26.5971 25.3653 26.8888 25.3653Z" fill="#F58219"/>
<path d="M24.4626 32.013L24.2722 32.4754L24.2752 32.4766L24.4626 32.013ZM22.7922 30.8312L22.4023 31.1443L22.4049 31.1475L22.7922 30.8312ZM22.5365 27.8142L22.9699 28.0636L22.9699 28.0636L22.5365 27.8142ZM23.474 26.8142L23.7532 27.229L23.7541 27.2284L23.474 26.8142ZM24.8035 26.2971L24.8801 26.7912L25.3035 26.7256V26.2971H24.8035ZM24.8035 26.2062H25.3035V25.7896L24.8937 25.7144L24.8035 26.2062ZM23.2297 25.3142L22.8485 25.6378L22.85 25.6396L23.2297 25.3142ZM23.1729 22.0187L22.7794 21.7102L22.7778 21.7122L23.1729 22.0187ZM24.6899 20.8994L24.4949 20.439L24.4939 20.4394L24.6899 20.8994ZM29.0819 20.8994L28.886 21.3594L28.8869 21.3598L29.0819 20.8994ZM30.599 22.0187L30.204 22.3253L30.2055 22.3272L30.599 22.0187ZM30.5365 25.3199L30.1583 24.9927L30.1581 24.993L30.5365 25.3199ZM28.974 26.2062L28.8827 25.7146L28.474 25.7905V26.2062H28.974ZM28.974 26.2971H28.474V26.7251L28.8968 26.7911L28.974 26.2971ZM30.2922 26.8142L30.0102 27.2271L30.0148 27.2302L30.2922 26.8142ZM31.2354 27.8142L30.802 28.0636L30.8038 28.0666L31.2354 27.8142ZM30.9797 30.8312L31.3669 31.1475L31.3681 31.1461L30.9797 30.8312ZM29.3092 32.013L29.4983 32.4759L29.4996 32.4754L29.3092 32.013ZM27.7979 30.2574L28.0189 30.7059L28.024 30.7033L27.7979 30.2574ZM28.4115 29.7062L27.9913 29.4351L27.9883 29.44L28.4115 29.7062ZM28.4115 28.1039L27.9913 28.375L27.9913 28.375L28.4115 28.1039ZM27.7865 27.5528L27.5552 27.9962L27.5629 28L27.7865 27.5528ZM25.991 27.5528L26.2147 28.0001L26.2197 27.9975L25.991 27.5528ZM25.366 28.1039L24.9459 27.8329L24.9459 27.8329L25.366 28.1039ZM25.3604 29.7062L24.937 29.9725L24.9422 29.9804L25.3604 29.7062ZM25.9797 30.2517L25.7535 30.6976L25.7561 30.6989L25.9797 30.2517ZM27.6729 25.1835L27.4406 24.7407L27.4376 24.7423L27.6729 25.1835ZM28.2126 24.6778L27.7865 24.4162L27.7832 24.4217L28.2126 24.6778ZM28.2126 23.2233L27.7873 23.4862L27.7908 23.4917L28.2126 23.2233ZM27.6785 22.7346L27.4432 23.1758L27.449 23.1788L27.6785 22.7346ZM26.099 22.7346L26.3255 23.1804L26.3313 23.1774L26.099 22.7346ZM25.5592 23.2233L25.9845 23.4862L25.9845 23.4862L25.5592 23.2233ZM25.5592 24.6778L25.1297 24.934L25.1352 24.9428L25.5592 24.6778ZM26.1047 25.1835L25.8667 25.6233L25.8724 25.6263L26.1047 25.1835ZM26.8888 31.9449C26.0364 31.9449 25.293 31.8094 24.65 31.5495L24.2752 32.4766C25.0565 32.7924 25.9305 32.9449 26.8888 32.9449V31.9449ZM24.653 31.5507C24.0064 31.2845 23.5229 30.9354 23.1794 30.5149L22.4049 31.1475C22.8721 31.7195 23.5022 32.1583 24.2722 32.4754L24.653 31.5507ZM23.182 30.5182C22.8503 30.105 22.6899 29.6505 22.6899 29.138H21.6899C21.6899 29.8831 21.931 30.5574 22.4023 31.1443L23.182 30.5182ZM22.6899 29.138C22.6899 28.741 22.7842 28.3862 22.9699 28.0636L22.1031 27.5648C21.8267 28.0452 21.6899 28.573 21.6899 29.138H22.6899ZM22.9699 28.0636C23.1619 27.7299 23.4209 27.4526 23.7532 27.229L23.1948 26.3994C22.7392 26.7061 22.3732 27.0954 22.1031 27.5648L22.9699 28.0636ZM23.7541 27.2284C24.0888 27.002 24.4621 26.856 24.8801 26.7912L24.7269 25.803C24.1677 25.8897 23.6546 26.0885 23.1939 26.4L23.7541 27.2284ZM25.3035 26.2971V26.2062H24.3035V26.2971H25.3035ZM24.8937 25.7144C24.362 25.6169 23.941 25.3758 23.6093 24.9888L22.85 25.6396C23.3365 26.2071 23.9648 26.5607 24.7133 26.698L24.8937 25.7144ZM23.6108 24.9905C23.2841 24.6058 23.1217 24.1625 23.1217 23.638H22.1217C22.1217 24.3939 22.3646 25.068 22.8486 25.6378L23.6108 24.9905ZM23.1217 23.638C23.1217 23.1416 23.2693 22.71 23.5679 22.3253L22.7778 21.7122C22.3415 22.2744 22.1217 22.9223 22.1217 23.638H23.1217ZM23.5663 22.3272C23.8779 21.9298 24.311 21.6043 24.8859 21.3594L24.4939 20.4394C23.7885 20.74 23.2102 21.1607 22.7794 21.7102L23.5663 22.3272ZM24.8849 21.3598C25.4573 21.1174 26.1222 20.9903 26.8888 20.9903V19.9903C26.0114 19.9903 25.2104 20.136 24.4949 20.439L24.8849 21.3598ZM26.8888 20.9903C27.6554 20.9903 28.318 21.1174 28.886 21.3594L29.2779 20.4394C28.5656 20.1359 27.7661 19.9903 26.8888 19.9903V20.9903ZM28.8869 21.3598C29.4654 21.6048 29.8971 21.9298 30.204 22.3253L30.994 21.7122C30.566 21.1606 29.9864 20.7395 29.2769 20.439L28.8869 21.3598ZM30.2055 22.3272C30.5072 22.712 30.6558 23.1429 30.6558 23.638H31.6558C31.6558 22.921 31.4332 22.2724 30.9925 21.7102L30.2055 22.3272ZM30.6558 23.638C30.6558 24.1645 30.4909 24.6083 30.1583 24.9927L30.9146 25.647C31.4078 25.0768 31.6558 24.3994 31.6558 23.638H30.6558ZM30.1581 24.993C29.8255 25.378 29.4071 25.6173 28.8827 25.7146L29.0652 26.6978C29.806 26.5603 30.4293 26.2087 30.9148 25.6467L30.1581 24.993ZM28.474 26.2062V26.2971H29.474V26.2062H28.474ZM28.8968 26.7911C29.3104 26.8558 29.6795 27.0013 30.0103 27.2271L30.5741 26.4012C30.117 26.0892 29.6073 25.89 29.0512 25.8031L28.8968 26.7911ZM30.0148 27.2302C30.3505 27.454 30.6106 27.731 30.802 28.0636L31.6687 27.5648C31.3979 27.0943 31.0293 26.7047 30.5695 26.3982L30.0148 27.2302ZM30.8038 28.0666C30.9922 28.3889 31.0876 28.7425 31.0876 29.138H32.0876C32.0876 28.5714 31.9482 28.0425 31.6669 27.5617L30.8038 28.0666ZM31.0876 29.138C31.0876 29.6493 30.9262 30.1031 30.5913 30.5164L31.3681 31.1461C31.8437 30.5593 32.0876 29.8844 32.0876 29.138H31.0876ZM30.5924 30.5149C30.249 30.9354 29.7654 31.2845 29.1188 31.5507L29.4996 32.4754C30.2697 32.1583 30.8998 31.7195 31.3669 31.1475L30.5924 30.5149ZM29.1201 31.5502C28.486 31.8093 27.7453 31.9449 26.8888 31.9449V32.9449C27.8504 32.9449 28.7233 32.7926 29.4983 32.4759L29.1201 31.5502ZM26.8888 30.9505C27.2962 30.9505 27.6773 30.8742 28.0189 30.7059L27.5768 29.8089C27.3957 29.8981 27.1707 29.9505 26.8888 29.9505V30.9505ZM28.024 30.7033C28.3614 30.5321 28.636 30.2883 28.8347 29.9724L27.9883 29.44C27.8915 29.5938 27.757 29.7174 27.5717 29.8114L28.024 30.7033ZM28.8316 29.9773C29.0383 29.6569 29.1388 29.2966 29.1388 28.9108H28.1388C28.1388 29.1158 28.0877 29.2858 27.9913 29.4352L28.8316 29.9773ZM29.1388 28.9108C29.1388 28.52 29.0397 28.1553 28.8316 27.8329L27.9913 28.375C28.0863 28.5222 28.1388 28.6954 28.1388 28.9108H29.1388ZM28.8316 27.8329C28.6286 27.5182 28.3503 27.2757 28.0101 27.1056L27.5629 28C27.753 28.0951 27.8914 28.22 27.9913 28.375L28.8316 27.8329ZM28.0178 27.1095C27.6753 26.9309 27.2948 26.8483 26.8888 26.8483V27.8483C27.157 27.8483 27.3749 27.902 27.5552 27.9961L28.0178 27.1095ZM26.8888 26.8483C26.4854 26.8483 26.1062 26.9313 25.7624 27.1082L26.2197 27.9975C26.4061 27.9016 26.6255 27.8483 26.8888 27.8483V26.8483ZM25.7674 27.1056C25.4272 27.2757 25.1489 27.5182 24.9459 27.8329L25.7862 28.375C25.8862 28.22 26.0245 28.0951 26.2146 28L25.7674 27.1056ZM24.9459 27.8329C24.7378 28.1553 24.6388 28.52 24.6388 28.9108H25.6388C25.6388 28.6954 25.6912 28.5222 25.7862 28.375L24.9459 27.8329ZM24.6388 28.9108C24.6388 29.294 24.7359 29.6526 24.9371 29.9724L25.7836 29.44C25.6893 29.2901 25.6388 29.1184 25.6388 28.9108H24.6388ZM24.9422 29.9804C25.1446 30.2889 25.4191 30.528 25.7535 30.6976L26.2059 29.8058C26.0175 29.7102 25.8792 29.5856 25.7785 29.432L24.9422 29.9804ZM25.7561 30.6989C26.1004 30.871 26.4819 30.9505 26.8888 30.9505V29.9505C26.6138 29.9505 26.3893 29.8975 26.2033 29.8045L25.7561 30.6989ZM26.8888 25.8653C27.2541 25.8653 27.5984 25.7899 27.9081 25.6247L27.4376 24.7423C27.2927 24.8196 27.1143 24.8653 26.8888 24.8653V25.8653ZM27.9051 25.6263C28.2146 25.4639 28.4642 25.2322 28.642 24.934L27.7832 24.4217C27.7035 24.5553 27.5932 24.6606 27.4406 24.7407L27.9051 25.6263ZM28.6387 24.9394C28.8233 24.6388 28.9115 24.3026 28.9115 23.9449H27.9115C27.9115 24.1326 27.8671 24.285 27.7865 24.4162L28.6387 24.9394ZM28.9115 23.9449C28.9115 23.5873 28.8233 23.2516 28.6345 22.9548L27.7908 23.4917C27.8671 23.6116 27.9115 23.7569 27.9115 23.9449H28.9115ZM28.6379 22.9604C28.4593 22.6715 28.2121 22.4475 27.908 22.2904L27.449 23.1788C27.5996 23.2566 27.7083 23.3584 27.7873 23.4862L28.6379 22.9604ZM27.9138 22.2935C27.6032 22.1278 27.2567 22.0528 26.8888 22.0528V23.0528C27.1193 23.0528 27.2993 23.099 27.4432 23.1758L27.9138 22.2935ZM26.8888 22.0528C26.5232 22.0528 26.1784 22.1283 25.8667 22.2919L26.3313 23.1774C26.4817 23.0985 26.6634 23.0528 26.8888 23.0528V22.0528ZM25.8725 22.2889C25.5646 22.4453 25.3138 22.6694 25.1339 22.9604L25.9845 23.4862C26.0622 23.3605 26.1713 23.2588 26.3255 23.1804L25.8725 22.2889ZM25.1339 22.9604C24.9509 23.2564 24.866 23.5901 24.866 23.9449H25.866C25.866 23.7541 25.91 23.6068 25.9845 23.4862L25.1339 22.9604ZM24.866 23.9449C24.866 24.2999 24.9509 24.6341 25.1298 24.934L25.9886 24.4217C25.9099 24.2897 25.866 24.1353 25.866 23.9449H24.866ZM25.1352 24.9428C25.316 25.232 25.5636 25.4592 25.8668 25.6233L26.3426 24.7437C26.1837 24.6577 26.0676 24.5478 25.9832 24.4128L25.1352 24.9428ZM25.8724 25.6263C26.1832 25.7893 26.5259 25.8653 26.8888 25.8653V24.8653C26.6683 24.8653 26.4882 24.8201 26.3369 24.7407L25.8724 25.6263Z" fill="white" fill-opacity="0.25"/>
</g>
</g>
<rect x="1.06074" y="1.04994" width="37.9" height="37.9" rx="6.95" stroke="white" stroke-opacity="0.15" stroke-width="2.1"/>
<defs>
<filter id="filter0_d_2_1865" x="2.01074" y="0.165589" width="36" height="39.0844" filterUnits="userSpaceOnUse" color-interpolation-filters="sRGB">
<feFlood flood-opacity="0" result="BackgroundImageFix"/>
<feColorMatrix in="SourceAlpha" type="matrix" values="0 0 0 0 0 0 0 0 0 0 0 0 0 0 0 0 0 0 127 0" result="hardAlpha"/>
<feOffset/>
<feGaussianBlur stdDeviation="2"/>
<feComposite in2="hardAlpha" operator="out"/>
<feColorMatrix type="matrix" values="0 0 0 0 0 0 0 0 0 0 0 0 0 0 0 0 0 0 0.25 0"/>
<feBlend mode="normal" in2="BackgroundImageFix" result="effect1_dropShadow_2_1865"/>
<feBlend mode="normal" in="SourceGraphic" in2="effect1_dropShadow_2_1865" result="shape"/>
</filter>
<linearGradient id="paint0_linear_2_1865" x1="20.0107" y1="-6.10351e-05" x2="20.0107" y2="39.9999" gradientUnits="userSpaceOnUse">
<stop stop-color="#2F1A07"/>
<stop offset="1" stop-color="#111A21"/>
</linearGradient>
<clipPath id="clip0_2_1865">
<rect x="0.0107422" y="-6.10352e-05" width="40" height="40" rx="8" fill="white"/>
</clipPath>
</defs>
</svg>
