<svg width="41" height="40" viewBox="0 0 41 40" fill="none" xmlns="http://www.w3.org/2000/svg">
<g clip-path="url(#clip0_2_1874)">
<rect x="0.0107422" y="-6.10352e-05" width="40" height="40" rx="8" fill="url(#paint0_linear_2_1874)"/>
<g filter="url(#filter0_d_2_1874)">
<path d="M9.96736 33.0237C15.934 34.0028 21.3783 33.79 24.9483 33.1551C26.7288 32.8384 28.0589 32.4142 28.7526 31.9704C28.9272 31.8588 29.0674 31.7422 29.1645 31.6209C29.2619 31.4991 29.3213 31.3654 29.3186 31.2238C29.3132 30.9447 29.0751 30.7228 28.7031 30.5477L28.6715 30.5215H28.6264H28.619L28.5797 30.7029C28.5466 30.7428 28.5466 30.7427 28.5466 30.7427L28.5468 30.7429L28.5511 30.7468C28.5552 30.7506 28.5617 30.7566 28.5696 30.7648C28.5855 30.7812 28.6069 30.8055 28.6278 30.8358C28.6707 30.8978 28.7051 30.9755 28.7008 31.0597C28.6967 31.1393 28.6569 31.2482 28.5045 31.3746C28.3496 31.503 28.0839 31.6441 27.6437 31.7795C25.9928 32.2755 22.5088 32.6014 19.0541 32.6389C17.3291 32.6576 15.6165 32.6044 14.1501 32.4654C12.6795 32.3261 11.47 32.1017 10.7422 31.7845L10.7417 31.7842C10.6191 31.7315 10.56 31.6832 10.535 31.6488C10.5162 31.623 10.5156 31.6054 10.5251 31.5814C10.5383 31.5479 10.574 31.5013 10.6441 31.4448C10.7122 31.39 10.8029 31.3337 10.9105 31.278C11.3442 31.0533 11.9888 30.869 12.2967 30.8206L12.2968 30.821L12.3055 30.8189C12.6247 30.7451 12.8693 30.7084 13.033 30.6901C13.1148 30.681 13.1764 30.6765 13.217 30.6743C13.2373 30.6732 13.2524 30.6727 13.262 30.6724L13.2725 30.6722L13.2748 30.6722L13.2749 30.6722H13.275H13.275H13.2751H13.2751H13.672L13.3466 30.4447C13.1726 30.3231 12.9156 30.2729 12.6303 30.2645C12.3404 30.2559 12.0011 30.2901 11.6454 30.3552C10.9342 30.4855 10.1416 30.7425 9.52043 31.0484C9.21017 31.2012 8.9374 31.3687 8.73821 31.5424C8.54384 31.712 8.39661 31.9074 8.38631 32.1184C8.37527 32.3445 8.52101 32.5308 8.77582 32.6742C9.03042 32.8175 9.4204 32.9353 9.96736 33.0237ZM9.96736 33.0237C9.96729 33.0237 9.96723 33.0237 9.96717 33.0237L9.98741 32.9003L9.96747 33.0237C9.96743 33.0237 9.9674 33.0237 9.96736 33.0237ZM26.4242 21.8311C26.3122 21.7755 26.3123 21.7754 26.3123 21.7754L26.3123 21.7753L26.3124 21.7751L26.3127 21.7746L26.3134 21.7732L26.3155 21.7692L26.3225 21.7564C26.3285 21.7459 26.337 21.7315 26.3483 21.7142C26.3709 21.6798 26.4046 21.6335 26.4505 21.5838C26.5416 21.4852 26.6836 21.3703 26.8838 21.3118C28.7068 20.6682 30.3816 21.6301 30.6014 23.0646C30.7113 23.7817 30.4495 24.5902 29.6927 25.3371C28.9377 26.0824 27.688 26.7697 25.8068 27.2612L25.3634 27.377L26.4242 21.8311ZM26.4242 21.8311L26.3122 21.7755L26.1458 22.1102L26.4242 21.8311ZM25.8462 26.8652C28.6055 25.4212 29.2751 24.0399 29.1162 23.1104C28.9553 22.1688 27.9348 21.5908 27.0978 21.7529C26.8797 21.8018 26.7231 21.8504 26.6221 21.8862C26.5715 21.9042 26.5348 21.9189 26.5114 21.9289C26.4997 21.9339 26.4913 21.9377 26.4861 21.9401L26.4807 21.9426L26.4801 21.9429L26.4801 21.9429L26.48 21.943L26.4799 21.943L26.4798 21.9431L25.8462 26.8652ZM25.8462 26.8652H25.7979L25.7633 26.9342C25.7417 26.9771 25.7208 27.0084 25.7061 27.0281C25.6987 27.0379 25.693 27.0448 25.6895 27.0488L25.6863 27.0524L25.6861 27.0527L25.686 27.0527L25.6858 27.0529L25.8462 26.8652ZM15.6879 28.2997L15.6879 28.2997L15.688 28.2996L15.688 28.2996L16.0667 28.0681H15.6227H15.6217H15.6043L15.5875 28.0728C15.0085 28.2375 14.6019 28.4275 14.356 28.6373C14.232 28.743 14.1435 28.8583 14.0982 28.9831C14.0521 29.1101 14.0537 29.2392 14.0973 29.3635C14.1817 29.6041 14.4184 29.8156 14.7366 29.9949C15.0599 30.1772 15.4896 30.3387 15.996 30.4688C18.0185 30.9883 21.3478 31.0258 24.2899 29.7611L24.5769 29.6377L24.284 29.529C23.7191 29.3193 23.1759 29.0545 22.6623 28.7382L22.6209 28.7127L22.5731 28.7219C19.9945 29.2203 18.7614 29.2691 16.4357 28.971L16.4327 28.9706C15.9509 28.9209 15.6794 28.8414 15.5368 28.7606C15.4669 28.7211 15.4362 28.6858 15.4231 28.6616C15.4113 28.64 15.4091 28.6195 15.4144 28.5954C15.4272 28.5364 15.483 28.4652 15.5571 28.399C15.5913 28.3684 15.6247 28.3432 15.6495 28.3255C15.6619 28.3168 15.6719 28.31 15.6787 28.3056L15.6862 28.3008L15.6878 28.2998L15.6879 28.2997ZM15.0018 24.9371V24.6843L14.8149 24.827C14.1927 25.0393 13.7551 25.2588 13.4879 25.482C13.2171 25.7082 13.094 25.9655 13.1903 26.2301C13.2785 26.4724 13.5377 26.6699 13.8821 26.8302C14.2339 26.9938 14.7048 27.1324 15.2646 27.2399C17.502 27.6696 21.2463 27.6181 24.7771 26.5606L25.1528 26.4481L24.7813 26.3225C24.3485 26.1761 23.9559 25.9294 23.6352 25.6024L23.5876 25.5539L23.521 25.5674C20.0973 26.2647 18.1177 26.2152 15.5868 25.9659C15.1071 25.9161 14.849 25.8216 14.7206 25.7251C14.6589 25.6788 14.6307 25.6347 14.6182 25.5972C14.6056 25.5594 14.6053 25.5173 14.6178 25.4696C14.644 25.369 14.7213 25.2625 14.8038 25.1743C14.8434 25.1319 14.8813 25.0969 14.9092 25.0726C14.9197 25.0634 14.9287 25.0559 14.9357 25.05L15.0018 25.0277V24.938V24.9371ZM16.2735 21.4745L16.2292 21.3854L16.1441 21.4058L16.1439 21.4058C16.1267 21.405 16.1015 21.4039 16.0687 21.4031C16.0031 21.4013 15.9073 21.4003 15.7844 21.4031C15.5388 21.4086 15.1853 21.4292 14.7503 21.4893C13.8805 21.6096 12.6843 21.8881 11.3754 22.5211L11.3754 22.5211L11.3744 22.5216C11.1789 22.6182 11.0288 22.7159 10.9274 22.8163C10.8262 22.9164 10.7603 23.033 10.7685 23.1628C10.7767 23.2917 10.8558 23.3963 10.9582 23.4785C11.0614 23.5612 11.2033 23.6337 11.3725 23.6983C12.0461 23.9556 13.2777 24.133 14.7603 24.2176C17.732 24.3871 21.7815 24.1869 24.5632 23.4558L24.5822 23.4508L24.5988 23.4402C24.867 23.2687 25.1984 23.0958 25.4648 22.965C25.5976 22.8998 25.7134 22.8455 25.796 22.8075C25.8373 22.7885 25.8702 22.7735 25.8928 22.7634L25.9185 22.7519L25.9251 22.749L25.9267 22.7483L25.9271 22.7481L25.9272 22.7481L25.9272 22.7481L25.9272 22.748L25.855 22.5106L25.8769 22.6336L25.8549 22.5106L25.8549 22.5106L25.8546 22.5106L25.8534 22.5109L25.8486 22.5117L25.8296 22.515L25.7549 22.528C25.6894 22.5393 25.5933 22.5556 25.4709 22.5759C25.2262 22.6163 24.8764 22.6724 24.4567 22.7348C23.6173 22.8595 22.4991 23.009 21.382 23.1091C18.6426 23.3086 15.7156 23.3582 14.2351 23.1594L14.2345 23.1594C13.8016 23.1035 13.5188 23.0356 13.3497 22.9638C13.2649 22.9277 13.218 22.8945 13.1943 22.8692C13.1738 22.8472 13.1749 22.8364 13.1754 22.8322L13.1754 22.8321C13.1764 22.8221 13.1837 22.7984 13.2175 22.7602C13.2505 22.723 13.301 22.6809 13.3701 22.635C13.5081 22.5432 13.7026 22.4478 13.9303 22.3535C14.3843 22.1653 14.9485 21.9899 15.4018 21.8611C15.6279 21.7968 15.8253 21.7444 15.9662 21.7081C16.0367 21.69 16.0929 21.6758 16.1315 21.6663L16.1665 21.6577L16.3717 21.6721L16.2744 21.4764L16.2735 21.4745ZM13.2336 34.5476C13.8475 34.7221 14.8824 34.9185 16.5867 35.0216V35.0218L16.7035 35.0294C19.3998 35.2052 22.8092 35.1551 25.5727 34.74C26.9534 34.5326 28.1812 34.233 29.0796 33.8201C29.97 33.411 30.5801 32.8698 30.6354 32.1581L30.3962 32.1027C30.3947 32.102 30.3947 32.102 30.3947 32.102L30.3948 32.1016L30.3951 32.101L30.3954 32.1001L30.3957 32.0995L30.3943 32.1024C30.3923 32.1062 30.3881 32.1138 30.3809 32.1249C30.3666 32.147 30.34 32.1832 30.2948 32.2308C30.2043 32.3262 30.0386 32.4678 29.7453 32.6352C29.1578 32.9703 28.0643 33.4051 26.0545 33.7787C21.486 34.6271 15.8216 34.526 12.4971 33.9789L12.0578 33.9065L12.3953 34.197L12.4768 34.1022C12.3953 34.197 12.3954 34.197 12.3955 34.1971L12.3958 34.1974L12.3963 34.1978L12.3976 34.1989L12.4009 34.2016L12.4109 34.2093C12.4192 34.2154 12.4306 34.2235 12.4458 34.2333C12.4762 34.253 12.5216 34.2796 12.5859 34.3112C12.7144 34.3745 12.9194 34.4584 13.2336 34.5476Z" fill="#4E7896" stroke="#4E7896" stroke-width="0.25"/>
<path d="M22.4982 5.00003L22.5875 4.91259L22.2647 4.58281L22.3769 5.03043C22.682 6.24703 22.5651 7.24358 22.1921 8.10426C21.8176 8.96825 21.1813 9.70374 20.4335 10.3899C19.9337 10.8485 19.3912 11.2791 18.8474 11.7107C18.5747 11.9272 18.3016 12.1439 18.0335 12.3646C17.2363 13.0205 16.4893 13.7062 15.9679 14.4994C15.6047 15.0471 15.4629 15.6096 15.5046 16.1852C15.5462 16.7582 15.7688 17.3361 16.1207 17.9195C16.8226 19.0833 18.0566 20.2968 19.4757 21.5734L19.6738 21.4304C19.4202 20.8504 19.0286 20.2874 18.6406 19.7296C18.6004 19.6718 18.5603 19.6141 18.5203 19.5565C18.0907 18.9363 17.6816 18.3184 17.4544 17.6635C17.229 17.0138 17.1834 16.3297 17.4828 15.5738C17.7838 14.8136 18.4384 13.9691 19.6371 13.0124C22.6686 10.6189 23.4336 8.6072 23.4141 7.17101C23.4044 6.45564 23.1999 5.89316 22.9972 5.50911C22.8958 5.31713 22.7949 5.16951 22.7186 5.06925C22.6805 5.0191 22.6485 4.98073 22.6256 4.95451C22.6142 4.9414 22.605 4.93132 22.5986 4.92432L22.5909 4.91613L22.5886 4.91378L22.5879 4.91304L22.5877 4.91278C22.5876 4.91268 22.5875 4.91259 22.4982 5.00003ZM20.5723 22.6435L20.515 22.5324C20.5723 22.6435 20.5724 22.6434 20.5725 22.6434L20.5727 22.6433L20.5733 22.643L20.5756 22.6418L20.5841 22.6373L20.6159 22.6202C20.6434 22.6052 20.6831 22.583 20.7329 22.5541C20.8324 22.4963 20.9722 22.4113 21.1344 22.3019C21.4583 22.0835 21.8746 21.7659 22.2384 21.3712C22.6015 20.9773 22.9194 20.499 23.0332 19.9589C23.1481 19.4135 23.0521 18.8178 22.6098 18.2024C22.5387 18.0986 22.4687 17.9977 22.4005 17.8994C22.0944 17.4585 21.8238 17.0685 21.6418 16.6865C21.4224 16.2257 21.3404 15.7925 21.487 15.3183C21.6355 14.8375 22.0245 14.2959 22.7916 13.6353C23.5575 12.9759 24.6895 12.2071 26.3062 11.2695L26.2131 11.0401L26.2435 11.1613C26.2131 11.0401 26.2131 11.0401 26.213 11.0401L26.2125 11.0402L26.211 11.0406L26.2052 11.0421L26.1828 11.0479C26.1632 11.053 26.1343 11.0607 26.0971 11.0708C26.0225 11.0912 25.9142 11.1217 25.7783 11.1624C25.5065 11.244 25.124 11.3667 24.6805 11.5318C23.7946 11.8615 22.6599 12.3621 21.6764 13.0435C20.6954 13.7233 19.8475 14.5952 19.5655 15.6734C19.2811 16.7606 19.5803 18.0227 20.8185 19.4584L20.9131 19.3768L20.819 19.459C21.1645 19.8542 21.308 20.2333 21.336 20.5773C21.3642 20.9228 21.2766 21.2433 21.1434 21.5202C21.01 21.7974 20.8327 22.027 20.6876 22.1881C20.6152 22.2683 20.5515 22.3309 20.5062 22.3731C20.4835 22.3942 20.4655 22.4102 20.4534 22.4207L20.4398 22.4323L20.4366 22.435L20.436 22.4355L20.436 22.4355L20.4359 22.4356L20.4365 22.4362L20.5723 22.6435Z" fill="#F58219" stroke="#F58219" stroke-width="0.25"/>
<path d="M22.6297 20.6494V32.2858H19.8229V23.2744H19.7547L17.1525 24.8653V22.4335L20.0218 20.6494H22.6297ZM30.5829 20.6494V32.2858H27.7761V23.2744H27.7079L25.1056 24.8653V22.4335L27.9749 20.6494H30.5829Z" fill="#F58219"/>
<path d="M22.6297 20.6494H23.1297V20.1494H22.6297V20.6494ZM22.6297 32.2858V32.7858H23.1297V32.2858H22.6297ZM19.8229 32.2858H19.3229V32.7858H19.8229V32.2858ZM19.8229 23.2744H20.3229V22.7744H19.8229V23.2744ZM19.7547 23.2744V22.7744H19.614L19.4939 22.8478L19.7547 23.2744ZM17.1525 24.8653H16.6525V25.757L17.4133 25.2919L17.1525 24.8653ZM17.1525 22.4335L16.8885 22.0089L16.6525 22.1556V22.4335H17.1525ZM20.0218 20.6494V20.1494H19.879L19.7578 20.2248L20.0218 20.6494ZM22.1298 20.6494V32.2858H23.1297V20.6494H22.1298ZM22.6297 31.7858H19.8229V32.7858H22.6297V31.7858ZM20.3229 32.2858V23.2744H19.3229V32.2858H20.3229ZM19.8229 22.7744H19.7547V23.7744H19.8229V22.7744ZM19.4939 22.8478L16.8917 24.4387L17.4133 25.2919L20.0155 23.701L19.4939 22.8478ZM17.6525 24.8653V22.4335H16.6525V24.8653H17.6525ZM17.4165 22.8581L20.2858 21.074L19.7578 20.2248L16.8885 22.0089L17.4165 22.8581ZM20.0218 21.1494H22.6297V20.1494H20.0218V21.1494ZM30.5829 20.6494H31.0829V20.1494H30.5829V20.6494ZM30.5829 32.2858V32.7858H31.0829V32.2858H30.5829ZM27.7761 32.2858H27.2761V32.7858H27.7761V32.2858ZM27.7761 23.2744H28.2761V22.7744H27.7761V23.2744ZM27.7079 23.2744V22.7744H27.5671L27.4471 22.8478L27.7079 23.2744ZM25.1056 24.8653H24.6056V25.757L25.3664 25.2919L25.1056 24.8653ZM25.1056 22.4335L24.8416 22.0089L24.6056 22.1556V22.4335H25.1056ZM27.9749 20.6494V20.1494H27.8321L27.7109 20.2248L27.9749 20.6494ZM30.0829 20.6494V32.2858H31.0829V20.6494H30.0829ZM30.5829 31.7858H27.7761V32.7858H30.5829V31.7858ZM28.2761 32.2858V23.2744H27.2761V32.2858H28.2761ZM27.7761 22.7744H27.7079V23.7744H27.7761V22.7744ZM27.4471 22.8478L24.8448 24.4387L25.3664 25.2919L27.9687 23.701L27.4471 22.8478ZM25.6056 24.8653V22.4335H24.6056V24.8653H25.6056ZM25.3696 22.8581L28.2389 21.074L27.7109 20.2248L24.8416 22.0089L25.3696 22.8581ZM27.9749 21.1494H30.5829V20.1494H27.9749V21.1494Z" fill="white" fill-opacity="0.25"/>
</g>
</g>
<rect x="1.06074" y="1.04994" width="37.9" height="37.9" rx="6.95" stroke="white" stroke-opacity="0.15" stroke-width="2.1"/>
<defs>
<filter id="filter0_d_2_1874" x="2.01074" y="0.165589" width="36" height="39.0844" filterUnits="userSpaceOnUse" color-interpolation-filters="sRGB">
<feFlood flood-opacity="0" result="BackgroundImageFix"/>
<feColorMatrix in="SourceAlpha" type="matrix" values="0 0 0 0 0 0 0 0 0 0 0 0 0 0 0 0 0 0 127 0" result="hardAlpha"/>
<feOffset/>
<feGaussianBlur stdDeviation="2"/>
<feComposite in2="hardAlpha" operator="out"/>
<feColorMatrix type="matrix" values="0 0 0 0 0 0 0 0 0 0 0 0 0 0 0 0 0 0 0.25 0"/>
<feBlend mode="normal" in2="BackgroundImageFix" result="effect1_dropShadow_2_1874"/>
<feBlend mode="normal" in="SourceGraphic" in2="effect1_dropShadow_2_1874" result="shape"/>
</filter>
<linearGradient id="paint0_linear_2_1874" x1="20.0107" y1="-6.10351e-05" x2="20.0107" y2="39.9999" gradientUnits="userSpaceOnUse">
<stop stop-color="#2F1A07"/>
<stop offset="1" stop-color="#111A21"/>
</linearGradient>
<clipPath id="clip0_2_1874">
<rect x="0.0107422" y="-6.10352e-05" width="40" height="40" rx="8" fill="white"/>
</clipPath>
</defs>
</svg>
