<svg width="41" height="40" viewBox="0 0 41 40" fill="none" xmlns="http://www.w3.org/2000/svg">
<rect x="0.0107422" y="-6.10352e-05" width="40" height="40" rx="8" fill="url(#paint0_linear_2_1724)"/>
<g filter="url(#filter0_d_2_1724)">
<path d="M9.30277 31.7293C8.8777 31.547 8.49222 31.296 8.14999 30.9779C6.7291 29.6546 6.57513 27.5552 7.71764 26.1655L7.70228 26.1508L7.92354 25.9383L25.4196 8.73221C25.6809 8.47702 25.9375 7.71662 26.0511 7.27977C26.0734 7.17374 26.1109 7.08643 26.1791 7.00824L26.2002 6.98601L26.2149 6.97192L26.2184 6.96388L26.2387 6.94677C26.5145 6.66787 27.0046 6.67812 27.6862 6.97039C28.5083 7.32288 29.5396 8.05072 30.5199 8.9648C31.3422 9.73493 32.0408 10.554 32.4736 11.2646C32.9872 12.0969 33.0813 12.6867 32.746 13.0135L32.686 13.049L32.659 13.0578C32.574 13.1043 32.49 13.1486 32.3945 13.1688C31.8775 13.3157 31.0993 13.6131 30.903 13.8145L13.2012 31.2778L13.1846 31.2626C12.1142 32.0929 10.6379 32.2882 9.3094 31.7239L9.30207 31.7208L9.30277 31.7293ZM8.46301 26.3124L8.41395 26.3594C7.27631 27.505 7.35218 29.3818 8.59329 30.541C8.87258 30.8036 9.19045 31.0065 9.53979 31.1563C10.7258 31.6649 12.0633 31.4427 12.9513 30.579L13.0143 30.5231L30.426 13.3856C30.7965 13.014 31.9545 12.6537 32.1834 12.5887L32.2109 12.5787C32.2329 12.5677 32.2427 12.5719 32.2501 12.5547C32.2796 12.4858 32.3086 12.2126 31.8875 11.522C31.4797 10.8575 30.8326 10.0904 30.0569 9.37013C29.1582 8.53868 28.1629 7.82488 27.43 7.51062C26.9536 7.30635 26.7495 7.33037 26.7022 7.36992L26.6825 7.41588C26.6508 7.54374 26.3522 8.68191 25.8947 9.13855L8.46448 26.309L8.46301 26.3124V26.3124ZM25.0637 17.7805C25.0637 17.7805 23.3399 18.5496 22.0692 18.5488C20.7982 18.5451 20.0572 18.0845 18.863 18.2022C17.6721 18.3185 16.8685 18.8471 16.8685 18.8471L8.82219 26.7697C7.93209 27.672 8.01752 29.2128 9.00419 30.1392C9.99502 31.0659 11.5551 31.0698 12.4706 30.1893L25.0637 17.7805V17.7805ZM14.1218 26.6689C14.2691 26.6763 14.3967 26.7868 14.395 26.9289C14.3951 27.0703 14.2857 27.1839 14.1367 27.1772C13.9885 27.1721 13.8619 27.0593 13.863 26.9184C13.8595 26.7849 13.9695 26.6702 14.1218 26.6689ZM13.771 24.0676C13.5518 24.0661 13.363 23.8927 13.3624 23.6816C13.3518 23.4703 13.527 23.2979 13.7461 23.3062C13.9687 23.3064 14.1553 23.4816 14.1569 23.6904C14.1734 23.9015 14.012 24.0553 13.7754 24.0573L13.771 24.0676ZM14.6602 22.9583C14.6519 22.563 14.9671 22.2426 15.3842 22.2378C15.7934 22.2446 16.1354 22.5599 16.1599 22.958C16.1653 23.3534 15.8525 23.6749 15.4389 23.6784C15.0104 23.666 14.6706 23.349 14.6449 22.9503L14.6602 22.9583V22.9583ZM18.7359 21.6349C18.9592 21.63 19.145 21.8103 19.1481 22.0157C19.1577 22.2292 18.9826 22.4017 18.7647 22.3939C18.5409 22.3931 18.353 22.2174 18.3537 22.0069C18.3381 21.7935 18.5182 21.6231 18.7373 21.6314L18.7359 21.6349V21.6349ZM17.8358 19.3734C17.9848 19.3801 18.1119 19.4918 18.109 19.6334C18.1103 19.7754 17.9977 19.893 17.8509 19.8845C17.7032 19.8782 17.5749 19.7661 17.5785 19.6262C17.577 19.4814 17.6976 19.3686 17.8358 19.3734V19.3734ZM27.4141 8.40419C27.6648 8.15672 28.7068 8.73818 29.7396 9.70874C30.7707 10.6731 31.4037 11.6586 31.1542 11.9066C30.8971 12.1554 29.8556 11.5728 28.8251 10.6073C27.7871 9.6386 27.1553 8.65364 27.4109 8.40147L27.4146 8.40304L27.4141 8.40419Z" fill="#FF0000"/>
</g>
<rect x="1.06074" y="1.04994" width="37.9" height="37.9" rx="6.95" stroke="white" stroke-opacity="0.15" stroke-width="2.1"/>
<defs>
<filter id="filter0_d_2_1724" x="2.01074" y="1.99994" width="36" height="36" filterUnits="userSpaceOnUse" color-interpolation-filters="sRGB">
<feFlood flood-opacity="0" result="BackgroundImageFix"/>
<feColorMatrix in="SourceAlpha" type="matrix" values="0 0 0 0 0 0 0 0 0 0 0 0 0 0 0 0 0 0 127 0" result="hardAlpha"/>
<feOffset/>
<feGaussianBlur stdDeviation="2"/>
<feComposite in2="hardAlpha" operator="out"/>
<feColorMatrix type="matrix" values="0 0 0 0 0 0 0 0 0 0 0 0 0 0 0 0 0 0 0.25 0"/>
<feBlend mode="normal" in2="BackgroundImageFix" result="effect1_dropShadow_2_1724"/>
<feBlend mode="normal" in="SourceGraphic" in2="effect1_dropShadow_2_1724" result="shape"/>
</filter>
<linearGradient id="paint0_linear_2_1724" x1="20.0107" y1="-6.10351e-05" x2="20.0107" y2="39.9999" gradientUnits="userSpaceOnUse">
<stop stop-color="#360A0A"/>
<stop offset="1" stop-color="#1E0505"/>
</linearGradient>
</defs>
</svg>
