<svg width="41" height="40" viewBox="0 0 41 40" fill="none" xmlns="http://www.w3.org/2000/svg">
<rect x="0.0107422" y="-6.10352e-05" width="40" height="40" rx="8" fill="url(#paint0_linear_2_1972)"/>
<g filter="url(#filter0_d_2_1972)">
<path d="M8.92855 8.90661C9.493 8.31456 10.1698 7.841 10.9194 7.51362C11.6691 7.18624 12.4764 7.01161 13.2943 6.99994L26.9442 6.99994C28.4283 6.99994 29.815 7.64994 31.0933 8.90661C31.6879 9.44904 32.1649 10.1077 32.4947 10.8419C32.8245 11.5761 33.0001 12.3701 33.0107 13.1749V27.0091C33.0107 28.4608 32.4041 29.8041 31.1908 31.0499C30.6215 31.6507 29.9387 32.1324 29.1818 32.4671C28.4249 32.8019 27.6091 32.983 26.7817 32.9999H13.3702C11.7336 32.9839 10.1573 32.3803 8.92855 31.2991C7.75857 30.2374 7.11941 28.6991 7.01108 26.6408V13.2074C7.00221 12.3948 7.16894 11.5898 7.49988 10.8475C7.83082 10.1052 8.31815 9.44317 8.92855 8.90661V8.90661ZM15.6993 17.8983L24.29 28.7966H26.5867C27.1175 28.7316 27.54 28.5799 27.8541 28.3308C28.1791 28.0816 28.3958 27.7241 28.5475 27.2474V21.8958C28.6341 20.8666 29.2733 20.2274 30.4649 19.9999C29.2733 19.5666 28.6341 18.8949 28.5475 17.9849V12.8716C28.4175 12.3949 28.19 12.0049 27.8541 11.7124C27.528 11.4162 27.1126 11.2371 26.6733 11.2033H24.3442V22.2533L15.6993 11.1924H13.2835C12.6768 11.3008 12.2327 11.5174 11.9293 11.8424C11.626 12.1674 11.431 12.6874 11.3444 13.3916V18.6458C10.9652 19.3933 10.3694 19.8374 9.55688 19.9999C10.4777 20.1733 11.0735 20.6608 11.3444 21.4733V26.6408C11.366 27.2366 11.561 27.7241 11.9293 28.1249C12.2868 28.5149 12.6877 28.6991 13.121 28.6666H15.6776L15.6993 17.8983Z" fill="#3655FF"/>
</g>
<rect x="1.06074" y="1.04994" width="37.9" height="37.9" rx="6.95" stroke="white" stroke-opacity="0.15" stroke-width="2.1"/>
<defs>
<filter id="filter0_d_2_1972" x="2.01074" y="1.99994" width="36" height="36" filterUnits="userSpaceOnUse" color-interpolation-filters="sRGB">
<feFlood flood-opacity="0" result="BackgroundImageFix"/>
<feColorMatrix in="SourceAlpha" type="matrix" values="0 0 0 0 0 0 0 0 0 0 0 0 0 0 0 0 0 0 127 0" result="hardAlpha"/>
<feOffset/>
<feGaussianBlur stdDeviation="2"/>
<feComposite in2="hardAlpha" operator="out"/>
<feColorMatrix type="matrix" values="0 0 0 0 0 0 0 0 0 0 0 0 0 0 0 0 0 0 0.25 0"/>
<feBlend mode="normal" in2="BackgroundImageFix" result="effect1_dropShadow_2_1972"/>
<feBlend mode="normal" in="SourceGraphic" in2="effect1_dropShadow_2_1972" result="shape"/>
</filter>
<linearGradient id="paint0_linear_2_1972" x1="20.0107" y1="-6.10351e-05" x2="20.0107" y2="39.9999" gradientUnits="userSpaceOnUse">
<stop stop-color="#0D1439"/>
<stop offset="1" stop-color="#060B24"/>
</linearGradient>
</defs>
</svg>
