<svg width="41" height="40" viewBox="0 0 41 40" fill="none" xmlns="http://www.w3.org/2000/svg">
<rect x="0.0107422" y="-0.00012207" width="40" height="40" rx="8" fill="url(#paint0_linear_2_2025)"/>
<g filter="url(#filter0_d_2_2025)">
<path d="M19.5119 5.99988C19.3062 5.99988 19.1504 6.00139 19.0937 6.00769C19.0335 6.01388 18.8418 6.03219 18.6695 6.04596C14.6926 6.40448 10.9675 8.54998 8.60811 11.8476C7.29432 13.6812 6.45408 15.7609 6.13674 17.964C6.02451 18.7329 6.01074 18.96 6.01074 20.0027C6.01074 21.0453 6.02474 21.2725 6.13674 22.0415C6.89742 27.2985 10.6391 31.7154 15.7136 33.3518C16.6224 33.6447 17.5803 33.8445 18.6696 33.9649C19.0939 34.0115 20.9276 34.0115 21.3518 33.9649C23.2322 33.7569 24.8253 33.2917 26.3962 32.4899C26.6371 32.3667 26.6837 32.3339 26.6509 32.3063C26.6289 32.2901 25.6024 30.9136 24.3708 29.2497L22.132 26.2257L19.3265 22.0743C17.7829 19.7919 16.5128 17.9257 16.5018 17.9257C16.4909 17.9226 16.48 19.7675 16.4744 22.0195C16.4666 25.9631 16.4636 26.1217 16.4142 26.2148C16.3431 26.349 16.2882 26.4036 16.1734 26.4638C16.0859 26.5074 16.0092 26.5157 15.5959 26.5157H15.1223L14.9965 26.4364C14.9185 26.3875 14.8551 26.3185 14.8131 26.2366L14.7556 26.1134L14.7617 20.6266L14.7696 15.137L14.8543 15.0302C14.8981 14.9727 14.9912 14.899 15.0568 14.8634C15.169 14.8086 15.2129 14.8031 15.6863 14.8031C16.2448 14.8031 16.3378 14.8249 16.4828 14.9836C16.524 15.0275 18.043 17.3154 19.8604 20.0712C21.7004 22.8605 23.5416 25.649 25.3839 28.4369L27.6008 31.7948L27.7128 31.7209C28.7066 31.075 29.7574 30.1555 30.5895 29.1978C32.3604 27.1644 33.5018 24.6851 33.885 22.0414C33.9971 21.2725 34.0107 21.0451 34.0107 20.0027C34.0107 18.96 33.9967 18.7329 33.885 17.9638C33.1241 12.7068 29.3825 8.28993 24.3081 6.65356C23.413 6.36341 22.4605 6.16356 21.3931 6.04316C21.196 6.02263 20.129 6.00046 19.5121 5.99999L19.5119 5.99988ZM24.2585 14.4197C24.6637 14.4197 24.7347 14.4259 24.8251 14.4745C24.9566 14.5401 25.0632 14.6661 25.1017 14.7974C25.1234 14.8685 25.129 16.3902 25.1234 19.8192L25.1155 24.7396L24.248 23.4096L23.3775 22.0796V18.5026C23.3775 16.1902 23.3884 14.8902 23.4048 14.8273C23.4486 14.6742 23.5444 14.5536 23.6759 14.4826C23.788 14.425 23.829 14.4196 24.2588 14.4196L24.2585 14.4197Z" fill="white"/>
</g>
<rect x="1.06074" y="1.04988" width="37.9" height="37.9" rx="6.95" stroke="white" stroke-opacity="0.15" stroke-width="2.1"/>
<defs>
<filter id="filter0_d_2_2025" x="2.01074" y="1.99988" width="36" height="36" filterUnits="userSpaceOnUse" color-interpolation-filters="sRGB">
<feFlood flood-opacity="0" result="BackgroundImageFix"/>
<feColorMatrix in="SourceAlpha" type="matrix" values="0 0 0 0 0 0 0 0 0 0 0 0 0 0 0 0 0 0 127 0" result="hardAlpha"/>
<feOffset/>
<feGaussianBlur stdDeviation="2"/>
<feComposite in2="hardAlpha" operator="out"/>
<feColorMatrix type="matrix" values="0 0 0 0 0 0 0 0 0 0 0 0 0 0 0 0 0 0 0.25 0"/>
<feBlend mode="normal" in2="BackgroundImageFix" result="effect1_dropShadow_2_2025"/>
<feBlend mode="normal" in="SourceGraphic" in2="effect1_dropShadow_2_2025" result="shape"/>
</filter>
<linearGradient id="paint0_linear_2_2025" x1="20.0107" y1="-0.00012207" x2="20.0107" y2="39.9999" gradientUnits="userSpaceOnUse">
<stop stop-color="#1E1E1E"/>
<stop offset="1" stop-color="#0D0D0D"/>
</linearGradient>
</defs>
</svg>
