<svg width="41" height="40" viewBox="0 0 41 40" fill="none" xmlns="http://www.w3.org/2000/svg">
<rect x="0.0107422" y="-0.00012207" width="40" height="40" rx="8" fill="url(#paint0_linear_2_2018)"/>
<g filter="url(#filter0_d_2_2018)">
<path d="M22.6124 20.003C22.6124 20.7242 22.3377 21.4158 21.8488 21.9258C21.3598 22.4358 20.6966 22.7225 20.0049 22.7229C19.313 22.7229 18.6495 22.4363 18.1603 21.9262C17.6711 21.4162 17.3962 20.7244 17.3962 20.003C17.3962 19.2819 17.6709 18.5903 18.1599 18.0803C18.6489 17.5702 19.3121 17.2836 20.0037 17.2832C20.6956 17.2832 21.3591 17.5698 21.8483 18.0798C22.3376 18.5899 22.6124 19.2817 22.6124 20.003V20.003ZM25.7017 7C24.1314 7 22.0769 8.16772 19.9991 10.1893C17.9224 8.17867 15.8667 7.02433 14.2976 7.02433C13.8192 7.02433 13.3841 7.13745 13.0072 7.36248C11.4031 8.32706 11.0437 11.3327 11.8721 15.1047C8.32074 16.2481 6.01074 18.0763 6.01074 20.003C6.01074 21.9371 8.33241 23.7702 11.8942 24.905C11.0729 28.6916 11.4392 31.7021 13.0469 32.6655C13.4202 32.893 13.8519 33 14.3326 33C15.9017 33 17.9574 31.8323 20.0352 29.8082C22.1119 31.8201 24.1676 32.9745 25.7367 32.9745C26.2151 32.9745 26.6502 32.865 27.0271 32.64C28.6301 31.6766 28.9906 28.6709 28.1622 24.8977C31.7007 23.7641 34.0107 21.9322 34.0107 20.003C34.0107 18.069 31.6891 16.2359 28.1272 15.0986C28.9486 11.3157 28.5822 8.30274 26.9746 7.33815C26.6036 7.11434 26.1719 7.00122 25.7006 7H25.7017ZM25.6959 8.32585V8.33315C25.9584 8.33315 26.1696 8.38667 26.3469 8.48763C27.1239 8.95228 27.4611 10.7197 27.1986 12.9931C27.1356 13.5526 27.0329 14.1426 26.9069 14.7447C25.7869 14.4576 24.5666 14.2374 23.2821 14.0951C22.5121 12.9943 21.7129 11.9944 20.9079 11.1186C22.7652 9.31841 24.5094 8.33071 25.6971 8.32706L25.6959 8.32585ZM14.2976 8.35018C15.4782 8.35018 17.2306 9.33301 19.0926 11.1235C18.2922 11.9993 17.4942 12.9931 16.7359 14.0939C15.4444 14.2362 14.2229 14.4564 13.1041 14.7483C12.9734 14.1523 12.8766 13.5757 12.8077 13.0211C12.5394 10.7489 12.8707 8.98269 13.6407 8.51195C13.8624 8.40248 14.1074 8.35747 14.2976 8.35139V8.35018ZM19.9932 12.0601C20.5241 12.6294 21.0549 13.2668 21.5799 13.9625C21.0666 13.9382 20.5416 13.9212 20.0107 13.9212C19.4741 13.9212 18.9432 13.9333 18.4241 13.9625C18.9374 13.2668 19.4682 12.6294 19.9932 12.0589V12.0601ZM20.0107 15.2543C20.8741 15.2543 21.7339 15.2957 22.5797 15.3674C23.0534 16.0754 23.5154 16.8307 23.9599 17.6299C24.3939 18.4084 24.7882 19.199 25.1476 19.997C24.7882 20.7937 24.3939 21.5904 23.9657 22.3689C23.5224 23.1717 23.0639 23.9356 22.5891 24.6435C21.7397 24.7201 20.8787 24.7627 20.0107 24.7627C19.1474 24.7627 18.2876 24.7201 17.4417 24.6496C16.9681 23.9417 16.5061 23.1851 16.0616 22.3871C15.6276 21.6087 15.2332 20.818 14.8739 20.0201C15.2274 19.2209 15.6276 18.423 16.0557 17.6433C16.4991 16.8405 16.9576 16.079 17.4324 15.3711C18.2817 15.2932 19.1427 15.2519 20.0107 15.2519V15.2543ZM15.7699 15.5633C15.4899 16.0218 15.2099 16.4914 14.9486 16.9743C14.6861 17.4487 14.4411 17.9255 14.2077 18.4023C13.8986 17.6044 13.6361 16.8088 13.4191 16.034C14.1657 15.8516 14.9532 15.6898 15.7699 15.5645V15.5633ZM24.2399 15.5633C25.0507 15.6886 25.8324 15.843 26.5802 16.034C26.3702 16.8028 26.1077 17.5934 25.8102 18.3853C25.5769 17.9109 25.3319 17.4328 25.0636 16.9572C24.8011 16.4804 24.5211 16.0158 24.2411 15.5633H24.2399ZM27.8134 16.3843C28.3781 16.5668 28.9147 16.7699 29.4176 16.9901C31.4382 17.8902 32.7449 19.0677 32.7449 20.0018C32.7391 20.936 31.4324 22.1183 29.4117 23.0124C28.9217 23.2313 28.3851 23.4284 27.8309 23.612C27.5042 22.4467 27.0772 21.2328 26.5476 19.9872C27.0726 18.7502 27.4926 17.5423 27.8134 16.3819V16.3843ZM12.1859 16.3892C12.5102 17.5569 12.9384 18.7696 13.4692 20.014C12.9442 21.251 12.5219 22.4589 12.2022 23.6193C11.6376 23.4369 11.1009 23.2325 10.6039 23.0111C8.58324 22.1147 7.27658 20.936 7.27658 20.0018C7.27658 19.0677 8.58324 17.8829 10.6039 16.9901C11.0939 16.7711 11.6306 16.5741 12.1859 16.3892V16.3892ZM25.8102 21.5953C26.1194 22.3944 26.3819 23.1912 26.5989 23.9648C25.8522 24.1557 25.0636 24.3175 24.2469 24.4392C24.5269 23.983 24.8069 23.5123 25.0694 23.0306C25.3319 22.5562 25.5769 22.0721 25.8114 21.5953H25.8102ZM14.2077 21.6196C14.4411 22.0964 14.6861 22.572 14.9544 23.0488C15.2227 23.5232 15.4969 23.9879 15.7769 24.4392C14.9661 24.3151 14.1844 24.1594 13.4366 23.9696C13.6466 23.2033 13.9102 22.4102 14.2066 21.6184L14.2077 21.6196ZM26.9174 25.2529C27.0481 25.8526 27.1507 26.4304 27.2137 26.9838C27.4821 29.256 27.1507 31.0222 26.3807 31.4941C26.2092 31.6036 25.9864 31.6498 25.7239 31.6498C24.5432 31.6498 22.7909 30.6682 20.9289 28.8765C21.7292 28.0007 22.5272 27.0081 23.2856 25.9085C24.5771 25.765 25.7986 25.5436 26.9174 25.2517V25.2529ZM13.1157 25.2651C14.2357 25.5497 15.4561 25.7699 16.7406 25.9122C17.5106 27.013 18.3097 28.0129 19.1147 28.8874C17.2539 30.6913 15.5074 31.679 14.3197 31.679C14.0631 31.6729 13.8461 31.6182 13.6746 31.5185C12.8976 31.0562 12.5604 29.2876 12.8229 27.0142C12.8859 26.4547 12.9886 25.866 13.1146 25.2651H13.1157ZM18.4357 26.0436C18.9491 26.0679 19.4741 26.0849 20.0049 26.0849C20.5416 26.0849 21.0724 26.0727 21.5916 26.0436C21.0782 26.7393 20.5474 27.3755 20.0224 27.9472C19.4916 27.3755 18.9607 26.7393 18.4357 26.0436Z" fill="#61DAFB"/>
</g>
<rect x="1.06074" y="1.04988" width="37.9" height="37.9" rx="6.95" stroke="white" stroke-opacity="0.15" stroke-width="2.1"/>
<defs>
<filter id="filter0_d_2_2018" x="2.01074" y="1.99988" width="36" height="36" filterUnits="userSpaceOnUse" color-interpolation-filters="sRGB">
<feFlood flood-opacity="0" result="BackgroundImageFix"/>
<feColorMatrix in="SourceAlpha" type="matrix" values="0 0 0 0 0 0 0 0 0 0 0 0 0 0 0 0 0 0 127 0" result="hardAlpha"/>
<feOffset/>
<feGaussianBlur stdDeviation="2"/>
<feComposite in2="hardAlpha" operator="out"/>
<feColorMatrix type="matrix" values="0 0 0 0 0 0 0 0 0 0 0 0 0 0 0 0 0 0 0.25 0"/>
<feBlend mode="normal" in2="BackgroundImageFix" result="effect1_dropShadow_2_2018"/>
<feBlend mode="normal" in="SourceGraphic" in2="effect1_dropShadow_2_2018" result="shape"/>
</filter>
<linearGradient id="paint0_linear_2_2018" x1="20.0107" y1="-0.00012207" x2="20.0107" y2="39.9999" gradientUnits="userSpaceOnUse">
<stop stop-color="#0F343E"/>
<stop offset="1" stop-color="#072027"/>
</linearGradient>
</defs>
</svg>
