<svg width="41" height="40" viewBox="0 0 41 40" fill="none" xmlns="http://www.w3.org/2000/svg">
<g clip-path="url(#clip0_2_3759)">
<rect x="0.0107422" y="-0.00012207" width="40" height="40" rx="8" fill="url(#paint0_linear_2_3759)"/>
<g filter="url(#filter0_d_2_3759)">
<g clip-path="url(#clip1_2_3759)">
<path fill-rule="evenodd" clip-rule="evenodd" d="M20.0108 5.9998C27.7428 5.9998 34.0108 12.2679 34.0108 19.9999C34.0108 27.7319 27.7428 33.9999 20.0108 33.9999C12.2788 33.9999 6.01074 27.7319 6.01074 19.9999C6.01074 12.2679 12.2788 5.9998 20.0108 5.9998Z" fill="#CD6699"/>
<path d="M17.2286 24.6633C17.4323 25.4167 17.4099 26.1194 17.1995 26.7556C17.1762 26.8263 17.1504 26.8962 17.1225 26.9653C17.0945 27.0343 17.0643 27.1025 17.0318 27.1699C16.8696 27.5065 16.6518 27.8216 16.3852 28.1125C15.5717 28.9999 14.4352 29.3355 13.9479 29.0527C13.4217 28.7477 13.6853 27.4965 14.6284 26.4996C15.643 25.427 17.1028 24.7374 17.1028 24.7374L17.1005 24.7331C17.1426 24.7105 17.1853 24.6872 17.2286 24.6633ZM28.7926 11.992C28.1586 9.50553 24.0358 8.68816 20.1338 10.0744C17.8116 10.8994 15.2977 12.1942 13.4902 13.8849C11.341 15.8952 10.9982 17.6448 11.1395 18.3759C11.6378 20.9556 15.1725 22.6418 16.6255 23.8928V23.9004C16.1971 24.1113 13.0611 25.6983 12.3272 27.3208C11.5529 29.0325 12.4505 30.2608 13.0447 30.4261C14.886 30.9384 16.7755 30.017 17.7909 28.5024C18.7708 27.0407 18.6892 25.1533 18.2634 24.2144C18.8508 24.0594 19.5356 23.99 20.406 24.0917C22.8618 24.3785 23.3437 25.912 23.2516 26.5536C23.1595 27.1954 22.6444 27.5483 22.4721 27.6548C22.2999 27.7614 22.2473 27.7982 22.2618 27.8774C22.2827 27.9926 22.3624 27.9883 22.5093 27.9634C22.7114 27.9294 23.7989 27.4414 23.8453 26.2568C23.9045 24.7528 22.4632 23.0703 19.9111 23.1143C18.8601 23.1324 18.1992 23.2324 17.7218 23.4101C17.6865 23.3698 17.6506 23.3298 17.6135 23.2903C16.0357 21.6069 13.119 20.4162 13.2427 18.1532C13.2877 17.3305 13.5736 15.1641 18.8471 12.5363C23.167 10.3838 26.6253 10.9762 27.223 12.289C28.0766 14.1645 25.3747 17.6504 20.8884 18.1532C19.1792 18.3448 18.2793 17.6823 18.0554 17.4356C17.8197 17.1759 17.7846 17.1642 17.6966 17.2129C17.5532 17.2923 17.6441 17.5217 17.6966 17.6584C17.8305 18.0069 18.3802 18.6251 19.3173 18.9326C20.1416 19.2031 22.1484 19.3518 24.5754 18.413C27.2935 17.3616 29.416 14.4368 28.7926 11.992Z" fill="white"/>
</g>
</g>
</g>
<rect x="1.06074" y="1.04988" width="37.9" height="37.9" rx="6.95" stroke="white" stroke-opacity="0.15" stroke-width="2.1"/>
<defs>
<filter id="filter0_d_2_3759" x="0.296457" y="0.285593" width="39.4286" height="39.4286" filterUnits="userSpaceOnUse" color-interpolation-filters="sRGB">
<feFlood flood-opacity="0" result="BackgroundImageFix"/>
<feColorMatrix in="SourceAlpha" type="matrix" values="0 0 0 0 0 0 0 0 0 0 0 0 0 0 0 0 0 0 127 0" result="hardAlpha"/>
<feOffset/>
<feGaussianBlur stdDeviation="2.85714"/>
<feComposite in2="hardAlpha" operator="out"/>
<feColorMatrix type="matrix" values="0 0 0 0 0 0 0 0 0 0 0 0 0 0 0 0 0 0 0.25 0"/>
<feBlend mode="normal" in2="BackgroundImageFix" result="effect1_dropShadow_2_3759"/>
<feBlend mode="normal" in="SourceGraphic" in2="effect1_dropShadow_2_3759" result="shape"/>
</filter>
<linearGradient id="paint0_linear_2_3759" x1="20.0107" y1="-0.00012207" x2="20.0107" y2="39.9999" gradientUnits="userSpaceOnUse">
<stop stop-color="#442132"/>
<stop offset="1" stop-color="#26121C"/>
</linearGradient>
<clipPath id="clip0_2_3759">
<rect x="0.0107422" y="-0.00012207" width="40" height="40" rx="8" fill="white"/>
</clipPath>
<clipPath id="clip1_2_3759">
<rect width="28" height="28" fill="white" transform="translate(6.01074 5.99988)"/>
</clipPath>
</defs>
</svg>
