<svg width="41" height="40" viewBox="0 0 41 40" fill="none" xmlns="http://www.w3.org/2000/svg">
<rect x="0.0107422" y="-6.10352e-05" width="40" height="40" rx="8" fill="url(#paint0_linear_2_1965)"/>
<g filter="url(#filter0_d_2_1965)">
<path d="M7.32324 5.99994C6.59641 5.99994 6.01074 6.58561 6.01074 7.31244V32.6874C6.01074 33.4143 6.59641 33.9999 7.32324 33.9999H32.6982C33.4251 33.9999 34.0107 33.4143 34.0107 32.6874V7.31244C34.0107 6.58561 33.4251 5.99994 32.6982 5.99994H7.32324ZM27.5801 17.3749C28.2941 17.3749 28.9264 17.4181 29.4782 17.5044C29.9987 17.5824 30.5095 17.7154 31.0019 17.9011V20.7688C30.7655 20.6053 30.5144 20.4643 30.2517 20.3476C29.9809 20.2257 29.7013 20.1243 29.4152 20.0443C28.8734 19.8933 28.314 19.8148 27.7516 19.8109C27.4016 19.8109 27.0831 19.8436 26.7961 19.9113C26.5403 19.966 26.2949 20.0613 26.0692 20.1936C25.8709 20.3149 25.7192 20.4608 25.6107 20.6299C25.5016 20.8004 25.4448 20.9992 25.4474 21.2016C25.4474 21.4303 25.5092 21.6368 25.6294 21.8188C25.7507 22.0008 25.9234 22.1734 26.1462 22.3368C26.3691 22.5001 26.6397 22.6588 26.9582 22.8151C27.2767 22.9726 27.6372 23.1348 28.0386 23.3004C28.5869 23.5303 29.0792 23.7753 29.5156 24.0331C29.9519 24.2921 30.3264 24.5849 30.6391 24.9116C30.9517 25.2371 31.1897 25.6093 31.3554 26.0281C31.5211 26.4469 31.6051 26.9334 31.6051 27.4899C31.6051 28.2564 31.4592 28.9016 31.1699 29.4219C30.8872 29.9351 30.4815 30.3701 29.9892 30.6878C29.4586 31.0242 28.8705 31.26 28.2544 31.3831C27.5941 31.5231 26.8976 31.5931 26.1661 31.5931C25.4461 31.5963 24.7275 31.5322 24.0194 31.4018C23.4068 31.2958 22.8127 31.1021 22.2554 30.8266V27.7583C23.3098 28.6556 24.6474 29.1514 26.0319 29.1583C26.4204 29.1583 26.7599 29.1233 27.0492 29.0533C27.3397 28.9833 27.5812 28.8853 27.7761 28.7616C27.9697 28.6356 28.1144 28.4886 28.2112 28.3183C28.3183 28.12 28.367 27.8954 28.3517 27.6705C28.3364 27.4457 28.2578 27.2298 28.1249 27.0478C27.9516 26.8184 27.7396 26.621 27.4984 26.4644C27.1993 26.2662 26.8844 26.0929 26.5569 25.9464C26.1687 25.7691 25.777 25.5996 25.3821 25.4378C24.3111 24.9909 23.5131 24.4438 22.9869 23.7986C22.4619 23.1534 22.1982 22.3729 22.1982 21.4594C22.1982 20.7431 22.3417 20.1283 22.6287 19.6138C22.9157 19.0993 23.3054 18.6758 23.8001 18.3433C24.3233 17.9981 24.9041 17.7496 25.5151 17.6094C26.1917 17.4499 26.8849 17.3712 27.5801 17.3749ZM9.94824 17.5943H21.1051V20.1213H17.1011V31.3749H13.9312V20.1213H9.94824V17.5943Z" fill="#3178C6"/>
</g>
<rect x="1.06074" y="1.04994" width="37.9" height="37.9" rx="6.95" stroke="white" stroke-opacity="0.15" stroke-width="2.1"/>
<defs>
<filter id="filter0_d_2_1965" x="2.01074" y="1.99994" width="36" height="36" filterUnits="userSpaceOnUse" color-interpolation-filters="sRGB">
<feFlood flood-opacity="0" result="BackgroundImageFix"/>
<feColorMatrix in="SourceAlpha" type="matrix" values="0 0 0 0 0 0 0 0 0 0 0 0 0 0 0 0 0 0 127 0" result="hardAlpha"/>
<feOffset/>
<feGaussianBlur stdDeviation="2"/>
<feComposite in2="hardAlpha" operator="out"/>
<feColorMatrix type="matrix" values="0 0 0 0 0 0 0 0 0 0 0 0 0 0 0 0 0 0 0.25 0"/>
<feBlend mode="normal" in2="BackgroundImageFix" result="effect1_dropShadow_2_1965"/>
<feBlend mode="normal" in="SourceGraphic" in2="effect1_dropShadow_2_1965" result="shape"/>
</filter>
<linearGradient id="paint0_linear_2_1965" x1="20.0107" y1="-6.10351e-05" x2="20.0107" y2="39.9999" gradientUnits="userSpaceOnUse">
<stop stop-color="#0C1F34"/>
<stop offset="1" stop-color="#051220"/>
</linearGradient>
</defs>
</svg>
