<svg width="41" height="40" viewBox="0 0 41 40" fill="none" xmlns="http://www.w3.org/2000/svg">
<rect x="0.0107422" y="-3.05176e-05" width="40" height="40" rx="8" fill="url(#paint0_linear_2_3104)"/>
<g filter="url(#filter0_d_2_3104)">
<path d="M24.8075 27.0114C24.0456 27.0114 23.4106 26.7511 22.9027 26.3605C22.2678 25.8398 21.7598 25.0586 21.7598 24.1473C21.7598 23.6266 22.2678 23.6266 22.2678 23.6266H23.4106C23.7916 23.6266 23.9186 24.1473 23.9186 24.2775C24.0456 25.5794 24.8075 26.1001 25.3154 26.3605C25.5694 26.4907 25.4424 27.0114 24.8075 27.0114ZM18.2043 20.6323L15.9185 20.3719C14.9026 19.9814 14.9026 19.0701 15.0296 18.8097C15.1566 17.8984 15.5376 16.9871 15.9185 16.206C16.5534 15.2947 17.4423 14.3834 18.5852 13.7325C20.7439 12.4306 23.7916 11.6495 27.0932 11.6495C29.5059 11.6495 32.0456 12.04 32.0456 12.04C32.2996 12.04 32.4266 12.3004 32.4266 12.5608C32.4266 12.8212 32.2996 13.0815 32.0456 13.0815H31.0297C27.6011 13.0815 25.1884 13.6023 23.4106 14.6438C21.6328 15.6852 20.363 17.2475 19.6011 19.4606C19.4741 19.5908 19.2201 20.7625 18.2043 20.6323ZM21.1249 30.1359C19.4741 30.1359 17.8233 29.3548 16.6804 28.0529C15.6646 26.8812 15.0296 25.7096 14.9026 24.2775C14.7757 23.236 15.2836 22.9757 15.7915 22.9757L18.0773 23.236C18.5852 23.3662 18.9662 23.6266 19.0931 24.2775C19.6011 27.5322 21.5059 28.834 22.7757 29.2246C23.0297 29.2246 23.1567 29.3548 23.1567 29.6151C23.1567 29.8755 23.0297 30.0057 22.7757 30.1359C22.1408 30.1359 21.6328 30.1359 21.1249 30.1359ZM16.2995 33C15.4106 33 14.5217 32.8698 13.6328 32.7396C12.236 32.4792 11.0931 32.0887 10.0772 31.3076C7.66451 29.7453 6.26767 26.8812 6.0137 23.6266C6.0137 22.8455 5.88672 21.2832 7.66451 21.4134C8.42642 21.4134 9.56928 21.804 10.4582 22.0644C11.4741 22.3247 11.982 23.236 11.982 24.0171C11.982 28.7038 16.0455 31.8283 17.8233 31.8283C18.5852 31.8283 18.3312 32.7396 17.9503 32.7396C17.4423 33 16.6804 33 16.2995 33ZM10.0772 19.3305C9.31531 19.2003 8.68039 18.9399 8.04546 18.6795C6.0137 18.1588 6.39466 15.9456 6.52164 15.4249C8.42642 9.69669 14.3947 7.7439 19.2201 7.22316C23.7916 6.70242 28.49 7.09297 32.9345 8.39483C33.3155 8.52502 34.4583 8.78539 33.8234 9.43632C33.4424 9.82688 31.7916 9.43632 31.4107 9.43632C28.871 9.17595 26.2043 9.17595 23.6646 9.56651C20.8709 9.95707 18.0773 10.8684 15.9185 12.8212C14.6487 13.7325 12.7439 16.9871 12.7439 17.3777C12.6169 17.7682 12.109 19.5908 10.0772 19.3305ZM21.6328 20.3719C22.0138 18.5493 23.7916 15.6852 29.125 15.9456C30.3948 15.9456 29.7599 16.8569 29.125 16.8569C26.0773 16.7267 24.6805 18.8097 23.9186 20.7625C23.6646 21.4134 23.1567 21.5436 22.3948 21.4134C22.0138 21.2832 21.5059 21.2832 21.6328 20.3719Z" fill="#F1F1F1"/>
</g>
<rect x="1.06074" y="1.04997" width="37.9" height="37.9" rx="6.95" stroke="white" stroke-opacity="0.15" stroke-width="2.1"/>
<defs>
<filter id="filter0_d_2_3104" x="2.01074" y="1.99997" width="36.001" height="36" filterUnits="userSpaceOnUse" color-interpolation-filters="sRGB">
<feFlood flood-opacity="0" result="BackgroundImageFix"/>
<feColorMatrix in="SourceAlpha" type="matrix" values="0 0 0 0 0 0 0 0 0 0 0 0 0 0 0 0 0 0 127 0" result="hardAlpha"/>
<feOffset/>
<feGaussianBlur stdDeviation="2"/>
<feComposite in2="hardAlpha" operator="out"/>
<feColorMatrix type="matrix" values="0 0 0 0 0 0 0 0 0 0 0 0 0 0 0 0 0 0 0.25 0"/>
<feBlend mode="normal" in2="BackgroundImageFix" result="effect1_dropShadow_2_3104"/>
<feBlend mode="normal" in="SourceGraphic" in2="effect1_dropShadow_2_3104" result="shape"/>
</filter>
<linearGradient id="paint0_linear_2_3104" x1="20.0107" y1="-3.05176e-05" x2="20.0107" y2="40" gradientUnits="userSpaceOnUse">
<stop stop-color="#273227"/>
<stop offset="1" stop-color="#181F18"/>
</linearGradient>
</defs>
</svg>
