<svg width="41" height="40" viewBox="0 0 41 40" fill="none" xmlns="http://www.w3.org/2000/svg">
<rect x="0.0107422" y="-2.28882e-05" width="40" height="40" rx="8" fill="url(#paint0_linear_2_3095)"/>
<g filter="url(#filter0_d_2_3095)">
<path d="M23.9495 25.167C23.5411 25.165 23.1341 25.0848 22.7505 24.9236C21.8863 24.5605 21.1253 23.8747 20.5062 22.9468C20.6828 22.6442 20.8419 22.3308 20.9839 22.0122C21.6068 20.6152 21.903 19.0856 21.9257 17.5672C21.9225 17.5371 21.9199 17.5068 21.9179 17.4765L21.9162 17.3986C21.9148 16.8033 21.8208 16.1999 21.6084 15.6381C21.3638 14.9909 20.9737 14.3432 20.3549 14.0905C20.2425 14.0447 20.1242 14.0255 20.0065 14.0282C19.2281 12.625 19.2033 11.2804 20.0065 9.99998C20.0208 9.99998 20.0357 10 20.05 10.0001C20.9975 10.0102 21.9363 10.2922 22.7396 10.7848C24.9269 12.1261 26.0175 14.7399 26.0416 17.3061C26.0418 17.3362 26.0415 17.3663 26.0406 17.3963H26.0528C26.0497 20.1085 25.3734 22.8588 23.9495 25.167H23.9495ZM19.0995 29.4241C17.0566 30.2345 14.6838 30.1911 12.6588 29.2843C10.3291 28.2414 8.54896 26.2142 7.45261 23.9003C5.57731 19.9424 5.5344 15.211 7.31288 11.1924C8.64853 11.7078 9.8362 10.887 9.8362 10.887C9.8362 10.887 9.83345 12.1499 11.1014 12.7833C9.80044 15.7231 9.8318 19.2158 11.1355 22.0806C11.7632 23.459 12.722 24.7425 14.0511 25.4684C14.5254 25.7275 15.0467 25.8947 15.5829 25.9575C15.5849 25.9605 15.5869 25.9635 15.5888 25.9664C16.5357 27.3914 17.7286 28.579 19.0995 29.4241H19.0995Z" fill="url(#paint1_linear_2_3095)"/>
<path opacity="0.3" fill-rule="evenodd" clip-rule="evenodd" d="M23.9487 25.1679C23.5405 25.1659 23.1337 25.0857 22.7503 24.9246C21.8859 24.5614 21.1248 23.8754 20.5057 22.9473C20.6824 22.6445 20.8416 22.3309 20.9837 22.0122C21.1715 21.591 21.3296 21.1578 21.4594 20.7164C21.7604 19.6939 25.7555 20.9917 25.146 22.6763C24.8316 23.5454 24.4334 24.3823 23.9487 25.1679ZM19.0983 29.4245C17.0556 30.2345 14.6833 30.1909 12.6586 29.2843C10.3289 28.2414 12.7218 24.7425 14.0509 25.4684C14.525 25.7273 15.046 25.8946 15.582 25.9574C15.5842 25.9607 15.5864 25.9641 15.5886 25.9674C16.5353 27.3921 17.7278 28.5794 19.0983 29.4245V29.4245Z" fill="url(#paint2_linear_2_3095)"/>
<path d="M13.983 17.3963C13.982 17.3663 13.9817 17.3362 13.982 17.3061C14.006 14.7399 15.0966 12.1261 17.284 10.7848C18.0873 10.2922 19.026 10.0102 19.9736 10.0001C19.9879 10 20.0027 9.99998 20.017 9.99998V14.0282C19.8993 14.0255 19.7811 14.0447 19.6686 14.0905C19.0498 14.3432 18.6598 14.9909 18.4151 15.6381C18.2027 16.1999 18.1087 16.8033 18.1073 17.3986L18.1056 17.4765C18.1037 17.5068 18.1011 17.5371 18.0978 17.5672C18.1205 19.0856 18.4167 20.6152 19.0396 22.0122C19.7372 23.5767 20.8461 25.0159 22.4116 25.6737C23.5927 26.1701 24.902 26.053 25.9725 25.4684C27.3015 24.7425 28.2603 23.459 28.888 22.0806C30.1917 19.2158 30.2231 15.7231 28.9221 12.7833C30.1901 12.1499 30.1873 10.887 30.1873 10.887C30.1873 10.887 31.375 11.7078 32.7107 11.1924C34.4891 15.211 34.4462 19.9424 32.5709 23.9003C31.4746 26.2142 29.6945 28.2414 27.3648 29.2843C25.2909 30.2129 22.8523 30.2361 20.7767 29.364C18.9116 28.5799 17.3947 27.1674 16.3032 25.5249C14.7226 23.1461 13.9741 20.2501 13.9707 17.3963H13.983Z" fill="url(#paint3_linear_2_3095)"/>
</g>
<rect x="1.06074" y="1.04998" width="37.9" height="37.9" rx="6.95" stroke="white" stroke-opacity="0.15" stroke-width="2.1"/>
<defs>
<filter id="filter0_d_2_3095" x="2.01074" y="1.99998" width="36.001" height="36" filterUnits="userSpaceOnUse" color-interpolation-filters="sRGB">
<feFlood flood-opacity="0" result="BackgroundImageFix"/>
<feColorMatrix in="SourceAlpha" type="matrix" values="0 0 0 0 0 0 0 0 0 0 0 0 0 0 0 0 0 0 127 0" result="hardAlpha"/>
<feOffset/>
<feGaussianBlur stdDeviation="2"/>
<feComposite in2="hardAlpha" operator="out"/>
<feColorMatrix type="matrix" values="0 0 0 0 0 0 0 0 0 0 0 0 0 0 0 0 0 0 0.25 0"/>
<feBlend mode="normal" in2="BackgroundImageFix" result="effect1_dropShadow_2_3095"/>
<feBlend mode="normal" in="SourceGraphic" in2="effect1_dropShadow_2_3095" result="shape"/>
</filter>
<linearGradient id="paint0_linear_2_3095" x1="20.0107" y1="-2.28882e-05" x2="20.0107" y2="40" gradientUnits="userSpaceOnUse">
<stop stop-color="#1A2C32"/>
<stop offset="1" stop-color="#0E1C0F"/>
</linearGradient>
<linearGradient id="paint1_linear_2_3095" x1="6.01165" y1="17.6113" x2="19.6918" y2="17.6113" gradientUnits="userSpaceOnUse">
<stop stop-color="#00D2E6"/>
<stop offset="1" stop-color="#2ECCAA"/>
</linearGradient>
<linearGradient id="paint2_linear_2_3095" x1="14.0177" y1="26.1146" x2="21.1202" y2="21.4208" gradientUnits="userSpaceOnUse">
<stop stop-opacity="0"/>
<stop offset="0.514"/>
<stop offset="1" stop-opacity="0"/>
</linearGradient>
<linearGradient id="paint3_linear_2_3095" x1="34.0118" y1="17.9437" x2="20.3549" y2="17.9437" gradientUnits="userSpaceOnUse">
<stop stop-color="#1FA385"/>
<stop offset="1" stop-color="#2ECCAA"/>
</linearGradient>
</defs>
</svg>
