<svg width="167" height="56" viewBox="0 0 167 56" fill="none" xmlns="http://www.w3.org/2000/svg">
<rect x="-0.000488281" y="-0.00012207" width="167" height="56" rx="8" fill="url(#paint0_linear_28_971)"/>
<g filter="url(#filter0_d_28_971)">
<path d="M22.5205 7.99997V11.2692H16.5235V14.1538H13.4282V17.423H16.5235V20.3077H19.6187V23.3846H25.8092V26.4615H38.1901V23.3846H44.3806V20.3077H47.2824V29.7307H44.3806V38.7692H41.0919V44.923H22.5205V48H41.0919V44.923H44.3806V38.7692H47.2824V29.7307H50.5711V14.1538H47.2824V17.423H44.3806V20.3077H38.1901V23.3846H25.8092V20.3077H19.6187V17.423H16.5235V14.1538H22.5205V11.2692H31.9997V7.99997H22.5205Z" fill="#353535"/>
<path d="M31.9996 7.99997V11.2692H41.0919V14.1538H47.2824V11.2692H41.0919V7.99997H31.9996Z" fill="#515151"/>
<path d="M22.5205 11.2692V14.1538H25.8092V11.2692H22.5205Z" fill="#A37B63"/>
<path d="M25.8091 11.2692V14.1538H28.9043V11.2692H25.8091Z" fill="#AB826B"/>
<path d="M28.9044 11.2692V14.1538H34.9014V11.2692H28.9044Z" fill="#ABA26B"/>
<path d="M34.9015 11.2692V14.1538H38.1902V11.2692H34.9015Z" fill="#AB826B"/>
<path d="M38.1901 11.2692V14.1538H41.0918V17.423H44.3805V14.1538H41.0918V11.2692H38.1901Z" fill="#BF967E"/>
<path d="M16.5234 14.1539V17.4231H19.6187V14.1539H16.5234Z" fill="#958C55"/>
<path d="M19.6188 14.1539V17.4231H22.5206V14.1539H19.6188Z" fill="#956C55"/>
<path d="M22.5205 14.1539V17.4231H25.8092V14.1539H22.5205Z" fill="#C33E1F"/>
<path d="M25.8091 14.1539V17.4231H28.9043V20.3077H31.9996V23.3846H38.19V20.3077H31.9996V17.4231H28.9043V14.1539H25.8091Z" fill="#E38C3F"/>
<path d="M28.9044 14.1539V17.4231H31.9997V20.3077H38.1901V17.4231H34.9014V14.1539H28.9044Z" fill="#E4D25C"/>
<path d="M34.9015 14.1539V17.4231H38.1902V14.1539H34.9015Z" fill="#E38C3F"/>
<path d="M38.1901 14.1539V17.4231H41.0918V20.3077H44.3805V17.4231H41.0918V14.1539H38.1901Z" fill="#CC4628"/>
<path d="M44.3806 14.1539V17.4231H47.2824V14.1539H44.3806Z" fill="#BFB67E"/>
<path d="M13.4283 17.423V29.7307H16.5236V38.7692H19.6188V44.923H22.5206V38.7692H19.6188V29.7307H16.5236V17.423H13.4283Z" fill="#515151"/>
<path d="M19.6188 17.4231V20.3077H22.5206V17.4231H19.6188Z" fill="#DC8638"/>
<path d="M22.5205 17.4231V20.3077H25.8092V23.3846H28.9044V17.4231H22.5205Z" fill="#E2CF5A"/>
<path d="M38.1901 17.4231V20.3077H41.0918V17.4231H38.1901Z" fill="#EA9346"/>
<path d="M16.5234 20.3076V23.3845H19.6187V26.4615H25.8092V23.3845H19.6187V20.3076H16.5234Z" fill="#E7E7E7"/>
<path d="M28.9044 20.3076V23.3845H31.9997V20.3076H28.9044Z" fill="#C54021"/>
<path d="M44.3806 20.3076V23.3845H47.2824V20.3076H44.3806Z" fill="#A9A9A9"/>
<path d="M16.5234 23.3846V29.7308H19.6187V38.7693H22.5205V42.0385H25.8092V44.9231H31.9996V32.6154H28.9044V29.7308H25.8092V32.6154H22.5205V26.4616H19.6187V23.3846H16.5234Z" fill="#D8D8D8"/>
<path d="M38.1901 23.3846V26.4616H41.0918V23.3846H38.1901Z" fill="#EAD762"/>
<path d="M41.092 23.3846V26.4616H44.3807V23.3846H41.092Z" fill="#CB4627"/>
<path d="M44.3807 23.3846V29.7308H41.092V38.7693H44.3807V29.7308H47.2825V23.3846H44.3807Z" fill="#727272"/>
<path d="M22.5205 26.4615V32.6154H25.8092V26.4615H22.5205Z" fill="white"/>
<path d="M25.8091 26.4615V29.7307H28.9043V26.4615H25.8091Z" fill="#D85334"/>
<path d="M28.9044 26.4615V29.7307H38.1901V26.4615H28.9044Z" fill="#CACACA"/>
<path d="M38.1901 26.4615V29.7307H41.0918V26.4615H38.1901Z" fill="#E99245"/>
<path d="M41.092 26.4615V29.7307H44.3807V26.4615H41.092Z" fill="#969696"/>
<path d="M28.9044 29.7307V32.6154H31.9997V42.0384H34.9014V32.6154H38.1901V29.7307H28.9044Z" fill="#A8A8A8"/>
<path d="M38.1901 29.7307V32.6154H41.0918V29.7307H38.1901Z" fill="#CB4627"/>
<path d="M25.8091 32.6153V38.7691H28.9043V32.6153H25.8091Z" fill="white"/>
<path d="M34.9014 32.6153V42.0383H31.9996V44.923H41.0919V38.7691H38.1901V35.8845H41.0919V32.6153H34.9014Z" fill="#969696"/>
<path d="M38.1901 35.8846V38.7693H41.0918V35.8846H38.1901Z" fill="#CB4627"/>
<path d="M22.5205 42.0384V44.923H25.8092V42.0384H22.5205Z" fill="#969696"/>
</g>
<g filter="url(#filter1_d_28_971)">
<path d="M62.2609 24.4999H60.3972L64.5847 12.8635H66.6131L70.8006 24.4999H68.937L65.6472 14.9771H65.5563L62.2609 24.4999ZM62.5734 19.9431H68.6188V21.4203H62.5734V19.9431ZM78.7168 15.7726L75.5521 24.4999H73.7339L70.5634 15.7726H72.3873L74.5975 22.4885H74.6884L76.893 15.7726H78.7168ZM82.6032 24.6931C82.0502 24.6931 81.5502 24.5908 81.1032 24.3862C80.6562 24.1779 80.3021 23.8768 80.0407 23.4828C79.7831 23.0889 79.6543 22.6059 79.6543 22.034C79.6543 21.5415 79.749 21.1362 79.9384 20.8181C80.1278 20.4999 80.3835 20.248 80.7055 20.0624C81.0274 19.8768 81.3873 19.7366 81.785 19.6419C82.1827 19.5472 82.588 19.4753 83.0009 19.426C83.5237 19.3654 83.9479 19.3162 84.2737 19.2783C84.5994 19.2366 84.8362 19.1703 84.9839 19.0794C85.1316 18.9885 85.2055 18.8408 85.2055 18.6362V18.5965C85.2055 18.1003 85.0653 17.7158 84.785 17.4431C84.5085 17.1703 84.0956 17.034 83.5464 17.034C82.9744 17.034 82.5237 17.1609 82.1941 17.4146C81.8684 17.6646 81.643 17.9431 81.518 18.2499L79.9214 17.8862C80.1108 17.3559 80.3873 16.9279 80.7509 16.6021C81.1184 16.2726 81.5407 16.034 82.018 15.8862C82.4952 15.7347 82.9971 15.659 83.5237 15.659C83.8721 15.659 84.2415 15.7006 84.6316 15.784C85.0255 15.8635 85.393 16.0112 85.7339 16.2271C86.0786 16.4431 86.3608 16.7518 86.5805 17.1533C86.8002 17.551 86.91 18.0681 86.91 18.7044V24.4999H85.2509V23.3067H85.1827C85.0729 23.5264 84.9081 23.7423 84.6884 23.9544C84.4687 24.1665 84.1865 24.3427 83.8418 24.4828C83.4971 24.623 83.0843 24.6931 82.6032 24.6931ZM82.9725 23.3294C83.4422 23.3294 83.8437 23.2366 84.1771 23.051C84.5142 22.8654 84.7699 22.623 84.9441 22.3237C85.1221 22.0207 85.2112 21.6968 85.2112 21.3521V20.2271C85.1505 20.2878 85.0331 20.3446 84.8589 20.3976C84.6884 20.4468 84.4933 20.4904 84.2737 20.5283C84.054 20.5624 83.8399 20.5946 83.6316 20.6249C83.4233 20.6514 83.249 20.6741 83.1089 20.6931C82.7793 20.7347 82.4782 20.8048 82.2055 20.9033C81.9365 21.0018 81.7206 21.1438 81.5577 21.3294C81.3987 21.5112 81.3191 21.7537 81.3191 22.0567C81.3191 22.4771 81.4744 22.7953 81.785 23.0112C82.0956 23.2234 82.4915 23.3294 82.9725 23.3294ZM89.1728 24.4999V15.7726H90.8717V24.4999H89.1728ZM90.0308 14.426C89.7353 14.426 89.4815 14.3275 89.2694 14.1306C89.0611 13.9298 88.9569 13.6912 88.9569 13.4146C88.9569 13.1343 89.0611 12.8957 89.2694 12.6987C89.4815 12.498 89.7353 12.3976 90.0308 12.3976C90.3262 12.3976 90.5781 12.498 90.7864 12.6987C90.9986 12.8957 91.1046 13.1343 91.1046 13.4146C91.1046 13.6912 90.9986 13.9298 90.7864 14.1306C90.5781 14.3275 90.3262 14.426 90.0308 14.426ZM94.856 12.8635V24.4999H93.1572V12.8635H94.856ZM99.6813 24.6931C99.1283 24.6931 98.6283 24.5908 98.1813 24.3862C97.7343 24.1779 97.3802 23.8768 97.1188 23.4828C96.8612 23.0889 96.7325 22.6059 96.7325 22.034C96.7325 21.5415 96.8272 21.1362 97.0165 20.8181C97.2059 20.4999 97.4616 20.248 97.7836 20.0624C98.1056 19.8768 98.4654 19.7366 98.8631 19.6419C99.2609 19.5472 99.6662 19.4753 100.079 19.426C100.602 19.3654 101.026 19.3162 101.352 19.2783C101.678 19.2366 101.914 19.1703 102.062 19.0794C102.21 18.9885 102.284 18.8408 102.284 18.6362V18.5965C102.284 18.1003 102.143 17.7158 101.863 17.4431C101.587 17.1703 101.174 17.034 100.624 17.034C100.053 17.034 99.6018 17.1609 99.2722 17.4146C98.9465 17.6646 98.7211 17.9431 98.5961 18.2499L96.9995 17.8862C97.1889 17.3559 97.4654 16.9279 97.829 16.6021C98.1965 16.2726 98.6188 16.034 99.0961 15.8862C99.5734 15.7347 100.075 15.659 100.602 15.659C100.95 15.659 101.32 15.7006 101.71 15.784C102.104 15.8635 102.471 16.0112 102.812 16.2271C103.157 16.4431 103.439 16.7518 103.659 17.1533C103.878 17.551 103.988 18.0681 103.988 18.7044V24.4999H102.329V23.3067H102.261C102.151 23.5264 101.986 23.7423 101.767 23.9544C101.547 24.1665 101.265 24.3427 100.92 24.4828C100.575 24.623 100.162 24.6931 99.6813 24.6931ZM100.051 23.3294C100.52 23.3294 100.922 23.2366 101.255 23.051C101.592 22.8654 101.848 22.623 102.022 22.3237C102.2 22.0207 102.289 21.6968 102.289 21.3521V20.2271C102.229 20.2878 102.111 20.3446 101.937 20.3976C101.767 20.4468 101.571 20.4904 101.352 20.5283C101.132 20.5624 100.918 20.5946 100.71 20.6249C100.501 20.6514 100.327 20.6741 100.187 20.6931C99.8575 20.7347 99.5563 20.8048 99.2836 20.9033C99.0147 21.0018 98.7987 21.1438 98.6359 21.3294C98.4768 21.5112 98.3972 21.7537 98.3972 22.0567C98.3972 22.4771 98.5525 22.7953 98.8631 23.0112C99.1737 23.2234 99.5696 23.3294 100.051 23.3294ZM106.387 24.4999V12.8635H108.086V17.1874H108.188C108.287 17.0056 108.429 16.7953 108.615 16.5567C108.8 16.3181 109.058 16.1097 109.387 15.9317C109.717 15.7499 110.152 15.659 110.694 15.659C111.399 15.659 112.027 15.837 112.58 16.1931C113.133 16.5491 113.567 17.0624 113.882 17.7328C114.2 18.4033 114.359 19.2101 114.359 20.1533C114.359 21.0965 114.202 21.9052 113.887 22.5794C113.573 23.2499 113.141 23.7669 112.592 24.1306C112.043 24.4904 111.416 24.6703 110.711 24.6703C110.181 24.6703 109.747 24.5813 109.41 24.4033C109.077 24.2253 108.815 24.0169 108.626 23.7783C108.437 23.5396 108.291 23.3275 108.188 23.1419H108.046V24.4999H106.387ZM108.052 20.1362C108.052 20.7499 108.141 21.2878 108.319 21.7499C108.497 22.212 108.755 22.5737 109.092 22.8351C109.429 23.0927 109.842 23.2215 110.33 23.2215C110.838 23.2215 111.262 23.087 111.603 22.8181C111.944 22.5453 112.202 22.176 112.376 21.7101C112.554 21.2442 112.643 20.7196 112.643 20.1362C112.643 19.5605 112.556 19.0434 112.382 18.5851C112.211 18.1268 111.954 17.765 111.609 17.4999C111.268 17.2347 110.842 17.1021 110.33 17.1021C109.838 17.1021 109.421 17.229 109.08 17.4828C108.743 17.7366 108.488 18.0908 108.313 18.5453C108.139 18.9999 108.052 19.5302 108.052 20.1362ZM117.965 12.8635V24.4999H116.267V12.8635H117.965ZM124.012 24.676C123.152 24.676 122.412 24.4923 121.791 24.1249C121.173 23.7537 120.696 23.2328 120.359 22.5624C120.026 21.8881 119.859 21.0984 119.859 20.1931C119.859 19.2991 120.026 18.5112 120.359 17.8294C120.696 17.1476 121.166 16.6154 121.768 16.2328C122.374 15.8503 123.082 15.659 123.893 15.659C124.385 15.659 124.863 15.7404 125.325 15.9033C125.787 16.0662 126.202 16.3218 126.569 16.6703C126.937 17.0188 127.226 17.4715 127.438 18.0283C127.651 18.5813 127.757 19.2537 127.757 20.0453V20.6476H120.819V19.3749H126.092C126.092 18.9279 126.001 18.5321 125.819 18.1874C125.637 17.8389 125.382 17.5643 125.052 17.3635C124.726 17.1628 124.344 17.0624 123.904 17.0624C123.427 17.0624 123.01 17.1798 122.654 17.4146C122.302 17.6457 122.029 17.9487 121.836 18.3237C121.647 18.695 121.552 19.0984 121.552 19.534V20.5283C121.552 21.1116 121.654 21.6078 121.859 22.0169C122.067 22.426 122.357 22.7385 122.728 22.9544C123.099 23.1665 123.533 23.2726 124.029 23.2726C124.351 23.2726 124.645 23.2271 124.91 23.1362C125.175 23.0415 125.404 22.9014 125.598 22.7158C125.791 22.5302 125.938 22.301 126.041 22.0283L127.649 22.3181C127.52 22.7915 127.289 23.2063 126.955 23.5624C126.626 23.9146 126.211 24.1893 125.711 24.3862C125.215 24.5794 124.649 24.676 124.012 24.676ZM138.029 15.7726V17.1362H133.098V15.7726H138.029ZM134.45 24.4999V14.7612C134.45 14.2158 134.569 13.7631 134.808 13.4033C135.046 13.0396 135.363 12.7688 135.757 12.5908C136.151 12.409 136.579 12.3181 137.041 12.3181C137.382 12.3181 137.673 12.3465 137.916 12.4033C138.158 12.4563 138.338 12.5056 138.455 12.551L138.058 13.926C137.978 13.9033 137.876 13.8768 137.751 13.8465C137.626 13.8124 137.474 13.7953 137.296 13.7953C136.883 13.7953 136.588 13.8976 136.41 14.1021C136.236 14.3067 136.149 14.6021 136.149 14.9885V24.4999H134.45ZM143.115 24.676C142.296 24.676 141.582 24.4885 140.972 24.1135C140.363 23.7385 139.889 23.2139 139.552 22.5396C139.215 21.8654 139.046 21.0775 139.046 20.176C139.046 19.2707 139.215 18.479 139.552 17.801C139.889 17.123 140.363 16.5965 140.972 16.2215C141.582 15.8465 142.296 15.659 143.115 15.659C143.933 15.659 144.647 15.8465 145.257 16.2215C145.866 16.5965 146.34 17.123 146.677 17.801C147.014 18.479 147.183 19.2707 147.183 20.176C147.183 21.0775 147.014 21.8654 146.677 22.5396C146.34 23.2139 145.866 23.7385 145.257 24.1135C144.647 24.4885 143.933 24.676 143.115 24.676ZM143.12 23.2499C143.651 23.2499 144.09 23.1097 144.438 22.8294C144.787 22.5491 145.044 22.176 145.211 21.7101C145.382 21.2442 145.467 20.7309 145.467 20.1703C145.467 19.6135 145.382 19.1021 145.211 18.6362C145.044 18.1665 144.787 17.7896 144.438 17.5056C144.09 17.2215 143.651 17.0794 143.12 17.0794C142.586 17.0794 142.143 17.2215 141.791 17.5056C141.442 17.7896 141.183 18.1665 141.012 18.6362C140.846 19.1021 140.762 19.6135 140.762 20.1703C140.762 20.7309 140.846 21.2442 141.012 21.7101C141.183 22.176 141.442 22.5491 141.791 22.8294C142.143 23.1097 142.586 23.2499 143.12 23.2499ZM149.079 24.4999V15.7726H150.721V17.159H150.812C150.971 16.6893 151.251 16.32 151.653 16.051C152.058 15.7783 152.517 15.6419 153.028 15.6419C153.134 15.6419 153.259 15.6457 153.403 15.6533C153.551 15.6609 153.666 15.6703 153.749 15.6817V17.3067C153.681 17.2878 153.56 17.2669 153.386 17.2442C153.212 17.2177 153.037 17.2044 152.863 17.2044C152.462 17.2044 152.104 17.2896 151.789 17.4601C151.479 17.6268 151.232 17.8597 151.051 18.159C150.869 18.4544 150.778 18.7915 150.778 19.1703V24.4999H149.079Z" fill="#E8E8E8"/>
<path d="M60.9352 43.4999V31.1362H66.0908C67.0164 31.1362 67.7912 31.267 68.415 31.5286C69.0428 31.7902 69.5137 32.1565 69.8276 32.6274C70.1456 33.0982 70.3046 33.6436 70.3046 34.2634C70.3046 34.7343 70.2059 35.1548 70.0087 35.5251C69.8115 35.8913 69.5399 36.1952 69.1938 36.4367C68.8476 36.6781 68.4472 36.8472 67.9924 36.9438V37.0645C68.4915 37.0887 68.9523 37.2235 69.3749 37.469C69.8015 37.7145 70.1436 38.0566 70.4011 38.4953C70.6587 38.9299 70.7875 39.4451 70.7875 40.0407C70.7875 40.7048 70.6185 41.2984 70.2804 41.8216C69.9423 42.3408 69.4533 42.7513 68.8134 43.0531C68.1735 43.351 67.3968 43.4999 66.4832 43.4999H60.9352ZM63.9235 41.0911H65.7708C66.4188 41.0911 66.8957 40.9684 67.2016 40.7229C67.5115 40.4774 67.6664 40.1353 67.6664 39.6966C67.6664 39.3787 67.592 39.105 67.443 38.8756C67.2941 38.6422 67.0828 38.4631 66.8092 38.3383C66.5355 38.2095 66.2075 38.1451 65.8251 38.1451H63.9235V41.0911ZM63.9235 36.2193H65.5776C65.9036 36.2193 66.1934 36.165 66.447 36.0563C66.7005 35.9477 66.8977 35.7907 67.0386 35.5855C67.1835 35.3802 67.2559 35.1327 67.2559 34.8429C67.2559 34.4284 67.109 34.1024 66.8152 33.8649C66.5214 33.6275 66.125 33.5088 65.6259 33.5088H63.9235V36.2193ZM78.2069 39.4974V34.2271H81.1529V43.4999H78.3397V41.7733H78.2431C78.0379 42.3408 77.6877 42.7915 77.1927 43.1256C76.7017 43.4556 76.1081 43.6206 75.4118 43.6206C74.7799 43.6206 74.2245 43.4757 73.7456 43.186C73.2667 42.8962 72.8944 42.4917 72.6288 41.9725C72.3631 41.4493 72.2283 40.8376 72.2243 40.1373V34.2271H75.1764V39.5578C75.1804 40.0608 75.3132 40.4573 75.5748 40.747C75.8364 41.0368 76.1926 41.1817 76.6433 41.1817C76.9371 41.1817 77.2007 41.1173 77.4342 40.9885C77.6716 40.8557 77.8588 40.6645 77.9956 40.415C78.1365 40.1615 78.2069 39.8556 78.2069 39.4974ZM85.6942 41.067L85.7063 37.5475H86.1168L88.7247 34.2271H92.0692L88.1935 38.9842H87.4147L85.6942 41.067ZM83.0319 43.4999V31.1362H85.984V43.4999H83.0319ZM88.7911 43.4999L86.3643 39.6483L88.3082 37.5535L92.202 43.4999H88.7911ZM95.7879 41.067L95.8 37.5475H96.2105L98.8185 34.2271H102.163L98.2872 38.9842H97.5085L95.7879 41.067ZM93.1257 43.4999V31.1362H96.0777V43.4999H93.1257ZM98.8849 43.4999L96.458 39.6483L98.4019 37.5535L102.296 43.4999H98.8849ZM103.219 43.4999V34.2271H106.171V43.4999H103.219ZM104.698 33.1465C104.284 33.1465 103.928 33.0097 103.63 32.736C103.332 32.4583 103.183 32.1243 103.183 31.7339C103.183 31.3475 103.332 31.0175 103.63 30.7438C103.928 30.4661 104.284 30.3273 104.698 30.3273C105.117 30.3273 105.473 30.4661 105.767 30.7438C106.065 31.0175 106.214 31.3475 106.214 31.7339C106.214 32.1243 106.065 32.4583 105.767 32.736C105.473 33.0097 105.117 33.1465 104.698 33.1465ZM113.284 34.2271V36.4004H107.435V34.2271H113.284ZM108.66 32.0056H111.612V40.584C111.612 40.7651 111.64 40.912 111.697 41.0247C111.757 41.1334 111.844 41.2119 111.956 41.2602C112.069 41.3044 112.204 41.3266 112.361 41.3266C112.474 41.3266 112.592 41.3165 112.717 41.2964C112.846 41.2722 112.942 41.2521 113.007 41.236L113.454 43.3671C113.313 43.4073 113.113 43.4576 112.856 43.518C112.602 43.5784 112.298 43.6166 111.944 43.6327C111.252 43.6649 110.658 43.5844 110.163 43.3912C109.672 43.194 109.296 42.8881 109.034 42.4736C108.777 42.0591 108.652 41.5379 108.66 40.91V32.0056Z" fill="url(#paint1_linear_28_971)"/>
</g>
<rect x="1.04951" y="1.04988" width="164.9" height="53.9" rx="6.95" stroke="white" stroke-opacity="0.15" stroke-width="2.1"/>
<defs>
<filter id="filter0_d_28_971" x="6.28523" y="2.28559" width="51.4286" height="51.4287" filterUnits="userSpaceOnUse" color-interpolation-filters="sRGB">
<feFlood flood-opacity="0" result="BackgroundImageFix"/>
<feColorMatrix in="SourceAlpha" type="matrix" values="0 0 0 0 0 0 0 0 0 0 0 0 0 0 0 0 0 0 127 0" result="hardAlpha"/>
<feOffset/>
<feGaussianBlur stdDeviation="2.85714"/>
<feComposite in2="hardAlpha" operator="out"/>
<feColorMatrix type="matrix" values="0 0 0 0 0 0 0 0 0 0 0 0 0 0 0 0 0 0 0.25 0"/>
<feBlend mode="normal" in2="BackgroundImageFix" result="effect1_dropShadow_28_971"/>
<feBlend mode="normal" in="SourceGraphic" in2="effect1_dropShadow_28_971" result="shape"/>
</filter>
<filter id="filter1_d_28_971" x="54.3995" y="3.89988" width="106.2" height="48.2" filterUnits="userSpaceOnUse" color-interpolation-filters="sRGB">
<feFlood flood-opacity="0" result="BackgroundImageFix"/>
<feColorMatrix in="SourceAlpha" type="matrix" values="0 0 0 0 0 0 0 0 0 0 0 0 0 0 0 0 0 0 127 0" result="hardAlpha"/>
<feOffset/>
<feGaussianBlur stdDeviation="2.8"/>
<feComposite in2="hardAlpha" operator="out"/>
<feColorMatrix type="matrix" values="0 0 0 0 0 0 0 0 0 0 0 0 0 0 0 0 0 0 0.25 0"/>
<feBlend mode="normal" in2="BackgroundImageFix" result="effect1_dropShadow_28_971"/>
<feBlend mode="normal" in="SourceGraphic" in2="effect1_dropShadow_28_971" result="shape"/>
</filter>
<linearGradient id="paint0_linear_28_971" x1="83.4995" y1="-0.00012207" x2="83.4995" y2="55.9999" gradientUnits="userSpaceOnUse">
<stop stop-color="#342C18"/>
<stop offset="1" stop-color="#251A11"/>
</linearGradient>
<linearGradient id="paint1_linear_28_971" x1="86.9995" y1="28.4999" x2="86.9995" y2="46.4999" gradientUnits="userSpaceOnUse">
<stop stop-color="white"/>
<stop offset="1" stop-color="#B9B9B9"/>
</linearGradient>
</defs>
</svg>
