<svg width="182" height="56" viewBox="0 0 182 56" fill="none" xmlns="http://www.w3.org/2000/svg">
<rect x="-0.000488281" y="-0.000183105" width="182" height="56" rx="8" fill="url(#paint0_linear_31_6)"/>
<g filter="url(#filter0_d_31_6)">
<path fill-rule="evenodd" clip-rule="evenodd" d="M41.7076 25.2207C41.9344 25.5747 42.1608 25.9282 42.4202 26.257C42.4749 26.1274 42.5368 25.9959 42.5994 25.8628C42.7591 25.5235 42.9237 25.1737 42.987 24.8186C43.0335 24.5577 42.9769 24.3021 42.9201 24.0457C42.8747 23.8404 42.8291 23.6345 42.8363 23.4251C42.8579 22.8014 43.1219 22.1545 43.363 21.5638C43.3977 21.4787 43.4319 21.3949 43.4648 21.3124C43.5855 21.0104 43.7656 20.7071 44.0483 20.5307C44.1298 20.4798 44.2239 20.445 44.3182 20.4101C44.4563 20.3589 44.5949 20.3076 44.6951 20.2055C45.0014 19.8937 45.223 19.043 45.2593 18.6154C45.3228 17.8688 45.0333 17.0596 44.7566 16.2859C44.6227 15.9116 44.4918 15.5457 44.4052 15.1992C43.9084 13.2101 44.5892 10.8376 46.4869 9.84175C47.8998 9.10031 49.8699 9.36449 50.9439 10.5698C51.7002 11.4185 51.9995 12.4686 51.9995 13.5809C51.9995 14.3315 51.958 15.6235 51.308 16.1449C50.9023 16.4704 50.0846 16.4457 49.8145 15.9618C49.5723 15.528 49.6937 15.0603 49.8161 14.5885C49.9115 14.2205 50.0076 13.85 49.9325 13.491C49.7759 12.7432 49.0106 11.7706 48.1588 11.8865C47.4831 11.9785 46.9554 12.6273 46.7238 13.2213C46.4698 13.8727 46.6899 14.5571 46.8983 15.2051C46.9366 15.3244 46.9746 15.4424 47.0091 15.5588L47.017 15.5852C47.3699 16.7745 47.7048 17.9027 47.5607 19.1548C47.5253 19.4633 47.4143 19.7611 47.3038 20.0573C47.1876 20.3691 47.0721 20.679 47.046 20.9978C47.0314 21.1756 47.0999 21.3519 47.169 21.5298C47.2274 21.6803 47.2863 21.8319 47.2957 21.9867C47.3487 22.856 47.042 23.7258 46.6694 24.5039C46.5008 24.8561 46.2365 25.075 45.9689 25.2967C45.7697 25.4617 45.5686 25.6283 45.4039 25.8525C45.0957 26.2718 44.9029 26.7909 44.7138 27.3001C44.6176 27.5591 44.5223 27.8156 44.4134 28.055C44.3406 28.2149 44.2516 28.3758 44.1617 28.5385C43.9903 28.8485 43.8153 29.1651 43.7417 29.4934C43.6848 29.7476 43.7712 30.0645 43.8505 30.3558C43.8843 30.4798 43.9169 30.5992 43.9365 30.7071C44.0805 31.4982 44.2074 32.3297 44.2264 33.1344C44.3117 36.7355 43.4248 40.4136 40.959 43.1584C40.194 44.01 39.2931 44.7555 38.3084 45.3428C34.6482 47.5258 30.0656 46.5753 26.741 44.2484C25.5894 43.4424 24.6469 42.4672 23.6926 41.4798C23.3675 41.1434 23.041 40.8056 22.7045 40.4726C22.4097 40.181 22.0854 40.0868 21.7525 39.9902C21.5343 39.9269 21.3124 39.8625 21.0929 39.7407C20.499 39.4114 19.8367 38.5409 19.5273 37.9441C19.3886 37.6766 19.3998 37.4023 19.4107 37.1329C19.4201 36.9029 19.4293 36.6764 19.3449 36.4607C19.25 36.2183 19.0667 36.0009 18.884 35.7844C18.748 35.6231 18.6123 35.4623 18.514 35.292C18.0917 34.5604 17.9497 33.7408 17.8917 32.9097C17.8682 32.5744 17.8791 32.2107 17.8902 31.839C17.9263 30.6344 17.9649 29.3457 16.8454 28.6668C15.564 27.8896 14.0073 29.3845 14.1971 30.7071C14.2526 31.0934 14.4357 31.3976 14.6169 31.6986C14.8351 32.0611 15.0505 32.4189 15.0366 32.9097C15.0218 33.4357 14.6589 33.7539 14.1343 33.7551C13.4405 33.7567 13.0075 33.2759 12.661 32.7299C11.9659 31.6342 11.8481 30.1915 12.1701 28.954C12.9239 26.0566 16.7391 24.9619 18.9238 27.0254C20.1603 28.1933 20.2154 29.7193 20.2722 31.2917C20.2738 31.3365 20.2754 31.3814 20.2771 31.4263C20.2824 31.5717 20.2857 31.7124 20.2888 31.8491C20.3108 32.7991 20.3284 33.5602 21.0081 34.3921C21.2319 34.666 21.5225 34.7032 21.826 34.7421C22.0177 34.7667 22.2147 34.7919 22.4032 34.8779C22.8287 35.072 23.1614 35.493 23.4614 35.8726C23.5236 35.9514 23.5845 36.0283 23.6444 36.1011C23.8544 36.3561 24.0703 36.6288 24.1488 36.9552C24.1892 37.1233 24.2045 37.2911 24.2196 37.4568C24.2477 37.7649 24.2751 38.0658 24.4622 38.3487C25.0791 39.2815 25.9874 40.1172 26.8313 40.8418C28.1047 41.9351 29.4517 42.9128 31.0336 43.517C35.0733 45.06 39.0774 42.4308 40.7471 38.7532C41.6743 36.7111 41.7563 34.7416 41.7425 32.5501C41.4493 32.8001 41.1947 33.1036 40.9398 33.4075C40.7326 33.6545 40.5251 33.9018 40.2965 34.1209C39.1902 35.1813 37.9633 36.0406 36.5462 36.6344C35.2699 37.1691 33.8654 37.4359 32.4795 37.4034C31.442 37.3791 30.3579 37.1461 29.4069 36.7354C23.627 34.2391 22.4784 25.6316 27.5995 21.8093C28.3545 21.2458 29.1862 20.8014 30.0847 20.5177C31.1925 20.1679 32.3611 20.009 33.5187 20.1051C35.0176 20.2297 36.4584 20.6576 37.7662 21.4024C39.003 22.1067 40.121 23.0714 40.9993 24.1893C41.2575 24.5179 41.4827 24.8696 41.7076 25.2207ZM29.7234 23.546C30.496 23.0635 31.395 22.783 32.2989 22.681C35.2836 22.3442 38.0811 24.4095 39.6637 26.7513C40.0126 27.2677 40.3055 27.8104 40.5783 28.3695C40.597 28.4079 40.6175 28.448 40.6388 28.4895C40.7483 28.7029 40.8764 28.9527 40.8624 29.1787C40.8494 29.3887 40.7023 29.5926 40.5754 29.7684C40.5545 29.7974 40.5342 29.8256 40.5151 29.8529C40.2047 30.297 39.8875 30.7447 39.5347 31.1565C38.0458 32.8941 35.9699 34.5258 33.6093 34.7927C32.7472 34.8902 31.8653 34.8478 31.0337 34.5817C30.3117 34.3505 29.6222 33.9738 29.0456 33.4845C25.8555 30.7776 26.1375 25.7853 29.7234 23.546Z" fill="#FCFCFC"/>
</g>
<g filter="url(#filter1_d_31_6)">
<path d="M66.2609 24.4998H64.3972L68.5847 12.8635H70.6131L74.8006 24.4998H72.937L69.6472 14.9771H69.5563L66.2609 24.4998ZM66.5734 19.943H72.6188V21.4203H66.5734V19.943ZM82.7168 15.7725L79.5521 24.4998H77.7339L74.5634 15.7725H76.3873L78.5975 22.4884H78.6884L80.893 15.7725H82.7168ZM86.6032 24.693C86.0502 24.693 85.5502 24.5907 85.1032 24.3862C84.6562 24.1778 84.3021 23.8767 84.0407 23.4828C83.7831 23.0888 83.6543 22.6059 83.6543 22.0339C83.6543 21.5415 83.749 21.1362 83.9384 20.818C84.1278 20.4998 84.3835 20.2479 84.7055 20.0623C85.0274 19.8767 85.3873 19.7366 85.785 19.6419C86.1827 19.5472 86.588 19.4752 87.0009 19.4259C87.5237 19.3653 87.9479 19.3161 88.2737 19.2782C88.5994 19.2366 88.8362 19.1703 88.9839 19.0794C89.1316 18.9885 89.2055 18.8407 89.2055 18.6362V18.5964C89.2055 18.1002 89.0653 17.7157 88.785 17.443C88.5085 17.1703 88.0956 17.0339 87.5464 17.0339C86.9744 17.0339 86.5237 17.1608 86.1941 17.4146C85.8684 17.6646 85.643 17.943 85.518 18.2498L83.9214 17.8862C84.1108 17.3559 84.3873 16.9278 84.7509 16.6021C85.1184 16.2725 85.5407 16.0339 86.018 15.8862C86.4952 15.7347 86.9971 15.6589 87.5237 15.6589C87.8721 15.6589 88.2415 15.7006 88.6316 15.7839C89.0255 15.8635 89.393 16.0112 89.7339 16.2271C90.0786 16.443 90.3608 16.7517 90.5805 17.1532C90.8002 17.551 90.91 18.068 90.91 18.7044V24.4998H89.2509V23.3066H89.1827C89.0729 23.5263 88.9081 23.7422 88.6884 23.9544C88.4687 24.1665 88.1865 24.3426 87.8418 24.4828C87.4971 24.6229 87.0843 24.693 86.6032 24.693ZM86.9725 23.3294C87.4422 23.3294 87.8437 23.2366 88.1771 23.0509C88.5142 22.8653 88.7699 22.6229 88.9441 22.3237C89.1221 22.0206 89.2112 21.6968 89.2112 21.3521V20.2271C89.1505 20.2877 89.0331 20.3445 88.8589 20.3975C88.6884 20.4468 88.4933 20.4903 88.2737 20.5282C88.054 20.5623 87.8399 20.5945 87.6316 20.6248C87.4233 20.6513 87.249 20.6741 87.1089 20.693C86.7793 20.7347 86.4782 20.8047 86.2055 20.9032C85.9365 21.0017 85.7206 21.1438 85.5577 21.3294C85.3987 21.5112 85.3191 21.7536 85.3191 22.0566C85.3191 22.4771 85.4744 22.7953 85.785 23.0112C86.0956 23.2233 86.4915 23.3294 86.9725 23.3294ZM93.1728 24.4998V15.7725H94.8717V24.4998H93.1728ZM94.0308 14.426C93.7353 14.426 93.4815 14.3275 93.2694 14.1305C93.0611 13.9297 92.9569 13.6911 92.9569 13.4146C92.9569 13.1343 93.0611 12.8956 93.2694 12.6987C93.4815 12.4979 93.7353 12.3975 94.0308 12.3975C94.3262 12.3975 94.5781 12.4979 94.7864 12.6987C94.9986 12.8956 95.1046 13.1343 95.1046 13.4146C95.1046 13.6911 94.9986 13.9297 94.7864 14.1305C94.5781 14.3275 94.3262 14.426 94.0308 14.426ZM98.856 12.8635V24.4998H97.1572V12.8635H98.856ZM103.681 24.693C103.128 24.693 102.628 24.5907 102.181 24.3862C101.734 24.1778 101.38 23.8767 101.119 23.4828C100.861 23.0888 100.732 22.6059 100.732 22.0339C100.732 21.5415 100.827 21.1362 101.017 20.818C101.206 20.4998 101.462 20.2479 101.784 20.0623C102.106 19.8767 102.465 19.7366 102.863 19.6419C103.261 19.5472 103.666 19.4752 104.079 19.4259C104.602 19.3653 105.026 19.3161 105.352 19.2782C105.678 19.2366 105.914 19.1703 106.062 19.0794C106.21 18.9885 106.284 18.8407 106.284 18.6362V18.5964C106.284 18.1002 106.143 17.7157 105.863 17.443C105.587 17.1703 105.174 17.0339 104.624 17.0339C104.053 17.0339 103.602 17.1608 103.272 17.4146C102.946 17.6646 102.721 17.943 102.596 18.2498L101 17.8862C101.189 17.3559 101.465 16.9278 101.829 16.6021C102.196 16.2725 102.619 16.0339 103.096 15.8862C103.573 15.7347 104.075 15.6589 104.602 15.6589C104.95 15.6589 105.32 15.7006 105.71 15.7839C106.104 15.8635 106.471 16.0112 106.812 16.2271C107.157 16.443 107.439 16.7517 107.659 17.1532C107.878 17.551 107.988 18.068 107.988 18.7044V24.4998H106.329V23.3066H106.261C106.151 23.5263 105.986 23.7422 105.767 23.9544C105.547 24.1665 105.265 24.3426 104.92 24.4828C104.575 24.6229 104.162 24.693 103.681 24.693ZM104.051 23.3294C104.52 23.3294 104.922 23.2366 105.255 23.0509C105.592 22.8653 105.848 22.6229 106.022 22.3237C106.2 22.0206 106.289 21.6968 106.289 21.3521V20.2271C106.229 20.2877 106.111 20.3445 105.937 20.3975C105.767 20.4468 105.571 20.4903 105.352 20.5282C105.132 20.5623 104.918 20.5945 104.71 20.6248C104.501 20.6513 104.327 20.6741 104.187 20.693C103.857 20.7347 103.556 20.8047 103.284 20.9032C103.015 21.0017 102.799 21.1438 102.636 21.3294C102.477 21.5112 102.397 21.7536 102.397 22.0566C102.397 22.4771 102.553 22.7953 102.863 23.0112C103.174 23.2233 103.57 23.3294 104.051 23.3294ZM110.387 24.4998V12.8635H112.086V17.1873H112.188C112.287 17.0055 112.429 16.7953 112.615 16.5566C112.8 16.318 113.058 16.1097 113.387 15.9316C113.717 15.7498 114.152 15.6589 114.694 15.6589C115.399 15.6589 116.027 15.8369 116.58 16.193C117.133 16.5491 117.567 17.0623 117.882 17.7328C118.2 18.4032 118.359 19.21 118.359 20.1532C118.359 21.0964 118.202 21.9051 117.887 22.5794C117.573 23.2498 117.141 23.7669 116.592 24.1305C116.043 24.4903 115.416 24.6703 114.711 24.6703C114.181 24.6703 113.747 24.5813 113.41 24.4032C113.077 24.2252 112.815 24.0169 112.626 23.7782C112.437 23.5396 112.291 23.3275 112.188 23.1419H112.046V24.4998H110.387ZM112.052 20.1362C112.052 20.7498 112.141 21.2877 112.319 21.7498C112.497 22.2119 112.755 22.5737 113.092 22.835C113.429 23.0926 113.842 23.2214 114.33 23.2214C114.838 23.2214 115.262 23.0869 115.603 22.818C115.944 22.5453 116.202 22.1759 116.376 21.71C116.554 21.2441 116.643 20.7195 116.643 20.1362C116.643 19.5604 116.556 19.0434 116.382 18.585C116.211 18.1267 115.954 17.765 115.609 17.4998C115.268 17.2347 114.842 17.1021 114.33 17.1021C113.838 17.1021 113.421 17.229 113.08 17.4828C112.743 17.7366 112.488 18.0907 112.313 18.5453C112.139 18.9998 112.052 19.5301 112.052 20.1362ZM121.965 12.8635V24.4998H120.267V12.8635H121.965ZM128.012 24.6759C127.152 24.6759 126.412 24.4922 125.791 24.1248C125.173 23.7536 124.696 23.2328 124.359 22.5623C124.026 21.8881 123.859 21.0983 123.859 20.193C123.859 19.2991 124.026 18.5112 124.359 17.8294C124.696 17.1475 125.166 16.6153 125.768 16.2328C126.374 15.8502 127.082 15.6589 127.893 15.6589C128.385 15.6589 128.863 15.7403 129.325 15.9032C129.787 16.0661 130.202 16.3218 130.569 16.6703C130.937 17.0188 131.226 17.4714 131.438 18.0282C131.651 18.5813 131.757 19.2536 131.757 20.0453V20.6475H124.819V19.3748H130.092C130.092 18.9278 130.001 18.532 129.819 18.1873C129.637 17.8388 129.382 17.5642 129.052 17.3635C128.726 17.1627 128.344 17.0623 127.904 17.0623C127.427 17.0623 127.01 17.1797 126.654 17.4146C126.302 17.6456 126.029 17.9487 125.836 18.3237C125.647 18.6949 125.552 19.0983 125.552 19.5339V20.5282C125.552 21.1116 125.654 21.6078 125.859 22.0169C126.067 22.4259 126.357 22.7384 126.728 22.9544C127.099 23.1665 127.533 23.2725 128.029 23.2725C128.351 23.2725 128.645 23.2271 128.91 23.1362C129.175 23.0415 129.404 22.9013 129.598 22.7157C129.791 22.5301 129.938 22.3009 130.041 22.0282L131.649 22.318C131.52 22.7915 131.289 23.2063 130.955 23.5623C130.626 23.9146 130.211 24.1892 129.711 24.3862C129.215 24.5794 128.649 24.6759 128.012 24.6759ZM142.029 15.7725V17.1362H137.098V15.7725H142.029ZM138.45 24.4998V14.7612C138.45 14.2157 138.569 13.7631 138.808 13.4032C139.046 13.0396 139.363 12.7688 139.757 12.5907C140.151 12.4089 140.579 12.318 141.041 12.318C141.382 12.318 141.673 12.3464 141.916 12.4032C142.158 12.4563 142.338 12.5055 142.455 12.551L142.058 13.926C141.978 13.9032 141.876 13.8767 141.751 13.8464C141.626 13.8123 141.474 13.7953 141.296 13.7953C140.883 13.7953 140.588 13.8975 140.41 14.1021C140.236 14.3066 140.149 14.6021 140.149 14.9885V24.4998H138.45ZM147.115 24.6759C146.296 24.6759 145.582 24.4884 144.972 24.1134C144.363 23.7384 143.889 23.2138 143.552 22.5396C143.215 21.8653 143.046 21.0775 143.046 20.1759C143.046 19.2706 143.215 18.479 143.552 17.801C143.889 17.1229 144.363 16.5964 144.972 16.2214C145.582 15.8464 146.296 15.6589 147.115 15.6589C147.933 15.6589 148.647 15.8464 149.257 16.2214C149.866 16.5964 150.34 17.1229 150.677 17.801C151.014 18.479 151.183 19.2706 151.183 20.1759C151.183 21.0775 151.014 21.8653 150.677 22.5396C150.34 23.2138 149.866 23.7384 149.257 24.1134C148.647 24.4884 147.933 24.6759 147.115 24.6759ZM147.12 23.2498C147.651 23.2498 148.09 23.1097 148.438 22.8294C148.787 22.5491 149.044 22.1759 149.211 21.71C149.382 21.2441 149.467 20.7309 149.467 20.1703C149.467 19.6135 149.382 19.1021 149.211 18.6362C149.044 18.1665 148.787 17.7896 148.438 17.5055C148.09 17.2214 147.651 17.0794 147.12 17.0794C146.586 17.0794 146.143 17.2214 145.791 17.5055C145.442 17.7896 145.183 18.1665 145.012 18.6362C144.846 19.1021 144.762 19.6135 144.762 20.1703C144.762 20.7309 144.846 21.2441 145.012 21.71C145.183 22.1759 145.442 22.5491 145.791 22.8294C146.143 23.1097 146.586 23.2498 147.12 23.2498ZM153.079 24.4998V15.7725H154.721V17.1589H154.812C154.971 16.6892 155.251 16.3199 155.653 16.051C156.058 15.7782 156.517 15.6419 157.028 15.6419C157.134 15.6419 157.259 15.6456 157.403 15.6532C157.551 15.6608 157.666 15.6703 157.749 15.6816V17.3066C157.681 17.2877 157.56 17.2669 157.386 17.2441C157.212 17.2176 157.037 17.2044 156.863 17.2044C156.462 17.2044 156.104 17.2896 155.789 17.46C155.479 17.6267 155.232 17.8597 155.051 18.1589C154.869 18.4544 154.778 18.7915 154.778 19.1703V24.4998H153.079Z" fill="#E8E8E8"/>
<path d="M64.9352 43.4998V31.1362H70.0908C71.0164 31.1362 71.7912 31.267 72.415 31.5286C73.0428 31.7902 73.5137 32.1564 73.8276 32.6273C74.1456 33.0982 74.3046 33.6435 74.3046 34.2633C74.3046 34.7342 74.2059 35.1548 74.0087 35.525C73.8115 35.8913 73.5399 36.1951 73.1938 36.4366C72.8476 36.6781 72.4472 36.8471 71.9924 36.9437V37.0644C72.4915 37.0886 72.9523 37.2234 73.3749 37.4689C73.8015 37.7144 74.1436 38.0565 74.4011 38.4952C74.6587 38.9299 74.7875 39.445 74.7875 40.0407C74.7875 40.7047 74.6185 41.2983 74.2804 41.8215C73.9423 42.3407 73.4533 42.7512 72.8134 43.0531C72.1735 43.3509 71.3968 43.4998 70.4832 43.4998H64.9352ZM67.9235 41.0911H69.7708C70.4188 41.0911 70.8957 40.9683 71.2016 40.7228C71.5115 40.4773 71.6664 40.1352 71.6664 39.6965C71.6664 39.3786 71.592 39.1049 71.443 38.8755C71.2941 38.6421 71.0828 38.463 70.8092 38.3382C70.5355 38.2094 70.2075 38.1451 69.8251 38.1451H67.9235V41.0911ZM67.9235 36.2193H69.5776C69.9036 36.2193 70.1934 36.1649 70.447 36.0563C70.7005 35.9476 70.8977 35.7907 71.0386 35.5854C71.1835 35.3801 71.2559 35.1326 71.2559 34.8429C71.2559 34.4283 71.109 34.1023 70.8152 33.8649C70.5214 33.6274 70.125 33.5087 69.6259 33.5087H67.9235V36.2193ZM82.2069 39.4973V34.2271H85.1529V43.4998H82.3397V41.7733H82.2431C82.0379 42.3407 81.6877 42.7915 81.1927 43.1255C80.7017 43.4555 80.1081 43.6206 79.4118 43.6206C78.7799 43.6206 78.2245 43.4757 77.7456 43.1859C77.2667 42.8961 76.8944 42.4916 76.6288 41.9725C76.3631 41.4493 76.2283 40.8375 76.2243 40.1372V34.2271H79.1764V39.5577C79.1804 40.0608 79.3132 40.4572 79.5748 40.747C79.8364 41.0367 80.1926 41.1816 80.6433 41.1816C80.9371 41.1816 81.2007 41.1172 81.4342 40.9884C81.6716 40.8556 81.8588 40.6645 81.9956 40.4149C82.1365 40.1614 82.2069 39.8555 82.2069 39.4973ZM89.984 38.2115V43.4998H87.0319V34.2271H89.8391V35.9295H89.9417C90.147 35.362 90.4971 34.9173 90.9921 34.5953C91.4872 34.2693 92.0768 34.1063 92.761 34.1063C93.4129 34.1063 93.9784 34.2532 94.4573 34.547C94.9403 34.8368 95.3146 35.2433 95.5802 35.7665C95.8499 36.2857 95.9827 36.8934 95.9786 37.5897V43.4998H93.0266V38.1692C93.0306 37.6541 92.8998 37.2516 92.6342 36.9618C92.3726 36.672 92.0084 36.5272 91.5415 36.5272C91.2316 36.5272 90.9579 36.5956 90.7205 36.7324C90.487 36.8652 90.3059 37.0564 90.1771 37.3059C90.0524 37.5554 89.988 37.8573 89.984 38.2115ZM102.129 47.1703C101.247 47.1703 100.493 47.0475 99.8649 46.802C99.2371 46.5565 98.7441 46.2205 98.3859 45.7938C98.0277 45.3672 97.8124 44.8843 97.7399 44.345L100.535 44.188C100.587 44.3772 100.684 44.5422 100.825 44.6831C100.97 44.8239 101.157 44.9326 101.386 45.009C101.62 45.0855 101.893 45.1237 102.207 45.1237C102.702 45.1237 103.111 45.003 103.433 44.7615C103.759 44.5241 103.922 44.1075 103.922 43.5119V41.8819H103.819C103.702 42.1677 103.525 42.4232 103.288 42.6486C103.05 42.874 102.755 43.0511 102.4 43.1799C102.05 43.3086 101.648 43.373 101.193 43.373C100.517 43.373 99.8971 43.2161 99.3337 42.9022C98.7742 42.5842 98.3255 42.0932 97.9874 41.4291C97.6534 40.7611 97.4864 39.9018 97.4864 38.8514C97.4864 37.7688 97.6594 36.8773 98.0055 36.177C98.3517 35.4727 98.8044 34.9515 99.3638 34.6135C99.9273 34.2754 100.533 34.1063 101.181 34.1063C101.668 34.1063 102.084 34.1909 102.431 34.3599C102.781 34.5249 103.069 34.7382 103.294 34.9998C103.519 35.2614 103.69 35.5331 103.807 35.8148H103.892V34.2271H106.832V43.536C106.832 44.3208 106.634 44.9829 106.24 45.5222C105.845 46.0615 105.294 46.47 104.586 46.7477C103.877 47.0294 103.058 47.1703 102.129 47.1703ZM102.219 41.2239C102.578 41.2239 102.883 41.1293 103.137 40.9402C103.39 40.751 103.586 40.4793 103.723 40.1252C103.859 39.771 103.928 39.3464 103.928 38.8514C103.928 38.3483 103.859 37.9157 103.723 37.5534C103.59 37.1872 103.395 36.9055 103.137 36.7083C102.883 36.5111 102.578 36.4125 102.219 36.4125C101.853 36.4125 101.543 36.5131 101.29 36.7143C101.036 36.9155 100.843 37.1993 100.71 37.5655C100.581 37.9277 100.517 38.3563 100.517 38.8514C100.517 39.3464 100.583 39.771 100.716 40.1252C100.849 40.4793 101.04 40.751 101.29 40.9402C101.543 41.1293 101.853 41.2239 102.219 41.2239ZM113.048 43.6749C112.078 43.6749 111.241 43.4837 110.537 43.1014C109.836 42.715 109.297 42.1657 108.919 41.4533C108.545 40.7369 108.357 39.8857 108.357 38.8997C108.357 37.9418 108.547 37.1047 108.925 36.3883C109.303 35.6679 109.836 35.1085 110.525 34.71C111.213 34.3076 112.024 34.1063 112.958 34.1063C113.618 34.1063 114.221 34.209 114.769 34.4142C115.316 34.6195 115.789 34.9233 116.187 35.3258C116.586 35.7283 116.896 36.2253 117.117 36.8169C117.338 37.4045 117.449 38.0786 117.449 38.8393V39.5758H109.39V37.8613H114.702C114.698 37.5474 114.624 37.2677 114.479 37.0222C114.334 36.7767 114.135 36.5855 113.881 36.4487C113.632 36.3078 113.344 36.2374 113.018 36.2374C112.688 36.2374 112.392 36.3118 112.13 36.4608C111.869 36.6056 111.662 36.8049 111.509 37.0584C111.356 37.3079 111.275 37.5917 111.267 37.9096V39.6543C111.267 40.0326 111.342 40.3646 111.491 40.6504C111.639 40.9321 111.851 41.1514 112.124 41.3084C112.398 41.4654 112.724 41.5438 113.102 41.5438C113.364 41.5438 113.601 41.5076 113.815 41.4352C114.028 41.3627 114.211 41.2561 114.364 41.1152C114.517 40.9744 114.632 40.8013 114.708 40.596L117.419 40.6745C117.306 41.2822 117.059 41.8115 116.676 42.2622C116.298 42.709 115.801 43.0571 115.185 43.3066C114.569 43.5521 113.857 43.6749 113.048 43.6749ZM123.291 43.6749C122.321 43.6749 121.484 43.4837 120.78 43.1014C120.08 42.715 119.54 42.1657 119.162 41.4533C118.788 40.7369 118.601 39.8857 118.601 38.8997C118.601 37.9418 118.79 37.1047 119.168 36.3883C119.546 35.6679 120.08 35.1085 120.768 34.71C121.456 34.3076 122.267 34.1063 123.201 34.1063C123.861 34.1063 124.464 34.209 125.012 34.4142C125.559 34.6195 126.032 34.9233 126.43 35.3258C126.829 35.7283 127.139 36.2253 127.36 36.8169C127.581 37.4045 127.692 38.0786 127.692 38.8393V39.5758H119.633V37.8613H124.945C124.941 37.5474 124.867 37.2677 124.722 37.0222C124.577 36.7767 124.378 36.5855 124.124 36.4487C123.875 36.3078 123.587 36.2374 123.261 36.2374C122.931 36.2374 122.635 36.3118 122.374 36.4608C122.112 36.6056 121.905 36.8049 121.752 37.0584C121.599 37.3079 121.518 37.5917 121.51 37.9096V39.6543C121.51 40.0326 121.585 40.3646 121.734 40.6504C121.883 40.9321 122.094 41.1514 122.368 41.3084C122.641 41.4654 122.967 41.5438 123.346 41.5438C123.607 41.5438 123.845 41.5076 124.058 41.4352C124.271 41.3627 124.454 41.2561 124.607 41.1152C124.76 40.9744 124.875 40.8013 124.951 40.596L127.662 40.6745C127.549 41.2822 127.302 41.8115 126.919 42.2622C126.541 42.709 126.044 43.0571 125.428 43.3066C124.813 43.5521 124.1 43.6749 123.291 43.6749ZM140.423 35.6156H137.404C137.364 35.3057 137.281 35.026 137.157 34.7764C137.032 34.5269 136.867 34.3136 136.662 34.1365C136.456 33.9595 136.213 33.8246 135.931 33.7321C135.653 33.6355 135.345 33.5872 135.007 33.5872C134.408 33.5872 133.891 33.7341 133.456 34.0279C133.025 34.3217 132.693 34.7463 132.46 35.3017C132.23 35.8571 132.116 36.5292 132.116 37.318C132.116 38.139 132.232 38.8272 132.466 39.3826C132.703 39.934 133.035 40.3505 133.462 40.6323C133.893 40.91 134.402 41.0488 134.989 41.0488C135.319 41.0488 135.619 41.0066 135.889 40.922C136.162 40.8375 136.402 40.7148 136.607 40.5538C136.816 40.3888 136.988 40.1896 137.12 39.9561C137.257 39.7187 137.352 39.451 137.404 39.1532L140.423 39.1713C140.37 39.7187 140.211 40.258 139.946 40.7892C139.684 41.3205 139.324 41.8054 138.865 42.2441C138.406 42.6788 137.847 43.0249 137.187 43.2825C136.531 43.5401 135.778 43.6688 134.929 43.6688C133.81 43.6688 132.808 43.4233 131.923 42.9323C131.041 42.4373 130.345 41.7169 129.834 40.7711C129.323 39.8253 129.067 38.6743 129.067 37.318C129.067 35.9577 129.327 34.8046 129.846 33.8588C130.365 32.913 131.067 32.1947 131.953 31.7037C132.838 31.2126 133.83 30.9671 134.929 30.9671C135.677 30.9671 136.37 31.0718 137.006 31.2811C137.642 31.4863 138.201 31.7882 138.684 32.1866C139.167 32.581 139.559 33.066 139.861 33.6415C140.163 34.217 140.35 34.8751 140.423 35.6156ZM146.461 43.6749C145.487 43.6749 144.65 43.4757 143.95 43.0772C143.253 42.6748 142.716 42.1153 142.338 41.399C141.963 40.6786 141.776 39.8434 141.776 38.8936C141.776 37.9398 141.963 37.1047 142.338 36.3883C142.716 35.6679 143.253 35.1085 143.95 34.71C144.65 34.3076 145.487 34.1063 146.461 34.1063C147.435 34.1063 148.27 34.3076 148.966 34.71C149.667 35.1085 150.204 35.6679 150.578 36.3883C150.956 37.1047 151.146 37.9398 151.146 38.8936C151.146 39.8434 150.956 40.6786 150.578 41.399C150.204 42.1153 149.667 42.6748 148.966 43.0772C148.27 43.4757 147.435 43.6749 146.461 43.6749ZM146.479 41.4473C146.833 41.4473 147.133 41.3386 147.379 41.1213C147.624 40.9039 147.811 40.6021 147.94 40.2157C148.073 39.8294 148.139 39.3826 148.139 38.8755C148.139 38.3604 148.073 37.9096 147.94 37.5233C147.811 37.1369 147.624 36.835 147.379 36.6177C147.133 36.4004 146.833 36.2917 146.479 36.2917C146.113 36.2917 145.803 36.4004 145.549 36.6177C145.3 36.835 145.109 37.1369 144.976 37.5233C144.847 37.9096 144.783 38.3604 144.783 38.8755C144.783 39.3826 144.847 39.8294 144.976 40.2157C145.109 40.6021 145.3 40.9039 145.549 41.1213C145.803 41.3386 146.113 41.4473 146.479 41.4473ZM152.658 43.4998V34.2271H155.525V35.9174H155.622C155.791 35.3057 156.067 34.8509 156.449 34.5531C156.831 34.2512 157.276 34.1003 157.783 34.1003C157.92 34.1003 158.061 34.1104 158.206 34.1305C158.351 34.1466 158.486 34.1728 158.61 34.209V36.7747C158.469 36.7264 158.284 36.6881 158.055 36.66C157.83 36.6318 157.628 36.6177 157.451 36.6177C157.101 36.6177 156.785 36.6962 156.503 36.8532C156.226 37.0061 156.006 37.2214 155.845 37.4991C155.688 37.7728 155.61 38.0947 155.61 38.465V43.4998H152.658ZM162.718 43.6326C162.034 43.6326 161.412 43.4555 160.853 43.1014C160.294 42.7472 159.847 42.216 159.513 41.5076C159.179 40.7993 159.012 39.9199 159.012 38.8695C159.012 37.7788 159.185 36.8813 159.531 36.177C159.877 35.4727 160.33 34.9515 160.889 34.6135C161.453 34.2754 162.058 34.1063 162.706 34.1063C163.193 34.1063 163.61 34.1909 163.956 34.3599C164.302 34.5249 164.588 34.7382 164.813 34.9998C165.039 35.2614 165.21 35.5331 165.326 35.8148H165.387V31.1362H168.339V43.4998H165.417V41.9966H165.326C165.202 42.2824 165.025 42.55 164.795 42.7995C164.566 43.0491 164.278 43.2503 163.932 43.4032C163.59 43.5562 163.185 43.6326 162.718 43.6326ZM163.745 41.3326C164.103 41.3326 164.409 41.2319 164.662 41.0307C164.916 40.8255 165.111 40.5377 165.248 40.1674C165.385 39.7972 165.453 39.3625 165.453 38.8635C165.453 38.3563 165.385 37.9197 165.248 37.5534C165.115 37.1872 164.92 36.9055 164.662 36.7083C164.409 36.5111 164.103 36.4125 163.745 36.4125C163.378 36.4125 163.069 36.5131 162.815 36.7143C162.561 36.9155 162.368 37.1993 162.235 37.5655C162.107 37.9318 162.042 38.3644 162.042 38.8635C162.042 39.3625 162.109 39.7972 162.241 40.1674C162.374 40.5377 162.565 40.8255 162.815 41.0307C163.069 41.2319 163.378 41.3326 163.745 41.3326Z" fill="white"/>
</g>
<rect x="1.04951" y="1.04982" width="179.9" height="53.9" rx="6.95" stroke="white" stroke-opacity="0.15" stroke-width="2.1"/>
<defs>
<filter id="filter0_d_31_6" x="6.28523" y="2.28553" width="51.4286" height="51.4286" filterUnits="userSpaceOnUse" color-interpolation-filters="sRGB">
<feFlood flood-opacity="0" result="BackgroundImageFix"/>
<feColorMatrix in="SourceAlpha" type="matrix" values="0 0 0 0 0 0 0 0 0 0 0 0 0 0 0 0 0 0 127 0" result="hardAlpha"/>
<feOffset/>
<feGaussianBlur stdDeviation="2.85714"/>
<feComposite in2="hardAlpha" operator="out"/>
<feColorMatrix type="matrix" values="0 0 0 0 0 0 0 0 0 0 0 0 0 0 0 0 0 0 0.25 0"/>
<feBlend mode="normal" in2="BackgroundImageFix" result="effect1_dropShadow_31_6"/>
<feBlend mode="normal" in="SourceGraphic" in2="effect1_dropShadow_31_6" result="shape"/>
</filter>
<filter id="filter1_d_31_6" x="58.3995" y="3.89982" width="117.2" height="48.8705" filterUnits="userSpaceOnUse" color-interpolation-filters="sRGB">
<feFlood flood-opacity="0" result="BackgroundImageFix"/>
<feColorMatrix in="SourceAlpha" type="matrix" values="0 0 0 0 0 0 0 0 0 0 0 0 0 0 0 0 0 0 127 0" result="hardAlpha"/>
<feOffset/>
<feGaussianBlur stdDeviation="2.8"/>
<feComposite in2="hardAlpha" operator="out"/>
<feColorMatrix type="matrix" values="0 0 0 0 0 0 0 0 0 0 0 0 0 0 0 0 0 0 0.25 0"/>
<feBlend mode="normal" in2="BackgroundImageFix" result="effect1_dropShadow_31_6"/>
<feBlend mode="normal" in="SourceGraphic" in2="effect1_dropShadow_31_6" result="shape"/>
</filter>
<linearGradient id="paint0_linear_31_6" x1="90.9995" y1="-0.000183105" x2="90.9995" y2="55.9998" gradientUnits="userSpaceOnUse">
<stop stop-color="#322E20"/>
<stop offset="1" stop-color="#201C15"/>
</linearGradient>
</defs>
</svg>
