<svg width="146" height="56" viewBox="0 0 146 56" fill="none" xmlns="http://www.w3.org/2000/svg">
<rect x="-0.000488281" y="-0.000183105" width="146" height="56" rx="8" fill="url(#paint0_linear_28_1016)"/>
<g filter="url(#filter0_d_28_1016)">
<path fill-rule="evenodd" clip-rule="evenodd" d="M35.394 9.98986C35.9112 10.8999 36.0477 11.9775 35.7736 12.9877C35.4996 13.9979 34.8373 14.8588 33.9311 15.3827L22.2168 22.1156C22.0644 22.2036 21.9379 22.3302 21.8502 22.4827C21.7624 22.6352 21.7164 22.8082 21.7168 22.9841V33.5556C21.7164 33.7315 21.7624 33.9045 21.8502 34.057C21.9379 34.2095 22.0644 34.3362 22.2168 34.4241L31.4911 39.7541C31.6407 39.8405 31.8105 39.886 31.9832 39.886C32.156 39.886 32.3258 39.8405 32.4754 39.7541L41.7482 34.427C41.9006 34.339 42.0271 34.2124 42.1149 34.0599C42.2027 33.9074 42.2487 33.7344 42.2482 33.5584V26.987L33.9125 31.7127C33.4631 31.9677 32.9676 32.1312 32.4546 32.1938C31.9416 32.2564 31.4213 32.2168 30.9237 32.0774C30.4261 31.938 29.9611 31.7014 29.5553 31.3814C29.1496 31.0613 28.8112 30.6641 28.5597 30.2127C28.0475 29.3 27.9169 28.2219 28.1962 27.2133C28.4756 26.2048 29.1423 25.3475 30.0511 24.8284L41.9782 18.0599C42.8096 17.5912 43.7494 17.3489 44.7037 17.3574C45.658 17.3658 46.5934 17.6247 47.4163 18.108C48.2392 18.5913 48.9208 19.2822 49.393 20.1116C49.8651 20.941 50.1113 21.8798 50.1068 22.8341V34.3584C50.1081 35.6823 49.7604 36.9831 49.0988 38.1298C48.4372 39.2764 47.485 40.2284 46.3382 40.8899L35.6925 47.0084C34.5636 47.6577 33.2841 47.9994 31.9818 47.9994C30.6795 47.9994 29.4 47.6577 28.2711 47.0084L17.6254 40.8884C16.4786 40.227 15.5264 39.275 14.8648 38.1283C14.2032 36.9817 13.8555 35.6809 13.8568 34.357V22.1827C13.8554 20.8588 14.203 19.558 14.8646 18.4113C15.5263 17.2646 16.4785 16.3126 17.6254 15.6513L30.0325 8.51986C30.4807 8.26269 30.9753 8.09669 31.4878 8.0314C32.0004 7.96612 32.5208 8.00285 33.0191 8.13947C33.5174 8.2761 33.9837 8.50992 34.3913 8.82749C34.7989 9.14505 35.1396 9.54009 35.394 9.98986Z" fill="url(#paint1_linear_28_1016)"/>
</g>
<g filter="url(#filter1_d_28_1016)">
<path d="M61.2779 24.4998V12.8635H65.4256C66.3272 12.8635 67.0753 13.0188 67.67 13.3294C68.2684 13.64 68.7154 14.0699 69.0109 14.6191C69.3063 15.1646 69.4541 15.7953 69.4541 16.5112C69.4541 17.2233 69.3044 17.8502 69.0052 18.3919C68.7097 18.9297 68.2628 19.3483 67.6643 19.6475C67.0696 19.9468 66.3215 20.0964 65.42 20.0964H62.2779V18.585H65.2609C65.8291 18.585 66.2912 18.5036 66.6472 18.3407C67.0071 18.1778 67.2703 17.9411 67.437 17.6305C67.6037 17.3199 67.687 16.9468 67.687 16.5112C67.687 16.0718 67.6018 15.6911 67.4313 15.3691C67.2647 15.0472 67.0014 14.801 66.6416 14.6305C66.2855 14.4563 65.8177 14.3691 65.2381 14.3691H63.0336V24.4998H61.2779ZM67.0222 19.2498L69.8972 24.4998H67.8972L65.0791 19.2498H67.0222ZM75.106 24.6759C74.2462 24.6759 73.5057 24.4922 72.8845 24.1248C72.267 23.7536 71.7898 23.2328 71.4526 22.5623C71.1193 21.8881 70.9526 21.0983 70.9526 20.193C70.9526 19.2991 71.1193 18.5112 71.4526 17.8294C71.7898 17.1475 72.2595 16.6153 72.8617 16.2328C73.4678 15.8502 74.1761 15.6589 74.9867 15.6589C75.4791 15.6589 75.9564 15.7403 76.4185 15.9032C76.8807 16.0661 77.2954 16.3218 77.6629 16.6703C78.0303 17.0188 78.3201 17.4714 78.5322 18.0282C78.7443 18.5813 78.8504 19.2536 78.8504 20.0453V20.6475H71.9129V19.3748H77.1856C77.1856 18.9278 77.0947 18.532 76.9129 18.1873C76.731 17.8388 76.4754 17.5642 76.1458 17.3635C75.8201 17.1627 75.4375 17.0623 74.9981 17.0623C74.5208 17.0623 74.1041 17.1797 73.7481 17.4146C73.3958 17.6456 73.1231 17.9487 72.9299 18.3237C72.7405 18.6949 72.6458 19.0983 72.6458 19.5339V20.5282C72.6458 21.1116 72.7481 21.6078 72.9526 22.0169C73.161 22.4259 73.4507 22.7384 73.822 22.9544C74.1932 23.1665 74.6269 23.2725 75.1231 23.2725C75.4451 23.2725 75.7386 23.2271 76.0038 23.1362C76.2689 23.0415 76.4981 22.9013 76.6913 22.7157C76.8845 22.5301 77.0322 22.3009 77.1345 22.0282L78.7424 22.318C78.6136 22.7915 78.3826 23.2063 78.0492 23.5623C77.7197 23.9146 77.3049 24.1892 76.8049 24.3862C76.3087 24.5794 75.7424 24.6759 75.106 24.6759ZM83.2751 24.693C82.722 24.693 82.222 24.5907 81.7751 24.3862C81.3281 24.1778 80.9739 23.8767 80.7126 23.4828C80.455 23.0888 80.3262 22.6059 80.3262 22.0339C80.3262 21.5415 80.4209 21.1362 80.6103 20.818C80.7997 20.4998 81.0554 20.2479 81.3773 20.0623C81.6993 19.8767 82.0592 19.7366 82.4569 19.6419C82.8546 19.5472 83.2599 19.4752 83.6728 19.4259C84.1955 19.3653 84.6198 19.3161 84.9455 19.2782C85.2713 19.2366 85.508 19.1703 85.6558 19.0794C85.8035 18.9885 85.8773 18.8407 85.8773 18.6362V18.5964C85.8773 18.1002 85.7372 17.7157 85.4569 17.443C85.1804 17.1703 84.7675 17.0339 84.2183 17.0339C83.6463 17.0339 83.1955 17.1608 82.866 17.4146C82.5402 17.6646 82.3148 17.943 82.1898 18.2498L80.5933 17.8862C80.7826 17.3559 81.0592 16.9278 81.4228 16.6021C81.7902 16.2725 82.2126 16.0339 82.6898 15.8862C83.1671 15.7347 83.669 15.6589 84.1955 15.6589C84.544 15.6589 84.9133 15.7006 85.3035 15.7839C85.6974 15.8635 86.0648 16.0112 86.4058 16.2271C86.7505 16.443 87.0326 16.7517 87.2523 17.1532C87.472 17.551 87.5819 18.068 87.5819 18.7044V24.4998H85.9228V23.3066H85.8546C85.7448 23.5263 85.58 23.7422 85.3603 23.9544C85.1406 24.1665 84.8584 24.3426 84.5137 24.4828C84.169 24.6229 83.7561 24.693 83.2751 24.693ZM83.6444 23.3294C84.1141 23.3294 84.5156 23.2366 84.8489 23.0509C85.1861 22.8653 85.4417 22.6229 85.616 22.3237C85.794 22.0206 85.883 21.6968 85.883 21.3521V20.2271C85.8224 20.2877 85.705 20.3445 85.5308 20.3975C85.3603 20.4468 85.1652 20.4903 84.9455 20.5282C84.7258 20.5623 84.5118 20.5945 84.3035 20.6248C84.0951 20.6513 83.9209 20.6741 83.7808 20.693C83.4512 20.7347 83.1501 20.8047 82.8773 20.9032C82.6084 21.0017 82.3925 21.1438 82.2296 21.3294C82.0705 21.5112 81.991 21.7536 81.991 22.0566C81.991 22.4771 82.1463 22.7953 82.4569 23.0112C82.7675 23.2233 83.1633 23.3294 83.6444 23.3294ZM93.1117 24.6703C92.4072 24.6703 91.7784 24.4903 91.2254 24.1305C90.6761 23.7669 90.2443 23.2498 89.9299 22.5794C89.6193 21.9051 89.464 21.0964 89.464 20.1532C89.464 19.21 89.6212 18.4032 89.9356 17.7328C90.2538 17.0623 90.6894 16.5491 91.2424 16.193C91.7954 15.8369 92.4223 15.6589 93.1231 15.6589C93.6647 15.6589 94.1004 15.7498 94.4299 15.9316C94.7632 16.1097 95.0208 16.318 95.2026 16.5566C95.3882 16.7953 95.5322 17.0055 95.6344 17.1873H95.7367V12.8635H97.4356V24.4998H95.7765V23.1419H95.6344C95.5322 23.3275 95.3844 23.5396 95.1913 23.7782C95.0019 24.0169 94.7405 24.2252 94.4072 24.4032C94.0738 24.5813 93.642 24.6703 93.1117 24.6703ZM93.4867 23.2214C93.9754 23.2214 94.3882 23.0926 94.7254 22.835C95.0663 22.5737 95.3238 22.2119 95.4981 21.7498C95.6761 21.2877 95.7651 20.7498 95.7651 20.1362C95.7651 19.5301 95.678 18.9998 95.5038 18.5453C95.3295 18.0907 95.0738 17.7366 94.7367 17.4828C94.3996 17.229 93.9829 17.1021 93.4867 17.1021C92.9754 17.1021 92.5492 17.2347 92.2083 17.4998C91.8674 17.765 91.6098 18.1267 91.4356 18.585C91.2651 19.0434 91.1799 19.5604 91.1799 20.1362C91.1799 20.7195 91.267 21.2441 91.4413 21.71C91.6155 22.1759 91.8731 22.5453 92.214 22.818C92.5587 23.0869 92.9829 23.2214 93.4867 23.2214ZM100.934 27.7725C100.68 27.7725 100.449 27.7517 100.241 27.71C100.033 27.6722 99.8773 27.6305 99.7751 27.585L100.184 26.193C100.495 26.2763 100.771 26.3123 101.014 26.3009C101.256 26.2896 101.47 26.1987 101.656 26.0282C101.845 25.8578 102.012 25.5794 102.156 25.193L102.366 24.6134L99.1728 15.7725H100.991L103.201 22.5453H103.292L105.502 15.7725H107.326L103.73 25.6646C103.563 26.1191 103.351 26.5036 103.093 26.818C102.836 27.1362 102.529 27.3748 102.173 27.5339C101.817 27.693 101.404 27.7725 100.934 27.7725ZM117.311 15.7725V17.1362H112.379V15.7725H117.311ZM113.731 24.4998V14.7612C113.731 14.2157 113.85 13.7631 114.089 13.4032C114.328 13.0396 114.644 12.7688 115.038 12.5907C115.432 12.4089 115.86 12.318 116.322 12.318C116.663 12.318 116.955 12.3464 117.197 12.4032C117.439 12.4563 117.619 12.5055 117.737 12.551L117.339 13.926C117.259 13.9032 117.157 13.8767 117.032 13.8464C116.907 13.8123 116.756 13.7953 116.578 13.7953C116.165 13.7953 115.869 13.8975 115.691 14.1021C115.517 14.3066 115.43 14.6021 115.43 14.9885V24.4998H113.731ZM122.396 24.6759C121.578 24.6759 120.864 24.4884 120.254 24.1134C119.644 23.7384 119.17 23.2138 118.833 22.5396C118.496 21.8653 118.328 21.0775 118.328 20.1759C118.328 19.2706 118.496 18.479 118.833 17.801C119.17 17.1229 119.644 16.5964 120.254 16.2214C120.864 15.8464 121.578 15.6589 122.396 15.6589C123.214 15.6589 123.928 15.8464 124.538 16.2214C125.148 16.5964 125.621 17.1229 125.958 17.801C126.295 18.479 126.464 19.2706 126.464 20.1759C126.464 21.0775 126.295 21.8653 125.958 22.5396C125.621 23.2138 125.148 23.7384 124.538 24.1134C123.928 24.4884 123.214 24.6759 122.396 24.6759ZM122.401 23.2498C122.932 23.2498 123.371 23.1097 123.72 22.8294C124.068 22.5491 124.326 22.1759 124.492 21.71C124.663 21.2441 124.748 20.7309 124.748 20.1703C124.748 19.6135 124.663 19.1021 124.492 18.6362C124.326 18.1665 124.068 17.7896 123.72 17.5055C123.371 17.2214 122.932 17.0794 122.401 17.0794C121.867 17.0794 121.424 17.2214 121.072 17.5055C120.723 17.7896 120.464 18.1665 120.294 18.6362C120.127 19.1021 120.044 19.6135 120.044 20.1703C120.044 20.7309 120.127 21.2441 120.294 21.71C120.464 22.1759 120.723 22.5491 121.072 22.8294C121.424 23.1097 121.867 23.2498 122.401 23.2498ZM128.36 24.4998V15.7725H130.002V17.1589H130.093C130.252 16.6892 130.533 16.3199 130.934 16.051C131.339 15.7782 131.798 15.6419 132.309 15.6419C132.415 15.6419 132.54 15.6456 132.684 15.6532C132.832 15.6608 132.947 15.6703 133.031 15.6816V17.3066C132.963 17.2877 132.841 17.2669 132.667 17.2441C132.493 17.2176 132.319 17.2044 132.144 17.2044C131.743 17.2044 131.385 17.2896 131.071 17.46C130.76 17.6267 130.514 17.8597 130.332 18.1589C130.15 18.4544 130.059 18.7915 130.059 19.1703V24.4998H128.36Z" fill="#E8E8E8"/>
<path d="M69.0489 35.1749C68.9805 34.9213 68.8798 34.698 68.747 34.5048C68.6142 34.3076 68.4512 34.1406 68.258 34.0037C68.0649 33.8669 67.8435 33.7643 67.594 33.6958C67.3444 33.6234 67.0708 33.5872 66.7729 33.5872C66.1733 33.5872 65.6541 33.7321 65.2154 34.0218C64.7808 34.3116 64.4447 34.7342 64.2073 35.2896C63.9698 35.841 63.8511 36.5111 63.8511 37.2999C63.8511 38.0927 63.9658 38.7689 64.1952 39.3283C64.4246 39.8877 64.7566 40.3143 65.1913 40.6081C65.6259 40.9019 66.1532 41.0488 66.7729 41.0488C67.3203 41.0488 67.7831 40.9603 68.1614 40.7832C68.5438 40.6021 68.8336 40.3465 69.0308 40.0165C69.228 39.6865 69.3266 39.2981 69.3266 38.8514L69.882 38.9178H66.8756V36.7385H72.2062V38.3745C72.2062 39.4812 71.9707 40.429 71.4999 41.2179C71.033 42.0067 70.3891 42.6124 69.568 43.035C68.751 43.4576 67.8113 43.6688 66.7488 43.6688C65.5696 43.6688 64.5332 43.4133 63.6398 42.9022C62.7463 42.391 62.0501 41.6626 61.551 40.7168C61.0519 39.767 60.8024 38.6401 60.8024 37.3361C60.8024 36.3219 60.9533 35.4224 61.2552 34.6376C61.557 33.8488 61.9776 33.1807 62.5169 32.6333C63.0602 32.086 63.6881 31.6715 64.4004 31.3897C65.1168 31.108 65.8875 30.9671 66.7126 30.9671C67.429 30.9671 68.095 31.0698 68.7108 31.275C69.3306 31.4803 69.8779 31.7701 70.3528 32.1443C70.8318 32.5186 71.2202 32.9634 71.518 33.4785C71.8158 33.9937 72.0009 34.5591 72.0734 35.1749H69.0489ZM74.5485 43.4998V34.2271H77.5006V43.4998H74.5485ZM76.0276 33.1465C75.613 33.1465 75.2568 33.0096 74.959 32.736C74.6612 32.4583 74.5123 32.1242 74.5123 31.7338C74.5123 31.3475 74.6612 31.0175 74.959 30.7438C75.2568 30.4661 75.613 30.3272 76.0276 30.3272C76.4461 30.3272 76.8023 30.4661 77.0961 30.7438C77.3939 31.0175 77.5428 31.3475 77.5428 31.7338C77.5428 32.1242 77.3939 32.4583 77.0961 32.736C76.8023 33.0096 76.4461 33.1465 76.0276 33.1465ZM84.6136 34.2271V36.4004H78.7638V34.2271H84.6136ZM79.9893 32.0055H82.9414V40.584C82.9414 40.7651 82.9695 40.912 83.0259 41.0247C83.0862 41.1333 83.1728 41.2118 83.2855 41.2601C83.3981 41.3044 83.533 41.3265 83.6899 41.3265C83.8026 41.3265 83.9214 41.3165 84.0461 41.2963C84.1749 41.2722 84.2715 41.2521 84.3359 41.236L84.7826 43.367C84.6418 43.4072 84.4425 43.4576 84.185 43.5179C83.9314 43.5783 83.6276 43.6165 83.2734 43.6326C82.5812 43.6648 81.9875 43.5843 81.4925 43.3911C81.0015 43.1939 80.6252 42.8881 80.3636 42.4735C80.106 42.059 79.9812 41.5378 79.9893 40.91V32.0055ZM86.1198 46.9771V34.2271H89.0417V35.8148H89.1322C89.253 35.5331 89.424 35.2614 89.6454 34.9998C89.8707 34.7382 90.1565 34.5249 90.5026 34.3599C90.8528 34.1909 91.2713 34.1063 91.7583 34.1063C92.4022 34.1063 93.0039 34.2754 93.5633 34.6135C94.1268 34.9515 94.5816 35.4727 94.9277 36.177C95.2738 36.8813 95.4469 37.7788 95.4469 38.8695C95.4469 39.9199 95.2798 40.7993 94.9458 41.5076C94.6158 42.216 94.169 42.7472 93.6056 43.1014C93.0462 43.4555 92.4244 43.6326 91.7402 43.6326C91.2733 43.6326 90.8689 43.5562 90.5268 43.4032C90.1847 43.2503 89.8969 43.0491 89.6635 42.7995C89.4341 42.55 89.257 42.2824 89.1322 41.9966H89.0719V46.9771H86.1198ZM89.0115 38.8635C89.0115 39.3625 89.0779 39.7972 89.2107 40.1674C89.3475 40.5377 89.5427 40.8255 89.7963 41.0307C90.0539 41.2319 90.3617 41.3326 90.7199 41.3326C91.0822 41.3326 91.39 41.2319 91.6436 41.0307C91.8971 40.8255 92.0883 40.5377 92.2171 40.1674C92.3499 39.7972 92.4163 39.3625 92.4163 38.8635C92.4163 38.3644 92.3499 37.9318 92.2171 37.5655C92.0883 37.1993 91.8971 36.9155 91.6436 36.7143C91.3941 36.5131 91.0862 36.4125 90.7199 36.4125C90.3577 36.4125 90.0498 36.5111 89.7963 36.7083C89.5427 36.9055 89.3475 37.1872 89.2107 37.5534C89.0779 37.9197 89.0115 38.3563 89.0115 38.8635ZM101.322 43.6749C100.348 43.6749 99.5112 43.4757 98.8109 43.0772C98.1147 42.6748 97.5774 42.1153 97.1991 41.399C96.8248 40.6786 96.6376 39.8434 96.6376 38.8936C96.6376 37.9398 96.8248 37.1047 97.1991 36.3883C97.5774 35.6679 98.1147 35.1085 98.8109 34.71C99.5112 34.3076 100.348 34.1063 101.322 34.1063C102.296 34.1063 103.131 34.3076 103.828 34.71C104.528 35.1085 105.065 35.6679 105.439 36.3883C105.818 37.1047 106.007 37.9398 106.007 38.8936C106.007 39.8434 105.818 40.6786 105.439 41.399C105.065 42.1153 104.528 42.6748 103.828 43.0772C103.131 43.4757 102.296 43.6749 101.322 43.6749ZM101.34 41.4473C101.695 41.4473 101.994 41.3386 102.24 41.1213C102.485 40.9039 102.673 40.6021 102.801 40.2157C102.934 39.8294 103.001 39.3826 103.001 38.8755C103.001 38.3604 102.934 37.9096 102.801 37.5233C102.673 37.1369 102.485 36.835 102.24 36.6177C101.994 36.4004 101.695 36.2917 101.34 36.2917C100.974 36.2917 100.664 36.4004 100.411 36.6177C100.161 36.835 99.97 37.1369 99.8372 37.5233C99.7084 37.9096 99.644 38.3604 99.644 38.8755C99.644 39.3826 99.7084 39.8294 99.8372 40.2157C99.97 40.6021 100.161 40.9039 100.411 41.1213C100.664 41.3386 100.974 41.4473 101.34 41.4473ZM110.906 43.6326C110.222 43.6326 109.6 43.4555 109.041 43.1014C108.481 42.7472 108.034 42.216 107.7 41.5076C107.366 40.7993 107.199 39.9199 107.199 38.8695C107.199 37.7788 107.372 36.8813 107.718 36.177C108.065 35.4727 108.517 34.9515 109.077 34.6135C109.64 34.2754 110.246 34.1063 110.894 34.1063C111.381 34.1063 111.797 34.1909 112.143 34.3599C112.49 34.5249 112.775 34.7382 113.001 34.9998C113.226 35.2614 113.397 35.5331 113.514 35.8148H113.574V31.1362H116.526V43.4998H113.604V41.9966H113.514C113.389 42.2824 113.212 42.55 112.983 42.7995C112.753 43.0491 112.465 43.2503 112.119 43.4032C111.777 43.5562 111.373 43.6326 110.906 43.6326ZM111.932 41.3326C112.29 41.3326 112.596 41.2319 112.85 41.0307C113.103 40.8255 113.299 40.5377 113.435 40.1674C113.572 39.7972 113.641 39.3625 113.641 38.8635C113.641 38.3563 113.572 37.9197 113.435 37.5534C113.303 37.1872 113.107 36.9055 112.85 36.7083C112.596 36.5111 112.29 36.4125 111.932 36.4125C111.566 36.4125 111.256 36.5131 111.003 36.7143C110.749 36.9155 110.556 37.1993 110.423 37.5655C110.294 37.9318 110.23 38.3644 110.23 38.8635C110.23 39.3625 110.296 39.7972 110.429 40.1674C110.562 40.5377 110.753 40.8255 111.003 41.0307C111.256 41.2319 111.566 41.3326 111.932 41.3326Z" fill="url(#paint2_linear_28_1016)"/>
</g>
<rect x="1.04951" y="1.04982" width="143.9" height="53.9" rx="6.95" stroke="white" stroke-opacity="0.15" stroke-width="2.1"/>
<defs>
<filter id="filter0_d_28_1016" x="6.28523" y="2.28553" width="51.4286" height="51.4286" filterUnits="userSpaceOnUse" color-interpolation-filters="sRGB">
<feFlood flood-opacity="0" result="BackgroundImageFix"/>
<feColorMatrix in="SourceAlpha" type="matrix" values="0 0 0 0 0 0 0 0 0 0 0 0 0 0 0 0 0 0 127 0" result="hardAlpha"/>
<feOffset/>
<feGaussianBlur stdDeviation="2.85714"/>
<feComposite in2="hardAlpha" operator="out"/>
<feColorMatrix type="matrix" values="0 0 0 0 0 0 0 0 0 0 0 0 0 0 0 0 0 0 0.25 0"/>
<feBlend mode="normal" in2="BackgroundImageFix" result="effect1_dropShadow_28_1016"/>
<feBlend mode="normal" in="SourceGraphic" in2="effect1_dropShadow_28_1016" result="shape"/>
</filter>
<filter id="filter1_d_28_1016" x="54.3995" y="3.89982" width="85.2" height="48.6773" filterUnits="userSpaceOnUse" color-interpolation-filters="sRGB">
<feFlood flood-opacity="0" result="BackgroundImageFix"/>
<feColorMatrix in="SourceAlpha" type="matrix" values="0 0 0 0 0 0 0 0 0 0 0 0 0 0 0 0 0 0 127 0" result="hardAlpha"/>
<feOffset/>
<feGaussianBlur stdDeviation="2.8"/>
<feComposite in2="hardAlpha" operator="out"/>
<feColorMatrix type="matrix" values="0 0 0 0 0 0 0 0 0 0 0 0 0 0 0 0 0 0 0.25 0"/>
<feBlend mode="normal" in2="BackgroundImageFix" result="effect1_dropShadow_28_1016"/>
<feBlend mode="normal" in="SourceGraphic" in2="effect1_dropShadow_28_1016" result="shape"/>
</filter>
<linearGradient id="paint0_linear_28_1016" x1="-0.682731" y1="55.9999" x2="8.6679" y2="1.48679" gradientUnits="userSpaceOnUse">
<stop stop-color="#331C00"/>
<stop offset="1" stop-color="#392916"/>
</linearGradient>
<linearGradient id="paint1_linear_28_1016" x1="41.0982" y1="14.0199" x2="22.3382" y2="43.3441" gradientUnits="userSpaceOnUse">
<stop stop-color="#FFB45B"/>
<stop offset="1" stop-color="#FF8A00"/>
</linearGradient>
<linearGradient id="paint2_linear_28_1016" x1="59.9995" y1="46.4999" x2="59.9995" y2="28.4999" gradientUnits="userSpaceOnUse">
<stop stop-color="#FF8A00"/>
<stop offset="1" stop-color="#FFB45B"/>
</linearGradient>
</defs>
</svg>
