<svg width="107" height="40" viewBox="0 0 107 40" fill="none" xmlns="http://www.w3.org/2000/svg">
<rect x="-0.000366211" y="-6.10352e-05" width="107" height="40" rx="6" fill="url(#paint0_linear_28_1016)"/>
<g filter="url(#filter0_d_28_1016)">
<path fill-rule="evenodd" clip-rule="evenodd" d="M26.3757 7.3929C26.7377 8.02991 26.8333 8.78422 26.6415 9.49138C26.4496 10.1985 25.986 10.8012 25.3517 11.1679L17.1517 15.8809C17.045 15.9425 16.9565 16.0311 16.895 16.1379C16.8336 16.2446 16.8014 16.3657 16.8017 16.4889V23.8889C16.8014 24.0121 16.8336 24.1332 16.895 24.2399C16.9565 24.3467 17.045 24.4353 17.1517 24.4969L23.6437 28.2279C23.7484 28.2884 23.8672 28.3202 23.9882 28.3202C24.1091 28.3202 24.2279 28.2884 24.3327 28.2279L30.8237 24.4989C30.9304 24.4373 31.0189 24.3487 31.0804 24.2419C31.1418 24.1352 31.174 24.0141 31.1737 23.8909V19.2909L25.3387 22.5989C25.0241 22.7774 24.6772 22.8919 24.3181 22.9357C23.9591 22.9795 23.5949 22.9518 23.2465 22.8542C22.8982 22.7566 22.5727 22.591 22.2886 22.367C22.0046 22.1429 21.7677 21.8649 21.5917 21.5489C21.2332 20.91 21.1417 20.1553 21.3373 19.4493C21.5328 18.7433 21.9996 18.1433 22.6357 17.7799L30.9847 13.0419C31.5666 12.7138 32.2245 12.5443 32.8925 12.5502C33.5605 12.5561 34.2153 12.7373 34.7913 13.0756C35.3674 13.4139 35.8445 13.8976 36.175 14.4781C36.5055 15.0587 36.6778 15.7159 36.6747 16.3839V24.4509C36.6756 25.3776 36.4322 26.2882 35.9691 27.0908C35.506 27.8935 34.8394 28.5599 34.0367 29.0229L26.5847 33.3059C25.7945 33.7604 24.8988 33.9996 23.9872 33.9996C23.0756 33.9996 22.1799 33.7604 21.3897 33.3059L13.9377 29.0219C13.1349 28.5589 12.4684 27.8925 12.0053 27.0898C11.5422 26.2872 11.2988 25.3766 11.2997 24.4499V15.9279C11.2987 15.0012 11.542 14.0906 12.0052 13.2879C12.4683 12.4852 13.1349 11.8188 13.9377 11.3559L22.6227 6.3639C22.9364 6.18388 23.2826 6.06768 23.6414 6.02198C24.0002 5.97628 24.3644 6.00199 24.7133 6.09763C25.0621 6.19327 25.3885 6.35695 25.6738 6.57924C25.9591 6.80154 26.1977 7.07806 26.3757 7.3929Z" fill="url(#paint1_linear_28_1016)"/>
</g>
<g filter="url(#filter1_d_28_1016)">
<path d="M46.8785 17.9999V9.99994H49.7301C50.3499 9.99994 50.8642 10.1067 51.2731 10.3203C51.6845 10.5338 51.9918 10.8294 52.1949 11.207C52.3981 11.582 52.4996 12.0156 52.4996 12.5077C52.4996 12.9973 52.3968 13.4283 52.191 13.8007C51.9879 14.1705 51.6806 14.4583 51.2692 14.664C50.8603 14.8697 50.346 14.9726 49.7262 14.9726H47.566V13.9335H49.6168C50.0074 13.9335 50.3252 13.8775 50.5699 13.7656C50.8173 13.6536 50.9983 13.4908 51.1129 13.2773C51.2275 13.0637 51.2848 12.8072 51.2848 12.5077C51.2848 12.2057 51.2262 11.9439 51.109 11.7226C50.9944 11.5012 50.8134 11.332 50.566 11.2148C50.3212 11.095 49.9996 11.0351 49.6012 11.0351H48.0856V17.9999H46.8785ZM50.8278 14.3906L52.8043 17.9999H51.4293L49.4918 14.3906H50.8278ZM56.3854 18.121C55.7942 18.121 55.2851 17.9947 54.858 17.7421C54.4336 17.4869 54.1054 17.1288 53.8737 16.6679C53.6445 16.2044 53.5299 15.6614 53.5299 15.039C53.5299 14.4244 53.6445 13.8827 53.8737 13.414C54.1054 12.9452 54.4283 12.5794 54.8424 12.3163C55.2591 12.0533 55.7461 11.9218 56.3033 11.9218C56.6419 11.9218 56.97 11.9778 57.2877 12.0898C57.6054 12.2018 57.8906 12.3775 58.1432 12.6171C58.3958 12.8567 58.595 13.1679 58.7408 13.5507C58.8867 13.9309 58.9596 14.3932 58.9596 14.9374V15.3515H54.1901V14.4765H57.8151C57.8151 14.1692 57.7526 13.8971 57.6276 13.6601C57.5026 13.4205 57.3268 13.2317 57.1002 13.0937C56.8763 12.9557 56.6132 12.8867 56.3112 12.8867C55.983 12.8867 55.6966 12.9674 55.4518 13.1288C55.2096 13.2877 55.0221 13.496 54.8893 13.7538C54.7591 14.0091 54.694 14.2864 54.694 14.5859V15.2695C54.694 15.6705 54.7643 16.0117 54.9049 16.2929C55.0481 16.5742 55.2474 16.789 55.5026 16.9374C55.7578 17.0833 56.0559 17.1562 56.3971 17.1562C56.6184 17.1562 56.8203 17.1249 57.0026 17.0624C57.1849 16.9973 57.3424 16.901 57.4752 16.7734C57.608 16.6458 57.7096 16.4882 57.7799 16.3007L58.8854 16.4999C58.7968 16.8255 58.638 17.1106 58.4088 17.3554C58.1822 17.5976 57.8971 17.7864 57.5533 17.9218C57.2122 18.0546 56.8229 18.121 56.3854 18.121ZM62.0016 18.1327C61.6214 18.1327 61.2776 18.0624 60.9703 17.9218C60.663 17.7786 60.4196 17.5716 60.2399 17.3007C60.0628 17.0299 59.9742 16.6979 59.9742 16.3046C59.9742 15.9661 60.0393 15.6874 60.1696 15.4687C60.2998 15.2499 60.4755 15.0768 60.6969 14.9492C60.9182 14.8216 61.1656 14.7252 61.4391 14.6601C61.7125 14.595 61.9912 14.5455 62.275 14.5117C62.6344 14.47 62.9261 14.4361 63.15 14.4101C63.374 14.3814 63.5367 14.3359 63.6383 14.2734C63.7399 14.2109 63.7906 14.1093 63.7906 13.9687V13.9413C63.7906 13.6002 63.6943 13.3359 63.5016 13.1484C63.3115 12.9609 63.0276 12.8671 62.65 12.8671C62.2568 12.8671 61.9469 12.9544 61.7203 13.1288C61.4964 13.3007 61.3414 13.4921 61.2555 13.7031L60.1578 13.4531C60.288 13.0885 60.4781 12.7942 60.7281 12.5702C60.9807 12.3437 61.2711 12.1796 61.5992 12.0781C61.9274 11.9739 62.2724 11.9218 62.6344 11.9218C62.874 11.9218 63.1279 11.9505 63.3961 12.0078C63.6669 12.0624 63.9196 12.164 64.1539 12.3124C64.3909 12.4609 64.5849 12.6731 64.736 12.9492C64.887 13.2226 64.9625 13.5781 64.9625 14.0156V17.9999H63.8219V17.1796H63.775C63.6995 17.3307 63.5862 17.4791 63.4352 17.6249C63.2841 17.7708 63.0901 17.8919 62.8531 17.9882C62.6162 18.0846 62.3323 18.1327 62.0016 18.1327ZM62.2555 17.1952C62.5784 17.1952 62.8544 17.1314 63.0836 17.0038C63.3154 16.8762 63.4912 16.7096 63.611 16.5038C63.7334 16.2955 63.7946 16.0729 63.7946 15.8359V15.0624C63.7529 15.1041 63.6722 15.1432 63.5524 15.1796C63.4352 15.2135 63.3011 15.2434 63.15 15.2695C62.999 15.2929 62.8518 15.315 62.7086 15.3359C62.5654 15.3541 62.4456 15.3697 62.3492 15.3827C62.1227 15.4114 61.9156 15.4596 61.7281 15.5273C61.5432 15.595 61.3948 15.6926 61.2828 15.8202C61.1735 15.9452 61.1188 16.1119 61.1188 16.3202C61.1188 16.6093 61.2255 16.8281 61.4391 16.9765C61.6526 17.1223 61.9248 17.1952 62.2555 17.1952ZM68.7643 18.1171C68.2799 18.1171 67.8476 17.9934 67.4674 17.746C67.0898 17.496 66.7929 17.1406 66.5768 16.6796C66.3632 16.2161 66.2565 15.6601 66.2565 15.0117C66.2565 14.3632 66.3645 13.8085 66.5807 13.3476C66.7994 12.8867 67.0989 12.5338 67.4791 12.289C67.8593 12.0442 68.2903 11.9218 68.7721 11.9218C69.1445 11.9218 69.444 11.9843 69.6705 12.1093C69.8997 12.2317 70.0768 12.3749 70.2018 12.539C70.3294 12.7031 70.4283 12.8476 70.4987 12.9726H70.569V9.99994H71.7369V17.9999H70.5963V17.0663H70.4987C70.4283 17.1939 70.3268 17.3398 70.194 17.5038C70.0638 17.6679 69.8841 17.8111 69.6549 17.9335C69.4257 18.0559 69.1289 18.1171 68.7643 18.1171ZM69.0221 17.121C69.358 17.121 69.6419 17.0325 69.8737 16.8554C70.108 16.6757 70.2851 16.427 70.4049 16.1093C70.5273 15.7916 70.5885 15.4218 70.5885 14.9999C70.5885 14.5833 70.5286 14.2187 70.4088 13.9062C70.289 13.5937 70.1132 13.3502 69.8815 13.1757C69.6497 13.0012 69.3632 12.914 69.0221 12.914C68.6705 12.914 68.3776 13.0051 68.1432 13.1874C67.9088 13.3697 67.7317 13.6184 67.6119 13.9335C67.4947 14.2486 67.4362 14.6041 67.4362 14.9999C67.4362 15.401 67.496 15.7617 67.6158 16.082C67.7356 16.4023 67.9127 16.6562 68.1471 16.8437C68.3841 17.0286 68.6757 17.121 69.0221 17.121ZM74.1422 20.2499C73.9677 20.2499 73.8089 20.2356 73.6656 20.207C73.5224 20.1809 73.4156 20.1523 73.3453 20.121L73.6266 19.164C73.8401 19.2213 74.0302 19.246 74.1969 19.2382C74.3636 19.2304 74.5107 19.1679 74.6383 19.0507C74.7685 18.9335 74.8831 18.7421 74.982 18.4765L75.1266 18.0781L72.9313 11.9999H74.1813L75.7008 16.6562H75.7633L77.2828 11.9999H78.5367L76.0641 18.8007C75.9495 19.1132 75.8037 19.3775 75.6266 19.5937C75.4495 19.8124 75.2386 19.9765 74.9938 20.0859C74.749 20.1952 74.4651 20.2499 74.1422 20.2499ZM85.401 11.9999V12.9374H82.0104V11.9999H85.401ZM82.9401 17.9999V11.3046C82.9401 10.9296 83.0221 10.6184 83.1861 10.371C83.3502 10.121 83.5677 9.93483 83.8385 9.81244C84.1093 9.68744 84.4036 9.62494 84.7213 9.62494C84.9557 9.62494 85.1562 9.64447 85.3229 9.68353C85.4895 9.71999 85.6132 9.75384 85.694 9.78509L85.4205 10.7304C85.3658 10.7148 85.2955 10.6966 85.2096 10.6757C85.1236 10.6523 85.0195 10.6406 84.8971 10.6406C84.6132 10.6406 84.4101 10.7109 84.2877 10.8515C84.1679 10.9921 84.108 11.1953 84.108 11.4609V17.9999H82.9401ZM88.8971 18.121C88.3346 18.121 87.8437 17.9921 87.4244 17.7343C87.0052 17.4765 86.6796 17.1158 86.4479 16.6523C86.2161 16.1887 86.1002 15.6471 86.1002 15.0273C86.1002 14.4049 86.2161 13.8606 86.4479 13.3945C86.6796 12.9283 87.0052 12.5663 87.4244 12.3085C87.8437 12.0507 88.3346 11.9218 88.8971 11.9218C89.4596 11.9218 89.9505 12.0507 90.3697 12.3085C90.789 12.5663 91.1145 12.9283 91.3463 13.3945C91.5781 13.8606 91.694 14.4049 91.694 15.0273C91.694 15.6471 91.5781 16.1887 91.3463 16.6523C91.1145 17.1158 90.789 17.4765 90.3697 17.7343C89.9505 17.9921 89.4596 18.121 88.8971 18.121ZM88.901 17.1406C89.2656 17.1406 89.5677 17.0442 89.8072 16.8515C90.0468 16.6588 90.2239 16.4023 90.3385 16.082C90.4557 15.7617 90.5143 15.4088 90.5143 15.0234C90.5143 14.6406 90.4557 14.289 90.3385 13.9687C90.2239 13.6458 90.0468 13.3867 89.8072 13.1913C89.5677 12.996 89.2656 12.8984 88.901 12.8984C88.5338 12.8984 88.2291 12.996 87.9869 13.1913C87.7473 13.3867 87.569 13.6458 87.4518 13.9687C87.3372 14.289 87.2799 14.6406 87.2799 15.0234C87.2799 15.4088 87.3372 15.7617 87.4518 16.082C87.569 16.4023 87.7473 16.6588 87.9869 16.8515C88.2291 17.0442 88.5338 17.1406 88.901 17.1406ZM92.9977 17.9999V11.9999H94.1266V12.9531H94.1891C94.2984 12.6301 94.4912 12.3762 94.7672 12.1913C95.0458 12.0038 95.3609 11.9101 95.7125 11.9101C95.7854 11.9101 95.8714 11.9127 95.9703 11.9179C96.0719 11.9231 96.1513 11.9296 96.2086 11.9374V13.0546C96.1617 13.0416 96.0784 13.0273 95.9586 13.0117C95.8388 12.9934 95.719 12.9843 95.5992 12.9843C95.3232 12.9843 95.0771 13.0429 94.8609 13.1601C94.6474 13.2747 94.4781 13.4348 94.3531 13.6406C94.2281 13.8437 94.1656 14.0755 94.1656 14.3359V17.9999H92.9977Z" fill="#E8E8E8"/>
<path d="M52.3874 25.1235C52.3391 24.9445 52.2681 24.7869 52.1743 24.6505C52.0806 24.5113 51.9655 24.3934 51.8292 24.2968C51.6928 24.2002 51.5366 24.1278 51.3604 24.0795C51.1843 24.0283 50.9911 24.0028 50.7809 24.0028C50.3576 24.0028 49.9911 24.1051 49.6815 24.3096C49.3746 24.5141 49.1374 24.8124 48.9698 25.2045C48.8022 25.5937 48.7184 26.0667 48.7184 26.6235C48.7184 27.1832 48.7993 27.6604 48.9613 28.0553C49.1232 28.4502 49.3576 28.7514 49.6644 28.9587C49.9712 29.1661 50.3434 29.2698 50.7809 29.2698C51.1672 29.2698 51.494 29.2073 51.761 29.0823C52.0309 28.9545 52.2354 28.7741 52.3746 28.5411C52.5138 28.3082 52.5834 28.034 52.5834 27.7187L52.9755 27.7656H50.8533V26.2272H54.6161V27.382C54.6161 28.1633 54.4499 28.8323 54.1175 29.3891C53.788 29.946 53.3334 30.3735 52.7539 30.6718C52.1772 30.9701 51.5138 31.1193 50.7638 31.1193C49.9315 31.1193 49.1999 30.9389 48.5692 30.5781C47.9386 30.2173 47.4471 29.7031 47.0948 29.0354C46.7425 28.365 46.5664 27.5695 46.5664 26.6491C46.5664 25.9332 46.6729 25.2982 46.886 24.7443C47.0991 24.1874 47.3959 23.7158 47.7766 23.3295C48.1601 22.9431 48.6033 22.6505 49.1062 22.4516C49.6118 22.2528 50.1559 22.1533 50.7383 22.1533C51.244 22.1533 51.7141 22.2258 52.1488 22.3707C52.5863 22.5156 52.9726 22.7201 53.3079 22.9843C53.6459 23.2485 53.9201 23.5624 54.1303 23.9261C54.3405 24.2897 54.4712 24.6889 54.5224 25.1235H52.3874ZM56.2695 30.9999V24.4545H58.3533V30.9999H56.2695ZM57.3136 23.6917C57.0209 23.6917 56.7695 23.5951 56.5593 23.4019C56.3491 23.2059 56.2439 22.9701 56.2439 22.6945C56.2439 22.4218 56.3491 22.1889 56.5593 21.9957C56.7695 21.7997 57.0209 21.7016 57.3136 21.7016C57.609 21.7016 57.8604 21.7997 58.0678 21.9957C58.278 22.1889 58.3832 22.4218 58.3832 22.6945C58.3832 22.9701 58.278 23.2059 58.0678 23.4019C57.8604 23.5951 57.609 23.6917 57.3136 23.6917ZM63.3743 24.4545V25.9886H59.245V24.4545H63.3743ZM60.1101 22.8863H62.1939V28.9417C62.1939 29.0695 62.2138 29.1732 62.2535 29.2528C62.2961 29.3295 62.3572 29.3849 62.4368 29.419C62.5163 29.4502 62.6115 29.4658 62.7223 29.4658C62.8018 29.4658 62.8856 29.4587 62.9737 29.4445C63.0646 29.4275 63.1328 29.4133 63.1783 29.4019L63.4936 30.9062C63.3942 30.9346 63.2535 30.9701 63.0717 31.0127C62.8927 31.0553 62.6783 31.0823 62.4283 31.0937C61.9396 31.1164 61.5206 31.0596 61.1711 30.9232C60.8246 30.784 60.5589 30.5681 60.3743 30.2755C60.1925 29.9829 60.1044 29.615 60.1101 29.1718V22.8863ZM64.4375 33.4545V24.4545H66.5V25.5752H66.5639C66.6491 25.3764 66.7699 25.1846 66.9261 24.9999C67.0852 24.8153 67.2869 24.6647 67.5312 24.5482C67.7784 24.4289 68.0738 24.3693 68.4176 24.3693C68.8721 24.3693 69.2969 24.4886 69.6917 24.7272C70.0895 24.9658 70.4105 25.3337 70.6548 25.8309C70.8991 26.3281 71.0213 26.9616 71.0213 27.7315C71.0213 28.4729 70.9034 29.0937 70.6676 29.5937C70.4346 30.0937 70.1193 30.4687 69.7216 30.7187C69.3267 30.9687 68.8878 31.0937 68.4048 31.0937C68.0753 31.0937 67.7898 31.0397 67.5483 30.9318C67.3068 30.8238 67.1037 30.6818 66.9389 30.5056C66.777 30.3295 66.652 30.1406 66.5639 29.9389H66.5213V33.4545H64.4375ZM66.4787 27.7272C66.4787 28.0795 66.5256 28.3863 66.6193 28.6477C66.7159 28.909 66.8537 29.1122 67.0327 29.257C67.2145 29.3991 67.4318 29.4701 67.6846 29.4701C67.9403 29.4701 68.1577 29.3991 68.3366 29.257C68.5156 29.1122 68.6506 28.909 68.7415 28.6477C68.8352 28.3863 68.8821 28.0795 68.8821 27.7272C68.8821 27.3749 68.8352 27.0695 68.7415 26.811C68.6506 26.5525 68.5156 26.3522 68.3366 26.2102C68.1605 26.0681 67.9432 25.9971 67.6846 25.9971C67.429 25.9971 67.2116 26.0667 67.0327 26.2059C66.8537 26.3451 66.7159 26.544 66.6193 26.8025C66.5256 27.061 66.4787 27.3693 66.4787 27.7272ZM75.1687 31.1235C74.4812 31.1235 73.8903 30.9829 73.3959 30.7016C72.9045 30.4175 72.5252 30.0227 72.2581 29.517C71.9939 29.0085 71.8618 28.419 71.8618 27.7485C71.8618 27.0752 71.9939 26.4857 72.2581 25.9801C72.5252 25.4715 72.9045 25.0766 73.3959 24.7954C73.8903 24.5113 74.4812 24.3693 75.1687 24.3693C75.8562 24.3693 76.4456 24.5113 76.9371 24.7954C77.4314 25.0766 77.8107 25.4715 78.0749 25.9801C78.342 26.4857 78.4755 27.0752 78.4755 27.7485C78.4755 28.419 78.342 29.0085 78.0749 29.517C77.8107 30.0227 77.4314 30.4175 76.9371 30.7016C76.4456 30.9829 75.8562 31.1235 75.1687 31.1235ZM75.1814 29.5511C75.4314 29.5511 75.6431 29.4744 75.8164 29.321C75.9897 29.1675 76.1218 28.9545 76.2127 28.6818C76.3064 28.409 76.3533 28.0937 76.3533 27.7357C76.3533 27.3721 76.3064 27.0539 76.2127 26.7812C76.1218 26.5085 75.9897 26.2954 75.8164 26.142C75.6431 25.9886 75.4314 25.9119 75.1814 25.9119C74.9229 25.9119 74.7042 25.9886 74.5252 26.142C74.3491 26.2954 74.2141 26.5085 74.1204 26.7812C74.0295 27.0539 73.984 27.3721 73.984 27.7357C73.984 28.0937 74.0295 28.409 74.1204 28.6818C74.2141 28.9545 74.3491 29.1675 74.5252 29.321C74.7042 29.4744 74.9229 29.5511 75.1814 29.5511ZM81.9336 31.0937C81.4506 31.0937 81.0117 30.9687 80.6168 30.7187C80.2219 30.4687 79.9066 30.0937 79.6708 29.5937C79.435 29.0937 79.3171 28.4729 79.3171 27.7315C79.3171 26.9616 79.4393 26.3281 79.6836 25.8309C79.9279 25.3337 80.2475 24.9658 80.6424 24.7272C81.0401 24.4886 81.4677 24.3693 81.925 24.3693C82.2688 24.3693 82.5628 24.4289 82.8072 24.5482C83.0515 24.6647 83.2532 24.8153 83.4123 24.9999C83.5714 25.1846 83.6921 25.3764 83.7745 25.5752H83.8171V22.2727H85.9009V30.9999H83.8384V29.9389H83.7745C83.6864 30.1406 83.5614 30.3295 83.3995 30.5056C83.2375 30.6818 83.0344 30.8238 82.7901 30.9318C82.5486 31.0397 82.2631 31.0937 81.9336 31.0937ZM82.658 29.4701C82.9108 29.4701 83.1268 29.3991 83.3057 29.257C83.4847 29.1122 83.6225 28.909 83.7191 28.6477C83.8157 28.3863 83.864 28.0795 83.864 27.7272C83.864 27.3693 83.8157 27.061 83.7191 26.8025C83.6253 26.544 83.4875 26.3451 83.3057 26.2059C83.1268 26.0667 82.9108 25.9971 82.658 25.9971C82.3995 25.9971 82.1807 26.0681 82.0018 26.2102C81.8228 26.3522 81.6864 26.5525 81.5927 26.811C81.5018 27.0695 81.4563 27.3749 81.4563 27.7272C81.4563 28.0795 81.5032 28.3863 81.5969 28.6477C81.6907 28.909 81.8256 29.1122 82.0018 29.257C82.1807 29.3991 82.3995 29.4701 82.658 29.4701Z" fill="url(#paint2_linear_28_1016)"/>
</g>
<rect x="0.749634" y="0.749939" width="105.5" height="38.5" rx="5.25" stroke="white" stroke-opacity="0.15" stroke-width="1.5"/>
<defs>
<filter id="filter0_d_28_1016" x="5.99963" y="1.99994" width="36" height="36" filterUnits="userSpaceOnUse" color-interpolation-filters="sRGB">
<feFlood flood-opacity="0" result="BackgroundImageFix"/>
<feColorMatrix in="SourceAlpha" type="matrix" values="0 0 0 0 0 0 0 0 0 0 0 0 0 0 0 0 0 0 127 0" result="hardAlpha"/>
<feOffset/>
<feGaussianBlur stdDeviation="2"/>
<feComposite in2="hardAlpha" operator="out"/>
<feColorMatrix type="matrix" values="0 0 0 0 0 0 0 0 0 0 0 0 0 0 0 0 0 0 0.25 0"/>
<feBlend mode="normal" in2="BackgroundImageFix" result="effect1_dropShadow_28_1016"/>
<feBlend mode="normal" in="SourceGraphic" in2="effect1_dropShadow_28_1016" result="shape"/>
</filter>
<filter id="filter1_d_28_1016" x="41.9996" y="2.99994" width="59" height="34.4545" filterUnits="userSpaceOnUse" color-interpolation-filters="sRGB">
<feFlood flood-opacity="0" result="BackgroundImageFix"/>
<feColorMatrix in="SourceAlpha" type="matrix" values="0 0 0 0 0 0 0 0 0 0 0 0 0 0 0 0 0 0 127 0" result="hardAlpha"/>
<feOffset/>
<feGaussianBlur stdDeviation="2"/>
<feComposite in2="hardAlpha" operator="out"/>
<feColorMatrix type="matrix" values="0 0 0 0 0 0 0 0 0 0 0 0 0 0 0 0 0 0 0.25 0"/>
<feBlend mode="normal" in2="BackgroundImageFix" result="effect1_dropShadow_28_1016"/>
<feBlend mode="normal" in="SourceGraphic" in2="effect1_dropShadow_28_1016" result="shape"/>
</filter>
<linearGradient id="paint0_linear_28_1016" x1="-0.500366" y1="40" x2="6.01856" y2="1.00623" gradientUnits="userSpaceOnUse">
<stop stop-color="#331C00"/>
<stop offset="1" stop-color="#392916"/>
</linearGradient>
<linearGradient id="paint1_linear_28_1016" x1="30.3687" y1="10.2139" x2="17.2367" y2="30.7409" gradientUnits="userSpaceOnUse">
<stop stop-color="#FFB45B"/>
<stop offset="1" stop-color="#FF8A00"/>
</linearGradient>
<linearGradient id="paint2_linear_28_1016" x1="45.9996" y1="33" x2="45.9996" y2="20" gradientUnits="userSpaceOnUse">
<stop stop-color="#FF8A00"/>
<stop offset="1" stop-color="#FFB45B"/>
</linearGradient>
</defs>
</svg>
