<svg width="167" height="56" viewBox="0 0 167 56" fill="none" xmlns="http://www.w3.org/2000/svg">
<rect x="-0.000488281" y="-3.05176e-05" width="167" height="56" rx="8" fill="url(#paint0_linear_28_938)"/>
<g filter="url(#filter0_d_28_938)">
<path d="M15.571 22.6583V17.7042C15.6358 17.7001 15.6997 17.6145 15.7609 17.5928C16.8288 17.0496 17.8857 16.4814 18.9672 15.9695C19.2914 15.8153 19.41 15.6646 19.4032 15.3007C19.3792 13.9768 19.3936 12.6522 19.3943 11.3277C19.3943 10.9207 19.3943 10.9172 19.7308 10.747C21.1263 10.0392 22.5245 9.33564 23.9186 8.62509C24.31 8.42644 24.7343 8.2903 25.077 7.99997H25.3868C25.3991 8.02984 25.4032 8.07568 25.4245 8.08679C27.1949 8.97724 28.9674 9.86213 30.7343 10.7588C30.842 10.8137 30.8817 10.8179 30.9907 10.7588C31.5849 10.4484 32.1977 10.1726 32.7885 9.85588C32.951 9.76836 33.0318 9.78156 33.1867 9.86838C33.6446 10.1268 34.1244 10.3435 34.598 10.5803C34.903 10.7338 34.903 10.7401 35.1635 10.6025C35.6028 10.3706 36.0387 10.1323 36.4781 9.90103C36.7886 9.7378 36.8208 9.7378 37.108 9.88366C38.8443 10.7695 40.5821 11.6553 42.3212 12.5411C44.2451 13.5177 46.1732 14.4859 48.093 15.4715C48.213 15.5327 48.3158 15.5222 48.4282 15.5375V30.1973C48.3158 30.2125 48.213 30.2021 48.093 30.2632C45.8312 31.4204 43.5693 32.5748 41.2883 33.7007C40.9086 33.8882 40.768 34.0904 40.7715 34.5252C40.792 37.5605 40.777 40.5958 40.7907 43.6304C40.7907 43.9318 40.7036 44.093 40.4411 44.2145C39.9339 44.4493 39.439 44.7111 38.9394 44.9619C38.9017 44.9806 38.8654 45.0029 38.829 45.0237C38.8759 45.0343 38.9217 45.0489 38.9661 45.0675C39.5062 45.3453 40.0436 45.6301 40.5885 45.9009C40.6858 45.9496 40.6803 45.9704 40.6125 46.0232C40.559 46.0585 40.5028 46.0894 40.4445 46.1156C39.6172 46.5323 38.7817 46.9366 37.9668 47.3797C37.5953 47.5818 37.1779 47.7055 36.8557 48H36.7529C36.6582 47.9236 36.5583 47.854 36.4541 47.7916C32.7346 45.9042 29.0142 44.0184 25.2929 42.1343C25.2586 42.1136 25.2258 42.0904 25.1949 42.0648C25.2243 42.0523 25.2545 42.0419 25.2826 42.0273C26.4512 41.4341 27.6219 40.8465 28.7864 40.2436C28.8835 40.1855 28.9941 40.1549 29.1068 40.1549C29.2196 40.1549 29.3302 40.1855 29.4273 40.2436C29.9585 40.5284 30.4999 40.793 31.0373 41.066C31.5795 40.793 32.1223 40.5215 32.6631 40.2457C32.707 40.2235 32.7419 40.145 32.7755 40.1485C32.9379 40.1644 32.9311 40.0651 32.9304 39.954C32.9304 39.3087 32.9263 38.6635 32.9304 38.0182C32.9304 37.8911 32.8769 37.8793 32.7707 37.8244C31.8797 37.3882 31.003 36.927 30.1195 36.4783C27.2696 35.0308 24.4188 33.5856 21.567 32.1428C21.4224 32.0691 21.3463 32.0073 21.349 31.8191C21.3621 30.7383 21.3525 29.6569 21.3573 28.5761C21.3573 28.3865 21.312 28.2837 21.1174 28.1962C20.6376 27.9809 20.1825 27.7058 19.7068 27.478C19.5012 27.3794 19.3744 27.296 19.3833 27.0217C19.408 26.2382 19.3833 25.4526 19.4004 24.6684C19.4052 24.4816 19.3175 24.4524 19.1948 24.3906C18.0981 23.8398 16.994 23.289 15.9048 22.7236C15.7869 22.6618 15.6869 22.6736 15.571 22.6583ZM38.7166 39.0476V35.1781C38.7166 35.0586 38.742 35.0072 38.5706 35.0954C37.5069 35.6434 36.428 36.163 35.3547 36.6929C35.2114 36.7624 35.0065 36.8055 34.9434 36.9228C34.8653 37.0743 34.8996 37.2875 34.8927 37.4743C34.8866 37.6306 34.8927 37.7876 34.8927 37.9446C34.8927 38.9559 34.8927 39.9665 34.8962 40.9778C34.8962 41.1167 34.8509 41.1577 34.7234 41.2181C34.1895 41.4709 33.67 41.7557 33.147 42.0294C33.113 42.0506 33.0803 42.0738 33.049 42.0988C33.0784 42.1113 33.1086 42.1224 33.1374 42.1363C34.3225 42.7295 35.5089 43.3171 36.6892 43.9228C36.7879 43.9735 36.8174 43.9791 36.9202 43.9228C37.4418 43.645 37.973 43.3873 38.5083 43.1386C38.6618 43.0692 38.7242 42.9955 38.7228 42.8136C38.7111 41.5578 38.7166 40.3027 38.7166 39.0476Z" fill="#4E84C4"/>
</g>
<g filter="url(#filter1_d_28_938)">
<path d="M62.2609 24.5H60.3972L64.5847 12.8636H66.6131L70.8006 24.5H68.937L65.6472 14.9772H65.5563L62.2609 24.5ZM62.5734 19.9431H68.6188V21.4204H62.5734V19.9431ZM78.7168 15.7727L75.5521 24.5H73.7339L70.5634 15.7727H72.3873L74.5975 22.4886H74.6884L76.893 15.7727H78.7168ZM82.6032 24.6931C82.0502 24.6931 81.5502 24.5909 81.1032 24.3863C80.6562 24.178 80.3021 23.8769 80.0407 23.4829C79.7831 23.089 79.6543 22.606 79.6543 22.0341C79.6543 21.5416 79.749 21.1363 79.9384 20.8181C80.1278 20.5 80.3835 20.2481 80.7055 20.0625C81.0274 19.8769 81.3873 19.7367 81.785 19.642C82.1827 19.5473 82.588 19.4753 83.0009 19.4261C83.5237 19.3655 83.9479 19.3163 84.2737 19.2784C84.5994 19.2367 84.8362 19.1704 84.9839 19.0795C85.1316 18.9886 85.2055 18.8409 85.2055 18.6363V18.5966C85.2055 18.1003 85.0653 17.7159 84.785 17.4431C84.5085 17.1704 84.0956 17.0341 83.5464 17.0341C82.9744 17.0341 82.5237 17.161 82.1941 17.4147C81.8684 17.6647 81.643 17.9431 81.518 18.25L79.9214 17.8863C80.1108 17.356 80.3873 16.928 80.7509 16.6022C81.1184 16.2727 81.5407 16.0341 82.018 15.8863C82.4952 15.7348 82.9971 15.6591 83.5237 15.6591C83.8721 15.6591 84.2415 15.7007 84.6316 15.7841C85.0255 15.8636 85.393 16.0113 85.7339 16.2272C86.0786 16.4431 86.3608 16.7519 86.5805 17.1534C86.8002 17.5511 86.91 18.0681 86.91 18.7045V24.5H85.2509V23.3068H85.1827C85.0729 23.5265 84.9081 23.7424 84.6884 23.9545C84.4687 24.1666 84.1865 24.3428 83.8418 24.4829C83.4971 24.6231 83.0843 24.6931 82.6032 24.6931ZM82.9725 23.3295C83.4422 23.3295 83.8437 23.2367 84.1771 23.0511C84.5142 22.8655 84.7699 22.6231 84.9441 22.3238C85.1221 22.0208 85.2112 21.6969 85.2112 21.3522V20.2272C85.1505 20.2878 85.0331 20.3447 84.8589 20.3977C84.6884 20.4469 84.4933 20.4905 84.2737 20.5284C84.054 20.5625 83.8399 20.5947 83.6316 20.625C83.4233 20.6515 83.249 20.6742 83.1089 20.6931C82.7793 20.7348 82.4782 20.8049 82.2055 20.9034C81.9365 21.0019 81.7206 21.1439 81.5577 21.3295C81.3987 21.5113 81.3191 21.7538 81.3191 22.0568C81.3191 22.4772 81.4744 22.7954 81.785 23.0113C82.0956 23.2235 82.4915 23.3295 82.9725 23.3295ZM89.1728 24.5V15.7727H90.8717V24.5H89.1728ZM90.0308 14.4261C89.7353 14.4261 89.4815 14.3276 89.2694 14.1306C89.0611 13.9299 88.9569 13.6913 88.9569 13.4147C88.9569 13.1344 89.0611 12.8958 89.2694 12.6988C89.4815 12.4981 89.7353 12.3977 90.0308 12.3977C90.3262 12.3977 90.5781 12.4981 90.7864 12.6988C90.9986 12.8958 91.1046 13.1344 91.1046 13.4147C91.1046 13.6913 90.9986 13.9299 90.7864 14.1306C90.5781 14.3276 90.3262 14.4261 90.0308 14.4261ZM94.856 12.8636V24.5H93.1572V12.8636H94.856ZM99.6813 24.6931C99.1283 24.6931 98.6283 24.5909 98.1813 24.3863C97.7343 24.178 97.3802 23.8769 97.1188 23.4829C96.8612 23.089 96.7325 22.606 96.7325 22.0341C96.7325 21.5416 96.8272 21.1363 97.0165 20.8181C97.2059 20.5 97.4616 20.2481 97.7836 20.0625C98.1056 19.8769 98.4654 19.7367 98.8631 19.642C99.2609 19.5473 99.6662 19.4753 100.079 19.4261C100.602 19.3655 101.026 19.3163 101.352 19.2784C101.678 19.2367 101.914 19.1704 102.062 19.0795C102.21 18.9886 102.284 18.8409 102.284 18.6363V18.5966C102.284 18.1003 102.143 17.7159 101.863 17.4431C101.587 17.1704 101.174 17.0341 100.624 17.0341C100.053 17.0341 99.6018 17.161 99.2722 17.4147C98.9465 17.6647 98.7211 17.9431 98.5961 18.25L96.9995 17.8863C97.1889 17.356 97.4654 16.928 97.829 16.6022C98.1965 16.2727 98.6188 16.0341 99.0961 15.8863C99.5734 15.7348 100.075 15.6591 100.602 15.6591C100.95 15.6591 101.32 15.7007 101.71 15.7841C102.104 15.8636 102.471 16.0113 102.812 16.2272C103.157 16.4431 103.439 16.7519 103.659 17.1534C103.878 17.5511 103.988 18.0681 103.988 18.7045V24.5H102.329V23.3068H102.261C102.151 23.5265 101.986 23.7424 101.767 23.9545C101.547 24.1666 101.265 24.3428 100.92 24.4829C100.575 24.6231 100.162 24.6931 99.6813 24.6931ZM100.051 23.3295C100.52 23.3295 100.922 23.2367 101.255 23.0511C101.592 22.8655 101.848 22.6231 102.022 22.3238C102.2 22.0208 102.289 21.6969 102.289 21.3522V20.2272C102.229 20.2878 102.111 20.3447 101.937 20.3977C101.767 20.4469 101.571 20.4905 101.352 20.5284C101.132 20.5625 100.918 20.5947 100.71 20.625C100.501 20.6515 100.327 20.6742 100.187 20.6931C99.8575 20.7348 99.5563 20.8049 99.2836 20.9034C99.0147 21.0019 98.7987 21.1439 98.6359 21.3295C98.4768 21.5113 98.3972 21.7538 98.3972 22.0568C98.3972 22.4772 98.5525 22.7954 98.8631 23.0113C99.1737 23.2235 99.5696 23.3295 100.051 23.3295ZM106.387 24.5V12.8636H108.086V17.1875H108.188C108.287 17.0056 108.429 16.7954 108.615 16.5568C108.8 16.3181 109.058 16.1098 109.387 15.9318C109.717 15.75 110.152 15.6591 110.694 15.6591C111.399 15.6591 112.027 15.8371 112.58 16.1931C113.133 16.5492 113.567 17.0625 113.882 17.7329C114.2 18.4034 114.359 19.2102 114.359 20.1534C114.359 21.0966 114.202 21.9053 113.887 22.5795C113.573 23.25 113.141 23.767 112.592 24.1306C112.043 24.4905 111.416 24.6704 110.711 24.6704C110.181 24.6704 109.747 24.5814 109.41 24.4034C109.077 24.2253 108.815 24.017 108.626 23.7784C108.437 23.5397 108.291 23.3276 108.188 23.142H108.046V24.5H106.387ZM108.052 20.1363C108.052 20.75 108.141 21.2878 108.319 21.75C108.497 22.2121 108.755 22.5738 109.092 22.8352C109.429 23.0928 109.842 23.2216 110.33 23.2216C110.838 23.2216 111.262 23.0871 111.603 22.8181C111.944 22.5454 112.202 22.1761 112.376 21.7102C112.554 21.2443 112.643 20.7197 112.643 20.1363C112.643 19.5606 112.556 19.0435 112.382 18.5852C112.211 18.1269 111.954 17.7651 111.609 17.5C111.268 17.2348 110.842 17.1022 110.33 17.1022C109.838 17.1022 109.421 17.2291 109.08 17.4829C108.743 17.7367 108.488 18.0909 108.313 18.5454C108.139 19 108.052 19.5303 108.052 20.1363ZM117.965 12.8636V24.5H116.267V12.8636H117.965ZM124.012 24.6761C123.152 24.6761 122.412 24.4924 121.791 24.125C121.173 23.7538 120.696 23.2329 120.359 22.5625C120.026 21.8882 119.859 21.0985 119.859 20.1931C119.859 19.2992 120.026 18.5113 120.359 17.8295C120.696 17.1477 121.166 16.6155 121.768 16.2329C122.374 15.8503 123.082 15.6591 123.893 15.6591C124.385 15.6591 124.863 15.7405 125.325 15.9034C125.787 16.0663 126.202 16.3219 126.569 16.6704C126.937 17.0189 127.226 17.4716 127.438 18.0284C127.651 18.5814 127.757 19.2538 127.757 20.0454V20.6477H120.819V19.375H126.092C126.092 18.928 126.001 18.5322 125.819 18.1875C125.637 17.839 125.382 17.5644 125.052 17.3636C124.726 17.1628 124.344 17.0625 123.904 17.0625C123.427 17.0625 123.01 17.1799 122.654 17.4147C122.302 17.6458 122.029 17.9488 121.836 18.3238C121.647 18.695 121.552 19.0985 121.552 19.5341V20.5284C121.552 21.1117 121.654 21.6079 121.859 22.017C122.067 22.4261 122.357 22.7386 122.728 22.9545C123.099 23.1666 123.533 23.2727 124.029 23.2727C124.351 23.2727 124.645 23.2272 124.91 23.1363C125.175 23.0416 125.404 22.9015 125.598 22.7159C125.791 22.5303 125.938 22.3011 126.041 22.0284L127.649 22.3181C127.52 22.7916 127.289 23.2064 126.955 23.5625C126.626 23.9147 126.211 24.1894 125.711 24.3863C125.215 24.5795 124.649 24.6761 124.012 24.6761ZM138.029 15.7727V17.1363H133.098V15.7727H138.029ZM134.45 24.5V14.7613C134.45 14.2159 134.569 13.7632 134.808 13.4034C135.046 13.0397 135.363 12.7689 135.757 12.5909C136.151 12.4091 136.579 12.3181 137.041 12.3181C137.382 12.3181 137.673 12.3466 137.916 12.4034C138.158 12.4564 138.338 12.5056 138.455 12.5511L138.058 13.9261C137.978 13.9034 137.876 13.8769 137.751 13.8466C137.626 13.8125 137.474 13.7954 137.296 13.7954C136.883 13.7954 136.588 13.8977 136.41 14.1022C136.236 14.3068 136.149 14.6022 136.149 14.9886V24.5H134.45ZM143.115 24.6761C142.296 24.6761 141.582 24.4886 140.972 24.1136C140.363 23.7386 139.889 23.214 139.552 22.5397C139.215 21.8655 139.046 21.0776 139.046 20.1761C139.046 19.2708 139.215 18.4791 139.552 17.8011C139.889 17.1231 140.363 16.5966 140.972 16.2216C141.582 15.8466 142.296 15.6591 143.115 15.6591C143.933 15.6591 144.647 15.8466 145.257 16.2216C145.866 16.5966 146.34 17.1231 146.677 17.8011C147.014 18.4791 147.183 19.2708 147.183 20.1761C147.183 21.0776 147.014 21.8655 146.677 22.5397C146.34 23.214 145.866 23.7386 145.257 24.1136C144.647 24.4886 143.933 24.6761 143.115 24.6761ZM143.12 23.25C143.651 23.25 144.09 23.1098 144.438 22.8295C144.787 22.5492 145.044 22.1761 145.211 21.7102C145.382 21.2443 145.467 20.731 145.467 20.1704C145.467 19.6136 145.382 19.1022 145.211 18.6363C145.044 18.1666 144.787 17.7897 144.438 17.5056C144.09 17.2216 143.651 17.0795 143.12 17.0795C142.586 17.0795 142.143 17.2216 141.791 17.5056C141.442 17.7897 141.183 18.1666 141.012 18.6363C140.846 19.1022 140.762 19.6136 140.762 20.1704C140.762 20.731 140.846 21.2443 141.012 21.7102C141.183 22.1761 141.442 22.5492 141.791 22.8295C142.143 23.1098 142.586 23.25 143.12 23.25ZM149.079 24.5V15.7727H150.721V17.1591H150.812C150.971 16.6894 151.251 16.32 151.653 16.0511C152.058 15.7784 152.517 15.642 153.028 15.642C153.134 15.642 153.259 15.6458 153.403 15.6534C153.551 15.661 153.666 15.6704 153.749 15.6818V17.3068C153.681 17.2878 153.56 17.267 153.386 17.2443C153.212 17.2178 153.037 17.2045 152.863 17.2045C152.462 17.2045 152.104 17.2897 151.789 17.4602C151.479 17.6269 151.232 17.8598 151.051 18.1591C150.869 18.4545 150.778 18.7916 150.778 19.1704V24.5H149.079Z" fill="#E8E8E8"/>
<path d="M60.9352 43.5V31.1363H63.9235V41.0731H69.067V43.5H60.9352ZM70.6139 43.5V34.2272H73.566V43.5H70.6139ZM72.093 33.1466C71.6785 33.1466 71.3223 33.0098 71.0245 32.7361C70.7266 32.4584 70.5777 32.1244 70.5777 31.734C70.5777 31.3476 70.7266 31.0176 71.0245 30.7439C71.3223 30.4662 71.6785 30.3274 72.093 30.3274C72.5116 30.3274 72.8677 30.4662 73.1615 30.7439C73.4594 31.0176 73.6083 31.3476 73.6083 31.734C73.6083 32.1244 73.4594 32.4584 73.1615 32.7361C72.8677 33.0098 72.5116 33.1466 72.093 33.1466ZM80.679 34.2272V36.4005H74.8292V34.2272H80.679ZM76.0547 32.0057H79.0068V40.5841C79.0068 40.7652 79.035 40.9121 79.0913 41.0248C79.1517 41.1335 79.2382 41.212 79.3509 41.2603C79.4636 41.3045 79.5984 41.3267 79.7554 41.3267C79.8681 41.3267 79.9868 41.3166 80.1115 41.2965C80.2403 41.2723 80.3369 41.2522 80.4013 41.2361L80.848 43.3672C80.7072 43.4074 80.508 43.4577 80.2504 43.5181C79.9968 43.5784 79.693 43.6167 79.3388 43.6328C78.6466 43.665 78.053 43.5845 77.5579 43.3913C77.0669 43.1941 76.6906 42.8882 76.429 42.4737C76.1714 42.0592 76.0467 41.538 76.0547 40.9101V32.0057ZM86.4201 43.675C85.4502 43.675 84.6131 43.4839 83.9088 43.1015C83.2085 42.7152 82.6692 42.1658 82.2909 41.4534C81.9166 40.7371 81.7294 39.8859 81.7294 38.8998C81.7294 37.942 81.9186 37.1048 82.2969 36.3885C82.6752 35.6681 83.2085 35.1086 83.8967 34.7102C84.5849 34.3077 85.3959 34.1065 86.3296 34.1065C86.9896 34.1065 87.5933 34.2091 88.1407 34.4144C88.688 34.6196 89.1609 34.9235 89.5593 35.326C89.9578 35.7284 90.2677 36.2255 90.489 36.8171C90.7104 37.4047 90.8211 38.0788 90.8211 38.8395V39.576H82.7618V37.8615H88.0743C88.0702 37.5476 87.9958 37.2678 87.8509 37.0223C87.706 36.7768 87.5068 36.5857 87.2532 36.4488C87.0037 36.308 86.7159 36.2375 86.39 36.2375C86.0599 36.2375 85.7641 36.312 85.5025 36.4609C85.2409 36.6058 85.0337 36.805 84.8807 37.0586C84.7278 37.3081 84.6473 37.5918 84.6392 37.9098V39.6544C84.6392 40.0328 84.7137 40.3648 84.8626 40.6505C85.0115 40.9323 85.2228 41.1516 85.4965 41.3086C85.7702 41.4655 86.0962 41.544 86.4745 41.544C86.7361 41.544 86.9735 41.5078 87.1868 41.4353C87.4001 41.3629 87.5833 41.2562 87.7362 41.1154C87.8891 40.9745 88.0038 40.8015 88.0803 40.5962L90.7909 40.6747C90.6782 41.2824 90.4307 41.8116 90.0483 42.2624C89.67 42.7091 89.173 43.0573 88.5572 43.3068C87.9414 43.5523 87.2291 43.675 86.4201 43.675ZM92.3288 43.5V31.1363H95.3171V41.0731H100.461V43.5H92.3288ZM106.336 43.675C105.362 43.675 104.525 43.4758 103.825 43.0774C103.128 42.6749 102.591 42.1155 102.213 41.3991C101.838 40.6787 101.651 39.8436 101.651 38.8938C101.651 37.94 101.838 37.1048 102.213 36.3885C102.591 35.6681 103.128 35.1086 103.825 34.7102C104.525 34.3077 105.362 34.1065 106.336 34.1065C107.31 34.1065 108.145 34.3077 108.841 34.7102C109.542 35.1086 110.079 35.6681 110.453 36.3885C110.831 37.1048 111.021 37.94 111.021 38.8938C111.021 39.8436 110.831 40.6787 110.453 41.3991C110.079 42.1155 109.542 42.6749 108.841 43.0774C108.145 43.4758 107.31 43.675 106.336 43.675ZM106.354 41.4474C106.708 41.4474 107.008 41.3387 107.254 41.1214C107.499 40.9041 107.686 40.6022 107.815 40.2159C107.948 39.8295 108.014 39.3828 108.014 38.8757C108.014 38.3605 107.948 37.9098 107.815 37.5234C107.686 37.137 107.499 36.8352 107.254 36.6179C107.008 36.4005 106.708 36.2919 106.354 36.2919C105.988 36.2919 105.678 36.4005 105.424 36.6179C105.175 36.8352 104.984 37.137 104.851 37.5234C104.722 37.9098 104.658 38.3605 104.658 38.8757C104.658 39.3828 104.722 39.8295 104.851 40.2159C104.984 40.6022 105.175 40.9041 105.424 41.1214C105.678 41.3387 105.988 41.4474 106.354 41.4474ZM115.147 43.6569C114.555 43.6569 114.03 43.5583 113.571 43.3611C113.116 43.1599 112.756 42.858 112.491 42.4556C112.229 42.0491 112.098 41.54 112.098 40.9282C112.098 40.4131 112.189 39.9784 112.37 39.6243C112.551 39.2701 112.801 38.9823 113.118 38.761C113.436 38.5396 113.803 38.3726 114.217 38.2599C114.632 38.1432 115.074 38.0647 115.545 38.0245C116.073 37.9762 116.497 37.9259 116.819 37.8735C117.141 37.8172 117.374 37.7387 117.519 37.6381C117.668 37.5335 117.743 37.3866 117.743 37.1974V37.1672C117.743 36.8573 117.636 36.6179 117.423 36.4488C117.209 36.2798 116.922 36.1953 116.56 36.1953C116.169 36.1953 115.855 36.2798 115.618 36.4488C115.38 36.6179 115.229 36.8513 115.165 37.1491L112.442 37.0525C112.523 36.4891 112.73 35.986 113.064 35.5433C113.402 35.0966 113.865 34.7464 114.453 34.4929C115.044 34.2353 115.755 34.1065 116.584 34.1065C117.175 34.1065 117.721 34.1769 118.22 34.3178C118.719 34.4546 119.153 34.6559 119.524 34.9215C119.894 35.1831 120.18 35.5051 120.381 35.8874C120.586 36.2697 120.689 36.7064 120.689 37.1974V43.5H117.912V42.2081H117.839C117.674 42.522 117.463 42.7876 117.205 43.0049C116.952 43.2223 116.652 43.3853 116.306 43.4939C115.964 43.6026 115.578 43.6569 115.147 43.6569ZM116.058 41.7251C116.376 41.7251 116.662 41.6607 116.916 41.5319C117.173 41.4031 117.379 41.2261 117.531 41.0007C117.684 40.7713 117.761 40.5056 117.761 40.2038V39.3224C117.676 39.3667 117.574 39.4069 117.453 39.4431C117.336 39.4794 117.207 39.5136 117.067 39.5458C116.926 39.578 116.781 39.6061 116.632 39.6303C116.483 39.6544 116.34 39.6766 116.203 39.6967C115.926 39.741 115.688 39.8094 115.491 39.902C115.298 39.9945 115.149 40.1153 115.044 40.2642C114.944 40.4091 114.893 40.5821 114.893 40.7833C114.893 41.0892 115.002 41.3226 115.219 41.4836C115.441 41.6446 115.72 41.7251 116.058 41.7251ZM125.881 43.6328C125.196 43.6328 124.575 43.4557 124.015 43.1015C123.456 42.7474 123.009 42.2161 122.675 41.5078C122.341 40.7994 122.174 39.9201 122.174 38.8696C122.174 37.779 122.347 36.8815 122.693 36.1772C123.039 35.4729 123.492 34.9517 124.051 34.6136C124.615 34.2755 125.22 34.1065 125.868 34.1065C126.355 34.1065 126.772 34.191 127.118 34.3601C127.464 34.5251 127.75 34.7384 127.975 35C128.201 35.2616 128.372 35.5332 128.488 35.815H128.549V31.1363H131.501V43.5H128.579V41.9968H128.488C128.364 42.2825 128.187 42.5502 127.957 42.7997C127.728 43.0492 127.44 43.2504 127.094 43.4034C126.752 43.5563 126.347 43.6328 125.881 43.6328ZM126.907 41.3327C127.265 41.3327 127.571 41.2321 127.824 41.0309C128.078 40.8256 128.273 40.5378 128.41 40.1676C128.547 39.7973 128.615 39.3627 128.615 38.8636C128.615 38.3565 128.547 37.9198 128.41 37.5536C128.277 37.1873 128.082 36.9056 127.824 36.7084C127.571 36.5112 127.265 36.4126 126.907 36.4126C126.541 36.4126 126.231 36.5132 125.977 36.7145C125.724 36.9157 125.53 37.1994 125.398 37.5657C125.269 37.9319 125.204 38.3645 125.204 38.8636C125.204 39.3627 125.271 39.7973 125.404 40.1676C125.536 40.5378 125.728 40.8256 125.977 41.0309C126.231 41.2321 126.541 41.3327 126.907 41.3327ZM137.702 43.675C136.732 43.675 135.895 43.4839 135.191 43.1015C134.491 42.7152 133.951 42.1658 133.573 41.4534C133.199 40.7371 133.012 39.8859 133.012 38.8998C133.012 37.942 133.201 37.1048 133.579 36.3885C133.957 35.6681 134.491 35.1086 135.179 34.7102C135.867 34.3077 136.678 34.1065 137.612 34.1065C138.272 34.1065 138.876 34.2091 139.423 34.4144C139.97 34.6196 140.443 34.9235 140.842 35.326C141.24 35.7284 141.55 36.2255 141.771 36.8171C141.993 37.4047 142.103 38.0788 142.103 38.8395V39.576H134.044V37.8615H139.356C139.352 37.5476 139.278 37.2678 139.133 37.0223C138.988 36.7768 138.789 36.5857 138.535 36.4488C138.286 36.308 137.998 36.2375 137.672 36.2375C137.342 36.2375 137.046 36.312 136.785 36.4609C136.523 36.6058 136.316 36.805 136.163 37.0586C136.01 37.3081 135.93 37.5918 135.921 37.9098V39.6544C135.921 40.0328 135.996 40.3648 136.145 40.6505C136.294 40.9323 136.505 41.1516 136.779 41.3086C137.052 41.4655 137.378 41.544 137.757 41.544C138.018 41.544 138.256 41.5078 138.469 41.4353C138.682 41.3629 138.865 41.2562 139.018 41.1154C139.171 40.9745 139.286 40.8015 139.363 40.5962L142.073 40.6747C141.96 41.2824 141.713 41.8116 141.331 42.2624C140.952 42.7091 140.455 43.0573 139.839 43.3068C139.224 43.5523 138.511 43.675 137.702 43.675ZM143.611 43.5V34.2272H146.479V35.9176H146.575C146.744 35.3058 147.02 34.8511 147.402 34.5532C147.785 34.2514 148.229 34.1005 148.736 34.1005C148.873 34.1005 149.014 34.1105 149.159 34.1306C149.304 34.1467 149.439 34.1729 149.563 34.2091V36.7748C149.423 36.7265 149.237 36.6883 149.008 36.6601C148.783 36.632 148.581 36.6179 148.404 36.6179C148.054 36.6179 147.738 36.6963 147.457 36.8533C147.179 37.0062 146.959 37.2216 146.798 37.4993C146.642 37.7729 146.563 38.0949 146.563 38.4652V43.5H143.611Z" fill="#4E84C4"/>
</g>
<rect x="1.04951" y="1.04997" width="164.9" height="53.9" rx="6.95" stroke="white" stroke-opacity="0.15" stroke-width="2.1"/>
<defs>
<filter id="filter0_d_28_938" x="6.28523" y="2.28568" width="51.4286" height="51.4286" filterUnits="userSpaceOnUse" color-interpolation-filters="sRGB">
<feFlood flood-opacity="0" result="BackgroundImageFix"/>
<feColorMatrix in="SourceAlpha" type="matrix" values="0 0 0 0 0 0 0 0 0 0 0 0 0 0 0 0 0 0 127 0" result="hardAlpha"/>
<feOffset/>
<feGaussianBlur stdDeviation="2.85714"/>
<feComposite in2="hardAlpha" operator="out"/>
<feColorMatrix type="matrix" values="0 0 0 0 0 0 0 0 0 0 0 0 0 0 0 0 0 0 0.25 0"/>
<feBlend mode="normal" in2="BackgroundImageFix" result="effect1_dropShadow_28_938"/>
<feBlend mode="normal" in="SourceGraphic" in2="effect1_dropShadow_28_938" result="shape"/>
</filter>
<filter id="filter1_d_28_938" x="54.3995" y="3.89997" width="106.2" height="48.2" filterUnits="userSpaceOnUse" color-interpolation-filters="sRGB">
<feFlood flood-opacity="0" result="BackgroundImageFix"/>
<feColorMatrix in="SourceAlpha" type="matrix" values="0 0 0 0 0 0 0 0 0 0 0 0 0 0 0 0 0 0 127 0" result="hardAlpha"/>
<feOffset/>
<feGaussianBlur stdDeviation="2.8"/>
<feComposite in2="hardAlpha" operator="out"/>
<feColorMatrix type="matrix" values="0 0 0 0 0 0 0 0 0 0 0 0 0 0 0 0 0 0 0.25 0"/>
<feBlend mode="normal" in2="BackgroundImageFix" result="effect1_dropShadow_28_938"/>
<feBlend mode="normal" in="SourceGraphic" in2="effect1_dropShadow_28_938" result="shape"/>
</filter>
<linearGradient id="paint0_linear_28_938" x1="83.4995" y1="-3.05176e-05" x2="83.4995" y2="56" gradientUnits="userSpaceOnUse">
<stop stop-color="#131F2E"/>
<stop offset="1" stop-color="#0C141E"/>
</linearGradient>
</defs>
</svg>
