<svg width="120" height="40" viewBox="0 0 120 40" fill="none" xmlns="http://www.w3.org/2000/svg">
<rect x="-0.000366211" y="-6.10352e-05" width="120" height="40" rx="6" fill="url(#paint0_linear_28_1022)"/>
<g filter="url(#filter0_d_28_1022)">
<path d="M22.9606 25.0365L19.2704 25.7021L26.6509 29.6958L27.8809 27.6989L22.9606 25.0365Z" fill="#9C9C9C"/>
<path d="M22.9607 25.0365L27.881 27.6989V25.0365L22.9607 22.3741V25.0365Z" fill="#7E7E7E"/>
<path d="M35.2614 17.0492V30.3616L15.58 19.7121V6.39966L35.2614 17.0492Z" fill="#6A6A6A"/>
<path d="M16.3184 5.99994L15.5803 6.3993L35.2618 17.0488L35.9998 16.6494L16.3184 5.99994Z" fill="#9C9C9C"/>
<path d="M35.2615 30.3616L35.9995 29.9622V16.6498L35.2615 17.0491V30.3616Z" fill="#7E7E7E"/>
<path d="M16.8107 8.39612L34.0316 17.7149V28.3644L16.8107 19.0456V8.39612Z" fill="white"/>
<path d="M15.6899 25.0808L11.9996 27.3439L24.3004 33.9999L27.9907 31.7369L15.6899 25.0808Z" fill="#7E7E7E"/>
<path d="M24.3004 33.9999L27.9907 32.0031V31.7368L24.3004 33.9999Z" fill="#2D2D2D"/>
</g>
<g filter="url(#filter1_d_28_1022)">
<path d="M47.5543 17.9999H46.2731L49.152 9.99994H50.5465L53.4254 17.9999H52.1442L49.8824 11.4531H49.8199L47.5543 17.9999ZM47.7692 14.8671H51.9254V15.8827H47.7692V14.8671ZM58.8678 11.9999L56.692 17.9999H55.442L53.2623 11.9999H54.5162L56.0358 16.6171H56.0983L57.6139 11.9999H58.8678ZM61.5397 18.1327C61.1595 18.1327 60.8157 18.0624 60.5084 17.9218C60.2011 17.7786 59.9576 17.5716 59.778 17.3007C59.6009 17.0299 59.5123 16.6979 59.5123 16.3046C59.5123 15.9661 59.5774 15.6874 59.7076 15.4687C59.8378 15.2499 60.0136 15.0768 60.235 14.9492C60.4563 14.8216 60.7037 14.7252 60.9772 14.6601C61.2506 14.595 61.5293 14.5455 61.8131 14.5117C62.1725 14.47 62.4641 14.4361 62.6881 14.4101C62.9121 14.3814 63.0748 14.3359 63.1764 14.2734C63.2779 14.2109 63.3287 14.1093 63.3287 13.9687V13.9413C63.3287 13.6002 63.2324 13.3359 63.0397 13.1484C62.8496 12.9609 62.5657 12.8671 62.1881 12.8671C61.7949 12.8671 61.485 12.9544 61.2584 13.1288C61.0345 13.3007 60.8795 13.4921 60.7936 13.7031L59.6959 13.4531C59.8261 13.0885 60.0162 12.7942 60.2662 12.5702C60.5188 12.3437 60.8092 12.1796 61.1373 12.0781C61.4654 11.9739 61.8105 11.9218 62.1725 11.9218C62.4121 11.9218 62.666 11.9505 62.9342 12.0078C63.205 12.0624 63.4576 12.164 63.692 12.3124C63.929 12.4609 64.123 12.6731 64.274 12.9492C64.4251 13.2226 64.5006 13.5781 64.5006 14.0156V17.9999H63.36V17.1796H63.3131C63.2376 17.3307 63.1243 17.4791 62.9733 17.6249C62.8222 17.7708 62.6282 17.8919 62.3912 17.9882C62.1543 18.0846 61.8704 18.1327 61.5397 18.1327ZM61.7936 17.1952C62.1165 17.1952 62.3925 17.1314 62.6217 17.0038C62.8535 16.8762 63.0293 16.7096 63.149 16.5038C63.2714 16.2955 63.3326 16.0729 63.3326 15.8359V15.0624C63.291 15.1041 63.2102 15.1432 63.0904 15.1796C62.9733 15.2135 62.8391 15.2434 62.6881 15.2695C62.5371 15.2929 62.3899 15.315 62.2467 15.3359C62.1035 15.3541 61.9837 15.3697 61.8873 15.3827C61.6608 15.4114 61.4537 15.4596 61.2662 15.5273C61.0813 15.595 60.9329 15.6926 60.8209 15.8202C60.7115 15.9452 60.6569 16.1119 60.6569 16.3202C60.6569 16.6093 60.7636 16.8281 60.9772 16.9765C61.1907 17.1223 61.4628 17.1952 61.7936 17.1952ZM66.0563 17.9999V11.9999H67.2242V17.9999H66.0563ZM66.6461 11.0742C66.443 11.0742 66.2685 11.0064 66.1227 10.871C65.9794 10.733 65.9078 10.5689 65.9078 10.3788C65.9078 10.1861 65.9794 10.0221 66.1227 9.88666C66.2685 9.74864 66.443 9.67963 66.6461 9.67963C66.8492 9.67963 67.0224 9.74864 67.1656 9.88666C67.3115 10.0221 67.3844 10.1861 67.3844 10.3788C67.3844 10.5689 67.3115 10.733 67.1656 10.871C67.0224 11.0064 66.8492 11.0742 66.6461 11.0742ZM69.9635 9.99994V17.9999H68.7955V9.99994H69.9635ZM73.2809 18.1327C72.9007 18.1327 72.5569 18.0624 72.2496 17.9218C71.9423 17.7786 71.6988 17.5716 71.5192 17.3007C71.3421 17.0299 71.2535 16.6979 71.2535 16.3046C71.2535 15.9661 71.3186 15.6874 71.4488 15.4687C71.5791 15.2499 71.7548 15.0768 71.9762 14.9492C72.1975 14.8216 72.4449 14.7252 72.7184 14.6601C72.9918 14.595 73.2705 14.5455 73.5543 14.5117C73.9137 14.47 74.2054 14.4361 74.4293 14.4101C74.6533 14.3814 74.816 14.3359 74.9176 14.2734C75.0192 14.2109 75.0699 14.1093 75.0699 13.9687V13.9413C75.0699 13.6002 74.9736 13.3359 74.7809 13.1484C74.5908 12.9609 74.3069 12.8671 73.9293 12.8671C73.5361 12.8671 73.2262 12.9544 72.9996 13.1288C72.7757 13.3007 72.6207 13.4921 72.5348 13.7031L71.4371 13.4531C71.5673 13.0885 71.7574 12.7942 72.0074 12.5702C72.26 12.3437 72.5504 12.1796 72.8785 12.0781C73.2067 11.9739 73.5517 11.9218 73.9137 11.9218C74.1533 11.9218 74.4072 11.9505 74.6754 12.0078C74.9462 12.0624 75.1988 12.164 75.4332 12.3124C75.6702 12.4609 75.8642 12.6731 76.0152 12.9492C76.1663 13.2226 76.2418 13.5781 76.2418 14.0156V17.9999H75.1012V17.1796H75.0543C74.9788 17.3307 74.8655 17.4791 74.7145 17.6249C74.5634 17.7708 74.3694 17.8919 74.1324 17.9882C73.8955 18.0846 73.6116 18.1327 73.2809 18.1327ZM73.5348 17.1952C73.8577 17.1952 74.1337 17.1314 74.3629 17.0038C74.5947 16.8762 74.7705 16.7096 74.8903 16.5038C75.0126 16.2955 75.0738 16.0729 75.0738 15.8359V15.0624C75.0322 15.1041 74.9514 15.1432 74.8317 15.1796C74.7145 15.2135 74.5804 15.2434 74.4293 15.2695C74.2783 15.2929 74.1311 15.315 73.9879 15.3359C73.8447 15.3541 73.7249 15.3697 73.6285 15.3827C73.402 15.4114 73.1949 15.4596 73.0074 15.5273C72.8225 15.595 72.6741 15.6926 72.5621 15.8202C72.4528 15.9452 72.3981 16.1119 72.3981 16.3202C72.3981 16.6093 72.5048 16.8281 72.7184 16.9765C72.9319 17.1223 73.2041 17.1952 73.5348 17.1952ZM77.8912 17.9999V9.99994H79.0592V12.9726H79.1295C79.1972 12.8476 79.2949 12.7031 79.4225 12.539C79.5501 12.3749 79.7272 12.2317 79.9537 12.1093C80.1803 11.9843 80.4798 11.9218 80.8522 11.9218C81.3365 11.9218 81.7688 12.0442 82.149 12.289C82.5292 12.5338 82.8274 12.8867 83.0436 13.3476C83.2623 13.8085 83.3717 14.3632 83.3717 15.0117C83.3717 15.6601 83.2636 16.2161 83.0475 16.6796C82.8313 17.1406 82.5345 17.496 82.1568 17.746C81.7792 17.9934 81.3483 18.1171 80.8639 18.1171C80.4993 18.1171 80.2011 18.0559 79.9694 17.9335C79.7402 17.8111 79.5605 17.6679 79.4303 17.5038C79.3001 17.3398 79.1998 17.1939 79.1295 17.0663H79.0319V17.9999H77.8912ZM79.0358 14.9999C79.0358 15.4218 79.097 15.7916 79.2194 16.1093C79.3417 16.427 79.5188 16.6757 79.7506 16.8554C79.9824 17.0325 80.2662 17.121 80.6022 17.121C80.9511 17.121 81.2428 17.0286 81.4772 16.8437C81.7115 16.6562 81.8886 16.4023 82.0084 16.082C82.1308 15.7617 82.192 15.401 82.192 14.9999C82.192 14.6041 82.1321 14.2486 82.0123 13.9335C81.8951 13.6184 81.718 13.3697 81.4811 13.1874C81.2467 13.0051 80.9537 12.914 80.6022 12.914C80.2636 12.914 79.9772 13.0012 79.7428 13.1757C79.511 13.3502 79.3352 13.5937 79.2154 13.9062C79.0957 14.2187 79.0358 14.5833 79.0358 14.9999ZM85.8512 9.99994V17.9999H84.6832V9.99994H85.8512ZM90.0084 18.121C89.4173 18.121 88.9081 17.9947 88.4811 17.7421C88.0566 17.4869 87.7285 17.1288 87.4967 16.6679C87.2675 16.2044 87.1529 15.6614 87.1529 15.039C87.1529 14.4244 87.2675 13.8827 87.4967 13.414C87.7285 12.9452 88.0514 12.5794 88.4654 12.3163C88.8821 12.0533 89.3691 11.9218 89.9264 11.9218C90.2649 11.9218 90.593 11.9778 90.9108 12.0898C91.2285 12.2018 91.5136 12.3775 91.7662 12.6171C92.0188 12.8567 92.218 13.1679 92.3639 13.5507C92.5097 13.9309 92.5826 14.3932 92.5826 14.9374V15.3515H87.8131V14.4765H91.4381C91.4381 14.1692 91.3756 13.8971 91.2506 13.6601C91.1256 13.4205 90.9498 13.2317 90.7233 13.0937C90.4993 12.9557 90.2363 12.8867 89.9342 12.8867C89.6061 12.8867 89.3196 12.9674 89.0748 13.1288C88.8326 13.2877 88.6451 13.496 88.5123 13.7538C88.3821 14.0091 88.317 14.2864 88.317 14.5859V15.2695C88.317 15.6705 88.3873 16.0117 88.5279 16.2929C88.6712 16.5742 88.8704 16.789 89.1256 16.9374C89.3808 17.0833 89.679 17.1562 90.0201 17.1562C90.2415 17.1562 90.4433 17.1249 90.6256 17.0624C90.8079 16.9973 90.9654 16.901 91.0983 16.7734C91.2311 16.6458 91.3326 16.4882 91.4029 16.3007L92.5084 16.4999C92.4199 16.8255 92.261 17.1106 92.0318 17.3554C91.8053 17.5976 91.5201 17.7864 91.1764 17.9218C90.8352 18.0546 90.4459 18.121 90.0084 18.121ZM99.317 18.121C98.7545 18.121 98.2636 17.9921 97.8443 17.7343C97.4251 17.4765 97.0996 17.1158 96.8678 16.6523C96.636 16.1887 96.5201 15.6471 96.5201 15.0273C96.5201 14.4049 96.636 13.8606 96.8678 13.3945C97.0996 12.9283 97.4251 12.5663 97.8443 12.3085C98.2636 12.0507 98.7545 11.9218 99.317 11.9218C99.8795 11.9218 100.37 12.0507 100.79 12.3085C101.209 12.5663 101.534 12.9283 101.766 13.3945C101.998 13.8606 102.114 14.4049 102.114 15.0273C102.114 15.6471 101.998 16.1887 101.766 16.6523C101.534 17.1158 101.209 17.4765 100.79 17.7343C100.37 17.9921 99.8795 18.121 99.317 18.121ZM99.3209 17.1406C99.6855 17.1406 99.9876 17.0442 100.227 16.8515C100.467 16.6588 100.644 16.4023 100.758 16.082C100.876 15.7617 100.934 15.4088 100.934 15.0234C100.934 14.6406 100.876 14.289 100.758 13.9687C100.644 13.6458 100.467 13.3867 100.227 13.1913C99.9876 12.996 99.6855 12.8984 99.3209 12.8984C98.9537 12.8984 98.649 12.996 98.4068 13.1913C98.1673 13.3867 97.9889 13.6458 97.8717 13.9687C97.7571 14.289 97.6998 14.6406 97.6998 15.0234C97.6998 15.4088 97.7571 15.7617 97.8717 16.082C97.9889 16.4023 98.1673 16.6588 98.4068 16.8515C98.649 17.0442 98.9537 17.1406 99.3209 17.1406ZM104.586 14.4374V17.9999H103.418V11.9999H104.539V12.9765H104.613C104.751 12.6588 104.967 12.4036 105.261 12.2109C105.558 12.0182 105.932 11.9218 106.382 11.9218C106.791 11.9218 107.149 12.0078 107.457 12.1796C107.764 12.3489 108.002 12.6015 108.171 12.9374C108.341 13.2734 108.425 13.6887 108.425 14.1835V17.9999H107.257V14.3242C107.257 13.8893 107.144 13.5494 106.918 13.3046C106.691 13.0572 106.38 12.9335 105.984 12.9335C105.713 12.9335 105.472 12.9921 105.261 13.1093C105.053 13.2265 104.888 13.3984 104.765 13.6249C104.645 13.8489 104.586 14.1197 104.586 14.4374Z" fill="#E8E8E8"/>
<path d="M46.6601 30.9999V22.2727H50.2653C50.9187 22.2727 51.4826 22.4005 51.957 22.6562C52.4343 22.909 52.8022 23.2627 53.0607 23.7173C53.3192 24.169 53.4485 24.6945 53.4485 25.294C53.4485 25.8962 53.3164 26.4232 53.0522 26.8749C52.7908 27.3238 52.4172 27.6718 51.9315 27.919C51.4457 28.1661 50.869 28.2897 50.2013 28.2897H47.9769V26.6278H49.8093C50.1275 26.6278 50.3931 26.5724 50.6062 26.4616C50.8221 26.3508 50.9854 26.196 51.0962 25.9971C51.207 25.7954 51.2624 25.561 51.2624 25.294C51.2624 25.0241 51.207 24.7911 51.0962 24.5951C50.9854 24.3962 50.8221 24.2428 50.6062 24.1349C50.3903 24.0269 50.1246 23.9729 49.8093 23.9729H48.7695V30.9999H46.6601ZM62.4101 25.4346H60.2795C60.2511 25.2158 60.1928 25.0184 60.1047 24.8423C60.0167 24.6661 59.9002 24.5156 59.7553 24.3906C59.6104 24.2656 59.4386 24.1704 59.2397 24.1051C59.0437 24.0369 58.8263 24.0028 58.5877 24.0028C58.1644 24.0028 57.7993 24.1065 57.4925 24.3139C57.1886 24.5212 56.9542 24.821 56.7894 25.213C56.6275 25.6051 56.5465 26.0795 56.5465 26.6363C56.5465 27.2158 56.6289 27.7016 56.7937 28.0937C56.9613 28.4829 57.1957 28.7769 57.4968 28.9758C57.8008 29.1718 58.1601 29.2698 58.5749 29.2698C58.8079 29.2698 59.0195 29.24 59.2099 29.1803C59.403 29.1207 59.5721 29.034 59.717 28.9204C59.8647 28.8039 59.9854 28.6633 60.0792 28.4985C60.1758 28.3309 60.2425 28.142 60.2795 27.9318L62.4101 27.9445C62.3732 28.3309 62.261 28.7116 62.0735 29.0866C61.8888 29.4616 61.6346 29.8039 61.3107 30.1136C60.9868 30.4204 60.592 30.6647 60.1261 30.8465C59.663 31.0283 59.1317 31.1193 58.5323 31.1193C57.7425 31.1193 57.0351 30.946 56.4101 30.5994C55.788 30.2499 55.2965 29.7414 54.9357 29.0738C54.5749 28.4062 54.3945 27.5937 54.3945 26.6363C54.3945 25.6761 54.5778 24.8622 54.9442 24.1945C55.3107 23.5269 55.8064 23.0198 56.4314 22.6732C57.0564 22.3266 57.7567 22.1533 58.5323 22.1533C59.0607 22.1533 59.5493 22.2272 59.9982 22.3749C60.4471 22.5198 60.842 22.7329 61.1829 23.0141C61.5238 23.2926 61.8008 23.6349 62.0138 24.0411C62.2269 24.4474 62.359 24.9119 62.4101 25.4346Z" fill="white"/>
</g>
<rect x="0.749634" y="0.749939" width="118.5" height="38.5" rx="5.25" stroke="white" stroke-opacity="0.15" stroke-width="1.5"/>
<defs>
<filter id="filter0_d_28_1022" x="5.99963" y="1.99994" width="36" height="36" filterUnits="userSpaceOnUse" color-interpolation-filters="sRGB">
<feFlood flood-opacity="0" result="BackgroundImageFix"/>
<feColorMatrix in="SourceAlpha" type="matrix" values="0 0 0 0 0 0 0 0 0 0 0 0 0 0 0 0 0 0 127 0" result="hardAlpha"/>
<feOffset/>
<feGaussianBlur stdDeviation="2"/>
<feComposite in2="hardAlpha" operator="out"/>
<feColorMatrix type="matrix" values="0 0 0 0 0 0 0 0 0 0 0 0 0 0 0 0 0 0 0.25 0"/>
<feBlend mode="normal" in2="BackgroundImageFix" result="effect1_dropShadow_28_1022"/>
<feBlend mode="normal" in="SourceGraphic" in2="effect1_dropShadow_28_1022" result="shape"/>
</filter>
<filter id="filter1_d_28_1022" x="41.9996" y="2.99994" width="72" height="34" filterUnits="userSpaceOnUse" color-interpolation-filters="sRGB">
<feFlood flood-opacity="0" result="BackgroundImageFix"/>
<feColorMatrix in="SourceAlpha" type="matrix" values="0 0 0 0 0 0 0 0 0 0 0 0 0 0 0 0 0 0 127 0" result="hardAlpha"/>
<feOffset/>
<feGaussianBlur stdDeviation="2"/>
<feComposite in2="hardAlpha" operator="out"/>
<feColorMatrix type="matrix" values="0 0 0 0 0 0 0 0 0 0 0 0 0 0 0 0 0 0 0.25 0"/>
<feBlend mode="normal" in2="BackgroundImageFix" result="effect1_dropShadow_28_1022"/>
<feBlend mode="normal" in="SourceGraphic" in2="effect1_dropShadow_28_1022" result="shape"/>
</filter>
<linearGradient id="paint0_linear_28_1022" x1="-0.000123271" y1="40" x2="5.2853" y2="0.711061" gradientUnits="userSpaceOnUse">
<stop stop-color="#161616"/>
<stop offset="1" stop-color="#2D2D2D"/>
</linearGradient>
</defs>
</svg>
