<svg width="167" height="56" viewBox="0 0 167 56" fill="none" xmlns="http://www.w3.org/2000/svg">
<g clip-path="url(#clip0_28_950)">
<rect x="-0.000488281" y="-6.10352e-05" width="167" height="56" rx="8" fill="url(#paint0_linear_28_950)"/>
<g filter="url(#filter0_d_28_950)">
<path d="M23.1211 13.5364C23.1212 13.7238 23.1958 13.9035 23.3283 14.036C23.4608 14.1685 23.6405 14.243 23.8279 14.2432H25.0299V16.9299H23.8279C23.6404 16.9299 23.4607 17.0044 23.3281 17.1369C23.1955 17.2695 23.1211 17.4493 23.1211 17.6368C23.1211 17.8242 23.1955 18.004 23.3281 18.1366C23.4607 18.2691 23.6404 18.3436 23.8279 18.3436H25.0299V20.4041C25.0299 20.5702 24.9639 20.7295 24.8465 20.8469C24.729 20.9643 24.5697 21.0303 24.4036 21.0303H22.3432V19.8283C22.3432 19.6409 22.2687 19.4611 22.1362 19.3285C22.0036 19.196 21.8238 19.1215 21.6364 19.1215C21.4489 19.1215 21.2691 19.196 21.1365 19.3285C21.004 19.4611 20.9295 19.6409 20.9295 19.8283V21.0303H18.2428V19.8283C18.2428 19.6409 18.1684 19.4611 18.0358 19.3285C17.9032 19.196 17.7235 19.1215 17.536 19.1215C17.3485 19.1215 17.1687 19.196 17.0362 19.3285C16.9036 19.4611 16.8291 19.6409 16.8291 19.8283V21.0303H14.7687C14.6027 21.0301 14.4435 20.9641 14.3261 20.8467C14.2087 20.7293 14.1426 20.5701 14.1425 20.4041V10.7691C14.1425 10.603 14.2084 10.4437 14.3259 10.3262C14.4433 10.2088 14.6026 10.1428 14.7687 10.1428H24.4036C24.4859 10.1427 24.5674 10.1588 24.6434 10.1903C24.7194 10.2217 24.7885 10.2678 24.8467 10.326C24.9048 10.3842 24.951 10.4533 24.9824 10.5293C25.0138 10.6053 25.03 10.6868 25.0299 10.7691V12.8288H23.8279C23.6404 12.829 23.4606 12.9036 23.3281 13.0363C23.1955 13.169 23.1211 13.3488 23.1211 13.5364Z" fill="#9722FF"/>
<path d="M35.4205 13.5364C35.4205 13.7238 35.495 13.9036 35.6276 14.0362C35.7601 14.1687 35.9399 14.2432 36.1274 14.2432H37.3328V16.9299H36.1308C35.9433 16.9299 35.7635 17.0044 35.631 17.1369C35.4984 17.2695 35.4239 17.4493 35.4239 17.6368C35.4239 17.8242 35.4984 18.004 35.631 18.1366C35.7635 18.2691 35.9433 18.3436 36.1308 18.3436H37.3328V20.4041C37.3326 20.5701 37.2665 20.7293 37.1491 20.8467C37.0317 20.9641 36.8725 21.0301 36.7065 21.0303H27.0702C26.9041 21.0303 26.7448 20.9643 26.6274 20.8469C26.5099 20.7295 26.444 20.5702 26.444 20.4041V18.3436H27.6453C27.8327 18.3436 28.0125 18.2691 28.1451 18.1366C28.2776 18.004 28.3521 17.8242 28.3521 17.6368C28.3521 17.4493 28.2776 17.2695 28.1451 17.1369C28.0125 17.0044 27.8327 16.9299 27.6453 16.9299H26.444V14.2432H27.6453C27.74 14.2461 27.8343 14.23 27.9227 14.1958C28.0111 14.1616 28.0917 14.11 28.1597 14.044C28.2277 13.9781 28.2818 13.8991 28.3188 13.8118C28.3557 13.7246 28.3748 13.6308 28.3748 13.536C28.3748 13.4412 28.3557 13.3474 28.3188 13.2602C28.2818 13.1729 28.2277 13.094 28.1597 13.028C28.0917 12.962 28.0111 12.9104 27.9227 12.8762C27.8343 12.842 27.74 12.8259 27.6453 12.8288H26.444V10.7691C26.4439 10.6868 26.46 10.6053 26.4915 10.5293C26.5229 10.4533 26.569 10.3842 26.6272 10.326C26.6854 10.2678 26.7544 10.2217 26.8305 10.1903C26.9065 10.1588 26.988 10.1427 27.0702 10.1428H36.7051C36.8712 10.1428 37.0305 10.2088 37.148 10.3262C37.2654 10.4437 37.3314 10.603 37.3314 10.7691V12.8288H36.1294C36.0364 12.8286 35.9442 12.8467 35.8581 12.8821C35.7721 12.9175 35.6939 12.9696 35.628 13.0354C35.5622 13.1011 35.5099 13.1792 35.4743 13.2652C35.4387 13.3511 35.4204 13.4433 35.4205 13.5364Z" fill="#DC29DD"/>
<path d="M49.6325 10.7691V20.4041C49.6325 20.5702 49.5666 20.7295 49.4491 20.8469C49.3317 20.9643 49.1724 21.0303 49.0063 21.0303H46.9459V19.8283C46.9459 19.6409 46.8714 19.4611 46.7388 19.3285C46.6063 19.196 46.4265 19.1215 46.239 19.1215C46.0515 19.1215 45.8718 19.196 45.7392 19.3285C45.6066 19.4611 45.5322 19.6409 45.5322 19.8283V21.0303H42.8455V19.8283C42.8455 19.6409 42.771 19.4611 42.6385 19.3285C42.5059 19.196 42.3261 19.1215 42.1386 19.1215C41.9512 19.1215 41.7714 19.196 41.6388 19.3285C41.5063 19.4611 41.4318 19.6409 41.4318 19.8283V21.0303H39.3714C39.2053 21.0301 39.0462 20.9641 38.9287 20.8467C38.8113 20.7293 38.7453 20.5701 38.7451 20.4041V18.3436H39.9471C40.1346 18.3436 40.3143 18.2691 40.4469 18.1366C40.5795 18.004 40.6539 17.8242 40.6539 17.6368C40.6539 17.4493 40.5795 17.2695 40.4469 17.1369C40.3143 17.0044 40.1346 16.9299 39.9471 16.9299H38.7451V14.2432H39.9471C40.1308 14.2375 40.3052 14.1605 40.4331 14.0285C40.5611 13.8965 40.6326 13.7199 40.6326 13.536C40.6326 13.3522 40.5611 13.1755 40.4331 13.0435C40.3052 12.9115 40.1308 12.8345 39.9471 12.8288H38.7451V10.7691C38.7451 10.603 38.8111 10.4437 38.9285 10.3262C39.046 10.2088 39.2053 10.1428 39.3714 10.1428H49.0063C49.0886 10.1427 49.17 10.1588 49.246 10.1903C49.3221 10.2217 49.3911 10.2678 49.4493 10.326C49.5075 10.3842 49.5536 10.4533 49.5851 10.5293C49.6165 10.6053 49.6326 10.6868 49.6325 10.7691Z" fill="#27A2FD"/>
<path d="M25.0298 23.0703V32.7053C25.0299 32.7876 25.0137 32.869 24.9823 32.9451C24.9508 33.0211 24.9047 33.0902 24.8465 33.1483C24.7884 33.2065 24.7193 33.2526 24.6433 33.2841C24.5672 33.3155 24.4858 33.3317 24.4035 33.3316H22.3431V32.1296C22.3431 31.9421 22.2686 31.7623 22.136 31.6298C22.0035 31.4972 21.8237 31.4227 21.6362 31.4227C21.4488 31.4227 21.269 31.4972 21.1364 31.6298C21.0039 31.7623 20.9294 31.9421 20.9294 32.1296V33.3329H18.2427V32.131C18.2427 31.9435 18.1682 31.7637 18.0357 31.6311C17.9031 31.4986 17.7233 31.4241 17.5359 31.4241C17.3484 31.4241 17.1686 31.4986 17.036 31.6311C16.9035 31.7637 16.829 31.9435 16.829 32.131V33.3329H14.7686C14.6025 33.3329 14.4432 33.267 14.3258 33.1495C14.2083 33.0321 14.1423 32.8728 14.1423 32.7067V23.0703C14.1425 22.9043 14.2086 22.7451 14.326 22.6277C14.4434 22.5103 14.6026 22.4442 14.7686 22.444H16.829V23.646C16.829 23.8335 16.9035 24.0133 17.036 24.1458C17.1686 24.2784 17.3484 24.3529 17.5359 24.3529C17.7233 24.3529 17.9031 24.2784 18.0357 24.1458C18.1682 24.0133 18.2427 23.8335 18.2427 23.646V22.444H20.9294V23.646C20.9294 23.8335 21.0039 24.0133 21.1364 24.1458C21.269 24.2784 21.4488 24.3529 21.6362 24.3529C21.8237 24.3529 22.0035 24.2784 22.136 24.1458C22.2686 24.0133 22.3431 23.8335 22.3431 23.646V22.444H24.4035C24.4857 22.444 24.5672 22.4602 24.6432 22.4917C24.7191 22.5232 24.7882 22.5693 24.8463 22.6275C24.9045 22.6856 24.9506 22.7547 24.9821 22.8306C25.0136 22.9066 25.0298 22.9881 25.0298 23.0703Z" fill="#DC29DD"/>
<path d="M35.4205 25.8376C35.4205 26.0251 35.495 26.2049 35.6276 26.3374C35.7601 26.47 35.9399 26.5444 36.1274 26.5444H37.3328V29.2312H36.1308C35.9433 29.2312 35.7635 29.3056 35.631 29.4382C35.4984 29.5707 35.4239 29.7505 35.4239 29.938C35.4239 30.1255 35.4984 30.3053 35.631 30.4378C35.7635 30.5704 35.9433 30.6449 36.1308 30.6449H37.3328V32.7053C37.3328 32.8714 37.2668 33.0307 37.1493 33.1481C37.0319 33.2656 36.8726 33.3316 36.7065 33.3316H34.6447V32.1296C34.6447 31.9421 34.5702 31.7623 34.4377 31.6298C34.3051 31.4972 34.1253 31.4227 33.9379 31.4227C33.7504 31.4227 33.5706 31.4972 33.4381 31.6298C33.3055 31.7623 33.231 31.9421 33.231 32.1296V33.3329H30.5443V32.131C30.5386 31.9472 30.4616 31.7729 30.3296 31.6449C30.1976 31.517 30.021 31.4454 29.8372 31.4454C29.6533 31.4454 29.4767 31.517 29.3447 31.6449C29.2127 31.7729 29.1357 31.9472 29.13 32.131V33.3329H27.0702C26.988 33.333 26.9065 33.3169 26.8305 33.2854C26.7544 33.254 26.6854 33.2079 26.6272 33.1497C26.569 33.0915 26.5229 33.0225 26.4915 32.9464C26.46 32.8704 26.4439 32.7889 26.444 32.7067V23.0703C26.444 22.9042 26.5099 22.7449 26.6274 22.6275C26.7448 22.51 26.9041 22.444 27.0702 22.444H36.7051C36.8712 22.4442 37.0304 22.5103 37.1478 22.6277C37.2652 22.7451 37.3312 22.9043 37.3314 23.0703V25.1307H36.1294C36.0364 25.1305 35.9443 25.1486 35.8583 25.184C35.7723 25.2194 35.6941 25.2714 35.6283 25.337C35.5624 25.4027 35.5102 25.4807 35.4745 25.5666C35.4389 25.6525 35.4205 25.7446 35.4205 25.8376Z" fill="#27A2FD"/>
<path d="M49.6325 23.0703V32.7053C49.6326 32.7876 49.6165 32.8691 49.5851 32.9451C49.5536 33.0211 49.5075 33.0902 49.4493 33.1483C49.3911 33.2065 49.3221 33.2526 49.246 33.2841C49.17 33.3155 49.0886 33.3317 49.0063 33.3316H39.3714C39.2053 33.3316 39.046 33.2656 38.9285 33.1481C38.8111 33.0307 38.7451 32.8714 38.7451 32.7053V30.6449H39.9471C40.1346 30.6449 40.3143 30.5704 40.4469 30.4378C40.5795 30.3053 40.6539 30.1255 40.6539 29.938C40.6539 29.7505 40.5795 29.5707 40.4469 29.4382C40.3143 29.3056 40.1346 29.2312 39.9471 29.2312H38.7451V26.5444H39.9471C40.1346 26.5444 40.3143 26.47 40.4469 26.3374C40.5795 26.2049 40.6539 26.0251 40.6539 25.8376C40.6539 25.6501 40.5795 25.4703 40.4469 25.3378C40.3143 25.2052 40.1346 25.1307 39.9471 25.1307H38.7451V23.0703C38.7453 22.9043 38.8113 22.7451 38.9287 22.6277C39.0462 22.5103 39.2053 22.4442 39.3714 22.444H41.4304V23.646C41.4304 23.8335 41.5049 24.0133 41.6375 24.1458C41.77 24.2784 41.9498 24.3529 42.1373 24.3529C42.3247 24.3529 42.5045 24.2784 42.6371 24.1458C42.7697 24.0133 42.8441 23.8335 42.8441 23.646V22.444H45.5308V23.646C45.5308 23.8335 45.6053 24.0133 45.7378 24.1458C45.8704 24.2784 46.0502 24.3529 46.2377 24.3529C46.4251 24.3529 46.6049 24.2784 46.7375 24.1458C46.87 24.0133 46.9445 23.8335 46.9445 23.646V22.444H49.0049C49.0873 22.4439 49.1689 22.4599 49.245 22.4913C49.3211 22.5227 49.3903 22.5688 49.4486 22.627C49.5069 22.6851 49.5532 22.7542 49.5847 22.8303C49.6163 22.9064 49.6325 22.9879 49.6325 23.0703Z" fill="#3344FF"/>
<path d="M23.1209 38.1395C23.1211 38.3269 23.1957 38.5066 23.3282 38.6391C23.4607 38.7716 23.6404 38.8462 23.8278 38.8464H25.0298V41.5324H23.8278C23.644 41.5381 23.4697 41.6151 23.3418 41.7471C23.2138 41.8791 23.1422 42.0557 23.1422 42.2396C23.1422 42.4234 23.2138 42.6 23.3418 42.732C23.4697 42.864 23.644 42.9411 23.8278 42.9468H25.0298V45.0072C25.0298 45.1733 24.9638 45.3326 24.8463 45.4501C24.7289 45.5675 24.5696 45.6335 24.4035 45.6335H14.7686C14.6026 45.6333 14.4434 45.5673 14.326 45.4499C14.2086 45.3324 14.1425 45.1733 14.1423 45.0072V35.3722C14.1423 35.2061 14.2083 35.0468 14.3258 34.9294C14.4432 34.8119 14.6025 34.7459 14.7686 34.7459H16.829V35.9472C16.829 36.1347 16.9035 36.3145 17.036 36.4471C17.1686 36.5796 17.3484 36.6541 17.5359 36.6541C17.7233 36.6541 17.9031 36.5796 18.0357 36.4471C18.1682 36.3145 18.2427 36.1347 18.2427 35.9472V34.7459H20.9294V35.9472C20.9294 36.1347 21.0039 36.3145 21.1364 36.4471C21.269 36.5796 21.4488 36.6541 21.6362 36.6541C21.8237 36.6541 22.0035 36.5796 22.136 36.4471C22.2686 36.3145 22.3431 36.1347 22.3431 35.9472V34.7459H24.4035C24.4858 34.7459 24.5672 34.762 24.6433 34.7934C24.7193 34.8249 24.7884 34.871 24.8465 34.9292C24.9047 34.9873 24.9508 35.0564 24.9823 35.1324C25.0137 35.2085 25.0299 35.2899 25.0298 35.3722V37.4306H23.8278C23.7348 37.4307 23.6428 37.4491 23.5569 37.4848C23.4711 37.5205 23.3931 37.5727 23.3274 37.6386C23.2618 37.7044 23.2098 37.7825 23.1743 37.8685C23.1389 37.9544 23.1208 38.0465 23.1209 38.1395Z" fill="#9722FF"/>
<path d="M37.3328 35.3722V45.0072C37.3326 45.1733 37.2665 45.3324 37.1491 45.4499C37.0317 45.5673 36.8725 45.6333 36.7065 45.6335H27.0702C26.9041 45.6335 26.7448 45.5675 26.6274 45.4501C26.5099 45.3326 26.444 45.1733 26.444 45.0072V42.9468H27.6453C27.74 42.9497 27.8343 42.9336 27.9227 42.8994C28.0111 42.8652 28.0917 42.8135 28.1597 42.7476C28.2277 42.6816 28.2818 42.6027 28.3188 42.5154C28.3557 42.4281 28.3748 42.3343 28.3748 42.2396C28.3748 42.1448 28.3557 42.051 28.3188 41.9637C28.2818 41.8765 28.2277 41.7975 28.1597 41.7316C28.0917 41.6656 28.0111 41.614 27.9227 41.5798C27.8343 41.5456 27.74 41.5294 27.6453 41.5324H26.444V38.8464H27.6453C27.74 38.8493 27.8343 38.8332 27.9227 38.799C28.0111 38.7648 28.0917 38.7131 28.1597 38.6472C28.2277 38.5812 28.2818 38.5023 28.3188 38.415C28.3557 38.3277 28.3748 38.2339 28.3748 38.1392C28.3748 38.0444 28.3557 37.9506 28.3188 37.8633C28.2818 37.7761 28.2277 37.6971 28.1597 37.6312C28.0917 37.5652 28.0111 37.5136 27.9227 37.4794C27.8343 37.4451 27.74 37.429 27.6453 37.432H26.444V35.3722C26.4439 35.2899 26.46 35.2085 26.4915 35.1324C26.5229 35.0564 26.569 34.9873 26.6272 34.9292C26.6854 34.871 26.7544 34.8249 26.8305 34.7934C26.9065 34.762 26.988 34.7459 27.0702 34.7459H29.13V35.9472C29.127 36.042 29.1431 36.1363 29.1774 36.2247C29.2116 36.3131 29.2632 36.3937 29.3291 36.4617C29.3951 36.5297 29.4741 36.5838 29.5613 36.6208C29.6486 36.6577 29.7424 36.6768 29.8372 36.6768C29.9319 36.6768 30.0257 36.6577 30.113 36.6208C30.2002 36.5838 30.2792 36.5297 30.3452 36.4617C30.4111 36.3937 30.4627 36.3131 30.497 36.2247C30.5312 36.1363 30.5473 36.042 30.5443 35.9472V34.7459H33.231V35.9472C33.231 36.0401 33.2493 36.132 33.2848 36.2177C33.3204 36.3035 33.3724 36.3814 33.4381 36.4471C33.5037 36.5127 33.5816 36.5648 33.6674 36.6003C33.7531 36.6358 33.845 36.6541 33.9379 36.6541C34.0307 36.6541 34.1226 36.6358 34.2084 36.6003C34.2941 36.5648 34.372 36.5127 34.4377 36.4471C34.5033 36.3814 34.5554 36.3035 34.5909 36.2177C34.6264 36.132 34.6447 36.0401 34.6447 35.9472V34.7459H36.7051C36.7875 34.7458 36.8691 34.7618 36.9452 34.7932C37.0214 34.8246 37.0906 34.8707 37.1489 34.9289C37.2072 34.9871 37.2534 35.0562 37.285 35.1322C37.3165 35.2083 37.3328 35.2898 37.3328 35.3722Z" fill="#3344FF"/>
<path d="M46.0007 35.1883L39.1878 42.0013C38.9433 42.2459 38.9433 42.6424 39.1878 42.887L46.0007 49.6999C46.2453 49.9445 46.6418 49.9445 46.8864 49.6999L53.6993 42.887C53.9439 42.6424 53.9439 42.2459 53.6993 42.0013L46.8864 35.1883C46.6418 34.9437 46.2453 34.9437 46.0007 35.1883Z" fill="#9722FF"/>
</g>
<g filter="url(#filter1_d_28_950)">
<path d="M62.2609 24.4999H60.3972L64.5847 12.8636H66.6131L70.8006 24.4999H68.937L65.6472 14.9772H65.5563L62.2609 24.4999ZM62.5734 19.9431H68.6188V21.4204H62.5734V19.9431ZM78.7168 15.7727L75.5521 24.4999H73.7339L70.5634 15.7727H72.3873L74.5975 22.4886H74.6884L76.893 15.7727H78.7168ZM82.6032 24.6931C82.0502 24.6931 81.5502 24.5908 81.1032 24.3863C80.6562 24.178 80.3021 23.8768 80.0407 23.4829C79.7831 23.089 79.6543 22.606 79.6543 22.034C79.6543 21.5416 79.749 21.1363 79.9384 20.8181C80.1278 20.4999 80.3835 20.248 80.7055 20.0624C81.0274 19.8768 81.3873 19.7367 81.785 19.642C82.1827 19.5473 82.588 19.4753 83.0009 19.4261C83.5237 19.3655 83.9479 19.3162 84.2737 19.2783C84.5994 19.2367 84.8362 19.1704 84.9839 19.0795C85.1316 18.9886 85.2055 18.8408 85.2055 18.6363V18.5965C85.2055 18.1003 85.0653 17.7158 84.785 17.4431C84.5085 17.1704 84.0956 17.034 83.5464 17.034C82.9744 17.034 82.5237 17.1609 82.1941 17.4147C81.8684 17.6647 81.643 17.9431 81.518 18.2499L79.9214 17.8863C80.1108 17.356 80.3873 16.928 80.7509 16.6022C81.1184 16.2727 81.5407 16.034 82.018 15.8863C82.4952 15.7348 82.9971 15.659 83.5237 15.659C83.8721 15.659 84.2415 15.7007 84.6316 15.784C85.0255 15.8636 85.393 16.0113 85.7339 16.2272C86.0786 16.4431 86.3608 16.7518 86.5805 17.1533C86.8002 17.5511 86.91 18.0681 86.91 18.7045V24.4999H85.2509V23.3068H85.1827C85.0729 23.5264 84.9081 23.7424 84.6884 23.9545C84.4687 24.1666 84.1865 24.3427 83.8418 24.4829C83.4971 24.623 83.0843 24.6931 82.6032 24.6931ZM82.9725 23.3295C83.4422 23.3295 83.8437 23.2367 84.1771 23.0511C84.5142 22.8655 84.7699 22.623 84.9441 22.3238C85.1221 22.0208 85.2112 21.6969 85.2112 21.3522V20.2272C85.1505 20.2878 85.0331 20.3446 84.8589 20.3977C84.6884 20.4469 84.4933 20.4905 84.2737 20.5283C84.054 20.5624 83.8399 20.5946 83.6316 20.6249C83.4233 20.6515 83.249 20.6742 83.1089 20.6931C82.7793 20.7348 82.4782 20.8049 82.2055 20.9033C81.9365 21.0018 81.7206 21.1439 81.5577 21.3295C81.3987 21.5113 81.3191 21.7537 81.3191 22.0568C81.3191 22.4772 81.4744 22.7954 81.785 23.0113C82.0956 23.2234 82.4915 23.3295 82.9725 23.3295ZM89.1728 24.4999V15.7727H90.8717V24.4999H89.1728ZM90.0308 14.4261C89.7353 14.4261 89.4815 14.3276 89.2694 14.1306C89.0611 13.9299 88.9569 13.6912 88.9569 13.4147C88.9569 13.1344 89.0611 12.8958 89.2694 12.6988C89.4815 12.498 89.7353 12.3977 90.0308 12.3977C90.3262 12.3977 90.5781 12.498 90.7864 12.6988C90.9986 12.8958 91.1046 13.1344 91.1046 13.4147C91.1046 13.6912 90.9986 13.9299 90.7864 14.1306C90.5781 14.3276 90.3262 14.4261 90.0308 14.4261ZM94.856 12.8636V24.4999H93.1572V12.8636H94.856ZM99.6813 24.6931C99.1283 24.6931 98.6283 24.5908 98.1813 24.3863C97.7343 24.178 97.3802 23.8768 97.1188 23.4829C96.8612 23.089 96.7325 22.606 96.7325 22.034C96.7325 21.5416 96.8272 21.1363 97.0165 20.8181C97.2059 20.4999 97.4616 20.248 97.7836 20.0624C98.1056 19.8768 98.4654 19.7367 98.8631 19.642C99.2609 19.5473 99.6662 19.4753 100.079 19.4261C100.602 19.3655 101.026 19.3162 101.352 19.2783C101.678 19.2367 101.914 19.1704 102.062 19.0795C102.21 18.9886 102.284 18.8408 102.284 18.6363V18.5965C102.284 18.1003 102.143 17.7158 101.863 17.4431C101.587 17.1704 101.174 17.034 100.624 17.034C100.053 17.034 99.6018 17.1609 99.2722 17.4147C98.9465 17.6647 98.7211 17.9431 98.5961 18.2499L96.9995 17.8863C97.1889 17.356 97.4654 16.928 97.829 16.6022C98.1965 16.2727 98.6188 16.034 99.0961 15.8863C99.5734 15.7348 100.075 15.659 100.602 15.659C100.95 15.659 101.32 15.7007 101.71 15.784C102.104 15.8636 102.471 16.0113 102.812 16.2272C103.157 16.4431 103.439 16.7518 103.659 17.1533C103.878 17.5511 103.988 18.0681 103.988 18.7045V24.4999H102.329V23.3068H102.261C102.151 23.5264 101.986 23.7424 101.767 23.9545C101.547 24.1666 101.265 24.3427 100.92 24.4829C100.575 24.623 100.162 24.6931 99.6813 24.6931ZM100.051 23.3295C100.52 23.3295 100.922 23.2367 101.255 23.0511C101.592 22.8655 101.848 22.623 102.022 22.3238C102.2 22.0208 102.289 21.6969 102.289 21.3522V20.2272C102.229 20.2878 102.111 20.3446 101.937 20.3977C101.767 20.4469 101.571 20.4905 101.352 20.5283C101.132 20.5624 100.918 20.5946 100.71 20.6249C100.501 20.6515 100.327 20.6742 100.187 20.6931C99.8575 20.7348 99.5563 20.8049 99.2836 20.9033C99.0147 21.0018 98.7987 21.1439 98.6359 21.3295C98.4768 21.5113 98.3972 21.7537 98.3972 22.0568C98.3972 22.4772 98.5525 22.7954 98.8631 23.0113C99.1737 23.2234 99.5696 23.3295 100.051 23.3295ZM106.387 24.4999V12.8636H108.086V17.1874H108.188C108.287 17.0056 108.429 16.7954 108.615 16.5568C108.8 16.3181 109.058 16.1098 109.387 15.9318C109.717 15.7499 110.152 15.659 110.694 15.659C111.399 15.659 112.027 15.8371 112.58 16.1931C113.133 16.5492 113.567 17.0624 113.882 17.7329C114.2 18.4033 114.359 19.2102 114.359 20.1533C114.359 21.0965 114.202 21.9052 113.887 22.5795C113.573 23.2499 113.141 23.767 112.592 24.1306C112.043 24.4905 111.416 24.6704 110.711 24.6704C110.181 24.6704 109.747 24.5814 109.41 24.4033C109.077 24.2253 108.815 24.017 108.626 23.7783C108.437 23.5397 108.291 23.3276 108.188 23.142H108.046V24.4999H106.387ZM108.052 20.1363C108.052 20.7499 108.141 21.2878 108.319 21.7499C108.497 22.2121 108.755 22.5738 109.092 22.8352C109.429 23.0927 109.842 23.2215 110.33 23.2215C110.838 23.2215 111.262 23.0871 111.603 22.8181C111.944 22.5454 112.202 22.1761 112.376 21.7102C112.554 21.2443 112.643 20.7196 112.643 20.1363C112.643 19.5605 112.556 19.0435 112.382 18.5852C112.211 18.1268 111.954 17.7651 111.609 17.4999C111.268 17.2348 110.842 17.1022 110.33 17.1022C109.838 17.1022 109.421 17.2291 109.08 17.4829C108.743 17.7367 108.488 18.0908 108.313 18.5454C108.139 18.9999 108.052 19.5302 108.052 20.1363ZM117.965 12.8636V24.4999H116.267V12.8636H117.965ZM124.012 24.6761C123.152 24.6761 122.412 24.4924 121.791 24.1249C121.173 23.7537 120.696 23.2329 120.359 22.5624C120.026 21.8882 119.859 21.0984 119.859 20.1931C119.859 19.2992 120.026 18.5113 120.359 17.8295C120.696 17.1477 121.166 16.6155 121.768 16.2329C122.374 15.8503 123.082 15.659 123.893 15.659C124.385 15.659 124.863 15.7405 125.325 15.9033C125.787 16.0662 126.202 16.3219 126.569 16.6704C126.937 17.0189 127.226 17.4715 127.438 18.0283C127.651 18.5814 127.757 19.2537 127.757 20.0454V20.6477H120.819V19.3749H126.092C126.092 18.928 126.001 18.5321 125.819 18.1874C125.637 17.839 125.382 17.5643 125.052 17.3636C124.726 17.1628 124.344 17.0624 123.904 17.0624C123.427 17.0624 123.01 17.1799 122.654 17.4147C122.302 17.6458 122.029 17.9488 121.836 18.3238C121.647 18.695 121.552 19.0984 121.552 19.534V20.5283C121.552 21.1117 121.654 21.6079 121.859 22.017C122.067 22.4261 122.357 22.7386 122.728 22.9545C123.099 23.1666 123.533 23.2727 124.029 23.2727C124.351 23.2727 124.645 23.2272 124.91 23.1363C125.175 23.0416 125.404 22.9015 125.598 22.7158C125.791 22.5302 125.938 22.3011 126.041 22.0283L127.649 22.3181C127.52 22.7916 127.289 23.2064 126.955 23.5624C126.626 23.9147 126.211 24.1893 125.711 24.3863C125.215 24.5795 124.649 24.6761 124.012 24.6761ZM138.029 15.7727V17.1363H133.098V15.7727H138.029ZM134.45 24.4999V14.7613C134.45 14.2158 134.569 13.7632 134.808 13.4033C135.046 13.0397 135.363 12.7689 135.757 12.5908C136.151 12.409 136.579 12.3181 137.041 12.3181C137.382 12.3181 137.673 12.3465 137.916 12.4033C138.158 12.4564 138.338 12.5056 138.455 12.5511L138.058 13.9261C137.978 13.9033 137.876 13.8768 137.751 13.8465C137.626 13.8124 137.474 13.7954 137.296 13.7954C136.883 13.7954 136.588 13.8977 136.41 14.1022C136.236 14.3068 136.149 14.6022 136.149 14.9886V24.4999H134.45ZM143.115 24.6761C142.296 24.6761 141.582 24.4886 140.972 24.1136C140.363 23.7386 139.889 23.2139 139.552 22.5397C139.215 21.8655 139.046 21.0776 139.046 20.1761C139.046 19.2708 139.215 18.4791 139.552 17.8011C139.889 17.123 140.363 16.5965 140.972 16.2215C141.582 15.8465 142.296 15.659 143.115 15.659C143.933 15.659 144.647 15.8465 145.257 16.2215C145.866 16.5965 146.34 17.123 146.677 17.8011C147.014 18.4791 147.183 19.2708 147.183 20.1761C147.183 21.0776 147.014 21.8655 146.677 22.5397C146.34 23.2139 145.866 23.7386 145.257 24.1136C144.647 24.4886 143.933 24.6761 143.115 24.6761ZM143.12 23.2499C143.651 23.2499 144.09 23.1098 144.438 22.8295C144.787 22.5492 145.044 22.1761 145.211 21.7102C145.382 21.2443 145.467 20.731 145.467 20.1704C145.467 19.6136 145.382 19.1022 145.211 18.6363C145.044 18.1666 144.787 17.7897 144.438 17.5056C144.09 17.2215 143.651 17.0795 143.12 17.0795C142.586 17.0795 142.143 17.2215 141.791 17.5056C141.442 17.7897 141.183 18.1666 141.012 18.6363C140.846 19.1022 140.762 19.6136 140.762 20.1704C140.762 20.731 140.846 21.2443 141.012 21.7102C141.183 22.1761 141.442 22.5492 141.791 22.8295C142.143 23.1098 142.586 23.2499 143.12 23.2499ZM149.079 24.4999V15.7727H150.721V17.159H150.812C150.971 16.6893 151.251 16.32 151.653 16.0511C152.058 15.7783 152.517 15.642 153.028 15.642C153.134 15.642 153.259 15.6458 153.403 15.6533C153.551 15.6609 153.666 15.6704 153.749 15.6818V17.3068C153.681 17.2878 153.56 17.267 153.386 17.2443C153.212 17.2177 153.037 17.2045 152.863 17.2045C152.462 17.2045 152.104 17.2897 151.789 17.4602C151.479 17.6268 151.232 17.8598 151.051 18.159C150.869 18.4545 150.778 18.7916 150.778 19.1704V24.4999H149.079Z" fill="#E8E8E8"/>
<path d="M65.6622 39.0568H68.0769L69.1032 40.3668L70.4494 41.9122L72.5201 44.4658H69.8156L68.3667 42.7332L67.5095 41.5017L65.6622 39.0568ZM72.6046 37.3181C72.6046 38.6784 72.343 39.8315 71.8198 40.7773C71.2966 41.7231 70.5883 42.4415 69.6948 42.9325C68.8054 43.4235 67.8073 43.669 66.7005 43.669C65.5897 43.669 64.5896 43.4215 63.7002 42.9264C62.8107 42.4314 62.1044 41.713 61.5812 40.7712C61.062 39.8255 60.8024 38.6744 60.8024 37.3181C60.8024 35.9578 61.062 34.8047 61.5812 33.859C62.1044 32.9132 62.8107 32.1948 63.7002 31.7038C64.5896 31.2128 65.5897 30.9673 66.7005 30.9673C67.8073 30.9673 68.8054 31.2128 69.6948 31.7038C70.5883 32.1948 71.2966 32.9132 71.8198 33.859C72.343 34.8047 72.6046 35.9578 72.6046 37.3181ZM69.5499 37.3181C69.5499 36.5132 69.4352 35.833 69.2058 35.2776C68.9805 34.7222 68.6545 34.3017 68.2278 34.0159C67.8053 33.7302 67.2961 33.5873 66.7005 33.5873C66.1089 33.5873 65.5998 33.7302 65.1732 34.0159C64.7466 34.3017 64.4185 34.7222 64.1891 35.2776C63.9638 35.833 63.8511 36.5132 63.8511 37.3181C63.8511 38.123 63.9638 38.8032 64.1891 39.3586C64.4185 39.914 64.7466 40.3346 65.1732 40.6203C65.5998 40.9061 66.1089 41.0489 66.7005 41.0489C67.2961 41.0489 67.8053 40.9061 68.2278 40.6203C68.6545 40.3346 68.9805 39.914 69.2058 39.3586C69.4352 38.8032 69.5499 38.123 69.5499 37.3181ZM80.3485 39.4974V34.2272H83.2945V43.4999H80.4813V41.7734H80.3847C80.1795 42.3408 79.8293 42.7916 79.3343 43.1256C78.8433 43.4557 78.2497 43.6207 77.5534 43.6207C76.9215 43.6207 76.3661 43.4758 75.8872 43.186C75.4083 42.8962 75.036 42.4918 74.7704 41.9726C74.5047 41.4494 74.3699 40.8376 74.3659 40.1374V34.2272H77.318V39.5578C77.322 40.0609 77.4548 40.4573 77.7164 40.7471C77.978 41.0369 78.3342 41.1818 78.7849 41.1818C79.0787 41.1818 79.3423 41.1174 79.5758 40.9886C79.8132 40.8558 80.0004 40.6646 80.1372 40.4151C80.2781 40.1615 80.3485 39.8556 80.3485 39.4974ZM85.1735 43.4999V34.2272H88.1256V43.4999H85.1735ZM86.6526 33.1466C86.238 33.1466 85.8818 33.0098 85.584 32.7361C85.2862 32.4584 85.1373 32.1243 85.1373 31.734C85.1373 31.3476 85.2862 31.0176 85.584 30.7439C85.8818 30.4662 86.238 30.3274 86.6526 30.3274C87.0711 30.3274 87.4273 30.4662 87.7211 30.7439C88.0189 31.0176 88.1678 31.3476 88.1678 31.734C88.1678 32.1243 88.0189 32.4584 87.7211 32.7361C87.4273 33.0098 87.0711 33.1466 86.6526 33.1466ZM92.9566 31.1363V43.4999H90.0046V31.1363H92.9566ZM100.07 34.2272V36.4005H94.2198V34.2272H100.07ZM95.4453 32.0056H98.3974V40.5841C98.3974 40.7652 98.4256 40.9121 98.4819 41.0248C98.5423 41.1335 98.6288 41.2119 98.7415 41.2602C98.8542 41.3045 98.989 41.3266 99.146 41.3266C99.2587 41.3266 99.3774 41.3166 99.5022 41.2965C99.631 41.2723 99.7275 41.2522 99.7919 41.2361L100.239 43.3671C100.098 43.4074 99.8986 43.4577 99.641 43.518C99.3875 43.5784 99.0836 43.6166 98.7294 43.6327C98.0372 43.6649 97.4436 43.5845 96.9485 43.3913C96.4575 43.1941 96.0812 42.8882 95.8196 42.4737C95.5621 42.0591 95.4373 41.5379 95.4453 40.9101V32.0056Z" fill="url(#paint1_linear_28_950)"/>
</g>
</g>
<rect x="1.04951" y="1.04994" width="164.9" height="53.9" rx="6.95" stroke="white" stroke-opacity="0.15" stroke-width="2.1"/>
<defs>
<filter id="filter0_d_28_950" x="6.28523" y="2.28565" width="53.3117" height="53.312" filterUnits="userSpaceOnUse" color-interpolation-filters="sRGB">
<feFlood flood-opacity="0" result="BackgroundImageFix"/>
<feColorMatrix in="SourceAlpha" type="matrix" values="0 0 0 0 0 0 0 0 0 0 0 0 0 0 0 0 0 0 127 0" result="hardAlpha"/>
<feOffset/>
<feGaussianBlur stdDeviation="2.85714"/>
<feComposite in2="hardAlpha" operator="out"/>
<feColorMatrix type="matrix" values="0 0 0 0 0 0 0 0 0 0 0 0 0 0 0 0 0 0 0.25 0"/>
<feBlend mode="normal" in2="BackgroundImageFix" result="effect1_dropShadow_28_950"/>
<feBlend mode="normal" in="SourceGraphic" in2="effect1_dropShadow_28_950" result="shape"/>
</filter>
<filter id="filter1_d_28_950" x="54.3995" y="3.89994" width="106.2" height="48.2" filterUnits="userSpaceOnUse" color-interpolation-filters="sRGB">
<feFlood flood-opacity="0" result="BackgroundImageFix"/>
<feColorMatrix in="SourceAlpha" type="matrix" values="0 0 0 0 0 0 0 0 0 0 0 0 0 0 0 0 0 0 127 0" result="hardAlpha"/>
<feOffset/>
<feGaussianBlur stdDeviation="2.8"/>
<feComposite in2="hardAlpha" operator="out"/>
<feColorMatrix type="matrix" values="0 0 0 0 0 0 0 0 0 0 0 0 0 0 0 0 0 0 0.25 0"/>
<feBlend mode="normal" in2="BackgroundImageFix" result="effect1_dropShadow_28_950"/>
<feBlend mode="normal" in="SourceGraphic" in2="effect1_dropShadow_28_950" result="shape"/>
</filter>
<linearGradient id="paint0_linear_28_950" x1="83.4995" y1="-6.10351e-05" x2="83.4995" y2="55.9999" gradientUnits="userSpaceOnUse">
<stop stop-color="#260C26"/>
<stop offset="1" stop-color="#0E1C2C"/>
</linearGradient>
<linearGradient id="paint1_linear_28_950" x1="59.9995" y1="28.5" x2="101" y2="28.5" gradientUnits="userSpaceOnUse">
<stop stop-color="#E17BE1"/>
<stop offset="1" stop-color="#98A1FF"/>
</linearGradient>
<clipPath id="clip0_28_950">
<rect x="-0.000488281" y="-6.10352e-05" width="167" height="56" rx="8" fill="white"/>
</clipPath>
</defs>
</svg>
