<svg width="167" height="56" viewBox="0 0 167 56" fill="none" xmlns="http://www.w3.org/2000/svg">
<rect x="-0.000488281" y="-9.15527e-05" width="167" height="56" rx="8" fill="url(#paint0_linear_28_965)"/>
<g filter="url(#filter0_d_28_965)">
<path d="M31.2852 8.4123C31.7272 8.15711 32.2718 8.15711 32.7138 8.4123L48.6057 17.5875C49.0477 17.8427 49.32 18.3143 49.32 18.8247V37.1751C49.32 37.6855 49.0477 38.1571 48.6057 38.4123L32.7138 47.5875C32.2718 47.8427 31.7272 47.8427 31.2852 47.5875L15.3933 38.4123C14.9513 38.1571 14.679 37.6855 14.679 37.1751V18.8247C14.679 18.3143 14.9513 17.8427 15.3933 17.5875L31.2852 8.4123Z" fill="url(#paint1_linear_28_965)"/>
</g>
<g filter="url(#filter1_d_28_965)">
<path d="M62.2609 24.4999H60.3972L64.5847 12.8635H66.6131L70.8006 24.4999H68.937L65.6472 14.9772H65.5563L62.2609 24.4999ZM62.5734 19.9431H68.6188V21.4204H62.5734V19.9431ZM78.7168 15.7726L75.5521 24.4999H73.7339L70.5634 15.7726H72.3873L74.5975 22.4885H74.6884L76.893 15.7726H78.7168ZM82.6032 24.6931C82.0502 24.6931 81.5502 24.5908 81.1032 24.3863C80.6562 24.1779 80.3021 23.8768 80.0407 23.4829C79.7831 23.0889 79.6543 22.606 79.6543 22.034C79.6543 21.5416 79.749 21.1363 79.9384 20.8181C80.1278 20.4999 80.3835 20.248 80.7055 20.0624C81.0274 19.8768 81.3873 19.7366 81.785 19.642C82.1827 19.5473 82.588 19.4753 83.0009 19.426C83.5237 19.3654 83.9479 19.3162 84.2737 19.2783C84.5994 19.2366 84.8362 19.1704 84.9839 19.0795C85.1316 18.9885 85.2055 18.8408 85.2055 18.6363V18.5965C85.2055 18.1003 85.0653 17.7158 84.785 17.4431C84.5085 17.1704 84.0956 17.034 83.5464 17.034C82.9744 17.034 82.5237 17.1609 82.1941 17.4147C81.8684 17.6647 81.643 17.9431 81.518 18.2499L79.9214 17.8863C80.1108 17.356 80.3873 16.9279 80.7509 16.6022C81.1184 16.2726 81.5407 16.034 82.018 15.8863C82.4952 15.7348 82.9971 15.659 83.5237 15.659C83.8721 15.659 84.2415 15.7007 84.6316 15.784C85.0255 15.8635 85.393 16.0113 85.7339 16.2272C86.0786 16.4431 86.3608 16.7518 86.5805 17.1533C86.8002 17.551 86.91 18.0681 86.91 18.7045V24.4999H85.2509V23.3067H85.1827C85.0729 23.5264 84.9081 23.7423 84.6884 23.9544C84.4687 24.1666 84.1865 24.3427 83.8418 24.4829C83.4971 24.623 83.0843 24.6931 82.6032 24.6931ZM82.9725 23.3294C83.4422 23.3294 83.8437 23.2366 84.1771 23.051C84.5142 22.8654 84.7699 22.623 84.9441 22.3238C85.1221 22.0207 85.2112 21.6969 85.2112 21.3522V20.2272C85.1505 20.2878 85.0331 20.3446 84.8589 20.3976C84.6884 20.4469 84.4933 20.4904 84.2737 20.5283C84.054 20.5624 83.8399 20.5946 83.6316 20.6249C83.4233 20.6514 83.249 20.6741 83.1089 20.6931C82.7793 20.7348 82.4782 20.8048 82.2055 20.9033C81.9365 21.0018 81.7206 21.1438 81.5577 21.3295C81.3987 21.5113 81.3191 21.7537 81.3191 22.0567C81.3191 22.4772 81.4744 22.7954 81.785 23.0113C82.0956 23.2234 82.4915 23.3294 82.9725 23.3294ZM89.1728 24.4999V15.7726H90.8717V24.4999H89.1728ZM90.0308 14.426C89.7353 14.426 89.4815 14.3276 89.2694 14.1306C89.0611 13.9298 88.9569 13.6912 88.9569 13.4147C88.9569 13.1344 89.0611 12.8957 89.2694 12.6988C89.4815 12.498 89.7353 12.3976 90.0308 12.3976C90.3262 12.3976 90.5781 12.498 90.7864 12.6988C90.9986 12.8957 91.1046 13.1344 91.1046 13.4147C91.1046 13.6912 90.9986 13.9298 90.7864 14.1306C90.5781 14.3276 90.3262 14.426 90.0308 14.426ZM94.856 12.8635V24.4999H93.1572V12.8635H94.856ZM99.6813 24.6931C99.1283 24.6931 98.6283 24.5908 98.1813 24.3863C97.7343 24.1779 97.3802 23.8768 97.1188 23.4829C96.8612 23.0889 96.7325 22.606 96.7325 22.034C96.7325 21.5416 96.8272 21.1363 97.0165 20.8181C97.2059 20.4999 97.4616 20.248 97.7836 20.0624C98.1056 19.8768 98.4654 19.7366 98.8631 19.642C99.2609 19.5473 99.6662 19.4753 100.079 19.426C100.602 19.3654 101.026 19.3162 101.352 19.2783C101.678 19.2366 101.914 19.1704 102.062 19.0795C102.21 18.9885 102.284 18.8408 102.284 18.6363V18.5965C102.284 18.1003 102.143 17.7158 101.863 17.4431C101.587 17.1704 101.174 17.034 100.624 17.034C100.053 17.034 99.6018 17.1609 99.2722 17.4147C98.9465 17.6647 98.7211 17.9431 98.5961 18.2499L96.9995 17.8863C97.1889 17.356 97.4654 16.9279 97.829 16.6022C98.1965 16.2726 98.6188 16.034 99.0961 15.8863C99.5734 15.7348 100.075 15.659 100.602 15.659C100.95 15.659 101.32 15.7007 101.71 15.784C102.104 15.8635 102.471 16.0113 102.812 16.2272C103.157 16.4431 103.439 16.7518 103.659 17.1533C103.878 17.551 103.988 18.0681 103.988 18.7045V24.4999H102.329V23.3067H102.261C102.151 23.5264 101.986 23.7423 101.767 23.9544C101.547 24.1666 101.265 24.3427 100.92 24.4829C100.575 24.623 100.162 24.6931 99.6813 24.6931ZM100.051 23.3294C100.52 23.3294 100.922 23.2366 101.255 23.051C101.592 22.8654 101.848 22.623 102.022 22.3238C102.2 22.0207 102.289 21.6969 102.289 21.3522V20.2272C102.229 20.2878 102.111 20.3446 101.937 20.3976C101.767 20.4469 101.571 20.4904 101.352 20.5283C101.132 20.5624 100.918 20.5946 100.71 20.6249C100.501 20.6514 100.327 20.6741 100.187 20.6931C99.8575 20.7348 99.5563 20.8048 99.2836 20.9033C99.0147 21.0018 98.7987 21.1438 98.6359 21.3295C98.4768 21.5113 98.3972 21.7537 98.3972 22.0567C98.3972 22.4772 98.5525 22.7954 98.8631 23.0113C99.1737 23.2234 99.5696 23.3294 100.051 23.3294ZM106.387 24.4999V12.8635H108.086V17.1874H108.188C108.287 17.0056 108.429 16.7954 108.615 16.5567C108.8 16.3181 109.058 16.1098 109.387 15.9317C109.717 15.7499 110.152 15.659 110.694 15.659C111.399 15.659 112.027 15.837 112.58 16.1931C113.133 16.5491 113.567 17.0624 113.882 17.7329C114.2 18.4033 114.359 19.2101 114.359 20.1533C114.359 21.0965 114.202 21.9052 113.887 22.5794C113.573 23.2499 113.141 23.7669 112.592 24.1306C112.043 24.4904 111.416 24.6704 110.711 24.6704C110.181 24.6704 109.747 24.5813 109.41 24.4033C109.077 24.2253 108.815 24.0169 108.626 23.7783C108.437 23.5397 108.291 23.3276 108.188 23.1419H108.046V24.4999H106.387ZM108.052 20.1363C108.052 20.7499 108.141 21.2878 108.319 21.7499C108.497 22.212 108.755 22.5738 109.092 22.8351C109.429 23.0927 109.842 23.2215 110.33 23.2215C110.838 23.2215 111.262 23.087 111.603 22.8181C111.944 22.5454 112.202 22.176 112.376 21.7101C112.554 21.2442 112.643 20.7196 112.643 20.1363C112.643 19.5605 112.556 19.0435 112.382 18.5851C112.211 18.1268 111.954 17.7651 111.609 17.4999C111.268 17.2348 110.842 17.1022 110.33 17.1022C109.838 17.1022 109.421 17.2291 109.08 17.4829C108.743 17.7366 108.488 18.0908 108.313 18.5454C108.139 18.9999 108.052 19.5302 108.052 20.1363ZM117.965 12.8635V24.4999H116.267V12.8635H117.965ZM124.012 24.676C123.152 24.676 122.412 24.4923 121.791 24.1249C121.173 23.7537 120.696 23.2329 120.359 22.5624C120.026 21.8882 119.859 21.0984 119.859 20.1931C119.859 19.2991 120.026 18.5113 120.359 17.8295C120.696 17.1476 121.166 16.6154 121.768 16.2329C122.374 15.8503 123.082 15.659 123.893 15.659C124.385 15.659 124.863 15.7404 125.325 15.9033C125.787 16.0662 126.202 16.3219 126.569 16.6704C126.937 17.0188 127.226 17.4715 127.438 18.0283C127.651 18.5813 127.757 19.2537 127.757 20.0454V20.6476H120.819V19.3749H126.092C126.092 18.9279 126.001 18.5321 125.819 18.1874C125.637 17.8389 125.382 17.5643 125.052 17.3635C124.726 17.1628 124.344 17.0624 123.904 17.0624C123.427 17.0624 123.01 17.1798 122.654 17.4147C122.302 17.6457 122.029 17.9488 121.836 18.3238C121.647 18.695 121.552 19.0984 121.552 19.534V20.5283C121.552 21.1116 121.654 21.6079 121.859 22.017C122.067 22.426 122.357 22.7385 122.728 22.9544C123.099 23.1666 123.533 23.2726 124.029 23.2726C124.351 23.2726 124.645 23.2272 124.91 23.1363C125.175 23.0416 125.404 22.9014 125.598 22.7158C125.791 22.5302 125.938 22.301 126.041 22.0283L127.649 22.3181C127.52 22.7916 127.289 23.2063 126.955 23.5624C126.626 23.9147 126.211 24.1893 125.711 24.3863C125.215 24.5794 124.649 24.676 124.012 24.676ZM138.029 15.7726V17.1363H133.098V15.7726H138.029ZM134.45 24.4999V14.7613C134.45 14.2158 134.569 13.7632 134.808 13.4033C135.046 13.0397 135.363 12.7688 135.757 12.5908C136.151 12.409 136.579 12.3181 137.041 12.3181C137.382 12.3181 137.673 12.3465 137.916 12.4033C138.158 12.4563 138.338 12.5056 138.455 12.551L138.058 13.926C137.978 13.9033 137.876 13.8768 137.751 13.8465C137.626 13.8124 137.474 13.7954 137.296 13.7954C136.883 13.7954 136.588 13.8976 136.41 14.1022C136.236 14.3067 136.149 14.6022 136.149 14.9885V24.4999H134.45ZM143.115 24.676C142.296 24.676 141.582 24.4885 140.972 24.1135C140.363 23.7385 139.889 23.2139 139.552 22.5397C139.215 21.8654 139.046 21.0776 139.046 20.176C139.046 19.2707 139.215 18.4791 139.552 17.801C139.889 17.123 140.363 16.5965 140.972 16.2215C141.582 15.8465 142.296 15.659 143.115 15.659C143.933 15.659 144.647 15.8465 145.257 16.2215C145.866 16.5965 146.34 17.123 146.677 17.801C147.014 18.4791 147.183 19.2707 147.183 20.176C147.183 21.0776 147.014 21.8654 146.677 22.5397C146.34 23.2139 145.866 23.7385 145.257 24.1135C144.647 24.4885 143.933 24.676 143.115 24.676ZM143.12 23.2499C143.651 23.2499 144.09 23.1098 144.438 22.8294C144.787 22.5491 145.044 22.176 145.211 21.7101C145.382 21.2442 145.467 20.731 145.467 20.1704C145.467 19.6135 145.382 19.1022 145.211 18.6363C145.044 18.1666 144.787 17.7897 144.438 17.5056C144.09 17.2215 143.651 17.0795 143.12 17.0795C142.586 17.0795 142.143 17.2215 141.791 17.5056C141.442 17.7897 141.183 18.1666 141.012 18.6363C140.846 19.1022 140.762 19.6135 140.762 20.1704C140.762 20.731 140.846 21.2442 141.012 21.7101C141.183 22.176 141.442 22.5491 141.791 22.8294C142.143 23.1098 142.586 23.2499 143.12 23.2499ZM149.079 24.4999V15.7726H150.721V17.159H150.812C150.971 16.6893 151.251 16.32 151.653 16.051C152.058 15.7783 152.517 15.642 153.028 15.642C153.134 15.642 153.259 15.6457 153.403 15.6533C153.551 15.6609 153.666 15.6704 153.749 15.6817V17.3067C153.681 17.2878 153.56 17.267 153.386 17.2442C153.212 17.2177 153.037 17.2045 152.863 17.2045C152.462 17.2045 152.104 17.2897 151.789 17.4601C151.479 17.6268 151.232 17.8598 151.051 18.159C150.869 18.4545 150.778 18.7916 150.778 19.1704V24.4999H149.079Z" fill="#E8E8E8"/>
<path d="M60.9352 43.4999V31.1363H66.0425C66.9681 31.1363 67.767 31.3033 68.4391 31.6373C69.1153 31.9674 69.6365 32.4423 70.0027 33.0621C70.3689 33.6778 70.5521 34.4083 70.5521 35.2535C70.5521 36.1107 70.3649 36.8392 69.9906 37.4388C69.6163 38.0345 69.0851 38.4893 68.3969 38.8032C67.7087 39.1131 66.8937 39.268 65.9519 39.268H62.7222V36.9136H65.3965C65.8473 36.9136 66.2236 36.8553 66.5254 36.7385C66.8313 36.6178 67.0627 36.4367 67.2197 36.1952C67.3766 35.9497 67.4551 35.6358 67.4551 35.2535C67.4551 34.8711 67.3766 34.5552 67.2197 34.3057C67.0627 34.0521 66.8313 33.863 66.5254 33.7382C66.2196 33.6094 65.8433 33.545 65.3965 33.545H63.9235V43.4999H60.9352ZM67.8958 37.8493L70.9747 43.4999H67.7147L64.6962 37.8493H67.8958ZM72.1911 43.4999V34.2272H75.1432V43.4999H72.1911ZM73.6701 33.1466C73.2556 33.1466 72.8994 33.0097 72.6016 32.7361C72.3038 32.4584 72.1549 32.1243 72.1549 31.7339C72.1549 31.3476 72.3038 31.0175 72.6016 30.7439C72.8994 30.4662 73.2556 30.3273 73.6701 30.3273C74.0887 30.3273 74.4449 30.4662 74.7387 30.7439C75.0365 31.0175 75.1854 31.3476 75.1854 31.7339C75.1854 32.1243 75.0365 32.4584 74.7387 32.7361C74.4449 33.0097 74.0887 33.1466 73.6701 33.1466ZM82.2924 34.2272V36.4005H76.3279V34.2272H82.2924ZM77.5715 43.4999V33.7563C77.5715 33.0399 77.7063 32.4463 77.976 31.9754C78.2456 31.5005 78.6199 31.1463 79.0988 30.9129C79.5778 30.6755 80.1312 30.5567 80.759 30.5567C81.1695 30.5567 81.5559 30.5889 81.9181 30.6533C82.2843 30.7137 82.556 30.768 82.7331 30.8163L82.2622 32.9775C82.1535 32.9413 82.0207 32.9111 81.8638 32.887C81.7108 32.8628 81.5659 32.8508 81.4291 32.8508C81.083 32.8508 80.8455 32.9272 80.7167 33.0802C80.588 33.2331 80.5236 33.4424 80.5236 33.708V43.4999H77.5715ZM88.9466 34.2272V36.4005H83.0968V34.2272H88.9466ZM84.3223 32.0056H87.2744V40.5841C87.2744 40.7652 87.3025 40.9121 87.3589 41.0248C87.4192 41.1334 87.5058 41.2119 87.6185 41.2602C87.7312 41.3045 87.866 41.3266 88.0229 41.3266C88.1356 41.3266 88.2544 41.3165 88.3791 41.2964C88.5079 41.2723 88.6045 41.2522 88.6689 41.2361L89.1156 43.3671C88.9748 43.4073 88.7755 43.4576 88.518 43.518C88.2644 43.5784 87.9606 43.6166 87.6064 43.6327C86.9142 43.6649 86.3205 43.5844 85.8255 43.3912C85.3345 43.194 84.9582 42.8882 84.6966 42.4736C84.439 42.0591 84.3143 41.5379 84.3223 40.9101V32.0056Z" fill="url(#paint2_linear_28_965)"/>
</g>
<rect x="1.04951" y="1.04991" width="164.9" height="53.9" rx="6.95" stroke="white" stroke-opacity="0.15" stroke-width="2.1"/>
<defs>
<filter id="filter0_d_28_965" x="6.28523" y="2.28562" width="51.4286" height="51.4286" filterUnits="userSpaceOnUse" color-interpolation-filters="sRGB">
<feFlood flood-opacity="0" result="BackgroundImageFix"/>
<feColorMatrix in="SourceAlpha" type="matrix" values="0 0 0 0 0 0 0 0 0 0 0 0 0 0 0 0 0 0 127 0" result="hardAlpha"/>
<feOffset/>
<feGaussianBlur stdDeviation="2.85714"/>
<feComposite in2="hardAlpha" operator="out"/>
<feColorMatrix type="matrix" values="0 0 0 0 0 0 0 0 0 0 0 0 0 0 0 0 0 0 0.25 0"/>
<feBlend mode="normal" in2="BackgroundImageFix" result="effect1_dropShadow_28_965"/>
<feBlend mode="normal" in="SourceGraphic" in2="effect1_dropShadow_28_965" result="shape"/>
</filter>
<filter id="filter1_d_28_965" x="54.3995" y="3.89991" width="106.2" height="48.2" filterUnits="userSpaceOnUse" color-interpolation-filters="sRGB">
<feFlood flood-opacity="0" result="BackgroundImageFix"/>
<feColorMatrix in="SourceAlpha" type="matrix" values="0 0 0 0 0 0 0 0 0 0 0 0 0 0 0 0 0 0 127 0" result="hardAlpha"/>
<feOffset/>
<feGaussianBlur stdDeviation="2.8"/>
<feComposite in2="hardAlpha" operator="out"/>
<feColorMatrix type="matrix" values="0 0 0 0 0 0 0 0 0 0 0 0 0 0 0 0 0 0 0.25 0"/>
<feBlend mode="normal" in2="BackgroundImageFix" result="effect1_dropShadow_28_965"/>
<feBlend mode="normal" in="SourceGraphic" in2="effect1_dropShadow_28_965" result="shape"/>
</filter>
<linearGradient id="paint0_linear_28_965" x1="83.4995" y1="-9.15527e-05" x2="83.4995" y2="55.9999" gradientUnits="userSpaceOnUse">
<stop stop-color="#383838"/>
<stop offset="1" stop-color="#242424"/>
</linearGradient>
<linearGradient id="paint1_linear_28_965" x1="11.9995" y1="8" x2="11.9995" y2="48" gradientUnits="userSpaceOnUse">
<stop stop-color="white"/>
<stop offset="1" stop-color="#B9B9B9"/>
</linearGradient>
<linearGradient id="paint2_linear_28_965" x1="74.9995" y1="28.4999" x2="74.9995" y2="46.4999" gradientUnits="userSpaceOnUse">
<stop stop-color="white"/>
<stop offset="1" stop-color="#B9B9B9"/>
</linearGradient>
</defs>
</svg>
