<svg width="171" height="56" viewBox="0 0 171 56" fill="none" xmlns="http://www.w3.org/2000/svg">
<rect x="-0.000488281" y="-9.15527e-05" width="171" height="56" rx="8" fill="url(#paint0_linear_28_965)"/>
<g filter="url(#filter0_d_28_965)">
<path d="M31.2852 8.4123C31.7272 8.15711 32.2718 8.15711 32.7138 8.4123L48.6057 17.5875C49.0477 17.8427 49.32 18.3143 49.32 18.8247V37.1751C49.32 37.6855 49.0477 38.1571 48.6057 38.4123L32.7138 47.5875C32.2718 47.8427 31.7272 47.8427 31.2852 47.5875L15.3933 38.4123C14.9513 38.1571 14.679 37.6855 14.679 37.1751V18.8247C14.679 18.3143 14.9513 17.8427 15.3933 17.5875L31.2852 8.4123Z" fill="url(#paint1_linear_28_965)"/>
</g>
<g filter="url(#filter1_d_28_965)">
<path d="M66.2609 24.4999H64.3972L68.5847 12.8635H70.6131L74.8006 24.4999H72.937L69.6472 14.9772H69.5563L66.2609 24.4999ZM66.5734 19.9431H72.6188V21.4204H66.5734V19.9431ZM82.7168 15.7726L79.5521 24.4999H77.7339L74.5634 15.7726H76.3873L78.5975 22.4885H78.6884L80.893 15.7726H82.7168ZM86.6032 24.6931C86.0502 24.6931 85.5502 24.5908 85.1032 24.3863C84.6562 24.1779 84.3021 23.8768 84.0407 23.4829C83.7831 23.0889 83.6543 22.606 83.6543 22.034C83.6543 21.5416 83.749 21.1363 83.9384 20.8181C84.1278 20.4999 84.3835 20.248 84.7055 20.0624C85.0274 19.8768 85.3873 19.7366 85.785 19.642C86.1827 19.5473 86.588 19.4753 87.0009 19.426C87.5237 19.3654 87.9479 19.3162 88.2737 19.2783C88.5994 19.2366 88.8362 19.1704 88.9839 19.0795C89.1316 18.9885 89.2055 18.8408 89.2055 18.6363V18.5965C89.2055 18.1003 89.0653 17.7158 88.785 17.4431C88.5085 17.1704 88.0956 17.034 87.5464 17.034C86.9744 17.034 86.5237 17.1609 86.1941 17.4147C85.8684 17.6647 85.643 17.9431 85.518 18.2499L83.9214 17.8863C84.1108 17.356 84.3873 16.9279 84.7509 16.6022C85.1184 16.2726 85.5407 16.034 86.018 15.8863C86.4952 15.7348 86.9971 15.659 87.5237 15.659C87.8721 15.659 88.2415 15.7007 88.6316 15.784C89.0255 15.8635 89.393 16.0113 89.7339 16.2272C90.0786 16.4431 90.3608 16.7518 90.5805 17.1533C90.8002 17.551 90.91 18.0681 90.91 18.7045V24.4999H89.2509V23.3067H89.1827C89.0729 23.5264 88.9081 23.7423 88.6884 23.9544C88.4687 24.1666 88.1865 24.3427 87.8418 24.4829C87.4971 24.623 87.0843 24.6931 86.6032 24.6931ZM86.9725 23.3294C87.4422 23.3294 87.8437 23.2366 88.1771 23.051C88.5142 22.8654 88.7699 22.623 88.9441 22.3238C89.1221 22.0207 89.2112 21.6969 89.2112 21.3522V20.2272C89.1505 20.2878 89.0331 20.3446 88.8589 20.3976C88.6884 20.4469 88.4933 20.4904 88.2737 20.5283C88.054 20.5624 87.8399 20.5946 87.6316 20.6249C87.4233 20.6514 87.249 20.6741 87.1089 20.6931C86.7793 20.7348 86.4782 20.8048 86.2055 20.9033C85.9365 21.0018 85.7206 21.1438 85.5577 21.3295C85.3987 21.5113 85.3191 21.7537 85.3191 22.0567C85.3191 22.4772 85.4744 22.7954 85.785 23.0113C86.0956 23.2234 86.4915 23.3294 86.9725 23.3294ZM93.1728 24.4999V15.7726H94.8717V24.4999H93.1728ZM94.0308 14.426C93.7353 14.426 93.4815 14.3276 93.2694 14.1306C93.0611 13.9298 92.9569 13.6912 92.9569 13.4147C92.9569 13.1344 93.0611 12.8957 93.2694 12.6988C93.4815 12.498 93.7353 12.3976 94.0308 12.3976C94.3262 12.3976 94.5781 12.498 94.7864 12.6988C94.9986 12.8957 95.1046 13.1344 95.1046 13.4147C95.1046 13.6912 94.9986 13.9298 94.7864 14.1306C94.5781 14.3276 94.3262 14.426 94.0308 14.426ZM98.856 12.8635V24.4999H97.1572V12.8635H98.856ZM103.681 24.6931C103.128 24.6931 102.628 24.5908 102.181 24.3863C101.734 24.1779 101.38 23.8768 101.119 23.4829C100.861 23.0889 100.732 22.606 100.732 22.034C100.732 21.5416 100.827 21.1363 101.017 20.8181C101.206 20.4999 101.462 20.248 101.784 20.0624C102.106 19.8768 102.465 19.7366 102.863 19.642C103.261 19.5473 103.666 19.4753 104.079 19.426C104.602 19.3654 105.026 19.3162 105.352 19.2783C105.678 19.2366 105.914 19.1704 106.062 19.0795C106.21 18.9885 106.284 18.8408 106.284 18.6363V18.5965C106.284 18.1003 106.143 17.7158 105.863 17.4431C105.587 17.1704 105.174 17.034 104.624 17.034C104.053 17.034 103.602 17.1609 103.272 17.4147C102.946 17.6647 102.721 17.9431 102.596 18.2499L101 17.8863C101.189 17.356 101.465 16.9279 101.829 16.6022C102.196 16.2726 102.619 16.034 103.096 15.8863C103.573 15.7348 104.075 15.659 104.602 15.659C104.95 15.659 105.32 15.7007 105.71 15.784C106.104 15.8635 106.471 16.0113 106.812 16.2272C107.157 16.4431 107.439 16.7518 107.659 17.1533C107.878 17.551 107.988 18.0681 107.988 18.7045V24.4999H106.329V23.3067H106.261C106.151 23.5264 105.986 23.7423 105.767 23.9544C105.547 24.1666 105.265 24.3427 104.92 24.4829C104.575 24.623 104.162 24.6931 103.681 24.6931ZM104.051 23.3294C104.52 23.3294 104.922 23.2366 105.255 23.051C105.592 22.8654 105.848 22.623 106.022 22.3238C106.2 22.0207 106.289 21.6969 106.289 21.3522V20.2272C106.229 20.2878 106.111 20.3446 105.937 20.3976C105.767 20.4469 105.571 20.4904 105.352 20.5283C105.132 20.5624 104.918 20.5946 104.71 20.6249C104.501 20.6514 104.327 20.6741 104.187 20.6931C103.857 20.7348 103.556 20.8048 103.284 20.9033C103.015 21.0018 102.799 21.1438 102.636 21.3295C102.477 21.5113 102.397 21.7537 102.397 22.0567C102.397 22.4772 102.553 22.7954 102.863 23.0113C103.174 23.2234 103.57 23.3294 104.051 23.3294ZM110.387 24.4999V12.8635H112.086V17.1874H112.188C112.287 17.0056 112.429 16.7954 112.615 16.5567C112.8 16.3181 113.058 16.1098 113.387 15.9317C113.717 15.7499 114.152 15.659 114.694 15.659C115.399 15.659 116.027 15.837 116.58 16.1931C117.133 16.5491 117.567 17.0624 117.882 17.7329C118.2 18.4033 118.359 19.2101 118.359 20.1533C118.359 21.0965 118.202 21.9052 117.887 22.5794C117.573 23.2499 117.141 23.7669 116.592 24.1306C116.043 24.4904 115.416 24.6704 114.711 24.6704C114.181 24.6704 113.747 24.5813 113.41 24.4033C113.077 24.2253 112.815 24.0169 112.626 23.7783C112.437 23.5397 112.291 23.3276 112.188 23.1419H112.046V24.4999H110.387ZM112.052 20.1363C112.052 20.7499 112.141 21.2878 112.319 21.7499C112.497 22.212 112.755 22.5738 113.092 22.8351C113.429 23.0927 113.842 23.2215 114.33 23.2215C114.838 23.2215 115.262 23.087 115.603 22.8181C115.944 22.5454 116.202 22.176 116.376 21.7101C116.554 21.2442 116.643 20.7196 116.643 20.1363C116.643 19.5605 116.556 19.0435 116.382 18.5851C116.211 18.1268 115.954 17.7651 115.609 17.4999C115.268 17.2348 114.842 17.1022 114.33 17.1022C113.838 17.1022 113.421 17.2291 113.08 17.4829C112.743 17.7366 112.488 18.0908 112.313 18.5454C112.139 18.9999 112.052 19.5302 112.052 20.1363ZM121.965 12.8635V24.4999H120.267V12.8635H121.965ZM128.012 24.676C127.152 24.676 126.412 24.4923 125.791 24.1249C125.173 23.7537 124.696 23.2329 124.359 22.5624C124.026 21.8882 123.859 21.0984 123.859 20.1931C123.859 19.2991 124.026 18.5113 124.359 17.8295C124.696 17.1476 125.166 16.6154 125.768 16.2329C126.374 15.8503 127.082 15.659 127.893 15.659C128.385 15.659 128.863 15.7404 129.325 15.9033C129.787 16.0662 130.202 16.3219 130.569 16.6704C130.937 17.0188 131.226 17.4715 131.438 18.0283C131.651 18.5813 131.757 19.2537 131.757 20.0454V20.6476H124.819V19.3749H130.092C130.092 18.9279 130.001 18.5321 129.819 18.1874C129.637 17.8389 129.382 17.5643 129.052 17.3635C128.726 17.1628 128.344 17.0624 127.904 17.0624C127.427 17.0624 127.01 17.1798 126.654 17.4147C126.302 17.6457 126.029 17.9488 125.836 18.3238C125.647 18.695 125.552 19.0984 125.552 19.534V20.5283C125.552 21.1116 125.654 21.6079 125.859 22.017C126.067 22.426 126.357 22.7385 126.728 22.9544C127.099 23.1666 127.533 23.2726 128.029 23.2726C128.351 23.2726 128.645 23.2272 128.91 23.1363C129.175 23.0416 129.404 22.9014 129.598 22.7158C129.791 22.5302 129.938 22.301 130.041 22.0283L131.649 22.3181C131.52 22.7916 131.289 23.2063 130.955 23.5624C130.626 23.9147 130.211 24.1893 129.711 24.3863C129.215 24.5794 128.649 24.676 128.012 24.676ZM142.029 15.7726V17.1363H137.098V15.7726H142.029ZM138.45 24.4999V14.7613C138.45 14.2158 138.569 13.7632 138.808 13.4033C139.046 13.0397 139.363 12.7688 139.757 12.5908C140.151 12.409 140.579 12.3181 141.041 12.3181C141.382 12.3181 141.673 12.3465 141.916 12.4033C142.158 12.4563 142.338 12.5056 142.455 12.551L142.058 13.926C141.978 13.9033 141.876 13.8768 141.751 13.8465C141.626 13.8124 141.474 13.7954 141.296 13.7954C140.883 13.7954 140.588 13.8976 140.41 14.1022C140.236 14.3067 140.149 14.6022 140.149 14.9885V24.4999H138.45ZM147.115 24.676C146.296 24.676 145.582 24.4885 144.972 24.1135C144.363 23.7385 143.889 23.2139 143.552 22.5397C143.215 21.8654 143.046 21.0776 143.046 20.176C143.046 19.2707 143.215 18.4791 143.552 17.801C143.889 17.123 144.363 16.5965 144.972 16.2215C145.582 15.8465 146.296 15.659 147.115 15.659C147.933 15.659 148.647 15.8465 149.257 16.2215C149.866 16.5965 150.34 17.123 150.677 17.801C151.014 18.4791 151.183 19.2707 151.183 20.176C151.183 21.0776 151.014 21.8654 150.677 22.5397C150.34 23.2139 149.866 23.7385 149.257 24.1135C148.647 24.4885 147.933 24.676 147.115 24.676ZM147.12 23.2499C147.651 23.2499 148.09 23.1098 148.438 22.8294C148.787 22.5491 149.044 22.176 149.211 21.7101C149.382 21.2442 149.467 20.731 149.467 20.1704C149.467 19.6135 149.382 19.1022 149.211 18.6363C149.044 18.1666 148.787 17.7897 148.438 17.5056C148.09 17.2215 147.651 17.0795 147.12 17.0795C146.586 17.0795 146.143 17.2215 145.791 17.5056C145.442 17.7897 145.183 18.1666 145.012 18.6363C144.846 19.1022 144.762 19.6135 144.762 20.1704C144.762 20.731 144.846 21.2442 145.012 21.7101C145.183 22.176 145.442 22.5491 145.791 22.8294C146.143 23.1098 146.586 23.2499 147.12 23.2499ZM153.079 24.4999V15.7726H154.721V17.159H154.812C154.971 16.6893 155.251 16.32 155.653 16.051C156.058 15.7783 156.517 15.642 157.028 15.642C157.134 15.642 157.259 15.6457 157.403 15.6533C157.551 15.6609 157.666 15.6704 157.749 15.6817V17.3067C157.681 17.2878 157.56 17.267 157.386 17.2442C157.212 17.2177 157.037 17.2045 156.863 17.2045C156.462 17.2045 156.104 17.2897 155.789 17.4601C155.479 17.6268 155.232 17.8598 155.051 18.159C154.869 18.4545 154.778 18.7916 154.778 19.1704V24.4999H153.079Z" fill="#E8E8E8"/>
<path d="M64.9352 43.4999V31.1363H70.0425C70.9681 31.1363 71.767 31.3033 72.4391 31.6373C73.1153 31.9674 73.6365 32.4423 74.0027 33.0621C74.3689 33.6778 74.5521 34.4083 74.5521 35.2535C74.5521 36.1107 74.3649 36.8392 73.9906 37.4388C73.6163 38.0345 73.0851 38.4893 72.3969 38.8032C71.7087 39.1131 70.8937 39.268 69.9519 39.268H66.7222V36.9136H69.3965C69.8473 36.9136 70.2236 36.8553 70.5254 36.7385C70.8313 36.6178 71.0627 36.4367 71.2197 36.1952C71.3766 35.9497 71.4551 35.6358 71.4551 35.2535C71.4551 34.8711 71.3766 34.5552 71.2197 34.3057C71.0627 34.0521 70.8313 33.863 70.5254 33.7382C70.2196 33.6094 69.8433 33.545 69.3965 33.545H67.9235V43.4999H64.9352ZM71.8958 37.8493L74.9747 43.4999H71.7147L68.6962 37.8493H71.8958ZM76.1911 43.4999V34.2272H79.1432V43.4999H76.1911ZM77.6701 33.1466C77.2556 33.1466 76.8994 33.0097 76.6016 32.7361C76.3038 32.4584 76.1549 32.1243 76.1549 31.7339C76.1549 31.3476 76.3038 31.0175 76.6016 30.7439C76.8994 30.4662 77.2556 30.3273 77.6701 30.3273C78.0887 30.3273 78.4449 30.4662 78.7387 30.7439C79.0365 31.0175 79.1854 31.3476 79.1854 31.7339C79.1854 32.1243 79.0365 32.4584 78.7387 32.7361C78.4449 33.0097 78.0887 33.1466 77.6701 33.1466ZM86.2924 34.2272V36.4005H80.3279V34.2272H86.2924ZM81.5715 43.4999V33.7563C81.5715 33.0399 81.7063 32.4463 81.976 31.9754C82.2456 31.5005 82.6199 31.1463 83.0988 30.9129C83.5778 30.6755 84.1312 30.5567 84.759 30.5567C85.1695 30.5567 85.5559 30.5889 85.9181 30.6533C86.2843 30.7137 86.556 30.768 86.7331 30.8163L86.2622 32.9775C86.1535 32.9413 86.0207 32.9111 85.8638 32.887C85.7108 32.8628 85.5659 32.8508 85.4291 32.8508C85.083 32.8508 84.8455 32.9272 84.7167 33.0802C84.588 33.2331 84.5236 33.4424 84.5236 33.708V43.4999H81.5715ZM92.9466 34.2272V36.4005H87.0968V34.2272H92.9466ZM88.3223 32.0056H91.2744V40.5841C91.2744 40.7652 91.3025 40.9121 91.3589 41.0248C91.4192 41.1334 91.5058 41.2119 91.6185 41.2602C91.7312 41.3045 91.866 41.3266 92.0229 41.3266C92.1356 41.3266 92.2544 41.3165 92.3791 41.2964C92.5079 41.2723 92.6045 41.2522 92.6689 41.2361L93.1156 43.3671C92.9748 43.4073 92.7755 43.4576 92.518 43.518C92.2644 43.5784 91.9606 43.6166 91.6064 43.6327C90.9142 43.6649 90.3205 43.5844 89.8255 43.3912C89.3345 43.194 88.9582 42.8882 88.6966 42.4736C88.439 42.0591 88.3143 41.5379 88.3223 40.9101V32.0056Z" fill="url(#paint2_linear_28_965)"/>
</g>
<rect x="1.04951" y="1.04991" width="168.9" height="53.9" rx="6.95" stroke="white" stroke-opacity="0.15" stroke-width="2.1"/>
<defs>
<filter id="filter0_d_28_965" x="6.28523" y="2.28562" width="51.4286" height="51.4286" filterUnits="userSpaceOnUse" color-interpolation-filters="sRGB">
<feFlood flood-opacity="0" result="BackgroundImageFix"/>
<feColorMatrix in="SourceAlpha" type="matrix" values="0 0 0 0 0 0 0 0 0 0 0 0 0 0 0 0 0 0 127 0" result="hardAlpha"/>
<feOffset/>
<feGaussianBlur stdDeviation="2.85714"/>
<feComposite in2="hardAlpha" operator="out"/>
<feColorMatrix type="matrix" values="0 0 0 0 0 0 0 0 0 0 0 0 0 0 0 0 0 0 0.25 0"/>
<feBlend mode="normal" in2="BackgroundImageFix" result="effect1_dropShadow_28_965"/>
<feBlend mode="normal" in="SourceGraphic" in2="effect1_dropShadow_28_965" result="shape"/>
</filter>
<filter id="filter1_d_28_965" x="58.3995" y="3.89991" width="106.2" height="48.2" filterUnits="userSpaceOnUse" color-interpolation-filters="sRGB">
<feFlood flood-opacity="0" result="BackgroundImageFix"/>
<feColorMatrix in="SourceAlpha" type="matrix" values="0 0 0 0 0 0 0 0 0 0 0 0 0 0 0 0 0 0 127 0" result="hardAlpha"/>
<feOffset/>
<feGaussianBlur stdDeviation="2.8"/>
<feComposite in2="hardAlpha" operator="out"/>
<feColorMatrix type="matrix" values="0 0 0 0 0 0 0 0 0 0 0 0 0 0 0 0 0 0 0.25 0"/>
<feBlend mode="normal" in2="BackgroundImageFix" result="effect1_dropShadow_28_965"/>
<feBlend mode="normal" in="SourceGraphic" in2="effect1_dropShadow_28_965" result="shape"/>
</filter>
<linearGradient id="paint0_linear_28_965" x1="85.4995" y1="-9.15527e-05" x2="85.4995" y2="55.9999" gradientUnits="userSpaceOnUse">
<stop stop-color="#383838"/>
<stop offset="1" stop-color="#242424"/>
</linearGradient>
<linearGradient id="paint1_linear_28_965" x1="11.9995" y1="8" x2="11.9995" y2="48" gradientUnits="userSpaceOnUse">
<stop stop-color="white"/>
<stop offset="1" stop-color="#B9B9B9"/>
</linearGradient>
<linearGradient id="paint2_linear_28_965" x1="78.9995" y1="28.4999" x2="78.9995" y2="46.4999" gradientUnits="userSpaceOnUse">
<stop stop-color="white"/>
<stop offset="1" stop-color="#B9B9B9"/>
</linearGradient>
</defs>
</svg>
