<svg width="167" height="56" viewBox="0 0 167 56" fill="none" xmlns="http://www.w3.org/2000/svg">
<rect x="-0.000488281" y="-0.000152588" width="167" height="56" rx="8" fill="url(#paint0_linear_28_977)"/>
<g filter="url(#filter0_d_28_977)">
<path fill-rule="evenodd" clip-rule="evenodd" d="M32.7494 10.9411C32.3048 11.0831 31.9632 11.3401 31.5761 11.8238C31.4672 11.9598 31.2796 12.0078 31.0358 11.9619C30.7466 11.9074 29.6488 11.8364 26.7754 11.6863C25.9358 11.6424 25.7654 11.6663 25.6148 11.8487C25.2547 12.2844 25.3517 13.6884 25.7629 13.9935C25.8801 14.0805 26.5183 14.0934 27.1466 14.0215C27.485 13.9828 27.822 13.9483 28.5962 13.8731C28.7907 13.8542 29.1088 13.8229 29.3033 13.8035C29.4978 13.7841 29.9034 13.7439 30.2048 13.7141C30.5062 13.6844 30.9489 13.6194 31.1884 13.5695L31.6239 13.4789L31.7541 13.5662C32.1343 13.8213 32.2391 14.006 32.1849 14.3256C32.083 14.9262 32.0724 15.2567 32.0871 17.3767C32.1053 19.9943 32.1665 19.7628 31.4423 19.8195C30.9895 19.8549 30.8133 19.9837 30.734 20.3375C30.6959 20.5069 30.7047 22.1218 30.746 22.5626C30.772 22.8393 30.5546 22.9967 30.0572 23.0614C29.5682 23.125 29.4502 23.4048 29.5549 24.2528C29.5776 24.437 29.4655 24.5859 29.1766 24.755C28.9143 24.9086 28.8591 25.2724 29.0652 25.4898C29.2899 25.7267 29.301 25.8447 29.1231 26.1024C28.938 26.3706 28.9339 26.4125 28.9323 28.0529C28.9305 29.7012 28.9093 29.9705 28.7642 30.1865C28.5544 30.4988 27.5251 31.4476 27.2822 31.5524C27.2084 31.5842 26.5814 31.6016 24.9016 31.6183C23.6473 31.6306 22.5775 31.6528 22.5242 31.6675C22.3085 31.7268 22.1092 31.6579 21.916 31.4571C21.6467 31.1776 21.6771 31.1814 19.8281 31.2007C18.0113 31.2196 18.0306 31.2222 17.9871 30.9629C17.938 30.6709 17.9093 30.5766 17.791 30.3196C17.5659 29.8305 17.3675 29.7349 16.7405 29.8134C16.3409 29.8635 16.2506 29.9723 16.1528 30.522C16.03 31.211 15.9022 31.3552 15.5365 31.2173C15.2957 31.1264 15.2592 31.1247 14.3126 31.1572C14.2542 31.1591 14.148 31.1503 14.0765 31.1377C14.0004 31.1242 13.8903 31.1333 13.8113 31.1599C13.737 31.185 13.5569 31.209 13.411 31.2135C12.7582 31.2334 12.6494 31.2669 12.5002 31.4941C12.1711 31.995 11.8929 34.7956 12.0397 36.1304C12.207 37.652 12.4174 38.3731 12.732 38.5034C13.164 38.6823 15.0308 38.7649 15.5205 38.6266L15.7738 38.5552L15.8873 38.6358C16.0356 38.7412 16.1155 38.9293 16.1862 39.3403C16.2711 39.8329 16.3589 39.9431 16.7213 40.0113C16.9686 40.0579 17.3037 40.0394 17.4543 39.9711C17.7721 39.8265 17.9496 38.8374 17.7572 38.2829C17.6472 37.9656 17.7294 37.8902 17.8741 38.1757C18.0772 38.5768 18.2858 38.617 20.1639 38.6171C21.8638 38.6171 21.7415 38.6467 21.9796 38.1786C22.1712 37.8023 22.2581 37.7329 22.5264 37.7426C22.6369 37.7466 23.5227 37.7635 24.495 37.7802C26.435 37.8134 26.2505 37.7915 26.8638 38.0616C28.4697 38.7688 30.2281 39.1672 32.4322 39.3232C33.644 39.4089 35.3111 39.3721 36.3568 39.2366C38.2366 38.9929 39.4761 38.6797 40.7585 38.1245C41.6931 37.7198 42.1072 37.9343 42.2992 38.9225C42.4493 39.695 42.4132 39.8088 41.9606 39.9924C41.3224 40.2512 40.927 40.5176 40.833 40.7521C40.765 40.9216 40.7967 41.108 40.9797 41.6154C41.0287 41.7512 41.0735 41.9496 41.0793 42.0563C41.0958 42.3591 41.127 42.4834 41.2344 42.6749C41.2892 42.7727 41.3442 42.9314 41.3568 43.0277C41.386 43.2521 41.4715 43.5174 41.5724 43.6965C41.6206 43.7822 41.6607 43.9299 41.6742 44.0722C41.7377 44.7365 42.0253 44.9301 43.1097 45.0381C43.236 45.0507 43.3771 45.0668 43.4232 45.0738C45.6267 45.4108 48.6706 44.4907 50.8592 42.8259C51.8799 42.0496 52.1368 41.6816 51.9367 41.2815C51.904 41.2159 51.8777 41.0805 51.8777 40.9764C51.8777 40.7724 51.7751 40.4572 51.662 40.3136C51.6227 40.2638 51.5839 40.1529 51.5759 40.0673C51.5604 39.9026 51.4504 39.592 51.3637 39.4686C51.3353 39.4282 51.3121 39.3434 51.3121 39.2802C51.3121 39.1493 51.2258 38.9096 51.1279 38.7683C51.0914 38.7156 51.0387 38.5958 51.0108 38.5022C50.8661 38.0161 50.0427 37.7222 49.2084 37.8589C48.4938 37.976 48.445 37.95 48.2385 37.3441C47.5811 35.4162 46.6862 33.9929 45.651 33.2292C45.2579 32.9392 45.1109 32.8722 43.6399 32.3122C42.1973 31.7632 41.8323 31.6097 41.1715 31.274C40.7763 31.0734 40.3389 30.8357 40.1992 30.7458C38.0633 29.3709 38.2937 29.731 38.2159 27.646C38.1635 26.2437 38.1524 26.1883 37.8776 25.968C37.6544 25.7892 37.622 25.7065 37.6839 25.4743C37.7904 25.0753 37.7346 24.8991 37.438 24.6974C37.2062 24.5398 37.1743 24.4725 37.2102 24.2174C37.3316 23.3573 37.1931 23.0486 36.6597 22.9911C36.337 22.9563 36.2017 22.9131 36.1096 22.8153L36.0263 22.7267L36.0235 21.4657C36.0199 19.791 36.0314 19.8163 35.2607 19.7786C34.7097 19.7515 34.5829 19.7204 34.4678 19.5839L34.3768 19.4761L34.3765 17.1067C34.3763 15.7301 34.3611 14.6059 34.3403 14.4239C34.298 14.0561 34.3034 14.0434 34.6312 13.7359C34.8818 13.5007 35.0404 13.4053 35.137 13.4315C35.7058 13.5861 35.6137 13.5788 38.7255 13.7155C41.1136 13.8204 41.0932 13.8227 41.2885 13.4325C41.5443 12.9216 41.3716 11.5394 41.0344 11.3971C40.9188 11.3484 40.4625 11.3504 40.0336 11.4015C39.7168 11.4393 39.6331 11.4486 38.0891 11.6182C36.1712 11.8288 36.134 11.8333 35.6622 11.9155C35.2006 11.9958 35.1734 11.9868 34.9084 11.6674C34.3425 10.9847 33.5002 10.7013 32.7494 10.9411Z" fill="url(#paint1_linear_28_977)"/>
</g>
<g filter="url(#filter1_d_28_977)">
<path d="M62.2609 24.4998H60.3972L64.5847 12.8635H66.6131L70.8006 24.4998H68.937L65.6472 14.9771H65.5563L62.2609 24.4998ZM62.5734 19.943H68.6188V21.4203H62.5734V19.943ZM78.7168 15.7726L75.5521 24.4998H73.7339L70.5634 15.7726H72.3873L74.5975 22.4885H74.6884L76.893 15.7726H78.7168ZM82.6032 24.693C82.0502 24.693 81.5502 24.5908 81.1032 24.3862C80.6562 24.1779 80.3021 23.8767 80.0407 23.4828C79.7831 23.0889 79.6543 22.6059 79.6543 22.0339C79.6543 21.5415 79.749 21.1362 79.9384 20.818C80.1278 20.4998 80.3835 20.248 80.7055 20.0623C81.0274 19.8767 81.3873 19.7366 81.785 19.6419C82.1827 19.5472 82.588 19.4752 83.0009 19.426C83.5237 19.3654 83.9479 19.3161 84.2737 19.2783C84.5994 19.2366 84.8362 19.1703 84.9839 19.0794C85.1316 18.9885 85.2055 18.8408 85.2055 18.6362V18.5964C85.2055 18.1002 85.0653 17.7158 84.785 17.443C84.5085 17.1703 84.0956 17.0339 83.5464 17.0339C82.9744 17.0339 82.5237 17.1608 82.1941 17.4146C81.8684 17.6646 81.643 17.943 81.518 18.2498L79.9214 17.8862C80.1108 17.3559 80.3873 16.9279 80.7509 16.6021C81.1184 16.2726 81.5407 16.0339 82.018 15.8862C82.4952 15.7347 82.9971 15.6589 83.5237 15.6589C83.8721 15.6589 84.2415 15.7006 84.6316 15.7839C85.0255 15.8635 85.393 16.0112 85.7339 16.2271C86.0786 16.443 86.3608 16.7517 86.5805 17.1533C86.8002 17.551 86.91 18.068 86.91 18.7044V24.4998H85.2509V23.3067H85.1827C85.0729 23.5264 84.9081 23.7423 84.6884 23.9544C84.4687 24.1665 84.1865 24.3426 83.8418 24.4828C83.4971 24.6229 83.0843 24.693 82.6032 24.693ZM82.9725 23.3294C83.4422 23.3294 83.8437 23.2366 84.1771 23.051C84.5142 22.8654 84.7699 22.6229 84.9441 22.3237C85.1221 22.0207 85.2112 21.6968 85.2112 21.3521V20.2271C85.1505 20.2877 85.0331 20.3445 84.8589 20.3976C84.6884 20.4468 84.4933 20.4904 84.2737 20.5283C84.054 20.5623 83.8399 20.5945 83.6316 20.6248C83.4233 20.6514 83.249 20.6741 83.1089 20.693C82.7793 20.7347 82.4782 20.8048 82.2055 20.9033C81.9365 21.0017 81.7206 21.1438 81.5577 21.3294C81.3987 21.5112 81.3191 21.7536 81.3191 22.0567C81.3191 22.4771 81.4744 22.7953 81.785 23.0112C82.0956 23.2233 82.4915 23.3294 82.9725 23.3294ZM89.1728 24.4998V15.7726H90.8717V24.4998H89.1728ZM90.0308 14.426C89.7353 14.426 89.4815 14.3275 89.2694 14.1305C89.0611 13.9298 88.9569 13.6911 88.9569 13.4146C88.9569 13.1343 89.0611 12.8957 89.2694 12.6987C89.4815 12.498 89.7353 12.3976 90.0308 12.3976C90.3262 12.3976 90.5781 12.498 90.7864 12.6987C90.9986 12.8957 91.1046 13.1343 91.1046 13.4146C91.1046 13.6911 90.9986 13.9298 90.7864 14.1305C90.5781 14.3275 90.3262 14.426 90.0308 14.426ZM94.856 12.8635V24.4998H93.1572V12.8635H94.856ZM99.6813 24.693C99.1283 24.693 98.6283 24.5908 98.1813 24.3862C97.7343 24.1779 97.3802 23.8767 97.1188 23.4828C96.8612 23.0889 96.7325 22.6059 96.7325 22.0339C96.7325 21.5415 96.8272 21.1362 97.0165 20.818C97.2059 20.4998 97.4616 20.248 97.7836 20.0623C98.1056 19.8767 98.4654 19.7366 98.8631 19.6419C99.2609 19.5472 99.6662 19.4752 100.079 19.426C100.602 19.3654 101.026 19.3161 101.352 19.2783C101.678 19.2366 101.914 19.1703 102.062 19.0794C102.21 18.9885 102.284 18.8408 102.284 18.6362V18.5964C102.284 18.1002 102.143 17.7158 101.863 17.443C101.587 17.1703 101.174 17.0339 100.624 17.0339C100.053 17.0339 99.6018 17.1608 99.2722 17.4146C98.9465 17.6646 98.7211 17.943 98.5961 18.2498L96.9995 17.8862C97.1889 17.3559 97.4654 16.9279 97.829 16.6021C98.1965 16.2726 98.6188 16.0339 99.0961 15.8862C99.5734 15.7347 100.075 15.6589 100.602 15.6589C100.95 15.6589 101.32 15.7006 101.71 15.7839C102.104 15.8635 102.471 16.0112 102.812 16.2271C103.157 16.443 103.439 16.7517 103.659 17.1533C103.878 17.551 103.988 18.068 103.988 18.7044V24.4998H102.329V23.3067H102.261C102.151 23.5264 101.986 23.7423 101.767 23.9544C101.547 24.1665 101.265 24.3426 100.92 24.4828C100.575 24.6229 100.162 24.693 99.6813 24.693ZM100.051 23.3294C100.52 23.3294 100.922 23.2366 101.255 23.051C101.592 22.8654 101.848 22.6229 102.022 22.3237C102.2 22.0207 102.289 21.6968 102.289 21.3521V20.2271C102.229 20.2877 102.111 20.3445 101.937 20.3976C101.767 20.4468 101.571 20.4904 101.352 20.5283C101.132 20.5623 100.918 20.5945 100.71 20.6248C100.501 20.6514 100.327 20.6741 100.187 20.693C99.8575 20.7347 99.5563 20.8048 99.2836 20.9033C99.0147 21.0017 98.7987 21.1438 98.6359 21.3294C98.4768 21.5112 98.3972 21.7536 98.3972 22.0567C98.3972 22.4771 98.5525 22.7953 98.8631 23.0112C99.1737 23.2233 99.5696 23.3294 100.051 23.3294ZM106.387 24.4998V12.8635H108.086V17.1873H108.188C108.287 17.0055 108.429 16.7953 108.615 16.5567C108.8 16.318 109.058 16.1097 109.387 15.9317C109.717 15.7498 110.152 15.6589 110.694 15.6589C111.399 15.6589 112.027 15.837 112.58 16.193C113.133 16.5491 113.567 17.0623 113.882 17.7328C114.2 18.4033 114.359 19.2101 114.359 20.1533C114.359 21.0964 114.202 21.9051 113.887 22.5794C113.573 23.2498 113.141 23.7669 112.592 24.1305C112.043 24.4904 111.416 24.6703 110.711 24.6703C110.181 24.6703 109.747 24.5813 109.41 24.4033C109.077 24.2252 108.815 24.0169 108.626 23.7783C108.437 23.5396 108.291 23.3275 108.188 23.1419H108.046V24.4998H106.387ZM108.052 20.1362C108.052 20.7498 108.141 21.2877 108.319 21.7498C108.497 22.212 108.755 22.5737 109.092 22.8351C109.429 23.0926 109.842 23.2214 110.33 23.2214C110.838 23.2214 111.262 23.087 111.603 22.818C111.944 22.5453 112.202 22.176 112.376 21.7101C112.554 21.2442 112.643 20.7195 112.643 20.1362C112.643 19.5605 112.556 19.0434 112.382 18.5851C112.211 18.1267 111.954 17.765 111.609 17.4998C111.268 17.2347 110.842 17.1021 110.33 17.1021C109.838 17.1021 109.421 17.229 109.08 17.4828C108.743 17.7366 108.488 18.0908 108.313 18.5453C108.139 18.9998 108.052 19.5301 108.052 20.1362ZM117.965 12.8635V24.4998H116.267V12.8635H117.965ZM124.012 24.676C123.152 24.676 122.412 24.4923 121.791 24.1248C121.173 23.7536 120.696 23.2328 120.359 22.5623C120.026 21.8881 119.859 21.0983 119.859 20.193C119.859 19.2991 120.026 18.5112 120.359 17.8294C120.696 17.1476 121.166 16.6154 121.768 16.2328C122.374 15.8502 123.082 15.6589 123.893 15.6589C124.385 15.6589 124.863 15.7404 125.325 15.9033C125.787 16.0661 126.202 16.3218 126.569 16.6703C126.937 17.0188 127.226 17.4714 127.438 18.0283C127.651 18.5813 127.757 19.2536 127.757 20.0453V20.6476H120.819V19.3748H126.092C126.092 18.9279 126.001 18.532 125.819 18.1873C125.637 17.8389 125.382 17.5642 125.052 17.3635C124.726 17.1627 124.344 17.0623 123.904 17.0623C123.427 17.0623 123.01 17.1798 122.654 17.4146C122.302 17.6457 122.029 17.9487 121.836 18.3237C121.647 18.6949 121.552 19.0983 121.552 19.5339V20.5283C121.552 21.1116 121.654 21.6078 121.859 22.0169C122.067 22.426 122.357 22.7385 122.728 22.9544C123.099 23.1665 123.533 23.2726 124.029 23.2726C124.351 23.2726 124.645 23.2271 124.91 23.1362C125.175 23.0415 125.404 22.9014 125.598 22.7158C125.791 22.5301 125.938 22.301 126.041 22.0283L127.649 22.318C127.52 22.7915 127.289 23.2063 126.955 23.5623C126.626 23.9146 126.211 24.1892 125.711 24.3862C125.215 24.5794 124.649 24.676 124.012 24.676ZM138.029 15.7726V17.1362H133.098V15.7726H138.029ZM134.45 24.4998V14.7612C134.45 14.2158 134.569 13.7631 134.808 13.4033C135.046 13.0396 135.363 12.7688 135.757 12.5908C136.151 12.4089 136.579 12.318 137.041 12.318C137.382 12.318 137.673 12.3464 137.916 12.4033C138.158 12.4563 138.338 12.5055 138.455 12.551L138.058 13.926C137.978 13.9033 137.876 13.8767 137.751 13.8464C137.626 13.8123 137.474 13.7953 137.296 13.7953C136.883 13.7953 136.588 13.8976 136.41 14.1021C136.236 14.3067 136.149 14.6021 136.149 14.9885V24.4998H134.45ZM143.115 24.676C142.296 24.676 141.582 24.4885 140.972 24.1135C140.363 23.7385 139.889 23.2139 139.552 22.5396C139.215 21.8654 139.046 21.0775 139.046 20.176C139.046 19.2707 139.215 18.479 139.552 17.801C139.889 17.123 140.363 16.5964 140.972 16.2214C141.582 15.8464 142.296 15.6589 143.115 15.6589C143.933 15.6589 144.647 15.8464 145.257 16.2214C145.866 16.5964 146.34 17.123 146.677 17.801C147.014 18.479 147.183 19.2707 147.183 20.176C147.183 21.0775 147.014 21.8654 146.677 22.5396C146.34 23.2139 145.866 23.7385 145.257 24.1135C144.647 24.4885 143.933 24.676 143.115 24.676ZM143.12 23.2498C143.651 23.2498 144.09 23.1097 144.438 22.8294C144.787 22.5491 145.044 22.176 145.211 21.7101C145.382 21.2442 145.467 20.7309 145.467 20.1703C145.467 19.6135 145.382 19.1021 145.211 18.6362C145.044 18.1665 144.787 17.7896 144.438 17.5055C144.09 17.2214 143.651 17.0794 143.12 17.0794C142.586 17.0794 142.143 17.2214 141.791 17.5055C141.442 17.7896 141.183 18.1665 141.012 18.6362C140.846 19.1021 140.762 19.6135 140.762 20.1703C140.762 20.7309 140.846 21.2442 141.012 21.7101C141.183 22.176 141.442 22.5491 141.791 22.8294C142.143 23.1097 142.586 23.2498 143.12 23.2498ZM149.079 24.4998V15.7726H150.721V17.1589H150.812C150.971 16.6892 151.251 16.3199 151.653 16.051C152.058 15.7783 152.517 15.6419 153.028 15.6419C153.134 15.6419 153.259 15.6457 153.403 15.6533C153.551 15.6608 153.666 15.6703 153.749 15.6817V17.3067C153.681 17.2877 153.56 17.2669 153.386 17.2442C153.212 17.2176 153.037 17.2044 152.863 17.2044C152.462 17.2044 152.104 17.2896 151.789 17.4601C151.479 17.6267 151.232 17.8597 151.051 18.1589C150.869 18.4544 150.778 18.7915 150.778 19.1703V24.4998H149.079Z" fill="#E8E8E8"/>
<path d="M67.6181 34.8429C67.5779 34.4002 67.3988 34.0561 67.0808 33.8106C66.7669 33.561 66.3182 33.4363 65.7346 33.4363C65.3482 33.4363 65.0263 33.4866 64.7687 33.5872C64.5111 33.6878 64.3179 33.8267 64.1891 34.0038C64.0604 34.1768 63.9939 34.376 63.9899 34.6014C63.9819 34.7865 64.0181 34.9495 64.0986 35.0904C64.1831 35.2313 64.3038 35.356 64.4608 35.4647C64.6218 35.5693 64.815 35.6619 65.0403 35.7424C65.2657 35.8229 65.5193 35.8933 65.801 35.9537L66.8635 36.1952C67.4752 36.328 68.0145 36.5051 68.4814 36.7264C68.9523 36.9478 69.3467 37.2114 69.6646 37.5172C69.9866 37.8231 70.2301 38.1753 70.3951 38.5737C70.5601 38.9721 70.6446 39.4189 70.6487 39.9139C70.6446 40.6947 70.4474 41.3648 70.057 41.9242C69.6666 42.4836 69.1052 42.9122 68.3727 43.2101C67.6443 43.5079 66.7649 43.6568 65.7346 43.6568C64.7003 43.6568 63.7988 43.5019 63.0301 43.192C62.2613 42.8821 61.6637 42.4112 61.2371 41.7793C60.8105 41.1475 60.5911 40.3486 60.5791 39.3827H63.4406C63.4647 39.7811 63.5714 40.1131 63.7605 40.3788C63.9497 40.6444 64.2093 40.8456 64.5393 40.9824C64.8733 41.1193 65.2597 41.1877 65.6984 41.1877C66.1008 41.1877 66.4429 41.1334 66.7247 41.0247C67.0104 40.916 67.2297 40.7651 67.3827 40.5719C67.5356 40.3787 67.6141 40.1574 67.6181 39.9079C67.6141 39.6744 67.5416 39.4752 67.4008 39.3102C67.2599 39.1412 67.0426 38.9963 66.7488 38.8756C66.459 38.7508 66.0888 38.6361 65.638 38.5314L64.3461 38.2296C63.2756 37.9841 62.4324 37.5877 61.8166 37.0403C61.2009 36.489 60.895 35.7444 60.899 34.8067C60.895 34.042 61.1002 33.3719 61.5148 32.7964C61.9293 32.2208 62.5028 31.7721 63.2353 31.4501C63.9678 31.1282 64.8029 30.9672 65.7406 30.9672C66.6985 30.9672 67.5296 31.1302 68.2339 31.4562C68.9422 31.7781 69.4916 32.2309 69.882 32.8145C70.2724 33.398 70.4716 34.0742 70.4796 34.8429H67.6181ZM72.1579 46.9771V34.2271H75.0798V35.8148H75.1703C75.2911 35.5331 75.4621 35.2614 75.6835 34.9998C75.9088 34.7382 76.1946 34.5249 76.5407 34.3599C76.8908 34.1909 77.3094 34.1064 77.7964 34.1064C78.4403 34.1064 79.042 34.2754 79.6014 34.6135C80.1649 34.9515 80.6197 35.4727 80.9658 36.177C81.3119 36.8814 81.4849 37.7788 81.4849 38.8695C81.4849 39.9199 81.3179 40.7993 80.9839 41.5077C80.6539 42.216 80.2071 42.7472 79.6437 43.1014C79.0843 43.4556 78.4625 43.6327 77.7783 43.6327C77.3114 43.6327 76.9069 43.5562 76.5648 43.4033C76.2228 43.2503 75.935 43.0491 75.7016 42.7996C75.4722 42.55 75.2951 42.2824 75.1703 41.9966H75.1099V46.9771H72.1579ZM75.0496 38.8635C75.0496 39.3625 75.116 39.7972 75.2488 40.1675C75.3856 40.5377 75.5808 40.8255 75.8344 41.0307C76.092 41.232 76.3998 41.3326 76.758 41.3326C77.1202 41.3326 77.4281 41.232 77.6817 41.0307C77.9352 40.8255 78.1264 40.5377 78.2552 40.1675C78.388 39.7972 78.4544 39.3625 78.4544 38.8635C78.4544 38.3644 78.388 37.9318 78.2552 37.5655C78.1264 37.1993 77.9352 36.9156 77.6817 36.7143C77.4322 36.5131 77.1243 36.4125 76.758 36.4125C76.3958 36.4125 76.0879 36.5111 75.8344 36.7083C75.5808 36.9055 75.3856 37.1872 75.2488 37.5535C75.116 37.9197 75.0496 38.3564 75.0496 38.8635ZM83.0319 43.4998V34.2271H85.984V43.4998H83.0319ZM84.511 33.1465C84.0964 33.1465 83.7402 33.0097 83.4424 32.736C83.1446 32.4583 82.9957 32.1243 82.9957 31.7339C82.9957 31.3475 83.1446 31.0175 83.4424 30.7438C83.7402 30.4661 84.0964 30.3273 84.511 30.3273C84.9295 30.3273 85.2857 30.4661 85.5795 30.7438C85.8773 31.0175 86.0262 31.3475 86.0262 31.7339C86.0262 32.1243 85.8773 32.4583 85.5795 32.736C85.2857 33.0097 84.9295 33.1465 84.511 33.1465ZM92.1854 47.1703C91.304 47.1703 90.5494 47.0475 89.9216 46.802C89.2937 46.5565 88.8007 46.2205 88.4425 45.7939C88.0843 45.3673 87.869 44.8843 87.7966 44.345L90.5917 44.1881C90.644 44.3772 90.7406 44.5422 90.8814 44.6831C91.0263 44.8239 91.2135 44.9326 91.4429 45.0091C91.6763 45.0855 91.95 45.1238 92.2639 45.1238C92.7589 45.1238 93.1674 45.003 93.4894 44.7616C93.8154 44.5241 93.9784 44.1076 93.9784 43.5119V41.8819H93.8757C93.759 42.1677 93.5819 42.4233 93.3445 42.6486C93.107 42.874 92.8112 43.0511 92.4571 43.1799C92.1069 43.3087 91.7045 43.3731 91.2497 43.3731C90.5735 43.3731 89.9538 43.2161 89.3903 42.9022C88.8309 42.5842 88.3821 42.0932 88.0441 41.4292C87.71 40.7611 87.543 39.9018 87.543 38.8514C87.543 37.7688 87.7161 36.8773 88.0622 36.177C88.4083 35.4727 88.8611 34.9515 89.4205 34.6135C89.9839 34.2754 90.5896 34.1064 91.2376 34.1064C91.7246 34.1064 92.1411 34.1909 92.4873 34.3599C92.8374 34.5249 93.1252 34.7382 93.3505 34.9998C93.5759 35.2614 93.747 35.5331 93.8637 35.8148H93.9482V34.2271H96.8882V43.5361C96.8882 44.3209 96.691 44.9829 96.2966 45.5222C95.9021 46.0615 95.3508 46.47 94.6424 46.7477C93.9341 47.0294 93.1151 47.1703 92.1854 47.1703ZM92.276 41.2239C92.6341 41.2239 92.94 41.1293 93.1936 40.9402C93.4471 40.751 93.6423 40.4794 93.7792 40.1252C93.916 39.771 93.9844 39.3464 93.9844 38.8514C93.9844 38.3483 93.916 37.9157 93.7792 37.5535C93.6463 37.1872 93.4511 36.9055 93.1936 36.7083C92.94 36.5111 92.6341 36.4125 92.276 36.4125C91.9097 36.4125 91.5998 36.5131 91.3463 36.7143C91.0927 36.9156 90.8995 37.1993 90.7667 37.5655C90.6379 37.9278 90.5735 38.3564 90.5735 38.8514C90.5735 39.3464 90.64 39.771 90.7728 40.1252C90.9056 40.4794 91.0967 40.751 91.3463 40.9402C91.5998 41.1293 91.9097 41.2239 92.276 41.2239ZM103.099 43.6749C102.125 43.6749 101.288 43.4757 100.587 43.0773C99.891 42.6748 99.3538 42.1154 98.9754 41.399C98.6012 40.6786 98.414 39.8435 98.414 38.8937C98.414 37.9398 98.6012 37.1047 98.9754 36.3883C99.3538 35.6679 99.891 35.1085 100.587 34.7101C101.288 34.3076 102.125 34.1064 103.099 34.1064C104.073 34.1064 104.908 34.3076 105.604 34.7101C106.304 35.1085 106.842 35.6679 107.216 36.3883C107.594 37.1047 107.783 37.9398 107.783 38.8937C107.783 39.8435 107.594 40.6786 107.216 41.399C106.842 42.1154 106.304 42.6748 105.604 43.0773C104.908 43.4757 104.073 43.6749 103.099 43.6749ZM103.117 41.4473C103.471 41.4473 103.771 41.3386 104.016 41.1213C104.262 40.904 104.449 40.6021 104.578 40.2158C104.711 39.8294 104.777 39.3827 104.777 38.8756C104.777 38.3604 104.711 37.9096 104.578 37.5233C104.449 37.1369 104.262 36.8351 104.016 36.6177C103.771 36.4004 103.471 36.2917 103.117 36.2917C102.751 36.2917 102.441 36.4004 102.187 36.6177C101.938 36.8351 101.746 37.1369 101.614 37.5233C101.485 37.9096 101.42 38.3604 101.42 38.8756C101.42 39.3827 101.485 39.8294 101.614 40.2158C101.746 40.6021 101.938 40.904 102.187 41.1213C102.441 41.3386 102.751 41.4473 103.117 41.4473ZM114.53 34.2271V36.4004H108.68V34.2271H114.53ZM109.905 32.0055H112.857V40.584C112.857 40.7651 112.886 40.912 112.942 41.0247C113.002 41.1334 113.089 41.2118 113.201 41.2601C113.314 41.3044 113.449 41.3265 113.606 41.3265C113.719 41.3265 113.837 41.3165 113.962 41.2964C114.091 41.2722 114.187 41.2521 114.252 41.236L114.699 43.367C114.558 43.4073 114.359 43.4576 114.101 43.518C113.847 43.5783 113.544 43.6166 113.189 43.6327C112.497 43.6649 111.904 43.5844 111.408 43.3912C110.917 43.194 110.541 42.8881 110.28 42.4736C110.022 42.059 109.897 41.5378 109.905 40.91V32.0055Z" fill="url(#paint2_linear_28_977)"/>
</g>
<rect x="1.04951" y="1.04985" width="164.9" height="53.9" rx="6.95" stroke="white" stroke-opacity="0.15" stroke-width="2.1"/>
<defs>
<filter id="filter0_d_28_977" x="6.28523" y="2.28556" width="51.4286" height="51.4285" filterUnits="userSpaceOnUse" color-interpolation-filters="sRGB">
<feFlood flood-opacity="0" result="BackgroundImageFix"/>
<feColorMatrix in="SourceAlpha" type="matrix" values="0 0 0 0 0 0 0 0 0 0 0 0 0 0 0 0 0 0 127 0" result="hardAlpha"/>
<feOffset/>
<feGaussianBlur stdDeviation="2.85714"/>
<feComposite in2="hardAlpha" operator="out"/>
<feColorMatrix type="matrix" values="0 0 0 0 0 0 0 0 0 0 0 0 0 0 0 0 0 0 0.25 0"/>
<feBlend mode="normal" in2="BackgroundImageFix" result="effect1_dropShadow_28_977"/>
<feBlend mode="normal" in="SourceGraphic" in2="effect1_dropShadow_28_977" result="shape"/>
</filter>
<filter id="filter1_d_28_977" x="54.3995" y="3.89985" width="106.2" height="48.8704" filterUnits="userSpaceOnUse" color-interpolation-filters="sRGB">
<feFlood flood-opacity="0" result="BackgroundImageFix"/>
<feColorMatrix in="SourceAlpha" type="matrix" values="0 0 0 0 0 0 0 0 0 0 0 0 0 0 0 0 0 0 127 0" result="hardAlpha"/>
<feOffset/>
<feGaussianBlur stdDeviation="2.8"/>
<feComposite in2="hardAlpha" operator="out"/>
<feColorMatrix type="matrix" values="0 0 0 0 0 0 0 0 0 0 0 0 0 0 0 0 0 0 0.25 0"/>
<feBlend mode="normal" in2="BackgroundImageFix" result="effect1_dropShadow_28_977"/>
<feBlend mode="normal" in="SourceGraphic" in2="effect1_dropShadow_28_977" result="shape"/>
</filter>
<linearGradient id="paint0_linear_28_977" x1="83.4995" y1="-0.000152588" x2="83.4995" y2="55.9998" gradientUnits="userSpaceOnUse">
<stop stop-color="#342A1D"/>
<stop offset="1" stop-color="#1C1610"/>
</linearGradient>
<linearGradient id="paint1_linear_28_977" x1="31.9995" y1="10.8571" x2="31.9995" y2="45.1429" gradientUnits="userSpaceOnUse">
<stop stop-color="#CEA260"/>
<stop offset="1" stop-color="#81562E"/>
</linearGradient>
<linearGradient id="paint2_linear_28_977" x1="87.9995" y1="28.4998" x2="87.9995" y2="46.4998" gradientUnits="userSpaceOnUse">
<stop stop-color="#E9C48D"/>
<stop offset="1" stop-color="#A2825D"/>
</linearGradient>
</defs>
</svg>
