<svg width="120" height="40" viewBox="0 0 120 40" fill="none" xmlns="http://www.w3.org/2000/svg">
<rect x="-0.000366211" y="-6.10352e-05" width="120" height="40" rx="6" fill="url(#paint0_linear_28_1054)"/>
<g filter="url(#filter0_d_28_1054)">
<path d="M15.9943 6.09277C13.2052 6.59135 10.9612 8.6552 10.2538 11.3684C9.99865 12.3481 9.98125 12.9221 10.0102 20.5224C10.0276 27.5024 10.0334 27.6647 10.1494 28.2039C10.793 31.1083 12.8573 33.178 15.7914 33.8621C16.1741 33.949 16.6612 33.9664 19.7982 33.9838C23.0454 34.007 23.3817 34.0012 23.4687 33.9143C23.5557 33.8273 23.5615 32.7084 23.5615 20.0238C23.5615 10.6205 23.5441 6.19133 23.5035 6.11017C23.4455 6.00581 23.3469 6.00002 19.949 6.00581C17.1888 6.01161 16.3597 6.029 15.9943 6.09277ZM21.242 20.0064V31.7518L18.882 31.7229C16.7076 31.6997 16.4756 31.6881 16.0407 31.5779C14.1736 31.0967 12.7877 29.659 12.3992 27.7865C12.2717 27.2009 12.2717 12.7771 12.3934 12.2032C12.7414 10.5741 13.8721 9.22334 15.3971 8.61462C16.1625 8.30736 16.5162 8.27258 18.998 8.26678L21.242 8.26098V20.0064Z" fill="white"/>
<path d="M16.4931 11.8031C16.1278 11.8727 15.5711 12.151 15.2754 12.4118C14.6665 12.9394 14.365 13.6873 14.4114 14.5685C14.4346 15.0264 14.4636 15.1482 14.6491 15.5192C14.9217 16.0816 15.3334 16.4932 15.8958 16.7714C16.2843 16.9628 16.3829 16.9859 16.8874 17.0033C17.3455 17.0207 17.5078 17.0033 17.8151 16.899C19.0734 16.4758 19.833 15.2525 19.6185 14.0003C19.3691 12.5104 17.9543 11.5132 16.4931 11.8031Z" fill="white"/>
<path d="M26.3853 6.04058C26.3621 6.05797 26.3447 12.3423 26.3447 20.0064C26.3447 32.6504 26.3505 33.9316 26.4375 33.9664C26.5941 34.0244 31.0937 34.0012 31.6504 33.9432C34.0046 33.6766 36.0805 32.2446 37.2112 30.117C37.3562 29.8445 37.5475 29.3865 37.6461 29.1024C38.0114 28.0125 37.9998 28.3024 37.9998 19.9716C37.9998 13.3221 37.9882 12.3307 37.907 11.9075C37.333 8.88708 35.031 6.60872 32.0041 6.08696C31.5982 6.01739 30.972 6 28.9541 6C27.5624 6 26.4027 6.01739 26.3853 6.04058ZM32.5782 18.6672C33.4827 18.9049 34.225 19.5948 34.5265 20.476C34.7178 21.0209 34.712 21.821 34.5207 22.3195C34.167 23.2355 33.4711 23.879 32.5782 24.1167C31.1285 24.4935 29.5861 23.6181 29.1628 22.1804C29.0353 21.7398 29.0411 20.9977 29.186 20.5456C29.6209 19.1252 31.1285 18.2904 32.5782 18.6672Z" fill="white"/>
</g>
<g filter="url(#filter1_d_28_1054)">
<path d="M47.5543 17.9999H46.2731L49.152 9.99994H50.5465L53.4254 17.9999H52.1442L49.8824 11.4531H49.8199L47.5543 17.9999ZM47.7692 14.8671H51.9254V15.8827H47.7692V14.8671ZM58.8678 11.9999L56.692 17.9999H55.442L53.2623 11.9999H54.5162L56.0358 16.6171H56.0983L57.6139 11.9999H58.8678ZM61.5397 18.1327C61.1595 18.1327 60.8157 18.0624 60.5084 17.9218C60.2011 17.7786 59.9576 17.5716 59.778 17.3007C59.6009 17.0299 59.5123 16.6979 59.5123 16.3046C59.5123 15.9661 59.5774 15.6874 59.7076 15.4687C59.8378 15.2499 60.0136 15.0768 60.235 14.9492C60.4563 14.8216 60.7037 14.7252 60.9772 14.6601C61.2506 14.595 61.5293 14.5455 61.8131 14.5117C62.1725 14.47 62.4641 14.4361 62.6881 14.4101C62.9121 14.3814 63.0748 14.3359 63.1764 14.2734C63.2779 14.2109 63.3287 14.1093 63.3287 13.9687V13.9413C63.3287 13.6002 63.2324 13.3359 63.0397 13.1484C62.8496 12.9609 62.5657 12.8671 62.1881 12.8671C61.7949 12.8671 61.485 12.9544 61.2584 13.1288C61.0345 13.3007 60.8795 13.4921 60.7936 13.7031L59.6959 13.4531C59.8261 13.0885 60.0162 12.7942 60.2662 12.5702C60.5188 12.3437 60.8092 12.1796 61.1373 12.0781C61.4654 11.9739 61.8105 11.9218 62.1725 11.9218C62.4121 11.9218 62.666 11.9505 62.9342 12.0078C63.205 12.0624 63.4576 12.164 63.692 12.3124C63.929 12.4609 64.123 12.6731 64.274 12.9492C64.4251 13.2226 64.5006 13.5781 64.5006 14.0156V17.9999H63.36V17.1796H63.3131C63.2376 17.3307 63.1243 17.4791 62.9733 17.6249C62.8222 17.7708 62.6282 17.8919 62.3912 17.9882C62.1543 18.0846 61.8704 18.1327 61.5397 18.1327ZM61.7936 17.1952C62.1165 17.1952 62.3925 17.1314 62.6217 17.0038C62.8535 16.8762 63.0293 16.7096 63.149 16.5038C63.2714 16.2955 63.3326 16.0729 63.3326 15.8359V15.0624C63.291 15.1041 63.2102 15.1432 63.0904 15.1796C62.9733 15.2135 62.8391 15.2434 62.6881 15.2695C62.5371 15.2929 62.3899 15.315 62.2467 15.3359C62.1035 15.3541 61.9837 15.3697 61.8873 15.3827C61.6608 15.4114 61.4537 15.4596 61.2662 15.5273C61.0813 15.595 60.9329 15.6926 60.8209 15.8202C60.7115 15.9452 60.6569 16.1119 60.6569 16.3202C60.6569 16.6093 60.7636 16.8281 60.9772 16.9765C61.1907 17.1223 61.4628 17.1952 61.7936 17.1952ZM66.0563 17.9999V11.9999H67.2242V17.9999H66.0563ZM66.6461 11.0742C66.443 11.0742 66.2685 11.0064 66.1227 10.871C65.9794 10.733 65.9078 10.5689 65.9078 10.3788C65.9078 10.1861 65.9794 10.0221 66.1227 9.88666C66.2685 9.74864 66.443 9.67963 66.6461 9.67963C66.8492 9.67963 67.0224 9.74864 67.1656 9.88666C67.3115 10.0221 67.3844 10.1861 67.3844 10.3788C67.3844 10.5689 67.3115 10.733 67.1656 10.871C67.0224 11.0064 66.8492 11.0742 66.6461 11.0742ZM69.9635 9.99994V17.9999H68.7955V9.99994H69.9635ZM73.2809 18.1327C72.9007 18.1327 72.5569 18.0624 72.2496 17.9218C71.9423 17.7786 71.6988 17.5716 71.5192 17.3007C71.3421 17.0299 71.2535 16.6979 71.2535 16.3046C71.2535 15.9661 71.3186 15.6874 71.4488 15.4687C71.5791 15.2499 71.7548 15.0768 71.9762 14.9492C72.1975 14.8216 72.4449 14.7252 72.7184 14.6601C72.9918 14.595 73.2705 14.5455 73.5543 14.5117C73.9137 14.47 74.2054 14.4361 74.4293 14.4101C74.6533 14.3814 74.816 14.3359 74.9176 14.2734C75.0192 14.2109 75.0699 14.1093 75.0699 13.9687V13.9413C75.0699 13.6002 74.9736 13.3359 74.7809 13.1484C74.5908 12.9609 74.3069 12.8671 73.9293 12.8671C73.5361 12.8671 73.2262 12.9544 72.9996 13.1288C72.7757 13.3007 72.6207 13.4921 72.5348 13.7031L71.4371 13.4531C71.5673 13.0885 71.7574 12.7942 72.0074 12.5702C72.26 12.3437 72.5504 12.1796 72.8785 12.0781C73.2067 11.9739 73.5517 11.9218 73.9137 11.9218C74.1533 11.9218 74.4072 11.9505 74.6754 12.0078C74.9462 12.0624 75.1988 12.164 75.4332 12.3124C75.6702 12.4609 75.8642 12.6731 76.0152 12.9492C76.1663 13.2226 76.2418 13.5781 76.2418 14.0156V17.9999H75.1012V17.1796H75.0543C74.9788 17.3307 74.8655 17.4791 74.7145 17.6249C74.5634 17.7708 74.3694 17.8919 74.1324 17.9882C73.8955 18.0846 73.6116 18.1327 73.2809 18.1327ZM73.5348 17.1952C73.8577 17.1952 74.1337 17.1314 74.3629 17.0038C74.5947 16.8762 74.7705 16.7096 74.8903 16.5038C75.0126 16.2955 75.0738 16.0729 75.0738 15.8359V15.0624C75.0322 15.1041 74.9514 15.1432 74.8317 15.1796C74.7145 15.2135 74.5804 15.2434 74.4293 15.2695C74.2783 15.2929 74.1311 15.315 73.9879 15.3359C73.8447 15.3541 73.7249 15.3697 73.6285 15.3827C73.402 15.4114 73.1949 15.4596 73.0074 15.5273C72.8225 15.595 72.6741 15.6926 72.5621 15.8202C72.4528 15.9452 72.3981 16.1119 72.3981 16.3202C72.3981 16.6093 72.5048 16.8281 72.7184 16.9765C72.9319 17.1223 73.2041 17.1952 73.5348 17.1952ZM77.8912 17.9999V9.99994H79.0592V12.9726H79.1295C79.1972 12.8476 79.2949 12.7031 79.4225 12.539C79.5501 12.3749 79.7272 12.2317 79.9537 12.1093C80.1803 11.9843 80.4798 11.9218 80.8522 11.9218C81.3365 11.9218 81.7688 12.0442 82.149 12.289C82.5292 12.5338 82.8274 12.8867 83.0436 13.3476C83.2623 13.8085 83.3717 14.3632 83.3717 15.0117C83.3717 15.6601 83.2636 16.2161 83.0475 16.6796C82.8313 17.1406 82.5345 17.496 82.1568 17.746C81.7792 17.9934 81.3483 18.1171 80.8639 18.1171C80.4993 18.1171 80.2011 18.0559 79.9694 17.9335C79.7402 17.8111 79.5605 17.6679 79.4303 17.5038C79.3001 17.3398 79.1998 17.1939 79.1295 17.0663H79.0319V17.9999H77.8912ZM79.0358 14.9999C79.0358 15.4218 79.097 15.7916 79.2194 16.1093C79.3417 16.427 79.5188 16.6757 79.7506 16.8554C79.9824 17.0325 80.2662 17.121 80.6022 17.121C80.9511 17.121 81.2428 17.0286 81.4772 16.8437C81.7115 16.6562 81.8886 16.4023 82.0084 16.082C82.1308 15.7617 82.192 15.401 82.192 14.9999C82.192 14.6041 82.1321 14.2486 82.0123 13.9335C81.8951 13.6184 81.718 13.3697 81.4811 13.1874C81.2467 13.0051 80.9537 12.914 80.6022 12.914C80.2636 12.914 79.9772 13.0012 79.7428 13.1757C79.511 13.3502 79.3352 13.5937 79.2154 13.9062C79.0957 14.2187 79.0358 14.5833 79.0358 14.9999ZM85.8512 9.99994V17.9999H84.6832V9.99994H85.8512ZM90.0084 18.121C89.4173 18.121 88.9081 17.9947 88.4811 17.7421C88.0566 17.4869 87.7285 17.1288 87.4967 16.6679C87.2675 16.2044 87.1529 15.6614 87.1529 15.039C87.1529 14.4244 87.2675 13.8827 87.4967 13.414C87.7285 12.9452 88.0514 12.5794 88.4654 12.3163C88.8821 12.0533 89.3691 11.9218 89.9264 11.9218C90.2649 11.9218 90.593 11.9778 90.9108 12.0898C91.2285 12.2018 91.5136 12.3775 91.7662 12.6171C92.0188 12.8567 92.218 13.1679 92.3639 13.5507C92.5097 13.9309 92.5826 14.3932 92.5826 14.9374V15.3515H87.8131V14.4765H91.4381C91.4381 14.1692 91.3756 13.8971 91.2506 13.6601C91.1256 13.4205 90.9498 13.2317 90.7233 13.0937C90.4993 12.9557 90.2363 12.8867 89.9342 12.8867C89.6061 12.8867 89.3196 12.9674 89.0748 13.1288C88.8326 13.2877 88.6451 13.496 88.5123 13.7538C88.3821 14.0091 88.317 14.2864 88.317 14.5859V15.2695C88.317 15.6705 88.3873 16.0117 88.5279 16.2929C88.6712 16.5742 88.8704 16.789 89.1256 16.9374C89.3808 17.0833 89.679 17.1562 90.0201 17.1562C90.2415 17.1562 90.4433 17.1249 90.6256 17.0624C90.8079 16.9973 90.9654 16.901 91.0983 16.7734C91.2311 16.6458 91.3326 16.4882 91.4029 16.3007L92.5084 16.4999C92.4199 16.8255 92.261 17.1106 92.0318 17.3554C91.8053 17.5976 91.5201 17.7864 91.1764 17.9218C90.8352 18.0546 90.4459 18.121 90.0084 18.121ZM99.317 18.121C98.7545 18.121 98.2636 17.9921 97.8443 17.7343C97.4251 17.4765 97.0996 17.1158 96.8678 16.6523C96.636 16.1887 96.5201 15.6471 96.5201 15.0273C96.5201 14.4049 96.636 13.8606 96.8678 13.3945C97.0996 12.9283 97.4251 12.5663 97.8443 12.3085C98.2636 12.0507 98.7545 11.9218 99.317 11.9218C99.8795 11.9218 100.37 12.0507 100.79 12.3085C101.209 12.5663 101.534 12.9283 101.766 13.3945C101.998 13.8606 102.114 14.4049 102.114 15.0273C102.114 15.6471 101.998 16.1887 101.766 16.6523C101.534 17.1158 101.209 17.4765 100.79 17.7343C100.37 17.9921 99.8795 18.121 99.317 18.121ZM99.3209 17.1406C99.6855 17.1406 99.9876 17.0442 100.227 16.8515C100.467 16.6588 100.644 16.4023 100.758 16.082C100.876 15.7617 100.934 15.4088 100.934 15.0234C100.934 14.6406 100.876 14.289 100.758 13.9687C100.644 13.6458 100.467 13.3867 100.227 13.1913C99.9876 12.996 99.6855 12.8984 99.3209 12.8984C98.9537 12.8984 98.649 12.996 98.4068 13.1913C98.1673 13.3867 97.9889 13.6458 97.8717 13.9687C97.7571 14.289 97.6998 14.6406 97.6998 15.0234C97.6998 15.4088 97.7571 15.7617 97.8717 16.082C97.9889 16.4023 98.1673 16.6588 98.4068 16.8515C98.649 17.0442 98.9537 17.1406 99.3209 17.1406ZM104.586 14.4374V17.9999H103.418V11.9999H104.539V12.9765H104.613C104.751 12.6588 104.967 12.4036 105.261 12.2109C105.558 12.0182 105.932 11.9218 106.382 11.9218C106.791 11.9218 107.149 12.0078 107.457 12.1796C107.764 12.3489 108.002 12.6015 108.171 12.9374C108.341 13.2734 108.425 13.6887 108.425 14.1835V17.9999H107.257V14.3242C107.257 13.8893 107.144 13.5494 106.918 13.3046C106.691 13.0572 106.38 12.9335 105.984 12.9335C105.713 12.9335 105.472 12.9921 105.261 13.1093C105.053 13.2265 104.888 13.3984 104.765 13.6249C104.645 13.8489 104.586 14.1197 104.586 14.4374Z" fill="#E8E8E8"/>
<path d="M51.3775 24.8891C51.3491 24.5766 51.2226 24.3337 50.9982 24.1604C50.7766 23.9843 50.4599 23.8962 50.0479 23.8962C49.7752 23.8962 49.5479 23.9318 49.3661 24.0028C49.1843 24.0738 49.0479 24.1718 48.957 24.2968C48.8661 24.419 48.8192 24.5596 48.8164 24.7187C48.8107 24.8494 48.8363 24.9644 48.8931 25.0639C48.9528 25.1633 49.038 25.2514 49.1488 25.3281C49.2624 25.4019 49.3988 25.4673 49.5579 25.5241C49.717 25.5809 49.8959 25.6306 50.0948 25.6732L50.8448 25.8437C51.2766 25.9374 51.6573 26.0624 51.9868 26.2187C52.3192 26.3749 52.5976 26.561 52.8221 26.7769C53.0493 26.9928 53.2212 27.2414 53.3377 27.5227C53.4542 27.8039 53.5138 28.1193 53.5167 28.4687C53.5138 29.0198 53.3746 29.4928 53.0991 29.8877C52.8235 30.2826 52.4272 30.5852 51.9101 30.7954C51.3959 31.0056 50.7752 31.1107 50.0479 31.1107C49.3178 31.1107 48.6815 31.0014 48.1388 30.7826C47.5962 30.5639 47.1743 30.2315 46.8732 29.7854C46.5721 29.3394 46.4172 28.7755 46.4087 28.0937H48.4286C48.4457 28.3749 48.5209 28.6093 48.6545 28.7968C48.788 28.9843 48.9712 29.1264 49.2042 29.2229C49.44 29.3195 49.7127 29.3678 50.0224 29.3678C50.3065 29.3678 50.5479 29.3295 50.7468 29.2528C50.9485 29.1761 51.1033 29.0695 51.2113 28.9332C51.3192 28.7968 51.3746 28.6406 51.3775 28.4644C51.3746 28.2997 51.3235 28.159 51.2241 28.0426C51.1246 27.9232 50.9712 27.821 50.7638 27.7357C50.5593 27.6477 50.2979 27.5667 49.9797 27.4928L49.0678 27.2798C48.3121 27.1065 47.717 26.8266 47.2823 26.4403C46.8476 26.0511 46.6317 25.5255 46.6346 24.8636C46.6317 24.3238 46.7766 23.8508 47.0692 23.4445C47.3618 23.0383 47.7667 22.7215 48.2837 22.4943C48.8008 22.267 49.3903 22.1533 50.0522 22.1533C50.7283 22.1533 51.315 22.2684 51.8121 22.4985C52.3121 22.7258 52.6999 23.0454 52.9755 23.4573C53.2511 23.8693 53.3917 24.3465 53.3974 24.8891H51.3775ZM55.805 30.9999L54.1005 24.4545H56.1928L57.0749 28.6477H57.1303L58.0763 24.4545H60.1175L61.0891 28.6178H61.1445L62.001 24.4545H64.0934L62.3846 30.9999H60.1559L59.1332 27.186H59.0607L58.038 30.9999H55.805ZM64.9297 30.9999V24.4545H67.0135V30.9999H64.9297ZM65.9737 23.6917C65.6811 23.6917 65.4297 23.5951 65.2194 23.4019C65.0092 23.2059 64.9041 22.9701 64.9041 22.6945C64.9041 22.4218 65.0092 22.1889 65.2194 21.9957C65.4297 21.7997 65.6811 21.7016 65.9737 21.7016C66.2692 21.7016 66.5206 21.7997 66.728 21.9957C66.9382 22.1889 67.0433 22.4218 67.0433 22.6945C67.0433 22.9701 66.9382 23.2059 66.728 23.4019C66.5206 23.5951 66.2692 23.6917 65.9737 23.6917ZM72.0344 24.4545V25.9886H67.9052V24.4545H72.0344ZM68.7702 22.8863H70.854V28.9417C70.854 29.0695 70.8739 29.1732 70.9137 29.2528C70.9563 29.3295 71.0174 29.3849 71.0969 29.419C71.1765 29.4502 71.2716 29.4658 71.3824 29.4658C71.462 29.4658 71.5458 29.4587 71.6339 29.4445C71.7248 29.4275 71.7929 29.4133 71.8384 29.4019L72.1537 30.9062C72.0543 30.9346 71.9137 30.9701 71.7319 31.0127C71.5529 31.0553 71.3384 31.0823 71.0884 31.0937C70.5998 31.1164 70.1807 31.0596 69.8313 30.9232C69.4847 30.784 69.2191 30.5681 69.0344 30.2755C68.8526 29.9829 68.7645 29.615 68.7702 29.1718V22.8863ZM76.0827 31.1235C75.3924 31.1235 74.8001 30.9815 74.3057 30.6974C73.8143 30.4133 73.4364 30.0184 73.1722 29.5127C72.908 29.0042 72.7759 28.4161 72.7759 27.7485C72.7759 27.0781 72.908 26.49 73.1722 25.9843C73.4393 25.4758 73.8185 25.0795 74.31 24.7954C74.8043 24.5113 75.3938 24.3693 76.0785 24.3693C76.6836 24.3693 77.2106 24.4786 77.6594 24.6974C78.1111 24.9161 78.4634 25.2258 78.7162 25.6264C78.9719 26.0241 79.1069 26.4914 79.1211 27.0283H77.1736C77.1339 26.6931 77.0202 26.4303 76.8327 26.24C76.6481 26.0497 76.4066 25.9545 76.1083 25.9545C75.8668 25.9545 75.6552 26.0227 75.4733 26.159C75.2915 26.2926 75.1495 26.4914 75.0472 26.7556C74.9478 27.017 74.8981 27.3408 74.8981 27.7272C74.8981 28.1136 74.9478 28.4403 75.0472 28.7073C75.1495 28.9715 75.2915 29.1718 75.4733 29.3082C75.6552 29.4417 75.8668 29.5085 76.1083 29.5085C76.3015 29.5085 76.4719 29.4673 76.6197 29.3849C76.7702 29.3025 76.8938 29.1818 76.9904 29.0227C77.087 28.8607 77.1481 28.6647 77.1736 28.4346H79.1211C79.1012 28.9744 78.9662 29.446 78.7162 29.8494C78.4691 30.2528 78.1211 30.5667 77.6722 30.7911C77.2262 31.0127 76.6964 31.1235 76.0827 31.1235ZM82.2713 27.267V30.9999H80.1875V22.2727H82.2031V25.6562H82.2755C82.4233 25.2528 82.6648 24.9374 83 24.7102C83.338 24.4829 83.7514 24.3693 84.24 24.3693C84.7003 24.3693 85.1008 24.4715 85.4417 24.6761C85.7826 24.8778 86.0469 25.1633 86.2344 25.5326C86.4247 25.9019 86.5184 26.3337 86.5156 26.8281V30.9999H84.4318V27.2372C84.4346 26.8735 84.3437 26.5894 84.1591 26.3849C83.9744 26.1803 83.7145 26.0781 83.3792 26.0781C83.1605 26.0781 82.9673 26.1264 82.7997 26.2229C82.6349 26.3167 82.5057 26.4516 82.4119 26.6278C82.321 26.8039 82.2741 27.017 82.2713 27.267Z" fill="white"/>
</g>
<rect x="0.749634" y="0.749939" width="118.5" height="38.5" rx="5.25" stroke="white" stroke-opacity="0.15" stroke-width="1.5"/>
<defs>
<filter id="filter0_d_28_1054" x="5.99963" y="1.99994" width="36.0002" height="36.0001" filterUnits="userSpaceOnUse" color-interpolation-filters="sRGB">
<feFlood flood-opacity="0" result="BackgroundImageFix"/>
<feColorMatrix in="SourceAlpha" type="matrix" values="0 0 0 0 0 0 0 0 0 0 0 0 0 0 0 0 0 0 127 0" result="hardAlpha"/>
<feOffset/>
<feGaussianBlur stdDeviation="2"/>
<feComposite in2="hardAlpha" operator="out"/>
<feColorMatrix type="matrix" values="0 0 0 0 0 0 0 0 0 0 0 0 0 0 0 0 0 0 0.25 0"/>
<feBlend mode="normal" in2="BackgroundImageFix" result="effect1_dropShadow_28_1054"/>
<feBlend mode="normal" in="SourceGraphic" in2="effect1_dropShadow_28_1054" result="shape"/>
</filter>
<filter id="filter1_d_28_1054" x="41.9996" y="2.99994" width="72" height="34" filterUnits="userSpaceOnUse" color-interpolation-filters="sRGB">
<feFlood flood-opacity="0" result="BackgroundImageFix"/>
<feColorMatrix in="SourceAlpha" type="matrix" values="0 0 0 0 0 0 0 0 0 0 0 0 0 0 0 0 0 0 127 0" result="hardAlpha"/>
<feOffset/>
<feGaussianBlur stdDeviation="2"/>
<feComposite in2="hardAlpha" operator="out"/>
<feColorMatrix type="matrix" values="0 0 0 0 0 0 0 0 0 0 0 0 0 0 0 0 0 0 0.25 0"/>
<feBlend mode="normal" in2="BackgroundImageFix" result="effect1_dropShadow_28_1054"/>
<feBlend mode="normal" in="SourceGraphic" in2="effect1_dropShadow_28_1054" result="shape"/>
</filter>
<linearGradient id="paint0_linear_28_1054" x1="-0.000152726" y1="-2.67158e-06" x2="-5.28586" y2="39.2889" gradientUnits="userSpaceOnUse">
<stop stop-color="#40080B"/>
<stop offset="1" stop-color="#240507"/>
</linearGradient>
</defs>
</svg>
