<svg width="167" height="56" viewBox="0 0 167 56" fill="none" xmlns="http://www.w3.org/2000/svg">
<rect x="-0.000488281" y="-0.000183105" width="167" height="56" rx="8" fill="url(#paint0_linear_29_5)"/>
<g filter="url(#filter0_d_29_5)">
<path fill-rule="evenodd" clip-rule="evenodd" d="M24.2545 8.27125C23.4124 9.18586 24.0934 9.6958 26.1581 9.6968C28.0341 9.6977 29.6967 9.95373 31.531 10.5242C32.2463 10.7466 32.2494 10.6903 31.4728 11.577C30.6105 12.5618 30.0079 13.3108 29.5505 13.9663C29.3414 14.266 29.0445 14.6914 28.8906 14.9116C27.1564 17.3949 24.8593 22.6289 24.5076 24.8985C24.4868 25.0332 24.4208 25.3085 24.361 25.5101C24.3012 25.7118 24.1925 26.1771 24.1195 26.5442C24.0464 26.9112 23.9157 27.5219 23.829 27.9015C23.7422 28.2811 23.6706 28.7315 23.6697 28.9024C23.6665 29.5779 23.5913 29.6567 22.7478 29.8674C18.4228 30.9474 14.88 32.8517 13.282 34.9551C11.0737 37.862 11.7519 41.2028 15.0485 43.6567C15.9662 44.3398 17.6575 45.3202 18.3257 45.5561C18.58 45.6459 18.9494 45.7919 19.1467 45.8806C20.6194 46.5422 24.269 47.4832 26.1044 47.6747C26.3734 47.7028 26.8983 47.7864 27.2709 47.8604C27.7232 47.9504 29.2769 47.9963 31.9475 47.9988C36.1196 48.0025 35.8651 48.022 39.224 47.4451C41.5463 47.0462 43.0299 46.6181 45.5563 45.6181C52.4736 42.8796 54.0699 37.0581 48.9485 33.2475C46.775 31.6304 43.3855 30.2404 40.0573 29.6012C39.6906 29.5309 39.181 29.4273 38.9249 29.371C38.6687 29.3148 38.3313 29.2687 38.175 29.2687C37.8235 29.2687 37.7915 28.6077 38.0549 26.7873C38.145 26.1642 38.2971 25.104 38.3928 24.4312C38.6684 22.4925 39.1963 19.8603 39.4354 19.2322C39.4995 19.064 39.5285 18.9264 39.4999 18.9264C39.4714 18.9264 39.5172 18.7387 39.6018 18.5093C39.751 18.1046 40.2619 16.4806 40.2753 16.3685C40.2825 16.308 40.5234 15.6682 40.673 15.3121C40.7244 15.1898 40.9175 14.7195 41.1023 14.267C41.5388 13.1976 42.6074 11.409 42.9402 11.1907C44.1574 10.3923 47.2922 9.71092 49.8037 9.6988C51.6579 9.6898 51.9995 9.54347 51.9995 8.75808C51.9995 7.59056 46.3964 7.84698 43.3344 9.15473C43.1817 9.21999 42.7853 9.38093 42.4535 9.51254C40.5179 10.28 38.0422 16.3077 36.8972 23.0411C36.7777 23.7445 36.6508 24.5702 36.6153 24.876C36.5799 25.1819 36.5056 25.7574 36.4502 26.1549C35.9393 29.8263 35.7909 37.8986 36.2267 38.3213C36.4999 38.5863 37.042 38.5878 37.3911 38.3243C37.5848 38.178 37.6203 37.9887 37.6688 36.8414L37.7243 35.526L38.7893 35.8836C40.5286 36.4676 41.557 37.1501 41.557 37.7205C41.557 38.4417 39.3449 39.577 36.9189 40.101C35.6531 40.3745 34.5138 40.5882 34.2805 40.596C31.5324 40.688 30.7518 41.0684 31.3362 42.0303L31.5555 42.3913L32.5291 42.3921C34.0387 42.3932 36.2995 42.0496 38.1131 41.5434C38.4492 41.4496 38.7991 41.3538 38.8908 41.3305C40.5929 40.8981 42.523 39.6546 42.9894 38.6901C43.9194 36.7671 41.7277 34.6435 38.0298 33.8847C37.6753 33.812 37.6688 33.7995 37.6688 33.2004C37.6688 32.671 37.6946 32.5978 37.8632 32.6484C37.9702 32.6805 38.4576 32.8106 38.9463 32.9376C47.4066 35.1346 47.6665 40.0022 39.4512 42.3955C38.9958 42.5283 38.4959 42.6581 38.3403 42.6841C38.1848 42.7101 37.9827 42.7595 37.891 42.7938C36.0355 43.4876 27.9708 43.4876 26.1153 42.7938C26.0236 42.7595 25.8215 42.7101 25.666 42.6841C24.62 42.509 22.9837 41.9216 21.6717 41.2503C17.3208 39.0239 17.4078 36.2608 21.8978 34.0687C23.0937 33.4849 23.1374 33.4851 23.0944 34.0741C23.0615 34.5271 23.0349 34.557 22.2827 34.9863C19.9199 36.3351 19.4386 38.3743 21.1545 39.7653C22.8915 41.1733 25.8018 41.2776 25.3875 39.917C25.2544 39.4793 24.9937 39.2775 24.5615 39.2775C23.4488 39.2775 21.7828 38.3765 21.7828 37.7747C21.7828 37.5701 22.674 36.6086 22.8637 36.6086C22.9243 36.6086 22.9518 36.7249 22.9246 36.867C22.8645 37.1818 23.3708 37.8318 23.6759 37.8318C24.4501 37.8318 24.6173 37.4139 24.7212 35.2184C24.7997 33.5595 24.9578 31.8082 25.1379 30.6033C25.2065 30.1445 25.2743 29.6441 25.2886 29.4911C25.3373 28.9692 25.5781 27.7687 25.9688 26.0994C27.2759 20.5152 29.3196 16.6148 33.4196 11.8795C33.9847 11.2267 34.4471 10.6161 34.4471 10.5225C34.4471 10.1371 34.1101 9.71212 33.6992 9.5796C33.469 9.50544 33.2307 9.40675 33.1696 9.36051C32.3816 8.76329 29.2639 8.14154 26.6708 8.06437L24.5045 7.99982L24.2545 8.27125ZM38.9761 9.66117C38.5495 9.77297 36.7039 12.6178 35.6263 14.824C34.9196 16.271 33.9031 18.8698 33.7229 19.6905C33.701 19.7901 33.531 20.4575 33.345 21.1736C33.159 21.8897 32.9313 22.8655 32.8389 23.3422C32.7464 23.8188 32.6203 24.459 32.5585 24.7648C32.4968 25.0707 32.4268 25.5211 32.403 25.7657C32.3791 26.0104 32.3089 26.5108 32.247 26.8777C32.0587 27.9933 31.6736 31.9277 31.6156 33.328C31.5928 33.8785 31.5189 35.2591 31.4513 36.3961C31.3009 38.9296 31.4248 39.3627 32.2684 39.2496C32.9994 39.1516 33.0785 38.8814 33.1588 36.2131C33.2827 32.0906 33.6729 28.1957 34.3502 24.32C34.6749 22.4625 35.6544 18.9402 36.1749 17.7587C36.2557 17.5752 36.4557 17.0998 36.6193 16.7022C37.0483 15.6598 37.6152 14.5567 38.2665 13.4967C38.5792 12.9877 38.8852 12.4872 38.9463 12.3847C39.0075 12.2822 39.2734 11.9077 39.5375 11.5527C40.4232 10.362 40.1257 9.35961 38.9761 9.66117ZM36.058 9.93221C35.0561 10.2474 31.504 15.8809 30.3517 18.9819C29.9783 19.987 29.3424 21.9062 29.1543 22.5963C28.787 23.9431 28.4702 25.2466 28.3435 25.9325C28.27 26.3301 28.1421 26.9806 28.0591 27.3782C27.9763 27.7758 27.857 28.4764 27.7942 28.9351C27.5568 30.6665 27.4116 31.8662 27.4185 32.038C27.4224 32.1357 27.358 32.8213 27.2755 33.5613C26.873 37.1701 27.0471 38.5475 27.903 38.5231C28.5142 38.5057 28.6584 38.2462 28.7204 37.0527C28.831 34.9265 29.1744 31.079 29.3458 30.0472C29.4017 29.7108 29.4669 29.232 29.4908 28.9833C29.5146 28.7345 29.5896 28.2591 29.6573 27.9268C30.2295 25.1197 30.2808 24.8813 30.4478 24.2545C31.2366 21.294 32.1165 18.9291 33.255 16.7101C33.9159 15.4222 35.6733 12.7419 36.3591 11.9758C37.2007 11.036 37.3213 10.5614 36.8407 10.0802C36.542 9.78128 36.5393 9.78078 36.058 9.93221ZM40.1481 31.3396C42.7712 31.9549 45.2764 32.9301 47.3237 34.1328C49.6679 35.51 50.8522 38.0251 50.0209 39.8607C48.953 42.2185 44.4464 44.8096 40.1083 45.5603C39.8969 45.5969 39.549 45.6712 39.3351 45.7255C38.9322 45.8277 38.1427 45.9517 36.3356 46.1964C35.6763 46.2856 34.0507 46.3393 32.0031 46.3393C29.9556 46.3393 28.33 46.2856 27.6706 46.1964C25.8635 45.9517 25.0741 45.8277 24.6712 45.7255C24.4573 45.6712 24.1094 45.5969 23.898 45.5603C22.4847 45.3158 19.9413 44.455 18.4347 43.7115C12.0414 40.556 12.1036 36.2494 18.5877 33.1171C19.7509 32.5552 22.1452 31.7067 22.977 31.5615C23.4149 31.4851 23.4633 31.6806 23.0326 31.7857C22.8645 31.8268 22.2889 32.0495 21.7533 32.2807C14.4598 35.4293 15.3591 41.3659 23.5047 43.8414C23.749 43.9157 24.149 44.0399 24.3934 44.1174C24.6378 44.195 25.1627 44.3176 25.5599 44.3898C25.957 44.462 26.5069 44.5637 26.7819 44.6159C29.6495 45.1593 34.3568 45.1593 37.2244 44.6159C37.4993 44.5637 38.0492 44.462 38.4464 44.3898C38.8436 44.3176 39.3685 44.195 39.6129 44.1174C39.8573 44.0399 40.2572 43.9154 40.5016 43.8407C50.1885 40.8816 49.1906 33.5336 38.7797 31.1622C38.5026 31.0991 38.4649 31.07 38.6483 31.0609C38.79 31.0538 39.4649 31.1792 40.1481 31.3396Z" fill="white"/>
</g>
<g filter="url(#filter1_d_29_5)">
<path d="M62.2609 24.4998H60.3972L64.5847 12.8635H66.6131L70.8006 24.4998H68.937L65.6472 14.9771H65.5563L62.2609 24.4998ZM62.5734 19.943H68.6188V21.4203H62.5734V19.943ZM78.7168 15.7725L75.5521 24.4998H73.7339L70.5634 15.7725H72.3873L74.5975 22.4884H74.6884L76.893 15.7725H78.7168ZM82.6032 24.693C82.0502 24.693 81.5502 24.5907 81.1032 24.3862C80.6562 24.1778 80.3021 23.8767 80.0407 23.4828C79.7831 23.0888 79.6543 22.6059 79.6543 22.0339C79.6543 21.5415 79.749 21.1362 79.9384 20.818C80.1278 20.4998 80.3835 20.2479 80.7055 20.0623C81.0274 19.8767 81.3873 19.7366 81.785 19.6419C82.1827 19.5472 82.588 19.4752 83.0009 19.4259C83.5237 19.3653 83.9479 19.3161 84.2737 19.2782C84.5994 19.2366 84.8362 19.1703 84.9839 19.0794C85.1316 18.9885 85.2055 18.8407 85.2055 18.6362V18.5964C85.2055 18.1002 85.0653 17.7157 84.785 17.443C84.5085 17.1703 84.0956 17.0339 83.5464 17.0339C82.9744 17.0339 82.5237 17.1608 82.1941 17.4146C81.8684 17.6646 81.643 17.943 81.518 18.2498L79.9214 17.8862C80.1108 17.3559 80.3873 16.9278 80.7509 16.6021C81.1184 16.2725 81.5407 16.0339 82.018 15.8862C82.4952 15.7347 82.9971 15.6589 83.5237 15.6589C83.8721 15.6589 84.2415 15.7006 84.6316 15.7839C85.0255 15.8635 85.393 16.0112 85.7339 16.2271C86.0786 16.443 86.3608 16.7517 86.5805 17.1532C86.8002 17.551 86.91 18.068 86.91 18.7044V24.4998H85.2509V23.3066H85.1827C85.0729 23.5263 84.9081 23.7422 84.6884 23.9544C84.4687 24.1665 84.1865 24.3426 83.8418 24.4828C83.4971 24.6229 83.0843 24.693 82.6032 24.693ZM82.9725 23.3294C83.4422 23.3294 83.8437 23.2366 84.1771 23.0509C84.5142 22.8653 84.7699 22.6229 84.9441 22.3237C85.1221 22.0206 85.2112 21.6968 85.2112 21.3521V20.2271C85.1505 20.2877 85.0331 20.3445 84.8589 20.3975C84.6884 20.4468 84.4933 20.4903 84.2737 20.5282C84.054 20.5623 83.8399 20.5945 83.6316 20.6248C83.4233 20.6513 83.249 20.6741 83.1089 20.693C82.7793 20.7347 82.4782 20.8047 82.2055 20.9032C81.9365 21.0017 81.7206 21.1438 81.5577 21.3294C81.3987 21.5112 81.3191 21.7536 81.3191 22.0566C81.3191 22.4771 81.4744 22.7953 81.785 23.0112C82.0956 23.2233 82.4915 23.3294 82.9725 23.3294ZM89.1728 24.4998V15.7725H90.8717V24.4998H89.1728ZM90.0308 14.426C89.7353 14.426 89.4815 14.3275 89.2694 14.1305C89.0611 13.9297 88.9569 13.6911 88.9569 13.4146C88.9569 13.1343 89.0611 12.8956 89.2694 12.6987C89.4815 12.4979 89.7353 12.3975 90.0308 12.3975C90.3262 12.3975 90.5781 12.4979 90.7864 12.6987C90.9986 12.8956 91.1046 13.1343 91.1046 13.4146C91.1046 13.6911 90.9986 13.9297 90.7864 14.1305C90.5781 14.3275 90.3262 14.426 90.0308 14.426ZM94.856 12.8635V24.4998H93.1572V12.8635H94.856ZM99.6813 24.693C99.1283 24.693 98.6283 24.5907 98.1813 24.3862C97.7343 24.1778 97.3802 23.8767 97.1188 23.4828C96.8612 23.0888 96.7325 22.6059 96.7325 22.0339C96.7325 21.5415 96.8272 21.1362 97.0165 20.818C97.2059 20.4998 97.4616 20.2479 97.7836 20.0623C98.1056 19.8767 98.4654 19.7366 98.8631 19.6419C99.2609 19.5472 99.6662 19.4752 100.079 19.4259C100.602 19.3653 101.026 19.3161 101.352 19.2782C101.678 19.2366 101.914 19.1703 102.062 19.0794C102.21 18.9885 102.284 18.8407 102.284 18.6362V18.5964C102.284 18.1002 102.143 17.7157 101.863 17.443C101.587 17.1703 101.174 17.0339 100.624 17.0339C100.053 17.0339 99.6018 17.1608 99.2722 17.4146C98.9465 17.6646 98.7211 17.943 98.5961 18.2498L96.9995 17.8862C97.1889 17.3559 97.4654 16.9278 97.829 16.6021C98.1965 16.2725 98.6188 16.0339 99.0961 15.8862C99.5734 15.7347 100.075 15.6589 100.602 15.6589C100.95 15.6589 101.32 15.7006 101.71 15.7839C102.104 15.8635 102.471 16.0112 102.812 16.2271C103.157 16.443 103.439 16.7517 103.659 17.1532C103.878 17.551 103.988 18.068 103.988 18.7044V24.4998H102.329V23.3066H102.261C102.151 23.5263 101.986 23.7422 101.767 23.9544C101.547 24.1665 101.265 24.3426 100.92 24.4828C100.575 24.6229 100.162 24.693 99.6813 24.693ZM100.051 23.3294C100.52 23.3294 100.922 23.2366 101.255 23.0509C101.592 22.8653 101.848 22.6229 102.022 22.3237C102.2 22.0206 102.289 21.6968 102.289 21.3521V20.2271C102.229 20.2877 102.111 20.3445 101.937 20.3975C101.767 20.4468 101.571 20.4903 101.352 20.5282C101.132 20.5623 100.918 20.5945 100.71 20.6248C100.501 20.6513 100.327 20.6741 100.187 20.693C99.8575 20.7347 99.5563 20.8047 99.2836 20.9032C99.0147 21.0017 98.7987 21.1438 98.6359 21.3294C98.4768 21.5112 98.3972 21.7536 98.3972 22.0566C98.3972 22.4771 98.5525 22.7953 98.8631 23.0112C99.1737 23.2233 99.5696 23.3294 100.051 23.3294ZM106.387 24.4998V12.8635H108.086V17.1873H108.188C108.287 17.0055 108.429 16.7953 108.615 16.5566C108.8 16.318 109.058 16.1097 109.387 15.9316C109.717 15.7498 110.152 15.6589 110.694 15.6589C111.399 15.6589 112.027 15.8369 112.58 16.193C113.133 16.5491 113.567 17.0623 113.882 17.7328C114.2 18.4032 114.359 19.21 114.359 20.1532C114.359 21.0964 114.202 21.9051 113.887 22.5794C113.573 23.2498 113.141 23.7669 112.592 24.1305C112.043 24.4903 111.416 24.6703 110.711 24.6703C110.181 24.6703 109.747 24.5813 109.41 24.4032C109.077 24.2252 108.815 24.0169 108.626 23.7782C108.437 23.5396 108.291 23.3275 108.188 23.1419H108.046V24.4998H106.387ZM108.052 20.1362C108.052 20.7498 108.141 21.2877 108.319 21.7498C108.497 22.2119 108.755 22.5737 109.092 22.835C109.429 23.0926 109.842 23.2214 110.33 23.2214C110.838 23.2214 111.262 23.0869 111.603 22.818C111.944 22.5453 112.202 22.1759 112.376 21.71C112.554 21.2441 112.643 20.7195 112.643 20.1362C112.643 19.5604 112.556 19.0434 112.382 18.585C112.211 18.1267 111.954 17.765 111.609 17.4998C111.268 17.2347 110.842 17.1021 110.33 17.1021C109.838 17.1021 109.421 17.229 109.08 17.4828C108.743 17.7366 108.488 18.0907 108.313 18.5453C108.139 18.9998 108.052 19.5301 108.052 20.1362ZM117.965 12.8635V24.4998H116.267V12.8635H117.965ZM124.012 24.6759C123.152 24.6759 122.412 24.4922 121.791 24.1248C121.173 23.7536 120.696 23.2328 120.359 22.5623C120.026 21.8881 119.859 21.0983 119.859 20.193C119.859 19.2991 120.026 18.5112 120.359 17.8294C120.696 17.1475 121.166 16.6153 121.768 16.2328C122.374 15.8502 123.082 15.6589 123.893 15.6589C124.385 15.6589 124.863 15.7403 125.325 15.9032C125.787 16.0661 126.202 16.3218 126.569 16.6703C126.937 17.0188 127.226 17.4714 127.438 18.0282C127.651 18.5813 127.757 19.2536 127.757 20.0453V20.6475H120.819V19.3748H126.092C126.092 18.9278 126.001 18.532 125.819 18.1873C125.637 17.8388 125.382 17.5642 125.052 17.3635C124.726 17.1627 124.344 17.0623 123.904 17.0623C123.427 17.0623 123.01 17.1797 122.654 17.4146C122.302 17.6456 122.029 17.9487 121.836 18.3237C121.647 18.6949 121.552 19.0983 121.552 19.5339V20.5282C121.552 21.1116 121.654 21.6078 121.859 22.0169C122.067 22.4259 122.357 22.7384 122.728 22.9544C123.099 23.1665 123.533 23.2725 124.029 23.2725C124.351 23.2725 124.645 23.2271 124.91 23.1362C125.175 23.0415 125.404 22.9013 125.598 22.7157C125.791 22.5301 125.938 22.3009 126.041 22.0282L127.649 22.318C127.52 22.7915 127.289 23.2063 126.955 23.5623C126.626 23.9146 126.211 24.1892 125.711 24.3862C125.215 24.5794 124.649 24.6759 124.012 24.6759ZM138.029 15.7725V17.1362H133.098V15.7725H138.029ZM134.45 24.4998V14.7612C134.45 14.2157 134.569 13.7631 134.808 13.4032C135.046 13.0396 135.363 12.7688 135.757 12.5907C136.151 12.4089 136.579 12.318 137.041 12.318C137.382 12.318 137.673 12.3464 137.916 12.4032C138.158 12.4563 138.338 12.5055 138.455 12.551L138.058 13.926C137.978 13.9032 137.876 13.8767 137.751 13.8464C137.626 13.8123 137.474 13.7953 137.296 13.7953C136.883 13.7953 136.588 13.8975 136.41 14.1021C136.236 14.3066 136.149 14.6021 136.149 14.9885V24.4998H134.45ZM143.115 24.6759C142.296 24.6759 141.582 24.4884 140.972 24.1134C140.363 23.7384 139.889 23.2138 139.552 22.5396C139.215 21.8653 139.046 21.0775 139.046 20.1759C139.046 19.2706 139.215 18.479 139.552 17.801C139.889 17.1229 140.363 16.5964 140.972 16.2214C141.582 15.8464 142.296 15.6589 143.115 15.6589C143.933 15.6589 144.647 15.8464 145.257 16.2214C145.866 16.5964 146.34 17.1229 146.677 17.801C147.014 18.479 147.183 19.2706 147.183 20.1759C147.183 21.0775 147.014 21.8653 146.677 22.5396C146.34 23.2138 145.866 23.7384 145.257 24.1134C144.647 24.4884 143.933 24.6759 143.115 24.6759ZM143.12 23.2498C143.651 23.2498 144.09 23.1097 144.438 22.8294C144.787 22.5491 145.044 22.1759 145.211 21.71C145.382 21.2441 145.467 20.7309 145.467 20.1703C145.467 19.6135 145.382 19.1021 145.211 18.6362C145.044 18.1665 144.787 17.7896 144.438 17.5055C144.09 17.2214 143.651 17.0794 143.12 17.0794C142.586 17.0794 142.143 17.2214 141.791 17.5055C141.442 17.7896 141.183 18.1665 141.012 18.6362C140.846 19.1021 140.762 19.6135 140.762 20.1703C140.762 20.7309 140.846 21.2441 141.012 21.71C141.183 22.1759 141.442 22.5491 141.791 22.8294C142.143 23.1097 142.586 23.2498 143.12 23.2498ZM149.079 24.4998V15.7725H150.721V17.1589H150.812C150.971 16.6892 151.251 16.3199 151.653 16.051C152.058 15.7782 152.517 15.6419 153.028 15.6419C153.134 15.6419 153.259 15.6456 153.403 15.6532C153.551 15.6608 153.666 15.6703 153.749 15.6816V17.3066C153.681 17.2877 153.56 17.2669 153.386 17.2441C153.212 17.2176 153.037 17.2044 152.863 17.2044C152.462 17.2044 152.104 17.2896 151.789 17.46C151.479 17.6267 151.232 17.8597 151.051 18.1589C150.869 18.4544 150.778 18.7915 150.778 19.1703V24.4998H149.079Z" fill="#E8E8E8"/>
<path d="M63.8994 43.4998L60.3014 31.1362H63.6036L65.469 39.2377H65.5716L67.7026 31.1362H70.3951L72.5261 39.2559H72.6288L74.5002 31.1362H77.7964L74.2044 43.4998H71.3248L69.0972 36.0019H69.0006L66.7729 43.4998H63.8994ZM80.6156 43.6568C80.024 43.6568 79.4988 43.5582 79.04 43.361C78.5852 43.1597 78.225 42.8579 77.9594 42.4554C77.6978 42.0489 77.567 41.5398 77.567 40.9281C77.567 40.4129 77.6575 39.9783 77.8386 39.6241C78.0197 39.2699 78.2693 38.9822 78.5872 38.7608C78.9052 38.5395 79.2714 38.3724 79.6859 38.2598C80.1005 38.143 80.5432 38.0646 81.0141 38.0243C81.5413 37.976 81.9659 37.9257 82.2879 37.8734C82.6098 37.817 82.8433 37.7386 82.9881 37.638C83.1371 37.5333 83.2115 37.3864 83.2115 37.1973V37.1671C83.2115 36.8572 83.1049 36.6177 82.8916 36.4487C82.6782 36.2796 82.3905 36.1951 82.0283 36.1951C81.6379 36.1951 81.324 36.2796 81.0865 36.4487C80.8491 36.6177 80.6981 36.8511 80.6337 37.149L77.9111 37.0524C77.9916 36.4889 78.1988 35.9858 78.5329 35.5431C78.871 35.0964 79.3338 34.7463 79.9214 34.4927C80.513 34.2351 81.2233 34.1063 82.0524 34.1063C82.644 34.1063 83.1894 34.1768 83.6884 34.3176C84.1875 34.4545 84.6221 34.6557 84.9924 34.9213C85.3627 35.1829 85.6484 35.5049 85.8496 35.8872C86.0549 36.2696 86.1575 36.7063 86.1575 37.1973V43.4998H83.3805V42.2079H83.3081C83.1431 42.5218 82.9318 42.7875 82.6742 43.0048C82.4207 43.2221 82.1208 43.3851 81.7747 43.4938C81.4326 43.6024 81.0463 43.6568 80.6156 43.6568ZM81.5272 41.725C81.8451 41.725 82.1309 41.6606 82.3844 41.5318C82.642 41.403 82.8473 41.2259 83.0002 41.0005C83.1532 40.7711 83.2296 40.5055 83.2296 40.2036V39.3223C83.1451 39.3665 83.0425 39.4068 82.9217 39.443C82.805 39.4792 82.6762 39.5134 82.5354 39.5456C82.3945 39.5778 82.2496 39.606 82.1007 39.6301C81.9518 39.6543 81.8089 39.6764 81.6721 39.6965C81.3944 39.7408 81.1569 39.8092 80.9597 39.9018C80.7666 39.9944 80.6176 40.1151 80.513 40.264C80.4124 40.4089 80.3621 40.582 80.3621 40.7832C80.3621 41.0891 80.4707 41.3225 80.6881 41.4835C80.9094 41.6445 81.1891 41.725 81.5272 41.725ZM93.1966 34.2271V36.4004H87.3468V34.2271H93.1966ZM88.5723 32.0055H91.5244V40.584C91.5244 40.7651 91.5525 40.912 91.6089 41.0247C91.6692 41.1333 91.7558 41.2118 91.8685 41.2601C91.9812 41.3044 92.116 41.3265 92.2729 41.3265C92.3856 41.3265 92.5044 41.3165 92.6291 41.2963C92.7579 41.2722 92.8545 41.2521 92.9189 41.236L93.3656 43.367C93.2248 43.4072 93.0255 43.4576 92.768 43.5179C92.5144 43.5783 92.2106 43.6165 91.8564 43.6326C91.1642 43.6648 90.5705 43.5843 90.0755 43.3911C89.5845 43.1939 89.2082 42.8881 88.9466 42.4735C88.689 42.059 88.5643 41.5378 88.5723 40.91V32.0055ZM98.9377 43.6749C97.9678 43.6749 97.1307 43.4837 96.4263 43.1014C95.7261 42.715 95.1868 42.1657 94.8085 41.4533C94.4342 40.7369 94.247 39.8857 94.247 38.8997C94.247 37.9418 94.4362 37.1047 94.8145 36.3883C95.1928 35.6679 95.7261 35.1085 96.4143 34.71C97.1025 34.3076 97.9134 34.1063 98.8472 34.1063C99.5072 34.1063 100.111 34.209 100.658 34.4142C101.206 34.6195 101.678 34.9233 102.077 35.3258C102.475 35.7283 102.785 36.2253 103.007 36.8169C103.228 37.4045 103.339 38.0786 103.339 38.8393V39.5758H95.2793V37.8613H100.592C100.588 37.5474 100.513 37.2677 100.368 37.0222C100.224 36.7767 100.024 36.5855 99.7708 36.4487C99.5213 36.3078 99.2335 36.2374 98.9075 36.2374C98.5775 36.2374 98.2817 36.3118 98.0201 36.4608C97.7585 36.6056 97.5512 36.8049 97.3983 37.0584C97.2454 37.3079 97.1649 37.5917 97.1568 37.9096V39.6543C97.1568 40.0326 97.2313 40.3646 97.3802 40.6504C97.5291 40.9321 97.7404 41.1514 98.0141 41.3084C98.2877 41.4654 98.6137 41.5438 98.992 41.5438C99.2536 41.5438 99.4911 41.5076 99.7044 41.4352C99.9177 41.3627 100.101 41.2561 100.254 41.1152C100.407 40.9744 100.521 40.8013 100.598 40.596L103.308 40.6745C103.196 41.2822 102.948 41.8115 102.566 42.2622C102.188 42.709 101.691 43.0571 101.075 43.3066C100.459 43.5521 99.7467 43.6749 98.9377 43.6749ZM104.846 43.4998V34.2271H107.714V35.9174H107.81C107.98 35.3057 108.255 34.8509 108.638 34.5531C109.02 34.2512 109.465 34.1003 109.972 34.1003C110.109 34.1003 110.249 34.1104 110.394 34.1305C110.539 34.1466 110.674 34.1728 110.799 34.209V36.7747C110.658 36.7264 110.473 36.6881 110.243 36.66C110.018 36.6318 109.817 36.6177 109.64 36.6177C109.29 36.6177 108.974 36.6962 108.692 36.8532C108.414 37.0061 108.195 37.2214 108.034 37.4991C107.877 37.7728 107.798 38.0947 107.798 38.465V43.4998H104.846ZM117.704 34.2271V36.4004H111.739V34.2271H117.704ZM112.983 43.4998V33.7562C112.983 33.0398 113.117 32.4462 113.387 31.9753C113.657 31.5004 114.031 31.1462 114.51 30.9128C114.989 30.6754 115.542 30.5566 116.17 30.5566C116.581 30.5566 116.967 30.5888 117.329 30.6532C117.695 30.7136 117.967 30.7679 118.144 30.8162L117.673 32.9774C117.565 32.9412 117.432 32.911 117.275 32.8869C117.122 32.8627 116.977 32.8507 116.84 32.8507C116.494 32.8507 116.257 32.9271 116.128 33.0801C115.999 33.233 115.935 33.4423 115.935 33.7079V43.4998H112.983ZM121.372 43.6568C120.781 43.6568 120.256 43.5582 119.797 43.361C119.342 43.1597 118.982 42.8579 118.716 42.4554C118.455 42.0489 118.324 41.5398 118.324 40.9281C118.324 40.4129 118.414 39.9783 118.595 39.6241C118.777 39.2699 119.026 38.9822 119.344 38.7608C119.662 38.5395 120.028 38.3724 120.443 38.2598C120.857 38.143 121.3 38.0646 121.771 38.0243C122.298 37.976 122.723 37.9257 123.045 37.8734C123.367 37.817 123.6 37.7386 123.745 37.638C123.894 37.5333 123.968 37.3864 123.968 37.1973V37.1671C123.968 36.8572 123.862 36.6177 123.648 36.4487C123.435 36.2796 123.147 36.1951 122.785 36.1951C122.395 36.1951 122.081 36.2796 121.843 36.4487C121.606 36.6177 121.455 36.8511 121.391 37.149L118.668 37.0524C118.748 36.4889 118.956 35.9858 119.29 35.5431C119.628 35.0964 120.091 34.7463 120.678 34.4927C121.27 34.2351 121.98 34.1063 122.809 34.1063C123.401 34.1063 123.946 34.1768 124.445 34.3176C124.944 34.4545 125.379 34.6557 125.749 34.9213C126.119 35.1829 126.405 35.5049 126.606 35.8872C126.812 36.2696 126.914 36.7063 126.914 37.1973V43.4998H124.137V42.2079H124.065C123.9 42.5218 123.689 42.7875 123.431 43.0048C123.177 43.2221 122.878 43.3851 122.532 43.4938C122.189 43.6024 121.803 43.6568 121.372 43.6568ZM122.284 41.725C122.602 41.725 122.888 41.6606 123.141 41.5318C123.399 41.403 123.604 41.2259 123.757 41.0005C123.91 40.7711 123.986 40.5055 123.986 40.2036V39.3223C123.902 39.3665 123.799 39.4068 123.679 39.443C123.562 39.4792 123.433 39.5134 123.292 39.5456C123.151 39.5778 123.006 39.606 122.858 39.6301C122.709 39.6543 122.566 39.6764 122.429 39.6965C122.151 39.7408 121.914 39.8092 121.717 39.9018C121.523 39.9944 121.374 40.1151 121.27 40.264C121.169 40.4089 121.119 40.582 121.119 40.7832C121.119 41.0891 121.228 41.3225 121.445 41.4835C121.666 41.6445 121.946 41.725 122.284 41.725ZM131.671 31.1362V43.4998H128.719V31.1362H131.671ZM136.503 31.1362V43.4998H133.55V31.1362H136.503Z" fill="white"/>
</g>
<rect x="1.04951" y="1.04982" width="164.9" height="53.9" rx="6.95" stroke="white" stroke-opacity="0.15" stroke-width="2.1"/>
<defs>
<filter id="filter0_d_29_5" x="6.28523" y="2.28553" width="51.4286" height="51.4286" filterUnits="userSpaceOnUse" color-interpolation-filters="sRGB">
<feFlood flood-opacity="0" result="BackgroundImageFix"/>
<feColorMatrix in="SourceAlpha" type="matrix" values="0 0 0 0 0 0 0 0 0 0 0 0 0 0 0 0 0 0 127 0" result="hardAlpha"/>
<feOffset/>
<feGaussianBlur stdDeviation="2.85714"/>
<feComposite in2="hardAlpha" operator="out"/>
<feColorMatrix type="matrix" values="0 0 0 0 0 0 0 0 0 0 0 0 0 0 0 0 0 0 0.25 0"/>
<feBlend mode="normal" in2="BackgroundImageFix" result="effect1_dropShadow_29_5"/>
<feBlend mode="normal" in="SourceGraphic" in2="effect1_dropShadow_29_5" result="shape"/>
</filter>
<filter id="filter1_d_29_5" x="54.3995" y="3.89982" width="106.2" height="48.2" filterUnits="userSpaceOnUse" color-interpolation-filters="sRGB">
<feFlood flood-opacity="0" result="BackgroundImageFix"/>
<feColorMatrix in="SourceAlpha" type="matrix" values="0 0 0 0 0 0 0 0 0 0 0 0 0 0 0 0 0 0 127 0" result="hardAlpha"/>
<feOffset/>
<feGaussianBlur stdDeviation="2.8"/>
<feComposite in2="hardAlpha" operator="out"/>
<feColorMatrix type="matrix" values="0 0 0 0 0 0 0 0 0 0 0 0 0 0 0 0 0 0 0.25 0"/>
<feBlend mode="normal" in2="BackgroundImageFix" result="effect1_dropShadow_29_5"/>
<feBlend mode="normal" in="SourceGraphic" in2="effect1_dropShadow_29_5" result="shape"/>
</filter>
<linearGradient id="paint0_linear_29_5" x1="83.4995" y1="-0.000183105" x2="83.4995" y2="55.9998" gradientUnits="userSpaceOnUse">
<stop stop-color="#11192C"/>
<stop offset="1" stop-color="#13111D"/>
</linearGradient>
</defs>
</svg>
