<svg width="168" height="56" viewBox="0 0 168 56" fill="none" xmlns="http://www.w3.org/2000/svg">
<rect x="-0.000488281" y="-0.000244141" width="168" height="56" rx="8" fill="url(#paint0_linear_28_1070)"/>
<g filter="url(#filter0_d_28_1070)">
<path d="M30.0051 47.9175C26.9239 47.6226 23.8044 46.5167 21.1247 44.7692C18.8791 43.3049 18.372 42.703 18.372 41.5017C18.372 39.0887 21.0266 34.8625 25.5684 30.0445C28.1478 27.3083 31.7408 24.101 32.1294 24.1879C32.8846 24.3567 38.9238 30.2442 41.1846 33.0157C44.7596 37.3983 46.4031 40.9868 45.5682 42.5866C44.9335 43.8028 40.995 46.1797 38.1016 47.0929C35.7169 47.8455 32.585 48.1645 30.0051 47.9175V47.9175ZM15.3391 38.9929C13.4731 36.1318 12.5304 33.315 12.0752 29.2411C11.9249 27.8958 11.9788 27.1264 12.4165 24.3652C12.9621 20.9238 14.9229 16.9426 17.2791 14.4925C18.2826 13.449 18.3722 13.4236 19.5955 13.8354C21.0809 14.3355 22.6673 15.4305 25.1274 17.6539L26.5629 18.9511L25.779 19.9135C22.1404 24.3811 18.2994 30.7138 16.8518 34.6317C16.0648 36.7616 15.7474 38.8996 16.086 39.7897C16.3146 40.3907 16.1046 40.1666 15.3391 38.9929ZM48.0933 39.4795C48.2777 38.5802 48.0445 36.9284 47.4981 35.2624C46.3147 31.6544 42.3591 24.9423 38.7269 20.3788L37.5835 18.9422L38.8205 17.8069C40.4357 16.3246 41.5572 15.4371 42.7672 14.6833C43.722 14.0885 45.0865 13.562 45.673 13.562C46.0346 13.562 47.3077 14.8824 48.3353 16.3234C49.927 18.5552 51.098 21.2606 51.6912 24.077C52.0745 25.8967 52.1065 29.792 51.753 31.6073C51.4629 33.097 50.8503 35.0294 50.2527 36.34C49.805 37.322 48.6913 39.2291 48.2033 39.8497C47.9524 40.1687 47.9522 40.168 48.0933 39.4795H48.0933ZM30.335 12.8807C28.659 12.0301 26.0736 11.117 24.6454 10.8714C24.1448 10.7852 23.2907 10.7372 22.7475 10.7646C21.5691 10.8241 21.6217 10.7625 23.5121 9.86992C25.0836 9.12783 26.3946 8.69144 28.1742 8.31798C30.1761 7.89787 33.9389 7.89294 35.909 8.30785C38.0368 8.75599 40.5423 9.68788 41.9542 10.5563L42.3738 10.8143L41.4111 10.7658C39.4979 10.6692 36.7097 11.4417 33.7162 12.8977C32.8133 13.3368 32.0278 13.6876 31.9707 13.6771C31.9135 13.6667 31.1774 13.3082 30.335 12.8807V12.8807Z" fill="white"/>
</g>
<g filter="url(#filter1_d_28_1070)">
<path d="M66.2609 24.4998H64.3972L68.5847 12.8634H70.6131L74.8006 24.4998H72.937L69.6472 14.977H69.5563L66.2609 24.4998ZM66.5734 19.9429H72.6188V21.4202H66.5734V19.9429ZM82.7168 15.7725L79.5521 24.4998H77.7339L74.5634 15.7725H76.3873L78.5975 22.4884H78.6884L80.893 15.7725H82.7168ZM86.6032 24.6929C86.0502 24.6929 85.5502 24.5907 85.1032 24.3861C84.6562 24.1778 84.3021 23.8766 84.0407 23.4827C83.7831 23.0888 83.6543 22.6058 83.6543 22.0338C83.6543 21.5414 83.749 21.1361 83.9384 20.8179C84.1278 20.4998 84.3835 20.2479 84.7055 20.0623C85.0274 19.8766 85.3873 19.7365 85.785 19.6418C86.1827 19.5471 86.588 19.4751 87.0009 19.4259C87.5237 19.3653 87.9479 19.316 88.2737 19.2782C88.5994 19.2365 88.8362 19.1702 88.9839 19.0793C89.1316 18.9884 89.2055 18.8407 89.2055 18.6361V18.5963C89.2055 18.1001 89.0653 17.7157 88.785 17.4429C88.5085 17.1702 88.0956 17.0338 87.5464 17.0338C86.9744 17.0338 86.5237 17.1607 86.1941 17.4145C85.8684 17.6645 85.643 17.9429 85.518 18.2498L83.9214 17.8861C84.1108 17.3558 84.3873 16.9278 84.7509 16.602C85.1184 16.2725 85.5407 16.0338 86.018 15.8861C86.4952 15.7346 86.9971 15.6588 87.5237 15.6588C87.8721 15.6588 88.2415 15.7005 88.6316 15.7838C89.0255 15.8634 89.393 16.0111 89.7339 16.227C90.0786 16.4429 90.3608 16.7516 90.5805 17.1532C90.8002 17.5509 90.91 18.0679 90.91 18.7043V24.4998H89.2509V23.3066H89.1827C89.0729 23.5263 88.9081 23.7422 88.6884 23.9543C88.4687 24.1664 88.1865 24.3426 87.8418 24.4827C87.4971 24.6229 87.0843 24.6929 86.6032 24.6929ZM86.9725 23.3293C87.4422 23.3293 87.8437 23.2365 88.1771 23.0509C88.5142 22.8653 88.7699 22.6229 88.9441 22.3236C89.1221 22.0206 89.2112 21.6967 89.2112 21.352V20.227C89.1505 20.2876 89.0331 20.3444 88.8589 20.3975C88.6884 20.4467 88.4933 20.4903 88.2737 20.5282C88.054 20.5623 87.8399 20.5944 87.6316 20.6248C87.4233 20.6513 87.249 20.674 87.1089 20.6929C86.7793 20.7346 86.4782 20.8047 86.2055 20.9032C85.9365 21.0016 85.7206 21.1437 85.5577 21.3293C85.3987 21.5111 85.3191 21.7535 85.3191 22.0566C85.3191 22.477 85.4744 22.7952 85.785 23.0111C86.0956 23.2232 86.4915 23.3293 86.9725 23.3293ZM93.1728 24.4998V15.7725H94.8717V24.4998H93.1728ZM94.0308 14.4259C93.7353 14.4259 93.4815 14.3274 93.2694 14.1304C93.0611 13.9297 92.9569 13.691 92.9569 13.4145C92.9569 13.1342 93.0611 12.8956 93.2694 12.6986C93.4815 12.4979 93.7353 12.3975 94.0308 12.3975C94.3262 12.3975 94.5781 12.4979 94.7864 12.6986C94.9986 12.8956 95.1046 13.1342 95.1046 13.4145C95.1046 13.691 94.9986 13.9297 94.7864 14.1304C94.5781 14.3274 94.3262 14.4259 94.0308 14.4259ZM98.856 12.8634V24.4998H97.1572V12.8634H98.856ZM103.681 24.6929C103.128 24.6929 102.628 24.5907 102.181 24.3861C101.734 24.1778 101.38 23.8766 101.119 23.4827C100.861 23.0888 100.732 22.6058 100.732 22.0338C100.732 21.5414 100.827 21.1361 101.017 20.8179C101.206 20.4998 101.462 20.2479 101.784 20.0623C102.106 19.8766 102.465 19.7365 102.863 19.6418C103.261 19.5471 103.666 19.4751 104.079 19.4259C104.602 19.3653 105.026 19.316 105.352 19.2782C105.678 19.2365 105.914 19.1702 106.062 19.0793C106.21 18.9884 106.284 18.8407 106.284 18.6361V18.5963C106.284 18.1001 106.143 17.7157 105.863 17.4429C105.587 17.1702 105.174 17.0338 104.624 17.0338C104.053 17.0338 103.602 17.1607 103.272 17.4145C102.946 17.6645 102.721 17.9429 102.596 18.2498L101 17.8861C101.189 17.3558 101.465 16.9278 101.829 16.602C102.196 16.2725 102.619 16.0338 103.096 15.8861C103.573 15.7346 104.075 15.6588 104.602 15.6588C104.95 15.6588 105.32 15.7005 105.71 15.7838C106.104 15.8634 106.471 16.0111 106.812 16.227C107.157 16.4429 107.439 16.7516 107.659 17.1532C107.878 17.5509 107.988 18.0679 107.988 18.7043V24.4998H106.329V23.3066H106.261C106.151 23.5263 105.986 23.7422 105.767 23.9543C105.547 24.1664 105.265 24.3426 104.92 24.4827C104.575 24.6229 104.162 24.6929 103.681 24.6929ZM104.051 23.3293C104.52 23.3293 104.922 23.2365 105.255 23.0509C105.592 22.8653 105.848 22.6229 106.022 22.3236C106.2 22.0206 106.289 21.6967 106.289 21.352V20.227C106.229 20.2876 106.111 20.3444 105.937 20.3975C105.767 20.4467 105.571 20.4903 105.352 20.5282C105.132 20.5623 104.918 20.5944 104.71 20.6248C104.501 20.6513 104.327 20.674 104.187 20.6929C103.857 20.7346 103.556 20.8047 103.284 20.9032C103.015 21.0016 102.799 21.1437 102.636 21.3293C102.477 21.5111 102.397 21.7535 102.397 22.0566C102.397 22.477 102.553 22.7952 102.863 23.0111C103.174 23.2232 103.57 23.3293 104.051 23.3293ZM110.387 24.4998V12.8634H112.086V17.1873H112.188C112.287 17.0054 112.429 16.7952 112.615 16.5566C112.8 16.3179 113.058 16.1096 113.387 15.9316C113.717 15.7498 114.152 15.6588 114.694 15.6588C115.399 15.6588 116.027 15.8369 116.58 16.1929C117.133 16.549 117.567 17.0623 117.882 17.7327C118.2 18.4032 118.359 19.21 118.359 20.1532C118.359 21.0963 118.202 21.9051 117.887 22.5793C117.573 23.2498 117.141 23.7668 116.592 24.1304C116.043 24.4903 115.416 24.6702 114.711 24.6702C114.181 24.6702 113.747 24.5812 113.41 24.4032C113.077 24.2251 112.815 24.0168 112.626 23.7782C112.437 23.5395 112.291 23.3274 112.188 23.1418H112.046V24.4998H110.387ZM112.052 20.1361C112.052 20.7498 112.141 21.2876 112.319 21.7498C112.497 22.2119 112.755 22.5736 113.092 22.835C113.429 23.0926 113.842 23.2213 114.33 23.2213C114.838 23.2213 115.262 23.0869 115.603 22.8179C115.944 22.5452 116.202 22.1759 116.376 21.71C116.554 21.2441 116.643 20.7194 116.643 20.1361C116.643 19.5604 116.556 19.0433 116.382 18.585C116.211 18.1266 115.954 17.7649 115.609 17.4998C115.268 17.2346 114.842 17.102 114.33 17.102C113.838 17.102 113.421 17.2289 113.08 17.4827C112.743 17.7365 112.488 18.0907 112.313 18.5452C112.139 18.9998 112.052 19.5301 112.052 20.1361ZM121.965 12.8634V24.4998H120.267V12.8634H121.965ZM128.012 24.6759C127.152 24.6759 126.412 24.4922 125.791 24.1248C125.173 23.7535 124.696 23.2327 124.359 22.5623C124.026 21.888 123.859 21.0982 123.859 20.1929C123.859 19.299 124.026 18.5111 124.359 17.8293C124.696 17.1475 125.166 16.6153 125.768 16.2327C126.374 15.8501 127.082 15.6588 127.893 15.6588C128.385 15.6588 128.863 15.7403 129.325 15.9032C129.787 16.066 130.202 16.3217 130.569 16.6702C130.937 17.0187 131.226 17.4713 131.438 18.0282C131.651 18.5812 131.757 19.2535 131.757 20.0452V20.6475H124.819V19.3748H130.092C130.092 18.9278 130.001 18.532 129.819 18.1873C129.637 17.8388 129.382 17.5641 129.052 17.3634C128.726 17.1626 128.344 17.0623 127.904 17.0623C127.427 17.0623 127.01 17.1797 126.654 17.4145C126.302 17.6456 126.029 17.9486 125.836 18.3236C125.647 18.6948 125.552 19.0982 125.552 19.5338V20.5282C125.552 21.1115 125.654 21.6077 125.859 22.0168C126.067 22.4259 126.357 22.7384 126.728 22.9543C127.099 23.1664 127.533 23.2725 128.029 23.2725C128.351 23.2725 128.645 23.227 128.91 23.1361C129.175 23.0414 129.404 22.9013 129.598 22.7157C129.791 22.5301 129.938 22.3009 130.041 22.0282L131.649 22.3179C131.52 22.7914 131.289 23.2062 130.955 23.5623C130.626 23.9145 130.211 24.1891 129.711 24.3861C129.215 24.5793 128.649 24.6759 128.012 24.6759ZM141.552 24.6759C140.734 24.6759 140.02 24.4884 139.41 24.1134C138.8 23.7384 138.327 23.2138 137.99 22.5395C137.652 21.8653 137.484 21.0774 137.484 20.1759C137.484 19.2706 137.652 18.4789 137.99 17.8009C138.327 17.1229 138.8 16.5963 139.41 16.2213C140.02 15.8463 140.734 15.6588 141.552 15.6588C142.37 15.6588 143.084 15.8463 143.694 16.2213C144.304 16.5963 144.777 17.1229 145.115 17.8009C145.452 18.4789 145.62 19.2706 145.62 20.1759C145.62 21.0774 145.452 21.8653 145.115 22.5395C144.777 23.2138 144.304 23.7384 143.694 24.1134C143.084 24.4884 142.37 24.6759 141.552 24.6759ZM141.558 23.2498C142.088 23.2498 142.527 23.1096 142.876 22.8293C143.224 22.549 143.482 22.1759 143.649 21.71C143.819 21.2441 143.904 20.7308 143.904 20.1702C143.904 19.6134 143.819 19.102 143.649 18.6361C143.482 18.1664 143.224 17.7895 142.876 17.5054C142.527 17.2213 142.088 17.0793 141.558 17.0793C141.024 17.0793 140.58 17.2213 140.228 17.5054C139.88 17.7895 139.62 18.1664 139.45 18.6361C139.283 19.102 139.2 19.6134 139.2 20.1702C139.2 20.7308 139.283 21.2441 139.45 21.71C139.62 22.1759 139.88 22.549 140.228 22.8293C140.58 23.1096 141.024 23.2498 141.558 23.2498ZM149.215 19.3179V24.4998H147.517V15.7725H149.147V17.1929H149.255C149.456 16.7308 149.77 16.3596 150.198 16.0793C150.63 15.799 151.174 15.6588 151.829 15.6588C152.424 15.6588 152.945 15.7838 153.392 16.0338C153.839 16.2801 154.185 16.6475 154.431 17.1361C154.678 17.6248 154.801 18.2289 154.801 18.9486V24.4998H153.102V19.1532C153.102 18.5206 152.937 18.0263 152.607 17.6702C152.278 17.3104 151.825 17.1304 151.249 17.1304C150.856 17.1304 150.505 17.2157 150.198 17.3861C149.895 17.5566 149.655 17.8066 149.477 18.1361C149.303 18.4619 149.215 18.8558 149.215 19.3179Z" fill="#E8E8E8"/>
<path d="M67.9597 31.1361L70.2175 35.042H70.3141L72.5961 31.1361H75.9406L72.2097 37.3179L76.0613 43.4998H72.6323L70.3141 39.5516H70.2175L67.8994 43.4998H64.4945L68.328 37.3179L64.5911 31.1361H67.9597ZM77.486 43.4998V31.1361H80.4381V35.8147H80.4984C80.6192 35.533 80.7902 35.2614 81.0116 34.9998C81.237 34.7382 81.5227 34.5248 81.8688 34.3598C82.219 34.1908 82.6375 34.1063 83.1245 34.1063C83.7684 34.1063 84.3701 34.2753 84.9295 34.6134C85.493 34.9515 85.9478 35.4726 86.2939 36.177C86.64 36.8813 86.8131 37.7788 86.8131 38.8694C86.8131 39.9199 86.646 40.7992 86.312 41.5076C85.982 42.2159 85.5353 42.7471 84.9718 43.1013C84.4124 43.4555 83.7906 43.6326 83.1064 43.6326C82.6395 43.6326 82.2351 43.5561 81.893 43.4032C81.5509 43.2502 81.2631 43.049 81.0297 42.7995C80.8003 42.5499 80.6232 42.2823 80.4984 41.9966H80.4079V43.4998H77.486ZM80.3777 38.8634C80.3777 39.3624 80.4441 39.7971 80.5769 40.1674C80.7138 40.5376 80.909 40.8254 81.1625 41.0306C81.4201 41.2319 81.728 41.3325 82.0862 41.3325C82.4484 41.3325 82.7563 41.2319 83.0098 41.0306C83.2634 40.8254 83.4545 40.5376 83.5833 40.1674C83.7161 39.7971 83.7825 39.3624 83.7825 38.8634C83.7825 38.3643 83.7161 37.9317 83.5833 37.5654C83.4545 37.1992 83.2634 36.9155 83.0098 36.7142C82.7603 36.513 82.4524 36.4124 82.0862 36.4124C81.7239 36.4124 81.4161 36.511 81.1625 36.7082C80.909 36.9054 80.7138 37.1871 80.5769 37.5534C80.4441 37.9196 80.3777 38.3563 80.3777 38.8634ZM92.6885 43.6748C91.7146 43.6748 90.8774 43.4756 90.1771 43.0772C89.4809 42.6747 88.9436 42.1153 88.5653 41.3989C88.191 40.6785 88.0039 39.8434 88.0039 38.8936C88.0039 37.9397 88.191 37.1046 88.5653 36.3882C88.9436 35.6678 89.4809 35.1084 90.1771 34.71C90.8774 34.3075 91.7146 34.1063 92.6885 34.1063C93.6625 34.1063 94.4976 34.3075 95.1938 34.71C95.8941 35.1084 96.4314 35.6678 96.8057 36.3882C97.184 37.1046 97.3732 37.9397 97.3732 38.8936C97.3732 39.8434 97.184 40.6785 96.8057 41.3989C96.4314 42.1153 95.8941 42.6747 95.1938 43.0772C94.4976 43.4756 93.6625 43.6748 92.6885 43.6748ZM92.7066 41.4472C93.0608 41.4472 93.3606 41.3385 93.6061 41.1212C93.8516 40.9039 94.0388 40.602 94.1676 40.2157C94.3004 39.8293 94.3668 39.3826 94.3668 38.8755C94.3668 38.3603 94.3004 37.9096 94.1676 37.5232C94.0388 37.1368 93.8516 36.835 93.6061 36.6177C93.3606 36.4003 93.0608 36.2917 92.7066 36.2917C92.3404 36.2917 92.0305 36.4003 91.7769 36.6177C91.5274 36.835 91.3362 37.1368 91.2034 37.5232C91.0746 37.9096 91.0102 38.3603 91.0102 38.8755C91.0102 39.3826 91.0746 39.8293 91.2034 40.2157C91.3362 40.602 91.5274 40.9039 91.7769 41.1212C92.0305 41.3385 92.3404 41.4472 92.7066 41.4472ZM101.065 34.227L102.592 37.2817L104.174 34.227H107.15L104.56 38.8634L107.247 43.4998H104.295L102.592 40.4209L100.932 43.4998H97.9376L100.63 38.8634L98.0704 34.227H101.065ZM123.819 37.3179C123.819 38.6783 123.558 39.8313 123.035 40.7771C122.511 41.7229 121.803 42.4413 120.91 42.9323C120.02 43.4233 119.022 43.6688 117.915 43.6688C116.805 43.6688 115.804 43.4213 114.915 42.9262C114.026 42.4312 113.319 41.7128 112.796 40.7711C112.277 39.8253 112.017 38.6742 112.017 37.3179C112.017 35.9576 112.277 34.8046 112.796 33.8588C113.319 32.913 114.026 32.1946 114.915 31.7036C115.804 31.2126 116.805 30.9671 117.915 30.9671C119.022 30.9671 120.02 31.2126 120.91 31.7036C121.803 32.1946 122.511 32.913 123.035 33.8588C123.558 34.8046 123.819 35.9576 123.819 37.3179ZM120.765 37.3179C120.765 36.513 120.65 35.8329 120.421 35.2775C120.195 34.7221 119.869 34.3015 119.443 34.0157C119.02 33.73 118.511 33.5871 117.915 33.5871C117.324 33.5871 116.815 33.73 116.388 34.0157C115.961 34.3015 115.633 34.7221 115.404 35.2775C115.179 35.8329 115.066 36.513 115.066 37.3179C115.066 38.1229 115.179 38.803 115.404 39.3584C115.633 39.9138 115.961 40.3344 116.388 40.6201C116.815 40.9059 117.324 41.0488 117.915 41.0488C118.511 41.0488 119.02 40.9059 119.443 40.6201C119.869 40.3344 120.195 39.9138 120.421 39.3584C120.65 38.803 120.765 38.1229 120.765 37.3179ZM128.516 38.2114V43.4998H125.564V34.227H128.371V35.9294H128.474C128.679 35.362 129.029 34.9172 129.524 34.5953C130.019 34.2693 130.609 34.1063 131.293 34.1063C131.945 34.1063 132.511 34.2532 132.99 34.547C133.473 34.8368 133.847 35.2432 134.112 35.7664C134.382 36.2856 134.515 36.8933 134.511 37.5896V43.4998H131.559V38.1691C131.563 37.654 131.432 37.2515 131.166 36.9618C130.905 36.672 130.541 36.5271 130.074 36.5271C129.764 36.5271 129.49 36.5955 129.253 36.7324C129.019 36.8652 128.838 37.0563 128.709 37.3059C128.585 37.5554 128.52 37.8572 128.516 38.2114ZM140.673 43.6748C139.703 43.6748 138.866 43.4837 138.162 43.1013C137.461 42.715 136.922 42.1656 136.544 41.4532C136.17 40.7368 135.982 39.8856 135.982 38.8996C135.982 37.9418 136.172 37.1046 136.55 36.3882C136.928 35.6678 137.461 35.1084 138.15 34.71C138.838 34.3075 139.649 34.1063 140.582 34.1063C141.243 34.1063 141.846 34.2089 142.394 34.4142C142.941 34.6194 143.414 34.9233 143.812 35.3257C144.211 35.7282 144.521 36.2253 144.742 36.8169C144.963 37.4045 145.074 38.0786 145.074 38.8392V39.5757H137.015V37.8613H142.327C142.323 37.5473 142.249 37.2676 142.104 37.0221C141.959 36.7766 141.76 36.5855 141.506 36.4486C141.257 36.3078 140.969 36.2373 140.643 36.2373C140.313 36.2373 140.017 36.3118 139.755 36.4607C139.494 36.6056 139.287 36.8048 139.134 37.0583C138.981 37.3079 138.9 37.5916 138.892 37.9096V39.6542C138.892 40.0325 138.967 40.3646 139.116 40.6503C139.264 40.932 139.476 41.1514 139.749 41.3083C140.023 41.4653 140.349 41.5438 140.727 41.5438C140.989 41.5438 141.226 41.5076 141.44 41.4351C141.653 41.3627 141.836 41.256 141.989 41.1152C142.142 40.9743 142.257 40.8012 142.333 40.596L145.044 40.6745C144.931 41.2822 144.684 41.8114 144.301 42.2622C143.923 42.7089 143.426 43.057 142.81 43.3066C142.194 43.5521 141.482 43.6748 140.673 43.6748Z" fill="white"/>
</g>
<rect x="1.04951" y="1.04976" width="165.9" height="53.9" rx="6.95" stroke="white" stroke-opacity="0.15" stroke-width="2.1"/>
<defs>
<filter id="filter0_d_28_1070" x="6.28523" y="2.28547" width="51.4286" height="51.4286" filterUnits="userSpaceOnUse" color-interpolation-filters="sRGB">
<feFlood flood-opacity="0" result="BackgroundImageFix"/>
<feColorMatrix in="SourceAlpha" type="matrix" values="0 0 0 0 0 0 0 0 0 0 0 0 0 0 0 0 0 0 127 0" result="hardAlpha"/>
<feOffset/>
<feGaussianBlur stdDeviation="2.85714"/>
<feComposite in2="hardAlpha" operator="out"/>
<feColorMatrix type="matrix" values="0 0 0 0 0 0 0 0 0 0 0 0 0 0 0 0 0 0 0.25 0"/>
<feBlend mode="normal" in2="BackgroundImageFix" result="effect1_dropShadow_28_1070"/>
<feBlend mode="normal" in="SourceGraphic" in2="effect1_dropShadow_28_1070" result="shape"/>
</filter>
<filter id="filter1_d_28_1070" x="58.3995" y="3.89976" width="103.2" height="48.2" filterUnits="userSpaceOnUse" color-interpolation-filters="sRGB">
<feFlood flood-opacity="0" result="BackgroundImageFix"/>
<feColorMatrix in="SourceAlpha" type="matrix" values="0 0 0 0 0 0 0 0 0 0 0 0 0 0 0 0 0 0 127 0" result="hardAlpha"/>
<feOffset/>
<feGaussianBlur stdDeviation="2.8"/>
<feComposite in2="hardAlpha" operator="out"/>
<feColorMatrix type="matrix" values="0 0 0 0 0 0 0 0 0 0 0 0 0 0 0 0 0 0 0.25 0"/>
<feBlend mode="normal" in2="BackgroundImageFix" result="effect1_dropShadow_28_1070"/>
<feBlend mode="normal" in="SourceGraphic" in2="effect1_dropShadow_28_1070" result="shape"/>
</filter>
<linearGradient id="paint0_linear_28_1070" x1="83.9998" y1="-0.000167816" x2="76.5998" y2="55.0043" gradientUnits="userSpaceOnUse">
<stop stop-color="#083407"/>
<stop offset="1" stop-color="#041D04"/>
</linearGradient>
</defs>
</svg>
