<svg width="115" height="40" viewBox="0 0 115 40" fill="none" xmlns="http://www.w3.org/2000/svg">
<rect x="-0.000244141" y="-6.10352e-05" width="115" height="40" rx="6" fill="url(#paint0_linear_27_59)"/>
<g filter="url(#filter0_d_27_59)">
<ellipse cx="24.001" cy="20.0072" rx="13.9987" ry="13.9927" fill="white"/>
<path opacity="0.5" d="M24.2785 12.5299C24.2464 12.5299 24.1983 12.5299 24.1822 12.562L24.1501 12.6422L29.5452 32.8492C32.1561 31.7248 34.3627 29.8327 35.8716 27.4243L24.3748 12.578C24.3632 12.5635 24.3485 12.5517 24.3319 12.5434C24.3153 12.535 24.2971 12.5304 24.2785 12.5298V12.5299Z" fill="url(#paint1_linear_27_59)"/>
<path d="M23.95 5.99996C21.4535 6.0086 19.0048 6.68441 16.8575 7.95735C14.7103 9.23029 12.9427 11.0541 11.7379 13.2396C10.533 15.4252 9.93487 17.8931 10.0053 20.3875C10.0758 22.8819 10.8123 25.3121 12.1386 27.4263L23.8115 12.3404C23.8479 12.2967 23.9208 12.2675 24.001 12.2675C24.0812 12.2675 24.1469 12.2967 24.1906 12.3404L35.8562 27.4263C37.2554 25.199 37.9983 22.6227 37.9998 19.9927C37.9998 12.2675 31.7295 5.99996 24.001 5.99996C23.984 5.99993 23.967 5.99993 23.95 5.99996V5.99996Z" fill="#2185D0"/>
</g>
<g filter="url(#filter1_d_27_59)">
<path d="M51.2419 12.1015C51.2003 11.7317 51.0284 11.4452 50.7263 11.2421C50.4242 11.0364 50.044 10.9335 49.5857 10.9335C49.2576 10.9335 48.9737 10.9856 48.7341 11.0898C48.4945 11.1913 48.3083 11.332 48.1755 11.5117C48.0453 11.6887 47.9802 11.8906 47.9802 12.1171C47.9802 12.3072 48.0245 12.4713 48.113 12.6093C48.2042 12.7473 48.3227 12.8632 48.4685 12.957C48.6169 13.0481 48.7758 13.1249 48.9451 13.1874C49.1143 13.2473 49.2771 13.2968 49.4333 13.3359L50.2146 13.539C50.4698 13.6015 50.7315 13.6861 50.9998 13.7929C51.268 13.8997 51.5167 14.0403 51.7458 14.2148C51.975 14.3893 52.1599 14.6054 52.3005 14.8632C52.4438 15.121 52.5154 15.4296 52.5154 15.789C52.5154 16.2421 52.3982 16.6445 52.1638 16.996C51.932 17.3476 51.5948 17.6249 51.1521 17.8281C50.712 18.0312 50.1794 18.1327 49.5544 18.1327C48.9555 18.1327 48.4373 18.0377 47.9998 17.8476C47.5623 17.6575 47.2198 17.388 46.9724 17.039C46.725 16.6874 46.5883 16.2708 46.5623 15.789H47.7732C47.7966 16.0781 47.8904 16.3189 48.0544 16.5117C48.2211 16.7018 48.4333 16.8437 48.6912 16.9374C48.9516 17.0286 49.2367 17.0742 49.5466 17.0742C49.8878 17.0742 50.1912 17.0208 50.4568 16.914C50.725 16.8046 50.936 16.6536 51.0896 16.4609C51.2432 16.2656 51.3201 16.0377 51.3201 15.7773C51.3201 15.5403 51.2524 15.3463 51.1169 15.1952C50.9841 15.0442 50.8031 14.9192 50.574 14.8202C50.3474 14.7213 50.0909 14.6341 49.8044 14.5585L48.8591 14.3007C48.2185 14.1262 47.7107 13.8697 47.3357 13.5312C46.9633 13.1926 46.7771 12.7447 46.7771 12.1874C46.7771 11.7265 46.9021 11.3242 47.1521 10.9804C47.4021 10.6367 47.7406 10.3697 48.1677 10.1796C48.5948 9.98692 49.0766 9.89056 49.613 9.89056C50.1547 9.89056 50.6326 9.98561 51.0466 10.1757C51.4633 10.3658 51.7914 10.6275 52.031 10.9609C52.2706 11.2916 52.3956 11.6718 52.406 12.1015H51.2419ZM56.4499 18.121C55.8588 18.121 55.3497 17.9947 54.9226 17.7421C54.4981 17.4869 54.17 17.1288 53.9382 16.6679C53.7091 16.2044 53.5945 15.6614 53.5945 15.039C53.5945 14.4244 53.7091 13.8827 53.9382 13.414C54.17 12.9452 54.4929 12.5794 54.907 12.3163C55.3236 12.0533 55.8106 11.9218 56.3679 11.9218C56.7065 11.9218 57.0346 11.9778 57.3523 12.0898C57.67 12.2018 57.9552 12.3775 58.2078 12.6171C58.4604 12.8567 58.6596 13.1679 58.8054 13.5507C58.9512 13.9309 59.0242 14.3932 59.0242 14.9374V15.3515H54.2546V14.4765H57.8796C57.8796 14.1692 57.8171 13.8971 57.6921 13.6601C57.5671 13.4205 57.3914 13.2317 57.1648 13.0937C56.9408 12.9557 56.6778 12.8867 56.3757 12.8867C56.0476 12.8867 55.7611 12.9674 55.5164 13.1288C55.2742 13.2877 55.0867 13.496 54.9539 13.7538C54.8236 14.0091 54.7585 14.2864 54.7585 14.5859V15.2695C54.7585 15.6705 54.8289 16.0117 54.9695 16.2929C55.1127 16.5742 55.3119 16.789 55.5671 16.9374C55.8223 17.0833 56.1205 17.1562 56.4617 17.1562C56.683 17.1562 56.8848 17.1249 57.0671 17.0624C57.2494 16.9973 57.407 16.901 57.5398 16.7734C57.6726 16.6458 57.7742 16.4882 57.8445 16.3007L58.9499 16.4999C58.8614 16.8255 58.7026 17.1106 58.4734 17.3554C58.2468 17.5976 57.9617 17.7864 57.6179 17.9218C57.2768 18.0546 56.8874 18.121 56.4499 18.121ZM62.906 18.121C62.3149 18.121 61.8057 17.9947 61.3787 17.7421C60.9542 17.4869 60.6261 17.1288 60.3943 16.6679C60.1651 16.2044 60.0505 15.6614 60.0505 15.039C60.0505 14.4244 60.1651 13.8827 60.3943 13.414C60.6261 12.9452 60.949 12.5794 61.363 12.3163C61.7797 12.0533 62.2667 11.9218 62.824 11.9218C63.1625 11.9218 63.4906 11.9778 63.8083 12.0898C64.1261 12.2018 64.4112 12.3775 64.6638 12.6171C64.9164 12.8567 65.1156 13.1679 65.2615 13.5507C65.4073 13.9309 65.4802 14.3932 65.4802 14.9374V15.3515H60.7107V14.4765H64.3357C64.3357 14.1692 64.2732 13.8971 64.1482 13.6601C64.0232 13.4205 63.8474 13.2317 63.6208 13.0937C63.3969 12.9557 63.1339 12.8867 62.8318 12.8867C62.5037 12.8867 62.2172 12.9674 61.9724 13.1288C61.7302 13.2877 61.5427 13.496 61.4099 13.7538C61.2797 14.0091 61.2146 14.2864 61.2146 14.5859V15.2695C61.2146 15.6705 61.2849 16.0117 61.4255 16.2929C61.5688 16.5742 61.768 16.789 62.0232 16.9374C62.2784 17.0833 62.5766 17.1562 62.9177 17.1562C63.1391 17.1562 63.3409 17.1249 63.5232 17.0624C63.7055 16.9973 63.863 16.901 63.9958 16.7734C64.1287 16.6458 64.2302 16.4882 64.3005 16.3007L65.406 16.4999C65.3175 16.8255 65.1586 17.1106 64.9294 17.3554C64.7029 17.5976 64.4177 17.7864 64.074 17.9218C63.7328 18.0546 63.3435 18.121 62.906 18.121ZM73.488 15.5117V11.9999H74.6599V17.9999H73.5115V16.9609H73.449C73.3109 17.2812 73.0896 17.5481 72.7849 17.7617C72.4828 17.9726 72.1065 18.0781 71.656 18.0781C71.2706 18.0781 70.9294 17.9934 70.6326 17.8242C70.3383 17.6523 70.1065 17.3984 69.9372 17.0624C69.7706 16.7265 69.6872 16.3111 69.6872 15.8163V11.9999H70.8552V15.6757C70.8552 16.0846 70.9685 16.4101 71.1951 16.6523C71.4216 16.8945 71.7159 17.0156 72.0779 17.0156C72.2966 17.0156 72.5141 16.9609 72.7302 16.8515C72.949 16.7421 73.13 16.5768 73.2732 16.3554C73.419 16.1341 73.4906 15.8528 73.488 15.5117ZM80.7253 13.4648L79.6667 13.6523C79.6225 13.5169 79.5522 13.388 79.4558 13.2656C79.3621 13.1432 79.2344 13.0429 79.073 12.9648C78.9115 12.8867 78.7097 12.8476 78.4675 12.8476C78.1368 12.8476 77.8607 12.9218 77.6394 13.0702C77.418 13.2161 77.3074 13.4049 77.3074 13.6367C77.3074 13.8372 77.3816 13.9986 77.53 14.121C77.6785 14.2434 77.918 14.3437 78.2488 14.4218L79.2019 14.6406C79.754 14.7682 80.1654 14.9648 80.4363 15.2304C80.7071 15.496 80.8425 15.8411 80.8425 16.2656C80.8425 16.6249 80.7384 16.9452 80.53 17.2265C80.3243 17.5051 80.0365 17.7239 79.6667 17.8827C79.2996 18.0416 78.8738 18.121 78.3894 18.121C77.7175 18.121 77.1693 17.9778 76.7449 17.6913C76.3204 17.4023 76.06 16.9921 75.9636 16.4609L77.0925 16.289C77.1628 16.5833 77.3074 16.8059 77.5261 16.957C77.7449 17.1054 78.03 17.1796 78.3816 17.1796C78.7644 17.1796 79.0704 17.1002 79.2996 16.9413C79.5287 16.7799 79.6433 16.5833 79.6433 16.3515C79.6433 16.164 79.573 16.0064 79.4324 15.8788C79.2943 15.7512 79.0821 15.6549 78.7956 15.5898L77.78 15.3671C77.2201 15.2395 76.8061 15.0364 76.5378 14.7577C76.2722 14.4791 76.1394 14.1262 76.1394 13.6992C76.1394 13.345 76.2384 13.0351 76.4363 12.7695C76.6342 12.5038 76.9076 12.2968 77.2566 12.1484C77.6055 11.9973 78.0053 11.9218 78.4558 11.9218C79.1042 11.9218 79.6147 12.0624 79.9871 12.3437C80.3594 12.6223 80.6055 12.996 80.7253 13.4648ZM87.5652 18.121C87.0027 18.121 86.5118 17.9921 86.0925 17.7343C85.6732 17.4765 85.3477 17.1158 85.116 16.6523C84.8842 16.1887 84.7683 15.6471 84.7683 15.0273C84.7683 14.4049 84.8842 13.8606 85.116 13.3945C85.3477 12.9283 85.6732 12.5663 86.0925 12.3085C86.5118 12.0507 87.0027 11.9218 87.5652 11.9218C88.1277 11.9218 88.6186 12.0507 89.0378 12.3085C89.4571 12.5663 89.7826 12.9283 90.0144 13.3945C90.2462 13.8606 90.362 14.4049 90.362 15.0273C90.362 15.6471 90.2462 16.1887 90.0144 16.6523C89.7826 17.1158 89.4571 17.4765 89.0378 17.7343C88.6186 17.9921 88.1277 18.121 87.5652 18.121ZM87.5691 17.1406C87.9337 17.1406 88.2357 17.0442 88.4753 16.8515C88.7149 16.6588 88.892 16.4023 89.0066 16.082C89.1238 15.7617 89.1824 15.4088 89.1824 15.0234C89.1824 14.6406 89.1238 14.289 89.0066 13.9687C88.892 13.6458 88.7149 13.3867 88.4753 13.1913C88.2357 12.996 87.9337 12.8984 87.5691 12.8984C87.2019 12.8984 86.8972 12.996 86.655 13.1913C86.4154 13.3867 86.237 13.6458 86.1199 13.9687C86.0053 14.289 85.948 14.6406 85.948 15.0234C85.948 15.4088 86.0053 15.7617 86.1199 16.082C86.237 16.4023 86.4154 16.6588 86.655 16.8515C86.8972 17.0442 87.2019 17.1406 87.5691 17.1406ZM92.8337 14.4374V17.9999H91.6658V11.9999H92.7869V12.9765H92.8611C92.9991 12.6588 93.2152 12.4036 93.5095 12.2109C93.8064 12.0182 94.1801 11.9218 94.6306 11.9218C95.0395 11.9218 95.3975 12.0078 95.7048 12.1796C96.0121 12.3489 96.2504 12.6015 96.4197 12.9374C96.5889 13.2734 96.6736 13.6887 96.6736 14.1835V17.9999H95.5056V14.3242C95.5056 13.8893 95.3923 13.5494 95.1658 13.3046C94.9392 13.0572 94.628 12.9335 94.2322 12.9335C93.9613 12.9335 93.7204 12.9921 93.5095 13.1093C93.3012 13.2265 93.1358 13.3984 93.0134 13.6249C92.8936 13.8489 92.8337 14.1197 92.8337 14.4374Z" fill="#E8E8E8"/>
<path d="M54.5821 25.4346H52.4515C52.423 25.2158 52.3648 25.0184 52.2767 24.8423C52.1887 24.6661 52.0722 24.5156 51.9273 24.3906C51.7824 24.2656 51.6105 24.1704 51.4117 24.1051C51.2157 24.0369 50.9983 24.0028 50.7597 24.0028C50.3364 24.0028 49.9713 24.1065 49.6645 24.3139C49.3606 24.5212 49.1262 24.821 48.9614 25.213C48.7995 25.6051 48.7185 26.0795 48.7185 26.6363C48.7185 27.2158 48.8009 27.7016 48.9657 28.0937C49.1333 28.4829 49.3677 28.7769 49.6688 28.9758C49.9728 29.1718 50.3321 29.2698 50.7469 29.2698C50.9799 29.2698 51.1915 29.24 51.3819 29.1803C51.575 29.1207 51.7441 29.034 51.889 28.9204C52.0367 28.8039 52.1574 28.6633 52.2512 28.4985C52.3478 28.3309 52.4145 28.142 52.4515 27.9318L54.5821 27.9445C54.5452 28.3309 54.433 28.7116 54.2455 29.0866C54.0608 29.4616 53.8066 29.8039 53.4827 30.1136C53.1588 30.4204 52.764 30.6647 52.298 30.8465C51.835 31.0283 51.3037 31.1193 50.7043 31.1193C49.9145 31.1193 49.2071 30.946 48.5821 30.5994C47.96 30.2499 47.4685 29.7414 47.1077 29.0738C46.7469 28.4062 46.5665 27.5937 46.5665 26.6363C46.5665 25.6761 46.7498 24.8622 47.1162 24.1945C47.4827 23.5269 47.9784 23.0198 48.6034 22.6732C49.2284 22.3266 49.9287 22.1533 50.7043 22.1533C51.2327 22.1533 51.7213 22.2272 52.1702 22.3749C52.6191 22.5198 53.014 22.7329 53.3549 23.0141C53.6958 23.2926 53.9728 23.6349 54.1858 24.0411C54.3989 24.4474 54.531 24.9119 54.5821 25.4346ZM58.8446 31.1235C58.1571 31.1235 57.5662 30.9829 57.0718 30.7016C56.5804 30.4175 56.2011 30.0227 55.9341 29.517C55.6699 29.0085 55.5378 28.419 55.5378 27.7485C55.5378 27.0752 55.6699 26.4857 55.9341 25.9801C56.2011 25.4715 56.5804 25.0766 57.0718 24.7954C57.5662 24.5113 58.1571 24.3693 58.8446 24.3693C59.5321 24.3693 60.1216 24.5113 60.613 24.7954C61.1074 25.0766 61.4866 25.4715 61.7508 25.9801C62.0179 26.4857 62.1514 27.0752 62.1514 27.7485C62.1514 28.419 62.0179 29.0085 61.7508 29.517C61.4866 30.0227 61.1074 30.4175 60.613 30.7016C60.1216 30.9829 59.5321 31.1235 58.8446 31.1235ZM58.8574 29.5511C59.1074 29.5511 59.319 29.4744 59.4923 29.321C59.6656 29.1675 59.7977 28.9545 59.8886 28.6818C59.9824 28.409 60.0292 28.0937 60.0292 27.7357C60.0292 27.3721 59.9824 27.0539 59.8886 26.7812C59.7977 26.5085 59.6656 26.2954 59.4923 26.142C59.319 25.9886 59.1074 25.9119 58.8574 25.9119C58.5988 25.9119 58.3801 25.9886 58.2011 26.142C58.025 26.2954 57.89 26.5085 57.7963 26.7812C57.7054 27.0539 57.6599 27.3721 57.6599 27.7357C57.6599 28.0937 57.7054 28.409 57.7963 28.6818C57.89 28.9545 58.025 29.1675 58.2011 29.321C58.3801 29.4744 58.5988 29.5511 58.8574 29.5511ZM65.6095 31.0937C65.1265 31.0937 64.6876 30.9687 64.2927 30.7187C63.8978 30.4687 63.5825 30.0937 63.3467 29.5937C63.1109 29.0937 62.993 28.4729 62.993 27.7315C62.993 26.9616 63.1152 26.3281 63.3595 25.8309C63.6038 25.3337 63.9234 24.9658 64.3183 24.7272C64.716 24.4886 65.1436 24.3693 65.601 24.3693C65.9447 24.3693 66.2387 24.4289 66.4831 24.5482C66.7274 24.6647 66.9291 24.8153 67.0882 24.9999C67.2473 25.1846 67.368 25.3764 67.4504 25.5752H67.493V22.2727H69.5768V30.9999H67.5143V29.9389H67.4504C67.3623 30.1406 67.2373 30.3295 67.0754 30.5056C66.9135 30.6818 66.7103 30.8238 66.466 30.9318C66.2245 31.0397 65.939 31.0937 65.6095 31.0937ZM66.3339 29.4701C66.5868 29.4701 66.8027 29.3991 66.9816 29.257C67.1606 29.1122 67.2984 28.909 67.395 28.6477C67.4916 28.3863 67.5399 28.0795 67.5399 27.7272C67.5399 27.3693 67.4916 27.061 67.395 26.8025C67.3012 26.544 67.1635 26.3451 66.9816 26.2059C66.8027 26.0667 66.5868 25.9971 66.3339 25.9971C66.0754 25.9971 65.8566 26.0681 65.6777 26.2102C65.4987 26.3522 65.3623 26.5525 65.2686 26.811C65.1777 27.0695 65.1322 27.3749 65.1322 27.7272C65.1322 28.0795 65.1791 28.3863 65.2728 28.6477C65.3666 28.909 65.5015 29.1122 65.6777 29.257C65.8566 29.3991 66.0754 29.4701 66.3339 29.4701ZM73.9543 31.1235C73.2696 31.1235 72.6787 30.9886 72.1816 30.7187C71.6872 30.446 71.3066 30.0582 71.0395 29.5553C70.7753 29.0497 70.6432 28.4488 70.6432 27.7528C70.6432 27.0766 70.7767 26.4857 71.0438 25.9801C71.3108 25.4715 71.6872 25.0766 72.173 24.7954C72.6588 24.5113 73.2313 24.3693 73.8904 24.3693C74.3563 24.3693 74.7824 24.4417 75.1688 24.5866C75.5551 24.7315 75.889 24.946 76.1702 25.2301C76.4515 25.5141 76.6702 25.865 76.8265 26.2826C76.9827 26.6974 77.0608 27.1732 77.0608 27.7102V28.2301H71.3719V27.0198H75.1219C75.1191 26.7982 75.0665 26.6008 74.9642 26.4275C74.862 26.2542 74.7213 26.1193 74.5424 26.0227C74.3662 25.9232 74.1631 25.8735 73.933 25.8735C73.7 25.8735 73.4912 25.9261 73.3066 26.0312C73.1219 26.1335 72.9756 26.2741 72.8676 26.4531C72.7597 26.6292 72.7029 26.8295 72.6972 27.0539V28.2854C72.6972 28.5525 72.7497 28.7869 72.8549 28.9886C72.96 29.1874 73.1091 29.3423 73.3023 29.4531C73.4955 29.5639 73.7256 29.6193 73.9926 29.6193C74.1773 29.6193 74.3449 29.5937 74.4955 29.5425C74.6461 29.4914 74.7753 29.4161 74.8833 29.3167C74.9912 29.2173 75.0722 29.0951 75.1262 28.9502L77.0395 29.0056C76.96 29.4346 76.7853 29.8082 76.5154 30.1264C76.2483 30.4417 75.8975 30.6874 75.4628 30.8636C75.0282 31.0369 74.5253 31.1235 73.9543 31.1235ZM78.1251 30.9999V22.2727H80.2089V25.5752H80.2515C80.3367 25.3764 80.4575 25.1846 80.6137 24.9999C80.7728 24.8153 80.9745 24.6647 81.2189 24.5482C81.466 24.4289 81.7615 24.3693 82.1052 24.3693C82.5598 24.3693 82.9845 24.4886 83.3794 24.7272C83.7771 24.9658 84.0981 25.3337 84.3424 25.8309C84.5867 26.3281 84.7089 26.9616 84.7089 27.7315C84.7089 28.4729 84.591 29.0937 84.3552 29.5937C84.1223 30.0937 83.8069 30.4687 83.4092 30.7187C83.0143 30.9687 82.5754 31.0937 82.0924 31.0937C81.7629 31.0937 81.4774 31.0397 81.2359 30.9318C80.9944 30.8238 80.7913 30.6818 80.6265 30.5056C80.4646 30.3295 80.3396 30.1406 80.2515 29.9389H80.1876V30.9999H78.1251ZM80.1663 27.7272C80.1663 28.0795 80.2132 28.3863 80.3069 28.6477C80.4035 28.909 80.5413 29.1122 80.7203 29.257C80.9021 29.3991 81.1194 29.4701 81.3723 29.4701C81.6279 29.4701 81.8453 29.3991 82.0242 29.257C82.2032 29.1122 82.3382 28.909 82.4291 28.6477C82.5228 28.3863 82.5697 28.0795 82.5697 27.7272C82.5697 27.3749 82.5228 27.0695 82.4291 26.811C82.3382 26.5525 82.2032 26.3522 82.0242 26.2102C81.8481 26.0681 81.6308 25.9971 81.3723 25.9971C81.1166 25.9971 80.8992 26.0667 80.7203 26.2059C80.5413 26.3451 80.4035 26.544 80.3069 26.8025C80.2132 27.061 80.1663 27.3693 80.1663 27.7272ZM88.8605 31.1235C88.1759 31.1235 87.585 30.9886 87.0878 30.7187C86.5935 30.446 86.2128 30.0582 85.9458 29.5553C85.6816 29.0497 85.5495 28.4488 85.5495 27.7528C85.5495 27.0766 85.683 26.4857 85.95 25.9801C86.2171 25.4715 86.5935 25.0766 87.0793 24.7954C87.5651 24.5113 88.1375 24.3693 88.7966 24.3693C89.2625 24.3693 89.6887 24.4417 90.075 24.5866C90.4614 24.7315 90.7952 24.946 91.0764 25.2301C91.3577 25.5141 91.5764 25.865 91.7327 26.2826C91.8889 26.6974 91.9671 27.1732 91.9671 27.7102V28.2301H86.2782V27.0198H90.0282C90.0253 26.7982 89.9728 26.6008 89.8705 26.4275C89.7682 26.2542 89.6276 26.1193 89.4486 26.0227C89.2725 25.9232 89.0693 25.8735 88.8392 25.8735C88.6063 25.8735 88.3975 25.9261 88.2128 26.0312C88.0282 26.1335 87.8818 26.2741 87.7739 26.4531C87.6659 26.6292 87.6091 26.8295 87.6034 27.0539V28.2854C87.6034 28.5525 87.656 28.7869 87.7611 28.9886C87.8662 29.1874 88.0154 29.3423 88.2086 29.4531C88.4017 29.5639 88.6318 29.6193 88.8989 29.6193C89.0836 29.6193 89.2512 29.5937 89.4017 29.5425C89.5523 29.4914 89.6816 29.4161 89.7895 29.3167C89.8975 29.2173 89.9784 29.0951 90.0324 28.9502L91.9458 29.0056C91.8662 29.4346 91.6915 29.8082 91.4216 30.1264C91.1546 30.4417 90.8037 30.6874 90.3691 30.8636C89.9344 31.0369 89.4316 31.1235 88.8605 31.1235ZM93.0313 30.9999V24.4545H95.0555V25.6477H95.1237C95.243 25.2158 95.4376 24.8948 95.7075 24.6846C95.9774 24.4715 96.2913 24.365 96.6492 24.365C96.7458 24.365 96.8453 24.3721 96.9475 24.3863C97.0498 24.3977 97.145 24.4161 97.2331 24.4417V26.2528C97.1336 26.2187 97.0029 26.1917 96.841 26.1718C96.6819 26.1519 96.5399 26.142 96.4149 26.142C96.1677 26.142 95.9447 26.1974 95.7458 26.3082C95.5498 26.4161 95.395 26.5681 95.2813 26.7641C95.1706 26.9573 95.1152 27.1846 95.1152 27.446V30.9999H93.0313ZM100.793 33.5908C100.171 33.5908 99.6386 33.5042 99.1954 33.3309C98.7522 33.1576 98.4042 32.9204 98.1514 32.6193C97.8985 32.3181 97.7465 31.9772 97.6954 31.5965L99.6684 31.4857C99.7054 31.6193 99.7735 31.7357 99.873 31.8352C99.9752 31.9346 100.107 32.0113 100.269 32.0653C100.434 32.1193 100.627 32.1462 100.849 32.1462C101.198 32.1462 101.487 32.061 101.714 31.8906C101.944 31.7229 102.059 31.4289 102.059 31.0085V29.8579H101.987C101.904 30.0596 101.779 30.24 101.612 30.3991C101.444 30.5582 101.235 30.6832 100.985 30.7741C100.738 30.865 100.454 30.9104 100.133 30.9104C99.6556 30.9104 99.2181 30.7997 98.8204 30.5781C98.4255 30.3536 98.1088 30.007 97.8701 29.5383C97.6343 29.0667 97.5164 28.4602 97.5164 27.7187C97.5164 26.9545 97.6386 26.3252 97.8829 25.8309C98.1272 25.3337 98.4468 24.9658 98.8417 24.7272C99.2394 24.4886 99.667 24.3693 100.124 24.3693C100.468 24.3693 100.762 24.4289 101.006 24.5482C101.254 24.6647 101.457 24.8153 101.616 24.9999C101.775 25.1846 101.896 25.3764 101.978 25.5752H102.038V24.4545H104.113V31.0255C104.113 31.5795 103.974 32.0468 103.695 32.4275C103.417 32.8082 103.028 33.0965 102.528 33.2925C102.028 33.4914 101.45 33.5908 100.793 33.5908ZM100.857 29.3934C101.11 29.3934 101.326 29.3266 101.505 29.1931C101.684 29.0596 101.822 28.8678 101.918 28.6178C102.015 28.3678 102.063 28.0681 102.063 27.7187C102.063 27.3636 102.015 27.0582 101.918 26.8025C101.825 26.544 101.687 26.3451 101.505 26.2059C101.326 26.0667 101.11 25.9971 100.857 25.9971C100.599 25.9971 100.38 26.0681 100.201 26.2102C100.022 26.3522 99.8857 26.5525 99.792 26.811C99.7011 27.0667 99.6556 27.3693 99.6556 27.7187C99.6556 28.0681 99.7025 28.3678 99.7963 28.6178C99.89 28.8678 100.025 29.0596 100.201 29.1931C100.38 29.3266 100.599 29.3934 100.857 29.3934Z" fill="url(#paint2_linear_27_59)"/>
</g>
<rect x="0.749756" y="0.749939" width="113.5" height="38.5" rx="5.25" stroke="white" stroke-opacity="0.15" stroke-width="1.5"/>
<defs>
<filter id="filter0_d_27_59" x="5.99976" y="1.99994" width="36" height="36" filterUnits="userSpaceOnUse" color-interpolation-filters="sRGB">
<feFlood flood-opacity="0" result="BackgroundImageFix"/>
<feColorMatrix in="SourceAlpha" type="matrix" values="0 0 0 0 0 0 0 0 0 0 0 0 0 0 0 0 0 0 127 0" result="hardAlpha"/>
<feOffset/>
<feGaussianBlur stdDeviation="2"/>
<feComposite in2="hardAlpha" operator="out"/>
<feColorMatrix type="matrix" values="0 0 0 0 0 0 0 0 0 0 0 0 0 0 0 0 0 0 0.25 0"/>
<feBlend mode="normal" in2="BackgroundImageFix" result="effect1_dropShadow_27_59"/>
<feBlend mode="normal" in="SourceGraphic" in2="effect1_dropShadow_27_59" result="shape"/>
</filter>
<filter id="filter1_d_27_59" x="41.9998" y="2.99994" width="67" height="34.5909" filterUnits="userSpaceOnUse" color-interpolation-filters="sRGB">
<feFlood flood-opacity="0" result="BackgroundImageFix"/>
<feColorMatrix in="SourceAlpha" type="matrix" values="0 0 0 0 0 0 0 0 0 0 0 0 0 0 0 0 0 0 127 0" result="hardAlpha"/>
<feOffset/>
<feGaussianBlur stdDeviation="2"/>
<feComposite in2="hardAlpha" operator="out"/>
<feColorMatrix type="matrix" values="0 0 0 0 0 0 0 0 0 0 0 0 0 0 0 0 0 0 0.25 0"/>
<feBlend mode="normal" in2="BackgroundImageFix" result="effect1_dropShadow_27_59"/>
<feBlend mode="normal" in="SourceGraphic" in2="effect1_dropShadow_27_59" result="shape"/>
</filter>
<linearGradient id="paint0_linear_27_59" x1="57.4997" y1="-6.10351e-05" x2="57.4997" y2="39.9999" gradientUnits="userSpaceOnUse">
<stop stop-color="#132430"/>
<stop offset="1" stop-color="#323232"/>
</linearGradient>
<linearGradient id="paint1_linear_27_59" x1="24.2785" y1="12.5299" x2="33.2641" y2="30.4929" gradientUnits="userSpaceOnUse">
<stop stop-color="white" stop-opacity="0"/>
<stop offset="0.5" stop-color="#71C2FF"/>
<stop offset="1" stop-color="#39AAFF"/>
</linearGradient>
<linearGradient id="paint2_linear_27_59" x1="75.4997" y1="19.9999" x2="75.4997" y2="32.9999" gradientUnits="userSpaceOnUse">
<stop stop-color="#7AB3DE"/>
<stop offset="1" stop-color="#C1D8EA"/>
</linearGradient>
</defs>
</svg>
