<svg width="112" height="40" viewBox="0 0 112 40" fill="none" xmlns="http://www.w3.org/2000/svg">
<rect x="-0.000244141" y="-6.10352e-05" width="112" height="40" rx="6" fill="url(#paint0_linear_27_68)"/>
<g filter="url(#filter0_d_27_68)">
<path d="M23.9999 32.9959L29.1559 17.0034H18.8439L23.9999 32.9959Z" fill="#E24329"/>
<path d="M23.9999 32.9959L18.8439 17.0034H11.6189L23.9999 32.9959Z" fill="#FC6D26"/>
<path d="M11.6189 17.0034L10.0519 21.8635C9.98232 22.0796 9.98237 22.3123 10.0521 22.5283C10.1218 22.7443 10.2575 22.9325 10.4399 23.066L23.9999 32.9999L11.6189 17.0034Z" fill="#FCA326"/>
<path d="M11.6189 17.0034H18.8439L15.7389 7.37176C15.7039 7.26393 15.6359 7.17001 15.5448 7.10342C15.4537 7.03683 15.344 7.00098 15.2314 7.00098C15.1188 7.00098 15.0091 7.03683 14.918 7.10342C14.8269 7.17001 14.7589 7.26393 14.7239 7.37176L11.6189 17.0034Z" fill="#E24329"/>
<path d="M23.9999 32.9959L29.1559 17.0034H36.3809L23.9999 32.9959Z" fill="#FC6D26"/>
<path d="M36.3809 17.0034L37.9479 21.8635C38.0175 22.0796 38.0174 22.3123 37.9477 22.5283C37.878 22.7443 37.7423 22.9325 37.5599 23.066L23.9999 32.9999L36.3809 17.0034Z" fill="#FCA326"/>
<path d="M36.3809 17.0033H29.1559L32.2609 7.37072C32.2959 7.26289 32.3638 7.16897 32.455 7.10238C32.5461 7.03579 32.6558 6.99994 32.7684 6.99994C32.881 6.99994 32.9906 7.03579 33.0818 7.10238C33.1729 7.16897 33.2409 7.26289 33.2759 7.37072L36.3809 17.0033Z" fill="#E24329"/>
</g>
<g filter="url(#filter1_d_27_68)">
<path d="M51.2419 12.1015C51.2003 11.7317 51.0284 11.4452 50.7263 11.2421C50.4242 11.0364 50.044 10.9335 49.5857 10.9335C49.2576 10.9335 48.9737 10.9856 48.7341 11.0898C48.4945 11.1913 48.3083 11.332 48.1755 11.5117C48.0453 11.6887 47.9802 11.8906 47.9802 12.1171C47.9802 12.3072 48.0245 12.4713 48.113 12.6093C48.2042 12.7473 48.3227 12.8632 48.4685 12.957C48.6169 13.0481 48.7758 13.1249 48.9451 13.1874C49.1143 13.2473 49.2771 13.2968 49.4333 13.3359L50.2146 13.539C50.4698 13.6015 50.7315 13.6861 50.9998 13.7929C51.268 13.8997 51.5167 14.0403 51.7458 14.2148C51.975 14.3893 52.1599 14.6054 52.3005 14.8632C52.4438 15.121 52.5154 15.4296 52.5154 15.789C52.5154 16.2421 52.3982 16.6445 52.1638 16.996C51.932 17.3476 51.5948 17.6249 51.1521 17.8281C50.712 18.0312 50.1794 18.1327 49.5544 18.1327C48.9555 18.1327 48.4373 18.0377 47.9998 17.8476C47.5623 17.6575 47.2198 17.388 46.9724 17.039C46.725 16.6874 46.5883 16.2708 46.5623 15.789H47.7732C47.7966 16.0781 47.8904 16.3189 48.0544 16.5117C48.2211 16.7018 48.4333 16.8437 48.6912 16.9374C48.9516 17.0286 49.2367 17.0742 49.5466 17.0742C49.8878 17.0742 50.1912 17.0208 50.4568 16.914C50.725 16.8046 50.936 16.6536 51.0896 16.4609C51.2432 16.2656 51.3201 16.0377 51.3201 15.7773C51.3201 15.5403 51.2524 15.3463 51.1169 15.1952C50.9841 15.0442 50.8031 14.9192 50.574 14.8202C50.3474 14.7213 50.0909 14.6341 49.8044 14.5585L48.8591 14.3007C48.2185 14.1262 47.7107 13.8697 47.3357 13.5312C46.9633 13.1926 46.7771 12.7447 46.7771 12.1874C46.7771 11.7265 46.9021 11.3242 47.1521 10.9804C47.4021 10.6367 47.7406 10.3697 48.1677 10.1796C48.5948 9.98692 49.0766 9.89056 49.613 9.89056C50.1547 9.89056 50.6326 9.98561 51.0466 10.1757C51.4633 10.3658 51.7914 10.6275 52.031 10.9609C52.2706 11.2916 52.3956 11.6718 52.406 12.1015H51.2419ZM56.4499 18.121C55.8588 18.121 55.3497 17.9947 54.9226 17.7421C54.4981 17.4869 54.17 17.1288 53.9382 16.6679C53.7091 16.2044 53.5945 15.6614 53.5945 15.039C53.5945 14.4244 53.7091 13.8827 53.9382 13.414C54.17 12.9452 54.4929 12.5794 54.907 12.3163C55.3236 12.0533 55.8106 11.9218 56.3679 11.9218C56.7065 11.9218 57.0346 11.9778 57.3523 12.0898C57.67 12.2018 57.9552 12.3775 58.2078 12.6171C58.4604 12.8567 58.6596 13.1679 58.8054 13.5507C58.9512 13.9309 59.0242 14.3932 59.0242 14.9374V15.3515H54.2546V14.4765H57.8796C57.8796 14.1692 57.8171 13.8971 57.6921 13.6601C57.5671 13.4205 57.3914 13.2317 57.1648 13.0937C56.9408 12.9557 56.6778 12.8867 56.3757 12.8867C56.0476 12.8867 55.7611 12.9674 55.5164 13.1288C55.2742 13.2877 55.0867 13.496 54.9539 13.7538C54.8236 14.0091 54.7585 14.2864 54.7585 14.5859V15.2695C54.7585 15.6705 54.8289 16.0117 54.9695 16.2929C55.1127 16.5742 55.3119 16.789 55.5671 16.9374C55.8223 17.0833 56.1205 17.1562 56.4617 17.1562C56.683 17.1562 56.8848 17.1249 57.0671 17.0624C57.2494 16.9973 57.407 16.901 57.5398 16.7734C57.6726 16.6458 57.7742 16.4882 57.8445 16.3007L58.9499 16.4999C58.8614 16.8255 58.7026 17.1106 58.4734 17.3554C58.2468 17.5976 57.9617 17.7864 57.6179 17.9218C57.2768 18.0546 56.8874 18.121 56.4499 18.121ZM62.906 18.121C62.3149 18.121 61.8057 17.9947 61.3787 17.7421C60.9542 17.4869 60.6261 17.1288 60.3943 16.6679C60.1651 16.2044 60.0505 15.6614 60.0505 15.039C60.0505 14.4244 60.1651 13.8827 60.3943 13.414C60.6261 12.9452 60.949 12.5794 61.363 12.3163C61.7797 12.0533 62.2667 11.9218 62.824 11.9218C63.1625 11.9218 63.4906 11.9778 63.8083 12.0898C64.1261 12.2018 64.4112 12.3775 64.6638 12.6171C64.9164 12.8567 65.1156 13.1679 65.2615 13.5507C65.4073 13.9309 65.4802 14.3932 65.4802 14.9374V15.3515H60.7107V14.4765H64.3357C64.3357 14.1692 64.2732 13.8971 64.1482 13.6601C64.0232 13.4205 63.8474 13.2317 63.6208 13.0937C63.3969 12.9557 63.1339 12.8867 62.8318 12.8867C62.5037 12.8867 62.2172 12.9674 61.9724 13.1288C61.7302 13.2877 61.5427 13.496 61.4099 13.7538C61.2797 14.0091 61.2146 14.2864 61.2146 14.5859V15.2695C61.2146 15.6705 61.2849 16.0117 61.4255 16.2929C61.5688 16.5742 61.768 16.789 62.0232 16.9374C62.2784 17.0833 62.5766 17.1562 62.9177 17.1562C63.1391 17.1562 63.3409 17.1249 63.5232 17.0624C63.7055 16.9973 63.863 16.901 63.9958 16.7734C64.1287 16.6458 64.2302 16.4882 64.3005 16.3007L65.406 16.4999C65.3175 16.8255 65.1586 17.1106 64.9294 17.3554C64.7029 17.5976 64.4177 17.7864 64.074 17.9218C63.7328 18.0546 63.3435 18.121 62.906 18.121ZM69.6872 17.9999V11.9999H70.8083V12.9765H70.8826C71.0076 12.6458 71.212 12.388 71.4958 12.2031C71.7797 12.0156 72.1195 11.9218 72.5154 11.9218C72.9164 11.9218 73.2524 12.0156 73.5232 12.2031C73.7966 12.3906 73.9984 12.6484 74.1287 12.9765H74.1912C74.3344 12.6562 74.5622 12.401 74.8747 12.2109C75.1872 12.0182 75.5596 11.9218 75.9919 11.9218C76.5362 11.9218 76.9802 12.0924 77.324 12.4335C77.6703 12.7747 77.8435 13.289 77.8435 13.9765V17.9999H76.6755V14.0859C76.6755 13.6796 76.5649 13.3854 76.3435 13.2031C76.1221 13.0208 75.8578 12.9296 75.5505 12.9296C75.1703 12.9296 74.8747 13.0468 74.6638 13.2812C74.4529 13.513 74.3474 13.8111 74.3474 14.1757V17.9999H73.1833V14.0117C73.1833 13.6861 73.0818 13.4244 72.8787 13.2265C72.6755 13.0286 72.4112 12.9296 72.0857 12.9296C71.8643 12.9296 71.6599 12.9882 71.4724 13.1054C71.2875 13.22 71.1378 13.3801 71.0232 13.5859C70.9112 13.7916 70.8552 14.0299 70.8552 14.3007V17.9999H69.6872ZM81.9949 18.121C81.4037 18.121 80.8946 17.9947 80.4675 17.7421C80.043 17.4869 79.7149 17.1288 79.4831 16.6679C79.254 16.2044 79.1394 15.6614 79.1394 15.039C79.1394 14.4244 79.254 13.8827 79.4831 13.414C79.7149 12.9452 80.0378 12.5794 80.4519 12.3163C80.8686 12.0533 81.3555 11.9218 81.9128 11.9218C82.2514 11.9218 82.5795 11.9778 82.8972 12.0898C83.2149 12.2018 83.5001 12.3775 83.7527 12.6171C84.0053 12.8567 84.2045 13.1679 84.3503 13.5507C84.4962 13.9309 84.5691 14.3932 84.5691 14.9374V15.3515H79.7996V14.4765H83.4245C83.4245 14.1692 83.362 13.8971 83.237 13.6601C83.112 13.4205 82.9363 13.2317 82.7097 13.0937C82.4857 12.9557 82.2227 12.8867 81.9206 12.8867C81.5925 12.8867 81.3061 12.9674 81.0613 13.1288C80.8191 13.2877 80.6316 13.496 80.4988 13.7538C80.3686 14.0091 80.3035 14.2864 80.3035 14.5859V15.2695C80.3035 15.6705 80.3738 16.0117 80.5144 16.2929C80.6576 16.5742 80.8568 16.789 81.1121 16.9374C81.3673 17.0833 81.6654 17.1562 82.0066 17.1562C82.2279 17.1562 82.4298 17.1249 82.612 17.0624C82.7943 16.9973 82.9519 16.901 83.0847 16.7734C83.2175 16.6458 83.3191 16.4882 83.3894 16.3007L84.4949 16.4999C84.4063 16.8255 84.2475 17.1106 84.0183 17.3554C83.7917 17.5976 83.5066 17.7864 83.1628 17.9218C82.8217 18.0546 82.4324 18.121 81.9949 18.121ZM91.3035 18.121C90.741 18.121 90.2501 17.9921 89.8308 17.7343C89.4115 17.4765 89.086 17.1158 88.8542 16.6523C88.6225 16.1887 88.5066 15.6471 88.5066 15.0273C88.5066 14.4049 88.6225 13.8606 88.8542 13.3945C89.086 12.9283 89.4115 12.5663 89.8308 12.3085C90.2501 12.0507 90.741 11.9218 91.3035 11.9218C91.866 11.9218 92.3568 12.0507 92.7761 12.3085C93.1954 12.5663 93.5209 12.9283 93.7527 13.3945C93.9844 13.8606 94.1003 14.4049 94.1003 15.0273C94.1003 15.6471 93.9844 16.1887 93.7527 16.6523C93.5209 17.1158 93.1954 17.4765 92.7761 17.7343C92.3568 17.9921 91.866 18.121 91.3035 18.121ZM91.3074 17.1406C91.6719 17.1406 91.974 17.0442 92.2136 16.8515C92.4532 16.6588 92.6303 16.4023 92.7449 16.082C92.862 15.7617 92.9206 15.4088 92.9206 15.0234C92.9206 14.6406 92.862 14.289 92.7449 13.9687C92.6303 13.6458 92.4532 13.3867 92.2136 13.1913C91.974 12.996 91.6719 12.8984 91.3074 12.8984C90.9402 12.8984 90.6355 12.996 90.3933 13.1913C90.1537 13.3867 89.9753 13.6458 89.8581 13.9687C89.7436 14.289 89.6863 14.6406 89.6863 15.0234C89.6863 15.4088 89.7436 15.7617 89.8581 16.082C89.9753 16.4023 90.1537 16.6588 90.3933 16.8515C90.6355 17.0442 90.9402 17.1406 91.3074 17.1406ZM96.572 14.4374V17.9999H95.404V11.9999H96.5251V12.9765H96.5994C96.7374 12.6588 96.9535 12.4036 97.2478 12.2109C97.5447 12.0182 97.9184 11.9218 98.3689 11.9218C98.7777 11.9218 99.1358 12.0078 99.4431 12.1796C99.7504 12.3489 99.9887 12.6015 100.158 12.9374C100.327 13.2734 100.412 13.6887 100.412 14.1835V17.9999H99.2439V14.3242C99.2439 13.8893 99.1306 13.5494 98.904 13.3046C98.6775 13.0572 98.3663 12.9335 97.9704 12.9335C97.6996 12.9335 97.4587 12.9921 97.2478 13.1093C97.0395 13.2265 96.8741 13.3984 96.7517 13.6249C96.6319 13.8489 96.572 14.1197 96.572 14.4374Z" fill="#E8E8E8"/>
<path d="M52.3875 25.1235C52.3392 24.9445 52.2682 24.7869 52.1745 24.6505C52.0807 24.5113 51.9657 24.3934 51.8293 24.2968C51.6929 24.2002 51.5367 24.1278 51.3605 24.0795C51.1844 24.0283 50.9912 24.0028 50.781 24.0028C50.3577 24.0028 49.9912 24.1051 49.6816 24.3096C49.3748 24.5141 49.1375 24.8124 48.9699 25.2045C48.8023 25.5937 48.7185 26.0667 48.7185 26.6235C48.7185 27.1832 48.7995 27.6604 48.9614 28.0553C49.1233 28.4502 49.3577 28.7514 49.6645 28.9587C49.9713 29.1661 50.3435 29.2698 50.781 29.2698C51.1674 29.2698 51.4941 29.2073 51.7611 29.0823C52.031 28.9545 52.2355 28.7741 52.3748 28.5411C52.514 28.3082 52.5836 28.034 52.5836 27.7187L52.9756 27.7656H50.8534V26.2272H54.6162V27.382C54.6162 28.1633 54.45 28.8323 54.1177 29.3891C53.7881 29.946 53.3336 30.3735 52.754 30.6718C52.1773 30.9701 51.514 31.1193 50.764 31.1193C49.9316 31.1193 49.2 30.9389 48.5694 30.5781C47.9387 30.2173 47.4472 29.7031 47.0949 29.0354C46.7427 28.365 46.5665 27.5695 46.5665 26.6491C46.5665 25.9332 46.6731 25.2982 46.8861 24.7443C47.0992 24.1874 47.3961 23.7158 47.7767 23.3295C48.1603 22.9431 48.6034 22.6505 49.1063 22.4516C49.612 22.2528 50.156 22.1533 50.7384 22.1533C51.2441 22.1533 51.7142 22.2258 52.1489 22.3707C52.5864 22.5156 52.9728 22.7201 53.308 22.9843C53.6461 23.2485 53.9202 23.5624 54.1304 23.9261C54.3407 24.2897 54.4713 24.6889 54.5225 25.1235H52.3875ZM56.2696 30.9999V24.4545H58.3534V30.9999H56.2696ZM57.3137 23.6917C57.0211 23.6917 56.7696 23.5951 56.5594 23.4019C56.3492 23.2059 56.2441 22.9701 56.2441 22.6945C56.2441 22.4218 56.3492 22.1889 56.5594 21.9957C56.7696 21.7997 57.0211 21.7016 57.3137 21.7016C57.6091 21.7016 57.8605 21.7997 58.0679 21.9957C58.2782 22.1889 58.3833 22.4218 58.3833 22.6945C58.3833 22.9701 58.2782 23.2059 58.0679 23.4019C57.8605 23.5951 57.6091 23.6917 57.3137 23.6917ZM63.3744 24.4545V25.9886H59.2451V24.4545H63.3744ZM60.1102 22.8863H62.194V28.9417C62.194 29.0695 62.2139 29.1732 62.2537 29.2528C62.2963 29.3295 62.3574 29.3849 62.4369 29.419C62.5164 29.4502 62.6116 29.4658 62.7224 29.4658C62.802 29.4658 62.8858 29.4587 62.9738 29.4445C63.0647 29.4275 63.1329 29.4133 63.1784 29.4019L63.4937 30.9062C63.3943 30.9346 63.2537 30.9701 63.0718 31.0127C62.8929 31.0553 62.6784 31.0823 62.4284 31.0937C61.9397 31.1164 61.5207 31.0596 61.1713 30.9232C60.8247 30.784 60.5591 30.5681 60.3744 30.2755C60.1926 29.9829 60.1045 29.615 60.1102 29.1718V22.8863ZM64.5782 30.9999V22.2727H66.6876V29.2869H70.3183V30.9999H64.5782ZM73.2554 31.1107C72.8378 31.1107 72.4671 31.0411 72.1432 30.9019C71.8222 30.7599 71.5679 30.5468 71.3804 30.2627C71.1958 29.9758 71.1034 29.6164 71.1034 29.1846C71.1034 28.821 71.1674 28.5141 71.2952 28.2641C71.423 28.0141 71.5992 27.811 71.8236 27.6548C72.048 27.4985 72.3066 27.3806 72.5992 27.3011C72.8918 27.2187 73.2043 27.1633 73.5367 27.1349C73.9088 27.1008 74.2086 27.0653 74.4358 27.0283C74.6631 26.9886 74.8279 26.9332 74.9301 26.8622C75.0353 26.7883 75.0878 26.6846 75.0878 26.5511V26.5298C75.0878 26.311 75.0125 26.142 74.862 26.0227C74.7114 25.9033 74.5083 25.8437 74.2526 25.8437C73.977 25.8437 73.7554 25.9033 73.5878 26.0227C73.4202 26.142 73.3137 26.3068 73.2682 26.517L71.3463 26.4488C71.4032 26.0511 71.5495 25.696 71.7853 25.3835C72.0239 25.0681 72.3506 24.821 72.7654 24.642C73.183 24.4602 73.6844 24.3693 74.2696 24.3693C74.6872 24.3693 75.0722 24.419 75.4245 24.5184C75.7767 24.615 76.0836 24.757 76.3449 24.9445C76.6063 25.1292 76.808 25.3565 76.95 25.6264C77.0949 25.8962 77.1674 26.2045 77.1674 26.5511V30.9999H75.2071V30.088H75.156C75.0395 30.3096 74.8904 30.4971 74.7086 30.6505C74.5296 30.8039 74.3179 30.919 74.0736 30.9957C73.8321 31.0724 73.5594 31.1107 73.2554 31.1107ZM73.8989 29.7471C74.1233 29.7471 74.325 29.7016 74.504 29.6107C74.6858 29.5198 74.8307 29.3948 74.9387 29.2357C75.0466 29.0738 75.1006 28.8863 75.1006 28.6732V28.0511C75.0409 28.0823 74.9685 28.1107 74.8833 28.1363C74.8009 28.1619 74.71 28.186 74.6105 28.2087C74.5111 28.2315 74.4088 28.2514 74.3037 28.2684C74.1986 28.2854 74.0978 28.3011 74.0012 28.3153C73.8051 28.3465 73.6375 28.3948 73.4983 28.4602C73.362 28.5255 73.2569 28.6107 73.183 28.7158C73.112 28.8181 73.0765 28.9403 73.0765 29.0823C73.0765 29.2982 73.1532 29.463 73.3066 29.5766C73.4628 29.6903 73.6603 29.7471 73.8989 29.7471ZM78.4415 30.9999V22.2727H80.5253V25.5752H80.5679C80.6532 25.3764 80.7739 25.1846 80.9301 24.9999C81.0892 24.8153 81.2909 24.6647 81.5353 24.5482C81.7824 24.4289 82.0779 24.3693 82.4216 24.3693C82.8762 24.3693 83.3009 24.4886 83.6958 24.7272C84.0935 24.9658 84.4145 25.3337 84.6588 25.8309C84.9032 26.3281 85.0253 26.9616 85.0253 27.7315C85.0253 28.4729 84.9074 29.0937 84.6716 29.5937C84.4387 30.0937 84.1233 30.4687 83.7256 30.7187C83.3307 30.9687 82.8918 31.0937 82.4088 31.0937C82.0793 31.0937 81.7938 31.0397 81.5523 30.9318C81.3108 30.8238 81.1077 30.6818 80.9429 30.5056C80.781 30.3295 80.656 30.1406 80.5679 29.9389H80.504V30.9999H78.4415ZM80.4827 27.7272C80.4827 28.0795 80.5296 28.3863 80.6233 28.6477C80.7199 28.909 80.8577 29.1122 81.0367 29.257C81.2185 29.3991 81.4358 29.4701 81.6887 29.4701C81.9443 29.4701 82.1617 29.3991 82.3407 29.257C82.5196 29.1122 82.6546 28.909 82.7455 28.6477C82.8392 28.3863 82.8861 28.0795 82.8861 27.7272C82.8861 27.3749 82.8392 27.0695 82.7455 26.811C82.6546 26.5525 82.5196 26.3522 82.3407 26.2102C82.1645 26.0681 81.9472 25.9971 81.6887 25.9971C81.433 25.9971 81.2157 26.0667 81.0367 26.2059C80.8577 26.3451 80.7199 26.544 80.6233 26.8025C80.5296 27.061 80.4827 27.3693 80.4827 27.7272Z" fill="url(#paint1_linear_27_68)"/>
</g>
<rect x="0.749756" y="0.749939" width="110.5" height="38.5" rx="5.25" stroke="white" stroke-opacity="0.15" stroke-width="1.5"/>
<defs>
<filter id="filter0_d_27_68" x="5.99976" y="1.99994" width="36.0002" height="36" filterUnits="userSpaceOnUse" color-interpolation-filters="sRGB">
<feFlood flood-opacity="0" result="BackgroundImageFix"/>
<feColorMatrix in="SourceAlpha" type="matrix" values="0 0 0 0 0 0 0 0 0 0 0 0 0 0 0 0 0 0 127 0" result="hardAlpha"/>
<feOffset/>
<feGaussianBlur stdDeviation="2"/>
<feComposite in2="hardAlpha" operator="out"/>
<feColorMatrix type="matrix" values="0 0 0 0 0 0 0 0 0 0 0 0 0 0 0 0 0 0 0.25 0"/>
<feBlend mode="normal" in2="BackgroundImageFix" result="effect1_dropShadow_27_68"/>
<feBlend mode="normal" in="SourceGraphic" in2="effect1_dropShadow_27_68" result="shape"/>
</filter>
<filter id="filter1_d_27_68" x="41.9998" y="2.99994" width="64" height="34" filterUnits="userSpaceOnUse" color-interpolation-filters="sRGB">
<feFlood flood-opacity="0" result="BackgroundImageFix"/>
<feColorMatrix in="SourceAlpha" type="matrix" values="0 0 0 0 0 0 0 0 0 0 0 0 0 0 0 0 0 0 127 0" result="hardAlpha"/>
<feOffset/>
<feGaussianBlur stdDeviation="2"/>
<feComposite in2="hardAlpha" operator="out"/>
<feColorMatrix type="matrix" values="0 0 0 0 0 0 0 0 0 0 0 0 0 0 0 0 0 0 0.25 0"/>
<feBlend mode="normal" in2="BackgroundImageFix" result="effect1_dropShadow_27_68"/>
<feBlend mode="normal" in="SourceGraphic" in2="effect1_dropShadow_27_68" result="shape"/>
</filter>
<linearGradient id="paint0_linear_27_68" x1="55.9997" y1="-6.10351e-05" x2="55.9997" y2="39.9999" gradientUnits="userSpaceOnUse">
<stop stop-color="#2E0E09"/>
<stop offset="1" stop-color="#1F1506"/>
</linearGradient>
<linearGradient id="paint1_linear_27_68" x1="65.9997" y1="19.9999" x2="65.9997" y2="32.9999" gradientUnits="userSpaceOnUse">
<stop stop-color="#E06955"/>
<stop offset="1" stop-color="#F5B253"/>
</linearGradient>
</defs>
</svg>
