<svg width="142" height="40" viewBox="0 0 142 40" fill="none" xmlns="http://www.w3.org/2000/svg">
<rect x="-0.000244141" y="-6.10352e-05" width="142" height="40" rx="6" fill="url(#paint0_linear_27_103)"/>
<g filter="url(#filter0_d_27_103)">
<path d="M35.1332 14.2257C35.1503 14.4752 35.1503 14.7247 35.1503 14.9766C35.1503 22.65 29.3717 31.4999 18.8053 31.4999V31.4953C15.6839 31.4999 12.6274 30.596 9.99976 28.8918C10.4536 28.947 10.9098 28.9746 11.3671 28.9758C13.9538 28.9781 16.4665 28.1007 18.5016 26.485C16.0434 26.4379 13.8878 24.8177 13.1348 22.4522C13.9959 22.6201 14.8831 22.5856 15.7283 22.3522C13.0483 21.8048 11.1202 19.4245 11.1202 16.6601C11.1202 16.6348 11.1202 16.6106 11.1202 16.5865C11.9187 17.0361 12.8128 17.2856 13.7274 17.3132C11.2032 15.6079 10.4252 12.2133 11.9495 9.55926C14.8661 13.1873 19.1693 15.3928 23.7887 15.6263C23.3258 13.6093 23.9582 11.4957 25.4507 10.0779C27.7644 7.87922 31.4033 7.99191 33.5782 10.3297C34.8648 10.0733 36.0978 9.59606 37.2262 8.9199C36.7974 10.2642 35.8999 11.406 34.701 12.1317C35.8396 11.996 36.9521 11.6878 37.9998 11.2175C37.2285 12.3858 36.2571 13.4035 35.1332 14.2257Z" fill="#1D9BF0"/>
</g>
<g filter="url(#filter1_d_27_103)">
<path d="M53.5232 12.6014H52.3044C52.2576 12.341 52.1703 12.1119 52.0427 11.9139C51.9151 11.716 51.7589 11.5481 51.574 11.41C51.3891 11.272 51.182 11.1678 50.9529 11.0975C50.7263 11.0272 50.4854 10.9921 50.2302 10.9921C49.7693 10.9921 49.3565 11.1079 48.9919 11.3397C48.63 11.5715 48.3435 11.9113 48.1326 12.3593C47.9242 12.8072 47.8201 13.354 47.8201 13.9999C47.8201 14.6509 47.9242 15.2004 48.1326 15.6483C48.3435 16.0962 48.6313 16.4348 48.9958 16.6639C49.3604 16.8931 49.7706 17.0077 50.2263 17.0077C50.4789 17.0077 50.7185 16.9738 50.9451 16.9061C51.1742 16.8358 51.3813 16.7329 51.5662 16.5975C51.7511 16.4621 51.9073 16.2968 52.0349 16.1014C52.1651 15.9035 52.255 15.677 52.3044 15.4218L53.5232 15.4257C53.4581 15.8189 53.3318 16.1809 53.1443 16.5116C52.9594 16.8397 52.7211 17.1236 52.4294 17.3632C52.1404 17.6001 51.8097 17.7837 51.4373 17.9139C51.0649 18.0441 50.6586 18.1092 50.2185 18.1092C49.5258 18.1092 48.9086 17.9452 48.3669 17.6171C47.8253 17.2863 47.3982 16.8137 47.0857 16.1991C46.7758 15.5845 46.6208 14.8514 46.6208 13.9999C46.6208 13.1457 46.7771 12.4126 47.0896 11.8007C47.4021 11.1861 47.8292 10.7147 48.3708 10.3866C48.9125 10.0559 49.5284 9.8905 50.2185 9.8905C50.643 9.8905 51.0388 9.9517 51.406 10.0741C51.7758 10.1939 52.1078 10.371 52.4021 10.6053C52.6964 10.8371 52.9399 11.121 53.1326 11.4569C53.3253 11.7902 53.4555 12.1718 53.5232 12.6014ZM56.0417 14.4374V17.9999H54.8738V9.99988H56.0261V12.9764H56.1003C56.241 12.6535 56.4558 12.397 56.7449 12.2069C57.0339 12.0168 57.4115 11.9218 57.8777 11.9218C58.2891 11.9218 58.6485 12.0064 58.9558 12.1757C59.2657 12.3449 59.5053 12.5975 59.6746 12.9335C59.8464 13.2668 59.9324 13.6835 59.9324 14.1835V17.9999H58.7644V14.3241C58.7644 13.884 58.6511 13.5428 58.4246 13.3007C58.198 13.0559 57.8829 12.9335 57.4792 12.9335C57.2032 12.9335 56.9558 12.9921 56.7371 13.1093C56.5209 13.2264 56.3503 13.3983 56.2253 13.6249C56.1029 13.8488 56.0417 14.1197 56.0417 14.4374ZM63.2371 18.1327C62.8568 18.1327 62.5131 18.0624 62.2058 17.9217C61.8985 17.7785 61.655 17.5715 61.4753 17.3007C61.2983 17.0298 61.2097 16.6978 61.2097 16.3046C61.2097 15.966 61.2748 15.6874 61.405 15.4686C61.5352 15.2499 61.711 15.0767 61.9324 14.9491C62.1537 14.8215 62.4011 14.7251 62.6746 14.66C62.948 14.5949 63.2266 14.5454 63.5105 14.5116C63.8699 14.4699 64.1615 14.4361 64.3855 14.41C64.6095 14.3814 64.7722 14.3358 64.8738 14.2733C64.9753 14.2108 65.0261 14.1093 65.0261 13.9686V13.9413C65.0261 13.6001 64.9298 13.3358 64.7371 13.1483C64.547 12.9608 64.2631 12.8671 63.8855 12.8671C63.4923 12.8671 63.1824 12.9543 62.9558 13.1288C62.7318 13.3007 62.5769 13.4921 62.491 13.703L61.3933 13.453C61.5235 13.0884 61.7136 12.7941 61.9636 12.5702C62.2162 12.3436 62.5066 12.1796 62.8347 12.078C63.1628 11.9738 63.5079 11.9218 63.8699 11.9218C64.1095 11.9218 64.3634 11.9504 64.6316 12.0077C64.9024 12.0624 65.155 12.1639 65.3894 12.3124C65.6264 12.4608 65.8204 12.6731 65.9714 12.9491C66.1225 13.2225 66.198 13.578 66.198 14.0155V17.9999H65.0574V17.1796H65.0105C64.935 17.3306 64.8217 17.479 64.6706 17.6249C64.5196 17.7707 64.3256 17.8918 64.0886 17.9882C63.8516 18.0845 63.5678 18.1327 63.2371 18.1327ZM63.491 17.1952C63.8139 17.1952 64.0899 17.1314 64.3191 17.0038C64.5509 16.8762 64.7266 16.7095 64.8464 16.5038C64.9688 16.2954 65.03 16.0728 65.03 15.8358V15.0624C64.9884 15.104 64.9076 15.1431 64.7878 15.1796C64.6706 15.2134 64.5365 15.2434 64.3855 15.2694C64.2345 15.2928 64.0873 15.315 63.9441 15.3358C63.8009 15.354 63.6811 15.3697 63.5847 15.3827C63.3581 15.4113 63.1511 15.4595 62.9636 15.5272C62.7787 15.5949 62.6303 15.6926 62.5183 15.8202C62.4089 15.9452 62.3542 16.1119 62.3542 16.3202C62.3542 16.6093 62.461 16.828 62.6746 16.9764C62.8881 17.1223 63.1602 17.1952 63.491 17.1952ZM70.5544 11.9999V12.9374H67.2771V11.9999H70.5544ZM68.156 10.5624H69.324V16.2382C69.324 16.4647 69.3578 16.6353 69.4255 16.7499C69.4932 16.8619 69.5805 16.9387 69.6872 16.9803C69.7966 17.0194 69.9151 17.0389 70.0427 17.0389C70.1365 17.0389 70.2185 17.0324 70.2888 17.0194C70.3591 17.0064 70.4138 16.996 70.4529 16.9882L70.6638 17.953C70.5961 17.979 70.4997 18.0051 70.3747 18.0311C70.2497 18.0598 70.0935 18.0754 69.906 18.078C69.5987 18.0832 69.3122 18.0285 69.0466 17.9139C68.781 17.7994 68.5662 17.6223 68.4021 17.3827C68.238 17.1431 68.156 16.8423 68.156 16.4803V10.5624ZM76.0583 17.9999L74.2927 11.9999H75.4997L76.6755 16.4061H76.7341L77.9138 11.9999H79.1208L80.2927 16.3866H80.3513L81.5193 11.9999H82.7263L80.9646 17.9999H79.7732L78.5544 13.6678H78.4646L77.2458 17.9999H76.0583ZM83.8347 17.9999V11.9999H85.0027V17.9999H83.8347ZM84.4245 11.0741C84.2214 11.0741 84.0469 11.0064 83.9011 10.871C83.7579 10.7329 83.6863 10.5689 83.6863 10.3788C83.6863 10.1861 83.7579 10.022 83.9011 9.8866C84.0469 9.74857 84.2214 9.67956 84.4245 9.67956C84.6277 9.67956 84.8009 9.74857 84.9441 9.8866C85.0899 10.022 85.1628 10.1861 85.1628 10.3788C85.1628 10.5689 85.0899 10.7329 84.9441 10.871C84.8009 11.0064 84.6277 11.0741 84.4245 11.0741ZM89.3747 11.9999V12.9374H86.0974V11.9999H89.3747ZM86.9763 10.5624H88.1443V16.2382C88.1443 16.4647 88.1781 16.6353 88.2458 16.7499C88.3135 16.8619 88.4008 16.9387 88.5076 16.9803C88.6169 17.0194 88.7354 17.0389 88.863 17.0389C88.9568 17.0389 89.0388 17.0324 89.1091 17.0194C89.1794 17.0064 89.2341 16.996 89.2732 16.9882L89.4841 17.953C89.4164 17.979 89.3201 18.0051 89.1951 18.0311C89.0701 18.0598 88.9138 18.0754 88.7263 18.078C88.419 18.0832 88.1326 18.0285 87.8669 17.9139C87.6013 17.7994 87.3865 17.6223 87.2224 17.3827C87.0583 17.1431 86.9763 16.8423 86.9763 16.4803V10.5624ZM91.9636 14.4374V17.9999H90.7956V9.99988H91.948V12.9764H92.0222C92.1628 12.6535 92.3777 12.397 92.6667 12.2069C92.9558 12.0168 93.3334 11.9218 93.7995 11.9218C94.211 11.9218 94.5704 12.0064 94.8777 12.1757C95.1876 12.3449 95.4272 12.5975 95.5964 12.9335C95.7683 13.2668 95.8542 13.6835 95.8542 14.1835V17.9999H94.6863V14.3241C94.6863 13.884 94.573 13.5428 94.3464 13.3007C94.1199 13.0559 93.8048 12.9335 93.4011 12.9335C93.1251 12.9335 92.8777 12.9921 92.6589 13.1093C92.4428 13.2264 92.2722 13.3983 92.1472 13.6249C92.0248 13.8488 91.9636 14.1197 91.9636 14.4374ZM100.324 17.9999V11.9999H101.445V12.9764H101.519C101.644 12.6457 101.849 12.3879 102.133 12.203C102.416 12.0155 102.756 11.9218 103.152 11.9218C103.553 11.9218 103.889 12.0155 104.16 12.203C104.433 12.3905 104.635 12.6483 104.765 12.9764H104.828C104.971 12.6561 105.199 12.4009 105.511 12.2108C105.824 12.0181 106.196 11.9218 106.629 11.9218C107.173 11.9218 107.617 12.0923 107.961 12.4335C108.307 12.7746 108.48 13.2889 108.48 13.9764V17.9999H107.312V14.0858C107.312 13.6796 107.202 13.3853 106.98 13.203C106.759 13.0207 106.495 12.9296 106.187 12.9296C105.807 12.9296 105.511 13.0468 105.301 13.2811C105.09 13.5129 104.984 13.8111 104.984 14.1757V17.9999H103.82V14.0116C103.82 13.6861 103.718 13.4244 103.515 13.2264C103.312 13.0285 103.048 12.9296 102.722 12.9296C102.501 12.9296 102.297 12.9882 102.109 13.1053C101.924 13.2199 101.774 13.3801 101.66 13.5858C101.548 13.7915 101.492 14.0298 101.492 14.3007V17.9999H100.324ZM112.632 18.121C112.04 18.121 111.531 17.9947 111.104 17.7421C110.68 17.4869 110.352 17.1288 110.12 16.6678C109.891 16.2043 109.776 15.6613 109.776 15.0389C109.776 14.4244 109.891 13.8827 110.12 13.4139C110.352 12.9452 110.675 12.5793 111.089 12.3163C111.505 12.0533 111.992 11.9218 112.55 11.9218C112.888 11.9218 113.216 11.9777 113.534 12.0897C113.852 12.2017 114.137 12.3775 114.389 12.6171C114.642 12.8566 114.841 13.1678 114.987 13.5507C115.133 13.9309 115.206 14.3931 115.206 14.9374V15.3514H110.436V14.4764H114.061C114.061 14.1691 113.999 13.897 113.874 13.66C113.749 13.4204 113.573 13.2316 113.346 13.0936C113.122 12.9556 112.859 12.8866 112.557 12.8866C112.229 12.8866 111.943 12.9673 111.698 13.1288C111.456 13.2876 111.268 13.496 111.135 13.7538C111.005 14.009 110.94 14.2863 110.94 14.5858V15.2694C110.94 15.6704 111.01 16.0116 111.151 16.2928C111.294 16.5741 111.494 16.7889 111.749 16.9374C112.004 17.0832 112.302 17.1561 112.643 17.1561C112.865 17.1561 113.066 17.1249 113.249 17.0624C113.431 16.9973 113.589 16.9009 113.721 16.7733C113.854 16.6457 113.956 16.4882 114.026 16.3007L115.132 16.4999C115.043 16.8254 114.884 17.1106 114.655 17.3553C114.428 17.5975 114.143 17.7863 113.8 17.9217C113.458 18.0546 113.069 18.121 112.632 18.121ZM121.94 18.121C121.378 18.121 120.887 17.9921 120.468 17.7342C120.048 17.4764 119.723 17.1158 119.491 16.6522C119.259 16.1887 119.143 15.647 119.143 15.0272C119.143 14.4048 119.259 13.8606 119.491 13.3944C119.723 12.9283 120.048 12.5663 120.468 12.3085C120.887 12.0507 121.378 11.9218 121.94 11.9218C122.503 11.9218 122.994 12.0507 123.413 12.3085C123.832 12.5663 124.158 12.9283 124.389 13.3944C124.621 13.8606 124.737 14.4048 124.737 15.0272C124.737 15.647 124.621 16.1887 124.389 16.6522C124.158 17.1158 123.832 17.4764 123.413 17.7342C122.994 17.9921 122.503 18.121 121.94 18.121ZM121.944 17.1405C122.309 17.1405 122.611 17.0441 122.85 16.8514C123.09 16.6587 123.267 16.4022 123.382 16.0819C123.499 15.7616 123.557 15.4087 123.557 15.0233C123.557 14.6405 123.499 14.2889 123.382 13.9686C123.267 13.6457 123.09 13.3866 122.85 13.1913C122.611 12.996 122.309 12.8983 121.944 12.8983C121.577 12.8983 121.272 12.996 121.03 13.1913C120.79 13.3866 120.612 13.6457 120.495 13.9686C120.38 14.2889 120.323 14.6405 120.323 15.0233C120.323 15.4087 120.38 15.7616 120.495 16.0819C120.612 16.4022 120.79 16.6587 121.03 16.8514C121.272 17.0441 121.577 17.1405 121.944 17.1405ZM127.209 14.4374V17.9999H126.041V11.9999H127.162V12.9764H127.236C127.374 12.6587 127.59 12.4035 127.884 12.2108C128.181 12.0181 128.555 11.9218 129.006 11.9218C129.414 11.9218 129.773 12.0077 130.08 12.1796C130.387 12.3488 130.625 12.6014 130.795 12.9374C130.964 13.2733 131.049 13.6887 131.049 14.1835V17.9999H129.881V14.3241C129.881 13.8892 129.767 13.5494 129.541 13.3046C129.314 13.0572 129.003 12.9335 128.607 12.9335C128.336 12.9335 128.095 12.9921 127.884 13.1093C127.676 13.2264 127.511 13.3983 127.388 13.6249C127.269 13.8488 127.209 14.1197 127.209 14.4374Z" fill="#E8E8E8"/>
<path d="M46.3748 23.9857V22.2726H53.7512V23.9857H51.1049V30.9999H49.0253V23.9857H46.3748ZM55.2544 30.9999L53.5498 24.4544H55.6422L56.5243 28.6476H56.5797L57.5257 24.4544H59.5669L60.5385 28.6178H60.5939L61.4504 24.4544H63.5427L61.8339 30.9999H59.6052L58.5825 27.186H58.5101L57.4873 30.9999H55.2544ZM64.379 30.9999V24.4544H66.4628V30.9999H64.379ZM65.423 23.6916C65.1304 23.6916 64.879 23.595 64.6688 23.4019C64.4586 23.2058 64.3534 22.97 64.3534 22.6945C64.3534 22.4218 64.4586 22.1888 64.6688 21.9956C64.879 21.7996 65.1304 21.7016 65.423 21.7016C65.7185 21.7016 65.9699 21.7996 66.1773 21.9956C66.3875 22.1888 66.4926 22.4218 66.4926 22.6945C66.4926 22.97 66.3875 23.2058 66.1773 23.4019C65.9699 23.595 65.7185 23.6916 65.423 23.6916ZM71.4838 24.4544V25.9885H67.3545V24.4544H71.4838ZM68.2196 22.8862H70.3034V28.9416C70.3034 29.0695 70.3233 29.1732 70.363 29.2527C70.4056 29.3294 70.4667 29.3848 70.5463 29.4189C70.6258 29.4502 70.721 29.4658 70.8318 29.4658C70.9113 29.4658 70.9951 29.4587 71.0832 29.4445C71.1741 29.4274 71.2423 29.4132 71.2877 29.4019L71.6031 30.9061C71.5037 30.9345 71.363 30.97 71.1812 31.0127C71.0022 31.0553 70.7877 31.0823 70.5377 31.0936C70.0491 31.1164 69.6301 31.0595 69.2806 30.9232C68.9341 30.784 68.6684 30.5681 68.4838 30.2754C68.302 29.9828 68.2139 29.6149 68.2196 29.1718V22.8862ZM76.2416 24.4544V25.9885H72.1123V24.4544H76.2416ZM72.9774 22.8862H75.0612V28.9416C75.0612 29.0695 75.0811 29.1732 75.1208 29.2527C75.1635 29.3294 75.2245 29.3848 75.3041 29.4189C75.3836 29.4502 75.4788 29.4658 75.5896 29.4658C75.6691 29.4658 75.7529 29.4587 75.841 29.4445C75.9319 29.4274 76.0001 29.4132 76.0456 29.4019L76.3609 30.9061C76.2615 30.9345 76.1208 30.97 75.939 31.0127C75.76 31.0553 75.5456 31.0823 75.2956 31.0936C74.8069 31.1164 74.3879 31.0595 74.0385 30.9232C73.6919 30.784 73.4262 30.5681 73.2416 30.2754C73.0598 29.9828 72.9717 29.6149 72.9774 29.1718V22.8862ZM80.2941 31.1235C79.6095 31.1235 79.0186 30.9885 78.5214 30.7186C78.0271 30.4459 77.6464 30.0581 77.3794 29.5553C77.1152 29.0496 76.9831 28.4487 76.9831 27.7527C76.9831 27.0766 77.1166 26.4857 77.3836 25.98C77.6507 25.4715 78.0271 25.0766 78.5129 24.7953C78.9987 24.5112 79.5711 24.3692 80.2302 24.3692C80.6961 24.3692 81.1223 24.4416 81.5086 24.5865C81.895 24.7314 82.2288 24.9459 82.51 25.23C82.7913 25.5141 83.01 25.8649 83.1663 26.2825C83.3225 26.6973 83.4007 27.1732 83.4007 27.7101V28.23H77.7117V27.0198H81.4617C81.4589 26.7982 81.4064 26.6007 81.3041 26.4274C81.2018 26.2541 81.0612 26.1192 80.8822 26.0226C80.7061 25.9232 80.5029 25.8735 80.2728 25.8735C80.0399 25.8735 79.8311 25.926 79.6464 26.0311C79.4617 26.1334 79.3154 26.274 79.2075 26.453C79.0995 26.6291 79.0427 26.8294 79.037 27.0539V28.2854C79.037 28.5524 79.0896 28.7868 79.1947 28.9885C79.2998 29.1874 79.449 29.3422 79.6421 29.453C79.8353 29.5638 80.0654 29.6192 80.3325 29.6192C80.5171 29.6192 80.6848 29.5936 80.8353 29.5425C80.9859 29.4914 81.1152 29.4161 81.2231 29.3166C81.3311 29.2172 81.412 29.095 81.466 28.9502L83.3794 29.0056C83.2998 29.4345 83.1251 29.8081 82.8552 30.1263C82.5882 30.4416 82.2373 30.6874 81.8027 30.8635C81.368 31.0368 80.8652 31.1235 80.2941 31.1235ZM84.4649 30.9999V24.4544H86.4891V25.6476H86.5573C86.6766 25.2158 86.8712 24.8948 87.1411 24.6845C87.411 24.4715 87.7249 24.3649 88.0828 24.3649C88.1794 24.3649 88.2789 24.372 88.3811 24.3862C88.4834 24.3976 88.5786 24.4161 88.6666 24.4416V26.2527C88.5672 26.2186 88.4365 26.1916 88.2746 26.1718C88.1155 26.1519 87.9735 26.1419 87.8485 26.1419C87.6013 26.1419 87.3783 26.1973 87.1794 26.3081C86.9834 26.4161 86.8286 26.5681 86.7149 26.7641C86.6041 26.9573 86.5487 27.1845 86.5487 27.4459V30.9999H84.4649Z" fill="#1D9BF0"/>
</g>
<rect x="0.749756" y="0.749939" width="140.5" height="38.5" rx="5.25" stroke="white" stroke-opacity="0.15" stroke-width="1.5"/>
<defs>
<filter id="filter0_d_27_103" x="5.99976" y="1.99988" width="36" height="36" filterUnits="userSpaceOnUse" color-interpolation-filters="sRGB">
<feFlood flood-opacity="0" result="BackgroundImageFix"/>
<feColorMatrix in="SourceAlpha" type="matrix" values="0 0 0 0 0 0 0 0 0 0 0 0 0 0 0 0 0 0 127 0" result="hardAlpha"/>
<feOffset/>
<feGaussianBlur stdDeviation="2"/>
<feComposite in2="hardAlpha" operator="out"/>
<feColorMatrix type="matrix" values="0 0 0 0 0 0 0 0 0 0 0 0 0 0 0 0 0 0 0.25 0"/>
<feBlend mode="normal" in2="BackgroundImageFix" result="effect1_dropShadow_27_103"/>
<feBlend mode="normal" in="SourceGraphic" in2="effect1_dropShadow_27_103" result="shape"/>
</filter>
<filter id="filter1_d_27_103" x="41.9998" y="2.99988" width="94" height="34" filterUnits="userSpaceOnUse" color-interpolation-filters="sRGB">
<feFlood flood-opacity="0" result="BackgroundImageFix"/>
<feColorMatrix in="SourceAlpha" type="matrix" values="0 0 0 0 0 0 0 0 0 0 0 0 0 0 0 0 0 0 127 0" result="hardAlpha"/>
<feOffset/>
<feGaussianBlur stdDeviation="2"/>
<feComposite in2="hardAlpha" operator="out"/>
<feColorMatrix type="matrix" values="0 0 0 0 0 0 0 0 0 0 0 0 0 0 0 0 0 0 0.25 0"/>
<feBlend mode="normal" in2="BackgroundImageFix" result="effect1_dropShadow_27_103"/>
<feBlend mode="normal" in="SourceGraphic" in2="effect1_dropShadow_27_103" result="shape"/>
</filter>
<linearGradient id="paint0_linear_27_103" x1="70.9997" y1="-6.10351e-05" x2="70.9997" y2="39.9999" gradientUnits="userSpaceOnUse">
<stop stop-color="#051F30"/>
<stop offset="1" stop-color="#031420"/>
</linearGradient>
</defs>
</svg>
