<svg width="180" height="56" viewBox="0 0 180 56" fill="none" xmlns="http://www.w3.org/2000/svg">
<g clip-path="url(#clip0_28_1130)">
<rect x="-0.000488281" y="-0.00012207" width="180" height="56" rx="8" fill="url(#paint0_linear_28_1130)"/>
<g filter="url(#filter0_d_28_1130)">
<path d="M22.521 7.99997V11.2692H16.5239V14.1538H13.4287V17.423H16.5239V20.3077H19.6192V23.3846H25.8097V26.4615H38.1906V23.3846H44.3811V20.3077H47.2829V29.7307H44.3811V38.7692H41.0924V44.923H22.521V48H41.0924V44.923H44.3811V38.7692H47.2829V29.7307H50.5716V14.1538H47.2829V17.423H44.3811V20.3077H38.1906V23.3846H25.8097V20.3077H19.6192V17.423H16.5239V14.1538H22.521V11.2692H32.0001V7.99997H22.521Z" fill="#353535"/>
<path d="M32 7.99997V11.2692H41.0923V14.1538H47.2827V11.2692H41.0923V7.99997H32Z" fill="#515151"/>
<path d="M22.521 11.2692V14.1538H25.8097V11.2692H22.521Z" fill="#A37B63"/>
<path d="M25.8096 11.2692V14.1538H28.9048V11.2692H25.8096Z" fill="#AB826B"/>
<path d="M28.905 11.2692V14.1538H34.9021V11.2692H28.905Z" fill="#ABA26B"/>
<path d="M34.9019 11.2692V14.1538H38.1905V11.2692H34.9019Z" fill="#AB826B"/>
<path d="M38.1907 11.2692V14.1538H41.0925V17.423H44.3812V14.1538H41.0925V11.2692H38.1907Z" fill="#BF967E"/>
<path d="M16.5239 14.1539V17.4231H19.6192V14.1539H16.5239Z" fill="#958C55"/>
<path d="M19.6194 14.1539V17.4231H22.5212V14.1539H19.6194Z" fill="#956C55"/>
<path d="M22.521 14.1539V17.4231H25.8097V14.1539H22.521Z" fill="#C33E1F"/>
<path d="M25.8096 14.1539V17.4231H28.9048V20.3077H32V23.3846H38.1905V20.3077H32V17.4231H28.9048V14.1539H25.8096Z" fill="#E38C3F"/>
<path d="M28.905 14.1539V17.4231H32.0003V20.3077H38.1907V17.4231H34.9021V14.1539H28.905Z" fill="#E4D25C"/>
<path d="M34.9019 14.1539V17.4231H38.1905V14.1539H34.9019Z" fill="#E38C3F"/>
<path d="M38.1907 14.1539V17.4231H41.0925V20.3077H44.3812V17.4231H41.0925V14.1539H38.1907Z" fill="#CC4628"/>
<path d="M44.3811 14.1539V17.4231H47.2829V14.1539H44.3811Z" fill="#BFB67E"/>
<path d="M13.4287 17.423V29.7307H16.5239V38.7692H19.6192V44.923H22.521V38.7692H19.6192V29.7307H16.5239V17.423H13.4287Z" fill="#515151"/>
<path d="M19.6194 17.4231V20.3077H22.5212V17.4231H19.6194Z" fill="#DC8638"/>
<path d="M22.521 17.4231V20.3077H25.8097V23.3846H28.9049V17.4231H22.521Z" fill="#E2CF5A"/>
<path d="M38.1907 17.4231V20.3077H41.0925V17.4231H38.1907Z" fill="#EA9346"/>
<path d="M16.5239 20.3076V23.3845H19.6192V26.4615H25.8096V23.3845H19.6192V20.3076H16.5239Z" fill="#E7E7E7"/>
<path d="M28.905 20.3076V23.3845H32.0003V20.3076H28.905Z" fill="#C54021"/>
<path d="M44.3811 20.3076V23.3845H47.2829V20.3076H44.3811Z" fill="#A9A9A9"/>
<path d="M16.5239 23.3846V29.7308H19.6192V38.7693H22.5209V42.0385H25.8096V44.9231H32.0001V32.6154H28.9049V29.7308H25.8096V32.6154H22.5209V26.4616H19.6192V23.3846H16.5239Z" fill="#D8D8D8"/>
<path d="M38.1907 23.3846V26.4616H41.0925V23.3846H38.1907Z" fill="#EAD762"/>
<path d="M41.0925 23.3846V26.4616H44.3812V23.3846H41.0925Z" fill="#CB4627"/>
<path d="M44.3812 23.3846V29.7308H41.0925V38.7693H44.3812V29.7308H47.283V23.3846H44.3812Z" fill="#727272"/>
<path d="M22.521 26.4615V32.6154H25.8097V26.4615H22.521Z" fill="white"/>
<path d="M25.8096 26.4615V29.7307H28.9048V26.4615H25.8096Z" fill="#D85334"/>
<path d="M28.905 26.4615V29.7307H38.1907V26.4615H28.905Z" fill="#CACACA"/>
<path d="M38.1907 26.4615V29.7307H41.0925V26.4615H38.1907Z" fill="#E99245"/>
<path d="M41.0925 26.4615V29.7307H44.3812V26.4615H41.0925Z" fill="#969696"/>
<path d="M28.905 29.7307V32.6154H32.0003V42.0384H34.9021V32.6154H38.1907V29.7307H28.905Z" fill="#A8A8A8"/>
<path d="M38.1907 29.7307V32.6154H41.0925V29.7307H38.1907Z" fill="#CB4627"/>
<path d="M25.8096 32.6153V38.7691H28.9048V32.6153H25.8096Z" fill="white"/>
<path d="M34.9018 32.6153V42.0383H32V44.923H41.0923V38.7691H38.1905V35.8845H41.0923V32.6153H34.9018Z" fill="#969696"/>
<path d="M38.1907 35.8846V38.7693H41.0925V35.8846H38.1907Z" fill="#CB4627"/>
<path d="M22.521 42.0384V44.923H25.8097V42.0384H22.521Z" fill="#969696"/>
<g opacity="0.7">
<mask id="path-40-outside-1_28_1130" maskUnits="userSpaceOnUse" x="26.1433" y="22.1431" width="28" height="28" fill="black">
<rect fill="white" x="26.1433" y="22.1431" width="28" height="28"/>
<path fill-rule="evenodd" clip-rule="evenodd" d="M31.9579 25.3523C31.679 25.0733 31.2268 25.0733 30.9479 25.3523L29.3532 26.9474C29.0743 27.2264 29.0743 27.6787 29.3532 27.9577L37.9662 36.573L29.3525 45.1852C29.0736 45.4642 29.0736 45.9164 29.3525 46.1953L30.9476 47.7901C31.2265 48.069 31.6788 48.069 31.9578 47.7901L40.5709 39.1784L49.1808 47.7905C49.4597 48.0695 49.9119 48.0695 50.1908 47.7905L51.7855 46.1954C52.0644 45.9164 52.0644 45.4641 51.7855 45.1851L43.1762 36.5736L51.7897 27.9615C52.0686 27.6826 52.0686 27.2304 51.7897 26.9515L50.1947 25.3567C49.9157 25.0778 49.4634 25.0778 49.1844 25.3567L40.5715 33.9682L31.9579 25.3523Z"/>
</mask>
<path fill-rule="evenodd" clip-rule="evenodd" d="M31.9579 25.3523C31.679 25.0733 31.2268 25.0733 30.9479 25.3523L29.3532 26.9474C29.0743 27.2264 29.0743 27.6787 29.3532 27.9577L37.9662 36.573L29.3525 45.1852C29.0736 45.4642 29.0736 45.9164 29.3525 46.1953L30.9476 47.7901C31.2265 48.069 31.6788 48.069 31.9578 47.7901L40.5709 39.1784L49.1808 47.7905C49.4597 48.0695 49.9119 48.0695 50.1908 47.7905L51.7855 46.1954C52.0644 45.9164 52.0644 45.4641 51.7855 45.1851L43.1762 36.5736L51.7897 27.9615C52.0686 27.6826 52.0686 27.2304 51.7897 26.9515L50.1947 25.3567C49.9157 25.0778 49.4634 25.0778 49.1844 25.3567L40.5715 33.9682L31.9579 25.3523Z" fill="url(#paint1_linear_28_1130)"/>
<path d="M30.9479 25.3523L32.4633 26.8673L32.4633 26.8673L30.9479 25.3523ZM31.9579 25.3523L30.4425 26.8673L30.4425 26.8673L31.9579 25.3523ZM29.3532 26.9474L30.8686 28.4624L30.8686 28.4624L29.3532 26.9474ZM29.3532 27.9577L30.8686 26.4427L30.8686 26.4427L29.3532 27.9577ZM37.9662 36.573L39.4813 38.0884L40.9966 36.5733L39.4817 35.058L37.9662 36.573ZM29.3525 45.1852L27.8374 43.6699L27.8374 43.6699L29.3525 45.1852ZM29.3525 46.1953L27.8374 47.7107L27.8374 47.7107L29.3525 46.1953ZM30.9476 47.7901L32.4627 46.2747L32.4627 46.2747L30.9476 47.7901ZM31.9578 47.7901L33.4729 49.3054L33.4729 49.3054L31.9578 47.7901ZM40.5709 39.1784L42.0863 37.6634L40.5712 36.1479L39.0558 37.663L40.5709 39.1784ZM49.1808 47.7905L50.6962 46.2755L50.6962 46.2755L49.1808 47.7905ZM50.1908 47.7905L48.6753 46.2755L48.6753 46.2755L50.1908 47.7905ZM51.7855 46.1954L50.27 44.6804L50.27 44.6804L51.7855 46.1954ZM51.7855 45.1851L53.3009 43.6701L53.3009 43.6701L51.7855 45.1851ZM43.1762 36.5736L41.6611 35.0582L40.1458 36.5732L41.6608 38.0886L43.1762 36.5736ZM51.7897 27.9615L53.3048 29.4769L53.3048 29.4769L51.7897 27.9615ZM51.7897 26.9515L53.3048 25.4361L53.3048 25.4361L51.7897 26.9515ZM50.1947 25.3567L51.7098 23.8414L51.7098 23.8414L50.1947 25.3567ZM49.1844 25.3567L47.6693 23.8414L47.6693 23.8414L49.1844 25.3567ZM40.5715 33.9682L39.0561 35.4832L40.5712 36.9987L42.0866 35.4835L40.5715 33.9682ZM32.4633 26.8673C31.9053 27.4255 31.0004 27.4255 30.4425 26.8673L33.4733 23.8373C32.3575 22.7212 30.5482 22.7212 29.4324 23.8373L32.4633 26.8673ZM30.8686 28.4624L32.4633 26.8673L29.4324 23.8373L27.8378 25.4324L30.8686 28.4624ZM30.8686 26.4427C31.4263 27.0005 31.4263 27.9046 30.8686 28.4624L27.8378 25.4324C26.7223 26.5481 26.7223 28.3569 27.8378 29.4727L30.8686 26.4427ZM39.4817 35.058L30.8686 26.4427L27.8378 29.4727L36.4508 38.088L39.4817 35.058ZM30.8676 46.7006L39.4813 38.0884L36.4511 35.0576L27.8374 43.6699L30.8676 46.7006ZM30.8676 44.6799C31.4257 45.2379 31.4257 46.1426 30.8676 46.7006L27.8374 43.6699C26.7215 44.7857 26.7215 46.5949 27.8374 47.7107L30.8676 44.6799ZM32.4627 46.2747L30.8676 44.6799L27.8374 47.7107L29.4325 49.3054L32.4627 46.2747ZM30.4427 46.2747C31.0005 45.717 31.9048 45.717 32.4627 46.2747L29.4325 49.3054C30.5482 50.421 32.3571 50.421 33.4729 49.3054L30.4427 46.2747ZM39.0558 37.663L30.4427 46.2747L33.4729 49.3054L42.086 40.6938L39.0558 37.663ZM50.6962 46.2755L42.0863 37.6634L39.0555 40.6934L47.6653 49.3055L50.6962 46.2755ZM48.6753 46.2755C49.2333 45.7174 50.1382 45.7174 50.6962 46.2755L47.6653 49.3055C48.7811 50.4216 50.5904 50.4216 51.7062 49.3055L48.6753 46.2755ZM50.27 44.6804L48.6753 46.2755L51.7062 49.3055L53.3009 47.7104L50.27 44.6804ZM50.27 46.7001C49.7124 46.1423 49.7124 45.2382 50.27 44.6804L53.3009 47.7104C54.4164 46.5947 54.4164 44.7859 53.3009 43.6701L50.27 46.7001ZM41.6608 38.0886L50.27 46.7001L53.3009 43.6701L44.6916 35.0585L41.6608 38.0886ZM50.2746 26.4462L41.6611 35.0582L44.6913 38.0889L53.3048 29.4769L50.2746 26.4462ZM50.2746 28.4668C49.7165 27.9089 49.7165 27.0041 50.2746 26.4462L53.3048 29.4769C54.4208 28.3611 54.4208 26.5519 53.3048 25.4361L50.2746 28.4668ZM48.6796 26.8721L50.2746 28.4668L53.3048 25.4361L51.7098 23.8414L48.6796 26.8721ZM50.6995 26.8721C50.1417 27.4298 49.2374 27.4298 48.6796 26.8721L51.7098 23.8414C50.594 22.7258 48.7851 22.7258 47.6693 23.8414L50.6995 26.8721ZM42.0866 35.4835L50.6995 26.8721L47.6693 23.8414L39.0564 32.4528L42.0866 35.4835ZM30.4425 26.8673L39.0561 35.4832L42.0869 32.4532L33.4733 23.8373L30.4425 26.8673Z" fill="black" mask="url(#path-40-outside-1_28_1130)"/>
</g>
</g>
<g filter="url(#filter1_d_28_1130)">
<path d="M63.5563 24.4999L60.3291 12.8635H62.1756L64.4427 21.8749H64.5506L66.9086 12.8635H68.7381L71.0961 21.8806H71.2041L73.4654 12.8635H75.3177L72.0847 24.4999H70.3177L67.8688 15.784H67.7779L65.3291 24.4999H63.5563ZM79.5989 24.676C78.7808 24.676 78.0667 24.4885 77.4569 24.1135C76.847 23.7385 76.3736 23.2139 76.0364 22.5396C75.6993 21.8654 75.5308 21.0775 75.5308 20.176C75.5308 19.2707 75.6993 18.479 76.0364 17.801C76.3736 17.123 76.847 16.5965 77.4569 16.2215C78.0667 15.8465 78.7808 15.659 79.5989 15.659C80.4171 15.659 81.1311 15.8465 81.741 16.2215C82.3508 16.5965 82.8243 17.123 83.1614 17.801C83.4986 18.479 83.6671 19.2707 83.6671 20.176C83.6671 21.0775 83.4986 21.8654 83.1614 22.5396C82.8243 23.2139 82.3508 23.7385 81.741 24.1135C81.1311 24.4885 80.4171 24.676 79.5989 24.676ZM79.6046 23.2499C80.1349 23.2499 80.5743 23.1097 80.9228 22.8294C81.2713 22.5491 81.5289 22.176 81.6955 21.7101C81.866 21.2442 81.9512 20.7309 81.9512 20.1703C81.9512 19.6135 81.866 19.1021 81.6955 18.6362C81.5289 18.1665 81.2713 17.7896 80.9228 17.5056C80.5743 17.2215 80.1349 17.0794 79.6046 17.0794C79.0705 17.0794 78.6273 17.2215 78.2751 17.5056C77.9266 17.7896 77.6671 18.1665 77.4967 18.6362C77.33 19.1021 77.2467 19.6135 77.2467 20.1703C77.2467 20.7309 77.33 21.2442 77.4967 21.7101C77.6671 22.176 77.9266 22.5491 78.2751 22.8294C78.6273 23.1097 79.0705 23.2499 79.6046 23.2499ZM87.2623 19.3181V24.4999H85.5634V15.7726H87.1941V17.1931H87.3021C87.5028 16.7309 87.8172 16.3597 88.2452 16.0794C88.6771 15.7991 89.2206 15.659 89.8759 15.659C90.4706 15.659 90.9915 15.784 91.4384 16.034C91.8854 16.2802 92.232 16.6476 92.4782 17.1362C92.7244 17.6249 92.8475 18.229 92.8475 18.9487V24.4999H91.1487V19.1533C91.1487 18.5207 90.9839 18.0264 90.6543 17.6703C90.3248 17.3105 89.8721 17.1306 89.2964 17.1306C88.9024 17.1306 88.5521 17.2158 88.2452 17.3862C87.9422 17.5567 87.7017 17.8067 87.5237 18.1362C87.3494 18.462 87.2623 18.8559 87.2623 19.3181ZM96.5861 12.8635V13.9544C96.5861 14.2764 96.5255 14.6154 96.4043 14.9715C96.2869 15.3237 96.1202 15.6628 95.9043 15.9885C95.6884 16.3143 95.4346 16.5946 95.143 16.8294L94.3021 16.2271C94.5255 15.9014 94.7187 15.5548 94.8816 15.1874C95.0483 14.82 95.1316 14.4146 95.1316 13.9715V12.8635H96.5861ZM102.637 15.7726V17.1362H97.8702V15.7726H102.637ZM99.1486 13.6817H100.848V21.9374C100.848 22.2669 100.897 22.515 100.995 22.6817C101.094 22.8446 101.221 22.9563 101.376 23.0169C101.535 23.0737 101.707 23.1021 101.893 23.1021C102.029 23.1021 102.149 23.0927 102.251 23.0737C102.353 23.0548 102.433 23.0396 102.49 23.0283L102.796 24.4317C102.698 24.4696 102.558 24.5074 102.376 24.5453C102.194 24.587 101.967 24.6097 101.694 24.6135C101.247 24.6211 100.83 24.5415 100.444 24.3749C100.058 24.2082 99.7452 23.9506 99.5066 23.6021C99.268 23.2537 99.1486 22.8162 99.1486 22.2896V13.6817ZM115.291 17.9033L113.751 18.176C113.687 17.979 113.584 17.7915 113.444 17.6135C113.308 17.4355 113.122 17.2896 112.887 17.176C112.652 17.0624 112.359 17.0056 112.007 17.0056C111.526 17.0056 111.124 17.1135 110.802 17.3294C110.48 17.5415 110.319 17.8162 110.319 18.1533C110.319 18.445 110.427 18.6798 110.643 18.8578C110.859 19.0359 111.207 19.1817 111.688 19.2953L113.075 19.6135C113.878 19.7991 114.476 20.0851 114.87 20.4715C115.264 20.8578 115.461 21.3597 115.461 21.9771C115.461 22.4999 115.31 22.9658 115.007 23.3749C114.707 23.7802 114.289 24.0984 113.751 24.3294C113.217 24.5605 112.598 24.676 111.893 24.676C110.916 24.676 110.118 24.4677 109.501 24.051C108.883 23.6306 108.505 23.034 108.365 22.2612L110.007 22.0112C110.109 22.4393 110.319 22.7631 110.637 22.9828C110.955 23.1987 111.37 23.3067 111.882 23.3067C112.438 23.3067 112.883 23.1912 113.217 22.9601C113.55 22.7253 113.717 22.4393 113.717 22.1021C113.717 21.8294 113.615 21.6003 113.41 21.4146C113.209 21.229 112.901 21.0889 112.484 20.9942L111.007 20.6703C110.192 20.4847 109.59 20.1893 109.2 19.784C108.813 19.3787 108.62 18.8654 108.62 18.2442C108.62 17.729 108.764 17.2783 109.052 16.8919C109.34 16.5056 109.738 16.2044 110.245 15.9885C110.753 15.7688 111.334 15.659 111.99 15.659C112.933 15.659 113.675 15.8635 114.217 16.2726C114.758 16.6779 115.116 17.2215 115.291 17.9033ZM122.857 20.8806V15.7726H124.562V24.4999H122.892V22.9885H122.801C122.6 23.4544 122.278 23.8427 121.835 24.1533C121.395 24.4601 120.848 24.6135 120.193 24.6135C119.632 24.6135 119.136 24.4904 118.704 24.2442C118.276 23.9942 117.939 23.6249 117.693 23.1362C117.45 22.6476 117.329 22.0434 117.329 21.3237V15.7726H119.028V21.1192C119.028 21.7139 119.193 22.1874 119.522 22.5396C119.852 22.8919 120.28 23.0681 120.806 23.0681C121.124 23.0681 121.441 22.9885 121.755 22.8294C122.073 22.6703 122.337 22.4298 122.545 22.1078C122.757 21.7859 122.861 21.3768 122.857 20.8806ZM126.845 27.7726V15.7726H128.504V17.1874H128.646C128.744 17.0056 128.886 16.7953 129.072 16.5567C129.258 16.3181 129.515 16.1097 129.845 15.9317C130.174 15.7499 130.61 15.659 131.151 15.659C131.856 15.659 132.485 15.837 133.038 16.1931C133.591 16.5491 134.025 17.0624 134.339 17.7328C134.657 18.4033 134.816 19.2101 134.816 20.1533C134.816 21.0965 134.659 21.9052 134.345 22.5794C134.03 23.2499 133.598 23.7669 133.049 24.1306C132.5 24.4904 131.873 24.6703 131.169 24.6703C130.638 24.6703 130.205 24.5813 129.867 24.4033C129.534 24.2253 129.273 24.0169 129.083 23.7783C128.894 23.5396 128.748 23.3275 128.646 23.1419H128.544V27.7726H126.845ZM128.509 20.1362C128.509 20.7499 128.598 21.2878 128.776 21.7499C128.955 22.212 129.212 22.5737 129.549 22.8351C129.886 23.0927 130.299 23.2215 130.788 23.2215C131.295 23.2215 131.72 23.087 132.061 22.8181C132.401 22.5453 132.659 22.176 132.833 21.7101C133.011 21.2442 133.1 20.7196 133.1 20.1362C133.1 19.5605 133.013 19.0434 132.839 18.5851C132.669 18.1268 132.411 17.765 132.066 17.4999C131.725 17.2347 131.299 17.1021 130.788 17.1021C130.295 17.1021 129.879 17.229 129.538 17.4828C129.201 17.7366 128.945 18.0908 128.771 18.5453C128.597 18.9999 128.509 19.5302 128.509 20.1362ZM136.72 27.7726V15.7726H138.379V17.1874H138.521C138.619 17.0056 138.761 16.7953 138.947 16.5567C139.133 16.3181 139.39 16.1097 139.72 15.9317C140.049 15.7499 140.485 15.659 141.026 15.659C141.731 15.659 142.36 15.837 142.913 16.1931C143.466 16.5491 143.9 17.0624 144.214 17.7328C144.532 18.4033 144.691 19.2101 144.691 20.1533C144.691 21.0965 144.534 21.9052 144.22 22.5794C143.905 23.2499 143.473 23.7669 142.924 24.1306C142.375 24.4904 141.748 24.6703 141.044 24.6703C140.513 24.6703 140.08 24.5813 139.742 24.4033C139.409 24.2253 139.148 24.0169 138.958 23.7783C138.769 23.5396 138.623 23.3275 138.521 23.1419H138.419V27.7726H136.72ZM138.384 20.1362C138.384 20.7499 138.473 21.2878 138.651 21.7499C138.83 22.212 139.087 22.5737 139.424 22.8351C139.761 23.0927 140.174 23.2215 140.663 23.2215C141.17 23.2215 141.595 23.087 141.936 22.8181C142.276 22.5453 142.534 22.176 142.708 21.7101C142.886 21.2442 142.975 20.7196 142.975 20.1362C142.975 19.5605 142.888 19.0434 142.714 18.5851C142.544 18.1268 142.286 17.765 141.941 17.4999C141.6 17.2347 141.174 17.1021 140.663 17.1021C140.17 17.1021 139.754 17.229 139.413 17.4828C139.076 17.7366 138.82 18.0908 138.646 18.5453C138.472 18.9999 138.384 19.5302 138.384 20.1362ZM150.271 24.676C149.453 24.676 148.739 24.4885 148.129 24.1135C147.519 23.7385 147.045 23.2139 146.708 22.5396C146.371 21.8654 146.203 21.0775 146.203 20.176C146.203 19.2707 146.371 18.479 146.708 17.801C147.045 17.123 147.519 16.5965 148.129 16.2215C148.739 15.8465 149.453 15.659 150.271 15.659C151.089 15.659 151.803 15.8465 152.413 16.2215C153.023 16.5965 153.496 17.123 153.833 17.801C154.17 18.479 154.339 19.2707 154.339 20.176C154.339 21.0775 154.17 21.8654 153.833 22.5396C153.496 23.2139 153.023 23.7385 152.413 24.1135C151.803 24.4885 151.089 24.676 150.271 24.676ZM150.276 23.2499C150.807 23.2499 151.246 23.1097 151.595 22.8294C151.943 22.5491 152.201 22.176 152.367 21.7101C152.538 21.2442 152.623 20.7309 152.623 20.1703C152.623 19.6135 152.538 19.1021 152.367 18.6362C152.201 18.1665 151.943 17.7896 151.595 17.5056C151.246 17.2215 150.807 17.0794 150.276 17.0794C149.742 17.0794 149.299 17.2215 148.947 17.5056C148.598 17.7896 148.339 18.1665 148.169 18.6362C148.002 19.1021 147.919 19.6135 147.919 20.1703C147.919 20.7309 148.002 21.2442 148.169 21.7101C148.339 22.176 148.598 22.5491 148.947 22.8294C149.299 23.1097 149.742 23.2499 150.276 23.2499ZM156.235 24.4999V15.7726H157.877V17.159H157.968C158.127 16.6893 158.408 16.32 158.809 16.051C159.214 15.7783 159.673 15.6419 160.184 15.6419C160.29 15.6419 160.415 15.6457 160.559 15.6533C160.707 15.6609 160.822 15.6703 160.906 15.6817V17.3067C160.838 17.2878 160.716 17.2669 160.542 17.2442C160.368 17.2177 160.194 17.2044 160.019 17.2044C159.618 17.2044 159.26 17.2896 158.946 17.4601C158.635 17.6268 158.389 17.8597 158.207 18.159C158.025 18.4544 157.934 18.7915 157.934 19.1703V24.4999H156.235ZM166.965 15.7726V17.1362H162.198V15.7726H166.965ZM163.477 13.6817H165.176V21.9374C165.176 22.2669 165.225 22.515 165.323 22.6817C165.422 22.8446 165.549 22.9563 165.704 23.0169C165.863 23.0737 166.035 23.1021 166.221 23.1021C166.357 23.1021 166.477 23.0927 166.579 23.0737C166.681 23.0548 166.761 23.0396 166.818 23.0283L167.124 24.4317C167.026 24.4696 166.886 24.5074 166.704 24.5453C166.522 24.587 166.295 24.6097 166.022 24.6135C165.575 24.6211 165.159 24.5415 164.772 24.3749C164.386 24.2082 164.073 23.9506 163.835 23.6021C163.596 23.2537 163.477 22.8162 163.477 22.2896V13.6817Z" fill="#E7CDCD"/>
<path d="M60.9352 43.4999V31.1362H66.0908C67.0164 31.1362 67.7912 31.267 68.415 31.5286C69.0428 31.7902 69.5137 32.1565 69.8276 32.6274C70.1456 33.0982 70.3046 33.6436 70.3046 34.2634C70.3046 34.7343 70.2059 35.1548 70.0087 35.5251C69.8115 35.8913 69.5399 36.1952 69.1938 36.4367C68.8476 36.6781 68.4472 36.8472 67.9924 36.9438V37.0645C68.4915 37.0887 68.9523 37.2235 69.3749 37.469C69.8015 37.7145 70.1436 38.0566 70.4011 38.4953C70.6587 38.9299 70.7875 39.4451 70.7875 40.0407C70.7875 40.7048 70.6185 41.2984 70.2804 41.8216C69.9423 42.3408 69.4533 42.7513 68.8134 43.0531C68.1735 43.351 67.3968 43.4999 66.4832 43.4999H60.9352ZM63.9235 41.0911H65.7708C66.4188 41.0911 66.8957 40.9684 67.2016 40.7229C67.5115 40.4774 67.6664 40.1353 67.6664 39.6966C67.6664 39.3787 67.592 39.105 67.443 38.8756C67.2941 38.6422 67.0828 38.4631 66.8092 38.3383C66.5355 38.2095 66.2075 38.1451 65.8251 38.1451H63.9235V41.0911ZM63.9235 36.2193H65.5776C65.9036 36.2193 66.1934 36.165 66.447 36.0563C66.7005 35.9477 66.8977 35.7907 67.0386 35.5855C67.1835 35.3802 67.2559 35.1327 67.2559 34.8429C67.2559 34.4284 67.109 34.1024 66.8152 33.8649C66.5214 33.6275 66.125 33.5088 65.6259 33.5088H63.9235V36.2193ZM78.2069 39.4974V34.2271H81.1529V43.4999H78.3397V41.7733H78.2431C78.0379 42.3408 77.6877 42.7915 77.1927 43.1256C76.7017 43.4556 76.1081 43.6206 75.4118 43.6206C74.7799 43.6206 74.2245 43.4757 73.7456 43.186C73.2667 42.8962 72.8944 42.4917 72.6288 41.9725C72.3631 41.4493 72.2283 40.8376 72.2243 40.1373V34.2271H75.1764V39.5578C75.1804 40.0608 75.3132 40.4573 75.5748 40.747C75.8364 41.0368 76.1926 41.1817 76.6433 41.1817C76.9371 41.1817 77.2007 41.1173 77.4342 40.9885C77.6716 40.8557 77.8588 40.6645 77.9956 40.415C78.1365 40.1615 78.2069 39.8556 78.2069 39.4974ZM85.6942 41.067L85.7063 37.5475H86.1168L88.7247 34.2271H92.0692L88.1935 38.9842H87.4147L85.6942 41.067ZM83.0319 43.4999V31.1362H85.984V43.4999H83.0319ZM88.7911 43.4999L86.3643 39.6483L88.3082 37.5535L92.202 43.4999H88.7911ZM95.7879 41.067L95.8 37.5475H96.2105L98.8185 34.2271H102.163L98.2872 38.9842H97.5085L95.7879 41.067ZM93.1257 43.4999V31.1362H96.0777V43.4999H93.1257ZM98.8849 43.4999L96.458 39.6483L98.4019 37.5535L102.296 43.4999H98.8849ZM103.219 43.4999V34.2271H106.171V43.4999H103.219ZM104.698 33.1465C104.284 33.1465 103.928 33.0097 103.63 32.736C103.332 32.4583 103.183 32.1243 103.183 31.7339C103.183 31.3475 103.332 31.0175 103.63 30.7438C103.928 30.4661 104.284 30.3273 104.698 30.3273C105.117 30.3273 105.473 30.4661 105.767 30.7438C106.065 31.0175 106.214 31.3475 106.214 31.7339C106.214 32.1243 106.065 32.4583 105.767 32.736C105.473 33.0097 105.117 33.1465 104.698 33.1465ZM113.284 34.2271V36.4004H107.435V34.2271H113.284ZM108.66 32.0056H111.612V40.584C111.612 40.7651 111.64 40.912 111.697 41.0247C111.757 41.1334 111.844 41.2119 111.956 41.2602C112.069 41.3044 112.204 41.3266 112.361 41.3266C112.474 41.3266 112.592 41.3165 112.717 41.2964C112.846 41.2722 112.942 41.2521 113.007 41.236L113.454 43.3671C113.313 43.4073 113.113 43.4576 112.856 43.518C112.602 43.5784 112.298 43.6166 111.944 43.6327C111.252 43.6649 110.658 43.5844 110.163 43.3912C109.672 43.194 109.296 42.8881 109.034 42.4736C108.777 42.0591 108.652 41.5379 108.66 40.91V32.0056Z" fill="url(#paint2_linear_28_1130)"/>
</g>
</g>
<rect x="1.04951" y="1.04988" width="177.9" height="53.9" rx="6.95" stroke="white" stroke-opacity="0.15" stroke-width="2.1"/>
<defs>
<filter id="filter0_d_28_1130" x="6.28523" y="2.28559" width="53.5709" height="53.5713" filterUnits="userSpaceOnUse" color-interpolation-filters="sRGB">
<feFlood flood-opacity="0" result="BackgroundImageFix"/>
<feColorMatrix in="SourceAlpha" type="matrix" values="0 0 0 0 0 0 0 0 0 0 0 0 0 0 0 0 0 0 127 0" result="hardAlpha"/>
<feOffset/>
<feGaussianBlur stdDeviation="2.85714"/>
<feComposite in2="hardAlpha" operator="out"/>
<feColorMatrix type="matrix" values="0 0 0 0 0 0 0 0 0 0 0 0 0 0 0 0 0 0 0.25 0"/>
<feBlend mode="normal" in2="BackgroundImageFix" result="effect1_dropShadow_28_1130"/>
<feBlend mode="normal" in="SourceGraphic" in2="effect1_dropShadow_28_1130" result="shape"/>
</filter>
<filter id="filter1_d_28_1130" x="54.3995" y="3.89988" width="119.2" height="48.2" filterUnits="userSpaceOnUse" color-interpolation-filters="sRGB">
<feFlood flood-opacity="0" result="BackgroundImageFix"/>
<feColorMatrix in="SourceAlpha" type="matrix" values="0 0 0 0 0 0 0 0 0 0 0 0 0 0 0 0 0 0 127 0" result="hardAlpha"/>
<feOffset/>
<feGaussianBlur stdDeviation="2.8"/>
<feComposite in2="hardAlpha" operator="out"/>
<feColorMatrix type="matrix" values="0 0 0 0 0 0 0 0 0 0 0 0 0 0 0 0 0 0 0.25 0"/>
<feBlend mode="normal" in2="BackgroundImageFix" result="effect1_dropShadow_28_1130"/>
<feBlend mode="normal" in="SourceGraphic" in2="effect1_dropShadow_28_1130" result="shape"/>
</filter>
<linearGradient id="paint0_linear_28_1130" x1="89.9995" y1="-0.00012207" x2="89.9995" y2="55.9999" gradientUnits="userSpaceOnUse">
<stop stop-color="#2C1B1B"/>
<stop offset="1" stop-color="#1F1414"/>
</linearGradient>
<linearGradient id="paint1_linear_28_1130" x1="40.5711" y1="25.1431" x2="40.5711" y2="47.9997" gradientUnits="userSpaceOnUse">
<stop stop-color="#FF0000"/>
<stop offset="1" stop-color="#CC0000"/>
</linearGradient>
<linearGradient id="paint2_linear_28_1130" x1="86.9995" y1="28.4999" x2="86.9995" y2="46.4999" gradientUnits="userSpaceOnUse">
<stop stop-color="white"/>
<stop offset="1" stop-color="#B9B9B9"/>
</linearGradient>
<clipPath id="clip0_28_1130">
<rect x="-0.000488281" y="-0.00012207" width="180" height="56" rx="8" fill="white"/>
</clipPath>
</defs>
</svg>
