<svg width="180" height="56" viewBox="0 0 180 56" fill="none" xmlns="http://www.w3.org/2000/svg">
<g clip-path="url(#clip0_33_88)">
<rect x="-0.000488281" y="-0.000183105" width="180" height="56" rx="8" fill="url(#paint0_linear_33_88)"/>
<g filter="url(#filter0_d_33_88)">
<path fill-rule="evenodd" clip-rule="evenodd" d="M41.7076 25.2207C41.9344 25.5747 42.1608 25.9282 42.4202 26.257C42.4749 26.1274 42.5368 25.9959 42.5994 25.8628C42.7591 25.5235 42.9237 25.1737 42.987 24.8186C43.0335 24.5577 42.9769 24.3021 42.9201 24.0457C42.8747 23.8404 42.8291 23.6345 42.8364 23.4251C42.8579 22.8014 43.1219 22.1545 43.363 21.5638C43.3977 21.4787 43.4319 21.3949 43.4648 21.3124C43.5855 21.0104 43.7656 20.7071 44.0483 20.5307C44.1298 20.4798 44.2239 20.445 44.3182 20.4101C44.4563 20.3589 44.5949 20.3076 44.6951 20.2055C45.0014 19.8937 45.223 19.043 45.2593 18.6154C45.3228 17.8688 45.0333 17.0596 44.7566 16.2859C44.6227 15.9116 44.4918 15.5457 44.4052 15.1992C43.9084 13.21 44.5892 10.8376 46.4869 9.84175C47.8998 9.10031 49.8699 9.36449 50.9439 10.5698C51.7002 11.4185 51.9995 12.4686 51.9995 13.5809C51.9995 14.3315 51.958 15.6235 51.308 16.1449C50.9023 16.4704 50.0846 16.4457 49.8145 15.9618C49.5723 15.528 49.6937 15.0603 49.8161 14.5885C49.9115 14.2205 50.0076 13.85 49.9325 13.491C49.7759 12.7431 49.0106 11.7706 48.1588 11.8865C47.4831 11.9785 46.9554 12.6273 46.7238 13.2213C46.4698 13.8727 46.6899 14.5571 46.8983 15.2051C46.9366 15.3244 46.9746 15.4424 47.0091 15.5588L47.017 15.5852C47.3699 16.7745 47.7048 17.9027 47.5607 19.1548C47.5253 19.4633 47.4143 19.7611 47.3038 20.0573C47.1876 20.3691 47.0721 20.679 47.046 20.9978C47.0314 21.1756 47.0999 21.3519 47.169 21.5298C47.2274 21.6803 47.2863 21.8319 47.2957 21.9867C47.3487 22.856 47.042 23.7258 46.6694 24.5039C46.5008 24.8561 46.2365 25.075 45.9689 25.2967C45.7697 25.4617 45.5686 25.6283 45.4039 25.8525C45.0957 26.2718 44.9029 26.7909 44.7138 27.3001C44.6176 27.5591 44.5223 27.8156 44.4134 28.055C44.3406 28.2149 44.2516 28.3758 44.1617 28.5385C43.9903 28.8485 43.8153 29.1651 43.7417 29.4934C43.6848 29.7476 43.7712 30.0645 43.8505 30.3558C43.8843 30.4798 43.9169 30.5992 43.9365 30.7071C44.0805 31.4982 44.2074 32.3297 44.2264 33.1344C44.3117 36.7355 43.4248 40.4136 40.959 43.1584C40.194 44.01 39.2932 44.7555 38.3084 45.3428C34.6482 47.5258 30.0656 46.5753 26.741 44.2484C25.5894 43.4424 24.6469 42.4672 23.6926 41.4798C23.3675 41.1434 23.041 40.8056 22.7045 40.4726C22.4097 40.181 22.0854 40.0868 21.7525 39.9902C21.5343 39.9269 21.3124 39.8625 21.0929 39.7407C20.499 39.4114 19.8367 38.5409 19.5273 37.9441C19.3886 37.6766 19.3998 37.4023 19.4107 37.1329C19.4201 36.9029 19.4293 36.6764 19.3449 36.4607C19.25 36.2183 19.0667 36.0009 18.884 35.7844C18.748 35.6231 18.6123 35.4623 18.514 35.292C18.0917 34.5604 17.9497 33.7408 17.8917 32.9097C17.8682 32.5744 17.8791 32.2107 17.8902 31.839C17.9263 30.6344 17.9649 29.3457 16.8454 28.6668C15.564 27.8896 14.0073 29.3845 14.1971 30.7071C14.2526 31.0934 14.4357 31.3976 14.6169 31.6986C14.8351 32.0611 15.0505 32.4189 15.0366 32.9097C15.0218 33.4357 14.6589 33.7539 14.1343 33.7551C13.4405 33.7567 13.0075 33.2759 12.661 32.7299C11.9659 31.6342 11.8481 30.1915 12.1701 28.954C12.9239 26.0566 16.7391 24.9619 18.9238 27.0254C20.1603 28.1933 20.2154 29.7193 20.2722 31.2917C20.2738 31.3365 20.2754 31.3814 20.2771 31.4263C20.2824 31.5717 20.2857 31.7124 20.2888 31.8491C20.3108 32.7991 20.3284 33.5602 21.0081 34.3921C21.2319 34.666 21.5225 34.7032 21.826 34.7421C22.0177 34.7667 22.2147 34.7919 22.4032 34.8779C22.8287 35.072 23.1614 35.493 23.4614 35.8726C23.5236 35.9514 23.5845 36.0283 23.6444 36.1011C23.8544 36.3561 24.0703 36.6288 24.1488 36.9552C24.1892 37.1233 24.2045 37.2911 24.2196 37.4568C24.2477 37.7649 24.2751 38.0658 24.4622 38.3487C25.0791 39.2815 25.9874 40.1172 26.8313 40.8418C28.1047 41.9351 29.4517 42.9128 31.0336 43.517C35.0733 45.06 39.0774 42.4308 40.7471 38.7532C41.6743 36.7111 41.7563 34.7416 41.7425 32.55C41.4493 32.8001 41.1947 33.1036 40.9398 33.4075C40.7326 33.6545 40.5251 33.9018 40.2965 34.1209C39.1902 35.1813 37.9633 36.0406 36.5462 36.6344C35.2699 37.1691 33.8654 37.4359 32.4795 37.4034C31.442 37.3791 30.3579 37.1461 29.4069 36.7354C23.627 34.2391 22.4784 25.6316 27.5995 21.8093C28.3545 21.2458 29.1862 20.8014 30.0847 20.5177C31.1925 20.1679 32.3611 20.0089 33.5187 20.1051C35.0176 20.2297 36.4584 20.6576 37.7662 21.4024C39.003 22.1067 40.121 23.0714 40.9993 24.1893C41.2575 24.5179 41.4827 24.8696 41.7076 25.2207ZM29.7233 23.546C30.496 23.0635 31.395 22.783 32.2988 22.681C35.2835 22.3442 38.081 24.4095 39.6636 26.7513C40.0126 27.2677 40.3054 27.8104 40.5782 28.3695C40.5969 28.4079 40.6175 28.448 40.6388 28.4896C40.7482 28.7029 40.8763 28.9527 40.8624 29.1787C40.8494 29.3887 40.7022 29.5926 40.5753 29.7684C40.5545 29.7974 40.5341 29.8256 40.515 29.8529C40.2046 30.297 39.8874 30.7447 39.5346 31.1565C38.0457 32.8941 35.9698 34.5258 33.6092 34.7927C32.7471 34.8902 31.8652 34.8478 31.0337 34.5817C30.3116 34.3505 29.6221 33.9738 29.0455 33.4845C25.8554 30.7776 26.1374 25.7853 29.7233 23.546Z" fill="#FCFCFC"/>
<g opacity="0.7">
<mask id="path-4-outside-1_33_88" maskUnits="userSpaceOnUse" x="26.1433" y="22.143" width="28" height="28" fill="black">
<rect fill="white" x="26.1433" y="22.143" width="28" height="28"/>
<path fill-rule="evenodd" clip-rule="evenodd" d="M31.9579 25.3522C31.679 25.0733 31.2268 25.0733 30.9479 25.3522L29.3532 26.9473C29.0743 27.2263 29.0743 27.6786 29.3532 27.9576L37.9662 36.5729L29.3525 45.1851C29.0736 45.4641 29.0736 45.9163 29.3525 46.1952L30.9476 47.79C31.2265 48.0689 31.6788 48.0689 31.9578 47.79L40.5709 39.1783L49.1808 47.7904C49.4597 48.0694 49.9119 48.0694 50.1908 47.7904L51.7855 46.1953C52.0644 45.9164 52.0644 45.464 51.7855 45.1851L43.1762 36.5735L51.7897 27.9614C52.0686 27.6825 52.0686 27.2303 51.7897 26.9514L50.1947 25.3566C49.9157 25.0777 49.4634 25.0777 49.1844 25.3566L40.5715 33.9681L31.9579 25.3522Z"/>
</mask>
<path fill-rule="evenodd" clip-rule="evenodd" d="M31.9579 25.3522C31.679 25.0733 31.2268 25.0733 30.9479 25.3522L29.3532 26.9473C29.0743 27.2263 29.0743 27.6786 29.3532 27.9576L37.9662 36.5729L29.3525 45.1851C29.0736 45.4641 29.0736 45.9163 29.3525 46.1952L30.9476 47.79C31.2265 48.0689 31.6788 48.0689 31.9578 47.79L40.5709 39.1783L49.1808 47.7904C49.4597 48.0694 49.9119 48.0694 50.1908 47.7904L51.7855 46.1953C52.0644 45.9164 52.0644 45.464 51.7855 45.1851L43.1762 36.5735L51.7897 27.9614C52.0686 27.6825 52.0686 27.2303 51.7897 26.9514L50.1947 25.3566C49.9157 25.0777 49.4634 25.0777 49.1844 25.3566L40.5715 33.9681L31.9579 25.3522Z" fill="url(#paint1_linear_33_88)"/>
<path d="M30.9479 25.3522L32.4633 26.8673L32.4633 26.8673L30.9479 25.3522ZM31.9579 25.3522L30.4425 26.8673L30.4425 26.8673L31.9579 25.3522ZM29.3532 26.9473L27.8378 25.4323L27.8378 25.4323L29.3532 26.9473ZM29.3532 27.9576L27.8378 29.4727L27.8378 29.4727L29.3532 27.9576ZM37.9662 36.5729L39.4813 38.0883L40.9966 36.5733L39.4816 35.0579L37.9662 36.5729ZM29.3525 45.1851L27.8374 43.6698L27.8374 43.6698L29.3525 45.1851ZM29.3525 46.1952L27.8374 47.7106L27.8374 47.7106L29.3525 46.1952ZM30.9476 47.79L32.4627 46.2746L32.4627 46.2746L30.9476 47.79ZM31.9578 47.79L33.4729 49.3053L33.4729 49.3053L31.9578 47.79ZM40.5709 39.1783L42.0863 37.6633L40.5712 36.1478L39.0558 37.663L40.5709 39.1783ZM49.1808 47.7904L50.6962 46.2754L50.6962 46.2754L49.1808 47.7904ZM50.1908 47.7904L48.6753 46.2754L48.6753 46.2754L50.1908 47.7904ZM51.7855 46.1953L50.27 44.6803L50.27 44.6803L51.7855 46.1953ZM51.7855 45.1851L50.27 46.7001L50.27 46.7001L51.7855 45.1851ZM43.1762 36.5735L41.6611 35.0581L40.1458 36.5732L41.6607 38.0885L43.1762 36.5735ZM51.7897 27.9614L53.3048 29.4768L53.3048 29.4768L51.7897 27.9614ZM51.7897 26.9514L53.3048 25.436L53.3048 25.436L51.7897 26.9514ZM50.1947 25.3566L51.7098 23.8413L51.7098 23.8413L50.1947 25.3566ZM49.1844 25.3566L47.6693 23.8413L47.6693 23.8413L49.1844 25.3566ZM40.5715 33.9681L39.056 35.4831L40.5711 36.9986L42.0866 35.4835L40.5715 33.9681ZM32.4633 26.8673C31.9053 27.4254 31.0004 27.4254 30.4425 26.8673L33.4733 23.8372C32.3575 22.7211 30.5482 22.7211 29.4324 23.8372L32.4633 26.8673ZM30.8686 28.4624L32.4633 26.8673L29.4324 23.8372L27.8378 25.4323L30.8686 28.4624ZM30.8686 26.4426C31.4263 27.0004 31.4263 27.9046 30.8686 28.4624L27.8378 25.4323C26.7223 26.5481 26.7223 28.3569 27.8378 29.4727L30.8686 26.4426ZM39.4816 35.0579L30.8686 26.4426L27.8378 29.4727L36.4508 38.088L39.4816 35.0579ZM30.8676 46.7005L39.4813 38.0883L36.4511 35.0576L27.8374 43.6698L30.8676 46.7005ZM30.8676 44.6798C31.4257 45.2378 31.4257 46.1425 30.8676 46.7005L27.8374 43.6698C26.7215 44.7856 26.7215 46.5948 27.8374 47.7106L30.8676 44.6798ZM32.4627 46.2746L30.8676 44.6798L27.8374 47.7106L29.4325 49.3053L32.4627 46.2746ZM30.4427 46.2746C31.0005 45.7169 31.9048 45.7169 32.4627 46.2746L29.4325 49.3053C30.5482 50.4209 32.3571 50.4209 33.4729 49.3053L30.4427 46.2746ZM39.0558 37.663L30.4427 46.2746L33.4729 49.3053L42.086 40.6937L39.0558 37.663ZM50.6962 46.2754L42.0863 37.6633L39.0555 40.6933L47.6653 49.3055L50.6962 46.2754ZM48.6753 46.2754C49.2333 45.7173 50.1382 45.7173 50.6962 46.2754L47.6653 49.3055C48.7811 50.4216 50.5904 50.4216 51.7062 49.3055L48.6753 46.2754ZM50.27 44.6803L48.6753 46.2754L51.7062 49.3055L53.3009 47.7104L50.27 44.6803ZM50.27 46.7001C49.7124 46.1423 49.7124 45.2381 50.27 44.6803L53.3009 47.7104C54.4164 46.5946 54.4164 44.7858 53.3009 43.67L50.27 46.7001ZM41.6607 38.0885L50.27 46.7001L53.3009 43.67L44.6916 35.0585L41.6607 38.0885ZM50.2746 26.4461L41.6611 35.0581L44.6913 38.0889L53.3048 29.4768L50.2746 26.4461ZM50.2746 28.4667C49.7165 27.9088 49.7165 27.004 50.2746 26.4461L53.3048 29.4768C54.4208 28.361 54.4208 26.5518 53.3048 25.436L50.2746 28.4667ZM48.6796 26.872L50.2746 28.4667L53.3048 25.436L51.7098 23.8413L48.6796 26.872ZM50.6995 26.872C50.1417 27.4297 49.2374 27.4297 48.6796 26.872L51.7098 23.8413C50.594 22.7257 48.7851 22.7257 47.6693 23.8413L50.6995 26.872ZM42.0866 35.4835L50.6995 26.872L47.6693 23.8413L39.0564 32.4527L42.0866 35.4835ZM30.4425 26.8673L39.056 35.4831L42.0869 32.4531L33.4733 23.8372L30.4425 26.8673Z" fill="black" mask="url(#path-4-outside-1_33_88)"/>
</g>
</g>
<g filter="url(#filter1_d_33_88)">
<path d="M63.5563 24.4998L60.3291 12.8635H62.1756L64.4427 21.8748H64.5506L66.9086 12.8635H68.7381L71.0961 21.8805H71.2041L73.4654 12.8635H75.3177L72.0847 24.4998H70.3177L67.8688 15.7839H67.7779L65.3291 24.4998H63.5563ZM79.5989 24.6759C78.7808 24.6759 78.0667 24.4884 77.4569 24.1134C76.847 23.7384 76.3736 23.2138 76.0364 22.5396C75.6993 21.8653 75.5308 21.0775 75.5308 20.1759C75.5308 19.2706 75.6993 18.479 76.0364 17.801C76.3736 17.1229 76.847 16.5964 77.4569 16.2214C78.0667 15.8464 78.7808 15.6589 79.5989 15.6589C80.4171 15.6589 81.1311 15.8464 81.741 16.2214C82.3508 16.5964 82.8243 17.1229 83.1614 17.801C83.4986 18.479 83.6671 19.2706 83.6671 20.1759C83.6671 21.0775 83.4986 21.8653 83.1614 22.5396C82.8243 23.2138 82.3508 23.7384 81.741 24.1134C81.1311 24.4884 80.4171 24.6759 79.5989 24.6759ZM79.6046 23.2498C80.1349 23.2498 80.5743 23.1097 80.9228 22.8294C81.2713 22.5491 81.5289 22.1759 81.6955 21.71C81.866 21.2441 81.9512 20.7309 81.9512 20.1703C81.9512 19.6135 81.866 19.1021 81.6955 18.6362C81.5289 18.1665 81.2713 17.7896 80.9228 17.5055C80.5743 17.2214 80.1349 17.0794 79.6046 17.0794C79.0705 17.0794 78.6273 17.2214 78.2751 17.5055C77.9266 17.7896 77.6671 18.1665 77.4967 18.6362C77.33 19.1021 77.2467 19.6135 77.2467 20.1703C77.2467 20.7309 77.33 21.2441 77.4967 21.71C77.6671 22.1759 77.9266 22.5491 78.2751 22.8294C78.6273 23.1097 79.0705 23.2498 79.6046 23.2498ZM87.2623 19.318V24.4998H85.5634V15.7725H87.1941V17.193H87.3021C87.5028 16.7309 87.8172 16.3597 88.2452 16.0794C88.6771 15.7991 89.2206 15.6589 89.8759 15.6589C90.4706 15.6589 90.9915 15.7839 91.4384 16.0339C91.8854 16.2801 92.232 16.6475 92.4782 17.1362C92.7244 17.6248 92.8475 18.229 92.8475 18.9487V24.4998H91.1487V19.1532C91.1487 18.5206 90.9839 18.0263 90.6543 17.6703C90.3248 17.3104 89.8721 17.1305 89.2964 17.1305C88.9024 17.1305 88.5521 17.2157 88.2452 17.3862C87.9422 17.5566 87.7017 17.8066 87.5237 18.1362C87.3494 18.4619 87.2623 18.8559 87.2623 19.318ZM96.5861 12.8635V13.9544C96.5861 14.2763 96.5255 14.6153 96.4043 14.9714C96.2869 15.3237 96.1202 15.6627 95.9043 15.9885C95.6884 16.3142 95.4346 16.5945 95.143 16.8294L94.3021 16.2271C94.5255 15.9013 94.7187 15.5547 94.8816 15.1873C95.0483 14.8199 95.1316 14.4146 95.1316 13.9714V12.8635H96.5861ZM102.637 15.7725V17.1362H97.8702V15.7725H102.637ZM99.1486 13.6816H100.848V21.9373C100.848 22.2669 100.897 22.515 100.995 22.6816C101.094 22.8445 101.221 22.9563 101.376 23.0169C101.535 23.0737 101.707 23.1021 101.893 23.1021C102.029 23.1021 102.149 23.0926 102.251 23.0737C102.353 23.0547 102.433 23.0396 102.49 23.0282L102.796 24.4316C102.698 24.4695 102.558 24.5074 102.376 24.5453C102.194 24.5869 101.967 24.6097 101.694 24.6134C101.247 24.621 100.83 24.5415 100.444 24.3748C100.058 24.2081 99.7452 23.9506 99.5066 23.6021C99.268 23.2536 99.1486 22.8161 99.1486 22.2896V13.6816ZM115.291 17.9032L113.751 18.176C113.687 17.979 113.584 17.7915 113.444 17.6135C113.308 17.4354 113.122 17.2896 112.887 17.176C112.652 17.0623 112.359 17.0055 112.007 17.0055C111.526 17.0055 111.124 17.1135 110.802 17.3294C110.48 17.5415 110.319 17.8161 110.319 18.1532C110.319 18.4449 110.427 18.6797 110.643 18.8578C110.859 19.0358 111.207 19.1816 111.688 19.2953L113.075 19.6134C113.878 19.7991 114.476 20.085 114.87 20.4714C115.264 20.8578 115.461 21.3597 115.461 21.9771C115.461 22.4998 115.31 22.9657 115.007 23.3748C114.707 23.7801 114.289 24.0983 113.751 24.3294C113.217 24.5604 112.598 24.6759 111.893 24.6759C110.916 24.6759 110.118 24.4676 109.501 24.0509C108.883 23.6305 108.505 23.0339 108.365 22.2612L110.007 22.0112C110.109 22.4392 110.319 22.7631 110.637 22.9828C110.955 23.1987 111.37 23.3066 111.882 23.3066C112.438 23.3066 112.883 23.1911 113.217 22.96C113.55 22.7252 113.717 22.4392 113.717 22.1021C113.717 21.8294 113.615 21.6002 113.41 21.4146C113.209 21.229 112.901 21.0888 112.484 20.9941L111.007 20.6703C110.192 20.4847 109.59 20.1892 109.2 19.7839C108.813 19.3786 108.62 18.8653 108.62 18.2441C108.62 17.729 108.764 17.2782 109.052 16.8919C109.34 16.5055 109.738 16.2044 110.245 15.9885C110.753 15.7688 111.334 15.6589 111.99 15.6589C112.933 15.6589 113.675 15.8635 114.217 16.2725C114.758 16.6778 115.116 17.2214 115.291 17.9032ZM122.857 20.8805V15.7725H124.562V24.4998H122.892V22.9884H122.801C122.6 23.4544 122.278 23.8426 121.835 24.1532C121.395 24.46 120.848 24.6134 120.193 24.6134C119.632 24.6134 119.136 24.4903 118.704 24.2441C118.276 23.9941 117.939 23.6248 117.693 23.1362C117.45 22.6475 117.329 22.0434 117.329 21.3237V15.7725H119.028V21.1191C119.028 21.7138 119.193 22.1873 119.522 22.5396C119.852 22.8919 120.28 23.068 120.806 23.068C121.124 23.068 121.441 22.9884 121.755 22.8294C122.073 22.6703 122.337 22.4297 122.545 22.1078C122.757 21.7858 122.861 21.3767 122.857 20.8805ZM126.845 27.7725V15.7725H128.504V17.1873H128.646C128.744 17.0055 128.886 16.7953 129.072 16.5566C129.258 16.318 129.515 16.1097 129.845 15.9316C130.174 15.7498 130.61 15.6589 131.151 15.6589C131.856 15.6589 132.485 15.8369 133.038 16.193C133.591 16.5491 134.025 17.0623 134.339 17.7328C134.657 18.4032 134.816 19.21 134.816 20.1532C134.816 21.0964 134.659 21.9051 134.345 22.5794C134.03 23.2498 133.598 23.7669 133.049 24.1305C132.5 24.4903 131.873 24.6703 131.169 24.6703C130.638 24.6703 130.205 24.5813 129.867 24.4032C129.534 24.2252 129.273 24.0169 129.083 23.7782C128.894 23.5396 128.748 23.3275 128.646 23.1419H128.544V27.7725H126.845ZM128.509 20.1362C128.509 20.7498 128.598 21.2877 128.776 21.7498C128.955 22.2119 129.212 22.5737 129.549 22.835C129.886 23.0926 130.299 23.2214 130.788 23.2214C131.295 23.2214 131.72 23.0869 132.061 22.818C132.401 22.5453 132.659 22.1759 132.833 21.71C133.011 21.2441 133.1 20.7195 133.1 20.1362C133.1 19.5604 133.013 19.0434 132.839 18.585C132.669 18.1267 132.411 17.765 132.066 17.4998C131.725 17.2347 131.299 17.1021 130.788 17.1021C130.295 17.1021 129.879 17.229 129.538 17.4828C129.201 17.7366 128.945 18.0907 128.771 18.5453C128.597 18.9998 128.509 19.5301 128.509 20.1362ZM136.72 27.7725V15.7725H138.379V17.1873H138.521C138.619 17.0055 138.761 16.7953 138.947 16.5566C139.133 16.318 139.39 16.1097 139.72 15.9316C140.049 15.7498 140.485 15.6589 141.026 15.6589C141.731 15.6589 142.36 15.8369 142.913 16.193C143.466 16.5491 143.9 17.0623 144.214 17.7328C144.532 18.4032 144.691 19.21 144.691 20.1532C144.691 21.0964 144.534 21.9051 144.22 22.5794C143.905 23.2498 143.473 23.7669 142.924 24.1305C142.375 24.4903 141.748 24.6703 141.044 24.6703C140.513 24.6703 140.08 24.5813 139.742 24.4032C139.409 24.2252 139.148 24.0169 138.958 23.7782C138.769 23.5396 138.623 23.3275 138.521 23.1419H138.419V27.7725H136.72ZM138.384 20.1362C138.384 20.7498 138.473 21.2877 138.651 21.7498C138.83 22.2119 139.087 22.5737 139.424 22.835C139.761 23.0926 140.174 23.2214 140.663 23.2214C141.17 23.2214 141.595 23.0869 141.936 22.818C142.276 22.5453 142.534 22.1759 142.708 21.71C142.886 21.2441 142.975 20.7195 142.975 20.1362C142.975 19.5604 142.888 19.0434 142.714 18.585C142.544 18.1267 142.286 17.765 141.941 17.4998C141.6 17.2347 141.174 17.1021 140.663 17.1021C140.17 17.1021 139.754 17.229 139.413 17.4828C139.076 17.7366 138.82 18.0907 138.646 18.5453C138.472 18.9998 138.384 19.5301 138.384 20.1362ZM150.271 24.6759C149.453 24.6759 148.739 24.4884 148.129 24.1134C147.519 23.7384 147.045 23.2138 146.708 22.5396C146.371 21.8653 146.203 21.0775 146.203 20.1759C146.203 19.2706 146.371 18.479 146.708 17.801C147.045 17.1229 147.519 16.5964 148.129 16.2214C148.739 15.8464 149.453 15.6589 150.271 15.6589C151.089 15.6589 151.803 15.8464 152.413 16.2214C153.023 16.5964 153.496 17.1229 153.833 17.801C154.17 18.479 154.339 19.2706 154.339 20.1759C154.339 21.0775 154.17 21.8653 153.833 22.5396C153.496 23.2138 153.023 23.7384 152.413 24.1134C151.803 24.4884 151.089 24.6759 150.271 24.6759ZM150.276 23.2498C150.807 23.2498 151.246 23.1097 151.595 22.8294C151.943 22.5491 152.201 22.1759 152.367 21.71C152.538 21.2441 152.623 20.7309 152.623 20.1703C152.623 19.6135 152.538 19.1021 152.367 18.6362C152.201 18.1665 151.943 17.7896 151.595 17.5055C151.246 17.2214 150.807 17.0794 150.276 17.0794C149.742 17.0794 149.299 17.2214 148.947 17.5055C148.598 17.7896 148.339 18.1665 148.169 18.6362C148.002 19.1021 147.919 19.6135 147.919 20.1703C147.919 20.7309 148.002 21.2441 148.169 21.71C148.339 22.1759 148.598 22.5491 148.947 22.8294C149.299 23.1097 149.742 23.2498 150.276 23.2498ZM156.235 24.4998V15.7725H157.877V17.1589H157.968C158.127 16.6892 158.408 16.3199 158.809 16.051C159.214 15.7782 159.673 15.6419 160.184 15.6419C160.29 15.6419 160.415 15.6456 160.559 15.6532C160.707 15.6608 160.822 15.6703 160.906 15.6816V17.3066C160.838 17.2877 160.716 17.2669 160.542 17.2441C160.368 17.2176 160.194 17.2044 160.019 17.2044C159.618 17.2044 159.26 17.2896 158.946 17.46C158.635 17.6267 158.389 17.8597 158.207 18.1589C158.025 18.4544 157.934 18.7915 157.934 19.1703V24.4998H156.235ZM166.965 15.7725V17.1362H162.198V15.7725H166.965ZM163.477 13.6816H165.176V21.9373C165.176 22.2669 165.225 22.515 165.323 22.6816C165.422 22.8445 165.549 22.9563 165.704 23.0169C165.863 23.0737 166.035 23.1021 166.221 23.1021C166.357 23.1021 166.477 23.0926 166.579 23.0737C166.681 23.0547 166.761 23.0396 166.818 23.0282L167.124 24.4316C167.026 24.4695 166.886 24.5074 166.704 24.5453C166.522 24.5869 166.295 24.6097 166.022 24.6134C165.575 24.621 165.159 24.5415 164.772 24.3748C164.386 24.2081 164.073 23.9506 163.835 23.6021C163.596 23.2536 163.477 22.8161 163.477 22.2896V13.6816Z" fill="#E7CDCD"/>
<path d="M60.9352 43.4998V31.1362H66.0908C67.0164 31.1362 67.7912 31.267 68.415 31.5286C69.0428 31.7902 69.5137 32.1564 69.8276 32.6273C70.1456 33.0982 70.3046 33.6435 70.3046 34.2633C70.3046 34.7342 70.2059 35.1548 70.0087 35.525C69.8115 35.8913 69.5399 36.1951 69.1938 36.4366C68.8476 36.6781 68.4472 36.8471 67.9924 36.9437V37.0644C68.4915 37.0886 68.9523 37.2234 69.3749 37.4689C69.8015 37.7144 70.1436 38.0565 70.4011 38.4952C70.6587 38.9299 70.7875 39.445 70.7875 40.0407C70.7875 40.7047 70.6185 41.2983 70.2804 41.8215C69.9423 42.3407 69.4533 42.7512 68.8134 43.0531C68.1735 43.3509 67.3968 43.4998 66.4832 43.4998H60.9352ZM63.9235 41.0911H65.7708C66.4188 41.0911 66.8957 40.9683 67.2016 40.7228C67.5115 40.4773 67.6664 40.1352 67.6664 39.6965C67.6664 39.3786 67.592 39.1049 67.443 38.8755C67.2941 38.6421 67.0828 38.463 66.8092 38.3382C66.5355 38.2094 66.2075 38.1451 65.8251 38.1451H63.9235V41.0911ZM63.9235 36.2193H65.5776C65.9036 36.2193 66.1934 36.1649 66.447 36.0563C66.7005 35.9476 66.8977 35.7907 67.0386 35.5854C67.1835 35.3801 67.2559 35.1326 67.2559 34.8429C67.2559 34.4283 67.109 34.1023 66.8152 33.8649C66.5214 33.6274 66.125 33.5087 65.6259 33.5087H63.9235V36.2193ZM78.2069 39.4973V34.2271H81.1529V43.4998H78.3397V41.7733H78.2431C78.0379 42.3407 77.6877 42.7915 77.1927 43.1255C76.7017 43.4555 76.1081 43.6206 75.4118 43.6206C74.7799 43.6206 74.2245 43.4757 73.7456 43.1859C73.2667 42.8961 72.8944 42.4916 72.6288 41.9725C72.3631 41.4493 72.2283 40.8375 72.2243 40.1372V34.2271H75.1764V39.5577C75.1804 40.0608 75.3132 40.4572 75.5748 40.747C75.8364 41.0367 76.1926 41.1816 76.6433 41.1816C76.9371 41.1816 77.2007 41.1172 77.4342 40.9884C77.6716 40.8556 77.8588 40.6645 77.9956 40.4149C78.1365 40.1614 78.2069 39.8555 78.2069 39.4973ZM85.984 38.2115V43.4998H83.0319V34.2271H85.8391V35.9295H85.9417C86.147 35.362 86.4971 34.9173 86.9921 34.5953C87.4872 34.2693 88.0768 34.1063 88.761 34.1063C89.4129 34.1063 89.9784 34.2532 90.4573 34.547C90.9403 34.8368 91.3146 35.2433 91.5802 35.7665C91.8499 36.2857 91.9827 36.8934 91.9786 37.5897V43.4998H89.0266V38.1692C89.0306 37.6541 88.8998 37.2516 88.6342 36.9618C88.3726 36.672 88.0084 36.5272 87.5415 36.5272C87.2316 36.5272 86.9579 36.5956 86.7205 36.7324C86.487 36.8652 86.3059 37.0564 86.1771 37.3059C86.0524 37.5554 85.988 37.8573 85.984 38.2115ZM98.1288 47.1703C97.2474 47.1703 96.4928 47.0475 95.8649 46.802C95.2371 46.5565 94.7441 46.2205 94.3859 45.7938C94.0277 45.3672 93.8124 44.8843 93.7399 44.345L96.535 44.188C96.5873 44.3772 96.6839 44.5422 96.8248 44.6831C96.9697 44.8239 97.1568 44.9326 97.3862 45.009C97.6196 45.0855 97.8933 45.1237 98.2072 45.1237C98.7023 45.1237 99.1108 45.003 99.4327 44.7615C99.7587 44.5241 99.9217 44.1075 99.9217 43.5119V41.8819H99.8191C99.7024 42.1677 99.5253 42.4232 99.2879 42.6486C99.0504 42.874 98.7546 43.0511 98.4004 43.1799C98.0503 43.3086 97.6478 43.373 97.193 43.373C96.5169 43.373 95.8971 43.2161 95.3337 42.9022C94.7742 42.5842 94.3255 42.0932 93.9874 41.4291C93.6534 40.7611 93.4864 39.9018 93.4864 38.8514C93.4864 37.7688 93.6594 36.8773 94.0055 36.177C94.3517 35.4727 94.8044 34.9515 95.3638 34.6135C95.9273 34.2754 96.533 34.1063 97.181 34.1063C97.6679 34.1063 98.0845 34.1909 98.4306 34.3599C98.7808 34.5249 99.0685 34.7382 99.2939 34.9998C99.5193 35.2614 99.6903 35.5331 99.807 35.8148H99.8915V34.2271H102.832V43.536C102.832 44.3208 102.634 44.9829 102.24 45.5222C101.845 46.0615 101.294 46.47 100.586 46.7477C99.8775 47.0294 99.0584 47.1703 98.1288 47.1703ZM98.2193 41.2239C98.5775 41.2239 98.8834 41.1293 99.1369 40.9402C99.3905 40.751 99.5857 40.4793 99.7225 40.1252C99.8593 39.771 99.9278 39.3464 99.9278 38.8514C99.9278 38.3483 99.8593 37.9157 99.7225 37.5534C99.5897 37.1872 99.3945 36.9055 99.1369 36.7083C98.8834 36.5111 98.5775 36.4125 98.2193 36.4125C97.8531 36.4125 97.5432 36.5131 97.2896 36.7143C97.0361 36.9155 96.8429 37.1993 96.7101 37.5655C96.5813 37.9277 96.5169 38.3563 96.5169 38.8514C96.5169 39.3464 96.5833 39.771 96.7161 40.1252C96.8489 40.4793 97.0401 40.751 97.2896 40.9402C97.5432 41.1293 97.8531 41.2239 98.2193 41.2239ZM109.048 43.6749C108.078 43.6749 107.241 43.4837 106.537 43.1014C105.836 42.715 105.297 42.1657 104.919 41.4533C104.545 40.7369 104.357 39.8857 104.357 38.8997C104.357 37.9418 104.547 37.1047 104.925 36.3883C105.303 35.6679 105.836 35.1085 106.525 34.71C107.213 34.3076 108.024 34.1063 108.958 34.1063C109.618 34.1063 110.221 34.209 110.769 34.4142C111.316 34.6195 111.789 34.9233 112.187 35.3258C112.586 35.7283 112.896 36.2253 113.117 36.8169C113.338 37.4045 113.449 38.0786 113.449 38.8393V39.5758H105.39V37.8613H110.702C110.698 37.5474 110.624 37.2677 110.479 37.0222C110.334 36.7767 110.135 36.5855 109.881 36.4487C109.632 36.3078 109.344 36.2374 109.018 36.2374C108.688 36.2374 108.392 36.3118 108.13 36.4608C107.869 36.6056 107.662 36.8049 107.509 37.0584C107.356 37.3079 107.275 37.5917 107.267 37.9096V39.6543C107.267 40.0326 107.342 40.3646 107.491 40.6504C107.639 40.9321 107.851 41.1514 108.124 41.3084C108.398 41.4654 108.724 41.5438 109.102 41.5438C109.364 41.5438 109.601 41.5076 109.815 41.4352C110.028 41.3627 110.211 41.2561 110.364 41.1152C110.517 40.9744 110.632 40.8013 110.708 40.596L113.419 40.6745C113.306 41.2822 113.059 41.8115 112.676 42.2622C112.298 42.709 111.801 43.0571 111.185 43.3066C110.569 43.5521 109.857 43.6749 109.048 43.6749ZM119.291 43.6749C118.321 43.6749 117.484 43.4837 116.78 43.1014C116.08 42.715 115.54 42.1657 115.162 41.4533C114.788 40.7369 114.601 39.8857 114.601 38.8997C114.601 37.9418 114.79 37.1047 115.168 36.3883C115.546 35.6679 116.08 35.1085 116.768 34.71C117.456 34.3076 118.267 34.1063 119.201 34.1063C119.861 34.1063 120.464 34.209 121.012 34.4142C121.559 34.6195 122.032 34.9233 122.43 35.3258C122.829 35.7283 123.139 36.2253 123.36 36.8169C123.581 37.4045 123.692 38.0786 123.692 38.8393V39.5758H115.633V37.8613H120.945C120.941 37.5474 120.867 37.2677 120.722 37.0222C120.577 36.7767 120.378 36.5855 120.124 36.4487C119.875 36.3078 119.587 36.2374 119.261 36.2374C118.931 36.2374 118.635 36.3118 118.374 36.4608C118.112 36.6056 117.905 36.8049 117.752 37.0584C117.599 37.3079 117.518 37.5917 117.51 37.9096V39.6543C117.51 40.0326 117.585 40.3646 117.734 40.6504C117.883 40.9321 118.094 41.1514 118.368 41.3084C118.641 41.4654 118.967 41.5438 119.346 41.5438C119.607 41.5438 119.845 41.5076 120.058 41.4352C120.271 41.3627 120.454 41.2561 120.607 41.1152C120.76 40.9744 120.875 40.8013 120.951 40.596L123.662 40.6745C123.549 41.2822 123.302 41.8115 122.919 42.2622C122.541 42.709 122.044 43.0571 121.428 43.3066C120.813 43.5521 120.1 43.6749 119.291 43.6749ZM136.423 35.6156H133.404C133.364 35.3057 133.281 35.026 133.157 34.7764C133.032 34.5269 132.867 34.3136 132.662 34.1365C132.456 33.9595 132.213 33.8246 131.931 33.7321C131.653 33.6355 131.345 33.5872 131.007 33.5872C130.408 33.5872 129.891 33.7341 129.456 34.0279C129.025 34.3217 128.693 34.7463 128.46 35.3017C128.23 35.8571 128.116 36.5292 128.116 37.318C128.116 38.139 128.232 38.8272 128.466 39.3826C128.703 39.934 129.035 40.3505 129.462 40.6323C129.893 40.91 130.402 41.0488 130.989 41.0488C131.319 41.0488 131.619 41.0066 131.889 40.922C132.162 40.8375 132.402 40.7148 132.607 40.5538C132.816 40.3888 132.988 40.1896 133.12 39.9561C133.257 39.7187 133.352 39.451 133.404 39.1532L136.423 39.1713C136.37 39.7187 136.211 40.258 135.946 40.7892C135.684 41.3205 135.324 41.8054 134.865 42.2441C134.406 42.6788 133.847 43.0249 133.187 43.2825C132.531 43.5401 131.778 43.6688 130.929 43.6688C129.81 43.6688 128.808 43.4233 127.923 42.9323C127.041 42.4373 126.345 41.7169 125.834 40.7711C125.323 39.8253 125.067 38.6743 125.067 37.318C125.067 35.9577 125.327 34.8046 125.846 33.8588C126.365 32.913 127.067 32.1947 127.953 31.7037C128.838 31.2126 129.83 30.9671 130.929 30.9671C131.677 30.9671 132.37 31.0718 133.006 31.2811C133.642 31.4863 134.201 31.7882 134.684 32.1866C135.167 32.581 135.559 33.066 135.861 33.6415C136.163 34.217 136.35 34.8751 136.423 35.6156ZM142.461 43.6749C141.487 43.6749 140.65 43.4757 139.95 43.0772C139.253 42.6748 138.716 42.1153 138.338 41.399C137.963 40.6786 137.776 39.8434 137.776 38.8936C137.776 37.9398 137.963 37.1047 138.338 36.3883C138.716 35.6679 139.253 35.1085 139.95 34.71C140.65 34.3076 141.487 34.1063 142.461 34.1063C143.435 34.1063 144.27 34.3076 144.966 34.71C145.667 35.1085 146.204 35.6679 146.578 36.3883C146.956 37.1047 147.146 37.9398 147.146 38.8936C147.146 39.8434 146.956 40.6786 146.578 41.399C146.204 42.1153 145.667 42.6748 144.966 43.0772C144.27 43.4757 143.435 43.6749 142.461 43.6749ZM142.479 41.4473C142.833 41.4473 143.133 41.3386 143.379 41.1213C143.624 40.9039 143.811 40.6021 143.94 40.2157C144.073 39.8294 144.139 39.3826 144.139 38.8755C144.139 38.3604 144.073 37.9096 143.94 37.5233C143.811 37.1369 143.624 36.835 143.379 36.6177C143.133 36.4004 142.833 36.2917 142.479 36.2917C142.113 36.2917 141.803 36.4004 141.549 36.6177C141.3 36.835 141.109 37.1369 140.976 37.5233C140.847 37.9096 140.783 38.3604 140.783 38.8755C140.783 39.3826 140.847 39.8294 140.976 40.2157C141.109 40.6021 141.3 40.9039 141.549 41.1213C141.803 41.3386 142.113 41.4473 142.479 41.4473ZM148.658 43.4998V34.2271H151.525V35.9174H151.622C151.791 35.3057 152.067 34.8509 152.449 34.5531C152.831 34.2512 153.276 34.1003 153.783 34.1003C153.92 34.1003 154.061 34.1104 154.206 34.1305C154.351 34.1466 154.486 34.1728 154.61 34.209V36.7747C154.469 36.7264 154.284 36.6881 154.055 36.66C153.83 36.6318 153.628 36.6177 153.451 36.6177C153.101 36.6177 152.785 36.6962 152.503 36.8532C152.226 37.0061 152.006 37.2214 151.845 37.4991C151.688 37.7728 151.61 38.0947 151.61 38.465V43.4998H148.658ZM158.718 43.6326C158.034 43.6326 157.412 43.4555 156.853 43.1014C156.294 42.7472 155.847 42.216 155.513 41.5076C155.179 40.7993 155.012 39.9199 155.012 38.8695C155.012 37.7788 155.185 36.8813 155.531 36.177C155.877 35.4727 156.33 34.9515 156.889 34.6135C157.453 34.2754 158.058 34.1063 158.706 34.1063C159.193 34.1063 159.61 34.1909 159.956 34.3599C160.302 34.5249 160.588 34.7382 160.813 34.9998C161.039 35.2614 161.21 35.5331 161.326 35.8148H161.387V31.1362H164.339V43.4998H161.417V41.9966H161.326C161.202 42.2824 161.025 42.55 160.795 42.7995C160.566 43.0491 160.278 43.2503 159.932 43.4032C159.59 43.5562 159.185 43.6326 158.718 43.6326ZM159.745 41.3326C160.103 41.3326 160.409 41.2319 160.662 41.0307C160.916 40.8255 161.111 40.5377 161.248 40.1674C161.385 39.7972 161.453 39.3625 161.453 38.8635C161.453 38.3563 161.385 37.9197 161.248 37.5534C161.115 37.1872 160.92 36.9055 160.662 36.7083C160.409 36.5111 160.103 36.4125 159.745 36.4125C159.378 36.4125 159.069 36.5131 158.815 36.7143C158.561 36.9155 158.368 37.1993 158.235 37.5655C158.107 37.9318 158.042 38.3644 158.042 38.8635C158.042 39.3625 158.109 39.7972 158.241 40.1674C158.374 40.5377 158.565 40.8255 158.815 41.0307C159.069 41.2319 159.378 41.3326 159.745 41.3326Z" fill="white"/>
</g>
</g>
<rect x="1.04951" y="1.04982" width="177.9" height="53.9" rx="6.95" stroke="white" stroke-opacity="0.15" stroke-width="2.1"/>
<defs>
<filter id="filter0_d_33_88" x="6.28523" y="2.28553" width="53.5709" height="53.5713" filterUnits="userSpaceOnUse" color-interpolation-filters="sRGB">
<feFlood flood-opacity="0" result="BackgroundImageFix"/>
<feColorMatrix in="SourceAlpha" type="matrix" values="0 0 0 0 0 0 0 0 0 0 0 0 0 0 0 0 0 0 127 0" result="hardAlpha"/>
<feOffset/>
<feGaussianBlur stdDeviation="2.85714"/>
<feComposite in2="hardAlpha" operator="out"/>
<feColorMatrix type="matrix" values="0 0 0 0 0 0 0 0 0 0 0 0 0 0 0 0 0 0 0.25 0"/>
<feBlend mode="normal" in2="BackgroundImageFix" result="effect1_dropShadow_33_88"/>
<feBlend mode="normal" in="SourceGraphic" in2="effect1_dropShadow_33_88" result="shape"/>
</filter>
<filter id="filter1_d_33_88" x="54.3995" y="3.89982" width="119.2" height="48.8705" filterUnits="userSpaceOnUse" color-interpolation-filters="sRGB">
<feFlood flood-opacity="0" result="BackgroundImageFix"/>
<feColorMatrix in="SourceAlpha" type="matrix" values="0 0 0 0 0 0 0 0 0 0 0 0 0 0 0 0 0 0 127 0" result="hardAlpha"/>
<feOffset/>
<feGaussianBlur stdDeviation="2.8"/>
<feComposite in2="hardAlpha" operator="out"/>
<feColorMatrix type="matrix" values="0 0 0 0 0 0 0 0 0 0 0 0 0 0 0 0 0 0 0.25 0"/>
<feBlend mode="normal" in2="BackgroundImageFix" result="effect1_dropShadow_33_88"/>
<feBlend mode="normal" in="SourceGraphic" in2="effect1_dropShadow_33_88" result="shape"/>
</filter>
<linearGradient id="paint0_linear_33_88" x1="89.9995" y1="-0.000183105" x2="89.9995" y2="55.9998" gradientUnits="userSpaceOnUse">
<stop stop-color="#2C1B1B"/>
<stop offset="1" stop-color="#1F1414"/>
</linearGradient>
<linearGradient id="paint1_linear_33_88" x1="40.5711" y1="25.143" x2="40.5711" y2="47.9997" gradientUnits="userSpaceOnUse">
<stop stop-color="#FF0000"/>
<stop offset="1" stop-color="#CC0000"/>
</linearGradient>
<clipPath id="clip0_33_88">
<rect x="-0.000488281" y="-0.000183105" width="180" height="56" rx="8" fill="white"/>
</clipPath>
</defs>
</svg>
