<svg width="184" height="56" viewBox="0 0 184 56" fill="none" xmlns="http://www.w3.org/2000/svg">
<g clip-path="url(#clip0_28_1091)">
<rect x="-0.000488281" y="-1.52588e-05" width="184" height="56" rx="8" fill="url(#paint0_linear_28_1091)"/>
<g filter="url(#filter0_d_28_1091)">
<path d="M48.1813 20.5225L30.9995 19.6667H51.9995V18H28.2722V21.5135V24.3063C28.2722 24.3513 27.5904 20.2072 27.4086 19.036H25.545V22.0991V24.8919C25.545 24.9369 24.7268 19.982 24.6813 19.3513C19.9541 19.3513 11.9995 19.3513 11.9995 19.3513C12.8631 20.0721 17.6359 24.1261 21.045 25.7928C22.7268 26.6036 24.8177 26.6486 26.6813 26.6937C27.6359 26.7387 28.5904 26.7838 29.3177 27.5045C30.3631 28.4955 30.5904 30.0721 29.6813 31.2432C28.8177 32.4144 26.3631 32.6847 26.3631 32.6847L24.2722 35.1171V38H28.9541L29.0904 35.1621L33.1359 32.3243C32.7268 32.6847 31.7268 33.5856 30.3177 35.7928C29.9995 36.2883 29.7268 36.8288 29.545 37.3694C30.545 36.5135 32.6359 35.9279 35.0904 35.9279C37.4995 35.9279 39.5904 36.5135 40.5904 37.3694C40.4086 36.8288 40.1359 36.2883 39.8177 35.7928C38.3631 33.5856 37.4086 32.6847 36.9995 32.3243L41.045 35.1621L41.1813 38H45.545V35.1171L43.4995 32.6396C43.4995 32.6396 40.4541 32.4594 39.6813 31.1982C37.3177 27.6847 40.545 22.1892 48.1813 20.5225Z" fill="#DFA86A"/>
<g opacity="0.7">
<mask id="path-4-outside-1_28_1091" maskUnits="userSpaceOnUse" x="26.1433" y="22.1431" width="28" height="28" fill="black">
<rect fill="white" x="26.1433" y="22.1431" width="28" height="28"/>
<path fill-rule="evenodd" clip-rule="evenodd" d="M31.9579 25.3523C31.679 25.0734 31.2268 25.0734 30.9479 25.3523L29.3532 26.9474C29.0743 27.2264 29.0743 27.6787 29.3532 27.9577L37.9662 36.573L29.3526 45.1853C29.0736 45.4642 29.0736 45.9164 29.3526 46.1953L30.9476 47.7901C31.2266 48.069 31.6789 48.069 31.9578 47.7901L40.5709 39.1784L49.1808 47.7905C49.4597 48.0695 49.9119 48.0695 50.1908 47.7905L51.7855 46.1954C52.0644 45.9165 52.0644 45.4641 51.7855 45.1851L43.1762 36.5736L51.7897 27.9616C52.0687 27.6826 52.0687 27.2304 51.7897 26.9515L50.1947 25.3567C49.9157 25.0778 49.4634 25.0778 49.1844 25.3567L40.5715 33.9682L31.9579 25.3523Z"/>
</mask>
<path fill-rule="evenodd" clip-rule="evenodd" d="M31.9579 25.3523C31.679 25.0734 31.2268 25.0734 30.9479 25.3523L29.3532 26.9474C29.0743 27.2264 29.0743 27.6787 29.3532 27.9577L37.9662 36.573L29.3526 45.1853C29.0736 45.4642 29.0736 45.9164 29.3526 46.1953L30.9476 47.7901C31.2266 48.069 31.6789 48.069 31.9578 47.7901L40.5709 39.1784L49.1808 47.7905C49.4597 48.0695 49.9119 48.0695 50.1908 47.7905L51.7855 46.1954C52.0644 45.9165 52.0644 45.4641 51.7855 45.1851L43.1762 36.5736L51.7897 27.9616C52.0687 27.6826 52.0687 27.2304 51.7897 26.9515L50.1947 25.3567C49.9157 25.0778 49.4634 25.0778 49.1844 25.3567L40.5715 33.9682L31.9579 25.3523Z" fill="url(#paint1_linear_28_1091)"/>
<path d="M30.9479 25.3523L32.4633 26.8674L32.4633 26.8674L30.9479 25.3523ZM31.9579 25.3523L30.4425 26.8674L30.4425 26.8674L31.9579 25.3523ZM29.3532 26.9474L27.8378 25.4324L27.8378 25.4324L29.3532 26.9474ZM29.3532 27.9577L30.8686 26.4427L30.8686 26.4427L29.3532 27.9577ZM37.9662 36.573L39.4813 38.0884L40.9966 36.5734L39.4816 35.058L37.9662 36.573ZM29.3525 45.1853L27.8374 43.6699L27.8374 43.6699L29.3525 45.1853ZM29.3525 46.1953L27.8374 47.7107L27.8374 47.7107L29.3525 46.1953ZM30.9476 47.7901L32.4627 46.2747L32.4627 46.2747L30.9476 47.7901ZM31.9578 47.7901L33.4729 49.3054L33.4729 49.3054L31.9578 47.7901ZM40.5709 39.1784L42.0863 37.6634L40.5712 36.1479L39.0558 37.6631L40.5709 39.1784ZM49.1808 47.7905L50.6962 46.2755L50.6962 46.2755L49.1808 47.7905ZM50.1908 47.7905L48.6753 46.2755L48.6753 46.2755L50.1908 47.7905ZM51.7855 46.1954L50.27 44.6804L50.27 44.6804L51.7855 46.1954ZM51.7855 45.1851L50.27 46.7002L50.27 46.7002L51.7855 45.1851ZM43.1762 36.5736L41.6611 35.0582L40.1458 36.5733L41.6608 38.0886L43.1762 36.5736ZM51.7897 27.9616L53.3048 29.4769L53.3048 29.4769L51.7897 27.9616ZM51.7897 26.9515L53.3048 25.4361L53.3048 25.4361L51.7897 26.9515ZM50.1947 25.3567L51.7098 23.8414L51.7098 23.8414L50.1947 25.3567ZM49.1844 25.3567L47.6693 23.8414L47.6693 23.8414L49.1844 25.3567ZM40.5715 33.9682L39.0561 35.4832L40.5712 36.9987L42.0866 35.4836L40.5715 33.9682ZM32.4633 26.8674C31.9053 27.4255 31.0004 27.4255 30.4425 26.8674L33.4733 23.8373C32.3575 22.7212 30.5482 22.7212 29.4324 23.8373L32.4633 26.8674ZM30.8686 28.4625L32.4633 26.8674L29.4324 23.8373L27.8378 25.4324L30.8686 28.4625ZM30.8686 26.4427C31.4263 27.0005 31.4263 27.9047 30.8686 28.4625L27.8378 25.4324C26.7223 26.5482 26.7223 28.357 27.8378 29.4727L30.8686 26.4427ZM39.4816 35.058L30.8686 26.4427L27.8378 29.4727L36.4508 38.0881L39.4816 35.058ZM30.8676 46.7006L39.4813 38.0884L36.4511 35.0577L27.8374 43.6699L30.8676 46.7006ZM30.8676 44.68C31.4257 45.2379 31.4257 46.1427 30.8676 46.7006L27.8374 43.6699C26.7215 44.7857 26.7215 46.5949 27.8374 47.7107L30.8676 44.68ZM32.4627 46.2747L30.8676 44.68L27.8374 47.7107L29.4325 49.3054L32.4627 46.2747ZM30.4427 46.2747C31.0005 45.717 31.9048 45.717 32.4627 46.2747L29.4325 49.3054C30.5482 50.421 32.3571 50.421 33.4729 49.3054L30.4427 46.2747ZM39.0558 37.6631L30.4427 46.2747L33.4729 49.3054L42.086 40.6938L39.0558 37.6631ZM50.6962 46.2755L42.0863 37.6634L39.0555 40.6934L47.6653 49.3056L50.6962 46.2755ZM48.6753 46.2755C49.2333 45.7174 50.1382 45.7174 50.6962 46.2755L47.6653 49.3056C48.7811 50.4216 50.5904 50.4216 51.7062 49.3056L48.6753 46.2755ZM50.27 44.6804L48.6753 46.2755L51.7062 49.3056L53.3009 47.7105L50.27 44.6804ZM50.27 46.7002C49.7124 46.1424 49.7124 45.2382 50.27 44.6804L53.3009 47.7105C54.4164 46.5947 54.4164 44.7859 53.3009 43.6701L50.27 46.7002ZM41.6608 38.0886L50.27 46.7002L53.3009 43.6701L44.6916 35.0586L41.6608 38.0886ZM50.2746 26.4462L41.6611 35.0582L44.6913 38.089L53.3048 29.4769L50.2746 26.4462ZM50.2746 28.4668C49.7165 27.9089 49.7165 27.0041 50.2746 26.4462L53.3048 29.4769C54.4208 28.3611 54.4208 26.5519 53.3048 25.4361L50.2746 28.4668ZM48.6796 26.8721L50.2746 28.4668L53.3048 25.4361L51.7098 23.8414L48.6796 26.8721ZM50.6995 26.8721C50.1417 27.4298 49.2374 27.4298 48.6796 26.8721L51.7098 23.8414C50.594 22.7258 48.7851 22.7258 47.6693 23.8414L50.6995 26.8721ZM42.0866 35.4836L50.6995 26.8721L47.6693 23.8414L39.0564 32.4529L42.0866 35.4836ZM30.4425 26.8674L39.0561 35.4832L42.0869 32.4532L33.4733 23.8373L30.4425 26.8674Z" fill="black" mask="url(#path-4-outside-1_28_1091)"/>
</g>
</g>
<g filter="url(#filter1_d_28_1091)">
<path d="M67.5563 24.5L64.3291 12.8636H66.1756L68.4427 21.875H68.5506L70.9086 12.8636H72.7381L75.0961 21.8807H75.2041L77.4654 12.8636H79.3177L76.0847 24.5H74.3177L71.8688 15.7841H71.7779L69.3291 24.5H67.5563ZM83.5989 24.6761C82.7808 24.6761 82.0667 24.4886 81.4569 24.1136C80.847 23.7386 80.3736 23.214 80.0364 22.5398C79.6993 21.8655 79.5308 21.0776 79.5308 20.1761C79.5308 19.2708 79.6993 18.4791 80.0364 17.8011C80.3736 17.1231 80.847 16.5966 81.4569 16.2216C82.0667 15.8466 82.7808 15.6591 83.5989 15.6591C84.4171 15.6591 85.1311 15.8466 85.741 16.2216C86.3508 16.5966 86.8243 17.1231 87.1614 17.8011C87.4986 18.4791 87.6671 19.2708 87.6671 20.1761C87.6671 21.0776 87.4986 21.8655 87.1614 22.5398C86.8243 23.214 86.3508 23.7386 85.741 24.1136C85.1311 24.4886 84.4171 24.6761 83.5989 24.6761ZM83.6046 23.25C84.1349 23.25 84.5743 23.1098 84.9228 22.8295C85.2713 22.5492 85.5289 22.1761 85.6955 21.7102C85.866 21.2443 85.9512 20.731 85.9512 20.1704C85.9512 19.6136 85.866 19.1023 85.6955 18.6363C85.5289 18.1666 85.2713 17.7898 84.9228 17.5057C84.5743 17.2216 84.1349 17.0795 83.6046 17.0795C83.0705 17.0795 82.6273 17.2216 82.2751 17.5057C81.9266 17.7898 81.6671 18.1666 81.4967 18.6363C81.33 19.1023 81.2467 19.6136 81.2467 20.1704C81.2467 20.731 81.33 21.2443 81.4967 21.7102C81.6671 22.1761 81.9266 22.5492 82.2751 22.8295C82.6273 23.1098 83.0705 23.25 83.6046 23.25ZM91.2623 19.3182V24.5H89.5634V15.7727H91.1941V17.1932H91.3021C91.5028 16.731 91.8172 16.3598 92.2452 16.0795C92.6771 15.7992 93.2206 15.6591 93.8759 15.6591C94.4706 15.6591 94.9915 15.7841 95.4384 16.0341C95.8854 16.2803 96.232 16.6477 96.4782 17.1363C96.7244 17.625 96.8475 18.2291 96.8475 18.9488V24.5H95.1487V19.1534C95.1487 18.5208 94.9839 18.0265 94.6543 17.6704C94.3248 17.3106 93.8721 17.1307 93.2964 17.1307C92.9024 17.1307 92.5521 17.2159 92.2452 17.3863C91.9422 17.5568 91.7017 17.8068 91.5237 18.1363C91.3494 18.4621 91.2623 18.856 91.2623 19.3182ZM100.586 12.8636V13.9545C100.586 14.2765 100.526 14.6155 100.404 14.9716C100.287 15.3238 100.12 15.6629 99.9043 15.9886C99.6884 16.3144 99.4346 16.5947 99.143 16.8295L98.3021 16.2273C98.5255 15.9015 98.7187 15.5549 98.8816 15.1875C99.0483 14.8201 99.1316 14.4148 99.1316 13.9716V12.8636H100.586ZM106.637 15.7727V17.1363H101.87V15.7727H106.637ZM103.149 13.6818H104.848V21.9375C104.848 22.267 104.897 22.5151 104.995 22.6818C105.094 22.8447 105.221 22.9564 105.376 23.017C105.535 23.0738 105.707 23.1023 105.893 23.1023C106.029 23.1023 106.149 23.0928 106.251 23.0738C106.353 23.0549 106.433 23.0398 106.49 23.0284L106.796 24.4318C106.698 24.4697 106.558 24.5076 106.376 24.5454C106.194 24.5871 105.967 24.6098 105.694 24.6136C105.247 24.6212 104.83 24.5416 104.444 24.375C104.058 24.2083 103.745 23.9507 103.507 23.6023C103.268 23.2538 103.149 22.8163 103.149 22.2898V13.6818ZM119.291 17.9034L117.751 18.1761C117.687 17.9791 117.584 17.7916 117.444 17.6136C117.308 17.4356 117.122 17.2898 116.887 17.1761C116.652 17.0625 116.359 17.0057 116.007 17.0057C115.526 17.0057 115.124 17.1136 114.802 17.3295C114.48 17.5416 114.319 17.8163 114.319 18.1534C114.319 18.4451 114.427 18.6799 114.643 18.8579C114.859 19.036 115.207 19.1818 115.688 19.2954L117.075 19.6136C117.878 19.7992 118.476 20.0852 118.87 20.4716C119.264 20.8579 119.461 21.3598 119.461 21.9773C119.461 22.5 119.31 22.9659 119.007 23.375C118.707 23.7803 118.289 24.0985 117.751 24.3295C117.217 24.5606 116.598 24.6761 115.893 24.6761C114.916 24.6761 114.118 24.4678 113.501 24.0511C112.883 23.6307 112.505 23.0341 112.365 22.2613L114.007 22.0113C114.109 22.4394 114.319 22.7632 114.637 22.9829C114.955 23.1988 115.37 23.3068 115.882 23.3068C116.438 23.3068 116.883 23.1913 117.217 22.9602C117.55 22.7254 117.717 22.4394 117.717 22.1023C117.717 21.8295 117.615 21.6004 117.41 21.4148C117.209 21.2291 116.901 21.089 116.484 20.9943L115.007 20.6704C114.192 20.4848 113.59 20.1894 113.2 19.7841C112.813 19.3788 112.62 18.8655 112.62 18.2443C112.62 17.7291 112.764 17.2784 113.052 16.892C113.34 16.5057 113.738 16.2045 114.245 15.9886C114.753 15.7689 115.334 15.6591 115.99 15.6591C116.933 15.6591 117.675 15.8636 118.217 16.2727C118.758 16.678 119.116 17.2216 119.291 17.9034ZM126.857 20.8807V15.7727H128.562V24.5H126.892V22.9886H126.801C126.6 23.4545 126.278 23.8428 125.835 24.1534C125.395 24.4602 124.848 24.6136 124.193 24.6136C123.632 24.6136 123.136 24.4905 122.704 24.2443C122.276 23.9943 121.939 23.625 121.693 23.1363C121.45 22.6477 121.329 22.0435 121.329 21.3238V15.7727H123.028V21.1193C123.028 21.714 123.193 22.1875 123.522 22.5398C123.852 22.892 124.28 23.0682 124.806 23.0682C125.124 23.0682 125.441 22.9886 125.755 22.8295C126.073 22.6704 126.337 22.4299 126.545 22.1079C126.757 21.786 126.861 21.3769 126.857 20.8807ZM130.845 27.7727V15.7727H132.504V17.1875H132.646C132.744 17.0057 132.886 16.7954 133.072 16.5568C133.258 16.3182 133.515 16.1098 133.845 15.9318C134.174 15.75 134.61 15.6591 135.151 15.6591C135.856 15.6591 136.485 15.8371 137.038 16.1932C137.591 16.5492 138.025 17.0625 138.339 17.7329C138.657 18.4034 138.816 19.2102 138.816 20.1534C138.816 21.0966 138.659 21.9053 138.345 22.5795C138.03 23.25 137.598 23.767 137.049 24.1307C136.5 24.4905 135.873 24.6704 135.169 24.6704C134.638 24.6704 134.205 24.5814 133.867 24.4034C133.534 24.2254 133.273 24.017 133.083 23.7784C132.894 23.5398 132.748 23.3276 132.646 23.142H132.544V27.7727H130.845ZM132.509 20.1363C132.509 20.75 132.598 21.2879 132.776 21.75C132.955 22.2121 133.212 22.5738 133.549 22.8352C133.886 23.0928 134.299 23.2216 134.788 23.2216C135.295 23.2216 135.72 23.0871 136.061 22.8182C136.401 22.5454 136.659 22.1761 136.833 21.7102C137.011 21.2443 137.1 20.7197 137.1 20.1363C137.1 19.5606 137.013 19.0435 136.839 18.5852C136.669 18.1269 136.411 17.7651 136.066 17.5C135.725 17.2348 135.299 17.1023 134.788 17.1023C134.295 17.1023 133.879 17.2291 133.538 17.4829C133.201 17.7367 132.945 18.0909 132.771 18.5454C132.597 19 132.509 19.5303 132.509 20.1363ZM140.72 27.7727V15.7727H142.379V17.1875H142.521C142.619 17.0057 142.761 16.7954 142.947 16.5568C143.133 16.3182 143.39 16.1098 143.72 15.9318C144.049 15.75 144.485 15.6591 145.026 15.6591C145.731 15.6591 146.36 15.8371 146.913 16.1932C147.466 16.5492 147.9 17.0625 148.214 17.7329C148.532 18.4034 148.691 19.2102 148.691 20.1534C148.691 21.0966 148.534 21.9053 148.22 22.5795C147.905 23.25 147.473 23.767 146.924 24.1307C146.375 24.4905 145.748 24.6704 145.044 24.6704C144.513 24.6704 144.08 24.5814 143.742 24.4034C143.409 24.2254 143.148 24.017 142.958 23.7784C142.769 23.5398 142.623 23.3276 142.521 23.142H142.419V27.7727H140.72ZM142.384 20.1363C142.384 20.75 142.473 21.2879 142.651 21.75C142.83 22.2121 143.087 22.5738 143.424 22.8352C143.761 23.0928 144.174 23.2216 144.663 23.2216C145.17 23.2216 145.595 23.0871 145.936 22.8182C146.276 22.5454 146.534 22.1761 146.708 21.7102C146.886 21.2443 146.975 20.7197 146.975 20.1363C146.975 19.5606 146.888 19.0435 146.714 18.5852C146.544 18.1269 146.286 17.7651 145.941 17.5C145.6 17.2348 145.174 17.1023 144.663 17.1023C144.17 17.1023 143.754 17.2291 143.413 17.4829C143.076 17.7367 142.82 18.0909 142.646 18.5454C142.472 19 142.384 19.5303 142.384 20.1363ZM154.271 24.6761C153.453 24.6761 152.739 24.4886 152.129 24.1136C151.519 23.7386 151.045 23.214 150.708 22.5398C150.371 21.8655 150.203 21.0776 150.203 20.1761C150.203 19.2708 150.371 18.4791 150.708 17.8011C151.045 17.1231 151.519 16.5966 152.129 16.2216C152.739 15.8466 153.453 15.6591 154.271 15.6591C155.089 15.6591 155.803 15.8466 156.413 16.2216C157.023 16.5966 157.496 17.1231 157.833 17.8011C158.17 18.4791 158.339 19.2708 158.339 20.1761C158.339 21.0776 158.17 21.8655 157.833 22.5398C157.496 23.214 157.023 23.7386 156.413 24.1136C155.803 24.4886 155.089 24.6761 154.271 24.6761ZM154.276 23.25C154.807 23.25 155.246 23.1098 155.595 22.8295C155.943 22.5492 156.201 22.1761 156.367 21.7102C156.538 21.2443 156.623 20.731 156.623 20.1704C156.623 19.6136 156.538 19.1023 156.367 18.6363C156.201 18.1666 155.943 17.7898 155.595 17.5057C155.246 17.2216 154.807 17.0795 154.276 17.0795C153.742 17.0795 153.299 17.2216 152.947 17.5057C152.598 17.7898 152.339 18.1666 152.169 18.6363C152.002 19.1023 151.919 19.6136 151.919 20.1704C151.919 20.731 152.002 21.2443 152.169 21.7102C152.339 22.1761 152.598 22.5492 152.947 22.8295C153.299 23.1098 153.742 23.25 154.276 23.25ZM160.235 24.5V15.7727H161.877V17.1591H161.968C162.127 16.6894 162.408 16.3201 162.809 16.0511C163.214 15.7784 163.673 15.642 164.184 15.642C164.29 15.642 164.415 15.6458 164.559 15.6534C164.707 15.661 164.822 15.6704 164.906 15.6818V17.3068C164.838 17.2879 164.716 17.267 164.542 17.2443C164.368 17.2178 164.194 17.2045 164.019 17.2045C163.618 17.2045 163.26 17.2898 162.946 17.4602C162.635 17.6269 162.389 17.8598 162.207 18.1591C162.025 18.4545 161.934 18.7916 161.934 19.1704V24.5H160.235ZM170.965 15.7727V17.1363H166.198V15.7727H170.965ZM167.477 13.6818H169.176V21.9375C169.176 22.267 169.225 22.5151 169.323 22.6818C169.422 22.8447 169.549 22.9564 169.704 23.017C169.863 23.0738 170.035 23.1023 170.221 23.1023C170.357 23.1023 170.477 23.0928 170.579 23.0738C170.681 23.0549 170.761 23.0398 170.818 23.0284L171.124 24.4318C171.026 24.4697 170.886 24.5076 170.704 24.5454C170.522 24.5871 170.295 24.6098 170.022 24.6136C169.575 24.6212 169.159 24.5416 168.772 24.375C168.386 24.2083 168.073 23.9507 167.835 23.6023C167.596 23.2538 167.477 22.8163 167.477 22.2898V13.6818Z" fill="#E7CDCD"/>
<path d="M64.9352 43.5V31.1363H73.3749V33.5632H67.9235V36.0987H72.8376V38.5316H67.9235V43.5H64.9352ZM78.5274 43.675C77.5534 43.675 76.7163 43.4758 76.016 43.0774C75.3198 42.6749 74.7825 42.1155 74.4042 41.3991C74.0299 40.6787 73.8427 39.8436 73.8427 38.8938C73.8427 37.94 74.0299 37.1049 74.4042 36.3885C74.7825 35.6681 75.3198 35.1086 76.016 34.7102C76.7163 34.3077 77.5534 34.1065 78.5274 34.1065C79.5013 34.1065 80.3365 34.3077 81.0327 34.7102C81.733 35.1086 82.2703 35.6681 82.6446 36.3885C83.0229 37.1049 83.212 37.94 83.212 38.8938C83.212 39.8436 83.0229 40.6787 82.6446 41.3991C82.2703 42.1155 81.733 42.6749 81.0327 43.0774C80.3365 43.4758 79.5013 43.675 78.5274 43.675ZM78.5455 41.4474C78.8997 41.4474 79.1995 41.3388 79.445 41.1214C79.6905 40.9041 79.8776 40.6022 80.0064 40.2159C80.1392 39.8295 80.2057 39.3828 80.2057 38.8757C80.2057 38.3605 80.1392 37.9098 80.0064 37.5234C79.8776 37.137 79.6905 36.8352 79.445 36.6179C79.1995 36.4005 78.8997 36.2919 78.5455 36.2919C78.1793 36.2919 77.8694 36.4005 77.6158 36.6179C77.3663 36.8352 77.1751 37.137 77.0423 37.5234C76.9135 37.9098 76.8491 38.3605 76.8491 38.8757C76.8491 39.3828 76.9135 39.8295 77.0423 40.2159C77.1751 40.6022 77.3663 40.9041 77.6158 41.1214C77.8694 41.3388 78.1793 41.4474 78.5455 41.4474ZM84.7243 43.5V34.2272H87.5918V35.9176H87.6884C87.8575 35.3058 88.1331 34.8511 88.5155 34.5532C88.8978 34.2514 89.3425 34.1005 89.8496 34.1005C89.9865 34.1005 90.1273 34.1105 90.2722 34.1307C90.4171 34.1468 90.5519 34.1729 90.6767 34.2091V36.7748C90.5358 36.7265 90.3507 36.6883 90.1213 36.6601C89.8959 36.632 89.6947 36.6179 89.5176 36.6179C89.1675 36.6179 88.8515 36.6964 88.5698 36.8533C88.2921 37.0062 88.0728 37.2216 87.9118 37.4993C87.7548 37.7729 87.6764 38.0949 87.6764 38.4652V43.5H84.7243ZM95.7206 47.1704C94.8392 47.1704 94.0846 47.0477 93.4567 46.8022C92.8289 46.5567 92.3359 46.2206 91.9777 45.794C91.6195 45.3674 91.4042 44.8844 91.3317 44.3451L94.1268 44.1882C94.1791 44.3773 94.2757 44.5423 94.4166 44.6832C94.5615 44.8241 94.7486 44.9327 94.978 45.0092C95.2114 45.0857 95.4851 45.1239 95.799 45.1239C96.2941 45.1239 96.7026 45.0032 97.0245 44.7617C97.3505 44.5242 97.5135 44.1077 97.5135 43.512V41.8821H97.4109C97.2942 42.1678 97.1171 42.4234 96.8797 42.6488C96.6422 42.8741 96.3464 43.0512 95.9922 43.18C95.6421 43.3088 95.2396 43.3732 94.7848 43.3732C94.1087 43.3732 93.4889 43.2162 92.9255 42.9023C92.366 42.5844 91.9173 42.0934 91.5792 41.4293C91.2452 40.7612 91.0782 39.902 91.0782 38.8515C91.0782 37.7689 91.2512 36.8775 91.5973 36.1772C91.9435 35.4729 92.3962 34.9517 92.9556 34.6136C93.5191 34.2755 94.1248 34.1065 94.7728 34.1065C95.2597 34.1065 95.6763 34.191 96.0224 34.3601C96.3725 34.5251 96.6603 34.7384 96.8857 35C97.1111 35.2616 97.2821 35.5332 97.3988 35.815H97.4833V34.2272H100.423V43.5362C100.423 44.321 100.226 44.983 99.8317 45.5223C99.4373 46.0616 98.8859 46.4701 98.1776 46.7478C97.4693 47.0296 96.6502 47.1704 95.7206 47.1704ZM95.8111 41.224C96.1693 41.224 96.4752 41.1295 96.7287 40.9403C96.9823 40.7512 97.1775 40.4795 97.3143 40.1253C97.4511 39.7712 97.5196 39.3466 97.5196 38.8515C97.5196 38.3485 97.4511 37.9158 97.3143 37.5536C97.1815 37.1874 96.9863 36.9056 96.7287 36.7084C96.4752 36.5112 96.1693 36.4126 95.8111 36.4126C95.4449 36.4126 95.135 36.5132 94.8814 36.7145C94.6279 36.9157 94.4347 37.1994 94.3019 37.5657C94.1731 37.9279 94.1087 38.3565 94.1087 38.8515C94.1087 39.3466 94.1751 39.7712 94.3079 40.1253C94.4407 40.4795 94.6319 40.7512 94.8814 40.9403C95.135 41.1295 95.4449 41.224 95.8111 41.224ZM106.64 43.675C105.67 43.675 104.833 43.4839 104.128 43.1015C103.428 42.7152 102.889 42.1658 102.511 41.4535C102.136 40.7371 101.949 39.8859 101.949 38.8998C101.949 37.942 102.138 37.1049 102.517 36.3885C102.895 35.6681 103.428 35.1086 104.116 34.7102C104.805 34.3077 105.616 34.1065 106.549 34.1065C107.209 34.1065 107.813 34.2091 108.36 34.4144C108.908 34.6196 109.381 34.9235 109.779 35.326C110.177 35.7284 110.487 36.2255 110.709 36.8171C110.93 37.4047 111.041 38.0788 111.041 38.8395V39.576H102.981V37.8615H108.294C108.29 37.5476 108.215 37.2678 108.071 37.0223C107.926 36.7768 107.727 36.5857 107.473 36.4488C107.223 36.308 106.936 36.2375 106.61 36.2375C106.28 36.2375 105.984 36.312 105.722 36.4609C105.461 36.6058 105.253 36.805 105.1 37.0586C104.948 37.3081 104.867 37.5918 104.859 37.9098V39.6544C104.859 40.0328 104.933 40.3648 105.082 40.6505C105.231 40.9323 105.443 41.1516 105.716 41.3086C105.99 41.4655 106.316 41.544 106.694 41.544C106.956 41.544 107.193 41.5078 107.407 41.4353C107.62 41.3629 107.803 41.2562 107.956 41.1154C108.109 40.9745 108.224 40.8015 108.3 40.5962L111.011 40.6747C110.898 41.2824 110.65 41.8116 110.268 42.2624C109.89 42.7091 109.393 43.0573 108.777 43.3068C108.161 43.5523 107.449 43.675 106.64 43.675Z" fill="#DFA86A"/>
</g>
</g>
<rect x="1.04951" y="1.04998" width="181.9" height="53.9" rx="6.95" stroke="white" stroke-opacity="0.15" stroke-width="2.1"/>
<defs>
<filter id="filter0_d_28_1091" x="6.28523" y="2.2857" width="53.5709" height="53.5712" filterUnits="userSpaceOnUse" color-interpolation-filters="sRGB">
<feFlood flood-opacity="0" result="BackgroundImageFix"/>
<feColorMatrix in="SourceAlpha" type="matrix" values="0 0 0 0 0 0 0 0 0 0 0 0 0 0 0 0 0 0 127 0" result="hardAlpha"/>
<feOffset/>
<feGaussianBlur stdDeviation="2.85714"/>
<feComposite in2="hardAlpha" operator="out"/>
<feColorMatrix type="matrix" values="0 0 0 0 0 0 0 0 0 0 0 0 0 0 0 0 0 0 0.25 0"/>
<feBlend mode="normal" in2="BackgroundImageFix" result="effect1_dropShadow_28_1091"/>
<feBlend mode="normal" in="SourceGraphic" in2="effect1_dropShadow_28_1091" result="shape"/>
</filter>
<filter id="filter1_d_28_1091" x="58.3995" y="3.89998" width="119.2" height="48.8704" filterUnits="userSpaceOnUse" color-interpolation-filters="sRGB">
<feFlood flood-opacity="0" result="BackgroundImageFix"/>
<feColorMatrix in="SourceAlpha" type="matrix" values="0 0 0 0 0 0 0 0 0 0 0 0 0 0 0 0 0 0 127 0" result="hardAlpha"/>
<feOffset/>
<feGaussianBlur stdDeviation="2.8"/>
<feComposite in2="hardAlpha" operator="out"/>
<feColorMatrix type="matrix" values="0 0 0 0 0 0 0 0 0 0 0 0 0 0 0 0 0 0 0.25 0"/>
<feBlend mode="normal" in2="BackgroundImageFix" result="effect1_dropShadow_28_1091"/>
<feBlend mode="normal" in="SourceGraphic" in2="effect1_dropShadow_28_1091" result="shape"/>
</filter>
<linearGradient id="paint0_linear_28_1091" x1="91.9995" y1="-1.52588e-05" x2="91.9995" y2="56" gradientUnits="userSpaceOnUse">
<stop stop-color="#2C1B1B"/>
<stop offset="1" stop-color="#1F1414"/>
</linearGradient>
<linearGradient id="paint1_linear_28_1091" x1="40.5711" y1="25.1431" x2="40.5711" y2="47.9998" gradientUnits="userSpaceOnUse">
<stop stop-color="#FF0000"/>
<stop offset="1" stop-color="#CC0000"/>
</linearGradient>
<clipPath id="clip0_28_1091">
<rect x="-0.000488281" y="-1.52588e-05" width="184" height="56" rx="8" fill="white"/>
</clipPath>
</defs>
</svg>
