<svg width="131" height="40" viewBox="0 0 131 40" fill="none" xmlns="http://www.w3.org/2000/svg">
<rect x="-0.000488281" y="-2.28882e-05" width="131" height="40" rx="6" fill="url(#paint0_linear_28_1097)"/>
<g filter="url(#filter0_d_28_1097)">
<path d="M12.4995 16.2608V12.7929C12.5448 12.7901 12.5896 12.7301 12.6324 12.7149C13.3799 12.3347 14.1197 11.937 14.8769 11.5787C15.1038 11.4707 15.1868 11.3652 15.182 11.1105C15.1652 10.1838 15.1753 9.25657 15.1758 8.32938C15.1758 8.04446 15.1758 8.04203 15.4113 7.92291C16.3882 7.42747 17.3669 6.93495 18.3428 6.43756C18.6168 6.29851 18.9138 6.20321 19.1537 5.99998H19.3705C19.3792 6.02088 19.382 6.05297 19.3969 6.06075C20.6362 6.68407 21.8769 7.30349 23.1138 7.93118C23.1892 7.96959 23.217 7.97251 23.2933 7.93118C23.7092 7.71385 24.1382 7.52082 24.5517 7.29911C24.6655 7.23785 24.7221 7.24709 24.8305 7.30787C25.151 7.48873 25.4868 7.64043 25.8184 7.80622C26.0319 7.91368 26.0319 7.91805 26.2142 7.82178C26.5217 7.65939 26.8269 7.49262 27.1344 7.33072C27.3518 7.21646 27.3743 7.21646 27.5754 7.31856C28.7908 7.93863 30.0072 8.55871 31.2246 9.17878C32.5714 9.86238 33.921 10.5401 35.2649 11.2301C35.3489 11.2729 35.4208 11.2656 35.4995 11.2763V21.5381C35.4208 21.5488 35.3489 21.5415 35.2649 21.5843C33.6816 22.3943 32.0983 23.2024 30.5016 23.9905C30.2358 24.1218 30.1374 24.2633 30.1398 24.5676C30.1542 26.6923 30.1437 28.817 30.1532 30.9413C30.1532 31.1523 30.0923 31.2651 29.9086 31.3502C29.5535 31.5145 29.2071 31.6978 28.8573 31.8733C28.831 31.8864 28.8055 31.902 28.7801 31.9166C28.8129 31.924 28.845 31.9342 28.8761 31.9472C29.2541 32.1417 29.6303 32.341 30.0117 32.5307C30.0798 32.5647 30.076 32.5793 30.0285 32.6162C29.9911 32.6409 29.9518 32.6626 29.911 32.6809C29.3319 32.9726 28.747 33.2556 28.1765 33.5658C27.9165 33.7073 27.6243 33.7938 27.3988 34H27.3268C27.2605 33.9465 27.1906 33.8978 27.1176 33.8541C24.514 32.5329 21.9097 31.2129 19.3048 29.894C19.2808 29.8795 19.2579 29.8632 19.2362 29.8454C19.2568 29.8366 19.2779 29.8293 19.2976 29.8191C20.1156 29.4039 20.9351 28.9926 21.7503 28.5705C21.8182 28.5299 21.8957 28.5084 21.9746 28.5084C22.0535 28.5084 22.1309 28.5299 22.1989 28.5705C22.5707 28.7699 22.9497 28.9551 23.3259 29.1462C23.7054 28.9551 24.0854 28.765 24.4639 28.572C24.4946 28.5564 24.5191 28.5015 24.5426 28.5039C24.6563 28.5151 24.6515 28.4456 24.6511 28.3678C24.6511 27.9161 24.6482 27.4644 24.6511 27.0127C24.6511 26.9238 24.6136 26.9155 24.5393 26.8771C23.9155 26.5717 23.3019 26.2489 22.6835 25.9348C20.6885 24.9216 18.6929 23.9099 16.6967 22.8999C16.5954 22.8484 16.5422 22.8051 16.5441 22.6734C16.5532 21.9168 16.5465 21.1598 16.5499 20.4033C16.5499 20.2705 16.5182 20.1986 16.3819 20.1373C16.0461 19.9866 15.7275 19.7941 15.3945 19.6346C15.2506 19.5656 15.1618 19.5072 15.1681 19.3152C15.1854 18.7667 15.1681 18.2168 15.1801 17.6679C15.1834 17.5371 15.122 17.5167 15.0361 17.4734C14.2685 17.0879 13.4955 16.7023 12.7332 16.3065C12.6506 16.2633 12.5806 16.2715 12.4995 16.2608ZM28.7014 27.7333V25.0246C28.7014 24.941 28.7192 24.905 28.5992 24.9668C27.8546 25.3504 27.0994 25.7141 26.3481 26.0851C26.2478 26.1337 26.1043 26.1638 26.0602 26.246C26.0055 26.352 26.0295 26.5012 26.0247 26.632C26.0204 26.7414 26.0247 26.8513 26.0247 26.9612C26.0247 27.6691 26.0247 28.3765 26.0271 29.0845C26.0271 29.1817 25.9954 29.2104 25.9062 29.2527C25.5324 29.4297 25.1687 29.629 24.8027 29.8206C24.7789 29.8354 24.756 29.8516 24.7341 29.8692C24.7547 29.8779 24.7758 29.8857 24.796 29.8954C25.6255 30.3107 26.456 30.722 27.2822 31.146C27.3513 31.1814 27.3719 31.1853 27.4439 31.146C27.809 30.9515 28.1808 30.7711 28.5556 30.597C28.663 30.5484 28.7067 30.4969 28.7057 30.3695C28.6976 29.4904 28.7014 28.6119 28.7014 27.7333Z" fill="#4E84C4"/>
</g>
<g filter="url(#filter1_d_28_1097)">
<path d="M48.4448 18L46.2261 9.99998H47.4956L49.0542 16.1953H49.1284L50.7495 9.99998H52.0073L53.6284 16.1992H53.7026L55.2573 9.99998H56.5308L54.3081 18H53.0933L51.4097 12.0078H51.3472L49.6636 18H48.4448ZM59.4741 18.1211C58.9116 18.1211 58.4207 17.9922 58.0015 17.7343C57.5822 17.4765 57.2567 17.1159 57.0249 16.6523C56.7931 16.1888 56.6772 15.6471 56.6772 15.0273C56.6772 14.4049 56.7931 13.8607 57.0249 13.3945C57.2567 12.9284 57.5822 12.5664 58.0015 12.3086C58.4207 12.0508 58.9116 11.9219 59.4741 11.9219C60.0366 11.9219 60.5275 12.0508 60.9468 12.3086C61.366 12.5664 61.6916 12.9284 61.9233 13.3945C62.1551 13.8607 62.271 14.4049 62.271 15.0273C62.271 15.6471 62.1551 16.1888 61.9233 16.6523C61.6916 17.1159 61.366 17.4765 60.9468 17.7343C60.5275 17.9922 60.0366 18.1211 59.4741 18.1211ZM59.478 17.1406C59.8426 17.1406 60.1447 17.0442 60.3843 16.8515C60.6239 16.6588 60.8009 16.4023 60.9155 16.082C61.0327 15.7617 61.0913 15.4088 61.0913 15.0234C61.0913 14.6406 61.0327 14.289 60.9155 13.9687C60.8009 13.6458 60.6239 13.3867 60.3843 13.1914C60.1447 12.9961 59.8426 12.8984 59.478 12.8984C59.1108 12.8984 58.8061 12.9961 58.564 13.1914C58.3244 13.3867 58.146 13.6458 58.0288 13.9687C57.9142 14.289 57.8569 14.6406 57.8569 15.0234C57.8569 15.4088 57.9142 15.7617 58.0288 16.082C58.146 16.4023 58.3244 16.6588 58.564 16.8515C58.8061 17.0442 59.1108 17.1406 59.478 17.1406ZM64.7427 14.4375V18H63.5747V12H64.6958V12.9765H64.77C64.908 12.6588 65.1242 12.4036 65.4185 12.2109C65.7153 12.0182 66.089 11.9219 66.5395 11.9219C66.9484 11.9219 67.3065 12.0078 67.6138 12.1797C67.9211 12.3489 68.1593 12.6015 68.3286 12.9375C68.4979 13.2734 68.5825 13.6888 68.5825 14.1836V18H67.4145V14.3242C67.4145 13.8893 67.3013 13.5495 67.0747 13.3047C66.8481 13.0573 66.5369 12.9336 66.1411 12.9336C65.8703 12.9336 65.6294 12.9922 65.4185 13.1094C65.2101 13.2265 65.0448 13.3984 64.9224 13.625C64.8026 13.8489 64.7427 14.1198 64.7427 14.4375ZM71.1528 9.99998V10.75C71.1528 10.9713 71.1112 11.2044 71.0278 11.4492C70.9471 11.6914 70.8325 11.9245 70.6841 12.1484C70.5356 12.3724 70.3612 12.5651 70.1606 12.7265L69.5825 12.3125C69.7362 12.0885 69.869 11.8502 69.9809 11.5976C70.0955 11.345 70.1528 11.0664 70.1528 10.7617V9.99998H71.1528ZM75.313 12V12.9375H72.0356V12H75.313ZM72.9145 10.5625H74.0825V16.2383C74.0825 16.4648 74.1164 16.6354 74.1841 16.75C74.2518 16.862 74.339 16.9388 74.4458 16.9804C74.5552 17.0195 74.6737 17.039 74.8013 17.039C74.895 17.039 74.977 17.0325 75.0474 17.0195C75.1177 17.0065 75.1724 16.9961 75.2114 16.9883L75.4224 17.9531C75.3546 17.9791 75.2583 18.0052 75.1333 18.0312C75.0083 18.0599 74.852 18.0755 74.6645 18.0781C74.3573 18.0833 74.0708 18.0286 73.8052 17.914C73.5395 17.7995 73.3247 17.6224 73.1606 17.3828C72.9966 17.1432 72.9145 16.8424 72.9145 16.4804V10.5625ZM84.0122 13.4648L82.9536 13.6523C82.9093 13.5169 82.839 13.388 82.7427 13.2656C82.6489 13.1432 82.5213 13.0429 82.3599 12.9648C82.1984 12.8867 81.9966 12.8476 81.7544 12.8476C81.4237 12.8476 81.1476 12.9219 80.9263 13.0703C80.7049 13.2161 80.5942 13.4049 80.5942 13.6367C80.5942 13.8372 80.6684 13.9987 80.8169 14.1211C80.9653 14.2435 81.2049 14.3437 81.5356 14.4218L82.4888 14.6406C83.0408 14.7682 83.4523 14.9648 83.7231 15.2304C83.994 15.4961 84.1294 15.8411 84.1294 16.2656C84.1294 16.625 84.0252 16.9453 83.8169 17.2265C83.6112 17.5052 83.3234 17.7239 82.9536 17.8828C82.5864 18.0416 82.1606 18.1211 81.6763 18.1211C81.0044 18.1211 80.4562 17.9778 80.0317 17.6914C79.6072 17.4023 79.3468 16.9922 79.2505 16.4609L80.3794 16.289C80.4497 16.5833 80.5942 16.806 80.813 16.957C81.0317 17.1054 81.3169 17.1797 81.6684 17.1797C82.0513 17.1797 82.3572 17.1002 82.5864 16.9414C82.8156 16.7799 82.9302 16.5833 82.9302 16.3515C82.9302 16.164 82.8599 16.0065 82.7192 15.8789C82.5812 15.7513 82.369 15.6549 82.0825 15.5898L81.0669 15.3672C80.507 15.2396 80.0929 15.0364 79.8247 14.7578C79.5591 14.4791 79.4263 14.1263 79.4263 13.6992C79.4263 13.345 79.5252 13.0351 79.7231 12.7695C79.9211 12.5039 80.1945 12.2969 80.5434 12.1484C80.8924 11.9974 81.2921 11.9219 81.7427 11.9219C82.3911 11.9219 82.9015 12.0625 83.2739 12.3437C83.6463 12.6224 83.8924 12.9961 84.0122 13.4648ZM89.2143 15.5117V12H90.3862V18H89.2378V16.9609H89.1753C89.0373 17.2812 88.8159 17.5482 88.5112 17.7617C88.2091 17.9726 87.8328 18.0781 87.3823 18.0781C86.9969 18.0781 86.6557 17.9935 86.3589 17.8242C86.0646 17.6523 85.8328 17.3984 85.6636 17.0625C85.4969 16.7265 85.4136 16.3112 85.4136 15.8164V12H86.5815V15.6758C86.5815 16.0846 86.6948 16.4101 86.9214 16.6523C87.1479 16.8945 87.4422 17.0156 87.8042 17.0156C88.0229 17.0156 88.2404 16.9609 88.4565 16.8515C88.6753 16.7422 88.8563 16.5768 88.9995 16.3554C89.1453 16.1341 89.2169 15.8528 89.2143 15.5117ZM91.9556 20.25V12H93.0962V12.9726H93.1938C93.2615 12.8476 93.3592 12.7031 93.4868 12.539C93.6144 12.375 93.7915 12.2317 94.0181 12.1094C94.2446 11.9844 94.5441 11.9219 94.9165 11.9219C95.4009 11.9219 95.8332 12.0442 96.2134 12.289C96.5936 12.5338 96.8917 12.8867 97.1079 13.3476C97.3266 13.8086 97.436 14.3633 97.436 15.0117C97.436 15.6601 97.3279 16.2161 97.1118 16.6797C96.8957 17.1406 96.5988 17.4961 96.2212 17.7461C95.8436 17.9935 95.4126 18.1172 94.9282 18.1172C94.5636 18.1172 94.2654 18.056 94.0337 17.9336C93.8045 17.8112 93.6248 17.6679 93.4946 17.5039C93.3644 17.3398 93.2641 17.194 93.1938 17.0664H93.1235V20.25H91.9556ZM93.1001 15C93.1001 15.4218 93.1613 15.7916 93.2837 16.1093C93.4061 16.4271 93.5832 16.6758 93.8149 16.8554C94.0467 17.0325 94.3306 17.1211 94.6665 17.1211C95.0154 17.1211 95.3071 17.0286 95.5415 16.8437C95.7759 16.6562 95.9529 16.4023 96.0727 16.082C96.1951 15.7617 96.2563 15.401 96.2563 15C96.2563 14.6041 96.1964 14.2487 96.0766 13.9336C95.9595 13.6185 95.7824 13.3698 95.5454 13.1875C95.311 13.0052 95.0181 12.914 94.6665 12.914C94.3279 12.914 94.0415 13.0013 93.8071 13.1758C93.5753 13.3502 93.3996 13.5937 93.2798 13.9062C93.16 14.2187 93.1001 14.5833 93.1001 15ZM98.7446 20.25V12H99.8852V12.9726H99.9829C100.051 12.8476 100.148 12.7031 100.276 12.539C100.403 12.375 100.581 12.2317 100.807 12.1094C101.034 11.9844 101.333 11.9219 101.706 11.9219C102.19 11.9219 102.622 12.0442 103.002 12.289C103.383 12.5338 103.681 12.8867 103.897 13.3476C104.116 13.8086 104.225 14.3633 104.225 15.0117C104.225 15.6601 104.117 16.2161 103.901 16.6797C103.685 17.1406 103.388 17.4961 103.01 17.7461C102.633 17.9935 102.202 18.1172 101.717 18.1172C101.353 18.1172 101.055 18.056 100.823 17.9336C100.594 17.8112 100.414 17.6679 100.284 17.5039C100.153 17.3398 100.053 17.194 99.9829 17.0664H99.9126V20.25H98.7446ZM99.8891 15C99.8891 15.4218 99.9503 15.7916 100.073 16.1093C100.195 16.4271 100.372 16.6758 100.604 16.8554C100.836 17.0325 101.12 17.1211 101.456 17.1211C101.805 17.1211 102.096 17.0286 102.331 16.8437C102.565 16.6562 102.742 16.4023 102.862 16.082C102.984 15.7617 103.045 15.401 103.045 15C103.045 14.6041 102.985 14.2487 102.866 13.9336C102.749 13.6185 102.571 13.3698 102.334 13.1875C102.1 13.0052 101.807 12.914 101.456 12.914C101.117 12.914 100.831 13.0013 100.596 13.1758C100.364 13.3502 100.189 13.5937 100.069 13.9062C99.949 14.2187 99.8891 14.5833 99.8891 15ZM108.061 18.1211C107.499 18.1211 107.008 17.9922 106.588 17.7343C106.169 17.4765 105.844 17.1159 105.612 16.6523C105.38 16.1888 105.264 15.6471 105.264 15.0273C105.264 14.4049 105.38 13.8607 105.612 13.3945C105.844 12.9284 106.169 12.5664 106.588 12.3086C107.008 12.0508 107.499 11.9219 108.061 11.9219C108.624 11.9219 109.114 12.0508 109.534 12.3086C109.953 12.5664 110.278 12.9284 110.51 13.3945C110.742 13.8607 110.858 14.4049 110.858 15.0273C110.858 15.6471 110.742 16.1888 110.51 16.6523C110.278 17.1159 109.953 17.4765 109.534 17.7343C109.114 17.9922 108.624 18.1211 108.061 18.1211ZM108.065 17.1406C108.43 17.1406 108.732 17.0442 108.971 16.8515C109.211 16.6588 109.388 16.4023 109.502 16.082C109.62 15.7617 109.678 15.4088 109.678 15.0234C109.678 14.6406 109.62 14.289 109.502 13.9687C109.388 13.6458 109.211 13.3867 108.971 13.1914C108.732 12.9961 108.43 12.8984 108.065 12.8984C107.698 12.8984 107.393 12.9961 107.151 13.1914C106.911 13.3867 106.733 13.6458 106.616 13.9687C106.501 14.289 106.444 14.6406 106.444 15.0234C106.444 15.4088 106.501 15.7617 106.616 16.082C106.733 16.4023 106.911 16.6588 107.151 16.8515C107.393 17.0442 107.698 17.1406 108.065 17.1406ZM112.162 18V12H113.291V12.9531H113.353C113.462 12.6302 113.655 12.3763 113.931 12.1914C114.21 12.0039 114.525 11.9101 114.876 11.9101C114.949 11.9101 115.035 11.9127 115.134 11.9179C115.236 11.9232 115.315 11.9297 115.373 11.9375V13.0547C115.326 13.0416 115.242 13.0273 115.123 13.0117C115.003 12.9935 114.883 12.9844 114.763 12.9844C114.487 12.9844 114.241 13.0429 114.025 13.1601C113.811 13.2747 113.642 13.4349 113.517 13.6406C113.392 13.8437 113.33 14.0755 113.33 14.3359V18H112.162ZM119.539 12V12.9375H116.261V12H119.539ZM117.14 10.5625H118.308V16.2383C118.308 16.4648 118.342 16.6354 118.41 16.75C118.477 16.862 118.565 16.9388 118.671 16.9804C118.781 17.0195 118.899 17.039 119.027 17.039C119.121 17.039 119.203 17.0325 119.273 17.0195C119.343 17.0065 119.398 16.9961 119.437 16.9883L119.648 17.9531C119.58 17.9791 119.484 18.0052 119.359 18.0312C119.234 18.0599 119.078 18.0755 118.89 18.0781C118.583 18.0833 118.296 18.0286 118.031 17.914C117.765 17.7995 117.55 17.6224 117.386 17.3828C117.222 17.1432 117.14 16.8424 117.14 16.4804V10.5625Z" fill="#E8E8E8"/>
<path d="M46.66 31V22.2727H48.7694V29.2869H52.4001V31H46.66ZM53.4921 31V24.4545H55.5759V31H53.4921ZM54.5361 23.6917C54.2435 23.6917 53.9921 23.5951 53.7818 23.402C53.5716 23.2059 53.4665 22.9701 53.4665 22.6946C53.4665 22.4218 53.5716 22.1889 53.7818 21.9957C53.9921 21.7997 54.2435 21.7017 54.5361 21.7017C54.8315 21.7017 55.083 21.7997 55.2903 21.9957C55.5006 22.1889 55.6057 22.4218 55.6057 22.6946C55.6057 22.9701 55.5006 23.2059 55.2903 23.402C55.083 23.5951 54.8315 23.6917 54.5361 23.6917ZM60.5968 24.4545V25.9886H56.4675V24.4545H60.5968ZM57.3326 22.8863H59.4164V28.9417C59.4164 29.0696 59.4363 29.1733 59.4761 29.2528C59.5187 29.3295 59.5798 29.3849 59.6593 29.419C59.7389 29.4503 59.834 29.4659 59.9448 29.4659C60.0244 29.4659 60.1082 29.4588 60.1962 29.4446C60.2871 29.4275 60.3553 29.4133 60.4008 29.402L60.7161 30.9062C60.6167 30.9346 60.4761 30.9701 60.2943 31.0128C60.1153 31.0554 59.9008 31.0824 59.6508 31.0937C59.1621 31.1164 58.7431 31.0596 58.3937 30.9233C58.0471 30.7841 57.7815 30.5681 57.5968 30.2755C57.415 29.9829 57.3269 29.615 57.3326 29.1718V22.8863ZM64.6494 31.1235C63.9647 31.1235 63.3738 30.9886 62.8766 30.7187C62.3823 30.446 62.0016 30.0582 61.7346 29.5554C61.4704 29.0497 61.3383 28.4488 61.3383 27.7528C61.3383 27.0767 61.4718 26.4858 61.7389 25.9801C62.0059 25.4716 62.3823 25.0767 62.8681 24.7954C63.3539 24.5113 63.9264 24.3693 64.5854 24.3693C65.0514 24.3693 65.4775 24.4417 65.8639 24.5866C66.2502 24.7315 66.584 24.946 66.8653 25.2301C67.1465 25.5142 67.3653 25.865 67.5215 26.2826C67.6778 26.6974 67.7559 27.1733 67.7559 27.7102V28.2301H62.067V27.0199H65.817C65.8141 26.7983 65.7616 26.6008 65.6593 26.4275C65.557 26.2542 65.4164 26.1193 65.2374 26.0227C65.0613 25.9233 64.8582 25.8735 64.6281 25.8735C64.3951 25.8735 64.1863 25.9261 64.0016 26.0312C63.817 26.1335 63.6707 26.2741 63.5627 26.4531C63.4548 26.6292 63.3979 26.8295 63.3923 27.0539V28.2855C63.3923 28.5525 63.4448 28.7869 63.5499 28.9886C63.655 29.1875 63.8042 29.3423 63.9974 29.4531C64.1906 29.5639 64.4207 29.6193 64.6877 29.6193C64.8724 29.6193 65.04 29.5937 65.1906 29.5426C65.3411 29.4914 65.4704 29.4162 65.5783 29.3167C65.6863 29.2173 65.7673 29.0951 65.8212 28.9503L67.7346 29.0056C67.655 29.4346 67.4803 29.8082 67.2104 30.1264C66.9434 30.4417 66.5925 30.6875 66.1579 30.8636C65.7232 31.0369 65.2204 31.1235 64.6494 31.1235ZM68.8202 31V22.2727H70.9295V29.2869H74.5602V31H68.8202ZM78.7076 31.1235C78.0201 31.1235 77.4292 30.9829 76.9349 30.7017C76.4434 30.4176 76.0641 30.0227 75.7971 29.517C75.5329 29.0085 75.4008 28.419 75.4008 27.7485C75.4008 27.0753 75.5329 26.4858 75.7971 25.9801C76.0641 25.4716 76.4434 25.0767 76.9349 24.7954C77.4292 24.5113 78.0201 24.3693 78.7076 24.3693C79.3951 24.3693 79.9846 24.5113 80.4761 24.7954C80.9704 25.0767 81.3496 25.4716 81.6138 25.9801C81.8809 26.4858 82.0144 27.0753 82.0144 27.7485C82.0144 28.419 81.8809 29.0085 81.6138 29.517C81.3496 30.0227 80.9704 30.4176 80.4761 30.7017C79.9846 30.9829 79.3951 31.1235 78.7076 31.1235ZM78.7204 29.5511C78.9704 29.5511 79.182 29.4744 79.3553 29.321C79.5286 29.1676 79.6607 28.9545 79.7516 28.6818C79.8454 28.4091 79.8923 28.0937 79.8923 27.7358C79.8923 27.3721 79.8454 27.0539 79.7516 26.7812C79.6607 26.5085 79.5286 26.2954 79.3553 26.142C79.182 25.9886 78.9704 25.9119 78.7204 25.9119C78.4619 25.9119 78.2431 25.9886 78.0641 26.142C77.888 26.2954 77.7531 26.5085 77.6593 26.7812C77.5684 27.0539 77.5229 27.3721 77.5229 27.7358C77.5229 28.0937 77.5684 28.4091 77.6593 28.6818C77.7531 28.9545 77.888 29.1676 78.0641 29.321C78.2431 29.4744 78.4619 29.5511 78.7204 29.5511ZM84.9271 31.1108C84.5094 31.1108 84.1387 31.0412 83.8148 30.902C83.4938 30.7599 83.2396 30.5468 83.0521 30.2628C82.8674 29.9758 82.7751 29.6164 82.7751 29.1846C82.7751 28.821 82.839 28.5142 82.9668 28.2642C83.0947 28.0142 83.2708 27.811 83.4952 27.6548C83.7197 27.4985 83.9782 27.3806 84.2708 27.3011C84.5634 27.2187 84.8759 27.1633 85.2083 27.1349C85.5805 27.1008 85.8802 27.0653 86.1075 27.0284C86.3347 26.9886 86.4995 26.9332 86.6018 26.8622C86.7069 26.7883 86.7594 26.6846 86.7594 26.5511V26.5298C86.7594 26.311 86.6842 26.142 86.5336 26.0227C86.383 25.9034 86.1799 25.8437 85.9242 25.8437C85.6486 25.8437 85.4271 25.9034 85.2594 26.0227C85.0918 26.142 84.9853 26.3068 84.9398 26.517L83.018 26.4488C83.0748 26.0511 83.2211 25.696 83.4569 25.3835C83.6955 25.0681 84.0222 24.821 84.437 24.642C84.8546 24.4602 85.356 24.3693 85.9413 24.3693C86.3589 24.3693 86.7438 24.419 87.0961 24.5184C87.4484 24.615 87.7552 24.7571 88.0165 24.9446C88.2779 25.1292 88.4796 25.3565 88.6217 25.6264C88.7665 25.8963 88.839 26.2045 88.839 26.5511V31H86.8788V30.088H86.8276C86.7111 30.3096 86.562 30.4971 86.3802 30.6505C86.2012 30.8039 85.9896 30.919 85.7452 30.9957C85.5038 31.0724 85.231 31.1108 84.9271 31.1108ZM85.5705 29.7471C85.795 29.7471 85.9967 29.7017 86.1756 29.6108C86.3575 29.5199 86.5023 29.3949 86.6103 29.2358C86.7182 29.0738 86.7722 28.8863 86.7722 28.6733V28.0511C86.7126 28.0824 86.6401 28.1108 86.5549 28.1363C86.4725 28.1619 86.3816 28.186 86.2822 28.2088C86.1827 28.2315 86.0805 28.2514 85.9754 28.2684C85.8702 28.2855 85.7694 28.3011 85.6728 28.3153C85.4768 28.3466 85.3092 28.3949 85.17 28.4602C85.0336 28.5255 84.9285 28.6108 84.8546 28.7159C84.7836 28.8181 84.7481 28.9403 84.7481 29.0824C84.7481 29.2983 84.8248 29.463 84.9782 29.5767C85.1344 29.6903 85.3319 29.7471 85.5705 29.7471ZM92.5038 31.0937C92.0208 31.0937 91.5819 30.9687 91.187 30.7187C90.7921 30.4687 90.4768 30.0937 90.241 29.5937C90.0052 29.0937 89.8873 28.473 89.8873 27.7315C89.8873 26.9616 90.0094 26.3281 90.2538 25.8309C90.4981 25.3338 90.8177 24.9659 91.2126 24.7272C91.6103 24.4886 92.0379 24.3693 92.4952 24.3693C92.839 24.3693 93.133 24.4289 93.3773 24.5483C93.6217 24.6647 93.8234 24.8153 93.9825 25C94.1415 25.1846 94.2623 25.3764 94.3447 25.5753H94.3873V22.2727H96.4711V31H94.4086V29.9389H94.3447C94.2566 30.1406 94.1316 30.3295 93.9697 30.5056C93.8077 30.6818 93.6046 30.8238 93.3603 30.9318C93.1188 31.0397 92.8333 31.0937 92.5038 31.0937ZM93.2282 29.4701C93.481 29.4701 93.6969 29.3991 93.8759 29.2571C94.0549 29.1122 94.1927 28.9091 94.2893 28.6477C94.3859 28.3863 94.4342 28.0795 94.4342 27.7272C94.4342 27.3693 94.3859 27.061 94.2893 26.8025C94.1955 26.544 94.0577 26.3451 93.8759 26.2059C93.6969 26.0667 93.481 25.9971 93.2282 25.9971C92.9697 25.9971 92.7509 26.0681 92.5719 26.2102C92.393 26.3522 92.2566 26.5525 92.1629 26.811C92.0719 27.0696 92.0265 27.375 92.0265 27.7272C92.0265 28.0795 92.0734 28.3863 92.1671 28.6477C92.2609 28.9091 92.3958 29.1122 92.5719 29.2571C92.7509 29.3991 92.9697 29.4701 93.2282 29.4701ZM100.849 31.1235C100.164 31.1235 99.573 30.9886 99.0758 30.7187C98.5815 30.446 98.2008 30.0582 97.9338 29.5554C97.6696 29.0497 97.5375 28.4488 97.5375 27.7528C97.5375 27.0767 97.671 26.4858 97.9381 25.9801C98.2051 25.4716 98.5815 25.0767 99.0673 24.7954C99.5531 24.5113 100.126 24.3693 100.785 24.3693C101.251 24.3693 101.677 24.4417 102.063 24.5866C102.449 24.7315 102.783 24.946 103.064 25.2301C103.346 25.5142 103.564 25.865 103.721 26.2826C103.877 26.6974 103.955 27.1733 103.955 27.7102V28.2301H98.2662V27.0199H102.016C102.013 26.7983 101.961 26.6008 101.859 26.4275C101.756 26.2542 101.616 26.1193 101.437 26.0227C101.261 25.9233 101.057 25.8735 100.827 25.8735C100.594 25.8735 100.386 25.9261 100.201 26.0312C100.016 26.1335 99.8699 26.2741 99.7619 26.4531C99.654 26.6292 99.5972 26.8295 99.5915 27.0539V28.2855C99.5915 28.5525 99.644 28.7869 99.7491 28.9886C99.8543 29.1875 100.003 29.3423 100.197 29.4531C100.39 29.5639 100.62 29.6193 100.887 29.6193C101.072 29.6193 101.239 29.5937 101.39 29.5426C101.54 29.4914 101.67 29.4162 101.778 29.3167C101.886 29.2173 101.966 29.0951 102.02 28.9503L103.934 29.0056C103.854 29.4346 103.68 29.8082 103.41 30.1264C103.143 30.4417 102.792 30.6875 102.357 30.8636C101.922 31.0369 101.42 31.1235 100.849 31.1235ZM105.019 31V24.4545H107.044V25.6477H107.112C107.231 25.2159 107.426 24.8949 107.696 24.6846C107.965 24.4716 108.279 24.365 108.637 24.365C108.734 24.365 108.833 24.3721 108.936 24.3863C109.038 24.3977 109.133 24.4162 109.221 24.4417V26.2528C109.122 26.2187 108.991 26.1917 108.829 26.1718C108.67 26.152 108.528 26.142 108.403 26.142C108.156 26.142 107.933 26.1974 107.734 26.3082C107.538 26.4162 107.383 26.5681 107.269 26.7642C107.159 26.9574 107.103 27.1846 107.103 27.446V31H105.019Z" fill="#4E84C4"/>
</g>
<rect x="0.749512" y="0.749977" width="129.5" height="38.5" rx="5.25" stroke="white" stroke-opacity="0.15" stroke-width="1.5"/>
<defs>
<filter id="filter0_d_28_1097" x="5.99951" y="1.99998" width="36" height="36" filterUnits="userSpaceOnUse" color-interpolation-filters="sRGB">
<feFlood flood-opacity="0" result="BackgroundImageFix"/>
<feColorMatrix in="SourceAlpha" type="matrix" values="0 0 0 0 0 0 0 0 0 0 0 0 0 0 0 0 0 0 127 0" result="hardAlpha"/>
<feOffset/>
<feGaussianBlur stdDeviation="2"/>
<feComposite in2="hardAlpha" operator="out"/>
<feColorMatrix type="matrix" values="0 0 0 0 0 0 0 0 0 0 0 0 0 0 0 0 0 0 0.25 0"/>
<feBlend mode="normal" in2="BackgroundImageFix" result="effect1_dropShadow_28_1097"/>
<feBlend mode="normal" in="SourceGraphic" in2="effect1_dropShadow_28_1097" result="shape"/>
</filter>
<filter id="filter1_d_28_1097" x="41.9995" y="2.99998" width="83" height="34" filterUnits="userSpaceOnUse" color-interpolation-filters="sRGB">
<feFlood flood-opacity="0" result="BackgroundImageFix"/>
<feColorMatrix in="SourceAlpha" type="matrix" values="0 0 0 0 0 0 0 0 0 0 0 0 0 0 0 0 0 0 127 0" result="hardAlpha"/>
<feOffset/>
<feGaussianBlur stdDeviation="2"/>
<feComposite in2="hardAlpha" operator="out"/>
<feColorMatrix type="matrix" values="0 0 0 0 0 0 0 0 0 0 0 0 0 0 0 0 0 0 0.25 0"/>
<feBlend mode="normal" in2="BackgroundImageFix" result="effect1_dropShadow_28_1097"/>
<feBlend mode="normal" in="SourceGraphic" in2="effect1_dropShadow_28_1097" result="shape"/>
</filter>
<linearGradient id="paint0_linear_28_1097" x1="65.4995" y1="-2.28882e-05" x2="65.4995" y2="40" gradientUnits="userSpaceOnUse">
<stop stop-color="#2C1B1B"/>
<stop offset="1" stop-color="#1F1414"/>
</linearGradient>
</defs>
</svg>
