<svg width="180" height="56" viewBox="0 0 180 56" fill="none" xmlns="http://www.w3.org/2000/svg">
<g clip-path="url(#clip0_28_1142)">
<rect x="-0.000488281" y="-0.000183105" width="180" height="56" rx="8" fill="url(#paint0_linear_28_1142)"/>
<g filter="url(#filter0_d_28_1142)">
<path d="M47.6917 12.3207L42.7947 41.7071C42.7341 42.0732 42.5047 42.3894 42.1766 42.563C41.9948 42.6629 41.7904 42.7164 41.5823 42.7175C41.4266 42.7152 41.2733 42.6831 41.1307 42.6224L32.4658 39.0561L27.8422 44.7028C27.6128 44.9857 27.2669 45.1474 26.9032 45.1426C26.7606 45.145 26.618 45.1165 26.4872 45.0594C25.9832 44.8894 25.6516 44.402 25.679 43.8707V37.2492L42.2004 17.0401L21.7566 34.6934L14.209 31.5907C13.7681 31.4266 13.4638 31.0153 13.4364 30.5446C13.3782 30.0595 13.6242 29.5864 14.0545 29.3558L45.8732 11.0487C46.2666 10.7932 46.7753 10.7932 47.1687 11.0487C47.5788 11.3317 47.7844 11.831 47.6917 12.3207Z" fill="white"/>
<g opacity="0.7">
<mask id="path-4-outside-1_28_1142" maskUnits="userSpaceOnUse" x="26.1433" y="22.143" width="28" height="28" fill="black">
<rect fill="white" x="26.1433" y="22.143" width="28" height="28"/>
<path fill-rule="evenodd" clip-rule="evenodd" d="M31.9579 25.3522C31.679 25.0733 31.2268 25.0733 30.9479 25.3522L29.3532 26.9473C29.0743 27.2263 29.0743 27.6786 29.3532 27.9576L37.9662 36.573L29.3525 45.1852C29.0736 45.4641 29.0736 45.9163 29.3525 46.1953L30.9476 47.79C31.2265 48.0689 31.6788 48.0689 31.9578 47.79L40.5709 39.1783L49.1808 47.7904C49.4597 48.0694 49.9119 48.0694 50.1908 47.7904L51.7855 46.1953C52.0644 45.9164 52.0644 45.464 51.7855 45.1851L43.1762 36.5735L51.7897 27.9615C52.0686 27.6826 52.0686 27.2304 51.7897 26.9514L50.1947 25.3567C49.9157 25.0778 49.4634 25.0778 49.1844 25.3567L40.5715 33.9681L31.9579 25.3522Z"/>
</mask>
<path fill-rule="evenodd" clip-rule="evenodd" d="M31.9579 25.3522C31.679 25.0733 31.2268 25.0733 30.9479 25.3522L29.3532 26.9473C29.0743 27.2263 29.0743 27.6786 29.3532 27.9576L37.9662 36.573L29.3525 45.1852C29.0736 45.4641 29.0736 45.9163 29.3525 46.1953L30.9476 47.79C31.2265 48.0689 31.6788 48.0689 31.9578 47.79L40.5709 39.1783L49.1808 47.7904C49.4597 48.0694 49.9119 48.0694 50.1908 47.7904L51.7855 46.1953C52.0644 45.9164 52.0644 45.464 51.7855 45.1851L43.1762 36.5735L51.7897 27.9615C52.0686 27.6826 52.0686 27.2304 51.7897 26.9514L50.1947 25.3567C49.9157 25.0778 49.4634 25.0778 49.1844 25.3567L40.5715 33.9681L31.9579 25.3522Z" fill="url(#paint1_linear_28_1142)"/>
<path d="M30.9479 25.3522L32.4633 26.8673L32.4633 26.8673L30.9479 25.3522ZM31.9579 25.3522L30.4425 26.8673L31.9579 25.3522ZM29.3532 26.9473L27.8378 25.4323V25.4323L29.3532 26.9473ZM29.3532 27.9576L30.8686 26.4426L30.8686 26.4426L29.3532 27.9576ZM37.9662 36.573L39.4813 38.0883L40.9966 36.5733L39.4817 35.0579L37.9662 36.573ZM29.3525 45.1852L27.8374 43.6698L27.8374 43.6698L29.3525 45.1852ZM29.3525 46.1953L27.8374 47.7106L27.8374 47.7106L29.3525 46.1953ZM30.9476 47.79L32.4627 46.2747L32.4627 46.2747L30.9476 47.79ZM31.9578 47.79L33.4729 49.3054L33.4729 49.3054L31.9578 47.79ZM40.5709 39.1783L42.0864 37.6633L40.5713 36.1478L39.0558 37.663L40.5709 39.1783ZM49.1808 47.7904L50.6962 46.2754L50.6962 46.2754L49.1808 47.7904ZM50.1908 47.7904L48.6753 46.2754L48.6753 46.2754L50.1908 47.7904ZM51.7855 46.1953L50.27 44.6803L50.27 44.6803L51.7855 46.1953ZM51.7855 45.1851L50.27 46.7001L50.27 46.7001L51.7855 45.1851ZM43.1762 36.5735L41.6611 35.0582L40.1458 36.5732L41.6608 38.0886L43.1762 36.5735ZM51.7897 27.9615L53.3048 29.4769L53.3048 29.4769L51.7897 27.9615ZM51.7897 26.9514L53.3048 25.4361L53.3048 25.4361L51.7897 26.9514ZM50.1947 25.3567L51.7098 23.8413L51.7098 23.8413L50.1947 25.3567ZM49.1844 25.3567L47.6693 23.8413L47.6693 23.8413L49.1844 25.3567ZM40.5715 33.9681L39.0561 35.4832L40.5712 36.9987L42.0866 35.4835L40.5715 33.9681ZM32.4633 26.8673C31.9053 27.4254 31.0004 27.4254 30.4425 26.8673L33.4733 23.8372C32.3575 22.7211 30.5482 22.7211 29.4324 23.8372L32.4633 26.8673ZM30.8686 28.4624L32.4633 26.8673L29.4324 23.8372L27.8378 25.4323L30.8686 28.4624ZM30.8686 26.4426C31.4263 27.0004 31.4263 27.9046 30.8686 28.4624L27.8378 25.4323C26.7223 26.5481 26.7223 28.3569 27.8378 29.4727L30.8686 26.4426ZM39.4817 35.0579L30.8686 26.4426L27.8378 29.4727L36.4508 38.088L39.4817 35.0579ZM30.8676 46.7006L39.4813 38.0883L36.4511 35.0576L27.8374 43.6698L30.8676 46.7006ZM30.8676 44.6799C31.4257 45.2379 31.4257 46.1426 30.8676 46.7006L27.8374 43.6698C26.7215 44.7856 26.7215 46.5948 27.8374 47.7106L30.8676 44.6799ZM32.4627 46.2747L30.8676 44.6799L27.8374 47.7106L29.4325 49.3054L32.4627 46.2747ZM30.4427 46.2747C31.0005 45.7169 31.9048 45.7169 32.4627 46.2747L29.4325 49.3054C30.5482 50.421 32.3571 50.421 33.4729 49.3054L30.4427 46.2747ZM39.0558 37.663L30.4427 46.2747L33.4729 49.3054L42.086 40.6937L39.0558 37.663ZM50.6962 46.2754L42.0864 37.6633L39.0555 40.6934L47.6653 49.3055L50.6962 46.2754ZM48.6753 46.2754C49.2333 45.7173 50.1382 45.7173 50.6962 46.2754L47.6653 49.3055C48.7811 50.4216 50.5904 50.4216 51.7062 49.3055L48.6753 46.2754ZM50.27 44.6803L48.6753 46.2754L51.7062 49.3055L53.3009 47.7104L50.27 44.6803ZM50.27 46.7001C49.7124 46.1423 49.7124 45.2381 50.27 44.6803L53.3009 47.7104C54.4164 46.5946 54.4164 44.7858 53.3009 43.67L50.27 46.7001ZM41.6608 38.0886L50.27 46.7001L53.3009 43.67L44.6916 35.0585L41.6608 38.0886ZM50.2746 26.4461L41.6611 35.0582L44.6913 38.0889L53.3048 29.4769L50.2746 26.4461ZM50.2746 28.4668C49.7165 27.9088 49.7165 27.0041 50.2746 26.4461L53.3048 29.4769C54.4208 28.3611 54.4208 26.5519 53.3048 25.4361L50.2746 28.4668ZM48.6796 26.872L50.2746 28.4668L53.3048 25.4361L51.7098 23.8413L48.6796 26.872ZM50.6995 26.872C50.1417 27.4298 49.2374 27.4298 48.6796 26.872L51.7098 23.8413C50.594 22.7257 48.7851 22.7257 47.6693 23.8413L50.6995 26.872ZM42.0866 35.4835L50.6995 26.872L47.6693 23.8413L39.0564 32.4528L42.0866 35.4835ZM30.4425 26.8673L39.0561 35.4832L42.0869 32.4531L33.4733 23.8372L30.4425 26.8673Z" fill="black" mask="url(#path-4-outside-1_28_1142)"/>
</g>
</g>
<g filter="url(#filter1_d_28_1142)">
<path d="M63.5563 24.4998L60.3291 12.8635H62.1756L64.4427 21.8748H64.5506L66.9086 12.8635H68.7381L71.0961 21.8805H71.2041L73.4654 12.8635H75.3177L72.0847 24.4998H70.3177L67.8688 15.7839H67.7779L65.3291 24.4998H63.5563ZM79.5989 24.6759C78.7808 24.6759 78.0667 24.4884 77.4569 24.1134C76.847 23.7384 76.3736 23.2138 76.0364 22.5396C75.6993 21.8653 75.5308 21.0775 75.5308 20.1759C75.5308 19.2706 75.6993 18.479 76.0364 17.801C76.3736 17.1229 76.847 16.5964 77.4569 16.2214C78.0667 15.8464 78.7808 15.6589 79.5989 15.6589C80.4171 15.6589 81.1311 15.8464 81.741 16.2214C82.3508 16.5964 82.8243 17.1229 83.1614 17.801C83.4986 18.479 83.6671 19.2706 83.6671 20.1759C83.6671 21.0775 83.4986 21.8653 83.1614 22.5396C82.8243 23.2138 82.3508 23.7384 81.741 24.1134C81.1311 24.4884 80.4171 24.6759 79.5989 24.6759ZM79.6046 23.2498C80.1349 23.2498 80.5743 23.1097 80.9228 22.8294C81.2713 22.5491 81.5289 22.1759 81.6955 21.71C81.866 21.2441 81.9512 20.7309 81.9512 20.1703C81.9512 19.6135 81.866 19.1021 81.6955 18.6362C81.5289 18.1665 81.2713 17.7896 80.9228 17.5055C80.5743 17.2214 80.1349 17.0794 79.6046 17.0794C79.0705 17.0794 78.6273 17.2214 78.2751 17.5055C77.9266 17.7896 77.6671 18.1665 77.4967 18.6362C77.33 19.1021 77.2467 19.6135 77.2467 20.1703C77.2467 20.7309 77.33 21.2441 77.4967 21.71C77.6671 22.1759 77.9266 22.5491 78.2751 22.8294C78.6273 23.1097 79.0705 23.2498 79.6046 23.2498ZM87.2623 19.318V24.4998H85.5634V15.7725H87.1941V17.193H87.3021C87.5028 16.7309 87.8172 16.3597 88.2452 16.0794C88.6771 15.7991 89.2206 15.6589 89.8759 15.6589C90.4706 15.6589 90.9915 15.7839 91.4384 16.0339C91.8854 16.2801 92.232 16.6475 92.4782 17.1362C92.7244 17.6248 92.8475 18.229 92.8475 18.9487V24.4998H91.1487V19.1532C91.1487 18.5206 90.9839 18.0263 90.6543 17.6703C90.3248 17.3104 89.8721 17.1305 89.2964 17.1305C88.9024 17.1305 88.5521 17.2157 88.2452 17.3862C87.9422 17.5566 87.7017 17.8066 87.5237 18.1362C87.3494 18.4619 87.2623 18.8559 87.2623 19.318ZM96.5861 12.8635V13.9544C96.5861 14.2763 96.5255 14.6153 96.4043 14.9714C96.2869 15.3237 96.1202 15.6627 95.9043 15.9885C95.6884 16.3142 95.4346 16.5945 95.143 16.8294L94.3021 16.2271C94.5255 15.9013 94.7187 15.5547 94.8816 15.1873C95.0483 14.8199 95.1316 14.4146 95.1316 13.9714V12.8635H96.5861ZM102.637 15.7725V17.1362H97.8702V15.7725H102.637ZM99.1486 13.6816H100.848V21.9373C100.848 22.2669 100.897 22.515 100.995 22.6816C101.094 22.8445 101.221 22.9563 101.376 23.0169C101.535 23.0737 101.707 23.1021 101.893 23.1021C102.029 23.1021 102.149 23.0926 102.251 23.0737C102.353 23.0547 102.433 23.0396 102.49 23.0282L102.796 24.4316C102.698 24.4695 102.558 24.5074 102.376 24.5453C102.194 24.5869 101.967 24.6097 101.694 24.6134C101.247 24.621 100.83 24.5415 100.444 24.3748C100.058 24.2081 99.7452 23.9506 99.5066 23.6021C99.268 23.2536 99.1486 22.8161 99.1486 22.2896V13.6816ZM115.291 17.9032L113.751 18.176C113.687 17.979 113.584 17.7915 113.444 17.6135C113.308 17.4354 113.122 17.2896 112.887 17.176C112.652 17.0623 112.359 17.0055 112.007 17.0055C111.526 17.0055 111.124 17.1135 110.802 17.3294C110.48 17.5415 110.319 17.8161 110.319 18.1532C110.319 18.4449 110.427 18.6797 110.643 18.8578C110.859 19.0358 111.207 19.1816 111.688 19.2953L113.075 19.6134C113.878 19.7991 114.476 20.085 114.87 20.4714C115.264 20.8578 115.461 21.3597 115.461 21.9771C115.461 22.4998 115.31 22.9657 115.007 23.3748C114.707 23.7801 114.289 24.0983 113.751 24.3294C113.217 24.5604 112.598 24.6759 111.893 24.6759C110.916 24.6759 110.118 24.4676 109.501 24.0509C108.883 23.6305 108.505 23.0339 108.365 22.2612L110.007 22.0112C110.109 22.4392 110.319 22.7631 110.637 22.9828C110.955 23.1987 111.37 23.3066 111.882 23.3066C112.438 23.3066 112.883 23.1911 113.217 22.96C113.55 22.7252 113.717 22.4392 113.717 22.1021C113.717 21.8294 113.615 21.6002 113.41 21.4146C113.209 21.229 112.901 21.0888 112.484 20.9941L111.007 20.6703C110.192 20.4847 109.59 20.1892 109.2 19.7839C108.813 19.3786 108.62 18.8653 108.62 18.2441C108.62 17.729 108.764 17.2782 109.052 16.8919C109.34 16.5055 109.738 16.2044 110.245 15.9885C110.753 15.7688 111.334 15.6589 111.99 15.6589C112.933 15.6589 113.675 15.8635 114.217 16.2725C114.758 16.6778 115.116 17.2214 115.291 17.9032ZM122.857 20.8805V15.7725H124.562V24.4998H122.892V22.9884H122.801C122.6 23.4544 122.278 23.8426 121.835 24.1532C121.395 24.46 120.848 24.6134 120.193 24.6134C119.632 24.6134 119.136 24.4903 118.704 24.2441C118.276 23.9941 117.939 23.6248 117.693 23.1362C117.45 22.6475 117.329 22.0434 117.329 21.3237V15.7725H119.028V21.1191C119.028 21.7138 119.193 22.1873 119.522 22.5396C119.852 22.8919 120.28 23.068 120.806 23.068C121.124 23.068 121.441 22.9884 121.755 22.8294C122.073 22.6703 122.337 22.4297 122.545 22.1078C122.757 21.7858 122.861 21.3767 122.857 20.8805ZM126.845 27.7725V15.7725H128.504V17.1873H128.646C128.744 17.0055 128.886 16.7953 129.072 16.5566C129.258 16.318 129.515 16.1097 129.845 15.9316C130.174 15.7498 130.61 15.6589 131.151 15.6589C131.856 15.6589 132.485 15.8369 133.038 16.193C133.591 16.5491 134.025 17.0623 134.339 17.7328C134.657 18.4032 134.816 19.21 134.816 20.1532C134.816 21.0964 134.659 21.9051 134.345 22.5794C134.03 23.2498 133.598 23.7669 133.049 24.1305C132.5 24.4903 131.873 24.6703 131.169 24.6703C130.638 24.6703 130.205 24.5813 129.867 24.4032C129.534 24.2252 129.273 24.0169 129.083 23.7782C128.894 23.5396 128.748 23.3275 128.646 23.1419H128.544V27.7725H126.845ZM128.509 20.1362C128.509 20.7498 128.598 21.2877 128.776 21.7498C128.955 22.2119 129.212 22.5737 129.549 22.835C129.886 23.0926 130.299 23.2214 130.788 23.2214C131.295 23.2214 131.72 23.0869 132.061 22.818C132.401 22.5453 132.659 22.1759 132.833 21.71C133.011 21.2441 133.1 20.7195 133.1 20.1362C133.1 19.5604 133.013 19.0434 132.839 18.585C132.669 18.1267 132.411 17.765 132.066 17.4998C131.725 17.2347 131.299 17.1021 130.788 17.1021C130.295 17.1021 129.879 17.229 129.538 17.4828C129.201 17.7366 128.945 18.0907 128.771 18.5453C128.597 18.9998 128.509 19.5301 128.509 20.1362ZM136.72 27.7725V15.7725H138.379V17.1873H138.521C138.619 17.0055 138.761 16.7953 138.947 16.5566C139.133 16.318 139.39 16.1097 139.72 15.9316C140.049 15.7498 140.485 15.6589 141.026 15.6589C141.731 15.6589 142.36 15.8369 142.913 16.193C143.466 16.5491 143.9 17.0623 144.214 17.7328C144.532 18.4032 144.691 19.21 144.691 20.1532C144.691 21.0964 144.534 21.9051 144.22 22.5794C143.905 23.2498 143.473 23.7669 142.924 24.1305C142.375 24.4903 141.748 24.6703 141.044 24.6703C140.513 24.6703 140.08 24.5813 139.742 24.4032C139.409 24.2252 139.148 24.0169 138.958 23.7782C138.769 23.5396 138.623 23.3275 138.521 23.1419H138.419V27.7725H136.72ZM138.384 20.1362C138.384 20.7498 138.473 21.2877 138.651 21.7498C138.83 22.2119 139.087 22.5737 139.424 22.835C139.761 23.0926 140.174 23.2214 140.663 23.2214C141.17 23.2214 141.595 23.0869 141.936 22.818C142.276 22.5453 142.534 22.1759 142.708 21.71C142.886 21.2441 142.975 20.7195 142.975 20.1362C142.975 19.5604 142.888 19.0434 142.714 18.585C142.544 18.1267 142.286 17.765 141.941 17.4998C141.6 17.2347 141.174 17.1021 140.663 17.1021C140.17 17.1021 139.754 17.229 139.413 17.4828C139.076 17.7366 138.82 18.0907 138.646 18.5453C138.472 18.9998 138.384 19.5301 138.384 20.1362ZM150.271 24.6759C149.453 24.6759 148.739 24.4884 148.129 24.1134C147.519 23.7384 147.045 23.2138 146.708 22.5396C146.371 21.8653 146.203 21.0775 146.203 20.1759C146.203 19.2706 146.371 18.479 146.708 17.801C147.045 17.1229 147.519 16.5964 148.129 16.2214C148.739 15.8464 149.453 15.6589 150.271 15.6589C151.089 15.6589 151.803 15.8464 152.413 16.2214C153.023 16.5964 153.496 17.1229 153.833 17.801C154.17 18.479 154.339 19.2706 154.339 20.1759C154.339 21.0775 154.17 21.8653 153.833 22.5396C153.496 23.2138 153.023 23.7384 152.413 24.1134C151.803 24.4884 151.089 24.6759 150.271 24.6759ZM150.276 23.2498C150.807 23.2498 151.246 23.1097 151.595 22.8294C151.943 22.5491 152.201 22.1759 152.367 21.71C152.538 21.2441 152.623 20.7309 152.623 20.1703C152.623 19.6135 152.538 19.1021 152.367 18.6362C152.201 18.1665 151.943 17.7896 151.595 17.5055C151.246 17.2214 150.807 17.0794 150.276 17.0794C149.742 17.0794 149.299 17.2214 148.947 17.5055C148.598 17.7896 148.339 18.1665 148.169 18.6362C148.002 19.1021 147.919 19.6135 147.919 20.1703C147.919 20.7309 148.002 21.2441 148.169 21.71C148.339 22.1759 148.598 22.5491 148.947 22.8294C149.299 23.1097 149.742 23.2498 150.276 23.2498ZM156.235 24.4998V15.7725H157.877V17.1589H157.968C158.127 16.6892 158.408 16.3199 158.809 16.051C159.214 15.7782 159.673 15.6419 160.184 15.6419C160.29 15.6419 160.415 15.6456 160.559 15.6532C160.707 15.6608 160.822 15.6703 160.906 15.6816V17.3066C160.838 17.2877 160.716 17.2669 160.542 17.2441C160.368 17.2176 160.194 17.2044 160.019 17.2044C159.618 17.2044 159.26 17.2896 158.946 17.46C158.635 17.6267 158.389 17.8597 158.207 18.1589C158.025 18.4544 157.934 18.7915 157.934 19.1703V24.4998H156.235ZM166.965 15.7725V17.1362H162.198V15.7725H166.965ZM163.477 13.6816H165.176V21.9373C165.176 22.2669 165.225 22.515 165.323 22.6816C165.422 22.8445 165.549 22.9563 165.704 23.0169C165.863 23.0737 166.035 23.1021 166.221 23.1021C166.357 23.1021 166.477 23.0926 166.579 23.0737C166.681 23.0547 166.761 23.0396 166.818 23.0282L167.124 24.4316C167.026 24.4695 166.886 24.5074 166.704 24.5453C166.522 24.5869 166.295 24.6097 166.022 24.6134C165.575 24.621 165.159 24.5415 164.772 24.3748C164.386 24.2081 164.073 23.9506 163.835 23.6021C163.596 23.2536 163.477 22.8161 163.477 22.2896V13.6816Z" fill="#E7CDCD"/>
<path d="M60.9352 43.4998V31.1362H66.0425C66.9681 31.1362 67.767 31.3173 68.4391 31.6795C69.1153 32.0377 69.6365 32.5388 70.0027 33.1827C70.3689 33.8226 70.5521 34.5672 70.5521 35.4164C70.5521 36.2696 70.3649 37.0161 69.9906 37.6561C69.6204 38.292 69.0911 38.785 68.4029 39.1351C67.7147 39.4853 66.8977 39.6603 65.9519 39.6603H62.8006V37.3059H65.3965C65.8473 37.3059 66.2236 37.2274 66.5254 37.0705C66.8313 36.9135 67.0627 36.6942 67.2197 36.4125C67.3766 36.1267 67.4551 35.7947 67.4551 35.4164C67.4551 35.034 67.3766 34.704 67.2197 34.4263C67.0627 34.1446 66.8313 33.9273 66.5254 33.7743C66.2196 33.6214 65.8433 33.5449 65.3965 33.5449H63.9235V43.4998H60.9352ZM74.307 43.6568C73.7154 43.6568 73.1902 43.5582 72.7314 43.361C72.2766 43.1597 71.9164 42.8579 71.6508 42.4554C71.3892 42.0489 71.2584 41.5398 71.2584 40.9281C71.2584 40.4129 71.3489 39.9783 71.53 39.6241C71.7112 39.2699 71.9607 38.9822 72.2786 38.7608C72.5966 38.5395 72.9628 38.3724 73.3773 38.2598C73.7919 38.143 74.2346 38.0646 74.7055 38.0243C75.2327 37.976 75.6573 37.9257 75.9793 37.8734C76.3012 37.817 76.5347 37.7386 76.6795 37.638C76.8285 37.5333 76.9029 37.3864 76.9029 37.1973V37.1671C76.9029 36.8572 76.7963 36.6177 76.583 36.4487C76.3697 36.2796 76.0819 36.1951 75.7197 36.1951C75.3293 36.1951 75.0154 36.2796 74.7779 36.4487C74.5405 36.6177 74.3895 36.8511 74.3251 37.149L71.6025 37.0524C71.683 36.4889 71.8903 35.9858 72.2243 35.5431C72.5624 35.0964 73.0252 34.7463 73.6128 34.4927C74.2044 34.2351 74.9148 34.1063 75.7438 34.1063C76.3354 34.1063 76.8808 34.1768 77.3798 34.3176C77.8789 34.4545 78.3135 34.6557 78.6838 34.9213C79.0541 35.1829 79.3398 35.5049 79.5411 35.8872C79.7463 36.2696 79.8489 36.7063 79.8489 37.1973V43.4998H77.0719V42.2079H76.9995C76.8345 42.5218 76.6232 42.7875 76.3656 43.0048C76.1121 43.2221 75.8122 43.3851 75.4661 43.4938C75.124 43.6024 74.7377 43.6568 74.307 43.6568ZM75.2186 41.725C75.5366 41.725 75.8223 41.6606 76.0759 41.5318C76.3334 41.403 76.5387 41.2259 76.6916 41.0005C76.8446 40.7711 76.921 40.5055 76.921 40.2036V39.3223C76.8365 39.3665 76.7339 39.4068 76.6131 39.443C76.4964 39.4792 76.3676 39.5134 76.2268 39.5456C76.0859 39.5778 75.941 39.606 75.7921 39.6301C75.6432 39.6543 75.5003 39.6764 75.3635 39.6965C75.0858 39.7408 74.8483 39.8092 74.6511 39.9018C74.458 39.9944 74.309 40.1151 74.2044 40.264C74.1038 40.4089 74.0535 40.582 74.0535 40.7832C74.0535 41.0891 74.1621 41.3225 74.3795 41.4835C74.6008 41.6445 74.8805 41.725 75.2186 41.725ZM81.654 46.9771V34.2271H84.5759V35.8148H84.6664C84.7871 35.5331 84.9582 35.2614 85.1795 34.9998C85.4049 34.7382 85.6907 34.5249 86.0368 34.3599C86.3869 34.1909 86.8055 34.1063 87.2925 34.1063C87.9364 34.1063 88.5381 34.2754 89.0975 34.6135C89.661 34.9515 90.1157 35.4727 90.4619 36.177C90.808 36.8813 90.981 37.7788 90.981 38.8695C90.981 39.9199 90.814 40.7993 90.48 41.5076C90.15 42.216 89.7032 42.7472 89.1398 43.1014C88.5804 43.4555 87.9585 43.6326 87.2744 43.6326C86.8075 43.6326 86.403 43.5562 86.0609 43.4032C85.7188 43.2503 85.4311 43.0491 85.1977 42.7995C84.9683 42.55 84.7912 42.2824 84.6664 41.9966H84.606V46.9771H81.654ZM84.5457 38.8635C84.5457 39.3625 84.6121 39.7972 84.7449 40.1674C84.8817 40.5377 85.0769 40.8255 85.3305 41.0307C85.588 41.2319 85.8959 41.3326 86.2541 41.3326C86.6163 41.3326 86.9242 41.2319 87.1778 41.0307C87.4313 40.8255 87.6225 40.5377 87.7513 40.1674C87.8841 39.7972 87.9505 39.3625 87.9505 38.8635C87.9505 38.3644 87.8841 37.9318 87.7513 37.5655C87.6225 37.1993 87.4313 36.9155 87.1778 36.7143C86.9282 36.5131 86.6204 36.4125 86.2541 36.4125C85.8919 36.4125 85.584 36.5111 85.3305 36.7083C85.0769 36.9055 84.8817 37.1872 84.7449 37.5534C84.6121 37.9197 84.5457 38.3563 84.5457 38.8635ZM96.8625 43.6749C95.8926 43.6749 95.0555 43.4837 94.3512 43.1014C93.6509 42.715 93.1116 42.1657 92.7333 41.4533C92.359 40.7369 92.1718 39.8857 92.1718 38.8997C92.1718 37.9418 92.361 37.1047 92.7393 36.3883C93.1176 35.6679 93.6509 35.1085 94.3391 34.71C95.0273 34.3076 95.8382 34.1063 96.772 34.1063C97.432 34.1063 98.0357 34.209 98.583 34.4142C99.1304 34.6195 99.6033 34.9233 100.002 35.3258C100.4 35.7283 100.71 36.2253 100.931 36.8169C101.153 37.4045 101.263 38.0786 101.263 38.8393V39.5758H93.2041V37.8613H98.5166C98.5126 37.5474 98.4382 37.2677 98.2933 37.0222C98.1484 36.7767 97.9492 36.5855 97.6956 36.4487C97.4461 36.3078 97.1583 36.2374 96.8323 36.2374C96.5023 36.2374 96.2065 36.3118 95.9449 36.4608C95.6833 36.6056 95.476 36.8049 95.3231 37.0584C95.1702 37.3079 95.0897 37.5917 95.0816 37.9096V39.6543C95.0816 40.0326 95.1561 40.3646 95.305 40.6504C95.4539 40.9321 95.6652 41.1514 95.9389 41.3084C96.2125 41.4654 96.5385 41.5438 96.9168 41.5438C97.1784 41.5438 97.4159 41.5076 97.6292 41.4352C97.8425 41.3627 98.0256 41.2561 98.1786 41.1152C98.3315 40.9744 98.4462 40.8013 98.5227 40.596L101.233 40.6745C101.121 41.2822 100.873 41.8115 100.491 42.2622C100.112 42.709 99.6154 43.0571 98.9996 43.3066C98.3838 43.5521 97.6715 43.6749 96.8625 43.6749ZM102.771 43.4998V34.2271H105.639V35.9174H105.735C105.904 35.3057 106.18 34.8509 106.562 34.5531C106.945 34.2512 107.389 34.1003 107.897 34.1003C108.033 34.1003 108.174 34.1104 108.319 34.1305C108.464 34.1466 108.599 34.1728 108.724 34.209V36.7747C108.583 36.7264 108.398 36.6881 108.168 36.66C107.943 36.6318 107.742 36.6177 107.564 36.6177C107.214 36.6177 106.898 36.6962 106.617 36.8532C106.339 37.0061 106.12 37.2214 105.959 37.4991C105.802 37.7728 105.723 38.0947 105.723 38.465V43.4998H102.771Z" fill="white"/>
</g>
</g>
<rect x="1.04951" y="1.04982" width="177.9" height="53.9" rx="6.95" stroke="white" stroke-opacity="0.15" stroke-width="2.1"/>
<defs>
<filter id="filter0_d_28_1142" x="6.28523" y="2.28553" width="53.5709" height="53.5713" filterUnits="userSpaceOnUse" color-interpolation-filters="sRGB">
<feFlood flood-opacity="0" result="BackgroundImageFix"/>
<feColorMatrix in="SourceAlpha" type="matrix" values="0 0 0 0 0 0 0 0 0 0 0 0 0 0 0 0 0 0 127 0" result="hardAlpha"/>
<feOffset/>
<feGaussianBlur stdDeviation="2.85714"/>
<feComposite in2="hardAlpha" operator="out"/>
<feColorMatrix type="matrix" values="0 0 0 0 0 0 0 0 0 0 0 0 0 0 0 0 0 0 0.25 0"/>
<feBlend mode="normal" in2="BackgroundImageFix" result="effect1_dropShadow_28_1142"/>
<feBlend mode="normal" in="SourceGraphic" in2="effect1_dropShadow_28_1142" result="shape"/>
</filter>
<filter id="filter1_d_28_1142" x="54.3995" y="3.89982" width="119.2" height="48.6773" filterUnits="userSpaceOnUse" color-interpolation-filters="sRGB">
<feFlood flood-opacity="0" result="BackgroundImageFix"/>
<feColorMatrix in="SourceAlpha" type="matrix" values="0 0 0 0 0 0 0 0 0 0 0 0 0 0 0 0 0 0 127 0" result="hardAlpha"/>
<feOffset/>
<feGaussianBlur stdDeviation="2.8"/>
<feComposite in2="hardAlpha" operator="out"/>
<feColorMatrix type="matrix" values="0 0 0 0 0 0 0 0 0 0 0 0 0 0 0 0 0 0 0.25 0"/>
<feBlend mode="normal" in2="BackgroundImageFix" result="effect1_dropShadow_28_1142"/>
<feBlend mode="normal" in="SourceGraphic" in2="effect1_dropShadow_28_1142" result="shape"/>
</filter>
<linearGradient id="paint0_linear_28_1142" x1="89.9995" y1="-0.000183105" x2="89.9995" y2="55.9998" gradientUnits="userSpaceOnUse">
<stop stop-color="#2C1B1B"/>
<stop offset="1" stop-color="#1F1414"/>
</linearGradient>
<linearGradient id="paint1_linear_28_1142" x1="40.5711" y1="25.143" x2="40.5711" y2="47.9997" gradientUnits="userSpaceOnUse">
<stop stop-color="#FF0000"/>
<stop offset="1" stop-color="#CC0000"/>
</linearGradient>
<clipPath id="clip0_28_1142">
<rect x="-0.000488281" y="-0.000183105" width="180" height="56" rx="8" fill="white"/>
</clipPath>
</defs>
</svg>
