<svg width="180" height="56" viewBox="0 0 180 56" fill="none" xmlns="http://www.w3.org/2000/svg">
<g clip-path="url(#clip0_28_1109)">
<rect x="-0.000488281" y="-6.10352e-05" width="180" height="56" rx="8" fill="url(#paint0_linear_28_1109)"/>
<g filter="url(#filter0_d_28_1109)">
<path d="M23.1209 13.5364C23.1211 13.7238 23.1957 13.9035 23.3282 14.036C23.4607 14.1685 23.6404 14.243 23.8278 14.2432H25.0298V16.9299H23.8278C23.6403 16.9299 23.4605 17.0044 23.328 17.1369C23.1954 17.2695 23.1209 17.4493 23.1209 17.6368C23.1209 17.8242 23.1954 18.004 23.328 18.1366C23.4605 18.2691 23.6403 18.3436 23.8278 18.3436H25.0298V20.4041C25.0298 20.5702 24.9638 20.7295 24.8463 20.8469C24.7289 20.9643 24.5696 21.0303 24.4035 21.0303H22.3431V19.8283C22.3431 19.6409 22.2686 19.4611 22.136 19.3285C22.0035 19.196 21.8237 19.1215 21.6362 19.1215C21.4488 19.1215 21.269 19.196 21.1364 19.3285C21.0039 19.4611 20.9294 19.6409 20.9294 19.8283V21.0303H18.2427V19.8283C18.2427 19.6409 18.1682 19.4611 18.0357 19.3285C17.9031 19.196 17.7233 19.1215 17.5359 19.1215C17.3484 19.1215 17.1686 19.196 17.036 19.3285C16.9035 19.4611 16.829 19.6409 16.829 19.8283V21.0303H14.7686C14.6026 21.0301 14.4434 20.9641 14.326 20.8467C14.2086 20.7293 14.1425 20.5701 14.1423 20.4041V10.7691C14.1423 10.603 14.2083 10.4437 14.3258 10.3262C14.4432 10.2088 14.6025 10.1428 14.7686 10.1428H24.4035C24.4858 10.1427 24.5672 10.1588 24.6433 10.1903C24.7193 10.2217 24.7884 10.2678 24.8465 10.326C24.9047 10.3842 24.9508 10.4533 24.9823 10.5293C25.0137 10.6053 25.0299 10.6868 25.0298 10.7691V12.8288H23.8278C23.6403 12.829 23.4605 12.9036 23.3279 13.0363C23.1954 13.169 23.1209 13.3488 23.1209 13.5364Z" fill="#9722FF"/>
<path d="M35.4207 13.5364C35.4207 13.7238 35.4951 13.9036 35.6277 14.0362C35.7602 14.1687 35.94 14.2432 36.1275 14.2432H37.3329V16.9299H36.1309C35.9434 16.9299 35.7637 17.0044 35.6311 17.1369C35.4985 17.2695 35.4241 17.4493 35.4241 17.6368C35.4241 17.8242 35.4985 18.004 35.6311 18.1366C35.7637 18.2691 35.9434 18.3436 36.1309 18.3436H37.3329V20.4041C37.3327 20.5701 37.2667 20.7293 37.1493 20.8467C37.0318 20.9641 36.8727 21.0301 36.7066 21.0303H27.0703C26.9043 21.0303 26.745 20.9643 26.6275 20.8469C26.5101 20.7295 26.4441 20.5702 26.4441 20.4041V18.3436H27.6454C27.8328 18.3436 28.0126 18.2691 28.1452 18.1366C28.2778 18.004 28.3522 17.8242 28.3522 17.6368C28.3522 17.4493 28.2778 17.2695 28.1452 17.1369C28.0126 17.0044 27.8328 16.9299 27.6454 16.9299H26.4441V14.2432H27.6454C27.7401 14.2461 27.8344 14.23 27.9228 14.1958C28.0112 14.1616 28.0918 14.11 28.1598 14.044C28.2279 13.9781 28.282 13.8991 28.3189 13.8118C28.3559 13.7246 28.3749 13.6308 28.3749 13.536C28.3749 13.4412 28.3559 13.3474 28.3189 13.2602C28.282 13.1729 28.2279 13.094 28.1598 13.028C28.0918 12.962 28.0112 12.9104 27.9228 12.8762C27.8344 12.842 27.7401 12.8259 27.6454 12.8288H26.4441V10.7691C26.444 10.6868 26.4601 10.6053 26.4916 10.5293C26.523 10.4533 26.5691 10.3842 26.6273 10.326C26.6855 10.2678 26.7546 10.2217 26.8306 10.1903C26.9066 10.1588 26.9881 10.1427 27.0703 10.1428H36.7053C36.8714 10.1428 37.0306 10.2088 37.1481 10.3262C37.2655 10.4437 37.3315 10.603 37.3315 10.7691V12.8288H36.1295C36.0365 12.8286 35.9443 12.8467 35.8583 12.8821C35.7722 12.9175 35.694 12.9696 35.6282 13.0354C35.5623 13.1011 35.5101 13.1792 35.4745 13.2652C35.4388 13.3511 35.4206 13.4433 35.4207 13.5364Z" fill="#DC29DD"/>
<path d="M49.6328 10.7691V20.4041C49.6328 20.5702 49.5668 20.7295 49.4494 20.8469C49.3319 20.9643 49.1726 21.0303 49.0065 21.0303H46.9461V19.8283C46.9461 19.6409 46.8716 19.4611 46.7391 19.3285C46.6065 19.196 46.4267 19.1215 46.2393 19.1215C46.0518 19.1215 45.872 19.196 45.7394 19.3285C45.6069 19.4611 45.5324 19.6409 45.5324 19.8283V21.0303H42.8457V19.8283C42.8457 19.6409 42.7713 19.4611 42.6387 19.3285C42.5061 19.196 42.3264 19.1215 42.1389 19.1215C41.9514 19.1215 41.7716 19.196 41.6391 19.3285C41.5065 19.4611 41.432 19.6409 41.432 19.8283V21.0303H39.3716C39.2056 21.0301 39.0464 20.9641 38.929 20.8467C38.8116 20.7293 38.7455 20.5701 38.7454 20.4041V18.3436H39.9473C40.1348 18.3436 40.3146 18.2691 40.4472 18.1366C40.5797 18.004 40.6542 17.8242 40.6542 17.6368C40.6542 17.4493 40.5797 17.2695 40.4472 17.1369C40.3146 17.0044 40.1348 16.9299 39.9473 16.9299H38.7454V14.2432H39.9473C40.1311 14.2375 40.3054 14.1605 40.4334 14.0285C40.5613 13.8965 40.6329 13.7199 40.6329 13.536C40.6329 13.3522 40.5613 13.1755 40.4334 13.0435C40.3054 12.9115 40.1311 12.8345 39.9473 12.8288H38.7454V10.7691C38.7454 10.603 38.8113 10.4437 38.9288 10.3262C39.0462 10.2088 39.2055 10.1428 39.3716 10.1428H49.0065C49.0888 10.1427 49.1703 10.1588 49.2463 10.1903C49.3223 10.2217 49.3914 10.2678 49.4496 10.326C49.5077 10.3842 49.5539 10.4533 49.5853 10.5293C49.6167 10.6053 49.6329 10.6868 49.6328 10.7691Z" fill="#27A2FD"/>
<path d="M25.0298 23.0703V32.7053C25.0299 32.7876 25.0137 32.869 24.9823 32.9451C24.9508 33.0211 24.9047 33.0902 24.8465 33.1483C24.7884 33.2065 24.7193 33.2526 24.6433 33.2841C24.5672 33.3155 24.4858 33.3317 24.4035 33.3316H22.3431V32.1296C22.3431 31.9421 22.2686 31.7623 22.136 31.6298C22.0035 31.4972 21.8237 31.4227 21.6362 31.4227C21.4488 31.4227 21.269 31.4972 21.1364 31.6298C21.0039 31.7623 20.9294 31.9421 20.9294 32.1296V33.3329H18.2427V32.131C18.2427 31.9435 18.1682 31.7637 18.0357 31.6311C17.9031 31.4986 17.7233 31.4241 17.5359 31.4241C17.3484 31.4241 17.1686 31.4986 17.036 31.6311C16.9035 31.7637 16.829 31.9435 16.829 32.131V33.3329H14.7686C14.6025 33.3329 14.4432 33.267 14.3258 33.1495C14.2083 33.0321 14.1423 32.8728 14.1423 32.7067V23.0703C14.1425 22.9043 14.2086 22.7451 14.326 22.6277C14.4434 22.5103 14.6026 22.4442 14.7686 22.444H16.829V23.646C16.829 23.8335 16.9035 24.0133 17.036 24.1458C17.1686 24.2784 17.3484 24.3529 17.5359 24.3529C17.7233 24.3529 17.9031 24.2784 18.0357 24.1458C18.1682 24.0133 18.2427 23.8335 18.2427 23.646V22.444H20.9294V23.646C20.9294 23.8335 21.0039 24.0133 21.1364 24.1458C21.269 24.2784 21.4488 24.3529 21.6362 24.3529C21.8237 24.3529 22.0035 24.2784 22.136 24.1458C22.2686 24.0133 22.3431 23.8335 22.3431 23.646V22.444H24.4035C24.4857 22.444 24.5672 22.4602 24.6432 22.4917C24.7191 22.5232 24.7882 22.5693 24.8463 22.6275C24.9045 22.6856 24.9506 22.7547 24.9821 22.8306C25.0136 22.9066 25.0298 22.9881 25.0298 23.0703Z" fill="#DC29DD"/>
<path d="M35.4207 25.8376C35.4207 26.0251 35.4951 26.2049 35.6277 26.3374C35.7602 26.47 35.94 26.5444 36.1275 26.5444H37.3329V29.2312H36.1309C35.9434 29.2312 35.7637 29.3056 35.6311 29.4382C35.4985 29.5707 35.4241 29.7505 35.4241 29.938C35.4241 30.1255 35.4985 30.3053 35.6311 30.4378C35.7637 30.5704 35.9434 30.6449 36.1309 30.6449H37.3329V32.7053C37.3329 32.8714 37.2669 33.0307 37.1495 33.1481C37.032 33.2656 36.8727 33.3316 36.7066 33.3316H34.6448V32.1296C34.6448 31.9421 34.5704 31.7623 34.4378 31.6298C34.3052 31.4972 34.1255 31.4227 33.938 31.4227C33.7505 31.4227 33.5707 31.4972 33.4382 31.6298C33.3056 31.7623 33.2311 31.9421 33.2311 32.1296V33.3329H30.5445V32.131C30.5388 31.9472 30.4617 31.7729 30.3297 31.6449C30.1977 31.517 30.0211 31.4454 29.8373 31.4454C29.6534 31.4454 29.4768 31.517 29.3448 31.6449C29.2128 31.7729 29.1358 31.9472 29.1301 32.131V33.3329H27.0703C26.9881 33.333 26.9066 33.3169 26.8306 33.2854C26.7546 33.254 26.6855 33.2079 26.6273 33.1497C26.5691 33.0915 26.523 33.0225 26.4916 32.9464C26.4601 32.8704 26.444 32.7889 26.4441 32.7067V23.0703C26.4441 22.9042 26.5101 22.7449 26.6275 22.6275C26.745 22.51 26.9043 22.444 27.0703 22.444H36.7053C36.8713 22.4442 37.0305 22.5103 37.1479 22.6277C37.2653 22.7451 37.3313 22.9043 37.3315 23.0703V25.1307H36.1295C36.0365 25.1305 35.9444 25.1486 35.8584 25.184C35.7724 25.2194 35.6943 25.2714 35.6284 25.337C35.5626 25.4027 35.5103 25.4807 35.4747 25.5666C35.439 25.6525 35.4207 25.7446 35.4207 25.8376Z" fill="#27A2FD"/>
<path d="M49.6328 23.0703V32.7053C49.6329 32.7876 49.6167 32.8691 49.5853 32.9451C49.5539 33.0211 49.5077 33.0902 49.4496 33.1483C49.3914 33.2065 49.3223 33.2526 49.2463 33.2841C49.1703 33.3155 49.0888 33.3317 49.0065 33.3316H39.3716C39.2055 33.3316 39.0462 33.2656 38.9288 33.1481C38.8113 33.0307 38.7454 32.8714 38.7454 32.7053V30.6449H39.9473C40.1348 30.6449 40.3146 30.5704 40.4472 30.4378C40.5797 30.3053 40.6542 30.1255 40.6542 29.938C40.6542 29.7505 40.5797 29.5707 40.4472 29.4382C40.3146 29.3056 40.1348 29.2312 39.9473 29.2312H38.7454V26.5444H39.9473C40.1348 26.5444 40.3146 26.47 40.4472 26.3374C40.5797 26.2049 40.6542 26.0251 40.6542 25.8376C40.6542 25.6501 40.5797 25.4703 40.4472 25.3378C40.3146 25.2052 40.1348 25.1307 39.9473 25.1307H38.7454V23.0703C38.7455 22.9043 38.8116 22.7451 38.929 22.6277C39.0464 22.5103 39.2056 22.4442 39.3716 22.444H41.4307V23.646C41.4307 23.8335 41.5052 24.0133 41.6377 24.1458C41.7703 24.2784 41.9501 24.3529 42.1375 24.3529C42.325 24.3529 42.5048 24.2784 42.6373 24.1458C42.7699 24.0133 42.8444 23.8335 42.8444 23.646V22.444H45.531V23.646C45.531 23.8335 45.6055 24.0133 45.7381 24.1458C45.8706 24.2784 46.0504 24.3529 46.2379 24.3529C46.4254 24.3529 46.6051 24.2784 46.7377 24.1458C46.8703 24.0133 46.9447 23.8335 46.9447 23.646V22.444H49.0052C49.0875 22.4439 49.1691 22.4599 49.2452 22.4913C49.3214 22.5227 49.3906 22.5688 49.4489 22.627C49.5072 22.6851 49.5534 22.7542 49.585 22.8303C49.6165 22.9064 49.6328 22.9879 49.6328 23.0703Z" fill="#3344FF"/>
<path d="M23.1209 38.1395C23.1211 38.3269 23.1957 38.5066 23.3282 38.6391C23.4607 38.7716 23.6404 38.8462 23.8278 38.8464H25.0298V41.5324H23.8278C23.644 41.5381 23.4697 41.6151 23.3418 41.7471C23.2138 41.8791 23.1422 42.0557 23.1422 42.2396C23.1422 42.4234 23.2138 42.6 23.3418 42.732C23.4697 42.864 23.644 42.9411 23.8278 42.9468H25.0298V45.0072C25.0298 45.1733 24.9638 45.3326 24.8463 45.4501C24.7289 45.5675 24.5696 45.6335 24.4035 45.6335H14.7686C14.6026 45.6333 14.4434 45.5673 14.326 45.4499C14.2086 45.3324 14.1425 45.1733 14.1423 45.0072V35.3722C14.1423 35.2061 14.2083 35.0468 14.3258 34.9294C14.4432 34.8119 14.6025 34.7459 14.7686 34.7459H16.829V35.9472C16.829 36.1347 16.9035 36.3145 17.036 36.4471C17.1686 36.5796 17.3484 36.6541 17.5359 36.6541C17.7233 36.6541 17.9031 36.5796 18.0357 36.4471C18.1682 36.3145 18.2427 36.1347 18.2427 35.9472V34.7459H20.9294V35.9472C20.9294 36.1347 21.0039 36.3145 21.1364 36.4471C21.269 36.5796 21.4488 36.6541 21.6362 36.6541C21.8237 36.6541 22.0035 36.5796 22.136 36.4471C22.2686 36.3145 22.3431 36.1347 22.3431 35.9472V34.7459H24.4035C24.4858 34.7459 24.5672 34.762 24.6433 34.7934C24.7193 34.8249 24.7884 34.871 24.8465 34.9292C24.9047 34.9873 24.9508 35.0564 24.9823 35.1324C25.0137 35.2085 25.0299 35.2899 25.0298 35.3722V37.4306H23.8278C23.7348 37.4307 23.6428 37.4491 23.5569 37.4848C23.4711 37.5205 23.3931 37.5727 23.3274 37.6386C23.2618 37.7044 23.2098 37.7825 23.1743 37.8685C23.1389 37.9544 23.1208 38.0465 23.1209 38.1395Z" fill="#9722FF"/>
<path d="M37.3329 35.3722V45.0072C37.3327 45.1733 37.2667 45.3324 37.1493 45.4499C37.0318 45.5673 36.8727 45.6333 36.7066 45.6335H27.0703C26.9043 45.6335 26.745 45.5675 26.6275 45.4501C26.5101 45.3326 26.4441 45.1733 26.4441 45.0072V42.9468H27.6454C27.7401 42.9497 27.8344 42.9336 27.9228 42.8994C28.0112 42.8652 28.0918 42.8135 28.1598 42.7476C28.2279 42.6816 28.282 42.6027 28.3189 42.5154C28.3559 42.4281 28.3749 42.3343 28.3749 42.2396C28.3749 42.1448 28.3559 42.051 28.3189 41.9637C28.282 41.8765 28.2279 41.7975 28.1598 41.7316C28.0918 41.6656 28.0112 41.614 27.9228 41.5798C27.8344 41.5456 27.7401 41.5294 27.6454 41.5324H26.4441V38.8464H27.6454C27.7401 38.8493 27.8344 38.8332 27.9228 38.799C28.0112 38.7648 28.0918 38.7131 28.1598 38.6472C28.2279 38.5812 28.282 38.5023 28.3189 38.415C28.3559 38.3277 28.3749 38.2339 28.3749 38.1392C28.3749 38.0444 28.3559 37.9506 28.3189 37.8633C28.282 37.7761 28.2279 37.6971 28.1598 37.6312C28.0918 37.5652 28.0112 37.5136 27.9228 37.4794C27.8344 37.4451 27.7401 37.429 27.6454 37.432H26.4441V35.3722C26.444 35.2899 26.4601 35.2085 26.4916 35.1324C26.523 35.0564 26.5691 34.9873 26.6273 34.9292C26.6855 34.871 26.7546 34.8249 26.8306 34.7934C26.9066 34.762 26.9881 34.7459 27.0703 34.7459H29.1301V35.9472C29.1272 36.042 29.1433 36.1363 29.1775 36.2247C29.2117 36.3131 29.2633 36.3937 29.3293 36.4617C29.3952 36.5297 29.4742 36.5838 29.5615 36.6208C29.6487 36.6577 29.7425 36.6768 29.8373 36.6768C29.932 36.6768 30.0258 36.6577 30.1131 36.6208C30.2004 36.5838 30.2793 36.5297 30.3453 36.4617C30.4112 36.3937 30.4629 36.3131 30.4971 36.2247C30.5313 36.1363 30.5474 36.042 30.5445 35.9472V34.7459H33.2311V35.9472C33.2311 36.0401 33.2494 36.132 33.285 36.2177C33.3205 36.3035 33.3725 36.3814 33.4382 36.4471C33.5038 36.5127 33.5817 36.5648 33.6675 36.6003C33.7533 36.6358 33.8452 36.6541 33.938 36.6541C34.0308 36.6541 34.1227 36.6358 34.2085 36.6003C34.2942 36.5648 34.3722 36.5127 34.4378 36.4471C34.5034 36.3814 34.5555 36.3035 34.591 36.2177C34.6265 36.132 34.6448 36.0401 34.6448 35.9472V34.7459H36.7053C36.7876 34.7458 36.8692 34.7618 36.9453 34.7932C37.0215 34.8246 37.0907 34.8707 37.149 34.9289C37.2073 34.9871 37.2535 35.0562 37.2851 35.1322C37.3166 35.2083 37.3329 35.2898 37.3329 35.3722Z" fill="#3344FF"/>
<path d="M46.0009 35.1883L39.1879 42.0013C38.9434 42.2459 38.9434 42.6424 39.1879 42.887L46.0009 49.6999C46.2454 49.9445 46.6419 49.9445 46.8865 49.6999L53.6994 42.887C53.944 42.6424 53.944 42.2459 53.6994 42.0013L46.8865 35.1883C46.6419 34.9437 46.2454 34.9437 46.0009 35.1883Z" fill="#9722FF"/>
<g opacity="0.7">
<mask id="path-12-outside-1_28_1109" maskUnits="userSpaceOnUse" x="26.1433" y="22.1431" width="28" height="28" fill="black">
<rect fill="white" x="26.1433" y="22.1431" width="28" height="28"/>
<path fill-rule="evenodd" clip-rule="evenodd" d="M31.9579 25.3523C31.679 25.0734 31.2268 25.0734 30.9479 25.3523L29.3532 26.9474C29.0743 27.2264 29.0743 27.6787 29.3532 27.9577L37.9662 36.573L29.3525 45.1852C29.0736 45.4641 29.0736 45.9164 29.3525 46.1953L30.9476 47.79C31.2265 48.069 31.6788 48.069 31.9578 47.7901L40.5709 39.1784L49.1808 47.7905C49.4597 48.0695 49.9119 48.0695 50.1908 47.7905L51.7855 46.1954C52.0644 45.9164 52.0644 45.4641 51.7855 45.1851L43.1762 36.5736L51.7897 27.9615C52.0686 27.6826 52.0686 27.2304 51.7897 26.9515L50.1947 25.3567C49.9157 25.0778 49.4634 25.0778 49.1844 25.3567L40.5715 33.9682L31.9579 25.3523Z"/>
</mask>
<path fill-rule="evenodd" clip-rule="evenodd" d="M31.9579 25.3523C31.679 25.0734 31.2268 25.0734 30.9479 25.3523L29.3532 26.9474C29.0743 27.2264 29.0743 27.6787 29.3532 27.9577L37.9662 36.573L29.3525 45.1852C29.0736 45.4641 29.0736 45.9164 29.3525 46.1953L30.9476 47.79C31.2265 48.069 31.6788 48.069 31.9578 47.7901L40.5709 39.1784L49.1808 47.7905C49.4597 48.0695 49.9119 48.0695 50.1908 47.7905L51.7855 46.1954C52.0644 45.9164 52.0644 45.4641 51.7855 45.1851L43.1762 36.5736L51.7897 27.9615C52.0686 27.6826 52.0686 27.2304 51.7897 26.9515L50.1947 25.3567C49.9157 25.0778 49.4634 25.0778 49.1844 25.3567L40.5715 33.9682L31.9579 25.3523Z" fill="url(#paint1_linear_28_1109)"/>
<path d="M30.9479 25.3523L32.4633 26.8674L32.4633 26.8674L30.9479 25.3523ZM31.9579 25.3523L30.4425 26.8674L30.4425 26.8674L31.9579 25.3523ZM29.3532 26.9474L30.8686 28.4625L30.8686 28.4625L29.3532 26.9474ZM29.3532 27.9577L27.8378 29.4727L27.8378 29.4727L29.3532 27.9577ZM37.9662 36.573L39.4813 38.0884L40.9966 36.5733L39.4816 35.058L37.9662 36.573ZM29.3525 45.1852L27.8374 43.6699L27.8374 43.6699L29.3525 45.1852ZM29.3525 46.1953L27.8374 47.7106L27.8374 47.7107L29.3525 46.1953ZM30.9476 47.79L32.4627 46.2747L32.4627 46.2747L30.9476 47.79ZM31.9578 47.7901L33.4729 49.3054L33.4729 49.3054L31.9578 47.7901ZM40.5709 39.1784L42.0863 37.6634L40.5712 36.1479L39.0558 37.6631L40.5709 39.1784ZM49.1808 47.7905L50.6962 46.2755L50.6962 46.2755L49.1808 47.7905ZM50.1908 47.7905L48.6753 46.2755L48.6753 46.2755L50.1908 47.7905ZM51.7855 46.1954L50.27 44.6804L50.27 44.6804L51.7855 46.1954ZM51.7855 45.1851L53.3009 43.6701L53.3009 43.6701L51.7855 45.1851ZM43.1762 36.5736L41.6611 35.0582L40.1458 36.5733L41.6607 38.0886L43.1762 36.5736ZM51.7897 27.9615L53.3048 29.4769L53.3048 29.4769L51.7897 27.9615ZM51.7897 26.9515L53.3048 25.4361L53.3048 25.4361L51.7897 26.9515ZM50.1947 25.3567L51.7098 23.8414L51.7098 23.8413L50.1947 25.3567ZM49.1844 25.3567L47.6693 23.8413L47.6693 23.8414L49.1844 25.3567ZM40.5715 33.9682L39.056 35.4832L40.5711 36.9987L42.0866 35.4836L40.5715 33.9682ZM32.4633 26.8674C31.9053 27.4255 31.0004 27.4255 30.4425 26.8674L33.4733 23.8373C32.3575 22.7212 30.5482 22.7212 29.4324 23.8373L32.4633 26.8674ZM30.8686 28.4625L32.4633 26.8674L29.4324 23.8373L27.8378 25.4324L30.8686 28.4625ZM30.8686 26.4427C31.4263 27.0005 31.4263 27.9047 30.8686 28.4625L27.8378 25.4324C26.7223 26.5482 26.7223 28.357 27.8378 29.4727L30.8686 26.4427ZM39.4816 35.058L30.8686 26.4427L27.8378 29.4727L36.4508 38.088L39.4816 35.058ZM30.8676 46.7006L39.4813 38.0884L36.4511 35.0577L27.8374 43.6699L30.8676 46.7006ZM30.8676 44.6799C31.4257 45.2379 31.4257 46.1426 30.8676 46.7006L27.8374 43.6699C26.7215 44.7857 26.7215 46.5949 27.8374 47.7106L30.8676 44.6799ZM32.4627 46.2747L30.8676 44.6799L27.8374 47.7107L29.4325 49.3054L32.4627 46.2747ZM30.4427 46.2747C31.0005 45.7169 31.9048 45.7169 32.4627 46.2747L29.4325 49.3054C30.5482 50.421 32.3571 50.421 33.4729 49.3054L30.4427 46.2747ZM39.0558 37.6631L30.4427 46.2747L33.4729 49.3054L42.086 40.6938L39.0558 37.6631ZM50.6962 46.2755L42.0863 37.6634L39.0555 40.6934L47.6653 49.3056L50.6962 46.2755ZM48.6753 46.2755C49.2333 45.7174 50.1382 45.7174 50.6962 46.2755L47.6653 49.3056C48.7811 50.4216 50.5904 50.4216 51.7062 49.3056L48.6753 46.2755ZM50.27 44.6804L48.6753 46.2755L51.7062 49.3056L53.3009 47.7105L50.27 44.6804ZM50.27 46.7002C49.7124 46.1424 49.7124 45.2382 50.27 44.6804L53.3009 47.7105C54.4164 46.5947 54.4164 44.7859 53.3009 43.6701L50.27 46.7002ZM41.6607 38.0886L50.27 46.7002L53.3009 43.6701L44.6916 35.0586L41.6607 38.0886ZM50.2746 26.4462L41.6611 35.0582L44.6913 38.0889L53.3048 29.4769L50.2746 26.4462ZM50.2746 28.4668C49.7165 27.9089 49.7165 27.0041 50.2746 26.4462L53.3048 29.4769C54.4208 28.3611 54.4208 26.5519 53.3048 25.4361L50.2746 28.4668ZM48.6796 26.8721L50.2746 28.4668L53.3048 25.4361L51.7098 23.8414L48.6796 26.8721ZM50.6995 26.8721C50.1417 27.4298 49.2374 27.4298 48.6796 26.8721L51.7098 23.8413C50.594 22.7258 48.7851 22.7258 47.6693 23.8413L50.6995 26.8721ZM42.0866 35.4836L50.6995 26.8721L47.6693 23.8414L39.0564 32.4528L42.0866 35.4836ZM30.4425 26.8674L39.056 35.4832L42.0869 32.4532L33.4733 23.8373L30.4425 26.8674Z" fill="black" mask="url(#path-12-outside-1_28_1109)"/>
</g>
</g>
<g filter="url(#filter1_d_28_1109)">
<path d="M63.5563 24.4999L60.3291 12.8636H62.1756L64.4427 21.8749H64.5506L66.9086 12.8636H68.7381L71.0961 21.8806H71.2041L73.4654 12.8636H75.3177L72.0847 24.4999H70.3177L67.8688 15.784H67.7779L65.3291 24.4999H63.5563ZM79.5989 24.6761C78.7808 24.6761 78.0667 24.4886 77.4569 24.1136C76.847 23.7386 76.3736 23.2139 76.0364 22.5397C75.6993 21.8655 75.5308 21.0776 75.5308 20.1761C75.5308 19.2708 75.6993 18.4791 76.0364 17.8011C76.3736 17.123 76.847 16.5965 77.4569 16.2215C78.0667 15.8465 78.7808 15.659 79.5989 15.659C80.4171 15.659 81.1311 15.8465 81.741 16.2215C82.3508 16.5965 82.8243 17.123 83.1614 17.8011C83.4986 18.4791 83.6671 19.2708 83.6671 20.1761C83.6671 21.0776 83.4986 21.8655 83.1614 22.5397C82.8243 23.2139 82.3508 23.7386 81.741 24.1136C81.1311 24.4886 80.4171 24.6761 79.5989 24.6761ZM79.6046 23.2499C80.1349 23.2499 80.5743 23.1098 80.9228 22.8295C81.2713 22.5492 81.5289 22.1761 81.6955 21.7102C81.866 21.2443 81.9512 20.731 81.9512 20.1704C81.9512 19.6136 81.866 19.1022 81.6955 18.6363C81.5289 18.1666 81.2713 17.7897 80.9228 17.5056C80.5743 17.2215 80.1349 17.0795 79.6046 17.0795C79.0705 17.0795 78.6273 17.2215 78.2751 17.5056C77.9266 17.7897 77.6671 18.1666 77.4967 18.6363C77.33 19.1022 77.2467 19.6136 77.2467 20.1704C77.2467 20.731 77.33 21.2443 77.4967 21.7102C77.6671 22.1761 77.9266 22.5492 78.2751 22.8295C78.6273 23.1098 79.0705 23.2499 79.6046 23.2499ZM87.2623 19.3181V24.4999H85.5634V15.7727H87.1941V17.1931H87.3021C87.5028 16.731 87.8172 16.3598 88.2452 16.0795C88.6771 15.7992 89.2206 15.659 89.8759 15.659C90.4706 15.659 90.9915 15.784 91.4384 16.034C91.8854 16.2802 92.232 16.6477 92.4782 17.1363C92.7244 17.6249 92.8475 18.2291 92.8475 18.9488V24.4999H91.1487V19.1533C91.1487 18.5208 90.9839 18.0265 90.6543 17.6704C90.3248 17.3105 89.8721 17.1306 89.2964 17.1306C88.9024 17.1306 88.5521 17.2158 88.2452 17.3863C87.9422 17.5568 87.7017 17.8068 87.5237 18.1363C87.3494 18.4621 87.2623 18.856 87.2623 19.3181ZM96.5861 12.8636V13.9545C96.5861 14.2765 96.5255 14.6155 96.4043 14.9715C96.2869 15.3238 96.1202 15.6628 95.9043 15.9886C95.6884 16.3143 95.4346 16.5946 95.143 16.8295L94.3021 16.2272C94.5255 15.9015 94.7187 15.5549 94.8816 15.1874C95.0483 14.82 95.1316 14.4147 95.1316 13.9715V12.8636H96.5861ZM102.637 15.7727V17.1363H97.8702V15.7727H102.637ZM99.1486 13.6818H100.848V21.9374C100.848 22.267 100.897 22.5151 100.995 22.6818C101.094 22.8446 101.221 22.9564 101.376 23.017C101.535 23.0738 101.707 23.1022 101.893 23.1022C102.029 23.1022 102.149 23.0927 102.251 23.0738C102.353 23.0549 102.433 23.0397 102.49 23.0283L102.796 24.4318C102.698 24.4696 102.558 24.5075 102.376 24.5454C102.194 24.5871 101.967 24.6098 101.694 24.6136C101.247 24.6211 100.83 24.5416 100.444 24.3749C100.058 24.2083 99.7452 23.9507 99.5066 23.6022C99.268 23.2537 99.1486 22.8162 99.1486 22.2897V13.6818ZM115.291 17.9033L113.751 18.1761C113.687 17.9791 113.584 17.7916 113.444 17.6136C113.308 17.4355 113.122 17.2897 112.887 17.1761C112.652 17.0624 112.359 17.0056 112.007 17.0056C111.526 17.0056 111.124 17.1136 110.802 17.3295C110.48 17.5416 110.319 17.8162 110.319 18.1533C110.319 18.445 110.427 18.6799 110.643 18.8579C110.859 19.0359 111.207 19.1818 111.688 19.2954L113.075 19.6136C113.878 19.7992 114.476 20.0852 114.87 20.4715C115.264 20.8579 115.461 21.3598 115.461 21.9772C115.461 22.4999 115.31 22.9658 115.007 23.3749C114.707 23.7802 114.289 24.0984 113.751 24.3295C113.217 24.5605 112.598 24.6761 111.893 24.6761C110.916 24.6761 110.118 24.4677 109.501 24.0511C108.883 23.6306 108.505 23.034 108.365 22.2613L110.007 22.0113C110.109 22.4393 110.319 22.7632 110.637 22.9829C110.955 23.1988 111.37 23.3068 111.882 23.3068C112.438 23.3068 112.883 23.1912 113.217 22.9602C113.55 22.7253 113.717 22.4393 113.717 22.1022C113.717 21.8295 113.615 21.6003 113.41 21.4147C113.209 21.2291 112.901 21.089 112.484 20.9943L111.007 20.6704C110.192 20.4848 109.59 20.1893 109.2 19.784C108.813 19.3787 108.62 18.8655 108.62 18.2443C108.62 17.7291 108.764 17.2783 109.052 16.892C109.34 16.5056 109.738 16.2045 110.245 15.9886C110.753 15.7689 111.334 15.659 111.99 15.659C112.933 15.659 113.675 15.8636 114.217 16.2727C114.758 16.678 115.116 17.2215 115.291 17.9033ZM122.857 20.8806V15.7727H124.562V24.4999H122.892V22.9886H122.801C122.6 23.4545 122.278 23.8427 121.835 24.1533C121.395 24.4602 120.848 24.6136 120.193 24.6136C119.632 24.6136 119.136 24.4905 118.704 24.2443C118.276 23.9943 117.939 23.6249 117.693 23.1363C117.45 22.6477 117.329 22.0435 117.329 21.3238V15.7727H119.028V21.1193C119.028 21.714 119.193 22.1874 119.522 22.5397C119.852 22.892 120.28 23.0681 120.806 23.0681C121.124 23.0681 121.441 22.9886 121.755 22.8295C122.073 22.6704 122.337 22.4299 122.545 22.1079C122.757 21.7859 122.861 21.3768 122.857 20.8806ZM126.845 27.7727V15.7727H128.504V17.1874H128.646C128.744 17.0056 128.886 16.7954 129.072 16.5568C129.258 16.3181 129.515 16.1098 129.845 15.9318C130.174 15.7499 130.61 15.659 131.151 15.659C131.856 15.659 132.485 15.8371 133.038 16.1931C133.591 16.5492 134.025 17.0624 134.339 17.7329C134.657 18.4033 134.816 19.2102 134.816 20.1533C134.816 21.0965 134.659 21.9052 134.345 22.5795C134.03 23.2499 133.598 23.767 133.049 24.1306C132.5 24.4905 131.873 24.6704 131.169 24.6704C130.638 24.6704 130.205 24.5814 129.867 24.4033C129.534 24.2253 129.273 24.017 129.083 23.7783C128.894 23.5397 128.748 23.3276 128.646 23.142H128.544V27.7727H126.845ZM128.509 20.1363C128.509 20.7499 128.598 21.2878 128.776 21.7499C128.955 22.2121 129.212 22.5738 129.549 22.8352C129.886 23.0927 130.299 23.2215 130.788 23.2215C131.295 23.2215 131.72 23.0871 132.061 22.8181C132.401 22.5454 132.659 22.1761 132.833 21.7102C133.011 21.2443 133.1 20.7196 133.1 20.1363C133.1 19.5605 133.013 19.0435 132.839 18.5852C132.669 18.1268 132.411 17.7651 132.066 17.4999C131.725 17.2348 131.299 17.1022 130.788 17.1022C130.295 17.1022 129.879 17.2291 129.538 17.4829C129.201 17.7367 128.945 18.0908 128.771 18.5454C128.597 18.9999 128.509 19.5302 128.509 20.1363ZM136.72 27.7727V15.7727H138.379V17.1874H138.521C138.619 17.0056 138.761 16.7954 138.947 16.5568C139.133 16.3181 139.39 16.1098 139.72 15.9318C140.049 15.7499 140.485 15.659 141.026 15.659C141.731 15.659 142.36 15.8371 142.913 16.1931C143.466 16.5492 143.9 17.0624 144.214 17.7329C144.532 18.4033 144.691 19.2102 144.691 20.1533C144.691 21.0965 144.534 21.9052 144.22 22.5795C143.905 23.2499 143.473 23.767 142.924 24.1306C142.375 24.4905 141.748 24.6704 141.044 24.6704C140.513 24.6704 140.08 24.5814 139.742 24.4033C139.409 24.2253 139.148 24.017 138.958 23.7783C138.769 23.5397 138.623 23.3276 138.521 23.142H138.419V27.7727H136.72ZM138.384 20.1363C138.384 20.7499 138.473 21.2878 138.651 21.7499C138.83 22.2121 139.087 22.5738 139.424 22.8352C139.761 23.0927 140.174 23.2215 140.663 23.2215C141.17 23.2215 141.595 23.0871 141.936 22.8181C142.276 22.5454 142.534 22.1761 142.708 21.7102C142.886 21.2443 142.975 20.7196 142.975 20.1363C142.975 19.5605 142.888 19.0435 142.714 18.5852C142.544 18.1268 142.286 17.7651 141.941 17.4999C141.6 17.2348 141.174 17.1022 140.663 17.1022C140.17 17.1022 139.754 17.2291 139.413 17.4829C139.076 17.7367 138.82 18.0908 138.646 18.5454C138.472 18.9999 138.384 19.5302 138.384 20.1363ZM150.271 24.6761C149.453 24.6761 148.739 24.4886 148.129 24.1136C147.519 23.7386 147.045 23.2139 146.708 22.5397C146.371 21.8655 146.203 21.0776 146.203 20.1761C146.203 19.2708 146.371 18.4791 146.708 17.8011C147.045 17.123 147.519 16.5965 148.129 16.2215C148.739 15.8465 149.453 15.659 150.271 15.659C151.089 15.659 151.803 15.8465 152.413 16.2215C153.023 16.5965 153.496 17.123 153.833 17.8011C154.17 18.4791 154.339 19.2708 154.339 20.1761C154.339 21.0776 154.17 21.8655 153.833 22.5397C153.496 23.2139 153.023 23.7386 152.413 24.1136C151.803 24.4886 151.089 24.6761 150.271 24.6761ZM150.276 23.2499C150.807 23.2499 151.246 23.1098 151.595 22.8295C151.943 22.5492 152.201 22.1761 152.367 21.7102C152.538 21.2443 152.623 20.731 152.623 20.1704C152.623 19.6136 152.538 19.1022 152.367 18.6363C152.201 18.1666 151.943 17.7897 151.595 17.5056C151.246 17.2215 150.807 17.0795 150.276 17.0795C149.742 17.0795 149.299 17.2215 148.947 17.5056C148.598 17.7897 148.339 18.1666 148.169 18.6363C148.002 19.1022 147.919 19.6136 147.919 20.1704C147.919 20.731 148.002 21.2443 148.169 21.7102C148.339 22.1761 148.598 22.5492 148.947 22.8295C149.299 23.1098 149.742 23.2499 150.276 23.2499ZM156.235 24.4999V15.7727H157.877V17.159H157.968C158.127 16.6893 158.408 16.32 158.809 16.0511C159.214 15.7783 159.673 15.642 160.184 15.642C160.29 15.642 160.415 15.6458 160.559 15.6533C160.707 15.6609 160.822 15.6704 160.906 15.6818V17.3068C160.838 17.2878 160.716 17.267 160.542 17.2443C160.368 17.2177 160.194 17.2045 160.019 17.2045C159.618 17.2045 159.26 17.2897 158.946 17.4602C158.635 17.6268 158.389 17.8598 158.207 18.159C158.025 18.4545 157.934 18.7916 157.934 19.1704V24.4999H156.235ZM166.965 15.7727V17.1363H162.198V15.7727H166.965ZM163.477 13.6818H165.176V21.9374C165.176 22.267 165.225 22.5151 165.323 22.6818C165.422 22.8446 165.549 22.9564 165.704 23.017C165.863 23.0738 166.035 23.1022 166.221 23.1022C166.357 23.1022 166.477 23.0927 166.579 23.0738C166.681 23.0549 166.761 23.0397 166.818 23.0283L167.124 24.4318C167.026 24.4696 166.886 24.5075 166.704 24.5454C166.522 24.5871 166.295 24.6098 166.022 24.6136C165.575 24.6211 165.159 24.5416 164.772 24.3749C164.386 24.2083 164.073 23.9507 163.835 23.6022C163.596 23.2537 163.477 22.8162 163.477 22.2897V13.6818Z" fill="#E7CDCD"/>
<path d="M65.6622 39.0568H68.0769L69.1032 40.3668L70.4494 41.9122L72.5201 44.4658H69.8156L68.3667 42.7332L67.5095 41.5017L65.6622 39.0568ZM72.6046 37.3181C72.6046 38.6784 72.343 39.8315 71.8198 40.7773C71.2966 41.7231 70.5883 42.4415 69.6948 42.9325C68.8054 43.4235 67.8073 43.669 66.7005 43.669C65.5897 43.669 64.5896 43.4215 63.7002 42.9264C62.8107 42.4314 62.1044 41.713 61.5812 40.7712C61.062 39.8255 60.8024 38.6744 60.8024 37.3181C60.8024 35.9578 61.062 34.8047 61.5812 33.859C62.1044 32.9132 62.8107 32.1948 63.7002 31.7038C64.5896 31.2128 65.5897 30.9673 66.7005 30.9673C67.8073 30.9673 68.8054 31.2128 69.6948 31.7038C70.5883 32.1948 71.2966 32.9132 71.8198 33.859C72.343 34.8047 72.6046 35.9578 72.6046 37.3181ZM69.5499 37.3181C69.5499 36.5132 69.4352 35.833 69.2058 35.2776C68.9805 34.7222 68.6545 34.3017 68.2278 34.0159C67.8053 33.7302 67.2961 33.5873 66.7005 33.5873C66.1089 33.5873 65.5998 33.7302 65.1732 34.0159C64.7466 34.3017 64.4185 34.7222 64.1891 35.2776C63.9638 35.833 63.8511 36.5132 63.8511 37.3181C63.8511 38.123 63.9638 38.8032 64.1891 39.3586C64.4185 39.914 64.7466 40.3346 65.1732 40.6203C65.5998 40.9061 66.1089 41.0489 66.7005 41.0489C67.2961 41.0489 67.8053 40.9061 68.2278 40.6203C68.6545 40.3346 68.9805 39.914 69.2058 39.3586C69.4352 38.8032 69.5499 38.123 69.5499 37.3181ZM80.3485 39.4974V34.2272H83.2945V43.4999H80.4813V41.7734H80.3847C80.1795 42.3408 79.8293 42.7916 79.3343 43.1256C78.8433 43.4557 78.2497 43.6207 77.5534 43.6207C76.9215 43.6207 76.3661 43.4758 75.8872 43.186C75.4083 42.8962 75.036 42.4918 74.7704 41.9726C74.5047 41.4494 74.3699 40.8376 74.3659 40.1374V34.2272H77.318V39.5578C77.322 40.0609 77.4548 40.4573 77.7164 40.7471C77.978 41.0369 78.3342 41.1818 78.7849 41.1818C79.0787 41.1818 79.3423 41.1174 79.5758 40.9886C79.8132 40.8558 80.0004 40.6646 80.1372 40.4151C80.2781 40.1615 80.3485 39.8556 80.3485 39.4974ZM85.1735 43.4999V34.2272H88.1256V43.4999H85.1735ZM86.6526 33.1466C86.238 33.1466 85.8818 33.0098 85.584 32.7361C85.2862 32.4584 85.1373 32.1243 85.1373 31.734C85.1373 31.3476 85.2862 31.0176 85.584 30.7439C85.8818 30.4662 86.238 30.3274 86.6526 30.3274C87.0711 30.3274 87.4273 30.4662 87.7211 30.7439C88.0189 31.0176 88.1678 31.3476 88.1678 31.734C88.1678 32.1243 88.0189 32.4584 87.7211 32.7361C87.4273 33.0098 87.0711 33.1466 86.6526 33.1466ZM92.9566 31.1363V43.4999H90.0046V31.1363H92.9566ZM100.07 34.2272V36.4005H94.2198V34.2272H100.07ZM95.4453 32.0056H98.3974V40.5841C98.3974 40.7652 98.4256 40.9121 98.4819 41.0248C98.5423 41.1335 98.6288 41.2119 98.7415 41.2602C98.8542 41.3045 98.989 41.3266 99.146 41.3266C99.2587 41.3266 99.3774 41.3166 99.5022 41.2965C99.631 41.2723 99.7275 41.2522 99.7919 41.2361L100.239 43.3671C100.098 43.4074 99.8986 43.4577 99.641 43.518C99.3875 43.5784 99.0836 43.6166 98.7294 43.6327C98.0372 43.6649 97.4436 43.5845 96.9485 43.3913C96.4575 43.1941 96.0812 42.8882 95.8196 42.4737C95.5621 42.0591 95.4373 41.5379 95.4453 40.9101V32.0056Z" fill="url(#paint2_linear_28_1109)"/>
</g>
</g>
<rect x="1.04951" y="1.04994" width="177.9" height="53.9" rx="6.95" stroke="white" stroke-opacity="0.15" stroke-width="2.1"/>
<defs>
<filter id="filter0_d_28_1109" x="6.28523" y="2.28565" width="53.5709" height="53.5713" filterUnits="userSpaceOnUse" color-interpolation-filters="sRGB">
<feFlood flood-opacity="0" result="BackgroundImageFix"/>
<feColorMatrix in="SourceAlpha" type="matrix" values="0 0 0 0 0 0 0 0 0 0 0 0 0 0 0 0 0 0 127 0" result="hardAlpha"/>
<feOffset/>
<feGaussianBlur stdDeviation="2.85714"/>
<feComposite in2="hardAlpha" operator="out"/>
<feColorMatrix type="matrix" values="0 0 0 0 0 0 0 0 0 0 0 0 0 0 0 0 0 0 0.25 0"/>
<feBlend mode="normal" in2="BackgroundImageFix" result="effect1_dropShadow_28_1109"/>
<feBlend mode="normal" in="SourceGraphic" in2="effect1_dropShadow_28_1109" result="shape"/>
</filter>
<filter id="filter1_d_28_1109" x="54.3995" y="3.89994" width="119.2" height="48.2" filterUnits="userSpaceOnUse" color-interpolation-filters="sRGB">
<feFlood flood-opacity="0" result="BackgroundImageFix"/>
<feColorMatrix in="SourceAlpha" type="matrix" values="0 0 0 0 0 0 0 0 0 0 0 0 0 0 0 0 0 0 127 0" result="hardAlpha"/>
<feOffset/>
<feGaussianBlur stdDeviation="2.8"/>
<feComposite in2="hardAlpha" operator="out"/>
<feColorMatrix type="matrix" values="0 0 0 0 0 0 0 0 0 0 0 0 0 0 0 0 0 0 0.25 0"/>
<feBlend mode="normal" in2="BackgroundImageFix" result="effect1_dropShadow_28_1109"/>
<feBlend mode="normal" in="SourceGraphic" in2="effect1_dropShadow_28_1109" result="shape"/>
</filter>
<linearGradient id="paint0_linear_28_1109" x1="89.9995" y1="-6.10351e-05" x2="89.9995" y2="55.9999" gradientUnits="userSpaceOnUse">
<stop stop-color="#2C1B1B"/>
<stop offset="1" stop-color="#1F1414"/>
</linearGradient>
<linearGradient id="paint1_linear_28_1109" x1="40.5711" y1="25.1431" x2="40.5711" y2="47.9998" gradientUnits="userSpaceOnUse">
<stop stop-color="#FF0000"/>
<stop offset="1" stop-color="#CC0000"/>
</linearGradient>
<linearGradient id="paint2_linear_28_1109" x1="59.9995" y1="28.5" x2="101" y2="28.5" gradientUnits="userSpaceOnUse">
<stop stop-color="#E17BE1"/>
<stop offset="1" stop-color="#98A1FF"/>
</linearGradient>
<clipPath id="clip0_28_1109">
<rect x="-0.000488281" y="-6.10352e-05" width="180" height="56" rx="8" fill="white"/>
</clipPath>
</defs>
</svg>
