<svg width="131" height="40" viewBox="0 0 131 40" fill="none" xmlns="http://www.w3.org/2000/svg">
<g clip-path="url(#clip0_28_1167)">
<rect x="-0.000488281" y="-6.10352e-05" width="131" height="40" rx="6" fill="url(#paint0_linear_28_1167)"/>
<g filter="url(#filter0_d_28_1167)">
<g clip-path="url(#clip1_28_1167)">
<path d="M36.5995 5.99994H11.3995C10.6295 5.99994 9.99951 6.62994 9.99951 7.39994V32.5999C9.99951 33.3699 10.6295 33.9999 11.3995 33.9999H13.6535C13.4155 27.6019 13.6395 26.6499 14.0875 26.0199C14.6335 25.2359 14.8575 25.1379 15.6835 24.4799C16.3835 23.9199 16.1315 23.0099 15.6275 22.3519C15.3195 21.9459 14.8855 21.4699 14.5495 21.0079C14.3395 20.6999 14.8575 18.8939 15.0535 18.2359C15.2495 17.5779 15.5855 15.4359 18.5255 14.8619C19.6315 14.6379 22.6695 14.4839 24.7555 14.6099C24.7415 14.5259 24.7135 14.4279 24.6995 14.3299C24.6575 14.1619 24.6295 13.9799 24.5875 13.7839C24.5455 13.6019 24.5035 13.4059 24.4615 13.2099C24.4195 13.0139 24.3635 12.8179 24.3215 12.6079C24.2655 12.3979 24.2235 12.2019 24.1535 11.9919C24.0415 11.5719 23.9015 11.1659 23.7335 10.7739C23.6495 10.5779 23.5655 10.3959 23.4675 10.2279C23.3695 10.0739 23.2715 9.93394 23.1875 9.87794C23.1735 9.86394 23.1595 9.84994 23.1455 9.84994H23.1315H23.1595C23.1595 9.84994 23.1735 9.84994 23.1595 9.84994L23.1175 9.83594H23.0895L23.0335 9.82194H22.9635C22.7815 9.80794 22.5855 9.80794 22.3755 9.82194C21.9695 9.84994 21.5355 9.93394 21.1155 10.0319C20.6955 10.1299 20.2895 10.2559 19.8975 10.3679C19.7295 10.4239 19.5755 10.4799 19.4215 10.5219C19.4355 10.6479 19.4495 10.7599 19.4495 10.8859C19.4495 12.7059 17.9795 14.1759 16.1595 14.1759C14.3395 14.1759 12.8835 12.7059 12.8835 10.8859C12.8835 9.06594 14.3535 7.59594 16.1735 7.59594C17.3915 7.59594 18.4555 8.25394 19.0295 9.24794C19.1695 9.19194 19.3235 9.13594 19.4775 9.07994C19.8695 8.92594 20.3035 8.77194 20.7515 8.63194C21.2135 8.49194 21.6895 8.35194 22.2215 8.28194C22.4875 8.23994 22.7675 8.22594 23.0755 8.23994H23.1875C23.2295 8.23994 23.2715 8.25394 23.2995 8.25394H23.3975L23.4395 8.26794H23.4535L23.4955 8.28194C23.4955 8.28194 23.5235 8.28194 23.5375 8.29594L23.5935 8.30994C23.6775 8.33794 23.7195 8.35194 23.7755 8.37994C23.8315 8.40794 23.8735 8.42194 23.9295 8.44994C24.0275 8.50594 24.1115 8.56194 24.1955 8.61794C24.3495 8.74394 24.4755 8.86994 24.5735 8.99594C24.6855 9.12194 24.7695 9.24794 24.8535 9.37394C25.0215 9.62594 25.1475 9.86394 25.2595 10.1019C25.4835 10.5779 25.6655 11.0539 25.8055 11.5019L26.0155 12.1739C26.0855 12.3979 26.1275 12.6079 26.1835 12.8179C26.2115 12.9159 26.2395 13.0279 26.2535 13.1259C26.2815 13.2239 26.2955 13.3219 26.3235 13.4199C26.3655 13.6159 26.4075 13.8119 26.4495 13.9939C26.5055 14.2739 26.5475 14.5399 26.5895 14.7779C29.7255 15.0859 32.1195 15.4919 33.1975 16.5699C34.7795 18.1099 35.9975 25.1099 35.1995 33.9999H36.5995C37.3695 33.9999 37.9995 33.3699 37.9995 32.5999V7.39994C37.9995 6.62994 37.3695 5.99994 36.5995 5.99994V5.99994Z" fill="#F7CF0D"/>
<path d="M22.7955 25.7119C22.6135 26.2159 22.4595 32.1099 24.1955 32.1099C25.9315 32.1099 25.9455 26.0619 25.8895 25.7119C25.8335 25.3759 22.9775 25.2219 22.7955 25.7119ZM20.4995 19.9999C19.3095 19.8319 18.5955 25.6279 20.2615 25.9639C21.8295 26.2719 21.6755 20.1679 20.4995 19.9999ZM28.3115 19.9999C27.1215 19.8319 26.4075 25.6279 28.0735 25.9639C29.6415 26.2719 29.5015 20.1679 28.3115 19.9999Z" fill="#F7CF0D"/>
</g>
<g opacity="0.7">
<mask id="path-5-outside-1_28_1167" maskUnits="userSpaceOnUse" x="20" y="16" width="20" height="20" fill="black">
<rect fill="white" x="20" y="16" width="20" height="20"/>
<path fill-rule="evenodd" clip-rule="evenodd" d="M23.9702 18.1465C23.775 17.9512 23.4585 17.9512 23.2632 18.1465L22.1469 19.263C21.9517 19.4583 21.9517 19.7749 22.1469 19.9702L28.1761 26.0009L22.1465 32.0295C21.9512 32.2248 21.9512 32.5413 22.1465 32.7366L23.263 33.8529C23.4583 34.0481 23.7749 34.0481 23.9701 33.8529L29.9993 27.8247L36.0262 33.8532C36.2215 34.0485 36.538 34.0485 36.7333 33.8532L37.8495 32.7366C38.0448 32.5413 38.0448 32.2247 37.8495 32.0294L31.823 26.0013L37.8525 19.9729C38.0477 19.7777 38.0477 19.4611 37.8525 19.2659L36.7359 18.1496C36.5407 17.9543 36.2241 17.9543 36.0288 18.1496L29.9997 24.1776L23.9702 18.1465Z"/>
</mask>
<path fill-rule="evenodd" clip-rule="evenodd" d="M23.9702 18.1465C23.775 17.9512 23.4585 17.9512 23.2632 18.1465L22.1469 19.263C21.9517 19.4583 21.9517 19.7749 22.1469 19.9702L28.1761 26.0009L22.1465 32.0295C21.9512 32.2248 21.9512 32.5413 22.1465 32.7366L23.263 33.8529C23.4583 34.0481 23.7749 34.0481 23.9701 33.8529L29.9993 27.8247L36.0262 33.8532C36.2215 34.0485 36.538 34.0485 36.7333 33.8532L37.8495 32.7366C38.0448 32.5413 38.0448 32.2247 37.8495 32.0294L31.823 26.0013L37.8525 19.9729C38.0477 19.7777 38.0477 19.4611 37.8525 19.2659L36.7359 18.1496C36.5407 17.9543 36.2241 17.9543 36.0288 18.1496L29.9997 24.1776L23.9702 18.1465Z" fill="url(#paint1_linear_28_1167)"/>
<path d="M23.2632 18.1465L24.324 19.207L23.2632 18.1465ZM23.9702 18.1465L22.9094 19.207L22.9094 19.207L23.9702 18.1465ZM22.1469 19.263L21.0861 18.2025L21.0861 18.2025L22.1469 19.263ZM22.1469 19.9702L21.0861 21.0308L21.0861 21.0308L22.1469 19.9702ZM28.1761 26.0009L29.2366 27.0617L30.2973 26.0012L29.2369 24.9404L28.1761 26.0009ZM22.1465 32.0295L21.0859 30.9688L21.0859 30.9688L22.1465 32.0295ZM22.1465 32.7366L21.0859 33.7973L21.0859 33.7973L22.1465 32.7366ZM23.263 33.8529L24.3236 32.7921L24.3235 32.7921L23.263 33.8529ZM23.9701 33.8529L22.9096 32.7921L22.9096 32.7921L23.9701 33.8529ZM29.9993 27.8247L31.0601 26.7642L29.9996 25.7033L28.9388 26.764L29.9993 27.8247ZM36.0262 33.8532L34.9654 34.9137L34.9654 34.9137L36.0262 33.8532ZM36.7333 33.8532L37.7941 34.9137L37.7941 34.9137L36.7333 33.8532ZM37.8495 32.7366L36.7887 31.6761L36.7887 31.6761L37.8495 32.7366ZM37.8495 32.0294L36.7887 33.09L36.7887 33.09L37.8495 32.0294ZM31.823 26.0013L30.7625 24.9406L29.7018 26.0011L30.7622 27.0619L31.823 26.0013ZM37.8525 19.9729L38.913 21.0337L38.913 21.0337L37.8525 19.9729ZM37.8525 19.2659L36.7919 20.3266L36.7919 20.3266L37.8525 19.2659ZM36.7359 18.1496L35.6754 19.2103L35.6754 19.2103L36.7359 18.1496ZM36.0288 18.1496L34.9682 17.0888L34.9682 17.0888L36.0288 18.1496ZM29.9997 24.1776L28.9389 25.2381L29.9995 26.2989L31.0603 25.2383L29.9997 24.1776ZM24.324 19.207C23.9334 19.5977 23.3 19.5977 22.9094 19.207L25.031 17.0859C24.25 16.3047 22.9835 16.3047 22.2024 17.0859L24.324 19.207ZM23.2077 20.3236L24.324 19.207L22.2024 17.0859L21.0861 18.2025L23.2077 20.3236ZM23.2077 18.9097C23.5981 19.3002 23.5981 19.9331 23.2077 20.3236L21.0861 18.2025C20.3053 18.9836 20.3053 20.2497 21.0861 21.0308L23.2077 18.9097ZM29.2369 24.9404L23.2077 18.9097L21.0861 21.0308L27.1153 27.0615L29.2369 24.9404ZM23.207 33.0903L29.2366 27.0617L27.1155 24.9402L21.0859 30.9688L23.207 33.0903ZM23.207 31.6758C23.5977 32.0664 23.5977 32.6997 23.207 33.0903L21.0859 30.9688C20.3047 31.7498 20.3047 33.0163 21.0859 33.7973L23.207 31.6758ZM24.3235 32.7921L23.207 31.6758L21.0859 33.7973L22.2024 34.9136L24.3235 32.7921ZM22.9096 32.7921C23.3001 32.4017 23.9331 32.4017 24.3236 32.7921L22.2024 34.9136C22.9834 35.6946 24.2497 35.6946 25.0307 34.9136L22.9096 32.7921ZM28.9388 26.764L22.9096 32.7921L25.0307 34.9136L31.0599 28.8855L28.9388 26.764ZM37.087 32.7927L31.0601 26.7642L28.9385 28.8852L34.9654 34.9137L37.087 32.7927ZM35.6725 32.7927C36.063 32.402 36.6965 32.402 37.087 32.7927L34.9654 34.9137C35.7465 35.695 37.013 35.695 37.7941 34.9137L35.6725 32.7927ZM36.7887 31.6761L35.6725 32.7927L37.7941 34.9137L38.9103 33.7972L36.7887 31.6761ZM36.7887 33.09C36.3984 32.6995 36.3984 32.0666 36.7887 31.6761L38.9103 33.7972C39.6912 33.0161 39.6912 31.75 38.9103 30.9689L36.7887 33.09ZM30.7622 27.0619L36.7887 33.09L38.9103 30.9689L32.8838 24.9408L30.7622 27.0619ZM36.7919 18.9122L30.7625 24.9406L32.8836 27.0621L38.913 21.0337L36.7919 18.9122ZM36.7919 20.3266C36.4013 19.9361 36.4013 19.3027 36.7919 18.9122L38.913 21.0337C39.6942 20.2526 39.6942 18.9862 38.913 18.2051L36.7919 20.3266ZM35.6754 19.2103L36.7919 20.3266L38.913 18.2051L37.7965 17.0888L35.6754 19.2103ZM37.0893 19.2103C36.6989 19.6007 36.0659 19.6007 35.6754 19.2103L37.7965 17.0888C37.0155 16.3079 35.7492 16.3079 34.9682 17.0888L37.0893 19.2103ZM31.0603 25.2383L37.0893 19.2103L34.9682 17.0888L28.9392 23.1168L31.0603 25.2383ZM22.9094 19.207L28.9389 25.2381L31.0605 23.117L25.031 17.0859L22.9094 19.207Z" fill="black" mask="url(#path-5-outside-1_28_1167)"/>
</g>
</g>
<g filter="url(#filter1_d_28_1167)">
<path d="M48.4448 17.9999L46.2261 9.99994H47.4956L49.0542 16.1952H49.1284L50.7495 9.99994H52.0073L53.6284 16.1992H53.7026L55.2573 9.99994H56.5308L54.3081 17.9999H53.0933L51.4097 12.0078H51.3472L49.6636 17.9999H48.4448ZM59.4741 18.121C58.9116 18.121 58.4207 17.9921 58.0015 17.7343C57.5822 17.4765 57.2567 17.1158 57.0249 16.6523C56.7931 16.1887 56.6772 15.6471 56.6772 15.0273C56.6772 14.4049 56.7931 13.8606 57.0249 13.3945C57.2567 12.9283 57.5822 12.5663 58.0015 12.3085C58.4207 12.0507 58.9116 11.9218 59.4741 11.9218C60.0366 11.9218 60.5275 12.0507 60.9468 12.3085C61.366 12.5663 61.6916 12.9283 61.9233 13.3945C62.1551 13.8606 62.271 14.4049 62.271 15.0273C62.271 15.6471 62.1551 16.1887 61.9233 16.6523C61.6916 17.1158 61.366 17.4765 60.9468 17.7343C60.5275 17.9921 60.0366 18.121 59.4741 18.121ZM59.478 17.1406C59.8426 17.1406 60.1447 17.0442 60.3843 16.8515C60.6239 16.6588 60.8009 16.4023 60.9155 16.082C61.0327 15.7617 61.0913 15.4088 61.0913 15.0234C61.0913 14.6406 61.0327 14.289 60.9155 13.9687C60.8009 13.6458 60.6239 13.3867 60.3843 13.1913C60.1447 12.996 59.8426 12.8984 59.478 12.8984C59.1108 12.8984 58.8061 12.996 58.564 13.1913C58.3244 13.3867 58.146 13.6458 58.0288 13.9687C57.9142 14.289 57.8569 14.6406 57.8569 15.0234C57.8569 15.4088 57.9142 15.7617 58.0288 16.082C58.146 16.4023 58.3244 16.6588 58.564 16.8515C58.8061 17.0442 59.1108 17.1406 59.478 17.1406ZM64.7427 14.4374V17.9999H63.5747V11.9999H64.6958V12.9765H64.77C64.908 12.6588 65.1242 12.4036 65.4185 12.2109C65.7153 12.0182 66.089 11.9218 66.5395 11.9218C66.9484 11.9218 67.3065 12.0078 67.6138 12.1796C67.9211 12.3489 68.1593 12.6015 68.3286 12.9374C68.4979 13.2734 68.5825 13.6887 68.5825 14.1835V17.9999H67.4145V14.3242C67.4145 13.8893 67.3013 13.5494 67.0747 13.3046C66.8481 13.0572 66.5369 12.9335 66.1411 12.9335C65.8703 12.9335 65.6294 12.9921 65.4185 13.1093C65.2101 13.2265 65.0448 13.3984 64.9224 13.6249C64.8026 13.8489 64.7427 14.1197 64.7427 14.4374ZM71.1528 9.99994V10.7499C71.1528 10.9713 71.1112 11.2044 71.0278 11.4492C70.9471 11.6913 70.8325 11.9244 70.6841 12.1484C70.5356 12.3723 70.3612 12.565 70.1606 12.7265L69.5825 12.3124C69.7362 12.0885 69.869 11.8502 69.9809 11.5976C70.0955 11.345 70.1528 11.0663 70.1528 10.7617V9.99994H71.1528ZM75.313 11.9999V12.9374H72.0356V11.9999H75.313ZM72.9145 10.5624H74.0825V16.2382C74.0825 16.4648 74.1164 16.6354 74.1841 16.7499C74.2518 16.8619 74.339 16.9387 74.4458 16.9804C74.5552 17.0195 74.6737 17.039 74.8013 17.039C74.895 17.039 74.977 17.0325 75.0474 17.0195C75.1177 17.0064 75.1724 16.996 75.2114 16.9882L75.4224 17.9531C75.3546 17.9791 75.2583 18.0051 75.1333 18.0312C75.0083 18.0598 74.852 18.0755 74.6645 18.0781C74.3573 18.0833 74.0708 18.0286 73.8052 17.914C73.5395 17.7994 73.3247 17.6223 73.1606 17.3827C72.9966 17.1432 72.9145 16.8424 72.9145 16.4804V10.5624ZM84.0122 13.4648L82.9536 13.6523C82.9093 13.5169 82.839 13.388 82.7427 13.2656C82.6489 13.1432 82.5213 13.0429 82.3599 12.9648C82.1984 12.8867 81.9966 12.8476 81.7544 12.8476C81.4237 12.8476 81.1476 12.9218 80.9263 13.0702C80.7049 13.2161 80.5942 13.4049 80.5942 13.6367C80.5942 13.8372 80.6684 13.9986 80.8169 14.121C80.9653 14.2434 81.2049 14.3437 81.5356 14.4218L82.4888 14.6406C83.0408 14.7682 83.4523 14.9648 83.7231 15.2304C83.994 15.496 84.1294 15.8411 84.1294 16.2656C84.1294 16.6249 84.0252 16.9452 83.8169 17.2265C83.6112 17.5051 83.3234 17.7239 82.9536 17.8827C82.5864 18.0416 82.1606 18.121 81.6763 18.121C81.0044 18.121 80.4562 17.9778 80.0317 17.6913C79.6072 17.4023 79.3468 16.9921 79.2505 16.4609L80.3794 16.289C80.4497 16.5833 80.5942 16.8059 80.813 16.957C81.0317 17.1054 81.3169 17.1796 81.6684 17.1796C82.0513 17.1796 82.3572 17.1002 82.5864 16.9413C82.8156 16.7799 82.9302 16.5833 82.9302 16.3515C82.9302 16.164 82.8599 16.0064 82.7192 15.8788C82.5812 15.7512 82.369 15.6549 82.0825 15.5898L81.0669 15.3671C80.507 15.2395 80.0929 15.0364 79.8247 14.7577C79.5591 14.4791 79.4263 14.1262 79.4263 13.6992C79.4263 13.345 79.5252 13.0351 79.7231 12.7695C79.9211 12.5038 80.1945 12.2968 80.5434 12.1484C80.8924 11.9973 81.2921 11.9218 81.7427 11.9218C82.3911 11.9218 82.9015 12.0624 83.2739 12.3437C83.6463 12.6223 83.8924 12.996 84.0122 13.4648ZM89.2143 15.5117V11.9999H90.3862V17.9999H89.2378V16.9609H89.1753C89.0373 17.2812 88.8159 17.5481 88.5112 17.7617C88.2091 17.9726 87.8328 18.0781 87.3823 18.0781C86.9969 18.0781 86.6557 17.9934 86.3589 17.8242C86.0646 17.6523 85.8328 17.3984 85.6636 17.0624C85.4969 16.7265 85.4136 16.3111 85.4136 15.8163V11.9999H86.5815V15.6757C86.5815 16.0846 86.6948 16.4101 86.9214 16.6523C87.1479 16.8945 87.4422 17.0156 87.8042 17.0156C88.0229 17.0156 88.2404 16.9609 88.4565 16.8515C88.6753 16.7421 88.8563 16.5768 88.9995 16.3554C89.1453 16.1341 89.2169 15.8528 89.2143 15.5117ZM91.9556 20.2499V11.9999H93.0962V12.9726H93.1938C93.2615 12.8476 93.3592 12.7031 93.4868 12.539C93.6144 12.3749 93.7915 12.2317 94.0181 12.1093C94.2446 11.9843 94.5441 11.9218 94.9165 11.9218C95.4009 11.9218 95.8332 12.0442 96.2134 12.289C96.5936 12.5338 96.8917 12.8867 97.1079 13.3476C97.3266 13.8085 97.436 14.3632 97.436 15.0117C97.436 15.6601 97.3279 16.2161 97.1118 16.6796C96.8957 17.1406 96.5988 17.496 96.2212 17.746C95.8436 17.9934 95.4126 18.1171 94.9282 18.1171C94.5636 18.1171 94.2654 18.0559 94.0337 17.9335C93.8045 17.8111 93.6248 17.6679 93.4946 17.5038C93.3644 17.3398 93.2641 17.1939 93.1938 17.0663H93.1235V20.2499H91.9556ZM93.1001 14.9999C93.1001 15.4218 93.1613 15.7916 93.2837 16.1093C93.4061 16.427 93.5832 16.6757 93.8149 16.8554C94.0467 17.0325 94.3306 17.121 94.6665 17.121C95.0154 17.121 95.3071 17.0286 95.5415 16.8437C95.7759 16.6562 95.9529 16.4023 96.0727 16.082C96.1951 15.7617 96.2563 15.401 96.2563 14.9999C96.2563 14.6041 96.1964 14.2486 96.0766 13.9335C95.9595 13.6184 95.7824 13.3697 95.5454 13.1874C95.311 13.0051 95.0181 12.914 94.6665 12.914C94.3279 12.914 94.0415 13.0012 93.8071 13.1757C93.5753 13.3502 93.3996 13.5937 93.2798 13.9062C93.16 14.2187 93.1001 14.5833 93.1001 14.9999ZM98.7446 20.2499V11.9999H99.8852V12.9726H99.9829C100.051 12.8476 100.148 12.7031 100.276 12.539C100.403 12.3749 100.581 12.2317 100.807 12.1093C101.034 11.9843 101.333 11.9218 101.706 11.9218C102.19 11.9218 102.622 12.0442 103.002 12.289C103.383 12.5338 103.681 12.8867 103.897 13.3476C104.116 13.8085 104.225 14.3632 104.225 15.0117C104.225 15.6601 104.117 16.2161 103.901 16.6796C103.685 17.1406 103.388 17.496 103.01 17.746C102.633 17.9934 102.202 18.1171 101.717 18.1171C101.353 18.1171 101.055 18.0559 100.823 17.9335C100.594 17.8111 100.414 17.6679 100.284 17.5038C100.153 17.3398 100.053 17.1939 99.9829 17.0663H99.9126V20.2499H98.7446ZM99.8891 14.9999C99.8891 15.4218 99.9503 15.7916 100.073 16.1093C100.195 16.427 100.372 16.6757 100.604 16.8554C100.836 17.0325 101.12 17.121 101.456 17.121C101.805 17.121 102.096 17.0286 102.331 16.8437C102.565 16.6562 102.742 16.4023 102.862 16.082C102.984 15.7617 103.045 15.401 103.045 14.9999C103.045 14.6041 102.985 14.2486 102.866 13.9335C102.749 13.6184 102.571 13.3697 102.334 13.1874C102.1 13.0051 101.807 12.914 101.456 12.914C101.117 12.914 100.831 13.0012 100.596 13.1757C100.364 13.3502 100.189 13.5937 100.069 13.9062C99.949 14.2187 99.8891 14.5833 99.8891 14.9999ZM108.061 18.121C107.499 18.121 107.008 17.9921 106.588 17.7343C106.169 17.4765 105.844 17.1158 105.612 16.6523C105.38 16.1887 105.264 15.6471 105.264 15.0273C105.264 14.4049 105.38 13.8606 105.612 13.3945C105.844 12.9283 106.169 12.5663 106.588 12.3085C107.008 12.0507 107.499 11.9218 108.061 11.9218C108.624 11.9218 109.114 12.0507 109.534 12.3085C109.953 12.5663 110.278 12.9283 110.51 13.3945C110.742 13.8606 110.858 14.4049 110.858 15.0273C110.858 15.6471 110.742 16.1887 110.51 16.6523C110.278 17.1158 109.953 17.4765 109.534 17.7343C109.114 17.9921 108.624 18.121 108.061 18.121ZM108.065 17.1406C108.43 17.1406 108.732 17.0442 108.971 16.8515C109.211 16.6588 109.388 16.4023 109.502 16.082C109.62 15.7617 109.678 15.4088 109.678 15.0234C109.678 14.6406 109.62 14.289 109.502 13.9687C109.388 13.6458 109.211 13.3867 108.971 13.1913C108.732 12.996 108.43 12.8984 108.065 12.8984C107.698 12.8984 107.393 12.996 107.151 13.1913C106.911 13.3867 106.733 13.6458 106.616 13.9687C106.501 14.289 106.444 14.6406 106.444 15.0234C106.444 15.4088 106.501 15.7617 106.616 16.082C106.733 16.4023 106.911 16.6588 107.151 16.8515C107.393 17.0442 107.698 17.1406 108.065 17.1406ZM112.162 17.9999V11.9999H113.291V12.9531H113.353C113.462 12.6301 113.655 12.3762 113.931 12.1913C114.21 12.0038 114.525 11.9101 114.876 11.9101C114.949 11.9101 115.035 11.9127 115.134 11.9179C115.236 11.9231 115.315 11.9296 115.373 11.9374V13.0546C115.326 13.0416 115.242 13.0273 115.123 13.0117C115.003 12.9934 114.883 12.9843 114.763 12.9843C114.487 12.9843 114.241 13.0429 114.025 13.1601C113.811 13.2747 113.642 13.4348 113.517 13.6406C113.392 13.8437 113.33 14.0755 113.33 14.3359V17.9999H112.162ZM119.539 11.9999V12.9374H116.261V11.9999H119.539ZM117.14 10.5624H118.308V16.2382C118.308 16.4648 118.342 16.6354 118.41 16.7499C118.477 16.8619 118.565 16.9387 118.671 16.9804C118.781 17.0195 118.899 17.039 119.027 17.039C119.121 17.039 119.203 17.0325 119.273 17.0195C119.343 17.0064 119.398 16.996 119.437 16.9882L119.648 17.9531C119.58 17.9791 119.484 18.0051 119.359 18.0312C119.234 18.0598 119.078 18.0755 118.89 18.0781C118.583 18.0833 118.296 18.0286 118.031 17.914C117.765 17.7994 117.55 17.6223 117.386 17.3827C117.222 17.1432 117.14 16.8424 117.14 16.4804V10.5624Z" fill="#E7CDCD"/>
<path d="M51.3774 24.8891C51.3489 24.5766 51.2225 24.3337 50.9981 24.1604C50.7765 23.9843 50.4597 23.8962 50.0478 23.8962C49.7751 23.8962 49.5478 23.9318 49.366 24.0028C49.1842 24.0738 49.0478 24.1718 48.9569 24.2968C48.866 24.419 48.8191 24.5596 48.8163 24.7187C48.8106 24.8494 48.8362 24.9644 48.893 25.0639C48.9526 25.1633 49.0379 25.2514 49.1487 25.3281C49.2623 25.4019 49.3987 25.4673 49.5577 25.5241C49.7168 25.5809 49.8958 25.6306 50.0947 25.6732L50.8447 25.8437C51.2765 25.9374 51.6572 26.0624 51.9867 26.2187C52.3191 26.3749 52.5975 26.561 52.822 26.7769C53.0492 26.9928 53.2211 27.2414 53.3376 27.5227C53.4541 27.8039 53.5137 28.1193 53.5166 28.4687C53.5137 29.0198 53.3745 29.4928 53.0989 29.8877C52.8234 30.2826 52.4271 30.5852 51.91 30.7954C51.3958 31.0056 50.7751 31.1107 50.0478 31.1107C49.3177 31.1107 48.6813 31.0014 48.1387 30.7826C47.5961 30.5639 47.1742 30.2315 46.8731 29.7854C46.572 29.3394 46.4171 28.7755 46.4086 28.0937H48.4285C48.4455 28.3749 48.5208 28.6093 48.6543 28.7968C48.7879 28.9843 48.9711 29.1264 49.2041 29.2229C49.4399 29.3195 49.7126 29.3678 50.0222 29.3678C50.3063 29.3678 50.5478 29.3295 50.7467 29.2528C50.9484 29.1761 51.1032 29.0695 51.2112 28.9332C51.3191 28.7968 51.3745 28.6406 51.3774 28.4644C51.3745 28.2997 51.3234 28.159 51.2239 28.0426C51.1245 27.9232 50.9711 27.821 50.7637 27.7357C50.5592 27.6477 50.2978 27.5667 49.9796 27.4928L49.0677 27.2798C48.312 27.1065 47.7168 26.8266 47.2822 26.4403C46.8475 26.0511 46.6316 25.5255 46.6345 24.8636C46.6316 24.3238 46.7765 23.8508 47.0691 23.4445C47.3617 23.0383 47.7666 22.7215 48.2836 22.4943C48.8006 22.267 49.3901 22.1533 50.0521 22.1533C50.7282 22.1533 51.3149 22.2684 51.812 22.4985C52.312 22.7258 52.6998 23.0454 52.9754 23.4573C53.2509 23.8693 53.3916 24.3465 53.3972 24.8891H51.3774ZM54.5819 33.4545V24.4545H56.6444V25.5752H56.7083C56.7935 25.3764 56.9143 25.1846 57.0705 24.9999C57.2296 24.8153 57.4313 24.6647 57.6756 24.5482C57.9228 24.4289 58.2183 24.3693 58.562 24.3693C59.0166 24.3693 59.4413 24.4886 59.8362 24.7272C60.2339 24.9658 60.5549 25.3337 60.7992 25.8309C61.0435 26.3281 61.1657 26.9616 61.1657 27.7315C61.1657 28.4729 61.0478 29.0937 60.812 29.5937C60.5791 30.0937 60.2637 30.4687 59.866 30.7187C59.4711 30.9687 59.0322 31.0937 58.5492 31.0937C58.2197 31.0937 57.9342 31.0397 57.6927 30.9318C57.4512 30.8238 57.2481 30.6818 57.0833 30.5056C56.9214 30.3295 56.7964 30.1406 56.7083 29.9389H56.6657V33.4545H54.5819ZM56.6231 27.7272C56.6231 28.0795 56.67 28.3863 56.7637 28.6477C56.8603 28.909 56.9981 29.1122 57.1771 29.257C57.3589 29.3991 57.5762 29.4701 57.8291 29.4701C58.0847 29.4701 58.3021 29.3991 58.481 29.257C58.66 29.1122 58.795 28.909 58.8859 28.6477C58.9796 28.3863 59.0265 28.0795 59.0265 27.7272C59.0265 27.3749 58.9796 27.0695 58.8859 26.811C58.795 26.5525 58.66 26.3522 58.481 26.2102C58.3049 26.0681 58.0876 25.9971 57.8291 25.9971C57.5734 25.9971 57.356 26.0667 57.1771 26.2059C56.9981 26.3451 56.8603 26.544 56.7637 26.8025C56.67 27.061 56.6231 27.3693 56.6231 27.7272ZM65.3131 31.1235C64.6256 31.1235 64.0347 30.9829 63.5403 30.7016C63.0489 30.4175 62.6696 30.0227 62.4026 29.517C62.1384 29.0085 62.0063 28.419 62.0063 27.7485C62.0063 27.0752 62.1384 26.4857 62.4026 25.9801C62.6696 25.4715 63.0489 25.0766 63.5403 24.7954C64.0347 24.5113 64.6256 24.3693 65.3131 24.3693C66.0006 24.3693 66.5901 24.5113 67.0815 24.7954C67.5759 25.0766 67.9551 25.4715 68.2193 25.9801C68.4864 26.4857 68.6199 27.0752 68.6199 27.7485C68.6199 28.419 68.4864 29.0085 68.2193 29.517C67.9551 30.0227 67.5759 30.4175 67.0815 30.7016C66.5901 30.9829 66.0006 31.1235 65.3131 31.1235ZM65.3259 29.5511C65.5759 29.5511 65.7875 29.4744 65.9608 29.321C66.1341 29.1675 66.2662 28.9545 66.3571 28.6818C66.4509 28.409 66.4977 28.0937 66.4977 27.7357C66.4977 27.3721 66.4509 27.0539 66.3571 26.7812C66.2662 26.5085 66.1341 26.2954 65.9608 26.142C65.7875 25.9886 65.5759 25.9119 65.3259 25.9119C65.0673 25.9119 64.8486 25.9886 64.6696 26.142C64.4935 26.2954 64.3585 26.5085 64.2648 26.7812C64.1739 27.0539 64.1284 27.3721 64.1284 27.7357C64.1284 28.0937 64.1739 28.409 64.2648 28.6818C64.3585 28.9545 64.4935 29.1675 64.6696 29.321C64.8486 29.4744 65.0673 29.5511 65.3259 29.5511ZM71.7712 27.267V30.9999H69.6874V24.4545H71.6689V25.6562H71.7413C71.8862 25.2556 72.1334 24.9417 72.4828 24.7144C72.8322 24.4843 73.2484 24.3693 73.7314 24.3693C74.1916 24.3693 74.5908 24.4729 74.9288 24.6803C75.2697 24.8849 75.5339 25.1718 75.7214 25.5411C75.9118 25.9076 76.0055 26.3366 76.0027 26.8281V30.9999H73.9189V27.2372C73.9217 26.8735 73.8294 26.5894 73.6419 26.3849C73.4572 26.1803 73.2001 26.0781 72.8706 26.0781C72.6518 26.0781 72.4587 26.1264 72.2911 26.2229C72.1263 26.3167 71.9984 26.4516 71.9075 26.6278C71.8195 26.8039 71.774 27.017 71.7712 27.267ZM80.344 33.5908C79.7218 33.5908 79.1891 33.5042 78.746 33.3309C78.3028 33.1576 77.9548 32.9204 77.7019 32.6193C77.4491 32.3181 77.2971 31.9772 77.246 31.5965L79.219 31.4857C79.2559 31.6193 79.3241 31.7357 79.4235 31.8352C79.5258 31.9346 79.6579 32.0113 79.8198 32.0653C79.9846 32.1193 80.1778 32.1462 80.3994 32.1462C80.7488 32.1462 81.0371 32.061 81.2644 31.8906C81.4945 31.7229 81.6096 31.4289 81.6096 31.0085V29.8579H81.5371C81.4548 30.0596 81.3298 30.24 81.1621 30.3991C80.9945 30.5582 80.7857 30.6832 80.5357 30.7741C80.2886 30.865 80.0045 30.9104 79.6835 30.9104C79.2062 30.9104 78.7687 30.7997 78.371 30.5781C77.9761 30.3536 77.6593 30.007 77.4207 29.5383C77.1849 29.0667 77.067 28.4602 77.067 27.7187C77.067 26.9545 77.1891 26.3252 77.4335 25.8309C77.6778 25.3337 77.9974 24.9658 78.3923 24.7272C78.79 24.4886 79.2175 24.3693 79.6749 24.3693C80.0187 24.3693 80.3127 24.4289 80.557 24.5482C80.8042 24.6647 81.0073 24.8153 81.1664 24.9999C81.3255 25.1846 81.4462 25.3764 81.5286 25.5752H81.5883V24.4545H83.6636V31.0255C83.6636 31.5795 83.5244 32.0468 83.2459 32.4275C82.9675 32.8082 82.5783 33.0965 82.0783 33.2925C81.5783 33.4914 81.0002 33.5908 80.344 33.5908ZM80.4079 29.3934C80.6607 29.3934 80.8766 29.3266 81.0556 29.1931C81.2346 29.0596 81.3724 28.8678 81.469 28.6178C81.5656 28.3678 81.6138 28.0681 81.6138 27.7187C81.6138 27.3636 81.5656 27.0582 81.469 26.8025C81.3752 26.544 81.2374 26.3451 81.0556 26.2059C80.8766 26.0667 80.6607 25.9971 80.4079 25.9971C80.1494 25.9971 79.9306 26.0681 79.7516 26.2102C79.5727 26.3522 79.4363 26.5525 79.3425 26.811C79.2516 27.0667 79.2062 27.3693 79.2062 27.7187C79.2062 28.0681 79.2531 28.3678 79.3468 28.6178C79.4406 28.8678 79.5755 29.0596 79.7516 29.1931C79.9306 29.3266 80.1494 29.3934 80.4079 29.3934ZM88.0517 31.1235C87.367 31.1235 86.7761 30.9886 86.279 30.7187C85.7847 30.446 85.404 30.0582 85.1369 29.5553C84.8727 29.0497 84.7406 28.4488 84.7406 27.7528C84.7406 27.0766 84.8741 26.4857 85.1412 25.9801C85.4082 25.4715 85.7847 25.0766 86.2705 24.7954C86.7562 24.5113 87.3287 24.3693 87.9878 24.3693C88.4537 24.3693 88.8798 24.4417 89.2662 24.5866C89.6526 24.7315 89.9864 24.946 90.2676 25.2301C90.5489 25.5141 90.7676 25.865 90.9239 26.2826C91.0801 26.6974 91.1582 27.1732 91.1582 27.7102V28.2301H85.4693V27.0198H89.2193C89.2165 26.7982 89.1639 26.6008 89.0616 26.4275C88.9594 26.2542 88.8187 26.1193 88.6398 26.0227C88.4636 25.9232 88.2605 25.8735 88.0304 25.8735C87.7974 25.8735 87.5886 25.9261 87.404 26.0312C87.2193 26.1335 87.073 26.2741 86.9651 26.4531C86.8571 26.6292 86.8003 26.8295 86.7946 27.0539V28.2854C86.7946 28.5525 86.8472 28.7869 86.9523 28.9886C87.0574 29.1874 87.2065 29.3423 87.3997 29.4531C87.5929 29.5639 87.823 29.6193 88.0901 29.6193C88.2747 29.6193 88.4423 29.5937 88.5929 29.5425C88.7435 29.4914 88.8727 29.4161 88.9807 29.3167C89.0886 29.2173 89.1696 29.0951 89.2236 28.9502L91.1369 29.0056C91.0574 29.4346 90.8827 29.8082 90.6128 30.1264C90.3457 30.4417 89.9949 30.6874 89.5602 30.8636C89.1256 31.0369 88.6227 31.1235 88.0517 31.1235Z" fill="#F7CF0D"/>
</g>
</g>
<rect x="0.749512" y="0.749939" width="129.5" height="38.5" rx="5.25" stroke="white" stroke-opacity="0.15" stroke-width="1.5"/>
<defs>
<filter id="filter0_d_28_1167" x="5.99951" y="1.99994" width="37.4994" height="37.4998" filterUnits="userSpaceOnUse" color-interpolation-filters="sRGB">
<feFlood flood-opacity="0" result="BackgroundImageFix"/>
<feColorMatrix in="SourceAlpha" type="matrix" values="0 0 0 0 0 0 0 0 0 0 0 0 0 0 0 0 0 0 127 0" result="hardAlpha"/>
<feOffset/>
<feGaussianBlur stdDeviation="2"/>
<feComposite in2="hardAlpha" operator="out"/>
<feColorMatrix type="matrix" values="0 0 0 0 0 0 0 0 0 0 0 0 0 0 0 0 0 0 0.25 0"/>
<feBlend mode="normal" in2="BackgroundImageFix" result="effect1_dropShadow_28_1167"/>
<feBlend mode="normal" in="SourceGraphic" in2="effect1_dropShadow_28_1167" result="shape"/>
</filter>
<filter id="filter1_d_28_1167" x="41.9995" y="2.99994" width="83" height="34.5909" filterUnits="userSpaceOnUse" color-interpolation-filters="sRGB">
<feFlood flood-opacity="0" result="BackgroundImageFix"/>
<feColorMatrix in="SourceAlpha" type="matrix" values="0 0 0 0 0 0 0 0 0 0 0 0 0 0 0 0 0 0 127 0" result="hardAlpha"/>
<feOffset/>
<feGaussianBlur stdDeviation="2"/>
<feComposite in2="hardAlpha" operator="out"/>
<feColorMatrix type="matrix" values="0 0 0 0 0 0 0 0 0 0 0 0 0 0 0 0 0 0 0.25 0"/>
<feBlend mode="normal" in2="BackgroundImageFix" result="effect1_dropShadow_28_1167"/>
<feBlend mode="normal" in="SourceGraphic" in2="effect1_dropShadow_28_1167" result="shape"/>
</filter>
<linearGradient id="paint0_linear_28_1167" x1="65.4995" y1="-6.10351e-05" x2="65.4995" y2="39.9999" gradientUnits="userSpaceOnUse">
<stop stop-color="#2C1B1B"/>
<stop offset="1" stop-color="#1F1414"/>
</linearGradient>
<linearGradient id="paint1_linear_28_1167" x1="29.9995" y1="18" x2="29.9995" y2="33.9997" gradientUnits="userSpaceOnUse">
<stop stop-color="#FF0000"/>
<stop offset="1" stop-color="#CC0000"/>
</linearGradient>
<clipPath id="clip0_28_1167">
<rect x="-0.000488281" y="-6.10352e-05" width="131" height="40" rx="6" fill="white"/>
</clipPath>
<clipPath id="clip1_28_1167">
<rect width="28" height="28" fill="white" transform="translate(9.99951 5.99994)"/>
</clipPath>
</defs>
</svg>
