<svg width="180" height="56" viewBox="0 0 180 56" fill="none" xmlns="http://www.w3.org/2000/svg">
<g clip-path="url(#clip0_33_80)">
<rect width="180" height="56" rx="8" fill="url(#paint0_linear_33_80)"/>
<g filter="url(#filter0_d_33_80)">
<path d="M17.2648 37.7933C16.9782 37.8903 16.7022 38.0009 16.3997 37.9991C15.8282 37.9958 15.2912 37.7251 14.9234 37.2877C14.5693 36.8664 14.2204 36.4503 13.8951 36.0166C13.0753 34.9235 12.2982 33.7986 11.4904 32.6964C11.1292 32.2035 10.7265 31.7411 10.3626 31.2501C9.98477 30.7403 9.63206 30.2121 9.2636 29.6952C9.22368 29.6393 9.14403 29.6324 9.14406 29.5637C9.1442 29.3107 9.14517 29.0573 9.15214 28.8006C9.15887 28.5525 9.29227 28.3418 9.45952 28.1584C9.48619 28.1291 9.50963 28.0985 9.52857 28.0653C9.75929 27.6608 9.95216 27.2349 10.1781 26.8275C11.224 24.9413 12.2608 23.0497 13.3375 21.1811C13.5826 20.7557 13.6844 20.1879 14.2134 19.9781C14.5485 19.8451 14.9108 19.7739 15.266 19.6985C16.4821 19.4405 17.6996 19.1887 18.9181 18.9424C20.2369 18.6757 21.5577 18.4191 22.8762 18.1507C22.9957 18.1264 23.0641 17.9999 23.1861 18.0001C23.3809 18.0003 23.5761 18.0011 23.7728 18.0044C24.1445 18.0107 24.5092 18.1507 24.7813 18.404C24.8549 18.4726 24.9232 18.5437 24.9818 18.6221C25.5664 19.4038 26.1308 20.2009 26.6886 21.002C26.9067 21.3152 27.1383 21.4654 27.5616 21.4644C35.0606 21.4459 42.5597 21.4509 50.0587 21.4511C50.6842 21.4511 51.0802 21.8263 51.0816 22.4191C51.083 23.0506 50.7059 23.4117 50.044 23.4117C46.5567 23.4118 43.0694 23.4118 39.5821 23.4118C39.3986 23.4118 39.2148 23.4057 39.0315 23.4129C38.5352 23.4326 38.0255 23.808 37.9427 24.2088C37.8289 24.76 38.096 25.2583 38.6368 25.4688C38.7626 25.5177 38.9102 25.5268 39.0479 25.527C41.4339 25.5303 43.82 25.5318 46.206 25.5281C47.0616 25.5268 47.5092 26.2652 47.205 26.987C47.0095 27.451 46.582 27.5606 46.1352 27.5645C44.7981 27.576 43.4608 27.5686 42.1236 27.5686C39.8162 27.5686 37.5088 27.5679 35.2014 27.5691C34.5915 27.5695 34.2117 28.0009 34.1514 28.5961C34.0933 29.17 34.7559 29.6946 35.3967 29.6933C41.3356 29.6814 47.2745 29.6865 53.2134 29.686C53.7911 29.6859 54.4019 29.5785 54.7869 30.1736C54.7942 30.185 54.8096 30.1887 54.821 30.1813C54.837 30.1708 54.8583 30.1823 54.8583 30.2015C54.8583 30.4424 54.8575 30.6843 54.8433 30.9433C54.8364 31.0683 54.7713 31.1824 54.6716 31.258C54.3868 31.4743 54.138 31.6686 53.7244 31.6649C50.0805 31.6321 46.4362 31.6468 42.792 31.6473C42.1046 31.6474 41.5721 32.1063 41.5594 32.6933C41.5477 33.2341 42.0039 33.7854 42.7614 33.7737C44.57 33.7458 46.3793 33.7681 48.1882 33.7632C49.0522 33.7609 49.4331 34.549 49.1974 35.1257C49.0101 35.5842 48.6553 35.8038 48.0087 35.8039C40.7727 35.804 33.5368 35.8038 26.3009 35.8051C26.1726 35.8051 25.9857 35.7719 25.9258 35.8406C25.5779 36.2395 25.074 36.2471 24.632 36.3381C22.2068 36.8374 19.7724 37.2919 17.3432 37.7721C17.3167 37.7773 17.2906 37.7845 17.2648 37.7933ZM23.3759 19.871C22.9746 19.6862 22.4739 19.9353 22.2134 20.2921C21.9838 20.6064 21.8017 20.9565 21.6128 21.2987C20.8632 22.6572 20.134 24.0271 19.3621 25.3728C19.148 25.746 18.8618 26.1178 18.5181 26.3653C18.2298 26.573 17.815 26.6246 17.4469 26.7008C15.6333 27.0766 13.8163 27.4359 12.0014 27.8051C11.6198 27.8827 11.3572 28.1284 11.2775 28.4954C11.1834 28.9291 11.2684 29.3264 11.6745 29.6136C12.0739 29.8961 12.4706 29.7784 12.8906 29.6913C14.5685 29.3433 16.2481 29.0018 17.9318 28.6831C18.5605 28.5641 19.168 28.7013 19.5681 29.2271C20.6916 30.7037 21.7813 32.2059 22.8846 33.6978C23.2511 34.1934 23.8279 34.3054 24.3125 33.9757C24.7436 33.6824 24.877 32.9919 24.5495 32.5395C23.5515 31.1607 22.5427 29.7895 21.5247 28.4253C21.1516 27.9253 20.85 27.4099 21.0334 26.7666C21.1145 26.4822 21.2728 26.2165 21.4169 25.9537C21.9324 25.0136 22.4646 24.0826 22.9753 23.14C23.3465 22.4547 23.7196 21.7681 24.041 21.0592C24.2049 20.6975 24.0094 20.3568 23.7249 20.1121C23.6167 20.0191 23.5033 19.9296 23.3759 19.871Z" fill="white"/>
<path d="M48.5545 26.1078C48.9817 25.5635 49.3077 25.4403 49.8031 25.6086C50.2306 25.7539 50.5354 26.2678 50.4503 26.7001C50.3512 27.2034 49.818 27.6302 49.3664 27.5674C48.8628 27.4974 48.4813 27.0777 48.4876 26.5854C48.4895 26.4362 48.5254 26.2874 48.5545 26.1078Z" fill="white"/>
<g opacity="0.7">
<mask id="path-5-outside-1_33_80" maskUnits="userSpaceOnUse" x="26.1438" y="22.1432" width="28" height="28" fill="black">
<rect fill="white" x="26.1438" y="22.1432" width="28" height="28"/>
<path fill-rule="evenodd" clip-rule="evenodd" d="M31.9584 25.3524C31.6795 25.0734 31.2273 25.0734 30.9484 25.3524L29.3537 26.9475C29.0748 27.2265 29.0748 27.6788 29.3537 27.9578L37.9667 36.5731L29.353 45.1853C29.0741 45.4642 29.0741 45.9165 29.353 46.1954L30.9481 47.7901C31.227 48.0691 31.6793 48.0691 31.9583 47.7901L40.5714 39.1785L49.1812 47.7906C49.4602 48.0696 49.9124 48.0696 50.1913 47.7906L51.7859 46.1955C52.0649 45.9165 52.0649 45.4642 51.7859 45.1852L43.1767 36.5737L51.7902 27.9616C52.0691 27.6827 52.0691 27.2305 51.7902 26.9516L50.1951 25.3568C49.9162 25.0779 49.4639 25.0779 49.1849 25.3568L40.572 33.9683L31.9584 25.3524Z"/>
</mask>
<path fill-rule="evenodd" clip-rule="evenodd" d="M31.9584 25.3524C31.6795 25.0734 31.2273 25.0734 30.9484 25.3524L29.3537 26.9475C29.0748 27.2265 29.0748 27.6788 29.3537 27.9578L37.9667 36.5731L29.353 45.1853C29.0741 45.4642 29.0741 45.9165 29.353 46.1954L30.9481 47.7901C31.227 48.0691 31.6793 48.0691 31.9583 47.7901L40.5714 39.1785L49.1812 47.7906C49.4602 48.0696 49.9124 48.0696 50.1913 47.7906L51.7859 46.1955C52.0649 45.9165 52.0649 45.4642 51.7859 45.1852L43.1767 36.5737L51.7902 27.9616C52.0691 27.6827 52.0691 27.2305 51.7902 26.9516L50.1951 25.3568C49.9162 25.0779 49.4639 25.0779 49.1849 25.3568L40.572 33.9683L31.9584 25.3524Z" fill="url(#paint1_linear_33_80)"/>
<path d="M30.9484 25.3524L32.4638 26.8675L32.4638 26.8675L30.9484 25.3524ZM31.9584 25.3524L30.4429 26.8675L30.4429 26.8675L31.9584 25.3524ZM29.3537 26.9475L30.8691 28.4626L30.8691 28.4626L29.3537 26.9475ZM29.3537 27.9578L27.8382 29.4728L27.8382 29.4728L29.3537 27.9578ZM37.9667 36.5731L39.4818 38.0885L40.9971 36.5734L39.4821 35.0581L37.9667 36.5731ZM29.353 45.1853L27.8379 43.67L27.8379 43.67L29.353 45.1853ZM29.353 46.1954L27.8379 47.7107L27.8379 47.7107L29.353 46.1954ZM30.9481 47.7901L32.4632 46.2748L32.4632 46.2748L30.9481 47.7901ZM31.9583 47.7901L33.4734 49.3055L33.4734 49.3055L31.9583 47.7901ZM40.5714 39.1785L42.0868 37.6635L40.5717 36.148L39.0563 37.6631L40.5714 39.1785ZM49.1812 47.7906L50.6967 46.2756L50.6967 46.2756L49.1812 47.7906ZM50.1913 47.7906L48.6758 46.2756H48.6758L50.1913 47.7906ZM51.7859 46.1955L50.2705 44.6805L50.2705 44.6805L51.7859 46.1955ZM51.7859 45.1852L50.2705 46.7003L50.2705 46.7003L51.7859 45.1852ZM43.1767 36.5737L41.6616 35.0583L40.1463 36.5733L41.6612 38.0887L43.1767 36.5737ZM51.7902 27.9616L53.3053 29.477L53.3053 29.477L51.7902 27.9616ZM51.7902 26.9516L53.3053 25.4362L53.3053 25.4362L51.7902 26.9516ZM50.1951 25.3568L51.7102 23.8414L51.7102 23.8414L50.1951 25.3568ZM49.1849 25.3568L47.6698 23.8414L47.6698 23.8414L49.1849 25.3568ZM40.572 33.9683L39.0565 35.4833L40.5716 36.9988L42.0871 35.4836L40.572 33.9683ZM32.4638 26.8675C31.9058 27.4256 31.0009 27.4256 30.4429 26.8675L33.4738 23.8374C32.358 22.7213 30.5487 22.7213 29.4329 23.8374L32.4638 26.8675ZM30.8691 28.4626L32.4638 26.8675L29.4329 23.8374L27.8382 25.4325L30.8691 28.4626ZM30.8691 26.4428C31.4268 27.0006 31.4268 27.9047 30.8691 28.4626L27.8382 25.4325C26.7228 26.5483 26.7228 28.3571 27.8382 29.4728L30.8691 26.4428ZM39.4821 35.0581L30.8691 26.4428L27.8382 29.4728L36.4513 38.0881L39.4821 35.0581ZM30.8681 46.7007L39.4818 38.0885L36.4516 35.0578L27.8379 43.67L30.8681 46.7007ZM30.8681 44.68C31.4262 45.238 31.4262 46.1427 30.8681 46.7007L27.8379 43.67C26.7219 44.7858 26.7219 46.595 27.8379 47.7107L30.8681 44.68ZM32.4632 46.2748L30.8681 44.68L27.8379 47.7107L29.433 49.3055L32.4632 46.2748ZM30.4432 46.2748C31.001 45.717 31.9053 45.717 32.4632 46.2748L29.4329 49.3055C30.5487 50.4211 32.3576 50.4211 33.4734 49.3055L30.4432 46.2748ZM39.0563 37.6631L30.4432 46.2748L33.4734 49.3055L42.0865 40.6939L39.0563 37.6631ZM50.6967 46.2756L42.0868 37.6635L39.056 40.6935L47.6658 49.3057L50.6967 46.2756ZM48.6758 46.2756C49.2338 45.7175 50.1387 45.7175 50.6967 46.2756L47.6658 49.3057C48.7816 50.4217 50.5909 50.4217 51.7067 49.3057L48.6758 46.2756ZM50.2705 44.6805L48.6758 46.2756L51.7067 49.3057L53.3014 47.7106L50.2705 44.6805ZM50.2705 46.7003C49.7129 46.1425 49.7129 45.2383 50.2705 44.6805L53.3014 47.7106C54.4169 46.5948 54.4169 44.786 53.3014 43.6702L50.2705 46.7003ZM41.6612 38.0887L50.2705 46.7003L53.3014 43.6702L44.6921 35.0586L41.6612 38.0887ZM50.2751 26.4463L41.6616 35.0583L44.6918 38.089L53.3053 29.477L50.2751 26.4463ZM50.2751 28.4669C49.717 27.909 49.717 27.0042 50.2751 26.4463L53.3053 29.477C54.4212 28.3612 54.4212 26.552 53.3053 25.4362L50.2751 28.4669ZM48.68 26.8722L50.2751 28.4669L53.3053 25.4362L51.7102 23.8414L48.68 26.8722ZM50.7 26.8722C50.1422 27.4299 49.2379 27.4299 48.68 26.8722L51.7102 23.8414C50.5945 22.7259 48.7856 22.7259 47.6698 23.8414L50.7 26.8722ZM42.0871 35.4836L50.7 26.8722L47.6698 23.8414L39.0569 32.4529L42.0871 35.4836ZM30.4429 26.8675L39.0565 35.4833L42.0874 32.4533L33.4738 23.8374L30.4429 26.8675Z" fill="black" mask="url(#path-5-outside-1_33_80)"/>
</g>
</g>
<g filter="url(#filter1_d_33_80)">
<path d="M63.5568 24.5L60.3295 12.8636H62.1761L64.4432 21.875H64.5511L66.9091 12.8636H68.7386L71.0966 21.8807H71.2045L73.4659 12.8636H75.3182L72.0852 24.5H70.3182L67.8693 15.7841H67.7784L65.3295 24.5H63.5568ZM79.5994 24.6761C78.7812 24.6761 78.0672 24.4886 77.4574 24.1136C76.8475 23.7386 76.374 23.214 76.0369 22.5398C75.6998 21.8655 75.5312 21.0776 75.5312 20.1761C75.5312 19.2708 75.6998 18.4792 76.0369 17.8011C76.374 17.1231 76.8475 16.5966 77.4574 16.2216C78.0672 15.8466 78.7812 15.6591 79.5994 15.6591C80.4176 15.6591 81.1316 15.8466 81.7415 16.2216C82.3513 16.5966 82.8248 17.1231 83.1619 17.8011C83.499 18.4792 83.6676 19.2708 83.6676 20.1761C83.6676 21.0776 83.499 21.8655 83.1619 22.5398C82.8248 23.214 82.3513 23.7386 81.7415 24.1136C81.1316 24.4886 80.4176 24.6761 79.5994 24.6761ZM79.6051 23.25C80.1354 23.25 80.5748 23.1098 80.9233 22.8295C81.2718 22.5492 81.5293 22.1761 81.696 21.7102C81.8665 21.2443 81.9517 20.7311 81.9517 20.1705C81.9517 19.6136 81.8665 19.1023 81.696 18.6364C81.5293 18.1667 81.2718 17.7898 80.9233 17.5057C80.5748 17.2216 80.1354 17.0795 79.6051 17.0795C79.071 17.0795 78.6278 17.2216 78.2756 17.5057C77.9271 17.7898 77.6676 18.1667 77.4972 18.6364C77.3305 19.1023 77.2472 19.6136 77.2472 20.1705C77.2472 20.7311 77.3305 21.2443 77.4972 21.7102C77.6676 22.1761 77.9271 22.5492 78.2756 22.8295C78.6278 23.1098 79.071 23.25 79.6051 23.25ZM87.2628 19.3182V24.5H85.5639V15.7727H87.1946V17.1932H87.3025C87.5033 16.7311 87.8177 16.3598 88.2457 16.0795C88.6775 15.7992 89.2211 15.6591 89.8764 15.6591C90.4711 15.6591 90.9919 15.7841 91.4389 16.0341C91.8859 16.2803 92.2325 16.6477 92.4787 17.1364C92.7249 17.625 92.848 18.2292 92.848 18.9489V24.5H91.1491V19.1534C91.1491 18.5208 90.9844 18.0265 90.6548 17.6705C90.3253 17.3106 89.8726 17.1307 89.2969 17.1307C88.9029 17.1307 88.5525 17.2159 88.2457 17.3864C87.9427 17.5568 87.7022 17.8068 87.5241 18.1364C87.3499 18.4621 87.2628 18.8561 87.2628 19.3182ZM96.5866 12.8636V13.9545C96.5866 14.2765 96.526 14.6155 96.4048 14.9716C96.2874 15.3239 96.1207 15.6629 95.9048 15.9886C95.6889 16.3144 95.4351 16.5947 95.1435 16.8295L94.3025 16.2273C94.526 15.9015 94.7192 15.5549 94.8821 15.1875C95.0488 14.8201 95.1321 14.4148 95.1321 13.9716V12.8636H96.5866ZM102.638 15.7727V17.1364H97.8707V15.7727H102.638ZM99.1491 13.6818H100.848V21.9375C100.848 22.267 100.897 22.5151 100.996 22.6818C101.094 22.8447 101.221 22.9564 101.376 23.017C101.535 23.0739 101.708 23.1023 101.893 23.1023C102.03 23.1023 102.149 23.0928 102.251 23.0739C102.354 23.0549 102.433 23.0398 102.49 23.0284L102.797 24.4318C102.698 24.4697 102.558 24.5076 102.376 24.5455C102.195 24.5871 101.967 24.6098 101.695 24.6136C101.248 24.6212 100.831 24.5417 100.445 24.375C100.058 24.2083 99.7457 23.9508 99.5071 23.6023C99.2685 23.2538 99.1491 22.8163 99.1491 22.2898V13.6818ZM115.291 17.9034L113.751 18.1761C113.687 17.9792 113.585 17.7917 113.445 17.6136C113.308 17.4356 113.123 17.2898 112.888 17.1761C112.653 17.0625 112.359 17.0057 112.007 17.0057C111.526 17.0057 111.125 17.1136 110.803 17.3295C110.481 17.5417 110.32 17.8163 110.32 18.1534C110.32 18.4451 110.428 18.6799 110.643 18.858C110.859 19.036 111.208 19.1818 111.689 19.2955L113.075 19.6136C113.878 19.7992 114.477 20.0852 114.871 20.4716C115.265 20.858 115.462 21.3598 115.462 21.9773C115.462 22.5 115.31 22.9659 115.007 23.375C114.708 23.7803 114.289 24.0985 113.751 24.3295C113.217 24.5606 112.598 24.6761 111.893 24.6761C110.916 24.6761 110.119 24.4678 109.501 24.0511C108.884 23.6307 108.505 23.0341 108.365 22.2614L110.007 22.0114C110.109 22.4394 110.32 22.7633 110.638 22.983C110.956 23.1989 111.371 23.3068 111.882 23.3068C112.439 23.3068 112.884 23.1913 113.217 22.9602C113.551 22.7254 113.717 22.4394 113.717 22.1023C113.717 21.8295 113.615 21.6004 113.41 21.4148C113.21 21.2292 112.901 21.089 112.484 20.9943L111.007 20.6705C110.193 20.4848 109.59 20.1894 109.2 19.7841C108.814 19.3788 108.621 18.8655 108.621 18.2443C108.621 17.7292 108.765 17.2784 109.053 16.892C109.34 16.5057 109.738 16.2045 110.246 15.9886C110.753 15.7689 111.335 15.6591 111.99 15.6591C112.933 15.6591 113.676 15.8636 114.217 16.2727C114.759 16.678 115.117 17.2216 115.291 17.9034ZM122.858 20.8807V15.7727H124.562V24.5H122.892V22.9886H122.801C122.6 23.4545 122.278 23.8428 121.835 24.1534C121.396 24.4602 120.848 24.6136 120.193 24.6136C119.633 24.6136 119.136 24.4905 118.705 24.2443C118.276 23.9943 117.939 23.625 117.693 23.1364C117.451 22.6477 117.33 22.0436 117.33 21.3239V15.7727H119.028V21.1193C119.028 21.714 119.193 22.1875 119.523 22.5398C119.852 22.892 120.28 23.0682 120.807 23.0682C121.125 23.0682 121.441 22.9886 121.756 22.8295C122.074 22.6705 122.337 22.4299 122.545 22.108C122.758 21.786 122.862 21.3769 122.858 20.8807ZM126.845 27.7727V15.7727H128.504V17.1875H128.646C128.745 17.0057 128.887 16.7955 129.072 16.5568C129.258 16.3182 129.516 16.1098 129.845 15.9318C130.175 15.75 130.61 15.6591 131.152 15.6591C131.857 15.6591 132.485 15.8371 133.038 16.1932C133.591 16.5492 134.025 17.0625 134.339 17.733C134.658 18.4034 134.817 19.2102 134.817 20.1534C134.817 21.0966 134.66 21.9053 134.345 22.5795C134.031 23.25 133.599 23.767 133.05 24.1307C132.5 24.4905 131.874 24.6705 131.169 24.6705C130.639 24.6705 130.205 24.5814 129.868 24.4034C129.535 24.2254 129.273 24.017 129.084 23.7784C128.894 23.5398 128.749 23.3276 128.646 23.142H128.544V27.7727H126.845ZM128.51 20.1364C128.51 20.75 128.599 21.2879 128.777 21.75C128.955 22.2121 129.213 22.5739 129.55 22.8352C129.887 23.0928 130.3 23.2216 130.788 23.2216C131.296 23.2216 131.72 23.0871 132.061 22.8182C132.402 22.5455 132.66 22.1761 132.834 21.7102C133.012 21.2443 133.101 20.7197 133.101 20.1364C133.101 19.5606 133.014 19.0436 132.839 18.5852C132.669 18.1269 132.411 17.7651 132.067 17.5C131.726 17.2348 131.3 17.1023 130.788 17.1023C130.296 17.1023 129.879 17.2292 129.538 17.483C129.201 17.7367 128.946 18.0909 128.771 18.5455C128.597 19 128.51 19.5303 128.51 20.1364ZM136.72 27.7727V15.7727H138.379V17.1875H138.521C138.62 17.0057 138.762 16.7955 138.947 16.5568C139.133 16.3182 139.391 16.1098 139.72 15.9318C140.05 15.75 140.485 15.6591 141.027 15.6591C141.732 15.6591 142.36 15.8371 142.913 16.1932C143.466 16.5492 143.9 17.0625 144.214 17.733C144.533 18.4034 144.692 19.2102 144.692 20.1534C144.692 21.0966 144.535 21.9053 144.22 22.5795C143.906 23.25 143.474 23.767 142.925 24.1307C142.375 24.4905 141.749 24.6705 141.044 24.6705C140.514 24.6705 140.08 24.5814 139.743 24.4034C139.41 24.2254 139.148 24.017 138.959 23.7784C138.769 23.5398 138.624 23.3276 138.521 23.142H138.419V27.7727H136.72ZM138.385 20.1364C138.385 20.75 138.474 21.2879 138.652 21.75C138.83 22.2121 139.088 22.5739 139.425 22.8352C139.762 23.0928 140.175 23.2216 140.663 23.2216C141.171 23.2216 141.595 23.0871 141.936 22.8182C142.277 22.5455 142.535 22.1761 142.709 21.7102C142.887 21.2443 142.976 20.7197 142.976 20.1364C142.976 19.5606 142.889 19.0436 142.714 18.5852C142.544 18.1269 142.286 17.7651 141.942 17.5C141.601 17.2348 141.175 17.1023 140.663 17.1023C140.171 17.1023 139.754 17.2292 139.413 17.483C139.076 17.7367 138.821 18.0909 138.646 18.5455C138.472 19 138.385 19.5303 138.385 20.1364ZM150.271 24.6761C149.453 24.6761 148.739 24.4886 148.129 24.1136C147.519 23.7386 147.046 23.214 146.709 22.5398C146.372 21.8655 146.203 21.0776 146.203 20.1761C146.203 19.2708 146.372 18.4792 146.709 17.8011C147.046 17.1231 147.519 16.5966 148.129 16.2216C148.739 15.8466 149.453 15.6591 150.271 15.6591C151.089 15.6591 151.803 15.8466 152.413 16.2216C153.023 16.5966 153.497 17.1231 153.834 17.8011C154.171 18.4792 154.339 19.2708 154.339 20.1761C154.339 21.0776 154.171 21.8655 153.834 22.5398C153.497 23.214 153.023 23.7386 152.413 24.1136C151.803 24.4886 151.089 24.6761 150.271 24.6761ZM150.277 23.25C150.807 23.25 151.247 23.1098 151.595 22.8295C151.944 22.5492 152.201 22.1761 152.368 21.7102C152.538 21.2443 152.624 20.7311 152.624 20.1705C152.624 19.6136 152.538 19.1023 152.368 18.6364C152.201 18.1667 151.944 17.7898 151.595 17.5057C151.247 17.2216 150.807 17.0795 150.277 17.0795C149.743 17.0795 149.3 17.2216 148.947 17.5057C148.599 17.7898 148.339 18.1667 148.169 18.6364C148.002 19.1023 147.919 19.6136 147.919 20.1705C147.919 20.7311 148.002 21.2443 148.169 21.7102C148.339 22.1761 148.599 22.5492 148.947 22.8295C149.3 23.1098 149.743 23.25 150.277 23.25ZM156.236 24.5V15.7727H157.878V17.1591H157.969C158.128 16.6894 158.408 16.3201 158.81 16.0511C159.215 15.7784 159.673 15.642 160.185 15.642C160.291 15.642 160.416 15.6458 160.56 15.6534C160.707 15.661 160.823 15.6705 160.906 15.6818V17.3068C160.838 17.2879 160.717 17.267 160.543 17.2443C160.368 17.2178 160.194 17.2045 160.02 17.2045C159.618 17.2045 159.26 17.2898 158.946 17.4602C158.635 17.6269 158.389 17.8598 158.207 18.1591C158.026 18.4545 157.935 18.7917 157.935 19.1705V24.5H156.236ZM166.966 15.7727V17.1364H162.199V15.7727H166.966ZM163.477 13.6818H165.176V21.9375C165.176 22.267 165.225 22.5151 165.324 22.6818C165.422 22.8447 165.549 22.9564 165.705 23.017C165.864 23.0739 166.036 23.1023 166.222 23.1023C166.358 23.1023 166.477 23.0928 166.58 23.0739C166.682 23.0549 166.761 23.0398 166.818 23.0284L167.125 24.4318C167.026 24.4697 166.886 24.5076 166.705 24.5455C166.523 24.5871 166.295 24.6098 166.023 24.6136C165.576 24.6212 165.159 24.5417 164.773 24.375C164.386 24.2083 164.074 23.9508 163.835 23.6023C163.597 23.2538 163.477 22.8163 163.477 22.2898V13.6818Z" fill="#E7CDCD"/>
<path d="M63.7429 31.1364L66.5078 40.1918H66.6104L69.3754 31.1364H72.7198L68.5483 43.5H64.57L60.3984 31.1364H63.7429ZM77.2732 43.6751C76.3032 43.6751 75.4661 43.4839 74.7618 43.1016C74.0615 42.7152 73.5222 42.1658 73.1439 41.4535C72.7696 40.7371 72.5825 39.8859 72.5825 38.8999C72.5825 37.942 72.7716 37.1049 73.1499 36.3885C73.5283 35.6681 74.0615 35.1087 74.7497 34.7102C75.4379 34.3078 76.2489 34.1065 77.1826 34.1065C77.8426 34.1065 78.4463 34.2092 78.9937 34.4144C79.541 34.6197 80.0139 34.9235 80.4124 35.326C80.8108 35.7285 81.1207 36.2255 81.3421 36.8171C81.5634 37.4047 81.6741 38.0788 81.6741 38.8395V39.576H73.6148V37.8615H78.9273C78.9233 37.5476 78.8488 37.2679 78.7039 37.0224C78.559 36.7769 78.3598 36.5857 78.1063 36.4489C77.8567 36.308 77.569 36.2376 77.243 36.2376C76.913 36.2376 76.6172 36.312 76.3556 36.4609C76.094 36.6058 75.8867 36.805 75.7337 37.0586C75.5808 37.3081 75.5003 37.5919 75.4923 37.9098V39.6545C75.4923 40.0328 75.5667 40.3648 75.7156 40.6506C75.8645 40.9323 76.0758 41.1516 76.3495 41.3086C76.6232 41.4656 76.9492 41.544 77.3275 41.544C77.5891 41.544 77.8266 41.5078 78.0399 41.4354C78.2532 41.3629 78.4363 41.2563 78.5892 41.1154C78.7422 40.9745 78.8569 40.8015 78.9333 40.5962L81.6439 40.6747C81.5312 41.2824 81.2837 41.8117 80.9014 42.2624C80.523 42.7092 80.026 43.0573 79.4102 43.3068C78.7945 43.5523 78.0821 43.6751 77.2732 43.6751ZM86.1339 31.1364V43.5H83.1818V31.1364H86.1339ZM92.3413 43.6751C91.3674 43.6751 90.5303 43.4758 89.83 43.0774C89.1337 42.6749 88.5964 42.1155 88.2181 41.3991C87.8438 40.6787 87.6567 39.8436 87.6567 38.8938C87.6567 37.94 87.8438 37.1049 88.2181 36.3885C88.5964 35.6681 89.1337 35.1087 89.83 34.7102C90.5303 34.3078 91.3674 34.1065 92.3413 34.1065C93.3153 34.1065 94.1504 34.3078 94.8467 34.7102C95.547 35.1087 96.0842 35.6681 96.4585 36.3885C96.8368 37.1049 97.026 37.94 97.026 38.8938C97.026 39.8436 96.8368 40.6787 96.4585 41.3991C96.0842 42.1155 95.547 42.6749 94.8467 43.0774C94.1504 43.4758 93.3153 43.6751 92.3413 43.6751ZM92.3595 41.4474C92.7136 41.4474 93.0135 41.3388 93.259 41.1214C93.5045 40.9041 93.6916 40.6023 93.8204 40.2159C93.9532 39.8295 94.0196 39.3828 94.0196 38.8757C94.0196 38.3606 93.9532 37.9098 93.8204 37.5234C93.6916 37.1371 93.5045 36.8352 93.259 36.6179C93.0135 36.4006 92.7136 36.2919 92.3595 36.2919C91.9932 36.2919 91.6833 36.4006 91.4298 36.6179C91.1802 36.8352 90.9891 37.1371 90.8563 37.5234C90.7275 37.9098 90.6631 38.3606 90.6631 38.8757C90.6631 39.3828 90.7275 39.8295 90.8563 40.2159C90.9891 40.6023 91.1802 40.9041 91.4298 41.1214C91.6833 41.3388 91.9932 41.4474 92.3595 41.4474ZM102.867 43.6751C101.889 43.6751 101.05 43.4738 100.349 43.0714C99.6531 42.6689 99.1178 42.1095 98.7435 41.3931C98.3692 40.6727 98.1821 39.8396 98.1821 38.8938C98.1821 37.944 98.3692 37.1109 98.7435 36.3945C99.1218 35.6741 99.6591 35.1127 100.355 34.7102C101.056 34.3078 101.891 34.1065 102.861 34.1065C103.718 34.1065 104.465 34.2615 105.1 34.5714C105.74 34.8813 106.239 35.32 106.598 35.8874C106.96 36.4509 107.151 37.1129 107.171 37.8736H104.412C104.356 37.3987 104.195 37.0264 103.929 36.7567C103.668 36.4871 103.326 36.3523 102.903 36.3523C102.561 36.3523 102.261 36.4489 102.003 36.642C101.746 36.8312 101.545 37.1129 101.4 37.4872C101.259 37.8575 101.188 38.3163 101.188 38.8636C101.188 39.411 101.259 39.8738 101.4 40.2521C101.545 40.6264 101.746 40.9102 102.003 41.1033C102.261 41.2925 102.561 41.3871 102.903 41.3871C103.177 41.3871 103.418 41.3287 103.627 41.212C103.841 41.0953 104.016 40.9242 104.153 40.6989C104.289 40.4695 104.376 40.1918 104.412 39.8658H107.171C107.143 40.6304 106.952 41.2985 106.598 41.87C106.247 42.4415 105.754 42.8862 105.119 43.2042C104.487 43.5181 103.736 43.6751 102.867 43.6751ZM108.682 43.5V34.2273H111.634V43.5H108.682ZM110.161 33.1467C109.746 33.1467 109.39 33.0098 109.092 32.7361C108.794 32.4584 108.646 32.1244 108.646 31.734C108.646 31.3477 108.794 31.0176 109.092 30.744C109.39 30.4663 109.746 30.3274 110.161 30.3274C110.579 30.3274 110.936 30.4663 111.229 30.744C111.527 31.0176 111.676 31.3477 111.676 31.734C111.676 32.1244 111.527 32.4584 111.229 32.7361C110.936 33.0098 110.579 33.1467 110.161 33.1467ZM118.747 34.2273V36.4006H112.897V34.2273H118.747ZM114.123 32.0057H117.075V40.5842C117.075 40.7653 117.103 40.9122 117.159 41.0249C117.22 41.1335 117.306 41.212 117.419 41.2603C117.531 41.3046 117.666 41.3267 117.823 41.3267C117.936 41.3267 118.055 41.3166 118.179 41.2965C118.308 41.2724 118.405 41.2522 118.469 41.2361L118.916 43.3672C118.775 43.4074 118.576 43.4577 118.318 43.5181C118.065 43.5785 117.761 43.6167 117.407 43.6328C116.714 43.665 116.121 43.5845 115.626 43.3913C115.135 43.1941 114.758 42.8883 114.497 42.4737C114.239 42.0592 114.115 41.538 114.123 40.9102V32.0057ZM122.058 46.9773C121.704 46.9773 121.37 46.9491 121.056 46.8928C120.742 46.8404 120.472 46.77 120.247 46.6815L120.899 44.5383C121.189 44.6349 121.45 44.6913 121.684 44.7074C121.921 44.7235 122.125 44.6852 122.294 44.5927C122.467 44.5041 122.599 44.3452 122.692 44.1158L122.807 43.8381L119.511 34.2273H122.601L124.31 40.8437H124.406L126.139 34.2273H129.248L125.753 44.3874C125.584 44.8945 125.344 45.3413 125.034 45.7276C124.728 46.118 124.332 46.4239 123.845 46.6452C123.362 46.8666 122.766 46.9773 122.058 46.9773Z" fill="white"/>
</g>
</g>
<rect x="1.05" y="1.05" width="177.9" height="53.9" rx="6.95" stroke="white" stroke-opacity="0.15" stroke-width="2.1"/>
<defs>
<filter id="filter0_d_33_80" x="3.42976" y="2.28571" width="57.1429" height="53.5713" filterUnits="userSpaceOnUse" color-interpolation-filters="sRGB">
<feFlood flood-opacity="0" result="BackgroundImageFix"/>
<feColorMatrix in="SourceAlpha" type="matrix" values="0 0 0 0 0 0 0 0 0 0 0 0 0 0 0 0 0 0 127 0" result="hardAlpha"/>
<feOffset/>
<feGaussianBlur stdDeviation="2.85714"/>
<feComposite in2="hardAlpha" operator="out"/>
<feColorMatrix type="matrix" values="0 0 0 0 0 0 0 0 0 0 0 0 0 0 0 0 0 0 0.25 0"/>
<feBlend mode="normal" in2="BackgroundImageFix" result="effect1_dropShadow_33_80"/>
<feBlend mode="normal" in="SourceGraphic" in2="effect1_dropShadow_33_80" result="shape"/>
</filter>
<filter id="filter1_d_33_80" x="54.4" y="3.9" width="119.2" height="48.6773" filterUnits="userSpaceOnUse" color-interpolation-filters="sRGB">
<feFlood flood-opacity="0" result="BackgroundImageFix"/>
<feColorMatrix in="SourceAlpha" type="matrix" values="0 0 0 0 0 0 0 0 0 0 0 0 0 0 0 0 0 0 127 0" result="hardAlpha"/>
<feOffset/>
<feGaussianBlur stdDeviation="2.8"/>
<feComposite in2="hardAlpha" operator="out"/>
<feColorMatrix type="matrix" values="0 0 0 0 0 0 0 0 0 0 0 0 0 0 0 0 0 0 0.25 0"/>
<feBlend mode="normal" in2="BackgroundImageFix" result="effect1_dropShadow_33_80"/>
<feBlend mode="normal" in="SourceGraphic" in2="effect1_dropShadow_33_80" result="shape"/>
</filter>
<linearGradient id="paint0_linear_33_80" x1="90" y1="0" x2="90" y2="56" gradientUnits="userSpaceOnUse">
<stop stop-color="#2C1B1B"/>
<stop offset="1" stop-color="#1F1414"/>
</linearGradient>
<linearGradient id="paint1_linear_33_80" x1="40.5716" y1="25.1432" x2="40.5716" y2="47.9999" gradientUnits="userSpaceOnUse">
<stop stop-color="#FF0000"/>
<stop offset="1" stop-color="#CC0000"/>
</linearGradient>
<clipPath id="clip0_33_80">
<rect width="180" height="56" rx="8" fill="white"/>
</clipPath>
</defs>
</svg>
