<svg width="131" height="40" viewBox="0 0 131 40" fill="none" xmlns="http://www.w3.org/2000/svg">
<rect x="-0.000488281" y="-6.10352e-05" width="131" height="40" rx="6" fill="url(#paint0_linear_33_73)"/>
<g filter="url(#filter0_d_33_73)">
<path fill-rule="evenodd" clip-rule="evenodd" d="M18.578 6.18995C17.9885 6.83017 18.4652 7.18713 19.9105 7.18783C21.2237 7.18846 22.3875 7.36768 23.6716 7.76703C24.1723 7.9227 24.1744 7.88326 23.6308 8.504C23.0272 9.19333 22.6054 9.7176 22.2852 10.1765C22.1388 10.3863 21.931 10.684 21.8233 10.8382C20.6093 12.5765 19.0014 16.2403 18.7552 17.829C18.7406 17.9233 18.6944 18.116 18.6526 18.2572C18.6107 18.3983 18.5346 18.7241 18.4835 18.981C18.4323 19.2379 18.3408 19.6654 18.2802 19.9311C18.2194 20.1968 18.1693 20.5121 18.1687 20.6318C18.1664 21.1046 18.1137 21.1597 17.5233 21.3072C14.4958 22.0633 12.0159 23.3962 10.8973 24.8687C9.35146 26.9034 9.82619 29.242 12.1338 30.9598C12.7762 31.438 13.9601 32.1242 14.4279 32.2893C14.6058 32.3522 14.8644 32.4544 15.0025 32.5165C16.0334 32.9796 18.5882 33.6383 19.8729 33.7723C20.0612 33.792 20.4286 33.8505 20.6895 33.9024C21.0061 33.9653 22.0937 33.9975 23.9631 33.9993C26.8836 34.0018 26.7054 34.0154 29.0567 33.6116C30.6823 33.3324 31.7208 33.0328 33.4892 32.3327C38.3314 30.4158 39.4488 26.3407 35.8638 23.6733C34.3423 22.5414 31.9697 21.5683 29.6399 21.1209C29.3833 21.0717 29.0266 20.9992 28.8473 20.9598C28.668 20.9204 28.4318 20.8882 28.3224 20.8882C28.0763 20.8882 28.0539 20.4254 28.2383 19.1512C28.3014 18.715 28.4078 17.9729 28.4748 17.5019C28.6678 16.1448 29.0373 14.3023 29.2046 13.8626C29.2495 13.7449 29.2698 13.6485 29.2498 13.6485C29.2298 13.6485 29.2619 13.5172 29.3211 13.3566C29.4256 13.0733 29.7832 11.9365 29.7926 11.858C29.7976 11.8157 29.9662 11.3678 30.0709 11.1186C30.1069 11.0329 30.2421 10.7037 30.3715 10.387C30.677 9.63836 31.425 8.38637 31.658 8.23356C32.5101 7.67469 34.7044 7.19771 36.4625 7.18923C37.7604 7.18292 37.9995 7.0805 37.9995 6.53072C37.9995 5.71346 34.0774 5.89296 31.9339 6.80838C31.8271 6.85406 31.5496 6.96672 31.3173 7.05885C29.9624 7.59608 28.2294 11.8155 27.4279 16.5288C27.3442 17.0212 27.2554 17.5992 27.2306 17.8133C27.2058 18.0274 27.1538 18.4302 27.115 18.7085C26.7574 21.2785 26.6535 26.9291 26.9585 27.225C27.1498 27.4105 27.5293 27.4115 27.7736 27.2271C27.9092 27.1247 27.9341 26.9921 27.968 26.189L28.0069 25.2683L28.7524 25.5186C29.9699 25.9274 30.6898 26.4052 30.6898 26.8044C30.6898 27.3092 29.1413 28.1039 27.4431 28.4708C26.557 28.6622 25.7595 28.8118 25.5962 28.8172C23.6725 28.8817 23.1261 29.1479 23.5352 29.8213L23.6887 30.074L24.3703 30.0746C25.4269 30.0753 27.0095 29.8348 28.279 29.4804C28.5143 29.4148 28.7592 29.3477 28.8234 29.3314C30.0149 29.0288 31.366 28.1583 31.6925 27.4831C32.3434 26.137 30.8092 24.6505 28.2207 24.1193C27.9726 24.0685 27.968 24.0597 27.968 23.6403C27.968 23.2698 27.9861 23.2185 28.1041 23.2539C28.179 23.2764 28.5201 23.3675 28.8622 23.4564C34.7845 24.9943 34.9664 28.4016 29.2157 30.0769C28.8969 30.1698 28.547 30.2607 28.4381 30.2789C28.3292 30.2971 28.1877 30.3317 28.1235 30.3557C26.8247 30.8414 21.1794 30.8414 19.8806 30.3557C19.8164 30.3317 19.6749 30.2971 19.566 30.2789C18.8338 30.1564 17.6884 29.7452 16.77 29.2753C13.7244 27.7168 13.7853 25.7826 16.9283 24.2482C17.7655 23.8395 17.7961 23.8397 17.766 24.252C17.7429 24.5691 17.7243 24.5899 17.1977 24.8905C15.5438 25.8347 15.2069 27.2621 16.408 28.2358C17.6239 29.2214 19.6611 29.2944 19.3711 28.3419C19.2779 28.0356 19.0954 27.8943 18.7929 27.8943C18.014 27.8943 16.8478 27.2636 16.8478 26.8423C16.8478 26.6991 17.4717 26.0261 17.6044 26.0261C17.6468 26.0261 17.6661 26.1075 17.6471 26.207C17.605 26.4273 17.9594 26.8824 18.173 26.8824C18.7149 26.8824 18.8319 26.5898 18.9047 25.053C18.9597 23.8917 19.0703 22.6658 19.1964 21.8224C19.2444 21.5012 19.2918 21.1509 19.3018 21.0439C19.336 20.6785 19.5045 19.8382 19.778 18.6696C20.693 14.7607 22.1236 12.0304 24.9936 8.71573C25.3891 8.25879 25.7128 7.83134 25.7128 7.76584C25.7128 7.49603 25.4769 7.19855 25.1893 7.10579C25.0281 7.05387 24.8614 6.98479 24.8186 6.95242C24.267 6.53437 22.0846 6.09915 20.2694 6.04513L18.753 5.99994L18.578 6.18995ZM28.8831 7.16289C28.5845 7.24115 27.2926 9.2325 26.5382 10.7769C26.0436 11.7897 25.332 13.609 25.2059 14.1834C25.1906 14.2532 25.0715 14.7203 24.9413 15.2216C24.8112 15.7228 24.6517 16.4059 24.5871 16.7396C24.5223 17.0732 24.4341 17.5214 24.3908 17.7354C24.3476 17.9495 24.2986 18.2648 24.2819 18.436C24.2652 18.6073 24.2161 18.9576 24.1727 19.2145C24.041 19.9954 23.7714 22.7494 23.7308 23.7297C23.7148 24.115 23.6631 25.0814 23.6158 25.8773C23.5105 27.6508 23.5972 27.9539 24.1877 27.8748C24.6994 27.8062 24.7548 27.617 24.811 25.7493C24.8977 22.8635 25.1709 20.1371 25.645 17.4241C25.8723 16.1238 26.5579 13.6582 26.9223 12.8311C26.9788 12.7027 27.1189 12.3699 27.2334 12.0916C27.5337 11.3619 27.9305 10.5897 28.3864 9.84778C28.6053 9.49145 28.8195 9.14114 28.8622 9.06933C28.9051 8.99758 29.0912 8.73548 29.2761 8.48698C29.8961 7.65346 29.6878 6.95179 28.8831 7.16289ZM26.8405 7.35261C26.1391 7.57324 23.6527 11.5167 22.8461 13.6874C22.5847 14.391 22.1395 15.7344 22.0078 16.2175C21.7508 17.1602 21.529 18.0727 21.4403 18.5528C21.3889 18.8311 21.2993 19.2865 21.2413 19.5648C21.1832 19.8431 21.0997 20.3336 21.0558 20.6547C20.8896 21.8666 20.788 22.7064 20.7928 22.8266C20.7955 22.8951 20.7504 23.3749 20.6927 23.893C20.4109 26.4191 20.5328 27.3833 21.1319 27.3663C21.5598 27.3541 21.6608 27.1724 21.7042 26.3369C21.7816 24.8486 22.022 22.1554 22.1419 21.4331C22.181 21.1976 22.2267 20.8625 22.2434 20.6884C22.2601 20.5142 22.3126 20.1814 22.3599 19.9488C22.7605 17.9839 22.7964 17.817 22.9133 17.3783C23.4655 15.3058 24.0814 13.6504 24.8784 12.0972C25.341 11.1956 26.5711 9.31938 27.0513 8.78313C27.6403 8.12525 27.7247 7.79302 27.3883 7.45623C27.1793 7.24696 27.1774 7.24661 26.8405 7.35261ZM29.7035 22.3378C31.5397 22.7685 33.2934 23.4512 34.7264 24.293C36.3674 25.2571 37.1964 27.0176 36.6145 28.3026C35.8669 29.953 32.7123 31.7668 29.6756 32.2923C29.5277 32.3179 29.2841 32.3699 29.1344 32.408C28.8524 32.4795 28.2998 32.5663 27.0348 32.7375C26.5732 32.8 25.4353 32.8376 24.002 32.8376C22.5688 32.8376 21.4309 32.8 20.9693 32.7375C19.7043 32.5663 19.1517 32.4795 18.8697 32.408C18.72 32.3699 18.4764 32.3179 18.3285 32.2923C17.3391 32.1211 15.5588 31.5186 14.5041 30.9981C10.0289 28.7893 10.0724 25.7746 14.6112 23.582C15.4255 23.1887 17.1015 22.5947 17.6837 22.4932C17.9903 22.4396 18.0242 22.5765 17.7226 22.6501C17.605 22.6788 17.2021 22.8347 16.8272 22.9965C11.7217 25.2006 12.3513 29.3562 18.0531 31.089C18.2242 31.141 18.5041 31.228 18.6752 31.2823C18.8463 31.3366 19.2137 31.4224 19.4918 31.4729C19.7698 31.5235 20.1547 31.5947 20.3472 31.6312C22.3545 32.0115 25.6496 32.0115 27.6569 31.6312C27.8494 31.5947 28.2343 31.5235 28.5123 31.4729C28.7904 31.4224 29.1578 31.3366 29.3289 31.2823C29.5 31.228 29.7799 31.1408 29.951 31.0886C36.7318 29.0172 36.0333 23.8736 28.7456 22.2136C28.5516 22.1695 28.5253 22.1491 28.6537 22.1427C28.7529 22.1377 29.2253 22.2255 29.7035 22.3378Z" fill="white"/>
</g>
<g filter="url(#filter1_d_33_73)">
<path d="M48.4448 17.9999L46.2261 9.99994H47.4956L49.0542 16.1952H49.1284L50.7495 9.99994H52.0073L53.6284 16.1992H53.7026L55.2573 9.99994H56.5308L54.3081 17.9999H53.0933L51.4097 12.0078H51.3472L49.6636 17.9999H48.4448ZM59.4741 18.121C58.9116 18.121 58.4207 17.9921 58.0015 17.7343C57.5822 17.4765 57.2567 17.1158 57.0249 16.6523C56.7931 16.1887 56.6772 15.6471 56.6772 15.0273C56.6772 14.4049 56.7931 13.8606 57.0249 13.3945C57.2567 12.9283 57.5822 12.5663 58.0015 12.3085C58.4207 12.0507 58.9116 11.9218 59.4741 11.9218C60.0366 11.9218 60.5275 12.0507 60.9468 12.3085C61.366 12.5663 61.6916 12.9283 61.9233 13.3945C62.1551 13.8606 62.271 14.4049 62.271 15.0273C62.271 15.6471 62.1551 16.1887 61.9233 16.6523C61.6916 17.1158 61.366 17.4765 60.9468 17.7343C60.5275 17.9921 60.0366 18.121 59.4741 18.121ZM59.478 17.1406C59.8426 17.1406 60.1447 17.0442 60.3843 16.8515C60.6239 16.6588 60.8009 16.4023 60.9155 16.082C61.0327 15.7617 61.0913 15.4088 61.0913 15.0234C61.0913 14.6406 61.0327 14.289 60.9155 13.9687C60.8009 13.6458 60.6239 13.3867 60.3843 13.1913C60.1447 12.996 59.8426 12.8984 59.478 12.8984C59.1108 12.8984 58.8061 12.996 58.564 13.1913C58.3244 13.3867 58.146 13.6458 58.0288 13.9687C57.9142 14.289 57.8569 14.6406 57.8569 15.0234C57.8569 15.4088 57.9142 15.7617 58.0288 16.082C58.146 16.4023 58.3244 16.6588 58.564 16.8515C58.8061 17.0442 59.1108 17.1406 59.478 17.1406ZM64.7427 14.4374V17.9999H63.5747V11.9999H64.6958V12.9765H64.77C64.908 12.6588 65.1242 12.4036 65.4185 12.2109C65.7153 12.0182 66.089 11.9218 66.5395 11.9218C66.9484 11.9218 67.3065 12.0078 67.6138 12.1796C67.9211 12.3489 68.1593 12.6015 68.3286 12.9374C68.4979 13.2734 68.5825 13.6887 68.5825 14.1835V17.9999H67.4145V14.3242C67.4145 13.8893 67.3013 13.5494 67.0747 13.3046C66.8481 13.0572 66.5369 12.9335 66.1411 12.9335C65.8703 12.9335 65.6294 12.9921 65.4185 13.1093C65.2101 13.2265 65.0448 13.3984 64.9224 13.6249C64.8026 13.8489 64.7427 14.1197 64.7427 14.4374ZM71.1528 9.99994V10.7499C71.1528 10.9713 71.1112 11.2044 71.0278 11.4492C70.9471 11.6913 70.8325 11.9244 70.6841 12.1484C70.5356 12.3723 70.3612 12.565 70.1606 12.7265L69.5825 12.3124C69.7362 12.0885 69.869 11.8502 69.9809 11.5976C70.0955 11.345 70.1528 11.0663 70.1528 10.7617V9.99994H71.1528ZM75.313 11.9999V12.9374H72.0356V11.9999H75.313ZM72.9145 10.5624H74.0825V16.2382C74.0825 16.4648 74.1164 16.6354 74.1841 16.7499C74.2518 16.8619 74.339 16.9387 74.4458 16.9804C74.5552 17.0195 74.6737 17.039 74.8013 17.039C74.895 17.039 74.977 17.0325 75.0474 17.0195C75.1177 17.0064 75.1724 16.996 75.2114 16.9882L75.4224 17.9531C75.3546 17.9791 75.2583 18.0051 75.1333 18.0312C75.0083 18.0598 74.852 18.0755 74.6645 18.0781C74.3573 18.0833 74.0708 18.0286 73.8052 17.914C73.5395 17.7994 73.3247 17.6223 73.1606 17.3827C72.9966 17.1432 72.9145 16.8424 72.9145 16.4804V10.5624ZM84.0122 13.4648L82.9536 13.6523C82.9093 13.5169 82.839 13.388 82.7427 13.2656C82.6489 13.1432 82.5213 13.0429 82.3599 12.9648C82.1984 12.8867 81.9966 12.8476 81.7544 12.8476C81.4237 12.8476 81.1476 12.9218 80.9263 13.0702C80.7049 13.2161 80.5942 13.4049 80.5942 13.6367C80.5942 13.8372 80.6684 13.9986 80.8169 14.121C80.9653 14.2434 81.2049 14.3437 81.5356 14.4218L82.4888 14.6406C83.0408 14.7682 83.4523 14.9648 83.7231 15.2304C83.994 15.496 84.1294 15.8411 84.1294 16.2656C84.1294 16.6249 84.0252 16.9452 83.8169 17.2265C83.6112 17.5051 83.3234 17.7239 82.9536 17.8827C82.5864 18.0416 82.1606 18.121 81.6763 18.121C81.0044 18.121 80.4562 17.9778 80.0317 17.6913C79.6072 17.4023 79.3468 16.9921 79.2505 16.4609L80.3794 16.289C80.4497 16.5833 80.5942 16.8059 80.813 16.957C81.0317 17.1054 81.3169 17.1796 81.6684 17.1796C82.0513 17.1796 82.3572 17.1002 82.5864 16.9413C82.8156 16.7799 82.9302 16.5833 82.9302 16.3515C82.9302 16.164 82.8599 16.0064 82.7192 15.8788C82.5812 15.7512 82.369 15.6549 82.0825 15.5898L81.0669 15.3671C80.507 15.2395 80.0929 15.0364 79.8247 14.7577C79.5591 14.4791 79.4263 14.1262 79.4263 13.6992C79.4263 13.345 79.5252 13.0351 79.7231 12.7695C79.9211 12.5038 80.1945 12.2968 80.5434 12.1484C80.8924 11.9973 81.2921 11.9218 81.7427 11.9218C82.3911 11.9218 82.9015 12.0624 83.2739 12.3437C83.6463 12.6223 83.8924 12.996 84.0122 13.4648ZM89.2143 15.5117V11.9999H90.3862V17.9999H89.2378V16.9609H89.1753C89.0373 17.2812 88.8159 17.5481 88.5112 17.7617C88.2091 17.9726 87.8328 18.0781 87.3823 18.0781C86.9969 18.0781 86.6557 17.9934 86.3589 17.8242C86.0646 17.6523 85.8328 17.3984 85.6636 17.0624C85.4969 16.7265 85.4136 16.3111 85.4136 15.8163V11.9999H86.5815V15.6757C86.5815 16.0846 86.6948 16.4101 86.9214 16.6523C87.1479 16.8945 87.4422 17.0156 87.8042 17.0156C88.0229 17.0156 88.2404 16.9609 88.4565 16.8515C88.6753 16.7421 88.8563 16.5768 88.9995 16.3554C89.1453 16.1341 89.2169 15.8528 89.2143 15.5117ZM91.9556 20.2499V11.9999H93.0962V12.9726H93.1938C93.2615 12.8476 93.3592 12.7031 93.4868 12.539C93.6144 12.3749 93.7915 12.2317 94.0181 12.1093C94.2446 11.9843 94.5441 11.9218 94.9165 11.9218C95.4009 11.9218 95.8332 12.0442 96.2134 12.289C96.5936 12.5338 96.8917 12.8867 97.1079 13.3476C97.3266 13.8085 97.436 14.3632 97.436 15.0117C97.436 15.6601 97.3279 16.2161 97.1118 16.6796C96.8957 17.1406 96.5988 17.496 96.2212 17.746C95.8436 17.9934 95.4126 18.1171 94.9282 18.1171C94.5636 18.1171 94.2654 18.0559 94.0337 17.9335C93.8045 17.8111 93.6248 17.6679 93.4946 17.5038C93.3644 17.3398 93.2641 17.1939 93.1938 17.0663H93.1235V20.2499H91.9556ZM93.1001 14.9999C93.1001 15.4218 93.1613 15.7916 93.2837 16.1093C93.4061 16.427 93.5832 16.6757 93.8149 16.8554C94.0467 17.0325 94.3306 17.121 94.6665 17.121C95.0154 17.121 95.3071 17.0286 95.5415 16.8437C95.7759 16.6562 95.9529 16.4023 96.0727 16.082C96.1951 15.7617 96.2563 15.401 96.2563 14.9999C96.2563 14.6041 96.1964 14.2486 96.0766 13.9335C95.9595 13.6184 95.7824 13.3697 95.5454 13.1874C95.311 13.0051 95.0181 12.914 94.6665 12.914C94.3279 12.914 94.0415 13.0012 93.8071 13.1757C93.5753 13.3502 93.3996 13.5937 93.2798 13.9062C93.16 14.2187 93.1001 14.5833 93.1001 14.9999ZM98.7446 20.2499V11.9999H99.8852V12.9726H99.9829C100.051 12.8476 100.148 12.7031 100.276 12.539C100.403 12.3749 100.581 12.2317 100.807 12.1093C101.034 11.9843 101.333 11.9218 101.706 11.9218C102.19 11.9218 102.622 12.0442 103.002 12.289C103.383 12.5338 103.681 12.8867 103.897 13.3476C104.116 13.8085 104.225 14.3632 104.225 15.0117C104.225 15.6601 104.117 16.2161 103.901 16.6796C103.685 17.1406 103.388 17.496 103.01 17.746C102.633 17.9934 102.202 18.1171 101.717 18.1171C101.353 18.1171 101.055 18.0559 100.823 17.9335C100.594 17.8111 100.414 17.6679 100.284 17.5038C100.153 17.3398 100.053 17.1939 99.9829 17.0663H99.9126V20.2499H98.7446ZM99.8891 14.9999C99.8891 15.4218 99.9503 15.7916 100.073 16.1093C100.195 16.427 100.372 16.6757 100.604 16.8554C100.836 17.0325 101.12 17.121 101.456 17.121C101.805 17.121 102.096 17.0286 102.331 16.8437C102.565 16.6562 102.742 16.4023 102.862 16.082C102.984 15.7617 103.045 15.401 103.045 14.9999C103.045 14.6041 102.985 14.2486 102.866 13.9335C102.749 13.6184 102.571 13.3697 102.334 13.1874C102.1 13.0051 101.807 12.914 101.456 12.914C101.117 12.914 100.831 13.0012 100.596 13.1757C100.364 13.3502 100.189 13.5937 100.069 13.9062C99.949 14.2187 99.8891 14.5833 99.8891 14.9999ZM108.061 18.121C107.499 18.121 107.008 17.9921 106.588 17.7343C106.169 17.4765 105.844 17.1158 105.612 16.6523C105.38 16.1887 105.264 15.6471 105.264 15.0273C105.264 14.4049 105.38 13.8606 105.612 13.3945C105.844 12.9283 106.169 12.5663 106.588 12.3085C107.008 12.0507 107.499 11.9218 108.061 11.9218C108.624 11.9218 109.114 12.0507 109.534 12.3085C109.953 12.5663 110.278 12.9283 110.51 13.3945C110.742 13.8606 110.858 14.4049 110.858 15.0273C110.858 15.6471 110.742 16.1887 110.51 16.6523C110.278 17.1158 109.953 17.4765 109.534 17.7343C109.114 17.9921 108.624 18.121 108.061 18.121ZM108.065 17.1406C108.43 17.1406 108.732 17.0442 108.971 16.8515C109.211 16.6588 109.388 16.4023 109.502 16.082C109.62 15.7617 109.678 15.4088 109.678 15.0234C109.678 14.6406 109.62 14.289 109.502 13.9687C109.388 13.6458 109.211 13.3867 108.971 13.1913C108.732 12.996 108.43 12.8984 108.065 12.8984C107.698 12.8984 107.393 12.996 107.151 13.1913C106.911 13.3867 106.733 13.6458 106.616 13.9687C106.501 14.289 106.444 14.6406 106.444 15.0234C106.444 15.4088 106.501 15.7617 106.616 16.082C106.733 16.4023 106.911 16.6588 107.151 16.8515C107.393 17.0442 107.698 17.1406 108.065 17.1406ZM112.162 17.9999V11.9999H113.291V12.9531H113.353C113.462 12.6301 113.655 12.3762 113.931 12.1913C114.21 12.0038 114.525 11.9101 114.876 11.9101C114.949 11.9101 115.035 11.9127 115.134 11.9179C115.236 11.9231 115.315 11.9296 115.373 11.9374V13.0546C115.326 13.0416 115.242 13.0273 115.123 13.0117C115.003 12.9934 114.883 12.9843 114.763 12.9843C114.487 12.9843 114.241 13.0429 114.025 13.1601C113.811 13.2747 113.642 13.4348 113.517 13.6406C113.392 13.8437 113.33 14.0755 113.33 14.3359V17.9999H112.162ZM119.539 11.9999V12.9374H116.261V11.9999H119.539ZM117.14 10.5624H118.308V16.2382C118.308 16.4648 118.342 16.6354 118.41 16.7499C118.477 16.8619 118.565 16.9387 118.671 16.9804C118.781 17.0195 118.899 17.039 119.027 17.039C119.121 17.039 119.203 17.0325 119.273 17.0195C119.343 17.0064 119.398 16.996 119.437 16.9882L119.648 17.9531C119.58 17.9791 119.484 18.0051 119.359 18.0312C119.234 18.0598 119.078 18.0755 118.89 18.0781C118.583 18.0833 118.296 18.0286 118.031 17.914C117.765 17.7994 117.55 17.6223 117.386 17.3827C117.222 17.1432 117.14 16.8424 117.14 16.4804V10.5624Z" fill="#E8E8E8"/>
<path d="M48.7524 30.9999L46.2126 22.2727H48.5435L49.8603 27.9914H49.9327L51.437 22.2727H53.3376L54.8418 28.0042H54.9143L56.2353 22.2727H58.562L56.0265 30.9999H53.9938L52.4214 25.7073H52.3532L50.7808 30.9999H48.7524ZM60.5521 31.1107C60.1345 31.1107 59.7637 31.0411 59.4398 30.9019C59.1188 30.7599 58.8646 30.5468 58.6771 30.2627C58.4924 29.9758 58.4001 29.6164 58.4001 29.1846C58.4001 28.821 58.464 28.5141 58.5918 28.2641C58.7197 28.0141 58.8958 27.811 59.1202 27.6548C59.3447 27.4985 59.6032 27.3806 59.8958 27.3011C60.1884 27.2187 60.5009 27.1633 60.8333 27.1349C61.2055 27.1008 61.5052 27.0653 61.7325 27.0283C61.9597 26.9886 62.1245 26.9332 62.2268 26.8622C62.3319 26.7883 62.3845 26.6846 62.3845 26.5511V26.5298C62.3845 26.311 62.3092 26.142 62.1586 26.0227C62.008 25.9033 61.8049 25.8437 61.5492 25.8437C61.2737 25.8437 61.0521 25.9033 60.8845 26.0227C60.7168 26.142 60.6103 26.3068 60.5648 26.517L58.643 26.4488C58.6998 26.0511 58.8461 25.696 59.0819 25.3835C59.3205 25.0681 59.6472 24.821 60.062 24.642C60.4796 24.4602 60.981 24.3693 61.5663 24.3693C61.9839 24.3693 62.3688 24.419 62.7211 24.5184C63.0734 24.615 63.3802 24.757 63.6416 24.9445C63.9029 25.1292 64.1046 25.3565 64.2467 25.6264C64.3916 25.8962 64.464 26.2045 64.464 26.5511V30.9999H62.5038V30.088H62.4526C62.3362 30.3096 62.187 30.4971 62.0052 30.6505C61.8262 30.8039 61.6146 30.919 61.3702 30.9957C61.1288 31.0724 60.856 31.1107 60.5521 31.1107ZM61.1955 29.7471C61.42 29.7471 61.6217 29.7016 61.8006 29.6107C61.9825 29.5198 62.1273 29.3948 62.2353 29.2357C62.3433 29.0738 62.3972 28.8863 62.3972 28.6732V28.0511C62.3376 28.0823 62.2651 28.1107 62.1799 28.1363C62.0975 28.1619 62.0066 28.186 61.9072 28.2087C61.8077 28.2315 61.7055 28.2514 61.6004 28.2684C61.4952 28.2854 61.3944 28.3011 61.2978 28.3153C61.1018 28.3465 60.9342 28.3948 60.795 28.4602C60.6586 28.5255 60.5535 28.6107 60.4796 28.7158C60.4086 28.8181 60.3731 28.9403 60.3731 29.0823C60.3731 29.2982 60.4498 29.463 60.6032 29.5766C60.7595 29.6903 60.9569 29.7471 61.1955 29.7471ZM69.4327 24.4545V25.9886H65.3035V24.4545H69.4327ZM66.1685 22.8863H68.2523V28.9417C68.2523 29.0695 68.2722 29.1732 68.312 29.2528C68.3546 29.3295 68.4157 29.3849 68.4952 29.419C68.5748 29.4502 68.67 29.4658 68.7808 29.4658C68.8603 29.4658 68.9441 29.4587 69.0322 29.4445C69.1231 29.4275 69.1913 29.4133 69.2367 29.4019L69.5521 30.9062C69.4526 30.9346 69.312 30.9701 69.1302 31.0127C68.9512 31.0553 68.7367 31.0823 68.4867 31.0937C67.9981 31.1164 67.5791 31.0596 67.2296 30.9232C66.883 30.784 66.6174 30.5681 66.4327 30.2755C66.2509 29.9829 66.1629 29.615 66.1685 29.1718V22.8863ZM73.4853 31.1235C72.8006 31.1235 72.2097 30.9886 71.7126 30.7187C71.2183 30.446 70.8376 30.0582 70.5705 29.5553C70.3063 29.0497 70.1742 28.4488 70.1742 27.7528C70.1742 27.0766 70.3077 26.4857 70.5748 25.9801C70.8418 25.4715 71.2183 25.0766 71.704 24.7954C72.1898 24.5113 72.7623 24.3693 73.4214 24.3693C73.8873 24.3693 74.3134 24.4417 74.6998 24.5866C75.0862 24.7315 75.42 24.946 75.7012 25.2301C75.9825 25.5141 76.2012 25.865 76.3575 26.2826C76.5137 26.6974 76.5918 27.1732 76.5918 27.7102V28.2301H70.9029V27.0198H74.6529C74.6501 26.7982 74.5975 26.6008 74.4952 26.4275C74.393 26.2542 74.2523 26.1193 74.0734 26.0227C73.8972 25.9232 73.6941 25.8735 73.464 25.8735C73.231 25.8735 73.0222 25.9261 72.8376 26.0312C72.6529 26.1335 72.5066 26.2741 72.3987 26.4531C72.2907 26.6292 72.2339 26.8295 72.2282 27.0539V28.2854C72.2282 28.5525 72.2808 28.7869 72.3859 28.9886C72.491 29.1874 72.6401 29.3423 72.8333 29.4531C73.0265 29.5639 73.2566 29.6193 73.5237 29.6193C73.7083 29.6193 73.8759 29.5937 74.0265 29.5425C74.1771 29.4914 74.3063 29.4161 74.4143 29.3167C74.5222 29.2173 74.6032 29.0951 74.6572 28.9502L76.5705 29.0056C76.491 29.4346 76.3163 29.8082 76.0464 30.1264C75.7793 30.4417 75.4285 30.6874 74.9938 30.8636C74.5592 31.0369 74.0563 31.1235 73.4853 31.1235ZM77.6561 30.9999V24.4545H79.6803V25.6477H79.7484C79.8678 25.2158 80.0624 24.8948 80.3322 24.6846C80.6021 24.4715 80.916 24.365 81.274 24.365C81.3706 24.365 81.47 24.3721 81.5723 24.3863C81.6746 24.3977 81.7697 24.4161 81.8578 24.4417V26.2528C81.7584 26.2187 81.6277 26.1917 81.4658 26.1718C81.3067 26.1519 81.1646 26.142 81.0396 26.142C80.7925 26.142 80.5695 26.1974 80.3706 26.3082C80.1746 26.4161 80.0197 26.5681 79.9061 26.7641C79.7953 26.9573 79.7399 27.1846 79.7399 27.446V30.9999H77.6561ZM86.7317 24.4545V25.9886H82.5215V24.4545H86.7317ZM83.3994 30.9999V24.1221C83.3994 23.6164 83.4945 23.1974 83.6849 22.865C83.8752 22.5298 84.1394 22.2798 84.4775 22.115C84.8156 21.9474 85.2062 21.8636 85.6494 21.8636C85.9391 21.8636 86.2119 21.8863 86.4675 21.9318C86.7261 21.9744 86.9178 22.0127 87.0428 22.0468L86.7104 23.5724C86.6337 23.5468 86.54 23.5255 86.4292 23.5085C86.3212 23.4914 86.219 23.4829 86.1224 23.4829C85.8781 23.4829 85.7104 23.5369 85.6195 23.6448C85.5286 23.7528 85.4832 23.9005 85.4832 24.088V30.9999H83.3994ZM89.3216 31.1107C88.904 31.1107 88.5332 31.0411 88.2094 30.9019C87.8883 30.7599 87.6341 30.5468 87.4466 30.2627C87.2619 29.9758 87.1696 29.6164 87.1696 29.1846C87.1696 28.821 87.2335 28.5141 87.3614 28.2641C87.4892 28.0141 87.6653 27.811 87.8898 27.6548C88.1142 27.4985 88.3727 27.3806 88.6653 27.3011C88.958 27.2187 89.2705 27.1633 89.6028 27.1349C89.975 27.1008 90.2747 27.0653 90.502 27.0283C90.7293 26.9886 90.894 26.9332 90.9963 26.8622C91.1014 26.7883 91.154 26.6846 91.154 26.5511V26.5298C91.154 26.311 91.0787 26.142 90.9281 26.0227C90.7776 25.9033 90.5744 25.8437 90.3187 25.8437C90.0432 25.8437 89.8216 25.9033 89.654 26.0227C89.4864 26.142 89.3798 26.3068 89.3344 26.517L87.4125 26.4488C87.4693 26.0511 87.6156 25.696 87.8514 25.3835C88.0901 25.0681 88.4168 24.821 88.8315 24.642C89.2491 24.4602 89.7506 24.3693 90.3358 24.3693C90.7534 24.3693 91.1383 24.419 91.4906 24.5184C91.8429 24.615 92.1497 24.757 92.4111 24.9445C92.6724 25.1292 92.8741 25.3565 93.0162 25.6264C93.1611 25.8962 93.2335 26.2045 93.2335 26.5511V30.9999H91.2733V30.088H91.2222C91.1057 30.3096 90.9565 30.4971 90.7747 30.6505C90.5957 30.8039 90.3841 30.919 90.1398 30.9957C89.8983 31.0724 89.6256 31.1107 89.3216 31.1107ZM89.9651 29.7471C90.1895 29.7471 90.3912 29.7016 90.5702 29.6107C90.752 29.5198 90.8969 29.3948 91.0048 29.2357C91.1128 29.0738 91.1668 28.8863 91.1668 28.6732V28.0511C91.1071 28.0823 91.0347 28.1107 90.9494 28.1363C90.867 28.1619 90.7761 28.186 90.6767 28.2087C90.5773 28.2315 90.475 28.2514 90.3699 28.2684C90.2648 28.2854 90.1639 28.3011 90.0673 28.3153C89.8713 28.3465 89.7037 28.3948 89.5645 28.4602C89.4281 28.5255 89.323 28.6107 89.2491 28.7158C89.1781 28.8181 89.1426 28.9403 89.1426 29.0823C89.1426 29.2982 89.2193 29.463 89.3727 29.5766C89.529 29.6903 89.7264 29.7471 89.9651 29.7471ZM96.5915 22.2727V30.9999H94.5077V22.2727H96.5915ZM100.002 22.2727V30.9999H97.9178V22.2727H100.002Z" fill="white"/>
</g>
<rect x="0.749512" y="0.749939" width="129.5" height="38.5" rx="5.25" stroke="white" stroke-opacity="0.15" stroke-width="1.5"/>
<defs>
<filter id="filter0_d_33_73" x="5.99951" y="1.99994" width="36" height="36" filterUnits="userSpaceOnUse" color-interpolation-filters="sRGB">
<feFlood flood-opacity="0" result="BackgroundImageFix"/>
<feColorMatrix in="SourceAlpha" type="matrix" values="0 0 0 0 0 0 0 0 0 0 0 0 0 0 0 0 0 0 127 0" result="hardAlpha"/>
<feOffset/>
<feGaussianBlur stdDeviation="2"/>
<feComposite in2="hardAlpha" operator="out"/>
<feColorMatrix type="matrix" values="0 0 0 0 0 0 0 0 0 0 0 0 0 0 0 0 0 0 0.25 0"/>
<feBlend mode="normal" in2="BackgroundImageFix" result="effect1_dropShadow_33_73"/>
<feBlend mode="normal" in="SourceGraphic" in2="effect1_dropShadow_33_73" result="shape"/>
</filter>
<filter id="filter1_d_33_73" x="41.9995" y="2.99994" width="83" height="34" filterUnits="userSpaceOnUse" color-interpolation-filters="sRGB">
<feFlood flood-opacity="0" result="BackgroundImageFix"/>
<feColorMatrix in="SourceAlpha" type="matrix" values="0 0 0 0 0 0 0 0 0 0 0 0 0 0 0 0 0 0 127 0" result="hardAlpha"/>
<feOffset/>
<feGaussianBlur stdDeviation="2"/>
<feComposite in2="hardAlpha" operator="out"/>
<feColorMatrix type="matrix" values="0 0 0 0 0 0 0 0 0 0 0 0 0 0 0 0 0 0 0.25 0"/>
<feBlend mode="normal" in2="BackgroundImageFix" result="effect1_dropShadow_33_73"/>
<feBlend mode="normal" in="SourceGraphic" in2="effect1_dropShadow_33_73" result="shape"/>
</filter>
<linearGradient id="paint0_linear_33_73" x1="65.4995" y1="-6.10351e-05" x2="65.4995" y2="39.9999" gradientUnits="userSpaceOnUse">
<stop stop-color="#2C1B1B"/>
<stop offset="1" stop-color="#1F1414"/>
</linearGradient>
</defs>
</svg>
