<svg width="184" height="56" viewBox="0 0 184 56" fill="none" xmlns="http://www.w3.org/2000/svg">
<g clip-path="url(#clip0_33_73)">
<rect x="-0.000488281" y="-0.000183105" width="184" height="56" rx="8" fill="url(#paint0_linear_33_73)"/>
<g filter="url(#filter0_d_33_73)">
<path fill-rule="evenodd" clip-rule="evenodd" d="M24.2545 8.27125C23.4124 9.18586 24.0934 9.6958 26.1581 9.6968C28.0341 9.6977 29.6967 9.95373 31.531 10.5242C32.2463 10.7466 32.2494 10.6903 31.4728 11.577C30.6105 12.5618 30.0079 13.3108 29.5505 13.9663C29.3414 14.266 29.0445 14.6914 28.8906 14.9116C27.1564 17.3949 24.8593 22.6289 24.5076 24.8985C24.4868 25.0332 24.4208 25.3085 24.361 25.5101C24.3012 25.7118 24.1925 26.1771 24.1195 26.5442C24.0464 26.9112 23.9157 27.5219 23.829 27.9015C23.7422 28.2811 23.6706 28.7315 23.6697 28.9024C23.6665 29.5779 23.5913 29.6567 22.7478 29.8674C18.4228 30.9474 14.88 32.8517 13.282 34.9551C11.0737 37.862 11.7519 41.2028 15.0485 43.6567C15.9662 44.3398 17.6575 45.3202 18.3257 45.5561C18.58 45.6459 18.9494 45.7919 19.1467 45.8806C20.6194 46.5422 24.269 47.4832 26.1044 47.6747C26.3734 47.7028 26.8983 47.7864 27.2709 47.8604C27.7232 47.9504 29.2769 47.9963 31.9475 47.9988C36.1196 48.0025 35.8651 48.022 39.224 47.4451C41.5463 47.0462 43.0299 46.6181 45.5563 45.6181C52.4736 42.8796 54.0699 37.0581 48.9485 33.2475C46.775 31.6304 43.3855 30.2404 40.0573 29.6012C39.6906 29.5309 39.181 29.4273 38.9249 29.371C38.6687 29.3148 38.3313 29.2687 38.175 29.2687C37.8235 29.2687 37.7915 28.6077 38.0549 26.7873C38.145 26.1642 38.2971 25.104 38.3928 24.4312C38.6684 22.4925 39.1963 19.8603 39.4354 19.2322C39.4995 19.064 39.5285 18.9264 39.4999 18.9264C39.4714 18.9264 39.5172 18.7387 39.6018 18.5093C39.751 18.1046 40.2619 16.4806 40.2753 16.3685C40.2825 16.308 40.5234 15.6682 40.673 15.3121C40.7244 15.1898 40.9175 14.7195 41.1023 14.267C41.5388 13.1976 42.6074 11.409 42.9402 11.1907C44.1574 10.3923 47.2922 9.71092 49.8037 9.6988C51.6579 9.6898 51.9995 9.54347 51.9995 8.75808C51.9995 7.59056 46.3964 7.84698 43.3344 9.15473C43.1817 9.21999 42.7853 9.38093 42.4535 9.51254C40.5179 10.28 38.0422 16.3077 36.8972 23.0411C36.7777 23.7445 36.6508 24.5702 36.6153 24.876C36.5799 25.1819 36.5056 25.7574 36.4502 26.1549C35.9393 29.8263 35.7909 37.8986 36.2267 38.3213C36.4999 38.5863 37.042 38.5878 37.3911 38.3243C37.5848 38.178 37.6203 37.9887 37.6688 36.8414L37.7243 35.526L38.7893 35.8836C40.5286 36.4676 41.557 37.1501 41.557 37.7205C41.557 38.4417 39.3449 39.577 36.9189 40.101C35.6531 40.3745 34.5138 40.5882 34.2805 40.596C31.5324 40.688 30.7518 41.0684 31.3362 42.0303L31.5555 42.3913L32.5291 42.3921C34.0387 42.3932 36.2995 42.0496 38.1131 41.5434C38.4492 41.4496 38.7991 41.3538 38.8908 41.3305C40.5929 40.8981 42.523 39.6546 42.9894 38.6901C43.9194 36.7671 41.7277 34.6435 38.0298 33.8847C37.6753 33.812 37.6688 33.7995 37.6688 33.2004C37.6688 32.671 37.6946 32.5978 37.8632 32.6484C37.9702 32.6805 38.4576 32.8106 38.9463 32.9376C47.4066 35.1346 47.6665 40.0022 39.4512 42.3955C38.9958 42.5283 38.4959 42.6581 38.3403 42.6841C38.1848 42.7101 37.9827 42.7595 37.891 42.7938C36.0355 43.4876 27.9708 43.4876 26.1153 42.7938C26.0236 42.7595 25.8215 42.7101 25.666 42.6841C24.62 42.509 22.9837 41.9216 21.6717 41.2503C17.3208 39.0239 17.4078 36.2608 21.8978 34.0687C23.0937 33.4849 23.1374 33.4851 23.0944 34.0741C23.0615 34.5271 23.0349 34.557 22.2827 34.9863C19.9199 36.3351 19.4386 38.3743 21.1545 39.7653C22.8915 41.1733 25.8018 41.2776 25.3875 39.917C25.2544 39.4793 24.9937 39.2775 24.5615 39.2775C23.4488 39.2775 21.7828 38.3765 21.7828 37.7747C21.7828 37.5701 22.674 36.6086 22.8637 36.6086C22.9243 36.6086 22.9518 36.7249 22.9246 36.867C22.8645 37.1818 23.3708 37.8318 23.6759 37.8318C24.4501 37.8318 24.6173 37.4139 24.7212 35.2184C24.7997 33.5595 24.9578 31.8082 25.1379 30.6033C25.2065 30.1445 25.2743 29.6441 25.2886 29.4911C25.3373 28.9692 25.5781 27.7687 25.9688 26.0994C27.2759 20.5152 29.3196 16.6148 33.4196 11.8795C33.9847 11.2267 34.4471 10.6161 34.4471 10.5225C34.4471 10.1371 34.1101 9.71212 33.6992 9.5796C33.469 9.50544 33.2307 9.40675 33.1696 9.36051C32.3816 8.76329 29.2639 8.14154 26.6708 8.06437L24.5045 7.99982L24.2545 8.27125ZM38.9761 9.66117C38.5495 9.77297 36.7039 12.6178 35.6263 14.824C34.9196 16.271 33.9031 18.8698 33.7229 19.6905C33.701 19.7901 33.531 20.4575 33.345 21.1736C33.159 21.8897 32.9313 22.8655 32.8389 23.3422C32.7464 23.8188 32.6203 24.459 32.5585 24.7648C32.4968 25.0707 32.4268 25.5211 32.403 25.7657C32.3791 26.0104 32.3089 26.5108 32.247 26.8777C32.0587 27.9933 31.6736 31.9277 31.6156 33.328C31.5928 33.8785 31.5189 35.2591 31.4513 36.3961C31.3009 38.9296 31.4248 39.3627 32.2684 39.2496C32.9994 39.1516 33.0785 38.8814 33.1588 36.2131C33.2827 32.0906 33.6729 28.1957 34.3502 24.32C34.6749 22.4625 35.6544 18.9402 36.1749 17.7587C36.2557 17.5752 36.4557 17.0998 36.6193 16.7022C37.0483 15.6598 37.6152 14.5567 38.2665 13.4967C38.5792 12.9877 38.8852 12.4872 38.9463 12.3847C39.0075 12.2822 39.2734 11.9077 39.5375 11.5527C40.4232 10.362 40.1257 9.35961 38.9761 9.66117ZM36.058 9.93221C35.0561 10.2474 31.504 15.8809 30.3517 18.9819C29.9783 19.987 29.3424 21.9062 29.1543 22.5963C28.787 23.9431 28.4702 25.2466 28.3435 25.9325C28.27 26.3301 28.1421 26.9806 28.0591 27.3782C27.9763 27.7758 27.857 28.4764 27.7942 28.9351C27.5568 30.6665 27.4116 31.8662 27.4185 32.038C27.4224 32.1358 27.358 32.8213 27.2755 33.5613C26.873 37.1701 27.0471 38.5475 27.903 38.5231C28.5142 38.5057 28.6584 38.2462 28.7204 37.0527C28.831 34.9265 29.1744 31.079 29.3458 30.0472C29.4017 29.7108 29.4669 29.232 29.4908 28.9833C29.5146 28.7345 29.5896 28.2591 29.6573 27.9268C30.2295 25.1197 30.2808 24.8813 30.4478 24.2545C31.2366 21.294 32.1165 18.9291 33.255 16.7101C33.9159 15.4222 35.6733 12.7419 36.3591 11.9758C37.2007 11.036 37.3213 10.5614 36.8407 10.0802C36.542 9.78128 36.5393 9.78078 36.058 9.93221ZM40.1481 31.3396C42.7712 31.9549 45.2764 32.9301 47.3237 34.1328C49.6679 35.51 50.8522 38.0251 50.0209 39.8607C48.953 42.2185 44.4464 44.8096 40.1083 45.5603C39.8969 45.5969 39.549 45.6712 39.3351 45.7255C38.9322 45.8277 38.1427 45.9517 36.3356 46.1964C35.6763 46.2856 34.0507 46.3393 32.0031 46.3393C29.9556 46.3393 28.33 46.2856 27.6706 46.1964C25.8635 45.9517 25.0741 45.8277 24.6712 45.7255C24.4573 45.6712 24.1094 45.5969 23.898 45.5603C22.4847 45.3158 19.9413 44.455 18.4347 43.7115C12.0414 40.556 12.1036 36.2494 18.5877 33.1171C19.7509 32.5552 22.1452 31.7067 22.977 31.5615C23.4149 31.4851 23.4633 31.6806 23.0326 31.7857C22.8645 31.8268 22.2889 32.0495 21.7533 32.2807C14.4598 35.4293 15.3591 41.3659 23.5047 43.8414C23.749 43.9157 24.149 44.0399 24.3934 44.1174C24.6378 44.195 25.1627 44.3176 25.5599 44.3898C25.957 44.462 26.5069 44.5637 26.7819 44.6159C29.6495 45.1593 34.3568 45.1593 37.2244 44.6159C37.4993 44.5637 38.0492 44.462 38.4464 44.3898C38.8436 44.3176 39.3685 44.195 39.6129 44.1174C39.8573 44.0399 40.2572 43.9154 40.5016 43.8407C50.1885 40.8816 49.1906 33.5336 38.7797 31.1622C38.5026 31.0991 38.4649 31.07 38.6483 31.0609C38.79 31.0538 39.4649 31.1792 40.1481 31.3396Z" fill="white"/>
<g opacity="0.7">
<mask id="path-4-outside-1_33_73" maskUnits="userSpaceOnUse" x="26.1433" y="22.1431" width="28" height="28" fill="black">
<rect fill="white" x="26.1433" y="22.1431" width="28" height="28"/>
<path fill-rule="evenodd" clip-rule="evenodd" d="M31.9579 25.3523C31.679 25.0733 31.2268 25.0733 30.9479 25.3523L29.3532 26.9474C29.0743 27.2264 29.0743 27.6787 29.3532 27.9577L37.9663 36.573L29.3526 45.1853C29.0736 45.4642 29.0736 45.9164 29.3526 46.1953L30.9476 47.7901C31.2266 48.069 31.6789 48.069 31.9578 47.7901L40.571 39.1784L49.1808 47.7905C49.4597 48.0695 49.9119 48.0695 50.1908 47.7905L51.7855 46.1954C52.0644 45.9164 52.0644 45.4641 51.7855 45.1851L43.1762 36.5736L51.7897 27.9616C52.0687 27.6826 52.0687 27.2304 51.7897 26.9515L50.1947 25.3567C49.9157 25.0778 49.4634 25.0778 49.1844 25.3567L40.5715 33.9682L31.9579 25.3523Z"/>
</mask>
<path fill-rule="evenodd" clip-rule="evenodd" d="M31.9579 25.3523C31.679 25.0733 31.2268 25.0733 30.9479 25.3523L29.3532 26.9474C29.0743 27.2264 29.0743 27.6787 29.3532 27.9577L37.9663 36.573L29.3526 45.1853C29.0736 45.4642 29.0736 45.9164 29.3526 46.1953L30.9476 47.7901C31.2266 48.069 31.6789 48.069 31.9578 47.7901L40.571 39.1784L49.1808 47.7905C49.4597 48.0695 49.9119 48.0695 50.1908 47.7905L51.7855 46.1954C52.0644 45.9164 52.0644 45.4641 51.7855 45.1851L43.1762 36.5736L51.7897 27.9616C52.0687 27.6826 52.0687 27.2304 51.7897 26.9515L50.1947 25.3567C49.9157 25.0778 49.4634 25.0778 49.1844 25.3567L40.5715 33.9682L31.9579 25.3523Z" fill="url(#paint1_linear_33_73)"/>
<path d="M30.9479 25.3523L32.4633 26.8673L32.4633 26.8673L30.9479 25.3523ZM31.9579 25.3523L30.4425 26.8673L30.4425 26.8673L31.9579 25.3523ZM29.3532 26.9474L30.8686 28.4624L30.8686 28.4624L29.3532 26.9474ZM29.3532 27.9577L27.8378 29.4727L27.8378 29.4727L29.3532 27.9577ZM37.9662 36.573L39.4813 38.0884L40.9966 36.5733L39.4817 35.058L37.9662 36.573ZM29.3525 45.1853L27.8374 43.6699L27.8374 43.6699L29.3525 45.1853ZM29.3525 46.1953L27.8374 47.7107L27.8374 47.7107L29.3525 46.1953ZM30.9476 47.7901L32.4627 46.2747L32.4627 46.2747L30.9476 47.7901ZM31.9578 47.7901L33.4729 49.3054L33.4729 49.3054L31.9578 47.7901ZM40.5709 39.1784L42.0864 37.6634L40.5713 36.1479L39.0558 37.6631L40.5709 39.1784ZM49.1808 47.7905L50.6962 46.2755L50.6962 46.2755L49.1808 47.7905ZM50.1908 47.7905L48.6753 46.2755L48.6753 46.2755L50.1908 47.7905ZM51.7855 46.1954L50.27 44.6804L50.27 44.6804L51.7855 46.1954ZM51.7855 45.1851L50.27 46.7001L50.27 46.7001L51.7855 45.1851ZM43.1762 36.5736L41.6611 35.0582L40.1458 36.5733L41.6608 38.0886L43.1762 36.5736ZM51.7897 27.9616L53.3048 29.4769L53.3048 29.4769L51.7897 27.9616ZM51.7897 26.9515L53.3048 25.4361L53.3048 25.4361L51.7897 26.9515ZM50.1947 25.3567L51.7098 23.8414L51.7098 23.8414L50.1947 25.3567ZM49.1844 25.3567L47.6693 23.8414L47.6693 23.8414L49.1844 25.3567ZM40.5715 33.9682L39.0561 35.4832L40.5712 36.9987L42.0866 35.4836L40.5715 33.9682ZM32.4633 26.8673C31.9053 27.4255 31.0004 27.4255 30.4425 26.8673L33.4733 23.8373C32.3575 22.7212 30.5482 22.7212 29.4324 23.8373L32.4633 26.8673ZM30.8686 28.4624L32.4633 26.8673L29.4324 23.8373L27.8378 25.4324L30.8686 28.4624ZM30.8686 26.4427C31.4263 27.0005 31.4263 27.9046 30.8686 28.4624L27.8378 25.4324C26.7223 26.5481 26.7223 28.3569 27.8378 29.4727L30.8686 26.4427ZM39.4817 35.058L30.8686 26.4427L27.8378 29.4727L36.4508 38.088L39.4817 35.058ZM30.8676 46.7006L39.4813 38.0884L36.4511 35.0577L27.8374 43.6699L30.8676 46.7006ZM30.8676 44.68C31.4257 45.2379 31.4257 46.1427 30.8676 46.7006L27.8374 43.6699C26.7215 44.7857 26.7215 46.5949 27.8374 47.7107L30.8676 44.68ZM32.4627 46.2747L30.8676 44.68L27.8374 47.7107L29.4325 49.3054L32.4627 46.2747ZM30.4427 46.2747C31.0005 45.717 31.9048 45.717 32.4627 46.2747L29.4325 49.3054C30.5482 50.421 32.3571 50.421 33.4729 49.3054L30.4427 46.2747ZM39.0558 37.6631L30.4427 46.2747L33.4729 49.3054L42.086 40.6938L39.0558 37.6631ZM50.6962 46.2755L42.0864 37.6634L39.0555 40.6934L47.6653 49.3055L50.6962 46.2755ZM48.6753 46.2755C49.2333 45.7174 50.1382 45.7174 50.6962 46.2755L47.6653 49.3055C48.7811 50.4216 50.5904 50.4216 51.7062 49.3055L48.6753 46.2755ZM50.27 44.6804L48.6753 46.2755L51.7062 49.3055L53.3009 47.7104L50.27 44.6804ZM50.27 46.7001C49.7124 46.1423 49.7124 45.2382 50.27 44.6804L53.3009 47.7104C54.4164 46.5947 54.4164 44.7859 53.3009 43.6701L50.27 46.7001ZM41.6608 38.0886L50.27 46.7001L53.3009 43.6701L44.6916 35.0586L41.6608 38.0886ZM50.2746 26.4462L41.6611 35.0582L44.6913 38.0889L53.3048 29.4769L50.2746 26.4462ZM50.2746 28.4669C49.7165 27.9089 49.7165 27.0042 50.2746 26.4462L53.3048 29.4769C54.4208 28.3611 54.4208 26.5519 53.3048 25.4361L50.2746 28.4669ZM48.6796 26.8721L50.2746 28.4669L53.3048 25.4361L51.7098 23.8414L48.6796 26.8721ZM50.6995 26.8721C50.1417 27.4298 49.2374 27.4298 48.6796 26.8721L51.7098 23.8414C50.594 22.7258 48.7851 22.7258 47.6693 23.8414L50.6995 26.8721ZM42.0866 35.4836L50.6995 26.8721L47.6693 23.8414L39.0564 32.4528L42.0866 35.4836ZM30.4425 26.8673L39.0561 35.4832L42.0869 32.4532L33.4733 23.8373L30.4425 26.8673Z" fill="black" mask="url(#path-4-outside-1_33_73)"/>
</g>
</g>
<g filter="url(#filter1_d_33_73)">
<path d="M67.5563 24.4998L64.3291 12.8635H66.1756L68.4427 21.8748H68.5506L70.9086 12.8635H72.7381L75.0961 21.8805H75.2041L77.4654 12.8635H79.3177L76.0847 24.4998H74.3177L71.8688 15.7839H71.7779L69.3291 24.4998H67.5563ZM83.5989 24.6759C82.7808 24.6759 82.0667 24.4884 81.4569 24.1134C80.847 23.7384 80.3736 23.2138 80.0364 22.5396C79.6993 21.8653 79.5308 21.0775 79.5308 20.1759C79.5308 19.2706 79.6993 18.479 80.0364 17.801C80.3736 17.1229 80.847 16.5964 81.4569 16.2214C82.0667 15.8464 82.7808 15.6589 83.5989 15.6589C84.4171 15.6589 85.1311 15.8464 85.741 16.2214C86.3508 16.5964 86.8243 17.1229 87.1614 17.801C87.4986 18.479 87.6671 19.2706 87.6671 20.1759C87.6671 21.0775 87.4986 21.8653 87.1614 22.5396C86.8243 23.2138 86.3508 23.7384 85.741 24.1134C85.1311 24.4884 84.4171 24.6759 83.5989 24.6759ZM83.6046 23.2498C84.1349 23.2498 84.5743 23.1097 84.9228 22.8294C85.2713 22.5491 85.5289 22.1759 85.6955 21.71C85.866 21.2441 85.9512 20.7309 85.9512 20.1703C85.9512 19.6135 85.866 19.1021 85.6955 18.6362C85.5289 18.1665 85.2713 17.7896 84.9228 17.5055C84.5743 17.2214 84.1349 17.0794 83.6046 17.0794C83.0705 17.0794 82.6273 17.2214 82.2751 17.5055C81.9266 17.7896 81.6671 18.1665 81.4967 18.6362C81.33 19.1021 81.2467 19.6135 81.2467 20.1703C81.2467 20.7309 81.33 21.2441 81.4967 21.71C81.6671 22.1759 81.9266 22.5491 82.2751 22.8294C82.6273 23.1097 83.0705 23.2498 83.6046 23.2498ZM91.2623 19.318V24.4998H89.5634V15.7725H91.1941V17.193H91.3021C91.5028 16.7309 91.8172 16.3597 92.2452 16.0794C92.6771 15.7991 93.2206 15.6589 93.8759 15.6589C94.4706 15.6589 94.9915 15.7839 95.4384 16.0339C95.8854 16.2801 96.232 16.6475 96.4782 17.1362C96.7244 17.6248 96.8475 18.229 96.8475 18.9487V24.4998H95.1487V19.1532C95.1487 18.5206 94.9839 18.0263 94.6543 17.6703C94.3248 17.3104 93.8721 17.1305 93.2964 17.1305C92.9024 17.1305 92.5521 17.2157 92.2452 17.3862C91.9422 17.5566 91.7017 17.8066 91.5237 18.1362C91.3494 18.4619 91.2623 18.8559 91.2623 19.318ZM100.586 12.8635V13.9544C100.586 14.2763 100.526 14.6153 100.404 14.9714C100.287 15.3237 100.12 15.6627 99.9043 15.9885C99.6884 16.3142 99.4346 16.5945 99.143 16.8294L98.3021 16.2271C98.5255 15.9013 98.7187 15.5547 98.8816 15.1873C99.0483 14.8199 99.1316 14.4146 99.1316 13.9714V12.8635H100.586ZM106.637 15.7725V17.1362H101.87V15.7725H106.637ZM103.149 13.6816H104.848V21.9373C104.848 22.2669 104.897 22.515 104.995 22.6816C105.094 22.8445 105.221 22.9563 105.376 23.0169C105.535 23.0737 105.707 23.1021 105.893 23.1021C106.029 23.1021 106.149 23.0926 106.251 23.0737C106.353 23.0547 106.433 23.0396 106.49 23.0282L106.796 24.4316C106.698 24.4695 106.558 24.5074 106.376 24.5453C106.194 24.5869 105.967 24.6097 105.694 24.6134C105.247 24.621 104.83 24.5415 104.444 24.3748C104.058 24.2081 103.745 23.9506 103.507 23.6021C103.268 23.2536 103.149 22.8161 103.149 22.2896V13.6816ZM119.291 17.9032L117.751 18.176C117.687 17.979 117.584 17.7915 117.444 17.6135C117.308 17.4354 117.122 17.2896 116.887 17.176C116.652 17.0623 116.359 17.0055 116.007 17.0055C115.526 17.0055 115.124 17.1135 114.802 17.3294C114.48 17.5415 114.319 17.8161 114.319 18.1532C114.319 18.4449 114.427 18.6797 114.643 18.8578C114.859 19.0358 115.207 19.1816 115.688 19.2953L117.075 19.6134C117.878 19.7991 118.476 20.085 118.87 20.4714C119.264 20.8578 119.461 21.3597 119.461 21.9771C119.461 22.4998 119.31 22.9657 119.007 23.3748C118.707 23.7801 118.289 24.0983 117.751 24.3294C117.217 24.5604 116.598 24.6759 115.893 24.6759C114.916 24.6759 114.118 24.4676 113.501 24.0509C112.883 23.6305 112.505 23.0339 112.365 22.2612L114.007 22.0112C114.109 22.4392 114.319 22.7631 114.637 22.9828C114.955 23.1987 115.37 23.3066 115.882 23.3066C116.438 23.3066 116.883 23.1911 117.217 22.96C117.55 22.7252 117.717 22.4392 117.717 22.1021C117.717 21.8294 117.615 21.6002 117.41 21.4146C117.209 21.229 116.901 21.0888 116.484 20.9941L115.007 20.6703C114.192 20.4847 113.59 20.1892 113.2 19.7839C112.813 19.3786 112.62 18.8653 112.62 18.2441C112.62 17.729 112.764 17.2782 113.052 16.8919C113.34 16.5055 113.738 16.2044 114.245 15.9885C114.753 15.7688 115.334 15.6589 115.99 15.6589C116.933 15.6589 117.675 15.8635 118.217 16.2725C118.758 16.6778 119.116 17.2214 119.291 17.9032ZM126.857 20.8805V15.7725H128.562V24.4998H126.892V22.9884H126.801C126.6 23.4544 126.278 23.8426 125.835 24.1532C125.395 24.46 124.848 24.6134 124.193 24.6134C123.632 24.6134 123.136 24.4903 122.704 24.2441C122.276 23.9941 121.939 23.6248 121.693 23.1362C121.45 22.6475 121.329 22.0434 121.329 21.3237V15.7725H123.028V21.1191C123.028 21.7138 123.193 22.1873 123.522 22.5396C123.852 22.8919 124.28 23.068 124.806 23.068C125.124 23.068 125.441 22.9884 125.755 22.8294C126.073 22.6703 126.337 22.4297 126.545 22.1078C126.757 21.7858 126.861 21.3767 126.857 20.8805ZM130.845 27.7725V15.7725H132.504V17.1873H132.646C132.744 17.0055 132.886 16.7953 133.072 16.5566C133.258 16.318 133.515 16.1097 133.845 15.9316C134.174 15.7498 134.61 15.6589 135.151 15.6589C135.856 15.6589 136.485 15.8369 137.038 16.193C137.591 16.5491 138.025 17.0623 138.339 17.7328C138.657 18.4032 138.816 19.21 138.816 20.1532C138.816 21.0964 138.659 21.9051 138.345 22.5794C138.03 23.2498 137.598 23.7669 137.049 24.1305C136.5 24.4903 135.873 24.6703 135.169 24.6703C134.638 24.6703 134.205 24.5813 133.867 24.4032C133.534 24.2252 133.273 24.0169 133.083 23.7782C132.894 23.5396 132.748 23.3275 132.646 23.1419H132.544V27.7725H130.845ZM132.509 20.1362C132.509 20.7498 132.598 21.2877 132.776 21.7498C132.955 22.2119 133.212 22.5737 133.549 22.835C133.886 23.0926 134.299 23.2214 134.788 23.2214C135.295 23.2214 135.72 23.0869 136.061 22.818C136.401 22.5453 136.659 22.1759 136.833 21.71C137.011 21.2441 137.1 20.7195 137.1 20.1362C137.1 19.5604 137.013 19.0434 136.839 18.585C136.669 18.1267 136.411 17.765 136.066 17.4998C135.725 17.2347 135.299 17.1021 134.788 17.1021C134.295 17.1021 133.879 17.229 133.538 17.4828C133.201 17.7366 132.945 18.0907 132.771 18.5453C132.597 18.9998 132.509 19.5301 132.509 20.1362ZM140.72 27.7725V15.7725H142.379V17.1873H142.521C142.619 17.0055 142.761 16.7953 142.947 16.5566C143.133 16.318 143.39 16.1097 143.72 15.9316C144.049 15.7498 144.485 15.6589 145.026 15.6589C145.731 15.6589 146.36 15.8369 146.913 16.193C147.466 16.5491 147.9 17.0623 148.214 17.7328C148.532 18.4032 148.691 19.21 148.691 20.1532C148.691 21.0964 148.534 21.9051 148.22 22.5794C147.905 23.2498 147.473 23.7669 146.924 24.1305C146.375 24.4903 145.748 24.6703 145.044 24.6703C144.513 24.6703 144.08 24.5813 143.742 24.4032C143.409 24.2252 143.148 24.0169 142.958 23.7782C142.769 23.5396 142.623 23.3275 142.521 23.1419H142.419V27.7725H140.72ZM142.384 20.1362C142.384 20.7498 142.473 21.2877 142.651 21.7498C142.83 22.2119 143.087 22.5737 143.424 22.835C143.761 23.0926 144.174 23.2214 144.663 23.2214C145.17 23.2214 145.595 23.0869 145.936 22.818C146.276 22.5453 146.534 22.1759 146.708 21.71C146.886 21.2441 146.975 20.7195 146.975 20.1362C146.975 19.5604 146.888 19.0434 146.714 18.585C146.544 18.1267 146.286 17.765 145.941 17.4998C145.6 17.2347 145.174 17.1021 144.663 17.1021C144.17 17.1021 143.754 17.229 143.413 17.4828C143.076 17.7366 142.82 18.0907 142.646 18.5453C142.472 18.9998 142.384 19.5301 142.384 20.1362ZM154.271 24.6759C153.453 24.6759 152.739 24.4884 152.129 24.1134C151.519 23.7384 151.045 23.2138 150.708 22.5396C150.371 21.8653 150.203 21.0775 150.203 20.1759C150.203 19.2706 150.371 18.479 150.708 17.801C151.045 17.1229 151.519 16.5964 152.129 16.2214C152.739 15.8464 153.453 15.6589 154.271 15.6589C155.089 15.6589 155.803 15.8464 156.413 16.2214C157.023 16.5964 157.496 17.1229 157.833 17.801C158.17 18.479 158.339 19.2706 158.339 20.1759C158.339 21.0775 158.17 21.8653 157.833 22.5396C157.496 23.2138 157.023 23.7384 156.413 24.1134C155.803 24.4884 155.089 24.6759 154.271 24.6759ZM154.276 23.2498C154.807 23.2498 155.246 23.1097 155.595 22.8294C155.943 22.5491 156.201 22.1759 156.367 21.71C156.538 21.2441 156.623 20.7309 156.623 20.1703C156.623 19.6135 156.538 19.1021 156.367 18.6362C156.201 18.1665 155.943 17.7896 155.595 17.5055C155.246 17.2214 154.807 17.0794 154.276 17.0794C153.742 17.0794 153.299 17.2214 152.947 17.5055C152.598 17.7896 152.339 18.1665 152.169 18.6362C152.002 19.1021 151.919 19.6135 151.919 20.1703C151.919 20.7309 152.002 21.2441 152.169 21.71C152.339 22.1759 152.598 22.5491 152.947 22.8294C153.299 23.1097 153.742 23.2498 154.276 23.2498ZM160.235 24.4998V15.7725H161.877V17.1589H161.968C162.127 16.6892 162.408 16.3199 162.809 16.051C163.214 15.7782 163.673 15.6419 164.184 15.6419C164.29 15.6419 164.415 15.6456 164.559 15.6532C164.707 15.6608 164.822 15.6703 164.906 15.6816V17.3066C164.838 17.2877 164.716 17.2669 164.542 17.2441C164.368 17.2176 164.194 17.2044 164.019 17.2044C163.618 17.2044 163.26 17.2896 162.946 17.46C162.635 17.6267 162.389 17.8597 162.207 18.1589C162.025 18.4544 161.934 18.7915 161.934 19.1703V24.4998H160.235ZM170.965 15.7725V17.1362H166.198V15.7725H170.965ZM167.477 13.6816H169.176V21.9373C169.176 22.2669 169.225 22.515 169.323 22.6816C169.422 22.8445 169.549 22.9563 169.704 23.0169C169.863 23.0737 170.035 23.1021 170.221 23.1021C170.357 23.1021 170.477 23.0926 170.579 23.0737C170.681 23.0547 170.761 23.0396 170.818 23.0282L171.124 24.4316C171.026 24.4695 170.886 24.5074 170.704 24.5453C170.522 24.5869 170.295 24.6097 170.022 24.6134C169.575 24.621 169.159 24.5415 168.772 24.3748C168.386 24.2081 168.073 23.9506 167.835 23.6021C167.596 23.2536 167.477 22.8161 167.477 22.2896V13.6816Z" fill="#E7CDCD"/>
<path d="M67.8994 43.4998L64.3014 31.1362H67.6036L69.469 39.2377H69.5716L71.7026 31.1362H74.3951L76.5261 39.2559H76.6288L78.5002 31.1362H81.7964L78.2044 43.4998H75.3248L73.0972 36.0019H73.0006L70.7729 43.4998H67.8994ZM84.6156 43.6568C84.024 43.6568 83.4988 43.5582 83.04 43.361C82.5852 43.1597 82.225 42.8579 81.9594 42.4554C81.6978 42.0489 81.567 41.5398 81.567 40.9281C81.567 40.4129 81.6575 39.9783 81.8386 39.6241C82.0197 39.2699 82.2693 38.9822 82.5872 38.7608C82.9052 38.5395 83.2714 38.3724 83.6859 38.2598C84.1005 38.143 84.5432 38.0646 85.0141 38.0243C85.5413 37.976 85.9659 37.9257 86.2879 37.8734C86.6098 37.817 86.8433 37.7386 86.9881 37.638C87.1371 37.5333 87.2115 37.3864 87.2115 37.1973V37.1671C87.2115 36.8572 87.1049 36.6177 86.8916 36.4487C86.6782 36.2796 86.3905 36.1951 86.0283 36.1951C85.6379 36.1951 85.324 36.2796 85.0865 36.4487C84.8491 36.6177 84.6981 36.8511 84.6337 37.149L81.9111 37.0524C81.9916 36.4889 82.1988 35.9858 82.5329 35.5431C82.871 35.0964 83.3338 34.7463 83.9214 34.4927C84.513 34.2351 85.2233 34.1063 86.0524 34.1063C86.644 34.1063 87.1894 34.1768 87.6884 34.3176C88.1875 34.4545 88.6221 34.6557 88.9924 34.9213C89.3627 35.1829 89.6484 35.5049 89.8496 35.8872C90.0549 36.2696 90.1575 36.7063 90.1575 37.1973V43.4998H87.3805V42.2079H87.3081C87.1431 42.5218 86.9318 42.7875 86.6742 43.0048C86.4207 43.2221 86.1208 43.3851 85.7747 43.4938C85.4326 43.6024 85.0463 43.6568 84.6156 43.6568ZM85.5272 41.725C85.8451 41.725 86.1309 41.6606 86.3844 41.5318C86.642 41.403 86.8473 41.2259 87.0002 41.0005C87.1532 40.7711 87.2296 40.5055 87.2296 40.2036V39.3223C87.1451 39.3665 87.0425 39.4068 86.9217 39.443C86.805 39.4792 86.6762 39.5134 86.5354 39.5456C86.3945 39.5778 86.2496 39.606 86.1007 39.6301C85.9518 39.6543 85.8089 39.6764 85.6721 39.6965C85.3944 39.7408 85.1569 39.8092 84.9597 39.9018C84.7666 39.9944 84.6176 40.1151 84.513 40.264C84.4124 40.4089 84.3621 40.582 84.3621 40.7832C84.3621 41.0891 84.4707 41.3225 84.6881 41.4835C84.9094 41.6445 85.1891 41.725 85.5272 41.725ZM97.1966 34.2271V36.4004H91.3468V34.2271H97.1966ZM92.5723 32.0055H95.5244V40.584C95.5244 40.7651 95.5525 40.912 95.6089 41.0247C95.6692 41.1333 95.7558 41.2118 95.8685 41.2601C95.9812 41.3044 96.116 41.3265 96.2729 41.3265C96.3856 41.3265 96.5044 41.3165 96.6291 41.2963C96.7579 41.2722 96.8545 41.2521 96.9189 41.236L97.3656 43.367C97.2248 43.4072 97.0255 43.4576 96.768 43.5179C96.5144 43.5783 96.2106 43.6165 95.8564 43.6326C95.1642 43.6648 94.5705 43.5843 94.0755 43.3911C93.5845 43.1939 93.2082 42.8881 92.9466 42.4735C92.689 42.059 92.5643 41.5378 92.5723 40.91V32.0055ZM102.938 43.6749C101.968 43.6749 101.131 43.4837 100.426 43.1014C99.7261 42.715 99.1868 42.1657 98.8085 41.4533C98.4342 40.7369 98.247 39.8857 98.247 38.8997C98.247 37.9418 98.4362 37.1047 98.8145 36.3883C99.1928 35.6679 99.7261 35.1085 100.414 34.71C101.102 34.3076 101.913 34.1063 102.847 34.1063C103.507 34.1063 104.111 34.209 104.658 34.4142C105.206 34.6195 105.678 34.9233 106.077 35.3258C106.475 35.7283 106.785 36.2253 107.007 36.8169C107.228 37.4045 107.339 38.0786 107.339 38.8393V39.5758H99.2793V37.8613H104.592C104.588 37.5474 104.513 37.2677 104.368 37.0222C104.224 36.7767 104.024 36.5855 103.771 36.4487C103.521 36.3078 103.234 36.2374 102.908 36.2374C102.578 36.2374 102.282 36.3118 102.02 36.4608C101.758 36.6056 101.551 36.8049 101.398 37.0584C101.245 37.3079 101.165 37.5917 101.157 37.9096V39.6543C101.157 40.0326 101.231 40.3646 101.38 40.6504C101.529 40.9321 101.74 41.1514 102.014 41.3084C102.288 41.4654 102.614 41.5438 102.992 41.5438C103.254 41.5438 103.491 41.5076 103.704 41.4352C103.918 41.3627 104.101 41.2561 104.254 41.1152C104.407 40.9744 104.521 40.8013 104.598 40.596L107.308 40.6745C107.196 41.2822 106.948 41.8115 106.566 42.2622C106.188 42.709 105.691 43.0571 105.075 43.3066C104.459 43.5521 103.747 43.6749 102.938 43.6749ZM108.846 43.4998V34.2271H111.714V35.9174H111.81C111.98 35.3057 112.255 34.8509 112.638 34.5531C113.02 34.2512 113.465 34.1003 113.972 34.1003C114.109 34.1003 114.249 34.1104 114.394 34.1305C114.539 34.1466 114.674 34.1728 114.799 34.209V36.7747C114.658 36.7264 114.473 36.6881 114.243 36.66C114.018 36.6318 113.817 36.6177 113.64 36.6177C113.29 36.6177 112.974 36.6962 112.692 36.8532C112.414 37.0061 112.195 37.2214 112.034 37.4991C111.877 37.7728 111.798 38.0947 111.798 38.465V43.4998H108.846ZM121.704 34.2271V36.4004H115.739V34.2271H121.704ZM116.983 43.4998V33.7562C116.983 33.0398 117.117 32.4462 117.387 31.9753C117.657 31.5004 118.031 31.1462 118.51 30.9128C118.989 30.6754 119.542 30.5566 120.17 30.5566C120.581 30.5566 120.967 30.5888 121.329 30.6532C121.695 30.7136 121.967 30.7679 122.144 30.8162L121.673 32.9774C121.565 32.9412 121.432 32.911 121.275 32.8869C121.122 32.8627 120.977 32.8507 120.84 32.8507C120.494 32.8507 120.257 32.9271 120.128 33.0801C119.999 33.233 119.935 33.4423 119.935 33.7079V43.4998H116.983ZM125.372 43.6568C124.781 43.6568 124.256 43.5582 123.797 43.361C123.342 43.1597 122.982 42.8579 122.716 42.4554C122.455 42.0489 122.324 41.5398 122.324 40.9281C122.324 40.4129 122.414 39.9783 122.595 39.6241C122.777 39.2699 123.026 38.9822 123.344 38.7608C123.662 38.5395 124.028 38.3724 124.443 38.2598C124.857 38.143 125.3 38.0646 125.771 38.0243C126.298 37.976 126.723 37.9257 127.045 37.8734C127.367 37.817 127.6 37.7386 127.745 37.638C127.894 37.5333 127.968 37.3864 127.968 37.1973V37.1671C127.968 36.8572 127.862 36.6177 127.648 36.4487C127.435 36.2796 127.147 36.1951 126.785 36.1951C126.395 36.1951 126.081 36.2796 125.843 36.4487C125.606 36.6177 125.455 36.8511 125.391 37.149L122.668 37.0524C122.748 36.4889 122.956 35.9858 123.29 35.5431C123.628 35.0964 124.091 34.7463 124.678 34.4927C125.27 34.2351 125.98 34.1063 126.809 34.1063C127.401 34.1063 127.946 34.1768 128.445 34.3176C128.944 34.4545 129.379 34.6557 129.749 34.9213C130.119 35.1829 130.405 35.5049 130.606 35.8872C130.812 36.2696 130.914 36.7063 130.914 37.1973V43.4998H128.137V42.2079H128.065C127.9 42.5218 127.689 42.7875 127.431 43.0048C127.177 43.2221 126.878 43.3851 126.532 43.4938C126.189 43.6024 125.803 43.6568 125.372 43.6568ZM126.284 41.725C126.602 41.725 126.888 41.6606 127.141 41.5318C127.399 41.403 127.604 41.2259 127.757 41.0005C127.91 40.7711 127.986 40.5055 127.986 40.2036V39.3223C127.902 39.3665 127.799 39.4068 127.679 39.443C127.562 39.4792 127.433 39.5134 127.292 39.5456C127.151 39.5778 127.006 39.606 126.858 39.6301C126.709 39.6543 126.566 39.6764 126.429 39.6965C126.151 39.7408 125.914 39.8092 125.717 39.9018C125.523 39.9944 125.374 40.1151 125.27 40.264C125.169 40.4089 125.119 40.582 125.119 40.7832C125.119 41.0891 125.228 41.3225 125.445 41.4835C125.666 41.6445 125.946 41.725 126.284 41.725ZM135.671 31.1362V43.4998H132.719V31.1362H135.671ZM140.503 31.1362V43.4998H137.55V31.1362H140.503Z" fill="white"/>
</g>
</g>
<rect x="1.04951" y="1.04982" width="181.9" height="53.9" rx="6.95" stroke="white" stroke-opacity="0.15" stroke-width="2.1"/>
<defs>
<filter id="filter0_d_33_73" x="6.28523" y="2.28553" width="53.5709" height="53.5713" filterUnits="userSpaceOnUse" color-interpolation-filters="sRGB">
<feFlood flood-opacity="0" result="BackgroundImageFix"/>
<feColorMatrix in="SourceAlpha" type="matrix" values="0 0 0 0 0 0 0 0 0 0 0 0 0 0 0 0 0 0 127 0" result="hardAlpha"/>
<feOffset/>
<feGaussianBlur stdDeviation="2.85714"/>
<feComposite in2="hardAlpha" operator="out"/>
<feColorMatrix type="matrix" values="0 0 0 0 0 0 0 0 0 0 0 0 0 0 0 0 0 0 0.25 0"/>
<feBlend mode="normal" in2="BackgroundImageFix" result="effect1_dropShadow_33_73"/>
<feBlend mode="normal" in="SourceGraphic" in2="effect1_dropShadow_33_73" result="shape"/>
</filter>
<filter id="filter1_d_33_73" x="58.3995" y="3.89982" width="119.2" height="48.2" filterUnits="userSpaceOnUse" color-interpolation-filters="sRGB">
<feFlood flood-opacity="0" result="BackgroundImageFix"/>
<feColorMatrix in="SourceAlpha" type="matrix" values="0 0 0 0 0 0 0 0 0 0 0 0 0 0 0 0 0 0 127 0" result="hardAlpha"/>
<feOffset/>
<feGaussianBlur stdDeviation="2.8"/>
<feComposite in2="hardAlpha" operator="out"/>
<feColorMatrix type="matrix" values="0 0 0 0 0 0 0 0 0 0 0 0 0 0 0 0 0 0 0.25 0"/>
<feBlend mode="normal" in2="BackgroundImageFix" result="effect1_dropShadow_33_73"/>
<feBlend mode="normal" in="SourceGraphic" in2="effect1_dropShadow_33_73" result="shape"/>
</filter>
<linearGradient id="paint0_linear_33_73" x1="91.9995" y1="-0.000183105" x2="91.9995" y2="55.9998" gradientUnits="userSpaceOnUse">
<stop stop-color="#2C1B1B"/>
<stop offset="1" stop-color="#1F1414"/>
</linearGradient>
<linearGradient id="paint1_linear_33_73" x1="40.5711" y1="25.1431" x2="40.5711" y2="47.9997" gradientUnits="userSpaceOnUse">
<stop stop-color="#FF0000"/>
<stop offset="1" stop-color="#CC0000"/>
</linearGradient>
<clipPath id="clip0_33_73">
<rect x="-0.000488281" y="-0.000183105" width="184" height="56" rx="8" fill="white"/>
</clipPath>
</defs>
</svg>
