<svg width="40" height="40" viewBox="0 0 40 40" fill="none" xmlns="http://www.w3.org/2000/svg">
<g clip-path="url(#clip0_28_3973)">
<rect x="-0.000976562" y="-6.10352e-05" width="40" height="40" rx="6" fill="url(#paint0_linear_28_3973)"/>
<g filter="url(#filter0_d_28_3973)">
<path d="M13.3646 6V8.28846H9.16667V10.3077H7V12.5962H9.16667V14.6154H11.3333V16.7692H15.6667V18.9231H24.3333V16.7692H28.6667V14.6154H30.6979V21.2115H28.6667V27.5385H26.3646V31.8462H13.3646V34H26.3646V31.8462H28.6667V27.5385H30.6979V21.2115H33V10.3077H30.6979V12.5962H28.6667V14.6154H24.3333V16.7692H15.6667V14.6154H11.3333V12.5962H9.16667V10.3077H13.3646V8.28846H20V6H13.3646Z" fill="#353535"/>
<path d="M20 6V8.28846H26.3646V10.3077H30.6979V8.28846H26.3646V6H20Z" fill="#515151"/>
<path d="M13.3647 8.28845V10.3077H15.6668V8.28845H13.3647Z" fill="#A37B63"/>
<path d="M15.6665 8.28845V10.3077H17.8332V8.28845H15.6665Z" fill="#AB826B"/>
<path d="M17.8335 8.28845V10.3077H22.0314V8.28845H17.8335Z" fill="#ABA26B"/>
<path d="M22.0312 8.28845V10.3077H24.3333V8.28845H22.0312Z" fill="#AB826B"/>
<path d="M24.3335 8.28845V10.3077H26.3647V12.5961H28.6668V10.3077H26.3647V8.28845H24.3335Z" fill="#BF967E"/>
<path d="M9.1665 10.3077V12.5962H11.3332V10.3077H9.1665Z" fill="#958C55"/>
<path d="M11.3335 10.3077V12.5962H13.3647V10.3077H11.3335Z" fill="#956C55"/>
<path d="M13.3647 10.3077V12.5962H15.6668V10.3077H13.3647Z" fill="#C33E1F"/>
<path d="M15.6665 10.3077V12.5962H17.8332V14.6154H19.9998V16.7693H24.3332V14.6154H19.9998V12.5962H17.8332V10.3077H15.6665Z" fill="#E38C3F"/>
<path d="M17.8335 10.3077V12.5962H20.0002V14.6154H24.3335V12.5962H22.0314V10.3077H17.8335Z" fill="#E4D25C"/>
<path d="M22.0312 10.3077V12.5962H24.3333V10.3077H22.0312Z" fill="#E38C3F"/>
<path d="M24.3335 10.3077V12.5962H26.3647V14.6154H28.6668V12.5962H26.3647V10.3077H24.3335Z" fill="#CC4628"/>
<path d="M28.6665 10.3077V12.5962H30.6978V10.3077H28.6665Z" fill="#BFB67E"/>
<path d="M7 12.5962V21.2115H9.16667V27.5385H11.3333V31.8462H13.3646V27.5385H11.3333V21.2115H9.16667V12.5962H7Z" fill="#515151"/>
<path d="M11.3335 12.5962V14.6154H13.3647V12.5962H11.3335Z" fill="#DC8638"/>
<path d="M13.3647 12.5962V14.6154H15.6668V16.7693H17.8335V12.5962H13.3647Z" fill="#E2CF5A"/>
<path d="M24.3335 12.5962V14.6154H26.3647V12.5962H24.3335Z" fill="#EA9346"/>
<path d="M9.1665 14.6154V16.7692H11.3332V18.923H15.6665V16.7692H11.3332V14.6154H9.1665Z" fill="#E7E7E7"/>
<path d="M17.8335 14.6154V16.7692H20.0002V14.6154H17.8335Z" fill="#C54021"/>
<path d="M28.6665 14.6154V16.7692H30.6978V14.6154H28.6665Z" fill="#A9A9A9"/>
<path d="M9.1665 16.7693V21.2116H11.3332V27.5385H13.3644V29.827H15.6665V31.8462H19.9998V23.2308H17.8332V21.2116H15.6665V23.2308H13.3644V18.9231H11.3332V16.7693H9.1665Z" fill="#D8D8D8"/>
<path d="M24.3335 16.7693V18.9231H26.3647V16.7693H24.3335Z" fill="#EAD762"/>
<path d="M26.3647 16.7693V18.9231H28.6668V16.7693H26.3647Z" fill="#CB4627"/>
<path d="M28.6668 16.7693V21.2116H26.3647V27.5385H28.6668V21.2116H30.6981V16.7693H28.6668Z" fill="#727272"/>
<path d="M13.3647 18.9231V23.2308H15.6668V18.9231H13.3647Z" fill="white"/>
<path d="M15.6665 18.9231V21.2116H17.8332V18.9231H15.6665Z" fill="#D85334"/>
<path d="M17.8335 18.9231V21.2116H24.3335V18.9231H17.8335Z" fill="#CACACA"/>
<path d="M24.3335 18.9231V21.2116H26.3647V18.9231H24.3335Z" fill="#E99245"/>
<path d="M26.3647 18.9231V21.2116H28.6668V18.9231H26.3647Z" fill="#969696"/>
<path d="M17.8335 21.2115V23.2308H20.0002V29.8269H22.0314V23.2308H24.3335V21.2115H17.8335Z" fill="#A8A8A8"/>
<path d="M24.3335 21.2115V23.2308H26.3647V21.2115H24.3335Z" fill="#CB4627"/>
<path d="M15.6665 23.2307V27.5384H17.8332V23.2307H15.6665Z" fill="white"/>
<path d="M22.0312 23.2307V29.8269H20V31.8461H26.3646V27.5384H24.3333V25.5192H26.3646V23.2307H22.0312Z" fill="#969696"/>
<path d="M24.3335 25.5193V27.5385H26.3647V25.5193H24.3335Z" fill="#CB4627"/>
<path d="M13.3647 29.8269V31.8461H15.6668V29.8269H13.3647Z" fill="#969696"/>
<g opacity="0.7">
<mask id="path-40-outside-1_28_3973" maskUnits="userSpaceOnUse" x="16" y="16" width="20" height="20" fill="black">
<rect fill="white" x="16" y="16" width="20" height="20"/>
<path fill-rule="evenodd" clip-rule="evenodd" d="M19.9702 18.1465C19.775 17.9512 19.4585 17.9512 19.2632 18.1465L18.1469 19.263C17.9517 19.4583 17.9517 19.7749 18.1469 19.9702L24.1761 26.0009L18.1465 32.0295C17.9512 32.2248 17.9512 32.5413 18.1465 32.7366L19.263 33.8529C19.4583 34.0481 19.7749 34.0481 19.9701 33.8529L25.9993 27.8247L32.0262 33.8532C32.2215 34.0485 32.538 34.0485 32.7333 33.8532L33.8495 32.7366C34.0448 32.5413 34.0448 32.2247 33.8495 32.0294L27.823 26.0013L33.8525 19.9729C34.0477 19.7777 34.0477 19.4611 33.8525 19.2659L32.7359 18.1496C32.5407 17.9543 32.2241 17.9543 32.0288 18.1496L25.9997 24.1776L19.9702 18.1465Z"/>
</mask>
<path fill-rule="evenodd" clip-rule="evenodd" d="M19.9702 18.1465C19.775 17.9512 19.4585 17.9512 19.2632 18.1465L18.1469 19.263C17.9517 19.4583 17.9517 19.7749 18.1469 19.9702L24.1761 26.0009L18.1465 32.0295C17.9512 32.2248 17.9512 32.5413 18.1465 32.7366L19.263 33.8529C19.4583 34.0481 19.7749 34.0481 19.9701 33.8529L25.9993 27.8247L32.0262 33.8532C32.2215 34.0485 32.538 34.0485 32.7333 33.8532L33.8495 32.7366C34.0448 32.5413 34.0448 32.2247 33.8495 32.0294L27.823 26.0013L33.8525 19.9729C34.0477 19.7777 34.0477 19.4611 33.8525 19.2659L32.7359 18.1496C32.5407 17.9543 32.2241 17.9543 32.0288 18.1496L25.9997 24.1776L19.9702 18.1465Z" fill="url(#paint1_linear_28_3973)"/>
<path d="M19.2632 18.1465L20.324 19.207L19.2632 18.1465ZM19.9702 18.1465L18.9094 19.207L18.9094 19.207L19.9702 18.1465ZM18.1469 19.263L17.0861 18.2025L17.0861 18.2025L18.1469 19.263ZM18.1469 19.9702L17.0861 21.0308L17.0861 21.0308L18.1469 19.9702ZM24.1761 26.0009L25.2366 27.0617L26.2973 26.0012L25.2369 24.9404L24.1761 26.0009ZM18.1465 32.0295L17.0859 30.9688L17.0859 30.9688L18.1465 32.0295ZM18.1465 32.7366L17.0859 33.7973L17.0859 33.7973L18.1465 32.7366ZM19.263 33.8529L20.3236 32.7921L20.3235 32.7921L19.263 33.8529ZM19.9701 33.8529L18.9096 32.7921L18.9096 32.7921L19.9701 33.8529ZM25.9993 27.8247L27.0601 26.7642L25.9996 25.7033L24.9388 26.764L25.9993 27.8247ZM32.0262 33.8532L30.9654 34.9137L30.9654 34.9137L32.0262 33.8532ZM32.7333 33.8532L33.7941 34.9137L33.7941 34.9137L32.7333 33.8532ZM33.8495 32.7366L32.7887 31.6761L32.7887 31.6761L33.8495 32.7366ZM33.8495 32.0294L32.7887 33.09L32.7887 33.09L33.8495 32.0294ZM27.823 26.0013L26.7625 24.9406L25.7018 26.0011L26.7622 27.0619L27.823 26.0013ZM33.8525 19.9729L34.913 21.0337L34.913 21.0337L33.8525 19.9729ZM33.8525 19.2659L32.7919 20.3266L32.7919 20.3266L33.8525 19.2659ZM32.7359 18.1496L31.6754 19.2103L31.6754 19.2103L32.7359 18.1496ZM32.0288 18.1496L30.9682 17.0888L30.9682 17.0888L32.0288 18.1496ZM25.9997 24.1776L24.9389 25.2381L25.9995 26.2989L27.0603 25.2383L25.9997 24.1776ZM20.324 19.207C19.9334 19.5977 19.3 19.5977 18.9094 19.207L21.031 17.0859C20.25 16.3047 18.9835 16.3047 18.2024 17.0859L20.324 19.207ZM19.2077 20.3236L20.324 19.207L18.2024 17.0859L17.0861 18.2025L19.2077 20.3236ZM19.2077 18.9097C19.5981 19.3002 19.5981 19.9331 19.2077 20.3236L17.0861 18.2025C16.3053 18.9836 16.3053 20.2497 17.0861 21.0308L19.2077 18.9097ZM25.2369 24.9404L19.2077 18.9097L17.0861 21.0308L23.1153 27.0615L25.2369 24.9404ZM19.207 33.0903L25.2366 27.0617L23.1155 24.9402L17.0859 30.9688L19.207 33.0903ZM19.207 31.6758C19.5977 32.0664 19.5977 32.6997 19.207 33.0903L17.0859 30.9688C16.3047 31.7498 16.3047 33.0163 17.0859 33.7973L19.207 31.6758ZM20.3235 32.7921L19.207 31.6758L17.0859 33.7973L18.2024 34.9136L20.3235 32.7921ZM18.9096 32.7921C19.3001 32.4017 19.9331 32.4017 20.3236 32.7921L18.2024 34.9136C18.9834 35.6946 20.2497 35.6946 21.0307 34.9136L18.9096 32.7921ZM24.9388 26.764L18.9096 32.7921L21.0307 34.9136L27.0599 28.8855L24.9388 26.764ZM33.087 32.7927L27.0601 26.7642L24.9385 28.8852L30.9654 34.9137L33.087 32.7927ZM31.6725 32.7927C32.063 32.402 32.6965 32.402 33.087 32.7927L30.9654 34.9137C31.7465 35.695 33.013 35.695 33.7941 34.9137L31.6725 32.7927ZM32.7887 31.6761L31.6725 32.7927L33.7941 34.9137L34.9103 33.7972L32.7887 31.6761ZM32.7887 33.09C32.3984 32.6995 32.3984 32.0666 32.7887 31.6761L34.9103 33.7972C35.6912 33.0161 35.6912 31.75 34.9103 30.9689L32.7887 33.09ZM26.7622 27.0619L32.7887 33.09L34.9103 30.9689L28.8838 24.9408L26.7622 27.0619ZM32.7919 18.9122L26.7625 24.9406L28.8836 27.0621L34.913 21.0337L32.7919 18.9122ZM32.7919 20.3266C32.4013 19.9361 32.4013 19.3027 32.7919 18.9122L34.913 21.0337C35.6942 20.2526 35.6942 18.9862 34.913 18.2051L32.7919 20.3266ZM31.6754 19.2103L32.7919 20.3266L34.913 18.2051L33.7965 17.0888L31.6754 19.2103ZM33.0893 19.2103C32.6989 19.6007 32.0659 19.6007 31.6754 19.2103L33.7965 17.0888C33.0155 16.3079 31.7492 16.3079 30.9682 17.0888L33.0893 19.2103ZM27.0603 25.2383L33.0893 19.2103L30.9682 17.0888L24.9392 23.1168L27.0603 25.2383ZM18.9094 19.207L24.9389 25.2381L27.0605 23.117L21.031 17.0859L18.9094 19.207Z" fill="black" mask="url(#path-40-outside-1_28_3973)"/>
</g>
</g>
</g>
<rect x="0.749023" y="0.749939" width="38.5" height="38.5" rx="5.25" stroke="white" stroke-opacity="0.15" stroke-width="1.5"/>
<defs>
<filter id="filter0_d_28_3973" x="1.99902" y="1.99994" width="37.5" height="37.4997" filterUnits="userSpaceOnUse" color-interpolation-filters="sRGB">
<feFlood flood-opacity="0" result="BackgroundImageFix"/>
<feColorMatrix in="SourceAlpha" type="matrix" values="0 0 0 0 0 0 0 0 0 0 0 0 0 0 0 0 0 0 127 0" result="hardAlpha"/>
<feOffset/>
<feGaussianBlur stdDeviation="2"/>
<feComposite in2="hardAlpha" operator="out"/>
<feColorMatrix type="matrix" values="0 0 0 0 0 0 0 0 0 0 0 0 0 0 0 0 0 0 0.25 0"/>
<feBlend mode="normal" in2="BackgroundImageFix" result="effect1_dropShadow_28_3973"/>
<feBlend mode="normal" in="SourceGraphic" in2="effect1_dropShadow_28_3973" result="shape"/>
</filter>
<linearGradient id="paint0_linear_28_3973" x1="19.999" y1="-6.10351e-05" x2="19.999" y2="39.9999" gradientUnits="userSpaceOnUse">
<stop stop-color="#2C1B1B"/>
<stop offset="1" stop-color="#1F1414"/>
</linearGradient>
<linearGradient id="paint1_linear_28_3973" x1="25.9995" y1="18" x2="25.9995" y2="33.9997" gradientUnits="userSpaceOnUse">
<stop stop-color="#FF0000"/>
<stop offset="1" stop-color="#CC0000"/>
</linearGradient>
<clipPath id="clip0_28_3973">
<rect x="-0.000976562" y="-6.10352e-05" width="40" height="40" rx="6" fill="white"/>
</clipPath>
</defs>
</svg>
