<svg width="40" height="40" viewBox="0 0 40 40" fill="none" xmlns="http://www.w3.org/2000/svg">
<rect x="-0.000976562" y="-6.10352e-05" width="40" height="40" rx="6" fill="url(#paint0_linear_28_3973)"/>
<g filter="url(#filter0_d_28_3973)">
<path d="M13.3646 6V8.28846H9.16667V10.3077H7V12.5962H9.16667V14.6154H11.3333V16.7692H15.6667V18.9231H24.3333V16.7692H28.6667V14.6154H30.6979V21.2115H28.6667V27.5385H26.3646V31.8462H13.3646V34H26.3646V31.8462H28.6667V27.5385H30.6979V21.2115H33V10.3077H30.6979V12.5962H28.6667V14.6154H24.3333V16.7692H15.6667V14.6154H11.3333V12.5962H9.16667V10.3077H13.3646V8.28846H20V6H13.3646Z" fill="#353535"/>
<path d="M20 6V8.28846H26.3646V10.3077H30.6979V8.28846H26.3646V6H20Z" fill="#515151"/>
<path d="M13.3647 8.28845V10.3077H15.6668V8.28845H13.3647Z" fill="#A37B63"/>
<path d="M15.6665 8.28845V10.3077H17.8332V8.28845H15.6665Z" fill="#AB826B"/>
<path d="M17.8335 8.28845V10.3077H22.0314V8.28845H17.8335Z" fill="#ABA26B"/>
<path d="M22.0312 8.28845V10.3077H24.3333V8.28845H22.0312Z" fill="#AB826B"/>
<path d="M24.3335 8.28845V10.3077H26.3647V12.5961H28.6668V10.3077H26.3647V8.28845H24.3335Z" fill="#BF967E"/>
<path d="M9.1665 10.3077V12.5962H11.3332V10.3077H9.1665Z" fill="#958C55"/>
<path d="M11.3335 10.3077V12.5962H13.3647V10.3077H11.3335Z" fill="#956C55"/>
<path d="M13.3647 10.3077V12.5962H15.6668V10.3077H13.3647Z" fill="#C33E1F"/>
<path d="M15.6665 10.3077V12.5962H17.8332V14.6154H19.9998V16.7693H24.3332V14.6154H19.9998V12.5962H17.8332V10.3077H15.6665Z" fill="#E38C3F"/>
<path d="M17.8335 10.3077V12.5962H20.0002V14.6154H24.3335V12.5962H22.0314V10.3077H17.8335Z" fill="#E4D25C"/>
<path d="M22.0312 10.3077V12.5962H24.3333V10.3077H22.0312Z" fill="#E38C3F"/>
<path d="M24.3335 10.3077V12.5962H26.3647V14.6154H28.6668V12.5962H26.3647V10.3077H24.3335Z" fill="#CC4628"/>
<path d="M28.6665 10.3077V12.5962H30.6978V10.3077H28.6665Z" fill="#BFB67E"/>
<path d="M7 12.5962V21.2115H9.16667V27.5385H11.3333V31.8462H13.3646V27.5385H11.3333V21.2115H9.16667V12.5962H7Z" fill="#515151"/>
<path d="M11.3335 12.5962V14.6154H13.3647V12.5962H11.3335Z" fill="#DC8638"/>
<path d="M13.3647 12.5962V14.6154H15.6668V16.7693H17.8335V12.5962H13.3647Z" fill="#E2CF5A"/>
<path d="M24.3335 12.5962V14.6154H26.3647V12.5962H24.3335Z" fill="#EA9346"/>
<path d="M9.1665 14.6154V16.7692H11.3332V18.923H15.6665V16.7692H11.3332V14.6154H9.1665Z" fill="#E7E7E7"/>
<path d="M17.8335 14.6154V16.7692H20.0002V14.6154H17.8335Z" fill="#C54021"/>
<path d="M28.6665 14.6154V16.7692H30.6978V14.6154H28.6665Z" fill="#A9A9A9"/>
<path d="M9.1665 16.7693V21.2116H11.3332V27.5385H13.3644V29.827H15.6665V31.8462H19.9998V23.2308H17.8332V21.2116H15.6665V23.2308H13.3644V18.9231H11.3332V16.7693H9.1665Z" fill="#D8D8D8"/>
<path d="M24.3335 16.7693V18.9231H26.3647V16.7693H24.3335Z" fill="#EAD762"/>
<path d="M26.3647 16.7693V18.9231H28.6668V16.7693H26.3647Z" fill="#CB4627"/>
<path d="M28.6668 16.7693V21.2116H26.3647V27.5385H28.6668V21.2116H30.6981V16.7693H28.6668Z" fill="#727272"/>
<path d="M13.3647 18.9231V23.2308H15.6668V18.9231H13.3647Z" fill="white"/>
<path d="M15.6665 18.9231V21.2116H17.8332V18.9231H15.6665Z" fill="#D85334"/>
<path d="M17.8335 18.9231V21.2116H24.3335V18.9231H17.8335Z" fill="#CACACA"/>
<path d="M24.3335 18.9231V21.2116H26.3647V18.9231H24.3335Z" fill="#E99245"/>
<path d="M26.3647 18.9231V21.2116H28.6668V18.9231H26.3647Z" fill="#969696"/>
<path d="M17.8335 21.2115V23.2308H20.0002V29.8269H22.0314V23.2308H24.3335V21.2115H17.8335Z" fill="#A8A8A8"/>
<path d="M24.3335 21.2115V23.2308H26.3647V21.2115H24.3335Z" fill="#CB4627"/>
<path d="M15.6665 23.2307V27.5384H17.8332V23.2307H15.6665Z" fill="white"/>
<path d="M22.0312 23.2307V29.8269H20V31.8461H26.3646V27.5384H24.3333V25.5192H26.3646V23.2307H22.0312Z" fill="#969696"/>
<path d="M24.3335 25.5193V27.5385H26.3647V25.5193H24.3335Z" fill="#CB4627"/>
<path d="M13.3647 29.8269V31.8461H15.6668V29.8269H13.3647Z" fill="#969696"/>
</g>
<rect x="0.749023" y="0.749939" width="38.5" height="38.5" rx="5.25" stroke="white" stroke-opacity="0.15" stroke-width="1.5"/>
<defs>
<filter id="filter0_d_28_3973" x="1.99902" y="1.99994" width="36" height="36.0001" filterUnits="userSpaceOnUse" color-interpolation-filters="sRGB">
<feFlood flood-opacity="0" result="BackgroundImageFix"/>
<feColorMatrix in="SourceAlpha" type="matrix" values="0 0 0 0 0 0 0 0 0 0 0 0 0 0 0 0 0 0 127 0" result="hardAlpha"/>
<feOffset/>
<feGaussianBlur stdDeviation="2"/>
<feComposite in2="hardAlpha" operator="out"/>
<feColorMatrix type="matrix" values="0 0 0 0 0 0 0 0 0 0 0 0 0 0 0 0 0 0 0.25 0"/>
<feBlend mode="normal" in2="BackgroundImageFix" result="effect1_dropShadow_28_3973"/>
<feBlend mode="normal" in="SourceGraphic" in2="effect1_dropShadow_28_3973" result="shape"/>
</filter>
<linearGradient id="paint0_linear_28_3973" x1="19.999" y1="-6.10351e-05" x2="19.999" y2="39.9999" gradientUnits="userSpaceOnUse">
<stop stop-color="#2C1B1B"/>
<stop offset="1" stop-color="#1F1414"/>
</linearGradient>
</defs>
</svg>
