<svg width="40" height="40" viewBox="0 0 40 40" fill="none" xmlns="http://www.w3.org/2000/svg">
<g clip-path="url(#clip0_28_3979)">
<rect x="-0.000976562" y="-6.10352e-05" width="40" height="40" rx="6" fill="url(#paint0_linear_28_3979)"/>
<g filter="url(#filter0_d_28_3979)">
<path fill-rule="evenodd" clip-rule="evenodd" d="M20.524 8.05885C20.2127 8.15821 19.9736 8.3381 19.7026 8.67675C19.6264 8.77193 19.4951 8.80548 19.3244 8.77337C19.122 8.73527 18.3535 8.68555 16.3422 8.58049C15.7544 8.54975 15.6352 8.56649 15.5297 8.69414C15.2776 8.99916 15.3455 9.98191 15.6334 10.1955C15.7154 10.2564 16.1622 10.2654 16.602 10.2151C16.8388 10.188 17.0748 10.1639 17.6167 10.1112C17.7529 10.098 17.9756 10.0761 18.1117 10.0625C18.2478 10.0489 18.5318 10.0208 18.7427 9.99995C18.9537 9.97917 19.2636 9.93363 19.4312 9.89871L19.7361 9.83528L19.8272 9.8964C20.0934 10.075 20.1667 10.2042 20.1288 10.428C20.0575 10.8484 20.0501 11.0798 20.0603 12.5637C20.0731 14.3961 20.1159 14.234 19.6089 14.2737C19.292 14.2985 19.1687 14.3886 19.1131 14.6363C19.0865 14.7549 19.0927 15.8853 19.1216 16.1939C19.1398 16.3875 18.9876 16.4977 18.6394 16.5431C18.2971 16.5876 18.2145 16.7834 18.2878 17.377C18.3037 17.506 18.2252 17.6102 18.023 17.7286C17.8394 17.8361 17.8007 18.0907 17.945 18.2429C18.1023 18.4088 18.1101 18.4914 17.9855 18.6718C17.856 18.8595 17.8531 18.8888 17.8519 20.0371C17.8507 21.1909 17.8359 21.3794 17.7343 21.5306C17.5874 21.7493 16.8669 22.4134 16.6969 22.4867C16.6452 22.509 16.2063 22.5211 15.0305 22.5328C14.1525 22.5415 13.4036 22.557 13.3663 22.5673C13.2153 22.6088 13.0758 22.5606 12.9406 22.4201C12.7521 22.2244 12.7733 22.227 11.479 22.2405C10.2073 22.2538 10.2208 22.2556 10.1903 22.0741C10.156 21.8697 10.1359 21.8037 10.0531 21.6238C9.89553 21.2814 9.75659 21.2145 9.3177 21.2695C9.038 21.3045 8.97479 21.3807 8.90629 21.7655C8.82037 22.2477 8.7309 22.3487 8.47493 22.2521C8.30633 22.1886 8.2808 22.1873 7.6182 22.2101C7.57733 22.2114 7.50298 22.2053 7.45293 22.1964C7.39962 22.187 7.32259 22.1934 7.26726 22.212C7.21525 22.2295 7.08919 22.2464 6.98706 22.2495C6.53009 22.2635 6.45393 22.2869 6.34948 22.446C6.11912 22.7966 5.92441 24.757 6.02719 25.6914C6.14429 26.7564 6.29155 27.2613 6.51179 27.3525C6.81419 27.4777 8.12095 27.5355 8.46372 27.4387L8.64099 27.3887L8.72048 27.4451C8.82427 27.5189 8.88018 27.6506 8.92973 27.9383C8.98911 28.2831 9.05059 28.3603 9.30424 28.408C9.4774 28.4406 9.71196 28.4277 9.81734 28.3798C10.0398 28.2786 10.1641 27.5863 10.0294 27.1981C9.95238 26.976 10.01 26.9232 10.1112 27.1231C10.2534 27.4039 10.3994 27.432 11.7141 27.4321C12.904 27.4321 12.8184 27.4528 12.9851 27.1251C13.1192 26.8616 13.18 26.8131 13.3679 26.8199C13.4452 26.8227 14.0653 26.8345 14.7459 26.8462C16.1038 26.8694 15.9747 26.8541 16.404 27.0432C17.5281 27.5382 18.759 27.8171 20.3019 27.9263C21.1502 27.9863 22.3171 27.9606 23.0491 27.8657C24.365 27.6951 25.2326 27.4759 26.1303 27.0872C26.7845 26.8039 27.0744 26.9541 27.2088 27.6458C27.3139 28.1866 27.2886 28.2662 26.9718 28.3948C26.5251 28.5759 26.2483 28.7624 26.1824 28.9265C26.1349 29.0452 26.1571 29.1757 26.2852 29.5308C26.3194 29.6259 26.3508 29.7648 26.3549 29.8395C26.3664 30.0514 26.3883 30.1384 26.4634 30.2725C26.5018 30.341 26.5403 30.452 26.5492 30.5194C26.5695 30.6765 26.6294 30.8623 26.7 30.9876C26.7338 31.0476 26.7619 31.151 26.7713 31.2506C26.8158 31.7156 27.017 31.8511 27.7761 31.9268C27.8646 31.9356 27.9633 31.9468 27.9956 31.9517C29.538 32.1876 31.6688 31.5435 33.2008 30.3782C33.9153 29.8348 34.0951 29.5772 33.9551 29.2971C33.9321 29.2512 33.9138 29.1564 33.9138 29.0835C33.9138 28.9407 33.842 28.7201 33.7628 28.6196C33.7353 28.5847 33.7081 28.5071 33.7025 28.4471C33.6917 28.3319 33.6146 28.1145 33.5539 28.0281C33.534 27.9998 33.5178 27.9404 33.5178 27.8962C33.5178 27.8046 33.4575 27.6368 33.3889 27.5379C33.3634 27.501 33.3265 27.4171 33.3069 27.3516C33.2056 27.0113 32.6292 26.8056 32.0452 26.9013C31.545 26.9832 31.5109 26.965 31.3663 26.541C30.9061 25.1914 30.2797 24.1951 29.555 23.6605C29.2799 23.4575 29.177 23.4106 28.1473 23.0186C27.1375 22.6343 26.882 22.5268 26.4194 22.2919C26.1428 22.1515 25.8366 21.9851 25.7388 21.9221C24.2437 20.9597 24.405 21.2117 24.3505 19.7522C24.3138 18.7706 24.306 18.7319 24.1137 18.5777C23.9575 18.4525 23.9348 18.3946 23.9781 18.2321C24.0527 17.9528 24.0136 17.8295 23.8059 17.6882C23.6437 17.5779 23.6214 17.5308 23.6465 17.3523C23.7315 16.7502 23.6345 16.5341 23.2612 16.4938C23.0353 16.4695 22.9405 16.4392 22.8761 16.3707L22.8178 16.3088L22.8158 15.426C22.8133 14.2538 22.8213 14.2715 22.2818 14.245C21.8962 14.2261 21.8074 14.2043 21.7268 14.1088L21.6631 14.0333L21.6629 12.3747C21.6628 11.4111 21.6522 10.6242 21.6375 10.4968C21.608 10.2393 21.6117 10.2304 21.8412 10.0152C22.0166 9.85058 22.1276 9.78376 22.1953 9.80209C22.5934 9.91033 22.529 9.9052 24.7072 10.0009C26.3789 10.0743 26.3646 10.0759 26.5013 9.80281C26.6804 9.44518 26.5595 8.47766 26.3234 8.37801C26.2425 8.34395 25.9231 8.34532 25.6229 8.38111C25.4012 8.40759 25.3426 8.41409 24.2618 8.53279C22.9192 8.68021 22.8932 8.68339 22.5629 8.7409C22.2398 8.79711 22.2207 8.79084 22.0353 8.56721C21.6391 8.08937 21.0495 7.891 20.524 8.05885Z" fill="url(#paint1_linear_28_3979)"/>
<g opacity="0.7">
<mask id="path-4-outside-1_28_3979" maskUnits="userSpaceOnUse" x="18" y="18" width="18" height="18" fill="black">
<rect fill="white" x="18" y="18" width="18" height="18"/>
<path fill-rule="evenodd" clip-rule="evenodd" d="M21.7485 20.1464C21.5532 19.9512 21.2366 19.9512 21.0414 20.1464L20.1469 21.0409C19.9517 21.2362 19.9517 21.5527 20.1469 21.748L25.3997 27.0009L20.1465 32.2519C19.9512 32.4471 19.9512 32.7636 20.1465 32.9589L21.0411 33.8531C21.2364 34.0483 21.5531 34.0483 21.7484 33.8531L27.0012 28.6024L32.2521 33.8534C32.4474 34.0486 32.7639 34.0486 32.9592 33.8534L33.8536 32.9589C34.0489 32.7637 34.0489 32.4471 33.8536 32.2518L28.6031 27.0012L33.8562 21.7504C34.0515 21.5551 34.0515 21.2386 33.8562 21.0434L32.9615 20.1492C32.7662 19.9539 32.4496 19.9539 32.2543 20.1492L27.0016 25.3997L21.7485 20.1464Z"/>
</mask>
<path fill-rule="evenodd" clip-rule="evenodd" d="M21.7485 20.1464C21.5532 19.9512 21.2366 19.9512 21.0414 20.1464L20.1469 21.0409C19.9517 21.2362 19.9517 21.5527 20.1469 21.748L25.3997 27.0009L20.1465 32.2519C19.9512 32.4471 19.9512 32.7636 20.1465 32.9589L21.0411 33.8531C21.2364 34.0483 21.5531 34.0483 21.7484 33.8531L27.0012 28.6024L32.2521 33.8534C32.4474 34.0486 32.7639 34.0486 32.9592 33.8534L33.8536 32.9589C34.0489 32.7637 34.0489 32.4471 33.8536 32.2518L28.6031 27.0012L33.8562 21.7504C34.0515 21.5551 34.0515 21.2386 33.8562 21.0434L32.9615 20.1492C32.7662 19.9539 32.4496 19.9539 32.2543 20.1492L27.0016 25.3997L21.7485 20.1464Z" fill="url(#paint2_linear_28_3979)"/>
<path d="M21.0414 20.1464L19.9807 19.0858L19.9807 19.0858L21.0414 20.1464ZM21.7485 20.1464L22.8091 19.0858L22.8091 19.0858L21.7485 20.1464ZM20.1469 21.0409L21.2076 22.1015L21.2076 22.1015L20.1469 21.0409ZM20.1469 21.748L21.2076 20.6874L21.2076 20.6874L20.1469 21.748ZM25.3997 27.0009L26.4601 28.0618L27.5212 27.0011L26.4604 25.9402L25.3997 27.0009ZM20.1465 32.2519L21.2069 33.3128L21.2069 33.3128L20.1465 32.2519ZM20.1465 32.9589L21.2069 31.898L21.2069 31.898L20.1465 32.9589ZM21.0411 33.8531L19.9807 34.914L19.9807 34.914L21.0411 33.8531ZM21.7484 33.8531L20.6879 32.7922L20.6879 32.7922L21.7484 33.8531ZM27.0012 28.6024L28.0619 27.5418L27.0015 26.4813L25.9408 27.5415L27.0012 28.6024ZM32.2521 33.8534L31.1914 34.914L31.1914 34.914L32.2521 33.8534ZM32.9592 33.8534L34.0199 34.914L34.0199 34.914L32.9592 33.8534ZM33.8536 32.9589L32.793 31.8983L32.793 31.8983L33.8536 32.9589ZM33.8536 32.2518L32.793 33.3125L32.793 33.3125L33.8536 32.2518ZM28.6031 27.0012L27.5427 25.9403L26.4816 27.001L27.5424 28.0619L28.6031 27.0012ZM33.8562 21.7504L32.7957 20.6895L32.7957 20.6895L33.8562 21.7504ZM33.8562 21.0434L34.9166 19.9825L34.9166 19.9825L33.8562 21.0434ZM32.9615 20.1492L31.9011 21.21L31.9011 21.21L32.9615 20.1492ZM32.2543 20.1492L31.1938 19.0883L31.1938 19.0883L32.2543 20.1492ZM27.0016 25.3997L25.9409 26.4603L27.0013 27.5208L28.062 26.4605L27.0016 25.3997ZM22.102 21.2071C21.7115 21.5976 21.0783 21.5976 20.6878 21.2071L22.8091 19.0858C22.0281 18.3047 20.7617 18.3047 19.9807 19.0858L22.102 21.2071ZM21.2076 22.1015L22.102 21.2071L19.9807 19.0858L19.0862 19.9802L21.2076 22.1015ZM21.2076 20.6874C21.5981 21.0779 21.5981 21.711 21.2076 22.1015L19.0862 19.9802C18.3052 20.7613 18.3052 22.0276 19.0862 22.8087L21.2076 20.6874ZM26.4604 25.9402L21.2076 20.6874L19.0862 22.8087L24.339 28.0615L26.4604 25.9402ZM21.2069 33.3128L26.4601 28.0618L24.3393 25.94L19.086 31.191L21.2069 33.3128ZM21.2069 31.898C21.5977 32.2886 21.5977 32.9222 21.2069 33.3128L19.086 31.191C18.3047 31.9721 18.3047 33.2387 19.086 34.0197L21.2069 31.898ZM22.1015 32.7922L21.2069 31.898L19.086 34.0197L19.9807 34.914L22.1015 32.7922ZM20.6879 32.7922C21.0784 32.402 21.7111 32.402 22.1015 32.7922L19.9807 34.914C20.7617 35.6947 22.0278 35.6947 22.8088 34.914L20.6879 32.7922ZM25.9408 27.5415L20.6879 32.7922L22.8088 34.914L28.0617 29.6633L25.9408 27.5415ZM33.3128 32.7927L28.0619 27.5418L25.9406 29.6631L31.1914 34.914L33.3128 32.7927ZM31.8985 32.7927C32.2891 32.4022 32.9222 32.4022 33.3128 32.7927L31.1914 34.914C31.9725 35.6951 33.2388 35.6951 34.0199 34.914L31.8985 32.7927ZM32.793 31.8983L31.8985 32.7927L34.0199 34.914L34.9143 34.0196L32.793 31.8983ZM32.793 33.3125C32.4024 32.9219 32.4024 32.2888 32.793 31.8983L34.9143 34.0196C35.6953 33.2385 35.6953 31.9722 34.9143 31.1912L32.793 33.3125ZM27.5424 28.0619L32.793 33.3125L34.9143 31.1912L29.6638 25.9406L27.5424 28.0619ZM32.7957 20.6895L27.5427 25.9403L29.6636 28.0621L34.9166 22.8112L32.7957 20.6895ZM32.7957 22.1043C32.4049 21.7137 32.4049 21.0801 32.7957 20.6895L34.9166 22.8112C35.698 22.0302 35.698 20.7636 34.9166 19.9825L32.7957 22.1043ZM31.9011 21.21L32.7957 22.1043L34.9166 19.9825L34.022 19.0883L31.9011 21.21ZM33.3147 21.21C32.9243 21.6003 32.2915 21.6003 31.9011 21.21L34.022 19.0883C33.2409 18.3076 31.9749 18.3076 31.1938 19.0883L33.3147 21.21ZM28.062 26.4605L33.3147 21.21L31.1938 19.0883L25.9411 24.3388L28.062 26.4605ZM20.6878 21.2071L25.9409 26.4603L28.0622 24.339L22.8091 19.0858L20.6878 21.2071Z" fill="black" mask="url(#path-4-outside-1_28_3979)"/>
</g>
</g>
</g>
<rect x="0.749023" y="0.749939" width="38.5" height="38.5" rx="5.25" stroke="white" stroke-opacity="0.15" stroke-width="1.5"/>
<defs>
<filter id="filter0_d_28_3979" x="1.99902" y="1.99994" width="37.5034" height="37.4999" filterUnits="userSpaceOnUse" color-interpolation-filters="sRGB">
<feFlood flood-opacity="0" result="BackgroundImageFix"/>
<feColorMatrix in="SourceAlpha" type="matrix" values="0 0 0 0 0 0 0 0 0 0 0 0 0 0 0 0 0 0 127 0" result="hardAlpha"/>
<feOffset/>
<feGaussianBlur stdDeviation="2"/>
<feComposite in2="hardAlpha" operator="out"/>
<feColorMatrix type="matrix" values="0 0 0 0 0 0 0 0 0 0 0 0 0 0 0 0 0 0 0.25 0"/>
<feBlend mode="normal" in2="BackgroundImageFix" result="effect1_dropShadow_28_3979"/>
<feBlend mode="normal" in="SourceGraphic" in2="effect1_dropShadow_28_3979" result="shape"/>
</filter>
<linearGradient id="paint0_linear_28_3979" x1="19.999" y1="-6.10351e-05" x2="19.999" y2="39.9999" gradientUnits="userSpaceOnUse">
<stop stop-color="#2C1B1B"/>
<stop offset="1" stop-color="#1F1414"/>
</linearGradient>
<linearGradient id="paint1_linear_28_3979" x1="19.999" y1="8.00006" x2="19.999" y2="32.0001" gradientUnits="userSpaceOnUse">
<stop stop-color="#CEA260"/>
<stop offset="1" stop-color="#81562E"/>
</linearGradient>
<linearGradient id="paint2_linear_28_3979" x1="27.0014" y1="20" x2="27.0014" y2="34" gradientUnits="userSpaceOnUse">
<stop stop-color="#FF0000"/>
<stop offset="1" stop-color="#CC0000"/>
</linearGradient>
<clipPath id="clip0_28_3979">
<rect x="-0.000976562" y="-6.10352e-05" width="40" height="40" rx="6" fill="white"/>
</clipPath>
</defs>
</svg>
