<svg width="40" height="40" viewBox="0 0 40 40" fill="none" xmlns="http://www.w3.org/2000/svg">
<g clip-path="url(#clip0_28_4010)">
<rect x="-0.000976562" y="-6.10352e-05" width="40" height="40" rx="6" fill="url(#paint0_linear_28_4010)"/>
<g filter="url(#filter0_d_28_4010)">
<g clip-path="url(#clip1_28_4010)">
<path d="M32.599 5.99994H7.39902C6.62902 5.99994 5.99902 6.62994 5.99902 7.39994V32.5999C5.99902 33.3699 6.62902 33.9999 7.39902 33.9999H9.65302C9.41502 27.6019 9.63902 26.6499 10.087 26.0199C10.633 25.2359 10.857 25.1379 11.683 24.4799C12.383 23.9199 12.131 23.0099 11.627 22.3519C11.319 21.9459 10.885 21.4699 10.549 21.0079C10.339 20.6999 10.857 18.8939 11.053 18.2359C11.249 17.5779 11.585 15.4359 14.525 14.8619C15.631 14.6379 18.669 14.4839 20.755 14.6099C20.741 14.5259 20.713 14.4279 20.699 14.3299C20.657 14.1619 20.629 13.9799 20.587 13.7839C20.545 13.6019 20.503 13.4059 20.461 13.2099C20.419 13.0139 20.363 12.8179 20.321 12.6079C20.265 12.3979 20.223 12.2019 20.153 11.9919C20.041 11.5719 19.901 11.1659 19.733 10.7739C19.649 10.5779 19.565 10.3959 19.467 10.2279C19.369 10.0739 19.271 9.93394 19.187 9.87794C19.173 9.86394 19.159 9.84994 19.145 9.84994H19.131H19.159C19.159 9.84994 19.173 9.84994 19.159 9.84994L19.117 9.83594H19.089L19.033 9.82194H18.963C18.781 9.80794 18.585 9.80794 18.375 9.82194C17.969 9.84994 17.535 9.93394 17.115 10.0319C16.695 10.1299 16.289 10.2559 15.897 10.3679C15.729 10.4239 15.575 10.4799 15.421 10.5219C15.435 10.6479 15.449 10.7599 15.449 10.8859C15.449 12.7059 13.979 14.1759 12.159 14.1759C10.339 14.1759 8.88302 12.7059 8.88302 10.8859C8.88302 9.06594 10.353 7.59594 12.173 7.59594C13.391 7.59594 14.455 8.25394 15.029 9.24794C15.169 9.19194 15.323 9.13594 15.477 9.07994C15.869 8.92594 16.303 8.77194 16.751 8.63194C17.213 8.49194 17.689 8.35194 18.221 8.28194C18.487 8.23994 18.767 8.22594 19.075 8.23994H19.187C19.229 8.23994 19.271 8.25394 19.299 8.25394H19.397L19.439 8.26794H19.453L19.495 8.28194C19.495 8.28194 19.523 8.28194 19.537 8.29594L19.593 8.30994C19.677 8.33794 19.719 8.35194 19.775 8.37994C19.831 8.40794 19.873 8.42194 19.929 8.44994C20.027 8.50594 20.111 8.56194 20.195 8.61794C20.349 8.74394 20.475 8.86994 20.573 8.99594C20.685 9.12194 20.769 9.24794 20.853 9.37394C21.021 9.62594 21.147 9.86394 21.259 10.1019C21.483 10.5779 21.665 11.0539 21.805 11.5019L22.015 12.1739C22.085 12.3979 22.127 12.6079 22.183 12.8179C22.211 12.9159 22.239 13.0279 22.253 13.1259C22.281 13.2239 22.295 13.3219 22.323 13.4199C22.365 13.6159 22.407 13.8119 22.449 13.9939C22.505 14.2739 22.547 14.5399 22.589 14.7779C25.725 15.0859 28.119 15.4919 29.197 16.5699C30.779 18.1099 31.997 25.1099 31.199 33.9999H32.599C33.369 33.9999 33.999 33.3699 33.999 32.5999V7.39994C33.999 6.62994 33.369 5.99994 32.599 5.99994Z" fill="#F7CF0D"/>
<path d="M18.795 25.7119C18.613 26.2159 18.459 32.1099 20.195 32.1099C21.931 32.1099 21.945 26.0619 21.889 25.7119C21.833 25.3759 18.977 25.2219 18.795 25.7119ZM16.499 19.9999C15.309 19.8319 14.595 25.6279 16.261 25.9639C17.829 26.2719 17.675 20.1679 16.499 19.9999ZM24.311 19.9999C23.121 19.8319 22.407 25.6279 24.073 25.9639C25.641 26.2719 25.501 20.1679 24.311 19.9999Z" fill="#F7CF0D"/>
</g>
<g opacity="0.7">
<mask id="path-5-outside-1_28_4010" maskUnits="userSpaceOnUse" x="16" y="16" width="20" height="20" fill="black">
<rect fill="white" x="16" y="16" width="20" height="20"/>
<path fill-rule="evenodd" clip-rule="evenodd" d="M19.9702 18.1465C19.775 17.9512 19.4585 17.9512 19.2632 18.1465L18.1469 19.263C17.9517 19.4583 17.9517 19.7749 18.1469 19.9702L24.1761 26.0009L18.1465 32.0295C17.9512 32.2248 17.9512 32.5413 18.1465 32.7366L19.263 33.8529C19.4583 34.0481 19.7749 34.0481 19.9701 33.8529L25.9993 27.8247L32.0262 33.8532C32.2215 34.0485 32.538 34.0485 32.7333 33.8532L33.8495 32.7366C34.0448 32.5413 34.0448 32.2247 33.8495 32.0294L27.823 26.0013L33.8525 19.9729C34.0477 19.7777 34.0477 19.4611 33.8525 19.2659L32.7359 18.1496C32.5407 17.9543 32.2241 17.9543 32.0288 18.1496L25.9997 24.1776L19.9702 18.1465Z"/>
</mask>
<path fill-rule="evenodd" clip-rule="evenodd" d="M19.9702 18.1465C19.775 17.9512 19.4585 17.9512 19.2632 18.1465L18.1469 19.263C17.9517 19.4583 17.9517 19.7749 18.1469 19.9702L24.1761 26.0009L18.1465 32.0295C17.9512 32.2248 17.9512 32.5413 18.1465 32.7366L19.263 33.8529C19.4583 34.0481 19.7749 34.0481 19.9701 33.8529L25.9993 27.8247L32.0262 33.8532C32.2215 34.0485 32.538 34.0485 32.7333 33.8532L33.8495 32.7366C34.0448 32.5413 34.0448 32.2247 33.8495 32.0294L27.823 26.0013L33.8525 19.9729C34.0477 19.7777 34.0477 19.4611 33.8525 19.2659L32.7359 18.1496C32.5407 17.9543 32.2241 17.9543 32.0288 18.1496L25.9997 24.1776L19.9702 18.1465Z" fill="url(#paint1_linear_28_4010)"/>
<path d="M19.2632 18.1465L20.324 19.207L19.2632 18.1465ZM19.9702 18.1465L18.9094 19.207L18.9094 19.207L19.9702 18.1465ZM18.1469 19.263L17.0861 18.2025L17.0861 18.2025L18.1469 19.263ZM18.1469 19.9702L17.0861 21.0308L17.0861 21.0308L18.1469 19.9702ZM24.1761 26.0009L25.2366 27.0617L26.2973 26.0012L25.2369 24.9404L24.1761 26.0009ZM18.1465 32.0295L17.0859 30.9688L17.0859 30.9688L18.1465 32.0295ZM18.1465 32.7366L17.0859 33.7973L17.0859 33.7973L18.1465 32.7366ZM19.263 33.8529L20.3236 32.7921L20.3235 32.7921L19.263 33.8529ZM19.9701 33.8529L18.9096 32.7921L18.9096 32.7921L19.9701 33.8529ZM25.9993 27.8247L27.0601 26.7642L25.9996 25.7033L24.9388 26.764L25.9993 27.8247ZM32.0262 33.8532L30.9654 34.9137L30.9654 34.9137L32.0262 33.8532ZM32.7333 33.8532L33.7941 34.9137L33.7941 34.9137L32.7333 33.8532ZM33.8495 32.7366L32.7887 31.6761L32.7887 31.6761L33.8495 32.7366ZM33.8495 32.0294L32.7887 33.09L32.7887 33.09L33.8495 32.0294ZM27.823 26.0013L26.7625 24.9406L25.7018 26.0011L26.7622 27.0619L27.823 26.0013ZM33.8525 19.9729L34.913 21.0337L34.913 21.0337L33.8525 19.9729ZM33.8525 19.2659L32.7919 20.3266L32.7919 20.3266L33.8525 19.2659ZM32.7359 18.1496L31.6754 19.2103L31.6754 19.2103L32.7359 18.1496ZM32.0288 18.1496L30.9682 17.0888L30.9682 17.0888L32.0288 18.1496ZM25.9997 24.1776L24.9389 25.2381L25.9995 26.2989L27.0603 25.2383L25.9997 24.1776ZM20.324 19.207C19.9334 19.5977 19.3 19.5977 18.9094 19.207L21.031 17.0859C20.25 16.3047 18.9835 16.3047 18.2024 17.0859L20.324 19.207ZM19.2077 20.3236L20.324 19.207L18.2024 17.0859L17.0861 18.2025L19.2077 20.3236ZM19.2077 18.9097C19.5981 19.3002 19.5981 19.9331 19.2077 20.3236L17.0861 18.2025C16.3053 18.9836 16.3053 20.2497 17.0861 21.0308L19.2077 18.9097ZM25.2369 24.9404L19.2077 18.9097L17.0861 21.0308L23.1153 27.0615L25.2369 24.9404ZM19.207 33.0903L25.2366 27.0617L23.1155 24.9402L17.0859 30.9688L19.207 33.0903ZM19.207 31.6758C19.5977 32.0664 19.5977 32.6997 19.207 33.0903L17.0859 30.9688C16.3047 31.7498 16.3047 33.0163 17.0859 33.7973L19.207 31.6758ZM20.3235 32.7921L19.207 31.6758L17.0859 33.7973L18.2024 34.9136L20.3235 32.7921ZM18.9096 32.7921C19.3001 32.4017 19.9331 32.4017 20.3236 32.7921L18.2024 34.9136C18.9834 35.6946 20.2497 35.6946 21.0307 34.9136L18.9096 32.7921ZM24.9388 26.764L18.9096 32.7921L21.0307 34.9136L27.0599 28.8855L24.9388 26.764ZM33.087 32.7927L27.0601 26.7642L24.9385 28.8852L30.9654 34.9137L33.087 32.7927ZM31.6725 32.7927C32.063 32.402 32.6965 32.402 33.087 32.7927L30.9654 34.9137C31.7465 35.695 33.013 35.695 33.7941 34.9137L31.6725 32.7927ZM32.7887 31.6761L31.6725 32.7927L33.7941 34.9137L34.9103 33.7972L32.7887 31.6761ZM32.7887 33.09C32.3984 32.6995 32.3984 32.0666 32.7887 31.6761L34.9103 33.7972C35.6912 33.0161 35.6912 31.75 34.9103 30.9689L32.7887 33.09ZM26.7622 27.0619L32.7887 33.09L34.9103 30.9689L28.8838 24.9408L26.7622 27.0619ZM32.7919 18.9122L26.7625 24.9406L28.8836 27.0621L34.913 21.0337L32.7919 18.9122ZM32.7919 20.3266C32.4013 19.9361 32.4013 19.3027 32.7919 18.9122L34.913 21.0337C35.6942 20.2526 35.6942 18.9862 34.913 18.2051L32.7919 20.3266ZM31.6754 19.2103L32.7919 20.3266L34.913 18.2051L33.7965 17.0888L31.6754 19.2103ZM33.0893 19.2103C32.6989 19.6007 32.0659 19.6007 31.6754 19.2103L33.7965 17.0888C33.0155 16.3079 31.7492 16.3079 30.9682 17.0888L33.0893 19.2103ZM27.0603 25.2383L33.0893 19.2103L30.9682 17.0888L24.9392 23.1168L27.0603 25.2383ZM18.9094 19.207L24.9389 25.2381L27.0605 23.117L21.031 17.0859L18.9094 19.207Z" fill="black" mask="url(#path-5-outside-1_28_4010)"/>
</g>
</g>
</g>
<rect x="0.749023" y="0.749939" width="38.5" height="38.5" rx="5.25" stroke="white" stroke-opacity="0.15" stroke-width="1.5"/>
<defs>
<filter id="filter0_d_28_4010" x="1.99902" y="1.99994" width="37.5" height="37.4998" filterUnits="userSpaceOnUse" color-interpolation-filters="sRGB">
<feFlood flood-opacity="0" result="BackgroundImageFix"/>
<feColorMatrix in="SourceAlpha" type="matrix" values="0 0 0 0 0 0 0 0 0 0 0 0 0 0 0 0 0 0 127 0" result="hardAlpha"/>
<feOffset/>
<feGaussianBlur stdDeviation="2"/>
<feComposite in2="hardAlpha" operator="out"/>
<feColorMatrix type="matrix" values="0 0 0 0 0 0 0 0 0 0 0 0 0 0 0 0 0 0 0.25 0"/>
<feBlend mode="normal" in2="BackgroundImageFix" result="effect1_dropShadow_28_4010"/>
<feBlend mode="normal" in="SourceGraphic" in2="effect1_dropShadow_28_4010" result="shape"/>
</filter>
<linearGradient id="paint0_linear_28_4010" x1="19.999" y1="-6.10351e-05" x2="19.999" y2="39.9999" gradientUnits="userSpaceOnUse">
<stop stop-color="#2C1B1B"/>
<stop offset="1" stop-color="#1F1414"/>
</linearGradient>
<linearGradient id="paint1_linear_28_4010" x1="25.9995" y1="18" x2="25.9995" y2="33.9997" gradientUnits="userSpaceOnUse">
<stop stop-color="#FF0000"/>
<stop offset="1" stop-color="#CC0000"/>
</linearGradient>
<clipPath id="clip0_28_4010">
<rect x="-0.000976562" y="-6.10352e-05" width="40" height="40" rx="6" fill="white"/>
</clipPath>
<clipPath id="clip1_28_4010">
<rect width="28" height="28" fill="white" transform="translate(5.99902 5.99994)"/>
</clipPath>
</defs>
</svg>
