<svg width="40" height="40" viewBox="0 0 40 40" fill="none" xmlns="http://www.w3.org/2000/svg">
<g clip-path="url(#clip0_33_32)">
<rect x="-0.000976562" y="-6.10352e-05" width="40" height="40" rx="6" fill="url(#paint0_linear_33_32)"/>
<g filter="url(#filter0_d_33_32)">
<path d="M9.68352 26.8552C9.48294 26.9232 9.28973 27.0006 9.07796 26.9993C8.67794 26.997 8.30201 26.8075 8.0446 26.5013C7.79668 26.2064 7.55246 25.9152 7.32479 25.6116C6.75093 24.8464 6.20691 24.059 5.64146 23.2874C5.38865 22.9424 5.10671 22.6187 4.85201 22.275C4.58753 21.9182 4.34063 21.5484 4.08271 21.1866C4.05477 21.1474 3.99901 21.1426 3.99904 21.0945C3.99913 20.9174 3.99981 20.7401 4.00469 20.5603C4.0094 20.3867 4.10278 20.2392 4.21986 20.1108C4.23853 20.0903 4.25493 20.0689 4.26819 20.0456C4.4297 19.7625 4.5647 19.4644 4.72285 19.1792C5.45497 17.8588 6.18075 16.5348 6.93444 15.2267C7.10598 14.929 7.17728 14.5315 7.54757 14.3846C7.78217 14.2915 8.03578 14.2416 8.28439 14.1889C9.13565 14.0083 9.98788 13.832 10.8409 13.6596C11.764 13.4729 12.6886 13.2933 13.6115 13.1054C13.6952 13.0884 13.7431 12.9999 13.8285 13C13.9648 13.0001 14.1014 13.0007 14.2392 13.003C14.4994 13.0074 14.7546 13.1054 14.9451 13.2828C14.9966 13.3308 15.0444 13.3805 15.0854 13.4354C15.4946 13.9826 15.8898 14.5406 16.2802 15.1014C16.4329 15.3206 16.595 15.4257 16.8913 15.425C22.1406 15.4121 27.3899 15.4156 32.6393 15.4157C33.0772 15.4157 33.3544 15.6784 33.3553 16.0933C33.3563 16.5353 33.0923 16.7881 32.629 16.7881C30.1879 16.7882 27.7468 16.7882 25.3057 16.7882C25.1772 16.7882 25.0485 16.7839 24.9203 16.789C24.5728 16.8027 24.216 17.0656 24.1581 17.3461C24.0784 17.732 24.2654 18.0807 24.6439 18.2281C24.732 18.2623 24.8354 18.2687 24.9317 18.2688C26.6019 18.2712 28.2722 18.2722 29.9424 18.2696C30.5413 18.2687 30.8546 18.7856 30.6417 19.2909C30.5048 19.6156 30.2056 19.6924 29.8929 19.6951C28.9569 19.7032 28.0207 19.698 27.0847 19.698C25.4695 19.698 23.8543 19.6975 22.2391 19.6983C21.8123 19.6986 21.5464 20.0006 21.5042 20.4172C21.4635 20.8189 21.9273 21.1862 22.3759 21.1853C26.5331 21.1769 30.6904 21.1805 34.8476 21.1801C35.252 21.1801 35.6796 21.1049 35.949 21.5215C35.9541 21.5295 35.9649 21.532 35.9729 21.5268C35.9841 21.5195 35.999 21.5276 35.999 21.541C35.999 21.7096 35.9984 21.8789 35.9885 22.0603C35.9837 22.1478 35.9381 22.2276 35.8683 22.2806C35.6689 22.4319 35.4948 22.568 35.2052 22.5654C32.6545 22.5424 30.1035 22.5527 27.5526 22.553C27.0714 22.5531 26.6987 22.8744 26.6898 23.2853C26.6816 23.6638 27.0009 24.0497 27.5312 24.0415C28.7972 24.022 30.0637 24.0376 31.33 24.0342C31.9348 24.0325 32.2013 24.5842 32.0364 24.988C31.9053 25.3089 31.6569 25.4626 31.2043 25.4626C26.1391 25.4627 21.074 25.4626 16.0088 25.4635C15.919 25.4635 15.7882 25.4403 15.7463 25.4884C15.5027 25.7676 15.15 25.7729 14.8406 25.8366C13.143 26.1861 11.4389 26.5043 9.7384 26.8404C9.71985 26.844 9.70158 26.8491 9.68352 26.8552ZM13.9613 14.3096C13.6804 14.1803 13.3299 14.3547 13.1476 14.6044C12.9869 14.8244 12.8594 15.0695 12.7271 15.3091C12.2024 16.2599 11.692 17.2189 11.1517 18.1609C11.0018 18.4222 10.8015 18.6824 10.5609 18.8557C10.359 19.001 10.0687 19.0371 9.81103 19.0905C8.54154 19.3536 7.26964 19.6051 5.99918 19.8635C5.73207 19.9178 5.54821 20.0898 5.49247 20.3467C5.4266 20.6503 5.48607 20.9284 5.77031 21.1294C6.04995 21.3272 6.32762 21.2448 6.62161 21.1839C7.79617 20.9402 8.97184 20.7012 10.1505 20.4781C10.5906 20.3948 11.0158 20.4908 11.2959 20.8589C12.0823 21.8925 12.8451 22.9441 13.6174 23.9884C13.874 24.3353 14.2777 24.4137 14.6169 24.1829C14.9187 23.9776 15.0121 23.4943 14.7829 23.1776C14.0842 22.2124 13.3781 21.2526 12.6655 20.2976C12.4043 19.9476 12.1932 19.5869 12.3216 19.1366C12.3783 18.9375 12.4891 18.7515 12.59 18.5675C12.9509 17.9095 13.3234 17.2578 13.6809 16.5979C13.9408 16.1182 14.2019 15.6376 14.4269 15.1414C14.5416 14.8882 14.4048 14.6497 14.2056 14.4784C14.1299 14.4133 14.0505 14.3506 13.9613 14.3096Z" fill="white"/>
<path d="M31.5864 18.6754C31.8855 18.2943 32.1137 18.2081 32.4605 18.326C32.7597 18.4276 32.973 18.7874 32.9135 19.09C32.8441 19.4423 32.4708 19.741 32.1547 19.6971C31.8022 19.6481 31.5352 19.3543 31.5396 19.0097C31.5409 18.9052 31.566 18.8011 31.5864 18.6754Z" fill="white"/>
<g opacity="0.7">
<mask id="path-5-outside-1_33_32" maskUnits="userSpaceOnUse" x="18" y="18" width="18" height="18" fill="black">
<rect fill="white" x="18" y="18" width="18" height="18"/>
<path fill-rule="evenodd" clip-rule="evenodd" d="M21.7485 20.1464C21.5532 19.9512 21.2366 19.9512 21.0414 20.1464L20.1469 21.0409C19.9517 21.2362 19.9517 21.5527 20.1469 21.748L25.3997 27.0009L20.1465 32.2519C19.9512 32.4471 19.9512 32.7636 20.1465 32.9589L21.0411 33.8531C21.2364 34.0483 21.5531 34.0483 21.7484 33.8531L27.0012 28.6024L32.2521 33.8534C32.4474 34.0486 32.7639 34.0486 32.9592 33.8534L33.8536 32.9589C34.0489 32.7637 34.0489 32.4471 33.8536 32.2518L28.6031 27.0012L33.8562 21.7504C34.0515 21.5551 34.0515 21.2386 33.8562 21.0434L32.9615 20.1492C32.7662 19.9539 32.4496 19.9539 32.2543 20.1492L27.0016 25.3997L21.7485 20.1464Z"/>
</mask>
<path fill-rule="evenodd" clip-rule="evenodd" d="M21.7485 20.1464C21.5532 19.9512 21.2366 19.9512 21.0414 20.1464L20.1469 21.0409C19.9517 21.2362 19.9517 21.5527 20.1469 21.748L25.3997 27.0009L20.1465 32.2519C19.9512 32.4471 19.9512 32.7636 20.1465 32.9589L21.0411 33.8531C21.2364 34.0483 21.5531 34.0483 21.7484 33.8531L27.0012 28.6024L32.2521 33.8534C32.4474 34.0486 32.7639 34.0486 32.9592 33.8534L33.8536 32.9589C34.0489 32.7637 34.0489 32.4471 33.8536 32.2518L28.6031 27.0012L33.8562 21.7504C34.0515 21.5551 34.0515 21.2386 33.8562 21.0434L32.9615 20.1492C32.7662 19.9539 32.4496 19.9539 32.2543 20.1492L27.0016 25.3997L21.7485 20.1464Z" fill="url(#paint1_linear_33_32)"/>
<path d="M21.0414 20.1464L19.9807 19.0858L19.9807 19.0858L21.0414 20.1464ZM21.7485 20.1464L22.8091 19.0858L22.8091 19.0858L21.7485 20.1464ZM20.1469 21.0409L21.2076 22.1015L21.2076 22.1015L20.1469 21.0409ZM20.1469 21.748L21.2076 20.6874L21.2076 20.6874L20.1469 21.748ZM25.3997 27.0009L26.4601 28.0618L27.5212 27.0011L26.4604 25.9402L25.3997 27.0009ZM20.1465 32.2519L21.2069 33.3128L21.2069 33.3128L20.1465 32.2519ZM20.1465 32.9589L21.2069 31.898L21.2069 31.898L20.1465 32.9589ZM21.0411 33.8531L19.9807 34.914L19.9807 34.914L21.0411 33.8531ZM21.7484 33.8531L20.6879 32.7922L20.6879 32.7922L21.7484 33.8531ZM27.0012 28.6024L28.0619 27.5418L27.0015 26.4813L25.9408 27.5415L27.0012 28.6024ZM32.2521 33.8534L31.1914 34.914L31.1914 34.914L32.2521 33.8534ZM32.9592 33.8534L34.0199 34.914L34.0199 34.914L32.9592 33.8534ZM33.8536 32.9589L32.793 31.8983L32.793 31.8983L33.8536 32.9589ZM33.8536 32.2518L32.793 33.3125L32.793 33.3125L33.8536 32.2518ZM28.6031 27.0012L27.5427 25.9403L26.4816 27.001L27.5424 28.0619L28.6031 27.0012ZM33.8562 21.7504L32.7957 20.6895L32.7957 20.6895L33.8562 21.7504ZM33.8562 21.0434L34.9166 19.9825L34.9166 19.9825L33.8562 21.0434ZM32.9615 20.1492L31.9011 21.21L31.9011 21.21L32.9615 20.1492ZM32.2543 20.1492L31.1938 19.0883L31.1938 19.0883L32.2543 20.1492ZM27.0016 25.3997L25.9409 26.4603L27.0013 27.5208L28.062 26.4605L27.0016 25.3997ZM22.102 21.2071C21.7115 21.5976 21.0783 21.5976 20.6878 21.2071L22.8091 19.0858C22.0281 18.3047 20.7617 18.3047 19.9807 19.0858L22.102 21.2071ZM21.2076 22.1015L22.102 21.2071L19.9807 19.0858L19.0862 19.9802L21.2076 22.1015ZM21.2076 20.6874C21.5981 21.0779 21.5981 21.711 21.2076 22.1015L19.0862 19.9802C18.3052 20.7613 18.3052 22.0276 19.0862 22.8087L21.2076 20.6874ZM26.4604 25.9402L21.2076 20.6874L19.0862 22.8087L24.339 28.0615L26.4604 25.9402ZM21.2069 33.3128L26.4601 28.0618L24.3393 25.94L19.086 31.191L21.2069 33.3128ZM21.2069 31.898C21.5977 32.2886 21.5977 32.9222 21.2069 33.3128L19.086 31.191C18.3047 31.9721 18.3047 33.2387 19.086 34.0197L21.2069 31.898ZM22.1015 32.7922L21.2069 31.898L19.086 34.0197L19.9807 34.914L22.1015 32.7922ZM20.6879 32.7922C21.0784 32.402 21.7111 32.402 22.1015 32.7922L19.9807 34.914C20.7617 35.6947 22.0278 35.6947 22.8088 34.914L20.6879 32.7922ZM25.9408 27.5415L20.6879 32.7922L22.8088 34.914L28.0617 29.6633L25.9408 27.5415ZM33.3128 32.7927L28.0619 27.5418L25.9406 29.6631L31.1914 34.914L33.3128 32.7927ZM31.8985 32.7927C32.2891 32.4022 32.9222 32.4022 33.3128 32.7927L31.1914 34.914C31.9725 35.6951 33.2388 35.6951 34.0199 34.914L31.8985 32.7927ZM32.793 31.8983L31.8985 32.7927L34.0199 34.914L34.9143 34.0196L32.793 31.8983ZM32.793 33.3125C32.4024 32.9219 32.4024 32.2888 32.793 31.8983L34.9143 34.0196C35.6953 33.2385 35.6953 31.9722 34.9143 31.1912L32.793 33.3125ZM27.5424 28.0619L32.793 33.3125L34.9143 31.1912L29.6638 25.9406L27.5424 28.0619ZM32.7957 20.6895L27.5427 25.9403L29.6636 28.0621L34.9166 22.8112L32.7957 20.6895ZM32.7957 22.1043C32.4049 21.7137 32.4049 21.0801 32.7957 20.6895L34.9166 22.8112C35.698 22.0302 35.698 20.7636 34.9166 19.9825L32.7957 22.1043ZM31.9011 21.21L32.7957 22.1043L34.9166 19.9825L34.022 19.0883L31.9011 21.21ZM33.3147 21.21C32.9243 21.6003 32.2915 21.6003 31.9011 21.21L34.022 19.0883C33.2409 18.3076 31.9749 18.3076 31.1938 19.0883L33.3147 21.21ZM28.062 26.4605L33.3147 21.21L31.1938 19.0883L25.9411 24.3388L28.062 26.4605ZM20.6878 21.2071L25.9409 26.4603L28.0622 24.339L22.8091 19.0858L20.6878 21.2071Z" fill="black" mask="url(#path-5-outside-1_33_32)"/>
</g>
</g>
</g>
<rect x="0.749023" y="0.749939" width="38.5" height="38.5" rx="5.25" stroke="white" stroke-opacity="0.15" stroke-width="1.5"/>
<defs>
<filter id="filter0_d_33_32" x="-0.000976562" y="1.99994" width="40" height="37.4999" filterUnits="userSpaceOnUse" color-interpolation-filters="sRGB">
<feFlood flood-opacity="0" result="BackgroundImageFix"/>
<feColorMatrix in="SourceAlpha" type="matrix" values="0 0 0 0 0 0 0 0 0 0 0 0 0 0 0 0 0 0 127 0" result="hardAlpha"/>
<feOffset/>
<feGaussianBlur stdDeviation="2"/>
<feComposite in2="hardAlpha" operator="out"/>
<feColorMatrix type="matrix" values="0 0 0 0 0 0 0 0 0 0 0 0 0 0 0 0 0 0 0.25 0"/>
<feBlend mode="normal" in2="BackgroundImageFix" result="effect1_dropShadow_33_32"/>
<feBlend mode="normal" in="SourceGraphic" in2="effect1_dropShadow_33_32" result="shape"/>
</filter>
<linearGradient id="paint0_linear_33_32" x1="19.999" y1="-6.10351e-05" x2="19.999" y2="39.9999" gradientUnits="userSpaceOnUse">
<stop stop-color="#2C1B1B"/>
<stop offset="1" stop-color="#1F1414"/>
</linearGradient>
<linearGradient id="paint1_linear_33_32" x1="27.0014" y1="20" x2="27.0014" y2="34" gradientUnits="userSpaceOnUse">
<stop stop-color="#FF0000"/>
<stop offset="1" stop-color="#CC0000"/>
</linearGradient>
<clipPath id="clip0_33_32">
<rect x="-0.000976562" y="-6.10352e-05" width="40" height="40" rx="6" fill="white"/>
</clipPath>
</defs>
</svg>
