<svg width="40" height="40" viewBox="0 0 40 40" fill="none" xmlns="http://www.w3.org/2000/svg">
<g clip-path="url(#clip0_33_25)">
<rect x="-0.000976562" y="-6.10352e-05" width="40" height="40" rx="6" fill="url(#paint0_linear_33_25)"/>
<g filter="url(#filter0_d_33_25)">
<path fill-rule="evenodd" clip-rule="evenodd" d="M14.5775 6.18995C13.988 6.83017 14.4647 7.18713 15.91 7.18783C17.2232 7.18846 18.387 7.36768 19.6711 7.76703C20.1718 7.9227 20.1739 7.88326 19.6303 8.504C19.0267 9.19333 18.6049 9.7176 18.2847 10.1765C18.1384 10.3863 17.9305 10.684 17.8228 10.8382C16.6089 12.5765 15.0009 16.2403 14.7547 17.829C14.7401 17.9233 14.6939 18.116 14.6521 18.2572C14.6102 18.3983 14.5342 18.7241 14.483 18.981C14.4318 19.2379 14.3404 19.6654 14.2797 19.9311C14.2189 20.1968 14.1688 20.5121 14.1682 20.6318C14.1659 21.1046 14.1132 21.1597 13.5228 21.3072C10.4953 22.0633 8.01539 23.3962 6.89678 24.8687C5.35097 26.9034 5.8257 29.242 8.13332 30.9598C8.77573 31.438 9.95964 32.1242 10.4274 32.2893C10.6053 32.3522 10.8639 32.4544 11.002 32.5165C12.0329 32.9796 14.5877 33.6383 15.8724 33.7723C16.0607 33.792 16.4281 33.8505 16.689 33.9024C17.0056 33.9653 18.0932 33.9975 19.9626 33.9993C22.8831 34.0018 22.705 34.0154 25.0562 33.6116C26.6818 33.3324 27.7203 33.0328 29.4888 32.3327C34.3309 30.4158 35.4483 26.3407 31.8633 23.6733C30.3418 22.5414 27.9692 21.5683 25.6395 21.1209C25.3828 21.0717 25.0261 20.9992 24.8468 20.9598C24.6675 20.9204 24.4313 20.8882 24.3219 20.8882C24.0758 20.8882 24.0534 20.4254 24.2378 19.1512C24.3009 18.715 24.4073 17.9729 24.4743 17.5019C24.6673 16.1448 25.0368 14.3023 25.2041 13.8626C25.249 13.7449 25.2693 13.6485 25.2493 13.6485C25.2293 13.6485 25.2614 13.5172 25.3206 13.3566C25.4251 13.0733 25.7827 11.9365 25.7921 11.858C25.7971 11.8157 25.9657 11.3678 26.0704 11.1186C26.1064 11.0329 26.2416 10.7037 26.371 10.387C26.6765 9.63836 27.4246 8.38637 27.6575 8.23356C28.5096 7.67469 30.7039 7.19771 32.462 7.18923C33.7599 7.18292 33.999 7.08049 33.999 6.53072C33.999 5.71346 30.0769 5.89296 27.9334 6.80838C27.8266 6.85406 27.5491 6.96672 27.3168 7.05885C25.9619 7.59608 24.2289 11.8155 23.4274 16.5288C23.3437 17.0212 23.2549 17.5992 23.2301 17.8133C23.2053 18.0274 23.1533 18.4302 23.1145 18.7085C22.7569 21.2785 22.653 26.9291 22.958 27.225C23.1493 27.4105 23.5288 27.4115 23.7731 27.2271C23.9087 27.1247 23.9336 26.9921 23.9675 26.189L24.0064 25.2683L24.7519 25.5186C25.9694 25.9274 26.6893 26.4052 26.6893 26.8044C26.6893 27.3092 25.1408 28.1039 23.4426 28.4708C22.5565 28.6622 21.759 28.8118 21.5957 28.8172C19.6721 28.8817 19.1256 29.1479 19.5347 29.8213L19.6882 30.074L20.3698 30.0746C21.4264 30.0753 23.009 29.8348 24.2786 29.4804C24.5138 29.4148 24.7587 29.3477 24.8229 29.3314C26.0144 29.0288 27.3655 28.1583 27.692 27.4831C28.3429 26.137 26.8087 24.6505 24.2203 24.1193C23.9721 24.0685 23.9675 24.0597 23.9675 23.6403C23.9675 23.2698 23.9856 23.2185 24.1036 23.2539C24.1785 23.2764 24.5197 23.3675 24.8618 23.4564C30.784 24.9943 30.9659 28.4016 25.2152 30.0769C24.8964 30.1698 24.5465 30.2607 24.4376 30.2789C24.3287 30.2971 24.1872 30.3317 24.123 30.3557C22.8242 30.8414 17.1789 30.8414 15.8801 30.3557C15.8159 30.3317 15.6744 30.2971 15.5656 30.2789C14.8333 30.1564 13.6879 29.7452 12.7696 29.2753C9.72392 27.7168 9.78481 25.7826 12.9278 24.2482C13.765 23.8395 13.7956 23.8397 13.7655 24.252C13.7424 24.5691 13.7238 24.5899 13.1973 24.8905C11.5433 25.8347 11.2064 27.2621 12.4075 28.2358C13.6234 29.2214 15.6606 29.2944 15.3706 28.3419C15.2774 28.0356 15.095 27.8943 14.7924 27.8943C14.0135 27.8943 12.8473 27.2636 12.8473 26.8423C12.8473 26.6991 13.4712 26.0261 13.6039 26.0261C13.6464 26.0261 13.6656 26.1075 13.6466 26.207C13.6045 26.4273 13.9589 26.8824 14.1725 26.8824C14.7144 26.8824 14.8315 26.5898 14.9042 25.053C14.9592 23.8917 15.0698 22.6658 15.1959 21.8224C15.2439 21.5012 15.2913 21.1509 15.3014 21.0439C15.3355 20.6785 15.504 19.8382 15.7775 18.6696C16.6925 14.7607 18.1231 12.0304 20.9931 8.71573C21.3886 8.25879 21.7123 7.83134 21.7123 7.76584C21.7123 7.49603 21.4764 7.19855 21.1888 7.10579C21.0276 7.05387 20.8609 6.98479 20.8181 6.95242C20.2665 6.53437 18.0841 6.09915 16.2689 6.04513L14.7525 5.99994L14.5775 6.18995ZM24.8826 7.16289C24.584 7.24115 23.2921 9.2325 22.5378 10.7769C22.0431 11.7897 21.3315 13.609 21.2054 14.1834C21.1901 14.2532 21.071 14.7203 20.9409 15.2216C20.8107 15.7228 20.6513 16.4059 20.5866 16.7396C20.5218 17.0732 20.4336 17.5214 20.3903 17.7354C20.3472 17.9495 20.2981 18.2648 20.2814 18.436C20.2647 18.6073 20.2156 18.9576 20.1723 19.2145C20.0405 19.9954 19.7709 22.7494 19.7303 23.7297C19.7143 24.115 19.6626 25.0814 19.6153 25.8773C19.51 27.6508 19.5968 27.9539 20.1872 27.8748C20.6989 27.8062 20.7543 27.617 20.8105 25.7493C20.8973 22.8635 21.1704 20.1371 21.6445 17.4241C21.8718 16.1238 22.5574 13.6582 22.9218 12.8311C22.9783 12.7027 23.1184 12.3699 23.2329 12.0916C23.5332 11.3619 23.93 10.5897 24.3859 9.84778C24.6048 9.49145 24.819 9.14114 24.8618 9.06933C24.9046 8.99758 25.0908 8.73548 25.2756 8.48698C25.8956 7.65346 25.6873 6.95179 24.8826 7.16289ZM22.84 7.35261C22.1386 7.57324 19.6522 11.5167 18.8456 13.6874C18.5842 14.391 18.1391 15.7344 18.0073 16.2175C17.7503 17.1602 17.5285 18.0727 17.4398 18.5528C17.3884 18.8311 17.2989 19.2865 17.2408 19.5648C17.1828 19.8431 17.0993 20.3336 17.0553 20.6547C16.8892 21.8666 16.7875 22.7064 16.7923 22.8266C16.795 22.8951 16.7499 23.3749 16.6922 23.893C16.4104 26.4191 16.5324 27.3833 17.1314 27.3663C17.5593 27.3541 17.6603 27.1724 17.7037 26.3369C17.7811 24.8486 18.0215 22.1554 18.1414 21.4331C18.1806 21.1976 18.2262 20.8625 18.2429 20.6884C18.2596 20.5142 18.3121 20.1814 18.3594 19.9488C18.76 17.9839 18.796 17.817 18.9128 17.3783C19.465 15.3058 20.0809 13.6504 20.8779 12.0972C21.3405 11.1956 22.5707 9.31938 23.0508 8.78313C23.6399 8.12525 23.7243 7.79302 23.3878 7.45623C23.1788 7.24696 23.1769 7.24661 22.84 7.35261ZM25.703 22.3378C27.5392 22.7685 29.2929 23.4512 30.7259 24.293C32.3669 25.2571 33.1959 27.0176 32.614 28.3026C31.8664 29.953 28.7118 31.7668 25.6752 32.2923C25.5272 32.3179 25.2836 32.3699 25.1339 32.4079C24.8519 32.4795 24.2993 32.5663 23.0343 32.7375C22.5728 32.8 21.4348 32.8376 20.0016 32.8376C18.5683 32.8376 17.4304 32.8 16.9688 32.7375C15.7038 32.5663 15.1512 32.4795 14.8692 32.4079C14.7195 32.3699 14.4759 32.3179 14.328 32.2923C13.3386 32.1211 11.5583 31.5186 10.5036 30.9981C6.02838 28.7893 6.07191 25.7746 10.6107 23.582C11.425 23.1887 13.101 22.5947 13.6832 22.4932C13.9898 22.4396 14.0237 22.5765 13.7222 22.6501C13.6045 22.6788 13.2016 22.8347 12.8267 22.9965C7.72123 25.2006 8.35077 29.3562 14.0526 31.089C14.2237 31.141 14.5036 31.228 14.6748 31.2823C14.8458 31.3366 15.2132 31.4224 15.4913 31.4729C15.7693 31.5235 16.1542 31.5947 16.3467 31.6312C18.354 32.0115 21.6491 32.0115 23.6564 31.6312C23.8489 31.5947 24.2338 31.5235 24.5118 31.4729C24.7899 31.4224 25.1573 31.3366 25.3284 31.2823C25.4995 31.228 25.7794 31.1408 25.9505 31.0886C32.7313 29.0172 32.0328 23.8736 24.7452 22.2136C24.5512 22.1695 24.5248 22.1491 24.6532 22.1427C24.7524 22.1377 25.2248 22.2255 25.703 22.3378Z" fill="white"/>
<g opacity="0.7">
<mask id="path-4-outside-1_33_25" maskUnits="userSpaceOnUse" x="16" y="16" width="20" height="20" fill="black">
<rect fill="white" x="16" y="16" width="20" height="20"/>
<path fill-rule="evenodd" clip-rule="evenodd" d="M19.9702 18.1465C19.775 17.9512 19.4585 17.9512 19.2632 18.1465L18.1469 19.263C17.9517 19.4583 17.9517 19.7749 18.1469 19.9702L24.1761 26.0009L18.1465 32.0295C17.9512 32.2248 17.9512 32.5413 18.1465 32.7366L19.263 33.8529C19.4583 34.0481 19.7749 34.0481 19.9701 33.8529L25.9993 27.8247L32.0262 33.8532C32.2215 34.0485 32.538 34.0485 32.7333 33.8532L33.8495 32.7366C34.0448 32.5413 34.0448 32.2247 33.8495 32.0294L27.823 26.0013L33.8525 19.9729C34.0477 19.7777 34.0477 19.4611 33.8525 19.2659L32.7359 18.1496C32.5407 17.9543 32.2241 17.9543 32.0288 18.1496L25.9997 24.1776L19.9702 18.1465Z"/>
</mask>
<path fill-rule="evenodd" clip-rule="evenodd" d="M19.9702 18.1465C19.775 17.9512 19.4585 17.9512 19.2632 18.1465L18.1469 19.263C17.9517 19.4583 17.9517 19.7749 18.1469 19.9702L24.1761 26.0009L18.1465 32.0295C17.9512 32.2248 17.9512 32.5413 18.1465 32.7366L19.263 33.8529C19.4583 34.0481 19.7749 34.0481 19.9701 33.8529L25.9993 27.8247L32.0262 33.8532C32.2215 34.0485 32.538 34.0485 32.7333 33.8532L33.8495 32.7366C34.0448 32.5413 34.0448 32.2247 33.8495 32.0294L27.823 26.0013L33.8525 19.9729C34.0477 19.7777 34.0477 19.4611 33.8525 19.2659L32.7359 18.1496C32.5407 17.9543 32.2241 17.9543 32.0288 18.1496L25.9997 24.1776L19.9702 18.1465Z" fill="url(#paint1_linear_33_25)"/>
<path d="M19.2632 18.1465L20.324 19.207L19.2632 18.1465ZM19.9702 18.1465L18.9094 19.207L18.9094 19.207L19.9702 18.1465ZM18.1469 19.263L17.0861 18.2025L17.0861 18.2025L18.1469 19.263ZM18.1469 19.9702L17.0861 21.0308L17.0861 21.0308L18.1469 19.9702ZM24.1761 26.0009L25.2366 27.0617L26.2973 26.0012L25.2369 24.9404L24.1761 26.0009ZM18.1465 32.0295L17.0859 30.9688L17.0859 30.9688L18.1465 32.0295ZM18.1465 32.7366L17.0859 33.7973L17.0859 33.7973L18.1465 32.7366ZM19.263 33.8529L20.3236 32.7921L20.3235 32.7921L19.263 33.8529ZM19.9701 33.8529L18.9096 32.7921L18.9096 32.7921L19.9701 33.8529ZM25.9993 27.8247L27.0601 26.7642L25.9996 25.7033L24.9388 26.764L25.9993 27.8247ZM32.0262 33.8532L30.9654 34.9137L30.9654 34.9137L32.0262 33.8532ZM32.7333 33.8532L33.7941 34.9137L33.7941 34.9137L32.7333 33.8532ZM33.8495 32.7366L32.7887 31.6761L32.7887 31.6761L33.8495 32.7366ZM33.8495 32.0294L32.7887 33.09L32.7887 33.09L33.8495 32.0294ZM27.823 26.0013L26.7625 24.9406L25.7018 26.0011L26.7622 27.0619L27.823 26.0013ZM33.8525 19.9729L34.913 21.0337L34.913 21.0337L33.8525 19.9729ZM33.8525 19.2659L32.7919 20.3266L32.7919 20.3266L33.8525 19.2659ZM32.7359 18.1496L31.6754 19.2103L31.6754 19.2103L32.7359 18.1496ZM32.0288 18.1496L30.9682 17.0888L30.9682 17.0888L32.0288 18.1496ZM25.9997 24.1776L24.9389 25.2381L25.9995 26.2989L27.0603 25.2383L25.9997 24.1776ZM20.324 19.207C19.9334 19.5977 19.3 19.5977 18.9094 19.207L21.031 17.0859C20.25 16.3047 18.9835 16.3047 18.2024 17.0859L20.324 19.207ZM19.2077 20.3236L20.324 19.207L18.2024 17.0859L17.0861 18.2025L19.2077 20.3236ZM19.2077 18.9097C19.5981 19.3002 19.5981 19.9331 19.2077 20.3236L17.0861 18.2025C16.3053 18.9836 16.3053 20.2497 17.0861 21.0308L19.2077 18.9097ZM25.2369 24.9404L19.2077 18.9097L17.0861 21.0308L23.1153 27.0615L25.2369 24.9404ZM19.207 33.0903L25.2366 27.0617L23.1155 24.9402L17.0859 30.9688L19.207 33.0903ZM19.207 31.6758C19.5977 32.0664 19.5977 32.6997 19.207 33.0903L17.0859 30.9688C16.3047 31.7498 16.3047 33.0163 17.0859 33.7973L19.207 31.6758ZM20.3235 32.7921L19.207 31.6758L17.0859 33.7973L18.2024 34.9136L20.3235 32.7921ZM18.9096 32.7921C19.3001 32.4017 19.9331 32.4017 20.3236 32.7921L18.2024 34.9136C18.9834 35.6946 20.2497 35.6946 21.0307 34.9136L18.9096 32.7921ZM24.9388 26.764L18.9096 32.7921L21.0307 34.9136L27.0599 28.8855L24.9388 26.764ZM33.087 32.7927L27.0601 26.7642L24.9385 28.8852L30.9654 34.9137L33.087 32.7927ZM31.6725 32.7927C32.063 32.402 32.6965 32.402 33.087 32.7927L30.9654 34.9137C31.7465 35.695 33.013 35.695 33.7941 34.9137L31.6725 32.7927ZM32.7887 31.6761L31.6725 32.7927L33.7941 34.9137L34.9103 33.7972L32.7887 31.6761ZM32.7887 33.09C32.3984 32.6995 32.3984 32.0666 32.7887 31.6761L34.9103 33.7972C35.6912 33.0161 35.6912 31.75 34.9103 30.9689L32.7887 33.09ZM26.7622 27.0619L32.7887 33.09L34.9103 30.9689L28.8838 24.9408L26.7622 27.0619ZM32.7919 18.9122L26.7625 24.9406L28.8836 27.0621L34.913 21.0337L32.7919 18.9122ZM32.7919 20.3266C32.4013 19.9361 32.4013 19.3027 32.7919 18.9122L34.913 21.0337C35.6942 20.2526 35.6942 18.9862 34.913 18.2051L32.7919 20.3266ZM31.6754 19.2103L32.7919 20.3266L34.913 18.2051L33.7965 17.0888L31.6754 19.2103ZM33.0893 19.2103C32.6989 19.6007 32.0659 19.6007 31.6754 19.2103L33.7965 17.0888C33.0155 16.3079 31.7492 16.3079 30.9682 17.0888L33.0893 19.2103ZM27.0603 25.2383L33.0893 19.2103L30.9682 17.0888L24.9392 23.1168L27.0603 25.2383ZM18.9094 19.207L24.9389 25.2381L27.0605 23.117L21.031 17.0859L18.9094 19.207Z" fill="black" mask="url(#path-4-outside-1_33_25)"/>
</g>
</g>
</g>
<rect x="0.749023" y="0.749939" width="38.5" height="38.5" rx="5.25" stroke="white" stroke-opacity="0.15" stroke-width="1.5"/>
<defs>
<filter id="filter0_d_33_25" x="1.99902" y="1.99994" width="37.5" height="37.4997" filterUnits="userSpaceOnUse" color-interpolation-filters="sRGB">
<feFlood flood-opacity="0" result="BackgroundImageFix"/>
<feColorMatrix in="SourceAlpha" type="matrix" values="0 0 0 0 0 0 0 0 0 0 0 0 0 0 0 0 0 0 127 0" result="hardAlpha"/>
<feOffset/>
<feGaussianBlur stdDeviation="2"/>
<feComposite in2="hardAlpha" operator="out"/>
<feColorMatrix type="matrix" values="0 0 0 0 0 0 0 0 0 0 0 0 0 0 0 0 0 0 0.25 0"/>
<feBlend mode="normal" in2="BackgroundImageFix" result="effect1_dropShadow_33_25"/>
<feBlend mode="normal" in="SourceGraphic" in2="effect1_dropShadow_33_25" result="shape"/>
</filter>
<linearGradient id="paint0_linear_33_25" x1="19.999" y1="-6.10351e-05" x2="19.999" y2="39.9999" gradientUnits="userSpaceOnUse">
<stop stop-color="#2C1B1B"/>
<stop offset="1" stop-color="#1F1414"/>
</linearGradient>
<linearGradient id="paint1_linear_33_25" x1="25.9995" y1="18" x2="25.9995" y2="33.9997" gradientUnits="userSpaceOnUse">
<stop stop-color="#FF0000"/>
<stop offset="1" stop-color="#CC0000"/>
</linearGradient>
<clipPath id="clip0_33_25">
<rect x="-0.000976562" y="-6.10352e-05" width="40" height="40" rx="6" fill="white"/>
</clipPath>
</defs>
</svg>
