<svg width="41" height="40" viewBox="0 0 41 40" fill="none" xmlns="http://www.w3.org/2000/svg">
<rect x="0.0107422" y="-1.52588e-05" width="40" height="40" rx="8" fill="url(#paint0_linear_2_2120)"/>
<g filter="url(#filter0_d_2_2120)">
<path d="M28.0615 11.9785L28.041 11.9664L27.9937 11.9519C28.0127 11.968 28.0366 11.9774 28.0615 11.9785Z" fill="#0D0C22"/>
<path d="M28.3539 14.1217L28.333 14.1276L28.3539 14.1217Z" fill="#0D0C22"/>
<path d="M28.0685 11.975C28.0658 11.9747 28.0632 11.974 28.0607 11.9731C28.0605 11.9749 28.0605 11.9766 28.0607 11.9784C28.0635 11.978 28.0662 11.9768 28.0685 11.975Z" fill="#0D0C22"/>
<path d="M28.0605 11.9787H28.0635V11.9768L28.0605 11.9787Z" fill="#0D0C22"/>
<path d="M28.3374 14.1178L28.3719 14.098L28.3848 14.0908L28.3964 14.0783C28.3745 14.0877 28.3546 14.1012 28.3374 14.1178Z" fill="#0D0C22"/>
<path d="M28.1206 12.0253L28.0868 11.993L28.064 11.9805C28.0763 12.0023 28.0966 12.0184 28.1206 12.0253Z" fill="#0D0C22"/>
<path d="M19.7415 32.8227C19.7146 32.8345 19.691 32.8527 19.6729 32.876L19.6941 32.8624C19.7086 32.849 19.7291 32.8333 19.7415 32.8227Z" fill="#0D0C22"/>
<path d="M24.6065 31.8482C24.6065 31.8177 24.5917 31.8233 24.5953 31.9321C24.5953 31.9234 24.5989 31.9145 24.6005 31.9061C24.6025 31.8866 24.6041 31.8676 24.6065 31.8482Z" fill="#0D0C22"/>
<path d="M24.1023 32.8227C24.0754 32.8345 24.0518 32.8528 24.0337 32.876L24.055 32.8624C24.0694 32.849 24.0899 32.8333 24.1023 32.8227Z" fill="#0D0C22"/>
<path d="M16.3149 33.0545C16.2945 33.0367 16.2694 33.0249 16.2427 33.0205C16.2644 33.031 16.286 33.0416 16.3005 33.0496L16.3149 33.0545Z" fill="#0D0C22"/>
<path d="M15.5436 32.3027C15.5405 32.2711 15.5307 32.2403 15.5151 32.2124C15.5262 32.2413 15.5354 32.2711 15.5428 32.3011L15.5436 32.3027Z" fill="#0D0C22"/>
<path d="M20.7225 18.8585C19.664 19.3198 18.4627 19.8428 16.9058 19.8428C16.2545 19.8415 15.6063 19.7505 14.979 19.5724L16.0558 30.8266C16.0939 31.2969 16.3044 31.7356 16.6455 32.0553C16.9866 32.375 17.4333 32.5523 17.8969 32.5523C17.8969 32.5523 19.4237 32.633 19.9331 32.633C20.4814 32.633 22.1255 32.5523 22.1255 32.5523C22.5891 32.5523 23.0357 32.3747 23.3767 32.055C23.7178 31.7353 23.9282 31.2969 23.9663 30.8266L25.1196 18.3903C24.6042 18.2111 24.084 18.0921 23.4977 18.0921C22.4836 18.0917 21.6664 18.4472 20.7225 18.8585Z" fill="#FFDD00"/>
<path d="M11.6455 14.057L11.6636 14.074L11.6754 14.0811C11.6663 14.072 11.6563 14.0639 11.6455 14.057Z" fill="#0D0C22"/>
<path d="M30.0988 13.0183L29.9367 12.1857C29.7912 11.4387 29.4609 10.7328 28.7077 10.4628C28.4662 10.3764 28.1923 10.3393 28.0071 10.1605C27.822 9.9817 27.7673 9.70403 27.7244 9.44653C27.6451 8.97392 27.5706 8.50091 27.4893 8.02912C27.4192 7.6235 27.3637 7.16785 27.1809 6.79574C26.943 6.2961 26.4494 6.0039 25.9586 5.81058C25.7071 5.715 25.4505 5.63416 25.1899 5.56842C23.9636 5.23909 22.6744 5.11802 21.4128 5.049C19.8987 4.96395 18.3804 4.98957 16.8698 5.12568C15.7455 5.22981 14.5612 5.35573 13.4928 5.75165C13.1023 5.89654 12.6999 6.07049 12.403 6.37762C12.0386 6.75498 11.9197 7.33857 12.1857 7.80915C12.3748 8.14333 12.6951 8.37943 13.0349 8.53562C13.4775 8.73687 13.9396 8.89002 14.4138 8.9925C15.734 9.28954 17.1014 9.40616 18.4501 9.45582C19.945 9.51722 21.4423 9.46745 22.9301 9.30687C23.298 9.26571 23.6653 9.21633 24.0318 9.15877C24.4636 9.09136 24.7407 8.51665 24.6134 8.11628C24.4612 7.63764 24.052 7.45199 23.5894 7.52423C23.5212 7.53512 23.4534 7.5452 23.3852 7.55529L23.3361 7.56256C23.1793 7.58276 23.0226 7.60157 22.8659 7.61907C22.5421 7.65458 22.2175 7.68364 21.8922 7.70625C21.1635 7.7579 20.4328 7.78171 19.7025 7.78293C18.9849 7.78293 18.2669 7.76233 17.5509 7.71432C17.2243 7.69253 16.8984 7.6648 16.5733 7.63117C16.4254 7.61543 16.2779 7.59889 16.1304 7.58032L15.9901 7.56216L15.9596 7.55773L15.8141 7.53634C15.5167 7.49072 15.2194 7.43827 14.9252 7.37489C14.8955 7.36818 14.869 7.35139 14.8499 7.32724C14.8309 7.30309 14.8205 7.27307 14.8205 7.24211C14.8205 7.21116 14.8309 7.18113 14.8499 7.15699C14.869 7.13285 14.8955 7.11604 14.9252 7.10933H14.9308C15.1857 7.05404 15.4426 7.00682 15.7003 6.96565C15.7862 6.95193 15.8723 6.93848 15.9588 6.92529H15.9611C16.1225 6.9144 16.2847 6.88493 16.4452 6.86556C17.8422 6.71764 19.2475 6.66721 20.6513 6.71462C21.3327 6.7348 22.0139 6.77556 22.6922 6.84579C22.8381 6.86112 22.9832 6.87727 23.1283 6.89543C23.1838 6.90229 23.2397 6.91036 23.2956 6.91722L23.4082 6.93377C23.7365 6.98355 24.063 7.04395 24.3878 7.11498C24.8692 7.22153 25.4872 7.25624 25.7013 7.79301C25.7695 7.96333 25.8004 8.15261 25.8381 8.33139L25.8861 8.55943C25.8873 8.56351 25.8882 8.56771 25.8888 8.57193C26.0022 9.11006 26.1158 9.64818 26.2294 10.1863C26.2377 10.2261 26.2379 10.2671 26.23 10.307C26.222 10.3468 26.2061 10.3845 26.1832 10.4178C26.1603 10.4511 26.1308 10.4792 26.0968 10.5004C26.0627 10.5216 26.0247 10.5355 25.9852 10.5411H25.982L25.9126 10.5508L25.8441 10.56C25.6268 10.5888 25.4093 10.6157 25.1915 10.6408C24.7625 10.6905 24.3329 10.7336 23.9026 10.7699C23.0476 10.8423 22.1908 10.8898 21.3323 10.9124C20.8949 10.9242 20.4576 10.9297 20.0205 10.9289C18.2804 10.9275 16.5419 10.8246 14.8134 10.6206C14.6263 10.598 14.4392 10.5737 14.252 10.5491C14.3971 10.5681 14.1466 10.5346 14.0958 10.5273C13.9769 10.5104 13.8579 10.4928 13.739 10.4745C13.3398 10.4135 12.9429 10.3385 12.5445 10.2727C12.0628 10.192 11.6021 10.2323 11.1664 10.4745C10.8087 10.6737 10.5193 10.9792 10.3366 11.3503C10.1487 11.7458 10.0928 12.1764 10.0087 12.6014C9.92469 13.0264 9.79386 13.4836 9.84341 13.9199C9.95006 14.8615 10.5967 15.6267 11.5268 15.7978C12.4018 15.9593 13.2815 16.09 14.1636 16.2014C17.6288 16.6334 21.1295 16.6851 24.6055 16.3556C24.8886 16.3287 25.1712 16.2994 25.4535 16.2676C25.5417 16.2578 25.6309 16.2681 25.7147 16.2979C25.7984 16.3277 25.8745 16.3761 25.9375 16.4398C26.0004 16.5034 26.0486 16.5805 26.0784 16.6655C26.1083 16.7505 26.1191 16.8413 26.1101 16.9311L26.022 17.8021C25.8447 19.562 25.6673 21.3218 25.49 23.0814C25.305 24.9293 25.1188 26.7771 24.9314 28.6246C24.8785 29.1451 24.8257 29.6654 24.7728 30.1854C24.7221 30.6977 24.7149 31.2259 24.6194 31.7321C24.4687 32.5279 23.9395 33.0167 23.1672 33.1955C22.4596 33.3594 21.7368 33.4455 21.0112 33.4521C20.2068 33.4565 19.4028 33.4202 18.5984 33.4246C17.7396 33.4295 16.6879 33.3489 16.025 32.6982C15.4426 32.1268 15.3621 31.232 15.2828 30.4582C15.1771 29.4339 15.0723 28.4098 14.9684 27.3857L14.3856 21.6915L14.0086 18.0071C14.0022 17.9462 13.9959 17.886 13.99 17.8247C13.9448 17.3852 13.6391 16.9549 13.1574 16.9771C12.7451 16.9957 12.2765 17.3525 12.3248 17.8247L12.6043 20.5562L13.1824 26.2064C13.347 27.8114 13.5113 29.4165 13.6752 31.022C13.7069 31.3296 13.7366 31.638 13.7699 31.9455C13.9511 33.6261 15.2118 34.5317 16.7731 34.7867C17.6849 34.9361 18.619 34.9668 19.5443 34.9821C20.7305 35.0016 21.9286 35.048 23.0954 34.8292C24.8244 34.5062 26.1216 33.331 26.3067 31.5081C26.3596 30.9817 26.4124 30.4554 26.4653 29.9288C26.641 28.1874 26.8166 26.4459 26.9918 24.7043L27.5651 19.0136L27.8279 16.4056C27.841 16.2763 27.8947 16.1547 27.9809 16.0589C28.0672 15.963 28.1814 15.8979 28.3068 15.8733C28.8012 15.7752 29.2738 15.6077 29.6255 15.2247C30.1853 14.6149 30.2967 13.8198 30.0988 13.0183ZM11.5014 13.5809C11.5089 13.5773 11.4951 13.643 11.4891 13.6737C11.4879 13.6273 11.4903 13.5861 11.5014 13.5809ZM11.5494 13.9587C11.5533 13.9558 11.5652 13.972 11.5775 13.9914C11.5589 13.9736 11.547 13.9603 11.549 13.9587H11.5494ZM11.5965 14.022C11.6136 14.0515 11.6227 14.0701 11.5965 14.022V14.022ZM11.6913 14.1003H11.6937C11.6937 14.1032 11.698 14.106 11.6996 14.1088C11.697 14.1057 11.6941 14.1029 11.6909 14.1003H11.6913ZM28.2838 13.9833C28.1062 14.1552 27.8386 14.2351 27.5742 14.2751C24.6087 14.7231 21.6 14.9499 18.6019 14.8498C16.4563 14.7751 14.3333 14.5326 12.2091 14.2271C12.0009 14.1972 11.7753 14.1584 11.6322 14.0023C11.3626 13.7076 11.4951 13.1144 11.5652 12.7584C11.6295 12.4323 11.7524 11.9976 12.1334 11.9512C12.728 11.8802 13.4187 12.1356 14.007 12.2265C14.7153 12.3365 15.4263 12.4246 16.1399 12.4908C19.1855 12.7733 22.2823 12.7293 25.3144 12.3161C25.867 12.2404 26.4177 12.1526 26.9664 12.0525C27.4553 11.9633 27.9972 11.7958 28.2926 12.3112C28.4952 12.6623 28.5221 13.1321 28.4908 13.5288C28.4811 13.7017 28.407 13.8643 28.2835 13.9833H28.2838Z" fill="#E8E8E8"/>
</g>
<rect x="1.06074" y="1.04998" width="37.9" height="37.9" rx="6.95" stroke="white" stroke-opacity="0.15" stroke-width="2.1"/>
<defs>
<filter id="filter0_d_2_2120" x="2.01074" y="0.99997" width="36" height="38" filterUnits="userSpaceOnUse" color-interpolation-filters="sRGB">
<feFlood flood-opacity="0" result="BackgroundImageFix"/>
<feColorMatrix in="SourceAlpha" type="matrix" values="0 0 0 0 0 0 0 0 0 0 0 0 0 0 0 0 0 0 127 0" result="hardAlpha"/>
<feOffset/>
<feGaussianBlur stdDeviation="2"/>
<feComposite in2="hardAlpha" operator="out"/>
<feColorMatrix type="matrix" values="0 0 0 0 0 0 0 0 0 0 0 0 0 0 0 0 0 0 0.25 0"/>
<feBlend mode="normal" in2="BackgroundImageFix" result="effect1_dropShadow_2_2120"/>
<feBlend mode="normal" in="SourceGraphic" in2="effect1_dropShadow_2_2120" result="shape"/>
</filter>
<linearGradient id="paint0_linear_2_2120" x1="20.0107" y1="-1.52588e-05" x2="20.0107" y2="40" gradientUnits="userSpaceOnUse">
<stop stop-color="#372E00"/>
<stop offset="1" stop-color="#1E1900"/>
</linearGradient>
</defs>
</svg>
