<svg width="41" height="40" viewBox="0 0 41 40" fill="none" xmlns="http://www.w3.org/2000/svg">
<rect x="0.0107422" y="-6.10352e-05" width="40" height="40" rx="8" fill="url(#paint0_linear_2_2225)"/>
<g filter="url(#filter0_d_2_2225)">
<path d="M21.0794 19.2045V16.4318H30.1021C30.1082 16.4318 30.1139 16.4342 30.1182 16.4385C30.1225 16.4427 30.1249 16.4485 30.1249 16.4545V19.1818C30.1249 19.1878 30.1225 19.1936 30.1182 19.1979C30.1139 19.2021 30.1082 19.2045 30.1021 19.2045H21.0794ZM10.7612 12.0909C10.7612 12.8953 10.9804 13.6491 11.3622 14.2955H9.92032C9.34769 14.2955 8.79852 14.5229 8.39361 14.9278C7.98871 15.3327 7.76123 15.8819 7.76123 16.4545V19.1818C7.76123 19.9862 8.20141 20.6865 8.85214 21.0587V30.0909C8.85214 31.2828 9.81934 32.25 11.0112 32.25H29.0112C29.5839 32.25 30.133 32.0225 30.5379 31.6176C30.9428 31.2127 31.1703 30.6635 31.1703 30.0909V21.0589C31.8213 20.6873 32.2612 19.9859 32.2612 19.1818V16.4545C32.2612 15.8819 32.0337 15.3327 31.6288 14.9278C31.2239 14.5229 30.6748 14.2955 30.1021 14.2955H28.6598C28.9855 13.743 29.1857 13.1234 29.2437 12.4807C29.3161 11.6778 29.1635 10.8706 28.8029 10.1496C28.4424 9.42854 27.8882 8.82213 27.2025 8.39831C26.5167 7.97449 25.7265 7.75 24.9203 7.75C23.3385 7.75 21.2547 8.66616 20.0112 10.8543C18.7676 8.66614 16.6829 7.75 15.1021 7.75C13.9509 7.75 12.8467 8.20734 12.0327 9.02142C11.2186 9.8355 10.7612 10.9396 10.7612 12.0909ZM15.1021 9.88636C16.1994 9.88636 18.4908 10.8368 18.8847 14.2955H15.1021C14.5175 14.2955 13.9567 14.0632 13.5433 13.6498C13.1299 13.2363 12.8976 12.6756 12.8976 12.0909C12.8976 11.5062 13.1299 10.9455 13.5433 10.5321C13.9567 10.1186 14.5175 9.88636 15.1021 9.88636ZM29.034 21.3409V30.0909C29.034 30.0969 29.0316 30.1027 29.0273 30.107C29.023 30.1112 29.0173 30.1136 29.0112 30.1136H21.0794V21.3409H29.034ZM18.943 21.3409V30.1136H11.0112C10.9988 30.1136 10.9885 30.1034 10.9885 30.0909V21.3409H18.943ZM18.943 16.4318V19.2045H9.92032C9.90785 19.2045 9.89759 19.1943 9.89759 19.1818V16.4545C9.89759 16.4485 9.89999 16.4427 9.90425 16.4385L9.72747 16.2617L9.90425 16.4385C9.90851 16.4342 9.91429 16.4318 9.92032 16.4318H18.943ZM27.1249 12.0909C27.1249 12.6756 26.8926 13.2363 26.4792 13.6498C26.0657 14.0632 25.505 14.2955 24.9203 14.2955H21.1378C21.5317 10.8368 23.823 9.88636 24.9203 9.88636C25.505 9.88636 26.0657 10.1186 26.4792 10.5321C26.8926 10.9455 27.1249 11.5062 27.1249 12.0909Z" fill="white" stroke="white" stroke-width="0.5"/>
</g>
<rect x="1.06074" y="1.04994" width="37.9" height="37.9" rx="6.95" stroke="white" stroke-opacity="0.15" stroke-width="2.1"/>
<defs>
<filter id="filter0_d_2_2225" x="2.01074" y="1.99994" width="36" height="36" filterUnits="userSpaceOnUse" color-interpolation-filters="sRGB">
<feFlood flood-opacity="0" result="BackgroundImageFix"/>
<feColorMatrix in="SourceAlpha" type="matrix" values="0 0 0 0 0 0 0 0 0 0 0 0 0 0 0 0 0 0 127 0" result="hardAlpha"/>
<feOffset/>
<feGaussianBlur stdDeviation="2"/>
<feComposite in2="hardAlpha" operator="out"/>
<feColorMatrix type="matrix" values="0 0 0 0 0 0 0 0 0 0 0 0 0 0 0 0 0 0 0.25 0"/>
<feBlend mode="normal" in2="BackgroundImageFix" result="effect1_dropShadow_2_2225"/>
<feBlend mode="normal" in="SourceGraphic" in2="effect1_dropShadow_2_2225" result="shape"/>
</filter>
<linearGradient id="paint0_linear_2_2225" x1="20.0107" y1="-6.10351e-05" x2="20.0107" y2="39.9999" gradientUnits="userSpaceOnUse">
<stop stop-color="#2D2D2D"/>
<stop offset="1" stop-color="#222222"/>
</linearGradient>
</defs>
</svg>
