<svg width="41" height="40" viewBox="0 0 41 40" fill="none" xmlns="http://www.w3.org/2000/svg">
<g clip-path="url(#clip0_2_2140)">
<rect x="0.0107422" y="-2.28882e-05" width="40" height="40" rx="8" fill="url(#paint0_linear_2_2140)"/>
<g filter="url(#filter0_d_2_2140)">
<rect x="8.78857" y="12.2222" width="15.5556" height="14.4444" fill="#FF5E5B"/>
<path d="M36.4115 16.0071C35.4094 10.6644 30.1128 10 30.1128 10H6.39223C5.60928 10 5.51206 11.0437 5.51206 11.0437C5.51206 11.0437 5.40576 20.6225 5.48354 26.5054C5.69613 29.6756 8.83572 30 8.83572 30C8.83572 30 19.5521 29.9699 24.347 29.9359C27.5073 29.3788 27.8249 26.5799 27.7925 25.0523C33.4339 25.3662 37.4135 21.3497 36.4115 16.0071V16.0071ZM22.072 20.599C20.4569 22.4993 16.8726 25.7991 16.8726 25.7991C16.8726 25.7991 16.7158 25.9547 16.4708 25.8292C16.3723 25.7546 16.3308 25.7115 16.3308 25.7115C15.7566 25.1347 11.9649 21.7238 11.1016 20.5402C10.1825 19.2781 9.75219 17.0089 10.9837 15.6879C12.2164 14.367 14.879 14.2676 16.6393 16.2202C16.6393 16.2202 18.668 13.8896 21.1348 14.9608C23.6029 16.0332 23.5096 18.8988 22.072 20.599V20.599ZM30.074 21.2242C28.871 21.3759 27.8936 21.2608 27.8936 21.2608V13.8308H30.188C30.188 13.8308 32.743 14.5514 32.743 17.2809C32.743 19.7829 31.4662 20.769 30.074 21.2242V21.2242Z" fill="white"/>
</g>
</g>
<rect x="1.06074" y="1.04998" width="37.9" height="37.9" rx="6.95" stroke="white" stroke-opacity="0.15" stroke-width="2.1"/>
<defs>
<filter id="filter0_d_2_2140" x="1.45508" y="1.99998" width="39.1113" height="36" filterUnits="userSpaceOnUse" color-interpolation-filters="sRGB">
<feFlood flood-opacity="0" result="BackgroundImageFix"/>
<feColorMatrix in="SourceAlpha" type="matrix" values="0 0 0 0 0 0 0 0 0 0 0 0 0 0 0 0 0 0 127 0" result="hardAlpha"/>
<feOffset/>
<feGaussianBlur stdDeviation="2"/>
<feComposite in2="hardAlpha" operator="out"/>
<feColorMatrix type="matrix" values="0 0 0 0 0 0 0 0 0 0 0 0 0 0 0 0 0 0 0.25 0"/>
<feBlend mode="normal" in2="BackgroundImageFix" result="effect1_dropShadow_2_2140"/>
<feBlend mode="normal" in="SourceGraphic" in2="effect1_dropShadow_2_2140" result="shape"/>
</filter>
<linearGradient id="paint0_linear_2_2140" x1="20.0107" y1="-2.28882e-05" x2="20.0107" y2="40" gradientUnits="userSpaceOnUse">
<stop stop-color="#002634"/>
<stop offset="1" stop-color="#00161F"/>
</linearGradient>
<clipPath id="clip0_2_2140">
<rect x="0.0107422" y="-2.28882e-05" width="40" height="40" rx="8" fill="white"/>
</clipPath>
</defs>
</svg>
