<svg width="40" height="40" viewBox="0 0 40 40" fill="none" xmlns="http://www.w3.org/2000/svg">
<rect width="40" height="40" rx="8" fill="url(#paint0_linear_1_68)"/>
<g clip-path="url(#clip0_1_68)">
<path d="M14.6989 13.1706L13.5699 11.6819L13.168 9.41035L12.8739 7.48368L11.5006 6.49119L9.87415 6.89811L9.28238 9.08407L9.81088 11.3854L10.2711 12.5181L11.1942 13.3592L11.8914 13.8331L12.6928 14.2239L13.297 14.4596L13.168 14.9497L9.15708 20.6118L7.94129 22.7208L7.2664 24.6413L7.62865 25.3274L8.44497 25.2653L8.6931 25.5234L7.89414 28.0381L8.24275 29.2886L8.739 29.7266L9.77739 30.4709L10.6458 30.9672L11.3505 31.0726L11.8604 31.9013L12.7821 32.9497L13.6853 33.4347L14.6034 33.6829L15.808 33.5724C15.808 33.5724 17.1106 33.2772 17.1342 33.2672C17.1578 33.2573 18.1527 32.6879 18.1527 32.6879L18.4877 32.1916L19.6353 31.9683L20.887 32.0924L22.0036 32.2822L23.0085 33.0452L25.641 33.3863L27.095 32.6544L27.8394 32.147L28.2897 31.3716L28.8009 30.9126L30.2511 30.4808L31.9012 29.141L32.2857 27.9004L31.9905 26.8235L31.5898 25.7678L31.7374 25.2715L32.6058 25.4216L32.88 24.9018L32.0761 22.7072L29.6569 18.7757L27.3109 15.529L26.6559 14.8765L26.9313 14.4385L28.3282 13.8803L29.6482 12.8679L30.4112 11.3792L30.7412 9.79493L30.6308 8.17346L30.0601 6.8336L29.0676 6.37334L27.6099 6.76909L26.93 7.7988L26.7427 9.51332L26.5852 11.1261L25.8408 12.8146L25.3445 13.1719L24.254 13.1297L22.5966 12.7674L20.4181 12.554L17.6143 12.7166L15.344 13.3542L14.6989 13.1756" fill="#FFA401"/>
<path d="M18.608 25.1226L18.6229 25.8794L19.17 26.9798L19.5769 27.3768L20.2109 27.486L20.918 27.2019L21.2369 26.7156L21.4242 25.7653L21.6537 25.3968L21.2369 24.9626L20.3052 24.351H19.7134L19.4181 24.8051L18.608 25.1226Z" fill="#E56467"/>
<path d="M19.9677 22.6079C22.2247 22.6079 24.0543 21.7642 24.0543 20.7235C24.0543 19.6827 22.2247 18.839 19.9677 18.839C17.7108 18.839 15.8812 19.6827 15.8812 20.7235C15.8812 21.7642 17.7108 22.6079 19.9677 22.6079Z" fill="#A585DB"/>
<path d="M15.5661 13.2376C15.5661 13.2376 23.532 13.9435 24.1498 13.5155C24.7677 13.0875 22.4638 12.8605 22.4638 12.8605L17.4878 12.8046L15.4618 13.1669" fill="#FFC25F"/>
<path d="M27.4436 7.02465C27.4436 7.02465 29.4286 6.24803 29.5651 8.13251C29.6521 9.27259 29.8677 10.3992 30.2077 11.4908L30.4211 9.70064L30.534 8.60891L30.2921 7.61642L29.6308 6.65371L28.4411 6.43412L27.4436 7.02465Z" fill="#FFC25F"/>
<path d="M9.81833 7.14003C9.81833 7.14003 11.8877 7.14003 11.9509 10.1175C12.0142 13.0949 14.0426 12.7166 14.0426 12.7166L13.4818 11.7377L13.2697 10.6212L13.1456 9.13244L13.0079 8.18462L12.8467 7.31619L12.3157 6.81995L11.178 6.39318L10.2873 6.69961" fill="#FFC25F"/>
<path d="M30.1271 19.592C30.1271 19.592 31.7796 25.0705 32.2981 25.2604C32.8167 25.4502 32.6368 24.7331 32.6368 24.7331L32.2733 23.5099" fill="#FFC25F"/>
<path d="M25.4326 27.7279C25.4326 27.7279 28.2674 29.3296 28.322 30.5329C28.3766 31.7363 27.8555 28.4115 27.8555 28.4115L27.038 27.7279L26.5244 27.6188H25.5902" fill="#FFC25F"/>
<path d="M15.447 28.4053C15.447 28.4053 16.5945 28.4921 16.7136 29.3792C16.8327 30.2662 18.7643 30.3717 18.8512 30.992C18.938 31.6123 19.0063 30.1632 19.0063 30.1632L18.4716 29.4946L17.8934 29.1149L17.226 29.4871L16.9196 28.6956L16.7136 28.2118L15.447 28.4053Z" fill="#FFC25F"/>
<path d="M11.6532 29.5293C11.6532 29.5293 12.8256 33.168 15.5648 33.3677C18.3041 33.5675 13.7126 33.5365 13.7126 33.5365L12.2809 32.4658C12.2809 32.4658 11.6817 31.7587 11.6532 31.7128C11.6247 31.6669 11.0205 30.9386 11.0205 30.9386L9.64712 30.4126L8.20553 29.3147" fill="#D88B0F"/>
<path d="M20.6811 30.7897L18.7693 31.5726V32.0477L20.8324 32.0366L21.0545 31.5912L20.6017 30.7897" fill="#D88B0F"/>
<path d="M28.3927 29.662L30.6742 29.7774L29.7202 30.8443L28.3257 30.9287L28.4572 29.8618" fill="#D88B0F"/>
<path d="M20.8076 30.2948C20.8076 30.2948 23.5506 33.0998 24.7776 33.2226C26.0045 33.3454 23.1896 33.0849 23.1896 33.0849L22.3733 32.5961L21.4192 31.9758L20.7989 31.4175L20.4032 30.5106" fill="#D88B0F"/>
<path d="M17.8227 25.5221C17.8227 25.5221 18.5026 27.7875 19.2718 27.8346C20.0409 27.8818 19.9466 27.5108 19.9466 27.5108L18.8834 26.6784L18.5113 25.8472L18.2817 25.3968L17.6242 25.4353" fill="#D88B0F"/>
<path d="M26.2006 11.9784C26.2006 11.9784 27.2613 13.5254 26.4301 13.5416C25.5989 13.5577 25.1386 12.9312 25.1634 12.9213C25.1882 12.9113 25.6299 12.6533 25.6299 12.6533L25.9946 12.2948L26.1447 11.8357" fill="#D88B0F"/>
<path d="M9.28238 9.08406C9.28238 9.08406 11.2736 12.9473 12.3839 13.2488C13.4942 13.5503 13.1283 14.3939 13.1283 14.3939L11.7214 13.8976L10.7686 13.2897L9.99325 12.4349L9.34441 10.8556L9.28238 9.70312V9.08406Z" fill="#D88B0F"/>
<path d="M11.518 17.0264C11.518 17.0264 8.44373 23.8882 8.62858 24.9663C8.81343 26.0444 8.3023 25.2033 8.3023 25.2033L7.7403 25.3906L7.12 24.7393L7.27756 23.882L8.02192 22.2568L9.84934 19.3116" fill="#D88B0F"/>
<path d="M8.67448 25.2058C8.67448 25.2058 8.65959 28.6795 9.52554 28.9276C10.3915 29.1757 11.7822 29.1968 11.7822 29.1968L10.8778 30.2898C10.8778 30.2898 9.80095 29.7935 9.69426 29.7725C9.58757 29.7514 8.49087 29.3097 8.49087 29.3097L7.83335 28.7651L7.74402 28.3619" fill="#D88B0F"/>
<path d="M10.7103 25.8248L10.1086 27.0443" stroke="#F4E977" stroke-width="1.41784" stroke-miterlimit="10" stroke-linecap="round"/>
<path d="M12.1023 26.073L11.5006 27.2925" stroke="#F4E977" stroke-width="1.41784" stroke-miterlimit="10" stroke-linecap="round"/>
<path d="M27.327 25.6598L28.2141 27.4575" stroke="#F4E977" stroke-width="1.41784" stroke-miterlimit="10" stroke-linecap="round"/>
<path d="M28.8331 25.3174L29.7202 27.1151" stroke="#F4E977" stroke-width="1.41784" stroke-miterlimit="10" stroke-linecap="round"/>
<path d="M14.9582 28.9747C14.9582 28.9747 15.0686 27.8036 13.6431 27.7242C12.2177 27.6448 11.1259 29.8618 11.5552 31.3828C11.9844 32.9037 13.725 33.5997 14.6914 33.632C15.6579 33.6642 18.0647 33.3144 18.9095 31.5403C19.7544 29.7662 17.69 28.4847 17.1516 29.4821C17.1516 29.4821 17.1516 28.1038 16.2955 28.0095C15.4395 27.9153 14.9582 28.9747 14.9582 28.9747Z" stroke="#232323" stroke-width="0.886149" stroke-linecap="round" stroke-linejoin="round"/>
<path d="M24.8297 28.7105C24.8297 28.7105 24.7193 27.5381 26.1447 27.4587C27.5702 27.3793 28.6619 29.5975 28.2352 31.1173C27.8084 32.637 26.0653 33.3342 25.0989 33.3665C24.1325 33.3988 21.7257 33.0501 20.8808 31.2761C20.036 29.502 22.1003 28.2242 22.6375 29.2167C22.6375 29.2167 22.6375 27.8396 23.4935 27.7441C24.3496 27.6485 24.8297 28.7105 24.8297 28.7105Z" stroke="#232323" stroke-width="0.886149" stroke-linecap="round" stroke-linejoin="round"/>
<path d="M18.7693 31.977L21.1612 31.9038" stroke="#232323" stroke-width="0.886149" stroke-linecap="round" stroke-linejoin="round"/>
<path d="M17.4023 20.2075C17.9072 18.4149 17.0879 16.6157 15.5723 16.1889C14.0568 15.762 12.4189 16.8691 11.914 18.6617C11.4092 20.4542 12.2285 22.2534 13.744 22.6803C15.2596 23.1071 16.8975 22 17.4023 20.2075Z" fill="white" stroke="#232323" stroke-width="0.886149" stroke-linecap="round" stroke-linejoin="round"/>
<path d="M25.9125 22.5262C27.4241 22.1011 28.2418 20.3072 27.739 18.5194C27.2362 16.7316 25.6032 15.6269 24.0917 16.052C22.5801 16.4772 21.7624 18.2711 22.2652 20.0589C22.768 21.8467 24.401 22.9514 25.9125 22.5262Z" fill="white" stroke="#232323" stroke-width="0.883709" stroke-linecap="round" stroke-linejoin="round"/>
<path d="M16.009 21.2681C16.7551 21.2681 17.36 20.2611 17.36 19.0189C17.36 17.7766 16.7551 16.7696 16.009 16.7696C15.2628 16.7696 14.6579 17.7766 14.6579 19.0189C14.6579 20.2611 15.2628 21.2681 16.009 21.2681Z" fill="#232323"/>
<path d="M23.7293 21.2681C24.4754 21.2681 25.0803 20.2611 25.0803 19.0189C25.0803 17.7766 24.4754 16.7696 23.7293 16.7696C22.9831 16.7696 22.3782 17.7766 22.3782 19.0189C22.3782 20.2611 22.9831 21.2681 23.7293 21.2681Z" fill="#232323"/>
<path d="M22.4862 21.9033C22.4862 22.5471 21.3386 23.0682 19.9231 23.0682C19.363 23.0755 18.806 22.9835 18.278 22.7965C17.7173 22.5831 17.36 22.2618 17.36 21.9033C17.36 21.2606 18.5075 20.7396 19.9231 20.7396C21.3386 20.7396 22.4862 21.2606 22.4862 21.9033Z" fill="#232323"/>
<path d="M19.9231 23.9068C20.6494 23.9068 21.2381 23.4886 21.2381 22.9727C21.2381 22.4567 20.6494 22.0385 19.9231 22.0385C19.1968 22.0385 18.608 22.4567 18.608 22.9727C18.608 23.4886 19.1968 23.9068 19.9231 23.9068Z" fill="#232323"/>
<path d="M16.1566 24.1922C16.1566 24.1922 16.7062 24.2455 17.2657 23.5905" stroke="#232323" stroke-width="0.886149" stroke-linecap="round" stroke-linejoin="round"/>
<path d="M22.6288 23.5905C22.6288 23.5905 23.4315 24.1078 23.9067 24.0123" stroke="#232323" stroke-width="0.886149" stroke-linecap="round" stroke-linejoin="round"/>
<path d="M16.8402 23.9701C16.8402 23.9701 17.1962 25.3646 17.8463 25.3559C18.4964 25.3472 19.9913 24.3882 20.0397 23.8076" stroke="#232323" stroke-width="0.886149" stroke-linecap="round" stroke-linejoin="round"/>
<path d="M23.2678 23.9106C23.2678 23.9106 23.1114 25.372 22.3795 25.3993C21.6475 25.4266 20.1464 24.6785 20.0397 23.753" stroke="#232323" stroke-width="0.886149" stroke-linecap="round" stroke-linejoin="round"/>
<path d="M18.4244 25.2058C18.4244 25.2058 18.9393 27.5418 20.0372 27.5096C21.1351 27.4773 21.65 25.2566 21.65 25.2566" stroke="#232323" stroke-width="0.886149" stroke-linecap="round" stroke-linejoin="round"/>
<path d="M14.4086 15.4658C14.4086 15.4658 15.5971 14.4199 16.5176 14.5316" stroke="#232323" stroke-width="0.886149" stroke-linecap="round" stroke-linejoin="round"/>
<path d="M24.7825 15.2846C24.7825 15.2846 23.5953 14.2388 22.6735 14.3504" stroke="#232323" stroke-width="0.886149" stroke-linecap="round" stroke-linejoin="round"/>
<path d="M18.9653 15.9781C18.9653 15.9781 19.0236 16.5054 18.6093 17.3192" stroke="#232323" stroke-width="0.886149" stroke-linecap="round" stroke-linejoin="round"/>
<path d="M20.7989 15.9781C20.7989 15.9781 20.7406 16.5054 21.155 17.3192" stroke="#232323" stroke-width="0.886149" stroke-linecap="round" stroke-linejoin="round"/>
<path d="M19.8809 15.9099V17.3899" stroke="#232323" stroke-width="0.886149" stroke-linecap="round" stroke-linejoin="round"/>
<path d="M28.3493 31.018C29.4658 31.0515 30.8404 29.9734 31.5749 29.3147C31.7579 29.1485 31.8944 28.9376 31.9712 28.7027C32.048 28.4678 32.0623 28.2169 32.0128 27.9748C31.7647 26.7342 31.0464 25.0631 31.0464 25.0631C36.4629 27.1858 26.3693 14.405 26.3693 14.405C27.8791 14.436 29.4944 13.0404 30.2152 11.4908C30.936 9.94132 30.9223 6.24802 28.6098 6.40434C26.2973 6.56066 26.7812 9.32101 26.4164 11.2526C26.0517 13.1843 24.7218 13.2488 24.7218 13.2488C24.7218 13.2488 19.9888 11.5219 15.0537 13.2488C15.0537 13.2488 13.7225 13.1855 13.359 11.2526C12.9955 9.31977 13.4831 6.56562 11.1731 6.40682C8.86306 6.24802 8.85065 9.93883 9.57021 11.4908C10.2898 13.0428 11.9038 14.436 13.4161 14.405C13.4161 14.405 3.3225 27.1833 8.739 25.0631C8.739 25.0631 8.02193 26.7379 7.77256 27.9748C7.72243 28.2165 7.73598 28.4671 7.81189 28.702C7.88779 28.9369 8.02344 29.148 8.20554 29.3147C8.93501 29.9734 10.3034 31.0515 11.4311 31.018" stroke="#232323" stroke-width="0.886149" stroke-linecap="round" stroke-linejoin="round"/>
</g>
<rect x="1.05" y="1.05" width="37.9" height="37.9" rx="6.95" stroke="white" stroke-opacity="0.15" stroke-width="2.1"/>
<defs>
<linearGradient id="paint0_linear_1_68" x1="20" y1="0" x2="20" y2="40" gradientUnits="userSpaceOnUse">
<stop stop-color="#AA6D00"/>
<stop offset="1" stop-color="#5D3B00"/>
</linearGradient>
<clipPath id="clip0_1_68">
<rect width="28" height="28" fill="white" transform="translate(6 6)"/>
</clipPath>
</defs>
</svg>
