<svg width="139" height="40" viewBox="0 0 139 40" fill="none" xmlns="http://www.w3.org/2000/svg">
<rect x="-0.000244141" y="-6.10352e-05" width="139" height="40" rx="6" fill="url(#paint0_linear_18_3477)"/>
<g filter="url(#filter0_d_18_3477)">
<path d="M16.7379 14.2075C16.7379 14.2075 16.7596 17.3251 18.343 20.5494C19.9697 23.6531 22.2126 25.6468 24.0629 26.4409C25.9748 25.5374 27.8216 23.9691 28.8295 22.2792H23.581C22.223 21.1414 21.1544 19.2536 20.9091 17.0717H36.3062C35.547 20.5798 33.9359 23.7703 32.401 25.8021C30.2707 28.6193 27.382 30.7694 24.0742 32H24.0256C18.5033 29.7755 15.5324 26.2717 13.572 22.3183C12.3145 19.7848 10.9998 15.1848 10.9998 8.99997H36.9996C37.0038 10.7417 36.888 12.4817 36.6529 14.2075H16.7379Z" fill="#F5C400"/>
</g>
<g filter="url(#filter1_d_18_3477)">
<path d="M53.5232 12.6015H52.3044C52.2576 12.3411 52.1703 12.1119 52.0427 11.914C51.9151 11.7161 51.7589 11.5481 51.574 11.4101C51.3891 11.2721 51.182 11.1679 50.9529 11.0976C50.7263 11.0273 50.4854 10.9921 50.2302 10.9921C49.7693 10.9921 49.3565 11.108 48.9919 11.3398C48.63 11.5716 48.3435 11.9114 48.1326 12.3593C47.9242 12.8072 47.8201 13.3541 47.8201 13.9999C47.8201 14.651 47.9242 15.2005 48.1326 15.6484C48.3435 16.0963 48.6313 16.4348 48.9958 16.664C49.3604 16.8932 49.7706 17.0077 50.2263 17.0077C50.4789 17.0077 50.7185 16.9739 50.9451 16.9062C51.1742 16.8359 51.3813 16.733 51.5662 16.5976C51.7511 16.4622 51.9073 16.2968 52.0349 16.1015C52.1651 15.9036 52.255 15.677 52.3044 15.4218L53.5232 15.4257C53.4581 15.8189 53.3318 16.1809 53.1443 16.5117C52.9594 16.8398 52.7211 17.1236 52.4294 17.3632C52.1404 17.6002 51.8097 17.7838 51.4373 17.914C51.0649 18.0442 50.6586 18.1093 50.2185 18.1093C49.5258 18.1093 48.9086 17.9452 48.3669 17.6171C47.8253 17.2864 47.3982 16.8137 47.0857 16.1992C46.7758 15.5846 46.6208 14.8515 46.6208 13.9999C46.6208 13.1458 46.7771 12.4127 47.0896 11.8007C47.4021 11.1861 47.8292 10.7148 48.3708 10.3867C48.9125 10.0559 49.5284 9.89056 50.2185 9.89056C50.643 9.89056 51.0388 9.95176 51.406 10.0742C51.7758 10.1939 52.1078 10.371 52.4021 10.6054C52.6964 10.8372 52.9399 11.121 53.1326 11.457C53.3253 11.7903 53.4555 12.1718 53.5232 12.6015ZM56.0417 14.4374V17.9999H54.8738V9.99994H56.0261V12.9765H56.1003C56.241 12.6536 56.4558 12.3971 56.7449 12.207C57.0339 12.0169 57.4115 11.9218 57.8777 11.9218C58.2891 11.9218 58.6485 12.0064 58.9558 12.1757C59.2657 12.345 59.5053 12.5976 59.6746 12.9335C59.8464 13.2669 59.9324 13.6835 59.9324 14.1835V17.9999H58.7644V14.3242C58.7644 13.8841 58.6511 13.5429 58.4246 13.3007C58.198 13.0559 57.8829 12.9335 57.4792 12.9335C57.2032 12.9335 56.9558 12.9921 56.7371 13.1093C56.5209 13.2265 56.3503 13.3984 56.2253 13.6249C56.1029 13.8489 56.0417 14.1197 56.0417 14.4374ZM63.2371 18.1327C62.8568 18.1327 62.5131 18.0624 62.2058 17.9218C61.8985 17.7786 61.655 17.5716 61.4753 17.3007C61.2983 17.0299 61.2097 16.6979 61.2097 16.3046C61.2097 15.9661 61.2748 15.6874 61.405 15.4687C61.5352 15.2499 61.711 15.0768 61.9324 14.9492C62.1537 14.8216 62.4011 14.7252 62.6746 14.6601C62.948 14.595 63.2266 14.5455 63.5105 14.5117C63.8699 14.47 64.1615 14.4361 64.3855 14.4101C64.6095 14.3814 64.7722 14.3359 64.8738 14.2734C64.9753 14.2109 65.0261 14.1093 65.0261 13.9687V13.9413C65.0261 13.6002 64.9298 13.3359 64.7371 13.1484C64.547 12.9609 64.2631 12.8671 63.8855 12.8671C63.4923 12.8671 63.1824 12.9544 62.9558 13.1288C62.7318 13.3007 62.5769 13.4921 62.491 13.7031L61.3933 13.4531C61.5235 13.0885 61.7136 12.7942 61.9636 12.5702C62.2162 12.3437 62.5066 12.1796 62.8347 12.0781C63.1628 11.9739 63.5079 11.9218 63.8699 11.9218C64.1095 11.9218 64.3634 11.9505 64.6316 12.0078C64.9024 12.0624 65.155 12.164 65.3894 12.3124C65.6264 12.4609 65.8204 12.6731 65.9714 12.9492C66.1225 13.2226 66.198 13.5781 66.198 14.0156V17.9999H65.0574V17.1796H65.0105C64.935 17.3307 64.8217 17.4791 64.6706 17.6249C64.5196 17.7708 64.3256 17.8919 64.0886 17.9882C63.8516 18.0846 63.5678 18.1327 63.2371 18.1327ZM63.491 17.1952C63.8139 17.1952 64.0899 17.1314 64.3191 17.0038C64.5509 16.8762 64.7266 16.7096 64.8464 16.5038C64.9688 16.2955 65.03 16.0729 65.03 15.8359V15.0624C64.9884 15.1041 64.9076 15.1432 64.7878 15.1796C64.6706 15.2135 64.5365 15.2434 64.3855 15.2695C64.2345 15.2929 64.0873 15.315 63.9441 15.3359C63.8009 15.3541 63.6811 15.3697 63.5847 15.3827C63.3581 15.4114 63.1511 15.4596 62.9636 15.5273C62.7787 15.595 62.6303 15.6926 62.5183 15.8202C62.4089 15.9452 62.3542 16.1119 62.3542 16.3202C62.3542 16.6093 62.461 16.8281 62.6746 16.9765C62.8881 17.1223 63.1602 17.1952 63.491 17.1952ZM70.5544 11.9999V12.9374H67.2771V11.9999H70.5544ZM68.156 10.5624H69.324V16.2382C69.324 16.4648 69.3578 16.6354 69.4255 16.7499C69.4932 16.8619 69.5805 16.9387 69.6872 16.9804C69.7966 17.0195 69.9151 17.039 70.0427 17.039C70.1365 17.039 70.2185 17.0325 70.2888 17.0195C70.3591 17.0064 70.4138 16.996 70.4529 16.9882L70.6638 17.9531C70.5961 17.9791 70.4997 18.0051 70.3747 18.0312C70.2497 18.0598 70.0935 18.0755 69.906 18.0781C69.5987 18.0833 69.3122 18.0286 69.0466 17.914C68.781 17.7994 68.5662 17.6223 68.4021 17.3827C68.238 17.1432 68.156 16.8424 68.156 16.4804V10.5624ZM76.0583 17.9999L74.2927 11.9999H75.4997L76.6755 16.4062H76.7341L77.9138 11.9999H79.1208L80.2927 16.3867H80.3513L81.5193 11.9999H82.7263L80.9646 17.9999H79.7732L78.5544 13.6679H78.4646L77.2458 17.9999H76.0583ZM83.8347 17.9999V11.9999H85.0027V17.9999H83.8347ZM84.4245 11.0742C84.2214 11.0742 84.0469 11.0064 83.9011 10.871C83.7579 10.733 83.6863 10.5689 83.6863 10.3788C83.6863 10.1861 83.7579 10.0221 83.9011 9.88666C84.0469 9.74864 84.2214 9.67963 84.4245 9.67963C84.6277 9.67963 84.8009 9.74864 84.9441 9.88666C85.0899 10.0221 85.1628 10.1861 85.1628 10.3788C85.1628 10.5689 85.0899 10.733 84.9441 10.871C84.8009 11.0064 84.6277 11.0742 84.4245 11.0742ZM89.3747 11.9999V12.9374H86.0974V11.9999H89.3747ZM86.9763 10.5624H88.1443V16.2382C88.1443 16.4648 88.1781 16.6354 88.2458 16.7499C88.3135 16.8619 88.4008 16.9387 88.5076 16.9804C88.6169 17.0195 88.7354 17.039 88.863 17.039C88.9568 17.039 89.0388 17.0325 89.1091 17.0195C89.1794 17.0064 89.2341 16.996 89.2732 16.9882L89.4841 17.9531C89.4164 17.9791 89.3201 18.0051 89.1951 18.0312C89.0701 18.0598 88.9138 18.0755 88.7263 18.0781C88.419 18.0833 88.1326 18.0286 87.8669 17.914C87.6013 17.7994 87.3865 17.6223 87.2224 17.3827C87.0583 17.1432 86.9763 16.8424 86.9763 16.4804V10.5624ZM91.9636 14.4374V17.9999H90.7956V9.99994H91.948V12.9765H92.0222C92.1628 12.6536 92.3777 12.3971 92.6667 12.207C92.9558 12.0169 93.3334 11.9218 93.7995 11.9218C94.211 11.9218 94.5704 12.0064 94.8777 12.1757C95.1876 12.345 95.4272 12.5976 95.5964 12.9335C95.7683 13.2669 95.8542 13.6835 95.8542 14.1835V17.9999H94.6863V14.3242C94.6863 13.8841 94.573 13.5429 94.3464 13.3007C94.1199 13.0559 93.8048 12.9335 93.4011 12.9335C93.1251 12.9335 92.8777 12.9921 92.6589 13.1093C92.4428 13.2265 92.2722 13.3984 92.1472 13.6249C92.0248 13.8489 91.9636 14.1197 91.9636 14.4374ZM104.125 15.5117V11.9999H105.297V17.9999H104.148V16.9609H104.086C103.948 17.2812 103.726 17.5481 103.422 17.7617C103.12 17.9726 102.743 18.0781 102.293 18.0781C101.907 18.0781 101.566 17.9934 101.269 17.8242C100.975 17.6523 100.743 17.3984 100.574 17.0624C100.407 16.7265 100.324 16.3111 100.324 15.8163V11.9999H101.492V15.6757C101.492 16.0846 101.605 16.4101 101.832 16.6523C102.058 16.8945 102.353 17.0156 102.715 17.0156C102.933 17.0156 103.151 16.9609 103.367 16.8515C103.586 16.7421 103.767 16.5768 103.91 16.3554C104.056 16.1341 104.127 15.8528 104.125 15.5117ZM111.362 13.4648L110.303 13.6523C110.259 13.5169 110.189 13.388 110.093 13.2656C109.999 13.1432 109.871 13.0429 109.71 12.9648C109.548 12.8867 109.346 12.8476 109.104 12.8476C108.774 12.8476 108.497 12.9218 108.276 13.0702C108.055 13.2161 107.944 13.4049 107.944 13.6367C107.944 13.8372 108.018 13.9986 108.167 14.121C108.315 14.2434 108.555 14.3437 108.885 14.4218L109.839 14.6406C110.391 14.7682 110.802 14.9648 111.073 15.2304C111.344 15.496 111.479 15.8411 111.479 16.2656C111.479 16.6249 111.375 16.9452 111.167 17.2265C110.961 17.5051 110.673 17.7239 110.303 17.8827C109.936 18.0416 109.51 18.121 109.026 18.121C108.354 18.121 107.806 17.9778 107.382 17.6913C106.957 17.4023 106.697 16.9921 106.6 16.4609L107.729 16.289C107.8 16.5833 107.944 16.8059 108.163 16.957C108.382 17.1054 108.667 17.1796 109.018 17.1796C109.401 17.1796 109.707 17.1002 109.936 16.9413C110.165 16.7799 110.28 16.5833 110.28 16.3515C110.28 16.164 110.21 16.0064 110.069 15.8788C109.931 15.7512 109.719 15.6549 109.432 15.5898L108.417 15.3671C107.857 15.2395 107.443 15.0364 107.175 14.7577C106.909 14.4791 106.776 14.1262 106.776 13.6992C106.776 13.345 106.875 13.0351 107.073 12.7695C107.271 12.5038 107.544 12.2968 107.893 12.1484C108.242 11.9973 108.642 11.9218 109.093 11.9218C109.741 11.9218 110.251 12.0624 110.624 12.3437C110.996 12.6223 111.242 12.996 111.362 13.4648ZM118.202 18.121C117.639 18.121 117.148 17.9921 116.729 17.7343C116.31 17.4765 115.984 17.1158 115.753 16.6523C115.521 16.1887 115.405 15.6471 115.405 15.0273C115.405 14.4049 115.521 13.8606 115.753 13.3945C115.984 12.9283 116.31 12.5663 116.729 12.3085C117.148 12.0507 117.639 11.9218 118.202 11.9218C118.764 11.9218 119.255 12.0507 119.675 12.3085C120.094 12.5663 120.419 12.9283 120.651 13.3945C120.883 13.8606 120.999 14.4049 120.999 15.0273C120.999 15.6471 120.883 16.1887 120.651 16.6523C120.419 17.1158 120.094 17.4765 119.675 17.7343C119.255 17.9921 118.764 18.121 118.202 18.121ZM118.206 17.1406C118.57 17.1406 118.872 17.0442 119.112 16.8515C119.352 16.6588 119.529 16.4023 119.643 16.082C119.76 15.7617 119.819 15.4088 119.819 15.0234C119.819 14.6406 119.76 14.289 119.643 13.9687C119.529 13.6458 119.352 13.3867 119.112 13.1913C118.872 12.996 118.57 12.8984 118.206 12.8984C117.839 12.8984 117.534 12.996 117.292 13.1913C117.052 13.3867 116.874 13.6458 116.757 13.9687C116.642 14.289 116.585 14.6406 116.585 15.0234C116.585 15.4088 116.642 15.7617 116.757 16.082C116.874 16.4023 117.052 16.6588 117.292 16.8515C117.534 17.0442 117.839 17.1406 118.206 17.1406ZM123.47 14.4374V17.9999H122.302V11.9999H123.424V12.9765H123.498C123.636 12.6588 123.852 12.4036 124.146 12.2109C124.443 12.0182 124.817 11.9218 125.267 11.9218C125.676 11.9218 126.034 12.0078 126.342 12.1796C126.649 12.3489 126.887 12.6015 127.056 12.9374C127.226 13.2734 127.31 13.6887 127.31 14.1835V17.9999H126.142V14.3242C126.142 13.8893 126.029 13.5494 125.802 13.3046C125.576 13.0572 125.265 12.9335 124.869 12.9335C124.598 12.9335 124.357 12.9921 124.146 13.1093C123.938 13.2265 123.773 13.3984 123.65 13.6249C123.53 13.8489 123.47 14.1197 123.47 14.4374Z" fill="#E8E8E8"/>
<path d="M52.3875 25.1235C52.3392 24.9445 52.2682 24.7869 52.1745 24.6505C52.0807 24.5113 51.9657 24.3934 51.8293 24.2968C51.6929 24.2002 51.5367 24.1278 51.3605 24.0795C51.1844 24.0283 50.9912 24.0028 50.781 24.0028C50.3577 24.0028 49.9912 24.1051 49.6816 24.3096C49.3748 24.5141 49.1375 24.8124 48.9699 25.2045C48.8023 25.5937 48.7185 26.0667 48.7185 26.6235C48.7185 27.1832 48.7995 27.6604 48.9614 28.0553C49.1233 28.4502 49.3577 28.7514 49.6645 28.9587C49.9713 29.1661 50.3435 29.2698 50.781 29.2698C51.1674 29.2698 51.4941 29.2073 51.7611 29.0823C52.031 28.9545 52.2355 28.7741 52.3748 28.5411C52.514 28.3082 52.5836 28.034 52.5836 27.7187L52.9756 27.7656H50.8534V26.2272H54.6162V27.382C54.6162 28.1633 54.45 28.8323 54.1177 29.3891C53.7881 29.946 53.3336 30.3735 52.754 30.6718C52.1773 30.9701 51.514 31.1193 50.764 31.1193C49.9316 31.1193 49.2 30.9389 48.5694 30.5781C47.9387 30.2173 47.4472 29.7031 47.0949 29.0354C46.7427 28.365 46.5665 27.5695 46.5665 26.6491C46.5665 25.9332 46.6731 25.2982 46.8861 24.7443C47.0992 24.1874 47.3961 23.7158 47.7767 23.3295C48.1603 22.9431 48.6034 22.6505 49.1063 22.4516C49.612 22.2528 50.156 22.1533 50.7384 22.1533C51.2441 22.1533 51.7142 22.2258 52.1489 22.3707C52.5864 22.5156 52.9728 22.7201 53.308 22.9843C53.6461 23.2485 53.9202 23.5624 54.1304 23.9261C54.3407 24.2897 54.4713 24.6889 54.5225 25.1235H52.3875ZM60.0825 28.1747V24.4545H62.162V30.9999H60.1762V29.7812H60.1081C59.9632 30.1818 59.716 30.4999 59.3666 30.7357C59.02 30.9687 58.601 31.0852 58.1095 31.0852C57.6635 31.0852 57.2714 30.9829 56.9333 30.7783C56.5953 30.5738 56.3325 30.2883 56.145 29.9218C55.9575 29.5525 55.8623 29.1207 55.8595 28.6264V24.4545H57.9433V28.2173C57.9461 28.5724 58.0399 28.8522 58.2245 29.0568C58.4092 29.2613 58.6606 29.3636 58.9788 29.3636C59.1862 29.3636 59.3723 29.3181 59.537 29.2272C59.7047 29.1335 59.8368 28.9985 59.9333 28.8224C60.0328 28.6434 60.0825 28.4275 60.0825 28.1747ZM63.4884 30.9999V24.4545H65.5722V30.9999H63.4884ZM64.5324 23.6917C64.2398 23.6917 63.9884 23.5951 63.7782 23.4019C63.5679 23.2059 63.4628 22.9701 63.4628 22.6945C63.4628 22.4218 63.5679 22.1889 63.7782 21.9957C63.9884 21.7997 64.2398 21.7016 64.5324 21.7016C64.8279 21.7016 65.0793 21.7997 65.2867 21.9957C65.4969 22.1889 65.602 22.4218 65.602 22.6945C65.602 22.9701 65.4969 23.2059 65.2867 23.4019C65.0793 23.5951 64.8279 23.6917 64.5324 23.6917ZM68.9823 22.2727V30.9999H66.8985V22.2727H68.9823ZM72.6993 31.0937C72.2164 31.0937 71.7774 30.9687 71.3826 30.7187C70.9877 30.4687 70.6723 30.0937 70.4365 29.5937C70.2007 29.0937 70.0828 28.4729 70.0828 27.7315C70.0828 26.9616 70.205 26.3281 70.4493 25.8309C70.6936 25.3337 71.0132 24.9658 71.4081 24.7272C71.8059 24.4886 72.2334 24.3693 72.6908 24.3693C73.0345 24.3693 73.3286 24.4289 73.5729 24.5482C73.8172 24.6647 74.0189 24.8153 74.178 24.9999C74.3371 25.1846 74.4578 25.3764 74.5402 25.5752H74.5828V22.2727H76.6667V30.9999H74.6042V29.9389H74.5402C74.4522 30.1406 74.3272 30.3295 74.1652 30.5056C74.0033 30.6818 73.8002 30.8238 73.5559 30.9318C73.3144 31.0397 73.0289 31.0937 72.6993 31.0937ZM73.4238 29.4701C73.6766 29.4701 73.8925 29.3991 74.0715 29.257C74.2505 29.1122 74.3882 28.909 74.4848 28.6477C74.5814 28.3863 74.6297 28.0795 74.6297 27.7272C74.6297 27.3693 74.5814 27.061 74.4848 26.8025C74.3911 26.544 74.2533 26.3451 74.0715 26.2059C73.8925 26.0667 73.6766 25.9971 73.4238 25.9971C73.1652 25.9971 72.9465 26.0681 72.7675 26.2102C72.5885 26.3522 72.4522 26.5525 72.3584 26.811C72.2675 27.0695 72.222 27.3749 72.222 27.7272C72.222 28.0795 72.2689 28.3863 72.3627 28.6477C72.4564 28.909 72.5914 29.1122 72.7675 29.257C72.9465 29.3991 73.1652 29.4701 73.4238 29.4701ZM81.0441 31.1235C80.3595 31.1235 79.7686 30.9886 79.2714 30.7187C78.7771 30.446 78.3964 30.0582 78.1294 29.5553C77.8652 29.0497 77.7331 28.4488 77.7331 27.7528C77.7331 27.0766 77.8666 26.4857 78.1336 25.9801C78.4007 25.4715 78.7771 25.0766 79.2629 24.7954C79.7487 24.5113 80.3211 24.3693 80.9802 24.3693C81.4461 24.3693 81.8723 24.4417 82.2586 24.5866C82.645 24.7315 82.9788 24.946 83.26 25.2301C83.5413 25.5141 83.76 25.865 83.9163 26.2826C84.0725 26.6974 84.1507 27.1732 84.1507 27.7102V28.2301H78.4617V27.0198H82.2117C82.2089 26.7982 82.1564 26.6008 82.0541 26.4275C81.9518 26.2542 81.8112 26.1193 81.6322 26.0227C81.4561 25.9232 81.2529 25.8735 81.0228 25.8735C80.7899 25.8735 80.5811 25.9261 80.3964 26.0312C80.2117 26.1335 80.0654 26.2741 79.9575 26.4531C79.8495 26.6292 79.7927 26.8295 79.787 27.0539V28.2854C79.787 28.5525 79.8396 28.7869 79.9447 28.9886C80.0498 29.1874 80.199 29.3423 80.3921 29.4531C80.5853 29.5639 80.8154 29.6193 81.0825 29.6193C81.2671 29.6193 81.4348 29.5937 81.5853 29.5425C81.7359 29.4914 81.8652 29.4161 81.9731 29.3167C82.0811 29.2173 82.162 29.0951 82.216 28.9502L84.1294 29.0056C84.0498 29.4346 83.8751 29.8082 83.6052 30.1264C83.3382 30.4417 82.9873 30.6874 82.5527 30.8636C82.118 31.0369 81.6152 31.1235 81.0441 31.1235ZM87.6056 31.0937C87.1226 31.0937 86.6837 30.9687 86.2888 30.7187C85.8939 30.4687 85.5786 30.0937 85.3428 29.5937C85.107 29.0937 84.9891 28.4729 84.9891 27.7315C84.9891 26.9616 85.1112 26.3281 85.3556 25.8309C85.5999 25.3337 85.9195 24.9658 86.3144 24.7272C86.7121 24.4886 87.1397 24.3693 87.597 24.3693C87.9408 24.3693 88.2348 24.4289 88.4791 24.5482C88.7235 24.6647 88.9252 24.8153 89.0843 24.9999C89.2434 25.1846 89.3641 25.3764 89.4465 25.5752H89.4891V22.2727H91.5729V30.9999H89.5104V29.9389H89.4465C89.3584 30.1406 89.2334 30.3295 89.0715 30.5056C88.9095 30.6818 88.7064 30.8238 88.4621 30.9318C88.2206 31.0397 87.9351 31.0937 87.6056 31.0937ZM88.33 29.4701C88.5828 29.4701 88.7987 29.3991 88.9777 29.257C89.1567 29.1122 89.2945 28.909 89.3911 28.6477C89.4877 28.3863 89.536 28.0795 89.536 27.7272C89.536 27.3693 89.4877 27.061 89.3911 26.8025C89.2973 26.544 89.1595 26.3451 88.9777 26.2059C88.7987 26.0667 88.5828 25.9971 88.33 25.9971C88.0715 25.9971 87.8527 26.0681 87.6737 26.2102C87.4948 26.3522 87.3584 26.5525 87.2647 26.811C87.1737 27.0695 87.1283 27.3749 87.1283 27.7272C87.1283 28.0795 87.1752 28.3863 87.2689 28.6477C87.3627 28.909 87.4976 29.1122 87.6737 29.257C87.8527 29.3991 88.0715 29.4701 88.33 29.4701Z" fill="#F5C400"/>
</g>
<rect x="0.749756" y="0.749939" width="137.5" height="38.5" rx="5.25" stroke="white" stroke-opacity="0.15" stroke-width="1.5"/>
<defs>
<filter id="filter0_d_18_3477" x="5.99976" y="1.99994" width="36" height="36" filterUnits="userSpaceOnUse" color-interpolation-filters="sRGB">
<feFlood flood-opacity="0" result="BackgroundImageFix"/>
<feColorMatrix in="SourceAlpha" type="matrix" values="0 0 0 0 0 0 0 0 0 0 0 0 0 0 0 0 0 0 127 0" result="hardAlpha"/>
<feOffset/>
<feGaussianBlur stdDeviation="2"/>
<feComposite in2="hardAlpha" operator="out"/>
<feColorMatrix type="matrix" values="0 0 0 0 0 0 0 0 0 0 0 0 0 0 0 0 0 0 0.25 0"/>
<feBlend mode="normal" in2="BackgroundImageFix" result="effect1_dropShadow_18_3477"/>
<feBlend mode="normal" in="SourceGraphic" in2="effect1_dropShadow_18_3477" result="shape"/>
</filter>
<filter id="filter1_d_18_3477" x="41.9998" y="2.99994" width="91" height="34" filterUnits="userSpaceOnUse" color-interpolation-filters="sRGB">
<feFlood flood-opacity="0" result="BackgroundImageFix"/>
<feColorMatrix in="SourceAlpha" type="matrix" values="0 0 0 0 0 0 0 0 0 0 0 0 0 0 0 0 0 0 127 0" result="hardAlpha"/>
<feOffset/>
<feGaussianBlur stdDeviation="2"/>
<feComposite in2="hardAlpha" operator="out"/>
<feColorMatrix type="matrix" values="0 0 0 0 0 0 0 0 0 0 0 0 0 0 0 0 0 0 0.25 0"/>
<feBlend mode="normal" in2="BackgroundImageFix" result="effect1_dropShadow_18_3477"/>
<feBlend mode="normal" in="SourceGraphic" in2="effect1_dropShadow_18_3477" result="shape"/>
</filter>
<linearGradient id="paint0_linear_18_3477" x1="69.4997" y1="-6.10351e-05" x2="69.4997" y2="39.9999" gradientUnits="userSpaceOnUse">
<stop stop-color="#322C16"/>
<stop offset="1" stop-color="#231F0F"/>
</linearGradient>
</defs>
</svg>
