<svg width="139" height="40" viewBox="0 0 139 40" fill="none" xmlns="http://www.w3.org/2000/svg">
<rect x="-0.000244141" y="-6.10352e-05" width="139" height="40" rx="6" fill="url(#paint0_linear_18_3462)"/>
<g filter="url(#filter0_d_18_3462)">
<path d="M15.9026 23.7006C15.9026 25.328 14.5884 26.6433 12.9623 26.6433C11.3362 26.6433 10.022 25.328 10.022 23.7006C10.022 22.0732 11.3362 20.7579 12.9623 20.7579H15.9026V23.7006ZM17.3728 23.7006C17.3728 22.0732 18.687 20.7579 20.3131 20.7579C21.9392 20.7579 23.2535 22.0732 23.2535 23.7006V31.0573C23.2535 32.6847 21.9392 33.9999 20.3131 33.9999C18.687 33.9999 17.3728 32.6847 17.3728 31.0573V23.7006Z" fill="#E01E5A"/>
<path d="M20.3132 11.8853C18.6871 11.8853 17.3729 10.57 17.3729 8.94261C17.3729 7.31523 18.6871 5.99994 20.3132 5.99994C21.9393 5.99994 23.2535 7.31523 23.2535 8.94261V11.8853H20.3132ZM20.3132 13.3789C21.9393 13.3789 23.2535 14.6942 23.2535 16.3216C23.2535 17.949 21.9393 19.2643 20.3132 19.2643H12.9401C11.314 19.2643 9.99976 17.949 9.99976 16.3216C9.99976 14.6942 11.314 13.3789 12.9401 13.3789H20.3132Z" fill="#36C5F0"/>
<path d="M32.0968 16.3216C32.0968 14.6942 33.411 13.3789 35.0371 13.3789C36.6632 13.3789 37.9775 14.6942 37.9775 16.3216C37.9775 17.949 36.6632 19.2643 35.0371 19.2643H32.0968V16.3216ZM30.6266 16.3216C30.6266 17.949 29.3124 19.2643 27.6863 19.2643C26.0602 19.2643 24.746 17.949 24.746 16.3216V8.94261C24.746 7.31523 26.0602 5.99994 27.6863 5.99994C29.3124 5.99994 30.6266 7.31523 30.6266 8.94261V16.3216V16.3216Z" fill="#2EB67D"/>
<path d="M27.6863 28.1146C29.3124 28.1146 30.6266 29.4299 30.6266 31.0573C30.6266 32.6847 29.3124 33.9999 27.6863 33.9999C26.0602 33.9999 24.746 32.6847 24.746 31.0573V28.1146H27.6863ZM27.6863 26.6433C26.0602 26.6433 24.746 25.328 24.746 23.7006C24.746 22.0732 26.0602 20.7579 27.6863 20.7579H35.0594C36.6855 20.7579 37.9998 22.0732 37.9998 23.7006C37.9998 25.328 36.6855 26.6433 35.0594 26.6433H27.6863Z" fill="#ECB22E"/>
</g>
<g filter="url(#filter1_d_18_3462)">
<path d="M53.5232 12.6015H52.3044C52.2576 12.3411 52.1703 12.1119 52.0427 11.914C51.9151 11.7161 51.7589 11.5481 51.574 11.4101C51.3891 11.2721 51.182 11.1679 50.9529 11.0976C50.7263 11.0273 50.4854 10.9921 50.2302 10.9921C49.7693 10.9921 49.3565 11.108 48.9919 11.3398C48.63 11.5716 48.3435 11.9114 48.1326 12.3593C47.9242 12.8072 47.8201 13.3541 47.8201 13.9999C47.8201 14.651 47.9242 15.2005 48.1326 15.6484C48.3435 16.0963 48.6313 16.4348 48.9958 16.664C49.3604 16.8932 49.7706 17.0077 50.2263 17.0077C50.4789 17.0077 50.7185 16.9739 50.9451 16.9062C51.1742 16.8359 51.3813 16.733 51.5662 16.5976C51.7511 16.4622 51.9073 16.2968 52.0349 16.1015C52.1651 15.9036 52.255 15.677 52.3044 15.4218L53.5232 15.4257C53.4581 15.8189 53.3318 16.1809 53.1443 16.5117C52.9594 16.8398 52.7211 17.1236 52.4294 17.3632C52.1404 17.6002 51.8097 17.7838 51.4373 17.914C51.0649 18.0442 50.6586 18.1093 50.2185 18.1093C49.5258 18.1093 48.9086 17.9452 48.3669 17.6171C47.8253 17.2864 47.3982 16.8137 47.0857 16.1992C46.7758 15.5846 46.6208 14.8515 46.6208 13.9999C46.6208 13.1458 46.7771 12.4127 47.0896 11.8007C47.4021 11.1861 47.8292 10.7148 48.3708 10.3867C48.9125 10.0559 49.5284 9.89056 50.2185 9.89056C50.643 9.89056 51.0388 9.95176 51.406 10.0742C51.7758 10.1939 52.1078 10.371 52.4021 10.6054C52.6964 10.8372 52.9399 11.121 53.1326 11.457C53.3253 11.7903 53.4555 12.1718 53.5232 12.6015ZM56.0417 14.4374V17.9999H54.8738V9.99994H56.0261V12.9765H56.1003C56.241 12.6536 56.4558 12.3971 56.7449 12.207C57.0339 12.0169 57.4115 11.9218 57.8777 11.9218C58.2891 11.9218 58.6485 12.0064 58.9558 12.1757C59.2657 12.345 59.5053 12.5976 59.6746 12.9335C59.8464 13.2669 59.9324 13.6835 59.9324 14.1835V17.9999H58.7644V14.3242C58.7644 13.8841 58.6511 13.5429 58.4246 13.3007C58.198 13.0559 57.8829 12.9335 57.4792 12.9335C57.2032 12.9335 56.9558 12.9921 56.7371 13.1093C56.5209 13.2265 56.3503 13.3984 56.2253 13.6249C56.1029 13.8489 56.0417 14.1197 56.0417 14.4374ZM63.2371 18.1327C62.8568 18.1327 62.5131 18.0624 62.2058 17.9218C61.8985 17.7786 61.655 17.5716 61.4753 17.3007C61.2983 17.0299 61.2097 16.6979 61.2097 16.3046C61.2097 15.9661 61.2748 15.6874 61.405 15.4687C61.5352 15.2499 61.711 15.0768 61.9324 14.9492C62.1537 14.8216 62.4011 14.7252 62.6746 14.6601C62.948 14.595 63.2266 14.5455 63.5105 14.5117C63.8699 14.47 64.1615 14.4361 64.3855 14.4101C64.6095 14.3814 64.7722 14.3359 64.8738 14.2734C64.9753 14.2109 65.0261 14.1093 65.0261 13.9687V13.9413C65.0261 13.6002 64.9298 13.3359 64.7371 13.1484C64.547 12.9609 64.2631 12.8671 63.8855 12.8671C63.4923 12.8671 63.1824 12.9544 62.9558 13.1288C62.7318 13.3007 62.5769 13.4921 62.491 13.7031L61.3933 13.4531C61.5235 13.0885 61.7136 12.7942 61.9636 12.5702C62.2162 12.3437 62.5066 12.1796 62.8347 12.0781C63.1628 11.9739 63.5079 11.9218 63.8699 11.9218C64.1095 11.9218 64.3634 11.9505 64.6316 12.0078C64.9024 12.0624 65.155 12.164 65.3894 12.3124C65.6264 12.4609 65.8204 12.6731 65.9714 12.9492C66.1225 13.2226 66.198 13.5781 66.198 14.0156V17.9999H65.0574V17.1796H65.0105C64.935 17.3307 64.8217 17.4791 64.6706 17.6249C64.5196 17.7708 64.3256 17.8919 64.0886 17.9882C63.8516 18.0846 63.5678 18.1327 63.2371 18.1327ZM63.491 17.1952C63.8139 17.1952 64.0899 17.1314 64.3191 17.0038C64.5509 16.8762 64.7266 16.7096 64.8464 16.5038C64.9688 16.2955 65.03 16.0729 65.03 15.8359V15.0624C64.9884 15.1041 64.9076 15.1432 64.7878 15.1796C64.6706 15.2135 64.5365 15.2434 64.3855 15.2695C64.2345 15.2929 64.0873 15.315 63.9441 15.3359C63.8009 15.3541 63.6811 15.3697 63.5847 15.3827C63.3581 15.4114 63.1511 15.4596 62.9636 15.5273C62.7787 15.595 62.6303 15.6926 62.5183 15.8202C62.4089 15.9452 62.3542 16.1119 62.3542 16.3202C62.3542 16.6093 62.461 16.8281 62.6746 16.9765C62.8881 17.1223 63.1602 17.1952 63.491 17.1952ZM70.5544 11.9999V12.9374H67.2771V11.9999H70.5544ZM68.156 10.5624H69.324V16.2382C69.324 16.4648 69.3578 16.6354 69.4255 16.7499C69.4932 16.8619 69.5805 16.9387 69.6872 16.9804C69.7966 17.0195 69.9151 17.039 70.0427 17.039C70.1365 17.039 70.2185 17.0325 70.2888 17.0195C70.3591 17.0064 70.4138 16.996 70.4529 16.9882L70.6638 17.9531C70.5961 17.9791 70.4997 18.0051 70.3747 18.0312C70.2497 18.0598 70.0935 18.0755 69.906 18.0781C69.5987 18.0833 69.3122 18.0286 69.0466 17.914C68.781 17.7994 68.5662 17.6223 68.4021 17.3827C68.238 17.1432 68.156 16.8424 68.156 16.4804V10.5624ZM76.0583 17.9999L74.2927 11.9999H75.4997L76.6755 16.4062H76.7341L77.9138 11.9999H79.1208L80.2927 16.3867H80.3513L81.5193 11.9999H82.7263L80.9646 17.9999H79.7732L78.5544 13.6679H78.4646L77.2458 17.9999H76.0583ZM83.8347 17.9999V11.9999H85.0027V17.9999H83.8347ZM84.4245 11.0742C84.2214 11.0742 84.0469 11.0064 83.9011 10.871C83.7579 10.733 83.6863 10.5689 83.6863 10.3788C83.6863 10.1861 83.7579 10.0221 83.9011 9.88666C84.0469 9.74864 84.2214 9.67963 84.4245 9.67963C84.6277 9.67963 84.8009 9.74864 84.9441 9.88666C85.0899 10.0221 85.1628 10.1861 85.1628 10.3788C85.1628 10.5689 85.0899 10.733 84.9441 10.871C84.8009 11.0064 84.6277 11.0742 84.4245 11.0742ZM89.3747 11.9999V12.9374H86.0974V11.9999H89.3747ZM86.9763 10.5624H88.1443V16.2382C88.1443 16.4648 88.1781 16.6354 88.2458 16.7499C88.3135 16.8619 88.4008 16.9387 88.5076 16.9804C88.6169 17.0195 88.7354 17.039 88.863 17.039C88.9568 17.039 89.0388 17.0325 89.1091 17.0195C89.1794 17.0064 89.2341 16.996 89.2732 16.9882L89.4841 17.9531C89.4164 17.9791 89.3201 18.0051 89.1951 18.0312C89.0701 18.0598 88.9138 18.0755 88.7263 18.0781C88.419 18.0833 88.1326 18.0286 87.8669 17.914C87.6013 17.7994 87.3865 17.6223 87.2224 17.3827C87.0583 17.1432 86.9763 16.8424 86.9763 16.4804V10.5624ZM91.9636 14.4374V17.9999H90.7956V9.99994H91.948V12.9765H92.0222C92.1628 12.6536 92.3777 12.3971 92.6667 12.207C92.9558 12.0169 93.3334 11.9218 93.7995 11.9218C94.211 11.9218 94.5704 12.0064 94.8777 12.1757C95.1876 12.345 95.4272 12.5976 95.5964 12.9335C95.7683 13.2669 95.8542 13.6835 95.8542 14.1835V17.9999H94.6863V14.3242C94.6863 13.8841 94.573 13.5429 94.3464 13.3007C94.1199 13.0559 93.8048 12.9335 93.4011 12.9335C93.1251 12.9335 92.8777 12.9921 92.6589 13.1093C92.4428 13.2265 92.2722 13.3984 92.1472 13.6249C92.0248 13.8489 91.9636 14.1197 91.9636 14.4374ZM104.125 15.5117V11.9999H105.297V17.9999H104.148V16.9609H104.086C103.948 17.2812 103.726 17.5481 103.422 17.7617C103.12 17.9726 102.743 18.0781 102.293 18.0781C101.907 18.0781 101.566 17.9934 101.269 17.8242C100.975 17.6523 100.743 17.3984 100.574 17.0624C100.407 16.7265 100.324 16.3111 100.324 15.8163V11.9999H101.492V15.6757C101.492 16.0846 101.605 16.4101 101.832 16.6523C102.058 16.8945 102.353 17.0156 102.715 17.0156C102.933 17.0156 103.151 16.9609 103.367 16.8515C103.586 16.7421 103.767 16.5768 103.91 16.3554C104.056 16.1341 104.127 15.8528 104.125 15.5117ZM111.362 13.4648L110.303 13.6523C110.259 13.5169 110.189 13.388 110.093 13.2656C109.999 13.1432 109.871 13.0429 109.71 12.9648C109.548 12.8867 109.346 12.8476 109.104 12.8476C108.774 12.8476 108.497 12.9218 108.276 13.0702C108.055 13.2161 107.944 13.4049 107.944 13.6367C107.944 13.8372 108.018 13.9986 108.167 14.121C108.315 14.2434 108.555 14.3437 108.885 14.4218L109.839 14.6406C110.391 14.7682 110.802 14.9648 111.073 15.2304C111.344 15.496 111.479 15.8411 111.479 16.2656C111.479 16.6249 111.375 16.9452 111.167 17.2265C110.961 17.5051 110.673 17.7239 110.303 17.8827C109.936 18.0416 109.51 18.121 109.026 18.121C108.354 18.121 107.806 17.9778 107.382 17.6913C106.957 17.4023 106.697 16.9921 106.6 16.4609L107.729 16.289C107.8 16.5833 107.944 16.8059 108.163 16.957C108.382 17.1054 108.667 17.1796 109.018 17.1796C109.401 17.1796 109.707 17.1002 109.936 16.9413C110.165 16.7799 110.28 16.5833 110.28 16.3515C110.28 16.164 110.21 16.0064 110.069 15.8788C109.931 15.7512 109.719 15.6549 109.432 15.5898L108.417 15.3671C107.857 15.2395 107.443 15.0364 107.175 14.7577C106.909 14.4791 106.776 14.1262 106.776 13.6992C106.776 13.345 106.875 13.0351 107.073 12.7695C107.271 12.5038 107.544 12.2968 107.893 12.1484C108.242 11.9973 108.642 11.9218 109.093 11.9218C109.741 11.9218 110.251 12.0624 110.624 12.3437C110.996 12.6223 111.242 12.996 111.362 13.4648ZM118.202 18.121C117.639 18.121 117.148 17.9921 116.729 17.7343C116.31 17.4765 115.984 17.1158 115.753 16.6523C115.521 16.1887 115.405 15.6471 115.405 15.0273C115.405 14.4049 115.521 13.8606 115.753 13.3945C115.984 12.9283 116.31 12.5663 116.729 12.3085C117.148 12.0507 117.639 11.9218 118.202 11.9218C118.764 11.9218 119.255 12.0507 119.675 12.3085C120.094 12.5663 120.419 12.9283 120.651 13.3945C120.883 13.8606 120.999 14.4049 120.999 15.0273C120.999 15.6471 120.883 16.1887 120.651 16.6523C120.419 17.1158 120.094 17.4765 119.675 17.7343C119.255 17.9921 118.764 18.121 118.202 18.121ZM118.206 17.1406C118.57 17.1406 118.872 17.0442 119.112 16.8515C119.352 16.6588 119.529 16.4023 119.643 16.082C119.76 15.7617 119.819 15.4088 119.819 15.0234C119.819 14.6406 119.76 14.289 119.643 13.9687C119.529 13.6458 119.352 13.3867 119.112 13.1913C118.872 12.996 118.57 12.8984 118.206 12.8984C117.839 12.8984 117.534 12.996 117.292 13.1913C117.052 13.3867 116.874 13.6458 116.757 13.9687C116.642 14.289 116.585 14.6406 116.585 15.0234C116.585 15.4088 116.642 15.7617 116.757 16.082C116.874 16.4023 117.052 16.6588 117.292 16.8515C117.534 17.0442 117.839 17.1406 118.206 17.1406ZM123.47 14.4374V17.9999H122.302V11.9999H123.424V12.9765H123.498C123.636 12.6588 123.852 12.4036 124.146 12.2109C124.443 12.0182 124.817 11.9218 125.267 11.9218C125.676 11.9218 126.034 12.0078 126.342 12.1796C126.649 12.3489 126.887 12.6015 127.056 12.9374C127.226 13.2734 127.31 13.6887 127.31 14.1835V17.9999H126.142V14.3242C126.142 13.8893 126.029 13.5494 125.802 13.3046C125.576 13.0572 125.265 12.9335 124.869 12.9335C124.598 12.9335 124.357 12.9921 124.146 13.1093C123.938 13.2265 123.773 13.3984 123.65 13.6249C123.53 13.8489 123.47 14.1197 123.47 14.4374Z" fill="#E8E8E8"/>
<path d="M51.3776 24.8891C51.3492 24.5766 51.2228 24.3337 50.9983 24.1604C50.7767 23.9843 50.46 23.8962 50.0481 23.8962C49.7753 23.8962 49.5481 23.9318 49.3662 24.0028C49.1844 24.0738 49.0481 24.1718 48.9571 24.2968C48.8662 24.419 48.8194 24.5596 48.8165 24.7187C48.8108 24.8494 48.8364 24.9644 48.8932 25.0639C48.9529 25.1633 49.0381 25.2514 49.1489 25.3281C49.2625 25.4019 49.3989 25.4673 49.558 25.5241C49.7171 25.5809 49.8961 25.6306 50.0949 25.6732L50.8449 25.8437C51.2767 25.9374 51.6574 26.0624 51.987 26.2187C52.3194 26.3749 52.5978 26.561 52.8222 26.7769C53.0495 26.9928 53.2213 27.2414 53.3378 27.5227C53.4543 27.8039 53.514 28.1193 53.5168 28.4687C53.514 29.0198 53.3748 29.4928 53.0992 29.8877C52.8236 30.2826 52.4273 30.5852 51.9103 30.7954C51.3961 31.0056 50.7753 31.1107 50.0481 31.1107C49.3179 31.1107 48.6816 31.0014 48.139 30.7826C47.5963 30.5639 47.1745 30.2315 46.8733 29.7854C46.5722 29.3394 46.4174 28.7755 46.4088 28.0937H48.4287C48.4458 28.3749 48.5211 28.6093 48.6546 28.7968C48.7881 28.9843 48.9713 29.1264 49.2043 29.2229C49.4401 29.3195 49.7128 29.3678 50.0225 29.3678C50.3066 29.3678 50.5481 29.3295 50.7469 29.2528C50.9486 29.1761 51.1034 29.0695 51.2114 28.9332C51.3194 28.7968 51.3748 28.6406 51.3776 28.4644C51.3748 28.2997 51.3236 28.159 51.2242 28.0426C51.1248 27.9232 50.9713 27.821 50.764 27.7357C50.5594 27.6477 50.2981 27.5667 49.9799 27.4928L49.0679 27.2798C48.3123 27.1065 47.7171 26.8266 47.2824 26.4403C46.8478 26.0511 46.6319 25.5255 46.6347 24.8636C46.6319 24.3238 46.7767 23.8508 47.0694 23.4445C47.362 23.0383 47.7668 22.7215 48.2838 22.4943C48.8009 22.267 49.3904 22.1533 50.0523 22.1533C50.7284 22.1533 51.3151 22.2684 51.8123 22.4985C52.3123 22.7258 52.7 23.0454 52.9756 23.4573C53.2512 23.8693 53.3918 24.3465 53.3975 24.8891H51.3776ZM56.6659 22.2727V30.9999H54.5821V22.2727H56.6659ZM59.8375 31.1107C59.4199 31.1107 59.0491 31.0411 58.7252 30.9019C58.4042 30.7599 58.15 30.5468 57.9625 30.2627C57.7778 29.9758 57.6855 29.6164 57.6855 29.1846C57.6855 28.821 57.7494 28.5141 57.8772 28.2641C58.0051 28.0141 58.1812 27.811 58.4056 27.6548C58.6301 27.4985 58.8886 27.3806 59.1812 27.3011C59.4738 27.2187 59.7863 27.1633 60.1187 27.1349C60.4909 27.1008 60.7906 27.0653 61.0179 27.0283C61.2451 26.9886 61.4099 26.9332 61.5122 26.8622C61.6173 26.7883 61.6699 26.6846 61.6699 26.5511V26.5298C61.6699 26.311 61.5946 26.142 61.444 26.0227C61.2934 25.9033 61.0903 25.8437 60.8346 25.8437C60.5591 25.8437 60.3375 25.9033 60.1699 26.0227C60.0022 26.142 59.8957 26.3068 59.8502 26.517L57.9284 26.4488C57.9852 26.0511 58.1315 25.696 58.3673 25.3835C58.6059 25.0681 58.9326 24.821 59.3474 24.642C59.765 24.4602 60.2664 24.3693 60.8517 24.3693C61.2693 24.3693 61.6542 24.419 62.0065 24.5184C62.3588 24.615 62.6656 24.757 62.927 24.9445C63.1883 25.1292 63.39 25.3565 63.5321 25.6264C63.677 25.8962 63.7494 26.2045 63.7494 26.5511V30.9999H61.7892V30.088H61.738C61.6216 30.3096 61.4724 30.4971 61.2906 30.6505C61.1116 30.8039 60.9 30.919 60.6556 30.9957C60.4142 31.0724 60.1414 31.1107 59.8375 31.1107ZM60.4809 29.7471C60.7054 29.7471 60.9071 29.7016 61.086 29.6107C61.2679 29.5198 61.4127 29.3948 61.5207 29.2357C61.6287 29.0738 61.6826 28.8863 61.6826 28.6732V28.0511C61.623 28.0823 61.5505 28.1107 61.4653 28.1363C61.3829 28.1619 61.292 28.186 61.1926 28.2087C61.0931 28.2315 60.9909 28.2514 60.8858 28.2684C60.7806 28.2854 60.6798 28.3011 60.5832 28.3153C60.3872 28.3465 60.2196 28.3948 60.0804 28.4602C59.944 28.5255 59.8389 28.6107 59.765 28.7158C59.694 28.8181 59.6585 28.9403 59.6585 29.0823C59.6585 29.2982 59.7352 29.463 59.8886 29.5766C60.0449 29.6903 60.2423 29.7471 60.4809 29.7471ZM68.0789 31.1235C67.3886 31.1235 66.7963 30.9815 66.302 30.6974C65.8105 30.4133 65.4326 30.0184 65.1684 29.5127C64.9042 29.0042 64.7721 28.4161 64.7721 27.7485C64.7721 27.0781 64.9042 26.49 65.1684 25.9843C65.4355 25.4758 65.8147 25.0795 66.3062 24.7954C66.8005 24.5113 67.39 24.3693 68.0747 24.3693C68.6798 24.3693 69.2068 24.4786 69.6556 24.6974C70.1073 24.9161 70.4596 25.2258 70.7125 25.6264C70.9681 26.0241 71.1031 26.4914 71.1173 27.0283H69.1698C69.1301 26.6931 69.0164 26.4303 68.8289 26.24C68.6443 26.0497 68.4028 25.9545 68.1045 25.9545C67.863 25.9545 67.6514 26.0227 67.4696 26.159C67.2877 26.2926 67.1457 26.4914 67.0434 26.7556C66.944 27.017 66.8943 27.3408 66.8943 27.7272C66.8943 28.1136 66.944 28.4403 67.0434 28.7073C67.1457 28.9715 67.2877 29.1718 67.4696 29.3082C67.6514 29.4417 67.863 29.5085 68.1045 29.5085C68.2977 29.5085 68.4681 29.4673 68.6159 29.3849C68.7664 29.3025 68.89 29.1818 68.9866 29.0227C69.0832 28.8607 69.1443 28.6647 69.1698 28.4346H71.1173C71.0974 28.9744 70.9625 29.446 70.7125 29.8494C70.4653 30.2528 70.1173 30.5667 69.6684 30.7911C69.2224 31.0127 68.6926 31.1235 68.0789 31.1235ZM74.063 29.2826L74.0715 26.7982H74.3613L76.2022 24.4545H78.563L75.8272 27.8124H75.2774L74.063 29.2826ZM72.1837 30.9999V22.2727H74.2675V30.9999H72.1837ZM76.249 30.9999L74.536 28.2812L75.9081 26.8025L78.6567 30.9999H76.249Z" fill="#D54AD5"/>
</g>
<rect x="0.749756" y="0.749939" width="137.5" height="38.5" rx="5.25" stroke="white" stroke-opacity="0.15" stroke-width="1.5"/>
<defs>
<filter id="filter0_d_18_3462" x="5.99976" y="1.99994" width="36" height="36" filterUnits="userSpaceOnUse" color-interpolation-filters="sRGB">
<feFlood flood-opacity="0" result="BackgroundImageFix"/>
<feColorMatrix in="SourceAlpha" type="matrix" values="0 0 0 0 0 0 0 0 0 0 0 0 0 0 0 0 0 0 127 0" result="hardAlpha"/>
<feOffset/>
<feGaussianBlur stdDeviation="2"/>
<feComposite in2="hardAlpha" operator="out"/>
<feColorMatrix type="matrix" values="0 0 0 0 0 0 0 0 0 0 0 0 0 0 0 0 0 0 0.25 0"/>
<feBlend mode="normal" in2="BackgroundImageFix" result="effect1_dropShadow_18_3462"/>
<feBlend mode="normal" in="SourceGraphic" in2="effect1_dropShadow_18_3462" result="shape"/>
</filter>
<filter id="filter1_d_18_3462" x="41.9998" y="2.99994" width="91" height="34" filterUnits="userSpaceOnUse" color-interpolation-filters="sRGB">
<feFlood flood-opacity="0" result="BackgroundImageFix"/>
<feColorMatrix in="SourceAlpha" type="matrix" values="0 0 0 0 0 0 0 0 0 0 0 0 0 0 0 0 0 0 127 0" result="hardAlpha"/>
<feOffset/>
<feGaussianBlur stdDeviation="2"/>
<feComposite in2="hardAlpha" operator="out"/>
<feColorMatrix type="matrix" values="0 0 0 0 0 0 0 0 0 0 0 0 0 0 0 0 0 0 0.25 0"/>
<feBlend mode="normal" in2="BackgroundImageFix" result="effect1_dropShadow_18_3462"/>
<feBlend mode="normal" in="SourceGraphic" in2="effect1_dropShadow_18_3462" result="shape"/>
</filter>
<linearGradient id="paint0_linear_18_3462" x1="68.9998" y1="-3.86315e-05" x2="68.9998" y2="40" gradientUnits="userSpaceOnUse">
<stop stop-color="#2C0C2C"/>
<stop offset="1" stop-color="#1C081C"/>
</linearGradient>
</defs>
</svg>
