<svg width="125" height="40" viewBox="0 0 125 40" fill="none" xmlns="http://www.w3.org/2000/svg">
<rect x="-0.000244141" y="-1.52588e-05" width="125" height="40" rx="6" fill="url(#paint0_linear_18_3449)"/>
<g filter="url(#filter0_d_18_3449)">
<path d="M32.1845 10H15.815C12.6033 10 9.99976 12.6281 9.99976 15.87V24.1301C9.99976 27.372 12.6033 30 15.815 30H32.1845C35.3962 30 37.9998 27.372 37.9998 24.1301V15.87C37.9998 12.6281 35.3962 10 32.1845 10ZM28.2517 20.4019L20.5952 24.088C20.3911 24.1862 20.1555 24.0361 20.1555 23.808V16.2054C20.1555 15.974 20.3973 15.824 20.6018 15.9286L28.2583 19.8451C28.486 19.9615 28.482 20.2911 28.2517 20.4019Z" fill="#F22F21"/>
</g>
<g filter="url(#filter1_d_18_3449)">
<path d="M48.4451 18L46.2263 9.99998H47.4958L49.0544 16.1953H49.1287L50.7498 9.99998H52.0076L53.6287 16.1992H53.7029L55.2576 9.99998H56.531L54.3083 18H53.0935L51.4099 12.0078H51.3474L49.6638 18H48.4451ZM58.6931 18.1328C58.3129 18.1328 57.9692 18.0625 57.6619 17.9219C57.3546 17.7786 57.1111 17.5716 56.9314 17.3008C56.7543 17.0299 56.6658 16.6979 56.6658 16.3047C56.6658 15.9661 56.7309 15.6875 56.8611 15.4687C56.9913 15.25 57.1671 15.0768 57.3884 14.9492C57.6098 14.8216 57.8572 14.7252 58.1306 14.6601C58.404 14.595 58.6827 14.5456 58.9665 14.5117C59.3259 14.47 59.6176 14.4362 59.8415 14.4101C60.0655 14.3815 60.2283 14.3359 60.3298 14.2734C60.4314 14.2109 60.4822 14.1094 60.4822 13.9687V13.9414C60.4822 13.6002 60.3858 13.3359 60.1931 13.1484C60.003 12.9609 59.7192 12.8672 59.3415 12.8672C58.9483 12.8672 58.6384 12.9544 58.4119 13.1289C58.1879 13.3008 58.033 13.4922 57.947 13.7031L56.8494 13.4531C56.9796 13.0885 57.1697 12.7943 57.4197 12.5703C57.6723 12.3437 57.9626 12.1797 58.2908 12.0781C58.6189 11.9739 58.9639 11.9219 59.3259 11.9219C59.5655 11.9219 59.8194 11.9505 60.0876 12.0078C60.3585 12.0625 60.6111 12.164 60.8455 12.3125C61.0824 12.4609 61.2764 12.6732 61.4275 12.9492C61.5785 13.2226 61.654 13.5781 61.654 14.0156V18H60.5134V17.1797H60.4665C60.391 17.3307 60.2777 17.4791 60.1267 17.625C59.9757 17.7708 59.7817 17.8919 59.5447 17.9883C59.3077 18.0846 59.0238 18.1328 58.6931 18.1328ZM58.947 17.1953C59.2699 17.1953 59.546 17.1315 59.7751 17.0039C60.0069 16.8763 60.1827 16.7096 60.3025 16.5039C60.4249 16.2956 60.4861 16.0729 60.4861 15.8359V15.0625C60.4444 15.1041 60.3637 15.1432 60.2439 15.1797C60.1267 15.2135 59.9926 15.2435 59.8415 15.2695C59.6905 15.293 59.5434 15.3151 59.4001 15.3359C59.2569 15.3541 59.1371 15.3698 59.0408 15.3828C58.8142 15.4114 58.6072 15.4596 58.4197 15.5273C58.2348 15.595 58.0863 15.6927 57.9744 15.8203C57.865 15.9453 57.8103 16.112 57.8103 16.3203C57.8103 16.6094 57.9171 16.8281 58.1306 16.9765C58.3442 17.1224 58.6163 17.1953 58.947 17.1953ZM66.0105 12V12.9375H62.7331V12H66.0105ZM63.6121 10.5625H64.78V16.2383C64.78 16.4648 64.8139 16.6354 64.8816 16.75C64.9493 16.862 65.0365 16.9388 65.1433 16.9805C65.2527 17.0195 65.3712 17.039 65.4988 17.039C65.5925 17.039 65.6746 17.0325 65.7449 17.0195C65.8152 17.0065 65.8699 16.9961 65.9089 16.9883L66.1199 17.9531C66.0522 17.9791 65.9558 18.0052 65.8308 18.0312C65.7058 18.0599 65.5496 18.0755 65.3621 18.0781C65.0548 18.0833 64.7683 18.0286 64.5027 17.914C64.2371 17.7995 64.0222 17.6224 63.8581 17.3828C63.6941 17.1432 63.6121 16.8424 63.6121 16.4805V10.5625ZM69.7654 18.1211C69.1846 18.1211 68.6846 17.9896 68.2654 17.7265C67.8487 17.4609 67.5284 17.095 67.3044 16.6289C67.0805 16.1627 66.9685 15.6289 66.9685 15.0273C66.9685 14.418 67.0831 13.8802 67.3122 13.414C67.5414 12.9453 67.8643 12.5794 68.281 12.3164C68.6977 12.0534 69.1886 11.9219 69.7537 11.9219C70.2094 11.9219 70.6156 12.0065 70.9724 12.1758C71.3292 12.3424 71.6169 12.5768 71.8357 12.8789C72.057 13.181 72.1886 13.5338 72.2302 13.9375H71.0935C71.031 13.6562 70.8878 13.414 70.6638 13.2109C70.4425 13.0078 70.1456 12.9062 69.7732 12.9062C69.4477 12.9062 69.1625 12.9922 68.9177 13.164C68.6755 13.3333 68.4867 13.5755 68.3513 13.8906C68.2159 14.2031 68.1482 14.5729 68.1482 15C68.1482 15.4375 68.2146 15.8151 68.3474 16.1328C68.4802 16.4505 68.6677 16.6966 68.9099 16.8711C69.1547 17.0456 69.4425 17.1328 69.7732 17.1328C69.9945 17.1328 70.1951 17.0924 70.3747 17.0117C70.557 16.9284 70.7094 16.8099 70.8318 16.6562C70.9568 16.5026 71.044 16.3177 71.0935 16.1015H72.2302C72.1886 16.4896 72.0622 16.8359 71.8513 17.1406C71.6404 17.4453 71.3578 17.6849 71.0037 17.8594C70.6521 18.0338 70.2393 18.1211 69.7654 18.1211ZM74.6472 14.4375V18H73.4792V9.99998H74.6316V12.9765H74.7058C74.8464 12.6536 75.0613 12.3971 75.3503 12.207C75.6394 12.0169 76.017 11.9219 76.4831 11.9219C76.8946 11.9219 77.254 12.0065 77.5613 12.1758C77.8712 12.345 78.1107 12.5976 78.28 12.9336C78.4519 13.2669 78.5378 13.6836 78.5378 14.1836V18H77.3699V14.3242C77.3699 13.8841 77.2566 13.543 77.03 13.3008C76.8035 13.056 76.4884 12.9336 76.0847 12.9336C75.8087 12.9336 75.5613 12.9922 75.3425 13.1094C75.1264 13.2265 74.9558 13.3984 74.8308 13.625C74.7084 13.8489 74.6472 14.1198 74.6472 14.4375ZM83.0076 18V12H84.1287V12.9765H84.2029C84.3279 12.6458 84.5323 12.388 84.8162 12.2031C85.1 12.0156 85.4398 11.9219 85.8357 11.9219C86.2367 11.9219 86.5727 12.0156 86.8435 12.2031C87.1169 12.3906 87.3188 12.6484 87.449 12.9765H87.5115C87.6547 12.6562 87.8826 12.401 88.1951 12.2109C88.5076 12.0182 88.88 11.9219 89.3122 11.9219C89.8565 11.9219 90.3005 12.0924 90.6443 12.4336C90.9906 12.7747 91.1638 13.289 91.1638 13.9765V18H89.9958V14.0859C89.9958 13.6797 89.8852 13.3854 89.6638 13.2031C89.4425 13.0208 89.1781 12.9297 88.8708 12.9297C88.4906 12.9297 88.1951 13.0469 87.9841 13.2812C87.7732 13.513 87.6677 13.8112 87.6677 14.1758V18H86.5037V14.0117C86.5037 13.6862 86.4021 13.4245 86.199 13.2265C85.9958 13.0286 85.7315 12.9297 85.406 12.9297C85.1846 12.9297 84.9802 12.9883 84.7927 13.1055C84.6078 13.22 84.4581 13.3802 84.3435 13.5859C84.2315 13.7916 84.1755 14.0299 84.1755 14.3008V18H83.0076ZM95.3152 18.1211C94.724 18.1211 94.2149 17.9948 93.7878 17.7422C93.3633 17.487 93.0352 17.1289 92.8035 16.668C92.5743 16.2044 92.4597 15.6614 92.4597 15.039C92.4597 14.4245 92.5743 13.8828 92.8035 13.414C93.0352 12.9453 93.3581 12.5794 93.7722 12.3164C94.1889 12.0534 94.6758 11.9219 95.2331 11.9219C95.5717 11.9219 95.8998 11.9778 96.2175 12.0898C96.5352 12.2018 96.8204 12.3776 97.073 12.6172C97.3256 12.8568 97.5248 13.168 97.6706 13.5508C97.8165 13.931 97.8894 14.3932 97.8894 14.9375V15.3515H93.1199V14.4765H96.7449C96.7449 14.1693 96.6824 13.8971 96.5574 13.6601C96.4324 13.4206 96.2566 13.2318 96.03 13.0937C95.8061 12.9557 95.543 12.8867 95.241 12.8867C94.9128 12.8867 94.6264 12.9674 94.3816 13.1289C94.1394 13.2877 93.9519 13.4961 93.8191 13.7539C93.6889 14.0091 93.6238 14.2864 93.6238 14.5859V15.2695C93.6238 15.6706 93.6941 16.0117 93.8347 16.293C93.9779 16.5742 94.1772 16.789 94.4324 16.9375C94.6876 17.0833 94.9857 17.1562 95.3269 17.1562C95.5482 17.1562 95.7501 17.125 95.9324 17.0625C96.1146 16.9974 96.2722 16.901 96.405 16.7734C96.5378 16.6458 96.6394 16.4883 96.7097 16.3008L97.8152 16.5C97.7266 16.8255 97.5678 17.1107 97.3386 17.3555C97.112 17.5976 96.8269 17.7864 96.4831 17.9219C96.142 18.0547 95.7527 18.1211 95.3152 18.1211ZM104.624 18.1211C104.061 18.1211 103.57 17.9922 103.151 17.7344C102.732 17.4765 102.406 17.1159 102.175 16.6523C101.943 16.1888 101.827 15.6471 101.827 15.0273C101.827 14.4049 101.943 13.8607 102.175 13.3945C102.406 12.9284 102.732 12.5664 103.151 12.3086C103.57 12.0508 104.061 11.9219 104.624 11.9219C105.186 11.9219 105.677 12.0508 106.096 12.3086C106.516 12.5664 106.841 12.9284 107.073 13.3945C107.305 13.8607 107.421 14.4049 107.421 15.0273C107.421 15.6471 107.305 16.1888 107.073 16.6523C106.841 17.1159 106.516 17.4765 106.096 17.7344C105.677 17.9922 105.186 18.1211 104.624 18.1211ZM104.628 17.1406C104.992 17.1406 105.294 17.0443 105.534 16.8515C105.774 16.6588 105.951 16.4023 106.065 16.082C106.182 15.7617 106.241 15.4088 106.241 15.0234C106.241 14.6406 106.182 14.289 106.065 13.9687C105.951 13.6458 105.774 13.3867 105.534 13.1914C105.294 12.9961 104.992 12.8984 104.628 12.8984C104.26 12.8984 103.956 12.9961 103.714 13.1914C103.474 13.3867 103.296 13.6458 103.178 13.9687C103.064 14.289 103.007 14.6406 103.007 15.0234C103.007 15.4088 103.064 15.7617 103.178 16.082C103.296 16.4023 103.474 16.6588 103.714 16.8515C103.956 17.0443 104.26 17.1406 104.628 17.1406ZM109.892 14.4375V18H108.724V12H109.845V12.9765H109.92C110.058 12.6588 110.274 12.4036 110.568 12.2109C110.865 12.0182 111.239 11.9219 111.689 11.9219C112.098 11.9219 112.456 12.0078 112.763 12.1797C113.071 12.3489 113.309 12.6015 113.478 12.9375C113.648 13.2734 113.732 13.6888 113.732 14.1836V18H112.564V14.3242C112.564 13.8893 112.451 13.5495 112.224 13.3047C111.998 13.0573 111.687 12.9336 111.291 12.9336C111.02 12.9336 110.779 12.9922 110.568 13.1094C110.36 13.2265 110.194 13.3984 110.072 13.625C109.952 13.8489 109.892 14.1198 109.892 14.4375Z" fill="#E8E8E8"/>
<path d="M46.2256 22.2727H48.5821L50.4273 25.9247H50.504L52.3492 22.2727H54.7057L51.514 28.0852V31H49.4174V28.0852L46.2256 22.2727ZM57.1336 31.1236C56.4461 31.1236 55.8552 30.9829 55.3609 30.7017C54.8694 30.4176 54.4902 30.0227 54.2231 29.517C53.9589 29.0085 53.8268 28.419 53.8268 27.7486C53.8268 27.0753 53.9589 26.4858 54.2231 25.9801C54.4902 25.4716 54.8694 25.0767 55.3609 24.7954C55.8552 24.5113 56.4461 24.3693 57.1336 24.3693C57.8211 24.3693 58.4106 24.5113 58.9021 24.7954C59.3964 25.0767 59.7757 25.4716 60.0399 25.9801C60.3069 26.4858 60.4404 27.0753 60.4404 27.7486C60.4404 28.419 60.3069 29.0085 60.0399 29.517C59.7757 30.0227 59.3964 30.4176 58.9021 30.7017C58.4106 30.9829 57.8211 31.1236 57.1336 31.1236ZM57.1464 29.5511C57.3964 29.5511 57.6081 29.4744 57.7814 29.321C57.9547 29.1676 58.0868 28.9545 58.1777 28.6818C58.2714 28.4091 58.3183 28.0937 58.3183 27.7358C58.3183 27.3721 58.2714 27.054 58.1777 26.7812C58.0868 26.5085 57.9547 26.2954 57.7814 26.142C57.6081 25.9886 57.3964 25.9119 57.1464 25.9119C56.8879 25.9119 56.6691 25.9886 56.4902 26.142C56.314 26.2954 56.1791 26.5085 56.0853 26.7812C55.9944 27.054 55.949 27.3721 55.949 27.7358C55.949 28.0937 55.9944 28.4091 56.0853 28.6818C56.1791 28.9545 56.314 29.1676 56.4902 29.321C56.6691 29.4744 56.8879 29.5511 57.1464 29.5511ZM65.7309 28.1747V24.4545H67.8105V31H65.8247V29.7812H65.7565C65.6116 30.1818 65.3645 30.5 65.015 30.7358C64.6684 30.9687 64.2494 31.0852 63.7579 31.0852C63.3119 31.0852 62.9199 30.9829 62.5818 30.7784C62.2437 30.5738 61.9809 30.2883 61.7934 29.9218C61.6059 29.5525 61.5108 29.1207 61.5079 28.6264V24.4545H63.5917V28.2173C63.5946 28.5724 63.6883 28.8522 63.873 29.0568C64.0576 29.2613 64.3091 29.3636 64.6272 29.3636C64.8346 29.3636 65.0207 29.3182 65.1855 29.2272C65.3531 29.1335 65.4852 28.9986 65.5818 28.8224C65.6812 28.6434 65.7309 28.4275 65.7309 28.1747ZM72.8314 24.4545V25.9886H68.7022V24.4545H72.8314ZM69.5672 22.8863H71.651V28.9417C71.651 29.0696 71.6709 29.1733 71.7107 29.2528C71.7533 29.3295 71.8144 29.3849 71.8939 29.419C71.9735 29.4503 72.0686 29.4659 72.1794 29.4659C72.259 29.4659 72.3428 29.4588 72.4309 29.4446C72.5218 29.4275 72.5899 29.4133 72.6354 29.402L72.9507 30.9062C72.8513 30.9346 72.7107 30.9701 72.5289 31.0128C72.3499 31.0554 72.1354 31.0824 71.8854 31.0937C71.3968 31.1165 70.9777 31.0596 70.6283 30.9233C70.2817 30.7841 70.0161 30.5682 69.8314 30.2755C69.6496 29.9829 69.5615 29.615 69.5672 29.1718V22.8863ZM78.1176 28.1747V24.4545H80.1972V31H78.2114V29.7812H78.1432C77.9983 30.1818 77.7512 30.5 77.4017 30.7358C77.0551 30.9687 76.6361 31.0852 76.1446 31.0852C75.6986 31.0852 75.3066 30.9829 74.9685 30.7784C74.6304 30.5738 74.3676 30.2883 74.1801 29.9218C73.9926 29.5525 73.8975 29.1207 73.8946 28.6264V24.4545H75.9784V28.2173C75.9813 28.5724 76.075 28.8522 76.2597 29.0568C76.4443 29.2613 76.6958 29.3636 77.014 29.3636C77.2213 29.3636 77.4074 29.3182 77.5722 29.2272C77.7398 29.1335 77.8719 28.9986 77.9685 28.8224C78.0679 28.6434 78.1176 28.4275 78.1176 28.1747ZM81.5235 31V22.2727H83.6073V25.5753H83.65C83.7352 25.3764 83.8559 25.1846 84.0122 25C84.1713 24.8153 84.373 24.6647 84.6173 24.5483C84.8644 24.429 85.1599 24.3693 85.5037 24.3693C85.9582 24.3693 86.3829 24.4886 86.7778 24.7272C87.1755 24.9659 87.4965 25.3338 87.7409 25.8309C87.9852 26.3281 88.1073 26.9616 88.1073 27.7315C88.1073 28.473 87.9894 29.0937 87.7536 29.5937C87.5207 30.0937 87.2054 30.4687 86.8076 30.7187C86.4127 30.9687 85.9738 31.0937 85.4909 31.0937C85.1613 31.0937 84.8758 31.0397 84.6343 30.9318C84.3929 30.8238 84.1897 30.6818 84.025 30.5057C83.863 30.3295 83.738 30.1406 83.65 29.9389H83.586V31H81.5235ZM83.5647 27.7272C83.5647 28.0795 83.6116 28.3863 83.7054 28.6477C83.8019 28.9091 83.9397 29.1122 84.1187 29.2571C84.3005 29.3991 84.5179 29.4701 84.7707 29.4701C85.0264 29.4701 85.2437 29.3991 85.4227 29.2571C85.6017 29.1122 85.7366 28.9091 85.8275 28.6477C85.9213 28.3863 85.9681 28.0795 85.9681 27.7272C85.9681 27.375 85.9213 27.0696 85.8275 26.8111C85.7366 26.5525 85.6017 26.3522 85.4227 26.2102C85.2465 26.0682 85.0292 25.9971 84.7707 25.9971C84.515 25.9971 84.2977 26.0667 84.1187 26.2059C83.9397 26.3451 83.8019 26.544 83.7054 26.8025C83.6116 27.0611 83.5647 27.3693 83.5647 27.7272ZM92.259 31.1236C91.5743 31.1236 90.9834 30.9886 90.4862 30.7187C89.9919 30.446 89.6112 30.0582 89.3442 29.5554C89.08 29.0497 88.9479 28.4488 88.9479 27.7528C88.9479 27.0767 89.0814 26.4858 89.3485 25.9801C89.6155 25.4716 89.9919 25.0767 90.4777 24.7954C90.9635 24.5113 91.536 24.3693 92.1951 24.3693C92.661 24.3693 93.0871 24.4417 93.4735 24.5866C93.8598 24.7315 94.1936 24.946 94.4749 25.2301C94.7561 25.5142 94.9749 25.865 95.1311 26.2826C95.2874 26.6974 95.3655 27.1733 95.3655 27.7102V28.2301H89.6766V27.0199H93.4266C93.4237 26.7983 93.3712 26.6008 93.2689 26.4275C93.1666 26.2542 93.026 26.1193 92.847 26.0227C92.6709 25.9233 92.4678 25.8736 92.2377 25.8736C92.0047 25.8736 91.7959 25.9261 91.6112 26.0312C91.4266 26.1335 91.2803 26.2741 91.1723 26.4531C91.0644 26.6292 91.0076 26.8295 91.0019 27.054V28.2855C91.0019 28.5525 91.0544 28.7869 91.1595 28.9886C91.2647 29.1875 91.4138 29.3423 91.607 29.4531C91.8002 29.5639 92.0303 29.6193 92.2973 29.6193C92.482 29.6193 92.6496 29.5937 92.8002 29.5426C92.9507 29.4915 93.08 29.4162 93.188 29.3167C93.2959 29.2173 93.3769 29.0951 93.4308 28.9503L95.3442 29.0057C95.2647 29.4346 95.0899 29.8082 94.8201 30.1264C94.553 30.4417 94.2022 30.6875 93.7675 30.8636C93.3328 31.0369 92.83 31.1236 92.259 31.1236Z" fill="#F22F21"/>
</g>
<rect x="0.749756" y="0.749985" width="123.5" height="38.5" rx="5.25" stroke="white" stroke-opacity="0.15" stroke-width="1.5"/>
<defs>
<filter id="filter0_d_18_3449" x="5.99976" y="1.99998" width="36" height="36" filterUnits="userSpaceOnUse" color-interpolation-filters="sRGB">
<feFlood flood-opacity="0" result="BackgroundImageFix"/>
<feColorMatrix in="SourceAlpha" type="matrix" values="0 0 0 0 0 0 0 0 0 0 0 0 0 0 0 0 0 0 127 0" result="hardAlpha"/>
<feOffset/>
<feGaussianBlur stdDeviation="2"/>
<feComposite in2="hardAlpha" operator="out"/>
<feColorMatrix type="matrix" values="0 0 0 0 0 0 0 0 0 0 0 0 0 0 0 0 0 0 0.25 0"/>
<feBlend mode="normal" in2="BackgroundImageFix" result="effect1_dropShadow_18_3449"/>
<feBlend mode="normal" in="SourceGraphic" in2="effect1_dropShadow_18_3449" result="shape"/>
</filter>
<filter id="filter1_d_18_3449" x="41.9998" y="2.99998" width="77" height="34" filterUnits="userSpaceOnUse" color-interpolation-filters="sRGB">
<feFlood flood-opacity="0" result="BackgroundImageFix"/>
<feColorMatrix in="SourceAlpha" type="matrix" values="0 0 0 0 0 0 0 0 0 0 0 0 0 0 0 0 0 0 127 0" result="hardAlpha"/>
<feOffset/>
<feGaussianBlur stdDeviation="2"/>
<feComposite in2="hardAlpha" operator="out"/>
<feColorMatrix type="matrix" values="0 0 0 0 0 0 0 0 0 0 0 0 0 0 0 0 0 0 0.25 0"/>
<feBlend mode="normal" in2="BackgroundImageFix" result="effect1_dropShadow_18_3449"/>
<feBlend mode="normal" in="SourceGraphic" in2="effect1_dropShadow_18_3449" result="shape"/>
</filter>
<linearGradient id="paint0_linear_18_3449" x1="62.4997" y1="-1.52588e-05" x2="62.4997" y2="40" gradientUnits="userSpaceOnUse">
<stop stop-color="#2E0604"/>
<stop offset="1" stop-color="#1C0402"/>
</linearGradient>
</defs>
</svg>
