<svg width="40" height="40" viewBox="0 0 40 40" fill="none" xmlns="http://www.w3.org/2000/svg">
<rect x="-0.000976562" y="-0.00012207" width="40" height="40" rx="6" fill="url(#paint0_linear_3_924)"/>
<g filter="url(#filter0_d_3_924)">
<path d="M20.0583 7.3125C17.8759 7.31379 15.7311 7.8818 13.8341 8.96094C11.937 10.0401 10.3527 11.5934 9.23606 13.4687C8.11946 15.3441 7.50891 17.4773 7.46416 19.6595C7.41941 21.8418 7.942 23.9982 8.98077 25.9178L6.70068 33.2531L14.8883 31.4033C16.6015 32.1753 18.4658 32.5543 20.3444 32.5124C22.2231 32.4706 24.0686 32.0091 25.7459 31.1617C27.4231 30.3143 28.8896 29.1024 30.0379 27.6148C31.1863 26.1272 31.9874 24.4016 32.3826 22.5643C32.7778 20.727 32.7571 18.8246 32.322 16.9963C31.8869 15.1681 31.0485 13.4603 29.868 11.9981C28.6876 10.5358 27.1951 9.35612 25.4998 8.54539C23.8045 7.73466 21.9494 7.31342 20.0703 7.3125H20.0583Z" fill="#FFF9AE"/>
<path d="M30.0556 12.2478C31.7541 14.4749 32.6619 17.2045 32.6358 20.0053C32.6096 22.8061 31.6509 25.5183 29.9111 27.7132C28.1713 29.9082 25.7498 31.4606 23.0291 32.1253C20.3085 32.79 17.444 32.5289 14.8883 31.3833L6.70068 33.257L15.0358 32.2723C17.7048 33.836 20.8559 34.3628 23.8884 33.7523C26.9208 33.1418 29.6227 31.4367 31.4789 28.962C33.3351 26.4873 34.2159 23.416 33.9534 20.3335C33.691 17.2511 32.3035 14.373 30.0556 12.2478V12.2478Z" fill="#00AEEF"/>
<path d="M27.7357 9.92371C29.6572 11.9613 30.845 14.5811 31.1113 17.3693C31.3776 20.1574 30.7073 22.9548 29.2062 25.3194C27.7052 27.6839 25.459 29.4807 22.8227 30.4259C20.1864 31.371 17.3104 31.4105 14.6491 30.5382L6.70068 33.2571L14.8883 31.4033C17.7051 32.6759 20.8914 32.8682 23.8409 31.9437C26.7903 31.0192 29.2969 29.0424 30.8836 26.3896C32.4703 23.7368 33.0263 20.5932 32.4459 17.557C31.8654 14.5208 30.189 11.804 27.7357 9.92371V9.92371Z" fill="#00A94F"/>
<path d="M9.73415 26.1969C8.62692 23.5277 8.47063 20.559 9.29148 17.7882C10.1123 15.0175 11.8604 12.6131 14.2429 10.9779C16.6253 9.34276 19.4973 8.57618 22.3776 8.80666C25.2579 9.03714 27.9714 10.2507 30.0636 12.2439C28.1383 9.71698 25.3297 8.01061 22.2 7.46636C19.0704 6.92211 15.8507 7.58016 13.1855 9.30876C10.5203 11.0374 8.60625 13.709 7.82659 16.7887C7.04693 19.8684 7.45916 23.1291 8.98077 25.9178L6.70068 33.2531L9.73415 26.1969Z" fill="#F15D22"/>
<path d="M8.98096 25.9178C7.60699 23.3797 7.14584 20.4468 7.67461 17.6094C8.20337 14.772 9.69 12.2022 11.886 10.3295C14.0819 8.4568 16.8541 7.39474 19.7391 7.32087C22.6241 7.247 25.447 8.1658 27.7359 9.92367C25.5539 7.62595 22.5865 6.23469 19.4248 6.02709C16.2631 5.81949 13.1393 6.81079 10.6757 8.80349C8.2121 10.7962 6.5896 13.644 6.13147 16.7795C5.67334 19.915 6.4132 23.1081 8.20366 25.7224L6.70486 33.257L8.98096 25.9178Z" fill="#E31B23"/>
</g>
<rect x="0.749023" y="0.749878" width="38.5" height="38.5" rx="5.25" stroke="white" stroke-opacity="0.15" stroke-width="1.5"/>
<defs>
<filter id="filter0_d_3_924" x="1.99902" y="1.99988" width="36" height="36.0001" filterUnits="userSpaceOnUse" color-interpolation-filters="sRGB">
<feFlood flood-opacity="0" result="BackgroundImageFix"/>
<feColorMatrix in="SourceAlpha" type="matrix" values="0 0 0 0 0 0 0 0 0 0 0 0 0 0 0 0 0 0 127 0" result="hardAlpha"/>
<feOffset/>
<feGaussianBlur stdDeviation="2"/>
<feComposite in2="hardAlpha" operator="out"/>
<feColorMatrix type="matrix" values="0 0 0 0 0 0 0 0 0 0 0 0 0 0 0 0 0 0 0.25 0"/>
<feBlend mode="normal" in2="BackgroundImageFix" result="effect1_dropShadow_3_924"/>
<feBlend mode="normal" in="SourceGraphic" in2="effect1_dropShadow_3_924" result="shape"/>
</filter>
<linearGradient id="paint0_linear_3_924" x1="19.999" y1="-0.00012207" x2="19.999" y2="39.9999" gradientUnits="userSpaceOnUse">
<stop stop-color="#353426"/>
<stop offset="1" stop-color="#27261C"/>
</linearGradient>
</defs>
</svg>
