<svg width="40" height="40" viewBox="0 0 40 40" fill="none" xmlns="http://www.w3.org/2000/svg">
<rect x="-0.000976562" y="-0.00012207" width="40" height="40" rx="6" fill="url(#paint0_linear_3_935)"/>
<g filter="url(#filter0_d_3_935)">
<path d="M20.5102 33C17.1837 33 14.1387 31.8385 11.7885 29.9164L5.99951 30.6667L8.23226 25.3904C7.44843 23.7472 7.01998 21.9221 7.01998 19.9999C7.01998 12.8186 13.0625 7 20.5087 7C27.9655 7 33.9995 12.8186 33.9995 19.9999C33.9995 27.1807 27.9655 33 20.5102 33Z" fill="#2299F8"/>
<path d="M20.5963 13.0665H15.6245V26.9331H20.5261C25.1636 26.9331 27.8743 23.9606 27.8743 19.9619V19.9253C27.8743 15.9281 25.1988 13.0665 20.5963 13.0665ZM24.2045 20.0087C24.2045 22.255 22.7873 23.522 20.6485 23.522H19.1963V16.4675H20.6485C22.7873 16.4675 24.2045 17.7535 24.2045 19.9722V20.0087Z" fill="#FCFCFC"/>
</g>
<rect x="0.749023" y="0.749878" width="38.5" height="38.5" rx="5.25" stroke="white" stroke-opacity="0.15" stroke-width="1.5"/>
<defs>
<filter id="filter0_d_3_935" x="1.99902" y="1.99988" width="36.0005" height="36" filterUnits="userSpaceOnUse" color-interpolation-filters="sRGB">
<feFlood flood-opacity="0" result="BackgroundImageFix"/>
<feColorMatrix in="SourceAlpha" type="matrix" values="0 0 0 0 0 0 0 0 0 0 0 0 0 0 0 0 0 0 127 0" result="hardAlpha"/>
<feOffset/>
<feGaussianBlur stdDeviation="2"/>
<feComposite in2="hardAlpha" operator="out"/>
<feColorMatrix type="matrix" values="0 0 0 0 0 0 0 0 0 0 0 0 0 0 0 0 0 0 0.25 0"/>
<feBlend mode="normal" in2="BackgroundImageFix" result="effect1_dropShadow_3_935"/>
<feBlend mode="normal" in="SourceGraphic" in2="effect1_dropShadow_3_935" result="shape"/>
</filter>
<linearGradient id="paint0_linear_3_935" x1="19.999" y1="-0.00012207" x2="19.999" y2="39.9999" gradientUnits="userSpaceOnUse">
<stop stop-color="#051F30"/>
<stop offset="1" stop-color="#031420"/>
</linearGradient>
</defs>
</svg>
