<svg width="40" height="40" viewBox="0 0 40 40" fill="none" xmlns="http://www.w3.org/2000/svg">
<rect x="-0.000976562" y="-0.00012207" width="40" height="40" rx="6" fill="url(#paint0_linear_3_951)"/>
<g filter="url(#filter0_d_3_951)">
<path d="M33.9997 15.145H26.2022L23.8984 8H28.6832L33.9997 15.145Z" fill="#5DADEC"/>
<path d="M5.99932 15.145H13.7968L16.1006 8H11.3158L5.99932 15.145Z" fill="#BDDDF4"/>
<path d="M13.7969 15.145H26.2019L23.8981 8H16.1007L13.7969 15.145Z" fill="#8CCAF7"/>
<path d="M26.2019 15.145H13.7969L19.9994 32L26.2019 15.145Z" fill="#5DADEC"/>
<path d="M19.9995 32L33.9995 15.145H26.202L19.9995 32Z" fill="#4289C1"/>
<path d="M19.9995 32L5.99951 15.145H13.797L19.9995 32Z" fill="#8CCAF7"/>
</g>
<rect x="0.749023" y="0.749878" width="38.5" height="38.5" rx="5.25" stroke="white" stroke-opacity="0.15" stroke-width="1.5"/>
<defs>
<filter id="filter0_d_3_951" x="1.99902" y="1.99988" width="36.0005" height="36" filterUnits="userSpaceOnUse" color-interpolation-filters="sRGB">
<feFlood flood-opacity="0" result="BackgroundImageFix"/>
<feColorMatrix in="SourceAlpha" type="matrix" values="0 0 0 0 0 0 0 0 0 0 0 0 0 0 0 0 0 0 127 0" result="hardAlpha"/>
<feOffset/>
<feGaussianBlur stdDeviation="2"/>
<feComposite in2="hardAlpha" operator="out"/>
<feColorMatrix type="matrix" values="0 0 0 0 0 0 0 0 0 0 0 0 0 0 0 0 0 0 0.25 0"/>
<feBlend mode="normal" in2="BackgroundImageFix" result="effect1_dropShadow_3_951"/>
<feBlend mode="normal" in="SourceGraphic" in2="effect1_dropShadow_3_951" result="shape"/>
</filter>
<linearGradient id="paint0_linear_3_951" x1="19.999" y1="-0.00012207" x2="19.999" y2="39.9999" gradientUnits="userSpaceOnUse">
<stop stop-color="#242E35"/>
<stop offset="1" stop-color="#12202B"/>
</linearGradient>
</defs>
</svg>
