<svg width="40" height="40" viewBox="0 0 40 40" fill="none" xmlns="http://www.w3.org/2000/svg">
<rect x="-0.000976562" y="-6.10352e-05" width="40" height="40" rx="6" fill="url(#paint0_linear_28_3668)"/>
<g filter="url(#filter0_d_28_3668)">
<path d="M12.7372 14.2075C12.7372 14.2075 12.7588 17.3251 14.3422 20.5494C15.9689 23.6531 18.2119 25.6468 20.0622 26.4409C21.974 25.5374 23.8209 23.9691 24.8288 22.2792H19.5803C18.2223 21.1414 17.1537 19.2536 16.9084 17.0717H32.3055C31.5463 20.5798 29.9352 23.7703 28.4003 25.8021C26.27 28.6193 23.3813 30.7694 20.0734 32H20.0249C14.5026 29.7755 11.5317 26.2717 9.57127 22.3183C8.31375 19.7848 6.99902 15.1848 6.99902 8.99997H32.9989C33.0031 10.7417 32.8873 12.4817 32.6521 14.2075H12.7372Z" fill="#F5C400"/>
</g>
<rect x="0.749023" y="0.749939" width="38.5" height="38.5" rx="5.25" stroke="white" stroke-opacity="0.15" stroke-width="1.5"/>
<defs>
<filter id="filter0_d_28_3668" x="1.99902" y="1.99994" width="36" height="36" filterUnits="userSpaceOnUse" color-interpolation-filters="sRGB">
<feFlood flood-opacity="0" result="BackgroundImageFix"/>
<feColorMatrix in="SourceAlpha" type="matrix" values="0 0 0 0 0 0 0 0 0 0 0 0 0 0 0 0 0 0 127 0" result="hardAlpha"/>
<feOffset/>
<feGaussianBlur stdDeviation="2"/>
<feComposite in2="hardAlpha" operator="out"/>
<feColorMatrix type="matrix" values="0 0 0 0 0 0 0 0 0 0 0 0 0 0 0 0 0 0 0.25 0"/>
<feBlend mode="normal" in2="BackgroundImageFix" result="effect1_dropShadow_28_3668"/>
<feBlend mode="normal" in="SourceGraphic" in2="effect1_dropShadow_28_3668" result="shape"/>
</filter>
<linearGradient id="paint0_linear_28_3668" x1="19.999" y1="-6.10351e-05" x2="19.999" y2="39.9999" gradientUnits="userSpaceOnUse">
<stop stop-color="#322C16"/>
<stop offset="1" stop-color="#231F0F"/>
</linearGradient>
</defs>
</svg>
