<svg width="40" height="40" viewBox="0 0 40 40" fill="none" xmlns="http://www.w3.org/2000/svg">
<rect x="-0.000976562" y="-6.10352e-05" width="40" height="40" rx="6" fill="url(#paint0_linear_28_3738)"/>
<g filter="url(#filter0_d_28_3738)">
<path d="M32.8946 12.1989C32.4941 9.19046 29.8997 6.81957 26.8242 6.36015C26.3053 6.28252 24.3393 6 19.7852 6H19.7512C15.1959 6 14.2186 6.28252 13.6997 6.36015C10.7098 6.80684 7.97935 8.93721 7.31689 11.9813C6.99825 13.4805 6.96425 15.1425 7.02344 16.6671C7.10782 18.8534 7.1242 21.036 7.32067 23.2134C7.45649 24.6598 7.69344 26.0947 8.02972 27.5073C8.65944 30.1161 11.2085 32.2872 13.706 33.173C16.3798 34.0967 19.2554 34.25 22.0106 33.6159C22.3137 33.5446 22.6131 33.4619 22.9086 33.3677C23.5786 33.1526 24.3632 32.9121 24.9401 32.4896C24.948 32.4836 24.9545 32.476 24.959 32.4672C24.9636 32.4584 24.9662 32.4486 24.9665 32.4387V30.3287C24.9664 30.3194 24.9642 30.3102 24.9601 30.3019C24.956 30.2936 24.9501 30.2863 24.9429 30.2805C24.9356 30.2748 24.9272 30.2708 24.9182 30.2688C24.9092 30.2667 24.8999 30.2668 24.891 30.2689C23.1257 30.6949 21.3168 30.9085 19.5019 30.9052C16.3785 30.9052 15.5385 29.4073 15.2979 28.7837C15.1045 28.2448 14.9818 27.6826 14.9327 27.1115C14.9321 27.1019 14.9339 27.0923 14.9377 27.0835C14.9416 27.0747 14.9474 27.067 14.9548 27.061C14.9622 27.0549 14.9708 27.0506 14.9801 27.0486C14.9894 27.0465 14.999 27.0467 15.0082 27.0491C16.7441 27.4723 18.5235 27.6859 20.3092 27.6854C20.7386 27.6854 21.1668 27.6854 21.5963 27.674C23.3922 27.6231 25.2852 27.5302 27.0521 27.1815C27.0962 27.1726 27.1403 27.1649 27.1781 27.1535C29.9652 26.6126 32.6176 24.9149 32.8871 20.616C32.8971 20.4468 32.9223 18.8433 32.9223 18.6677C32.9236 18.0708 33.1125 14.4336 32.8946 12.1989Z" fill="url(#paint1_linear_28_3738)"/>
<path d="M28.4791 15.5789V23.0531H25.5484V15.7991C25.5484 14.272 24.9187 13.4931 23.6379 13.4931C22.2298 13.4931 21.5246 14.4145 21.5246 16.2343V20.2049H18.6115V16.2343C18.6115 14.4145 17.905 13.4931 16.497 13.4931C15.2237 13.4931 14.5876 14.272 14.5876 15.7991V23.0531H11.6582V15.5789C11.6582 14.0518 12.044 12.8386 12.8156 11.9393C13.6116 11.042 14.6557 10.5814 15.9516 10.5814C17.4516 10.5814 18.5851 11.1642 19.3407 12.3287L20.0699 13.5657L20.8004 12.3287C21.5561 11.1642 22.6895 10.5814 24.187 10.5814C25.4817 10.5814 26.5258 11.042 27.3243 11.9393C28.095 12.8377 28.48 14.0509 28.4791 15.5789Z" fill="white"/>
</g>
<rect x="0.749023" y="0.749939" width="38.5" height="38.5" rx="5.25" stroke="white" stroke-opacity="0.15" stroke-width="1.5"/>
<defs>
<filter id="filter0_d_28_3738" x="1.99902" y="1.99994" width="36" height="36.0001" filterUnits="userSpaceOnUse" color-interpolation-filters="sRGB">
<feFlood flood-opacity="0" result="BackgroundImageFix"/>
<feColorMatrix in="SourceAlpha" type="matrix" values="0 0 0 0 0 0 0 0 0 0 0 0 0 0 0 0 0 0 127 0" result="hardAlpha"/>
<feOffset/>
<feGaussianBlur stdDeviation="2"/>
<feComposite in2="hardAlpha" operator="out"/>
<feColorMatrix type="matrix" values="0 0 0 0 0 0 0 0 0 0 0 0 0 0 0 0 0 0 0.25 0"/>
<feBlend mode="normal" in2="BackgroundImageFix" result="effect1_dropShadow_28_3738"/>
<feBlend mode="normal" in="SourceGraphic" in2="effect1_dropShadow_28_3738" result="shape"/>
</filter>
<linearGradient id="paint0_linear_28_3738" x1="19.999" y1="-6.10351e-05" x2="19.999" y2="39.9999" gradientUnits="userSpaceOnUse">
<stop stop-color="#0D0D2F"/>
<stop offset="1" stop-color="#100B27"/>
</linearGradient>
<linearGradient id="paint1_linear_28_3738" x1="19.9995" y1="6" x2="19.9995" y2="34" gradientUnits="userSpaceOnUse">
<stop stop-color="#6364FF"/>
<stop offset="1" stop-color="#563ACC"/>
</linearGradient>
</defs>
</svg>
