<svg width="40" height="40" viewBox="0 0 40 40" fill="none" xmlns="http://www.w3.org/2000/svg">
<rect x="-0.000976562" y="-2.28882e-05" width="40" height="40" rx="6" fill="url(#paint0_linear_28_3610)"/>
<g filter="url(#filter0_d_28_3610)">
<path d="M8.32298 5.99998L6.49902 10.864V30.3179H13.1838V33.9677H16.8334L20.4793 30.3179H25.9498L33.2453 23.025V5.99998H8.32298ZM10.753 8.43046H30.8142V21.8066L26.5579 26.0632H19.8722L16.2272 29.7079V26.0632H10.753V8.43046ZM17.4404 20.5922H19.8721V13.2971H17.4404V20.5922ZM24.1267 20.5922H26.5579V13.2971H24.1267V20.5922Z" fill="#7755AC"/>
</g>
<rect x="0.749023" y="0.749977" width="38.5" height="38.5" rx="5.25" stroke="white" stroke-opacity="0.15" stroke-width="1.5"/>
<defs>
<filter id="filter0_d_28_3610" x="1.99902" y="1.99998" width="36" height="36" filterUnits="userSpaceOnUse" color-interpolation-filters="sRGB">
<feFlood flood-opacity="0" result="BackgroundImageFix"/>
<feColorMatrix in="SourceAlpha" type="matrix" values="0 0 0 0 0 0 0 0 0 0 0 0 0 0 0 0 0 0 127 0" result="hardAlpha"/>
<feOffset/>
<feGaussianBlur stdDeviation="2"/>
<feComposite in2="hardAlpha" operator="out"/>
<feColorMatrix type="matrix" values="0 0 0 0 0 0 0 0 0 0 0 0 0 0 0 0 0 0 0.25 0"/>
<feBlend mode="normal" in2="BackgroundImageFix" result="effect1_dropShadow_28_3610"/>
<feBlend mode="normal" in="SourceGraphic" in2="effect1_dropShadow_28_3610" result="shape"/>
</filter>
<linearGradient id="paint0_linear_28_3610" x1="19.999" y1="-2.28882e-05" x2="19.999" y2="40" gradientUnits="userSpaceOnUse">
<stop stop-color="#1B1328"/>
<stop offset="1" stop-color="#120C1C"/>
</linearGradient>
</defs>
</svg>
