<svg width="40" height="40" viewBox="0 0 40 40" fill="none" xmlns="http://www.w3.org/2000/svg">
<rect x="-0.000976562" width="40" height="40" rx="6" fill="url(#paint0_linear_28_3761)"/>
<g filter="url(#filter0_d_28_3761)">
<path d="M31.1325 14.2258C31.1495 14.4753 31.1495 14.7249 31.1495 14.9767C31.1495 22.6502 25.371 31.5 14.8045 31.5V31.4954C11.6832 31.5 8.62669 30.5962 5.99902 28.892C6.45289 28.9472 6.90904 28.9748 7.36632 28.9759C9.95304 28.9782 12.4658 28.1008 14.5008 26.4852C12.0427 26.438 9.88706 24.8178 9.13402 22.4524C9.99512 22.6203 10.8824 22.5858 11.7276 22.3523C9.04757 21.805 7.11948 19.4246 7.11948 16.6602C7.11948 16.6349 7.11948 16.6107 7.11948 16.5866C7.91802 17.0362 8.8121 17.2857 9.72667 17.3133C7.20252 15.608 6.42446 12.2134 7.94873 9.55938C10.8653 13.1874 15.1686 15.393 19.788 15.6264C19.325 13.6094 19.9575 11.4959 21.4499 10.078C23.7636 7.87934 27.4026 7.99203 29.5775 10.3298C30.864 10.0734 32.0971 9.59618 33.2255 8.92003C32.7967 10.2643 31.8992 11.4062 30.7002 12.1318C31.8389 11.9961 32.9514 11.6879 33.999 11.2176C33.2278 12.3859 32.2563 13.4036 31.1325 14.2258Z" fill="#1D9BF0"/>
</g>
<rect x="0.749023" y="0.75" width="38.5" height="38.5" rx="5.25" stroke="white" stroke-opacity="0.15" stroke-width="1.5"/>
<defs>
<filter id="filter0_d_28_3761" x="1.99902" y="2" width="36" height="36" filterUnits="userSpaceOnUse" color-interpolation-filters="sRGB">
<feFlood flood-opacity="0" result="BackgroundImageFix"/>
<feColorMatrix in="SourceAlpha" type="matrix" values="0 0 0 0 0 0 0 0 0 0 0 0 0 0 0 0 0 0 127 0" result="hardAlpha"/>
<feOffset/>
<feGaussianBlur stdDeviation="2"/>
<feComposite in2="hardAlpha" operator="out"/>
<feColorMatrix type="matrix" values="0 0 0 0 0 0 0 0 0 0 0 0 0 0 0 0 0 0 0.25 0"/>
<feBlend mode="normal" in2="BackgroundImageFix" result="effect1_dropShadow_28_3761"/>
<feBlend mode="normal" in="SourceGraphic" in2="effect1_dropShadow_28_3761" result="shape"/>
</filter>
<linearGradient id="paint0_linear_28_3761" x1="19.999" y1="0" x2="19.999" y2="40" gradientUnits="userSpaceOnUse">
<stop stop-color="#051F30"/>
<stop offset="1" stop-color="#031420"/>
</linearGradient>
</defs>
</svg>
