<svg width="41" height="40" viewBox="0 0 41 40" fill="none" xmlns="http://www.w3.org/2000/svg">
<rect x="0.499023" width="40" height="40" rx="6" fill="url(#paint0_linear_16_37)"/>
<g filter="url(#filter0_d_16_37)">
<path d="M20.4995 33C27.6792 33 33.4995 27.1797 33.4995 20C33.4995 12.8203 27.6792 7 20.4995 7C13.3198 7 7.49951 12.8203 7.49951 20C7.49951 27.1797 13.3198 33 20.4995 33Z" stroke="#F1F1F1" stroke-width="2" stroke-linecap="round" stroke-linejoin="round"/>
<path d="M7.49951 20H33.4995" stroke="#F1F1F1" stroke-width="2" stroke-linecap="round" stroke-linejoin="round"/>
<path d="M20.4993 7C23.751 10.5599 25.5989 15.1796 25.6993 20C25.5989 24.8204 23.751 29.4401 20.4993 33C17.2477 29.4401 15.3997 24.8204 15.2993 20C15.3997 15.1796 17.2477 10.5599 20.4993 7V7Z" stroke="#F1F1F1" stroke-width="2" stroke-linecap="round" stroke-linejoin="round"/>
</g>
<rect x="1.24902" y="0.75" width="38.5" height="38.5" rx="5.25" stroke="white" stroke-opacity="0.15" stroke-width="1.5"/>
<defs>
<filter id="filter0_d_16_37" x="2.49902" y="2" width="36.0005" height="36" filterUnits="userSpaceOnUse" color-interpolation-filters="sRGB">
<feFlood flood-opacity="0" result="BackgroundImageFix"/>
<feColorMatrix in="SourceAlpha" type="matrix" values="0 0 0 0 0 0 0 0 0 0 0 0 0 0 0 0 0 0 127 0" result="hardAlpha"/>
<feOffset/>
<feGaussianBlur stdDeviation="2"/>
<feComposite in2="hardAlpha" operator="out"/>
<feColorMatrix type="matrix" values="0 0 0 0 0 0 0 0 0 0 0 0 0 0 0 0 0 0 0.25 0"/>
<feBlend mode="normal" in2="BackgroundImageFix" result="effect1_dropShadow_16_37"/>
<feBlend mode="normal" in="SourceGraphic" in2="effect1_dropShadow_16_37" result="shape"/>
</filter>
<linearGradient id="paint0_linear_16_37" x1="20.499" y1="0" x2="20.499" y2="40" gradientUnits="userSpaceOnUse">
<stop stop-color="#303030"/>
<stop offset="1" stop-color="#1D1D1D"/>
</linearGradient>
</defs>
</svg>
