<svg width="155" height="40" viewBox="0 0 155 40" fill="none" xmlns="http://www.w3.org/2000/svg">
<rect x="-0.000244141" y="-3.05176e-05" width="155" height="40" rx="6" fill="url(#paint0_linear_28_714)"/>
<g filter="url(#filter0_d_28_714)">
<path d="M25.0833 5.99997V8.01102H23.0714V12.0331H21.0595V14.0442H19.0476V15.9005H17.0357V17.9116H15.0238V19.9226H13.0119V21.9337H11V25.9558H13.0119V27.9668H15.0238V29.9779H17.0357V31.9889H19.0476V34H21.0595V31.9889H23.0714V29.9779H25.0833V27.9668H27.0952V25.9558H29.1071V23.9447H30.9643V21.9337H34.9881V19.9226H37V15.9005H34.9881V14.0442H32.9762V12.0331H30.9643V10.0221H29.1071V8.01102H27.0952V5.99997H25.0833Z" fill="#115110"/>
<path d="M25.0834 8.01102V10.0221H27.0953V12.0331H29.1072V14.0442H30.9643V15.9005H32.9762V14.0442H30.9643V12.0331H29.1072V10.0221H27.0953V8.01102H25.0834Z" fill="#9CFF55"/>
<path d="M25.0834 10.0221V12.0331H27.0944V10.0221H25.0834Z" fill="#90EB4B"/>
<path d="M23.0714 12.0331V15.9005H19.0476V17.9116H17.0357V19.9226H15.0238V23.9447H17.0357V25.9558H19.0476V27.9668H23.0714V23.9447H21.0595V21.9337H25.0833V23.9447H27.0952V19.9226H25.0833V17.9116H29.1071V15.9005H27.0952V14.0442H25.0833V12.0331H23.0714Z" fill="#9CFF55"/>
<path d="M25.0834 12.0331V14.0442H27.0953V15.9005H29.1072V17.9116H30.9643V15.9005H29.1072V14.0442H27.0953V12.0331H25.0834Z" fill="#115110"/>
<path d="M27.0952 12.0331V14.0442H29.1063V12.0331H27.0952Z" fill="#89DC42"/>
<path d="M21.0596 14.0442V15.9005H23.0706V14.0442H21.0596Z" fill="#90EB4B"/>
<path d="M29.1072 14.0442V15.9005H30.9635V14.0442H29.1072Z" fill="#89DC42"/>
<path d="M23.0714 15.9005V17.9116H25.0825V15.9005H23.0714Z" fill="#90EB4B"/>
<path d="M30.9642 15.9005V17.9116H32.9753V15.9005H30.9642Z" fill="#89DC42"/>
<path d="M25.0834 17.9116V19.9226H29.1072V17.9116H25.0834Z" fill="#90EB4B"/>
<path d="M29.1071 17.9116V19.9226H27.0952V23.9447H29.1071V21.9337H30.9643V17.9116H29.1071Z" fill="#89DC42"/>
<path d="M32.9762 17.9116V19.9226H34.9872V17.9116H32.9762Z" fill="#5E8D2F"/>
<path d="M19.0476 19.9226V21.9337H21.0587V19.9226H19.0476Z" fill="#90EB4B"/>
<path d="M13.012 21.9337V23.9447H15.0239V25.9558H17.0358V27.9668H19.0477V29.9779H21.0596V27.9668H19.0477V25.9558H17.0358V23.9447H15.0239V21.9337H13.012Z" fill="#80CC3D"/>
<path d="M21.0596 21.9337V23.9447H25.0834V21.9337H21.0596Z" fill="#90EB4B"/>
<path d="M13.012 23.9447V25.9558H15.023V23.9447H13.012Z" fill="#6EAA33"/>
<path d="M23.0714 23.9447V27.9668H25.0833V25.9558H27.0952V23.9447H23.0714Z" fill="#89DC42"/>
<path d="M15.0238 25.9558V27.9668H17.0357V25.9558H15.0238ZM17.0357 27.9668V29.9779H19.0476V27.9668H17.0357Z" fill="#6EAA33"/>
<path d="M21.0596 27.9668V29.9779H23.0706V27.9668H21.0596Z" fill="#89DC42"/>
<path d="M19.0476 29.9779V31.9889H21.0587V29.9779H19.0476Z" fill="#6EAA33"/>
</g>
<g filter="url(#filter1_d_28_714)">
<path d="M46.8787 18V9.99997H49.7302C50.35 9.99997 50.8643 10.1067 51.2732 10.3203C51.6847 10.5338 51.9919 10.8294 52.1951 11.207C52.3982 11.582 52.4998 12.0156 52.4998 12.5078C52.4998 12.9974 52.3969 13.4284 52.1912 13.8007C51.988 14.1705 51.6807 14.4583 51.2693 14.664C50.8604 14.8698 50.3461 14.9726 49.7263 14.9726H47.5662V13.9336H49.6169C50.0076 13.9336 50.3253 13.8776 50.5701 13.7656C50.8175 13.6536 50.9985 13.4909 51.113 13.2773C51.2276 13.0638 51.2849 12.8073 51.2849 12.5078C51.2849 12.2057 51.2263 11.944 51.1091 11.7226C50.9945 11.5013 50.8136 11.332 50.5662 11.2148C50.3214 11.095 49.9998 11.0351 49.6013 11.0351H48.0857V18H46.8787ZM50.8279 14.3906L52.8044 18H51.4294L49.4919 14.3906H50.8279ZM56.3855 18.1211C55.7943 18.1211 55.2852 17.9948 54.8582 17.7422C54.4337 17.4869 54.1055 17.1289 53.8738 16.6679C53.6446 16.2044 53.53 15.6614 53.53 15.039C53.53 14.4244 53.6446 13.8828 53.8738 13.414C54.1055 12.9453 54.4285 12.5794 54.8425 12.3164C55.2592 12.0534 55.7462 11.9218 56.3035 11.9218C56.642 11.9218 56.9701 11.9778 57.2878 12.0898C57.6055 12.2018 57.8907 12.3776 58.1433 12.6172C58.3959 12.8567 58.5951 13.1679 58.741 13.5507C58.8868 13.931 58.9597 14.3932 58.9597 14.9375V15.3515H54.1902V14.4765H57.8152C57.8152 14.1692 57.7527 13.8971 57.6277 13.6601C57.5027 13.4205 57.3269 13.2317 57.1003 13.0937C56.8764 12.9557 56.6134 12.8867 56.3113 12.8867C55.9832 12.8867 55.6967 12.9674 55.4519 13.1289C55.2097 13.2877 55.0222 13.4961 54.8894 13.7539C54.7592 14.0091 54.6941 14.2864 54.6941 14.5859V15.2695C54.6941 15.6705 54.7644 16.0117 54.905 16.2929C55.0483 16.5742 55.2475 16.789 55.5027 16.9375C55.7579 17.0833 56.0561 17.1562 56.3972 17.1562C56.6186 17.1562 56.8204 17.125 57.0027 17.0625C57.185 16.9974 57.3425 16.901 57.4753 16.7734C57.6082 16.6458 57.7097 16.4882 57.78 16.3007L58.8855 16.5C58.797 16.8255 58.6381 17.1106 58.4089 17.3554C58.1824 17.5976 57.8972 17.7864 57.5535 17.9218C57.2123 18.0547 56.823 18.1211 56.3855 18.1211ZM64.3064 20.25V17.0664H64.2361C64.1658 17.194 64.0642 17.3398 63.9314 17.5039C63.8012 17.6679 63.6215 17.8112 63.3923 17.9336C63.1632 18.056 62.8663 18.1172 62.5017 18.1172C62.0173 18.1172 61.585 17.9935 61.2048 17.7461C60.8272 17.4961 60.5304 17.1406 60.3142 16.6797C60.1007 16.2161 59.9939 15.6601 59.9939 15.0117C59.9939 14.3632 60.102 13.8086 60.3181 13.3476C60.5369 12.8867 60.8363 12.5338 61.2165 12.289C61.5968 12.0442 62.0277 11.9218 62.5095 11.9218C62.8819 11.9218 63.1814 11.9843 63.408 12.1093C63.6371 12.2317 63.8142 12.375 63.9392 12.539C64.0668 12.7031 64.1658 12.8476 64.2361 12.9726H64.3337V12H65.4744V20.25H64.3064ZM62.7595 17.1211C63.0955 17.1211 63.3793 17.0325 63.6111 16.8554C63.8455 16.6757 64.0225 16.427 64.1423 16.1093C64.2647 15.7916 64.3259 15.4218 64.3259 15C64.3259 14.5833 64.266 14.2187 64.1462 13.9062C64.0264 13.5937 63.8507 13.3502 63.6189 13.1757C63.3871 13.0013 63.1007 12.914 62.7595 12.914C62.408 12.914 62.115 13.0052 61.8806 13.1875C61.6462 13.3698 61.4692 13.6185 61.3494 13.9336C61.2322 14.2487 61.1736 14.6041 61.1736 15C61.1736 15.401 61.2335 15.7617 61.3533 16.082C61.4731 16.4023 61.6501 16.6562 61.8845 16.8437C62.1215 17.0286 62.4132 17.1211 62.7595 17.1211ZM70.8455 15.5117V12H72.0173V18H70.8689V16.9609H70.8064C70.6684 17.2812 70.447 17.5481 70.1423 17.7617C69.8402 17.9726 69.4639 18.0781 69.0134 18.0781C68.628 18.0781 68.2869 17.9935 67.99 17.8242C67.6957 17.6523 67.4639 17.3984 67.2947 17.0625C67.128 16.7265 67.0447 16.3112 67.0447 15.8164V12H68.2126V15.6757C68.2126 16.0846 68.3259 16.4101 68.5525 16.6523C68.779 16.8945 69.0733 17.0156 69.4353 17.0156C69.654 17.0156 69.8715 16.9609 70.0876 16.8515C70.3064 16.7422 70.4874 16.5768 70.6306 16.3554C70.7764 16.1341 70.8481 15.8528 70.8455 15.5117ZM73.5867 18V12H74.7546V18H73.5867ZM74.1765 11.0742C73.9734 11.0742 73.7989 11.0065 73.6531 10.8711C73.5098 10.733 73.4382 10.569 73.4382 10.3789C73.4382 10.1862 73.5098 10.0221 73.6531 9.88669C73.7989 9.74867 73.9734 9.67966 74.1765 9.67966C74.3796 9.67966 74.5528 9.74867 74.696 9.88669C74.8419 10.0221 74.9148 10.1862 74.9148 10.3789C74.9148 10.569 74.8419 10.733 74.696 10.8711C74.5528 11.0065 74.3796 11.0742 74.1765 11.0742ZM76.3259 18V12H77.4548V12.9531H77.5173C77.6267 12.6302 77.8194 12.3763 78.0954 12.1914C78.3741 12.0039 78.6892 11.9101 79.0408 11.9101C79.1137 11.9101 79.1996 11.9127 79.2986 11.9179C79.4001 11.9231 79.4796 11.9297 79.5369 11.9375V13.0547C79.49 13.0416 79.4066 13.0273 79.2869 13.0117C79.1671 12.9935 79.0473 12.9843 78.9275 12.9843C78.6514 12.9843 78.4053 13.0429 78.1892 13.1601C77.9757 13.2747 77.8064 13.4349 77.6814 13.6406C77.5564 13.8437 77.4939 14.0755 77.4939 14.3359V18H76.3259ZM82.9187 18.1211C82.3275 18.1211 81.8184 17.9948 81.3913 17.7422C80.9669 17.4869 80.6387 17.1289 80.407 16.6679C80.1778 16.2044 80.0632 15.6614 80.0632 15.039C80.0632 14.4244 80.1778 13.8828 80.407 13.414C80.6387 12.9453 80.9617 12.5794 81.3757 12.3164C81.7924 12.0534 82.2794 11.9218 82.8367 11.9218C83.1752 11.9218 83.5033 11.9778 83.821 12.0898C84.1387 12.2018 84.4239 12.3776 84.6765 12.6172C84.9291 12.8567 85.1283 13.1679 85.2742 13.5507C85.42 13.931 85.4929 14.3932 85.4929 14.9375V15.3515H80.7234V14.4765H84.3484C84.3484 14.1692 84.2859 13.8971 84.1609 13.6601C84.0359 13.4205 83.8601 13.2317 83.6335 13.0937C83.4096 12.9557 83.1466 12.8867 82.8445 12.8867C82.5163 12.8867 82.2299 12.9674 81.9851 13.1289C81.7429 13.2877 81.5554 13.4961 81.4226 13.7539C81.2924 14.0091 81.2273 14.2864 81.2273 14.5859V15.2695C81.2273 15.6705 81.2976 16.0117 81.4382 16.2929C81.5815 16.5742 81.7807 16.789 82.0359 16.9375C82.2911 17.0833 82.5893 17.1562 82.9304 17.1562C83.1518 17.1562 83.3536 17.125 83.5359 17.0625C83.7182 16.9974 83.8757 16.901 84.0085 16.7734C84.1413 16.6458 84.2429 16.4882 84.3132 16.3007L85.4187 16.5C85.3301 16.8255 85.1713 17.1106 84.9421 17.3554C84.7156 17.5976 84.4304 17.7864 84.0867 17.9218C83.7455 18.0547 83.3562 18.1211 82.9187 18.1211ZM91.2849 13.4648L90.2263 13.6523C90.182 13.5169 90.1117 13.388 90.0154 13.2656C89.9216 13.1432 89.794 13.0429 89.6326 12.9648C89.4711 12.8867 89.2693 12.8476 89.0271 12.8476C88.6964 12.8476 88.4203 12.9218 88.199 13.0703C87.9776 13.2161 87.8669 13.4049 87.8669 13.6367C87.8669 13.8372 87.9411 13.9987 88.0896 14.1211C88.238 14.2435 88.4776 14.3437 88.8083 14.4218L89.7615 14.6406C90.3135 14.7682 90.725 14.9648 90.9958 15.2304C91.2667 15.4961 91.4021 15.8411 91.4021 16.2656C91.4021 16.625 91.2979 16.9453 91.0896 17.2265C90.8839 17.5052 90.5961 17.7239 90.2263 17.8828C89.8591 18.0416 89.4333 18.1211 88.949 18.1211C88.2771 18.1211 87.7289 17.9778 87.3044 17.6914C86.88 17.4023 86.6195 16.9922 86.5232 16.4609L87.6521 16.289C87.7224 16.5833 87.8669 16.806 88.0857 16.957C88.3044 17.1054 88.5896 17.1797 88.9411 17.1797C89.324 17.1797 89.63 17.1002 89.8591 16.9414C90.0883 16.7799 90.2029 16.5833 90.2029 16.3515C90.2029 16.164 90.1326 16.0065 89.9919 15.8789C89.8539 15.7513 89.6417 15.6549 89.3552 15.5898L88.3396 15.3672C87.7797 15.2396 87.3656 15.0364 87.0974 14.7578C86.8318 14.4791 86.699 14.1263 86.699 13.6992C86.699 13.345 86.7979 13.0351 86.9958 12.7695C87.1938 12.5039 87.4672 12.2968 87.8161 12.1484C88.1651 11.9974 88.5648 11.9218 89.0154 11.9218C89.6638 11.9218 90.1742 12.0625 90.5466 12.3437C90.919 12.6224 91.1651 12.9961 91.2849 13.4648Z" fill="#E8E8E8"/>
<path d="M54.5821 25.4346H52.4515C52.423 25.2159 52.3648 25.0184 52.2767 24.8423C52.1887 24.6662 52.0722 24.5156 51.9273 24.3906C51.7824 24.2656 51.6105 24.1704 51.4117 24.1051C51.2157 24.0369 50.9983 24.0028 50.7597 24.0028C50.3364 24.0028 49.9713 24.1065 49.6645 24.3139C49.3606 24.5213 49.1262 24.821 48.9614 25.213C48.7995 25.6051 48.7185 26.0795 48.7185 26.6363C48.7185 27.2159 48.8009 27.7017 48.9657 28.0937C49.1333 28.4829 49.3677 28.777 49.6688 28.9758C49.9728 29.1718 50.3321 29.2699 50.7469 29.2699C50.9799 29.2699 51.1915 29.24 51.3819 29.1804C51.575 29.1207 51.7441 29.0341 51.889 28.9204C52.0367 28.8039 52.1574 28.6633 52.2512 28.4985C52.3478 28.3309 52.4145 28.142 52.4515 27.9318L54.5821 27.9446C54.5452 28.3309 54.433 28.7116 54.2455 29.0866C54.0608 29.4616 53.8066 29.8039 53.4827 30.1136C53.1588 30.4204 52.764 30.6647 52.298 30.8466C51.835 31.0284 51.3037 31.1193 50.7043 31.1193C49.9145 31.1193 49.2071 30.946 48.5821 30.5994C47.96 30.25 47.4685 29.7414 47.1077 29.0738C46.7469 28.4062 46.5665 27.5937 46.5665 26.6363C46.5665 25.6761 46.7498 24.8622 47.1162 24.1946C47.4827 23.527 47.9784 23.0199 48.6034 22.6733C49.2284 22.3267 49.9287 22.1534 50.7043 22.1534C51.2327 22.1534 51.7213 22.2272 52.1702 22.375C52.6191 22.5199 53.014 22.7329 53.3549 23.0142C53.6958 23.2926 53.9728 23.6349 54.1858 24.0412C54.3989 24.4474 54.531 24.9119 54.5821 25.4346ZM57.873 22.2727V31H55.7892V22.2727H57.873ZM62.2547 31.1235C61.5672 31.1235 60.9763 30.9829 60.482 30.7017C59.9905 30.4176 59.6113 30.0227 59.3442 29.517C59.08 29.0085 58.9479 28.419 58.9479 27.7485C58.9479 27.0753 59.08 26.4858 59.3442 25.9801C59.6113 25.4716 59.9905 25.0767 60.482 24.7954C60.9763 24.5113 61.5672 24.3693 62.2547 24.3693C62.9422 24.3693 63.5317 24.5113 64.0232 24.7954C64.5175 25.0767 64.8968 25.4716 65.161 25.9801C65.428 26.4858 65.5615 27.0753 65.5615 27.7485C65.5615 28.419 65.428 29.0085 65.161 29.517C64.8968 30.0227 64.5175 30.4176 64.0232 30.7017C63.5317 30.9829 62.9422 31.1235 62.2547 31.1235ZM62.2675 29.5511C62.5175 29.5511 62.7292 29.4744 62.9024 29.321C63.0757 29.1676 63.2078 28.9545 63.2988 28.6818C63.3925 28.4091 63.4394 28.0937 63.4394 27.7358C63.4394 27.3721 63.3925 27.0539 63.2988 26.7812C63.2078 26.5085 63.0757 26.2954 62.9024 26.142C62.7292 25.9886 62.5175 25.9119 62.2675 25.9119C62.009 25.9119 61.7902 25.9886 61.6113 26.142C61.4351 26.2954 61.3002 26.5085 61.2064 26.7812C61.1155 27.0539 61.0701 27.3721 61.0701 27.7358C61.0701 28.0937 61.1155 28.4091 61.2064 28.6818C61.3002 28.9545 61.4351 29.1676 61.6113 29.321C61.7902 29.4744 62.009 29.5511 62.2675 29.5511ZM70.3236 24.4545V25.9886H66.1944V24.4545H70.3236ZM67.0594 22.8863H69.1432V28.9417C69.1432 29.0696 69.1631 29.1733 69.2029 29.2528C69.2455 29.3295 69.3066 29.3849 69.3861 29.419C69.4657 29.4503 69.5608 29.4659 69.6716 29.4659C69.7512 29.4659 69.835 29.4588 69.923 29.4446C70.014 29.4275 70.0821 29.4133 70.1276 29.402L70.4429 30.9062C70.3435 30.9346 70.2029 30.9701 70.0211 31.0128C69.8421 31.0554 69.6276 31.0824 69.3776 31.0937C68.889 31.1164 68.4699 31.0596 68.1205 30.9233C67.7739 30.7841 67.5083 30.5681 67.3236 30.2755C67.1418 29.9829 67.0537 29.615 67.0594 29.1718V22.8863ZM73.6113 27.267V31H71.5274V22.2727H73.5431V25.6562H73.6155C73.7632 25.2528 74.0047 24.9375 74.3399 24.7102C74.678 24.4829 75.0914 24.3693 75.58 24.3693C76.0402 24.3693 76.4408 24.4716 76.7817 24.6761C77.1226 24.8778 77.3868 25.1633 77.5743 25.5326C77.7647 25.902 77.8584 26.3338 77.8556 26.8281V31H75.7718V27.2372C75.7746 26.8735 75.6837 26.5895 75.499 26.3849C75.3144 26.1804 75.0544 26.0781 74.7192 26.0781C74.5005 26.0781 74.3073 26.1264 74.1397 26.223C73.9749 26.3167 73.8456 26.4517 73.7519 26.6278C73.661 26.8039 73.6141 27.017 73.6113 27.267ZM89.6563 25.4346H87.5257C87.4973 25.2159 87.439 25.0184 87.351 24.8423C87.2629 24.6662 87.1464 24.5156 87.0015 24.3906C86.8566 24.2656 86.6848 24.1704 86.4859 24.1051C86.2899 24.0369 86.0725 24.0028 85.8339 24.0028C85.4106 24.0028 85.0456 24.1065 84.7387 24.3139C84.4348 24.5213 84.2004 24.821 84.0356 25.213C83.8737 25.6051 83.7927 26.0795 83.7927 26.6363C83.7927 27.2159 83.8751 27.7017 84.0399 28.0937C84.2075 28.4829 84.4419 28.777 84.743 28.9758C85.047 29.1718 85.4063 29.2699 85.8211 29.2699C86.0541 29.2699 86.2657 29.24 86.4561 29.1804C86.6492 29.1207 86.8183 29.0341 86.9632 28.9204C87.1109 28.8039 87.2316 28.6633 87.3254 28.4985C87.422 28.3309 87.4887 28.142 87.5257 27.9318L89.6563 27.9446C89.6194 28.3309 89.5072 28.7116 89.3197 29.0866C89.135 29.4616 88.8808 29.8039 88.5569 30.1136C88.2331 30.4204 87.8382 30.6647 87.3723 30.8466C86.9092 31.0284 86.3779 31.1193 85.7785 31.1193C84.9887 31.1193 84.2813 30.946 83.6563 30.5994C83.0342 30.25 82.5427 29.7414 82.1819 29.0738C81.8211 28.4062 81.6407 27.5937 81.6407 26.6363C81.6407 25.6761 81.824 24.8622 82.1904 24.1946C82.5569 23.527 83.0527 23.0199 83.6777 22.6733C84.3027 22.3267 85.0029 22.1534 85.7785 22.1534C86.3069 22.1534 86.7956 22.2272 87.2444 22.375C87.6933 22.5199 88.0882 22.7329 88.4291 23.0142C88.77 23.2926 89.047 23.6349 89.26 24.0412C89.4731 24.4474 89.6052 24.9119 89.6563 25.4346ZM93.9188 31.1235C93.2313 31.1235 92.6404 30.9829 92.146 30.7017C91.6546 30.4176 91.2753 30.0227 91.0083 29.517C90.7441 29.0085 90.612 28.419 90.612 27.7485C90.612 27.0753 90.7441 26.4858 91.0083 25.9801C91.2753 25.4716 91.6546 25.0767 92.146 24.7954C92.6404 24.5113 93.2313 24.3693 93.9188 24.3693C94.6063 24.3693 95.1958 24.5113 95.6872 24.7954C96.1816 25.0767 96.5608 25.4716 96.825 25.9801C97.0921 26.4858 97.2256 27.0753 97.2256 27.7485C97.2256 28.419 97.0921 29.0085 96.825 29.517C96.5608 30.0227 96.1816 30.4176 95.6872 30.7017C95.1958 30.9829 94.6063 31.1235 93.9188 31.1235ZM93.9316 29.5511C94.1816 29.5511 94.3932 29.4744 94.5665 29.321C94.7398 29.1676 94.8719 28.9545 94.9628 28.6818C95.0566 28.4091 95.1034 28.0937 95.1034 27.7358C95.1034 27.3721 95.0566 27.0539 94.9628 26.7812C94.8719 26.5085 94.7398 26.2954 94.5665 26.142C94.3932 25.9886 94.1816 25.9119 93.9316 25.9119C93.673 25.9119 93.4543 25.9886 93.2753 26.142C93.0992 26.2954 92.9642 26.5085 92.8705 26.7812C92.7796 27.0539 92.7341 27.3721 92.7341 27.7358C92.7341 28.0937 92.7796 28.4091 92.8705 28.6818C92.9642 28.9545 93.0992 29.1676 93.2753 29.321C93.4543 29.4744 93.673 29.5511 93.9316 29.5511ZM100.377 27.267V31H98.2931V24.4545H100.275V25.6562H100.347C100.492 25.2556 100.739 24.9417 101.089 24.7145C101.438 24.4843 101.854 24.3693 102.337 24.3693C102.797 24.3693 103.196 24.473 103.535 24.6804C103.875 24.8849 104.14 25.1718 104.327 25.5412C104.517 25.9076 104.611 26.3366 104.608 26.8281V31H102.525V27.2372C102.527 26.8735 102.435 26.5895 102.248 26.3849C102.063 26.1804 101.806 26.0781 101.476 26.0781C101.258 26.0781 101.064 26.1264 100.897 26.223C100.732 26.3167 100.604 26.4517 100.513 26.6278C100.425 26.8039 100.38 27.017 100.377 27.267ZM109.619 24.4545V25.9886H105.408V24.4545H109.619ZM106.286 31V24.1221C106.286 23.6164 106.381 23.1974 106.572 22.865C106.762 22.5298 107.026 22.2798 107.364 22.115C107.703 21.9474 108.093 21.8636 108.536 21.8636C108.826 21.8636 109.099 21.8863 109.354 21.9318C109.613 21.9744 109.805 22.0128 109.93 22.0468L109.597 23.5724C109.521 23.5468 109.427 23.5255 109.316 23.5085C109.208 23.4914 109.106 23.4829 109.009 23.4829C108.765 23.4829 108.597 23.5369 108.506 23.6449C108.416 23.7528 108.37 23.9005 108.37 24.088V31H106.286ZM110.621 31V24.4545H112.705V31H110.621ZM111.665 23.6917C111.373 23.6917 111.121 23.5951 110.911 23.402C110.701 23.2059 110.596 22.9701 110.596 22.6946C110.596 22.4218 110.701 22.1889 110.911 21.9957C111.121 21.7997 111.373 21.7017 111.665 21.7017C111.961 21.7017 112.212 21.7997 112.419 21.9957C112.63 22.1889 112.735 22.4218 112.735 22.6946C112.735 22.9701 112.63 23.2059 112.419 23.402C112.212 23.5951 111.961 23.6917 111.665 23.6917ZM117.082 33.5909C116.46 33.5909 115.928 33.5042 115.484 33.3309C115.041 33.1576 114.693 32.9204 114.44 32.6193C114.188 32.3181 114.036 31.9772 113.984 31.5966L115.957 31.4858C115.994 31.6193 116.063 31.7358 116.162 31.8352C116.264 31.9346 116.396 32.0113 116.558 32.0653C116.723 32.1193 116.916 32.1463 117.138 32.1463C117.487 32.1463 117.776 32.061 118.003 31.8906C118.233 31.723 118.348 31.4289 118.348 31.0085V29.8579H118.276C118.193 30.0596 118.068 30.24 117.901 30.3991C117.733 30.5582 117.524 30.6832 117.274 30.7741C117.027 30.865 116.743 30.9105 116.422 30.9105C115.945 30.9105 115.507 30.7997 115.109 30.5781C114.715 30.3537 114.398 30.0071 114.159 29.5383C113.923 29.0667 113.805 28.4602 113.805 27.7187C113.805 26.9545 113.928 26.3253 114.172 25.8309C114.416 25.3338 114.736 24.9659 115.131 24.7272C115.528 24.4886 115.956 24.3693 116.413 24.3693C116.757 24.3693 117.051 24.4289 117.296 24.5483C117.543 24.6647 117.746 24.8153 117.905 25C118.064 25.1846 118.185 25.3764 118.267 25.5753H118.327V24.4545H120.402V31.0255C120.402 31.5795 120.263 32.0468 119.984 32.4275C119.706 32.8082 119.317 33.0966 118.817 33.2926C118.317 33.4914 117.739 33.5909 117.082 33.5909ZM117.146 29.3934C117.399 29.3934 117.615 29.3267 117.794 29.1931C117.973 29.0596 118.111 28.8679 118.207 28.6179C118.304 28.3679 118.352 28.0681 118.352 27.7187C118.352 27.3636 118.304 27.0582 118.207 26.8025C118.114 26.544 117.976 26.3451 117.794 26.2059C117.615 26.0667 117.399 25.9971 117.146 25.9971C116.888 25.9971 116.669 26.0681 116.49 26.2102C116.311 26.3522 116.175 26.5525 116.081 26.811C115.99 27.0667 115.945 27.3693 115.945 27.7187C115.945 28.0681 115.992 28.3679 116.085 28.6179C116.179 28.8679 116.314 29.0596 116.49 29.1931C116.669 29.3267 116.888 29.3934 117.146 29.3934ZM126.196 31H123.929L126.874 22.2727H129.682L132.627 31H130.36L128.31 24.4716H128.242L126.196 31ZM125.894 27.5653H130.633V29.1676H125.894V27.5653ZM133.566 31V22.2727H137.172C137.825 22.2727 138.389 22.4005 138.863 22.6562C139.341 22.9091 139.709 23.2628 139.967 23.7173C140.226 24.169 140.355 24.6946 140.355 25.294C140.355 25.8963 140.223 26.4233 139.959 26.875C139.697 27.3238 139.324 27.6718 138.838 27.919C138.352 28.1662 137.775 28.2897 137.108 28.2897H134.883V26.6278H136.716C137.034 26.6278 137.299 26.5724 137.513 26.4616C137.728 26.3508 137.892 26.196 138.003 25.9971C138.113 25.7954 138.169 25.561 138.169 25.294C138.169 25.0241 138.113 24.7912 138.003 24.5951C137.892 24.3963 137.728 24.2429 137.513 24.1349C137.297 24.027 137.031 23.973 136.716 23.973H135.676V31H133.566ZM143.504 22.2727V31H141.395V22.2727H143.504Z" fill="url(#paint1_linear_28_714)"/>
</g>
<rect x="0.749756" y="0.749969" width="153.5" height="38.5" rx="5.25" stroke="white" stroke-opacity="0.15" stroke-width="1.5"/>
<defs>
<filter id="filter0_d_28_714" x="5.99976" y="1.99997" width="36" height="36" filterUnits="userSpaceOnUse" color-interpolation-filters="sRGB">
<feFlood flood-opacity="0" result="BackgroundImageFix"/>
<feColorMatrix in="SourceAlpha" type="matrix" values="0 0 0 0 0 0 0 0 0 0 0 0 0 0 0 0 0 0 127 0" result="hardAlpha"/>
<feOffset/>
<feGaussianBlur stdDeviation="2"/>
<feComposite in2="hardAlpha" operator="out"/>
<feColorMatrix type="matrix" values="0 0 0 0 0 0 0 0 0 0 0 0 0 0 0 0 0 0 0.25 0"/>
<feBlend mode="normal" in2="BackgroundImageFix" result="effect1_dropShadow_28_714"/>
<feBlend mode="normal" in="SourceGraphic" in2="effect1_dropShadow_28_714" result="shape"/>
</filter>
<filter id="filter1_d_28_714" x="41.9998" y="2.99997" width="107" height="34.5909" filterUnits="userSpaceOnUse" color-interpolation-filters="sRGB">
<feFlood flood-opacity="0" result="BackgroundImageFix"/>
<feColorMatrix in="SourceAlpha" type="matrix" values="0 0 0 0 0 0 0 0 0 0 0 0 0 0 0 0 0 0 127 0" result="hardAlpha"/>
<feOffset/>
<feGaussianBlur stdDeviation="2"/>
<feComposite in2="hardAlpha" operator="out"/>
<feColorMatrix type="matrix" values="0 0 0 0 0 0 0 0 0 0 0 0 0 0 0 0 0 0 0.25 0"/>
<feBlend mode="normal" in2="BackgroundImageFix" result="effect1_dropShadow_28_714"/>
<feBlend mode="normal" in="SourceGraphic" in2="effect1_dropShadow_28_714" result="shape"/>
</filter>
<linearGradient id="paint0_linear_28_714" x1="77.4997" y1="-3.05176e-05" x2="77.4997" y2="40" gradientUnits="userSpaceOnUse">
<stop stop-color="#213116"/>
<stop offset="1" stop-color="#151E0D"/>
</linearGradient>
<linearGradient id="paint1_linear_28_714" x1="99.4076" y1="20" x2="99.4076" y2="31" gradientUnits="userSpaceOnUse">
<stop stop-color="#9CFF55"/>
<stop offset="1" stop-color="#89DC42"/>
</linearGradient>
</defs>
</svg>
