<svg width="197" height="40" viewBox="0 0 197 40" fill="none" xmlns="http://www.w3.org/2000/svg">
<g clip-path="url(#clip0_28_699)">
<rect x="-0.000244141" y="-2.28882e-05" width="197" height="40" rx="6" fill="url(#paint0_linear_28_699)"/>
<g filter="url(#filter0_d_28_699)">
<path d="M17.7848 9.87547C17.7849 10.0067 17.8371 10.1324 17.9298 10.2252C18.0226 10.318 18.1484 10.3701 18.2796 10.3703H19.121V12.251H18.2796C18.1483 12.251 18.0225 12.3031 17.9297 12.3959C17.8369 12.4887 17.7848 12.6145 17.7848 12.7458C17.7848 12.877 17.8369 13.0028 17.9297 13.0956C18.0225 13.1884 18.1483 13.2406 18.2796 13.2406H19.121V14.6829C19.121 14.7991 19.0748 14.9106 18.9926 14.9929C18.9103 15.0751 18.7988 15.1213 18.6826 15.1213H17.2403V14.2799C17.2403 14.1486 17.1881 14.0228 17.0954 13.93C17.0026 13.8372 16.8767 13.7851 16.7455 13.7851C16.6143 13.7851 16.4884 13.8372 16.3956 13.93C16.3028 14.0228 16.2507 14.1486 16.2507 14.2799V15.1213H14.37V14.2799C14.37 14.1486 14.3179 14.0228 14.2251 13.93C14.1323 13.8372 14.0065 13.7851 13.8752 13.7851C13.744 13.7851 13.6181 13.8372 13.5254 13.93C13.4326 14.0228 13.3804 14.1486 13.3804 14.2799V15.1213H11.9381C11.8219 15.1211 11.7105 15.0749 11.6283 14.9927C11.5461 14.9105 11.4999 14.7991 11.4998 14.6829V7.93836C11.4998 7.82209 11.5459 7.71059 11.6282 7.62838C11.7104 7.54616 11.8219 7.49998 11.9381 7.49998H18.6826C18.7402 7.49991 18.7972 7.51121 18.8504 7.53322C18.9036 7.55523 18.952 7.58752 18.9927 7.62824C19.0334 7.66896 19.0657 7.71731 19.0877 7.77052C19.1097 7.82374 19.121 7.88077 19.121 7.93836V9.3802H18.2796C18.1483 9.38033 18.0225 9.43256 17.9297 9.52543C17.8369 9.6183 17.7848 9.7442 17.7848 9.87547V9.87547Z" fill="#9722FF"/>
<path d="M26.3946 9.87547C26.3946 10.0067 26.4467 10.1326 26.5395 10.2253C26.6323 10.3181 26.7581 10.3703 26.8893 10.3703H27.7331V12.251H26.8917C26.7605 12.251 26.6347 12.3031 26.5419 12.3959C26.4491 12.4887 26.3969 12.6145 26.3969 12.7458C26.3969 12.877 26.4491 13.0028 26.5419 13.0956C26.6347 13.1884 26.7605 13.2406 26.8917 13.2406H27.7331V14.6829C27.733 14.7991 27.6868 14.9105 27.6046 14.9927C27.5224 15.0749 27.411 15.1211 27.2947 15.1213H20.5493C20.4331 15.1213 20.3216 15.0751 20.2394 14.9929C20.1571 14.9106 20.111 14.7991 20.111 14.6829V13.2406H20.9519C21.0831 13.2406 21.2089 13.1884 21.3017 13.0956C21.3945 13.0028 21.4467 12.877 21.4467 12.7458C21.4467 12.6145 21.3945 12.4887 21.3017 12.3959C21.2089 12.3031 21.0831 12.251 20.9519 12.251H20.111V10.3703H20.9519C21.0182 10.3723 21.0842 10.361 21.1461 10.3371C21.2079 10.3131 21.2643 10.277 21.312 10.2308C21.3596 10.1847 21.3975 10.1294 21.4233 10.0683C21.4492 10.0072 21.4625 9.94157 21.4625 9.87523C21.4625 9.8089 21.4492 9.74324 21.4233 9.68215C21.3975 9.62106 21.3596 9.5658 21.312 9.51962C21.2643 9.47345 21.2079 9.43732 21.1461 9.41337C21.0842 9.38942 21.0182 9.37814 20.9519 9.3802H20.111V7.93836C20.1109 7.88077 20.1222 7.82374 20.1442 7.77052C20.1662 7.71731 20.1985 7.66896 20.2392 7.62824C20.2799 7.58752 20.3283 7.55523 20.3815 7.53322C20.4347 7.51121 20.4918 7.49991 20.5493 7.49998H27.2938C27.41 7.49998 27.5216 7.54616 27.6038 7.62838C27.686 7.71059 27.7322 7.82209 27.7322 7.93836V9.3802H26.8908C26.8256 9.38001 26.7611 9.39268 26.7009 9.4175C26.6407 9.44231 26.5859 9.47877 26.5398 9.52478C26.4937 9.5708 26.4571 9.62546 26.4322 9.68564C26.4073 9.74582 26.3945 9.81033 26.3946 9.87547V9.87547Z" fill="#DC29DD"/>
<path d="M36.343 7.93836V14.6829C36.343 14.7991 36.2968 14.9106 36.2146 14.9929C36.1324 15.0751 36.0209 15.1213 35.9046 15.1213H34.4623V14.2799C34.4623 14.1486 34.4102 14.0228 34.3174 13.93C34.2246 13.8372 34.0988 13.7851 33.9675 13.7851C33.8363 13.7851 33.7105 13.8372 33.6177 13.93C33.5249 14.0228 33.4727 14.1486 33.4727 14.2799V15.1213H31.5921V14.2799C31.5921 14.1486 31.5399 14.0228 31.4471 13.93C31.3543 13.8372 31.2285 13.7851 31.0973 13.7851C30.966 13.7851 30.8402 13.8372 30.7474 13.93C30.6546 14.0228 30.6025 14.1486 30.6025 14.2799V15.1213H29.1602C29.044 15.1211 28.9325 15.0749 28.8503 14.9927C28.7682 14.9105 28.7219 14.7991 28.7218 14.6829V13.2406H29.5632C29.6944 13.2406 29.8203 13.1884 29.9131 13.0956C30.0058 13.0028 30.058 12.877 30.058 12.7458C30.058 12.6145 30.0058 12.4887 29.9131 12.3959C29.8203 12.3031 29.6944 12.251 29.5632 12.251H28.7218V10.3703H29.5632C29.6918 10.3663 29.8138 10.3124 29.9034 10.22C29.993 10.1276 30.0431 10.0039 30.0431 9.87523C30.0431 9.74654 29.993 9.6229 29.9034 9.5305C29.8138 9.4381 29.6918 9.3842 29.5632 9.3802H28.7218V7.93836C28.7218 7.82209 28.768 7.71059 28.8502 7.62838C28.9324 7.54616 29.0439 7.49998 29.1602 7.49998H35.9046C35.9622 7.49991 36.0192 7.51121 36.0725 7.53322C36.1257 7.55523 36.174 7.58752 36.2147 7.62824C36.2555 7.66896 36.2878 7.71731 36.3098 7.77052C36.3318 7.82374 36.3431 7.88077 36.343 7.93836Z" fill="#27A2FD"/>
<path d="M19.121 16.5492V23.2937C19.121 23.3513 19.1097 23.4084 19.0877 23.4616C19.0657 23.5148 19.0334 23.5631 18.9927 23.6039C18.952 23.6446 18.9036 23.6769 18.8504 23.6989C18.7972 23.7209 18.7402 23.7322 18.6826 23.7321H17.2403V22.8907C17.2403 22.7595 17.1881 22.6336 17.0954 22.5409C17.0026 22.4481 16.8767 22.3959 16.7455 22.3959C16.6143 22.3959 16.4884 22.4481 16.3956 22.5409C16.3028 22.6336 16.2507 22.7595 16.2507 22.8907V23.7331H14.37V22.8917C14.37 22.7605 14.3179 22.6346 14.2251 22.5418C14.1323 22.449 14.0065 22.3969 13.8752 22.3969C13.744 22.3969 13.6181 22.449 13.5254 22.5418C13.4326 22.6346 13.3804 22.7605 13.3804 22.8917V23.7331H11.9381C11.8219 23.7331 11.7104 23.6869 11.6282 23.6047C11.5459 23.5225 11.4998 23.411 11.4998 23.2947V16.5492C11.4999 16.433 11.5461 16.3216 11.6283 16.2394C11.7105 16.1572 11.8219 16.111 11.9381 16.1108H13.3804V16.9522C13.3804 17.0835 13.4326 17.2093 13.5254 17.3021C13.6181 17.3949 13.744 17.447 13.8752 17.447C14.0065 17.447 14.1323 17.3949 14.2251 17.3021C14.3179 17.2093 14.37 17.0835 14.37 16.9522V16.1108H16.2507V16.9522C16.2507 17.0835 16.3028 17.2093 16.3956 17.3021C16.4884 17.3949 16.6143 17.447 16.7455 17.447C16.8767 17.447 17.0026 17.3949 17.0954 17.3021C17.1881 17.2093 17.2403 17.0835 17.2403 16.9522V16.1108H18.6826C18.7401 16.1108 18.7971 16.1222 18.8503 16.1442C18.9035 16.1662 18.9518 16.1985 18.9926 16.2392C19.0333 16.2799 19.0656 16.3283 19.0876 16.3815C19.1096 16.4346 19.121 16.4917 19.121 16.5492V16.5492Z" fill="#DC29DD"/>
<path d="M26.3946 18.4863C26.3946 18.6176 26.4467 18.7434 26.5395 18.8362C26.6323 18.929 26.7581 18.9811 26.8893 18.9811H27.7331V20.8618H26.8917C26.7605 20.8618 26.6347 20.914 26.5419 21.0067C26.4491 21.0995 26.3969 21.2254 26.3969 21.3566C26.3969 21.4879 26.4491 21.6137 26.5419 21.7065C26.6347 21.7993 26.7605 21.8514 26.8917 21.8514H27.7331V23.2937C27.7331 23.41 27.6869 23.5215 27.6047 23.6037C27.5225 23.6859 27.411 23.7321 27.2947 23.7321H25.8515V22.8907C25.8515 22.7595 25.7994 22.6336 25.7066 22.5409C25.6138 22.4481 25.4879 22.3959 25.3567 22.3959C25.2255 22.3959 25.0996 22.4481 25.0068 22.5409C24.914 22.6336 24.8619 22.7595 24.8619 22.8907V23.7331H22.9812V22.8917C22.9772 22.7631 22.9233 22.641 22.8309 22.5515C22.7385 22.4619 22.6149 22.4118 22.4862 22.4118C22.3575 22.4118 22.2339 22.4619 22.1415 22.5515C22.0491 22.641 21.9952 22.7631 21.9912 22.8917V23.7331H20.5493C20.4918 23.7331 20.4347 23.7218 20.3815 23.6998C20.3283 23.6778 20.2799 23.6455 20.2392 23.6048C20.1985 23.5641 20.1662 23.5157 20.1442 23.4625C20.1222 23.4093 20.1109 23.3523 20.111 23.2947V16.5492C20.111 16.433 20.1571 16.3215 20.2394 16.2392C20.3216 16.157 20.4331 16.1108 20.5493 16.1108H27.2938C27.41 16.111 27.5214 16.1572 27.6036 16.2394C27.6858 16.3216 27.732 16.433 27.7322 16.5492V17.9915H26.8908C26.8257 17.9913 26.7612 18.004 26.701 18.0288C26.6408 18.0536 26.5861 18.09 26.54 18.136C26.4939 18.1819 26.4573 18.2365 26.4324 18.2967C26.4074 18.3568 26.3946 18.4212 26.3946 18.4863V18.4863Z" fill="#27A2FD"/>
<path d="M36.343 16.5492V23.2937C36.3431 23.3513 36.3318 23.4084 36.3098 23.4616C36.2878 23.5148 36.2555 23.5631 36.2147 23.6039C36.174 23.6446 36.1257 23.6769 36.0725 23.6989C36.0192 23.7209 35.9622 23.7322 35.9046 23.7321H29.1602C29.0439 23.7321 28.9324 23.6859 28.8502 23.6037C28.768 23.5215 28.7218 23.41 28.7218 23.2937V21.8514H29.5632C29.6944 21.8514 29.8203 21.7993 29.9131 21.7065C30.0058 21.6137 30.058 21.4879 30.058 21.3566C30.058 21.2254 30.0058 21.0995 29.9131 21.0068C29.8203 20.914 29.6944 20.8618 29.5632 20.8618H28.7218V18.9811H29.5632C29.6944 18.9811 29.8203 18.929 29.9131 18.8362C30.0058 18.7434 30.058 18.6176 30.058 18.4863C30.058 18.3551 30.0058 18.2293 29.9131 18.1365C29.8203 18.0437 29.6944 17.9915 29.5632 17.9915H28.7218V16.5492C28.7219 16.433 28.7682 16.3216 28.8503 16.2394C28.9325 16.1572 29.044 16.111 29.1602 16.1108H30.6015V16.9522C30.6015 17.0835 30.6537 17.2093 30.7464 17.3021C30.8392 17.3949 30.9651 17.447 31.0963 17.447C31.2275 17.447 31.3534 17.3949 31.4462 17.3021C31.539 17.2093 31.5911 17.0835 31.5911 16.9522V16.1108H33.4718V16.9522C33.4718 17.0835 33.5239 17.2093 33.6167 17.3021C33.7095 17.3949 33.8353 17.447 33.9666 17.447C34.0978 17.447 34.2237 17.3949 34.3164 17.3021C34.4092 17.2093 34.4614 17.0835 34.4614 16.9522V16.1108H35.9037C35.9613 16.1107 36.0184 16.122 36.0717 16.1439C36.125 16.1659 36.1735 16.1982 36.2143 16.2389C36.2551 16.2796 36.2874 16.328 36.3095 16.3812C36.3316 16.4345 36.343 16.4916 36.343 16.5492Z" fill="#3344FF"/>
<path d="M17.7848 27.0977C17.7849 27.2289 17.8371 27.3546 17.9298 27.4474C18.0226 27.5402 18.1484 27.5923 18.2796 27.5925H19.121V29.4727H18.2796C18.1509 29.4767 18.0289 29.5306 17.9394 29.623C17.8498 29.7154 17.7997 29.839 17.7997 29.9677C17.7997 30.0964 17.8498 30.2201 17.9394 30.3125C18.0289 30.4049 18.1509 30.4588 18.2796 30.4628H19.121V31.9051C19.121 32.0213 19.0748 32.1328 18.9926 32.2151C18.9103 32.2973 18.7988 32.3435 18.6826 32.3435H11.9381C11.8219 32.3433 11.7105 32.2971 11.6283 32.2149C11.5461 32.1327 11.4999 32.0213 11.4998 31.9051V25.1606C11.4998 25.0443 11.5459 24.9328 11.6282 24.8506C11.7104 24.7684 11.8219 24.7222 11.9381 24.7222H13.3804V25.5631C13.3804 25.6943 13.4326 25.8202 13.5254 25.913C13.6181 26.0058 13.744 26.0579 13.8752 26.0579C14.0065 26.0579 14.1323 26.0058 14.2251 25.913C14.3179 25.8202 14.37 25.6943 14.37 25.5631V24.7222H16.2507V25.5631C16.2507 25.6943 16.3028 25.8202 16.3956 25.913C16.4884 26.0058 16.6143 26.0579 16.7455 26.0579C16.8767 26.0579 17.0026 26.0058 17.0954 25.913C17.1881 25.8202 17.2403 25.6943 17.2403 25.5631V24.7222H18.6826C18.7402 24.7221 18.7972 24.7334 18.8504 24.7554C18.9036 24.7774 18.952 24.8097 18.9927 24.8504C19.0334 24.8912 19.0657 24.9395 19.0877 24.9927C19.1097 25.0459 19.121 25.103 19.121 25.1606V26.6014H18.2796C18.2145 26.6015 18.1501 26.6144 18.09 26.6394C18.0299 26.6644 17.9753 26.7009 17.9293 26.747C17.8834 26.7931 17.847 26.8478 17.8222 26.908C17.7974 26.9681 17.7847 27.0326 17.7848 27.0977Z" fill="#9722FF"/>
<path d="M27.7331 25.1606V31.9051C27.733 32.0213 27.6868 32.1327 27.6046 32.2149C27.5224 32.2971 27.411 32.3433 27.2947 32.3435H20.5493C20.4331 32.3435 20.3216 32.2973 20.2394 32.2151C20.1571 32.1328 20.111 32.0213 20.111 31.9051V30.4628H20.9519C21.0182 30.4648 21.0842 30.4535 21.1461 30.4296C21.2079 30.4056 21.2643 30.3695 21.312 30.3233C21.3596 30.2772 21.3975 30.2219 21.4233 30.1608C21.4492 30.0997 21.4625 30.0341 21.4625 29.9677C21.4625 29.9014 21.4492 29.8357 21.4233 29.7746C21.3975 29.7136 21.3596 29.6583 21.312 29.6121C21.2643 29.5659 21.2079 29.5298 21.1461 29.5059C21.0842 29.4819 21.0182 29.4706 20.9519 29.4727H20.111V27.5925H20.9519C21.0182 27.5945 21.0842 27.5833 21.1461 27.5593C21.2079 27.5354 21.2643 27.4992 21.312 27.453C21.3596 27.4069 21.3975 27.3516 21.4233 27.2905C21.4492 27.2294 21.4625 27.1638 21.4625 27.0974C21.4625 27.0311 21.4492 26.9654 21.4233 26.9044C21.3975 26.8433 21.3596 26.788 21.312 26.7418C21.2643 26.6957 21.2079 26.6595 21.1461 26.6356C21.0842 26.6116 21.0182 26.6003 20.9519 26.6024H20.111V25.1606C20.1109 25.103 20.1222 25.0459 20.1442 24.9927C20.1662 24.9395 20.1985 24.8912 20.2392 24.8504C20.2799 24.8097 20.3283 24.7774 20.3815 24.7554C20.4347 24.7334 20.4918 24.7221 20.5493 24.7222H21.9912V25.5631C21.9891 25.6294 22.0004 25.6954 22.0243 25.7573C22.0483 25.8192 22.0844 25.8756 22.1306 25.9232C22.1768 25.9708 22.232 26.0087 22.2931 26.0346C22.3542 26.0604 22.4199 26.0738 22.4862 26.0738C22.5525 26.0738 22.6182 26.0604 22.6793 26.0346C22.7404 26.0087 22.7956 25.9708 22.8418 25.9232C22.888 25.8756 22.9241 25.8192 22.9481 25.7573C22.972 25.6954 22.9833 25.6294 22.9812 25.5631V24.7222H24.8619V25.5631C24.8619 25.6281 24.8747 25.6924 24.8996 25.7524C24.9244 25.8125 24.9609 25.867 25.0068 25.913C25.0528 25.9589 25.1073 25.9954 25.1673 26.0202C25.2274 26.0451 25.2917 26.0579 25.3567 26.0579C25.4217 26.0579 25.486 26.0451 25.546 26.0202C25.6061 25.9954 25.6606 25.9589 25.7066 25.913C25.7525 25.867 25.789 25.8125 25.8138 25.7524C25.8387 25.6924 25.8515 25.6281 25.8515 25.5631V24.7222H27.2938C27.3514 24.7221 27.4085 24.7333 27.4618 24.7553C27.5151 24.7773 27.5636 24.8095 27.6044 24.8502C27.6452 24.891 27.6776 24.9393 27.6997 24.9926C27.7217 25.0458 27.7331 25.1029 27.7331 25.1606V25.1606Z" fill="#3344FF"/>
<path d="M33.8007 25.0318L29.0317 29.8009C28.8605 29.9721 28.8605 30.2497 29.0317 30.4209L33.8007 35.19C33.9719 35.3612 34.2495 35.3612 34.4207 35.19L39.1897 30.4209C39.3609 30.2497 39.3609 29.9721 39.1897 29.8009L34.4207 25.0318C34.2495 24.8606 33.9719 24.8606 33.8007 25.0318Z" fill="#9722FF"/>
</g>
<g filter="url(#filter1_d_28_699)">
<path d="M46.8787 18V9.99998H49.7302C50.35 9.99998 50.8643 10.1067 51.2732 10.3203C51.6847 10.5338 51.9919 10.8294 52.1951 11.207C52.3982 11.582 52.4998 12.0156 52.4998 12.5078C52.4998 12.9974 52.3969 13.4284 52.1912 13.8008C51.988 14.1705 51.6807 14.4583 51.2693 14.664C50.8604 14.8698 50.3461 14.9726 49.7263 14.9726H47.5662V13.9336H49.6169C50.0076 13.9336 50.3253 13.8776 50.5701 13.7656C50.8175 13.6536 50.9985 13.4909 51.113 13.2773C51.2276 13.0638 51.2849 12.8073 51.2849 12.5078C51.2849 12.2057 51.2263 11.944 51.1091 11.7226C50.9945 11.5013 50.8136 11.332 50.5662 11.2148C50.3214 11.095 49.9998 11.0351 49.6013 11.0351H48.0857V18H46.8787ZM50.8279 14.3906L52.8044 18H51.4294L49.4919 14.3906H50.8279ZM56.3855 18.1211C55.7943 18.1211 55.2852 17.9948 54.8582 17.7422C54.4337 17.487 54.1055 17.1289 53.8738 16.6679C53.6446 16.2044 53.53 15.6614 53.53 15.039C53.53 14.4245 53.6446 13.8828 53.8738 13.414C54.1055 12.9453 54.4285 12.5794 54.8425 12.3164C55.2592 12.0534 55.7462 11.9219 56.3035 11.9219C56.642 11.9219 56.9701 11.9778 57.2878 12.0898C57.6055 12.2018 57.8907 12.3776 58.1433 12.6172C58.3959 12.8567 58.5951 13.1679 58.741 13.5508C58.8868 13.931 58.9597 14.3932 58.9597 14.9375V15.3515H54.1902V14.4765H57.8152C57.8152 14.1692 57.7527 13.8971 57.6277 13.6601C57.5027 13.4205 57.3269 13.2317 57.1003 13.0937C56.8764 12.9557 56.6134 12.8867 56.3113 12.8867C55.9832 12.8867 55.6967 12.9674 55.4519 13.1289C55.2097 13.2877 55.0222 13.4961 54.8894 13.7539C54.7592 14.0091 54.6941 14.2864 54.6941 14.5859V15.2695C54.6941 15.6705 54.7644 16.0117 54.905 16.2929C55.0483 16.5742 55.2475 16.789 55.5027 16.9375C55.7579 17.0833 56.0561 17.1562 56.3972 17.1562C56.6186 17.1562 56.8204 17.125 57.0027 17.0625C57.185 16.9974 57.3425 16.901 57.4753 16.7734C57.6082 16.6458 57.7097 16.4883 57.78 16.3008L58.8855 16.5C58.797 16.8255 58.6381 17.1107 58.4089 17.3554C58.1824 17.5976 57.8972 17.7864 57.5535 17.9218C57.2123 18.0547 56.823 18.1211 56.3855 18.1211ZM64.3064 20.25V17.0664H64.2361C64.1658 17.194 64.0642 17.3398 63.9314 17.5039C63.8012 17.6679 63.6215 17.8112 63.3923 17.9336C63.1632 18.056 62.8663 18.1172 62.5017 18.1172C62.0173 18.1172 61.585 17.9935 61.2048 17.7461C60.8272 17.4961 60.5304 17.1406 60.3142 16.6797C60.1007 16.2161 59.9939 15.6601 59.9939 15.0117C59.9939 14.3633 60.102 13.8086 60.3181 13.3476C60.5369 12.8867 60.8363 12.5338 61.2165 12.289C61.5968 12.0442 62.0277 11.9219 62.5095 11.9219C62.8819 11.9219 63.1814 11.9844 63.408 12.1094C63.6371 12.2317 63.8142 12.375 63.9392 12.539C64.0668 12.7031 64.1658 12.8476 64.2361 12.9726H64.3337V12H65.4744V20.25H64.3064ZM62.7595 17.1211C63.0955 17.1211 63.3793 17.0325 63.6111 16.8554C63.8455 16.6758 64.0225 16.4271 64.1423 16.1093C64.2647 15.7916 64.3259 15.4218 64.3259 15C64.3259 14.5833 64.266 14.2187 64.1462 13.9062C64.0264 13.5937 63.8507 13.3502 63.6189 13.1758C63.3871 13.0013 63.1007 12.914 62.7595 12.914C62.408 12.914 62.115 13.0052 61.8806 13.1875C61.6462 13.3698 61.4692 13.6185 61.3494 13.9336C61.2322 14.2487 61.1736 14.6041 61.1736 15C61.1736 15.401 61.2335 15.7617 61.3533 16.082C61.4731 16.4023 61.6501 16.6562 61.8845 16.8437C62.1215 17.0286 62.4132 17.1211 62.7595 17.1211ZM70.8455 15.5117V12H72.0173V18H70.8689V16.9609H70.8064C70.6684 17.2812 70.447 17.5482 70.1423 17.7617C69.8402 17.9726 69.4639 18.0781 69.0134 18.0781C68.628 18.0781 68.2869 17.9935 67.99 17.8242C67.6957 17.6523 67.4639 17.3984 67.2947 17.0625C67.128 16.7265 67.0447 16.3112 67.0447 15.8164V12H68.2126V15.6758C68.2126 16.0846 68.3259 16.4101 68.5525 16.6523C68.779 16.8945 69.0733 17.0156 69.4353 17.0156C69.654 17.0156 69.8715 16.9609 70.0876 16.8515C70.3064 16.7422 70.4874 16.5768 70.6306 16.3554C70.7764 16.1341 70.8481 15.8528 70.8455 15.5117ZM73.5867 18V12H74.7546V18H73.5867ZM74.1765 11.0742C73.9734 11.0742 73.7989 11.0065 73.6531 10.8711C73.5098 10.733 73.4382 10.569 73.4382 10.3789C73.4382 10.1862 73.5098 10.0221 73.6531 9.88669C73.7989 9.74867 73.9734 9.67966 74.1765 9.67966C74.3796 9.67966 74.5528 9.74867 74.696 9.88669C74.8419 10.0221 74.9148 10.1862 74.9148 10.3789C74.9148 10.569 74.8419 10.733 74.696 10.8711C74.5528 11.0065 74.3796 11.0742 74.1765 11.0742ZM76.3259 18V12H77.4548V12.9531H77.5173C77.6267 12.6302 77.8194 12.3763 78.0954 12.1914C78.3741 12.0039 78.6892 11.9101 79.0408 11.9101C79.1137 11.9101 79.1996 11.9127 79.2986 11.9179C79.4001 11.9232 79.4796 11.9297 79.5369 11.9375V13.0547C79.49 13.0416 79.4066 13.0273 79.2869 13.0117C79.1671 12.9935 79.0473 12.9844 78.9275 12.9844C78.6514 12.9844 78.4053 13.0429 78.1892 13.1601C77.9757 13.2747 77.8064 13.4349 77.6814 13.6406C77.5564 13.8437 77.4939 14.0755 77.4939 14.3359V18H76.3259ZM82.9187 18.1211C82.3275 18.1211 81.8184 17.9948 81.3913 17.7422C80.9669 17.487 80.6387 17.1289 80.407 16.6679C80.1778 16.2044 80.0632 15.6614 80.0632 15.039C80.0632 14.4245 80.1778 13.8828 80.407 13.414C80.6387 12.9453 80.9617 12.5794 81.3757 12.3164C81.7924 12.0534 82.2794 11.9219 82.8367 11.9219C83.1752 11.9219 83.5033 11.9778 83.821 12.0898C84.1387 12.2018 84.4239 12.3776 84.6765 12.6172C84.9291 12.8567 85.1283 13.1679 85.2742 13.5508C85.42 13.931 85.4929 14.3932 85.4929 14.9375V15.3515H80.7234V14.4765H84.3484C84.3484 14.1692 84.2859 13.8971 84.1609 13.6601C84.0359 13.4205 83.8601 13.2317 83.6335 13.0937C83.4096 12.9557 83.1466 12.8867 82.8445 12.8867C82.5163 12.8867 82.2299 12.9674 81.9851 13.1289C81.7429 13.2877 81.5554 13.4961 81.4226 13.7539C81.2924 14.0091 81.2273 14.2864 81.2273 14.5859V15.2695C81.2273 15.6705 81.2976 16.0117 81.4382 16.2929C81.5815 16.5742 81.7807 16.789 82.0359 16.9375C82.2911 17.0833 82.5893 17.1562 82.9304 17.1562C83.1518 17.1562 83.3536 17.125 83.5359 17.0625C83.7182 16.9974 83.8757 16.901 84.0085 16.7734C84.1413 16.6458 84.2429 16.4883 84.3132 16.3008L85.4187 16.5C85.3301 16.8255 85.1713 17.1107 84.9421 17.3554C84.7156 17.5976 84.4304 17.7864 84.0867 17.9218C83.7455 18.0547 83.3562 18.1211 82.9187 18.1211ZM91.2849 13.4648L90.2263 13.6523C90.182 13.5169 90.1117 13.388 90.0154 13.2656C89.9216 13.1432 89.794 13.0429 89.6326 12.9648C89.4711 12.8867 89.2693 12.8476 89.0271 12.8476C88.6964 12.8476 88.4203 12.9219 88.199 13.0703C87.9776 13.2161 87.8669 13.4049 87.8669 13.6367C87.8669 13.8372 87.9411 13.9987 88.0896 14.1211C88.238 14.2435 88.4776 14.3437 88.8083 14.4218L89.7615 14.6406C90.3135 14.7682 90.725 14.9648 90.9958 15.2304C91.2667 15.4961 91.4021 15.8411 91.4021 16.2656C91.4021 16.625 91.2979 16.9453 91.0896 17.2265C90.8839 17.5052 90.5961 17.7239 90.2263 17.8828C89.8591 18.0416 89.4333 18.1211 88.949 18.1211C88.2771 18.1211 87.7289 17.9778 87.3044 17.6914C86.88 17.4023 86.6195 16.9922 86.5232 16.4609L87.6521 16.289C87.7224 16.5833 87.8669 16.806 88.0857 16.957C88.3044 17.1054 88.5896 17.1797 88.9411 17.1797C89.324 17.1797 89.63 17.1002 89.8591 16.9414C90.0883 16.7799 90.2029 16.5833 90.2029 16.3515C90.2029 16.164 90.1326 16.0065 89.9919 15.8789C89.8539 15.7513 89.6417 15.6549 89.3552 15.5898L88.3396 15.3672C87.7797 15.2396 87.3656 15.0364 87.0974 14.7578C86.8318 14.4791 86.699 14.1263 86.699 13.6992C86.699 13.345 86.7979 13.0351 86.9958 12.7695C87.1938 12.5039 87.4672 12.2969 87.8161 12.1484C88.1651 11.9974 88.5648 11.9219 89.0154 11.9219C89.6638 11.9219 90.1742 12.0625 90.5466 12.3437C90.919 12.6224 91.1651 12.9961 91.2849 13.4648Z" fill="#E8E8E8"/>
<path d="M49.9969 27.8636H51.7015L52.4259 28.7883L53.3762 29.8792L54.8378 31.6818H52.9287L51.906 30.4588L51.3009 29.5895L49.9969 27.8636ZM54.8975 26.6363C54.8975 27.5966 54.7128 28.4105 54.3435 29.0781C53.9742 29.7457 53.4742 30.2528 52.8435 30.5994C52.2157 30.946 51.5111 31.1193 50.7299 31.1193C49.9458 31.1193 49.2398 30.9446 48.612 30.5951C47.9841 30.2457 47.4856 29.7386 47.1162 29.0738C46.7498 28.4062 46.5665 27.5937 46.5665 26.6363C46.5665 25.6761 46.7498 24.8622 47.1162 24.1946C47.4856 23.527 47.9841 23.0199 48.612 22.6733C49.2398 22.3267 49.9458 22.1534 50.7299 22.1534C51.5111 22.1534 52.2157 22.3267 52.8435 22.6733C53.4742 23.0199 53.9742 23.527 54.3435 24.1946C54.7128 24.8622 54.8975 25.6761 54.8975 26.6363ZM52.7412 26.6363C52.7412 26.0681 52.6603 25.588 52.4983 25.196C52.3392 24.8039 52.1091 24.5071 51.808 24.3054C51.5097 24.1037 51.1503 24.0028 50.7299 24.0028C50.3123 24.0028 49.9529 24.1037 49.6517 24.3054C49.3506 24.5071 49.1191 24.8039 48.9571 25.196C48.7981 25.588 48.7185 26.0681 48.7185 26.6363C48.7185 27.2045 48.7981 27.6846 48.9571 28.0767C49.1191 28.4687 49.3506 28.7656 49.6517 28.9673C49.9529 29.169 50.3123 29.2699 50.7299 29.2699C51.1503 29.2699 51.5097 29.169 51.808 28.9673C52.1091 28.7656 52.3392 28.4687 52.4983 28.0767C52.6603 27.6846 52.7412 27.2045 52.7412 26.6363ZM60.3637 28.1747V24.4545H62.4433V31H60.4575V29.7812H60.3893C60.2444 30.1818 59.9973 30.5 59.6478 30.7358C59.3012 30.9687 58.8822 31.0852 58.3907 31.0852C57.9447 31.0852 57.5527 30.9829 57.2146 30.7784C56.8765 30.5738 56.6137 30.2883 56.4262 29.9218C56.2387 29.5525 56.1436 29.1207 56.1407 28.6264V24.4545H58.2245V28.2173C58.2274 28.5724 58.3211 28.8522 58.5058 29.0568C58.6904 29.2613 58.9419 29.3636 59.2601 29.3636C59.4674 29.3636 59.6535 29.3181 59.8183 29.2272C59.9859 29.1335 60.118 28.9985 60.2146 28.8224C60.314 28.6434 60.3637 28.4275 60.3637 28.1747ZM63.7696 31V24.4545H65.8534V31H63.7696ZM64.8137 23.6917C64.5211 23.6917 64.2696 23.5951 64.0594 23.402C63.8492 23.2059 63.7441 22.9701 63.7441 22.6946C63.7441 22.4218 63.8492 22.1889 64.0594 21.9957C64.2696 21.7997 64.5211 21.7017 64.8137 21.7017C65.1091 21.7017 65.3605 21.7997 65.5679 21.9957C65.7782 22.1889 65.8833 22.4218 65.8833 22.6946C65.8833 22.9701 65.7782 23.2059 65.5679 23.402C65.3605 23.5951 65.1091 23.6917 64.8137 23.6917ZM69.2636 22.2727V31H67.1798V22.2727H69.2636ZM74.2845 24.4545V25.9886H70.1553V24.4545H74.2845ZM71.0203 22.8863H73.1042V28.9417C73.1042 29.0696 73.124 29.1733 73.1638 29.2528C73.2064 29.3295 73.2675 29.3849 73.347 29.419C73.4266 29.4503 73.5218 29.4659 73.6326 29.4659C73.7121 29.4659 73.7959 29.4588 73.884 29.4446C73.9749 29.4275 74.0431 29.4133 74.0885 29.402L74.4039 30.9062C74.3044 30.9346 74.1638 30.9701 73.982 31.0128C73.803 31.0554 73.5885 31.0824 73.3385 31.0937C72.8499 31.1164 72.4309 31.0596 72.0814 30.9233C71.7348 30.7841 71.4692 30.5681 71.2845 30.2755C71.1027 29.9829 71.0147 29.615 71.0203 29.1718V22.8863ZM82.6432 24.8892C82.6148 24.5767 82.4884 24.3338 82.2639 24.1605C82.0424 23.9843 81.7256 23.8963 81.3137 23.8963C81.0409 23.8963 80.8137 23.9318 80.6318 24.0028C80.45 24.0738 80.3137 24.1718 80.2228 24.2968C80.1318 24.419 80.085 24.5596 80.0821 24.7187C80.0765 24.8494 80.102 24.9645 80.1588 25.0639C80.2185 25.1633 80.3037 25.2514 80.4145 25.3281C80.5282 25.402 80.6645 25.4673 80.8236 25.5241C80.9827 25.5809 81.1617 25.6306 81.3605 25.6733L82.1105 25.8437C82.5424 25.9375 82.923 26.0625 83.2526 26.2187C83.585 26.375 83.8634 26.561 84.0878 26.777C84.3151 26.9929 84.487 27.2414 84.6034 27.5227C84.7199 27.8039 84.7796 28.1193 84.7824 28.4687C84.7796 29.0199 84.6404 29.4929 84.3648 29.8878C84.0892 30.2826 83.6929 30.5852 83.1759 30.7954C82.6617 31.0056 82.0409 31.1108 81.3137 31.1108C80.5836 31.1108 79.9472 31.0014 79.4046 30.7826C78.862 30.5639 78.4401 30.2315 78.139 29.7855C77.8378 29.3395 77.683 28.7755 77.6745 28.0937H79.6943C79.7114 28.375 79.7867 28.6093 79.9202 28.7968C80.0537 28.9843 80.237 29.1264 80.4699 29.223C80.7057 29.3196 80.9784 29.3679 81.2881 29.3679C81.5722 29.3679 81.8137 29.3295 82.0125 29.2528C82.2142 29.1761 82.3691 29.0696 82.477 28.9332C82.585 28.7968 82.6404 28.6406 82.6432 28.4645C82.6404 28.2997 82.5892 28.1591 82.4898 28.0426C82.3904 27.9233 82.237 27.821 82.0296 27.7358C81.825 27.6477 81.5637 27.5667 81.2455 27.4929L80.3336 27.2798C79.5779 27.1065 78.9827 26.8267 78.548 26.4403C78.1134 26.0511 77.8975 25.5255 77.9003 24.8636C77.8975 24.3238 78.0424 23.8508 78.335 23.4446C78.6276 23.0383 79.0324 22.7216 79.5495 22.4943C80.0665 22.267 80.656 22.1534 81.3179 22.1534C81.9941 22.1534 82.5807 22.2684 83.0779 22.4985C83.5779 22.7258 83.9657 23.0454 84.2412 23.4574C84.5168 23.8693 84.6574 24.3466 84.6631 24.8892H82.6432ZM89.5424 24.4545V25.9886H85.4131V24.4545H89.5424ZM86.2782 22.8863H88.362V28.9417C88.362 29.0696 88.3818 29.1733 88.4216 29.2528C88.4642 29.3295 88.5253 29.3849 88.6049 29.419C88.6844 29.4503 88.7796 29.4659 88.8904 29.4659C88.9699 29.4659 89.0537 29.4588 89.1418 29.4446C89.2327 29.4275 89.3009 29.4133 89.3463 29.402L89.6617 30.9062C89.5622 30.9346 89.4216 30.9701 89.2398 31.0128C89.0608 31.0554 88.8463 31.0824 88.5963 31.0937C88.1077 31.1164 87.6887 31.0596 87.3392 30.9233C86.9926 30.7841 86.727 30.5681 86.5424 30.2755C86.3605 29.9829 86.2725 29.615 86.2782 29.1718V22.8863ZM92.4507 31.1108C92.0331 31.1108 91.6624 31.0412 91.3385 30.902C91.0175 30.7599 90.7632 30.5468 90.5757 30.2628C90.3911 29.9758 90.2987 29.6164 90.2987 29.1846C90.2987 28.821 90.3627 28.5142 90.4905 28.2642C90.6184 28.0142 90.7945 27.811 91.0189 27.6548C91.2434 27.4985 91.5019 27.3806 91.7945 27.3011C92.0871 27.2187 92.3996 27.1633 92.732 27.1349C93.1041 27.1008 93.4039 27.0653 93.6311 27.0284C93.8584 26.9886 94.0232 26.9332 94.1255 26.8622C94.2306 26.7883 94.2831 26.6846 94.2831 26.5511V26.5298C94.2831 26.311 94.2078 26.142 94.0573 26.0227C93.9067 25.9034 93.7036 25.8437 93.4479 25.8437C93.1723 25.8437 92.9507 25.9034 92.7831 26.0227C92.6155 26.142 92.509 26.3068 92.4635 26.517L90.5416 26.4488C90.5985 26.0511 90.7448 25.696 90.9806 25.3835C91.2192 25.0681 91.5459 24.821 91.9607 24.642C92.3783 24.4602 92.8797 24.3693 93.4649 24.3693C93.8826 24.3693 94.2675 24.419 94.6198 24.5184C94.972 24.615 95.2789 24.7571 95.5402 24.9446C95.8016 25.1292 96.0033 25.3565 96.1453 25.6264C96.2902 25.8963 96.3627 26.2045 96.3627 26.5511V31H94.4024V30.088H94.3513C94.2348 30.3096 94.0857 30.4971 93.9039 30.6505C93.7249 30.8039 93.5132 30.919 93.2689 30.9957C93.0274 31.0724 92.7547 31.1108 92.4507 31.1108ZM93.0942 29.7471C93.3186 29.7471 93.5203 29.7017 93.6993 29.6108C93.8811 29.5199 94.026 29.3949 94.134 29.2358C94.2419 29.0738 94.2959 28.8863 94.2959 28.6733V28.0511C94.2362 28.0824 94.1638 28.1108 94.0786 28.1363C93.9962 28.1619 93.9053 28.186 93.8058 28.2088C93.7064 28.2315 93.6041 28.2514 93.499 28.2684C93.3939 28.2855 93.2931 28.3011 93.1965 28.3153C93.0005 28.3466 92.8328 28.3949 92.6936 28.4602C92.5573 28.5255 92.4522 28.6108 92.3783 28.7159C92.3073 28.8181 92.2718 28.9403 92.2718 29.0824C92.2718 29.2983 92.3485 29.463 92.5019 29.5767C92.6581 29.6903 92.8556 29.7471 93.0942 29.7471ZM99.7206 27.267V31H97.6368V24.4545H99.6183V25.6562H99.6908C99.8357 25.2556 100.083 24.9417 100.432 24.7145C100.782 24.4843 101.198 24.3693 101.681 24.3693C102.141 24.3693 102.54 24.473 102.878 24.6804C103.219 24.8849 103.483 25.1718 103.671 25.5412C103.861 25.9076 103.955 26.3366 103.952 26.8281V31H101.868V27.2372C101.871 26.8735 101.779 26.5895 101.591 26.3849C101.407 26.1804 101.15 26.0781 100.82 26.0781C100.601 26.0781 100.408 26.1264 100.241 26.223C100.076 26.3167 99.9479 26.4517 99.857 26.6278C99.7689 26.8039 99.7235 27.017 99.7206 27.267ZM107.633 31.0937C107.15 31.0937 106.711 30.9687 106.316 30.7187C105.921 30.4687 105.606 30.0937 105.37 29.5937C105.134 29.0937 105.016 28.473 105.016 27.7315C105.016 26.9616 105.139 26.3281 105.383 25.8309C105.627 25.3338 105.947 24.9659 106.342 24.7272C106.739 24.4886 107.167 24.3693 107.624 24.3693C107.968 24.3693 108.262 24.4289 108.506 24.5483C108.751 24.6647 108.953 24.8153 109.112 25C109.271 25.1846 109.391 25.3764 109.474 25.5753H109.516V22.2727H111.6V31H109.538V29.9389H109.474C109.386 30.1406 109.261 30.3295 109.099 30.5056C108.937 30.6818 108.734 30.8238 108.489 30.9318C108.248 31.0397 107.962 31.0937 107.633 31.0937ZM108.357 29.4701C108.61 29.4701 108.826 29.3991 109.005 29.2571C109.184 29.1122 109.322 28.9091 109.418 28.6477C109.515 28.3863 109.563 28.0795 109.563 27.7272C109.563 27.3693 109.515 27.061 109.418 26.8025C109.325 26.544 109.187 26.3451 109.005 26.2059C108.826 26.0667 108.61 25.9971 108.357 25.9971C108.099 25.9971 107.88 26.0681 107.701 26.2102C107.522 26.3522 107.386 26.5525 107.292 26.811C107.201 27.0696 107.156 27.375 107.156 27.7272C107.156 28.0795 107.203 28.3863 107.296 28.6477C107.39 28.9091 107.525 29.1122 107.701 29.2571C107.88 29.3991 108.099 29.4701 108.357 29.4701ZM114.763 31.1108C114.346 31.1108 113.975 31.0412 113.651 30.902C113.33 30.7599 113.076 30.5468 112.888 30.2628C112.704 29.9758 112.611 29.6164 112.611 29.1846C112.611 28.821 112.675 28.5142 112.803 28.2642C112.931 28.0142 113.107 27.811 113.331 27.6548C113.556 27.4985 113.814 27.3806 114.107 27.3011C114.4 27.2187 114.712 27.1633 115.044 27.1349C115.417 27.1008 115.716 27.0653 115.944 27.0284C116.171 26.9886 116.336 26.9332 116.438 26.8622C116.543 26.7883 116.596 26.6846 116.596 26.5511V26.5298C116.596 26.311 116.52 26.142 116.37 26.0227C116.219 25.9034 116.016 25.8437 115.76 25.8437C115.485 25.8437 115.263 25.9034 115.096 26.0227C114.928 26.142 114.821 26.3068 114.776 26.517L112.854 26.4488C112.911 26.0511 113.057 25.696 113.293 25.3835C113.532 25.0681 113.858 24.821 114.273 24.642C114.691 24.4602 115.192 24.3693 115.777 24.3693C116.195 24.3693 116.58 24.419 116.932 24.5184C117.285 24.615 117.591 24.7571 117.853 24.9446C118.114 25.1292 118.316 25.3565 118.458 25.6264C118.603 25.8963 118.675 26.2045 118.675 26.5511V31H116.715V30.088H116.664C116.547 30.3096 116.398 30.4971 116.216 30.6505C116.037 30.8039 115.826 30.919 115.581 30.9957C115.34 31.0724 115.067 31.1108 114.763 31.1108ZM115.407 29.7471C115.631 29.7471 115.833 29.7017 116.012 29.6108C116.194 29.5199 116.339 29.3949 116.446 29.2358C116.554 29.0738 116.608 28.8863 116.608 28.6733V28.0511C116.549 28.0824 116.476 28.1108 116.391 28.1363C116.309 28.1619 116.218 28.186 116.118 28.2088C116.019 28.2315 115.917 28.2514 115.812 28.2684C115.706 28.2855 115.606 28.3011 115.509 28.3153C115.313 28.3466 115.145 28.3949 115.006 28.4602C114.87 28.5255 114.765 28.6108 114.691 28.7159C114.62 28.8181 114.584 28.9403 114.584 29.0824C114.584 29.2983 114.661 29.463 114.814 29.5767C114.971 29.6903 115.168 29.7471 115.407 29.7471ZM119.949 31V24.4545H121.973V25.6477H122.042C122.161 25.2159 122.356 24.8949 122.625 24.6846C122.895 24.4716 123.209 24.365 123.567 24.365C123.664 24.365 123.763 24.3721 123.865 24.3863C123.968 24.3977 124.063 24.4162 124.151 24.4417V26.2528C124.052 26.2187 123.921 26.1917 123.759 26.1718C123.6 26.152 123.458 26.142 123.333 26.142C123.086 26.142 122.863 26.1974 122.664 26.3082C122.468 26.4162 122.313 26.5681 122.199 26.7642C122.089 26.9574 122.033 27.1846 122.033 27.446V31H119.949ZM127.051 31.0937C126.568 31.0937 126.129 30.9687 125.734 30.7187C125.339 30.4687 125.024 30.0937 124.788 29.5937C124.552 29.0937 124.434 28.473 124.434 27.7315C124.434 26.9616 124.557 26.3281 124.801 25.8309C125.045 25.3338 125.365 24.9659 125.76 24.7272C126.157 24.4886 126.585 24.3693 127.042 24.3693C127.386 24.3693 127.68 24.4289 127.924 24.5483C128.169 24.6647 128.37 24.8153 128.53 25C128.689 25.1846 128.809 25.3764 128.892 25.5753H128.934V22.2727H131.018V31H128.956V29.9389H128.892C128.804 30.1406 128.679 30.3295 128.517 30.5056C128.355 30.6818 128.152 30.8238 127.907 30.9318C127.666 31.0397 127.38 31.0937 127.051 31.0937ZM127.775 29.4701C128.028 29.4701 128.244 29.3991 128.423 29.2571C128.602 29.1122 128.74 28.9091 128.836 28.6477C128.933 28.3863 128.981 28.0795 128.981 27.7272C128.981 27.3693 128.933 27.061 128.836 26.8025C128.743 26.544 128.605 26.3451 128.423 26.2059C128.244 26.0667 128.028 25.9971 127.775 25.9971C127.517 25.9971 127.298 26.0681 127.119 26.2102C126.94 26.3522 126.804 26.5525 126.71 26.811C126.619 27.0696 126.574 27.375 126.574 27.7272C126.574 28.0795 126.62 28.3863 126.714 28.6477C126.808 28.9091 126.943 29.1122 127.119 29.2571C127.298 29.3991 127.517 29.4701 127.775 29.4701ZM134.914 31V22.2727H137.024V29.2869H140.654V31H134.914ZM141.746 31V24.4545H143.83V31H141.746ZM142.79 23.6917C142.498 23.6917 142.246 23.5951 142.036 23.402C141.826 23.2059 141.721 22.9701 141.721 22.6946C141.721 22.4218 141.826 22.1889 142.036 21.9957C142.246 21.7997 142.498 21.7017 142.79 21.7017C143.086 21.7017 143.337 21.7997 143.544 21.9957C143.755 22.1889 143.86 22.4218 143.86 22.6946C143.86 22.9701 143.755 23.2059 143.544 23.402C143.337 23.5951 143.086 23.6917 142.79 23.6917ZM145.156 31V22.2727H147.24V25.5753H147.283C147.368 25.3764 147.489 25.1846 147.645 25C147.804 24.8153 148.006 24.6647 148.25 24.5483C148.497 24.4289 148.793 24.3693 149.136 24.3693C149.591 24.3693 150.016 24.4886 150.411 24.7272C150.808 24.9659 151.129 25.3338 151.374 25.8309C151.618 26.3281 151.74 26.9616 151.74 27.7315C151.74 28.473 151.622 29.0937 151.386 29.5937C151.153 30.0937 150.838 30.4687 150.44 30.7187C150.046 30.9687 149.607 31.0937 149.124 31.0937C148.794 31.0937 148.509 31.0397 148.267 30.9318C148.026 30.8238 147.823 30.6818 147.658 30.5056C147.496 30.3295 147.371 30.1406 147.283 29.9389H147.219V31H145.156ZM147.198 27.7272C147.198 28.0795 147.244 28.3863 147.338 28.6477C147.435 28.9091 147.573 29.1122 147.752 29.2571C147.933 29.3991 148.151 29.4701 148.403 29.4701C148.659 29.4701 148.877 29.3991 149.055 29.2571C149.234 29.1122 149.369 28.9091 149.46 28.6477C149.554 28.3863 149.601 28.0795 149.601 27.7272C149.601 27.375 149.554 27.0696 149.46 26.811C149.369 26.5525 149.234 26.3522 149.055 26.2102C148.879 26.0681 148.662 25.9971 148.403 25.9971C148.148 25.9971 147.93 26.0667 147.752 26.2059C147.573 26.3451 147.435 26.544 147.338 26.8025C147.244 27.061 147.198 27.3693 147.198 27.7272ZM152.832 31V24.4545H154.856V25.6477H154.924C155.044 25.2159 155.238 24.8949 155.508 24.6846C155.778 24.4716 156.092 24.365 156.45 24.365C156.547 24.365 156.646 24.3721 156.748 24.3863C156.851 24.3977 156.946 24.4162 157.034 24.4417V26.2528C156.934 26.2187 156.804 26.1917 156.642 26.1718C156.483 26.152 156.341 26.142 156.216 26.142C155.968 26.142 155.745 26.1974 155.547 26.3082C155.351 26.4162 155.196 26.5681 155.082 26.7642C154.971 26.9574 154.916 27.1846 154.916 27.446V31H152.832ZM159.482 31.1108C159.064 31.1108 158.694 31.0412 158.37 30.902C158.049 30.7599 157.794 30.5468 157.607 30.2628C157.422 29.9758 157.33 29.6164 157.33 29.1846C157.33 28.821 157.394 28.5142 157.522 28.2642C157.65 28.0142 157.826 27.811 158.05 27.6548C158.275 27.4985 158.533 27.3806 158.826 27.3011C159.118 27.2187 159.431 27.1633 159.763 27.1349C160.135 27.1008 160.435 27.0653 160.662 27.0284C160.89 26.9886 161.054 26.9332 161.157 26.8622C161.262 26.7883 161.314 26.6846 161.314 26.5511V26.5298C161.314 26.311 161.239 26.142 161.088 26.0227C160.938 25.9034 160.735 25.8437 160.479 25.8437C160.204 25.8437 159.982 25.9034 159.814 26.0227C159.647 26.142 159.54 26.3068 159.495 26.517L157.573 26.4488C157.63 26.0511 157.776 25.696 158.012 25.3835C158.25 25.0681 158.577 24.821 158.992 24.642C159.41 24.4602 159.911 24.3693 160.496 24.3693C160.914 24.3693 161.299 24.419 161.651 24.5184C162.003 24.615 162.31 24.7571 162.571 24.9446C162.833 25.1292 163.035 25.3565 163.177 25.6264C163.321 25.8963 163.394 26.2045 163.394 26.5511V31H161.434V30.088H161.383C161.266 30.3096 161.117 30.4971 160.935 30.6505C160.756 30.8039 160.544 30.919 160.3 30.9957C160.059 31.0724 159.786 31.1108 159.482 31.1108ZM160.125 29.7471C160.35 29.7471 160.552 29.7017 160.731 29.6108C160.912 29.5199 161.057 29.3949 161.165 29.2358C161.273 29.0738 161.327 28.8863 161.327 28.6733V28.0511C161.267 28.0824 161.195 28.1108 161.11 28.1363C161.027 28.1619 160.937 28.186 160.837 28.2088C160.738 28.2315 160.635 28.2514 160.53 28.2684C160.425 28.2855 160.324 28.3011 160.228 28.3153C160.032 28.3466 159.864 28.3949 159.725 28.4602C159.589 28.5255 159.483 28.6108 159.41 28.7159C159.339 28.8181 159.303 28.9403 159.303 29.0824C159.303 29.2983 159.38 29.463 159.533 29.5767C159.689 29.6903 159.887 29.7471 160.125 29.7471ZM164.668 31V24.4545H166.692V25.6477H166.76C166.88 25.2159 167.074 24.8949 167.344 24.6846C167.614 24.4716 167.928 24.365 168.286 24.365C168.383 24.365 168.482 24.3721 168.584 24.3863C168.687 24.3977 168.782 24.4162 168.87 24.4417V26.2528C168.77 26.2187 168.64 26.1917 168.478 26.1718C168.319 26.152 168.177 26.142 168.052 26.142C167.804 26.142 167.581 26.1974 167.383 26.3082C167.187 26.4162 167.032 26.5681 166.918 26.7642C166.807 26.9574 166.752 27.1846 166.752 27.446V31H164.668ZM169.719 31V24.4545H171.803V31H169.719ZM170.763 23.6917C170.47 23.6917 170.219 23.5951 170.009 23.402C169.798 23.2059 169.693 22.9701 169.693 22.6946C169.693 22.4218 169.798 22.1889 170.009 21.9957C170.219 21.7997 170.47 21.7017 170.763 21.7017C171.058 21.7017 171.31 21.7997 171.517 21.9957C171.727 22.1889 171.832 22.4218 171.832 22.6946C171.832 22.9701 171.727 23.2059 171.517 23.402C171.31 23.5951 171.058 23.6917 170.763 23.6917ZM176.189 31.1235C175.504 31.1235 174.913 30.9886 174.416 30.7187C173.922 30.446 173.541 30.0582 173.274 29.5554C173.01 29.0497 172.878 28.4488 172.878 27.7528C172.878 27.0767 173.011 26.4858 173.278 25.9801C173.545 25.4716 173.922 25.0767 174.407 24.7954C174.893 24.5113 175.466 24.3693 176.125 24.3693C176.591 24.3693 177.017 24.4417 177.403 24.5866C177.789 24.7315 178.123 24.946 178.405 25.2301C178.686 25.5142 178.905 25.865 179.061 26.2826C179.217 26.6974 179.295 27.1733 179.295 27.7102V28.2301H173.606V27.0199H177.356C177.353 26.7983 177.301 26.6008 177.199 26.4275C177.096 26.2542 176.956 26.1193 176.777 26.0227C176.601 25.9233 176.397 25.8735 176.167 25.8735C175.934 25.8735 175.726 25.9261 175.541 26.0312C175.356 26.1335 175.21 26.2741 175.102 26.4531C174.994 26.6292 174.937 26.8295 174.932 27.0539V28.2855C174.932 28.5525 174.984 28.7869 175.089 28.9886C175.194 29.1875 175.343 29.3423 175.537 29.4531C175.73 29.5639 175.96 29.6193 176.227 29.6193C176.412 29.6193 176.579 29.5937 176.73 29.5426C176.88 29.4914 177.01 29.4162 177.118 29.3167C177.226 29.2173 177.307 29.0951 177.361 28.9503L179.274 29.0056C179.194 29.4346 179.02 29.8082 178.75 30.1264C178.483 30.4417 178.132 30.6875 177.697 30.8636C177.263 31.0369 176.76 31.1235 176.189 31.1235ZM186.074 26.4531L184.161 26.5042C184.141 26.3679 184.087 26.2471 183.999 26.142C183.911 26.0341 183.796 25.9503 183.653 25.8906C183.514 25.8281 183.352 25.7968 183.168 25.7968C182.926 25.7968 182.72 25.8451 182.55 25.9417C182.382 26.0383 182.3 26.169 182.303 26.3338C182.3 26.4616 182.351 26.5724 182.456 26.6662C182.564 26.7599 182.756 26.8352 183.031 26.892L184.293 27.1306C184.946 27.2556 185.432 27.463 185.75 27.7528C186.071 28.0426 186.233 28.4261 186.236 28.9034C186.233 29.3522 186.1 29.7429 185.835 30.0753C185.574 30.4076 185.216 30.6662 184.761 30.8508C184.307 31.0326 183.787 31.1235 183.202 31.1235C182.267 31.1235 181.53 30.9318 180.99 30.5483C180.453 30.1619 180.146 29.6449 180.07 28.9971L182.128 28.946C182.173 29.1846 182.291 29.3664 182.482 29.4914C182.672 29.6164 182.915 29.6789 183.21 29.6789C183.477 29.6789 183.695 29.6292 183.862 29.5298C184.03 29.4304 184.115 29.2983 184.118 29.1335C184.115 28.9858 184.05 28.8679 183.922 28.7798C183.794 28.6889 183.594 28.6179 183.321 28.5667L182.179 28.3494C181.523 28.2301 181.034 28.0099 180.713 27.6889C180.392 27.365 180.233 26.9531 180.236 26.4531C180.233 26.0156 180.35 25.642 180.585 25.3324C180.821 25.0199 181.156 24.7812 181.591 24.6164C182.026 24.4517 182.538 24.3693 183.129 24.3693C184.016 24.3693 184.715 24.5554 185.226 24.9275C185.737 25.2968 186.02 25.8054 186.074 26.4531Z" fill="url(#paint1_linear_28_699)"/>
</g>
</g>
<rect x="0.749756" y="0.749977" width="195.5" height="38.5" rx="5.25" stroke="white" stroke-opacity="0.15" stroke-width="1.5"/>
<defs>
<filter id="filter0_d_28_699" x="5.99976" y="1.99998" width="37.3184" height="37.3184" filterUnits="userSpaceOnUse" color-interpolation-filters="sRGB">
<feFlood flood-opacity="0" result="BackgroundImageFix"/>
<feColorMatrix in="SourceAlpha" type="matrix" values="0 0 0 0 0 0 0 0 0 0 0 0 0 0 0 0 0 0 127 0" result="hardAlpha"/>
<feOffset/>
<feGaussianBlur stdDeviation="2"/>
<feComposite in2="hardAlpha" operator="out"/>
<feColorMatrix type="matrix" values="0 0 0 0 0 0 0 0 0 0 0 0 0 0 0 0 0 0 0.25 0"/>
<feBlend mode="normal" in2="BackgroundImageFix" result="effect1_dropShadow_28_699"/>
<feBlend mode="normal" in="SourceGraphic" in2="effect1_dropShadow_28_699" result="shape"/>
</filter>
<filter id="filter1_d_28_699" x="41.9998" y="2.99998" width="149" height="34" filterUnits="userSpaceOnUse" color-interpolation-filters="sRGB">
<feFlood flood-opacity="0" result="BackgroundImageFix"/>
<feColorMatrix in="SourceAlpha" type="matrix" values="0 0 0 0 0 0 0 0 0 0 0 0 0 0 0 0 0 0 127 0" result="hardAlpha"/>
<feOffset/>
<feGaussianBlur stdDeviation="2"/>
<feComposite in2="hardAlpha" operator="out"/>
<feColorMatrix type="matrix" values="0 0 0 0 0 0 0 0 0 0 0 0 0 0 0 0 0 0 0.25 0"/>
<feBlend mode="normal" in2="BackgroundImageFix" result="effect1_dropShadow_28_699"/>
<feBlend mode="normal" in="SourceGraphic" in2="effect1_dropShadow_28_699" result="shape"/>
</filter>
<linearGradient id="paint0_linear_28_699" x1="98.4997" y1="-2.28882e-05" x2="98.4997" y2="40" gradientUnits="userSpaceOnUse">
<stop stop-color="#2A0E2B"/>
<stop offset="1" stop-color="#0C1723"/>
</linearGradient>
<linearGradient id="paint1_linear_28_699" x1="45.9998" y1="20" x2="187" y2="20.0001" gradientUnits="userSpaceOnUse">
<stop stop-color="#E17BE1"/>
<stop offset="1" stop-color="#98A1FF"/>
</linearGradient>
<clipPath id="clip0_28_699">
<rect x="-0.000244141" y="-2.28882e-05" width="197" height="40" rx="6" fill="white"/>
</clipPath>
</defs>
</svg>
