<svg width="187" height="41" viewBox="0 0 187 41" fill="none" xmlns="http://www.w3.org/2000/svg">
<g clip-path="url(#clip0_1_475)">
<rect x="0.000488281" y="0.00418091" width="186.001" height="40.0014" rx="8" fill="url(#paint0_linear_1_475)"/>
<g filter="url(#filter0_d_1_475)">
<g clip-path="url(#clip1_1_475)">
<rect x="8.00049" y="6.00418" width="28.0014" height="28.0014" fill="#FFC4C4"/>
<mask id="mask0_1_475" style="mask-type:alpha" maskUnits="userSpaceOnUse" x="9" y="9" width="28" height="25">
<rect x="9.86426" y="13.4768" width="23.186" height="20.6512" transform="rotate(-9.78 9.86426 13.4768)" fill="#D9D9D9"/>
</mask>
<g mask="url(#mask0_1_475)">
<rect x="17.4432" y="9.16229" width="5.12521" height="19.6609" rx="2.56261" transform="rotate(-9.77729 17.4432 9.16229)" fill="white" fill-opacity="0.3" stroke="black" stroke-width="1.75009"/>
</g>
<mask id="mask1_1_475" style="mask-type:alpha" maskUnits="userSpaceOnUse" x="18" y="9" width="7" height="19">
<rect x="18.4111" y="9.62552" width="3.37512" height="18.165" rx="1.68756" transform="rotate(-9.77729 18.4111 9.62552)" fill="white"/>
</mask>
<g mask="url(#mask1_1_475)">
<rect x="12.6855" y="14.2822" width="20.6904" height="15.0476" fill="url(#paint1_linear_1_475)"/>
</g>
<path d="M29.1787 7.49525L40.2564 15.4546L27.8245 21.0684L29.1787 7.49525Z" fill="#FF5E5E"/>
<path d="M34.1586 24.0891L35.6277 34.7193L25.6872 30.6765L34.1586 24.0891Z" fill="#FFA337"/>
<path d="M9.93056 13.1967L16.5794 21.62L5.96022 23.1665L9.93056 13.1967Z" fill="#FFEE57"/>
</g>
</g>
<g filter="url(#filter1_d_1_475)">
<path d="M43.3603 26.5049V14.1412H47.888C48.7653 14.1412 49.4918 14.2861 50.0673 14.5759C50.6428 14.8617 51.0734 15.25 51.3592 15.741C51.6449 16.228 51.7878 16.7774 51.7878 17.3891C51.7878 17.9043 51.6932 18.3389 51.5041 18.6931C51.3149 19.0432 51.0614 19.325 50.7434 19.5383C50.4295 19.7475 50.0834 19.9005 49.7051 19.9971V20.1178C50.1156 20.1379 50.516 20.2707 50.9064 20.5162C51.3008 20.7577 51.6268 21.1018 51.8844 21.5486C52.142 21.9953 52.2708 22.5386 52.2708 23.1785C52.2708 23.8104 52.1219 24.3779 51.824 24.8809C51.5302 25.38 51.0755 25.7764 50.4597 26.0702C49.8439 26.36 49.0571 26.5049 48.0993 26.5049H43.3603ZM45.2257 24.9051H47.9181C48.8116 24.9051 49.4515 24.732 49.8379 24.3859C50.2243 24.0398 50.4174 23.6072 50.4174 23.088C50.4174 22.6976 50.3188 22.3394 50.1216 22.0134C49.9244 21.6874 49.6427 21.4278 49.2765 21.2346C48.9142 21.0415 48.4836 20.9449 47.9846 20.9449H45.2257V24.9051ZM45.2257 19.49H47.725C48.1435 19.49 48.5198 19.4095 48.8539 19.2485C49.1919 19.0875 49.4596 18.8621 49.6568 18.5724C49.858 18.2786 49.9586 17.9324 49.9586 17.534C49.9586 17.0229 49.7795 16.5943 49.4213 16.2481C49.0631 15.902 48.5138 15.729 47.7733 15.729H45.2257V19.49ZM60.2124 22.6594V17.2322H62.0234V26.5049H60.2486V24.8991H60.152C59.9387 25.3941 59.5966 25.8066 59.1257 26.1366C58.6588 26.4626 58.0773 26.6256 57.381 26.6256C56.7854 26.6256 56.2582 26.4948 55.7994 26.2332C55.3446 25.9676 54.9864 25.5752 54.7248 25.056C54.4672 24.5368 54.3384 23.8949 54.3384 23.1302V17.2322H56.1435V22.9129C56.1435 23.5448 56.3185 24.0478 56.6687 24.4221C57.0188 24.7964 57.4736 24.9836 58.033 24.9836C58.3711 24.9836 58.7071 24.8991 59.0412 24.73C59.3793 24.561 59.659 24.3054 59.8803 23.9633C60.1057 23.6212 60.2164 23.1866 60.2124 22.6594ZM64.4488 26.5049V17.2322H66.2538V26.5049H64.4488ZM65.3603 15.8014C65.0464 15.8014 64.7768 15.6968 64.5514 15.4875C64.33 15.2742 64.2194 15.0206 64.2194 14.7268C64.2194 14.429 64.33 14.1755 64.5514 13.9662C64.7768 13.7529 65.0464 13.6462 65.3603 13.6462C65.6743 13.6462 65.9419 13.7529 66.1633 13.9662C66.3886 14.1755 66.5013 14.429 66.5013 14.7268C66.5013 15.0206 66.3886 15.2742 66.1633 15.4875C65.9419 15.6968 65.6743 15.8014 65.3603 15.8014ZM70.4872 14.1412V26.5049H68.6822V14.1412H70.4872ZM77.244 17.2322V18.681H72.1791V17.2322H77.244ZM73.5374 15.0106H75.3424V23.7822C75.3424 24.1324 75.3947 24.396 75.4994 24.5731C75.604 24.7461 75.7388 24.8648 75.9038 24.9292C76.0729 24.9896 76.256 25.0198 76.4532 25.0198C76.5981 25.0198 76.7249 25.0097 76.8335 24.9896C76.9422 24.9695 77.0267 24.9534 77.0871 24.9413L77.4131 26.4324C77.3084 26.4727 77.1595 26.5129 76.9663 26.5532C76.7732 26.5974 76.5317 26.6216 76.2419 26.6256C75.767 26.6337 75.3243 26.5491 74.9138 26.3721C74.5033 26.195 74.1712 25.9213 73.9177 25.551C73.6641 25.1808 73.5374 24.7159 73.5374 24.1565V15.0106ZM87.6457 26.692C86.7764 26.692 86.0177 26.4928 85.3697 26.0944C84.7218 25.6959 84.2187 25.1385 83.8605 24.4221C83.5023 23.7058 83.3232 22.8686 83.3232 21.9108C83.3232 20.9489 83.5023 20.1077 83.8605 19.3873C84.2187 18.6669 84.7218 18.1075 85.3697 17.7091C86.0177 17.3106 86.7764 17.1114 87.6457 17.1114C88.515 17.1114 89.2736 17.3106 89.9216 17.7091C90.5696 18.1075 91.0726 18.6669 91.4308 19.3873C91.789 20.1077 91.9681 20.9489 91.9681 21.9108C91.9681 22.8686 91.789 23.7058 91.4308 24.4221C91.0726 25.1385 90.5696 25.6959 89.9216 26.0944C89.2736 26.4928 88.515 26.692 87.6457 26.692ZM87.6517 25.1768C88.2152 25.1768 88.682 25.0278 89.0523 24.73C89.4225 24.4322 89.6962 24.0358 89.8733 23.5407C90.0544 23.0457 90.145 22.5004 90.145 21.9047C90.145 21.3131 90.0544 20.7698 89.8733 20.2748C89.6962 19.7757 89.4225 19.3753 89.0523 19.0734C88.682 18.7716 88.2152 18.6206 87.6517 18.6206C87.0842 18.6206 86.6134 18.7716 86.2391 19.0734C85.8688 19.3753 85.5931 19.7757 85.412 20.2748C85.2349 20.7698 85.1464 21.3131 85.1464 21.9047C85.1464 22.5004 85.2349 23.0457 85.412 23.5407C85.5931 24.0358 85.8688 24.4322 86.2391 24.73C86.6134 25.0278 87.0842 25.1768 87.6517 25.1768ZM95.788 20.9992V26.5049H93.9829V17.2322H95.7155V18.7414H95.8302C96.0435 18.2504 96.3776 17.856 96.8324 17.5581C97.2912 17.2603 97.8687 17.1114 98.565 17.1114C99.1968 17.1114 99.7502 17.2442 100.225 17.5099C100.7 17.7715 101.068 18.1618 101.33 18.681C101.591 19.2002 101.722 19.8421 101.722 20.6068V26.5049H99.9172V20.8241C99.9172 20.152 99.7422 19.6268 99.392 19.2485C99.0419 18.8661 98.5609 18.675 97.9492 18.675C97.5306 18.675 97.1584 18.7655 96.8324 18.9466C96.5104 19.1277 96.2548 19.3934 96.0657 19.7435C95.8805 20.0896 95.788 20.5082 95.788 20.9992Z" fill="#E8E8E8"/>
<path d="M110.612 26.5049H107.4L111.572 14.1412H115.55L119.722 26.5049H116.51L113.606 17.2563H113.51L110.612 26.5049ZM110.183 21.6391H116.896V23.909H110.183V21.6391ZM123.859 26.6377C123.174 26.6377 122.553 26.4606 121.993 26.1064C121.434 25.7523 120.987 25.221 120.653 24.5127C120.319 23.8044 120.152 22.925 120.152 21.8746C120.152 20.7839 120.325 19.8864 120.671 19.1821C121.017 18.4778 121.47 17.9566 122.029 17.6185C122.593 17.2804 123.199 17.1114 123.846 17.1114C124.333 17.1114 124.75 17.1959 125.096 17.365C125.442 17.53 125.728 17.7433 125.953 18.0049C126.179 18.2665 126.35 18.5381 126.467 18.8199H126.527V14.1412H129.479V26.5049H126.557V25.0017H126.467C126.342 25.2874 126.165 25.5551 125.935 25.8046C125.706 26.0541 125.418 26.2554 125.072 26.4083C124.73 26.5612 124.325 26.6377 123.859 26.6377ZM124.885 24.3376C125.243 24.3376 125.549 24.237 125.802 24.0358C126.056 23.8305 126.251 23.5428 126.388 23.1725C126.525 22.8022 126.593 22.3676 126.593 21.8685C126.593 21.3614 126.525 20.9247 126.388 20.5585C126.255 20.1923 126.06 19.9105 125.802 19.7133C125.549 19.5161 125.243 19.4175 124.885 19.4175C124.519 19.4175 124.209 19.5181 123.955 19.7194C123.702 19.9206 123.508 20.2043 123.376 20.5706C123.247 20.9368 123.182 21.3695 123.182 21.8685C123.182 22.3676 123.249 22.8022 123.382 23.1725C123.514 23.5428 123.706 23.8305 123.955 24.0358C124.209 24.237 124.519 24.3376 124.885 24.3376ZM134.733 26.6377C134.048 26.6377 133.427 26.4606 132.867 26.1064C132.308 25.7523 131.861 25.221 131.527 24.5127C131.193 23.8044 131.026 22.925 131.026 21.8746C131.026 20.7839 131.199 19.8864 131.545 19.1821C131.891 18.4778 132.344 17.9566 132.903 17.6185C133.467 17.2804 134.073 17.1114 134.721 17.1114C135.207 17.1114 135.624 17.1959 135.97 17.365C136.316 17.53 136.602 17.7433 136.827 18.0049C137.053 18.2665 137.224 18.5381 137.341 18.8199H137.401V14.1412H140.353V26.5049H137.431V25.0017H137.341C137.216 25.2874 137.039 25.5551 136.809 25.8046C136.58 26.0541 136.292 26.2554 135.946 26.4083C135.604 26.5612 135.199 26.6377 134.733 26.6377ZM135.759 24.3376C136.117 24.3376 136.423 24.237 136.676 24.0358C136.93 23.8305 137.125 23.5428 137.262 23.1725C137.399 22.8022 137.467 22.3676 137.467 21.8685C137.467 21.3614 137.399 20.9247 137.262 20.5585C137.129 20.1923 136.934 19.9105 136.676 19.7133C136.423 19.5161 136.117 19.4175 135.759 19.4175C135.393 19.4175 135.083 19.5181 134.829 19.7194C134.576 19.9206 134.382 20.2043 134.25 20.5706C134.121 20.9368 134.056 21.3695 134.056 21.8685C134.056 22.3676 134.123 22.8022 134.256 23.1725C134.388 23.5428 134.58 23.8305 134.829 24.0358C135.083 24.237 135.393 24.3376 135.759 24.3376ZM142.22 26.5049V17.2322H145.172V26.5049H142.22ZM143.699 16.1515C143.284 16.1515 142.928 16.0147 142.63 15.741C142.333 15.4633 142.184 15.1293 142.184 14.7389C142.184 14.3525 142.333 14.0225 142.63 13.7488C142.928 13.4711 143.284 13.3323 143.699 13.3323C144.118 13.3323 144.474 13.4711 144.767 13.7488C145.065 14.0225 145.214 14.3525 145.214 14.7389C145.214 15.1293 145.065 15.4633 144.767 15.741C144.474 16.0147 144.118 16.1515 143.699 16.1515ZM152.285 17.2322V19.4054H146.435V17.2322H152.285ZM147.661 15.0106H150.613V23.589C150.613 23.7701 150.641 23.917 150.697 24.0297C150.758 24.1384 150.844 24.2169 150.957 24.2652C151.07 24.3094 151.204 24.3316 151.361 24.3316C151.474 24.3316 151.593 24.3215 151.717 24.3014C151.846 24.2773 151.943 24.2571 152.007 24.241L152.454 26.3721C152.313 26.4123 152.114 26.4626 151.856 26.523C151.603 26.5834 151.299 26.6216 150.945 26.6377C150.253 26.6699 149.659 26.5894 149.164 26.3962C148.673 26.199 148.297 25.8931 148.035 25.4786C147.777 25.0641 147.653 24.5429 147.661 23.915V15.0106ZM153.791 26.5049V17.2322H156.743V26.5049H153.791ZM155.27 16.1515C154.856 16.1515 154.5 16.0147 154.202 15.741C153.904 15.4633 153.755 15.1293 153.755 14.7389C153.755 14.3525 153.904 14.0225 154.202 13.7488C154.5 13.4711 154.856 13.3323 155.27 13.3323C155.689 13.3323 156.045 13.4711 156.339 13.7488C156.637 14.0225 156.785 14.3525 156.785 14.7389C156.785 15.1293 156.637 15.4633 156.339 15.741C156.045 16.0147 155.689 16.1515 155.27 16.1515ZM167.617 17.2322L164.436 26.5049H161.055L157.88 17.2322H160.989L162.697 23.6192H162.794L164.508 17.2322H167.617ZM172.785 26.6799C171.815 26.6799 170.978 26.4888 170.274 26.1064C169.573 25.7201 169.034 25.1707 168.656 24.4584C168.281 23.742 168.094 22.8908 168.094 21.9047C168.094 20.9469 168.283 20.1098 168.662 19.3934C169.04 18.673 169.573 18.1135 170.261 17.7151C170.95 17.3126 171.761 17.1114 172.694 17.1114C173.354 17.1114 173.958 17.214 174.505 17.4193C175.053 17.6246 175.526 17.9284 175.924 18.3309C176.323 18.7333 176.632 19.2304 176.854 19.822C177.075 20.4096 177.186 21.0837 177.186 21.8444V22.5809H169.126V20.8664H174.439C174.435 20.5525 174.361 20.2728 174.216 20.0273C174.071 19.7817 173.872 19.5906 173.618 19.4537C173.368 19.3129 173.081 19.2425 172.755 19.2425C172.425 19.2425 172.129 19.3169 171.867 19.4658C171.606 19.6107 171.398 19.8099 171.245 20.0635C171.093 20.313 171.012 20.5967 171.004 20.9147V22.6594C171.004 23.0377 171.078 23.3697 171.227 23.6554C171.376 23.9372 171.588 24.1565 171.861 24.3135C172.135 24.4704 172.461 24.5489 172.839 24.5489C173.101 24.5489 173.338 24.5127 173.552 24.4402C173.765 24.3678 173.948 24.2612 174.101 24.1203C174.254 23.9794 174.369 23.8064 174.445 23.6011L177.156 23.6796C177.043 24.2873 176.795 24.8165 176.413 25.2673C176.035 25.714 175.538 26.0622 174.922 26.3117C174.306 26.5572 173.594 26.6799 172.785 26.6799Z" fill="white"/>
</g>
</g>
<rect x="1.07192" y="1.07561" width="183.858" height="37.8585" rx="6.92857" stroke="white" stroke-opacity="0.15" stroke-width="2.14286"/>
<defs>
<filter id="filter0_d_1_475" x="2.40021" y="0.403901" width="39.202" height="39.202" filterUnits="userSpaceOnUse" color-interpolation-filters="sRGB">
<feFlood flood-opacity="0" result="BackgroundImageFix"/>
<feColorMatrix in="SourceAlpha" type="matrix" values="0 0 0 0 0 0 0 0 0 0 0 0 0 0 0 0 0 0 127 0" result="hardAlpha"/>
<feOffset/>
<feGaussianBlur stdDeviation="2.80014"/>
<feComposite in2="hardAlpha" operator="out"/>
<feColorMatrix type="matrix" values="0 0 0 0 0 0 0 0 0 0 0 0 0 0 0 0 0 0 0.25 0"/>
<feBlend mode="normal" in2="BackgroundImageFix" result="effect1_dropShadow_1_475"/>
<feBlend mode="normal" in="SourceGraphic" in2="effect1_dropShadow_1_475" result="shape"/>
</filter>
<filter id="filter1_d_1_475" x="36.2877" y="3.7906" width="147.429" height="32.4286" filterUnits="userSpaceOnUse" color-interpolation-filters="sRGB">
<feFlood flood-opacity="0" result="BackgroundImageFix"/>
<feColorMatrix in="SourceAlpha" type="matrix" values="0 0 0 0 0 0 0 0 0 0 0 0 0 0 0 0 0 0 127 0" result="hardAlpha"/>
<feOffset/>
<feGaussianBlur stdDeviation="2.85714"/>
<feComposite in2="hardAlpha" operator="out"/>
<feColorMatrix type="matrix" values="0 0 0 0 0 0 0 0 0 0 0 0 0 0 0 0 0 0 0.25 0"/>
<feBlend mode="normal" in2="BackgroundImageFix" result="effect1_dropShadow_1_475"/>
<feBlend mode="normal" in="SourceGraphic" in2="effect1_dropShadow_1_475" result="shape"/>
</filter>
<linearGradient id="paint0_linear_1_475" x1="93.0012" y1="0.00418091" x2="93.0012" y2="40.0056" gradientUnits="userSpaceOnUse">
<stop stop-color="#363313"/>
<stop offset="1" stop-color="#2D0F0F"/>
</linearGradient>
<linearGradient id="paint1_linear_1_475" x1="23.0307" y1="14.2822" x2="23.0307" y2="29.3298" gradientUnits="userSpaceOnUse">
<stop stop-color="#FF4D00"/>
<stop offset="0.0885417" stop-color="#FF4D00"/>
<stop offset="1" stop-color="#FF0000"/>
</linearGradient>
<clipPath id="clip0_1_475">
<rect x="0.000488281" y="0.00418091" width="186.001" height="40.0014" rx="8" fill="white"/>
</clipPath>
<clipPath id="clip1_1_475">
<rect x="8.00049" y="6.00418" width="28.0014" height="28.0014" rx="14.0007" fill="white"/>
</clipPath>
</defs>
</svg>
