<svg width="210" height="41" viewBox="0 0 210 41" fill="none" xmlns="http://www.w3.org/2000/svg">
<g clip-path="url(#clip0_1_454)">
<rect x="0.000488281" y="0.00279236" width="209.001" height="40.0014" rx="8" fill="url(#paint0_linear_1_454)"/>
<g filter="url(#filter0_d_1_454)">
<g clip-path="url(#clip1_1_454)">
<mask id="mask0_1_454" style="mask-type:alpha" maskUnits="userSpaceOnUse" x="8" y="6" width="29" height="29">
<path d="M36.0019 6.00279H8.00049V34.0042H36.0019V6.00279Z" fill="white"/>
</mask>
<g mask="url(#mask0_1_454)">
<path d="M36.0019 6.0028H8.00049V34.0042H36.0019V6.0028Z" fill="#CBFFF6"/>
<path d="M31.6267 32.2541C34.0431 32.2541 36.0019 30.2953 36.0019 27.8789C36.0019 25.4625 34.0431 23.5037 31.6267 23.5037C29.2103 23.5037 27.2515 25.4625 27.2515 27.8789C27.2515 30.2953 29.2103 32.2541 31.6267 32.2541Z" fill="#E5FF45"/>
<path d="M33.3768 20.0035C36.7597 20.0035 39.5021 17.2611 39.5021 13.8782C39.5021 10.4953 36.7597 7.75288 33.3768 7.75288C29.9939 7.75288 27.2515 10.4953 27.2515 13.8782C27.2515 17.2611 29.9939 20.0035 33.3768 20.0035Z" fill="#45FF79"/>
<path d="M11.5003 23.5037C14.3999 23.5037 16.7505 21.153 16.7505 18.2534C16.7505 15.3538 14.3999 13.0031 11.5003 13.0031C8.60062 13.0031 6.25 15.3538 6.25 18.2534C6.25 21.153 8.60062 23.5037 11.5003 23.5037Z" fill="#FFD18B"/>
<path d="M25.3338 16.9473C25.7091 15.5468 24.878 14.1074 23.4776 13.7321C22.0772 13.3569 20.6377 14.188 20.2625 15.5884L18.4506 22.3502C18.0754 23.7506 18.9065 25.1901 20.3069 25.5653C21.7073 25.9406 23.1468 25.1095 23.522 23.7091L25.3338 16.9473Z" fill="white" fill-opacity="0.3" stroke="black" stroke-width="1.75009"/>
<path d="M20.9252 26.637L21.1517 25.7917L19.4613 25.3388L19.2348 26.1841L20.9252 26.637ZM18.3289 29.5649C18.2038 30.0316 18.4808 30.5115 18.9476 30.6367C19.4144 30.7618 19.8942 30.4847 20.0193 30.0178L18.3289 29.5649ZM19.2348 26.1841L18.3289 29.5649L20.0193 30.0178L20.9252 26.637L19.2348 26.1841Z" fill="black"/>
<path d="M24.1571 11.1964L23.7041 12.8869" stroke="black" stroke-width="1.75009" stroke-linecap="square"/>
<path d="M27.5379 12.1023L20.7761 10.2905" stroke="black" stroke-width="1.75009" stroke-linecap="round"/>
<mask id="mask1_1_454" style="mask-type:alpha" maskUnits="userSpaceOnUse" x="19" y="14" width="6" height="11">
<path d="M24.4885 16.7208C24.7387 15.7871 24.1846 14.8275 23.251 14.5773C22.3174 14.3272 21.3578 14.8812 21.1076 15.8148L19.2958 22.5767C19.0456 23.5103 19.5997 24.4699 20.5333 24.7201C21.4669 24.9702 22.4265 24.4162 22.6767 23.4826L24.4885 16.7208Z" fill="white"/>
</mask>
<g mask="url(#mask1_1_454)">
<path d="M30.4162 17.8688H12.9153V24.8691H30.4162V17.8688Z" fill="url(#paint1_linear_1_454)"/>
</g>
</g>
</g>
</g>
<g filter="url(#filter1_d_1_454)">
<path d="M45.3603 26.5035V14.1399H49.888C50.7653 14.1399 51.4918 14.2847 52.0673 14.5745C52.6428 14.8603 53.0734 15.2486 53.3592 15.7396C53.6449 16.2266 53.7878 16.776 53.7878 17.3877C53.7878 17.9029 53.6932 18.3375 53.5041 18.6917C53.3149 19.0418 53.0614 19.3236 52.7434 19.5369C52.4295 19.7462 52.0834 19.8991 51.7051 19.9957V20.1164C52.1156 20.1365 52.516 20.2694 52.9064 20.5149C53.3008 20.7563 53.6268 21.1004 53.8844 21.5472C54.142 21.9939 54.2708 22.5372 54.2708 23.1771C54.2708 23.809 54.1219 24.3765 53.824 24.8796C53.5302 25.3786 53.0755 25.775 52.4597 26.0688C51.8439 26.3586 51.0571 26.5035 50.0993 26.5035H45.3603ZM47.2257 24.9037H49.9181C50.8116 24.9037 51.4515 24.7306 51.8379 24.3845C52.2243 24.0384 52.4174 23.6058 52.4174 23.0866C52.4174 22.6962 52.3188 22.338 52.1216 22.012C51.9244 21.686 51.6427 21.4264 51.2765 21.2332C50.9142 21.0401 50.4836 20.9435 49.9846 20.9435H47.2257V24.9037ZM47.2257 19.4886H49.725C50.1435 19.4886 50.5198 19.4081 50.8539 19.2471C51.1919 19.0861 51.4596 18.8607 51.6568 18.571C51.858 18.2772 51.9586 17.931 51.9586 17.5326C51.9586 17.0215 51.7795 16.5929 51.4213 16.2467C51.0631 15.9006 50.5138 15.7276 49.7733 15.7276H47.2257V19.4886ZM62.2124 22.658V17.2308H64.0234V26.5035H62.2486V24.8977H62.152C61.9387 25.3927 61.5966 25.8052 61.1257 26.1352C60.6588 26.4612 60.0773 26.6242 59.381 26.6242C58.7854 26.6242 58.2582 26.4934 57.7994 26.2318C57.3446 25.9662 56.9864 25.5738 56.7248 25.0546C56.4672 24.5354 56.3384 23.8935 56.3384 23.1288V17.2308H58.1435V22.9115C58.1435 23.5434 58.3185 24.0465 58.6687 24.4207C59.0188 24.795 59.4736 24.9822 60.033 24.9822C60.3711 24.9822 60.7071 24.8977 61.0412 24.7286C61.3793 24.5596 61.659 24.304 61.8803 23.9619C62.1057 23.6198 62.2164 23.1852 62.2124 22.658ZM66.4488 26.5035V17.2308H68.2538V26.5035H66.4488ZM67.3603 15.8C67.0464 15.8 66.7768 15.6954 66.5514 15.4861C66.33 15.2728 66.2194 15.0192 66.2194 14.7254C66.2194 14.4276 66.33 14.1741 66.5514 13.9648C66.7768 13.7515 67.0464 13.6448 67.3603 13.6448C67.6743 13.6448 67.9419 13.7515 68.1633 13.9648C68.3886 14.1741 68.5013 14.4276 68.5013 14.7254C68.5013 15.0192 68.3886 15.2728 68.1633 15.4861C67.9419 15.6954 67.6743 15.8 67.3603 15.8ZM72.4872 14.1399V26.5035H70.6822V14.1399H72.4872ZM79.244 17.2308V18.6796H74.1791V17.2308H79.244ZM75.5374 15.0092H77.3424V23.7808C77.3424 24.131 77.3947 24.3946 77.4994 24.5717C77.604 24.7447 77.7388 24.8635 77.9038 24.9279C78.0729 24.9882 78.256 25.0184 78.4532 25.0184C78.5981 25.0184 78.7249 25.0083 78.8335 24.9882C78.9422 24.9681 79.0267 24.952 79.0871 24.9399L79.4131 26.431C79.3084 26.4713 79.1595 26.5115 78.9663 26.5518C78.7732 26.5961 78.5317 26.6202 78.2419 26.6242C77.767 26.6323 77.3243 26.5478 76.9138 26.3707C76.5033 26.1936 76.1712 25.9199 75.9177 25.5497C75.6641 25.1794 75.5374 24.7145 75.5374 24.1551V15.0092ZM89.6457 26.6906C88.7764 26.6906 88.0177 26.4914 87.3697 26.093C86.7218 25.6945 86.2187 25.1371 85.8605 24.4207C85.5023 23.7044 85.3232 22.8672 85.3232 21.9094C85.3232 20.9475 85.5023 20.1064 85.8605 19.3859C86.2187 18.6655 86.7218 18.1061 87.3697 17.7077C88.0177 17.3092 88.7764 17.11 89.6457 17.11C90.515 17.11 91.2736 17.3092 91.9216 17.7077C92.5696 18.1061 93.0726 18.6655 93.4308 19.3859C93.789 20.1064 93.9681 20.9475 93.9681 21.9094C93.9681 22.8672 93.789 23.7044 93.4308 24.4207C93.0726 25.1371 92.5696 25.6945 91.9216 26.093C91.2736 26.4914 90.515 26.6906 89.6457 26.6906ZM89.6517 25.1754C90.2152 25.1754 90.682 25.0265 91.0523 24.7286C91.4225 24.4308 91.6962 24.0344 91.8733 23.5394C92.0544 23.0443 92.145 22.499 92.145 21.9033C92.145 21.3117 92.0544 20.7684 91.8733 20.2734C91.6962 19.7743 91.4225 19.3739 91.0523 19.072C90.682 18.7702 90.2152 18.6193 89.6517 18.6193C89.0842 18.6193 88.6134 18.7702 88.2391 19.072C87.8688 19.3739 87.5931 19.7743 87.412 20.2734C87.2349 20.7684 87.1464 21.3117 87.1464 21.9033C87.1464 22.499 87.2349 23.0443 87.412 23.5394C87.5931 24.0344 87.8688 24.4308 88.2391 24.7286C88.6134 25.0265 89.0842 25.1754 89.6517 25.1754ZM97.788 20.9978V26.5035H95.9829V17.2308H97.7155V18.74H97.8302C98.0435 18.249 98.3776 17.8546 98.8324 17.5568C99.2912 17.2589 99.8687 17.11 100.565 17.11C101.197 17.11 101.75 17.2428 102.225 17.5085C102.7 17.7701 103.068 18.1605 103.33 18.6796C103.591 19.1988 103.722 19.8407 103.722 20.6054V26.5035H101.917V20.8227C101.917 20.1506 101.742 19.6254 101.392 19.2471C101.042 18.8648 100.561 18.6736 99.9492 18.6736C99.5306 18.6736 99.1584 18.7641 98.8324 18.9453C98.5104 19.1264 98.2548 19.392 98.0657 19.7421C97.8805 20.0882 97.788 20.5068 97.788 20.9978Z" fill="#E8E8E8"/>
<path d="M112.612 26.5035H109.4L113.572 14.1399H117.55L121.722 26.5035H118.51L115.606 17.2549H115.51L112.612 26.5035ZM112.183 21.6377H118.896V23.9076H112.183V21.6377ZM125.859 26.6363C125.174 26.6363 124.553 26.4592 123.993 26.1051C123.434 25.7509 122.987 25.2196 122.653 24.5113C122.319 23.803 122.152 22.9236 122.152 21.8732C122.152 20.7825 122.325 19.885 122.671 19.1807C123.017 18.4764 123.47 17.9552 124.029 17.6171C124.593 17.2791 125.199 17.11 125.846 17.11C126.333 17.11 126.75 17.1945 127.096 17.3636C127.442 17.5286 127.728 17.7419 127.953 18.0035C128.179 18.2651 128.35 18.5368 128.467 18.8185H128.527V14.1399H131.479V26.5035H128.557V25.0003H128.467C128.342 25.286 128.165 25.5537 127.935 25.8032C127.706 26.0527 127.418 26.254 127.072 26.4069C126.73 26.5598 126.325 26.6363 125.859 26.6363ZM126.885 24.3362C127.243 24.3362 127.549 24.2356 127.802 24.0344C128.056 23.8291 128.251 23.5414 128.388 23.1711C128.525 22.8008 128.593 22.3662 128.593 21.8671C128.593 21.36 128.525 20.9234 128.388 20.5571C128.255 20.1909 128.06 19.9091 127.802 19.7119C127.549 19.5147 127.243 19.4161 126.885 19.4161C126.519 19.4161 126.209 19.5167 125.955 19.718C125.702 19.9192 125.508 20.2029 125.376 20.5692C125.247 20.9354 125.182 21.3681 125.182 21.8671C125.182 22.3662 125.249 22.8008 125.382 23.1711C125.514 23.5414 125.706 23.8291 125.955 24.0344C126.209 24.2356 126.519 24.3362 126.885 24.3362ZM133.346 26.5035V17.2308H136.213V18.9211H136.31C136.479 18.3094 136.755 17.8546 137.137 17.5568C137.519 17.2549 137.964 17.104 138.471 17.104C138.608 17.104 138.749 17.1141 138.894 17.1342C139.039 17.1503 139.174 17.1764 139.298 17.2127V19.7783C139.157 19.7301 138.972 19.6918 138.743 19.6636C138.518 19.6355 138.316 19.6214 138.139 19.6214C137.789 19.6214 137.473 19.6999 137.191 19.8568C136.914 20.0098 136.694 20.2251 136.533 20.5028C136.376 20.7765 136.298 21.0984 136.298 21.4687V26.5035H133.346ZM144.354 26.6786C143.384 26.6786 142.547 26.4874 141.843 26.1051C141.143 25.7187 140.603 25.1693 140.225 24.457C139.851 23.7406 139.664 22.8894 139.664 21.9033C139.664 20.9455 139.853 20.1084 140.231 19.392C140.609 18.6716 141.143 18.1122 141.831 17.7137C142.519 17.3113 143.33 17.11 144.264 17.11C144.924 17.11 145.527 17.2127 146.075 17.4179C146.622 17.6232 147.095 17.927 147.493 18.3295C147.892 18.7319 148.202 19.229 148.423 19.8206C148.644 20.4082 148.755 21.0823 148.755 21.843V22.5795H140.696V20.865H146.008C146.004 20.5511 145.93 20.2714 145.785 20.0259C145.64 19.7804 145.441 19.5892 145.187 19.4524C144.938 19.3115 144.65 19.2411 144.324 19.2411C143.994 19.2411 143.698 19.3155 143.437 19.4644C143.175 19.6093 142.968 19.8085 142.815 20.0621C142.662 20.3116 142.581 20.5953 142.573 20.9133V22.658C142.573 23.0363 142.648 23.3683 142.797 23.6541C142.946 23.9358 143.157 24.1551 143.431 24.3121C143.704 24.469 144.03 24.5475 144.409 24.5475C144.67 24.5475 144.908 24.5113 145.121 24.4389C145.334 24.3664 145.517 24.2598 145.67 24.1189C145.823 23.978 145.938 23.805 146.014 23.5997L148.725 23.6782C148.612 24.2859 148.365 24.8152 147.982 25.2659C147.604 25.7127 147.107 26.0608 146.491 26.3103C145.876 26.5558 145.163 26.6786 144.354 26.6786ZM153.215 21.2151V26.5035H150.263V17.2308H153.07V18.9332H153.173C153.378 18.3657 153.728 17.921 154.223 17.599C154.718 17.273 155.308 17.11 155.992 17.11C156.644 17.11 157.209 17.2569 157.688 17.5507C158.171 17.8405 158.546 18.247 158.811 18.7702C159.081 19.2894 159.214 19.8971 159.21 20.5933V26.5035H156.258V21.1729C156.262 20.6577 156.131 20.2553 155.865 19.9655C155.604 19.6757 155.239 19.5308 154.772 19.5308C154.463 19.5308 154.189 19.5993 153.951 19.7361C153.718 19.8689 153.537 20.0601 153.408 20.3096C153.283 20.5591 153.219 20.861 153.215 21.2151ZM163.651 26.6604C163.06 26.6604 162.534 26.5618 162.076 26.3646C161.621 26.1634 161.261 25.8616 160.995 25.4591C160.733 25.0526 160.603 24.5435 160.603 23.9318C160.603 23.4166 160.693 22.9819 160.874 22.6278C161.055 22.2736 161.305 21.9859 161.623 21.7645C161.941 21.5431 162.307 21.3761 162.722 21.2634C163.136 21.1467 163.579 21.0682 164.05 21.028C164.577 20.9797 165.002 20.9294 165.323 20.8771C165.645 20.8207 165.879 20.7422 166.024 20.6416C166.173 20.537 166.247 20.3901 166.247 20.2009V20.1707C166.247 19.8609 166.14 19.6214 165.927 19.4524C165.714 19.2833 165.426 19.1988 165.064 19.1988C164.674 19.1988 164.36 19.2833 164.122 19.4524C163.885 19.6214 163.734 19.8548 163.669 20.1526L160.947 20.056C161.027 19.4926 161.234 18.9895 161.569 18.5468C161.907 18.1001 162.369 17.7499 162.957 17.4964C163.549 17.2388 164.259 17.11 165.088 17.11C165.68 17.11 166.225 17.1805 166.724 17.3213C167.223 17.4582 167.658 17.6594 168.028 17.925C168.398 18.1866 168.684 18.5086 168.885 18.8909C169.091 19.2733 169.193 19.7099 169.193 20.2009V26.5035H166.416V25.2116H166.344C166.179 25.5255 165.967 25.7911 165.71 26.0085C165.456 26.2258 165.156 26.3888 164.81 26.4975C164.468 26.6061 164.082 26.6604 163.651 26.6604ZM164.563 24.7286C164.881 24.7286 165.167 24.6642 165.42 24.5354C165.678 24.4067 165.883 24.2296 166.036 24.0042C166.189 23.7748 166.265 23.5092 166.265 23.2073V22.3259C166.181 22.3702 166.078 22.4105 165.957 22.4467C165.841 22.4829 165.712 22.5171 165.571 22.5493C165.43 22.5815 165.285 22.6097 165.136 22.6338C164.987 22.658 164.845 22.6801 164.708 22.7002C164.43 22.7445 164.193 22.8129 163.995 22.9055C163.802 22.998 163.653 23.1188 163.549 23.2677C163.448 23.4126 163.398 23.5856 163.398 23.7869C163.398 24.0927 163.506 24.3262 163.724 24.4872C163.945 24.6481 164.225 24.7286 164.563 24.7286ZM173.95 14.1399V26.5035H170.998V14.1399H173.95ZM175.829 26.5035V17.2308H178.781V26.5035H175.829ZM177.308 16.1502C176.894 16.1502 176.538 16.0133 176.24 15.7396C175.942 15.4619 175.793 15.1279 175.793 14.7375C175.793 14.3511 175.942 14.0211 176.24 13.7475C176.538 13.4698 176.894 13.3309 177.308 13.3309C177.727 13.3309 178.083 13.4698 178.377 13.7475C178.675 14.0211 178.824 14.3511 178.824 14.7375C178.824 15.1279 178.675 15.4619 178.377 15.7396C178.083 16.0133 177.727 16.1502 177.308 16.1502ZM183.612 21.2151V26.5035H180.66V17.2308H183.467V18.9332H183.57C183.775 18.3657 184.126 17.921 184.621 17.599C185.116 17.273 185.705 17.11 186.389 17.11C187.041 17.11 187.607 17.2569 188.086 17.5507C188.569 17.8405 188.943 18.247 189.209 18.7702C189.478 19.2894 189.611 19.8971 189.607 20.5933V26.5035H186.655V21.1729C186.659 20.6577 186.528 20.2553 186.263 19.9655C186.001 19.6757 185.637 19.5308 185.17 19.5308C184.86 19.5308 184.586 19.5993 184.349 19.7361C184.115 19.8689 183.934 20.0601 183.806 20.3096C183.681 20.5591 183.616 20.861 183.612 21.2151ZM195.769 26.6786C194.799 26.6786 193.962 26.4874 193.258 26.1051C192.558 25.7187 192.018 25.1693 191.64 24.457C191.266 23.7406 191.079 22.8894 191.079 21.9033C191.079 20.9455 191.268 20.1084 191.646 19.392C192.024 18.6716 192.558 18.1122 193.246 17.7137C193.934 17.3113 194.745 17.11 195.679 17.11C196.339 17.11 196.942 17.2127 197.49 17.4179C198.037 17.6232 198.51 17.927 198.908 18.3295C199.307 18.7319 199.617 19.229 199.838 19.8206C200.059 20.4082 200.17 21.0823 200.17 21.843V22.5795H192.111V20.865H197.423C197.419 20.5511 197.345 20.2714 197.2 20.0259C197.055 19.7804 196.856 19.5892 196.602 19.4524C196.353 19.3115 196.065 19.2411 195.739 19.2411C195.409 19.2411 195.113 19.3155 194.852 19.4644C194.59 19.6093 194.383 19.8085 194.23 20.0621C194.077 20.3116 193.996 20.5953 193.988 20.9133V22.658C193.988 23.0363 194.063 23.3683 194.212 23.6541C194.361 23.9358 194.572 24.1551 194.846 24.3121C195.119 24.469 195.445 24.5475 195.824 24.5475C196.085 24.5475 196.323 24.5113 196.536 24.4389C196.749 24.3664 196.932 24.2598 197.085 24.1189C197.238 23.978 197.353 23.805 197.429 23.5997L200.14 23.6782C200.027 24.2859 199.78 24.8152 199.397 25.2659C199.019 25.7127 198.522 26.0608 197.906 26.3103C197.291 26.5558 196.578 26.6786 195.769 26.6786Z" fill="white"/>
</g>
</g>
<rect x="1.07192" y="1.07422" width="206.858" height="37.8585" rx="6.92857" stroke="white" stroke-opacity="0.15" stroke-width="2.14286"/>
<defs>
<filter id="filter0_d_1_454" x="2.40021" y="0.402512" width="39.202" height="39.202" filterUnits="userSpaceOnUse" color-interpolation-filters="sRGB">
<feFlood flood-opacity="0" result="BackgroundImageFix"/>
<feColorMatrix in="SourceAlpha" type="matrix" values="0 0 0 0 0 0 0 0 0 0 0 0 0 0 0 0 0 0 127 0" result="hardAlpha"/>
<feOffset/>
<feGaussianBlur stdDeviation="2.80014"/>
<feComposite in2="hardAlpha" operator="out"/>
<feColorMatrix type="matrix" values="0 0 0 0 0 0 0 0 0 0 0 0 0 0 0 0 0 0 0.25 0"/>
<feBlend mode="normal" in2="BackgroundImageFix" result="effect1_dropShadow_1_454"/>
<feBlend mode="normal" in="SourceGraphic" in2="effect1_dropShadow_1_454" result="shape"/>
</filter>
<filter id="filter1_d_1_454" x="38.2877" y="3.78921" width="168.429" height="32.4286" filterUnits="userSpaceOnUse" color-interpolation-filters="sRGB">
<feFlood flood-opacity="0" result="BackgroundImageFix"/>
<feColorMatrix in="SourceAlpha" type="matrix" values="0 0 0 0 0 0 0 0 0 0 0 0 0 0 0 0 0 0 127 0" result="hardAlpha"/>
<feOffset/>
<feGaussianBlur stdDeviation="2.85714"/>
<feComposite in2="hardAlpha" operator="out"/>
<feColorMatrix type="matrix" values="0 0 0 0 0 0 0 0 0 0 0 0 0 0 0 0 0 0 0.25 0"/>
<feBlend mode="normal" in2="BackgroundImageFix" result="effect1_dropShadow_1_454"/>
<feBlend mode="normal" in="SourceGraphic" in2="effect1_dropShadow_1_454" result="shape"/>
</filter>
<linearGradient id="paint0_linear_1_454" x1="104.501" y1="0.00279236" x2="104.501" y2="40.0042" gradientUnits="userSpaceOnUse">
<stop stop-color="#2A2E11"/>
<stop offset="1" stop-color="#102B17"/>
</linearGradient>
<linearGradient id="paint1_linear_1_454" x1="21.6657" y1="17.8688" x2="21.6657" y2="24.8691" gradientUnits="userSpaceOnUse">
<stop stop-color="#00FF19"/>
<stop offset="0.0001" stop-color="#42FF00"/>
<stop offset="1" stop-color="#CCFF00"/>
</linearGradient>
<clipPath id="clip0_1_454">
<rect x="0.000488281" y="0.00279236" width="209.001" height="40.0014" rx="8" fill="white"/>
</clipPath>
<clipPath id="clip1_1_454">
<rect x="8.00049" y="6.00279" width="28.0014" height="28.0014" rx="14.0007" fill="white"/>
</clipPath>
</defs>
</svg>
