<svg width="175" height="41" viewBox="0 0 175 41" fill="none" xmlns="http://www.w3.org/2000/svg">
<g clip-path="url(#clip0_2_3719)">
<rect x="0.000488281" y="0.0361328" width="175" height="40" rx="8" fill="url(#paint0_linear_2_3719)"/>
<g filter="url(#filter0_d_2_3719)">
<path d="M16.3677 29.8755C15.3011 29.0291 14.1632 28.2176 13.3857 27.0749C11.7497 25.0597 10.49 22.7265 9.62882 20.2747C9.1083 18.6804 8.93003 16.9711 8.25902 15.4384C7.55707 14.3252 8.3793 13.1083 9.58794 12.7544C10.1261 12.6503 11.0722 12.1382 9.9301 12.5042C8.90615 13.2621 8.80706 11.8162 9.85704 11.7246C10.5736 11.6285 10.8374 11.0367 10.5923 10.504C9.82315 9.99792 12.4575 9.44175 11.132 8.68665C9.75119 7.18366 13.0635 6.89434 12.2463 8.60126C12.0507 9.91382 14.5608 8.3607 13.9784 9.87642C14.5703 10.6043 16.1951 10.0421 16.1547 11.0633C17.0171 11.1231 17.313 11.8551 18.1225 11.9113C18.9614 12.2935 20.4823 12.5947 20.7678 13.5485C19.9355 14.2133 18.0081 12.1753 17.9155 14.0155C18.1669 16.734 18.1029 19.5344 19.0887 22.1233C19.555 23.6908 20.6855 24.9248 21.7064 26.1457C22.6832 27.3414 24.0063 28.1831 25.3549 28.8918C26.5379 29.4547 27.8133 29.828 29.1026 30.0623C29.6255 29.6588 30.5487 28.1585 31.3645 28.7911C31.4032 29.502 29.7454 30.2771 31.2865 30.1985C32.1915 29.9231 32.8191 30.9046 33.5644 30.0193C34.2509 30.8397 36.418 29.495 35.9295 31.1721C35.2689 31.602 34.3055 31.3422 33.6439 31.9337C32.553 31.384 31.6845 32.4256 30.4768 32.2939C29.1356 32.5362 27.7712 32.634 26.4114 32.6362C24.1807 32.4583 21.9027 32.3834 19.7806 31.5998C18.5851 31.2494 17.4184 30.5626 16.3677 29.8755ZM18.2517 30.6991C19.4191 31.2084 20.5605 31.7452 21.8398 31.9071C23.8695 32.1919 25.9655 32.6299 28.0025 32.2303C27.0806 31.8104 26.1275 32.394 25.2091 31.93C24.1075 32.1692 22.9254 31.8691 21.8056 31.7214C20.5322 31.1491 19.1579 30.7556 17.9654 30.0128C16.4753 29.4637 18.736 30.717 19.1384 30.8185C20.07 31.3519 18.1141 30.545 17.8384 30.3233C17.0582 29.8817 16.9587 29.974 17.7611 30.4224C17.9227 30.5178 18.0824 30.6178 18.2517 30.6991ZM16.0305 29.1154C17.1617 29.5381 16.0255 28.3128 15.5071 28.384C15.2775 27.982 14.6297 27.7281 15.0866 27.5122C14.2647 27.8001 14.2256 26.4174 13.8392 26.615C12.9697 26.338 13.5008 25.3566 12.465 24.754C12.3705 24.119 11.4359 23.5683 11.1378 22.6105C11.0062 22.1201 10.082 20.7119 10.6497 22.0225C11.1331 23.2841 11.9836 24.3645 12.6914 25.4437C13.241 26.4713 13.8899 27.5452 14.8908 28.1862C15.2282 28.5127 15.554 29.013 16.0305 29.1154ZM12.7717 25.5057C12.8112 25.3334 12.9786 25.8788 12.7717 25.5057V25.5057ZM17.3852 29.6221C17.025 29.4795 17.6357 29.5089 17.3852 29.6221V29.6221ZM17.9992 29.8481C17.7189 30.0226 17.9356 29.536 17.9992 29.8481V29.8481ZM18.7679 30.1715C18.2039 29.9499 19.1338 29.82 18.7679 30.1715V30.1715ZM20.0852 30.9123C19.3736 30.7872 20.3076 30.5807 20.0852 30.9123V30.9123ZM17.5555 29.1332C16.8214 29.1281 18.1239 28.7622 17.5555 29.1332V29.1332ZM18.1321 29.4233C17.9266 29.5111 18.116 29.2271 18.1321 29.4233V29.4233ZM21.014 31.238C21.4772 31.5329 23.7193 31.8845 22.3154 31.3589C22.0805 31.4089 19.7121 30.6831 21.014 31.238ZM16.4389 27.6431C15.7198 27.426 16.3939 27.4465 16.4389 27.6431V27.6431ZM17.7805 28.432C17.0558 28.2425 18.1297 28.1863 17.7805 28.432V28.432ZM18.909 29.1301C18.0962 28.9386 19.4101 28.9395 18.909 29.1301V29.1301ZM15.893 27.0433C16.4366 27.4639 18.0854 27.0972 16.7255 26.7922C16.1066 26.4594 14.7117 26.2315 15.6625 26.9929L15.893 27.0433ZM19.6733 29.3711C18.7238 29.1488 19.8998 28.9819 19.6733 29.3711V29.3711ZM18.5246 28.45C19.8539 28.8294 17.4068 27.6019 18.1966 28.3104L18.3717 28.3903L18.5246 28.45ZM20.8277 29.793C19.6906 29.6179 22.0866 29.8051 20.8277 29.793V29.793ZM15.4086 26.3085C15.098 26.3283 15.3595 26.0719 15.4086 26.3085V26.3085ZM22.9573 30.9981C22.5464 31.3161 22.9908 30.5709 22.9573 30.9981V30.9981ZM17.557 27.6358C17.1637 27.6266 17.4809 27.4108 17.557 27.6358V27.6358ZM15.528 26.16C14.5385 25.8387 16.2508 26.1162 15.528 26.16V26.16ZM13.1244 24.5925C12.338 23.9642 13.0345 24.243 13.1244 24.5925V24.5925ZM19.4345 28.6327C19.3021 28.4804 19.3722 28.666 19.4345 28.6327V28.6327ZM23.362 31.0643C23.1481 31.1524 23.3494 30.8315 23.362 31.0643V31.0643ZM19.0869 28.2705C18.4706 28.1797 19.1576 27.9706 19.0869 28.2705V28.2705ZM16.1609 26.3997C15.2995 26.033 16.6986 26.3416 16.1609 26.3997V26.3997ZM21.1105 29.5026C20.2938 29.3391 21.9484 29.1677 21.1105 29.5026V29.5026ZM18.5359 27.7394C19.5016 27.865 17.3869 27.0767 18.324 27.6689L18.5359 27.7394ZM21.8921 29.8213C22.7936 29.2776 22.4964 31.0947 23.4216 29.9749C24.3343 29.3026 22.6335 30.806 23.7583 30.0947C24.5718 29.5458 25.7733 30.3549 26.5323 30.6189C27.0782 30.5919 27.6088 31.0951 28.1684 30.789C29.2456 30.4962 26.0619 30.3548 26.8965 29.8355C25.9108 30.1249 25.1826 29.4904 24.6976 28.8535C23.592 28.5959 22.3136 28.0256 21.7619 27.0385C21.5369 26.6679 22.0869 27.0907 21.5676 26.4849C20.9014 25.8871 20.5688 25.2084 20.1215 24.4817C19.5873 24.1942 19.525 23.3478 19.471 24.4534C19.4752 23.7556 18.8259 23.286 18.6675 23.4812C18.6646 22.8092 19.3623 23.1461 18.8739 22.6489C18.7688 21.9524 18.4226 21.2267 18.3186 20.4403C18.1569 20.0613 18.2958 19.2495 17.7669 20.1075C17.5742 21.0144 17.7029 18.9931 18.0026 19.6596C18.396 18.9795 17.8614 19.0595 17.8395 19.1539C18.0957 18.5801 18.0017 17.7661 17.7726 18.0766C17.9092 17.4684 17.9883 15.8382 17.5683 16.1271C17.8229 15.491 18.0512 13.2167 16.9458 14.0839C16.4978 14.0902 15.7221 14.2479 15.3554 14.4319C16.5051 15.0713 15.2397 14.6628 14.7717 14.5612C14.7107 15.1528 14.2472 14.897 13.668 14.9028C14.593 15.0182 13.2176 15.8572 12.6869 15.5313C11.9977 15.8636 13.2817 16.6931 12.7007 16.9496C12.7721 17.3363 11.6449 16.81 11.7334 17.7029C11.0644 17.419 11.6413 18.7622 11.976 18.3079C13.114 18.6186 12.7771 19.327 12.8061 19.9999C12.6207 20.392 11.8907 19.0783 12.6435 19.1391C12.0496 18.1658 11.9866 18.7873 11.493 19.2395C11.3782 19.2723 12.7519 19.8829 11.8898 20.1848C12.6483 20.3028 12.6698 20.9724 12.8242 21.3961C13.2801 21.8751 13.1868 20.8672 13.7323 21.4429C13.3871 20.93 11.904 19.9978 13.0981 20.2968C13.0917 19.7806 12.8821 19.3644 13.248 19.3745C13.6102 18.7126 12.8685 21.0066 13.6851 20.1653C13.9112 20.0657 13.9672 19.5025 14.3735 20.2185C14.9637 20.8042 14.5867 21.2286 13.7542 20.6923C13.9031 21.2021 14.8678 21.3842 14.6866 22.1814C14.8787 22.8825 15.1476 22.6243 15.382 22.5837C15.5659 23.2649 15.6703 22.764 15.679 22.4399C16.5208 22.6217 16.3237 23.1237 16.5871 23.4745C17.1672 23.7387 15.7567 21.6839 16.7527 22.8566C17.8005 23.8111 17.1456 24.2095 16.2053 24.0566C16.8005 24.0081 16.9924 24.8683 17.7368 24.8381C18.4157 25.1639 18.8753 26.4153 17.7052 25.8944C17.2993 25.5252 15.8631 25.0698 17.0362 25.772C18.1196 26.2781 18.9801 26.5809 20.025 27.2163C20.7728 27.7549 21.0959 28.3718 21.3793 28.4939C20.7508 28.7968 19.4852 28.2521 20.425 28.0851C19.8388 27.9774 19.1796 27.6784 19.741 28.4151C20.2184 28.8173 21.4324 28.7747 21.65 28.8203C21.4655 29.2303 21.1489 29.2629 21.6575 29.2947C21.0901 29.5998 21.8395 29.647 21.8921 29.8213ZM20.7318 26.5156C20.3866 26.1514 20.2973 25.4691 20.6705 26.0628C20.8618 26.1403 21.2835 27.1776 20.7318 26.5156ZM24.5104 28.9372C24.5167 29.1022 24.7258 28.9231 24.5104 28.9372V28.9372ZM20.1867 25.6225C20.1734 25.0719 20.3116 26.0473 20.1867 25.6225V25.6225ZM19.8111 25.1127C19.3769 24.2663 20.3585 25.3525 19.8111 25.1127V25.1127ZM15.2601 21.9437C15.3856 22.3839 15.5152 21.8751 15.2601 21.9437V21.9437ZM18.8821 23.9244C19.0388 23.3309 19.0662 24.4224 18.8821 23.9244V23.9244ZM16.3232 22.1293C16.1429 21.8018 16.7006 22.4365 16.3232 22.1293V22.1293ZM18.5193 22.8396C18.1079 21.9097 18.8106 22.3316 18.6103 22.9919L18.5193 22.8396ZM14.7322 20.2915C14.5483 19.9864 14.244 19.0913 14.342 18.8181C14.4306 19.2631 15.28 20.7332 14.7586 19.4271C14.1825 18.3322 15.4473 19.7825 15.5774 20.0555C15.638 20.3272 15.222 19.9813 15.5039 20.6183C14.9898 19.8931 15.2004 21.0189 14.7322 20.2915ZM13.5617 19.4778C13.6099 18.7685 13.8297 19.9642 13.5617 19.4778V19.4778ZM14.0882 19.6606C14.3394 19.1253 14.5142 20.407 14.0882 19.6606V19.6606ZM12.8218 18.6722C12.386 18.2354 12.0707 17.8327 12.8422 18.4011C13.1394 18.4128 12.1817 17.4853 12.9137 18.1066C13.6835 18.2482 13.2939 19.3799 12.8218 18.6722ZM13.487 18.6547C13.6214 18.9037 13.7401 18.4017 13.487 18.6547V18.6547ZM13.8964 18.7871C13.5127 18.0616 14.362 19.0912 13.8964 18.7871V18.7871ZM13.0826 18.0025C11.8158 16.8652 14.6744 18.5973 13.2896 18.2134L13.0826 18.0025ZM16.7121 20.1301C16.1639 19.7985 16.5669 17.7956 16.7538 19.1654C17.2867 18.9915 16.7244 19.8729 17.1219 19.8647C17.0592 20.4208 16.8814 20.6207 16.7121 20.1301ZM18.0546 20.9306C18.1084 20.327 18.1678 21.3433 18.0546 20.9306V20.9306ZM17.8214 20.6981C17.8277 21.0018 17.8818 20.4403 17.8214 20.6981V20.6981ZM13.3311 17.6288C12.5173 16.496 15.6963 18.7747 13.8524 17.9161C13.6597 17.8653 13.4278 17.8471 13.3311 17.6288ZM15.9163 19.0116C15.8393 18.0578 16.0883 19.1697 15.9163 19.0116V19.0116ZM17.879 20.2819C17.8903 20.6413 18.0309 19.7385 17.879 20.2819V20.2819ZM13.4558 17.1965C13.9395 17.0921 15.4602 18.0535 14.0637 17.4711C13.9085 17.2978 13.5777 17.3765 13.4558 17.1965ZM17.6093 19.285C17.661 18.3097 17.8981 18.7024 17.6111 19.4246L17.6093 19.285ZM13.8158 16.8571C14.0129 16.5654 13.2927 15.5385 13.9197 16.4887C14.1906 16.7059 14.704 16.8525 14.2507 16.9439C14.9637 17.5785 14.0768 17.1158 13.8158 16.8571ZM17.4039 18.9803C17.524 19.6313 17.5401 17.8693 17.4039 18.9803V18.9803ZM13.4042 15.8309C13.4837 16.0332 13.5548 15.766 13.4042 15.8309V15.8309ZM14.3402 16.3929C14.581 15.883 14.7845 16.9616 14.3402 16.3929V16.3929ZM16.9802 17.8745C16.9776 17.6787 17.03 18.1594 16.9802 17.8745V17.8745ZM16.8272 17.533C16.4608 16.6209 17.1681 18.0158 16.8272 17.533V17.533ZM16.6022 16.935C16.5407 16.5582 16.8113 17.4085 16.6022 16.935V16.935ZM16.9684 16.3345C16.717 15.8875 17.2859 14.3645 17.3494 15.309C17.084 16.045 17.2729 16.4567 17.458 15.4696C17.7999 14.6927 17.3841 17.0026 16.9684 16.3345ZM17.3447 14.0696C17.369 14.2332 17.4543 13.9338 17.3447 14.0696V14.0696ZM16.7163 26.5618C16.5672 26.4305 16.735 26.6453 16.7163 26.5618V26.5618ZM18.0108 27.2224C18.7309 27.4088 18.7272 27.1094 18.0764 27.0204C17.7263 26.6919 16.6218 26.3434 17.6104 26.9797C17.6759 27.147 17.8828 27.1431 18.0108 27.2224ZM15.4542 25.5093C15.8509 25.8077 16.9484 26.3551 16.0193 25.6228C16.3326 25.2557 15.4198 25.0602 15.7226 24.8146C14.9524 24.3391 15.115 24.3814 15.6546 24.3964C14.7289 23.979 15.7882 24.0102 15.7383 23.7963C15.3814 23.7252 13.9655 23.1614 14.7985 23.8426C13.9517 23.4071 14.5967 24.0049 14.3408 23.9417C13.4749 23.7035 15.1119 24.607 14.2032 24.3827C14.7 24.7799 15.5403 25.4 14.4132 24.803C14.2648 25.0187 15.2198 25.3456 15.4542 25.5093ZM16.8081 26.294C16.001 25.6401 18.4543 26.8292 16.8081 26.294V26.294ZM23.7388 30.5299C23.5138 30.8109 23.76 30.2004 23.7388 30.5299V30.5299ZM24.4511 30.8323C24.8309 30.461 24.4666 31.4238 25.0804 30.7414C25.0871 30.253 25.0615 29.9645 24.3751 30.5578C24.1858 30.6637 24.1014 31.1139 24.4511 30.8323ZM13.1435 23.6678C12.3258 23.2076 13.0268 23.2052 13.1435 23.6678V23.6678ZM13.9041 24.1707C12.8963 23.7429 13.6216 23.6982 13.9041 24.1707V24.1707ZM18.2315 26.8036C18.654 27.1822 20.1719 27.0814 18.7446 26.8502C18.5332 26.5349 17.4023 26.6108 18.2315 26.8036ZM24.1802 30.5101C23.5501 30.7557 24.8304 29.9596 24.1802 30.5101V30.5101ZM25.5325 31.4477C25.2523 31.525 25.5366 31.271 25.5325 31.4477V31.4477ZM25.5346 31.2004C24.8369 31.2459 26.2547 30.4307 25.5346 31.2004V31.2004ZM11.2726 22.0877C10.6589 21.2042 10.8911 20.8071 10.2992 20.0858C10.1872 19.5342 9.28393 18.2824 9.83205 19.6085C10.3341 20.3841 10.4833 21.5849 11.2726 22.0877ZM25.3088 30.9557C24.765 30.5794 26.6335 30.0918 25.3088 30.9557V30.9557ZM26.32 31.3554C25.9004 31.2352 26.9834 30.7807 26.32 31.3554V31.3554ZM12.918 22.6913C12.4276 22.6549 13.1078 22.4064 12.918 22.6913V22.6913ZM26.1089 31.0825C26.7512 30.6646 25.9609 30.7288 25.9925 31.1209L26.1089 31.0825ZM17.3916 25.5391C17.0524 25.5631 17.3695 25.257 17.3916 25.5391V25.5391ZM17.9303 25.8519C17.6671 25.9067 17.7591 25.5026 17.9303 25.8519V25.8519ZM27.1396 31.3648C27.9625 30.7659 26.6407 31.2502 26.9668 31.4783L27.1396 31.3648ZM26.8244 31.2112C26.1167 31.4623 27.4948 30.6444 26.8244 31.2112V31.2112ZM28.4344 32.2929C27.8876 32.1945 28.8845 31.9887 28.4344 32.2929V32.2929ZM13.3308 22.4858C13.9341 22.6222 15.7418 23.9849 14.6753 22.5801C14.1291 22.4169 14.4567 21.0699 13.8996 21.3083C14.2735 21.9386 14.2072 22.2068 13.4221 21.8095C12.4353 21.3235 12.8676 22.0503 13.0604 22.2506C12.7976 22.3109 13.408 22.4808 13.3308 22.4858ZM10.582 20.2957C10.6901 19.845 9.58751 17.8162 10.0614 19.2792C10.2325 19.5856 10.2151 20.1664 10.582 20.2957ZM15.6271 23.4338C15.3165 23.1717 15.6124 23.3967 15.6271 23.4338V23.4338ZM16.3922 23.6134C15.5465 23.4195 16.3918 23.136 16.3922 23.6134V23.6134ZM23.0219 27.8299C22.522 27.8224 22.8954 27.5037 23.0219 27.8299V27.8299ZM23.3402 28.0646C23.1565 28.0998 23.2932 27.882 23.3402 28.0646V28.0646ZM25.968 29.7345C25.6526 29.7104 26.2207 29.5461 25.968 29.7345V29.7345ZM11.9551 20.6494C11.1805 20.448 12.6779 20.367 11.9551 20.6494V20.6494ZM22.4382 27.3125C21.9774 27.4297 22.4302 26.8404 22.4382 27.3125V27.3125ZM11.6694 19.9779C11.2399 19.8737 12.1338 19.8197 11.6694 19.9779V19.9779ZM13.0172 20.6366C12.8747 20.6953 13.0088 20.4814 13.0172 20.6366V20.6366ZM29.4563 30.8068C30.0534 30.6847 31.4141 31.1134 31.634 30.6471C30.9089 30.6293 29.1253 30.131 29.0409 30.766L29.1997 30.7913L29.4563 30.8068ZM13.4456 20.7455C13.0758 20.7276 13.456 20.2671 13.4456 20.7455V20.7455ZM9.90191 18.2655C9.28982 18.1275 9.74098 17.3539 9.90191 18.2655V18.2655ZM10.747 18.4798C9.97348 18.2164 10.7573 18.1871 10.747 18.4798V18.4798ZM11.2299 18.7191C11.0903 18.605 11.1206 18.8632 11.2299 18.7191V18.7191ZM14.2684 20.6856C13.9298 20.5874 14.4115 20.553 14.2684 20.6856V20.6856ZM10.9082 18.1794C9.92948 18.0762 10.8265 17.4909 10.9082 18.1794V18.1794ZM9.17575 17.0453C9.00692 17.1651 9.15111 16.7275 9.17575 17.0453V17.0453ZM9.43345 16.8489C9.2122 16.8969 9.39141 16.4722 9.43345 16.8489V16.8489ZM10.8573 17.7064C11.4594 17.4678 9.76061 17.2128 10.7343 17.6613L10.8573 17.7064ZM29.9133 29.5816C29.4236 29.4714 30.2987 29.2251 29.9133 29.5816V29.5816ZM32.2154 30.7855C31.8266 30.8462 32.3699 30.3246 32.2154 30.7855V30.7855ZM11.0028 16.9535C10.5255 17.042 11.0662 16.5077 11.0028 16.9535V16.9535ZM8.97702 15.5842C8.86819 14.9548 8.88308 13.85 9.924 14.2233C8.53454 14.5017 10.8857 15.9656 10.5888 14.8098C11.173 14.8386 11.7317 14.4614 11.4251 15.0339C12.5762 14.9056 13.3742 13.8986 14.4861 14.0397C15.3522 13.924 16.2992 13.8363 17.2326 13.4846C17.9999 13.4288 18.7387 12.5953 18.318 12.1012C17.2715 12.0119 16.1761 12.144 15.0194 12.3759C13.7377 12.6447 12.5734 13.1555 11.2802 13.3747C10.0196 13.5456 11.5337 13.8454 11.1726 13.9122C10.5149 14.1425 11.9571 14.2977 11.0874 14.5405C10.5502 14.4374 9.99117 14.2513 10.2206 13.6802C9.01311 13.8383 7.95207 14.3439 8.90607 15.5836L8.97702 15.5842ZM11.8866 14.0891C12.1698 13.0369 13.4034 14.955 12.3507 14.2289C12.2249 14.134 12.0181 14.0565 11.8866 14.0891ZM11.9417 13.579C12.1589 13.7512 12.3503 13.2719 11.9417 13.579V13.579ZM12.4606 13.5873C12.4975 13.1031 13.6483 13.8436 12.6503 13.7616L12.4606 13.5873ZM13.1703 13.2994C13.2448 13.5712 13.4295 12.9939 13.1703 13.2994V13.2994ZM13.3519 13.1767C13.7834 12.6536 15.7959 12.8428 14.3228 13.1257C13.928 12.8258 13.6254 13.3025 13.3519 13.1767ZM15.9782 12.7683C15.9125 11.3393 17.2829 13.2761 15.9782 12.7683V12.7683ZM16.7234 12.7642C16.9958 12.0439 17.7806 12.4752 16.8494 12.6194C16.8697 12.6961 16.8221 12.9913 16.7234 12.7642ZM10.709 16.5838C9.84477 16.1475 11.523 16.0809 10.709 16.5838V16.5838ZM11.3109 16.7525C10.6907 16.6283 11.5963 16.4464 11.3109 16.7525V16.7525ZM9.53739 15.4827C8.98696 15.3456 10.0025 15.1222 9.53739 15.4827V15.4827ZM33.5743 30.6538C33.2188 30.8422 33.5877 30.2355 33.5743 30.6538V30.6538ZM31.1318 28.9722C30.818 29.0142 31.2013 28.4906 31.1318 28.9722V28.9722ZM34.2459 30.8159C34.8963 30.8181 36.2164 30.6122 34.8014 30.6128C34.5793 30.6478 33.5075 30.6403 34.2459 30.8159ZM11.8403 16.4574C12.3666 16.4209 12.6638 15.8717 11.7385 15.9032C10.3045 15.7534 13.0037 16.3986 11.5546 16.2141C11.3598 16.3442 11.829 16.4934 11.8403 16.4574ZM12.3038 16.6941C12.1411 16.8752 12.2489 16.3532 12.3038 16.6941V16.6941ZM12.8537 15.2149C12.5376 15.1385 13.0821 14.9291 12.8537 15.2149V15.2149ZM11.1033 12.263C12.0426 11.9406 13.3271 11.5783 13.7707 12.4217C13.3193 11.8736 13.5885 11.3341 14.0148 12.1354C14.6177 12.9462 14.9194 11.7667 14.5273 11.4947C14.9742 12.0548 15.4824 12.3195 14.8265 11.5301C15.5392 10.6652 13.3995 11.6434 12.9131 11.6335C12.6791 11.7395 10.4972 12.1949 11.1033 12.263ZM11.6538 11.1993C12.1895 10.7914 13.5066 11.442 12.6614 10.7939C12.5788 10.7203 10.8105 11.2853 11.6538 11.1993ZM13.6068 11.2807C14.2338 11.2968 13.3364 10.4309 14.0835 10.8233C13.9608 10.4189 13.2136 10.3432 12.8484 10.1816C12.6418 10.5513 13.2689 11.2856 13.6068 11.2807ZM11.9962 9.49206C11.6161 9.64246 12.2132 9.19542 11.9962 9.49206V9.49206ZM12.7945 9.68482C13.8048 9.54962 12.5369 9.24584 12.5909 9.67395L12.7945 9.68482ZM11.304 8.50821C10.5926 7.57128 12.6419 8.66571 11.9191 7.68471C11.3108 7.19597 10.7262 8.2347 11.304 8.50821ZM20.4338 13.4695C20.7601 12.8859 19.0867 12.6829 20.214 13.2626C20.3178 13.2976 20.2943 13.5098 20.4338 13.4695Z" fill="white"/>
</g>
<g filter="url(#filter1_d_2_3719)">
<path d="M43.3588 26.5361V14.1725H47.8865C48.7639 14.1725 49.4903 14.3174 50.0658 14.6072C50.6413 14.8929 51.072 15.2813 51.3577 15.7723C51.6435 16.2593 51.7864 16.8086 51.7864 17.4204C51.7864 17.9355 51.6918 18.3702 51.5026 18.7243C51.3135 19.0745 51.0599 19.3562 50.742 19.5695C50.428 19.7788 50.0819 19.9317 49.7036 20.0283V20.1491C50.1141 20.1692 50.5146 20.302 50.905 20.5475C51.2994 20.789 51.6254 21.1331 51.8829 21.5798C52.1405 22.0265 52.2693 22.5699 52.2693 23.2098C52.2693 23.8416 52.1204 24.4091 51.8226 24.9122C51.5288 25.4112 51.074 25.8077 50.4582 26.1015C49.8425 26.3912 49.0556 26.5361 48.0978 26.5361H43.3588ZM45.2242 24.9363H47.9167C48.8101 24.9363 49.4501 24.7633 49.8364 24.4172C50.2228 24.071 50.416 23.6384 50.416 23.1192C50.416 22.7288 50.3174 22.3706 50.1202 22.0447C49.923 21.7187 49.6412 21.4591 49.275 21.2659C48.9128 21.0727 48.4821 20.9761 47.9831 20.9761H45.2242V24.9363ZM45.2242 19.5212H47.7235C48.1421 19.5212 48.5184 19.4407 48.8524 19.2797C49.1905 19.1188 49.4581 18.8934 49.6553 18.6036C49.8565 18.3098 49.9572 17.9637 49.9572 17.5652C49.9572 17.0541 49.7781 16.6255 49.4199 16.2794C49.0617 15.9333 48.5123 15.7602 47.7718 15.7602H45.2242V19.5212ZM60.2109 22.6906V17.2634H62.022V26.5361H60.2471V24.9303H60.1505C59.9372 25.4253 59.5951 25.8379 59.1242 26.1679C58.6574 26.4939 58.0758 26.6569 57.3796 26.6569C56.7839 26.6569 56.2567 26.5261 55.7979 26.2645C55.3431 25.9988 54.9849 25.6064 54.7233 25.0873C54.4657 24.5681 54.337 23.9262 54.337 23.1615V17.2634H56.142V22.9442C56.142 23.576 56.3171 24.0791 56.6672 24.4534C57.0174 24.8277 57.4721 25.0148 58.0316 25.0148C58.3696 25.0148 58.7057 24.9303 59.0397 24.7613C59.3778 24.5922 59.6575 24.3367 59.8789 23.9946C60.1042 23.6525 60.2149 23.2178 60.2109 22.6906ZM64.4473 26.5361V17.2634H66.2523V26.5361H64.4473ZM65.3589 15.8327C65.045 15.8327 64.7753 15.728 64.5499 15.5187C64.3286 15.3054 64.2179 15.0519 64.2179 14.7581C64.2179 14.4603 64.3286 14.2067 64.5499 13.9974C64.7753 13.7841 65.045 13.6775 65.3589 13.6775C65.6728 13.6775 65.9404 13.7841 66.1618 13.9974C66.3872 14.2067 66.4999 14.4603 66.4999 14.7581C66.4999 15.0519 66.3872 15.3054 66.1618 15.5187C65.9404 15.728 65.6728 15.8327 65.3589 15.8327ZM70.4857 14.1725V26.5361H68.6807V14.1725H70.4857ZM77.2426 17.2634V18.7123H72.1776V17.2634H77.2426ZM73.5359 15.0418H75.3409V23.8135C75.3409 24.1636 75.3933 24.4272 75.4979 24.6043C75.6025 24.7774 75.7374 24.8961 75.9024 24.9605C76.0714 25.0209 76.2545 25.051 76.4517 25.051C76.5966 25.051 76.7234 25.041 76.8321 25.0209C76.9407 25.0007 77.0252 24.9846 77.0856 24.9726L77.4116 26.4637C77.307 26.5039 77.1581 26.5442 76.9649 26.5844C76.7717 26.6287 76.5302 26.6528 76.2404 26.6569C75.7655 26.6649 75.3228 26.5804 74.9123 26.4033C74.5018 26.2262 74.1698 25.9526 73.9162 25.5823C73.6627 25.212 73.5359 24.7472 73.5359 24.1878V15.0418ZM85.7486 26.5361L83.0199 17.2634H84.8853L86.7024 24.0731H86.793L88.6162 17.2634H90.4816L92.2926 24.0429H92.3832L94.1882 17.2634H96.0537L93.331 26.5361H91.4897L89.6062 19.8412H89.4674L87.5838 26.5361H85.7486ZM97.7666 26.5361V17.2634H99.5717V26.5361H97.7666ZM98.6782 15.8327C98.3643 15.8327 98.0946 15.728 97.8693 15.5187C97.6479 15.3054 97.5372 15.0519 97.5372 14.7581C97.5372 14.4603 97.6479 14.2067 97.8693 13.9974C98.0946 13.7841 98.3643 13.6775 98.6782 13.6775C98.9921 13.6775 99.2598 13.7841 99.4811 13.9974C99.7065 14.2067 99.8192 14.4603 99.8192 14.7581C99.8192 15.0519 99.7065 15.3054 99.4811 15.5187C99.2598 15.728 98.9921 15.8327 98.6782 15.8327ZM106.329 17.2634V18.7123H101.264V17.2634H106.329ZM102.622 15.0418H104.427V23.8135C104.427 24.1636 104.479 24.4272 104.584 24.6043C104.688 24.7774 104.823 24.8961 104.988 24.9605C105.157 25.0209 105.34 25.051 105.538 25.051C105.683 25.051 105.809 25.041 105.918 25.0209C106.027 25.0007 106.111 24.9846 106.172 24.9726L106.498 26.4637C106.393 26.5039 106.244 26.5442 106.051 26.5844C105.858 26.6287 105.616 26.6528 105.326 26.6569C104.851 26.6649 104.409 26.5804 103.998 26.4033C103.588 26.2262 103.256 25.9526 103.002 25.5823C102.749 25.212 102.622 24.7472 102.622 24.1878V15.0418ZM110.329 21.0304V26.5361H108.524V14.1725H110.305V18.7726H110.42C110.637 18.2736 110.969 17.8772 111.416 17.5834C111.863 17.2896 112.446 17.1427 113.167 17.1427C113.803 17.1427 114.358 17.2735 114.833 17.5351C115.312 17.7967 115.682 18.1871 115.944 18.7062C116.209 19.2214 116.342 19.8653 116.342 20.638V26.5361H114.537V20.8554C114.537 20.1752 114.362 19.648 114.012 19.2737C113.662 18.8954 113.175 18.7062 112.551 18.7062C112.124 18.7062 111.742 18.7968 111.404 18.9779C111.07 19.159 110.806 19.4246 110.613 19.7748C110.424 20.1209 110.329 20.5394 110.329 21.0304Z" fill="#E8E8E8"/>
<path d="M122.936 26.0361V13.6725H131.376V16.0993H125.924V18.6349H130.839V21.0677H125.924V26.0361H122.936ZM135.833 13.6725V26.0361H132.881V13.6725H135.833ZM140.326 26.1931C139.734 26.1931 139.209 26.0945 138.75 25.8973C138.295 25.696 137.935 25.3942 137.669 24.9917C137.408 24.5853 137.277 24.0761 137.277 23.4644C137.277 22.9492 137.367 22.5146 137.549 22.1604C137.73 21.8063 137.979 21.5185 138.297 21.2971C138.615 21.0758 138.981 20.9088 139.396 20.7961C139.81 20.6794 140.253 20.6009 140.724 20.5606C141.251 20.5123 141.676 20.462 141.998 20.4097C142.32 20.3534 142.553 20.2749 142.698 20.1743C142.847 20.0696 142.921 19.9227 142.921 19.7336V19.7034C142.921 19.3935 142.815 19.154 142.602 18.985C142.388 18.816 142.1 18.7314 141.738 18.7314C141.348 18.7314 141.034 18.816 140.796 18.985C140.559 19.154 140.408 19.3875 140.344 19.6853L137.621 19.5887C137.702 19.0252 137.909 18.5222 138.243 18.0795C138.581 17.6327 139.044 17.2826 139.631 17.029C140.223 16.7715 140.933 16.6427 141.762 16.6427C142.354 16.6427 142.899 16.7131 143.398 16.854C143.897 16.9908 144.332 17.192 144.702 17.4577C145.073 17.7193 145.358 18.0412 145.56 18.4236C145.765 18.8059 145.867 19.2426 145.867 19.7336V26.0361H143.091V24.7442H143.018C142.853 25.0581 142.642 25.3238 142.384 25.5411C142.131 25.7584 141.831 25.9214 141.485 26.0301C141.143 26.1388 140.756 26.1931 140.326 26.1931ZM141.237 24.2613C141.555 24.2613 141.841 24.1969 142.094 24.0681C142.352 23.9393 142.557 23.7622 142.71 23.5368C142.863 23.3074 142.94 23.0418 142.94 22.74V21.8586C142.855 21.9028 142.752 21.9431 142.632 21.9793C142.515 22.0155 142.386 22.0497 142.245 22.0819C142.104 22.1141 141.96 22.1423 141.811 22.1665C141.662 22.1906 141.519 22.2127 141.382 22.2329C141.104 22.2771 140.867 22.3456 140.67 22.4381C140.477 22.5307 140.328 22.6514 140.223 22.8003C140.122 22.9452 140.072 23.1183 140.072 23.3195C140.072 23.6254 140.181 23.8588 140.398 24.0198C140.619 24.1808 140.899 24.2613 141.237 24.2613ZM155.768 19.5947L153.057 19.6672C153.029 19.474 152.953 19.3029 152.828 19.154C152.703 19.0011 152.54 18.8824 152.339 18.7978C152.142 18.7093 151.912 18.665 151.651 18.665C151.309 18.665 151.017 18.7335 150.776 18.8703C150.538 19.0071 150.421 19.1923 150.425 19.4257C150.421 19.6068 150.494 19.7638 150.643 19.8966C150.796 20.0294 151.067 20.136 151.458 20.2165L153.245 20.5546C154.17 20.7317 154.858 21.0255 155.309 21.436C155.764 21.8465 155.993 22.3898 155.997 23.066C155.993 23.7018 155.804 24.2552 155.43 24.7261C155.06 25.197 154.553 25.5632 153.909 25.8248C153.265 26.0824 152.528 26.2112 151.699 26.2112C150.375 26.2112 149.331 25.9395 148.566 25.3962C147.805 24.8489 147.371 24.1164 147.262 23.1988L150.178 23.1263C150.242 23.4644 150.409 23.722 150.679 23.8991C150.949 24.0761 151.293 24.1647 151.711 24.1647C152.09 24.1647 152.397 24.0942 152.635 23.9534C152.872 23.8125 152.993 23.6254 152.997 23.392C152.993 23.1827 152.901 23.0157 152.719 22.8909C152.538 22.7621 152.255 22.6615 151.868 22.589L150.25 22.2812C149.321 22.1121 148.628 21.8002 148.174 21.3454C147.719 20.8866 147.493 20.3031 147.497 19.5947C147.493 18.9749 147.658 18.4457 147.992 18.007C148.327 17.5643 148.801 17.2262 149.417 16.9928C150.033 16.7594 150.759 16.6427 151.597 16.6427C152.852 16.6427 153.842 16.9063 154.567 17.4335C155.291 17.9567 155.692 18.6771 155.768 19.5947ZM160.113 23.6032L160.125 20.0837H160.536L163.144 16.7634H166.488L162.612 21.5205H161.834L160.113 23.6032ZM157.451 26.0361V13.6725H160.403V26.0361H157.451ZM163.21 26.0361L160.783 22.1846L162.727 20.0898L166.621 26.0361H163.21Z" fill="white"/>
</g>
</g>
<rect x="1.05049" y="1.08613" width="172.9" height="37.9" rx="6.95" stroke="white" stroke-opacity="0.15" stroke-width="2.1"/>
<defs>
<filter id="filter0_d_2_3719" x="2.2862" y="0.321847" width="39.4286" height="39.4286" filterUnits="userSpaceOnUse" color-interpolation-filters="sRGB">
<feFlood flood-opacity="0" result="BackgroundImageFix"/>
<feColorMatrix in="SourceAlpha" type="matrix" values="0 0 0 0 0 0 0 0 0 0 0 0 0 0 0 0 0 0 127 0" result="hardAlpha"/>
<feOffset/>
<feGaussianBlur stdDeviation="2.85714"/>
<feComposite in2="hardAlpha" operator="out"/>
<feColorMatrix type="matrix" values="0 0 0 0 0 0 0 0 0 0 0 0 0 0 0 0 0 0 0.25 0"/>
<feBlend mode="normal" in2="BackgroundImageFix" result="effect1_dropShadow_2_3719"/>
<feBlend mode="normal" in="SourceGraphic" in2="effect1_dropShadow_2_3719" result="shape"/>
</filter>
<filter id="filter1_d_2_3719" x="36.4005" y="3.93613" width="136.2" height="32.2" filterUnits="userSpaceOnUse" color-interpolation-filters="sRGB">
<feFlood flood-opacity="0" result="BackgroundImageFix"/>
<feColorMatrix in="SourceAlpha" type="matrix" values="0 0 0 0 0 0 0 0 0 0 0 0 0 0 0 0 0 0 127 0" result="hardAlpha"/>
<feOffset/>
<feGaussianBlur stdDeviation="2.8"/>
<feComposite in2="hardAlpha" operator="out"/>
<feColorMatrix type="matrix" values="0 0 0 0 0 0 0 0 0 0 0 0 0 0 0 0 0 0 0.25 0"/>
<feBlend mode="normal" in2="BackgroundImageFix" result="effect1_dropShadow_2_3719"/>
<feBlend mode="normal" in="SourceGraphic" in2="effect1_dropShadow_2_3719" result="shape"/>
</filter>
<linearGradient id="paint0_linear_2_3719" x1="87.5005" y1="0.0361328" x2="87.5005" y2="40.0361" gradientUnits="userSpaceOnUse">
<stop stop-color="#0A2135"/>
<stop offset="1" stop-color="#041823"/>
</linearGradient>
<clipPath id="clip0_2_3719">
<rect x="0.000488281" y="0.0361328" width="175" height="40" rx="8" fill="white"/>
</clipPath>
</defs>
</svg>
