<svg width="154" height="41" viewBox="0 0 154 41" fill="none" xmlns="http://www.w3.org/2000/svg">
<g clip-path="url(#clip0_2_3140)">
<rect x="0.000488281" y="0.0181885" width="154" height="40" rx="8" fill="url(#paint0_linear_2_3140)"/>
<g filter="url(#filter0_d_2_3140)">
<path fill-rule="evenodd" clip-rule="evenodd" d="M11.5304 21.161C11.5724 22.0281 12.4379 21.6269 12.8299 21.3558C13.202 21.0984 13.3107 21.3124 13.3434 20.8045C13.3648 20.4706 13.4033 20.1368 13.3843 19.8016C12.8217 19.7506 12.2096 19.8847 11.7483 20.2202C11.5107 20.393 11.0652 20.9445 11.5304 21.161Z" fill="#F6D2A2" stroke="black" stroke-width="0.35" stroke-linecap="round"/>
<path fill-rule="evenodd" clip-rule="evenodd" d="M11.5303 21.161C11.6562 21.1141 11.7897 21.0807 11.8752 20.9667L11.5303 21.161Z" fill="#C6B198"/>
<path d="M11.5303 21.161C11.6562 21.1141 11.7897 21.0807 11.8752 20.9667" stroke="black" stroke-width="0.35" stroke-linecap="round"/>
<path fill-rule="evenodd" clip-rule="evenodd" d="M13.5302 10.831C10.2137 9.89757 12.6798 5.67465 15.3431 7.41159L13.5302 10.831Z" fill="#6AD7E5" stroke="black" stroke-width="0.35" stroke-linecap="round"/>
<path fill-rule="evenodd" clip-rule="evenodd" d="M28.2654 7.09468C30.8905 5.24917 33.2627 9.41297 30.2118 10.4606L28.2654 7.09468Z" fill="#6AD7E5" stroke="black" stroke-width="0.35" stroke-linecap="round"/>
<path fill-rule="evenodd" clip-rule="evenodd" d="M28.8301 31.8328C29.4969 32.2457 30.7157 33.4943 29.7154 34.0998C28.7543 34.9806 28.2164 33.133 27.3728 32.877C27.7361 32.3832 28.1966 31.933 28.8301 31.8328Z" fill="#F6D2A2" stroke="black" stroke-width="0.35" stroke-linecap="round"/>
<path d="M29.7154 34.0998C29.5671 33.8046 29.5173 33.4602 29.2698 33.2223" stroke="black" stroke-width="0.35" stroke-linecap="round"/>
<path fill-rule="evenodd" clip-rule="evenodd" d="M16.9177 33.2439C16.135 33.3651 15.6945 34.0718 15.0421 34.4307C14.4273 34.7976 14.1921 34.3132 14.1367 34.2149C14.0403 34.1709 14.0484 34.2558 13.8997 34.1059C13.3297 33.2056 14.4935 32.5475 15.0996 32.1003C15.9436 31.9295 16.4726 32.6619 16.9177 33.2439Z" fill="#F6D2A2" stroke="black" stroke-width="0.35" stroke-linecap="round"/>
<path d="M14.1365 34.2148C14.1663 33.8717 14.4381 33.6419 14.5676 33.3517" stroke="black" stroke-width="0.35" stroke-linecap="round"/>
<path fill-rule="evenodd" clip-rule="evenodd" d="M13.6687 9.66468C13.2312 9.43302 12.9102 9.1184 13.1778 8.61187C13.4256 8.14294 13.8859 8.19386 14.3235 8.42552L13.6687 9.66468Z" fill="black"/>
<path fill-rule="evenodd" clip-rule="evenodd" d="M29.5205 9.22425C29.9581 8.99259 30.2791 8.67797 30.0114 8.17144C29.7636 7.70251 29.3033 7.75343 28.8657 7.98509L29.5205 9.22425Z" fill="black"/>
<path fill-rule="evenodd" clip-rule="evenodd" d="M32.5326 21.0509C32.4906 21.918 31.6252 21.5168 31.2331 21.2457C30.8611 20.9883 30.7523 21.2023 30.7196 20.6944C30.6982 20.3605 30.6597 20.0267 30.6787 19.6915C31.2413 19.6405 31.8534 19.7746 32.3147 20.11C32.5522 20.2829 32.9978 20.8344 32.5326 21.0509Z" fill="#F6D2A2" stroke="black" stroke-width="0.35" stroke-linecap="round"/>
<path fill-rule="evenodd" clip-rule="evenodd" d="M32.5327 21.0509C32.4067 21.0039 32.2732 20.9706 32.1877 20.8566L32.5327 21.0509Z" fill="#C6B198"/>
<path d="M32.5327 21.0509C32.4067 21.0039 32.2732 20.9706 32.1877 20.8566" stroke="black" stroke-width="0.35" stroke-linecap="round"/>
<path fill-rule="evenodd" clip-rule="evenodd" d="M21.6991 5.34076C25.0193 5.34076 28.1318 5.81602 29.7544 9.00881C31.2107 12.5875 30.6928 16.4465 30.9149 20.2287C31.1057 23.4763 31.5286 27.2283 30.0233 30.2378C28.4398 33.4041 24.4829 34.2006 21.2229 34.0839C18.6622 33.9922 15.5689 33.1561 14.1237 30.8144C12.4282 28.0673 13.2309 23.9826 13.3541 20.9259C13.5 17.3051 12.3742 13.6733 13.5627 10.1302C14.7955 6.45473 18.1206 5.62411 21.6991 5.34076Z" fill="#6AD7E5" stroke="black" stroke-width="0.35" stroke-linecap="round"/>
<path fill-rule="evenodd" clip-rule="evenodd" d="M22.2851 9.8019C22.8812 13.2703 28.5456 12.3533 27.732 8.85517C27.0025 5.71831 22.087 6.58659 22.2851 9.8019Z" fill="white" stroke="black" stroke-width="0.35" stroke-linecap="round"/>
<path fill-rule="evenodd" clip-rule="evenodd" d="M15.5162 10.3629C16.2888 13.3825 21.119 12.6094 20.9369 9.58042C20.7188 5.95278 14.7775 6.65276 15.5162 10.3629Z" fill="white" stroke="black" stroke-width="0.35" stroke-linecap="round"/>
<path fill-rule="evenodd" clip-rule="evenodd" d="M22.9688 13.9639C22.9713 14.4148 23.0712 14.9211 22.986 15.4008C22.871 15.6184 22.6453 15.6414 22.4509 15.7293C22.1819 15.6871 21.9557 15.5103 21.8479 15.2585C21.7788 14.711 21.8736 14.1808 21.891 13.6331L22.9688 13.9639Z" fill="white" stroke="black" stroke-width="0.35" stroke-linecap="round"/>
<path d="M16.8486 10.7546C17.2991 10.7546 17.6642 10.3587 17.6642 9.87039C17.6642 9.38203 17.2991 8.98615 16.8486 8.98615C16.3981 8.98615 16.033 9.38203 16.033 9.87039C16.033 10.3587 16.3981 10.7546 16.8486 10.7546Z" fill="black"/>
<path d="M17.2194 10.2947C17.3256 10.2947 17.4117 10.194 17.4117 10.0699C17.4117 9.94583 17.3256 9.84521 17.2194 9.84521C17.1132 9.84521 17.0271 9.94583 17.0271 10.0699C17.0271 10.194 17.1132 10.2947 17.2194 10.2947Z" fill="white"/>
<path d="M23.6824 10.5344C24.1254 10.5344 24.4845 10.1385 24.4845 9.65017C24.4845 9.16182 24.1254 8.76593 23.6824 8.76593C23.2395 8.76593 22.8804 9.16182 22.8804 9.65017C22.8804 10.1385 23.2395 10.5344 23.6824 10.5344Z" fill="black"/>
<path d="M24.0473 10.0744C24.1517 10.0744 24.2364 9.97383 24.2364 9.84972C24.2364 9.72561 24.1517 9.625 24.0473 9.625C23.9428 9.625 23.8582 9.72561 23.8582 9.84972C23.8582 9.97383 23.9428 10.0744 24.0473 10.0744Z" fill="white"/>
<path fill-rule="evenodd" clip-rule="evenodd" d="M20.6377 13.9149C20.2818 14.7781 20.8362 16.5042 21.8017 15.2311C21.7327 14.6835 21.8275 14.1534 21.8449 13.6056L20.6377 13.9149Z" fill="white" stroke="black" stroke-width="0.35" stroke-linecap="round"/>
<path fill-rule="evenodd" clip-rule="evenodd" d="M20.7596 12.2525C20.0963 12.3091 19.5542 13.0984 19.899 13.7228C20.3557 14.5499 21.3751 13.6497 22.01 13.734C22.7407 13.749 23.3394 14.5073 23.9263 13.8711C24.579 13.1635 23.6453 12.4743 22.9155 12.1661L20.7596 12.2525Z" fill="#F6D2A2" stroke="#231F20" stroke-width="0.35" stroke-linecap="round"/>
<path fill-rule="evenodd" clip-rule="evenodd" d="M20.6762 12.2179C20.6271 11.0678 22.8179 10.924 23.0766 11.8867C23.3347 12.8471 20.7841 13.0702 20.6762 12.2179Z" fill="black"/>
</g>
<g filter="url(#filter1_d_2_3140)">
<path d="M43.3588 26.5182V14.1546H47.8865C48.7639 14.1546 49.4903 14.2994 50.0658 14.5892C50.6413 14.875 51.072 15.2633 51.3577 15.7543C51.6435 16.2413 51.7864 16.7907 51.7864 17.4024C51.7864 17.9176 51.6918 18.3522 51.5026 18.7064C51.3135 19.0565 51.0599 19.3383 50.742 19.5516C50.428 19.7608 50.0819 19.9138 49.7036 20.0104V20.1311C50.1141 20.1512 50.5146 20.284 50.905 20.5295C51.2994 20.771 51.6254 21.1151 51.8829 21.5619C52.1405 22.0086 52.2693 22.5519 52.2693 23.1918C52.2693 23.8237 52.1204 24.3912 51.8226 24.8942C51.5288 25.3933 51.074 25.7897 50.4582 26.0835C49.8425 26.3733 49.0556 26.5182 48.0978 26.5182H43.3588ZM45.2242 24.9184H47.9167C48.8101 24.9184 49.4501 24.7453 49.8364 24.3992C50.2228 24.0531 50.416 23.6205 50.416 23.1013C50.416 22.7109 50.3174 22.3527 50.1202 22.0267C49.923 21.7007 49.6412 21.4411 49.275 21.2479C48.9128 21.0548 48.4821 20.9582 47.9831 20.9582H45.2242V24.9184ZM45.2242 19.5033H47.7235C48.1421 19.5033 48.5184 19.4228 48.8524 19.2618C49.1905 19.1008 49.4581 18.8754 49.6553 18.5857C49.8565 18.2919 49.9572 17.9457 49.9572 17.5473C49.9572 17.0362 49.7781 16.6076 49.4199 16.2614C49.0617 15.9153 48.5123 15.7423 47.7718 15.7423H45.2242V19.5033ZM60.2109 22.6727V17.2455H62.022V26.5182H60.2471V24.9124H60.1505C59.9372 25.4074 59.5951 25.8199 59.1242 26.1499C58.6574 26.4759 58.0758 26.6389 57.3796 26.6389C56.7839 26.6389 56.2567 26.5081 55.7979 26.2465C55.3431 25.9809 54.9849 25.5885 54.7233 25.0693C54.4657 24.5501 54.337 23.9082 54.337 23.1435V17.2455H56.142V22.9262C56.142 23.5581 56.3171 24.0612 56.6672 24.4354C57.0174 24.8097 57.4721 24.9969 58.0316 24.9969C58.3696 24.9969 58.7057 24.9124 59.0397 24.7433C59.3778 24.5743 59.6575 24.3187 59.8789 23.9766C60.1042 23.6345 60.2149 23.1999 60.2109 22.6727ZM64.4473 26.5182V17.2455H66.2523V26.5182H64.4473ZM65.3589 15.8147C65.045 15.8147 64.7753 15.7101 64.5499 15.5008C64.3286 15.2875 64.2179 15.0339 64.2179 14.7401C64.2179 14.4423 64.3286 14.1888 64.5499 13.9795C64.7753 13.7662 65.045 13.6595 65.3589 13.6595C65.6728 13.6595 65.9404 13.7662 66.1618 13.9795C66.3872 14.1888 66.4999 14.4423 66.4999 14.7401C66.4999 15.0339 66.3872 15.2875 66.1618 15.5008C65.9404 15.7101 65.6728 15.8147 65.3589 15.8147ZM70.4857 14.1546V26.5182H68.6807V14.1546H70.4857ZM77.2426 17.2455V18.6943H72.1776V17.2455H77.2426ZM73.5359 15.0239H75.3409V23.7955C75.3409 24.1457 75.3933 24.4093 75.4979 24.5864C75.6025 24.7594 75.7374 24.8782 75.9024 24.9425C76.0714 25.0029 76.2545 25.0331 76.4517 25.0331C76.5966 25.0331 76.7234 25.023 76.8321 25.0029C76.9407 24.9828 77.0252 24.9667 77.0856 24.9546L77.4116 26.4457C77.307 26.486 77.1581 26.5262 76.9649 26.5665C76.7717 26.6107 76.5302 26.6349 76.2404 26.6389C75.7655 26.647 75.3228 26.5625 74.9123 26.3854C74.5018 26.2083 74.1698 25.9346 73.9162 25.5643C73.6627 25.1941 73.5359 24.7292 73.5359 24.1698V15.0239ZM85.7486 26.5182L83.0199 17.2455H84.8853L86.7024 24.0551H86.793L88.6162 17.2455H90.4816L92.2926 24.0249H92.3832L94.1882 17.2455H96.0537L93.331 26.5182H91.4897L89.6062 19.8232H89.4674L87.5838 26.5182H85.7486ZM97.7666 26.5182V17.2455H99.5717V26.5182H97.7666ZM98.6782 15.8147C98.3643 15.8147 98.0946 15.7101 97.8693 15.5008C97.6479 15.2875 97.5372 15.0339 97.5372 14.7401C97.5372 14.4423 97.6479 14.1888 97.8693 13.9795C98.0946 13.7662 98.3643 13.6595 98.6782 13.6595C98.9921 13.6595 99.2598 13.7662 99.4811 13.9795C99.7065 14.1888 99.8192 14.4423 99.8192 14.7401C99.8192 15.0339 99.7065 15.2875 99.4811 15.5008C99.2598 15.7101 98.9921 15.8147 98.6782 15.8147ZM106.329 17.2455V18.6943H101.264V17.2455H106.329ZM102.622 15.0239H104.427V23.7955C104.427 24.1457 104.479 24.4093 104.584 24.5864C104.688 24.7594 104.823 24.8782 104.988 24.9425C105.157 25.0029 105.34 25.0331 105.538 25.0331C105.683 25.0331 105.809 25.023 105.918 25.0029C106.027 24.9828 106.111 24.9667 106.172 24.9546L106.498 26.4457C106.393 26.486 106.244 26.5262 106.051 26.5665C105.858 26.6107 105.616 26.6349 105.326 26.6389C104.851 26.647 104.409 26.5625 103.998 26.3854C103.588 26.2083 103.256 25.9346 103.002 25.5643C102.749 25.1941 102.622 24.7292 102.622 24.1698V15.0239ZM110.329 21.0125V26.5182H108.524V14.1546H110.305V18.7547H110.42C110.637 18.2556 110.969 17.8592 111.416 17.5654C111.863 17.2716 112.446 17.1247 113.167 17.1247C113.803 17.1247 114.358 17.2555 114.833 17.5171C115.312 17.7787 115.682 18.1691 115.944 18.6883C116.209 19.2034 116.342 19.8474 116.342 20.6201V26.5182H114.537V20.8374C114.537 20.1573 114.362 19.63 114.012 19.2558C113.662 18.8774 113.175 18.6883 112.551 18.6883C112.124 18.6883 111.742 18.7788 111.404 18.9599C111.07 19.1411 110.806 19.4067 110.613 19.7568C110.424 20.1029 110.329 20.5215 110.329 21.0125Z" fill="#E8E8E8"/>
<path d="M131.05 17.6933C130.981 17.4397 130.881 17.2163 130.748 17.0232C130.615 16.826 130.452 16.6589 130.259 16.5221C130.066 16.3853 129.844 16.2826 129.595 16.2142C129.345 16.1418 129.072 16.1055 128.774 16.1055C128.174 16.1055 127.655 16.2504 127.216 16.5402C126.782 16.83 126.446 17.2526 126.208 17.808C125.971 18.3593 125.852 19.0294 125.852 19.8183C125.852 20.6111 125.967 21.2872 126.196 21.8467C126.426 22.4061 126.758 22.8327 127.192 23.1265C127.627 23.4203 128.154 23.5672 128.774 23.5672C129.321 23.5672 129.784 23.4786 130.162 23.3016C130.545 23.1205 130.835 22.8649 131.032 22.5349C131.229 22.2049 131.328 21.8165 131.328 21.3697L131.883 21.4362H128.877V19.2568H134.207V20.8928C134.207 21.9996 133.972 22.9474 133.501 23.7362C133.034 24.525 132.39 25.1308 131.569 25.5533C130.752 25.9759 129.812 26.1872 128.75 26.1872C127.571 26.1872 126.534 25.9317 125.641 25.4205C124.747 24.9094 124.051 24.1809 123.552 23.2352C123.053 22.2853 122.803 21.1585 122.803 19.8545C122.803 18.8403 122.954 17.9408 123.256 17.156C123.558 16.3671 123.979 15.6991 124.518 15.1517C125.061 14.6044 125.689 14.1898 126.401 13.9081C127.118 13.6264 127.889 13.4855 128.714 13.4855C129.43 13.4855 130.096 13.5881 130.712 13.7934C131.332 13.9987 131.879 14.2884 132.354 14.6627C132.833 15.037 133.221 15.4817 133.519 15.9969C133.817 16.512 134.002 17.0775 134.074 17.6933H131.05ZM140.297 26.1933C139.323 26.1933 138.486 25.994 137.786 25.5956C137.089 25.1931 136.552 24.6337 136.174 23.9173C135.799 23.1969 135.612 22.3618 135.612 21.412C135.612 20.4582 135.799 19.6231 136.174 18.9067C136.552 18.1863 137.089 17.6269 137.786 17.2284C138.486 16.826 139.323 16.6247 140.297 16.6247C141.271 16.6247 142.106 16.826 142.802 17.2284C143.503 17.6269 144.04 18.1863 144.414 18.9067C144.792 19.6231 144.982 20.4582 144.982 21.412C144.982 22.3618 144.792 23.1969 144.414 23.9173C144.04 24.6337 143.503 25.1931 142.802 25.5956C142.106 25.994 141.271 26.1933 140.297 26.1933ZM140.315 23.9656C140.669 23.9656 140.969 23.857 141.215 23.6396C141.46 23.4223 141.647 23.1205 141.776 22.7341C141.909 22.3477 141.975 21.901 141.975 21.3939C141.975 20.8787 141.909 20.428 141.776 20.0416C141.647 19.6553 141.46 19.3534 141.215 19.1361C140.969 18.9188 140.669 18.8101 140.315 18.8101C139.949 18.8101 139.639 18.9188 139.385 19.1361C139.136 19.3534 138.945 19.6553 138.812 20.0416C138.683 20.428 138.619 20.8787 138.619 21.3939C138.619 21.901 138.683 22.3477 138.812 22.7341C138.945 23.1205 139.136 23.4223 139.385 23.6396C139.639 23.857 139.949 23.9656 140.315 23.9656Z" fill="#6AD7E5"/>
</g>
</g>
<rect x="1.05049" y="1.06819" width="151.9" height="37.9" rx="6.95" stroke="white" stroke-opacity="0.15" stroke-width="2.1"/>
<defs>
<filter id="filter0_d_2_3140" x="2.60034" y="0.618224" width="38.8001" height="38.8" filterUnits="userSpaceOnUse" color-interpolation-filters="sRGB">
<feFlood flood-opacity="0" result="BackgroundImageFix"/>
<feColorMatrix in="SourceAlpha" type="matrix" values="0 0 0 0 0 0 0 0 0 0 0 0 0 0 0 0 0 0 127 0" result="hardAlpha"/>
<feOffset/>
<feGaussianBlur stdDeviation="2"/>
<feComposite in2="hardAlpha" operator="out"/>
<feColorMatrix type="matrix" values="0 0 0 0 0 0 0 0 0 0 0 0 0 0 0 0 0 0 0.25 0"/>
<feBlend mode="normal" in2="BackgroundImageFix" result="effect1_dropShadow_2_3140"/>
<feBlend mode="normal" in="SourceGraphic" in2="effect1_dropShadow_2_3140" result="shape"/>
</filter>
<filter id="filter1_d_2_3140" x="36.4005" y="3.91819" width="115.2" height="32.2" filterUnits="userSpaceOnUse" color-interpolation-filters="sRGB">
<feFlood flood-opacity="0" result="BackgroundImageFix"/>
<feColorMatrix in="SourceAlpha" type="matrix" values="0 0 0 0 0 0 0 0 0 0 0 0 0 0 0 0 0 0 127 0" result="hardAlpha"/>
<feOffset/>
<feGaussianBlur stdDeviation="2.8"/>
<feComposite in2="hardAlpha" operator="out"/>
<feColorMatrix type="matrix" values="0 0 0 0 0 0 0 0 0 0 0 0 0 0 0 0 0 0 0.25 0"/>
<feBlend mode="normal" in2="BackgroundImageFix" result="effect1_dropShadow_2_3140"/>
<feBlend mode="normal" in="SourceGraphic" in2="effect1_dropShadow_2_3140" result="shape"/>
</filter>
<linearGradient id="paint0_linear_2_3140" x1="77.0005" y1="0.0181885" x2="77.0005" y2="40.0182" gradientUnits="userSpaceOnUse">
<stop stop-color="#152A2D"/>
<stop offset="1" stop-color="#102022"/>
</linearGradient>
<clipPath id="clip0_2_3140">
<rect x="0.000488281" y="0.0181885" width="154" height="40" rx="8" fill="white"/>
</clipPath>
</defs>
</svg>
