<svg width="189" height="41" viewBox="0 0 189 41" fill="none" xmlns="http://www.w3.org/2000/svg">
<rect x="0.000488281" y="0.0167847" width="188.001" height="40.0014" rx="8" fill="url(#paint0_linear_3_710)"/>
<g filter="url(#filter0_d_3_710)">
<path d="M34.4731 10.8718C32.7222 9.08573 30.0375 9.08573 28.2866 10.7527C28.1699 10.8718 28.1699 10.9908 28.1699 11.1099C28.1699 11.229 28.1699 11.348 28.2866 11.4671L28.8703 12.0624C28.987 12.1815 29.2204 12.1815 29.4539 12.0624C29.9208 11.7052 30.3877 11.5862 30.9713 11.5862C32.372 11.5862 33.5393 12.7768 33.5393 14.2057C33.5393 14.9201 33.3058 15.5154 32.8389 15.9917C29.3372 19.5637 24.5514 9.562 13.9294 14.6819C13.229 15.0391 12.8788 15.8726 13.229 16.587V16.7061L14.9799 19.9209C15.3301 20.6354 16.2639 20.8735 16.9642 20.5163L17.7813 20.04C18.7151 19.4447 19.5322 18.8493 20.3493 18.1349C20.466 18.0158 20.8162 18.0158 20.9329 18.1349C21.1664 18.254 21.1664 18.4921 21.0496 18.7303L20.9329 18.8493C20.1158 19.5637 19.182 20.2781 18.2482 20.8735L17.4311 21.2307C17.081 21.4688 16.7308 21.5879 16.2639 21.5879C15.4468 21.5879 14.6297 21.1116 14.2795 20.3972L12.5287 17.3014C9.26033 19.6828 7.15926 24.3265 8.32652 30.1608C8.32652 30.399 8.55997 30.518 8.79342 30.518H10.7778C11.0112 30.518 11.1279 30.399 11.2447 30.1608C11.4781 28.4939 12.8788 27.4222 14.513 27.6604C15.797 27.7794 16.8475 28.8511 16.9642 30.1608C16.9642 30.399 17.1977 30.518 17.4311 30.518H19.2987C19.5322 30.518 19.6489 30.399 19.7657 30.1608C19.9991 28.4939 21.3998 27.4222 23.034 27.6604C24.318 27.7794 25.3685 28.8511 25.4852 30.1608C25.4852 30.399 25.7187 30.518 25.9521 30.518H27.8197C28.0532 30.518 28.2866 30.2799 28.2866 30.0417C28.2866 27.3032 29.1037 24.2074 31.0881 22.6595C37.9749 17.1824 36.1073 12.5387 34.4731 10.8718V10.8718ZM27.2361 19.0875L25.8354 18.3731C25.8354 17.8968 26.1856 17.5396 26.6525 17.5396C27.1194 17.5396 27.4696 17.8968 27.4696 18.3731C27.5863 18.7303 27.4696 18.9684 27.2361 19.0875Z" fill="#7DC1D1"/>
</g>
<g filter="url(#filter1_d_3_710)">
<path d="M45.3603 26.5175V14.1538H49.888C50.7653 14.1538 51.4918 14.2987 52.0673 14.5885C52.6428 14.8742 53.0734 15.2626 53.3592 15.7536C53.6449 16.2406 53.7878 16.7899 53.7878 17.4017C53.7878 17.9168 53.6932 18.3515 53.5041 18.7057C53.3149 19.0558 53.0614 19.3375 52.7434 19.5508C52.4295 19.7601 52.0834 19.913 51.7051 20.0096V20.1304C52.1156 20.1505 52.516 20.2833 52.9064 20.5288C53.3008 20.7703 53.6268 21.1144 53.8844 21.5611C54.142 22.0079 54.2708 22.5512 54.2708 23.1911C54.2708 23.823 54.1219 24.3904 53.824 24.8935C53.5302 25.3926 53.0755 25.789 52.4597 26.0828C51.8439 26.3726 51.0571 26.5175 50.0993 26.5175H45.3603ZM47.2257 24.9177H49.9181C50.8116 24.9177 51.4515 24.7446 51.8379 24.3985C52.2243 24.0524 52.4174 23.6197 52.4174 23.1005C52.4174 22.7102 52.3188 22.352 52.1216 22.026C51.9244 21.7 51.6427 21.4404 51.2765 21.2472C50.9142 21.054 50.4836 20.9574 49.9846 20.9574H47.2257V24.9177ZM47.2257 19.5025H49.725C50.1435 19.5025 50.5198 19.422 50.8539 19.2611C51.1919 19.1001 51.4596 18.8747 51.6568 18.5849C51.858 18.2911 51.9586 17.945 51.9586 17.5466C51.9586 17.0354 51.7795 16.6068 51.4213 16.2607C51.0631 15.9146 50.5138 15.7415 49.7733 15.7415H47.2257V19.5025ZM62.2124 22.6719V17.2447H64.0234V26.5175H62.2486V24.9116H62.152C61.9387 25.4067 61.5966 25.8192 61.1257 26.1492C60.6588 26.4752 60.0773 26.6382 59.381 26.6382C58.7854 26.6382 58.2582 26.5074 57.7994 26.2458C57.3446 25.9802 56.9864 25.5878 56.7248 25.0686C56.4672 24.5494 56.3384 23.9075 56.3384 23.1428V17.2447H58.1435V22.9255C58.1435 23.5573 58.3185 24.0604 58.6687 24.4347C59.0188 24.809 59.4736 24.9961 60.033 24.9961C60.3711 24.9961 60.7071 24.9116 61.0412 24.7426C61.3793 24.5736 61.659 24.318 61.8803 23.9759C62.1057 23.6338 62.2164 23.1992 62.2124 22.6719ZM66.4488 26.5175V17.2447H68.2538V26.5175H66.4488ZM67.3603 15.814C67.0464 15.814 66.7768 15.7093 66.5514 15.5001C66.33 15.2867 66.2194 15.0332 66.2194 14.7394C66.2194 14.4416 66.33 14.188 66.5514 13.9787C66.7768 13.7654 67.0464 13.6588 67.3603 13.6588C67.6743 13.6588 67.9419 13.7654 68.1633 13.9787C68.3886 14.188 68.5013 14.4416 68.5013 14.7394C68.5013 15.0332 68.3886 15.2867 68.1633 15.5001C67.9419 15.7093 67.6743 15.814 67.3603 15.814ZM72.4872 14.1538V26.5175H70.6822V14.1538H72.4872ZM79.244 17.2447V18.6936H74.1791V17.2447H79.244ZM75.5374 15.0231H77.3424V23.7948C77.3424 24.1449 77.3947 24.4085 77.4994 24.5856C77.604 24.7587 77.7388 24.8774 77.9038 24.9418C78.0729 25.0022 78.256 25.0324 78.4532 25.0324C78.5981 25.0324 78.7249 25.0223 78.8335 25.0022C78.9422 24.9821 79.0267 24.966 79.0871 24.9539L79.4131 26.445C79.3084 26.4853 79.1595 26.5255 78.9663 26.5657C78.7732 26.61 78.5317 26.6342 78.2419 26.6382C77.767 26.6462 77.3243 26.5617 76.9138 26.3846C76.5033 26.2076 76.1712 25.9339 75.9177 25.5636C75.6641 25.1934 75.5374 24.7285 75.5374 24.1691V15.0231ZM87.7501 26.5175L85.0214 17.2447H86.8868L88.7039 24.0544H88.7945L90.6176 17.2447H92.483L94.2941 24.0242H94.3847L96.1897 17.2447H98.0551L95.3325 26.5175H93.4912L91.6077 19.8225H91.4688L89.5853 26.5175H87.7501ZM99.7681 26.5175V17.2447H101.573V26.5175H99.7681ZM100.68 15.814C100.366 15.814 100.096 15.7093 99.8707 15.5001C99.6494 15.2867 99.5387 15.0332 99.5387 14.7394C99.5387 14.4416 99.6494 14.188 99.8707 13.9787C100.096 13.7654 100.366 13.6588 100.68 13.6588C100.994 13.6588 101.261 13.7654 101.483 13.9787C101.708 14.188 101.821 14.4416 101.821 14.7394C101.821 15.0332 101.708 15.2867 101.483 15.5001C101.261 15.7093 100.994 15.814 100.68 15.814ZM108.33 17.2447V18.6936H103.265V17.2447H108.33ZM104.623 15.0231H106.428V23.7948C106.428 24.1449 106.481 24.4085 106.585 24.5856C106.69 24.7587 106.825 24.8774 106.99 24.9418C107.159 25.0022 107.342 25.0324 107.539 25.0324C107.684 25.0324 107.811 25.0223 107.919 25.0022C108.028 24.9821 108.113 24.966 108.173 24.9539L108.499 26.445C108.394 26.4853 108.245 26.5255 108.052 26.5657C107.859 26.61 107.618 26.6342 107.328 26.6382C106.853 26.6462 106.41 26.5617 106 26.3846C105.589 26.2076 105.257 25.9339 105.004 25.5636C104.75 25.1934 104.623 24.7285 104.623 24.1691V15.0231ZM112.331 21.0118V26.5175H110.526V14.1538H112.307V18.754H112.421C112.639 18.2549 112.971 17.8585 113.418 17.5647C113.864 17.2709 114.448 17.124 115.168 17.124C115.804 17.124 116.36 17.2548 116.834 17.5164C117.313 17.778 117.684 18.1684 117.945 18.6876C118.211 19.2027 118.344 19.8466 118.344 20.6194V26.5175H116.539V20.8367C116.539 20.1565 116.364 19.6293 116.013 19.255C115.663 18.8767 115.176 18.6876 114.553 18.6876C114.126 18.6876 113.744 18.7781 113.406 18.9592C113.071 19.1403 112.808 19.4059 112.615 19.7561C112.426 20.1022 112.331 20.5208 112.331 21.0118Z" fill="#E8E8E8"/>
<path d="M133.051 18.1925C132.983 17.939 132.882 17.7156 132.749 17.5224C132.617 17.3252 132.454 17.1582 132.26 17.0214C132.067 16.8845 131.846 16.7819 131.596 16.7135C131.347 16.641 131.073 16.6048 130.775 16.6048C130.176 16.6048 129.657 16.7497 129.218 17.0395C128.783 17.3292 128.447 17.7518 128.21 18.3072C127.972 18.8586 127.854 19.5287 127.854 20.3175C127.854 21.1104 127.968 21.7865 128.198 22.3459C128.427 22.9054 128.759 23.332 129.194 23.6258C129.628 23.9196 130.156 24.0665 130.775 24.0665C131.323 24.0665 131.786 23.9779 132.164 23.8008C132.546 23.6197 132.836 23.3642 133.033 23.0341C133.23 22.7041 133.329 22.3157 133.329 21.869L133.884 21.9354H130.878V19.7561H136.209V21.3921C136.209 22.4989 135.973 23.4467 135.502 24.2355C135.035 25.0243 134.392 25.63 133.57 26.0526C132.753 26.4752 131.814 26.6865 130.751 26.6865C129.572 26.6865 128.536 26.4309 127.642 25.9198C126.749 25.4087 126.052 24.6802 125.553 23.7344C125.054 22.7846 124.805 21.6577 124.805 20.3537C124.805 19.3395 124.956 18.44 125.258 17.6552C125.559 16.8664 125.98 16.1983 126.519 15.651C127.063 15.1036 127.691 14.6891 128.403 14.4074C129.119 14.1256 129.89 13.9848 130.715 13.9848C131.431 13.9848 132.097 14.0874 132.713 14.2927C133.333 14.4979 133.88 14.7877 134.355 15.162C134.834 15.5363 135.223 15.981 135.52 16.4961C135.818 17.0113 136.003 17.5768 136.076 18.1925H133.051ZM137.97 26.5175V17.2447H140.837V18.9351H140.934C141.103 18.3233 141.379 17.8685 141.761 17.5707C142.143 17.2689 142.588 17.118 143.095 17.118C143.232 17.118 143.373 17.128 143.518 17.1481C143.663 17.1642 143.798 17.1904 143.922 17.2266V19.7923C143.781 19.744 143.596 19.7058 143.367 19.6776C143.142 19.6494 142.94 19.6354 142.763 19.6354C142.413 19.6354 142.097 19.7138 141.815 19.8708C141.538 20.0237 141.318 20.239 141.157 20.5167C141 20.7904 140.922 21.1124 140.922 21.4827V26.5175H137.97ZM147.391 26.6744C146.799 26.6744 146.274 26.5758 145.815 26.3786C145.36 26.1774 145 25.8755 144.734 25.4731C144.473 25.0666 144.342 24.5575 144.342 23.9457C144.342 23.4306 144.432 22.9959 144.614 22.6417C144.795 22.2876 145.044 21.9998 145.362 21.7785C145.68 21.5571 146.046 21.3901 146.461 21.2774C146.875 21.1607 147.318 21.0822 147.789 21.042C148.316 20.9937 148.741 20.9434 149.063 20.891C149.385 20.8347 149.618 20.7562 149.763 20.6556C149.912 20.551 149.986 20.4041 149.986 20.2149V20.1847C149.986 19.8748 149.88 19.6354 149.666 19.4663C149.453 19.2973 149.165 19.2128 148.803 19.2128C148.413 19.2128 148.099 19.2973 147.861 19.4663C147.624 19.6354 147.473 19.8688 147.409 20.1666L144.686 20.07C144.766 19.5066 144.974 19.0035 145.308 18.5608C145.646 18.114 146.109 17.7639 146.696 17.5104C147.288 17.2528 147.998 17.124 148.827 17.124C149.419 17.124 149.964 17.1944 150.463 17.3353C150.962 17.4721 151.397 17.6733 151.767 17.939C152.138 18.2006 152.423 18.5225 152.625 18.9049C152.83 19.2872 152.932 19.7239 152.932 20.2149V26.5175H150.155V25.2255H150.083C149.918 25.5395 149.707 25.8051 149.449 26.0224C149.196 26.2398 148.896 26.4027 148.55 26.5114C148.208 26.6201 147.821 26.6744 147.391 26.6744ZM148.302 24.7426C148.62 24.7426 148.906 24.6782 149.159 24.5494C149.417 24.4206 149.622 24.2435 149.775 24.0182C149.928 23.7888 150.005 23.5231 150.005 23.2213V22.3399C149.92 22.3842 149.817 22.4244 149.697 22.4606C149.58 22.4969 149.451 22.5311 149.31 22.5633C149.169 22.5955 149.025 22.6236 148.876 22.6478C148.727 22.6719 148.584 22.6941 148.447 22.7142C148.169 22.7585 147.932 22.8269 147.735 22.9194C147.541 23.012 147.393 23.1327 147.288 23.2817C147.187 23.4265 147.137 23.5996 147.137 23.8008C147.137 24.1067 147.246 24.3401 147.463 24.5011C147.684 24.6621 147.964 24.7426 148.302 24.7426ZM158.124 26.6503C157.44 26.6503 156.818 26.4732 156.259 26.119C155.699 25.7648 155.253 25.2336 154.919 24.5253C154.585 23.8169 154.418 22.9376 154.418 21.8871C154.418 20.7965 154.591 19.899 154.937 19.1947C155.283 18.4903 155.736 17.9692 156.295 17.6311C156.858 17.293 157.464 17.124 158.112 17.124C158.599 17.124 159.016 17.2085 159.362 17.3775C159.708 17.5425 159.994 17.7559 160.219 18.0175C160.444 18.2791 160.615 18.5507 160.732 18.8324H160.793V14.1538H163.745V26.5175H160.823V25.0143H160.732C160.607 25.3 160.43 25.5676 160.201 25.8172C159.971 26.0667 159.684 26.2679 159.338 26.4209C158.996 26.5738 158.591 26.6503 158.124 26.6503ZM159.15 24.3502C159.509 24.3502 159.815 24.2496 160.068 24.0483C160.322 23.8431 160.517 23.5553 160.654 23.1851C160.791 22.8148 160.859 22.3801 160.859 21.8811C160.859 21.374 160.791 20.9373 160.654 20.5711C160.521 20.2048 160.326 19.9231 160.068 19.7259C159.815 19.5287 159.509 19.4301 159.15 19.4301C158.784 19.4301 158.474 19.5307 158.221 19.7319C157.967 19.9332 157.774 20.2169 157.641 20.5831C157.512 20.9494 157.448 21.382 157.448 21.8811C157.448 22.3801 157.514 22.8148 157.647 23.1851C157.78 23.5553 157.971 23.8431 158.221 24.0483C158.474 24.2496 158.784 24.3502 159.15 24.3502ZM168.564 14.1538V26.5175H165.611V14.1538H168.564ZM174.777 26.6925C173.807 26.6925 172.97 26.5014 172.266 26.119C171.565 25.7327 171.026 25.1833 170.648 24.4709C170.274 23.7545 170.086 22.9033 170.086 21.9173C170.086 20.9595 170.276 20.1223 170.654 19.4059C171.032 18.6855 171.565 18.1261 172.254 17.7277C172.942 17.3252 173.753 17.124 174.687 17.124C175.347 17.124 175.95 17.2266 176.498 17.4319C177.045 17.6371 177.518 17.941 177.916 18.3434C178.315 18.7459 178.625 19.243 178.846 19.8346C179.067 20.4222 179.178 21.0963 179.178 21.8569V22.5934H171.119V20.879H176.431C176.427 20.565 176.353 20.2853 176.208 20.0398C176.063 19.7943 175.864 19.6032 175.61 19.4663C175.361 19.3255 175.073 19.255 174.747 19.255C174.417 19.255 174.121 19.3295 173.859 19.4784C173.598 19.6233 173.391 19.8225 173.238 20.076C173.085 20.3256 173.004 20.6093 172.996 20.9273V22.6719C172.996 23.0502 173.071 23.3823 173.22 23.668C173.368 23.9497 173.58 24.1691 173.853 24.326C174.127 24.483 174.453 24.5615 174.831 24.5615C175.093 24.5615 175.33 24.5253 175.544 24.4528C175.757 24.3804 175.94 24.2737 176.093 24.1329C176.246 23.992 176.361 23.8189 176.437 23.6137L179.148 23.6922C179.035 24.2999 178.788 24.8291 178.405 25.2799C178.027 25.7266 177.53 26.0747 176.914 26.3243C176.298 26.5698 175.586 26.6925 174.777 26.6925Z" fill="#7DC1D1"/>
</g>
<rect x="1.07192" y="1.08821" width="185.858" height="37.8585" rx="6.92857" stroke="white" stroke-opacity="0.15" stroke-width="2.14286"/>
<defs>
<filter id="filter0_d_3_710" x="2.40021" y="0.416504" width="39.2023" height="39.202" filterUnits="userSpaceOnUse" color-interpolation-filters="sRGB">
<feFlood flood-opacity="0" result="BackgroundImageFix"/>
<feColorMatrix in="SourceAlpha" type="matrix" values="0 0 0 0 0 0 0 0 0 0 0 0 0 0 0 0 0 0 127 0" result="hardAlpha"/>
<feOffset/>
<feGaussianBlur stdDeviation="2.80014"/>
<feComposite in2="hardAlpha" operator="out"/>
<feColorMatrix type="matrix" values="0 0 0 0 0 0 0 0 0 0 0 0 0 0 0 0 0 0 0.25 0"/>
<feBlend mode="normal" in2="BackgroundImageFix" result="effect1_dropShadow_3_710"/>
<feBlend mode="normal" in="SourceGraphic" in2="effect1_dropShadow_3_710" result="shape"/>
</filter>
<filter id="filter1_d_3_710" x="38.2877" y="3.80317" width="147.429" height="32.4286" filterUnits="userSpaceOnUse" color-interpolation-filters="sRGB">
<feFlood flood-opacity="0" result="BackgroundImageFix"/>
<feColorMatrix in="SourceAlpha" type="matrix" values="0 0 0 0 0 0 0 0 0 0 0 0 0 0 0 0 0 0 127 0" result="hardAlpha"/>
<feOffset/>
<feGaussianBlur stdDeviation="2.85714"/>
<feComposite in2="hardAlpha" operator="out"/>
<feColorMatrix type="matrix" values="0 0 0 0 0 0 0 0 0 0 0 0 0 0 0 0 0 0 0.25 0"/>
<feBlend mode="normal" in2="BackgroundImageFix" result="effect1_dropShadow_3_710"/>
<feBlend mode="normal" in="SourceGraphic" in2="effect1_dropShadow_3_710" result="shape"/>
</filter>
<linearGradient id="paint0_linear_3_710" x1="94.0012" y1="0.0167847" x2="94.0012" y2="40.0182" gradientUnits="userSpaceOnUse">
<stop stop-color="#19282C"/>
<stop offset="1" stop-color="#121C1F"/>
</linearGradient>
</defs>
</svg>
