<svg width="130" height="28" viewBox="0 0 130 28" fill="none" xmlns="http://www.w3.org/2000/svg">
<rect x="0.499512" y="-3.05176e-05" width="129.5" height="28" rx="6" fill="url(#paint0_linear_3_710)"/>
<g filter="url(#filter0_d_3_710)">
<path d="M25.4074 7.46763C24.1568 6.19196 22.2393 6.19196 20.9887 7.38258C20.9053 7.46763 20.9053 7.55267 20.9053 7.63772C20.9053 7.72276 20.9053 7.8078 20.9887 7.89285L21.4056 8.31807C21.4889 8.40312 21.6557 8.40312 21.8224 8.31807C22.1559 8.06294 22.4894 7.97789 22.9063 7.97789C23.9067 7.97789 24.7404 8.82834 24.7404 9.84887C24.7404 10.3591 24.5737 10.7844 24.2402 11.1245C21.7391 13.6759 18.3208 6.53214 10.734 10.1891C10.2338 10.4442 9.98369 11.0395 10.2338 11.5498V11.6348L11.4844 13.931C11.7345 14.4413 12.4015 14.6114 12.9017 14.3562L13.4853 14.0161C14.1523 13.5908 14.7359 13.1656 15.3195 12.6553C15.4028 12.5703 15.6529 12.5703 15.7363 12.6553C15.9031 12.7404 15.9031 12.9105 15.8197 13.0806L15.7363 13.1656C15.1527 13.6759 14.4857 14.1861 13.8188 14.6114L13.2352 14.8665C12.9851 15.0366 12.7349 15.1216 12.4015 15.1216C11.8179 15.1216 11.2343 14.7815 10.9841 14.2712L9.73358 12.06C7.39918 13.7609 5.89849 17.0777 6.73221 21.2448C6.73221 21.4149 6.89895 21.5 7.06569 21.5H8.48301C8.64975 21.5 8.73312 21.4149 8.81649 21.2448C8.98323 20.0542 9.98369 19.2888 11.1509 19.4589C12.068 19.5439 12.8183 20.3093 12.9017 21.2448C12.9017 21.4149 13.0684 21.5 13.2352 21.5H14.5691C14.7359 21.5 14.8192 21.4149 14.9026 21.2448C15.0693 20.0542 16.0698 19.2888 17.237 19.4589C18.1541 19.5439 18.9044 20.3093 18.9878 21.2448C18.9878 21.4149 19.1545 21.5 19.3213 21.5H20.6552C20.822 21.5 20.9887 21.3299 20.9887 21.1598C20.9887 19.2038 21.5723 16.9926 22.9896 15.887C27.9085 11.975 26.5746 8.65825 25.4074 7.46763V7.46763ZM20.2384 13.3357L19.2379 12.8254C19.2379 12.4853 19.488 12.2301 19.8215 12.2301C20.155 12.2301 20.4051 12.4853 20.4051 12.8254C20.4885 13.0806 20.4051 13.2507 20.2384 13.3357Z" fill="#7DC1D1"/>
</g>
<g filter="url(#filter1_d_3_710)">
<path d="M33.3784 18.5V10.5H36.3081C36.8758 10.5 37.3459 10.5937 37.7183 10.7812C38.0907 10.9661 38.3693 11.2174 38.5542 11.5351C38.7391 11.8502 38.8315 12.2057 38.8315 12.6015C38.8315 12.9349 38.7703 13.2161 38.6479 13.4453C38.5256 13.6718 38.3615 13.8541 38.1558 13.9922C37.9526 14.1276 37.7287 14.2265 37.4839 14.289V14.3672C37.7495 14.3802 38.0086 14.4661 38.2612 14.625C38.5164 14.7812 38.7274 15.0039 38.894 15.2929C39.0607 15.582 39.144 15.9336 39.144 16.3476C39.144 16.7565 39.0477 17.1237 38.855 17.4492C38.6649 17.7721 38.3706 18.0286 37.9722 18.2187C37.5737 18.4062 37.0646 18.5 36.4448 18.5H33.3784ZM34.5854 17.4648H36.3276C36.9058 17.4648 37.3198 17.3528 37.5698 17.1289C37.8198 16.9049 37.9448 16.625 37.9448 16.289C37.9448 16.0364 37.881 15.8047 37.7534 15.5937C37.6258 15.3828 37.4435 15.2148 37.2065 15.0898C36.9722 14.9648 36.6935 14.9023 36.3706 14.9023H34.5854V17.4648ZM34.5854 13.9609H36.2026C36.4735 13.9609 36.717 13.9088 36.9331 13.8047C37.1519 13.7005 37.325 13.5547 37.4526 13.3672C37.5828 13.1771 37.6479 12.9531 37.6479 12.6953C37.6479 12.3646 37.5321 12.0872 37.3003 11.8632C37.0685 11.6393 36.7131 11.5273 36.2339 11.5273H34.5854V13.9609ZM44.2827 16.0117V12.5H45.4546V18.5H44.3061V17.4609H44.2436C44.1056 17.7812 43.8843 18.0481 43.5796 18.2617C43.2775 18.4726 42.9012 18.5781 42.4507 18.5781C42.0653 18.5781 41.7241 18.4935 41.4272 18.3242C41.133 18.1523 40.9012 17.8984 40.7319 17.5625C40.5653 17.2265 40.4819 16.8112 40.4819 16.3164V12.5H41.6499V16.1757C41.6499 16.5846 41.7632 16.9101 41.9897 17.1523C42.2163 17.3945 42.5106 17.5156 42.8726 17.5156C43.0913 17.5156 43.3088 17.4609 43.5249 17.3515C43.7436 17.2422 43.9246 17.0768 44.0679 16.8554C44.2137 16.6341 44.2853 16.3528 44.2827 16.0117ZM47.0239 18.5V12.5H48.1919V18.5H47.0239ZM47.6138 11.5742C47.4106 11.5742 47.2362 11.5065 47.0903 11.3711C46.9471 11.233 46.8755 11.069 46.8755 10.8789C46.8755 10.6862 46.9471 10.5221 47.0903 10.3867C47.2362 10.2487 47.4106 10.1797 47.6138 10.1797C47.8169 10.1797 47.9901 10.2487 48.1333 10.3867C48.2791 10.5221 48.352 10.6862 48.352 10.8789C48.352 11.069 48.2791 11.233 48.1333 11.3711C47.9901 11.5065 47.8169 11.5742 47.6138 11.5742ZM50.9311 10.5V18.5H49.7632V10.5H50.9311ZM55.3032 12.5V13.4375H52.0259V12.5H55.3032ZM52.9048 11.0625H54.0727V16.7382C54.0727 16.9648 54.1066 17.1354 54.1743 17.25C54.242 17.3619 54.3293 17.4388 54.436 17.4804C54.5454 17.5195 54.6639 17.539 54.7915 17.539C54.8852 17.539 54.9673 17.5325 55.0376 17.5195C55.1079 17.5065 55.1626 17.4961 55.2017 17.4882L55.4126 18.4531C55.3449 18.4791 55.2485 18.5052 55.1235 18.5312C54.9985 18.5599 54.8423 18.5755 54.6548 18.5781C54.3475 18.5833 54.061 18.5286 53.7954 18.414C53.5298 18.2994 53.3149 18.1224 53.1509 17.8828C52.9868 17.6432 52.9048 17.3424 52.9048 16.9804V11.0625ZM60.8071 18.5L59.0415 12.5H60.2485L61.4243 16.9062H61.4829L62.6626 12.5H63.8696L65.0415 16.8867H65.1001L66.2681 12.5H67.4751L65.7134 18.5H64.522L63.3032 14.1679H63.2134L61.9946 18.5H60.8071ZM68.5835 18.5V12.5H69.7515V18.5H68.5835ZM69.1733 11.5742C68.9702 11.5742 68.7957 11.5065 68.6499 11.3711C68.5067 11.233 68.435 11.069 68.435 10.8789C68.435 10.6862 68.5067 10.5221 68.6499 10.3867C68.7957 10.2487 68.9702 10.1797 69.1733 10.1797C69.3765 10.1797 69.5496 10.2487 69.6929 10.3867C69.8387 10.5221 69.9116 10.6862 69.9116 10.8789C69.9116 11.069 69.8387 11.233 69.6929 11.3711C69.5496 11.5065 69.3765 11.5742 69.1733 11.5742ZM74.1235 12.5V13.4375H70.8462V12.5H74.1235ZM71.7251 11.0625H72.8931V16.7382C72.8931 16.9648 72.9269 17.1354 72.9946 17.25C73.0623 17.3619 73.1496 17.4388 73.2563 17.4804C73.3657 17.5195 73.4842 17.539 73.6118 17.539C73.7056 17.539 73.7876 17.5325 73.8579 17.5195C73.9282 17.5065 73.9829 17.4961 74.022 17.4882L74.2329 18.4531C74.1652 18.4791 74.0688 18.5052 73.9438 18.5312C73.8188 18.5599 73.6626 18.5755 73.4751 18.5781C73.1678 18.5833 72.8813 18.5286 72.6157 18.414C72.3501 18.2994 72.1352 18.1224 71.9712 17.8828C71.8071 17.6432 71.7251 17.3424 71.7251 16.9804V11.0625ZM76.7124 14.9375V18.5H75.5444V10.5H76.6968V13.4765H76.771C76.9116 13.1536 77.1265 12.8971 77.4155 12.707C77.7046 12.5169 78.0822 12.4218 78.5483 12.4218C78.9598 12.4218 79.3192 12.5065 79.6265 12.6757C79.9363 12.845 80.1759 13.0976 80.3452 13.4336C80.5171 13.7669 80.603 14.1836 80.603 14.6836V18.5H79.435V14.8242C79.435 14.3841 79.3218 14.0429 79.0952 13.8007C78.8686 13.556 78.5535 13.4336 78.1499 13.4336C77.8738 13.4336 77.6265 13.4922 77.4077 13.6093C77.1916 13.7265 77.021 13.8984 76.896 14.125C76.7736 14.3489 76.7124 14.6198 76.7124 14.9375Z" fill="#E8E8E8"/>
<path d="M90.3873 12.6235C90.339 12.4446 90.268 12.2869 90.1742 12.1505C90.0805 12.0113 89.9654 11.8934 89.8291 11.7968C89.6927 11.7003 89.5364 11.6278 89.3603 11.5795C89.1842 11.5284 88.991 11.5028 88.7808 11.5028C88.3575 11.5028 87.991 11.6051 87.6813 11.8096C87.3745 12.0142 87.1373 12.3125 86.9697 12.7045C86.8021 13.0937 86.7183 13.5667 86.7183 14.1235C86.7183 14.6832 86.7992 15.1605 86.9612 15.5554C87.1231 15.9503 87.3575 16.2514 87.6643 16.4588C87.9711 16.6662 88.3433 16.7699 88.7808 16.7699C89.1671 16.7699 89.4938 16.7074 89.7609 16.5824C90.0308 16.4545 90.2353 16.2741 90.3745 16.0412C90.5137 15.8082 90.5833 15.5341 90.5833 15.2187L90.9754 15.2656H88.8532V13.7272H92.616V14.8821C92.616 15.6633 92.4498 16.3324 92.1174 16.8892C91.7879 17.446 91.3333 17.8735 90.7538 18.1718C90.1771 18.4701 89.5137 18.6193 88.7637 18.6193C87.9313 18.6193 87.1998 18.4389 86.5691 18.0781C85.9384 17.7173 85.447 17.2031 85.0947 16.5355C84.7424 15.865 84.5663 15.0696 84.5663 14.1491C84.5663 13.4332 84.6728 12.7983 84.8859 12.2443C85.0989 11.6875 85.3958 11.2159 85.7765 10.8295C86.16 10.4432 86.6032 10.1505 87.106 9.95167C87.6117 9.75281 88.1558 9.65338 88.7381 9.65338C89.2438 9.65338 89.714 9.72582 90.1487 9.87071C90.5862 10.0156 90.9725 10.2201 91.3077 10.4843C91.6458 10.7485 91.92 11.0625 92.1302 11.4261C92.3404 11.7897 92.4711 12.1889 92.5222 12.6235H90.3873ZM93.8592 18.5V11.9545H95.8834V13.1477H95.9516C96.0709 12.7159 96.2655 12.3949 96.5354 12.1846C96.8053 11.9716 97.1192 11.865 97.4771 11.865C97.5737 11.865 97.6732 11.8721 97.7754 11.8863C97.8777 11.8977 97.9729 11.9162 98.0609 11.9417V13.7528C97.9615 13.7187 97.8308 13.6917 97.6689 13.6718C97.5098 13.652 97.3678 13.642 97.2428 13.642C96.9956 13.642 96.7726 13.6974 96.5737 13.8082C96.3777 13.9162 96.2229 14.0681 96.1092 14.2642C95.9984 14.4574 95.943 14.6846 95.943 14.946V18.5H93.8592ZM100.509 18.6108C100.091 18.6108 99.7207 18.5412 99.3969 18.402C99.0759 18.2599 98.8216 18.0468 98.6341 17.7628C98.4494 17.4758 98.3571 17.1164 98.3571 16.6846C98.3571 16.321 98.421 16.0142 98.5489 15.7642C98.6767 15.5142 98.8528 15.311 99.0773 15.1548C99.3017 14.9985 99.5602 14.8806 99.8528 14.8011C100.145 14.7187 100.458 14.6633 100.79 14.6349C101.163 14.6008 101.462 14.5653 101.689 14.5284C101.917 14.4886 102.082 14.4332 102.184 14.3622C102.289 14.2883 102.341 14.1846 102.341 14.0511V14.0298C102.341 13.811 102.266 13.642 102.116 13.5227C101.965 13.4034 101.762 13.3437 101.506 13.3437C101.231 13.3437 101.009 13.4034 100.841 13.5227C100.674 13.642 100.567 13.8068 100.522 14.017L98.6 13.9488C98.6568 13.5511 98.8031 13.196 99.0389 12.8835C99.2776 12.5681 99.6043 12.321 100.019 12.142C100.437 11.9602 100.938 11.8693 101.523 11.8693C101.941 11.8693 102.326 11.919 102.678 12.0184C103.03 12.115 103.337 12.2571 103.599 12.4446C103.86 12.6292 104.062 12.8565 104.204 13.1264C104.349 13.3963 104.421 13.7045 104.421 14.0511V18.5H102.461V17.588H102.41C102.293 17.8096 102.144 17.9971 101.962 18.1505C101.783 18.3039 101.572 18.419 101.327 18.4957C101.086 18.5724 100.813 18.6108 100.509 18.6108ZM101.153 17.2471C101.377 17.2471 101.579 17.2017 101.758 17.1108C101.939 17.0199 102.084 16.8949 102.192 16.7358C102.3 16.5738 102.354 16.3863 102.354 16.1733V15.5511C102.295 15.5824 102.222 15.6108 102.137 15.6363C102.055 15.6619 101.964 15.686 101.864 15.7088C101.765 15.7315 101.663 15.7514 101.557 15.7684C101.452 15.7855 101.351 15.8011 101.255 15.8153C101.059 15.8466 100.891 15.8949 100.752 15.9602C100.616 16.0255 100.511 16.1108 100.437 16.2159C100.366 16.3181 100.33 16.4403 100.33 16.5824C100.33 16.7983 100.407 16.963 100.56 17.0767C100.716 17.1903 100.914 17.2471 101.153 17.2471ZM108.086 18.5937C107.603 18.5937 107.164 18.4687 106.769 18.2187C106.374 17.9687 106.059 17.5937 105.823 17.0937C105.587 16.5937 105.469 15.973 105.469 15.2315C105.469 14.4616 105.591 13.8281 105.836 13.3309C106.08 12.8338 106.4 12.4659 106.795 12.2272C107.192 11.9886 107.62 11.8693 108.077 11.8693C108.421 11.8693 108.715 11.9289 108.959 12.0483C109.204 12.1647 109.405 12.3153 109.564 12.5C109.724 12.6846 109.844 12.8764 109.927 13.0753H109.969V9.7727H112.053V18.5H109.991V17.4389H109.927C109.839 17.6406 109.714 17.8295 109.552 18.0056C109.39 18.1818 109.187 18.3238 108.942 18.4318C108.701 18.5397 108.415 18.5937 108.086 18.5937ZM108.81 16.9701C109.063 16.9701 109.279 16.8991 109.458 16.7571C109.637 16.6122 109.775 16.4091 109.871 16.1477C109.968 15.8863 110.016 15.5795 110.016 15.2272C110.016 14.8693 109.968 14.561 109.871 14.3025C109.778 14.044 109.64 13.8451 109.458 13.7059C109.279 13.5667 109.063 13.4971 108.81 13.4971C108.552 13.4971 108.333 13.5681 108.154 13.7102C107.975 13.8522 107.839 14.0525 107.745 14.311C107.654 14.5696 107.609 14.875 107.609 15.2272C107.609 15.5795 107.655 15.8863 107.749 16.1477C107.843 16.4091 107.978 16.6122 108.154 16.7571C108.333 16.8991 108.552 16.9701 108.81 16.9701ZM115.455 9.7727V18.5H113.371V9.7727H115.455ZM119.841 18.6235C119.156 18.6235 118.565 18.4886 118.068 18.2187C117.574 17.946 117.193 17.5582 116.926 17.0554C116.662 16.5497 116.53 15.9488 116.53 15.2528C116.53 14.5767 116.663 13.9858 116.93 13.4801C117.197 12.9716 117.574 12.5767 118.06 12.2954C118.545 12.0113 119.118 11.8693 119.777 11.8693C120.243 11.8693 120.669 11.9417 121.055 12.0866C121.442 12.2315 121.775 12.446 122.057 12.7301C122.338 13.0142 122.557 13.365 122.713 13.7826C122.869 14.1974 122.947 14.6733 122.947 15.2102V15.7301H117.258V14.5199H121.008C121.006 14.2983 120.953 14.1008 120.851 13.9275C120.748 13.7542 120.608 13.6193 120.429 13.5227C120.253 13.4233 120.05 13.3735 119.819 13.3735C119.587 13.3735 119.378 13.4261 119.193 13.5312C119.008 13.6335 118.862 13.7741 118.754 13.9531C118.646 14.1292 118.589 14.3295 118.584 14.5539V15.7855C118.584 16.0525 118.636 16.2869 118.741 16.4886C118.846 16.6875 118.996 16.8423 119.189 16.9531C119.382 17.0639 119.612 17.1193 119.879 17.1193C120.064 17.1193 120.231 17.0937 120.382 17.0426C120.533 16.9914 120.662 16.9162 120.77 16.8167C120.878 16.7173 120.959 16.5951 121.013 16.4503L122.926 16.5056C122.846 16.9346 122.672 17.3082 122.402 17.6264C122.135 17.9417 121.784 18.1875 121.349 18.3636C120.915 18.5369 120.412 18.6235 119.841 18.6235Z" fill="#7DC1D1"/>
</g>
<rect x="1.24951" y="0.749969" width="128" height="26.5" rx="5.25" stroke="white" stroke-opacity="0.15" stroke-width="1.5"/>
<defs>
<filter id="filter0_d_3_710" x="2.49951" y="-3.05176e-05" width="28" height="28" filterUnits="userSpaceOnUse" color-interpolation-filters="sRGB">
<feFlood flood-opacity="0" result="BackgroundImageFix"/>
<feColorMatrix in="SourceAlpha" type="matrix" values="0 0 0 0 0 0 0 0 0 0 0 0 0 0 0 0 0 0 127 0" result="hardAlpha"/>
<feOffset/>
<feGaussianBlur stdDeviation="2"/>
<feComposite in2="hardAlpha" operator="out"/>
<feColorMatrix type="matrix" values="0 0 0 0 0 0 0 0 0 0 0 0 0 0 0 0 0 0 0.25 0"/>
<feBlend mode="normal" in2="BackgroundImageFix" result="effect1_dropShadow_3_710"/>
<feBlend mode="normal" in="SourceGraphic" in2="effect1_dropShadow_3_710" result="shape"/>
</filter>
<filter id="filter1_d_3_710" x="28.4995" y="3.49997" width="99.5" height="21" filterUnits="userSpaceOnUse" color-interpolation-filters="sRGB">
<feFlood flood-opacity="0" result="BackgroundImageFix"/>
<feColorMatrix in="SourceAlpha" type="matrix" values="0 0 0 0 0 0 0 0 0 0 0 0 0 0 0 0 0 0 127 0" result="hardAlpha"/>
<feOffset/>
<feGaussianBlur stdDeviation="2"/>
<feComposite in2="hardAlpha" operator="out"/>
<feColorMatrix type="matrix" values="0 0 0 0 0 0 0 0 0 0 0 0 0 0 0 0 0 0 0.25 0"/>
<feBlend mode="normal" in2="BackgroundImageFix" result="effect1_dropShadow_3_710"/>
<feBlend mode="normal" in="SourceGraphic" in2="effect1_dropShadow_3_710" result="shape"/>
</filter>
<linearGradient id="paint0_linear_3_710" x1="65.2495" y1="-3.05176e-05" x2="65.2495" y2="28" gradientUnits="userSpaceOnUse">
<stop stop-color="#19282C"/>
<stop offset="1" stop-color="#121C1F"/>
</linearGradient>
</defs>
</svg>
