<svg width="193" height="41" viewBox="0 0 193 41" fill="none" xmlns="http://www.w3.org/2000/svg">
<g clip-path="url(#clip0_40_396)">
<rect x="0.000488281" y="0.0139771" width="192.001" height="40.0014" rx="8" fill="url(#paint0_linear_40_396)"/>
<g filter="url(#filter0_d_40_396)">
<path d="M32.3405 32.0947C32.3393 32.0971 32.3359 32.1033 32.3296 32.113C32.317 32.1324 32.2924 32.1662 32.2491 32.2117C32.1626 32.303 32.001 32.4417 31.7111 32.6071C31.1302 32.9385 30.0425 33.3719 28.0357 33.7449C23.4731 34.5923 17.8142 34.4912 14.495 33.9449L13.8798 33.8437L14.3524 34.2503L14.4665 34.1176C14.3524 34.2503 14.3526 34.2504 14.3527 34.2505L14.353 34.2508L14.3537 34.2514L14.3553 34.2528L14.3594 34.256L14.3708 34.2648C14.3799 34.2716 14.3923 34.2803 14.4084 34.2907C14.4405 34.3115 14.4876 34.3391 14.5535 34.3715C14.6852 34.4364 14.8931 34.5212 15.2096 34.6112C15.8224 34.7853 16.8477 34.9801 18.5266 35.0841L18.6902 35.0948C21.3891 35.2707 24.8024 35.2207 27.5705 34.8049C28.9531 34.5973 30.1863 34.2967 31.091 33.881C31.9845 33.4704 32.6183 32.9181 32.6758 32.1773L32.341 32.0997C32.3388 32.0988 32.3389 32.0987 32.3389 32.0987L32.3391 32.0982L32.3394 32.0973L32.3401 32.0958L32.3405 32.0947ZM32.3405 32.0947L32.3409 32.094L32.3411 32.0936C32.341 32.0936 32.3409 32.094 32.3405 32.0947ZM17.7038 28.3575L17.7039 28.3574L17.704 28.3574L17.704 28.3574L17.7041 28.3573L18.2342 28.0332H17.6125H17.6116H17.5872L17.5637 28.0399C16.9823 28.2052 16.5675 28.3976 16.3133 28.6144C16.1848 28.724 16.0901 28.846 16.041 28.9812C15.9908 29.1195 15.9926 29.2605 16.0399 29.3953C16.1305 29.6535 16.3807 29.8726 16.7019 30.0537C17.0302 30.2388 17.4643 30.4017 17.9734 30.5324C20.0054 31.0544 23.3463 31.0919 26.3 29.8222L26.7017 29.6495L26.2917 29.4973C25.7298 29.2888 25.1896 29.0253 24.6788 28.7108L24.6207 28.675L24.5538 28.688C21.9797 29.1855 20.7519 29.2339 18.432 28.9365L18.432 28.9365L18.4277 28.936C17.9476 28.8865 17.6846 28.8078 17.5513 28.7323C17.4866 28.6957 17.4641 28.6663 17.4568 28.6528C17.4514 28.6429 17.4501 28.6349 17.4531 28.6212C17.4623 28.5787 17.5074 28.5165 17.5803 28.4514C17.6128 28.4224 17.6446 28.3983 17.6683 28.3814C17.6801 28.3731 17.6896 28.3667 17.6959 28.3626L17.7027 28.3582L17.7038 28.3575ZM17.0416 24.9521V24.5981L16.7809 24.7973C16.1607 25.0095 15.7187 25.2305 15.4456 25.4587C15.1675 25.6909 15.0263 25.9688 15.1331 26.2622C15.2285 26.5245 15.5042 26.7293 15.8508 26.8906C16.2076 27.0566 16.683 27.1962 17.245 27.3041C19.4908 27.7354 23.2434 27.6833 26.7818 26.6236L27.3077 26.466L26.7876 26.2901C26.3623 26.1462 25.9764 25.9038 25.6612 25.5824L25.5945 25.5144L25.5013 25.5334C22.0834 26.2295 20.1088 26.1801 17.5816 25.9311C17.1045 25.8816 16.8577 25.7882 16.7404 25.7001C16.6854 25.6588 16.6642 25.6226 16.6554 25.5964C16.6465 25.5696 16.6454 25.5377 16.656 25.4972C16.679 25.4089 16.7492 25.3099 16.8301 25.2235C16.8684 25.1826 16.905 25.1487 16.9319 25.1252C16.9388 25.1192 16.945 25.1139 16.9504 25.1094L17.0416 25.0785V24.953V24.9521ZM30.7206 30.5204L30.68 30.4868H30.6169H30.6095L30.5556 30.7358C30.5053 30.7965 30.5052 30.7965 30.5051 30.7964L30.5079 30.7989C30.5114 30.8021 30.517 30.8075 30.5242 30.8149C30.5387 30.8298 30.5582 30.8519 30.5772 30.8794C30.6167 30.9366 30.6449 31.0034 30.6413 31.0724C30.6381 31.135 30.6073 31.2318 30.4631 31.3514C30.3153 31.4739 30.0567 31.6125 29.6196 31.7469C27.9759 32.2407 24.498 32.5668 21.0435 32.6043C19.3197 32.623 17.6089 32.5697 16.1446 32.431C14.6745 32.2917 13.4718 32.0678 12.7518 31.7539L12.751 31.7536C12.6318 31.7023 12.5823 31.6585 12.565 31.6347C12.5574 31.6242 12.5577 31.6235 12.5603 31.6173C12.5605 31.6166 12.5609 31.6159 12.5612 31.615C12.5697 31.5933 12.5977 31.5533 12.665 31.4991C12.7296 31.447 12.8172 31.3925 12.9231 31.3376C13.3514 31.1158 13.9908 30.9329 14.2942 30.8853L14.2942 30.8857L14.3065 30.8829C14.6237 30.8095 14.8664 30.7731 15.0282 30.7551C15.1091 30.7461 15.1698 30.7417 15.2095 30.7395C15.2293 30.7384 15.2439 30.7379 15.2531 30.7376L15.263 30.7374L15.2647 30.7374H15.2648H15.2648L15.2648 30.7374L15.2649 30.7374H15.265H15.8206L15.3649 30.419C15.1788 30.2888 14.9096 30.2382 14.6215 30.2297C14.3269 30.221 13.9839 30.2557 13.626 30.3213C12.9106 30.4523 12.1135 30.7107 11.4879 31.0188C11.1755 31.1726 10.8986 31.3424 10.6949 31.5201C10.4979 31.6919 10.3372 31.8991 10.3259 32.1312C10.3135 32.3846 10.4783 32.5853 10.7408 32.7331C11.0031 32.8807 11.3999 32.9997 11.949 33.0884C17.9212 34.0684 23.3715 33.8556 26.9474 33.2197C28.7291 32.9028 30.0675 32.4772 30.7701 32.0279C30.9473 31.9145 31.0923 31.7945 31.1941 31.6674C31.2962 31.5398 31.3622 31.395 31.3591 31.2381C31.3531 30.9296 31.0924 30.6965 30.7206 30.5204ZM18.3082 21.4671L18.2461 21.3423L18.1292 21.3703C18.1121 21.3695 18.0889 21.3686 18.0599 21.3679C17.9935 21.3661 17.8969 21.3651 17.7732 21.3679C17.5259 21.3734 17.1704 21.3942 16.7333 21.4546C15.8593 21.5754 14.6578 21.8552 13.3432 22.4909L13.3432 22.4909L13.3419 22.4916C13.1442 22.5894 12.9887 22.6898 12.8818 22.7956C12.7753 22.901 12.6987 23.0308 12.7083 23.1808C12.7177 23.3296 12.8087 23.4459 12.9165 23.5324C13.0255 23.6197 13.1728 23.6945 13.3443 23.7599C14.0259 24.0202 15.2644 24.1978 16.7473 24.2824C19.7221 24.4521 23.7775 24.252 26.5662 23.519L26.5929 23.512L26.6161 23.4972C26.8819 23.3272 27.2113 23.1553 27.4772 23.0247C27.6096 22.9598 27.725 22.9056 27.8073 22.8677C27.8484 22.8488 27.8812 22.8339 27.9036 22.8239L27.9292 22.8124L27.9357 22.8096L27.9373 22.8089L27.9376 22.8087L27.9377 22.8087L27.8366 22.4762L27.8672 22.6485L27.8366 22.4762L27.8365 22.4762L27.8362 22.4762L27.835 22.4765L27.8303 22.4773L27.8113 22.4806L27.7368 22.4936C27.6714 22.5048 27.5754 22.5211 27.4531 22.5414C27.2086 22.5818 26.8591 22.6378 26.4396 22.7002C25.6008 22.8248 24.4838 22.9742 23.3682 23.0741C20.6289 23.2736 17.7065 23.3227 16.2316 23.1248L16.2307 23.1246C15.799 23.0689 15.5217 23.0017 15.359 22.9326C15.2774 22.8979 15.2376 22.8681 15.2206 22.8499C15.2194 22.8486 15.2183 22.8474 15.2174 22.8463C15.2208 22.8393 15.2283 22.8267 15.2447 22.8083C15.2737 22.7755 15.3204 22.7361 15.3875 22.6915C15.5215 22.6024 15.7126 22.5084 15.9392 22.4145C16.3905 22.2274 16.9525 22.0527 17.4053 21.924C17.6309 21.8598 17.828 21.8076 17.9686 21.7713C18.0389 21.7532 18.095 21.7391 18.1335 21.7296L18.1607 21.7229L18.4453 21.7429L18.3091 21.4689L18.3082 21.4671ZM28.4146 21.8459L28.2579 21.768L28.0248 22.2367L28.4923 22.0027L28.4924 22.0027L28.4926 22.0026L28.4927 22.0025L28.4928 22.0025L28.4929 22.0024L28.4975 22.0003C28.5022 21.9981 28.5102 21.9945 28.5214 21.9897C28.5439 21.9802 28.5796 21.9658 28.6293 21.9482C28.7282 21.9131 28.8826 21.8651 29.0984 21.8166C29.9115 21.6596 30.902 22.2235 31.0575 23.1337C31.2101 24.0271 30.5713 25.39 27.8243 26.8303H27.7574L27.709 26.9268C27.6889 26.9668 27.6696 26.9956 27.6564 27.0132C27.6498 27.022 27.6448 27.0279 27.6421 27.0311L27.6401 27.0333L27.6401 27.0333L27.6398 27.0336L27.1891 27.4868L27.8098 27.3246C29.6962 26.8318 30.955 26.1412 31.7184 25.3877C32.4843 24.6318 32.7543 23.8079 32.6415 23.0719C32.4158 21.5995 30.7038 20.6284 28.8588 21.2789C28.6483 21.3408 28.4994 21.4616 28.4042 21.5646C28.3561 21.6167 28.3207 21.6653 28.2969 21.7016C28.285 21.7199 28.2758 21.7352 28.2694 21.7466L28.2617 21.7606L28.2593 21.7652L28.2585 21.7668L28.2581 21.7675L28.258 21.7678L28.2579 21.7679C28.2579 21.7679 28.2579 21.768 28.4146 21.8459Z" fill="#4E7896" stroke="#4E7896" stroke-width="0.350018"/>
<path d="M24.488 5.01401L24.6131 4.89159L24.1611 4.42987L24.3182 5.05657C24.6208 6.26308 24.5045 7.24838 24.136 8.09851C23.7655 8.95327 23.135 9.68319 22.3895 10.3673C21.8909 10.8248 21.3508 11.2534 20.8079 11.6843C20.5348 11.9011 20.261 12.1184 19.9913 12.3403C19.1935 12.9968 18.4415 13.6864 17.9157 14.4863C17.5466 15.0429 17.4017 15.6163 17.4442 16.2034C17.4865 16.7868 17.713 17.3724 18.0674 17.9599C18.7737 19.131 20.0131 20.3491 21.432 21.6254L21.7094 21.4252C21.4536 20.8403 21.0591 20.2732 20.6716 19.7162C20.6313 19.6582 20.5911 19.6004 20.5511 19.5427C20.1212 18.9221 19.7159 18.3093 19.4912 17.6617C19.2691 17.0214 19.2246 16.3498 19.5189 15.6067C19.8155 14.8576 20.4628 14.0197 21.6578 13.0659C24.6967 10.6667 25.4738 8.64165 25.454 7.18442C25.4442 6.45962 25.2369 5.88938 25.0313 5.49977C24.9285 5.30504 24.8259 5.1551 24.7483 5.05296C24.7094 5.00187 24.6767 4.96263 24.6532 4.93564C24.6414 4.92214 24.6319 4.91168 24.6251 4.90433L24.617 4.89562L24.6145 4.89302L24.6136 4.89216L24.6133 4.89183C24.6132 4.8917 24.6131 4.89159 24.488 5.01401ZM22.3942 22.4116L22.3941 22.4117C22.3941 22.4117 22.3941 22.4117 22.3947 22.4124L22.585 22.7028L22.5047 22.5473C22.585 22.7028 22.5851 22.7027 22.5852 22.7027L22.5854 22.7026L22.5861 22.7022L22.5885 22.7009L22.5973 22.6963L22.6296 22.6789C22.6574 22.6637 22.6976 22.6414 22.7478 22.6122C22.8481 22.5539 22.9889 22.4683 23.1522 22.3582C23.4779 22.1385 23.8977 21.8184 24.265 21.4199C24.6313 21.0225 24.9556 20.5362 25.072 19.9839C25.1899 19.4243 25.0904 18.8145 24.6406 18.1883C24.569 18.0838 24.4988 17.9826 24.4304 17.8842C24.1245 17.4434 23.8568 17.0576 23.6768 16.6796C23.4608 16.226 23.3828 15.8061 23.5245 15.3475C23.6691 14.8799 24.0499 14.3457 24.8141 13.6876C25.5766 13.0311 26.7056 12.2641 28.3213 11.327L28.191 11.0059L28.2335 11.1756C28.191 11.0059 28.191 11.0059 28.1908 11.0059L28.1904 11.006L28.1888 11.0064L28.1828 11.0079L28.1602 11.0138C28.1404 11.019 28.1114 11.0267 28.0739 11.0369C27.999 11.0573 27.8903 11.0879 27.7539 11.1288C27.4813 11.2106 27.0977 11.3337 26.653 11.4993C25.7652 11.8297 24.6261 12.332 23.6377 13.0168C22.6528 13.6993 21.7933 14.58 21.5068 15.6752C21.217 16.7832 21.5251 18.0619 22.7704 19.5057L22.9029 19.3915L22.7711 19.5066C23.1104 19.8946 23.2489 20.2638 23.276 20.5961C23.3032 20.9306 23.2186 21.2421 23.0881 21.5133C22.9574 21.7849 22.7833 22.0107 22.6402 22.1694C22.569 22.2485 22.5063 22.31 22.4618 22.3514C22.4397 22.3721 22.4221 22.3876 22.4104 22.3978L22.3974 22.4089L22.3945 22.4113L22.3942 22.4116ZM24.3627 5.13615C24.3626 5.1361 24.3626 5.1361 24.3627 5.13615L24.3627 5.13615Z" fill="#F58219" stroke="#F58219" stroke-width="0.350018"/>
</g>
<g filter="url(#filter1_d_40_396)">
<path d="M45.3603 26.5147V14.151H49.888C50.7653 14.151 51.4918 14.2959 52.0673 14.5857C52.6428 14.8714 53.0734 15.2598 53.3592 15.7508C53.6449 16.2378 53.7878 16.7872 53.7878 17.3989C53.7878 17.9141 53.6932 18.3487 53.5041 18.7029C53.3149 19.053 53.0614 19.3348 52.7434 19.5481C52.4295 19.7573 52.0834 19.9103 51.7051 20.0069V20.1276C52.1156 20.1477 52.516 20.2805 52.9064 20.526C53.3008 20.7675 53.6268 21.1116 53.8844 21.5584C54.142 22.0051 54.2708 22.5484 54.2708 23.1883C54.2708 23.8202 54.1219 24.3877 53.824 24.8907C53.5302 25.3898 53.0755 25.7862 52.4597 26.08C51.8439 26.3698 51.0571 26.5147 50.0993 26.5147H45.3603ZM47.2257 24.9149H49.9181C50.8116 24.9149 51.4515 24.7418 51.8379 24.3957C52.2243 24.0496 52.4174 23.6169 52.4174 23.0978C52.4174 22.7074 52.3188 22.3492 52.1216 22.0232C51.9244 21.6972 51.6427 21.4376 51.2765 21.2444C50.9142 21.0513 50.4836 20.9547 49.9846 20.9547H47.2257V24.9149ZM47.2257 19.4998H49.725C50.1435 19.4998 50.5198 19.4193 50.8539 19.2583C51.1919 19.0973 51.4596 18.8719 51.6568 18.5821C51.858 18.2884 51.9586 17.9422 51.9586 17.5438C51.9586 17.0327 51.7795 16.604 51.4213 16.2579C51.0631 15.9118 50.5138 15.7388 49.7733 15.7388H47.2257V19.4998ZM62.2124 22.6691V17.2419H64.0234V26.5147H62.2486V24.9089H62.152C61.9387 25.4039 61.5966 25.8164 61.1257 26.1464C60.6588 26.4724 60.0773 26.6354 59.381 26.6354C58.7854 26.6354 58.2582 26.5046 57.7994 26.243C57.3446 25.9774 56.9864 25.585 56.7248 25.0658C56.4672 24.5466 56.3384 23.9047 56.3384 23.14V17.2419H58.1435V22.9227C58.1435 23.5546 58.3185 24.0576 58.6687 24.4319C59.0188 24.8062 59.4736 24.9934 60.033 24.9934C60.3711 24.9934 60.7071 24.9089 61.0412 24.7398C61.3793 24.5708 61.659 24.3152 61.8803 23.9731C62.1057 23.631 62.2164 23.1964 62.2124 22.6691ZM66.4488 26.5147V17.2419H68.2538V26.5147H66.4488ZM67.3603 15.8112C67.0464 15.8112 66.7768 15.7066 66.5514 15.4973C66.33 15.284 66.2194 15.0304 66.2194 14.7366C66.2194 14.4388 66.33 14.1853 66.5514 13.976C66.7768 13.7627 67.0464 13.656 67.3603 13.656C67.6743 13.656 67.9419 13.7627 68.1633 13.976C68.3886 14.1853 68.5013 14.4388 68.5013 14.7366C68.5013 15.0304 68.3886 15.284 68.1633 15.4973C67.9419 15.7066 67.6743 15.8112 67.3603 15.8112ZM72.4872 14.151V26.5147H70.6822V14.151H72.4872ZM79.244 17.2419V18.6908H74.1791V17.2419H79.244ZM75.5374 15.0204H77.3424V23.792C77.3424 24.1422 77.3947 24.4058 77.4994 24.5829C77.604 24.7559 77.7388 24.8746 77.9038 24.939C78.0729 24.9994 78.256 25.0296 78.4532 25.0296C78.5981 25.0296 78.7249 25.0195 78.8335 24.9994C78.9422 24.9793 79.0267 24.9632 79.0871 24.9511L79.4131 26.4422C79.3084 26.4825 79.1595 26.5227 78.9663 26.563C78.7732 26.6072 78.5317 26.6314 78.2419 26.6354C77.767 26.6435 77.3243 26.5589 76.9138 26.3819C76.5033 26.2048 76.1712 25.9311 75.9177 25.5608C75.6641 25.1906 75.5374 24.7257 75.5374 24.1663V15.0204ZM87.7501 26.5147L85.0214 17.2419H86.8868L88.7039 24.0516H88.7945L90.6176 17.2419H92.483L94.2941 24.0214H94.3847L96.1897 17.2419H98.0551L95.3325 26.5147H93.4912L91.6077 19.8197H91.4688L89.5853 26.5147H87.7501ZM99.7681 26.5147V17.2419H101.573V26.5147H99.7681ZM100.68 15.8112C100.366 15.8112 100.096 15.7066 99.8707 15.4973C99.6494 15.284 99.5387 15.0304 99.5387 14.7366C99.5387 14.4388 99.6494 14.1853 99.8707 13.976C100.096 13.7627 100.366 13.656 100.68 13.656C100.994 13.656 101.261 13.7627 101.483 13.976C101.708 14.1853 101.821 14.4388 101.821 14.7366C101.821 15.0304 101.708 15.284 101.483 15.4973C101.261 15.7066 100.994 15.8112 100.68 15.8112ZM108.33 17.2419V18.6908H103.265V17.2419H108.33ZM104.623 15.0204H106.428V23.792C106.428 24.1422 106.481 24.4058 106.585 24.5829C106.69 24.7559 106.825 24.8746 106.99 24.939C107.159 24.9994 107.342 25.0296 107.539 25.0296C107.684 25.0296 107.811 25.0195 107.919 24.9994C108.028 24.9793 108.113 24.9632 108.173 24.9511L108.499 26.4422C108.394 26.4825 108.245 26.5227 108.052 26.563C107.859 26.6072 107.618 26.6314 107.328 26.6354C106.853 26.6435 106.41 26.5589 106 26.3819C105.589 26.2048 105.257 25.9311 105.004 25.5608C104.75 25.1906 104.623 24.7257 104.623 24.1663V15.0204ZM112.331 21.009V26.5147H110.526V14.151H112.307V18.7512H112.421C112.639 18.2521 112.971 17.8557 113.418 17.5619C113.864 17.2681 114.448 17.1212 115.168 17.1212C115.804 17.1212 116.36 17.252 116.834 17.5136C117.313 17.7752 117.684 18.1656 117.945 18.6848C118.211 19.1999 118.344 19.8439 118.344 20.6166V26.5147H116.539V20.8339C116.539 20.1538 116.364 19.6265 116.013 19.2522C115.663 18.8739 115.176 18.6848 114.553 18.6848C114.126 18.6848 113.744 18.7753 113.406 18.9564C113.071 19.1375 112.808 19.4032 112.615 19.7533C112.426 20.0994 112.331 20.518 112.331 21.009Z" fill="#E8E8E8"/>
<path d="M129.96 14.151H132.906V22.6993C132.902 23.5002 132.711 24.2005 132.333 24.8002C131.955 25.3958 131.431 25.8587 130.763 26.1887C130.099 26.5187 129.331 26.6837 128.457 26.6837C127.684 26.6837 126.982 26.5489 126.35 26.2792C125.722 26.0096 125.221 25.591 124.847 25.0236C124.477 24.4561 124.294 23.7296 124.298 22.8442H127.274C127.286 23.1622 127.346 23.4338 127.455 23.6592C127.568 23.8806 127.723 24.0476 127.92 24.1603C128.117 24.273 128.353 24.3293 128.626 24.3293C128.912 24.3293 129.153 24.2689 129.351 24.1482C129.548 24.0234 129.697 23.8403 129.797 23.5988C129.902 23.3574 129.956 23.0575 129.96 22.6993V14.151ZM137.396 26.6716C136.805 26.6716 136.28 26.573 135.821 26.3758C135.366 26.1746 135.006 25.8727 134.74 25.4703C134.479 25.0638 134.348 24.5547 134.348 23.9429C134.348 23.4278 134.438 22.9931 134.619 22.639C134.801 22.2848 135.05 21.997 135.368 21.7757C135.686 21.5543 136.052 21.3873 136.467 21.2746C136.881 21.1579 137.324 21.0794 137.795 21.0392C138.322 20.9909 138.747 20.9406 139.069 20.8883C139.391 20.8319 139.624 20.7534 139.769 20.6528C139.918 20.5482 139.992 20.4013 139.992 20.2121V20.1819C139.992 19.872 139.886 19.6326 139.672 19.4635C139.459 19.2945 139.171 19.21 138.809 19.21C138.419 19.21 138.105 19.2945 137.867 19.4635C137.63 19.6326 137.479 19.866 137.415 20.1638L134.692 20.0672C134.772 19.5038 134.98 19.0007 135.314 18.558C135.652 18.1113 136.115 17.7611 136.702 17.5076C137.294 17.25 138.004 17.1212 138.833 17.1212C139.425 17.1212 139.97 17.1916 140.469 17.3325C140.968 17.4693 141.403 17.6706 141.773 17.9362C142.143 18.1978 142.429 18.5198 142.63 18.9021C142.836 19.2844 142.938 19.7211 142.938 20.2121V26.5147H140.161V25.2228H140.089C139.924 25.5367 139.713 25.8023 139.455 26.0196C139.201 26.237 138.902 26.4 138.555 26.5086C138.213 26.6173 137.827 26.6716 137.396 26.6716ZM138.308 24.7398C138.626 24.7398 138.912 24.6754 139.165 24.5466C139.423 24.4178 139.628 24.2408 139.781 24.0154C139.934 23.786 140.01 23.5204 140.01 23.2185V22.3371C139.926 22.3814 139.823 22.4216 139.702 22.4579C139.586 22.4941 139.457 22.5283 139.316 22.5605C139.175 22.5927 139.03 22.6209 138.881 22.645C138.733 22.6691 138.59 22.6913 138.453 22.7114C138.175 22.7557 137.938 22.8241 137.74 22.9167C137.547 23.0092 137.398 23.13 137.294 23.2789C137.193 23.4238 137.143 23.5968 137.143 23.7981C137.143 24.1039 137.252 24.3374 137.469 24.4983C137.69 24.6593 137.97 24.7398 138.308 24.7398ZM153.406 17.2419L150.225 26.5147H146.844L143.669 17.2419H146.778L148.486 23.629H148.583L150.297 17.2419H153.406ZM156.903 26.6716C156.312 26.6716 155.786 26.573 155.328 26.3758C154.873 26.1746 154.513 25.8727 154.247 25.4703C153.985 25.0638 153.855 24.5547 153.855 23.9429C153.855 23.4278 153.945 22.9931 154.126 22.639C154.307 22.2848 154.557 21.997 154.875 21.7757C155.193 21.5543 155.559 21.3873 155.974 21.2746C156.388 21.1579 156.831 21.0794 157.302 21.0392C157.829 20.9909 158.253 20.9406 158.575 20.8883C158.897 20.8319 159.131 20.7534 159.276 20.6528C159.425 20.5482 159.499 20.4013 159.499 20.2121V20.1819C159.499 19.872 159.392 19.6326 159.179 19.4635C158.966 19.2945 158.678 19.21 158.316 19.21C157.925 19.21 157.612 19.2945 157.374 19.4635C157.137 19.6326 156.986 19.866 156.921 20.1638L154.199 20.0672C154.279 19.5038 154.486 19.0007 154.82 18.558C155.159 18.1113 155.621 17.7611 156.209 17.5076C156.801 17.25 157.511 17.1212 158.34 17.1212C158.932 17.1212 159.477 17.1916 159.976 17.3325C160.475 17.4693 160.91 17.6706 161.28 17.9362C161.65 18.1978 161.936 18.5198 162.137 18.9021C162.342 19.2844 162.445 19.7211 162.445 20.2121V26.5147H159.668V25.2228H159.596C159.431 25.5367 159.219 25.8023 158.962 26.0196C158.708 26.237 158.408 26.4 158.062 26.5086C157.72 26.6173 157.334 26.6716 156.903 26.6716ZM157.815 24.7398C158.133 24.7398 158.418 24.6754 158.672 24.5466C158.93 24.4178 159.135 24.2408 159.288 24.0154C159.441 23.786 159.517 23.5204 159.517 23.2185V22.3371C159.433 22.3814 159.33 22.4216 159.209 22.4579C159.093 22.4941 158.964 22.5283 158.823 22.5605C158.682 22.5927 158.537 22.6209 158.388 22.645C158.239 22.6691 158.097 22.6913 157.96 22.7114C157.682 22.7557 157.445 22.8241 157.247 22.9167C157.054 23.0092 156.905 23.13 156.801 23.2789C156.7 23.4238 156.65 23.5968 156.65 23.7981C156.65 24.1039 156.758 24.3374 156.976 24.4983C157.197 24.6593 157.477 24.7398 157.815 24.7398ZM173.595 14.151V26.5147H170.613V16.9401H170.541L167.776 18.6304V16.0466L170.824 14.151H173.595ZM182.046 14.151V26.5147H179.063V16.9401H178.991L176.226 18.6304V16.0466L179.275 14.151H182.046Z" fill="#F58219"/>
</g>
</g>
<rect x="1.07192" y="1.08541" width="189.858" height="37.8585" rx="6.92857" stroke="white" stroke-opacity="0.15" stroke-width="2.14286"/>
<defs>
<filter id="filter0_d_40_396" x="2.40021" y="-1.75455" width="39.202" height="42.7203" filterUnits="userSpaceOnUse" color-interpolation-filters="sRGB">
<feFlood flood-opacity="0" result="BackgroundImageFix"/>
<feColorMatrix in="SourceAlpha" type="matrix" values="0 0 0 0 0 0 0 0 0 0 0 0 0 0 0 0 0 0 127 0" result="hardAlpha"/>
<feOffset/>
<feGaussianBlur stdDeviation="2.80014"/>
<feComposite in2="hardAlpha" operator="out"/>
<feColorMatrix type="matrix" values="0 0 0 0 0 0 0 0 0 0 0 0 0 0 0 0 0 0 0.25 0"/>
<feBlend mode="normal" in2="BackgroundImageFix" result="effect1_dropShadow_40_396"/>
<feBlend mode="normal" in="SourceGraphic" in2="effect1_dropShadow_40_396" result="shape"/>
</filter>
<filter id="filter1_d_40_396" x="38.2877" y="3.80039" width="151.429" height="32.4285" filterUnits="userSpaceOnUse" color-interpolation-filters="sRGB">
<feFlood flood-opacity="0" result="BackgroundImageFix"/>
<feColorMatrix in="SourceAlpha" type="matrix" values="0 0 0 0 0 0 0 0 0 0 0 0 0 0 0 0 0 0 127 0" result="hardAlpha"/>
<feOffset/>
<feGaussianBlur stdDeviation="2.85714"/>
<feComposite in2="hardAlpha" operator="out"/>
<feColorMatrix type="matrix" values="0 0 0 0 0 0 0 0 0 0 0 0 0 0 0 0 0 0 0.25 0"/>
<feBlend mode="normal" in2="BackgroundImageFix" result="effect1_dropShadow_40_396"/>
<feBlend mode="normal" in="SourceGraphic" in2="effect1_dropShadow_40_396" result="shape"/>
</filter>
<linearGradient id="paint0_linear_40_396" x1="96.0012" y1="0.013977" x2="96.0012" y2="40.0154" gradientUnits="userSpaceOnUse">
<stop stop-color="#2F1A07"/>
<stop offset="1" stop-color="#111A21"/>
</linearGradient>
<clipPath id="clip0_40_396">
<rect x="0.000488281" y="0.0139771" width="192.001" height="40.0014" rx="8" fill="white"/>
</clipPath>
</defs>
</svg>
