<svg width="193" height="41" viewBox="0 0 193 41" fill="none" xmlns="http://www.w3.org/2000/svg">
<g clip-path="url(#clip0_40_404)">
<rect x="0.000488281" y="0.0153809" width="192.001" height="40.0014" rx="8" fill="url(#paint0_linear_40_404)"/>
<g filter="url(#filter0_d_40_404)">
<path d="M32.3405 32.0961C32.3393 32.0985 32.3359 32.1047 32.3296 32.1144C32.317 32.1338 32.2924 32.1676 32.2491 32.2131C32.1626 32.3044 32.001 32.4431 31.7111 32.6085C31.1302 32.9399 30.0425 33.3733 28.0358 33.7463C23.4731 34.5937 17.8142 34.4926 14.495 33.9463L13.8798 33.8451L14.3524 34.2517L14.4665 34.119C14.3524 34.2517 14.3526 34.2518 14.3527 34.252L14.353 34.2522L14.3537 34.2528L14.3553 34.2542L14.3594 34.2574L14.3708 34.2662C14.3799 34.273 14.3923 34.2817 14.4084 34.2922C14.4405 34.3129 14.4876 34.3405 14.5535 34.3729C14.6852 34.4378 14.8931 34.5226 15.2096 34.6126C15.8224 34.7867 16.8477 34.9815 18.5266 35.0855L18.6902 35.0962C21.3891 35.2721 24.8024 35.2221 27.5705 34.8063C28.9531 34.5987 30.1863 34.2981 31.091 33.8824C31.9845 33.4718 32.6183 32.9195 32.6758 32.1787L32.341 32.1011C32.3388 32.1002 32.3389 32.1002 32.3389 32.1001L32.3391 32.0996L32.3394 32.0987L32.3401 32.0973L32.3405 32.0961ZM32.3405 32.0961L32.3409 32.0954L32.3411 32.095C32.3411 32.0949 32.3409 32.0953 32.3405 32.0961ZM17.7038 28.3589L17.7039 28.3588L17.704 28.3588L17.704 28.3588L17.7041 28.3587L18.2342 28.0346H17.6125H17.6116H17.5872L17.5637 28.0413C16.9823 28.2066 16.5675 28.399 16.3133 28.6158C16.1848 28.7254 16.0901 28.8474 16.041 28.9826C15.9908 29.1209 15.9926 29.2619 16.0399 29.3967C16.1305 29.6549 16.3807 29.874 16.7019 30.0551C17.0302 30.2402 17.4643 30.4031 17.9734 30.5338C20.0054 31.0558 23.3463 31.0933 26.3 29.8236L26.7017 29.6509L26.2917 29.4987C25.7298 29.2902 25.1896 29.0267 24.6788 28.7122L24.6207 28.6764L24.5538 28.6894C21.9797 29.1869 20.7519 29.2353 18.432 28.9379L18.432 28.9379L18.4277 28.9374C17.9476 28.8879 17.6846 28.8092 17.5513 28.7337C17.4866 28.6971 17.4641 28.6677 17.4568 28.6542C17.4514 28.6443 17.4501 28.6363 17.4531 28.6226C17.4623 28.5801 17.5074 28.5179 17.5803 28.4529C17.6128 28.4238 17.6446 28.3997 17.6683 28.3828C17.6801 28.3745 17.6896 28.3681 17.6959 28.364L17.7027 28.3596L17.7038 28.3589ZM17.0416 24.9535V24.5995L16.7809 24.7987C16.1607 25.0109 15.7187 25.2319 15.4456 25.4601C15.1675 25.6924 15.0263 25.9702 15.1331 26.2636C15.2285 26.5259 15.5042 26.7307 15.8508 26.892C16.2076 27.058 16.683 27.1976 17.245 27.3055C19.4908 27.7368 23.2434 27.6847 26.7818 26.625L27.3077 26.4674L26.7876 26.2915C26.3623 26.1477 25.9764 25.9053 25.6612 25.5838L25.5945 25.5158L25.5013 25.5348C22.0834 26.2309 20.1088 26.1815 17.5816 25.9325C17.1045 25.883 16.8577 25.7896 16.7404 25.7015C16.6854 25.6602 16.6642 25.624 16.6554 25.5978C16.6465 25.571 16.6454 25.5391 16.656 25.4986C16.679 25.4103 16.7492 25.3114 16.8301 25.2249C16.8684 25.184 16.905 25.1501 16.9319 25.1266C16.9388 25.1206 16.945 25.1153 16.9504 25.1108L17.0416 25.0799V24.9544V24.9535ZM30.7206 30.5218L30.68 30.4882H30.6169H30.6095L30.5556 30.7372C30.5053 30.7979 30.5052 30.7979 30.5051 30.7978L30.5079 30.8003C30.5114 30.8035 30.517 30.8089 30.5242 30.8163C30.5387 30.8312 30.5582 30.8533 30.5772 30.8808C30.6167 30.938 30.6449 31.0048 30.6413 31.0738C30.6381 31.1364 30.6073 31.2332 30.4631 31.3528C30.3153 31.4753 30.0566 31.6139 29.6195 31.7483C27.9758 32.2422 24.4979 32.5682 21.0435 32.6057C19.3197 32.6244 17.6089 32.5711 16.1446 32.4324C14.6745 32.2931 13.4718 32.0692 12.7518 31.7553L12.751 31.755C12.6318 31.7037 12.5823 31.6599 12.565 31.6361C12.5574 31.6256 12.5577 31.6249 12.5603 31.6187C12.5605 31.618 12.5609 31.6173 12.5612 31.6164C12.5697 31.5948 12.5977 31.5547 12.665 31.5005C12.7296 31.4484 12.8172 31.3939 12.9231 31.339C13.3514 31.1172 13.9908 30.9344 14.2942 30.8867L14.2942 30.8871L14.3065 30.8843C14.6237 30.8109 14.8664 30.7745 15.0282 30.7565C15.1091 30.7475 15.1698 30.7431 15.2095 30.7409C15.2293 30.7398 15.2439 30.7393 15.2531 30.739L15.263 30.7388L15.2647 30.7388H15.2648H15.2648L15.2648 30.7388L15.2649 30.7388H15.265H15.8206L15.3649 30.4204C15.1788 30.2902 14.9096 30.2396 14.6215 30.2311C14.3269 30.2224 13.9839 30.2571 13.626 30.3227C12.9106 30.4537 12.1135 30.7121 11.4879 31.0202C11.1755 31.174 10.8986 31.3438 10.6949 31.5215C10.4979 31.6933 10.3372 31.9005 10.3259 32.1327C10.3135 32.386 10.4783 32.5867 10.7408 32.7345C11.0031 32.8821 11.3999 33.0011 11.949 33.0898C17.9212 34.0698 23.3715 33.8571 26.9474 33.2211C28.7291 32.9042 30.0675 32.4786 30.7701 32.0293C30.9473 31.9159 31.0923 31.796 31.1941 31.6688C31.2962 31.5412 31.3622 31.3964 31.3591 31.2395C31.3531 30.931 31.0924 30.6979 30.7206 30.5218ZM18.3082 21.4685L18.2461 21.3437L18.1292 21.3717C18.1121 21.3709 18.0889 21.37 18.0599 21.3693C17.9935 21.3675 17.8969 21.3665 17.7732 21.3693C17.5259 21.3748 17.1704 21.3956 16.7333 21.456C15.8593 21.5768 14.6578 21.8566 13.3432 22.4923L13.3432 22.4923L13.3419 22.493C13.1442 22.5908 12.9887 22.6912 12.8818 22.797C12.7753 22.9024 12.6987 23.0322 12.7083 23.1822C12.7177 23.331 12.8087 23.4473 12.9165 23.5338C13.0255 23.6211 13.1728 23.6959 13.3443 23.7613C14.0259 24.0216 15.2644 24.1992 16.7473 24.2838C19.7221 24.4535 23.7775 24.2534 26.5662 23.5204L26.5929 23.5134L26.6161 23.4986C26.8819 23.3286 27.2113 23.1567 27.4772 23.0261C27.6096 22.9612 27.725 22.907 27.8073 22.8691C27.8484 22.8502 27.8812 22.8354 27.9036 22.8253L27.9292 22.8138L27.9357 22.811L27.9373 22.8103L27.9376 22.8101L27.9377 22.8101L27.8366 22.4776L27.8672 22.6499L27.8366 22.4776L27.8365 22.4776L27.8362 22.4776L27.835 22.4779L27.8303 22.4787L27.8113 22.482L27.7368 22.495C27.6714 22.5062 27.5754 22.5225 27.4531 22.5428C27.2086 22.5832 26.8591 22.6393 26.4396 22.7016C25.6008 22.8262 24.4838 22.9756 23.3681 23.0755C20.6289 23.275 17.7065 23.3241 16.2316 23.1262L16.2307 23.126C15.799 23.0703 15.5217 23.0031 15.359 22.934C15.2774 22.8993 15.2376 22.8695 15.2206 22.8513C15.2194 22.85 15.2183 22.8488 15.2174 22.8477C15.2208 22.8407 15.2283 22.8281 15.2447 22.8097C15.2737 22.7769 15.3204 22.7375 15.3875 22.6929C15.5215 22.6038 15.7126 22.5098 15.9392 22.4159C16.3905 22.2288 16.9525 22.0541 17.4053 21.9254C17.6309 21.8612 17.828 21.809 17.9686 21.7727C18.0389 21.7546 18.095 21.7405 18.1335 21.731L18.1607 21.7243L18.4453 21.7443L18.3091 21.4703L18.3082 21.4685ZM28.4146 21.8473L28.2579 21.7694L28.0248 22.2381L28.4923 22.0042L28.4924 22.0041L28.4926 22.004L28.4927 22.0039L28.4928 22.0039L28.4929 22.0038L28.4975 22.0017C28.5022 21.9995 28.5102 21.9959 28.5214 21.9911C28.5439 21.9816 28.5796 21.9672 28.6293 21.9496C28.7282 21.9145 28.8826 21.8665 29.0984 21.818C29.9115 21.661 30.902 22.2249 31.0575 23.1351C31.2101 24.0285 30.5713 25.3914 27.8243 26.8317H27.7574L27.709 26.9282C27.6889 26.9682 27.6696 26.997 27.6564 27.0146C27.6498 27.0234 27.6448 27.0293 27.6421 27.0325L27.6401 27.0347L27.6401 27.0347L27.6398 27.035L27.1891 27.4882L27.8098 27.326C29.6962 26.8332 30.955 26.1426 31.7184 25.3891C32.4843 24.6332 32.7543 23.8094 32.6415 23.0733C32.4158 21.6009 30.7038 20.6298 28.8589 21.2803C28.6483 21.3422 28.4994 21.463 28.4042 21.566C28.3561 21.6181 28.3207 21.6667 28.2969 21.7031C28.285 21.7213 28.2758 21.7366 28.2694 21.748L28.2617 21.762L28.2593 21.7666L28.2585 21.7682L28.2581 21.7689L28.258 21.7692L28.2579 21.7693C28.2579 21.7694 28.2579 21.7694 28.4146 21.8473ZM30.5044 30.7972C30.5043 30.7971 30.5043 30.7971 30.5046 30.7973L30.5044 30.7972ZM28.5707 21.9264C28.5707 21.9264 28.5707 21.9264 28.5707 21.9263L28.5707 21.9264Z" fill="#4E7896" stroke="#4E7896" stroke-width="0.350018"/>
<path d="M24.488 5.01544L24.6131 4.89302L24.1611 4.4313L24.3182 5.05801C24.6208 6.26451 24.5045 7.24981 24.136 8.09995C23.7655 8.95471 23.135 9.68463 22.3895 10.3687C21.8909 10.8262 21.3508 11.2549 20.8079 11.6858C20.5348 11.9025 20.261 12.1199 19.9913 12.3417C19.1935 12.9982 18.4415 13.6879 17.9157 14.4877C17.5466 15.0443 17.4017 15.6177 17.4442 16.2048C17.4865 16.7882 17.713 17.3738 18.0674 17.9614C18.7737 19.1324 20.0131 20.3505 21.432 21.6269L21.7094 21.4266C21.4536 20.8418 21.0591 20.2746 20.6716 19.7176C20.6313 19.6597 20.5911 19.6019 20.5511 19.5441C20.1212 18.9235 19.7159 18.3107 19.4912 17.6631C19.2691 17.0228 19.2246 16.3512 19.5189 15.6082C19.8155 14.859 20.4628 14.0212 21.6578 13.0674C24.6967 10.6682 25.4738 8.64309 25.454 7.18586C25.4442 6.46105 25.2369 5.89081 25.0313 5.5012C24.9285 5.30647 24.8259 5.15654 24.7483 5.0544C24.7094 5.0033 24.6767 4.96407 24.6532 4.93707C24.6414 4.92357 24.6319 4.91312 24.6251 4.90576L24.617 4.89706L24.6145 4.89445L24.6136 4.89359L24.6133 4.89327C24.6132 4.89314 24.6131 4.89302 24.488 5.01544ZM22.7704 19.5072L22.7711 19.5081C23.1104 19.896 23.2489 20.2653 23.276 20.5975C23.3032 20.932 23.2186 21.2435 23.0881 21.5147C22.9574 21.7864 22.7833 22.0121 22.6402 22.1709C22.569 22.2499 22.5063 22.3115 22.4618 22.3528C22.4397 22.3735 22.4221 22.3891 22.4104 22.3992L22.3974 22.4104L22.3945 22.4128L22.3942 22.4131L22.3941 22.4131C22.3941 22.4131 22.3941 22.4131 22.3947 22.4138L22.585 22.7042L22.5047 22.5487C22.585 22.7042 22.5851 22.7042 22.5852 22.7041L22.5854 22.704L22.5861 22.7036L22.5885 22.7024L22.5973 22.6978L22.6296 22.6804C22.6574 22.6652 22.6976 22.6428 22.7478 22.6136C22.8481 22.5554 22.9889 22.4697 23.1522 22.3596C23.4779 22.14 23.8977 21.8199 24.265 21.4213C24.6313 21.0239 24.9556 20.5377 25.072 19.9853C25.1899 19.4257 25.0904 18.8159 24.6406 18.1898C24.569 18.0853 24.4988 17.9841 24.4304 17.8856C24.1245 17.4448 23.8568 17.059 23.6768 16.681C23.4608 16.2275 23.3828 15.8075 23.5245 15.3489C23.6691 14.8813 24.0499 14.3471 24.8141 13.6891C25.5766 13.0325 26.7056 12.2655 28.3213 11.3285L28.191 11.0073L28.2335 11.1771C28.191 11.0073 28.191 11.0073 28.1908 11.0073L28.1904 11.0075L28.1888 11.0079L28.1828 11.0094L28.1602 11.0152C28.1404 11.0204 28.1114 11.0281 28.0739 11.0383C27.999 11.0588 27.8903 11.0894 27.7539 11.1303C27.4813 11.2121 27.0977 11.3352 26.653 11.5007C25.7652 11.8311 24.6261 12.3334 23.6377 13.0183C22.6528 13.7007 21.7933 14.5814 21.5068 15.6766C21.217 16.7846 21.5251 18.0633 22.7704 19.5072Z" fill="#F58219" stroke="#F58219" stroke-width="0.350018"/>
</g>
<g filter="url(#filter1_d_40_404)">
<path d="M43.3603 26.516V14.1524H47.888C48.7653 14.1524 49.4918 14.2973 50.0673 14.5871C50.6428 14.8728 51.0734 15.2612 51.3592 15.7522C51.6449 16.2392 51.7878 16.7885 51.7878 17.4003C51.7878 17.9154 51.6932 18.3501 51.5041 18.7043C51.3149 19.0544 51.0614 19.3361 50.7434 19.5494C50.4295 19.7587 50.0834 19.9116 49.7051 20.0082V20.129C50.1156 20.1491 50.516 20.2819 50.9064 20.5274C51.3008 20.7689 51.6268 21.113 51.8844 21.5597C52.142 22.0065 52.2708 22.5498 52.2708 23.1897C52.2708 23.8216 52.1219 24.389 51.824 24.8921C51.5302 25.3912 51.0755 25.7876 50.4597 26.0814C49.8439 26.3712 49.0571 26.516 48.0993 26.516H43.3603ZM45.2257 24.9163H47.9181C48.8116 24.9163 49.4515 24.7432 49.8379 24.3971C50.2243 24.051 50.4174 23.6183 50.4174 23.0991C50.4174 22.7088 50.3188 22.3506 50.1216 22.0246C49.9244 21.6986 49.6427 21.439 49.2765 21.2458C48.9142 21.0526 48.4836 20.956 47.9846 20.956H45.2257V24.9163ZM45.2257 19.5011H47.725C48.1435 19.5011 48.5198 19.4206 48.8539 19.2597C49.1919 19.0987 49.4596 18.8733 49.6568 18.5835C49.858 18.2897 49.9586 17.9436 49.9586 17.5452C49.9586 17.034 49.7795 16.6054 49.4213 16.2593C49.0631 15.9132 48.5138 15.7401 47.7733 15.7401H45.2257V19.5011ZM60.2124 22.6705V17.2433H62.0234V26.516H60.2486V24.9102H60.152C59.9387 25.4053 59.5966 25.8178 59.1257 26.1478C58.6588 26.4738 58.0773 26.6368 57.381 26.6368C56.7854 26.6368 56.2582 26.506 55.7994 26.2444C55.3446 25.9788 54.9864 25.5864 54.7248 25.0672C54.4672 24.548 54.3384 23.9061 54.3384 23.1414V17.2433H56.1435V22.9241C56.1435 23.5559 56.3185 24.059 56.6687 24.4333C57.0188 24.8076 57.4736 24.9947 58.033 24.9947C58.3711 24.9947 58.7071 24.9102 59.0412 24.7412C59.3793 24.5722 59.659 24.3166 59.8803 23.9745C60.1057 23.6324 60.2164 23.1977 60.2124 22.6705ZM64.4488 26.516V17.2433H66.2538V26.516H64.4488ZM65.3603 15.8126C65.0464 15.8126 64.7768 15.7079 64.5514 15.4986C64.33 15.2853 64.2194 15.0318 64.2194 14.738C64.2194 14.4402 64.33 14.1866 64.5514 13.9773C64.7768 13.764 65.0464 13.6574 65.3603 13.6574C65.6743 13.6574 65.9419 13.764 66.1633 13.9773C66.3886 14.1866 66.5013 14.4402 66.5013 14.738C66.5013 15.0318 66.3886 15.2853 66.1633 15.4986C65.9419 15.7079 65.6743 15.8126 65.3603 15.8126ZM70.4872 14.1524V26.516H68.6822V14.1524H70.4872ZM77.244 17.2433V18.6922H72.1791V17.2433H77.244ZM73.5374 15.0217H75.3424V23.7934C75.3424 24.1435 75.3947 24.4071 75.4994 24.5842C75.604 24.7573 75.7388 24.876 75.9038 24.9404C76.0729 25.0008 76.256 25.031 76.4532 25.031C76.5981 25.031 76.7249 25.0209 76.8335 25.0008C76.9422 24.9807 77.0267 24.9646 77.0871 24.9525L77.4131 26.4436C77.3084 26.4839 77.1595 26.5241 76.9663 26.5643C76.7732 26.6086 76.5317 26.6328 76.2419 26.6368C75.767 26.6448 75.3243 26.5603 74.9138 26.3832C74.5033 26.2062 74.1712 25.9325 73.9177 25.5622C73.6641 25.1919 73.5374 24.7271 73.5374 24.1677V15.0217ZM85.7501 26.516L83.0214 17.2433H84.8868L86.7039 24.053H86.7945L88.6176 17.2433H90.483L92.2941 24.0228H92.3847L94.1897 17.2433H96.0551L93.3325 26.516H91.4912L89.6077 19.8211H89.4688L87.5853 26.516H85.7501ZM97.7681 26.516V17.2433H99.5731V26.516H97.7681ZM98.6797 15.8126C98.3658 15.8126 98.0961 15.7079 97.8707 15.4986C97.6494 15.2853 97.5387 15.0318 97.5387 14.738C97.5387 14.4402 97.6494 14.1866 97.8707 13.9773C98.0961 13.764 98.3658 13.6574 98.6797 13.6574C98.9936 13.6574 99.2612 13.764 99.4826 13.9773C99.708 14.1866 99.8207 14.4402 99.8207 14.738C99.8207 15.0318 99.708 15.2853 99.4826 15.4986C99.2612 15.7079 98.9936 15.8126 98.6797 15.8126ZM106.33 17.2433V18.6922H101.265V17.2433H106.33ZM102.623 15.0217H104.428V23.7934C104.428 24.1435 104.481 24.4071 104.585 24.5842C104.69 24.7573 104.825 24.876 104.99 24.9404C105.159 25.0008 105.342 25.031 105.539 25.031C105.684 25.031 105.811 25.0209 105.919 25.0008C106.028 24.9807 106.113 24.9646 106.173 24.9525L106.499 26.4436C106.394 26.4839 106.245 26.5241 106.052 26.5643C105.859 26.6086 105.618 26.6328 105.328 26.6368C104.853 26.6448 104.41 26.5603 104 26.3832C103.589 26.2062 103.257 25.9325 103.004 25.5622C102.75 25.1919 102.623 24.7271 102.623 24.1677V15.0217ZM110.331 21.0104V26.516H108.526V14.1524H110.307V18.7526H110.421C110.639 18.2535 110.971 17.8571 111.418 17.5633C111.864 17.2695 112.448 17.1226 113.168 17.1226C113.804 17.1226 114.36 17.2534 114.834 17.515C115.313 17.7766 115.684 18.167 115.945 18.6861C116.211 19.2013 116.344 19.8452 116.344 20.618V26.516H114.539V20.8353C114.539 20.1551 114.364 19.6279 114.013 19.2536C113.663 18.8753 113.176 18.6861 112.553 18.6861C112.126 18.6861 111.744 18.7767 111.406 18.9578C111.071 19.1389 110.808 19.4045 110.615 19.7547C110.426 20.1008 110.331 20.5194 110.331 21.0104Z" fill="#E8E8E8"/>
<path d="M127.96 14.1524H130.906V22.7007C130.902 23.5016 130.711 24.2019 130.333 24.8016C129.955 25.3972 129.431 25.86 128.763 26.1901C128.099 26.5201 127.331 26.6851 126.457 26.6851C125.684 26.6851 124.982 26.5503 124.35 26.2806C123.722 26.011 123.221 25.5924 122.847 25.0249C122.477 24.4575 122.294 23.731 122.298 22.8456H125.274C125.286 23.1635 125.346 23.4352 125.455 23.6606C125.568 23.8819 125.723 24.049 125.92 24.1616C126.117 24.2743 126.353 24.3307 126.626 24.3307C126.912 24.3307 127.153 24.2703 127.351 24.1496C127.548 24.0248 127.697 23.8417 127.797 23.6002C127.902 23.3587 127.956 23.0589 127.96 22.7007V14.1524ZM135.396 26.673C134.805 26.673 134.28 26.5744 133.821 26.3772C133.366 26.176 133.006 25.8741 132.74 25.4717C132.479 25.0652 132.348 24.5561 132.348 23.9443C132.348 23.4292 132.438 22.9945 132.619 22.6403C132.801 22.2862 133.05 21.9984 133.368 21.7771C133.686 21.5557 134.052 21.3887 134.467 21.276C134.881 21.1593 135.324 21.0808 135.795 21.0406C136.322 20.9923 136.747 20.9419 137.069 20.8896C137.391 20.8333 137.624 20.7548 137.769 20.6542C137.918 20.5495 137.992 20.4026 137.992 20.2135V20.1833C137.992 19.8734 137.886 19.6339 137.672 19.4649C137.459 19.2959 137.171 19.2114 136.809 19.2114C136.419 19.2114 136.105 19.2959 135.867 19.4649C135.63 19.6339 135.479 19.8674 135.415 20.1652L132.692 20.0686C132.772 19.5052 132.98 19.0021 133.314 18.5594C133.652 18.1126 134.115 17.7625 134.702 17.5089C135.294 17.2514 136.004 17.1226 136.833 17.1226C137.425 17.1226 137.97 17.193 138.469 17.3339C138.968 17.4707 139.403 17.6719 139.773 17.9376C140.143 18.1992 140.429 18.5211 140.63 18.9035C140.836 19.2858 140.938 19.7225 140.938 20.2135V26.516H138.161V25.2241H138.089C137.924 25.5381 137.713 25.8037 137.455 26.021C137.201 26.2383 136.902 26.4013 136.555 26.51C136.213 26.6187 135.827 26.673 135.396 26.673ZM136.308 24.7412C136.626 24.7412 136.912 24.6768 137.165 24.548C137.423 24.4192 137.628 24.2421 137.781 24.0168C137.934 23.7874 138.01 23.5217 138.01 23.2199V22.3385C137.926 22.3828 137.823 22.423 137.702 22.4592C137.586 22.4955 137.457 22.5297 137.316 22.5619C137.175 22.5941 137.03 22.6222 136.881 22.6464C136.733 22.6705 136.59 22.6927 136.453 22.7128C136.175 22.7571 135.938 22.8255 135.74 22.918C135.547 23.0106 135.398 23.1313 135.294 23.2803C135.193 23.4251 135.143 23.5982 135.143 23.7994C135.143 24.1053 135.252 24.3387 135.469 24.4997C135.69 24.6607 135.97 24.7412 136.308 24.7412ZM151.406 17.2433L148.225 26.516H144.844L141.669 17.2433H144.778L146.486 23.6304H146.583L148.297 17.2433H151.406ZM154.903 26.673C154.312 26.673 153.786 26.5744 153.328 26.3772C152.873 26.176 152.513 25.8741 152.247 25.4717C151.985 25.0652 151.855 24.5561 151.855 23.9443C151.855 23.4292 151.945 22.9945 152.126 22.6403C152.307 22.2862 152.557 21.9984 152.875 21.7771C153.193 21.5557 153.559 21.3887 153.974 21.276C154.388 21.1593 154.831 21.0808 155.302 21.0406C155.829 20.9923 156.253 20.9419 156.575 20.8896C156.897 20.8333 157.131 20.7548 157.276 20.6542C157.425 20.5495 157.499 20.4026 157.499 20.2135V20.1833C157.499 19.8734 157.392 19.6339 157.179 19.4649C156.966 19.2959 156.678 19.2114 156.316 19.2114C155.925 19.2114 155.612 19.2959 155.374 19.4649C155.137 19.6339 154.986 19.8674 154.921 20.1652L152.199 20.0686C152.279 19.5052 152.486 19.0021 152.82 18.5594C153.159 18.1126 153.621 17.7625 154.209 17.5089C154.801 17.2514 155.511 17.1226 156.34 17.1226C156.932 17.1226 157.477 17.193 157.976 17.3339C158.475 17.4707 158.91 17.6719 159.28 17.9376C159.65 18.1992 159.936 18.5211 160.137 18.9035C160.342 19.2858 160.445 19.7225 160.445 20.2135V26.516H157.668V25.2241H157.596C157.431 25.5381 157.219 25.8037 156.962 26.021C156.708 26.2383 156.408 26.4013 156.062 26.51C155.72 26.6187 155.334 26.673 154.903 26.673ZM155.815 24.7412C156.133 24.7412 156.418 24.6768 156.672 24.548C156.93 24.4192 157.135 24.2421 157.288 24.0168C157.441 23.7874 157.517 23.5217 157.517 23.2199V22.3385C157.433 22.3828 157.33 22.423 157.209 22.4592C157.093 22.4955 156.964 22.5297 156.823 22.5619C156.682 22.5941 156.537 22.6222 156.388 22.6464C156.239 22.6705 156.097 22.6927 155.96 22.7128C155.682 22.7571 155.445 22.8255 155.247 22.918C155.054 23.0106 154.905 23.1313 154.801 23.2803C154.7 23.4251 154.65 23.5982 154.65 23.7994C154.65 24.1053 154.758 24.3387 154.976 24.4997C155.197 24.6607 155.477 24.7412 155.815 24.7412ZM171.595 14.1524V26.516H168.613V16.9415H168.541L165.776 18.6318V16.048L168.824 14.1524H171.595ZM174.854 26.516L179.84 16.6396V16.5611H174.009V14.1524H182.931V16.5793L177.927 26.516H174.854Z" fill="#F58219"/>
</g>
</g>
<rect x="1.07192" y="1.08681" width="189.858" height="37.8585" rx="6.92857" stroke="white" stroke-opacity="0.15" stroke-width="2.14286"/>
<defs>
<filter id="filter0_d_40_404" x="2.40021" y="-1.75311" width="39.202" height="42.7203" filterUnits="userSpaceOnUse" color-interpolation-filters="sRGB">
<feFlood flood-opacity="0" result="BackgroundImageFix"/>
<feColorMatrix in="SourceAlpha" type="matrix" values="0 0 0 0 0 0 0 0 0 0 0 0 0 0 0 0 0 0 127 0" result="hardAlpha"/>
<feOffset/>
<feGaussianBlur stdDeviation="2.80014"/>
<feComposite in2="hardAlpha" operator="out"/>
<feColorMatrix type="matrix" values="0 0 0 0 0 0 0 0 0 0 0 0 0 0 0 0 0 0 0.25 0"/>
<feBlend mode="normal" in2="BackgroundImageFix" result="effect1_dropShadow_40_404"/>
<feBlend mode="normal" in="SourceGraphic" in2="effect1_dropShadow_40_404" result="shape"/>
</filter>
<filter id="filter1_d_40_404" x="36.2877" y="3.80177" width="153.429" height="32.4286" filterUnits="userSpaceOnUse" color-interpolation-filters="sRGB">
<feFlood flood-opacity="0" result="BackgroundImageFix"/>
<feColorMatrix in="SourceAlpha" type="matrix" values="0 0 0 0 0 0 0 0 0 0 0 0 0 0 0 0 0 0 127 0" result="hardAlpha"/>
<feOffset/>
<feGaussianBlur stdDeviation="2.85714"/>
<feComposite in2="hardAlpha" operator="out"/>
<feColorMatrix type="matrix" values="0 0 0 0 0 0 0 0 0 0 0 0 0 0 0 0 0 0 0.25 0"/>
<feBlend mode="normal" in2="BackgroundImageFix" result="effect1_dropShadow_40_404"/>
<feBlend mode="normal" in="SourceGraphic" in2="effect1_dropShadow_40_404" result="shape"/>
</filter>
<linearGradient id="paint0_linear_40_404" x1="96.0012" y1="0.0153809" x2="96.0012" y2="40.0168" gradientUnits="userSpaceOnUse">
<stop stop-color="#2F1A07"/>
<stop offset="1" stop-color="#111A21"/>
</linearGradient>
<clipPath id="clip0_40_404">
<rect x="0.000488281" y="0.0153809" width="192.001" height="40.0014" rx="8" fill="white"/>
</clipPath>
</defs>
</svg>
