<svg width="171" height="41" viewBox="0 0 171 41" fill="none" xmlns="http://www.w3.org/2000/svg">
<g clip-path="url(#clip0_40_380)">
<rect x="0.000488281" y="0.0111694" width="170.001" height="40.0014" rx="8" fill="url(#paint0_linear_40_380)"/>
<g filter="url(#filter0_d_40_380)">
<path d="M32.3405 32.0919C32.3393 32.0943 32.3359 32.1005 32.3296 32.1102C32.317 32.1296 32.2924 32.1634 32.2491 32.209C32.1626 32.3002 32.001 32.4389 31.7111 32.6043C31.1302 32.9357 30.0425 33.3692 28.0358 33.7421C23.4731 34.5895 17.8142 34.4885 14.495 33.9422L13.8798 33.8409L14.3524 34.2475L14.4665 34.1148C14.3524 34.2475 14.3526 34.2476 14.3527 34.2478L14.353 34.248L14.3537 34.2486L14.3553 34.25L14.3594 34.2533L14.3708 34.262C14.3799 34.2688 14.3923 34.2776 14.4084 34.288C14.4405 34.3088 14.4876 34.3363 14.5535 34.3688C14.6852 34.4336 14.8931 34.5184 15.2096 34.6084C15.8224 34.7825 16.8477 34.9773 18.5266 35.0814L18.6902 35.092C21.3891 35.2679 24.8024 35.2179 27.5705 34.8022C28.9531 34.5945 30.1863 34.2939 31.091 33.8782C31.9845 33.4676 32.6183 32.9153 32.6758 32.1745L32.341 32.0969C32.3388 32.096 32.3389 32.096 32.3389 32.0959L32.3391 32.0954L32.3394 32.0946L32.3401 32.0931L32.3405 32.0919ZM32.3405 32.0919L32.3409 32.0912L32.3411 32.0908C32.3411 32.0908 32.3409 32.0911 32.3405 32.0919ZM17.7038 28.3547L17.7039 28.3547L17.704 28.3546L17.704 28.3546L17.7041 28.3545L18.2342 28.0304H17.6125H17.6116H17.5872L17.5637 28.0371C16.9823 28.2024 16.5675 28.3949 16.3133 28.6116C16.1848 28.7212 16.0901 28.8432 16.041 28.9784C15.9908 29.1168 15.9926 29.2577 16.0399 29.3925C16.1305 29.6507 16.3807 29.8699 16.7019 30.0509C17.0302 30.236 17.4643 30.3989 17.9734 30.5297C20.0054 31.0516 23.3463 31.0891 26.3 29.8194L26.7017 29.6467L26.2917 29.4946C25.7298 29.286 25.1896 29.0225 24.6788 28.708L24.6207 28.6723L24.5538 28.6852C21.9797 29.1827 20.7519 29.2312 18.432 28.9338L18.432 28.9337L18.4277 28.9333C17.9476 28.8837 17.6846 28.805 17.5513 28.7295C17.4866 28.6929 17.4641 28.6635 17.4568 28.6501C17.4514 28.6401 17.4501 28.6321 17.4531 28.6184C17.4623 28.5759 17.5074 28.5137 17.5803 28.4487C17.6128 28.4196 17.6446 28.3955 17.6683 28.3786C17.6801 28.3703 17.6896 28.3639 17.6959 28.3598L17.7027 28.3554L17.7038 28.3547ZM17.0416 24.9493V24.5954L16.7809 24.7945C16.1607 25.0067 15.7187 25.2277 15.4456 25.4559C15.1675 25.6882 15.0263 25.9661 15.1331 26.2594C15.2285 26.5217 15.5042 26.7265 15.8508 26.8878C16.2076 27.0538 16.683 27.1934 17.245 27.3013C19.4908 27.7326 23.2434 27.6805 26.7818 26.6208L27.3077 26.4633L26.7876 26.2873C26.3623 26.1435 25.9764 25.9011 25.6612 25.5796L25.5945 25.5117L25.5013 25.5307C22.0834 26.2268 20.1088 26.1773 17.5816 25.9284C17.1045 25.8788 16.8577 25.7854 16.7404 25.6973C16.6854 25.656 16.6642 25.6198 16.6554 25.5936C16.6465 25.5668 16.6454 25.5349 16.656 25.4944C16.679 25.4062 16.7492 25.3072 16.8301 25.2207C16.8684 25.1798 16.905 25.1459 16.9319 25.1224C16.9388 25.1164 16.945 25.1111 16.9504 25.1066L17.0416 25.0757V24.9502V24.9493ZM30.7206 30.5176L30.68 30.484H30.6169H30.6095L30.5556 30.733C30.5053 30.7937 30.5052 30.7937 30.5051 30.7936L30.5079 30.7962C30.5114 30.7993 30.517 30.8047 30.5242 30.8121C30.5387 30.827 30.5582 30.8491 30.5772 30.8766C30.6167 30.9338 30.6449 31.0006 30.6413 31.0696C30.6381 31.1322 30.6073 31.229 30.4631 31.3486C30.3153 31.4711 30.0566 31.6097 29.6195 31.7442C27.9758 32.238 24.4979 32.564 21.0435 32.6015C19.3197 32.6202 17.6089 32.5669 16.1446 32.4282C14.6745 32.2889 13.4718 32.065 12.7518 31.7512L12.751 31.7508C12.6318 31.6995 12.5823 31.6557 12.565 31.632C12.5574 31.6215 12.5577 31.6207 12.5603 31.6146C12.5605 31.6139 12.5609 31.6131 12.5612 31.6122C12.5697 31.5906 12.5977 31.5505 12.665 31.4963C12.7296 31.4443 12.8172 31.3897 12.9231 31.3349C13.3514 31.113 13.9908 30.9302 14.2942 30.8825L14.2942 30.883L14.3065 30.8801C14.6237 30.8067 14.8664 30.7703 15.0282 30.7523C15.1091 30.7433 15.1698 30.7389 15.2095 30.7367C15.2293 30.7356 15.2439 30.7351 15.2531 30.7349L15.263 30.7347L15.2647 30.7346H15.2648H15.2648L15.2648 30.7346L15.2649 30.7346H15.265H15.8206L15.3649 30.4162C15.1788 30.286 14.9096 30.2355 14.6215 30.2269C14.3269 30.2182 13.9839 30.253 13.626 30.3185C12.9106 30.4495 12.1135 30.7079 11.4879 31.016C11.1755 31.1698 10.8986 31.3396 10.6949 31.5173C10.4979 31.6891 10.3372 31.8963 10.3259 32.1285C10.3135 32.3818 10.4783 32.5826 10.7408 32.7303C11.0031 32.8779 11.3999 32.9969 11.949 33.0856C17.9212 34.0656 23.3715 33.8529 26.9474 33.2169C28.7291 32.9001 30.0675 32.4745 30.7701 32.0251C30.9473 31.9117 31.0923 31.7918 31.1941 31.6646C31.2962 31.537 31.3622 31.3922 31.3591 31.2353C31.3531 30.9268 31.0924 30.6937 30.7206 30.5176ZM18.3082 21.4643L18.2461 21.3395L18.1292 21.3676C18.1121 21.3668 18.0889 21.3659 18.0599 21.3651C17.9935 21.3633 17.8969 21.3623 17.7732 21.3651C17.5259 21.3707 17.1704 21.3914 16.7333 21.4518C15.8593 21.5727 14.6578 21.8525 13.3432 22.4882L13.3432 22.4881L13.3419 22.4888C13.1442 22.5866 12.9887 22.687 12.8818 22.7928C12.7753 22.8982 12.6987 23.028 12.7083 23.178C12.7177 23.3268 12.8087 23.4431 12.9165 23.5296C13.0255 23.6169 13.1728 23.6917 13.3443 23.7572C14.0259 24.0175 15.2644 24.195 16.7473 24.2796C19.7221 24.4493 23.7775 24.2492 26.5662 23.5163L26.5929 23.5093L26.6161 23.4944C26.8819 23.3244 27.2113 23.1525 27.4772 23.022C27.6096 22.957 27.725 22.9028 27.8073 22.8649C27.8484 22.846 27.8812 22.8312 27.9036 22.8211L27.9292 22.8097L27.9357 22.8068L27.9373 22.8061L27.9376 22.8059L27.9377 22.8059L27.8366 22.4734L27.8672 22.6457L27.8366 22.4734L27.8365 22.4734L27.8362 22.4735L27.835 22.4737L27.8303 22.4745L27.8113 22.4779L27.7368 22.4908C27.6714 22.502 27.5754 22.5184 27.4531 22.5386C27.2086 22.579 26.8591 22.6351 26.4396 22.6974C25.6008 22.822 24.4838 22.9714 23.3681 23.0713C20.6289 23.2709 17.7065 23.32 16.2316 23.122L16.2307 23.1219C15.799 23.0662 15.5217 22.9989 15.359 22.9298C15.2774 22.8951 15.2376 22.8653 15.2206 22.8471C15.2194 22.8458 15.2183 22.8446 15.2174 22.8435C15.2208 22.8366 15.2283 22.8239 15.2447 22.8055C15.2737 22.7727 15.3204 22.7333 15.3875 22.6887C15.5215 22.5996 15.7126 22.5056 15.9392 22.4117C16.3905 22.2246 16.9525 22.0499 17.4053 21.9212C17.6309 21.8571 17.828 21.8048 17.9686 21.7685C18.0389 21.7504 18.095 21.7363 18.1335 21.7268L18.1607 21.7201L18.4453 21.7402L18.3091 21.4662L18.3082 21.4643ZM28.4146 21.8432L28.2579 21.7652L28.0248 22.2339L28.4923 22L28.4924 21.9999L28.4926 21.9998L28.4927 21.9997L28.4928 21.9997L28.4929 21.9997L28.4975 21.9975C28.5022 21.9953 28.5102 21.9917 28.5214 21.987C28.5439 21.9774 28.5796 21.963 28.6293 21.9454C28.7282 21.9103 28.8826 21.8623 29.0984 21.8138C29.9115 21.6568 30.902 22.2208 31.0575 23.131C31.2101 24.0243 30.5713 25.3872 27.8243 26.8275H27.7574L27.709 26.924C27.6889 26.964 27.6696 26.9928 27.6564 27.0104C27.6498 27.0192 27.6448 27.0252 27.6421 27.0283L27.6401 27.0305L27.6401 27.0306L27.6398 27.0309L27.1891 27.4841L27.8098 27.3219C29.6962 26.829 30.955 26.1384 31.7184 25.3849C32.4843 24.6291 32.7543 23.8052 32.6415 23.0691C32.4158 21.5967 30.7038 20.6256 28.8589 21.2762C28.6483 21.338 28.4994 21.4589 28.4042 21.5618C28.3561 21.6139 28.3207 21.6625 28.2969 21.6989C28.285 21.7171 28.2758 21.7324 28.2694 21.7438L28.2617 21.7578L28.2593 21.7624L28.2585 21.764L28.2581 21.7647L28.258 21.765L28.2579 21.7651C28.2579 21.7652 28.2579 21.7652 28.4146 21.8432ZM30.5044 30.793C30.5043 30.7929 30.5043 30.793 30.5046 30.7932L30.5044 30.793ZM28.5707 21.9222C28.5707 21.9223 28.5707 21.9222 28.5707 21.9222L28.5707 21.9222Z" fill="#4E7896" stroke="#4E7896" stroke-width="0.350018"/>
<path d="M24.488 5.01117L24.6131 4.88875L24.1611 4.42703L24.3182 5.05373C24.6208 6.26024 24.5045 7.24554 24.136 8.09567C23.7655 8.95043 23.135 9.68035 22.3895 10.3645C21.8909 10.822 21.3508 11.2506 20.8079 11.6815C20.5348 11.8982 20.261 12.1156 19.9913 12.3375C19.1935 12.994 18.4415 13.6836 17.9157 14.4834C17.5466 15.0401 17.4017 15.6134 17.4442 16.2005C17.4865 16.7839 17.713 17.3695 18.0674 17.9571C18.7737 19.1281 20.0131 20.3462 21.432 21.6226L21.7094 21.4224C21.4536 20.8375 21.0591 20.2704 20.6716 19.7133C20.6313 19.6554 20.5911 19.5976 20.5511 19.5399C20.1212 18.9192 19.7159 18.3065 19.4912 17.6589C19.2691 17.0185 19.2246 16.3469 19.5189 15.6039C19.8155 14.8548 20.4628 14.0169 21.6578 13.0631C24.6967 10.6639 25.4738 8.63881 25.454 7.18158C25.4442 6.45678 25.2369 5.88654 25.0313 5.49693C24.9285 5.3022 24.8259 5.15227 24.7483 5.05013C24.7094 4.99903 24.6767 4.95979 24.6532 4.9328C24.6414 4.9193 24.6319 4.90885 24.6251 4.90149L24.617 4.89278L24.6145 4.89018L24.6136 4.88932L24.6133 4.889C24.6132 4.88887 24.6131 4.88875 24.488 5.01117ZM22.7704 19.5029L22.7711 19.5038C23.1104 19.8918 23.2489 20.261 23.276 20.5932C23.3032 20.9278 23.2186 21.2393 23.0881 21.5105C22.9574 21.7821 22.7833 22.0078 22.6402 22.1666C22.569 22.2456 22.5063 22.3072 22.4618 22.3486C22.4397 22.3692 22.4221 22.3848 22.4104 22.395L22.3974 22.4061L22.3945 22.4085L22.3942 22.4088L22.3941 22.4089C22.3941 22.4089 22.3941 22.4088 22.3947 22.4096L22.585 22.6999L22.5047 22.5444C22.585 22.6999 22.5851 22.6999 22.5852 22.6999L22.5854 22.6997L22.5861 22.6994L22.5885 22.6981L22.5973 22.6935L22.6296 22.6761C22.6574 22.6609 22.6976 22.6385 22.7478 22.6094C22.8481 22.5511 22.9889 22.4655 23.1522 22.3553C23.4779 22.1357 23.8977 21.8156 24.265 21.417C24.6313 21.0197 24.9556 20.5334 25.072 19.9811C25.1899 19.4214 25.0904 18.8116 24.6406 18.1855C24.569 18.081 24.4988 17.9798 24.4304 17.8813C24.1245 17.4405 23.8568 17.0548 23.6768 16.6768C23.4608 16.2232 23.3828 15.8033 23.5245 15.3447C23.6691 14.877 24.0499 14.3428 24.8141 13.6848C25.5766 13.0283 26.7056 12.2612 28.3213 11.3242L28.191 11.003L28.2335 11.1728C28.191 11.003 28.191 11.003 28.1908 11.0031L28.1904 11.0032L28.1888 11.0036L28.1828 11.0051L28.1602 11.011C28.1404 11.0161 28.1114 11.0238 28.0739 11.034C27.999 11.0545 27.8903 11.0851 27.7539 11.126C27.4813 11.2078 27.0977 11.3309 26.653 11.4964C25.7652 11.8269 24.6261 12.3291 23.6377 13.014C22.6528 13.6965 21.7933 14.5771 21.5068 15.6724C21.217 16.7804 21.5251 18.059 22.7704 19.5029Z" fill="#F58219" stroke="#F58219" stroke-width="0.350018"/>
</g>
<g filter="url(#filter1_d_40_380)">
<path d="M43.3603 26.5119V14.1482H47.888C48.7653 14.1482 49.4918 14.2931 50.0673 14.5829C50.6428 14.8686 51.0734 15.257 51.3592 15.748C51.6449 16.235 51.7878 16.7844 51.7878 17.3961C51.7878 17.9113 51.6932 18.3459 51.5041 18.7001C51.3149 19.0502 51.0614 19.3319 50.7434 19.5452C50.4295 19.7545 50.0834 19.9075 49.7051 20.0041V20.1248C50.1156 20.1449 50.516 20.2777 50.9064 20.5232C51.3008 20.7647 51.6268 21.1088 51.8844 21.5555C52.142 22.0023 52.2708 22.5456 52.2708 23.1855C52.2708 23.8174 52.1219 24.3849 51.824 24.8879C51.5302 25.387 51.0755 25.7834 50.4597 26.0772C49.8439 26.367 49.0571 26.5119 48.0993 26.5119H43.3603ZM45.2257 24.9121H47.9181C48.8116 24.9121 49.4515 24.739 49.8379 24.3929C50.2243 24.0468 50.4174 23.6141 50.4174 23.095C50.4174 22.7046 50.3188 22.3464 50.1216 22.0204C49.9244 21.6944 49.6427 21.4348 49.2765 21.2416C48.9142 21.0484 48.4836 20.9519 47.9846 20.9519H45.2257V24.9121ZM45.2257 19.497H47.725C48.1435 19.497 48.5198 19.4165 48.8539 19.2555C49.1919 19.0945 49.4596 18.8691 49.6568 18.5793C49.858 18.2855 49.9586 17.9394 49.9586 17.541C49.9586 17.0299 49.7795 16.6012 49.4213 16.2551C49.0631 15.909 48.5138 15.7359 47.7733 15.7359H45.2257V19.497ZM60.2124 22.6663V17.2391H62.0234V26.5119H60.2486V24.906H60.152C59.9387 25.4011 59.5966 25.8136 59.1257 26.1436C58.6588 26.4696 58.0773 26.6326 57.381 26.6326C56.7854 26.6326 56.2582 26.5018 55.7994 26.2402C55.3446 25.9746 54.9864 25.5822 54.7248 25.063C54.4672 24.5438 54.3384 23.9019 54.3384 23.1372V17.2391H56.1435V22.9199C56.1435 23.5518 56.3185 24.0548 56.6687 24.4291C57.0188 24.8034 57.4736 24.9906 58.033 24.9906C58.3711 24.9906 58.7071 24.906 59.0412 24.737C59.3793 24.568 59.659 24.3124 59.8803 23.9703C60.1057 23.6282 60.2164 23.1936 60.2124 22.6663ZM64.4488 26.5119V17.2391H66.2538V26.5119H64.4488ZM65.3603 15.8084C65.0464 15.8084 64.7768 15.7037 64.5514 15.4945C64.33 15.2812 64.2194 15.0276 64.2194 14.7338C64.2194 14.436 64.33 14.1824 64.5514 13.9732C64.7768 13.7599 65.0464 13.6532 65.3603 13.6532C65.6743 13.6532 65.9419 13.7599 66.1633 13.9732C66.3886 14.1824 66.5013 14.436 66.5013 14.7338C66.5013 15.0276 66.3886 15.2812 66.1633 15.4945C65.9419 15.7037 65.6743 15.8084 65.3603 15.8084ZM70.4872 14.1482V26.5119H68.6822V14.1482H70.4872ZM77.244 17.2391V18.688H72.1791V17.2391H77.244ZM73.5374 15.0176H75.3424V23.7892C75.3424 24.1394 75.3947 24.403 75.4994 24.58C75.604 24.7531 75.7388 24.8718 75.9038 24.9362C76.0729 24.9966 76.256 25.0268 76.4532 25.0268C76.5981 25.0268 76.7249 25.0167 76.8335 24.9966C76.9422 24.9765 77.0267 24.9604 77.0871 24.9483L77.4131 26.4394C77.3084 26.4797 77.1595 26.5199 76.9663 26.5602C76.7732 26.6044 76.5317 26.6286 76.2419 26.6326C75.767 26.6407 75.3243 26.5561 74.9138 26.3791C74.5033 26.202 74.1712 25.9283 73.9177 25.558C73.6641 25.1878 73.5374 24.7229 73.5374 24.1635V15.0176ZM85.7501 26.5119L83.0214 17.2391H84.8868L86.7039 24.0488H86.7945L88.6176 17.2391H90.483L92.2941 24.0186H92.3847L94.1897 17.2391H96.0551L93.3325 26.5119H91.4912L89.6077 19.8169H89.4688L87.5853 26.5119H85.7501ZM97.7681 26.5119V17.2391H99.5731V26.5119H97.7681ZM98.6797 15.8084C98.3658 15.8084 98.0961 15.7037 97.8707 15.4945C97.6494 15.2812 97.5387 15.0276 97.5387 14.7338C97.5387 14.436 97.6494 14.1824 97.8707 13.9732C98.0961 13.7599 98.3658 13.6532 98.6797 13.6532C98.9936 13.6532 99.2612 13.7599 99.4826 13.9732C99.708 14.1824 99.8207 14.436 99.8207 14.7338C99.8207 15.0276 99.708 15.2812 99.4826 15.4945C99.2612 15.7037 98.9936 15.8084 98.6797 15.8084ZM106.33 17.2391V18.688H101.265V17.2391H106.33ZM102.623 15.0176H104.428V23.7892C104.428 24.1394 104.481 24.403 104.585 24.58C104.69 24.7531 104.825 24.8718 104.99 24.9362C105.159 24.9966 105.342 25.0268 105.539 25.0268C105.684 25.0268 105.811 25.0167 105.919 24.9966C106.028 24.9765 106.113 24.9604 106.173 24.9483L106.499 26.4394C106.394 26.4797 106.245 26.5199 106.052 26.5602C105.859 26.6044 105.618 26.6286 105.328 26.6326C104.853 26.6407 104.41 26.5561 104 26.3791C103.589 26.202 103.257 25.9283 103.004 25.558C102.75 25.1878 102.623 24.7229 102.623 24.1635V15.0176ZM110.331 21.0062V26.5119H108.526V14.1482H110.307V18.7484H110.421C110.639 18.2493 110.971 17.8529 111.418 17.5591C111.864 17.2653 112.448 17.1184 113.168 17.1184C113.804 17.1184 114.36 17.2492 114.834 17.5108C115.313 17.7724 115.684 18.1628 115.945 18.682C116.211 19.1971 116.344 19.8411 116.344 20.6138V26.5119H114.539V20.8311C114.539 20.151 114.364 19.6237 114.013 19.2494C113.663 18.8711 113.176 18.682 112.553 18.682C112.126 18.682 111.744 18.7725 111.406 18.9536C111.071 19.1347 110.808 19.4004 110.615 19.7505C110.426 20.0966 110.331 20.5152 110.331 21.0062Z" fill="#E8E8E8"/>
<path d="M127.96 14.1482H130.906V22.6965C130.902 23.4974 130.711 24.1977 130.333 24.7974C129.955 25.393 129.431 25.8559 128.763 26.1859C128.099 26.5159 127.331 26.6809 126.457 26.6809C125.684 26.6809 124.982 26.5461 124.35 26.2764C123.722 26.0068 123.221 25.5882 122.847 25.0207C122.477 24.4533 122.294 23.7268 122.298 22.8414H125.274C125.286 23.1594 125.346 23.431 125.455 23.6564C125.568 23.8778 125.723 24.0448 125.92 24.1575C126.117 24.2702 126.353 24.3265 126.626 24.3265C126.912 24.3265 127.153 24.2661 127.351 24.1454C127.548 24.0206 127.697 23.8375 127.797 23.596C127.902 23.3546 127.956 23.0547 127.96 22.6965V14.1482ZM135.396 26.6688C134.805 26.6688 134.28 26.5702 133.821 26.373C133.366 26.1718 133.006 25.8699 132.74 25.4675C132.479 25.061 132.348 24.5519 132.348 23.9401C132.348 23.425 132.438 22.9903 132.619 22.6362C132.801 22.282 133.05 21.9942 133.368 21.7729C133.686 21.5515 134.052 21.3845 134.467 21.2718C134.881 21.1551 135.324 21.0766 135.795 21.0364C136.322 20.9881 136.747 20.9378 137.069 20.8854C137.391 20.8291 137.624 20.7506 137.769 20.65C137.918 20.5454 137.992 20.3985 137.992 20.2093V20.1791C137.992 19.8692 137.886 19.6298 137.672 19.4607C137.459 19.2917 137.171 19.2072 136.809 19.2072C136.419 19.2072 136.105 19.2917 135.867 19.4607C135.63 19.6298 135.479 19.8632 135.415 20.161L132.692 20.0644C132.772 19.501 132.98 18.9979 133.314 18.5552C133.652 18.1085 134.115 17.7583 134.702 17.5048C135.294 17.2472 136.004 17.1184 136.833 17.1184C137.425 17.1184 137.97 17.1888 138.469 17.3297C138.968 17.4665 139.403 17.6678 139.773 17.9334C140.143 18.195 140.429 18.517 140.63 18.8993C140.836 19.2816 140.938 19.7183 140.938 20.2093V26.5119H138.161V25.22H138.089C137.924 25.5339 137.713 25.7995 137.455 26.0168C137.201 26.2342 136.902 26.3972 136.555 26.5058C136.213 26.6145 135.827 26.6688 135.396 26.6688ZM136.308 24.737C136.626 24.737 136.912 24.6726 137.165 24.5438C137.423 24.415 137.628 24.238 137.781 24.0126C137.934 23.7832 138.01 23.5175 138.01 23.2157V22.3343C137.926 22.3786 137.823 22.4188 137.702 22.455C137.586 22.4913 137.457 22.5255 137.316 22.5577C137.175 22.5899 137.03 22.618 136.881 22.6422C136.733 22.6663 136.59 22.6885 136.453 22.7086C136.175 22.7529 135.938 22.8213 135.74 22.9139C135.547 23.0064 135.398 23.1272 135.294 23.2761C135.193 23.421 135.143 23.594 135.143 23.7952C135.143 24.1011 135.252 24.3345 135.469 24.4955C135.69 24.6565 135.97 24.737 136.308 24.737ZM151.406 17.2391L148.225 26.5119H144.844L141.669 17.2391H144.778L146.486 23.6262H146.583L148.297 17.2391H151.406ZM154.903 26.6688C154.312 26.6688 153.786 26.5702 153.328 26.373C152.873 26.1718 152.513 25.8699 152.247 25.4675C151.985 25.061 151.855 24.5519 151.855 23.9401C151.855 23.425 151.945 22.9903 152.126 22.6362C152.307 22.282 152.557 21.9942 152.875 21.7729C153.193 21.5515 153.559 21.3845 153.974 21.2718C154.388 21.1551 154.831 21.0766 155.302 21.0364C155.829 20.9881 156.253 20.9378 156.575 20.8854C156.897 20.8291 157.131 20.7506 157.276 20.65C157.425 20.5454 157.499 20.3985 157.499 20.2093V20.1791C157.499 19.8692 157.392 19.6298 157.179 19.4607C156.966 19.2917 156.678 19.2072 156.316 19.2072C155.925 19.2072 155.612 19.2917 155.374 19.4607C155.137 19.6298 154.986 19.8632 154.921 20.161L152.199 20.0644C152.279 19.501 152.486 18.9979 152.82 18.5552C153.159 18.1085 153.621 17.7583 154.209 17.5048C154.801 17.2472 155.511 17.1184 156.34 17.1184C156.932 17.1184 157.477 17.1888 157.976 17.3297C158.475 17.4665 158.91 17.6678 159.28 17.9334C159.65 18.195 159.936 18.517 160.137 18.8993C160.342 19.2816 160.445 19.7183 160.445 20.2093V26.5119H157.668V25.22H157.596C157.431 25.5339 157.219 25.7995 156.962 26.0168C156.708 26.2342 156.408 26.3972 156.062 26.5058C155.72 26.6145 155.334 26.6688 154.903 26.6688ZM155.815 24.737C156.133 24.737 156.418 24.6726 156.672 24.5438C156.93 24.415 157.135 24.238 157.288 24.0126C157.441 23.7832 157.517 23.5175 157.517 23.2157V22.3343C157.433 22.3786 157.33 22.4188 157.209 22.455C157.093 22.4913 156.964 22.5255 156.823 22.5577C156.682 22.5899 156.537 22.618 156.388 22.6422C156.239 22.6663 156.097 22.6885 155.96 22.7086C155.682 22.7529 155.445 22.8213 155.247 22.9139C155.054 23.0064 154.905 23.1272 154.801 23.2761C154.7 23.421 154.65 23.594 154.65 23.7952C154.65 24.1011 154.758 24.3345 154.976 24.4955C155.197 24.6565 155.477 24.737 155.815 24.737Z" fill="#F58219"/>
</g>
</g>
<rect x="1.07192" y="1.0826" width="167.859" height="37.8585" rx="6.92857" stroke="white" stroke-opacity="0.15" stroke-width="2.14286"/>
<defs>
<filter id="filter0_d_40_380" x="2.40021" y="-1.75738" width="39.202" height="42.7204" filterUnits="userSpaceOnUse" color-interpolation-filters="sRGB">
<feFlood flood-opacity="0" result="BackgroundImageFix"/>
<feColorMatrix in="SourceAlpha" type="matrix" values="0 0 0 0 0 0 0 0 0 0 0 0 0 0 0 0 0 0 127 0" result="hardAlpha"/>
<feOffset/>
<feGaussianBlur stdDeviation="2.80014"/>
<feComposite in2="hardAlpha" operator="out"/>
<feColorMatrix type="matrix" values="0 0 0 0 0 0 0 0 0 0 0 0 0 0 0 0 0 0 0.25 0"/>
<feBlend mode="normal" in2="BackgroundImageFix" result="effect1_dropShadow_40_380"/>
<feBlend mode="normal" in="SourceGraphic" in2="effect1_dropShadow_40_380" result="shape"/>
</filter>
<filter id="filter1_d_40_380" x="36.2877" y="3.79759" width="131.429" height="32.4286" filterUnits="userSpaceOnUse" color-interpolation-filters="sRGB">
<feFlood flood-opacity="0" result="BackgroundImageFix"/>
<feColorMatrix in="SourceAlpha" type="matrix" values="0 0 0 0 0 0 0 0 0 0 0 0 0 0 0 0 0 0 127 0" result="hardAlpha"/>
<feOffset/>
<feGaussianBlur stdDeviation="2.85714"/>
<feComposite in2="hardAlpha" operator="out"/>
<feColorMatrix type="matrix" values="0 0 0 0 0 0 0 0 0 0 0 0 0 0 0 0 0 0 0.25 0"/>
<feBlend mode="normal" in2="BackgroundImageFix" result="effect1_dropShadow_40_380"/>
<feBlend mode="normal" in="SourceGraphic" in2="effect1_dropShadow_40_380" result="shape"/>
</filter>
<linearGradient id="paint0_linear_40_380" x1="85.0012" y1="0.0111694" x2="85.0012" y2="40.0126" gradientUnits="userSpaceOnUse">
<stop stop-color="#2F1A07"/>
<stop offset="1" stop-color="#111A21"/>
</linearGradient>
<clipPath id="clip0_40_380">
<rect x="0.000488281" y="0.0111694" width="170.001" height="40.0014" rx="8" fill="white"/>
</clipPath>
</defs>
</svg>
