<svg width="222" height="41" viewBox="0 0 222 41" fill="none" xmlns="http://www.w3.org/2000/svg">
<g clip-path="url(#clip0_2_963)">
<rect x="0.000488281" y="0.0209961" width="221.001" height="40.0014" rx="8" fill="url(#paint0_linear_2_963)"/>
<g filter="url(#filter0_d_2_963)">
<path d="M7.30127 6.02112H35.3027V34.0225H7.30127V6.02112ZM33.0089 27.3442C32.8047 26.0666 31.9728 24.9932 29.5052 23.9922C28.6465 23.5897 27.6921 23.3096 27.4086 22.6621C27.3024 22.2771 27.2861 22.0671 27.3549 21.8396C27.5299 21.0859 28.4225 20.8595 29.1225 21.0695C29.5775 21.2095 29.9976 21.5596 30.2613 22.1196C31.4676 21.3309 31.4676 21.3309 32.3089 20.807C31.9938 20.317 31.8375 20.1058 31.6252 19.897C30.8901 19.0744 29.9112 18.6544 28.3187 18.6906L27.4961 18.7944C26.7074 18.9869 25.956 19.407 25.501 19.967C24.1709 21.4732 24.5548 24.0984 26.1649 25.1834C27.7575 26.3735 30.0862 26.6348 30.3838 27.756C30.6638 29.1211 29.3687 29.5586 28.09 29.4011C27.1438 29.1911 26.6199 28.7174 26.0424 27.8424L23.9073 29.0686C24.1523 29.6286 24.4323 29.8725 24.8523 30.3625C26.8824 32.4113 31.9577 32.3063 32.8689 29.1911C32.9027 29.0861 33.1489 28.3686 32.9552 27.266L33.0089 27.3442ZM22.5282 18.8913H19.9054C19.9054 21.1524 19.8949 23.3995 19.8949 25.6641C19.8949 27.1015 19.9684 28.4211 19.7339 28.8271C19.3489 29.631 18.3572 29.5283 17.9068 29.3871C17.4448 29.1584 17.2103 28.8434 16.9384 28.3896C16.8649 28.2671 16.8101 28.1609 16.7902 28.1609L14.661 29.4735C15.0168 30.2085 15.536 30.8409 16.2057 31.2434C17.2033 31.8384 18.5438 32.0309 19.9474 31.7159C20.8609 31.4522 21.6485 30.9097 22.0603 30.0697C22.6554 28.9846 22.5294 27.6545 22.5235 26.1658C22.5375 23.7693 22.5235 21.3717 22.5235 18.9566L22.5282 18.8913Z" fill="#F7DF1E"/>
</g>
<g filter="url(#filter1_d_2_963)">
<path d="M43.3603 26.5217V14.158H47.888C48.7653 14.158 49.4918 14.3029 50.0673 14.5927C50.6428 14.8784 51.0734 15.2668 51.3592 15.7578C51.6449 16.2448 51.7878 16.7942 51.7878 17.4059C51.7878 17.921 51.6932 18.3557 51.5041 18.7099C51.3149 19.06 51.0614 19.3417 50.7434 19.555C50.4295 19.7643 50.0834 19.9173 49.7051 20.0139V20.1346C50.1156 20.1547 50.516 20.2875 50.9064 20.533C51.3008 20.7745 51.6268 21.1186 51.8844 21.5653C52.142 22.0121 52.2708 22.5554 52.2708 23.1953C52.2708 23.8272 52.1219 24.3947 51.824 24.8977C51.5302 25.3968 51.0755 25.7932 50.4597 26.087C49.8439 26.3768 49.0571 26.5217 48.0993 26.5217H43.3603ZM45.2257 24.9219H47.9181C48.8116 24.9219 49.4515 24.7488 49.8379 24.4027C50.2243 24.0566 50.4174 23.6239 50.4174 23.1048C50.4174 22.7144 50.3188 22.3562 50.1216 22.0302C49.9244 21.7042 49.6427 21.4446 49.2765 21.2514C48.9142 21.0582 48.4836 20.9616 47.9846 20.9616H45.2257V24.9219ZM45.2257 19.5067H47.725C48.1435 19.5067 48.5198 19.4263 48.8539 19.2653C49.1919 19.1043 49.4596 18.8789 49.6568 18.5891C49.858 18.2953 49.9586 17.9492 49.9586 17.5508C49.9586 17.0397 49.7795 16.611 49.4213 16.2649C49.0631 15.9188 48.5138 15.7457 47.7733 15.7457H45.2257V19.5067ZM60.2124 22.6761V17.2489H62.0234V26.5217H60.2486V24.9158H60.152C59.9387 25.4109 59.5966 25.8234 59.1257 26.1534C58.6588 26.4794 58.0773 26.6424 57.381 26.6424C56.7854 26.6424 56.2582 26.5116 55.7994 26.25C55.3446 25.9844 54.9864 25.592 54.7248 25.0728C54.4672 24.5536 54.3384 23.9117 54.3384 23.147V17.2489H56.1435V22.9297C56.1435 23.5616 56.3185 24.0646 56.6687 24.4389C57.0188 24.8132 57.4736 25.0004 58.033 25.0004C58.3711 25.0004 58.7071 24.9158 59.0412 24.7468C59.3793 24.5778 59.659 24.3222 59.8803 23.9801C60.1057 23.638 60.2164 23.2034 60.2124 22.6761ZM64.4488 26.5217V17.2489H66.2538V26.5217H64.4488ZM65.3603 15.8182C65.0464 15.8182 64.7768 15.7135 64.5514 15.5043C64.33 15.291 64.2194 15.0374 64.2194 14.7436C64.2194 14.4458 64.33 14.1922 64.5514 13.983C64.7768 13.7697 65.0464 13.663 65.3603 13.663C65.6743 13.663 65.9419 13.7697 66.1633 13.983C66.3886 14.1922 66.5013 14.4458 66.5013 14.7436C66.5013 15.0374 66.3886 15.291 66.1633 15.5043C65.9419 15.7135 65.6743 15.8182 65.3603 15.8182ZM70.4872 14.158V26.5217H68.6822V14.158H70.4872ZM77.244 17.2489V18.6978H72.1791V17.2489H77.244ZM73.5374 15.0273H75.3424V23.799C75.3424 24.1491 75.3947 24.4128 75.4994 24.5898C75.604 24.7629 75.7388 24.8816 75.9038 24.946C76.0729 25.0064 76.256 25.0366 76.4532 25.0366C76.5981 25.0366 76.7249 25.0265 76.8335 25.0064C76.9422 24.9863 77.0267 24.9702 77.0871 24.9581L77.4131 26.4492C77.3084 26.4895 77.1595 26.5297 76.9663 26.57C76.7732 26.6142 76.5317 26.6384 76.2419 26.6424C75.767 26.6505 75.3243 26.5659 74.9138 26.3888C74.5033 26.2118 74.1712 25.9381 73.9177 25.5678C73.6641 25.1976 73.5374 24.7327 73.5374 24.1733V15.0273ZM85.7501 26.5217L83.0214 17.2489H84.8868L86.7039 24.0586H86.7945L88.6176 17.2489H90.483L92.2941 24.0284H92.3847L94.1897 17.2489H96.0551L93.3325 26.5217H91.4912L89.6077 19.8267H89.4688L87.5853 26.5217H85.7501ZM97.7681 26.5217V17.2489H99.5731V26.5217H97.7681ZM98.6797 15.8182C98.3658 15.8182 98.0961 15.7135 97.8707 15.5043C97.6494 15.291 97.5387 15.0374 97.5387 14.7436C97.5387 14.4458 97.6494 14.1922 97.8707 13.983C98.0961 13.7697 98.3658 13.663 98.6797 13.663C98.9936 13.663 99.2612 13.7697 99.4826 13.983C99.708 14.1922 99.8207 14.4458 99.8207 14.7436C99.8207 15.0374 99.708 15.291 99.4826 15.5043C99.2612 15.7135 98.9936 15.8182 98.6797 15.8182ZM106.33 17.2489V18.6978H101.265V17.2489H106.33ZM102.623 15.0273H104.428V23.799C104.428 24.1491 104.481 24.4128 104.585 24.5898C104.69 24.7629 104.825 24.8816 104.99 24.946C105.159 25.0064 105.342 25.0366 105.539 25.0366C105.684 25.0366 105.811 25.0265 105.919 25.0064C106.028 24.9863 106.113 24.9702 106.173 24.9581L106.499 26.4492C106.394 26.4895 106.245 26.5297 106.052 26.57C105.859 26.6142 105.618 26.6384 105.328 26.6424C104.853 26.6505 104.41 26.5659 104 26.3888C103.589 26.2118 103.257 25.9381 103.004 25.5678C102.75 25.1976 102.623 24.7327 102.623 24.1733V15.0273ZM110.331 21.016V26.5217H108.526V14.158H110.307V18.7582H110.421C110.639 18.2591 110.971 17.8627 111.418 17.5689C111.864 17.2751 112.448 17.1282 113.168 17.1282C113.804 17.1282 114.36 17.259 114.834 17.5206C115.313 17.7822 115.684 18.1726 115.945 18.6918C116.211 19.2069 116.344 19.8509 116.344 20.6236V26.5217H114.539V20.8409C114.539 20.1608 114.364 19.6335 114.013 19.2592C113.663 18.8809 113.176 18.6918 112.553 18.6918C112.126 18.6918 111.744 18.7823 111.406 18.9634C111.071 19.1445 110.808 19.4102 110.615 19.7603C110.426 20.1064 110.331 20.525 110.331 21.016Z" fill="#E8E8E8"/>
<path d="M127.96 14.158H130.906V22.7063C130.902 23.5072 130.711 24.2075 130.333 24.8072C129.955 25.4028 129.431 25.8656 128.763 26.1957C128.099 26.5257 127.331 26.6907 126.457 26.6907C125.684 26.6907 124.982 26.5559 124.35 26.2862C123.722 26.0166 123.221 25.598 122.847 25.0305C122.477 24.4631 122.294 23.7366 122.298 22.8512H125.274C125.286 23.1692 125.346 23.4408 125.455 23.6662C125.568 23.8875 125.723 24.0546 125.92 24.1673C126.117 24.2799 126.353 24.3363 126.626 24.3363C126.912 24.3363 127.153 24.2759 127.351 24.1552C127.548 24.0304 127.697 23.8473 127.797 23.6058C127.902 23.3643 127.956 23.0645 127.96 22.7063V14.158ZM135.396 26.6786C134.805 26.6786 134.28 26.58 133.821 26.3828C133.366 26.1816 133.006 25.8797 132.74 25.4773C132.479 25.0708 132.348 24.5617 132.348 23.9499C132.348 23.4348 132.438 23.0001 132.619 22.646C132.801 22.2918 133.05 22.004 133.368 21.7827C133.686 21.5613 134.052 21.3943 134.467 21.2816C134.881 21.1649 135.324 21.0864 135.795 21.0462C136.322 20.9979 136.747 20.9476 137.069 20.8952C137.391 20.8389 137.624 20.7604 137.769 20.6598C137.918 20.5552 137.992 20.4083 137.992 20.2191V20.1889C137.992 19.879 137.886 19.6396 137.672 19.4705C137.459 19.3015 137.171 19.217 136.809 19.217C136.419 19.217 136.105 19.3015 135.867 19.4705C135.63 19.6396 135.479 19.873 135.415 20.1708L132.692 20.0742C132.772 19.5108 132.98 19.0077 133.314 18.565C133.652 18.1183 134.115 17.7681 134.702 17.5146C135.294 17.257 136.004 17.1282 136.833 17.1282C137.425 17.1282 137.97 17.1986 138.469 17.3395C138.968 17.4763 139.403 17.6776 139.773 17.9432C140.143 18.2048 140.429 18.5268 140.63 18.9091C140.836 19.2914 140.938 19.7281 140.938 20.2191V26.5217H138.161V25.2298H138.089C137.924 25.5437 137.713 25.8093 137.455 26.0266C137.201 26.244 136.902 26.407 136.555 26.5156C136.213 26.6243 135.827 26.6786 135.396 26.6786ZM136.308 24.7468C136.626 24.7468 136.912 24.6824 137.165 24.5536C137.423 24.4248 137.628 24.2478 137.781 24.0224C137.934 23.793 138.01 23.5273 138.01 23.2255V22.3441C137.926 22.3884 137.823 22.4286 137.702 22.4648C137.586 22.5011 137.457 22.5353 137.316 22.5675C137.175 22.5997 137.03 22.6278 136.881 22.652C136.733 22.6761 136.59 22.6983 136.453 22.7184C136.175 22.7627 135.938 22.8311 135.74 22.9237C135.547 23.0162 135.398 23.137 135.294 23.2859C135.193 23.4308 135.143 23.6038 135.143 23.805C135.143 24.1109 135.252 24.3443 135.469 24.5053C135.69 24.6663 135.97 24.7468 136.308 24.7468ZM151.406 17.2489L148.225 26.5217H144.844L141.669 17.2489H144.778L146.486 23.636H146.583L148.297 17.2489H151.406ZM154.903 26.6786C154.312 26.6786 153.786 26.58 153.328 26.3828C152.873 26.1816 152.513 25.8797 152.247 25.4773C151.985 25.0708 151.855 24.5617 151.855 23.9499C151.855 23.4348 151.945 23.0001 152.126 22.646C152.307 22.2918 152.557 22.004 152.875 21.7827C153.193 21.5613 153.559 21.3943 153.974 21.2816C154.388 21.1649 154.831 21.0864 155.302 21.0462C155.829 20.9979 156.253 20.9476 156.575 20.8952C156.897 20.8389 157.131 20.7604 157.276 20.6598C157.425 20.5552 157.499 20.4083 157.499 20.2191V20.1889C157.499 19.879 157.392 19.6396 157.179 19.4705C156.966 19.3015 156.678 19.217 156.316 19.217C155.925 19.217 155.612 19.3015 155.374 19.4705C155.137 19.6396 154.986 19.873 154.921 20.1708L152.199 20.0742C152.279 19.5108 152.486 19.0077 152.82 18.565C153.159 18.1183 153.621 17.7681 154.209 17.5146C154.801 17.257 155.511 17.1282 156.34 17.1282C156.932 17.1282 157.477 17.1986 157.976 17.3395C158.475 17.4763 158.91 17.6776 159.28 17.9432C159.65 18.2048 159.936 18.5268 160.137 18.9091C160.342 19.2914 160.445 19.7281 160.445 20.2191V26.5217H157.668V25.2298H157.596C157.431 25.5437 157.219 25.8093 156.962 26.0266C156.708 26.244 156.408 26.407 156.062 26.5156C155.72 26.6243 155.334 26.6786 154.903 26.6786ZM155.815 24.7468C156.133 24.7468 156.418 24.6824 156.672 24.5536C156.93 24.4248 157.135 24.2478 157.288 24.0224C157.441 23.793 157.517 23.5273 157.517 23.2255V22.3441C157.433 22.3884 157.33 22.4286 157.209 22.4648C157.093 22.5011 156.964 22.5353 156.823 22.5675C156.682 22.5997 156.537 22.6278 156.388 22.652C156.239 22.6761 156.097 22.6983 155.96 22.7184C155.682 22.7627 155.445 22.8311 155.247 22.9237C155.054 23.0162 154.905 23.137 154.801 23.2859C154.7 23.4308 154.65 23.6038 154.65 23.805C154.65 24.1109 154.758 24.3443 154.976 24.5053C155.197 24.6663 155.477 24.7468 155.815 24.7468ZM168.933 17.8647C168.893 17.422 168.714 17.0779 168.396 16.8324C168.082 16.5829 167.633 16.4581 167.05 16.4581C166.663 16.4581 166.341 16.5084 166.084 16.609C165.826 16.7096 165.633 16.8485 165.504 17.0256C165.375 17.1986 165.309 17.3978 165.305 17.6232C165.297 17.8084 165.333 17.9714 165.414 18.1122C165.498 18.2531 165.619 18.3778 165.776 18.4865C165.937 18.5911 166.13 18.6837 166.355 18.7642C166.581 18.8447 166.834 18.9151 167.116 18.9755L168.178 19.217C168.79 19.3498 169.329 19.5269 169.796 19.7482C170.267 19.9696 170.662 20.2332 170.98 20.5391C171.302 20.8449 171.545 21.1971 171.71 21.5955C171.875 21.994 171.96 22.4407 171.964 22.9357C171.96 23.7165 171.762 24.3866 171.372 24.946C170.982 25.5054 170.42 25.9341 169.688 26.2319C168.959 26.5297 168.08 26.6786 167.05 26.6786C166.015 26.6786 165.114 26.5237 164.345 26.2138C163.576 25.9039 162.979 25.433 162.552 24.8011C162.125 24.1693 161.906 23.3704 161.894 22.4045H164.755C164.78 22.8029 164.886 23.1349 165.075 23.4006C165.265 23.6662 165.524 23.8674 165.854 24.0043C166.188 24.1411 166.575 24.2095 167.013 24.2095C167.416 24.2095 167.758 24.1552 168.04 24.0465C168.325 23.9379 168.545 23.7869 168.698 23.5938C168.851 23.4006 168.929 23.1792 168.933 22.9297C168.929 22.6963 168.857 22.497 168.716 22.332C168.575 22.163 168.358 22.0181 168.064 21.8974C167.774 21.7726 167.404 21.6579 166.953 21.5533L165.661 21.2514C164.59 21.0059 163.747 20.6095 163.132 20.0621C162.516 19.5108 162.21 18.7662 162.214 17.8285C162.21 17.0638 162.415 16.3937 162.83 15.8182C163.244 15.2427 163.818 14.7939 164.55 14.472C165.283 14.15 166.118 13.989 167.056 13.989C168.013 13.989 168.845 14.152 169.549 14.478C170.257 14.8 170.807 15.2527 171.197 15.8363C171.587 16.4199 171.787 17.096 171.795 17.8647H168.933ZM177.801 26.6967C176.823 26.6967 175.984 26.4955 175.284 26.093C174.588 25.6906 174.052 25.1312 173.678 24.4148C173.304 23.6944 173.117 22.8613 173.117 21.9155C173.117 20.9657 173.304 20.1326 173.678 19.4162C174.056 18.6958 174.594 18.1344 175.29 17.7319C175.99 17.3294 176.825 17.1282 177.795 17.1282C178.653 17.1282 179.399 17.2831 180.035 17.593C180.675 17.9029 181.174 18.3416 181.532 18.9091C181.894 19.4725 182.086 20.1346 182.106 20.8952H179.347C179.29 20.4203 179.129 20.0481 178.864 19.7784C178.602 19.5088 178.26 19.3739 177.838 19.3739C177.495 19.3739 177.196 19.4705 176.938 19.6637C176.68 19.8529 176.479 20.1346 176.334 20.5089C176.193 20.8791 176.123 21.338 176.123 21.8853C176.123 22.4326 176.193 22.8955 176.334 23.2738C176.479 23.6481 176.68 23.9318 176.938 24.125C177.196 24.3142 177.495 24.4087 177.838 24.4087C178.111 24.4087 178.353 24.3504 178.562 24.2337C178.775 24.117 178.95 23.9459 179.087 23.7205C179.224 23.4911 179.311 23.2134 179.347 22.8874H182.106C182.077 23.6521 181.886 24.3202 181.532 24.8917C181.182 25.4632 180.689 25.9079 180.053 26.2259C179.421 26.5398 178.671 26.6967 177.801 26.6967ZM183.616 26.5217V17.2489H186.484V18.9393H186.581C186.75 18.3275 187.025 17.8728 187.408 17.5749C187.79 17.2731 188.235 17.1222 188.742 17.1222C188.879 17.1222 189.019 17.1322 189.164 17.1523C189.309 17.1684 189.444 17.1946 189.569 17.2308V19.7965C189.428 19.7482 189.243 19.71 189.013 19.6818C188.788 19.6536 188.587 19.6396 188.41 19.6396C188.06 19.6396 187.744 19.718 187.462 19.875C187.184 20.0279 186.965 20.2433 186.804 20.521C186.647 20.7946 186.568 21.1166 186.568 21.4869V26.5217H183.616ZM190.772 26.5217V17.2489H193.724V26.5217H190.772ZM192.251 16.1683C191.836 16.1683 191.48 16.0315 191.182 15.7578C190.884 15.4801 190.735 15.1461 190.735 14.7557C190.735 14.3693 190.884 14.0393 191.182 13.7656C191.48 13.4879 191.836 13.3491 192.251 13.3491C192.669 13.3491 193.025 13.4879 193.319 13.7656C193.617 14.0393 193.766 14.3693 193.766 14.7557C193.766 15.1461 193.617 15.4801 193.319 15.7578C193.025 16.0315 192.669 16.1683 192.251 16.1683ZM195.603 29.9989V17.2489H198.525V18.8367H198.615C198.736 18.5549 198.907 18.2833 199.128 18.0217C199.354 17.7601 199.639 17.5468 199.986 17.3818C200.336 17.2127 200.754 17.1282 201.241 17.1282C201.885 17.1282 202.487 17.2972 203.046 17.6353C203.61 17.9734 204.064 18.4946 204.411 19.1989C204.757 19.9032 204.93 20.8007 204.93 21.8913C204.93 22.9418 204.763 23.8211 204.429 24.5295C204.099 25.2378 203.652 25.7691 203.088 26.1232C202.529 26.4774 201.907 26.6545 201.223 26.6545C200.756 26.6545 200.352 26.578 200.01 26.4251C199.668 26.2721 199.38 26.0709 199.146 25.8214C198.917 25.5719 198.74 25.3042 198.615 25.0185H198.555V29.9989H195.603ZM198.494 21.8853C198.494 22.3844 198.561 22.819 198.694 23.1893C198.83 23.5595 199.026 23.8473 199.279 24.0526C199.537 24.2538 199.845 24.3544 200.203 24.3544C200.565 24.3544 200.873 24.2538 201.126 24.0526C201.38 23.8473 201.571 23.5595 201.7 23.1893C201.833 22.819 201.899 22.3844 201.899 21.8853C201.899 21.3862 201.833 20.9536 201.7 20.5874C201.571 20.2211 201.38 19.9374 201.126 19.7362C200.877 19.5349 200.569 19.4343 200.203 19.4343C199.841 19.4343 199.533 19.5329 199.279 19.7301C199.026 19.9273 198.83 20.209 198.694 20.5753C198.561 20.9415 198.494 21.3782 198.494 21.8853ZM211.711 17.2489V19.4222H205.861V17.2489H211.711ZM207.086 15.0273H210.039V23.6058C210.039 23.7869 210.067 23.9338 210.123 24.0465C210.183 24.1552 210.27 24.2337 210.383 24.282C210.495 24.3262 210.63 24.3484 210.787 24.3484C210.9 24.3484 211.018 24.3383 211.143 24.3182C211.272 24.294 211.369 24.2739 211.433 24.2578L211.88 26.3888C211.739 26.4291 211.54 26.4794 211.282 26.5398C211.029 26.6001 210.725 26.6384 210.371 26.6545C209.678 26.6867 209.085 26.6062 208.59 26.413C208.099 26.2158 207.722 25.9099 207.461 25.4954C207.203 25.0808 207.078 24.5597 207.086 23.9318V15.0273Z" fill="#F7DF1E"/>
</g>
</g>
<rect x="1.07192" y="1.09242" width="218.858" height="37.8585" rx="6.92857" stroke="white" stroke-opacity="0.15" stroke-width="2.14286"/>
<defs>
<filter id="filter0_d_2_963" x="1.70099" y="0.420716" width="39.9012" height="39.2021" filterUnits="userSpaceOnUse" color-interpolation-filters="sRGB">
<feFlood flood-opacity="0" result="BackgroundImageFix"/>
<feColorMatrix in="SourceAlpha" type="matrix" values="0 0 0 0 0 0 0 0 0 0 0 0 0 0 0 0 0 0 127 0" result="hardAlpha"/>
<feOffset/>
<feGaussianBlur stdDeviation="2.80014"/>
<feComposite in2="hardAlpha" operator="out"/>
<feColorMatrix type="matrix" values="0 0 0 0 0 0 0 0 0 0 0 0 0 0 0 0 0 0 0.25 0"/>
<feBlend mode="normal" in2="BackgroundImageFix" result="effect1_dropShadow_2_963"/>
<feBlend mode="normal" in="SourceGraphic" in2="effect1_dropShadow_2_963" result="shape"/>
</filter>
<filter id="filter1_d_2_963" x="36.2877" y="3.80738" width="182.429" height="32.4286" filterUnits="userSpaceOnUse" color-interpolation-filters="sRGB">
<feFlood flood-opacity="0" result="BackgroundImageFix"/>
<feColorMatrix in="SourceAlpha" type="matrix" values="0 0 0 0 0 0 0 0 0 0 0 0 0 0 0 0 0 0 127 0" result="hardAlpha"/>
<feOffset/>
<feGaussianBlur stdDeviation="2.85714"/>
<feComposite in2="hardAlpha" operator="out"/>
<feColorMatrix type="matrix" values="0 0 0 0 0 0 0 0 0 0 0 0 0 0 0 0 0 0 0.25 0"/>
<feBlend mode="normal" in2="BackgroundImageFix" result="effect1_dropShadow_2_963"/>
<feBlend mode="normal" in="SourceGraphic" in2="effect1_dropShadow_2_963" result="shape"/>
</filter>
<linearGradient id="paint0_linear_2_963" x1="110.501" y1="0.0209961" x2="110.501" y2="40.0224" gradientUnits="userSpaceOnUse">
<stop stop-color="#35300A"/>
<stop offset="1" stop-color="#232004"/>
</linearGradient>
<clipPath id="clip0_2_963">
<rect x="0.000488281" y="0.0209961" width="221.001" height="40.0014" rx="8" fill="white"/>
</clipPath>
</defs>
</svg>
