<svg width="224" height="41" viewBox="0 0 224 41" fill="none" xmlns="http://www.w3.org/2000/svg">
<g clip-path="url(#clip0_2_963)">
<rect x="0.000488281" y="0.0209961" width="223.001" height="40.0014" rx="8" fill="url(#paint0_linear_2_963)"/>
<g filter="url(#filter0_d_2_963)">
<path d="M7.30127 6.02112H35.3027V34.0225H7.30127V6.02112ZM33.0089 27.3442C32.8047 26.0666 31.9728 24.9932 29.5052 23.9922C28.6465 23.5897 27.6921 23.3096 27.4086 22.6621C27.3024 22.2771 27.2861 22.0671 27.3549 21.8396C27.5299 21.0859 28.4225 20.8595 29.1225 21.0695C29.5775 21.2095 29.9976 21.5596 30.2613 22.1196C31.4676 21.3309 31.4676 21.3309 32.3089 20.807C31.9938 20.317 31.8375 20.1058 31.6252 19.897C30.8901 19.0744 29.9112 18.6544 28.3187 18.6906L27.4961 18.7944C26.7074 18.9869 25.956 19.407 25.501 19.967C24.1709 21.4732 24.5548 24.0984 26.1649 25.1834C27.7575 26.3735 30.0862 26.6348 30.3838 27.756C30.6638 29.1211 29.3687 29.5586 28.09 29.4011C27.1438 29.1911 26.6199 28.7174 26.0424 27.8424L23.9073 29.0686C24.1523 29.6286 24.4323 29.8725 24.8523 30.3625C26.8824 32.4113 31.9577 32.3063 32.8689 29.1911C32.9027 29.0861 33.1489 28.3686 32.9552 27.266L33.0089 27.3442V27.3442ZM22.5282 18.8913H19.9054C19.9054 21.1524 19.8949 23.3995 19.8949 25.6641C19.8949 27.1015 19.9684 28.4211 19.7339 28.8271C19.3489 29.631 18.3572 29.5283 17.9068 29.3871C17.4448 29.1584 17.2103 28.8434 16.9384 28.3896C16.8649 28.2671 16.8101 28.1609 16.7902 28.1609L14.661 29.4735C15.0168 30.2085 15.536 30.8409 16.2057 31.2434C17.2033 31.8384 18.5438 32.0309 19.9474 31.7159C20.8609 31.4522 21.6485 30.9097 22.0603 30.0697C22.6554 28.9846 22.5294 27.6545 22.5235 26.1658C22.5375 23.7693 22.5235 21.3717 22.5235 18.9566L22.5282 18.8913V18.8913Z" fill="#F7DF1E"/>
</g>
<g filter="url(#filter1_d_2_963)">
<path d="M45.3603 26.5217V14.158H49.888C50.7653 14.158 51.4918 14.3029 52.0673 14.5927C52.6428 14.8784 53.0734 15.2668 53.3592 15.7578C53.6449 16.2448 53.7878 16.7942 53.7878 17.4059C53.7878 17.921 53.6932 18.3557 53.5041 18.7099C53.3149 19.06 53.0614 19.3417 52.7434 19.555C52.4295 19.7643 52.0834 19.9173 51.7051 20.0139V20.1346C52.1156 20.1547 52.516 20.2875 52.9064 20.533C53.3008 20.7745 53.6268 21.1186 53.8844 21.5653C54.142 22.0121 54.2708 22.5554 54.2708 23.1953C54.2708 23.8272 54.1219 24.3947 53.824 24.8977C53.5302 25.3968 53.0755 25.7932 52.4597 26.087C51.8439 26.3768 51.0571 26.5217 50.0993 26.5217H45.3603ZM47.2257 24.9219H49.9181C50.8116 24.9219 51.4515 24.7488 51.8379 24.4027C52.2243 24.0566 52.4174 23.6239 52.4174 23.1048C52.4174 22.7144 52.3188 22.3562 52.1216 22.0302C51.9244 21.7042 51.6427 21.4446 51.2765 21.2514C50.9142 21.0582 50.4836 20.9616 49.9846 20.9616H47.2257V24.9219ZM47.2257 19.5067H49.725C50.1435 19.5067 50.5198 19.4263 50.8539 19.2653C51.1919 19.1043 51.4596 18.8789 51.6568 18.5891C51.858 18.2953 51.9586 17.9492 51.9586 17.5508C51.9586 17.0397 51.7795 16.611 51.4213 16.2649C51.0631 15.9188 50.5138 15.7457 49.7733 15.7457H47.2257V19.5067ZM62.2124 22.6761V17.2489H64.0234V26.5217H62.2486V24.9158H62.152C61.9387 25.4109 61.5966 25.8234 61.1257 26.1534C60.6588 26.4794 60.0773 26.6424 59.381 26.6424C58.7854 26.6424 58.2582 26.5116 57.7994 26.25C57.3446 25.9844 56.9864 25.592 56.7248 25.0728C56.4672 24.5536 56.3384 23.9117 56.3384 23.147V17.2489H58.1435V22.9297C58.1435 23.5616 58.3185 24.0646 58.6687 24.4389C59.0188 24.8132 59.4736 25.0004 60.033 25.0004C60.3711 25.0004 60.7071 24.9158 61.0412 24.7468C61.3793 24.5778 61.659 24.3222 61.8803 23.9801C62.1057 23.638 62.2164 23.2034 62.2124 22.6761ZM66.4488 26.5217V17.2489H68.2538V26.5217H66.4488ZM67.3603 15.8182C67.0464 15.8182 66.7768 15.7135 66.5514 15.5043C66.33 15.291 66.2194 15.0374 66.2194 14.7436C66.2194 14.4458 66.33 14.1922 66.5514 13.983C66.7768 13.7697 67.0464 13.663 67.3603 13.663C67.6743 13.663 67.9419 13.7697 68.1633 13.983C68.3886 14.1922 68.5013 14.4458 68.5013 14.7436C68.5013 15.0374 68.3886 15.291 68.1633 15.5043C67.9419 15.7135 67.6743 15.8182 67.3603 15.8182ZM72.4872 14.158V26.5217H70.6822V14.158H72.4872ZM79.244 17.2489V18.6978H74.1791V17.2489H79.244ZM75.5374 15.0273H77.3424V23.799C77.3424 24.1491 77.3947 24.4128 77.4994 24.5898C77.604 24.7629 77.7388 24.8816 77.9038 24.946C78.0729 25.0064 78.256 25.0366 78.4532 25.0366C78.5981 25.0366 78.7249 25.0265 78.8335 25.0064C78.9422 24.9863 79.0267 24.9702 79.0871 24.9581L79.4131 26.4492C79.3084 26.4895 79.1595 26.5297 78.9663 26.57C78.7732 26.6142 78.5317 26.6384 78.2419 26.6424C77.767 26.6505 77.3243 26.5659 76.9138 26.3888C76.5033 26.2118 76.1712 25.9381 75.9177 25.5678C75.6641 25.1976 75.5374 24.7327 75.5374 24.1733V15.0273ZM87.7501 26.5217L85.0214 17.2489H86.8868L88.7039 24.0586H88.7945L90.6176 17.2489H92.483L94.2941 24.0284H94.3847L96.1897 17.2489H98.0551L95.3325 26.5217H93.4912L91.6077 19.8267H91.4688L89.5853 26.5217H87.7501ZM99.7681 26.5217V17.2489H101.573V26.5217H99.7681ZM100.68 15.8182C100.366 15.8182 100.096 15.7135 99.8707 15.5043C99.6494 15.291 99.5387 15.0374 99.5387 14.7436C99.5387 14.4458 99.6494 14.1922 99.8707 13.983C100.096 13.7697 100.366 13.663 100.68 13.663C100.994 13.663 101.261 13.7697 101.483 13.983C101.708 14.1922 101.821 14.4458 101.821 14.7436C101.821 15.0374 101.708 15.291 101.483 15.5043C101.261 15.7135 100.994 15.8182 100.68 15.8182ZM108.33 17.2489V18.6978H103.265V17.2489H108.33ZM104.623 15.0273H106.428V23.799C106.428 24.1491 106.481 24.4128 106.585 24.5898C106.69 24.7629 106.825 24.8816 106.99 24.946C107.159 25.0064 107.342 25.0366 107.539 25.0366C107.684 25.0366 107.811 25.0265 107.919 25.0064C108.028 24.9863 108.113 24.9702 108.173 24.9581L108.499 26.4492C108.394 26.4895 108.245 26.5297 108.052 26.57C107.859 26.6142 107.618 26.6384 107.328 26.6424C106.853 26.6505 106.41 26.5659 106 26.3888C105.589 26.2118 105.257 25.9381 105.004 25.5678C104.75 25.1976 104.623 24.7327 104.623 24.1733V15.0273ZM112.331 21.016V26.5217H110.526V14.158H112.307V18.7582H112.421C112.639 18.2591 112.971 17.8627 113.418 17.5689C113.864 17.2751 114.448 17.1282 115.168 17.1282C115.804 17.1282 116.36 17.259 116.834 17.5206C117.313 17.7822 117.684 18.1726 117.945 18.6918C118.211 19.2069 118.344 19.8509 118.344 20.6236V26.5217H116.539V20.8409C116.539 20.1608 116.364 19.6335 116.013 19.2592C115.663 18.8809 115.176 18.6918 114.553 18.6918C114.126 18.6918 113.744 18.7823 113.406 18.9634C113.071 19.1445 112.808 19.4102 112.615 19.7603C112.426 20.1064 112.331 20.525 112.331 21.016Z" fill="#E8E8E8"/>
<path d="M129.96 14.158H132.906V22.7063C132.902 23.5072 132.711 24.2075 132.333 24.8072C131.955 25.4028 131.431 25.8656 130.763 26.1957C130.099 26.5257 129.331 26.6907 128.457 26.6907C127.684 26.6907 126.982 26.5559 126.35 26.2862C125.722 26.0166 125.221 25.598 124.847 25.0305C124.477 24.4631 124.294 23.7366 124.298 22.8512H127.274C127.286 23.1692 127.346 23.4408 127.455 23.6662C127.568 23.8875 127.723 24.0546 127.92 24.1673C128.117 24.2799 128.353 24.3363 128.626 24.3363C128.912 24.3363 129.153 24.2759 129.351 24.1552C129.548 24.0304 129.697 23.8473 129.797 23.6058C129.902 23.3643 129.956 23.0645 129.96 22.7063V14.158ZM137.396 26.6786C136.805 26.6786 136.28 26.58 135.821 26.3828C135.366 26.1816 135.006 25.8797 134.74 25.4773C134.479 25.0708 134.348 24.5617 134.348 23.9499C134.348 23.4348 134.438 23.0001 134.619 22.646C134.801 22.2918 135.05 22.004 135.368 21.7827C135.686 21.5613 136.052 21.3943 136.467 21.2816C136.881 21.1649 137.324 21.0864 137.795 21.0462C138.322 20.9979 138.747 20.9476 139.069 20.8952C139.391 20.8389 139.624 20.7604 139.769 20.6598C139.918 20.5552 139.992 20.4083 139.992 20.2191V20.1889C139.992 19.879 139.886 19.6396 139.672 19.4705C139.459 19.3015 139.171 19.217 138.809 19.217C138.419 19.217 138.105 19.3015 137.867 19.4705C137.63 19.6396 137.479 19.873 137.415 20.1708L134.692 20.0742C134.772 19.5108 134.98 19.0077 135.314 18.565C135.652 18.1183 136.115 17.7681 136.702 17.5146C137.294 17.257 138.004 17.1282 138.833 17.1282C139.425 17.1282 139.97 17.1986 140.469 17.3395C140.968 17.4763 141.403 17.6776 141.773 17.9432C142.143 18.2048 142.429 18.5268 142.63 18.9091C142.836 19.2914 142.938 19.7281 142.938 20.2191V26.5217H140.161V25.2298H140.089C139.924 25.5437 139.713 25.8093 139.455 26.0266C139.201 26.244 138.902 26.407 138.555 26.5156C138.213 26.6243 137.827 26.6786 137.396 26.6786ZM138.308 24.7468C138.626 24.7468 138.912 24.6824 139.165 24.5536C139.423 24.4248 139.628 24.2478 139.781 24.0224C139.934 23.793 140.01 23.5273 140.01 23.2255V22.3441C139.926 22.3884 139.823 22.4286 139.702 22.4648C139.586 22.5011 139.457 22.5353 139.316 22.5675C139.175 22.5997 139.03 22.6278 138.881 22.652C138.733 22.6761 138.59 22.6983 138.453 22.7184C138.175 22.7627 137.938 22.8311 137.74 22.9237C137.547 23.0162 137.398 23.137 137.294 23.2859C137.193 23.4308 137.143 23.6038 137.143 23.805C137.143 24.1109 137.252 24.3443 137.469 24.5053C137.69 24.6663 137.97 24.7468 138.308 24.7468ZM153.406 17.2489L150.225 26.5217H146.844L143.669 17.2489H146.778L148.486 23.636H148.583L150.297 17.2489H153.406ZM156.903 26.6786C156.312 26.6786 155.786 26.58 155.328 26.3828C154.873 26.1816 154.513 25.8797 154.247 25.4773C153.985 25.0708 153.855 24.5617 153.855 23.9499C153.855 23.4348 153.945 23.0001 154.126 22.646C154.307 22.2918 154.557 22.004 154.875 21.7827C155.193 21.5613 155.559 21.3943 155.974 21.2816C156.388 21.1649 156.831 21.0864 157.302 21.0462C157.829 20.9979 158.253 20.9476 158.575 20.8952C158.897 20.8389 159.131 20.7604 159.276 20.6598C159.425 20.5552 159.499 20.4083 159.499 20.2191V20.1889C159.499 19.879 159.392 19.6396 159.179 19.4705C158.966 19.3015 158.678 19.217 158.316 19.217C157.925 19.217 157.612 19.3015 157.374 19.4705C157.137 19.6396 156.986 19.873 156.921 20.1708L154.199 20.0742C154.279 19.5108 154.486 19.0077 154.82 18.565C155.159 18.1183 155.621 17.7681 156.209 17.5146C156.801 17.257 157.511 17.1282 158.34 17.1282C158.932 17.1282 159.477 17.1986 159.976 17.3395C160.475 17.4763 160.91 17.6776 161.28 17.9432C161.65 18.2048 161.936 18.5268 162.137 18.9091C162.342 19.2914 162.445 19.7281 162.445 20.2191V26.5217H159.668V25.2298H159.596C159.431 25.5437 159.219 25.8093 158.962 26.0266C158.708 26.244 158.408 26.407 158.062 26.5156C157.72 26.6243 157.334 26.6786 156.903 26.6786ZM157.815 24.7468C158.133 24.7468 158.418 24.6824 158.672 24.5536C158.93 24.4248 159.135 24.2478 159.288 24.0224C159.441 23.793 159.517 23.5273 159.517 23.2255V22.3441C159.433 22.3884 159.33 22.4286 159.209 22.4648C159.093 22.5011 158.964 22.5353 158.823 22.5675C158.682 22.5997 158.537 22.6278 158.388 22.652C158.239 22.6761 158.097 22.6983 157.96 22.7184C157.682 22.7627 157.445 22.8311 157.247 22.9237C157.054 23.0162 156.905 23.137 156.801 23.2859C156.7 23.4308 156.65 23.6038 156.65 23.805C156.65 24.1109 156.758 24.3443 156.976 24.5053C157.197 24.6663 157.477 24.7468 157.815 24.7468ZM170.933 17.8647C170.893 17.422 170.714 17.0779 170.396 16.8324C170.082 16.5829 169.633 16.4581 169.05 16.4581C168.663 16.4581 168.341 16.5084 168.084 16.609C167.826 16.7096 167.633 16.8485 167.504 17.0256C167.375 17.1986 167.309 17.3978 167.305 17.6232C167.297 17.8084 167.333 17.9714 167.414 18.1122C167.498 18.2531 167.619 18.3778 167.776 18.4865C167.937 18.5911 168.13 18.6837 168.355 18.7642C168.581 18.8447 168.834 18.9151 169.116 18.9755L170.178 19.217C170.79 19.3498 171.329 19.5269 171.796 19.7482C172.267 19.9696 172.662 20.2332 172.98 20.5391C173.302 20.8449 173.545 21.1971 173.71 21.5955C173.875 21.994 173.96 22.4407 173.964 22.9357C173.96 23.7165 173.762 24.3866 173.372 24.946C172.982 25.5054 172.42 25.9341 171.688 26.2319C170.959 26.5297 170.08 26.6786 169.05 26.6786C168.015 26.6786 167.114 26.5237 166.345 26.2138C165.576 25.9039 164.979 25.433 164.552 24.8011C164.125 24.1693 163.906 23.3704 163.894 22.4045H166.755C166.78 22.8029 166.886 23.1349 167.075 23.4006C167.265 23.6662 167.524 23.8674 167.854 24.0043C168.188 24.1411 168.575 24.2095 169.013 24.2095C169.416 24.2095 169.758 24.1552 170.04 24.0465C170.325 23.9379 170.545 23.7869 170.698 23.5938C170.851 23.4006 170.929 23.1792 170.933 22.9297C170.929 22.6963 170.857 22.497 170.716 22.332C170.575 22.163 170.358 22.0181 170.064 21.8974C169.774 21.7726 169.404 21.6579 168.953 21.5533L167.661 21.2514C166.59 21.0059 165.747 20.6095 165.132 20.0621C164.516 19.5108 164.21 18.7662 164.214 17.8285C164.21 17.0638 164.415 16.3937 164.83 15.8182C165.244 15.2427 165.818 14.7939 166.55 14.472C167.283 14.15 168.118 13.989 169.056 13.989C170.013 13.989 170.845 14.152 171.549 14.478C172.257 14.8 172.807 15.2527 173.197 15.8363C173.587 16.4199 173.787 17.096 173.795 17.8647H170.933ZM179.801 26.6967C178.823 26.6967 177.984 26.4955 177.284 26.093C176.588 25.6906 176.052 25.1312 175.678 24.4148C175.304 23.6944 175.117 22.8613 175.117 21.9155C175.117 20.9657 175.304 20.1326 175.678 19.4162C176.056 18.6958 176.594 18.1344 177.29 17.7319C177.99 17.3294 178.825 17.1282 179.795 17.1282C180.653 17.1282 181.399 17.2831 182.035 17.593C182.675 17.9029 183.174 18.3416 183.532 18.9091C183.894 19.4725 184.086 20.1346 184.106 20.8952H181.347C181.29 20.4203 181.129 20.0481 180.864 19.7784C180.602 19.5088 180.26 19.3739 179.838 19.3739C179.495 19.3739 179.196 19.4705 178.938 19.6637C178.68 19.8529 178.479 20.1346 178.334 20.5089C178.193 20.8791 178.123 21.338 178.123 21.8853C178.123 22.4326 178.193 22.8955 178.334 23.2738C178.479 23.6481 178.68 23.9318 178.938 24.125C179.196 24.3142 179.495 24.4087 179.838 24.4087C180.111 24.4087 180.353 24.3504 180.562 24.2337C180.775 24.117 180.95 23.9459 181.087 23.7205C181.224 23.4911 181.311 23.2134 181.347 22.8874H184.106C184.077 23.6521 183.886 24.3202 183.532 24.8917C183.182 25.4632 182.689 25.9079 182.053 26.2259C181.421 26.5398 180.671 26.6967 179.801 26.6967ZM185.616 26.5217V17.2489H188.484V18.9393H188.581C188.75 18.3275 189.025 17.8728 189.408 17.5749C189.79 17.2731 190.235 17.1222 190.742 17.1222C190.879 17.1222 191.019 17.1322 191.164 17.1523C191.309 17.1684 191.444 17.1946 191.569 17.2308V19.7965C191.428 19.7482 191.243 19.71 191.013 19.6818C190.788 19.6536 190.587 19.6396 190.41 19.6396C190.06 19.6396 189.744 19.718 189.462 19.875C189.184 20.0279 188.965 20.2433 188.804 20.521C188.647 20.7946 188.568 21.1166 188.568 21.4869V26.5217H185.616ZM192.772 26.5217V17.2489H195.724V26.5217H192.772ZM194.251 16.1683C193.836 16.1683 193.48 16.0315 193.182 15.7578C192.884 15.4801 192.735 15.1461 192.735 14.7557C192.735 14.3693 192.884 14.0393 193.182 13.7656C193.48 13.4879 193.836 13.3491 194.251 13.3491C194.669 13.3491 195.025 13.4879 195.319 13.7656C195.617 14.0393 195.766 14.3693 195.766 14.7557C195.766 15.1461 195.617 15.4801 195.319 15.7578C195.025 16.0315 194.669 16.1683 194.251 16.1683ZM197.603 29.9989V17.2489H200.525V18.8367H200.615C200.736 18.5549 200.907 18.2833 201.128 18.0217C201.354 17.7601 201.639 17.5468 201.986 17.3818C202.336 17.2127 202.754 17.1282 203.241 17.1282C203.885 17.1282 204.487 17.2972 205.046 17.6353C205.61 17.9734 206.064 18.4946 206.411 19.1989C206.757 19.9032 206.93 20.8007 206.93 21.8913C206.93 22.9418 206.763 23.8211 206.429 24.5295C206.099 25.2378 205.652 25.7691 205.088 26.1232C204.529 26.4774 203.907 26.6545 203.223 26.6545C202.756 26.6545 202.352 26.578 202.01 26.4251C201.668 26.2721 201.38 26.0709 201.146 25.8214C200.917 25.5719 200.74 25.3042 200.615 25.0185H200.555V29.9989H197.603ZM200.494 21.8853C200.494 22.3844 200.561 22.819 200.694 23.1893C200.83 23.5595 201.026 23.8473 201.279 24.0526C201.537 24.2538 201.845 24.3544 202.203 24.3544C202.565 24.3544 202.873 24.2538 203.126 24.0526C203.38 23.8473 203.571 23.5595 203.7 23.1893C203.833 22.819 203.899 22.3844 203.899 21.8853C203.899 21.3862 203.833 20.9536 203.7 20.5874C203.571 20.2211 203.38 19.9374 203.126 19.7362C202.877 19.5349 202.569 19.4343 202.203 19.4343C201.841 19.4343 201.533 19.5329 201.279 19.7301C201.026 19.9273 200.83 20.209 200.694 20.5753C200.561 20.9415 200.494 21.3782 200.494 21.8853ZM213.711 17.2489V19.4222H207.861V17.2489H213.711ZM209.086 15.0273H212.039V23.6058C212.039 23.7869 212.067 23.9338 212.123 24.0465C212.183 24.1552 212.27 24.2337 212.383 24.282C212.495 24.3262 212.63 24.3484 212.787 24.3484C212.9 24.3484 213.018 24.3383 213.143 24.3182C213.272 24.294 213.369 24.2739 213.433 24.2578L213.88 26.3888C213.739 26.4291 213.54 26.4794 213.282 26.5398C213.029 26.6001 212.725 26.6384 212.371 26.6545C211.678 26.6867 211.085 26.6062 210.59 26.413C210.099 26.2158 209.722 25.9099 209.461 25.4954C209.203 25.0808 209.078 24.5597 209.086 23.9318V15.0273Z" fill="#F7DF1E"/>
</g>
</g>
<rect x="1.07192" y="1.09242" width="220.858" height="37.8585" rx="6.92857" stroke="white" stroke-opacity="0.15" stroke-width="2.14286"/>
<defs>
<filter id="filter0_d_2_963" x="1.70099" y="0.420716" width="39.9012" height="39.2021" filterUnits="userSpaceOnUse" color-interpolation-filters="sRGB">
<feFlood flood-opacity="0" result="BackgroundImageFix"/>
<feColorMatrix in="SourceAlpha" type="matrix" values="0 0 0 0 0 0 0 0 0 0 0 0 0 0 0 0 0 0 127 0" result="hardAlpha"/>
<feOffset/>
<feGaussianBlur stdDeviation="2.80014"/>
<feComposite in2="hardAlpha" operator="out"/>
<feColorMatrix type="matrix" values="0 0 0 0 0 0 0 0 0 0 0 0 0 0 0 0 0 0 0.25 0"/>
<feBlend mode="normal" in2="BackgroundImageFix" result="effect1_dropShadow_2_963"/>
<feBlend mode="normal" in="SourceGraphic" in2="effect1_dropShadow_2_963" result="shape"/>
</filter>
<filter id="filter1_d_2_963" x="38.2877" y="3.80738" width="182.429" height="32.4286" filterUnits="userSpaceOnUse" color-interpolation-filters="sRGB">
<feFlood flood-opacity="0" result="BackgroundImageFix"/>
<feColorMatrix in="SourceAlpha" type="matrix" values="0 0 0 0 0 0 0 0 0 0 0 0 0 0 0 0 0 0 127 0" result="hardAlpha"/>
<feOffset/>
<feGaussianBlur stdDeviation="2.85714"/>
<feComposite in2="hardAlpha" operator="out"/>
<feColorMatrix type="matrix" values="0 0 0 0 0 0 0 0 0 0 0 0 0 0 0 0 0 0 0.25 0"/>
<feBlend mode="normal" in2="BackgroundImageFix" result="effect1_dropShadow_2_963"/>
<feBlend mode="normal" in="SourceGraphic" in2="effect1_dropShadow_2_963" result="shape"/>
</filter>
<linearGradient id="paint0_linear_2_963" x1="111.501" y1="0.0209961" x2="111.501" y2="40.0224" gradientUnits="userSpaceOnUse">
<stop stop-color="#35300A"/>
<stop offset="1" stop-color="#232004"/>
</linearGradient>
<clipPath id="clip0_2_963">
<rect x="0.000488281" y="0.0209961" width="223.001" height="40.0014" rx="8" fill="white"/>
</clipPath>
</defs>
</svg>
