<svg width="153" height="28" viewBox="0 0 153 28" fill="none" xmlns="http://www.w3.org/2000/svg">
<rect x="0.499512" y="-1.52588e-05" width="152.5" height="28" rx="6" fill="url(#paint0_linear_40_490)"/>
<g filter="url(#filter0_d_40_490)">
<path d="M8.28516 20.7001V7.39284H12.226L16.1669 12.2852L20.1078 7.39284H24.0487V18.3517H25.428L22.0783 21.6786L18.7285 18.3517H20.1078V13.068L16.1669 17.9604L12.226 13.068V20.7001H8.28516Z" fill="white"/>
</g>
<g filter="url(#filter1_d_40_490)">
<path d="M33.3784 18.5V10.5H36.3081C36.8758 10.5 37.3459 10.5937 37.7183 10.7812C38.0907 10.9661 38.3693 11.2174 38.5542 11.5351C38.7391 11.8502 38.8315 12.2057 38.8315 12.6015C38.8315 12.9349 38.7703 13.2161 38.6479 13.4453C38.5256 13.6719 38.3615 13.8541 38.1558 13.9922C37.9526 14.1276 37.7287 14.2265 37.4839 14.289V14.3672C37.7495 14.3802 38.0086 14.4661 38.2612 14.625C38.5164 14.7812 38.7274 15.0039 38.894 15.293C39.0607 15.582 39.144 15.9336 39.144 16.3476C39.144 16.7565 39.0477 17.1237 38.855 17.4492C38.6649 17.7721 38.3706 18.0286 37.9722 18.2187C37.5737 18.4062 37.0646 18.5 36.4448 18.5H33.3784ZM34.5854 17.4648H36.3276C36.9058 17.4648 37.3198 17.3528 37.5698 17.1289C37.8198 16.9049 37.9448 16.625 37.9448 16.289C37.9448 16.0364 37.881 15.8047 37.7534 15.5937C37.6258 15.3828 37.4435 15.2148 37.2065 15.0898C36.9722 14.9648 36.6935 14.9023 36.3706 14.9023H34.5854V17.4648ZM34.5854 13.9609H36.2026C36.4735 13.9609 36.717 13.9088 36.9331 13.8047C37.1519 13.7005 37.325 13.5547 37.4526 13.3672C37.5828 13.1771 37.6479 12.9531 37.6479 12.6953C37.6479 12.3646 37.5321 12.0872 37.3003 11.8633C37.0685 11.6393 36.7131 11.5273 36.2339 11.5273H34.5854V13.9609ZM44.2827 16.0117V12.5H45.4546V18.5H44.3061V17.4609H44.2436C44.1056 17.7812 43.8843 18.0482 43.5796 18.2617C43.2775 18.4726 42.9012 18.5781 42.4507 18.5781C42.0653 18.5781 41.7241 18.4935 41.4272 18.3242C41.133 18.1523 40.9012 17.8984 40.7319 17.5625C40.5653 17.2265 40.4819 16.8112 40.4819 16.3164V12.5H41.6499V16.1758C41.6499 16.5846 41.7632 16.9101 41.9897 17.1523C42.2163 17.3945 42.5106 17.5156 42.8726 17.5156C43.0913 17.5156 43.3088 17.4609 43.5249 17.3515C43.7436 17.2422 43.9246 17.0768 44.0679 16.8555C44.2137 16.6341 44.2853 16.3528 44.2827 16.0117ZM47.0239 18.5V12.5H48.1919V18.5H47.0239ZM47.6138 11.5742C47.4106 11.5742 47.2362 11.5065 47.0903 11.3711C46.9471 11.2331 46.8755 11.069 46.8755 10.8789C46.8755 10.6862 46.9471 10.5221 47.0903 10.3867C47.2362 10.2487 47.4106 10.1797 47.6138 10.1797C47.8169 10.1797 47.9901 10.2487 48.1333 10.3867C48.2791 10.5221 48.352 10.6862 48.352 10.8789C48.352 11.069 48.2791 11.2331 48.1333 11.3711C47.9901 11.5065 47.8169 11.5742 47.6138 11.5742ZM50.9311 10.5V18.5H49.7632V10.5H50.9311ZM55.3032 12.5V13.4375H52.0259V12.5H55.3032ZM52.9048 11.0625H54.0727V16.7383C54.0727 16.9648 54.1066 17.1354 54.1743 17.25C54.242 17.362 54.3293 17.4388 54.436 17.4805C54.5454 17.5195 54.6639 17.539 54.7915 17.539C54.8852 17.539 54.9673 17.5325 55.0376 17.5195C55.1079 17.5065 55.1626 17.4961 55.2017 17.4883L55.4126 18.4531C55.3449 18.4791 55.2485 18.5052 55.1235 18.5312C54.9985 18.5599 54.8423 18.5755 54.6548 18.5781C54.3475 18.5833 54.061 18.5286 53.7954 18.414C53.5298 18.2995 53.3149 18.1224 53.1509 17.8828C52.9868 17.6432 52.9048 17.3424 52.9048 16.9805V11.0625ZM60.8071 18.5L59.0415 12.5H60.2485L61.4243 16.9062H61.4829L62.6626 12.5H63.8696L65.0415 16.8867H65.1001L66.2681 12.5H67.4751L65.7134 18.5H64.522L63.3032 14.168H63.2134L61.9946 18.5H60.8071ZM68.5835 18.5V12.5H69.7515V18.5H68.5835ZM69.1733 11.5742C68.9702 11.5742 68.7957 11.5065 68.6499 11.3711C68.5067 11.2331 68.435 11.069 68.435 10.8789C68.435 10.6862 68.5067 10.5221 68.6499 10.3867C68.7957 10.2487 68.9702 10.1797 69.1733 10.1797C69.3765 10.1797 69.5496 10.2487 69.6929 10.3867C69.8387 10.5221 69.9116 10.6862 69.9116 10.8789C69.9116 11.069 69.8387 11.2331 69.6929 11.3711C69.5496 11.5065 69.3765 11.5742 69.1733 11.5742ZM74.1235 12.5V13.4375H70.8462V12.5H74.1235ZM71.7251 11.0625H72.8931V16.7383C72.8931 16.9648 72.9269 17.1354 72.9946 17.25C73.0623 17.362 73.1496 17.4388 73.2563 17.4805C73.3657 17.5195 73.4842 17.539 73.6118 17.539C73.7056 17.539 73.7876 17.5325 73.8579 17.5195C73.9282 17.5065 73.9829 17.4961 74.022 17.4883L74.2329 18.4531C74.1652 18.4791 74.0688 18.5052 73.9438 18.5312C73.8188 18.5599 73.6626 18.5755 73.4751 18.5781C73.1678 18.5833 72.8813 18.5286 72.6157 18.414C72.3501 18.2995 72.1352 18.1224 71.9712 17.8828C71.8071 17.6432 71.7251 17.3424 71.7251 16.9805V11.0625ZM76.7124 14.9375V18.5H75.5444V10.5H76.6968V13.4765H76.771C76.9116 13.1536 77.1265 12.8971 77.4155 12.707C77.7046 12.5169 78.0822 12.4219 78.5483 12.4219C78.9598 12.4219 79.3192 12.5065 79.6265 12.6758C79.9363 12.845 80.1759 13.0976 80.3452 13.4336C80.5171 13.7669 80.603 14.1836 80.603 14.6836V18.5H79.435V14.8242C79.435 14.3841 79.3218 14.043 79.0952 13.8008C78.8686 13.556 78.5535 13.4336 78.1499 13.4336C77.8738 13.4336 77.6265 13.4922 77.4077 13.6094C77.1916 13.7265 77.021 13.8984 76.896 14.125C76.7736 14.3489 76.7124 14.6198 76.7124 14.9375Z" fill="#E8E8E8"/>
<path d="M84.66 9.77271H87.2722L89.4881 15.1761H89.5904L91.8063 9.77271H94.4185V18.5H92.3646V13.1392H92.2921L90.1955 18.4446H88.883L86.7864 13.1094H86.714V18.5H84.66V9.77271ZM97.5794 18.6108C97.1618 18.6108 96.7911 18.5412 96.4672 18.402C96.1462 18.2599 95.8919 18.0469 95.7044 17.7628C95.5197 17.4758 95.4274 17.1165 95.4274 16.6846C95.4274 16.321 95.4913 16.0142 95.6192 15.7642C95.747 15.5142 95.9232 15.3111 96.1476 15.1548C96.372 14.9986 96.6305 14.8807 96.9232 14.8011C97.2158 14.7187 97.5283 14.6633 97.8607 14.6349C98.2328 14.6008 98.5325 14.5653 98.7598 14.5284C98.9871 14.4886 99.1519 14.4332 99.2541 14.3622C99.3592 14.2883 99.4118 14.1846 99.4118 14.0511V14.0298C99.4118 13.8111 99.3365 13.642 99.1859 13.5227C99.0354 13.4034 98.8322 13.3437 98.5766 13.3437C98.301 13.3437 98.0794 13.4034 97.9118 13.5227C97.7442 13.642 97.6376 13.8068 97.5922 14.017L95.6703 13.9488C95.7271 13.5511 95.8734 13.196 96.1092 12.8835C96.3479 12.5682 96.6746 12.321 97.0894 12.142C97.507 11.9602 98.0084 11.8693 98.5936 11.8693C99.0112 11.8693 99.3962 11.919 99.7484 12.0184C100.101 12.115 100.408 12.2571 100.669 12.4446C100.93 12.6292 101.132 12.8565 101.274 13.1264C101.419 13.3963 101.491 13.7045 101.491 14.0511V18.5H99.5311V17.588H99.48C99.3635 17.8096 99.2144 17.9971 99.0325 18.1505C98.8536 18.304 98.6419 18.419 98.3976 18.4957C98.1561 18.5724 97.8834 18.6108 97.5794 18.6108ZM98.2229 17.2471C98.4473 17.2471 98.649 17.2017 98.828 17.1108C99.0098 17.0199 99.1547 16.8949 99.2626 16.7358C99.3706 16.5738 99.4246 16.3863 99.4246 16.1733V15.5511C99.3649 15.5824 99.2925 15.6108 99.2072 15.6363C99.1249 15.6619 99.034 15.6861 98.9345 15.7088C98.8351 15.7315 98.7328 15.7514 98.6277 15.7684C98.5226 15.7855 98.4217 15.8011 98.3251 15.8153C98.1291 15.8466 97.9615 15.8949 97.8223 15.9602C97.6859 16.0256 97.5808 16.1108 97.507 16.2159C97.4359 16.3182 97.4004 16.4403 97.4004 16.5824C97.4004 16.7983 97.4771 16.9631 97.6305 17.0767C97.7868 17.1903 97.9842 17.2471 98.2229 17.2471ZM102.765 18.5V11.9545H104.79V13.1477H104.858C104.977 12.7159 105.172 12.3949 105.442 12.1846C105.712 11.9716 106.025 11.865 106.383 11.865C106.48 11.865 106.579 11.8721 106.682 11.8863C106.784 11.8977 106.879 11.9162 106.967 11.9417V13.7528C106.868 13.7187 106.737 13.6917 106.575 13.6719C106.416 13.652 106.274 13.642 106.149 13.642C105.902 13.642 105.679 13.6974 105.48 13.8082C105.284 13.9162 105.129 14.0682 105.015 14.2642C104.905 14.4574 104.849 14.6846 104.849 14.946V18.5H102.765ZM109.696 16.7827L109.704 14.2983H109.994L111.835 11.9545H114.196L111.46 15.3125H110.91L109.696 16.7827ZM107.816 18.5V9.77271H109.9V18.5H107.816ZM111.882 18.5L110.169 15.7812L111.541 14.3025L114.289 18.5H111.882ZM117.062 18.5937C116.579 18.5937 116.14 18.4687 115.746 18.2187C115.351 17.9687 115.035 17.5937 114.8 17.0937C114.564 16.5937 114.446 15.973 114.446 15.2315C114.446 14.4616 114.568 13.8281 114.812 13.3309C115.057 12.8338 115.376 12.4659 115.771 12.2273C116.169 11.9886 116.596 11.8693 117.054 11.8693C117.398 11.8693 117.692 11.929 117.936 12.0483C118.18 12.1648 118.382 12.3153 118.541 12.5C118.7 12.6846 118.821 12.8764 118.903 13.0753H118.946V9.77271H121.03V18.5H118.967V17.4389H118.903C118.815 17.6406 118.69 17.8295 118.528 18.0057C118.366 18.1818 118.163 18.3238 117.919 18.4318C117.677 18.5398 117.392 18.5937 117.062 18.5937ZM117.787 16.9702C118.04 16.9702 118.256 16.8991 118.435 16.7571C118.613 16.6122 118.751 16.4091 118.848 16.1477C118.944 15.8863 118.993 15.5795 118.993 15.2273C118.993 14.8693 118.944 14.5611 118.848 14.3025C118.754 14.044 118.616 13.8452 118.435 13.7059C118.256 13.5667 118.04 13.4971 117.787 13.4971C117.528 13.4971 117.31 13.5682 117.131 13.7102C116.952 13.8523 116.815 14.0525 116.721 14.3111C116.631 14.5696 116.585 14.875 116.585 15.2273C116.585 15.5795 116.632 15.8863 116.726 16.1477C116.819 16.4091 116.954 16.6122 117.131 16.7571C117.31 16.8991 117.528 16.9702 117.787 16.9702ZM125.403 18.6236C124.715 18.6236 124.124 18.4829 123.63 18.2017C123.139 17.9176 122.759 17.5227 122.492 17.017C122.228 16.5085 122.096 15.919 122.096 15.2486C122.096 14.5753 122.228 13.9858 122.492 13.4801C122.759 12.9716 123.139 12.5767 123.63 12.2954C124.124 12.0113 124.715 11.8693 125.403 11.8693C126.09 11.8693 126.68 12.0113 127.171 12.2954C127.666 12.5767 128.045 12.9716 128.309 13.4801C128.576 13.9858 128.71 14.5753 128.71 15.2486C128.71 15.919 128.576 16.5085 128.309 17.017C128.045 17.5227 127.666 17.9176 127.171 18.2017C126.68 18.4829 126.09 18.6236 125.403 18.6236ZM125.416 17.0511C125.666 17.0511 125.877 16.9744 126.051 16.821C126.224 16.6676 126.356 16.4545 126.447 16.1818C126.541 15.9091 126.588 15.5937 126.588 15.2358C126.588 14.8721 126.541 14.554 126.447 14.2812C126.356 14.0085 126.224 13.7954 126.051 13.642C125.877 13.4886 125.666 13.4119 125.416 13.4119C125.157 13.4119 124.938 13.4886 124.759 13.642C124.583 13.7954 124.448 14.0085 124.355 14.2812C124.264 14.554 124.218 14.8721 124.218 15.2358C124.218 15.5937 124.264 15.9091 124.355 16.1818C124.448 16.4545 124.583 16.6676 124.759 16.821C124.938 16.9744 125.157 17.0511 125.416 17.0511ZM130.86 18.5L129.155 11.9545H131.247L132.129 16.1477H132.185L133.131 11.9545H135.172L136.144 16.1179H136.199L137.056 11.9545H139.148L137.439 18.5H135.21L134.188 14.6861H134.115L133.093 18.5H130.86ZM142.068 14.767V18.5H139.984V11.9545H141.966V13.1562H142.038C142.183 12.7557 142.43 12.4417 142.78 12.2145C143.129 11.9844 143.545 11.8693 144.028 11.8693C144.488 11.8693 144.888 11.973 145.226 12.1804C145.567 12.3849 145.831 12.6719 146.018 13.0412C146.209 13.4077 146.302 13.8366 146.3 14.3281V18.5H144.216V14.7372C144.219 14.3736 144.126 14.0895 143.939 13.8849C143.754 13.6804 143.497 13.5781 143.167 13.5781C142.949 13.5781 142.756 13.6264 142.588 13.723C142.423 13.8167 142.295 13.9517 142.204 14.1278C142.116 14.304 142.071 14.517 142.068 14.767Z" fill="white"/>
</g>
<rect x="1.24951" y="0.749985" width="151" height="26.5" rx="5.25" stroke="white" stroke-opacity="0.15" stroke-width="1.5"/>
<defs>
<filter id="filter0_d_40_490" x="2.49951" y="-1.52588e-05" width="28" height="28" filterUnits="userSpaceOnUse" color-interpolation-filters="sRGB">
<feFlood flood-opacity="0" result="BackgroundImageFix"/>
<feColorMatrix in="SourceAlpha" type="matrix" values="0 0 0 0 0 0 0 0 0 0 0 0 0 0 0 0 0 0 127 0" result="hardAlpha"/>
<feOffset/>
<feGaussianBlur stdDeviation="2"/>
<feComposite in2="hardAlpha" operator="out"/>
<feColorMatrix type="matrix" values="0 0 0 0 0 0 0 0 0 0 0 0 0 0 0 0 0 0 0.25 0"/>
<feBlend mode="normal" in2="BackgroundImageFix" result="effect1_dropShadow_40_490"/>
<feBlend mode="normal" in="SourceGraphic" in2="effect1_dropShadow_40_490" result="shape"/>
</filter>
<filter id="filter1_d_40_490" x="28.4995" y="3.49998" width="122.5" height="21" filterUnits="userSpaceOnUse" color-interpolation-filters="sRGB">
<feFlood flood-opacity="0" result="BackgroundImageFix"/>
<feColorMatrix in="SourceAlpha" type="matrix" values="0 0 0 0 0 0 0 0 0 0 0 0 0 0 0 0 0 0 127 0" result="hardAlpha"/>
<feOffset/>
<feGaussianBlur stdDeviation="2"/>
<feComposite in2="hardAlpha" operator="out"/>
<feColorMatrix type="matrix" values="0 0 0 0 0 0 0 0 0 0 0 0 0 0 0 0 0 0 0.25 0"/>
<feBlend mode="normal" in2="BackgroundImageFix" result="effect1_dropShadow_40_490"/>
<feBlend mode="normal" in="SourceGraphic" in2="effect1_dropShadow_40_490" result="shape"/>
</filter>
<linearGradient id="paint0_linear_40_490" x1="76.7495" y1="-1.52588e-05" x2="76.7495" y2="28" gradientUnits="userSpaceOnUse">
<stop stop-color="#323232"/>
<stop offset="1" stop-color="#1B1B1B"/>
</linearGradient>
</defs>
</svg>
