<svg width="238" height="41" viewBox="0 0 238 41" fill="none" xmlns="http://www.w3.org/2000/svg">
<rect x="0.000488281" y="0.0238037" width="237.001" height="40.0014" rx="8" fill="url(#paint0_linear_2_1087)"/>
<g filter="url(#filter0_d_2_1087)">
<path d="M10.5601 9.27204C11.1072 8.69819 11.7632 8.23917 12.4898 7.92185C13.2164 7.60453 13.9989 7.43526 14.7917 7.42395L28.0222 7.42395C29.4608 7.42395 30.8048 8.05398 32.0439 9.27204C32.6202 9.79781 33.0825 10.4363 33.4022 11.1479C33.7219 11.8595 33.8921 12.6292 33.9024 13.4092V26.8184C33.9024 28.2255 33.3144 29.5276 32.1384 30.7351C31.5866 31.3174 30.9247 31.7843 30.1911 32.1088C29.4575 32.4332 28.6667 32.6088 27.8647 32.6252H14.8652C13.2789 32.6097 11.751 32.0246 10.5601 30.9766C9.42602 29.9476 8.8065 28.4565 8.7015 26.4614V13.4407C8.6929 12.6531 8.85451 11.8728 9.17528 11.1533C9.49605 10.4338 9.96841 9.79212 10.5601 9.27204V9.27204ZM17.1228 17.9875L25.4496 28.551H27.6757C28.1902 28.488 28.5997 28.341 28.9042 28.0995C29.2193 27.858 29.4293 27.5115 29.5763 27.0494V21.8622C29.6603 20.8646 30.2798 20.2451 31.4348 20.0246C30.2798 19.6046 29.6603 18.9535 29.5763 18.0715V13.1152C29.4503 12.6532 29.2298 12.2752 28.9042 11.9917C28.5882 11.7046 28.1855 11.5309 27.7597 11.4982H25.5021V22.2087L17.1228 11.4877H14.7812C14.1932 11.5927 13.7627 11.8027 13.4687 12.1177C13.1747 12.4327 12.9857 12.9367 12.9017 13.6193V18.712C12.5341 19.4365 11.9566 19.8671 11.1691 20.0246C12.0616 20.1926 12.6391 20.6651 12.9017 21.4526V26.4614C12.9227 27.0389 13.1117 27.5115 13.4687 27.9C13.8152 28.278 14.2037 28.4565 14.6237 28.425H17.1018L17.1228 17.9875Z" fill="#3655FF"/>
</g>
<g filter="url(#filter1_d_2_1087)">
<path d="M45.3603 26.5245V14.1608H49.888C50.7653 14.1608 51.4918 14.3057 52.0673 14.5955C52.6428 14.8812 53.0734 15.2696 53.3592 15.7606C53.6449 16.2476 53.7878 16.797 53.7878 17.4087C53.7878 17.9239 53.6932 18.3585 53.5041 18.7127C53.3149 19.0628 53.0614 19.3445 52.7434 19.5579C52.4295 19.7671 52.0834 19.9201 51.7051 20.0167V20.1374C52.1156 20.1575 52.516 20.2903 52.9064 20.5358C53.3008 20.7773 53.6268 21.1214 53.8844 21.5682C54.142 22.0149 54.2708 22.5582 54.2708 23.1981C54.2708 23.83 54.1219 24.3975 53.824 24.9005C53.5302 25.3996 53.0755 25.796 52.4597 26.0898C51.8439 26.3796 51.0571 26.5245 50.0993 26.5245H45.3603ZM47.2257 24.9247H49.9181C50.8116 24.9247 51.4515 24.7516 51.8379 24.4055C52.2243 24.0594 52.4174 23.6267 52.4174 23.1076C52.4174 22.7172 52.3188 22.359 52.1216 22.033C51.9244 21.707 51.6427 21.4474 51.2765 21.2542C50.9142 21.061 50.4836 20.9645 49.9846 20.9645H47.2257V24.9247ZM47.2257 19.5096H49.725C50.1435 19.5096 50.5198 19.4291 50.8539 19.2681C51.1919 19.1071 51.4596 18.8817 51.6568 18.5919C51.858 18.2981 51.9586 17.952 51.9586 17.5536C51.9586 17.0425 51.7795 16.6138 51.4213 16.2677C51.0631 15.9216 50.5138 15.7485 49.7733 15.7485H47.2257V19.5096ZM62.2124 22.6789V17.2517H64.0234V26.5245H62.2486V24.9186H62.152C61.9387 25.4137 61.5966 25.8262 61.1257 26.1562C60.6588 26.4822 60.0773 26.6452 59.381 26.6452C58.7854 26.6452 58.2582 26.5144 57.7994 26.2528C57.3446 25.9872 56.9864 25.5948 56.7248 25.0756C56.4672 24.5564 56.3384 23.9145 56.3384 23.1498V17.2517H58.1435V22.9325C58.1435 23.5644 58.3185 24.0674 58.6687 24.4417C59.0188 24.816 59.4736 25.0032 60.033 25.0032C60.3711 25.0032 60.7071 24.9186 61.0412 24.7496C61.3793 24.5806 61.659 24.325 61.8803 23.9829C62.1057 23.6408 62.2164 23.2062 62.2124 22.6789ZM66.4488 26.5245V17.2517H68.2538V26.5245H66.4488ZM67.3603 15.821C67.0464 15.821 66.7768 15.7164 66.5514 15.5071C66.33 15.2938 66.2194 15.0402 66.2194 14.7464C66.2194 14.4486 66.33 14.195 66.5514 13.9858C66.7768 13.7725 67.0464 13.6658 67.3603 13.6658C67.6743 13.6658 67.9419 13.7725 68.1633 13.9858C68.3886 14.195 68.5013 14.4486 68.5013 14.7464C68.5013 15.0402 68.3886 15.2938 68.1633 15.5071C67.9419 15.7164 67.6743 15.821 67.3603 15.821ZM72.4872 14.1608V26.5245H70.6822V14.1608H72.4872ZM79.244 17.2517V18.7006H74.1791V17.2517H79.244ZM75.5374 15.0302H77.3424V23.8018C77.3424 24.152 77.3947 24.4156 77.4994 24.5927C77.604 24.7657 77.7388 24.8844 77.9038 24.9488C78.0729 25.0092 78.256 25.0394 78.4532 25.0394C78.5981 25.0394 78.7249 25.0293 78.8335 25.0092C78.9422 24.9891 79.0267 24.973 79.0871 24.9609L79.4131 26.452C79.3084 26.4923 79.1595 26.5325 78.9663 26.5728C78.7732 26.617 78.5317 26.6412 78.2419 26.6452C77.767 26.6533 77.3243 26.5687 76.9138 26.3917C76.5033 26.2146 76.1712 25.9409 75.9177 25.5706C75.6641 25.2004 75.5374 24.7355 75.5374 24.1761V15.0302ZM87.7501 26.5245L85.0214 17.2517H86.8868L88.7039 24.0614H88.7945L90.6176 17.2517H92.483L94.2941 24.0312H94.3847L96.1897 17.2517H98.0551L95.3325 26.5245H93.4912L91.6077 19.8295H91.4688L89.5853 26.5245H87.7501ZM99.7681 26.5245V17.2517H101.573V26.5245H99.7681ZM100.68 15.821C100.366 15.821 100.096 15.7164 99.8707 15.5071C99.6494 15.2938 99.5387 15.0402 99.5387 14.7464C99.5387 14.4486 99.6494 14.195 99.8707 13.9858C100.096 13.7725 100.366 13.6658 100.68 13.6658C100.994 13.6658 101.261 13.7725 101.483 13.9858C101.708 14.195 101.821 14.4486 101.821 14.7464C101.821 15.0402 101.708 15.2938 101.483 15.5071C101.261 15.7164 100.994 15.821 100.68 15.821ZM108.33 17.2517V18.7006H103.265V17.2517H108.33ZM104.623 15.0302H106.428V23.8018C106.428 24.152 106.481 24.4156 106.585 24.5927C106.69 24.7657 106.825 24.8844 106.99 24.9488C107.159 25.0092 107.342 25.0394 107.539 25.0394C107.684 25.0394 107.811 25.0293 107.919 25.0092C108.028 24.9891 108.113 24.973 108.173 24.9609L108.499 26.452C108.394 26.4923 108.245 26.5325 108.052 26.5728C107.859 26.617 107.618 26.6412 107.328 26.6452C106.853 26.6533 106.41 26.5687 106 26.3917C105.589 26.2146 105.257 25.9409 105.004 25.5706C104.75 25.2004 104.623 24.7355 104.623 24.1761V15.0302ZM112.331 21.0188V26.5245H110.526V14.1608H112.307V18.761H112.421C112.639 18.2619 112.971 17.8655 113.418 17.5717C113.864 17.2779 114.448 17.131 115.168 17.131C115.804 17.131 116.36 17.2618 116.834 17.5234C117.313 17.785 117.684 18.1754 117.945 18.6946C118.211 19.2097 118.344 19.8537 118.344 20.6264V26.5245H116.539V20.8437C116.539 20.1636 116.364 19.6363 116.013 19.262C115.663 18.8837 115.176 18.6946 114.553 18.6946C114.126 18.6946 113.744 18.7851 113.406 18.9662C113.071 19.1473 112.808 19.413 112.615 19.7631C112.426 20.1092 112.331 20.5278 112.331 21.0188Z" fill="#E8E8E8"/>
<path d="M135.46 14.1608V26.5245H132.925L128.004 19.3888H127.926V26.5245H124.938V14.1608H127.509L132.375 21.2844H132.478V14.1608H135.46ZM139.953 26.6814C139.361 26.6814 138.836 26.5828 138.377 26.3856C137.923 26.1844 137.562 25.8825 137.297 25.4801C137.035 25.0736 136.904 24.5645 136.904 23.9527C136.904 23.4376 136.995 23.0029 137.176 22.6488C137.357 22.2946 137.607 22.0068 137.925 21.7855C138.243 21.5641 138.609 21.3971 139.023 21.2844C139.438 21.1677 139.881 21.0892 140.351 21.049C140.879 21.0007 141.303 20.9504 141.625 20.8981C141.947 20.8417 142.181 20.7632 142.326 20.6626C142.474 20.558 142.549 20.4111 142.549 20.2219V20.1917C142.549 19.8818 142.442 19.6424 142.229 19.4733C142.016 19.3043 141.728 19.2198 141.366 19.2198C140.975 19.2198 140.661 19.3043 140.424 19.4733C140.186 19.6424 140.036 19.8758 139.971 20.1736L137.248 20.077C137.329 19.5136 137.536 19.0105 137.87 18.5678C138.208 18.1211 138.671 17.7709 139.259 17.5174C139.85 17.2598 140.561 17.131 141.39 17.131C141.981 17.131 142.527 17.2014 143.026 17.3423C143.525 17.4791 143.96 17.6804 144.33 17.946C144.7 18.2076 144.986 18.5296 145.187 18.9119C145.392 19.2942 145.495 19.7309 145.495 20.2219V26.5245H142.718V25.2326H142.646C142.48 25.5465 142.269 25.8121 142.012 26.0294C141.758 26.2468 141.458 26.4098 141.112 26.5184C140.77 26.6271 140.384 26.6814 139.953 26.6814ZM140.865 24.7496C141.183 24.7496 141.468 24.6852 141.722 24.5564C141.979 24.4276 142.185 24.2506 142.338 24.0252C142.491 23.7958 142.567 23.5302 142.567 23.2283V22.3469C142.483 22.3912 142.38 22.4314 142.259 22.4677C142.142 22.5039 142.014 22.5381 141.873 22.5703C141.732 22.6025 141.587 22.6307 141.438 22.6548C141.289 22.6789 141.146 22.7011 141.009 22.7212C140.732 22.7655 140.494 22.8339 140.297 22.9265C140.104 23.019 139.955 23.1398 139.85 23.2887C139.75 23.4336 139.699 23.6066 139.699 23.8079C139.699 24.1137 139.808 24.3472 140.025 24.5081C140.247 24.6691 140.527 24.7496 140.865 24.7496ZM152.534 17.2517V19.425H146.684V17.2517H152.534ZM147.91 15.0302H150.862V23.6086C150.862 23.7897 150.89 23.9366 150.946 24.0493C151.007 24.158 151.093 24.2365 151.206 24.2848C151.319 24.329 151.453 24.3512 151.61 24.3512C151.723 24.3512 151.842 24.3411 151.967 24.321C152.095 24.2968 152.192 24.2767 152.256 24.2606L152.703 26.3917C152.562 26.4319 152.363 26.4822 152.105 26.5426C151.852 26.603 151.548 26.6412 151.194 26.6573C150.502 26.6895 149.908 26.609 149.413 26.4158C148.922 26.2186 148.546 25.9127 148.284 25.4982C148.026 25.0837 147.902 24.5625 147.91 23.9346V15.0302ZM154.04 26.5245V17.2517H156.992V26.5245H154.04ZM155.519 16.1711C155.105 16.1711 154.749 16.0343 154.451 15.7606C154.153 15.4829 154.004 15.1489 154.004 14.7585C154.004 14.3721 154.153 14.0421 154.451 13.7684C154.749 13.4907 155.105 13.3519 155.519 13.3519C155.938 13.3519 156.294 13.4907 156.588 13.7684C156.886 14.0421 157.035 14.3721 157.035 14.7585C157.035 15.1489 156.886 15.4829 156.588 15.7606C156.294 16.0343 155.938 16.1711 155.519 16.1711ZM167.866 17.2517L164.685 26.5245H161.304L158.129 17.2517H161.238L162.946 23.6388H163.043L164.757 17.2517H167.866ZM173.034 26.6995C172.064 26.6995 171.227 26.5084 170.523 26.126C169.822 25.7397 169.283 25.1903 168.905 24.478C168.53 23.7616 168.343 22.9104 168.343 21.9243C168.343 20.9665 168.532 20.1293 168.911 19.413C169.289 18.6926 169.822 18.1331 170.51 17.7347C171.199 17.3322 172.01 17.131 172.943 17.131C173.603 17.131 174.207 17.2336 174.754 17.4389C175.302 17.6441 175.775 17.948 176.173 18.3505C176.572 18.7529 176.881 19.25 177.103 19.8416C177.324 20.4292 177.435 21.1033 177.435 21.864V22.6005H169.376V20.886H174.688C174.684 20.5721 174.61 20.2923 174.465 20.0468C174.32 19.8013 174.121 19.6102 173.867 19.4733C173.617 19.3325 173.33 19.262 173.004 19.262C172.674 19.262 172.378 19.3365 172.116 19.4854C171.855 19.6303 171.647 19.8295 171.494 20.0831C171.342 20.3326 171.261 20.6163 171.253 20.9343V22.6789C171.253 23.0573 171.327 23.3893 171.476 23.675C171.625 23.9568 171.837 24.1761 172.11 24.3331C172.384 24.49 172.71 24.5685 173.088 24.5685C173.35 24.5685 173.587 24.5323 173.801 24.4598C174.014 24.3874 174.197 24.2807 174.35 24.1399C174.503 23.999 174.618 23.826 174.694 23.6207L177.405 23.6992C177.292 24.3069 177.044 24.8361 176.662 25.2869C176.284 25.7336 175.787 26.0818 175.171 26.3313C174.555 26.5768 173.843 26.6995 173.034 26.6995ZM185.625 17.8675C185.585 17.4248 185.406 17.0807 185.088 16.8352C184.774 16.5857 184.325 16.4609 183.742 16.4609C183.356 16.4609 183.034 16.5112 182.776 16.6118C182.518 16.7124 182.325 16.8513 182.196 17.0284C182.068 17.2014 182.001 17.4007 181.997 17.626C181.989 17.8112 182.025 17.9742 182.106 18.115C182.19 18.2559 182.311 18.3807 182.468 18.4893C182.629 18.594 182.822 18.6865 183.048 18.767C183.273 18.8475 183.527 18.9179 183.808 18.9783L184.871 19.2198C185.483 19.3526 186.022 19.5297 186.489 19.751C186.96 19.9724 187.354 20.236 187.672 20.5419C187.994 20.8477 188.237 21.1999 188.402 21.5983C188.567 21.9968 188.652 22.4435 188.656 22.9385C188.652 23.7193 188.455 24.3894 188.064 24.9488C187.674 25.5083 187.113 25.9369 186.38 26.2347C185.652 26.5325 184.772 26.6814 183.742 26.6814C182.708 26.6814 181.806 26.5265 181.037 26.2166C180.269 25.9067 179.671 25.4358 179.244 24.8039C178.818 24.1721 178.598 23.3732 178.586 22.4073H181.448C181.472 22.8057 181.579 23.1378 181.768 23.4034C181.957 23.669 182.217 23.8702 182.547 24.0071C182.881 24.1439 183.267 24.2123 183.706 24.2123C184.108 24.2123 184.45 24.158 184.732 24.0493C185.018 23.9407 185.237 23.7897 185.39 23.5966C185.543 23.4034 185.621 23.182 185.625 22.9325C185.621 22.6991 185.549 22.4998 185.408 22.3348C185.267 22.1658 185.05 22.0209 184.756 21.9002C184.466 21.7754 184.096 21.6607 183.645 21.5561L182.353 21.2542C181.283 21.0087 180.44 20.6123 179.824 20.065C179.208 19.5136 178.902 18.769 178.906 17.8313C178.902 17.0666 179.108 16.3965 179.522 15.821C179.937 15.2455 180.51 14.7967 181.243 14.4748C181.975 14.1528 182.81 13.9918 183.748 13.9918C184.706 13.9918 185.537 14.1548 186.241 14.4808C186.95 14.8028 187.499 15.2555 187.889 15.8391C188.28 16.4227 188.479 17.0988 188.487 17.8675H185.625ZM194.494 26.6995C193.516 26.6995 192.677 26.4983 191.976 26.0958C191.28 25.6934 190.745 25.134 190.37 24.4176C189.996 23.6972 189.809 22.8641 189.809 21.9183C189.809 20.9685 189.996 20.1354 190.37 19.419C190.749 18.6986 191.286 18.1372 191.982 17.7347C192.683 17.3322 193.518 17.131 194.488 17.131C195.345 17.131 196.091 17.286 196.727 17.5959C197.367 17.9057 197.866 18.3444 198.224 18.9119C198.587 19.4753 198.778 20.1374 198.798 20.8981H196.039C195.983 20.4231 195.822 20.0509 195.556 19.7812C195.295 19.5116 194.952 19.3767 194.53 19.3767C194.188 19.3767 193.888 19.4733 193.63 19.6665C193.373 19.8557 193.172 20.1374 193.027 20.5117C192.886 20.882 192.815 21.3408 192.815 21.8881C192.815 22.4355 192.886 22.8983 193.027 23.2766C193.172 23.6509 193.373 23.9346 193.63 24.1278C193.888 24.317 194.188 24.4115 194.53 24.4115C194.804 24.4115 195.045 24.3532 195.254 24.2365C195.468 24.1198 195.643 23.9487 195.78 23.7233C195.916 23.4939 196.003 23.2162 196.039 22.8902H198.798C198.77 23.6549 198.579 24.323 198.224 24.8945C197.874 25.466 197.381 25.9107 196.745 26.2287C196.114 26.5426 195.363 26.6995 194.494 26.6995ZM200.309 26.5245V17.2517H203.176V18.9421H203.273C203.442 18.3303 203.718 17.8756 204.1 17.5777C204.482 17.2759 204.927 17.125 205.434 17.125C205.571 17.125 205.712 17.135 205.857 17.1552C206.002 17.1713 206.136 17.1974 206.261 17.2336V19.7993C206.12 19.751 205.935 19.7128 205.706 19.6846C205.48 19.6565 205.279 19.6424 205.102 19.6424C204.752 19.6424 204.436 19.7208 204.154 19.8778C203.877 20.0307 203.657 20.2461 203.496 20.5238C203.339 20.7974 203.261 21.1194 203.261 21.4897V26.5245H200.309ZM207.464 26.5245V17.2517H210.416V26.5245H207.464ZM208.943 16.1711C208.529 16.1711 208.172 16.0343 207.875 15.7606C207.577 15.4829 207.428 15.1489 207.428 14.7585C207.428 14.3721 207.577 14.0421 207.875 13.7684C208.172 13.4907 208.529 13.3519 208.943 13.3519C209.362 13.3519 209.718 13.4907 210.012 13.7684C210.309 14.0421 210.458 14.3721 210.458 14.7585C210.458 15.1489 210.309 15.4829 210.012 15.7606C209.718 16.0343 209.362 16.1711 208.943 16.1711ZM212.295 30.0017V17.2517H215.217V18.8395H215.308C215.428 18.5577 215.599 18.2861 215.821 18.0245C216.046 17.7629 216.332 17.5496 216.678 17.3846C217.028 17.2155 217.447 17.131 217.934 17.131C218.578 17.131 219.179 17.3 219.739 17.6381C220.302 17.9762 220.757 18.4974 221.103 19.2017C221.449 19.906 221.622 20.8035 221.622 21.8941C221.622 22.9446 221.455 23.824 221.121 24.5323C220.791 25.2406 220.344 25.7719 219.781 26.126C219.221 26.4802 218.6 26.6573 217.915 26.6573C217.449 26.6573 217.044 26.5808 216.702 26.4279C216.36 26.2749 216.072 26.0737 215.839 25.8242C215.609 25.5747 215.432 25.307 215.308 25.0213H215.247V30.0017H212.295ZM215.187 21.8881C215.187 22.3872 215.253 22.8218 215.386 23.1921C215.523 23.5623 215.718 23.8501 215.972 24.0554C216.229 24.2566 216.537 24.3572 216.895 24.3572C217.257 24.3572 217.565 24.2566 217.819 24.0554C218.072 23.8501 218.264 23.5623 218.392 23.1921C218.525 22.8218 218.592 22.3872 218.592 21.8881C218.592 21.3891 218.525 20.9564 218.392 20.5902C218.264 20.2239 218.072 19.9402 217.819 19.739C217.569 19.5377 217.261 19.4371 216.895 19.4371C216.533 19.4371 216.225 19.5357 215.972 19.7329C215.718 19.9301 215.523 20.2119 215.386 20.5781C215.253 20.9443 215.187 21.381 215.187 21.8881ZM228.403 17.2517V19.425H222.553V17.2517H228.403ZM223.779 15.0302H226.731V23.6086C226.731 23.7897 226.759 23.9366 226.815 24.0493C226.876 24.158 226.962 24.2365 227.075 24.2848C227.188 24.329 227.323 24.3512 227.479 24.3512C227.592 24.3512 227.711 24.3411 227.836 24.321C227.964 24.2968 228.061 24.2767 228.125 24.2606L228.572 26.3917C228.431 26.4319 228.232 26.4822 227.974 26.5426C227.721 26.603 227.417 26.6412 227.063 26.6573C226.371 26.6895 225.777 26.609 225.282 26.4158C224.791 26.2186 224.415 25.9127 224.153 25.4982C223.896 25.0837 223.771 24.5625 223.779 23.9346V15.0302Z" fill="#3655FF"/>
</g>
<rect x="1.07192" y="1.09523" width="234.858" height="37.8585" rx="6.92857" stroke="white" stroke-opacity="0.15" stroke-width="2.14286"/>
<defs>
<filter id="filter0_d_2_1087" x="2.40021" y="0.423523" width="39.202" height="39.202" filterUnits="userSpaceOnUse" color-interpolation-filters="sRGB">
<feFlood flood-opacity="0" result="BackgroundImageFix"/>
<feColorMatrix in="SourceAlpha" type="matrix" values="0 0 0 0 0 0 0 0 0 0 0 0 0 0 0 0 0 0 127 0" result="hardAlpha"/>
<feOffset/>
<feGaussianBlur stdDeviation="2.80014"/>
<feComposite in2="hardAlpha" operator="out"/>
<feColorMatrix type="matrix" values="0 0 0 0 0 0 0 0 0 0 0 0 0 0 0 0 0 0 0.25 0"/>
<feBlend mode="normal" in2="BackgroundImageFix" result="effect1_dropShadow_2_1087"/>
<feBlend mode="normal" in="SourceGraphic" in2="effect1_dropShadow_2_1087" result="shape"/>
</filter>
<filter id="filter1_d_2_1087" x="38.2877" y="3.81019" width="196.429" height="32.4286" filterUnits="userSpaceOnUse" color-interpolation-filters="sRGB">
<feFlood flood-opacity="0" result="BackgroundImageFix"/>
<feColorMatrix in="SourceAlpha" type="matrix" values="0 0 0 0 0 0 0 0 0 0 0 0 0 0 0 0 0 0 127 0" result="hardAlpha"/>
<feOffset/>
<feGaussianBlur stdDeviation="2.85714"/>
<feComposite in2="hardAlpha" operator="out"/>
<feColorMatrix type="matrix" values="0 0 0 0 0 0 0 0 0 0 0 0 0 0 0 0 0 0 0.25 0"/>
<feBlend mode="normal" in2="BackgroundImageFix" result="effect1_dropShadow_2_1087"/>
<feBlend mode="normal" in="SourceGraphic" in2="effect1_dropShadow_2_1087" result="shape"/>
</filter>
<linearGradient id="paint0_linear_2_1087" x1="118.501" y1="0.0238037" x2="118.501" y2="40.0252" gradientUnits="userSpaceOnUse">
<stop stop-color="#0D1439"/>
<stop offset="1" stop-color="#060B24"/>
</linearGradient>
</defs>
</svg>
