<svg width="190" height="41" viewBox="0 0 190 41" fill="none" xmlns="http://www.w3.org/2000/svg">
<g clip-path="url(#clip0_2_1152)">
<rect x="0.000488281" y="0.0334473" width="189.001" height="40.0014" rx="8" fill="url(#paint0_linear_2_1152)"/>
<g filter="url(#filter0_d_2_1152)">
<path d="M20.8031 6.03357C20.5974 6.03357 20.4416 6.03509 20.3849 6.04139C20.3247 6.04757 20.133 6.06589 19.9607 6.07965C15.9835 6.43819 12.2583 8.5838 9.89877 11.8815C8.58491 13.7153 7.74463 15.7951 7.42728 17.9983C7.31504 18.7672 7.30127 18.9944 7.30127 20.0371C7.30127 21.0798 7.31527 21.3069 7.42728 22.076C8.18799 27.3333 11.9298 31.7504 17.0047 33.3868C17.9134 33.6798 18.8714 33.8796 19.9608 34C20.385 34.0466 22.2189 34.0466 22.6431 34C24.5236 33.7919 26.1167 33.3268 27.6877 32.5249C27.9287 32.4017 27.9752 32.3689 27.9424 32.3413C27.9205 32.3251 26.8939 30.9485 25.6623 29.2845L23.4233 26.2604L20.6177 22.1088C19.074 19.8262 17.8039 17.9599 17.7929 17.9599C17.7819 17.9569 17.7711 19.8019 17.7655 22.054C17.7577 25.9977 17.7546 26.1564 17.7053 26.2495C17.6341 26.3837 17.5793 26.4383 17.4645 26.4985C17.377 26.5421 17.3002 26.5504 16.8869 26.5504H16.4132L16.2875 26.4711C16.2095 26.4222 16.1461 26.3532 16.104 26.2713L16.0465 26.1481L16.0527 20.661L16.0605 15.1711L16.1452 15.0644C16.1891 15.0068 16.2822 14.9331 16.3478 14.8975C16.46 14.8427 16.5039 14.8372 16.9773 14.8372C17.5359 14.8372 17.6289 14.859 17.7739 15.0177C17.8151 15.0617 19.3342 17.3496 21.1516 20.1056C22.9917 22.895 24.833 25.6837 26.6754 28.4717L28.8924 31.8297L29.0044 31.7559C29.9982 31.11 31.0491 30.1904 31.8812 29.2326C33.6522 27.1991 34.7937 24.7197 35.1769 22.0759C35.289 21.3069 35.3027 21.0795 35.3027 20.0371C35.3027 18.9944 35.2887 18.7672 35.1769 17.9981C34.4159 12.7408 30.6742 8.32373 25.5995 6.68729C24.7044 6.39712 23.7519 6.19726 22.6844 6.07685C22.4873 6.05632 21.4203 6.03415 20.8033 6.03369L20.8031 6.03357ZM25.5499 14.4538C25.9551 14.4538 26.0262 14.46 26.1166 14.5087C26.2481 14.5742 26.3546 14.7002 26.3931 14.8315C26.4148 14.9027 26.4204 16.4244 26.4148 19.8535L26.407 24.7742L25.5394 23.4441L24.6689 22.1141V18.5369C24.6689 16.2244 24.6798 14.9244 24.6962 14.8615C24.74 14.7083 24.8358 14.5878 24.9673 14.5167C25.0794 14.4591 25.1205 14.4537 25.5503 14.4537L25.5499 14.4538Z" fill="white"/>
</g>
<g filter="url(#filter1_d_2_1152)">
<path d="M43.3603 26.5342V14.1705H47.888C48.7653 14.1705 49.4918 14.3154 50.0673 14.6052C50.6428 14.8909 51.0734 15.2793 51.3592 15.7703C51.6449 16.2573 51.7878 16.8067 51.7878 17.4184C51.7878 17.9336 51.6932 18.3682 51.5041 18.7224C51.3149 19.0725 51.0614 19.3543 50.7434 19.5676C50.4295 19.7768 50.0834 19.9298 49.7051 20.0264V20.1471C50.1156 20.1672 50.516 20.3 50.9064 20.5455C51.3008 20.787 51.6268 21.1311 51.8844 21.5779C52.142 22.0246 52.2708 22.5679 52.2708 23.2078C52.2708 23.8397 52.1219 24.4072 51.824 24.9102C51.5302 25.4093 51.0755 25.8057 50.4597 26.0995C49.8439 26.3893 49.0571 26.5342 48.0993 26.5342H43.3603ZM45.2257 24.9344H47.9181C48.8116 24.9344 49.4515 24.7613 49.8379 24.4152C50.2243 24.0691 50.4174 23.6364 50.4174 23.1173C50.4174 22.7269 50.3188 22.3687 50.1216 22.0427C49.9244 21.7167 49.6427 21.4571 49.2765 21.2639C48.9142 21.0708 48.4836 20.9742 47.9846 20.9742H45.2257V24.9344ZM45.2257 19.5193H47.725C48.1435 19.5193 48.5198 19.4388 48.8539 19.2778C49.1919 19.1168 49.4596 18.8914 49.6568 18.6016C49.858 18.3079 49.9586 17.9617 49.9586 17.5633C49.9586 17.0522 49.7795 16.6235 49.4213 16.2774C49.0631 15.9313 48.5138 15.7583 47.7733 15.7583H45.2257V19.5193ZM60.2124 22.6887V17.2614H62.0234V26.5342H60.2486V24.9284H60.152C59.9387 25.4234 59.5966 25.8359 59.1257 26.1659C58.6588 26.4919 58.0773 26.6549 57.381 26.6549C56.7854 26.6549 56.2582 26.5241 55.7994 26.2625C55.3446 25.9969 54.9864 25.6045 54.7248 25.0853C54.4672 24.5661 54.3384 23.9242 54.3384 23.1595V17.2614H56.1435V22.9422C56.1435 23.5741 56.3185 24.0771 56.6687 24.4514C57.0188 24.8257 57.4736 25.0129 58.033 25.0129C58.3711 25.0129 58.7071 24.9284 59.0412 24.7593C59.3793 24.5903 59.659 24.3347 59.8803 23.9926C60.1057 23.6505 60.2164 23.2159 60.2124 22.6887ZM64.4488 26.5342V17.2614H66.2538V26.5342H64.4488ZM65.3603 15.8307C65.0464 15.8307 64.7768 15.7261 64.5514 15.5168C64.33 15.3035 64.2194 15.0499 64.2194 14.7561C64.2194 14.4583 64.33 14.2048 64.5514 13.9955C64.7768 13.7822 65.0464 13.6755 65.3603 13.6755C65.6743 13.6755 65.9419 13.7822 66.1633 13.9955C66.3886 14.2048 66.5013 14.4583 66.5013 14.7561C66.5013 15.0499 66.3886 15.3035 66.1633 15.5168C65.9419 15.7261 65.6743 15.8307 65.3603 15.8307ZM70.4872 14.1705V26.5342H68.6822V14.1705H70.4872ZM77.244 17.2614V18.7103H72.1791V17.2614H77.244ZM73.5374 15.0399H75.3424V23.8115C75.3424 24.1617 75.3947 24.4253 75.4994 24.6024C75.604 24.7754 75.7388 24.8941 75.9038 24.9585C76.0729 25.0189 76.256 25.0491 76.4532 25.0491C76.5981 25.0491 76.7249 25.039 76.8335 25.0189C76.9422 24.9988 77.0267 24.9827 77.0871 24.9706L77.4131 26.4617C77.3084 26.502 77.1595 26.5422 76.9663 26.5825C76.7732 26.6267 76.5317 26.6509 76.2419 26.6549C75.767 26.663 75.3243 26.5784 74.9138 26.4014C74.5033 26.2243 74.1712 25.9506 73.9177 25.5803C73.6641 25.2101 73.5374 24.7452 73.5374 24.1858V15.0399ZM85.7501 26.5342L83.0214 17.2614H84.8868L86.7039 24.0711H86.7945L88.6176 17.2614H90.483L92.2941 24.0409H92.3847L94.1897 17.2614H96.0551L93.3325 26.5342H91.4912L89.6077 19.8392H89.4688L87.5853 26.5342H85.7501ZM97.7681 26.5342V17.2614H99.5731V26.5342H97.7681ZM98.6797 15.8307C98.3658 15.8307 98.0961 15.7261 97.8707 15.5168C97.6494 15.3035 97.5387 15.0499 97.5387 14.7561C97.5387 14.4583 97.6494 14.2048 97.8707 13.9955C98.0961 13.7822 98.3658 13.6755 98.6797 13.6755C98.9936 13.6755 99.2612 13.7822 99.4826 13.9955C99.708 14.2048 99.8207 14.4583 99.8207 14.7561C99.8207 15.0499 99.708 15.3035 99.4826 15.5168C99.2612 15.7261 98.9936 15.8307 98.6797 15.8307ZM106.33 17.2614V18.7103H101.265V17.2614H106.33ZM102.623 15.0399H104.428V23.8115C104.428 24.1617 104.481 24.4253 104.585 24.6024C104.69 24.7754 104.825 24.8941 104.99 24.9585C105.159 25.0189 105.342 25.0491 105.539 25.0491C105.684 25.0491 105.811 25.039 105.919 25.0189C106.028 24.9988 106.113 24.9827 106.173 24.9706L106.499 26.4617C106.394 26.502 106.245 26.5422 106.052 26.5825C105.859 26.6267 105.618 26.6509 105.328 26.6549C104.853 26.663 104.41 26.5784 104 26.4014C103.589 26.2243 103.257 25.9506 103.004 25.5803C102.75 25.2101 102.623 24.7452 102.623 24.1858V15.0399ZM110.331 21.0285V26.5342H108.526V14.1705H110.307V18.7707H110.421C110.639 18.2716 110.971 17.8752 111.418 17.5814C111.864 17.2876 112.448 17.1407 113.168 17.1407C113.804 17.1407 114.36 17.2715 114.834 17.5331C115.313 17.7947 115.684 18.1851 115.945 18.7043C116.211 19.2194 116.344 19.8634 116.344 20.6361V26.5342H114.539V20.8534C114.539 20.1733 114.364 19.646 114.013 19.2717C113.663 18.8934 113.176 18.7043 112.553 18.7043C112.126 18.7043 111.744 18.7948 111.406 18.9759C111.071 19.157 110.808 19.4227 110.615 19.7728C110.426 20.1189 110.331 20.5375 110.331 21.0285Z" fill="#E8E8E8"/>
<path d="M133.46 14.1705V26.5342H130.925L126.004 19.3985H125.926V26.5342H122.938V14.1705H125.509L130.375 21.2941H130.478V14.1705H133.46ZM139.674 26.7092C138.704 26.7092 137.867 26.5181 137.162 26.1357C136.462 25.7494 135.923 25.2 135.544 24.4877C135.17 23.7713 134.983 22.9201 134.983 21.934C134.983 20.9762 135.172 20.1391 135.55 19.4227C135.929 18.7023 136.462 18.1428 137.15 17.7444C137.838 17.3419 138.649 17.1407 139.583 17.1407C140.243 17.1407 140.847 17.2433 141.394 17.4486C141.941 17.6539 142.414 17.9577 142.813 18.3602C143.211 18.7626 143.521 19.2597 143.742 19.8513C143.964 20.4389 144.074 21.113 144.074 21.8737V22.6102H136.015V20.8957H141.328C141.324 20.5818 141.249 20.3021 141.104 20.0565C140.959 19.811 140.76 19.6199 140.507 19.483C140.257 19.3422 139.969 19.2717 139.643 19.2717C139.313 19.2717 139.018 19.3462 138.756 19.4951C138.494 19.64 138.287 19.8392 138.134 20.0928C137.981 20.3423 137.901 20.626 137.893 20.944V22.6887C137.893 23.067 137.967 23.399 138.116 23.6847C138.265 23.9665 138.476 24.1858 138.75 24.3428C139.024 24.4997 139.35 24.5782 139.728 24.5782C139.989 24.5782 140.227 24.542 140.44 24.4695C140.654 24.3971 140.837 24.2904 140.99 24.1496C141.143 24.0087 141.257 23.8357 141.334 23.6304L144.044 23.7089C143.932 24.3166 143.684 24.8458 143.302 25.2966C142.923 25.7433 142.426 26.0915 141.811 26.341C141.195 26.5865 140.483 26.7092 139.674 26.7092ZM147.961 17.2614L149.488 20.3161L151.07 17.2614H154.046L151.456 21.8978L154.143 26.5342H151.191L149.488 23.4553L147.828 26.5342H144.834L147.526 21.8978L144.966 17.2614H147.961ZM160.628 17.2614V19.4347H154.778V17.2614H160.628ZM156.003 15.0399H158.956V23.6183C158.956 23.7994 158.984 23.9463 159.04 24.059C159.1 24.1677 159.187 24.2462 159.3 24.2945C159.412 24.3387 159.547 24.3609 159.704 24.3609C159.817 24.3609 159.936 24.3508 160.06 24.3307C160.189 24.3065 160.286 24.2864 160.35 24.2703L160.797 26.4014C160.656 26.4416 160.457 26.4919 160.199 26.5523C159.946 26.6127 159.642 26.6509 159.288 26.667C158.595 26.6992 158.002 26.6187 157.507 26.4255C157.016 26.2283 156.639 25.9224 156.378 25.5079C156.12 25.0934 155.995 24.5722 156.003 23.9443V15.0399ZM163.794 26.7092C163.359 26.7092 162.987 26.5563 162.677 26.2504C162.371 25.9446 162.22 25.5743 162.225 25.1396C162.22 24.713 162.371 24.3488 162.677 24.047C162.987 23.7411 163.359 23.5882 163.794 23.5882C164.205 23.5882 164.567 23.7411 164.881 24.047C165.199 24.3488 165.36 24.713 165.364 25.1396C165.36 25.4294 165.283 25.693 165.134 25.9305C164.989 26.1679 164.798 26.3571 164.561 26.498C164.327 26.6388 164.072 26.7092 163.794 26.7092ZM167.314 17.2614H170.266V26.9205C170.266 27.6852 170.109 28.2929 169.795 28.7437C169.485 29.1944 169.046 29.5184 168.479 29.7156C167.911 29.9128 167.241 30.0114 166.468 30.0114C166.364 30.0114 166.265 30.0094 166.173 30.0054C166.08 30.0014 165.979 29.9974 165.871 29.9933V27.7536C165.943 27.7617 166.008 27.7677 166.064 27.7717C166.12 27.7758 166.177 27.7778 166.233 27.7778C166.64 27.7778 166.921 27.7013 167.078 27.5484C167.235 27.3995 167.314 27.1701 167.314 26.8602V17.2614ZM168.787 16.1808C168.372 16.1808 168.016 16.044 167.718 15.7703C167.42 15.4926 167.271 15.1586 167.271 14.7682C167.271 14.3818 167.42 14.0518 167.718 13.7781C168.016 13.5004 168.372 13.3616 168.787 13.3616C169.205 13.3616 169.561 13.5004 169.855 13.7781C170.153 14.0518 170.302 14.3818 170.302 14.7682C170.302 15.1586 170.153 15.4926 169.855 15.7703C169.561 16.044 169.205 16.1808 168.787 16.1808ZM180.24 20.0928L177.53 20.1652C177.501 19.972 177.425 19.801 177.3 19.6521C177.175 19.4991 177.012 19.3804 176.811 19.2959C176.614 19.2074 176.385 19.1631 176.123 19.1631C175.781 19.1631 175.489 19.2315 175.248 19.3683C175.01 19.5052 174.894 19.6903 174.898 19.9237C174.894 20.1048 174.966 20.2618 175.115 20.3946C175.268 20.5274 175.539 20.6341 175.93 20.7146L177.717 21.0526C178.642 21.2297 179.331 21.5235 179.781 21.934C180.236 22.3445 180.466 22.8879 180.47 23.564C180.466 24.1999 180.276 24.7533 179.902 25.2242C179.532 25.695 179.025 26.0613 178.381 26.3229C177.737 26.5805 177 26.7092 176.171 26.7092C174.847 26.7092 173.803 26.4376 173.038 25.8943C172.278 25.3469 171.843 24.6144 171.734 23.6968L174.65 23.6244C174.714 23.9624 174.881 24.22 175.151 24.3971C175.421 24.5742 175.765 24.6627 176.183 24.6627C176.562 24.6627 176.87 24.5923 177.107 24.4514C177.345 24.3106 177.465 24.1234 177.469 23.89C177.465 23.6807 177.373 23.5137 177.192 23.3889C177.01 23.2601 176.727 23.1595 176.34 23.0871L174.722 22.7792C173.793 22.6102 173.101 22.2983 172.646 21.8435C172.191 21.3847 171.966 20.8011 171.97 20.0928C171.966 19.473 172.131 18.9437 172.465 18.5051C172.799 18.0623 173.274 17.7243 173.889 17.4909C174.505 17.2574 175.232 17.1407 176.069 17.1407C177.324 17.1407 178.314 17.4043 179.039 17.9315C179.763 18.4547 180.164 19.1752 180.24 20.0928Z" fill="white"/>
</g>
</g>
<rect x="1.07192" y="1.10488" width="186.858" height="37.8585" rx="6.92857" stroke="white" stroke-opacity="0.15" stroke-width="2.14286"/>
<defs>
<filter id="filter0_d_2_1152" x="1.70099" y="0.433167" width="39.9012" height="39.202" filterUnits="userSpaceOnUse" color-interpolation-filters="sRGB">
<feFlood flood-opacity="0" result="BackgroundImageFix"/>
<feColorMatrix in="SourceAlpha" type="matrix" values="0 0 0 0 0 0 0 0 0 0 0 0 0 0 0 0 0 0 127 0" result="hardAlpha"/>
<feOffset/>
<feGaussianBlur stdDeviation="2.80014"/>
<feComposite in2="hardAlpha" operator="out"/>
<feColorMatrix type="matrix" values="0 0 0 0 0 0 0 0 0 0 0 0 0 0 0 0 0 0 0.25 0"/>
<feBlend mode="normal" in2="BackgroundImageFix" result="effect1_dropShadow_2_1152"/>
<feBlend mode="normal" in="SourceGraphic" in2="effect1_dropShadow_2_1152" result="shape"/>
</filter>
<filter id="filter1_d_2_1152" x="36.2877" y="3.81989" width="150.429" height="32.4286" filterUnits="userSpaceOnUse" color-interpolation-filters="sRGB">
<feFlood flood-opacity="0" result="BackgroundImageFix"/>
<feColorMatrix in="SourceAlpha" type="matrix" values="0 0 0 0 0 0 0 0 0 0 0 0 0 0 0 0 0 0 127 0" result="hardAlpha"/>
<feOffset/>
<feGaussianBlur stdDeviation="2.85714"/>
<feComposite in2="hardAlpha" operator="out"/>
<feColorMatrix type="matrix" values="0 0 0 0 0 0 0 0 0 0 0 0 0 0 0 0 0 0 0.25 0"/>
<feBlend mode="normal" in2="BackgroundImageFix" result="effect1_dropShadow_2_1152"/>
<feBlend mode="normal" in="SourceGraphic" in2="effect1_dropShadow_2_1152" result="shape"/>
</filter>
<linearGradient id="paint0_linear_2_1152" x1="94.5012" y1="0.0334473" x2="94.5012" y2="40.0348" gradientUnits="userSpaceOnUse">
<stop stop-color="#1E1E1E"/>
<stop offset="1" stop-color="#0D0D0D"/>
</linearGradient>
<clipPath id="clip0_2_1152">
<rect x="0.000488281" y="0.0334473" width="189.001" height="40.0014" rx="8" fill="white"/>
</clipPath>
</defs>
</svg>
