<svg width="118" height="28" viewBox="0 0 118 28" fill="none" xmlns="http://www.w3.org/2000/svg">
<g clip-path="url(#clip0_2_1161)">
<rect x="0.499512" y="-6.10352e-05" width="117.5" height="28" rx="6" fill="url(#paint0_linear_2_1161)"/>
<g filter="url(#filter0_d_2_1161)">
<path d="M15.6437 4C15.4967 4 15.3855 4.00108 15.345 4.00558C15.302 4.01 15.1651 4.02308 15.042 4.03292C12.2013 4.289 9.54053 5.8215 7.85527 8.17692C6.91684 9.48667 6.31667 10.9722 6.09 12.5458C6.00983 13.095 6 13.2572 6 14.002C6 14.7467 6.01 14.909 6.09 15.4583C6.63334 19.2133 9.30594 22.3682 12.9306 23.5371C13.5797 23.7463 14.264 23.889 15.0421 23.975C15.3451 24.0083 16.6549 24.0083 16.9579 23.975C18.301 23.8264 19.4389 23.4942 20.561 22.9214C20.7331 22.8334 20.7664 22.81 20.743 22.7903C20.7273 22.7787 19.994 21.7955 19.1144 20.607L17.5152 18.447L15.5112 15.4817C14.4087 13.8514 13.5015 12.5184 13.4936 12.5184C13.4858 12.5162 13.4781 13.834 13.4741 15.4426C13.4685 18.2594 13.4663 18.3727 13.4311 18.4392C13.3802 18.5351 13.3411 18.5741 13.2591 18.6171C13.1966 18.6482 13.1417 18.6542 12.8466 18.6542H12.5082L12.4184 18.5975C12.3627 18.5626 12.3174 18.5133 12.2874 18.4548L12.2463 18.3668L12.2507 14.4477L12.2563 10.5265L12.3168 10.4502C12.3481 10.4092 12.4146 10.3565 12.4615 10.3311C12.5416 10.2919 12.573 10.288 12.9111 10.288C13.3101 10.288 13.3765 10.3036 13.4801 10.4169C13.5095 10.4483 14.5945 12.0825 15.8926 14.0509C17.2069 16.0433 18.522 18.0351 19.8379 20.0264L21.4215 22.4249L21.5015 22.3722C22.2113 21.9108 22.9619 21.254 23.5562 20.5699C24.8212 19.1175 25.6365 17.3466 25.9102 15.4582C25.9902 14.909 26 14.7466 26 14.002C26 13.2572 25.99 13.095 25.9102 12.5457C25.3667 8.79067 22.6941 5.63575 19.0695 4.46692C18.4302 4.25967 17.7498 4.11692 16.9874 4.03092C16.8466 4.01625 16.0845 4.00042 15.6438 4.00008L15.6437 4ZM19.0341 10.0142C19.3235 10.0142 19.3743 10.0186 19.4389 10.0533C19.5328 10.1002 19.6089 10.1902 19.6364 10.2839C19.6519 10.3347 19.6559 11.4217 19.6519 13.8709L19.6463 17.3855L19.0266 16.4355L18.4049 15.4855V12.9305C18.4049 11.2788 18.4126 10.3502 18.4244 10.3053C18.4556 10.1959 18.524 10.1098 18.6179 10.0591C18.698 10.0179 18.7274 10.0141 19.0344 10.0141L19.0341 10.0142Z" fill="white"/>
</g>
<g filter="url(#filter1_d_2_1161)">
<path d="M33.3784 18.4999V10.4999H36.3081C36.8758 10.4999 37.3459 10.5937 37.7183 10.7812C38.0907 10.9661 38.3693 11.2174 38.5542 11.5351C38.7391 11.8502 38.8315 12.2057 38.8315 12.6015C38.8315 12.9348 38.7703 13.2161 38.6479 13.4452C38.5256 13.6718 38.3615 13.8541 38.1558 13.9921C37.9526 14.1275 37.7287 14.2265 37.4839 14.289V14.3671C37.7495 14.3801 38.0086 14.4661 38.2612 14.6249C38.5164 14.7812 38.7274 15.0038 38.894 15.2929C39.0607 15.582 39.144 15.9335 39.144 16.3476C39.144 16.7564 39.0477 17.1236 38.855 17.4492C38.6649 17.7721 38.3706 18.0286 37.9722 18.2187C37.5737 18.4062 37.0646 18.4999 36.4448 18.4999H33.3784ZM34.5854 17.4648H36.3276C36.9058 17.4648 37.3198 17.3528 37.5698 17.1288C37.8198 16.9049 37.9448 16.6249 37.9448 16.289C37.9448 16.0364 37.881 15.8046 37.7534 15.5937C37.6258 15.3827 37.4435 15.2148 37.2065 15.0898C36.9722 14.9648 36.6935 14.9023 36.3706 14.9023H34.5854V17.4648ZM34.5854 13.9609H36.2026C36.4735 13.9609 36.717 13.9088 36.9331 13.8046C37.1519 13.7005 37.325 13.5546 37.4526 13.3671C37.5828 13.177 37.6479 12.9531 37.6479 12.6952C37.6479 12.3645 37.5321 12.0872 37.3003 11.8632C37.0685 11.6393 36.7131 11.5273 36.2339 11.5273H34.5854V13.9609ZM44.2827 16.0117V12.4999H45.4546V18.4999H44.3061V17.4609H44.2436C44.1056 17.7812 43.8843 18.0481 43.5796 18.2617C43.2775 18.4726 42.9012 18.5781 42.4507 18.5781C42.0653 18.5781 41.7241 18.4934 41.4272 18.3242C41.133 18.1523 40.9012 17.8984 40.7319 17.5624C40.5653 17.2265 40.4819 16.8111 40.4819 16.3163V12.4999H41.6499V16.1757C41.6499 16.5846 41.7632 16.9101 41.9897 17.1523C42.2163 17.3945 42.5106 17.5156 42.8726 17.5156C43.0913 17.5156 43.3088 17.4609 43.5249 17.3515C43.7436 17.2421 43.9246 17.0768 44.0679 16.8554C44.2137 16.6341 44.2853 16.3528 44.2827 16.0117ZM47.0239 18.4999V12.4999H48.1919V18.4999H47.0239ZM47.6138 11.5742C47.4106 11.5742 47.2362 11.5064 47.0903 11.371C46.9471 11.233 46.8755 11.0689 46.8755 10.8788C46.8755 10.6861 46.9471 10.5221 47.0903 10.3867C47.2362 10.2486 47.4106 10.1796 47.6138 10.1796C47.8169 10.1796 47.9901 10.2486 48.1333 10.3867C48.2791 10.5221 48.352 10.6861 48.352 10.8788C48.352 11.0689 48.2791 11.233 48.1333 11.371C47.9901 11.5064 47.8169 11.5742 47.6138 11.5742ZM50.9311 10.4999V18.4999H49.7632V10.4999H50.9311ZM55.3032 12.4999V13.4374H52.0259V12.4999H55.3032ZM52.9048 11.0624H54.0727V16.7382C54.0727 16.9648 54.1066 17.1354 54.1743 17.2499C54.242 17.3619 54.3293 17.4387 54.436 17.4804C54.5454 17.5195 54.6639 17.539 54.7915 17.539C54.8852 17.539 54.9673 17.5325 55.0376 17.5195C55.1079 17.5064 55.1626 17.496 55.2017 17.4882L55.4126 18.4531C55.3449 18.4791 55.2485 18.5051 55.1235 18.5312C54.9985 18.5598 54.8423 18.5755 54.6548 18.5781C54.3475 18.5833 54.061 18.5286 53.7954 18.414C53.5298 18.2994 53.3149 18.1223 53.1509 17.8827C52.9868 17.6432 52.9048 17.3424 52.9048 16.9804V11.0624ZM60.8071 18.4999L59.0415 12.4999H60.2485L61.4243 16.9062H61.4829L62.6626 12.4999H63.8696L65.0415 16.8867H65.1001L66.2681 12.4999H67.4751L65.7134 18.4999H64.522L63.3032 14.1679H63.2134L61.9946 18.4999H60.8071ZM68.5835 18.4999V12.4999H69.7515V18.4999H68.5835ZM69.1733 11.5742C68.9702 11.5742 68.7957 11.5064 68.6499 11.371C68.5067 11.233 68.435 11.0689 68.435 10.8788C68.435 10.6861 68.5067 10.5221 68.6499 10.3867C68.7957 10.2486 68.9702 10.1796 69.1733 10.1796C69.3765 10.1796 69.5496 10.2486 69.6929 10.3867C69.8387 10.5221 69.9116 10.6861 69.9116 10.8788C69.9116 11.0689 69.8387 11.233 69.6929 11.371C69.5496 11.5064 69.3765 11.5742 69.1733 11.5742ZM74.1235 12.4999V13.4374H70.8462V12.4999H74.1235ZM71.7251 11.0624H72.8931V16.7382C72.8931 16.9648 72.9269 17.1354 72.9946 17.2499C73.0623 17.3619 73.1496 17.4387 73.2563 17.4804C73.3657 17.5195 73.4842 17.539 73.6118 17.539C73.7056 17.539 73.7876 17.5325 73.8579 17.5195C73.9282 17.5064 73.9829 17.496 74.022 17.4882L74.2329 18.4531C74.1652 18.4791 74.0688 18.5051 73.9438 18.5312C73.8188 18.5598 73.6626 18.5755 73.4751 18.5781C73.1678 18.5833 72.8813 18.5286 72.6157 18.414C72.3501 18.2994 72.1352 18.1223 71.9712 17.8827C71.8071 17.6432 71.7251 17.3424 71.7251 16.9804V11.0624ZM76.7124 14.9374V18.4999H75.5444V10.4999H76.6968V13.4765H76.771C76.9116 13.1536 77.1265 12.8971 77.4155 12.707C77.7046 12.5169 78.0822 12.4218 78.5483 12.4218C78.9598 12.4218 79.3192 12.5064 79.6265 12.6757C79.9363 12.845 80.1759 13.0976 80.3452 13.4335C80.5171 13.7669 80.603 14.1835 80.603 14.6835V18.4999H79.435V14.8242C79.435 14.3841 79.3218 14.0429 79.0952 13.8007C78.8686 13.5559 78.5535 13.4335 78.1499 13.4335C77.8738 13.4335 77.6265 13.4921 77.4077 13.6093C77.1916 13.7265 77.021 13.8984 76.896 14.1249C76.7736 14.3489 76.7124 14.6197 76.7124 14.9374Z" fill="#E8E8E8"/>
<path d="M92.0876 9.77267V18.4999H90.2978L86.8248 13.463H86.7694V18.4999H84.66V9.77267H86.4754L89.91 14.8011H89.9825V9.77267H92.0876ZM96.4736 18.6235C95.7889 18.6235 95.198 18.4886 94.7009 18.2187C94.2065 17.946 93.8259 17.5582 93.5588 17.0553C93.2946 16.5497 93.1625 15.9488 93.1625 15.2528C93.1625 14.5766 93.296 13.9857 93.5631 13.4801C93.8301 12.9715 94.2065 12.5766 94.6923 12.2954C95.1781 12.0113 95.7506 11.8693 96.4097 11.8693C96.8756 11.8693 97.3017 11.9417 97.6881 12.0866C98.0744 12.2315 98.4082 12.446 98.6895 12.7301C98.9707 13.0141 99.1895 13.365 99.3457 13.7826C99.502 14.1974 99.5801 14.6732 99.5801 15.2102V15.7301H93.8912V14.5198H97.6412C97.6384 14.2982 97.5858 14.1008 97.4835 13.9275C97.3813 13.7542 97.2406 13.6193 97.0617 13.5227C96.8855 13.4232 96.6824 13.3735 96.4523 13.3735C96.2193 13.3735 96.0105 13.4261 95.8259 13.5312C95.6412 13.6335 95.4949 13.7741 95.3869 13.9531C95.279 14.1292 95.2222 14.3295 95.2165 14.5539V15.7854C95.2165 16.0525 95.269 16.2869 95.3742 16.4886C95.4793 16.6874 95.6284 16.8423 95.8216 16.9531C96.0148 17.0639 96.2449 17.1193 96.5119 17.1193C96.6966 17.1193 96.8642 17.0937 97.0148 17.0425C97.1653 16.9914 97.2946 16.9161 97.4026 16.8167C97.5105 16.7173 97.5915 16.5951 97.6455 16.4502L99.5588 16.5056C99.4793 16.9346 99.3045 17.3082 99.0347 17.6264C98.7676 17.9417 98.4168 18.1874 97.9821 18.3636C97.5474 18.5369 97.0446 18.6235 96.4736 18.6235ZM102.323 11.9545L103.401 14.1107L104.518 11.9545H106.619L104.791 15.2272L106.687 18.4999H104.603L103.401 16.3266L102.23 18.4999H100.116L102.017 15.2272L100.21 11.9545H102.323ZM111.265 11.9545V13.4886H107.136V11.9545H111.265ZM108.001 10.3863H110.084V16.4417C110.084 16.5695 110.104 16.6732 110.144 16.7528C110.187 16.8295 110.248 16.8849 110.327 16.919C110.407 16.9502 110.502 16.9658 110.613 16.9658C110.692 16.9658 110.776 16.9587 110.864 16.9445C110.955 16.9275 111.023 16.9133 111.069 16.9019L111.384 18.4062C111.285 18.4346 111.144 18.4701 110.962 18.5127C110.783 18.5553 110.569 18.5823 110.319 18.5937C109.83 18.6164 109.411 18.5596 109.062 18.4232C108.715 18.284 108.449 18.0681 108.265 17.7755C108.083 17.4829 107.995 17.115 108.001 16.6718V10.3863Z" fill="white"/>
</g>
</g>
<rect x="1.24951" y="0.749939" width="116" height="26.5" rx="5.25" stroke="white" stroke-opacity="0.15" stroke-width="1.5"/>
<defs>
<filter id="filter0_d_2_1161" x="2" y="-6.10352e-05" width="28.4995" height="28.0001" filterUnits="userSpaceOnUse" color-interpolation-filters="sRGB">
<feFlood flood-opacity="0" result="BackgroundImageFix"/>
<feColorMatrix in="SourceAlpha" type="matrix" values="0 0 0 0 0 0 0 0 0 0 0 0 0 0 0 0 0 0 127 0" result="hardAlpha"/>
<feOffset/>
<feGaussianBlur stdDeviation="2"/>
<feComposite in2="hardAlpha" operator="out"/>
<feColorMatrix type="matrix" values="0 0 0 0 0 0 0 0 0 0 0 0 0 0 0 0 0 0 0.25 0"/>
<feBlend mode="normal" in2="BackgroundImageFix" result="effect1_dropShadow_2_1161"/>
<feBlend mode="normal" in="SourceGraphic" in2="effect1_dropShadow_2_1161" result="shape"/>
</filter>
<filter id="filter1_d_2_1161" x="28.4995" y="3.49994" width="87.5" height="21" filterUnits="userSpaceOnUse" color-interpolation-filters="sRGB">
<feFlood flood-opacity="0" result="BackgroundImageFix"/>
<feColorMatrix in="SourceAlpha" type="matrix" values="0 0 0 0 0 0 0 0 0 0 0 0 0 0 0 0 0 0 127 0" result="hardAlpha"/>
<feOffset/>
<feGaussianBlur stdDeviation="2"/>
<feComposite in2="hardAlpha" operator="out"/>
<feColorMatrix type="matrix" values="0 0 0 0 0 0 0 0 0 0 0 0 0 0 0 0 0 0 0.25 0"/>
<feBlend mode="normal" in2="BackgroundImageFix" result="effect1_dropShadow_2_1161"/>
<feBlend mode="normal" in="SourceGraphic" in2="effect1_dropShadow_2_1161" result="shape"/>
</filter>
<linearGradient id="paint0_linear_2_1161" x1="59.2495" y1="-6.10351e-05" x2="59.2495" y2="27.9999" gradientUnits="userSpaceOnUse">
<stop stop-color="#1E1E1E"/>
<stop offset="1" stop-color="#0D0D0D"/>
</linearGradient>
<clipPath id="clip0_2_1161">
<rect x="0.499512" y="-6.10352e-05" width="117.5" height="28" rx="6" fill="white"/>
</clipPath>
</defs>
</svg>
