<svg width="192" height="41" viewBox="0 0 192 41" fill="none" xmlns="http://www.w3.org/2000/svg">
<g clip-path="url(#clip0_2_1152)">
<rect x="0.000488281" y="0.0334473" width="191.001" height="40.0014" rx="8" fill="url(#paint0_linear_2_1152)"/>
<g filter="url(#filter0_d_2_1152)">
<path d="M20.8031 6.03357C20.5974 6.03357 20.4416 6.03509 20.3849 6.04139C20.3247 6.04757 20.133 6.06589 19.9607 6.07965C15.9835 6.43819 12.2583 8.5838 9.89877 11.8815C8.58491 13.7153 7.74463 15.7951 7.42728 17.9983C7.31504 18.7672 7.30127 18.9944 7.30127 20.0371C7.30127 21.0798 7.31527 21.3069 7.42728 22.076C8.18799 27.3333 11.9298 31.7504 17.0046 33.3868C17.9134 33.6798 18.8714 33.8796 19.9608 34C20.385 34.0466 22.2189 34.0466 22.6431 34C24.5236 33.7919 26.1167 33.3268 27.6877 32.5249C27.9287 32.4017 27.9752 32.3689 27.9424 32.3413C27.9205 32.3251 26.8939 30.9485 25.6623 29.2845L23.4233 26.2604L20.6177 22.1088C19.074 19.8262 17.8039 17.9599 17.7929 17.9599C17.7819 17.9569 17.7711 19.8019 17.7655 22.054C17.7577 25.9977 17.7546 26.1564 17.7053 26.2495C17.6341 26.3837 17.5793 26.4383 17.4645 26.4985C17.377 26.5421 17.3002 26.5504 16.8869 26.5504H16.4132L16.2875 26.4711C16.2095 26.4222 16.1461 26.3532 16.104 26.2713L16.0465 26.1481L16.0527 20.661L16.0605 15.1711L16.1452 15.0644C16.1891 15.0068 16.2822 14.9331 16.3478 14.8975C16.46 14.8427 16.5039 14.8372 16.9773 14.8372C17.5359 14.8372 17.6289 14.859 17.7739 15.0177C17.8151 15.0617 19.3342 17.3496 21.1516 20.1056C22.9917 22.895 24.833 25.6837 26.6754 28.4717L28.8924 31.8297L29.0044 31.7559C29.9982 31.11 31.0491 30.1904 31.8812 29.2326C33.6522 27.1991 34.7937 24.7197 35.1769 22.0759C35.289 21.3069 35.3027 21.0795 35.3027 20.0371C35.3027 18.9944 35.2887 18.7672 35.1769 17.9981C34.4159 12.7408 30.6742 8.32373 25.5995 6.68729C24.7044 6.39712 23.7519 6.19726 22.6844 6.07685C22.4873 6.05632 21.4203 6.03415 20.8033 6.03369L20.8031 6.03357ZM25.5499 14.4538C25.9551 14.4538 26.0262 14.46 26.1166 14.5087C26.2481 14.5742 26.3546 14.7002 26.3931 14.8315C26.4148 14.9027 26.4204 16.4244 26.4148 19.8535L26.407 24.7742L25.5394 23.4441L24.6689 22.1141V18.5369C24.6689 16.2244 24.6798 14.9244 24.6962 14.8615C24.74 14.7083 24.8358 14.5878 24.9673 14.5167C25.0794 14.4591 25.1205 14.4537 25.5503 14.4537L25.5499 14.4538Z" fill="white"/>
</g>
<g filter="url(#filter1_d_2_1152)">
<path d="M45.3603 26.5342V14.1705H49.888C50.7653 14.1705 51.4918 14.3154 52.0673 14.6052C52.6428 14.8909 53.0734 15.2793 53.3592 15.7703C53.6449 16.2573 53.7878 16.8067 53.7878 17.4184C53.7878 17.9336 53.6932 18.3682 53.5041 18.7224C53.3149 19.0725 53.0614 19.3543 52.7434 19.5676C52.4295 19.7768 52.0834 19.9298 51.7051 20.0264V20.1471C52.1156 20.1672 52.516 20.3 52.9064 20.5455C53.3008 20.787 53.6268 21.1311 53.8844 21.5779C54.142 22.0246 54.2708 22.5679 54.2708 23.2078C54.2708 23.8397 54.1219 24.4072 53.824 24.9102C53.5302 25.4093 53.0755 25.8057 52.4597 26.0995C51.8439 26.3893 51.0571 26.5342 50.0993 26.5342H45.3603ZM47.2257 24.9344H49.9181C50.8116 24.9344 51.4515 24.7613 51.8379 24.4152C52.2243 24.0691 52.4174 23.6364 52.4174 23.1173C52.4174 22.7269 52.3188 22.3687 52.1216 22.0427C51.9244 21.7167 51.6427 21.4571 51.2765 21.2639C50.9142 21.0708 50.4836 20.9742 49.9846 20.9742H47.2257V24.9344ZM47.2257 19.5193H49.725C50.1435 19.5193 50.5198 19.4388 50.8539 19.2778C51.1919 19.1168 51.4596 18.8914 51.6568 18.6016C51.858 18.3079 51.9586 17.9617 51.9586 17.5633C51.9586 17.0522 51.7795 16.6235 51.4213 16.2774C51.0631 15.9313 50.5138 15.7583 49.7733 15.7583H47.2257V19.5193ZM62.2124 22.6887V17.2614H64.0234V26.5342H62.2486V24.9284H62.152C61.9387 25.4234 61.5966 25.8359 61.1257 26.1659C60.6588 26.4919 60.0773 26.6549 59.381 26.6549C58.7854 26.6549 58.2582 26.5241 57.7994 26.2625C57.3446 25.9969 56.9864 25.6045 56.7248 25.0853C56.4672 24.5661 56.3384 23.9242 56.3384 23.1595V17.2614H58.1435V22.9422C58.1435 23.5741 58.3185 24.0771 58.6687 24.4514C59.0188 24.8257 59.4736 25.0129 60.033 25.0129C60.3711 25.0129 60.7071 24.9284 61.0412 24.7593C61.3793 24.5903 61.659 24.3347 61.8803 23.9926C62.1057 23.6505 62.2164 23.2159 62.2124 22.6887ZM66.4488 26.5342V17.2614H68.2538V26.5342H66.4488ZM67.3603 15.8307C67.0464 15.8307 66.7768 15.7261 66.5514 15.5168C66.33 15.3035 66.2194 15.0499 66.2194 14.7561C66.2194 14.4583 66.33 14.2048 66.5514 13.9955C66.7768 13.7822 67.0464 13.6755 67.3603 13.6755C67.6743 13.6755 67.9419 13.7822 68.1633 13.9955C68.3886 14.2048 68.5013 14.4583 68.5013 14.7561C68.5013 15.0499 68.3886 15.3035 68.1633 15.5168C67.9419 15.7261 67.6743 15.8307 67.3603 15.8307ZM72.4872 14.1705V26.5342H70.6822V14.1705H72.4872ZM79.244 17.2614V18.7103H74.1791V17.2614H79.244ZM75.5374 15.0399H77.3424V23.8115C77.3424 24.1617 77.3947 24.4253 77.4994 24.6024C77.604 24.7754 77.7388 24.8941 77.9038 24.9585C78.0729 25.0189 78.256 25.0491 78.4532 25.0491C78.5981 25.0491 78.7249 25.039 78.8335 25.0189C78.9422 24.9988 79.0267 24.9827 79.0871 24.9706L79.4131 26.4617C79.3084 26.502 79.1595 26.5422 78.9663 26.5825C78.7732 26.6267 78.5317 26.6509 78.2419 26.6549C77.767 26.663 77.3243 26.5784 76.9138 26.4014C76.5033 26.2243 76.1712 25.9506 75.9177 25.5803C75.6641 25.2101 75.5374 24.7452 75.5374 24.1858V15.0399ZM87.7501 26.5342L85.0214 17.2614H86.8868L88.7039 24.0711H88.7945L90.6176 17.2614H92.483L94.2941 24.0409H94.3847L96.1897 17.2614H98.0551L95.3325 26.5342H93.4912L91.6077 19.8392H91.4688L89.5853 26.5342H87.7501ZM99.7681 26.5342V17.2614H101.573V26.5342H99.7681ZM100.68 15.8307C100.366 15.8307 100.096 15.7261 99.8707 15.5168C99.6494 15.3035 99.5387 15.0499 99.5387 14.7561C99.5387 14.4583 99.6494 14.2048 99.8707 13.9955C100.096 13.7822 100.366 13.6755 100.68 13.6755C100.994 13.6755 101.261 13.7822 101.483 13.9955C101.708 14.2048 101.821 14.4583 101.821 14.7561C101.821 15.0499 101.708 15.3035 101.483 15.5168C101.261 15.7261 100.994 15.8307 100.68 15.8307ZM108.33 17.2614V18.7103H103.265V17.2614H108.33ZM104.623 15.0399H106.428V23.8115C106.428 24.1617 106.481 24.4253 106.585 24.6024C106.69 24.7754 106.825 24.8941 106.99 24.9585C107.159 25.0189 107.342 25.0491 107.539 25.0491C107.684 25.0491 107.811 25.039 107.919 25.0189C108.028 24.9988 108.113 24.9827 108.173 24.9706L108.499 26.4617C108.394 26.502 108.245 26.5422 108.052 26.5825C107.859 26.6267 107.618 26.6509 107.328 26.6549C106.853 26.663 106.41 26.5784 106 26.4014C105.589 26.2243 105.257 25.9506 105.004 25.5803C104.75 25.2101 104.623 24.7452 104.623 24.1858V15.0399ZM112.331 21.0285V26.5342H110.526V14.1705H112.307V18.7707H112.421C112.639 18.2716 112.971 17.8752 113.418 17.5814C113.864 17.2876 114.448 17.1407 115.168 17.1407C115.804 17.1407 116.36 17.2715 116.834 17.5331C117.313 17.7947 117.684 18.1851 117.945 18.7043C118.211 19.2194 118.344 19.8634 118.344 20.6361V26.5342H116.539V20.8534C116.539 20.1733 116.364 19.646 116.013 19.2717C115.663 18.8934 115.176 18.7043 114.553 18.7043C114.126 18.7043 113.744 18.7948 113.406 18.9759C113.071 19.157 112.808 19.4227 112.615 19.7728C112.426 20.1189 112.331 20.5375 112.331 21.0285Z" fill="#E8E8E8"/>
<path d="M135.46 14.1705V26.5342H132.925L128.004 19.3985H127.926V26.5342H124.938V14.1705H127.509L132.375 21.2941H132.478V14.1705H135.46ZM141.674 26.7092C140.704 26.7092 139.867 26.5181 139.162 26.1357C138.462 25.7494 137.923 25.2 137.544 24.4877C137.17 23.7713 136.983 22.9201 136.983 21.934C136.983 20.9762 137.172 20.1391 137.55 19.4227C137.929 18.7023 138.462 18.1428 139.15 17.7444C139.838 17.3419 140.649 17.1407 141.583 17.1407C142.243 17.1407 142.847 17.2433 143.394 17.4486C143.941 17.6539 144.414 17.9577 144.813 18.3602C145.211 18.7626 145.521 19.2597 145.742 19.8513C145.964 20.4389 146.074 21.113 146.074 21.8737V22.6102H138.015V20.8957H143.328C143.324 20.5818 143.249 20.3021 143.104 20.0565C142.959 19.811 142.76 19.6199 142.507 19.483C142.257 19.3422 141.969 19.2717 141.643 19.2717C141.313 19.2717 141.018 19.3462 140.756 19.4951C140.494 19.64 140.287 19.8392 140.134 20.0928C139.981 20.3423 139.901 20.626 139.893 20.944V22.6887C139.893 23.067 139.967 23.399 140.116 23.6847C140.265 23.9665 140.476 24.1858 140.75 24.3428C141.024 24.4997 141.35 24.5782 141.728 24.5782C141.989 24.5782 142.227 24.542 142.44 24.4695C142.654 24.3971 142.837 24.2904 142.99 24.1496C143.143 24.0087 143.257 23.8357 143.334 23.6304L146.044 23.7089C145.932 24.3166 145.684 24.8458 145.302 25.2966C144.923 25.7433 144.426 26.0915 143.811 26.341C143.195 26.5865 142.483 26.7092 141.674 26.7092ZM149.961 17.2614L151.488 20.3161L153.07 17.2614H156.046L153.456 21.8978L156.143 26.5342H153.191L151.488 23.4553L149.828 26.5342H146.834L149.526 21.8978L146.966 17.2614H149.961ZM162.628 17.2614V19.4347H156.778V17.2614H162.628ZM158.003 15.0399H160.956V23.6183C160.956 23.7994 160.984 23.9463 161.04 24.059C161.1 24.1677 161.187 24.2462 161.3 24.2945C161.412 24.3387 161.547 24.3609 161.704 24.3609C161.817 24.3609 161.936 24.3508 162.06 24.3307C162.189 24.3065 162.286 24.2864 162.35 24.2703L162.797 26.4014C162.656 26.4416 162.457 26.4919 162.199 26.5523C161.946 26.6127 161.642 26.6509 161.288 26.667C160.595 26.6992 160.002 26.6187 159.507 26.4255C159.016 26.2283 158.639 25.9224 158.378 25.5079C158.12 25.0934 157.995 24.5722 158.003 23.9443V15.0399ZM165.794 26.7092C165.359 26.7092 164.987 26.5563 164.677 26.2504C164.371 25.9446 164.22 25.5743 164.225 25.1396C164.22 24.713 164.371 24.3488 164.677 24.047C164.987 23.7411 165.359 23.5882 165.794 23.5882C166.205 23.5882 166.567 23.7411 166.881 24.047C167.199 24.3488 167.36 24.713 167.364 25.1396C167.36 25.4294 167.283 25.693 167.134 25.9305C166.989 26.1679 166.798 26.3571 166.561 26.498C166.327 26.6388 166.072 26.7092 165.794 26.7092ZM169.314 17.2614H172.266V26.9205C172.266 27.6852 172.109 28.2929 171.795 28.7437C171.485 29.1944 171.046 29.5184 170.479 29.7156C169.911 29.9128 169.241 30.0114 168.468 30.0114C168.364 30.0114 168.265 30.0094 168.173 30.0054C168.08 30.0014 167.979 29.9974 167.871 29.9933V27.7536C167.943 27.7617 168.008 27.7677 168.064 27.7717C168.12 27.7758 168.177 27.7778 168.233 27.7778C168.64 27.7778 168.921 27.7013 169.078 27.5484C169.235 27.3995 169.314 27.1701 169.314 26.8602V17.2614ZM170.787 16.1808C170.372 16.1808 170.016 16.044 169.718 15.7703C169.42 15.4926 169.271 15.1586 169.271 14.7682C169.271 14.3818 169.42 14.0518 169.718 13.7781C170.016 13.5004 170.372 13.3616 170.787 13.3616C171.205 13.3616 171.561 13.5004 171.855 13.7781C172.153 14.0518 172.302 14.3818 172.302 14.7682C172.302 15.1586 172.153 15.4926 171.855 15.7703C171.561 16.044 171.205 16.1808 170.787 16.1808ZM182.24 20.0928L179.53 20.1652C179.501 19.972 179.425 19.801 179.3 19.6521C179.175 19.4991 179.012 19.3804 178.811 19.2959C178.614 19.2074 178.385 19.1631 178.123 19.1631C177.781 19.1631 177.489 19.2315 177.248 19.3683C177.01 19.5052 176.894 19.6903 176.898 19.9237C176.894 20.1048 176.966 20.2618 177.115 20.3946C177.268 20.5274 177.539 20.6341 177.93 20.7146L179.717 21.0526C180.642 21.2297 181.331 21.5235 181.781 21.934C182.236 22.3445 182.466 22.8879 182.47 23.564C182.466 24.1999 182.276 24.7533 181.902 25.2242C181.532 25.695 181.025 26.0613 180.381 26.3229C179.737 26.5805 179 26.7092 178.171 26.7092C176.847 26.7092 175.803 26.4376 175.038 25.8943C174.278 25.3469 173.843 24.6144 173.734 23.6968L176.65 23.6244C176.714 23.9624 176.881 24.22 177.151 24.3971C177.421 24.5742 177.765 24.6627 178.183 24.6627C178.562 24.6627 178.87 24.5923 179.107 24.4514C179.345 24.3106 179.465 24.1234 179.469 23.89C179.465 23.6807 179.373 23.5137 179.192 23.3889C179.01 23.2601 178.727 23.1595 178.34 23.0871L176.722 22.7792C175.793 22.6102 175.101 22.2983 174.646 21.8435C174.191 21.3847 173.966 20.8011 173.97 20.0928C173.966 19.473 174.131 18.9437 174.465 18.5051C174.799 18.0623 175.274 17.7243 175.889 17.4909C176.505 17.2574 177.232 17.1407 178.069 17.1407C179.324 17.1407 180.314 17.4043 181.039 17.9315C181.763 18.4547 182.164 19.1752 182.24 20.0928Z" fill="white"/>
</g>
</g>
<rect x="1.07192" y="1.10488" width="188.858" height="37.8585" rx="6.92857" stroke="white" stroke-opacity="0.15" stroke-width="2.14286"/>
<defs>
<filter id="filter0_d_2_1152" x="1.70099" y="0.433167" width="39.9012" height="39.202" filterUnits="userSpaceOnUse" color-interpolation-filters="sRGB">
<feFlood flood-opacity="0" result="BackgroundImageFix"/>
<feColorMatrix in="SourceAlpha" type="matrix" values="0 0 0 0 0 0 0 0 0 0 0 0 0 0 0 0 0 0 127 0" result="hardAlpha"/>
<feOffset/>
<feGaussianBlur stdDeviation="2.80014"/>
<feComposite in2="hardAlpha" operator="out"/>
<feColorMatrix type="matrix" values="0 0 0 0 0 0 0 0 0 0 0 0 0 0 0 0 0 0 0.25 0"/>
<feBlend mode="normal" in2="BackgroundImageFix" result="effect1_dropShadow_2_1152"/>
<feBlend mode="normal" in="SourceGraphic" in2="effect1_dropShadow_2_1152" result="shape"/>
</filter>
<filter id="filter1_d_2_1152" x="38.2877" y="3.81989" width="150.429" height="32.4286" filterUnits="userSpaceOnUse" color-interpolation-filters="sRGB">
<feFlood flood-opacity="0" result="BackgroundImageFix"/>
<feColorMatrix in="SourceAlpha" type="matrix" values="0 0 0 0 0 0 0 0 0 0 0 0 0 0 0 0 0 0 127 0" result="hardAlpha"/>
<feOffset/>
<feGaussianBlur stdDeviation="2.85714"/>
<feComposite in2="hardAlpha" operator="out"/>
<feColorMatrix type="matrix" values="0 0 0 0 0 0 0 0 0 0 0 0 0 0 0 0 0 0 0.25 0"/>
<feBlend mode="normal" in2="BackgroundImageFix" result="effect1_dropShadow_2_1152"/>
<feBlend mode="normal" in="SourceGraphic" in2="effect1_dropShadow_2_1152" result="shape"/>
</filter>
<linearGradient id="paint0_linear_2_1152" x1="95.5012" y1="0.0334473" x2="95.5012" y2="40.0348" gradientUnits="userSpaceOnUse">
<stop stop-color="#1E1E1E"/>
<stop offset="1" stop-color="#0D0D0D"/>
</linearGradient>
<clipPath id="clip0_2_1152">
<rect x="0.000488281" y="0.0334473" width="191.001" height="40.0014" rx="8" fill="white"/>
</clipPath>
</defs>
</svg>
