<svg width="119" height="28" viewBox="0 0 119 28" fill="none" xmlns="http://www.w3.org/2000/svg">
<rect x="0.499512" y="-6.10352e-05" width="118.5" height="28" rx="6" fill="url(#paint0_linear_2_1133)"/>
<g filter="url(#filter0_d_2_1133)">
<path fill-rule="evenodd" clip-rule="evenodd" d="M14.7087 6.79489C14.0923 5.73505 12.5512 5.73503 11.9348 6.79489L5.21695 18.3458C4.60054 19.4056 5.37105 20.7305 6.60386 20.7305H11.8482C11.3214 20.2701 11.1264 19.4737 11.525 18.7903L16.6128 10.0689L14.7087 6.79489Z" fill="#80EEC0"/>
<path d="M18.9653 9.3286C19.4754 8.46143 20.7507 8.46143 21.2608 9.3286L26.8204 18.7793C27.3306 19.6465 26.693 20.7304 25.6727 20.7304H14.5534C13.5332 20.7304 12.8955 19.6465 13.4056 18.7793L18.9653 9.3286Z" fill="#00DC82"/>
</g>
<g filter="url(#filter1_d_2_1133)">
<path d="M33.3784 18.4999V10.4999H36.3081C36.8758 10.4999 37.3459 10.5937 37.7183 10.7812C38.0907 10.9661 38.3693 11.2174 38.5542 11.5351C38.7391 11.8502 38.8315 12.2057 38.8315 12.6015C38.8315 12.9348 38.7703 13.2161 38.6479 13.4452C38.5256 13.6718 38.3615 13.8541 38.1558 13.9921C37.9526 14.1275 37.7287 14.2265 37.4839 14.289V14.3671C37.7495 14.3801 38.0086 14.4661 38.2612 14.6249C38.5164 14.7812 38.7274 15.0038 38.894 15.2929C39.0607 15.582 39.144 15.9335 39.144 16.3476C39.144 16.7564 39.0477 17.1236 38.855 17.4492C38.6649 17.7721 38.3706 18.0286 37.9722 18.2187C37.5737 18.4062 37.0646 18.4999 36.4448 18.4999H33.3784ZM34.5854 17.4648H36.3276C36.9058 17.4648 37.3198 17.3528 37.5698 17.1288C37.8198 16.9049 37.9448 16.6249 37.9448 16.289C37.9448 16.0364 37.881 15.8046 37.7534 15.5937C37.6258 15.3827 37.4435 15.2148 37.2065 15.0898C36.9722 14.9648 36.6935 14.9023 36.3706 14.9023H34.5854V17.4648ZM34.5854 13.9609H36.2026C36.4735 13.9609 36.717 13.9088 36.9331 13.8046C37.1519 13.7005 37.325 13.5546 37.4526 13.3671C37.5828 13.177 37.6479 12.9531 37.6479 12.6952C37.6479 12.3645 37.5321 12.0872 37.3003 11.8632C37.0685 11.6393 36.7131 11.5273 36.2339 11.5273H34.5854V13.9609ZM44.2827 16.0117V12.4999H45.4546V18.4999H44.3061V17.4609H44.2436C44.1056 17.7812 43.8843 18.0481 43.5796 18.2617C43.2775 18.4726 42.9012 18.5781 42.4507 18.5781C42.0653 18.5781 41.7241 18.4934 41.4272 18.3242C41.133 18.1523 40.9012 17.8984 40.7319 17.5624C40.5653 17.2265 40.4819 16.8111 40.4819 16.3163V12.4999H41.6499V16.1757C41.6499 16.5846 41.7632 16.9101 41.9897 17.1523C42.2163 17.3945 42.5106 17.5156 42.8726 17.5156C43.0913 17.5156 43.3088 17.4609 43.5249 17.3515C43.7436 17.2421 43.9246 17.0768 44.0679 16.8554C44.2137 16.6341 44.2853 16.3528 44.2827 16.0117ZM47.0239 18.4999V12.4999H48.1919V18.4999H47.0239ZM47.6138 11.5742C47.4106 11.5742 47.2362 11.5064 47.0903 11.371C46.9471 11.233 46.8755 11.0689 46.8755 10.8788C46.8755 10.6861 46.9471 10.5221 47.0903 10.3867C47.2362 10.2486 47.4106 10.1796 47.6138 10.1796C47.8169 10.1796 47.9901 10.2486 48.1333 10.3867C48.2791 10.5221 48.352 10.6861 48.352 10.8788C48.352 11.0689 48.2791 11.233 48.1333 11.371C47.9901 11.5064 47.8169 11.5742 47.6138 11.5742ZM50.9311 10.4999V18.4999H49.7632V10.4999H50.9311ZM55.3032 12.4999V13.4374H52.0259V12.4999H55.3032ZM52.9048 11.0624H54.0727V16.7382C54.0727 16.9648 54.1066 17.1354 54.1743 17.2499C54.242 17.3619 54.3293 17.4387 54.436 17.4804C54.5454 17.5195 54.6639 17.539 54.7915 17.539C54.8852 17.539 54.9673 17.5325 55.0376 17.5195C55.1079 17.5064 55.1626 17.496 55.2017 17.4882L55.4126 18.4531C55.3449 18.4791 55.2485 18.5051 55.1235 18.5312C54.9985 18.5598 54.8423 18.5755 54.6548 18.5781C54.3475 18.5833 54.061 18.5286 53.7954 18.414C53.5298 18.2994 53.3149 18.1223 53.1509 17.8827C52.9868 17.6432 52.9048 17.3424 52.9048 16.9804V11.0624ZM60.8071 18.4999L59.0415 12.4999H60.2485L61.4243 16.9062H61.4829L62.6626 12.4999H63.8696L65.0415 16.8867H65.1001L66.2681 12.4999H67.4751L65.7134 18.4999H64.522L63.3032 14.1679H63.2134L61.9946 18.4999H60.8071ZM68.5835 18.4999V12.4999H69.7515V18.4999H68.5835ZM69.1733 11.5742C68.9702 11.5742 68.7957 11.5064 68.6499 11.371C68.5067 11.233 68.435 11.0689 68.435 10.8788C68.435 10.6861 68.5067 10.5221 68.6499 10.3867C68.7957 10.2486 68.9702 10.1796 69.1733 10.1796C69.3765 10.1796 69.5496 10.2486 69.6929 10.3867C69.8387 10.5221 69.9116 10.6861 69.9116 10.8788C69.9116 11.0689 69.8387 11.233 69.6929 11.371C69.5496 11.5064 69.3765 11.5742 69.1733 11.5742ZM74.1235 12.4999V13.4374H70.8462V12.4999H74.1235ZM71.7251 11.0624H72.8931V16.7382C72.8931 16.9648 72.9269 17.1354 72.9946 17.2499C73.0623 17.3619 73.1496 17.4387 73.2563 17.4804C73.3657 17.5195 73.4842 17.539 73.6118 17.539C73.7056 17.539 73.7876 17.5325 73.8579 17.5195C73.9282 17.5064 73.9829 17.496 74.022 17.4882L74.2329 18.4531C74.1652 18.4791 74.0688 18.5051 73.9438 18.5312C73.8188 18.5598 73.6626 18.5755 73.4751 18.5781C73.1678 18.5833 72.8813 18.5286 72.6157 18.414C72.3501 18.2994 72.1352 18.1223 71.9712 17.8827C71.8071 17.6432 71.7251 17.3424 71.7251 16.9804V11.0624ZM76.7124 14.9374V18.4999H75.5444V10.4999H76.6968V13.4765H76.771C76.9116 13.1536 77.1265 12.8971 77.4155 12.707C77.7046 12.5169 78.0822 12.4218 78.5483 12.4218C78.9598 12.4218 79.3192 12.5064 79.6265 12.6757C79.9363 12.845 80.1759 13.0976 80.3452 13.4335C80.5171 13.7669 80.603 14.1835 80.603 14.6835V18.4999H79.435V14.8242C79.435 14.3841 79.3218 14.0429 79.0952 13.8007C78.8686 13.5559 78.5535 13.4335 78.1499 13.4335C77.8738 13.4335 77.6265 13.4921 77.4077 13.6093C77.1916 13.7265 77.021 13.8984 76.896 14.1249C76.7736 14.3489 76.7124 14.6197 76.7124 14.9374Z" fill="#E8E8E8"/>
<path d="M92.0876 9.77267V18.4999H90.2978L86.8248 13.463H86.7694V18.4999H84.66V9.77267H86.4754L89.91 14.8011H89.9825V9.77267H92.0876ZM97.6369 15.6747V11.9545H99.7165V18.4999H97.7307V17.2812H97.6625C97.5176 17.6818 97.2705 17.9999 96.921 18.2357C96.5744 18.4687 96.1554 18.5852 95.6639 18.5852C95.2179 18.5852 94.8259 18.4829 94.4878 18.2783C94.1497 18.0738 93.8869 17.7883 93.6994 17.4218C93.5119 17.0525 93.4168 16.6207 93.4139 16.1264V11.9545H95.4977V15.7173C95.5006 16.0724 95.5943 16.3522 95.779 16.5568C95.9636 16.7613 96.2151 16.8636 96.5332 16.8636C96.7406 16.8636 96.9267 16.8181 97.0915 16.7272C97.2591 16.6335 97.3912 16.4985 97.4878 16.3224C97.5872 16.1434 97.6369 15.9275 97.6369 15.6747ZM102.816 11.9545L103.894 14.1107L105.01 11.9545H107.111L105.283 15.2272L107.179 18.4999H105.095L103.894 16.3266L102.722 18.4999H100.608L102.509 15.2272L100.702 11.9545H102.816ZM111.757 11.9545V13.4886H107.628V11.9545H111.757ZM108.493 10.3863H110.577V16.4417C110.577 16.5695 110.596 16.6732 110.636 16.7528C110.679 16.8295 110.74 16.8849 110.819 16.919C110.899 16.9502 110.994 16.9658 111.105 16.9658C111.185 16.9658 111.268 16.9587 111.356 16.9445C111.447 16.9275 111.515 16.9133 111.561 16.9019L111.876 18.4062C111.777 18.4346 111.636 18.4701 111.454 18.5127C111.275 18.5553 111.061 18.5823 110.811 18.5937C110.322 18.6164 109.903 18.5596 109.554 18.4232C109.207 18.284 108.942 18.0681 108.757 17.7755C108.575 17.4829 108.487 17.115 108.493 16.6718V10.3863Z" fill="#00DC82"/>
</g>
<rect x="1.24951" y="0.749939" width="117" height="26.5" rx="5.25" stroke="white" stroke-opacity="0.15" stroke-width="1.5"/>
<defs>
<filter id="filter0_d_2_1133" x="1" y="-6.10352e-05" width="30" height="28" filterUnits="userSpaceOnUse" color-interpolation-filters="sRGB">
<feFlood flood-opacity="0" result="BackgroundImageFix"/>
<feColorMatrix in="SourceAlpha" type="matrix" values="0 0 0 0 0 0 0 0 0 0 0 0 0 0 0 0 0 0 127 0" result="hardAlpha"/>
<feOffset/>
<feGaussianBlur stdDeviation="2"/>
<feComposite in2="hardAlpha" operator="out"/>
<feColorMatrix type="matrix" values="0 0 0 0 0 0 0 0 0 0 0 0 0 0 0 0 0 0 0.25 0"/>
<feBlend mode="normal" in2="BackgroundImageFix" result="effect1_dropShadow_2_1133"/>
<feBlend mode="normal" in="SourceGraphic" in2="effect1_dropShadow_2_1133" result="shape"/>
</filter>
<filter id="filter1_d_2_1133" x="28.4995" y="3.49994" width="88.5" height="21" filterUnits="userSpaceOnUse" color-interpolation-filters="sRGB">
<feFlood flood-opacity="0" result="BackgroundImageFix"/>
<feColorMatrix in="SourceAlpha" type="matrix" values="0 0 0 0 0 0 0 0 0 0 0 0 0 0 0 0 0 0 127 0" result="hardAlpha"/>
<feOffset/>
<feGaussianBlur stdDeviation="2"/>
<feComposite in2="hardAlpha" operator="out"/>
<feColorMatrix type="matrix" values="0 0 0 0 0 0 0 0 0 0 0 0 0 0 0 0 0 0 0.25 0"/>
<feBlend mode="normal" in2="BackgroundImageFix" result="effect1_dropShadow_2_1133"/>
<feBlend mode="normal" in="SourceGraphic" in2="effect1_dropShadow_2_1133" result="shape"/>
</filter>
<linearGradient id="paint0_linear_2_1133" x1="59.7495" y1="-6.10351e-05" x2="59.7495" y2="27.9999" gradientUnits="userSpaceOnUse">
<stop stop-color="#0C3826"/>
<stop offset="1" stop-color="#052115"/>
</linearGradient>
</defs>
</svg>
