<svg width="191" height="41" viewBox="0 0 191 41" fill="none" xmlns="http://www.w3.org/2000/svg">
<g clip-path="url(#clip0_2_3701)">
<rect x="0.000488281" y="0.0361328" width="191" height="40" rx="8" fill="url(#paint0_linear_2_3701)"/>
<g filter="url(#filter0_d_2_3701)">
<path d="M21.8338 6.03636C20.6792 6.04167 19.5766 6.13906 18.6065 6.30885C15.7485 6.80824 15.2296 7.85351 15.2296 9.78117V12.327H21.9833V13.1756H15.2296H12.695C10.7322 13.1756 9.01352 14.3425 8.47593 16.5623C7.85583 19.1067 7.82833 20.6945 8.47593 23.3512C8.95601 25.3288 10.1025 26.7379 12.0653 26.7379H14.3874V23.686C14.3874 21.4812 16.3161 19.5363 18.6065 19.5363H25.3523C27.2301 19.5363 28.7292 18.0071 28.7292 16.1419V9.78117C28.7292 7.97087 27.1851 6.61098 25.3523 6.30885C24.1921 6.11784 22.9883 6.03106 21.8338 6.03636ZM18.1814 8.08394C18.879 8.08394 19.4487 8.65661 19.4487 9.36075C19.4487 10.0624 18.879 10.6298 18.1814 10.6298C17.4813 10.6298 16.9141 10.0624 16.9141 9.36075C16.9141 8.65661 17.4813 8.08394 18.1814 8.08394Z" fill="url(#paint1_linear_2_3701)"/>
<path d="M29.5715 13.1757V16.1419C29.5715 18.4416 27.6003 20.3772 25.3524 20.3772H18.6066C16.7588 20.3772 15.2297 21.9414 15.2297 23.7717V30.1324C15.2297 31.9427 16.8213 33.0075 18.6066 33.5268C20.7444 34.1486 22.7945 34.261 25.3524 33.5268C27.0527 33.0399 28.7293 32.06 28.7293 30.1324V27.5865H21.9834V26.7379H28.7293H32.1061C34.0689 26.7379 34.8004 25.3838 35.483 23.3513C36.1881 21.2588 36.1581 19.2466 35.483 16.5623C34.9979 14.6297 34.0714 13.1757 32.1061 13.1757H29.5715ZM25.7775 29.2838C26.4776 29.2838 27.0448 29.8512 27.0448 30.5528C27.0448 31.2569 26.4776 31.8296 25.7775 31.8296C25.0799 31.8296 24.5102 31.2569 24.5102 30.5528C24.5102 29.8512 25.0799 29.2838 25.7775 29.2838Z" fill="url(#paint2_linear_2_3701)"/>
</g>
<g filter="url(#filter1_d_2_3701)">
<path d="M43.3588 26.5361V14.1725H47.8865C48.7639 14.1725 49.4903 14.3174 50.0658 14.6072C50.6413 14.8929 51.072 15.2813 51.3577 15.7723C51.6435 16.2593 51.7864 16.8086 51.7864 17.4204C51.7864 17.9355 51.6918 18.3702 51.5026 18.7243C51.3135 19.0745 51.0599 19.3562 50.742 19.5695C50.428 19.7788 50.0819 19.9317 49.7036 20.0283V20.1491C50.1141 20.1692 50.5146 20.302 50.905 20.5475C51.2994 20.789 51.6254 21.1331 51.8829 21.5798C52.1405 22.0265 52.2693 22.5699 52.2693 23.2098C52.2693 23.8416 52.1204 24.4091 51.8226 24.9122C51.5288 25.4112 51.074 25.8077 50.4582 26.1015C49.8425 26.3912 49.0556 26.5361 48.0978 26.5361H43.3588ZM45.2242 24.9363H47.9167C48.8101 24.9363 49.4501 24.7633 49.8364 24.4172C50.2228 24.071 50.416 23.6384 50.416 23.1192C50.416 22.7288 50.3174 22.3706 50.1202 22.0447C49.923 21.7187 49.6412 21.4591 49.275 21.2659C48.9128 21.0727 48.4821 20.9761 47.9831 20.9761H45.2242V24.9363ZM45.2242 19.5212H47.7235C48.1421 19.5212 48.5184 19.4407 48.8524 19.2797C49.1905 19.1188 49.4581 18.8934 49.6553 18.6036C49.8565 18.3098 49.9572 17.9637 49.9572 17.5652C49.9572 17.0541 49.7781 16.6255 49.4199 16.2794C49.0617 15.9333 48.5123 15.7602 47.7718 15.7602H45.2242V19.5212ZM60.2109 22.6906V17.2634H62.022V26.5361H60.2471V24.9303H60.1505C59.9372 25.4253 59.5951 25.8379 59.1242 26.1679C58.6574 26.4939 58.0758 26.6569 57.3796 26.6569C56.7839 26.6569 56.2567 26.5261 55.7979 26.2645C55.3431 25.9988 54.9849 25.6064 54.7233 25.0873C54.4657 24.5681 54.337 23.9262 54.337 23.1615V17.2634H56.142V22.9442C56.142 23.576 56.3171 24.0791 56.6672 24.4534C57.0174 24.8277 57.4721 25.0148 58.0316 25.0148C58.3696 25.0148 58.7057 24.9303 59.0397 24.7613C59.3778 24.5922 59.6575 24.3367 59.8789 23.9946C60.1042 23.6525 60.2149 23.2178 60.2109 22.6906ZM64.4473 26.5361V17.2634H66.2523V26.5361H64.4473ZM65.3589 15.8327C65.045 15.8327 64.7753 15.728 64.5499 15.5187C64.3286 15.3054 64.2179 15.0519 64.2179 14.7581C64.2179 14.4603 64.3286 14.2067 64.5499 13.9974C64.7753 13.7841 65.045 13.6775 65.3589 13.6775C65.6728 13.6775 65.9404 13.7841 66.1618 13.9974C66.3872 14.2067 66.4999 14.4603 66.4999 14.7581C66.4999 15.0519 66.3872 15.3054 66.1618 15.5187C65.9404 15.728 65.6728 15.8327 65.3589 15.8327ZM70.4857 14.1725V26.5361H68.6807V14.1725H70.4857ZM77.2426 17.2634V18.7123H72.1776V17.2634H77.2426ZM73.5359 15.0418H75.3409V23.8135C75.3409 24.1636 75.3933 24.4272 75.4979 24.6043C75.6025 24.7774 75.7374 24.8961 75.9024 24.9605C76.0714 25.0209 76.2545 25.051 76.4517 25.051C76.5966 25.051 76.7234 25.041 76.8321 25.0209C76.9407 25.0007 77.0252 24.9846 77.0856 24.9726L77.4116 26.4637C77.307 26.5039 77.1581 26.5442 76.9649 26.5844C76.7717 26.6287 76.5302 26.6528 76.2404 26.6569C75.7655 26.6649 75.3228 26.5804 74.9123 26.4033C74.5018 26.2262 74.1698 25.9526 73.9162 25.5823C73.6627 25.212 73.5359 24.7472 73.5359 24.1878V15.0418ZM85.7486 26.5361L83.0199 17.2634H84.8853L86.7024 24.0731H86.793L88.6162 17.2634H90.4816L92.2926 24.0429H92.3832L94.1882 17.2634H96.0537L93.331 26.5361H91.4897L89.6062 19.8412H89.4674L87.5838 26.5361H85.7486ZM97.7666 26.5361V17.2634H99.5717V26.5361H97.7666ZM98.6782 15.8327C98.3643 15.8327 98.0946 15.728 97.8693 15.5187C97.6479 15.3054 97.5372 15.0519 97.5372 14.7581C97.5372 14.4603 97.6479 14.2067 97.8693 13.9974C98.0946 13.7841 98.3643 13.6775 98.6782 13.6775C98.9921 13.6775 99.2598 13.7841 99.4811 13.9974C99.7065 14.2067 99.8192 14.4603 99.8192 14.7581C99.8192 15.0519 99.7065 15.3054 99.4811 15.5187C99.2598 15.728 98.9921 15.8327 98.6782 15.8327ZM106.329 17.2634V18.7123H101.264V17.2634H106.329ZM102.622 15.0418H104.427V23.8135C104.427 24.1636 104.479 24.4272 104.584 24.6043C104.688 24.7774 104.823 24.8961 104.988 24.9605C105.157 25.0209 105.34 25.051 105.538 25.051C105.683 25.051 105.809 25.041 105.918 25.0209C106.027 25.0007 106.111 24.9846 106.172 24.9726L106.498 26.4637C106.393 26.5039 106.244 26.5442 106.051 26.5844C105.858 26.6287 105.616 26.6528 105.326 26.6569C104.851 26.6649 104.409 26.5804 103.998 26.4033C103.588 26.2262 103.256 25.9526 103.002 25.5823C102.749 25.212 102.622 24.7472 102.622 24.1878V15.0418ZM110.329 21.0304V26.5361H108.524V14.1725H110.305V18.7726H110.42C110.637 18.2736 110.969 17.8772 111.416 17.5834C111.863 17.2896 112.446 17.1427 113.167 17.1427C113.803 17.1427 114.358 17.2735 114.833 17.5351C115.312 17.7967 115.682 18.1871 115.944 18.7062C116.209 19.2214 116.342 19.8653 116.342 20.638V26.5361H114.537V20.8554C114.537 20.1752 114.362 19.648 114.012 19.2737C113.662 18.8954 113.175 18.7062 112.551 18.7062C112.124 18.7062 111.742 18.7968 111.404 18.9779C111.07 19.159 110.806 19.4246 110.613 19.7748C110.424 20.1209 110.329 20.5394 110.329 21.0304Z" fill="#E8E8E8"/>
<path d="M122.936 26.0361V13.6725H128.043C128.969 13.6725 129.768 13.8536 130.44 14.2158C131.116 14.574 131.637 15.0751 132.004 15.719C132.37 16.3589 132.553 17.1035 132.553 17.9527C132.553 18.8059 132.366 19.5525 131.992 20.1924C131.621 20.8283 131.092 21.3213 130.404 21.6714C129.716 22.0216 128.899 22.1966 127.953 22.1966H124.802V19.8422H127.398C127.848 19.8422 128.225 19.7638 128.526 19.6068C128.832 19.4498 129.064 19.2305 129.221 18.9488C129.378 18.663 129.456 18.331 129.456 17.9527C129.456 17.5703 129.378 17.2403 129.221 16.9626C129.064 16.6809 128.832 16.4636 128.526 16.3106C128.221 16.1577 127.844 16.0812 127.398 16.0812H125.924V26.0361H122.936ZM135.831 29.5134C135.477 29.5134 135.143 29.4852 134.829 29.4289C134.515 29.3766 134.245 29.3061 134.02 29.2176L134.672 27.0745C134.962 27.1711 135.223 27.2274 135.457 27.2435C135.694 27.2596 135.898 27.2214 136.067 27.1288C136.24 27.0403 136.372 26.8813 136.465 26.6519L136.58 26.3742L133.284 16.7634H136.374L138.083 23.3799H138.179L139.912 16.7634H143.021L139.526 26.9236C139.357 27.4307 139.117 27.8774 138.807 28.2638C138.501 28.6541 138.105 28.96 137.618 29.1814C137.135 29.4027 136.539 29.5134 135.831 29.5134ZM149.387 16.7634V18.9367H143.537V16.7634H149.387ZM144.763 14.5418H147.715V23.1203C147.715 23.3014 147.743 23.4483 147.799 23.561C147.86 23.6697 147.946 23.7481 148.059 23.7964C148.172 23.8407 148.306 23.8628 148.463 23.8628C148.576 23.8628 148.695 23.8528 148.82 23.8326C148.948 23.8085 149.045 23.7884 149.109 23.7723L149.556 25.9033C149.415 25.9436 149.216 25.9939 148.958 26.0542C148.705 26.1146 148.401 26.1528 148.047 26.1689C147.355 26.2011 146.761 26.1206 146.266 25.9275C145.775 25.7303 145.399 25.4244 145.137 25.0099C144.879 24.5953 144.755 24.0741 144.763 23.4463V14.5418ZM154.045 20.7478V26.0361H151.092V13.6725H153.948V18.4658H154.051C154.26 17.8943 154.602 17.4476 155.077 17.1256C155.556 16.8036 156.141 16.6427 156.834 16.6427C157.486 16.6427 158.053 16.7876 158.536 17.0773C159.019 17.3631 159.393 17.7675 159.659 18.2907C159.929 18.8139 160.061 19.4257 160.057 20.126V26.0361H157.105V20.7055C157.109 20.1904 156.98 19.7879 156.719 19.4981C156.457 19.2084 156.089 19.0635 155.614 19.0635C155.304 19.0635 155.031 19.1319 154.793 19.2687C154.56 19.4015 154.377 19.5927 154.244 19.8422C154.115 20.0918 154.049 20.3936 154.045 20.7478ZM166.229 26.2112C165.255 26.2112 164.417 26.012 163.717 25.6135C163.021 25.2111 162.484 24.6517 162.105 23.9353C161.731 23.2149 161.544 22.3798 161.544 21.43C161.544 20.4761 161.731 19.641 162.105 18.9246C162.484 18.2042 163.021 17.6448 163.717 17.2464C164.417 16.8439 165.255 16.6427 166.229 16.6427C167.203 16.6427 168.038 16.8439 168.734 17.2464C169.434 17.6448 169.971 18.2042 170.346 18.9246C170.724 19.641 170.913 20.4761 170.913 21.43C170.913 22.3798 170.724 23.2149 170.346 23.9353C169.971 24.6517 169.434 25.2111 168.734 25.6135C168.038 26.012 167.203 26.2112 166.229 26.2112ZM166.247 23.9836C166.601 23.9836 166.901 23.8749 167.146 23.6576C167.392 23.4402 167.579 23.1384 167.708 22.752C167.84 22.3657 167.907 21.9189 167.907 21.4118C167.907 20.8967 167.84 20.4459 167.708 20.0596C167.579 19.6732 167.392 19.3714 167.146 19.154C166.901 18.9367 166.601 18.828 166.247 18.828C165.88 18.828 165.571 18.9367 165.317 19.154C165.067 19.3714 164.876 19.6732 164.743 20.0596C164.615 20.4459 164.55 20.8967 164.55 21.4118C164.55 21.9189 164.615 22.3657 164.743 22.752C164.876 23.1384 165.067 23.4402 165.317 23.6576C165.571 23.8749 165.88 23.9836 166.247 23.9836ZM175.378 20.7478V26.0361H172.425V16.7634H175.233V18.4658H175.335C175.541 17.8983 175.891 17.4536 176.386 17.1317C176.881 16.8057 177.47 16.6427 178.155 16.6427C178.806 16.6427 179.372 16.7896 179.851 17.0834C180.334 17.3731 180.708 17.7796 180.974 18.3028C181.243 18.822 181.376 19.4297 181.372 20.126V26.0361H178.42V20.7055C178.424 20.1904 178.293 19.7879 178.028 19.4981C177.766 19.2084 177.402 19.0635 176.935 19.0635C176.625 19.0635 176.351 19.1319 176.114 19.2687C175.881 19.4015 175.699 19.5927 175.571 19.8422C175.446 20.0918 175.382 20.3936 175.378 20.7478Z" fill="white"/>
</g>
</g>
<rect x="1.05049" y="1.08613" width="188.9" height="37.9" rx="6.95" stroke="white" stroke-opacity="0.15" stroke-width="2.1"/>
<defs>
<filter id="filter0_d_2_3701" x="2.2862" y="0.321847" width="39.4286" height="39.4286" filterUnits="userSpaceOnUse" color-interpolation-filters="sRGB">
<feFlood flood-opacity="0" result="BackgroundImageFix"/>
<feColorMatrix in="SourceAlpha" type="matrix" values="0 0 0 0 0 0 0 0 0 0 0 0 0 0 0 0 0 0 127 0" result="hardAlpha"/>
<feOffset/>
<feGaussianBlur stdDeviation="2.85714"/>
<feComposite in2="hardAlpha" operator="out"/>
<feColorMatrix type="matrix" values="0 0 0 0 0 0 0 0 0 0 0 0 0 0 0 0 0 0 0.25 0"/>
<feBlend mode="normal" in2="BackgroundImageFix" result="effect1_dropShadow_2_3701"/>
<feBlend mode="normal" in="SourceGraphic" in2="effect1_dropShadow_2_3701" result="shape"/>
</filter>
<filter id="filter1_d_2_3701" x="36.4005" y="3.93613" width="152.2" height="32.2" filterUnits="userSpaceOnUse" color-interpolation-filters="sRGB">
<feFlood flood-opacity="0" result="BackgroundImageFix"/>
<feColorMatrix in="SourceAlpha" type="matrix" values="0 0 0 0 0 0 0 0 0 0 0 0 0 0 0 0 0 0 127 0" result="hardAlpha"/>
<feOffset/>
<feGaussianBlur stdDeviation="2.8"/>
<feComposite in2="hardAlpha" operator="out"/>
<feColorMatrix type="matrix" values="0 0 0 0 0 0 0 0 0 0 0 0 0 0 0 0 0 0 0.25 0"/>
<feBlend mode="normal" in2="BackgroundImageFix" result="effect1_dropShadow_2_3701"/>
<feBlend mode="normal" in="SourceGraphic" in2="effect1_dropShadow_2_3701" result="shape"/>
</filter>
<linearGradient id="paint0_linear_2_3701" x1="30.5075" y1="0.0362184" x2="110.321" y2="85.5999" gradientUnits="userSpaceOnUse">
<stop stop-color="#152B3E"/>
<stop offset="1" stop-color="#282208"/>
</linearGradient>
<linearGradient id="paint1_linear_2_3701" x1="8.00049" y1="6.03613" x2="23.4296" y2="19.3291" gradientUnits="userSpaceOnUse">
<stop stop-color="#5A9FD4"/>
<stop offset="1" stop-color="#306998"/>
</linearGradient>
<linearGradient id="paint2_linear_2_3701" x1="25.6152" y1="30.3388" x2="20.1091" y2="22.5379" gradientUnits="userSpaceOnUse">
<stop stop-color="#FFD43B"/>
<stop offset="1" stop-color="#FFE873"/>
</linearGradient>
<clipPath id="clip0_2_3701">
<rect x="0.000488281" y="0.0361328" width="191" height="40" rx="8" fill="white"/>
</clipPath>
</defs>
</svg>
