<svg width="124" height="28" viewBox="0 0 124 28" fill="none" xmlns="http://www.w3.org/2000/svg">
<rect x="0.499512" y="-6.10352e-05" width="123.5" height="28" rx="6" fill="url(#paint0_linear_2_1141)"/>
<g filter="url(#filter0_d_2_1141)">
<path d="M18.8583 14.0021C18.8583 14.5013 18.6621 14.9802 18.3129 15.3333C17.9636 15.6863 17.4899 15.8848 16.9958 15.8851C16.5016 15.8851 16.0277 15.6867 15.6783 15.3336C15.3288 14.9804 15.1325 14.5015 15.1325 14.0021C15.1325 13.5029 15.3287 13.0241 15.678 12.671C16.0272 12.3179 16.501 12.1194 16.995 12.1192C17.4892 12.1192 17.9631 12.3175 18.3126 12.6707C18.662 13.0238 18.8583 13.5027 18.8583 14.0021ZM21.065 5C19.9433 5 18.4758 5.80842 16.9917 7.208C15.5083 5.816 14.04 5.01684 12.9192 5.01684C12.5775 5.01684 12.2667 5.09516 11.9975 5.25095C10.8517 5.91874 10.595 7.99958 11.1867 10.6109C8.65 11.4025 7 12.6682 7 14.0021C7 15.3411 8.65833 16.6101 11.2025 17.3958C10.6158 20.0173 10.8775 22.1015 12.0258 22.7684C12.2925 22.9259 12.6008 23 12.9442 23C14.065 23 15.5333 22.1916 17.0175 20.7903C18.5008 22.1832 19.9692 22.9823 21.09 22.9823C21.4317 22.9823 21.7425 22.9065 22.0117 22.7507C23.1567 22.0838 23.4142 20.0029 22.8225 17.3907C25.35 16.6059 27 15.3377 27 14.0021C27 12.6632 25.3417 11.3941 22.7975 10.6067C23.3842 7.98779 23.1225 5.90189 21.9742 5.23411C21.7092 5.07916 21.4008 5.00084 21.0642 5H21.065ZM21.0608 5.91789V5.92295C21.2483 5.92295 21.3992 5.96 21.5258 6.02989C22.0808 6.35158 22.3217 7.57516 22.1342 9.14905C22.0892 9.53642 22.0158 9.94484 21.9258 10.3617C21.1258 10.1629 20.2542 10.0105 19.3367 9.912C18.7867 9.14989 18.2158 8.45768 17.6408 7.85137C18.9675 6.60505 20.2133 5.92126 21.0617 5.91874L21.0608 5.91789ZM12.9192 5.93474C13.7625 5.93474 15.0142 6.61516 16.3442 7.85474C15.7725 8.46105 15.2025 9.14905 14.6608 9.91116C13.7383 10.0097 12.8658 10.1621 12.0667 10.3642C11.9733 9.95158 11.9042 9.55242 11.855 9.16842C11.6633 7.59537 11.9 6.37263 12.45 6.04674C12.6083 5.97095 12.7833 5.93979 12.9192 5.93558V5.93474ZM16.9875 8.50316C17.3667 8.89726 17.7458 9.33853 18.1208 9.82021C17.7542 9.80337 17.3792 9.79158 17 9.79158C16.6167 9.79158 16.2375 9.8 15.8667 9.82021C16.2333 9.33853 16.6125 8.89726 16.9875 8.50232V8.50316ZM17 10.7145C17.6167 10.7145 18.2308 10.7432 18.835 10.7928C19.1733 11.2829 19.5033 11.8059 19.8208 12.3592C20.1308 12.8981 20.4125 13.4455 20.6692 13.9979C20.4125 14.5495 20.1308 15.1011 19.825 15.64C19.5083 16.1958 19.1808 16.7246 18.8417 17.2147C18.235 17.2678 17.62 17.2973 17 17.2973C16.3833 17.2973 15.7692 17.2678 15.165 17.2189C14.8267 16.7288 14.4967 16.2051 14.1792 15.6526C13.8692 15.1137 13.5875 14.5663 13.3308 14.0139C13.5833 13.4606 13.8692 12.9082 14.175 12.3684C14.4917 11.8126 14.8192 11.2855 15.1583 10.7954C15.765 10.7415 16.38 10.7128 17 10.7128V10.7145ZM13.9708 10.9284C13.7708 11.2459 13.5708 11.5709 13.3842 11.9053C13.1967 12.2337 13.0217 12.5638 12.855 12.8939C12.6342 12.3415 12.4467 11.7907 12.2917 11.2543C12.825 11.128 13.3875 11.016 13.9708 10.9293V10.9284ZM20.0208 10.9284C20.6 11.0152 21.1583 11.1221 21.6925 11.2543C21.5425 11.7865 21.355 12.3339 21.1425 12.8821C20.9758 12.5537 20.8008 12.2227 20.6092 11.8935C20.4217 11.5634 20.2217 11.2417 20.0217 10.9284H20.0208ZM22.5733 11.4968C22.9767 11.6232 23.36 11.7638 23.7192 11.9162C25.1625 12.5394 26.0958 13.3545 26.0958 14.0013C26.0917 14.648 25.1583 15.4665 23.715 16.0855C23.365 16.2371 22.9817 16.3735 22.5858 16.5006C22.3525 15.6939 22.0475 14.8535 21.6692 13.9912C22.0442 13.1347 22.3442 12.2985 22.5733 11.4952V11.4968ZM11.4108 11.5002C11.6425 12.3086 11.9483 13.1482 12.3275 14.0097C11.9525 14.8661 11.6508 15.7023 11.4225 16.5057C11.0192 16.3794 10.6358 16.2379 10.2808 16.0846C8.8375 15.464 7.90417 14.648 7.90417 14.0013C7.90417 13.3545 8.8375 12.5343 10.2808 11.9162C10.6308 11.7646 11.0142 11.6282 11.4108 11.5002ZM21.1425 15.1044C21.3633 15.6577 21.5508 16.2093 21.7058 16.7448C21.1725 16.8771 20.6092 16.9891 20.0258 17.0733C20.2258 16.7575 20.4258 16.4316 20.6133 16.0981C20.8008 15.7697 20.9758 15.4345 21.1433 15.1044H21.1425ZM12.855 15.1213C13.0217 15.4514 13.1967 15.7806 13.3883 16.1107C13.58 16.4392 13.7758 16.7608 13.9758 17.0733C13.3967 16.9874 12.8383 16.8796 12.3042 16.7482C12.4542 16.2177 12.6425 15.6686 12.8542 15.1204L12.855 15.1213ZM21.9333 17.6366C22.0267 18.0518 22.1 18.4518 22.145 18.8349C22.3367 20.408 22.1 21.6307 21.55 21.9575C21.4275 22.0333 21.2683 22.0653 21.0808 22.0653C20.2375 22.0653 18.9858 21.3857 17.6558 20.1453C18.2275 19.5389 18.7975 18.8518 19.3392 18.0905C20.2617 17.9912 21.1342 17.8379 21.9333 17.6358V17.6366ZM12.075 17.6451C12.875 17.8421 13.7467 17.9945 14.6642 18.0931C15.2142 18.8552 15.785 19.5474 16.36 20.1528C15.0308 21.4017 13.7833 22.0855 12.935 22.0855C12.7517 22.0813 12.5967 22.0434 12.4742 21.9743C11.9192 21.6543 11.6783 20.4299 11.8658 18.856C11.9108 18.4686 11.9842 18.0611 12.0742 17.6451H12.075ZM15.875 18.184C16.2417 18.2008 16.6167 18.2126 16.9958 18.2126C17.3792 18.2126 17.7583 18.2042 18.1292 18.184C17.7625 18.6657 17.3833 19.1061 17.0083 19.5019C16.6292 19.1061 16.25 18.6657 15.875 18.184Z" fill="#61DAFB"/>
</g>
<g filter="url(#filter1_d_2_1141)">
<path d="M33.3784 18.4999V10.4999H36.3081C36.8758 10.4999 37.3459 10.5937 37.7183 10.7812C38.0907 10.9661 38.3693 11.2174 38.5542 11.5351C38.7391 11.8502 38.8315 12.2057 38.8315 12.6015C38.8315 12.9348 38.7703 13.2161 38.6479 13.4452C38.5256 13.6718 38.3615 13.8541 38.1558 13.9921C37.9526 14.1275 37.7287 14.2265 37.4839 14.289V14.3671C37.7495 14.3801 38.0086 14.4661 38.2612 14.6249C38.5164 14.7812 38.7274 15.0038 38.894 15.2929C39.0607 15.582 39.144 15.9335 39.144 16.3476C39.144 16.7564 39.0477 17.1236 38.855 17.4492C38.6649 17.7721 38.3706 18.0286 37.9722 18.2187C37.5737 18.4062 37.0646 18.4999 36.4448 18.4999H33.3784ZM34.5854 17.4648H36.3276C36.9058 17.4648 37.3198 17.3528 37.5698 17.1288C37.8198 16.9049 37.9448 16.6249 37.9448 16.289C37.9448 16.0364 37.881 15.8046 37.7534 15.5937C37.6258 15.3827 37.4435 15.2148 37.2065 15.0898C36.9722 14.9648 36.6935 14.9023 36.3706 14.9023H34.5854V17.4648ZM34.5854 13.9609H36.2026C36.4735 13.9609 36.717 13.9088 36.9331 13.8046C37.1519 13.7005 37.325 13.5546 37.4526 13.3671C37.5828 13.177 37.6479 12.9531 37.6479 12.6952C37.6479 12.3645 37.5321 12.0872 37.3003 11.8632C37.0685 11.6393 36.7131 11.5273 36.2339 11.5273H34.5854V13.9609ZM44.2827 16.0117V12.4999H45.4546V18.4999H44.3061V17.4609H44.2436C44.1056 17.7812 43.8843 18.0481 43.5796 18.2617C43.2775 18.4726 42.9012 18.5781 42.4507 18.5781C42.0653 18.5781 41.7241 18.4934 41.4272 18.3242C41.133 18.1523 40.9012 17.8984 40.7319 17.5624C40.5653 17.2265 40.4819 16.8111 40.4819 16.3163V12.4999H41.6499V16.1757C41.6499 16.5846 41.7632 16.9101 41.9897 17.1523C42.2163 17.3945 42.5106 17.5156 42.8726 17.5156C43.0913 17.5156 43.3088 17.4609 43.5249 17.3515C43.7436 17.2421 43.9246 17.0768 44.0679 16.8554C44.2137 16.6341 44.2853 16.3528 44.2827 16.0117ZM47.0239 18.4999V12.4999H48.1919V18.4999H47.0239ZM47.6138 11.5742C47.4106 11.5742 47.2362 11.5064 47.0903 11.371C46.9471 11.233 46.8755 11.0689 46.8755 10.8788C46.8755 10.6861 46.9471 10.5221 47.0903 10.3867C47.2362 10.2486 47.4106 10.1796 47.6138 10.1796C47.8169 10.1796 47.9901 10.2486 48.1333 10.3867C48.2791 10.5221 48.352 10.6861 48.352 10.8788C48.352 11.0689 48.2791 11.233 48.1333 11.371C47.9901 11.5064 47.8169 11.5742 47.6138 11.5742ZM50.9311 10.4999V18.4999H49.7632V10.4999H50.9311ZM55.3032 12.4999V13.4374H52.0259V12.4999H55.3032ZM52.9048 11.0624H54.0727V16.7382C54.0727 16.9648 54.1066 17.1354 54.1743 17.2499C54.242 17.3619 54.3293 17.4387 54.436 17.4804C54.5454 17.5195 54.6639 17.539 54.7915 17.539C54.8852 17.539 54.9673 17.5325 55.0376 17.5195C55.1079 17.5064 55.1626 17.496 55.2017 17.4882L55.4126 18.4531C55.3449 18.4791 55.2485 18.5051 55.1235 18.5312C54.9985 18.5598 54.8423 18.5755 54.6548 18.5781C54.3475 18.5833 54.061 18.5286 53.7954 18.414C53.5298 18.2994 53.3149 18.1223 53.1509 17.8827C52.9868 17.6432 52.9048 17.3424 52.9048 16.9804V11.0624ZM60.8071 18.4999L59.0415 12.4999H60.2485L61.4243 16.9062H61.4829L62.6626 12.4999H63.8696L65.0415 16.8867H65.1001L66.2681 12.4999H67.4751L65.7134 18.4999H64.522L63.3032 14.1679H63.2134L61.9946 18.4999H60.8071ZM68.5835 18.4999V12.4999H69.7515V18.4999H68.5835ZM69.1733 11.5742C68.9702 11.5742 68.7957 11.5064 68.6499 11.371C68.5067 11.233 68.435 11.0689 68.435 10.8788C68.435 10.6861 68.5067 10.5221 68.6499 10.3867C68.7957 10.2486 68.9702 10.1796 69.1733 10.1796C69.3765 10.1796 69.5496 10.2486 69.6929 10.3867C69.8387 10.5221 69.9116 10.6861 69.9116 10.8788C69.9116 11.0689 69.8387 11.233 69.6929 11.371C69.5496 11.5064 69.3765 11.5742 69.1733 11.5742ZM74.1235 12.4999V13.4374H70.8462V12.4999H74.1235ZM71.7251 11.0624H72.8931V16.7382C72.8931 16.9648 72.9269 17.1354 72.9946 17.2499C73.0623 17.3619 73.1496 17.4387 73.2563 17.4804C73.3657 17.5195 73.4842 17.539 73.6118 17.539C73.7056 17.539 73.7876 17.5325 73.8579 17.5195C73.9282 17.5064 73.9829 17.496 74.022 17.4882L74.2329 18.4531C74.1652 18.4791 74.0688 18.5051 73.9438 18.5312C73.8188 18.5598 73.6626 18.5755 73.4751 18.5781C73.1678 18.5833 72.8813 18.5286 72.6157 18.414C72.3501 18.2994 72.1352 18.1223 71.9712 17.8827C71.8071 17.6432 71.7251 17.3424 71.7251 16.9804V11.0624ZM76.7124 14.9374V18.4999H75.5444V10.4999H76.6968V13.4765H76.771C76.9116 13.1536 77.1265 12.8971 77.4155 12.707C77.7046 12.5169 78.0822 12.4218 78.5483 12.4218C78.9598 12.4218 79.3192 12.5064 79.6265 12.6757C79.9363 12.845 80.1759 13.0976 80.3452 13.4335C80.5171 13.7669 80.603 14.1835 80.603 14.6835V18.4999H79.435V14.8242C79.435 14.3841 79.3218 14.0429 79.0952 13.8007C78.8686 13.5559 78.5535 13.4335 78.1499 13.4335C77.8738 13.4335 77.6265 13.4921 77.4077 13.6093C77.1916 13.7265 77.021 13.8984 76.896 14.1249C76.7736 14.3489 76.7124 14.6197 76.7124 14.9374Z" fill="#E8E8E8"/>
<path d="M84.66 18.4999V9.77267H88.2651C88.9185 9.77267 89.4825 9.89056 89.9569 10.1264C90.4342 10.3593 90.8021 10.6945 91.0606 11.132C91.3191 11.5667 91.4484 12.0823 91.4484 12.6789C91.4484 13.284 91.3163 13.7982 91.0521 14.2215C90.7879 14.642 90.4129 14.963 89.9271 15.1846C89.4413 15.4033 88.866 15.5127 88.2012 15.5127H85.9214V13.8508H87.8092C88.1274 13.8508 88.393 13.8096 88.606 13.7272C88.822 13.642 88.9853 13.5141 89.0961 13.3437C89.2069 13.1704 89.2623 12.9488 89.2623 12.6789C89.2623 12.409 89.2069 12.186 89.0961 12.0099C88.9853 11.8309 88.822 11.6974 88.606 11.6093C88.3901 11.5184 88.1245 11.4729 87.8092 11.4729H86.7694V18.4999H84.66ZM89.5734 14.5113L91.7467 18.4999H89.4455L87.3149 14.5113H89.5734ZM95.5361 18.6235C94.8514 18.6235 94.2605 18.4886 93.7634 18.2187C93.269 17.946 92.8884 17.5582 92.6213 17.0553C92.3571 16.5497 92.225 15.9488 92.225 15.2528C92.225 14.5766 92.3585 13.9857 92.6256 13.4801C92.8926 12.9715 93.269 12.5766 93.7548 12.2954C94.2406 12.0113 94.8131 11.8693 95.4722 11.8693C95.9381 11.8693 96.3642 11.9417 96.7506 12.0866C97.1369 12.2315 97.4707 12.446 97.752 12.7301C98.0332 13.0141 98.252 13.365 98.4082 13.7826C98.5645 14.1974 98.6426 14.6732 98.6426 15.2102V15.7301H92.9537V14.5198H96.7037C96.7009 14.2982 96.6483 14.1008 96.546 13.9275C96.4438 13.7542 96.3031 13.6193 96.1242 13.5227C95.948 13.4232 95.7449 13.3735 95.5148 13.3735C95.2818 13.3735 95.073 13.4261 94.8884 13.5312C94.7037 13.6335 94.5574 13.7741 94.4494 13.9531C94.3415 14.1292 94.2847 14.3295 94.279 14.5539V15.7854C94.279 16.0525 94.3315 16.2869 94.4367 16.4886C94.5418 16.6874 94.6909 16.8423 94.8841 16.9531C95.0773 17.0639 95.3074 17.1193 95.5744 17.1193C95.7591 17.1193 95.9267 17.0937 96.0773 17.0425C96.2278 16.9914 96.3571 16.9161 96.4651 16.8167C96.573 16.7173 96.654 16.5951 96.708 16.4502L98.6213 16.5056C98.5418 16.9346 98.3671 17.3082 98.0972 17.6264C97.8301 17.9417 97.4793 18.1874 97.0446 18.3636C96.6099 18.5369 96.1071 18.6235 95.5361 18.6235ZM101.552 18.6107C101.134 18.6107 100.764 18.5411 100.44 18.4019C100.119 18.2599 99.8646 18.0468 99.6771 17.7627C99.4924 17.4758 99.4001 17.1164 99.4001 16.6846C99.4001 16.321 99.464 16.0141 99.5918 15.7641C99.7197 15.5141 99.8958 15.311 100.12 15.1548C100.345 14.9985 100.603 14.8806 100.896 14.8011C101.188 14.7187 101.501 14.6633 101.833 14.6349C102.205 14.6008 102.505 14.5653 102.732 14.5283C102.96 14.4886 103.125 14.4332 103.227 14.3622C103.332 14.2883 103.384 14.1846 103.384 14.0511V14.0298C103.384 13.811 103.309 13.642 103.159 13.5227C103.008 13.4033 102.805 13.3437 102.549 13.3437C102.274 13.3437 102.052 13.4033 101.884 13.5227C101.717 13.642 101.61 13.8068 101.565 14.017L99.643 13.9488C99.6998 13.5511 99.8461 13.196 100.082 12.8835C100.321 12.5681 100.647 12.321 101.062 12.142C101.48 11.9602 101.981 11.8693 102.566 11.8693C102.984 11.8693 103.369 11.919 103.721 12.0184C104.073 12.115 104.38 12.257 104.642 12.4445C104.903 12.6292 105.105 12.8565 105.247 13.1264C105.392 13.3962 105.464 13.7045 105.464 14.0511V18.4999H103.504V17.588H103.453C103.336 17.8096 103.187 17.9971 103.005 18.1505C102.826 18.3039 102.615 18.419 102.37 18.4957C102.129 18.5724 101.856 18.6107 101.552 18.6107ZM102.196 17.2471C102.42 17.2471 102.622 17.2016 102.801 17.1107C102.982 17.0198 103.127 16.8948 103.235 16.7357C103.343 16.5738 103.397 16.3863 103.397 16.1732V15.5511C103.338 15.5823 103.265 15.6107 103.18 15.6363C103.098 15.6619 103.007 15.686 102.907 15.7087C102.808 15.7315 102.705 15.7514 102.6 15.7684C102.495 15.7854 102.394 15.8011 102.298 15.8153C102.102 15.8465 101.934 15.8948 101.795 15.9602C101.659 16.0255 101.553 16.1107 101.48 16.2158C101.409 16.3181 101.373 16.4403 101.373 16.5823C101.373 16.7982 101.45 16.963 101.603 17.0766C101.759 17.1903 101.957 17.2471 102.196 17.2471ZM109.794 18.6235C109.103 18.6235 108.511 18.4815 108.017 18.1974C107.525 17.9133 107.147 17.5184 106.883 17.0127C106.619 16.5042 106.487 15.9161 106.487 15.2485C106.487 14.5781 106.619 13.99 106.883 13.4843C107.15 12.9758 107.529 12.5795 108.021 12.2954C108.515 12.0113 109.105 11.8693 109.789 11.8693C110.394 11.8693 110.921 11.9786 111.37 12.1974C111.822 12.4161 112.174 12.7258 112.427 13.1264C112.683 13.5241 112.818 13.9914 112.832 14.5283H110.884C110.845 14.1931 110.731 13.9303 110.544 13.74C110.359 13.5497 110.117 13.4545 109.819 13.4545C109.578 13.4545 109.366 13.5227 109.184 13.659C109.002 13.7926 108.86 13.9914 108.758 14.2556C108.659 14.517 108.609 14.8408 108.609 15.2272C108.609 15.6136 108.659 15.9403 108.758 16.2073C108.86 16.4715 109.002 16.6718 109.184 16.8082C109.366 16.9417 109.578 17.0085 109.819 17.0085C110.012 17.0085 110.183 16.9673 110.33 16.8849C110.481 16.8025 110.605 16.6818 110.701 16.5227C110.798 16.3607 110.859 16.1647 110.884 15.9346H112.832C112.812 16.4744 112.677 16.946 112.427 17.3494C112.18 17.7528 111.832 18.0667 111.383 18.2911C110.937 18.5127 110.407 18.6235 109.794 18.6235ZM117.593 11.9545V13.4886H113.464V11.9545H117.593ZM114.329 10.3863H116.412V16.4417C116.412 16.5695 116.432 16.6732 116.472 16.7528C116.515 16.8295 116.576 16.8849 116.655 16.919C116.735 16.9502 116.83 16.9658 116.941 16.9658C117.02 16.9658 117.104 16.9587 117.192 16.9445C117.283 16.9275 117.351 16.9133 117.397 16.9019L117.712 18.4062C117.613 18.4346 117.472 18.4701 117.29 18.5127C117.111 18.5553 116.897 18.5823 116.647 18.5937C116.158 18.6164 115.739 18.5596 115.39 18.4232C115.043 18.284 114.778 18.0681 114.593 17.7755C114.411 17.4829 114.323 17.115 114.329 16.6718V10.3863Z" fill="#61DAFB"/>
</g>
<rect x="1.24951" y="0.749939" width="122" height="26.5" rx="5.25" stroke="white" stroke-opacity="0.15" stroke-width="1.5"/>
<defs>
<filter id="filter0_d_2_1141" x="2.49951" y="-6.10352e-05" width="28.5005" height="28" filterUnits="userSpaceOnUse" color-interpolation-filters="sRGB">
<feFlood flood-opacity="0" result="BackgroundImageFix"/>
<feColorMatrix in="SourceAlpha" type="matrix" values="0 0 0 0 0 0 0 0 0 0 0 0 0 0 0 0 0 0 127 0" result="hardAlpha"/>
<feOffset/>
<feGaussianBlur stdDeviation="2"/>
<feComposite in2="hardAlpha" operator="out"/>
<feColorMatrix type="matrix" values="0 0 0 0 0 0 0 0 0 0 0 0 0 0 0 0 0 0 0.25 0"/>
<feBlend mode="normal" in2="BackgroundImageFix" result="effect1_dropShadow_2_1141"/>
<feBlend mode="normal" in="SourceGraphic" in2="effect1_dropShadow_2_1141" result="shape"/>
</filter>
<filter id="filter1_d_2_1141" x="28.4995" y="3.49994" width="93.5" height="21" filterUnits="userSpaceOnUse" color-interpolation-filters="sRGB">
<feFlood flood-opacity="0" result="BackgroundImageFix"/>
<feColorMatrix in="SourceAlpha" type="matrix" values="0 0 0 0 0 0 0 0 0 0 0 0 0 0 0 0 0 0 127 0" result="hardAlpha"/>
<feOffset/>
<feGaussianBlur stdDeviation="2"/>
<feComposite in2="hardAlpha" operator="out"/>
<feColorMatrix type="matrix" values="0 0 0 0 0 0 0 0 0 0 0 0 0 0 0 0 0 0 0.25 0"/>
<feBlend mode="normal" in2="BackgroundImageFix" result="effect1_dropShadow_2_1141"/>
<feBlend mode="normal" in="SourceGraphic" in2="effect1_dropShadow_2_1141" result="shape"/>
</filter>
<linearGradient id="paint0_linear_2_1141" x1="62.2495" y1="-6.10351e-05" x2="62.2495" y2="27.9999" gradientUnits="userSpaceOnUse">
<stop stop-color="#0F343E"/>
<stop offset="1" stop-color="#072027"/>
</linearGradient>
</defs>
</svg>
