<svg width="182" height="41" viewBox="0 0 182 41" fill="none" xmlns="http://www.w3.org/2000/svg">
<rect x="0.000488281" y="0.0321045" width="181.001" height="40.0014" rx="8" fill="url(#paint0_linear_2_1141)"/>
<g filter="url(#filter0_d_2_1141)">
<path d="M25.3037 20.036C25.3037 20.7349 25.029 21.4053 24.54 21.8997C24.051 22.394 23.3877 22.6719 22.696 22.6722C22.0041 22.6722 21.3406 22.3945 20.8513 21.9001C20.3621 21.4057 20.0872 20.7351 20.0872 20.036C20.0872 19.337 20.3619 18.6666 20.8509 18.1723C21.3399 17.6779 22.0032 17.4 22.6949 17.3997C23.3868 17.3997 24.0503 17.6774 24.5396 18.1718C25.0288 18.6662 25.3037 19.3368 25.3037 20.036V20.036ZM28.3932 7.43237C26.8227 7.43237 24.7681 8.56422 22.6902 10.5237C20.6134 8.57483 18.5577 7.45595 16.9884 7.45595C16.5101 7.45595 16.0749 7.5656 15.698 7.78372C14.0938 8.71867 13.7344 11.632 14.5628 15.2881C11.0113 16.3964 8.70117 18.1684 8.70117 20.036C8.70117 21.9106 11.023 23.6873 14.585 24.7873C13.7636 28.4576 14.1299 31.3756 15.7377 32.3094C16.111 32.5299 16.5427 32.6336 17.0234 32.6336C18.5927 32.6336 20.6484 31.5018 22.7264 29.5399C24.8031 31.49 26.8589 32.6089 28.4282 32.6089C28.9065 32.6089 29.3417 32.5028 29.7186 32.2846C31.3216 31.3509 31.6822 28.4375 30.8538 24.7803C34.3925 23.6814 36.7026 21.9059 36.7026 20.036C36.7026 18.1613 34.3808 16.3846 30.8188 15.2822C31.6402 11.6155 31.2738 8.69509 29.6661 7.76014C29.295 7.5432 28.8633 7.43355 28.392 7.43237H28.3932ZM28.3873 8.71749V8.72456C28.6498 8.72456 28.861 8.77644 29.0384 8.8743C29.8154 9.32468 30.1526 11.0378 29.8901 13.2413C29.8271 13.7837 29.7244 14.3555 29.5984 14.9391C28.4783 14.6609 27.2579 14.4475 25.9734 14.3095C25.2033 13.2425 24.4041 12.2734 23.5991 11.4245C25.4565 9.67956 27.2008 8.72221 28.3885 8.71867L28.3873 8.71749ZM16.9884 8.74107C18.1691 8.74107 19.9216 9.69371 21.7837 11.4292C20.9833 12.2781 20.1852 13.2413 19.4269 14.3083C18.1353 14.4463 16.9137 14.6597 15.7949 14.9426C15.6642 14.3649 15.5673 13.8061 15.4985 13.2685C15.2302 11.0661 15.5615 9.35415 16.3316 8.89788C16.5532 8.79177 16.7982 8.74814 16.9884 8.74225V8.74107ZM22.6844 12.337C23.2152 12.8888 23.7461 13.5066 24.2711 14.181C23.7578 14.1574 23.2327 14.1409 22.7019 14.1409C22.1652 14.1409 21.6343 14.1527 21.1151 14.181C21.6285 13.5066 22.1593 12.8888 22.6844 12.3359V12.337ZM22.7019 15.4331C23.5652 15.4331 24.4251 15.4732 25.271 15.5428C25.7447 16.2289 26.2067 16.9611 26.6512 17.7357C27.0853 18.4903 27.4796 19.2566 27.839 20.0301C27.4796 20.8023 27.0853 21.5746 26.6571 22.3291C26.2137 23.1073 25.7552 23.8477 25.2803 24.5339C24.431 24.6081 23.5699 24.6494 22.7019 24.6494C21.8385 24.6494 20.9786 24.6081 20.1327 24.5398C19.6591 23.8536 19.197 23.1202 18.7525 22.3468C18.3185 21.5922 17.9241 20.8259 17.5648 20.0525C17.9183 19.2778 18.3185 18.5044 18.7467 17.7487C19.19 16.9705 19.6486 16.2325 20.1234 15.5463C20.9728 15.4708 21.8338 15.4308 22.7019 15.4308V15.4331ZM18.4608 15.7326C18.1808 16.1771 17.9008 16.6322 17.6395 17.1002C17.3769 17.56 17.1319 18.0222 16.8986 18.4844C16.5894 17.7109 16.3269 16.9399 16.1099 16.1889C16.8566 16.012 17.6441 15.8552 18.4608 15.7338V15.7326ZM26.9313 15.7326C27.7421 15.854 28.5238 16.0037 29.2717 16.1889C29.0617 16.934 28.7992 17.7003 28.5017 18.4679C28.2683 18.0081 28.0233 17.5447 27.755 17.0837C27.4924 16.6215 27.2124 16.1712 26.9324 15.7326H26.9313ZM30.5049 16.5284C31.0696 16.7053 31.6063 16.9022 32.1092 17.1156C34.1299 17.988 35.4367 19.1293 35.4367 20.0348C35.4308 20.9402 34.1241 22.0862 32.1033 22.9528C31.6133 23.165 31.0766 23.356 30.5224 23.5341C30.1957 22.4046 29.7687 21.2279 29.239 20.0206C29.7641 18.8216 30.1841 17.6508 30.5049 16.526V16.5284ZM14.8766 16.5331C15.201 17.665 15.6292 18.8404 16.16 20.0466C15.635 21.2456 15.2127 22.4164 14.893 23.5411C14.3283 23.3643 13.7916 23.1662 13.2946 22.9516C11.2738 22.0827 9.96707 20.9402 9.96707 20.0348C9.96707 19.1293 11.2738 17.9809 13.2946 17.1156C13.7846 16.9033 14.3213 16.7123 14.8766 16.5331V16.5331ZM28.5017 21.5793C28.8108 22.3539 29.0734 23.1261 29.2904 23.876C28.5437 24.0611 27.755 24.2179 26.9383 24.3358C27.2183 23.8937 27.4983 23.4374 27.7608 22.9705C28.0233 22.5107 28.2683 22.0414 28.5028 21.5793H28.5017ZM16.8986 21.6029C17.1319 22.065 17.3769 22.526 17.6453 22.9882C17.9136 23.448 18.1878 23.8984 18.4678 24.3358C17.657 24.2155 16.8752 24.0646 16.1274 23.8807C16.3374 23.1379 16.6011 22.3692 16.8974 21.6017L16.8986 21.6029ZM29.6089 25.1245C29.7396 25.7058 29.8422 26.2658 29.9052 26.8023C30.1736 29.0047 29.8422 30.7166 29.0722 31.174C28.9007 31.2801 28.6778 31.3249 28.4153 31.3249C27.2346 31.3249 25.4822 30.3735 23.6201 28.6368C24.4205 27.7879 25.2185 26.8258 25.9769 25.76C27.2684 25.6209 28.49 25.4063 29.6089 25.1234V25.1245ZM15.8065 25.1363C16.9266 25.4122 18.147 25.6256 19.4315 25.7636C20.2016 26.8306 21.0008 27.7997 21.8058 28.6474C19.9449 30.3959 18.1983 31.3532 17.0106 31.3532C16.7539 31.3473 16.5369 31.2943 16.3654 31.1976C15.5883 30.7496 15.2512 29.0353 15.5137 26.8317C15.5767 26.2894 15.6794 25.7188 15.8054 25.1363H15.8065ZM21.1268 25.8909C21.6402 25.9145 22.1652 25.931 22.696 25.931C23.2327 25.931 23.7636 25.9192 24.2828 25.8909C23.7694 26.5653 23.2386 27.1819 22.7135 27.736C22.1827 27.1819 21.6518 26.5653 21.1268 25.8909Z" fill="#61DAFB"/>
</g>
<g filter="url(#filter1_d_2_1141)">
<path d="M45.3603 26.5328V14.1692H49.888C50.7653 14.1692 51.4918 14.3141 52.0673 14.6039C52.6428 14.8896 53.0734 15.278 53.3592 15.769C53.6449 16.256 53.7878 16.8053 53.7878 17.4171C53.7878 17.9322 53.6932 18.3669 53.5041 18.721C53.3149 19.0712 53.0614 19.3529 52.7434 19.5662C52.4295 19.7755 52.0834 19.9284 51.7051 20.025V20.1458C52.1156 20.1659 52.516 20.2987 52.9064 20.5442C53.3008 20.7857 53.6268 21.1298 53.8844 21.5765C54.142 22.0232 54.2708 22.5666 54.2708 23.2065C54.2708 23.8383 54.1219 24.4058 53.824 24.9089C53.5302 25.408 53.0755 25.8044 52.4597 26.0982C51.8439 26.3879 51.0571 26.5328 50.0993 26.5328H45.3603ZM47.2257 24.933H49.9181C50.8116 24.933 51.4515 24.76 51.8379 24.4139C52.2243 24.0678 52.4174 23.6351 52.4174 23.1159C52.4174 22.7255 52.3188 22.3674 52.1216 22.0414C51.9244 21.7154 51.6427 21.4558 51.2765 21.2626C50.9142 21.0694 50.4836 20.9728 49.9846 20.9728H47.2257V24.933ZM47.2257 19.5179H49.725C50.1435 19.5179 50.5198 19.4374 50.8539 19.2764C51.1919 19.1155 51.4596 18.8901 51.6568 18.6003C51.858 18.3065 51.9586 17.9604 51.9586 17.562C51.9586 17.0508 51.7795 16.6222 51.4213 16.2761C51.0631 15.93 50.5138 15.7569 49.7733 15.7569H47.2257V19.5179ZM62.2124 22.6873V17.2601H64.0234V26.5328H62.2486V24.927H62.152C61.9387 25.422 61.5966 25.8346 61.1257 26.1646C60.6588 26.4906 60.0773 26.6536 59.381 26.6536C58.7854 26.6536 58.2582 26.5228 57.7994 26.2612C57.3446 25.9955 56.9864 25.6031 56.7248 25.084C56.4672 24.5648 56.3384 23.9229 56.3384 23.1582V17.2601H58.1435V22.9409C58.1435 23.5727 58.3185 24.0758 58.6687 24.4501C59.0188 24.8244 59.4736 25.0115 60.033 25.0115C60.3711 25.0115 60.7071 24.927 61.0412 24.758C61.3793 24.5889 61.659 24.3334 61.8803 23.9913C62.1057 23.6492 62.2164 23.2145 62.2124 22.6873ZM66.4488 26.5328V17.2601H68.2538V26.5328H66.4488ZM67.3603 15.8294C67.0464 15.8294 66.7768 15.7247 66.5514 15.5154C66.33 15.3021 66.2194 15.0486 66.2194 14.7548C66.2194 14.457 66.33 14.2034 66.5514 13.9941C66.7768 13.7808 67.0464 13.6742 67.3603 13.6742C67.6743 13.6742 67.9419 13.7808 68.1633 13.9941C68.3886 14.2034 68.5013 14.457 68.5013 14.7548C68.5013 15.0486 68.3886 15.3021 68.1633 15.5154C67.9419 15.7247 67.6743 15.8294 67.3603 15.8294ZM72.4872 14.1692V26.5328H70.6822V14.1692H72.4872ZM79.244 17.2601V18.709H74.1791V17.2601H79.244ZM75.5374 15.0385H77.3424V23.8102C77.3424 24.1603 77.3947 24.4239 77.4994 24.601C77.604 24.7741 77.7388 24.8928 77.9038 24.9572C78.0729 25.0176 78.256 25.0477 78.4532 25.0477C78.5981 25.0477 78.7249 25.0377 78.8335 25.0176C78.9422 24.9974 79.0267 24.9813 79.0871 24.9693L79.4131 26.4604C79.3084 26.5006 79.1595 26.5409 78.9663 26.5811C78.7732 26.6254 78.5317 26.6495 78.2419 26.6536C77.767 26.6616 77.3243 26.5771 76.9138 26.4C76.5033 26.2229 76.1712 25.9493 75.9177 25.579C75.6641 25.2087 75.5374 24.7439 75.5374 24.1845V15.0385ZM87.7501 26.5328L85.0214 17.2601H86.8868L88.7039 24.0698H88.7945L90.6176 17.2601H92.483L94.2941 24.0396H94.3847L96.1897 17.2601H98.0551L95.3325 26.5328H93.4912L91.6077 19.8379H91.4688L89.5853 26.5328H87.7501ZM99.7681 26.5328V17.2601H101.573V26.5328H99.7681ZM100.68 15.8294C100.366 15.8294 100.096 15.7247 99.8707 15.5154C99.6494 15.3021 99.5387 15.0486 99.5387 14.7548C99.5387 14.457 99.6494 14.2034 99.8707 13.9941C100.096 13.7808 100.366 13.6742 100.68 13.6742C100.994 13.6742 101.261 13.7808 101.483 13.9941C101.708 14.2034 101.821 14.457 101.821 14.7548C101.821 15.0486 101.708 15.3021 101.483 15.5154C101.261 15.7247 100.994 15.8294 100.68 15.8294ZM108.33 17.2601V18.709H103.265V17.2601H108.33ZM104.623 15.0385H106.428V23.8102C106.428 24.1603 106.481 24.4239 106.585 24.601C106.69 24.7741 106.825 24.8928 106.99 24.9572C107.159 25.0176 107.342 25.0477 107.539 25.0477C107.684 25.0477 107.811 25.0377 107.919 25.0176C108.028 24.9974 108.113 24.9813 108.173 24.9693L108.499 26.4604C108.394 26.5006 108.245 26.5409 108.052 26.5811C107.859 26.6254 107.618 26.6495 107.328 26.6536C106.853 26.6616 106.41 26.5771 106 26.4C105.589 26.2229 105.257 25.9493 105.004 25.579C104.75 25.2087 104.623 24.7439 104.623 24.1845V15.0385ZM112.331 21.0272V26.5328H110.526V14.1692H112.307V18.7693H112.421C112.639 18.2703 112.971 17.8739 113.418 17.5801C113.864 17.2863 114.448 17.1394 115.168 17.1394C115.804 17.1394 116.36 17.2702 116.834 17.5318C117.313 17.7934 117.684 18.1838 117.945 18.7029C118.211 19.2181 118.344 19.862 118.344 20.6348V26.5328H116.539V20.8521C116.539 20.1719 116.364 19.6447 116.013 19.2704C115.663 18.8921 115.176 18.7029 114.553 18.7029C114.126 18.7029 113.744 18.7935 113.406 18.9746C113.071 19.1557 112.808 19.4213 112.615 19.7715C112.426 20.1176 112.331 20.5361 112.331 21.0272Z" fill="#E8E8E8"/>
<path d="M124.938 26.5328V14.1692H130.045C130.971 14.1692 131.769 14.3362 132.442 14.6703C133.118 15.0003 133.639 15.4752 134.005 16.095C134.371 16.7107 134.555 17.4412 134.555 18.2864C134.555 19.1436 134.367 19.8721 133.993 20.4718C133.619 21.0674 133.088 21.5222 132.399 21.8361C131.711 22.146 130.896 22.3009 129.954 22.3009H126.725V19.9465H129.399C129.85 19.9465 130.226 19.8882 130.528 19.7715C130.834 19.6507 131.065 19.4696 131.222 19.2281C131.379 18.9826 131.458 18.6687 131.458 18.2864C131.458 17.904 131.379 17.5881 131.222 17.3386C131.065 17.085 130.834 16.8959 130.528 16.7711C130.222 16.6423 129.846 16.5779 129.399 16.5779H127.926V26.5328H124.938ZM131.898 20.8823L134.977 26.5328H131.717L128.699 20.8823H131.898ZM140.345 26.7079C139.375 26.7079 138.538 26.5167 137.834 26.1344C137.134 25.748 136.594 25.1987 136.216 24.4863C135.842 23.7699 135.655 22.9187 135.655 21.9327C135.655 20.9748 135.844 20.1377 136.222 19.4213C136.601 18.7009 137.134 18.1415 137.822 17.7431C138.51 17.3406 139.321 17.1394 140.255 17.1394C140.915 17.1394 141.519 17.242 142.066 17.4473C142.613 17.6525 143.086 17.9564 143.485 18.3588C143.883 18.7613 144.193 19.2583 144.414 19.85C144.636 20.4375 144.746 21.1117 144.746 21.8723V22.6088H136.687V20.8943H142C141.996 20.5804 141.921 20.3007 141.776 20.0552C141.631 19.8097 141.432 19.6185 141.179 19.4817C140.929 19.3408 140.641 19.2704 140.315 19.2704C139.985 19.2704 139.689 19.3449 139.428 19.4938C139.166 19.6387 138.959 19.8379 138.806 20.0914C138.653 20.341 138.573 20.6247 138.565 20.9426V22.6873C138.565 23.0656 138.639 23.3977 138.788 23.6834C138.937 23.9651 139.148 24.1845 139.422 24.3414C139.695 24.4984 140.021 24.5769 140.4 24.5769C140.661 24.5769 140.899 24.5406 141.112 24.4682C141.325 24.3958 141.509 24.2891 141.661 24.1482C141.814 24.0074 141.929 23.8343 142.006 23.6291L144.716 23.7075C144.603 24.3153 144.356 24.8445 143.974 25.2953C143.595 25.742 143.098 26.0901 142.483 26.3397C141.867 26.5852 141.154 26.7079 140.345 26.7079ZM148.868 26.6898C148.276 26.6898 147.751 26.5912 147.292 26.394C146.838 26.1928 146.477 25.8909 146.212 25.4884C145.95 25.082 145.819 24.5728 145.819 23.9611C145.819 23.4459 145.91 23.0113 146.091 22.6571C146.272 22.303 146.522 22.0152 146.84 21.7938C147.158 21.5725 147.524 21.4055 147.938 21.2928C148.353 21.1761 148.796 21.0976 149.267 21.0573C149.794 21.009 150.218 20.9587 150.54 20.9064C150.862 20.8501 151.096 20.7716 151.241 20.671C151.389 20.5663 151.464 20.4194 151.464 20.2303V20.2001C151.464 19.8902 151.357 19.6507 151.144 19.4817C150.931 19.3127 150.643 19.2281 150.281 19.2281C149.89 19.2281 149.576 19.3127 149.339 19.4817C149.101 19.6507 148.951 19.8842 148.886 20.182L146.164 20.0854C146.244 19.5219 146.451 19.0189 146.785 18.5762C147.123 18.1294 147.586 17.7793 148.174 17.5257C148.765 17.2682 149.476 17.1394 150.305 17.1394C150.896 17.1394 151.442 17.2098 151.941 17.3507C152.44 17.4875 152.875 17.6887 153.245 17.9544C153.615 18.216 153.901 18.5379 154.102 18.9203C154.307 19.3026 154.41 19.7393 154.41 20.2303V26.5328H151.633V25.2409H151.561C151.396 25.5548 151.184 25.8205 150.927 26.0378C150.673 26.2551 150.373 26.4181 150.027 26.5268C149.685 26.6355 149.299 26.6898 148.868 26.6898ZM149.78 24.758C150.098 24.758 150.383 24.6936 150.637 24.5648C150.894 24.436 151.1 24.2589 151.253 24.0335C151.406 23.8041 151.482 23.5385 151.482 23.2367V22.3553C151.398 22.3995 151.295 22.4398 151.174 22.476C151.057 22.5122 150.929 22.5464 150.788 22.5786C150.647 22.6108 150.502 22.639 150.353 22.6632C150.204 22.6873 150.061 22.7094 149.925 22.7296C149.647 22.7738 149.409 22.8423 149.212 22.9348C149.019 23.0274 148.87 23.1481 148.765 23.297C148.665 23.4419 148.615 23.615 148.615 23.8162C148.615 24.1221 148.723 24.3555 148.941 24.5165C149.162 24.6775 149.442 24.758 149.78 24.758ZM160.543 26.7079C159.566 26.7079 158.726 26.5067 158.026 26.1042C157.33 25.7017 156.795 25.1423 156.42 24.4259C156.046 23.7055 155.859 22.8724 155.859 21.9267C155.859 20.9768 156.046 20.1437 156.42 19.4274C156.799 18.707 157.336 18.1455 158.032 17.7431C158.732 17.3406 159.568 17.1394 160.537 17.1394C161.395 17.1394 162.141 17.2943 162.777 17.6042C163.417 17.9141 163.916 18.3528 164.274 18.9203C164.637 19.4837 164.828 20.1458 164.848 20.9064H162.089C162.033 20.4315 161.872 20.0592 161.606 19.7896C161.344 19.5199 161.002 19.3851 160.58 19.3851C160.238 19.3851 159.938 19.4817 159.68 19.6749C159.423 19.864 159.221 20.1458 159.077 20.52C158.936 20.8903 158.865 21.3491 158.865 21.8965C158.865 22.4438 158.936 22.9066 159.077 23.285C159.221 23.6593 159.423 23.943 159.68 24.1362C159.938 24.3253 160.238 24.4199 160.58 24.4199C160.853 24.4199 161.095 24.3615 161.304 24.2448C161.517 24.1281 161.693 23.9571 161.829 23.7317C161.966 23.5023 162.053 23.2246 162.089 22.8986H164.848C164.82 23.6633 164.628 24.3314 164.274 24.9029C163.924 25.4744 163.431 25.9191 162.795 26.237C162.163 26.5509 161.413 26.7079 160.543 26.7079ZM171.593 17.2601V19.4334H165.743V17.2601H171.593ZM166.968 15.0385H169.92V23.617C169.92 23.7981 169.949 23.945 170.005 24.0577C170.065 24.1664 170.152 24.2448 170.264 24.2931C170.377 24.3374 170.512 24.3595 170.669 24.3595C170.782 24.3595 170.9 24.3495 171.025 24.3294C171.154 24.3052 171.25 24.2851 171.315 24.269L171.762 26.4C171.621 26.4403 171.422 26.4906 171.164 26.5509C170.91 26.6113 170.607 26.6495 170.252 26.6656C169.56 26.6978 168.967 26.6173 168.471 26.4242C167.98 26.227 167.604 25.9211 167.343 25.5066C167.085 25.092 166.96 24.5708 166.968 23.943V15.0385Z" fill="#61DAFB"/>
</g>
<rect x="1.07192" y="1.10353" width="178.858" height="37.8585" rx="6.92857" stroke="white" stroke-opacity="0.15" stroke-width="2.14286"/>
<defs>
<filter id="filter0_d_2_1141" x="2.40021" y="0.431824" width="39.9027" height="39.2019" filterUnits="userSpaceOnUse" color-interpolation-filters="sRGB">
<feFlood flood-opacity="0" result="BackgroundImageFix"/>
<feColorMatrix in="SourceAlpha" type="matrix" values="0 0 0 0 0 0 0 0 0 0 0 0 0 0 0 0 0 0 127 0" result="hardAlpha"/>
<feOffset/>
<feGaussianBlur stdDeviation="2.80014"/>
<feComposite in2="hardAlpha" operator="out"/>
<feColorMatrix type="matrix" values="0 0 0 0 0 0 0 0 0 0 0 0 0 0 0 0 0 0 0.25 0"/>
<feBlend mode="normal" in2="BackgroundImageFix" result="effect1_dropShadow_2_1141"/>
<feBlend mode="normal" in="SourceGraphic" in2="effect1_dropShadow_2_1141" result="shape"/>
</filter>
<filter id="filter1_d_2_1141" x="38.2877" y="3.81855" width="140.429" height="32.4286" filterUnits="userSpaceOnUse" color-interpolation-filters="sRGB">
<feFlood flood-opacity="0" result="BackgroundImageFix"/>
<feColorMatrix in="SourceAlpha" type="matrix" values="0 0 0 0 0 0 0 0 0 0 0 0 0 0 0 0 0 0 127 0" result="hardAlpha"/>
<feOffset/>
<feGaussianBlur stdDeviation="2.85714"/>
<feComposite in2="hardAlpha" operator="out"/>
<feColorMatrix type="matrix" values="0 0 0 0 0 0 0 0 0 0 0 0 0 0 0 0 0 0 0.25 0"/>
<feBlend mode="normal" in2="BackgroundImageFix" result="effect1_dropShadow_2_1141"/>
<feBlend mode="normal" in="SourceGraphic" in2="effect1_dropShadow_2_1141" result="shape"/>
</filter>
<linearGradient id="paint0_linear_2_1141" x1="90.5012" y1="0.0321045" x2="90.5012" y2="40.0335" gradientUnits="userSpaceOnUse">
<stop stop-color="#0F343E"/>
<stop offset="1" stop-color="#072027"/>
</linearGradient>
</defs>
</svg>
