<svg width="180" height="41" viewBox="0 0 180 41" fill="none" xmlns="http://www.w3.org/2000/svg">
<rect x="0.000488281" y="0.0321045" width="179.001" height="40.0014" rx="8" fill="url(#paint0_linear_2_1141)"/>
<g filter="url(#filter0_d_2_1141)">
<path d="M25.3037 20.036C25.3037 20.7349 25.029 21.4053 24.54 21.8997C24.051 22.394 23.3877 22.6719 22.696 22.6722C22.0041 22.6722 21.3406 22.3945 20.8513 21.9001C20.3621 21.4057 20.0872 20.7351 20.0872 20.036C20.0872 19.337 20.3619 18.6666 20.8509 18.1723C21.3399 17.6779 22.0032 17.4 22.6949 17.3997C23.3868 17.3997 24.0503 17.6774 24.5396 18.1718C25.0288 18.6662 25.3037 19.3368 25.3037 20.036ZM28.3932 7.43237C26.8227 7.43237 24.7681 8.56422 22.6902 10.5237C20.6134 8.57483 18.5577 7.45595 16.9884 7.45595C16.5101 7.45595 16.0749 7.5656 15.698 7.78372C14.0938 8.71867 13.7344 11.632 14.5628 15.2881C11.0113 16.3964 8.70117 18.1684 8.70117 20.036C8.70117 21.9106 11.023 23.6873 14.585 24.7873C13.7636 28.4576 14.1299 31.3756 15.7377 32.3094C16.111 32.5299 16.5427 32.6336 17.0234 32.6336C18.5927 32.6336 20.6484 31.5018 22.7264 29.5399C24.8031 31.49 26.8589 32.6089 28.4282 32.6089C28.9065 32.6089 29.3417 32.5028 29.7186 32.2846C31.3216 31.3509 31.6822 28.4375 30.8538 24.7803C34.3925 23.6814 36.7026 21.9059 36.7026 20.036C36.7026 18.1613 34.3808 16.3846 30.8188 15.2822C31.6402 11.6155 31.2738 8.69509 29.6661 7.76014C29.295 7.5432 28.8633 7.43355 28.392 7.43237H28.3932ZM28.3873 8.71749V8.72456C28.6498 8.72456 28.861 8.77644 29.0384 8.8743C29.8154 9.32468 30.1526 11.0378 29.8901 13.2413C29.8271 13.7837 29.7244 14.3555 29.5984 14.9391C28.4783 14.6609 27.2579 14.4475 25.9734 14.3095C25.2033 13.2425 24.4041 12.2734 23.5991 11.4245C25.4565 9.67956 27.2008 8.72221 28.3885 8.71867L28.3873 8.71749ZM16.9884 8.74107C18.1691 8.74107 19.9216 9.69371 21.7837 11.4292C20.9833 12.2781 20.1852 13.2413 19.4269 14.3083C18.1353 14.4463 16.9137 14.6597 15.7949 14.9426C15.6642 14.3649 15.5673 13.8061 15.4985 13.2685C15.2302 11.0661 15.5615 9.35415 16.3316 8.89788C16.5532 8.79177 16.7982 8.74814 16.9884 8.74225V8.74107ZM22.6844 12.337C23.2152 12.8888 23.7461 13.5066 24.2711 14.181C23.7578 14.1574 23.2327 14.1409 22.7019 14.1409C22.1652 14.1409 21.6343 14.1527 21.1151 14.181C21.6285 13.5066 22.1593 12.8888 22.6844 12.3359V12.337ZM22.7019 15.4331C23.5652 15.4331 24.4251 15.4732 25.271 15.5428C25.7447 16.2289 26.2067 16.9611 26.6512 17.7357C27.0853 18.4903 27.4796 19.2566 27.839 20.0301C27.4796 20.8023 27.0853 21.5746 26.6571 22.3291C26.2137 23.1073 25.7552 23.8477 25.2803 24.5339C24.431 24.6081 23.5699 24.6494 22.7019 24.6494C21.8385 24.6494 20.9786 24.6081 20.1327 24.5398C19.6591 23.8536 19.197 23.1202 18.7525 22.3468C18.3185 21.5922 17.9241 20.8259 17.5648 20.0525C17.9183 19.2778 18.3185 18.5044 18.7467 17.7487C19.19 16.9705 19.6486 16.2325 20.1234 15.5463C20.9728 15.4708 21.8338 15.4308 22.7019 15.4308V15.4331ZM18.4608 15.7326C18.1808 16.1771 17.9008 16.6322 17.6395 17.1002C17.3769 17.56 17.1319 18.0222 16.8986 18.4844C16.5894 17.7109 16.3269 16.9399 16.1099 16.1889C16.8566 16.012 17.6441 15.8552 18.4608 15.7338V15.7326ZM26.9313 15.7326C27.7421 15.854 28.5238 16.0037 29.2717 16.1889C29.0617 16.934 28.7992 17.7003 28.5017 18.4679C28.2683 18.0081 28.0233 17.5447 27.755 17.0837C27.4924 16.6215 27.2124 16.1712 26.9324 15.7326H26.9313ZM30.5049 16.5284C31.0696 16.7053 31.6063 16.9022 32.1092 17.1156C34.1299 17.988 35.4367 19.1293 35.4367 20.0348C35.4308 20.9402 34.1241 22.0862 32.1033 22.9528C31.6133 23.165 31.0766 23.356 30.5224 23.5341C30.1957 22.4046 29.7687 21.2279 29.239 20.0206C29.7641 18.8216 30.1841 17.6508 30.5049 16.526V16.5284ZM14.8766 16.5331C15.201 17.665 15.6292 18.8404 16.16 20.0466C15.635 21.2456 15.2127 22.4164 14.893 23.5411C14.3283 23.3643 13.7916 23.1662 13.2946 22.9516C11.2738 22.0827 9.96707 20.9402 9.96707 20.0348C9.96707 19.1293 11.2738 17.9809 13.2946 17.1156C13.7846 16.9033 14.3213 16.7123 14.8766 16.5331ZM28.5017 21.5793C28.8108 22.3539 29.0734 23.1261 29.2904 23.876C28.5437 24.0611 27.755 24.2179 26.9382 24.3358C27.2183 23.8937 27.4983 23.4374 27.7608 22.9705C28.0233 22.5107 28.2683 22.0414 28.5028 21.5793H28.5017ZM16.8986 21.6028C17.1319 22.065 17.3769 22.526 17.6453 22.9882C17.9136 23.448 18.1878 23.8984 18.4678 24.3358C17.657 24.2155 16.8752 24.0646 16.1274 23.8807C16.3374 23.1379 16.6011 22.3692 16.8974 21.6017L16.8986 21.6028ZM29.6089 25.1245C29.7396 25.7058 29.8422 26.2658 29.9052 26.8023C30.1736 29.0047 29.8422 30.7166 29.0722 31.174C28.9007 31.2801 28.6778 31.3249 28.4153 31.3249C27.2346 31.3249 25.4822 30.3735 23.6201 28.6368C24.4205 27.7879 25.2185 26.8258 25.9769 25.76C27.2684 25.6209 28.49 25.4063 29.6089 25.1234V25.1245ZM15.8065 25.1363C16.9266 25.4122 18.147 25.6256 19.4315 25.7636C20.2016 26.8306 21.0008 27.7997 21.8058 28.6474C19.9449 30.3959 18.1983 31.3532 17.0106 31.3532C16.7539 31.3473 16.5369 31.2943 16.3654 31.1976C15.5883 30.7496 15.2512 29.0353 15.5137 26.8317C15.5767 26.2894 15.6794 25.7188 15.8054 25.1363H15.8065ZM21.1268 25.8909C21.6402 25.9145 22.1652 25.931 22.696 25.931C23.2327 25.931 23.7636 25.9192 24.2828 25.8909C23.7694 26.5653 23.2386 27.1819 22.7135 27.736C22.1827 27.1819 21.6518 26.5653 21.1268 25.8909Z" fill="#61DAFB"/>
</g>
<g filter="url(#filter1_d_2_1141)">
<path d="M43.3603 26.5328V14.1692H47.888C48.7653 14.1692 49.4918 14.3141 50.0673 14.6039C50.6428 14.8896 51.0734 15.278 51.3592 15.769C51.6449 16.256 51.7878 16.8053 51.7878 17.4171C51.7878 17.9322 51.6932 18.3669 51.5041 18.721C51.3149 19.0712 51.0614 19.3529 50.7434 19.5662C50.4295 19.7755 50.0834 19.9284 49.7051 20.025V20.1458C50.1156 20.1659 50.516 20.2987 50.9064 20.5442C51.3008 20.7857 51.6268 21.1298 51.8844 21.5765C52.142 22.0232 52.2708 22.5666 52.2708 23.2065C52.2708 23.8383 52.1219 24.4058 51.824 24.9089C51.5302 25.408 51.0755 25.8044 50.4597 26.0982C49.8439 26.3879 49.0571 26.5328 48.0993 26.5328H43.3603ZM45.2257 24.933H47.9181C48.8116 24.933 49.4515 24.76 49.8379 24.4139C50.2243 24.0678 50.4174 23.6351 50.4174 23.1159C50.4174 22.7255 50.3188 22.3674 50.1216 22.0414C49.9244 21.7154 49.6427 21.4558 49.2765 21.2626C48.9142 21.0694 48.4836 20.9728 47.9846 20.9728H45.2257V24.933ZM45.2257 19.5179H47.725C48.1435 19.5179 48.5198 19.4374 48.8539 19.2764C49.1919 19.1155 49.4596 18.8901 49.6568 18.6003C49.858 18.3065 49.9586 17.9604 49.9586 17.562C49.9586 17.0508 49.7795 16.6222 49.4213 16.2761C49.0631 15.93 48.5138 15.7569 47.7733 15.7569H45.2257V19.5179ZM60.2124 22.6873V17.2601H62.0234V26.5328H60.2486V24.927H60.152C59.9387 25.422 59.5966 25.8346 59.1257 26.1646C58.6588 26.4906 58.0773 26.6536 57.381 26.6536C56.7854 26.6536 56.2582 26.5228 55.7994 26.2612C55.3446 25.9955 54.9864 25.6031 54.7248 25.084C54.4672 24.5648 54.3384 23.9229 54.3384 23.1582V17.2601H56.1435V22.9409C56.1435 23.5727 56.3185 24.0758 56.6687 24.4501C57.0188 24.8244 57.4736 25.0115 58.033 25.0115C58.3711 25.0115 58.7071 24.927 59.0412 24.758C59.3793 24.5889 59.659 24.3334 59.8803 23.9913C60.1057 23.6492 60.2164 23.2145 60.2124 22.6873ZM64.4488 26.5328V17.2601H66.2538V26.5328H64.4488ZM65.3603 15.8294C65.0464 15.8294 64.7768 15.7247 64.5514 15.5154C64.33 15.3021 64.2194 15.0486 64.2194 14.7548C64.2194 14.457 64.33 14.2034 64.5514 13.9941C64.7768 13.7808 65.0464 13.6742 65.3603 13.6742C65.6743 13.6742 65.9419 13.7808 66.1633 13.9941C66.3886 14.2034 66.5013 14.457 66.5013 14.7548C66.5013 15.0486 66.3886 15.3021 66.1633 15.5154C65.9419 15.7247 65.6743 15.8294 65.3603 15.8294ZM70.4872 14.1692V26.5328H68.6822V14.1692H70.4872ZM77.244 17.2601V18.709H72.1791V17.2601H77.244ZM73.5374 15.0385H75.3424V23.8102C75.3424 24.1603 75.3947 24.4239 75.4994 24.601C75.604 24.7741 75.7388 24.8928 75.9038 24.9572C76.0729 25.0176 76.256 25.0477 76.4532 25.0477C76.5981 25.0477 76.7249 25.0377 76.8335 25.0176C76.9422 24.9974 77.0267 24.9813 77.0871 24.9693L77.4131 26.4604C77.3084 26.5006 77.1595 26.5409 76.9663 26.5811C76.7732 26.6254 76.5317 26.6495 76.2419 26.6536C75.767 26.6616 75.3243 26.5771 74.9138 26.4C74.5033 26.2229 74.1712 25.9493 73.9177 25.579C73.6641 25.2087 73.5374 24.7439 73.5374 24.1845V15.0385ZM85.7501 26.5328L83.0214 17.2601H84.8868L86.7039 24.0698H86.7945L88.6176 17.2601H90.483L92.2941 24.0396H92.3847L94.1897 17.2601H96.0551L93.3325 26.5328H91.4912L89.6077 19.8379H89.4688L87.5853 26.5328H85.7501ZM97.7681 26.5328V17.2601H99.5731V26.5328H97.7681ZM98.6797 15.8294C98.3658 15.8294 98.0961 15.7247 97.8707 15.5154C97.6494 15.3021 97.5387 15.0486 97.5387 14.7548C97.5387 14.457 97.6494 14.2034 97.8707 13.9941C98.0961 13.7808 98.3658 13.6742 98.6797 13.6742C98.9936 13.6742 99.2612 13.7808 99.4826 13.9941C99.708 14.2034 99.8207 14.457 99.8207 14.7548C99.8207 15.0486 99.708 15.3021 99.4826 15.5154C99.2612 15.7247 98.9936 15.8294 98.6797 15.8294ZM106.33 17.2601V18.709H101.265V17.2601H106.33ZM102.623 15.0385H104.428V23.8102C104.428 24.1603 104.481 24.4239 104.585 24.601C104.69 24.7741 104.825 24.8928 104.99 24.9572C105.159 25.0176 105.342 25.0477 105.539 25.0477C105.684 25.0477 105.811 25.0377 105.919 25.0176C106.028 24.9974 106.113 24.9813 106.173 24.9693L106.499 26.4604C106.394 26.5006 106.245 26.5409 106.052 26.5811C105.859 26.6254 105.618 26.6495 105.328 26.6536C104.853 26.6616 104.41 26.5771 104 26.4C103.589 26.2229 103.257 25.9493 103.004 25.579C102.75 25.2087 102.623 24.7439 102.623 24.1845V15.0385ZM110.331 21.0272V26.5328H108.526V14.1692H110.307V18.7693H110.421C110.639 18.2703 110.971 17.8739 111.418 17.5801C111.864 17.2863 112.448 17.1394 113.168 17.1394C113.804 17.1394 114.36 17.2702 114.834 17.5318C115.313 17.7934 115.684 18.1838 115.945 18.7029C116.211 19.2181 116.344 19.862 116.344 20.6348V26.5328H114.539V20.8521C114.539 20.1719 114.364 19.6447 114.013 19.2704C113.663 18.8921 113.176 18.7029 112.553 18.7029C112.126 18.7029 111.744 18.7935 111.406 18.9746C111.071 19.1557 110.808 19.4213 110.615 19.7715C110.426 20.1176 110.331 20.5361 110.331 21.0272Z" fill="#E8E8E8"/>
<path d="M122.938 26.5328V14.1692H128.045C128.971 14.1692 129.769 14.3362 130.442 14.6703C131.118 15.0003 131.639 15.4752 132.005 16.095C132.371 16.7107 132.555 17.4412 132.555 18.2864C132.555 19.1436 132.367 19.8721 131.993 20.4718C131.619 21.0674 131.088 21.5222 130.399 21.8361C129.711 22.146 128.896 22.3009 127.954 22.3009H124.725V19.9465H127.399C127.85 19.9465 128.226 19.8882 128.528 19.7715C128.834 19.6507 129.065 19.4696 129.222 19.2281C129.379 18.9826 129.458 18.6687 129.458 18.2864C129.458 17.904 129.379 17.5881 129.222 17.3386C129.065 17.085 128.834 16.8959 128.528 16.7711C128.222 16.6423 127.846 16.5779 127.399 16.5779H125.926V26.5328H122.938ZM129.898 20.8823L132.977 26.5328H129.717L126.699 20.8823H129.898ZM138.345 26.7079C137.375 26.7079 136.538 26.5167 135.834 26.1344C135.134 25.748 134.594 25.1987 134.216 24.4863C133.842 23.7699 133.655 22.9187 133.655 21.9327C133.655 20.9748 133.844 20.1377 134.222 19.4213C134.601 18.7009 135.134 18.1415 135.822 17.7431C136.51 17.3406 137.321 17.1394 138.255 17.1394C138.915 17.1394 139.519 17.242 140.066 17.4473C140.613 17.6525 141.086 17.9564 141.485 18.3588C141.883 18.7613 142.193 19.2583 142.414 19.85C142.636 20.4375 142.746 21.1117 142.746 21.8723V22.6088H134.687V20.8943H140C139.996 20.5804 139.921 20.3007 139.776 20.0552C139.631 19.8097 139.432 19.6185 139.179 19.4817C138.929 19.3408 138.641 19.2704 138.315 19.2704C137.985 19.2704 137.689 19.3449 137.428 19.4938C137.166 19.6387 136.959 19.8379 136.806 20.0914C136.653 20.341 136.573 20.6247 136.565 20.9426V22.6873C136.565 23.0656 136.639 23.3977 136.788 23.6834C136.937 23.9651 137.148 24.1845 137.422 24.3414C137.695 24.4984 138.021 24.5769 138.4 24.5769C138.661 24.5769 138.899 24.5406 139.112 24.4682C139.325 24.3958 139.509 24.2891 139.661 24.1482C139.814 24.0074 139.929 23.8343 140.006 23.6291L142.716 23.7075C142.603 24.3153 142.356 24.8445 141.974 25.2953C141.595 25.742 141.098 26.0901 140.483 26.3397C139.867 26.5852 139.154 26.7079 138.345 26.7079ZM146.868 26.6898C146.276 26.6898 145.751 26.5912 145.292 26.394C144.838 26.1928 144.477 25.8909 144.212 25.4884C143.95 25.082 143.819 24.5728 143.819 23.9611C143.819 23.4459 143.91 23.0113 144.091 22.6571C144.272 22.303 144.522 22.0152 144.84 21.7938C145.158 21.5725 145.524 21.4055 145.938 21.2928C146.353 21.1761 146.796 21.0976 147.267 21.0573C147.794 21.009 148.218 20.9587 148.54 20.9064C148.862 20.8501 149.096 20.7716 149.241 20.671C149.389 20.5663 149.464 20.4194 149.464 20.2303V20.2001C149.464 19.8902 149.357 19.6507 149.144 19.4817C148.931 19.3127 148.643 19.2281 148.281 19.2281C147.89 19.2281 147.576 19.3127 147.339 19.4817C147.101 19.6507 146.951 19.8842 146.886 20.182L144.164 20.0854C144.244 19.5219 144.451 19.0189 144.785 18.5762C145.123 18.1294 145.586 17.7793 146.174 17.5257C146.765 17.2682 147.476 17.1394 148.305 17.1394C148.896 17.1394 149.442 17.2098 149.941 17.3507C150.44 17.4875 150.875 17.6887 151.245 17.9544C151.615 18.216 151.901 18.5379 152.102 18.9203C152.307 19.3026 152.41 19.7393 152.41 20.2303V26.5328H149.633V25.2409H149.561C149.396 25.5548 149.184 25.8205 148.927 26.0378C148.673 26.2551 148.373 26.4181 148.027 26.5268C147.685 26.6355 147.299 26.6898 146.868 26.6898ZM147.78 24.758C148.098 24.758 148.383 24.6936 148.637 24.5648C148.894 24.436 149.1 24.2589 149.253 24.0335C149.406 23.8041 149.482 23.5385 149.482 23.2367V22.3553C149.398 22.3995 149.295 22.4398 149.174 22.476C149.057 22.5122 148.929 22.5464 148.788 22.5786C148.647 22.6108 148.502 22.639 148.353 22.6632C148.204 22.6873 148.061 22.7094 147.925 22.7296C147.647 22.7738 147.409 22.8423 147.212 22.9348C147.019 23.0274 146.87 23.1481 146.765 23.297C146.665 23.4419 146.615 23.615 146.615 23.8162C146.615 24.1221 146.723 24.3555 146.941 24.5165C147.162 24.6775 147.442 24.758 147.78 24.758ZM158.543 26.7079C157.566 26.7079 156.726 26.5067 156.026 26.1042C155.33 25.7017 154.795 25.1423 154.42 24.4259C154.046 23.7055 153.859 22.8724 153.859 21.9267C153.859 20.9768 154.046 20.1437 154.42 19.4274C154.799 18.707 155.336 18.1455 156.032 17.7431C156.732 17.3406 157.568 17.1394 158.537 17.1394C159.395 17.1394 160.141 17.2943 160.777 17.6042C161.417 17.9141 161.916 18.3528 162.274 18.9203C162.637 19.4837 162.828 20.1458 162.848 20.9064H160.089C160.033 20.4315 159.872 20.0592 159.606 19.7896C159.344 19.5199 159.002 19.3851 158.58 19.3851C158.238 19.3851 157.938 19.4817 157.68 19.6749C157.423 19.864 157.221 20.1458 157.077 20.52C156.936 20.8903 156.865 21.3491 156.865 21.8965C156.865 22.4438 156.936 22.9066 157.077 23.285C157.221 23.6593 157.423 23.943 157.68 24.1362C157.938 24.3253 158.238 24.4199 158.58 24.4199C158.853 24.4199 159.095 24.3615 159.304 24.2448C159.517 24.1281 159.693 23.9571 159.829 23.7317C159.966 23.5023 160.053 23.2246 160.089 22.8986H162.848C162.82 23.6633 162.628 24.3314 162.274 24.9029C161.924 25.4744 161.431 25.9191 160.795 26.237C160.163 26.5509 159.413 26.7079 158.543 26.7079ZM169.593 17.2601V19.4334H163.743V17.2601H169.593ZM164.968 15.0385H167.92V23.617C167.92 23.7981 167.949 23.945 168.005 24.0577C168.065 24.1664 168.152 24.2448 168.264 24.2931C168.377 24.3374 168.512 24.3595 168.669 24.3595C168.782 24.3595 168.9 24.3495 169.025 24.3294C169.154 24.3052 169.25 24.2851 169.315 24.269L169.762 26.4C169.621 26.4403 169.422 26.4906 169.164 26.5509C168.91 26.6113 168.607 26.6495 168.252 26.6656C167.56 26.6978 166.967 26.6173 166.471 26.4242C165.98 26.227 165.604 25.9211 165.343 25.5066C165.085 25.092 164.96 24.5708 164.968 23.943V15.0385Z" fill="#61DAFB"/>
</g>
<rect x="1.07192" y="1.10353" width="176.859" height="37.8585" rx="6.92857" stroke="white" stroke-opacity="0.15" stroke-width="2.14286"/>
<defs>
<filter id="filter0_d_2_1141" x="2.40021" y="0.431824" width="39.9027" height="39.2019" filterUnits="userSpaceOnUse" color-interpolation-filters="sRGB">
<feFlood flood-opacity="0" result="BackgroundImageFix"/>
<feColorMatrix in="SourceAlpha" type="matrix" values="0 0 0 0 0 0 0 0 0 0 0 0 0 0 0 0 0 0 127 0" result="hardAlpha"/>
<feOffset/>
<feGaussianBlur stdDeviation="2.80014"/>
<feComposite in2="hardAlpha" operator="out"/>
<feColorMatrix type="matrix" values="0 0 0 0 0 0 0 0 0 0 0 0 0 0 0 0 0 0 0.25 0"/>
<feBlend mode="normal" in2="BackgroundImageFix" result="effect1_dropShadow_2_1141"/>
<feBlend mode="normal" in="SourceGraphic" in2="effect1_dropShadow_2_1141" result="shape"/>
</filter>
<filter id="filter1_d_2_1141" x="36.2877" y="3.81855" width="140.429" height="32.4286" filterUnits="userSpaceOnUse" color-interpolation-filters="sRGB">
<feFlood flood-opacity="0" result="BackgroundImageFix"/>
<feColorMatrix in="SourceAlpha" type="matrix" values="0 0 0 0 0 0 0 0 0 0 0 0 0 0 0 0 0 0 127 0" result="hardAlpha"/>
<feOffset/>
<feGaussianBlur stdDeviation="2.85714"/>
<feComposite in2="hardAlpha" operator="out"/>
<feColorMatrix type="matrix" values="0 0 0 0 0 0 0 0 0 0 0 0 0 0 0 0 0 0 0.25 0"/>
<feBlend mode="normal" in2="BackgroundImageFix" result="effect1_dropShadow_2_1141"/>
<feBlend mode="normal" in="SourceGraphic" in2="effect1_dropShadow_2_1141" result="shape"/>
</filter>
<linearGradient id="paint0_linear_2_1141" x1="89.5012" y1="0.0321045" x2="89.5012" y2="40.0335" gradientUnits="userSpaceOnUse">
<stop stop-color="#0F343E"/>
<stop offset="1" stop-color="#072027"/>
</linearGradient>
</defs>
</svg>
