<svg width="171" height="41" viewBox="0 0 171 41" fill="none" xmlns="http://www.w3.org/2000/svg">
<g clip-path="url(#clip0_2_3709)">
<rect x="0.000488281" y="0.0361328" width="171" height="40" rx="8" fill="url(#paint0_linear_2_3709)"/>
<g filter="url(#filter0_d_2_3709)">
<g clip-path="url(#clip1_2_3709)">
<path fill-rule="evenodd" clip-rule="evenodd" d="M22.0006 6.03606C29.7326 6.03606 36.0006 12.3041 36.0006 20.0361C36.0006 27.7681 29.7326 34.0361 22.0006 34.0361C14.2685 34.0361 8.00049 27.7681 8.00049 20.0361C8.00049 12.3041 14.2685 6.03606 22.0006 6.03606Z" fill="#CD6699"/>
<path d="M19.2183 24.6996C19.422 25.453 19.3996 26.1556 19.1893 26.7919C19.1659 26.8626 19.1401 26.9325 19.1122 27.0016C19.0843 27.0706 19.054 27.1388 19.0216 27.2061C18.8593 27.5428 18.6416 27.8579 18.3749 28.1487C17.5615 29.0362 16.425 29.3717 15.9377 29.089C15.4114 28.7839 15.675 27.5327 16.6181 26.5359C17.6327 25.4633 19.0925 24.7737 19.0925 24.7737L19.0903 24.7693C19.1323 24.7467 19.175 24.7234 19.2183 24.6996ZM30.7824 12.0282C30.1484 9.54178 26.0255 8.72441 22.1235 10.1107C19.8014 10.9356 17.2875 12.2304 15.4799 13.9212C13.3307 15.9314 12.988 17.6811 13.1293 18.4121C13.6275 20.9918 17.1622 22.678 18.6153 23.9291V23.9366C18.1868 24.1476 15.0508 25.7346 14.317 27.3571C13.5426 29.0687 14.4402 30.297 15.0345 30.4624C16.8758 30.9746 18.7653 30.0532 19.7807 28.5386C20.7606 27.077 20.679 25.1895 20.2531 24.2507C20.8406 24.0957 21.5254 24.0262 22.3957 24.1279C24.8516 24.4148 25.3334 25.9482 25.2413 26.5898C25.1492 27.2317 24.6341 27.5845 24.4619 27.6911C24.2896 27.7976 24.2371 27.8345 24.2516 27.9137C24.2724 28.0289 24.3522 28.0246 24.499 27.9997C24.7012 27.9656 25.7886 27.4777 25.8351 26.2931C25.8943 24.789 24.453 23.1066 21.9009 23.1505C20.8498 23.1687 20.1889 23.2686 19.7116 23.4463C19.6763 23.4061 19.6403 23.3661 19.6032 23.3265C18.0254 21.6432 15.1088 20.4524 15.2325 18.1894C15.2774 17.3667 15.5634 15.2004 20.8369 12.5726C25.1568 10.4201 28.615 11.0124 29.2127 12.3252C30.0664 14.2007 27.3645 17.6866 22.8782 18.1894C21.169 18.3811 20.269 17.7186 20.0451 17.4719C19.8094 17.2122 19.7743 17.2005 19.6863 17.2492C19.543 17.3286 19.6338 17.5579 19.6863 17.6946C19.8203 18.0432 20.3699 18.6614 21.307 18.9688C22.1314 19.2394 24.1382 19.388 26.5651 18.4493C29.2832 17.3978 31.4058 14.473 30.7824 12.0282Z" fill="white"/>
</g>
</g>
<g filter="url(#filter1_d_2_3709)">
<path d="M43.3588 26.5361V14.1725H47.8865C48.7639 14.1725 49.4903 14.3174 50.0658 14.6072C50.6413 14.8929 51.072 15.2813 51.3577 15.7723C51.6435 16.2593 51.7864 16.8086 51.7864 17.4204C51.7864 17.9355 51.6918 18.3702 51.5026 18.7243C51.3135 19.0745 51.0599 19.3562 50.742 19.5695C50.428 19.7788 50.0819 19.9317 49.7036 20.0283V20.1491C50.1141 20.1692 50.5146 20.302 50.905 20.5475C51.2994 20.789 51.6254 21.1331 51.8829 21.5798C52.1405 22.0265 52.2693 22.5699 52.2693 23.2098C52.2693 23.8416 52.1204 24.4091 51.8226 24.9122C51.5288 25.4112 51.074 25.8077 50.4582 26.1015C49.8425 26.3912 49.0556 26.5361 48.0978 26.5361H43.3588ZM45.2242 24.9363H47.9167C48.8101 24.9363 49.4501 24.7633 49.8364 24.4172C50.2228 24.071 50.416 23.6384 50.416 23.1192C50.416 22.7288 50.3174 22.3706 50.1202 22.0447C49.923 21.7187 49.6412 21.4591 49.275 21.2659C48.9128 21.0727 48.4821 20.9761 47.9831 20.9761H45.2242V24.9363ZM45.2242 19.5212H47.7235C48.1421 19.5212 48.5184 19.4407 48.8524 19.2797C49.1905 19.1188 49.4581 18.8934 49.6553 18.6036C49.8565 18.3098 49.9572 17.9637 49.9572 17.5652C49.9572 17.0541 49.7781 16.6255 49.4199 16.2794C49.0617 15.9333 48.5123 15.7602 47.7718 15.7602H45.2242V19.5212ZM60.2109 22.6906V17.2634H62.022V26.5361H60.2471V24.9303H60.1505C59.9372 25.4253 59.5951 25.8379 59.1242 26.1679C58.6574 26.4939 58.0758 26.6569 57.3796 26.6569C56.7839 26.6569 56.2567 26.5261 55.7979 26.2645C55.3431 25.9988 54.9849 25.6064 54.7233 25.0873C54.4657 24.5681 54.337 23.9262 54.337 23.1615V17.2634H56.142V22.9442C56.142 23.576 56.3171 24.0791 56.6672 24.4534C57.0174 24.8277 57.4721 25.0148 58.0316 25.0148C58.3696 25.0148 58.7057 24.9303 59.0397 24.7613C59.3778 24.5922 59.6575 24.3367 59.8789 23.9946C60.1042 23.6525 60.2149 23.2178 60.2109 22.6906ZM64.4473 26.5361V17.2634H66.2523V26.5361H64.4473ZM65.3589 15.8327C65.045 15.8327 64.7753 15.728 64.5499 15.5187C64.3286 15.3054 64.2179 15.0519 64.2179 14.7581C64.2179 14.4603 64.3286 14.2067 64.5499 13.9974C64.7753 13.7841 65.045 13.6775 65.3589 13.6775C65.6728 13.6775 65.9404 13.7841 66.1618 13.9974C66.3872 14.2067 66.4999 14.4603 66.4999 14.7581C66.4999 15.0519 66.3872 15.3054 66.1618 15.5187C65.9404 15.728 65.6728 15.8327 65.3589 15.8327ZM70.4857 14.1725V26.5361H68.6807V14.1725H70.4857ZM77.2426 17.2634V18.7123H72.1776V17.2634H77.2426ZM73.5359 15.0418H75.3409V23.8135C75.3409 24.1636 75.3933 24.4272 75.4979 24.6043C75.6025 24.7774 75.7374 24.8961 75.9024 24.9605C76.0714 25.0209 76.2545 25.051 76.4517 25.051C76.5966 25.051 76.7234 25.041 76.8321 25.0209C76.9407 25.0007 77.0252 24.9846 77.0856 24.9726L77.4116 26.4637C77.307 26.5039 77.1581 26.5442 76.9649 26.5844C76.7717 26.6287 76.5302 26.6528 76.2404 26.6569C75.7655 26.6649 75.3228 26.5804 74.9123 26.4033C74.5018 26.2262 74.1698 25.9526 73.9162 25.5823C73.6627 25.212 73.5359 24.7472 73.5359 24.1878V15.0418ZM85.7486 26.5361L83.0199 17.2634H84.8853L86.7024 24.0731H86.793L88.6162 17.2634H90.4816L92.2926 24.0429H92.3832L94.1882 17.2634H96.0537L93.331 26.5361H91.4897L89.6062 19.8412H89.4674L87.5838 26.5361H85.7486ZM97.7666 26.5361V17.2634H99.5717V26.5361H97.7666ZM98.6782 15.8327C98.3643 15.8327 98.0946 15.728 97.8693 15.5187C97.6479 15.3054 97.5372 15.0519 97.5372 14.7581C97.5372 14.4603 97.6479 14.2067 97.8693 13.9974C98.0946 13.7841 98.3643 13.6775 98.6782 13.6775C98.9921 13.6775 99.2598 13.7841 99.4811 13.9974C99.7065 14.2067 99.8192 14.4603 99.8192 14.7581C99.8192 15.0519 99.7065 15.3054 99.4811 15.5187C99.2598 15.728 98.9921 15.8327 98.6782 15.8327ZM106.329 17.2634V18.7123H101.264V17.2634H106.329ZM102.622 15.0418H104.427V23.8135C104.427 24.1636 104.479 24.4272 104.584 24.6043C104.688 24.7774 104.823 24.8961 104.988 24.9605C105.157 25.0209 105.34 25.051 105.538 25.051C105.683 25.051 105.809 25.041 105.918 25.0209C106.027 25.0007 106.111 24.9846 106.172 24.9726L106.498 26.4637C106.393 26.5039 106.244 26.5442 106.051 26.5844C105.858 26.6287 105.616 26.6528 105.326 26.6569C104.851 26.6649 104.409 26.5804 103.998 26.4033C103.588 26.2262 103.256 25.9526 103.002 25.5823C102.749 25.212 102.622 24.7472 102.622 24.1878V15.0418ZM110.329 21.0304V26.5361H108.524V14.1725H110.305V18.7726H110.42C110.637 18.2736 110.969 17.8772 111.416 17.5834C111.863 17.2896 112.446 17.1427 113.167 17.1427C113.803 17.1427 114.358 17.2735 114.833 17.5351C115.312 17.7967 115.682 18.1871 115.944 18.7062C116.209 19.2214 116.342 19.8653 116.342 20.638V26.5361H114.537V20.8554C114.537 20.1752 114.362 19.648 114.012 19.2737C113.662 18.8954 113.175 18.7062 112.551 18.7062C112.124 18.7062 111.742 18.7968 111.404 18.9779C111.07 19.159 110.806 19.4246 110.613 19.7748C110.424 20.1209 110.329 20.5394 110.329 21.0304Z" fill="#E8E8E8"/>
<path d="M129.619 17.3792C129.579 16.9365 129.4 16.5924 129.082 16.3469C128.768 16.0973 128.319 15.9726 127.736 15.9726C127.349 15.9726 127.027 16.0229 126.77 16.1235C126.512 16.2241 126.319 16.363 126.19 16.54C126.061 16.7131 125.995 16.9123 125.991 17.1377C125.983 17.3228 126.019 17.4858 126.1 17.6267C126.184 17.7675 126.305 17.8923 126.462 18.001C126.623 18.1056 126.816 18.1982 127.041 18.2787C127.267 18.3592 127.52 18.4296 127.802 18.49L128.864 18.7314C129.476 18.8643 130.016 19.0413 130.482 19.2627C130.953 19.484 131.348 19.7477 131.666 20.0535C131.988 20.3594 132.231 20.7116 132.396 21.11C132.561 21.5084 132.646 21.9552 132.65 22.4502C132.646 23.231 132.448 23.9011 132.058 24.4605C131.668 25.0199 131.106 25.4485 130.374 25.7464C129.645 26.0442 128.766 26.1931 127.736 26.1931C126.701 26.1931 125.8 26.0381 125.031 25.7282C124.262 25.4183 123.665 24.9475 123.238 24.3156C122.811 23.6837 122.592 22.8849 122.58 21.9189H125.442C125.466 22.3174 125.572 22.6494 125.761 22.915C125.951 23.1807 126.21 23.3819 126.54 23.5187C126.874 23.6556 127.261 23.724 127.699 23.724C128.102 23.724 128.444 23.6697 128.726 23.561C129.011 23.4523 129.231 23.3014 129.384 23.1082C129.537 22.915 129.615 22.6937 129.619 22.4442C129.615 22.2107 129.543 22.0115 129.402 21.8465C129.261 21.6775 129.044 21.5326 128.75 21.4118C128.46 21.2871 128.09 21.1724 127.639 21.0677L126.347 20.7659C125.277 20.5204 124.433 20.124 123.818 19.5766C123.202 19.0252 122.896 18.2807 122.9 17.3429C122.896 16.5783 123.101 15.9082 123.516 15.3327C123.93 14.7571 124.504 14.3084 125.236 13.9864C125.969 13.6644 126.804 13.5035 127.742 13.5035C128.699 13.5035 129.531 13.6665 130.235 13.9925C130.943 14.3144 131.493 14.7672 131.883 15.3508C132.273 15.9343 132.473 16.6105 132.481 17.3792H129.619ZM136.773 26.1931C136.181 26.1931 135.656 26.0945 135.197 25.8973C134.742 25.696 134.382 25.3942 134.117 24.9917C133.855 24.5853 133.724 24.0761 133.724 23.4644C133.724 22.9492 133.815 22.5146 133.996 22.1604C134.177 21.8063 134.427 21.5185 134.744 21.2971C135.062 21.0758 135.429 20.9088 135.843 20.7961C136.258 20.6794 136.7 20.6009 137.171 20.5606C137.699 20.5123 138.123 20.462 138.445 20.4097C138.767 20.3534 139 20.2749 139.145 20.1743C139.294 20.0696 139.369 19.9227 139.369 19.7336V19.7034C139.369 19.3935 139.262 19.154 139.049 18.985C138.835 18.816 138.548 18.7314 138.185 18.7314C137.795 18.7314 137.481 18.816 137.244 18.985C137.006 19.154 136.855 19.3875 136.791 19.6853L134.068 19.5887C134.149 19.0252 134.356 18.5222 134.69 18.0795C135.028 17.6327 135.491 17.2826 136.079 17.029C136.67 16.7715 137.381 16.6427 138.21 16.6427C138.801 16.6427 139.347 16.7131 139.846 16.854C140.345 16.9908 140.779 17.192 141.15 17.4577C141.52 17.7193 141.806 18.0412 142.007 18.4236C142.212 18.8059 142.315 19.2426 142.315 19.7336V26.0361H139.538V24.7442H139.465C139.3 25.0581 139.089 25.3238 138.831 25.5411C138.578 25.7584 138.278 25.9214 137.932 26.0301C137.59 26.1388 137.203 26.1931 136.773 26.1931ZM137.684 24.2613C138.002 24.2613 138.288 24.1969 138.542 24.0681C138.799 23.9393 139.005 23.7622 139.157 23.5368C139.31 23.3074 139.387 23.0418 139.387 22.74V21.8586C139.302 21.9028 139.2 21.9431 139.079 21.9793C138.962 22.0155 138.833 22.0497 138.693 22.0819C138.552 22.1141 138.407 22.1423 138.258 22.1665C138.109 22.1906 137.966 22.2127 137.829 22.2329C137.552 22.2771 137.314 22.3456 137.117 22.4381C136.924 22.5307 136.775 22.6514 136.67 22.8003C136.57 22.9452 136.519 23.1183 136.519 23.3195C136.519 23.6254 136.628 23.8588 136.845 24.0198C137.067 24.1808 137.346 24.2613 137.684 24.2613ZM152.215 19.5947L149.505 19.6672C149.477 19.474 149.4 19.3029 149.275 19.154C149.151 19.0011 148.988 18.8824 148.786 18.7978C148.589 18.7093 148.36 18.665 148.098 18.665C147.756 18.665 147.464 18.7335 147.223 18.8703C146.985 19.0071 146.869 19.1923 146.873 19.4257C146.869 19.6068 146.941 19.7638 147.09 19.8966C147.243 20.0294 147.515 20.136 147.905 20.2165L149.692 20.5546C150.618 20.7317 151.306 21.0255 151.757 21.436C152.211 21.8465 152.441 22.3898 152.445 23.066C152.441 23.7018 152.252 24.2552 151.877 24.7261C151.507 25.197 151 25.5632 150.356 25.8248C149.712 26.0824 148.976 26.2112 148.146 26.2112C146.822 26.2112 145.778 25.9395 145.013 25.3962C144.253 24.8489 143.818 24.1164 143.709 23.1988L146.625 23.1263C146.69 23.4644 146.857 23.722 147.126 23.8991C147.396 24.0761 147.74 24.1647 148.159 24.1647C148.537 24.1647 148.845 24.0942 149.082 23.9534C149.32 23.8125 149.44 23.6254 149.444 23.392C149.44 23.1827 149.348 23.0157 149.167 22.8909C148.986 22.7621 148.702 22.6615 148.315 22.589L146.698 22.2812C145.768 22.1121 145.076 21.8002 144.621 21.3454C144.166 20.8866 143.941 20.3031 143.945 19.5947C143.941 18.9749 144.106 18.4457 144.44 18.007C144.774 17.5643 145.249 17.2262 145.864 16.9928C146.48 16.7594 147.207 16.6427 148.044 16.6427C149.299 16.6427 150.29 16.9063 151.014 17.4335C151.738 17.9567 152.139 18.6771 152.215 19.5947ZM161.994 19.5947L159.283 19.6672C159.255 19.474 159.178 19.3029 159.054 19.154C158.929 19.0011 158.766 18.8824 158.565 18.7978C158.367 18.7093 158.138 18.665 157.876 18.665C157.534 18.665 157.243 18.7335 157.001 18.8703C156.764 19.0071 156.647 19.1923 156.651 19.4257C156.647 19.6068 156.719 19.7638 156.868 19.8966C157.021 20.0294 157.293 20.136 157.683 20.2165L159.47 20.5546C160.396 20.7317 161.084 21.0255 161.535 21.436C161.99 21.8465 162.219 22.3898 162.223 23.066C162.219 23.7018 162.03 24.2552 161.656 24.7261C161.285 25.197 160.778 25.5632 160.134 25.8248C159.49 26.0824 158.754 26.2112 157.925 26.2112C156.601 26.2112 155.556 25.9395 154.792 25.3962C154.031 24.8489 153.596 24.1164 153.488 23.1988L156.403 23.1263C156.468 23.4644 156.635 23.722 156.905 23.8991C157.174 24.0761 157.518 24.1647 157.937 24.1647C158.315 24.1647 158.623 24.0942 158.86 23.9534C159.098 23.8125 159.219 23.6254 159.223 23.392C159.219 23.1827 159.126 23.0157 158.945 22.8909C158.764 22.7621 158.48 22.6615 158.094 22.589L156.476 22.2812C155.546 22.1121 154.854 21.8002 154.399 21.3454C153.944 20.8866 153.719 20.3031 153.723 19.5947C153.719 18.9749 153.884 18.4457 154.218 18.007C154.552 17.5643 155.027 17.2262 155.643 16.9928C156.259 16.7594 156.985 16.6427 157.822 16.6427C159.078 16.6427 160.068 16.9063 160.792 17.4335C161.517 17.9567 161.917 18.6771 161.994 19.5947Z" fill="#CD6699"/>
</g>
</g>
<rect x="1.05049" y="1.08613" width="168.9" height="37.9" rx="6.95" stroke="white" stroke-opacity="0.15" stroke-width="2.1"/>
<defs>
<filter id="filter0_d_2_3709" x="2.2862" y="0.321847" width="39.4286" height="39.4286" filterUnits="userSpaceOnUse" color-interpolation-filters="sRGB">
<feFlood flood-opacity="0" result="BackgroundImageFix"/>
<feColorMatrix in="SourceAlpha" type="matrix" values="0 0 0 0 0 0 0 0 0 0 0 0 0 0 0 0 0 0 127 0" result="hardAlpha"/>
<feOffset/>
<feGaussianBlur stdDeviation="2.85714"/>
<feComposite in2="hardAlpha" operator="out"/>
<feColorMatrix type="matrix" values="0 0 0 0 0 0 0 0 0 0 0 0 0 0 0 0 0 0 0.25 0"/>
<feBlend mode="normal" in2="BackgroundImageFix" result="effect1_dropShadow_2_3709"/>
<feBlend mode="normal" in="SourceGraphic" in2="effect1_dropShadow_2_3709" result="shape"/>
</filter>
<filter id="filter1_d_2_3709" x="36.4005" y="3.93613" width="132.2" height="32.2" filterUnits="userSpaceOnUse" color-interpolation-filters="sRGB">
<feFlood flood-opacity="0" result="BackgroundImageFix"/>
<feColorMatrix in="SourceAlpha" type="matrix" values="0 0 0 0 0 0 0 0 0 0 0 0 0 0 0 0 0 0 127 0" result="hardAlpha"/>
<feOffset/>
<feGaussianBlur stdDeviation="2.8"/>
<feComposite in2="hardAlpha" operator="out"/>
<feColorMatrix type="matrix" values="0 0 0 0 0 0 0 0 0 0 0 0 0 0 0 0 0 0 0.25 0"/>
<feBlend mode="normal" in2="BackgroundImageFix" result="effect1_dropShadow_2_3709"/>
<feBlend mode="normal" in="SourceGraphic" in2="effect1_dropShadow_2_3709" result="shape"/>
</filter>
<linearGradient id="paint0_linear_2_3709" x1="85.5005" y1="0.0361328" x2="85.5005" y2="40.0361" gradientUnits="userSpaceOnUse">
<stop stop-color="#442132"/>
<stop offset="1" stop-color="#26121C"/>
</linearGradient>
<clipPath id="clip0_2_3709">
<rect x="0.000488281" y="0.0361328" width="171" height="40" rx="8" fill="white"/>
</clipPath>
<clipPath id="clip1_2_3709">
<rect width="28" height="28" fill="white" transform="translate(8.00049 6.03613)"/>
</clipPath>
</defs>
</svg>
