<svg width="174" height="41" viewBox="0 0 174 41" fill="none" xmlns="http://www.w3.org/2000/svg">
<rect width="173.001" height="40.0014" rx="8" fill="url(#paint0_linear_1_56)"/>
<g filter="url(#filter0_d_1_56)">
<g clip-path="url(#clip0_1_56)">
<path d="M27.3507 16.1818C27.3507 17.6546 26.1567 18.8485 24.684 18.8485C23.2112 18.8485 22.0173 17.6546 22.0173 16.1818C22.0173 14.7091 23.2112 13.5152 24.684 13.5152C26.1567 13.5152 27.3507 14.7091 27.3507 16.1818Z" fill="#FFC131"/>
<path d="M20.1991 21.1515C18.7263 21.1515 17.5324 22.3454 17.5324 23.8182C17.5324 25.2909 18.7263 26.4848 20.1991 26.4848C21.6719 26.4848 22.8658 25.2909 22.8658 23.8182C22.8658 22.3454 21.6719 21.1515 20.1991 21.1515Z" fill="#24C8DB"/>
<path fill-rule="evenodd" clip-rule="evenodd" d="M30.2107 24.7331C29.1345 25.4286 27.9422 25.9114 26.6978 26.1625C26.9525 25.4281 27.0909 24.6393 27.0909 23.8182C27.0909 23.5204 27.0727 23.2268 27.0373 22.9385C27.5727 22.752 28.0867 22.5017 28.5676 22.1909C29.7249 21.4429 30.6415 20.3767 31.2074 19.1205C31.7733 17.8642 31.9645 16.4712 31.7578 15.1089C31.5513 13.7466 30.9556 12.473 30.0427 11.441C29.1297 10.409 27.9382 9.66261 26.6112 9.29147C25.2842 8.92032 23.8783 8.94022 22.5624 9.34878C21.2465 9.75733 20.0766 10.5372 19.1932 11.5946C19.08 11.73 18.9722 11.8693 18.8698 12.012C17.5066 12.1635 16.1862 12.5493 14.9652 13.1461C15.3626 11.8738 16.0079 10.686 16.8702 9.65384C18.1273 8.14907 19.7923 7.0393 21.6649 6.45789C23.5376 5.87648 25.5382 5.84816 27.4265 6.37633C29.3149 6.9045 31.0105 7.96669 32.3098 9.43529C33.6091 10.9039 34.4566 12.7164 34.7507 14.655C35.0447 16.5937 34.7726 18.576 33.9673 20.3638C33.1619 22.1515 31.8575 23.6687 30.2107 24.7331ZM15.0864 15.003L17.5825 15.3096C17.6419 14.8258 17.7503 14.3517 17.9047 13.8942C16.9147 14.1214 15.9647 14.4954 15.0864 15.003Z" fill="#FFC131"/>
<path fill-rule="evenodd" clip-rule="evenodd" d="M14.6551 15.2669C15.7393 14.5662 16.9415 14.0814 18.196 13.8319C17.9124 14.602 17.7576 15.4345 17.7576 16.303C17.7576 16.5628 17.7714 16.8194 17.7984 17.072C17.2739 17.2574 16.7701 17.5041 16.2982 17.8092C15.1409 18.5571 14.2243 19.6233 13.6584 20.8795C13.0924 22.1358 12.9013 23.5287 13.1079 24.891C13.3145 26.2533 13.9101 27.527 14.8231 28.559C15.7361 29.591 16.9276 30.3375 18.2546 30.7086C19.5815 31.0796 20.9874 31.0598 22.3033 30.6513C23.6193 30.2427 24.7892 29.4628 25.6726 28.4055C25.7863 28.2693 25.8947 28.1293 25.9975 27.9858C27.3618 27.832 28.6827 27.4436 29.9036 26.8439C29.5065 28.12 28.8601 29.3114 27.9956 30.3462C26.7384 31.8509 25.0736 32.9607 23.2008 33.5421C21.3282 34.1235 19.3276 34.1519 17.4392 33.6236C15.5509 33.0955 13.8552 32.0333 12.556 30.5647C11.2567 29.0961 10.4092 27.2836 10.1151 25.345C9.8211 23.4063 10.0931 21.424 10.8985 19.6362C11.7038 17.8484 13.0083 16.3312 14.6551 15.2669Z" fill="#24C8DB"/>
</g>
</g>
<g filter="url(#filter1_d_1_56)">
<path d="M43.3597 26.5007V14.1371H47.8874C48.7648 14.1371 49.4912 14.282 50.0667 14.5717C50.6423 14.8575 51.0729 15.2458 51.3586 15.7369C51.6444 16.2238 51.7873 16.7732 51.7873 17.3849C51.7873 17.9001 51.6927 18.3347 51.5035 18.6889C51.3144 19.0391 51.0608 19.3208 50.7429 19.5341C50.429 19.7434 50.0828 19.8963 49.7045 19.9929V20.1136C50.115 20.1337 50.5155 20.2666 50.9059 20.5121C51.3003 20.7535 51.6263 21.0976 51.8839 21.5444C52.1414 21.9911 52.2702 22.5344 52.2702 23.1743C52.2702 23.8062 52.1213 24.3737 51.8235 24.8768C51.5297 25.3758 51.0749 25.7722 50.4591 26.066C49.8434 26.3558 49.0566 26.5007 48.0987 26.5007H43.3597ZM45.2251 24.9009H47.9176C48.8111 24.9009 49.451 24.7279 49.8373 24.3817C50.2237 24.0356 50.4169 23.603 50.4169 23.0838C50.4169 22.6934 50.3183 22.3352 50.1211 22.0092C49.9239 21.6832 49.6421 21.4236 49.2759 21.2305C48.9137 21.0373 48.483 20.9407 47.984 20.9407H45.2251V24.9009ZM45.2251 19.4858H47.7244C48.143 19.4858 48.5193 19.4053 48.8533 19.2443C49.1914 19.0833 49.459 18.8579 49.6562 18.5682C49.8575 18.2744 49.9581 17.9283 49.9581 17.5298C49.9581 17.0187 49.779 16.5901 49.4208 16.244C49.0626 15.8978 48.5132 15.7248 47.7727 15.7248H45.2251V19.4858ZM60.2118 22.6552V17.228H62.0229V26.5007H60.248V24.8949H60.1514C59.9381 25.3899 59.596 25.8024 59.1251 26.1324C58.6583 26.4584 58.0767 26.6214 57.3805 26.6214C56.7848 26.6214 56.2576 26.4906 55.7988 26.229C55.344 25.9634 54.9858 25.571 54.7242 25.0518C54.4667 24.5327 54.3379 23.8907 54.3379 23.1261V17.228H56.1429V22.9087C56.1429 23.5406 56.318 24.0437 56.6681 24.418C57.0183 24.7922 57.473 24.9794 58.0325 24.9794C58.3705 24.9794 58.7066 24.8949 59.0406 24.7258C59.3787 24.5568 59.6584 24.3012 59.8798 23.9591C60.1051 23.6171 60.2158 23.1824 60.2118 22.6552ZM64.4482 26.5007V17.228H66.2533V26.5007H64.4482ZM65.3598 15.7972C65.0459 15.7972 64.7762 15.6926 64.5508 15.4833C64.3295 15.27 64.2188 15.0164 64.2188 14.7226C64.2188 14.4248 64.3295 14.1713 64.5508 13.962C64.7762 13.7487 65.0459 13.642 65.3598 13.642C65.6737 13.642 65.9413 13.7487 66.1627 13.962C66.3881 14.1713 66.5008 14.4248 66.5008 14.7226C66.5008 15.0164 66.3881 15.27 66.1627 15.4833C65.9413 15.6926 65.6737 15.7972 65.3598 15.7972ZM70.4867 14.1371V26.5007H68.6816V14.1371H70.4867ZM77.2435 17.228V18.6768H72.1785V17.228H77.2435ZM73.5368 15.0064H75.3419V23.778C75.3419 24.1282 75.3942 24.3918 75.4988 24.5689C75.6035 24.7419 75.7383 24.8607 75.9033 24.9251C76.0723 24.9854 76.2554 25.0156 76.4526 25.0156C76.5975 25.0156 76.7243 25.0056 76.833 24.9854C76.9416 24.9653 77.0262 24.9492 77.0865 24.9371L77.4125 26.4283C77.3079 26.4685 77.159 26.5087 76.9658 26.549C76.7726 26.5933 76.5311 26.6174 76.2414 26.6214C75.7664 26.6295 75.3237 26.545 74.9132 26.3679C74.5027 26.1908 74.1707 25.9171 73.9171 25.5469C73.6636 25.1766 73.5368 24.7118 73.5368 24.1523V15.0064ZM85.7495 26.5007L83.0208 17.228H84.8862L86.7034 24.0376H86.7939L88.6171 17.228H90.4825L92.2936 24.0074H92.3841L94.1891 17.228H96.0546L93.3319 26.5007H91.4906L89.6071 19.8057H89.4683L87.5847 26.5007H85.7495ZM97.7675 26.5007V17.228H99.5726V26.5007H97.7675ZM98.6791 15.7972C98.3652 15.7972 98.0955 15.6926 97.8702 15.4833C97.6488 15.27 97.5381 15.0164 97.5381 14.7226C97.5381 14.4248 97.6488 14.1713 97.8702 13.962C98.0955 13.7487 98.3652 13.642 98.6791 13.642C98.993 13.642 99.2607 13.7487 99.482 13.962C99.7074 14.1713 99.8201 14.4248 99.8201 14.7226C99.8201 15.0164 99.7074 15.27 99.482 15.4833C99.2607 15.6926 98.993 15.7972 98.6791 15.7972ZM106.329 17.228V18.6768H101.264V17.228H106.329ZM102.623 15.0064H104.428V23.778C104.428 24.1282 104.48 24.3918 104.585 24.5689C104.689 24.7419 104.824 24.8607 104.989 24.9251C105.158 24.9854 105.341 25.0156 105.539 25.0156C105.683 25.0156 105.81 25.0056 105.919 24.9854C106.028 24.9653 106.112 24.9492 106.172 24.9371L106.498 26.4283C106.394 26.4685 106.245 26.5087 106.052 26.549C105.859 26.5933 105.617 26.6174 105.327 26.6214C104.852 26.6295 104.41 26.545 103.999 26.3679C103.589 26.1908 103.257 25.9171 103.003 25.5469C102.75 25.1766 102.623 24.7118 102.623 24.1523V15.0064ZM110.33 20.995V26.5007H108.525V14.1371H110.306V18.7372H110.421C110.638 18.2382 110.97 17.8417 111.417 17.5479C111.864 17.2541 112.447 17.1072 113.168 17.1072C113.804 17.1072 114.359 17.238 114.834 17.4996C115.313 17.7612 115.683 18.1516 115.945 18.6708C116.21 19.1859 116.343 19.8299 116.343 20.6026V26.5007H114.538V20.8199C114.538 20.1398 114.363 19.6126 114.013 19.2383C113.663 18.86 113.176 18.6708 112.552 18.6708C112.125 18.6708 111.743 18.7614 111.405 18.9425C111.071 19.1236 110.807 19.3892 110.614 19.7393C110.425 20.0855 110.33 20.504 110.33 20.995Z" fill="#E8E8E8"/>
<path d="M122.533 16.5639V14.1371H132.983V16.5639H129.234V26.5007H126.288V16.5639H122.533ZM135.794 26.6577C135.203 26.6577 134.677 26.5591 134.219 26.3618C133.764 26.1606 133.404 25.8588 133.138 25.4563C132.876 25.0498 132.746 24.5407 132.746 23.929C132.746 23.4138 132.836 22.9792 133.017 22.625C133.198 22.2708 133.448 21.9831 133.766 21.7617C134.084 21.5404 134.45 21.3733 134.865 21.2606C135.279 21.1439 135.722 21.0654 136.193 21.0252C136.72 20.9769 137.145 20.9266 137.466 20.8743C137.788 20.8179 138.022 20.7395 138.167 20.6388C138.316 20.5342 138.39 20.3873 138.39 20.1981V20.168C138.39 19.8581 138.283 19.6186 138.07 19.4496C137.857 19.2805 137.569 19.196 137.207 19.196C136.817 19.196 136.503 19.2805 136.265 19.4496C136.028 19.6186 135.877 19.852 135.812 20.1498L133.09 20.0533C133.17 19.4898 133.377 18.9867 133.712 18.544C134.05 18.0973 134.512 17.7471 135.1 17.4936C135.692 17.236 136.402 17.1072 137.231 17.1072C137.823 17.1072 138.368 17.1777 138.867 17.3185C139.366 17.4554 139.801 17.6566 140.171 17.9222C140.541 18.1838 140.827 18.5058 141.028 18.8881C141.234 19.2705 141.336 19.7071 141.336 20.1981V26.5007H138.559V25.2088H138.487C138.322 25.5227 138.11 25.7883 137.853 26.0057C137.599 26.223 137.299 26.386 136.953 26.4947C136.611 26.6033 136.225 26.6577 135.794 26.6577ZM136.706 24.7258C137.024 24.7258 137.31 24.6614 137.563 24.5327C137.821 24.4039 138.026 24.2268 138.179 24.0014C138.332 23.772 138.408 23.5064 138.408 23.2045V22.3231C138.324 22.3674 138.221 22.4077 138.1 22.4439C137.984 22.4801 137.855 22.5143 137.714 22.5465C137.573 22.5787 137.428 22.6069 137.279 22.631C137.13 22.6552 136.988 22.6773 136.851 22.6974C136.573 22.7417 136.336 22.8101 136.138 22.9027C135.945 22.9953 135.796 23.116 135.692 23.2649C135.591 23.4098 135.541 23.5828 135.541 23.7841C135.541 24.0899 135.649 24.3234 135.867 24.4844C136.088 24.6453 136.368 24.7258 136.706 24.7258ZM149.124 22.4982V17.228H152.07V26.5007H149.257V24.7741H149.16C148.955 25.3416 148.605 25.7924 148.11 26.1264C147.619 26.4564 147.025 26.6214 146.329 26.6214C145.697 26.6214 145.141 26.4765 144.662 26.1868C144.184 25.897 143.811 25.4925 143.546 24.9734C143.28 24.4502 143.145 23.8384 143.141 23.1381V17.228H146.093V22.5586C146.097 23.0617 146.23 23.4581 146.492 23.7479C146.753 24.0376 147.109 24.1825 147.56 24.1825C147.854 24.1825 148.118 24.1181 148.351 23.9893C148.589 23.8565 148.776 23.6654 148.912 23.4158C149.053 23.1623 149.124 22.8564 149.124 22.4982ZM153.949 26.5007V17.228H156.816V18.9183H156.913C157.082 18.3066 157.358 17.8518 157.74 17.554C158.122 17.2521 158.567 17.1012 159.074 17.1012C159.211 17.1012 159.352 17.1113 159.497 17.1314C159.642 17.1475 159.776 17.1736 159.901 17.2099V19.7756C159.76 19.7273 159.575 19.689 159.346 19.6609C159.12 19.6327 158.919 19.6186 158.742 19.6186C158.392 19.6186 158.076 19.6971 157.794 19.854C157.517 20.007 157.297 20.2223 157.136 20.5C156.979 20.7737 156.901 21.0956 156.901 21.4659V26.5007H153.949ZM161.104 26.5007V17.228H164.056V26.5007H161.104ZM162.583 16.1474C162.169 16.1474 161.812 16.0105 161.515 15.7369C161.217 15.4592 161.068 15.1251 161.068 14.7347C161.068 14.3484 161.217 14.0183 161.515 13.7447C161.812 13.467 162.169 13.3281 162.583 13.3281C163.002 13.3281 163.358 13.467 163.652 13.7447C163.949 14.0183 164.098 14.3484 164.098 14.7347C164.098 15.1251 163.949 15.4592 163.652 15.7369C163.358 16.0105 163.002 16.1474 162.583 16.1474Z" fill="#FFC131"/>
</g>
<rect x="1.07143" y="1.07143" width="170.859" height="37.8585" rx="6.92857" stroke="white" stroke-opacity="0.15" stroke-width="2.14286"/>
<defs>
<filter id="filter0_d_1_56" x="2.39972" y="0.39972" width="39.202" height="39.202" filterUnits="userSpaceOnUse" color-interpolation-filters="sRGB">
<feFlood flood-opacity="0" result="BackgroundImageFix"/>
<feColorMatrix in="SourceAlpha" type="matrix" values="0 0 0 0 0 0 0 0 0 0 0 0 0 0 0 0 0 0 127 0" result="hardAlpha"/>
<feOffset/>
<feGaussianBlur stdDeviation="2.80014"/>
<feComposite in2="hardAlpha" operator="out"/>
<feColorMatrix type="matrix" values="0 0 0 0 0 0 0 0 0 0 0 0 0 0 0 0 0 0 0.25 0"/>
<feBlend mode="normal" in2="BackgroundImageFix" result="effect1_dropShadow_1_56"/>
<feBlend mode="normal" in="SourceGraphic" in2="effect1_dropShadow_1_56" result="shape"/>
</filter>
<filter id="filter1_d_1_56" x="36.2871" y="3.78642" width="134.429" height="32.4286" filterUnits="userSpaceOnUse" color-interpolation-filters="sRGB">
<feFlood flood-opacity="0" result="BackgroundImageFix"/>
<feColorMatrix in="SourceAlpha" type="matrix" values="0 0 0 0 0 0 0 0 0 0 0 0 0 0 0 0 0 0 127 0" result="hardAlpha"/>
<feOffset/>
<feGaussianBlur stdDeviation="2.85714"/>
<feComposite in2="hardAlpha" operator="out"/>
<feColorMatrix type="matrix" values="0 0 0 0 0 0 0 0 0 0 0 0 0 0 0 0 0 0 0.25 0"/>
<feBlend mode="normal" in2="BackgroundImageFix" result="effect1_dropShadow_1_56"/>
<feBlend mode="normal" in="SourceGraphic" in2="effect1_dropShadow_1_56" result="shape"/>
</filter>
<linearGradient id="paint0_linear_1_56" x1="86.5007" y1="0" x2="86.5007" y2="40.0014" gradientUnits="userSpaceOnUse">
<stop stop-color="#011F28"/>
<stop offset="1" stop-color="#241900"/>
</linearGradient>
<clipPath id="clip0_1_56">
<rect width="24.9697" height="28" fill="white" transform="translate(10 6)"/>
</clipPath>
</defs>
</svg>
