<svg width="176" height="28" viewBox="0 0 176 28" fill="none" xmlns="http://www.w3.org/2000/svg">
<g clip-path="url(#clip0_2_1095)">
<rect x="0.499512" y="-6.10352e-05" width="175.5" height="28" rx="6" fill="url(#paint0_linear_2_1095)"/>
<g filter="url(#filter0_d_2_1095)">
<path d="M18.2875 4C18.2875 4.035 18.2875 4.07083 18.2875 4.1075C18.2875 5.37417 17.2608 6.40083 15.9942 6.40083C14.7275 6.40083 13.7008 5.37417 13.7008 4.1075C13.7008 4.07 13.7008 4.035 13.7008 4H6V24H26V4H18.2875ZM15.545 21.8592L14.5708 17.04H14.5542L13.5008 21.8592H12.1583L10.6383 14.7783H11.9633L12.87 19.5975H12.8867L13.9792 14.7783H15.2183L16.1992 19.6567H16.2158L17.2508 14.7783H18.5517L16.8625 21.8592H15.545ZM22.8408 21.8592L22.3892 20.2833H20.005L19.6575 21.8592H18.3325L20.0458 14.7783H22.1367L24.22 21.8592H22.8408V21.8592ZM20.8433 16.5233L20.265 19.1217H22.0642L21.4008 16.5233H20.8433Z" fill="#654FF0"/>
</g>
<g filter="url(#filter1_d_2_1095)">
<path d="M33.3784 18.4999V10.4999H36.3081C36.8758 10.4999 37.3459 10.5937 37.7183 10.7812C38.0907 10.9661 38.3693 11.2174 38.5542 11.5351C38.7391 11.8502 38.8315 12.2057 38.8315 12.6015C38.8315 12.9348 38.7703 13.2161 38.6479 13.4452C38.5256 13.6718 38.3615 13.8541 38.1558 13.9921C37.9526 14.1275 37.7287 14.2265 37.4839 14.289V14.3671C37.7495 14.3801 38.0086 14.4661 38.2612 14.6249C38.5164 14.7812 38.7274 15.0038 38.894 15.2929C39.0607 15.582 39.144 15.9335 39.144 16.3476C39.144 16.7564 39.0477 17.1236 38.855 17.4492C38.6649 17.7721 38.3706 18.0286 37.9722 18.2187C37.5737 18.4062 37.0646 18.4999 36.4448 18.4999H33.3784ZM34.5854 17.4648H36.3276C36.9058 17.4648 37.3198 17.3528 37.5698 17.1288C37.8198 16.9049 37.9448 16.6249 37.9448 16.289C37.9448 16.0364 37.881 15.8046 37.7534 15.5937C37.6258 15.3827 37.4435 15.2148 37.2065 15.0898C36.9722 14.9648 36.6935 14.9023 36.3706 14.9023H34.5854V17.4648ZM34.5854 13.9609H36.2026C36.4735 13.9609 36.717 13.9088 36.9331 13.8046C37.1519 13.7005 37.325 13.5546 37.4526 13.3671C37.5828 13.177 37.6479 12.9531 37.6479 12.6952C37.6479 12.3645 37.5321 12.0872 37.3003 11.8632C37.0685 11.6393 36.7131 11.5273 36.2339 11.5273H34.5854V13.9609ZM44.2827 16.0117V12.4999H45.4546V18.4999H44.3061V17.4609H44.2436C44.1056 17.7812 43.8843 18.0481 43.5796 18.2617C43.2775 18.4726 42.9012 18.5781 42.4507 18.5781C42.0653 18.5781 41.7241 18.4934 41.4272 18.3242C41.133 18.1523 40.9012 17.8984 40.7319 17.5624C40.5653 17.2265 40.4819 16.8111 40.4819 16.3163V12.4999H41.6499V16.1757C41.6499 16.5846 41.7632 16.9101 41.9897 17.1523C42.2163 17.3945 42.5106 17.5156 42.8726 17.5156C43.0913 17.5156 43.3088 17.4609 43.5249 17.3515C43.7436 17.2421 43.9246 17.0768 44.0679 16.8554C44.2137 16.6341 44.2853 16.3528 44.2827 16.0117ZM47.0239 18.4999V12.4999H48.1919V18.4999H47.0239ZM47.6138 11.5742C47.4106 11.5742 47.2362 11.5064 47.0903 11.371C46.9471 11.233 46.8755 11.0689 46.8755 10.8788C46.8755 10.6861 46.9471 10.5221 47.0903 10.3867C47.2362 10.2486 47.4106 10.1796 47.6138 10.1796C47.8169 10.1796 47.9901 10.2486 48.1333 10.3867C48.2791 10.5221 48.352 10.6861 48.352 10.8788C48.352 11.0689 48.2791 11.233 48.1333 11.371C47.9901 11.5064 47.8169 11.5742 47.6138 11.5742ZM50.9311 10.4999V18.4999H49.7632V10.4999H50.9311ZM55.3032 12.4999V13.4374H52.0259V12.4999H55.3032ZM52.9048 11.0624H54.0727V16.7382C54.0727 16.9648 54.1066 17.1354 54.1743 17.2499C54.242 17.3619 54.3293 17.4387 54.436 17.4804C54.5454 17.5195 54.6639 17.539 54.7915 17.539C54.8852 17.539 54.9673 17.5325 55.0376 17.5195C55.1079 17.5064 55.1626 17.496 55.2017 17.4882L55.4126 18.4531C55.3449 18.4791 55.2485 18.5051 55.1235 18.5312C54.9985 18.5598 54.8423 18.5755 54.6548 18.5781C54.3475 18.5833 54.061 18.5286 53.7954 18.414C53.5298 18.2994 53.3149 18.1223 53.1509 17.8827C52.9868 17.6432 52.9048 17.3424 52.9048 16.9804V11.0624ZM60.8071 18.4999L59.0415 12.4999H60.2485L61.4243 16.9062H61.4829L62.6626 12.4999H63.8696L65.0415 16.8867H65.1001L66.2681 12.4999H67.4751L65.7134 18.4999H64.522L63.3032 14.1679H63.2134L61.9946 18.4999H60.8071ZM68.5835 18.4999V12.4999H69.7515V18.4999H68.5835ZM69.1733 11.5742C68.9702 11.5742 68.7957 11.5064 68.6499 11.371C68.5067 11.233 68.435 11.0689 68.435 10.8788C68.435 10.6861 68.5067 10.5221 68.6499 10.3867C68.7957 10.2486 68.9702 10.1796 69.1733 10.1796C69.3765 10.1796 69.5496 10.2486 69.6929 10.3867C69.8387 10.5221 69.9116 10.6861 69.9116 10.8788C69.9116 11.0689 69.8387 11.233 69.6929 11.371C69.5496 11.5064 69.3765 11.5742 69.1733 11.5742ZM74.1235 12.4999V13.4374H70.8462V12.4999H74.1235ZM71.7251 11.0624H72.8931V16.7382C72.8931 16.9648 72.9269 17.1354 72.9946 17.2499C73.0623 17.3619 73.1496 17.4387 73.2563 17.4804C73.3657 17.5195 73.4842 17.539 73.6118 17.539C73.7056 17.539 73.7876 17.5325 73.8579 17.5195C73.9282 17.5064 73.9829 17.496 74.022 17.4882L74.2329 18.4531C74.1652 18.4791 74.0688 18.5051 73.9438 18.5312C73.8188 18.5598 73.6626 18.5755 73.4751 18.5781C73.1678 18.5833 72.8813 18.5286 72.6157 18.414C72.3501 18.2994 72.1352 18.1223 71.9712 17.8827C71.8071 17.6432 71.7251 17.3424 71.7251 16.9804V11.0624ZM76.7124 14.9374V18.4999H75.5444V10.4999H76.6968V13.4765H76.771C76.9116 13.1536 77.1265 12.8971 77.4155 12.707C77.7046 12.5169 78.0822 12.4218 78.5483 12.4218C78.9598 12.4218 79.3192 12.5064 79.6265 12.6757C79.9363 12.845 80.1759 13.0976 80.3452 13.4335C80.5171 13.7669 80.603 14.1835 80.603 14.6835V18.4999H79.435V14.8242C79.435 14.3841 79.3218 14.0429 79.0952 13.8007C78.8686 13.5559 78.5535 13.4335 78.1499 13.4335C77.8738 13.4335 77.6265 13.4921 77.4077 13.6093C77.1916 13.7265 77.021 13.8984 76.896 14.1249C76.7736 14.3489 76.7124 14.6197 76.7124 14.9374Z" fill="#E8E8E8"/>
<path d="M86.7524 18.4999L84.2126 9.77267H86.5435L87.8603 15.4914H87.9327L89.437 9.77267H91.3376L92.8418 15.5042H92.9143L94.2353 9.77267H96.562L94.0265 18.4999H91.9938L90.4214 13.2073H90.3532L88.7808 18.4999H86.7524ZM99.7666 18.6235C99.0819 18.6235 98.491 18.4886 97.9938 18.2187C97.4995 17.946 97.1188 17.5582 96.8518 17.0553C96.5876 16.5497 96.4555 15.9488 96.4555 15.2528C96.4555 14.5766 96.589 13.9857 96.856 13.4801C97.1231 12.9715 97.4995 12.5766 97.9853 12.2954C98.4711 12.0113 99.0435 11.8693 99.7026 11.8693C100.169 11.8693 100.595 11.9417 100.981 12.0866C101.367 12.2315 101.701 12.446 101.982 12.7301C102.264 13.0141 102.482 13.365 102.639 13.7826C102.795 14.1974 102.873 14.6732 102.873 15.2102V15.7301H97.1842V14.5198H100.934C100.931 14.2982 100.879 14.1008 100.776 13.9275C100.674 13.7542 100.534 13.6193 100.355 13.5227C100.178 13.4232 99.9754 13.3735 99.7452 13.3735C99.5123 13.3735 99.3035 13.4261 99.1188 13.5312C98.9342 13.6335 98.7879 13.7741 98.6799 13.9531C98.572 14.1292 98.5151 14.3295 98.5095 14.5539V15.7854C98.5095 16.0525 98.562 16.2869 98.6671 16.4886C98.7722 16.6874 98.9214 16.8423 99.1146 16.9531C99.3077 17.0639 99.5379 17.1193 99.8049 17.1193C99.9896 17.1193 100.157 17.0937 100.308 17.0425C100.458 16.9914 100.588 16.9161 100.696 16.8167C100.803 16.7173 100.884 16.5951 100.938 16.4502L102.852 16.5056C102.772 16.9346 102.598 17.3082 102.328 17.6264C102.061 17.9417 101.71 18.1874 101.275 18.3636C100.84 18.5369 100.338 18.6235 99.7666 18.6235ZM103.937 18.4999V9.77267H106.021V13.0752H106.064C106.149 12.8764 106.27 12.6846 106.426 12.4999C106.585 12.3153 106.787 12.1647 107.031 12.0482C107.278 11.9289 107.574 11.8693 107.917 11.8693C108.372 11.8693 108.797 11.9886 109.192 12.2272C109.589 12.4658 109.91 12.8337 110.155 13.3309C110.399 13.8281 110.521 14.4616 110.521 15.2315C110.521 15.9729 110.403 16.5937 110.167 17.0937C109.935 17.5937 109.619 17.9687 109.221 18.2187C108.827 18.4687 108.388 18.5937 107.905 18.5937C107.575 18.5937 107.29 18.5397 107.048 18.4318C106.807 18.3238 106.604 18.1818 106.439 18.0056C106.277 17.8295 106.152 17.6406 106.064 17.4389H106V18.4999H103.937ZM105.979 15.2272C105.979 15.5795 106.025 15.8863 106.119 16.1477C106.216 16.409 106.354 16.6122 106.533 16.757C106.714 16.8991 106.932 16.9701 107.185 16.9701C107.44 16.9701 107.658 16.8991 107.837 16.757C108.015 16.6122 108.15 16.409 108.241 16.1477C108.335 15.8863 108.382 15.5795 108.382 15.2272C108.382 14.8749 108.335 14.5695 108.241 14.311C108.15 14.0525 108.015 13.8522 107.837 13.7102C107.66 13.5681 107.443 13.4971 107.185 13.4971C106.929 13.4971 106.712 13.5667 106.533 13.7059C106.354 13.8451 106.216 14.044 106.119 14.3025C106.025 14.561 105.979 14.8693 105.979 15.2272ZM113.091 18.4999H110.824L113.768 9.77267H116.577L119.521 18.4999H117.254L115.204 11.9715H115.136L113.091 18.4999ZM112.788 15.0653H117.527V16.6675H112.788V15.0653ZM125.976 13.9531L124.063 14.0042C124.043 13.8678 123.989 13.7471 123.901 13.642C123.813 13.534 123.698 13.4502 123.556 13.3906C123.416 13.3281 123.254 13.2968 123.07 13.2968C122.828 13.2968 122.622 13.3451 122.452 13.4417C122.284 13.5383 122.202 13.669 122.205 13.8337C122.202 13.9616 122.253 14.0724 122.358 14.1661C122.466 14.2599 122.658 14.3352 122.933 14.392L124.195 14.6306C124.848 14.7556 125.334 14.963 125.652 15.2528C125.973 15.5426 126.135 15.9261 126.138 16.4033C126.135 16.8522 126.002 17.2428 125.737 17.5752C125.476 17.9076 125.118 18.1661 124.664 18.3508C124.209 18.5326 123.689 18.6235 123.104 18.6235C122.169 18.6235 121.432 18.4318 120.892 18.0482C120.355 17.6619 120.049 17.1448 119.972 16.4971L122.03 16.446C122.075 16.6846 122.193 16.8664 122.384 16.9914C122.574 17.1164 122.817 17.1789 123.112 17.1789C123.379 17.1789 123.597 17.1292 123.764 17.0298C123.932 16.9303 124.017 16.7982 124.02 16.6335C124.017 16.4857 123.952 16.3678 123.824 16.2798C123.696 16.1889 123.496 16.1178 123.223 16.0667L122.081 15.8494C121.425 15.7301 120.936 15.5099 120.615 15.1889C120.294 14.865 120.135 14.4531 120.138 13.9531C120.135 13.5156 120.252 13.142 120.487 12.8323C120.723 12.5198 121.058 12.2812 121.493 12.1164C121.928 11.9516 122.441 11.8693 123.031 11.8693C123.918 11.8693 124.617 12.0553 125.128 12.4275C125.639 12.7968 125.922 13.3053 125.976 13.9531ZM132.878 13.9531L130.965 14.0042C130.945 13.8678 130.891 13.7471 130.803 13.642C130.715 13.534 130.6 13.4502 130.458 13.3906C130.319 13.3281 130.157 13.2968 129.972 13.2968C129.731 13.2968 129.525 13.3451 129.354 13.4417C129.187 13.5383 129.104 13.669 129.107 13.8337C129.104 13.9616 129.155 14.0724 129.261 14.1661C129.368 14.2599 129.56 14.3352 129.836 14.392L131.097 14.6306C131.751 14.7556 132.236 14.963 132.555 15.2528C132.876 15.5426 133.037 15.9261 133.04 16.4033C133.037 16.8522 132.904 17.2428 132.64 17.5752C132.378 17.9076 132.02 18.1661 131.566 18.3508C131.111 18.5326 130.591 18.6235 130.006 18.6235C129.072 18.6235 128.334 18.4318 127.795 18.0482C127.258 17.6619 126.951 17.1448 126.874 16.4971L128.932 16.446C128.978 16.6846 129.096 16.8664 129.286 16.9914C129.476 17.1164 129.719 17.1789 130.015 17.1789C130.282 17.1789 130.499 17.1292 130.667 17.0298C130.834 16.9303 130.92 16.7982 130.922 16.6335C130.92 16.4857 130.854 16.3678 130.726 16.2798C130.599 16.1889 130.398 16.1178 130.126 16.0667L128.984 15.8494C128.327 15.7301 127.839 15.5099 127.518 15.1889C127.197 14.865 127.037 14.4531 127.04 13.9531C127.037 13.5156 127.154 13.142 127.39 12.8323C127.626 12.5198 127.961 12.2812 128.395 12.1164C128.83 11.9516 129.343 11.8693 129.934 11.8693C130.82 11.8693 131.519 12.0553 132.03 12.4275C132.542 12.7968 132.824 13.3053 132.878 13.9531ZM137.126 18.6235C136.441 18.6235 135.85 18.4886 135.353 18.2187C134.859 17.946 134.478 17.5582 134.211 17.0553C133.947 16.5497 133.815 15.9488 133.815 15.2528C133.815 14.5766 133.948 13.9857 134.215 13.4801C134.482 12.9715 134.859 12.5766 135.345 12.2954C135.83 12.0113 136.403 11.8693 137.062 11.8693C137.528 11.8693 137.954 11.9417 138.34 12.0866C138.727 12.2315 139.061 12.446 139.342 12.7301C139.623 13.0141 139.842 13.365 139.998 13.7826C140.154 14.1974 140.232 14.6732 140.232 15.2102V15.7301H134.544V14.5198H138.294C138.291 14.2982 138.238 14.1008 138.136 13.9275C138.034 13.7542 137.893 13.6193 137.714 13.5227C137.538 13.4232 137.335 13.3735 137.105 13.3735C136.872 13.3735 136.663 13.4261 136.478 13.5312C136.294 13.6335 136.147 13.7741 136.039 13.9531C135.931 14.1292 135.874 14.3295 135.869 14.5539V15.7854C135.869 16.0525 135.921 16.2869 136.026 16.4886C136.132 16.6874 136.281 16.8423 136.474 16.9531C136.667 17.0639 136.897 17.1193 137.164 17.1193C137.349 17.1193 137.517 17.0937 137.667 17.0425C137.818 16.9914 137.947 16.9161 138.055 16.8167C138.163 16.7173 138.244 16.5951 138.298 16.4502L140.211 16.5056C140.132 16.9346 139.957 17.3082 139.687 17.6264C139.42 17.9417 139.069 18.1874 138.634 18.3636C138.2 18.5369 137.697 18.6235 137.126 18.6235ZM141.297 18.4999V11.9545H143.278V13.1562H143.351C143.487 12.7585 143.717 12.4445 144.041 12.2144C144.365 11.9843 144.751 11.8693 145.2 11.8693C145.655 11.8693 146.044 11.9857 146.368 12.2187C146.692 12.4516 146.898 12.7641 146.986 13.1562H147.054C147.176 12.767 147.415 12.4559 147.77 12.2229C148.125 11.9872 148.544 11.8693 149.027 11.8693C149.646 11.8693 150.149 12.0681 150.535 12.4658C150.922 12.8607 151.115 13.4033 151.115 14.0937V18.4999H149.031V14.571C149.031 14.2443 148.947 13.9957 148.78 13.8252C148.612 13.6519 148.395 13.5653 148.128 13.5653C147.841 13.5653 147.615 13.659 147.45 13.8465C147.288 14.0312 147.207 14.2798 147.207 14.5923V18.4999H145.204V14.5497C145.204 14.2457 145.122 14.0056 144.957 13.8295C144.792 13.6533 144.575 13.5653 144.305 13.5653C144.123 13.5653 143.963 13.6093 143.824 13.6974C143.685 13.7826 143.575 13.9048 143.496 14.0639C143.419 14.2229 143.381 14.4104 143.381 14.6264V18.4999H141.297ZM152.406 18.4999V9.77267H154.49V13.0752H154.533C154.618 12.8764 154.738 12.6846 154.895 12.4999C155.054 12.3153 155.256 12.1647 155.5 12.0482C155.747 11.9289 156.042 11.8693 156.386 11.8693C156.841 11.8693 157.265 11.9886 157.66 12.2272C158.058 12.4658 158.379 12.8337 158.623 13.3309C158.868 13.8281 158.99 14.4616 158.99 15.2315C158.99 15.9729 158.872 16.5937 158.636 17.0937C158.403 17.5937 158.088 17.9687 157.69 18.2187C157.295 18.4687 156.856 18.5937 156.373 18.5937C156.044 18.5937 155.758 18.5397 155.517 18.4318C155.275 18.3238 155.072 18.1818 154.908 18.0056C154.746 17.8295 154.621 17.6406 154.533 17.4389H154.469V18.4999H152.406ZM154.447 15.2272C154.447 15.5795 154.494 15.8863 154.588 16.1477C154.685 16.409 154.822 16.6122 155.001 16.757C155.183 16.8991 155.4 16.9701 155.653 16.9701C155.909 16.9701 156.126 16.8991 156.305 16.757C156.484 16.6122 156.619 16.409 156.71 16.1477C156.804 15.8863 156.851 15.5795 156.851 15.2272C156.851 14.8749 156.804 14.5695 156.71 14.311C156.619 14.0525 156.484 13.8522 156.305 13.7102C156.129 13.5681 155.912 13.4971 155.653 13.4971C155.398 13.4971 155.18 13.5667 155.001 13.7059C154.822 13.8451 154.685 14.044 154.588 14.3025C154.494 14.561 154.447 14.8693 154.447 15.2272ZM162.166 9.77267V18.4999H160.082V9.77267H162.166ZM164.766 20.9545C164.516 20.9545 164.28 20.9346 164.059 20.8948C163.837 20.8579 163.647 20.8082 163.488 20.7457L163.948 19.2329C164.153 19.3011 164.337 19.3408 164.502 19.3522C164.67 19.3636 164.813 19.3366 164.932 19.2712C165.055 19.2087 165.148 19.0965 165.214 18.9346L165.295 18.7386L162.968 11.9545H165.15L166.356 16.6249H166.424L167.647 11.9545H169.841L167.374 19.1264C167.255 19.4843 167.086 19.7997 166.867 20.0724C166.651 20.3479 166.371 20.5639 166.028 20.7201C165.687 20.8764 165.266 20.9545 164.766 20.9545Z" fill="#654FF0"/>
</g>
</g>
<rect x="1.24951" y="0.749939" width="174" height="26.5" rx="5.25" stroke="white" stroke-opacity="0.15" stroke-width="1.5"/>
<defs>
<filter id="filter0_d_2_1095" x="2" y="-6.10352e-05" width="28.4995" height="28.0001" filterUnits="userSpaceOnUse" color-interpolation-filters="sRGB">
<feFlood flood-opacity="0" result="BackgroundImageFix"/>
<feColorMatrix in="SourceAlpha" type="matrix" values="0 0 0 0 0 0 0 0 0 0 0 0 0 0 0 0 0 0 127 0" result="hardAlpha"/>
<feOffset/>
<feGaussianBlur stdDeviation="2"/>
<feComposite in2="hardAlpha" operator="out"/>
<feColorMatrix type="matrix" values="0 0 0 0 0 0 0 0 0 0 0 0 0 0 0 0 0 0 0.25 0"/>
<feBlend mode="normal" in2="BackgroundImageFix" result="effect1_dropShadow_2_1095"/>
<feBlend mode="normal" in="SourceGraphic" in2="effect1_dropShadow_2_1095" result="shape"/>
</filter>
<filter id="filter1_d_2_1095" x="28.4995" y="3.49994" width="145.5" height="21.4545" filterUnits="userSpaceOnUse" color-interpolation-filters="sRGB">
<feFlood flood-opacity="0" result="BackgroundImageFix"/>
<feColorMatrix in="SourceAlpha" type="matrix" values="0 0 0 0 0 0 0 0 0 0 0 0 0 0 0 0 0 0 127 0" result="hardAlpha"/>
<feOffset/>
<feGaussianBlur stdDeviation="2"/>
<feComposite in2="hardAlpha" operator="out"/>
<feColorMatrix type="matrix" values="0 0 0 0 0 0 0 0 0 0 0 0 0 0 0 0 0 0 0.25 0"/>
<feBlend mode="normal" in2="BackgroundImageFix" result="effect1_dropShadow_2_1095"/>
<feBlend mode="normal" in="SourceGraphic" in2="effect1_dropShadow_2_1095" result="shape"/>
</filter>
<linearGradient id="paint0_linear_2_1095" x1="88.2495" y1="-6.10351e-05" x2="88.2495" y2="27.9999" gradientUnits="userSpaceOnUse">
<stop stop-color="#140E3A"/>
<stop offset="1" stop-color="#0A0622"/>
</linearGradient>
<clipPath id="clip0_2_1095">
<rect x="0.499512" y="-6.10352e-05" width="175.5" height="28" rx="6" fill="white"/>
</clipPath>
</defs>
</svg>
