<svg width="40" height="40" viewBox="0 0 40 40" fill="none" xmlns="http://www.w3.org/2000/svg">
<rect x="-0.000976562" width="40" height="40" rx="6" fill="url(#paint0_linear_28_3225)"/>
<g filter="url(#filter0_d_28_3225)">
<path d="M18.6067 6.07945C13.7759 6.55928 9.58161 9.45696 7.40959 13.8191C6.68558 15.271 6.19875 16.9411 6.03647 18.5239L5.99902 18.8853H7.24731C7.93387 18.8853 8.4956 18.8666 8.50184 18.8355C8.5705 17.8197 9.01988 16.2244 9.56288 15.0841C11.4915 11.046 15.5047 8.50976 19.9486 8.50976C21.8335 8.50976 23.4314 8.87742 25.0666 9.68753C26.9266 10.6098 28.4183 11.9184 29.5604 13.6197C30.066 14.3737 30.765 15.7508 30.6777 15.8256C30.6465 15.8568 30.1471 16.0063 29.5729 16.1559L28.5244 16.4363L28.2497 15.9004C27.3635 14.1306 25.8842 12.6475 24.1366 11.7689C23.5063 11.4511 22.8571 11.208 22.7573 11.2454C22.7136 11.2579 22.6574 11.4074 22.6387 11.5757C22.6137 11.7377 22.5451 12.1677 22.4764 12.5291C22.414 12.8906 22.3453 13.2894 22.3266 13.414L22.2829 13.6446L22.8135 13.8938C24.636 14.7413 25.9529 16.3117 26.5084 18.2933C26.6707 18.8666 26.6894 18.9975 26.6894 20.007C26.6894 21.0165 26.6707 21.1474 26.5084 21.7207C26.1776 22.8922 25.5909 23.9267 24.7857 24.7368C24.3239 25.2041 23.6436 25.7089 23.1505 25.9644C22.982 26.0454 22.8509 26.1513 22.8509 26.195C22.8571 26.3009 23.4501 28.482 23.4938 28.5193C23.5499 28.5754 24.6047 28.0146 25.2226 27.6033C25.9966 27.0861 27.0701 26.0142 27.5882 25.2415C28.3122 24.1572 28.7615 23.1166 29.0424 21.8703C29.161 21.3219 29.186 21.0415 29.186 20.0257C29.186 19.0162 29.1984 18.823 29.2796 18.8043C30.041 18.5862 31.358 18.2622 31.3829 18.2809C31.4266 18.3307 31.4953 19.3714 31.4953 20.007C31.4953 20.867 31.4142 21.7082 31.2768 22.3127C31.2144 22.5993 31.1645 22.8424 31.1707 22.8486C31.177 22.8611 31.7013 23.048 32.3316 23.2786C33.2054 23.5964 33.4926 23.6774 33.53 23.6151C33.6299 23.4468 33.8982 21.8017 33.9669 20.9231C34.1105 18.9601 33.7672 16.7043 33.0494 14.9283C31.0272 9.92433 26.6082 6.59667 21.2905 6.07945C20.2233 5.97351 19.6615 5.97351 18.6067 6.07945Z" fill="#00D845"/>
<path d="M18.9188 10.8279C18.4632 10.8715 17.4458 11.1146 16.9278 11.2953C14.375 12.1926 12.2717 14.2428 11.323 16.7666C10.5865 18.7171 10.5615 21.1661 11.2606 23.0792L11.4166 23.5029L10.8424 23.8332C9.69395 24.5 9.48799 24.6184 9.4443 24.6184C9.38812 24.6184 9.1135 23.9267 8.93874 23.3409C8.73901 22.643 8.52681 21.6335 8.50184 21.1723C8.4956 21.1474 7.93387 21.1287 7.24731 21.1287H5.99902L6.03647 21.4839C6.36727 24.7056 7.85273 27.7466 10.2182 30.0461C15.7669 35.4302 24.6235 35.2993 30.0348 29.7532C30.7463 29.0179 31.4516 28.1143 31.9509 27.2917C32.3816 26.5751 32.7124 25.9021 32.6624 25.8522C32.6375 25.8273 32.3379 25.7089 31.9946 25.5843C31.6513 25.4596 31.1895 25.2914 30.9648 25.2166C30.7401 25.1356 30.5154 25.0484 30.4655 25.0297C30.3968 25.0047 30.3094 25.1107 30.1347 25.4472C29.0861 27.4911 27.1263 29.3481 24.9106 30.4075C23.0194 31.3049 21.0971 31.6414 18.8189 31.4606C16.5907 31.2862 14.1066 30.1894 12.3029 28.5879C11.7911 28.133 11.0483 27.3353 10.7675 26.9365C10.6739 26.7994 10.6239 26.8368 12.0719 25.9956L12.6149 25.6777L13.3826 26.4442C14.7558 27.8214 16.2287 28.6315 18.1137 29.0553C18.6691 29.1737 18.9375 29.1986 19.9611 29.1986C20.6165 29.1986 21.172 29.1799 21.1907 29.1612C21.2156 29.1425 21.1158 28.7063 20.9785 28.1953C20.8412 27.6843 20.6976 27.1546 20.6602 27.0113L20.5915 26.7558L19.7115 26.7184C18.0512 26.6499 16.7343 26.1264 15.4985 25.0421C15.2925 24.8614 15.0616 24.6371 14.9929 24.5498L14.8681 24.3878L16.2475 23.5902L17.6331 22.7988L19.0811 24.3317L20.7475 23.989L22.414 23.6525L24.6609 21.4091L24.4612 20.6738C24.3364 20.2064 24.2365 19.9447 24.1866 19.9447C24.1366 19.9447 23.6311 20.0693 23.0569 20.2251L22.0083 20.5118L21.5714 20.9355C21.0971 21.3967 21.1657 21.378 20.1359 21.4714L19.7614 21.5088L19.312 21.0664C19.0623 20.8296 18.8564 20.6177 18.8564 20.6052C18.8564 20.5865 18.7877 20.3248 18.7066 20.0132L18.5568 19.4462L18.9625 18.904C19.1872 18.5987 19.3807 18.3494 19.3931 18.3369C19.3994 18.3245 19.6678 18.2435 19.9923 18.1625L20.5728 18.0129L21.3654 17.2215C21.8086 16.7853 22.1643 16.3989 22.1643 16.3615C22.1643 16.3242 21.9272 16.0624 21.6401 15.7758L21.1158 15.2586L19.5991 15.6698L18.0762 16.0811L17.7641 16.4052C17.5956 16.5859 17.2398 16.9722 16.984 17.2651C16.7281 17.5518 16.4035 17.9194 16.2662 18.0752C15.7357 18.6735 15.7544 18.4927 16.0852 19.6269C16.2412 20.1815 16.366 20.6489 16.3536 20.6551C16.3224 20.68 15.0304 21.434 14.2315 21.8827C13.9319 22.051 13.6635 22.1881 13.6261 22.1881C13.5949 22.1881 13.5012 21.9263 13.4201 21.6085C13.289 21.1162 13.2703 20.8919 13.2703 19.9759C13.2765 19.01 13.289 18.8604 13.4513 18.2933C13.7883 17.0969 14.3688 16.0936 15.2051 15.2586C16.3536 14.1119 17.864 13.4078 19.3994 13.3018C20.0485 13.252 19.9986 13.3018 20.1047 12.6226C20.1421 12.3796 20.1983 12.0742 20.2295 11.9371C20.2607 11.8 20.2982 11.5757 20.3169 11.4386C20.3418 11.3015 20.3731 11.0959 20.3918 10.9837L20.4292 10.7843L19.7864 10.7967C19.4306 10.7967 19.0374 10.8154 18.9188 10.8279Z" fill="#00D845"/>
</g>
<rect x="0.749023" y="0.75" width="38.5" height="38.5" rx="5.25" stroke="white" stroke-opacity="0.15" stroke-width="1.5"/>
<defs>
<filter id="filter0_d_28_3225" x="1.99902" y="2" width="36" height="36" filterUnits="userSpaceOnUse" color-interpolation-filters="sRGB">
<feFlood flood-opacity="0" result="BackgroundImageFix"/>
<feColorMatrix in="SourceAlpha" type="matrix" values="0 0 0 0 0 0 0 0 0 0 0 0 0 0 0 0 0 0 127 0" result="hardAlpha"/>
<feOffset/>
<feGaussianBlur stdDeviation="2"/>
<feComposite in2="hardAlpha" operator="out"/>
<feColorMatrix type="matrix" values="0 0 0 0 0 0 0 0 0 0 0 0 0 0 0 0 0 0 0.25 0"/>
<feBlend mode="normal" in2="BackgroundImageFix" result="effect1_dropShadow_28_3225"/>
<feBlend mode="normal" in="SourceGraphic" in2="effect1_dropShadow_28_3225" result="shape"/>
</filter>
<linearGradient id="paint0_linear_28_3225" x1="19.999" y1="0" x2="19.999" y2="40" gradientUnits="userSpaceOnUse">
<stop stop-color="#00230B"/>
<stop offset="1" stop-color="#001B08"/>
</linearGradient>
</defs>
</svg>
