<svg width="121" height="40" viewBox="0 0 121 40" fill="none" xmlns="http://www.w3.org/2000/svg">
<rect x="-0.000244141" y="-1.14441e-05" width="121" height="40" rx="6" fill="url(#paint0_linear_18_2836)"/>
<g filter="url(#filter0_d_18_2836)">
<path d="M35.327 14.7658L23.2998 14.1667H37.9997V13H21.3907V15.4594V17.4144C21.3907 17.4459 20.9134 14.545 20.7861 13.7252H19.4816V15.8694V17.8243C19.4816 17.8558 18.9088 14.3874 18.877 13.9459C15.5679 13.9459 9.99976 13.9459 9.99976 13.9459C10.6043 14.4504 13.9452 17.2883 16.3316 18.4549C17.5088 19.0225 18.9725 19.054 20.277 19.0856C20.9452 19.1171 21.6134 19.1486 22.1225 19.6531C22.8543 20.3468 23.0134 21.4504 22.377 22.2703C21.7725 23.0901 20.0543 23.2793 20.0543 23.2793L18.5907 24.982V27H21.8679L21.9634 25.0135L24.7952 23.027C24.5088 23.2793 23.8088 23.9099 22.8225 25.4549C22.5998 25.8018 22.4088 26.1802 22.2816 26.5585C22.9816 25.9594 24.4452 25.5495 26.1634 25.5495C27.8498 25.5495 29.3134 25.9594 30.0134 26.5585C29.8861 26.1802 29.6952 25.8018 29.4725 25.4549C28.4543 23.9099 27.7861 23.2793 27.4998 23.027L30.3316 25.0135L30.427 27H33.4816V24.982L32.0497 23.2477C32.0497 23.2477 29.9179 23.1216 29.377 22.2387C27.7225 19.7793 29.9816 15.9324 35.327 14.7658Z" fill="#DFA86A"/>
</g>
<g filter="url(#filter1_d_18_2836)">
<path d="M47.5544 18H46.2732L49.1521 9.99998H50.5466L53.4255 18H52.1443L49.8826 11.4531H49.8201L47.5544 18ZM47.7693 14.8672H51.9255V15.8828H47.7693V14.8672ZM58.8679 12L56.6921 18H55.4421L53.2624 12H54.5164L56.0359 16.6172H56.0984L57.614 12H58.8679ZM61.5398 18.1328C61.1596 18.1328 60.8158 18.0625 60.5085 17.9219C60.2012 17.7786 59.9578 17.5716 59.7781 17.3008C59.601 17.0299 59.5124 16.6979 59.5124 16.3047C59.5124 15.9661 59.5776 15.6875 59.7078 15.4687C59.838 15.25 60.0137 15.0768 60.2351 14.9492C60.4565 14.8216 60.7039 14.7252 60.9773 14.6601C61.2507 14.595 61.5294 14.5456 61.8132 14.5117C62.1726 14.47 62.4643 14.4362 62.6882 14.4101C62.9122 14.3815 63.0749 14.3359 63.1765 14.2734C63.2781 14.2109 63.3289 14.1094 63.3289 13.9687V13.9414C63.3289 13.6002 63.2325 13.3359 63.0398 13.1484C62.8497 12.9609 62.5658 12.8672 62.1882 12.8672C61.795 12.8672 61.4851 12.9544 61.2585 13.1289C61.0346 13.3008 60.8796 13.4922 60.7937 13.7031L59.696 13.4531C59.8262 13.0885 60.0164 12.7943 60.2664 12.5703C60.519 12.3437 60.8093 12.1797 61.1374 12.0781C61.4656 11.9739 61.8106 11.9219 62.1726 11.9219C62.4122 11.9219 62.6661 11.9505 62.9343 12.0078C63.2052 12.0625 63.4578 12.164 63.6921 12.3125C63.9291 12.4609 64.1231 12.6732 64.2742 12.9492C64.4252 13.2226 64.5007 13.5781 64.5007 14.0156V18H63.3601V17.1797H63.3132C63.2377 17.3307 63.1244 17.4791 62.9734 17.625C62.8223 17.7708 62.6283 17.8919 62.3914 17.9883C62.1544 18.0846 61.8705 18.1328 61.5398 18.1328ZM61.7937 17.1953C62.1166 17.1953 62.3927 17.1315 62.6218 17.0039C62.8536 16.8763 63.0294 16.7096 63.1492 16.5039C63.2716 16.2956 63.3328 16.0729 63.3328 15.8359V15.0625C63.2911 15.1041 63.2104 15.1432 63.0906 15.1797C62.9734 15.2135 62.8393 15.2435 62.6882 15.2695C62.5372 15.293 62.3901 15.3151 62.2468 15.3359C62.1036 15.3541 61.9838 15.3698 61.8874 15.3828C61.6609 15.4114 61.4539 15.4596 61.2664 15.5273C61.0815 15.595 60.933 15.6927 60.821 15.8203C60.7117 15.9453 60.657 16.112 60.657 16.3203C60.657 16.6094 60.7637 16.8281 60.9773 16.9765C61.1908 17.1224 61.463 17.1953 61.7937 17.1953ZM66.0564 18V12H67.2244V18H66.0564ZM66.6462 11.0742C66.4431 11.0742 66.2686 11.0065 66.1228 10.8711C65.9796 10.7331 65.908 10.569 65.908 10.3789C65.908 10.1862 65.9796 10.0221 66.1228 9.8867C66.2686 9.74868 66.4431 9.67967 66.6462 9.67967C66.8494 9.67967 67.0225 9.74868 67.1658 9.8867C67.3116 10.0221 67.3845 10.1862 67.3845 10.3789C67.3845 10.569 67.3116 10.7331 67.1658 10.8711C67.0225 11.0065 66.8494 11.0742 66.6462 11.0742ZM69.9636 9.99998V18H68.7956V9.99998H69.9636ZM73.281 18.1328C72.9008 18.1328 72.557 18.0625 72.2497 17.9219C71.9425 17.7786 71.699 17.5716 71.5193 17.3008C71.3422 17.0299 71.2537 16.6979 71.2537 16.3047C71.2537 15.9661 71.3188 15.6875 71.449 15.4687C71.5792 15.25 71.755 15.0768 71.9763 14.9492C72.1977 14.8216 72.4451 14.7252 72.7185 14.6601C72.9919 14.595 73.2706 14.5456 73.5544 14.5117C73.9138 14.47 74.2055 14.4362 74.4294 14.4101C74.6534 14.3815 74.8162 14.3359 74.9177 14.2734C75.0193 14.2109 75.0701 14.1094 75.0701 13.9687V13.9414C75.0701 13.6002 74.9737 13.3359 74.781 13.1484C74.5909 12.9609 74.307 12.8672 73.9294 12.8672C73.5362 12.8672 73.2263 12.9544 72.9997 13.1289C72.7758 13.3008 72.6208 13.4922 72.5349 13.7031L71.4372 13.4531C71.5675 13.0885 71.7576 12.7943 72.0076 12.5703C72.2602 12.3437 72.5505 12.1797 72.8787 12.0781C73.2068 11.9739 73.5518 11.9219 73.9138 11.9219C74.1534 11.9219 74.4073 11.9505 74.6755 12.0078C74.9464 12.0625 75.199 12.164 75.4333 12.3125C75.6703 12.4609 75.8643 12.6732 76.0154 12.9492C76.1664 13.2226 76.2419 13.5781 76.2419 14.0156V18H75.1013V17.1797H75.0544C74.9789 17.3307 74.8656 17.4791 74.7146 17.625C74.5635 17.7708 74.3695 17.8919 74.1326 17.9883C73.8956 18.0846 73.6117 18.1328 73.281 18.1328ZM73.5349 17.1953C73.8578 17.1953 74.1339 17.1315 74.363 17.0039C74.5948 16.8763 74.7706 16.7096 74.8904 16.5039C75.0128 16.2956 75.074 16.0729 75.074 15.8359V15.0625C75.0323 15.1041 74.9516 15.1432 74.8318 15.1797C74.7146 15.2135 74.5805 15.2435 74.4294 15.2695C74.2784 15.293 74.1313 15.3151 73.988 15.3359C73.8448 15.3541 73.725 15.3698 73.6287 15.3828C73.4021 15.4114 73.1951 15.4596 73.0076 15.5273C72.8227 15.595 72.6742 15.6927 72.5622 15.8203C72.4529 15.9453 72.3982 16.112 72.3982 16.3203C72.3982 16.6094 72.505 16.8281 72.7185 16.9765C72.932 17.1224 73.2042 17.1953 73.5349 17.1953ZM77.8913 18V9.99998H79.0593V12.9726H79.1296C79.1973 12.8476 79.295 12.7031 79.4226 12.539C79.5502 12.375 79.7273 12.2318 79.9538 12.1094C80.1804 11.9844 80.4799 11.9219 80.8523 11.9219C81.3367 11.9219 81.769 12.0443 82.1492 12.289C82.5294 12.5338 82.8275 12.8867 83.0437 13.3476C83.2624 13.8086 83.3718 14.3633 83.3718 15.0117C83.3718 15.6601 83.2637 16.2161 83.0476 16.6797C82.8315 17.1406 82.5346 17.4961 82.157 17.7461C81.7794 17.9935 81.3484 18.1172 80.864 18.1172C80.4994 18.1172 80.2012 18.056 79.9695 17.9336C79.7403 17.8112 79.5606 17.668 79.4304 17.5039C79.3002 17.3398 79.1999 17.194 79.1296 17.0664H79.032V18H77.8913ZM79.0359 15C79.0359 15.4219 79.0971 15.7916 79.2195 16.1094C79.3419 16.4271 79.519 16.6758 79.7507 16.8555C79.9825 17.0325 80.2663 17.1211 80.6023 17.1211C80.9512 17.1211 81.2429 17.0286 81.4773 16.8437C81.7117 16.6562 81.8887 16.4023 82.0085 16.082C82.1309 15.7617 82.1921 15.401 82.1921 15C82.1921 14.6041 82.1322 14.2487 82.0124 13.9336C81.8953 13.6185 81.7182 13.3698 81.4812 13.1875C81.2468 13.0052 80.9538 12.914 80.6023 12.914C80.2637 12.914 79.9773 13.0013 79.7429 13.1758C79.5111 13.3502 79.3354 13.5937 79.2156 13.9062C79.0958 14.2187 79.0359 14.5833 79.0359 15ZM85.8513 9.99998V18H84.6833V9.99998H85.8513ZM90.0085 18.1211C89.4174 18.1211 88.9083 17.9948 88.4812 17.7422C88.0567 17.487 87.7286 17.1289 87.4968 16.668C87.2676 16.2044 87.1531 15.6614 87.1531 15.039C87.1531 14.4245 87.2676 13.8828 87.4968 13.414C87.7286 12.9453 88.0515 12.5794 88.4656 12.3164C88.8822 12.0534 89.3692 11.9219 89.9265 11.9219C90.265 11.9219 90.5932 11.9778 90.9109 12.0898C91.2286 12.2018 91.5137 12.3776 91.7663 12.6172C92.0189 12.8568 92.2182 13.168 92.364 13.5508C92.5098 13.931 92.5828 14.3932 92.5828 14.9375V15.3515H87.8132V14.4765H91.4382C91.4382 14.1693 91.3757 13.8971 91.2507 13.6601C91.1257 13.4206 90.9499 13.2318 90.7234 13.0937C90.4994 12.9557 90.2364 12.8867 89.9343 12.8867C89.6062 12.8867 89.3197 12.9674 89.0749 13.1289C88.8328 13.2877 88.6453 13.4961 88.5124 13.7539C88.3822 14.0091 88.3171 14.2864 88.3171 14.5859V15.2695C88.3171 15.6706 88.3874 16.0117 88.5281 16.293C88.6713 16.5742 88.8705 16.789 89.1257 16.9375C89.3809 17.0833 89.6791 17.1562 90.0203 17.1562C90.2416 17.1562 90.4434 17.125 90.6257 17.0625C90.808 16.9974 90.9656 16.901 91.0984 16.7734C91.2312 16.6458 91.3328 16.4883 91.4031 16.3008L92.5085 16.5C92.42 16.8255 92.2611 17.1107 92.032 17.3555C91.8054 17.5976 91.5203 17.7864 91.1765 17.9219C90.8354 18.0547 90.446 18.1211 90.0085 18.1211ZM99.6452 12V12.9375H96.2546V12H99.6452ZM97.1843 18V11.3047C97.1843 10.9297 97.2663 10.6185 97.4304 10.3711C97.5945 10.1211 97.8119 9.93488 98.0827 9.81248C98.3536 9.68748 98.6479 9.62498 98.9656 9.62498C99.1999 9.62498 99.4005 9.64451 99.5671 9.68358C99.7338 9.72004 99.8575 9.75389 99.9382 9.78514L99.6648 10.7305C99.6101 10.7148 99.5398 10.6966 99.4538 10.6758C99.3679 10.6523 99.2637 10.6406 99.1413 10.6406C98.8575 10.6406 98.6544 10.7109 98.532 10.8515C98.4122 10.9922 98.3523 11.1953 98.3523 11.4609V18H97.1843ZM103.141 18.1211C102.579 18.1211 102.088 17.9922 101.669 17.7344C101.249 17.4765 100.924 17.1159 100.692 16.6523C100.46 16.1888 100.344 15.6471 100.344 15.0273C100.344 14.4049 100.46 13.8607 100.692 13.3945C100.924 12.9284 101.249 12.5664 101.669 12.3086C102.088 12.0508 102.579 11.9219 103.141 11.9219C103.704 11.9219 104.195 12.0508 104.614 12.3086C105.033 12.5664 105.359 12.9284 105.591 13.3945C105.822 13.8607 105.938 14.4049 105.938 15.0273C105.938 15.6471 105.822 16.1888 105.591 16.6523C105.359 17.1159 105.033 17.4765 104.614 17.7344C104.195 17.9922 103.704 18.1211 103.141 18.1211ZM103.145 17.1406C103.51 17.1406 103.812 17.0443 104.051 16.8515C104.291 16.6588 104.468 16.4023 104.583 16.082C104.7 15.7617 104.759 15.4088 104.759 15.0234C104.759 14.6406 104.7 14.289 104.583 13.9687C104.468 13.6458 104.291 13.3867 104.051 13.1914C103.812 12.9961 103.51 12.8984 103.145 12.8984C102.778 12.8984 102.473 12.9961 102.231 13.1914C101.992 13.3867 101.813 13.6458 101.696 13.9687C101.581 14.289 101.524 14.6406 101.524 15.0234C101.524 15.4088 101.581 15.7617 101.696 16.082C101.813 16.4023 101.992 16.6588 102.231 16.8515C102.473 17.0443 102.778 17.1406 103.145 17.1406ZM107.242 18V12H108.371V12.9531H108.433C108.543 12.6302 108.735 12.3763 109.011 12.1914C109.29 12.0039 109.605 11.9101 109.957 11.9101C110.03 11.9101 110.116 11.9127 110.215 11.918C110.316 11.9232 110.396 11.9297 110.453 11.9375V13.0547C110.406 13.0416 110.323 13.0273 110.203 13.0117C110.083 12.9935 109.963 12.9844 109.843 12.9844C109.567 12.9844 109.321 13.043 109.105 13.1601C108.892 13.2747 108.722 13.4349 108.597 13.6406C108.472 13.8437 108.41 14.0755 108.41 14.3359V18H107.242Z" fill="#E8E8E8"/>
<path d="M46.6603 31V22.2727H52.6177V23.9858H48.7696V25.7755H52.2384V27.4929H48.7696V31H46.6603ZM56.2547 31.1236C55.5672 31.1236 54.9763 30.9829 54.482 30.7017C53.9905 30.4176 53.6113 30.0227 53.3442 29.517C53.08 29.0085 52.9479 28.419 52.9479 27.7486C52.9479 27.0753 53.08 26.4858 53.3442 25.9801C53.6113 25.4716 53.9905 25.0767 54.482 24.7954C54.9763 24.5113 55.5672 24.3693 56.2547 24.3693C56.9422 24.3693 57.5317 24.5113 58.0232 24.7954C58.5175 25.0767 58.8968 25.4716 59.161 25.9801C59.428 26.4858 59.5615 27.0753 59.5615 27.7486C59.5615 28.419 59.428 29.0085 59.161 29.517C58.8968 30.0227 58.5175 30.4176 58.0232 30.7017C57.5317 30.9829 56.9422 31.1236 56.2547 31.1236ZM56.2675 29.5511C56.5175 29.5511 56.7292 29.4744 56.9025 29.321C57.0757 29.1676 57.2078 28.9545 57.2988 28.6818C57.3925 28.4091 57.4394 28.0937 57.4394 27.7358C57.4394 27.3721 57.3925 27.054 57.2988 26.7812C57.2078 26.5085 57.0757 26.2954 56.9025 26.142C56.7292 25.9886 56.5175 25.9119 56.2675 25.9119C56.009 25.9119 55.7902 25.9886 55.6113 26.142C55.4351 26.2954 55.3002 26.5085 55.2064 26.7812C55.1155 27.054 55.0701 27.3721 55.0701 27.7358C55.0701 28.0937 55.1155 28.4091 55.2064 28.6818C55.3002 28.9545 55.4351 29.1676 55.6113 29.321C55.7902 29.4744 56.009 29.5511 56.2675 29.5511ZM60.629 31V24.4545H62.6532V25.6477H62.7213C62.8407 25.2159 63.0353 24.8949 63.3051 24.6846C63.575 24.4716 63.889 24.365 64.2469 24.365C64.3435 24.365 64.4429 24.3721 64.5452 24.3863C64.6475 24.3977 64.7426 24.4162 64.8307 24.4417V26.2528C64.7313 26.2187 64.6006 26.1917 64.4387 26.1719C64.2796 26.152 64.1375 26.142 64.0125 26.142C63.7654 26.142 63.5424 26.1974 63.3435 26.3082C63.1475 26.4162 62.9926 26.5682 62.879 26.7642C62.7682 26.9574 62.7128 27.1846 62.7128 27.446V31H60.629ZM68.3911 33.5909C67.7689 33.5909 67.2363 33.5042 66.7931 33.3309C66.3499 33.1576 66.0019 32.9204 65.749 32.6193C65.4962 32.3182 65.3442 31.9772 65.2931 31.5966L67.2661 31.4858C67.303 31.6193 67.3712 31.7358 67.4706 31.8352C67.5729 31.9346 67.705 32.0113 67.8669 32.0653C68.0317 32.1193 68.2249 32.1463 68.4465 32.1463C68.7959 32.1463 69.0843 32.0611 69.3115 31.8906C69.5417 31.723 69.6567 31.429 69.6567 31.0085V29.8579H69.5843C69.5019 30.0596 69.3769 30.24 69.2093 30.3991C69.0417 30.5582 68.8328 30.6832 68.5828 30.7741C68.3357 30.865 68.0516 30.9105 67.7306 30.9105C67.2533 30.9105 66.8158 30.7997 66.4181 30.5781C66.0232 30.3537 65.7064 30.0071 65.4678 29.5383C65.232 29.0667 65.1141 28.4602 65.1141 27.7187C65.1141 26.9545 65.2363 26.3253 65.4806 25.8309C65.7249 25.3338 66.0445 24.9659 66.4394 24.7272C66.8371 24.4886 67.2647 24.3693 67.7221 24.3693C68.0658 24.3693 68.3598 24.429 68.6042 24.5483C68.8513 24.6647 69.0544 24.8153 69.2135 25C69.3726 25.1846 69.4934 25.3764 69.5757 25.5753H69.6354V24.4545H71.7107V31.0255C71.7107 31.5795 71.5715 32.0468 71.2931 32.4275C71.0147 32.8082 70.6255 33.0966 70.1255 33.2926C69.6255 33.4915 69.0473 33.5909 68.3911 33.5909ZM68.455 29.3934C68.7078 29.3934 68.9238 29.3267 69.1027 29.1932C69.2817 29.0596 69.4195 28.8679 69.5161 28.6179C69.6127 28.3679 69.661 28.0682 69.661 27.7187C69.661 27.3636 69.6127 27.0582 69.5161 26.8025C69.4223 26.544 69.2846 26.3451 69.1027 26.2059C68.9238 26.0667 68.7078 25.9971 68.455 25.9971C68.1965 25.9971 67.9777 26.0682 67.7988 26.2102C67.6198 26.3522 67.4834 26.5525 67.3897 26.8111C67.2988 27.0667 67.2533 27.3693 67.2533 27.7187C67.2533 28.0682 67.3002 28.3679 67.3939 28.6179C67.4877 28.8679 67.6226 29.0596 67.7988 29.1932C67.9777 29.3267 68.1965 29.3934 68.455 29.3934ZM76.0988 31.1236C75.4142 31.1236 74.8233 30.9886 74.3261 30.7187C73.8318 30.446 73.4511 30.0582 73.1841 29.5554C72.9198 29.0497 72.7877 28.4488 72.7877 27.7528C72.7877 27.0767 72.9213 26.4858 73.1883 25.9801C73.4554 25.4716 73.8318 25.0767 74.3176 24.7954C74.8034 24.5113 75.3758 24.3693 76.0349 24.3693C76.5008 24.3693 76.9269 24.4417 77.3133 24.5866C77.6997 24.7315 78.0335 24.946 78.3147 25.2301C78.596 25.5142 78.8147 25.865 78.971 26.2826C79.1272 26.6974 79.2054 27.1733 79.2054 27.7102V28.2301H73.5164V27.0199H77.2664C77.2636 26.7983 77.211 26.6008 77.1088 26.4275C77.0065 26.2542 76.8659 26.1193 76.6869 26.0227C76.5108 25.9233 76.3076 25.8736 76.0775 25.8736C75.8446 25.8736 75.6358 25.9261 75.4511 26.0312C75.2664 26.1335 75.1201 26.2741 75.0122 26.4531C74.9042 26.6292 74.8474 26.8295 74.8417 27.054V28.2855C74.8417 28.5525 74.8943 28.7869 74.9994 28.9886C75.1045 29.1875 75.2537 29.3423 75.4468 29.4531C75.64 29.5639 75.8701 29.6193 76.1372 29.6193C76.3218 29.6193 76.4894 29.5937 76.64 29.5426C76.7906 29.4915 76.9198 29.4162 77.0278 29.3167C77.1358 29.2173 77.2167 29.0951 77.2707 28.9503L79.1841 29.0057C79.1045 29.4346 78.9298 29.8082 78.6599 30.1264C78.3929 30.4417 78.042 30.6875 77.6073 30.8636C77.1727 31.0369 76.6698 31.1236 76.0988 31.1236Z" fill="#DFA86A"/>
</g>
<rect x="0.749756" y="0.749989" width="119.5" height="38.5" rx="5.25" stroke="white" stroke-opacity="0.15" stroke-width="1.5"/>
<defs>
<filter id="filter0_d_18_2836" x="5.99976" y="1.99998" width="36" height="36" filterUnits="userSpaceOnUse" color-interpolation-filters="sRGB">
<feFlood flood-opacity="0" result="BackgroundImageFix"/>
<feColorMatrix in="SourceAlpha" type="matrix" values="0 0 0 0 0 0 0 0 0 0 0 0 0 0 0 0 0 0 127 0" result="hardAlpha"/>
<feOffset/>
<feGaussianBlur stdDeviation="2"/>
<feComposite in2="hardAlpha" operator="out"/>
<feColorMatrix type="matrix" values="0 0 0 0 0 0 0 0 0 0 0 0 0 0 0 0 0 0 0.25 0"/>
<feBlend mode="normal" in2="BackgroundImageFix" result="effect1_dropShadow_18_2836"/>
<feBlend mode="normal" in="SourceGraphic" in2="effect1_dropShadow_18_2836" result="shape"/>
</filter>
<filter id="filter1_d_18_2836" x="41.9998" y="2.99998" width="73" height="34.5909" filterUnits="userSpaceOnUse" color-interpolation-filters="sRGB">
<feFlood flood-opacity="0" result="BackgroundImageFix"/>
<feColorMatrix in="SourceAlpha" type="matrix" values="0 0 0 0 0 0 0 0 0 0 0 0 0 0 0 0 0 0 127 0" result="hardAlpha"/>
<feOffset/>
<feGaussianBlur stdDeviation="2"/>
<feComposite in2="hardAlpha" operator="out"/>
<feColorMatrix type="matrix" values="0 0 0 0 0 0 0 0 0 0 0 0 0 0 0 0 0 0 0.25 0"/>
<feBlend mode="normal" in2="BackgroundImageFix" result="effect1_dropShadow_18_2836"/>
<feBlend mode="normal" in="SourceGraphic" in2="effect1_dropShadow_18_2836" result="shape"/>
</filter>
<linearGradient id="paint0_linear_18_2836" x1="60.4997" y1="-1.14441e-05" x2="60.4997" y2="40" gradientUnits="userSpaceOnUse">
<stop stop-color="#251E17"/>
<stop offset="1" stop-color="#1B1610"/>
</linearGradient>
</defs>
</svg>
