<svg width="121" height="40" viewBox="0 0 121 40" fill="none" xmlns="http://www.w3.org/2000/svg">
<rect x="-0.000244141" y="-6.10352e-05" width="121" height="40" rx="6" fill="url(#paint0_linear_18_2887)"/>
<g filter="url(#filter0_d_18_2887)">
<path d="M34.9844 9.02457L31.5565 29.595C31.514 29.8513 31.3535 30.0727 31.1238 30.1942C30.9965 30.2641 30.8534 30.3015 30.7078 30.3023C30.5988 30.3007 30.4915 30.2782 30.3916 30.2358L24.3263 27.7394L21.0897 31.692C20.9291 31.8901 20.687 32.0032 20.4324 31.9999C20.3326 32.0016 20.2327 31.9816 20.1412 31.9417C19.7884 31.8227 19.5563 31.4815 19.5754 31.1095V26.4745L31.1405 12.3282L16.8298 24.6854L11.5465 22.5135C11.2378 22.3987 11.0248 22.1108 11.0057 21.7812C10.9649 21.4417 11.1371 21.1105 11.4383 20.9491L33.7114 8.13418C33.9868 7.95527 34.3429 7.95527 34.6183 8.13418C34.9053 8.33223 35.0493 8.68173 34.9844 9.02457Z" fill="white"/>
</g>
<g filter="url(#filter1_d_18_2887)">
<path d="M47.5544 17.9999H46.2732L49.1521 9.99994H50.5466L53.4255 17.9999H52.1443L49.8826 11.4531H49.8201L47.5544 17.9999ZM47.7693 14.8671H51.9255V15.8827H47.7693V14.8671ZM58.8679 11.9999L56.6921 17.9999H55.4421L53.2624 11.9999H54.5164L56.0359 16.6171H56.0984L57.614 11.9999H58.8679ZM61.5398 18.1327C61.1596 18.1327 60.8158 18.0624 60.5085 17.9218C60.2012 17.7786 59.9578 17.5716 59.7781 17.3007C59.601 17.0299 59.5124 16.6979 59.5124 16.3046C59.5124 15.9661 59.5776 15.6874 59.7078 15.4687C59.838 15.2499 60.0137 15.0768 60.2351 14.9492C60.4565 14.8216 60.7039 14.7252 60.9773 14.6601C61.2507 14.595 61.5294 14.5455 61.8132 14.5117C62.1726 14.47 62.4643 14.4361 62.6882 14.4101C62.9122 14.3814 63.0749 14.3359 63.1765 14.2734C63.2781 14.2109 63.3289 14.1093 63.3289 13.9687V13.9413C63.3289 13.6002 63.2325 13.3359 63.0398 13.1484C62.8497 12.9609 62.5658 12.8671 62.1882 12.8671C61.795 12.8671 61.4851 12.9544 61.2585 13.1288C61.0346 13.3007 60.8796 13.4921 60.7937 13.7031L59.696 13.4531C59.8262 13.0885 60.0164 12.7942 60.2664 12.5702C60.519 12.3437 60.8093 12.1796 61.1374 12.0781C61.4656 11.9739 61.8106 11.9218 62.1726 11.9218C62.4122 11.9218 62.6661 11.9505 62.9343 12.0078C63.2052 12.0624 63.4578 12.164 63.6921 12.3124C63.9291 12.4609 64.1231 12.6731 64.2742 12.9492C64.4252 13.2226 64.5007 13.5781 64.5007 14.0156V17.9999H63.3601V17.1796H63.3132C63.2377 17.3307 63.1244 17.4791 62.9734 17.6249C62.8223 17.7708 62.6283 17.8919 62.3914 17.9882C62.1544 18.0846 61.8705 18.1327 61.5398 18.1327ZM61.7937 17.1952C62.1166 17.1952 62.3927 17.1314 62.6218 17.0038C62.8536 16.8762 63.0294 16.7096 63.1492 16.5038C63.2716 16.2955 63.3328 16.0729 63.3328 15.8359V15.0624C63.2911 15.1041 63.2104 15.1432 63.0906 15.1796C62.9734 15.2135 62.8393 15.2434 62.6882 15.2695C62.5372 15.2929 62.3901 15.315 62.2468 15.3359C62.1036 15.3541 61.9838 15.3697 61.8874 15.3827C61.6609 15.4114 61.4539 15.4596 61.2664 15.5273C61.0815 15.595 60.933 15.6926 60.821 15.8202C60.7117 15.9452 60.657 16.1119 60.657 16.3202C60.657 16.6093 60.7637 16.8281 60.9773 16.9765C61.1908 17.1223 61.463 17.1952 61.7937 17.1952ZM66.0564 17.9999V11.9999H67.2244V17.9999H66.0564ZM66.6462 11.0742C66.4431 11.0742 66.2686 11.0064 66.1228 10.871C65.9796 10.733 65.908 10.5689 65.908 10.3788C65.908 10.1861 65.9796 10.0221 66.1228 9.88666C66.2686 9.74864 66.4431 9.67963 66.6462 9.67963C66.8494 9.67963 67.0225 9.74864 67.1658 9.88666C67.3116 10.0221 67.3845 10.1861 67.3845 10.3788C67.3845 10.5689 67.3116 10.733 67.1658 10.871C67.0225 11.0064 66.8494 11.0742 66.6462 11.0742ZM69.9636 9.99994V17.9999H68.7956V9.99994H69.9636ZM73.281 18.1327C72.9008 18.1327 72.557 18.0624 72.2497 17.9218C71.9425 17.7786 71.699 17.5716 71.5193 17.3007C71.3422 17.0299 71.2537 16.6979 71.2537 16.3046C71.2537 15.9661 71.3188 15.6874 71.449 15.4687C71.5792 15.2499 71.755 15.0768 71.9763 14.9492C72.1977 14.8216 72.4451 14.7252 72.7185 14.6601C72.9919 14.595 73.2706 14.5455 73.5544 14.5117C73.9138 14.47 74.2055 14.4361 74.4294 14.4101C74.6534 14.3814 74.8162 14.3359 74.9177 14.2734C75.0193 14.2109 75.0701 14.1093 75.0701 13.9687V13.9413C75.0701 13.6002 74.9737 13.3359 74.781 13.1484C74.5909 12.9609 74.307 12.8671 73.9294 12.8671C73.5362 12.8671 73.2263 12.9544 72.9997 13.1288C72.7758 13.3007 72.6208 13.4921 72.5349 13.7031L71.4372 13.4531C71.5675 13.0885 71.7576 12.7942 72.0076 12.5702C72.2602 12.3437 72.5505 12.1796 72.8787 12.0781C73.2068 11.9739 73.5518 11.9218 73.9138 11.9218C74.1534 11.9218 74.4073 11.9505 74.6755 12.0078C74.9464 12.0624 75.199 12.164 75.4333 12.3124C75.6703 12.4609 75.8643 12.6731 76.0154 12.9492C76.1664 13.2226 76.2419 13.5781 76.2419 14.0156V17.9999H75.1013V17.1796H75.0544C74.9789 17.3307 74.8656 17.4791 74.7146 17.6249C74.5635 17.7708 74.3695 17.8919 74.1326 17.9882C73.8956 18.0846 73.6117 18.1327 73.281 18.1327ZM73.5349 17.1952C73.8578 17.1952 74.1339 17.1314 74.363 17.0038C74.5948 16.8762 74.7706 16.7096 74.8904 16.5038C75.0128 16.2955 75.074 16.0729 75.074 15.8359V15.0624C75.0323 15.1041 74.9516 15.1432 74.8318 15.1796C74.7146 15.2135 74.5805 15.2434 74.4294 15.2695C74.2784 15.2929 74.1313 15.315 73.988 15.3359C73.8448 15.3541 73.725 15.3697 73.6287 15.3827C73.4021 15.4114 73.1951 15.4596 73.0076 15.5273C72.8227 15.595 72.6742 15.6926 72.5622 15.8202C72.4529 15.9452 72.3982 16.1119 72.3982 16.3202C72.3982 16.6093 72.505 16.8281 72.7185 16.9765C72.932 17.1223 73.2042 17.1952 73.5349 17.1952ZM77.8913 17.9999V9.99994H79.0593V12.9726H79.1296C79.1973 12.8476 79.295 12.7031 79.4226 12.539C79.5502 12.3749 79.7273 12.2317 79.9538 12.1093C80.1804 11.9843 80.4799 11.9218 80.8523 11.9218C81.3367 11.9218 81.769 12.0442 82.1492 12.289C82.5294 12.5338 82.8275 12.8867 83.0437 13.3476C83.2624 13.8085 83.3718 14.3632 83.3718 15.0117C83.3718 15.6601 83.2637 16.2161 83.0476 16.6796C82.8315 17.1406 82.5346 17.496 82.157 17.746C81.7794 17.9934 81.3484 18.1171 80.864 18.1171C80.4994 18.1171 80.2012 18.0559 79.9695 17.9335C79.7403 17.8111 79.5606 17.6679 79.4304 17.5038C79.3002 17.3398 79.1999 17.1939 79.1296 17.0663H79.032V17.9999H77.8913ZM79.0359 14.9999C79.0359 15.4218 79.0971 15.7916 79.2195 16.1093C79.3419 16.427 79.519 16.6757 79.7507 16.8554C79.9825 17.0325 80.2663 17.121 80.6023 17.121C80.9512 17.121 81.2429 17.0286 81.4773 16.8437C81.7117 16.6562 81.8887 16.4023 82.0085 16.082C82.1309 15.7617 82.1921 15.401 82.1921 14.9999C82.1921 14.6041 82.1322 14.2486 82.0124 13.9335C81.8953 13.6184 81.7182 13.3697 81.4812 13.1874C81.2468 13.0051 80.9538 12.914 80.6023 12.914C80.2637 12.914 79.9773 13.0012 79.7429 13.1757C79.5111 13.3502 79.3354 13.5937 79.2156 13.9062C79.0958 14.2187 79.0359 14.5833 79.0359 14.9999ZM85.8513 9.99994V17.9999H84.6833V9.99994H85.8513ZM90.0085 18.121C89.4174 18.121 88.9083 17.9947 88.4812 17.7421C88.0567 17.4869 87.7286 17.1288 87.4968 16.6679C87.2676 16.2044 87.1531 15.6614 87.1531 15.039C87.1531 14.4244 87.2676 13.8827 87.4968 13.414C87.7286 12.9452 88.0515 12.5794 88.4656 12.3163C88.8822 12.0533 89.3692 11.9218 89.9265 11.9218C90.265 11.9218 90.5932 11.9778 90.9109 12.0898C91.2286 12.2018 91.5137 12.3775 91.7663 12.6171C92.0189 12.8567 92.2182 13.1679 92.364 13.5507C92.5098 13.9309 92.5828 14.3932 92.5828 14.9374V15.3515H87.8132V14.4765H91.4382C91.4382 14.1692 91.3757 13.8971 91.2507 13.6601C91.1257 13.4205 90.9499 13.2317 90.7234 13.0937C90.4994 12.9557 90.2364 12.8867 89.9343 12.8867C89.6062 12.8867 89.3197 12.9674 89.0749 13.1288C88.8328 13.2877 88.6453 13.496 88.5124 13.7538C88.3822 14.0091 88.3171 14.2864 88.3171 14.5859V15.2695C88.3171 15.6705 88.3874 16.0117 88.5281 16.2929C88.6713 16.5742 88.8705 16.789 89.1257 16.9374C89.3809 17.0833 89.6791 17.1562 90.0203 17.1562C90.2416 17.1562 90.4434 17.1249 90.6257 17.0624C90.808 16.9973 90.9656 16.901 91.0984 16.7734C91.2312 16.6458 91.3328 16.4882 91.4031 16.3007L92.5085 16.4999C92.42 16.8255 92.2611 17.1106 92.032 17.3554C91.8054 17.5976 91.5203 17.7864 91.1765 17.9218C90.8354 18.0546 90.446 18.121 90.0085 18.121ZM99.6452 11.9999V12.9374H96.2546V11.9999H99.6452ZM97.1843 17.9999V11.3046C97.1843 10.9296 97.2663 10.6184 97.4304 10.371C97.5945 10.121 97.8119 9.93483 98.0827 9.81244C98.3536 9.68744 98.6479 9.62494 98.9656 9.62494C99.1999 9.62494 99.4005 9.64447 99.5671 9.68353C99.7338 9.71999 99.8575 9.75384 99.9382 9.78509L99.6648 10.7304C99.6101 10.7148 99.5398 10.6966 99.4538 10.6757C99.3679 10.6523 99.2637 10.6406 99.1413 10.6406C98.8575 10.6406 98.6544 10.7109 98.532 10.8515C98.4122 10.9921 98.3523 11.1953 98.3523 11.4609V17.9999H97.1843ZM103.141 18.121C102.579 18.121 102.088 17.9921 101.669 17.7343C101.249 17.4765 100.924 17.1158 100.692 16.6523C100.46 16.1887 100.344 15.6471 100.344 15.0273C100.344 14.4049 100.46 13.8606 100.692 13.3945C100.924 12.9283 101.249 12.5663 101.669 12.3085C102.088 12.0507 102.579 11.9218 103.141 11.9218C103.704 11.9218 104.195 12.0507 104.614 12.3085C105.033 12.5663 105.359 12.9283 105.591 13.3945C105.822 13.8606 105.938 14.4049 105.938 15.0273C105.938 15.6471 105.822 16.1887 105.591 16.6523C105.359 17.1158 105.033 17.4765 104.614 17.7343C104.195 17.9921 103.704 18.121 103.141 18.121ZM103.145 17.1406C103.51 17.1406 103.812 17.0442 104.051 16.8515C104.291 16.6588 104.468 16.4023 104.583 16.082C104.7 15.7617 104.759 15.4088 104.759 15.0234C104.759 14.6406 104.7 14.289 104.583 13.9687C104.468 13.6458 104.291 13.3867 104.051 13.1913C103.812 12.996 103.51 12.8984 103.145 12.8984C102.778 12.8984 102.473 12.996 102.231 13.1913C101.992 13.3867 101.813 13.6458 101.696 13.9687C101.581 14.289 101.524 14.6406 101.524 15.0234C101.524 15.4088 101.581 15.7617 101.696 16.082C101.813 16.4023 101.992 16.6588 102.231 16.8515C102.473 17.0442 102.778 17.1406 103.145 17.1406ZM107.242 17.9999V11.9999H108.371V12.9531H108.433C108.543 12.6301 108.735 12.3762 109.011 12.1913C109.29 12.0038 109.605 11.9101 109.957 11.9101C110.03 11.9101 110.116 11.9127 110.215 11.9179C110.316 11.9231 110.396 11.9296 110.453 11.9374V13.0546C110.406 13.0416 110.323 13.0273 110.203 13.0117C110.083 12.9934 109.963 12.9843 109.843 12.9843C109.567 12.9843 109.321 13.0429 109.105 13.1601C108.892 13.2747 108.722 13.4348 108.597 13.6406C108.472 13.8437 108.41 14.0755 108.41 14.3359V17.9999H107.242Z" fill="#E8E8E8"/>
<path d="M46.6603 30.9999V22.2727H50.2654C50.9188 22.2727 51.4827 22.4005 51.9571 22.6562C52.4344 22.909 52.8023 23.2627 53.0608 23.7173C53.3194 24.169 53.4486 24.6945 53.4486 25.294C53.4486 25.8962 53.3165 26.4232 53.0523 26.8749C52.7909 27.3238 52.4174 27.6718 51.9316 27.919C51.4458 28.1661 50.8691 28.2897 50.2015 28.2897H47.977V26.6278H49.8094C50.1276 26.6278 50.3932 26.5724 50.6063 26.4616C50.8222 26.3508 50.9856 26.196 51.0963 25.9971C51.2071 25.7954 51.2625 25.561 51.2625 25.294C51.2625 25.0241 51.2071 24.7911 51.0963 24.5951C50.9856 24.3962 50.8222 24.2428 50.6063 24.1349C50.3904 24.0269 50.1248 23.9729 49.8094 23.9729H48.7696V30.9999H46.6603ZM56.0992 31.1107C55.6816 31.1107 55.3108 31.0411 54.987 30.9019C54.6659 30.7599 54.4117 30.5468 54.2242 30.2627C54.0395 29.9758 53.9472 29.6164 53.9472 29.1846C53.9472 28.821 54.0111 28.5141 54.139 28.2641C54.2668 28.0141 54.4429 27.811 54.6674 27.6548C54.8918 27.4985 55.1503 27.3806 55.4429 27.3011C55.7355 27.2187 56.048 27.1633 56.3804 27.1349C56.7526 27.1008 57.0523 27.0653 57.2796 27.0283C57.5069 26.9886 57.6716 26.9332 57.7739 26.8622C57.879 26.7883 57.9316 26.6846 57.9316 26.5511V26.5298C57.9316 26.311 57.8563 26.142 57.7057 26.0227C57.5552 25.9033 57.352 25.8437 57.0963 25.8437C56.8208 25.8437 56.5992 25.9033 56.4316 26.0227C56.264 26.142 56.1574 26.3068 56.112 26.517L54.1901 26.4488C54.2469 26.0511 54.3932 25.696 54.629 25.3835C54.8677 25.0681 55.1944 24.821 55.6091 24.642C56.0267 24.4602 56.5282 24.3693 57.1134 24.3693C57.531 24.3693 57.9159 24.419 58.2682 24.5184C58.6205 24.615 58.9273 24.757 59.1887 24.9445C59.45 25.1292 59.6517 25.3565 59.7938 25.6264C59.9387 25.8962 60.0111 26.2045 60.0111 26.5511V30.9999H58.0509V30.088H57.9998C57.8833 30.3096 57.7341 30.4971 57.5523 30.6505C57.3733 30.8039 57.1617 30.919 56.9174 30.9957C56.6759 31.0724 56.4032 31.1107 56.0992 31.1107ZM56.7427 29.7471C56.9671 29.7471 57.1688 29.7016 57.3478 29.6107C57.5296 29.5198 57.6745 29.3948 57.7824 29.2357C57.8904 29.0738 57.9444 28.8863 57.9444 28.6732V28.0511C57.8847 28.0823 57.8123 28.1107 57.727 28.1363C57.6446 28.1619 57.5537 28.186 57.4543 28.2087C57.3549 28.2315 57.2526 28.2514 57.1475 28.2684C57.0424 28.2854 56.9415 28.3011 56.8449 28.3153C56.6489 28.3465 56.4813 28.3948 56.3421 28.4602C56.2057 28.5255 56.1006 28.6107 56.0267 28.7158C55.9557 28.8181 55.9202 28.9403 55.9202 29.0823C55.9202 29.2982 55.9969 29.463 56.1503 29.5766C56.3066 29.6903 56.504 29.7471 56.7427 29.7471ZM61.2853 33.4545V24.4545H63.3478V25.5752H63.4117C63.4969 25.3764 63.6176 25.1846 63.7739 24.9999C63.933 24.8153 64.1347 24.6647 64.379 24.5482C64.6262 24.4289 64.9216 24.3693 65.2654 24.3693C65.7199 24.3693 66.1446 24.4886 66.5395 24.7272C66.9372 24.9658 67.2583 25.3337 67.5026 25.8309C67.7469 26.3281 67.8691 26.9616 67.8691 27.7315C67.8691 28.4729 67.7512 29.0937 67.5154 29.5937C67.2824 30.0937 66.9671 30.4687 66.5694 30.7187C66.1745 30.9687 65.7355 31.0937 65.2526 31.0937C64.923 31.0937 64.6375 31.0397 64.3961 30.9318C64.1546 30.8238 63.9515 30.6818 63.7867 30.5056C63.6248 30.3295 63.4998 30.1406 63.4117 29.9389H63.3691V33.4545H61.2853ZM63.3265 27.7272C63.3265 28.0795 63.3733 28.3863 63.4671 28.6477C63.5637 28.909 63.7015 29.1122 63.8804 29.257C64.0623 29.3991 64.2796 29.4701 64.5324 29.4701C64.7881 29.4701 65.0054 29.3991 65.1844 29.257C65.3634 29.1122 65.4983 28.909 65.5892 28.6477C65.683 28.3863 65.7299 28.0795 65.7299 27.7272C65.7299 27.3749 65.683 27.0695 65.5892 26.811C65.4983 26.5525 65.3634 26.3522 65.1844 26.2102C65.0083 26.0681 64.7909 25.9971 64.5324 25.9971C64.2767 25.9971 64.0594 26.0667 63.8804 26.2059C63.7015 26.3451 63.5637 26.544 63.4671 26.8025C63.3733 27.061 63.3265 27.3693 63.3265 27.7272ZM72.0207 31.1235C71.336 31.1235 70.7451 30.9886 70.248 30.7187C69.7537 30.446 69.373 30.0582 69.1059 29.5553C68.8417 29.0497 68.7096 28.4488 68.7096 27.7528C68.7096 27.0766 68.8431 26.4857 69.1102 25.9801C69.3772 25.4715 69.7537 25.0766 70.2395 24.7954C70.7252 24.5113 71.2977 24.3693 71.9568 24.3693C72.4227 24.3693 72.8488 24.4417 73.2352 24.5866C73.6216 24.7315 73.9554 24.946 74.2366 25.2301C74.5179 25.5141 74.7366 25.865 74.8929 26.2826C75.0491 26.6974 75.1272 27.1732 75.1272 27.7102V28.2301H69.4383V27.0198H73.1883C73.1855 26.7982 73.1329 26.6008 73.0306 26.4275C72.9284 26.2542 72.7877 26.1193 72.6088 26.0227C72.4326 25.9232 72.2295 25.8735 71.9994 25.8735C71.7664 25.8735 71.5576 25.9261 71.373 26.0312C71.1883 26.1335 71.042 26.2741 70.9341 26.4531C70.8261 26.6292 70.7693 26.8295 70.7636 27.0539V28.2854C70.7636 28.5525 70.8162 28.7869 70.9213 28.9886C71.0264 29.1874 71.1755 29.3423 71.3687 29.4531C71.5619 29.5639 71.792 29.6193 72.0591 29.6193C72.2437 29.6193 72.4113 29.5937 72.5619 29.5425C72.7125 29.4914 72.8417 29.4161 72.9497 29.3167C73.0576 29.2173 73.1386 29.0951 73.1926 28.9502L75.1059 29.0056C75.0264 29.4346 74.8517 29.8082 74.5818 30.1264C74.3147 30.4417 73.9639 30.6874 73.5292 30.8636C73.0946 31.0369 72.5917 31.1235 72.0207 31.1235ZM76.1915 30.9999V24.4545H78.2157V25.6477H78.2838C78.4032 25.2158 78.5978 24.8948 78.8676 24.6846C79.1375 24.4715 79.4515 24.365 79.8094 24.365C79.906 24.365 80.0054 24.3721 80.1077 24.3863C80.21 24.3977 80.3051 24.4161 80.3932 24.4417V26.2528C80.2938 26.2187 80.1631 26.1917 80.0012 26.1718C79.8421 26.1519 79.7 26.142 79.575 26.142C79.3279 26.142 79.1049 26.1974 78.906 26.3082C78.71 26.4161 78.5551 26.5681 78.4415 26.7641C78.3307 26.9573 78.2753 27.1846 78.2753 27.446V30.9999H76.1915Z" fill="white"/>
</g>
<rect x="0.749756" y="0.749939" width="119.5" height="38.5" rx="5.25" stroke="white" stroke-opacity="0.15" stroke-width="1.5"/>
<defs>
<filter id="filter0_d_18_2887" x="5.99976" y="1.99994" width="36" height="36" filterUnits="userSpaceOnUse" color-interpolation-filters="sRGB">
<feFlood flood-opacity="0" result="BackgroundImageFix"/>
<feColorMatrix in="SourceAlpha" type="matrix" values="0 0 0 0 0 0 0 0 0 0 0 0 0 0 0 0 0 0 127 0" result="hardAlpha"/>
<feOffset/>
<feGaussianBlur stdDeviation="2"/>
<feComposite in2="hardAlpha" operator="out"/>
<feColorMatrix type="matrix" values="0 0 0 0 0 0 0 0 0 0 0 0 0 0 0 0 0 0 0.25 0"/>
<feBlend mode="normal" in2="BackgroundImageFix" result="effect1_dropShadow_18_2887"/>
<feBlend mode="normal" in="SourceGraphic" in2="effect1_dropShadow_18_2887" result="shape"/>
</filter>
<filter id="filter1_d_18_2887" x="41.9998" y="2.99994" width="73" height="34.4545" filterUnits="userSpaceOnUse" color-interpolation-filters="sRGB">
<feFlood flood-opacity="0" result="BackgroundImageFix"/>
<feColorMatrix in="SourceAlpha" type="matrix" values="0 0 0 0 0 0 0 0 0 0 0 0 0 0 0 0 0 0 127 0" result="hardAlpha"/>
<feOffset/>
<feGaussianBlur stdDeviation="2"/>
<feComposite in2="hardAlpha" operator="out"/>
<feColorMatrix type="matrix" values="0 0 0 0 0 0 0 0 0 0 0 0 0 0 0 0 0 0 0.25 0"/>
<feBlend mode="normal" in2="BackgroundImageFix" result="effect1_dropShadow_18_2887"/>
<feBlend mode="normal" in="SourceGraphic" in2="effect1_dropShadow_18_2887" result="shape"/>
</filter>
<linearGradient id="paint0_linear_18_2887" x1="60.4997" y1="-6.10351e-05" x2="60.4997" y2="39.9999" gradientUnits="userSpaceOnUse">
<stop stop-color="#323232"/>
<stop offset="1" stop-color="#1F1F1F"/>
</linearGradient>
</defs>
</svg>
