<svg width="121" height="40" viewBox="0 0 121 40" fill="none" xmlns="http://www.w3.org/2000/svg">
<rect x="-0.000244141" y="-6.10352e-05" width="121" height="40" rx="6" fill="url(#paint0_linear_18_2881)"/>
<g filter="url(#filter0_d_18_2881)">
<path fill-rule="evenodd" clip-rule="evenodd" d="M24.5247 8.05885C24.2135 8.15821 23.9744 8.3381 23.7033 8.67675C23.6271 8.77193 23.4958 8.80548 23.3251 8.77337C23.1227 8.73527 22.3543 8.68555 20.3429 8.58049C19.7552 8.54975 19.6359 8.56649 19.5304 8.69414C19.2784 8.99916 19.3463 9.98191 19.6341 10.1955C19.7162 10.2564 20.1629 10.2654 20.6027 10.2151C20.8396 10.188 21.0755 10.1639 21.6175 10.1112C21.7536 10.098 21.9763 10.0761 22.1124 10.0625C22.2485 10.0489 22.5325 10.0208 22.7435 9.99995C22.9545 9.97917 23.2643 9.93363 23.432 9.89871L23.7368 9.83528L23.828 9.8964C24.0941 10.075 24.1675 10.2042 24.1295 10.428C24.0582 10.8484 24.0508 11.0798 24.0611 12.5637C24.0738 14.3961 24.1166 14.234 23.6097 14.2737C23.2927 14.2985 23.1694 14.3886 23.1139 14.6363C23.0873 14.7549 23.0934 15.8853 23.1223 16.1939C23.1405 16.3875 22.9883 16.4977 22.6401 16.5431C22.2979 16.5876 22.2153 16.7834 22.2885 17.377C22.3044 17.506 22.226 17.6102 22.0237 17.7286C21.8401 17.8361 21.8015 18.0907 21.9458 18.2429C22.103 18.4088 22.1108 18.4914 21.9863 18.6718C21.8567 18.8595 21.8538 18.8888 21.8527 20.0371C21.8514 21.1909 21.8366 21.3794 21.7351 21.5306C21.5882 21.7493 20.8676 22.4134 20.6977 22.4867C20.6459 22.509 20.2071 22.5211 19.0312 22.5328C18.1532 22.5415 17.4043 22.557 17.367 22.5673C17.2161 22.6088 17.0765 22.5606 16.9413 22.4201C16.7528 22.2244 16.7741 22.227 15.4797 22.2405C14.208 22.2538 14.2215 22.2556 14.1911 22.0741C14.1567 21.8697 14.1366 21.8037 14.0538 21.6238C13.8963 21.2814 13.7573 21.2145 13.3184 21.2695C13.0387 21.3045 12.9755 21.3807 12.907 21.7655C12.8211 22.2477 12.7316 22.3487 12.4757 22.2521C12.3071 22.1886 12.2815 22.1873 11.6189 22.2101C11.5781 22.2114 11.5037 22.2053 11.4537 22.1964C11.4004 22.187 11.3233 22.1934 11.268 22.212C11.216 22.2295 11.0899 22.2464 10.9878 22.2495C10.5308 22.2635 10.4547 22.2869 10.3502 22.446C10.1198 22.7966 9.92514 24.757 10.0279 25.6914C10.145 26.7564 10.2923 27.2613 10.5125 27.3525C10.8149 27.4777 12.1217 27.5355 12.4644 27.4387L12.6417 27.3887L12.7212 27.4451C12.825 27.5189 12.8809 27.6506 12.9305 27.9383C12.9898 28.2831 13.0513 28.3603 13.305 28.408C13.4781 28.4406 13.7127 28.4277 13.8181 28.3798C14.0406 28.2786 14.1648 27.5863 14.0301 27.1981C13.9531 26.976 14.0107 26.9232 14.1119 27.1231C14.2541 27.4039 14.4002 27.432 15.7148 27.4321C16.9048 27.4321 16.8191 27.4528 16.9858 27.1251C17.1199 26.8616 17.1808 26.8131 17.3686 26.8199C17.4459 26.8227 18.066 26.8345 18.7466 26.8462C20.1046 26.8694 19.9755 26.8541 20.4047 27.0432C21.5289 27.5382 22.7597 27.8171 24.3027 27.9263C25.1509 27.9863 26.3179 27.9606 27.0498 27.8657C28.3657 27.6951 29.2334 27.4759 30.131 27.0872C30.7852 26.8039 31.0751 26.9541 31.2095 27.6458C31.3146 28.1866 31.2894 28.2662 30.9725 28.3948C30.5258 28.5759 30.249 28.7624 30.1832 28.9265C30.1356 29.0452 30.1578 29.1757 30.2859 29.5308C30.3202 29.6259 30.3516 29.7648 30.3556 29.8395C30.3672 30.0514 30.389 30.1384 30.4642 30.2725C30.5025 30.341 30.5411 30.452 30.5499 30.5194C30.5703 30.6765 30.6302 30.8623 30.7008 30.9876C30.7345 31.0476 30.7626 31.151 30.7721 31.2506C30.8165 31.7156 31.0178 31.8511 31.7769 31.9268C31.8653 31.9356 31.964 31.9468 31.9963 31.9517C33.5388 32.1876 35.6695 31.5435 37.2016 30.3782C37.916 29.8348 38.0958 29.5772 37.9558 29.2971C37.9329 29.2512 37.9145 29.1564 37.9145 29.0835C37.9145 28.9407 37.8427 28.7201 37.7635 28.6196C37.736 28.5847 37.7088 28.5071 37.7032 28.4471C37.6924 28.3319 37.6154 28.1145 37.5547 28.0281C37.5348 27.9998 37.5186 27.9404 37.5186 27.8962C37.5186 27.8046 37.4582 27.6368 37.3896 27.5379C37.3641 27.501 37.3272 27.4171 37.3077 27.3516C37.2063 27.0113 36.63 26.8056 36.046 26.9013C35.5458 26.9832 35.5116 26.965 35.367 26.541C34.9069 25.1914 34.2804 24.1951 33.5558 23.6605C33.2806 23.4575 33.1777 23.4106 32.1481 23.0186C31.1382 22.6343 30.8827 22.5268 30.4201 22.2919C30.1435 22.1515 29.8373 21.9851 29.7395 21.9221C28.2444 20.9597 28.4057 21.2117 28.3512 19.7522C28.3146 18.7706 28.3068 18.7319 28.1144 18.5777C27.9582 18.4525 27.9355 18.3946 27.9788 18.2321C28.0534 17.9528 28.0143 17.8295 27.8067 17.6882C27.6444 17.5779 27.6221 17.5308 27.6473 17.3523C27.7323 16.7502 27.6353 16.5341 27.2619 16.4938C27.036 16.4695 26.9413 16.4392 26.8768 16.3707L26.8185 16.3088L26.8166 15.426C26.814 14.2538 26.8221 14.2715 26.2826 14.245C25.8969 14.2261 25.8081 14.2043 25.7275 14.1088L25.6639 14.0333L25.6637 12.3747C25.6635 11.4111 25.6529 10.6242 25.6383 10.4968C25.6087 10.2393 25.6125 10.2304 25.842 10.0152C26.0173 9.85058 26.1284 9.78376 26.196 9.80209C26.5942 9.91033 26.5297 9.9052 28.708 10.0009C30.3796 10.0743 30.3654 10.0759 30.5021 9.80281C30.6811 9.44518 30.5602 8.47766 30.3241 8.37801C30.2433 8.34395 29.9239 8.34532 29.6236 8.38111C29.4019 8.40759 29.3433 8.41409 28.2625 8.53279C26.9199 8.68021 26.8939 8.68339 26.5636 8.7409C26.2406 8.79711 26.2215 8.79084 26.036 8.56721C25.6399 8.08937 25.0502 7.891 24.5247 8.05885Z" fill="url(#paint1_linear_18_2881)"/>
</g>
<g filter="url(#filter1_d_18_2881)">
<path d="M47.5544 17.9999H46.2732L49.1521 9.99994H50.5466L53.4255 17.9999H52.1443L49.8826 11.4531H49.8201L47.5544 17.9999ZM47.7693 14.8671H51.9255V15.8827H47.7693V14.8671ZM58.8679 11.9999L56.6921 17.9999H55.4421L53.2624 11.9999H54.5164L56.0359 16.6171H56.0984L57.614 11.9999H58.8679ZM61.5398 18.1327C61.1596 18.1327 60.8158 18.0624 60.5085 17.9218C60.2012 17.7786 59.9578 17.5716 59.7781 17.3007C59.601 17.0299 59.5124 16.6979 59.5124 16.3046C59.5124 15.9661 59.5776 15.6874 59.7078 15.4687C59.838 15.2499 60.0137 15.0768 60.2351 14.9492C60.4565 14.8216 60.7039 14.7252 60.9773 14.6601C61.2507 14.595 61.5294 14.5455 61.8132 14.5117C62.1726 14.47 62.4643 14.4361 62.6882 14.4101C62.9122 14.3814 63.0749 14.3359 63.1765 14.2734C63.2781 14.2109 63.3289 14.1093 63.3289 13.9687V13.9413C63.3289 13.6002 63.2325 13.3359 63.0398 13.1484C62.8497 12.9609 62.5658 12.8671 62.1882 12.8671C61.795 12.8671 61.4851 12.9544 61.2585 13.1288C61.0346 13.3007 60.8796 13.4921 60.7937 13.7031L59.696 13.4531C59.8262 13.0885 60.0164 12.7942 60.2664 12.5702C60.519 12.3437 60.8093 12.1796 61.1374 12.0781C61.4656 11.9739 61.8106 11.9218 62.1726 11.9218C62.4122 11.9218 62.6661 11.9505 62.9343 12.0078C63.2052 12.0624 63.4578 12.164 63.6921 12.3124C63.9291 12.4609 64.1231 12.6731 64.2742 12.9492C64.4252 13.2226 64.5007 13.5781 64.5007 14.0156V17.9999H63.3601V17.1796H63.3132C63.2377 17.3307 63.1244 17.4791 62.9734 17.6249C62.8223 17.7708 62.6283 17.8919 62.3914 17.9882C62.1544 18.0846 61.8705 18.1327 61.5398 18.1327ZM61.7937 17.1952C62.1166 17.1952 62.3927 17.1314 62.6218 17.0038C62.8536 16.8762 63.0294 16.7096 63.1492 16.5038C63.2716 16.2955 63.3328 16.0729 63.3328 15.8359V15.0624C63.2911 15.1041 63.2104 15.1432 63.0906 15.1796C62.9734 15.2135 62.8393 15.2434 62.6882 15.2695C62.5372 15.2929 62.3901 15.315 62.2468 15.3359C62.1036 15.3541 61.9838 15.3697 61.8874 15.3827C61.6609 15.4114 61.4539 15.4596 61.2664 15.5273C61.0815 15.595 60.933 15.6926 60.821 15.8202C60.7117 15.9452 60.657 16.1119 60.657 16.3202C60.657 16.6093 60.7637 16.8281 60.9773 16.9765C61.1908 17.1223 61.463 17.1952 61.7937 17.1952ZM66.0564 17.9999V11.9999H67.2244V17.9999H66.0564ZM66.6462 11.0742C66.4431 11.0742 66.2686 11.0064 66.1228 10.871C65.9796 10.733 65.908 10.5689 65.908 10.3788C65.908 10.1861 65.9796 10.0221 66.1228 9.88666C66.2686 9.74864 66.4431 9.67963 66.6462 9.67963C66.8494 9.67963 67.0225 9.74864 67.1658 9.88666C67.3116 10.0221 67.3845 10.1861 67.3845 10.3788C67.3845 10.5689 67.3116 10.733 67.1658 10.871C67.0225 11.0064 66.8494 11.0742 66.6462 11.0742ZM69.9636 9.99994V17.9999H68.7956V9.99994H69.9636ZM73.281 18.1327C72.9008 18.1327 72.557 18.0624 72.2497 17.9218C71.9425 17.7786 71.699 17.5716 71.5193 17.3007C71.3422 17.0299 71.2537 16.6979 71.2537 16.3046C71.2537 15.9661 71.3188 15.6874 71.449 15.4687C71.5792 15.2499 71.755 15.0768 71.9763 14.9492C72.1977 14.8216 72.4451 14.7252 72.7185 14.6601C72.9919 14.595 73.2706 14.5455 73.5544 14.5117C73.9138 14.47 74.2055 14.4361 74.4294 14.4101C74.6534 14.3814 74.8162 14.3359 74.9177 14.2734C75.0193 14.2109 75.0701 14.1093 75.0701 13.9687V13.9413C75.0701 13.6002 74.9737 13.3359 74.781 13.1484C74.5909 12.9609 74.307 12.8671 73.9294 12.8671C73.5362 12.8671 73.2263 12.9544 72.9997 13.1288C72.7758 13.3007 72.6208 13.4921 72.5349 13.7031L71.4372 13.4531C71.5675 13.0885 71.7576 12.7942 72.0076 12.5702C72.2602 12.3437 72.5505 12.1796 72.8787 12.0781C73.2068 11.9739 73.5518 11.9218 73.9138 11.9218C74.1534 11.9218 74.4073 11.9505 74.6755 12.0078C74.9464 12.0624 75.199 12.164 75.4333 12.3124C75.6703 12.4609 75.8643 12.6731 76.0154 12.9492C76.1664 13.2226 76.2419 13.5781 76.2419 14.0156V17.9999H75.1013V17.1796H75.0544C74.9789 17.3307 74.8656 17.4791 74.7146 17.6249C74.5635 17.7708 74.3695 17.8919 74.1326 17.9882C73.8956 18.0846 73.6117 18.1327 73.281 18.1327ZM73.5349 17.1952C73.8578 17.1952 74.1339 17.1314 74.363 17.0038C74.5948 16.8762 74.7706 16.7096 74.8904 16.5038C75.0128 16.2955 75.074 16.0729 75.074 15.8359V15.0624C75.0323 15.1041 74.9516 15.1432 74.8318 15.1796C74.7146 15.2135 74.5805 15.2434 74.4294 15.2695C74.2784 15.2929 74.1313 15.315 73.988 15.3359C73.8448 15.3541 73.725 15.3697 73.6287 15.3827C73.4021 15.4114 73.1951 15.4596 73.0076 15.5273C72.8227 15.595 72.6742 15.6926 72.5622 15.8202C72.4529 15.9452 72.3982 16.1119 72.3982 16.3202C72.3982 16.6093 72.505 16.8281 72.7185 16.9765C72.932 17.1223 73.2042 17.1952 73.5349 17.1952ZM77.8913 17.9999V9.99994H79.0593V12.9726H79.1296C79.1973 12.8476 79.295 12.7031 79.4226 12.539C79.5502 12.3749 79.7273 12.2317 79.9538 12.1093C80.1804 11.9843 80.4799 11.9218 80.8523 11.9218C81.3367 11.9218 81.769 12.0442 82.1492 12.289C82.5294 12.5338 82.8275 12.8867 83.0437 13.3476C83.2624 13.8085 83.3718 14.3632 83.3718 15.0117C83.3718 15.6601 83.2637 16.2161 83.0476 16.6796C82.8315 17.1406 82.5346 17.496 82.157 17.746C81.7794 17.9934 81.3484 18.1171 80.864 18.1171C80.4994 18.1171 80.2012 18.0559 79.9695 17.9335C79.7403 17.8111 79.5606 17.6679 79.4304 17.5038C79.3002 17.3398 79.1999 17.1939 79.1296 17.0663H79.032V17.9999H77.8913ZM79.0359 14.9999C79.0359 15.4218 79.0971 15.7916 79.2195 16.1093C79.3419 16.427 79.519 16.6757 79.7507 16.8554C79.9825 17.0325 80.2663 17.121 80.6023 17.121C80.9512 17.121 81.2429 17.0286 81.4773 16.8437C81.7117 16.6562 81.8887 16.4023 82.0085 16.082C82.1309 15.7617 82.1921 15.401 82.1921 14.9999C82.1921 14.6041 82.1322 14.2486 82.0124 13.9335C81.8953 13.6184 81.7182 13.3697 81.4812 13.1874C81.2468 13.0051 80.9538 12.914 80.6023 12.914C80.2637 12.914 79.9773 13.0012 79.7429 13.1757C79.5111 13.3502 79.3354 13.5937 79.2156 13.9062C79.0958 14.2187 79.0359 14.5833 79.0359 14.9999ZM85.8513 9.99994V17.9999H84.6833V9.99994H85.8513ZM90.0085 18.121C89.4174 18.121 88.9083 17.9947 88.4812 17.7421C88.0567 17.4869 87.7286 17.1288 87.4968 16.6679C87.2676 16.2044 87.1531 15.6614 87.1531 15.039C87.1531 14.4244 87.2676 13.8827 87.4968 13.414C87.7286 12.9452 88.0515 12.5794 88.4656 12.3163C88.8822 12.0533 89.3692 11.9218 89.9265 11.9218C90.265 11.9218 90.5932 11.9778 90.9109 12.0898C91.2286 12.2018 91.5137 12.3775 91.7663 12.6171C92.0189 12.8567 92.2182 13.1679 92.364 13.5507C92.5098 13.9309 92.5828 14.3932 92.5828 14.9374V15.3515H87.8132V14.4765H91.4382C91.4382 14.1692 91.3757 13.8971 91.2507 13.6601C91.1257 13.4205 90.9499 13.2317 90.7234 13.0937C90.4994 12.9557 90.2364 12.8867 89.9343 12.8867C89.6062 12.8867 89.3197 12.9674 89.0749 13.1288C88.8328 13.2877 88.6453 13.496 88.5124 13.7538C88.3822 14.0091 88.3171 14.2864 88.3171 14.5859V15.2695C88.3171 15.6705 88.3874 16.0117 88.5281 16.2929C88.6713 16.5742 88.8705 16.789 89.1257 16.9374C89.3809 17.0833 89.6791 17.1562 90.0203 17.1562C90.2416 17.1562 90.4434 17.1249 90.6257 17.0624C90.808 16.9973 90.9656 16.901 91.0984 16.7734C91.2312 16.6458 91.3328 16.4882 91.4031 16.3007L92.5085 16.4999C92.42 16.8255 92.2611 17.1106 92.032 17.3554C91.8054 17.5976 91.5203 17.7864 91.1765 17.9218C90.8354 18.0546 90.446 18.121 90.0085 18.121ZM99.6452 11.9999V12.9374H96.2546V11.9999H99.6452ZM97.1843 17.9999V11.3046C97.1843 10.9296 97.2663 10.6184 97.4304 10.371C97.5945 10.121 97.8119 9.93483 98.0827 9.81244C98.3536 9.68744 98.6479 9.62494 98.9656 9.62494C99.1999 9.62494 99.4005 9.64447 99.5671 9.68353C99.7338 9.71999 99.8575 9.75384 99.9382 9.78509L99.6648 10.7304C99.6101 10.7148 99.5398 10.6966 99.4538 10.6757C99.3679 10.6523 99.2637 10.6406 99.1413 10.6406C98.8575 10.6406 98.6544 10.7109 98.532 10.8515C98.4122 10.9921 98.3523 11.1953 98.3523 11.4609V17.9999H97.1843ZM103.141 18.121C102.579 18.121 102.088 17.9921 101.669 17.7343C101.249 17.4765 100.924 17.1158 100.692 16.6523C100.46 16.1887 100.344 15.6471 100.344 15.0273C100.344 14.4049 100.46 13.8606 100.692 13.3945C100.924 12.9283 101.249 12.5663 101.669 12.3085C102.088 12.0507 102.579 11.9218 103.141 11.9218C103.704 11.9218 104.195 12.0507 104.614 12.3085C105.033 12.5663 105.359 12.9283 105.591 13.3945C105.822 13.8606 105.938 14.4049 105.938 15.0273C105.938 15.6471 105.822 16.1887 105.591 16.6523C105.359 17.1158 105.033 17.4765 104.614 17.7343C104.195 17.9921 103.704 18.121 103.141 18.121ZM103.145 17.1406C103.51 17.1406 103.812 17.0442 104.051 16.8515C104.291 16.6588 104.468 16.4023 104.583 16.082C104.7 15.7617 104.759 15.4088 104.759 15.0234C104.759 14.6406 104.7 14.289 104.583 13.9687C104.468 13.6458 104.291 13.3867 104.051 13.1913C103.812 12.996 103.51 12.8984 103.145 12.8984C102.778 12.8984 102.473 12.996 102.231 13.1913C101.992 13.3867 101.813 13.6458 101.696 13.9687C101.581 14.289 101.524 14.6406 101.524 15.0234C101.524 15.4088 101.581 15.7617 101.696 16.082C101.813 16.4023 101.992 16.6588 102.231 16.8515C102.473 17.0442 102.778 17.1406 103.145 17.1406ZM107.242 17.9999V11.9999H108.371V12.9531H108.433C108.543 12.6301 108.735 12.3762 109.011 12.1913C109.29 12.0038 109.605 11.9101 109.957 11.9101C110.03 11.9101 110.116 11.9127 110.215 11.9179C110.316 11.9231 110.396 11.9296 110.453 11.9374V13.0546C110.406 13.0416 110.323 13.0273 110.203 13.0117C110.083 12.9934 109.963 12.9843 109.843 12.9843C109.567 12.9843 109.321 13.0429 109.105 13.1601C108.892 13.2747 108.722 13.4348 108.597 13.6406C108.472 13.8437 108.41 14.0755 108.41 14.3359V17.9999H107.242Z" fill="#E8E8E8"/>
<path d="M51.3776 24.8891C51.3492 24.5766 51.2228 24.3337 50.9983 24.1604C50.7767 23.9843 50.46 23.8962 50.0481 23.8962C49.7753 23.8962 49.5481 23.9318 49.3662 24.0028C49.1844 24.0738 49.0481 24.1718 48.9571 24.2968C48.8662 24.419 48.8194 24.5596 48.8165 24.7187C48.8108 24.8494 48.8364 24.9644 48.8932 25.0639C48.9529 25.1633 49.0381 25.2514 49.1489 25.3281C49.2625 25.4019 49.3989 25.4673 49.558 25.5241C49.7171 25.5809 49.8961 25.6306 50.0949 25.6732L50.8449 25.8437C51.2767 25.9374 51.6574 26.0624 51.987 26.2187C52.3194 26.3749 52.5978 26.561 52.8222 26.7769C53.0495 26.9928 53.2213 27.2414 53.3378 27.5227C53.4543 27.8039 53.514 28.1193 53.5168 28.4687C53.514 29.0198 53.3748 29.4928 53.0992 29.8877C52.8236 30.2826 52.4273 30.5852 51.9103 30.7954C51.3961 31.0056 50.7753 31.1107 50.0481 31.1107C49.3179 31.1107 48.6816 31.0014 48.139 30.7826C47.5963 30.5639 47.1745 30.2315 46.8733 29.7854C46.5722 29.3394 46.4174 28.7755 46.4088 28.0937H48.4287C48.4458 28.3749 48.5211 28.6093 48.6546 28.7968C48.7881 28.9843 48.9713 29.1264 49.2043 29.2229C49.4401 29.3195 49.7128 29.3678 50.0225 29.3678C50.3066 29.3678 50.5481 29.3295 50.7469 29.2528C50.9486 29.1761 51.1034 29.0695 51.2114 28.9332C51.3194 28.7968 51.3748 28.6406 51.3776 28.4644C51.3748 28.2997 51.3236 28.159 51.2242 28.0426C51.1248 27.9232 50.9713 27.821 50.764 27.7357C50.5594 27.6477 50.2981 27.5667 49.9799 27.4928L49.0679 27.2798C48.3123 27.1065 47.7171 26.8266 47.2824 26.4403C46.8478 26.0511 46.6319 25.5255 46.6347 24.8636C46.6319 24.3238 46.7767 23.8508 47.0694 23.4445C47.362 23.0383 47.7668 22.7215 48.2838 22.4943C48.8009 22.267 49.3904 22.1533 50.0523 22.1533C50.7284 22.1533 51.3151 22.2684 51.8123 22.4985C52.3123 22.7258 52.7 23.0454 52.9756 23.4573C53.2512 23.8693 53.3918 24.3465 53.3975 24.8891H51.3776ZM54.5821 33.4545V24.4545H56.6446V25.5752H56.7086C56.7938 25.3764 56.9145 25.1846 57.0708 24.9999C57.2299 24.8153 57.4316 24.6647 57.6759 24.5482C57.923 24.4289 58.2185 24.3693 58.5623 24.3693C59.0168 24.3693 59.4415 24.4886 59.8364 24.7272C60.2341 24.9658 60.5551 25.3337 60.7995 25.8309C61.0438 26.3281 61.1659 26.9616 61.1659 27.7315C61.1659 28.4729 61.048 29.0937 60.8123 29.5937C60.5793 30.0937 60.264 30.4687 59.8662 30.7187C59.4713 30.9687 59.0324 31.0937 58.5495 31.0937C58.2199 31.0937 57.9344 31.0397 57.6929 30.9318C57.4515 30.8238 57.2483 30.6818 57.0836 30.5056C56.9216 30.3295 56.7966 30.1406 56.7086 29.9389H56.6659V33.4545H54.5821ZM56.6233 27.7272C56.6233 28.0795 56.6702 28.3863 56.764 28.6477C56.8605 28.909 56.9983 29.1122 57.1773 29.257C57.3591 29.3991 57.5765 29.4701 57.8293 29.4701C58.085 29.4701 58.3023 29.3991 58.4813 29.257C58.6603 29.1122 58.7952 28.909 58.8861 28.6477C58.9799 28.3863 59.0267 28.0795 59.0267 27.7272C59.0267 27.3749 58.9799 27.0695 58.8861 26.811C58.7952 26.5525 58.6603 26.3522 58.4813 26.2102C58.3052 26.0681 58.0878 25.9971 57.8293 25.9971C57.5736 25.9971 57.3563 26.0667 57.1773 26.2059C56.9983 26.3451 56.8605 26.544 56.764 26.8025C56.6702 27.061 56.6233 27.3693 56.6233 27.7272ZM62.2579 30.9999V24.4545H64.3417V30.9999H62.2579ZM63.302 23.6917C63.0093 23.6917 62.7579 23.5951 62.5477 23.4019C62.3375 23.2059 62.2324 22.9701 62.2324 22.6945C62.2324 22.4218 62.3375 22.1889 62.5477 21.9957C62.7579 21.7997 63.0093 21.7016 63.302 21.7016C63.5974 21.7016 63.8488 21.7997 64.0562 21.9957C64.2664 22.1889 64.3716 22.4218 64.3716 22.6945C64.3716 22.9701 64.2664 23.2059 64.0562 23.4019C63.8488 23.5951 63.5974 23.6917 63.302 23.6917ZM68.7192 33.5908C68.0971 33.5908 67.5644 33.5042 67.1212 33.3309C66.678 33.1576 66.33 32.9204 66.0772 32.6193C65.8243 32.3181 65.6723 31.9772 65.6212 31.5965L67.5942 31.4857C67.6311 31.6193 67.6993 31.7357 67.7988 31.8352C67.901 31.9346 68.0331 32.0113 68.1951 32.0653C68.3598 32.1193 68.553 32.1462 68.7746 32.1462C69.124 32.1462 69.4124 32.061 69.6397 31.8906C69.8698 31.7229 69.9848 31.4289 69.9848 31.0085V29.8579H69.9124C69.83 30.0596 69.705 30.24 69.5374 30.3991C69.3698 30.5582 69.161 30.6832 68.911 30.7741C68.6638 30.865 68.3797 30.9104 68.0587 30.9104C67.5814 30.9104 67.1439 30.7997 66.7462 30.5781C66.3513 30.3536 66.0346 30.007 65.7959 29.5383C65.5601 29.0667 65.4422 28.4602 65.4422 27.7187C65.4422 26.9545 65.5644 26.3252 65.8087 25.8309C66.053 25.3337 66.3726 24.9658 66.7675 24.7272C67.1652 24.4886 67.5928 24.3693 68.0502 24.3693C68.3939 24.3693 68.688 24.4289 68.9323 24.5482C69.1794 24.6647 69.3826 24.8153 69.5417 24.9999C69.7007 25.1846 69.8215 25.3764 69.9039 25.5752H69.9635V24.4545H72.0388V31.0255C72.0388 31.5795 71.8996 32.0468 71.6212 32.4275C71.3428 32.8082 70.9536 33.0965 70.4536 33.2925C69.9536 33.4914 69.3755 33.5908 68.7192 33.5908ZM68.7831 29.3934C69.036 29.3934 69.2519 29.3266 69.4309 29.1931C69.6098 29.0596 69.7476 28.8678 69.8442 28.6178C69.9408 28.3678 69.9891 28.0681 69.9891 27.7187C69.9891 27.3636 69.9408 27.0582 69.8442 26.8025C69.7505 26.544 69.6127 26.3451 69.4309 26.2059C69.2519 26.0667 69.036 25.9971 68.7831 25.9971C68.5246 25.9971 68.3059 26.0681 68.1269 26.2102C67.9479 26.3522 67.8115 26.5525 67.7178 26.811C67.6269 27.0667 67.5814 27.3693 67.5814 27.7187C67.5814 28.0681 67.6283 28.3678 67.7221 28.6178C67.8158 28.8678 67.9507 29.0596 68.1269 29.1931C68.3059 29.3266 68.5246 29.3934 68.7831 29.3934ZM76.4227 31.1235C75.7352 31.1235 75.1443 30.9829 74.65 30.7016C74.1585 30.4175 73.7792 30.0227 73.5122 29.517C73.248 29.0085 73.1159 28.419 73.1159 27.7485C73.1159 27.0752 73.248 26.4857 73.5122 25.9801C73.7792 25.4715 74.1585 25.0766 74.65 24.7954C75.1443 24.5113 75.7352 24.3693 76.4227 24.3693C77.1102 24.3693 77.6997 24.5113 78.1912 24.7954C78.6855 25.0766 79.0647 25.4715 79.3289 25.9801C79.596 26.4857 79.7295 27.0752 79.7295 27.7485C79.7295 28.419 79.596 29.0085 79.3289 29.517C79.0647 30.0227 78.6855 30.4175 78.1912 30.7016C77.6997 30.9829 77.1102 31.1235 76.4227 31.1235ZM76.4355 29.5511C76.6855 29.5511 76.8971 29.4744 77.0704 29.321C77.2437 29.1675 77.3758 28.9545 77.4667 28.6818C77.5605 28.409 77.6073 28.0937 77.6073 27.7357C77.6073 27.3721 77.5605 27.0539 77.4667 26.7812C77.3758 26.5085 77.2437 26.2954 77.0704 26.142C76.8971 25.9886 76.6855 25.9119 76.4355 25.9119C76.1769 25.9119 75.9582 25.9886 75.7792 26.142C75.6031 26.2954 75.4681 26.5085 75.3744 26.7812C75.2835 27.0539 75.238 27.3721 75.238 27.7357C75.238 28.0937 75.2835 28.409 75.3744 28.6818C75.4681 28.9545 75.6031 29.1675 75.7792 29.321C75.9582 29.4744 76.1769 29.5511 76.4355 29.5511ZM84.4916 24.4545V25.9886H80.3623V24.4545H84.4916ZM81.2274 22.8863H83.3112V28.9417C83.3112 29.0695 83.3311 29.1732 83.3708 29.2528C83.4135 29.3295 83.4745 29.3849 83.5541 29.419C83.6336 29.4502 83.7288 29.4658 83.8396 29.4658C83.9191 29.4658 84.0029 29.4587 84.091 29.4445C84.1819 29.4275 84.2501 29.4133 84.2956 29.4019L84.6109 30.9062C84.5115 30.9346 84.3708 30.9701 84.189 31.0127C84.01 31.0553 83.7956 31.0823 83.5456 31.0937C83.0569 31.1164 82.6379 31.0596 82.2885 30.9232C81.9419 30.784 81.6762 30.5681 81.4916 30.2755C81.3098 29.9829 81.2217 29.615 81.2274 29.1718V22.8863Z" fill="url(#paint2_linear_18_2881)"/>
</g>
<rect x="0.749756" y="0.749939" width="119.5" height="38.5" rx="5.25" stroke="white" stroke-opacity="0.15" stroke-width="1.5"/>
<defs>
<filter id="filter0_d_18_2881" x="5.99976" y="1.99994" width="36" height="36" filterUnits="userSpaceOnUse" color-interpolation-filters="sRGB">
<feFlood flood-opacity="0" result="BackgroundImageFix"/>
<feColorMatrix in="SourceAlpha" type="matrix" values="0 0 0 0 0 0 0 0 0 0 0 0 0 0 0 0 0 0 127 0" result="hardAlpha"/>
<feOffset/>
<feGaussianBlur stdDeviation="2"/>
<feComposite in2="hardAlpha" operator="out"/>
<feColorMatrix type="matrix" values="0 0 0 0 0 0 0 0 0 0 0 0 0 0 0 0 0 0 0.25 0"/>
<feBlend mode="normal" in2="BackgroundImageFix" result="effect1_dropShadow_18_2881"/>
<feBlend mode="normal" in="SourceGraphic" in2="effect1_dropShadow_18_2881" result="shape"/>
</filter>
<filter id="filter1_d_18_2881" x="41.9998" y="2.99994" width="73" height="34.5909" filterUnits="userSpaceOnUse" color-interpolation-filters="sRGB">
<feFlood flood-opacity="0" result="BackgroundImageFix"/>
<feColorMatrix in="SourceAlpha" type="matrix" values="0 0 0 0 0 0 0 0 0 0 0 0 0 0 0 0 0 0 127 0" result="hardAlpha"/>
<feOffset/>
<feGaussianBlur stdDeviation="2"/>
<feComposite in2="hardAlpha" operator="out"/>
<feColorMatrix type="matrix" values="0 0 0 0 0 0 0 0 0 0 0 0 0 0 0 0 0 0 0.25 0"/>
<feBlend mode="normal" in2="BackgroundImageFix" result="effect1_dropShadow_18_2881"/>
<feBlend mode="normal" in="SourceGraphic" in2="effect1_dropShadow_18_2881" result="shape"/>
</filter>
<linearGradient id="paint0_linear_18_2881" x1="60.4997" y1="-6.10351e-05" x2="60.4997" y2="39.9999" gradientUnits="userSpaceOnUse">
<stop stop-color="#313131"/>
<stop offset="1" stop-color="#1E1E1E"/>
</linearGradient>
<linearGradient id="paint1_linear_18_2881" x1="23.9998" y1="8.00006" x2="23.9998" y2="32.0001" gradientUnits="userSpaceOnUse">
<stop stop-color="#CEA260"/>
<stop offset="1" stop-color="#81562E"/>
</linearGradient>
<linearGradient id="paint2_linear_18_2881" x1="65.4998" y1="19.9999" x2="65.4998" y2="32.9999" gradientUnits="userSpaceOnUse">
<stop stop-color="#E9C48D"/>
<stop offset="1" stop-color="#A2825D"/>
</linearGradient>
</defs>
</svg>
