<svg width="156" height="40" viewBox="0 0 156 40" fill="none" xmlns="http://www.w3.org/2000/svg">
<rect x="-0.000244141" y="-3.05176e-05" width="156" height="40" rx="6" fill="url(#paint0_linear_18_3388)"/>
<g filter="url(#filter0_d_18_3388)">
<path fill-rule="evenodd" clip-rule="evenodd" d="M14.6748 6.10966C14.4113 6.31222 14.3668 6.67095 14.3668 8.59255C14.3668 10.0008 14.3405 10.5178 14.2665 10.564C14.2114 10.5985 13.4601 10.7418 12.5969 10.8824L11.0275 11.138L11.0054 13.233C10.9885 14.8463 11.0075 15.347 11.0879 15.4106C11.1585 15.4665 11.6732 15.4166 12.6765 15.2567C13.4928 15.1267 14.2073 15.0372 14.2642 15.0579C14.3464 15.0878 14.3634 16.5119 14.3466 21.9611L14.3255 28.8266L12.6765 28.8683L11.0275 28.91V31.455V34H18.2007H25.3741V31.455V28.91L23.6838 28.8683L21.9935 28.8266L21.9725 21.3353C21.9557 15.3853 21.9727 13.8362 22.0549 13.8065C22.1614 13.7678 31.6419 12.2781 32.0114 12.2419C32.2064 12.2228 32.2188 12.2467 32.2403 12.6807L32.263 13.1396L30.6492 14.6416L29.0355 16.1435L28.5652 16.1852L28.095 16.2269V17.8958V19.5646H32.5474H36.9998V17.8958V16.2269L36.5694 16.2018L36.1391 16.1767L34.7761 14.6661L33.4131 13.1556V12.6363C33.4131 12.0189 33.4587 11.97 34.1062 11.8907C34.7196 11.8155 34.8143 11.7778 34.8168 11.6079C34.8207 11.343 34.2144 7.54827 34.158 7.48399C34.1265 7.4482 31.402 7.85248 28.1034 8.3824C24.8048 8.91225 22.0714 9.32425 22.0292 9.29781C21.9869 9.27138 21.9523 8.67554 21.9523 7.97377C21.9523 6.64795 21.878 6.22719 21.6192 6.08705C21.38 5.95745 14.8452 5.97874 14.6748 6.10966ZM20.615 8.37666C20.6413 9.59603 20.6557 9.56168 20.0704 9.67401L19.6373 9.75713L18.1563 8.57805C17.3418 7.92954 16.6754 7.36626 16.6754 7.32645C16.6754 7.28657 17.5566 7.26402 18.6336 7.27635L20.5918 7.2987L20.615 8.37666ZM17.335 9.49708C17.9533 9.99899 17.933 10.0284 16.8471 10.2014C15.6129 10.3981 15.686 10.4537 15.686 9.31785C15.686 8.05129 15.5334 8.03468 17.335 9.49708ZM20.6166 14.5381C20.6451 15.0906 20.6058 15.11 20.1703 14.758C19.994 14.6155 19.7778 14.4474 19.6899 14.3844C19.4876 14.2396 19.534 14.1954 19.9827 14.1051C20.5668 13.9875 20.589 14.0027 20.6166 14.5381ZM33.5929 15.1863C34.0155 15.6465 34.3737 16.0595 34.3888 16.1041C34.406 16.1549 33.7669 16.1852 32.6779 16.1852C31.7218 16.1852 30.9386 16.157 30.9374 16.1226C30.9349 16.0496 32.6852 14.3579 32.7684 14.3529C32.7992 14.351 33.1702 14.7261 33.5929 15.1863ZM18.4687 14.9829C19.3758 15.7151 19.4116 15.6914 17.4381 15.6654L15.7272 15.6429L15.7013 15.2769C15.6669 14.7904 15.6825 14.7805 16.7669 14.6037C17.2834 14.5194 17.7246 14.4468 17.7472 14.4422C17.77 14.4376 18.0946 14.6809 18.4687 14.9829ZM20.6146 18.2921C20.6271 19.0149 20.6085 19.6058 20.5733 19.6051C20.4803 19.6035 17.3814 17.1164 17.3482 17.0167C17.3298 16.9616 17.8838 16.9404 18.956 16.9553L20.5918 16.9779L20.6146 18.2921ZM17.5469 18.817C18.4686 19.5494 19.1943 20.1776 19.1594 20.213C19.1245 20.2484 18.338 20.2672 17.4116 20.2547L15.7272 20.2321L15.7046 18.8268C15.688 17.7989 15.7073 17.4301 15.7764 17.4535C15.8284 17.471 16.6251 18.0846 17.5469 18.817ZM20.6148 22.8123C20.6273 23.4972 20.6088 24.0842 20.5735 24.1167C20.5106 24.175 17.4031 21.749 17.3482 21.5987C17.3315 21.5531 17.9843 21.5311 18.956 21.5445L20.5918 21.5672L20.6148 22.8123ZM17.5417 23.3757C18.4734 24.118 19.2042 24.7571 19.1658 24.796C19.1274 24.8348 18.338 24.8565 17.4116 24.844L15.7272 24.8214L15.7046 23.4238C15.6901 22.5276 15.7117 22.0261 15.7649 22.0261C15.8105 22.0261 16.61 22.6334 17.5417 23.3757ZM20.6146 27.3872C20.6323 28.411 20.6141 28.7002 20.5321 28.6962C20.3956 28.6895 17.3986 26.2731 17.354 26.1338C17.3272 26.0499 17.6619 26.0324 18.956 26.0504L20.5918 26.073L20.6146 27.3872ZM18.5676 28.8077C18.5699 28.8432 17.9318 28.8619 17.1495 28.8494L15.7272 28.8266L15.7039 27.7882C15.6911 27.2171 15.6993 26.7006 15.7221 26.6404C15.7626 26.5336 18.5584 28.6631 18.5676 28.8077Z" fill="url(#paint1_linear_18_3388)"/>
</g>
<g filter="url(#filter1_d_18_3388)">
<path d="M46.8787 18V9.99997H49.7302C50.35 9.99997 50.8643 10.1067 51.2732 10.3203C51.6847 10.5338 51.9919 10.8294 52.1951 11.207C52.3982 11.582 52.4998 12.0156 52.4998 12.5078C52.4998 12.9974 52.3969 13.4284 52.1912 13.8007C51.988 14.1705 51.6807 14.4583 51.2693 14.664C50.8604 14.8698 50.3461 14.9726 49.7263 14.9726H47.5662V13.9336H49.6169C50.0076 13.9336 50.3253 13.8776 50.5701 13.7656C50.8175 13.6536 50.9985 13.4909 51.113 13.2773C51.2276 13.0638 51.2849 12.8073 51.2849 12.5078C51.2849 12.2057 51.2263 11.944 51.1091 11.7226C50.9945 11.5013 50.8136 11.332 50.5662 11.2148C50.3214 11.095 49.9998 11.0351 49.6013 11.0351H48.0857V18H46.8787ZM50.8279 14.3906L52.8044 18H51.4294L49.4919 14.3906H50.8279ZM56.3855 18.1211C55.7943 18.1211 55.2852 17.9948 54.8582 17.7422C54.4337 17.4869 54.1055 17.1289 53.8738 16.6679C53.6446 16.2044 53.53 15.6614 53.53 15.039C53.53 14.4244 53.6446 13.8828 53.8738 13.414C54.1055 12.9453 54.4285 12.5794 54.8425 12.3164C55.2592 12.0534 55.7462 11.9218 56.3035 11.9218C56.642 11.9218 56.9701 11.9778 57.2878 12.0898C57.6055 12.2018 57.8907 12.3776 58.1433 12.6172C58.3959 12.8567 58.5951 13.1679 58.741 13.5507C58.8868 13.931 58.9597 14.3932 58.9597 14.9375V15.3515H54.1902V14.4765H57.8152C57.8152 14.1692 57.7527 13.8971 57.6277 13.6601C57.5027 13.4205 57.3269 13.2317 57.1003 13.0937C56.8764 12.9557 56.6134 12.8867 56.3113 12.8867C55.9832 12.8867 55.6967 12.9674 55.4519 13.1289C55.2097 13.2877 55.0222 13.4961 54.8894 13.7539C54.7592 14.0091 54.6941 14.2864 54.6941 14.5859V15.2695C54.6941 15.6705 54.7644 16.0117 54.905 16.2929C55.0483 16.5742 55.2475 16.789 55.5027 16.9375C55.7579 17.0833 56.0561 17.1562 56.3972 17.1562C56.6186 17.1562 56.8204 17.125 57.0027 17.0625C57.185 16.9974 57.3425 16.901 57.4753 16.7734C57.6082 16.6458 57.7097 16.4882 57.78 16.3007L58.8855 16.5C58.797 16.8255 58.6381 17.1106 58.4089 17.3554C58.1824 17.5976 57.8972 17.7864 57.5535 17.9218C57.2123 18.0547 56.823 18.1211 56.3855 18.1211ZM64.3064 20.25V17.0664H64.2361C64.1658 17.194 64.0642 17.3398 63.9314 17.5039C63.8012 17.6679 63.6215 17.8112 63.3923 17.9336C63.1632 18.056 62.8663 18.1172 62.5017 18.1172C62.0173 18.1172 61.585 17.9935 61.2048 17.7461C60.8272 17.4961 60.5304 17.1406 60.3142 16.6797C60.1007 16.2161 59.9939 15.6601 59.9939 15.0117C59.9939 14.3632 60.102 13.8086 60.3181 13.3476C60.5369 12.8867 60.8363 12.5338 61.2165 12.289C61.5968 12.0442 62.0277 11.9218 62.5095 11.9218C62.8819 11.9218 63.1814 11.9843 63.408 12.1093C63.6371 12.2317 63.8142 12.375 63.9392 12.539C64.0668 12.7031 64.1658 12.8476 64.2361 12.9726H64.3337V12H65.4744V20.25H64.3064ZM62.7595 17.1211C63.0955 17.1211 63.3793 17.0325 63.6111 16.8554C63.8455 16.6757 64.0225 16.427 64.1423 16.1093C64.2647 15.7916 64.3259 15.4218 64.3259 15C64.3259 14.5833 64.266 14.2187 64.1462 13.9062C64.0264 13.5937 63.8507 13.3502 63.6189 13.1757C63.3871 13.0013 63.1007 12.914 62.7595 12.914C62.408 12.914 62.115 13.0052 61.8806 13.1875C61.6462 13.3698 61.4692 13.6185 61.3494 13.9336C61.2322 14.2487 61.1736 14.6041 61.1736 15C61.1736 15.401 61.2335 15.7617 61.3533 16.082C61.4731 16.4023 61.6501 16.6562 61.8845 16.8437C62.1215 17.0286 62.4132 17.1211 62.7595 17.1211ZM70.8455 15.5117V12H72.0173V18H70.8689V16.9609H70.8064C70.6684 17.2812 70.447 17.5481 70.1423 17.7617C69.8402 17.9726 69.4639 18.0781 69.0134 18.0781C68.628 18.0781 68.2869 17.9935 67.99 17.8242C67.6957 17.6523 67.4639 17.3984 67.2947 17.0625C67.128 16.7265 67.0447 16.3112 67.0447 15.8164V12H68.2126V15.6757C68.2126 16.0846 68.3259 16.4101 68.5525 16.6523C68.779 16.8945 69.0733 17.0156 69.4353 17.0156C69.654 17.0156 69.8715 16.9609 70.0876 16.8515C70.3064 16.7422 70.4874 16.5768 70.6306 16.3554C70.7764 16.1341 70.8481 15.8528 70.8455 15.5117ZM73.5867 18V12H74.7546V18H73.5867ZM74.1765 11.0742C73.9734 11.0742 73.7989 11.0065 73.6531 10.8711C73.5098 10.733 73.4382 10.569 73.4382 10.3789C73.4382 10.1862 73.5098 10.0221 73.6531 9.88669C73.7989 9.74867 73.9734 9.67966 74.1765 9.67966C74.3796 9.67966 74.5528 9.74867 74.696 9.88669C74.8419 10.0221 74.9148 10.1862 74.9148 10.3789C74.9148 10.569 74.8419 10.733 74.696 10.8711C74.5528 11.0065 74.3796 11.0742 74.1765 11.0742ZM76.3259 18V12H77.4548V12.9531H77.5173C77.6267 12.6302 77.8194 12.3763 78.0954 12.1914C78.3741 12.0039 78.6892 11.9101 79.0408 11.9101C79.1137 11.9101 79.1996 11.9127 79.2986 11.9179C79.4001 11.9231 79.4796 11.9297 79.5369 11.9375V13.0547C79.49 13.0416 79.4066 13.0273 79.2869 13.0117C79.1671 12.9935 79.0473 12.9843 78.9275 12.9843C78.6514 12.9843 78.4053 13.0429 78.1892 13.1601C77.9757 13.2747 77.8064 13.4349 77.6814 13.6406C77.5564 13.8437 77.4939 14.0755 77.4939 14.3359V18H76.3259ZM82.9187 18.1211C82.3275 18.1211 81.8184 17.9948 81.3913 17.7422C80.9669 17.4869 80.6387 17.1289 80.407 16.6679C80.1778 16.2044 80.0632 15.6614 80.0632 15.039C80.0632 14.4244 80.1778 13.8828 80.407 13.414C80.6387 12.9453 80.9617 12.5794 81.3757 12.3164C81.7924 12.0534 82.2794 11.9218 82.8367 11.9218C83.1752 11.9218 83.5033 11.9778 83.821 12.0898C84.1387 12.2018 84.4239 12.3776 84.6765 12.6172C84.9291 12.8567 85.1283 13.1679 85.2742 13.5507C85.42 13.931 85.4929 14.3932 85.4929 14.9375V15.3515H80.7234V14.4765H84.3484C84.3484 14.1692 84.2859 13.8971 84.1609 13.6601C84.0359 13.4205 83.8601 13.2317 83.6335 13.0937C83.4096 12.9557 83.1466 12.8867 82.8445 12.8867C82.5163 12.8867 82.2299 12.9674 81.9851 13.1289C81.7429 13.2877 81.5554 13.4961 81.4226 13.7539C81.2924 14.0091 81.2273 14.2864 81.2273 14.5859V15.2695C81.2273 15.6705 81.2976 16.0117 81.4382 16.2929C81.5815 16.5742 81.7807 16.789 82.0359 16.9375C82.2911 17.0833 82.5893 17.1562 82.9304 17.1562C83.1518 17.1562 83.3536 17.125 83.5359 17.0625C83.7182 16.9974 83.8757 16.901 84.0085 16.7734C84.1413 16.6458 84.2429 16.4882 84.3132 16.3007L85.4187 16.5C85.3301 16.8255 85.1713 17.1106 84.9421 17.3554C84.7156 17.5976 84.4304 17.7864 84.0867 17.9218C83.7455 18.0547 83.3562 18.1211 82.9187 18.1211ZM91.2849 13.4648L90.2263 13.6523C90.182 13.5169 90.1117 13.388 90.0154 13.2656C89.9216 13.1432 89.794 13.0429 89.6326 12.9648C89.4711 12.8867 89.2693 12.8476 89.0271 12.8476C88.6964 12.8476 88.4203 12.9218 88.199 13.0703C87.9776 13.2161 87.8669 13.4049 87.8669 13.6367C87.8669 13.8372 87.9411 13.9987 88.0896 14.1211C88.238 14.2435 88.4776 14.3437 88.8083 14.4218L89.7615 14.6406C90.3135 14.7682 90.725 14.9648 90.9958 15.2304C91.2667 15.4961 91.4021 15.8411 91.4021 16.2656C91.4021 16.625 91.2979 16.9453 91.0896 17.2265C90.8839 17.5052 90.5961 17.7239 90.2263 17.8828C89.8591 18.0416 89.4333 18.1211 88.949 18.1211C88.2771 18.1211 87.7289 17.9778 87.3044 17.6914C86.88 17.4023 86.6195 16.9922 86.5232 16.4609L87.6521 16.289C87.7224 16.5833 87.8669 16.806 88.0857 16.957C88.3044 17.1054 88.5896 17.1797 88.9411 17.1797C89.324 17.1797 89.63 17.1002 89.8591 16.9414C90.0883 16.7799 90.2029 16.5833 90.2029 16.3515C90.2029 16.164 90.1326 16.0065 89.9919 15.8789C89.8539 15.7513 89.6417 15.6549 89.3552 15.5898L88.3396 15.3672C87.7797 15.2396 87.3656 15.0364 87.0974 14.7578C86.8318 14.4791 86.699 14.1263 86.699 13.6992C86.699 13.345 86.7979 13.0351 86.9958 12.7695C87.1938 12.5039 87.4672 12.2968 87.8161 12.1484C88.1651 11.9974 88.5648 11.9218 89.0154 11.9218C89.6638 11.9218 90.1742 12.0625 90.5466 12.3437C90.919 12.6224 91.1651 12.9961 91.2849 13.4648Z" fill="#E8E8E8"/>
<path d="M48.5481 31H46.281L49.2256 22.2727H52.0338L54.9784 31H52.7114L50.6617 24.4716H50.5935L48.5481 31ZM48.2455 27.5653H52.9841V29.1676H48.2455V27.5653ZM55.9181 31V24.4545H57.9422V25.6477H58.0104C58.1297 25.2159 58.3243 24.8949 58.5942 24.6846C58.8641 24.4716 59.178 24.365 59.536 24.365C59.6326 24.365 59.732 24.3721 59.8343 24.3863C59.9365 24.3977 60.0317 24.4162 60.1198 24.4417V26.2528C60.0203 26.2187 59.8897 26.1917 59.7277 26.1718C59.5686 26.152 59.4266 26.142 59.3016 26.142C59.0544 26.142 58.8314 26.1974 58.6326 26.3082C58.4365 26.4162 58.2817 26.5681 58.1681 26.7642C58.0573 26.9574 58.0019 27.1846 58.0019 27.446V31H55.9181ZM63.6844 31.1235C62.9941 31.1235 62.4017 30.9815 61.9074 30.6974C61.4159 30.4133 61.0381 30.0184 60.7739 29.5128C60.5097 29.0042 60.3776 28.4162 60.3776 27.7485C60.3776 27.0781 60.5097 26.49 60.7739 25.9843C61.0409 25.4758 61.4202 25.0795 61.9117 24.7954C62.406 24.5113 62.9955 24.3693 63.6801 24.3693C64.2853 24.3693 64.8123 24.4787 65.2611 24.6974C65.7128 24.9162 66.0651 25.2258 66.3179 25.6264C66.5736 26.0241 66.7086 26.4914 66.7228 27.0284H64.7753C64.7355 26.6931 64.6219 26.4304 64.4344 26.24C64.2498 26.0497 64.0083 25.9545 63.71 25.9545C63.4685 25.9545 63.2569 26.0227 63.075 26.1591C62.8932 26.2926 62.7512 26.4914 62.6489 26.7556C62.5495 27.017 62.4998 27.3409 62.4998 27.7272C62.4998 28.1136 62.5495 28.4403 62.6489 28.7074C62.7512 28.9716 62.8932 29.1718 63.075 29.3082C63.2569 29.4417 63.4685 29.5085 63.71 29.5085C63.9032 29.5085 64.0736 29.4673 64.2213 29.3849C64.3719 29.3025 64.4955 29.1818 64.5921 29.0227C64.6887 28.8608 64.7498 28.6647 64.7753 28.4346H66.7228C66.7029 28.9744 66.5679 29.446 66.3179 29.8494C66.0708 30.2528 65.7228 30.5667 65.2739 30.7912C64.8279 31.0128 64.298 31.1235 63.6844 31.1235ZM69.873 27.267V31H67.7892V22.2727H69.8048V25.6562H69.8772C70.025 25.2528 70.2664 24.9375 70.6017 24.7102C70.9397 24.4829 71.3531 24.3693 71.8417 24.3693C72.3019 24.3693 72.7025 24.4716 73.0434 24.6761C73.3843 24.8778 73.6485 25.1633 73.836 25.5326C74.0264 25.902 74.1201 26.3338 74.1173 26.8281V31H72.0335V27.2372C72.0363 26.8735 71.9454 26.5895 71.7608 26.3849C71.5761 26.1804 71.3162 26.0781 70.9809 26.0781C70.7622 26.0781 70.569 26.1264 70.4014 26.223C70.2366 26.3167 70.1073 26.4517 70.0136 26.6278C69.9227 26.8039 69.8758 27.017 69.873 27.267ZM75.4181 31V24.4545H77.5019V31H75.4181ZM76.4621 23.6917C76.1695 23.6917 75.9181 23.5951 75.7078 23.402C75.4976 23.2059 75.3925 22.9701 75.3925 22.6946C75.3925 22.4218 75.4976 22.1889 75.7078 21.9957C75.9181 21.7997 76.1695 21.7017 76.4621 21.7017C76.7576 21.7017 77.009 21.7997 77.2164 21.9957C77.4266 22.1889 77.5317 22.4218 77.5317 22.6946C77.5317 22.9701 77.4266 23.2059 77.2164 23.402C77.009 23.5951 76.7576 23.6917 76.4621 23.6917ZM82.5228 24.4545V25.9886H78.3936V24.4545H82.5228ZM79.2586 22.8863H81.3424V28.9417C81.3424 29.0696 81.3623 29.1733 81.4021 29.2528C81.4447 29.3295 81.5058 29.3849 81.5853 29.419C81.6649 29.4503 81.76 29.4659 81.8708 29.4659C81.9504 29.4659 82.0342 29.4588 82.1223 29.4446C82.2132 29.4275 82.2814 29.4133 82.3268 29.402L82.6421 30.9062C82.5427 30.9346 82.4021 30.9701 82.2203 31.0128C82.0413 31.0554 81.8268 31.0824 81.5768 31.0937C81.0882 31.1164 80.6691 31.0596 80.3197 30.9233C79.9731 30.7841 79.7075 30.5681 79.5228 30.2755C79.341 29.9829 79.2529 29.615 79.2586 29.1718V22.8863ZM86.5754 31.1235C85.8907 31.1235 85.2998 30.9886 84.8027 30.7187C84.3083 30.446 83.9277 30.0582 83.6606 29.5554C83.3964 29.0497 83.2643 28.4488 83.2643 27.7528C83.2643 27.0767 83.3978 26.4858 83.6649 25.9801C83.9319 25.4716 84.3083 25.0767 84.7941 24.7954C85.2799 24.5113 85.8524 24.3693 86.5115 24.3693C86.9774 24.3693 87.4035 24.4417 87.7899 24.5866C88.1762 24.7315 88.51 24.946 88.7913 25.2301C89.0725 25.5142 89.2913 25.865 89.4475 26.2826C89.6038 26.6974 89.6819 27.1733 89.6819 27.7102V28.2301H83.993V27.0199H87.743C87.7402 26.7983 87.6876 26.6008 87.5853 26.4275C87.4831 26.2542 87.3424 26.1193 87.1635 26.0227C86.9873 25.9233 86.7842 25.8735 86.5541 25.8735C86.3211 25.8735 86.1123 25.9261 85.9277 26.0312C85.743 26.1335 85.5967 26.2741 85.4887 26.4531C85.3808 26.6292 85.324 26.8295 85.3183 27.0539V28.2855C85.3183 28.5525 85.3708 28.7869 85.476 28.9886C85.5811 29.1875 85.7302 29.3423 85.9234 29.4531C86.1166 29.5639 86.3467 29.6193 86.6137 29.6193C86.7984 29.6193 86.966 29.5937 87.1166 29.5426C87.2671 29.4914 87.3964 29.4162 87.5044 29.3167C87.6123 29.2173 87.6933 29.0951 87.7473 28.9503L89.6606 29.0056C89.5811 29.4346 89.4063 29.8082 89.1365 30.1264C88.8694 30.4417 88.5186 30.6875 88.0839 30.8636C87.6492 31.0369 87.1464 31.1235 86.5754 31.1235ZM93.8016 31.1235C93.1112 31.1235 92.5189 30.9815 92.0246 30.6974C91.5331 30.4133 91.1553 30.0184 90.8911 29.5128C90.6269 29.0042 90.4948 28.4162 90.4948 27.7485C90.4948 27.0781 90.6269 26.49 90.8911 25.9843C91.1581 25.4758 91.5374 25.0795 92.0289 24.7954C92.5232 24.5113 93.1127 24.3693 93.7973 24.3693C94.4024 24.3693 94.9294 24.4787 95.3783 24.6974C95.83 24.9162 96.1823 25.2258 96.4351 25.6264C96.6908 26.0241 96.8257 26.4914 96.8399 27.0284H94.8925C94.8527 26.6931 94.7391 26.4304 94.5516 26.24C94.3669 26.0497 94.1255 25.9545 93.8272 25.9545C93.5857 25.9545 93.374 26.0227 93.1922 26.1591C93.0104 26.2926 92.8683 26.4914 92.7661 26.7556C92.6666 27.017 92.6169 27.3409 92.6169 27.7272C92.6169 28.1136 92.6666 28.4403 92.7661 28.7074C92.8683 28.9716 93.0104 29.1718 93.1922 29.3082C93.374 29.4417 93.5857 29.5085 93.8272 29.5085C94.0203 29.5085 94.1908 29.4673 94.3385 29.3849C94.4891 29.3025 94.6127 29.1818 94.7093 29.0227C94.8058 28.8608 94.8669 28.6647 94.8925 28.4346H96.8399C96.8201 28.9744 96.6851 29.446 96.4351 29.8494C96.188 30.2528 95.8399 30.5667 95.3911 30.7912C94.9451 31.0128 94.4152 31.1235 93.8016 31.1235ZM101.601 24.4545V25.9886H97.4717V24.4545H101.601ZM98.3367 22.8863H100.421V28.9417C100.421 29.0696 100.44 29.1733 100.48 29.2528C100.523 29.3295 100.584 29.3849 100.663 29.419C100.743 29.4503 100.838 29.4659 100.949 29.4659C101.029 29.4659 101.112 29.4588 101.2 29.4446C101.291 29.4275 101.359 29.4133 101.405 29.402L101.72 30.9062C101.621 30.9346 101.48 30.9701 101.298 31.0128C101.119 31.0554 100.905 31.0824 100.655 31.0937C100.166 31.1164 99.7473 31.0596 99.3978 30.9233C99.0512 30.7841 98.7856 30.5681 98.6009 30.2755C98.4191 29.9829 98.3311 29.615 98.3367 29.1718V22.8863ZM106.887 28.1747V24.4545H108.967V31H106.981V29.7812H106.913C106.768 30.1818 106.521 30.5 106.171 30.7358C105.825 30.9687 105.406 31.0852 104.914 31.0852C104.468 31.0852 104.076 30.9829 103.738 30.7784C103.4 30.5738 103.137 30.2883 102.95 29.9218C102.762 29.5525 102.667 29.1207 102.664 28.6264V24.4545H104.748V28.2173C104.751 28.5724 104.845 28.8522 105.029 29.0568C105.214 29.2613 105.465 29.3636 105.783 29.3636C105.991 29.3636 106.177 29.3181 106.342 29.2272C106.509 29.1335 106.641 28.9985 106.738 28.8224C106.837 28.6434 106.887 28.4275 106.887 28.1747ZM110.293 31V24.4545H112.317V25.6477H112.385C112.505 25.2159 112.699 24.8949 112.969 24.6846C113.239 24.4716 113.553 24.365 113.911 24.365C114.008 24.365 114.107 24.3721 114.209 24.3863C114.312 24.3977 114.407 24.4162 114.495 24.4417V26.2528C114.395 26.2187 114.265 26.1917 114.103 26.1718C113.944 26.152 113.802 26.142 113.677 26.142C113.429 26.142 113.206 26.1974 113.008 26.3082C112.812 26.4162 112.657 26.5681 112.543 26.7642C112.432 26.9574 112.377 27.1846 112.377 27.446V31H110.293ZM116.817 33.4545C116.567 33.4545 116.331 33.4346 116.11 33.3949C115.888 33.3579 115.698 33.3082 115.539 33.2457L115.999 31.7329C116.204 31.8011 116.388 31.8409 116.553 31.8522C116.721 31.8636 116.864 31.8366 116.983 31.7713C117.106 31.7088 117.199 31.5966 117.265 31.4346L117.346 31.2386L115.019 24.4545H117.201L118.407 29.125H118.475L119.698 24.4545H121.892L119.425 31.6264C119.306 31.9843 119.137 32.2997 118.918 32.5724C118.702 32.848 118.422 33.0639 118.079 33.2201C117.738 33.3764 117.317 33.4545 116.817 33.4545ZM127.157 31H124.89L127.835 22.2727H130.643L133.588 31H131.321L129.271 24.4716H129.203L127.157 31ZM126.855 27.5653H131.593V29.1676H126.855V27.5653ZM134.527 31V22.2727H138.133C138.786 22.2727 139.35 22.4005 139.824 22.6562C140.302 22.9091 140.669 23.2628 140.928 23.7173C141.187 24.169 141.316 24.6946 141.316 25.294C141.316 25.8963 141.184 26.4233 140.919 26.875C140.658 27.3238 140.285 27.6718 139.799 27.919C139.313 28.1662 138.736 28.2897 138.069 28.2897H135.844V26.6278H137.677C137.995 26.6278 138.26 26.5724 138.473 26.4616C138.689 26.3508 138.853 26.196 138.964 25.9971C139.074 25.7954 139.13 25.561 139.13 25.294C139.13 25.0241 139.074 24.7912 138.964 24.5951C138.853 24.3963 138.689 24.2429 138.473 24.1349C138.258 24.027 137.992 23.973 137.677 23.973H136.637V31H134.527ZM144.465 22.2727V31H142.356V22.2727H144.465Z" fill="url(#paint2_linear_18_3388)"/>
</g>
<rect x="0.749756" y="0.749969" width="154.5" height="38.5" rx="5.25" stroke="white" stroke-opacity="0.15" stroke-width="1.5"/>
<defs>
<filter id="filter0_d_18_3388" x="5.99976" y="1.99997" width="36" height="36" filterUnits="userSpaceOnUse" color-interpolation-filters="sRGB">
<feFlood flood-opacity="0" result="BackgroundImageFix"/>
<feColorMatrix in="SourceAlpha" type="matrix" values="0 0 0 0 0 0 0 0 0 0 0 0 0 0 0 0 0 0 127 0" result="hardAlpha"/>
<feOffset/>
<feGaussianBlur stdDeviation="2"/>
<feComposite in2="hardAlpha" operator="out"/>
<feColorMatrix type="matrix" values="0 0 0 0 0 0 0 0 0 0 0 0 0 0 0 0 0 0 0.25 0"/>
<feBlend mode="normal" in2="BackgroundImageFix" result="effect1_dropShadow_18_3388"/>
<feBlend mode="normal" in="SourceGraphic" in2="effect1_dropShadow_18_3388" result="shape"/>
</filter>
<filter id="filter1_d_18_3388" x="41.9998" y="2.99997" width="108" height="34.4545" filterUnits="userSpaceOnUse" color-interpolation-filters="sRGB">
<feFlood flood-opacity="0" result="BackgroundImageFix"/>
<feColorMatrix in="SourceAlpha" type="matrix" values="0 0 0 0 0 0 0 0 0 0 0 0 0 0 0 0 0 0 127 0" result="hardAlpha"/>
<feOffset/>
<feGaussianBlur stdDeviation="2"/>
<feComposite in2="hardAlpha" operator="out"/>
<feColorMatrix type="matrix" values="0 0 0 0 0 0 0 0 0 0 0 0 0 0 0 0 0 0 0.25 0"/>
<feBlend mode="normal" in2="BackgroundImageFix" result="effect1_dropShadow_18_3388"/>
<feBlend mode="normal" in="SourceGraphic" in2="effect1_dropShadow_18_3388" result="shape"/>
</filter>
<linearGradient id="paint0_linear_18_3388" x1="77.9997" y1="-3.05176e-05" x2="77.9997" y2="40" gradientUnits="userSpaceOnUse">
<stop stop-color="#402519"/>
<stop offset="1" stop-color="#261111"/>
</linearGradient>
<linearGradient id="paint1_linear_18_3388" x1="23.9998" y1="5.99997" x2="23.9998" y2="34" gradientUnits="userSpaceOnUse">
<stop stop-color="#E05718"/>
<stop offset="1" stop-color="#D63833"/>
</linearGradient>
<linearGradient id="paint2_linear_18_3388" x1="99.9471" y1="20" x2="99.9471" y2="31" gradientUnits="userSpaceOnUse">
<stop stop-color="#E05718"/>
<stop offset="1" stop-color="#D63833"/>
</linearGradient>
</defs>
</svg>
