<svg width="187" height="40" viewBox="0 0 187 40" fill="none" xmlns="http://www.w3.org/2000/svg">
<rect x="-0.000244141" y="-6.10352e-05" width="187" height="40" rx="6" fill="url(#paint0_linear_18_3415)"/>
<g filter="url(#filter0_d_18_3415)">
<path d="M10.9998 25.7499V23.9999H16.2498V25.7499H10.9998ZM16.2498 23.9999V22.2499H17.9998V23.9999H16.2498ZM9.24976 23.9999V15.2499H10.9998V23.9999H9.24976ZM16.2498 16.9999V15.2499H17.9998V16.9999H16.2498ZM10.9998 15.2499V13.4999H16.2498V15.2499H10.9998ZM19.7498 25.7499V13.4999H28.4998V15.2499H21.4998V16.9999H24.9998V18.7499H21.4998V23.9999H28.4998V25.7499H19.7498ZM33.7498 18.7499V16.9999H35.4998V18.7499H33.7498ZM30.2498 25.7499V13.4999H31.9998V15.2499H33.7498V16.9999H31.9998V25.7499H30.2498ZM37.2498 25.7499V16.9999H35.4998V15.2499H37.2498V13.4999H38.9998V25.7499H37.2498Z" fill="white"/>
</g>
<g filter="url(#filter1_d_18_3415)">
<path d="M46.8787 17.9999V9.99994H49.7302C50.35 9.99994 50.8643 10.1067 51.2732 10.3203C51.6847 10.5338 51.9919 10.8294 52.1951 11.207C52.3982 11.582 52.4998 12.0156 52.4998 12.5077C52.4998 12.9973 52.3969 13.4283 52.1912 13.8007C51.988 14.1705 51.6807 14.4583 51.2693 14.664C50.8604 14.8697 50.3461 14.9726 49.7263 14.9726H47.5662V13.9335H49.6169C50.0076 13.9335 50.3253 13.8775 50.5701 13.7656C50.8175 13.6536 50.9985 13.4908 51.113 13.2773C51.2276 13.0637 51.2849 12.8072 51.2849 12.5077C51.2849 12.2057 51.2263 11.9439 51.1091 11.7226C50.9945 11.5012 50.8136 11.332 50.5662 11.2148C50.3214 11.095 49.9998 11.0351 49.6013 11.0351H48.0857V17.9999H46.8787ZM50.8279 14.3906L52.8044 17.9999H51.4294L49.4919 14.3906H50.8279ZM56.3855 18.121C55.7943 18.121 55.2852 17.9947 54.8582 17.7421C54.4337 17.4869 54.1055 17.1288 53.8738 16.6679C53.6446 16.2044 53.53 15.6614 53.53 15.039C53.53 14.4244 53.6446 13.8827 53.8738 13.414C54.1055 12.9452 54.4285 12.5794 54.8425 12.3163C55.2592 12.0533 55.7462 11.9218 56.3035 11.9218C56.642 11.9218 56.9701 11.9778 57.2878 12.0898C57.6055 12.2018 57.8907 12.3775 58.1433 12.6171C58.3959 12.8567 58.5951 13.1679 58.741 13.5507C58.8868 13.9309 58.9597 14.3932 58.9597 14.9374V15.3515H54.1902V14.4765H57.8152C57.8152 14.1692 57.7527 13.8971 57.6277 13.6601C57.5027 13.4205 57.3269 13.2317 57.1003 13.0937C56.8764 12.9557 56.6134 12.8867 56.3113 12.8867C55.9832 12.8867 55.6967 12.9674 55.4519 13.1288C55.2097 13.2877 55.0222 13.496 54.8894 13.7538C54.7592 14.0091 54.6941 14.2864 54.6941 14.5859V15.2695C54.6941 15.6705 54.7644 16.0117 54.905 16.2929C55.0483 16.5742 55.2475 16.789 55.5027 16.9374C55.7579 17.0833 56.0561 17.1562 56.3972 17.1562C56.6186 17.1562 56.8204 17.1249 57.0027 17.0624C57.185 16.9973 57.3425 16.901 57.4753 16.7734C57.6082 16.6458 57.7097 16.4882 57.78 16.3007L58.8855 16.4999C58.797 16.8255 58.6381 17.1106 58.4089 17.3554C58.1824 17.5976 57.8972 17.7864 57.5535 17.9218C57.2123 18.0546 56.823 18.121 56.3855 18.121ZM64.3064 20.2499V17.0663H64.2361C64.1658 17.1939 64.0642 17.3398 63.9314 17.5038C63.8012 17.6679 63.6215 17.8111 63.3923 17.9335C63.1632 18.0559 62.8663 18.1171 62.5017 18.1171C62.0173 18.1171 61.585 17.9934 61.2048 17.746C60.8272 17.496 60.5304 17.1406 60.3142 16.6796C60.1007 16.2161 59.9939 15.6601 59.9939 15.0117C59.9939 14.3632 60.102 13.8085 60.3181 13.3476C60.5369 12.8867 60.8363 12.5338 61.2165 12.289C61.5968 12.0442 62.0277 11.9218 62.5095 11.9218C62.8819 11.9218 63.1814 11.9843 63.408 12.1093C63.6371 12.2317 63.8142 12.3749 63.9392 12.539C64.0668 12.7031 64.1658 12.8476 64.2361 12.9726H64.3337V11.9999H65.4744V20.2499H64.3064ZM62.7595 17.121C63.0955 17.121 63.3793 17.0325 63.6111 16.8554C63.8455 16.6757 64.0225 16.427 64.1423 16.1093C64.2647 15.7916 64.3259 15.4218 64.3259 14.9999C64.3259 14.5833 64.266 14.2187 64.1462 13.9062C64.0264 13.5937 63.8507 13.3502 63.6189 13.1757C63.3871 13.0012 63.1007 12.914 62.7595 12.914C62.408 12.914 62.115 13.0051 61.8806 13.1874C61.6462 13.3697 61.4692 13.6184 61.3494 13.9335C61.2322 14.2486 61.1736 14.6041 61.1736 14.9999C61.1736 15.401 61.2335 15.7617 61.3533 16.082C61.4731 16.4023 61.6501 16.6562 61.8845 16.8437C62.1215 17.0286 62.4132 17.121 62.7595 17.121ZM70.8455 15.5117V11.9999H72.0173V17.9999H70.8689V16.9609H70.8064C70.6684 17.2812 70.447 17.5481 70.1423 17.7617C69.8402 17.9726 69.4639 18.0781 69.0134 18.0781C68.628 18.0781 68.2869 17.9934 67.99 17.8242C67.6957 17.6523 67.4639 17.3984 67.2947 17.0624C67.128 16.7265 67.0447 16.3111 67.0447 15.8163V11.9999H68.2126V15.6757C68.2126 16.0846 68.3259 16.4101 68.5525 16.6523C68.779 16.8945 69.0733 17.0156 69.4353 17.0156C69.654 17.0156 69.8715 16.9609 70.0876 16.8515C70.3064 16.7421 70.4874 16.5768 70.6306 16.3554C70.7764 16.1341 70.8481 15.8528 70.8455 15.5117ZM73.5867 17.9999V11.9999H74.7546V17.9999H73.5867ZM74.1765 11.0742C73.9734 11.0742 73.7989 11.0064 73.6531 10.871C73.5098 10.733 73.4382 10.5689 73.4382 10.3788C73.4382 10.1861 73.5098 10.0221 73.6531 9.88666C73.7989 9.74864 73.9734 9.67963 74.1765 9.67963C74.3796 9.67963 74.5528 9.74864 74.696 9.88666C74.8419 10.0221 74.9148 10.1861 74.9148 10.3788C74.9148 10.5689 74.8419 10.733 74.696 10.871C74.5528 11.0064 74.3796 11.0742 74.1765 11.0742ZM76.3259 17.9999V11.9999H77.4548V12.9531H77.5173C77.6267 12.6301 77.8194 12.3762 78.0954 12.1913C78.3741 12.0038 78.6892 11.9101 79.0408 11.9101C79.1137 11.9101 79.1996 11.9127 79.2986 11.9179C79.4001 11.9231 79.4796 11.9296 79.5369 11.9374V13.0546C79.49 13.0416 79.4066 13.0273 79.2869 13.0117C79.1671 12.9934 79.0473 12.9843 78.9275 12.9843C78.6514 12.9843 78.4053 13.0429 78.1892 13.1601C77.9757 13.2747 77.8064 13.4348 77.6814 13.6406C77.5564 13.8437 77.4939 14.0755 77.4939 14.3359V17.9999H76.3259ZM82.9187 18.121C82.3275 18.121 81.8184 17.9947 81.3913 17.7421C80.9669 17.4869 80.6387 17.1288 80.407 16.6679C80.1778 16.2044 80.0632 15.6614 80.0632 15.039C80.0632 14.4244 80.1778 13.8827 80.407 13.414C80.6387 12.9452 80.9617 12.5794 81.3757 12.3163C81.7924 12.0533 82.2794 11.9218 82.8367 11.9218C83.1752 11.9218 83.5033 11.9778 83.821 12.0898C84.1387 12.2018 84.4239 12.3775 84.6765 12.6171C84.9291 12.8567 85.1283 13.1679 85.2742 13.5507C85.42 13.9309 85.4929 14.3932 85.4929 14.9374V15.3515H80.7234V14.4765H84.3484C84.3484 14.1692 84.2859 13.8971 84.1609 13.6601C84.0359 13.4205 83.8601 13.2317 83.6335 13.0937C83.4096 12.9557 83.1466 12.8867 82.8445 12.8867C82.5163 12.8867 82.2299 12.9674 81.9851 13.1288C81.7429 13.2877 81.5554 13.496 81.4226 13.7538C81.2924 14.0091 81.2273 14.2864 81.2273 14.5859V15.2695C81.2273 15.6705 81.2976 16.0117 81.4382 16.2929C81.5815 16.5742 81.7807 16.789 82.0359 16.9374C82.2911 17.0833 82.5893 17.1562 82.9304 17.1562C83.1518 17.1562 83.3536 17.1249 83.5359 17.0624C83.7182 16.9973 83.8757 16.901 84.0085 16.7734C84.1413 16.6458 84.2429 16.4882 84.3132 16.3007L85.4187 16.4999C85.3301 16.8255 85.1713 17.1106 84.9421 17.3554C84.7156 17.5976 84.4304 17.7864 84.0867 17.9218C83.7455 18.0546 83.3562 18.121 82.9187 18.121ZM91.2849 13.4648L90.2263 13.6523C90.182 13.5169 90.1117 13.388 90.0154 13.2656C89.9216 13.1432 89.794 13.0429 89.6326 12.9648C89.4711 12.8867 89.2693 12.8476 89.0271 12.8476C88.6964 12.8476 88.4203 12.9218 88.199 13.0702C87.9776 13.2161 87.8669 13.4049 87.8669 13.6367C87.8669 13.8372 87.9411 13.9986 88.0896 14.121C88.238 14.2434 88.4776 14.3437 88.8083 14.4218L89.7615 14.6406C90.3135 14.7682 90.725 14.9648 90.9958 15.2304C91.2667 15.496 91.4021 15.8411 91.4021 16.2656C91.4021 16.6249 91.2979 16.9452 91.0896 17.2265C90.8839 17.5051 90.5961 17.7239 90.2263 17.8827C89.8591 18.0416 89.4333 18.121 88.949 18.121C88.2771 18.121 87.7289 17.9778 87.3044 17.6913C86.88 17.4023 86.6195 16.9921 86.5232 16.4609L87.6521 16.289C87.7224 16.5833 87.8669 16.8059 88.0857 16.957C88.3044 17.1054 88.5896 17.1796 88.9411 17.1796C89.324 17.1796 89.63 17.1002 89.8591 16.9413C90.0883 16.7799 90.2029 16.5833 90.2029 16.3515C90.2029 16.164 90.1326 16.0064 89.9919 15.8788C89.8539 15.7512 89.6417 15.6549 89.3552 15.5898L88.3396 15.3671C87.7797 15.2395 87.3656 15.0364 87.0974 14.7577C86.8318 14.4791 86.699 14.1262 86.699 13.6992C86.699 13.345 86.7979 13.0351 86.9958 12.7695C87.1938 12.5038 87.4672 12.2968 87.8161 12.1484C88.1651 11.9973 88.5648 11.9218 89.0154 11.9218C89.6638 11.9218 90.1742 12.0624 90.5466 12.3437C90.919 12.6223 91.1651 12.996 91.2849 13.4648Z" fill="#E8E8E8"/>
<path d="M54.5821 25.4346H52.4515C52.423 25.2158 52.3648 25.0184 52.2767 24.8423C52.1887 24.6661 52.0722 24.5156 51.9273 24.3906C51.7824 24.2656 51.6105 24.1704 51.4117 24.1051C51.2157 24.0369 50.9983 24.0028 50.7597 24.0028C50.3364 24.0028 49.9713 24.1065 49.6645 24.3139C49.3606 24.5212 49.1262 24.821 48.9614 25.213C48.7995 25.6051 48.7185 26.0795 48.7185 26.6363C48.7185 27.2158 48.8009 27.7016 48.9657 28.0937C49.1333 28.4829 49.3677 28.7769 49.6688 28.9758C49.9728 29.1718 50.3321 29.2698 50.7469 29.2698C50.9799 29.2698 51.1915 29.24 51.3819 29.1803C51.575 29.1207 51.7441 29.034 51.889 28.9204C52.0367 28.8039 52.1574 28.6633 52.2512 28.4985C52.3478 28.3309 52.4145 28.142 52.4515 27.9318L54.5821 27.9445C54.5452 28.3309 54.433 28.7116 54.2455 29.0866C54.0608 29.4616 53.8066 29.8039 53.4827 30.1136C53.1588 30.4204 52.764 30.6647 52.298 30.8465C51.835 31.0283 51.3037 31.1193 50.7043 31.1193C49.9145 31.1193 49.2071 30.946 48.5821 30.5994C47.96 30.2499 47.4685 29.7414 47.1077 29.0738C46.7469 28.4062 46.5665 27.5937 46.5665 26.6363C46.5665 25.6761 46.7498 24.8622 47.1162 24.1945C47.4827 23.5269 47.9784 23.0198 48.6034 22.6732C49.2284 22.3266 49.9287 22.1533 50.7043 22.1533C51.2327 22.1533 51.7213 22.2272 52.1702 22.3749C52.6191 22.5198 53.014 22.7329 53.3549 23.0141C53.6958 23.2926 53.9728 23.6349 54.1858 24.0411C54.3989 24.4474 54.531 24.9119 54.5821 25.4346ZM60.0122 28.1747V24.4545H62.0917V30.9999H60.1059V29.7812H60.0377C59.8929 30.1818 59.6457 30.4999 59.2963 30.7357C58.9497 30.9687 58.5306 31.0852 58.0392 31.0852C57.5931 31.0852 57.2011 30.9829 56.863 30.7783C56.525 30.5738 56.2622 30.2883 56.0747 29.9218C55.8872 29.5525 55.792 29.1207 55.7892 28.6264V24.4545H57.873V28.2173C57.8758 28.5724 57.9696 28.8522 58.1542 29.0568C58.3389 29.2613 58.5903 29.3636 58.9085 29.3636C59.1159 29.3636 59.302 29.3181 59.4667 29.2272C59.6343 29.1335 59.7664 28.9985 59.863 28.8224C59.9625 28.6434 60.0122 28.4275 60.0122 28.1747ZM69.1326 26.4531L67.2192 26.5042C67.1993 26.3678 67.1453 26.2471 67.0573 26.142C66.9692 26.034 66.8542 25.9502 66.7121 25.8906C66.5729 25.8281 66.411 25.7968 66.2263 25.7968C65.9848 25.7968 65.7789 25.8451 65.6084 25.9417C65.4408 26.0383 65.3584 26.169 65.3613 26.3337C65.3584 26.4616 65.4096 26.5724 65.5147 26.6661C65.6226 26.7599 65.8144 26.8352 66.0899 26.892L67.3513 27.1306C68.0047 27.2556 68.4905 27.463 68.8087 27.7528C69.1297 28.0426 69.2917 28.4261 69.2945 28.9033C69.2917 29.3522 69.1581 29.7428 68.8939 30.0752C68.6326 30.4076 68.2746 30.6661 67.8201 30.8508C67.3655 31.0326 66.8456 31.1235 66.2604 31.1235C65.3257 31.1235 64.5885 30.9318 64.0488 30.5482C63.5118 30.1619 63.205 29.6448 63.1283 28.9971L65.1865 28.946C65.232 29.1846 65.3499 29.3664 65.5402 29.4914C65.7306 29.6164 65.9735 29.6789 66.2689 29.6789C66.536 29.6789 66.7533 29.6292 66.9209 29.5298C67.0885 29.4303 67.1738 29.2982 67.1766 29.1335C67.1738 28.9857 67.1084 28.8678 66.9806 28.7798C66.8527 28.6889 66.6524 28.6178 66.3797 28.5667L65.2377 28.3494C64.5814 28.2301 64.0928 28.0099 63.7718 27.6889C63.4507 27.365 63.2917 26.9531 63.2945 26.4531C63.2917 26.0156 63.4081 25.642 63.6439 25.3323C63.8797 25.0198 64.2149 24.7812 64.6496 24.6164C65.0843 24.4516 65.5971 24.3693 66.188 24.3693C67.0743 24.3693 67.7732 24.5553 68.2846 24.9275C68.7959 25.2968 69.0786 25.8053 69.1326 26.4531ZM74.015 24.4545V25.9886H69.8858V24.4545H74.015ZM70.7508 22.8863H72.8346V28.9417C72.8346 29.0695 72.8545 29.1732 72.8943 29.2528C72.9369 29.3295 72.998 29.3849 73.0775 29.419C73.1571 29.4502 73.2522 29.4658 73.363 29.4658C73.4426 29.4658 73.5264 29.4587 73.6144 29.4445C73.7054 29.4275 73.7735 29.4133 73.819 29.4019L74.1343 30.9062C74.0349 30.9346 73.8943 30.9701 73.7125 31.0127C73.5335 31.0553 73.319 31.0823 73.069 31.0937C72.5804 31.1164 72.1613 31.0596 71.8119 30.9232C71.4653 30.784 71.1997 30.5681 71.015 30.2755C70.8332 29.9829 70.7451 29.615 70.7508 29.1718V22.8863ZM78.0633 31.1235C77.3758 31.1235 76.7849 30.9829 76.2906 30.7016C75.7991 30.4175 75.4198 30.0227 75.1528 29.517C74.8886 29.0085 74.7565 28.419 74.7565 27.7485C74.7565 27.0752 74.8886 26.4857 75.1528 25.9801C75.4198 25.4715 75.7991 25.0766 76.2906 24.7954C76.7849 24.5113 77.3758 24.3693 78.0633 24.3693C78.7508 24.3693 79.3403 24.5113 79.8318 24.7954C80.3261 25.0766 80.7054 25.4715 80.9696 25.9801C81.2366 26.4857 81.3701 27.0752 81.3701 27.7485C81.3701 28.419 81.2366 29.0085 80.9696 29.517C80.7054 30.0227 80.3261 30.4175 79.8318 30.7016C79.3403 30.9829 78.7508 31.1235 78.0633 31.1235ZM78.0761 29.5511C78.3261 29.5511 78.5377 29.4744 78.711 29.321C78.8843 29.1675 79.0164 28.9545 79.1073 28.6818C79.2011 28.409 79.248 28.0937 79.248 27.7357C79.248 27.3721 79.2011 27.0539 79.1073 26.7812C79.0164 26.5085 78.8843 26.2954 78.711 26.142C78.5377 25.9886 78.3261 25.9119 78.0761 25.9119C77.8176 25.9119 77.5988 25.9886 77.4198 26.142C77.2437 26.2954 77.1088 26.5085 77.015 26.7812C76.9241 27.0539 76.8787 27.3721 76.8787 27.7357C76.8787 28.0937 76.9241 28.409 77.015 28.6818C77.1088 28.9545 77.2437 29.1675 77.4198 29.321C77.5988 29.4744 77.8176 29.5511 78.0761 29.5511ZM82.4376 30.9999V24.4545H84.4191V25.6562H84.4916C84.6279 25.2585 84.8581 24.9445 85.1819 24.7144C85.5058 24.4843 85.8921 24.3693 86.341 24.3693C86.7956 24.3693 87.1848 24.4857 87.5086 24.7187C87.8325 24.9516 88.0385 25.2641 88.1265 25.6562H88.1947C88.3169 25.267 88.5555 24.9559 88.9106 24.7229C89.2657 24.4872 89.6848 24.3693 90.1677 24.3693C90.787 24.3693 91.2899 24.5681 91.6762 24.9658C92.0626 25.3607 92.2558 25.9033 92.2558 26.5937V30.9999H90.172V27.071C90.172 26.7443 90.0882 26.4957 89.9206 26.3252C89.7529 26.1519 89.5356 26.0653 89.2686 26.0653C88.9816 26.0653 88.7558 26.159 88.591 26.3465C88.4291 26.5312 88.3481 26.7798 88.3481 27.0923V30.9999H86.3453V27.0497C86.3453 26.7457 86.2629 26.5056 86.0981 26.3295C85.9333 26.1533 85.716 26.0653 85.4461 26.0653C85.2643 26.0653 85.1038 26.1093 84.9646 26.1974C84.8254 26.2826 84.716 26.4048 84.6365 26.5639C84.5598 26.7229 84.5214 26.9104 84.5214 27.1264V30.9999H82.4376ZM96.1251 30.9999V22.2727H102.21V23.9857H98.2345V25.7755H101.899V27.4928H98.2345V29.2869H102.21V30.9999H96.1251ZM105.615 27.267V30.9999H103.531V24.4545H105.513V25.6562H105.585C105.73 25.2556 105.977 24.9417 106.327 24.7144C106.676 24.4843 107.092 24.3693 107.575 24.3693C108.036 24.3693 108.435 24.4729 108.773 24.6803C109.114 24.8849 109.378 25.1718 109.565 25.5411C109.756 25.9076 109.85 26.3366 109.847 26.8281V30.9999H107.763V27.2372C107.766 26.8735 107.673 26.5894 107.486 26.3849C107.301 26.1803 107.044 26.0781 106.715 26.0781C106.496 26.0781 106.303 26.1264 106.135 26.2229C105.97 26.3167 105.842 26.4516 105.752 26.6278C105.663 26.8039 105.618 27.017 105.615 27.267ZM114.831 24.4545V25.9886H110.702V24.4545H114.831ZM111.567 22.8863H113.651V28.9417C113.651 29.0695 113.671 29.1732 113.711 29.2528C113.753 29.3295 113.814 29.3849 113.894 29.419C113.973 29.4502 114.069 29.4658 114.179 29.4658C114.259 29.4658 114.343 29.4587 114.431 29.4445C114.522 29.4275 114.59 29.4133 114.635 29.4019L114.951 30.9062C114.851 30.9346 114.711 30.9701 114.529 31.0127C114.35 31.0553 114.135 31.0823 113.885 31.0937C113.397 31.1164 112.978 31.0596 112.628 30.9232C112.282 30.784 112.016 30.5681 111.831 30.2755C111.65 29.9829 111.562 29.615 111.567 29.1718V22.8863ZM115.895 30.9999V24.4545H117.978V30.9999H115.895ZM116.939 23.6917C116.646 23.6917 116.395 23.5951 116.184 23.4019C115.974 23.2059 115.869 22.9701 115.869 22.6945C115.869 22.4218 115.974 22.1889 116.184 21.9957C116.395 21.7997 116.646 21.7016 116.939 21.7016C117.234 21.7016 117.486 21.7997 117.693 21.9957C117.903 22.1889 118.008 22.4218 118.008 22.6945C118.008 22.9701 117.903 23.2059 117.693 23.4019C117.486 23.5951 117.234 23.6917 116.939 23.6917ZM122.999 24.4545V25.9886H118.87V24.4545H122.999ZM119.735 22.8863H121.819V28.9417C121.819 29.0695 121.839 29.1732 121.879 29.2528C121.921 29.3295 121.982 29.3849 122.062 29.419C122.141 29.4502 122.237 29.4658 122.347 29.4658C122.427 29.4658 122.511 29.4587 122.599 29.4445C122.69 29.4275 122.758 29.4133 122.803 29.4019L123.119 30.9062C123.019 30.9346 122.879 30.9701 122.697 31.0127C122.518 31.0553 122.303 31.0823 122.053 31.0937C121.565 31.1164 121.146 31.0596 120.796 30.9232C120.45 30.784 120.184 30.5681 119.999 30.2755C119.818 29.9829 119.729 29.615 119.735 29.1718V22.8863ZM125.337 33.4545C125.087 33.4545 124.851 33.4346 124.629 33.3948C124.408 33.3579 124.217 33.3082 124.058 33.2457L124.519 31.7329C124.723 31.8011 124.908 31.8408 125.073 31.8522C125.24 31.8636 125.384 31.8366 125.503 31.7712C125.625 31.7087 125.719 31.5965 125.784 31.4346L125.865 31.2386L123.538 24.4545H125.72L126.926 29.1249H126.994L128.217 24.4545H130.412L127.945 31.6264C127.825 31.9843 127.656 32.2997 127.438 32.5724C127.222 32.8479 126.942 33.0639 126.598 33.2201C126.257 33.3764 125.837 33.4545 125.337 33.4545ZM133.789 22.2727H136.401L138.617 27.6761H138.72L140.935 22.2727H143.548V30.9999H141.494V25.6391H141.421L139.325 30.9445H138.012L135.916 25.6093H135.843V30.9999H133.789V22.2727ZM147.919 31.1235C147.231 31.1235 146.64 30.9829 146.146 30.7016C145.655 30.4175 145.275 30.0227 145.008 29.517C144.744 29.0085 144.612 28.419 144.612 27.7485C144.612 27.0752 144.744 26.4857 145.008 25.9801C145.275 25.4715 145.655 25.0766 146.146 24.7954C146.64 24.5113 147.231 24.3693 147.919 24.3693C148.606 24.3693 149.196 24.5113 149.687 24.7954C150.182 25.0766 150.561 25.4715 150.825 25.9801C151.092 26.4857 151.226 27.0752 151.226 27.7485C151.226 28.419 151.092 29.0085 150.825 29.517C150.561 30.0227 150.182 30.4175 149.687 30.7016C149.196 30.9829 148.606 31.1235 147.919 31.1235ZM147.932 29.5511C148.182 29.5511 148.393 29.4744 148.566 29.321C148.74 29.1675 148.872 28.9545 148.963 28.6818C149.057 28.409 149.103 28.0937 149.103 27.7357C149.103 27.3721 149.057 27.0539 148.963 26.7812C148.872 26.5085 148.74 26.2954 148.566 26.142C148.393 25.9886 148.182 25.9119 147.932 25.9119C147.673 25.9119 147.454 25.9886 147.275 26.142C147.099 26.2954 146.964 26.5085 146.87 26.7812C146.78 27.0539 146.734 27.3721 146.734 27.7357C146.734 28.0937 146.78 28.409 146.87 28.6818C146.964 28.9545 147.099 29.1675 147.275 29.321C147.454 29.4744 147.673 29.5511 147.932 29.5511ZM154.684 31.0937C154.201 31.0937 153.762 30.9687 153.367 30.7187C152.972 30.4687 152.657 30.0937 152.421 29.5937C152.185 29.0937 152.067 28.4729 152.067 27.7315C152.067 26.9616 152.189 26.3281 152.434 25.8309C152.678 25.3337 152.998 24.9658 153.392 24.7272C153.79 24.4886 154.218 24.3693 154.675 24.3693C155.019 24.3693 155.313 24.4289 155.557 24.5482C155.802 24.6647 156.003 24.8153 156.162 24.9999C156.321 25.1846 156.442 25.3764 156.525 25.5752H156.567V22.2727H158.651V30.9999H156.589V29.9389H156.525C156.437 30.1406 156.312 30.3295 156.15 30.5056C155.988 30.6818 155.785 30.8238 155.54 30.9318C155.299 31.0397 155.013 31.0937 154.684 31.0937ZM155.408 29.4701C155.661 29.4701 155.877 29.3991 156.056 29.257C156.235 29.1122 156.373 28.909 156.469 28.6477C156.566 28.3863 156.614 28.0795 156.614 27.7272C156.614 27.3693 156.566 27.061 156.469 26.8025C156.375 26.544 156.238 26.3451 156.056 26.2059C155.877 26.0667 155.661 25.9971 155.408 25.9971C155.15 25.9971 154.931 26.0681 154.752 26.2102C154.573 26.3522 154.437 26.5525 154.343 26.811C154.252 27.0695 154.206 27.3749 154.206 27.7272C154.206 28.0795 154.253 28.3863 154.347 28.6477C154.441 28.909 154.576 29.1122 154.752 29.257C154.931 29.3991 155.15 29.4701 155.408 29.4701ZM163.028 31.1235C162.344 31.1235 161.753 30.9886 161.256 30.7187C160.761 30.446 160.381 30.0582 160.114 29.5553C159.85 29.0497 159.717 28.4488 159.717 27.7528C159.717 27.0766 159.851 26.4857 160.118 25.9801C160.385 25.4715 160.761 25.0766 161.247 24.7954C161.733 24.5113 162.305 24.3693 162.965 24.3693C163.43 24.3693 163.857 24.4417 164.243 24.5866C164.629 24.7315 164.963 24.946 165.244 25.2301C165.526 25.5141 165.744 25.865 165.901 26.2826C166.057 26.6974 166.135 27.1732 166.135 27.7102V28.2301H160.446V27.0198H164.196C164.193 26.7982 164.141 26.6008 164.038 26.4275C163.936 26.2542 163.796 26.1193 163.617 26.0227C163.44 25.9232 163.237 25.8735 163.007 25.8735C162.774 25.8735 162.565 25.9261 162.381 26.0312C162.196 26.1335 162.05 26.2741 161.942 26.4531C161.834 26.6292 161.777 26.8295 161.771 27.0539V28.2854C161.771 28.5525 161.824 28.7869 161.929 28.9886C162.034 29.1874 162.183 29.3423 162.376 29.4531C162.57 29.5639 162.8 29.6193 163.067 29.6193C163.251 29.6193 163.419 29.5937 163.57 29.5425C163.72 29.4914 163.85 29.4161 163.957 29.3167C164.065 29.2173 164.146 29.0951 164.2 28.9502L166.114 29.0056C166.034 29.4346 165.859 29.8082 165.59 30.1264C165.323 30.4417 164.972 30.6874 164.537 30.8636C164.102 31.0369 163.6 31.1235 163.028 31.1235ZM169.283 22.2727V30.9999H167.199V22.2727H169.283ZM176.324 26.4531L174.411 26.5042C174.391 26.3678 174.337 26.2471 174.249 26.142C174.161 26.034 174.046 25.9502 173.903 25.8906C173.764 25.8281 173.602 25.7968 173.418 25.7968C173.176 25.7968 172.97 25.8451 172.8 25.9417C172.632 26.0383 172.55 26.169 172.553 26.3337C172.55 26.4616 172.601 26.5724 172.706 26.6661C172.814 26.7599 173.006 26.8352 173.281 26.892L174.543 27.1306C175.196 27.2556 175.682 27.463 176 27.7528C176.321 28.0426 176.483 28.4261 176.486 28.9033C176.483 29.3522 176.35 29.7428 176.085 30.0752C175.824 30.4076 175.466 30.6661 175.011 30.8508C174.557 31.0326 174.037 31.1235 173.452 31.1235C172.517 31.1235 171.78 30.9318 171.24 30.5482C170.703 30.1619 170.396 29.6448 170.32 28.9971L172.378 28.946C172.423 29.1846 172.541 29.3664 172.732 29.4914C172.922 29.6164 173.165 29.6789 173.46 29.6789C173.727 29.6789 173.945 29.6292 174.112 29.5298C174.28 29.4303 174.365 29.2982 174.368 29.1335C174.365 28.9857 174.3 28.8678 174.172 28.7798C174.044 28.6889 173.844 28.6178 173.571 28.5667L172.429 28.3494C171.773 28.2301 171.284 28.0099 170.963 27.6889C170.642 27.365 170.483 26.9531 170.486 26.4531C170.483 26.0156 170.6 25.642 170.835 25.3323C171.071 25.0198 171.406 24.7812 171.841 24.6164C172.276 24.4516 172.788 24.3693 173.379 24.3693C174.266 24.3693 174.965 24.5553 175.476 24.9275C175.987 25.2968 176.27 25.8053 176.324 26.4531Z" fill="white"/>
</g>
<rect x="0.749756" y="0.749939" width="185.5" height="38.5" rx="5.25" stroke="white" stroke-opacity="0.15" stroke-width="1.5"/>
<defs>
<filter id="filter0_d_18_3415" x="5.24976" y="1.99994" width="37.75" height="36" filterUnits="userSpaceOnUse" color-interpolation-filters="sRGB">
<feFlood flood-opacity="0" result="BackgroundImageFix"/>
<feColorMatrix in="SourceAlpha" type="matrix" values="0 0 0 0 0 0 0 0 0 0 0 0 0 0 0 0 0 0 127 0" result="hardAlpha"/>
<feOffset/>
<feGaussianBlur stdDeviation="2"/>
<feComposite in2="hardAlpha" operator="out"/>
<feColorMatrix type="matrix" values="0 0 0 0 0 0 0 0 0 0 0 0 0 0 0 0 0 0 0.25 0"/>
<feBlend mode="normal" in2="BackgroundImageFix" result="effect1_dropShadow_18_3415"/>
<feBlend mode="normal" in="SourceGraphic" in2="effect1_dropShadow_18_3415" result="shape"/>
</filter>
<filter id="filter1_d_18_3415" x="41.9998" y="2.99994" width="139" height="34.4545" filterUnits="userSpaceOnUse" color-interpolation-filters="sRGB">
<feFlood flood-opacity="0" result="BackgroundImageFix"/>
<feColorMatrix in="SourceAlpha" type="matrix" values="0 0 0 0 0 0 0 0 0 0 0 0 0 0 0 0 0 0 127 0" result="hardAlpha"/>
<feOffset/>
<feGaussianBlur stdDeviation="2"/>
<feComposite in2="hardAlpha" operator="out"/>
<feColorMatrix type="matrix" values="0 0 0 0 0 0 0 0 0 0 0 0 0 0 0 0 0 0 0.25 0"/>
<feBlend mode="normal" in2="BackgroundImageFix" result="effect1_dropShadow_18_3415"/>
<feBlend mode="normal" in="SourceGraphic" in2="effect1_dropShadow_18_3415" result="shape"/>
</filter>
<linearGradient id="paint0_linear_18_3415" x1="93.4997" y1="-6.10351e-05" x2="93.4997" y2="38" gradientUnits="userSpaceOnUse">
<stop stop-color="#3E3E3E"/>
<stop offset="1" stop-color="#272727"/>
</linearGradient>
</defs>
</svg>
