<svg width="105" height="40" viewBox="0 0 105 40" fill="none" xmlns="http://www.w3.org/2000/svg">
<rect x="-0.000244141" y="-6.10352e-05" width="105" height="40" rx="6" fill="url(#paint0_linear_18_3401)"/>
<g filter="url(#filter0_d_18_3401)">
<path d="M14.2498 27.7499V25.4999H20.9998V27.7499H14.2498ZM11.9998 25.4999V14.2499H14.2498V25.4999H11.9998ZM20.9998 25.4999V14.2499H23.2498V25.4999H20.9998ZM14.2498 14.2499V11.9999H20.9998V14.2499H14.2498ZM25.4998 27.7499V11.9999H36.7498V14.2499H27.7498V16.4999H32.2498V18.7499H27.7498V27.7499H25.4998Z" fill="#E29F00"/>
</g>
<g filter="url(#filter1_d_18_3401)">
<path d="M46.8787 17.9999V9.99994H49.7302C50.35 9.99994 50.8643 10.1067 51.2732 10.3203C51.6847 10.5338 51.9919 10.8294 52.1951 11.207C52.3982 11.582 52.4998 12.0156 52.4998 12.5077C52.4998 12.9973 52.3969 13.4283 52.1912 13.8007C51.988 14.1705 51.6807 14.4583 51.2693 14.664C50.8604 14.8697 50.3461 14.9726 49.7263 14.9726H47.5662V13.9335H49.6169C50.0076 13.9335 50.3253 13.8775 50.5701 13.7656C50.8175 13.6536 50.9985 13.4908 51.113 13.2773C51.2276 13.0637 51.2849 12.8072 51.2849 12.5077C51.2849 12.2057 51.2263 11.9439 51.1091 11.7226C50.9945 11.5012 50.8136 11.332 50.5662 11.2148C50.3214 11.095 49.9998 11.0351 49.6013 11.0351H48.0857V17.9999H46.8787ZM50.8279 14.3906L52.8044 17.9999H51.4294L49.4919 14.3906H50.8279ZM56.3855 18.121C55.7943 18.121 55.2852 17.9947 54.8582 17.7421C54.4337 17.4869 54.1055 17.1288 53.8738 16.6679C53.6446 16.2044 53.53 15.6614 53.53 15.039C53.53 14.4244 53.6446 13.8827 53.8738 13.414C54.1055 12.9452 54.4285 12.5794 54.8425 12.3163C55.2592 12.0533 55.7462 11.9218 56.3035 11.9218C56.642 11.9218 56.9701 11.9778 57.2878 12.0898C57.6055 12.2018 57.8907 12.3775 58.1433 12.6171C58.3959 12.8567 58.5951 13.1679 58.741 13.5507C58.8868 13.9309 58.9597 14.3932 58.9597 14.9374V15.3515H54.1902V14.4765H57.8152C57.8152 14.1692 57.7527 13.8971 57.6277 13.6601C57.5027 13.4205 57.3269 13.2317 57.1003 13.0937C56.8764 12.9557 56.6134 12.8867 56.3113 12.8867C55.9832 12.8867 55.6967 12.9674 55.4519 13.1288C55.2097 13.2877 55.0222 13.496 54.8894 13.7538C54.7592 14.0091 54.6941 14.2864 54.6941 14.5859V15.2695C54.6941 15.6705 54.7644 16.0117 54.905 16.2929C55.0483 16.5742 55.2475 16.789 55.5027 16.9374C55.7579 17.0833 56.0561 17.1562 56.3972 17.1562C56.6186 17.1562 56.8204 17.1249 57.0027 17.0624C57.185 16.9973 57.3425 16.901 57.4753 16.7734C57.6082 16.6458 57.7097 16.4882 57.78 16.3007L58.8855 16.4999C58.797 16.8255 58.6381 17.1106 58.4089 17.3554C58.1824 17.5976 57.8972 17.7864 57.5535 17.9218C57.2123 18.0546 56.823 18.121 56.3855 18.121ZM64.3064 20.2499V17.0663H64.2361C64.1658 17.1939 64.0642 17.3398 63.9314 17.5038C63.8012 17.6679 63.6215 17.8111 63.3923 17.9335C63.1632 18.0559 62.8663 18.1171 62.5017 18.1171C62.0173 18.1171 61.585 17.9934 61.2048 17.746C60.8272 17.496 60.5304 17.1406 60.3142 16.6796C60.1007 16.2161 59.9939 15.6601 59.9939 15.0117C59.9939 14.3632 60.102 13.8085 60.3181 13.3476C60.5369 12.8867 60.8363 12.5338 61.2165 12.289C61.5968 12.0442 62.0277 11.9218 62.5095 11.9218C62.8819 11.9218 63.1814 11.9843 63.408 12.1093C63.6371 12.2317 63.8142 12.3749 63.9392 12.539C64.0668 12.7031 64.1658 12.8476 64.2361 12.9726H64.3337V11.9999H65.4744V20.2499H64.3064ZM62.7595 17.121C63.0955 17.121 63.3793 17.0325 63.6111 16.8554C63.8455 16.6757 64.0225 16.427 64.1423 16.1093C64.2647 15.7916 64.3259 15.4218 64.3259 14.9999C64.3259 14.5833 64.266 14.2187 64.1462 13.9062C64.0264 13.5937 63.8507 13.3502 63.6189 13.1757C63.3871 13.0012 63.1007 12.914 62.7595 12.914C62.408 12.914 62.115 13.0051 61.8806 13.1874C61.6462 13.3697 61.4692 13.6184 61.3494 13.9335C61.2322 14.2486 61.1736 14.6041 61.1736 14.9999C61.1736 15.401 61.2335 15.7617 61.3533 16.082C61.4731 16.4023 61.6501 16.6562 61.8845 16.8437C62.1215 17.0286 62.4132 17.121 62.7595 17.121ZM70.8455 15.5117V11.9999H72.0173V17.9999H70.8689V16.9609H70.8064C70.6684 17.2812 70.447 17.5481 70.1423 17.7617C69.8402 17.9726 69.4639 18.0781 69.0134 18.0781C68.628 18.0781 68.2869 17.9934 67.99 17.8242C67.6957 17.6523 67.4639 17.3984 67.2947 17.0624C67.128 16.7265 67.0447 16.3111 67.0447 15.8163V11.9999H68.2126V15.6757C68.2126 16.0846 68.3259 16.4101 68.5525 16.6523C68.779 16.8945 69.0733 17.0156 69.4353 17.0156C69.654 17.0156 69.8715 16.9609 70.0876 16.8515C70.3064 16.7421 70.4874 16.5768 70.6306 16.3554C70.7764 16.1341 70.8481 15.8528 70.8455 15.5117ZM73.5867 17.9999V11.9999H74.7546V17.9999H73.5867ZM74.1765 11.0742C73.9734 11.0742 73.7989 11.0064 73.6531 10.871C73.5098 10.733 73.4382 10.5689 73.4382 10.3788C73.4382 10.1861 73.5098 10.0221 73.6531 9.88666C73.7989 9.74864 73.9734 9.67963 74.1765 9.67963C74.3796 9.67963 74.5528 9.74864 74.696 9.88666C74.8419 10.0221 74.9148 10.1861 74.9148 10.3788C74.9148 10.5689 74.8419 10.733 74.696 10.871C74.5528 11.0064 74.3796 11.0742 74.1765 11.0742ZM76.3259 17.9999V11.9999H77.4548V12.9531H77.5173C77.6267 12.6301 77.8194 12.3762 78.0954 12.1913C78.3741 12.0038 78.6892 11.9101 79.0408 11.9101C79.1137 11.9101 79.1996 11.9127 79.2986 11.9179C79.4001 11.9231 79.4796 11.9296 79.5369 11.9374V13.0546C79.49 13.0416 79.4066 13.0273 79.2869 13.0117C79.1671 12.9934 79.0473 12.9843 78.9275 12.9843C78.6514 12.9843 78.4053 13.0429 78.1892 13.1601C77.9757 13.2747 77.8064 13.4348 77.6814 13.6406C77.5564 13.8437 77.4939 14.0755 77.4939 14.3359V17.9999H76.3259ZM82.9187 18.121C82.3275 18.121 81.8184 17.9947 81.3913 17.7421C80.9669 17.4869 80.6387 17.1288 80.407 16.6679C80.1778 16.2044 80.0632 15.6614 80.0632 15.039C80.0632 14.4244 80.1778 13.8827 80.407 13.414C80.6387 12.9452 80.9617 12.5794 81.3757 12.3163C81.7924 12.0533 82.2794 11.9218 82.8367 11.9218C83.1752 11.9218 83.5033 11.9778 83.821 12.0898C84.1387 12.2018 84.4239 12.3775 84.6765 12.6171C84.9291 12.8567 85.1283 13.1679 85.2742 13.5507C85.42 13.9309 85.4929 14.3932 85.4929 14.9374V15.3515H80.7234V14.4765H84.3484C84.3484 14.1692 84.2859 13.8971 84.1609 13.6601C84.0359 13.4205 83.8601 13.2317 83.6335 13.0937C83.4096 12.9557 83.1466 12.8867 82.8445 12.8867C82.5163 12.8867 82.2299 12.9674 81.9851 13.1288C81.7429 13.2877 81.5554 13.496 81.4226 13.7538C81.2924 14.0091 81.2273 14.2864 81.2273 14.5859V15.2695C81.2273 15.6705 81.2976 16.0117 81.4382 16.2929C81.5815 16.5742 81.7807 16.789 82.0359 16.9374C82.2911 17.0833 82.5893 17.1562 82.9304 17.1562C83.1518 17.1562 83.3536 17.1249 83.5359 17.0624C83.7182 16.9973 83.8757 16.901 84.0085 16.7734C84.1413 16.6458 84.2429 16.4882 84.3132 16.3007L85.4187 16.4999C85.3301 16.8255 85.1713 17.1106 84.9421 17.3554C84.7156 17.5976 84.4304 17.7864 84.0867 17.9218C83.7455 18.0546 83.3562 18.121 82.9187 18.121ZM91.2849 13.4648L90.2263 13.6523C90.182 13.5169 90.1117 13.388 90.0154 13.2656C89.9216 13.1432 89.794 13.0429 89.6326 12.9648C89.4711 12.8867 89.2693 12.8476 89.0271 12.8476C88.6964 12.8476 88.4203 12.9218 88.199 13.0702C87.9776 13.2161 87.8669 13.4049 87.8669 13.6367C87.8669 13.8372 87.9411 13.9986 88.0896 14.121C88.238 14.2434 88.4776 14.3437 88.8083 14.4218L89.7615 14.6406C90.3135 14.7682 90.725 14.9648 90.9958 15.2304C91.2667 15.496 91.4021 15.8411 91.4021 16.2656C91.4021 16.6249 91.2979 16.9452 91.0896 17.2265C90.8839 17.5051 90.5961 17.7239 90.2263 17.8827C89.8591 18.0416 89.4333 18.121 88.949 18.121C88.2771 18.121 87.7289 17.9778 87.3044 17.6913C86.88 17.4023 86.6195 16.9921 86.5232 16.4609L87.6521 16.289C87.7224 16.5833 87.8669 16.8059 88.0857 16.957C88.3044 17.1054 88.5896 17.1796 88.9411 17.1796C89.324 17.1796 89.63 17.1002 89.8591 16.9413C90.0883 16.7799 90.2029 16.5833 90.2029 16.3515C90.2029 16.164 90.1326 16.0064 89.9919 15.8788C89.8539 15.7512 89.6417 15.6549 89.3552 15.5898L88.3396 15.3671C87.7797 15.2395 87.3656 15.0364 87.0974 14.7577C86.8318 14.4791 86.699 14.1262 86.699 13.6992C86.699 13.345 86.7979 13.0351 86.9958 12.7695C87.1938 12.5038 87.4672 12.2968 87.8161 12.1484C88.1651 11.9973 88.5648 11.9218 89.0154 11.9218C89.6638 11.9218 90.1742 12.0624 90.5466 12.3437C90.919 12.6223 91.1651 12.996 91.2849 13.4648Z" fill="#E8E8E8"/>
<path d="M54.8975 26.6363C54.8975 27.5965 54.7128 28.4104 54.3435 29.0781C53.9742 29.7457 53.4742 30.2528 52.8435 30.5994C52.2157 30.946 51.5111 31.1193 50.7299 31.1193C49.9458 31.1193 49.2398 30.9445 48.612 30.5951C47.9841 30.2457 47.4856 29.7386 47.1162 29.0738C46.7498 28.4062 46.5665 27.5937 46.5665 26.6363C46.5665 25.6761 46.7498 24.8622 47.1162 24.1945C47.4856 23.5269 47.9841 23.0198 48.612 22.6732C49.2398 22.3266 49.9458 22.1533 50.7299 22.1533C51.5111 22.1533 52.2157 22.3266 52.8435 22.6732C53.4742 23.0198 53.9742 23.5269 54.3435 24.1945C54.7128 24.8622 54.8975 25.6761 54.8975 26.6363ZM52.7412 26.6363C52.7412 26.0681 52.6603 25.588 52.4983 25.196C52.3392 24.8039 52.1091 24.507 51.808 24.3053C51.5097 24.1036 51.1503 24.0028 50.7299 24.0028C50.3123 24.0028 49.9529 24.1036 49.6517 24.3053C49.3506 24.507 49.1191 24.8039 48.9571 25.196C48.7981 25.588 48.7185 26.0681 48.7185 26.6363C48.7185 27.2045 48.7981 27.6846 48.9571 28.0766C49.1191 28.4687 49.3506 28.7656 49.6517 28.9673C49.9529 29.169 50.3123 29.2698 50.7299 29.2698C51.1503 29.2698 51.5097 29.169 51.808 28.9673C52.1091 28.7656 52.3392 28.4687 52.4983 28.0766C52.6603 27.6846 52.7412 27.2045 52.7412 26.6363ZM56.129 33.4545V24.4545H58.1915V25.5752H58.2554C58.3407 25.3764 58.4614 25.1846 58.6177 24.9999C58.7767 24.8153 58.9784 24.6647 59.2228 24.5482C59.4699 24.4289 59.7654 24.3693 60.1091 24.3693C60.5637 24.3693 60.9884 24.4886 61.3833 24.7272C61.781 24.9658 62.102 25.3337 62.3463 25.8309C62.5907 26.3281 62.7128 26.9616 62.7128 27.7315C62.7128 28.4729 62.5949 29.0937 62.3591 29.5937C62.1262 30.0937 61.8108 30.4687 61.4131 30.7187C61.0182 30.9687 60.5793 31.0937 60.0963 31.0937C59.7668 31.0937 59.4813 31.0397 59.2398 30.9318C58.9983 30.8238 58.7952 30.6818 58.6304 30.5056C58.4685 30.3295 58.3435 30.1406 58.2554 29.9389H58.2128V33.4545H56.129ZM58.1702 27.7272C58.1702 28.0795 58.2171 28.3863 58.3108 28.6477C58.4074 28.909 58.5452 29.1122 58.7242 29.257C58.906 29.3991 59.1233 29.4701 59.3762 29.4701C59.6319 29.4701 59.8492 29.3991 60.0282 29.257C60.2071 29.1122 60.3421 28.909 60.433 28.6477C60.5267 28.3863 60.5736 28.0795 60.5736 27.7272C60.5736 27.3749 60.5267 27.0695 60.433 26.811C60.3421 26.5525 60.2071 26.3522 60.0282 26.2102C59.852 26.0681 59.6347 25.9971 59.3762 25.9971C59.1205 25.9971 58.9032 26.0667 58.7242 26.2059C58.5452 26.3451 58.4074 26.544 58.3108 26.8025C58.2171 27.061 58.1702 27.3693 58.1702 27.7272ZM67.4994 24.4545V25.9886H63.3701V24.4545H67.4994ZM64.2352 22.8863H66.319V28.9417C66.319 29.0695 66.3389 29.1732 66.3787 29.2528C66.4213 29.3295 66.4823 29.3849 66.5619 29.419C66.6414 29.4502 66.7366 29.4658 66.8474 29.4658C66.927 29.4658 67.0108 29.4587 67.0988 29.4445C67.1897 29.4275 67.2579 29.4133 67.3034 29.4019L67.6187 30.9062C67.5193 30.9346 67.3787 30.9701 67.1968 31.0127C67.0179 31.0553 66.8034 31.0823 66.5534 31.0937C66.0647 31.1164 65.6457 31.0596 65.2963 30.9232C64.9497 30.784 64.6841 30.5681 64.4994 30.2755C64.3176 29.9829 64.2295 29.615 64.2352 29.1718V22.8863ZM68.5626 30.9999V24.4545H70.6464V30.9999H68.5626ZM69.6066 23.6917C69.314 23.6917 69.0626 23.5951 68.8524 23.4019C68.6421 23.2059 68.537 22.9701 68.537 22.6945C68.537 22.4218 68.6421 22.1889 68.8524 21.9957C69.0626 21.7997 69.314 21.7016 69.6066 21.7016C69.9021 21.7016 70.1535 21.7997 70.3609 21.9957C70.5711 22.1889 70.6762 22.4218 70.6762 22.6945C70.6762 22.9701 70.5711 23.2059 70.3609 23.4019C70.1535 23.5951 69.9021 23.6917 69.6066 23.6917ZM75.6929 24.4545V25.9886H71.4827V24.4545H75.6929ZM72.3605 30.9999V24.1221C72.3605 23.6164 72.4557 23.1974 72.6461 22.865C72.8364 22.5298 73.1006 22.2798 73.4387 22.115C73.7767 21.9474 74.1674 21.8636 74.6105 21.8636C74.9003 21.8636 75.173 21.8863 75.4287 21.9318C75.6872 21.9744 75.879 22.0127 76.004 22.0468L75.6716 23.5724C75.5949 23.5468 75.5012 23.5255 75.3904 23.5085C75.2824 23.4914 75.1801 23.4829 75.0836 23.4829C74.8392 23.4829 74.6716 23.5369 74.5807 23.6448C74.4898 23.7528 74.4443 23.9005 74.4443 24.088V30.9999H72.3605ZM76.6954 30.9999V24.4545H78.7792V30.9999H76.6954ZM77.7394 23.6917C77.4468 23.6917 77.1954 23.5951 76.9852 23.4019C76.775 23.2059 76.6698 22.9701 76.6698 22.6945C76.6698 22.4218 76.775 22.1889 76.9852 21.9957C77.1954 21.7997 77.4468 21.7016 77.7394 21.7016C78.0349 21.7016 78.2863 21.7997 78.4937 21.9957C78.7039 22.1889 78.8091 22.4218 78.8091 22.6945C78.8091 22.9701 78.7039 23.2059 78.4937 23.4019C78.2863 23.5951 78.0349 23.6917 77.7394 23.6917ZM82.1894 27.267V30.9999H80.1056V24.4545H82.0871V25.6562H82.1595C82.3044 25.2556 82.5516 24.9417 82.901 24.7144C83.2505 24.4843 83.6666 24.3693 84.1496 24.3693C84.6098 24.3693 85.009 24.4729 85.347 24.6803C85.688 24.8849 85.9522 25.1718 86.1397 25.5411C86.33 25.9076 86.4237 26.3366 86.4209 26.8281V30.9999H84.3371V27.2372C84.3399 26.8735 84.2476 26.5894 84.0601 26.3849C83.8755 26.1803 83.6184 26.0781 83.2888 26.0781C83.0701 26.0781 82.8769 26.1264 82.7093 26.2229C82.5445 26.3167 82.4166 26.4516 82.3257 26.6278C82.2377 26.8039 82.1922 27.017 82.1894 27.267ZM90.7707 31.1235C90.086 31.1235 89.4951 30.9886 88.998 30.7187C88.5036 30.446 88.123 30.0582 87.8559 29.5553C87.5917 29.0497 87.4596 28.4488 87.4596 27.7528C87.4596 27.0766 87.5931 26.4857 87.8602 25.9801C88.1272 25.4715 88.5036 25.0766 88.9894 24.7954C89.4752 24.5113 90.0477 24.3693 90.7068 24.3693C91.1727 24.3693 91.5988 24.4417 91.9852 24.5866C92.3715 24.7315 92.7054 24.946 92.9866 25.2301C93.2679 25.5141 93.4866 25.865 93.6429 26.2826C93.7991 26.6974 93.8772 27.1732 93.8772 27.7102V28.2301H88.1883V27.0198H91.9383C91.9355 26.7982 91.8829 26.6008 91.7806 26.4275C91.6784 26.2542 91.5377 26.1193 91.3588 26.0227C91.1826 25.9232 90.9795 25.8735 90.7494 25.8735C90.5164 25.8735 90.3076 25.9261 90.123 26.0312C89.9383 26.1335 89.792 26.2741 89.684 26.4531C89.5761 26.6292 89.5193 26.8295 89.5136 27.0539V28.2854C89.5136 28.5525 89.5661 28.7869 89.6713 28.9886C89.7764 29.1874 89.9255 29.3423 90.1187 29.4531C90.3119 29.5639 90.542 29.6193 90.809 29.6193C90.9937 29.6193 91.1613 29.5937 91.3119 29.5425C91.4625 29.4914 91.5917 29.4161 91.6997 29.3167C91.8076 29.2173 91.8886 29.0951 91.9426 28.9502L93.8559 29.0056C93.7764 29.4346 93.6017 29.8082 93.3318 30.1264C93.0647 30.4417 92.7139 30.6874 92.2792 30.8636C91.8446 31.0369 91.3417 31.1235 90.7707 31.1235Z" fill="#E29F00"/>
</g>
<rect x="0.749756" y="0.749939" width="103.5" height="38.5" rx="5.25" stroke="white" stroke-opacity="0.15" stroke-width="1.5"/>
<defs>
<filter id="filter0_d_18_3401" x="5.99976" y="1.99994" width="36" height="36" filterUnits="userSpaceOnUse" color-interpolation-filters="sRGB">
<feFlood flood-opacity="0" result="BackgroundImageFix"/>
<feColorMatrix in="SourceAlpha" type="matrix" values="0 0 0 0 0 0 0 0 0 0 0 0 0 0 0 0 0 0 127 0" result="hardAlpha"/>
<feOffset/>
<feGaussianBlur stdDeviation="2"/>
<feComposite in2="hardAlpha" operator="out"/>
<feColorMatrix type="matrix" values="0 0 0 0 0 0 0 0 0 0 0 0 0 0 0 0 0 0 0.25 0"/>
<feBlend mode="normal" in2="BackgroundImageFix" result="effect1_dropShadow_18_3401"/>
<feBlend mode="normal" in="SourceGraphic" in2="effect1_dropShadow_18_3401" result="shape"/>
</filter>
<filter id="filter1_d_18_3401" x="41.9998" y="2.99994" width="57" height="34.4545" filterUnits="userSpaceOnUse" color-interpolation-filters="sRGB">
<feFlood flood-opacity="0" result="BackgroundImageFix"/>
<feColorMatrix in="SourceAlpha" type="matrix" values="0 0 0 0 0 0 0 0 0 0 0 0 0 0 0 0 0 0 127 0" result="hardAlpha"/>
<feOffset/>
<feGaussianBlur stdDeviation="2"/>
<feComposite in2="hardAlpha" operator="out"/>
<feColorMatrix type="matrix" values="0 0 0 0 0 0 0 0 0 0 0 0 0 0 0 0 0 0 0.25 0"/>
<feBlend mode="normal" in2="BackgroundImageFix" result="effect1_dropShadow_18_3401"/>
<feBlend mode="normal" in="SourceGraphic" in2="effect1_dropShadow_18_3401" result="shape"/>
</filter>
<linearGradient id="paint0_linear_18_3401" x1="52.4997" y1="-6.10351e-05" x2="52.4998" y2="38" gradientUnits="userSpaceOnUse">
<stop stop-color="#551C1C"/>
<stop offset="1" stop-color="#391112"/>
</linearGradient>
</defs>
</svg>
