<svg width="41" height="40" viewBox="0 0 41 40" fill="none" xmlns="http://www.w3.org/2000/svg">
<g clip-path="url(#clip0_2_2938)">
<rect x="0.0107422" y="-6.10352e-05" width="40" height="40" rx="8" fill="url(#paint0_linear_2_2938)"/>
<g filter="url(#filter0_d_2_2938)">
<path d="M13.3768 6V8.28846H9.17887V10.3077H7.01221V12.5962H9.17887V14.6154H11.3455V16.7692H15.6789V18.9231H24.3455V16.7692H28.6789V14.6154H30.7101V21.2115H28.6789V27.5385H26.3768V31.8462H13.3768V34H26.3768V31.8462H28.6789V27.5385H30.7101V21.2115H33.0122V10.3077H30.7101V12.5962H28.6789V14.6154H24.3455V16.7692H15.6789V14.6154H11.3455V12.5962H9.17887V10.3077H13.3768V8.28846H20.0122V6H13.3768Z" fill="#353535"/>
<path d="M20.0117 6V8.28846H26.3763V10.3077H30.7096V8.28846H26.3763V6H20.0117Z" fill="#515151"/>
<path d="M13.3765 8.28845V10.3077H15.6785V8.28845H13.3765Z" fill="#A37B63"/>
<path d="M15.6782 8.28845V10.3077H17.8449V8.28845H15.6782Z" fill="#AB826B"/>
<path d="M17.8457 8.28845V10.3077H22.0436V8.28845H17.8457Z" fill="#ABA26B"/>
<path d="M22.043 8.28845V10.3077H24.3451V8.28845H22.043Z" fill="#AB826B"/>
<path d="M24.3452 8.28845V10.3077H26.3765V12.5961H28.6785V10.3077H26.3765V8.28845H24.3452Z" fill="#BF967E"/>
<path d="M9.17871 10.3077V12.5962H11.3454V10.3077H9.17871Z" fill="#958C55"/>
<path d="M11.3452 10.3077V12.5962H13.3765V10.3077H11.3452Z" fill="#956C55"/>
<path d="M13.3765 10.3077V12.5962H15.6785V10.3077H13.3765Z" fill="#C33E1F"/>
<path d="M15.6782 10.3077V12.5962H17.8449V14.6154H20.0116V16.7693H24.3449V14.6154H20.0116V12.5962H17.8449V10.3077H15.6782Z" fill="#E38C3F"/>
<path d="M17.8457 10.3077V12.5962H20.0124V14.6154H24.3457V12.5962H22.0436V10.3077H17.8457Z" fill="#E4D25C"/>
<path d="M22.043 10.3077V12.5962H24.3451V10.3077H22.043Z" fill="#E38C3F"/>
<path d="M24.3452 10.3077V12.5962H26.3765V14.6154H28.6785V12.5962H26.3765V10.3077H24.3452Z" fill="#CC4628"/>
<path d="M28.6787 10.3077V12.5962H30.71V10.3077H28.6787Z" fill="#BFB67E"/>
<path d="M7.01221 12.5962V21.2115H9.17887V27.5385H11.3455V31.8462H13.3768V27.5385H11.3455V21.2115H9.17887V12.5962H7.01221Z" fill="#515151"/>
<path d="M11.3452 12.5962V14.6154H13.3765V12.5962H11.3452Z" fill="#DC8638"/>
<path d="M13.3765 12.5962V14.6154H15.6785V16.7693H17.8452V12.5962H13.3765Z" fill="#E2CF5A"/>
<path d="M24.3452 12.5962V14.6154H26.3765V12.5962H24.3452Z" fill="#EA9346"/>
<path d="M9.17871 14.6154V16.7692H11.3454V18.923H15.6787V16.7692H11.3454V14.6154H9.17871Z" fill="#E7E7E7"/>
<path d="M17.8457 14.6154V16.7692H20.0124V14.6154H17.8457Z" fill="#C54021"/>
<path d="M28.6787 14.6154V16.7692H30.71V14.6154H28.6787Z" fill="#A9A9A9"/>
<path d="M9.17871 16.7693V21.2116H11.3454V27.5385H13.3766V29.8269H15.6787V31.8462H20.012V23.2308H17.8454V21.2116H15.6787V23.2308H13.3766V18.9231H11.3454V16.7693H9.17871Z" fill="#D8D8D8"/>
<path d="M24.3452 16.7693V18.9231H26.3765V16.7693H24.3452Z" fill="#EAD762"/>
<path d="M26.3765 16.7693V18.9231H28.6785V16.7693H26.3765Z" fill="#CB4627"/>
<path d="M28.6785 16.7693V21.2116H26.3765V27.5385H28.6785V21.2116H30.7098V16.7693H28.6785Z" fill="#727272"/>
<path d="M13.3765 18.9231V23.2308H15.6785V18.9231H13.3765Z" fill="white"/>
<path d="M15.6782 18.9231V21.2116H17.8449V18.9231H15.6782Z" fill="#D85334"/>
<path d="M17.8457 18.9231V21.2116H24.3457V18.9231H17.8457Z" fill="#CACACA"/>
<path d="M24.3452 18.9231V21.2116H26.3765V18.9231H24.3452Z" fill="#E99245"/>
<path d="M26.3765 18.9231V21.2116H28.6785V18.9231H26.3765Z" fill="#969696"/>
<path d="M17.8457 21.2115V23.2308H20.0124V29.8269H22.0436V23.2308H24.3457V21.2115H17.8457Z" fill="#A8A8A8"/>
<path d="M24.3452 21.2115V23.2308H26.3765V21.2115H24.3452Z" fill="#CB4627"/>
<path d="M15.6782 23.2307V27.5384H17.8449V23.2307H15.6782Z" fill="white"/>
<path d="M22.043 23.2307V29.8269H20.0117V31.8461H26.3763V27.5384H24.3451V25.5192H26.3763V23.2307H22.043Z" fill="#969696"/>
<path d="M24.3452 25.5193V27.5385H26.3765V25.5193H24.3452Z" fill="#CB4627"/>
<path d="M13.3765 29.8269V31.8461H15.6785V29.8269H13.3765Z" fill="#969696"/>
<g opacity="0.7">
<mask id="path-40-outside-1_2_2938" maskUnits="userSpaceOnUse" x="16.0117" y="16.0002" width="20" height="20" fill="black">
<rect fill="white" x="16.0117" y="16.0002" width="20" height="20"/>
<path fill-rule="evenodd" clip-rule="evenodd" d="M19.9824 18.1466C19.7871 17.9513 19.4706 17.9513 19.2754 18.1466L18.1591 19.2632C17.9638 19.4585 17.9638 19.7751 18.1591 19.9704L24.188 26.0009L18.1582 32.0297C17.9629 32.2249 17.9629 32.5415 18.1582 32.7367L19.2747 33.8531C19.47 34.0483 19.7866 34.0483 19.9819 33.8531L26.0113 27.8247L32.0384 33.8534C32.2336 34.0486 32.5502 34.0486 32.7454 33.8534L33.8617 32.7368C34.0569 32.5415 34.0569 32.2249 33.8617 32.0296L27.835 26.0013L33.8642 19.9731C34.0595 19.7778 34.0595 19.4613 33.8642 19.266L32.7477 18.1497C32.5524 17.9545 32.2358 17.9545 32.0405 18.1497L26.0117 24.1775L19.9824 18.1466Z"/>
</mask>
<path fill-rule="evenodd" clip-rule="evenodd" d="M19.9824 18.1466C19.7871 17.9513 19.4706 17.9513 19.2754 18.1466L18.1591 19.2632C17.9638 19.4585 17.9638 19.7751 18.1591 19.9704L24.188 26.0009L18.1582 32.0297C17.9629 32.2249 17.9629 32.5415 18.1582 32.7367L19.2747 33.8531C19.47 34.0483 19.7866 34.0483 19.9819 33.8531L26.0113 27.8247L32.0384 33.8534C32.2336 34.0486 32.5502 34.0486 32.7454 33.8534L33.8617 32.7368C34.0569 32.5415 34.0569 32.2249 33.8617 32.0296L27.835 26.0013L33.8642 19.9731C34.0595 19.7778 34.0595 19.4613 33.8642 19.266L32.7477 18.1497C32.5524 17.9545 32.2358 17.9545 32.0405 18.1497L26.0117 24.1775L19.9824 18.1466Z" fill="url(#paint1_linear_2_2938)"/>
<path d="M19.2754 18.1466L18.2146 17.0861L19.2754 18.1466ZM19.9824 18.1466L21.0432 17.0861L19.9824 18.1466ZM18.1591 19.2632L17.0983 18.2027L17.0983 18.2027L18.1591 19.2632ZM18.1591 19.9704L17.0983 21.0309H17.0983L18.1591 19.9704ZM24.188 26.0009L25.2486 27.0616L26.3093 26.0011L25.2488 24.9404L24.188 26.0009ZM18.1582 32.0297L17.0976 30.9689H17.0976L18.1582 32.0297ZM18.1582 32.7367L17.0976 33.7975L17.0976 33.7975L18.1582 32.7367ZM19.2747 33.8531L20.3353 32.7923H20.3353L19.2747 33.8531ZM19.9819 33.8531L18.9213 32.7923H18.9213L19.9819 33.8531ZM26.0113 27.8247L27.0721 26.7641L26.0115 25.7033L24.9507 26.7639L26.0113 27.8247ZM32.0384 33.8534L30.9776 34.9139L32.0384 33.8534ZM32.7454 33.8534L31.6846 32.7928L31.6846 32.7928L32.7454 33.8534ZM33.8617 32.7368L34.9225 33.7973L34.9225 33.7973L33.8617 32.7368ZM33.8617 32.0296L32.8009 33.0901L33.8617 32.0296ZM27.835 26.0013L26.7744 24.9405L25.7137 26.0011L26.7742 27.0618L27.835 26.0013ZM33.8642 19.9731L32.8036 18.9123L32.8036 18.9123L33.8642 19.9731ZM33.8642 19.266L34.9247 18.2053L34.9247 18.2053L33.8642 19.266ZM32.7477 18.1497L33.8082 17.089L33.8082 17.089L32.7477 18.1497ZM32.0405 18.1497L30.9799 17.089L30.9799 17.089L32.0405 18.1497ZM26.0117 24.1775L24.9509 25.238L26.0114 26.2989L27.0722 25.2383L26.0117 24.1775ZM20.3362 19.2071C19.9456 19.5978 19.3122 19.5978 18.9216 19.2071L21.0432 17.0861C20.2621 16.3048 18.9956 16.3048 18.2146 17.0861L20.3362 19.2071ZM19.2199 20.3237L20.3362 19.2071L18.2146 17.0861L17.0983 18.2027L19.2199 20.3237ZM19.2199 18.9099C19.6102 19.3003 19.6102 19.9332 19.2199 20.3237L17.0983 18.2027C16.3174 18.9837 16.3174 20.2499 17.0983 21.0309L19.2199 18.9099ZM25.2488 24.9404L19.2199 18.9099L17.0983 21.0309L23.1272 27.0614L25.2488 24.9404ZM19.2187 33.0904L25.2486 27.0616L23.1274 24.9401L17.0976 30.9689L19.2187 33.0904ZM19.2187 31.676C19.6094 32.0665 19.6094 32.6999 19.2187 33.0904L17.0976 30.9689C16.3164 31.75 16.3164 33.0164 17.0976 33.7975L19.2187 31.676ZM20.3353 32.7923L19.2187 31.676L17.0976 33.7975L18.2141 34.9138L20.3353 32.7923ZM18.9213 32.7923C19.3118 32.4019 19.9448 32.4019 20.3353 32.7923L18.2141 34.9138C18.9952 35.6947 20.2614 35.6947 21.0424 34.9138L18.9213 32.7923ZM24.9507 26.7639L18.9213 32.7923L21.0424 34.9138L27.0718 28.8854L24.9507 26.7639ZM33.0992 32.7928L27.0721 26.7641L24.9505 28.8852L30.9776 34.9139L33.0992 32.7928ZM31.6846 32.7928C32.0752 32.4021 32.7086 32.4022 33.0992 32.7928L30.9776 34.9139C31.7586 35.6951 33.0251 35.6951 33.8062 34.9139L31.6846 32.7928ZM32.8009 31.6763L31.6846 32.7928L33.8062 34.9139L34.9225 33.7973L32.8009 31.6763ZM32.8009 33.0901C32.4105 32.6996 32.4105 32.0667 32.8009 31.6763L34.9225 33.7973C35.7033 33.0163 35.7033 31.7501 34.9225 30.9691L32.8009 33.0901ZM26.7742 27.0618L32.8009 33.0901L34.9225 30.9691L28.8958 24.9408L26.7742 27.0618ZM32.8036 18.9123L26.7744 24.9405L28.8955 27.062L34.9247 21.0338L32.8036 18.9123ZM32.8036 20.3268C32.413 19.9362 32.413 19.3029 32.8036 18.9123L34.9247 21.0338C35.7059 20.2528 35.7059 18.9863 34.9247 18.2053L32.8036 20.3268ZM31.6871 19.2105L32.8036 20.3268L34.9247 18.2053L33.8082 17.089L31.6871 19.2105ZM33.1011 19.2105C32.7106 19.6009 32.0776 19.6009 31.6871 19.2105L33.8082 17.089C33.0272 16.3081 31.761 16.308 30.9799 17.089L33.1011 19.2105ZM27.0722 25.2383L33.1011 19.2105L30.9799 17.089L24.9511 23.1168L27.0722 25.2383ZM18.9216 19.2071L24.9509 25.238L27.0725 23.117L21.0432 17.0861L18.9216 19.2071Z" fill="black" mask="url(#path-40-outside-1_2_2938)"/>
</g>
</g>
</g>
<rect x="1.06074" y="1.04994" width="37.9" height="37.9" rx="6.95" stroke="white" stroke-opacity="0.15" stroke-width="2.1"/>
<defs>
<filter id="filter0_d_2_2938" x="2.01074" y="1.99994" width="37.5" height="37.4999" filterUnits="userSpaceOnUse" color-interpolation-filters="sRGB">
<feFlood flood-opacity="0" result="BackgroundImageFix"/>
<feColorMatrix in="SourceAlpha" type="matrix" values="0 0 0 0 0 0 0 0 0 0 0 0 0 0 0 0 0 0 127 0" result="hardAlpha"/>
<feOffset/>
<feGaussianBlur stdDeviation="2"/>
<feComposite in2="hardAlpha" operator="out"/>
<feColorMatrix type="matrix" values="0 0 0 0 0 0 0 0 0 0 0 0 0 0 0 0 0 0 0.25 0"/>
<feBlend mode="normal" in2="BackgroundImageFix" result="effect1_dropShadow_2_2938"/>
<feBlend mode="normal" in="SourceGraphic" in2="effect1_dropShadow_2_2938" result="shape"/>
</filter>
<linearGradient id="paint0_linear_2_2938" x1="20.0107" y1="-6.10351e-05" x2="20.0107" y2="39.9999" gradientUnits="userSpaceOnUse">
<stop stop-color="#2C1B1B"/>
<stop offset="1" stop-color="#1F1414"/>
</linearGradient>
<linearGradient id="paint1_linear_2_2938" x1="26.0112" y1="18.0002" x2="26.0112" y2="33.9998" gradientUnits="userSpaceOnUse">
<stop stop-color="#FF0000"/>
<stop offset="1" stop-color="#CC0000"/>
</linearGradient>
<clipPath id="clip0_2_2938">
<rect x="0.0107422" y="-6.10352e-05" width="40" height="40" rx="8" fill="white"/>
</clipPath>
</defs>
</svg>
