<svg width="41" height="40" viewBox="0 0 41 40" fill="none" xmlns="http://www.w3.org/2000/svg">
<g clip-path="url(#clip0_2_3029)">
<rect x="0.0107422" y="-6.10352e-05" width="40" height="40" rx="8" fill="url(#paint0_linear_2_3029)"/>
<g filter="url(#filter0_d_2_3029)">
<path fill-rule="evenodd" clip-rule="evenodd" d="M26.8064 18.0545C26.9651 18.3023 27.1236 18.5498 27.3053 18.7799C27.3435 18.6892 27.3868 18.5972 27.4307 18.504C27.5425 18.2665 27.6577 18.0216 27.702 17.773C27.7345 17.5904 27.6949 17.4115 27.6552 17.232C27.6234 17.0883 27.5914 16.9442 27.5965 16.7976C27.6116 16.361 27.7964 15.9082 27.9652 15.4947C27.9894 15.4351 28.0134 15.3764 28.0365 15.3187C28.1209 15.1073 28.247 14.895 28.4449 14.7715C28.502 14.7359 28.5678 14.7115 28.6339 14.6871C28.7305 14.6512 28.8275 14.6153 28.8977 14.5439C29.1121 14.3256 29.2672 13.7301 29.2926 13.4308C29.337 12.9081 29.1344 12.3417 28.9407 11.8001C28.847 11.5382 28.7553 11.282 28.6947 11.0394C28.3469 9.64705 28.8235 7.98634 30.1519 7.28924C31.141 6.77023 32.52 6.95516 33.2718 7.7989C33.8012 8.393 34.0107 9.12806 34.0107 9.90667C34.0107 10.432 33.9817 11.3365 33.5267 11.7014C33.2427 11.9293 32.6703 11.912 32.4812 11.5733C32.3117 11.2696 32.3966 10.9422 32.4823 10.612C32.5491 10.3544 32.6164 10.095 32.5638 9.84374C32.4542 9.32022 31.9185 8.6394 31.3222 8.72058C30.8492 8.78499 30.4799 9.23913 30.3177 9.65495C30.1399 10.1109 30.294 10.59 30.4399 11.0436C30.4667 11.1271 30.4933 11.2097 30.5175 11.2911L30.523 11.3097C30.77 12.1422 31.0044 12.9319 30.9036 13.8084C30.8788 14.0243 30.8011 14.2328 30.7238 14.4401C30.6424 14.6584 30.5616 14.8753 30.5433 15.0985C30.5331 15.223 30.581 15.3463 30.6294 15.4709C30.6703 15.5762 30.7115 15.6824 30.7181 15.7907C30.7552 16.3992 30.5405 17.0081 30.2797 17.5527C30.1616 17.7993 29.9766 17.9525 29.7893 18.1077C29.6499 18.2232 29.5091 18.3398 29.3938 18.4967C29.1781 18.7903 29.0431 19.1536 28.9107 19.5101C28.8434 19.6914 28.7767 19.8709 28.7004 20.0385C28.6495 20.1504 28.5872 20.2631 28.5243 20.377C28.4043 20.594 28.2818 20.8156 28.2303 21.0454C28.1904 21.2233 28.2509 21.4452 28.3065 21.649C28.3301 21.7359 28.3529 21.8195 28.3666 21.895C28.4675 22.4488 28.5562 23.0308 28.5696 23.5941C28.6293 26.1148 28.0084 28.6896 26.2824 30.6109C25.7469 31.207 25.1163 31.7289 24.427 32.14C21.8648 33.668 18.657 33.0027 16.3298 31.3739C15.5237 30.8097 14.8639 30.127 14.1959 29.4359C13.9683 29.2004 13.7398 28.9639 13.5042 28.7308C13.2979 28.5267 13.0709 28.4608 12.8378 28.3932C12.6851 28.3489 12.5298 28.3038 12.3761 28.2185C11.9604 27.988 11.4968 27.3787 11.2802 26.9609C11.1831 26.7736 11.1909 26.5816 11.1986 26.3931C11.2051 26.232 11.2116 26.0735 11.1525 25.9225C11.0861 25.7528 10.9577 25.6007 10.8299 25.4491C10.7347 25.3362 10.6397 25.2236 10.5709 25.1044C10.2753 24.5923 10.1759 24.0186 10.1352 23.4368C10.1188 23.2021 10.1265 22.9475 10.1343 22.6873C10.1595 21.8441 10.1865 20.942 9.40286 20.4668C8.50587 19.9228 7.41617 20.9692 7.54908 21.895C7.5879 22.1654 7.7161 22.3783 7.84292 22.589C7.99566 22.8428 8.14642 23.0932 8.13672 23.4368C8.12635 23.805 7.8723 24.0277 7.50508 24.0286C7.01944 24.0297 6.71636 23.6931 6.47382 23.3109C5.98718 22.544 5.90477 21.534 6.13014 20.6678C6.65784 18.6396 9.32843 17.8734 10.8578 19.3178C11.7233 20.1353 11.7619 21.2036 11.8016 22.3042C11.8028 22.3356 11.8039 22.367 11.805 22.3984C11.8088 22.5002 11.8111 22.5987 11.8133 22.6944C11.8286 23.3594 11.841 23.8922 12.3168 24.4745C12.4734 24.6662 12.6768 24.6923 12.8893 24.7195C13.0235 24.7367 13.1613 24.7544 13.2933 24.8145C13.5912 24.9504 13.8241 25.2451 14.0341 25.5109C14.0776 25.566 14.1202 25.6199 14.1622 25.6708C14.3092 25.8493 14.4603 26.0402 14.5153 26.2687C14.5435 26.3863 14.5542 26.5038 14.5648 26.6197C14.5845 26.8354 14.6036 27.0461 14.7346 27.2441C15.1664 27.897 15.8022 28.4821 16.393 28.9893C17.2844 29.7546 18.2273 30.439 19.3346 30.8619C22.1624 31.942 24.9653 30.1015 26.1341 27.5273C26.7831 26.0978 26.8405 24.7191 26.8308 23.185C26.6256 23.3601 26.4474 23.5725 26.2689 23.7853C26.1239 23.9582 25.9787 24.1313 25.8187 24.2847C25.0442 25.0269 24.1854 25.6285 23.1934 26.0441C22.3 26.4184 21.3169 26.6052 20.3467 26.5824C19.6205 26.5654 18.8616 26.4023 18.1959 26.1148C14.15 24.3674 13.3459 18.3421 16.9307 15.6665C17.4593 15.272 18.0414 14.961 18.6704 14.7624C19.4458 14.5176 20.2638 14.4063 21.0742 14.4736C22.1234 14.5608 23.132 14.8603 24.0474 15.3817C24.9132 15.8747 25.6958 16.55 26.3106 17.3325C26.4913 17.5626 26.649 17.8087 26.8064 18.0545ZM18.4179 16.8822C18.9587 16.5444 19.588 16.3481 20.2207 16.2767C22.31 16.041 24.2683 17.4867 25.3761 19.126C25.6203 19.4874 25.8253 19.8673 26.0163 20.2587C26.0294 20.2855 26.0438 20.3136 26.0587 20.3427C26.1353 20.492 26.225 20.6669 26.2152 20.8251C26.2061 20.9721 26.1031 21.1148 26.0143 21.2379C25.9997 21.2582 25.9854 21.2779 25.9721 21.2971C25.7548 21.6079 25.5328 21.9213 25.2858 22.2096C24.2435 23.4259 22.7904 24.5681 21.138 24.7549C20.5345 24.8231 19.9172 24.7935 19.3351 24.6072C18.8297 24.4454 18.347 24.1817 17.9434 23.8392C15.7104 21.9443 15.9077 18.4497 18.4179 16.8822Z" fill="#FCFCFC"/>
<g opacity="0.7">
<mask id="path-4-outside-1_2_3029" maskUnits="userSpaceOnUse" x="16.0117" y="16.0001" width="20" height="20" fill="black">
<rect fill="white" x="16.0117" y="16.0001" width="20" height="20"/>
<path fill-rule="evenodd" clip-rule="evenodd" d="M19.9824 18.1466C19.7872 17.9513 19.4706 17.9513 19.2754 18.1466L18.1591 19.2632C17.9639 19.4585 17.9639 19.7751 18.1591 19.9704L24.188 26.0009L18.1582 32.0296C17.9629 32.2249 17.9629 32.5414 18.1582 32.7367L19.2747 33.853C19.47 34.0483 19.7866 34.0483 19.9819 33.853L26.0113 27.8246L32.0384 33.8534C32.2337 34.0487 32.5502 34.0487 32.7454 33.8534L33.8617 32.7368C34.0569 32.5415 34.0569 32.2249 33.8617 32.0296L27.835 26.0013L33.8642 19.9731C34.0595 19.7778 34.0595 19.4613 33.8642 19.266L32.7477 18.1497C32.5524 17.9544 32.2358 17.9544 32.0405 18.1497L26.0117 24.1775L19.9824 18.1466Z"/>
</mask>
<path fill-rule="evenodd" clip-rule="evenodd" d="M19.9824 18.1466C19.7872 17.9513 19.4706 17.9513 19.2754 18.1466L18.1591 19.2632C17.9639 19.4585 17.9639 19.7751 18.1591 19.9704L24.188 26.0009L18.1582 32.0296C17.9629 32.2249 17.9629 32.5414 18.1582 32.7367L19.2747 33.853C19.47 34.0483 19.7866 34.0483 19.9819 33.853L26.0113 27.8246L32.0384 33.8534C32.2337 34.0487 32.5502 34.0487 32.7454 33.8534L33.8617 32.7368C34.0569 32.5415 34.0569 32.2249 33.8617 32.0296L27.835 26.0013L33.8642 19.9731C34.0595 19.7778 34.0595 19.4613 33.8642 19.266L32.7477 18.1497C32.5524 17.9544 32.2358 17.9544 32.0405 18.1497L26.0117 24.1775L19.9824 18.1466Z" fill="url(#paint1_linear_2_3029)"/>
<path d="M19.2754 18.1466L18.2146 17.0861L19.2754 18.1466ZM19.9824 18.1466L21.0432 17.0861L19.9824 18.1466ZM18.1591 19.2632L17.0983 18.2026L17.0983 18.2026L18.1591 19.2632ZM18.1591 19.9704L17.0983 21.0309L17.0983 21.0309L18.1591 19.9704ZM24.188 26.0008L25.2485 27.0616L26.3092 26.0011L25.2488 24.9403L24.188 26.0008ZM18.1582 32.0296L17.0976 30.9689L17.0976 30.9689L18.1582 32.0296ZM18.1582 32.7366L17.0976 33.7974L17.0976 33.7974L18.1582 32.7366ZM19.2747 33.853L20.3353 32.7922L20.3353 32.7922L19.2747 33.853ZM19.9819 33.853L18.9213 32.7922L18.9213 32.7922L19.9819 33.853ZM26.0113 27.8246L27.0721 26.7641L26.0115 25.7032L24.9507 26.7639L26.0113 27.8246ZM32.0384 33.8533L30.9776 34.9138L30.9776 34.9138L32.0384 33.8533ZM32.7454 33.8533L31.6846 32.7928L31.6846 32.7928L32.7454 33.8533ZM33.8617 32.7368L34.9225 33.7973L34.9225 33.7973L33.8617 32.7368ZM33.8617 32.0296L32.8009 33.0901L32.8009 33.0901L33.8617 32.0296ZM27.8349 26.0012L26.7744 24.9405L25.7137 26.001L26.7741 27.0618L27.8349 26.0012ZM33.8642 19.973L32.8036 18.9123L32.8036 18.9123L33.8642 19.973ZM33.8642 19.266L34.9247 18.2052L34.9247 18.2052L33.8642 19.266ZM32.7477 18.1496L33.8082 17.0889L33.8082 17.0889L32.7477 18.1496ZM32.0405 18.1496L30.9799 17.0889L30.9799 17.0889L32.0405 18.1496ZM26.0116 24.1775L24.9508 25.238L26.0114 26.2988L27.0722 25.2382L26.0116 24.1775ZM20.3362 19.2071C19.9456 19.5978 19.3122 19.5978 18.9216 19.2071L21.0432 17.0861C20.2621 16.3048 18.9956 16.3048 18.2146 17.0861L20.3362 19.2071ZM19.2199 20.3237L20.3362 19.2071L18.2146 17.0861L17.0983 18.2026L19.2199 20.3237ZM19.2199 18.9098C19.6102 19.3003 19.6102 19.9332 19.2199 20.3237L17.0983 18.2026C16.3174 18.9837 16.3174 20.2498 17.0983 21.0309L19.2199 18.9098ZM25.2488 24.9403L19.2199 18.9098L17.0983 21.0309L23.1272 27.0614L25.2488 24.9403ZM19.2187 33.0904L25.2485 27.0616L23.1274 24.9401L17.0976 30.9689L19.2187 33.0904ZM19.2187 31.6759C19.6094 32.0665 19.6094 32.6998 19.2187 33.0904L17.0976 30.9689C16.3164 31.7499 16.3164 33.0163 17.0976 33.7974L19.2187 31.6759ZM20.3353 32.7922L19.2187 31.6759L17.0976 33.7974L18.2141 34.9137L20.3353 32.7922ZM18.9213 32.7922C19.3118 32.4018 19.9448 32.4018 20.3353 32.7922L18.2141 34.9137C18.9952 35.6946 20.2614 35.6946 21.0424 34.9137L18.9213 32.7922ZM24.9507 26.7639L18.9213 32.7922L21.0424 34.9137L27.0718 28.8854L24.9507 26.7639ZM33.0992 32.7928L27.0721 26.7641L24.9505 28.8851L30.9776 34.9138L33.0992 32.7928ZM31.6846 32.7928C32.0752 32.4021 32.7086 32.4021 33.0992 32.7928L30.9776 34.9138C31.7586 35.6951 33.0251 35.6951 33.8062 34.9138L31.6846 32.7928ZM32.8009 31.6762L31.6846 32.7928L33.8062 34.9138L34.9225 33.7973L32.8009 31.6762ZM32.8009 33.0901C32.4105 32.6996 32.4105 32.0667 32.8009 31.6762L34.9225 33.7973C35.7033 33.0162 35.7033 31.7501 34.9225 30.969L32.8009 33.0901ZM26.7741 27.0618L32.8009 33.0901L34.9225 30.969L28.8957 24.9407L26.7741 27.0618ZM32.8036 18.9123L26.7744 24.9405L28.8955 27.062L34.9247 21.0338L32.8036 18.9123ZM32.8036 20.3267C32.413 19.9362 32.413 19.3028 32.8036 18.9123L34.9247 21.0338C35.7059 20.2527 35.7059 18.9863 34.9247 18.2052L32.8036 20.3267ZM31.6871 19.2104L32.8036 20.3267L34.9247 18.2052L33.8082 17.0889L31.6871 19.2104ZM33.1011 19.2104C32.7106 19.6008 32.0776 19.6008 31.6871 19.2104L33.8082 17.0889C33.0272 16.308 31.761 16.308 30.9799 17.0889L33.1011 19.2104ZM27.0722 25.2382L33.1011 19.2104L30.9799 17.0889L24.9511 23.1167L27.0722 25.2382ZM18.9216 19.2071L24.9508 25.238L27.0724 23.1169L21.0432 17.0861L18.9216 19.2071Z" fill="black" mask="url(#path-4-outside-1_2_3029)"/>
</g>
</g>
</g>
<rect x="1.06074" y="1.04994" width="37.9" height="37.9" rx="6.95" stroke="white" stroke-opacity="0.15" stroke-width="2.1"/>
<defs>
<filter id="filter0_d_2_3029" x="2.01074" y="1.99994" width="37.5" height="37.4999" filterUnits="userSpaceOnUse" color-interpolation-filters="sRGB">
<feFlood flood-opacity="0" result="BackgroundImageFix"/>
<feColorMatrix in="SourceAlpha" type="matrix" values="0 0 0 0 0 0 0 0 0 0 0 0 0 0 0 0 0 0 127 0" result="hardAlpha"/>
<feOffset/>
<feGaussianBlur stdDeviation="2"/>
<feComposite in2="hardAlpha" operator="out"/>
<feColorMatrix type="matrix" values="0 0 0 0 0 0 0 0 0 0 0 0 0 0 0 0 0 0 0.25 0"/>
<feBlend mode="normal" in2="BackgroundImageFix" result="effect1_dropShadow_2_3029"/>
<feBlend mode="normal" in="SourceGraphic" in2="effect1_dropShadow_2_3029" result="shape"/>
</filter>
<linearGradient id="paint0_linear_2_3029" x1="20.0107" y1="-6.10351e-05" x2="20.0107" y2="39.9999" gradientUnits="userSpaceOnUse">
<stop stop-color="#2C1B1B"/>
<stop offset="1" stop-color="#1F1414"/>
</linearGradient>
<linearGradient id="paint1_linear_2_3029" x1="26.0112" y1="18.0001" x2="26.0112" y2="33.9998" gradientUnits="userSpaceOnUse">
<stop stop-color="#FF0000"/>
<stop offset="1" stop-color="#CC0000"/>
</linearGradient>
<clipPath id="clip0_2_3029">
<rect x="0.0107422" y="-6.10352e-05" width="40" height="40" rx="8" fill="white"/>
</clipPath>
</defs>
</svg>
