<svg width="41" height="40" viewBox="0 0 41 40" fill="none" xmlns="http://www.w3.org/2000/svg">
<g clip-path="url(#clip0_2_2879)">
<rect x="0.0107422" y="-1.52588e-05" width="40" height="40" rx="8" fill="url(#paint0_linear_2_2879)"/>
<g filter="url(#filter0_d_2_2879)">
<path d="M31.338 14.7658L19.3107 14.1667H34.0107V13H17.4016V15.4594V17.4144C17.4016 17.4459 16.9244 14.545 16.7971 13.7252H15.4926V15.8694V17.8243C15.4926 17.8558 14.9198 14.3874 14.888 13.9459C11.5789 13.9459 6.01074 13.9459 6.01074 13.9459C6.61529 14.4504 9.9562 17.2883 12.3426 18.4549C13.5198 19.0225 14.9835 19.054 16.288 19.0856C16.9562 19.1171 17.6244 19.1486 18.1335 19.6531C18.8653 20.3468 19.0244 21.4504 18.388 22.2703C17.7835 23.0901 16.0653 23.2793 16.0653 23.2793L14.6016 24.982V27H17.8789L17.9744 25.0135L20.8062 23.027C20.5198 23.2793 19.8198 23.9099 18.8335 25.4549C18.6107 25.8018 18.4198 26.1802 18.2926 26.5585C18.9926 25.9594 20.4562 25.5495 22.1744 25.5495C23.8607 25.5495 25.3244 25.9594 26.0244 26.5585C25.8971 26.1802 25.7062 25.8018 25.4835 25.4549C24.4653 23.9099 23.7971 23.2793 23.5107 23.027L26.3426 25.0135L26.438 27H29.4926V24.982L28.0607 23.2477C28.0607 23.2477 25.9289 23.1216 25.388 22.2387C23.7335 19.7793 25.9926 15.9324 31.338 14.7658Z" fill="#DFA86A"/>
<g opacity="0.7">
<mask id="path-4-outside-1_2_2879" maskUnits="userSpaceOnUse" x="16.0117" y="16.0002" width="20" height="20" fill="black">
<rect fill="white" x="16.0117" y="16.0002" width="20" height="20"/>
<path fill-rule="evenodd" clip-rule="evenodd" d="M19.9824 18.1466C19.7871 17.9513 19.4706 17.9513 19.2754 18.1466L18.1591 19.2632C17.9638 19.4585 17.9638 19.7751 18.1591 19.9704L24.188 26.0009L18.1582 32.0297C17.9629 32.2249 17.9629 32.5415 18.1582 32.7367L19.2747 33.853C19.47 34.0483 19.7866 34.0483 19.9819 33.853L26.0113 27.8247L32.0384 33.8534C32.2336 34.0487 32.5502 34.0487 32.7454 33.8534L33.8617 32.7368C34.0569 32.5415 34.0569 32.2249 33.8617 32.0296L27.835 26.0013L33.8642 19.9731C34.0595 19.7778 34.0595 19.4613 33.8642 19.266L32.7477 18.1497C32.5524 17.9545 32.2358 17.9545 32.0405 18.1497L26.0117 24.1775L19.9824 18.1466Z"/>
</mask>
<path fill-rule="evenodd" clip-rule="evenodd" d="M19.9824 18.1466C19.7871 17.9513 19.4706 17.9513 19.2754 18.1466L18.1591 19.2632C17.9638 19.4585 17.9638 19.7751 18.1591 19.9704L24.188 26.0009L18.1582 32.0297C17.9629 32.2249 17.9629 32.5415 18.1582 32.7367L19.2747 33.853C19.47 34.0483 19.7866 34.0483 19.9819 33.853L26.0113 27.8247L32.0384 33.8534C32.2336 34.0487 32.5502 34.0487 32.7454 33.8534L33.8617 32.7368C34.0569 32.5415 34.0569 32.2249 33.8617 32.0296L27.835 26.0013L33.8642 19.9731C34.0595 19.7778 34.0595 19.4613 33.8642 19.266L32.7477 18.1497C32.5524 17.9545 32.2358 17.9545 32.0405 18.1497L26.0117 24.1775L19.9824 18.1466Z" fill="url(#paint1_linear_2_2879)"/>
<path d="M19.2754 18.1466L18.2146 17.0861L19.2754 18.1466ZM19.9824 18.1466L21.0432 17.0861L19.9824 18.1466ZM18.1591 19.2632L17.0983 18.2027L17.0983 18.2027L18.1591 19.2632ZM18.1591 19.9704L17.0983 21.0309H17.0983L18.1591 19.9704ZM24.188 26.0009L25.2485 27.0616L26.3092 26.0011L25.2488 24.9404L24.188 26.0009ZM18.1582 32.0297L17.0976 30.9689H17.0976L18.1582 32.0297ZM18.1582 32.7367L17.0976 33.7975L17.0976 33.7975L18.1582 32.7367ZM19.2747 33.853L20.3353 32.7923L20.3353 32.7923L19.2747 33.853ZM19.9819 33.853L18.9213 32.7923L18.9213 32.7923L19.9819 33.853ZM26.0113 27.8247L27.0721 26.7641L26.0115 25.7033L24.9507 26.7639L26.0113 27.8247ZM32.0384 33.8534L30.9776 34.9139L32.0384 33.8534ZM32.7454 33.8534L31.6846 32.7929L31.6846 32.7929L32.7454 33.8534ZM33.8617 32.7368L34.9225 33.7973L34.9225 33.7973L33.8617 32.7368ZM33.8617 32.0296L32.8009 33.0901L33.8617 32.0296ZM27.835 26.0013L26.7744 24.9405L25.7137 26.0011L26.7741 27.0618L27.835 26.0013ZM33.8642 19.9731L32.8036 18.9123L32.8036 18.9123L33.8642 19.9731ZM33.8642 19.266L34.9247 18.2053L34.9247 18.2053L33.8642 19.266ZM32.7477 18.1497L33.8082 17.089L33.8082 17.089L32.7477 18.1497ZM32.0405 18.1497L30.9799 17.089L30.9799 17.089L32.0405 18.1497ZM26.0117 24.1775L24.9509 25.238L26.0114 26.2989L27.0722 25.2383L26.0117 24.1775ZM20.3362 19.2072C19.9456 19.5978 19.3122 19.5978 18.9216 19.2072L21.0432 17.0861C20.2621 16.3049 18.9956 16.3049 18.2146 17.0861L20.3362 19.2072ZM19.2199 20.3237L20.3362 19.2072L18.2146 17.0861L17.0983 18.2027L19.2199 20.3237ZM19.2199 18.9099C19.6102 19.3003 19.6102 19.9333 19.2199 20.3237L17.0983 18.2027C16.3174 18.9837 16.3174 20.2499 17.0983 21.0309L19.2199 18.9099ZM25.2488 24.9404L19.2199 18.9099L17.0983 21.0309L23.1272 27.0614L25.2488 24.9404ZM19.2187 33.0904L25.2485 27.0616L23.1274 24.9401L17.0976 30.9689L19.2187 33.0904ZM19.2187 31.676C19.6094 32.0665 19.6094 32.6999 19.2187 33.0904L17.0976 30.9689C16.3164 31.75 16.3164 33.0164 17.0976 33.7975L19.2187 31.676ZM20.3353 32.7923L19.2187 31.676L17.0976 33.7975L18.2141 34.9138L20.3353 32.7923ZM18.9213 32.7923C19.3118 32.4019 19.9448 32.4019 20.3353 32.7923L18.2141 34.9138C18.9952 35.6947 20.2614 35.6947 21.0424 34.9138L18.9213 32.7923ZM24.9507 26.7639L18.9213 32.7923L21.0424 34.9138L27.0718 28.8854L24.9507 26.7639ZM33.0992 32.7929L27.0721 26.7641L24.9505 28.8852L30.9776 34.9139L33.0992 32.7929ZM31.6846 32.7929C32.0752 32.4022 32.7086 32.4022 33.0992 32.7929L30.9776 34.9139C31.7586 35.6952 33.0251 35.6952 33.8062 34.9139L31.6846 32.7929ZM32.8009 31.6763L31.6846 32.7929L33.8062 34.9139L34.9225 33.7973L32.8009 31.6763ZM32.8009 33.0901C32.4105 32.6997 32.4105 32.0667 32.8009 31.6763L34.9225 33.7973C35.7033 33.0163 35.7033 31.7501 34.9225 30.9691L32.8009 33.0901ZM26.7741 27.0618L32.8009 33.0901L34.9225 30.9691L28.8958 24.9408L26.7741 27.0618ZM32.8036 18.9123L26.7744 24.9405L28.8955 27.062L34.9247 21.0338L32.8036 18.9123ZM32.8036 20.3268C32.413 19.9362 32.413 19.3029 32.8036 18.9123L34.9247 21.0338C35.7059 20.2528 35.7059 18.9863 34.9247 18.2053L32.8036 20.3268ZM31.6871 19.2105L32.8036 20.3268L34.9247 18.2053L33.8082 17.089L31.6871 19.2105ZM33.1011 19.2105C32.7106 19.6009 32.0776 19.6009 31.6871 19.2105L33.8082 17.089C33.0272 16.308 31.761 16.308 30.9799 17.089L33.1011 19.2105ZM27.0722 25.2383L33.1011 19.2105L30.9799 17.089L24.9511 23.1168L27.0722 25.2383ZM18.9216 19.2072L24.9509 25.238L27.0725 23.117L21.0432 17.0861L18.9216 19.2072Z" fill="black" mask="url(#path-4-outside-1_2_2879)"/>
</g>
</g>
</g>
<rect x="1.06074" y="1.04998" width="37.9" height="37.9" rx="6.95" stroke="white" stroke-opacity="0.15" stroke-width="2.1"/>
<defs>
<filter id="filter0_d_2_2879" x="2.01074" y="1.99998" width="37.5" height="37.4999" filterUnits="userSpaceOnUse" color-interpolation-filters="sRGB">
<feFlood flood-opacity="0" result="BackgroundImageFix"/>
<feColorMatrix in="SourceAlpha" type="matrix" values="0 0 0 0 0 0 0 0 0 0 0 0 0 0 0 0 0 0 127 0" result="hardAlpha"/>
<feOffset/>
<feGaussianBlur stdDeviation="2"/>
<feComposite in2="hardAlpha" operator="out"/>
<feColorMatrix type="matrix" values="0 0 0 0 0 0 0 0 0 0 0 0 0 0 0 0 0 0 0.25 0"/>
<feBlend mode="normal" in2="BackgroundImageFix" result="effect1_dropShadow_2_2879"/>
<feBlend mode="normal" in="SourceGraphic" in2="effect1_dropShadow_2_2879" result="shape"/>
</filter>
<linearGradient id="paint0_linear_2_2879" x1="20.0107" y1="-1.52588e-05" x2="20.0107" y2="40" gradientUnits="userSpaceOnUse">
<stop stop-color="#2C1B1B"/>
<stop offset="1" stop-color="#1F1414"/>
</linearGradient>
<linearGradient id="paint1_linear_2_2879" x1="26.0112" y1="18.0002" x2="26.0112" y2="33.9998" gradientUnits="userSpaceOnUse">
<stop stop-color="#FF0000"/>
<stop offset="1" stop-color="#CC0000"/>
</linearGradient>
<clipPath id="clip0_2_2879">
<rect x="0.0107422" y="-1.52588e-05" width="40" height="40" rx="8" fill="white"/>
</clipPath>
</defs>
</svg>
