<svg width="41" height="40" viewBox="0 0 41 40" fill="none" xmlns="http://www.w3.org/2000/svg">
<g clip-path="url(#clip0_2_2889)">
<rect x="0.0107422" y="-2.28882e-05" width="40" height="40" rx="8" fill="url(#paint0_linear_2_2889)"/>
<g filter="url(#filter0_d_2_2889)">
<path d="M8.51123 16.2608V12.7929C8.55655 12.7901 8.60127 12.7301 8.64413 12.7149C9.39164 12.3347 10.1315 11.937 10.8886 11.5787C11.1155 11.4707 11.1985 11.3652 11.1937 11.1104C11.1769 10.1837 11.187 9.25655 11.1875 8.32936C11.1875 8.04444 11.1875 8.04201 11.4231 7.92289C12.3999 7.42745 13.3787 6.93492 14.3545 6.43754C14.6285 6.29848 14.9255 6.20319 15.1654 5.99995H15.3822C15.3909 6.02086 15.3938 6.05295 15.4086 6.06073C16.6479 6.68404 17.8887 7.30347 19.1255 7.93116C19.2009 7.96957 19.2287 7.97248 19.305 7.93116C19.721 7.71382 20.1499 7.5208 20.5635 7.29909C20.6772 7.23783 20.7338 7.24707 20.8422 7.30784C21.1627 7.48871 21.4986 7.64041 21.8301 7.8062C22.0436 7.91365 22.0436 7.91803 22.2259 7.82176C22.5335 7.65937 22.8386 7.4926 23.1462 7.33069C23.3635 7.21644 23.386 7.21644 23.5871 7.31854C24.8025 7.93861 26.019 8.55868 27.2363 9.17875C28.5831 9.86236 29.9327 10.5401 31.2766 11.23C31.3606 11.2728 31.4325 11.2655 31.5112 11.2762V21.5381C31.4325 21.5488 31.3606 21.5415 31.2766 21.5842C29.6933 22.3943 28.11 23.2023 26.5133 23.9905C26.2475 24.1217 26.1491 24.2632 26.1515 24.5676C26.1659 26.6923 26.1554 28.817 26.165 30.9412C26.165 31.1523 26.104 31.265 25.9203 31.3501C25.5652 31.5145 25.2188 31.6978 24.8691 31.8733C24.8427 31.8864 24.8172 31.902 24.7918 31.9166C24.8246 31.924 24.8567 31.9342 24.8878 31.9472C25.2658 32.1417 25.642 32.341 26.0234 32.5306C26.0916 32.5647 26.0877 32.5793 26.0402 32.6162C26.0028 32.6409 25.9635 32.6625 25.9227 32.6809C25.3436 32.9726 24.7587 33.2556 24.1882 33.5658C23.9282 33.7073 23.636 33.7938 23.4105 33.9999H23.3385C23.2722 33.9465 23.2023 33.8977 23.1294 33.8541C20.5257 32.5329 17.9214 31.2129 15.3165 29.894C15.2925 29.8795 15.2696 29.8632 15.2479 29.8453C15.2685 29.8366 15.2897 29.8293 15.3093 29.8191C16.1274 29.4039 16.9468 28.9925 17.762 28.5705C17.8299 28.5298 17.9074 28.5084 17.9863 28.5084C18.0652 28.5084 18.1427 28.5298 18.2106 28.5705C18.5824 28.7699 18.9615 28.9551 19.3376 29.1462C19.7171 28.9551 20.0971 28.765 20.4757 28.572C20.5064 28.5564 20.5308 28.5015 20.5543 28.5039C20.6681 28.5151 20.6633 28.4456 20.6628 28.3678C20.6628 27.9161 20.6599 27.4644 20.6628 27.0127C20.6628 26.9237 20.6254 26.9155 20.551 26.8771C19.9273 26.5717 19.3136 26.2489 18.6952 25.9348C16.7002 24.9216 14.7046 23.9099 12.7084 22.8999C12.6072 22.8484 12.5539 22.8051 12.5558 22.6733C12.5649 21.9168 12.5582 21.1598 12.5616 20.4033C12.5616 20.2705 12.5299 20.1986 12.3937 20.1373C12.0578 19.9866 11.7392 19.794 11.4063 19.6346C11.2623 19.5655 11.1736 19.5072 11.1798 19.3151C11.1971 18.7667 11.1798 18.2168 11.1918 17.6679C11.1952 17.5371 11.1337 17.5167 11.0479 17.4734C10.2802 17.0878 9.50727 16.7023 8.74489 16.3065C8.66236 16.2632 8.59231 16.2715 8.51123 16.2608ZM24.7131 27.7333V25.0246C24.7131 24.941 24.7309 24.905 24.6109 24.9668C23.8663 25.3504 23.1111 25.7141 22.3598 26.085C22.2595 26.1337 22.1161 26.1638 22.0719 26.246C22.0172 26.352 22.0412 26.5012 22.0364 26.632C22.0321 26.7414 22.0364 26.8513 22.0364 26.9612C22.0364 27.6691 22.0364 28.3765 22.0388 29.0844C22.0388 29.1817 22.0071 29.2104 21.9179 29.2527C21.5441 29.4296 21.1805 29.629 20.8144 29.8205C20.7906 29.8354 20.7677 29.8516 20.7458 29.8692C20.7664 29.8779 20.7875 29.8857 20.8077 29.8954C21.6372 30.3106 22.4677 30.722 23.2939 31.1459C23.363 31.1814 23.3836 31.1853 23.4556 31.1459C23.8207 30.9514 24.1926 30.7711 24.5673 30.597C24.6747 30.5484 24.7184 30.4968 24.7175 30.3695C24.7093 29.4904 24.7131 28.6118 24.7131 27.7333Z" fill="#4E84C4"/>
<g opacity="0.7">
<mask id="path-4-outside-1_2_2889" maskUnits="userSpaceOnUse" x="16.0117" y="16.0002" width="20" height="20" fill="black">
<rect fill="white" x="16.0117" y="16.0002" width="20" height="20"/>
<path fill-rule="evenodd" clip-rule="evenodd" d="M19.9824 18.1466C19.7872 17.9514 19.4706 17.9514 19.2754 18.1466L18.1591 19.2632C17.9639 19.4585 17.9639 19.7751 18.1591 19.9704L24.188 26.0009L18.1582 32.0297C17.9629 32.2249 17.9629 32.5415 18.1582 32.7367L19.2747 33.853C19.47 34.0483 19.7866 34.0483 19.9819 33.853L26.0113 27.8247L32.0384 33.8534C32.2337 34.0487 32.5502 34.0487 32.7454 33.8534L33.8617 32.7368C34.0569 32.5415 34.0569 32.2249 33.8617 32.0296L27.835 26.0013L33.8642 19.9731C34.0595 19.7778 34.0595 19.4613 33.8642 19.266L32.7477 18.1497C32.5524 17.9545 32.2358 17.9545 32.0405 18.1497L26.0117 24.1775L19.9824 18.1466Z"/>
</mask>
<path fill-rule="evenodd" clip-rule="evenodd" d="M19.9824 18.1466C19.7872 17.9514 19.4706 17.9514 19.2754 18.1466L18.1591 19.2632C17.9639 19.4585 17.9639 19.7751 18.1591 19.9704L24.188 26.0009L18.1582 32.0297C17.9629 32.2249 17.9629 32.5415 18.1582 32.7367L19.2747 33.853C19.47 34.0483 19.7866 34.0483 19.9819 33.853L26.0113 27.8247L32.0384 33.8534C32.2337 34.0487 32.5502 34.0487 32.7454 33.8534L33.8617 32.7368C34.0569 32.5415 34.0569 32.2249 33.8617 32.0296L27.835 26.0013L33.8642 19.9731C34.0595 19.7778 34.0595 19.4613 33.8642 19.266L32.7477 18.1497C32.5524 17.9545 32.2358 17.9545 32.0405 18.1497L26.0117 24.1775L19.9824 18.1466Z" fill="url(#paint1_linear_2_2889)"/>
<path d="M19.2754 18.1466L18.2146 17.0861L19.2754 18.1466ZM19.9824 18.1466L21.0432 17.0861L19.9824 18.1466ZM18.1591 19.2632L17.0983 18.2027L17.0983 18.2027L18.1591 19.2632ZM18.1591 19.9704L17.0983 21.0309L17.0983 21.0309L18.1591 19.9704ZM24.188 26.0009L25.2485 27.0616L26.3092 26.0011L25.2488 24.9404L24.188 26.0009ZM18.1582 32.0297L17.0976 30.9689L17.0976 30.9689L18.1582 32.0297ZM18.1582 32.7367L17.0976 33.7975L17.0976 33.7975L18.1582 32.7367ZM19.2747 33.853L20.3353 32.7923L20.3353 32.7923L19.2747 33.853ZM19.9819 33.853L18.9213 32.7923L18.9213 32.7923L19.9819 33.853ZM26.0113 27.8247L27.0721 26.7641L26.0115 25.7033L24.9507 26.7639L26.0113 27.8247ZM32.0384 33.8534L30.9776 34.9139L30.9776 34.9139L32.0384 33.8534ZM32.7454 33.8534L31.6846 32.7929L31.6846 32.7929L32.7454 33.8534ZM33.8617 32.7368L34.9225 33.7973L34.9225 33.7973L33.8617 32.7368ZM33.8617 32.0296L32.8009 33.0901L32.8009 33.0901L33.8617 32.0296ZM27.8349 26.0013L26.7744 24.9405L25.7137 26.0011L26.7741 27.0618L27.8349 26.0013ZM33.8642 19.9731L32.8036 18.9123L32.8036 18.9123L33.8642 19.9731ZM33.8642 19.266L34.9247 18.2053L34.9247 18.2053L33.8642 19.266ZM32.7477 18.1497L33.8082 17.0889L33.8082 17.0889L32.7477 18.1497ZM32.0405 18.1497L30.9799 17.0889L30.9799 17.0889L32.0405 18.1497ZM26.0117 24.1775L24.9509 25.238L26.0114 26.2989L27.0722 25.2383L26.0117 24.1775ZM20.3362 19.2072C19.9456 19.5978 19.3122 19.5978 18.9216 19.2072L21.0432 17.0861C20.2621 16.3049 18.9956 16.3049 18.2146 17.0861L20.3362 19.2072ZM19.2199 20.3237L20.3362 19.2072L18.2146 17.0861L17.0983 18.2027L19.2199 20.3237ZM19.2199 18.9099C19.6102 19.3003 19.6102 19.9333 19.2199 20.3237L17.0983 18.2027C16.3174 18.9837 16.3174 20.2499 17.0983 21.0309L19.2199 18.9099ZM25.2488 24.9404L19.2199 18.9099L17.0983 21.0309L23.1272 27.0614L25.2488 24.9404ZM19.2187 33.0904L25.2485 27.0616L23.1274 24.9401L17.0976 30.9689L19.2187 33.0904ZM19.2187 31.676C19.6094 32.0665 19.6094 32.6998 19.2187 33.0904L17.0976 30.9689C16.3164 31.75 16.3164 33.0164 17.0976 33.7975L19.2187 31.676ZM20.3353 32.7923L19.2187 31.676L17.0976 33.7975L18.2141 34.9138L20.3353 32.7923ZM18.9213 32.7923C19.3118 32.4019 19.9448 32.4019 20.3353 32.7923L18.2141 34.9138C18.9952 35.6947 20.2614 35.6947 21.0424 34.9138L18.9213 32.7923ZM24.9507 26.7639L18.9213 32.7923L21.0424 34.9138L27.0718 28.8854L24.9507 26.7639ZM33.0992 32.7929L27.0721 26.7641L24.9505 28.8852L30.9776 34.9139L33.0992 32.7929ZM31.6846 32.7929C32.0752 32.4022 32.7086 32.4022 33.0992 32.7929L30.9776 34.9139C31.7586 35.6952 33.0251 35.6952 33.8062 34.9139L31.6846 32.7929ZM32.8009 31.6763L31.6846 32.7929L33.8062 34.9139L34.9225 33.7973L32.8009 31.6763ZM32.8009 33.0901C32.4105 32.6997 32.4105 32.0667 32.8009 31.6763L34.9225 33.7973C35.7033 33.0163 35.7033 31.7501 34.9225 30.9691L32.8009 33.0901ZM26.7741 27.0618L32.8009 33.0901L34.9225 30.9691L28.8957 24.9408L26.7741 27.0618ZM32.8036 18.9123L26.7744 24.9405L28.8955 27.062L34.9247 21.0338L32.8036 18.9123ZM32.8036 20.3268C32.413 19.9362 32.413 19.3029 32.8036 18.9123L34.9247 21.0338C35.7059 20.2528 35.7059 18.9863 34.9247 18.2053L32.8036 20.3268ZM31.6871 19.2104L32.8036 20.3268L34.9247 18.2053L33.8082 17.0889L31.6871 19.2104ZM33.1011 19.2104C32.7106 19.6009 32.0776 19.6009 31.6871 19.2104L33.8082 17.0889C33.0272 16.308 31.761 16.308 30.9799 17.0889L33.1011 19.2104ZM27.0722 25.2383L33.1011 19.2104L30.9799 17.0889L24.9511 23.1168L27.0722 25.2383ZM18.9216 19.2072L24.9509 25.238L27.0725 23.117L21.0432 17.0861L18.9216 19.2072Z" fill="black" mask="url(#path-4-outside-1_2_2889)"/>
</g>
</g>
</g>
<rect x="1.06074" y="1.04998" width="37.9" height="37.9" rx="6.95" stroke="white" stroke-opacity="0.15" stroke-width="2.1"/>
<defs>
<filter id="filter0_d_2_2889" x="2.01074" y="1.99995" width="37.5" height="37.4999" filterUnits="userSpaceOnUse" color-interpolation-filters="sRGB">
<feFlood flood-opacity="0" result="BackgroundImageFix"/>
<feColorMatrix in="SourceAlpha" type="matrix" values="0 0 0 0 0 0 0 0 0 0 0 0 0 0 0 0 0 0 127 0" result="hardAlpha"/>
<feOffset/>
<feGaussianBlur stdDeviation="2"/>
<feComposite in2="hardAlpha" operator="out"/>
<feColorMatrix type="matrix" values="0 0 0 0 0 0 0 0 0 0 0 0 0 0 0 0 0 0 0.25 0"/>
<feBlend mode="normal" in2="BackgroundImageFix" result="effect1_dropShadow_2_2889"/>
<feBlend mode="normal" in="SourceGraphic" in2="effect1_dropShadow_2_2889" result="shape"/>
</filter>
<linearGradient id="paint0_linear_2_2889" x1="20.0107" y1="-2.28882e-05" x2="20.0107" y2="40" gradientUnits="userSpaceOnUse">
<stop stop-color="#2C1B1B"/>
<stop offset="1" stop-color="#1F1414"/>
</linearGradient>
<linearGradient id="paint1_linear_2_2889" x1="26.0112" y1="18.0002" x2="26.0112" y2="33.9998" gradientUnits="userSpaceOnUse">
<stop stop-color="#FF0000"/>
<stop offset="1" stop-color="#CC0000"/>
</linearGradient>
<clipPath id="clip0_2_2889">
<rect x="0.0107422" y="-2.28882e-05" width="40" height="40" rx="8" fill="white"/>
</clipPath>
</defs>
</svg>
