<svg width="41" height="40" viewBox="0 0 41 40" fill="none" xmlns="http://www.w3.org/2000/svg">
<g clip-path="url(#clip0_2_3042)">
<rect x="0.0107422" y="-6.10352e-05" width="40" height="40" rx="8" fill="url(#paint0_linear_2_3042)"/>
<g filter="url(#filter0_d_2_3042)">
<path d="M26.4912 9.66553L20.9678 12.796L26.497 15.9208L32.0205 12.7903L26.4912 9.66553Z" stroke="url(#paint1_linear_2_3042)" stroke-width="0.6" stroke-linejoin="round"/>
<path d="M20.001 5.99994L14.4746 9.13044L20.0039 12.2524L25.5302 9.12472L20.001 5.99994Z" stroke="url(#paint2_linear_2_3042)" stroke-width="0.6" stroke-linejoin="round"/>
<path d="M13.5161 9.67413L7.98975 12.8018L13.519 15.9266L19.0424 12.7989L13.5161 9.67413Z" stroke="url(#paint3_linear_2_3042)" stroke-width="0.6" stroke-linejoin="round"/>
<path d="M20.0068 13.3397L14.4805 16.4702L20.0097 19.5921L25.5361 16.4645L20.0068 13.3397Z" stroke="url(#paint4_linear_2_3042)" stroke-width="0.6" stroke-linejoin="round"/>
<path d="M7.51123 13.6173L7.51415 19.8726L13.0434 22.9945L13.0405 16.7421L7.51123 13.6173Z" stroke="url(#paint5_linear_2_3042)" stroke-width="0.6" stroke-linejoin="round"/>
<path d="M14.001 17.2858L14.0039 23.5383L19.5332 26.663L19.5302 20.4106L14.001 17.2858Z" stroke="url(#paint6_linear_2_3042)" stroke-width="0.6" stroke-linejoin="round"/>
<path d="M7.51367 20.9572L7.51659 27.2096L13.0459 30.3315L13.0429 24.0791L7.51367 20.9572Z" stroke="url(#paint7_linear_2_3042)" stroke-width="0.6" stroke-linejoin="round"/>
<path d="M14.0044 24.6255L14.0073 30.878L19.5366 33.9999L19.5337 27.7475L14.0044 24.6255Z" stroke="url(#paint8_linear_2_3042)" stroke-width="0.6" stroke-linejoin="round"/>
<path d="M20.4975 33.9999L26.0239 30.8722L26.021 24.6198L20.4946 27.7475L20.4975 33.9999Z" stroke="url(#paint9_linear_2_3042)" stroke-width="0.6" stroke-linejoin="round"/>
<path d="M26.9844 30.3257L32.5107 27.198L32.5049 20.9456L26.9814 24.0733L26.9844 30.3257Z" stroke="url(#paint10_linear_2_3042)" stroke-width="0.6" stroke-linejoin="round"/>
<path d="M26.9785 22.986L32.5049 19.8583L32.5019 13.6059L26.9756 16.7335L26.9785 22.986Z" stroke="url(#paint11_linear_2_3042)" stroke-width="0.6" stroke-linejoin="round"/>
<path d="M20.4917 20.4077L20.4946 26.6602L26.018 23.5325L26.0151 17.2801L20.4917 20.4077Z" stroke="url(#paint12_linear_2_3042)" stroke-width="0.6" stroke-linejoin="round"/>
<g opacity="0.7">
<mask id="path-15-outside-1_2_3042" maskUnits="userSpaceOnUse" x="16.0117" y="16.0002" width="20" height="20" fill="black">
<rect fill="white" x="16.0117" y="16.0002" width="20" height="20"/>
<path fill-rule="evenodd" clip-rule="evenodd" d="M19.9824 18.1466C19.7871 17.9514 19.4706 17.9514 19.2754 18.1466L18.1591 19.2632C17.9638 19.4585 17.9638 19.7751 18.1591 19.9704L24.188 26.0009L18.1582 32.0297C17.9629 32.2249 17.9629 32.5415 18.1582 32.7367L19.2747 33.853C19.47 34.0483 19.7866 34.0483 19.9819 33.853L26.0113 27.8247L32.0384 33.8534C32.2336 34.0487 32.5502 34.0487 32.7454 33.8534L33.8617 32.7368C34.0569 32.5415 34.0569 32.2249 33.8617 32.0296L27.8349 26.0013L33.8642 19.9731C34.0595 19.7778 34.0595 19.4613 33.8642 19.266L32.7477 18.1497C32.5524 17.9544 32.2358 17.9544 32.0405 18.1497L26.0116 24.1775L19.9824 18.1466Z"/>
</mask>
<path fill-rule="evenodd" clip-rule="evenodd" d="M19.9824 18.1466C19.7871 17.9514 19.4706 17.9514 19.2754 18.1466L18.1591 19.2632C17.9638 19.4585 17.9638 19.7751 18.1591 19.9704L24.188 26.0009L18.1582 32.0297C17.9629 32.2249 17.9629 32.5415 18.1582 32.7367L19.2747 33.853C19.47 34.0483 19.7866 34.0483 19.9819 33.853L26.0113 27.8247L32.0384 33.8534C32.2336 34.0487 32.5502 34.0487 32.7454 33.8534L33.8617 32.7368C34.0569 32.5415 34.0569 32.2249 33.8617 32.0296L27.8349 26.0013L33.8642 19.9731C34.0595 19.7778 34.0595 19.4613 33.8642 19.266L32.7477 18.1497C32.5524 17.9544 32.2358 17.9544 32.0405 18.1497L26.0116 24.1775L19.9824 18.1466Z" fill="url(#paint13_linear_2_3042)"/>
<path d="M19.2754 18.1466L18.2146 17.0861L19.2754 18.1466ZM19.9824 18.1466L21.0432 17.0861L19.9824 18.1466ZM18.1591 19.2632L17.0983 18.2027L17.0983 18.2027L18.1591 19.2632ZM18.1591 19.9704L17.0983 21.0309H17.0983L18.1591 19.9704ZM24.188 26.0009L25.2485 27.0616L26.3092 26.0011L25.2488 24.9404L24.188 26.0009ZM18.1582 32.0297L17.0976 30.9689H17.0976L18.1582 32.0297ZM18.1582 32.7367L17.0976 33.7975L17.0976 33.7975L18.1582 32.7367ZM19.2747 33.853L20.3353 32.7923L20.3353 32.7923L19.2747 33.853ZM19.9819 33.853L18.9213 32.7923L18.9213 32.7923L19.9819 33.853ZM26.0113 27.8247L27.0721 26.7641L26.0115 25.7033L24.9507 26.7639L26.0113 27.8247ZM32.0384 33.8534L30.9776 34.9139L32.0384 33.8534ZM32.7454 33.8534L31.6846 32.7929L31.6846 32.7929L32.7454 33.8534ZM33.8617 32.7368L34.9225 33.7973L34.9225 33.7973L33.8617 32.7368ZM33.8617 32.0296L32.8009 33.0901L33.8617 32.0296ZM27.8349 26.0013L26.7744 24.9405L25.7137 26.0011L26.7741 27.0618L27.8349 26.0013ZM33.8642 19.9731L32.8036 18.9123L32.8036 18.9123L33.8642 19.9731ZM33.8642 19.266L34.9247 18.2053L34.9247 18.2053L33.8642 19.266ZM32.7477 18.1497L33.8082 17.0889L33.8082 17.0889L32.7477 18.1497ZM32.0405 18.1497L30.9799 17.0889L30.9799 17.0889L32.0405 18.1497ZM26.0116 24.1775L24.9508 25.238L26.0114 26.2989L27.0722 25.2383L26.0116 24.1775ZM20.3362 19.2072C19.9456 19.5979 19.3122 19.5979 18.9216 19.2072L21.0432 17.0861C20.2621 16.3049 18.9956 16.3049 18.2146 17.0861L20.3362 19.2072ZM19.2199 20.3237L20.3362 19.2072L18.2146 17.0861L17.0983 18.2027L19.2199 20.3237ZM19.2199 18.9099C19.6102 19.3004 19.6102 19.9333 19.2199 20.3237L17.0983 18.2027C16.3174 18.9837 16.3174 20.2499 17.0983 21.0309L19.2199 18.9099ZM25.2488 24.9404L19.2199 18.9099L17.0983 21.0309L23.1272 27.0614L25.2488 24.9404ZM19.2187 33.0904L25.2485 27.0616L23.1274 24.9401L17.0976 30.9689L19.2187 33.0904ZM19.2187 31.676C19.6094 32.0665 19.6094 32.6998 19.2187 33.0904L17.0976 30.9689C16.3164 31.75 16.3164 33.0164 17.0976 33.7975L19.2187 31.676ZM20.3353 32.7923L19.2187 31.676L17.0976 33.7975L18.2141 34.9138L20.3353 32.7923ZM18.9213 32.7923C19.3118 32.4019 19.9448 32.4019 20.3353 32.7923L18.2141 34.9138C18.9952 35.6947 20.2614 35.6947 21.0424 34.9138L18.9213 32.7923ZM24.9507 26.7639L18.9213 32.7923L21.0424 34.9138L27.0718 28.8854L24.9507 26.7639ZM33.0992 32.7929L27.0721 26.7641L24.9504 28.8852L30.9776 34.9139L33.0992 32.7929ZM31.6846 32.7929C32.0752 32.4022 32.7086 32.4022 33.0992 32.7929L30.9776 34.9139C31.7586 35.6952 33.0251 35.6952 33.8062 34.9139L31.6846 32.7929ZM32.8009 31.6763L31.6846 32.7929L33.8062 34.9139L34.9225 33.7973L32.8009 31.6763ZM32.8009 33.0901C32.4105 32.6997 32.4105 32.0668 32.8009 31.6763L34.9225 33.7973C35.7033 33.0163 35.7033 31.7501 34.9225 30.9691L32.8009 33.0901ZM26.7741 27.0618L32.8009 33.0901L34.9225 30.9691L28.8957 24.9408L26.7741 27.0618ZM32.8036 18.9123L26.7744 24.9405L28.8955 27.062L34.9247 21.0338L32.8036 18.9123ZM32.8036 20.3268C32.413 19.9362 32.413 19.3029 32.8036 18.9123L34.9247 21.0338C35.7059 20.2528 35.7059 18.9863 34.9247 18.2053L32.8036 20.3268ZM31.6871 19.2104L32.8036 20.3268L34.9247 18.2053L33.8082 17.0889L31.6871 19.2104ZM33.1011 19.2104C32.7106 19.6009 32.0776 19.6009 31.6871 19.2104L33.8082 17.0889C33.0272 16.308 31.761 16.308 30.9799 17.0889L33.1011 19.2104ZM27.0722 25.2383L33.1011 19.2104L30.9799 17.0889L24.9511 23.1168L27.0722 25.2383ZM18.9216 19.2072L24.9508 25.238L27.0724 23.117L21.0432 17.0861L18.9216 19.2072Z" fill="black" mask="url(#path-15-outside-1_2_3042)"/>
</g>
</g>
</g>
<rect x="1.06074" y="1.04994" width="37.9" height="37.9" rx="6.95" stroke="white" stroke-opacity="0.15" stroke-width="2.1"/>
<defs>
<filter id="filter0_d_2_3042" x="2.01074" y="1.69995" width="37.5" height="37.7999" filterUnits="userSpaceOnUse" color-interpolation-filters="sRGB">
<feFlood flood-opacity="0" result="BackgroundImageFix"/>
<feColorMatrix in="SourceAlpha" type="matrix" values="0 0 0 0 0 0 0 0 0 0 0 0 0 0 0 0 0 0 127 0" result="hardAlpha"/>
<feOffset/>
<feGaussianBlur stdDeviation="2"/>
<feComposite in2="hardAlpha" operator="out"/>
<feColorMatrix type="matrix" values="0 0 0 0 0 0 0 0 0 0 0 0 0 0 0 0 0 0 0.25 0"/>
<feBlend mode="normal" in2="BackgroundImageFix" result="effect1_dropShadow_2_3042"/>
<feBlend mode="normal" in="SourceGraphic" in2="effect1_dropShadow_2_3042" result="shape"/>
</filter>
<linearGradient id="paint0_linear_2_3042" x1="20.0107" y1="-6.10351e-05" x2="20.0107" y2="39.9999" gradientUnits="userSpaceOnUse">
<stop stop-color="#2C1B1B"/>
<stop offset="1" stop-color="#1F1414"/>
</linearGradient>
<linearGradient id="paint1_linear_2_3042" x1="5.43442" y1="5.69946" x2="34.0436" y2="34.9023" gradientUnits="userSpaceOnUse">
<stop offset="0.15" stop-color="#25B8FF"/>
<stop offset="0.85" stop-color="#FA02FF"/>
</linearGradient>
<linearGradient id="paint2_linear_2_3042" x1="5.43442" y1="5.69948" x2="34.0436" y2="34.9023" gradientUnits="userSpaceOnUse">
<stop offset="0.15" stop-color="#25B8FF"/>
<stop offset="0.85" stop-color="#FA02FF"/>
</linearGradient>
<linearGradient id="paint3_linear_2_3042" x1="5.43396" y1="5.69948" x2="34.0432" y2="34.9023" gradientUnits="userSpaceOnUse">
<stop offset="0.15" stop-color="#25B8FF"/>
<stop offset="0.85" stop-color="#FA02FF"/>
</linearGradient>
<linearGradient id="paint4_linear_2_3042" x1="5.43444" y1="5.69946" x2="34.0436" y2="34.9023" gradientUnits="userSpaceOnUse">
<stop offset="0.15" stop-color="#25B8FF"/>
<stop offset="0.85" stop-color="#FA02FF"/>
</linearGradient>
<linearGradient id="paint5_linear_2_3042" x1="5.43447" y1="5.69948" x2="34.0437" y2="34.9023" gradientUnits="userSpaceOnUse">
<stop offset="0.15" stop-color="#25B8FF"/>
<stop offset="0.85" stop-color="#FA02FF"/>
</linearGradient>
<linearGradient id="paint6_linear_2_3042" x1="5.43397" y1="5.69952" x2="34.0432" y2="34.9024" gradientUnits="userSpaceOnUse">
<stop offset="0.15" stop-color="#25B8FF"/>
<stop offset="0.85" stop-color="#FA02FF"/>
</linearGradient>
<linearGradient id="paint7_linear_2_3042" x1="5.43399" y1="5.69951" x2="34.0432" y2="34.9024" gradientUnits="userSpaceOnUse">
<stop offset="0.15" stop-color="#25B8FF"/>
<stop offset="0.85" stop-color="#FA02FF"/>
</linearGradient>
<linearGradient id="paint8_linear_2_3042" x1="5.43447" y1="5.69944" x2="34.0437" y2="34.9023" gradientUnits="userSpaceOnUse">
<stop offset="0.15" stop-color="#25B8FF"/>
<stop offset="0.85" stop-color="#FA02FF"/>
</linearGradient>
<linearGradient id="paint9_linear_2_3042" x1="5.43446" y1="5.69942" x2="34.0437" y2="34.9023" gradientUnits="userSpaceOnUse">
<stop offset="0.15" stop-color="#25B8FF"/>
<stop offset="0.85" stop-color="#FA02FF"/>
</linearGradient>
<linearGradient id="paint10_linear_2_3042" x1="5.43395" y1="5.69943" x2="34.0431" y2="34.9023" gradientUnits="userSpaceOnUse">
<stop offset="0.15" stop-color="#25B8FF"/>
<stop offset="0.85" stop-color="#FA02FF"/>
</linearGradient>
<linearGradient id="paint11_linear_2_3042" x1="5.43393" y1="5.69951" x2="34.0431" y2="34.9024" gradientUnits="userSpaceOnUse">
<stop offset="0.15" stop-color="#25B8FF"/>
<stop offset="0.85" stop-color="#FA02FF"/>
</linearGradient>
<linearGradient id="paint12_linear_2_3042" x1="5.43445" y1="5.69951" x2="34.0436" y2="34.9024" gradientUnits="userSpaceOnUse">
<stop offset="0.15" stop-color="#25B8FF"/>
<stop offset="0.85" stop-color="#FA02FF"/>
</linearGradient>
<linearGradient id="paint13_linear_2_3042" x1="26.0112" y1="18.0002" x2="26.0112" y2="33.9999" gradientUnits="userSpaceOnUse">
<stop stop-color="#FF0000"/>
<stop offset="1" stop-color="#CC0000"/>
</linearGradient>
<clipPath id="clip0_2_3042">
<rect x="0.0107422" y="-6.10352e-05" width="40" height="40" rx="8" fill="white"/>
</clipPath>
</defs>
</svg>
