<svg width="41" height="40" viewBox="0 0 41 40" fill="none" xmlns="http://www.w3.org/2000/svg">
<g clip-path="url(#clip0_2_2909)">
<rect x="0.0107422" y="-4.57764e-05" width="40" height="40" rx="8" fill="url(#paint0_linear_2_2909)"/>
<g filter="url(#filter0_d_2_2909)">
<path d="M13.7963 9.87546C13.7964 10.0067 13.8486 10.1324 13.9413 10.2252C14.0341 10.318 14.1599 10.3701 14.291 10.3703H15.1324V12.251H14.291C14.1598 12.251 14.034 12.3031 13.9412 12.3959C13.8484 12.4887 13.7963 12.6145 13.7963 12.7458C13.7963 12.877 13.8484 13.0028 13.9412 13.0956C14.034 13.1884 14.1598 13.2405 14.291 13.2405H15.1324V14.6829C15.1324 14.7991 15.0862 14.9106 15.004 14.9928C14.9218 15.0751 14.8103 15.1212 14.694 15.1212H13.2517V14.2799C13.2517 14.1486 13.1996 14.0228 13.1068 13.93C13.014 13.8372 12.8882 13.7851 12.757 13.7851C12.6257 13.7851 12.4999 13.8372 12.4071 13.93C12.3143 14.0228 12.2622 14.1486 12.2622 14.2799V15.1212H10.3815V14.2799C10.3815 14.1486 10.3294 14.0228 10.2366 13.93C10.1438 13.8372 10.0179 13.7851 9.8867 13.7851C9.75547 13.7851 9.62962 13.8372 9.53683 13.93C9.44404 14.0228 9.39191 14.1486 9.39191 14.2799V15.1212H7.94961C7.83338 15.1211 7.72195 15.0749 7.63977 14.9927C7.55758 14.9105 7.51136 14.7991 7.51123 14.6829V7.93835C7.51123 7.82209 7.55742 7.71058 7.63963 7.62837C7.72184 7.54616 7.83334 7.49997 7.94961 7.49997H14.694C14.7516 7.49991 14.8087 7.5112 14.8619 7.53321C14.9151 7.55522 14.9635 7.58751 15.0042 7.62823C15.0449 7.66895 15.0772 7.7173 15.0992 7.77052C15.1212 7.82373 15.1325 7.88077 15.1324 7.93835V9.38019H14.291C14.1598 9.38032 14.0339 9.43255 13.9411 9.52542C13.8484 9.61829 13.7963 9.74419 13.7963 9.87546V9.87546Z" fill="#9722FF"/>
<path d="M22.4062 9.87546C22.4062 10.0067 22.4583 10.1325 22.5511 10.2253C22.6439 10.3181 22.7697 10.3703 22.9009 10.3703H23.7447V12.251H22.9033C22.7721 12.251 22.6463 12.3031 22.5535 12.3959C22.4607 12.4887 22.4085 12.6145 22.4085 12.7458C22.4085 12.877 22.4607 13.0028 22.5535 13.0956C22.6463 13.1884 22.7721 13.2405 22.9033 13.2405H23.7447V14.6829C23.7446 14.7991 23.6984 14.9105 23.6162 14.9927C23.534 15.0749 23.4226 15.1211 23.3063 15.1212H16.5609C16.4447 15.1212 16.3332 15.0751 16.251 14.9928C16.1687 14.9106 16.1226 14.7991 16.1226 14.6829V13.2405H16.9635C17.0947 13.2405 17.2205 13.1884 17.3133 13.0956C17.4061 13.0028 17.4583 12.877 17.4583 12.7458C17.4583 12.6145 17.4061 12.4887 17.3133 12.3959C17.2205 12.3031 17.0947 12.251 16.9635 12.251H16.1226V10.3703H16.9635C17.0298 10.3723 17.0958 10.361 17.1577 10.3371C17.2195 10.3131 17.2759 10.277 17.3236 10.2308C17.3712 10.1847 17.4091 10.1294 17.4349 10.0683C17.4608 10.0072 17.4741 9.94156 17.4741 9.87522C17.4741 9.80889 17.4608 9.74323 17.4349 9.68214C17.4091 9.62106 17.3712 9.56579 17.3236 9.51962C17.2759 9.47344 17.2195 9.43731 17.1577 9.41336C17.0958 9.38941 17.0298 9.37813 16.9635 9.38019H16.1226V7.93835C16.1225 7.88077 16.1338 7.82373 16.1558 7.77052C16.1778 7.7173 16.2101 7.66895 16.2508 7.62823C16.2915 7.58751 16.3399 7.55522 16.3931 7.53321C16.4463 7.5112 16.5034 7.49991 16.5609 7.49997H23.3054C23.4216 7.49997 23.5331 7.54616 23.6154 7.62837C23.6976 7.71058 23.7438 7.82209 23.7438 7.93835V9.38019H22.9024C22.8372 9.38 22.7727 9.39268 22.7125 9.41749C22.6522 9.4423 22.5975 9.47876 22.5514 9.52477C22.5053 9.57079 22.4687 9.62545 22.4438 9.68563C22.4189 9.74581 22.4061 9.81033 22.4062 9.87546V9.87546Z" fill="#DC29DD"/>
<path d="M32.3546 7.93835V14.6829C32.3546 14.7991 32.3084 14.9106 32.2262 14.9928C32.144 15.0751 32.0325 15.1212 31.9162 15.1212H30.4739V14.2799C30.4739 14.1486 30.4218 14.0228 30.329 13.93C30.2362 13.8372 30.1104 13.7851 29.9791 13.7851C29.8479 13.7851 29.722 13.8372 29.6293 13.93C29.5365 14.0228 29.4843 14.1486 29.4843 14.2799V15.1212H27.6037V14.2799C27.6037 14.1486 27.5515 14.0228 27.4587 13.93C27.3659 13.8372 27.2401 13.7851 27.1089 13.7851C26.9776 13.7851 26.8518 13.8372 26.759 13.93C26.6662 14.0228 26.6141 14.1486 26.6141 14.2799V15.1212H25.1718C25.0556 15.1211 24.9441 15.0749 24.8619 14.9927C24.7798 14.9105 24.7335 14.7991 24.7334 14.6829V13.2405H25.5748C25.706 13.2405 25.8319 13.1884 25.9247 13.0956C26.0174 13.0028 26.0696 12.877 26.0696 12.7458C26.0696 12.6145 26.0174 12.4887 25.9247 12.3959C25.8319 12.3031 25.706 12.251 25.5748 12.251H24.7334V10.3703H25.5748C25.7034 10.3663 25.8254 10.3124 25.915 10.22C26.0046 10.1276 26.0547 10.0039 26.0547 9.87522C26.0547 9.74653 26.0046 9.6229 25.915 9.5305C25.8254 9.4381 25.7034 9.38419 25.5748 9.38019H24.7334V7.93835C24.7334 7.82209 24.7796 7.71058 24.8618 7.62837C24.944 7.54616 25.0555 7.49997 25.1718 7.49997H31.9162C31.9738 7.49991 32.0308 7.5112 32.0841 7.53321C32.1373 7.55522 32.1856 7.58751 32.2263 7.62823C32.2671 7.66895 32.2993 7.7173 32.3214 7.77052C32.3434 7.82373 32.3547 7.88077 32.3546 7.93835Z" fill="#27A2FD"/>
<path d="M15.1324 16.5492V23.2937C15.1325 23.3513 15.1212 23.4084 15.0992 23.4616C15.0772 23.5148 15.0449 23.5631 15.0042 23.6039C14.9635 23.6446 14.9151 23.6769 14.8619 23.6989C14.8087 23.7209 14.7516 23.7322 14.694 23.7321H13.2517V22.8907C13.2517 22.7595 13.1996 22.6336 13.1068 22.5409C13.014 22.4481 12.8882 22.3959 12.757 22.3959C12.6257 22.3959 12.4999 22.4481 12.4071 22.5409C12.3143 22.6336 12.2622 22.7595 12.2622 22.8907V23.7331H10.3815V22.8917C10.3815 22.7605 10.3294 22.6346 10.2366 22.5418C10.1438 22.449 10.0179 22.3969 9.8867 22.3969C9.75547 22.3969 9.62962 22.449 9.53683 22.5418C9.44404 22.6346 9.39191 22.7605 9.39191 22.8917V23.7331H7.94961C7.83334 23.7331 7.72184 23.6869 7.63963 23.6047C7.55742 23.5225 7.51123 23.411 7.51123 23.2947V16.5492C7.51136 16.433 7.55758 16.3216 7.63977 16.2394C7.72195 16.1572 7.83338 16.111 7.94961 16.1108H9.39191V16.9522C9.39191 17.0835 9.44404 17.2093 9.53683 17.3021C9.62962 17.3949 9.75547 17.447 9.8867 17.447C10.0179 17.447 10.1438 17.3949 10.2366 17.3021C10.3294 17.2093 10.3815 17.0835 10.3815 16.9522V16.1108H12.2622V16.9522C12.2622 17.0835 12.3143 17.2093 12.4071 17.3021C12.4999 17.3949 12.6257 17.447 12.757 17.447C12.8882 17.447 13.014 17.3949 13.1068 17.3021C13.1996 17.2093 13.2517 17.0835 13.2517 16.9522V16.1108H14.694C14.7516 16.1108 14.8086 16.1222 14.8618 16.1442C14.915 16.1662 14.9633 16.1985 15.004 16.2392C15.0447 16.2799 15.077 16.3283 15.0991 16.3815C15.1211 16.4346 15.1324 16.4917 15.1324 16.5492V16.5492Z" fill="#DC29DD"/>
<path d="M22.4062 18.4863C22.4062 18.6176 22.4583 18.7434 22.5511 18.8362C22.6439 18.929 22.7697 18.9811 22.9009 18.9811H23.7447V20.8618H22.9033C22.7721 20.8618 22.6463 20.914 22.5535 21.0067C22.4607 21.0995 22.4085 21.2254 22.4085 21.3566C22.4085 21.4879 22.4607 21.6137 22.5535 21.7065C22.6463 21.7993 22.7721 21.8514 22.9033 21.8514H23.7447V23.2937C23.7447 23.41 23.6985 23.5215 23.6163 23.6037C23.5341 23.6859 23.4226 23.7321 23.3063 23.7321H21.8631V22.8907C21.8631 22.7595 21.8109 22.6336 21.7182 22.5409C21.6254 22.4481 21.4995 22.3959 21.3683 22.3959C21.2371 22.3959 21.1112 22.4481 21.0184 22.5409C20.9256 22.6336 20.8735 22.7595 20.8735 22.8907V23.7331H18.9928V22.8917C18.9888 22.7631 18.9349 22.641 18.8425 22.5515C18.7501 22.4619 18.6265 22.4118 18.4978 22.4118C18.3691 22.4118 18.2455 22.4619 18.1531 22.5515C18.0607 22.641 18.0068 22.7631 18.0028 22.8917V23.7331H16.5609C16.5034 23.7331 16.4463 23.7218 16.3931 23.6998C16.3399 23.6778 16.2915 23.6455 16.2508 23.6048C16.2101 23.5641 16.1778 23.5157 16.1558 23.4625C16.1338 23.4093 16.1225 23.3523 16.1226 23.2947V16.5492C16.1226 16.433 16.1687 16.3215 16.251 16.2392C16.3332 16.157 16.4447 16.1108 16.5609 16.1108H23.3054C23.4216 16.111 23.533 16.1572 23.6152 16.2394C23.6974 16.3216 23.7436 16.433 23.7438 16.5492V17.9915H22.9024C22.8373 17.9913 22.7728 18.004 22.7126 18.0288C22.6524 18.0536 22.5977 18.09 22.5516 18.136C22.5055 18.1819 22.4689 18.2365 22.444 18.2967C22.419 18.3568 22.4062 18.4212 22.4062 18.4863V18.4863Z" fill="#27A2FD"/>
<path d="M32.3546 16.5492V23.2937C32.3547 23.3513 32.3434 23.4084 32.3214 23.4616C32.2993 23.5148 32.2671 23.5631 32.2263 23.6039C32.1856 23.6446 32.1373 23.6769 32.0841 23.6989C32.0308 23.7209 31.9738 23.7322 31.9162 23.7321H25.1718C25.0555 23.7321 24.944 23.6859 24.8618 23.6037C24.7796 23.5215 24.7334 23.41 24.7334 23.2937V21.8514H25.5748C25.706 21.8514 25.8319 21.7993 25.9247 21.7065C26.0174 21.6137 26.0696 21.4879 26.0696 21.3566C26.0696 21.2254 26.0174 21.0995 25.9247 21.0068C25.8319 20.914 25.706 20.8618 25.5748 20.8618H24.7334V18.9811H25.5748C25.706 18.9811 25.8319 18.929 25.9247 18.8362C26.0174 18.7434 26.0696 18.6176 26.0696 18.4863C26.0696 18.3551 26.0174 18.2293 25.9247 18.1365C25.8319 18.0437 25.706 17.9915 25.5748 17.9915H24.7334V16.5492C24.7335 16.433 24.7798 16.3216 24.8619 16.2394C24.9441 16.1572 25.0556 16.111 25.1718 16.1108H26.6131V16.9522C26.6131 17.0835 26.6653 17.2093 26.758 17.3021C26.8508 17.3949 26.9767 17.447 27.1079 17.447C27.2391 17.447 27.365 17.3949 27.4578 17.3021C27.5506 17.2093 27.6027 17.0835 27.6027 16.9522V16.1108H29.4834V16.9522C29.4834 17.0835 29.5355 17.2093 29.6283 17.3021C29.7211 17.3949 29.8469 17.447 29.9782 17.447C30.1094 17.447 30.2352 17.3949 30.328 17.3021C30.4208 17.2093 30.473 17.0835 30.473 16.9522V16.1108H31.9153C31.9729 16.1107 32.03 16.122 32.0833 16.1439C32.1366 16.1659 32.1851 16.1982 32.2259 16.2389C32.2667 16.2796 32.299 16.328 32.3211 16.3812C32.3432 16.4345 32.3546 16.4916 32.3546 16.5492Z" fill="#3344FF"/>
<path d="M13.7963 27.0977C13.7964 27.2289 13.8486 27.3546 13.9413 27.4474C14.0341 27.5402 14.1599 27.5923 14.291 27.5925H15.1324V29.4727H14.291C14.1624 29.4767 14.0404 29.5306 13.9508 29.623C13.8613 29.7154 13.8112 29.839 13.8112 29.9677C13.8112 30.0964 13.8613 30.2201 13.9508 30.3125C14.0404 30.4049 14.1624 30.4588 14.291 30.4628H15.1324V31.9051C15.1324 32.0213 15.0862 32.1328 15.004 32.2151C14.9218 32.2973 14.8103 32.3435 14.694 32.3435H7.94961C7.83338 32.3433 7.72195 32.2971 7.63977 32.2149C7.55758 32.1327 7.51136 32.0213 7.51123 31.9051V25.1606C7.51123 25.0443 7.55742 24.9328 7.63963 24.8506C7.72184 24.7684 7.83334 24.7222 7.94961 24.7222H9.39191V25.5631C9.39191 25.6943 9.44404 25.8202 9.53683 25.913C9.62962 26.0058 9.75547 26.0579 9.8867 26.0579C10.0179 26.0579 10.1438 26.0058 10.2366 25.913C10.3294 25.8202 10.3815 25.6943 10.3815 25.5631V24.7222H12.2622V25.5631C12.2622 25.6943 12.3143 25.8202 12.4071 25.913C12.4999 26.0058 12.6257 26.0579 12.757 26.0579C12.8882 26.0579 13.014 26.0058 13.1068 25.913C13.1996 25.8202 13.2517 25.6943 13.2517 25.5631V24.7222H14.694C14.7516 24.7221 14.8087 24.7334 14.8619 24.7554C14.9151 24.7774 14.9635 24.8097 15.0042 24.8504C15.0449 24.8912 15.0772 24.9395 15.0992 24.9927C15.1212 25.0459 15.1325 25.103 15.1324 25.1606V26.6014H14.291C14.226 26.6015 14.1615 26.6144 14.1014 26.6394C14.0413 26.6644 13.9868 26.7009 13.9408 26.747C13.8949 26.7931 13.8584 26.8478 13.8336 26.908C13.8088 26.9681 13.7961 27.0326 13.7963 27.0977Z" fill="#9722FF"/>
<path d="M23.7447 25.1606V31.9051C23.7446 32.0213 23.6984 32.1327 23.6162 32.2149C23.534 32.2971 23.4226 32.3433 23.3063 32.3435H16.5609C16.4447 32.3435 16.3332 32.2973 16.251 32.2151C16.1687 32.1328 16.1226 32.0213 16.1226 31.9051V30.4628H16.9635C17.0298 30.4648 17.0958 30.4535 17.1577 30.4296C17.2195 30.4056 17.2759 30.3695 17.3236 30.3233C17.3712 30.2772 17.4091 30.2219 17.4349 30.1608C17.4608 30.0997 17.4741 30.0341 17.4741 29.9677C17.4741 29.9014 17.4608 29.8357 17.4349 29.7746C17.4091 29.7136 17.3712 29.6583 17.3236 29.6121C17.2759 29.5659 17.2195 29.5298 17.1577 29.5059C17.0958 29.4819 17.0298 29.4706 16.9635 29.4727H16.1226V27.5925H16.9635C17.0298 27.5945 17.0958 27.5833 17.1577 27.5593C17.2195 27.5354 17.2759 27.4992 17.3236 27.453C17.3712 27.4069 17.4091 27.3516 17.4349 27.2905C17.4608 27.2294 17.4741 27.1638 17.4741 27.0974C17.4741 27.0311 17.4608 26.9654 17.4349 26.9044C17.4091 26.8433 17.3712 26.788 17.3236 26.7418C17.2759 26.6957 17.2195 26.6595 17.1577 26.6356C17.0958 26.6116 17.0298 26.6003 16.9635 26.6024H16.1226V25.1606C16.1225 25.103 16.1338 25.0459 16.1558 24.9927C16.1778 24.9395 16.2101 24.8912 16.2508 24.8504C16.2915 24.8097 16.3399 24.7774 16.3931 24.7554C16.4463 24.7334 16.5034 24.7221 16.5609 24.7222H18.0028V25.5631C18.0007 25.6294 18.012 25.6954 18.0359 25.7573C18.0599 25.8192 18.096 25.8756 18.1422 25.9232C18.1884 25.9708 18.2436 26.0087 18.3047 26.0346C18.3658 26.0604 18.4315 26.0738 18.4978 26.0738C18.5641 26.0738 18.6298 26.0604 18.6909 26.0346C18.752 26.0087 18.8072 25.9708 18.8534 25.9232C18.8996 25.8756 18.9357 25.8192 18.9596 25.7573C18.9836 25.6954 18.9949 25.6294 18.9928 25.5631V24.7222H20.8735V25.5631C20.8735 25.6281 20.8863 25.6924 20.9112 25.7524C20.936 25.8125 20.9725 25.867 21.0184 25.913C21.0644 25.9589 21.1189 25.9954 21.1789 26.0202C21.239 26.0451 21.3033 26.0579 21.3683 26.0579C21.4333 26.0579 21.4976 26.0451 21.5576 26.0202C21.6177 25.9954 21.6722 25.9589 21.7182 25.913C21.7641 25.867 21.8005 25.8125 21.8254 25.7524C21.8503 25.6924 21.8631 25.6281 21.8631 25.5631V24.7222H23.3054C23.363 24.7221 23.4201 24.7333 23.4734 24.7553C23.5267 24.7773 23.5752 24.8095 23.616 24.8502C23.6568 24.891 23.6892 24.9393 23.7113 24.9926C23.7333 25.0458 23.7447 25.1029 23.7447 25.1606V25.1606Z" fill="#3344FF"/>
<path d="M29.8124 25.0318L25.0434 29.8009C24.8722 29.9721 24.8722 30.2497 25.0434 30.4209L29.8124 35.19C29.9836 35.3612 30.2612 35.3612 30.4324 35.19L35.2014 30.4209C35.3726 30.2497 35.3726 29.9721 35.2014 29.8009L30.4324 25.0318C30.2612 24.8606 29.9836 24.8606 29.8124 25.0318Z" fill="#9722FF"/>
<g opacity="0.7">
<mask id="path-12-outside-1_2_2909" maskUnits="userSpaceOnUse" x="16.0117" y="16.0002" width="20" height="20" fill="black">
<rect fill="white" x="16.0117" y="16.0002" width="20" height="20"/>
<path fill-rule="evenodd" clip-rule="evenodd" d="M19.9824 18.1466C19.7872 17.9514 19.4706 17.9514 19.2754 18.1466L18.1591 19.2632C17.9639 19.4585 17.9639 19.7751 18.1591 19.9704L24.188 26.0009L18.1582 32.0296C17.9629 32.2249 17.9629 32.5414 18.1582 32.7367L19.2747 33.853C19.47 34.0483 19.7866 34.0483 19.9819 33.853L26.0113 27.8247L32.0384 33.8534C32.2337 34.0487 32.5502 34.0487 32.7454 33.8534L33.8617 32.7368C34.0569 32.5415 34.0569 32.2249 33.8617 32.0296L27.835 26.0013L33.8642 19.9731C34.0595 19.7778 34.0595 19.4613 33.8642 19.266L32.7477 18.1497C32.5524 17.9544 32.2358 17.9544 32.0405 18.1497L26.0117 24.1775L19.9824 18.1466Z"/>
</mask>
<path fill-rule="evenodd" clip-rule="evenodd" d="M19.9824 18.1466C19.7872 17.9514 19.4706 17.9514 19.2754 18.1466L18.1591 19.2632C17.9639 19.4585 17.9639 19.7751 18.1591 19.9704L24.188 26.0009L18.1582 32.0296C17.9629 32.2249 17.9629 32.5414 18.1582 32.7367L19.2747 33.853C19.47 34.0483 19.7866 34.0483 19.9819 33.853L26.0113 27.8247L32.0384 33.8534C32.2337 34.0487 32.5502 34.0487 32.7454 33.8534L33.8617 32.7368C34.0569 32.5415 34.0569 32.2249 33.8617 32.0296L27.835 26.0013L33.8642 19.9731C34.0595 19.7778 34.0595 19.4613 33.8642 19.266L32.7477 18.1497C32.5524 17.9544 32.2358 17.9544 32.0405 18.1497L26.0117 24.1775L19.9824 18.1466Z" fill="url(#paint1_linear_2_2909)"/>
<path d="M19.2754 18.1466L18.2146 17.0861L19.2754 18.1466ZM19.9824 18.1466L21.0432 17.0861L19.9824 18.1466ZM18.1591 19.2632L17.0983 18.2027L17.0983 18.2027L18.1591 19.2632ZM18.1591 19.9704L17.0983 21.0309L17.0983 21.0309L18.1591 19.9704ZM24.188 26.0009L25.2485 27.0616L26.3092 26.0011L25.2488 24.9404L24.188 26.0009ZM18.1582 32.0296L17.0976 30.9689L17.0976 30.9689L18.1582 32.0296ZM18.1582 32.7367L17.0976 33.7974L17.0976 33.7974L18.1582 32.7367ZM19.2747 33.853L20.3353 32.7923L20.3353 32.7923L19.2747 33.853ZM19.9819 33.853L18.9213 32.7923L18.9213 32.7923L19.9819 33.853ZM26.0112 27.8246L27.072 26.7641L26.0115 25.7033L24.9507 26.7639L26.0112 27.8246ZM32.0384 33.8534L30.9776 34.9139L30.9776 34.9139L32.0384 33.8534ZM32.7454 33.8534L31.6846 32.7929L31.6846 32.7929L32.7454 33.8534ZM33.8617 32.7368L34.9225 33.7973L34.9225 33.7973L33.8617 32.7368ZM33.8617 32.0296L32.8009 33.0901L32.8009 33.0901L33.8617 32.0296ZM27.8349 26.0013L26.7744 24.9405L25.7137 26.001L26.7741 27.0618L27.8349 26.0013ZM33.8642 19.973L32.8036 18.9123L32.8036 18.9123L33.8642 19.973ZM33.8642 19.266L34.9247 18.2053L34.9247 18.2053L33.8642 19.266ZM32.7477 18.1497L33.8082 17.0889L33.8082 17.0889L32.7477 18.1497ZM32.0405 18.1497L30.9799 17.0889L30.9799 17.0889L32.0405 18.1497ZM26.0116 24.1775L24.9508 25.238L26.0114 26.2989L27.0722 25.2383L26.0116 24.1775ZM20.3362 19.2072C19.9456 19.5978 19.3122 19.5978 18.9216 19.2072L21.0432 17.0861C20.2621 16.3049 18.9956 16.3049 18.2146 17.0861L20.3362 19.2072ZM19.2199 20.3237L20.3362 19.2072L18.2146 17.0861L17.0983 18.2027L19.2199 20.3237ZM19.2199 18.9099C19.6102 19.3003 19.6102 19.9333 19.2199 20.3237L17.0983 18.2027C16.3174 18.9837 16.3174 20.2499 17.0983 21.0309L19.2199 18.9099ZM25.2488 24.9404L19.2199 18.9099L17.0983 21.0309L23.1272 27.0614L25.2488 24.9404ZM19.2187 33.0904L25.2485 27.0616L23.1274 24.9401L17.0976 30.9689L19.2187 33.0904ZM19.2187 31.6759C19.6094 32.0665 19.6094 32.6998 19.2187 33.0904L17.0976 30.9689C16.3164 31.7499 16.3164 33.0164 17.0976 33.7974L19.2187 31.6759ZM20.3353 32.7923L19.2187 31.6759L17.0976 33.7974L18.2141 34.9138L20.3353 32.7923ZM18.9213 32.7923C19.3118 32.4018 19.9448 32.4018 20.3353 32.7923L18.2141 34.9138C18.9952 35.6947 20.2614 35.6947 21.0424 34.9138L18.9213 32.7923ZM24.9507 26.7639L18.9213 32.7923L21.0424 34.9138L27.0718 28.8854L24.9507 26.7639ZM33.0992 32.7929L27.072 26.7641L24.9504 28.8852L30.9776 34.9139L33.0992 32.7929ZM31.6846 32.7929C32.0752 32.4022 32.7086 32.4022 33.0992 32.7929L30.9776 34.9139C31.7586 35.6952 33.0251 35.6952 33.8062 34.9139L31.6846 32.7929ZM32.8009 31.6763L31.6846 32.7929L33.8062 34.9139L34.9225 33.7973L32.8009 31.6763ZM32.8009 33.0901C32.4105 32.6997 32.4105 32.0667 32.8009 31.6763L34.9225 33.7973C35.7033 33.0163 35.7033 31.7501 34.9225 30.9691L32.8009 33.0901ZM26.7741 27.0618L32.8009 33.0901L34.9225 30.9691L28.8957 24.9408L26.7741 27.0618ZM32.8036 18.9123L26.7744 24.9405L28.8955 27.062L34.9247 21.0338L32.8036 18.9123ZM32.8036 20.3268C32.413 19.9362 32.413 19.3029 32.8036 18.9123L34.9247 21.0338C35.7059 20.2527 35.7059 18.9863 34.9247 18.2053L32.8036 20.3268ZM31.6871 19.2104L32.8036 20.3268L34.9247 18.2053L33.8082 17.0889L31.6871 19.2104ZM33.1011 19.2104C32.7106 19.6008 32.0776 19.6008 31.6871 19.2104L33.8082 17.0889C33.0272 16.308 31.761 16.308 30.9799 17.0889L33.1011 19.2104ZM27.0722 25.2383L33.1011 19.2104L30.9799 17.0889L24.9511 23.1168L27.0722 25.2383ZM18.9216 19.2072L24.9508 25.238L27.0724 23.117L21.0432 17.0861L18.9216 19.2072Z" fill="black" mask="url(#path-12-outside-1_2_2909)"/>
</g>
</g>
</g>
<rect x="1.06074" y="1.04995" width="37.9" height="37.9" rx="6.95" stroke="white" stroke-opacity="0.15" stroke-width="2.1"/>
<defs>
<filter id="filter0_d_2_2909" x="2.01074" y="1.99995" width="37.5" height="37.4999" filterUnits="userSpaceOnUse" color-interpolation-filters="sRGB">
<feFlood flood-opacity="0" result="BackgroundImageFix"/>
<feColorMatrix in="SourceAlpha" type="matrix" values="0 0 0 0 0 0 0 0 0 0 0 0 0 0 0 0 0 0 127 0" result="hardAlpha"/>
<feOffset/>
<feGaussianBlur stdDeviation="2"/>
<feComposite in2="hardAlpha" operator="out"/>
<feColorMatrix type="matrix" values="0 0 0 0 0 0 0 0 0 0 0 0 0 0 0 0 0 0 0.25 0"/>
<feBlend mode="normal" in2="BackgroundImageFix" result="effect1_dropShadow_2_2909"/>
<feBlend mode="normal" in="SourceGraphic" in2="effect1_dropShadow_2_2909" result="shape"/>
</filter>
<linearGradient id="paint0_linear_2_2909" x1="20.0107" y1="-4.57764e-05" x2="20.0107" y2="39.9999" gradientUnits="userSpaceOnUse">
<stop stop-color="#2C1B1B"/>
<stop offset="1" stop-color="#1F1414"/>
</linearGradient>
<linearGradient id="paint1_linear_2_2909" x1="26.0112" y1="18.0002" x2="26.0112" y2="33.9998" gradientUnits="userSpaceOnUse">
<stop stop-color="#FF0000"/>
<stop offset="1" stop-color="#CC0000"/>
</linearGradient>
<clipPath id="clip0_2_2909">
<rect x="0.0107422" y="-4.57764e-05" width="40" height="40" rx="8" fill="white"/>
</clipPath>
</defs>
</svg>
