<svg width="41" height="40" viewBox="0 0 41 40" fill="none" xmlns="http://www.w3.org/2000/svg">
<g clip-path="url(#clip0_2_2899)">
<rect x="0.0107422" y="-3.05176e-05" width="40" height="40" rx="8" fill="url(#paint0_linear_2_2899)"/>
<g filter="url(#filter0_d_2_2899)">
<path d="M6.4082 12.4545H11.323L14.7037 20.6932H14.8741L18.2548 12.4545H23.1696V27H19.3059V18.5909H19.1923L15.9537 26.8864H13.6241L10.3855 18.5341H10.2718V27H6.4082V12.4545ZM25.041 27V12.4545H28.9899V23.8182H34.8706V27H25.041Z" fill="#AEAEAE"/>
<g opacity="0.7">
<mask id="path-4-outside-1_2_2899" maskUnits="userSpaceOnUse" x="16.0117" y="16.0002" width="20" height="20" fill="black">
<rect fill="white" x="16.0117" y="16.0002" width="20" height="20"/>
<path fill-rule="evenodd" clip-rule="evenodd" d="M19.9824 18.1467C19.7872 17.9514 19.4706 17.9514 19.2754 18.1467L18.1591 19.2632C17.9639 19.4585 17.9639 19.7751 18.1591 19.9704L24.188 26.0009L18.1582 32.0296C17.9629 32.2249 17.9629 32.5415 18.1582 32.7367L19.2747 33.853C19.47 34.0483 19.7866 34.0483 19.9819 33.853L26.0113 27.8247L32.0384 33.8534C32.2337 34.0487 32.5502 34.0487 32.7454 33.8534L33.8617 32.7368C34.0569 32.5415 34.0569 32.2249 33.8617 32.0296L27.835 26.0013L33.8642 19.9731C34.0595 19.7778 34.0595 19.4613 33.8642 19.266L32.7477 18.1497C32.5524 17.9544 32.2358 17.9544 32.0405 18.1497L26.0117 24.1775L19.9824 18.1467Z"/>
</mask>
<path fill-rule="evenodd" clip-rule="evenodd" d="M19.9824 18.1467C19.7872 17.9514 19.4706 17.9514 19.2754 18.1467L18.1591 19.2632C17.9639 19.4585 17.9639 19.7751 18.1591 19.9704L24.188 26.0009L18.1582 32.0296C17.9629 32.2249 17.9629 32.5415 18.1582 32.7367L19.2747 33.853C19.47 34.0483 19.7866 34.0483 19.9819 33.853L26.0113 27.8247L32.0384 33.8534C32.2337 34.0487 32.5502 34.0487 32.7454 33.8534L33.8617 32.7368C34.0569 32.5415 34.0569 32.2249 33.8617 32.0296L27.835 26.0013L33.8642 19.9731C34.0595 19.7778 34.0595 19.4613 33.8642 19.266L32.7477 18.1497C32.5524 17.9544 32.2358 17.9544 32.0405 18.1497L26.0117 24.1775L19.9824 18.1467Z" fill="url(#paint1_linear_2_2899)"/>
<path d="M19.2754 18.1466L18.2146 17.0861L19.2754 18.1466ZM19.9824 18.1466L21.0432 17.0861L19.9824 18.1466ZM18.1591 19.2632L17.0983 18.2027L17.0983 18.2027L18.1591 19.2632ZM18.1591 19.9704L17.0983 21.0309L17.0983 21.0309L18.1591 19.9704ZM24.188 26.0009L25.2485 27.0616L26.3092 26.0011L25.2488 24.9404L24.188 26.0009ZM18.1582 32.0296L17.0976 30.9689L17.0976 30.9689L18.1582 32.0296ZM18.1582 32.7367L17.0976 33.7974L17.0976 33.7974L18.1582 32.7367ZM19.2747 33.853L20.3353 32.7923L20.3353 32.7923L19.2747 33.853ZM19.9819 33.853L18.9213 32.7923L18.9213 32.7923L19.9819 33.853ZM26.0112 27.8247L27.072 26.7641L26.0115 25.7033L24.9507 26.7639L26.0112 27.8247ZM32.0384 33.8534L30.9776 34.9139L30.9776 34.9139L32.0384 33.8534ZM32.7454 33.8534L31.6846 32.7929L31.6846 32.7929L32.7454 33.8534ZM33.8617 32.7368L34.9225 33.7973L34.9225 33.7973L33.8617 32.7368ZM33.8617 32.0296L32.8009 33.0901L32.8009 33.0901L33.8617 32.0296ZM27.8349 26.0013L26.7744 24.9405L25.7137 26.0011L26.7741 27.0618L27.8349 26.0013ZM33.8642 19.9731L32.8036 18.9123L32.8036 18.9123L33.8642 19.9731ZM33.8642 19.266L34.9247 18.2053L34.9247 18.2053L33.8642 19.266ZM32.7477 18.1497L33.8082 17.0889L33.8082 17.0889L32.7477 18.1497ZM32.0405 18.1497L30.9799 17.0889L30.9799 17.0889L32.0405 18.1497ZM26.0116 24.1775L24.9508 25.238L26.0114 26.2989L27.0722 25.2383L26.0116 24.1775ZM20.3362 19.2072C19.9456 19.5979 19.3122 19.5979 18.9216 19.2072L21.0432 17.0861C20.2621 16.3049 18.9956 16.3049 18.2146 17.0861L20.3362 19.2072ZM19.2199 20.3237L20.3362 19.2072L18.2146 17.0861L17.0983 18.2027L19.2199 20.3237ZM19.2199 18.9099C19.6102 19.3004 19.6102 19.9333 19.2199 20.3237L17.0983 18.2027C16.3174 18.9837 16.3174 20.2499 17.0983 21.0309L19.2199 18.9099ZM25.2488 24.9404L19.2199 18.9099L17.0983 21.0309L23.1272 27.0614L25.2488 24.9404ZM19.2187 33.0904L25.2485 27.0616L23.1274 24.9401L17.0976 30.9689L19.2187 33.0904ZM19.2187 31.6759C19.6094 32.0665 19.6094 32.6998 19.2187 33.0904L17.0976 30.9689C16.3164 31.7499 16.3164 33.0164 17.0976 33.7974L19.2187 31.6759ZM20.3353 32.7923L19.2187 31.6759L17.0976 33.7974L18.2141 34.9138L20.3353 32.7923ZM18.9213 32.7923C19.3118 32.4018 19.9448 32.4018 20.3353 32.7923L18.2141 34.9138C18.9952 35.6947 20.2614 35.6947 21.0424 34.9138L18.9213 32.7923ZM24.9507 26.7639L18.9213 32.7923L21.0424 34.9138L27.0718 28.8854L24.9507 26.7639ZM33.0992 32.7929L27.072 26.7641L24.9504 28.8852L30.9776 34.9139L33.0992 32.7929ZM31.6846 32.7929C32.0752 32.4022 32.7086 32.4022 33.0992 32.7929L30.9776 34.9139C31.7586 35.6952 33.0251 35.6952 33.8062 34.9139L31.6846 32.7929ZM32.8009 31.6763L31.6846 32.7929L33.8062 34.9139L34.9225 33.7973L32.8009 31.6763ZM32.8009 33.0901C32.4105 32.6997 32.4105 32.0668 32.8009 31.6763L34.9225 33.7973C35.7033 33.0163 35.7033 31.7501 34.9225 30.9691L32.8009 33.0901ZM26.7741 27.0618L32.8009 33.0901L34.9225 30.9691L28.8957 24.9408L26.7741 27.0618ZM32.8036 18.9123L26.7744 24.9405L28.8955 27.062L34.9247 21.0338L32.8036 18.9123ZM32.8036 20.3268C32.413 19.9362 32.413 19.3029 32.8036 18.9123L34.9247 21.0338C35.7059 20.2528 35.7059 18.9863 34.9247 18.2053L32.8036 20.3268ZM31.6871 19.2104L32.8036 20.3268L34.9247 18.2053L33.8082 17.0889L31.6871 19.2104ZM33.1011 19.2104C32.7106 19.6008 32.0776 19.6008 31.6871 19.2104L33.8082 17.0889C33.0272 16.308 31.761 16.308 30.9799 17.0889L33.1011 19.2104ZM27.0722 25.2383L33.1011 19.2104L30.9799 17.0889L24.9511 23.1168L27.0722 25.2383ZM18.9216 19.2072L24.9508 25.238L27.0724 23.117L21.0432 17.0861L18.9216 19.2072Z" fill="black" mask="url(#path-4-outside-1_2_2899)"/>
</g>
</g>
</g>
<rect x="1.06074" y="1.04997" width="37.9" height="37.9" rx="6.95" stroke="white" stroke-opacity="0.15" stroke-width="2.1"/>
<defs>
<filter id="filter0_d_2_2899" x="2.01074" y="1.99997" width="37.5" height="37.4999" filterUnits="userSpaceOnUse" color-interpolation-filters="sRGB">
<feFlood flood-opacity="0" result="BackgroundImageFix"/>
<feColorMatrix in="SourceAlpha" type="matrix" values="0 0 0 0 0 0 0 0 0 0 0 0 0 0 0 0 0 0 127 0" result="hardAlpha"/>
<feOffset/>
<feGaussianBlur stdDeviation="2"/>
<feComposite in2="hardAlpha" operator="out"/>
<feColorMatrix type="matrix" values="0 0 0 0 0 0 0 0 0 0 0 0 0 0 0 0 0 0 0.25 0"/>
<feBlend mode="normal" in2="BackgroundImageFix" result="effect1_dropShadow_2_2899"/>
<feBlend mode="normal" in="SourceGraphic" in2="effect1_dropShadow_2_2899" result="shape"/>
</filter>
<linearGradient id="paint0_linear_2_2899" x1="20.0107" y1="-3.05176e-05" x2="20.0107" y2="40" gradientUnits="userSpaceOnUse">
<stop stop-color="#2C1B1B"/>
<stop offset="1" stop-color="#1F1414"/>
</linearGradient>
<linearGradient id="paint1_linear_2_2899" x1="26.0112" y1="18.0002" x2="26.0112" y2="33.9999" gradientUnits="userSpaceOnUse">
<stop stop-color="#FF0000"/>
<stop offset="1" stop-color="#CC0000"/>
</linearGradient>
<clipPath id="clip0_2_2899">
<rect x="0.0107422" y="-3.05176e-05" width="40" height="40" rx="8" fill="white"/>
</clipPath>
</defs>
</svg>
