<svg width="41" height="40" viewBox="0 0 41 40" fill="none" xmlns="http://www.w3.org/2000/svg">
<g clip-path="url(#clip0_2_2985)">
<rect x="0.0107422" y="-6.10352e-05" width="40" height="40" rx="8" fill="url(#paint0_linear_2_2985)"/>
<g filter="url(#filter0_d_2_2985)">
<path fill-rule="evenodd" clip-rule="evenodd" d="M20.5357 8.05885C20.2245 8.15821 19.9853 8.3381 19.7143 8.67675C19.6381 8.77193 19.5068 8.80548 19.3361 8.77337C19.1337 8.73527 18.3653 8.68555 16.3539 8.58049C15.7661 8.54975 15.6469 8.56649 15.5414 8.69414C15.2893 8.99916 15.3573 9.98191 15.6451 10.1955C15.7272 10.2564 16.1739 10.2654 16.6137 10.2151C16.8506 10.188 17.0865 10.1639 17.6285 10.1112C17.7646 10.098 17.9873 10.0761 18.1234 10.0625C18.2595 10.0489 18.5435 10.0208 18.7545 9.99995C18.9654 9.97917 19.2753 9.93363 19.443 9.89871L19.7478 9.83528L19.839 9.8964C20.1051 10.075 20.1785 10.2042 20.1405 10.428C20.0692 10.8484 20.0618 11.0797 20.0721 12.5637C20.0848 14.3961 20.1276 14.234 19.6207 14.2737C19.3037 14.2985 19.1804 14.3886 19.1249 14.6363C19.0982 14.7549 19.1044 15.8853 19.1333 16.1939C19.1515 16.3875 18.9993 16.4977 18.6511 16.5431C18.3088 16.5876 18.2262 16.7834 18.2995 17.377C18.3154 17.506 18.2369 17.6102 18.0347 17.7286C17.8511 17.8361 17.8125 18.0907 17.9567 18.2429C18.114 18.4087 18.1218 18.4914 17.9973 18.6718C17.8677 18.8595 17.8648 18.8888 17.8637 20.0371C17.8624 21.1909 17.8476 21.3794 17.7461 21.5306C17.5992 21.7492 16.8786 22.4134 16.7086 22.4867C16.6569 22.509 16.218 22.5211 15.0422 22.5328C14.1642 22.5415 13.4153 22.557 13.378 22.5673C13.227 22.6088 13.0875 22.5606 12.9523 22.42C12.7638 22.2243 12.785 22.227 11.4907 22.2405C10.219 22.2538 10.2325 22.2556 10.2021 22.0741C10.1677 21.8697 10.1476 21.8037 10.0648 21.6238C9.90725 21.2814 9.7683 21.2145 9.32942 21.2695C9.04972 21.3045 8.98651 21.3807 8.91801 21.7655C8.83208 22.2477 8.74261 22.3487 8.48664 22.2521C8.31805 22.1886 8.29252 22.1873 7.62991 22.2101C7.58905 22.2114 7.5147 22.2053 7.46464 22.1964C7.41134 22.187 7.33431 22.1934 7.27898 22.212C7.22697 22.2295 7.1009 22.2464 6.99878 22.2495C6.54181 22.2635 6.46564 22.2869 6.3612 22.446C6.13084 22.7966 5.93613 24.7569 6.03891 25.6913C6.15601 26.7564 6.30327 27.2613 6.52351 27.3525C6.82591 27.4777 8.13267 27.5355 8.47543 27.4387L8.65271 27.3887L8.7322 27.4451C8.83599 27.5189 8.8919 27.6506 8.94145 27.9383C9.00083 28.2831 9.06231 28.3603 9.31596 28.408C9.48912 28.4406 9.72368 28.4277 9.82906 28.3798C10.0515 28.2786 10.1758 27.5863 10.0411 27.1981C9.9641 26.976 10.0217 26.9232 10.1229 27.1231C10.2651 27.4038 10.4112 27.432 11.7258 27.4321C12.9157 27.4321 12.8301 27.4528 12.9968 27.1251C13.1309 26.8616 13.1918 26.8131 13.3796 26.8199C13.4569 26.8227 14.077 26.8345 14.7576 26.8462C16.1156 26.8694 15.9865 26.8541 16.4157 27.0432C17.5398 27.5382 18.7707 27.8171 20.3136 27.9263C21.1619 27.9863 22.3289 27.9606 23.0608 27.8657C24.3767 27.6951 25.2443 27.4759 26.142 27.0872C26.7962 26.8039 27.0861 26.9541 27.2205 27.6458C27.3256 28.1866 27.3004 28.2662 26.9835 28.3947C26.5368 28.5759 26.26 28.7624 26.1942 28.9265C26.1466 29.0452 26.1688 29.1757 26.2969 29.5308C26.3312 29.6259 26.3625 29.7648 26.3666 29.8395C26.3782 30.0514 26.4 30.1384 26.4752 30.2725C26.5135 30.341 26.552 30.452 26.5609 30.5194C26.5813 30.6765 26.6412 30.8623 26.7117 30.9876C26.7455 31.0476 26.7736 31.151 26.7831 31.2506C26.8275 31.7156 27.0288 31.8511 27.7878 31.9268C27.8763 31.9356 27.975 31.9468 28.0073 31.9517C29.5498 32.1876 31.6805 31.5435 33.2125 30.3782C33.927 29.8348 34.1068 29.5772 33.9668 29.2971C33.9439 29.2512 33.9255 29.1564 33.9255 29.0835C33.9255 28.9407 33.8537 28.7201 33.7745 28.6196C33.747 28.5847 33.7198 28.5071 33.7142 28.4471C33.7034 28.3319 33.6263 28.1145 33.5657 28.0281C33.5458 27.9998 33.5296 27.9404 33.5296 27.8962C33.5296 27.8046 33.4692 27.6368 33.4006 27.5378C33.3751 27.501 33.3382 27.4171 33.3187 27.3516C33.2173 27.0113 32.6409 26.8056 32.057 26.9013C31.5567 26.9832 31.5226 26.965 31.378 26.541C30.9179 25.1914 30.2914 24.1951 29.5668 23.6605C29.2916 23.4575 29.1887 23.4106 28.159 23.0186C27.1492 22.6343 26.8937 22.5268 26.4311 22.2919C26.1545 22.1515 25.8483 21.9851 25.7505 21.9221C24.2554 20.9597 24.4167 21.2117 24.3622 19.7522C24.3256 18.7706 24.3177 18.7319 24.1254 18.5777C23.9692 18.4525 23.9465 18.3946 23.9898 18.2321C24.0644 17.9528 24.0253 17.8294 23.8177 17.6882C23.6554 17.5779 23.6331 17.5308 23.6583 17.3523C23.7432 16.7502 23.6462 16.5341 23.2729 16.4938C23.047 16.4694 22.9523 16.4392 22.8878 16.3707L22.8295 16.3087L22.8276 15.426C22.825 14.2538 22.8331 14.2715 22.2936 14.245C21.9079 14.2261 21.8191 14.2043 21.7385 14.1088L21.6749 14.0333L21.6746 12.3747C21.6745 11.4111 21.6639 10.6242 21.6493 10.4968C21.6197 10.2393 21.6234 10.2304 21.8529 10.0152C22.0283 9.85058 22.1394 9.78376 22.207 9.80209C22.6052 9.91033 22.5407 9.9052 24.719 10.0009C26.3906 10.0743 26.3764 10.0759 26.5131 9.80281C26.6921 9.44518 26.5712 8.47766 26.3351 8.37801C26.2543 8.34395 25.9349 8.34532 25.6346 8.38111C25.4129 8.40759 25.3543 8.41409 24.2735 8.53279C22.9309 8.68021 22.9049 8.68339 22.5746 8.7409C22.2515 8.79711 22.2324 8.79084 22.047 8.56721C21.6509 8.08937 21.0612 7.891 20.5357 8.05885Z" fill="url(#paint1_linear_2_2985)"/>
<g opacity="0.7">
<mask id="path-4-outside-1_2_2985" maskUnits="userSpaceOnUse" x="16.0117" y="16.0002" width="20" height="20" fill="black">
<rect fill="white" x="16.0117" y="16.0002" width="20" height="20"/>
<path fill-rule="evenodd" clip-rule="evenodd" d="M19.9824 18.1466C19.7871 17.9514 19.4706 17.9514 19.2754 18.1466L18.1591 19.2632C17.9638 19.4585 17.9638 19.7751 18.1591 19.9704L24.188 26.0009L18.1582 32.0297C17.9629 32.2249 17.9629 32.5415 18.1582 32.7367L19.2747 33.8531C19.47 34.0483 19.7866 34.0483 19.9819 33.8531L26.0113 27.8247L32.0384 33.8534C32.2336 34.0487 32.5502 34.0487 32.7454 33.8534L33.8617 32.7368C34.0569 32.5415 34.0569 32.2249 33.8617 32.0296L27.8349 26.0013L33.8642 19.9731C34.0595 19.7778 34.0595 19.4613 33.8642 19.266L32.7477 18.1497C32.5524 17.9545 32.2358 17.9545 32.0405 18.1497L26.0117 24.1775L19.9824 18.1466Z"/>
</mask>
<path fill-rule="evenodd" clip-rule="evenodd" d="M19.9824 18.1466C19.7871 17.9514 19.4706 17.9514 19.2754 18.1466L18.1591 19.2632C17.9638 19.4585 17.9638 19.7751 18.1591 19.9704L24.188 26.0009L18.1582 32.0297C17.9629 32.2249 17.9629 32.5415 18.1582 32.7367L19.2747 33.8531C19.47 34.0483 19.7866 34.0483 19.9819 33.8531L26.0113 27.8247L32.0384 33.8534C32.2336 34.0487 32.5502 34.0487 32.7454 33.8534L33.8617 32.7368C34.0569 32.5415 34.0569 32.2249 33.8617 32.0296L27.8349 26.0013L33.8642 19.9731C34.0595 19.7778 34.0595 19.4613 33.8642 19.266L32.7477 18.1497C32.5524 17.9545 32.2358 17.9545 32.0405 18.1497L26.0117 24.1775L19.9824 18.1466Z" fill="url(#paint2_linear_2_2985)"/>
<path d="M19.2754 18.1466L18.2146 17.0861L19.2754 18.1466ZM19.9824 18.1466L21.0432 17.0861L19.9824 18.1466ZM18.1591 19.2632L17.0983 18.2027L17.0983 18.2027L18.1591 19.2632ZM18.1591 19.9704L17.0983 21.0309H17.0983L18.1591 19.9704ZM24.188 26.0009L25.2485 27.0617L26.3092 26.0011L25.2488 24.9404L24.188 26.0009ZM18.1582 32.0297L17.0976 30.9689H17.0976L18.1582 32.0297ZM18.1582 32.7367L17.0976 33.7975L17.0976 33.7975L18.1582 32.7367ZM19.2747 33.8531L20.3353 32.7923H20.3353L19.2747 33.8531ZM19.9819 33.8531L18.9213 32.7923H18.9213L19.9819 33.8531ZM26.0113 27.8247L27.0721 26.7642L26.0115 25.7033L24.9507 26.7639L26.0113 27.8247ZM32.0384 33.8534L30.9776 34.9139L32.0384 33.8534ZM32.7454 33.8534L31.6846 32.7929L31.6846 32.7929L32.7454 33.8534ZM33.8617 32.7368L34.9225 33.7973L34.9225 33.7973L33.8617 32.7368ZM33.8617 32.0296L32.8009 33.0901L33.8617 32.0296ZM27.8349 26.0013L26.7744 24.9405L25.7137 26.0011L26.7741 27.0618L27.8349 26.0013ZM33.8642 19.9731L32.8036 18.9123L32.8036 18.9123L33.8642 19.9731ZM33.8642 19.266L34.9247 18.2053L34.9247 18.2053L33.8642 19.266ZM32.7477 18.1497L33.8082 17.089L33.8082 17.089L32.7477 18.1497ZM32.0405 18.1497L30.9799 17.089L30.9799 17.089L32.0405 18.1497ZM26.0117 24.1775L24.9509 25.238L26.0114 26.2989L27.0722 25.2383L26.0117 24.1775ZM20.3362 19.2072C19.9456 19.5979 19.3122 19.5979 18.9216 19.2072L21.0432 17.0861C20.2621 16.3049 18.9956 16.3049 18.2146 17.0861L20.3362 19.2072ZM19.2199 20.3237L20.3362 19.2072L18.2146 17.0861L17.0983 18.2027L19.2199 20.3237ZM19.2199 18.9099C19.6102 19.3004 19.6102 19.9333 19.2199 20.3237L17.0983 18.2027C16.3174 18.9837 16.3174 20.2499 17.0983 21.0309L19.2199 18.9099ZM25.2488 24.9404L19.2199 18.9099L17.0983 21.0309L23.1272 27.0614L25.2488 24.9404ZM19.2187 33.0904L25.2485 27.0617L23.1274 24.9402L17.0976 30.9689L19.2187 33.0904ZM19.2187 31.676C19.6094 32.0665 19.6094 32.6999 19.2187 33.0904L17.0976 30.9689C16.3164 31.75 16.3164 33.0164 17.0976 33.7975L19.2187 31.676ZM20.3353 32.7923L19.2187 31.676L17.0976 33.7975L18.2141 34.9138L20.3353 32.7923ZM18.9213 32.7923C19.3118 32.4019 19.9448 32.4019 20.3353 32.7923L18.2141 34.9138C18.9952 35.6947 20.2614 35.6947 21.0424 34.9138L18.9213 32.7923ZM24.9507 26.7639L18.9213 32.7923L21.0424 34.9138L27.0718 28.8854L24.9507 26.7639ZM33.0992 32.7929L27.0721 26.7642L24.9505 28.8852L30.9776 34.9139L33.0992 32.7929ZM31.6846 32.7929C32.0752 32.4022 32.7086 32.4022 33.0992 32.7929L30.9776 34.9139C31.7586 35.6952 33.0251 35.6952 33.8062 34.9139L31.6846 32.7929ZM32.8009 31.6763L31.6846 32.7929L33.8062 34.9139L34.9225 33.7973L32.8009 31.6763ZM32.8009 33.0901C32.4105 32.6997 32.4105 32.0668 32.8009 31.6763L34.9225 33.7973C35.7033 33.0163 35.7033 31.7501 34.9225 30.9691L32.8009 33.0901ZM26.7741 27.0618L32.8009 33.0901L34.9225 30.9691L28.8957 24.9408L26.7741 27.0618ZM32.8036 18.9123L26.7744 24.9405L28.8955 27.062L34.9247 21.0338L32.8036 18.9123ZM32.8036 20.3268C32.413 19.9362 32.413 19.3029 32.8036 18.9123L34.9247 21.0338C35.7059 20.2528 35.7059 18.9863 34.9247 18.2053L32.8036 20.3268ZM31.6871 19.2105L32.8036 20.3268L34.9247 18.2053L33.8082 17.089L31.6871 19.2105ZM33.1011 19.2105C32.7106 19.6009 32.0776 19.6009 31.6871 19.2105L33.8082 17.089C33.0272 16.3081 31.761 16.308 30.9799 17.089L33.1011 19.2105ZM27.0722 25.2383L33.1011 19.2105L30.9799 17.089L24.9511 23.1168L27.0722 25.2383ZM18.9216 19.2072L24.9509 25.238L27.0725 23.117L21.0432 17.0861L18.9216 19.2072Z" fill="black" mask="url(#path-4-outside-1_2_2985)"/>
</g>
</g>
</g>
<rect x="1.06074" y="1.04994" width="37.9" height="37.9" rx="6.95" stroke="white" stroke-opacity="0.15" stroke-width="2.1"/>
<defs>
<filter id="filter0_d_2_2985" x="2.01074" y="1.99994" width="37.5" height="37.4999" filterUnits="userSpaceOnUse" color-interpolation-filters="sRGB">
<feFlood flood-opacity="0" result="BackgroundImageFix"/>
<feColorMatrix in="SourceAlpha" type="matrix" values="0 0 0 0 0 0 0 0 0 0 0 0 0 0 0 0 0 0 127 0" result="hardAlpha"/>
<feOffset/>
<feGaussianBlur stdDeviation="2"/>
<feComposite in2="hardAlpha" operator="out"/>
<feColorMatrix type="matrix" values="0 0 0 0 0 0 0 0 0 0 0 0 0 0 0 0 0 0 0.25 0"/>
<feBlend mode="normal" in2="BackgroundImageFix" result="effect1_dropShadow_2_2985"/>
<feBlend mode="normal" in="SourceGraphic" in2="effect1_dropShadow_2_2985" result="shape"/>
</filter>
<linearGradient id="paint0_linear_2_2985" x1="20.0107" y1="-6.10351e-05" x2="20.0107" y2="39.9999" gradientUnits="userSpaceOnUse">
<stop stop-color="#2C1B1B"/>
<stop offset="1" stop-color="#1F1414"/>
</linearGradient>
<linearGradient id="paint1_linear_2_2985" x1="20.0107" y1="8.00006" x2="20.0107" y2="32.0001" gradientUnits="userSpaceOnUse">
<stop stop-color="#CEA260"/>
<stop offset="1" stop-color="#81562E"/>
</linearGradient>
<linearGradient id="paint2_linear_2_2985" x1="26.0112" y1="18.0002" x2="26.0112" y2="33.9999" gradientUnits="userSpaceOnUse">
<stop stop-color="#FF0000"/>
<stop offset="1" stop-color="#CC0000"/>
</linearGradient>
<clipPath id="clip0_2_2985">
<rect x="0.0107422" y="-6.10352e-05" width="40" height="40" rx="8" fill="white"/>
</clipPath>
</defs>
</svg>
