<svg width="41" height="40" viewBox="0 0 41 40" fill="none" xmlns="http://www.w3.org/2000/svg">
<g clip-path="url(#clip0_2_3064)">
<rect x="0.0107422" y="-6.10352e-05" width="40" height="40" rx="8" fill="url(#paint0_linear_2_3064)"/>
<g filter="url(#filter0_d_2_3064)">
<g clip-path="url(#clip1_2_3064)">
<path d="M32.6107 5.99994H7.41074C6.64074 5.99994 6.01074 6.62994 6.01074 7.39994V32.5999C6.01074 33.3699 6.64074 33.9999 7.41074 33.9999H9.66474C9.42674 27.6019 9.65074 26.6499 10.0987 26.0199C10.6447 25.2359 10.8687 25.1379 11.6947 24.4799C12.3947 23.9199 12.1427 23.0099 11.6387 22.3519C11.3307 21.9459 10.8967 21.4699 10.5607 21.0079C10.3507 20.6999 10.8687 18.8939 11.0647 18.2359C11.2607 17.5779 11.5967 15.4359 14.5367 14.8619C15.6427 14.6379 18.6807 14.4839 20.7667 14.6099C20.7527 14.5259 20.7247 14.4279 20.7107 14.3299C20.6687 14.1619 20.6407 13.9799 20.5987 13.7839C20.5567 13.6019 20.5147 13.4059 20.4727 13.2099C20.4307 13.0139 20.3747 12.8179 20.3327 12.6079C20.2767 12.3979 20.2347 12.2019 20.1647 11.9919C20.0527 11.5719 19.9127 11.1659 19.7447 10.7739C19.6607 10.5779 19.5767 10.3959 19.4787 10.2279C19.3807 10.0739 19.2827 9.93394 19.1987 9.87794C19.1847 9.86394 19.1707 9.84994 19.1567 9.84994H19.1427H19.1707C19.1707 9.84994 19.1847 9.84994 19.1707 9.84994L19.1287 9.83594H19.1007L19.0447 9.82194H18.9747C18.7927 9.80794 18.5967 9.80794 18.3867 9.82194C17.9807 9.84994 17.5467 9.93394 17.1267 10.0319C16.7067 10.1299 16.3007 10.2559 15.9087 10.3679C15.7407 10.4239 15.5867 10.4799 15.4327 10.5219C15.4467 10.6479 15.4607 10.7599 15.4607 10.8859C15.4607 12.7059 13.9907 14.1759 12.1707 14.1759C10.3507 14.1759 8.89474 12.7059 8.89474 10.8859C8.89474 9.06594 10.3647 7.59594 12.1847 7.59594C13.4027 7.59594 14.4667 8.25394 15.0407 9.24794C15.1807 9.19194 15.3347 9.13594 15.4887 9.07994C15.8807 8.92594 16.3147 8.77194 16.7627 8.63194C17.2247 8.49194 17.7007 8.35194 18.2327 8.28194C18.4987 8.23994 18.7787 8.22594 19.0867 8.23994H19.1987C19.2407 8.23994 19.2827 8.25394 19.3107 8.25394H19.4087L19.4507 8.26794H19.4647L19.5067 8.28194C19.5067 8.28194 19.5347 8.28194 19.5487 8.29594L19.6047 8.30994C19.6887 8.33794 19.7307 8.35194 19.7867 8.37994C19.8427 8.40794 19.8847 8.42194 19.9407 8.44994C20.0387 8.50594 20.1227 8.56194 20.2067 8.61794C20.3607 8.74394 20.4867 8.86994 20.5847 8.99594C20.6967 9.12194 20.7807 9.24794 20.8647 9.37394C21.0327 9.62594 21.1587 9.86394 21.2707 10.1019C21.4947 10.5779 21.6767 11.0539 21.8167 11.5019L22.0267 12.1739C22.0967 12.3979 22.1387 12.6079 22.1947 12.8179C22.2227 12.9159 22.2507 13.0279 22.2647 13.1259C22.2927 13.2239 22.3067 13.3219 22.3347 13.4199C22.3767 13.6159 22.4187 13.8119 22.4607 13.9939C22.5167 14.2739 22.5587 14.5399 22.6007 14.7779C25.7367 15.0859 28.1307 15.4919 29.2087 16.5699C30.7907 18.1099 32.0087 25.1099 31.2107 33.9999H32.6107C33.3807 33.9999 34.0107 33.3699 34.0107 32.5999V7.39994C34.0107 6.62994 33.3807 5.99994 32.6107 5.99994Z" fill="#F7CF0D"/>
<path d="M18.8067 25.7119C18.6247 26.2159 18.4707 32.1099 20.2067 32.1099C21.9427 32.1099 21.9567 26.0619 21.9007 25.7119C21.8447 25.3759 18.9887 25.2219 18.8067 25.7119ZM16.5107 19.9999C15.3207 19.8319 14.6067 25.6279 16.2727 25.9639C17.8407 26.2719 17.6867 20.1679 16.5107 19.9999ZM24.3227 19.9999C23.1327 19.8319 22.4187 25.6279 24.0847 25.9639C25.6527 26.2719 25.5127 20.1679 24.3227 19.9999Z" fill="#F7CF0D"/>
</g>
<g opacity="0.7">
<mask id="path-5-outside-1_2_3064" maskUnits="userSpaceOnUse" x="16.0117" y="16.0002" width="20" height="20" fill="black">
<rect fill="white" x="16.0117" y="16.0002" width="20" height="20"/>
<path fill-rule="evenodd" clip-rule="evenodd" d="M19.9824 18.1466C19.7871 17.9514 19.4706 17.9514 19.2754 18.1466L18.1591 19.2632C17.9638 19.4585 17.9638 19.7751 18.1591 19.9704L24.188 26.0009L18.1582 32.0297C17.9629 32.2249 17.9629 32.5415 18.1582 32.7367L19.2747 33.8531C19.47 34.0483 19.7866 34.0483 19.9819 33.8531L26.0113 27.8247L32.0384 33.8534C32.2336 34.0487 32.5502 34.0487 32.7454 33.8534L33.8617 32.7368C34.0569 32.5415 34.0569 32.2249 33.8617 32.0296L27.835 26.0013L33.8642 19.9731C34.0595 19.7779 34.0595 19.4613 33.8642 19.2661L32.7477 18.1497C32.5524 17.9545 32.2358 17.9545 32.0405 18.1497L26.0117 24.1775L19.9824 18.1466Z"/>
</mask>
<path fill-rule="evenodd" clip-rule="evenodd" d="M19.9824 18.1466C19.7871 17.9514 19.4706 17.9514 19.2754 18.1466L18.1591 19.2632C17.9638 19.4585 17.9638 19.7751 18.1591 19.9704L24.188 26.0009L18.1582 32.0297C17.9629 32.2249 17.9629 32.5415 18.1582 32.7367L19.2747 33.8531C19.47 34.0483 19.7866 34.0483 19.9819 33.8531L26.0113 27.8247L32.0384 33.8534C32.2336 34.0487 32.5502 34.0487 32.7454 33.8534L33.8617 32.7368C34.0569 32.5415 34.0569 32.2249 33.8617 32.0296L27.835 26.0013L33.8642 19.9731C34.0595 19.7779 34.0595 19.4613 33.8642 19.2661L32.7477 18.1497C32.5524 17.9545 32.2358 17.9545 32.0405 18.1497L26.0117 24.1775L19.9824 18.1466Z" fill="url(#paint1_linear_2_3064)"/>
<path d="M19.2754 18.1466L18.2146 17.0861L19.2754 18.1466ZM19.9824 18.1466L21.0432 17.0861L19.9824 18.1466ZM18.1591 19.2632L17.0983 18.2027L17.0983 18.2027L18.1591 19.2632ZM18.1591 19.9704L17.0983 21.0309H17.0983L18.1591 19.9704ZM24.188 26.0009L25.2485 27.0617L26.3092 26.0011L25.2488 24.9404L24.188 26.0009ZM18.1582 32.0297L17.0976 30.9689H17.0976L18.1582 32.0297ZM18.1582 32.7367L17.0976 33.7975L17.0976 33.7975L18.1582 32.7367ZM19.2747 33.8531L20.3353 32.7923L20.3353 32.7923L19.2747 33.8531ZM19.9819 33.8531L18.9213 32.7923L18.9213 32.7923L19.9819 33.8531ZM26.0113 27.8247L27.0721 26.7642L26.0115 25.7033L24.9507 26.7639L26.0113 27.8247ZM32.0384 33.8534L30.9776 34.9139L32.0384 33.8534ZM32.7454 33.8534L31.6846 32.7929L31.6846 32.7929L32.7454 33.8534ZM33.8617 32.7368L34.9225 33.7973L34.9225 33.7973L33.8617 32.7368ZM33.8617 32.0296L32.8009 33.0901L33.8617 32.0296ZM27.835 26.0013L26.7744 24.9406L25.7137 26.0011L26.7741 27.0618L27.835 26.0013ZM33.8642 19.9731L32.8036 18.9123L32.8036 18.9124L33.8642 19.9731ZM33.8642 19.2661L34.9247 18.2053L34.9247 18.2053L33.8642 19.2661ZM32.7477 18.1497L33.8082 17.089L33.8082 17.089L32.7477 18.1497ZM32.0405 18.1497L30.9799 17.089L30.9799 17.089L32.0405 18.1497ZM26.0117 24.1775L24.9509 25.2381L26.0114 26.2989L27.0722 25.2383L26.0117 24.1775ZM20.3362 19.2072C19.9456 19.5979 19.3122 19.5979 18.9216 19.2072L21.0432 17.0861C20.2621 16.3049 18.9956 16.3049 18.2146 17.0861L20.3362 19.2072ZM19.2199 20.3237L20.3362 19.2072L18.2146 17.0861L17.0983 18.2027L19.2199 20.3237ZM19.2199 18.9099C19.6102 19.3004 19.6102 19.9333 19.2199 20.3237L17.0983 18.2027C16.3174 18.9837 16.3174 20.2499 17.0983 21.0309L19.2199 18.9099ZM25.2488 24.9404L19.2199 18.9099L17.0983 21.0309L23.1272 27.0614L25.2488 24.9404ZM19.2187 33.0904L25.2485 27.0617L23.1274 24.9402L17.0976 30.9689L19.2187 33.0904ZM19.2187 31.676C19.6094 32.0665 19.6094 32.6999 19.2187 33.0904L17.0976 30.9689C16.3164 31.75 16.3164 33.0164 17.0976 33.7975L19.2187 31.676ZM20.3353 32.7923L19.2187 31.676L17.0976 33.7975L18.2141 34.9138L20.3353 32.7923ZM18.9213 32.7923C19.3118 32.4019 19.9448 32.4019 20.3353 32.7923L18.2141 34.9138C18.9952 35.6947 20.2614 35.6947 21.0424 34.9138L18.9213 32.7923ZM24.9507 26.7639L18.9213 32.7923L21.0424 34.9138L27.0718 28.8854L24.9507 26.7639ZM33.0992 32.7929L27.0721 26.7642L24.9505 28.8852L30.9776 34.9139L33.0992 32.7929ZM31.6846 32.7929C32.0752 32.4022 32.7086 32.4022 33.0992 32.7929L30.9776 34.9139C31.7586 35.6952 33.0251 35.6952 33.8062 34.9139L31.6846 32.7929ZM32.8009 31.6763L31.6846 32.7929L33.8062 34.9139L34.9225 33.7973L32.8009 31.6763ZM32.8009 33.0901C32.4105 32.6997 32.4105 32.0668 32.8009 31.6763L34.9225 33.7973C35.7033 33.0163 35.7033 31.7501 34.9225 30.9691L32.8009 33.0901ZM26.7741 27.0618L32.8009 33.0901L34.9225 30.9691L28.8958 24.9408L26.7741 27.0618ZM32.8036 18.9124L26.7744 24.9406L28.8955 27.0621L34.9247 21.0339L32.8036 18.9124ZM32.8036 20.3268C32.413 19.9362 32.413 19.3029 32.8036 18.9123L34.9247 21.0339C35.7059 20.2528 35.7059 18.9864 34.9247 18.2053L32.8036 20.3268ZM31.6871 19.2105L32.8036 20.3268L34.9247 18.2053L33.8082 17.089L31.6871 19.2105ZM33.1011 19.2105C32.7106 19.6009 32.0776 19.6009 31.6871 19.2105L33.8082 17.089C33.0272 16.3081 31.761 16.3081 30.9799 17.089L33.1011 19.2105ZM27.0722 25.2383L33.1011 19.2105L30.9799 17.089L24.9511 23.1168L27.0722 25.2383ZM18.9216 19.2072L24.9509 25.2381L27.0725 23.117L21.0432 17.0861L18.9216 19.2072Z" fill="black" mask="url(#path-5-outside-1_2_3064)"/>
</g>
</g>
</g>
<rect x="1.06074" y="1.04994" width="37.9" height="37.9" rx="6.95" stroke="white" stroke-opacity="0.15" stroke-width="2.1"/>
<defs>
<filter id="filter0_d_2_3064" x="2.01074" y="1.99994" width="37.5" height="37.4999" filterUnits="userSpaceOnUse" color-interpolation-filters="sRGB">
<feFlood flood-opacity="0" result="BackgroundImageFix"/>
<feColorMatrix in="SourceAlpha" type="matrix" values="0 0 0 0 0 0 0 0 0 0 0 0 0 0 0 0 0 0 127 0" result="hardAlpha"/>
<feOffset/>
<feGaussianBlur stdDeviation="2"/>
<feComposite in2="hardAlpha" operator="out"/>
<feColorMatrix type="matrix" values="0 0 0 0 0 0 0 0 0 0 0 0 0 0 0 0 0 0 0.25 0"/>
<feBlend mode="normal" in2="BackgroundImageFix" result="effect1_dropShadow_2_3064"/>
<feBlend mode="normal" in="SourceGraphic" in2="effect1_dropShadow_2_3064" result="shape"/>
</filter>
<linearGradient id="paint0_linear_2_3064" x1="20.0107" y1="-6.10351e-05" x2="20.0107" y2="39.9999" gradientUnits="userSpaceOnUse">
<stop stop-color="#2C1B1B"/>
<stop offset="1" stop-color="#1F1414"/>
</linearGradient>
<linearGradient id="paint1_linear_2_3064" x1="26.0112" y1="18.0002" x2="26.0112" y2="33.9999" gradientUnits="userSpaceOnUse">
<stop stop-color="#FF0000"/>
<stop offset="1" stop-color="#CC0000"/>
</linearGradient>
<clipPath id="clip0_2_3064">
<rect x="0.0107422" y="-6.10352e-05" width="40" height="40" rx="8" fill="white"/>
</clipPath>
<clipPath id="clip1_2_3064">
<rect width="28" height="28" fill="white" transform="translate(6.01074 5.99994)"/>
</clipPath>
</defs>
</svg>
