<svg width="41" height="40" viewBox="0 0 41 40" fill="none" xmlns="http://www.w3.org/2000/svg">
<g clip-path="url(#clip0_2_3017)">
<rect x="0.0107422" y="-6.10352e-05" width="40" height="40" rx="8" fill="url(#paint0_linear_2_3017)"/>
<g filter="url(#filter0_d_2_3017)">
<path d="M9.69524 26.8552C9.49466 26.9232 9.30145 27.0006 9.08968 26.9993V26.9993C8.68966 26.997 8.31373 26.8075 8.05632 26.5013C7.8084 26.2064 7.56418 25.9152 7.33651 25.6116C6.76265 24.8464 6.21863 24.059 5.65318 23.2874C5.40037 22.9424 5.11843 22.6187 4.86372 22.275C4.59925 21.9182 4.35235 21.5484 4.09443 21.1866V21.1866C4.06649 21.1474 4.01073 21.1426 4.01076 21.0945C4.01085 20.9174 4.01153 20.7401 4.01641 20.5603C4.02112 20.3867 4.1145 20.2392 4.23158 20.1108C4.25024 20.0903 4.26665 20.0689 4.27991 20.0456C4.44142 19.7625 4.57642 19.4644 4.73457 19.1792C5.46669 17.8588 6.19247 16.5348 6.94616 15.2267C7.1177 14.929 7.189 14.5315 7.55929 14.3846C7.79389 14.2915 8.0475 14.2416 8.2961 14.1889C9.14737 14.0083 9.9996 13.832 10.8526 13.6596C11.7757 13.4729 12.7003 13.2933 13.6232 13.1054V13.1054C13.7069 13.0884 13.7548 12.9999 13.8402 13C13.9765 13.0001 14.1132 13.0007 14.2509 13.003C14.5111 13.0074 14.7664 13.1054 14.9568 13.2828C15.0084 13.3308 15.0562 13.3805 15.0972 13.4354C15.5064 13.9826 15.9015 14.5406 16.292 15.1014C16.4446 15.3206 16.6067 15.4257 16.903 15.425C22.1523 15.4121 27.4017 15.4156 32.651 15.4157C33.0889 15.4157 33.3661 15.6784 33.367 16.0933C33.368 16.5353 33.104 16.7881 32.6407 16.7881C30.1996 16.7882 27.7585 16.7882 25.3174 16.7882C25.1889 16.7882 25.0603 16.7839 24.932 16.789C24.5846 16.8027 24.2277 17.0656 24.1698 17.3461C24.0901 17.732 24.2771 18.0807 24.6557 18.2281C24.7437 18.2623 24.8471 18.2687 24.9434 18.2688C26.6137 18.2712 28.2839 18.2722 29.9541 18.2696C30.553 18.2687 30.8663 18.7856 30.6534 19.2909C30.5165 19.6156 30.2173 19.6924 29.9046 19.6951C28.9686 19.7032 28.0325 19.698 27.0964 19.698C25.4812 19.698 23.866 19.6975 22.2509 19.6983C21.824 19.6986 21.5581 20.0006 21.5159 20.4172C21.4752 20.8189 21.939 21.1862 22.3876 21.1853C26.5448 21.1769 30.7021 21.1805 34.8593 21.1801C35.2637 21.1801 35.6913 21.1049 35.9607 21.5215C35.9659 21.5295 35.9766 21.532 35.9846 21.5268V21.5268C35.9958 21.5195 36.0108 21.5276 36.0107 21.541C36.0107 21.7096 36.0101 21.8789 36.0002 22.0603C35.9954 22.1478 35.9498 22.2276 35.88 22.2806C35.6807 22.4319 35.5065 22.568 35.217 22.5654C32.6663 22.5424 30.1152 22.5527 27.5643 22.553C27.0831 22.5531 26.7104 22.8744 26.7015 23.2853C26.6933 23.6638 27.0126 24.0497 27.5429 24.0415C28.8089 24.022 30.0754 24.0376 31.3417 24.0342C31.9465 24.0325 32.2131 24.5842 32.0481 24.988C31.917 25.3089 31.6686 25.4626 31.216 25.4626C26.1508 25.4627 21.0857 25.4626 16.0205 25.4635C15.9308 25.4635 15.7999 25.4403 15.758 25.4884C15.5145 25.7676 15.1617 25.7729 14.8523 25.8366C13.1547 26.1861 11.4506 26.5043 9.75012 26.8404C9.73157 26.844 9.7133 26.8491 9.69524 26.8552ZM13.9731 14.3096C13.6922 14.1803 13.3417 14.3547 13.1593 14.6044V14.6044C12.9986 14.8244 12.8711 15.0695 12.7389 15.3091C12.2141 16.2599 11.7037 17.2189 11.1634 18.1609C11.0135 18.4222 10.8132 18.6824 10.5726 18.8557C10.3708 19.001 10.0804 19.0371 9.82275 19.0905C8.55325 19.3536 7.28136 19.6051 6.01089 19.8635C5.74379 19.9178 5.55993 20.0898 5.50419 20.3467C5.43832 20.6503 5.49779 20.9284 5.78203 21.1294C6.06167 21.3272 6.33934 21.2448 6.63333 21.1839C7.80789 20.9402 8.98356 20.7012 10.1622 20.4781C10.6023 20.3948 11.0275 20.4908 11.3076 20.8589C12.0941 21.8925 12.8568 22.9441 13.6291 23.9884C13.8857 24.3353 14.2894 24.4137 14.6286 24.1829C14.9304 23.9776 15.0238 23.4943 14.7946 23.1776C14.096 22.2124 13.3898 21.2526 12.6772 20.2976C12.416 19.9476 12.2049 19.5869 12.3333 19.1366C12.39 18.9375 12.5009 18.7515 12.6017 18.5675C12.9626 17.9095 13.3351 17.2578 13.6926 16.5979C13.9525 16.1182 14.2136 15.6376 14.4386 15.1414C14.5534 14.8882 14.4165 14.6497 14.2173 14.4784C14.1416 14.4133 14.0622 14.3506 13.9731 14.3096Z" fill="white"/>
<path d="M31.5986 18.6754C31.8977 18.2943 32.1259 18.2081 32.4727 18.326C32.7719 18.4276 32.9852 18.7874 32.9257 19.09C32.8563 19.4423 32.4831 19.741 32.167 19.6971C31.8144 19.6481 31.5474 19.3543 31.5518 19.0097C31.5531 18.9052 31.5782 18.8011 31.5986 18.6754Z" fill="white"/>
<g opacity="0.7">
<mask id="path-5-outside-1_2_3017" maskUnits="userSpaceOnUse" x="16.0117" y="16.0002" width="20" height="20" fill="black">
<rect fill="white" x="16.0117" y="16.0002" width="20" height="20"/>
<path fill-rule="evenodd" clip-rule="evenodd" d="M19.9824 18.1467C19.7872 17.9514 19.4706 17.9514 19.2754 18.1467L18.1591 19.2633C17.9639 19.4585 17.9639 19.7752 18.1591 19.9705L24.188 26.0009L18.1582 32.0297C17.9629 32.2249 17.9629 32.5415 18.1582 32.7367L19.2747 33.8531C19.47 34.0483 19.7866 34.0483 19.9819 33.8531L26.0113 27.8247L32.0384 33.8534C32.2337 34.0487 32.5502 34.0487 32.7454 33.8534L33.8617 32.7369C34.0569 32.5416 34.0569 32.2249 33.8617 32.0297L27.835 26.0013L33.8642 19.9731C34.0595 19.7779 34.0595 19.4613 33.8642 19.2661L32.7477 18.1497C32.5524 17.9545 32.2358 17.9545 32.0405 18.1497L26.0117 24.1776L19.9824 18.1467Z"/>
</mask>
<path fill-rule="evenodd" clip-rule="evenodd" d="M19.9824 18.1467C19.7872 17.9514 19.4706 17.9514 19.2754 18.1467L18.1591 19.2633C17.9639 19.4585 17.9639 19.7752 18.1591 19.9705L24.188 26.0009L18.1582 32.0297C17.9629 32.2249 17.9629 32.5415 18.1582 32.7367L19.2747 33.8531C19.47 34.0483 19.7866 34.0483 19.9819 33.8531L26.0113 27.8247L32.0384 33.8534C32.2337 34.0487 32.5502 34.0487 32.7454 33.8534L33.8617 32.7369C34.0569 32.5416 34.0569 32.2249 33.8617 32.0297L27.835 26.0013L33.8642 19.9731C34.0595 19.7779 34.0595 19.4613 33.8642 19.2661L32.7477 18.1497C32.5524 17.9545 32.2358 17.9545 32.0405 18.1497L26.0117 24.1776L19.9824 18.1467Z" fill="url(#paint1_linear_2_3017)"/>
<path d="M19.2754 18.1466L18.2146 17.0861L19.2754 18.1466ZM19.9824 18.1466L21.0432 17.0861L19.9824 18.1466ZM18.1591 19.2632L17.0983 18.2027L17.0983 18.2027L18.1591 19.2632ZM18.1591 19.9704L17.0983 21.0309L17.0983 21.0309L18.1591 19.9704ZM24.188 26.0009L25.2485 27.0616L26.3092 26.0011L25.2488 24.9404L24.188 26.0009ZM18.1582 32.0296L17.0976 30.9689L17.0976 30.9689L18.1582 32.0296ZM18.1582 32.7367L17.0976 33.7974L17.0976 33.7974L18.1582 32.7367ZM19.2747 33.853L20.3353 32.7923L20.3353 32.7923L19.2747 33.853ZM19.9819 33.853L18.9213 32.7923L18.9213 32.7923L19.9819 33.853ZM26.0112 27.8247L27.072 26.7641L26.0115 25.7033L24.9507 26.7639L26.0112 27.8247ZM32.0384 33.8534L30.9776 34.9139L30.9776 34.9139L32.0384 33.8534ZM32.7454 33.8534L31.6846 32.7929L31.6846 32.7929L32.7454 33.8534ZM33.8617 32.7368L34.9225 33.7973L34.9225 33.7973L33.8617 32.7368ZM33.8617 32.0296L32.8009 33.0901L32.8009 33.0901L33.8617 32.0296ZM27.8349 26.0013L26.7744 24.9405L25.7137 26.0011L26.7741 27.0618L27.8349 26.0013ZM33.8642 19.9731L32.8036 18.9123L32.8036 18.9123L33.8642 19.9731ZM33.8642 19.266L34.9247 18.2053L34.9247 18.2053L33.8642 19.266ZM32.7477 18.1497L33.8082 17.0889L33.8082 17.0889L32.7477 18.1497ZM32.0405 18.1497L30.9799 17.0889L30.9799 17.0889L32.0405 18.1497ZM26.0116 24.1775L24.9508 25.238L26.0114 26.2989L27.0722 25.2383L26.0116 24.1775ZM20.3362 19.2072C19.9456 19.5979 19.3122 19.5979 18.9216 19.2072L21.0432 17.0861C20.2621 16.3049 18.9956 16.3049 18.2146 17.0861L20.3362 19.2072ZM19.2199 20.3237L20.3362 19.2072L18.2146 17.0861L17.0983 18.2027L19.2199 20.3237ZM19.2199 18.9099C19.6102 19.3004 19.6102 19.9333 19.2199 20.3237L17.0983 18.2027C16.3174 18.9837 16.3174 20.2499 17.0983 21.0309L19.2199 18.9099ZM25.2488 24.9404L19.2199 18.9099L17.0983 21.0309L23.1272 27.0614L25.2488 24.9404ZM19.2187 33.0904L25.2485 27.0616L23.1274 24.9401L17.0976 30.9689L19.2187 33.0904ZM19.2187 31.6759C19.6094 32.0665 19.6094 32.6998 19.2187 33.0904L17.0976 30.9689C16.3164 31.75 16.3164 33.0164 17.0976 33.7974L19.2187 31.6759ZM20.3353 32.7923L19.2187 31.6759L17.0976 33.7974L18.2141 34.9138L20.3353 32.7923ZM18.9213 32.7923C19.3118 32.4019 19.9448 32.4019 20.3353 32.7923L18.2141 34.9138C18.9952 35.6947 20.2614 35.6947 21.0424 34.9138L18.9213 32.7923ZM24.9507 26.7639L18.9213 32.7923L21.0424 34.9138L27.0718 28.8854L24.9507 26.7639ZM33.0992 32.7929L27.072 26.7641L24.9504 28.8852L30.9776 34.9139L33.0992 32.7929ZM31.6846 32.7929C32.0752 32.4022 32.7086 32.4022 33.0992 32.7929L30.9776 34.9139C31.7586 35.6952 33.0251 35.6952 33.8062 34.9139L31.6846 32.7929ZM32.8009 31.6763L31.6846 32.7929L33.8062 34.9139L34.9225 33.7973L32.8009 31.6763ZM32.8009 33.0901C32.4105 32.6997 32.4105 32.0668 32.8009 31.6763L34.9225 33.7973C35.7033 33.0163 35.7033 31.7501 34.9225 30.9691L32.8009 33.0901ZM26.7741 27.0618L32.8009 33.0901L34.9225 30.9691L28.8957 24.9408L26.7741 27.0618ZM32.8036 18.9123L26.7744 24.9405L28.8955 27.062L34.9247 21.0338L32.8036 18.9123ZM32.8036 20.3268C32.413 19.9362 32.413 19.3029 32.8036 18.9123L34.9247 21.0338C35.7059 20.2528 35.7059 18.9863 34.9247 18.2053L32.8036 20.3268ZM31.6871 19.2104L32.8036 20.3268L34.9247 18.2053L33.8082 17.0889L31.6871 19.2104ZM33.1011 19.2104C32.7106 19.6009 32.0776 19.6009 31.6871 19.2104L33.8082 17.0889C33.0272 16.308 31.761 16.308 30.9799 17.0889L33.1011 19.2104ZM27.0722 25.2383L33.1011 19.2104L30.9799 17.0889L24.9511 23.1168L27.0722 25.2383ZM18.9216 19.2072L24.9508 25.238L27.0724 23.117L21.0432 17.0861L18.9216 19.2072Z" fill="black" mask="url(#path-5-outside-1_2_3017)"/>
</g>
</g>
</g>
<rect x="1.06074" y="1.04994" width="37.9" height="37.9" rx="6.95" stroke="white" stroke-opacity="0.15" stroke-width="2.1"/>
<defs>
<filter id="filter0_d_2_3017" x="0.0107424" y="1.99994" width="40" height="37.4999" filterUnits="userSpaceOnUse" color-interpolation-filters="sRGB">
<feFlood flood-opacity="0" result="BackgroundImageFix"/>
<feColorMatrix in="SourceAlpha" type="matrix" values="0 0 0 0 0 0 0 0 0 0 0 0 0 0 0 0 0 0 127 0" result="hardAlpha"/>
<feOffset/>
<feGaussianBlur stdDeviation="2"/>
<feComposite in2="hardAlpha" operator="out"/>
<feColorMatrix type="matrix" values="0 0 0 0 0 0 0 0 0 0 0 0 0 0 0 0 0 0 0.25 0"/>
<feBlend mode="normal" in2="BackgroundImageFix" result="effect1_dropShadow_2_3017"/>
<feBlend mode="normal" in="SourceGraphic" in2="effect1_dropShadow_2_3017" result="shape"/>
</filter>
<linearGradient id="paint0_linear_2_3017" x1="20.0107" y1="-6.10351e-05" x2="20.0107" y2="39.9999" gradientUnits="userSpaceOnUse">
<stop stop-color="#2C1B1B"/>
<stop offset="1" stop-color="#1F1414"/>
</linearGradient>
<linearGradient id="paint1_linear_2_3017" x1="26.0112" y1="18.0002" x2="26.0112" y2="33.9999" gradientUnits="userSpaceOnUse">
<stop stop-color="#FF0000"/>
<stop offset="1" stop-color="#CC0000"/>
</linearGradient>
<clipPath id="clip0_2_3017">
<rect x="0.0107422" y="-6.10352e-05" width="40" height="40" rx="8" fill="white"/>
</clipPath>
</defs>
</svg>
