<svg width="129" height="40" viewBox="0 0 129 40" fill="none" xmlns="http://www.w3.org/2000/svg">
<rect x="-6.10352e-05" y="-6.10352e-05" width="129" height="40" rx="6" fill="url(#paint0_linear_40_111)"/>
<g filter="url(#filter0_d_40_111)">
<path fill-rule="evenodd" clip-rule="evenodd" d="M23.7845 13.0343H35.8461V17.9567H23.7845V13.0343Z" fill="white"/>
<path fill-rule="evenodd" clip-rule="evenodd" d="M12.8717 29.1044C11.8095 29.1044 10.884 28.5214 10.3872 27.6567C10.1335 28.0963 9.99993 28.5958 9.99994 29.1044C9.99994 30.7036 11.2856 31.9999 12.8717 31.9999H15.7435V29.1044H12.8717Z" fill="#3ECC5F"/>
<path fill-rule="evenodd" clip-rule="evenodd" d="M25.7919 13.8126L35.8461 13.1791V11.7314C35.8461 10.1322 34.5604 8.83584 32.9743 8.83584H20.0512L19.6922 8.20896C19.5326 7.93027 19.1338 7.93027 18.9743 8.20896L18.6153 8.83584L18.2563 8.20896C18.0968 7.93027 17.6979 7.93027 17.5384 8.20896L17.1794 8.83584L16.8204 8.20896C16.6609 7.93027 16.262 7.93027 16.1025 8.20896L15.7435 8.83584C15.7404 8.83584 15.7375 8.83627 15.7342 8.83627L15.1394 8.23676C14.914 8.00931 14.5289 8.11326 14.4462 8.4241L14.2496 9.16303L13.5041 8.9615C13.1957 8.87826 12.9138 9.1626 12.9965 9.47343L13.1961 10.2252L12.4635 10.4232C12.1551 10.5065 12.0518 10.895 12.2774 11.1224L12.8721 11.7221C12.8721 11.7251 12.8717 11.7282 12.8717 11.7314L12.25 12.0933C11.9736 12.2541 11.9736 12.6563 12.25 12.8172L12.8717 13.1791L12.25 13.541C11.9736 13.7019 11.9736 14.1041 12.25 14.2649L12.8717 14.6269L12.25 14.9888C11.9736 15.1496 11.9736 15.5518 12.25 15.7127L12.8717 16.0746L12.25 16.4366C11.9736 16.5974 11.9736 16.9996 12.25 17.1604L12.8717 17.5224L12.25 17.8843C11.9736 18.0452 11.9736 18.4473 12.25 18.6082L12.8717 18.9701L12.25 19.3321C11.9736 19.4929 11.9736 19.8951 12.25 20.056L12.8717 20.4179L12.25 20.7798C11.9736 20.9407 11.9736 21.3429 12.25 21.5037L12.8717 21.8656L12.25 22.2276C11.9736 22.3884 11.9736 22.7906 12.25 22.9515L12.8717 23.3134L12.25 23.6753C11.9736 23.8362 11.9736 24.2384 12.25 24.3992L12.8717 24.7612L12.25 25.1231C11.9736 25.2839 11.9736 25.6861 12.25 25.847L12.8717 26.2089L12.25 26.5709C11.9736 26.7317 11.9736 27.1339 12.25 27.2947L12.8717 27.6567L12.25 28.0186C11.9736 28.1795 11.9736 28.5816 12.25 28.7425L12.8717 29.1044C12.8717 30.7036 14.1574 31.9999 15.7435 31.9999H32.9743C34.5604 31.9999 35.8461 30.7036 35.8461 29.1044V17.5224L25.7919 16.8888C25.4038 16.8643 25.0396 16.6916 24.7733 16.4059C24.5071 16.1201 24.3589 15.7428 24.3589 15.3507C24.3589 14.537 24.9864 13.8635 25.7919 13.8126Z" fill="#3ECC5F"/>
<path fill-rule="evenodd" clip-rule="evenodd" d="M30.1025 31.9999H34.4102V26.2089H30.1025V31.9999Z" fill="#3ECC5F"/>
<path fill-rule="evenodd" clip-rule="evenodd" d="M37.282 28.3805C37.2505 28.3805 37.2205 28.3859 37.1902 28.3898C37.1848 28.3681 37.1796 28.3462 37.1736 28.3245C37.3266 28.26 37.4527 28.1441 37.5306 27.9964C37.6084 27.8488 37.6332 27.6785 37.6006 27.5145C37.568 27.3506 37.4802 27.203 37.3519 27.097C37.2237 26.9909 37.063 26.9329 36.8972 26.9328C36.7404 26.9333 36.5881 26.9861 36.4641 27.0828C36.4482 27.0664 36.4322 27.0502 36.416 27.0341C36.5098 26.9098 36.5608 26.7579 36.5612 26.6017C36.5611 26.4349 36.5038 26.2733 36.3992 26.1441C36.2945 26.0149 36.1488 25.9262 35.9868 25.8928C35.8247 25.8595 35.6562 25.8836 35.5097 25.9611C35.3632 26.0385 35.2477 26.1646 35.1828 26.3181C35.1616 26.312 35.1402 26.3069 35.1189 26.3014C35.1228 26.2709 35.1281 26.2406 35.1281 26.2089C35.1281 26.0169 35.0525 25.8328 34.9179 25.697C34.7832 25.5613 34.6006 25.485 34.4102 25.485C34.2198 25.485 34.0372 25.5613 33.9025 25.697C33.7679 25.8328 33.6922 26.0169 33.6922 26.2089C33.6922 26.2406 33.6975 26.2709 33.7014 26.3014C33.6802 26.3069 33.6588 26.312 33.6375 26.3181C33.5729 26.1644 33.4575 26.0379 33.3109 25.9602C33.1643 25.8825 32.9956 25.8583 32.8334 25.8917C32.6711 25.9251 32.5253 26.014 32.4207 26.1434C32.316 26.2728 32.259 26.4347 32.2592 26.6017C32.2592 26.7645 32.3144 26.9131 32.4044 27.0341C31.8707 27.5599 31.5384 28.2926 31.5384 29.1044C31.5384 30.7036 32.8241 31.9999 34.4102 31.9999C35.7512 31.9999 36.8742 31.0719 37.1902 29.819C37.2205 29.8229 37.2505 29.8283 37.282 29.8283C37.4724 29.8283 37.655 29.752 37.7896 29.6163C37.9243 29.4805 37.9999 29.2964 37.9999 29.1044C37.9999 28.9124 37.9243 28.7283 37.7896 28.5925C37.655 28.4568 37.4724 28.3805 37.282 28.3805" fill="#44D860"/>
<path fill-rule="evenodd" clip-rule="evenodd" d="M31.5384 23.3134H35.8461V20.4179H31.5384V23.3134Z" fill="#3ECC5F"/>
<path fill-rule="evenodd" clip-rule="evenodd" d="M37.282 22.2276C37.3772 22.2276 37.4685 22.1895 37.5358 22.1216C37.6032 22.0537 37.641 21.9616 37.641 21.8656C37.641 21.7697 37.6032 21.6776 37.5358 21.6097C37.4685 21.5418 37.3772 21.5037 37.282 21.5037C37.2664 21.5037 37.2513 21.5065 37.2362 21.5083C37.2333 21.4975 37.2309 21.4866 37.2279 21.4758C37.3043 21.4434 37.3673 21.3854 37.4061 21.3116C37.4449 21.2378 37.4573 21.1527 37.441 21.0708C37.4247 20.9889 37.3808 20.9151 37.3168 20.8621C37.2527 20.8091 37.1725 20.78 37.0896 20.7798C37.0079 20.7798 36.9334 20.8083 36.8731 20.8548C36.8652 20.8466 36.8571 20.8385 36.8489 20.8305C36.894 20.7701 36.9216 20.6957 36.9216 20.6142C36.9216 20.5308 36.893 20.4499 36.8406 20.3853C36.7883 20.3207 36.7154 20.2764 36.6344 20.2597C36.5533 20.243 36.469 20.2551 36.3958 20.2939C36.3225 20.3326 36.2648 20.3957 36.2324 20.4725C36.1067 20.4366 35.9767 20.4183 35.8461 20.4179C35.0532 20.4179 34.4102 21.0662 34.4102 21.8656C34.4102 22.6651 35.0532 23.3134 35.8461 23.3134C35.9802 23.3134 36.1093 23.2934 36.2324 23.2588C36.2648 23.3356 36.3225 23.3987 36.3958 23.4374C36.469 23.4762 36.5533 23.4883 36.6344 23.4716C36.7154 23.4549 36.7883 23.4105 36.8406 23.3459C36.893 23.2813 36.9216 23.2005 36.9216 23.1171C36.9216 23.0356 36.894 22.9612 36.8489 22.9008C36.8571 22.8928 36.8652 22.8847 36.8731 22.8765C36.9334 22.9229 37.0079 22.9515 37.0896 22.9515C37.1726 22.9515 37.253 22.9225 37.3171 22.8695C37.3813 22.8164 37.4253 22.7426 37.4416 22.6606C37.4579 22.5786 37.4455 22.4934 37.4065 22.4196C37.3676 22.3457 37.3044 22.2878 37.2279 22.2555C37.2309 22.2448 37.2333 22.2338 37.2362 22.223C37.2513 22.2248 37.2664 22.2276 37.282 22.2276Z" fill="#44D860"/>
<path fill-rule="evenodd" clip-rule="evenodd" d="M18.6154 13.541C18.5201 13.541 18.4288 13.5029 18.3615 13.435C18.2942 13.3671 18.2564 13.2751 18.2564 13.1791C18.2564 12.5803 17.7733 12.0933 17.1795 12.0933C16.5856 12.0933 16.1025 12.5803 16.1025 13.1791C16.1025 13.2751 16.0647 13.3671 15.9974 13.435C15.9301 13.5029 15.8388 13.541 15.7436 13.541C15.6484 13.541 15.557 13.5029 15.4897 13.435C15.4224 13.3671 15.3846 13.2751 15.3846 13.1791C15.3846 12.1811 16.1897 11.3694 17.1795 11.3694C18.1692 11.3694 18.9743 12.1811 18.9743 13.1791C18.9743 13.2751 18.9365 13.3671 18.8692 13.435C18.8019 13.5029 18.7106 13.541 18.6154 13.541" fill="black"/>
<path fill-rule="evenodd" clip-rule="evenodd" d="M24.3589 32H32.9743C34.5604 32 35.8461 30.7036 35.8461 29.1044V18.9702H27.2307C25.6446 18.9702 24.3589 20.2665 24.3589 21.8657V32Z" fill="#FFFF50"/>
<path fill-rule="evenodd" clip-rule="evenodd" d="M33.6951 23.4582H26.5099C26.4718 23.4582 26.4353 23.4429 26.4083 23.4158C26.3814 23.3886 26.3663 23.3518 26.3663 23.3134C26.3663 23.275 26.3814 23.2382 26.4083 23.211C26.4353 23.1839 26.4718 23.1686 26.5099 23.1686H33.6951C33.7332 23.1686 33.7697 23.1839 33.7966 23.211C33.8236 23.2382 33.8387 23.275 33.8387 23.3134C33.8387 23.3518 33.8236 23.3886 33.7966 23.4158C33.7697 23.4429 33.7332 23.4582 33.6951 23.4582ZM33.6951 26.3537H26.5099C26.4718 26.3537 26.4353 26.3385 26.4083 26.3113C26.3814 26.2842 26.3663 26.2473 26.3663 26.2089C26.3663 26.1705 26.3814 26.1337 26.4083 26.1066C26.4353 26.0794 26.4718 26.0642 26.5099 26.0642H33.6951C33.7332 26.0642 33.7697 26.0794 33.7966 26.1066C33.8236 26.1337 33.8387 26.1705 33.8387 26.2089C33.8387 26.2473 33.8236 26.2842 33.7966 26.3113C33.7697 26.3385 33.7332 26.3537 33.6951 26.3537ZM33.6951 29.2492H26.5099C26.4718 29.2492 26.4353 29.234 26.4083 29.2068C26.3814 29.1797 26.3663 29.1428 26.3663 29.1044C26.3663 29.0661 26.3814 29.0292 26.4083 29.0021C26.4353 28.9749 26.4718 28.9597 26.5099 28.9597H33.6951C33.7332 28.9597 33.7697 28.9749 33.7966 29.0021C33.8236 29.0292 33.8387 29.0661 33.8387 29.1044C33.8387 29.1428 33.8236 29.1797 33.7966 29.2068C33.7697 29.234 33.7332 29.2492 33.6951 29.2492ZM33.6951 22.0374H26.5099C26.4718 22.0374 26.4353 22.0221 26.4083 21.995C26.3814 21.9678 26.3663 21.931 26.3663 21.8926C26.3663 21.8542 26.3814 21.8174 26.4083 21.7902C26.4353 21.7631 26.4718 21.7478 26.5099 21.7478H33.6951C33.7332 21.7478 33.7697 21.7631 33.7966 21.7902C33.8236 21.8174 33.8387 21.8542 33.8387 21.8926C33.8387 21.931 33.8236 21.9678 33.7966 21.995C33.7697 22.0221 33.7332 22.0374 33.6951 22.0374ZM33.6951 24.906H26.5099C26.4718 24.906 26.4353 24.8907 26.4083 24.8636C26.3814 24.8364 26.3663 24.7996 26.3663 24.7612C26.3663 24.7228 26.3814 24.686 26.4083 24.6588C26.4353 24.6317 26.4718 24.6164 26.5099 24.6164H33.6951C33.7332 24.6164 33.7697 24.6317 33.7966 24.6588C33.8236 24.686 33.8387 24.7228 33.8387 24.7612C33.8387 24.7996 33.8236 24.8364 33.7966 24.8636C33.7697 24.8907 33.7332 24.906 33.6951 24.906ZM33.6951 27.8015H26.5099C26.4718 27.8015 26.4353 27.7862 26.4083 27.7591C26.3814 27.7319 26.3663 27.6951 26.3663 27.6567C26.3663 27.6183 26.3814 27.5815 26.4083 27.5543C26.4353 27.5272 26.4718 27.5119 26.5099 27.5119H33.6951C33.7332 27.5119 33.7697 27.5272 33.7966 27.5543C33.8236 27.5815 33.8387 27.6183 33.8387 27.6567C33.8387 27.6951 33.8236 27.7319 33.7966 27.7591C33.7697 27.7862 33.7332 27.8015 33.6951 27.8015ZM35.8461 14.4258C35.8444 14.4258 35.8429 14.4249 35.8412 14.4251C35.3975 14.4403 35.1876 14.8878 35.0024 15.2826C34.8091 15.6952 34.6596 15.9635 34.4146 15.9553C34.1434 15.9455 33.9883 15.6365 33.8241 15.3096C33.6354 14.9341 33.42 14.5082 32.9678 14.5241C32.5305 14.5391 32.3198 14.9286 32.134 15.2721C31.9363 15.6381 31.8017 15.8607 31.5423 15.8504C31.2656 15.8402 31.1185 15.5891 30.9484 15.2984C30.7587 14.9746 30.5394 14.6107 30.096 14.6231C29.6661 14.638 29.4549 14.9684 29.2685 15.2601C29.0714 15.5685 28.9332 15.7564 28.6705 15.7453C28.3872 15.7351 28.2409 15.5267 28.0716 15.2853C27.8815 15.0142 27.6672 14.7072 27.2251 14.7221C26.8047 14.7366 26.5935 15.0074 26.4072 15.2459C26.2303 15.4724 26.0922 15.6516 25.8 15.6403C25.7619 15.6389 25.7248 15.6529 25.6969 15.679C25.669 15.7052 25.6526 15.7415 25.6512 15.7799C25.6498 15.8183 25.6637 15.8556 25.6896 15.8838C25.7156 15.9119 25.7516 15.9285 25.7896 15.9299C26.2228 15.9445 26.4423 15.6693 26.6328 15.425C26.8018 15.2084 26.9477 15.0215 27.2349 15.0117C27.5114 14.9998 27.6411 15.1731 27.8372 15.4525C28.0235 15.7181 28.2348 16.0192 28.6601 16.0347C29.1057 16.0497 29.3201 15.714 29.5099 15.4169C29.6796 15.1514 29.8261 14.9222 30.1058 14.9125C30.3633 14.9028 30.5034 15.108 30.701 15.4454C30.8872 15.7635 31.0982 16.1239 31.5319 16.1398C31.9807 16.1554 32.1973 15.7605 32.3862 15.4108C32.5497 15.1086 32.7041 14.8231 32.9776 14.8135C33.2351 14.8074 33.3693 15.0444 33.5679 15.4404C33.7534 15.81 33.9638 16.2287 34.4043 16.2448L34.4286 16.2452C34.8685 16.2452 35.0773 15.8 35.2621 15.4064C35.4257 15.0574 35.5804 14.7288 35.8461 14.7153V14.4258V14.4258Z" fill="black"/>
<path fill-rule="evenodd" clip-rule="evenodd" d="M21.4871 31.9999H27.2307V26.2089H21.4871V31.9999Z" fill="#3ECC5F"/>
<path d="M35.8114 16.9755L24.6432 19.9927C24.49 20.0341 24.3991 20.1928 24.4402 20.3473L25.5316 24.4541C25.5726 24.6085 25.7301 24.7002 25.8833 24.6588L37.0514 21.6416C37.2046 21.6002 37.2956 21.4414 37.2545 21.287L36.1631 17.1802C36.1221 17.0257 35.9646 16.9341 35.8114 16.9755Z" fill="#D8D8D8"/>
<path d="M28.0138 22.2409L27.614 22.3489C27.5374 22.3696 27.4919 22.449 27.5124 22.5262L27.6196 22.9294C27.6401 23.0066 27.7188 23.0524 27.7954 23.0317L28.1953 22.9237C28.2719 22.903 28.3174 22.8236 28.2968 22.7464L28.1897 22.3432C28.1692 22.266 28.0904 22.2202 28.0138 22.2409Z" fill="#4A4A4A"/>
<path d="M28.8165 22.024L28.4166 22.132C28.34 22.1527 28.2945 22.2321 28.3151 22.3093L28.4222 22.7125C28.4427 22.7897 28.5215 22.8356 28.5981 22.8149L28.9979 22.7068C29.0745 22.6862 29.12 22.6068 29.0995 22.5295L28.9923 22.1264C28.9718 22.0491 28.8931 22.0033 28.8165 22.024Z" fill="#4A4A4A"/>
<path d="M29.6191 21.8072L29.2193 21.9152C29.1427 21.9359 29.0972 22.0153 29.1177 22.0925L29.2249 22.4957C29.2454 22.5729 29.3241 22.6187 29.4007 22.598L29.8006 22.49C29.8772 22.4693 29.9227 22.3899 29.9021 22.3127L29.795 21.9095C29.7745 21.8323 29.6957 21.7865 29.6191 21.8072Z" fill="#4A4A4A"/>
<path d="M30.4217 21.5903L30.0219 21.6983C29.9453 21.719 29.8998 21.7984 29.9203 21.8757L30.0275 22.2788C30.048 22.3561 30.1267 22.4019 30.2033 22.3812L30.6032 22.2732C30.6798 22.2525 30.7253 22.1731 30.7047 22.0958L30.5976 21.6927C30.5771 21.6154 30.4983 21.5696 30.4217 21.5903Z" fill="#4A4A4A"/>
<path d="M31.2244 21.3735L30.8245 21.4815C30.7479 21.5022 30.7025 21.5816 30.723 21.6588L30.8302 22.062C30.8507 22.1392 30.9294 22.1851 31.006 22.1644L31.4059 22.0563C31.4825 22.0356 31.5279 21.9563 31.5074 21.879L31.4003 21.4759C31.3797 21.3986 31.301 21.3528 31.2244 21.3735Z" fill="#4A4A4A"/>
<path d="M32.027 21.1566L31.6272 21.2647C31.5506 21.2853 31.5051 21.3647 31.5256 21.442L31.6328 21.8451C31.6533 21.9224 31.732 21.9682 31.8086 21.9475L32.2085 21.8395C32.2851 21.8188 32.3306 21.7394 32.31 21.6622L32.2029 21.259C32.1824 21.1818 32.1036 21.1359 32.027 21.1566Z" fill="#4A4A4A"/>
<path d="M32.8296 20.9398L32.4298 21.0478C32.3532 21.0685 32.3077 21.1479 32.3282 21.2251L32.4354 21.6283C32.4559 21.7055 32.5346 21.7514 32.6112 21.7307L33.0111 21.6226C33.0877 21.602 33.1332 21.5226 33.1126 21.4453L33.0055 21.0422C32.985 20.9649 32.9062 20.9191 32.8296 20.9398Z" fill="#4A4A4A"/>
<path d="M33.6323 20.7229L33.2324 20.831C33.1558 20.8517 33.1104 20.931 33.1309 21.0083L33.2381 21.4114C33.2586 21.4887 33.3373 21.5345 33.4139 21.5138L33.8138 21.4058C33.8904 21.3851 33.9358 21.3057 33.9153 21.2285L33.8082 20.8253C33.7876 20.7481 33.7089 20.7022 33.6323 20.7229Z" fill="#4A4A4A"/>
<path d="M34.4349 20.5061L34.0351 20.6141C33.9585 20.6348 33.913 20.7142 33.9335 20.7915L34.0407 21.1946C34.0612 21.2719 34.1399 21.3177 34.2165 21.297L34.6164 21.189C34.693 21.1683 34.7385 21.0889 34.7179 21.0117L34.6108 20.6085C34.5903 20.5313 34.5115 20.4854 34.4349 20.5061Z" fill="#4A4A4A"/>
<path fill-rule="evenodd" clip-rule="evenodd" d="M25.4821 22.925L27.1861 22.4646C27.2229 22.4547 27.2621 22.4599 27.2951 22.4791C27.3281 22.4983 27.3522 22.5299 27.362 22.567L27.4691 22.97C27.479 23.0071 27.4738 23.0466 27.4548 23.0799C27.4357 23.1131 27.4044 23.1374 27.3676 23.1473L25.6636 23.6077C25.6268 23.6176 25.5876 23.6124 25.5546 23.5932C25.5216 23.574 25.4975 23.5424 25.4877 23.5053L25.3805 23.1022C25.3707 23.0651 25.3759 23.0255 25.3949 22.9923C25.4139 22.959 25.4453 22.9348 25.4821 22.9248L25.4821 22.925ZM34.8628 20.3907L36.5669 19.9303C36.6037 19.9203 36.6429 19.9255 36.6759 19.9447C36.7089 19.9639 36.7329 19.9956 36.7428 20.0327L36.8499 20.4357C36.8597 20.4728 36.8546 20.5123 36.8355 20.5455C36.8165 20.5788 36.7851 20.6031 36.7484 20.613L35.044 21.0734C35.0073 21.0834 34.9681 21.0782 34.9351 21.059C34.9021 21.0398 34.878 21.0082 34.8682 20.9711L34.761 20.5679C34.7512 20.5308 34.7563 20.4913 34.7754 20.458C34.7944 20.4248 34.8258 20.4005 34.8626 20.3906L34.8628 20.3907Z" fill="#4A4A4A"/>
<path fill-rule="evenodd" clip-rule="evenodd" d="M25.0478 21.2908L25.6983 21.1151C25.7351 21.1051 25.7743 21.1103 25.8073 21.1295C25.8402 21.1487 25.8643 21.1804 25.8742 21.2174L25.9813 21.6205C25.9911 21.6576 25.986 21.6971 25.9669 21.7303C25.9479 21.7636 25.9165 21.7878 25.8797 21.7978L25.2292 21.9735C25.1925 21.9835 25.1533 21.9783 25.1203 21.9591C25.0873 21.9399 25.0632 21.9082 25.0534 21.8711L24.9463 21.4681C24.9364 21.431 24.9416 21.3915 24.9606 21.3583C24.9797 21.325 25.011 21.3007 25.0478 21.2908V21.2908Z" fill="#4A4A4A"/>
<path d="M26.5011 20.8982L26.1012 21.0062C26.0246 21.0269 25.9792 21.1063 25.9997 21.1835L26.1068 21.5867C26.1274 21.6639 26.2061 21.7097 26.2827 21.6891L26.6826 21.581C26.7592 21.5603 26.8046 21.4809 26.7841 21.4037L26.6769 21.0005C26.6564 20.9233 26.5777 20.8775 26.5011 20.8982Z" fill="#4A4A4A"/>
<path d="M27.3037 20.6813L26.9038 20.7893C26.8272 20.81 26.7818 20.8894 26.8023 20.9667L26.9094 21.3698C26.93 21.4471 27.0087 21.4929 27.0853 21.4722L27.4852 21.3642C27.5618 21.3435 27.6072 21.2641 27.5867 21.1869L27.4796 20.7837C27.459 20.7065 27.3803 20.6606 27.3037 20.6813Z" fill="#4A4A4A"/>
<path d="M28.1064 20.4645L27.7065 20.5725C27.6299 20.5932 27.5844 20.6726 27.605 20.7498L27.7121 21.153C27.7326 21.2302 27.8114 21.2761 27.888 21.2554L28.2878 21.1473C28.3644 21.1266 28.4099 21.0473 28.3894 20.97L28.2822 20.5669C28.2617 20.4896 28.183 20.4438 28.1064 20.4645Z" fill="#4A4A4A"/>
<path d="M28.909 20.2477L28.5091 20.3557C28.4325 20.3764 28.3871 20.4558 28.4076 20.533L28.5147 20.9362C28.5353 21.0134 28.614 21.0592 28.6906 21.0385L29.0905 20.9305C29.1671 20.9098 29.2125 20.8304 29.192 20.7532L29.0848 20.35C29.0643 20.2728 28.9856 20.227 28.909 20.2477Z" fill="#4A4A4A"/>
<path d="M29.7116 20.0308L29.3117 20.1388C29.2351 20.1595 29.1897 20.2389 29.2102 20.3161L29.3173 20.7193C29.3379 20.7965 29.4166 20.8423 29.4932 20.8217L29.8931 20.7136C29.9697 20.6929 30.0151 20.6135 29.9946 20.5363L29.8875 20.1331C29.8669 20.0559 29.7882 20.0101 29.7116 20.0308Z" fill="#4A4A4A"/>
<path d="M30.5143 19.8139L30.1144 19.922C30.0378 19.9427 29.9923 20.0221 30.0129 20.0993L30.12 20.5025C30.1405 20.5797 30.2193 20.6255 30.2959 20.6048L30.6957 20.4968C30.7723 20.4761 30.8178 20.3967 30.7973 20.3195L30.6901 19.9163C30.6696 19.8391 30.5909 19.7932 30.5143 19.8139Z" fill="#4A4A4A"/>
<path d="M31.3169 19.5971L30.917 19.7051C30.8404 19.7258 30.795 19.8052 30.8155 19.8825L30.9226 20.2856C30.9432 20.3629 31.0219 20.4087 31.0985 20.388L31.4984 20.28C31.575 20.2593 31.6204 20.1799 31.5999 20.1027L31.4927 19.6995C31.4722 19.6223 31.3935 19.5764 31.3169 19.5971Z" fill="#4A4A4A"/>
<path d="M32.1196 19.3803L31.7197 19.4883C31.6431 19.509 31.5976 19.5884 31.6182 19.6656L31.7253 20.0688C31.7458 20.146 31.8246 20.1919 31.9012 20.1712L32.301 20.0631C32.3776 20.0424 32.4231 19.9631 32.4026 19.8858L32.2954 19.4827C32.2749 19.4054 32.1962 19.3596 32.1196 19.3803Z" fill="#4A4A4A"/>
<path d="M32.922 19.1634L32.5222 19.2715C32.4456 19.2922 32.4001 19.3715 32.4206 19.4488L32.5278 19.8519C32.5483 19.9292 32.6271 19.975 32.7037 19.9543L33.1035 19.8463C33.1801 19.8256 33.2256 19.7462 33.205 19.669L33.0979 19.2658C33.0774 19.1886 32.9986 19.1427 32.922 19.1634Z" fill="#4A4A4A"/>
<path d="M33.7247 18.9466L33.3248 19.0546C33.2482 19.0753 33.2027 19.1547 33.2233 19.2319L33.3304 19.6351C33.3509 19.7123 33.4297 19.7582 33.5063 19.7375L33.9061 19.6295C33.9827 19.6088 34.0282 19.5294 34.0077 19.4521L33.9005 19.049C33.88 18.9717 33.8013 18.9259 33.7247 18.9466Z" fill="#4A4A4A"/>
<path d="M34.5273 18.7298L34.1275 18.8378C34.0509 18.8585 34.0054 18.9379 34.0259 19.0151L34.1331 19.4183C34.1536 19.4955 34.2323 19.5413 34.3089 19.5207L34.7088 19.4126C34.7854 19.3919 34.8309 19.3125 34.8103 19.2353L34.7032 18.8321C34.6827 18.7549 34.6039 18.7091 34.5273 18.7298Z" fill="#4A4A4A"/>
<path d="M35.3299 18.5129L34.9301 18.621C34.8535 18.6417 34.808 18.7211 34.8285 18.7983L34.9357 19.2015C34.9562 19.2787 35.0349 19.3245 35.1115 19.3038L35.5114 19.1958C35.588 19.1751 35.6335 19.0957 35.6129 19.0185L35.5058 18.6153C35.4853 18.5381 35.4065 18.4923 35.3299 18.5129Z" fill="#4A4A4A"/>
<path d="M36.1326 18.2961L35.7328 18.4041C35.6562 18.4248 35.6107 18.5042 35.6312 18.5814L35.7384 18.9846C35.7589 19.0618 35.8376 19.1077 35.9142 19.087L36.3141 18.9789C36.3907 18.9582 36.4361 18.8789 36.4156 18.8016L36.3085 18.3985C36.288 18.3212 36.2092 18.2754 36.1326 18.2961Z" fill="#4A4A4A"/>
<path fill-rule="evenodd" clip-rule="evenodd" d="M36.1083 18.2046L35.4577 18.3804C35.4209 18.3904 35.3817 18.3852 35.3487 18.366C35.3157 18.3468 35.2917 18.3151 35.2818 18.278L35.1747 17.8749C35.1648 17.8378 35.17 17.7983 35.189 17.765C35.2081 17.7318 35.2394 17.7075 35.2762 17.6976L35.9268 17.5218C35.9636 17.5119 36.0028 17.5171 36.0358 17.5363C36.0688 17.5555 36.0928 17.5871 36.1027 17.6242L36.2098 18.0273C36.2197 18.0644 36.2145 18.1039 36.1955 18.1372C36.1765 18.1704 36.1451 18.1947 36.1083 18.2046V18.2046Z" fill="#4A4A4A"/>
<path d="M34.655 18.5973L35.0549 18.4892C35.1315 18.4685 35.177 18.3891 35.1564 18.3119L35.0493 17.9087C35.0288 17.8315 34.95 17.7857 34.8734 17.8064L34.4736 17.9144C34.397 17.9351 34.3515 18.0145 34.372 18.0917L34.4792 18.4949C34.4997 18.5721 34.5784 18.6179 34.655 18.5973Z" fill="#4A4A4A"/>
<path d="M33.8524 18.8141L34.2522 18.7061C34.3288 18.6854 34.3743 18.606 34.3538 18.5288L34.2466 18.1256C34.2261 18.0484 34.1474 18.0025 34.0708 18.0232L33.6709 18.1313C33.5943 18.152 33.5488 18.2313 33.5694 18.3086L33.6765 18.7117C33.697 18.789 33.7758 18.8348 33.8524 18.8141Z" fill="#4A4A4A"/>
<path d="M33.0498 19.0309L33.4496 18.9229C33.5262 18.9022 33.5717 18.8228 33.5512 18.7456L33.444 18.3424C33.4235 18.2652 33.3448 18.2194 33.2682 18.2401L32.8683 18.3481C32.7917 18.3688 32.7462 18.4482 32.7668 18.5254L32.8739 18.9286C32.8944 19.0058 32.9732 19.0516 33.0498 19.0309Z" fill="#4A4A4A"/>
<path d="M32.2471 19.2478L32.6469 19.1397C32.7235 19.119 32.769 19.0397 32.7485 18.9624L32.6413 18.5593C32.6208 18.482 32.5421 18.4362 32.4655 18.4569L32.0656 18.5649C31.989 18.5856 31.9436 18.665 31.9641 18.7422L32.0712 19.1454C32.0917 19.2226 32.1705 19.2685 32.2471 19.2478Z" fill="#4A4A4A"/>
<path d="M31.4445 19.4646L31.8443 19.3566C31.9209 19.3359 31.9664 19.2565 31.9459 19.1793L31.8387 18.7761C31.8182 18.6989 31.7395 18.653 31.6629 18.6737L31.263 18.7818C31.1864 18.8025 31.1409 18.8819 31.1615 18.9591L31.2686 19.3622C31.2891 19.4395 31.3679 19.4853 31.4445 19.4646Z" fill="#4A4A4A"/>
<path d="M30.6419 19.6814L31.0417 19.5734C31.1183 19.5527 31.1638 19.4733 31.1433 19.3961L31.0361 18.9929C31.0156 18.9157 30.9369 18.8699 30.8603 18.8906L30.4604 18.9986C30.3838 19.0193 30.3383 19.0987 30.3589 19.1759L30.466 19.5791C30.4865 19.6563 30.5653 19.7021 30.6419 19.6814Z" fill="#4A4A4A"/>
<path d="M29.8392 19.8983L30.239 19.7903C30.3156 19.7696 30.3611 19.6902 30.3406 19.613L30.2334 19.2098C30.2129 19.1326 30.1342 19.0868 30.0576 19.1075L29.6577 19.2155C29.5811 19.2362 29.5357 19.3156 29.5562 19.3928L29.6633 19.796C29.6839 19.8732 29.7626 19.919 29.8392 19.8983Z" fill="#4A4A4A"/>
<path d="M29.0366 20.1152L29.4364 20.0071C29.513 19.9864 29.5585 19.9071 29.538 19.8298L29.4308 19.4267C29.4103 19.3494 29.3316 19.3036 29.255 19.3243L28.8551 19.4323C28.7785 19.453 28.733 19.5324 28.7536 19.6096L28.8607 20.0128C28.8812 20.09 28.96 20.1359 29.0366 20.1152Z" fill="#4A4A4A"/>
<path d="M28.2339 20.332L28.6338 20.224C28.7104 20.2033 28.7558 20.1239 28.7353 20.0467L28.6282 19.6435C28.6076 19.5663 28.5289 19.5204 28.4523 19.5411L28.0524 19.6491C27.9758 19.6698 27.9304 19.7492 27.9509 19.8265L28.058 20.2296C28.0786 20.3069 28.1573 20.3527 28.2339 20.332Z" fill="#4A4A4A"/>
<path d="M27.4313 20.5488L27.8312 20.4408C27.9078 20.4201 27.9532 20.3407 27.9327 20.2635L27.8255 19.8603C27.805 19.7831 27.7263 19.7372 27.6497 19.7579L27.2498 19.866C27.1732 19.8867 27.1278 19.966 27.1483 20.0433L27.2554 20.4464C27.276 20.5237 27.3547 20.5695 27.4313 20.5488Z" fill="#4A4A4A"/>
<path d="M26.6286 20.7657L27.0285 20.6576C27.1051 20.637 27.1505 20.5576 27.13 20.4803L27.0229 20.0772C27.0023 19.9999 26.9236 19.9541 26.847 19.9748L26.4471 20.0828C26.3705 20.1035 26.3251 20.1829 26.3456 20.2601L26.4528 20.6633C26.4733 20.7405 26.552 20.7864 26.6286 20.7657Z" fill="#4A4A4A"/>
<path d="M25.826 20.9825L26.2259 20.8745C26.3025 20.8538 26.3479 20.7744 26.3274 20.6972L26.2203 20.294C26.1997 20.2168 26.121 20.171 26.0444 20.1917L25.6445 20.2997C25.5679 20.3204 25.5225 20.3998 25.543 20.477L25.6501 20.8802C25.6707 20.9574 25.7494 21.0032 25.826 20.9825Z" fill="#4A4A4A"/>
<path d="M25.0235 21.1993L25.4234 21.0913C25.5 21.0706 25.5454 20.9912 25.5249 20.914L25.4178 20.5108C25.3972 20.4336 25.3185 20.3878 25.2419 20.4085L24.842 20.5165C24.7654 20.5372 24.72 20.6166 24.7405 20.6938L24.8477 21.097C24.8682 21.1742 24.9469 21.22 25.0235 21.1993Z" fill="#4A4A4A"/>
<path d="M34.655 18.5973L35.0549 18.4892C35.1315 18.4685 35.177 18.3891 35.1564 18.3119L35.0493 17.9087C35.0288 17.8315 34.95 17.7857 34.8734 17.8064L34.4736 17.9144C34.397 17.9351 34.3515 18.0145 34.372 18.0917L34.4792 18.4949C34.4997 18.5721 34.5784 18.6179 34.655 18.5973Z" fill="#4A4A4A"/>
<path d="M33.8524 18.8141L34.2522 18.7061C34.3288 18.6854 34.3743 18.606 34.3538 18.5288L34.2466 18.1256C34.2261 18.0484 34.1474 18.0025 34.0708 18.0232L33.6709 18.1313C33.5943 18.152 33.5488 18.2313 33.5694 18.3086L33.6765 18.7117C33.697 18.789 33.7758 18.8348 33.8524 18.8141Z" fill="#4A4A4A"/>
<path d="M33.0498 19.0309L33.4496 18.9229C33.5262 18.9022 33.5717 18.8228 33.5512 18.7456L33.444 18.3424C33.4235 18.2652 33.3448 18.2194 33.2682 18.2401L32.8683 18.3481C32.7917 18.3688 32.7462 18.4482 32.7668 18.5254L32.8739 18.9286C32.8944 19.0058 32.9732 19.0516 33.0498 19.0309Z" fill="#4A4A4A"/>
<path d="M32.2471 19.2478L32.6469 19.1397C32.7235 19.119 32.769 19.0397 32.7485 18.9624L32.6413 18.5593C32.6208 18.482 32.5421 18.4362 32.4655 18.4569L32.0656 18.5649C31.989 18.5856 31.9436 18.665 31.9641 18.7422L32.0712 19.1454C32.0917 19.2226 32.1705 19.2685 32.2471 19.2478Z" fill="#4A4A4A"/>
<path d="M31.4445 19.4646L31.8443 19.3566C31.9209 19.3359 31.9664 19.2565 31.9459 19.1793L31.8387 18.7761C31.8182 18.6989 31.7395 18.653 31.6629 18.6737L31.263 18.7818C31.1864 18.8025 31.1409 18.8819 31.1615 18.9591L31.2686 19.3622C31.2891 19.4395 31.3679 19.4853 31.4445 19.4646Z" fill="#4A4A4A"/>
<path d="M30.6419 19.6814L31.0417 19.5734C31.1183 19.5527 31.1638 19.4733 31.1433 19.3961L31.0361 18.9929C31.0156 18.9157 30.9369 18.8699 30.8603 18.8906L30.4604 18.9986C30.3838 19.0193 30.3383 19.0987 30.3589 19.1759L30.466 19.5791C30.4865 19.6563 30.5653 19.7021 30.6419 19.6814Z" fill="#4A4A4A"/>
<path d="M29.8392 19.8983L30.239 19.7903C30.3156 19.7696 30.3611 19.6902 30.3406 19.613L30.2334 19.2098C30.2129 19.1326 30.1342 19.0868 30.0576 19.1075L29.6577 19.2155C29.5811 19.2362 29.5357 19.3156 29.5562 19.3928L29.6633 19.796C29.6839 19.8732 29.7626 19.919 29.8392 19.8983Z" fill="#4A4A4A"/>
<path d="M29.0366 20.1152L29.4364 20.0071C29.513 19.9864 29.5585 19.9071 29.538 19.8298L29.4308 19.4267C29.4103 19.3494 29.3316 19.3036 29.255 19.3243L28.8551 19.4323C28.7785 19.453 28.733 19.5324 28.7536 19.6096L28.8607 20.0128C28.8812 20.09 28.96 20.1359 29.0366 20.1152Z" fill="#4A4A4A"/>
<path d="M28.2339 20.332L28.6338 20.224C28.7104 20.2033 28.7558 20.1239 28.7353 20.0467L28.6282 19.6435C28.6076 19.5663 28.5289 19.5204 28.4523 19.5411L28.0524 19.6491C27.9758 19.6698 27.9304 19.7492 27.9509 19.8265L28.058 20.2296C28.0786 20.3069 28.1573 20.3527 28.2339 20.332Z" fill="#4A4A4A"/>
<path d="M27.4313 20.5488L27.8312 20.4408C27.9078 20.4201 27.9532 20.3407 27.9327 20.2635L27.8255 19.8603C27.805 19.7831 27.7263 19.7372 27.6497 19.7579L27.2498 19.866C27.1732 19.8867 27.1278 19.966 27.1483 20.0433L27.2554 20.4464C27.276 20.5237 27.3547 20.5695 27.4313 20.5488Z" fill="#4A4A4A"/>
<path d="M26.6286 20.7657L27.0285 20.6576C27.1051 20.637 27.1505 20.5576 27.13 20.4803L27.0229 20.0772C27.0023 19.9999 26.9236 19.9541 26.847 19.9748L26.4471 20.0828C26.3705 20.1035 26.3251 20.1829 26.3456 20.2601L26.4528 20.6633C26.4733 20.7405 26.552 20.7864 26.6286 20.7657Z" fill="#4A4A4A"/>
<path d="M25.826 20.9825L26.2259 20.8745C26.3025 20.8538 26.3479 20.7744 26.3274 20.6972L26.2203 20.294C26.1997 20.2168 26.121 20.171 26.0444 20.1917L25.6445 20.2997C25.5679 20.3204 25.5225 20.3998 25.543 20.477L25.6501 20.8802C25.6707 20.9574 25.7494 21.0032 25.826 20.9825Z" fill="#4A4A4A"/>
<path d="M25.0235 21.1993L25.4234 21.0913C25.5 21.0706 25.5454 20.9912 25.5249 20.914L25.4178 20.5108C25.3972 20.4336 25.3185 20.3878 25.2419 20.4085L24.842 20.5165C24.7654 20.5372 24.72 20.6166 24.7405 20.6938L24.8477 21.097C24.8682 21.1742 24.9469 21.22 25.0235 21.1993Z" fill="#4A4A4A"/>
<path fill-rule="evenodd" clip-rule="evenodd" d="M25.2628 22.0999L26.1893 21.8496C26.2261 21.8397 26.2653 21.8449 26.2983 21.8641C26.3313 21.8833 26.3553 21.9149 26.3652 21.952L26.4723 22.3552C26.4822 22.3922 26.477 22.4318 26.458 22.465C26.439 22.4983 26.4076 22.5225 26.3708 22.5325L25.4443 22.7828C25.4075 22.7927 25.3683 22.7875 25.3354 22.7683C25.3024 22.7491 25.2783 22.7175 25.2685 22.6804L25.1613 22.2774C25.1515 22.2403 25.1566 22.2008 25.1757 22.1675C25.1947 22.1343 25.2261 22.11 25.2629 22.1001L25.2628 22.0999Z" fill="#4A4A4A"/>
<path d="M27.0171 21.626L26.6172 21.734C26.5406 21.7547 26.4952 21.8341 26.5157 21.9113L26.6228 22.3145C26.6433 22.3917 26.7221 22.4376 26.7987 22.4169L27.1985 22.3088C27.2751 22.2881 27.3206 22.2088 27.3001 22.1315L27.1929 21.7284C27.1724 21.6511 27.0937 21.6053 27.0171 21.626Z" fill="#4A4A4A"/>
<path d="M27.8197 21.4091L27.4198 21.5172C27.3432 21.5379 27.2978 21.6172 27.3183 21.6945L27.4254 22.0976C27.446 22.1749 27.5247 22.2207 27.6013 22.2L28.0012 22.092C28.0778 22.0713 28.1232 21.9919 28.1027 21.9147L27.9955 21.5115C27.975 21.4343 27.8963 21.3884 27.8197 21.4091Z" fill="#4A4A4A"/>
<path d="M28.6224 21.1923L28.2225 21.3003C28.1459 21.321 28.1004 21.4004 28.121 21.4776L28.2281 21.8808C28.2486 21.958 28.3274 22.0039 28.404 21.9832L28.8038 21.8752C28.8804 21.8545 28.9259 21.7751 28.9054 21.6978L28.7982 21.2947C28.7777 21.2174 28.699 21.1716 28.6224 21.1923Z" fill="#4A4A4A"/>
<path d="M29.425 20.9755L29.0251 21.0835C28.9485 21.1042 28.9031 21.1836 28.9236 21.2608L29.0307 21.664C29.0512 21.7412 29.13 21.787 29.2066 21.7664L29.6064 21.6583C29.683 21.6376 29.7285 21.5582 29.708 21.481L29.6008 21.0778C29.5803 21.0006 29.5016 20.9548 29.425 20.9755Z" fill="#4A4A4A"/>
<path d="M30.2276 20.7586L29.8278 20.8666C29.7512 20.8873 29.7057 20.9667 29.7263 21.044L29.8334 21.4471C29.8539 21.5244 29.9327 21.5702 30.0093 21.5495L30.4091 21.4415C30.4857 21.4208 30.5312 21.3414 30.5107 21.2642L30.4035 20.861C30.383 20.7838 30.3042 20.7379 30.2276 20.7586Z" fill="#4A4A4A"/>
<path d="M31.0303 20.5418L30.6304 20.6498C30.5538 20.6705 30.5083 20.7499 30.5289 20.8271L30.636 21.2303C30.6565 21.3075 30.7353 21.3533 30.8119 21.3326L31.2117 21.2246C31.2883 21.2039 31.3338 21.1245 31.3133 21.0473L31.2061 20.6441C31.1856 20.5669 31.1069 20.5211 31.0303 20.5418Z" fill="#4A4A4A"/>
<path d="M31.8329 20.3249L31.4331 20.433C31.3565 20.4537 31.311 20.533 31.3315 20.6103L31.4387 21.0134C31.4592 21.0907 31.5379 21.1365 31.6145 21.1158L32.0144 21.0078C32.091 20.9871 32.1365 20.9077 32.1159 20.8305L32.0088 20.4273C31.9883 20.3501 31.9095 20.3042 31.8329 20.3249Z" fill="#4A4A4A"/>
<path d="M32.6354 20.1081L32.2356 20.2162C32.159 20.2369 32.1135 20.3162 32.134 20.3935L32.2412 20.7966C32.2617 20.8739 32.3404 20.9197 32.417 20.899L32.8169 20.791C32.8935 20.7703 32.939 20.6909 32.9184 20.6137L32.8113 20.2105C32.7908 20.1333 32.712 20.0874 32.6354 20.1081Z" fill="#4A4A4A"/>
<path d="M33.438 19.8913L33.0382 19.9993C32.9616 20.02 32.9161 20.0994 32.9366 20.1766L33.0438 20.5798C33.0643 20.657 33.143 20.7028 33.2196 20.6822L33.6195 20.5741C33.6961 20.5534 33.7416 20.474 33.721 20.3968L33.6139 19.9936C33.5934 19.9164 33.5146 19.8706 33.438 19.8913Z" fill="#4A4A4A"/>
<path d="M34.2407 19.6744L33.8408 19.7825C33.7642 19.8032 33.7188 19.8826 33.7393 19.9598L33.8465 20.363C33.867 20.4402 33.9457 20.486 34.0223 20.4653L34.4222 20.3573C34.4988 20.3366 34.5442 20.2572 34.5237 20.18L34.4166 19.7768C34.396 19.6996 34.3173 19.6538 34.2407 19.6744Z" fill="#4A4A4A"/>
<path d="M35.0433 19.4576L34.6435 19.5656C34.5669 19.5863 34.5214 19.6657 34.5419 19.7429L34.6491 20.1461C34.6696 20.2233 34.7483 20.2692 34.8249 20.2485L35.2248 20.1404C35.3014 20.1197 35.3469 20.0404 35.3263 19.9631L35.2192 19.56C35.1987 19.4827 35.1199 19.4369 35.0433 19.4576Z" fill="#4A4A4A"/>
<path fill-rule="evenodd" clip-rule="evenodd" d="M35.4714 19.3419L36.3476 19.1052C36.3844 19.0953 36.4236 19.1005 36.4566 19.1197C36.4896 19.1389 36.5136 19.1705 36.5235 19.2076L36.6306 19.6107C36.6405 19.6478 36.6353 19.6874 36.6163 19.7206C36.5973 19.7539 36.5659 19.7781 36.5291 19.7881L35.6527 20.0248C35.6159 20.0348 35.5767 20.0296 35.5437 20.0104C35.5107 19.9912 35.4867 19.9596 35.4768 19.9225L35.3697 19.5194C35.3599 19.4823 35.365 19.4428 35.3841 19.4096C35.4031 19.3763 35.4345 19.3521 35.4713 19.3421L35.4714 19.3419Z" fill="#4A4A4A"/>
<path d="M26.1062 23.6611L25.7064 23.7691C25.6298 23.7898 25.5843 23.8692 25.6049 23.9464L25.712 24.3496C25.7325 24.4268 25.8113 24.4726 25.8879 24.4519L26.2877 24.3439C26.3643 24.3232 26.4098 24.2438 26.3893 24.1666L26.2821 23.7634C26.2616 23.6862 26.1828 23.6404 26.1062 23.6611Z" fill="#4A4A4A"/>
<path d="M26.9089 23.4442L26.5091 23.5523C26.4325 23.5729 26.387 23.6523 26.4075 23.7296L26.5147 24.1327C26.5352 24.21 26.6139 24.2558 26.6905 24.2351L27.0904 24.1271C27.167 24.1064 27.2125 24.027 27.1919 23.9498L27.0848 23.5466C27.0643 23.4694 26.9855 23.4235 26.9089 23.4442Z" fill="#4A4A4A"/>
<path d="M27.7115 23.2274L27.3117 23.3354C27.2351 23.3561 27.1896 23.4355 27.2101 23.5127L27.3173 23.9159C27.3378 23.9931 27.4165 24.0389 27.4931 24.0182L27.893 23.9102C27.9696 23.8895 28.0151 23.8101 27.9945 23.7329L27.8874 23.3297C27.8669 23.2525 27.7881 23.2067 27.7115 23.2274Z" fill="#4A4A4A"/>
<path d="M28.5142 23.0105L28.1143 23.1185C28.0377 23.1392 27.9923 23.2186 28.0128 23.2958L28.12 23.699C28.1405 23.7762 28.2192 23.8221 28.2958 23.8014L28.6957 23.6934C28.7723 23.6727 28.8177 23.5933 28.7972 23.516L28.6901 23.1129C28.6695 23.0356 28.5908 22.9898 28.5142 23.0105Z" fill="#4A4A4A"/>
<path fill-rule="evenodd" clip-rule="evenodd" d="M28.9168 22.9017L32.7782 21.8586C32.8149 21.8486 32.8541 21.8538 32.8871 21.873C32.9201 21.8922 32.9442 21.9238 32.954 21.9609L33.0612 22.3642C33.0711 22.4013 33.0659 22.4408 33.0469 22.4741C33.0278 22.5073 32.9965 22.5316 32.9597 22.5415L29.0983 23.5847C29.0616 23.5947 29.0224 23.5895 28.9894 23.5703C28.9564 23.5511 28.9323 23.5194 28.9225 23.4824L28.8153 23.0791C28.8054 23.042 28.8106 23.0024 28.8296 22.9692C28.8487 22.9359 28.88 22.9117 28.9168 22.9017V22.9017ZM33.1808 21.7498L33.6811 21.6146C33.7179 21.6047 33.7571 21.6099 33.79 21.6291C33.823 21.6483 33.8471 21.6799 33.8569 21.717L33.9641 22.1203C33.974 22.1574 33.9688 22.1969 33.9498 22.2302C33.9307 22.2634 33.8994 22.2877 33.8626 22.2976L33.3623 22.4328C33.3255 22.4427 33.2863 22.4375 33.2533 22.4183C33.2204 22.3991 33.1963 22.3675 33.1864 22.3304L33.0793 21.9271C33.0694 21.89 33.0746 21.8505 33.0936 21.8172C33.1127 21.784 33.144 21.7597 33.1808 21.7498Z" fill="#4A4A4A"/>
<path d="M34.4837 21.3978L34.0838 21.5058C34.0072 21.5265 33.9618 21.6059 33.9823 21.6831L34.0894 22.0863C34.11 22.1635 34.1887 22.2093 34.2653 22.1887L34.6652 22.0806C34.7418 22.0599 34.7872 21.9805 34.7667 21.9033L34.6596 21.5001C34.639 21.4229 34.5603 21.3771 34.4837 21.3978Z" fill="#4A4A4A"/>
<path d="M35.2864 21.1809L34.8865 21.289C34.8099 21.3097 34.7644 21.3891 34.785 21.4663L34.8921 21.8695C34.9126 21.9467 34.9914 21.9925 35.068 21.9718L35.4678 21.8638C35.5444 21.8431 35.5899 21.7637 35.5694 21.6865L35.4622 21.2833C35.4417 21.2061 35.363 21.1603 35.2864 21.1809Z" fill="#4A4A4A"/>
<path d="M36.7912 20.7744L36.3914 20.8824C36.3148 20.9031 36.2693 20.9825 36.2898 21.0597L36.397 21.4629C36.4175 21.5401 36.4963 21.586 36.5729 21.5653L36.9727 21.4572C37.0493 21.4365 37.0948 21.3572 37.0742 21.2799L36.9671 20.8768C36.9466 20.7995 36.8678 20.7537 36.7912 20.7744Z" fill="#4A4A4A"/>
<path d="M35.5774 21.414L35.5372 21.263C35.5274 21.2259 35.5325 21.1864 35.5516 21.1532C35.5706 21.1199 35.602 21.0956 35.6388 21.0857L36.0386 20.9777C36.0754 20.9677 36.1146 20.9729 36.1476 20.9921C36.1806 21.0113 36.2046 21.043 36.2145 21.08L36.2546 21.2311L35.5774 21.414Z" fill="#4A4A4A"/>
<path d="M36.2816 21.3322L36.3218 21.4832C36.3316 21.5203 36.3265 21.5598 36.3074 21.5931C36.2884 21.6263 36.257 21.6506 36.2202 21.6605L35.8204 21.7685C35.7836 21.7785 35.7444 21.7733 35.7114 21.7541C35.6784 21.7349 35.6544 21.7033 35.6445 21.6662L35.6044 21.5151L36.2816 21.3322Z" fill="#4A4A4A"/>
<path d="M35.7866 17.1427L24.8005 20.1107C24.7174 20.1332 24.6681 20.2193 24.6903 20.3031C24.7126 20.3869 24.798 20.4367 24.8812 20.4142L35.8672 17.4462C35.9503 17.4237 35.9996 17.3376 35.9774 17.2538C35.9551 17.17 35.8697 17.1203 35.7866 17.1427Z" fill="#4A4A4A"/>
<path opacity="0.136" d="M25.472 19.9836L25.0397 20.1004C24.9843 20.1153 24.9515 20.1727 24.9663 20.2285L24.9664 20.2287C24.9812 20.2845 25.0381 20.3177 25.0935 20.3027L25.5258 20.1859C25.5812 20.1709 25.6141 20.1135 25.5992 20.0577L25.5992 20.0576C25.5844 20.0017 25.5274 19.9686 25.472 19.9836Z" fill="#D8D8D8"/>
<path opacity="0.136" d="M26.3381 19.7496L25.9058 19.8664C25.8504 19.8813 25.8175 19.9387 25.8324 19.9946L25.8324 19.9947C25.8472 20.0505 25.9042 20.0837 25.9595 20.0687L26.3919 19.9519C26.4472 19.937 26.4801 19.8796 26.4653 19.8237L26.4652 19.8236C26.4504 19.7678 26.3935 19.7346 26.3381 19.7496Z" fill="#D8D8D8"/>
<path opacity="0.136" d="M27.0044 19.5696L26.5721 19.6864C26.5167 19.7013 26.4838 19.7587 26.4987 19.8146L26.4987 19.8147C26.5135 19.8706 26.5705 19.9037 26.6259 19.8887L27.0582 19.7719C27.1136 19.757 27.1464 19.6996 27.1316 19.6437L27.1315 19.6436C27.1167 19.5878 27.0598 19.5546 27.0044 19.5696Z" fill="#D8D8D8"/>
<path opacity="0.136" d="M27.6705 19.3896L27.2382 19.5064C27.1828 19.5214 27.15 19.5788 27.1648 19.6346L27.1648 19.6348C27.1797 19.6906 27.2366 19.7237 27.292 19.7088L27.7243 19.592C27.7797 19.577 27.8126 19.5196 27.7977 19.4638L27.7977 19.4636C27.7828 19.4078 27.7259 19.3747 27.6705 19.3896Z" fill="#D8D8D8"/>
<path opacity="0.136" d="M28.3369 19.2096L27.9045 19.3264C27.8492 19.3413 27.8163 19.3987 27.8311 19.4546L27.8312 19.4547C27.846 19.5105 27.9029 19.5437 27.9583 19.5287L28.3906 19.4119C28.446 19.397 28.4789 19.3396 28.464 19.2837L28.464 19.2836C28.4492 19.2277 28.3922 19.1946 28.3369 19.2096Z" fill="#D8D8D8"/>
<path opacity="0.136" d="M29.1696 18.9846L28.7372 19.1014C28.6819 19.1164 28.649 19.1738 28.6638 19.2296L28.6639 19.2298C28.6787 19.2856 28.7356 19.3187 28.791 19.3038L29.2233 19.187C29.2787 19.172 29.3116 19.1146 29.2967 19.0588L29.2967 19.0586C29.2819 19.0028 29.2249 18.9697 29.1696 18.9846Z" fill="#D8D8D8"/>
<path opacity="0.136" d="M29.8358 18.8047L29.4034 18.9215C29.3481 18.9364 29.3152 18.9938 29.33 19.0497L29.3301 19.0498C29.3449 19.1056 29.4018 19.1388 29.4572 19.1238L29.8895 19.007C29.9449 18.992 29.9778 18.9347 29.9629 18.8788L29.9629 18.8787C29.9481 18.8228 29.8911 18.7897 29.8358 18.8047Z" fill="#D8D8D8"/>
<path opacity="0.136" d="M30.5021 18.6246L30.0698 18.7414C30.0144 18.7564 29.9815 18.8138 29.9964 18.8696L29.9964 18.8698C30.0112 18.9256 30.0682 18.9587 30.1235 18.9438L30.5559 18.827C30.6112 18.812 30.6441 18.7546 30.6293 18.6988L30.6292 18.6987C30.6144 18.6428 30.5575 18.6097 30.5021 18.6246Z" fill="#D8D8D8"/>
<path opacity="0.136" d="M31.1682 18.4446L30.7359 18.5614C30.6805 18.5764 30.6476 18.6338 30.6625 18.6896L30.6625 18.6898C30.6774 18.7456 30.7343 18.7788 30.7897 18.7638L31.222 18.647C31.2774 18.632 31.3102 18.5746 31.2954 18.5188L31.2954 18.5187C31.2805 18.4628 31.2236 18.4297 31.1682 18.4446Z" fill="#D8D8D8"/>
<path opacity="0.136" d="M32.0011 18.2197L31.5688 18.3365C31.5134 18.3514 31.4805 18.4088 31.4954 18.4647L31.4954 18.4648C31.5103 18.5206 31.5672 18.5538 31.6226 18.5388L32.0549 18.422C32.1103 18.4071 32.1431 18.3497 32.1283 18.2938L32.1282 18.2937C32.1134 18.2378 32.0565 18.2047 32.0011 18.2197Z" fill="#D8D8D8"/>
<path opacity="0.136" d="M32.6672 18.0397L32.2349 18.1565C32.1795 18.1714 32.1467 18.2288 32.1615 18.2847L32.1616 18.2848C32.1764 18.3406 32.2333 18.3738 32.2887 18.3588L32.721 18.242C32.7764 18.2271 32.8093 18.1697 32.7944 18.1138L32.7944 18.1137C32.7795 18.0579 32.7226 18.0247 32.6672 18.0397Z" fill="#D8D8D8"/>
<path opacity="0.136" d="M33.3336 17.8597L32.9012 17.9764C32.8459 17.9914 32.813 18.0488 32.8278 18.1046L32.8279 18.1048C32.8427 18.1606 32.8996 18.1938 32.955 18.1788L33.3873 18.062C33.4427 18.047 33.4756 17.9896 33.4607 17.9338L33.4607 17.9337C33.4459 17.8778 33.3889 17.8447 33.3336 17.8597Z" fill="#D8D8D8"/>
<path opacity="0.136" d="M34.1663 17.6347L33.7339 17.7515C33.6786 17.7665 33.6457 17.8239 33.6605 17.8797L33.6606 17.8798C33.6754 17.9357 33.7323 17.9688 33.7877 17.9539L34.22 17.8371C34.2754 17.8221 34.3083 17.7647 34.2934 17.7089L34.2934 17.7087C34.2786 17.6529 34.2216 17.6197 34.1663 17.6347Z" fill="#D8D8D8"/>
<path opacity="0.136" d="M34.8325 17.4547L34.4001 17.5715C34.3448 17.5865 34.3119 17.6439 34.3267 17.6997L34.3268 17.6998C34.3416 17.7557 34.3985 17.7888 34.4539 17.7739L34.8862 17.6571C34.9416 17.6421 34.9745 17.5847 34.9596 17.5289L34.9596 17.5287C34.9448 17.4729 34.8878 17.4398 34.8325 17.4547Z" fill="#D8D8D8"/>
<path opacity="0.136" d="M35.4987 17.2747L35.0664 17.3915C35.011 17.4065 34.9782 17.4639 34.993 17.5197L34.993 17.5199C35.0079 17.5757 35.0648 17.6088 35.1202 17.5939L35.5525 17.4771C35.6079 17.4621 35.6407 17.4047 35.6259 17.3489L35.6259 17.3487C35.611 17.2929 35.5541 17.2598 35.4987 17.2747Z" fill="#D8D8D8"/>
<path fill-rule="evenodd" clip-rule="evenodd" d="M30.1025 28.3805C30.071 28.3805 30.041 28.3859 30.0107 28.3898C30.0053 28.3681 30.0001 28.3462 29.9941 28.3245C30.1471 28.26 30.2732 28.1441 30.3511 27.9964C30.4289 27.8488 30.4537 27.6785 30.4211 27.5145C30.3885 27.3506 30.3007 27.203 30.1724 27.097C30.0442 26.9909 29.8835 26.9329 29.7177 26.9328C29.5609 26.9333 29.4086 26.9861 29.2846 27.0828C29.2687 27.0664 29.2527 27.0502 29.2365 27.0341C29.3303 26.9098 29.3813 26.7579 29.3817 26.6017C29.3816 26.4349 29.3243 26.2733 29.2197 26.1441C29.115 26.0149 28.9693 25.9262 28.8073 25.8928C28.6452 25.8595 28.4767 25.8836 28.3302 25.9611C28.1837 26.0385 28.0682 26.1646 28.0033 26.3181C27.9821 26.312 27.9607 26.3069 27.9394 26.3014C27.9433 26.2709 27.9486 26.2406 27.9486 26.2089C27.9486 26.0169 27.873 25.8328 27.7383 25.697C27.6037 25.5613 27.4211 25.485 27.2307 25.485C27.0403 25.485 26.8577 25.5613 26.723 25.697C26.5884 25.8328 26.5127 26.0169 26.5127 26.2089C26.5127 26.2406 26.518 26.2709 26.5219 26.3014C26.5007 26.3069 26.4793 26.312 26.458 26.3181C26.3933 26.1644 26.2779 26.0379 26.1314 25.9602C25.9848 25.8825 25.8161 25.8583 25.6539 25.8917C25.4916 25.9251 25.3458 26.014 25.2412 26.1434C25.1365 26.2728 25.0795 26.4347 25.0797 26.6017C25.0797 26.7645 25.1348 26.9131 25.2249 27.0341C24.6912 27.5599 24.3589 28.2926 24.3589 29.1044C24.3589 30.7036 25.6446 31.9999 27.2307 31.9999C28.5717 31.9999 29.6947 31.0719 30.0107 29.819C30.041 29.8229 30.071 29.8283 30.1025 29.8283C30.2929 29.8283 30.4755 29.752 30.6101 29.6163C30.7448 29.4805 30.8204 29.2964 30.8204 29.1044C30.8204 28.9124 30.7448 28.7283 30.6101 28.5925C30.4755 28.4568 30.2929 28.3805 30.1025 28.3805" fill="#44D860"/>
<path fill-rule="evenodd" clip-rule="evenodd" d="M21.4871 23.3134H27.2307V20.4179H21.4871V23.3134Z" fill="#3ECC5F"/>
<path fill-rule="evenodd" clip-rule="evenodd" d="M28.6666 22.2276C28.7618 22.2276 28.8531 22.1895 28.9204 22.1216C28.9877 22.0537 29.0256 21.9616 29.0256 21.8656C29.0256 21.7697 28.9877 21.6776 28.9204 21.6097C28.8531 21.5418 28.7618 21.5037 28.6666 21.5037C28.6509 21.5037 28.6359 21.5065 28.6208 21.5083C28.6179 21.4975 28.6155 21.4866 28.6125 21.4758C28.6889 21.4434 28.7518 21.3854 28.7907 21.3116C28.8295 21.2378 28.8418 21.1527 28.8256 21.0708C28.8093 20.9889 28.7654 20.9151 28.7014 20.8621C28.6373 20.8091 28.5571 20.78 28.4742 20.7798C28.3925 20.7798 28.318 20.8083 28.2576 20.8548C28.2498 20.8466 28.2417 20.8385 28.2335 20.8305C28.2786 20.7701 28.3062 20.6957 28.3062 20.6142C28.3062 20.5308 28.2776 20.4499 28.2252 20.3853C28.1729 20.3207 28.1 20.2764 28.0189 20.2597C27.9379 20.243 27.8536 20.2551 27.7803 20.2939C27.7071 20.3326 27.6494 20.3957 27.617 20.4725C27.4913 20.4366 27.3613 20.4183 27.2307 20.4179C26.4378 20.4179 25.7948 21.0662 25.7948 21.8656C25.7948 22.6651 26.4378 23.3134 27.2307 23.3134C27.3648 23.3134 27.4939 23.2934 27.617 23.2588C27.6494 23.3356 27.7071 23.3987 27.7803 23.4374C27.8536 23.4762 27.9379 23.4883 28.0189 23.4716C28.1 23.4549 28.1729 23.4105 28.2252 23.3459C28.2776 23.2813 28.3062 23.2005 28.3062 23.1171C28.3062 23.0356 28.2786 22.9612 28.2335 22.9008C28.2417 22.8928 28.2498 22.8847 28.2576 22.8765C28.318 22.9229 28.3925 22.9515 28.4742 22.9515C28.5571 22.9515 28.6375 22.9225 28.7017 22.8695C28.7659 22.8164 28.8098 22.7426 28.8261 22.6606C28.8424 22.5786 28.8301 22.4934 28.7911 22.4196C28.7521 22.3457 28.689 22.2878 28.6125 22.2555C28.6155 22.2448 28.6179 22.2338 28.6208 22.223C28.6359 22.2248 28.6509 22.2276 28.6666 22.2276Z" fill="#44D860"/>
<path fill-rule="evenodd" clip-rule="evenodd" d="M30.1025 11.5504C30.0795 11.5504 30.0551 11.5475 30.0321 11.5431C30.009 11.5386 29.9864 11.5318 29.9647 11.5229C29.9431 11.5142 29.923 11.5026 29.9028 11.4896C29.8841 11.4765 29.8656 11.4606 29.8482 11.4447C29.8326 11.4273 29.8168 11.4099 29.8038 11.3897C29.7909 11.3694 29.7794 11.3491 29.7707 11.3274C29.753 11.2832 29.7438 11.2361 29.7435 11.1884C29.7435 11.1653 29.7464 11.1407 29.7507 11.1175C29.755 11.0943 29.7622 11.0726 29.7707 11.0495C29.7794 11.0277 29.7909 11.0075 29.8038 10.9872C29.8168 10.9684 29.8326 10.9496 29.8482 10.9322C29.8656 10.9163 29.8841 10.9003 29.9028 10.8873C29.923 10.8743 29.9431 10.8627 29.9647 10.854C29.9861 10.8453 30.0092 10.8381 30.0321 10.8337C30.0781 10.8236 30.1255 10.8236 30.1729 10.8337C30.1957 10.8381 30.2188 10.8453 30.2404 10.854C30.2617 10.8627 30.282 10.8743 30.3021 10.8873C30.3208 10.9003 30.3393 10.9163 30.3567 10.9322C30.3725 10.9496 30.3882 10.9684 30.4012 10.9872C30.4141 11.0075 30.4256 11.0277 30.4342 11.0495C30.4428 11.0726 30.45 11.0943 30.4543 11.1175C30.4585 11.1407 30.4615 11.1653 30.4615 11.1884C30.4615 11.284 30.4226 11.3781 30.3567 11.4447C30.3393 11.4606 30.3208 11.4765 30.3021 11.4896C30.282 11.5026 30.2617 11.5142 30.2404 11.5229C30.1966 11.5409 30.1498 11.5502 30.1025 11.5504M32.9743 11.3694C32.8795 11.3694 32.7876 11.3303 32.72 11.2637C32.7041 11.2464 32.6892 11.228 32.6756 11.2087C32.6627 11.1884 32.6512 11.1682 32.6425 11.1465C32.6248 11.1023 32.6156 11.0551 32.6153 11.0075C32.6153 10.9119 32.6541 10.8193 32.72 10.7512C32.7374 10.7353 32.7559 10.7194 32.7746 10.7063C32.7948 10.6933 32.8149 10.6817 32.8365 10.673C32.8578 10.6644 32.881 10.6571 32.9039 10.6528C32.9499 10.6426 32.9987 10.6426 33.0447 10.6528C33.0675 10.6571 33.0906 10.6644 33.1121 10.673C33.1335 10.6817 33.1538 10.6933 33.1739 10.7063C33.1926 10.7194 33.2111 10.7353 33.2285 10.7512C33.2944 10.8193 33.3333 10.9119 33.3333 11.0075C33.3333 11.0306 33.3303 11.0552 33.3261 11.0784C33.3218 11.1016 33.3146 11.1247 33.306 11.1465C33.2959 11.1682 33.2859 11.1884 33.273 11.2087C33.26 11.2275 33.2442 11.2464 33.2285 11.2637C33.2111 11.2797 33.1926 11.2956 33.1739 11.3086C33.1538 11.3216 33.1335 11.3332 33.1121 11.3419C33.0684 11.3599 33.0216 11.3692 32.9743 11.3694Z" fill="black"/>
</g>
<g filter="url(#filter1_d_40_111)">
<path d="M46.8788 17.9999V9.99994H49.8085C50.3762 9.99994 50.8463 10.0937 51.2187 10.2812C51.5911 10.4661 51.8697 10.7174 52.0546 11.0351C52.2395 11.3502 52.332 11.7057 52.332 12.1015C52.332 12.4348 52.2708 12.7161 52.1484 12.9452C52.026 13.1718 51.8619 13.3541 51.6562 13.4921C51.4531 13.6275 51.2291 13.7265 50.9843 13.789V13.8671C51.2499 13.8801 51.5091 13.9661 51.7617 14.1249C52.0169 14.2812 52.2278 14.5038 52.3945 14.7929C52.5611 15.082 52.6445 15.4335 52.6445 15.8476C52.6445 16.2564 52.5481 16.6236 52.3554 16.9492C52.1653 17.2721 51.871 17.5286 51.4726 17.7187C51.0742 17.9062 50.565 17.9999 49.9453 17.9999H46.8788ZM48.0859 16.9648H49.8281C50.4062 16.9648 50.8203 16.8528 51.0702 16.6288C51.3203 16.4049 51.4453 16.1249 51.4453 15.789C51.4453 15.5364 51.3814 15.3046 51.2538 15.0937C51.1262 14.8827 50.9439 14.7148 50.707 14.5898C50.4726 14.4648 50.1939 14.4023 49.871 14.4023H48.0859V16.9648ZM48.0859 13.4609H49.7031C49.9739 13.4609 50.2174 13.4088 50.4335 13.3046C50.6523 13.2005 50.8255 13.0546 50.9531 12.8671C51.0833 12.677 51.1484 12.4531 51.1484 12.1952C51.1484 11.8645 51.0325 11.5872 50.8007 11.3632C50.5689 11.1393 50.2135 11.0273 49.7343 11.0273H48.0859V13.4609ZM57.7831 15.5117V11.9999H58.955V17.9999H57.8066V16.9609H57.7441C57.6061 17.2812 57.3847 17.5481 57.08 17.7617C56.7779 17.9726 56.4016 18.0781 55.9511 18.0781C55.5657 18.0781 55.2245 17.9934 54.9277 17.8242C54.6334 17.6523 54.4016 17.3984 54.2324 17.0624C54.0657 16.7265 53.9824 16.3111 53.9824 15.8163V11.9999H55.1503V15.6757C55.1503 16.0846 55.2636 16.4101 55.4902 16.6523C55.7167 16.8945 56.011 17.0156 56.373 17.0156C56.5917 17.0156 56.8092 16.9609 57.0253 16.8515C57.2441 16.7421 57.4251 16.5768 57.5683 16.3554C57.7141 16.1341 57.7857 15.8528 57.7831 15.5117ZM60.5243 17.9999V11.9999H61.6923V17.9999H60.5243ZM61.1142 11.0742C60.9111 11.0742 60.7366 11.0064 60.5908 10.871C60.4475 10.733 60.3759 10.5689 60.3759 10.3788C60.3759 10.1861 60.4475 10.0221 60.5908 9.88666C60.7366 9.74864 60.9111 9.67963 61.1142 9.67963C61.3173 9.67963 61.4905 9.74864 61.6337 9.88666C61.7796 10.0221 61.8525 10.1861 61.8525 10.3788C61.8525 10.5689 61.7796 10.733 61.6337 10.871C61.4905 11.0064 61.3173 11.0742 61.1142 11.0742ZM64.4316 9.99994V17.9999H63.2636V9.99994H64.4316ZM68.8036 11.9999V12.9374H65.5263V11.9999H68.8036ZM66.4052 10.5624H67.5732V16.2382C67.5732 16.4648 67.607 16.6354 67.6747 16.7499C67.7424 16.8619 67.8297 16.9387 67.9365 16.9804C68.0458 17.0195 68.1643 17.039 68.2919 17.039C68.3857 17.039 68.4677 17.0325 68.538 17.0195C68.6083 17.0064 68.663 16.996 68.7021 16.9882L68.913 17.9531C68.8453 17.9791 68.749 18.0051 68.624 18.0312C68.499 18.0598 68.3427 18.0755 68.1552 18.0781C67.8479 18.0833 67.5615 18.0286 67.2958 17.914C67.0302 17.7994 66.8154 17.6223 66.6513 17.3827C66.4872 17.1432 66.4052 16.8424 66.4052 16.4804V10.5624ZM74.3075 17.9999L72.5419 11.9999H73.749L74.9247 16.4062H74.9833L76.163 11.9999H77.37L78.5419 16.3867H78.6005L79.7685 11.9999H80.9755L79.2138 17.9999H78.0224L76.8036 13.6679H76.7138L75.495 17.9999H74.3075ZM82.0839 17.9999V11.9999H83.2519V17.9999H82.0839ZM82.6738 11.0742C82.4706 11.0742 82.2962 11.0064 82.1503 10.871C82.0071 10.733 81.9355 10.5689 81.9355 10.3788C81.9355 10.1861 82.0071 10.0221 82.1503 9.88666C82.2962 9.74864 82.4706 9.67963 82.6738 9.67963C82.8769 9.67963 83.0501 9.74864 83.1933 9.88666C83.3391 10.0221 83.412 10.1861 83.412 10.3788C83.412 10.5689 83.3391 10.733 83.1933 10.871C83.0501 11.0064 82.8769 11.0742 82.6738 11.0742ZM87.624 11.9999V12.9374H84.3466V11.9999H87.624ZM85.2255 10.5624H86.3935V16.2382C86.3935 16.4648 86.4273 16.6354 86.495 16.7499C86.5628 16.8619 86.65 16.9387 86.7568 16.9804C86.8661 17.0195 86.9846 17.039 87.1122 17.039C87.206 17.039 87.288 17.0325 87.3583 17.0195C87.4286 17.0064 87.4833 16.996 87.5224 16.9882L87.7333 17.9531C87.6656 17.9791 87.5693 18.0051 87.4443 18.0312C87.3193 18.0598 87.163 18.0755 86.9755 18.0781C86.6682 18.0833 86.3818 18.0286 86.1161 17.914C85.8505 17.7994 85.6357 17.6223 85.4716 17.3827C85.3075 17.1432 85.2255 16.8424 85.2255 16.4804V10.5624ZM90.2128 14.4374V17.9999H89.0448V9.99994H90.1972V12.9765H90.2714C90.412 12.6536 90.6269 12.3971 90.9159 12.207C91.205 12.0169 91.5826 11.9218 92.0488 11.9218C92.4602 11.9218 92.8196 12.0064 93.1269 12.1757C93.4368 12.345 93.6764 12.5976 93.8456 12.9335C94.0175 13.2669 94.1034 13.6835 94.1034 14.1835V17.9999H92.9355V14.3242C92.9355 13.8841 92.8222 13.5429 92.5956 13.3007C92.3691 13.0559 92.054 12.9335 91.6503 12.9335C91.3743 12.9335 91.1269 12.9921 90.9081 13.1093C90.692 13.2265 90.5214 13.3984 90.3964 13.6249C90.274 13.8489 90.2128 14.1197 90.2128 14.4374Z" fill="#E8E8E8"/>
<path d="M49.8863 30.9999H46.6605V22.2727H49.882C50.7712 22.2727 51.5369 22.4474 52.1789 22.7968C52.8238 23.1434 53.321 23.6434 53.6704 24.2968C54.0198 24.9474 54.1945 25.7258 54.1945 26.632C54.1945 27.5411 54.0198 28.3224 53.6704 28.9758C53.3238 29.6292 52.8281 30.1306 52.1832 30.48C51.5383 30.8266 50.7727 30.9999 49.8863 30.9999ZM48.7698 29.2016H49.8053C50.294 29.2016 50.7073 29.1193 51.0454 28.9545C51.3863 28.7869 51.6434 28.5156 51.8167 28.1406C51.9928 27.7627 52.0809 27.2599 52.0809 26.632C52.0809 26.0042 51.9928 25.5042 51.8167 25.132C51.6406 24.757 51.3806 24.4872 51.0369 24.3224C50.696 24.1548 50.2755 24.071 49.7755 24.071H48.7698V29.2016ZM58.4815 31.1235C57.794 31.1235 57.2031 30.9829 56.7087 30.7016C56.2173 30.4175 55.838 30.0227 55.571 29.517C55.3068 29.0085 55.1747 28.419 55.1747 27.7485C55.1747 27.0752 55.3068 26.4857 55.571 25.9801C55.838 25.4715 56.2173 25.0766 56.7087 24.7954C57.2031 24.5113 57.794 24.3693 58.4815 24.3693C59.169 24.3693 59.7585 24.5113 60.2499 24.7954C60.7443 25.0766 61.1235 25.4715 61.3877 25.9801C61.6548 26.4857 61.7883 27.0752 61.7883 27.7485C61.7883 28.419 61.6548 29.0085 61.3877 29.517C61.1235 30.0227 60.7443 30.4175 60.2499 30.7016C59.7585 30.9829 59.169 31.1235 58.4815 31.1235ZM58.4943 29.5511C58.7443 29.5511 58.9559 29.4744 59.1292 29.321C59.3025 29.1675 59.4346 28.9545 59.5255 28.6818C59.6193 28.409 59.6661 28.0937 59.6661 27.7357C59.6661 27.3721 59.6193 27.0539 59.5255 26.7812C59.4346 26.5085 59.3025 26.2954 59.1292 26.142C58.9559 25.9886 58.7443 25.9119 58.4943 25.9119C58.2357 25.9119 58.017 25.9886 57.838 26.142C57.6619 26.2954 57.5269 26.5085 57.4332 26.7812C57.3423 27.0539 57.2968 27.3721 57.2968 27.7357C57.2968 28.0937 57.3423 28.409 57.4332 28.6818C57.5269 28.9545 57.6619 29.1675 57.838 29.321C58.017 29.4744 58.2357 29.5511 58.4943 29.5511ZM65.9112 31.1235C65.2208 31.1235 64.6285 30.9815 64.1342 30.6974C63.6427 30.4133 63.2648 30.0184 63.0006 29.5127C62.7364 29.0042 62.6043 28.4161 62.6043 27.7485C62.6043 27.0781 62.7364 26.49 63.0006 25.9843C63.2677 25.4758 63.647 25.0795 64.1384 24.7954C64.6327 24.5113 65.2222 24.3693 65.9069 24.3693C66.512 24.3693 67.039 24.4786 67.4879 24.6974C67.9396 24.9161 68.2918 25.2258 68.5447 25.6264C68.8004 26.0241 68.9353 26.4914 68.9495 27.0283H67.0021C66.9623 26.6931 66.8487 26.4303 66.6612 26.24C66.4765 26.0497 66.235 25.9545 65.9367 25.9545C65.6952 25.9545 65.4836 26.0227 65.3018 26.159C65.12 26.2926 64.9779 26.4914 64.8756 26.7556C64.7762 27.017 64.7265 27.3408 64.7265 27.7272C64.7265 28.1136 64.7762 28.4403 64.8756 28.7073C64.9779 28.9715 65.12 29.1718 65.3018 29.3082C65.4836 29.4417 65.6952 29.5085 65.9367 29.5085C66.1299 29.5085 66.3004 29.4673 66.4481 29.3849C66.5987 29.3025 66.7222 29.1818 66.8188 29.0227C66.9154 28.8607 66.9765 28.6647 67.0021 28.4346H68.9495C68.9296 28.9744 68.7947 29.446 68.5447 29.8494C68.2975 30.2528 67.9495 30.5667 67.5006 30.7911C67.0546 31.0127 66.5248 31.1235 65.9112 31.1235ZM74.2389 28.1747V24.4545H76.3185V30.9999H74.3327V29.7812H74.2645C74.1196 30.1818 73.8724 30.4999 73.523 30.7357C73.1764 30.9687 72.7574 31.0852 72.2659 31.0852C71.8199 31.0852 71.4278 30.9829 71.0898 30.7783C70.7517 30.5738 70.4889 30.2883 70.3014 29.9218C70.1139 29.5525 70.0188 29.1207 70.0159 28.6264V24.4545H72.0997V28.2173C72.1026 28.5724 72.1963 28.8522 72.381 29.0568C72.5656 29.2613 72.817 29.3636 73.1352 29.3636C73.3426 29.3636 73.5287 29.3181 73.6935 29.2272C73.8611 29.1335 73.9932 28.9985 74.0898 28.8224C74.1892 28.6434 74.2389 28.4275 74.2389 28.1747ZM83.3593 26.4531L81.446 26.5042C81.4261 26.3678 81.3721 26.2471 81.284 26.142C81.196 26.034 81.0809 25.9502 80.9388 25.8906C80.7996 25.8281 80.6377 25.7968 80.4531 25.7968C80.2116 25.7968 80.0056 25.8451 79.8352 25.9417C79.6675 26.0383 79.5852 26.169 79.588 26.3337C79.5852 26.4616 79.6363 26.5724 79.7414 26.6661C79.8494 26.7599 80.0411 26.8352 80.3167 26.892L81.5781 27.1306C82.2315 27.2556 82.7173 27.463 83.0354 27.7528C83.3565 28.0426 83.5184 28.4261 83.5212 28.9033C83.5184 29.3522 83.3849 29.7428 83.1207 30.0752C82.8593 30.4076 82.5013 30.6661 82.0468 30.8508C81.5923 31.0326 81.0724 31.1235 80.4871 31.1235C79.5525 31.1235 78.8153 30.9318 78.2755 30.5482C77.7386 30.1619 77.4317 29.6448 77.355 28.9971L79.4133 28.946C79.4587 29.1846 79.5766 29.3664 79.767 29.4914C79.9573 29.6164 80.2002 29.6789 80.4957 29.6789C80.7627 29.6789 80.98 29.6292 81.1477 29.5298C81.3153 29.4303 81.4005 29.2982 81.4033 29.1335C81.4005 28.9857 81.3352 28.8678 81.2073 28.7798C81.0795 28.6889 80.8792 28.6178 80.6065 28.5667L79.4644 28.3494C78.8082 28.2301 78.3195 28.0099 77.9985 27.6889C77.6775 27.365 77.5184 26.9531 77.5212 26.4531C77.5184 26.0156 77.6349 25.642 77.8707 25.3323C78.1065 25.0198 78.4417 24.7812 78.8763 24.6164C79.311 24.4516 79.8238 24.3693 80.4147 24.3693C81.3011 24.3693 81.9999 24.5553 82.5113 24.9275C83.0227 25.2968 83.3053 25.8053 83.3593 26.4531ZM86.3923 31.1107C85.9747 31.1107 85.604 31.0411 85.2801 30.9019C84.9591 30.7599 84.7048 30.5468 84.5173 30.2627C84.3327 29.9758 84.2403 29.6164 84.2403 29.1846C84.2403 28.821 84.3043 28.5141 84.4321 28.2641C84.5599 28.0141 84.7361 27.811 84.9605 27.6548C85.1849 27.4985 85.4435 27.3806 85.7361 27.3011C86.0287 27.2187 86.3412 27.1633 86.6736 27.1349C87.0457 27.1008 87.3455 27.0653 87.5727 27.0283C87.8 26.9886 87.9648 26.9332 88.067 26.8622C88.1722 26.7883 88.2247 26.6846 88.2247 26.5511V26.5298C88.2247 26.311 88.1494 26.142 87.9989 26.0227C87.8483 25.9033 87.6452 25.8437 87.3895 25.8437C87.1139 25.8437 86.8923 25.9033 86.7247 26.0227C86.5571 26.142 86.4506 26.3068 86.4051 26.517L84.4832 26.4488C84.5401 26.0511 84.6864 25.696 84.9222 25.3835C85.1608 25.0681 85.4875 24.821 85.9023 24.642C86.3199 24.4602 86.8213 24.3693 87.4065 24.3693C87.8241 24.3693 88.2091 24.419 88.5614 24.5184C88.9136 24.615 89.2205 24.757 89.4818 24.9445C89.7432 25.1292 89.9449 25.3565 90.0869 25.6264C90.2318 25.8962 90.3043 26.2045 90.3043 26.5511V30.9999H88.344V30.088H88.2929C88.1764 30.3096 88.0273 30.4971 87.8455 30.6505C87.6665 30.8039 87.4548 30.919 87.2105 30.9957C86.969 31.0724 86.6963 31.1107 86.3923 31.1107ZM87.0358 29.7471C87.2602 29.7471 87.4619 29.7016 87.6409 29.6107C87.8227 29.5198 87.9676 29.3948 88.0756 29.2357C88.1835 29.0738 88.2375 28.8863 88.2375 28.6732V28.0511C88.1778 28.0823 88.1054 28.1107 88.0202 28.1363C87.9378 28.1619 87.8469 28.186 87.7474 28.2087C87.648 28.2315 87.5457 28.2514 87.4406 28.2684C87.3355 28.2854 87.2347 28.3011 87.1381 28.3153C86.942 28.3465 86.7744 28.3948 86.6352 28.4602C86.4989 28.5255 86.3937 28.6107 86.3199 28.7158C86.2489 28.8181 86.2134 28.9403 86.2134 29.0823C86.2134 29.2982 86.2901 29.463 86.4435 29.5766C86.5997 29.6903 86.7972 29.7471 87.0358 29.7471ZM95.8014 28.1747V24.4545H97.881V30.9999H95.8952V29.7812H95.827C95.6821 30.1818 95.4349 30.4999 95.0855 30.7357C94.7389 30.9687 94.3199 31.0852 93.8284 31.0852C93.3824 31.0852 92.9903 30.9829 92.6523 30.7783C92.3142 30.5738 92.0514 30.2883 91.8639 29.9218C91.6764 29.5525 91.5812 29.1207 91.5784 28.6264V24.4545H93.6622V28.2173C93.6651 28.5724 93.7588 28.8522 93.9435 29.0568C94.1281 29.2613 94.3795 29.3636 94.6977 29.3636C94.9051 29.3636 95.0912 29.3181 95.256 29.2272C95.4236 29.1335 95.5557 28.9985 95.6523 28.8224C95.7517 28.6434 95.8014 28.4275 95.8014 28.1747ZM99.2073 30.9999V24.4545H101.231V25.6477H101.3C101.419 25.2158 101.614 24.8948 101.883 24.6846C102.153 24.4715 102.467 24.365 102.825 24.365C102.922 24.365 103.021 24.3721 103.124 24.3863C103.226 24.3977 103.321 24.4161 103.409 24.4417V26.2528C103.31 26.2187 103.179 26.1917 103.017 26.1718C102.858 26.1519 102.716 26.142 102.591 26.142C102.344 26.142 102.121 26.1974 101.922 26.3082C101.726 26.4161 101.571 26.5681 101.457 26.7641C101.347 26.9573 101.291 27.1846 101.291 27.446V30.9999H99.2073ZM108.481 28.1747V24.4545H110.561V30.9999H108.575V29.7812H108.507C108.362 30.1818 108.115 30.4999 107.765 30.7357C107.419 30.9687 107 31.0852 106.508 31.0852C106.062 31.0852 105.67 30.9829 105.332 30.7783C104.994 30.5738 104.731 30.2883 104.544 29.9218C104.356 29.5525 104.261 29.1207 104.258 28.6264V24.4545H106.342V28.2173C106.345 28.5724 106.438 28.8522 106.623 29.0568C106.808 29.2613 107.059 29.3636 107.377 29.3636C107.585 29.3636 107.771 29.3181 107.936 29.2272C108.103 29.1335 108.235 28.9985 108.332 28.8224C108.431 28.6434 108.481 28.4275 108.481 28.1747ZM117.601 26.4531L115.688 26.5042C115.668 26.3678 115.614 26.2471 115.526 26.142C115.438 26.034 115.323 25.9502 115.181 25.8906C115.042 25.8281 114.88 25.7968 114.695 25.7968C114.454 25.7968 114.248 25.8451 114.077 25.9417C113.91 26.0383 113.827 26.169 113.83 26.3337C113.827 26.4616 113.878 26.5724 113.984 26.6661C114.092 26.7599 114.283 26.8352 114.559 26.892L115.82 27.1306C116.474 27.2556 116.959 27.463 117.278 27.7528C117.599 28.0426 117.761 28.4261 117.763 28.9033C117.761 29.3522 117.627 29.7428 117.363 30.0752C117.101 30.4076 116.744 30.6661 116.289 30.8508C115.834 31.0326 115.315 31.1235 114.729 31.1235C113.795 31.1235 113.057 30.9318 112.518 30.5482C111.981 30.1619 111.674 29.6448 111.597 28.9971L113.655 28.946C113.701 29.1846 113.819 29.3664 114.009 29.4914C114.199 29.6164 114.442 29.6789 114.738 29.6789C115.005 29.6789 115.222 29.6292 115.39 29.5298C115.557 29.4303 115.643 29.2982 115.646 29.1335C115.643 28.9857 115.577 28.8678 115.449 28.7798C115.322 28.6889 115.121 28.6178 114.849 28.5667L113.707 28.3494C113.05 28.2301 112.562 28.0099 112.241 27.6889C111.92 27.365 111.761 26.9531 111.763 26.4531C111.761 26.0156 111.877 25.642 112.113 25.3323C112.349 25.0198 112.684 24.7812 113.119 24.6164C113.553 24.4516 114.066 24.3693 114.657 24.3693C115.543 24.3693 116.242 24.5553 116.753 24.9275C117.265 25.2968 117.548 25.8053 117.601 26.4531Z" fill="url(#paint1_linear_40_111)"/>
</g>
<rect x="0.749939" y="0.749939" width="127.5" height="38.5" rx="5.25" stroke="white" stroke-opacity="0.15" stroke-width="1.5"/>
<defs>
<filter id="filter0_d_40_111" x="5.99994" y="1.99994" width="36" height="36" filterUnits="userSpaceOnUse" color-interpolation-filters="sRGB">
<feFlood flood-opacity="0" result="BackgroundImageFix"/>
<feColorMatrix in="SourceAlpha" type="matrix" values="0 0 0 0 0 0 0 0 0 0 0 0 0 0 0 0 0 0 127 0" result="hardAlpha"/>
<feOffset/>
<feGaussianBlur stdDeviation="2"/>
<feComposite in2="hardAlpha" operator="out"/>
<feColorMatrix type="matrix" values="0 0 0 0 0 0 0 0 0 0 0 0 0 0 0 0 0 0 0.25 0"/>
<feBlend mode="normal" in2="BackgroundImageFix" result="effect1_dropShadow_40_111"/>
<feBlend mode="normal" in="SourceGraphic" in2="effect1_dropShadow_40_111" result="shape"/>
</filter>
<filter id="filter1_d_40_111" x="41.9999" y="2.99994" width="81" height="34" filterUnits="userSpaceOnUse" color-interpolation-filters="sRGB">
<feFlood flood-opacity="0" result="BackgroundImageFix"/>
<feColorMatrix in="SourceAlpha" type="matrix" values="0 0 0 0 0 0 0 0 0 0 0 0 0 0 0 0 0 0 127 0" result="hardAlpha"/>
<feOffset/>
<feGaussianBlur stdDeviation="2"/>
<feComposite in2="hardAlpha" operator="out"/>
<feColorMatrix type="matrix" values="0 0 0 0 0 0 0 0 0 0 0 0 0 0 0 0 0 0 0.25 0"/>
<feBlend mode="normal" in2="BackgroundImageFix" result="effect1_dropShadow_40_111"/>
<feBlend mode="normal" in="SourceGraphic" in2="effect1_dropShadow_40_111" result="shape"/>
</filter>
<linearGradient id="paint0_linear_40_111" x1="64.4999" y1="-6.10351e-05" x2="64.4999" y2="39.9999" gradientUnits="userSpaceOnUse">
<stop stop-color="#103519"/>
<stop offset="1" stop-color="#22220A"/>
</linearGradient>
<linearGradient id="paint1_linear_40_111" x1="82.4999" y1="19.9999" x2="82.4999" y2="32.9999" gradientUnits="userSpaceOnUse">
<stop stop-color="#31A4E7"/>
<stop offset="0.0001" stop-color="#6CCA82"/>
<stop offset="1" stop-color="#FFFF8D"/>
</linearGradient>
</defs>
</svg>
