<svg width="186" height="40" viewBox="0 0 186 40" fill="none" xmlns="http://www.w3.org/2000/svg">
<rect x="-6.10352e-05" y="-1.52588e-05" width="186" height="40" rx="6" fill="url(#paint0_linear_28_12)"/>
<g filter="url(#filter0_d_28_12)">
<path d="M11.4999 27.75V12H22.7499V14.25H13.7499V16.5H18.2499V18.75H13.7499V27.75H11.4999ZM27.2499 27.75V25.5H33.9999V27.75H27.2499ZM24.9999 25.5V14.25H27.2499V25.5H24.9999ZM33.9999 25.5V14.25H36.2499V25.5H33.9999ZM27.2499 14.25V12H33.9999V14.25H27.2499Z" fill="#DECFAC"/>
</g>
<g filter="url(#filter1_d_28_12)">
<path d="M46.8788 18V9.99998H49.8085C50.3762 9.99998 50.8463 10.0937 51.2187 10.2812C51.5911 10.4661 51.8697 10.7174 52.0546 11.0351C52.2395 11.3502 52.332 11.7057 52.332 12.1015C52.332 12.4349 52.2708 12.7161 52.1484 12.9453C52.026 13.1719 51.8619 13.3541 51.6562 13.4922C51.4531 13.6276 51.2291 13.7265 50.9843 13.789V13.8672C51.2499 13.8802 51.5091 13.9661 51.7617 14.125C52.0169 14.2812 52.2278 14.5039 52.3945 14.793C52.5611 15.082 52.6445 15.4336 52.6445 15.8476C52.6445 16.2565 52.5481 16.6237 52.3554 16.9492C52.1653 17.2721 51.871 17.5286 51.4726 17.7187C51.0742 17.9062 50.565 18 49.9453 18H46.8788ZM48.0859 16.9648H49.8281C50.4062 16.9648 50.8203 16.8528 51.0702 16.6289C51.3203 16.4049 51.4453 16.125 51.4453 15.789C51.4453 15.5364 51.3814 15.3047 51.2538 15.0937C51.1262 14.8828 50.9439 14.7148 50.707 14.5898C50.4726 14.4648 50.1939 14.4023 49.871 14.4023H48.0859V16.9648ZM48.0859 13.4609H49.7031C49.9739 13.4609 50.2174 13.4088 50.4335 13.3047C50.6523 13.2005 50.8255 13.0547 50.9531 12.8672C51.0833 12.6771 51.1484 12.4531 51.1484 12.1953C51.1484 11.8646 51.0325 11.5872 50.8007 11.3633C50.5689 11.1393 50.2135 11.0273 49.7343 11.0273H48.0859V13.4609ZM57.7831 15.5117V12H58.955V18H57.8066V16.9609H57.7441C57.6061 17.2812 57.3847 17.5482 57.08 17.7617C56.7779 17.9726 56.4016 18.0781 55.9511 18.0781C55.5657 18.0781 55.2245 17.9935 54.9277 17.8242C54.6334 17.6523 54.4016 17.3984 54.2324 17.0625C54.0657 16.7265 53.9824 16.3112 53.9824 15.8164V12H55.1503V15.6758C55.1503 16.0846 55.2636 16.4101 55.4902 16.6523C55.7167 16.8945 56.011 17.0156 56.373 17.0156C56.5917 17.0156 56.8092 16.9609 57.0253 16.8515C57.2441 16.7422 57.4251 16.5768 57.5683 16.3555C57.7141 16.1341 57.7857 15.8528 57.7831 15.5117ZM60.5243 18V12H61.6923V18H60.5243ZM61.1142 11.0742C60.9111 11.0742 60.7366 11.0065 60.5908 10.8711C60.4475 10.7331 60.3759 10.569 60.3759 10.3789C60.3759 10.1862 60.4475 10.0221 60.5908 9.8867C60.7366 9.74868 60.9111 9.67967 61.1142 9.67967C61.3173 9.67967 61.4905 9.74868 61.6337 9.8867C61.7796 10.0221 61.8525 10.1862 61.8525 10.3789C61.8525 10.569 61.7796 10.7331 61.6337 10.8711C61.4905 11.0065 61.3173 11.0742 61.1142 11.0742ZM64.4316 9.99998V18H63.2636V9.99998H64.4316ZM68.8036 12V12.9375H65.5263V12H68.8036ZM66.4052 10.5625H67.5732V16.2383C67.5732 16.4648 67.607 16.6354 67.6747 16.75C67.7424 16.862 67.8297 16.9388 67.9365 16.9805C68.0458 17.0195 68.1643 17.039 68.2919 17.039C68.3857 17.039 68.4677 17.0325 68.538 17.0195C68.6083 17.0065 68.663 16.9961 68.7021 16.9883L68.913 17.9531C68.8453 17.9791 68.749 18.0052 68.624 18.0312C68.499 18.0599 68.3427 18.0755 68.1552 18.0781C67.8479 18.0833 67.5615 18.0286 67.2958 17.914C67.0302 17.7995 66.8154 17.6224 66.6513 17.3828C66.4872 17.1432 66.4052 16.8424 66.4052 16.4805V10.5625ZM75.5341 18.1211C74.9716 18.1211 74.4807 17.9922 74.0615 17.7344C73.6422 17.4765 73.3167 17.1159 73.0849 16.6523C72.8531 16.1888 72.7372 15.6471 72.7372 15.0273C72.7372 14.4049 72.8531 13.8607 73.0849 13.3945C73.3167 12.9284 73.6422 12.5664 74.0615 12.3086C74.4807 12.0508 74.9716 11.9219 75.5341 11.9219C76.0966 11.9219 76.5875 12.0508 77.0068 12.3086C77.426 12.5664 77.7516 12.9284 77.9833 13.3945C78.2151 13.8607 78.331 14.4049 78.331 15.0273C78.331 15.6471 78.2151 16.1888 77.9833 16.6523C77.7516 17.1159 77.426 17.4765 77.0068 17.7344C76.5875 17.9922 76.0966 18.1211 75.5341 18.1211ZM75.538 17.1406C75.9026 17.1406 76.2047 17.0443 76.4443 16.8515C76.6838 16.6588 76.8609 16.4023 76.9755 16.082C77.0927 15.7617 77.1513 15.4088 77.1513 15.0234C77.1513 14.6406 77.0927 14.289 76.9755 13.9687C76.8609 13.6458 76.6838 13.3867 76.4443 13.1914C76.2047 12.9961 75.9026 12.8984 75.538 12.8984C75.1708 12.8984 74.8661 12.9961 74.624 13.1914C74.3844 13.3867 74.206 13.6458 74.0888 13.9687C73.9742 14.289 73.9169 14.6406 73.9169 15.0234C73.9169 15.4088 73.9742 15.7617 74.0888 16.082C74.206 16.4023 74.3844 16.6588 74.624 16.8515C74.8661 17.0443 75.1708 17.1406 75.538 17.1406ZM80.8027 14.4375V18H79.6347V12H80.7558V12.9765H80.83C80.968 12.6588 81.1842 12.4036 81.4784 12.2109C81.7753 12.0182 82.149 11.9219 82.5995 11.9219C83.0084 11.9219 83.3665 12.0078 83.6738 12.1797C83.981 12.3489 84.2193 12.6015 84.3886 12.9375C84.5579 13.2734 84.6425 13.6888 84.6425 14.1836V18H83.4745V14.3242C83.4745 13.8893 83.3613 13.5495 83.1347 13.3047C82.9081 13.0573 82.5969 12.9336 82.2011 12.9336C81.9303 12.9336 81.6894 12.9922 81.4784 13.1094C81.2701 13.2265 81.1047 13.3984 80.9824 13.625C80.8626 13.8489 80.8027 14.1198 80.8027 14.4375Z" fill="#E8E8E8"/>
<path d="M46.6605 31V22.2727H52.6178V23.9858H48.7698V25.7755H52.2386V27.4929H48.7698V31H46.6605ZM55.4197 31.1108C55.0021 31.1108 54.6313 31.0412 54.3075 30.902C53.9864 30.7599 53.7322 30.5468 53.5447 30.2628C53.36 29.9758 53.2677 29.6165 53.2677 29.1846C53.2677 28.821 53.3316 28.5142 53.4595 28.2642C53.5873 28.0142 53.7634 27.8111 53.9879 27.6548C54.2123 27.4986 54.4708 27.3807 54.7634 27.3011C55.056 27.2187 55.3685 27.1633 55.7009 27.1349C56.0731 27.1008 56.3728 27.0653 56.6001 27.0284C56.8274 26.9886 56.9921 26.9332 57.0944 26.8622C57.1995 26.7883 57.2521 26.6846 57.2521 26.5511V26.5298C57.2521 26.3111 57.1768 26.142 57.0262 26.0227C56.8756 25.9034 56.6725 25.8437 56.4168 25.8437C56.1413 25.8437 55.9197 25.9034 55.7521 26.0227C55.5845 26.142 55.4779 26.3068 55.4325 26.517L53.5106 26.4488C53.5674 26.0511 53.7137 25.696 53.9495 25.3835C54.1881 25.0682 54.5149 24.821 54.9296 24.642C55.3472 24.4602 55.8487 24.3693 56.4339 24.3693C56.8515 24.3693 57.2364 24.419 57.5887 24.5184C57.941 24.615 58.2478 24.7571 58.5092 24.9446C58.7705 25.1292 58.9722 25.3565 59.1143 25.6264C59.2592 25.8963 59.3316 26.2045 59.3316 26.5511V31H57.3714V30.088H57.3202C57.2038 30.3096 57.0546 30.4971 56.8728 30.6505C56.6938 30.804 56.4822 30.919 56.2379 30.9957C55.9964 31.0724 55.7237 31.1108 55.4197 31.1108ZM56.0631 29.7471C56.2876 29.7471 56.4893 29.7017 56.6683 29.6108C56.8501 29.5199 56.995 29.3949 57.1029 29.2358C57.2109 29.0738 57.2649 28.8863 57.2649 28.6733V28.0511C57.2052 28.0824 57.1327 28.1108 57.0475 28.1363C56.9651 28.1619 56.8742 28.1861 56.7748 28.2088C56.6754 28.2315 56.5731 28.2514 56.468 28.2684C56.3629 28.2855 56.262 28.3011 56.1654 28.3153C55.9694 28.3466 55.8018 28.3949 55.6626 28.4602C55.5262 28.5255 55.4211 28.6108 55.3472 28.7159C55.2762 28.8182 55.2407 28.9403 55.2407 29.0824C55.2407 29.2983 55.3174 29.463 55.4708 29.5767C55.6271 29.6903 55.8245 29.7471 56.0631 29.7471ZM60.6058 31V22.2727H62.6896V25.5753H62.7322C62.8174 25.3764 62.9381 25.1846 63.0944 25C63.2535 24.8153 63.4552 24.6647 63.6995 24.5483C63.9467 24.429 64.2421 24.3693 64.5859 24.3693C65.0404 24.3693 65.4651 24.4886 65.86 24.7272C66.2577 24.9659 66.5788 25.3338 66.8231 25.8309C67.0674 26.3281 67.1896 26.9616 67.1896 27.7315C67.1896 28.473 67.0717 29.0937 66.8359 29.5937C66.6029 30.0937 66.2876 30.4687 65.8898 30.7187C65.495 30.9687 65.056 31.0937 64.5731 31.0937C64.2435 31.0937 63.958 31.0397 63.7166 30.9318C63.4751 30.8238 63.272 30.6818 63.1072 30.5057C62.9452 30.3295 62.8202 30.1406 62.7322 29.9389H62.6683V31H60.6058ZM62.647 27.7272C62.647 28.0795 62.6938 28.3863 62.7876 28.6477C62.8842 28.9091 63.022 29.1122 63.2009 29.2571C63.3827 29.3991 63.6001 29.4701 63.8529 29.4701C64.1086 29.4701 64.3259 29.3991 64.5049 29.2571C64.6839 29.1122 64.8188 28.9091 64.9097 28.6477C65.0035 28.3863 65.0504 28.0795 65.0504 27.7272C65.0504 27.375 65.0035 27.0696 64.9097 26.8111C64.8188 26.5525 64.6839 26.3522 64.5049 26.2102C64.3288 26.0682 64.1114 25.9971 63.8529 25.9971C63.5972 25.9971 63.3799 26.0667 63.2009 26.2059C63.022 26.3451 62.8842 26.544 62.7876 26.8025C62.6938 27.0611 62.647 27.3693 62.647 27.7272ZM72.5045 28.1747V24.4545H74.5841V31H72.5983V29.7812H72.5301C72.3852 30.1818 72.1381 30.5 71.7886 30.7358C71.442 30.9687 71.023 31.0852 70.5315 31.0852C70.0855 31.0852 69.6935 30.9829 69.3554 30.7784C69.0173 30.5738 68.7545 30.2883 68.567 29.9218C68.3795 29.5525 68.2844 29.1207 68.2815 28.6264V24.4545H70.3653V28.2173C70.3682 28.5724 70.4619 28.8522 70.6466 29.0568C70.8313 29.2613 71.0827 29.3636 71.4009 29.3636C71.6082 29.3636 71.7943 29.3182 71.9591 29.2272C72.1267 29.1335 72.2588 28.9986 72.3554 28.8224C72.4548 28.6434 72.5045 28.4275 72.5045 28.1747ZM77.9942 22.2727V31H75.9104V22.2727H77.9942ZM82.376 31.1236C81.6885 31.1236 81.0976 30.9829 80.6033 30.7017C80.1118 30.4176 79.7325 30.0227 79.4655 29.517C79.2013 29.0085 79.0692 28.419 79.0692 27.7486C79.0692 27.0753 79.2013 26.4858 79.4655 25.9801C79.7325 25.4716 80.1118 25.0767 80.6033 24.7954C81.0976 24.5113 81.6885 24.3693 82.376 24.3693C83.0635 24.3693 83.653 24.5113 84.1445 24.7954C84.6388 25.0767 85.018 25.4716 85.2822 25.9801C85.5493 26.4858 85.6828 27.0753 85.6828 27.7486C85.6828 28.419 85.5493 29.0085 85.2822 29.517C85.018 30.0227 84.6388 30.4176 84.1445 30.7017C83.653 30.9829 83.0635 31.1236 82.376 31.1236ZM82.3888 29.5511C82.6388 29.5511 82.8504 29.4744 83.0237 29.321C83.197 29.1676 83.3291 28.9545 83.42 28.6818C83.5138 28.4091 83.5607 28.0937 83.5607 27.7358C83.5607 27.3721 83.5138 27.054 83.42 26.7812C83.3291 26.5085 83.197 26.2954 83.0237 26.142C82.8504 25.9886 82.6388 25.9119 82.3888 25.9119C82.1303 25.9119 81.9115 25.9886 81.7325 26.142C81.5564 26.2954 81.4214 26.5085 81.3277 26.7812C81.2368 27.054 81.1913 27.3721 81.1913 27.7358C81.1913 28.0937 81.2368 28.4091 81.3277 28.6818C81.4214 28.9545 81.5564 29.1676 81.7325 29.321C81.9115 29.4744 82.1303 29.5511 82.3888 29.5511ZM90.9733 28.1747V24.4545H93.0528V31H91.067V29.7812H90.9989C90.854 30.1818 90.6068 30.5 90.2574 30.7358C89.9108 30.9687 89.4918 31.0852 89.0003 31.0852C88.5543 31.0852 88.1622 30.9829 87.8241 30.7784C87.4861 30.5738 87.2233 30.2883 87.0358 29.9218C86.8483 29.5525 86.7531 29.1207 86.7503 28.6264V24.4545H88.8341V28.2173C88.8369 28.5724 88.9307 28.8522 89.1153 29.0568C89.3 29.2613 89.5514 29.3636 89.8696 29.3636C90.077 29.3636 90.2631 29.3182 90.4278 29.2272C90.5955 29.1335 90.7276 28.9986 90.8241 28.8224C90.9236 28.6434 90.9733 28.4275 90.9733 28.1747ZM100.094 26.4531L98.1803 26.5042C98.1604 26.3679 98.1065 26.2471 98.0184 26.142C97.9303 26.0341 97.8153 25.9503 97.6732 25.8906C97.534 25.8281 97.3721 25.7969 97.1874 25.7969C96.9459 25.7969 96.74 25.8451 96.5695 25.9417C96.4019 26.0383 96.3195 26.169 96.3224 26.3338C96.3195 26.4616 96.3707 26.5724 96.4758 26.6662C96.5837 26.7599 96.7755 26.8352 97.0511 26.892L98.3124 27.1307C98.9658 27.2557 99.4516 27.463 99.7698 27.7528C100.091 28.0426 100.253 28.4261 100.256 28.9034C100.253 29.3522 100.119 29.7429 99.855 30.0753C99.5937 30.4076 99.2357 30.6662 98.7812 30.8508C98.3266 31.0326 97.8067 31.1236 97.2215 31.1236C96.2869 31.1236 95.5496 30.9318 95.0099 30.5483C94.4729 30.1619 94.1661 29.6449 94.0894 28.9971L96.1477 28.946C96.1931 29.1846 96.311 29.3665 96.5013 29.4915C96.6917 29.6165 96.9346 29.679 97.23 29.679C97.4971 29.679 97.7144 29.6292 97.882 29.5298C98.0496 29.4304 98.1349 29.2983 98.1377 29.1335C98.1349 28.9858 98.0695 28.8679 97.9417 28.7798C97.8138 28.6889 97.6136 28.6179 97.3408 28.5667L96.1988 28.3494C95.5425 28.2301 95.0539 28.0099 94.7329 27.6889C94.4119 27.365 94.2528 26.9531 94.2556 26.4531C94.2528 26.0156 94.3692 25.642 94.605 25.3324C94.8408 25.0199 95.1761 24.7812 95.6107 24.6165C96.0454 24.4517 96.5582 24.3693 97.1491 24.3693C98.0354 24.3693 98.7343 24.5554 99.2457 24.9275C99.757 25.2969 100.04 25.8054 100.094 26.4531ZM103.365 22.2727V31H101.282V22.2727H103.365ZM105.966 33.4545C105.716 33.4545 105.48 33.4346 105.258 33.3949C105.037 33.3579 104.847 33.3082 104.687 33.2457L105.148 31.7329C105.352 31.8011 105.537 31.8409 105.702 31.8522C105.869 31.8636 106.013 31.8366 106.132 31.7713C106.254 31.7088 106.348 31.5966 106.413 31.4346L106.494 31.2386L104.168 24.4545H106.349L107.555 29.125H107.624L108.847 24.4545H111.041L108.574 31.6264C108.454 31.9843 108.285 32.2997 108.067 32.5724C107.851 32.848 107.571 33.0639 107.227 33.2201C106.886 33.3764 106.466 33.4545 105.966 33.4545ZM122.655 26.6363C122.655 27.5966 122.471 28.4105 122.101 29.0781C121.732 29.7457 121.232 30.2528 120.601 30.5994C119.974 30.946 119.269 31.1193 118.488 31.1193C117.704 31.1193 116.998 30.9446 116.37 30.5951C115.742 30.2457 115.244 29.7386 114.874 29.0738C114.508 28.4062 114.324 27.5937 114.324 26.6363C114.324 25.6761 114.508 24.8622 114.874 24.1946C115.244 23.527 115.742 23.0199 116.37 22.6733C116.998 22.3267 117.704 22.1534 118.488 22.1534C119.269 22.1534 119.974 22.3267 120.601 22.6733C121.232 23.0199 121.732 23.527 122.101 24.1946C122.471 24.8622 122.655 25.6761 122.655 26.6363ZM120.499 26.6363C120.499 26.0682 120.418 25.588 120.256 25.196C120.097 24.804 119.867 24.5071 119.566 24.3054C119.268 24.1037 118.908 24.0028 118.488 24.0028C118.07 24.0028 117.711 24.1037 117.41 24.3054C117.109 24.5071 116.877 24.804 116.715 25.196C116.556 25.588 116.476 26.0682 116.476 26.6363C116.476 27.2045 116.556 27.6846 116.715 28.0767C116.877 28.4687 117.109 28.7656 117.41 28.9673C117.711 29.169 118.07 29.2699 118.488 29.2699C118.908 29.2699 119.268 29.169 119.566 28.9673C119.867 28.7656 120.097 28.4687 120.256 28.0767C120.418 27.6846 120.499 27.2045 120.499 26.6363ZM123.887 33.4545V24.4545H125.949V25.5753H126.013C126.099 25.3764 126.219 25.1846 126.376 25C126.535 24.8153 126.736 24.6647 126.981 24.5483C127.228 24.429 127.523 24.3693 127.867 24.3693C128.322 24.3693 128.746 24.4886 129.141 24.7272C129.539 24.9659 129.86 25.3338 130.104 25.8309C130.349 26.3281 130.471 26.9616 130.471 27.7315C130.471 28.473 130.353 29.0937 130.117 29.5937C129.884 30.0937 129.569 30.4687 129.171 30.7187C128.776 30.9687 128.337 31.0937 127.854 31.0937C127.525 31.0937 127.239 31.0397 126.998 30.9318C126.756 30.8238 126.553 30.6818 126.388 30.5057C126.226 30.3295 126.101 30.1406 126.013 29.9389H125.971V33.4545H123.887ZM125.928 27.7272C125.928 28.0795 125.975 28.3863 126.069 28.6477C126.165 28.9091 126.303 29.1122 126.482 29.2571C126.664 29.3991 126.881 29.4701 127.134 29.4701C127.39 29.4701 127.607 29.3991 127.786 29.2571C127.965 29.1122 128.1 28.9091 128.191 28.6477C128.285 28.3863 128.332 28.0795 128.332 27.7272C128.332 27.375 128.285 27.0696 128.191 26.8111C128.1 26.5525 127.965 26.3522 127.786 26.2102C127.61 26.0682 127.393 25.9971 127.134 25.9971C126.878 25.9971 126.661 26.0667 126.482 26.2059C126.303 26.3451 126.165 26.544 126.069 26.8025C125.975 27.0611 125.928 27.3693 125.928 27.7272ZM135.257 24.4545V25.9886H131.128V24.4545H135.257ZM131.993 22.8863H134.077V28.9417C134.077 29.0696 134.097 29.1733 134.137 29.2528C134.179 29.3295 134.24 29.3849 134.32 29.419C134.399 29.4503 134.495 29.4659 134.605 29.4659C134.685 29.4659 134.769 29.4588 134.857 29.4446C134.948 29.4275 135.016 29.4133 135.061 29.402L135.377 30.9062C135.277 30.9346 135.137 30.9701 134.955 31.0128C134.776 31.0554 134.561 31.0824 134.311 31.0937C133.823 31.1165 133.404 31.0596 133.054 30.9233C132.708 30.7841 132.442 30.5682 132.257 30.2755C132.076 29.9829 131.987 29.615 131.993 29.1718V22.8863ZM136.321 31V24.4545H138.404V31H136.321ZM137.365 23.6917C137.072 23.6917 136.821 23.5951 136.61 23.402C136.4 23.2059 136.295 22.9701 136.295 22.6946C136.295 22.4219 136.4 22.1889 136.61 21.9957C136.821 21.7997 137.072 21.7017 137.365 21.7017C137.66 21.7017 137.911 21.7997 138.119 21.9957C138.329 22.1889 138.434 22.4219 138.434 22.6946C138.434 22.9701 138.329 23.2059 138.119 23.402C137.911 23.5951 137.66 23.6917 137.365 23.6917ZM139.731 31V24.4545H141.712V25.6562H141.785C141.921 25.2585 142.151 24.9446 142.475 24.7145C142.799 24.4844 143.185 24.3693 143.634 24.3693C144.089 24.3693 144.478 24.4858 144.802 24.7187C145.126 24.9517 145.332 25.2642 145.42 25.6562H145.488C145.61 25.267 145.849 24.9559 146.204 24.723C146.559 24.4872 146.978 24.3693 147.461 24.3693C148.08 24.3693 148.583 24.5682 148.969 24.9659C149.356 25.3608 149.549 25.9034 149.549 26.5937V31H147.465V27.071C147.465 26.7443 147.381 26.4957 147.214 26.3253C147.046 26.152 146.829 26.0653 146.562 26.0653C146.275 26.0653 146.049 26.1591 145.884 26.3466C145.722 26.5312 145.641 26.7798 145.641 27.0923V31H143.638V27.0497C143.638 26.7457 143.556 26.5057 143.391 26.3295C143.226 26.1534 143.009 26.0653 142.739 26.0653C142.557 26.0653 142.397 26.1094 142.258 26.1974C142.119 26.2826 142.009 26.4048 141.93 26.5639C141.853 26.723 141.815 26.9105 141.815 27.1264V31H139.731ZM150.84 31V24.4545H152.924V31H150.84ZM151.884 23.6917C151.592 23.6917 151.34 23.5951 151.13 23.402C150.92 23.2059 150.815 22.9701 150.815 22.6946C150.815 22.4219 150.92 22.1889 151.13 21.9957C151.34 21.7997 151.592 21.7017 151.884 21.7017C152.18 21.7017 152.431 21.7997 152.638 21.9957C152.849 22.1889 152.954 22.4219 152.954 22.6946C152.954 22.9701 152.849 23.2059 152.638 23.402C152.431 23.5951 152.18 23.6917 151.884 23.6917ZM154.267 31V29.8111L157.301 26.1165V26.0738H154.374V24.4545H159.786V25.7585L156.973 29.338V29.3807H159.888V31H154.267ZM164.107 31.1236C163.422 31.1236 162.831 30.9886 162.334 30.7187C161.84 30.446 161.459 30.0582 161.192 29.5554C160.928 29.0497 160.796 28.4488 160.796 27.7528C160.796 27.0767 160.929 26.4858 161.196 25.9801C161.463 25.4716 161.84 25.0767 162.326 24.7954C162.811 24.5113 163.384 24.3693 164.043 24.3693C164.509 24.3693 164.935 24.4417 165.321 24.5866C165.708 24.7315 166.041 24.946 166.323 25.2301C166.604 25.5142 166.823 25.865 166.979 26.2826C167.135 26.6974 167.213 27.1733 167.213 27.7102V28.2301H161.524V27.0199H165.274C165.272 26.7983 165.219 26.6008 165.117 26.4275C165.014 26.2542 164.874 26.1193 164.695 26.0227C164.519 25.9233 164.316 25.8736 164.085 25.8736C163.853 25.8736 163.644 25.9261 163.459 26.0312C163.274 26.1335 163.128 26.2741 163.02 26.4531C162.912 26.6292 162.855 26.8295 162.85 27.054V28.2855C162.85 28.5525 162.902 28.7869 163.007 28.9886C163.112 29.1875 163.262 29.3423 163.455 29.4531C163.648 29.5639 163.878 29.6193 164.145 29.6193C164.33 29.6193 164.497 29.5937 164.648 29.5426C164.799 29.4915 164.928 29.4162 165.036 29.3167C165.144 29.2173 165.225 29.0951 165.279 28.9503L167.192 29.0057C167.112 29.4346 166.938 29.8082 166.668 30.1264C166.401 30.4417 166.05 30.6875 165.615 30.8636C165.181 31.0369 164.678 31.1236 164.107 31.1236ZM170.668 31.0937C170.185 31.0937 169.746 30.9687 169.351 30.7187C168.957 30.4687 168.641 30.0937 168.405 29.5937C168.17 29.0937 168.052 28.473 168.052 27.7315C168.052 26.9616 168.174 26.3281 168.418 25.8309C168.663 25.3338 168.982 24.9659 169.377 24.7272C169.775 24.4886 170.202 24.3693 170.66 24.3693C171.003 24.3693 171.297 24.429 171.542 24.5483C171.786 24.6647 171.988 24.8153 172.147 25C172.306 25.1846 172.427 25.3764 172.509 25.5753H172.552V22.2727H174.636V31H172.573V29.9389H172.509C172.421 30.1406 172.296 30.3295 172.134 30.5057C171.972 30.6818 171.769 30.8238 171.525 30.9318C171.283 31.0397 170.998 31.0937 170.668 31.0937ZM171.393 29.4701C171.645 29.4701 171.861 29.3991 172.04 29.2571C172.219 29.1122 172.357 28.9091 172.454 28.6477C172.55 28.3863 172.599 28.0795 172.599 27.7272C172.599 27.3693 172.55 27.0611 172.454 26.8025C172.36 26.544 172.222 26.3451 172.04 26.2059C171.861 26.0667 171.645 25.9971 171.393 25.9971C171.134 25.9971 170.915 26.0682 170.736 26.2102C170.557 26.3522 170.421 26.5525 170.327 26.8111C170.236 27.0696 170.191 27.375 170.191 27.7272C170.191 28.0795 170.238 28.3863 170.332 28.6477C170.425 28.9091 170.56 29.1122 170.736 29.2571C170.915 29.3991 171.134 29.4701 171.393 29.4701Z" fill="#DECFAC"/>
</g>
<rect x="0.749939" y="0.749985" width="184.5" height="38.5" rx="5.25" stroke="white" stroke-opacity="0.15" stroke-width="1.5"/>
<defs>
<filter id="filter0_d_28_12" x="5.99994" y="1.99998" width="36" height="36" filterUnits="userSpaceOnUse" color-interpolation-filters="sRGB">
<feFlood flood-opacity="0" result="BackgroundImageFix"/>
<feColorMatrix in="SourceAlpha" type="matrix" values="0 0 0 0 0 0 0 0 0 0 0 0 0 0 0 0 0 0 127 0" result="hardAlpha"/>
<feOffset/>
<feGaussianBlur stdDeviation="2"/>
<feComposite in2="hardAlpha" operator="out"/>
<feColorMatrix type="matrix" values="0 0 0 0 0 0 0 0 0 0 0 0 0 0 0 0 0 0 0.25 0"/>
<feBlend mode="normal" in2="BackgroundImageFix" result="effect1_dropShadow_28_12"/>
<feBlend mode="normal" in="SourceGraphic" in2="effect1_dropShadow_28_12" result="shape"/>
</filter>
<filter id="filter1_d_28_12" x="41.9999" y="2.99998" width="138" height="34.4545" filterUnits="userSpaceOnUse" color-interpolation-filters="sRGB">
<feFlood flood-opacity="0" result="BackgroundImageFix"/>
<feColorMatrix in="SourceAlpha" type="matrix" values="0 0 0 0 0 0 0 0 0 0 0 0 0 0 0 0 0 0 127 0" result="hardAlpha"/>
<feOffset/>
<feGaussianBlur stdDeviation="2"/>
<feComposite in2="hardAlpha" operator="out"/>
<feColorMatrix type="matrix" values="0 0 0 0 0 0 0 0 0 0 0 0 0 0 0 0 0 0 0.25 0"/>
<feBlend mode="normal" in2="BackgroundImageFix" result="effect1_dropShadow_28_12"/>
<feBlend mode="normal" in="SourceGraphic" in2="effect1_dropShadow_28_12" result="shape"/>
</filter>
<linearGradient id="paint0_linear_28_12" x1="92.9999" y1="-1.52588e-05" x2="92.9999" y2="40" gradientUnits="userSpaceOnUse">
<stop stop-color="#33302A"/>
<stop offset="1" stop-color="#211F1B"/>
</linearGradient>
</defs>
</svg>
