<svg width="144" height="56" viewBox="0 0 144 56" fill="none" xmlns="http://www.w3.org/2000/svg">
<rect x="-6.10352e-05" y="-0.00012207" width="144" height="56" rx="8" fill="url(#paint0_linear_2_3646)"/>
<rect x="1.04994" y="1.04988" width="141.9" height="53.9" rx="6.95" stroke="white" stroke-opacity="0.15" stroke-width="2.1"/>
<g filter="url(#filter0_d_2_3646)">
<path d="M23.9532 42.0561C22.4294 40.8469 20.8039 39.6876 19.6932 38.0552C17.356 35.1763 15.5564 31.8433 14.3262 28.3407C13.5826 26.0631 13.3279 23.6212 12.3693 21.4317C11.3665 19.8414 12.5412 18.1029 14.2678 17.5974C15.0365 17.4486 16.3882 16.7171 14.7566 17.2399C13.2938 18.3227 13.1522 16.2571 14.6522 16.1263C15.6759 15.989 16.0527 15.1436 15.7026 14.3825C14.6038 13.6595 18.3672 12.865 16.4736 11.7863C14.501 9.63917 19.2328 9.22585 18.0654 11.6643C17.786 13.5394 21.3718 11.3207 20.5398 13.486C21.3855 14.5258 23.7065 13.7226 23.6489 15.1815C24.8808 15.2669 25.3036 16.3126 26.46 16.3929C27.6585 16.9389 29.8312 17.3692 30.239 18.7318C29.05 19.6815 26.2966 16.77 26.1643 19.399C26.5235 23.2825 26.432 27.2831 27.8403 30.9815C28.5065 33.2208 30.1214 34.9836 31.5799 36.7277C32.9753 38.4359 34.8655 39.6383 36.792 40.6508C38.482 41.455 40.304 41.9883 42.1459 42.3229C42.8929 41.7464 44.2118 39.6033 45.3772 40.507C45.4325 41.5224 43.0641 42.6297 45.2658 42.5175C46.5585 42.124 47.4552 43.5262 48.5198 42.2614C49.5006 43.4335 52.5964 41.5126 51.8985 43.9083C50.9549 44.5226 49.5786 44.1514 48.6334 44.9964C47.075 44.2111 45.8343 45.699 44.109 45.5109C42.193 45.8571 40.2438 45.9968 38.3013 45.9999C35.1146 45.7459 31.8603 45.6388 28.8287 44.5194C27.1208 44.0187 25.4542 43.0376 23.9532 42.0561ZM26.6446 43.2326C28.3122 43.9602 29.9429 44.727 31.7705 44.9583C34.67 45.3652 37.6643 45.991 40.5743 45.4201C39.2573 44.8202 37.8957 45.6539 36.5837 44.9911C35.01 45.3327 33.3214 44.9041 31.7216 44.6931C29.9024 43.8755 27.9392 43.3134 26.2355 42.2522C24.1068 41.4677 27.3365 43.2582 27.9114 43.4032C29.2421 44.1652 26.448 43.0125 26.0541 42.6957C24.9395 42.065 24.7975 42.1968 25.9437 42.8374C26.1746 42.9737 26.4027 43.1165 26.6446 43.2326ZM23.4714 40.9702C25.0874 41.574 23.4643 39.8237 22.7237 39.9254C22.3957 39.3511 21.4703 38.9884 22.123 38.6799C20.9488 39.0912 20.893 37.116 20.3411 37.3982C19.0989 37.0024 19.8576 35.6006 18.3779 34.7397C18.2428 33.8326 16.9078 33.0458 16.4819 31.6775C16.2939 30.977 14.9736 28.9652 15.7846 30.8374C16.4752 32.6398 17.6902 34.1833 18.7013 35.725C19.4864 37.1929 20.4135 38.727 21.8434 39.6427C22.3253 40.1092 22.7907 40.8239 23.4714 40.9702ZM18.8161 35.8136C18.8725 35.5674 19.1116 36.3465 18.8161 35.8136V35.8136ZM25.4067 41.6941C24.8921 41.4904 25.7645 41.5324 25.4067 41.6941V41.6941ZM26.2839 42.0169C25.8835 42.2662 26.1931 41.5711 26.2839 42.0169V42.0169ZM27.3819 42.479C26.5763 42.1624 27.9047 41.9768 27.3819 42.479V42.479ZM29.2639 43.5372C28.2472 43.3585 29.5816 43.0635 29.2639 43.5372V43.5372ZM25.65 40.9956C24.6013 40.9883 26.462 40.4657 25.65 40.9956V40.9956ZM26.4738 41.41C26.1802 41.5355 26.4507 41.1299 26.4738 41.41V41.41ZM30.5907 44.0024C31.2525 44.4238 34.4555 44.926 32.4498 44.1752C32.1142 44.2466 28.7309 43.2098 30.5907 44.0024ZM24.0549 38.867C23.0276 38.5568 23.9906 38.586 24.0549 38.867V38.867ZM25.9715 39.9939C24.9362 39.7232 26.4703 39.6429 25.9715 39.9939V39.9939ZM27.5836 40.9911C26.4225 40.7176 28.2994 40.7189 27.5836 40.9911V40.9911ZM23.275 38.0101C24.0516 38.6109 26.407 38.0871 24.4644 37.6514C23.5802 37.1759 21.5874 36.8504 22.9457 37.9381L23.275 38.0101ZM28.6755 41.3355C27.3189 41.0179 28.999 40.7794 28.6755 41.3355V41.3355ZM27.0345 40.0197C28.9335 40.5616 25.4376 38.8081 26.5659 39.8202L26.816 39.9344L27.0345 40.0197ZM30.3246 41.9382C28.7002 41.688 32.1231 41.9555 30.3246 41.9382V41.9382ZM22.5831 36.9603C22.1392 36.9886 22.5128 36.6223 22.5831 36.9603V36.9603ZM33.3668 43.6598C32.7799 44.1141 33.4148 43.0494 33.3668 43.6598V43.6598ZM25.6522 38.8565C25.0902 38.8434 25.5434 38.5351 25.6522 38.8565V38.8565ZM22.7536 36.7482C21.3401 36.2893 23.7861 36.6857 22.7536 36.7482V36.7482ZM19.3199 34.509C18.1964 33.6114 19.1914 34.0097 19.3199 34.509V34.509ZM28.3342 40.2806C28.1451 40.063 28.2453 40.3282 28.3342 40.2806V40.2806ZM33.9451 43.7543C33.6395 43.8802 33.9271 43.4218 33.9451 43.7543V43.7543ZM27.8377 39.7633C26.9573 39.6336 27.9387 39.3349 27.8377 39.7633V39.7633ZM23.6577 37.0906C22.4272 36.5667 24.4258 37.0077 23.6577 37.0906V37.0906ZM30.7285 41.5233C29.5619 41.2898 31.9255 41.0449 30.7285 41.5233V41.5233ZM27.0506 39.0045C28.4301 39.1839 25.4091 38.0578 26.7479 38.9037L27.0506 39.0045ZM31.8451 41.9787C33.1331 41.2019 32.7085 43.7978 34.0302 42.198C35.334 41.2376 32.9043 43.3854 34.5111 42.3693C35.6732 41.5851 37.3897 42.741 38.474 43.1181C39.2538 43.0795 40.0119 43.7984 40.8113 43.361C42.3502 42.9428 37.8021 42.7408 38.9943 41.9989C37.5862 42.4123 36.5459 41.506 35.853 40.596C34.2735 40.2281 32.4473 39.4134 31.6591 38.0032C31.3377 37.4738 32.1234 38.0778 31.3817 37.2123C30.4299 36.3583 29.9547 35.3888 29.3158 34.3507C28.5525 33.9399 28.4636 32.7308 28.3864 34.3102C28.3925 33.3134 27.4649 32.6425 27.2385 32.9214C27.2345 31.9614 28.2312 32.4426 27.5335 31.7323C27.3833 30.7374 26.8888 29.7006 26.7402 28.5773C26.5092 28.0358 26.7076 26.876 25.952 28.1018C25.6767 29.3973 25.8606 26.5098 26.2887 27.462C26.8507 26.4904 26.087 26.6046 26.0557 26.7396C26.4218 25.9198 26.2874 24.7569 25.9602 25.2005C26.1552 24.3316 26.2683 22.0028 25.6683 22.4155C26.032 21.5069 26.3581 18.2579 24.779 19.4966C24.1391 19.5057 23.0309 19.731 22.507 19.9938C24.1495 20.9072 22.3418 20.3237 21.6732 20.1785C21.5861 21.0237 20.9238 20.6582 20.0965 20.6664C21.4179 20.8314 19.453 22.03 18.6949 21.5644C17.7103 22.0391 19.5446 23.2241 18.7146 23.5905C18.8166 24.1429 17.2063 23.3911 17.3328 24.6667C16.377 24.2611 17.2012 26.1799 17.6794 25.531C19.305 25.9748 18.8238 26.9868 18.8652 27.9481C18.6003 28.5083 17.5575 26.6315 18.6329 26.7184C17.7845 25.3279 17.6944 26.2158 16.9893 26.8618C16.8253 26.9087 18.7877 27.7809 17.5562 28.2122C18.6397 28.3808 18.6705 29.3374 18.8911 29.9427C19.5423 30.627 19.409 29.1871 20.1882 30.0094C19.6951 29.2768 17.5764 27.9451 19.2823 28.3722C19.2731 27.6348 18.9737 27.0402 19.4964 27.0547C20.0139 26.1091 18.9543 29.3862 20.1209 28.1844C20.4439 28.0421 20.5238 27.2375 21.1043 28.2603C21.9474 29.0971 21.4088 29.7034 20.2196 28.9373C20.4323 29.6655 21.8105 29.9257 21.5515 31.0645C21.8261 32.0661 22.2102 31.6972 22.545 31.6393C22.8077 32.6124 22.9568 31.8968 22.9693 31.4337C24.1719 31.6935 23.8902 32.4107 24.2665 32.9118C25.0953 33.2892 23.0804 30.3537 24.5031 32.0291C26 33.3926 25.0645 33.9617 23.7212 33.7433C24.5714 33.674 24.8456 34.9029 25.909 34.8598C26.8788 35.3252 27.5354 37.1129 25.8638 36.3687C25.284 35.8413 23.2323 35.1907 24.9081 36.1939C26.4558 36.917 27.6851 37.3496 29.1778 38.2572C30.2461 39.0266 30.7077 39.9079 31.1126 40.0824C30.2147 40.515 28.4068 39.7369 29.7493 39.4984C28.9119 39.3445 27.9701 38.9173 28.7722 39.9699C29.4542 40.5443 31.1884 40.4835 31.4993 40.5486C31.2358 41.1344 30.7835 41.181 31.5101 41.2264C30.6995 41.6622 31.77 41.7297 31.8451 41.9787ZM30.1875 37.2562C29.6944 36.7359 29.5669 35.7613 30.1 36.6093C30.3733 36.7201 30.9757 38.202 30.1875 37.2562ZM35.5856 40.7156C35.5946 40.9514 35.8932 40.6955 35.5856 40.7156V40.7156ZM29.4088 35.9804C29.3899 35.1937 29.5872 36.5872 29.4088 35.9804V35.9804ZM28.8723 35.2521C28.252 34.0429 29.6544 35.5946 28.8723 35.2521V35.2521ZM22.3708 30.7249C22.5501 31.3537 22.7352 30.6269 22.3708 30.7249V30.7249ZM27.5452 33.5545C27.769 32.7066 27.8082 34.266 27.5452 33.5545V33.5545ZM23.8897 30.9901C23.632 30.5222 24.4287 31.4289 23.8897 30.9901V30.9901ZM27.0269 32.0047C26.4392 30.6764 27.443 31.2791 27.1569 32.2224L27.0269 32.0047ZM21.6167 28.3646C21.354 27.9288 20.9193 26.6501 21.0593 26.2598C21.1858 26.8955 22.3993 28.9956 21.6545 27.1297C20.8314 25.5656 22.6383 27.6374 22.8242 28.0276C22.9108 28.4157 22.3164 27.9215 22.7191 28.8315C21.9847 27.7955 22.2856 29.4038 21.6167 28.3646ZM19.9446 27.2022C20.0135 26.1889 20.3274 27.8971 19.9446 27.2022V27.2022ZM20.6967 27.4634C21.0556 26.6986 21.3053 28.5296 20.6967 27.4634V27.4634ZM18.8875 26.0514C18.265 25.4273 17.8145 24.8521 18.9167 25.6641C19.3413 25.6808 17.9732 24.3558 19.0189 25.2433C20.1186 25.4456 19.562 27.0624 18.8875 26.0514ZM19.8379 26.0264C20.0298 26.3821 20.1994 25.6649 19.8379 26.0264V26.0264ZM20.4227 26.2155C19.8746 25.1791 21.0878 26.65 20.4227 26.2155V26.2155ZM19.2602 25.0947C17.4505 23.4699 21.5342 25.9443 19.5558 25.3959L19.2602 25.0947ZM24.4452 28.1341C23.6621 27.6603 24.2377 24.7991 24.5047 26.756C25.266 26.5075 24.4627 27.7666 25.0305 27.755C24.941 28.5494 24.687 28.835 24.4452 28.1341ZM26.363 29.2776C26.4398 28.4153 26.5247 29.8672 26.363 29.2776V29.2776ZM26.0299 28.9456C26.0388 29.3794 26.1161 28.5772 26.0299 28.9456V28.9456ZM19.6152 24.5608C18.4526 22.9425 22.994 26.1978 20.3598 24.9712C20.0846 24.8986 19.7534 24.8727 19.6152 24.5608ZM23.3083 26.5362C23.1982 25.1736 23.554 26.7621 23.3083 26.5362V26.5362ZM26.1122 28.3509C26.1283 28.8644 26.3291 27.5747 26.1122 28.3509V28.3509ZM19.7933 23.9432C20.4843 23.7941 22.6568 25.1675 20.6617 24.3355C20.44 24.0879 19.9675 24.2004 19.7933 23.9432ZM25.7269 26.9268C25.8008 25.5335 26.1394 26.0945 25.7295 27.1262L25.7269 26.9268ZM20.3076 23.4583C20.5892 23.0417 19.5603 21.5746 20.4559 22.9321C20.843 23.2423 21.5765 23.4518 20.9289 23.5823C21.9474 24.4889 20.6804 23.828 20.3076 23.4583ZM25.4334 26.4916C25.605 27.4215 25.6279 24.9044 25.4334 26.4916V26.4916ZM19.7196 21.9923C19.8332 22.2814 19.9347 21.8996 19.7196 21.9923V21.9923ZM21.0567 22.7952C21.4008 22.0668 21.6914 23.6076 21.0567 22.7952V22.7952ZM24.8281 24.9119C24.8244 24.6321 24.8992 25.3188 24.8281 24.9119V24.9119ZM24.6096 24.4239C24.0862 23.121 25.0965 25.1137 24.6096 24.4239V24.4239ZM24.2882 23.5697C24.2004 23.0313 24.5869 24.246 24.2882 23.5697V23.5697ZM24.8113 22.7118C24.4521 22.0732 25.2649 19.8975 25.3556 21.2469C24.9765 22.2982 25.2462 22.8864 25.5107 21.4762C25.9991 20.3664 25.4052 23.6662 24.8113 22.7118ZM25.3488 19.4762C25.3836 19.71 25.5054 19.2822 25.3488 19.4762V19.4762ZM24.4511 37.3222C24.2382 37.1347 24.4779 37.4415 24.4511 37.3222V37.3222ZM26.3004 38.266C27.3291 38.5322 27.3239 38.1045 26.3941 37.9774C25.8941 37.5081 24.3162 37.0103 25.7285 37.9192C25.822 38.1582 26.1176 38.1526 26.3004 38.266ZM22.6482 35.8186C23.2149 36.2449 24.7828 37.0269 23.4555 35.9809C23.903 35.4563 22.5989 35.1771 23.0315 34.8262C21.9313 34.147 22.1636 34.2074 22.9344 34.2288C21.6121 33.6325 23.1253 33.6771 23.054 33.3715C22.5441 33.2699 20.5215 32.4645 21.7114 33.4377C20.5017 32.8155 21.4231 33.6695 21.0575 33.5792C19.8206 33.2389 22.1591 34.5297 20.8611 34.2093C21.5707 34.7766 22.7712 35.6625 21.1611 34.8097C20.9489 35.1177 22.3133 35.5847 22.6482 35.8186ZM24.5823 36.9396C23.4293 36.0055 26.934 37.7042 24.5823 36.9396V36.9396ZM34.4832 42.9909C34.1618 43.3924 34.5136 42.5202 34.4832 42.9909V42.9909ZM35.5009 43.423C36.0435 42.8926 35.5231 44.2679 36.3999 43.2931C36.4094 42.5953 36.3729 42.1832 35.3923 43.0308C35.1219 43.1821 35.0012 43.8252 35.5009 43.423ZM19.3471 33.188C18.1791 32.5305 19.1805 32.5271 19.3471 33.188V33.188ZM20.4337 33.9064C18.994 33.2953 20.0302 33.2314 20.4337 33.9064V33.9064ZM26.6157 37.6677C27.2192 38.2085 29.3877 38.0645 27.3487 37.7342C27.0468 37.2838 25.4311 37.3922 26.6157 37.6677ZM35.1138 42.9626C34.2138 43.3134 36.0427 42.1762 35.1138 42.9626V42.9626ZM37.0458 44.3021C36.6454 44.4125 37.0516 44.0497 37.0458 44.3021V44.3021ZM37.0487 43.9487C36.052 44.0138 38.0774 42.8491 37.0487 43.9487V43.9487ZM16.6744 30.9306C15.7977 29.6685 16.1294 29.1012 15.2839 28.0707C15.1239 27.2827 13.8335 25.4945 14.6165 27.389C15.3337 28.497 15.5469 30.2124 16.6744 30.9306ZM36.7261 43.5992C35.9492 43.0616 38.6186 42.3651 36.7261 43.5992V43.5992ZM38.1708 44.1702C37.5713 43.9985 39.1185 43.3492 38.1708 44.1702V44.1702ZM19.025 31.793C18.3245 31.7409 19.2962 31.3859 19.025 31.793V31.793ZM37.8691 43.7803C38.7867 43.1834 37.6577 43.2751 37.7028 43.8352L37.8691 43.7803ZM25.4159 35.8612C24.9313 35.8955 25.3843 35.4582 25.4159 35.8612V35.8612ZM26.1855 36.308C25.8094 36.3864 25.9409 35.8091 26.1855 36.308V36.308ZM39.3415 44.1837C40.5171 43.3281 38.6289 44.0199 39.0948 44.3458L39.3415 44.1837ZM38.8914 43.9642C37.8803 44.323 39.849 43.1546 38.8914 43.9642V43.9642ZM41.1914 45.5095C40.4102 45.3689 41.8343 45.075 41.1914 45.5095V45.5095ZM19.6147 31.4994C20.4766 31.6942 23.059 33.6409 21.5355 31.634C20.7552 31.401 21.2232 29.4767 20.4273 29.8173C20.9615 30.7176 20.8668 31.1009 19.7452 30.5332C18.3355 29.839 18.953 30.8773 19.2285 31.1634C18.8531 31.2495 19.7251 31.4922 19.6147 31.4994ZM15.6879 28.3707C15.8422 27.7269 14.2672 24.8286 14.9442 26.9185C15.1885 27.3562 15.1637 28.1859 15.6879 28.3707ZM22.8952 32.8536C22.4514 32.4792 22.8741 32.8006 22.8952 32.8536V32.8536ZM23.9881 33.1102C22.7801 32.8333 23.9876 32.4282 23.9881 33.1102V33.1102ZM33.4591 39.1339C32.7451 39.123 33.2785 38.6679 33.4591 39.1339V39.1339ZM33.9139 39.469C33.6515 39.5194 33.8468 39.2082 33.9139 39.469V39.469ZM37.6679 41.8546C37.2173 41.8202 38.0289 41.5855 37.6679 41.8546V41.8546ZM17.6494 28.8759C16.5429 28.5883 18.6821 28.4725 17.6494 28.8759V28.8759ZM32.6253 38.3947C31.967 38.562 32.6139 37.7202 32.6253 38.3947V38.3947ZM17.2414 27.9167C16.6277 27.7678 17.9047 27.6906 17.2414 27.9167V27.9167ZM19.1668 28.8576C18.9631 28.9415 19.1548 28.6359 19.1668 28.8576V28.8576ZM42.6512 43.3865C43.5042 43.212 45.448 43.8246 45.7622 43.1583C44.7263 43.133 42.1783 42.421 42.0578 43.3283L42.2845 43.3643L42.6512 43.3865ZM19.7787 29.0132C19.2504 28.9877 19.7936 28.3297 19.7787 29.0132V29.0132ZM14.7163 25.4703C13.8419 25.2732 14.4864 24.1681 14.7163 25.4703V25.4703ZM15.9235 25.7765C14.8186 25.4002 15.9383 25.3583 15.9235 25.7765V25.7765ZM16.6134 26.1183C16.414 25.9553 16.4573 26.3242 16.6134 26.1183V26.1183ZM20.9542 28.9277C20.4704 28.7874 21.1586 28.7383 20.9542 28.9277V28.9277ZM16.1539 25.3473C14.7557 25.2 16.0372 24.3638 16.1539 25.3473V25.3473ZM13.6789 23.7272C13.4378 23.8984 13.6437 23.2733 13.6789 23.7272V23.7272ZM14.0471 23.4467C13.731 23.5152 13.987 22.9085 14.0471 23.4467V23.4467ZM16.0812 24.6716C16.9413 24.3308 14.5145 23.9666 15.9054 24.6072L16.0812 24.6716ZM43.3041 41.6362C42.6044 41.4787 43.8546 41.127 43.3041 41.6362V41.6362ZM46.5928 43.3561C46.0373 43.4427 46.8134 42.6977 46.5928 43.3561V43.3561ZM16.289 23.596C15.6071 23.7225 16.3796 22.9592 16.289 23.596V23.596ZM13.395 21.6399C13.2396 20.7407 13.2608 19.1625 14.7479 19.6959C12.7629 20.0934 16.1217 22.1848 15.6975 20.5336C16.5321 20.5748 17.3302 20.036 16.8922 20.8537C18.5367 20.6705 19.6767 19.2319 21.2652 19.4335C22.5025 19.2683 23.8553 19.143 25.1887 18.6405C26.2849 18.5608 27.3402 17.37 26.7393 16.6642C25.2443 16.5366 23.6794 16.7253 22.027 17.0567C20.196 17.4407 18.5327 18.1703 16.6853 18.4835C14.8845 18.7276 17.0475 19.156 16.5317 19.2514C15.592 19.5803 17.6523 19.8021 16.4098 20.1489C15.6425 20.0017 14.8438 19.7357 15.1716 18.9199C13.4466 19.1458 11.9308 19.868 13.2937 21.639L13.395 21.6399ZM17.5516 19.5041C17.9561 18.0009 19.7185 20.7411 18.2146 19.7038C18.0349 19.5682 17.7395 19.4575 17.5516 19.5041ZM17.6303 18.7753C17.9406 19.0213 18.2141 18.3366 17.6303 18.7753V18.7753ZM18.3715 18.7872C18.4242 18.0955 20.0683 19.1534 18.6426 19.0362L18.3715 18.7872ZM19.3854 18.3759C19.4919 18.7642 19.7557 17.9394 19.3854 18.3759V18.3759ZM19.6448 18.2007C20.2614 17.4533 23.1363 17.7237 21.0319 18.1278C20.4679 17.6994 20.0355 18.3804 19.6448 18.2007ZM23.3967 17.6172C23.3029 15.5757 25.2606 18.3427 23.3967 17.6172V17.6172ZM24.4612 17.6113C24.8505 16.5824 25.9716 17.1985 24.6414 17.4046C24.6702 17.5141 24.6023 17.9358 24.4612 17.6113ZM15.8692 23.0679C14.6347 22.4446 17.0322 22.3495 15.8692 23.0679V23.0679ZM16.7291 23.309C15.8432 23.1316 17.1368 22.8716 16.7291 23.309V23.309ZM14.1956 21.4949C13.4092 21.2991 14.8601 20.9799 14.1956 21.4949V21.4949ZM48.534 43.1679C48.0261 43.4371 48.5532 42.5704 48.534 43.1679V43.1679ZM45.0448 40.7656C44.5964 40.8256 45.144 40.0777 45.0448 40.7656V40.7656ZM49.4935 43.3995C50.4225 43.4027 52.3084 43.1085 50.287 43.1094C49.9698 43.1593 48.4386 43.1486 49.4935 43.3995ZM17.4854 22.8873C18.2373 22.8352 18.6618 22.0506 17.34 22.0957C15.2915 21.8817 19.1474 22.8034 17.0772 22.5398C16.7991 22.7257 17.4693 22.9388 17.4854 22.8873ZM18.1476 23.2255C17.9151 23.4842 18.0691 22.7384 18.1476 23.2255V23.2255ZM18.9331 21.1123C18.4816 21.0032 19.2594 20.704 18.9331 21.1123V21.1123ZM16.4326 16.8954C17.7745 16.4348 19.6095 15.9173 20.2431 17.1221C19.5983 16.3391 19.9829 15.5683 20.5919 16.7131C21.4531 17.8714 21.8842 16.1863 21.3241 15.7978C21.9624 16.5979 22.6884 16.976 21.7515 15.8484C22.7696 14.6128 19.7128 16.0102 19.018 15.9961C18.6837 16.1475 15.5667 16.7981 16.4326 16.8954ZM17.219 15.3758C17.9843 14.7931 19.8658 15.7225 18.6585 14.7967C18.5404 14.6915 16.0144 15.4987 17.219 15.3758ZM20.009 15.492C20.9047 15.5151 19.6227 14.2781 20.69 14.8386C20.5147 14.2609 19.4474 14.1527 18.9255 13.9219C18.6304 14.4501 19.5263 15.4991 20.009 15.492ZM17.7082 12.9369C17.1652 13.1517 18.0181 12.5131 17.7082 12.9369V12.9369ZM18.8486 13.2122C20.2919 13.0191 18.4806 12.5851 18.5577 13.1967L18.8486 13.2122ZM16.7193 11.5314C15.703 10.1929 18.6306 11.7564 17.5981 10.3549C16.729 9.65676 15.8939 11.1406 16.7193 11.5314ZM29.7619 18.6189C30.228 17.7852 27.8374 17.4952 29.4478 18.3234C29.5961 18.3734 29.5626 18.6766 29.7619 18.6189Z" fill="white"/>
</g>
<g filter="url(#filter1_d_2_3646)">
<path d="M61.2783 24.4999V12.8635H65.5397C66.3655 12.8635 67.0492 12.9999 67.5908 13.2726C68.1325 13.5415 68.5378 13.9071 68.8068 14.3692C69.0757 14.8275 69.2102 15.3446 69.2102 15.9203C69.2102 16.4052 69.1211 16.8143 68.9431 17.1476C68.7651 17.4771 68.5265 17.7423 68.2272 17.9431C67.9318 18.14 67.606 18.284 67.2499 18.3749V18.4885C67.6363 18.5075 68.0132 18.6325 68.3806 18.8635C68.7518 19.0908 69.0586 19.4146 69.3011 19.8351C69.5435 20.2556 69.6647 20.7669 69.6647 21.3692C69.6647 21.9639 69.5246 22.498 69.2443 22.9715C68.9677 23.4412 68.5397 23.8143 67.9602 24.0908C67.3806 24.3635 66.6401 24.4999 65.7386 24.4999H61.2783ZM63.034 22.9942H65.5681C66.409 22.9942 67.0113 22.8313 67.3749 22.5056C67.7386 22.1798 67.9204 21.7726 67.9204 21.284C67.9204 20.9165 67.8276 20.5794 67.642 20.2726C67.4564 19.9658 67.1912 19.7215 66.8465 19.5396C66.5056 19.3578 66.1003 19.2669 65.6306 19.2669H63.034V22.9942ZM63.034 17.8976H65.3863C65.7802 17.8976 66.1344 17.8218 66.4488 17.6703C66.767 17.5188 67.0189 17.3067 67.2045 17.034C67.3939 16.7575 67.4886 16.4317 67.4886 16.0567C67.4886 15.5756 67.32 15.1722 66.9829 14.8465C66.6458 14.5207 66.1287 14.3578 65.4318 14.3578H63.034V17.8976ZM77.1391 20.8806V15.7726H78.8437V24.4999H77.1732V22.9885H77.0823C76.8816 23.4544 76.5596 23.8427 76.1164 24.1533C75.677 24.4601 75.1297 24.6135 74.4744 24.6135C73.9138 24.6135 73.4175 24.4904 72.9857 24.2442C72.5577 23.9942 72.2206 23.6249 71.9744 23.1362C71.7319 22.6476 71.6107 22.0434 71.6107 21.3237V15.7726H73.3096V21.1192C73.3096 21.7139 73.4744 22.1874 73.8039 22.5396C74.1335 22.8919 74.5615 23.0681 75.088 23.0681C75.4062 23.0681 75.7225 22.9885 76.0369 22.8294C76.355 22.6703 76.6183 22.4298 76.8266 22.1078C77.0388 21.7859 77.1429 21.3768 77.1391 20.8806ZM81.1264 24.4999V15.7726H82.8252V24.4999H81.1264ZM81.9843 14.426C81.6889 14.426 81.4351 14.3275 81.2229 14.1306C81.0146 13.9298 80.9104 13.6912 80.9104 13.4146C80.9104 13.1343 81.0146 12.8957 81.2229 12.6987C81.4351 12.498 81.6889 12.3976 81.9843 12.3976C82.2798 12.3976 82.5317 12.498 82.74 12.6987C82.9521 12.8957 83.0582 13.1343 83.0582 13.4146C83.0582 13.6912 82.9521 13.9298 82.74 14.1306C82.5317 14.3275 82.2798 14.426 81.9843 14.426ZM86.8096 12.8635V24.4999H85.1107V12.8635H86.8096ZM93.169 15.7726V17.1362H88.4019V15.7726H93.169ZM89.6803 13.6817H91.3792V21.9374C91.3792 22.2669 91.4284 22.515 91.5269 22.6817C91.6254 22.8446 91.7523 22.9563 91.9076 23.0169C92.0667 23.0737 92.239 23.1021 92.4246 23.1021C92.561 23.1021 92.6803 23.0927 92.7826 23.0737C92.8849 23.0548 92.9644 23.0396 93.0212 23.0283L93.3281 24.4317C93.2296 24.4696 93.0894 24.5074 92.9076 24.5453C92.7258 24.587 92.4985 24.6097 92.2258 24.6135C91.7788 24.6211 91.3621 24.5415 90.9758 24.3749C90.5894 24.2082 90.2769 23.9506 90.0383 23.6021C89.7996 23.2537 89.6803 22.8162 89.6803 22.2896V13.6817ZM101.175 24.4999L98.6065 15.7726H100.362L102.072 22.1817H102.158L103.874 15.7726H105.629L107.334 22.1533H107.419L109.118 15.7726H110.874L108.311 24.4999H106.578L104.805 18.1987H104.675L102.902 24.4999H101.175ZM112.486 24.4999V15.7726H114.185V24.4999H112.486ZM113.344 14.426C113.048 14.426 112.794 14.3275 112.582 14.1306C112.374 13.9298 112.27 13.6912 112.27 13.4146C112.27 13.1343 112.374 12.8957 112.582 12.6987C112.794 12.498 113.048 12.3976 113.344 12.3976C113.639 12.3976 113.891 12.498 114.099 12.6987C114.311 12.8957 114.418 13.1343 114.418 13.4146C114.418 13.6912 114.311 13.9298 114.099 14.1306C113.891 14.3275 113.639 14.426 113.344 14.426ZM120.544 15.7726V17.1362H115.777V15.7726H120.544ZM117.055 13.6817H118.754V21.9374C118.754 22.2669 118.803 22.515 118.902 22.6817C119 22.8446 119.127 22.9563 119.283 23.0169C119.442 23.0737 119.614 23.1021 119.8 23.1021C119.936 23.1021 120.055 23.0927 120.158 23.0737C120.26 23.0548 120.339 23.0396 120.396 23.0283L120.703 24.4317C120.605 24.4696 120.464 24.5074 120.283 24.5453C120.101 24.587 119.874 24.6097 119.601 24.6135C119.154 24.6211 118.737 24.5415 118.351 24.3749C117.964 24.2082 117.652 23.9506 117.413 23.6021C117.175 23.2537 117.055 22.8162 117.055 22.2896V13.6817ZM124.31 19.3181V24.4999H122.611V12.8635H124.287V17.1931H124.395C124.599 16.7234 124.912 16.3503 125.332 16.0737C125.753 15.7972 126.302 15.659 126.98 15.659C127.579 15.659 128.101 15.7821 128.548 16.0283C128.999 16.2745 129.347 16.6419 129.594 17.1306C129.844 17.6154 129.969 18.2215 129.969 18.9487V24.4999H128.27V19.1533C128.27 18.5131 128.105 18.0169 127.775 17.6646C127.446 17.3086 126.988 17.1306 126.4 17.1306C125.999 17.1306 125.639 17.2158 125.321 17.3862C125.007 17.5567 124.758 17.8067 124.577 18.1362C124.399 18.462 124.31 18.8559 124.31 19.3181Z" fill="#E8E8E8"/>
<path d="M60.9357 43.4999V31.1362H69.3753V33.5631H63.9239V36.0986H68.838V38.5315H63.9239V43.4999H60.9357ZM73.8321 31.1362V43.4999H70.88V31.1362H73.8321ZM78.325 43.6568C77.7334 43.6568 77.2082 43.5582 76.7494 43.361C76.2946 43.1598 75.9344 42.8579 75.6688 42.4555C75.4072 42.049 75.2764 41.5399 75.2764 40.9281C75.2764 40.413 75.3669 39.9783 75.5481 39.6242C75.7292 39.27 75.9787 38.9822 76.2966 38.7609C76.6146 38.5395 76.9808 38.3725 77.3954 38.2598C77.8099 38.1431 78.2526 38.0646 78.7235 38.0244C79.2507 37.9761 79.6753 37.9258 79.9973 37.8735C80.3192 37.8171 80.5527 37.7386 80.6976 37.638C80.8465 37.5334 80.9209 37.3865 80.9209 37.1973V37.1671C80.9209 36.8572 80.8143 36.6178 80.601 36.4487C80.3877 36.2797 80.0999 36.1952 79.7377 36.1952C79.3473 36.1952 79.0334 36.2797 78.7959 36.4487C78.5585 36.6178 78.4075 36.8512 78.3432 37.149L75.6205 37.0524C75.701 36.489 75.9083 35.9859 76.2423 35.5432C76.5804 35.0965 77.0432 34.7463 77.6308 34.4928C78.2224 34.2352 78.9328 34.1064 79.7618 34.1064C80.3534 34.1064 80.8988 34.1768 81.3978 34.3177C81.8969 34.4545 82.3315 34.6558 82.7018 34.9214C83.0721 35.183 83.3578 35.505 83.5591 35.8873C83.7643 36.2696 83.8669 36.7063 83.8669 37.1973V43.4999H81.09V42.208H81.0175C80.8525 42.5219 80.6412 42.7875 80.3836 43.0048C80.1301 43.2222 79.8302 43.3852 79.4841 43.4938C79.142 43.6025 78.7557 43.6568 78.325 43.6568ZM79.2366 41.725C79.5546 41.725 79.8403 41.6606 80.0939 41.5318C80.3514 41.403 80.5567 41.226 80.7096 41.0006C80.8626 40.7712 80.939 40.5056 80.939 40.2037V39.3223C80.8545 39.3666 80.7519 39.4068 80.6311 39.4431C80.5144 39.4793 80.3856 39.5135 80.2448 39.5457C80.1039 39.5779 79.959 39.6061 79.8101 39.6302C79.6612 39.6543 79.5183 39.6765 79.3815 39.6966C79.1038 39.7409 78.8664 39.8093 78.6691 39.9019C78.476 39.9944 78.3271 40.1152 78.2224 40.2641C78.1218 40.409 78.0715 40.582 78.0715 40.7833C78.0715 41.0891 78.1802 41.3226 78.3975 41.4835C78.6188 41.6445 78.8985 41.725 79.2366 41.725ZM93.7675 37.0585L91.0569 37.1309C91.0288 36.9377 90.9523 36.7667 90.8275 36.6178C90.7028 36.4648 90.5398 36.3461 90.3385 36.2616C90.1413 36.1731 89.9119 36.1288 89.6503 36.1288C89.3082 36.1288 89.0164 36.1972 88.775 36.334C88.5375 36.4709 88.4208 36.656 88.4248 36.8894C88.4208 37.0705 88.4932 37.2275 88.6422 37.3603C88.7951 37.4931 89.0668 37.5998 89.4571 37.6803L91.2441 38.0183C92.1697 38.1954 92.8579 38.4892 93.3087 38.8997C93.7635 39.3102 93.9929 39.8536 93.9969 40.5297C93.9929 41.1656 93.8037 41.719 93.4294 42.1899C93.0592 42.6607 92.5521 43.027 91.9081 43.2886C91.2642 43.5462 90.5277 43.6749 89.6986 43.6749C88.3745 43.6749 87.3301 43.4033 86.5654 42.86C85.8048 42.3126 85.3701 41.5801 85.2615 40.6625L88.1773 40.5901C88.2417 40.9281 88.4087 41.1857 88.6784 41.3628C88.948 41.5399 89.2921 41.6284 89.7107 41.6284C90.089 41.6284 90.3969 41.558 90.6343 41.4171C90.8718 41.2763 90.9925 41.0891 90.9966 40.8557C90.9925 40.6464 90.9 40.4794 90.7189 40.3546C90.5377 40.2258 90.254 40.1252 89.8677 40.0528L88.2498 39.7449C87.3201 39.5759 86.6278 39.264 86.173 38.8092C85.7183 38.3504 85.4929 37.7668 85.4969 37.0585C85.4929 36.4387 85.6579 35.9094 85.9919 35.4708C86.326 35.028 86.8009 34.69 87.4167 34.4566C88.0324 34.2231 88.7589 34.1064 89.596 34.1064C90.8517 34.1064 91.8417 34.37 92.5662 34.8972C93.2906 35.4204 93.691 36.1409 93.7675 37.0585ZM98.1126 41.067L98.1247 37.5475H98.5352L101.143 34.2271H104.488L100.612 38.9842H99.8331L98.1126 41.067ZM95.4503 43.4999V31.1362H98.4024V43.4999H95.4503ZM101.21 43.4999L98.7827 39.6483L100.727 37.5535L104.62 43.4999H101.21Z" fill="white"/>
</g>
<defs>
<filter id="filter0_d_2_3646" x="6.28565" y="2.28559" width="51.4286" height="51.4286" filterUnits="userSpaceOnUse" color-interpolation-filters="sRGB">
<feFlood flood-opacity="0" result="BackgroundImageFix"/>
<feColorMatrix in="SourceAlpha" type="matrix" values="0 0 0 0 0 0 0 0 0 0 0 0 0 0 0 0 0 0 127 0" result="hardAlpha"/>
<feOffset/>
<feGaussianBlur stdDeviation="2.85714"/>
<feComposite in2="hardAlpha" operator="out"/>
<feColorMatrix type="matrix" values="0 0 0 0 0 0 0 0 0 0 0 0 0 0 0 0 0 0 0.25 0"/>
<feBlend mode="normal" in2="BackgroundImageFix" result="effect1_dropShadow_2_3646"/>
<feBlend mode="normal" in="SourceGraphic" in2="effect1_dropShadow_2_3646" result="shape"/>
</filter>
<filter id="filter1_d_2_3646" x="54.3999" y="3.89988" width="83.2" height="48.2" filterUnits="userSpaceOnUse" color-interpolation-filters="sRGB">
<feFlood flood-opacity="0" result="BackgroundImageFix"/>
<feColorMatrix in="SourceAlpha" type="matrix" values="0 0 0 0 0 0 0 0 0 0 0 0 0 0 0 0 0 0 127 0" result="hardAlpha"/>
<feOffset/>
<feGaussianBlur stdDeviation="2.8"/>
<feComposite in2="hardAlpha" operator="out"/>
<feColorMatrix type="matrix" values="0 0 0 0 0 0 0 0 0 0 0 0 0 0 0 0 0 0 0.25 0"/>
<feBlend mode="normal" in2="BackgroundImageFix" result="effect1_dropShadow_2_3646"/>
<feBlend mode="normal" in="SourceGraphic" in2="effect1_dropShadow_2_3646" result="shape"/>
</filter>
<linearGradient id="paint0_linear_2_3646" x1="71.9999" y1="-0.00012207" x2="71.9999" y2="55.9999" gradientUnits="userSpaceOnUse">
<stop stop-color="#0A2135"/>
<stop offset="1" stop-color="#041823"/>
</linearGradient>
</defs>
</svg>
