<svg width="144" height="56" viewBox="0 0 144 56" fill="none" xmlns="http://www.w3.org/2000/svg">
<g clip-path="url(#clip0_1_866)">
<rect x="-6.10352e-05" y="-6.10352e-05" width="144" height="56" rx="8" fill="url(#paint0_linear_1_866)"/>
<g filter="url(#filter0_d_1_866)">
<g clip-path="url(#clip1_1_866)">
<path fill-rule="evenodd" clip-rule="evenodd" d="M17.0427 29.6325C17.1028 30.8712 18.3391 30.298 18.8992 29.9108C19.4307 29.5431 19.5861 29.8487 19.6328 29.1232C19.6634 28.6463 19.7183 28.1693 19.6913 27.6905C18.8874 27.6176 18.0131 27.8092 17.3541 28.2884C17.0147 28.5353 16.3782 29.3232 17.0427 29.6325Z" fill="#F6D2A2" stroke="black" stroke-width="0.5" stroke-linecap="round"/>
<path fill-rule="evenodd" clip-rule="evenodd" d="M17.0427 29.6324C17.2227 29.5654 17.4134 29.5179 17.5355 29.355L17.0427 29.6324Z" fill="#C6B198"/>
<path d="M17.0427 29.6324C17.2227 29.5654 17.4134 29.5179 17.5355 29.355" stroke="black" stroke-width="0.5" stroke-linecap="round"/>
<path fill-rule="evenodd" clip-rule="evenodd" d="M19.9 14.8754C15.1621 13.5419 18.6851 7.50914 22.4897 9.99048L19.9 14.8754Z" fill="#6AD7E5" stroke="black" stroke-width="0.5" stroke-linecap="round"/>
<path fill-rule="evenodd" clip-rule="evenodd" d="M40.9501 9.53776C44.7003 6.90133 48.0892 12.8496 43.7308 14.3462L40.9501 9.53776Z" fill="#6AD7E5" stroke="black" stroke-width="0.5" stroke-linecap="round"/>
<path fill-rule="evenodd" clip-rule="evenodd" d="M41.7568 44.8779C42.7094 45.4678 44.4505 47.2516 43.0215 48.1165C41.6485 49.3747 40.88 46.7354 39.6749 46.3697C40.1939 45.6642 40.8518 45.021 41.7568 44.8779Z" fill="#F6D2A2" stroke="black" stroke-width="0.5" stroke-linecap="round"/>
<path d="M43.0215 48.1164C42.8097 47.6948 42.7386 47.2027 42.3849 46.8629" stroke="black" stroke-width="0.5" stroke-linecap="round"/>
<path fill-rule="evenodd" clip-rule="evenodd" d="M24.7388 46.8937C23.6207 47.0669 22.9914 48.0765 22.0593 48.5892C21.181 49.1134 20.845 48.4214 20.7659 48.2809C20.6282 48.2181 20.6398 48.3394 20.4273 48.1253C19.6131 46.8391 21.2757 45.899 22.1414 45.26C23.3473 45.0161 24.1029 46.0624 24.7388 46.8937Z" fill="#F6D2A2" stroke="black" stroke-width="0.5" stroke-linecap="round"/>
<path d="M20.766 48.2808C20.8086 47.7906 21.1969 47.4623 21.3819 47.0479" stroke="black" stroke-width="0.5" stroke-linecap="round"/>
<path fill-rule="evenodd" clip-rule="evenodd" d="M20.0976 13.2092C19.4726 12.8782 19.014 12.4288 19.3964 11.7052C19.7503 11.0353 20.4079 11.108 21.0331 11.4389L20.0976 13.2092Z" fill="black"/>
<path fill-rule="evenodd" clip-rule="evenodd" d="M42.7433 12.58C43.3684 12.2491 43.8269 11.7996 43.4446 11.076C43.0906 10.4061 42.433 10.4789 41.8079 10.8098L42.7433 12.58Z" fill="black"/>
<path fill-rule="evenodd" clip-rule="evenodd" d="M47.046 29.4752C46.986 30.7139 45.7496 30.1408 45.1896 29.7535C44.658 29.3858 44.5026 29.6915 44.4559 28.9659C44.4254 28.489 44.3704 28.0121 44.3975 27.5333C45.2013 27.4604 46.0756 27.6519 46.7346 28.1311C47.074 28.378 47.7105 29.1659 47.046 29.4752Z" fill="#F6D2A2" stroke="black" stroke-width="0.5" stroke-linecap="round"/>
<path fill-rule="evenodd" clip-rule="evenodd" d="M47.046 29.4752C46.8661 29.4081 46.6754 29.3606 46.5533 29.1977L47.046 29.4752Z" fill="#C6B198"/>
<path d="M47.046 29.4752C46.8661 29.4081 46.6754 29.3606 46.5533 29.1977" stroke="black" stroke-width="0.5" stroke-linecap="round"/>
<path fill-rule="evenodd" clip-rule="evenodd" d="M31.5696 7.03217C36.3128 7.03217 40.7592 7.71111 43.0771 12.2722C45.1576 17.3847 44.4178 22.8976 44.735 28.3007C45.0075 32.9401 45.6117 38.3001 43.4613 42.5994C41.1992 47.1226 35.5464 48.2605 30.8893 48.0938C27.2312 47.9628 22.8122 46.7683 20.7476 43.4231C18.3255 39.4987 19.4722 33.6634 19.6481 29.2966C19.8565 24.1241 18.2483 18.9357 19.9461 13.8742C21.7074 8.62356 26.4574 7.43695 31.5696 7.03217Z" fill="#6AD7E5" stroke="black" stroke-width="0.5" stroke-linecap="round"/>
<path fill-rule="evenodd" clip-rule="evenodd" d="M32.4069 13.4052C33.2585 18.3601 41.3505 17.0501 40.1883 12.0528C39.146 7.57155 32.1239 8.81195 32.4069 13.4052Z" fill="white" stroke="black" stroke-width="0.5" stroke-linecap="round"/>
<path fill-rule="evenodd" clip-rule="evenodd" d="M22.737 14.2066C23.8408 18.5204 30.741 17.4159 30.4809 13.0889C30.1693 7.90651 21.6817 8.90649 22.737 14.2066Z" fill="white" stroke="black" stroke-width="0.5" stroke-linecap="round"/>
<path fill-rule="evenodd" clip-rule="evenodd" d="M33.3832 19.351C33.3868 19.9952 33.5294 20.7184 33.4077 21.4037C33.2434 21.7146 32.9211 21.7474 32.6433 21.873C32.259 21.8127 31.9359 21.5602 31.7819 21.2004C31.6832 20.4182 31.8186 19.6609 31.8435 18.8784L33.3832 19.351Z" fill="white" stroke="black" stroke-width="0.5" stroke-linecap="round"/>
<path d="M24.6402 14.7663C25.2837 14.7663 25.8054 14.2007 25.8054 13.5031C25.8054 12.8054 25.2837 12.2399 24.6402 12.2399C23.9967 12.2399 23.475 12.8054 23.475 13.5031C23.475 14.2007 23.9967 14.7663 24.6402 14.7663Z" fill="black"/>
<path d="M25.1701 14.1092C25.3219 14.1092 25.4448 13.9655 25.4448 13.7882C25.4448 13.6109 25.3219 13.4672 25.1701 13.4672C25.0184 13.4672 24.8954 13.6109 24.8954 13.7882C24.8954 13.9655 25.0184 14.1092 25.1701 14.1092Z" fill="white"/>
<path d="M34.4029 14.4517C35.0357 14.4517 35.5487 13.8861 35.5487 13.1885C35.5487 12.4908 35.0357 11.9253 34.4029 11.9253C33.7701 11.9253 33.2571 12.4908 33.2571 13.1885C33.2571 13.8861 33.7701 14.4517 34.4029 14.4517Z" fill="black"/>
<path d="M34.9241 13.7946C35.0733 13.7946 35.1943 13.6509 35.1943 13.4736C35.1943 13.2963 35.0733 13.1525 34.9241 13.1525C34.7749 13.1525 34.654 13.2963 34.654 13.4736C34.654 13.6509 34.7749 13.7946 34.9241 13.7946Z" fill="white"/>
<path fill-rule="evenodd" clip-rule="evenodd" d="M30.0534 19.2809C29.5451 20.514 30.3369 22.98 31.7163 21.1611C31.6177 20.3789 31.7531 19.6216 31.778 18.8391L30.0534 19.2809Z" fill="white" stroke="black" stroke-width="0.5" stroke-linecap="round"/>
<path fill-rule="evenodd" clip-rule="evenodd" d="M30.2274 16.906C29.2799 16.9869 28.5053 18.1145 28.998 19.0066C29.6504 20.1881 31.1067 18.9021 32.0137 19.0225C33.0575 19.0439 33.9128 20.1273 34.7512 19.2184C35.6837 18.2075 34.3498 17.2229 33.3072 16.7827L30.2274 16.906Z" fill="#F6D2A2" stroke="#231F20" stroke-width="0.5" stroke-linecap="round"/>
<path fill-rule="evenodd" clip-rule="evenodd" d="M30.1081 16.8566C30.038 15.2136 33.1677 15.0082 33.5373 16.3835C33.906 17.7555 30.2622 18.0742 30.1081 16.8566Z" fill="black"/>
</g>
</g>
<g filter="url(#filter1_d_1_866)">
<path d="M61.2783 24.4999V12.8636H65.5397C66.3655 12.8636 67.0492 12.9999 67.5908 13.2727C68.1325 13.5416 68.5378 13.9071 68.8068 14.3693C69.0757 14.8276 69.2102 15.3446 69.2102 15.9204C69.2102 16.4052 69.1211 16.8143 68.9431 17.1477C68.7651 17.4772 68.5265 17.7424 68.2272 17.9431C67.9318 18.1401 67.606 18.284 67.2499 18.3749V18.4886C67.6363 18.5075 68.0132 18.6325 68.3806 18.8636C68.7518 19.0908 69.0586 19.4147 69.3011 19.8352C69.5435 20.2556 69.6647 20.767 69.6647 21.3693C69.6647 21.964 69.5246 22.498 69.2443 22.9715C68.9677 23.4412 68.5397 23.8143 67.9602 24.0908C67.3806 24.3636 66.6401 24.4999 65.7386 24.4999H61.2783ZM63.034 22.9943H65.5681C66.409 22.9943 67.0113 22.8314 67.3749 22.5056C67.7386 22.1799 67.9204 21.7727 67.9204 21.284C67.9204 20.9166 67.8276 20.5795 67.642 20.2727C67.4564 19.9658 67.1912 19.7215 66.8465 19.5397C66.5056 19.3579 66.1003 19.267 65.6306 19.267H63.034V22.9943ZM63.034 17.8977H65.3863C65.7802 17.8977 66.1344 17.8219 66.4488 17.6704C66.767 17.5189 67.0189 17.3068 67.2045 17.034C67.3939 16.7575 67.4886 16.4318 67.4886 16.0568C67.4886 15.5757 67.32 15.1723 66.9829 14.8465C66.6458 14.5208 66.1287 14.3579 65.4318 14.3579H63.034V17.8977ZM77.1391 20.8806V15.7727H78.8437V24.4999H77.1732V22.9886H77.0823C76.8816 23.4545 76.5596 23.8427 76.1164 24.1533C75.677 24.4602 75.1297 24.6136 74.4744 24.6136C73.9138 24.6136 73.4175 24.4905 72.9857 24.2443C72.5577 23.9943 72.2206 23.6249 71.9744 23.1363C71.7319 22.6477 71.6107 22.0435 71.6107 21.3238V15.7727H73.3096V21.1193C73.3096 21.714 73.4744 22.1874 73.8039 22.5397C74.1335 22.892 74.5615 23.0681 75.088 23.0681C75.4062 23.0681 75.7225 22.9886 76.0369 22.8295C76.355 22.6704 76.6183 22.4299 76.8266 22.1079C77.0388 21.7859 77.1429 21.3768 77.1391 20.8806ZM81.1264 24.4999V15.7727H82.8252V24.4999H81.1264ZM81.9843 14.4261C81.6889 14.4261 81.4351 14.3276 81.2229 14.1306C81.0146 13.9299 80.9104 13.6912 80.9104 13.4147C80.9104 13.1344 81.0146 12.8958 81.2229 12.6988C81.4351 12.498 81.6889 12.3977 81.9843 12.3977C82.2798 12.3977 82.5317 12.498 82.74 12.6988C82.9521 12.8958 83.0582 13.1344 83.0582 13.4147C83.0582 13.6912 82.9521 13.9299 82.74 14.1306C82.5317 14.3276 82.2798 14.4261 81.9843 14.4261ZM86.8096 12.8636V24.4999H85.1107V12.8636H86.8096ZM93.169 15.7727V17.1363H88.4019V15.7727H93.169ZM89.6803 13.6818H91.3792V21.9374C91.3792 22.267 91.4284 22.5151 91.5269 22.6818C91.6254 22.8446 91.7523 22.9564 91.9076 23.017C92.0667 23.0738 92.239 23.1022 92.4246 23.1022C92.561 23.1022 92.6803 23.0927 92.7826 23.0738C92.8849 23.0549 92.9644 23.0397 93.0212 23.0283L93.3281 24.4318C93.2296 24.4696 93.0894 24.5075 92.9076 24.5454C92.7258 24.5871 92.4985 24.6098 92.2258 24.6136C91.7788 24.6211 91.3621 24.5416 90.9758 24.3749C90.5894 24.2083 90.2769 23.9507 90.0383 23.6022C89.7996 23.2537 89.6803 22.8162 89.6803 22.2897V13.6818ZM101.175 24.4999L98.6065 15.7727H100.362L102.072 22.1818H102.158L103.874 15.7727H105.629L107.334 22.1533H107.419L109.118 15.7727H110.874L108.311 24.4999H106.578L104.805 18.1988H104.675L102.902 24.4999H101.175ZM112.486 24.4999V15.7727H114.185V24.4999H112.486ZM113.344 14.4261C113.048 14.4261 112.794 14.3276 112.582 14.1306C112.374 13.9299 112.27 13.6912 112.27 13.4147C112.27 13.1344 112.374 12.8958 112.582 12.6988C112.794 12.498 113.048 12.3977 113.344 12.3977C113.639 12.3977 113.891 12.498 114.099 12.6988C114.311 12.8958 114.418 13.1344 114.418 13.4147C114.418 13.6912 114.311 13.9299 114.099 14.1306C113.891 14.3276 113.639 14.4261 113.344 14.4261ZM120.544 15.7727V17.1363H115.777V15.7727H120.544ZM117.055 13.6818H118.754V21.9374C118.754 22.267 118.803 22.5151 118.902 22.6818C119 22.8446 119.127 22.9564 119.283 23.017C119.442 23.0738 119.614 23.1022 119.8 23.1022C119.936 23.1022 120.055 23.0927 120.158 23.0738C120.26 23.0549 120.339 23.0397 120.396 23.0283L120.703 24.4318C120.605 24.4696 120.464 24.5075 120.283 24.5454C120.101 24.5871 119.874 24.6098 119.601 24.6136C119.154 24.6211 118.737 24.5416 118.351 24.3749C117.964 24.2083 117.652 23.9507 117.413 23.6022C117.175 23.2537 117.055 22.8162 117.055 22.2897V13.6818ZM124.31 19.3181V24.4999H122.611V12.8636H124.287V17.1931H124.395C124.599 16.7234 124.912 16.3503 125.332 16.0738C125.753 15.7973 126.302 15.659 126.98 15.659C127.579 15.659 128.101 15.7821 128.548 16.0283C128.999 16.2746 129.347 16.642 129.594 17.1306C129.844 17.6155 129.969 18.2215 129.969 18.9488V24.4999H128.27V19.1533C128.27 18.5132 128.105 18.017 127.775 17.6647C127.446 17.3086 126.988 17.1306 126.4 17.1306C125.999 17.1306 125.639 17.2158 125.321 17.3863C125.007 17.5568 124.758 17.8068 124.577 18.1363C124.399 18.4621 124.31 18.856 124.31 19.3181Z" fill="#E8E8E8"/>
<path d="M69.0493 35.175C68.9809 34.9215 68.8803 34.6981 68.7475 34.5049C68.6146 34.3077 68.4516 34.1407 68.2585 34.0038C68.0653 33.867 67.8439 33.7644 67.5944 33.696C67.3449 33.6235 67.0712 33.5873 66.7734 33.5873C66.1737 33.5873 65.6545 33.7322 65.2158 34.022C64.7812 34.3117 64.4451 34.7343 64.2077 35.2897C63.9702 35.8411 63.8515 36.5112 63.8515 37.3C63.8515 38.0929 63.9662 38.769 64.1956 39.3284C64.425 39.8878 64.757 40.3144 65.1917 40.6082C65.6264 40.902 66.1536 41.0489 66.7734 41.0489C67.3207 41.0489 67.7836 40.9604 68.1619 40.7833C68.5442 40.6022 68.834 40.3466 69.0312 40.0166C69.2284 39.6866 69.327 39.2982 69.327 38.8515L69.8824 38.9179H66.876V36.7386H72.2066V38.3746C72.2066 39.4814 71.9712 40.4291 71.5003 41.218C71.0334 42.0068 70.3895 42.6125 69.5685 43.0351C68.7515 43.4577 67.8117 43.669 66.7492 43.669C65.57 43.669 64.5337 43.4134 63.6402 42.9023C62.7467 42.3912 62.0505 41.6627 61.5514 40.7169C61.0524 39.7671 60.8029 38.6402 60.8029 37.3362C60.8029 36.322 60.9538 35.4225 61.2556 34.6377C61.5575 33.8489 61.978 33.1808 62.5173 32.6335C63.0607 32.0861 63.6885 31.6716 64.4009 31.3899C65.1172 31.1081 65.888 30.9673 66.713 30.9673C67.4294 30.9673 68.0955 31.0699 68.7112 31.2752C69.331 31.4804 69.8784 31.7702 70.3533 32.1445C70.8322 32.5188 71.2206 32.9635 71.5184 33.4786C71.8162 33.9938 72.0014 34.5592 72.0738 35.175H69.0493ZM78.2964 43.675C77.3224 43.675 76.4853 43.4758 75.785 43.0773C75.0887 42.6749 74.5515 42.1155 74.1731 41.3991C73.7989 40.6787 73.6117 39.8436 73.6117 38.8938C73.6117 37.9399 73.7989 37.1048 74.1731 36.3884C74.5515 35.668 75.0887 35.1086 75.785 34.7102C76.4853 34.3077 77.3224 34.1065 78.2964 34.1065C79.2703 34.1065 80.1054 34.3077 80.8017 34.7102C81.502 35.1086 82.0393 35.668 82.4136 36.3884C82.7919 37.1048 82.981 37.9399 82.981 38.8938C82.981 39.8436 82.7919 40.6787 82.4136 41.3991C82.0393 42.1155 81.502 42.6749 80.8017 43.0773C80.1054 43.4758 79.2703 43.675 78.2964 43.675ZM78.3145 41.4474C78.6686 41.4474 78.9685 41.3387 79.214 41.1214C79.4595 40.9041 79.6466 40.6022 79.7754 40.2158C79.9082 39.8295 79.9746 39.3827 79.9746 38.8756C79.9746 38.3605 79.9082 37.9097 79.7754 37.5234C79.6466 37.137 79.4595 36.8352 79.214 36.6178C78.9685 36.4005 78.6686 36.2918 78.3145 36.2918C77.9482 36.2918 77.6383 36.4005 77.3848 36.6178C77.1353 36.8352 76.9441 37.137 76.8113 37.5234C76.6825 37.9097 76.6181 38.3605 76.6181 38.8756C76.6181 39.3827 76.6825 39.8295 76.8113 40.2158C76.9441 40.6022 77.1353 40.9041 77.3848 41.1214C77.6383 41.3387 77.9482 41.4474 78.3145 41.4474Z" fill="#6AD7E5"/>
</g>
</g>
<rect x="1.04994" y="1.04994" width="141.9" height="53.9" rx="6.95" stroke="white" stroke-opacity="0.15" stroke-width="2.1"/>
<defs>
<filter id="filter0_d_1_866" x="4.28571" y="0.285715" width="55.4286" height="55.4286" filterUnits="userSpaceOnUse" color-interpolation-filters="sRGB">
<feFlood flood-opacity="0" result="BackgroundImageFix"/>
<feColorMatrix in="SourceAlpha" type="matrix" values="0 0 0 0 0 0 0 0 0 0 0 0 0 0 0 0 0 0 127 0" result="hardAlpha"/>
<feOffset/>
<feGaussianBlur stdDeviation="2.85714"/>
<feComposite in2="hardAlpha" operator="out"/>
<feColorMatrix type="matrix" values="0 0 0 0 0 0 0 0 0 0 0 0 0 0 0 0 0 0 0.25 0"/>
<feBlend mode="normal" in2="BackgroundImageFix" result="effect1_dropShadow_1_866"/>
<feBlend mode="normal" in="SourceGraphic" in2="effect1_dropShadow_1_866" result="shape"/>
</filter>
<filter id="filter1_d_1_866" x="54.3999" y="3.89994" width="83.2" height="48.2" filterUnits="userSpaceOnUse" color-interpolation-filters="sRGB">
<feFlood flood-opacity="0" result="BackgroundImageFix"/>
<feColorMatrix in="SourceAlpha" type="matrix" values="0 0 0 0 0 0 0 0 0 0 0 0 0 0 0 0 0 0 127 0" result="hardAlpha"/>
<feOffset/>
<feGaussianBlur stdDeviation="2.8"/>
<feComposite in2="hardAlpha" operator="out"/>
<feColorMatrix type="matrix" values="0 0 0 0 0 0 0 0 0 0 0 0 0 0 0 0 0 0 0.25 0"/>
<feBlend mode="normal" in2="BackgroundImageFix" result="effect1_dropShadow_1_866"/>
<feBlend mode="normal" in="SourceGraphic" in2="effect1_dropShadow_1_866" result="shape"/>
</filter>
<linearGradient id="paint0_linear_1_866" x1="71.9999" y1="-6.10352e-05" x2="71.9999" y2="55.9999" gradientUnits="userSpaceOnUse">
<stop stop-color="#152A2D"/>
<stop offset="1" stop-color="#102022"/>
</linearGradient>
<clipPath id="clip0_1_866">
<rect x="-6.10352e-05" y="-6.10352e-05" width="144" height="56" rx="8" fill="white"/>
</clipPath>
<clipPath id="clip1_1_866">
<rect width="31.5857" height="44" fill="white" transform="translate(16.2072 6)"/>
</clipPath>
</defs>
</svg>
