<svg width="163" height="56" viewBox="0 0 163 56" fill="none" xmlns="http://www.w3.org/2000/svg">
<rect x="-6.10352e-05" y="-0.000183105" width="163" height="56" rx="8" fill="url(#paint0_linear_2_848)"/>
<g filter="url(#filter0_d_2_848)">
<path d="M12.0003 7.99988H52.0003V47.9999H12.0003V7.99988ZM48.7236 38.4599C48.432 36.6349 47.2436 35.1015 43.7186 33.6715C42.492 33.0965 41.1286 32.6965 40.7236 31.7715C40.572 31.2215 40.5486 30.9215 40.647 30.5965C40.897 29.5199 42.172 29.1965 43.172 29.4965C43.822 29.6965 44.422 30.1965 44.7986 30.9965C46.522 29.8699 46.522 29.8699 47.7236 29.1215C47.2736 28.4215 47.0503 28.1199 46.747 27.8215C45.697 26.6465 44.2986 26.0465 42.0236 26.0982L40.8486 26.2465C39.722 26.5215 38.6486 27.1215 37.9986 27.9215C36.0986 30.0732 36.647 33.8232 38.947 35.3732C41.222 37.0732 44.5486 37.4465 44.9736 39.0482C45.3736 40.9982 43.5236 41.6232 41.697 41.3982C40.3453 41.0982 39.597 40.4215 38.772 39.1715L35.722 40.9232C36.072 41.7232 36.472 42.0715 37.072 42.7715C39.972 45.6982 47.222 45.5482 48.5236 41.0982C48.572 40.9482 48.9236 39.9232 48.647 38.3482L48.7236 38.4599ZM33.752 26.3849H30.0053C30.0053 29.6149 29.9903 32.8249 29.9903 36.0599C29.9903 38.1132 30.0953 39.9982 29.7603 40.5782C29.2103 41.7265 27.7936 41.5799 27.1503 41.3782C26.4903 41.0515 26.1553 40.6015 25.767 39.9532C25.662 39.7782 25.5836 39.6265 25.5553 39.6265L22.5136 41.5015C23.022 42.5515 23.7636 43.4549 24.7203 44.0299C26.1453 44.8799 28.0603 45.1549 30.0653 44.7049C31.3703 44.3282 32.4953 43.5532 33.0836 42.3532C33.9336 40.8032 33.7536 38.9032 33.7453 36.7765C33.7653 33.3532 33.7453 29.9282 33.7453 26.4782L33.752 26.3849Z" fill="#F7DF1E"/>
</g>
<g filter="url(#filter1_d_2_848)">
<path d="M61.2783 24.4998V12.8635H65.5397C66.3655 12.8635 67.0492 12.9998 67.5908 13.2725C68.1325 13.5415 68.5378 13.907 68.8068 14.3691C69.0757 14.8275 69.2102 15.3445 69.2102 15.9203C69.2102 16.4051 69.1211 16.8142 68.9431 17.1475C68.7651 17.4771 68.5265 17.7422 68.2272 17.943C67.9318 18.14 67.606 18.2839 67.2499 18.3748V18.4885C67.6363 18.5074 68.0132 18.6324 68.3806 18.8635C68.7518 19.0907 69.0586 19.4146 69.3011 19.835C69.5435 20.2555 69.6647 20.7669 69.6647 21.3691C69.6647 21.9638 69.5246 22.4979 69.2443 22.9714C68.9677 23.4411 68.5397 23.8142 67.9602 24.0907C67.3806 24.3634 66.6401 24.4998 65.7386 24.4998H61.2783ZM63.034 22.9941H65.5681C66.409 22.9941 67.0113 22.8313 67.3749 22.5055C67.7386 22.1797 67.9204 21.7725 67.9204 21.2839C67.9204 20.9165 67.8276 20.5794 67.642 20.2725C67.4564 19.9657 67.1912 19.7214 66.8465 19.5396C66.5056 19.3578 66.1003 19.2669 65.6306 19.2669H63.034V22.9941ZM63.034 17.8975H65.3863C65.7802 17.8975 66.1344 17.8218 66.4488 17.6703C66.767 17.5188 67.0189 17.3066 67.2045 17.0339C67.3939 16.7574 67.4886 16.4316 67.4886 16.0566C67.4886 15.5756 67.32 15.1722 66.9829 14.8464C66.6458 14.5206 66.1287 14.3578 65.4318 14.3578H63.034V17.8975ZM77.1391 20.8805V15.7725H78.8437V24.4998H77.1732V22.9884H77.0823C76.8816 23.4544 76.5596 23.8426 76.1164 24.1532C75.677 24.46 75.1297 24.6134 74.4744 24.6134C73.9138 24.6134 73.4175 24.4903 72.9857 24.2441C72.5577 23.9941 72.2206 23.6248 71.9744 23.1362C71.7319 22.6475 71.6107 22.0434 71.6107 21.3237V15.7725H73.3096V21.1191C73.3096 21.7138 73.4744 22.1873 73.8039 22.5396C74.1335 22.8919 74.5615 23.068 75.088 23.068C75.4062 23.068 75.7225 22.9884 76.0369 22.8294C76.355 22.6703 76.6183 22.4297 76.8266 22.1078C77.0388 21.7858 77.1429 21.3767 77.1391 20.8805ZM81.1264 24.4998V15.7725H82.8252V24.4998H81.1264ZM81.9843 14.426C81.6889 14.426 81.4351 14.3275 81.2229 14.1305C81.0146 13.9297 80.9104 13.6911 80.9104 13.4146C80.9104 13.1343 81.0146 12.8956 81.2229 12.6987C81.4351 12.4979 81.6889 12.3975 81.9843 12.3975C82.2798 12.3975 82.5317 12.4979 82.74 12.6987C82.9521 12.8956 83.0582 13.1343 83.0582 13.4146C83.0582 13.6911 82.9521 13.9297 82.74 14.1305C82.5317 14.3275 82.2798 14.426 81.9843 14.426ZM86.8096 12.8635V24.4998H85.1107V12.8635H86.8096ZM93.169 15.7725V17.1362H88.4019V15.7725H93.169ZM89.6803 13.6816H91.3792V21.9373C91.3792 22.2669 91.4284 22.515 91.5269 22.6816C91.6254 22.8445 91.7523 22.9563 91.9076 23.0169C92.0667 23.0737 92.239 23.1021 92.4246 23.1021C92.561 23.1021 92.6803 23.0926 92.7826 23.0737C92.8849 23.0547 92.9644 23.0396 93.0212 23.0282L93.3281 24.4316C93.2296 24.4695 93.0894 24.5074 92.9076 24.5453C92.7258 24.5869 92.4985 24.6097 92.2258 24.6134C91.7788 24.621 91.3621 24.5415 90.9758 24.3748C90.5894 24.2081 90.2769 23.9506 90.0383 23.6021C89.7996 23.2536 89.6803 22.8161 89.6803 22.2896V13.6816ZM101.175 24.4998L98.6065 15.7725H100.362L102.072 22.1816H102.158L103.874 15.7725H105.629L107.334 22.1532H107.419L109.118 15.7725H110.874L108.311 24.4998H106.578L104.805 18.1987H104.675L102.902 24.4998H101.175ZM112.486 24.4998V15.7725H114.185V24.4998H112.486ZM113.344 14.426C113.048 14.426 112.794 14.3275 112.582 14.1305C112.374 13.9297 112.27 13.6911 112.27 13.4146C112.27 13.1343 112.374 12.8956 112.582 12.6987C112.794 12.4979 113.048 12.3975 113.344 12.3975C113.639 12.3975 113.891 12.4979 114.099 12.6987C114.311 12.8956 114.418 13.1343 114.418 13.4146C114.418 13.6911 114.311 13.9297 114.099 14.1305C113.891 14.3275 113.639 14.426 113.344 14.426ZM120.544 15.7725V17.1362H115.777V15.7725H120.544ZM117.055 13.6816H118.754V21.9373C118.754 22.2669 118.803 22.515 118.902 22.6816C119 22.8445 119.127 22.9563 119.283 23.0169C119.442 23.0737 119.614 23.1021 119.8 23.1021C119.936 23.1021 120.055 23.0926 120.158 23.0737C120.26 23.0547 120.339 23.0396 120.396 23.0282L120.703 24.4316C120.605 24.4695 120.464 24.5074 120.283 24.5453C120.101 24.5869 119.874 24.6097 119.601 24.6134C119.154 24.621 118.737 24.5415 118.351 24.3748C117.964 24.2081 117.652 23.9506 117.413 23.6021C117.175 23.2536 117.055 22.8161 117.055 22.2896V13.6816ZM124.31 19.318V24.4998H122.611V12.8635H124.287V17.193H124.395C124.599 16.7233 124.912 16.3502 125.332 16.0737C125.753 15.7972 126.302 15.6589 126.98 15.6589C127.579 15.6589 128.101 15.782 128.548 16.0282C128.999 16.2744 129.347 16.6419 129.594 17.1305C129.844 17.6153 129.969 18.2214 129.969 18.9487V24.4998H128.27V19.1532C128.27 18.5131 128.105 18.0169 127.775 17.6646C127.446 17.3085 126.988 17.1305 126.4 17.1305C125.999 17.1305 125.639 17.2157 125.321 17.3862C125.007 17.5566 124.758 17.8066 124.577 18.1362C124.399 18.4619 124.31 18.8559 124.31 19.318Z" fill="#E8E8E8"/>
<path d="M65.9584 31.1362H68.9044V39.6845C68.9004 40.4854 68.7092 41.1857 68.3309 41.7853C67.9526 42.381 67.4294 42.8438 66.7613 43.1738C66.0972 43.5038 65.3285 43.6688 64.4552 43.6688C63.6825 43.6688 62.9802 43.534 62.3483 43.2644C61.7205 42.9947 61.2194 42.5762 60.8451 42.0087C60.4748 41.4412 60.2917 40.7148 60.2957 39.8294H63.272C63.284 40.1473 63.3444 40.419 63.4531 40.6443C63.5658 40.8657 63.7207 41.0327 63.9179 41.1454C64.1151 41.2581 64.3506 41.3144 64.6242 41.3144C64.91 41.3144 65.1515 41.2541 65.3487 41.1333C65.5459 41.0086 65.6948 40.8255 65.7954 40.584C65.9 40.3425 65.9544 40.0427 65.9584 39.6845V31.1362ZM73.3944 43.6568C72.8028 43.6568 72.2775 43.5582 71.8187 43.361C71.364 43.1597 71.0038 42.8579 70.7381 42.4554C70.4765 42.0489 70.3457 41.5398 70.3457 40.9281C70.3457 40.4129 70.4363 39.9783 70.6174 39.6241C70.7985 39.2699 71.048 38.9822 71.366 38.7608C71.6839 38.5395 72.0502 38.3724 72.4647 38.2598C72.8792 38.143 73.3219 38.0646 73.7928 38.0243C74.32 37.976 74.7446 37.9257 75.0666 37.8734C75.3886 37.817 75.622 37.7386 75.7669 37.638C75.9158 37.5333 75.9903 37.3864 75.9903 37.1973V37.1671C75.9903 36.8572 75.8836 36.6177 75.6703 36.4487C75.457 36.2796 75.1692 36.1951 74.807 36.1951C74.4166 36.1951 74.1027 36.2796 73.8653 36.4487C73.6278 36.6177 73.4769 36.8511 73.4125 37.149L70.6898 37.0524C70.7703 36.4889 70.9776 35.9858 71.3116 35.5431C71.6497 35.0964 72.1125 34.7463 72.7001 34.4927C73.2917 34.2351 74.0021 34.1063 74.8312 34.1063C75.4228 34.1063 75.9681 34.1768 76.4672 34.3176C76.9662 34.4545 77.4009 34.6557 77.7712 34.9213C78.1414 35.1829 78.4272 35.5049 78.6284 35.8872C78.8337 36.2696 78.9363 36.7063 78.9363 37.1973V43.4998H76.1593V42.2079H76.0868C75.9218 42.5218 75.7105 42.7875 75.453 43.0048C75.1994 43.2221 74.8996 43.3851 74.5535 43.4938C74.2114 43.6024 73.825 43.6568 73.3944 43.6568ZM74.306 41.725C74.6239 41.725 74.9096 41.6606 75.1632 41.5318C75.4208 41.403 75.626 41.2259 75.779 41.0005C75.9319 40.7711 76.0084 40.5055 76.0084 40.2036V39.3223C75.9239 39.3665 75.8212 39.4068 75.7005 39.443C75.5838 39.4792 75.455 39.5134 75.3141 39.5456C75.1733 39.5778 75.0284 39.606 74.8795 39.6301C74.7306 39.6543 74.5877 39.6764 74.4508 39.6965C74.1731 39.7408 73.9357 39.8092 73.7385 39.9018C73.5453 39.9944 73.3964 40.1151 73.2917 40.264C73.1911 40.4089 73.1408 40.582 73.1408 40.7832C73.1408 41.0891 73.2495 41.3225 73.4668 41.4835C73.6882 41.6445 73.9679 41.725 74.306 41.725ZM89.4043 34.2271L86.2229 43.4998H82.8422L79.6667 34.2271H82.7758L84.4842 40.6142H84.5808L86.2953 34.2271H89.4043ZM92.9012 43.6568C92.3096 43.6568 91.7844 43.5582 91.3256 43.361C90.8708 43.1597 90.5106 42.8579 90.245 42.4554C89.9834 42.0489 89.8526 41.5398 89.8526 40.9281C89.8526 40.4129 89.9431 39.9783 90.1242 39.6241C90.3053 39.2699 90.5549 38.9822 90.8728 38.7608C91.1907 38.5395 91.557 38.3724 91.9715 38.2598C92.3861 38.143 92.8288 38.0646 93.2996 38.0243C93.8269 37.976 94.2515 37.9257 94.5734 37.8734C94.8954 37.817 95.1288 37.7386 95.2737 37.638C95.4226 37.5333 95.4971 37.3864 95.4971 37.1973V37.1671C95.4971 36.8572 95.3904 36.6177 95.1771 36.4487C94.9638 36.2796 94.6761 36.1951 94.3138 36.1951C93.9235 36.1951 93.6095 36.2796 93.3721 36.4487C93.1346 36.6177 92.9837 36.8511 92.9193 37.149L90.1967 37.0524C90.2772 36.4889 90.4844 35.9858 90.8185 35.5431C91.1565 35.0964 91.6194 34.7463 92.207 34.4927C92.7986 34.2351 93.5089 34.1063 94.338 34.1063C94.9296 34.1063 95.475 34.1768 95.974 34.3176C96.4731 34.4545 96.9077 34.6557 97.278 34.9213C97.6482 35.1829 97.934 35.5049 98.1352 35.8872C98.3405 36.2696 98.4431 36.7063 98.4431 37.1973V43.4998H95.6661V42.2079H95.5937C95.4287 42.5218 95.2174 42.7875 94.9598 43.0048C94.7062 43.2221 94.4064 43.3851 94.0603 43.4938C93.7182 43.6024 93.3318 43.6568 92.9012 43.6568ZM93.8128 41.725C94.1307 41.725 94.4165 41.6606 94.67 41.5318C94.9276 41.403 95.1329 41.2259 95.2858 41.0005C95.4387 40.7711 95.5152 40.5055 95.5152 40.2036V39.3223C95.4307 39.3665 95.3281 39.4068 95.2073 39.443C95.0906 39.4792 94.9618 39.5134 94.821 39.5456C94.6801 39.5778 94.5352 39.606 94.3863 39.6301C94.2374 39.6543 94.0945 39.6764 93.9577 39.6965C93.68 39.7408 93.4425 39.8092 93.2453 39.9018C93.0521 39.9944 92.9032 40.1151 92.7986 40.264C92.698 40.4089 92.6477 40.582 92.6477 40.7832C92.6477 41.0891 92.7563 41.3225 92.9737 41.4835C93.195 41.6445 93.4747 41.725 93.8128 41.725ZM106.931 34.8429C106.891 34.4001 106.712 34.056 106.394 33.8105C106.08 33.561 105.631 33.4362 105.048 33.4362C104.661 33.4362 104.339 33.4866 104.082 33.5872C103.824 33.6878 103.631 33.8266 103.502 34.0037C103.373 34.1768 103.307 34.376 103.303 34.6014C103.295 34.7865 103.331 34.9495 103.412 35.0904C103.496 35.2312 103.617 35.356 103.774 35.4647C103.935 35.5693 104.128 35.6619 104.353 35.7424C104.579 35.8228 104.832 35.8933 105.114 35.9536L106.176 36.1951C106.788 36.3279 107.327 36.505 107.794 36.7264C108.265 36.9477 108.66 37.2113 108.978 37.5172C109.3 37.8231 109.543 38.1752 109.708 38.5737C109.873 38.9721 109.958 39.4188 109.962 39.9139C109.958 40.6947 109.76 41.3648 109.37 41.9242C108.98 42.4836 108.418 42.9122 107.686 43.21C106.957 43.5079 106.078 43.6568 105.048 43.6568C104.013 43.6568 103.112 43.5018 102.343 43.1919C101.574 42.882 100.977 42.4112 100.55 41.7793C100.123 41.1474 99.904 40.3485 99.892 39.3826H102.753C102.778 39.7811 102.884 40.1131 103.073 40.3787C103.263 40.6443 103.522 40.8456 103.852 40.9824C104.186 41.1192 104.573 41.1877 105.011 41.1877C105.414 41.1877 105.756 41.1333 106.038 41.0247C106.323 40.916 106.543 40.7651 106.696 40.5719C106.849 40.3787 106.927 40.1574 106.931 39.9078C106.927 39.6744 106.855 39.4752 106.714 39.3102C106.573 39.1411 106.356 38.9963 106.062 38.8755C105.772 38.7508 105.402 38.6361 104.951 38.5314L103.659 38.2296C102.588 37.9841 101.745 37.5876 101.13 37.0403C100.514 36.4889 100.208 35.7444 100.212 34.8066C100.208 34.042 100.413 33.3719 100.828 32.7963C101.242 32.2208 101.816 31.7721 102.548 31.4501C103.281 31.1281 104.116 30.9671 105.054 30.9671C106.011 30.9671 106.842 31.1301 107.547 31.4561C108.255 31.7781 108.804 32.2309 109.195 32.8144C109.585 33.398 109.784 34.0742 109.793 34.8429H106.931ZM115.799 43.6749C114.821 43.6749 113.982 43.4737 113.282 43.0712C112.586 42.6687 112.05 42.1093 111.676 41.3929C111.302 40.6725 111.115 39.8394 111.115 38.8936C111.115 37.9438 111.302 37.1107 111.676 36.3943C112.054 35.6739 112.592 35.1125 113.288 34.71C113.988 34.3076 114.823 34.1063 115.793 34.1063C116.65 34.1063 117.397 34.2613 118.033 34.5712C118.673 34.8811 119.172 35.3198 119.53 35.8872C119.892 36.4507 120.083 37.1127 120.104 37.8734H117.345C117.288 37.3985 117.127 37.0262 116.862 36.7566C116.6 36.4869 116.258 36.3521 115.836 36.3521C115.493 36.3521 115.194 36.4487 114.936 36.6419C114.678 36.831 114.477 37.1127 114.332 37.487C114.191 37.8573 114.121 38.3161 114.121 38.8635C114.121 39.4108 114.191 39.8736 114.332 40.2519C114.477 40.6262 114.678 40.91 114.936 41.1032C115.194 41.2923 115.493 41.3869 115.836 41.3869C116.109 41.3869 116.351 41.3285 116.56 41.2118C116.773 41.0951 116.948 40.9241 117.085 40.6987C117.222 40.4693 117.309 40.1916 117.345 39.8656H120.104C120.075 40.6303 119.884 41.2983 119.53 41.8698C119.18 42.4413 118.687 42.8861 118.051 43.204C117.419 43.5179 116.669 43.6749 115.799 43.6749ZM121.614 43.4998V34.2271H124.482V35.9174H124.578C124.748 35.3057 125.023 34.8509 125.406 34.5531C125.788 34.2512 126.233 34.1003 126.74 34.1003C126.877 34.1003 127.017 34.1104 127.162 34.1305C127.307 34.1466 127.442 34.1728 127.567 34.209V36.7747C127.426 36.7264 127.241 36.6881 127.011 36.66C126.786 36.6318 126.585 36.6177 126.408 36.6177C126.058 36.6177 125.742 36.6962 125.46 36.8532C125.182 37.0061 124.963 37.2214 124.802 37.4991C124.645 37.7728 124.566 38.0947 124.566 38.465V43.4998H121.614ZM128.77 43.4998V34.2271H131.722V43.4998H128.77ZM130.249 33.1465C129.834 33.1465 129.478 33.0096 129.18 32.736C128.882 32.4583 128.733 32.1242 128.733 31.7338C128.733 31.3475 128.882 31.0175 129.18 30.7438C129.478 30.4661 129.834 30.3272 130.249 30.3272C130.667 30.3272 131.023 30.4661 131.317 30.7438C131.615 31.0175 131.764 31.3475 131.764 31.7338C131.764 32.1242 131.615 32.4583 131.317 32.736C131.023 33.0096 130.667 33.1465 130.249 33.1465ZM133.601 46.9771V34.2271H136.523V35.8148H136.613C136.734 35.5331 136.905 35.2614 137.126 34.9998C137.352 34.7382 137.637 34.5249 137.983 34.3599C138.334 34.1909 138.752 34.1063 139.239 34.1063C139.883 34.1063 140.485 34.2754 141.044 34.6135C141.608 34.9515 142.062 35.4727 142.409 36.177C142.755 36.8813 142.928 37.7788 142.928 38.8695C142.928 39.9199 142.761 40.7993 142.427 41.5076C142.097 42.216 141.65 42.7472 141.086 43.1014C140.527 43.4555 139.905 43.6326 139.221 43.6326C138.754 43.6326 138.35 43.5562 138.008 43.4032C137.666 43.2503 137.378 43.0491 137.144 42.7995C136.915 42.55 136.738 42.2824 136.613 41.9966H136.553V46.9771H133.601ZM136.492 38.8635C136.492 39.3625 136.559 39.7972 136.692 40.1674C136.828 40.5377 137.024 40.8255 137.277 41.0307C137.535 41.2319 137.843 41.3326 138.201 41.3326C138.563 41.3326 138.871 41.2319 139.124 41.0307C139.378 40.8255 139.569 40.5377 139.698 40.1674C139.831 39.7972 139.897 39.3625 139.897 38.8635C139.897 38.3644 139.831 37.9318 139.698 37.5655C139.569 37.1993 139.378 36.9155 139.124 36.7143C138.875 36.5131 138.567 36.4125 138.201 36.4125C137.839 36.4125 137.531 36.5111 137.277 36.7083C137.024 36.9055 136.828 37.1872 136.692 37.5534C136.559 37.9197 136.492 38.3563 136.492 38.8635ZM149.709 34.2271V36.4004H143.859V34.2271H149.709ZM145.084 32.0055H148.036V40.584C148.036 40.7651 148.065 40.912 148.121 41.0247C148.181 41.1333 148.268 41.2118 148.381 41.2601C148.493 41.3044 148.628 41.3265 148.785 41.3265C148.898 41.3265 149.016 41.3165 149.141 41.2963C149.27 41.2722 149.367 41.2521 149.431 41.236L149.878 43.367C149.737 43.4072 149.538 43.4576 149.28 43.5179C149.027 43.5783 148.723 43.6165 148.369 43.6326C147.676 43.6648 147.083 43.5843 146.588 43.3911C146.097 43.1939 145.72 42.8881 145.459 42.4735C145.201 42.059 145.076 41.5378 145.084 40.91V32.0055Z" fill="#F7DF1E"/>
</g>
<rect x="1.04994" y="1.04982" width="160.9" height="53.9" rx="6.95" stroke="white" stroke-opacity="0.15" stroke-width="2.1"/>
<defs>
<filter id="filter0_d_2_848" x="6.28565" y="2.28553" width="51.4289" height="51.4286" filterUnits="userSpaceOnUse" color-interpolation-filters="sRGB">
<feFlood flood-opacity="0" result="BackgroundImageFix"/>
<feColorMatrix in="SourceAlpha" type="matrix" values="0 0 0 0 0 0 0 0 0 0 0 0 0 0 0 0 0 0 127 0" result="hardAlpha"/>
<feOffset/>
<feGaussianBlur stdDeviation="2.85714"/>
<feComposite in2="hardAlpha" operator="out"/>
<feColorMatrix type="matrix" values="0 0 0 0 0 0 0 0 0 0 0 0 0 0 0 0 0 0 0.25 0"/>
<feBlend mode="normal" in2="BackgroundImageFix" result="effect1_dropShadow_2_848"/>
<feBlend mode="normal" in="SourceGraphic" in2="effect1_dropShadow_2_848" result="shape"/>
</filter>
<filter id="filter1_d_2_848" x="54.3999" y="3.89982" width="102.2" height="48.6772" filterUnits="userSpaceOnUse" color-interpolation-filters="sRGB">
<feFlood flood-opacity="0" result="BackgroundImageFix"/>
<feColorMatrix in="SourceAlpha" type="matrix" values="0 0 0 0 0 0 0 0 0 0 0 0 0 0 0 0 0 0 127 0" result="hardAlpha"/>
<feOffset/>
<feGaussianBlur stdDeviation="2.8"/>
<feComposite in2="hardAlpha" operator="out"/>
<feColorMatrix type="matrix" values="0 0 0 0 0 0 0 0 0 0 0 0 0 0 0 0 0 0 0.25 0"/>
<feBlend mode="normal" in2="BackgroundImageFix" result="effect1_dropShadow_2_848"/>
<feBlend mode="normal" in="SourceGraphic" in2="effect1_dropShadow_2_848" result="shape"/>
</filter>
<linearGradient id="paint0_linear_2_848" x1="81.4999" y1="-0.000183105" x2="81.4999" y2="55.9998" gradientUnits="userSpaceOnUse">
<stop stop-color="#35300A"/>
<stop offset="1" stop-color="#232004"/>
</linearGradient>
</defs>
</svg>
