<svg width="144" height="56" viewBox="0 0 144 56" fill="none" xmlns="http://www.w3.org/2000/svg">
<g clip-path="url(#clip0_40_364)">
<rect x="-6.10352e-05" y="-0.000183105" width="144" height="56" rx="8" fill="url(#paint0_linear_40_364)"/>
<g filter="url(#filter0_d_40_364)">
<path d="M17.6521 46.6052C26.1758 48.0039 33.9535 47.6999 39.0535 46.7929C41.5971 46.3406 43.4972 45.7344 44.4883 45.1005C44.7376 44.941 44.9379 44.7746 45.0766 44.6011C45.2158 44.4273 45.3007 44.2363 45.2968 44.0339C45.289 43.6352 44.9489 43.3181 44.4174 43.0681L44.3723 43.0307H44.308H44.2973L44.2413 43.2898C44.194 43.3467 44.1939 43.3467 44.1939 43.3466L44.1943 43.347L44.2004 43.3525C44.2063 43.3579 44.2155 43.3665 44.2268 43.3782C44.2496 43.4017 44.2801 43.4363 44.31 43.4796C44.3712 43.5683 44.4203 43.6792 44.4142 43.7995C44.4084 43.9131 44.3515 44.0688 44.1339 44.2493C43.9126 44.4328 43.533 44.6343 42.9042 44.8277C40.5458 45.5363 35.5686 46.002 30.6332 46.0555C28.1689 46.0822 25.7224 46.0062 23.6275 45.8077C21.5267 45.6087 19.7987 45.2881 18.7591 44.8349L18.7583 44.8345C18.5832 44.7592 18.4987 44.6903 18.463 44.6411C18.4363 44.6043 18.4354 44.5791 18.4489 44.5447C18.4678 44.4969 18.5188 44.4303 18.6189 44.3497C18.7162 44.2713 18.8458 44.1909 18.9995 44.1113C19.619 43.7903 20.5399 43.5271 20.9798 43.458L20.9799 43.4584L20.9924 43.4556C21.4483 43.35 21.7978 43.2976 22.0316 43.2716C22.1485 43.2585 22.2365 43.2521 22.2945 43.2489C22.3235 43.2474 22.345 43.2466 22.3589 43.2462L22.3739 43.2459L22.377 43.2459L22.3773 43.2459H22.3774H22.3774H22.3775H22.3775H22.9445L22.4796 42.9209C22.2311 42.7473 21.864 42.6755 21.4564 42.6634C21.0422 42.6512 20.5574 42.7001 20.0494 42.7931C19.0334 42.9792 17.9011 43.3463 17.0137 43.7833C16.5705 44.0016 16.1808 44.2409 15.8962 44.4891C15.6186 44.7313 15.4082 45.0105 15.3935 45.3119C15.3778 45.6349 15.586 45.901 15.95 46.1059C16.3137 46.3106 16.8708 46.4789 17.6521 46.6052ZM17.6521 46.6052C17.652 46.6052 17.652 46.6052 17.6519 46.6051L17.6808 46.4289L17.6523 46.6052C17.6522 46.6052 17.6522 46.6052 17.6521 46.6052ZM27.1083 49.4594C24.6736 49.312 23.1952 49.0315 22.3182 48.7823C21.8693 48.6547 21.5765 48.535 21.3929 48.4446C21.301 48.3993 21.2363 48.3613 21.1929 48.3333C21.1711 48.3192 21.1547 48.3076 21.143 48.2989C21.1371 48.2945 21.1323 48.2908 21.1286 48.2879L21.1239 48.284L21.1221 48.2825L21.1213 48.2819L21.121 48.2816C21.1208 48.2814 21.1207 48.2813 21.2371 48.1459L21.1207 48.2813L20.6384 47.8664L21.2661 47.9697C26.0154 48.7514 34.1074 48.8958 40.6338 47.6837M27.1083 49.4594L40.6664 47.8593M27.1083 49.4594V49.4597L27.2753 49.4706C31.127 49.7216 35.9976 49.6501 39.9455 49.0571C41.918 48.7608 43.6719 48.3327 44.9553 47.743C46.2274 47.1585 47.0989 46.3853 47.1779 45.3687L46.8362 45.2895M27.1083 49.4594L46.9224 45.7473C46.9321 45.7375 46.9415 45.7279 46.9504 45.7184C47.0292 45.6354 47.0808 45.5667 47.1139 45.5158C47.1304 45.4903 47.1423 45.4693 47.1506 45.4533C47.1548 45.4453 47.158 45.4385 47.1605 45.4331L47.1637 45.4259L47.1649 45.423L47.1654 45.4218L47.1656 45.4212C47.1657 45.421 47.1658 45.4207 46.9999 45.3548M40.6338 47.6837L40.6664 47.8593M40.6338 47.6837C40.6338 47.6837 40.6338 47.6837 40.6338 47.6837L40.6664 47.8593M40.6338 47.6837C43.5049 47.1501 45.0671 46.529 45.9064 46.0502C46.3254 45.8111 46.5621 45.6088 46.6914 45.4725C46.756 45.4045 46.7939 45.3528 46.8144 45.3212C46.8247 45.3054 46.8307 45.2945 46.8335 45.289L46.8356 45.2848C46.8356 45.2848 46.8354 45.2852 46.8352 45.2858L46.8346 45.2871L46.8343 45.288L46.8341 45.2884C46.8341 45.2885 46.834 45.2886 46.8362 45.2895M40.6664 47.8593C44.817 47.0879 46.274 46.129 46.7645 45.6525C46.7944 45.5506 46.8136 45.4468 46.8218 45.341L46.9999 45.3548M46.8362 45.2895L46.8339 45.2889L46.9999 45.3548M46.8362 45.2895C46.8432 45.2925 46.8731 45.3045 46.9999 45.3548M25.8243 39.8567L25.8244 39.8566L25.8245 39.8565L25.8246 39.8565L26.3655 39.5257H25.7312H25.7298H25.7049L25.681 39.5325C24.8538 39.7677 24.273 40.0392 23.9216 40.3389C23.7445 40.49 23.6181 40.6546 23.5534 40.8329C23.4875 41.0144 23.4898 41.1988 23.5521 41.3764C23.6727 41.72 24.0108 42.0221 24.4654 42.2784C24.9273 42.5387 25.541 42.7695 26.2645 42.9553C29.1538 43.6975 33.9099 43.7511 38.113 41.9443L38.5229 41.7681L38.1046 41.6128C37.2975 41.3132 36.5215 40.9349 35.7878 40.4831L35.7286 40.4466L35.6603 40.4598C31.9767 41.1718 30.215 41.2415 26.8927 40.8156L26.8927 40.8155L26.8883 40.8151C26.2001 40.7441 25.8122 40.6305 25.6085 40.5151C25.5086 40.4586 25.4648 40.4081 25.446 40.3737C25.4292 40.3428 25.4261 40.3135 25.4336 40.2791C25.452 40.1948 25.5317 40.093 25.6375 39.9985C25.6864 39.9548 25.7341 39.9187 25.7696 39.8935C25.7872 39.881 25.8016 39.8714 25.8112 39.8651L25.8219 39.8582L25.8242 39.8567L25.8243 39.8567ZM24.8442 35.0529V34.6918L24.5773 34.8957C23.6884 35.199 23.0633 35.5125 22.6815 35.8314C22.2947 36.1545 22.1188 36.5221 22.2564 36.9001C22.3824 37.2463 22.7527 37.5284 23.2447 37.7573C23.7472 37.9911 24.42 38.1891 25.2196 38.3427C28.416 38.9565 33.765 38.8829 38.8089 37.3722L39.3456 37.2115L38.8149 37.032C38.1966 36.8229 37.6358 36.4706 37.1776 36.0034L37.1097 35.934L37.0145 35.9534C32.1236 36.9495 29.2956 36.8788 25.6799 36.5226C24.9947 36.4515 24.626 36.3165 24.4425 36.1786C24.3544 36.1124 24.3141 36.0495 24.2962 35.996C24.2782 35.9419 24.2779 35.8818 24.2956 35.8136C24.3331 35.6699 24.4435 35.5178 24.5613 35.3918C24.618 35.3312 24.6721 35.2812 24.712 35.2464C24.7269 35.2334 24.7398 35.2226 24.7498 35.2143L24.8442 35.1823V35.0543V35.0529ZM26.6609 30.1064L26.5976 29.9791L26.4761 30.0083L26.4758 30.0082C26.4512 30.007 26.4152 30.0055 26.3683 30.0043C26.2747 30.0018 26.1377 30.0004 25.9623 30.0043C25.6114 30.0122 25.1063 30.0416 24.485 30.1275C23.2424 30.2994 21.5336 30.6972 19.6636 31.6015L19.6636 31.6015L19.6622 31.6022C19.3829 31.7403 19.1686 31.8797 19.0236 32.0232C18.879 32.1662 18.785 32.3327 18.7967 32.5182C18.8084 32.7024 18.9213 32.8518 19.0677 32.9692C19.2151 33.0874 19.4178 33.191 19.6595 33.2833C20.6218 33.6508 22.3813 33.9042 24.4993 34.025C28.7445 34.2672 34.5296 33.9812 38.5034 32.9368L38.5306 32.9296L38.5542 32.9145C38.9373 32.6695 39.4108 32.4225 39.7914 32.2356C39.9811 32.1425 40.1466 32.0649 40.2645 32.0106C40.3235 31.9834 40.3705 31.9621 40.4027 31.9477L40.4396 31.9312L40.4489 31.927L40.4512 31.926L40.4518 31.9258L40.4519 31.9257L40.4519 31.9257L40.4519 31.9257L40.3487 31.5865L40.38 31.7623L40.3487 31.5865L40.3486 31.5865L40.3482 31.5866L40.3465 31.5869L40.3397 31.5881L40.3124 31.5928L40.2058 31.6114C40.1123 31.6275 39.975 31.6508 39.8001 31.6797C39.4505 31.7375 38.9508 31.8177 38.3512 31.9067C37.152 32.0849 35.5547 32.2985 33.9589 32.4414C30.0454 32.7266 25.864 32.7973 23.749 32.5134L23.7481 32.5133C23.1297 32.4335 22.7257 32.3365 22.4841 32.2339C22.363 32.1824 22.2959 32.135 22.2622 32.0987C22.2329 32.0674 22.2344 32.0519 22.235 32.0459L22.235 32.0458C22.2365 32.0315 22.247 31.9976 22.2953 31.9431C22.3424 31.89 22.4146 31.8298 22.5132 31.7642C22.7103 31.6331 22.9883 31.4968 23.3134 31.362C23.962 31.0932 24.7681 30.8426 25.4156 30.6586C25.7386 30.5668 26.0207 30.492 26.222 30.4401C26.3226 30.4141 26.403 30.394 26.4581 30.3803L26.5081 30.368L26.8013 30.3887L26.6623 30.1091L26.6609 30.1064ZM41.1619 30.6158L41.002 30.5363L40.7642 31.0145L41.2414 30.7757L41.2414 30.7757L41.2415 30.7756L41.2417 30.7756L41.2417 30.7756L41.2418 30.7755L41.2427 30.7751L41.2504 30.7715C41.2578 30.768 41.2698 30.7626 41.2865 30.7555C41.32 30.7413 41.3724 30.7202 41.4447 30.6946C41.5889 30.6434 41.8127 30.5739 42.1242 30.504C43.3199 30.2724 44.7779 31.0982 45.0077 32.4434C45.2346 33.7713 44.2781 35.7445 40.3362 37.8074H40.2672L40.2178 37.9059C40.187 37.9672 40.1571 38.0119 40.1361 38.04C40.1256 38.0541 40.1173 38.064 40.1123 38.0697L40.1074 38.0751L40.1074 38.0752C40.1071 38.0756 40.1069 38.0757 40.1071 38.0755L39.6466 38.5386L40.28 38.3731C42.9674 37.6709 44.7526 36.689 45.8313 35.6244C46.9124 34.5574 47.2864 33.4024 47.1294 32.3779C46.8153 30.3287 44.4228 28.9545 41.8185 29.8739C41.5325 29.9575 41.3297 30.1216 41.1996 30.2624C41.1339 30.3335 41.0858 30.3996 41.0536 30.4488C41.0374 30.4735 41.0252 30.4941 41.0167 30.5091C41.0124 30.5166 41.0091 30.5227 41.0066 30.5273L41.0036 30.5331L41.0027 30.535L41.0023 30.5357L41.0021 30.536L41.0021 30.5362C41.002 30.5363 41.002 30.5363 41.1619 30.6158ZM21.7987 48.2331C21.6964 48.1925 21.6147 48.1557 21.5506 48.1241C21.4702 48.0845 21.4176 48.0533 21.3868 48.0334C21.3714 48.0234 21.3614 48.0163 21.3562 48.0124L21.3519 48.0091L21.7987 48.2331Z" fill="#4E7896" stroke="#4E7896" stroke-width="0.357143"/>
<path d="M35.553 6.57135L35.6806 6.44644L35.2194 5.97532L35.3798 6.61478C35.8156 8.35277 35.6486 9.77642 35.1157 11.006C34.5808 12.2402 33.6718 13.2909 32.6035 14.2712C31.8895 14.9264 31.1144 15.5415 30.3377 16.158C29.948 16.4673 29.5579 16.7769 29.1749 17.0921C28.0361 18.0291 26.9689 19.0087 26.2241 20.1418C25.7052 20.9244 25.5026 21.7279 25.5622 22.5502C25.6216 23.3687 25.9397 24.1943 26.4423 25.0277C27.4451 26.6903 29.2079 28.4239 31.2352 30.2477L31.5183 30.0433C31.1559 29.2147 30.5965 28.4104 30.0422 27.6136C29.9848 27.5311 29.9274 27.4486 29.8704 27.3663C29.2567 26.4803 28.6723 25.5975 28.3476 24.662C28.0256 23.7339 27.9605 22.7566 28.3882 21.6768C28.8183 20.5907 29.7532 19.3844 31.4656 18.0176C35.7965 14.5984 36.8894 11.7245 36.8615 9.67276C36.8477 8.65079 36.5555 7.84725 36.2659 7.2986C36.1211 7.02436 35.9768 6.81347 35.8679 6.67024C35.8134 6.59859 35.7677 6.54378 35.7351 6.50632C35.7188 6.48759 35.7057 6.47319 35.6964 6.46319L35.6855 6.4515L35.6822 6.44813L35.6812 6.44708L35.6809 6.4467C35.6807 6.44656 35.6806 6.44644 35.553 6.57135ZM33.1534 27.2261L33.1542 27.227C33.6478 27.7916 33.8527 28.3331 33.8928 28.8245C33.933 29.3182 33.8079 29.776 33.6176 30.1716C33.4271 30.5675 33.1738 30.8956 32.9664 31.1257C32.8631 31.2404 32.7721 31.3298 32.7073 31.3901C32.675 31.4202 32.6493 31.443 32.6319 31.458L32.6125 31.4747L32.608 31.4785L32.6071 31.4792L32.6071 31.4792L32.607 31.4793C32.607 31.4793 32.607 31.4793 32.6076 31.4799L32.8018 31.7763L32.7199 31.6176C32.8018 31.7763 32.8019 31.7762 32.802 31.7762L32.8023 31.776L32.8032 31.7755L32.8065 31.7738L32.8186 31.7674C32.8291 31.7619 32.8444 31.7537 32.864 31.743C32.9033 31.7215 32.9601 31.6899 33.0312 31.6486C33.1733 31.566 33.3731 31.4446 33.6048 31.2883C34.0674 30.9763 34.6622 30.5226 35.182 29.9587C35.7006 29.3961 36.1547 28.7127 36.3173 27.9411C36.4815 27.1621 36.3443 26.3111 35.7125 25.4319C35.6109 25.2836 35.5109 25.1395 35.4134 24.9991C34.9762 24.3691 34.5896 23.8121 34.3297 23.2664C34.0161 22.6081 33.8991 21.9892 34.1084 21.3117C34.3207 20.6249 34.8763 19.8511 35.9722 18.9075C37.0664 17.9654 38.6835 16.8672 40.9931 15.5277L40.8601 15.2L40.9035 15.3732C40.8601 15.2 40.86 15.2 40.8599 15.2001L40.8592 15.2002L40.857 15.2008L40.8487 15.2029L40.8167 15.2112C40.7887 15.2185 40.7475 15.2294 40.6943 15.2439C40.5878 15.273 40.4331 15.3165 40.2389 15.3748C39.8506 15.4913 39.3042 15.6666 38.6706 15.9025C37.4051 16.3735 35.784 17.0885 34.3791 18.0621C32.9776 19.0332 31.7664 20.2787 31.3635 21.8189C30.9572 23.3722 31.3847 25.1752 33.1534 27.2261Z" fill="#F58219" stroke="#F58219" stroke-width="0.357143"/>
</g>
<g filter="url(#filter1_d_40_364)">
<path d="M61.2783 24.4998V12.8635H65.5397C66.3655 12.8635 67.0492 12.9998 67.5908 13.2725C68.1325 13.5415 68.5378 13.907 68.8068 14.3691C69.0757 14.8275 69.2102 15.3445 69.2102 15.9203C69.2102 16.4051 69.1211 16.8142 68.9431 17.1475C68.7651 17.4771 68.5265 17.7422 68.2272 17.943C67.9318 18.14 67.606 18.2839 67.2499 18.3748V18.4885C67.6363 18.5074 68.0132 18.6324 68.3806 18.8635C68.7518 19.0907 69.0586 19.4146 69.3011 19.835C69.5435 20.2555 69.6647 20.7669 69.6647 21.3691C69.6647 21.9638 69.5246 22.4979 69.2443 22.9714C68.9677 23.4411 68.5397 23.8142 67.9602 24.0907C67.3806 24.3634 66.6401 24.4998 65.7386 24.4998H61.2783ZM63.034 22.9941H65.5681C66.409 22.9941 67.0113 22.8313 67.3749 22.5055C67.7386 22.1797 67.9204 21.7725 67.9204 21.2839C67.9204 20.9165 67.8276 20.5794 67.642 20.2725C67.4564 19.9657 67.1912 19.7214 66.8465 19.5396C66.5056 19.3578 66.1003 19.2669 65.6306 19.2669H63.034V22.9941ZM63.034 17.8975H65.3863C65.7802 17.8975 66.1344 17.8218 66.4488 17.6703C66.767 17.5188 67.0189 17.3066 67.2045 17.0339C67.3939 16.7574 67.4886 16.4316 67.4886 16.0566C67.4886 15.5756 67.32 15.1722 66.9829 14.8464C66.6458 14.5206 66.1287 14.3578 65.4318 14.3578H63.034V17.8975ZM77.1391 20.8805V15.7725H78.8437V24.4998H77.1732V22.9884H77.0823C76.8816 23.4544 76.5596 23.8426 76.1164 24.1532C75.677 24.46 75.1297 24.6134 74.4744 24.6134C73.9138 24.6134 73.4175 24.4903 72.9857 24.2441C72.5577 23.9941 72.2206 23.6248 71.9744 23.1362C71.7319 22.6475 71.6107 22.0434 71.6107 21.3237V15.7725H73.3096V21.1191C73.3096 21.7138 73.4744 22.1873 73.8039 22.5396C74.1335 22.8919 74.5615 23.068 75.088 23.068C75.4062 23.068 75.7225 22.9884 76.0369 22.8294C76.355 22.6703 76.6183 22.4297 76.8266 22.1078C77.0388 21.7858 77.1429 21.3767 77.1391 20.8805ZM81.1264 24.4998V15.7725H82.8252V24.4998H81.1264ZM81.9843 14.426C81.6889 14.426 81.4351 14.3275 81.2229 14.1305C81.0146 13.9297 80.9104 13.6911 80.9104 13.4146C80.9104 13.1343 81.0146 12.8956 81.2229 12.6987C81.4351 12.4979 81.6889 12.3975 81.9843 12.3975C82.2798 12.3975 82.5317 12.4979 82.74 12.6987C82.9521 12.8956 83.0582 13.1343 83.0582 13.4146C83.0582 13.6911 82.9521 13.9297 82.74 14.1305C82.5317 14.3275 82.2798 14.426 81.9843 14.426ZM86.8096 12.8635V24.4998H85.1107V12.8635H86.8096ZM93.169 15.7725V17.1362H88.4019V15.7725H93.169ZM89.6803 13.6816H91.3792V21.9373C91.3792 22.2669 91.4284 22.515 91.5269 22.6816C91.6254 22.8445 91.7523 22.9563 91.9076 23.0169C92.0667 23.0737 92.239 23.1021 92.4246 23.1021C92.561 23.1021 92.6803 23.0926 92.7826 23.0737C92.8849 23.0547 92.9644 23.0396 93.0212 23.0282L93.3281 24.4316C93.2296 24.4695 93.0894 24.5074 92.9076 24.5453C92.7258 24.5869 92.4985 24.6097 92.2258 24.6134C91.7788 24.621 91.3621 24.5415 90.9758 24.3748C90.5894 24.2081 90.2769 23.9506 90.0383 23.6021C89.7996 23.2536 89.6803 22.8161 89.6803 22.2896V13.6816ZM101.175 24.4998L98.6065 15.7725H100.362L102.072 22.1816H102.158L103.874 15.7725H105.629L107.334 22.1532H107.419L109.118 15.7725H110.874L108.311 24.4998H106.578L104.805 18.1987H104.675L102.902 24.4998H101.175ZM112.486 24.4998V15.7725H114.185V24.4998H112.486ZM113.344 14.426C113.048 14.426 112.794 14.3275 112.582 14.1305C112.374 13.9297 112.27 13.6911 112.27 13.4146C112.27 13.1343 112.374 12.8956 112.582 12.6987C112.794 12.4979 113.048 12.3975 113.344 12.3975C113.639 12.3975 113.891 12.4979 114.099 12.6987C114.311 12.8956 114.418 13.1343 114.418 13.4146C114.418 13.6911 114.311 13.9297 114.099 14.1305C113.891 14.3275 113.639 14.426 113.344 14.426ZM120.544 15.7725V17.1362H115.777V15.7725H120.544ZM117.055 13.6816H118.754V21.9373C118.754 22.2669 118.803 22.515 118.902 22.6816C119 22.8445 119.127 22.9563 119.283 23.0169C119.442 23.0737 119.614 23.1021 119.8 23.1021C119.936 23.1021 120.055 23.0926 120.158 23.0737C120.26 23.0547 120.339 23.0396 120.396 23.0282L120.703 24.4316C120.605 24.4695 120.464 24.5074 120.283 24.5453C120.101 24.5869 119.874 24.6097 119.601 24.6134C119.154 24.621 118.737 24.5415 118.351 24.3748C117.964 24.2081 117.652 23.9506 117.413 23.6021C117.175 23.2536 117.055 22.8161 117.055 22.2896V13.6816ZM124.31 19.318V24.4998H122.611V12.8635H124.287V17.193H124.395C124.599 16.7233 124.912 16.3502 125.332 16.0737C125.753 15.7972 126.302 15.6589 126.98 15.6589C127.579 15.6589 128.101 15.782 128.548 16.0282C128.999 16.2744 129.347 16.6419 129.594 17.1305C129.844 17.6153 129.969 18.2214 129.969 18.9487V24.4998H128.27V19.1532C128.27 18.5131 128.105 18.0169 127.775 17.6646C127.446 17.3085 126.988 17.1305 126.4 17.1305C125.999 17.1305 125.639 17.2157 125.321 17.3862C125.007 17.5566 124.758 17.8066 124.577 18.1362C124.399 18.4619 124.31 18.8559 124.31 19.318Z" fill="#E8E8E8"/>
<path d="M65.9584 31.1362H68.9044V39.6845C68.9004 40.4854 68.7092 41.1857 68.3309 41.7853C67.9526 42.381 67.4294 42.8438 66.7613 43.1738C66.0972 43.5038 65.3285 43.6688 64.4552 43.6688C63.6825 43.6688 62.9802 43.534 62.3483 43.2644C61.7205 42.9947 61.2194 42.5762 60.8451 42.0087C60.4748 41.4412 60.2917 40.7148 60.2957 39.8294H63.272C63.284 40.1473 63.3444 40.419 63.4531 40.6443C63.5658 40.8657 63.7207 41.0327 63.9179 41.1454C64.1151 41.2581 64.3506 41.3144 64.6242 41.3144C64.91 41.3144 65.1515 41.2541 65.3487 41.1333C65.5459 41.0086 65.6948 40.8255 65.7954 40.584C65.9 40.3425 65.9544 40.0427 65.9584 39.6845V31.1362ZM73.3944 43.6568C72.8028 43.6568 72.2775 43.5582 71.8187 43.361C71.364 43.1597 71.0038 42.8579 70.7381 42.4554C70.4765 42.0489 70.3457 41.5398 70.3457 40.9281C70.3457 40.4129 70.4363 39.9783 70.6174 39.6241C70.7985 39.2699 71.048 38.9822 71.366 38.7608C71.6839 38.5395 72.0502 38.3724 72.4647 38.2598C72.8792 38.143 73.3219 38.0646 73.7928 38.0243C74.32 37.976 74.7446 37.9257 75.0666 37.8734C75.3886 37.817 75.622 37.7386 75.7669 37.638C75.9158 37.5333 75.9903 37.3864 75.9903 37.1973V37.1671C75.9903 36.8572 75.8836 36.6177 75.6703 36.4487C75.457 36.2796 75.1692 36.1951 74.807 36.1951C74.4166 36.1951 74.1027 36.2796 73.8653 36.4487C73.6278 36.6177 73.4769 36.8511 73.4125 37.149L70.6898 37.0524C70.7703 36.4889 70.9776 35.9858 71.3116 35.5431C71.6497 35.0964 72.1125 34.7463 72.7001 34.4927C73.2917 34.2351 74.0021 34.1063 74.8312 34.1063C75.4228 34.1063 75.9681 34.1768 76.4672 34.3176C76.9662 34.4545 77.4009 34.6557 77.7712 34.9213C78.1414 35.1829 78.4272 35.5049 78.6284 35.8872C78.8337 36.2696 78.9363 36.7063 78.9363 37.1973V43.4998H76.1593V42.2079H76.0868C75.9218 42.5218 75.7105 42.7875 75.453 43.0048C75.1994 43.2221 74.8996 43.3851 74.5535 43.4938C74.2114 43.6024 73.825 43.6568 73.3944 43.6568ZM74.306 41.725C74.6239 41.725 74.9096 41.6606 75.1632 41.5318C75.4208 41.403 75.626 41.2259 75.779 41.0005C75.9319 40.7711 76.0084 40.5055 76.0084 40.2036V39.3223C75.9239 39.3665 75.8212 39.4068 75.7005 39.443C75.5838 39.4792 75.455 39.5134 75.3141 39.5456C75.1733 39.5778 75.0284 39.606 74.8795 39.6301C74.7306 39.6543 74.5877 39.6764 74.4508 39.6965C74.1731 39.7408 73.9357 39.8092 73.7385 39.9018C73.5453 39.9944 73.3964 40.1151 73.2917 40.264C73.1911 40.4089 73.1408 40.582 73.1408 40.7832C73.1408 41.0891 73.2495 41.3225 73.4668 41.4835C73.6882 41.6445 73.9679 41.725 74.306 41.725ZM89.4043 34.2271L86.2229 43.4998H82.8422L79.6667 34.2271H82.7758L84.4842 40.6142H84.5808L86.2953 34.2271H89.4043ZM92.9012 43.6568C92.3096 43.6568 91.7844 43.5582 91.3256 43.361C90.8708 43.1597 90.5106 42.8579 90.245 42.4554C89.9834 42.0489 89.8526 41.5398 89.8526 40.9281C89.8526 40.4129 89.9431 39.9783 90.1242 39.6241C90.3053 39.2699 90.5549 38.9822 90.8728 38.7608C91.1907 38.5395 91.557 38.3724 91.9715 38.2598C92.3861 38.143 92.8288 38.0646 93.2996 38.0243C93.8269 37.976 94.2515 37.9257 94.5734 37.8734C94.8954 37.817 95.1288 37.7386 95.2737 37.638C95.4226 37.5333 95.4971 37.3864 95.4971 37.1973V37.1671C95.4971 36.8572 95.3904 36.6177 95.1771 36.4487C94.9638 36.2796 94.6761 36.1951 94.3138 36.1951C93.9235 36.1951 93.6095 36.2796 93.3721 36.4487C93.1346 36.6177 92.9837 36.8511 92.9193 37.149L90.1967 37.0524C90.2772 36.4889 90.4844 35.9858 90.8185 35.5431C91.1565 35.0964 91.6194 34.7463 92.207 34.4927C92.7986 34.2351 93.5089 34.1063 94.338 34.1063C94.9296 34.1063 95.475 34.1768 95.974 34.3176C96.4731 34.4545 96.9077 34.6557 97.278 34.9213C97.6482 35.1829 97.934 35.5049 98.1352 35.8872C98.3405 36.2696 98.4431 36.7063 98.4431 37.1973V43.4998H95.6661V42.2079H95.5937C95.4287 42.5218 95.2174 42.7875 94.9598 43.0048C94.7062 43.2221 94.4064 43.3851 94.0603 43.4938C93.7182 43.6024 93.3318 43.6568 92.9012 43.6568ZM93.8128 41.725C94.1307 41.725 94.4165 41.6606 94.67 41.5318C94.9276 41.403 95.1329 41.2259 95.2858 41.0005C95.4387 40.7711 95.5152 40.5055 95.5152 40.2036V39.3223C95.4307 39.3665 95.3281 39.4068 95.2073 39.443C95.0906 39.4792 94.9618 39.5134 94.821 39.5456C94.6801 39.5778 94.5352 39.606 94.3863 39.6301C94.2374 39.6543 94.0945 39.6764 93.9577 39.6965C93.68 39.7408 93.4425 39.8092 93.2453 39.9018C93.0521 39.9944 92.9032 40.1151 92.7986 40.264C92.698 40.4089 92.6477 40.582 92.6477 40.7832C92.6477 41.0891 92.7563 41.3225 92.9737 41.4835C93.195 41.6445 93.4747 41.725 93.8128 41.725ZM109.593 31.1362V43.4998H106.611V33.9252H106.539L103.774 35.6156V33.0318L106.822 31.1362H109.593ZM112.852 43.4998L117.838 33.6234V33.5449H112.007V31.1362H120.929V33.563L115.925 43.4998H112.852Z" fill="#F58219"/>
</g>
</g>
<rect x="1.04994" y="1.04982" width="141.9" height="53.9" rx="6.95" stroke="white" stroke-opacity="0.15" stroke-width="2.1"/>
<defs>
<filter id="filter0_d_40_364" x="6.28565" y="-0.335013" width="51.4286" height="55.8349" filterUnits="userSpaceOnUse" color-interpolation-filters="sRGB">
<feFlood flood-opacity="0" result="BackgroundImageFix"/>
<feColorMatrix in="SourceAlpha" type="matrix" values="0 0 0 0 0 0 0 0 0 0 0 0 0 0 0 0 0 0 127 0" result="hardAlpha"/>
<feOffset/>
<feGaussianBlur stdDeviation="2.85714"/>
<feComposite in2="hardAlpha" operator="out"/>
<feColorMatrix type="matrix" values="0 0 0 0 0 0 0 0 0 0 0 0 0 0 0 0 0 0 0.25 0"/>
<feBlend mode="normal" in2="BackgroundImageFix" result="effect1_dropShadow_40_364"/>
<feBlend mode="normal" in="SourceGraphic" in2="effect1_dropShadow_40_364" result="shape"/>
</filter>
<filter id="filter1_d_40_364" x="54.3999" y="3.89982" width="83.2" height="48.2" filterUnits="userSpaceOnUse" color-interpolation-filters="sRGB">
<feFlood flood-opacity="0" result="BackgroundImageFix"/>
<feColorMatrix in="SourceAlpha" type="matrix" values="0 0 0 0 0 0 0 0 0 0 0 0 0 0 0 0 0 0 127 0" result="hardAlpha"/>
<feOffset/>
<feGaussianBlur stdDeviation="2.8"/>
<feComposite in2="hardAlpha" operator="out"/>
<feColorMatrix type="matrix" values="0 0 0 0 0 0 0 0 0 0 0 0 0 0 0 0 0 0 0.25 0"/>
<feBlend mode="normal" in2="BackgroundImageFix" result="effect1_dropShadow_40_364"/>
<feBlend mode="normal" in="SourceGraphic" in2="effect1_dropShadow_40_364" result="shape"/>
</filter>
<linearGradient id="paint0_linear_40_364" x1="71.9999" y1="-0.000183105" x2="71.9999" y2="55.9998" gradientUnits="userSpaceOnUse">
<stop stop-color="#2F1A07"/>
<stop offset="1" stop-color="#111A21"/>
</linearGradient>
<clipPath id="clip0_40_364">
<rect x="-6.10352e-05" y="-0.000183105" width="144" height="56" rx="8" fill="white"/>
</clipPath>
</defs>
</svg>
