<svg width="144" height="56" viewBox="0 0 144 56" fill="none" xmlns="http://www.w3.org/2000/svg">
<rect x="-6.10352e-05" y="-9.15527e-05" width="144" height="56" rx="8" fill="url(#paint0_linear_40_80)"/>
<g filter="url(#filter0_d_40_80)">
<path d="M16.7034 44.7561C16.0962 44.4957 15.5455 44.1372 15.0566 43.6827C13.0268 41.7922 12.8068 38.7932 14.439 36.8079L14.417 36.7868L14.7331 36.4833L39.7275 11.9031C40.1007 11.5386 40.4674 10.4523 40.6296 9.82824C40.6615 9.67677 40.715 9.55204 40.8125 9.44035L40.8426 9.40858L40.8636 9.38845L40.8686 9.37697L40.8977 9.35252C41.2916 8.9541 41.9918 8.96874 42.9655 9.38626C44.1399 9.88983 45.6131 10.9296 47.0136 12.2354C48.1883 13.3356 49.1863 14.5058 49.8046 15.5209C50.5383 16.7098 50.6728 17.5525 50.1938 18.0193L50.108 18.07L50.0695 18.0826C49.9481 18.1491 49.828 18.2122 49.6917 18.2412C48.953 18.451 47.8413 18.8758 47.5609 19.1636L22.2725 44.1112L22.2488 44.0894C20.7197 45.2756 18.6107 45.5545 16.7129 44.7485L16.7024 44.744L16.7034 44.7561ZM15.5038 37.0177L15.4337 37.0848C13.8085 38.7214 13.9169 41.4026 15.6899 43.0585C16.0889 43.4336 16.543 43.7236 17.042 43.9376C18.7364 44.6641 20.647 44.3467 21.9156 43.1129L22.0056 43.033L46.8795 18.5508C47.4088 18.02 49.0631 17.5053 49.3901 17.4124L49.4293 17.3981C49.4608 17.3825 49.4747 17.3885 49.4853 17.3638C49.5275 17.2654 49.5689 16.8751 48.9673 15.8885C48.3848 14.9393 47.4603 13.8434 46.3522 12.8145C45.0684 11.6267 43.6464 10.607 42.5994 10.158C41.9189 9.86622 41.6274 9.90053 41.5598 9.95703L41.5316 10.0227C41.4864 10.2053 41.0598 11.8313 40.4061 12.4836L15.5059 37.0128L15.5038 37.0177ZM39.2191 24.8293C39.2191 24.8293 36.7565 25.9281 34.9412 25.9268C33.1255 25.9216 32.067 25.2636 30.3609 25.4317C28.6597 25.5979 27.5116 26.353 27.5116 26.353L16.0169 37.671C14.7453 38.9599 14.8674 41.1612 16.2769 42.4845C17.6924 43.8084 19.921 43.814 21.2289 42.5561L39.2191 24.8293ZM23.5878 37.527C23.7981 37.5375 23.9804 37.6954 23.9781 37.8984C23.9782 38.1005 23.8219 38.2627 23.6091 38.2531C23.3973 38.2458 23.2165 38.0847 23.2181 37.8834C23.2131 37.6927 23.3701 37.5289 23.5878 37.527ZM23.0866 33.8109C22.7735 33.8087 22.5038 33.561 22.5029 33.2594C22.4878 32.9576 22.738 32.7113 23.051 32.7231C23.369 32.7235 23.6356 32.9738 23.6379 33.272C23.6614 33.5736 23.4308 33.7933 23.0929 33.7961L23.0866 33.8109ZM24.357 32.2261C24.345 31.6614 24.7954 31.2037 25.3912 31.1968C25.9758 31.2066 26.4643 31.657 26.4993 32.2258C26.5071 32.7906 26.0602 33.2499 25.4693 33.2549C24.8571 33.2372 24.3717 32.7842 24.335 32.2147L24.357 32.2261ZM30.1793 30.3355C30.4983 30.3286 30.7638 30.5862 30.7682 30.8795C30.782 31.1846 30.5317 31.431 30.2204 31.4199C29.9007 31.4188 29.6324 31.1677 29.6333 30.8669C29.6111 30.5621 29.8683 30.3188 30.1814 30.3306L30.1793 30.3355ZM28.8935 27.1049C29.1063 27.1145 29.2879 27.274 29.2838 27.4762C29.2856 27.6791 29.1247 27.8471 28.9151 27.835C28.7041 27.8261 28.5207 27.6658 28.5259 27.466C28.5237 27.2591 28.6961 27.0979 28.8935 27.1049ZM42.5768 11.4346C42.935 11.081 44.4235 11.9117 45.8989 13.2982C47.3719 14.6759 48.2762 16.0837 47.9198 16.438C47.5525 16.7935 46.0647 15.9612 44.5924 14.5818C43.1097 13.198 42.2071 11.7909 42.5723 11.4307L42.5775 11.4329L42.5768 11.4346Z" fill="#FF0000"/>
</g>
<g filter="url(#filter1_d_40_80)">
<path d="M61.2783 24.4999V12.8635H65.5397C66.3655 12.8635 67.0492 12.9999 67.5908 13.2726C68.1325 13.5416 68.5378 13.9071 68.8068 14.3692C69.0757 14.8276 69.2102 15.3446 69.2102 15.9204C69.2102 16.4052 69.1211 16.8143 68.9431 17.1476C68.7651 17.4772 68.5265 17.7423 68.2272 17.9431C67.9318 18.1401 67.606 18.284 67.2499 18.3749V18.4885C67.6363 18.5075 68.0132 18.6325 68.3806 18.8635C68.7518 19.0908 69.0586 19.4147 69.3011 19.8351C69.5435 20.2556 69.6647 20.767 69.6647 21.3692C69.6647 21.9639 69.5246 22.498 69.2443 22.9715C68.9677 23.4412 68.5397 23.8143 67.9602 24.0908C67.3806 24.3635 66.6401 24.4999 65.7386 24.4999H61.2783ZM63.034 22.9942H65.5681C66.409 22.9942 67.0113 22.8313 67.3749 22.5056C67.7386 22.1798 67.9204 21.7726 67.9204 21.284C67.9204 20.9166 67.8276 20.5795 67.642 20.2726C67.4564 19.9658 67.1912 19.7215 66.8465 19.5397C66.5056 19.3579 66.1003 19.267 65.6306 19.267H63.034V22.9942ZM63.034 17.8976H65.3863C65.7802 17.8976 66.1344 17.8219 66.4488 17.6704C66.767 17.5188 67.0189 17.3067 67.2045 17.034C67.3939 16.7575 67.4886 16.4317 67.4886 16.0567C67.4886 15.5757 67.32 15.1723 66.9829 14.8465C66.6458 14.5207 66.1287 14.3579 65.4318 14.3579H63.034V17.8976ZM77.1391 20.8806V15.7726H78.8437V24.4999H77.1732V22.9885H77.0823C76.8816 23.4544 76.5596 23.8427 76.1164 24.1533C75.677 24.4601 75.1297 24.6135 74.4744 24.6135C73.9138 24.6135 73.4175 24.4904 72.9857 24.2442C72.5577 23.9942 72.2206 23.6249 71.9744 23.1363C71.7319 22.6476 71.6107 22.0435 71.6107 21.3238V15.7726H73.3096V21.1192C73.3096 21.7139 73.4744 22.1874 73.8039 22.5397C74.1335 22.8919 74.5615 23.0681 75.088 23.0681C75.4062 23.0681 75.7225 22.9885 76.0369 22.8294C76.355 22.6704 76.6183 22.4298 76.8266 22.1079C77.0388 21.7859 77.1429 21.3768 77.1391 20.8806ZM81.1264 24.4999V15.7726H82.8252V24.4999H81.1264ZM81.9843 14.426C81.6889 14.426 81.4351 14.3276 81.2229 14.1306C81.0146 13.9298 80.9104 13.6912 80.9104 13.4147C80.9104 13.1344 81.0146 12.8957 81.2229 12.6988C81.4351 12.498 81.6889 12.3976 81.9843 12.3976C82.2798 12.3976 82.5317 12.498 82.74 12.6988C82.9521 12.8957 83.0582 13.1344 83.0582 13.4147C83.0582 13.6912 82.9521 13.9298 82.74 14.1306C82.5317 14.3276 82.2798 14.426 81.9843 14.426ZM86.8096 12.8635V24.4999H85.1107V12.8635H86.8096ZM93.169 15.7726V17.1363H88.4019V15.7726H93.169ZM89.6803 13.6817H91.3792V21.9374C91.3792 22.2669 91.4284 22.5151 91.5269 22.6817C91.6254 22.8446 91.7523 22.9563 91.9076 23.0169C92.0667 23.0738 92.239 23.1022 92.4246 23.1022C92.561 23.1022 92.6803 23.0927 92.7826 23.0738C92.8849 23.0548 92.9644 23.0397 93.0212 23.0283L93.3281 24.4317C93.2296 24.4696 93.0894 24.5075 92.9076 24.5454C92.7258 24.587 92.4985 24.6098 92.2258 24.6135C91.7788 24.6211 91.3621 24.5416 90.9758 24.3749C90.5894 24.2082 90.2769 23.9507 90.0383 23.6022C89.7996 23.2537 89.6803 22.8162 89.6803 22.2897V13.6817ZM101.175 24.4999L98.6065 15.7726H100.362L102.072 22.1817H102.158L103.874 15.7726H105.629L107.334 22.1533H107.419L109.118 15.7726H110.874L108.311 24.4999H106.578L104.805 18.1988H104.675L102.902 24.4999H101.175ZM112.486 24.4999V15.7726H114.185V24.4999H112.486ZM113.344 14.426C113.048 14.426 112.794 14.3276 112.582 14.1306C112.374 13.9298 112.27 13.6912 112.27 13.4147C112.27 13.1344 112.374 12.8957 112.582 12.6988C112.794 12.498 113.048 12.3976 113.344 12.3976C113.639 12.3976 113.891 12.498 114.099 12.6988C114.311 12.8957 114.418 13.1344 114.418 13.4147C114.418 13.6912 114.311 13.9298 114.099 14.1306C113.891 14.3276 113.639 14.426 113.344 14.426ZM120.544 15.7726V17.1363H115.777V15.7726H120.544ZM117.055 13.6817H118.754V21.9374C118.754 22.2669 118.803 22.5151 118.902 22.6817C119 22.8446 119.127 22.9563 119.283 23.0169C119.442 23.0738 119.614 23.1022 119.8 23.1022C119.936 23.1022 120.055 23.0927 120.158 23.0738C120.26 23.0548 120.339 23.0397 120.396 23.0283L120.703 24.4317C120.605 24.4696 120.464 24.5075 120.283 24.5454C120.101 24.587 119.874 24.6098 119.601 24.6135C119.154 24.6211 118.737 24.5416 118.351 24.3749C117.964 24.2082 117.652 23.9507 117.413 23.6022C117.175 23.2537 117.055 22.8162 117.055 22.2897V13.6817ZM124.31 19.3181V24.4999H122.611V12.8635H124.287V17.1931H124.395C124.599 16.7234 124.912 16.3503 125.332 16.0738C125.753 15.7973 126.302 15.659 126.98 15.659C127.579 15.659 128.101 15.7821 128.548 16.0283C128.999 16.2745 129.347 16.642 129.594 17.1306C129.844 17.6154 129.969 18.2215 129.969 18.9488V24.4999H128.27V19.1533C128.27 18.5132 128.105 18.017 127.775 17.6647C127.446 17.3086 126.988 17.1306 126.4 17.1306C125.999 17.1306 125.639 17.2158 125.321 17.3863C125.007 17.5567 124.758 17.8067 124.577 18.1363C124.399 18.462 124.31 18.856 124.31 19.3181Z" fill="#E8E8E8"/>
<path d="M65.9584 31.1363H68.9044V39.6846C68.9004 40.4855 68.7092 41.1857 68.3309 41.7854C67.9526 42.3811 67.4294 42.8439 66.7613 43.1739C66.0972 43.5039 65.3285 43.6689 64.4552 43.6689C63.6825 43.6689 62.9802 43.5341 62.3483 43.2645C61.7205 42.9948 61.2194 42.5763 60.8451 42.0088C60.4748 41.4413 60.2917 40.7149 60.2957 39.8295H63.272C63.284 40.1474 63.3444 40.4191 63.4531 40.6444C63.5658 40.8658 63.7207 41.0328 63.9179 41.1455C64.1151 41.2582 64.3506 41.3145 64.6242 41.3145C64.91 41.3145 65.1515 41.2542 65.3487 41.1334C65.5459 41.0087 65.6948 40.8255 65.7954 40.5841C65.9 40.3426 65.9544 40.0428 65.9584 39.6846V31.1363ZM75.1149 43.675C74.145 43.675 73.3078 43.4838 72.6035 43.1015C71.9033 42.7151 71.364 42.1657 70.9856 41.4534C70.6114 40.737 70.4242 39.8858 70.4242 38.8998C70.4242 37.9419 70.6134 37.1048 70.9917 36.3884C71.37 35.668 71.9033 35.1086 72.5915 34.7101C73.2797 34.3077 74.0906 34.1064 75.0243 34.1064C75.6844 34.1064 76.2881 34.2091 76.8354 34.4143C77.3828 34.6196 77.8557 34.9234 78.2541 35.3259C78.6525 35.7284 78.9624 36.2254 79.1838 36.817C79.4051 37.4046 79.5158 38.0787 79.5158 38.8394V39.5759H71.4565V37.8614H76.769C76.765 37.5475 76.6905 37.2678 76.5457 37.0223C76.4008 36.7768 76.2016 36.5856 75.948 36.4488C75.6985 36.3079 75.4107 36.2375 75.0847 36.2375C74.7547 36.2375 74.4589 36.3119 74.1973 36.4608C73.9357 36.6057 73.7284 36.8049 73.5755 37.0585C73.4225 37.308 73.3421 37.5918 73.334 37.9097V39.6544C73.334 40.0327 73.4085 40.3647 73.5574 40.6505C73.7063 40.9322 73.9176 41.1515 74.1913 41.3085C74.4649 41.4655 74.7909 41.5439 75.1692 41.5439C75.4308 41.5439 75.6683 41.5077 75.8816 41.4353C76.0949 41.3628 76.278 41.2562 76.431 41.1153C76.5839 40.9745 76.6986 40.8014 76.7751 40.5961L79.4856 40.6746C79.373 41.2823 79.1254 41.8116 78.7431 42.2623C78.3648 42.7091 77.8677 43.0572 77.252 43.3067C76.6362 43.5522 75.9239 43.675 75.1149 43.675ZM83.6858 41.067L83.6979 37.5475H84.1084L86.7164 34.2272H90.0608L86.1851 38.9843H85.4064L83.6858 41.067ZM81.0235 43.4999V31.1363H83.9756V43.4999H81.0235ZM86.7828 43.4999L84.3559 39.6483L86.2998 37.5535L90.1936 43.4999H86.7828ZM93.1216 46.9772C92.7674 46.9772 92.4333 46.949 92.1194 46.8927C91.8055 46.8403 91.5359 46.7699 91.3105 46.6814L91.9625 44.5383C92.2522 44.6348 92.5138 44.6912 92.7473 44.7073C92.9847 44.7234 93.188 44.6852 93.357 44.5926C93.5301 44.504 93.6629 44.3451 93.7554 44.1157L93.8701 43.838L90.574 34.2272H93.6649L95.3733 40.8437H95.4699L97.2025 34.2272H100.312L96.8162 44.3873C96.6471 44.8944 96.4077 45.3412 96.0978 45.7275C95.7919 46.1179 95.3955 46.4238 94.9085 46.6451C94.4255 46.8665 93.8299 46.9772 93.1216 46.9772ZM104.396 31.1363V43.4999H101.443V31.1363H104.396ZM109.227 31.1363V43.4999H106.275V31.1363H109.227Z" fill="#FF0000"/>
</g>
<rect x="1.04994" y="1.04991" width="141.9" height="53.9" rx="6.95" stroke="white" stroke-opacity="0.15" stroke-width="2.1"/>
<defs>
<filter id="filter0_d_40_80" x="6.28565" y="2.28562" width="51.4286" height="51.4286" filterUnits="userSpaceOnUse" color-interpolation-filters="sRGB">
<feFlood flood-opacity="0" result="BackgroundImageFix"/>
<feColorMatrix in="SourceAlpha" type="matrix" values="0 0 0 0 0 0 0 0 0 0 0 0 0 0 0 0 0 0 127 0" result="hardAlpha"/>
<feOffset/>
<feGaussianBlur stdDeviation="2.85714"/>
<feComposite in2="hardAlpha" operator="out"/>
<feColorMatrix type="matrix" values="0 0 0 0 0 0 0 0 0 0 0 0 0 0 0 0 0 0 0.25 0"/>
<feBlend mode="normal" in2="BackgroundImageFix" result="effect1_dropShadow_40_80"/>
<feBlend mode="normal" in="SourceGraphic" in2="effect1_dropShadow_40_80" result="shape"/>
</filter>
<filter id="filter1_d_40_80" x="54.3999" y="3.89991" width="83.2" height="48.6773" filterUnits="userSpaceOnUse" color-interpolation-filters="sRGB">
<feFlood flood-opacity="0" result="BackgroundImageFix"/>
<feColorMatrix in="SourceAlpha" type="matrix" values="0 0 0 0 0 0 0 0 0 0 0 0 0 0 0 0 0 0 127 0" result="hardAlpha"/>
<feOffset/>
<feGaussianBlur stdDeviation="2.8"/>
<feComposite in2="hardAlpha" operator="out"/>
<feColorMatrix type="matrix" values="0 0 0 0 0 0 0 0 0 0 0 0 0 0 0 0 0 0 0.25 0"/>
<feBlend mode="normal" in2="BackgroundImageFix" result="effect1_dropShadow_40_80"/>
<feBlend mode="normal" in="SourceGraphic" in2="effect1_dropShadow_40_80" result="shape"/>
</filter>
<linearGradient id="paint0_linear_40_80" x1="71.9999" y1="-9.15527e-05" x2="71.9999" y2="55.9999" gradientUnits="userSpaceOnUse">
<stop stop-color="#360A0A"/>
<stop offset="1" stop-color="#1E0505"/>
</linearGradient>
</defs>
</svg>
