<svg width="119" height="40" viewBox="0 0 119 40" fill="none" xmlns="http://www.w3.org/2000/svg">
<rect x="-6.10352e-05" y="-4.57764e-05" width="119" height="40" rx="6" fill="url(#paint0_linear_40_69)"/>
<g filter="url(#filter0_d_40_69)">
<path d="M12.4999 29.3801V10.75H18.0172L23.5344 17.5993L29.0517 10.75H34.5689V26.0924H36.4999L31.8103 30.75L27.1206 26.0924H29.0517V18.6952L23.5344 25.5445L18.0172 18.6952V29.3801H12.4999Z" fill="white"/>
</g>
<g filter="url(#filter1_d_40_69)">
<path d="M46.8788 18V9.99995H49.8085C50.3762 9.99995 50.8463 10.0937 51.2187 10.2812C51.5911 10.4661 51.8697 10.7174 52.0546 11.0351C52.2395 11.3502 52.332 11.7057 52.332 12.1015C52.332 12.4348 52.2708 12.7161 52.1484 12.9453C52.026 13.1718 51.8619 13.3541 51.6562 13.4921C51.4531 13.6276 51.2291 13.7265 50.9843 13.789V13.8671C51.2499 13.8802 51.5091 13.9661 51.7617 14.125C52.0169 14.2812 52.2278 14.5039 52.3945 14.7929C52.5611 15.082 52.6445 15.4335 52.6445 15.8476C52.6445 16.2565 52.5481 16.6236 52.3554 16.9492C52.1653 17.2721 51.871 17.5286 51.4726 17.7187C51.0742 17.9062 50.565 18 49.9453 18H46.8788ZM48.0859 16.9648H49.8281C50.4062 16.9648 50.8203 16.8528 51.0702 16.6289C51.3203 16.4049 51.4453 16.125 51.4453 15.789C51.4453 15.5364 51.3814 15.3046 51.2538 15.0937C51.1262 14.8828 50.9439 14.7148 50.707 14.5898C50.4726 14.4648 50.1939 14.4023 49.871 14.4023H48.0859V16.9648ZM48.0859 13.4609H49.7031C49.9739 13.4609 50.2174 13.4088 50.4335 13.3046C50.6523 13.2005 50.8255 13.0546 50.9531 12.8671C51.0833 12.677 51.1484 12.4531 51.1484 12.1953C51.1484 11.8645 51.0325 11.5872 50.8007 11.3632C50.5689 11.1393 50.2135 11.0273 49.7343 11.0273H48.0859V13.4609ZM57.7831 15.5117V12H58.955V18H57.8066V16.9609H57.7441C57.6061 17.2812 57.3847 17.5481 57.08 17.7617C56.7779 17.9726 56.4016 18.0781 55.9511 18.0781C55.5657 18.0781 55.2245 17.9934 54.9277 17.8242C54.6334 17.6523 54.4016 17.3984 54.2324 17.0625C54.0657 16.7265 53.9824 16.3111 53.9824 15.8164V12H55.1503V15.6757C55.1503 16.0846 55.2636 16.4101 55.4902 16.6523C55.7167 16.8945 56.011 17.0156 56.373 17.0156C56.5917 17.0156 56.8092 16.9609 57.0253 16.8515C57.2441 16.7421 57.4251 16.5768 57.5683 16.3554C57.7141 16.1341 57.7857 15.8528 57.7831 15.5117ZM60.5243 18V12H61.6923V18H60.5243ZM61.1142 11.0742C60.9111 11.0742 60.7366 11.0065 60.5908 10.871C60.4475 10.733 60.3759 10.569 60.3759 10.3789C60.3759 10.1862 60.4475 10.0221 60.5908 9.88667C60.7366 9.74865 60.9111 9.67964 61.1142 9.67964C61.3173 9.67964 61.4905 9.74865 61.6337 9.88667C61.7796 10.0221 61.8525 10.1862 61.8525 10.3789C61.8525 10.569 61.7796 10.733 61.6337 10.871C61.4905 11.0065 61.3173 11.0742 61.1142 11.0742ZM64.4316 9.99995V18H63.2636V9.99995H64.4316ZM68.8036 12V12.9375H65.5263V12H68.8036ZM66.4052 10.5625H67.5732V16.2382C67.5732 16.4648 67.607 16.6354 67.6747 16.75C67.7424 16.8619 67.8297 16.9388 67.9365 16.9804C68.0458 17.0195 68.1643 17.039 68.2919 17.039C68.3857 17.039 68.4677 17.0325 68.538 17.0195C68.6083 17.0065 68.663 16.996 68.7021 16.9882L68.913 17.9531C68.8453 17.9791 68.749 18.0052 68.624 18.0312C68.499 18.0598 68.3427 18.0755 68.1552 18.0781C67.8479 18.0833 67.5615 18.0286 67.2958 17.914C67.0302 17.7994 66.8154 17.6223 66.6513 17.3828C66.4872 17.1432 66.4052 16.8424 66.4052 16.4804V10.5625ZM74.3075 18L72.5419 12H73.749L74.9247 16.4062H74.9833L76.163 12H77.37L78.5419 16.3867H78.6005L79.7685 12H80.9755L79.2138 18H78.0224L76.8036 13.6679H76.7138L75.495 18H74.3075ZM82.0839 18V12H83.2519V18H82.0839ZM82.6738 11.0742C82.4706 11.0742 82.2962 11.0065 82.1503 10.871C82.0071 10.733 81.9355 10.569 81.9355 10.3789C81.9355 10.1862 82.0071 10.0221 82.1503 9.88667C82.2962 9.74865 82.4706 9.67964 82.6738 9.67964C82.8769 9.67964 83.0501 9.74865 83.1933 9.88667C83.3391 10.0221 83.412 10.1862 83.412 10.3789C83.412 10.569 83.3391 10.733 83.1933 10.871C83.0501 11.0065 82.8769 11.0742 82.6738 11.0742ZM87.624 12V12.9375H84.3466V12H87.624ZM85.2255 10.5625H86.3935V16.2382C86.3935 16.4648 86.4273 16.6354 86.495 16.75C86.5628 16.8619 86.65 16.9388 86.7568 16.9804C86.8661 17.0195 86.9846 17.039 87.1122 17.039C87.206 17.039 87.288 17.0325 87.3583 17.0195C87.4286 17.0065 87.4833 16.996 87.5224 16.9882L87.7333 17.9531C87.6656 17.9791 87.5693 18.0052 87.4443 18.0312C87.3193 18.0598 87.163 18.0755 86.9755 18.0781C86.6682 18.0833 86.3818 18.0286 86.1161 17.914C85.8505 17.7994 85.6357 17.6223 85.4716 17.3828C85.3075 17.1432 85.2255 16.8424 85.2255 16.4804V10.5625ZM90.2128 14.4375V18H89.0448V9.99995H90.1972V12.9765H90.2714C90.412 12.6536 90.6269 12.3971 90.9159 12.207C91.205 12.0169 91.5826 11.9218 92.0488 11.9218C92.4602 11.9218 92.8196 12.0065 93.1269 12.1757C93.4368 12.345 93.6764 12.5976 93.8456 12.9335C94.0175 13.2669 94.1034 13.6835 94.1034 14.1835V18H92.9355V14.3242C92.9355 13.8841 92.8222 13.5429 92.5956 13.3007C92.3691 13.0559 92.054 12.9335 91.6503 12.9335C91.3743 12.9335 91.1269 12.9921 90.9081 13.1093C90.692 13.2265 90.5214 13.3984 90.3964 13.625C90.274 13.8489 90.2128 14.1197 90.2128 14.4375Z" fill="#E8E8E8"/>
<path d="M46.6605 22.2727H49.2727L51.4886 27.6761H51.5908L53.8068 22.2727H56.419V31H54.365V25.6392H54.2926L52.196 30.9446H50.8835L48.7869 25.6093H48.7144V31H46.6605V22.2727ZM59.5798 31.1107C59.1622 31.1107 58.7915 31.0411 58.4676 30.9019C58.1466 30.7599 57.8923 30.5468 57.7048 30.2627C57.5202 29.9758 57.4278 29.6164 57.4278 29.1846C57.4278 28.821 57.4918 28.5142 57.6196 28.2642C57.7474 28.0142 57.9236 27.811 58.148 27.6548C58.3724 27.4985 58.631 27.3806 58.9236 27.3011C59.2162 27.2187 59.5287 27.1633 59.8611 27.1349C60.2332 27.1008 60.533 27.0653 60.7602 27.0284C60.9875 26.9886 61.1523 26.9332 61.2546 26.8622C61.3597 26.7883 61.4122 26.6846 61.4122 26.5511V26.5298C61.4122 26.311 61.3369 26.142 61.1864 26.0227C61.0358 25.9034 60.8327 25.8437 60.577 25.8437C60.3014 25.8437 60.0798 25.9034 59.9122 26.0227C59.7446 26.142 59.6381 26.3068 59.5926 26.517L57.6707 26.4488C57.7276 26.0511 57.8739 25.696 58.1097 25.3835C58.3483 25.0681 58.675 24.821 59.0898 24.642C59.5074 24.4602 60.0088 24.3693 60.594 24.3693C61.0117 24.3693 61.3966 24.419 61.7489 24.5184C62.1011 24.615 62.408 24.7571 62.6693 24.9446C62.9307 25.1292 63.1324 25.3565 63.2744 25.6264C63.4193 25.8963 63.4918 26.2045 63.4918 26.5511V31H61.5315V30.088H61.4804C61.3639 30.3096 61.2148 30.4971 61.033 30.6505C60.854 30.8039 60.6423 30.919 60.398 30.9957C60.1565 31.0724 59.8838 31.1107 59.5798 31.1107ZM60.2233 29.7471C60.4477 29.7471 60.6494 29.7017 60.8284 29.6107C61.0102 29.5198 61.1551 29.3948 61.2631 29.2357C61.371 29.0738 61.425 28.8863 61.425 28.6732V28.0511C61.3653 28.0823 61.2929 28.1107 61.2077 28.1363C61.1253 28.1619 61.0344 28.186 60.9349 28.2088C60.8355 28.2315 60.7332 28.2514 60.6281 28.2684C60.523 28.2855 60.4222 28.3011 60.3256 28.3153C60.1296 28.3465 59.9619 28.3948 59.8227 28.4602C59.6864 28.5255 59.5813 28.6107 59.5074 28.7159C59.4364 28.8181 59.4009 28.9403 59.4009 29.0823C59.4009 29.2982 59.4776 29.463 59.631 29.5767C59.7872 29.6903 59.9847 29.7471 60.2233 29.7471ZM64.7659 31V24.4545H66.7901V25.6477H66.8582C66.9776 25.2159 67.1722 24.8948 67.442 24.6846C67.7119 24.4715 68.0259 24.365 68.3838 24.365C68.4804 24.365 68.5798 24.3721 68.6821 24.3863C68.7844 24.3977 68.8795 24.4161 68.9676 24.4417V26.2528C68.8682 26.2187 68.7375 26.1917 68.5756 26.1718C68.4165 26.1519 68.2744 26.142 68.1494 26.142C67.9023 26.142 67.6793 26.1974 67.4804 26.3082C67.2844 26.4161 67.1295 26.5681 67.0159 26.7642C66.9051 26.9573 66.8497 27.1846 66.8497 27.446V31H64.7659ZM71.696 29.2826L71.7045 26.7982H71.9942L73.8352 24.4545H76.196L73.4602 27.8125H72.9104L71.696 29.2826ZM69.8167 31V22.2727H71.9005V31H69.8167ZM73.882 31L72.169 28.2812L73.5411 26.8025L76.2897 31H73.882ZM79.0628 31.0937C78.5798 31.0937 78.1409 30.9687 77.746 30.7187C77.3511 30.4687 77.0358 30.0937 76.8 29.5937C76.5642 29.0937 76.4463 28.473 76.4463 27.7315C76.4463 26.9616 76.5685 26.3281 76.8128 25.8309C77.0571 25.3338 77.3767 24.9659 77.7716 24.7272C78.1693 24.4886 78.5969 24.3693 79.0543 24.3693C79.398 24.3693 79.692 24.4289 79.9364 24.5482C80.1807 24.6647 80.3824 24.8153 80.5415 25C80.7006 25.1846 80.8213 25.3764 80.9037 25.5752H80.9463V22.2727H83.0301V31H80.9676V29.9389H80.9037C80.8156 30.1406 80.6906 30.3295 80.5287 30.5056C80.3668 30.6818 80.1636 30.8238 79.9193 30.9318C79.6778 31.0397 79.3923 31.0937 79.0628 31.0937ZM79.7872 29.4701C80.0401 29.4701 80.256 29.3991 80.4349 29.2571C80.6139 29.1122 80.7517 28.909 80.8483 28.6477C80.9449 28.3863 80.9932 28.0795 80.9932 27.7272C80.9932 27.3693 80.9449 27.061 80.8483 26.8025C80.7545 26.544 80.6168 26.3451 80.4349 26.2059C80.256 26.0667 80.0401 25.9971 79.7872 25.9971C79.5287 25.9971 79.3099 26.0681 79.131 26.2102C78.952 26.3522 78.8156 26.5525 78.7219 26.811C78.631 27.0696 78.5855 27.375 78.5855 27.7272C78.5855 28.0795 78.6324 28.3863 78.7261 28.6477C78.8199 28.909 78.9548 29.1122 79.131 29.2571C79.3099 29.3991 79.5287 29.4701 79.7872 29.4701ZM87.4033 31.1235C86.7158 31.1235 86.1249 30.9829 85.6306 30.7017C85.1391 30.4176 84.7599 30.0227 84.4928 29.517C84.2286 29.0085 84.0965 28.419 84.0965 27.7485C84.0965 27.0752 84.2286 26.4857 84.4928 25.9801C84.7599 25.4715 85.1391 25.0767 85.6306 24.7954C86.1249 24.5113 86.7158 24.3693 87.4033 24.3693C88.0908 24.3693 88.6803 24.5113 89.1718 24.7954C89.6661 25.0767 90.0454 25.4715 90.3096 25.9801C90.5766 26.4857 90.7102 27.0752 90.7102 27.7485C90.7102 28.419 90.5766 29.0085 90.3096 29.517C90.0454 30.0227 89.6661 30.4176 89.1718 30.7017C88.6803 30.9829 88.0908 31.1235 87.4033 31.1235ZM87.4161 29.5511C87.6661 29.5511 87.8778 29.4744 88.0511 29.321C88.2244 29.1676 88.3565 28.9545 88.4474 28.6818C88.5411 28.409 88.588 28.0937 88.588 27.7357C88.588 27.3721 88.5411 27.0539 88.4474 26.7812C88.3565 26.5085 88.2244 26.2954 88.0511 26.142C87.8778 25.9886 87.6661 25.9119 87.4161 25.9119C87.1576 25.9119 86.9388 25.9886 86.7599 26.142C86.5837 26.2954 86.4488 26.5085 86.355 26.7812C86.2641 27.0539 86.2187 27.3721 86.2187 27.7357C86.2187 28.0937 86.2641 28.409 86.355 28.6818C86.4488 28.9545 86.5837 29.1676 86.7599 29.321C86.9388 29.4744 87.1576 29.5511 87.4161 29.5511ZM92.86 31L91.1555 24.4545H93.2478L94.1299 28.6477H94.1853L95.1313 24.4545H97.1725L98.1441 28.6178H98.1995L99.056 24.4545H101.148L99.4396 31H97.2109L96.1881 27.186H96.1157L95.093 31H92.86ZM104.068 27.267V31H101.985V24.4545H103.966V25.6562H104.039C104.184 25.2556 104.431 24.9417 104.78 24.7144C105.13 24.4843 105.546 24.3693 106.029 24.3693C106.489 24.3693 106.888 24.473 107.226 24.6804C107.567 24.8849 107.831 25.1718 108.019 25.5411C108.209 25.9076 108.303 26.3366 108.3 26.8281V31H106.216V27.2372C106.219 26.8735 106.127 26.5894 105.939 26.3849C105.755 26.1804 105.497 26.0781 105.168 26.0781C104.949 26.0781 104.756 26.1264 104.588 26.223C104.424 26.3167 104.296 26.4517 104.205 26.6278C104.117 26.8039 104.071 27.017 104.068 27.267Z" fill="white"/>
</g>
<rect x="0.749939" y="0.749954" width="117.5" height="38.5" rx="5.25" stroke="white" stroke-opacity="0.15" stroke-width="1.5"/>
<defs>
<filter id="filter0_d_40_69" x="5.99994" y="1.99995" width="36" height="36" filterUnits="userSpaceOnUse" color-interpolation-filters="sRGB">
<feFlood flood-opacity="0" result="BackgroundImageFix"/>
<feColorMatrix in="SourceAlpha" type="matrix" values="0 0 0 0 0 0 0 0 0 0 0 0 0 0 0 0 0 0 127 0" result="hardAlpha"/>
<feOffset/>
<feGaussianBlur stdDeviation="2"/>
<feComposite in2="hardAlpha" operator="out"/>
<feColorMatrix type="matrix" values="0 0 0 0 0 0 0 0 0 0 0 0 0 0 0 0 0 0 0.25 0"/>
<feBlend mode="normal" in2="BackgroundImageFix" result="effect1_dropShadow_40_69"/>
<feBlend mode="normal" in="SourceGraphic" in2="effect1_dropShadow_40_69" result="shape"/>
</filter>
<filter id="filter1_d_40_69" x="41.9999" y="2.99995" width="71" height="34" filterUnits="userSpaceOnUse" color-interpolation-filters="sRGB">
<feFlood flood-opacity="0" result="BackgroundImageFix"/>
<feColorMatrix in="SourceAlpha" type="matrix" values="0 0 0 0 0 0 0 0 0 0 0 0 0 0 0 0 0 0 127 0" result="hardAlpha"/>
<feOffset/>
<feGaussianBlur stdDeviation="2"/>
<feComposite in2="hardAlpha" operator="out"/>
<feColorMatrix type="matrix" values="0 0 0 0 0 0 0 0 0 0 0 0 0 0 0 0 0 0 0.25 0"/>
<feBlend mode="normal" in2="BackgroundImageFix" result="effect1_dropShadow_40_69"/>
<feBlend mode="normal" in="SourceGraphic" in2="effect1_dropShadow_40_69" result="shape"/>
</filter>
<linearGradient id="paint0_linear_40_69" x1="59.4999" y1="-4.57764e-05" x2="59.4999" y2="39.9999" gradientUnits="userSpaceOnUse">
<stop stop-color="#323232"/>
<stop offset="1" stop-color="#1B1B1B"/>
</linearGradient>
</defs>
</svg>
