<svg width="148" height="56" viewBox="0 0 148 56" fill="none" xmlns="http://www.w3.org/2000/svg">
<rect x="-6.10352e-05" y="-0.000183105" width="148" height="56" rx="8" fill="url(#paint0_linear_1_172)"/>
<g filter="url(#filter0_d_1_172)">
<path d="M47.3626 9.32234C46.6299 9.62121 45.3437 10.5652 43.776 11.9755L44.6729 14.4214C45.7101 13.3302 46.753 12.3682 47.7728 11.5636C47.8475 11.5018 47.8934 11.4681 47.8934 11.4681C47.8555 11.5029 47.8107 11.5288 47.7728 11.5636C47.4386 11.8299 46.4256 12.6997 44.8268 14.4911C46.0977 14.6048 48.0714 14.6242 49.6937 14.5784C50.5454 12.0642 49.7858 10.7535 49.7858 10.7535C49.7858 10.7535 48.8715 8.70662 47.3626 9.32234Z" fill="url(#paint1_linear_1_172)"/>
<path d="M40.4314 27.8297C40.2661 27.8386 40.1019 27.8397 39.9377 27.8408C40.0192 27.8442 40.1099 27.8408 40.1926 27.8364C40.2741 27.8397 40.3568 27.8353 40.4314 27.8297Z" fill="#BE202E"/>
<path opacity="0.35" d="M40.4314 27.8297C40.2661 27.8386 40.1019 27.8397 39.9377 27.8408C40.0192 27.8442 40.1099 27.8408 40.1926 27.8364C40.2741 27.8397 40.3568 27.8353 40.4314 27.8297Z" fill="#BE202E"/>
<path d="M41.1406 25.8977C41.1325 25.8966 41.1325 25.8966 41.1406 25.8977C41.1647 25.9011 41.1899 25.8966 41.214 25.9C41.3208 25.8989 41.4276 25.8977 41.5275 25.8876C41.4035 25.8944 41.2726 25.8921 41.1406 25.8977V25.8977Z" fill="#BE202E"/>
<path opacity="0.35" d="M41.1406 25.8977C41.1325 25.8966 41.1325 25.8966 41.1406 25.8977C41.1647 25.9011 41.1899 25.8966 41.214 25.9C41.3208 25.8989 41.4276 25.8977 41.5275 25.8876C41.4035 25.8944 41.2726 25.8921 41.1406 25.8977V25.8977Z" fill="#BE202E"/>
<path d="M40.1819 19.7821C40.6598 19.1505 41.1353 18.5346 41.6086 17.9345C42.1013 17.313 42.5987 16.7162 43.1018 16.1363C43.1317 16.1004 43.1615 16.0644 43.1902 16.0363C43.683 15.471 44.1723 14.9293 44.6662 14.4124L43.768 11.9744C43.6635 12.0721 43.551 12.1688 43.4373 12.2733C43.0204 12.6565 42.5828 13.0689 42.1325 13.5117C41.6249 14.0107 41.1046 14.54 40.5636 15.0985C40.0697 15.6155 39.5632 16.1628 39.0544 16.7258C38.6225 17.2113 38.1895 17.7047 37.7541 18.2138C37.7346 18.2351 37.7243 18.2498 37.7047 18.2711L38.8517 21.587C39.3009 20.9835 39.742 20.3788 40.1819 19.7821V19.7821Z" fill="url(#paint2_linear_1_172)"/>
<path d="M30.3406 36.2039C30.0488 36.7411 29.7466 37.293 29.4502 37.8616C29.4491 37.8695 29.4399 37.8763 29.4387 37.8841C29.3939 37.9662 29.3503 38.0403 29.3135 38.1235C29.1101 38.5045 28.9366 38.8495 28.5276 39.6273C28.9707 39.9061 29.2679 40.5097 29.5294 41.1886C29.5848 40.53 29.4013 39.878 28.948 39.3329C31.2556 39.7603 33.3488 39.4672 34.6215 37.9433C34.7317 37.8062 34.8431 37.6612 34.9477 37.5073C34.3883 38.0231 33.7729 38.1938 32.6811 37.9768L32.673 37.9756L32.6811 37.9768C34.4 37.4948 35.3118 36.924 36.1917 35.899C36.3996 35.6552 36.6109 35.3877 36.8269 35.0887C35.2041 36.3148 33.506 36.4865 31.823 35.9378L30.5084 35.8982C30.4521 36.0027 30.3969 36.0994 30.3406 36.2039Z" fill="url(#paint3_linear_1_172)"/>
<path d="M31.3592 33.4485C31.744 32.7798 32.1381 32.1043 32.5333 31.421C32.9158 30.768 33.3064 30.1162 33.7062 29.4576C34.106 28.799 34.5138 28.1415 34.9217 27.4841C35.3398 26.812 35.7649 26.1489 36.198 25.487C36.6219 24.8317 37.0618 24.1788 37.4926 23.5326C37.65 23.2977 37.8062 23.0706 37.9717 22.8369C38.2428 22.4413 38.5219 22.0468 38.801 21.6523C38.8125 21.6299 38.8321 21.6085 38.8435 21.586L37.7115 18.2803C37.6816 18.3162 37.6506 18.3601 37.6127 18.3949C37.1555 18.9411 36.6892 19.494 36.2366 20.0649C35.7749 20.6426 35.32 21.2292 34.8709 21.8327C34.4929 22.3418 34.1231 22.8521 33.752 23.3702C33.6796 23.4724 33.6061 23.5826 33.5338 23.6849C33.0857 24.3367 32.6642 24.9762 32.2873 25.5898C31.8577 26.2844 31.4728 26.9531 31.1259 27.5869C30.9007 28.005 30.6858 28.4085 30.4894 28.7985C30.3262 29.1289 30.1699 29.4683 30.0148 29.7999C29.654 30.5844 29.3334 31.3745 29.0449 32.1691L30.1977 35.5018C30.4883 34.9725 30.7951 34.4454 31.0961 33.9014C31.1834 33.753 31.2707 33.6047 31.3592 33.4485V33.4485Z" fill="url(#paint4_linear_1_172)"/>
<path d="M29.0049 32.2754C28.659 33.2386 28.3693 34.2097 28.152 35.1909C28.1474 35.2224 28.1336 35.2606 28.129 35.2921C27.7458 34.4355 26.5084 33.4755 26.5153 33.4845C27.2794 34.9885 27.8128 36.4441 27.7228 37.7883C27.1935 37.8186 26.5081 37.5701 25.739 37.1654C26.4792 38.0478 27.0831 38.3491 27.3241 38.4391C26.5377 38.3771 25.6489 38.7906 24.7405 39.2817C26.0082 38.9694 27.0082 38.9167 27.6764 39.1708C26.1299 42.0614 24.5363 45.2746 22.9128 48.6924C23.2641 48.6453 23.4984 48.4452 23.6547 48.162C23.9419 47.5439 25.8734 43.4787 28.7307 38.1864C28.81 38.0369 28.8973 37.8885 28.9777 37.7312C29.0007 37.6862 29.0225 37.6491 29.0455 37.6042C29.3477 37.0524 29.6602 36.4859 29.983 35.9049C30.06 35.7711 30.1278 35.6441 30.2047 35.5104L30.2059 35.5025L29.0532 32.1698C29.0314 32.2069 29.0187 32.2372 29.0049 32.2754V32.2754Z" fill="url(#paint5_linear_1_172)"/>
<path d="M39.0696 21.8909C39.0076 21.9786 38.9548 22.0595 38.8927 22.1471C38.7147 22.4112 38.5286 22.6742 38.3494 22.9462C38.1507 23.2395 37.9508 23.5407 37.7417 23.8487C37.6372 24.0026 37.5326 24.1566 37.4269 24.3184C37.111 24.7961 36.7928 25.2895 36.4643 25.7974C36.061 26.4234 35.6544 27.073 35.2351 27.753C34.8376 28.3958 34.4274 29.069 34.015 29.758C33.6233 30.4177 33.2212 31.092 32.8145 31.7978C32.4526 32.4216 32.0872 33.0689 31.7116 33.7309C31.6909 33.7601 31.6771 33.7983 31.6564 33.8275C31.2899 34.4828 30.9119 35.1605 30.5317 35.8539C30.5213 35.8685 30.511 35.8831 30.5087 35.8988L31.8233 35.9384C31.8003 35.9271 31.7762 35.9238 31.7452 35.9114C33.3239 35.9397 35.5471 35.0948 37.078 33.88C37.7831 33.3204 38.4481 32.6427 39.0925 31.8257C39.575 31.2188 40.0356 30.5366 40.5009 29.7668C40.9018 29.1003 41.304 28.3698 41.6992 27.5741C41.3191 27.7055 40.8897 27.7819 40.4258 27.8133C40.3431 27.8178 40.2605 27.8223 40.1778 27.8267C40.0951 27.8312 40.0136 27.8278 39.9229 27.8312C41.4489 27.4909 42.5101 26.5716 43.3579 25.3736C42.9434 25.5725 42.2762 25.8163 41.5126 25.878C41.4128 25.8881 41.306 25.8892 41.1992 25.8903C41.1751 25.8869 41.1498 25.8914 41.1177 25.8869C41.6459 25.7521 42.1052 25.5836 42.5152 25.36C42.6036 25.3161 42.6851 25.2633 42.7667 25.2105C42.893 25.1318 43.0124 25.0442 43.1319 24.9565C43.2065 24.8947 43.28 24.8408 43.3547 24.779C43.5235 24.634 43.6866 24.4722 43.8359 24.2924C43.8853 24.2351 43.9335 24.1856 43.9749 24.1272C44.0369 24.0395 44.0978 23.9597 44.1507 23.8788C44.4091 23.5135 44.6216 23.182 44.7963 22.8853C44.8836 22.737 44.9606 22.6032 45.0283 22.4762C45.0525 22.4234 45.0835 22.3796 45.1076 22.3267C45.1777 22.184 45.2455 22.057 45.2949 21.9435C45.3684 21.7771 45.4213 21.64 45.4523 21.54C45.3984 21.5726 45.3363 21.6041 45.2675 21.6265C44.7966 21.8175 44.0147 21.9489 43.3958 21.9747L44.6037 22.0153L43.3958 21.9747C43.3878 21.9736 43.3798 21.9724 43.3706 21.9792C43.3132 21.9792 43.2477 21.978 43.1811 21.9848C43.1903 21.978 43.2064 21.9803 43.2156 21.9735L39.0857 21.8369C39.0892 21.8695 39.0788 21.8842 39.0696 21.8909V21.8909Z" fill="url(#paint6_linear_1_172)"/>
<path d="M44.8265 14.4916C44.3854 14.9838 43.9007 15.5502 43.3735 16.1829C43.3436 16.2189 43.3149 16.247 43.293 16.2841C42.8347 16.8381 42.3523 17.445 41.8354 18.1193C41.3897 18.6992 40.9222 19.3162 40.4294 19.9939C39.9998 20.5761 39.5644 21.1976 39.0992 21.855L43.229 21.9916C44.4887 21.622 45.0893 21.2163 45.7061 20.5881C45.8703 20.4184 46.0369 20.233 46.2046 20.0397C46.7157 19.4609 47.228 18.8181 47.6921 18.1685C48.1447 17.5414 48.5559 16.9165 48.8765 16.3512C49.0856 15.9871 49.2579 15.6499 49.3923 15.3476C49.505 15.0823 49.5992 14.8306 49.6842 14.5856C48.0711 14.6247 46.0974 14.6053 44.8265 14.4916Z" fill="url(#paint7_linear_1_172)"/>
<path d="M40.1913 27.8449C40.1086 27.8494 40.0271 27.846 39.9364 27.8494C40.0191 27.8449 40.1017 27.8404 40.1913 27.8449Z" fill="#BE202E"/>
<path opacity="0.35" d="M40.1913 27.8449C40.1086 27.8494 40.0271 27.846 39.9364 27.8494C40.0191 27.8449 40.1017 27.8404 40.1913 27.8449Z" fill="#BE202E"/>
<path d="M40.1913 27.8449C40.1086 27.8494 40.0271 27.846 39.9364 27.8494C40.0191 27.8449 40.1017 27.8404 40.1913 27.8449Z" fill="url(#paint8_linear_1_172)"/>
<path d="M41.1326 25.8967C41.1569 25.9001 41.1823 25.8957 41.2146 25.9002C41.1904 25.8968 41.1649 25.9013 41.1326 25.8967Z" fill="#BE202E"/>
<path opacity="0.35" d="M41.1326 25.8967C41.1569 25.9001 41.1823 25.8957 41.2146 25.9002C41.1904 25.8968 41.1649 25.9013 41.1326 25.8967Z" fill="#BE202E"/>
<path d="M41.1326 25.8967C41.1569 25.9001 41.1823 25.8957 41.2146 25.9002C41.1904 25.8968 41.1649 25.9013 41.1326 25.8967Z" fill="url(#paint9_linear_1_172)"/>
<path d="M18.5065 8.44234C18.2535 9.08728 18.0847 10.4763 18.0497 12.3284L20.207 13.2605C20.1262 11.9384 20.1339 10.6918 20.2308 9.55607C20.236 9.47115 20.242 9.42155 20.242 9.42155C20.2417 9.46677 20.2312 9.51084 20.2308 9.55607C20.2008 9.92988 20.1509 11.1012 20.3472 13.2062C21.2015 12.4745 22.425 11.2419 23.3901 10.1909C22.2605 8.1144 20.9334 7.79079 20.9334 7.79079C20.9334 7.79079 19.0275 7.11393 18.5065 8.44234Z" fill="url(#paint10_linear_1_172)"/>
<path d="M26.4155 24.1457C26.3199 24.2554 26.2199 24.3596 26.12 24.4638C26.1722 24.4145 26.2256 24.3552 26.2734 24.3004C26.3256 24.251 26.3734 24.1962 26.4155 24.1457Z" fill="#BE202E"/>
<path opacity="0.35" d="M26.4155 24.1457C26.3199 24.2554 26.2199 24.3596 26.12 24.4638C26.1722 24.4145 26.2256 24.3552 26.2734 24.3004C26.3256 24.251 26.3734 24.1962 26.4155 24.1457Z" fill="#BE202E"/>
<path d="M25.581 22.5157C25.5753 22.52 25.5753 22.52 25.581 22.5157C25.598 22.5025 25.6105 22.4839 25.6275 22.4707C25.6923 22.4027 25.7571 22.3347 25.8117 22.2655C25.7401 22.3479 25.6583 22.429 25.581 22.5157V22.5157Z" fill="#BE202E"/>
<path opacity="0.35" d="M25.581 22.5157C25.5753 22.52 25.5753 22.52 25.581 22.5157C25.598 22.5025 25.6105 22.4839 25.6275 22.4707C25.6923 22.4027 25.7571 22.3347 25.8117 22.2655C25.7401 22.3479 25.6583 22.429 25.581 22.5157V22.5157Z" fill="#BE202E"/>
<path d="M20.9745 19.3755C20.8527 18.6875 20.7397 18.0105 20.6357 17.3446C20.5296 16.6534 20.4426 15.9744 20.3702 15.3021C20.3649 15.2612 20.3596 15.2204 20.3587 15.1851C20.2896 14.5282 20.2338 13.888 20.1971 13.2601L18.0442 12.3335C18.0444 12.4592 18.0388 12.5894 18.0377 12.7251C18.0338 13.2226 18.0364 13.7511 18.0511 14.3061C18.0675 14.9317 18.0962 15.5839 18.1313 16.267C18.168 16.8949 18.2169 17.5494 18.2747 18.215C18.3288 18.7846 18.3873 19.3597 18.4548 19.946C18.4568 19.9714 18.4601 19.9868 18.4622 20.0122L21.3445 21.3194C21.2235 20.6667 21.0968 20.0183 20.9745 19.3755V19.3755Z" fill="url(#paint11_linear_1_172)"/>
<path d="M25.7279 35.636C25.9018 36.1489 26.0791 36.6773 26.2709 37.2125C26.2754 37.218 26.2742 37.2279 26.2786 37.2335C26.305 37.312 26.327 37.3849 26.3591 37.459C26.4847 37.8205 26.605 38.1412 26.8651 38.8753C27.3201 38.7667 27.899 38.9489 28.5055 39.1997C28.1067 38.7615 27.5658 38.478 26.9295 38.43C28.6259 37.2367 29.7174 35.7375 29.4968 34.0019C29.4743 33.8484 29.4474 33.6894 29.4104 33.5292C29.4062 34.1977 29.1408 34.6903 28.3284 35.2458L28.3228 35.2502L28.3284 35.2458C29.0662 33.8669 29.2505 32.9424 29.1168 31.7601C29.0841 31.4796 29.038 31.1826 28.974 30.8634C28.7842 32.6373 27.8553 33.8132 26.4623 34.5383L25.6299 35.343C25.664 35.4425 25.6937 35.5365 25.7279 35.636Z" fill="url(#paint12_linear_1_172)"/>
<path d="M24.5421 33.3069C24.3388 32.6547 24.1368 31.9927 23.9302 31.3251C23.7358 30.684 23.5471 30.0386 23.3596 29.3832C23.1722 28.7279 22.9903 28.0682 22.8085 27.4084C22.6234 26.7332 22.4485 26.0592 22.2792 25.3808C22.1087 24.7123 21.9496 24.0351 21.7892 23.3678C21.7314 23.1247 21.6781 22.8872 21.626 22.6397C21.5323 22.2266 21.4444 21.809 21.3564 21.3915C21.3487 21.3705 21.3467 21.3451 21.3389 21.3241L18.4724 20.0136C18.4777 20.0545 18.4875 20.1009 18.4871 20.1461C18.5656 20.7688 18.6428 21.4014 18.7403 22.0363C18.8366 22.6812 18.943 23.3272 19.0641 23.98C19.1667 24.53 19.2751 25.0757 19.3879 25.6268C19.4107 25.7351 19.438 25.8489 19.4608 25.9572C19.6143 26.6388 19.7758 27.2962 19.9479 27.9095C20.1407 28.6057 20.344 29.2578 20.5476 29.8648C20.6842 30.2627 20.8175 30.6453 20.9532 31.008C21.0703 31.3132 21.1974 31.6195 21.3201 31.9203C21.6142 32.6282 21.9367 33.3142 22.2819 33.9826L25.1788 35.2965C25.0093 34.7891 24.8511 34.273 24.6783 33.7501C24.6344 33.6042 24.5905 33.4583 24.5421 33.3069V33.3069Z" fill="url(#paint13_linear_1_172)"/>
<path d="M22.327 34.0727C22.7477 34.8806 23.2081 35.6579 23.7194 36.3957C23.7373 36.4179 23.7539 36.45 23.7718 36.4722C22.9739 36.1893 21.5841 36.3816 21.5942 36.3828C23.0512 36.8219 24.3348 37.3769 25.1628 38.2568C24.858 38.6091 24.2743 38.8891 23.5366 39.1262C24.5705 39.1998 25.1389 39.0036 25.3459 38.9066C24.8227 39.3646 24.5492 40.1782 24.3146 41.0516C24.8871 40.0611 25.4659 39.3983 26.0427 39.1326C26.9934 41.8777 28.1271 44.8501 29.3769 47.9666C29.5614 47.7162 29.5737 47.4459 29.4835 47.174C29.2535 46.6144 27.7673 42.9073 26.0427 37.865C25.9931 37.7235 25.9492 37.5776 25.8951 37.4306C25.8797 37.3886 25.8687 37.3521 25.8533 37.3101C25.676 36.7817 25.4955 36.2378 25.3118 35.6784C25.2711 35.548 25.2293 35.4275 25.1886 35.2971L25.1841 35.2915L22.2872 33.9776C22.2982 34.0141 22.3104 34.0406 22.327 34.0727V34.0727Z" fill="url(#paint14_linear_1_172)"/>
<path d="M21.6773 21.3672C21.6969 21.4599 21.7176 21.5428 21.7372 21.6356C21.8015 21.9096 21.8601 22.188 21.9289 22.4675C21.9997 22.7724 22.075 23.0829 22.1491 23.4033C22.1862 23.5634 22.2232 23.7236 22.2647 23.8894C22.3848 24.381 22.5137 24.8838 22.646 25.402C22.8099 26.0396 22.9873 26.6937 23.1768 27.3745C23.3554 28.0187 23.5462 28.6896 23.7458 29.3715C23.939 30.0224 24.1354 30.6889 24.3497 31.3775C24.5375 31.9876 24.7388 32.6144 24.9433 33.2566C24.9498 33.2875 24.9664 33.3196 24.973 33.3505C25.1787 33.9828 25.3921 34.6361 25.6144 35.3005C25.6177 35.316 25.6209 35.3314 25.6299 35.3425L26.4623 34.5378C26.4408 34.5454 26.4238 34.5586 26.3967 34.5705C27.3837 33.5925 28.1923 31.6734 28.3332 29.9643C28.398 29.177 28.3607 28.3427 28.2192 27.4361C28.1164 26.7603 27.9507 26.0521 27.7303 25.2874C27.5383 24.6265 27.305 23.9256 27.0246 23.1892C26.8778 23.5093 26.6646 23.8268 26.4007 24.1385C26.3529 24.1934 26.3051 24.2483 26.2574 24.3032C26.2096 24.358 26.1574 24.4074 26.1039 24.4666C26.8164 23.296 26.8634 22.064 26.5963 20.7959C26.4726 21.1791 26.2236 21.749 25.7957 22.2682C25.7411 22.3374 25.6763 22.4054 25.6115 22.4734C25.5945 22.4865 25.582 22.5052 25.5593 22.5227C25.7948 22.1071 25.9658 21.7143 26.0703 21.3189C26.0958 21.2363 26.1111 21.1526 26.1264 21.0688C26.1522 20.941 26.1679 20.812 26.1836 20.6831C26.1888 20.5981 26.1984 20.5188 26.2036 20.4338C26.2119 20.2386 26.2056 20.0367 26.1791 19.8324C26.1717 19.7662 26.1688 19.7055 26.1558 19.6437C26.1362 19.5509 26.1211 19.4636 26.1004 19.3808C26.0189 18.9941 25.9315 18.6571 25.8436 18.3653C25.7997 18.2194 25.7591 18.089 25.7172 17.9685C25.6973 17.9209 25.6875 17.8745 25.6676 17.827C25.6168 17.6954 25.575 17.5749 25.5307 17.4742C25.4665 17.326 25.4088 17.2087 25.3622 17.1279C25.3505 17.1819 25.3331 17.2402 25.3056 17.2974C25.1423 17.7113 24.7489 18.2847 24.3862 18.6907L25.1539 17.954L24.3862 18.6907C24.3806 18.6951 24.3749 18.6995 24.3737 18.7094C24.3385 18.7456 24.2976 18.7862 24.2612 18.8323C24.2624 18.8223 24.2737 18.8136 24.2749 18.8037L21.6518 21.324C21.6753 21.3418 21.6786 21.3572 21.6773 21.3672V21.3672Z" fill="url(#paint15_linear_1_172)"/>
<path d="M20.3472 13.2067C20.4001 13.7862 20.4749 14.4387 20.5673 15.1585C20.5726 15.1994 20.5734 15.2347 20.5844 15.2712C20.6673 15.8994 20.7701 16.5752 20.8961 17.314C21.0037 17.9501 21.1223 18.6227 21.2653 19.3484C21.3843 19.9757 21.5256 20.6308 21.6722 21.3267L24.2953 18.8064C24.8252 17.7859 24.9271 17.1588 24.8926 16.3852C24.8819 16.1777 24.8622 15.9592 24.8381 15.7351C24.7713 15.0584 24.6632 14.3418 24.5211 13.6514C24.3867 12.982 24.2284 12.3401 24.0536 11.7918C23.9426 11.437 23.8267 11.1219 23.7106 10.852C23.6054 10.6186 23.4977 10.405 23.3889 10.2013C22.4251 11.2424 21.2016 12.475 20.3472 13.2067Z" fill="url(#paint16_linear_1_172)"/>
<path d="M26.2776 24.3059C26.2298 24.3608 26.1776 24.4101 26.1241 24.4694C26.1719 24.4145 26.2197 24.3596 26.2776 24.3059Z" fill="#BE202E"/>
<path opacity="0.35" d="M26.2776 24.3059C26.2298 24.3608 26.1776 24.4101 26.1241 24.4694C26.1719 24.4145 26.2197 24.3596 26.2776 24.3059Z" fill="#BE202E"/>
<path d="M26.2776 24.3059C26.2298 24.3608 26.1776 24.4101 26.1241 24.4694C26.1719 24.4145 26.2197 24.3596 26.2776 24.3059Z" fill="url(#paint17_linear_1_172)"/>
<path d="M25.5752 22.5198C25.5919 22.5068 25.6043 22.4884 25.6266 22.4711C25.6099 22.4841 25.5975 22.5025 25.5752 22.5198Z" fill="#BE202E"/>
<path opacity="0.35" d="M25.5752 22.5198C25.5919 22.5068 25.6043 22.4884 25.6266 22.4711C25.6099 22.4841 25.5975 22.5025 25.5752 22.5198Z" fill="#BE202E"/>
<path d="M25.5752 22.5198C25.5919 22.5068 25.6043 22.4884 25.6266 22.4711C25.6099 22.4841 25.5975 22.5025 25.5752 22.5198Z" fill="url(#paint18_linear_1_172)"/>
</g>
<g filter="url(#filter1_d_1_172)">
<path d="M65.2783 24.4998V12.8635H69.5397C70.3655 12.8635 71.0492 12.9998 71.5908 13.2725C72.1325 13.5415 72.5378 13.907 72.8068 14.3691C73.0757 14.8275 73.2102 15.3445 73.2102 15.9203C73.2102 16.4051 73.1211 16.8142 72.9431 17.1475C72.7651 17.4771 72.5265 17.7422 72.2272 17.943C71.9318 18.14 71.606 18.2839 71.2499 18.3748V18.4885C71.6363 18.5074 72.0132 18.6324 72.3806 18.8635C72.7518 19.0907 73.0586 19.4146 73.3011 19.835C73.5435 20.2555 73.6647 20.7669 73.6647 21.3691C73.6647 21.9638 73.5246 22.4979 73.2443 22.9714C72.9677 23.4411 72.5397 23.8142 71.9602 24.0907C71.3806 24.3634 70.6401 24.4998 69.7386 24.4998H65.2783ZM67.034 22.9941H69.5681C70.409 22.9941 71.0113 22.8313 71.3749 22.5055C71.7386 22.1797 71.9204 21.7725 71.9204 21.2839C71.9204 20.9165 71.8276 20.5794 71.642 20.2725C71.4564 19.9657 71.1912 19.7214 70.8465 19.5396C70.5056 19.3578 70.1003 19.2669 69.6306 19.2669H67.034V22.9941ZM67.034 17.8975H69.3863C69.7802 17.8975 70.1344 17.8218 70.4488 17.6703C70.767 17.5188 71.0189 17.3066 71.2045 17.0339C71.3939 16.7574 71.4886 16.4316 71.4886 16.0566C71.4886 15.5756 71.32 15.1722 70.9829 14.8464C70.6458 14.5206 70.1287 14.3578 69.4318 14.3578H67.034V17.8975ZM81.1391 20.8805V15.7725H82.8437V24.4998H81.1732V22.9884H81.0823C80.8816 23.4544 80.5596 23.8426 80.1164 24.1532C79.677 24.46 79.1297 24.6134 78.4744 24.6134C77.9138 24.6134 77.4175 24.4903 76.9857 24.2441C76.5577 23.9941 76.2206 23.6248 75.9744 23.1362C75.7319 22.6475 75.6107 22.0434 75.6107 21.3237V15.7725H77.3096V21.1191C77.3096 21.7138 77.4744 22.1873 77.8039 22.5396C78.1335 22.8919 78.5615 23.068 79.088 23.068C79.4062 23.068 79.7225 22.9884 80.0369 22.8294C80.355 22.6703 80.6183 22.4297 80.8266 22.1078C81.0388 21.7858 81.1429 21.3767 81.1391 20.8805ZM85.1264 24.4998V15.7725H86.8252V24.4998H85.1264ZM85.9843 14.426C85.6889 14.426 85.4351 14.3275 85.2229 14.1305C85.0146 13.9297 84.9104 13.6911 84.9104 13.4146C84.9104 13.1343 85.0146 12.8956 85.2229 12.6987C85.4351 12.4979 85.6889 12.3975 85.9843 12.3975C86.2798 12.3975 86.5317 12.4979 86.74 12.6987C86.9521 12.8956 87.0582 13.1343 87.0582 13.4146C87.0582 13.6911 86.9521 13.9297 86.74 14.1305C86.5317 14.3275 86.2798 14.426 85.9843 14.426ZM90.8096 12.8635V24.4998H89.1107V12.8635H90.8096ZM97.169 15.7725V17.1362H92.4019V15.7725H97.169ZM93.6803 13.6816H95.3792V21.9373C95.3792 22.2669 95.4284 22.515 95.5269 22.6816C95.6254 22.8445 95.7523 22.9563 95.9076 23.0169C96.0667 23.0737 96.239 23.1021 96.4246 23.1021C96.561 23.1021 96.6803 23.0926 96.7826 23.0737C96.8849 23.0547 96.9644 23.0396 97.0212 23.0282L97.3281 24.4316C97.2296 24.4695 97.0894 24.5074 96.9076 24.5453C96.7258 24.5869 96.4985 24.6097 96.2258 24.6134C95.7788 24.621 95.3621 24.5415 94.9758 24.3748C94.5894 24.2081 94.2769 23.9506 94.0383 23.6021C93.7996 23.2536 93.6803 22.8161 93.6803 22.2896V13.6816ZM105.175 24.4998L102.606 15.7725H104.362L106.072 22.1816H106.158L107.874 15.7725H109.629L111.334 22.1532H111.419L113.118 15.7725H114.874L112.311 24.4998H110.578L108.805 18.1987H108.675L106.902 24.4998H105.175ZM116.486 24.4998V15.7725H118.185V24.4998H116.486ZM117.344 14.426C117.048 14.426 116.794 14.3275 116.582 14.1305C116.374 13.9297 116.27 13.6911 116.27 13.4146C116.27 13.1343 116.374 12.8956 116.582 12.6987C116.794 12.4979 117.048 12.3975 117.344 12.3975C117.639 12.3975 117.891 12.4979 118.099 12.6987C118.311 12.8956 118.418 13.1343 118.418 13.4146C118.418 13.6911 118.311 13.9297 118.099 14.1305C117.891 14.3275 117.639 14.426 117.344 14.426ZM124.544 15.7725V17.1362H119.777V15.7725H124.544ZM121.055 13.6816H122.754V21.9373C122.754 22.2669 122.803 22.515 122.902 22.6816C123 22.8445 123.127 22.9563 123.283 23.0169C123.442 23.0737 123.614 23.1021 123.8 23.1021C123.936 23.1021 124.055 23.0926 124.158 23.0737C124.26 23.0547 124.339 23.0396 124.396 23.0282L124.703 24.4316C124.605 24.4695 124.464 24.5074 124.283 24.5453C124.101 24.5869 123.874 24.6097 123.601 24.6134C123.154 24.621 122.737 24.5415 122.351 24.3748C121.964 24.2081 121.652 23.9506 121.413 23.6021C121.175 23.2536 121.055 22.8161 121.055 22.2896V13.6816ZM128.31 19.318V24.4998H126.611V12.8635H128.287V17.193H128.395C128.599 16.7233 128.912 16.3502 129.332 16.0737C129.753 15.7972 130.302 15.6589 130.98 15.6589C131.579 15.6589 132.101 15.782 132.548 16.0282C132.999 16.2744 133.347 16.6419 133.594 17.1305C133.844 17.6153 133.969 18.2214 133.969 18.9487V24.4998H132.27V19.1532C132.27 18.5131 132.105 18.0169 131.775 17.6646C131.446 17.3085 130.988 17.1305 130.4 17.1305C129.999 17.1305 129.639 17.2157 129.321 17.3862C129.007 17.5566 128.758 17.8066 128.577 18.1362C128.399 18.4619 128.31 18.8559 128.31 19.318Z" fill="#E8E8E8"/>
<path d="M64.9357 31.1362H68.6363L71.7755 38.791H71.9204L75.0596 31.1362H78.7602V43.4998H75.8504V35.9054H75.7478L72.7776 43.4213H70.9183L67.9481 35.8631H67.8455V43.4998H64.9357V31.1362ZM83.2381 43.6568C82.6465 43.6568 82.1213 43.5582 81.6625 43.361C81.2077 43.1597 80.8475 42.8579 80.5819 42.4554C80.3203 42.0489 80.1895 41.5398 80.1895 40.9281C80.1895 40.4129 80.28 39.9783 80.4611 39.6241C80.6422 39.2699 80.8918 38.9822 81.2097 38.7608C81.5277 38.5395 81.8939 38.3724 82.3084 38.2598C82.723 38.143 83.1657 38.0646 83.6366 38.0243C84.1638 37.976 84.5884 37.9257 84.9104 37.8734C85.2323 37.817 85.4658 37.7386 85.6106 37.638C85.7596 37.5333 85.834 37.3864 85.834 37.1973V37.1671C85.834 36.8572 85.7274 36.6177 85.514 36.4487C85.3007 36.2796 85.013 36.1951 84.6508 36.1951C84.2604 36.1951 83.9465 36.2796 83.709 36.4487C83.4716 36.6177 83.3206 36.8511 83.2562 37.149L80.5336 37.0524C80.6141 36.4889 80.8213 35.9858 81.1554 35.5431C81.4935 35.0964 81.9563 34.7463 82.5439 34.4927C83.1355 34.2351 83.8458 34.1063 84.6749 34.1063C85.2665 34.1063 85.8119 34.1768 86.3109 34.3176C86.81 34.4545 87.2446 34.6557 87.6149 34.9213C87.9852 35.1829 88.2709 35.5049 88.4721 35.8872C88.6774 36.2696 88.78 36.7063 88.78 37.1973V43.4998H86.003V42.2079H85.9306C85.7656 42.5218 85.5543 42.7875 85.2967 43.0048C85.0432 43.2221 84.7433 43.3851 84.3972 43.4938C84.0551 43.6024 83.6688 43.6568 83.2381 43.6568ZM84.1497 41.725C84.4676 41.725 84.7534 41.6606 85.0069 41.5318C85.2645 41.403 85.4698 41.2259 85.6227 41.0005C85.7756 40.7711 85.8521 40.5055 85.8521 40.2036V39.3223C85.7676 39.3665 85.665 39.4068 85.5442 39.443C85.4275 39.4792 85.2987 39.5134 85.1579 39.5456C85.017 39.5778 84.8721 39.606 84.7232 39.6301C84.5743 39.6543 84.4314 39.6764 84.2946 39.6965C84.0169 39.7408 83.7794 39.8092 83.5822 39.9018C83.389 39.9944 83.2401 40.1151 83.1355 40.264C83.0349 40.4089 82.9846 40.582 82.9846 40.7832C82.9846 41.0891 83.0932 41.3225 83.3106 41.4835C83.5319 41.6445 83.8116 41.725 84.1497 41.725ZM99.2481 34.2271L96.0666 43.4998H92.6859L89.5105 34.2271H92.6195L94.328 40.6142H94.4246L96.139 34.2271H99.2481ZM104.416 43.6749C103.446 43.6749 102.609 43.4837 101.904 43.1014C101.204 42.715 100.665 42.1657 100.286 41.4533C99.9121 40.7369 99.725 39.8857 99.725 38.8997C99.725 37.9418 99.9141 37.1047 100.292 36.3883C100.671 35.6679 101.204 35.1085 101.892 34.71C102.58 34.3076 103.391 34.1063 104.325 34.1063C104.985 34.1063 105.589 34.209 106.136 34.4142C106.684 34.6195 107.156 34.9233 107.555 35.3258C107.953 35.7283 108.263 36.2253 108.485 36.8169C108.706 37.4045 108.817 38.0786 108.817 38.8393V39.5758H100.757V37.8613H106.07C106.066 37.5474 105.991 37.2677 105.846 37.0222C105.702 36.7767 105.502 36.5855 105.249 36.4487C104.999 36.3078 104.711 36.2374 104.385 36.2374C104.055 36.2374 103.76 36.3118 103.498 36.4608C103.236 36.6056 103.029 36.8049 102.876 37.0584C102.723 37.3079 102.643 37.5917 102.635 37.9096V39.6543C102.635 40.0326 102.709 40.3646 102.858 40.6504C103.007 40.9321 103.218 41.1514 103.492 41.3084C103.766 41.4654 104.092 41.5438 104.47 41.5438C104.732 41.5438 104.969 41.5076 105.182 41.4352C105.396 41.3627 105.579 41.2561 105.732 41.1152C105.885 40.9744 105.999 40.8013 106.076 40.596L108.786 40.6745C108.674 41.2822 108.426 41.8115 108.044 42.2622C107.666 42.709 107.169 43.0571 106.553 43.3066C105.937 43.5521 105.225 43.6749 104.416 43.6749ZM113.276 38.2115V43.4998H110.324V34.2271H113.131V35.9295H113.234C113.439 35.362 113.79 34.9173 114.285 34.5953C114.78 34.2693 115.369 34.1063 116.053 34.1063C116.705 34.1063 117.271 34.2532 117.75 34.547C118.233 34.8368 118.607 35.2433 118.873 35.7665C119.142 36.2857 119.275 36.8934 119.271 37.5897V43.4998H116.319V38.1692C116.323 37.6541 116.192 37.2516 115.927 36.9618C115.665 36.672 115.301 36.5272 114.834 36.5272C114.524 36.5272 114.25 36.5956 114.013 36.7324C113.779 36.8652 113.598 37.0564 113.47 37.3059C113.345 37.5554 113.28 37.8573 113.276 38.2115Z" fill="url(#paint19_linear_1_172)"/>
</g>
<rect x="1.04994" y="1.04982" width="145.9" height="53.9" rx="6.95" stroke="white" stroke-opacity="0.15" stroke-width="2.1"/>
<defs>
<filter id="filter0_d_1_172" x="6.28565" y="1.90406" width="51.4286" height="52.5026" filterUnits="userSpaceOnUse" color-interpolation-filters="sRGB">
<feFlood flood-opacity="0" result="BackgroundImageFix"/>
<feColorMatrix in="SourceAlpha" type="matrix" values="0 0 0 0 0 0 0 0 0 0 0 0 0 0 0 0 0 0 127 0" result="hardAlpha"/>
<feOffset/>
<feGaussianBlur stdDeviation="2.85714"/>
<feComposite in2="hardAlpha" operator="out"/>
<feColorMatrix type="matrix" values="0 0 0 0 0 0 0 0 0 0 0 0 0 0 0 0 0 0 0.25 0"/>
<feBlend mode="normal" in2="BackgroundImageFix" result="effect1_dropShadow_1_172"/>
<feBlend mode="normal" in="SourceGraphic" in2="effect1_dropShadow_1_172" result="shape"/>
</filter>
<filter id="filter1_d_1_172" x="58.3999" y="3.89982" width="83.2" height="48.2" filterUnits="userSpaceOnUse" color-interpolation-filters="sRGB">
<feFlood flood-opacity="0" result="BackgroundImageFix"/>
<feColorMatrix in="SourceAlpha" type="matrix" values="0 0 0 0 0 0 0 0 0 0 0 0 0 0 0 0 0 0 127 0" result="hardAlpha"/>
<feOffset/>
<feGaussianBlur stdDeviation="2.8"/>
<feComposite in2="hardAlpha" operator="out"/>
<feColorMatrix type="matrix" values="0 0 0 0 0 0 0 0 0 0 0 0 0 0 0 0 0 0 0.25 0"/>
<feBlend mode="normal" in2="BackgroundImageFix" result="effect1_dropShadow_1_172"/>
<feBlend mode="normal" in="SourceGraphic" in2="effect1_dropShadow_1_172" result="shape"/>
</filter>
<linearGradient id="paint0_linear_1_172" x1="73.9999" y1="-0.000183105" x2="73.9999" y2="55.9998" gradientUnits="userSpaceOnUse">
<stop stop-color="#352008"/>
<stop offset="0.5" stop-color="#30080D"/>
<stop offset="1" stop-color="#12112E"/>
</linearGradient>
<linearGradient id="paint1_linear_1_172" x1="44.7848" y1="12.3969" x2="54.1488" y2="11.1566" gradientUnits="userSpaceOnUse">
<stop stop-color="#F69923"/>
<stop offset="0.3123" stop-color="#F79A23"/>
<stop offset="0.8383" stop-color="#E97826"/>
</linearGradient>
<linearGradient id="paint2_linear_1_172" x1="19.2679" y1="49.2299" x2="42.5146" y2="12.8595" gradientUnits="userSpaceOnUse">
<stop offset="0.3233" stop-color="#9E2064"/>
<stop offset="0.6302" stop-color="#C92037"/>
<stop offset="0.7514" stop-color="#CD2335"/>
<stop offset="1" stop-color="#E97826"/>
</linearGradient>
<linearGradient id="paint3_linear_1_172" x1="25.8388" y1="47.2459" x2="39.6916" y2="25.5727" gradientUnits="userSpaceOnUse">
<stop stop-color="#282662"/>
<stop offset="0.0954839" stop-color="#662E8D"/>
<stop offset="0.7882" stop-color="#9F2064"/>
<stop offset="0.9487" stop-color="#CD2032"/>
</linearGradient>
<linearGradient id="paint4_linear_1_172" x1="20.2715" y1="46.9945" x2="43.5182" y2="10.624" gradientUnits="userSpaceOnUse">
<stop offset="0.3233" stop-color="#9E2064"/>
<stop offset="0.6302" stop-color="#C92037"/>
<stop offset="0.7514" stop-color="#CD2335"/>
<stop offset="1" stop-color="#E97826"/>
</linearGradient>
<linearGradient id="paint5_linear_1_172" x1="22.5154" y1="44.6919" x2="34.7322" y2="25.5782" gradientUnits="userSpaceOnUse">
<stop stop-color="#282662"/>
<stop offset="0.0954839" stop-color="#662E8D"/>
<stop offset="0.7882" stop-color="#9F2064"/>
<stop offset="0.9487" stop-color="#CD2032"/>
</linearGradient>
<linearGradient id="paint6_linear_1_172" x1="24.0681" y1="49.4213" x2="47.3149" y2="13.0509" gradientUnits="userSpaceOnUse">
<stop offset="0.3233" stop-color="#9E2064"/>
<stop offset="0.6302" stop-color="#C92037"/>
<stop offset="0.7514" stop-color="#CD2335"/>
<stop offset="1" stop-color="#E97826"/>
</linearGradient>
<linearGradient id="paint7_linear_1_172" x1="22.3931" y1="51.5288" x2="45.6398" y2="15.1584" gradientUnits="userSpaceOnUse">
<stop offset="0.3233" stop-color="#9E2064"/>
<stop offset="0.6302" stop-color="#C92037"/>
<stop offset="0.7514" stop-color="#CD2335"/>
<stop offset="1" stop-color="#E97826"/>
</linearGradient>
<linearGradient id="paint8_linear_1_172" x1="25.197" y1="50.1433" x2="48.4438" y2="13.7729" gradientUnits="userSpaceOnUse">
<stop offset="0.3233" stop-color="#9E2064"/>
<stop offset="0.6302" stop-color="#C92037"/>
<stop offset="0.7514" stop-color="#CD2335"/>
<stop offset="1" stop-color="#E97826"/>
</linearGradient>
<linearGradient id="paint9_linear_1_172" x1="24.9832" y1="50.0494" x2="48.1636" y2="13.5749" gradientUnits="userSpaceOnUse">
<stop offset="0.3233" stop-color="#9E2064"/>
<stop offset="0.6302" stop-color="#C92037"/>
<stop offset="0.7514" stop-color="#CD2335"/>
<stop offset="1" stop-color="#E97826"/>
</linearGradient>
<linearGradient id="paint10_linear_1_172" x1="18.9454" y1="11.9503" x2="23.7713" y2="5.21264" gradientUnits="userSpaceOnUse">
<stop stop-color="#F69923"/>
<stop offset="0.3123" stop-color="#F79A23"/>
<stop offset="0.8383" stop-color="#E97826"/>
</linearGradient>
<linearGradient id="paint11_linear_1_172" x1="27.4943" y1="50.5941" x2="18.8934" y2="13.426" gradientUnits="userSpaceOnUse">
<stop offset="0.3233" stop-color="#9E2064"/>
<stop offset="0.6302" stop-color="#C92037"/>
<stop offset="0.7514" stop-color="#CD2335"/>
<stop offset="1" stop-color="#E97826"/>
</linearGradient>
<linearGradient id="paint12_linear_1_172" x1="30.2216" y1="45.2358" x2="25.0963" y2="23.0872" gradientUnits="userSpaceOnUse">
<stop stop-color="#282662"/>
<stop offset="0.0954839" stop-color="#662E8D"/>
<stop offset="0.7882" stop-color="#9F2064"/>
<stop offset="0.9487" stop-color="#CD2032"/>
</linearGradient>
<linearGradient id="paint13_linear_1_172" x1="26.6412" y1="48.5925" x2="18.0403" y2="11.4243" gradientUnits="userSpaceOnUse">
<stop offset="0.3233" stop-color="#9E2064"/>
<stop offset="0.6302" stop-color="#C92037"/>
<stop offset="0.7514" stop-color="#CD2335"/>
<stop offset="1" stop-color="#E97826"/>
</linearGradient>
<linearGradient id="paint14_linear_1_172" x1="26.5045" y1="45.7675" x2="21.9845" y2="26.2345" gradientUnits="userSpaceOnUse">
<stop stop-color="#282662"/>
<stop offset="0.0954839" stop-color="#662E8D"/>
<stop offset="0.7882" stop-color="#9F2064"/>
<stop offset="0.9487" stop-color="#CD2032"/>
</linearGradient>
<linearGradient id="paint15_linear_1_172" x1="30.5642" y1="47.6837" x2="21.9633" y2="10.5155" gradientUnits="userSpaceOnUse">
<stop offset="0.3233" stop-color="#9E2064"/>
<stop offset="0.6302" stop-color="#C92037"/>
<stop offset="0.7514" stop-color="#CD2335"/>
<stop offset="1" stop-color="#E97826"/>
</linearGradient>
<linearGradient id="paint16_linear_1_172" x1="30.9217" y1="50.0305" x2="22.3208" y2="12.8624" gradientUnits="userSpaceOnUse">
<stop offset="0.3233" stop-color="#9E2064"/>
<stop offset="0.6302" stop-color="#C92037"/>
<stop offset="0.7514" stop-color="#CD2335"/>
<stop offset="1" stop-color="#E97826"/>
</linearGradient>
<linearGradient id="paint17_linear_1_172" x1="31.731" y1="47.4141" x2="23.1302" y2="10.2459" gradientUnits="userSpaceOnUse">
<stop offset="0.3233" stop-color="#9E2064"/>
<stop offset="0.6302" stop-color="#C92037"/>
<stop offset="0.7514" stop-color="#CD2335"/>
<stop offset="1" stop-color="#E97826"/>
</linearGradient>
<linearGradient id="paint18_linear_1_172" x1="31.6043" y1="47.2122" x2="23.165" y2="10.3517" gradientUnits="userSpaceOnUse">
<stop offset="0.3233" stop-color="#9E2064"/>
<stop offset="0.6302" stop-color="#C92037"/>
<stop offset="0.7514" stop-color="#CD2335"/>
<stop offset="1" stop-color="#E97826"/>
</linearGradient>
<linearGradient id="paint19_linear_1_172" x1="92.4999" y1="28.4998" x2="92.4999" y2="46.4998" gradientUnits="userSpaceOnUse">
<stop stop-color="#FFB054"/>
<stop offset="1" stop-color="#CE5EC3"/>
</linearGradient>
</defs>
</svg>
