<svg width="144" height="56" viewBox="0 0 144 56" fill="none" xmlns="http://www.w3.org/2000/svg">
<rect x="-6.10352e-05" y="-0.00012207" width="144" height="56" rx="8" fill="url(#paint0_linear_40_102)"/>
<g filter="url(#filter0_d_40_102)">
<path fill-rule="evenodd" clip-rule="evenodd" d="M30.8925 9.46643C30.708 9.49818 30.4549 9.57712 30.3302 9.64194C30.1631 9.72874 16.4213 25.0137 13.9879 27.8196C13.6494 28.2098 13.1294 29.1745 12.838 29.9524C11.2196 34.2739 11.9622 37.942 14.918 40.2266C15.8038 40.9113 15.6614 40.8631 25.442 43.7824C35.9822 46.9285 35.4412 46.8002 36.0599 46.2992C36.4143 46.0123 51.5084 27.7728 51.676 27.4291C51.8766 27.0174 51.8855 26.5714 51.7032 26.0728C51.4353 25.3404 51.4159 24.2217 51.6576 23.4431C52.1048 22.0022 51.5229 20.9729 50.2641 20.9787C48.9521 20.9848 48.0419 23.0185 48.3394 25.2787C48.3916 25.6751 48.439 26.0901 48.4447 26.2011C48.4559 26.4179 34.7624 43.1074 34.5666 43.1154C34.3891 43.1227 17.1399 37.9712 16.8575 37.8265C14.9441 36.846 14.4534 32.4066 16.1618 31.5312C16.957 31.1237 15.5943 30.7858 30.2062 35.0141C34.4425 36.2401 34.482 36.2426 35.3161 35.3397C36.4598 34.1016 51.6954 16.3741 51.8367 16.117C52.0871 15.6615 52.0442 14.8929 51.7441 14.458C51.3426 13.876 51.6799 13.967 41.3015 11.6397C30.4061 9.19655 31.3347 9.39042 30.8925 9.46643ZM37.0914 17.1817C44.2244 18.9393 43.7231 18.6605 42.4664 20.1706C41.147 21.7559 41.7423 21.7692 34.5129 19.9939C26.9567 18.1383 27.4842 18.4235 28.7462 16.8757C30.0054 15.3315 29.5085 15.3134 37.0914 17.1817Z" fill="#31A4E7"/>
</g>
<g filter="url(#filter1_d_40_102)">
<path d="M61.2783 24.4999V12.8635H65.5397C66.3655 12.8635 67.0492 12.9999 67.5908 13.2726C68.1325 13.5415 68.5378 13.9071 68.8068 14.3692C69.0757 14.8275 69.2102 15.3446 69.2102 15.9203C69.2102 16.4052 69.1211 16.8143 68.9431 17.1476C68.7651 17.4771 68.5265 17.7423 68.2272 17.9431C67.9318 18.14 67.606 18.284 67.2499 18.3749V18.4885C67.6363 18.5075 68.0132 18.6325 68.3806 18.8635C68.7518 19.0908 69.0586 19.4146 69.3011 19.8351C69.5435 20.2556 69.6647 20.7669 69.6647 21.3692C69.6647 21.9639 69.5246 22.498 69.2443 22.9715C68.9677 23.4412 68.5397 23.8143 67.9602 24.0908C67.3806 24.3635 66.6401 24.4999 65.7386 24.4999H61.2783ZM63.034 22.9942H65.5681C66.409 22.9942 67.0113 22.8313 67.3749 22.5056C67.7386 22.1798 67.9204 21.7726 67.9204 21.284C67.9204 20.9165 67.8276 20.5794 67.642 20.2726C67.4564 19.9658 67.1912 19.7215 66.8465 19.5396C66.5056 19.3578 66.1003 19.2669 65.6306 19.2669H63.034V22.9942ZM63.034 17.8976H65.3863C65.7802 17.8976 66.1344 17.8218 66.4488 17.6703C66.767 17.5188 67.0189 17.3067 67.2045 17.034C67.3939 16.7575 67.4886 16.4317 67.4886 16.0567C67.4886 15.5756 67.32 15.1722 66.9829 14.8465C66.6458 14.5207 66.1287 14.3578 65.4318 14.3578H63.034V17.8976ZM77.1391 20.8806V15.7726H78.8437V24.4999H77.1732V22.9885H77.0823C76.8816 23.4544 76.5596 23.8427 76.1164 24.1533C75.677 24.4601 75.1297 24.6135 74.4744 24.6135C73.9138 24.6135 73.4175 24.4904 72.9857 24.2442C72.5577 23.9942 72.2206 23.6249 71.9744 23.1362C71.7319 22.6476 71.6107 22.0434 71.6107 21.3237V15.7726H73.3096V21.1192C73.3096 21.7139 73.4744 22.1874 73.8039 22.5396C74.1335 22.8919 74.5615 23.0681 75.088 23.0681C75.4062 23.0681 75.7225 22.9885 76.0369 22.8294C76.355 22.6703 76.6183 22.4298 76.8266 22.1078C77.0388 21.7859 77.1429 21.3768 77.1391 20.8806ZM81.1264 24.4999V15.7726H82.8252V24.4999H81.1264ZM81.9843 14.426C81.6889 14.426 81.4351 14.3275 81.2229 14.1306C81.0146 13.9298 80.9104 13.6912 80.9104 13.4146C80.9104 13.1343 81.0146 12.8957 81.2229 12.6987C81.4351 12.498 81.6889 12.3976 81.9843 12.3976C82.2798 12.3976 82.5317 12.498 82.74 12.6987C82.9521 12.8957 83.0582 13.1343 83.0582 13.4146C83.0582 13.6912 82.9521 13.9298 82.74 14.1306C82.5317 14.3275 82.2798 14.426 81.9843 14.426ZM86.8096 12.8635V24.4999H85.1107V12.8635H86.8096ZM93.169 15.7726V17.1362H88.4019V15.7726H93.169ZM89.6803 13.6817H91.3792V21.9374C91.3792 22.2669 91.4284 22.515 91.5269 22.6817C91.6254 22.8446 91.7523 22.9563 91.9076 23.0169C92.0667 23.0737 92.239 23.1021 92.4246 23.1021C92.561 23.1021 92.6803 23.0927 92.7826 23.0737C92.8849 23.0548 92.9644 23.0396 93.0212 23.0283L93.3281 24.4317C93.2296 24.4696 93.0894 24.5074 92.9076 24.5453C92.7258 24.587 92.4985 24.6097 92.2258 24.6135C91.7788 24.6211 91.3621 24.5415 90.9758 24.3749C90.5894 24.2082 90.2769 23.9506 90.0383 23.6021C89.7996 23.2537 89.6803 22.8162 89.6803 22.2896V13.6817ZM101.175 24.4999L98.6065 15.7726H100.362L102.072 22.1817H102.158L103.874 15.7726H105.629L107.334 22.1533H107.419L109.118 15.7726H110.874L108.311 24.4999H106.578L104.805 18.1987H104.675L102.902 24.4999H101.175ZM112.486 24.4999V15.7726H114.185V24.4999H112.486ZM113.344 14.426C113.048 14.426 112.794 14.3275 112.582 14.1306C112.374 13.9298 112.27 13.6912 112.27 13.4146C112.27 13.1343 112.374 12.8957 112.582 12.6987C112.794 12.498 113.048 12.3976 113.344 12.3976C113.639 12.3976 113.891 12.498 114.099 12.6987C114.311 12.8957 114.418 13.1343 114.418 13.4146C114.418 13.6912 114.311 13.9298 114.099 14.1306C113.891 14.3275 113.639 14.426 113.344 14.426ZM120.544 15.7726V17.1362H115.777V15.7726H120.544ZM117.055 13.6817H118.754V21.9374C118.754 22.2669 118.803 22.515 118.902 22.6817C119 22.8446 119.127 22.9563 119.283 23.0169C119.442 23.0737 119.614 23.1021 119.8 23.1021C119.936 23.1021 120.055 23.0927 120.158 23.0737C120.26 23.0548 120.339 23.0396 120.396 23.0283L120.703 24.4317C120.605 24.4696 120.464 24.5074 120.283 24.5453C120.101 24.587 119.874 24.6097 119.601 24.6135C119.154 24.6211 118.737 24.5415 118.351 24.3749C117.964 24.2082 117.652 23.9506 117.413 23.6021C117.175 23.2537 117.055 22.8162 117.055 22.2896V13.6817ZM124.31 19.3181V24.4999H122.611V12.8635H124.287V17.1931H124.395C124.599 16.7234 124.912 16.3503 125.332 16.0737C125.753 15.7972 126.302 15.659 126.98 15.659C127.579 15.659 128.101 15.7821 128.548 16.0283C128.999 16.2745 129.347 16.6419 129.594 17.1306C129.844 17.6154 129.969 18.2215 129.969 18.9487V24.4999H128.27V19.1533C128.27 18.5131 128.105 18.0169 127.775 17.6646C127.446 17.3086 126.988 17.1306 126.4 17.1306C125.999 17.1306 125.639 17.2158 125.321 17.3862C125.007 17.5567 124.758 17.8067 124.577 18.1362C124.399 18.462 124.31 18.8559 124.31 19.3181Z" fill="#E8E8E8"/>
<path d="M60.9357 31.1362H64.6363L67.7755 38.7911H67.9204L71.0596 31.1362H74.7602V43.4999H71.8504V35.9054H71.7478L68.7776 43.4214H66.9183L63.9481 35.8632H63.8455V43.4999H60.9357V31.1362ZM79.2864 41.067L79.2985 37.5475H79.709L82.317 34.2271H85.6614L81.7857 38.9842H81.0069L79.2864 41.067ZM76.6241 43.4999V31.1362H79.5762V43.4999H76.6241ZM82.3834 43.4999L79.9565 39.6483L81.9004 37.5535L85.7942 43.4999H82.3834ZM91.2878 43.4999H86.7179V31.1362H91.2818C92.5415 31.1362 93.6261 31.3838 94.5357 31.8788C95.4493 32.3698 96.1536 33.0781 96.6486 34.0038C97.1437 34.9254 97.3912 36.0282 97.3912 37.312C97.3912 38.5999 97.1437 39.7067 96.6486 40.6323C96.1576 41.558 95.4553 42.2683 94.5417 42.7634C93.6282 43.2544 92.5435 43.4999 91.2878 43.4999ZM89.7062 40.9523H91.1731C91.8654 40.9523 92.451 40.8356 92.9299 40.6021C93.4128 40.3647 93.7771 39.9803 94.0226 39.4491C94.2721 38.9138 94.3969 38.2015 94.3969 37.312C94.3969 36.4226 94.2721 35.7142 94.0226 35.187C93.773 34.6558 93.4048 34.2734 92.9178 34.04C92.4349 33.8026 91.8392 33.6838 91.1309 33.6838H89.7062V40.9523ZM103.464 43.6749C102.49 43.6749 101.653 43.4757 100.953 43.0773C100.257 42.6748 99.7194 42.1154 99.3411 41.399C98.9668 40.6786 98.7797 39.8435 98.7797 38.8937C98.7797 37.9399 98.9668 37.1048 99.3411 36.3884C99.7194 35.668 100.257 35.1085 100.953 34.7101C101.653 34.3076 102.49 34.1064 103.464 34.1064C104.438 34.1064 105.273 34.3076 105.97 34.7101C106.67 35.1085 107.207 35.668 107.582 36.3884C107.96 37.1048 108.149 37.9399 108.149 38.8937C108.149 39.8435 107.96 40.6786 107.582 41.399C107.207 42.1154 106.67 42.6748 105.97 43.0773C105.273 43.4757 104.438 43.6749 103.464 43.6749ZM103.482 41.4473C103.837 41.4473 104.136 41.3387 104.382 41.1213C104.627 40.904 104.815 40.6021 104.943 40.2158C105.076 39.8294 105.143 39.3827 105.143 38.8756C105.143 38.3604 105.076 37.9097 104.943 37.5233C104.815 37.1369 104.627 36.8351 104.382 36.6178C104.136 36.4004 103.837 36.2918 103.482 36.2918C103.116 36.2918 102.806 36.4004 102.553 36.6178C102.303 36.8351 102.112 37.1369 101.979 37.5233C101.85 37.9097 101.786 38.3604 101.786 38.8756C101.786 39.3827 101.85 39.8294 101.979 40.2158C102.112 40.6021 102.303 40.904 102.553 41.1213C102.806 41.3387 103.116 41.4473 103.482 41.4473ZM113.99 43.6749C113.012 43.6749 112.173 43.4737 111.472 43.0713C110.776 42.6688 110.241 42.1094 109.866 41.393C109.492 40.6726 109.305 39.8395 109.305 38.8937C109.305 37.9439 109.492 37.1108 109.866 36.3944C110.245 35.674 110.782 35.1126 111.478 34.7101C112.179 34.3076 113.014 34.1064 113.984 34.1064C114.841 34.1064 115.587 34.2614 116.223 34.5713C116.863 34.8811 117.362 35.3198 117.721 35.8873C118.083 36.4508 118.274 37.1128 118.294 37.8735H115.535C115.479 37.3985 115.318 37.0263 115.052 36.7566C114.791 36.487 114.449 36.3521 114.026 36.3521C113.684 36.3521 113.384 36.4487 113.126 36.6419C112.869 36.8311 112.668 37.1128 112.523 37.4871C112.382 37.8574 112.311 38.3162 112.311 38.8635C112.311 39.4109 112.382 39.8737 112.523 40.252C112.668 40.6263 112.869 40.91 113.126 41.1032C113.384 41.2924 113.684 41.3869 114.026 41.3869C114.3 41.3869 114.541 41.3286 114.75 41.2119C114.964 41.0952 115.139 40.9241 115.276 40.6987C115.412 40.4693 115.499 40.1916 115.535 39.8656H118.294C118.266 40.6303 118.075 41.2984 117.721 41.8699C117.37 42.4414 116.877 42.8861 116.241 43.2041C115.61 43.518 114.859 43.6749 113.99 43.6749ZM127.9 37.0585L125.19 37.1309C125.162 36.9377 125.085 36.7667 124.96 36.6178C124.836 36.4648 124.673 36.3461 124.471 36.2616C124.274 36.1731 124.045 36.1288 123.783 36.1288C123.441 36.1288 123.149 36.1972 122.908 36.334C122.67 36.4709 122.554 36.656 122.558 36.8894C122.554 37.0705 122.626 37.2275 122.775 37.3603C122.928 37.4931 123.2 37.5998 123.59 37.6803L125.377 38.0183C126.303 38.1954 126.991 38.4892 127.442 38.8997C127.896 39.3102 128.126 39.8536 128.13 40.5297C128.126 41.1656 127.937 41.719 127.562 42.1899C127.192 42.6607 126.685 43.027 126.041 43.2886C125.397 43.5462 124.66 43.6749 123.831 43.6749C122.507 43.6749 121.463 43.4033 120.698 42.86C119.938 42.3126 119.503 41.5801 119.394 40.6625L122.31 40.5901C122.375 40.9281 122.542 41.1857 122.811 41.3628C123.081 41.5399 123.425 41.6284 123.843 41.6284C124.222 41.6284 124.53 41.558 124.767 41.4171C125.005 41.2763 125.125 41.0891 125.129 40.8557C125.125 40.6464 125.033 40.4794 124.852 40.3546C124.671 40.2258 124.387 40.1252 124 40.0528L122.383 39.7449C121.453 39.5759 120.761 39.264 120.306 38.8092C119.851 38.3504 119.626 37.7668 119.63 37.0585C119.626 36.4387 119.791 35.9094 120.125 35.4708C120.459 35.028 120.934 34.69 121.549 34.4566C122.165 34.2231 122.892 34.1064 123.729 34.1064C124.984 34.1064 125.975 34.37 126.699 34.8972C127.423 35.4204 127.824 36.1409 127.9 37.0585Z" fill="#31A4E7"/>
</g>
<rect x="1.04994" y="1.04988" width="141.9" height="53.9" rx="6.95" stroke="white" stroke-opacity="0.15" stroke-width="2.1"/>
<defs>
<filter id="filter0_d_40_102" x="6.28565" y="2.28559" width="51.4286" height="51.4286" filterUnits="userSpaceOnUse" color-interpolation-filters="sRGB">
<feFlood flood-opacity="0" result="BackgroundImageFix"/>
<feColorMatrix in="SourceAlpha" type="matrix" values="0 0 0 0 0 0 0 0 0 0 0 0 0 0 0 0 0 0 127 0" result="hardAlpha"/>
<feOffset/>
<feGaussianBlur stdDeviation="2.85714"/>
<feComposite in2="hardAlpha" operator="out"/>
<feColorMatrix type="matrix" values="0 0 0 0 0 0 0 0 0 0 0 0 0 0 0 0 0 0 0.25 0"/>
<feBlend mode="normal" in2="BackgroundImageFix" result="effect1_dropShadow_40_102"/>
<feBlend mode="normal" in="SourceGraphic" in2="effect1_dropShadow_40_102" result="shape"/>
</filter>
<filter id="filter1_d_40_102" x="54.3999" y="3.89988" width="83.2" height="48.2" filterUnits="userSpaceOnUse" color-interpolation-filters="sRGB">
<feFlood flood-opacity="0" result="BackgroundImageFix"/>
<feColorMatrix in="SourceAlpha" type="matrix" values="0 0 0 0 0 0 0 0 0 0 0 0 0 0 0 0 0 0 127 0" result="hardAlpha"/>
<feOffset/>
<feGaussianBlur stdDeviation="2.8"/>
<feComposite in2="hardAlpha" operator="out"/>
<feColorMatrix type="matrix" values="0 0 0 0 0 0 0 0 0 0 0 0 0 0 0 0 0 0 0.25 0"/>
<feBlend mode="normal" in2="BackgroundImageFix" result="effect1_dropShadow_40_102"/>
<feBlend mode="normal" in="SourceGraphic" in2="effect1_dropShadow_40_102" result="shape"/>
</filter>
<linearGradient id="paint0_linear_40_102" x1="71.9999" y1="-0.00012207" x2="71.9999" y2="55.9999" gradientUnits="userSpaceOnUse">
<stop stop-color="#142E3D"/>
<stop offset="0.0001" stop-color="#112734"/>
<stop offset="1" stop-color="#04111A"/>
</linearGradient>
</defs>
</svg>
