<svg width="105" height="40" viewBox="0 0 105 40" fill="none" xmlns="http://www.w3.org/2000/svg">
<rect x="-6.10352e-05" y="-0.00012207" width="105" height="40" rx="6" fill="url(#paint0_linear_2_936)"/>
<g filter="url(#filter0_d_2_936)">
<path d="M23.5011 5.99988C23.2954 5.99988 23.1397 6.00139 23.083 6.00769C23.0228 6.01388 22.8311 6.03219 22.6588 6.04596C18.6818 6.40448 14.9567 8.54998 12.5974 11.8476C11.2836 13.6812 10.4433 15.7609 10.126 17.964C10.0138 18.7329 10 18.96 10 20.0027C10 21.0453 10.014 21.2725 10.126 22.0415C10.8867 27.2985 14.6283 31.7154 19.7029 33.3518C20.6116 33.6447 21.5696 33.8445 22.6589 33.9649C23.0831 34.0115 24.9169 34.0115 25.3411 33.9649C27.2214 33.7569 28.8145 33.2917 30.3855 32.4899C30.6264 32.3667 30.6729 32.3339 30.6401 32.3063C30.6182 32.2901 29.5916 30.9136 28.3601 29.2497L26.1213 26.2257L23.3157 22.0743C21.7721 19.7919 20.5021 17.9257 20.4911 17.9257C20.4801 17.9226 20.4693 19.7675 20.4637 22.0195C20.4559 25.9631 20.4528 26.1217 20.4035 26.2148C20.3323 26.349 20.2775 26.4036 20.1627 26.4638C20.0752 26.5074 19.9984 26.5157 19.5852 26.5157H19.1115L18.9857 26.4364C18.9077 26.3875 18.8444 26.3185 18.8023 26.2366L18.7448 26.1134L18.751 20.6266L18.7588 15.137L18.8435 15.0302C18.8874 14.9727 18.9805 14.899 19.0461 14.8634C19.1583 14.8086 19.2022 14.8031 19.6756 14.8031C20.2341 14.8031 20.3271 14.8249 20.4721 14.9836C20.5133 15.0275 22.0323 17.3154 23.8496 20.0712C25.6897 22.8605 27.5308 25.649 29.3731 28.4369L31.59 31.7948L31.702 31.7209C32.6958 31.075 33.7466 30.1555 34.5787 29.1978C36.3496 27.1644 37.4911 24.6851 37.8742 22.0414C37.9864 21.2725 38 21.0451 38 20.0027C38 18.96 37.986 18.7329 37.8742 17.9638C37.1133 12.7068 33.3718 8.28993 28.2973 6.65356C27.4023 6.36341 26.4498 6.16356 25.3824 6.04316C25.1852 6.02263 24.1183 6.00046 23.5014 5.99999L23.5011 5.99988ZM28.2478 14.4197C28.6529 14.4197 28.724 14.4259 28.8144 14.4745C28.9459 14.5401 29.0524 14.6661 29.0909 14.7974C29.1126 14.8685 29.1182 16.3902 29.1126 19.8192L29.1048 24.7396L28.2373 23.4096L27.3668 22.0796V18.5026C27.3668 16.1902 27.3776 14.8902 27.3941 14.8273C27.4378 14.6742 27.5336 14.5536 27.6651 14.4826C27.7772 14.425 27.8183 14.4196 28.2481 14.4196L28.2478 14.4197Z" fill="white"/>
</g>
<g filter="url(#filter1_d_2_936)">
<path d="M46.8788 17.9999V9.99988H49.8085C50.3762 9.99988 50.8463 10.0936 51.2187 10.2811C51.5911 10.466 51.8697 10.7173 52.0546 11.035C52.2395 11.3501 52.332 11.7056 52.332 12.1014C52.332 12.4348 52.2708 12.716 52.1484 12.9452C52.026 13.1718 51.8619 13.354 51.6562 13.4921C51.4531 13.6275 51.2291 13.7264 50.9843 13.7889V13.8671C51.2499 13.8801 51.5091 13.966 51.7617 14.1249C52.0169 14.2811 52.2278 14.5038 52.3945 14.7928C52.5611 15.0819 52.6445 15.4335 52.6445 15.8475C52.6445 16.2564 52.5481 16.6236 52.3554 16.9491C52.1653 17.272 51.871 17.5285 51.4726 17.7186C51.0742 17.9061 50.565 17.9999 49.9453 17.9999H46.8788ZM48.0859 16.9647H49.8281C50.4062 16.9647 50.8203 16.8527 51.0702 16.6288C51.3203 16.4048 51.4453 16.1249 51.4453 15.7889C51.4453 15.5363 51.3814 15.3046 51.2538 15.0936C51.1262 14.8827 50.9439 14.7147 50.707 14.5897C50.4726 14.4647 50.1939 14.4022 49.871 14.4022H48.0859V16.9647ZM48.0859 13.4608H49.7031C49.9739 13.4608 50.2174 13.4087 50.4335 13.3046C50.6523 13.2004 50.8255 13.0546 50.9531 12.8671C51.0833 12.677 51.1484 12.453 51.1484 12.1952C51.1484 11.8645 51.0325 11.5871 50.8007 11.3632C50.5689 11.1392 50.2135 11.0272 49.7343 11.0272H48.0859V13.4608ZM57.7831 15.5116V11.9999H58.955V17.9999H57.8066V16.9608H57.7441C57.6061 17.2811 57.3847 17.5481 57.08 17.7616C56.7779 17.9725 56.4016 18.078 55.9511 18.078C55.5657 18.078 55.2245 17.9934 54.9277 17.8241C54.6334 17.6522 54.4016 17.3983 54.2324 17.0624C54.0657 16.7264 53.9824 16.3111 53.9824 15.8163V11.9999H55.1503V15.6757C55.1503 16.0845 55.2636 16.41 55.4902 16.6522C55.7167 16.8944 56.011 17.0155 56.373 17.0155C56.5917 17.0155 56.8092 16.9608 57.0253 16.8514C57.2441 16.7421 57.4251 16.5767 57.5683 16.3553C57.7141 16.134 57.7857 15.8527 57.7831 15.5116ZM60.5243 17.9999V11.9999H61.6923V17.9999H60.5243ZM61.1142 11.0741C60.9111 11.0741 60.7366 11.0064 60.5908 10.871C60.4475 10.7329 60.3759 10.5689 60.3759 10.3788C60.3759 10.1861 60.4475 10.022 60.5908 9.8866C60.7366 9.74857 60.9111 9.67956 61.1142 9.67956C61.3173 9.67956 61.4905 9.74857 61.6337 9.8866C61.7796 10.022 61.8525 10.1861 61.8525 10.3788C61.8525 10.5689 61.7796 10.7329 61.6337 10.871C61.4905 11.0064 61.3173 11.0741 61.1142 11.0741ZM64.4316 9.99988V17.9999H63.2636V9.99988H64.4316ZM68.8036 11.9999V12.9374H65.5263V11.9999H68.8036ZM66.4052 10.5624H67.5732V16.2382C67.5732 16.4647 67.607 16.6353 67.6747 16.7499C67.7424 16.8619 67.8297 16.9387 67.9365 16.9803C68.0458 17.0194 68.1643 17.0389 68.2919 17.0389C68.3857 17.0389 68.4677 17.0324 68.538 17.0194C68.6083 17.0064 68.663 16.996 68.7021 16.9882L68.913 17.953C68.8453 17.979 68.749 18.0051 68.624 18.0311C68.499 18.0598 68.3427 18.0754 68.1552 18.078C67.8479 18.0832 67.5615 18.0285 67.2958 17.9139C67.0302 17.7994 66.8154 17.6223 66.6513 17.3827C66.4872 17.1431 66.4052 16.8423 66.4052 16.4803V10.5624ZM74.3075 17.9999L72.5419 11.9999H73.749L74.9247 16.4061H74.9833L76.163 11.9999H77.37L78.5419 16.3866H78.6005L79.7685 11.9999H80.9755L79.2138 17.9999H78.0224L76.8036 13.6678H76.7138L75.495 17.9999H74.3075ZM82.0839 17.9999V11.9999H83.2519V17.9999H82.0839ZM82.6738 11.0741C82.4706 11.0741 82.2962 11.0064 82.1503 10.871C82.0071 10.7329 81.9355 10.5689 81.9355 10.3788C81.9355 10.1861 82.0071 10.022 82.1503 9.8866C82.2962 9.74857 82.4706 9.67956 82.6738 9.67956C82.8769 9.67956 83.0501 9.74857 83.1933 9.8866C83.3391 10.022 83.412 10.1861 83.412 10.3788C83.412 10.5689 83.3391 10.7329 83.1933 10.871C83.0501 11.0064 82.8769 11.0741 82.6738 11.0741ZM87.624 11.9999V12.9374H84.3466V11.9999H87.624ZM85.2255 10.5624H86.3935V16.2382C86.3935 16.4647 86.4273 16.6353 86.495 16.7499C86.5628 16.8619 86.65 16.9387 86.7568 16.9803C86.8661 17.0194 86.9846 17.0389 87.1122 17.0389C87.206 17.0389 87.288 17.0324 87.3583 17.0194C87.4286 17.0064 87.4833 16.996 87.5224 16.9882L87.7333 17.953C87.6656 17.979 87.5693 18.0051 87.4443 18.0311C87.3193 18.0598 87.163 18.0754 86.9755 18.078C86.6682 18.0832 86.3818 18.0285 86.1161 17.9139C85.8505 17.7994 85.6357 17.6223 85.4716 17.3827C85.3075 17.1431 85.2255 16.8423 85.2255 16.4803V10.5624ZM90.2128 14.4374V17.9999H89.0448V9.99988H90.1972V12.9764H90.2714C90.412 12.6535 90.6269 12.397 90.9159 12.2069C91.205 12.0168 91.5826 11.9218 92.0488 11.9218C92.4602 11.9218 92.8196 12.0064 93.1269 12.1757C93.4368 12.3449 93.6764 12.5975 93.8456 12.9335C94.0175 13.2668 94.1034 13.6835 94.1034 14.1835V17.9999H92.9355V14.3241C92.9355 13.884 92.8222 13.5428 92.5956 13.3007C92.3691 13.0559 92.054 12.9335 91.6503 12.9335C91.3743 12.9335 91.1269 12.9921 90.9081 13.1093C90.692 13.2264 90.5214 13.3983 90.3964 13.6249C90.274 13.8488 90.2128 14.1197 90.2128 14.4374Z" fill="#E8E8E8"/>
<path d="M54.088 22.2726V30.9999H52.2982L48.8252 25.9629H48.7698V30.9999H46.6605V22.2726H48.4758L51.9104 27.301H51.9829V22.2726H54.088ZM58.474 31.1235C57.7894 31.1235 57.1984 30.9885 56.7013 30.7186C56.207 30.4459 55.8263 30.0581 55.5592 29.5553C55.295 29.0496 55.1629 28.4487 55.1629 27.7527C55.1629 27.0766 55.2965 26.4857 55.5635 25.98C55.8305 25.4715 56.207 25.0766 56.6928 24.7953C57.1786 24.5112 57.751 24.3692 58.4101 24.3692C58.876 24.3692 59.3021 24.4416 59.6885 24.5865C60.0749 24.7314 60.4087 24.9459 60.6899 25.23C60.9712 25.5141 61.1899 25.8649 61.3462 26.2825C61.5024 26.6973 61.5805 27.1732 61.5805 27.7101V28.23H55.8916V27.0198H59.6416C59.6388 26.7982 59.5862 26.6007 59.484 26.4274C59.3817 26.2541 59.2411 26.1192 59.0621 26.0226C58.8859 25.9232 58.6828 25.8735 58.4527 25.8735C58.2198 25.8735 58.0109 25.926 57.8263 26.0311C57.6416 26.1334 57.4953 26.274 57.3874 26.453C57.2794 26.6291 57.2226 26.8294 57.2169 27.0539V28.2854C57.2169 28.5524 57.2695 28.7868 57.3746 28.9885C57.4797 29.1874 57.6288 29.3422 57.822 29.453C58.0152 29.5638 58.2453 29.6192 58.5124 29.6192C58.697 29.6192 58.8646 29.5936 59.0152 29.5425C59.1658 29.4914 59.295 29.4161 59.403 29.3166C59.5109 29.2172 59.5919 29.095 59.6459 28.9502L61.5592 29.0056C61.4797 29.4345 61.305 29.8081 61.0351 30.1263C60.768 30.4416 60.4172 30.6874 59.9825 30.8635C59.5479 31.0368 59.045 31.1235 58.474 31.1235ZM64.3238 24.4544L65.4019 26.6107L66.5184 24.4544H68.6193L66.7911 27.7271L68.6874 30.9999H66.6036L65.4019 28.8266L64.23 30.9999H62.1164L64.017 27.7271L62.2102 24.4544H64.3238ZM73.2652 24.4544V25.9885H69.1359V24.4544H73.2652ZM70.001 22.8862H72.0848V28.9416C72.0848 29.0695 72.1047 29.1732 72.1445 29.2527C72.1871 29.3294 72.2482 29.3848 72.3277 29.4189C72.4072 29.4502 72.5024 29.4658 72.6132 29.4658C72.6928 29.4658 72.7766 29.4587 72.8646 29.4445C72.9555 29.4274 73.0237 29.4132 73.0692 29.4019L73.3845 30.9061C73.2851 30.9345 73.1445 30.97 72.9626 31.0127C72.7837 31.0553 72.5692 31.0823 72.3192 31.0936C71.8305 31.1164 71.4115 31.0595 71.0621 30.9232C70.7155 30.784 70.4499 30.5681 70.2652 30.2754C70.0834 29.9828 69.9953 29.6149 70.001 29.1718V22.8862ZM75.5003 31.1235C75.1935 31.1235 74.9307 31.0155 74.7119 30.7996C74.496 30.5837 74.3895 30.3223 74.3923 30.0155C74.3895 29.7144 74.496 29.4573 74.7119 29.2442C74.9307 29.0283 75.1935 28.9203 75.5003 28.9203C75.7901 28.9203 76.0457 29.0283 76.2673 29.2442C76.4918 29.4573 76.6054 29.7144 76.6082 30.0155C76.6054 30.22 76.5514 30.4061 76.4463 30.5737C76.344 30.7414 76.2091 30.8749 76.0415 30.9743C75.8767 31.0737 75.6963 31.1235 75.5003 31.1235ZM77.9847 24.4544H80.0685V31.2726C80.0685 31.8124 79.9577 32.2414 79.7361 32.5595C79.5173 32.8777 79.2077 33.1064 78.8071 33.2456C78.4065 33.3848 77.9335 33.4544 77.3881 33.4544C77.3142 33.4544 77.2446 33.453 77.1793 33.4502C77.1139 33.4473 77.0429 33.4445 76.9662 33.4416V31.8607C77.0173 31.8664 77.0628 31.8706 77.1026 31.8735C77.1423 31.8763 77.1821 31.8777 77.2219 31.8777C77.5088 31.8777 77.7077 31.8237 77.8185 31.7158C77.9293 31.6107 77.9847 31.4487 77.9847 31.23V24.4544ZM79.0244 23.6916C78.7318 23.6916 78.4804 23.595 78.2702 23.4019C78.0599 23.2058 77.9548 22.97 77.9548 22.6945C77.9548 22.4218 78.0599 22.1888 78.2702 21.9956C78.4804 21.7996 78.7318 21.7016 79.0244 21.7016C79.3199 21.7016 79.5713 21.7996 79.7787 21.9956C79.9889 22.1888 80.094 22.4218 80.094 22.6945C80.094 22.97 79.9889 23.2058 79.7787 23.4019C79.5713 23.595 79.3199 23.6916 79.0244 23.6916ZM87.1093 26.453L85.196 26.5041C85.1761 26.3678 85.1221 26.247 85.034 26.1419C84.946 26.034 84.8309 25.9502 84.6888 25.8905C84.5496 25.828 84.3877 25.7968 84.2031 25.7968C83.9616 25.7968 83.7556 25.845 83.5852 25.9416C83.4175 26.0382 83.3352 26.1689 83.338 26.3337C83.3352 26.4615 83.3863 26.5723 83.4914 26.6661C83.5994 26.7598 83.7911 26.8351 84.0667 26.8919L85.3281 27.1306C85.9815 27.2556 86.4673 27.4629 86.7854 27.7527C87.1065 28.0425 87.2684 28.426 87.2712 28.9033C87.2684 29.3521 87.1349 29.7428 86.8707 30.0752C86.6093 30.4075 86.2513 30.6661 85.7968 30.8507C85.3423 31.0325 84.8224 31.1235 84.2371 31.1235C83.3025 31.1235 82.5653 30.9317 82.0255 30.5482C81.4886 30.1618 81.1817 29.6448 81.105 28.997L83.1633 28.9459C83.2087 29.1845 83.3266 29.3664 83.517 29.4914C83.7073 29.6164 83.9502 29.6789 84.2457 29.6789C84.5127 29.6789 84.73 29.6291 84.8977 29.5297C85.0653 29.4303 85.1505 29.2982 85.1533 29.1334C85.1505 28.9857 85.0852 28.8678 84.9573 28.7797C84.8295 28.6888 84.6292 28.6178 84.3565 28.5666L83.2144 28.3493C82.5582 28.23 82.0695 28.0098 81.7485 27.6888C81.4275 27.3649 81.2684 26.953 81.2712 26.453C81.2684 26.0155 81.3849 25.6419 81.6207 25.3323C81.8565 25.0198 82.1917 24.7811 82.6263 24.6164C83.061 24.4516 83.5738 24.3692 84.1647 24.3692C85.0511 24.3692 85.7499 24.5553 86.2613 24.9274C86.7727 25.2968 87.0553 25.8053 87.1093 26.453Z" fill="white"/>
</g>
<rect x="0.749939" y="0.749878" width="103.5" height="38.5" rx="5.25" stroke="white" stroke-opacity="0.15" stroke-width="1.5"/>
<defs>
<filter id="filter0_d_2_936" x="5.99994" y="1.99988" width="36.0001" height="36" filterUnits="userSpaceOnUse" color-interpolation-filters="sRGB">
<feFlood flood-opacity="0" result="BackgroundImageFix"/>
<feColorMatrix in="SourceAlpha" type="matrix" values="0 0 0 0 0 0 0 0 0 0 0 0 0 0 0 0 0 0 127 0" result="hardAlpha"/>
<feOffset/>
<feGaussianBlur stdDeviation="2"/>
<feComposite in2="hardAlpha" operator="out"/>
<feColorMatrix type="matrix" values="0 0 0 0 0 0 0 0 0 0 0 0 0 0 0 0 0 0 0.25 0"/>
<feBlend mode="normal" in2="BackgroundImageFix" result="effect1_dropShadow_2_936"/>
<feBlend mode="normal" in="SourceGraphic" in2="effect1_dropShadow_2_936" result="shape"/>
</filter>
<filter id="filter1_d_2_936" x="41.9999" y="2.99988" width="57" height="34.4546" filterUnits="userSpaceOnUse" color-interpolation-filters="sRGB">
<feFlood flood-opacity="0" result="BackgroundImageFix"/>
<feColorMatrix in="SourceAlpha" type="matrix" values="0 0 0 0 0 0 0 0 0 0 0 0 0 0 0 0 0 0 127 0" result="hardAlpha"/>
<feOffset/>
<feGaussianBlur stdDeviation="2"/>
<feComposite in2="hardAlpha" operator="out"/>
<feColorMatrix type="matrix" values="0 0 0 0 0 0 0 0 0 0 0 0 0 0 0 0 0 0 0.25 0"/>
<feBlend mode="normal" in2="BackgroundImageFix" result="effect1_dropShadow_2_936"/>
<feBlend mode="normal" in="SourceGraphic" in2="effect1_dropShadow_2_936" result="shape"/>
</filter>
<linearGradient id="paint0_linear_2_936" x1="52.4999" y1="-0.00012207" x2="52.4999" y2="39.9999" gradientUnits="userSpaceOnUse">
<stop stop-color="#1E1E1E"/>
<stop offset="1" stop-color="#0D0D0D"/>
</linearGradient>
</defs>
</svg>
