<svg width="144" height="56" viewBox="0 0 144 56" fill="none" xmlns="http://www.w3.org/2000/svg">
<rect x="-6.10352e-05" y="-0.000244141" width="144" height="56" rx="8" fill="url(#paint0_linear_2_945)"/>
<g filter="url(#filter0_d_2_945)">
<path d="M31.2876 7.99976C30.9938 7.99976 30.7713 8.00192 30.6903 8.01092C30.6043 8.01976 30.3305 8.04592 30.0843 8.06559C24.4029 8.57776 19.0814 11.6428 15.7108 16.3536C13.834 18.9731 12.6336 21.9441 12.1803 25.0914C12.02 26.1898 12.0003 26.5143 12.0003 28.0038C12.0003 29.4933 12.0203 29.8178 12.1803 30.9164C13.267 38.4264 18.6122 44.7363 25.8616 47.0739C27.1598 47.4924 28.5283 47.7778 30.0845 47.9498C30.6905 48.0164 33.3102 48.0164 33.9162 47.9498C36.6023 47.6526 38.8782 46.9881 41.1224 45.8426C41.4666 45.6666 41.5331 45.6198 41.4862 45.5804C41.4549 45.5573 39.9884 43.5908 38.229 41.2138L35.0307 36.8938L31.0228 30.9633C28.8176 27.7026 27.0033 25.0366 26.9876 25.0366C26.9719 25.0323 26.9564 27.6678 26.9484 30.8849C26.9373 36.5186 26.9329 36.7453 26.8624 36.8783C26.7608 37.0699 26.6824 37.1479 26.5184 37.2339C26.3934 37.2963 26.2838 37.3081 25.6934 37.3081H25.0167L24.8371 37.1948C24.7257 37.125 24.6351 37.0264 24.5751 36.9094L24.4929 36.7334L24.5017 28.8951L24.5129 21.0528L24.6339 20.9003C24.6966 20.8181 24.8296 20.7128 24.9232 20.6619C25.0836 20.5836 25.1462 20.5758 25.8226 20.5758C26.6204 20.5758 26.7533 20.6069 26.9604 20.8336C27.0193 20.8964 29.1893 24.1648 31.7855 28.1016C34.4141 32.0863 37.0444 36.07 39.6762 40.0526L42.8432 44.8496L43.0032 44.7441C44.4229 43.8214 45.9241 42.5078 47.1128 41.1396C49.6426 38.2348 51.2733 34.6929 51.8206 30.9163C51.9808 29.8178 52.0003 29.4929 52.0003 28.0038C52.0003 26.5143 51.9803 26.1898 51.8206 25.0911C50.7336 17.5811 45.3886 11.2713 38.1394 8.93359C36.8607 8.51909 35.5 8.23359 33.9752 8.06159C33.6935 8.03226 32.1693 8.00059 31.288 7.99992L31.2876 7.99976ZM38.0685 20.0281C38.6474 20.0281 38.7489 20.0369 38.878 20.1064C39.0659 20.2001 39.218 20.3801 39.273 20.5676C39.304 20.6693 39.312 22.8431 39.304 27.7416L39.2929 34.7708L38.0535 32.8708L36.81 30.9708V25.8608C36.81 22.5574 36.8255 20.7003 36.849 20.6104C36.9115 20.3916 37.0483 20.2194 37.2362 20.1179C37.3963 20.0356 37.455 20.0279 38.069 20.0279L38.0685 20.0281Z" fill="white"/>
</g>
<g filter="url(#filter1_d_2_945)">
<path d="M61.2783 24.4998V12.8634H65.5397C66.3655 12.8634 67.0492 12.9998 67.5908 13.2725C68.1325 13.5414 68.5378 13.907 68.8068 14.3691C69.0757 14.8274 69.2102 15.3445 69.2102 15.9202C69.2102 16.4051 69.1211 16.8141 68.9431 17.1475C68.7651 17.477 68.5265 17.7422 68.2272 17.9429C67.9318 18.1399 67.606 18.2838 67.2499 18.3748V18.4884C67.6363 18.5073 68.0132 18.6323 68.3806 18.8634C68.7518 19.0907 69.0586 19.4145 69.3011 19.835C69.5435 20.2554 69.6647 20.7668 69.6647 21.3691C69.6647 21.9638 69.5246 22.4979 69.2443 22.9713C68.9677 23.441 68.5397 23.8141 67.9602 24.0907C67.3806 24.3634 66.6401 24.4998 65.7386 24.4998H61.2783ZM63.034 22.9941H65.5681C66.409 22.9941 67.0113 22.8312 67.3749 22.5054C67.7386 22.1797 67.9204 21.7725 67.9204 21.2838C67.9204 20.9164 67.8276 20.5793 67.642 20.2725C67.4564 19.9657 67.1912 19.7213 66.8465 19.5395C66.5056 19.3577 66.1003 19.2668 65.6306 19.2668H63.034V22.9941ZM63.034 17.8975H65.3863C65.7802 17.8975 66.1344 17.8217 66.4488 17.6702C66.767 17.5187 67.0189 17.3066 67.2045 17.0338C67.3939 16.7573 67.4886 16.4316 67.4886 16.0566C67.4886 15.5755 67.32 15.1721 66.9829 14.8463C66.6458 14.5206 66.1287 14.3577 65.4318 14.3577H63.034V17.8975ZM77.1391 20.8804V15.7725H78.8437V24.4998H77.1732V22.9884H77.0823C76.8816 23.4543 76.5596 23.8426 76.1164 24.1532C75.677 24.46 75.1297 24.6134 74.4744 24.6134C73.9138 24.6134 73.4175 24.4903 72.9857 24.2441C72.5577 23.9941 72.2206 23.6248 71.9744 23.1361C71.7319 22.6475 71.6107 22.0433 71.6107 21.3236V15.7725H73.3096V21.1191C73.3096 21.7138 73.4744 22.1873 73.8039 22.5395C74.1335 22.8918 74.5615 23.0679 75.088 23.0679C75.4062 23.0679 75.7225 22.9884 76.0369 22.8293C76.355 22.6702 76.6183 22.4297 76.8266 22.1077C77.0388 21.7857 77.1429 21.3766 77.1391 20.8804ZM81.1264 24.4998V15.7725H82.8252V24.4998H81.1264ZM81.9843 14.4259C81.6889 14.4259 81.4351 14.3274 81.2229 14.1304C81.0146 13.9297 80.9104 13.691 80.9104 13.4145C80.9104 13.1342 81.0146 12.8956 81.2229 12.6986C81.4351 12.4979 81.6889 12.3975 81.9843 12.3975C82.2798 12.3975 82.5317 12.4979 82.74 12.6986C82.9521 12.8956 83.0582 13.1342 83.0582 13.4145C83.0582 13.691 82.9521 13.9297 82.74 14.1304C82.5317 14.3274 82.2798 14.4259 81.9843 14.4259ZM86.8096 12.8634V24.4998H85.1107V12.8634H86.8096ZM93.169 15.7725V17.1361H88.4019V15.7725H93.169ZM89.6803 13.6816H91.3792V21.9373C91.3792 22.2668 91.4284 22.5149 91.5269 22.6816C91.6254 22.8444 91.7523 22.9562 91.9076 23.0168C92.0667 23.0736 92.239 23.102 92.4246 23.102C92.561 23.102 92.6803 23.0926 92.7826 23.0736C92.8849 23.0547 92.9644 23.0395 93.0212 23.0282L93.3281 24.4316C93.2296 24.4694 93.0894 24.5073 92.9076 24.5452C92.7258 24.5869 92.4985 24.6096 92.2258 24.6134C91.7788 24.621 91.3621 24.5414 90.9758 24.3748C90.5894 24.2081 90.2769 23.9505 90.0383 23.602C89.7996 23.2535 89.6803 22.816 89.6803 22.2895V13.6816ZM101.175 24.4998L98.6065 15.7725H100.362L102.072 22.1816H102.158L103.874 15.7725H105.629L107.334 22.1532H107.419L109.118 15.7725H110.874L108.311 24.4998H106.578L104.805 18.1986H104.675L102.902 24.4998H101.175ZM112.486 24.4998V15.7725H114.185V24.4998H112.486ZM113.344 14.4259C113.048 14.4259 112.794 14.3274 112.582 14.1304C112.374 13.9297 112.27 13.691 112.27 13.4145C112.27 13.1342 112.374 12.8956 112.582 12.6986C112.794 12.4979 113.048 12.3975 113.344 12.3975C113.639 12.3975 113.891 12.4979 114.099 12.6986C114.311 12.8956 114.418 13.1342 114.418 13.4145C114.418 13.691 114.311 13.9297 114.099 14.1304C113.891 14.3274 113.639 14.4259 113.344 14.4259ZM120.544 15.7725V17.1361H115.777V15.7725H120.544ZM117.055 13.6816H118.754V21.9373C118.754 22.2668 118.803 22.5149 118.902 22.6816C119 22.8444 119.127 22.9562 119.283 23.0168C119.442 23.0736 119.614 23.102 119.8 23.102C119.936 23.102 120.055 23.0926 120.158 23.0736C120.26 23.0547 120.339 23.0395 120.396 23.0282L120.703 24.4316C120.605 24.4694 120.464 24.5073 120.283 24.5452C120.101 24.5869 119.874 24.6096 119.601 24.6134C119.154 24.621 118.737 24.5414 118.351 24.3748C117.964 24.2081 117.652 23.9505 117.413 23.602C117.175 23.2535 117.055 22.816 117.055 22.2895V13.6816ZM124.31 19.3179V24.4998H122.611V12.8634H124.287V17.1929H124.395C124.599 16.7232 124.912 16.3501 125.332 16.0736C125.753 15.7971 126.302 15.6588 126.98 15.6588C127.579 15.6588 128.101 15.782 128.548 16.0282C128.999 16.2744 129.347 16.6418 129.594 17.1304C129.844 17.6153 129.969 18.2213 129.969 18.9486V24.4998H128.27V19.1532C128.27 18.513 128.105 18.0168 127.775 17.6645C127.446 17.3085 126.988 17.1304 126.4 17.1304C125.999 17.1304 125.639 17.2157 125.321 17.3861C125.007 17.5566 124.758 17.8066 124.577 18.1361C124.399 18.4619 124.31 18.8558 124.31 19.3179Z" fill="#E8E8E8"/>
<path d="M71.458 31.1361V43.4998H68.9225L64.0024 36.3641H63.9239V43.4998H60.9357V31.1361H63.5074L68.3732 38.2597H68.4758V31.1361H71.458ZM77.6715 43.6748C76.7016 43.6748 75.8645 43.4837 75.1602 43.1013C74.4599 42.715 73.9206 42.1656 73.5423 41.4532C73.168 40.7368 72.9808 39.8856 72.9808 38.8996C72.9808 37.9418 73.17 37.1046 73.5483 36.3882C73.9266 35.6678 74.4599 35.1084 75.1481 34.71C75.8363 34.3075 76.6473 34.1063 77.581 34.1063C78.241 34.1063 78.8447 34.2089 79.3921 34.4142C79.9394 34.6194 80.4123 34.9233 80.8107 35.3257C81.2092 35.7282 81.5191 36.2253 81.7404 36.8169C81.9618 37.4045 82.0725 38.0786 82.0725 38.8392V39.5757H74.0132V37.8613H79.3257C79.3216 37.5473 79.2472 37.2676 79.1023 37.0221C78.9574 36.7766 78.7582 36.5855 78.5046 36.4486C78.2551 36.3078 77.9674 36.2373 77.6414 36.2373C77.3113 36.2373 77.0155 36.3118 76.7539 36.4607C76.4923 36.6056 76.2851 36.8048 76.1321 37.0583C75.9792 37.3079 75.8987 37.5916 75.8906 37.9096V39.6542C75.8906 40.0325 75.9651 40.3646 76.114 40.6503C76.2629 40.932 76.4742 41.1514 76.7479 41.3083C77.0216 41.4653 77.3476 41.5438 77.7259 41.5438C77.9875 41.5438 78.2249 41.5076 78.4382 41.4351C78.6515 41.3627 78.8347 41.256 78.9876 41.1152C79.1405 40.9743 79.2552 40.8012 79.3317 40.596L82.0423 40.6745C81.9296 41.2822 81.6821 41.8114 81.2997 42.2622C80.9214 42.7089 80.4244 43.057 79.8086 43.3066C79.1928 43.5521 78.4805 43.6748 77.6715 43.6748ZM85.9587 34.227L87.4861 37.2817L89.0678 34.227H92.044L89.4541 38.8634L92.1406 43.4998H89.1885L87.4861 40.4209L85.8259 43.4998H82.8316L85.5241 38.8634L82.9644 34.227H85.9587ZM98.6257 34.227V36.4003H92.7759V34.227H98.6257ZM94.0014 32.0054H96.9535V40.5839C96.9535 40.765 96.9817 40.9119 97.038 41.0246C97.0984 41.1333 97.1849 41.2118 97.2976 41.2601C97.4103 41.3043 97.5451 41.3265 97.7021 41.3265C97.8148 41.3265 97.9335 41.3164 98.0583 41.2963C98.187 41.2721 98.2836 41.252 98.348 41.2359L98.7948 43.3669C98.6539 43.4072 98.4547 43.4575 98.1971 43.5179C97.9436 43.5782 97.6397 43.6165 97.2855 43.6326C96.5933 43.6648 95.9997 43.5843 95.5046 43.3911C95.0136 43.1939 94.6373 42.888 94.3757 42.4735C94.1182 42.0589 93.9934 41.5377 94.0014 40.9099V32.0054Z" fill="white"/>
</g>
<rect x="1.04994" y="1.04976" width="141.9" height="53.9" rx="6.95" stroke="white" stroke-opacity="0.15" stroke-width="2.1"/>
<defs>
<filter id="filter0_d_2_945" x="6.28565" y="2.28547" width="51.4289" height="51.4286" filterUnits="userSpaceOnUse" color-interpolation-filters="sRGB">
<feFlood flood-opacity="0" result="BackgroundImageFix"/>
<feColorMatrix in="SourceAlpha" type="matrix" values="0 0 0 0 0 0 0 0 0 0 0 0 0 0 0 0 0 0 127 0" result="hardAlpha"/>
<feOffset/>
<feGaussianBlur stdDeviation="2.85714"/>
<feComposite in2="hardAlpha" operator="out"/>
<feColorMatrix type="matrix" values="0 0 0 0 0 0 0 0 0 0 0 0 0 0 0 0 0 0 0.25 0"/>
<feBlend mode="normal" in2="BackgroundImageFix" result="effect1_dropShadow_2_945"/>
<feBlend mode="normal" in="SourceGraphic" in2="effect1_dropShadow_2_945" result="shape"/>
</filter>
<filter id="filter1_d_2_945" x="54.3999" y="3.89976" width="83.2" height="48.2" filterUnits="userSpaceOnUse" color-interpolation-filters="sRGB">
<feFlood flood-opacity="0" result="BackgroundImageFix"/>
<feColorMatrix in="SourceAlpha" type="matrix" values="0 0 0 0 0 0 0 0 0 0 0 0 0 0 0 0 0 0 127 0" result="hardAlpha"/>
<feOffset/>
<feGaussianBlur stdDeviation="2.8"/>
<feComposite in2="hardAlpha" operator="out"/>
<feColorMatrix type="matrix" values="0 0 0 0 0 0 0 0 0 0 0 0 0 0 0 0 0 0 0.25 0"/>
<feBlend mode="normal" in2="BackgroundImageFix" result="effect1_dropShadow_2_945"/>
<feBlend mode="normal" in="SourceGraphic" in2="effect1_dropShadow_2_945" result="shape"/>
</filter>
<linearGradient id="paint0_linear_2_945" x1="71.9999" y1="-0.000244141" x2="71.9999" y2="55.9997" gradientUnits="userSpaceOnUse">
<stop stop-color="#1E1E1E"/>
<stop offset="1" stop-color="#0D0D0D"/>
</linearGradient>
</defs>
</svg>
