<svg width="148" height="56" viewBox="0 0 148 56" fill="none" xmlns="http://www.w3.org/2000/svg">
<rect x="-6.10352e-05" y="-0.000244141" width="148" height="56" rx="8" fill="url(#paint0_linear_2_896)"/>
<g filter="url(#filter0_d_2_896)">
<path fill-rule="evenodd" clip-rule="evenodd" d="M30.2829 15.4659C29.1221 13.4701 26.2202 13.47 25.0594 15.4659L12.4088 37.2176C11.2481 39.2134 12.699 41.7082 15.0206 41.7082H24.8963C23.9043 40.8412 23.537 39.3415 24.2877 38.0547L33.8686 21.6313L30.2829 15.4659Z" fill="#80EEC0"/>
<path d="M38.2986 20.2373C39.2592 18.6043 41.6608 18.6043 42.6214 20.2373L53.0907 38.0341C54.0515 39.6671 52.8508 41.7083 50.9296 41.7083H29.9906C28.0693 41.7083 26.8685 39.6671 27.8291 38.0341L38.2986 20.2373Z" fill="#00DC82"/>
</g>
<g filter="url(#filter1_d_2_896)">
<path d="M65.2783 24.4998V12.8634H69.5397C70.3655 12.8634 71.0492 12.9998 71.5908 13.2725C72.1325 13.5414 72.5378 13.907 72.8068 14.3691C73.0757 14.8274 73.2102 15.3445 73.2102 15.9202C73.2102 16.4051 73.1211 16.8141 72.9431 17.1475C72.7651 17.477 72.5265 17.7422 72.2272 17.9429C71.9318 18.1399 71.606 18.2838 71.2499 18.3748V18.4884C71.6363 18.5073 72.0132 18.6323 72.3806 18.8634C72.7518 19.0907 73.0586 19.4145 73.3011 19.835C73.5435 20.2554 73.6647 20.7668 73.6647 21.3691C73.6647 21.9638 73.5246 22.4979 73.2443 22.9713C72.9677 23.441 72.5397 23.8141 71.9602 24.0907C71.3806 24.3634 70.6401 24.4998 69.7386 24.4998H65.2783ZM67.034 22.9941H69.5681C70.409 22.9941 71.0113 22.8312 71.3749 22.5054C71.7386 22.1797 71.9204 21.7725 71.9204 21.2838C71.9204 20.9164 71.8276 20.5793 71.642 20.2725C71.4564 19.9657 71.1912 19.7213 70.8465 19.5395C70.5056 19.3577 70.1003 19.2668 69.6306 19.2668H67.034V22.9941ZM67.034 17.8975H69.3863C69.7802 17.8975 70.1344 17.8217 70.4488 17.6702C70.767 17.5187 71.0189 17.3066 71.2045 17.0338C71.3939 16.7573 71.4886 16.4316 71.4886 16.0566C71.4886 15.5755 71.32 15.1721 70.9829 14.8463C70.6458 14.5206 70.1287 14.3577 69.4318 14.3577H67.034V17.8975ZM81.1391 20.8804V15.7725H82.8437V24.4998H81.1732V22.9884H81.0823C80.8816 23.4543 80.5596 23.8426 80.1164 24.1532C79.677 24.46 79.1297 24.6134 78.4744 24.6134C77.9138 24.6134 77.4175 24.4903 76.9857 24.2441C76.5577 23.9941 76.2206 23.6248 75.9744 23.1361C75.7319 22.6475 75.6107 22.0433 75.6107 21.3236V15.7725H77.3096V21.1191C77.3096 21.7138 77.4744 22.1873 77.8039 22.5395C78.1335 22.8918 78.5615 23.0679 79.088 23.0679C79.4062 23.0679 79.7225 22.9884 80.0369 22.8293C80.355 22.6702 80.6183 22.4297 80.8266 22.1077C81.0388 21.7857 81.1429 21.3766 81.1391 20.8804ZM85.1264 24.4998V15.7725H86.8252V24.4998H85.1264ZM85.9843 14.4259C85.6889 14.4259 85.4351 14.3274 85.2229 14.1304C85.0146 13.9297 84.9104 13.691 84.9104 13.4145C84.9104 13.1342 85.0146 12.8956 85.2229 12.6986C85.4351 12.4979 85.6889 12.3975 85.9843 12.3975C86.2798 12.3975 86.5317 12.4979 86.74 12.6986C86.9521 12.8956 87.0582 13.1342 87.0582 13.4145C87.0582 13.691 86.9521 13.9297 86.74 14.1304C86.5317 14.3274 86.2798 14.4259 85.9843 14.4259ZM90.8096 12.8634V24.4998H89.1107V12.8634H90.8096ZM97.169 15.7725V17.1361H92.4019V15.7725H97.169ZM93.6803 13.6816H95.3792V21.9373C95.3792 22.2668 95.4284 22.5149 95.5269 22.6816C95.6254 22.8444 95.7523 22.9562 95.9076 23.0168C96.0667 23.0736 96.239 23.102 96.4246 23.102C96.561 23.102 96.6803 23.0926 96.7826 23.0736C96.8849 23.0547 96.9644 23.0395 97.0212 23.0282L97.3281 24.4316C97.2296 24.4694 97.0894 24.5073 96.9076 24.5452C96.7258 24.5869 96.4985 24.6096 96.2258 24.6134C95.7788 24.621 95.3621 24.5414 94.9758 24.3748C94.5894 24.2081 94.2769 23.9505 94.0383 23.602C93.7996 23.2535 93.6803 22.816 93.6803 22.2895V13.6816ZM105.175 24.4998L102.606 15.7725H104.362L106.072 22.1816H106.158L107.874 15.7725H109.629L111.334 22.1532H111.419L113.118 15.7725H114.874L112.311 24.4998H110.578L108.805 18.1986H108.675L106.902 24.4998H105.175ZM116.486 24.4998V15.7725H118.185V24.4998H116.486ZM117.344 14.4259C117.048 14.4259 116.794 14.3274 116.582 14.1304C116.374 13.9297 116.27 13.691 116.27 13.4145C116.27 13.1342 116.374 12.8956 116.582 12.6986C116.794 12.4979 117.048 12.3975 117.344 12.3975C117.639 12.3975 117.891 12.4979 118.099 12.6986C118.311 12.8956 118.418 13.1342 118.418 13.4145C118.418 13.691 118.311 13.9297 118.099 14.1304C117.891 14.3274 117.639 14.4259 117.344 14.4259ZM124.544 15.7725V17.1361H119.777V15.7725H124.544ZM121.055 13.6816H122.754V21.9373C122.754 22.2668 122.803 22.5149 122.902 22.6816C123 22.8444 123.127 22.9562 123.283 23.0168C123.442 23.0736 123.614 23.102 123.8 23.102C123.936 23.102 124.055 23.0926 124.158 23.0736C124.26 23.0547 124.339 23.0395 124.396 23.0282L124.703 24.4316C124.605 24.4694 124.464 24.5073 124.283 24.5452C124.101 24.5869 123.874 24.6096 123.601 24.6134C123.154 24.621 122.737 24.5414 122.351 24.3748C121.964 24.2081 121.652 23.9505 121.413 23.602C121.175 23.2535 121.055 22.816 121.055 22.2895V13.6816ZM128.31 19.3179V24.4998H126.611V12.8634H128.287V17.1929H128.395C128.599 16.7232 128.912 16.3501 129.332 16.0736C129.753 15.7971 130.302 15.6588 130.98 15.6588C131.579 15.6588 132.101 15.782 132.548 16.0282C132.999 16.2744 133.347 16.6418 133.594 17.1304C133.844 17.6153 133.969 18.2213 133.969 18.9486V24.4998H132.27V19.1532C132.27 18.513 132.105 18.0168 131.775 17.6645C131.446 17.3085 130.988 17.1304 130.4 17.1304C129.999 17.1304 129.639 17.2157 129.321 17.3861C129.007 17.5566 128.758 17.8066 128.577 18.1361C128.399 18.4619 128.31 18.8558 128.31 19.3179Z" fill="#E8E8E8"/>
<path d="M75.458 31.1361V43.4998H72.9225L68.0024 36.3641H67.9239V43.4998H64.9357V31.1361H67.5074L72.3732 38.2597H72.4758V31.1361H75.458ZM83.3196 39.4973V34.227H86.2656V43.4998H83.4524V41.7732H83.3558C83.1506 42.3407 82.8004 42.7914 82.3054 43.1255C81.8144 43.4555 81.2208 43.6205 80.5245 43.6205C79.8927 43.6205 79.3373 43.4756 78.8583 43.1858C78.3794 42.8961 78.0071 42.4916 77.7415 41.9724C77.4759 41.4492 77.3411 40.8375 77.337 40.1372V34.227H80.2891V39.5576C80.2931 40.0607 80.4259 40.4571 80.6875 40.7469C80.9491 41.0367 81.3053 41.1816 81.7561 41.1816C82.0499 41.1816 82.3135 41.1172 82.5469 40.9884C82.7844 40.8556 82.9715 40.6644 83.1083 40.4149C83.2492 40.1613 83.3196 39.8555 83.3196 39.4973ZM90.656 34.227L92.1833 37.2817L93.765 34.227H96.7412L94.1514 38.8634L96.8378 43.4998H93.8858L92.1833 40.4209L90.5232 43.4998H87.5289L90.2213 38.8634L87.6617 34.227H90.656ZM103.323 34.227V36.4003H97.4732V34.227H103.323ZM98.6987 32.0054H101.651V40.5839C101.651 40.765 101.679 40.9119 101.735 41.0246C101.796 41.1333 101.882 41.2118 101.995 41.2601C102.108 41.3043 102.242 41.3265 102.399 41.3265C102.512 41.3265 102.631 41.3164 102.756 41.2963C102.884 41.2721 102.981 41.252 103.045 41.2359L103.492 43.3669C103.351 43.4072 103.152 43.4575 102.894 43.5179C102.641 43.5782 102.337 43.6165 101.983 43.6326C101.291 43.6648 100.697 43.5843 100.202 43.3911C99.7109 43.1939 99.3346 42.888 99.073 42.4735C98.8154 42.0589 98.6907 41.5377 98.6987 40.9099V32.0054ZM106.489 43.6748C106.055 43.6748 105.682 43.5219 105.373 43.216C105.067 42.9101 104.916 42.5399 104.92 42.1052C104.916 41.6786 105.067 41.3144 105.373 41.0125C105.682 40.7067 106.055 40.5537 106.489 40.5537C106.9 40.5537 107.262 40.7067 107.576 41.0125C107.894 41.3144 108.055 41.6786 108.059 42.1052C108.055 42.395 107.978 42.6586 107.83 42.8961C107.685 43.1335 107.494 43.3227 107.256 43.4635C107.023 43.6044 106.767 43.6748 106.489 43.6748ZM110.009 34.227H112.961V43.8861C112.961 44.6508 112.804 45.2585 112.49 45.7093C112.18 46.16 111.741 46.484 111.174 46.6812C110.607 46.8784 109.936 46.977 109.164 46.977C109.059 46.977 108.96 46.975 108.868 46.971C108.775 46.967 108.675 46.9629 108.566 46.9589V44.7192C108.639 44.7273 108.703 44.7333 108.759 44.7373C108.816 44.7413 108.872 44.7434 108.928 44.7434C109.335 44.7434 109.616 44.6669 109.773 44.514C109.93 44.365 110.009 44.1356 110.009 43.8257V34.227ZM111.482 33.1464C111.067 33.1464 110.711 33.0096 110.413 32.7359C110.116 32.4582 109.967 32.1242 109.967 31.7338C109.967 31.3474 110.116 31.0174 110.413 30.7437C110.711 30.466 111.067 30.3272 111.482 30.3272C111.9 30.3272 112.257 30.466 112.55 30.7437C112.848 31.0174 112.997 31.3474 112.997 31.7338C112.997 32.1242 112.848 32.4582 112.55 32.7359C112.257 33.0096 111.9 33.1464 111.482 33.1464ZM122.935 37.0583L120.225 37.1308C120.197 36.9376 120.12 36.7666 119.995 36.6177C119.871 36.4647 119.708 36.346 119.506 36.2615C119.309 36.1729 119.08 36.1287 118.818 36.1287C118.476 36.1287 118.184 36.1971 117.943 36.3339C117.705 36.4708 117.589 36.6559 117.593 36.8893C117.589 37.0704 117.661 37.2274 117.81 37.3602C117.963 37.493 118.235 37.5997 118.625 37.6802L120.412 38.0182C121.338 38.1953 122.026 38.4891 122.477 38.8996C122.931 39.3101 123.161 39.8534 123.165 40.5296C123.161 41.1655 122.972 41.7189 122.597 42.1897C122.227 42.6606 121.72 43.0269 121.076 43.2885C120.432 43.546 119.696 43.6748 118.867 43.6748C117.542 43.6748 116.498 43.4032 115.733 42.8598C114.973 42.3125 114.538 41.58 114.429 40.6624L117.345 40.59C117.41 40.928 117.577 41.1856 117.846 41.3627C118.116 41.5398 118.46 41.6283 118.879 41.6283C119.257 41.6283 119.565 41.5579 119.802 41.417C120.04 41.2761 120.16 41.089 120.165 40.8556C120.16 40.6463 120.068 40.4793 119.887 40.3545C119.706 40.2257 119.422 40.1251 119.036 40.0527L117.418 39.7448C116.488 39.5757 115.796 39.2638 115.341 38.8091C114.886 38.3502 114.661 37.7667 114.665 37.0583C114.661 36.4386 114.826 35.9093 115.16 35.4706C115.494 35.0279 115.969 34.6899 116.585 34.4564C117.2 34.223 117.927 34.1063 118.764 34.1063C120.02 34.1063 121.01 34.3699 121.734 34.8971C122.459 35.4203 122.859 36.1407 122.935 37.0583Z" fill="#00DC82"/>
</g>
<rect x="1.04994" y="1.04976" width="145.9" height="53.9" rx="6.95" stroke="white" stroke-opacity="0.15" stroke-width="2.1"/>
<defs>
<filter id="filter0_d_2_896" x="6.28565" y="2.28547" width="52.8575" height="51.4286" filterUnits="userSpaceOnUse" color-interpolation-filters="sRGB">
<feFlood flood-opacity="0" result="BackgroundImageFix"/>
<feColorMatrix in="SourceAlpha" type="matrix" values="0 0 0 0 0 0 0 0 0 0 0 0 0 0 0 0 0 0 127 0" result="hardAlpha"/>
<feOffset/>
<feGaussianBlur stdDeviation="2.85714"/>
<feComposite in2="hardAlpha" operator="out"/>
<feColorMatrix type="matrix" values="0 0 0 0 0 0 0 0 0 0 0 0 0 0 0 0 0 0 0.25 0"/>
<feBlend mode="normal" in2="BackgroundImageFix" result="effect1_dropShadow_2_896"/>
<feBlend mode="normal" in="SourceGraphic" in2="effect1_dropShadow_2_896" result="shape"/>
</filter>
<filter id="filter1_d_2_896" x="58.3999" y="3.89976" width="83.2" height="48.6773" filterUnits="userSpaceOnUse" color-interpolation-filters="sRGB">
<feFlood flood-opacity="0" result="BackgroundImageFix"/>
<feColorMatrix in="SourceAlpha" type="matrix" values="0 0 0 0 0 0 0 0 0 0 0 0 0 0 0 0 0 0 127 0" result="hardAlpha"/>
<feOffset/>
<feGaussianBlur stdDeviation="2.8"/>
<feComposite in2="hardAlpha" operator="out"/>
<feColorMatrix type="matrix" values="0 0 0 0 0 0 0 0 0 0 0 0 0 0 0 0 0 0 0.25 0"/>
<feBlend mode="normal" in2="BackgroundImageFix" result="effect1_dropShadow_2_896"/>
<feBlend mode="normal" in="SourceGraphic" in2="effect1_dropShadow_2_896" result="shape"/>
</filter>
<linearGradient id="paint0_linear_2_896" x1="73.9999" y1="-0.000244141" x2="73.9999" y2="55.9997" gradientUnits="userSpaceOnUse">
<stop stop-color="#0C3826"/>
<stop offset="1" stop-color="#052115"/>
</linearGradient>
</defs>
</svg>
