<svg width="144" height="56" viewBox="0 0 144 56" fill="none" xmlns="http://www.w3.org/2000/svg">
<rect x="-6.10352e-05" y="-0.00012207" width="144" height="56" rx="8" fill="url(#paint0_linear_2_3624)"/>
<rect x="1.04994" y="1.04988" width="141.9" height="53.9" rx="6.95" stroke="white" stroke-opacity="0.15" stroke-width="2.1"/>
<g filter="url(#filter0_d_2_3624)">
<path d="M31.7618 8.00021C30.1125 8.00779 28.5373 8.14692 27.1514 8.38948C23.0686 9.10289 22.3273 10.5961 22.3273 13.3499V16.9868H31.9755V18.1992H22.3273H18.7065C15.9025 18.1992 13.4472 19.8661 12.6792 23.0373C11.7934 26.6721 11.7541 28.9403 12.6792 32.7357C13.365 35.5608 15.0029 37.5738 17.8069 37.5738H21.1241V33.214C21.1241 30.0642 23.8795 27.2859 27.1514 27.2859H36.7883C39.4709 27.2859 41.6124 25.1013 41.6124 22.4367V13.3499C41.6124 10.7638 39.4066 8.82109 36.7883 8.38948C35.1309 8.1166 33.4112 7.99262 31.7618 8.00021ZM26.5442 10.9253C27.5408 10.9253 28.3546 11.7434 28.3546 12.7493C28.3546 13.7517 27.5408 14.5622 26.5442 14.5622C25.544 14.5622 24.7338 13.7517 24.7338 12.7493C24.7338 11.7434 25.544 10.9253 26.5442 10.9253Z" fill="url(#paint1_linear_2_3624)"/>
<path d="M42.8156 18.1992V22.4367C42.8156 25.722 39.9995 28.4871 36.7883 28.4871H27.1514C24.5117 28.4871 22.3273 30.7217 22.3273 33.3364V42.4231C22.3273 45.0092 24.601 46.5304 27.1514 47.2723C30.2055 48.1605 33.1341 48.3211 36.7883 47.2723C39.2173 46.5768 41.6124 45.1769 41.6124 42.4231V38.7862H31.9755V37.5739H41.6124H46.4364C49.2405 37.5739 50.2853 35.6394 51.2605 32.7358C52.2678 29.7466 52.2249 26.8719 51.2605 23.0373C50.5675 20.2764 49.244 18.1992 46.4364 18.1992H42.8156ZM37.3955 41.2108C38.3957 41.2108 39.206 42.0214 39.206 43.0237C39.206 44.0296 38.3957 44.8477 37.3955 44.8477C36.3989 44.8477 35.5851 44.0296 35.5851 43.0237C35.5851 42.0214 36.3989 41.2108 37.3955 41.2108Z" fill="url(#paint2_linear_2_3624)"/>
</g>
<g filter="url(#filter1_d_2_3624)">
<path d="M61.2783 24.4999V12.8635H65.5397C66.3655 12.8635 67.0492 12.9999 67.5908 13.2726C68.1325 13.5415 68.5378 13.9071 68.8068 14.3692C69.0757 14.8275 69.2102 15.3446 69.2102 15.9203C69.2102 16.4052 69.1211 16.8143 68.9431 17.1476C68.7651 17.4771 68.5265 17.7423 68.2272 17.9431C67.9318 18.14 67.606 18.284 67.2499 18.3749V18.4885C67.6363 18.5075 68.0132 18.6325 68.3806 18.8635C68.7518 19.0908 69.0586 19.4146 69.3011 19.8351C69.5435 20.2556 69.6647 20.7669 69.6647 21.3692C69.6647 21.9639 69.5246 22.498 69.2443 22.9715C68.9677 23.4412 68.5397 23.8143 67.9602 24.0908C67.3806 24.3635 66.6401 24.4999 65.7386 24.4999H61.2783ZM63.034 22.9942H65.5681C66.409 22.9942 67.0113 22.8313 67.3749 22.5056C67.7386 22.1798 67.9204 21.7726 67.9204 21.284C67.9204 20.9165 67.8276 20.5794 67.642 20.2726C67.4564 19.9658 67.1912 19.7215 66.8465 19.5396C66.5056 19.3578 66.1003 19.2669 65.6306 19.2669H63.034V22.9942ZM63.034 17.8976H65.3863C65.7802 17.8976 66.1344 17.8218 66.4488 17.6703C66.767 17.5188 67.0189 17.3067 67.2045 17.034C67.3939 16.7575 67.4886 16.4317 67.4886 16.0567C67.4886 15.5756 67.32 15.1722 66.9829 14.8465C66.6458 14.5207 66.1287 14.3578 65.4318 14.3578H63.034V17.8976ZM77.1391 20.8806V15.7726H78.8437V24.4999H77.1732V22.9885H77.0823C76.8816 23.4544 76.5596 23.8427 76.1164 24.1533C75.677 24.4601 75.1297 24.6135 74.4744 24.6135C73.9138 24.6135 73.4175 24.4904 72.9857 24.2442C72.5577 23.9942 72.2206 23.6249 71.9744 23.1362C71.7319 22.6476 71.6107 22.0434 71.6107 21.3237V15.7726H73.3096V21.1192C73.3096 21.7139 73.4744 22.1874 73.8039 22.5396C74.1335 22.8919 74.5615 23.0681 75.088 23.0681C75.4062 23.0681 75.7225 22.9885 76.0369 22.8294C76.355 22.6703 76.6183 22.4298 76.8266 22.1078C77.0388 21.7859 77.1429 21.3768 77.1391 20.8806ZM81.1264 24.4999V15.7726H82.8252V24.4999H81.1264ZM81.9843 14.426C81.6889 14.426 81.4351 14.3275 81.2229 14.1306C81.0146 13.9298 80.9104 13.6912 80.9104 13.4146C80.9104 13.1343 81.0146 12.8957 81.2229 12.6987C81.4351 12.498 81.6889 12.3976 81.9843 12.3976C82.2798 12.3976 82.5317 12.498 82.74 12.6987C82.9521 12.8957 83.0582 13.1343 83.0582 13.4146C83.0582 13.6912 82.9521 13.9298 82.74 14.1306C82.5317 14.3275 82.2798 14.426 81.9843 14.426ZM86.8096 12.8635V24.4999H85.1107V12.8635H86.8096ZM93.169 15.7726V17.1362H88.4019V15.7726H93.169ZM89.6803 13.6817H91.3792V21.9374C91.3792 22.2669 91.4284 22.515 91.5269 22.6817C91.6254 22.8446 91.7523 22.9563 91.9076 23.0169C92.0667 23.0737 92.239 23.1021 92.4246 23.1021C92.561 23.1021 92.6803 23.0927 92.7826 23.0737C92.8849 23.0548 92.9644 23.0396 93.0212 23.0283L93.3281 24.4317C93.2296 24.4696 93.0894 24.5074 92.9076 24.5453C92.7258 24.587 92.4985 24.6097 92.2258 24.6135C91.7788 24.6211 91.3621 24.5415 90.9758 24.3749C90.5894 24.2082 90.2769 23.9506 90.0383 23.6021C89.7996 23.2537 89.6803 22.8162 89.6803 22.2896V13.6817ZM101.175 24.4999L98.6065 15.7726H100.362L102.072 22.1817H102.158L103.874 15.7726H105.629L107.334 22.1533H107.419L109.118 15.7726H110.874L108.311 24.4999H106.578L104.805 18.1987H104.675L102.902 24.4999H101.175ZM112.486 24.4999V15.7726H114.185V24.4999H112.486ZM113.344 14.426C113.048 14.426 112.794 14.3275 112.582 14.1306C112.374 13.9298 112.27 13.6912 112.27 13.4146C112.27 13.1343 112.374 12.8957 112.582 12.6987C112.794 12.498 113.048 12.3976 113.344 12.3976C113.639 12.3976 113.891 12.498 114.099 12.6987C114.311 12.8957 114.418 13.1343 114.418 13.4146C114.418 13.6912 114.311 13.9298 114.099 14.1306C113.891 14.3275 113.639 14.426 113.344 14.426ZM120.544 15.7726V17.1362H115.777V15.7726H120.544ZM117.055 13.6817H118.754V21.9374C118.754 22.2669 118.803 22.515 118.902 22.6817C119 22.8446 119.127 22.9563 119.283 23.0169C119.442 23.0737 119.614 23.1021 119.8 23.1021C119.936 23.1021 120.055 23.0927 120.158 23.0737C120.26 23.0548 120.339 23.0396 120.396 23.0283L120.703 24.4317C120.605 24.4696 120.464 24.5074 120.283 24.5453C120.101 24.587 119.874 24.6097 119.601 24.6135C119.154 24.6211 118.737 24.5415 118.351 24.3749C117.964 24.2082 117.652 23.9506 117.413 23.6021C117.175 23.2537 117.055 22.8162 117.055 22.2896V13.6817ZM124.31 19.3181V24.4999H122.611V12.8635H124.287V17.1931H124.395C124.599 16.7234 124.912 16.3503 125.332 16.0737C125.753 15.7972 126.302 15.659 126.98 15.659C127.579 15.659 128.101 15.7821 128.548 16.0283C128.999 16.2745 129.347 16.6419 129.594 17.1306C129.844 17.6154 129.969 18.2215 129.969 18.9487V24.4999H128.27V19.1533C128.27 18.5131 128.105 18.0169 127.775 17.6646C127.446 17.3086 126.988 17.1306 126.4 17.1306C125.999 17.1306 125.639 17.2158 125.321 17.3862C125.007 17.5567 124.758 17.8067 124.577 18.1362C124.399 18.462 124.31 18.8559 124.31 19.3181Z" fill="#E8E8E8"/>
<path d="M60.9357 43.4999V31.1362H66.0429C66.9686 31.1362 67.7675 31.3173 68.4396 31.6796C69.1157 32.0378 69.6369 32.5388 70.0031 33.1828C70.3694 33.8227 70.5525 34.5672 70.5525 35.4164C70.5525 36.2696 70.3653 37.0162 69.9911 37.6561C69.6208 38.292 69.0916 38.785 68.4033 39.1352C67.7151 39.4853 66.8981 39.6604 65.9524 39.6604H62.8011V37.306H65.397C65.8477 37.306 66.224 37.2275 66.5259 37.0705C66.8317 36.9136 67.0631 36.6942 67.2201 36.4125C67.3771 36.1268 67.4555 35.7947 67.4555 35.4164C67.4555 35.0341 67.3771 34.7041 67.2201 34.4264C67.0631 34.1446 66.8317 33.9273 66.5259 33.7744C66.22 33.6214 65.8437 33.545 65.397 33.545H63.9239V43.4999H60.9357ZM73.8305 46.9771C73.4764 46.9771 73.1423 46.949 72.8284 46.8926C72.5145 46.8403 72.2448 46.7699 72.0195 46.6813L72.6715 44.5382C72.9612 44.6348 73.2228 44.6912 73.4563 44.7073C73.6937 44.7234 73.897 44.6851 74.066 44.5926C74.239 44.504 74.3719 44.345 74.4644 44.1156L74.5791 43.8379L71.283 34.2271H74.3739L76.0823 40.8436H76.1789L77.9115 34.2271H81.0205L77.5251 44.3873C77.3561 44.8944 77.1166 45.3411 76.8068 45.7275C76.5009 46.1179 76.1045 46.4238 75.6175 46.6451C75.1345 46.8665 74.5389 46.9771 73.8305 46.9771ZM87.3865 34.2271V36.4004H81.5367V34.2271H87.3865ZM82.7622 32.0056H85.7142V40.584C85.7142 40.7651 85.7424 40.912 85.7988 41.0247C85.8591 41.1334 85.9457 41.2119 86.0583 41.2602C86.171 41.3044 86.3059 41.3266 86.4628 41.3266C86.5755 41.3266 86.6942 41.3165 86.819 41.2964C86.9478 41.2722 87.0444 41.2521 87.1088 41.236L87.5555 43.3671C87.4146 43.4073 87.2154 43.4576 86.9579 43.518C86.7043 43.5784 86.4004 43.6166 86.0463 43.6327C85.354 43.6649 84.7604 43.5844 84.2654 43.3912C83.7744 43.194 83.3981 42.8881 83.1365 42.4736C82.8789 42.0591 82.7541 41.5379 82.7622 40.91V32.0056ZM92.044 38.2115V43.4999H89.0919V31.1362H91.9474V35.9296H92.05C92.2593 35.3581 92.6014 34.9113 93.0763 34.5894C93.5552 34.2674 94.1408 34.1064 94.833 34.1064C95.485 34.1064 96.0525 34.2513 96.5354 34.5411C97.0184 34.8268 97.3927 35.2313 97.6583 35.7545C97.928 36.2777 98.0608 36.8894 98.0567 37.5897V43.4999H95.1047V38.1693C95.1087 37.6541 94.9799 37.2517 94.7183 36.9619C94.4567 36.6721 94.0885 36.5272 93.6136 36.5272C93.3037 36.5272 93.03 36.5956 92.7925 36.7325C92.5591 36.8653 92.376 37.0565 92.2432 37.306C92.1144 37.5555 92.048 37.8574 92.044 38.2115ZM104.228 43.6749C103.254 43.6749 102.417 43.4757 101.717 43.0773C101.02 42.6748 100.483 42.1154 100.105 41.399C99.7305 40.6786 99.5433 39.8435 99.5433 38.8937C99.5433 37.9399 99.7305 37.1048 100.105 36.3884C100.483 35.668 101.02 35.1085 101.717 34.7101C102.417 34.3076 103.254 34.1064 104.228 34.1064C105.202 34.1064 106.037 34.3076 106.733 34.7101C107.434 35.1085 107.971 35.668 108.345 36.3884C108.723 37.1048 108.913 37.9399 108.913 38.8937C108.913 39.8435 108.723 40.6786 108.345 41.399C107.971 42.1154 107.434 42.6748 106.733 43.0773C106.037 43.4757 105.202 43.6749 104.228 43.6749ZM104.246 41.4473C104.6 41.4473 104.9 41.3387 105.146 41.1213C105.391 40.904 105.578 40.6021 105.707 40.2158C105.84 39.8294 105.906 39.3827 105.906 38.8756C105.906 38.3604 105.84 37.9097 105.707 37.5233C105.578 37.1369 105.391 36.8351 105.146 36.6178C104.9 36.4004 104.6 36.2918 104.246 36.2918C103.88 36.2918 103.57 36.4004 103.316 36.6178C103.067 36.8351 102.876 37.1369 102.743 37.5233C102.614 37.9097 102.55 38.3604 102.55 38.8756C102.55 39.3827 102.614 39.8294 102.743 40.2158C102.876 40.6021 103.067 40.904 103.316 41.1213C103.57 41.3387 103.88 41.4473 104.246 41.4473ZM113.377 38.2115V43.4999H110.425V34.2271H113.232V35.9296H113.335C113.54 35.3621 113.89 34.9174 114.385 34.5954C114.88 34.2694 115.47 34.1064 116.154 34.1064C116.806 34.1064 117.371 34.2533 117.85 34.5471C118.333 34.8369 118.708 35.2434 118.973 35.7666C119.243 36.2857 119.376 36.8935 119.372 37.5897V43.4999H116.42V38.1693C116.424 37.6541 116.293 37.2517 116.027 36.9619C115.766 36.6721 115.401 36.5272 114.934 36.5272C114.625 36.5272 114.351 36.5956 114.113 36.7325C113.88 36.8653 113.699 37.0565 113.57 37.306C113.445 37.5555 113.381 37.8574 113.377 38.2115Z" fill="white"/>
</g>
<defs>
<filter id="filter0_d_2_3624" x="6.28565" y="2.28559" width="51.4286" height="51.4286" filterUnits="userSpaceOnUse" color-interpolation-filters="sRGB">
<feFlood flood-opacity="0" result="BackgroundImageFix"/>
<feColorMatrix in="SourceAlpha" type="matrix" values="0 0 0 0 0 0 0 0 0 0 0 0 0 0 0 0 0 0 127 0" result="hardAlpha"/>
<feOffset/>
<feGaussianBlur stdDeviation="2.85714"/>
<feComposite in2="hardAlpha" operator="out"/>
<feColorMatrix type="matrix" values="0 0 0 0 0 0 0 0 0 0 0 0 0 0 0 0 0 0 0.25 0"/>
<feBlend mode="normal" in2="BackgroundImageFix" result="effect1_dropShadow_2_3624"/>
<feBlend mode="normal" in="SourceGraphic" in2="effect1_dropShadow_2_3624" result="shape"/>
</filter>
<filter id="filter1_d_2_3624" x="54.3999" y="3.89988" width="83.2" height="48.6773" filterUnits="userSpaceOnUse" color-interpolation-filters="sRGB">
<feFlood flood-opacity="0" result="BackgroundImageFix"/>
<feColorMatrix in="SourceAlpha" type="matrix" values="0 0 0 0 0 0 0 0 0 0 0 0 0 0 0 0 0 0 127 0" result="hardAlpha"/>
<feOffset/>
<feGaussianBlur stdDeviation="2.8"/>
<feComposite in2="hardAlpha" operator="out"/>
<feColorMatrix type="matrix" values="0 0 0 0 0 0 0 0 0 0 0 0 0 0 0 0 0 0 0.25 0"/>
<feBlend mode="normal" in2="BackgroundImageFix" result="effect1_dropShadow_2_3624"/>
<feBlend mode="normal" in="SourceGraphic" in2="effect1_dropShadow_2_3624" result="shape"/>
</filter>
<linearGradient id="paint0_linear_2_3624" x1="23" y1="-2.20592e-06" x2="120" y2="56" gradientUnits="userSpaceOnUse">
<stop stop-color="#152B3E"/>
<stop offset="1" stop-color="#282208"/>
</linearGradient>
<linearGradient id="paint1_linear_2_3624" x1="12" y1="7.99988" x2="34.0416" y2="26.9898" gradientUnits="userSpaceOnUse">
<stop stop-color="#5A9FD4"/>
<stop offset="1" stop-color="#306998"/>
</linearGradient>
<linearGradient id="paint2_linear_2_3624" x1="37.1637" y1="42.7179" x2="29.2978" y2="31.5738" gradientUnits="userSpaceOnUse">
<stop stop-color="#FFD43B"/>
<stop offset="1" stop-color="#FFE873"/>
</linearGradient>
</defs>
</svg>
