<svg width="105" height="40" viewBox="0 0 105 40" fill="none" xmlns="http://www.w3.org/2000/svg">
<rect x="-6.10352e-05" y="-0.00012207" width="105" height="40" rx="6" fill="url(#paint0_linear_2_903)"/>
<g filter="url(#filter0_d_2_903)">
<path d="M26.6017 20.0032C26.6017 20.7243 26.327 21.4159 25.838 21.9259C25.3491 22.436 24.6858 22.7227 23.9942 22.723C23.3023 22.723 22.6388 22.4364 22.1496 21.9264C21.6603 21.4163 21.3855 20.7245 21.3855 20.0032C21.3855 19.282 21.6602 18.5904 22.1491 18.0804C22.6381 17.5704 23.3013 17.2837 23.993 17.2833C24.6849 17.2833 25.3484 17.5699 25.8376 18.08C26.3268 18.59 26.6017 19.2818 26.6017 20.0032ZM29.691 7.00012C28.1207 7.00012 26.0662 8.16784 23.9883 10.1895C21.9117 8.17879 19.856 7.02445 18.2868 7.02445C17.8085 7.02445 17.3733 7.13757 16.9965 7.3626C15.3923 8.32719 15.033 11.3328 15.8613 15.1048C12.31 16.2482 10 18.0764 10 20.0032C10 21.9372 12.3217 23.7703 15.8835 24.9052C15.0622 28.6917 15.4285 31.7023 17.0362 32.6656C17.4095 32.8931 17.8412 33.0001 18.3218 33.0001C19.891 33.0001 21.9467 31.8324 24.0245 29.8084C26.1012 31.8202 28.1568 32.9746 29.726 32.9746C30.2043 32.9746 30.6395 32.8651 31.0163 32.6401C32.6193 31.6767 32.9798 28.671 32.1515 24.8979C35.69 23.7642 38 21.9323 38 20.0032C38 18.0691 35.6783 16.2361 32.1165 15.0987C32.9378 11.3158 32.5715 8.30286 30.9638 7.33827C30.5928 7.11446 30.1612 7.00134 29.6898 7.00012H29.691ZM29.6852 8.32597V8.33327C29.9477 8.33327 30.1588 8.38679 30.3362 8.48775C31.1132 8.9524 31.4503 10.7198 31.1878 12.9932C31.1248 13.5527 31.0222 14.1427 30.8962 14.7448C29.7762 14.4577 28.5558 14.2375 27.2713 14.0952C26.5013 12.9944 25.7022 11.9946 24.8972 11.1188C26.7545 9.31853 28.4987 8.33084 29.6863 8.32719L29.6852 8.32597ZM18.2868 8.3503C19.4675 8.3503 21.2198 9.33313 23.0818 11.1236C22.2815 11.9994 21.4835 12.9932 20.7252 14.094C19.4337 14.2363 18.2122 14.4565 17.0933 14.7484C16.9627 14.1524 16.8658 13.5758 16.797 13.0212C16.5287 10.749 16.86 8.98281 17.63 8.51208C17.8517 8.4026 18.0967 8.3576 18.2868 8.35151V8.3503ZM23.9825 12.0602C24.5133 12.6295 25.0442 13.2669 25.5692 13.9626C25.0558 13.9383 24.5308 13.9213 24 13.9213C23.4633 13.9213 22.9325 13.9335 22.4133 13.9626C22.9267 13.2669 23.4575 12.6295 23.9825 12.059V12.0602ZM24 15.2544C24.8633 15.2544 25.7232 15.2958 26.569 15.3676C27.0427 16.0755 27.5047 16.8309 27.9492 17.63C28.3832 18.4085 28.7775 19.1991 29.1368 19.9971C28.7775 20.7938 28.3832 21.5905 27.955 22.369C27.5117 23.1718 27.0532 23.9357 26.5783 24.6436C25.729 24.7203 24.868 24.7628 24 24.7628C23.1367 24.7628 22.2768 24.7203 21.431 24.6497C20.9573 23.9418 20.4953 23.1852 20.0508 22.3873C19.6168 21.6088 19.2225 20.8181 18.8632 20.0202C19.2167 19.221 19.6168 18.4231 20.045 17.6434C20.4883 16.8406 20.9468 16.0791 21.4217 15.3712C22.271 15.2934 23.132 15.252 24 15.252V15.2544ZM19.7592 15.5634C19.4792 16.022 19.1992 16.4915 18.9378 16.9744C18.6753 17.4488 18.4303 17.9256 18.197 18.4024C17.8878 17.6045 17.6253 16.809 17.4083 16.0341C18.155 15.8517 18.9425 15.6899 19.7592 15.5646V15.5634ZM28.2292 15.5634C29.04 15.6887 29.8217 15.8432 30.5695 16.0341C30.3595 16.8029 30.097 17.5935 29.7995 18.3854C29.5662 17.911 29.3212 17.433 29.0528 16.9574C28.7903 16.4805 28.5103 16.0159 28.2303 15.5634H28.2292ZM31.8027 16.3844C32.3673 16.5669 32.904 16.77 33.4068 16.9902C35.4275 17.8903 36.7342 19.0678 36.7342 20.0019C36.7283 20.9361 35.4217 22.1184 33.401 23.0125C32.911 23.2314 32.3743 23.4285 31.8202 23.6121C31.4935 22.4469 31.0665 21.2329 30.5368 19.9874C31.0618 18.7503 31.4818 17.5424 31.8027 16.382V16.3844ZM16.1752 16.3893C16.4995 17.557 16.9277 18.7698 17.4585 20.0141C16.9335 21.2512 16.5112 22.459 16.1915 23.6194C15.6268 23.437 15.0902 23.2326 14.5932 23.0113C12.5725 22.1148 11.2658 20.9361 11.2658 20.0019C11.2658 19.0678 12.5725 17.883 14.5932 16.9902C15.0832 16.7713 15.6198 16.5742 16.1752 16.3893ZM29.7995 21.5954C30.1087 22.3946 30.3712 23.1913 30.5882 23.9649C29.8415 24.1559 29.0528 24.3176 28.2362 24.4393C28.5162 23.9831 28.7962 23.5124 29.0587 23.0307C29.3212 22.5563 29.5662 22.0722 29.8007 21.5954H29.7995ZM18.197 21.6197C18.4303 22.0965 18.6753 22.5721 18.9437 23.049C19.212 23.5233 19.4862 23.988 19.7662 24.4393C18.9553 24.3152 18.1737 24.1595 17.4258 23.9698C17.6358 23.2034 17.8995 22.4104 18.1958 21.6185L18.197 21.6197ZM30.9067 25.253C31.0373 25.8527 31.14 26.4305 31.203 26.9839C31.4713 29.2561 31.14 31.0223 30.37 31.4943C30.1985 31.6037 29.9757 31.6499 29.7132 31.6499C28.5325 31.6499 26.7802 30.6683 24.9182 28.8766C25.7185 28.0008 26.5165 27.0083 27.2748 25.9087C28.5663 25.7651 29.7878 25.5437 30.9067 25.2518V25.253ZM17.105 25.2652C18.225 25.5498 19.4453 25.77 20.7298 25.9123C21.4998 27.0131 22.299 28.013 23.104 28.8876C21.2432 30.6914 19.4967 31.6791 18.309 31.6791C18.0523 31.6731 17.8353 31.6183 17.6638 31.5186C16.8868 31.0564 16.5497 29.2877 16.8122 27.0143C16.8752 26.4548 16.9778 25.8661 17.1038 25.2652H17.105ZM22.425 26.0437C22.9383 26.068 23.4633 26.085 23.9942 26.085C24.5308 26.085 25.0617 26.0729 25.5808 26.0437C25.0675 26.7394 24.5367 27.3756 24.0117 27.9473C23.4808 27.3756 22.95 26.7394 22.425 26.0437Z" fill="#61DAFB"/>
</g>
<g filter="url(#filter1_d_2_903)">
<path d="M46.8788 17.9999V9.99988H49.8085C50.3762 9.99988 50.8463 10.0936 51.2187 10.2811C51.5911 10.466 51.8697 10.7173 52.0546 11.035C52.2395 11.3501 52.332 11.7056 52.332 12.1014C52.332 12.4348 52.2708 12.716 52.1484 12.9452C52.026 13.1718 51.8619 13.354 51.6562 13.4921C51.4531 13.6275 51.2291 13.7264 50.9843 13.7889V13.8671C51.2499 13.8801 51.5091 13.966 51.7617 14.1249C52.0169 14.2811 52.2278 14.5038 52.3945 14.7928C52.5611 15.0819 52.6445 15.4335 52.6445 15.8475C52.6445 16.2564 52.5481 16.6236 52.3554 16.9491C52.1653 17.272 51.871 17.5285 51.4726 17.7186C51.0742 17.9061 50.565 17.9999 49.9453 17.9999H46.8788ZM48.0859 16.9647H49.8281C50.4062 16.9647 50.8203 16.8527 51.0702 16.6288C51.3203 16.4048 51.4453 16.1249 51.4453 15.7889C51.4453 15.5363 51.3814 15.3046 51.2538 15.0936C51.1262 14.8827 50.9439 14.7147 50.707 14.5897C50.4726 14.4647 50.1939 14.4022 49.871 14.4022H48.0859V16.9647ZM48.0859 13.4608H49.7031C49.9739 13.4608 50.2174 13.4087 50.4335 13.3046C50.6523 13.2004 50.8255 13.0546 50.9531 12.8671C51.0833 12.677 51.1484 12.453 51.1484 12.1952C51.1484 11.8645 51.0325 11.5871 50.8007 11.3632C50.5689 11.1392 50.2135 11.0272 49.7343 11.0272H48.0859V13.4608ZM57.7831 15.5116V11.9999H58.955V17.9999H57.8066V16.9608H57.7441C57.6061 17.2811 57.3847 17.5481 57.08 17.7616C56.7779 17.9725 56.4016 18.078 55.9511 18.078C55.5657 18.078 55.2245 17.9934 54.9277 17.8241C54.6334 17.6522 54.4016 17.3983 54.2324 17.0624C54.0657 16.7264 53.9824 16.3111 53.9824 15.8163V11.9999H55.1503V15.6757C55.1503 16.0845 55.2636 16.41 55.4902 16.6522C55.7167 16.8944 56.011 17.0155 56.373 17.0155C56.5917 17.0155 56.8092 16.9608 57.0253 16.8514C57.2441 16.7421 57.4251 16.5767 57.5683 16.3553C57.7141 16.134 57.7857 15.8527 57.7831 15.5116ZM60.5243 17.9999V11.9999H61.6923V17.9999H60.5243ZM61.1142 11.0741C60.9111 11.0741 60.7366 11.0064 60.5908 10.871C60.4475 10.7329 60.3759 10.5689 60.3759 10.3788C60.3759 10.1861 60.4475 10.022 60.5908 9.8866C60.7366 9.74857 60.9111 9.67956 61.1142 9.67956C61.3173 9.67956 61.4905 9.74857 61.6337 9.8866C61.7796 10.022 61.8525 10.1861 61.8525 10.3788C61.8525 10.5689 61.7796 10.7329 61.6337 10.871C61.4905 11.0064 61.3173 11.0741 61.1142 11.0741ZM64.4316 9.99988V17.9999H63.2636V9.99988H64.4316ZM68.8036 11.9999V12.9374H65.5263V11.9999H68.8036ZM66.4052 10.5624H67.5732V16.2382C67.5732 16.4647 67.607 16.6353 67.6747 16.7499C67.7424 16.8619 67.8297 16.9387 67.9365 16.9803C68.0458 17.0194 68.1643 17.0389 68.2919 17.0389C68.3857 17.0389 68.4677 17.0324 68.538 17.0194C68.6083 17.0064 68.663 16.996 68.7021 16.9882L68.913 17.953C68.8453 17.979 68.749 18.0051 68.624 18.0311C68.499 18.0598 68.3427 18.0754 68.1552 18.078C67.8479 18.0832 67.5615 18.0285 67.2958 17.9139C67.0302 17.7994 66.8154 17.6223 66.6513 17.3827C66.4872 17.1431 66.4052 16.8423 66.4052 16.4803V10.5624ZM74.3075 17.9999L72.5419 11.9999H73.749L74.9247 16.4061H74.9833L76.163 11.9999H77.37L78.5419 16.3866H78.6005L79.7685 11.9999H80.9755L79.2138 17.9999H78.0224L76.8036 13.6678H76.7138L75.495 17.9999H74.3075ZM82.0839 17.9999V11.9999H83.2519V17.9999H82.0839ZM82.6738 11.0741C82.4706 11.0741 82.2962 11.0064 82.1503 10.871C82.0071 10.7329 81.9355 10.5689 81.9355 10.3788C81.9355 10.1861 82.0071 10.022 82.1503 9.8866C82.2962 9.74857 82.4706 9.67956 82.6738 9.67956C82.8769 9.67956 83.0501 9.74857 83.1933 9.8866C83.3391 10.022 83.412 10.1861 83.412 10.3788C83.412 10.5689 83.3391 10.7329 83.1933 10.871C83.0501 11.0064 82.8769 11.0741 82.6738 11.0741ZM87.624 11.9999V12.9374H84.3466V11.9999H87.624ZM85.2255 10.5624H86.3935V16.2382C86.3935 16.4647 86.4273 16.6353 86.495 16.7499C86.5628 16.8619 86.65 16.9387 86.7568 16.9803C86.8661 17.0194 86.9846 17.0389 87.1122 17.0389C87.206 17.0389 87.288 17.0324 87.3583 17.0194C87.4286 17.0064 87.4833 16.996 87.5224 16.9882L87.7333 17.953C87.6656 17.979 87.5693 18.0051 87.4443 18.0311C87.3193 18.0598 87.163 18.0754 86.9755 18.078C86.6682 18.0832 86.3818 18.0285 86.1161 17.9139C85.8505 17.7994 85.6357 17.6223 85.4716 17.3827C85.3075 17.1431 85.2255 16.8423 85.2255 16.4803V10.5624ZM90.2128 14.4374V17.9999H89.0448V9.99988H90.1972V12.9764H90.2714C90.412 12.6535 90.6269 12.397 90.9159 12.2069C91.205 12.0168 91.5826 11.9218 92.0488 11.9218C92.4602 11.9218 92.8196 12.0064 93.1269 12.1757C93.4368 12.3449 93.6764 12.5975 93.8456 12.9335C94.0175 13.2668 94.1034 13.6835 94.1034 14.1835V17.9999H92.9355V14.3241C92.9355 13.884 92.8222 13.5428 92.5956 13.3007C92.3691 13.0559 92.054 12.9335 91.6503 12.9335C91.3743 12.9335 91.1269 12.9921 90.9081 13.1093C90.692 13.2264 90.5214 13.3983 90.3964 13.6249C90.274 13.8488 90.2128 14.1197 90.2128 14.4374Z" fill="#E8E8E8"/>
<path d="M46.6605 30.9999V22.2726H50.2656C50.919 22.2726 51.4829 22.3905 51.9573 22.6263C52.4346 22.8593 52.8025 23.1945 53.061 23.632C53.3195 24.0666 53.4488 24.5823 53.4488 25.1789C53.4488 25.784 53.3167 26.2982 53.0525 26.7215C52.7883 27.1419 52.4133 27.4629 51.9275 27.6845C51.4417 27.9033 50.8664 28.0127 50.2016 28.0127H47.9218V26.3507H49.8096C50.1278 26.3507 50.3934 26.3095 50.6065 26.2271C50.8224 26.1419 50.9857 26.0141 51.0965 25.8436C51.2073 25.6703 51.2627 25.4487 51.2627 25.1789C51.2627 24.909 51.2073 24.686 51.0965 24.5098C50.9857 24.3308 50.8224 24.1973 50.6065 24.1093C50.3906 24.0183 50.1249 23.9729 49.8096 23.9729H48.7698V30.9999H46.6605ZM51.5738 27.0112L53.7471 30.9999H51.446L49.3153 27.0112H51.5738ZM57.5365 31.1235C56.8519 31.1235 56.2609 30.9885 55.7638 30.7186C55.2695 30.4459 54.8888 30.0581 54.6217 29.5553C54.3575 29.0496 54.2254 28.4487 54.2254 27.7527C54.2254 27.0766 54.359 26.4857 54.626 25.98C54.893 25.4715 55.2695 25.0766 55.7553 24.7953C56.2411 24.5112 56.8135 24.3692 57.4726 24.3692C57.9385 24.3692 58.3646 24.4416 58.751 24.5865C59.1374 24.7314 59.4712 24.9459 59.7524 25.23C60.0337 25.5141 60.2524 25.8649 60.4087 26.2825C60.5649 26.6973 60.643 27.1732 60.643 27.7101V28.23H54.9541V27.0198H58.7041C58.7013 26.7982 58.6487 26.6007 58.5465 26.4274C58.4442 26.2541 58.3036 26.1192 58.1246 26.0226C57.9484 25.9232 57.7453 25.8735 57.5152 25.8735C57.2823 25.8735 57.0734 25.926 56.8888 26.0311C56.7041 26.1334 56.5578 26.274 56.4499 26.453C56.3419 26.6291 56.2851 26.8294 56.2794 27.0539V28.2854C56.2794 28.5524 56.332 28.7868 56.4371 28.9885C56.5422 29.1874 56.6913 29.3422 56.8845 29.453C57.0777 29.5638 57.3078 29.6192 57.5749 29.6192C57.7595 29.6192 57.9271 29.5936 58.0777 29.5425C58.2283 29.4914 58.3575 29.4161 58.4655 29.3166C58.5734 29.2172 58.6544 29.095 58.7084 28.9502L60.6217 29.0056C60.5422 29.4345 60.3675 29.8081 60.0976 30.1263C59.8305 30.4416 59.4797 30.6874 59.045 30.8635C58.6104 31.0368 58.1075 31.1235 57.5365 31.1235ZM63.5525 31.1107C63.1349 31.1107 62.7641 31.0411 62.4403 30.9019C62.1193 30.7598 61.865 30.5467 61.6775 30.2627C61.4928 29.9757 61.4005 29.6164 61.4005 29.1845C61.4005 28.8209 61.4644 28.5141 61.5923 28.2641C61.7201 28.0141 61.8962 27.811 62.1207 27.6547C62.3451 27.4985 62.6036 27.3806 62.8962 27.301C63.1889 27.2186 63.5014 27.1632 63.8337 27.1348C64.2059 27.1007 64.5056 27.0652 64.7329 27.0283C64.9602 26.9885 65.1249 26.9331 65.2272 26.8621C65.3323 26.7882 65.3849 26.6845 65.3849 26.551V26.5297C65.3849 26.311 65.3096 26.1419 65.159 26.0226C65.0085 25.9033 64.8053 25.8436 64.5496 25.8436C64.2741 25.8436 64.0525 25.9033 63.8849 26.0226C63.7173 26.1419 63.6107 26.3067 63.5653 26.5169L61.6434 26.4487C61.7002 26.051 61.8465 25.6959 62.0823 25.3834C62.321 25.0681 62.6477 24.8209 63.0624 24.6419C63.48 24.4601 63.9815 24.3692 64.5667 24.3692C64.9843 24.3692 65.3693 24.4189 65.7215 24.5183C66.0738 24.6149 66.3806 24.757 66.642 24.9445C66.9033 25.1291 67.105 25.3564 67.2471 25.6263C67.392 25.8962 67.4644 26.2044 67.4644 26.551V30.9999H65.5042V30.0879H65.4531C65.3366 30.3095 65.1874 30.497 65.0056 30.6504C64.8266 30.8039 64.615 30.9189 64.3707 30.9956C64.1292 31.0723 63.8565 31.1107 63.5525 31.1107ZM64.196 29.747C64.4204 29.747 64.6221 29.7016 64.8011 29.6107C64.9829 29.5198 65.1278 29.3948 65.2357 29.2357C65.3437 29.0737 65.3977 28.8862 65.3977 28.6732V28.051C65.338 28.0823 65.2656 28.1107 65.1803 28.1362C65.0979 28.1618 65.007 28.186 64.9076 28.2087C64.8082 28.2314 64.7059 28.2513 64.6008 28.2683C64.4957 28.2854 64.3948 28.301 64.2982 28.3152C64.1022 28.3465 63.9346 28.3948 63.7954 28.4601C63.659 28.5254 63.5539 28.6107 63.48 28.7158C63.409 28.8181 63.3735 28.9402 63.3735 29.0823C63.3735 29.2982 63.4502 29.4629 63.6036 29.5766C63.7599 29.6902 63.9573 29.747 64.196 29.747ZM71.794 31.1235C71.1036 31.1235 70.5113 30.9814 70.017 30.6973C69.5255 30.4132 69.1477 30.0183 68.8835 29.5127C68.6193 29.0041 68.4871 28.4161 68.4871 27.7485C68.4871 27.078 68.6193 26.4899 68.8835 25.9843C69.1505 25.4757 69.5298 25.0794 70.0212 24.7953C70.5156 24.5112 71.105 24.3692 71.7897 24.3692C72.3948 24.3692 72.9218 24.4786 73.3707 24.6973C73.8224 24.9161 74.1746 25.2257 74.4275 25.6263C74.6832 26.024 74.8181 26.4914 74.8323 27.0283H72.8849C72.8451 26.6931 72.7315 26.4303 72.544 26.2399C72.3593 26.0496 72.1178 25.9544 71.8195 25.9544C71.5781 25.9544 71.3664 26.0226 71.1846 26.159C71.0028 26.2925 70.8607 26.4914 70.7585 26.7556C70.659 27.0169 70.6093 27.3408 70.6093 27.7271C70.6093 28.1135 70.659 28.4402 70.7585 28.7073C70.8607 28.9715 71.0028 29.1718 71.1846 29.3081C71.3664 29.4416 71.5781 29.5084 71.8195 29.5084C72.0127 29.5084 72.1832 29.4672 72.3309 29.3848C72.4815 29.3024 72.605 29.1817 72.7016 29.0226C72.7982 28.8607 72.8593 28.6646 72.8849 28.4345H74.8323C74.8124 28.9743 74.6775 29.4459 74.4275 29.8493C74.1803 30.2527 73.8323 30.5666 73.3835 30.7911C72.9374 31.0127 72.4076 31.1235 71.794 31.1235ZM79.5933 24.4544V25.9885H75.4641V24.4544H79.5933ZM76.3291 22.8862H78.4129V28.9416C78.4129 29.0695 78.4328 29.1732 78.4726 29.2527C78.5152 29.3294 78.5763 29.3848 78.6558 29.4189C78.7354 29.4502 78.8305 29.4658 78.9413 29.4658C79.0209 29.4658 79.1047 29.4587 79.1928 29.4445C79.2837 29.4274 79.3518 29.4132 79.3973 29.4019L79.7126 30.9061C79.6132 30.9345 79.4726 30.97 79.2908 31.0127C79.1118 31.0553 78.8973 31.0823 78.6473 31.0936C78.1587 31.1164 77.7396 31.0595 77.3902 30.9232C77.0436 30.784 76.778 30.5681 76.5933 30.2754C76.4115 29.9828 76.3234 29.6149 76.3291 29.1718V22.8862Z" fill="#61DAFB"/>
</g>
<rect x="0.749939" y="0.749878" width="103.5" height="38.5" rx="5.25" stroke="white" stroke-opacity="0.15" stroke-width="1.5"/>
<defs>
<filter id="filter0_d_2_903" x="5.99994" y="1.99988" width="36.0001" height="36" filterUnits="userSpaceOnUse" color-interpolation-filters="sRGB">
<feFlood flood-opacity="0" result="BackgroundImageFix"/>
<feColorMatrix in="SourceAlpha" type="matrix" values="0 0 0 0 0 0 0 0 0 0 0 0 0 0 0 0 0 0 127 0" result="hardAlpha"/>
<feOffset/>
<feGaussianBlur stdDeviation="2"/>
<feComposite in2="hardAlpha" operator="out"/>
<feColorMatrix type="matrix" values="0 0 0 0 0 0 0 0 0 0 0 0 0 0 0 0 0 0 0.25 0"/>
<feBlend mode="normal" in2="BackgroundImageFix" result="effect1_dropShadow_2_903"/>
<feBlend mode="normal" in="SourceGraphic" in2="effect1_dropShadow_2_903" result="shape"/>
</filter>
<filter id="filter1_d_2_903" x="41.9999" y="2.99988" width="57" height="34" filterUnits="userSpaceOnUse" color-interpolation-filters="sRGB">
<feFlood flood-opacity="0" result="BackgroundImageFix"/>
<feColorMatrix in="SourceAlpha" type="matrix" values="0 0 0 0 0 0 0 0 0 0 0 0 0 0 0 0 0 0 127 0" result="hardAlpha"/>
<feOffset/>
<feGaussianBlur stdDeviation="2"/>
<feComposite in2="hardAlpha" operator="out"/>
<feColorMatrix type="matrix" values="0 0 0 0 0 0 0 0 0 0 0 0 0 0 0 0 0 0 0.25 0"/>
<feBlend mode="normal" in2="BackgroundImageFix" result="effect1_dropShadow_2_903"/>
<feBlend mode="normal" in="SourceGraphic" in2="effect1_dropShadow_2_903" result="shape"/>
</filter>
<linearGradient id="paint0_linear_2_903" x1="52.4999" y1="-0.00012207" x2="52.4999" y2="39.9999" gradientUnits="userSpaceOnUse">
<stop stop-color="#0F343E"/>
<stop offset="1" stop-color="#072027"/>
</linearGradient>
</defs>
</svg>
