<svg width="144" height="56" viewBox="0 0 144 56" fill="none" xmlns="http://www.w3.org/2000/svg">
<rect x="-6.10352e-05" y="-0.00012207" width="144" height="56" rx="8" fill="url(#paint0_linear_2_3639)"/>
<rect x="1.04994" y="1.04988" width="141.9" height="53.9" rx="6.95" stroke="white" stroke-opacity="0.15" stroke-width="2.1"/>
<g filter="url(#filter0_d_2_3639)">
<g clip-path="url(#clip0_2_3639)">
<path fill-rule="evenodd" clip-rule="evenodd" d="M32.0001 7.99978C43.0458 7.99978 52.0001 16.9541 52.0001 27.9999C52.0001 39.0456 43.0458 47.9999 32.0001 47.9999C20.9544 47.9999 12 39.0456 12 27.9999C12 16.9541 20.9544 7.99978 32.0001 7.99978Z" fill="#CD6699"/>
<path d="M28.0254 34.662C28.3164 35.7383 28.2845 36.7421 27.984 37.6511C27.9506 37.752 27.9138 37.8519 27.8738 37.9506C27.8339 38.0492 27.7907 38.1466 27.7444 38.2428C27.5126 38.7237 27.2015 39.1739 26.8206 39.5894C25.6585 40.8571 24.035 41.3365 23.3388 40.9326C22.587 40.4968 22.9636 38.7094 24.3109 37.2853C25.7603 35.753 27.8457 34.7679 27.8457 34.7679L27.8425 34.7617C27.9026 34.7294 27.9636 34.6961 28.0254 34.662ZM44.5455 16.5601C43.6398 13.008 37.7501 11.8404 32.1757 13.8208C28.8584 14.9992 25.2671 16.849 22.6849 19.2643C19.6146 22.1361 19.125 24.6356 19.3268 25.68C20.0386 29.3652 25.0882 31.7741 27.1639 33.5613V33.5721C26.5519 33.8734 22.0719 36.1406 21.0235 38.4584C19.9173 40.9037 21.1996 42.6584 22.0486 42.8946C24.679 43.6264 27.3782 42.3101 28.8288 40.1464C30.2287 38.0583 30.1121 35.362 29.5038 34.0207C30.3429 33.7993 31.3213 33.7001 32.5646 33.8454C36.0729 34.2552 36.7613 36.4458 36.6297 37.3624C36.4982 38.2793 35.7623 38.7834 35.5163 38.9356C35.2702 39.0878 35.1951 39.1405 35.2158 39.2536C35.2456 39.4181 35.3595 39.412 35.5693 39.3765C35.8581 39.3278 37.4116 38.6308 37.478 36.9384C37.5626 34.7898 35.5035 32.3863 31.8577 32.4491C30.3562 32.475 29.412 32.6178 28.7301 32.8717C28.6797 32.8142 28.6283 32.7571 28.5753 32.7005C26.3213 30.2957 22.1547 28.5947 22.3314 25.3618C22.3956 24.1866 22.8041 21.0918 30.3377 17.3378C36.509 14.2627 41.4493 15.109 42.3031 16.9844C43.5227 19.6637 39.6628 24.6435 33.2538 25.3618C30.8121 25.6356 29.5264 24.6892 29.2066 24.3368C28.8699 23.9658 28.8197 23.949 28.6941 24.0186C28.4892 24.132 28.619 24.4596 28.6941 24.6549C28.8854 25.1529 29.6706 26.036 31.0093 26.4753C32.1869 26.8618 35.0538 27.0741 38.5209 25.733C42.4039 24.231 45.4361 20.0527 44.5455 16.5601Z" fill="white"/>
</g>
</g>
<g filter="url(#filter1_d_2_3639)">
<path d="M61.2783 24.4999V12.8635H65.5397C66.3655 12.8635 67.0492 12.9999 67.5908 13.2726C68.1325 13.5415 68.5378 13.9071 68.8068 14.3692C69.0757 14.8275 69.2102 15.3446 69.2102 15.9203C69.2102 16.4052 69.1211 16.8143 68.9431 17.1476C68.7651 17.4771 68.5265 17.7423 68.2272 17.9431C67.9318 18.14 67.606 18.284 67.2499 18.3749V18.4885C67.6363 18.5075 68.0132 18.6325 68.3806 18.8635C68.7518 19.0908 69.0586 19.4146 69.3011 19.8351C69.5435 20.2556 69.6647 20.7669 69.6647 21.3692C69.6647 21.9639 69.5246 22.498 69.2443 22.9715C68.9677 23.4412 68.5397 23.8143 67.9602 24.0908C67.3806 24.3635 66.6401 24.4999 65.7386 24.4999H61.2783ZM63.034 22.9942H65.5681C66.409 22.9942 67.0113 22.8313 67.3749 22.5056C67.7386 22.1798 67.9204 21.7726 67.9204 21.284C67.9204 20.9165 67.8276 20.5794 67.642 20.2726C67.4564 19.9658 67.1912 19.7215 66.8465 19.5396C66.5056 19.3578 66.1003 19.2669 65.6306 19.2669H63.034V22.9942ZM63.034 17.8976H65.3863C65.7802 17.8976 66.1344 17.8218 66.4488 17.6703C66.767 17.5188 67.0189 17.3067 67.2045 17.034C67.3939 16.7575 67.4886 16.4317 67.4886 16.0567C67.4886 15.5756 67.32 15.1722 66.9829 14.8465C66.6458 14.5207 66.1287 14.3578 65.4318 14.3578H63.034V17.8976ZM77.1391 20.8806V15.7726H78.8437V24.4999H77.1732V22.9885H77.0823C76.8816 23.4544 76.5596 23.8427 76.1164 24.1533C75.677 24.4601 75.1297 24.6135 74.4744 24.6135C73.9138 24.6135 73.4175 24.4904 72.9857 24.2442C72.5577 23.9942 72.2206 23.6249 71.9744 23.1362C71.7319 22.6476 71.6107 22.0434 71.6107 21.3237V15.7726H73.3096V21.1192C73.3096 21.7139 73.4744 22.1874 73.8039 22.5396C74.1335 22.8919 74.5615 23.0681 75.088 23.0681C75.4062 23.0681 75.7225 22.9885 76.0369 22.8294C76.355 22.6703 76.6183 22.4298 76.8266 22.1078C77.0388 21.7859 77.1429 21.3768 77.1391 20.8806ZM81.1264 24.4999V15.7726H82.8252V24.4999H81.1264ZM81.9843 14.426C81.6889 14.426 81.4351 14.3275 81.2229 14.1306C81.0146 13.9298 80.9104 13.6912 80.9104 13.4146C80.9104 13.1343 81.0146 12.8957 81.2229 12.6987C81.4351 12.498 81.6889 12.3976 81.9843 12.3976C82.2798 12.3976 82.5317 12.498 82.74 12.6987C82.9521 12.8957 83.0582 13.1343 83.0582 13.4146C83.0582 13.6912 82.9521 13.9298 82.74 14.1306C82.5317 14.3275 82.2798 14.426 81.9843 14.426ZM86.8096 12.8635V24.4999H85.1107V12.8635H86.8096ZM93.169 15.7726V17.1362H88.4019V15.7726H93.169ZM89.6803 13.6817H91.3792V21.9374C91.3792 22.2669 91.4284 22.515 91.5269 22.6817C91.6254 22.8446 91.7523 22.9563 91.9076 23.0169C92.0667 23.0737 92.239 23.1021 92.4246 23.1021C92.561 23.1021 92.6803 23.0927 92.7826 23.0737C92.8849 23.0548 92.9644 23.0396 93.0212 23.0283L93.3281 24.4317C93.2296 24.4696 93.0894 24.5074 92.9076 24.5453C92.7258 24.587 92.4985 24.6097 92.2258 24.6135C91.7788 24.6211 91.3621 24.5415 90.9758 24.3749C90.5894 24.2082 90.2769 23.9506 90.0383 23.6021C89.7996 23.2537 89.6803 22.8162 89.6803 22.2896V13.6817ZM101.175 24.4999L98.6065 15.7726H100.362L102.072 22.1817H102.158L103.874 15.7726H105.629L107.334 22.1533H107.419L109.118 15.7726H110.874L108.311 24.4999H106.578L104.805 18.1987H104.675L102.902 24.4999H101.175ZM112.486 24.4999V15.7726H114.185V24.4999H112.486ZM113.344 14.426C113.048 14.426 112.794 14.3275 112.582 14.1306C112.374 13.9298 112.27 13.6912 112.27 13.4146C112.27 13.1343 112.374 12.8957 112.582 12.6987C112.794 12.498 113.048 12.3976 113.344 12.3976C113.639 12.3976 113.891 12.498 114.099 12.6987C114.311 12.8957 114.418 13.1343 114.418 13.4146C114.418 13.6912 114.311 13.9298 114.099 14.1306C113.891 14.3275 113.639 14.426 113.344 14.426ZM120.544 15.7726V17.1362H115.777V15.7726H120.544ZM117.055 13.6817H118.754V21.9374C118.754 22.2669 118.803 22.515 118.902 22.6817C119 22.8446 119.127 22.9563 119.283 23.0169C119.442 23.0737 119.614 23.1021 119.8 23.1021C119.936 23.1021 120.055 23.0927 120.158 23.0737C120.26 23.0548 120.339 23.0396 120.396 23.0283L120.703 24.4317C120.605 24.4696 120.464 24.5074 120.283 24.5453C120.101 24.587 119.874 24.6097 119.601 24.6135C119.154 24.6211 118.737 24.5415 118.351 24.3749C117.964 24.2082 117.652 23.9506 117.413 23.6021C117.175 23.2537 117.055 22.8162 117.055 22.2896V13.6817ZM124.31 19.3181V24.4999H122.611V12.8635H124.287V17.1931H124.395C124.599 16.7234 124.912 16.3503 125.332 16.0737C125.753 15.7972 126.302 15.659 126.98 15.659C127.579 15.659 128.101 15.7821 128.548 16.0283C128.999 16.2745 129.347 16.6419 129.594 17.1306C129.844 17.6154 129.969 18.2215 129.969 18.9487V24.4999H128.27V19.1533C128.27 18.5131 128.105 18.0169 127.775 17.6646C127.446 17.3086 126.988 17.1306 126.4 17.1306C125.999 17.1306 125.639 17.2158 125.321 17.3862C125.007 17.5567 124.758 17.8067 124.577 18.1362C124.399 18.462 124.31 18.8559 124.31 19.3181Z" fill="#E8E8E8"/>
<path d="M67.6185 34.8429C67.5783 34.4002 67.3992 34.0561 67.0813 33.8106C66.7673 33.5611 66.3186 33.4363 65.735 33.4363C65.3487 33.4363 65.0267 33.4866 64.7691 33.5872C64.5115 33.6878 64.3184 33.8267 64.1896 34.0038C64.0608 34.1768 63.9944 34.3761 63.9903 34.6014C63.9823 34.7866 64.0185 34.9496 64.099 35.0904C64.1835 35.2313 64.3043 35.3561 64.4612 35.4647C64.6222 35.5694 64.8154 35.6619 65.0408 35.7424C65.2662 35.8229 65.5197 35.8933 65.8014 35.9537L66.8639 36.1952C67.4757 36.328 68.015 36.5051 68.4818 36.7264C68.9527 36.9478 69.3471 37.2114 69.6651 37.5173C69.987 37.8231 70.2305 38.1753 70.3955 38.5737C70.5605 38.9722 70.6451 39.4189 70.6491 39.9139C70.6451 40.6947 70.4479 41.3648 70.0575 41.9242C69.6671 42.4837 69.1056 42.9123 68.3732 43.2101C67.6447 43.5079 66.7653 43.6568 65.735 43.6568C64.7007 43.6568 63.7992 43.5019 63.0305 43.192C62.2618 42.8821 61.6641 42.4112 61.2375 41.7793C60.8109 41.1475 60.5916 40.3486 60.5795 39.3827H63.441C63.4651 39.7811 63.5718 40.1132 63.7609 40.3788C63.9501 40.6444 64.2097 40.8456 64.5397 40.9825C64.8738 41.1193 65.2601 41.1877 65.6988 41.1877C66.1013 41.1877 66.4434 41.1334 66.7251 41.0247C67.0108 40.9161 67.2302 40.7651 67.3831 40.572C67.536 40.3788 67.6145 40.1574 67.6185 39.9079C67.6145 39.6745 67.5421 39.4753 67.4012 39.3102C67.2604 39.1412 67.043 38.9963 66.7492 38.8756C66.4595 38.7508 66.0892 38.6361 65.6384 38.5315L64.3465 38.2296C63.276 37.9841 62.4328 37.5877 61.8171 37.0404C61.2013 36.489 60.8954 35.7444 60.8994 34.8067C60.8954 34.042 61.1007 33.3719 61.5152 32.7964C61.9297 32.2209 62.5033 31.7721 63.2357 31.4502C63.9682 31.1282 64.8033 30.9672 65.7411 30.9672C66.6989 30.9672 67.53 31.1302 68.2343 31.4562C68.9426 31.7782 69.492 32.2309 69.8824 32.8145C70.2728 33.3981 70.472 34.0742 70.4801 34.8429H67.6185ZM74.7723 43.6568C74.1807 43.6568 73.6555 43.5582 73.1967 43.361C72.7419 43.1598 72.3817 42.8579 72.1161 42.4555C71.8545 42.049 71.7237 41.5399 71.7237 40.9281C71.7237 40.413 71.8142 39.9783 71.9953 39.6242C72.1764 39.27 72.426 38.9822 72.7439 38.7609C73.0618 38.5395 73.4281 38.3725 73.8426 38.2598C74.2572 38.1431 74.6999 38.0646 75.1707 38.0244C75.698 37.9761 76.1226 37.9258 76.4445 37.8735C76.7665 37.8171 76.9999 37.7386 77.1448 37.638C77.2937 37.5334 77.3682 37.3865 77.3682 37.1973V37.1671C77.3682 36.8572 77.2615 36.6178 77.0482 36.4487C76.8349 36.2797 76.5472 36.1952 76.1849 36.1952C75.7946 36.1952 75.4806 36.2797 75.2432 36.4487C75.0057 36.6178 74.8548 36.8512 74.7904 37.149L72.0678 37.0524C72.1483 36.489 72.3555 35.9859 72.6896 35.5432C73.0276 35.0965 73.4905 34.7463 74.0781 34.4928C74.6697 34.2352 75.38 34.1064 76.2091 34.1064C76.8007 34.1064 77.3461 34.1768 77.8451 34.3177C78.3442 34.4545 78.7788 34.6558 79.1491 34.9214C79.5193 35.183 79.8051 35.505 80.0063 35.8873C80.2116 36.2696 80.3142 36.7063 80.3142 37.1973V43.4999H77.5372V42.208H77.4648C77.2998 42.5219 77.0885 42.7875 76.8309 43.0048C76.5773 43.2222 76.2775 43.3852 75.9314 43.4938C75.5893 43.6025 75.2029 43.6568 74.7723 43.6568ZM75.6839 41.725C76.0018 41.725 76.2876 41.6606 76.5411 41.5318C76.7987 41.403 77.004 41.226 77.1569 41.0006C77.3098 40.7712 77.3863 40.5056 77.3863 40.2037V39.3223C77.3018 39.3666 77.1992 39.4068 77.0784 39.4431C76.9617 39.4793 76.8329 39.5135 76.6921 39.5457C76.5512 39.5779 76.4063 39.6061 76.2574 39.6302C76.1085 39.6543 75.9656 39.6765 75.8288 39.6966C75.5511 39.7409 75.3136 39.8093 75.1164 39.9019C74.9232 39.9944 74.7743 40.1152 74.6697 40.2641C74.5691 40.409 74.5188 40.582 74.5188 40.7833C74.5188 41.0891 74.6274 41.3226 74.8447 41.4835C75.0661 41.6445 75.3458 41.725 75.6839 41.725ZM90.2148 37.0585L87.5042 37.1309C87.476 36.9377 87.3996 36.7667 87.2748 36.6178C87.15 36.4648 86.987 36.3461 86.7858 36.2616C86.5886 36.1731 86.3592 36.1288 86.0976 36.1288C85.7555 36.1288 85.4637 36.1972 85.2222 36.334C84.9848 36.4709 84.8681 36.656 84.8721 36.8894C84.8681 37.0705 84.9405 37.2275 85.0894 37.3603C85.2424 37.4931 85.514 37.5998 85.9044 37.6803L87.6913 38.0183C88.617 38.1954 89.3052 38.4892 89.756 38.8997C90.2107 39.3102 90.4402 39.8536 90.4442 40.5297C90.4402 41.1656 90.251 41.719 89.8767 42.1899C89.5064 42.6607 88.9993 43.027 88.3554 43.2886C87.7115 43.5462 86.975 43.6749 86.1459 43.6749C84.8218 43.6749 83.7774 43.4033 83.0127 42.86C82.2521 42.3126 81.8174 41.5801 81.7087 40.6625L84.6246 40.5901C84.689 40.9281 84.856 41.1857 85.1256 41.3628C85.3953 41.5399 85.7394 41.6284 86.158 41.6284C86.5363 41.6284 86.8442 41.558 87.0816 41.4171C87.3191 41.2763 87.4398 41.0891 87.4438 40.8557C87.4398 40.6464 87.3472 40.4794 87.1661 40.3546C86.985 40.2258 86.7013 40.1252 86.3149 40.0528L84.697 39.7449C83.7673 39.5759 83.0751 39.264 82.6203 38.8092C82.1655 38.3504 81.9402 37.7668 81.9442 37.0585C81.9402 36.4387 82.1052 35.9094 82.4392 35.4708C82.7733 35.028 83.2482 34.69 83.8639 34.4566C84.4797 34.2231 85.2061 34.1064 86.0433 34.1064C87.2989 34.1064 88.289 34.37 89.0134 34.8972C89.7379 35.4204 90.1383 36.1409 90.2148 37.0585ZM99.9931 37.0585L97.2825 37.1309C97.2543 36.9377 97.1779 36.7667 97.0531 36.6178C96.9283 36.4648 96.7653 36.3461 96.5641 36.2616C96.3669 36.1731 96.1375 36.1288 95.8759 36.1288C95.5338 36.1288 95.242 36.1972 95.0006 36.334C94.7631 36.4709 94.6464 36.656 94.6504 36.8894C94.6464 37.0705 94.7188 37.2275 94.8677 37.3603C95.0207 37.4931 95.2923 37.5998 95.6827 37.6803L97.4697 38.0183C98.3953 38.1954 99.0835 38.4892 99.5343 38.8997C99.9891 39.3102 100.218 39.8536 100.222 40.5297C100.218 41.1656 100.029 41.719 99.655 42.1899C99.2848 42.6607 98.7777 43.027 98.1337 43.2886C97.4898 43.5462 96.7533 43.6749 95.9242 43.6749C94.6001 43.6749 93.5557 43.4033 92.791 42.86C92.0304 42.3126 91.5957 41.5801 91.4871 40.6625L94.4029 40.5901C94.4673 40.9281 94.6343 41.1857 94.904 41.3628C95.1736 41.5399 95.5177 41.6284 95.9363 41.6284C96.3146 41.6284 96.6225 41.558 96.8599 41.4171C97.0974 41.2763 97.2181 41.0891 97.2221 40.8557C97.2181 40.6464 97.1255 40.4794 96.9444 40.3546C96.7633 40.2258 96.4796 40.1252 96.0932 40.0528L94.4753 39.7449C93.5456 39.5759 92.8534 39.264 92.3986 38.8092C91.9439 38.3504 91.7185 37.7668 91.7225 37.0585C91.7185 36.4387 91.8835 35.9094 92.2175 35.4708C92.5516 35.028 93.0265 34.69 93.6422 34.4566C94.258 34.2231 94.9845 34.1064 95.8216 34.1064C97.0773 34.1064 98.0673 34.37 98.7917 34.8972C99.5162 35.4204 99.9166 36.1409 99.9931 37.0585Z" fill="#CD6699"/>
</g>
<defs>
<filter id="filter0_d_2_3639" x="6.28565" y="2.28559" width="51.4286" height="51.4286" filterUnits="userSpaceOnUse" color-interpolation-filters="sRGB">
<feFlood flood-opacity="0" result="BackgroundImageFix"/>
<feColorMatrix in="SourceAlpha" type="matrix" values="0 0 0 0 0 0 0 0 0 0 0 0 0 0 0 0 0 0 127 0" result="hardAlpha"/>
<feOffset/>
<feGaussianBlur stdDeviation="2.85714"/>
<feComposite in2="hardAlpha" operator="out"/>
<feColorMatrix type="matrix" values="0 0 0 0 0 0 0 0 0 0 0 0 0 0 0 0 0 0 0.25 0"/>
<feBlend mode="normal" in2="BackgroundImageFix" result="effect1_dropShadow_2_3639"/>
<feBlend mode="normal" in="SourceGraphic" in2="effect1_dropShadow_2_3639" result="shape"/>
</filter>
<filter id="filter1_d_2_3639" x="54.3999" y="3.89988" width="83.2" height="48.2" filterUnits="userSpaceOnUse" color-interpolation-filters="sRGB">
<feFlood flood-opacity="0" result="BackgroundImageFix"/>
<feColorMatrix in="SourceAlpha" type="matrix" values="0 0 0 0 0 0 0 0 0 0 0 0 0 0 0 0 0 0 127 0" result="hardAlpha"/>
<feOffset/>
<feGaussianBlur stdDeviation="2.8"/>
<feComposite in2="hardAlpha" operator="out"/>
<feColorMatrix type="matrix" values="0 0 0 0 0 0 0 0 0 0 0 0 0 0 0 0 0 0 0.25 0"/>
<feBlend mode="normal" in2="BackgroundImageFix" result="effect1_dropShadow_2_3639"/>
<feBlend mode="normal" in="SourceGraphic" in2="effect1_dropShadow_2_3639" result="shape"/>
</filter>
<linearGradient id="paint0_linear_2_3639" x1="71.9999" y1="-0.00012207" x2="71.9999" y2="55.9999" gradientUnits="userSpaceOnUse">
<stop stop-color="#442132"/>
<stop offset="1" stop-color="#26121C"/>
</linearGradient>
<clipPath id="clip0_2_3639">
<rect width="40" height="40" fill="white" transform="translate(12 7.99988)"/>
</clipPath>
</defs>
</svg>
