<svg width="144" height="56" viewBox="0 0 144 56" fill="none" xmlns="http://www.w3.org/2000/svg">
<rect width="144" height="56" rx="8" fill="url(#paint0_linear_1_50)"/>
<g filter="url(#filter0_d_1_50)">
<g clip-path="url(#clip0_1_50)">
<path d="M38.7867 22.5455C38.7867 24.6494 37.081 26.355 34.9771 26.355C32.8731 26.355 31.1675 24.6494 31.1675 22.5455C31.1675 20.4415 32.8731 18.7359 34.9771 18.7359C37.081 18.7359 38.7867 20.4415 38.7867 22.5455Z" fill="#FFC131"/>
<path d="M28.5701 29.645C26.4662 29.645 24.7606 31.3506 24.7606 33.4545C24.7606 35.5585 26.4662 37.2641 28.5701 37.2641C30.6741 37.2641 32.3797 35.5585 32.3797 33.4545C32.3797 31.3506 30.6741 29.645 28.5701 29.645Z" fill="#24C8DB"/>
<path fill-rule="evenodd" clip-rule="evenodd" d="M42.8724 34.7616C41.3351 35.7551 39.6317 36.4448 37.854 36.8036C38.2178 35.7545 38.4156 34.6275 38.4156 33.4545C38.4156 33.0291 38.3896 32.6097 38.339 32.1979C39.1039 31.9314 39.8381 31.5739 40.5252 31.1299C42.1784 30.0613 43.4878 28.5382 44.2963 26.7435C45.1048 24.9489 45.3778 22.9589 45.0826 21.0128C44.7875 19.0666 43.9366 17.2471 42.6324 15.7729C41.3281 14.2986 39.626 13.2323 37.7302 12.7021C35.8346 12.1719 33.8261 12.2003 31.9463 12.784C30.0665 13.3676 28.3951 14.4817 27.1331 15.9923C26.9715 16.1857 26.8174 16.3847 26.6712 16.5886C24.7237 16.805 22.8375 17.3562 21.0931 18.2088C21.6609 16.3911 22.5827 14.6942 23.8145 13.2198C25.6105 11.0701 27.9889 9.48472 30.6641 8.65413C33.3394 7.82355 36.1974 7.78309 38.8951 8.53762C41.5927 9.29215 44.0151 10.8096 45.8712 12.9075C47.7273 15.0055 48.938 17.5948 49.3581 20.3643C49.7782 23.1338 49.3894 25.9657 48.239 28.5197C47.0885 31.0736 45.2249 33.241 42.8724 34.7616ZM21.2663 20.8615L24.8322 21.2994C24.917 20.6083 25.0719 19.931 25.2924 19.2775C23.8782 19.602 22.521 20.1363 21.2663 20.8615Z" fill="#FFC131"/>
<path fill-rule="evenodd" clip-rule="evenodd" d="M20.6501 21.2384C22.199 20.2374 23.9165 19.5448 25.7086 19.1884C25.3034 20.2886 25.0823 21.4778 25.0823 22.7186C25.0823 23.0898 25.102 23.4563 25.1406 23.8172C24.3912 24.0819 23.6716 24.4345 22.9974 24.8702C21.3442 25.9387 20.0347 27.4618 19.2263 29.2564C18.4178 31.0511 18.1447 33.041 18.4399 34.9872C18.735 36.9333 19.5859 38.7529 20.8901 40.2272C22.1944 41.7015 23.8966 42.7678 25.7923 43.298C27.6879 43.828 29.6963 43.7997 31.5761 43.2161C33.4561 42.6324 35.1274 41.5183 36.3894 40.0078C36.5519 39.8133 36.7067 39.6133 36.8535 39.4083C38.8026 39.1886 40.6895 38.6338 42.4338 37.777C41.8665 39.6 40.943 41.302 39.7081 42.7803C37.912 44.9299 35.5337 46.5153 32.8584 47.3458C30.1832 48.1764 27.3251 48.217 24.6275 47.4623C21.9298 46.7079 19.5074 45.1905 17.6514 43.0925C15.7953 40.9945 14.5845 38.4052 14.1645 35.6357C13.7444 32.8661 14.133 30.0343 15.2835 27.4803C16.434 24.9264 18.2975 22.7589 20.6501 21.2384Z" fill="#24C8DB"/>
</g>
</g>
<g filter="url(#filter1_d_1_50)">
<path d="M61.2784 24.5V12.8636H65.5398C66.3655 12.8636 67.0492 13 67.5909 13.2727C68.1326 13.5417 68.5379 13.9072 68.8068 14.3693C69.0757 14.8276 69.2102 15.3447 69.2102 15.9204C69.2102 16.4053 69.1212 16.8144 68.9432 17.1477C68.7651 17.4773 68.5265 17.7424 68.2273 17.9432C67.9318 18.1401 67.606 18.2841 67.25 18.375V18.4886C67.6363 18.5076 68.0132 18.6326 68.3807 18.8636C68.7519 19.0909 69.0587 19.4148 69.3011 19.8352C69.5435 20.2557 69.6648 20.767 69.6648 21.3693C69.6648 21.964 69.5246 22.4981 69.2443 22.9716C68.9678 23.4413 68.5398 23.8144 67.9602 24.0909C67.3807 24.3636 66.6401 24.5 65.7386 24.5H61.2784ZM63.0341 22.9943H65.5682C66.4091 22.9943 67.0113 22.8314 67.375 22.5057C67.7386 22.1799 67.9204 21.7727 67.9204 21.2841C67.9204 20.9167 67.8276 20.5795 67.642 20.2727C67.4564 19.9659 67.1913 19.7216 66.8466 19.5398C66.5057 19.3579 66.1004 19.267 65.6307 19.267H63.0341V22.9943ZM63.0341 17.8977H65.3863C65.7803 17.8977 66.1345 17.822 66.4488 17.6704C66.767 17.5189 67.0189 17.3068 67.2045 17.0341C67.3939 16.7576 67.4886 16.4318 67.4886 16.0568C67.4886 15.5758 67.3201 15.1723 66.9829 14.8466C66.6458 14.5208 66.1288 14.3579 65.4318 14.3579H63.0341V17.8977ZM77.1392 20.8807V15.7727H78.8437V24.5H77.1733V22.9886H77.0824C76.8816 23.4545 76.5596 23.8428 76.1165 24.1534C75.6771 24.4602 75.1297 24.6136 74.4744 24.6136C73.9138 24.6136 73.4176 24.4905 72.9858 24.2443C72.5577 23.9943 72.2206 23.625 71.9744 23.1364C71.732 22.6477 71.6108 22.0436 71.6108 21.3239V15.7727H73.3096V21.1193C73.3096 21.714 73.4744 22.1875 73.804 22.5398C74.1335 22.892 74.5615 23.0682 75.088 23.0682C75.4062 23.0682 75.7225 22.9886 76.0369 22.8295C76.3551 22.6704 76.6184 22.4299 76.8267 22.1079C77.0388 21.786 77.143 21.3769 77.1392 20.8807ZM81.1264 24.5V15.7727H82.8253V24.5H81.1264ZM81.9844 14.4261C81.6889 14.4261 81.4351 14.3276 81.223 14.1307C81.0147 13.9299 80.9105 13.6913 80.9105 13.4148C80.9105 13.1345 81.0147 12.8958 81.223 12.6989C81.4351 12.4981 81.6889 12.3977 81.9844 12.3977C82.2798 12.3977 82.5317 12.4981 82.74 12.6989C82.9522 12.8958 83.0582 13.1345 83.0582 13.4148C83.0582 13.6913 82.9522 13.9299 82.74 14.1307C82.5317 14.3276 82.2798 14.4261 81.9844 14.4261ZM86.8096 12.8636V24.5H85.1108V12.8636H86.8096ZM93.169 15.7727V17.1364H88.402V15.7727H93.169ZM89.6804 13.6818H91.3792V21.9375C91.3792 22.267 91.4285 22.5151 91.527 22.6818C91.6254 22.8447 91.7523 22.9564 91.9076 23.017C92.0667 23.0739 92.2391 23.1023 92.4247 23.1023C92.5611 23.1023 92.6804 23.0928 92.7826 23.0739C92.8849 23.0549 92.9645 23.0398 93.0213 23.0284L93.3281 24.4318C93.2296 24.4697 93.0895 24.5076 92.9076 24.5454C92.7258 24.5871 92.4986 24.6098 92.2258 24.6136C91.7789 24.6212 91.3622 24.5417 90.9758 24.375C90.5895 24.2083 90.277 23.9508 90.0383 23.6023C89.7997 23.2538 89.6804 22.8163 89.6804 22.2898V13.6818ZM101.175 24.5L98.6065 15.7727H100.362L102.072 22.1818H102.158L103.874 15.7727H105.629L107.334 22.1534H107.419L109.118 15.7727H110.874L108.311 24.5H106.578L104.805 18.1989H104.675L102.902 24.5H101.175ZM112.486 24.5V15.7727H114.185V24.5H112.486ZM113.344 14.4261C113.048 14.4261 112.794 14.3276 112.582 14.1307C112.374 13.9299 112.27 13.6913 112.27 13.4148C112.27 13.1345 112.374 12.8958 112.582 12.6989C112.794 12.4981 113.048 12.3977 113.344 12.3977C113.639 12.3977 113.891 12.4981 114.099 12.6989C114.312 12.8958 114.418 13.1345 114.418 13.4148C114.418 13.6913 114.312 13.9299 114.099 14.1307C113.891 14.3276 113.639 14.4261 113.344 14.4261ZM120.544 15.7727V17.1364H115.777V15.7727H120.544ZM117.055 13.6818H118.754V21.9375C118.754 22.267 118.803 22.5151 118.902 22.6818C119 22.8447 119.127 22.9564 119.283 23.017C119.442 23.0739 119.614 23.1023 119.8 23.1023C119.936 23.1023 120.055 23.0928 120.158 23.0739C120.26 23.0549 120.339 23.0398 120.396 23.0284L120.703 24.4318C120.605 24.4697 120.464 24.5076 120.283 24.5454C120.101 24.5871 119.874 24.6098 119.601 24.6136C119.154 24.6212 118.737 24.5417 118.351 24.375C117.964 24.2083 117.652 23.9508 117.413 23.6023C117.175 23.2538 117.055 22.8163 117.055 22.2898V13.6818ZM124.31 19.3182V24.5H122.611V12.8636H124.287V17.1932H124.395C124.599 16.7235 124.912 16.3504 125.332 16.0739C125.753 15.7973 126.302 15.6591 126.98 15.6591C127.579 15.6591 128.101 15.7822 128.548 16.0284C128.999 16.2746 129.348 16.642 129.594 17.1307C129.844 17.6155 129.969 18.2216 129.969 18.9489V24.5H128.27V19.1534C128.27 18.5133 128.105 18.017 127.776 17.6648C127.446 17.3087 126.988 17.1307 126.401 17.1307C125.999 17.1307 125.639 17.2159 125.321 17.3864C125.007 17.5568 124.758 17.8068 124.577 18.1364C124.399 18.4621 124.31 18.8561 124.31 19.3182Z" fill="#E8E8E8"/>
<path d="M60.5312 33.5632V31.1364H70.9812V33.5632H67.2322V43.5H64.2862V33.5632H60.5312ZM73.7929 43.6569C73.2012 43.6569 72.676 43.5583 72.2172 43.3611C71.7624 43.1599 71.4022 42.8581 71.1366 42.4556C70.875 42.0491 70.7442 41.54 70.7442 40.9283C70.7442 40.4131 70.8348 39.9784 71.0159 39.6243C71.197 39.2701 71.4465 38.9824 71.7645 38.761C72.0824 38.5396 72.4486 38.3726 72.8632 38.2599C73.2777 38.1432 73.7204 38.0647 74.1913 38.0245C74.7185 37.9762 75.1431 37.9259 75.4651 37.8736C75.7871 37.8172 76.0205 37.7387 76.1654 37.6381C76.3143 37.5335 76.3887 37.3866 76.3887 37.1974V37.1672C76.3887 36.8574 76.2821 36.6179 76.0688 36.4489C75.8555 36.2798 75.5677 36.1953 75.2055 36.1953C74.8151 36.1953 74.5012 36.2798 74.2637 36.4489C74.0263 36.6179 73.8754 36.8513 73.811 37.1491L71.0883 37.0525C71.1688 36.4891 71.3761 35.986 71.7101 35.5433C72.0482 35.0966 72.511 34.7464 73.0986 34.4929C73.6902 34.2353 74.4006 34.1065 75.2297 34.1065C75.8213 34.1065 76.3666 34.177 76.8657 34.3178C77.3647 34.4547 77.7994 34.6559 78.1696 34.9215C78.5399 35.1831 78.8256 35.5051 79.0269 35.8874C79.2321 36.2698 79.3348 36.7064 79.3348 37.1974V43.5H76.5578V42.2081H76.4853C76.3203 42.522 76.109 42.7876 75.8515 43.005C75.5979 43.2223 75.2981 43.3853 74.952 43.494C74.6099 43.6026 74.2235 43.6569 73.7929 43.6569ZM74.7044 41.7251C75.0224 41.7251 75.3081 41.6607 75.5617 41.5319C75.8193 41.4032 76.0245 41.2261 76.1774 41.0007C76.3304 40.7713 76.4069 40.5057 76.4069 40.2038V39.3224C76.3223 39.3667 76.2197 39.4069 76.099 39.4432C75.9823 39.4794 75.8535 39.5136 75.7126 39.5458C75.5717 39.578 75.4269 39.6062 75.2779 39.6303C75.129 39.6545 74.9862 39.6766 74.8493 39.6967C74.5716 39.741 74.3342 39.8094 74.137 39.902C73.9438 39.9945 73.7949 40.1153 73.6902 40.2642C73.5896 40.4091 73.5393 40.5821 73.5393 40.7834C73.5393 41.0892 73.648 41.3227 73.8653 41.4837C74.0867 41.6446 74.3664 41.7251 74.7044 41.7251ZM87.1224 39.4975V34.2273H90.0684V43.5H87.2552V41.7734H87.1586C86.9534 42.3409 86.6032 42.7917 86.1082 43.1257C85.6172 43.4557 85.0236 43.6207 84.3273 43.6207C83.6954 43.6207 83.14 43.4758 82.6611 43.1861C82.1822 42.8963 81.8099 42.4918 81.5443 41.9726C81.2787 41.4494 81.1438 40.8377 81.1398 40.1374V34.2273H84.0919V39.5579C84.0959 40.061 84.2287 40.4574 84.4903 40.7471C84.7519 41.0369 85.1081 41.1818 85.5588 41.1818C85.8526 41.1818 86.1162 41.1174 86.3497 40.9886C86.5871 40.8558 86.7743 40.6646 86.9111 40.4151C87.052 40.1616 87.1224 39.8557 87.1224 39.4975ZM91.9474 43.5V34.2273H94.815V35.9176H94.9116C95.0806 35.3059 95.3563 34.8511 95.7386 34.5533C96.1209 34.2514 96.5657 34.1005 97.0728 34.1005C97.2096 34.1005 97.3505 34.1105 97.4954 34.1307C97.6402 34.1468 97.7751 34.1729 97.8998 34.2092V36.7748C97.759 36.7266 97.5738 36.6883 97.3444 36.6601C97.1191 36.632 96.9178 36.6179 96.7407 36.6179C96.3906 36.6179 96.0747 36.6964 95.7929 36.8533C95.5152 37.0063 95.2959 37.2216 95.1349 37.4993C94.978 37.773 94.8995 38.0949 94.8995 38.4652V43.5H91.9474ZM99.1027 43.5V34.2273H102.055V43.5H99.1027ZM100.582 33.1467C100.167 33.1467 99.811 33.0098 99.5132 32.7361C99.2154 32.4584 99.0665 32.1244 99.0665 31.734C99.0665 31.3476 99.2154 31.0176 99.5132 30.744C99.811 30.4663 100.167 30.3274 100.582 30.3274C101 30.3274 101.356 30.4663 101.65 30.744C101.948 31.0176 102.097 31.3476 102.097 31.734C102.097 32.1244 101.948 32.4584 101.65 32.7361C101.356 33.0098 101 33.1467 100.582 33.1467Z" fill="#FFC131"/>
</g>
<rect x="1.05" y="1.05" width="141.9" height="53.9" rx="6.95" stroke="white" stroke-opacity="0.15" stroke-width="2.1"/>
<defs>
<filter id="filter0_d_1_50" x="6.28571" y="2.28571" width="51.4286" height="51.4286" filterUnits="userSpaceOnUse" color-interpolation-filters="sRGB">
<feFlood flood-opacity="0" result="BackgroundImageFix"/>
<feColorMatrix in="SourceAlpha" type="matrix" values="0 0 0 0 0 0 0 0 0 0 0 0 0 0 0 0 0 0 127 0" result="hardAlpha"/>
<feOffset/>
<feGaussianBlur stdDeviation="2.85714"/>
<feComposite in2="hardAlpha" operator="out"/>
<feColorMatrix type="matrix" values="0 0 0 0 0 0 0 0 0 0 0 0 0 0 0 0 0 0 0.25 0"/>
<feBlend mode="normal" in2="BackgroundImageFix" result="effect1_dropShadow_1_50"/>
<feBlend mode="normal" in="SourceGraphic" in2="effect1_dropShadow_1_50" result="shape"/>
</filter>
<filter id="filter1_d_1_50" x="54.4" y="3.9" width="83.2" height="48.2" filterUnits="userSpaceOnUse" color-interpolation-filters="sRGB">
<feFlood flood-opacity="0" result="BackgroundImageFix"/>
<feColorMatrix in="SourceAlpha" type="matrix" values="0 0 0 0 0 0 0 0 0 0 0 0 0 0 0 0 0 0 127 0" result="hardAlpha"/>
<feOffset/>
<feGaussianBlur stdDeviation="2.8"/>
<feComposite in2="hardAlpha" operator="out"/>
<feColorMatrix type="matrix" values="0 0 0 0 0 0 0 0 0 0 0 0 0 0 0 0 0 0 0.25 0"/>
<feBlend mode="normal" in2="BackgroundImageFix" result="effect1_dropShadow_1_50"/>
<feBlend mode="normal" in="SourceGraphic" in2="effect1_dropShadow_1_50" result="shape"/>
</filter>
<linearGradient id="paint0_linear_1_50" x1="72" y1="0" x2="72" y2="56" gradientUnits="userSpaceOnUse">
<stop stop-color="#011F28"/>
<stop offset="1" stop-color="#241900"/>
</linearGradient>
<clipPath id="clip0_1_50">
<rect width="35.671" height="40" fill="white" transform="translate(14 8)"/>
</clipPath>
</defs>
</svg>
