<svg width="122" height="40" viewBox="0 0 122 40" fill="none" xmlns="http://www.w3.org/2000/svg">
<rect x="-6.10352e-05" y="-6.10352e-05" width="122" height="40" rx="6" fill="url(#paint0_linear_2_858)"/>
<g filter="url(#filter0_d_2_858)">
<path d="M11.3125 6C10.5857 6 10 6.58567 10 7.3125V32.6875C10 33.4143 10.5857 34 11.3125 34H36.6875C37.4143 34 38 33.4143 38 32.6875V7.3125C38 6.58567 37.4143 6 36.6875 6H11.3125ZM31.5693 17.375C32.2833 17.375 32.9157 17.4182 33.4675 17.5045C33.988 17.5825 34.4987 17.7154 34.9912 17.9012V20.7688C34.7548 20.6054 34.5036 20.4644 34.241 20.3477C33.9701 20.2258 33.6905 20.1244 33.4045 20.0443C32.8627 19.8934 32.3033 19.8149 31.7408 19.811C31.3908 19.811 31.0723 19.8437 30.7853 19.9113C30.5295 19.966 30.2842 20.0614 30.0585 20.1937C29.8602 20.315 29.7085 20.4608 29.6 20.63C29.4909 20.8005 29.4341 20.9992 29.4367 21.2017C29.4367 21.4303 29.4985 21.6368 29.6187 21.8188C29.74 22.0008 29.9127 22.1735 30.1355 22.3368C30.3583 22.5002 30.629 22.6588 30.9475 22.8152C31.266 22.9727 31.6265 23.1348 32.0278 23.3005C32.5762 23.5303 33.0685 23.7753 33.5048 24.0332C33.9412 24.2922 34.3157 24.585 34.6283 24.9117C34.941 25.2372 35.179 25.6093 35.3447 26.0282C35.5103 26.447 35.5943 26.9335 35.5943 27.49C35.5943 28.2565 35.4485 28.9017 35.1592 29.422C34.8765 29.9352 34.4708 30.3701 33.9785 30.6878C33.4479 31.0243 32.8598 31.26 32.2437 31.3832C31.5833 31.5232 30.8868 31.5932 30.1553 31.5932C29.4354 31.5963 28.7167 31.5323 28.0087 31.4018C27.3961 31.2959 26.802 31.1022 26.2447 30.8267V27.7583C27.2991 28.6556 28.6366 29.1515 30.0212 29.1583C30.4097 29.1583 30.7492 29.1233 31.0385 29.0533C31.329 28.9833 31.5705 28.8853 31.7653 28.7617C31.959 28.6357 32.1037 28.4887 32.2005 28.3183C32.3075 28.12 32.3562 27.8954 32.3409 27.6706C32.3257 27.4458 32.247 27.2299 32.1142 27.0478C31.9408 26.8185 31.7288 26.6211 31.4877 26.4645C31.1886 26.2663 30.8737 26.093 30.5462 25.9465C30.1579 25.7692 29.7663 25.5996 29.3713 25.4378C28.3003 24.991 27.5023 24.4438 26.9762 23.7987C26.4512 23.1535 26.1875 22.373 26.1875 21.4595C26.1875 20.7432 26.331 20.1283 26.618 19.6138C26.905 19.0993 27.2947 18.6758 27.7893 18.3433C28.3125 17.9982 28.8934 17.7496 29.5043 17.6095C30.181 17.45 30.8741 17.3713 31.5693 17.375ZM13.9375 17.5943H25.0943V20.1213H21.0903V31.375H17.9205V20.1213H13.9375V17.5943Z" fill="#3178C6"/>
</g>
<g filter="url(#filter1_d_2_858)">
<path d="M46.8788 17.9999V9.99994H49.8085C50.3762 9.99994 50.8463 10.0937 51.2187 10.2812C51.5911 10.4661 51.8697 10.7174 52.0546 11.0351C52.2395 11.3502 52.332 11.7057 52.332 12.1015C52.332 12.4348 52.2708 12.7161 52.1484 12.9452C52.026 13.1718 51.8619 13.3541 51.6562 13.4921C51.4531 13.6275 51.2291 13.7265 50.9843 13.789V13.8671C51.2499 13.8801 51.5091 13.9661 51.7617 14.1249C52.0169 14.2812 52.2278 14.5038 52.3945 14.7929C52.5611 15.082 52.6445 15.4335 52.6445 15.8476C52.6445 16.2564 52.5481 16.6236 52.3554 16.9492C52.1653 17.2721 51.871 17.5286 51.4726 17.7187C51.0742 17.9062 50.565 17.9999 49.9453 17.9999H46.8788ZM48.0859 16.9648H49.8281C50.4062 16.9648 50.8203 16.8528 51.0702 16.6288C51.3203 16.4049 51.4453 16.1249 51.4453 15.789C51.4453 15.5364 51.3814 15.3046 51.2538 15.0937C51.1262 14.8827 50.9439 14.7148 50.707 14.5898C50.4726 14.4648 50.1939 14.4023 49.871 14.4023H48.0859V16.9648ZM48.0859 13.4609H49.7031C49.9739 13.4609 50.2174 13.4088 50.4335 13.3046C50.6523 13.2005 50.8255 13.0546 50.9531 12.8671C51.0833 12.677 51.1484 12.4531 51.1484 12.1952C51.1484 11.8645 51.0325 11.5872 50.8007 11.3632C50.5689 11.1393 50.2135 11.0273 49.7343 11.0273H48.0859V13.4609ZM57.7831 15.5117V11.9999H58.955V17.9999H57.8066V16.9609H57.7441C57.6061 17.2812 57.3847 17.5481 57.08 17.7617C56.7779 17.9726 56.4016 18.0781 55.9511 18.0781C55.5657 18.0781 55.2245 17.9934 54.9277 17.8242C54.6334 17.6523 54.4016 17.3984 54.2324 17.0624C54.0657 16.7265 53.9824 16.3111 53.9824 15.8163V11.9999H55.1503V15.6757C55.1503 16.0846 55.2636 16.4101 55.4902 16.6523C55.7167 16.8945 56.011 17.0156 56.373 17.0156C56.5917 17.0156 56.8092 16.9609 57.0253 16.8515C57.2441 16.7421 57.4251 16.5768 57.5683 16.3554C57.7141 16.1341 57.7857 15.8528 57.7831 15.5117ZM60.5243 17.9999V11.9999H61.6923V17.9999H60.5243ZM61.1142 11.0742C60.9111 11.0742 60.7366 11.0064 60.5908 10.871C60.4475 10.733 60.3759 10.5689 60.3759 10.3788C60.3759 10.1861 60.4475 10.0221 60.5908 9.88666C60.7366 9.74864 60.9111 9.67963 61.1142 9.67963C61.3173 9.67963 61.4905 9.74864 61.6337 9.88666C61.7796 10.0221 61.8525 10.1861 61.8525 10.3788C61.8525 10.5689 61.7796 10.733 61.6337 10.871C61.4905 11.0064 61.3173 11.0742 61.1142 11.0742ZM64.4316 9.99994V17.9999H63.2636V9.99994H64.4316ZM68.8036 11.9999V12.9374H65.5263V11.9999H68.8036ZM66.4052 10.5624H67.5732V16.2382C67.5732 16.4648 67.607 16.6354 67.6747 16.7499C67.7424 16.8619 67.8297 16.9387 67.9365 16.9804C68.0458 17.0195 68.1643 17.039 68.2919 17.039C68.3857 17.039 68.4677 17.0325 68.538 17.0195C68.6083 17.0064 68.663 16.996 68.7021 16.9882L68.913 17.9531C68.8453 17.9791 68.749 18.0051 68.624 18.0312C68.499 18.0598 68.3427 18.0755 68.1552 18.0781C67.8479 18.0833 67.5615 18.0286 67.2958 17.914C67.0302 17.7994 66.8154 17.6223 66.6513 17.3827C66.4872 17.1432 66.4052 16.8424 66.4052 16.4804V10.5624ZM74.3075 17.9999L72.5419 11.9999H73.749L74.9247 16.4062H74.9833L76.163 11.9999H77.37L78.5419 16.3867H78.6005L79.7685 11.9999H80.9755L79.2138 17.9999H78.0224L76.8036 13.6679H76.7138L75.495 17.9999H74.3075ZM82.0839 17.9999V11.9999H83.2519V17.9999H82.0839ZM82.6738 11.0742C82.4706 11.0742 82.2962 11.0064 82.1503 10.871C82.0071 10.733 81.9355 10.5689 81.9355 10.3788C81.9355 10.1861 82.0071 10.0221 82.1503 9.88666C82.2962 9.74864 82.4706 9.67963 82.6738 9.67963C82.8769 9.67963 83.0501 9.74864 83.1933 9.88666C83.3391 10.0221 83.412 10.1861 83.412 10.3788C83.412 10.5689 83.3391 10.733 83.1933 10.871C83.0501 11.0064 82.8769 11.0742 82.6738 11.0742ZM87.624 11.9999V12.9374H84.3466V11.9999H87.624ZM85.2255 10.5624H86.3935V16.2382C86.3935 16.4648 86.4273 16.6354 86.495 16.7499C86.5628 16.8619 86.65 16.9387 86.7568 16.9804C86.8661 17.0195 86.9846 17.039 87.1122 17.039C87.206 17.039 87.288 17.0325 87.3583 17.0195C87.4286 17.0064 87.4833 16.996 87.5224 16.9882L87.7333 17.9531C87.6656 17.9791 87.5693 18.0051 87.4443 18.0312C87.3193 18.0598 87.163 18.0755 86.9755 18.0781C86.6682 18.0833 86.3818 18.0286 86.1161 17.914C85.8505 17.7994 85.6357 17.6223 85.4716 17.3827C85.3075 17.1432 85.2255 16.8424 85.2255 16.4804V10.5624ZM90.2128 14.4374V17.9999H89.0448V9.99994H90.1972V12.9765H90.2714C90.412 12.6536 90.6269 12.3971 90.9159 12.207C91.205 12.0169 91.5826 11.9218 92.0488 11.9218C92.4602 11.9218 92.8196 12.0064 93.1269 12.1757C93.4368 12.345 93.6764 12.5976 93.8456 12.9335C94.0175 13.2669 94.1034 13.6835 94.1034 14.1835V17.9999H92.9355V14.3242C92.9355 13.8841 92.8222 13.5429 92.5956 13.3007C92.3691 13.0559 92.054 12.9335 91.6503 12.9335C91.3743 12.9335 91.1269 12.9921 90.9081 13.1093C90.692 13.2265 90.5214 13.3984 90.3964 13.6249C90.274 13.8489 90.2128 14.1197 90.2128 14.4374Z" fill="#E8E8E8"/>
<path d="M46.3749 23.9857V22.2727H53.7514V23.9857H51.1051V30.9999H49.0255V23.9857H46.3749ZM55.3057 33.4545C55.0557 33.4545 54.8199 33.4346 54.5983 33.3948C54.3767 33.3579 54.1864 33.3082 54.0273 33.2457L54.4875 31.7329C54.6921 31.8011 54.8767 31.8408 55.0415 31.8522C55.2091 31.8636 55.3526 31.8366 55.4719 31.7712C55.594 31.7087 55.6878 31.5965 55.7531 31.4346L55.8341 31.2386L53.5074 24.4545H55.6892L56.8952 29.1249H56.9634L58.1864 24.4545H60.381L57.9136 31.6264C57.7943 31.9843 57.6253 32.2997 57.4065 32.5724C57.1906 32.8479 56.9108 33.0639 56.5671 33.2201C56.2261 33.3764 55.8057 33.4545 55.3057 33.4545ZM61.18 33.4545V24.4545H63.2425V25.5752H63.3064C63.3916 25.3764 63.5124 25.1846 63.6686 24.9999C63.8277 24.8153 64.0294 24.6647 64.2737 24.5482C64.5209 24.4289 64.8163 24.3693 65.1601 24.3693C65.6146 24.3693 66.0394 24.4886 66.4342 24.7272C66.832 24.9658 67.153 25.3337 67.3973 25.8309C67.6416 26.3281 67.7638 26.9616 67.7638 27.7315C67.7638 28.4729 67.6459 29.0937 67.4101 29.5937C67.1771 30.0937 66.8618 30.4687 66.4641 30.7187C66.0692 30.9687 65.6303 31.0937 65.1473 31.0937C64.8178 31.0937 64.5322 31.0397 64.2908 30.9318C64.0493 30.8238 63.8462 30.6818 63.6814 30.5056C63.5195 30.3295 63.3945 30.1406 63.3064 29.9389H63.2638V33.4545H61.18ZM63.2212 27.7272C63.2212 28.0795 63.268 28.3863 63.3618 28.6477C63.4584 28.909 63.5962 29.1122 63.7751 29.257C63.957 29.3991 64.1743 29.4701 64.4271 29.4701C64.6828 29.4701 64.9001 29.3991 65.0791 29.257C65.2581 29.1122 65.393 28.909 65.484 28.6477C65.5777 28.3863 65.6246 28.0795 65.6246 27.7272C65.6246 27.3749 65.5777 27.0695 65.484 26.811C65.393 26.5525 65.2581 26.3522 65.0791 26.2102C64.903 26.0681 64.6857 25.9971 64.4271 25.9971C64.1715 25.9971 63.9541 26.0667 63.7751 26.2059C63.5962 26.3451 63.4584 26.544 63.3618 26.8025C63.268 27.061 63.2212 27.3693 63.2212 27.7272ZM71.9154 31.1235C71.2308 31.1235 70.6398 30.9886 70.1427 30.7187C69.6484 30.446 69.2677 30.0582 69.0006 29.5553C68.7364 29.0497 68.6043 28.4488 68.6043 27.7528C68.6043 27.0766 68.7379 26.4857 69.0049 25.9801C69.2719 25.4715 69.6484 25.0766 70.1342 24.7954C70.62 24.5113 71.1924 24.3693 71.8515 24.3693C72.3174 24.3693 72.7435 24.4417 73.1299 24.5866C73.5163 24.7315 73.8501 24.946 74.1313 25.2301C74.4126 25.5141 74.6313 25.865 74.7876 26.2826C74.9438 26.6974 75.0219 27.1732 75.0219 27.7102V28.2301H69.333V27.0198H73.083C73.0802 26.7982 73.0276 26.6008 72.9254 26.4275C72.8231 26.2542 72.6825 26.1193 72.5035 26.0227C72.3273 25.9232 72.1242 25.8735 71.8941 25.8735C71.6612 25.8735 71.4523 25.9261 71.2677 26.0312C71.083 26.1335 70.9367 26.2741 70.8288 26.4531C70.7208 26.6292 70.664 26.8295 70.6583 27.0539V28.2854C70.6583 28.5525 70.7109 28.7869 70.816 28.9886C70.9211 29.1874 71.0702 29.3423 71.2634 29.4531C71.4566 29.5639 71.6867 29.6193 71.9538 29.6193C72.1384 29.6193 72.306 29.5937 72.4566 29.5425C72.6072 29.4914 72.7364 29.4161 72.8444 29.3167C72.9523 29.2173 73.0333 29.0951 73.0873 28.9502L75.0006 29.0056C74.9211 29.4346 74.7464 29.8082 74.4765 30.1264C74.2094 30.4417 73.8586 30.6874 73.4239 30.8636C72.9893 31.0369 72.4864 31.1235 71.9154 31.1235ZM80.8036 24.8891C80.7751 24.5766 80.6487 24.3337 80.4243 24.1604C80.2027 23.9843 79.8859 23.8962 79.474 23.8962C79.2013 23.8962 78.974 23.9318 78.7922 24.0028C78.6104 24.0738 78.474 24.1718 78.3831 24.2968C78.2922 24.419 78.2453 24.5596 78.2425 24.7187C78.2368 24.8494 78.2624 24.9644 78.3192 25.0639C78.3788 25.1633 78.4641 25.2514 78.5749 25.3281C78.6885 25.4019 78.8249 25.4673 78.9839 25.5241C79.143 25.5809 79.322 25.6306 79.5209 25.6732L80.2709 25.8437C80.7027 25.9374 81.0834 26.0624 81.4129 26.2187C81.7453 26.3749 82.0237 26.561 82.2482 26.7769C82.4754 26.9928 82.6473 27.2414 82.7638 27.5227C82.8803 27.8039 82.9399 28.1193 82.9428 28.4687C82.9399 29.0198 82.8007 29.4928 82.5251 29.8877C82.2496 30.2826 81.8533 30.5852 81.3362 30.7954C80.822 31.0056 80.2013 31.1107 79.474 31.1107C78.7439 31.1107 78.1075 31.0014 77.5649 30.7826C77.0223 30.5639 76.6004 30.2315 76.2993 29.7854C75.9982 29.3394 75.8433 28.7755 75.8348 28.0937H77.8547C77.8717 28.3749 77.947 28.6093 78.0805 28.7968C78.2141 28.9843 78.3973 29.1264 78.6303 29.2229C78.8661 29.3195 79.1388 29.3678 79.4484 29.3678C79.7325 29.3678 79.974 29.3295 80.1729 29.2528C80.3746 29.1761 80.5294 29.0695 80.6374 28.9332C80.7453 28.7968 80.8007 28.6406 80.8036 28.4644C80.8007 28.2997 80.7496 28.159 80.6501 28.0426C80.5507 27.9232 80.3973 27.821 80.1899 27.7357C79.9854 27.6477 79.724 27.5667 79.4058 27.4928L78.4939 27.2798C77.7382 27.1065 77.143 26.8266 76.7084 26.4403C76.2737 26.0511 76.0578 25.5255 76.0607 24.8636C76.0578 24.3238 76.2027 23.8508 76.4953 23.4445C76.7879 23.0383 77.1928 22.7215 77.7098 22.4943C78.2268 22.267 78.8163 22.1533 79.4783 22.1533C80.1544 22.1533 80.7411 22.2684 81.2382 22.4985C81.7382 22.7258 82.126 23.0454 82.4016 23.4573C82.6771 23.8693 82.8178 24.3465 82.8234 24.8891H80.8036ZM87.0635 31.1235C86.3732 31.1235 85.7808 30.9815 85.2865 30.6974C84.795 30.4133 84.4172 30.0184 84.153 29.5127C83.8888 29.0042 83.7567 28.4161 83.7567 27.7485C83.7567 27.0781 83.8888 26.49 84.153 25.9843C84.42 25.4758 84.7993 25.0795 85.2908 24.7954C85.7851 24.5113 86.3746 24.3693 87.0592 24.3693C87.6643 24.3693 88.1913 24.4786 88.6402 24.6974C89.0919 24.9161 89.4442 25.2258 89.697 25.6264C89.9527 26.0241 90.0876 26.4914 90.1018 27.0283H88.1544C88.1146 26.6931 88.001 26.4303 87.8135 26.24C87.6288 26.0497 87.3874 25.9545 87.0891 25.9545C86.8476 25.9545 86.6359 26.0227 86.4541 26.159C86.2723 26.2926 86.1303 26.4914 86.028 26.7556C85.9285 27.017 85.8788 27.3408 85.8788 27.7272C85.8788 28.1136 85.9285 28.4403 86.028 28.7073C86.1303 28.9715 86.2723 29.1718 86.4541 29.3082C86.6359 29.4417 86.8476 29.5085 87.0891 29.5085C87.2822 29.5085 87.4527 29.4673 87.6004 29.3849C87.751 29.3025 87.8746 29.1818 87.9712 29.0227C88.0678 28.8607 88.1288 28.6647 88.1544 28.4346H90.1018C90.082 28.9744 89.947 29.446 89.697 29.8494C89.4499 30.2528 89.1018 30.5667 88.653 30.7911C88.207 31.0127 87.6771 31.1235 87.0635 31.1235ZM91.1682 30.9999V24.4545H93.1924V25.6477H93.2606C93.3799 25.2158 93.5745 24.8948 93.8444 24.6846C94.1143 24.4715 94.4282 24.365 94.7861 24.365C94.8827 24.365 94.9822 24.3721 95.0844 24.3863C95.1867 24.3977 95.2819 24.4161 95.37 24.4417V26.2528C95.2705 26.2187 95.1398 26.1917 94.9779 26.1718C94.8188 26.1519 94.6768 26.142 94.5518 26.142C94.3046 26.142 94.0816 26.1974 93.8827 26.3082C93.6867 26.4161 93.5319 26.5681 93.4182 26.7641C93.3075 26.9573 93.2521 27.1846 93.2521 27.446V30.9999H91.1682ZM96.219 30.9999V24.4545H98.3028V30.9999H96.219ZM97.2631 23.6917C96.9704 23.6917 96.719 23.5951 96.5088 23.4019C96.2986 23.2059 96.1935 22.9701 96.1935 22.6945C96.1935 22.4218 96.2986 22.1889 96.5088 21.9957C96.719 21.7997 96.9704 21.7016 97.2631 21.7016C97.5585 21.7016 97.8099 21.7997 98.0173 21.9957C98.2276 22.1889 98.3327 22.4218 98.3327 22.6945C98.3327 22.9701 98.2276 23.2059 98.0173 23.4019C97.8099 23.5951 97.5585 23.6917 97.2631 23.6917ZM99.6292 33.4545V24.4545H101.692V25.5752H101.756C101.841 25.3764 101.962 25.1846 102.118 24.9999C102.277 24.8153 102.479 24.6647 102.723 24.5482C102.97 24.4289 103.266 24.3693 103.609 24.3693C104.064 24.3693 104.489 24.4886 104.883 24.7272C105.281 24.9658 105.602 25.3337 105.847 25.8309C106.091 26.3281 106.213 26.9616 106.213 27.7315C106.213 28.4729 106.095 29.0937 105.859 29.5937C105.626 30.0937 105.311 30.4687 104.913 30.7187C104.518 30.9687 104.079 31.0937 103.597 31.0937C103.267 31.0937 102.981 31.0397 102.74 30.9318C102.499 30.8238 102.295 30.6818 102.131 30.5056C101.969 30.3295 101.844 30.1406 101.756 29.9389H101.713V33.4545H99.6292ZM101.67 27.7272C101.67 28.0795 101.717 28.3863 101.811 28.6477C101.908 28.909 102.045 29.1122 102.224 29.257C102.406 29.3991 102.624 29.4701 102.876 29.4701C103.132 29.4701 103.349 29.3991 103.528 29.257C103.707 29.1122 103.842 28.909 103.933 28.6477C104.027 28.3863 104.074 28.0795 104.074 27.7272C104.074 27.3749 104.027 27.0695 103.933 26.811C103.842 26.5525 103.707 26.3522 103.528 26.2102C103.352 26.0681 103.135 25.9971 102.876 25.9971C102.621 25.9971 102.403 26.0667 102.224 26.2059C102.045 26.3451 101.908 26.544 101.811 26.8025C101.717 27.061 101.67 27.3693 101.67 27.7272ZM111 24.4545V25.9886H106.87V24.4545H111ZM107.735 22.8863H109.819V28.9417C109.819 29.0695 109.839 29.1732 109.879 29.2528C109.921 29.3295 109.983 29.3849 110.062 29.419C110.142 29.4502 110.237 29.4658 110.348 29.4658C110.427 29.4658 110.511 29.4587 110.599 29.4445C110.69 29.4275 110.758 29.4133 110.804 29.4019L111.119 30.9062C111.019 30.9346 110.879 30.9701 110.697 31.0127C110.518 31.0553 110.304 31.0823 110.054 31.0937C109.565 31.1164 109.146 31.0596 108.796 30.9232C108.45 30.784 108.184 30.5681 108 30.2755C107.818 29.9829 107.73 29.615 107.735 29.1718V22.8863Z" fill="#3178C6"/>
</g>
<rect x="0.749939" y="0.749939" width="120.5" height="38.5" rx="5.25" stroke="white" stroke-opacity="0.15" stroke-width="1.5"/>
<defs>
<filter id="filter0_d_2_858" x="5.99994" y="1.99994" width="36.0001" height="36.0001" filterUnits="userSpaceOnUse" color-interpolation-filters="sRGB">
<feFlood flood-opacity="0" result="BackgroundImageFix"/>
<feColorMatrix in="SourceAlpha" type="matrix" values="0 0 0 0 0 0 0 0 0 0 0 0 0 0 0 0 0 0 127 0" result="hardAlpha"/>
<feOffset/>
<feGaussianBlur stdDeviation="2"/>
<feComposite in2="hardAlpha" operator="out"/>
<feColorMatrix type="matrix" values="0 0 0 0 0 0 0 0 0 0 0 0 0 0 0 0 0 0 0.25 0"/>
<feBlend mode="normal" in2="BackgroundImageFix" result="effect1_dropShadow_2_858"/>
<feBlend mode="normal" in="SourceGraphic" in2="effect1_dropShadow_2_858" result="shape"/>
</filter>
<filter id="filter1_d_2_858" x="41.9999" y="2.99994" width="74" height="34.4545" filterUnits="userSpaceOnUse" color-interpolation-filters="sRGB">
<feFlood flood-opacity="0" result="BackgroundImageFix"/>
<feColorMatrix in="SourceAlpha" type="matrix" values="0 0 0 0 0 0 0 0 0 0 0 0 0 0 0 0 0 0 127 0" result="hardAlpha"/>
<feOffset/>
<feGaussianBlur stdDeviation="2"/>
<feComposite in2="hardAlpha" operator="out"/>
<feColorMatrix type="matrix" values="0 0 0 0 0 0 0 0 0 0 0 0 0 0 0 0 0 0 0.25 0"/>
<feBlend mode="normal" in2="BackgroundImageFix" result="effect1_dropShadow_2_858"/>
<feBlend mode="normal" in="SourceGraphic" in2="effect1_dropShadow_2_858" result="shape"/>
</filter>
<linearGradient id="paint0_linear_2_858" x1="60.9999" y1="-6.10351e-05" x2="60.9999" y2="39.9999" gradientUnits="userSpaceOnUse">
<stop stop-color="#0C1F34"/>
<stop offset="1" stop-color="#051220"/>
</linearGradient>
</defs>
</svg>
