<svg width="144" height="56" viewBox="0 0 144 56" fill="none" xmlns="http://www.w3.org/2000/svg">
<rect x="-6.10352e-05" y="-0.000244141" width="144" height="56" rx="8" fill="url(#paint0_linear_2_915)"/>
<g filter="url(#filter0_d_2_915)">
<path d="M36.6193 10.8569L32.0003 18.774L27.3813 10.8569H12.0003L32.0003 45.1426L52.0003 10.8569H36.6193Z" fill="#42B883"/>
<path d="M36.6193 10.8569L32.0003 18.774L27.3813 10.8569H19.9995L32.0003 31.428L44.0011 10.8569H36.6193Z" fill="#35495E"/>
</g>
<g filter="url(#filter1_d_2_915)">
<path d="M61.2783 24.4998V12.8634H65.5397C66.3655 12.8634 67.0492 12.9998 67.5908 13.2725C68.1325 13.5414 68.5378 13.907 68.8068 14.3691C69.0757 14.8274 69.2102 15.3445 69.2102 15.9202C69.2102 16.4051 69.1211 16.8141 68.9431 17.1475C68.7651 17.477 68.5265 17.7422 68.2272 17.9429C67.9318 18.1399 67.606 18.2838 67.2499 18.3748V18.4884C67.6363 18.5073 68.0132 18.6323 68.3806 18.8634C68.7518 19.0907 69.0586 19.4145 69.3011 19.835C69.5435 20.2554 69.6647 20.7668 69.6647 21.3691C69.6647 21.9638 69.5246 22.4979 69.2443 22.9713C68.9677 23.441 68.5397 23.8141 67.9602 24.0907C67.3806 24.3634 66.6401 24.4998 65.7386 24.4998H61.2783ZM63.034 22.9941H65.5681C66.409 22.9941 67.0113 22.8312 67.3749 22.5054C67.7386 22.1797 67.9204 21.7725 67.9204 21.2838C67.9204 20.9164 67.8276 20.5793 67.642 20.2725C67.4564 19.9657 67.1912 19.7213 66.8465 19.5395C66.5056 19.3577 66.1003 19.2668 65.6306 19.2668H63.034V22.9941ZM63.034 17.8975H65.3863C65.7802 17.8975 66.1344 17.8217 66.4488 17.6702C66.767 17.5187 67.0189 17.3066 67.2045 17.0338C67.3939 16.7573 67.4886 16.4316 67.4886 16.0566C67.4886 15.5755 67.32 15.1721 66.9829 14.8463C66.6458 14.5206 66.1287 14.3577 65.4318 14.3577H63.034V17.8975ZM77.1391 20.8804V15.7725H78.8437V24.4998H77.1732V22.9884H77.0823C76.8816 23.4543 76.5596 23.8426 76.1164 24.1532C75.677 24.46 75.1297 24.6134 74.4744 24.6134C73.9138 24.6134 73.4175 24.4903 72.9857 24.2441C72.5577 23.9941 72.2206 23.6248 71.9744 23.1361C71.7319 22.6475 71.6107 22.0433 71.6107 21.3236V15.7725H73.3096V21.1191C73.3096 21.7138 73.4744 22.1873 73.8039 22.5395C74.1335 22.8918 74.5615 23.0679 75.088 23.0679C75.4062 23.0679 75.7225 22.9884 76.0369 22.8293C76.355 22.6702 76.6183 22.4297 76.8266 22.1077C77.0388 21.7857 77.1429 21.3766 77.1391 20.8804ZM81.1264 24.4998V15.7725H82.8252V24.4998H81.1264ZM81.9843 14.4259C81.6889 14.4259 81.4351 14.3274 81.2229 14.1304C81.0146 13.9297 80.9104 13.691 80.9104 13.4145C80.9104 13.1342 81.0146 12.8956 81.2229 12.6986C81.4351 12.4979 81.6889 12.3975 81.9843 12.3975C82.2798 12.3975 82.5317 12.4979 82.74 12.6986C82.9521 12.8956 83.0582 13.1342 83.0582 13.4145C83.0582 13.691 82.9521 13.9297 82.74 14.1304C82.5317 14.3274 82.2798 14.4259 81.9843 14.4259ZM86.8096 12.8634V24.4998H85.1107V12.8634H86.8096ZM93.169 15.7725V17.1361H88.4019V15.7725H93.169ZM89.6803 13.6816H91.3792V21.9373C91.3792 22.2668 91.4284 22.5149 91.5269 22.6816C91.6254 22.8444 91.7523 22.9562 91.9076 23.0168C92.0667 23.0736 92.239 23.102 92.4246 23.102C92.561 23.102 92.6803 23.0926 92.7826 23.0736C92.8849 23.0547 92.9644 23.0395 93.0212 23.0282L93.3281 24.4316C93.2296 24.4694 93.0894 24.5073 92.9076 24.5452C92.7258 24.5869 92.4985 24.6096 92.2258 24.6134C91.7788 24.621 91.3621 24.5414 90.9758 24.3748C90.5894 24.2081 90.2769 23.9505 90.0383 23.602C89.7996 23.2535 89.6803 22.816 89.6803 22.2895V13.6816ZM101.175 24.4998L98.6065 15.7725H100.362L102.072 22.1816H102.158L103.874 15.7725H105.629L107.334 22.1532H107.419L109.118 15.7725H110.874L108.311 24.4998H106.578L104.805 18.1986H104.675L102.902 24.4998H101.175ZM112.486 24.4998V15.7725H114.185V24.4998H112.486ZM113.344 14.4259C113.048 14.4259 112.794 14.3274 112.582 14.1304C112.374 13.9297 112.27 13.691 112.27 13.4145C112.27 13.1342 112.374 12.8956 112.582 12.6986C112.794 12.4979 113.048 12.3975 113.344 12.3975C113.639 12.3975 113.891 12.4979 114.099 12.6986C114.311 12.8956 114.418 13.1342 114.418 13.4145C114.418 13.691 114.311 13.9297 114.099 14.1304C113.891 14.3274 113.639 14.4259 113.344 14.4259ZM120.544 15.7725V17.1361H115.777V15.7725H120.544ZM117.055 13.6816H118.754V21.9373C118.754 22.2668 118.803 22.5149 118.902 22.6816C119 22.8444 119.127 22.9562 119.283 23.0168C119.442 23.0736 119.614 23.102 119.8 23.102C119.936 23.102 120.055 23.0926 120.158 23.0736C120.26 23.0547 120.339 23.0395 120.396 23.0282L120.703 24.4316C120.605 24.4694 120.464 24.5073 120.283 24.5452C120.101 24.5869 119.874 24.6096 119.601 24.6134C119.154 24.621 118.737 24.5414 118.351 24.3748C117.964 24.2081 117.652 23.9505 117.413 23.602C117.175 23.2535 117.055 22.816 117.055 22.2895V13.6816ZM124.31 19.3179V24.4998H122.611V12.8634H124.287V17.1929H124.395C124.599 16.7232 124.912 16.3501 125.332 16.0736C125.753 15.7971 126.302 15.6588 126.98 15.6588C127.579 15.6588 128.101 15.782 128.548 16.0282C128.999 16.2744 129.347 16.6418 129.594 17.1304C129.844 17.6153 129.969 18.2213 129.969 18.9486V24.4998H128.27V19.1532C128.27 18.513 128.105 18.0168 127.775 17.6645C127.446 17.3085 126.988 17.1304 126.4 17.1304C125.999 17.1304 125.639 17.2157 125.321 17.3861C125.007 17.5566 124.758 17.8066 124.577 18.1361C124.399 18.4619 124.31 18.8558 124.31 19.3179Z" fill="#E8E8E8"/>
<path d="M63.7428 31.1361L66.5077 40.1915H66.6104L69.3753 31.1361H72.7198L68.5482 43.4998H64.5699L60.3984 31.1361H63.7428ZM80.0335 39.4973V34.227H82.9795V43.4998H80.1663V41.7732H80.0697C79.8645 42.3407 79.5143 42.7914 79.0193 43.1255C78.5283 43.4555 77.9347 43.6205 77.2384 43.6205C76.6065 43.6205 76.0511 43.4756 75.5722 43.1858C75.0933 42.8961 74.721 42.4916 74.4554 41.9724C74.1897 41.4492 74.0549 40.8375 74.0509 40.1372V34.227H77.003V39.5576C77.007 40.0607 77.1398 40.4571 77.4014 40.7469C77.663 41.0367 78.0192 41.1816 78.4699 41.1816C78.7637 41.1816 79.0273 41.1172 79.2608 40.9884C79.4982 40.8556 79.6854 40.6644 79.8222 40.4149C79.9631 40.1613 80.0335 39.8555 80.0335 39.4973ZM89.193 43.6748C88.2231 43.6748 87.386 43.4837 86.6817 43.1013C85.9814 42.715 85.4421 42.1656 85.0638 41.4532C84.6895 40.7368 84.5023 39.8856 84.5023 38.8996C84.5023 37.9418 84.6915 37.1046 85.0698 36.3882C85.4481 35.6678 85.9814 35.1084 86.6696 34.71C87.3578 34.3075 88.1688 34.1063 89.1025 34.1063C89.7625 34.1063 90.3662 34.2089 90.9135 34.4142C91.4609 34.6194 91.9338 34.9233 92.3322 35.3257C92.7307 35.7282 93.0406 36.2253 93.2619 36.8169C93.4833 37.4045 93.5939 38.0786 93.5939 38.8392V39.5757H85.5346V37.8613H90.8471C90.8431 37.5473 90.7687 37.2676 90.6238 37.0221C90.4789 36.7766 90.2797 36.5855 90.0261 36.4486C89.7766 36.3078 89.4888 36.2373 89.1628 36.2373C88.8328 36.2373 88.537 36.3118 88.2754 36.4607C88.0138 36.6056 87.8065 36.8048 87.6536 37.0583C87.5007 37.3079 87.4202 37.5916 87.4121 37.9096V39.6542C87.4121 40.0325 87.4866 40.3646 87.6355 40.6503C87.7844 40.932 87.9957 41.1514 88.2694 41.3083C88.543 41.4653 88.869 41.5438 89.2474 41.5438C89.509 41.5438 89.7464 41.5076 89.9597 41.4351C90.173 41.3627 90.3561 41.256 90.5091 41.1152C90.662 40.9743 90.7767 40.8012 90.8532 40.596L93.5638 40.6745C93.4511 41.2822 93.2036 41.8114 92.8212 42.2622C92.4429 42.7089 91.9459 43.057 91.3301 43.3066C90.7143 43.5521 90.002 43.6748 89.193 43.6748Z" fill="#42B883"/>
</g>
<rect x="1.04994" y="1.04976" width="141.9" height="53.9" rx="6.95" stroke="white" stroke-opacity="0.15" stroke-width="2.1"/>
<defs>
<filter id="filter0_d_2_915" x="6.28565" y="2.28547" width="51.4289" height="51.4286" filterUnits="userSpaceOnUse" color-interpolation-filters="sRGB">
<feFlood flood-opacity="0" result="BackgroundImageFix"/>
<feColorMatrix in="SourceAlpha" type="matrix" values="0 0 0 0 0 0 0 0 0 0 0 0 0 0 0 0 0 0 127 0" result="hardAlpha"/>
<feOffset/>
<feGaussianBlur stdDeviation="2.85714"/>
<feComposite in2="hardAlpha" operator="out"/>
<feColorMatrix type="matrix" values="0 0 0 0 0 0 0 0 0 0 0 0 0 0 0 0 0 0 0.25 0"/>
<feBlend mode="normal" in2="BackgroundImageFix" result="effect1_dropShadow_2_915"/>
<feBlend mode="normal" in="SourceGraphic" in2="effect1_dropShadow_2_915" result="shape"/>
</filter>
<filter id="filter1_d_2_915" x="54.3999" y="3.89976" width="83.2" height="48.2" filterUnits="userSpaceOnUse" color-interpolation-filters="sRGB">
<feFlood flood-opacity="0" result="BackgroundImageFix"/>
<feColorMatrix in="SourceAlpha" type="matrix" values="0 0 0 0 0 0 0 0 0 0 0 0 0 0 0 0 0 0 127 0" result="hardAlpha"/>
<feOffset/>
<feGaussianBlur stdDeviation="2.8"/>
<feComposite in2="hardAlpha" operator="out"/>
<feColorMatrix type="matrix" values="0 0 0 0 0 0 0 0 0 0 0 0 0 0 0 0 0 0 0.25 0"/>
<feBlend mode="normal" in2="BackgroundImageFix" result="effect1_dropShadow_2_915"/>
<feBlend mode="normal" in="SourceGraphic" in2="effect1_dropShadow_2_915" result="shape"/>
</filter>
<linearGradient id="paint0_linear_2_915" x1="71.9999" y1="-0.000244141" x2="71.9999" y2="55.9997" gradientUnits="userSpaceOnUse">
<stop stop-color="#0E3A26"/>
<stop offset="1" stop-color="#051E13"/>
</linearGradient>
</defs>
</svg>
