<svg width="142" height="40" viewBox="0 0 142 40" fill="none" xmlns="http://www.w3.org/2000/svg">
<rect x="-6.10352e-05" y="-6.10352e-05" width="142" height="40" rx="6" fill="url(#paint0_linear_2_875)"/>
<g filter="url(#filter0_d_2_875)">
<path d="M27.2025 6C27.2025 6.049 27.2025 6.09917 27.2025 6.1505C27.2025 7.92383 25.7652 9.36117 23.9918 9.36117C22.2185 9.36117 20.7812 7.92383 20.7812 6.1505C20.7812 6.098 20.7812 6.049 20.7812 6H10V34H38V6H27.2025ZM23.363 31.0028L21.9992 24.256H21.9758L20.5012 31.0028H18.6217L16.4937 21.0897H18.3487L19.618 27.8365H19.6413L21.1708 21.0897H22.9057L24.2788 27.9193H24.3022L25.7512 21.0897H27.5723L25.2075 31.0028H23.363ZM33.5772 31.0028L32.9448 28.7967H29.607L29.1205 31.0028H27.2655L29.6642 21.0897H32.5913L35.508 31.0028H33.5772V31.0028ZM30.7807 23.5327L29.971 27.1703H32.4898L31.5612 23.5327H30.7807Z" fill="#654FF0"/>
</g>
<g filter="url(#filter1_d_2_875)">
<path d="M46.8788 17.9999V9.99994H49.8085C50.3762 9.99994 50.8463 10.0937 51.2187 10.2812C51.5911 10.4661 51.8697 10.7174 52.0546 11.0351C52.2395 11.3502 52.332 11.7057 52.332 12.1015C52.332 12.4348 52.2708 12.7161 52.1484 12.9452C52.026 13.1718 51.8619 13.3541 51.6562 13.4921C51.4531 13.6275 51.2291 13.7265 50.9843 13.789V13.8671C51.2499 13.8801 51.5091 13.9661 51.7617 14.1249C52.0169 14.2812 52.2278 14.5038 52.3945 14.7929C52.5611 15.082 52.6445 15.4335 52.6445 15.8476C52.6445 16.2564 52.5481 16.6236 52.3554 16.9492C52.1653 17.2721 51.871 17.5286 51.4726 17.7187C51.0742 17.9062 50.565 17.9999 49.9453 17.9999H46.8788ZM48.0859 16.9648H49.8281C50.4062 16.9648 50.8203 16.8528 51.0702 16.6288C51.3203 16.4049 51.4453 16.1249 51.4453 15.789C51.4453 15.5364 51.3814 15.3046 51.2538 15.0937C51.1262 14.8827 50.9439 14.7148 50.707 14.5898C50.4726 14.4648 50.1939 14.4023 49.871 14.4023H48.0859V16.9648ZM48.0859 13.4609H49.7031C49.9739 13.4609 50.2174 13.4088 50.4335 13.3046C50.6523 13.2005 50.8255 13.0546 50.9531 12.8671C51.0833 12.677 51.1484 12.4531 51.1484 12.1952C51.1484 11.8645 51.0325 11.5872 50.8007 11.3632C50.5689 11.1393 50.2135 11.0273 49.7343 11.0273H48.0859V13.4609ZM57.7831 15.5117V11.9999H58.955V17.9999H57.8066V16.9609H57.7441C57.6061 17.2812 57.3847 17.5481 57.08 17.7617C56.7779 17.9726 56.4016 18.0781 55.9511 18.0781C55.5657 18.0781 55.2245 17.9934 54.9277 17.8242C54.6334 17.6523 54.4016 17.3984 54.2324 17.0624C54.0657 16.7265 53.9824 16.3111 53.9824 15.8163V11.9999H55.1503V15.6757C55.1503 16.0846 55.2636 16.4101 55.4902 16.6523C55.7167 16.8945 56.011 17.0156 56.373 17.0156C56.5917 17.0156 56.8092 16.9609 57.0253 16.8515C57.2441 16.7421 57.4251 16.5768 57.5683 16.3554C57.7141 16.1341 57.7857 15.8528 57.7831 15.5117ZM60.5243 17.9999V11.9999H61.6923V17.9999H60.5243ZM61.1142 11.0742C60.9111 11.0742 60.7366 11.0064 60.5908 10.871C60.4475 10.733 60.3759 10.5689 60.3759 10.3788C60.3759 10.1861 60.4475 10.0221 60.5908 9.88666C60.7366 9.74864 60.9111 9.67963 61.1142 9.67963C61.3173 9.67963 61.4905 9.74864 61.6337 9.88666C61.7796 10.0221 61.8525 10.1861 61.8525 10.3788C61.8525 10.5689 61.7796 10.733 61.6337 10.871C61.4905 11.0064 61.3173 11.0742 61.1142 11.0742ZM64.4316 9.99994V17.9999H63.2636V9.99994H64.4316ZM68.8036 11.9999V12.9374H65.5263V11.9999H68.8036ZM66.4052 10.5624H67.5732V16.2382C67.5732 16.4648 67.607 16.6354 67.6747 16.7499C67.7424 16.8619 67.8297 16.9387 67.9365 16.9804C68.0458 17.0195 68.1643 17.039 68.2919 17.039C68.3857 17.039 68.4677 17.0325 68.538 17.0195C68.6083 17.0064 68.663 16.996 68.7021 16.9882L68.913 17.9531C68.8453 17.9791 68.749 18.0051 68.624 18.0312C68.499 18.0598 68.3427 18.0755 68.1552 18.0781C67.8479 18.0833 67.5615 18.0286 67.2958 17.914C67.0302 17.7994 66.8154 17.6223 66.6513 17.3827C66.4872 17.1432 66.4052 16.8424 66.4052 16.4804V10.5624ZM74.3075 17.9999L72.5419 11.9999H73.749L74.9247 16.4062H74.9833L76.163 11.9999H77.37L78.5419 16.3867H78.6005L79.7685 11.9999H80.9755L79.2138 17.9999H78.0224L76.8036 13.6679H76.7138L75.495 17.9999H74.3075ZM82.0839 17.9999V11.9999H83.2519V17.9999H82.0839ZM82.6738 11.0742C82.4706 11.0742 82.2962 11.0064 82.1503 10.871C82.0071 10.733 81.9355 10.5689 81.9355 10.3788C81.9355 10.1861 82.0071 10.0221 82.1503 9.88666C82.2962 9.74864 82.4706 9.67963 82.6738 9.67963C82.8769 9.67963 83.0501 9.74864 83.1933 9.88666C83.3391 10.0221 83.412 10.1861 83.412 10.3788C83.412 10.5689 83.3391 10.733 83.1933 10.871C83.0501 11.0064 82.8769 11.0742 82.6738 11.0742ZM87.624 11.9999V12.9374H84.3466V11.9999H87.624ZM85.2255 10.5624H86.3935V16.2382C86.3935 16.4648 86.4273 16.6354 86.495 16.7499C86.5628 16.8619 86.65 16.9387 86.7568 16.9804C86.8661 17.0195 86.9846 17.039 87.1122 17.039C87.206 17.039 87.288 17.0325 87.3583 17.0195C87.4286 17.0064 87.4833 16.996 87.5224 16.9882L87.7333 17.9531C87.6656 17.9791 87.5693 18.0051 87.4443 18.0312C87.3193 18.0598 87.163 18.0755 86.9755 18.0781C86.6682 18.0833 86.3818 18.0286 86.1161 17.914C85.8505 17.7994 85.6357 17.6223 85.4716 17.3827C85.3075 17.1432 85.2255 16.8424 85.2255 16.4804V10.5624ZM90.2128 14.4374V17.9999H89.0448V9.99994H90.1972V12.9765H90.2714C90.412 12.6536 90.6269 12.3971 90.9159 12.207C91.205 12.0169 91.5826 11.9218 92.0488 11.9218C92.4602 11.9218 92.8196 12.0064 93.1269 12.1757C93.4368 12.345 93.6764 12.5976 93.8456 12.9335C94.0175 13.2669 94.1034 13.6835 94.1034 14.1835V17.9999H92.9355V14.3242C92.9355 13.8841 92.8222 13.5429 92.5956 13.3007C92.3691 13.0559 92.054 12.9335 91.6503 12.9335C91.3743 12.9335 91.1269 12.9921 90.9081 13.1093C90.692 13.2265 90.5214 13.3984 90.3964 13.6249C90.274 13.8489 90.2128 14.1197 90.2128 14.4374Z" fill="#E8E8E8"/>
<path d="M48.7528 30.9999L46.213 22.2727H48.544L49.8607 27.9914H49.9332L51.4374 22.2727H53.338L54.8423 28.0042H54.9147L56.2357 22.2727H58.5624L56.0269 30.9999H53.9943L52.4218 25.7073H52.3536L50.7812 30.9999H48.7528ZM61.767 31.1235C61.0823 31.1235 60.4914 30.9886 59.9943 30.7187C59.4999 30.446 59.1193 30.0582 58.8522 29.5553C58.588 29.0497 58.4559 28.4488 58.4559 27.7528C58.4559 27.0766 58.5894 26.4857 58.8565 25.9801C59.1235 25.4715 59.4999 25.0766 59.9857 24.7954C60.4715 24.5113 61.044 24.3693 61.7031 24.3693C62.169 24.3693 62.5951 24.4417 62.9815 24.5866C63.3678 24.7315 63.7016 24.946 63.9829 25.2301C64.2641 25.5141 64.4829 25.865 64.6391 26.2826C64.7954 26.6974 64.8735 27.1732 64.8735 27.7102V28.2301H59.1846V27.0198H62.9346C62.9318 26.7982 62.8792 26.6008 62.7769 26.4275C62.6747 26.2542 62.534 26.1193 62.355 26.0227C62.1789 25.9232 61.9758 25.8735 61.7457 25.8735C61.5127 25.8735 61.3039 25.9261 61.1193 26.0312C60.9346 26.1335 60.7883 26.2741 60.6803 26.4531C60.5724 26.6292 60.5156 26.8295 60.5099 27.0539V28.2854C60.5099 28.5525 60.5624 28.7869 60.6675 28.9886C60.7727 29.1874 60.9218 29.3423 61.115 29.4531C61.3082 29.5639 61.5383 29.6193 61.8053 29.6193C61.99 29.6193 62.1576 29.5937 62.3082 29.5425C62.4587 29.4914 62.588 29.4161 62.696 29.3167C62.8039 29.2173 62.8849 29.0951 62.9389 28.9502L64.8522 29.0056C64.7727 29.4346 64.5979 29.8082 64.3281 30.1264C64.061 30.4417 63.7102 30.6874 63.2755 30.8636C62.8408 31.0369 62.338 31.1235 61.767 31.1235ZM65.9378 30.9999V22.2727H68.0216V25.5752H68.0642C68.1494 25.3764 68.2702 25.1846 68.4264 24.9999C68.5855 24.8153 68.7872 24.6647 69.0315 24.5482C69.2787 24.4289 69.5742 24.3693 69.9179 24.3693C70.3724 24.3693 70.7972 24.4886 71.192 24.7272C71.5898 24.9658 71.9108 25.3337 72.1551 25.8309C72.3994 26.3281 72.5216 26.9616 72.5216 27.7315C72.5216 28.4729 72.4037 29.0937 72.1679 29.5937C71.9349 30.0937 71.6196 30.4687 71.2219 30.7187C70.827 30.9687 70.3881 31.0937 69.9051 31.0937C69.5756 31.0937 69.2901 31.0397 69.0486 30.9318C68.8071 30.8238 68.604 30.6818 68.4392 30.5056C68.2773 30.3295 68.1523 30.1406 68.0642 29.9389H68.0003V30.9999H65.9378ZM67.979 27.7272C67.979 28.0795 68.0259 28.3863 68.1196 28.6477C68.2162 28.909 68.354 29.1122 68.533 29.257C68.7148 29.3991 68.9321 29.4701 69.1849 29.4701C69.4406 29.4701 69.658 29.3991 69.8369 29.257C70.0159 29.1122 70.1509 28.909 70.2418 28.6477C70.3355 28.3863 70.3824 28.0795 70.3824 27.7272C70.3824 27.3749 70.3355 27.0695 70.2418 26.811C70.1509 26.5525 70.0159 26.3522 69.8369 26.2102C69.6608 26.0681 69.4435 25.9971 69.1849 25.9971C68.9293 25.9971 68.7119 26.0667 68.533 26.2059C68.354 26.3451 68.2162 26.544 68.1196 26.8025C68.0259 27.061 67.979 27.3693 67.979 27.7272ZM75.0912 30.9999H72.8241L75.7688 22.2727H78.577L81.5216 30.9999H79.2545L77.2048 24.4715H77.1366L75.0912 30.9999ZM74.7886 27.5653H79.5273V29.1675H74.7886V27.5653ZM87.9765 26.4531L86.0631 26.5042C86.0433 26.3678 85.9893 26.2471 85.9012 26.142C85.8131 26.034 85.6981 25.9502 85.556 25.8906C85.4168 25.8281 85.2549 25.7968 85.0702 25.7968C84.8288 25.7968 84.6228 25.8451 84.4523 25.9417C84.2847 26.0383 84.2023 26.169 84.2052 26.3337C84.2023 26.4616 84.2535 26.5724 84.3586 26.6661C84.4665 26.7599 84.6583 26.8352 84.9339 26.892L86.1952 27.1306C86.8486 27.2556 87.3344 27.463 87.6526 27.7528C87.9736 28.0426 88.1356 28.4261 88.1384 28.9033C88.1356 29.3522 88.0021 29.7428 87.7379 30.0752C87.4765 30.4076 87.1185 30.6661 86.664 30.8508C86.2094 31.0326 85.6896 31.1235 85.1043 31.1235C84.1697 31.1235 83.4325 30.9318 82.8927 30.5482C82.3558 30.1619 82.0489 29.6448 81.9722 28.9971L84.0305 28.946C84.0759 29.1846 84.1938 29.3664 84.3842 29.4914C84.5745 29.6164 84.8174 29.6789 85.1129 29.6789C85.3799 29.6789 85.5972 29.6292 85.7648 29.5298C85.9325 29.4303 86.0177 29.2982 86.0205 29.1335C86.0177 28.9857 85.9523 28.8678 85.8245 28.7798C85.6967 28.6889 85.4964 28.6178 85.2236 28.5667L84.0816 28.3494C83.4254 28.2301 82.9367 28.0099 82.6157 27.6889C82.2947 27.365 82.1356 26.9531 82.1384 26.4531C82.1356 26.0156 82.2521 25.642 82.4879 25.3323C82.7236 25.0198 83.0589 24.7812 83.4935 24.6164C83.9282 24.4516 84.441 24.3693 85.0319 24.3693C85.9183 24.3693 86.6171 24.5553 87.1285 24.9275C87.6398 25.2968 87.9225 25.8053 87.9765 26.4531ZM94.8788 26.4531L92.9655 26.5042C92.9456 26.3678 92.8916 26.2471 92.8035 26.142C92.7155 26.034 92.6004 25.9502 92.4584 25.8906C92.3192 25.8281 92.1572 25.7968 91.9726 25.7968C91.7311 25.7968 91.5251 25.8451 91.3547 25.9417C91.1871 26.0383 91.1047 26.169 91.1075 26.3337C91.1047 26.4616 91.1558 26.5724 91.2609 26.6661C91.3689 26.7599 91.5606 26.8352 91.8362 26.892L93.0976 27.1306C93.751 27.2556 94.2368 27.463 94.555 27.7528C94.876 28.0426 95.0379 28.4261 95.0408 28.9033C95.0379 29.3522 94.9044 29.7428 94.6402 30.0752C94.3788 30.4076 94.0209 30.6661 93.5663 30.8508C93.1118 31.0326 92.5919 31.1235 92.0067 31.1235C91.072 31.1235 90.3348 30.9318 89.795 30.5482C89.2581 30.1619 88.9513 29.6448 88.8746 28.9971L90.9328 28.946C90.9783 29.1846 91.0962 29.3664 91.2865 29.4914C91.4768 29.6164 91.7197 29.6789 92.0152 29.6789C92.2822 29.6789 92.4996 29.6292 92.6672 29.5298C92.8348 29.4303 92.92 29.2982 92.9229 29.1335C92.92 28.9857 92.8547 28.8678 92.7268 28.7798C92.599 28.6889 92.3987 28.6178 92.126 28.5667L90.9839 28.3494C90.3277 28.2301 89.8391 28.0099 89.518 27.6889C89.197 27.365 89.0379 26.9531 89.0408 26.4531C89.0379 26.0156 89.1544 25.642 89.3902 25.3323C89.626 25.0198 89.9612 24.7812 90.3959 24.6164C90.8305 24.4516 91.3433 24.3693 91.9342 24.3693C92.8206 24.3693 93.5195 24.5553 94.0308 24.9275C94.5422 25.2968 94.8249 25.8053 94.8788 26.4531ZM99.1263 31.1235C98.4417 31.1235 97.8508 30.9886 97.3536 30.7187C96.8593 30.446 96.4786 30.0582 96.2116 29.5553C95.9474 29.0497 95.8153 28.4488 95.8153 27.7528C95.8153 27.0766 95.9488 26.4857 96.2158 25.9801C96.4829 25.4715 96.8593 25.0766 97.3451 24.7954C97.8309 24.5113 98.4033 24.3693 99.0624 24.3693C99.5283 24.3693 99.9545 24.4417 100.341 24.5866C100.727 24.7315 101.061 24.946 101.342 25.2301C101.624 25.5141 101.842 25.865 101.999 26.2826C102.155 26.6974 102.233 27.1732 102.233 27.7102V28.2301H96.544V27.0198H100.294C100.291 26.7982 100.239 26.6008 100.136 26.4275C100.034 26.2542 99.8934 26.1193 99.7144 26.0227C99.5383 25.9232 99.3352 25.8735 99.105 25.8735C98.8721 25.8735 98.6633 25.9261 98.4786 26.0312C98.294 26.1335 98.1477 26.2741 98.0397 26.4531C97.9317 26.6292 97.8749 26.8295 97.8692 27.0539V28.2854C97.8692 28.5525 97.9218 28.7869 98.0269 28.9886C98.132 29.1874 98.2812 29.3423 98.4744 29.4531C98.6675 29.5639 98.8977 29.6193 99.1647 29.6193C99.3494 29.6193 99.517 29.5937 99.6675 29.5425C99.8181 29.4914 99.9474 29.4161 100.055 29.3167C100.163 29.2173 100.244 29.0951 100.298 28.9502L102.212 29.0056C102.132 29.4346 101.957 29.8082 101.687 30.1264C101.42 30.4417 101.07 30.6874 100.635 30.8636C100.2 31.0369 99.6974 31.1235 99.1263 31.1235ZM103.297 30.9999V24.4545H105.279V25.6562H105.351C105.487 25.2585 105.718 24.9445 106.041 24.7144C106.365 24.4843 106.752 24.3693 107.201 24.3693C107.655 24.3693 108.044 24.4857 108.368 24.7187C108.692 24.9516 108.898 25.2641 108.986 25.6562H109.054C109.176 25.267 109.415 24.9559 109.77 24.7229C110.125 24.4872 110.544 24.3693 111.027 24.3693C111.647 24.3693 112.149 24.5681 112.536 24.9658C112.922 25.3607 113.115 25.9033 113.115 26.5937V30.9999H111.032V27.071C111.032 26.7443 110.948 26.4957 110.78 26.3252C110.612 26.1519 110.395 26.0653 110.128 26.0653C109.841 26.0653 109.615 26.159 109.451 26.3465C109.289 26.5312 109.208 26.7798 109.208 27.0923V30.9999H107.205V27.0497C107.205 26.7457 107.122 26.5056 106.958 26.3295C106.793 26.1533 106.576 26.0653 106.306 26.0653C106.124 26.0653 105.963 26.1093 105.824 26.1974C105.685 26.2826 105.576 26.4048 105.496 26.5639C105.419 26.7229 105.381 26.9104 105.381 27.1264V30.9999H103.297ZM114.407 30.9999V22.2727H116.49V25.5752H116.533C116.618 25.3764 116.739 25.1846 116.895 24.9999C117.054 24.8153 117.256 24.6647 117.5 24.5482C117.747 24.4289 118.043 24.3693 118.387 24.3693C118.841 24.3693 119.266 24.4886 119.661 24.7272C120.059 24.9658 120.38 25.3337 120.624 25.8309C120.868 26.3281 120.99 26.9616 120.99 27.7315C120.99 28.4729 120.872 29.0937 120.637 29.5937C120.404 30.0937 120.088 30.4687 119.691 30.7187C119.296 30.9687 118.857 31.0937 118.374 31.0937C118.044 31.0937 117.759 31.0397 117.517 30.9318C117.276 30.8238 117.073 30.6818 116.908 30.5056C116.746 30.3295 116.621 30.1406 116.533 29.9389H116.469V30.9999H114.407ZM116.448 27.7272C116.448 28.0795 116.495 28.3863 116.588 28.6477C116.685 28.909 116.823 29.1122 117.002 29.257C117.184 29.3991 117.401 29.4701 117.654 29.4701C117.909 29.4701 118.127 29.3991 118.306 29.257C118.485 29.1122 118.62 28.909 118.71 28.6477C118.804 28.3863 118.851 28.0795 118.851 27.7272C118.851 27.3749 118.804 27.0695 118.71 26.811C118.62 26.5525 118.485 26.3522 118.306 26.2102C118.13 26.0681 117.912 25.9971 117.654 25.9971C117.398 25.9971 117.181 26.0667 117.002 26.2059C116.823 26.3451 116.685 26.544 116.588 26.8025C116.495 27.061 116.448 27.3693 116.448 27.7272ZM124.166 22.2727V30.9999H122.082V22.2727H124.166ZM126.767 33.4545C126.517 33.4545 126.281 33.4346 126.059 33.3948C125.838 33.3579 125.647 33.3082 125.488 33.2457L125.948 31.7329C126.153 31.8011 126.338 31.8408 126.502 31.8522C126.67 31.8636 126.813 31.8366 126.933 31.7712C127.055 31.7087 127.149 31.5965 127.214 31.4346L127.295 31.2386L124.968 24.4545H127.15L128.356 29.1249H128.424L129.647 24.4545H131.842L129.375 31.6264C129.255 31.9843 129.086 32.2997 128.867 32.5724C128.652 32.8479 128.372 33.0639 128.028 33.2201C127.687 33.3764 127.267 33.4545 126.767 33.4545Z" fill="#654FF0"/>
</g>
<rect x="0.749939" y="0.749939" width="140.5" height="38.5" rx="5.25" stroke="white" stroke-opacity="0.15" stroke-width="1.5"/>
<defs>
<filter id="filter0_d_2_875" x="5.99994" y="1.99994" width="36.0001" height="36.0001" filterUnits="userSpaceOnUse" color-interpolation-filters="sRGB">
<feFlood flood-opacity="0" result="BackgroundImageFix"/>
<feColorMatrix in="SourceAlpha" type="matrix" values="0 0 0 0 0 0 0 0 0 0 0 0 0 0 0 0 0 0 127 0" result="hardAlpha"/>
<feOffset/>
<feGaussianBlur stdDeviation="2"/>
<feComposite in2="hardAlpha" operator="out"/>
<feColorMatrix type="matrix" values="0 0 0 0 0 0 0 0 0 0 0 0 0 0 0 0 0 0 0.25 0"/>
<feBlend mode="normal" in2="BackgroundImageFix" result="effect1_dropShadow_2_875"/>
<feBlend mode="normal" in="SourceGraphic" in2="effect1_dropShadow_2_875" result="shape"/>
</filter>
<filter id="filter1_d_2_875" x="41.9999" y="2.99994" width="94" height="34.4545" filterUnits="userSpaceOnUse" color-interpolation-filters="sRGB">
<feFlood flood-opacity="0" result="BackgroundImageFix"/>
<feColorMatrix in="SourceAlpha" type="matrix" values="0 0 0 0 0 0 0 0 0 0 0 0 0 0 0 0 0 0 127 0" result="hardAlpha"/>
<feOffset/>
<feGaussianBlur stdDeviation="2"/>
<feComposite in2="hardAlpha" operator="out"/>
<feColorMatrix type="matrix" values="0 0 0 0 0 0 0 0 0 0 0 0 0 0 0 0 0 0 0.25 0"/>
<feBlend mode="normal" in2="BackgroundImageFix" result="effect1_dropShadow_2_875"/>
<feBlend mode="normal" in="SourceGraphic" in2="effect1_dropShadow_2_875" result="shape"/>
</filter>
<linearGradient id="paint0_linear_2_875" x1="70.9999" y1="-6.10351e-05" x2="70.9999" y2="39.9999" gradientUnits="userSpaceOnUse">
<stop stop-color="#140E3A"/>
<stop offset="1" stop-color="#0A0622"/>
</linearGradient>
</defs>
</svg>
