<svg width="196" height="56" viewBox="0 0 196 56" fill="none" xmlns="http://www.w3.org/2000/svg">
<rect x="-0.000366211" y="-6.10352e-05" width="196" height="56" rx="8" fill="url(#paint0_linear_28_781)"/>
<g filter="url(#filter0_d_28_781)">
<path d="M45.8599 15.493C43.2977 14.3368 40.5753 13.496 37.7141 13.0019C37.6607 13.0019 37.6073 13.0019 37.586 13.065C37.2336 13.6852 36.8386 14.484 36.5717 15.1146C33.4757 14.6627 30.433 14.6627 27.4223 15.1146C27.1447 14.463 26.7497 13.6746 26.3547 13.065C26.3227 13.023 26.28 12.9914 26.2266 13.0019C23.7711 13.4854 20.6323 14.3684 18.1127 15.493C18.0914 15.493 18.07 15.514 18.0594 15.5351C12.8281 23.208 11.4402 30.5656 12.1875 37.9232C12.1875 37.9547 12.2089 37.9967 12.2409 38.0283C15.6572 40.5088 18.9668 42.0224 22.2337 42.9999C22.2871 42.9999 22.3405 42.9999 22.3725 42.9579C23.1412 41.9278 23.8245 40.8347 24.4223 39.6785C24.4543 39.6154 24.4223 39.5313 24.3476 39.5103C23.28 39.0899 22.2124 38.6064 21.2195 38.0388C21.1448 37.9967 21.1341 37.8811 21.2195 37.8286C21.433 37.6709 21.6465 37.5132 21.8387 37.3556C21.8707 37.324 21.9241 37.324 21.9668 37.3346C28.5219 40.2776 35.6322 40.2776 42.0379 37.3346C42.0806 37.3135 42.134 37.324 42.166 37.3451C42.3688 37.5132 42.5717 37.6709 42.7852 37.8286C42.86 37.8811 42.8493 37.9967 42.7852 38.0388C41.7923 38.6169 40.7568 39.0899 39.6571 39.5103C39.5824 39.5418 39.5504 39.6154 39.5931 39.689C40.1909 40.8452 40.8849 41.9278 41.6215 42.9473C41.6535 42.9894 41.7069 43.0104 41.7603 42.9894C45.0272 41.9909 48.3475 40.4878 51.7745 38.0178C51.8065 37.9967 51.8279 37.9652 51.8279 37.9126C52.6606 29.4094 50.4293 22.0413 45.9133 15.5245C45.9133 15.5035 45.8813 15.4825 45.8599 15.4825V15.493ZM25.3618 33.4666C23.3334 33.4666 21.7319 31.6797 21.7319 29.4724C21.7319 27.2652 23.3334 25.4783 25.3618 25.4783C27.3903 25.4783 28.9917 27.2652 28.9917 29.4724C28.9917 31.6797 27.3903 33.4666 25.3618 33.4666ZM38.7069 33.4666C36.6785 33.4666 35.0771 31.6797 35.0771 29.4724C35.0771 27.2652 36.6785 25.4783 38.7069 25.4783C40.7354 25.4783 42.3368 27.2652 42.3368 29.4724C42.3368 31.6797 40.7354 33.4666 38.7069 33.4666Z" fill="#5865F2"/>
</g>
<g filter="url(#filter1_d_28_781)">
<path d="M74.9428 16.6477H73.1701C73.1019 16.2689 72.975 15.9355 72.7894 15.6477C72.6038 15.3598 72.3765 15.1155 72.1076 14.9147C71.8386 14.714 71.5375 14.5624 71.2042 14.4602C70.8746 14.3579 70.5243 14.3068 70.153 14.3068C69.4826 14.3068 68.8822 14.4753 68.3519 14.8124C67.8254 15.1496 67.4087 15.6439 67.1019 16.2954C66.7989 16.9469 66.6474 17.7424 66.6474 18.6818C66.6474 19.6287 66.7989 20.428 67.1019 21.0795C67.4087 21.731 67.8273 22.2234 68.3576 22.5568C68.8879 22.8901 69.4845 23.0568 70.1474 23.0568C70.5148 23.0568 70.8633 23.0075 71.1928 22.909C71.5261 22.8068 71.8273 22.6571 72.0962 22.4602C72.3652 22.2632 72.5924 22.0227 72.778 21.7386C72.9674 21.4507 73.0981 21.1211 73.1701 20.7499L74.9428 20.7556C74.8481 21.3276 74.6644 21.8541 74.3917 22.3352C74.1227 22.8124 73.7761 23.2253 73.3519 23.5738C72.9314 23.9185 72.4504 24.1855 71.9087 24.3749C71.3671 24.5643 70.7761 24.659 70.136 24.659C69.1284 24.659 68.2307 24.4204 67.4428 23.9431C66.6549 23.4621 66.0337 22.7746 65.5792 21.8806C65.1284 20.9867 64.903 19.9204 64.903 18.6818C64.903 17.4393 65.1303 16.373 65.5849 15.4829C66.0394 14.589 66.6606 13.9033 67.4485 13.4261C68.2364 12.945 69.1322 12.7045 70.136 12.7045C70.7534 12.7045 71.3292 12.7935 71.8633 12.9715C72.4011 13.1458 72.8841 13.4033 73.3121 13.7443C73.7402 14.0814 74.0943 14.4943 74.3746 14.9829C74.6549 15.4677 74.8443 16.0227 74.9428 16.6477ZM78.6062 19.3181V24.4999H76.9073V12.8636H78.5834V17.1931H78.6914C78.8959 16.7234 79.2084 16.3503 79.6289 16.0738C80.0493 15.7973 80.5986 15.659 81.2766 15.659C81.8751 15.659 82.3978 15.7821 82.8448 16.0283C83.2956 16.2746 83.644 16.642 83.8903 17.1306C84.1403 17.6155 84.2653 18.2215 84.2653 18.9488V24.4999H82.5664V19.1533C82.5664 18.5132 82.4016 18.017 82.0721 17.6647C81.7425 17.3086 81.2842 17.1306 80.6971 17.1306C80.2956 17.1306 79.9357 17.2158 79.6175 17.3863C79.3031 17.5568 79.055 17.8068 78.8732 18.1363C78.6952 18.4621 78.6062 18.856 78.6062 19.3181ZM89.0721 24.6931C88.519 24.6931 88.019 24.5908 87.5721 24.3863C87.1251 24.178 86.7709 23.8768 86.5096 23.4829C86.252 23.089 86.1232 22.606 86.1232 22.034C86.1232 21.5416 86.2179 21.1363 86.4073 20.8181C86.5967 20.4999 86.8524 20.248 87.1743 20.0624C87.4963 19.8768 87.8562 19.7367 88.2539 19.642C88.6516 19.5473 89.0569 19.4753 89.4698 19.4261C89.9925 19.3655 90.4168 19.3162 90.7425 19.2783C91.0683 19.2367 91.305 19.1704 91.4528 19.0795C91.6005 18.9886 91.6743 18.8408 91.6743 18.6363V18.5965C91.6743 18.1003 91.5342 17.7158 91.2539 17.4431C90.9774 17.1704 90.5645 17.034 90.0153 17.034C89.4433 17.034 88.9925 17.1609 88.663 17.4147C88.3372 17.6647 88.1118 17.9431 87.9868 18.2499L86.3903 17.8863C86.5796 17.356 86.8562 16.928 87.2198 16.6022C87.5872 16.2727 88.0096 16.034 88.4868 15.8863C88.9641 15.7348 89.466 15.659 89.9925 15.659C90.341 15.659 90.7103 15.7007 91.1005 15.784C91.4944 15.8636 91.8618 16.0113 92.2028 16.2272C92.5474 16.4431 92.8296 16.7518 93.0493 17.1533C93.269 17.5511 93.3789 18.0681 93.3789 18.7045V24.4999H91.7198V23.3068H91.6516C91.5418 23.5264 91.377 23.7424 91.1573 23.9545C90.9376 24.1666 90.6554 24.3427 90.3107 24.4829C89.966 24.623 89.5531 24.6931 89.0721 24.6931ZM89.4414 23.3295C89.9111 23.3295 90.3126 23.2367 90.6459 23.0511C90.9831 22.8655 91.2387 22.623 91.413 22.3238C91.591 22.0208 91.68 21.6969 91.68 21.3522V20.2272C91.6194 20.2878 91.502 20.3446 91.3278 20.3977C91.1573 20.4469 90.9622 20.4905 90.7425 20.5283C90.5228 20.5624 90.3088 20.5946 90.1005 20.6249C89.8921 20.6515 89.7179 20.6742 89.5778 20.6931C89.2482 20.7348 88.9471 20.8049 88.6743 20.9033C88.4054 21.0018 88.1895 21.1439 88.0266 21.3295C87.8675 21.5113 87.788 21.7537 87.788 22.0568C87.788 22.4772 87.9433 22.7954 88.2539 23.0113C88.5645 23.2234 88.9603 23.3295 89.4414 23.3295ZM99.7155 15.7727V17.1363H94.9485V15.7727H99.7155ZM96.2269 13.6818H97.9258V21.9374C97.9258 22.267 97.975 22.5151 98.0735 22.6818C98.172 22.8446 98.2989 22.9564 98.4542 23.017C98.6133 23.0738 98.7856 23.1022 98.9712 23.1022C99.1076 23.1022 99.2269 23.0927 99.3292 23.0738C99.4314 23.0549 99.511 23.0397 99.5678 23.0283L99.8746 24.4318C99.7761 24.4696 99.636 24.5075 99.4542 24.5454C99.2724 24.5871 99.0451 24.6098 98.7724 24.6136C98.3254 24.6211 97.9087 24.5416 97.5224 24.3749C97.136 24.2083 96.8235 23.9507 96.5849 23.6022C96.3462 23.2537 96.2269 22.8162 96.2269 22.2897V13.6818ZM107.721 24.4999L105.153 15.7727H106.909L108.619 22.1818H108.704L110.42 15.7727H112.176L113.88 22.1533H113.966L115.664 15.7727H117.42L114.858 24.4999H113.125L111.352 18.1988H111.221L109.448 24.4999H107.721ZM119.032 24.4999V15.7727H120.731V24.4999H119.032ZM119.89 14.4261C119.595 14.4261 119.341 14.3276 119.129 14.1306C118.921 13.9299 118.816 13.6912 118.816 13.4147C118.816 13.1344 118.921 12.8958 119.129 12.6988C119.341 12.498 119.595 12.3977 119.89 12.3977C120.186 12.3977 120.438 12.498 120.646 12.6988C120.858 12.8958 120.964 13.1344 120.964 13.4147C120.964 13.6912 120.858 13.9299 120.646 14.1306C120.438 14.3276 120.186 14.4261 119.89 14.4261ZM127.091 15.7727V17.1363H122.323V15.7727H127.091ZM123.602 13.6818H125.301V21.9374C125.301 22.267 125.35 22.5151 125.448 22.6818C125.547 22.8446 125.674 22.9564 125.829 23.017C125.988 23.0738 126.161 23.1022 126.346 23.1022C126.483 23.1022 126.602 23.0927 126.704 23.0738C126.806 23.0549 126.886 23.0397 126.943 23.0283L127.25 24.4318C127.151 24.4696 127.011 24.5075 126.829 24.5454C126.647 24.5871 126.42 24.6098 126.147 24.6136C125.7 24.6211 125.284 24.5416 124.897 24.3749C124.511 24.2083 124.198 23.9507 123.96 23.6022C123.721 23.2537 123.602 22.8162 123.602 22.2897V13.6818ZM130.856 19.3181V24.4999H129.157V12.8636H130.833V17.1931H130.941C131.146 16.7234 131.458 16.3503 131.879 16.0738C132.299 15.7973 132.849 15.659 133.527 15.659C134.125 15.659 134.648 15.7821 135.095 16.0283C135.546 16.2746 135.894 16.642 136.14 17.1306C136.39 17.6155 136.515 18.2215 136.515 18.9488V24.4999H134.816V19.1533C134.816 18.5132 134.652 18.017 134.322 17.6647C133.993 17.3086 133.534 17.1306 132.947 17.1306C132.546 17.1306 132.186 17.2158 131.868 17.3863C131.553 17.5568 131.305 17.8068 131.123 18.1363C130.945 18.4621 130.856 18.856 130.856 19.3181ZM148.545 20.8806V15.7727H150.25V24.4999H148.579V22.9886H148.488C148.287 23.4545 147.966 23.8427 147.522 24.1533C147.083 24.4602 146.536 24.6136 145.88 24.6136C145.32 24.6136 144.823 24.4905 144.392 24.2443C143.964 23.9943 143.627 23.6249 143.38 23.1363C143.138 22.6477 143.017 22.0435 143.017 21.3238V15.7727H144.716V21.1193C144.716 21.714 144.88 22.1874 145.21 22.5397C145.539 22.892 145.967 23.0681 146.494 23.0681C146.812 23.0681 147.128 22.9886 147.443 22.8295C147.761 22.6704 148.024 22.4299 148.233 22.1079C148.445 21.7859 148.549 21.3768 148.545 20.8806ZM159.072 17.9033L157.532 18.1761C157.468 17.9791 157.366 17.7916 157.225 17.6136C157.089 17.4355 156.903 17.2897 156.669 17.1761C156.434 17.0624 156.14 17.0056 155.788 17.0056C155.307 17.0056 154.905 17.1136 154.583 17.3295C154.261 17.5416 154.1 17.8162 154.1 18.1533C154.1 18.445 154.208 18.6799 154.424 18.8579C154.64 19.0359 154.989 19.1818 155.47 19.2954L156.856 19.6136C157.659 19.7992 158.258 20.0852 158.652 20.4715C159.046 20.8579 159.243 21.3598 159.243 21.9772C159.243 22.4999 159.091 22.9658 158.788 23.3749C158.489 23.7802 158.07 24.0984 157.532 24.3295C156.998 24.5605 156.379 24.6761 155.674 24.6761C154.697 24.6761 153.9 24.4677 153.282 24.0511C152.665 23.6306 152.286 23.034 152.146 22.2613L153.788 22.0113C153.89 22.4393 154.1 22.7632 154.419 22.9829C154.737 23.1988 155.152 23.3068 155.663 23.3068C156.22 23.3068 156.665 23.1912 156.998 22.9602C157.332 22.7253 157.498 22.4393 157.498 22.1022C157.498 21.8295 157.396 21.6003 157.191 21.4147C156.991 21.2291 156.682 21.089 156.265 20.9943L154.788 20.6704C153.974 20.4848 153.371 20.1893 152.981 19.784C152.595 19.3787 152.402 18.8655 152.402 18.2443C152.402 17.7291 152.546 17.2783 152.833 16.892C153.121 16.5056 153.519 16.2045 154.027 15.9886C154.534 15.7689 155.116 15.659 155.771 15.659C156.714 15.659 157.457 15.8636 157.998 16.2727C158.54 16.678 158.898 17.2215 159.072 17.9033ZM169.021 24.6761C168.203 24.6761 167.489 24.4886 166.879 24.1136C166.269 23.7386 165.796 23.2139 165.458 22.5397C165.121 21.8655 164.953 21.0776 164.953 20.1761C164.953 19.2708 165.121 18.4791 165.458 17.8011C165.796 17.123 166.269 16.5965 166.879 16.2215C167.489 15.8465 168.203 15.659 169.021 15.659C169.839 15.659 170.553 15.8465 171.163 16.2215C171.773 16.5965 172.246 17.123 172.583 17.8011C172.921 18.4791 173.089 19.2708 173.089 20.1761C173.089 21.0776 172.921 21.8655 172.583 22.5397C172.246 23.2139 171.773 23.7386 171.163 24.1136C170.553 24.4886 169.839 24.6761 169.021 24.6761ZM169.027 23.2499C169.557 23.2499 169.996 23.1098 170.345 22.8295C170.693 22.5492 170.951 22.1761 171.117 21.7102C171.288 21.2443 171.373 20.731 171.373 20.1704C171.373 19.6136 171.288 19.1022 171.117 18.6363C170.951 18.1666 170.693 17.7897 170.345 17.5056C169.996 17.2215 169.557 17.0795 169.027 17.0795C168.493 17.0795 168.049 17.2215 167.697 17.5056C167.349 17.7897 167.089 18.1666 166.919 18.6363C166.752 19.1022 166.669 19.6136 166.669 20.1704C166.669 20.731 166.752 21.2443 166.919 21.7102C167.089 22.1761 167.349 22.5492 167.697 22.8295C168.049 23.1098 168.493 23.2499 169.027 23.2499ZM176.684 19.3181V24.4999H174.985V15.7727H176.616V17.1931H176.724C176.925 16.731 177.239 16.3598 177.667 16.0795C178.099 15.7992 178.643 15.659 179.298 15.659C179.893 15.659 180.413 15.784 180.86 16.034C181.307 16.2802 181.654 16.6477 181.9 17.1363C182.146 17.6249 182.269 18.2291 182.269 18.9488V24.4999H180.571V19.1533C180.571 18.5208 180.406 18.0265 180.076 17.6704C179.747 17.3105 179.294 17.1306 178.718 17.1306C178.324 17.1306 177.974 17.2158 177.667 17.3863C177.364 17.5568 177.124 17.8068 176.946 18.1363C176.771 18.4621 176.684 18.856 176.684 19.3181Z" fill="#E8E8E8"/>
<path d="M69.5053 43.4999H64.9354V31.1363H69.4993C70.759 31.1363 71.8436 31.3838 72.7532 31.8788C73.6668 32.3698 74.3711 33.0782 74.8661 34.0038C75.3611 34.9255 75.6087 36.0282 75.6087 37.3121C75.6087 38.6 75.3611 39.7067 74.8661 40.6324C74.3751 41.5581 73.6728 42.2684 72.7592 42.7634C71.8456 43.2544 70.761 43.4999 69.5053 43.4999ZM67.9236 40.9524H69.3906C70.0828 40.9524 70.6684 40.8356 71.1474 40.6022C71.6303 40.3648 71.9945 39.9804 72.24 39.4492C72.4896 38.9139 72.6143 38.2015 72.6143 37.3121C72.6143 36.4226 72.4896 35.7143 72.24 35.1871C71.9905 34.6558 71.6223 34.2735 71.1353 34.0401C70.6523 33.8026 70.0567 33.6839 69.3484 33.6839H67.9236V40.9524ZM77.3533 43.4999V34.2272H80.3054V43.4999H77.3533ZM78.8324 33.1466C78.4178 33.1466 78.0617 33.0098 77.7638 32.7361C77.466 32.4584 77.3171 32.1243 77.3171 31.734C77.3171 31.3476 77.466 31.0176 77.7638 30.7439C78.0617 30.4662 78.4178 30.3274 78.8324 30.3274C79.2509 30.3274 79.6071 30.4662 79.9009 30.7439C80.1987 31.0176 80.3476 31.3476 80.3476 31.734C80.3476 32.1243 80.1987 32.4584 79.9009 32.7361C79.6071 33.0098 79.2509 33.1466 78.8324 33.1466ZM90.2799 37.0585L87.5693 37.131C87.5411 36.9378 87.4647 36.7667 87.3399 36.6178C87.2152 36.4649 87.0522 36.3462 86.8509 36.2617C86.6537 36.1731 86.4243 36.1288 86.1627 36.1288C85.8206 36.1288 85.5288 36.1973 85.2874 36.3341C85.0499 36.4709 84.9332 36.6561 84.9372 36.8895C84.9332 37.0706 85.0056 37.2276 85.1545 37.3604C85.3075 37.4932 85.5791 37.5998 85.9695 37.6803L87.7565 38.0184C88.6821 38.1955 89.3703 38.4893 89.8211 38.8998C90.2759 39.3103 90.5053 39.8536 90.5093 40.5298C90.5053 41.1657 90.3161 41.719 89.9418 42.1899C89.5716 42.6608 89.0645 43.027 88.4205 43.2886C87.7766 43.5462 87.0401 43.675 86.211 43.675C84.8869 43.675 83.8425 43.4033 83.0778 42.86C82.3172 42.3127 81.8825 41.5802 81.7739 40.6626L84.6897 40.5901C84.7541 40.9282 84.9211 41.1858 85.1908 41.3629C85.4604 41.5399 85.8045 41.6285 86.2231 41.6285C86.6014 41.6285 86.9093 41.5581 87.1467 41.4172C87.3842 41.2763 87.5049 41.0892 87.5089 40.8558C87.5049 40.6465 87.4124 40.4795 87.2312 40.3547C87.0501 40.2259 86.7664 40.1253 86.38 40.0528L84.7621 39.745C83.8325 39.5759 83.1402 39.264 82.6854 38.8092C82.2307 38.3504 82.0053 37.7669 82.0093 37.0585C82.0053 36.4387 82.1703 35.9095 82.5043 35.4708C82.8384 35.0281 83.3133 34.69 83.929 34.4566C84.5448 34.2232 85.2713 34.1065 86.1084 34.1065C87.3641 34.1065 88.3541 34.3701 89.0786 34.8973C89.803 35.4205 90.2034 36.1409 90.2799 37.0585ZM96.2912 43.675C95.3132 43.675 94.4741 43.4738 93.7738 43.0713C93.0775 42.6689 92.5422 42.1094 92.1679 41.393C91.7937 40.6726 91.6065 39.8395 91.6065 38.8938C91.6065 37.9439 91.7937 37.1109 92.1679 36.3945C92.5463 35.6741 93.0836 35.1126 93.7798 34.7102C94.4801 34.3077 95.3152 34.1065 96.2851 34.1065C97.1424 34.1065 97.8889 34.2614 98.5248 34.5713C99.1648 34.8812 99.6638 35.3199 100.022 35.8874C100.384 36.4508 100.575 37.1129 100.596 37.8735H97.8366C97.7803 37.3986 97.6193 37.0263 97.3537 36.7567C97.0921 36.487 96.75 36.3522 96.3274 36.3522C95.9853 36.3522 95.6855 36.4488 95.4279 36.642C95.1703 36.8311 94.9691 37.1129 94.8242 37.4872C94.6833 37.8574 94.6129 38.3162 94.6129 38.8636C94.6129 39.4109 94.6833 39.8738 94.8242 40.2521C94.9691 40.6264 95.1703 40.9101 95.4279 41.1033C95.6855 41.2924 95.9853 41.387 96.3274 41.387C96.6011 41.387 96.8425 41.3287 97.0518 41.2119C97.2651 41.0952 97.4402 40.9242 97.577 40.6988C97.7139 40.4694 97.8004 40.1917 97.8366 39.8657H100.596C100.567 40.6304 100.376 41.2985 100.022 41.87C99.6719 42.4415 99.1788 42.8862 98.5429 43.2041C97.9111 43.518 97.1605 43.675 96.2912 43.675ZM106.435 43.675C105.461 43.675 104.624 43.4758 103.923 43.0773C103.227 42.6749 102.69 42.1155 102.312 41.3991C101.937 40.6787 101.75 39.8436 101.75 38.8938C101.75 37.9399 101.937 37.1048 102.312 36.3884C102.69 35.668 103.227 35.1086 103.923 34.7102C104.624 34.3077 105.461 34.1065 106.435 34.1065C107.409 34.1065 108.244 34.3077 108.94 34.7102C109.64 35.1086 110.178 35.668 110.552 36.3884C110.93 37.1048 111.119 37.9399 111.119 38.8938C111.119 39.8436 110.93 40.6787 110.552 41.3991C110.178 42.1155 109.64 42.6749 108.94 43.0773C108.244 43.4758 107.409 43.675 106.435 43.675ZM106.453 41.4474C106.807 41.4474 107.107 41.3387 107.352 41.1214C107.598 40.9041 107.785 40.6022 107.914 40.2158C108.047 39.8295 108.113 39.3827 108.113 38.8756C108.113 38.3605 108.047 37.9097 107.914 37.5234C107.785 37.137 107.598 36.8352 107.352 36.6178C107.107 36.4005 106.807 36.2918 106.453 36.2918C106.087 36.2918 105.777 36.4005 105.523 36.6178C105.274 36.8352 105.082 37.137 104.95 37.5234C104.821 37.9097 104.756 38.3605 104.756 38.8756C104.756 39.3827 104.821 39.8295 104.95 40.2158C105.082 40.6022 105.274 40.9041 105.523 41.1214C105.777 41.3387 106.087 41.4474 106.453 41.4474ZM112.632 43.4999V34.2272H115.499V35.9176H115.596C115.765 35.3058 116.04 34.851 116.423 34.5532C116.805 34.2514 117.25 34.1004 117.757 34.1004C117.894 34.1004 118.035 34.1105 118.18 34.1306C118.324 34.1467 118.459 34.1729 118.584 34.2091V36.7748C118.443 36.7265 118.258 36.6883 118.029 36.6601C117.803 36.6319 117.602 36.6178 117.425 36.6178C117.075 36.6178 116.759 36.6963 116.477 36.8533C116.199 37.0062 115.98 37.2215 115.819 37.4992C115.662 37.7729 115.584 38.0949 115.584 38.4651V43.4999H112.632ZM122.692 43.6327C122.008 43.6327 121.386 43.4557 120.827 43.1015C120.267 42.7473 119.821 42.2161 119.487 41.5077C119.153 40.7994 118.986 39.92 118.986 38.8696C118.986 37.7789 119.159 36.8814 119.505 36.1771C119.851 35.4728 120.304 34.9516 120.863 34.6136C121.426 34.2755 122.032 34.1065 122.68 34.1065C123.167 34.1065 123.584 34.191 123.93 34.36C124.276 34.525 124.562 34.7383 124.787 34.9999C125.012 35.2615 125.183 35.5332 125.3 35.8149H125.36V31.1363H128.313V43.4999H125.391V41.9967H125.3C125.175 42.2825 124.998 42.5501 124.769 42.7997C124.539 43.0492 124.252 43.2504 123.906 43.4033C123.564 43.5563 123.159 43.6327 122.692 43.6327ZM123.718 41.3327C124.077 41.3327 124.383 41.2321 124.636 41.0308C124.89 40.8256 125.085 40.5378 125.222 40.1675C125.358 39.7973 125.427 39.3626 125.427 38.8636C125.427 38.3565 125.358 37.9198 125.222 37.5536C125.089 37.1873 124.894 36.9056 124.636 36.7084C124.383 36.5112 124.077 36.4126 123.718 36.4126C123.352 36.4126 123.042 36.5132 122.789 36.7144C122.535 36.9157 122.342 37.1994 122.209 37.5656C122.08 37.9319 122.016 38.3645 122.016 38.8636C122.016 39.3626 122.082 39.7973 122.215 40.1675C122.348 40.5378 122.539 40.8256 122.789 41.0308C123.042 41.2321 123.352 41.3327 123.718 41.3327Z" fill="#5865F2"/>
</g>
<rect x="1.04963" y="1.04994" width="193.9" height="53.9" rx="6.95" stroke="white" stroke-opacity="0.15" stroke-width="2.1"/>
<defs>
<filter id="filter0_d_28_781" x="6.28535" y="2.28565" width="51.4286" height="51.4286" filterUnits="userSpaceOnUse" color-interpolation-filters="sRGB">
<feFlood flood-opacity="0" result="BackgroundImageFix"/>
<feColorMatrix in="SourceAlpha" type="matrix" values="0 0 0 0 0 0 0 0 0 0 0 0 0 0 0 0 0 0 127 0" result="hardAlpha"/>
<feOffset/>
<feGaussianBlur stdDeviation="2.85714"/>
<feComposite in2="hardAlpha" operator="out"/>
<feColorMatrix type="matrix" values="0 0 0 0 0 0 0 0 0 0 0 0 0 0 0 0 0 0 0.25 0"/>
<feBlend mode="normal" in2="BackgroundImageFix" result="effect1_dropShadow_28_781"/>
<feBlend mode="normal" in="SourceGraphic" in2="effect1_dropShadow_28_781" result="shape"/>
</filter>
<filter id="filter1_d_28_781" x="58.3996" y="3.89994" width="131.2" height="48.2" filterUnits="userSpaceOnUse" color-interpolation-filters="sRGB">
<feFlood flood-opacity="0" result="BackgroundImageFix"/>
<feColorMatrix in="SourceAlpha" type="matrix" values="0 0 0 0 0 0 0 0 0 0 0 0 0 0 0 0 0 0 127 0" result="hardAlpha"/>
<feOffset/>
<feGaussianBlur stdDeviation="2.8"/>
<feComposite in2="hardAlpha" operator="out"/>
<feColorMatrix type="matrix" values="0 0 0 0 0 0 0 0 0 0 0 0 0 0 0 0 0 0 0.25 0"/>
<feBlend mode="normal" in2="BackgroundImageFix" result="effect1_dropShadow_28_781"/>
<feBlend mode="normal" in="SourceGraphic" in2="effect1_dropShadow_28_781" result="shape"/>
</filter>
<linearGradient id="paint0_linear_28_781" x1="97.9996" y1="-6.10351e-05" x2="97.9996" y2="55.9999" gradientUnits="userSpaceOnUse">
<stop stop-color="#1B1D31"/>
<stop offset="1" stop-color="#11121F"/>
</linearGradient>
</defs>
</svg>
