<svg width="142" height="40" viewBox="0 0 142 40" fill="none" xmlns="http://www.w3.org/2000/svg">
<rect x="-0.000244141" y="-6.10352e-05" width="142" height="40" rx="6" fill="url(#paint0_linear_28_787)"/>
<g filter="url(#filter0_d_28_787)">
<path d="M33.702 11.2451C31.9084 10.4358 30.0027 9.84717 27.9999 9.50136C27.9625 9.50136 27.9251 9.50136 27.9102 9.54551C27.6636 9.97961 27.3871 10.5388 27.2002 10.9802C25.033 10.6639 22.9031 10.6639 20.7956 10.9802C20.6013 10.5241 20.3248 9.97225 20.0483 9.54551C20.0259 9.51608 19.996 9.49401 19.9586 9.50136C18.2398 9.83981 16.0426 10.4579 14.2789 11.2451C14.264 11.2451 14.249 11.2598 14.2416 11.2745C10.5797 16.6456 9.60813 21.7959 10.1313 26.9462C10.1313 26.9683 10.1462 26.9977 10.1686 27.0198C12.5601 28.7562 14.8768 29.8157 17.1636 30.4999C17.201 30.4999 17.2383 30.4999 17.2608 30.4705C17.7988 29.7495 18.2771 28.9843 18.6956 28.1749C18.7181 28.1308 18.6956 28.0719 18.6433 28.0572C17.896 27.7629 17.1487 27.4245 16.4537 27.0272C16.4013 26.9977 16.3939 26.9168 16.4537 26.88C16.6031 26.7696 16.7526 26.6593 16.8871 26.5489C16.9095 26.5268 16.9469 26.5268 16.9768 26.5342C21.5654 28.5943 26.5426 28.5943 31.0265 26.5342C31.0564 26.5195 31.0938 26.5268 31.1162 26.5415C31.2582 26.6593 31.4002 26.7696 31.5497 26.88C31.602 26.9168 31.5945 26.9977 31.5497 27.0272C30.8547 27.4318 30.1297 27.7629 29.36 28.0572C29.3077 28.0793 29.2853 28.1308 29.3152 28.1823C29.7337 28.9916 30.2194 29.7495 30.7351 30.4631C30.7575 30.4926 30.7949 30.5073 30.8322 30.4926C33.1191 29.7936 35.4432 28.7415 37.8422 27.0124C37.8646 26.9977 37.8795 26.9756 37.8795 26.9389C38.4624 20.9866 36.9005 15.8289 33.7393 11.2672C33.7393 11.2525 33.7169 11.2378 33.702 11.2378V11.2451ZM19.3533 23.8266C17.9334 23.8266 16.8124 22.5758 16.8124 21.0307C16.8124 19.4856 17.9334 18.2348 19.3533 18.2348C20.7732 18.2348 21.8942 19.4856 21.8942 21.0307C21.8942 22.5758 20.7732 23.8266 19.3533 23.8266ZM28.6949 23.8266C27.275 23.8266 26.154 22.5758 26.154 21.0307C26.154 19.4856 27.275 18.2348 28.6949 18.2348C30.1148 18.2348 31.2358 19.4856 31.2358 21.0307C31.2358 22.5758 30.1148 23.8266 28.6949 23.8266Z" fill="#5865F2"/>
</g>
<g filter="url(#filter1_d_28_787)">
<path d="M53.5232 12.6015H52.3044C52.2576 12.3411 52.1703 12.1119 52.0427 11.914C51.9151 11.7161 51.7589 11.5481 51.574 11.4101C51.3891 11.2721 51.182 11.1679 50.9529 11.0976C50.7263 11.0273 50.4854 10.9921 50.2302 10.9921C49.7693 10.9921 49.3565 11.108 48.9919 11.3398C48.63 11.5716 48.3435 11.9114 48.1326 12.3593C47.9242 12.8072 47.8201 13.3541 47.8201 13.9999C47.8201 14.651 47.9242 15.2005 48.1326 15.6484C48.3435 16.0963 48.6313 16.4348 48.9958 16.664C49.3604 16.8932 49.7706 17.0077 50.2263 17.0077C50.4789 17.0077 50.7185 16.9739 50.9451 16.9062C51.1742 16.8359 51.3813 16.733 51.5662 16.5976C51.7511 16.4622 51.9073 16.2968 52.0349 16.1015C52.1651 15.9036 52.255 15.677 52.3044 15.4218L53.5232 15.4257C53.4581 15.8189 53.3318 16.1809 53.1443 16.5117C52.9594 16.8398 52.7211 17.1236 52.4294 17.3632C52.1404 17.6002 51.8097 17.7838 51.4373 17.914C51.0649 18.0442 50.6586 18.1093 50.2185 18.1093C49.5258 18.1093 48.9086 17.9452 48.3669 17.6171C47.8253 17.2864 47.3982 16.8137 47.0857 16.1992C46.7758 15.5846 46.6208 14.8515 46.6208 13.9999C46.6208 13.1458 46.7771 12.4127 47.0896 11.8007C47.4021 11.1861 47.8292 10.7148 48.3708 10.3867C48.9125 10.0559 49.5284 9.89056 50.2185 9.89056C50.643 9.89056 51.0388 9.95176 51.406 10.0742C51.7758 10.1939 52.1078 10.371 52.4021 10.6054C52.6964 10.8372 52.9399 11.121 53.1326 11.457C53.3253 11.7903 53.4555 12.1718 53.5232 12.6015ZM56.0417 14.4374V17.9999H54.8738V9.99994H56.0261V12.9765H56.1003C56.241 12.6536 56.4558 12.3971 56.7449 12.207C57.0339 12.0169 57.4115 11.9218 57.8777 11.9218C58.2891 11.9218 58.6485 12.0064 58.9558 12.1757C59.2657 12.345 59.5053 12.5976 59.6746 12.9335C59.8464 13.2669 59.9324 13.6835 59.9324 14.1835V17.9999H58.7644V14.3242C58.7644 13.8841 58.6511 13.5429 58.4246 13.3007C58.198 13.0559 57.8829 12.9335 57.4792 12.9335C57.2032 12.9335 56.9558 12.9921 56.7371 13.1093C56.5209 13.2265 56.3503 13.3984 56.2253 13.6249C56.1029 13.8489 56.0417 14.1197 56.0417 14.4374ZM63.2371 18.1327C62.8568 18.1327 62.5131 18.0624 62.2058 17.9218C61.8985 17.7786 61.655 17.5716 61.4753 17.3007C61.2983 17.0299 61.2097 16.6979 61.2097 16.3046C61.2097 15.9661 61.2748 15.6874 61.405 15.4687C61.5352 15.2499 61.711 15.0768 61.9324 14.9492C62.1537 14.8216 62.4011 14.7252 62.6746 14.6601C62.948 14.595 63.2266 14.5455 63.5105 14.5117C63.8699 14.47 64.1615 14.4361 64.3855 14.4101C64.6095 14.3814 64.7722 14.3359 64.8738 14.2734C64.9753 14.2109 65.0261 14.1093 65.0261 13.9687V13.9413C65.0261 13.6002 64.9298 13.3359 64.7371 13.1484C64.547 12.9609 64.2631 12.8671 63.8855 12.8671C63.4923 12.8671 63.1824 12.9544 62.9558 13.1288C62.7318 13.3007 62.5769 13.4921 62.491 13.7031L61.3933 13.4531C61.5235 13.0885 61.7136 12.7942 61.9636 12.5702C62.2162 12.3437 62.5066 12.1796 62.8347 12.0781C63.1628 11.9739 63.5079 11.9218 63.8699 11.9218C64.1095 11.9218 64.3634 11.9505 64.6316 12.0078C64.9024 12.0624 65.155 12.164 65.3894 12.3124C65.6264 12.4609 65.8204 12.6731 65.9714 12.9492C66.1225 13.2226 66.198 13.5781 66.198 14.0156V17.9999H65.0574V17.1796H65.0105C64.935 17.3307 64.8217 17.4791 64.6706 17.6249C64.5196 17.7708 64.3256 17.8919 64.0886 17.9882C63.8516 18.0846 63.5678 18.1327 63.2371 18.1327ZM63.491 17.1952C63.8139 17.1952 64.0899 17.1314 64.3191 17.0038C64.5509 16.8762 64.7266 16.7096 64.8464 16.5038C64.9688 16.2955 65.03 16.0729 65.03 15.8359V15.0624C64.9884 15.1041 64.9076 15.1432 64.7878 15.1796C64.6706 15.2135 64.5365 15.2434 64.3855 15.2695C64.2345 15.2929 64.0873 15.315 63.9441 15.3359C63.8009 15.3541 63.6811 15.3697 63.5847 15.3827C63.3581 15.4114 63.1511 15.4596 62.9636 15.5273C62.7787 15.595 62.6303 15.6926 62.5183 15.8202C62.4089 15.9452 62.3542 16.1119 62.3542 16.3202C62.3542 16.6093 62.461 16.8281 62.6746 16.9765C62.8881 17.1223 63.1602 17.1952 63.491 17.1952ZM70.5544 11.9999V12.9374H67.2771V11.9999H70.5544ZM68.156 10.5624H69.324V16.2382C69.324 16.4648 69.3578 16.6354 69.4255 16.7499C69.4932 16.8619 69.5805 16.9387 69.6872 16.9804C69.7966 17.0195 69.9151 17.039 70.0427 17.039C70.1365 17.039 70.2185 17.0325 70.2888 17.0195C70.3591 17.0064 70.4138 16.996 70.4529 16.9882L70.6638 17.9531C70.5961 17.9791 70.4997 18.0051 70.3747 18.0312C70.2497 18.0598 70.0935 18.0755 69.906 18.0781C69.5987 18.0833 69.3122 18.0286 69.0466 17.914C68.781 17.7994 68.5662 17.6223 68.4021 17.3827C68.238 17.1432 68.156 16.8424 68.156 16.4804V10.5624ZM76.0583 17.9999L74.2927 11.9999H75.4997L76.6755 16.4062H76.7341L77.9138 11.9999H79.1208L80.2927 16.3867H80.3513L81.5193 11.9999H82.7263L80.9646 17.9999H79.7732L78.5544 13.6679H78.4646L77.2458 17.9999H76.0583ZM83.8347 17.9999V11.9999H85.0027V17.9999H83.8347ZM84.4245 11.0742C84.2214 11.0742 84.0469 11.0064 83.9011 10.871C83.7579 10.733 83.6863 10.5689 83.6863 10.3788C83.6863 10.1861 83.7579 10.0221 83.9011 9.88666C84.0469 9.74864 84.2214 9.67963 84.4245 9.67963C84.6277 9.67963 84.8009 9.74864 84.9441 9.88666C85.0899 10.0221 85.1628 10.1861 85.1628 10.3788C85.1628 10.5689 85.0899 10.733 84.9441 10.871C84.8009 11.0064 84.6277 11.0742 84.4245 11.0742ZM89.3747 11.9999V12.9374H86.0974V11.9999H89.3747ZM86.9763 10.5624H88.1443V16.2382C88.1443 16.4648 88.1781 16.6354 88.2458 16.7499C88.3135 16.8619 88.4008 16.9387 88.5076 16.9804C88.6169 17.0195 88.7354 17.039 88.863 17.039C88.9568 17.039 89.0388 17.0325 89.1091 17.0195C89.1794 17.0064 89.2341 16.996 89.2732 16.9882L89.4841 17.9531C89.4164 17.9791 89.3201 18.0051 89.1951 18.0312C89.0701 18.0598 88.9138 18.0755 88.7263 18.0781C88.419 18.0833 88.1326 18.0286 87.8669 17.914C87.6013 17.7994 87.3865 17.6223 87.2224 17.3827C87.0583 17.1432 86.9763 16.8424 86.9763 16.4804V10.5624ZM91.9636 14.4374V17.9999H90.7956V9.99994H91.948V12.9765H92.0222C92.1628 12.6536 92.3777 12.3971 92.6667 12.207C92.9558 12.0169 93.3334 11.9218 93.7995 11.9218C94.211 11.9218 94.5704 12.0064 94.8777 12.1757C95.1876 12.345 95.4272 12.5976 95.5964 12.9335C95.7683 13.2669 95.8542 13.6835 95.8542 14.1835V17.9999H94.6863V14.3242C94.6863 13.8841 94.573 13.5429 94.3464 13.3007C94.1199 13.0559 93.8048 12.9335 93.4011 12.9335C93.1251 12.9335 92.8777 12.9921 92.6589 13.1093C92.4428 13.2265 92.2722 13.3984 92.1472 13.6249C92.0248 13.8489 91.9636 14.1197 91.9636 14.4374ZM100.324 17.9999V11.9999H101.445V12.9765H101.519C101.644 12.6458 101.849 12.388 102.133 12.2031C102.416 12.0156 102.756 11.9218 103.152 11.9218C103.553 11.9218 103.889 12.0156 104.16 12.2031C104.433 12.3906 104.635 12.6484 104.765 12.9765H104.828C104.971 12.6562 105.199 12.401 105.511 12.2109C105.824 12.0182 106.196 11.9218 106.629 11.9218C107.173 11.9218 107.617 12.0924 107.961 12.4335C108.307 12.7747 108.48 13.289 108.48 13.9765V17.9999H107.312V14.0859C107.312 13.6796 107.202 13.3854 106.98 13.2031C106.759 13.0208 106.495 12.9296 106.187 12.9296C105.807 12.9296 105.511 13.0468 105.301 13.2812C105.09 13.513 104.984 13.8111 104.984 14.1757V17.9999H103.82V14.0117C103.82 13.6861 103.718 13.4244 103.515 13.2265C103.312 13.0286 103.048 12.9296 102.722 12.9296C102.501 12.9296 102.297 12.9882 102.109 13.1054C101.924 13.22 101.774 13.3801 101.66 13.5859C101.548 13.7916 101.492 14.0299 101.492 14.3007V17.9999H100.324ZM112.632 18.121C112.04 18.121 111.531 17.9947 111.104 17.7421C110.68 17.4869 110.352 17.1288 110.12 16.6679C109.891 16.2044 109.776 15.6614 109.776 15.039C109.776 14.4244 109.891 13.8827 110.12 13.414C110.352 12.9452 110.675 12.5794 111.089 12.3163C111.505 12.0533 111.992 11.9218 112.55 11.9218C112.888 11.9218 113.216 11.9778 113.534 12.0898C113.852 12.2018 114.137 12.3775 114.389 12.6171C114.642 12.8567 114.841 13.1679 114.987 13.5507C115.133 13.9309 115.206 14.3932 115.206 14.9374V15.3515H110.436V14.4765H114.061C114.061 14.1692 113.999 13.8971 113.874 13.6601C113.749 13.4205 113.573 13.2317 113.346 13.0937C113.122 12.9557 112.859 12.8867 112.557 12.8867C112.229 12.8867 111.943 12.9674 111.698 13.1288C111.456 13.2877 111.268 13.496 111.135 13.7538C111.005 14.0091 110.94 14.2864 110.94 14.5859V15.2695C110.94 15.6705 111.01 16.0117 111.151 16.2929C111.294 16.5742 111.494 16.789 111.749 16.9374C112.004 17.0833 112.302 17.1562 112.643 17.1562C112.865 17.1562 113.066 17.1249 113.249 17.0624C113.431 16.9973 113.589 16.901 113.721 16.7734C113.854 16.6458 113.956 16.4882 114.026 16.3007L115.132 16.4999C115.043 16.8255 114.884 17.1106 114.655 17.3554C114.428 17.5976 114.143 17.7864 113.8 17.9218C113.458 18.0546 113.069 18.121 112.632 18.121ZM121.94 18.121C121.378 18.121 120.887 17.9921 120.468 17.7343C120.048 17.4765 119.723 17.1158 119.491 16.6523C119.259 16.1887 119.143 15.6471 119.143 15.0273C119.143 14.4049 119.259 13.8606 119.491 13.3945C119.723 12.9283 120.048 12.5663 120.468 12.3085C120.887 12.0507 121.378 11.9218 121.94 11.9218C122.503 11.9218 122.994 12.0507 123.413 12.3085C123.832 12.5663 124.158 12.9283 124.389 13.3945C124.621 13.8606 124.737 14.4049 124.737 15.0273C124.737 15.6471 124.621 16.1887 124.389 16.6523C124.158 17.1158 123.832 17.4765 123.413 17.7343C122.994 17.9921 122.503 18.121 121.94 18.121ZM121.944 17.1406C122.309 17.1406 122.611 17.0442 122.85 16.8515C123.09 16.6588 123.267 16.4023 123.382 16.082C123.499 15.7617 123.557 15.4088 123.557 15.0234C123.557 14.6406 123.499 14.289 123.382 13.9687C123.267 13.6458 123.09 13.3867 122.85 13.1913C122.611 12.996 122.309 12.8984 121.944 12.8984C121.577 12.8984 121.272 12.996 121.03 13.1913C120.79 13.3867 120.612 13.6458 120.495 13.9687C120.38 14.289 120.323 14.6406 120.323 15.0234C120.323 15.4088 120.38 15.7617 120.495 16.082C120.612 16.4023 120.79 16.6588 121.03 16.8515C121.272 17.0442 121.577 17.1406 121.944 17.1406ZM127.209 14.4374V17.9999H126.041V11.9999H127.162V12.9765H127.236C127.374 12.6588 127.59 12.4036 127.884 12.2109C128.181 12.0182 128.555 11.9218 129.006 11.9218C129.414 11.9218 129.773 12.0078 130.08 12.1796C130.387 12.3489 130.625 12.6015 130.795 12.9374C130.964 13.2734 131.049 13.6887 131.049 14.1835V17.9999H129.881V14.3242C129.881 13.8893 129.767 13.5494 129.541 13.3046C129.314 13.0572 129.003 12.9335 128.607 12.9335C128.336 12.9335 128.095 12.9921 127.884 13.1093C127.676 13.2265 127.511 13.3984 127.388 13.6249C127.269 13.8489 127.209 14.1197 127.209 14.4374Z" fill="#E8E8E8"/>
<path d="M49.8861 30.9999H46.6603V22.2727H49.8819C50.7711 22.2727 51.5367 22.4474 52.1787 22.7968C52.8236 23.1434 53.3208 23.6434 53.6702 24.2968C54.0196 24.9474 54.1944 25.7258 54.1944 26.632C54.1944 27.5411 54.0196 28.3224 53.6702 28.9758C53.3236 29.6292 52.8279 30.1306 52.183 30.48C51.5381 30.8266 50.7725 30.9999 49.8861 30.9999ZM48.7696 29.2016H49.8052C50.2938 29.2016 50.7071 29.1193 51.0452 28.9545C51.3861 28.7869 51.6432 28.5156 51.8165 28.1406C51.9927 27.7627 52.0807 27.2599 52.0807 26.632C52.0807 26.0042 51.9927 25.5042 51.8165 25.132C51.6404 24.757 51.3804 24.4872 51.0367 24.3224C50.6958 24.1548 50.2753 24.071 49.7753 24.071H48.7696V29.2016ZM55.4259 30.9999V24.4545H57.5097V30.9999H55.4259ZM56.4699 23.6917C56.1773 23.6917 55.9259 23.5951 55.7157 23.4019C55.5054 23.2059 55.4003 22.9701 55.4003 22.6945C55.4003 22.4218 55.5054 22.1889 55.7157 21.9957C55.9259 21.7997 56.1773 21.7016 56.4699 21.7016C56.7654 21.7016 57.0168 21.7997 57.2242 21.9957C57.4344 22.1889 57.5395 22.4218 57.5395 22.6945C57.5395 22.9701 57.4344 23.2059 57.2242 23.4019C57.0168 23.5951 56.7654 23.6917 56.4699 23.6917ZM64.5505 26.4531L62.6372 26.5042C62.6173 26.3678 62.5633 26.2471 62.4752 26.142C62.3872 26.034 62.2721 25.9502 62.1301 25.8906C61.9909 25.8281 61.8289 25.7968 61.6443 25.7968C61.4028 25.7968 61.1968 25.8451 61.0264 25.9417C60.8588 26.0383 60.7764 26.169 60.7792 26.3337C60.7764 26.4616 60.8275 26.5724 60.9326 26.6661C61.0406 26.7599 61.2324 26.8352 61.5079 26.892L62.7693 27.1306C63.4227 27.2556 63.9085 27.463 64.2267 27.7528C64.5477 28.0426 64.7096 28.4261 64.7125 28.9033C64.7096 29.3522 64.5761 29.7428 64.3119 30.0752C64.0505 30.4076 63.6926 30.6661 63.238 30.8508C62.7835 31.0326 62.2636 31.1235 61.6784 31.1235C60.7437 31.1235 60.0065 30.9318 59.4667 30.5482C58.9298 30.1619 58.623 29.6448 58.5463 28.9971L60.6045 28.946C60.65 29.1846 60.7679 29.3664 60.9582 29.4914C61.1485 29.6164 61.3914 29.6789 61.6869 29.6789C61.9539 29.6789 62.1713 29.6292 62.3389 29.5298C62.5065 29.4303 62.5917 29.2982 62.5946 29.1335C62.5917 28.9857 62.5264 28.8678 62.3985 28.7798C62.2707 28.6889 62.0704 28.6178 61.7977 28.5667L60.6556 28.3494C59.9994 28.2301 59.5108 28.0099 59.1897 27.6889C58.8687 27.365 58.7096 26.9531 58.7125 26.4531C58.7096 26.0156 58.8261 25.642 59.0619 25.3323C59.2977 25.0198 59.6329 24.7812 60.0676 24.6164C60.5022 24.4516 61.015 24.3693 61.6059 24.3693C62.4923 24.3693 63.1912 24.5553 63.7025 24.9275C64.2139 25.2968 64.4966 25.8053 64.5505 26.4531ZM68.7938 31.1235C68.1034 31.1235 67.5111 30.9815 67.0168 30.6974C66.5253 30.4133 66.1475 30.0184 65.8833 29.5127C65.6191 29.0042 65.487 28.4161 65.487 27.7485C65.487 27.0781 65.6191 26.49 65.8833 25.9843C66.1503 25.4758 66.5296 25.0795 67.0211 24.7954C67.5154 24.5113 68.1049 24.3693 68.7895 24.3693C69.3946 24.3693 69.9216 24.4786 70.3705 24.6974C70.8222 24.9161 71.1745 25.2258 71.4273 25.6264C71.683 26.0241 71.8179 26.4914 71.8321 27.0283H69.8847C69.8449 26.6931 69.7313 26.4303 69.5438 26.24C69.3591 26.0497 69.1176 25.9545 68.8194 25.9545C68.5779 25.9545 68.3662 26.0227 68.1844 26.159C68.0026 26.2926 67.8605 26.4914 67.7583 26.7556C67.6588 27.017 67.6091 27.3408 67.6091 27.7272C67.6091 28.1136 67.6588 28.4403 67.7583 28.7073C67.8605 28.9715 68.0026 29.1718 68.1844 29.3082C68.3662 29.4417 68.5779 29.5085 68.8194 29.5085C69.0125 29.5085 69.183 29.4673 69.3307 29.3849C69.4813 29.3025 69.6049 29.1818 69.7015 29.0227C69.798 28.8607 69.8591 28.6647 69.8847 28.4346H71.8321C71.8122 28.9744 71.6773 29.446 71.4273 29.8494C71.1801 30.2528 70.8321 30.5667 70.3833 30.7911C69.9372 31.0127 69.4074 31.1235 68.7938 31.1235ZM75.9539 31.1235C75.2664 31.1235 74.6755 30.9829 74.1812 30.7016C73.6897 30.4175 73.3105 30.0227 73.0434 29.517C72.7792 29.0085 72.6471 28.419 72.6471 27.7485C72.6471 27.0752 72.7792 26.4857 73.0434 25.9801C73.3105 25.4715 73.6897 25.0766 74.1812 24.7954C74.6755 24.5113 75.2664 24.3693 75.9539 24.3693C76.6414 24.3693 77.2309 24.5113 77.7224 24.7954C78.2167 25.0766 78.596 25.4715 78.8602 25.9801C79.1272 26.4857 79.2608 27.0752 79.2608 27.7485C79.2608 28.419 79.1272 29.0085 78.8602 29.517C78.596 30.0227 78.2167 30.4175 77.7224 30.7016C77.2309 30.9829 76.6414 31.1235 75.9539 31.1235ZM75.9667 29.5511C76.2167 29.5511 76.4284 29.4744 76.6017 29.321C76.775 29.1675 76.9071 28.9545 76.998 28.6818C77.0917 28.409 77.1386 28.0937 77.1386 27.7357C77.1386 27.3721 77.0917 27.0539 76.998 26.7812C76.9071 26.5085 76.775 26.2954 76.6017 26.142C76.4284 25.9886 76.2167 25.9119 75.9667 25.9119C75.7082 25.9119 75.4894 25.9886 75.3105 26.142C75.1343 26.2954 74.9994 26.5085 74.9056 26.7812C74.8147 27.0539 74.7693 27.3721 74.7693 27.7357C74.7693 28.0937 74.8147 28.409 74.9056 28.6818C74.9994 28.9545 75.1343 29.1675 75.3105 29.321C75.4894 29.4744 75.7082 29.5511 75.9667 29.5511ZM80.3282 30.9999V24.4545H82.3524V25.6477H82.4206C82.5399 25.2158 82.7345 24.8948 83.0044 24.6846C83.2742 24.4715 83.5882 24.365 83.9461 24.365C84.0427 24.365 84.1421 24.3721 84.2444 24.3863C84.3467 24.3977 84.4419 24.4161 84.5299 24.4417V26.2528C84.4305 26.2187 84.2998 26.1917 84.1379 26.1718C83.9788 26.1519 83.8367 26.142 83.7117 26.142C83.4646 26.142 83.2416 26.1974 83.0427 26.3082C82.8467 26.4161 82.6919 26.5681 82.5782 26.7641C82.4674 26.9573 82.412 27.1846 82.412 27.446V30.9999H80.3282ZM87.4298 31.0937C86.9468 31.0937 86.5079 30.9687 86.113 30.7187C85.7181 30.4687 85.4028 30.0937 85.167 29.5937C84.9312 29.0937 84.8133 28.4729 84.8133 27.7315C84.8133 26.9616 84.9355 26.3281 85.1798 25.8309C85.4241 25.3337 85.7437 24.9658 86.1386 24.7272C86.5363 24.4886 86.9639 24.3693 87.4213 24.3693C87.765 24.3693 88.059 24.4289 88.3034 24.5482C88.5477 24.6647 88.7494 24.8153 88.9085 24.9999C89.0676 25.1846 89.1883 25.3764 89.2707 25.5752H89.3133V22.2727H91.3971V30.9999H89.3346V29.9389H89.2707C89.1826 30.1406 89.0576 30.3295 88.8957 30.5056C88.7338 30.6818 88.5306 30.8238 88.2863 30.9318C88.0448 31.0397 87.7593 31.0937 87.4298 31.0937ZM88.1542 29.4701C88.4071 29.4701 88.623 29.3991 88.8019 29.257C88.9809 29.1122 89.1187 28.909 89.2153 28.6477C89.3119 28.3863 89.3602 28.0795 89.3602 27.7272C89.3602 27.3693 89.3119 27.061 89.2153 26.8025C89.1215 26.544 88.9838 26.3451 88.8019 26.2059C88.623 26.0667 88.4071 25.9971 88.1542 25.9971C87.8957 25.9971 87.6769 26.0681 87.498 26.2102C87.319 26.3522 87.1826 26.5525 87.0889 26.811C86.998 27.0695 86.9525 27.3749 86.9525 27.7272C86.9525 28.0795 86.9994 28.3863 87.0931 28.6477C87.1869 28.909 87.3218 29.1122 87.498 29.257C87.6769 29.3991 87.8957 29.4701 88.1542 29.4701Z" fill="#5865F2"/>
</g>
<rect x="0.749756" y="0.749939" width="140.5" height="38.5" rx="5.25" stroke="white" stroke-opacity="0.15" stroke-width="1.5"/>
<defs>
<filter id="filter0_d_28_787" x="5.99976" y="1.99994" width="36" height="36" filterUnits="userSpaceOnUse" color-interpolation-filters="sRGB">
<feFlood flood-opacity="0" result="BackgroundImageFix"/>
<feColorMatrix in="SourceAlpha" type="matrix" values="0 0 0 0 0 0 0 0 0 0 0 0 0 0 0 0 0 0 127 0" result="hardAlpha"/>
<feOffset/>
<feGaussianBlur stdDeviation="2"/>
<feComposite in2="hardAlpha" operator="out"/>
<feColorMatrix type="matrix" values="0 0 0 0 0 0 0 0 0 0 0 0 0 0 0 0 0 0 0.25 0"/>
<feBlend mode="normal" in2="BackgroundImageFix" result="effect1_dropShadow_28_787"/>
<feBlend mode="normal" in="SourceGraphic" in2="effect1_dropShadow_28_787" result="shape"/>
</filter>
<filter id="filter1_d_28_787" x="41.9998" y="2.99994" width="94" height="34" filterUnits="userSpaceOnUse" color-interpolation-filters="sRGB">
<feFlood flood-opacity="0" result="BackgroundImageFix"/>
<feColorMatrix in="SourceAlpha" type="matrix" values="0 0 0 0 0 0 0 0 0 0 0 0 0 0 0 0 0 0 127 0" result="hardAlpha"/>
<feOffset/>
<feGaussianBlur stdDeviation="2"/>
<feComposite in2="hardAlpha" operator="out"/>
<feColorMatrix type="matrix" values="0 0 0 0 0 0 0 0 0 0 0 0 0 0 0 0 0 0 0.25 0"/>
<feBlend mode="normal" in2="BackgroundImageFix" result="effect1_dropShadow_28_787"/>
<feBlend mode="normal" in="SourceGraphic" in2="effect1_dropShadow_28_787" result="shape"/>
</filter>
<linearGradient id="paint0_linear_28_787" x1="70.9997" y1="-6.10351e-05" x2="70.9997" y2="39.9999" gradientUnits="userSpaceOnUse">
<stop stop-color="#151730"/>
<stop offset="1" stop-color="#0D0E1E"/>
</linearGradient>
</defs>
</svg>
