<svg width="196" height="56" viewBox="0 0 196 56" fill="none" xmlns="http://www.w3.org/2000/svg">
<rect x="-0.000366211" y="-0.000244141" width="196" height="56" rx="8" fill="url(#paint0_linear_2_688)"/>
<g filter="url(#filter0_d_2_688)">
<path d="M51.9998 21.0643H40.8606L37.5695 10.8571H44.4049L51.9998 21.0643Z" fill="#5DADEC"/>
<path d="M12 21.0643H23.1393L26.4304 10.8571H19.595L12 21.0643Z" fill="#BDDDF4"/>
<path d="M23.1393 21.0643H40.8608L37.5697 10.8571H26.4304L23.1393 21.0643Z" fill="#8CCAF7"/>
<path d="M40.8608 21.0643H23.1393L32 45.1428L40.8608 21.0643Z" fill="#5DADEC"/>
<path d="M32 45.1428L52 21.0643H40.8608L32 45.1428Z" fill="#4289C1"/>
<path d="M32 45.1428L12 21.0643H23.1392L32 45.1428Z" fill="#8CCAF7"/>
</g>
<g filter="url(#filter1_d_2_688)">
<path d="M74.9428 16.6475H73.1701C73.1019 16.2687 72.975 15.9354 72.7894 15.6475C72.6038 15.3596 72.3765 15.1153 72.1076 14.9145C71.8386 14.7138 71.5375 14.5623 71.2042 14.46C70.8746 14.3577 70.5243 14.3066 70.153 14.3066C69.4826 14.3066 68.8822 14.4751 68.3519 14.8123C67.8254 15.1494 67.4087 15.6437 67.1019 16.2952C66.7989 16.9467 66.6474 17.7422 66.6474 18.6816C66.6474 19.6285 66.7989 20.4278 67.1019 21.0793C67.4087 21.7308 67.8273 22.2232 68.3576 22.5566C68.8879 22.8899 69.4845 23.0566 70.1474 23.0566C70.5148 23.0566 70.8633 23.0073 71.1928 22.9088C71.5261 22.8066 71.8273 22.6569 72.0962 22.46C72.3652 22.263 72.5924 22.0225 72.778 21.7384C72.9674 21.4505 73.0981 21.121 73.1701 20.7498L74.9428 20.7554C74.8481 21.3274 74.6644 21.8539 74.3917 22.335C74.1227 22.8123 73.7761 23.2251 73.3519 23.5736C72.9314 23.9183 72.4504 24.1854 71.9087 24.3748C71.3671 24.5641 70.7761 24.6588 70.136 24.6588C69.1284 24.6588 68.2307 24.4202 67.4428 23.9429C66.6549 23.4619 66.0337 22.7744 65.5792 21.8804C65.1284 20.9865 64.903 19.9202 64.903 18.6816C64.903 17.4391 65.1303 16.3729 65.5849 15.4827C66.0394 14.5888 66.6606 13.9032 67.4485 13.4259C68.2364 12.9448 69.1322 12.7043 70.136 12.7043C70.7534 12.7043 71.3292 12.7933 71.8633 12.9713C72.4011 13.1456 72.8841 13.4032 73.3121 13.7441C73.7402 14.0812 74.0943 14.4941 74.3746 14.9827C74.6549 15.4676 74.8443 16.0225 74.9428 16.6475ZM78.6062 19.3179V24.4998H76.9073V12.8634H78.5834V17.1929H78.6914C78.8959 16.7232 79.2084 16.3501 79.6289 16.0736C80.0493 15.7971 80.5986 15.6588 81.2766 15.6588C81.8751 15.6588 82.3978 15.782 82.8448 16.0282C83.2956 16.2744 83.644 16.6418 83.8903 17.1304C84.1403 17.6153 84.2653 18.2213 84.2653 18.9486V24.4998H82.5664V19.1532C82.5664 18.513 82.4016 18.0168 82.0721 17.6645C81.7425 17.3085 81.2842 17.1304 80.6971 17.1304C80.2956 17.1304 79.9357 17.2157 79.6175 17.3861C79.3031 17.5566 79.055 17.8066 78.8732 18.1361C78.6952 18.4619 78.6062 18.8558 78.6062 19.3179ZM89.0721 24.6929C88.519 24.6929 88.019 24.5907 87.5721 24.3861C87.1251 24.1778 86.7709 23.8766 86.5096 23.4827C86.252 23.0888 86.1232 22.6058 86.1232 22.0338C86.1232 21.5414 86.2179 21.1361 86.4073 20.8179C86.5967 20.4998 86.8524 20.2479 87.1743 20.0623C87.4963 19.8766 87.8562 19.7365 88.2539 19.6418C88.6516 19.5471 89.0569 19.4751 89.4698 19.4259C89.9925 19.3653 90.4168 19.316 90.7425 19.2782C91.0683 19.2365 91.305 19.1702 91.4528 19.0793C91.6005 18.9884 91.6743 18.8407 91.6743 18.6361V18.5963C91.6743 18.1001 91.5342 17.7157 91.2539 17.4429C90.9774 17.1702 90.5645 17.0338 90.0153 17.0338C89.4433 17.0338 88.9925 17.1607 88.663 17.4145C88.3372 17.6645 88.1118 17.9429 87.9868 18.2498L86.3903 17.8861C86.5796 17.3558 86.8562 16.9278 87.2198 16.602C87.5872 16.2725 88.0096 16.0338 88.4868 15.8861C88.9641 15.7346 89.466 15.6588 89.9925 15.6588C90.341 15.6588 90.7103 15.7005 91.1005 15.7838C91.4944 15.8634 91.8618 16.0111 92.2028 16.227C92.5474 16.4429 92.8296 16.7516 93.0493 17.1532C93.269 17.5509 93.3789 18.0679 93.3789 18.7043V24.4998H91.7198V23.3066H91.6516C91.5418 23.5263 91.377 23.7422 91.1573 23.9543C90.9376 24.1664 90.6554 24.3426 90.3107 24.4827C89.966 24.6229 89.5531 24.6929 89.0721 24.6929ZM89.4414 23.3293C89.9111 23.3293 90.3126 23.2365 90.6459 23.0509C90.9831 22.8653 91.2387 22.6229 91.413 22.3236C91.591 22.0206 91.68 21.6967 91.68 21.352V20.227C91.6194 20.2876 91.502 20.3444 91.3278 20.3975C91.1573 20.4467 90.9622 20.4903 90.7425 20.5282C90.5228 20.5623 90.3088 20.5944 90.1005 20.6248C89.8921 20.6513 89.7179 20.674 89.5778 20.6929C89.2482 20.7346 88.9471 20.8047 88.6743 20.9032C88.4054 21.0016 88.1895 21.1437 88.0266 21.3293C87.8675 21.5111 87.788 21.7535 87.788 22.0566C87.788 22.477 87.9433 22.7952 88.2539 23.0111C88.5645 23.2232 88.9603 23.3293 89.4414 23.3293ZM99.7155 15.7725V17.1361H94.9485V15.7725H99.7155ZM96.2269 13.6816H97.9258V21.9373C97.9258 22.2668 97.975 22.5149 98.0735 22.6816C98.172 22.8444 98.2989 22.9562 98.4542 23.0168C98.6133 23.0736 98.7856 23.102 98.9712 23.102C99.1076 23.102 99.2269 23.0926 99.3292 23.0736C99.4314 23.0547 99.511 23.0395 99.5678 23.0282L99.8746 24.4316C99.7761 24.4694 99.636 24.5073 99.4542 24.5452C99.2724 24.5869 99.0451 24.6096 98.7724 24.6134C98.3254 24.621 97.9087 24.5414 97.5224 24.3748C97.136 24.2081 96.8235 23.9505 96.5849 23.602C96.3462 23.2535 96.2269 22.816 96.2269 22.2895V13.6816ZM107.721 24.4998L105.153 15.7725H106.909L108.619 22.1816H108.704L110.42 15.7725H112.176L113.88 22.1532H113.966L115.664 15.7725H117.42L114.858 24.4998H113.125L111.352 18.1986H111.221L109.448 24.4998H107.721ZM119.032 24.4998V15.7725H120.731V24.4998H119.032ZM119.89 14.4259C119.595 14.4259 119.341 14.3274 119.129 14.1304C118.921 13.9297 118.816 13.691 118.816 13.4145C118.816 13.1342 118.921 12.8956 119.129 12.6986C119.341 12.4979 119.595 12.3975 119.89 12.3975C120.186 12.3975 120.438 12.4979 120.646 12.6986C120.858 12.8956 120.964 13.1342 120.964 13.4145C120.964 13.691 120.858 13.9297 120.646 14.1304C120.438 14.3274 120.186 14.4259 119.89 14.4259ZM127.091 15.7725V17.1361H122.323V15.7725H127.091ZM123.602 13.6816H125.301V21.9373C125.301 22.2668 125.35 22.5149 125.448 22.6816C125.547 22.8444 125.674 22.9562 125.829 23.0168C125.988 23.0736 126.161 23.102 126.346 23.102C126.483 23.102 126.602 23.0926 126.704 23.0736C126.806 23.0547 126.886 23.0395 126.943 23.0282L127.25 24.4316C127.151 24.4694 127.011 24.5073 126.829 24.5452C126.647 24.5869 126.42 24.6096 126.147 24.6134C125.7 24.621 125.284 24.5414 124.897 24.3748C124.511 24.2081 124.198 23.9505 123.96 23.602C123.721 23.2535 123.602 22.816 123.602 22.2895V13.6816ZM130.856 19.3179V24.4998H129.157V12.8634H130.833V17.1929H130.941C131.146 16.7232 131.458 16.3501 131.879 16.0736C132.299 15.7971 132.849 15.6588 133.527 15.6588C134.125 15.6588 134.648 15.782 135.095 16.0282C135.546 16.2744 135.894 16.6418 136.14 17.1304C136.39 17.6153 136.515 18.2213 136.515 18.9486V24.4998H134.816V19.1532C134.816 18.513 134.652 18.0168 134.322 17.6645C133.993 17.3085 133.534 17.1304 132.947 17.1304C132.546 17.1304 132.186 17.2157 131.868 17.3861C131.553 17.5566 131.305 17.8066 131.123 18.1361C130.945 18.4619 130.856 18.8558 130.856 19.3179ZM148.545 20.8804V15.7725H150.25V24.4998H148.579V22.9884H148.488C148.287 23.4543 147.966 23.8426 147.522 24.1532C147.083 24.46 146.536 24.6134 145.88 24.6134C145.32 24.6134 144.823 24.4903 144.392 24.2441C143.964 23.9941 143.627 23.6248 143.38 23.1361C143.138 22.6475 143.017 22.0433 143.017 21.3236V15.7725H144.716V21.1191C144.716 21.7138 144.88 22.1873 145.21 22.5395C145.539 22.8918 145.967 23.0679 146.494 23.0679C146.812 23.0679 147.128 22.9884 147.443 22.8293C147.761 22.6702 148.024 22.4297 148.233 22.1077C148.445 21.7857 148.549 21.3766 148.545 20.8804ZM159.072 17.9032L157.532 18.1759C157.468 17.9789 157.366 17.7914 157.225 17.6134C157.089 17.4354 156.903 17.2895 156.669 17.1759C156.434 17.0623 156.14 17.0054 155.788 17.0054C155.307 17.0054 154.905 17.1134 154.583 17.3293C154.261 17.5414 154.1 17.816 154.1 18.1532C154.1 18.4448 154.208 18.6797 154.424 18.8577C154.64 19.0357 154.989 19.1816 155.47 19.2952L156.856 19.6134C157.659 19.799 158.258 20.085 158.652 20.4713C159.046 20.8577 159.243 21.3596 159.243 21.977C159.243 22.4998 159.091 22.9657 158.788 23.3748C158.489 23.7801 158.07 24.0982 157.532 24.3293C156.998 24.5604 156.379 24.6759 155.674 24.6759C154.697 24.6759 153.9 24.4676 153.282 24.0509C152.665 23.6304 152.286 23.0338 152.146 22.2611L153.788 22.0111C153.89 22.4391 154.1 22.763 154.419 22.9827C154.737 23.1986 155.152 23.3066 155.663 23.3066C156.22 23.3066 156.665 23.191 156.998 22.96C157.332 22.7251 157.498 22.4391 157.498 22.102C157.498 21.8293 157.396 21.6001 157.191 21.4145C156.991 21.2289 156.682 21.0888 156.265 20.9941L154.788 20.6702C153.974 20.4846 153.371 20.1891 152.981 19.7838C152.595 19.3785 152.402 18.8653 152.402 18.2441C152.402 17.7289 152.546 17.2782 152.833 16.8918C153.121 16.5054 153.519 16.2043 154.027 15.9884C154.534 15.7687 155.116 15.6588 155.771 15.6588C156.714 15.6588 157.457 15.8634 157.998 16.2725C158.54 16.6778 158.898 17.2213 159.072 17.9032ZM169.021 24.6759C168.203 24.6759 167.489 24.4884 166.879 24.1134C166.269 23.7384 165.796 23.2138 165.458 22.5395C165.121 21.8653 164.953 21.0774 164.953 20.1759C164.953 19.2706 165.121 18.4789 165.458 17.8009C165.796 17.1229 166.269 16.5963 166.879 16.2213C167.489 15.8463 168.203 15.6588 169.021 15.6588C169.839 15.6588 170.553 15.8463 171.163 16.2213C171.773 16.5963 172.246 17.1229 172.583 17.8009C172.921 18.4789 173.089 19.2706 173.089 20.1759C173.089 21.0774 172.921 21.8653 172.583 22.5395C172.246 23.2138 171.773 23.7384 171.163 24.1134C170.553 24.4884 169.839 24.6759 169.021 24.6759ZM169.027 23.2498C169.557 23.2498 169.996 23.1096 170.345 22.8293C170.693 22.549 170.951 22.1759 171.117 21.71C171.288 21.2441 171.373 20.7308 171.373 20.1702C171.373 19.6134 171.288 19.102 171.117 18.6361C170.951 18.1664 170.693 17.7895 170.345 17.5054C169.996 17.2213 169.557 17.0793 169.027 17.0793C168.493 17.0793 168.049 17.2213 167.697 17.5054C167.349 17.7895 167.089 18.1664 166.919 18.6361C166.752 19.102 166.669 19.6134 166.669 20.1702C166.669 20.7308 166.752 21.2441 166.919 21.71C167.089 22.1759 167.349 22.549 167.697 22.8293C168.049 23.1096 168.493 23.2498 169.027 23.2498ZM176.684 19.3179V24.4998H174.985V15.7725H176.616V17.1929H176.724C176.925 16.7308 177.239 16.3596 177.667 16.0793C178.099 15.799 178.643 15.6588 179.298 15.6588C179.893 15.6588 180.413 15.7838 180.86 16.0338C181.307 16.2801 181.654 16.6475 181.9 17.1361C182.146 17.6248 182.269 18.2289 182.269 18.9486V24.4998H180.571V19.1532C180.571 18.5206 180.406 18.0263 180.076 17.6702C179.747 17.3104 179.294 17.1304 178.718 17.1304C178.324 17.1304 177.974 17.2157 177.667 17.3861C177.364 17.5566 177.124 17.8066 176.946 18.1361C176.771 18.4619 176.684 18.8558 176.684 19.3179Z" fill="#E8E8E8"/>
<path d="M73.049 35.1748C72.9806 34.9213 72.88 34.6979 72.7471 34.5047C72.6143 34.3075 72.4513 34.1405 72.2582 34.0037C72.065 33.8668 71.8436 33.7642 71.5941 33.6958C71.3446 33.6233 71.0709 33.5871 70.7731 33.5871C70.1734 33.5871 69.6542 33.732 69.2155 34.0218C68.7809 34.3115 68.4448 34.7341 68.2074 35.2895C67.9699 35.8409 67.8512 36.511 67.8512 37.2998C67.8512 38.0927 67.9659 38.7688 68.1953 39.3282C68.4247 39.8877 68.7567 40.3143 69.1914 40.6081C69.6261 40.9019 70.1533 41.0488 70.7731 41.0488C71.3204 41.0488 71.7832 40.9602 72.1616 40.7831C72.5439 40.602 72.8337 40.3465 73.0309 40.0164C73.2281 39.6864 73.3267 39.298 73.3267 38.8513L73.8821 38.9177H70.8757V36.7384H76.2063V38.3744C76.2063 39.4812 75.9709 40.429 75.5 41.2178C75.0331 42.0066 74.3892 42.6123 73.5682 43.0349C72.7512 43.4575 71.8114 43.6688 70.7489 43.6688C69.5697 43.6688 68.5334 43.4132 67.6399 42.9021C66.7464 42.391 66.0502 41.6625 65.5511 40.7167C65.0521 39.7669 64.8025 38.64 64.8025 37.336C64.8025 36.3218 64.9535 35.4223 65.2553 34.6375C65.5572 33.8487 65.9777 33.1806 66.517 32.6333C67.0604 32.0859 67.6882 31.6714 68.4006 31.3897C69.1169 31.1079 69.8877 30.9671 70.7127 30.9671C71.4291 30.9671 72.0952 31.0697 72.7109 31.275C73.3307 31.4802 73.8781 31.77 74.353 32.1443C74.8319 32.5186 75.2203 32.9633 75.5181 33.4784C75.8159 33.9936 76.0011 34.5591 76.0735 35.1748H73.049ZM78.5486 43.4998V34.227H81.5007V43.4998H78.5486ZM80.0277 33.1464C79.6131 33.1464 79.257 33.0096 78.9591 32.7359C78.6613 32.4582 78.5124 32.1242 78.5124 31.7338C78.5124 31.3474 78.6613 31.0174 78.9591 30.7437C79.257 30.466 79.6131 30.3272 80.0277 30.3272C80.4462 30.3272 80.8024 30.466 81.0962 30.7437C81.394 31.0174 81.543 31.3474 81.543 31.7338C81.543 32.1242 81.394 32.4582 81.0962 32.7359C80.8024 33.0096 80.4462 33.1464 80.0277 33.1464ZM91.4752 37.0583L88.7646 37.1308C88.7365 36.9376 88.66 36.7666 88.5352 36.6177C88.4105 36.4647 88.2475 36.346 88.0462 36.2615C87.849 36.1729 87.6196 36.1287 87.358 36.1287C87.0159 36.1287 86.7241 36.1971 86.4827 36.3339C86.2452 36.4708 86.1285 36.6559 86.1325 36.8893C86.1285 37.0704 86.2009 37.2274 86.3499 37.3602C86.5028 37.493 86.7745 37.5997 87.1648 37.6802L88.9518 38.0182C89.8774 38.1953 90.5656 38.4891 91.0164 38.8996C91.4712 39.3101 91.7006 39.8534 91.7046 40.5296C91.7006 41.1655 91.5114 41.7189 91.1371 42.1897C90.7669 42.6606 90.2598 43.0269 89.6158 43.2885C88.9719 43.546 88.2354 43.6748 87.4063 43.6748C86.0822 43.6748 85.0378 43.4032 84.2732 42.8598C83.5125 42.3125 83.0778 41.58 82.9692 40.6624L85.885 40.59C85.9494 40.928 86.1164 41.1856 86.3861 41.3627C86.6557 41.5398 86.9998 41.6283 87.4184 41.6283C87.7967 41.6283 88.1046 41.5579 88.342 41.417C88.5795 41.2761 88.7002 41.089 88.7043 40.8556C88.7002 40.6463 88.6077 40.4793 88.4266 40.3545C88.2455 40.2257 87.9617 40.1251 87.5754 40.0527L85.9575 39.7448C85.0278 39.5757 84.3355 39.2638 83.8808 38.8091C83.426 38.3502 83.2006 37.7667 83.2046 37.0583C83.2006 36.4386 83.3656 35.9093 83.6996 35.4706C84.0337 35.0279 84.5086 34.6899 85.1244 34.4564C85.7401 34.223 86.4666 34.1063 87.3037 34.1063C88.5594 34.1063 89.5494 34.3699 90.2739 34.8971C90.9983 35.4203 91.3987 36.1407 91.4752 37.0583ZM97.4865 43.6748C96.5085 43.6748 95.6694 43.4736 94.9691 43.0711C94.2728 42.6687 93.7376 42.1092 93.3633 41.3929C92.989 40.6725 92.8018 39.8394 92.8018 38.8936C92.8018 37.9438 92.989 37.1107 93.3633 36.3943C93.7416 35.6739 94.2789 35.1124 94.9751 34.71C95.6754 34.3075 96.5105 34.1063 97.4804 34.1063C98.3377 34.1063 99.0843 34.2612 99.7201 34.5711C100.36 34.881 100.859 35.3197 101.217 35.8872C101.58 36.4506 101.771 37.1127 101.791 37.8733H99.0319C98.9756 37.3984 98.8146 37.0261 98.549 36.7565C98.2874 36.4869 97.9453 36.352 97.5227 36.352C97.1806 36.352 96.8808 36.4486 96.6232 36.6418C96.3656 36.831 96.1644 37.1127 96.0195 37.487C95.8786 37.8572 95.8082 38.316 95.8082 38.8634C95.8082 39.4107 95.8786 39.8736 96.0195 40.2519C96.1644 40.6262 96.3656 40.9099 96.6232 41.1031C96.8808 41.2922 97.1806 41.3868 97.5227 41.3868C97.7964 41.3868 98.0379 41.3285 98.2471 41.2118C98.4604 41.095 98.6355 40.924 98.7724 40.6986C98.9092 40.4692 98.9957 40.1915 99.0319 39.8655H101.791C101.763 40.6302 101.571 41.2983 101.217 41.8698C100.867 42.4413 100.374 42.886 99.7383 43.2039C99.1064 43.5179 98.3558 43.6748 97.4865 43.6748ZM109.284 39.4973V34.227H112.23V43.4998H109.417V41.7732H109.32C109.115 42.3407 108.765 42.7914 108.27 43.1255C107.779 43.4555 107.185 43.6205 106.489 43.6205C105.857 43.6205 105.302 43.4756 104.823 43.1858C104.344 42.8961 103.972 42.4916 103.706 41.9724C103.44 41.4492 103.306 40.8375 103.302 40.1372V34.227H106.254V39.5576C106.258 40.0607 106.39 40.4571 106.652 40.7469C106.914 41.0367 107.27 41.1816 107.721 41.1816C108.014 41.1816 108.278 41.1172 108.511 40.9884C108.749 40.8556 108.936 40.6644 109.073 40.4149C109.214 40.1613 109.284 39.8555 109.284 39.4973ZM122.205 37.0583L119.494 37.1308C119.466 36.9376 119.389 36.7666 119.265 36.6177C119.14 36.4647 118.977 36.346 118.776 36.2615C118.579 36.1729 118.349 36.1287 118.088 36.1287C117.745 36.1287 117.454 36.1971 117.212 36.3339C116.975 36.4708 116.858 36.6559 116.862 36.8893C116.858 37.0704 116.93 37.2274 117.079 37.3602C117.232 37.493 117.504 37.5997 117.894 37.6802L119.681 38.0182C120.607 38.1953 121.295 38.4891 121.746 38.8996C122.201 39.3101 122.43 39.8534 122.434 40.5296C122.43 41.1655 122.241 41.7189 121.867 42.1897C121.496 42.6606 120.989 43.0269 120.345 43.2885C119.701 43.546 118.965 43.6748 118.136 43.6748C116.812 43.6748 115.767 43.4032 115.003 42.8598C114.242 42.3125 113.807 41.58 113.699 40.6624L116.614 40.59C116.679 40.928 116.846 41.1856 117.116 41.3627C117.385 41.5398 117.729 41.6283 118.148 41.6283C118.526 41.6283 118.834 41.5579 119.072 41.417C119.309 41.2761 119.43 41.089 119.434 40.8556C119.43 40.6463 119.337 40.4793 119.156 40.3545C118.975 40.2257 118.691 40.1251 118.305 40.0527L116.687 39.7448C115.757 39.5757 115.065 39.2638 114.61 38.8091C114.155 38.3502 113.93 37.7667 113.934 37.0583C113.93 36.4386 114.095 35.9093 114.429 35.4706C114.763 35.0279 115.238 34.6899 115.854 34.4564C116.47 34.223 117.196 34.1063 118.033 34.1063C119.289 34.1063 120.279 34.3699 121.003 34.8971C121.728 35.4203 122.128 36.1407 122.205 37.0583Z" fill="#8CCAF7"/>
</g>
<rect x="1.04963" y="1.04976" width="193.9" height="53.9" rx="6.95" stroke="white" stroke-opacity="0.15" stroke-width="2.1"/>
<defs>
<filter id="filter0_d_2_688" x="6.28535" y="2.28547" width="51.4289" height="51.4286" filterUnits="userSpaceOnUse" color-interpolation-filters="sRGB">
<feFlood flood-opacity="0" result="BackgroundImageFix"/>
<feColorMatrix in="SourceAlpha" type="matrix" values="0 0 0 0 0 0 0 0 0 0 0 0 0 0 0 0 0 0 127 0" result="hardAlpha"/>
<feOffset/>
<feGaussianBlur stdDeviation="2.85714"/>
<feComposite in2="hardAlpha" operator="out"/>
<feColorMatrix type="matrix" values="0 0 0 0 0 0 0 0 0 0 0 0 0 0 0 0 0 0 0.25 0"/>
<feBlend mode="normal" in2="BackgroundImageFix" result="effect1_dropShadow_2_688"/>
<feBlend mode="normal" in="SourceGraphic" in2="effect1_dropShadow_2_688" result="shape"/>
</filter>
<filter id="filter1_d_2_688" x="58.3996" y="3.89976" width="131.2" height="48.2" filterUnits="userSpaceOnUse" color-interpolation-filters="sRGB">
<feFlood flood-opacity="0" result="BackgroundImageFix"/>
<feColorMatrix in="SourceAlpha" type="matrix" values="0 0 0 0 0 0 0 0 0 0 0 0 0 0 0 0 0 0 127 0" result="hardAlpha"/>
<feOffset/>
<feGaussianBlur stdDeviation="2.8"/>
<feComposite in2="hardAlpha" operator="out"/>
<feColorMatrix type="matrix" values="0 0 0 0 0 0 0 0 0 0 0 0 0 0 0 0 0 0 0.25 0"/>
<feBlend mode="normal" in2="BackgroundImageFix" result="effect1_dropShadow_2_688"/>
<feBlend mode="normal" in="SourceGraphic" in2="effect1_dropShadow_2_688" result="shape"/>
</filter>
<linearGradient id="paint0_linear_2_688" x1="97.9996" y1="-0.000244141" x2="97.9996" y2="55.9997" gradientUnits="userSpaceOnUse">
<stop stop-color="#242E35"/>
<stop offset="1" stop-color="#12202B"/>
</linearGradient>
</defs>
</svg>
