<svg width="142" height="40" viewBox="0 0 142 40" fill="none" xmlns="http://www.w3.org/2000/svg">
<rect x="-0.000244141" y="-0.00012207" width="142" height="40" rx="6" fill="url(#paint0_linear_3_839)"/>
<g filter="url(#filter0_d_3_839)">
<path d="M37.9999 15.145H30.2025L27.8987 8H32.6835L37.9999 15.145Z" fill="#5DADEC"/>
<path d="M10.0001 15.145H17.7975L20.1013 8H15.3165L10.0001 15.145Z" fill="#BDDDF4"/>
<path d="M17.7975 15.145H30.2025L27.8988 8H20.1013L17.7975 15.145Z" fill="#8CCAF7"/>
<path d="M30.2025 15.145H17.7975L24 32L30.2025 15.145Z" fill="#5DADEC"/>
<path d="M24 32L38 15.145H30.2025L24 32Z" fill="#4289C1"/>
<path d="M24 32L10 15.145H17.7975L24 32Z" fill="#8CCAF7"/>
</g>
<g filter="url(#filter1_d_3_839)">
<path d="M53.5232 12.6014H52.3044C52.2576 12.341 52.1703 12.1119 52.0427 11.9139C51.9151 11.716 51.7589 11.5481 51.574 11.41C51.3891 11.272 51.182 11.1678 50.9529 11.0975C50.7263 11.0272 50.4854 10.9921 50.2302 10.9921C49.7693 10.9921 49.3565 11.1079 48.9919 11.3397C48.63 11.5715 48.3435 11.9113 48.1326 12.3593C47.9242 12.8072 47.8201 13.354 47.8201 13.9999C47.8201 14.6509 47.9242 15.2004 48.1326 15.6483C48.3435 16.0962 48.6313 16.4348 48.9958 16.6639C49.3604 16.8931 49.7706 17.0077 50.2263 17.0077C50.4789 17.0077 50.7185 16.9738 50.9451 16.9061C51.1742 16.8358 51.3813 16.7329 51.5662 16.5975C51.7511 16.4621 51.9073 16.2968 52.0349 16.1014C52.1651 15.9035 52.255 15.677 52.3044 15.4218L53.5232 15.4257C53.4581 15.8189 53.3318 16.1809 53.1443 16.5116C52.9594 16.8397 52.7211 17.1236 52.4294 17.3632C52.1404 17.6001 51.8097 17.7837 51.4373 17.9139C51.0649 18.0441 50.6586 18.1092 50.2185 18.1092C49.5258 18.1092 48.9086 17.9452 48.3669 17.6171C47.8253 17.2863 47.3982 16.8137 47.0857 16.1991C46.7758 15.5845 46.6208 14.8514 46.6208 13.9999C46.6208 13.1457 46.7771 12.4126 47.0896 11.8007C47.4021 11.1861 47.8292 10.7147 48.3708 10.3866C48.9125 10.0559 49.5284 9.8905 50.2185 9.8905C50.643 9.8905 51.0388 9.9517 51.406 10.0741C51.7758 10.1939 52.1078 10.371 52.4021 10.6053C52.6964 10.8371 52.9399 11.121 53.1326 11.4569C53.3253 11.7902 53.4555 12.1718 53.5232 12.6014ZM56.0417 14.4374V17.9999H54.8738V9.99988H56.0261V12.9764H56.1003C56.241 12.6535 56.4558 12.397 56.7449 12.2069C57.0339 12.0168 57.4115 11.9218 57.8777 11.9218C58.2891 11.9218 58.6485 12.0064 58.9558 12.1757C59.2657 12.3449 59.5053 12.5975 59.6746 12.9335C59.8464 13.2668 59.9324 13.6835 59.9324 14.1835V17.9999H58.7644V14.3241C58.7644 13.884 58.6511 13.5428 58.4246 13.3007C58.198 13.0559 57.8829 12.9335 57.4792 12.9335C57.2032 12.9335 56.9558 12.9921 56.7371 13.1093C56.5209 13.2264 56.3503 13.3983 56.2253 13.6249C56.1029 13.8488 56.0417 14.1197 56.0417 14.4374ZM63.2371 18.1327C62.8568 18.1327 62.5131 18.0624 62.2058 17.9217C61.8985 17.7785 61.655 17.5715 61.4753 17.3007C61.2983 17.0298 61.2097 16.6978 61.2097 16.3046C61.2097 15.966 61.2748 15.6874 61.405 15.4686C61.5352 15.2499 61.711 15.0767 61.9324 14.9491C62.1537 14.8215 62.4011 14.7251 62.6746 14.66C62.948 14.5949 63.2266 14.5454 63.5105 14.5116C63.8699 14.4699 64.1615 14.4361 64.3855 14.41C64.6095 14.3814 64.7722 14.3358 64.8738 14.2733C64.9753 14.2108 65.0261 14.1093 65.0261 13.9686V13.9413C65.0261 13.6001 64.9298 13.3358 64.7371 13.1483C64.547 12.9608 64.2631 12.8671 63.8855 12.8671C63.4923 12.8671 63.1824 12.9543 62.9558 13.1288C62.7318 13.3007 62.5769 13.4921 62.491 13.703L61.3933 13.453C61.5235 13.0884 61.7136 12.7941 61.9636 12.5702C62.2162 12.3436 62.5066 12.1796 62.8347 12.078C63.1628 11.9738 63.5079 11.9218 63.8699 11.9218C64.1095 11.9218 64.3634 11.9504 64.6316 12.0077C64.9024 12.0624 65.155 12.1639 65.3894 12.3124C65.6264 12.4608 65.8204 12.6731 65.9714 12.9491C66.1225 13.2225 66.198 13.578 66.198 14.0155V17.9999H65.0574V17.1796H65.0105C64.935 17.3306 64.8217 17.479 64.6706 17.6249C64.5196 17.7707 64.3256 17.8918 64.0886 17.9882C63.8516 18.0845 63.5678 18.1327 63.2371 18.1327ZM63.491 17.1952C63.8139 17.1952 64.0899 17.1314 64.3191 17.0038C64.5509 16.8762 64.7266 16.7095 64.8464 16.5038C64.9688 16.2954 65.03 16.0728 65.03 15.8358V15.0624C64.9884 15.104 64.9076 15.1431 64.7878 15.1796C64.6706 15.2134 64.5365 15.2434 64.3855 15.2694C64.2345 15.2928 64.0873 15.315 63.9441 15.3358C63.8009 15.354 63.6811 15.3697 63.5847 15.3827C63.3581 15.4113 63.1511 15.4595 62.9636 15.5272C62.7787 15.5949 62.6303 15.6926 62.5183 15.8202C62.4089 15.9452 62.3542 16.1119 62.3542 16.3202C62.3542 16.6093 62.461 16.828 62.6746 16.9764C62.8881 17.1223 63.1602 17.1952 63.491 17.1952ZM70.5544 11.9999V12.9374H67.2771V11.9999H70.5544ZM68.156 10.5624H69.324V16.2382C69.324 16.4647 69.3578 16.6353 69.4255 16.7499C69.4932 16.8619 69.5805 16.9387 69.6872 16.9803C69.7966 17.0194 69.9151 17.0389 70.0427 17.0389C70.1365 17.0389 70.2185 17.0324 70.2888 17.0194C70.3591 17.0064 70.4138 16.996 70.4529 16.9882L70.6638 17.953C70.5961 17.979 70.4997 18.0051 70.3747 18.0311C70.2497 18.0598 70.0935 18.0754 69.906 18.078C69.5987 18.0832 69.3122 18.0285 69.0466 17.9139C68.781 17.7994 68.5662 17.6223 68.4021 17.3827C68.238 17.1431 68.156 16.8423 68.156 16.4803V10.5624ZM76.0583 17.9999L74.2927 11.9999H75.4997L76.6755 16.4061H76.7341L77.9138 11.9999H79.1208L80.2927 16.3866H80.3513L81.5193 11.9999H82.7263L80.9646 17.9999H79.7732L78.5544 13.6678H78.4646L77.2458 17.9999H76.0583ZM83.8347 17.9999V11.9999H85.0027V17.9999H83.8347ZM84.4245 11.0741C84.2214 11.0741 84.0469 11.0064 83.9011 10.871C83.7579 10.7329 83.6863 10.5689 83.6863 10.3788C83.6863 10.1861 83.7579 10.022 83.9011 9.8866C84.0469 9.74857 84.2214 9.67956 84.4245 9.67956C84.6277 9.67956 84.8009 9.74857 84.9441 9.8866C85.0899 10.022 85.1628 10.1861 85.1628 10.3788C85.1628 10.5689 85.0899 10.7329 84.9441 10.871C84.8009 11.0064 84.6277 11.0741 84.4245 11.0741ZM89.3747 11.9999V12.9374H86.0974V11.9999H89.3747ZM86.9763 10.5624H88.1443V16.2382C88.1443 16.4647 88.1781 16.6353 88.2458 16.7499C88.3135 16.8619 88.4008 16.9387 88.5076 16.9803C88.6169 17.0194 88.7354 17.0389 88.863 17.0389C88.9568 17.0389 89.0388 17.0324 89.1091 17.0194C89.1794 17.0064 89.2341 16.996 89.2732 16.9882L89.4841 17.953C89.4164 17.979 89.3201 18.0051 89.1951 18.0311C89.0701 18.0598 88.9138 18.0754 88.7263 18.078C88.419 18.0832 88.1326 18.0285 87.8669 17.9139C87.6013 17.7994 87.3865 17.6223 87.2224 17.3827C87.0583 17.1431 86.9763 16.8423 86.9763 16.4803V10.5624ZM91.9636 14.4374V17.9999H90.7956V9.99988H91.948V12.9764H92.0222C92.1628 12.6535 92.3777 12.397 92.6667 12.2069C92.9558 12.0168 93.3334 11.9218 93.7995 11.9218C94.211 11.9218 94.5704 12.0064 94.8777 12.1757C95.1876 12.3449 95.4272 12.5975 95.5964 12.9335C95.7683 13.2668 95.8542 13.6835 95.8542 14.1835V17.9999H94.6863V14.3241C94.6863 13.884 94.573 13.5428 94.3464 13.3007C94.1199 13.0559 93.8048 12.9335 93.4011 12.9335C93.1251 12.9335 92.8777 12.9921 92.6589 13.1093C92.4428 13.2264 92.2722 13.3983 92.1472 13.6249C92.0248 13.8488 91.9636 14.1197 91.9636 14.4374ZM100.324 17.9999V11.9999H101.445V12.9764H101.519C101.644 12.6457 101.849 12.3879 102.133 12.203C102.416 12.0155 102.756 11.9218 103.152 11.9218C103.553 11.9218 103.889 12.0155 104.16 12.203C104.433 12.3905 104.635 12.6483 104.765 12.9764H104.828C104.971 12.6561 105.199 12.4009 105.511 12.2108C105.824 12.0181 106.196 11.9218 106.629 11.9218C107.173 11.9218 107.617 12.0923 107.961 12.4335C108.307 12.7746 108.48 13.2889 108.48 13.9764V17.9999H107.312V14.0858C107.312 13.6796 107.202 13.3853 106.98 13.203C106.759 13.0207 106.495 12.9296 106.187 12.9296C105.807 12.9296 105.511 13.0468 105.301 13.2811C105.09 13.5129 104.984 13.8111 104.984 14.1757V17.9999H103.82V14.0116C103.82 13.6861 103.718 13.4244 103.515 13.2264C103.312 13.0285 103.048 12.9296 102.722 12.9296C102.501 12.9296 102.297 12.9882 102.109 13.1053C101.924 13.2199 101.774 13.3801 101.66 13.5858C101.548 13.7915 101.492 14.0298 101.492 14.3007V17.9999H100.324ZM112.632 18.121C112.04 18.121 111.531 17.9947 111.104 17.7421C110.68 17.4869 110.352 17.1288 110.12 16.6678C109.891 16.2043 109.776 15.6613 109.776 15.0389C109.776 14.4244 109.891 13.8827 110.12 13.4139C110.352 12.9452 110.675 12.5793 111.089 12.3163C111.505 12.0533 111.992 11.9218 112.55 11.9218C112.888 11.9218 113.216 11.9777 113.534 12.0897C113.852 12.2017 114.137 12.3775 114.389 12.6171C114.642 12.8566 114.841 13.1678 114.987 13.5507C115.133 13.9309 115.206 14.3931 115.206 14.9374V15.3514H110.436V14.4764H114.061C114.061 14.1691 113.999 13.897 113.874 13.66C113.749 13.4204 113.573 13.2316 113.346 13.0936C113.122 12.9556 112.859 12.8866 112.557 12.8866C112.229 12.8866 111.943 12.9673 111.698 13.1288C111.456 13.2876 111.268 13.496 111.135 13.7538C111.005 14.009 110.94 14.2863 110.94 14.5858V15.2694C110.94 15.6704 111.01 16.0116 111.151 16.2928C111.294 16.5741 111.494 16.7889 111.749 16.9374C112.004 17.0832 112.302 17.1561 112.643 17.1561C112.865 17.1561 113.066 17.1249 113.249 17.0624C113.431 16.9973 113.589 16.9009 113.721 16.7733C113.854 16.6457 113.956 16.4882 114.026 16.3007L115.132 16.4999C115.043 16.8254 114.884 17.1106 114.655 17.3553C114.428 17.5975 114.143 17.7863 113.8 17.9217C113.458 18.0546 113.069 18.121 112.632 18.121ZM121.94 18.121C121.378 18.121 120.887 17.9921 120.468 17.7342C120.048 17.4764 119.723 17.1158 119.491 16.6522C119.259 16.1887 119.143 15.647 119.143 15.0272C119.143 14.4048 119.259 13.8606 119.491 13.3944C119.723 12.9283 120.048 12.5663 120.468 12.3085C120.887 12.0507 121.378 11.9218 121.94 11.9218C122.503 11.9218 122.994 12.0507 123.413 12.3085C123.832 12.5663 124.158 12.9283 124.389 13.3944C124.621 13.8606 124.737 14.4048 124.737 15.0272C124.737 15.647 124.621 16.1887 124.389 16.6522C124.158 17.1158 123.832 17.4764 123.413 17.7342C122.994 17.9921 122.503 18.121 121.94 18.121ZM121.944 17.1405C122.309 17.1405 122.611 17.0441 122.85 16.8514C123.09 16.6587 123.267 16.4022 123.382 16.0819C123.499 15.7616 123.557 15.4087 123.557 15.0233C123.557 14.6405 123.499 14.2889 123.382 13.9686C123.267 13.6457 123.09 13.3866 122.85 13.1913C122.611 12.996 122.309 12.8983 121.944 12.8983C121.577 12.8983 121.272 12.996 121.03 13.1913C120.79 13.3866 120.612 13.6457 120.495 13.9686C120.38 14.2889 120.323 14.6405 120.323 15.0233C120.323 15.4087 120.38 15.7616 120.495 16.0819C120.612 16.4022 120.79 16.6587 121.03 16.8514C121.272 17.0441 121.577 17.1405 121.944 17.1405ZM127.209 14.4374V17.9999H126.041V11.9999H127.162V12.9764H127.236C127.374 12.6587 127.59 12.4035 127.884 12.2108C128.181 12.0181 128.555 11.9218 129.006 11.9218C129.414 11.9218 129.773 12.0077 130.08 12.1796C130.387 12.3488 130.625 12.6014 130.795 12.9374C130.964 13.2733 131.049 13.6887 131.049 14.1835V17.9999H129.881V14.3241C129.881 13.8892 129.767 13.5494 129.541 13.3046C129.314 13.0572 129.003 12.9335 128.607 12.9335C128.336 12.9335 128.095 12.9921 127.884 13.1093C127.676 13.2264 127.511 13.3983 127.388 13.6249C127.269 13.8488 127.209 14.1197 127.209 14.4374Z" fill="#E8E8E8"/>
<path d="M52.3875 25.1235C52.3392 24.9445 52.2682 24.7868 52.1745 24.6504C52.0807 24.5112 51.9657 24.3933 51.8293 24.2968C51.6929 24.2002 51.5367 24.1277 51.3605 24.0794C51.1844 24.0283 50.9912 24.0027 50.781 24.0027C50.3577 24.0027 49.9912 24.105 49.6816 24.3095C49.3748 24.5141 49.1375 24.8124 48.9699 25.2044C48.8023 25.5936 48.7185 26.0666 48.7185 26.6235C48.7185 27.1831 48.7995 27.6604 48.9614 28.0553C49.1233 28.4502 49.3577 28.7513 49.6645 28.9587C49.9713 29.1661 50.3435 29.2698 50.781 29.2698C51.1674 29.2698 51.4941 29.2073 51.7611 29.0823C52.031 28.9544 52.2355 28.774 52.3748 28.5411C52.514 28.3081 52.5836 28.034 52.5836 27.7186L52.9756 27.7655H50.8534V26.2271H54.6162V27.382C54.6162 28.1632 54.45 28.8323 54.1177 29.3891C53.7881 29.9459 53.3336 30.3735 52.754 30.6717C52.1773 30.97 51.514 31.1192 50.764 31.1192C49.9316 31.1192 49.2 30.9388 48.5694 30.578C47.9387 30.2172 47.4472 29.703 47.0949 29.0354C46.7427 28.3649 46.5665 27.5695 46.5665 26.649C46.5665 25.9331 46.6731 25.2982 46.8861 24.7442C47.0992 24.1874 47.3961 23.7158 47.7767 23.3294C48.1603 22.9431 48.6034 22.6504 49.1063 22.4516C49.612 22.2527 50.156 22.1533 50.7384 22.1533C51.2441 22.1533 51.7142 22.2257 52.1489 22.3706C52.5864 22.5155 52.9728 22.72 53.308 22.9843C53.6461 23.2485 53.9202 23.5624 54.1304 23.926C54.3407 24.2896 54.4713 24.6888 54.5225 25.1235H52.3875ZM56.2696 30.9999V24.4544H58.3534V30.9999H56.2696ZM57.3137 23.6916C57.0211 23.6916 56.7696 23.595 56.5594 23.4019C56.3492 23.2058 56.2441 22.97 56.2441 22.6945C56.2441 22.4218 56.3492 22.1888 56.5594 21.9956C56.7696 21.7996 57.0211 21.7016 57.3137 21.7016C57.6091 21.7016 57.8605 21.7996 58.0679 21.9956C58.2782 22.1888 58.3833 22.4218 58.3833 22.6945C58.3833 22.97 58.2782 23.2058 58.0679 23.4019C57.8605 23.595 57.6091 23.6916 57.3137 23.6916ZM65.3943 26.453L63.4809 26.5041C63.461 26.3678 63.4071 26.247 63.319 26.1419C63.2309 26.034 63.1159 25.9502 62.9738 25.8905C62.8346 25.828 62.6727 25.7968 62.488 25.7968C62.2466 25.7968 62.0406 25.845 61.8701 25.9416C61.7025 26.0382 61.6201 26.1689 61.623 26.3337C61.6201 26.4615 61.6713 26.5723 61.7764 26.6661C61.8843 26.7598 62.0761 26.8351 62.3517 26.8919L63.613 27.1306C64.2664 27.2556 64.7522 27.4629 65.0704 27.7527C65.3914 28.0425 65.5534 28.426 65.5562 28.9033C65.5534 29.3521 65.4198 29.7428 65.1556 30.0752C64.8943 30.4075 64.5363 30.6661 64.0818 30.8507C63.6272 31.0325 63.1074 31.1235 62.5221 31.1235C61.5875 31.1235 60.8502 30.9317 60.3105 30.5482C59.7735 30.1618 59.4667 29.6448 59.39 28.997L61.4483 28.9459C61.4937 29.1845 61.6116 29.3664 61.802 29.4914C61.9923 29.6164 62.2352 29.6789 62.5306 29.6789C62.7977 29.6789 63.015 29.6291 63.1826 29.5297C63.3502 29.4303 63.4355 29.2982 63.4383 29.1334C63.4355 28.9857 63.3701 28.8678 63.2423 28.7797C63.1145 28.6888 62.9142 28.6178 62.6414 28.5666L61.4994 28.3493C60.8431 28.23 60.3545 28.0098 60.0335 27.6888C59.7125 27.3649 59.5534 26.953 59.5562 26.453C59.5534 26.0155 59.6699 25.6419 59.9056 25.3323C60.1414 25.0198 60.4767 24.7811 60.9113 24.6164C61.346 24.4516 61.8588 24.3692 62.4497 24.3692C63.336 24.3692 64.0349 24.5553 64.5463 24.9274C65.0576 25.2968 65.3403 25.8053 65.3943 26.453ZM69.6375 31.1235C68.9472 31.1235 68.3549 30.9814 67.8605 30.6973C67.3691 30.4132 66.9912 30.0183 66.727 29.5127C66.4628 29.0041 66.3307 28.4161 66.3307 27.7485C66.3307 27.078 66.4628 26.4899 66.727 25.9843C66.9941 25.4757 67.3733 25.0794 67.8648 24.7953C68.3591 24.5112 68.9486 24.3692 69.6333 24.3692C70.2384 24.3692 70.7654 24.4786 71.2142 24.6973C71.6659 24.9161 72.0182 25.2257 72.2711 25.6263C72.5267 26.024 72.6617 26.4914 72.6759 27.0283H70.7284C70.6887 26.6931 70.575 26.4303 70.3875 26.2399C70.2029 26.0496 69.9614 25.9544 69.6631 25.9544C69.4216 25.9544 69.21 26.0226 69.0282 26.159C68.8463 26.2925 68.7043 26.4914 68.602 26.7556C68.5026 27.0169 68.4529 27.3408 68.4529 27.7271C68.4529 28.1135 68.5026 28.4402 68.602 28.7073C68.7043 28.9715 68.8463 29.1718 69.0282 29.3081C69.21 29.4416 69.4216 29.5084 69.6631 29.5084C69.8563 29.5084 70.0267 29.4672 70.1745 29.3848C70.325 29.3024 70.4486 29.1817 70.5452 29.0226C70.6418 28.8607 70.7029 28.6646 70.7284 28.4345H72.6759C72.656 28.9743 72.5211 29.4459 72.2711 29.8493C72.0239 30.2527 71.6759 30.5666 71.227 30.7911C70.781 31.0127 70.2512 31.1235 69.6375 31.1235ZM77.9653 28.1746V24.4544H80.0448V30.9999H78.0591V29.7811H77.9909C77.846 30.1817 77.5988 30.4999 77.2494 30.7357C76.9028 30.9686 76.4838 31.0851 75.9923 31.0851C75.5463 31.0851 75.1542 30.9828 74.8162 30.7783C74.4781 30.5737 74.2153 30.2882 74.0278 29.9217C73.8403 29.5524 73.7451 29.1206 73.7423 28.6263V24.4544H75.8261V28.2172C75.8289 28.5723 75.9227 28.8521 76.1073 29.0567C76.292 29.2612 76.5434 29.3635 76.8616 29.3635C77.069 29.3635 77.2551 29.3181 77.4198 29.2271C77.5875 29.1334 77.7196 28.9985 77.8162 28.8223C77.9156 28.6433 77.9653 28.4274 77.9653 28.1746ZM87.0857 26.453L85.1723 26.5041C85.1524 26.3678 85.0985 26.247 85.0104 26.1419C84.9223 26.034 84.8073 25.9502 84.6652 25.8905C84.526 25.828 84.3641 25.7968 84.1794 25.7968C83.938 25.7968 83.732 25.845 83.5615 25.9416C83.3939 26.0382 83.3115 26.1689 83.3144 26.3337C83.3115 26.4615 83.3627 26.5723 83.4678 26.6661C83.5757 26.7598 83.7675 26.8351 84.0431 26.8919L85.3044 27.1306C85.9578 27.2556 86.4436 27.4629 86.7618 27.7527C87.0828 28.0425 87.2448 28.426 87.2476 28.9033C87.2448 29.3521 87.1112 29.7428 86.847 30.0752C86.5857 30.4075 86.2277 30.6661 85.7732 30.8507C85.3186 31.0325 84.7988 31.1235 84.2135 31.1235C83.2789 31.1235 82.5416 30.9317 82.0019 30.5482C81.4649 30.1618 81.1581 29.6448 81.0814 28.997L83.1397 28.9459C83.1851 29.1845 83.303 29.3664 83.4934 29.4914C83.6837 29.6164 83.9266 29.6789 84.222 29.6789C84.4891 29.6789 84.7064 29.6291 84.874 29.5297C85.0416 29.4303 85.1269 29.2982 85.1297 29.1334C85.1269 28.9857 85.0615 28.8678 84.9337 28.7797C84.8059 28.6888 84.6056 28.6178 84.3328 28.5666L83.1908 28.3493C82.5345 28.23 82.0459 28.0098 81.7249 27.6888C81.4039 27.3649 81.2448 26.953 81.2476 26.453C81.2448 26.0155 81.3613 25.6419 81.597 25.3323C81.8328 25.0198 82.1681 24.7811 82.6027 24.6164C83.0374 24.4516 83.5502 24.3692 84.1411 24.3692C85.0274 24.3692 85.7263 24.5553 86.2377 24.9274C86.749 25.2968 87.0317 25.8053 87.0857 26.453Z" fill="#8CCAF7"/>
</g>
<rect x="0.749756" y="0.749878" width="140.5" height="38.5" rx="5.25" stroke="white" stroke-opacity="0.15" stroke-width="1.5"/>
<defs>
<filter id="filter0_d_3_839" x="5.99976" y="1.99988" width="36.0002" height="36" filterUnits="userSpaceOnUse" color-interpolation-filters="sRGB">
<feFlood flood-opacity="0" result="BackgroundImageFix"/>
<feColorMatrix in="SourceAlpha" type="matrix" values="0 0 0 0 0 0 0 0 0 0 0 0 0 0 0 0 0 0 127 0" result="hardAlpha"/>
<feOffset/>
<feGaussianBlur stdDeviation="2"/>
<feComposite in2="hardAlpha" operator="out"/>
<feColorMatrix type="matrix" values="0 0 0 0 0 0 0 0 0 0 0 0 0 0 0 0 0 0 0.25 0"/>
<feBlend mode="normal" in2="BackgroundImageFix" result="effect1_dropShadow_3_839"/>
<feBlend mode="normal" in="SourceGraphic" in2="effect1_dropShadow_3_839" result="shape"/>
</filter>
<filter id="filter1_d_3_839" x="41.9998" y="2.99988" width="94" height="34" filterUnits="userSpaceOnUse" color-interpolation-filters="sRGB">
<feFlood flood-opacity="0" result="BackgroundImageFix"/>
<feColorMatrix in="SourceAlpha" type="matrix" values="0 0 0 0 0 0 0 0 0 0 0 0 0 0 0 0 0 0 127 0" result="hardAlpha"/>
<feOffset/>
<feGaussianBlur stdDeviation="2"/>
<feComposite in2="hardAlpha" operator="out"/>
<feColorMatrix type="matrix" values="0 0 0 0 0 0 0 0 0 0 0 0 0 0 0 0 0 0 0.25 0"/>
<feBlend mode="normal" in2="BackgroundImageFix" result="effect1_dropShadow_3_839"/>
<feBlend mode="normal" in="SourceGraphic" in2="effect1_dropShadow_3_839" result="shape"/>
</filter>
<linearGradient id="paint0_linear_3_839" x1="70.9997" y1="-0.00012207" x2="70.9997" y2="39.9999" gradientUnits="userSpaceOnUse">
<stop stop-color="#242E35"/>
<stop offset="1" stop-color="#12202B"/>
</linearGradient>
</defs>
</svg>
