<svg width="197" height="56" viewBox="0 0 197 56" fill="none" xmlns="http://www.w3.org/2000/svg">
<rect x="-0.000366211" y="-0.000244141" width="197" height="56" rx="8" fill="url(#paint0_linear_3_839)"/>
<g filter="url(#filter0_d_3_839)">
<path d="M51.9998 21.0643H40.8606L37.5695 10.8571H44.4049L51.9998 21.0643Z" fill="#5DADEC"/>
<path d="M12 21.0643H23.1393L26.4304 10.8571H19.595L12 21.0643Z" fill="#BDDDF4"/>
<path d="M23.1393 21.0643H40.8608L37.5697 10.8571H26.4304L23.1393 21.0643Z" fill="#8CCAF7"/>
<path d="M40.8608 21.0643H23.1393L32 45.1428L40.8608 21.0643Z" fill="#5DADEC"/>
<path d="M32 45.1428L52 21.0643H40.8608L32 45.1428Z" fill="#4289C1"/>
<path d="M32 45.1428L12 21.0643H23.1392L32 45.1428Z" fill="#8CCAF7"/>
</g>
<g filter="url(#filter1_d_3_839)">
<path d="M70.9428 16.6475H69.1701C69.1019 16.2687 68.975 15.9354 68.7894 15.6475C68.6038 15.3596 68.3765 15.1153 68.1076 14.9145C67.8386 14.7138 67.5375 14.5623 67.2042 14.46C66.8746 14.3577 66.5243 14.3066 66.153 14.3066C65.4826 14.3066 64.8822 14.4751 64.3519 14.8123C63.8254 15.1494 63.4087 15.6437 63.1019 16.2952C62.7989 16.9467 62.6474 17.7422 62.6474 18.6816C62.6474 19.6285 62.7989 20.4278 63.1019 21.0793C63.4087 21.7308 63.8273 22.2232 64.3576 22.5566C64.8879 22.8899 65.4845 23.0566 66.1474 23.0566C66.5148 23.0566 66.8633 23.0073 67.1928 22.9088C67.5261 22.8066 67.8273 22.6569 68.0962 22.46C68.3652 22.263 68.5924 22.0225 68.778 21.7384C68.9674 21.4505 69.0981 21.121 69.1701 20.7498L70.9428 20.7554C70.8481 21.3274 70.6644 21.8539 70.3917 22.335C70.1227 22.8123 69.7761 23.2251 69.3519 23.5736C68.9314 23.9183 68.4504 24.1854 67.9087 24.3748C67.3671 24.5641 66.7761 24.6588 66.136 24.6588C65.1284 24.6588 64.2307 24.4202 63.4428 23.9429C62.6549 23.4619 62.0337 22.7744 61.5792 21.8804C61.1284 20.9865 60.903 19.9202 60.903 18.6816C60.903 17.4391 61.1303 16.3729 61.5849 15.4827C62.0394 14.5888 62.6606 13.9032 63.4485 13.4259C64.2364 12.9448 65.1322 12.7043 66.136 12.7043C66.7534 12.7043 67.3292 12.7933 67.8633 12.9713C68.4011 13.1456 68.8841 13.4032 69.3121 13.7441C69.7402 14.0812 70.0943 14.4941 70.3746 14.9827C70.6549 15.4676 70.8443 16.0225 70.9428 16.6475ZM74.6062 19.3179V24.4998H72.9073V12.8634H74.5834V17.1929H74.6914C74.8959 16.7232 75.2084 16.3501 75.6289 16.0736C76.0493 15.7971 76.5986 15.6588 77.2766 15.6588C77.8751 15.6588 78.3978 15.782 78.8448 16.0282C79.2956 16.2744 79.644 16.6418 79.8903 17.1304C80.1403 17.6153 80.2653 18.2213 80.2653 18.9486V24.4998H78.5664V19.1532C78.5664 18.513 78.4016 18.0168 78.0721 17.6645C77.7425 17.3085 77.2842 17.1304 76.6971 17.1304C76.2956 17.1304 75.9357 17.2157 75.6175 17.3861C75.3031 17.5566 75.055 17.8066 74.8732 18.1361C74.6952 18.4619 74.6062 18.8558 74.6062 19.3179ZM85.0721 24.6929C84.519 24.6929 84.019 24.5907 83.5721 24.3861C83.1251 24.1778 82.7709 23.8766 82.5096 23.4827C82.252 23.0888 82.1232 22.6058 82.1232 22.0338C82.1232 21.5414 82.2179 21.1361 82.4073 20.8179C82.5967 20.4998 82.8524 20.2479 83.1743 20.0623C83.4963 19.8766 83.8562 19.7365 84.2539 19.6418C84.6516 19.5471 85.0569 19.4751 85.4698 19.4259C85.9925 19.3653 86.4168 19.316 86.7425 19.2782C87.0683 19.2365 87.305 19.1702 87.4528 19.0793C87.6005 18.9884 87.6743 18.8407 87.6743 18.6361V18.5963C87.6743 18.1001 87.5342 17.7157 87.2539 17.4429C86.9774 17.1702 86.5645 17.0338 86.0153 17.0338C85.4433 17.0338 84.9925 17.1607 84.663 17.4145C84.3372 17.6645 84.1118 17.9429 83.9868 18.2498L82.3903 17.8861C82.5796 17.3558 82.8562 16.9278 83.2198 16.602C83.5872 16.2725 84.0096 16.0338 84.4868 15.8861C84.9641 15.7346 85.466 15.6588 85.9925 15.6588C86.341 15.6588 86.7103 15.7005 87.1005 15.7838C87.4944 15.8634 87.8618 16.0111 88.2028 16.227C88.5474 16.4429 88.8296 16.7516 89.0493 17.1532C89.269 17.5509 89.3789 18.0679 89.3789 18.7043V24.4998H87.7198V23.3066H87.6516C87.5418 23.5263 87.377 23.7422 87.1573 23.9543C86.9376 24.1664 86.6554 24.3426 86.3107 24.4827C85.966 24.6229 85.5531 24.6929 85.0721 24.6929ZM85.4414 23.3293C85.9111 23.3293 86.3126 23.2365 86.6459 23.0509C86.9831 22.8653 87.2387 22.6229 87.413 22.3236C87.591 22.0206 87.68 21.6967 87.68 21.352V20.227C87.6194 20.2876 87.502 20.3444 87.3278 20.3975C87.1573 20.4467 86.9622 20.4903 86.7425 20.5282C86.5228 20.5623 86.3088 20.5944 86.1005 20.6248C85.8921 20.6513 85.7179 20.674 85.5778 20.6929C85.2482 20.7346 84.9471 20.8047 84.6743 20.9032C84.4054 21.0016 84.1895 21.1437 84.0266 21.3293C83.8675 21.5111 83.788 21.7535 83.788 22.0566C83.788 22.477 83.9433 22.7952 84.2539 23.0111C84.5645 23.2232 84.9603 23.3293 85.4414 23.3293ZM95.7155 15.7725V17.1361H90.9485V15.7725H95.7155ZM92.2269 13.6816H93.9258V21.9373C93.9258 22.2668 93.975 22.5149 94.0735 22.6816C94.172 22.8444 94.2989 22.9562 94.4542 23.0168C94.6133 23.0736 94.7856 23.102 94.9712 23.102C95.1076 23.102 95.2269 23.0926 95.3292 23.0736C95.4314 23.0547 95.511 23.0395 95.5678 23.0282L95.8746 24.4316C95.7761 24.4694 95.636 24.5073 95.4542 24.5452C95.2724 24.5869 95.0451 24.6096 94.7724 24.6134C94.3254 24.621 93.9087 24.5414 93.5224 24.3748C93.136 24.2081 92.8235 23.9505 92.5849 23.602C92.3462 23.2535 92.2269 22.816 92.2269 22.2895V13.6816ZM103.721 24.4998L101.153 15.7725H102.909L104.619 22.1816H104.704L106.42 15.7725H108.176L109.88 22.1532H109.966L111.664 15.7725H113.42L110.858 24.4998H109.125L107.352 18.1986H107.221L105.448 24.4998H103.721ZM115.032 24.4998V15.7725H116.731V24.4998H115.032ZM115.89 14.4259C115.595 14.4259 115.341 14.3274 115.129 14.1304C114.921 13.9297 114.816 13.691 114.816 13.4145C114.816 13.1342 114.921 12.8956 115.129 12.6986C115.341 12.4979 115.595 12.3975 115.89 12.3975C116.186 12.3975 116.438 12.4979 116.646 12.6986C116.858 12.8956 116.964 13.1342 116.964 13.4145C116.964 13.691 116.858 13.9297 116.646 14.1304C116.438 14.3274 116.186 14.4259 115.89 14.4259ZM123.091 15.7725V17.1361H118.323V15.7725H123.091ZM119.602 13.6816H121.301V21.9373C121.301 22.2668 121.35 22.5149 121.448 22.6816C121.547 22.8444 121.674 22.9562 121.829 23.0168C121.988 23.0736 122.161 23.102 122.346 23.102C122.483 23.102 122.602 23.0926 122.704 23.0736C122.806 23.0547 122.886 23.0395 122.943 23.0282L123.25 24.4316C123.151 24.4694 123.011 24.5073 122.829 24.5452C122.647 24.5869 122.42 24.6096 122.147 24.6134C121.7 24.621 121.284 24.5414 120.897 24.3748C120.511 24.2081 120.198 23.9505 119.96 23.602C119.721 23.2535 119.602 22.816 119.602 22.2895V13.6816ZM126.856 19.3179V24.4998H125.157V12.8634H126.833V17.1929H126.941C127.146 16.7232 127.458 16.3501 127.879 16.0736C128.299 15.7971 128.849 15.6588 129.527 15.6588C130.125 15.6588 130.648 15.782 131.095 16.0282C131.546 16.2744 131.894 16.6418 132.14 17.1304C132.39 17.6153 132.515 18.2213 132.515 18.9486V24.4998H130.816V19.1532C130.816 18.513 130.652 18.0168 130.322 17.6645C129.993 17.3085 129.534 17.1304 128.947 17.1304C128.546 17.1304 128.186 17.2157 127.868 17.3861C127.553 17.5566 127.305 17.8066 127.123 18.1361C126.945 18.4619 126.856 18.8558 126.856 19.3179ZM139.017 24.4998V15.7725H140.647V17.1929H140.755C140.937 16.7119 141.234 16.3369 141.647 16.0679C142.06 15.7952 142.555 15.6588 143.13 15.6588C143.714 15.6588 144.202 15.7952 144.596 16.0679C144.994 16.3407 145.287 16.7157 145.477 17.1929H145.568C145.776 16.727 146.108 16.3558 146.562 16.0793C147.017 15.799 147.558 15.6588 148.187 15.6588C148.979 15.6588 149.625 15.907 150.125 16.4032C150.628 16.8994 150.88 17.6475 150.88 18.6475V24.4998H149.181V18.8066C149.181 18.2157 149.02 17.7876 148.698 17.5225C148.377 17.2573 147.992 17.1248 147.545 17.1248C146.992 17.1248 146.562 17.2952 146.255 17.6361C145.948 17.9732 145.795 18.407 145.795 18.9373V24.4998H144.102V18.6986C144.102 18.2251 143.954 17.8445 143.659 17.5566C143.363 17.2687 142.979 17.1248 142.505 17.1248C142.183 17.1248 141.886 17.21 141.613 17.3804C141.344 17.5471 141.127 17.7801 140.96 18.0793C140.797 18.3785 140.716 18.7251 140.716 19.1191V24.4998H139.017ZM156.919 24.6759C156.059 24.6759 155.318 24.4922 154.697 24.1248C154.08 23.7535 153.602 23.2327 153.265 22.5623C152.932 21.888 152.765 21.0982 152.765 20.1929C152.765 19.299 152.932 18.5111 153.265 17.8293C153.602 17.1475 154.072 16.6153 154.674 16.2327C155.28 15.8501 155.989 15.6588 156.799 15.6588C157.292 15.6588 157.769 15.7403 158.231 15.9032C158.693 16.066 159.108 16.3217 159.475 16.6702C159.843 17.0187 160.133 17.4713 160.345 18.0282C160.557 18.5812 160.663 19.2535 160.663 20.0452V20.6475H153.725V19.3748H158.998C158.998 18.9278 158.907 18.532 158.725 18.1873C158.544 17.8388 158.288 17.5641 157.958 17.3634C157.633 17.1626 157.25 17.0623 156.811 17.0623C156.333 17.0623 155.917 17.1797 155.561 17.4145C155.208 17.6456 154.936 17.9486 154.743 18.3236C154.553 18.6948 154.458 19.0982 154.458 19.5338V20.5282C154.458 21.1115 154.561 21.6077 154.765 22.0168C154.974 22.4259 155.263 22.7384 155.635 22.9543C156.006 23.1664 156.439 23.2725 156.936 23.2725C157.258 23.2725 157.551 23.227 157.816 23.1361C158.082 23.0414 158.311 22.9013 158.504 22.7157C158.697 22.5301 158.845 22.3009 158.947 22.0282L160.555 22.3179C160.426 22.7914 160.195 23.2062 159.862 23.5623C159.532 23.9145 159.118 24.1891 158.618 24.3861C158.121 24.5793 157.555 24.6759 156.919 24.6759ZM170.458 24.6759C169.64 24.6759 168.926 24.4884 168.316 24.1134C167.707 23.7384 167.233 23.2138 166.896 22.5395C166.559 21.8653 166.39 21.0774 166.39 20.1759C166.39 19.2706 166.559 18.4789 166.896 17.8009C167.233 17.1229 167.707 16.5963 168.316 16.2213C168.926 15.8463 169.64 15.6588 170.458 15.6588C171.277 15.6588 171.991 15.8463 172.6 16.2213C173.21 16.5963 173.684 17.1229 174.021 17.8009C174.358 18.4789 174.527 19.2706 174.527 20.1759C174.527 21.0774 174.358 21.8653 174.021 22.5395C173.684 23.2138 173.21 23.7384 172.6 24.1134C171.991 24.4884 171.277 24.6759 170.458 24.6759ZM170.464 23.2498C170.994 23.2498 171.434 23.1096 171.782 22.8293C172.131 22.549 172.388 22.1759 172.555 21.71C172.725 21.2441 172.811 20.7308 172.811 20.1702C172.811 19.6134 172.725 19.102 172.555 18.6361C172.388 18.1664 172.131 17.7895 171.782 17.5054C171.434 17.2213 170.994 17.0793 170.464 17.0793C169.93 17.0793 169.487 17.2213 169.135 17.5054C168.786 17.7895 168.527 18.1664 168.356 18.6361C168.189 19.102 168.106 19.6134 168.106 20.1702C168.106 20.7308 168.189 21.2441 168.356 21.71C168.527 22.1759 168.786 22.549 169.135 22.8293C169.487 23.1096 169.93 23.2498 170.464 23.2498ZM178.122 19.3179V24.4998H176.423V15.7725H178.054V17.1929H178.162C178.362 16.7308 178.677 16.3596 179.105 16.0793C179.537 15.799 180.08 15.6588 180.735 15.6588C181.33 15.6588 181.851 15.7838 182.298 16.0338C182.745 16.2801 183.091 16.6475 183.338 17.1361C183.584 17.6248 183.707 18.2289 183.707 18.9486V24.4998H182.008V19.1532C182.008 18.5206 181.843 18.0263 181.514 17.6702C181.184 17.3104 180.732 17.1304 180.156 17.1304C179.762 17.1304 179.412 17.2157 179.105 17.3861C178.802 17.5566 178.561 17.8066 178.383 18.1361C178.209 18.4619 178.122 18.8558 178.122 19.3179Z" fill="#E8E8E8"/>
<path d="M69.049 35.1748C68.9806 34.9213 68.88 34.6979 68.7471 34.5047C68.6143 34.3075 68.4513 34.1405 68.2582 34.0037C68.065 33.8668 67.8436 33.7642 67.5941 33.6958C67.3446 33.6233 67.0709 33.5871 66.7731 33.5871C66.1734 33.5871 65.6542 33.732 65.2155 34.0218C64.7809 34.3115 64.4448 34.7341 64.2074 35.2895C63.9699 35.8409 63.8512 36.511 63.8512 37.2998C63.8512 38.0927 63.9659 38.7688 64.1953 39.3282C64.4247 39.8877 64.7567 40.3143 65.1914 40.6081C65.6261 40.9019 66.1533 41.0488 66.7731 41.0488C67.3204 41.0488 67.7832 40.9602 68.1616 40.7831C68.5439 40.602 68.8337 40.3465 69.0309 40.0164C69.2281 39.6864 69.3267 39.298 69.3267 38.8513L69.8821 38.9177H66.8757V36.7384H72.2063V38.3744C72.2063 39.4812 71.9709 40.429 71.5 41.2178C71.0331 42.0066 70.3892 42.6123 69.5682 43.0349C68.7512 43.4575 67.8114 43.6688 66.7489 43.6688C65.5697 43.6688 64.5334 43.4132 63.6399 42.9021C62.7464 42.391 62.0502 41.6625 61.5511 40.7167C61.0521 39.7669 60.8025 38.64 60.8025 37.336C60.8025 36.3218 60.9535 35.4223 61.2553 34.6375C61.5572 33.8487 61.9777 33.1806 62.517 32.6333C63.0604 32.0859 63.6882 31.6714 64.4006 31.3897C65.1169 31.1079 65.8877 30.9671 66.7127 30.9671C67.4291 30.9671 68.0952 31.0697 68.7109 31.275C69.3307 31.4802 69.8781 31.77 70.353 32.1443C70.8319 32.5186 71.2203 32.9633 71.5181 33.4784C71.8159 33.9936 72.0011 34.5591 72.0735 35.1748H69.049ZM74.5486 43.4998V34.227H77.5007V43.4998H74.5486ZM76.0277 33.1464C75.6131 33.1464 75.257 33.0096 74.9591 32.7359C74.6613 32.4582 74.5124 32.1242 74.5124 31.7338C74.5124 31.3474 74.6613 31.0174 74.9591 30.7437C75.257 30.466 75.6131 30.3272 76.0277 30.3272C76.4462 30.3272 76.8024 30.466 77.0962 30.7437C77.394 31.0174 77.543 31.3474 77.543 31.7338C77.543 32.1242 77.394 32.4582 77.0962 32.7359C76.8024 33.0096 76.4462 33.1464 76.0277 33.1464ZM87.4752 37.0583L84.7646 37.1308C84.7365 36.9376 84.66 36.7666 84.5352 36.6177C84.4105 36.4647 84.2475 36.346 84.0462 36.2615C83.849 36.1729 83.6196 36.1287 83.358 36.1287C83.0159 36.1287 82.7241 36.1971 82.4827 36.3339C82.2452 36.4708 82.1285 36.6559 82.1325 36.8893C82.1285 37.0704 82.2009 37.2274 82.3499 37.3602C82.5028 37.493 82.7745 37.5997 83.1648 37.6802L84.9518 38.0182C85.8774 38.1953 86.5656 38.4891 87.0164 38.8996C87.4712 39.3101 87.7006 39.8534 87.7046 40.5296C87.7006 41.1655 87.5114 41.7189 87.1371 42.1897C86.7669 42.6606 86.2598 43.0269 85.6158 43.2885C84.9719 43.546 84.2354 43.6748 83.4063 43.6748C82.0822 43.6748 81.0378 43.4032 80.2732 42.8598C79.5125 42.3125 79.0778 41.58 78.9692 40.6624L81.885 40.59C81.9494 40.928 82.1164 41.1856 82.3861 41.3627C82.6557 41.5398 82.9998 41.6283 83.4184 41.6283C83.7967 41.6283 84.1046 41.5579 84.342 41.417C84.5795 41.2761 84.7002 41.089 84.7043 40.8556C84.7002 40.6463 84.6077 40.4793 84.4266 40.3545C84.2455 40.2257 83.9617 40.1251 83.5754 40.0527L81.9575 39.7448C81.0278 39.5757 80.3355 39.2638 79.8808 38.8091C79.426 38.3502 79.2006 37.7667 79.2046 37.0583C79.2006 36.4386 79.3656 35.9093 79.6996 35.4706C80.0337 35.0279 80.5086 34.6899 81.1244 34.4564C81.7401 34.223 82.4666 34.1063 83.3037 34.1063C84.5594 34.1063 85.5494 34.3699 86.2739 34.8971C86.9983 35.4203 87.3987 36.1407 87.4752 37.0583ZM93.4865 43.6748C92.5085 43.6748 91.6694 43.4736 90.9691 43.0711C90.2728 42.6687 89.7376 42.1092 89.3633 41.3929C88.989 40.6725 88.8018 39.8394 88.8018 38.8936C88.8018 37.9438 88.989 37.1107 89.3633 36.3943C89.7416 35.6739 90.2789 35.1124 90.9751 34.71C91.6754 34.3075 92.5105 34.1063 93.4804 34.1063C94.3377 34.1063 95.0843 34.2612 95.7201 34.5711C96.3601 34.881 96.8591 35.3197 97.2173 35.8872C97.5795 36.4506 97.7707 37.1127 97.7908 37.8733H95.0319C94.9756 37.3984 94.8146 37.0261 94.549 36.7565C94.2874 36.4869 93.9453 36.352 93.5227 36.352C93.1806 36.352 92.8808 36.4486 92.6232 36.6418C92.3656 36.831 92.1644 37.1127 92.0195 37.487C91.8786 37.8572 91.8082 38.316 91.8082 38.8634C91.8082 39.4107 91.8786 39.8736 92.0195 40.2519C92.1644 40.6262 92.3656 40.9099 92.6232 41.1031C92.8808 41.2922 93.1806 41.3868 93.5227 41.3868C93.7964 41.3868 94.0379 41.3285 94.2471 41.2118C94.4604 41.095 94.6355 40.924 94.7724 40.6986C94.9092 40.4692 94.9957 40.1915 95.0319 39.8655H97.7908C97.7626 40.6302 97.5715 41.2983 97.2173 41.8698C96.8672 42.4413 96.3741 42.886 95.7383 43.2039C95.1064 43.5179 94.3558 43.6748 93.4865 43.6748ZM105.284 39.4973V34.227H108.23V43.4998H105.417V41.7732H105.32C105.115 42.3407 104.765 42.7914 104.27 43.1255C103.779 43.4555 103.185 43.6205 102.489 43.6205C101.857 43.6205 101.302 43.4756 100.823 43.1858C100.344 42.8961 99.9717 42.4916 99.706 41.9724C99.4404 41.4492 99.3056 40.8375 99.3016 40.1372V34.227H102.254V39.5576C102.258 40.0607 102.39 40.4571 102.652 40.7469C102.914 41.0367 103.27 41.1816 103.721 41.1816C104.014 41.1816 104.278 41.1172 104.511 40.9884C104.749 40.8556 104.936 40.6644 105.073 40.4149C105.214 40.1613 105.284 39.8555 105.284 39.4973ZM118.205 37.0583L115.494 37.1308C115.466 36.9376 115.389 36.7666 115.265 36.6177C115.14 36.4647 114.977 36.346 114.776 36.2615C114.579 36.1729 114.349 36.1287 114.088 36.1287C113.745 36.1287 113.454 36.1971 113.212 36.3339C112.975 36.4708 112.858 36.6559 112.862 36.8893C112.858 37.0704 112.93 37.2274 113.079 37.3602C113.232 37.493 113.504 37.5997 113.894 37.6802L115.681 38.0182C116.607 38.1953 117.295 38.4891 117.746 38.8996C118.201 39.3101 118.43 39.8534 118.434 40.5296C118.43 41.1655 118.241 41.7189 117.867 42.1897C117.496 42.6606 116.989 43.0269 116.345 43.2885C115.701 43.546 114.965 43.6748 114.136 43.6748C112.812 43.6748 111.767 43.4032 111.003 42.8598C110.242 42.3125 109.807 41.58 109.699 40.6624L112.614 40.59C112.679 40.928 112.846 41.1856 113.116 41.3627C113.385 41.5398 113.729 41.6283 114.148 41.6283C114.526 41.6283 114.834 41.5579 115.072 41.417C115.309 41.2761 115.43 41.089 115.434 40.8556C115.43 40.6463 115.337 40.4793 115.156 40.3545C114.975 40.2257 114.691 40.1251 114.305 40.0527L112.687 39.7448C111.757 39.5757 111.065 39.2638 110.61 38.8091C110.155 38.3502 109.93 37.7667 109.934 37.0583C109.93 36.4386 110.095 35.9093 110.429 35.4706C110.763 35.0279 111.238 34.6899 111.854 34.4564C112.47 34.223 113.196 34.1063 114.033 34.1063C115.289 34.1063 116.279 34.3699 117.003 34.8971C117.728 35.4203 118.128 36.1407 118.205 37.0583Z" fill="#8CCAF7"/>
</g>
<rect x="1.04963" y="1.04976" width="194.9" height="53.9" rx="6.95" stroke="white" stroke-opacity="0.15" stroke-width="2.1"/>
<defs>
<filter id="filter0_d_3_839" x="6.28535" y="2.28547" width="51.4289" height="51.4286" filterUnits="userSpaceOnUse" color-interpolation-filters="sRGB">
<feFlood flood-opacity="0" result="BackgroundImageFix"/>
<feColorMatrix in="SourceAlpha" type="matrix" values="0 0 0 0 0 0 0 0 0 0 0 0 0 0 0 0 0 0 127 0" result="hardAlpha"/>
<feOffset/>
<feGaussianBlur stdDeviation="2.85714"/>
<feComposite in2="hardAlpha" operator="out"/>
<feColorMatrix type="matrix" values="0 0 0 0 0 0 0 0 0 0 0 0 0 0 0 0 0 0 0.25 0"/>
<feBlend mode="normal" in2="BackgroundImageFix" result="effect1_dropShadow_3_839"/>
<feBlend mode="normal" in="SourceGraphic" in2="effect1_dropShadow_3_839" result="shape"/>
</filter>
<filter id="filter1_d_3_839" x="54.3996" y="3.89976" width="136.2" height="48.2" filterUnits="userSpaceOnUse" color-interpolation-filters="sRGB">
<feFlood flood-opacity="0" result="BackgroundImageFix"/>
<feColorMatrix in="SourceAlpha" type="matrix" values="0 0 0 0 0 0 0 0 0 0 0 0 0 0 0 0 0 0 127 0" result="hardAlpha"/>
<feOffset/>
<feGaussianBlur stdDeviation="2.8"/>
<feComposite in2="hardAlpha" operator="out"/>
<feColorMatrix type="matrix" values="0 0 0 0 0 0 0 0 0 0 0 0 0 0 0 0 0 0 0.25 0"/>
<feBlend mode="normal" in2="BackgroundImageFix" result="effect1_dropShadow_3_839"/>
<feBlend mode="normal" in="SourceGraphic" in2="effect1_dropShadow_3_839" result="shape"/>
</filter>
<linearGradient id="paint0_linear_3_839" x1="98.4996" y1="-0.000244141" x2="98.4996" y2="55.9997" gradientUnits="userSpaceOnUse">
<stop stop-color="#242E35"/>
<stop offset="1" stop-color="#12202B"/>
</linearGradient>
</defs>
</svg>
