<svg width="152" height="56" viewBox="0 0 152 56" fill="none" xmlns="http://www.w3.org/2000/svg">
<rect x="-0.000366211" y="-0.000183105" width="152" height="56" rx="8" fill="url(#paint0_linear_28_839)"/>
<g filter="url(#filter0_d_28_839)">
<path d="M32.0009 8.71541C20.9514 8.71541 11.9996 17.5724 11.9996 28.4882C11.9996 37.229 17.73 44.6376 25.6717 47.2513C26.6755 47.4379 27.0381 46.8262 27.0381 46.2973C27.0381 45.8277 27.0268 44.5857 27.0193 42.9371C21.4527 44.1285 20.2801 40.2789 20.2801 40.2789C19.3688 38.0001 18.0538 37.3884 18.0538 37.3884C16.2436 36.1662 18.1975 36.1922 18.1975 36.1922C20.2026 36.3269 21.2577 38.225 21.2577 38.225C23.0416 41.2503 25.938 40.3753 27.0843 39.8662C27.2593 38.5921 27.7806 37.7159 28.3482 37.2278C23.9079 36.7322 19.2388 35.033 19.2388 27.4563C19.2388 25.2924 20.0139 23.5302 21.2952 22.1461C21.0739 21.6505 20.3964 19.6362 21.4715 16.9125C21.4715 16.9125 23.1453 16.3848 26.9718 18.9404C28.5732 18.5017 30.2733 18.283 31.9721 18.2718C33.6722 18.283 35.3711 18.5029 36.9724 18.9404C40.7764 16.3848 42.449 16.9125 42.449 16.9125C43.5228 19.6362 42.8453 21.6493 42.6503 22.1461C43.9191 23.5302 44.6942 25.2936 44.6942 27.4563C44.6942 35.0503 40.0189 36.7248 35.5736 37.208C36.2686 37.7999 36.9199 39.0172 36.9199 40.8647C36.9199 43.5093 36.8949 45.6398 36.8949 46.2837C36.8949 46.7978 37.245 47.4157 38.275 47.2167C46.2755 44.6302 51.9996 37.2154 51.9996 28.487C51.9996 17.5711 43.0478 8.71417 31.9984 8.71417L32.0009 8.71541Z" fill="white"/>
</g>
<g filter="url(#filter1_d_28_839)">
<path d="M68.1012 16.384C68.0368 15.8126 67.7712 15.3698 67.3043 15.0559C66.8375 14.738 66.2499 14.579 65.5415 14.579C65.0344 14.579 64.5957 14.6595 64.2255 14.8205C63.8552 14.9774 63.5675 15.1948 63.3622 15.4725C63.161 15.7461 63.0604 16.0581 63.0604 16.4082C63.0604 16.702 63.1288 16.9555 63.2656 17.1688C63.4065 17.3822 63.5896 17.5612 63.815 17.7061C64.0444 17.847 64.2899 17.9657 64.5515 18.0623C64.8131 18.1549 65.0646 18.2313 65.3061 18.2917L66.5135 18.6056C66.9079 18.7022 67.3124 18.833 67.7269 18.998C68.1414 19.163 68.5258 19.3804 68.88 19.65C69.2341 19.9197 69.5199 20.2537 69.7372 20.6522C69.9586 21.0506 70.0692 21.5275 70.0692 22.0829C70.0692 22.7832 69.8881 23.405 69.5259 23.9483C69.1677 24.4916 68.6465 24.9203 67.9623 25.2342C67.2822 25.5481 66.4591 25.7051 65.4932 25.7051C64.5676 25.7051 63.7667 25.5582 63.0905 25.2644C62.4144 24.9706 61.8852 24.554 61.5028 24.0147C61.1205 23.4714 60.9092 22.8275 60.869 22.0829H62.7404C62.7766 22.5296 62.9215 22.9019 63.1751 23.1997C63.4326 23.4935 63.7606 23.7129 64.1591 23.8578C64.5615 23.9986 65.0022 24.0691 65.4812 24.0691C66.0084 24.0691 66.4773 23.9866 66.8878 23.8215C67.3023 23.6525 67.6283 23.4191 67.8658 23.1213C68.1032 22.8194 68.2219 22.4673 68.2219 22.0648C68.2219 21.6986 68.1173 21.3987 67.908 21.1653C67.7028 20.9319 67.423 20.7387 67.0689 20.5858C66.7187 20.4328 66.3223 20.298 65.8796 20.1813L64.4187 19.7828C63.4286 19.5132 62.6438 19.1168 62.0643 18.5936C61.4887 18.0704 61.201 17.3781 61.201 16.5169C61.201 15.8045 61.3942 15.1827 61.7805 14.6514C62.1669 14.1202 62.6901 13.7077 63.3501 13.4139C64.0102 13.1161 64.7547 12.9671 65.5838 12.9671C66.4209 12.9671 67.1594 13.114 67.7993 13.4078C68.4433 13.7016 68.9504 14.1061 69.3207 14.6213C69.6909 15.1324 69.8841 15.72 69.9002 16.384H68.1012ZM76.1499 25.687C75.2363 25.687 74.4495 25.4918 73.7895 25.1014C73.1335 24.707 72.6264 24.1536 72.2682 23.4412C71.914 22.7248 71.7369 21.8857 71.7369 20.9238C71.7369 19.974 71.914 19.1369 72.2682 18.4125C72.6264 17.688 73.1254 17.1226 73.7653 16.7161C74.4093 16.3096 75.1619 16.1063 76.0232 16.1063C76.5464 16.1063 77.0535 16.1929 77.5445 16.3659C78.0355 16.539 78.4762 16.8107 78.8665 17.1809C79.2569 17.5512 79.5648 18.0321 79.7902 18.6237C80.0156 19.2113 80.1283 19.9257 80.1283 20.7669V21.4068H72.7572V20.0545H78.3594C78.3594 19.5796 78.2629 19.159 78.0697 18.7928C77.8765 18.4225 77.6048 18.1307 77.2547 17.9174C76.9086 17.7041 76.5021 17.5975 76.0352 17.5975C75.5281 17.5975 75.0854 17.7222 74.7071 17.9718C74.3328 18.2173 74.043 18.5392 73.8378 18.9377C73.6366 19.3321 73.5359 19.7607 73.5359 20.2235V21.28C73.5359 21.8998 73.6446 22.427 73.8619 22.8617C74.0833 23.2963 74.3912 23.6284 74.7856 23.8578C75.18 24.0831 75.6408 24.1958 76.168 24.1958C76.5101 24.1958 76.822 24.1475 77.1038 24.0509C77.3855 23.9503 77.629 23.8014 77.8342 23.6042C78.0395 23.407 78.1965 23.1635 78.3051 22.8737L80.0136 23.1816C79.8767 23.6847 79.6312 24.1254 79.2771 24.5037C78.9269 24.878 78.4862 25.1698 77.955 25.3791C77.4277 25.5843 76.8261 25.687 76.1499 25.687ZM86.1275 25.687C85.2139 25.687 84.4271 25.4918 83.767 25.1014C83.111 24.707 82.6039 24.1536 82.2457 23.4412C81.8916 22.7248 81.7145 21.8857 81.7145 20.9238C81.7145 19.974 81.8916 19.1369 82.2457 18.4125C82.6039 17.688 83.103 17.1226 83.7429 16.7161C84.3868 16.3096 85.1394 16.1063 86.0007 16.1063C86.5239 16.1063 87.031 16.1929 87.522 16.3659C88.013 16.539 88.4537 16.8107 88.8441 17.1809C89.2345 17.5512 89.5424 18.0321 89.7677 18.6237C89.9931 19.2113 90.1058 19.9257 90.1058 20.7669V21.4068H82.7347V20.0545H88.337C88.337 19.5796 88.2404 19.159 88.0472 18.7928C87.854 18.4225 87.5824 18.1307 87.2322 17.9174C86.8861 17.7041 86.4796 17.5975 86.0128 17.5975C85.5057 17.5975 85.063 17.7222 84.6846 17.9718C84.3104 18.2173 84.0206 18.5392 83.8153 18.9377C83.6141 19.3321 83.5135 19.7607 83.5135 20.2235V21.28C83.5135 21.8998 83.6221 22.427 83.8395 22.8617C84.0608 23.2963 84.3687 23.6284 84.7631 23.8578C85.1575 24.0831 85.6184 24.1958 86.1456 24.1958C86.4877 24.1958 86.7996 24.1475 87.0813 24.0509C87.363 23.9503 87.6065 23.8014 87.8118 23.6042C88.017 23.407 88.174 23.1635 88.2827 22.8737L89.9911 23.1816C89.8543 23.6847 89.6088 24.1254 89.2546 24.5037C88.9045 24.878 88.4638 25.1698 87.9325 25.3791C87.4053 25.5843 86.8036 25.687 86.1275 25.687ZM102.482 21.6543V16.2271H104.293V25.4998H102.518V23.894H102.421C102.208 24.389 101.866 24.8015 101.395 25.1316C100.928 25.4576 100.346 25.6206 99.6502 25.6206C99.0545 25.6206 98.5273 25.4898 98.0685 25.2281C97.6137 24.9625 97.2555 24.5701 96.9939 24.0509C96.7364 23.5318 96.6076 22.8898 96.6076 22.1252V16.2271H98.4126V21.9078C98.4126 22.5397 98.5877 23.0428 98.9378 23.4171C99.288 23.7914 99.7428 23.9785 100.302 23.9785C100.64 23.9785 100.976 23.894 101.31 23.725C101.648 23.5559 101.928 23.3004 102.149 22.9583C102.375 22.6162 102.486 22.1815 102.482 21.6543ZM113.666 18.4909L112.03 18.7807C111.962 18.5714 111.853 18.3722 111.704 18.1831C111.56 17.9939 111.362 17.8389 111.113 17.7182C110.863 17.5975 110.551 17.5371 110.177 17.5371C109.666 17.5371 109.239 17.6518 108.897 17.8812C108.555 18.1066 108.384 18.3984 108.384 18.7566C108.384 19.0665 108.499 19.316 108.728 19.5051C108.958 19.6943 109.328 19.8492 109.839 19.97L111.312 20.3081C112.165 20.5053 112.801 20.8091 113.22 21.2196C113.638 21.6301 113.848 22.1634 113.848 22.8194C113.848 23.3748 113.687 23.8698 113.365 24.3045C113.047 24.7351 112.602 25.0732 112.03 25.3187C111.463 25.5642 110.805 25.687 110.056 25.687C109.018 25.687 108.171 25.4656 107.515 25.0229C106.859 24.5762 106.456 23.9423 106.307 23.1213L108.052 22.8556C108.161 23.3104 108.384 23.6545 108.722 23.888C109.06 24.1174 109.501 24.2321 110.044 24.2321C110.636 24.2321 111.109 24.1093 111.463 23.8638C111.817 23.6143 111.994 23.3104 111.994 22.9522C111.994 22.6625 111.886 22.419 111.668 22.2218C111.455 22.0246 111.127 21.8756 110.684 21.775L109.115 21.4309C108.249 21.2337 107.609 20.9198 107.195 20.4892C106.784 20.0585 106.579 19.5132 106.579 18.8532C106.579 18.3058 106.732 17.8269 107.038 17.4164C107.344 17.0059 107.766 16.6859 108.306 16.4565C108.845 16.2231 109.463 16.1063 110.159 16.1063C111.161 16.1063 111.95 16.3237 112.525 16.7583C113.101 17.189 113.481 17.7665 113.666 18.4909ZM124.237 25.687C123.368 25.687 122.609 25.4877 121.961 25.0893C121.313 24.6909 120.81 24.1335 120.452 23.4171C120.094 22.7007 119.915 21.8636 119.915 20.9057C119.915 19.9438 120.094 19.1027 120.452 18.3823C120.81 17.6619 121.313 17.1024 121.961 16.704C122.609 16.3056 123.368 16.1063 124.237 16.1063C125.106 16.1063 125.865 16.3056 126.513 16.704C127.161 17.1024 127.664 17.6619 128.022 18.3823C128.38 19.1027 128.56 19.9438 128.56 20.9057C128.56 21.8636 128.38 22.7007 128.022 23.4171C127.664 24.1335 127.161 24.6909 126.513 25.0893C125.865 25.4877 125.106 25.687 124.237 25.687ZM124.243 24.1717C124.807 24.1717 125.273 24.0228 125.644 23.725C126.014 23.4271 126.288 23.0307 126.465 22.5357C126.646 22.0407 126.736 21.4953 126.736 20.8997C126.736 20.3081 126.646 19.7647 126.465 19.2697C126.288 18.7706 126.014 18.3702 125.644 18.0684C125.273 17.7665 124.807 17.6156 124.243 17.6156C123.676 17.6156 123.205 17.7665 122.83 18.0684C122.46 18.3702 122.185 18.7706 122.003 19.2697C121.826 19.7647 121.738 20.3081 121.738 20.8997C121.738 21.4953 121.826 22.0407 122.003 22.5357C122.185 23.0307 122.46 23.4271 122.83 23.725C123.205 24.0228 123.676 24.1717 124.243 24.1717ZM132.379 19.9941V25.4998H130.574V16.2271H132.307V17.7363H132.422C132.635 17.2453 132.969 16.8509 133.424 16.5531C133.883 16.2553 134.46 16.1063 135.156 16.1063C135.788 16.1063 136.342 16.2392 136.817 16.5048C137.291 16.7664 137.66 17.1568 137.921 17.676C138.183 18.1951 138.314 18.8371 138.314 19.6017V25.4998H136.509V19.8191C136.509 19.1469 136.334 18.6217 135.983 18.2434C135.633 17.8611 135.152 17.6699 134.541 17.6699C134.122 17.6699 133.75 17.7605 133.424 17.9416C133.102 18.1227 132.846 18.3883 132.657 18.7385C132.472 19.0846 132.379 19.5031 132.379 19.9941Z" fill="#E8E8E8"/>
<path d="M69.049 36.1749C68.9806 35.9213 68.88 35.698 68.7471 35.5048C68.6143 35.3076 68.4513 35.1406 68.2582 35.0037C68.065 34.8669 67.8436 34.7643 67.5941 34.6958C67.3446 34.6234 67.0709 34.5872 66.7731 34.5872C66.1734 34.5872 65.6542 34.7321 65.2155 35.0218C64.7809 35.3116 64.4448 35.7342 64.2074 36.2896C63.9699 36.841 63.8512 37.5111 63.8512 38.2999C63.8512 39.0927 63.9659 39.7689 64.1953 40.3283C64.4247 40.8877 64.7567 41.3143 65.1914 41.6081C65.6261 41.9019 66.1533 42.0488 66.7731 42.0488C67.3204 42.0488 67.7832 41.9603 68.1616 41.7832C68.5439 41.6021 68.8337 41.3465 69.0309 41.0165C69.2281 40.6865 69.3267 40.2981 69.3267 39.8514L69.8821 39.9178H66.8757V37.7385H72.2063V39.3745C72.2063 40.4812 71.9709 41.429 71.5 42.2179C71.0331 43.0067 70.3892 43.6124 69.5682 44.035C68.7512 44.4576 67.8114 44.6688 66.7489 44.6688C65.5697 44.6688 64.5334 44.4133 63.6399 43.9022C62.7464 43.391 62.0502 42.6626 61.5511 41.7168C61.0521 40.767 60.8025 39.6401 60.8025 38.3361C60.8025 37.3219 60.9535 36.4224 61.2553 35.6376C61.5572 34.8488 61.9777 34.1807 62.517 33.6333C63.0604 33.086 63.6882 32.6715 64.4006 32.3897C65.1169 32.108 65.8877 31.9671 66.7127 31.9671C67.4291 31.9671 68.0952 32.0698 68.7109 32.275C69.3307 32.4803 69.8781 32.7701 70.353 33.1443C70.8319 33.5186 71.2203 33.9634 71.5181 34.4785C71.8159 34.9937 72.0011 35.5591 72.0735 36.1749H69.049ZM74.5486 44.4998V35.2271H77.5007V44.4998H74.5486ZM76.0277 34.1465C75.6131 34.1465 75.257 34.0096 74.9591 33.736C74.6613 33.4583 74.5124 33.1242 74.5124 32.7338C74.5124 32.3475 74.6613 32.0175 74.9591 31.7438C75.257 31.4661 75.6131 31.3272 76.0277 31.3272C76.4462 31.3272 76.8024 31.4661 77.0962 31.7438C77.394 32.0175 77.543 32.3475 77.543 32.7338C77.543 33.1242 77.394 33.4583 77.0962 33.736C76.8024 34.0096 76.4462 34.1465 76.0277 34.1465ZM84.6137 35.2271V37.4004H78.7639V35.2271H84.6137ZM79.9894 33.0055H82.9415V41.584C82.9415 41.7651 82.9696 41.912 83.026 42.0247C83.0864 42.1333 83.1729 42.2118 83.2856 42.2601C83.3983 42.3044 83.5331 42.3265 83.6901 42.3265C83.8027 42.3265 83.9215 42.3165 84.0462 42.2963C84.175 42.2722 84.2716 42.2521 84.336 42.236L84.7827 44.367C84.6419 44.4072 84.4427 44.4576 84.1851 44.5179C83.9315 44.5783 83.6277 44.6165 83.2735 44.6326C82.5813 44.6648 81.9876 44.5843 81.4926 44.3911C81.0016 44.1939 80.6253 43.8881 80.3637 43.4735C80.1061 43.059 79.9814 42.5378 79.9894 41.91V33.0055ZM86.3191 44.4998V32.1362H89.3074V37.0985H94.1792V32.1362H97.1615V44.4998H94.1792V39.5314H89.3074V44.4998H86.3191ZM105.019 40.4973V35.2271H107.965V44.4998H105.151V42.7733H105.055C104.849 43.3407 104.499 43.7915 104.004 44.1255C103.513 44.4555 102.92 44.6206 102.223 44.6206C101.592 44.6206 101.036 44.4757 100.557 44.1859C100.078 43.8961 99.706 43.4916 99.4404 42.9725C99.1748 42.4493 99.04 41.8375 99.0359 41.1372V35.2271H101.988V40.5577C101.992 41.0608 102.125 41.4572 102.386 41.747C102.648 42.0367 103.004 42.1816 103.455 42.1816C103.749 42.1816 104.012 42.1172 104.246 41.9884C104.483 41.8556 104.67 41.6645 104.807 41.4149C104.948 41.1614 105.019 40.8555 105.019 40.4973ZM109.844 44.4998V32.1362H112.796V36.8148H112.856C112.977 36.5331 113.148 36.2614 113.369 35.9998C113.594 35.7382 113.88 35.5249 114.226 35.3599C114.576 35.1909 114.995 35.1063 115.482 35.1063C116.126 35.1063 116.728 35.2754 117.287 35.6135C117.851 35.9515 118.305 36.4727 118.651 37.177C118.998 37.8813 119.171 38.7788 119.171 39.8695C119.171 40.9199 119.004 41.7993 118.67 42.5076C118.34 43.216 117.893 43.7472 117.329 44.1014C116.77 44.4555 116.148 44.6326 115.464 44.6326C114.997 44.6326 114.593 44.5562 114.251 44.4032C113.908 44.2503 113.621 44.0491 113.387 43.7995C113.158 43.55 112.981 43.2824 112.856 42.9966H112.765V44.4998H109.844ZM112.735 39.8635C112.735 40.3625 112.802 40.7972 112.934 41.1674C113.071 41.5377 113.266 41.8255 113.52 42.0307C113.778 42.2319 114.085 42.3326 114.444 42.3326C114.806 42.3326 115.114 42.2319 115.367 42.0307C115.621 41.8255 115.812 41.5377 115.941 41.1674C116.074 40.7972 116.14 40.3625 116.14 39.8635C116.14 39.3644 116.074 38.9318 115.941 38.5655C115.812 38.1993 115.621 37.9155 115.367 37.7143C115.118 37.5131 114.81 37.4125 114.444 37.4125C114.081 37.4125 113.774 37.5111 113.52 37.7083C113.266 37.9055 113.071 38.1872 112.934 38.5534C112.802 38.9197 112.735 39.3563 112.735 39.8635Z" fill="white"/>
</g>
<rect x="1.04963" y="1.04982" width="149.9" height="53.9" rx="6.95" stroke="white" stroke-opacity="0.15" stroke-width="2.1"/>
<defs>
<filter id="filter0_d_28_839" x="6.28535" y="2.28553" width="51.4286" height="51.4286" filterUnits="userSpaceOnUse" color-interpolation-filters="sRGB">
<feFlood flood-opacity="0" result="BackgroundImageFix"/>
<feColorMatrix in="SourceAlpha" type="matrix" values="0 0 0 0 0 0 0 0 0 0 0 0 0 0 0 0 0 0 127 0" result="hardAlpha"/>
<feOffset/>
<feGaussianBlur stdDeviation="2.85714"/>
<feComposite in2="hardAlpha" operator="out"/>
<feColorMatrix type="matrix" values="0 0 0 0 0 0 0 0 0 0 0 0 0 0 0 0 0 0 0.25 0"/>
<feBlend mode="normal" in2="BackgroundImageFix" result="effect1_dropShadow_28_839"/>
<feBlend mode="normal" in="SourceGraphic" in2="effect1_dropShadow_28_839" result="shape"/>
</filter>
<filter id="filter1_d_28_839" x="54.3996" y="2.89982" width="91.2" height="50.2" filterUnits="userSpaceOnUse" color-interpolation-filters="sRGB">
<feFlood flood-opacity="0" result="BackgroundImageFix"/>
<feColorMatrix in="SourceAlpha" type="matrix" values="0 0 0 0 0 0 0 0 0 0 0 0 0 0 0 0 0 0 127 0" result="hardAlpha"/>
<feOffset/>
<feGaussianBlur stdDeviation="2.8"/>
<feComposite in2="hardAlpha" operator="out"/>
<feColorMatrix type="matrix" values="0 0 0 0 0 0 0 0 0 0 0 0 0 0 0 0 0 0 0.25 0"/>
<feBlend mode="normal" in2="BackgroundImageFix" result="effect1_dropShadow_28_839"/>
<feBlend mode="normal" in="SourceGraphic" in2="effect1_dropShadow_28_839" result="shape"/>
</filter>
<linearGradient id="paint0_linear_28_839" x1="75.9996" y1="-0.000183105" x2="75.9996" y2="55.9998" gradientUnits="userSpaceOnUse">
<stop stop-color="#181F29"/>
<stop offset="1" stop-color="#0F131A"/>
</linearGradient>
</defs>
</svg>
