<svg width="158" height="56" viewBox="0 0 158 56" fill="none" xmlns="http://www.w3.org/2000/svg">
<rect x="-0.000366211" y="-0.000183105" width="158" height="56" rx="8" fill="url(#paint0_linear_28_864)"/>
<g filter="url(#filter0_d_28_864)">
<path d="M31.9997 46.5654L39.3655 23.7189H24.634L31.9997 46.5654Z" fill="#E24329"/>
<path d="M31.9999 46.5654L24.6342 23.7189H14.3127L31.9999 46.5654Z" fill="#FC6D26"/>
<path d="M14.3127 23.7189L12.0742 30.662C11.9747 30.9706 11.9748 31.3031 12.0744 31.6117C12.1739 31.9203 12.3679 32.1891 12.6284 32.3798L31.9999 46.5712L14.3127 23.7189Z" fill="#FCA326"/>
<path d="M14.3127 23.719H24.6342L20.1985 9.95956C20.1484 9.80551 20.0514 9.67135 19.9212 9.57622C19.791 9.48109 19.6343 9.42987 19.4735 9.42987C19.3126 9.42987 19.1559 9.48109 19.0257 9.57622C18.8955 9.67135 18.7985 9.80551 18.7485 9.95956L14.3127 23.719Z" fill="#E24329"/>
<path d="M31.9999 46.5654L39.3656 23.7189H49.687L31.9999 46.5654Z" fill="#FC6D26"/>
<path d="M49.687 23.7189L51.9256 30.662C52.025 30.9706 52.0249 31.3031 51.9254 31.6117C51.8258 31.9203 51.6318 32.1891 51.3713 32.3798L31.9999 46.5712L49.687 23.7189Z" fill="#FCA326"/>
<path d="M49.6869 23.719H39.3655L43.8012 9.95809C43.8512 9.80405 43.9483 9.66988 44.0785 9.57475C44.2087 9.47963 44.3654 9.42841 44.5262 9.42841C44.687 9.42841 44.8437 9.47963 44.9739 9.57475C45.1041 9.66988 45.2012 9.80405 45.2512 9.95809L49.6869 23.719Z" fill="#E24329"/>
</g>
<g filter="url(#filter1_d_28_864)">
<path d="M68.1012 16.384C68.0368 15.8126 67.7712 15.3698 67.3043 15.0559C66.8375 14.738 66.2499 14.579 65.5415 14.579C65.0344 14.579 64.5957 14.6595 64.2255 14.8205C63.8552 14.9774 63.5675 15.1948 63.3622 15.4725C63.161 15.7461 63.0604 16.0581 63.0604 16.4082C63.0604 16.702 63.1288 16.9555 63.2656 17.1688C63.4065 17.3822 63.5896 17.5612 63.815 17.7061C64.0444 17.847 64.2899 17.9657 64.5515 18.0623C64.8131 18.1549 65.0646 18.2313 65.3061 18.2917L66.5135 18.6056C66.9079 18.7022 67.3124 18.833 67.7269 18.998C68.1414 19.163 68.5258 19.3804 68.88 19.65C69.2341 19.9197 69.5199 20.2537 69.7372 20.6522C69.9586 21.0506 70.0692 21.5275 70.0692 22.0829C70.0692 22.7832 69.8881 23.405 69.5259 23.9483C69.1677 24.4916 68.6465 24.9203 67.9623 25.2342C67.2822 25.5481 66.4591 25.7051 65.4932 25.7051C64.5676 25.7051 63.7667 25.5582 63.0905 25.2644C62.4144 24.9706 61.8852 24.554 61.5028 24.0147C61.1205 23.4714 60.9092 22.8275 60.869 22.0829H62.7404C62.7766 22.5296 62.9215 22.9019 63.1751 23.1997C63.4326 23.4935 63.7606 23.7129 64.1591 23.8578C64.5615 23.9986 65.0022 24.0691 65.4812 24.0691C66.0084 24.0691 66.4773 23.9866 66.8878 23.8215C67.3023 23.6525 67.6283 23.4191 67.8658 23.1213C68.1032 22.8194 68.2219 22.4673 68.2219 22.0648C68.2219 21.6986 68.1173 21.3987 67.908 21.1653C67.7028 20.9319 67.423 20.7387 67.0689 20.5858C66.7187 20.4328 66.3223 20.298 65.8796 20.1813L64.4187 19.7828C63.4286 19.5132 62.6438 19.1168 62.0643 18.5936C61.4887 18.0704 61.201 17.3781 61.201 16.5169C61.201 15.8045 61.3942 15.1827 61.7805 14.6514C62.1669 14.1202 62.6901 13.7077 63.3501 13.4139C64.0102 13.1161 64.7547 12.9671 65.5838 12.9671C66.4209 12.9671 67.1594 13.114 67.7993 13.4078C68.4433 13.7016 68.9504 14.1061 69.3207 14.6213C69.6909 15.1324 69.8841 15.72 69.9002 16.384H68.1012ZM76.1499 25.687C75.2363 25.687 74.4495 25.4918 73.7895 25.1014C73.1335 24.707 72.6264 24.1536 72.2682 23.4412C71.914 22.7248 71.7369 21.8857 71.7369 20.9238C71.7369 19.974 71.914 19.1369 72.2682 18.4125C72.6264 17.688 73.1254 17.1226 73.7653 16.7161C74.4093 16.3096 75.1619 16.1063 76.0232 16.1063C76.5464 16.1063 77.0535 16.1929 77.5445 16.3659C78.0355 16.539 78.4762 16.8107 78.8665 17.1809C79.2569 17.5512 79.5648 18.0321 79.7902 18.6237C80.0156 19.2113 80.1283 19.9257 80.1283 20.7669V21.4068H72.7572V20.0545H78.3594C78.3594 19.5796 78.2629 19.159 78.0697 18.7928C77.8765 18.4225 77.6048 18.1307 77.2547 17.9174C76.9086 17.7041 76.5021 17.5975 76.0352 17.5975C75.5281 17.5975 75.0854 17.7222 74.7071 17.9718C74.3328 18.2173 74.043 18.5392 73.8378 18.9377C73.6366 19.3321 73.5359 19.7607 73.5359 20.2235V21.28C73.5359 21.8998 73.6446 22.427 73.8619 22.8617C74.0833 23.2963 74.3912 23.6284 74.7856 23.8578C75.18 24.0831 75.6408 24.1958 76.168 24.1958C76.5101 24.1958 76.822 24.1475 77.1038 24.0509C77.3855 23.9503 77.629 23.8014 77.8342 23.6042C78.0395 23.407 78.1965 23.1635 78.3051 22.8737L80.0136 23.1816C79.8767 23.6847 79.6312 24.1254 79.2771 24.5037C78.9269 24.878 78.4862 25.1698 77.955 25.3791C77.4277 25.5843 76.8261 25.687 76.1499 25.687ZM86.1275 25.687C85.2139 25.687 84.4271 25.4918 83.767 25.1014C83.111 24.707 82.6039 24.1536 82.2457 23.4412C81.8916 22.7248 81.7145 21.8857 81.7145 20.9238C81.7145 19.974 81.8916 19.1369 82.2457 18.4125C82.6039 17.688 83.103 17.1226 83.7429 16.7161C84.3868 16.3096 85.1394 16.1063 86.0007 16.1063C86.5239 16.1063 87.031 16.1929 87.522 16.3659C88.013 16.539 88.4537 16.8107 88.8441 17.1809C89.2345 17.5512 89.5424 18.0321 89.7677 18.6237C89.9931 19.2113 90.1058 19.9257 90.1058 20.7669V21.4068H82.7347V20.0545H88.337C88.337 19.5796 88.2404 19.159 88.0472 18.7928C87.854 18.4225 87.5824 18.1307 87.2322 17.9174C86.8861 17.7041 86.4796 17.5975 86.0128 17.5975C85.5057 17.5975 85.063 17.7222 84.6846 17.9718C84.3104 18.2173 84.0206 18.5392 83.8153 18.9377C83.6141 19.3321 83.5135 19.7607 83.5135 20.2235V21.28C83.5135 21.8998 83.6221 22.427 83.8395 22.8617C84.0608 23.2963 84.3687 23.6284 84.7631 23.8578C85.1575 24.0831 85.6184 24.1958 86.1456 24.1958C86.4877 24.1958 86.7996 24.1475 87.0813 24.0509C87.363 23.9503 87.6065 23.8014 87.8118 23.6042C88.017 23.407 88.174 23.1635 88.2827 22.8737L89.9911 23.1816C89.8543 23.6847 89.6088 24.1254 89.2546 24.5037C88.9045 24.878 88.4638 25.1698 87.9325 25.3791C87.4053 25.5843 86.8036 25.687 86.1275 25.687ZM96.6076 25.4998V16.2271H98.3402V17.7363H98.4549C98.6481 17.2252 98.964 16.8268 99.4027 16.541C99.8414 16.2512 100.367 16.1063 100.978 16.1063C101.598 16.1063 102.117 16.2512 102.536 16.541C102.958 16.8308 103.27 17.2292 103.472 17.7363H103.568C103.79 17.2413 104.142 16.8469 104.625 16.5531C105.108 16.2553 105.683 16.1063 106.351 16.1063C107.192 16.1063 107.879 16.37 108.41 16.8972C108.945 17.4244 109.213 18.2193 109.213 19.2818V25.4998H107.408V19.4508C107.408 18.823 107.237 18.3682 106.895 18.0865C106.552 17.8047 106.144 17.6639 105.669 17.6639C105.081 17.6639 104.625 17.845 104.299 18.2072C103.973 18.5654 103.81 19.0262 103.81 19.5897V25.4998H102.011V19.3361C102.011 18.833 101.854 18.4286 101.54 18.1227C101.226 17.8168 100.817 17.6639 100.314 17.6639C99.9722 17.6639 99.6562 17.7544 99.3665 17.9355C99.0807 18.1126 98.8493 18.3601 98.6722 18.6781C98.4991 18.996 98.4126 19.3643 98.4126 19.7828V25.4998H96.6076ZM115.628 25.687C114.715 25.687 113.928 25.4918 113.268 25.1014C112.612 24.707 112.105 24.1536 111.747 23.4412C111.393 22.7248 111.215 21.8857 111.215 20.9238C111.215 19.974 111.393 19.1369 111.747 18.4125C112.105 17.688 112.604 17.1226 113.244 16.7161C113.888 16.3096 114.64 16.1063 115.502 16.1063C116.025 16.1063 116.532 16.1929 117.023 16.3659C117.514 16.539 117.955 16.8107 118.345 17.1809C118.735 17.5512 119.043 18.0321 119.269 18.6237C119.494 19.2113 119.607 19.9257 119.607 20.7669V21.4068H112.236V20.0545H117.838C117.838 19.5796 117.741 19.159 117.548 18.7928C117.355 18.4225 117.083 18.1307 116.733 17.9174C116.387 17.7041 115.981 17.5975 115.514 17.5975C115.007 17.5975 114.564 17.7222 114.186 17.9718C113.811 18.2173 113.522 18.5392 113.316 18.9377C113.115 19.3321 113.014 19.7607 113.014 20.2235V21.28C113.014 21.8998 113.123 22.427 113.34 22.8617C113.562 23.2963 113.87 23.6284 114.264 23.8578C114.659 24.0831 115.119 24.1958 115.647 24.1958C115.989 24.1958 116.301 24.1475 116.582 24.0509C116.864 23.9503 117.107 23.8014 117.313 23.6042C117.518 23.407 117.675 23.1635 117.784 22.8737L119.492 23.1816C119.355 23.6847 119.11 24.1254 118.756 24.5037C118.405 24.878 117.965 25.1698 117.433 25.3791C116.906 25.5843 116.305 25.687 115.628 25.687ZM130.014 25.687C129.145 25.687 128.386 25.4877 127.739 25.0893C127.091 24.6909 126.587 24.1335 126.229 23.4171C125.871 22.7007 125.692 21.8636 125.692 20.9057C125.692 19.9438 125.871 19.1027 126.229 18.3823C126.587 17.6619 127.091 17.1024 127.739 16.704C128.386 16.3056 129.145 16.1063 130.014 16.1063C130.884 16.1063 131.642 16.3056 132.29 16.704C132.938 17.1024 133.441 17.6619 133.8 18.3823C134.158 19.1027 134.337 19.9438 134.337 20.9057C134.337 21.8636 134.158 22.7007 133.8 23.4171C133.441 24.1335 132.938 24.6909 132.29 25.0893C131.642 25.4877 130.884 25.687 130.014 25.687ZM130.02 24.1717C130.584 24.1717 131.051 24.0228 131.421 23.725C131.791 23.4271 132.065 23.0307 132.242 22.5357C132.423 22.0407 132.514 21.4953 132.514 20.8997C132.514 20.3081 132.423 19.7647 132.242 19.2697C132.065 18.7706 131.791 18.3702 131.421 18.0684C131.051 17.7665 130.584 17.6156 130.02 17.6156C129.453 17.6156 128.982 17.7665 128.608 18.0684C128.238 18.3702 127.962 18.7706 127.781 19.2697C127.604 19.7647 127.515 20.3081 127.515 20.8997C127.515 21.4953 127.604 22.0407 127.781 22.5357C127.962 23.0307 128.238 23.4271 128.608 23.725C128.982 24.0228 129.453 24.1717 130.02 24.1717ZM138.157 19.9941V25.4998H136.352V16.2271H138.084V17.7363H138.199C138.412 17.2453 138.746 16.8509 139.201 16.5531C139.66 16.2553 140.237 16.1063 140.934 16.1063C141.566 16.1063 142.119 16.2392 142.594 16.5048C143.069 16.7664 143.437 17.1568 143.699 17.676C143.96 18.1951 144.091 18.8371 144.091 19.6017V25.4998H142.286V19.8191C142.286 19.1469 142.111 18.6217 141.761 18.2434C141.411 17.8611 140.93 17.6699 140.318 17.6699C139.899 17.6699 139.527 17.7605 139.201 17.9416C138.879 18.1227 138.624 18.3883 138.434 18.7385C138.249 19.0846 138.157 19.5031 138.157 19.9941Z" fill="#E8E8E8"/>
<path d="M69.049 36.1749C68.9806 35.9213 68.88 35.698 68.7471 35.5048C68.6143 35.3076 68.4513 35.1406 68.2582 35.0037C68.065 34.8669 67.8436 34.7643 67.5941 34.6958C67.3446 34.6234 67.0709 34.5872 66.7731 34.5872C66.1734 34.5872 65.6542 34.7321 65.2155 35.0218C64.7809 35.3116 64.4448 35.7342 64.2074 36.2896C63.9699 36.841 63.8512 37.5111 63.8512 38.2999C63.8512 39.0927 63.9659 39.7689 64.1953 40.3283C64.4247 40.8877 64.7567 41.3143 65.1914 41.6081C65.6261 41.9019 66.1533 42.0488 66.7731 42.0488C67.3204 42.0488 67.7832 41.9603 68.1616 41.7832C68.5439 41.6021 68.8337 41.3465 69.0309 41.0165C69.2281 40.6865 69.3267 40.2981 69.3267 39.8514L69.8821 39.9178H66.8757V37.7385H72.2063V39.3745C72.2063 40.4812 71.9709 41.429 71.5 42.2179C71.0331 43.0067 70.3892 43.6124 69.5682 44.035C68.7512 44.4576 67.8114 44.6688 66.7489 44.6688C65.5697 44.6688 64.5334 44.4133 63.6399 43.9022C62.7464 43.391 62.0502 42.6626 61.5511 41.7168C61.0521 40.767 60.8025 39.6401 60.8025 38.3361C60.8025 37.3219 60.9535 36.4224 61.2553 35.6376C61.5572 34.8488 61.9777 34.1807 62.517 33.6333C63.0604 33.086 63.6882 32.6715 64.4006 32.3897C65.1169 32.108 65.8877 31.9671 66.7127 31.9671C67.4291 31.9671 68.0952 32.0698 68.7109 32.275C69.3307 32.4803 69.8781 32.7701 70.353 33.1443C70.8319 33.5186 71.2203 33.9634 71.5181 34.4785C71.8159 34.9937 72.0011 35.5591 72.0735 36.1749H69.049ZM74.5486 44.4998V35.2271H77.5007V44.4998H74.5486ZM76.0277 34.1465C75.6131 34.1465 75.257 34.0096 74.9591 33.736C74.6613 33.4583 74.5124 33.1242 74.5124 32.7338C74.5124 32.3475 74.6613 32.0175 74.9591 31.7438C75.257 31.4661 75.6131 31.3272 76.0277 31.3272C76.4462 31.3272 76.8024 31.4661 77.0962 31.7438C77.394 32.0175 77.543 32.3475 77.543 32.7338C77.543 33.1242 77.394 33.4583 77.0962 33.736C76.8024 34.0096 76.4462 34.1465 76.0277 34.1465ZM84.6137 35.2271V37.4004H78.7639V35.2271H84.6137ZM79.9894 33.0055H82.9415V41.584C82.9415 41.7651 82.9696 41.912 83.026 42.0247C83.0864 42.1333 83.1729 42.2118 83.2856 42.2601C83.3983 42.3044 83.5331 42.3265 83.6901 42.3265C83.8027 42.3265 83.9215 42.3165 84.0462 42.2963C84.175 42.2722 84.2716 42.2521 84.336 42.236L84.7827 44.367C84.6419 44.4072 84.4427 44.4576 84.1851 44.5179C83.9315 44.5783 83.6277 44.6165 83.2735 44.6326C82.5813 44.6648 81.9876 44.5843 81.4926 44.3911C81.0016 44.1939 80.6253 43.8881 80.3637 43.4735C80.1061 43.059 79.9814 42.5378 79.9894 41.91V33.0055ZM86.3191 44.4998V32.1362H89.3074V42.073H94.4509V44.4998H86.3191ZM98.6118 44.6568C98.0202 44.6568 97.495 44.5582 97.0362 44.361C96.5814 44.1597 96.2212 43.8579 95.9556 43.4554C95.694 43.0489 95.5632 42.5398 95.5632 41.9281C95.5632 41.4129 95.6537 40.9783 95.8349 40.6241C96.016 40.2699 96.2655 39.9822 96.5834 39.7608C96.9014 39.5395 97.2676 39.3724 97.6822 39.2598C98.0967 39.143 98.5394 39.0646 99.0103 39.0243C99.5375 38.976 99.9621 38.9257 100.284 38.8734C100.606 38.817 100.839 38.7386 100.984 38.638C101.133 38.5333 101.208 38.3864 101.208 38.1973V38.1671C101.208 37.8572 101.101 37.6177 100.888 37.4487C100.674 37.2796 100.387 37.1951 100.024 37.1951C99.6341 37.1951 99.3202 37.2796 99.0827 37.4487C98.8453 37.6177 98.6943 37.8511 98.6299 38.149L95.9073 38.0524C95.9878 37.4889 96.1951 36.9858 96.5291 36.5431C96.8672 36.0964 97.33 35.7463 97.9176 35.4927C98.5092 35.2351 99.2196 35.1063 100.049 35.1063C100.64 35.1063 101.186 35.1768 101.685 35.3176C102.184 35.4545 102.618 35.6557 102.989 35.9213C103.359 36.1829 103.645 36.5049 103.846 36.8872C104.051 37.2696 104.154 37.7063 104.154 38.1973V44.4998H101.377V43.2079H101.304C101.139 43.5218 100.928 43.7875 100.67 44.0048C100.417 44.2221 100.117 44.3851 99.7709 44.4938C99.4288 44.6024 99.0425 44.6568 98.6118 44.6568ZM99.5234 42.725C99.8414 42.725 100.127 42.6606 100.381 42.5318C100.638 42.403 100.843 42.2259 100.996 42.0005C101.149 41.7711 101.226 41.5055 101.226 41.2036V40.3223C101.141 40.3665 101.039 40.4068 100.918 40.443C100.801 40.4792 100.672 40.5134 100.532 40.5456C100.391 40.5778 100.246 40.606 100.097 40.6301C99.948 40.6543 99.8051 40.6764 99.6683 40.6965C99.3906 40.7408 99.1531 40.8092 98.9559 40.9018C98.7628 40.9944 98.6139 41.1151 98.5092 41.264C98.4086 41.4089 98.3583 41.582 98.3583 41.7832C98.3583 42.0891 98.467 42.3225 98.6843 42.4835C98.9056 42.6445 99.1853 42.725 99.5234 42.725ZM105.959 44.4998V32.1362H108.911V36.8148H108.971C109.092 36.5331 109.263 36.2614 109.484 35.9998C109.71 35.7382 109.995 35.5249 110.342 35.3599C110.692 35.1909 111.11 35.1063 111.597 35.1063C112.241 35.1063 112.843 35.2754 113.402 35.6135C113.966 35.9515 114.421 36.4727 114.767 37.177C115.113 37.8813 115.286 38.7788 115.286 39.8695C115.286 40.9199 115.119 41.7993 114.785 42.5076C114.455 43.216 114.008 43.7472 113.445 44.1014C112.885 44.4555 112.263 44.6326 111.579 44.6326C111.112 44.6326 110.708 44.5562 110.366 44.4032C110.024 44.2503 109.736 44.0491 109.502 43.7995C109.273 43.55 109.096 43.2824 108.971 42.9966H108.881V44.4998H105.959ZM108.85 39.8635C108.85 40.3625 108.917 40.7972 109.05 41.1674C109.187 41.5377 109.382 41.8255 109.635 42.0307C109.893 42.2319 110.201 42.3326 110.559 42.3326C110.921 42.3326 111.229 42.2319 111.483 42.0307C111.736 41.8255 111.927 41.5377 112.056 41.1674C112.189 40.7972 112.255 40.3625 112.255 39.8635C112.255 39.3644 112.189 38.9318 112.056 38.5655C111.927 38.1993 111.736 37.9155 111.483 37.7143C111.233 37.5131 110.925 37.4125 110.559 37.4125C110.197 37.4125 109.889 37.5111 109.635 37.7083C109.382 37.9055 109.187 38.1872 109.05 38.5534C108.917 38.9197 108.85 39.3563 108.85 39.8635Z" fill="url(#paint1_linear_28_864)"/>
</g>
<rect x="1.04963" y="1.04982" width="155.9" height="53.9" rx="6.95" stroke="white" stroke-opacity="0.15" stroke-width="2.1"/>
<defs>
<filter id="filter0_d_28_864" x="6.28535" y="2.28553" width="51.4291" height="51.4285" filterUnits="userSpaceOnUse" color-interpolation-filters="sRGB">
<feFlood flood-opacity="0" result="BackgroundImageFix"/>
<feColorMatrix in="SourceAlpha" type="matrix" values="0 0 0 0 0 0 0 0 0 0 0 0 0 0 0 0 0 0 127 0" result="hardAlpha"/>
<feOffset/>
<feGaussianBlur stdDeviation="2.85714"/>
<feComposite in2="hardAlpha" operator="out"/>
<feColorMatrix type="matrix" values="0 0 0 0 0 0 0 0 0 0 0 0 0 0 0 0 0 0 0.25 0"/>
<feBlend mode="normal" in2="BackgroundImageFix" result="effect1_dropShadow_28_864"/>
<feBlend mode="normal" in="SourceGraphic" in2="effect1_dropShadow_28_864" result="shape"/>
</filter>
<filter id="filter1_d_28_864" x="54.3996" y="2.89982" width="97.2" height="50.1999" filterUnits="userSpaceOnUse" color-interpolation-filters="sRGB">
<feFlood flood-opacity="0" result="BackgroundImageFix"/>
<feColorMatrix in="SourceAlpha" type="matrix" values="0 0 0 0 0 0 0 0 0 0 0 0 0 0 0 0 0 0 127 0" result="hardAlpha"/>
<feOffset/>
<feGaussianBlur stdDeviation="2.8"/>
<feComposite in2="hardAlpha" operator="out"/>
<feColorMatrix type="matrix" values="0 0 0 0 0 0 0 0 0 0 0 0 0 0 0 0 0 0 0.25 0"/>
<feBlend mode="normal" in2="BackgroundImageFix" result="effect1_dropShadow_28_864"/>
<feBlend mode="normal" in="SourceGraphic" in2="effect1_dropShadow_28_864" result="shape"/>
</filter>
<linearGradient id="paint0_linear_28_864" x1="78.9996" y1="-0.000183105" x2="78.9996" y2="55.9998" gradientUnits="userSpaceOnUse">
<stop stop-color="#2E0E09"/>
<stop offset="1" stop-color="#1F1506"/>
</linearGradient>
<linearGradient id="paint1_linear_28_864" x1="87.9996" y1="29.4998" x2="87.9996" y2="47.4998" gradientUnits="userSpaceOnUse">
<stop stop-color="#E06955"/>
<stop offset="1" stop-color="#F5B253"/>
</linearGradient>
</defs>
</svg>
