<svg width="162" height="56" viewBox="0 0 162 56" fill="none" xmlns="http://www.w3.org/2000/svg">
<rect x="-0.000366211" y="-0.000183105" width="162" height="56" rx="8" fill="url(#paint0_linear_28_864)"/>
<g filter="url(#filter0_d_28_864)">
<path d="M31.9997 46.5654L39.3655 23.7189H24.634L31.9997 46.5654Z" fill="#E24329"/>
<path d="M31.9999 46.5654L24.6342 23.7189H14.3127L31.9999 46.5654Z" fill="#FC6D26"/>
<path d="M14.3127 23.7189L12.0742 30.662C11.9747 30.9706 11.9748 31.3031 12.0744 31.6117C12.1739 31.9203 12.3679 32.1892 12.6284 32.3798L31.9999 46.5712L14.3127 23.7189Z" fill="#FCA326"/>
<path d="M14.3127 23.719H24.6342L20.1985 9.95956C20.1484 9.80551 20.0514 9.67135 19.9212 9.57622C19.791 9.48109 19.6343 9.42987 19.4735 9.42987C19.3126 9.42987 19.1559 9.48109 19.0257 9.57622C18.8955 9.67135 18.7985 9.80551 18.7485 9.95956L14.3127 23.719Z" fill="#E24329"/>
<path d="M31.9999 46.5654L39.3656 23.7189H49.687L31.9999 46.5654Z" fill="#FC6D26"/>
<path d="M49.687 23.7189L51.9256 30.662C52.025 30.9706 52.0249 31.3031 51.9254 31.6117C51.8258 31.9203 51.6318 32.1892 51.3713 32.3798L31.9999 46.5712L49.687 23.7189Z" fill="#FCA326"/>
<path d="M49.6869 23.719H39.3655L43.8012 9.95809C43.8512 9.80405 43.9483 9.66988 44.0785 9.57475C44.2087 9.47963 44.3654 9.42841 44.5262 9.42841C44.687 9.42841 44.8437 9.47963 44.9739 9.57475C45.1041 9.66988 45.2012 9.80405 45.2512 9.95809L49.6869 23.719Z" fill="#E24329"/>
</g>
<g filter="url(#filter1_d_28_864)">
<path d="M72.1012 16.384C72.0368 15.8126 71.7712 15.3698 71.3043 15.0559C70.8375 14.738 70.2499 14.579 69.5415 14.579C69.0344 14.579 68.5957 14.6595 68.2255 14.8205C67.8552 14.9774 67.5675 15.1948 67.3622 15.4725C67.161 15.7461 67.0604 16.0581 67.0604 16.4082C67.0604 16.702 67.1288 16.9555 67.2656 17.1688C67.4065 17.3822 67.5896 17.5612 67.815 17.7061C68.0444 17.847 68.2899 17.9657 68.5515 18.0623C68.8131 18.1549 69.0646 18.2313 69.3061 18.2917L70.5135 18.6056C70.9079 18.7022 71.3124 18.833 71.7269 18.998C72.1414 19.163 72.5258 19.3804 72.88 19.65C73.2341 19.9197 73.5199 20.2537 73.7372 20.6522C73.9586 21.0506 74.0692 21.5275 74.0692 22.0829C74.0692 22.7832 73.8881 23.405 73.5259 23.9483C73.1677 24.4916 72.6465 24.9203 71.9623 25.2342C71.2822 25.5481 70.4591 25.7051 69.4932 25.7051C68.5676 25.7051 67.7667 25.5582 67.0905 25.2644C66.4144 24.9706 65.8852 24.554 65.5028 24.0147C65.1205 23.4714 64.9092 22.8275 64.869 22.0829H66.7404C66.7766 22.5296 66.9215 22.9019 67.1751 23.1997C67.4326 23.4935 67.7606 23.7129 68.1591 23.8578C68.5615 23.9986 69.0022 24.0691 69.4812 24.0691C70.0084 24.0691 70.4773 23.9866 70.8878 23.8215C71.3023 23.6525 71.6283 23.4191 71.8658 23.1213C72.1032 22.8194 72.2219 22.4673 72.2219 22.0648C72.2219 21.6986 72.1173 21.3987 71.908 21.1653C71.7028 20.9319 71.423 20.7387 71.0689 20.5858C70.7187 20.4328 70.3223 20.298 69.8796 20.1813L68.4187 19.7828C67.4286 19.5132 66.6438 19.1168 66.0643 18.5936C65.4887 18.0704 65.201 17.3781 65.201 16.5169C65.201 15.8045 65.3942 15.1827 65.7805 14.6514C66.1669 14.1202 66.6901 13.7077 67.3501 13.4139C68.0102 13.1161 68.7547 12.9671 69.5838 12.9671C70.4209 12.9671 71.1594 13.114 71.7993 13.4078C72.4433 13.7016 72.9504 14.1061 73.3207 14.6213C73.6909 15.1324 73.8841 15.72 73.9002 16.384H72.1012ZM80.1499 25.687C79.2363 25.687 78.4495 25.4918 77.7895 25.1014C77.1335 24.707 76.6264 24.1536 76.2682 23.4412C75.914 22.7248 75.7369 21.8857 75.7369 20.9238C75.7369 19.974 75.914 19.1369 76.2682 18.4125C76.6264 17.688 77.1254 17.1226 77.7653 16.7161C78.4093 16.3096 79.1619 16.1063 80.0232 16.1063C80.5464 16.1063 81.0535 16.1929 81.5445 16.3659C82.0355 16.539 82.4762 16.8107 82.8665 17.1809C83.2569 17.5512 83.5648 18.0321 83.7902 18.6237C84.0156 19.2113 84.1283 19.9257 84.1283 20.7669V21.4068H76.7572V20.0545H82.3594C82.3594 19.5796 82.2629 19.159 82.0697 18.7928C81.8765 18.4225 81.6048 18.1307 81.2547 17.9174C80.9086 17.7041 80.5021 17.5975 80.0352 17.5975C79.5281 17.5975 79.0854 17.7222 78.7071 17.9718C78.3328 18.2173 78.043 18.5392 77.8378 18.9377C77.6366 19.3321 77.5359 19.7607 77.5359 20.2235V21.28C77.5359 21.8998 77.6446 22.427 77.8619 22.8617C78.0833 23.2963 78.3912 23.6284 78.7856 23.8578C79.18 24.0831 79.6408 24.1958 80.168 24.1958C80.5101 24.1958 80.822 24.1475 81.1038 24.0509C81.3855 23.9503 81.629 23.8014 81.8342 23.6042C82.0395 23.407 82.1965 23.1635 82.3051 22.8737L84.0136 23.1816C83.8767 23.6847 83.6312 24.1254 83.2771 24.5037C82.9269 24.878 82.4862 25.1698 81.955 25.3791C81.4277 25.5843 80.8261 25.687 80.1499 25.687ZM90.1275 25.687C89.2139 25.687 88.4271 25.4918 87.767 25.1014C87.111 24.707 86.6039 24.1536 86.2457 23.4412C85.8916 22.7248 85.7145 21.8857 85.7145 20.9238C85.7145 19.974 85.8916 19.1369 86.2457 18.4125C86.6039 17.688 87.103 17.1226 87.7429 16.7161C88.3868 16.3096 89.1394 16.1063 90.0007 16.1063C90.5239 16.1063 91.031 16.1929 91.522 16.3659C92.013 16.539 92.4537 16.8107 92.8441 17.1809C93.2345 17.5512 93.5424 18.0321 93.7677 18.6237C93.9931 19.2113 94.1058 19.9257 94.1058 20.7669V21.4068H86.7347V20.0545H92.337C92.337 19.5796 92.2404 19.159 92.0472 18.7928C91.854 18.4225 91.5824 18.1307 91.2322 17.9174C90.8861 17.7041 90.4796 17.5975 90.0128 17.5975C89.5057 17.5975 89.063 17.7222 88.6846 17.9718C88.3104 18.2173 88.0206 18.5392 87.8153 18.9377C87.6141 19.3321 87.5135 19.7607 87.5135 20.2235V21.28C87.5135 21.8998 87.6221 22.427 87.8395 22.8617C88.0608 23.2963 88.3687 23.6284 88.7631 23.8578C89.1575 24.0831 89.6184 24.1958 90.1456 24.1958C90.4877 24.1958 90.7996 24.1475 91.0813 24.0509C91.363 23.9503 91.6065 23.8014 91.8118 23.6042C92.017 23.407 92.174 23.1635 92.2827 22.8737L93.9911 23.1816C93.8543 23.6847 93.6088 24.1254 93.2546 24.5037C92.9045 24.878 92.4638 25.1698 91.9325 25.3791C91.4053 25.5843 90.8036 25.687 90.1275 25.687ZM100.608 25.4998V16.2271H102.34V17.7363H102.455C102.648 17.2252 102.964 16.8268 103.403 16.541C103.841 16.2512 104.367 16.1063 104.978 16.1063C105.598 16.1063 106.117 16.2512 106.536 16.541C106.958 16.8308 107.27 17.2292 107.472 17.7363H107.568C107.79 17.2413 108.142 16.8469 108.625 16.5531C109.108 16.2553 109.683 16.1063 110.351 16.1063C111.192 16.1063 111.879 16.37 112.41 16.8972C112.945 17.4244 113.213 18.2193 113.213 19.2818V25.4998H111.408V19.4508C111.408 18.823 111.237 18.3682 110.895 18.0865C110.552 17.8047 110.144 17.6639 109.669 17.6639C109.081 17.6639 108.625 17.845 108.299 18.2072C107.973 18.5654 107.81 19.0262 107.81 19.5897V25.4998H106.011V19.3361C106.011 18.833 105.854 18.4286 105.54 18.1227C105.226 17.8168 104.817 17.6639 104.314 17.6639C103.972 17.6639 103.656 17.7544 103.366 17.9355C103.081 18.1126 102.849 18.3601 102.672 18.6781C102.499 18.996 102.413 19.3643 102.413 19.7828V25.4998H100.608ZM119.628 25.687C118.715 25.687 117.928 25.4918 117.268 25.1014C116.612 24.707 116.105 24.1536 115.747 23.4412C115.393 22.7248 115.215 21.8857 115.215 20.9238C115.215 19.974 115.393 19.1369 115.747 18.4125C116.105 17.688 116.604 17.1226 117.244 16.7161C117.888 16.3096 118.64 16.1063 119.502 16.1063C120.025 16.1063 120.532 16.1929 121.023 16.3659C121.514 16.539 121.955 16.8107 122.345 17.1809C122.735 17.5512 123.043 18.0321 123.269 18.6237C123.494 19.2113 123.607 19.9257 123.607 20.7669V21.4068H116.236V20.0545H121.838C121.838 19.5796 121.741 19.159 121.548 18.7928C121.355 18.4225 121.083 18.1307 120.733 17.9174C120.387 17.7041 119.981 17.5975 119.514 17.5975C119.007 17.5975 118.564 17.7222 118.186 17.9718C117.811 18.2173 117.522 18.5392 117.316 18.9377C117.115 19.3321 117.014 19.7607 117.014 20.2235V21.28C117.014 21.8998 117.123 22.427 117.34 22.8617C117.562 23.2963 117.87 23.6284 118.264 23.8578C118.659 24.0831 119.119 24.1958 119.647 24.1958C119.989 24.1958 120.301 24.1475 120.582 24.0509C120.864 23.9503 121.107 23.8014 121.313 23.6042C121.518 23.407 121.675 23.1635 121.784 22.8737L123.492 23.1816C123.355 23.6847 123.11 24.1254 122.756 24.5037C122.405 24.878 121.965 25.1698 121.433 25.3791C120.906 25.5843 120.305 25.687 119.628 25.687ZM134.014 25.687C133.145 25.687 132.386 25.4877 131.739 25.0893C131.091 24.6909 130.587 24.1335 130.229 23.4171C129.871 22.7007 129.692 21.8636 129.692 20.9057C129.692 19.9438 129.871 19.1027 130.229 18.3823C130.587 17.6619 131.091 17.1024 131.739 16.704C132.386 16.3056 133.145 16.1063 134.014 16.1063C134.884 16.1063 135.642 16.3056 136.29 16.704C136.938 17.1024 137.441 17.6619 137.8 18.3823C138.158 19.1027 138.337 19.9438 138.337 20.9057C138.337 21.8636 138.158 22.7007 137.8 23.4171C137.441 24.1335 136.938 24.6909 136.29 25.0893C135.642 25.4877 134.884 25.687 134.014 25.687ZM134.02 24.1717C134.584 24.1717 135.051 24.0228 135.421 23.725C135.791 23.4271 136.065 23.0307 136.242 22.5357C136.423 22.0407 136.514 21.4953 136.514 20.8997C136.514 20.3081 136.423 19.7647 136.242 19.2697C136.065 18.7706 135.791 18.3702 135.421 18.0684C135.051 17.7665 134.584 17.6156 134.02 17.6156C133.453 17.6156 132.982 17.7665 132.608 18.0684C132.238 18.3702 131.962 18.7706 131.781 19.2697C131.604 19.7647 131.515 20.3081 131.515 20.8997C131.515 21.4953 131.604 22.0407 131.781 22.5357C131.962 23.0307 132.238 23.4271 132.608 23.725C132.982 24.0228 133.453 24.1717 134.02 24.1717ZM142.157 19.9941V25.4998H140.352V16.2271H142.084V17.7363H142.199C142.412 17.2453 142.746 16.8509 143.201 16.5531C143.66 16.2553 144.237 16.1063 144.934 16.1063C145.566 16.1063 146.119 16.2392 146.594 16.5048C147.069 16.7664 147.437 17.1568 147.699 17.676C147.96 18.1951 148.091 18.8371 148.091 19.6017V25.4998H146.286V19.8191C146.286 19.1469 146.111 18.6217 145.761 18.2434C145.411 17.8611 144.93 17.6699 144.318 17.6699C143.899 17.6699 143.527 17.7605 143.201 17.9416C142.879 18.1227 142.624 18.3883 142.434 18.7385C142.249 19.0846 142.157 19.5031 142.157 19.9941Z" fill="#E8E8E8"/>
<path d="M73.049 36.1749C72.9806 35.9213 72.88 35.698 72.7471 35.5048C72.6143 35.3076 72.4513 35.1406 72.2582 35.0037C72.065 34.8669 71.8436 34.7643 71.5941 34.6958C71.3446 34.6234 71.0709 34.5872 70.7731 34.5872C70.1734 34.5872 69.6542 34.7321 69.2155 35.0218C68.7809 35.3116 68.4448 35.7342 68.2074 36.2896C67.9699 36.841 67.8512 37.5111 67.8512 38.2999C67.8512 39.0927 67.9659 39.7689 68.1953 40.3283C68.4247 40.8877 68.7567 41.3143 69.1914 41.6081C69.6261 41.9019 70.1533 42.0488 70.7731 42.0488C71.3204 42.0488 71.7832 41.9603 72.1616 41.7832C72.5439 41.6021 72.8337 41.3465 73.0309 41.0165C73.2281 40.6865 73.3267 40.2981 73.3267 39.8514L73.8821 39.9178H70.8757V37.7385H76.2063V39.3745C76.2063 40.4812 75.9709 41.429 75.5 42.2179C75.0331 43.0067 74.3892 43.6124 73.5682 44.035C72.7512 44.4576 71.8114 44.6688 70.7489 44.6688C69.5697 44.6688 68.5334 44.4133 67.6399 43.9022C66.7464 43.391 66.0502 42.6626 65.5511 41.7168C65.0521 40.767 64.8025 39.6401 64.8025 38.3361C64.8025 37.3219 64.9535 36.4224 65.2553 35.6376C65.5572 34.8488 65.9777 34.1807 66.517 33.6333C67.0604 33.086 67.6882 32.6715 68.4006 32.3897C69.1169 32.108 69.8877 31.9671 70.7127 31.9671C71.4291 31.9671 72.0952 32.0698 72.7109 32.275C73.3307 32.4803 73.8781 32.7701 74.353 33.1443C74.8319 33.5186 75.2203 33.9634 75.5181 34.4785C75.8159 34.9937 76.0011 35.5591 76.0735 36.1749H73.049ZM78.5486 44.4998V35.2271H81.5007V44.4998H78.5486ZM80.0277 34.1465C79.6131 34.1465 79.257 34.0096 78.9591 33.736C78.6613 33.4583 78.5124 33.1242 78.5124 32.7338C78.5124 32.3475 78.6613 32.0175 78.9591 31.7438C79.257 31.4661 79.6131 31.3272 80.0277 31.3272C80.4462 31.3272 80.8024 31.4661 81.0962 31.7438C81.394 32.0175 81.543 32.3475 81.543 32.7338C81.543 33.1242 81.394 33.4583 81.0962 33.736C80.8024 34.0096 80.4462 34.1465 80.0277 34.1465ZM88.6137 35.2271V37.4004H82.7639V35.2271H88.6137ZM83.9894 33.0055H86.9415V41.584C86.9415 41.7651 86.9696 41.912 87.026 42.0247C87.0864 42.1333 87.1729 42.2118 87.2856 42.2601C87.3983 42.3044 87.5331 42.3265 87.6901 42.3265C87.8027 42.3265 87.9215 42.3165 88.0462 42.2963C88.175 42.2722 88.2716 42.2521 88.336 42.236L88.7827 44.367C88.6419 44.4072 88.4427 44.4576 88.1851 44.5179C87.9315 44.5783 87.6277 44.6165 87.2735 44.6326C86.5813 44.6648 85.9876 44.5843 85.4926 44.3911C85.0016 44.1939 84.6253 43.8881 84.3637 43.4735C84.1061 43.059 83.9814 42.5378 83.9894 41.91V33.0055ZM90.3191 44.4998V32.1362H93.3074V42.073H98.4509V44.4998H90.3191ZM102.612 44.6568C102.02 44.6568 101.495 44.5582 101.036 44.361C100.581 44.1597 100.221 43.8579 99.9556 43.4554C99.694 43.0489 99.5632 42.5398 99.5632 41.9281C99.5632 41.4129 99.6537 40.9783 99.8349 40.6241C100.016 40.2699 100.265 39.9822 100.583 39.7608C100.901 39.5395 101.268 39.3724 101.682 39.2598C102.097 39.143 102.539 39.0646 103.01 39.0243C103.538 38.976 103.962 38.9257 104.284 38.8734C104.606 38.817 104.839 38.7386 104.984 38.638C105.133 38.5333 105.208 38.3864 105.208 38.1973V38.1671C105.208 37.8572 105.101 37.6177 104.888 37.4487C104.674 37.2796 104.387 37.1951 104.024 37.1951C103.634 37.1951 103.32 37.2796 103.083 37.4487C102.845 37.6177 102.694 37.8511 102.63 38.149L99.9073 38.0524C99.9878 37.4889 100.195 36.9858 100.529 36.5431C100.867 36.0964 101.33 35.7463 101.918 35.4927C102.509 35.2351 103.22 35.1063 104.049 35.1063C104.64 35.1063 105.186 35.1768 105.685 35.3176C106.184 35.4545 106.618 35.6557 106.989 35.9213C107.359 36.1829 107.645 36.5049 107.846 36.8872C108.051 37.2696 108.154 37.7063 108.154 38.1973V44.4998H105.377V43.2079H105.304C105.139 43.5218 104.928 43.7875 104.67 44.0048C104.417 44.2221 104.117 44.3851 103.771 44.4938C103.429 44.6024 103.042 44.6568 102.612 44.6568ZM103.523 42.725C103.841 42.725 104.127 42.6606 104.381 42.5318C104.638 42.403 104.843 42.2259 104.996 42.0005C105.149 41.7711 105.226 41.5055 105.226 41.2036V40.3223C105.141 40.3665 105.039 40.4068 104.918 40.443C104.801 40.4792 104.672 40.5134 104.532 40.5456C104.391 40.5778 104.246 40.606 104.097 40.6301C103.948 40.6543 103.805 40.6764 103.668 40.6965C103.391 40.7408 103.153 40.8092 102.956 40.9018C102.763 40.9944 102.614 41.1151 102.509 41.264C102.409 41.4089 102.358 41.582 102.358 41.7832C102.358 42.0891 102.467 42.3225 102.684 42.4835C102.906 42.6445 103.185 42.725 103.523 42.725ZM109.959 44.4998V32.1362H112.911V36.8148H112.971C113.092 36.5331 113.263 36.2614 113.484 35.9998C113.71 35.7382 113.995 35.5249 114.342 35.3599C114.692 35.1909 115.11 35.1063 115.597 35.1063C116.241 35.1063 116.843 35.2754 117.402 35.6135C117.966 35.9515 118.421 36.4727 118.767 37.177C119.113 37.8813 119.286 38.7788 119.286 39.8695C119.286 40.9199 119.119 41.7993 118.785 42.5076C118.455 43.216 118.008 43.7472 117.445 44.1014C116.885 44.4555 116.263 44.6326 115.579 44.6326C115.112 44.6326 114.708 44.5562 114.366 44.4032C114.024 44.2503 113.736 44.0491 113.502 43.7995C113.273 43.55 113.096 43.2824 112.971 42.9966H112.881V44.4998H109.959ZM112.85 39.8635C112.85 40.3625 112.917 40.7972 113.05 41.1674C113.187 41.5377 113.382 41.8255 113.635 42.0307C113.893 42.2319 114.201 42.3326 114.559 42.3326C114.921 42.3326 115.229 42.2319 115.483 42.0307C115.736 41.8255 115.927 41.5377 116.056 41.1674C116.189 40.7972 116.255 40.3625 116.255 39.8635C116.255 39.3644 116.189 38.9318 116.056 38.5655C115.927 38.1993 115.736 37.9155 115.483 37.7143C115.233 37.5131 114.925 37.4125 114.559 37.4125C114.197 37.4125 113.889 37.5111 113.635 37.7083C113.382 37.9055 113.187 38.1872 113.05 38.5534C112.917 38.9197 112.85 39.3563 112.85 39.8635Z" fill="url(#paint1_linear_28_864)"/>
</g>
<rect x="1.04963" y="1.04982" width="159.9" height="53.9" rx="6.95" stroke="white" stroke-opacity="0.15" stroke-width="2.1"/>
<defs>
<filter id="filter0_d_28_864" x="6.28535" y="2.28553" width="51.4291" height="51.4285" filterUnits="userSpaceOnUse" color-interpolation-filters="sRGB">
<feFlood flood-opacity="0" result="BackgroundImageFix"/>
<feColorMatrix in="SourceAlpha" type="matrix" values="0 0 0 0 0 0 0 0 0 0 0 0 0 0 0 0 0 0 127 0" result="hardAlpha"/>
<feOffset/>
<feGaussianBlur stdDeviation="2.85714"/>
<feComposite in2="hardAlpha" operator="out"/>
<feColorMatrix type="matrix" values="0 0 0 0 0 0 0 0 0 0 0 0 0 0 0 0 0 0 0.25 0"/>
<feBlend mode="normal" in2="BackgroundImageFix" result="effect1_dropShadow_28_864"/>
<feBlend mode="normal" in="SourceGraphic" in2="effect1_dropShadow_28_864" result="shape"/>
</filter>
<filter id="filter1_d_28_864" x="58.3996" y="2.89982" width="97.2" height="50.1999" filterUnits="userSpaceOnUse" color-interpolation-filters="sRGB">
<feFlood flood-opacity="0" result="BackgroundImageFix"/>
<feColorMatrix in="SourceAlpha" type="matrix" values="0 0 0 0 0 0 0 0 0 0 0 0 0 0 0 0 0 0 127 0" result="hardAlpha"/>
<feOffset/>
<feGaussianBlur stdDeviation="2.8"/>
<feComposite in2="hardAlpha" operator="out"/>
<feColorMatrix type="matrix" values="0 0 0 0 0 0 0 0 0 0 0 0 0 0 0 0 0 0 0.25 0"/>
<feBlend mode="normal" in2="BackgroundImageFix" result="effect1_dropShadow_28_864"/>
<feBlend mode="normal" in="SourceGraphic" in2="effect1_dropShadow_28_864" result="shape"/>
</filter>
<linearGradient id="paint0_linear_28_864" x1="80.9996" y1="-0.000183105" x2="80.9996" y2="55.9998" gradientUnits="userSpaceOnUse">
<stop stop-color="#2E0E09"/>
<stop offset="1" stop-color="#1F1506"/>
</linearGradient>
<linearGradient id="paint1_linear_28_864" x1="91.9996" y1="29.4998" x2="91.9996" y2="47.4998" gradientUnits="userSpaceOnUse">
<stop stop-color="#E06955"/>
<stop offset="1" stop-color="#F5B253"/>
</linearGradient>
</defs>
</svg>
