<svg width="201" height="56" viewBox="0 0 201 56" fill="none" xmlns="http://www.w3.org/2000/svg">
<rect x="-0.000366211" y="-0.000183105" width="201" height="56" rx="8" fill="url(#paint0_linear_28_832)"/>
<g filter="url(#filter0_d_28_832)">
<path d="M21.6256 19.725C21.6256 19.725 21.6565 24.1787 23.9185 28.7849C26.2424 33.2187 29.4466 36.0668 32.0899 37.2013C34.8211 35.9105 37.4594 33.6701 38.8993 31.256H31.4015C29.4614 29.6305 27.9349 26.9337 27.5845 23.8166H49.5803C48.4957 28.8283 46.1941 33.3861 44.0015 36.2887C40.9581 40.3133 36.8315 43.3848 32.106 45.1428H32.0366C24.1476 41.9649 19.9034 36.9595 17.1029 31.3118C15.3064 27.6925 13.4282 21.1211 13.4282 12.2856H50.5709C50.5769 14.7739 50.4115 17.2596 50.0755 19.725H21.6256Z" fill="#F5C400"/>
</g>
<g filter="url(#filter1_d_28_832)">
<path d="M74.9428 16.6475H73.1701C73.1019 16.2688 72.975 15.9354 72.7894 15.6475C72.6038 15.3597 72.3765 15.1153 72.1076 14.9146C71.8386 14.7138 71.5375 14.5623 71.2042 14.46C70.8746 14.3578 70.5243 14.3066 70.153 14.3066C69.4826 14.3066 68.8822 14.4752 68.3519 14.8123C67.8254 15.1494 67.4087 15.6438 67.1019 16.2953C66.7989 16.9468 66.6474 17.7422 66.6474 18.6816C66.6474 19.6286 66.7989 20.4278 67.1019 21.0794C67.4087 21.7309 67.8273 22.2233 68.3576 22.5566C68.8879 22.89 69.4845 23.0566 70.1474 23.0566C70.5148 23.0566 70.8633 23.0074 71.1928 22.9089C71.5261 22.8066 71.8273 22.657 72.0962 22.46C72.3652 22.2631 72.5924 22.0225 72.778 21.7384C72.9674 21.4506 73.0981 21.121 73.1701 20.7498L74.9428 20.7555C74.8481 21.3275 74.6644 21.854 74.3917 22.335C74.1227 22.8123 73.7761 23.2252 73.3519 23.5737C72.9314 23.9184 72.4504 24.1854 71.9087 24.3748C71.3671 24.5642 70.7761 24.6589 70.136 24.6589C69.1284 24.6589 68.2307 24.4203 67.4428 23.943C66.6549 23.4619 66.0337 22.7744 65.5792 21.8805C65.1284 20.9866 64.903 19.9203 64.903 18.6816C64.903 17.4392 65.1303 16.3729 65.5849 15.4828C66.0394 14.5888 66.6606 13.9032 67.4485 13.426C68.2364 12.9449 69.1322 12.7044 70.136 12.7044C70.7534 12.7044 71.3292 12.7934 71.8633 12.9714C72.4011 13.1456 72.8841 13.4032 73.3121 13.7441C73.7402 14.0813 74.0943 14.4941 74.3746 14.9828C74.6549 15.4676 74.8443 16.0225 74.9428 16.6475ZM78.6062 19.318V24.4998H76.9073V12.8635H78.5834V17.193H78.6914C78.8959 16.7233 79.2084 16.3502 79.6289 16.0737C80.0493 15.7972 80.5986 15.6589 81.2766 15.6589C81.8751 15.6589 82.3978 15.782 82.8448 16.0282C83.2956 16.2744 83.644 16.6419 83.8903 17.1305C84.1403 17.6153 84.2653 18.2214 84.2653 18.9487V24.4998H82.5664V19.1532C82.5664 18.5131 82.4016 18.0169 82.0721 17.6646C81.7425 17.3085 81.2842 17.1305 80.6971 17.1305C80.2956 17.1305 79.9357 17.2157 79.6175 17.3862C79.3031 17.5566 79.055 17.8066 78.8732 18.1362C78.6952 18.4619 78.6062 18.8559 78.6062 19.318ZM89.0721 24.693C88.519 24.693 88.019 24.5907 87.5721 24.3862C87.1251 24.1778 86.7709 23.8767 86.5096 23.4828C86.252 23.0888 86.1232 22.6059 86.1232 22.0339C86.1232 21.5415 86.2179 21.1362 86.4073 20.818C86.5967 20.4998 86.8524 20.2479 87.1743 20.0623C87.4963 19.8767 87.8562 19.7366 88.2539 19.6419C88.6516 19.5472 89.0569 19.4752 89.4698 19.4259C89.9925 19.3653 90.4168 19.3161 90.7425 19.2782C91.0683 19.2366 91.305 19.1703 91.4528 19.0794C91.6005 18.9885 91.6743 18.8407 91.6743 18.6362V18.5964C91.6743 18.1002 91.5342 17.7157 91.2539 17.443C90.9774 17.1703 90.5645 17.0339 90.0153 17.0339C89.4433 17.0339 88.9925 17.1608 88.663 17.4146C88.3372 17.6646 88.1118 17.943 87.9868 18.2498L86.3903 17.8862C86.5796 17.3559 86.8562 16.9278 87.2198 16.6021C87.5872 16.2725 88.0096 16.0339 88.4868 15.8862C88.9641 15.7347 89.466 15.6589 89.9925 15.6589C90.341 15.6589 90.7103 15.7006 91.1005 15.7839C91.4944 15.8635 91.8618 16.0112 92.2028 16.2271C92.5474 16.443 92.8296 16.7517 93.0493 17.1532C93.269 17.551 93.3789 18.068 93.3789 18.7044V24.4998H91.7198V23.3066H91.6516C91.5418 23.5263 91.377 23.7422 91.1573 23.9544C90.9376 24.1665 90.6554 24.3426 90.3107 24.4828C89.966 24.6229 89.5531 24.693 89.0721 24.693ZM89.4414 23.3294C89.9111 23.3294 90.3126 23.2366 90.6459 23.0509C90.9831 22.8653 91.2387 22.6229 91.413 22.3237C91.591 22.0206 91.68 21.6968 91.68 21.3521V20.2271C91.6194 20.2877 91.502 20.3445 91.3278 20.3975C91.1573 20.4468 90.9622 20.4903 90.7425 20.5282C90.5228 20.5623 90.3088 20.5945 90.1005 20.6248C89.8921 20.6513 89.7179 20.6741 89.5778 20.693C89.2482 20.7347 88.9471 20.8047 88.6743 20.9032C88.4054 21.0017 88.1895 21.1438 88.0266 21.3294C87.8675 21.5112 87.788 21.7536 87.788 22.0566C87.788 22.4771 87.9433 22.7953 88.2539 23.0112C88.5645 23.2233 88.9603 23.3294 89.4414 23.3294ZM99.7155 15.7725V17.1362H94.9485V15.7725H99.7155ZM96.2269 13.6816H97.9258V21.9373C97.9258 22.2669 97.975 22.515 98.0735 22.6816C98.172 22.8445 98.2989 22.9563 98.4542 23.0169C98.6133 23.0737 98.7856 23.1021 98.9712 23.1021C99.1076 23.1021 99.2269 23.0926 99.3292 23.0737C99.4314 23.0547 99.511 23.0396 99.5678 23.0282L99.8746 24.4316C99.7761 24.4695 99.636 24.5074 99.4542 24.5453C99.2724 24.5869 99.0451 24.6097 98.7724 24.6134C98.3254 24.621 97.9087 24.5415 97.5224 24.3748C97.136 24.2081 96.8235 23.9506 96.5849 23.6021C96.3462 23.2536 96.2269 22.8161 96.2269 22.2896V13.6816ZM107.721 24.4998L105.153 15.7725H106.909L108.619 22.1816H108.704L110.42 15.7725H112.176L113.88 22.1532H113.966L115.664 15.7725H117.42L114.858 24.4998H113.125L111.352 18.1987H111.221L109.448 24.4998H107.721ZM119.032 24.4998V15.7725H120.731V24.4998H119.032ZM119.89 14.426C119.595 14.426 119.341 14.3275 119.129 14.1305C118.921 13.9297 118.816 13.6911 118.816 13.4146C118.816 13.1343 118.921 12.8956 119.129 12.6987C119.341 12.4979 119.595 12.3975 119.89 12.3975C120.186 12.3975 120.438 12.4979 120.646 12.6987C120.858 12.8956 120.964 13.1343 120.964 13.4146C120.964 13.6911 120.858 13.9297 120.646 14.1305C120.438 14.3275 120.186 14.426 119.89 14.426ZM127.091 15.7725V17.1362H122.323V15.7725H127.091ZM123.602 13.6816H125.301V21.9373C125.301 22.2669 125.35 22.515 125.448 22.6816C125.547 22.8445 125.674 22.9563 125.829 23.0169C125.988 23.0737 126.161 23.1021 126.346 23.1021C126.483 23.1021 126.602 23.0926 126.704 23.0737C126.806 23.0547 126.886 23.0396 126.943 23.0282L127.25 24.4316C127.151 24.4695 127.011 24.5074 126.829 24.5453C126.647 24.5869 126.42 24.6097 126.147 24.6134C125.7 24.621 125.284 24.5415 124.897 24.3748C124.511 24.2081 124.198 23.9506 123.96 23.6021C123.721 23.2536 123.602 22.8161 123.602 22.2896V13.6816ZM130.856 19.318V24.4998H129.157V12.8635H130.833V17.193H130.941C131.146 16.7233 131.458 16.3502 131.879 16.0737C132.299 15.7972 132.849 15.6589 133.527 15.6589C134.125 15.6589 134.648 15.782 135.095 16.0282C135.546 16.2744 135.894 16.6419 136.14 17.1305C136.39 17.6153 136.515 18.2214 136.515 18.9487V24.4998H134.816V19.1532C134.816 18.5131 134.652 18.0169 134.322 17.6646C133.993 17.3085 133.534 17.1305 132.947 17.1305C132.546 17.1305 132.186 17.2157 131.868 17.3862C131.553 17.5566 131.305 17.8066 131.123 18.1362C130.945 18.4619 130.856 18.8559 130.856 19.318ZM143.017 24.4998V15.7725H144.647V17.193H144.755C144.937 16.7119 145.234 16.3369 145.647 16.068C146.06 15.7953 146.555 15.6589 147.13 15.6589C147.714 15.6589 148.202 15.7953 148.596 16.068C148.994 16.3407 149.287 16.7157 149.477 17.193H149.568C149.776 16.7271 150.108 16.3559 150.562 16.0794C151.017 15.7991 151.558 15.6589 152.187 15.6589C152.979 15.6589 153.625 15.907 154.125 16.4032C154.628 16.8994 154.88 17.6475 154.88 18.6475V24.4998H153.181V18.8066C153.181 18.2157 153.02 17.7877 152.698 17.5225C152.377 17.2574 151.992 17.1248 151.545 17.1248C150.992 17.1248 150.562 17.2953 150.255 17.6362C149.948 17.9733 149.795 18.407 149.795 18.9373V24.4998H148.102V18.6987C148.102 18.2252 147.954 17.8445 147.659 17.5566C147.363 17.2688 146.979 17.1248 146.505 17.1248C146.183 17.1248 145.886 17.21 145.613 17.3805C145.344 17.5472 145.127 17.7801 144.96 18.0794C144.797 18.3786 144.716 18.7252 144.716 19.1191V24.4998H143.017ZM160.919 24.6759C160.059 24.6759 159.318 24.4922 158.697 24.1248C158.08 23.7536 157.602 23.2328 157.265 22.5623C156.932 21.8881 156.765 21.0983 156.765 20.193C156.765 19.2991 156.932 18.5112 157.265 17.8294C157.602 17.1475 158.072 16.6153 158.674 16.2328C159.28 15.8502 159.989 15.6589 160.799 15.6589C161.292 15.6589 161.769 15.7403 162.231 15.9032C162.693 16.0661 163.108 16.3218 163.475 16.6703C163.843 17.0188 164.133 17.4714 164.345 18.0282C164.557 18.5813 164.663 19.2536 164.663 20.0453V20.6475H157.725V19.3748H162.998C162.998 18.9278 162.907 18.532 162.725 18.1873C162.544 17.8388 162.288 17.5642 161.958 17.3635C161.633 17.1627 161.25 17.0623 160.811 17.0623C160.333 17.0623 159.917 17.1797 159.561 17.4146C159.208 17.6456 158.936 17.9487 158.743 18.3237C158.553 18.6949 158.458 19.0983 158.458 19.5339V20.5282C158.458 21.1116 158.561 21.6078 158.765 22.0169C158.974 22.4259 159.263 22.7384 159.635 22.9544C160.006 23.1665 160.439 23.2725 160.936 23.2725C161.258 23.2725 161.551 23.2271 161.816 23.1362C162.082 23.0415 162.311 22.9013 162.504 22.7157C162.697 22.5301 162.845 22.3009 162.947 22.0282L164.555 22.318C164.426 22.7915 164.195 23.2063 163.862 23.5623C163.532 23.9146 163.118 24.1892 162.618 24.3862C162.121 24.5794 161.555 24.6759 160.919 24.6759ZM174.458 24.6759C173.64 24.6759 172.926 24.4884 172.316 24.1134C171.707 23.7384 171.233 23.2138 170.896 22.5396C170.559 21.8653 170.39 21.0775 170.39 20.1759C170.39 19.2706 170.559 18.479 170.896 17.801C171.233 17.1229 171.707 16.5964 172.316 16.2214C172.926 15.8464 173.64 15.6589 174.458 15.6589C175.277 15.6589 175.991 15.8464 176.6 16.2214C177.21 16.5964 177.684 17.1229 178.021 17.801C178.358 18.479 178.527 19.2706 178.527 20.1759C178.527 21.0775 178.358 21.8653 178.021 22.5396C177.684 23.2138 177.21 23.7384 176.6 24.1134C175.991 24.4884 175.277 24.6759 174.458 24.6759ZM174.464 23.2498C174.994 23.2498 175.434 23.1097 175.782 22.8294C176.131 22.5491 176.388 22.1759 176.555 21.71C176.725 21.2441 176.811 20.7309 176.811 20.1703C176.811 19.6135 176.725 19.1021 176.555 18.6362C176.388 18.1665 176.131 17.7896 175.782 17.5055C175.434 17.2214 174.994 17.0794 174.464 17.0794C173.93 17.0794 173.487 17.2214 173.135 17.5055C172.786 17.7896 172.527 18.1665 172.356 18.6362C172.189 19.1021 172.106 19.6135 172.106 20.1703C172.106 20.7309 172.189 21.2441 172.356 21.71C172.527 22.1759 172.786 22.5491 173.135 22.8294C173.487 23.1097 173.93 23.2498 174.464 23.2498ZM182.122 19.318V24.4998H180.423V15.7725H182.054V17.193H182.162C182.362 16.7309 182.677 16.3597 183.105 16.0794C183.537 15.7991 184.08 15.6589 184.735 15.6589C185.33 15.6589 185.851 15.7839 186.298 16.0339C186.745 16.2801 187.091 16.6475 187.338 17.1362C187.584 17.6248 187.707 18.229 187.707 18.9487V24.4998H186.008V19.1532C186.008 18.5206 185.843 18.0263 185.514 17.6703C185.184 17.3104 184.732 17.1305 184.156 17.1305C183.762 17.1305 183.412 17.2157 183.105 17.3862C182.802 17.5566 182.561 17.8066 182.383 18.1362C182.209 18.4619 182.122 18.8559 182.122 19.318Z" fill="#E8E8E8"/>
<path d="M73.049 35.1749C72.9806 34.9213 72.88 34.698 72.7471 34.5048C72.6143 34.3076 72.4513 34.1406 72.2582 34.0037C72.065 33.8669 71.8436 33.7643 71.5941 33.6958C71.3446 33.6234 71.0709 33.5872 70.7731 33.5872C70.1734 33.5872 69.6542 33.7321 69.2155 34.0218C68.7809 34.3116 68.4448 34.7342 68.2074 35.2896C67.9699 35.841 67.8512 36.5111 67.8512 37.2999C67.8512 38.0927 67.9659 38.7689 68.1953 39.3283C68.4247 39.8877 68.7567 40.3143 69.1914 40.6081C69.6261 40.9019 70.1533 41.0488 70.7731 41.0488C71.3204 41.0488 71.7832 40.9603 72.1616 40.7832C72.5439 40.6021 72.8337 40.3465 73.0309 40.0165C73.2281 39.6865 73.3267 39.2981 73.3267 38.8514L73.8821 38.9178H70.8757V36.7385H76.2063V38.3745C76.2063 39.4812 75.9709 40.429 75.5 41.2179C75.0331 42.0067 74.3892 42.6124 73.5682 43.035C72.7512 43.4576 71.8114 43.6688 70.7489 43.6688C69.5697 43.6688 68.5334 43.4133 67.6399 42.9022C66.7464 42.391 66.0502 41.6626 65.5511 40.7168C65.0521 39.767 64.8025 38.6401 64.8025 37.3361C64.8025 36.3219 64.9535 35.4224 65.2553 34.6376C65.5572 33.8488 65.9777 33.1807 66.517 32.6333C67.0604 32.086 67.6882 31.6715 68.4006 31.3897C69.1169 31.108 69.8877 30.9671 70.7127 30.9671C71.4291 30.9671 72.0952 31.0698 72.7109 31.275C73.3307 31.4803 73.8781 31.7701 74.353 32.1443C74.8319 32.5186 75.2203 32.9634 75.5181 33.4785C75.8159 33.9937 76.0011 34.5591 76.0735 35.1749H73.049ZM83.9502 39.4973V34.2271H86.8962V43.4998H84.083V41.7733H83.9864C83.7811 42.3407 83.431 42.7915 82.936 43.1255C82.445 43.4555 81.8513 43.6206 81.1551 43.6206C80.5232 43.6206 79.9678 43.4757 79.4889 43.1859C79.01 42.8961 78.6377 42.4916 78.3721 41.9725C78.1064 41.4493 77.9716 40.8375 77.9676 40.1372V34.2271H80.9196V39.5577C80.9237 40.0608 81.0565 40.4572 81.3181 40.747C81.5797 41.0367 81.9359 41.1816 82.3866 41.1816C82.6804 41.1816 82.944 41.1172 83.1775 40.9884C83.4149 40.8556 83.602 40.6645 83.7389 40.4149C83.8797 40.1614 83.9502 39.8555 83.9502 39.4973ZM88.7752 43.4998V34.2271H91.7273V43.4998H88.7752ZM90.2542 33.1465C89.8397 33.1465 89.4835 33.0096 89.1857 32.736C88.8879 32.4583 88.739 32.1242 88.739 31.7338C88.739 31.3475 88.8879 31.0175 89.1857 30.7438C89.4835 30.4661 89.8397 30.3272 90.2542 30.3272C90.6728 30.3272 91.029 30.4661 91.3228 30.7438C91.6206 31.0175 91.7695 31.3475 91.7695 31.7338C91.7695 32.1242 91.6206 32.4583 91.3228 32.736C91.029 33.0096 90.6728 33.1465 90.2542 33.1465ZM96.5583 31.1362V43.4998H93.6062V31.1362H96.5583ZM101.824 43.6326C101.14 43.6326 100.518 43.4555 99.9586 43.1014C99.3992 42.7472 98.9525 42.216 98.6184 41.5076C98.2844 40.7993 98.1173 39.9199 98.1173 38.8695C98.1173 37.7788 98.2904 36.8813 98.6365 36.177C98.9826 35.4727 99.4354 34.9515 99.9948 34.6135C100.558 34.2754 101.164 34.1063 101.812 34.1063C102.299 34.1063 102.715 34.1909 103.062 34.3599C103.408 34.5249 103.693 34.7382 103.919 34.9998C104.144 35.2614 104.315 35.5331 104.432 35.8148H104.492V31.1362H107.444V43.4998H104.523V41.9966H104.432C104.307 42.2824 104.13 42.55 103.901 42.7995C103.671 43.0491 103.384 43.2503 103.037 43.4032C102.695 43.5562 102.291 43.6326 101.824 43.6326ZM102.85 41.3326C103.208 41.3326 103.514 41.2319 103.768 41.0307C104.021 40.8255 104.217 40.5377 104.353 40.1674C104.49 39.7972 104.559 39.3625 104.559 38.8635C104.559 38.3563 104.49 37.9197 104.353 37.5534C104.221 37.1872 104.025 36.9055 103.768 36.7083C103.514 36.5111 103.208 36.4125 102.85 36.4125C102.484 36.4125 102.174 36.5131 101.921 36.7143C101.667 36.9155 101.474 37.1993 101.341 37.5655C101.212 37.9318 101.148 38.3644 101.148 38.8635C101.148 39.3625 101.214 39.7972 101.347 40.1674C101.48 40.5377 101.671 40.8255 101.921 41.0307C102.174 41.2319 102.484 41.3326 102.85 41.3326ZM113.646 43.6749C112.676 43.6749 111.839 43.4837 111.134 43.1014C110.434 42.715 109.895 42.1657 109.517 41.4533C109.142 40.7369 108.955 39.8857 108.955 38.8997C108.955 37.9418 109.144 37.1047 109.523 36.3883C109.901 35.6679 110.434 35.1085 111.122 34.71C111.811 34.3076 112.622 34.1063 113.555 34.1063C114.215 34.1063 114.819 34.209 115.366 34.4142C115.914 34.6195 116.387 34.9233 116.785 35.3258C117.183 35.7283 117.493 36.2253 117.715 36.8169C117.936 37.4045 118.047 38.0786 118.047 38.8393V39.5758H109.987V37.8613H115.3C115.296 37.5474 115.221 37.2677 115.077 37.0222C114.932 36.7767 114.732 36.5855 114.479 36.4487C114.229 36.3078 113.942 36.2374 113.616 36.2374C113.286 36.2374 112.99 36.3118 112.728 36.4608C112.467 36.6056 112.259 36.8049 112.106 37.0584C111.953 37.3079 111.873 37.5917 111.865 37.9096V39.6543C111.865 40.0326 111.939 40.3646 112.088 40.6504C112.237 40.9321 112.449 41.1514 112.722 41.3084C112.996 41.4654 113.322 41.5438 113.7 41.5438C113.962 41.5438 114.199 41.5076 114.413 41.4352C114.626 41.3627 114.809 41.2561 114.962 41.1152C115.115 40.9744 115.23 40.8013 115.306 40.596L118.017 40.6745C117.904 41.2822 117.656 41.8115 117.274 42.2622C116.896 42.709 116.399 43.0571 115.783 43.3066C115.167 43.5521 114.455 43.6749 113.646 43.6749ZM122.941 43.6326C122.257 43.6326 121.635 43.4555 121.076 43.1014C120.516 42.7472 120.07 42.216 119.736 41.5076C119.402 40.7993 119.235 39.9199 119.235 38.8695C119.235 37.7788 119.408 36.8813 119.754 36.177C120.1 35.4727 120.553 34.9515 121.112 34.6135C121.675 34.2754 122.281 34.1063 122.929 34.1063C123.416 34.1063 123.833 34.1909 124.179 34.3599C124.525 34.5249 124.811 34.7382 125.036 34.9998C125.261 35.2614 125.432 35.5331 125.549 35.8148H125.61V31.1362H128.562V43.4998H125.64V41.9966H125.549C125.424 42.2824 125.247 42.55 125.018 42.7995C124.789 43.0491 124.501 43.2503 124.155 43.4032C123.813 43.5562 123.408 43.6326 122.941 43.6326ZM123.967 41.3326C124.326 41.3326 124.632 41.2319 124.885 41.0307C125.139 40.8255 125.334 40.5377 125.471 40.1674C125.608 39.7972 125.676 39.3625 125.676 38.8635C125.676 38.3563 125.608 37.9197 125.471 37.5534C125.338 37.1872 125.143 36.9055 124.885 36.7083C124.632 36.5111 124.326 36.4125 123.967 36.4125C123.601 36.4125 123.291 36.5131 123.038 36.7143C122.784 36.9155 122.591 37.1993 122.458 37.5655C122.329 37.9318 122.265 38.3644 122.265 38.8635C122.265 39.3625 122.331 39.7972 122.464 40.1674C122.597 40.5377 122.788 40.8255 123.038 41.0307C123.291 41.2319 123.601 41.3326 123.967 41.3326Z" fill="#F5C400"/>
</g>
<rect x="1.04963" y="1.04982" width="198.9" height="53.9" rx="6.95" stroke="white" stroke-opacity="0.15" stroke-width="2.1"/>
<defs>
<filter id="filter0_d_28_832" x="6.28535" y="2.28553" width="51.4286" height="51.4286" filterUnits="userSpaceOnUse" color-interpolation-filters="sRGB">
<feFlood flood-opacity="0" result="BackgroundImageFix"/>
<feColorMatrix in="SourceAlpha" type="matrix" values="0 0 0 0 0 0 0 0 0 0 0 0 0 0 0 0 0 0 127 0" result="hardAlpha"/>
<feOffset/>
<feGaussianBlur stdDeviation="2.85714"/>
<feComposite in2="hardAlpha" operator="out"/>
<feColorMatrix type="matrix" values="0 0 0 0 0 0 0 0 0 0 0 0 0 0 0 0 0 0 0.25 0"/>
<feBlend mode="normal" in2="BackgroundImageFix" result="effect1_dropShadow_28_832"/>
<feBlend mode="normal" in="SourceGraphic" in2="effect1_dropShadow_28_832" result="shape"/>
</filter>
<filter id="filter1_d_28_832" x="58.3996" y="3.89982" width="136.2" height="48.2" filterUnits="userSpaceOnUse" color-interpolation-filters="sRGB">
<feFlood flood-opacity="0" result="BackgroundImageFix"/>
<feColorMatrix in="SourceAlpha" type="matrix" values="0 0 0 0 0 0 0 0 0 0 0 0 0 0 0 0 0 0 127 0" result="hardAlpha"/>
<feOffset/>
<feGaussianBlur stdDeviation="2.8"/>
<feComposite in2="hardAlpha" operator="out"/>
<feColorMatrix type="matrix" values="0 0 0 0 0 0 0 0 0 0 0 0 0 0 0 0 0 0 0.25 0"/>
<feBlend mode="normal" in2="BackgroundImageFix" result="effect1_dropShadow_28_832"/>
<feBlend mode="normal" in="SourceGraphic" in2="effect1_dropShadow_28_832" result="shape"/>
</filter>
<linearGradient id="paint0_linear_28_832" x1="100.5" y1="-0.000183105" x2="100.5" y2="55.9998" gradientUnits="userSpaceOnUse">
<stop stop-color="#322C16"/>
<stop offset="1" stop-color="#231F0F"/>
</linearGradient>
</defs>
</svg>
