<svg width="197" height="56" viewBox="0 0 197 56" fill="none" xmlns="http://www.w3.org/2000/svg">
<rect x="-0.000366211" y="-0.000183105" width="197" height="56" rx="8" fill="url(#paint0_linear_28_832)"/>
<g filter="url(#filter0_d_28_832)">
<path d="M21.6256 19.725C21.6256 19.725 21.6565 24.1787 23.9185 28.7849C26.2424 33.2187 29.4466 36.0668 32.0899 37.2013C34.8211 35.9105 37.4594 33.6701 38.8993 31.256H31.4015C29.4614 29.6305 27.9349 26.9337 27.5845 23.8166H49.5803C48.4957 28.8283 46.1941 33.3861 44.0015 36.2887C40.9581 40.3133 36.8315 43.3848 32.106 45.1428H32.0366C24.1476 41.9649 19.9034 36.9595 17.1029 31.3118C15.3064 27.6925 13.4282 21.1211 13.4282 12.2856H50.5709C50.5769 14.7739 50.4115 17.2596 50.0755 19.725H21.6256Z" fill="#F5C400"/>
</g>
<g filter="url(#filter1_d_28_832)">
<path d="M70.9428 16.6475H69.1701C69.1019 16.2688 68.975 15.9354 68.7894 15.6475C68.6038 15.3597 68.3765 15.1153 68.1076 14.9146C67.8386 14.7138 67.5375 14.5623 67.2042 14.46C66.8746 14.3578 66.5243 14.3066 66.153 14.3066C65.4826 14.3066 64.8822 14.4752 64.3519 14.8123C63.8254 15.1494 63.4087 15.6438 63.1019 16.2953C62.7989 16.9468 62.6474 17.7422 62.6474 18.6816C62.6474 19.6286 62.7989 20.4278 63.1019 21.0794C63.4087 21.7309 63.8273 22.2233 64.3576 22.5566C64.8879 22.89 65.4845 23.0566 66.1474 23.0566C66.5148 23.0566 66.8633 23.0074 67.1928 22.9089C67.5261 22.8066 67.8273 22.657 68.0962 22.46C68.3652 22.2631 68.5924 22.0225 68.778 21.7384C68.9674 21.4506 69.0981 21.121 69.1701 20.7498L70.9428 20.7555C70.8481 21.3275 70.6644 21.854 70.3917 22.335C70.1227 22.8123 69.7761 23.2252 69.3519 23.5737C68.9314 23.9184 68.4504 24.1854 67.9087 24.3748C67.3671 24.5642 66.7761 24.6589 66.136 24.6589C65.1284 24.6589 64.2307 24.4203 63.4428 23.943C62.6549 23.4619 62.0337 22.7744 61.5792 21.8805C61.1284 20.9866 60.903 19.9203 60.903 18.6816C60.903 17.4392 61.1303 16.3729 61.5849 15.4828C62.0394 14.5888 62.6606 13.9032 63.4485 13.426C64.2364 12.9449 65.1322 12.7044 66.136 12.7044C66.7534 12.7044 67.3292 12.7934 67.8633 12.9714C68.4011 13.1456 68.8841 13.4032 69.3121 13.7441C69.7402 14.0813 70.0943 14.4941 70.3746 14.9828C70.6549 15.4676 70.8443 16.0225 70.9428 16.6475ZM74.6062 19.318V24.4998H72.9073V12.8635H74.5834V17.193H74.6914C74.8959 16.7233 75.2084 16.3502 75.6289 16.0737C76.0493 15.7972 76.5986 15.6589 77.2766 15.6589C77.8751 15.6589 78.3978 15.782 78.8448 16.0282C79.2956 16.2744 79.644 16.6419 79.8903 17.1305C80.1403 17.6153 80.2653 18.2214 80.2653 18.9487V24.4998H78.5664V19.1532C78.5664 18.5131 78.4016 18.0169 78.0721 17.6646C77.7425 17.3085 77.2842 17.1305 76.6971 17.1305C76.2956 17.1305 75.9357 17.2157 75.6175 17.3862C75.3031 17.5566 75.055 17.8066 74.8732 18.1362C74.6952 18.4619 74.6062 18.8559 74.6062 19.318ZM85.0721 24.693C84.519 24.693 84.019 24.5907 83.5721 24.3862C83.1251 24.1778 82.7709 23.8767 82.5096 23.4828C82.252 23.0888 82.1232 22.6059 82.1232 22.0339C82.1232 21.5415 82.2179 21.1362 82.4073 20.818C82.5967 20.4998 82.8524 20.2479 83.1743 20.0623C83.4963 19.8767 83.8562 19.7366 84.2539 19.6419C84.6516 19.5472 85.0569 19.4752 85.4698 19.4259C85.9925 19.3653 86.4168 19.3161 86.7425 19.2782C87.0683 19.2366 87.305 19.1703 87.4528 19.0794C87.6005 18.9885 87.6743 18.8407 87.6743 18.6362V18.5964C87.6743 18.1002 87.5342 17.7157 87.2539 17.443C86.9774 17.1703 86.5645 17.0339 86.0153 17.0339C85.4433 17.0339 84.9925 17.1608 84.663 17.4146C84.3372 17.6646 84.1118 17.943 83.9868 18.2498L82.3903 17.8862C82.5796 17.3559 82.8562 16.9278 83.2198 16.6021C83.5872 16.2725 84.0096 16.0339 84.4868 15.8862C84.9641 15.7347 85.466 15.6589 85.9925 15.6589C86.341 15.6589 86.7103 15.7006 87.1005 15.7839C87.4944 15.8635 87.8618 16.0112 88.2028 16.2271C88.5474 16.443 88.8296 16.7517 89.0493 17.1532C89.269 17.551 89.3789 18.068 89.3789 18.7044V24.4998H87.7198V23.3066H87.6516C87.5418 23.5263 87.377 23.7422 87.1573 23.9544C86.9376 24.1665 86.6554 24.3426 86.3107 24.4828C85.966 24.6229 85.5531 24.693 85.0721 24.693ZM85.4414 23.3294C85.9111 23.3294 86.3126 23.2366 86.6459 23.0509C86.9831 22.8653 87.2387 22.6229 87.413 22.3237C87.591 22.0206 87.68 21.6968 87.68 21.3521V20.2271C87.6194 20.2877 87.502 20.3445 87.3278 20.3975C87.1573 20.4468 86.9622 20.4903 86.7425 20.5282C86.5228 20.5623 86.3088 20.5945 86.1005 20.6248C85.8921 20.6513 85.7179 20.6741 85.5778 20.693C85.2482 20.7347 84.9471 20.8047 84.6743 20.9032C84.4054 21.0017 84.1895 21.1438 84.0266 21.3294C83.8675 21.5112 83.788 21.7536 83.788 22.0566C83.788 22.4771 83.9433 22.7953 84.2539 23.0112C84.5645 23.2233 84.9603 23.3294 85.4414 23.3294ZM95.7155 15.7725V17.1362H90.9485V15.7725H95.7155ZM92.2269 13.6816H93.9258V21.9373C93.9258 22.2669 93.975 22.515 94.0735 22.6816C94.172 22.8445 94.2989 22.9563 94.4542 23.0169C94.6133 23.0737 94.7856 23.1021 94.9712 23.1021C95.1076 23.1021 95.2269 23.0926 95.3292 23.0737C95.4314 23.0547 95.511 23.0396 95.5678 23.0282L95.8746 24.4316C95.7761 24.4695 95.636 24.5074 95.4542 24.5453C95.2724 24.5869 95.0451 24.6097 94.7724 24.6134C94.3254 24.621 93.9087 24.5415 93.5224 24.3748C93.136 24.2081 92.8235 23.9506 92.5849 23.6021C92.3462 23.2536 92.2269 22.8161 92.2269 22.2896V13.6816ZM103.721 24.4998L101.153 15.7725H102.909L104.619 22.1816H104.704L106.42 15.7725H108.176L109.88 22.1532H109.966L111.664 15.7725H113.42L110.858 24.4998H109.125L107.352 18.1987H107.221L105.448 24.4998H103.721ZM115.032 24.4998V15.7725H116.731V24.4998H115.032ZM115.89 14.426C115.595 14.426 115.341 14.3275 115.129 14.1305C114.921 13.9297 114.816 13.6911 114.816 13.4146C114.816 13.1343 114.921 12.8956 115.129 12.6987C115.341 12.4979 115.595 12.3975 115.89 12.3975C116.186 12.3975 116.438 12.4979 116.646 12.6987C116.858 12.8956 116.964 13.1343 116.964 13.4146C116.964 13.6911 116.858 13.9297 116.646 14.1305C116.438 14.3275 116.186 14.426 115.89 14.426ZM123.091 15.7725V17.1362H118.323V15.7725H123.091ZM119.602 13.6816H121.301V21.9373C121.301 22.2669 121.35 22.515 121.448 22.6816C121.547 22.8445 121.674 22.9563 121.829 23.0169C121.988 23.0737 122.161 23.1021 122.346 23.1021C122.483 23.1021 122.602 23.0926 122.704 23.0737C122.806 23.0547 122.886 23.0396 122.943 23.0282L123.25 24.4316C123.151 24.4695 123.011 24.5074 122.829 24.5453C122.647 24.5869 122.42 24.6097 122.147 24.6134C121.7 24.621 121.284 24.5415 120.897 24.3748C120.511 24.2081 120.198 23.9506 119.96 23.6021C119.721 23.2536 119.602 22.8161 119.602 22.2896V13.6816ZM126.856 19.318V24.4998H125.157V12.8635H126.833V17.193H126.941C127.146 16.7233 127.458 16.3502 127.879 16.0737C128.299 15.7972 128.849 15.6589 129.527 15.6589C130.125 15.6589 130.648 15.782 131.095 16.0282C131.546 16.2744 131.894 16.6419 132.14 17.1305C132.39 17.6153 132.515 18.2214 132.515 18.9487V24.4998H130.816V19.1532C130.816 18.5131 130.652 18.0169 130.322 17.6646C129.993 17.3085 129.534 17.1305 128.947 17.1305C128.546 17.1305 128.186 17.2157 127.868 17.3862C127.553 17.5566 127.305 17.8066 127.123 18.1362C126.945 18.4619 126.856 18.8559 126.856 19.318ZM139.017 24.4998V15.7725H140.647V17.193H140.755C140.937 16.7119 141.234 16.3369 141.647 16.068C142.06 15.7953 142.555 15.6589 143.13 15.6589C143.714 15.6589 144.202 15.7953 144.596 16.068C144.994 16.3407 145.287 16.7157 145.477 17.193H145.568C145.776 16.7271 146.108 16.3559 146.562 16.0794C147.017 15.7991 147.558 15.6589 148.187 15.6589C148.979 15.6589 149.625 15.907 150.125 16.4032C150.628 16.8994 150.88 17.6475 150.88 18.6475V24.4998H149.181V18.8066C149.181 18.2157 149.02 17.7877 148.698 17.5225C148.377 17.2574 147.992 17.1248 147.545 17.1248C146.992 17.1248 146.562 17.2953 146.255 17.6362C145.948 17.9733 145.795 18.407 145.795 18.9373V24.4998H144.102V18.6987C144.102 18.2252 143.954 17.8445 143.659 17.5566C143.363 17.2688 142.979 17.1248 142.505 17.1248C142.183 17.1248 141.886 17.21 141.613 17.3805C141.344 17.5472 141.127 17.7801 140.96 18.0794C140.797 18.3786 140.716 18.7252 140.716 19.1191V24.4998H139.017ZM156.919 24.6759C156.059 24.6759 155.318 24.4922 154.697 24.1248C154.08 23.7536 153.602 23.2328 153.265 22.5623C152.932 21.8881 152.765 21.0983 152.765 20.193C152.765 19.2991 152.932 18.5112 153.265 17.8294C153.602 17.1475 154.072 16.6153 154.674 16.2328C155.28 15.8502 155.989 15.6589 156.799 15.6589C157.292 15.6589 157.769 15.7403 158.231 15.9032C158.693 16.0661 159.108 16.3218 159.475 16.6703C159.843 17.0188 160.133 17.4714 160.345 18.0282C160.557 18.5813 160.663 19.2536 160.663 20.0453V20.6475H153.725V19.3748H158.998C158.998 18.9278 158.907 18.532 158.725 18.1873C158.544 17.8388 158.288 17.5642 157.958 17.3635C157.633 17.1627 157.25 17.0623 156.811 17.0623C156.333 17.0623 155.917 17.1797 155.561 17.4146C155.208 17.6456 154.936 17.9487 154.743 18.3237C154.553 18.6949 154.458 19.0983 154.458 19.5339V20.5282C154.458 21.1116 154.561 21.6078 154.765 22.0169C154.974 22.4259 155.263 22.7384 155.635 22.9544C156.006 23.1665 156.439 23.2725 156.936 23.2725C157.258 23.2725 157.551 23.2271 157.816 23.1362C158.082 23.0415 158.311 22.9013 158.504 22.7157C158.697 22.5301 158.845 22.3009 158.947 22.0282L160.555 22.318C160.426 22.7915 160.195 23.2063 159.862 23.5623C159.532 23.9146 159.118 24.1892 158.618 24.3862C158.121 24.5794 157.555 24.6759 156.919 24.6759ZM170.458 24.6759C169.64 24.6759 168.926 24.4884 168.316 24.1134C167.707 23.7384 167.233 23.2138 166.896 22.5396C166.559 21.8653 166.39 21.0775 166.39 20.1759C166.39 19.2706 166.559 18.479 166.896 17.801C167.233 17.1229 167.707 16.5964 168.316 16.2214C168.926 15.8464 169.64 15.6589 170.458 15.6589C171.277 15.6589 171.991 15.8464 172.6 16.2214C173.21 16.5964 173.684 17.1229 174.021 17.801C174.358 18.479 174.527 19.2706 174.527 20.1759C174.527 21.0775 174.358 21.8653 174.021 22.5396C173.684 23.2138 173.21 23.7384 172.6 24.1134C171.991 24.4884 171.277 24.6759 170.458 24.6759ZM170.464 23.2498C170.994 23.2498 171.434 23.1097 171.782 22.8294C172.131 22.5491 172.388 22.1759 172.555 21.71C172.725 21.2441 172.811 20.7309 172.811 20.1703C172.811 19.6135 172.725 19.1021 172.555 18.6362C172.388 18.1665 172.131 17.7896 171.782 17.5055C171.434 17.2214 170.994 17.0794 170.464 17.0794C169.93 17.0794 169.487 17.2214 169.135 17.5055C168.786 17.7896 168.527 18.1665 168.356 18.6362C168.189 19.1021 168.106 19.6135 168.106 20.1703C168.106 20.7309 168.189 21.2441 168.356 21.71C168.527 22.1759 168.786 22.5491 169.135 22.8294C169.487 23.1097 169.93 23.2498 170.464 23.2498ZM178.122 19.318V24.4998H176.423V15.7725H178.054V17.193H178.162C178.362 16.7309 178.677 16.3597 179.105 16.0794C179.537 15.7991 180.08 15.6589 180.735 15.6589C181.33 15.6589 181.851 15.7839 182.298 16.0339C182.745 16.2801 183.091 16.6475 183.338 17.1362C183.584 17.6248 183.707 18.229 183.707 18.9487V24.4998H182.008V19.1532C182.008 18.5206 181.843 18.0263 181.514 17.6703C181.184 17.3104 180.732 17.1305 180.156 17.1305C179.762 17.1305 179.412 17.2157 179.105 17.3862C178.802 17.5566 178.561 17.8066 178.383 18.1362C178.209 18.4619 178.122 18.8559 178.122 19.318Z" fill="#E8E8E8"/>
<path d="M69.049 35.1749C68.9806 34.9213 68.88 34.698 68.7471 34.5048C68.6143 34.3076 68.4513 34.1406 68.2582 34.0037C68.065 33.8669 67.8436 33.7643 67.5941 33.6958C67.3446 33.6234 67.0709 33.5872 66.7731 33.5872C66.1734 33.5872 65.6542 33.7321 65.2155 34.0218C64.7809 34.3116 64.4448 34.7342 64.2074 35.2896C63.9699 35.841 63.8512 36.5111 63.8512 37.2999C63.8512 38.0927 63.9659 38.7689 64.1953 39.3283C64.4247 39.8877 64.7567 40.3143 65.1914 40.6081C65.6261 40.9019 66.1533 41.0488 66.7731 41.0488C67.3204 41.0488 67.7832 40.9603 68.1616 40.7832C68.5439 40.6021 68.8337 40.3465 69.0309 40.0165C69.2281 39.6865 69.3267 39.2981 69.3267 38.8514L69.8821 38.9178H66.8757V36.7385H72.2063V38.3745C72.2063 39.4812 71.9709 40.429 71.5 41.2179C71.0331 42.0067 70.3892 42.6124 69.5682 43.035C68.7512 43.4576 67.8114 43.6688 66.7489 43.6688C65.5697 43.6688 64.5334 43.4133 63.6399 42.9022C62.7464 42.391 62.0502 41.6626 61.5511 40.7168C61.0521 39.767 60.8025 38.6401 60.8025 37.3361C60.8025 36.3219 60.9535 35.4224 61.2553 34.6376C61.5572 33.8488 61.9777 33.1807 62.517 32.6333C63.0604 32.086 63.6882 31.6715 64.4006 31.3897C65.1169 31.108 65.8877 30.9671 66.7127 30.9671C67.4291 30.9671 68.0952 31.0698 68.7109 31.275C69.3307 31.4803 69.8781 31.7701 70.353 32.1443C70.8319 32.5186 71.2203 32.9634 71.5181 33.4785C71.8159 33.9937 72.0011 34.5591 72.0735 35.1749H69.049ZM79.9502 39.4973V34.2271H82.8962V43.4998H80.083V41.7733H79.9864C79.7811 42.3407 79.431 42.7915 78.936 43.1255C78.445 43.4555 77.8513 43.6206 77.1551 43.6206C76.5232 43.6206 75.9678 43.4757 75.4889 43.1859C75.01 42.8961 74.6377 42.4916 74.3721 41.9725C74.1064 41.4493 73.9716 40.8375 73.9676 40.1372V34.2271H76.9196V39.5577C76.9237 40.0608 77.0565 40.4572 77.3181 40.747C77.5797 41.0367 77.9359 41.1816 78.3866 41.1816C78.6804 41.1816 78.944 41.1172 79.1775 40.9884C79.4149 40.8556 79.602 40.6645 79.7389 40.4149C79.8797 40.1614 79.9502 39.8555 79.9502 39.4973ZM84.7752 43.4998V34.2271H87.7273V43.4998H84.7752ZM86.2542 33.1465C85.8397 33.1465 85.4835 33.0096 85.1857 32.736C84.8879 32.4583 84.739 32.1242 84.739 31.7338C84.739 31.3475 84.8879 31.0175 85.1857 30.7438C85.4835 30.4661 85.8397 30.3272 86.2542 30.3272C86.6728 30.3272 87.029 30.4661 87.3228 30.7438C87.6206 31.0175 87.7695 31.3475 87.7695 31.7338C87.7695 32.1242 87.6206 32.4583 87.3228 32.736C87.029 33.0096 86.6728 33.1465 86.2542 33.1465ZM92.5583 31.1362V43.4998H89.6062V31.1362H92.5583ZM97.824 43.6326C97.1398 43.6326 96.518 43.4555 95.9586 43.1014C95.3992 42.7472 94.9525 42.216 94.6184 41.5076C94.2844 40.7993 94.1173 39.9199 94.1173 38.8695C94.1173 37.7788 94.2904 36.8813 94.6365 36.177C94.9826 35.4727 95.4354 34.9515 95.9948 34.6135C96.5583 34.2754 97.164 34.1063 97.8119 34.1063C98.2989 34.1063 98.7155 34.1909 99.0616 34.3599C99.4077 34.5249 99.6935 34.7382 99.9188 34.9998C100.144 35.2614 100.315 35.5331 100.432 35.8148H100.492V31.1362H103.444V43.4998H100.523V41.9966H100.432C100.307 42.2824 100.13 42.55 99.9007 42.7995C99.6713 43.0491 99.3836 43.2503 99.0374 43.4032C98.6953 43.5562 98.2909 43.6326 97.824 43.6326ZM98.8503 41.3326C99.2085 41.3326 99.5144 41.2319 99.7679 41.0307C100.021 40.8255 100.217 40.5377 100.353 40.1674C100.49 39.7972 100.559 39.3625 100.559 38.8635C100.559 38.3563 100.49 37.9197 100.353 37.5534C100.221 37.1872 100.025 36.9055 99.7679 36.7083C99.5144 36.5111 99.2085 36.4125 98.8503 36.4125C98.4841 36.4125 98.1742 36.5131 97.9206 36.7143C97.6671 36.9155 97.4739 37.1993 97.3411 37.5655C97.2123 37.9318 97.1479 38.3644 97.1479 38.8635C97.1479 39.3625 97.2143 39.7972 97.3471 40.1674C97.4799 40.5377 97.6711 40.8255 97.9206 41.0307C98.1742 41.2319 98.4841 41.3326 98.8503 41.3326ZM109.646 43.6749C108.676 43.6749 107.839 43.4837 107.134 43.1014C106.434 42.715 105.895 42.1657 105.517 41.4533C105.142 40.7369 104.955 39.8857 104.955 38.8997C104.955 37.9418 105.144 37.1047 105.523 36.3883C105.901 35.6679 106.434 35.1085 107.122 34.71C107.811 34.3076 108.622 34.1063 109.555 34.1063C110.215 34.1063 110.819 34.209 111.366 34.4142C111.914 34.6195 112.387 34.9233 112.785 35.3258C113.183 35.7283 113.493 36.2253 113.715 36.8169C113.936 37.4045 114.047 38.0786 114.047 38.8393V39.5758H105.987V37.8613H111.3C111.296 37.5474 111.221 37.2677 111.077 37.0222C110.932 36.7767 110.732 36.5855 110.479 36.4487C110.229 36.3078 109.942 36.2374 109.616 36.2374C109.286 36.2374 108.99 36.3118 108.728 36.4608C108.467 36.6056 108.259 36.8049 108.106 37.0584C107.953 37.3079 107.873 37.5917 107.865 37.9096V39.6543C107.865 40.0326 107.939 40.3646 108.088 40.6504C108.237 40.9321 108.449 41.1514 108.722 41.3084C108.996 41.4654 109.322 41.5438 109.7 41.5438C109.962 41.5438 110.199 41.5076 110.413 41.4352C110.626 41.3627 110.809 41.2561 110.962 41.1152C111.115 40.9744 111.23 40.8013 111.306 40.596L114.017 40.6745C113.904 41.2822 113.656 41.8115 113.274 42.2622C112.896 42.709 112.399 43.0571 111.783 43.3066C111.167 43.5521 110.455 43.6749 109.646 43.6749ZM118.941 43.6326C118.257 43.6326 117.635 43.4555 117.076 43.1014C116.516 42.7472 116.07 42.216 115.736 41.5076C115.402 40.7993 115.235 39.9199 115.235 38.8695C115.235 37.7788 115.408 36.8813 115.754 36.177C116.1 35.4727 116.553 34.9515 117.112 34.6135C117.675 34.2754 118.281 34.1063 118.929 34.1063C119.416 34.1063 119.833 34.1909 120.179 34.3599C120.525 34.5249 120.811 34.7382 121.036 34.9998C121.261 35.2614 121.432 35.5331 121.549 35.8148H121.61V31.1362H124.562V43.4998H121.64V41.9966H121.549C121.424 42.2824 121.247 42.55 121.018 42.7995C120.789 43.0491 120.501 43.2503 120.155 43.4032C119.813 43.5562 119.408 43.6326 118.941 43.6326ZM119.967 41.3326C120.326 41.3326 120.632 41.2319 120.885 41.0307C121.139 40.8255 121.334 40.5377 121.471 40.1674C121.608 39.7972 121.676 39.3625 121.676 38.8635C121.676 38.3563 121.608 37.9197 121.471 37.5534C121.338 37.1872 121.143 36.9055 120.885 36.7083C120.632 36.5111 120.326 36.4125 119.967 36.4125C119.601 36.4125 119.291 36.5131 119.038 36.7143C118.784 36.9155 118.591 37.1993 118.458 37.5655C118.329 37.9318 118.265 38.3644 118.265 38.8635C118.265 39.3625 118.331 39.7972 118.464 40.1674C118.597 40.5377 118.788 40.8255 119.038 41.0307C119.291 41.2319 119.601 41.3326 119.967 41.3326Z" fill="#F5C400"/>
</g>
<rect x="1.04963" y="1.04982" width="194.9" height="53.9" rx="6.95" stroke="white" stroke-opacity="0.15" stroke-width="2.1"/>
<defs>
<filter id="filter0_d_28_832" x="6.28535" y="2.28553" width="51.4286" height="51.4286" filterUnits="userSpaceOnUse" color-interpolation-filters="sRGB">
<feFlood flood-opacity="0" result="BackgroundImageFix"/>
<feColorMatrix in="SourceAlpha" type="matrix" values="0 0 0 0 0 0 0 0 0 0 0 0 0 0 0 0 0 0 127 0" result="hardAlpha"/>
<feOffset/>
<feGaussianBlur stdDeviation="2.85714"/>
<feComposite in2="hardAlpha" operator="out"/>
<feColorMatrix type="matrix" values="0 0 0 0 0 0 0 0 0 0 0 0 0 0 0 0 0 0 0.25 0"/>
<feBlend mode="normal" in2="BackgroundImageFix" result="effect1_dropShadow_28_832"/>
<feBlend mode="normal" in="SourceGraphic" in2="effect1_dropShadow_28_832" result="shape"/>
</filter>
<filter id="filter1_d_28_832" x="54.3996" y="3.89982" width="136.2" height="48.2" filterUnits="userSpaceOnUse" color-interpolation-filters="sRGB">
<feFlood flood-opacity="0" result="BackgroundImageFix"/>
<feColorMatrix in="SourceAlpha" type="matrix" values="0 0 0 0 0 0 0 0 0 0 0 0 0 0 0 0 0 0 127 0" result="hardAlpha"/>
<feOffset/>
<feGaussianBlur stdDeviation="2.8"/>
<feComposite in2="hardAlpha" operator="out"/>
<feColorMatrix type="matrix" values="0 0 0 0 0 0 0 0 0 0 0 0 0 0 0 0 0 0 0.25 0"/>
<feBlend mode="normal" in2="BackgroundImageFix" result="effect1_dropShadow_28_832"/>
<feBlend mode="normal" in="SourceGraphic" in2="effect1_dropShadow_28_832" result="shape"/>
</filter>
<linearGradient id="paint0_linear_28_832" x1="98.4996" y1="-0.000183105" x2="98.4996" y2="55.9998" gradientUnits="userSpaceOnUse">
<stop stop-color="#322C16"/>
<stop offset="1" stop-color="#231F0F"/>
</linearGradient>
</defs>
</svg>
