<svg width="196" height="56" viewBox="0 0 196 56" fill="none" xmlns="http://www.w3.org/2000/svg">
<rect x="-0.000366211" y="-0.000244141" width="196" height="56" rx="8" fill="url(#paint0_linear_28_895)"/>
<g filter="url(#filter0_d_28_895)">
<path d="M50.4216 16.8555C49.8495 12.5577 46.1432 9.17069 41.7495 8.51438C41.0083 8.40348 38.1998 7.99988 31.6939 7.99988H31.6453C25.1377 7.99988 23.7415 8.40348 23.0003 8.51438C18.729 9.15251 14.8284 12.1959 13.882 16.5446C13.4268 18.6863 13.3782 21.0606 13.4628 23.2386C13.5833 26.3619 13.6067 29.4799 13.8874 32.5905C14.0814 34.6568 14.4199 36.7066 14.9003 38.7245C15.7999 42.4515 19.4415 45.5531 23.0092 46.8184C26.8291 48.138 30.937 48.3571 34.8731 47.4511C35.3061 47.3493 35.7337 47.2311 36.1559 47.0966C37.113 46.7893 38.2339 46.4457 39.058 45.8421C39.0693 45.8336 39.0785 45.8227 39.0851 45.8101C39.0916 45.7975 39.0953 45.7836 39.0957 45.7694V42.7551C39.0955 42.7418 39.0924 42.7288 39.0866 42.7169C39.0807 42.705 39.0723 42.6945 39.062 42.6863C39.0516 42.6781 39.0396 42.6724 39.0267 42.6695C39.0139 42.6667 39.0006 42.6667 38.9878 42.6697C36.466 43.2783 33.8818 43.5835 31.2891 43.5787C26.8271 43.5787 25.6271 41.4389 25.2834 40.548C25.0072 39.7781 24.8318 38.975 24.7617 38.1592C24.7609 38.1454 24.7634 38.1318 24.7689 38.1192C24.7744 38.1067 24.7828 38.0956 24.7933 38.087C24.8038 38.0782 24.8162 38.0722 24.8294 38.0693C24.8427 38.0663 24.8564 38.0666 24.8696 38.07C27.3494 38.6746 29.8914 38.9798 32.4424 38.9791C33.0559 38.9791 33.6676 38.9791 34.2811 38.9627C36.8468 38.89 39.5509 38.7573 42.0752 38.2592C42.1382 38.2464 42.2011 38.2355 42.2551 38.2192C46.2367 37.4465 50.0258 35.0212 50.4108 28.8799C50.4252 28.6381 50.4612 26.3474 50.4612 26.0965C50.463 25.2439 50.7329 20.0479 50.4216 16.8555Z" fill="url(#paint1_linear_28_895)"/>
<path d="M44.1136 21.6842V32.3615H39.9269V21.9987C39.9269 19.8171 39.0273 18.7044 37.1976 18.7044C35.1861 18.7044 34.1786 20.0207 34.1786 22.6205V28.2927H30.017V22.6205C30.017 20.0207 29.0077 18.7044 26.9962 18.7044C25.1772 18.7044 24.2686 19.8171 24.2686 21.9987V32.3615H20.0837V21.6842C20.0837 19.5026 20.6349 17.7694 21.7372 16.4846C22.8743 15.2029 24.3658 14.5448 26.2172 14.5448C28.36 14.5448 29.9793 15.3775 31.0588 17.041L32.1005 18.8081L33.144 17.041C34.2235 15.3775 35.8428 14.5448 37.982 14.5448C39.8316 14.5448 41.3231 15.2029 42.4638 16.4846C43.5649 17.7682 44.1148 19.5014 44.1136 21.6842Z" fill="white"/>
</g>
<g filter="url(#filter1_d_28_895)">
<path d="M74.9428 16.6475H73.1701C73.1019 16.2687 72.975 15.9354 72.7894 15.6475C72.6038 15.3596 72.3765 15.1153 72.1076 14.9145C71.8386 14.7138 71.5375 14.5623 71.2042 14.46C70.8746 14.3577 70.5243 14.3066 70.153 14.3066C69.4826 14.3066 68.8822 14.4751 68.3519 14.8123C67.8254 15.1494 67.4087 15.6437 67.1019 16.2952C66.7989 16.9467 66.6474 17.7422 66.6474 18.6816C66.6474 19.6285 66.7989 20.4278 67.1019 21.0793C67.4087 21.7308 67.8273 22.2232 68.3576 22.5566C68.8879 22.8899 69.4845 23.0566 70.1474 23.0566C70.5148 23.0566 70.8633 23.0073 71.1928 22.9088C71.5261 22.8066 71.8273 22.6569 72.0962 22.46C72.3652 22.263 72.5924 22.0225 72.778 21.7384C72.9674 21.4505 73.0981 21.121 73.1701 20.7498L74.9428 20.7554C74.8481 21.3274 74.6644 21.8539 74.3917 22.335C74.1227 22.8123 73.7761 23.2251 73.3519 23.5736C72.9314 23.9183 72.4504 24.1854 71.9087 24.3748C71.3671 24.5641 70.7761 24.6588 70.136 24.6588C69.1284 24.6588 68.2307 24.4202 67.4428 23.9429C66.6549 23.4619 66.0337 22.7744 65.5792 21.8804C65.1284 20.9865 64.903 19.9202 64.903 18.6816C64.903 17.4391 65.1303 16.3729 65.5849 15.4827C66.0394 14.5888 66.6606 13.9032 67.4485 13.4259C68.2364 12.9448 69.1322 12.7043 70.136 12.7043C70.7534 12.7043 71.3292 12.7933 71.8633 12.9713C72.4011 13.1456 72.8841 13.4032 73.3121 13.7441C73.7402 14.0812 74.0943 14.4941 74.3746 14.9827C74.6549 15.4676 74.8443 16.0225 74.9428 16.6475ZM78.6062 19.3179V24.4998H76.9073V12.8634H78.5834V17.1929H78.6914C78.8959 16.7232 79.2084 16.3501 79.6289 16.0736C80.0493 15.7971 80.5986 15.6588 81.2766 15.6588C81.8751 15.6588 82.3978 15.782 82.8448 16.0282C83.2956 16.2744 83.644 16.6418 83.8903 17.1304C84.1403 17.6153 84.2653 18.2213 84.2653 18.9486V24.4998H82.5664V19.1532C82.5664 18.513 82.4016 18.0168 82.0721 17.6645C81.7425 17.3085 81.2842 17.1304 80.6971 17.1304C80.2956 17.1304 79.9357 17.2157 79.6175 17.3861C79.3031 17.5566 79.055 17.8066 78.8732 18.1361C78.6952 18.4619 78.6062 18.8558 78.6062 19.3179ZM89.0721 24.6929C88.519 24.6929 88.019 24.5907 87.5721 24.3861C87.1251 24.1778 86.7709 23.8766 86.5096 23.4827C86.252 23.0888 86.1232 22.6058 86.1232 22.0338C86.1232 21.5414 86.2179 21.1361 86.4073 20.8179C86.5967 20.4998 86.8524 20.2479 87.1743 20.0623C87.4963 19.8766 87.8562 19.7365 88.2539 19.6418C88.6516 19.5471 89.0569 19.4751 89.4698 19.4259C89.9925 19.3653 90.4168 19.316 90.7425 19.2782C91.0683 19.2365 91.305 19.1702 91.4528 19.0793C91.6005 18.9884 91.6743 18.8407 91.6743 18.6361V18.5963C91.6743 18.1001 91.5342 17.7157 91.2539 17.4429C90.9774 17.1702 90.5645 17.0338 90.0153 17.0338C89.4433 17.0338 88.9925 17.1607 88.663 17.4145C88.3372 17.6645 88.1118 17.9429 87.9868 18.2498L86.3903 17.8861C86.5796 17.3558 86.8562 16.9278 87.2198 16.602C87.5872 16.2725 88.0096 16.0338 88.4868 15.8861C88.9641 15.7346 89.466 15.6588 89.9925 15.6588C90.341 15.6588 90.7103 15.7005 91.1005 15.7838C91.4944 15.8634 91.8618 16.0111 92.2028 16.227C92.5474 16.4429 92.8296 16.7516 93.0493 17.1532C93.269 17.5509 93.3789 18.0679 93.3789 18.7043V24.4998H91.7198V23.3066H91.6516C91.5418 23.5263 91.377 23.7422 91.1573 23.9543C90.9376 24.1664 90.6554 24.3426 90.3107 24.4827C89.966 24.6229 89.5531 24.6929 89.0721 24.6929ZM89.4414 23.3293C89.9111 23.3293 90.3126 23.2365 90.6459 23.0509C90.9831 22.8653 91.2387 22.6229 91.413 22.3236C91.591 22.0206 91.68 21.6967 91.68 21.352V20.227C91.6194 20.2876 91.502 20.3444 91.3278 20.3975C91.1573 20.4467 90.9622 20.4903 90.7425 20.5282C90.5228 20.5623 90.3088 20.5944 90.1005 20.6248C89.8921 20.6513 89.7179 20.674 89.5778 20.6929C89.2482 20.7346 88.9471 20.8047 88.6743 20.9032C88.4054 21.0016 88.1895 21.1437 88.0266 21.3293C87.8675 21.5111 87.788 21.7535 87.788 22.0566C87.788 22.477 87.9433 22.7952 88.2539 23.0111C88.5645 23.2232 88.9603 23.3293 89.4414 23.3293ZM99.7155 15.7725V17.1361H94.9485V15.7725H99.7155ZM96.2269 13.6816H97.9258V21.9373C97.9258 22.2668 97.975 22.5149 98.0735 22.6816C98.172 22.8444 98.2989 22.9562 98.4542 23.0168C98.6133 23.0736 98.7856 23.102 98.9712 23.102C99.1076 23.102 99.2269 23.0926 99.3292 23.0736C99.4314 23.0547 99.511 23.0395 99.5678 23.0282L99.8746 24.4316C99.7761 24.4694 99.636 24.5073 99.4542 24.5452C99.2724 24.5869 99.0451 24.6096 98.7724 24.6134C98.3254 24.621 97.9087 24.5414 97.5224 24.3748C97.136 24.2081 96.8235 23.9505 96.5849 23.602C96.3462 23.2535 96.2269 22.816 96.2269 22.2895V13.6816ZM107.721 24.4998L105.153 15.7725H106.909L108.619 22.1816H108.704L110.42 15.7725H112.176L113.88 22.1532H113.966L115.664 15.7725H117.42L114.858 24.4998H113.125L111.352 18.1986H111.221L109.448 24.4998H107.721ZM119.032 24.4998V15.7725H120.731V24.4998H119.032ZM119.89 14.4259C119.595 14.4259 119.341 14.3274 119.129 14.1304C118.921 13.9297 118.816 13.691 118.816 13.4145C118.816 13.1342 118.921 12.8956 119.129 12.6986C119.341 12.4979 119.595 12.3975 119.89 12.3975C120.186 12.3975 120.438 12.4979 120.646 12.6986C120.858 12.8956 120.964 13.1342 120.964 13.4145C120.964 13.691 120.858 13.9297 120.646 14.1304C120.438 14.3274 120.186 14.4259 119.89 14.4259ZM127.091 15.7725V17.1361H122.323V15.7725H127.091ZM123.602 13.6816H125.301V21.9373C125.301 22.2668 125.35 22.5149 125.448 22.6816C125.547 22.8444 125.674 22.9562 125.829 23.0168C125.988 23.0736 126.161 23.102 126.346 23.102C126.483 23.102 126.602 23.0926 126.704 23.0736C126.806 23.0547 126.886 23.0395 126.943 23.0282L127.25 24.4316C127.151 24.4694 127.011 24.5073 126.829 24.5452C126.647 24.5869 126.42 24.6096 126.147 24.6134C125.7 24.621 125.284 24.5414 124.897 24.3748C124.511 24.2081 124.198 23.9505 123.96 23.602C123.721 23.2535 123.602 22.816 123.602 22.2895V13.6816ZM130.856 19.3179V24.4998H129.157V12.8634H130.833V17.1929H130.941C131.146 16.7232 131.458 16.3501 131.879 16.0736C132.299 15.7971 132.849 15.6588 133.527 15.6588C134.125 15.6588 134.648 15.782 135.095 16.0282C135.546 16.2744 135.894 16.6418 136.14 17.1304C136.39 17.6153 136.515 18.2213 136.515 18.9486V24.4998H134.816V19.1532C134.816 18.513 134.652 18.0168 134.322 17.6645C133.993 17.3085 133.534 17.1304 132.947 17.1304C132.546 17.1304 132.186 17.2157 131.868 17.3861C131.553 17.5566 131.305 17.8066 131.123 18.1361C130.945 18.4619 130.856 18.8558 130.856 19.3179ZM148.545 20.8804V15.7725H150.25V24.4998H148.579V22.9884H148.488C148.287 23.4543 147.966 23.8426 147.522 24.1532C147.083 24.46 146.536 24.6134 145.88 24.6134C145.32 24.6134 144.823 24.4903 144.392 24.2441C143.964 23.9941 143.627 23.6248 143.38 23.1361C143.138 22.6475 143.017 22.0433 143.017 21.3236V15.7725H144.716V21.1191C144.716 21.7138 144.88 22.1873 145.21 22.5395C145.539 22.8918 145.967 23.0679 146.494 23.0679C146.812 23.0679 147.128 22.9884 147.443 22.8293C147.761 22.6702 148.024 22.4297 148.233 22.1077C148.445 21.7857 148.549 21.3766 148.545 20.8804ZM159.072 17.9032L157.532 18.1759C157.468 17.9789 157.366 17.7914 157.225 17.6134C157.089 17.4354 156.903 17.2895 156.669 17.1759C156.434 17.0623 156.14 17.0054 155.788 17.0054C155.307 17.0054 154.905 17.1134 154.583 17.3293C154.261 17.5414 154.1 17.816 154.1 18.1532C154.1 18.4448 154.208 18.6797 154.424 18.8577C154.64 19.0357 154.989 19.1816 155.47 19.2952L156.856 19.6134C157.659 19.799 158.258 20.085 158.652 20.4713C159.046 20.8577 159.243 21.3596 159.243 21.977C159.243 22.4998 159.091 22.9657 158.788 23.3748C158.489 23.7801 158.07 24.0982 157.532 24.3293C156.998 24.5604 156.379 24.6759 155.674 24.6759C154.697 24.6759 153.9 24.4676 153.282 24.0509C152.665 23.6304 152.286 23.0338 152.146 22.2611L153.788 22.0111C153.89 22.4391 154.1 22.763 154.419 22.9827C154.737 23.1986 155.152 23.3066 155.663 23.3066C156.22 23.3066 156.665 23.191 156.998 22.96C157.332 22.7251 157.498 22.4391 157.498 22.102C157.498 21.8293 157.396 21.6001 157.191 21.4145C156.991 21.2289 156.682 21.0888 156.265 20.9941L154.788 20.6702C153.974 20.4846 153.371 20.1891 152.981 19.7838C152.595 19.3785 152.402 18.8653 152.402 18.2441C152.402 17.7289 152.546 17.2782 152.833 16.8918C153.121 16.5054 153.519 16.2043 154.027 15.9884C154.534 15.7687 155.116 15.6588 155.771 15.6588C156.714 15.6588 157.457 15.8634 157.998 16.2725C158.54 16.6778 158.898 17.2213 159.072 17.9032ZM169.021 24.6759C168.203 24.6759 167.489 24.4884 166.879 24.1134C166.269 23.7384 165.796 23.2138 165.458 22.5395C165.121 21.8653 164.953 21.0774 164.953 20.1759C164.953 19.2706 165.121 18.4789 165.458 17.8009C165.796 17.1229 166.269 16.5963 166.879 16.2213C167.489 15.8463 168.203 15.6588 169.021 15.6588C169.839 15.6588 170.553 15.8463 171.163 16.2213C171.773 16.5963 172.246 17.1229 172.583 17.8009C172.921 18.4789 173.089 19.2706 173.089 20.1759C173.089 21.0774 172.921 21.8653 172.583 22.5395C172.246 23.2138 171.773 23.7384 171.163 24.1134C170.553 24.4884 169.839 24.6759 169.021 24.6759ZM169.027 23.2498C169.557 23.2498 169.996 23.1096 170.345 22.8293C170.693 22.549 170.951 22.1759 171.117 21.71C171.288 21.2441 171.373 20.7308 171.373 20.1702C171.373 19.6134 171.288 19.102 171.117 18.6361C170.951 18.1664 170.693 17.7895 170.345 17.5054C169.996 17.2213 169.557 17.0793 169.027 17.0793C168.493 17.0793 168.049 17.2213 167.697 17.5054C167.349 17.7895 167.089 18.1664 166.919 18.6361C166.752 19.102 166.669 19.6134 166.669 20.1702C166.669 20.7308 166.752 21.2441 166.919 21.71C167.089 22.1759 167.349 22.549 167.697 22.8293C168.049 23.1096 168.493 23.2498 169.027 23.2498ZM176.684 19.3179V24.4998H174.985V15.7725H176.616V17.1929H176.724C176.925 16.7308 177.239 16.3596 177.667 16.0793C178.099 15.799 178.643 15.6588 179.298 15.6588C179.893 15.6588 180.413 15.7838 180.86 16.0338C181.307 16.2801 181.654 16.6475 181.9 17.1361C182.146 17.6248 182.269 18.2289 182.269 18.9486V24.4998H180.571V19.1532C180.571 18.5206 180.406 18.0263 180.076 17.6702C179.747 17.3104 179.294 17.1304 178.718 17.1304C178.324 17.1304 177.974 17.2157 177.667 17.3861C177.364 17.5566 177.124 17.8066 176.946 18.1361C176.771 18.4619 176.684 18.8558 176.684 19.3179Z" fill="#E8E8E8"/>
<path d="M64.9354 31.1361H68.636L71.7752 38.7909H71.9201L75.0593 31.1361H78.7599V43.4998H75.8501V35.9053H75.7475L72.7773 43.4213H70.918L67.9478 35.863H67.8452V43.4998H64.9354V31.1361ZM83.2378 43.6567C82.6462 43.6567 82.121 43.5581 81.6622 43.3609C81.2074 43.1597 80.8472 42.8578 80.5816 42.4554C80.32 42.0489 80.1892 41.5398 80.1892 40.928C80.1892 40.4129 80.2797 39.9782 80.4608 39.624C80.6419 39.2699 80.8915 38.9821 81.2094 38.7608C81.5274 38.5394 81.8936 38.3724 82.3081 38.2597C82.7227 38.143 83.1654 38.0645 83.6363 38.0243C84.1635 37.976 84.5881 37.9257 84.9101 37.8733C85.232 37.817 85.4654 37.7385 85.6103 37.6379C85.7592 37.5333 85.8337 37.3864 85.8337 37.1972V37.167C85.8337 36.8571 85.727 36.6177 85.5137 36.4486C85.3004 36.2796 85.0127 36.1951 84.6505 36.1951C84.2601 36.1951 83.9462 36.2796 83.7087 36.4486C83.4712 36.6177 83.3203 36.8511 83.2559 37.1489L80.5333 37.0523C80.6138 36.4889 80.821 35.9858 81.1551 35.5431C81.4931 35.0963 81.956 34.7462 82.5436 34.4927C83.1352 34.2351 83.8455 34.1063 84.6746 34.1063C85.2662 34.1063 85.8116 34.1767 86.3106 34.3176C86.8097 34.4544 87.2443 34.6556 87.6146 34.9213C87.9849 35.1829 88.2706 35.5048 88.4718 35.8872C88.6771 36.2695 88.7797 36.7062 88.7797 37.1972V43.4998H86.0027V42.2078H85.9303C85.7653 42.5218 85.554 42.7874 85.2964 43.0047C85.0429 43.2221 84.743 43.385 84.3969 43.4937C84.0548 43.6024 83.6685 43.6567 83.2378 43.6567ZM84.1494 41.7249C84.4673 41.7249 84.7531 41.6605 85.0066 41.5317C85.2642 41.4029 85.4695 41.2258 85.6224 41.0005C85.7753 40.7711 85.8518 40.5054 85.8518 40.2036V39.3222C85.7673 39.3665 85.6647 39.4067 85.5439 39.4429C85.4272 39.4792 85.2984 39.5134 85.1576 39.5456C85.0167 39.5778 84.8718 39.6059 84.7229 39.6301C84.574 39.6542 84.4311 39.6764 84.2943 39.6965C84.0166 39.7408 83.7791 39.8092 83.5819 39.9017C83.3887 39.9943 83.2398 40.115 83.1352 40.264C83.0346 40.4088 82.9843 40.5819 82.9843 40.7831C82.9843 41.089 83.0929 41.3224 83.3103 41.4834C83.5316 41.6444 83.8113 41.7249 84.1494 41.7249ZM98.6803 37.0583L95.9697 37.1308C95.9415 36.9376 95.8651 36.7666 95.7403 36.6177C95.6155 36.4647 95.4525 36.346 95.2513 36.2615C95.0541 36.1729 94.8247 36.1287 94.5631 36.1287C94.221 36.1287 93.9292 36.1971 93.6877 36.3339C93.4503 36.4708 93.3336 36.6559 93.3376 36.8893C93.3336 37.0704 93.406 37.2274 93.5549 37.3602C93.7079 37.493 93.9795 37.5997 94.3699 37.6802L96.1569 38.0182C97.0825 38.1953 97.7707 38.4891 98.2215 38.8996C98.6763 39.3101 98.9057 39.8534 98.9097 40.5296C98.9057 41.1655 98.7165 41.7189 98.3422 42.1897C97.972 42.6606 97.4649 43.0269 96.8209 43.2885C96.177 43.546 95.4405 43.6748 94.6114 43.6748C93.2873 43.6748 92.2429 43.4032 91.4782 42.8598C90.7176 42.3125 90.2829 41.58 90.1743 40.6624L93.0901 40.59C93.1545 40.928 93.3215 41.1856 93.5912 41.3627C93.8608 41.5398 94.2049 41.6283 94.6235 41.6283C95.0018 41.6283 95.3097 41.5579 95.5471 41.417C95.7846 41.2761 95.9053 41.089 95.9093 40.8556C95.9053 40.6463 95.8127 40.4793 95.6316 40.3545C95.4505 40.2257 95.1668 40.1251 94.7804 40.0527L93.1625 39.7448C92.2328 39.5757 91.5406 39.2638 91.0858 38.8091C90.631 38.3502 90.4057 37.7667 90.4097 37.0583C90.4057 36.4386 90.5707 35.9093 90.9047 35.4706C91.2388 35.0279 91.7137 34.6899 92.3294 34.4564C92.9452 34.223 93.6716 34.1063 94.5088 34.1063C95.7645 34.1063 96.7545 34.3699 97.4789 34.8971C98.2034 35.4203 98.6038 36.1407 98.6803 37.0583ZM105.597 34.227V36.4003H99.7473V34.227H105.597ZM100.973 32.0054H103.925V40.5839C103.925 40.765 103.953 40.9119 104.009 41.0246C104.07 41.1333 104.156 41.2118 104.269 41.2601C104.382 41.3043 104.516 41.3265 104.673 41.3265C104.786 41.3265 104.905 41.3164 105.03 41.2963C105.158 41.2721 105.255 41.252 105.319 41.2359L105.766 43.3669C105.625 43.4072 105.426 43.4575 105.168 43.5179C104.915 43.5782 104.611 43.6165 104.257 43.6326C103.565 43.6648 102.971 43.5843 102.476 43.3911C101.985 43.1939 101.609 42.888 101.347 42.4735C101.09 42.0589 100.965 41.5377 100.973 40.9099V32.0054ZM111.332 43.6748C110.358 43.6748 109.521 43.4756 108.821 43.0772C108.125 42.6747 107.587 42.1153 107.209 41.3989C106.835 40.6785 106.648 39.8434 106.648 38.8936C106.648 37.9397 106.835 37.1046 107.209 36.3882C107.587 35.6678 108.125 35.1084 108.821 34.71C109.521 34.3075 110.358 34.1063 111.332 34.1063C112.306 34.1063 113.141 34.3075 113.838 34.71C114.538 35.1084 115.075 35.6678 115.449 36.3882C115.828 37.1046 116.017 37.9397 116.017 38.8936C116.017 39.8434 115.828 40.6785 115.449 41.3989C115.075 42.1153 114.538 42.6747 113.838 43.0772C113.141 43.4756 112.306 43.6748 111.332 43.6748ZM111.35 41.4472C111.704 41.4472 112.004 41.3385 112.25 41.1212C112.495 40.9039 112.682 40.602 112.811 40.2157C112.944 39.8293 113.01 39.3826 113.01 38.8755C113.01 38.3603 112.944 37.9096 112.811 37.5232C112.682 37.1368 112.495 36.835 112.25 36.6177C112.004 36.4003 111.704 36.2917 111.35 36.2917C110.984 36.2917 110.674 36.4003 110.421 36.6177C110.171 36.835 109.98 37.1368 109.847 37.5232C109.718 37.9096 109.654 38.3603 109.654 38.8755C109.654 39.3826 109.718 39.8293 109.847 40.2157C109.98 40.602 110.171 40.9039 110.421 41.1212C110.674 41.3385 110.984 41.4472 111.35 41.4472ZM120.916 43.6326C120.232 43.6326 119.61 43.4555 119.05 43.1013C118.491 42.7471 118.044 42.2159 117.71 41.5076C117.376 40.7992 117.209 39.9199 117.209 38.8694C117.209 37.7788 117.382 36.8813 117.728 36.177C118.074 35.4726 118.527 34.9515 119.087 34.6134C119.65 34.2753 120.256 34.1063 120.904 34.1063C121.391 34.1063 121.807 34.1908 122.153 34.3598C122.499 34.5248 122.785 34.7382 123.011 34.9998C123.236 35.2614 123.407 35.533 123.524 35.8147H123.584V31.1361H126.536V43.4998H123.614V41.9966H123.524C123.399 42.2823 123.222 42.5499 122.993 42.7995C122.763 43.049 122.475 43.2502 122.129 43.4032C121.787 43.5561 121.383 43.6326 120.916 43.6326ZM121.942 41.3325C122.3 41.3325 122.606 41.2319 122.86 41.0306C123.113 40.8254 123.308 40.5376 123.445 40.1674C123.582 39.7971 123.651 39.3624 123.651 38.8634C123.651 38.3563 123.582 37.9196 123.445 37.5534C123.312 37.1871 123.117 36.9054 122.86 36.7082C122.606 36.511 122.3 36.4124 121.942 36.4124C121.576 36.4124 121.266 36.513 121.012 36.7142C120.759 36.9155 120.566 37.1992 120.433 37.5654C120.304 37.9317 120.24 38.3643 120.24 38.8634C120.24 39.3624 120.306 39.7971 120.439 40.1674C120.572 40.5376 120.763 40.8254 121.012 41.0306C121.266 41.2319 121.576 41.3325 121.942 41.3325ZM132.732 43.6748C131.758 43.6748 130.921 43.4756 130.22 43.0772C129.524 42.6747 128.987 42.1153 128.608 41.3989C128.234 40.6785 128.047 39.8434 128.047 38.8936C128.047 37.9397 128.234 37.1046 128.608 36.3882C128.987 35.6678 129.524 35.1084 130.22 34.71C130.921 34.3075 131.758 34.1063 132.732 34.1063C133.706 34.1063 134.541 34.3075 135.237 34.71C135.937 35.1084 136.474 35.6678 136.849 36.3882C137.227 37.1046 137.416 37.9397 137.416 38.8936C137.416 39.8434 137.227 40.6785 136.849 41.3989C136.474 42.1153 135.937 42.6747 135.237 43.0772C134.541 43.4756 133.706 43.6748 132.732 43.6748ZM132.75 41.4472C133.104 41.4472 133.404 41.3385 133.649 41.1212C133.895 40.9039 134.082 40.602 134.211 40.2157C134.343 39.8293 134.41 39.3826 134.41 38.8755C134.41 38.3603 134.343 37.9096 134.211 37.5232C134.082 37.1368 133.895 36.835 133.649 36.6177C133.404 36.4003 133.104 36.2917 132.75 36.2917C132.383 36.2917 132.074 36.4003 131.82 36.6177C131.57 36.835 131.379 37.1368 131.247 37.5232C131.118 37.9096 131.053 38.3603 131.053 38.8755C131.053 39.3826 131.118 39.8293 131.247 40.2157C131.379 40.602 131.57 40.9039 131.82 41.1212C132.074 41.3385 132.383 41.4472 132.75 41.4472ZM141.881 38.2114V43.4998H138.929V34.227H141.736V35.9294H141.838C142.044 35.362 142.394 34.9172 142.889 34.5953C143.384 34.2693 143.973 34.1063 144.658 34.1063C145.31 34.1063 145.875 34.2532 146.354 34.547C146.837 34.8368 147.211 35.2432 147.477 35.7664C147.746 36.2856 147.879 36.8933 147.875 37.5896V43.4998H144.923V38.1691C144.927 37.654 144.796 37.2515 144.531 36.9618C144.269 36.672 143.905 36.5271 143.438 36.5271C143.128 36.5271 142.855 36.5955 142.617 36.7324C142.384 36.8652 142.203 37.0563 142.074 37.3059C141.949 37.5554 141.885 37.8572 141.881 38.2114Z" fill="url(#paint2_linear_28_895)"/>
</g>
<rect x="1.04963" y="1.04976" width="193.9" height="53.9" rx="6.95" stroke="white" stroke-opacity="0.15" stroke-width="2.1"/>
<defs>
<filter id="filter0_d_28_895" x="6.28535" y="2.28547" width="51.4286" height="51.4287" filterUnits="userSpaceOnUse" color-interpolation-filters="sRGB">
<feFlood flood-opacity="0" result="BackgroundImageFix"/>
<feColorMatrix in="SourceAlpha" type="matrix" values="0 0 0 0 0 0 0 0 0 0 0 0 0 0 0 0 0 0 127 0" result="hardAlpha"/>
<feOffset/>
<feGaussianBlur stdDeviation="2.85714"/>
<feComposite in2="hardAlpha" operator="out"/>
<feColorMatrix type="matrix" values="0 0 0 0 0 0 0 0 0 0 0 0 0 0 0 0 0 0 0.25 0"/>
<feBlend mode="normal" in2="BackgroundImageFix" result="effect1_dropShadow_28_895"/>
<feBlend mode="normal" in="SourceGraphic" in2="effect1_dropShadow_28_895" result="shape"/>
</filter>
<filter id="filter1_d_28_895" x="58.3996" y="3.89976" width="131.2" height="48.2" filterUnits="userSpaceOnUse" color-interpolation-filters="sRGB">
<feFlood flood-opacity="0" result="BackgroundImageFix"/>
<feColorMatrix in="SourceAlpha" type="matrix" values="0 0 0 0 0 0 0 0 0 0 0 0 0 0 0 0 0 0 127 0" result="hardAlpha"/>
<feOffset/>
<feGaussianBlur stdDeviation="2.8"/>
<feComposite in2="hardAlpha" operator="out"/>
<feColorMatrix type="matrix" values="0 0 0 0 0 0 0 0 0 0 0 0 0 0 0 0 0 0 0.25 0"/>
<feBlend mode="normal" in2="BackgroundImageFix" result="effect1_dropShadow_28_895"/>
<feBlend mode="normal" in="SourceGraphic" in2="effect1_dropShadow_28_895" result="shape"/>
</filter>
<linearGradient id="paint0_linear_28_895" x1="97.9996" y1="-0.000244141" x2="97.9996" y2="55.9997" gradientUnits="userSpaceOnUse">
<stop stop-color="#1C1036"/>
<stop offset="1" stop-color="#0B0920"/>
</linearGradient>
<linearGradient id="paint1_linear_28_895" x1="32" y1="7.99988" x2="32" y2="47.9999" gradientUnits="userSpaceOnUse">
<stop stop-color="#6364FF"/>
<stop offset="1" stop-color="#563ACC"/>
</linearGradient>
<linearGradient id="paint2_linear_28_895" x1="106.5" y1="28.4998" x2="106.5" y2="46.4998" gradientUnits="userSpaceOnUse">
<stop stop-color="#9393FF"/>
<stop offset="1" stop-color="#7A65D1"/>
</linearGradient>
</defs>
</svg>
