<svg width="192" height="56" viewBox="0 0 192 56" fill="none" xmlns="http://www.w3.org/2000/svg">
<rect x="-0.000366211" y="-0.00012207" width="192" height="56" rx="8" fill="url(#paint0_linear_28_793)"/>
<g filter="url(#filter0_d_28_793)">
<path d="M38.3419 21.993C38.3419 24.6789 36.8998 26.2912 33.8219 26.2912H28.726V17.7921H33.8229C36.8998 17.7921 38.3419 19.4526 38.3419 21.993ZM15.571 10.8571L20.5047 17.8085V45.1399H28.7269V32.1999H30.6985L37.7195 45.1428H46.9996L39.2101 31.5648C41.3849 31.0272 43.3138 29.7514 44.6775 27.9485C46.0413 26.1457 46.7581 23.9239 46.7093 21.6509C46.7093 15.6921 42.5745 10.8571 34.3039 10.8571H15.571Z" fill="#FF4654"/>
</g>
<g filter="url(#filter1_d_28_793)">
<path d="M70.9428 16.6476H69.1701C69.1019 16.2688 68.975 15.9355 68.7894 15.6476C68.6038 15.3597 68.3765 15.1154 68.1076 14.9146C67.8386 14.7139 67.5375 14.5624 67.2042 14.4601C66.8746 14.3578 66.5243 14.3067 66.153 14.3067C65.4826 14.3067 64.8822 14.4753 64.3519 14.8124C63.8254 15.1495 63.4087 15.6438 63.1019 16.2953C62.7989 16.9468 62.6474 17.7423 62.6474 18.6817C62.6474 19.6287 62.7989 20.4279 63.1019 21.0794C63.4087 21.7309 63.8273 22.2234 64.3576 22.5567C64.8879 22.89 65.4845 23.0567 66.1474 23.0567C66.5148 23.0567 66.8633 23.0074 67.1928 22.909C67.5261 22.8067 67.8273 22.6571 68.0962 22.4601C68.3652 22.2631 68.5924 22.0226 68.778 21.7385C68.9674 21.4506 69.0981 21.1211 69.1701 20.7499L70.9428 20.7556C70.8481 21.3275 70.6644 21.854 70.3917 22.3351C70.1227 22.8124 69.7761 23.2253 69.3519 23.5737C68.9314 23.9184 68.4504 24.1855 67.9087 24.3749C67.3671 24.5643 66.7761 24.659 66.136 24.659C65.1284 24.659 64.2307 24.4203 63.4428 23.9431C62.6549 23.462 62.0337 22.7745 61.5792 21.8806C61.1284 20.9866 60.903 19.9203 60.903 18.6817C60.903 17.4393 61.1303 16.373 61.5849 15.4828C62.0394 14.5889 62.6606 13.9033 63.4485 13.426C64.2364 12.945 65.1322 12.7044 66.136 12.7044C66.7534 12.7044 67.3292 12.7934 67.8633 12.9715C68.4011 13.1457 68.8841 13.4033 69.3121 13.7442C69.7402 14.0813 70.0943 14.4942 70.3746 14.9828C70.6549 15.4677 70.8443 16.0226 70.9428 16.6476ZM74.6062 19.3181V24.4999H72.9073V12.8635H74.5834V17.1931H74.6914C74.8959 16.7234 75.2084 16.3503 75.6289 16.0737C76.0493 15.7972 76.5986 15.659 77.2766 15.659C77.8751 15.659 78.3978 15.7821 78.8448 16.0283C79.2956 16.2745 79.644 16.6419 79.8903 17.1306C80.1403 17.6154 80.2653 18.2215 80.2653 18.9487V24.4999H78.5664V19.1533C78.5664 18.5131 78.4016 18.0169 78.0721 17.6646C77.7425 17.3086 77.2842 17.1306 76.6971 17.1306C76.2956 17.1306 75.9357 17.2158 75.6175 17.3862C75.3031 17.5567 75.055 17.8067 74.8732 18.1362C74.6952 18.462 74.6062 18.8559 74.6062 19.3181ZM85.0721 24.6931C84.519 24.6931 84.019 24.5908 83.5721 24.3862C83.1251 24.1779 82.7709 23.8768 82.5096 23.4828C82.252 23.0889 82.1232 22.6059 82.1232 22.034C82.1232 21.5415 82.2179 21.1362 82.4073 20.8181C82.5967 20.4999 82.8524 20.248 83.1743 20.0624C83.4963 19.8768 83.8562 19.7366 84.2539 19.6419C84.6516 19.5472 85.0569 19.4753 85.4698 19.426C85.9925 19.3654 86.4168 19.3162 86.7425 19.2783C87.0683 19.2366 87.305 19.1703 87.4528 19.0794C87.6005 18.9885 87.6743 18.8408 87.6743 18.6362V18.5965C87.6743 18.1003 87.5342 17.7158 87.2539 17.4431C86.9774 17.1703 86.5645 17.034 86.0153 17.034C85.4433 17.034 84.9925 17.1609 84.663 17.4146C84.3372 17.6646 84.1118 17.9431 83.9868 18.2499L82.3903 17.8862C82.5796 17.3559 82.8562 16.9279 83.2198 16.6021C83.5872 16.2726 84.0096 16.034 84.4868 15.8862C84.9641 15.7347 85.466 15.659 85.9925 15.659C86.341 15.659 86.7103 15.7006 87.1005 15.784C87.4944 15.8635 87.8618 16.0112 88.2028 16.2271C88.5474 16.4431 88.8296 16.7518 89.0493 17.1533C89.269 17.551 89.3789 18.0681 89.3789 18.7044V24.4999H87.7198V23.3067H87.6516C87.5418 23.5264 87.377 23.7423 87.1573 23.9544C86.9376 24.1665 86.6554 24.3427 86.3107 24.4828C85.966 24.623 85.5531 24.6931 85.0721 24.6931ZM85.4414 23.3294C85.9111 23.3294 86.3126 23.2366 86.6459 23.051C86.9831 22.8654 87.2387 22.623 87.413 22.3237C87.591 22.0207 87.68 21.6968 87.68 21.3521V20.2271C87.6194 20.2878 87.502 20.3446 87.3278 20.3976C87.1573 20.4468 86.9622 20.4904 86.7425 20.5283C86.5228 20.5624 86.3088 20.5946 86.1005 20.6249C85.8921 20.6514 85.7179 20.6741 85.5778 20.6931C85.2482 20.7347 84.9471 20.8048 84.6743 20.9033C84.4054 21.0018 84.1895 21.1438 84.0266 21.3294C83.8675 21.5112 83.788 21.7537 83.788 22.0567C83.788 22.4771 83.9433 22.7953 84.2539 23.0112C84.5645 23.2234 84.9603 23.3294 85.4414 23.3294ZM95.7155 15.7726V17.1362H90.9485V15.7726H95.7155ZM92.2269 13.6817H93.9258V21.9374C93.9258 22.2669 93.975 22.515 94.0735 22.6817C94.172 22.8446 94.2989 22.9563 94.4542 23.0169C94.6133 23.0737 94.7856 23.1021 94.9712 23.1021C95.1076 23.1021 95.2269 23.0927 95.3292 23.0737C95.4314 23.0548 95.511 23.0396 95.5678 23.0283L95.8746 24.4317C95.7761 24.4696 95.636 24.5074 95.4542 24.5453C95.2724 24.587 95.0451 24.6097 94.7724 24.6135C94.3254 24.6211 93.9087 24.5415 93.5224 24.3749C93.136 24.2082 92.8235 23.9506 92.5849 23.6021C92.3462 23.2537 92.2269 22.8162 92.2269 22.2896V13.6817ZM103.721 24.4999L101.153 15.7726H102.909L104.619 22.1817H104.704L106.42 15.7726H108.176L109.88 22.1533H109.966L111.664 15.7726H113.42L110.858 24.4999H109.125L107.352 18.1987H107.221L105.448 24.4999H103.721ZM115.032 24.4999V15.7726H116.731V24.4999H115.032ZM115.89 14.426C115.595 14.426 115.341 14.3275 115.129 14.1306C114.921 13.9298 114.816 13.6912 114.816 13.4146C114.816 13.1343 114.921 12.8957 115.129 12.6987C115.341 12.498 115.595 12.3976 115.89 12.3976C116.186 12.3976 116.438 12.498 116.646 12.6987C116.858 12.8957 116.964 13.1343 116.964 13.4146C116.964 13.6912 116.858 13.9298 116.646 14.1306C116.438 14.3275 116.186 14.426 115.89 14.426ZM123.091 15.7726V17.1362H118.323V15.7726H123.091ZM119.602 13.6817H121.301V21.9374C121.301 22.2669 121.35 22.515 121.448 22.6817C121.547 22.8446 121.674 22.9563 121.829 23.0169C121.988 23.0737 122.161 23.1021 122.346 23.1021C122.483 23.1021 122.602 23.0927 122.704 23.0737C122.806 23.0548 122.886 23.0396 122.943 23.0283L123.25 24.4317C123.151 24.4696 123.011 24.5074 122.829 24.5453C122.647 24.587 122.42 24.6097 122.147 24.6135C121.7 24.6211 121.284 24.5415 120.897 24.3749C120.511 24.2082 120.198 23.9506 119.96 23.6021C119.721 23.2537 119.602 22.8162 119.602 22.2896V13.6817ZM126.856 19.3181V24.4999H125.157V12.8635H126.833V17.1931H126.941C127.146 16.7234 127.458 16.3503 127.879 16.0737C128.299 15.7972 128.849 15.659 129.527 15.659C130.125 15.659 130.648 15.7821 131.095 16.0283C131.546 16.2745 131.894 16.6419 132.14 17.1306C132.39 17.6154 132.515 18.2215 132.515 18.9487V24.4999H130.816V19.1533C130.816 18.5131 130.652 18.0169 130.322 17.6646C129.993 17.3086 129.534 17.1306 128.947 17.1306C128.546 17.1306 128.186 17.2158 127.868 17.3862C127.553 17.5567 127.305 17.8067 127.123 18.1362C126.945 18.462 126.856 18.8559 126.856 19.3181ZM144.545 20.8806V15.7726H146.25V24.4999H144.579V22.9885H144.488C144.287 23.4544 143.966 23.8427 143.522 24.1533C143.083 24.4601 142.536 24.6135 141.88 24.6135C141.32 24.6135 140.823 24.4904 140.392 24.2442C139.964 23.9942 139.627 23.6249 139.38 23.1362C139.138 22.6476 139.017 22.0434 139.017 21.3237V15.7726H140.716V21.1192C140.716 21.7139 140.88 22.1874 141.21 22.5396C141.539 22.8919 141.967 23.0681 142.494 23.0681C142.812 23.0681 143.128 22.9885 143.443 22.8294C143.761 22.6703 144.024 22.4298 144.233 22.1078C144.445 21.7859 144.549 21.3768 144.545 20.8806ZM155.072 17.9033L153.532 18.176C153.468 17.979 153.366 17.7915 153.225 17.6135C153.089 17.4355 152.903 17.2896 152.669 17.176C152.434 17.0624 152.14 17.0056 151.788 17.0056C151.307 17.0056 150.905 17.1135 150.583 17.3294C150.261 17.5415 150.1 17.8162 150.1 18.1533C150.1 18.445 150.208 18.6798 150.424 18.8578C150.64 19.0359 150.989 19.1817 151.47 19.2953L152.856 19.6135C153.659 19.7991 154.258 20.0851 154.652 20.4715C155.046 20.8578 155.243 21.3597 155.243 21.9771C155.243 22.4999 155.091 22.9658 154.788 23.3749C154.489 23.7802 154.07 24.0984 153.532 24.3294C152.998 24.5605 152.379 24.676 151.674 24.676C150.697 24.676 149.9 24.4677 149.282 24.051C148.665 23.6306 148.286 23.034 148.146 22.2612L149.788 22.0112C149.89 22.4393 150.1 22.7631 150.419 22.9828C150.737 23.1987 151.152 23.3067 151.663 23.3067C152.22 23.3067 152.665 23.1912 152.998 22.9601C153.332 22.7253 153.498 22.4393 153.498 22.1021C153.498 21.8294 153.396 21.6003 153.191 21.4146C152.991 21.229 152.682 21.0889 152.265 20.9942L150.788 20.6703C149.974 20.4847 149.371 20.1893 148.981 19.784C148.595 19.3787 148.402 18.8654 148.402 18.2442C148.402 17.729 148.546 17.2783 148.833 16.8919C149.121 16.5056 149.519 16.2044 150.027 15.9885C150.534 15.7688 151.116 15.659 151.771 15.659C152.714 15.659 153.457 15.8635 153.998 16.2726C154.54 16.6779 154.898 17.2215 155.072 17.9033ZM165.021 24.676C164.203 24.676 163.489 24.4885 162.879 24.1135C162.269 23.7385 161.796 23.2139 161.458 22.5396C161.121 21.8654 160.953 21.0775 160.953 20.176C160.953 19.2707 161.121 18.479 161.458 17.801C161.796 17.123 162.269 16.5965 162.879 16.2215C163.489 15.8465 164.203 15.659 165.021 15.659C165.839 15.659 166.553 15.8465 167.163 16.2215C167.773 16.5965 168.246 17.123 168.583 17.801C168.921 18.479 169.089 19.2707 169.089 20.176C169.089 21.0775 168.921 21.8654 168.583 22.5396C168.246 23.2139 167.773 23.7385 167.163 24.1135C166.553 24.4885 165.839 24.676 165.021 24.676ZM165.027 23.2499C165.557 23.2499 165.996 23.1097 166.345 22.8294C166.693 22.5491 166.951 22.176 167.117 21.7101C167.288 21.2442 167.373 20.7309 167.373 20.1703C167.373 19.6135 167.288 19.1021 167.117 18.6362C166.951 18.1665 166.693 17.7896 166.345 17.5056C165.996 17.2215 165.557 17.0794 165.027 17.0794C164.493 17.0794 164.049 17.2215 163.697 17.5056C163.349 17.7896 163.089 18.1665 162.919 18.6362C162.752 19.1021 162.669 19.6135 162.669 20.1703C162.669 20.7309 162.752 21.2442 162.919 21.7101C163.089 22.176 163.349 22.5491 163.697 22.8294C164.049 23.1097 164.493 23.2499 165.027 23.2499ZM172.684 19.3181V24.4999H170.985V15.7726H172.616V17.1931H172.724C172.925 16.7309 173.239 16.3597 173.667 16.0794C174.099 15.7991 174.643 15.659 175.298 15.659C175.893 15.659 176.413 15.784 176.86 16.034C177.307 16.2802 177.654 16.6476 177.9 17.1362C178.146 17.6249 178.269 18.229 178.269 18.9487V24.4999H176.571V19.1533C176.571 18.5207 176.406 18.0264 176.076 17.6703C175.747 17.3105 175.294 17.1306 174.718 17.1306C174.324 17.1306 173.974 17.2158 173.667 17.3862C173.364 17.5567 173.124 17.8067 172.946 18.1362C172.771 18.462 172.684 18.8559 172.684 19.3181Z" fill="#E8E8E8"/>
<path d="M60.9354 43.4999V31.1362H66.0426C66.9683 31.1362 67.7672 31.3033 68.4393 31.6373C69.1154 31.9673 69.6366 32.4422 70.0028 33.062C70.3691 33.6778 70.5522 34.4083 70.5522 35.2534C70.5522 36.1107 70.365 36.8391 69.9908 37.4388C69.6165 38.0344 69.0852 38.4892 68.397 38.8031C67.7088 39.113 66.8938 39.268 65.952 39.268H62.7223V36.9136H65.3966C65.8474 36.9136 66.2237 36.8552 66.5256 36.7385C66.8314 36.6178 67.0628 36.4367 67.2198 36.1952C67.3768 35.9497 67.4552 35.6358 67.4552 35.2534C67.4552 34.8711 67.3768 34.5552 67.2198 34.3056C67.0628 34.0521 66.8314 33.8629 66.5256 33.7382C66.2197 33.6094 65.8434 33.545 65.3966 33.545H63.9236V43.4999H60.9354ZM67.8959 37.8493L70.9748 43.4999H67.7148L64.6964 37.8493H67.8959ZM76.3431 43.6749C75.3732 43.6749 74.5361 43.4838 73.8317 43.1014C73.1315 42.7151 72.5922 42.1657 72.2139 41.4534C71.8396 40.737 71.6524 39.8858 71.6524 38.8997C71.6524 37.9419 71.8416 37.1048 72.2199 36.3884C72.5982 35.668 73.1315 35.1085 73.8197 34.7101C74.5079 34.3076 75.3188 34.1064 76.2526 34.1064C76.9126 34.1064 77.5163 34.209 78.0636 34.4143C78.611 34.6195 79.0839 34.9234 79.4823 35.3259C79.8808 35.7283 80.1906 36.2254 80.412 36.817C80.6334 37.4046 80.744 38.0787 80.744 38.8394V39.5759H72.6847V37.8614H77.9972C77.9932 37.5475 77.9188 37.2677 77.7739 37.0222C77.629 36.7767 77.4298 36.5856 77.1762 36.4487C76.9267 36.3079 76.6389 36.2374 76.3129 36.2374C75.9829 36.2374 75.6871 36.3119 75.4255 36.4608C75.1639 36.6057 74.9566 36.8049 74.8037 37.0585C74.6508 37.308 74.5703 37.5917 74.5622 37.9097V39.6543C74.5622 40.0327 74.6367 40.3647 74.7856 40.6504C74.9345 40.9322 75.1458 41.1515 75.4195 41.3085C75.6931 41.4654 76.0191 41.5439 76.3974 41.5439C76.659 41.5439 76.8965 41.5077 77.1098 41.4352C77.3231 41.3628 77.5062 41.2561 77.6592 41.1153C77.8121 40.9744 77.9268 40.8014 78.0033 40.5961L80.7139 40.6746C80.6012 41.2823 80.3536 41.8115 79.9713 42.2623C79.593 42.709 79.096 43.0572 78.4802 43.3067C77.8644 43.5522 77.1521 43.6749 76.3431 43.6749ZM90.9978 34.2271L87.8163 43.4999H84.4356L81.2602 34.2271H84.3692L86.0777 40.6142H86.1743L87.8887 34.2271H90.9978ZM96.1593 43.6749C95.1854 43.6749 94.3483 43.4757 93.648 43.0773C92.9517 42.6748 92.4144 42.1154 92.0361 41.399C91.6618 40.6786 91.4747 39.8435 91.4747 38.8937C91.4747 37.9399 91.6618 37.1048 92.0361 36.3884C92.4144 35.668 92.9517 35.1085 93.648 34.7101C94.3483 34.3076 95.1854 34.1064 96.1593 34.1064C97.1333 34.1064 97.9684 34.3076 98.6647 34.7101C99.3649 35.1085 99.9022 35.668 100.277 36.3884C100.655 37.1048 100.844 37.9399 100.844 38.8937C100.844 39.8435 100.655 40.6786 100.277 41.399C99.9022 42.1154 99.3649 42.6748 98.6647 43.0773C97.9684 43.4757 97.1333 43.6749 96.1593 43.6749ZM96.1774 41.4473C96.5316 41.4473 96.8314 41.3387 97.0769 41.1213C97.3225 40.904 97.5096 40.6021 97.6384 40.2158C97.7712 39.8294 97.8376 39.3827 97.8376 38.8756C97.8376 38.3604 97.7712 37.9097 97.6384 37.5233C97.5096 37.1369 97.3225 36.8351 97.0769 36.6178C96.8314 36.4004 96.5316 36.2918 96.1774 36.2918C95.8112 36.2918 95.5013 36.4004 95.2478 36.6178C94.9982 36.8351 94.8071 37.1369 94.6743 37.5233C94.5455 37.9097 94.4811 38.3604 94.4811 38.8756C94.4811 39.3827 94.5455 39.8294 94.6743 40.2158C94.8071 40.6021 94.9982 40.904 95.2478 41.1213C95.5013 41.3387 95.8112 41.4473 96.1774 41.4473ZM105.308 31.1362V43.4999H102.356V31.1362H105.308ZM112.421 34.2271V36.4004H106.572V34.2271H112.421ZM107.797 32.0056H110.749V40.584C110.749 40.7651 110.777 40.912 110.834 41.0247C110.894 41.1334 110.981 41.2119 111.093 41.2602C111.206 41.3044 111.341 41.3266 111.498 41.3266C111.61 41.3266 111.729 41.3165 111.854 41.2964C111.983 41.2722 112.079 41.2521 112.144 41.236L112.59 43.3671C112.449 43.4073 112.25 43.4576 111.993 43.518C111.739 43.5784 111.435 43.6166 111.081 43.6327C110.389 43.6649 109.795 43.5844 109.3 43.3912C108.809 43.194 108.433 42.8881 108.171 42.4736C107.914 42.0591 107.789 41.5379 107.797 40.91V32.0056Z" fill="#FF4654"/>
</g>
<rect x="1.04963" y="1.04988" width="189.9" height="53.9" rx="6.95" stroke="white" stroke-opacity="0.15" stroke-width="2.1"/>
<defs>
<filter id="filter0_d_28_793" x="6.28535" y="2.28559" width="51.4286" height="51.4286" filterUnits="userSpaceOnUse" color-interpolation-filters="sRGB">
<feFlood flood-opacity="0" result="BackgroundImageFix"/>
<feColorMatrix in="SourceAlpha" type="matrix" values="0 0 0 0 0 0 0 0 0 0 0 0 0 0 0 0 0 0 127 0" result="hardAlpha"/>
<feOffset/>
<feGaussianBlur stdDeviation="2.85714"/>
<feComposite in2="hardAlpha" operator="out"/>
<feColorMatrix type="matrix" values="0 0 0 0 0 0 0 0 0 0 0 0 0 0 0 0 0 0 0.25 0"/>
<feBlend mode="normal" in2="BackgroundImageFix" result="effect1_dropShadow_28_793"/>
<feBlend mode="normal" in="SourceGraphic" in2="effect1_dropShadow_28_793" result="shape"/>
</filter>
<filter id="filter1_d_28_793" x="54.3996" y="3.89988" width="131.2" height="48.2" filterUnits="userSpaceOnUse" color-interpolation-filters="sRGB">
<feFlood flood-opacity="0" result="BackgroundImageFix"/>
<feColorMatrix in="SourceAlpha" type="matrix" values="0 0 0 0 0 0 0 0 0 0 0 0 0 0 0 0 0 0 127 0" result="hardAlpha"/>
<feOffset/>
<feGaussianBlur stdDeviation="2.8"/>
<feComposite in2="hardAlpha" operator="out"/>
<feColorMatrix type="matrix" values="0 0 0 0 0 0 0 0 0 0 0 0 0 0 0 0 0 0 0.25 0"/>
<feBlend mode="normal" in2="BackgroundImageFix" result="effect1_dropShadow_28_793"/>
<feBlend mode="normal" in="SourceGraphic" in2="effect1_dropShadow_28_793" result="shape"/>
</filter>
<linearGradient id="paint0_linear_28_793" x1="95.9996" y1="-0.00012207" x2="95.9996" y2="55.9999" gradientUnits="userSpaceOnUse">
<stop stop-color="#301515"/>
<stop offset="1" stop-color="#1E0D0D"/>
</linearGradient>
</defs>
</svg>
