<svg width="201" height="56" viewBox="0 0 201 56" fill="none" xmlns="http://www.w3.org/2000/svg">
<rect x="-0.000366211" y="-0.000183105" width="201" height="56" rx="8" fill="url(#paint0_linear_28_815)"/>
<g filter="url(#filter0_d_28_815)">
<path d="M20.4323 33.2865C20.4323 35.6114 18.5548 37.4903 16.2318 37.4903C13.9089 37.4903 12.0314 35.6114 12.0314 33.2865C12.0314 30.9617 13.9089 29.0827 16.2318 29.0827H20.4323V33.2865ZM22.5326 33.2865C22.5326 30.9617 24.4101 29.0827 26.733 29.0827C29.056 29.0827 30.9335 30.9617 30.9335 33.2865V43.7961C30.9335 46.1209 29.056 47.9999 26.733 47.9999C24.4101 47.9999 22.5326 46.1209 22.5326 43.7961V33.2865Z" fill="#E01E5A"/>
<path d="M26.7331 16.4075C24.4101 16.4075 22.5326 14.5285 22.5326 12.2036C22.5326 9.8788 24.4101 7.99982 26.7331 7.99982C29.0561 7.99982 30.9336 9.8788 30.9336 12.2036V16.4075H26.7331ZM26.7331 18.5412C29.0561 18.5412 30.9336 20.4202 30.9336 22.745C30.9336 25.0699 29.0561 26.9489 26.7331 26.9489H16.2001C13.8771 26.9489 11.9996 25.0699 11.9996 22.745C11.9996 20.4202 13.8771 18.5412 16.2001 18.5412H26.7331Z" fill="#36C5F0"/>
<path d="M43.5667 22.745C43.5667 20.4202 45.4442 18.5412 47.7672 18.5412C50.0902 18.5412 51.9677 20.4202 51.9677 22.745C51.9677 25.0699 50.0902 26.9489 47.7672 26.9489H43.5667V22.745ZM41.4665 22.745C41.4665 25.0699 39.589 26.9489 37.266 26.9489C34.943 26.9489 33.0656 25.0699 33.0656 22.745V12.2036C33.0656 9.8788 34.943 7.99982 37.266 7.99982C39.589 7.99982 41.4665 9.8788 41.4665 12.2036V22.745V22.745Z" fill="#2EB67D"/>
<path d="M37.266 39.5923C39.589 39.5923 41.4665 41.4712 41.4665 43.7961C41.4665 46.1209 39.589 47.9999 37.266 47.9999C34.943 47.9999 33.0656 46.1209 33.0656 43.7961V39.5923H37.266ZM37.266 37.4903C34.943 37.4903 33.0656 35.6114 33.0656 33.2865C33.0656 30.9617 34.943 29.0827 37.266 29.0827H47.799C50.122 29.0827 51.9995 30.9617 51.9995 33.2865C51.9995 35.6114 50.122 37.4903 47.799 37.4903H37.266Z" fill="#ECB22E"/>
</g>
<g filter="url(#filter1_d_28_815)">
<path d="M74.9428 16.6475H73.1701C73.1019 16.2688 72.975 15.9354 72.7894 15.6475C72.6038 15.3597 72.3765 15.1153 72.1076 14.9146C71.8386 14.7138 71.5375 14.5623 71.2042 14.46C70.8746 14.3578 70.5243 14.3066 70.153 14.3066C69.4826 14.3066 68.8822 14.4752 68.3519 14.8123C67.8254 15.1494 67.4087 15.6438 67.1019 16.2953C66.7989 16.9468 66.6474 17.7422 66.6474 18.6816C66.6474 19.6286 66.7989 20.4278 67.1019 21.0794C67.4087 21.7309 67.8273 22.2233 68.3576 22.5566C68.8879 22.89 69.4845 23.0566 70.1474 23.0566C70.5148 23.0566 70.8633 23.0074 71.1928 22.9089C71.5261 22.8066 71.8273 22.657 72.0962 22.46C72.3652 22.2631 72.5924 22.0225 72.778 21.7384C72.9674 21.4506 73.0981 21.121 73.1701 20.7498L74.9428 20.7555C74.8481 21.3275 74.6644 21.854 74.3917 22.335C74.1227 22.8123 73.7761 23.2252 73.3519 23.5737C72.9314 23.9184 72.4504 24.1854 71.9087 24.3748C71.3671 24.5642 70.7761 24.6589 70.136 24.6589C69.1284 24.6589 68.2307 24.4203 67.4428 23.943C66.6549 23.4619 66.0337 22.7744 65.5792 21.8805C65.1284 20.9866 64.903 19.9203 64.903 18.6816C64.903 17.4392 65.1303 16.3729 65.5849 15.4828C66.0394 14.5888 66.6606 13.9032 67.4485 13.426C68.2364 12.9449 69.1322 12.7044 70.136 12.7044C70.7534 12.7044 71.3292 12.7934 71.8633 12.9714C72.4011 13.1456 72.8841 13.4032 73.3121 13.7441C73.7402 14.0813 74.0943 14.4941 74.3746 14.9828C74.6549 15.4676 74.8443 16.0225 74.9428 16.6475ZM78.6062 19.318V24.4998H76.9073V12.8635H78.5834V17.193H78.6914C78.8959 16.7233 79.2084 16.3502 79.6289 16.0737C80.0493 15.7972 80.5986 15.6589 81.2766 15.6589C81.8751 15.6589 82.3978 15.782 82.8448 16.0282C83.2956 16.2744 83.644 16.6419 83.8903 17.1305C84.1403 17.6153 84.2653 18.2214 84.2653 18.9487V24.4998H82.5664V19.1532C82.5664 18.5131 82.4016 18.0169 82.0721 17.6646C81.7425 17.3085 81.2842 17.1305 80.6971 17.1305C80.2956 17.1305 79.9357 17.2157 79.6175 17.3862C79.3031 17.5566 79.055 17.8066 78.8732 18.1362C78.6952 18.4619 78.6062 18.8559 78.6062 19.318ZM89.0721 24.693C88.519 24.693 88.019 24.5907 87.5721 24.3862C87.1251 24.1778 86.7709 23.8767 86.5096 23.4828C86.252 23.0888 86.1232 22.6059 86.1232 22.0339C86.1232 21.5415 86.2179 21.1362 86.4073 20.818C86.5967 20.4998 86.8524 20.2479 87.1743 20.0623C87.4963 19.8767 87.8562 19.7366 88.2539 19.6419C88.6516 19.5472 89.0569 19.4752 89.4698 19.4259C89.9925 19.3653 90.4168 19.3161 90.7425 19.2782C91.0683 19.2366 91.305 19.1703 91.4528 19.0794C91.6005 18.9885 91.6743 18.8407 91.6743 18.6362V18.5964C91.6743 18.1002 91.5342 17.7157 91.2539 17.443C90.9774 17.1703 90.5645 17.0339 90.0153 17.0339C89.4433 17.0339 88.9925 17.1608 88.663 17.4146C88.3372 17.6646 88.1118 17.943 87.9868 18.2498L86.3903 17.8862C86.5796 17.3559 86.8562 16.9278 87.2198 16.6021C87.5872 16.2725 88.0096 16.0339 88.4868 15.8862C88.9641 15.7347 89.466 15.6589 89.9925 15.6589C90.341 15.6589 90.7103 15.7006 91.1005 15.7839C91.4944 15.8635 91.8618 16.0112 92.2028 16.2271C92.5474 16.443 92.8296 16.7517 93.0493 17.1532C93.269 17.551 93.3789 18.068 93.3789 18.7044V24.4998H91.7198V23.3066H91.6516C91.5418 23.5263 91.377 23.7422 91.1573 23.9544C90.9376 24.1665 90.6554 24.3426 90.3107 24.4828C89.966 24.6229 89.5531 24.693 89.0721 24.693ZM89.4414 23.3294C89.9111 23.3294 90.3126 23.2366 90.6459 23.0509C90.9831 22.8653 91.2387 22.6229 91.413 22.3237C91.591 22.0206 91.68 21.6968 91.68 21.3521V20.2271C91.6194 20.2877 91.502 20.3445 91.3278 20.3975C91.1573 20.4468 90.9622 20.4903 90.7425 20.5282C90.5228 20.5623 90.3088 20.5945 90.1005 20.6248C89.8921 20.6513 89.7179 20.6741 89.5778 20.693C89.2482 20.7347 88.9471 20.8047 88.6743 20.9032C88.4054 21.0017 88.1895 21.1438 88.0266 21.3294C87.8675 21.5112 87.788 21.7536 87.788 22.0566C87.788 22.4771 87.9433 22.7953 88.2539 23.0112C88.5645 23.2233 88.9603 23.3294 89.4414 23.3294ZM99.7155 15.7725V17.1362H94.9485V15.7725H99.7155ZM96.2269 13.6816H97.9258V21.9373C97.9258 22.2669 97.975 22.515 98.0735 22.6816C98.172 22.8445 98.2989 22.9563 98.4542 23.0169C98.6133 23.0737 98.7856 23.1021 98.9712 23.1021C99.1076 23.1021 99.2269 23.0926 99.3292 23.0737C99.4314 23.0547 99.511 23.0396 99.5678 23.0282L99.8746 24.4316C99.7761 24.4695 99.636 24.5074 99.4542 24.5453C99.2724 24.5869 99.0451 24.6097 98.7724 24.6134C98.3254 24.621 97.9087 24.5415 97.5224 24.3748C97.136 24.2081 96.8235 23.9506 96.5849 23.6021C96.3462 23.2536 96.2269 22.8161 96.2269 22.2896V13.6816ZM107.721 24.4998L105.153 15.7725H106.909L108.619 22.1816H108.704L110.42 15.7725H112.176L113.88 22.1532H113.966L115.664 15.7725H117.42L114.858 24.4998H113.125L111.352 18.1987H111.221L109.448 24.4998H107.721ZM119.032 24.4998V15.7725H120.731V24.4998H119.032ZM119.89 14.426C119.595 14.426 119.341 14.3275 119.129 14.1305C118.921 13.9297 118.816 13.6911 118.816 13.4146C118.816 13.1343 118.921 12.8956 119.129 12.6987C119.341 12.4979 119.595 12.3975 119.89 12.3975C120.186 12.3975 120.438 12.4979 120.646 12.6987C120.858 12.8956 120.964 13.1343 120.964 13.4146C120.964 13.6911 120.858 13.9297 120.646 14.1305C120.438 14.3275 120.186 14.426 119.89 14.426ZM127.091 15.7725V17.1362H122.323V15.7725H127.091ZM123.602 13.6816H125.301V21.9373C125.301 22.2669 125.35 22.515 125.448 22.6816C125.547 22.8445 125.674 22.9563 125.829 23.0169C125.988 23.0737 126.161 23.1021 126.346 23.1021C126.483 23.1021 126.602 23.0926 126.704 23.0737C126.806 23.0547 126.886 23.0396 126.943 23.0282L127.25 24.4316C127.151 24.4695 127.011 24.5074 126.829 24.5453C126.647 24.5869 126.42 24.6097 126.147 24.6134C125.7 24.621 125.284 24.5415 124.897 24.3748C124.511 24.2081 124.198 23.9506 123.96 23.6021C123.721 23.2536 123.602 22.8161 123.602 22.2896V13.6816ZM130.856 19.318V24.4998H129.157V12.8635H130.833V17.193H130.941C131.146 16.7233 131.458 16.3502 131.879 16.0737C132.299 15.7972 132.849 15.6589 133.527 15.6589C134.125 15.6589 134.648 15.782 135.095 16.0282C135.546 16.2744 135.894 16.6419 136.14 17.1305C136.39 17.6153 136.515 18.2214 136.515 18.9487V24.4998H134.816V19.1532C134.816 18.5131 134.652 18.0169 134.322 17.6646C133.993 17.3085 133.534 17.1305 132.947 17.1305C132.546 17.1305 132.186 17.2157 131.868 17.3862C131.553 17.5566 131.305 17.8066 131.123 18.1362C130.945 18.4619 130.856 18.8559 130.856 19.318ZM143.017 24.4998V15.7725H144.647V17.193H144.755C144.937 16.7119 145.234 16.3369 145.647 16.068C146.06 15.7953 146.555 15.6589 147.13 15.6589C147.714 15.6589 148.202 15.7953 148.596 16.068C148.994 16.3407 149.287 16.7157 149.477 17.193H149.568C149.776 16.7271 150.108 16.3559 150.562 16.0794C151.017 15.7991 151.558 15.6589 152.187 15.6589C152.979 15.6589 153.625 15.907 154.125 16.4032C154.628 16.8994 154.88 17.6475 154.88 18.6475V24.4998H153.181V18.8066C153.181 18.2157 153.02 17.7877 152.698 17.5225C152.377 17.2574 151.992 17.1248 151.545 17.1248C150.992 17.1248 150.562 17.2953 150.255 17.6362C149.948 17.9733 149.795 18.407 149.795 18.9373V24.4998H148.102V18.6987C148.102 18.2252 147.954 17.8445 147.659 17.5566C147.363 17.2688 146.979 17.1248 146.505 17.1248C146.183 17.1248 145.886 17.21 145.613 17.3805C145.344 17.5472 145.127 17.7801 144.96 18.0794C144.797 18.3786 144.716 18.7252 144.716 19.1191V24.4998H143.017ZM160.919 24.6759C160.059 24.6759 159.318 24.4922 158.697 24.1248C158.08 23.7536 157.602 23.2328 157.265 22.5623C156.932 21.8881 156.765 21.0983 156.765 20.193C156.765 19.2991 156.932 18.5112 157.265 17.8294C157.602 17.1475 158.072 16.6153 158.674 16.2328C159.28 15.8502 159.989 15.6589 160.799 15.6589C161.292 15.6589 161.769 15.7403 162.231 15.9032C162.693 16.0661 163.108 16.3218 163.475 16.6703C163.843 17.0188 164.133 17.4714 164.345 18.0282C164.557 18.5813 164.663 19.2536 164.663 20.0453V20.6475H157.725V19.3748H162.998C162.998 18.9278 162.907 18.532 162.725 18.1873C162.544 17.8388 162.288 17.5642 161.958 17.3635C161.633 17.1627 161.25 17.0623 160.811 17.0623C160.333 17.0623 159.917 17.1797 159.561 17.4146C159.208 17.6456 158.936 17.9487 158.743 18.3237C158.553 18.6949 158.458 19.0983 158.458 19.5339V20.5282C158.458 21.1116 158.561 21.6078 158.765 22.0169C158.974 22.4259 159.263 22.7384 159.635 22.9544C160.006 23.1665 160.439 23.2725 160.936 23.2725C161.258 23.2725 161.551 23.2271 161.816 23.1362C162.082 23.0415 162.311 22.9013 162.504 22.7157C162.697 22.5301 162.845 22.3009 162.947 22.0282L164.555 22.318C164.426 22.7915 164.195 23.2063 163.862 23.5623C163.532 23.9146 163.118 24.1892 162.618 24.3862C162.121 24.5794 161.555 24.6759 160.919 24.6759ZM174.458 24.6759C173.64 24.6759 172.926 24.4884 172.316 24.1134C171.707 23.7384 171.233 23.2138 170.896 22.5396C170.559 21.8653 170.39 21.0775 170.39 20.1759C170.39 19.2706 170.559 18.479 170.896 17.801C171.233 17.1229 171.707 16.5964 172.316 16.2214C172.926 15.8464 173.64 15.6589 174.458 15.6589C175.277 15.6589 175.991 15.8464 176.6 16.2214C177.21 16.5964 177.684 17.1229 178.021 17.801C178.358 18.479 178.527 19.2706 178.527 20.1759C178.527 21.0775 178.358 21.8653 178.021 22.5396C177.684 23.2138 177.21 23.7384 176.6 24.1134C175.991 24.4884 175.277 24.6759 174.458 24.6759ZM174.464 23.2498C174.994 23.2498 175.434 23.1097 175.782 22.8294C176.131 22.5491 176.388 22.1759 176.555 21.71C176.725 21.2441 176.811 20.7309 176.811 20.1703C176.811 19.6135 176.725 19.1021 176.555 18.6362C176.388 18.1665 176.131 17.7896 175.782 17.5055C175.434 17.2214 174.994 17.0794 174.464 17.0794C173.93 17.0794 173.487 17.2214 173.135 17.5055C172.786 17.7896 172.527 18.1665 172.356 18.6362C172.189 19.1021 172.106 19.6135 172.106 20.1703C172.106 20.7309 172.189 21.2441 172.356 21.71C172.527 22.1759 172.786 22.5491 173.135 22.8294C173.487 23.1097 173.93 23.2498 174.464 23.2498ZM182.122 19.318V24.4998H180.423V15.7725H182.054V17.193H182.162C182.362 16.7309 182.677 16.3597 183.105 16.0794C183.537 15.7991 184.08 15.6589 184.735 15.6589C185.33 15.6589 185.851 15.7839 186.298 16.0339C186.745 16.2801 187.091 16.6475 187.338 17.1362C187.584 17.6248 187.707 18.229 187.707 18.9487V24.4998H186.008V19.1532C186.008 18.5206 185.843 18.0263 185.514 17.6703C185.184 17.3104 184.732 17.1305 184.156 17.1305C183.762 17.1305 183.412 17.2157 183.105 17.3862C182.802 17.5566 182.561 17.8066 182.383 18.1362C182.209 18.4619 182.122 18.8559 182.122 19.318Z" fill="#E8E8E8"/>
<path d="M71.6182 34.8429C71.578 34.4001 71.3989 34.056 71.081 33.8105C70.767 33.561 70.3183 33.4362 69.7347 33.4362C69.3484 33.4362 69.0264 33.4866 68.7688 33.5872C68.5112 33.6878 68.3181 33.8266 68.1893 34.0037C68.0605 34.1768 67.9941 34.376 67.99 34.6014C67.982 34.7865 68.0182 34.9495 68.0987 35.0904C68.1832 35.2312 68.304 35.356 68.4609 35.4647C68.6219 35.5693 68.8151 35.6619 69.0405 35.7424C69.2658 35.8228 69.5194 35.8933 69.8011 35.9536L70.8636 36.1951C71.4754 36.3279 72.0147 36.505 72.4815 36.7264C72.9524 36.9477 73.3468 37.2113 73.6648 37.5172C73.9867 37.8231 74.2302 38.1752 74.3952 38.5737C74.5602 38.9721 74.6448 39.4188 74.6488 39.9139C74.6448 40.6947 74.4475 41.3648 74.0572 41.9242C73.6668 42.4836 73.1053 42.9122 72.3729 43.21C71.6444 43.5079 70.765 43.6568 69.7347 43.6568C68.7004 43.6568 67.7989 43.5018 67.0302 43.1919C66.2615 42.882 65.6638 42.4112 65.2372 41.7793C64.8106 41.1474 64.5913 40.3485 64.5792 39.3826H67.4407C67.4648 39.7811 67.5715 40.1131 67.7606 40.3787C67.9498 40.6443 68.2094 40.8456 68.5394 40.9824C68.8734 41.1192 69.2598 41.1877 69.6985 41.1877C70.101 41.1877 70.4431 41.1333 70.7248 41.0247C71.0105 40.916 71.2299 40.7651 71.3828 40.5719C71.5357 40.3787 71.6142 40.1574 71.6182 39.9078C71.6142 39.6744 71.5418 39.4752 71.4009 39.3102C71.26 39.1411 71.0427 38.9963 70.7489 38.8755C70.4591 38.7508 70.0889 38.6361 69.6381 38.5314L68.3462 38.2296C67.2757 37.9841 66.4325 37.5876 65.8167 37.0403C65.201 36.4889 64.8951 35.7444 64.8991 34.8066C64.8951 34.042 65.1004 33.3719 65.5149 32.7963C65.9294 32.2208 66.5029 31.7721 67.2354 31.4501C67.9679 31.1281 68.803 30.9671 69.7408 30.9671C70.6986 30.9671 71.5297 31.1301 72.234 31.4561C72.9423 31.7781 73.4917 32.2309 73.8821 32.8144C74.2725 33.398 74.4717 34.0742 74.4797 34.8429H71.6182ZM79.1101 31.1362V43.4998H76.158V31.1362H79.1101ZM83.6031 43.6568C83.0114 43.6568 82.4862 43.5582 82.0274 43.361C81.5726 43.1597 81.2124 42.8579 80.9468 42.4554C80.6852 42.0489 80.5544 41.5398 80.5544 40.9281C80.5544 40.4129 80.645 39.9783 80.8261 39.6241C81.0072 39.2699 81.2567 38.9822 81.5746 38.7608C81.8926 38.5395 82.2588 38.3724 82.6734 38.2598C83.0879 38.143 83.5306 38.0646 84.0015 38.0243C84.5287 37.976 84.9533 37.9257 85.2753 37.8734C85.5973 37.817 85.8307 37.7386 85.9756 37.638C86.1245 37.5333 86.1989 37.3864 86.1989 37.1973V37.1671C86.1989 36.8572 86.0923 36.6177 85.879 36.4487C85.6657 36.2796 85.3779 36.1951 85.0157 36.1951C84.6253 36.1951 84.3114 36.2796 84.0739 36.4487C83.8365 36.6177 83.6856 36.8511 83.6212 37.149L80.8985 37.0524C80.979 36.4889 81.1863 35.9858 81.5203 35.5431C81.8584 35.0964 82.3212 34.7463 82.9088 34.4927C83.5004 34.2351 84.2108 34.1063 85.0398 34.1063C85.6315 34.1063 86.1768 34.1768 86.6759 34.3176C87.1749 34.4545 87.6096 34.6557 87.9798 34.9213C88.3501 35.1829 88.6358 35.5049 88.8371 35.8872C89.0423 36.2696 89.145 36.7063 89.145 37.1973V43.4998H86.368V42.2079H86.2955C86.1305 42.5218 85.9192 42.7875 85.6616 43.0048C85.4081 43.2221 85.1083 43.3851 84.7621 43.4938C84.4201 43.6024 84.0337 43.6568 83.6031 43.6568ZM84.5146 41.725C84.8326 41.725 85.1183 41.6606 85.3719 41.5318C85.6295 41.403 85.8347 41.2259 85.9876 41.0005C86.1406 40.7711 86.217 40.5055 86.217 40.2036V39.3223C86.1325 39.3665 86.0299 39.4068 85.9092 39.443C85.7924 39.4792 85.6637 39.5134 85.5228 39.5456C85.3819 39.5778 85.2371 39.606 85.0881 39.6301C84.9392 39.6543 84.7964 39.6764 84.6595 39.6965C84.3818 39.7408 84.1444 39.8092 83.9472 39.9018C83.754 39.9944 83.6051 40.1151 83.5004 40.264C83.3998 40.4089 83.3495 40.582 83.3495 40.7832C83.3495 41.0891 83.4582 41.3225 83.6755 41.4835C83.8969 41.6445 84.1766 41.725 84.5146 41.725ZM95.2785 43.6749C94.3005 43.6749 93.4614 43.4737 92.7611 43.0712C92.0648 42.6687 91.5295 42.1093 91.1553 41.3929C90.781 40.6725 90.5938 39.8394 90.5938 38.8936C90.5938 37.9438 90.781 37.1107 91.1553 36.3943C91.5336 35.6739 92.0709 35.1125 92.7671 34.71C93.4674 34.3076 94.3025 34.1063 95.2724 34.1063C96.1297 34.1063 96.8763 34.2613 97.5121 34.5712C98.1521 34.8811 98.6511 35.3198 99.0093 35.8872C99.3715 36.4507 99.5627 37.1127 99.5828 37.8734H96.8239C96.7676 37.3985 96.6066 37.0262 96.341 36.7566C96.0794 36.4869 95.7373 36.3521 95.3147 36.3521C94.9726 36.3521 94.6728 36.4487 94.4152 36.6419C94.1576 36.831 93.9564 37.1127 93.8115 37.487C93.6706 37.8573 93.6002 38.3161 93.6002 38.8635C93.6002 39.4108 93.6706 39.8736 93.8115 40.2519C93.9564 40.6262 94.1576 40.91 94.4152 41.1032C94.6728 41.2923 94.9726 41.3869 95.3147 41.3869C95.5884 41.3869 95.8299 41.3285 96.0391 41.2118C96.2524 41.0951 96.4275 40.9241 96.5643 40.6987C96.7012 40.4693 96.7877 40.1916 96.8239 39.8656H99.5828C99.5546 40.6303 99.3635 41.2983 99.0093 41.8698C98.6592 42.4413 98.1661 42.8861 97.5303 43.204C96.8984 43.5179 96.1478 43.6749 95.2785 43.6749ZM103.756 41.0669L103.768 37.5474H104.178L106.786 34.2271H110.131L106.255 38.9842H105.476L103.756 41.0669ZM101.094 43.4998V31.1362H104.046V43.4998H101.094ZM106.853 43.4998L104.426 39.6483L106.37 37.5534L110.264 43.4998H106.853Z" fill="#D54AD5"/>
</g>
<rect x="1.04963" y="1.04982" width="198.9" height="53.9" rx="6.95" stroke="white" stroke-opacity="0.15" stroke-width="2.1"/>
<defs>
<filter id="filter0_d_28_815" x="6.28535" y="2.28553" width="51.4286" height="51.4286" filterUnits="userSpaceOnUse" color-interpolation-filters="sRGB">
<feFlood flood-opacity="0" result="BackgroundImageFix"/>
<feColorMatrix in="SourceAlpha" type="matrix" values="0 0 0 0 0 0 0 0 0 0 0 0 0 0 0 0 0 0 127 0" result="hardAlpha"/>
<feOffset/>
<feGaussianBlur stdDeviation="2.85714"/>
<feComposite in2="hardAlpha" operator="out"/>
<feColorMatrix type="matrix" values="0 0 0 0 0 0 0 0 0 0 0 0 0 0 0 0 0 0 0.25 0"/>
<feBlend mode="normal" in2="BackgroundImageFix" result="effect1_dropShadow_28_815"/>
<feBlend mode="normal" in="SourceGraphic" in2="effect1_dropShadow_28_815" result="shape"/>
</filter>
<filter id="filter1_d_28_815" x="58.3996" y="3.89982" width="136.2" height="48.2" filterUnits="userSpaceOnUse" color-interpolation-filters="sRGB">
<feFlood flood-opacity="0" result="BackgroundImageFix"/>
<feColorMatrix in="SourceAlpha" type="matrix" values="0 0 0 0 0 0 0 0 0 0 0 0 0 0 0 0 0 0 127 0" result="hardAlpha"/>
<feOffset/>
<feGaussianBlur stdDeviation="2.8"/>
<feComposite in2="hardAlpha" operator="out"/>
<feColorMatrix type="matrix" values="0 0 0 0 0 0 0 0 0 0 0 0 0 0 0 0 0 0 0.25 0"/>
<feBlend mode="normal" in2="BackgroundImageFix" result="effect1_dropShadow_28_815"/>
<feBlend mode="normal" in="SourceGraphic" in2="effect1_dropShadow_28_815" result="shape"/>
</filter>
<linearGradient id="paint0_linear_28_815" x1="99.7766" y1="-0.00015174" x2="99.7766" y2="55.9998" gradientUnits="userSpaceOnUse">
<stop stop-color="#2C0C2C"/>
<stop offset="1" stop-color="#1C081C"/>
</linearGradient>
</defs>
</svg>
