<svg width="176" height="56" viewBox="0 0 176 56" fill="none" xmlns="http://www.w3.org/2000/svg">
<rect x="-0.000366211" y="-4.57764e-05" width="176" height="56" rx="8" fill="url(#paint0_linear_28_774)"/>
<g filter="url(#filter0_d_28_774)">
<path d="M15.3195 7.99995L12.7139 14.9486V42.7398H22.2635V47.9538H27.4772L32.6857 42.7398H40.5007L50.9228 32.3215V7.99995H15.3195ZM18.791 11.4721H47.4499V30.5808L41.3695 36.6617H31.8183L26.6113 41.8684V36.6617H18.791V11.4721ZM28.3445 28.846H31.8183V18.4244H28.3445V28.846ZM37.8962 28.846H41.3694V18.4244H37.8962V28.846Z" fill="#7755AC"/>
</g>
<g filter="url(#filter1_d_28_774)">
<path d="M67.5565 24.4999L64.3292 12.8636H66.1758L68.4428 21.875H68.5508L70.9087 12.8636H72.7383L75.0962 21.8806H75.2042L77.4655 12.8636H79.3178L76.0849 24.4999H74.3178L71.8689 15.784H71.778L69.3292 24.4999H67.5565ZM82.4627 24.6931C81.9097 24.6931 81.4097 24.5909 80.9627 24.3863C80.5157 24.178 80.1616 23.8768 79.9002 23.4829C79.6426 23.089 79.5138 22.606 79.5138 22.034C79.5138 21.5416 79.6085 21.1363 79.7979 20.8181C79.9873 20.5 80.243 20.2481 80.565 20.0625C80.8869 19.8768 81.2468 19.7367 81.6445 19.642C82.0422 19.5473 82.4475 19.4753 82.8604 19.4261C83.3832 19.3655 83.8074 19.3162 84.1332 19.2784C84.4589 19.2367 84.6957 19.1704 84.8434 19.0795C84.9911 18.9886 85.065 18.8409 85.065 18.6363V18.5965C85.065 18.1003 84.9248 17.7159 84.6445 17.4431C84.368 17.1704 83.9551 17.034 83.4059 17.034C82.8339 17.034 82.3832 17.1609 82.0536 17.4147C81.7278 17.6647 81.5025 17.9431 81.3775 18.25L79.7809 17.8863C79.9703 17.356 80.2468 16.928 80.6104 16.6022C80.9778 16.2727 81.4002 16.034 81.8775 15.8863C82.3547 15.7348 82.8566 15.659 83.3832 15.659C83.7316 15.659 84.101 15.7007 84.4911 15.784C84.885 15.8636 85.2525 16.0113 85.5934 16.2272C85.9381 16.4431 86.2203 16.7518 86.44 17.1534C86.6597 17.5511 86.7695 18.0681 86.7695 18.7045V24.4999H85.1104V23.3068H85.0422C84.9324 23.5265 84.7676 23.7424 84.5479 23.9545C84.3282 24.1666 84.046 24.3428 83.7013 24.4829C83.3566 24.6231 82.9438 24.6931 82.4627 24.6931ZM82.832 23.3295C83.3017 23.3295 83.7032 23.2367 84.0366 23.0511C84.3737 22.8655 84.6294 22.6231 84.8036 22.3238C84.9816 22.0208 85.0707 21.6969 85.0707 21.3522V20.2272C85.01 20.2878 84.8926 20.3446 84.7184 20.3977C84.5479 20.4469 84.3528 20.4905 84.1332 20.5284C83.9135 20.5625 83.6994 20.5946 83.4911 20.625C83.2828 20.6515 83.1085 20.6742 82.9684 20.6931C82.6388 20.7348 82.3377 20.8049 82.065 20.9034C81.796 21.0018 81.5801 21.1439 81.4172 21.3295C81.2582 21.5113 81.1786 21.7537 81.1786 22.0568C81.1786 22.4772 81.3339 22.7954 81.6445 23.0113C81.9551 23.2234 82.351 23.3295 82.832 23.3295ZM93.1062 15.7727V17.1363H88.3391V15.7727H93.1062ZM89.6175 13.6818H91.3164V21.9375C91.3164 22.267 91.3656 22.5151 91.4641 22.6818C91.5626 22.8446 91.6895 22.9564 91.8448 23.017C92.0039 23.0738 92.1762 23.1022 92.3618 23.1022C92.4982 23.1022 92.6175 23.0928 92.7198 23.0738C92.8221 23.0549 92.9016 23.0397 92.9584 23.0284L93.2653 24.4318C93.1668 24.4696 93.0266 24.5075 92.8448 24.5454C92.663 24.5871 92.4357 24.6098 92.163 24.6136C91.716 24.6212 91.2993 24.5416 90.913 24.3749C90.5266 24.2083 90.2141 23.9507 89.9755 23.6022C89.7368 23.2537 89.6175 22.8162 89.6175 22.2897V13.6818ZM98.5678 24.6761C97.7231 24.6761 96.9958 24.4848 96.386 24.1022C95.7799 23.7159 95.314 23.1837 94.9883 22.5056C94.6625 21.8276 94.4996 21.0511 94.4996 20.1761C94.4996 19.2897 94.6663 18.5075 94.9996 17.8295C95.333 17.1477 95.8027 16.6155 96.4087 16.2329C97.0148 15.8503 97.7288 15.659 98.5508 15.659C99.2136 15.659 99.8045 15.7821 100.323 16.0284C100.842 16.2708 101.261 16.6117 101.579 17.0511C101.901 17.4905 102.092 18.0037 102.153 18.5909H100.5C100.409 18.1818 100.2 17.8295 99.8746 17.534C99.5527 17.2386 99.1208 17.0909 98.5792 17.0909C98.1057 17.0909 97.6909 17.2159 97.3349 17.4659C96.9826 17.7121 96.708 18.0643 96.511 18.5227C96.314 18.9772 96.2155 19.5151 96.2155 20.1363C96.2155 20.7727 96.3121 21.3219 96.5053 21.784C96.6985 22.2462 96.9712 22.6041 97.3235 22.8579C97.6795 23.1117 98.0981 23.2386 98.5792 23.2386C98.9011 23.2386 99.1928 23.1799 99.4542 23.0625C99.7193 22.9412 99.9409 22.7689 100.119 22.5454C100.301 22.3219 100.428 22.053 100.5 21.7386H102.153C102.092 22.303 101.909 22.8068 101.602 23.25C101.295 23.6931 100.884 24.0416 100.369 24.2954C99.8576 24.5492 99.2572 24.6761 98.5678 24.6761ZM105.669 19.3181V24.4999H103.97V12.8636H105.646V17.1931H105.754C105.958 16.7234 106.271 16.3503 106.691 16.0738C107.112 15.7973 107.661 15.659 108.339 15.659C108.938 15.659 109.46 15.7821 109.907 16.0284C110.358 16.2746 110.707 16.642 110.953 17.1306C111.203 17.6155 111.328 18.2215 111.328 18.9488V24.4999H109.629V19.1534C109.629 18.5132 109.464 18.017 109.135 17.6647C108.805 17.3087 108.347 17.1306 107.76 17.1306C107.358 17.1306 106.998 17.2159 106.68 17.3863C106.366 17.5568 106.118 17.8068 105.936 18.1363C105.758 18.4621 105.669 18.856 105.669 19.3181ZM117.829 24.4999V15.7727H119.46V17.1931H119.568C119.75 16.7121 120.047 16.3371 120.46 16.0681C120.873 15.7954 121.367 15.659 121.943 15.659C122.526 15.659 123.015 15.7954 123.409 16.0681C123.806 16.3409 124.1 16.7159 124.289 17.1931H124.38C124.589 16.7272 124.92 16.356 125.375 16.0795C125.829 15.7992 126.371 15.659 127 15.659C127.791 15.659 128.437 15.9071 128.937 16.4034C129.441 16.8996 129.693 17.6477 129.693 18.6477V24.4999H127.994V18.8068C127.994 18.2159 127.833 17.7878 127.511 17.5227C127.189 17.2575 126.805 17.125 126.358 17.125C125.805 17.125 125.375 17.2954 125.068 17.6363C124.761 17.9734 124.608 18.4071 124.608 18.9375V24.4999H122.914V18.6988C122.914 18.2253 122.767 17.8446 122.471 17.5568C122.176 17.2689 121.791 17.125 121.318 17.125C120.996 17.125 120.698 17.2102 120.426 17.3806C120.157 17.5473 119.939 17.7803 119.772 18.0795C119.609 18.3787 119.528 18.7253 119.528 19.1193V24.4999H117.829ZM135.731 24.6761C134.871 24.6761 134.131 24.4924 133.51 24.1249C132.892 23.7537 132.415 23.2329 132.078 22.5625C131.744 21.8882 131.578 21.0984 131.578 20.1931C131.578 19.2992 131.744 18.5113 132.078 17.8295C132.415 17.1477 132.885 16.6155 133.487 16.2329C134.093 15.8503 134.801 15.659 135.612 15.659C136.104 15.659 136.582 15.7405 137.044 15.9034C137.506 16.0662 137.921 16.3219 138.288 16.6704C138.655 17.0189 138.945 17.4715 139.157 18.0284C139.369 18.5814 139.475 19.2537 139.475 20.0454V20.6477H132.538V19.375H137.811C137.811 18.928 137.72 18.5321 137.538 18.1875C137.356 17.839 137.1 17.5643 136.771 17.3636C136.445 17.1628 136.063 17.0625 135.623 17.0625C135.146 17.0625 134.729 17.1799 134.373 17.4147C134.021 17.6458 133.748 17.9488 133.555 18.3238C133.366 18.695 133.271 19.0984 133.271 19.534V20.5284C133.271 21.1117 133.373 21.6079 133.578 22.017C133.786 22.4261 134.076 22.7386 134.447 22.9545C134.818 23.1666 135.252 23.2727 135.748 23.2727C136.07 23.2727 136.364 23.2272 136.629 23.1363C136.894 23.0416 137.123 22.9015 137.316 22.7159C137.51 22.5303 137.657 22.3011 137.76 22.0284L139.368 22.3181C139.239 22.7916 139.008 23.2064 138.674 23.5625C138.345 23.9147 137.93 24.1893 137.43 24.3863C136.934 24.5795 136.368 24.6761 135.731 24.6761ZM149.271 24.6761C148.453 24.6761 147.739 24.4886 147.129 24.1136C146.519 23.7386 146.046 23.214 145.708 22.5397C145.371 21.8655 145.203 21.0776 145.203 20.1761C145.203 19.2708 145.371 18.4791 145.708 17.8011C146.046 17.1231 146.519 16.5965 147.129 16.2215C147.739 15.8465 148.453 15.659 149.271 15.659C150.089 15.659 150.803 15.8465 151.413 16.2215C152.023 16.5965 152.496 17.1231 152.833 17.8011C153.171 18.4791 153.339 19.2708 153.339 20.1761C153.339 21.0776 153.171 21.8655 152.833 22.5397C152.496 23.214 152.023 23.7386 151.413 24.1136C150.803 24.4886 150.089 24.6761 149.271 24.6761ZM149.277 23.25C149.807 23.25 150.246 23.1098 150.595 22.8295C150.943 22.5492 151.201 22.1761 151.368 21.7102C151.538 21.2443 151.623 20.731 151.623 20.1704C151.623 19.6136 151.538 19.1022 151.368 18.6363C151.201 18.1666 150.943 17.7897 150.595 17.5056C150.246 17.2215 149.807 17.0795 149.277 17.0795C148.743 17.0795 148.299 17.2215 147.947 17.5056C147.599 17.7897 147.339 18.1666 147.169 18.6363C147.002 19.1022 146.919 19.6136 146.919 20.1704C146.919 20.731 147.002 21.2443 147.169 21.7102C147.339 22.1761 147.599 22.5492 147.947 22.8295C148.299 23.1098 148.743 23.25 149.277 23.25ZM156.934 19.3181V24.4999H155.235V15.7727H156.866V17.1931H156.974C157.175 16.731 157.489 16.3598 157.917 16.0795C158.349 15.7992 158.893 15.659 159.548 15.659C160.143 15.659 160.663 15.784 161.11 16.034C161.557 16.2803 161.904 16.6477 162.15 17.1363C162.396 17.625 162.519 18.2291 162.519 18.9488V24.4999H160.821V19.1534C160.821 18.5208 160.656 18.0265 160.326 17.6704C159.997 17.3106 159.544 17.1306 158.968 17.1306C158.574 17.1306 158.224 17.2159 157.917 17.3863C157.614 17.5568 157.374 17.8068 157.196 18.1363C157.021 18.4621 156.934 18.856 156.934 19.3181Z" fill="#E8E8E8"/>
<path d="M64.5309 33.5632V31.1363H74.9808V33.5632H71.2319V43.4999H68.2859V33.5632H64.5309ZM77.1103 43.4999L74.6956 34.2272H77.6597L78.9093 40.1676H78.9878L80.328 34.2272H83.2197L84.5961 40.1253H84.6746L85.888 34.2272H88.8522L86.4314 43.4999H83.274L81.8252 38.0969H81.7226L80.2737 43.4999H77.1103ZM90.0369 43.4999V34.2272H92.989V43.4999H90.0369ZM91.516 33.1466C91.1014 33.1466 90.7452 33.0098 90.4474 32.7361C90.1496 32.4584 90.0007 32.1244 90.0007 31.734C90.0007 31.3476 90.1496 31.0176 90.4474 30.7439C90.7452 30.4662 91.1014 30.3274 91.516 30.3274C91.9345 30.3274 92.2907 30.4662 92.5845 30.7439C92.8823 31.0176 93.0312 31.3476 93.0312 31.734C93.0312 32.1244 92.8823 32.4584 92.5845 32.7361C92.2907 33.0098 91.9345 33.1466 91.516 33.1466ZM100.102 34.2272V36.4005H94.2522V34.2272H100.102ZM95.4777 32.0056H98.4298V40.5841C98.4298 40.7652 98.4579 40.9121 98.5143 41.0248C98.5746 41.1335 98.6612 41.212 98.7739 41.2602C98.8865 41.3045 99.0214 41.3267 99.1783 41.3267C99.291 41.3267 99.4098 41.3166 99.5345 41.2965C99.6633 41.2723 99.7599 41.2522 99.8243 41.2361L100.271 43.3671C100.13 43.4074 99.9309 43.4577 99.6734 43.5181C99.4198 43.5784 99.116 43.6167 98.7618 43.6328C98.0696 43.665 97.4759 43.5845 96.9809 43.3913C96.4899 43.1941 96.1136 42.8882 95.852 42.4737C95.5944 42.0591 95.4696 41.5379 95.4777 40.9101V32.0056ZM105.837 43.675C104.859 43.675 104.02 43.4738 103.32 43.0713C102.623 42.6689 102.088 42.1094 101.714 41.3931C101.34 40.6727 101.152 39.8396 101.152 38.8938C101.152 37.944 101.34 37.1109 101.714 36.3945C102.092 35.6741 102.629 35.1126 103.326 34.7102C104.026 34.3077 104.861 34.1065 105.831 34.1065C106.688 34.1065 107.435 34.2614 108.071 34.5713C108.711 34.8812 109.21 35.3199 109.568 35.8874C109.93 36.4508 110.121 37.1129 110.141 37.8735H107.383C107.326 37.3986 107.165 37.0263 106.9 36.7567C106.638 36.487 106.296 36.3522 105.873 36.3522C105.531 36.3522 105.231 36.4488 104.974 36.642C104.716 36.8312 104.515 37.1129 104.37 37.4872C104.229 37.8574 104.159 38.3162 104.159 38.8636C104.159 39.4109 104.229 39.8738 104.37 40.2521C104.515 40.6264 104.716 40.9101 104.974 41.1033C105.231 41.2924 105.531 41.387 105.873 41.387C106.147 41.387 106.388 41.3287 106.598 41.212C106.811 41.0952 106.986 40.9242 107.123 40.6988C107.26 40.4694 107.346 40.1917 107.383 39.8657H110.141C110.113 40.6304 109.922 41.2985 109.568 41.87C109.218 42.4415 108.725 42.8862 108.089 43.2041C107.457 43.5181 106.706 43.675 105.837 43.675ZM114.604 38.2116V43.4999H111.652V31.1363H114.508V35.9296H114.61C114.82 35.3581 115.162 34.9114 115.637 34.5894C116.115 34.2675 116.701 34.1065 117.393 34.1065C118.045 34.1065 118.613 34.2514 119.096 34.5411C119.579 34.8269 119.953 35.2314 120.219 35.7546C120.488 36.2778 120.621 36.8895 120.617 37.5898V43.4999H117.665V38.1693C117.669 37.6542 117.54 37.2517 117.279 36.962C117.017 36.6722 116.649 36.5273 116.174 36.5273C115.864 36.5273 115.59 36.5957 115.353 36.7326C115.119 36.8654 114.936 37.0565 114.803 37.3061C114.675 37.5556 114.608 37.8574 114.604 38.2116Z" fill="#7755AC"/>
</g>
<rect x="1.04963" y="1.04995" width="173.9" height="53.9" rx="6.95" stroke="white" stroke-opacity="0.15" stroke-width="2.1"/>
<defs>
<filter id="filter0_d_28_774" x="6.28535" y="2.28567" width="51.4286" height="51.4286" filterUnits="userSpaceOnUse" color-interpolation-filters="sRGB">
<feFlood flood-opacity="0" result="BackgroundImageFix"/>
<feColorMatrix in="SourceAlpha" type="matrix" values="0 0 0 0 0 0 0 0 0 0 0 0 0 0 0 0 0 0 127 0" result="hardAlpha"/>
<feOffset/>
<feGaussianBlur stdDeviation="2.85714"/>
<feComposite in2="hardAlpha" operator="out"/>
<feColorMatrix type="matrix" values="0 0 0 0 0 0 0 0 0 0 0 0 0 0 0 0 0 0 0.25 0"/>
<feBlend mode="normal" in2="BackgroundImageFix" result="effect1_dropShadow_28_774"/>
<feBlend mode="normal" in="SourceGraphic" in2="effect1_dropShadow_28_774" result="shape"/>
</filter>
<filter id="filter1_d_28_774" x="58.3996" y="3.89995" width="111.2" height="48.2" filterUnits="userSpaceOnUse" color-interpolation-filters="sRGB">
<feFlood flood-opacity="0" result="BackgroundImageFix"/>
<feColorMatrix in="SourceAlpha" type="matrix" values="0 0 0 0 0 0 0 0 0 0 0 0 0 0 0 0 0 0 127 0" result="hardAlpha"/>
<feOffset/>
<feGaussianBlur stdDeviation="2.8"/>
<feComposite in2="hardAlpha" operator="out"/>
<feColorMatrix type="matrix" values="0 0 0 0 0 0 0 0 0 0 0 0 0 0 0 0 0 0 0.25 0"/>
<feBlend mode="normal" in2="BackgroundImageFix" result="effect1_dropShadow_28_774"/>
<feBlend mode="normal" in="SourceGraphic" in2="effect1_dropShadow_28_774" result="shape"/>
</filter>
<linearGradient id="paint0_linear_28_774" x1="87.9996" y1="-4.57764e-05" x2="87.9996" y2="55.9999" gradientUnits="userSpaceOnUse">
<stop stop-color="#1E142F"/>
<stop offset="1" stop-color="#150E20"/>
</linearGradient>
</defs>
</svg>
