<svg width="167" height="56" viewBox="0 0 167 56" fill="none" xmlns="http://www.w3.org/2000/svg">
<rect x="-0.000366211" width="167" height="56" rx="8" fill="url(#paint0_linear_28_755)"/>
<g filter="url(#filter0_d_28_755)">
<path d="M43.6921 13.7144H20.3071C15.719 13.7144 11.9996 17.4688 11.9996 22.1V33.9001C11.9996 38.5314 15.719 42.2858 20.3071 42.2858H43.6921C48.2802 42.2858 51.9996 38.5314 51.9996 33.9001V22.1C51.9996 17.4688 48.2802 13.7144 43.6921 13.7144ZM38.0738 28.5742L27.1359 33.84C26.8445 33.9803 26.5078 33.7659 26.5078 33.4399V22.5791C26.5078 22.2486 26.8533 22.0344 27.1454 22.1838L38.0833 27.7788C38.4085 27.9451 38.4029 28.4158 38.0738 28.5742Z" fill="#F22F21"/>
</g>
<g filter="url(#filter1_d_28_755)">
<path d="M63.5565 24.5L60.3292 12.8636H62.1758L64.4428 21.875H64.5508L66.9087 12.8636H68.7383L71.0962 21.8807H71.2042L73.4655 12.8636H75.3178L72.0849 24.5H70.3178L67.8689 15.7841H67.778L65.3292 24.5H63.5565ZM78.4627 24.6932C77.9097 24.6932 77.4097 24.5909 76.9627 24.3864C76.5157 24.178 76.1616 23.8769 75.9002 23.4829C75.6426 23.089 75.5138 22.6061 75.5138 22.0341C75.5138 21.5417 75.6085 21.1364 75.7979 20.8182C75.9873 20.5 76.243 20.2481 76.565 20.0625C76.8869 19.8769 77.2468 19.7367 77.6445 19.642C78.0422 19.5473 78.4475 19.4754 78.8604 19.4261C79.3832 19.3655 79.8074 19.3163 80.1332 19.2784C80.4589 19.2367 80.6957 19.1704 80.8434 19.0795C80.9911 18.9886 81.065 18.8409 81.065 18.6364V18.5966C81.065 18.1004 80.9248 17.7159 80.6445 17.4432C80.368 17.1704 79.9551 17.0341 79.4059 17.0341C78.8339 17.0341 78.3832 17.161 78.0536 17.4148C77.7278 17.6648 77.5025 17.9432 77.3775 18.25L75.7809 17.8864C75.9703 17.3561 76.2468 16.928 76.6104 16.6023C76.9778 16.2727 77.4002 16.0341 77.8775 15.8864C78.3547 15.7348 78.8566 15.6591 79.3832 15.6591C79.7316 15.6591 80.101 15.7008 80.4911 15.7841C80.885 15.8636 81.2525 16.0114 81.5934 16.2273C81.9381 16.4432 82.2203 16.7519 82.44 17.1534C82.6597 17.5511 82.7695 18.0682 82.7695 18.7045V24.5H81.1104V23.3068H81.0422C80.9324 23.5265 80.7676 23.7424 80.5479 23.9545C80.3282 24.1667 80.046 24.3428 79.7013 24.4829C79.3566 24.6231 78.9438 24.6932 78.4627 24.6932ZM78.832 23.3295C79.3017 23.3295 79.7032 23.2367 80.0366 23.0511C80.3737 22.8655 80.6294 22.6231 80.8036 22.3239C80.9816 22.0208 81.0707 21.697 81.0707 21.3523V20.2273C81.01 20.2879 80.8926 20.3447 80.7184 20.3977C80.5479 20.447 80.3528 20.4905 80.1332 20.5284C79.9135 20.5625 79.6994 20.5947 79.4911 20.625C79.2828 20.6515 79.1085 20.6742 78.9684 20.6932C78.6388 20.7348 78.3377 20.8049 78.065 20.9034C77.796 21.0019 77.5801 21.1439 77.4172 21.3295C77.2582 21.5114 77.1786 21.7538 77.1786 22.0568C77.1786 22.4773 77.3339 22.7954 77.6445 23.0114C77.9551 23.2235 78.351 23.3295 78.832 23.3295ZM89.1062 15.7727V17.1364H84.3391V15.7727H89.1062ZM85.6175 13.6818H87.3164V21.9375C87.3164 22.267 87.3656 22.5151 87.4641 22.6818C87.5626 22.8447 87.6895 22.9564 87.8448 23.017C88.0039 23.0739 88.1762 23.1023 88.3618 23.1023C88.4982 23.1023 88.6175 23.0928 88.7198 23.0739C88.8221 23.0549 88.9016 23.0398 88.9584 23.0284L89.2653 24.4318C89.1668 24.4697 89.0266 24.5076 88.8448 24.5454C88.663 24.5871 88.4357 24.6098 88.163 24.6136C87.716 24.6212 87.2993 24.5417 86.913 24.375C86.5266 24.2083 86.2141 23.9508 85.9755 23.6023C85.7368 23.2538 85.6175 22.8163 85.6175 22.2898V13.6818ZM94.5678 24.6761C93.7231 24.6761 92.9958 24.4848 92.386 24.1023C91.7799 23.7159 91.314 23.1837 90.9883 22.5057C90.6625 21.8276 90.4996 21.0511 90.4996 20.1761C90.4996 19.2898 90.6663 18.5076 90.9996 17.8295C91.333 17.1477 91.8027 16.6155 92.4087 16.233C93.0148 15.8504 93.7288 15.6591 94.5508 15.6591C95.2136 15.6591 95.8045 15.7822 96.3235 16.0284C96.8424 16.2708 97.261 16.6117 97.5792 17.0511C97.9011 17.4905 98.0924 18.0038 98.153 18.5909H96.4996C96.4087 18.1818 96.2004 17.8295 95.8746 17.5341C95.5527 17.2386 95.1208 17.0909 94.5792 17.0909C94.1057 17.0909 93.6909 17.2159 93.3349 17.4659C92.9826 17.7121 92.708 18.0644 92.511 18.5227C92.314 18.9773 92.2155 19.5151 92.2155 20.1364C92.2155 20.7727 92.3121 21.322 92.5053 21.7841C92.6985 22.2462 92.9712 22.6042 93.3235 22.8579C93.6795 23.1117 94.0981 23.2386 94.5792 23.2386C94.9011 23.2386 95.1928 23.1799 95.4542 23.0625C95.7193 22.9413 95.9409 22.7689 96.1189 22.5454C96.3008 22.322 96.4277 22.053 96.4996 21.7386H98.153C98.0924 22.303 97.9087 22.8068 97.6019 23.25C97.2951 23.6932 96.8841 24.0417 96.3689 24.2954C95.8576 24.5492 95.2572 24.6761 94.5678 24.6761ZM101.669 19.3182V24.5H99.9698V12.8636H101.646V17.1932H101.754C101.958 16.7235 102.271 16.3504 102.691 16.0739C103.112 15.7973 103.661 15.6591 104.339 15.6591C104.938 15.6591 105.46 15.7822 105.907 16.0284C106.358 16.2746 106.707 16.642 106.953 17.1307C107.203 17.6155 107.328 18.2216 107.328 18.9489V24.5H105.629V19.1534C105.629 18.5133 105.464 18.017 105.135 17.6648C104.805 17.3087 104.347 17.1307 103.76 17.1307C103.358 17.1307 102.998 17.2159 102.68 17.3864C102.366 17.5568 102.118 17.8068 101.936 18.1364C101.758 18.4621 101.669 18.8561 101.669 19.3182ZM119.358 20.8807V15.7727H121.062V24.5H119.392V22.9886H119.301C119.1 23.4545 118.778 23.8428 118.335 24.1534C117.895 24.4602 117.348 24.6136 116.693 24.6136C116.132 24.6136 115.636 24.4905 115.204 24.2443C114.776 23.9943 114.439 23.625 114.193 23.1364C113.95 22.6477 113.829 22.0436 113.829 21.3239V15.7727H115.528V21.1193C115.528 21.714 115.693 22.1875 116.022 22.5398C116.352 22.892 116.78 23.0682 117.306 23.0682C117.625 23.0682 117.941 22.9886 118.255 22.8295C118.573 22.6704 118.837 22.4299 119.045 22.1079C119.257 21.786 119.361 21.3769 119.358 20.8807ZM129.885 17.9034L128.345 18.1761C128.28 17.9792 128.178 17.7917 128.038 17.6136C127.902 17.4356 127.716 17.2898 127.481 17.1761C127.246 17.0625 126.953 17.0057 126.6 17.0057C126.119 17.0057 125.718 17.1136 125.396 17.3295C125.074 17.5417 124.913 17.8163 124.913 18.1534C124.913 18.4451 125.021 18.6799 125.237 18.8579C125.453 19.036 125.801 19.1818 126.282 19.2954L127.669 19.6136C128.472 19.7992 129.07 20.0852 129.464 20.4716C129.858 20.8579 130.055 21.3598 130.055 21.9773C130.055 22.5 129.903 22.9659 129.6 23.375C129.301 23.7803 128.883 24.0985 128.345 24.3295C127.811 24.5606 127.191 24.6761 126.487 24.6761C125.51 24.6761 124.712 24.4678 124.095 24.0511C123.477 23.6307 123.099 23.0341 122.958 22.2614L124.6 22.0114C124.703 22.4394 124.913 22.7633 125.231 22.9829C125.549 23.1989 125.964 23.3068 126.475 23.3068C127.032 23.3068 127.477 23.1913 127.811 22.9602C128.144 22.7254 128.311 22.4394 128.311 22.1023C128.311 21.8295 128.208 21.6004 128.004 21.4148C127.803 21.2292 127.494 21.089 127.078 20.9943L125.6 20.6704C124.786 20.4848 124.184 20.1894 123.794 19.7841C123.407 19.3788 123.214 18.8655 123.214 18.2443C123.214 17.7292 123.358 17.2784 123.646 16.892C123.934 16.5057 124.332 16.2045 124.839 15.9886C125.347 15.7689 125.928 15.6591 126.583 15.6591C127.527 15.6591 128.269 15.8636 128.811 16.2727C129.352 16.678 129.71 17.2216 129.885 17.9034ZM139.833 24.6761C139.015 24.6761 138.301 24.4886 137.691 24.1136C137.082 23.7386 136.608 23.214 136.271 22.5398C135.934 21.8655 135.765 21.0776 135.765 20.1761C135.765 19.2708 135.934 18.4792 136.271 17.8011C136.608 17.1231 137.082 16.5966 137.691 16.2216C138.301 15.8466 139.015 15.6591 139.833 15.6591C140.652 15.6591 141.366 15.8466 141.975 16.2216C142.585 16.5966 143.059 17.1231 143.396 17.8011C143.733 18.4792 143.902 19.2708 143.902 20.1761C143.902 21.0776 143.733 21.8655 143.396 22.5398C143.059 23.214 142.585 23.7386 141.975 24.1136C141.366 24.4886 140.652 24.6761 139.833 24.6761ZM139.839 23.25C140.369 23.25 140.809 23.1098 141.157 22.8295C141.506 22.5492 141.763 22.1761 141.93 21.7102C142.1 21.2443 142.186 20.7311 142.186 20.1704C142.186 19.6136 142.1 19.1023 141.93 18.6364C141.763 18.1667 141.506 17.7898 141.157 17.5057C140.809 17.2216 140.369 17.0795 139.839 17.0795C139.305 17.0795 138.862 17.2216 138.51 17.5057C138.161 17.7898 137.902 18.1667 137.731 18.6364C137.564 19.1023 137.481 19.6136 137.481 20.1704C137.481 20.7311 137.564 21.2443 137.731 21.7102C137.902 22.1761 138.161 22.5492 138.51 22.8295C138.862 23.1098 139.305 23.25 139.839 23.25ZM147.497 19.3182V24.5H145.798V15.7727H147.429V17.1932H147.537C147.737 16.7311 148.052 16.3598 148.48 16.0795C148.912 15.7992 149.455 15.6591 150.11 15.6591C150.705 15.6591 151.226 15.7841 151.673 16.0341C152.12 16.2803 152.466 16.6477 152.713 17.1364C152.959 17.625 153.082 18.2292 153.082 18.9489V24.5H151.383V19.1534C151.383 18.5208 151.218 18.0265 150.889 17.6705C150.559 17.3106 150.107 17.1307 149.531 17.1307C149.137 17.1307 148.787 17.2159 148.48 17.3864C148.177 17.5568 147.936 17.8068 147.758 18.1364C147.584 18.4621 147.497 18.8561 147.497 19.3182Z" fill="#E8E8E8"/>
<path d="M60.3196 31.1364H63.658L66.272 36.31H66.3807L68.9947 31.1364H72.3331L67.8114 39.3707V43.5H64.8413V39.3707L60.3196 31.1364ZM75.7726 43.6751C74.7987 43.6751 73.9615 43.4758 73.2613 43.0774C72.565 42.6749 72.0277 42.1155 71.6494 41.3991C71.2751 40.6787 71.088 39.8436 71.088 38.8938C71.088 37.94 71.2751 37.1049 71.6494 36.3885C72.0277 35.6681 72.565 35.1087 73.2613 34.7102C73.9615 34.3078 74.7987 34.1065 75.7726 34.1065C76.7466 34.1065 77.5817 34.3078 78.2779 34.7102C78.9782 35.1087 79.5155 35.6681 79.8898 36.3885C80.2681 37.1049 80.4573 37.94 80.4573 38.8938C80.4573 39.8436 80.2681 40.6787 79.8898 41.3991C79.5155 42.1155 78.9782 42.6749 78.2779 43.0774C77.5817 43.4758 76.7466 43.6751 75.7726 43.6751ZM75.7907 41.4474C76.1449 41.4474 76.4447 41.3388 76.6902 41.1214C76.9357 40.9041 77.1229 40.6023 77.2517 40.2159C77.3845 39.8295 77.4509 39.3828 77.4509 38.8757C77.4509 38.3605 77.3845 37.9098 77.2517 37.5234C77.1229 37.1371 76.9357 36.8352 76.6902 36.6179C76.4447 36.4006 76.1449 36.2919 75.7907 36.2919C75.4245 36.2919 75.1146 36.4006 74.861 36.6179C74.6115 36.8352 74.4204 37.1371 74.2875 37.5234C74.1588 37.9098 74.0944 38.3605 74.0944 38.8757C74.0944 39.3828 74.1588 39.8295 74.2875 40.2159C74.4204 40.6023 74.6115 40.9041 74.861 41.1214C75.1146 41.3388 75.4245 41.4474 75.7907 41.4474ZM87.9521 39.4975V34.2273H90.8982V43.5H88.0849V41.7734H87.9884C87.7831 42.3409 87.433 42.7917 86.9379 43.1257C86.4469 43.4557 85.8533 43.6207 85.157 43.6207C84.5252 43.6207 83.9698 43.4758 83.4908 43.1861C83.0119 42.8963 82.6396 42.4918 82.374 41.9726C82.1084 41.4494 81.9736 40.8377 81.9695 40.1374V34.2273H84.9216V39.5579C84.9256 40.061 85.0584 40.4574 85.32 40.7471C85.5816 41.0369 85.9378 41.1818 86.3886 41.1818C86.6824 41.1818 86.946 41.1174 87.1794 40.9886C87.4169 40.8558 87.604 40.6646 87.7408 40.4151C87.8817 40.1616 87.9521 39.8557 87.9521 39.4975ZM91.5094 33.5632V31.1364H101.959V33.5632H98.2104V43.5H95.2644V33.5632H91.5094ZM108.14 39.4975V34.2273H111.086V43.5H108.272V41.7734H108.176C107.971 42.3409 107.62 42.7917 107.125 43.1257C106.634 43.4557 106.041 43.6207 105.345 43.6207C104.713 43.6207 104.157 43.4758 103.678 43.1861C103.199 42.8963 102.827 42.4918 102.561 41.9726C102.296 41.4494 102.161 40.8377 102.157 40.1374V34.2273H105.109V39.5579C105.113 40.061 105.246 40.4574 105.508 40.7471C105.769 41.0369 106.125 41.1818 106.576 41.1818C106.87 41.1818 107.133 41.1174 107.367 40.9886C107.604 40.8558 107.791 40.6646 107.928 40.4151C108.069 40.1616 108.14 39.8557 108.14 39.4975ZM112.965 43.5V31.1364H115.917V35.815H115.977C116.098 35.5333 116.269 35.2616 116.49 35C116.716 34.7384 117.001 34.5251 117.347 34.3601C117.698 34.191 118.116 34.1065 118.603 34.1065C119.247 34.1065 119.849 34.2756 120.408 34.6136C120.972 34.9517 121.426 35.4729 121.773 36.1772C122.119 36.8815 122.292 37.779 122.292 38.8697C122.292 39.9201 122.125 40.7995 121.791 41.5078C121.461 42.2161 121.014 42.7474 120.45 43.1016C119.891 43.4557 119.269 43.6328 118.585 43.6328C118.118 43.6328 117.714 43.5563 117.372 43.4034C117.03 43.2505 116.742 43.0492 116.508 42.7997C116.279 42.5502 116.102 42.2825 115.977 41.9968H115.887V43.5H112.965ZM115.856 38.8636C115.856 39.3627 115.923 39.7973 116.056 40.1676C116.192 40.5379 116.388 40.8256 116.641 41.0309C116.899 41.2321 117.207 41.3327 117.565 41.3327C117.927 41.3327 118.235 41.2321 118.488 41.0309C118.742 40.8256 118.933 40.5379 119.062 40.1676C119.195 39.7973 119.261 39.3627 119.261 38.8636C119.261 38.3646 119.195 37.9319 119.062 37.5657C118.933 37.1994 118.742 36.9157 118.488 36.7145C118.239 36.5132 117.931 36.4126 117.565 36.4126C117.203 36.4126 116.895 36.5112 116.641 36.7084C116.388 36.9056 116.192 37.1874 116.056 37.5536C115.923 37.9199 115.856 38.3565 115.856 38.8636ZM128.173 43.6751C127.203 43.6751 126.366 43.4839 125.662 43.1016C124.962 42.7152 124.422 42.1658 124.044 41.4535C123.67 40.7371 123.482 39.8859 123.482 38.8998C123.482 37.942 123.672 37.1049 124.05 36.3885C124.428 35.6681 124.962 35.1087 125.65 34.7102C126.338 34.3078 127.149 34.1065 128.083 34.1065C128.743 34.1065 129.346 34.2092 129.894 34.4144C130.441 34.6197 130.914 34.9235 131.312 35.326C131.711 35.7284 132.021 36.2255 132.242 36.8171C132.463 37.4047 132.574 38.0788 132.574 38.8395V39.576H124.515V37.8615H129.827C129.823 37.5476 129.749 37.2679 129.604 37.0224C129.459 36.7769 129.26 36.5857 129.006 36.4489C128.757 36.308 128.469 36.2376 128.143 36.2376C127.813 36.2376 127.517 36.312 127.256 36.4609C126.994 36.6058 126.787 36.805 126.634 37.0586C126.481 37.3081 126.4 37.5918 126.392 37.9098V39.6545C126.392 40.0328 126.467 40.3648 126.616 40.6506C126.765 40.9323 126.976 41.1516 127.25 41.3086C127.523 41.4655 127.849 41.544 128.228 41.544C128.489 41.544 128.727 41.5078 128.94 41.4354C129.153 41.3629 129.336 41.2563 129.489 41.1154C129.642 40.9745 129.757 40.8015 129.833 40.5962L132.544 40.6747C132.431 41.2824 132.184 41.8117 131.801 42.2624C131.423 42.7092 130.926 43.0573 130.31 43.3068C129.694 43.5523 128.982 43.6751 128.173 43.6751Z" fill="#F22F21"/>
</g>
<rect x="1.04963" y="1.05" width="164.9" height="53.9" rx="6.95" stroke="white" stroke-opacity="0.15" stroke-width="2.1"/>
<defs>
<filter id="filter0_d_28_755" x="6.28535" y="2.28571" width="51.4286" height="51.4286" filterUnits="userSpaceOnUse" color-interpolation-filters="sRGB">
<feFlood flood-opacity="0" result="BackgroundImageFix"/>
<feColorMatrix in="SourceAlpha" type="matrix" values="0 0 0 0 0 0 0 0 0 0 0 0 0 0 0 0 0 0 127 0" result="hardAlpha"/>
<feOffset/>
<feGaussianBlur stdDeviation="2.85714"/>
<feComposite in2="hardAlpha" operator="out"/>
<feColorMatrix type="matrix" values="0 0 0 0 0 0 0 0 0 0 0 0 0 0 0 0 0 0 0.25 0"/>
<feBlend mode="normal" in2="BackgroundImageFix" result="effect1_dropShadow_28_755"/>
<feBlend mode="normal" in="SourceGraphic" in2="effect1_dropShadow_28_755" result="shape"/>
</filter>
<filter id="filter1_d_28_755" x="54.3996" y="3.9" width="106.2" height="48.2" filterUnits="userSpaceOnUse" color-interpolation-filters="sRGB">
<feFlood flood-opacity="0" result="BackgroundImageFix"/>
<feColorMatrix in="SourceAlpha" type="matrix" values="0 0 0 0 0 0 0 0 0 0 0 0 0 0 0 0 0 0 127 0" result="hardAlpha"/>
<feOffset/>
<feGaussianBlur stdDeviation="2.8"/>
<feComposite in2="hardAlpha" operator="out"/>
<feColorMatrix type="matrix" values="0 0 0 0 0 0 0 0 0 0 0 0 0 0 0 0 0 0 0.25 0"/>
<feBlend mode="normal" in2="BackgroundImageFix" result="effect1_dropShadow_28_755"/>
<feBlend mode="normal" in="SourceGraphic" in2="effect1_dropShadow_28_755" result="shape"/>
</filter>
<linearGradient id="paint0_linear_28_755" x1="83.4996" y1="0" x2="83.4996" y2="56" gradientUnits="userSpaceOnUse">
<stop stop-color="#321513"/>
<stop offset="1" stop-color="#210E0C"/>
</linearGradient>
</defs>
</svg>
