<svg width="57" height="56" viewBox="0 0 57 56" fill="none" xmlns="http://www.w3.org/2000/svg">
<rect x="0.0107422" y="-4.57764e-05" width="56" height="56" rx="8.4" fill="url(#paint0_linear_16_64)"/>
<g filter="url(#filter0_d_16_64)">
<path d="M34.8628 38.0163C33.7743 38.0163 32.8673 37.6444 32.1417 37.0864C31.2346 36.3425 30.509 35.2266 30.509 33.9248C30.509 33.1809 31.2346 33.1809 31.2346 33.1809H32.8673C33.4115 33.1809 33.5929 33.9248 33.5929 34.1108C33.7743 35.9706 34.8628 36.7145 35.5884 37.0864C35.9512 37.2724 35.7698 38.0163 34.8628 38.0163ZM25.4296 28.9033L22.1643 28.5314C20.713 27.9734 20.713 26.6716 20.8945 26.2996C21.0759 24.9977 21.6201 23.6959 22.1643 22.58C23.0713 21.2781 24.3412 19.9763 25.9738 19.0464C29.0578 17.1866 33.4115 16.0707 38.1281 16.0707C41.5748 16.0707 45.203 16.6286 45.203 16.6286C45.5658 16.6286 45.7472 17.0006 45.7472 17.3726C45.7472 17.7445 45.5658 18.1165 45.203 18.1165H43.7517C38.8537 18.1165 35.407 18.8604 32.8673 20.3482C30.3276 21.8361 28.5135 24.0678 27.4251 27.2295C27.2437 27.4155 26.8809 29.0893 25.4296 28.9033ZM29.602 42.4798C27.2437 42.4798 24.8854 41.364 23.2527 39.5042C21.8015 37.8304 20.8944 36.1565 20.713 34.1108C20.5316 32.6229 21.2573 32.251 21.9829 32.251L25.2482 32.6229C25.9738 32.8089 26.5181 33.1809 26.6995 34.1108C27.4251 38.7603 30.1462 40.6201 31.9603 41.178C32.3231 41.178 32.5045 41.364 32.5045 41.7359C32.5045 42.1079 32.3231 42.2939 31.9603 42.4798C31.0532 42.4798 30.3276 42.4798 29.602 42.4798ZM22.7085 46.5714C21.4387 46.5714 20.1688 46.3854 18.899 46.1994C16.9035 45.8275 15.2708 45.2695 13.8196 44.1537C10.3728 41.9219 8.37737 37.8304 8.01455 33.1809C8.01455 32.065 7.83315 29.8332 10.3728 30.0192C11.4613 30.0192 13.0939 30.5771 14.3638 30.9491C15.8151 31.3211 16.5407 32.6229 16.5407 33.7388C16.5407 40.4341 22.3457 44.8976 24.8854 44.8976C25.9738 44.8976 25.611 46.1994 25.0668 46.1994C24.3412 46.5714 23.2527 46.5714 22.7085 46.5714ZM13.8196 27.0435C12.7311 26.8575 11.8241 26.4856 10.9171 26.1136C8.01455 25.3697 8.55877 22.208 8.74018 21.4641C11.4613 13.281 19.9874 10.4913 26.8809 9.74738C33.4115 9.00346 40.1236 9.5614 46.4728 11.4212C47.0171 11.6072 48.6497 11.9791 47.7427 12.909C47.1985 13.467 44.8402 12.909 44.2959 12.909C40.6678 12.5371 36.8583 12.5371 33.2301 13.095C29.2392 13.653 25.2482 14.9548 22.1643 17.7445C20.3502 19.0464 17.6291 23.6959 17.6291 24.2538C17.4477 24.8118 16.7221 27.4155 13.8196 27.0435ZM30.3276 28.5314C30.8718 25.9276 33.4115 21.8361 41.0306 22.208C42.8447 22.208 41.9377 23.5099 41.0306 23.5099C36.6769 23.3239 34.6814 26.2996 33.5929 29.0893C33.2301 30.0192 32.5045 30.2052 31.4161 30.0192C30.8718 29.8332 30.1462 29.8332 30.3276 28.5314Z" fill="#F1F1F1"/>
</g>
<rect x="1.06074" y="1.04995" width="53.9" height="53.9" rx="7.35" stroke="white" stroke-opacity="0.15" stroke-width="2.1"/>
<defs>
<filter id="filter0_d_16_64" x="2.29646" y="2.28567" width="51.4295" height="51.4286" filterUnits="userSpaceOnUse" color-interpolation-filters="sRGB">
<feFlood flood-opacity="0" result="BackgroundImageFix"/>
<feColorMatrix in="SourceAlpha" type="matrix" values="0 0 0 0 0 0 0 0 0 0 0 0 0 0 0 0 0 0 127 0" result="hardAlpha"/>
<feOffset/>
<feGaussianBlur stdDeviation="2.85714"/>
<feComposite in2="hardAlpha" operator="out"/>
<feColorMatrix type="matrix" values="0 0 0 0 0 0 0 0 0 0 0 0 0 0 0 0 0 0 0.25 0"/>
<feBlend mode="normal" in2="BackgroundImageFix" result="effect1_dropShadow_16_64"/>
<feBlend mode="normal" in="SourceGraphic" in2="effect1_dropShadow_16_64" result="shape"/>
</filter>
<linearGradient id="paint0_linear_16_64" x1="28.0107" y1="-4.57764e-05" x2="28.0107" y2="55.9999" gradientUnits="userSpaceOnUse">
<stop stop-color="#273227"/>
<stop offset="1" stop-color="#181F18"/>
</linearGradient>
</defs>
</svg>
