<svg width="57" height="56" viewBox="0 0 57 56" fill="none" xmlns="http://www.w3.org/2000/svg">
<rect x="0.0107422" y="-3.05176e-05" width="56" height="56" rx="8.4" fill="url(#paint0_linear_16_55)"/>
<g filter="url(#filter0_d_16_55)">
<path d="M33.6371 35.3814C33.0537 35.3786 32.4723 35.2641 31.9242 35.0337C30.6896 34.515 29.6025 33.5353 28.7181 32.2098C28.9703 31.7774 29.1976 31.3297 29.4006 30.8745C30.2904 28.8789 30.7136 26.6937 30.746 24.5246C30.7413 24.4815 30.7376 24.4384 30.7349 24.395L30.7325 24.2837C30.7304 23.4332 30.5962 22.5713 30.2928 21.7688C29.9432 20.8442 29.386 19.9188 28.502 19.5579C28.3414 19.4925 28.1724 19.465 28.0043 19.4688C26.8923 17.4643 26.8569 15.5434 28.0043 13.7143C28.0247 13.7143 28.0459 13.7143 28.0663 13.7145C29.42 13.7289 30.7611 14.1318 31.9086 14.8354C35.0335 16.7515 36.5914 20.4855 36.6258 24.1516C36.6262 24.1946 36.6257 24.2376 36.6244 24.2805H36.6419C36.6373 28.155 35.6713 32.0839 33.6371 35.3814H33.6371ZM26.7085 41.463C23.7901 42.6208 20.4004 42.5587 17.5075 41.2633C14.1794 39.7734 11.6363 36.8774 10.0701 33.5719C7.39113 27.9177 7.32983 21.1586 9.87052 15.4178C11.7786 16.154 13.4753 14.9814 13.4753 14.9814C13.4753 14.9814 13.4713 16.7856 15.2827 17.6905C13.4242 21.8902 13.469 26.8797 15.3315 30.9722C16.2281 32.9414 17.5979 34.775 19.4965 35.812C20.1742 36.1821 20.9188 36.421 21.6848 36.5107C21.6877 36.5149 21.6905 36.5192 21.6933 36.5235C23.046 38.5592 24.7501 40.2557 26.7085 41.463H26.7085Z" fill="url(#paint1_linear_16_55)"/>
<path opacity="0.3" fill-rule="evenodd" clip-rule="evenodd" d="M33.6366 35.3828C33.0534 35.3798 32.4723 35.2653 31.9246 35.0351C30.6898 34.5162 29.6025 33.5363 28.718 32.2105C28.9704 31.7779 29.1979 31.3299 29.4009 30.8745C29.6692 30.2728 29.8951 29.654 30.0805 29.0235C30.5104 27.5627 36.2177 29.4167 35.3471 31.8233C34.8978 33.0649 34.3291 34.2604 33.6366 35.3828ZM26.7075 41.4636C23.7893 42.6207 20.4003 42.5584 17.5079 41.2633C14.1797 39.7734 17.5982 34.775 19.4969 35.812C20.1742 36.1819 20.9185 36.4208 21.6842 36.5105C21.6873 36.5153 21.6905 36.5201 21.6937 36.5248C23.0461 38.5601 24.7496 40.2563 26.7075 41.4636V41.4636Z" fill="url(#paint2_linear_16_55)"/>
<path d="M19.3994 24.2805C19.398 24.2376 19.3975 24.1946 19.3979 24.1516C19.4323 20.4855 20.9903 16.7515 24.1151 14.8354C25.2627 14.1318 26.6037 13.7289 27.9574 13.7145C27.9778 13.7143 27.999 13.7143 28.0195 13.7143V19.4688C27.8513 19.465 27.6823 19.4925 27.5217 19.5579C26.6377 19.9188 26.0805 20.8442 25.731 21.7688C25.4275 22.5713 25.2932 23.4332 25.2913 24.2837L25.2888 24.395C25.2861 24.4384 25.2824 24.4815 25.2777 24.5246C25.3101 26.6937 25.7333 28.8789 26.6232 30.8745C27.6197 33.1096 29.2038 35.1656 31.4403 36.1053C33.1276 36.8144 34.9979 36.6472 36.5272 35.812C38.4258 34.775 39.7956 32.9414 40.6923 30.9722C42.5548 26.8797 42.5995 21.8902 40.741 17.6905C42.5524 16.7856 42.5485 14.9814 42.5485 14.9814C42.5485 14.9814 44.2451 16.154 46.1532 15.4178C48.6939 21.1586 48.6326 27.9177 45.9536 33.5719C44.3874 36.8774 41.8443 39.7734 38.5162 41.2633C35.5535 42.5899 32.0698 42.6231 29.1047 41.3771C26.4403 40.2571 24.2732 38.2392 22.714 35.8928C20.456 32.4945 19.3866 28.3573 19.3818 24.2805H19.3994Z" fill="url(#paint3_linear_16_55)"/>
</g>
<rect x="1.06074" y="1.04997" width="53.9" height="53.9" rx="7.35" stroke="white" stroke-opacity="0.15" stroke-width="2.1"/>
<defs>
<filter id="filter0_d_16_55" x="2.29646" y="2.28568" width="51.43" height="51.4286" filterUnits="userSpaceOnUse" color-interpolation-filters="sRGB">
<feFlood flood-opacity="0" result="BackgroundImageFix"/>
<feColorMatrix in="SourceAlpha" type="matrix" values="0 0 0 0 0 0 0 0 0 0 0 0 0 0 0 0 0 0 127 0" result="hardAlpha"/>
<feOffset/>
<feGaussianBlur stdDeviation="2.85714"/>
<feComposite in2="hardAlpha" operator="out"/>
<feColorMatrix type="matrix" values="0 0 0 0 0 0 0 0 0 0 0 0 0 0 0 0 0 0 0.25 0"/>
<feBlend mode="normal" in2="BackgroundImageFix" result="effect1_dropShadow_16_55"/>
<feBlend mode="normal" in="SourceGraphic" in2="effect1_dropShadow_16_55" result="shape"/>
</filter>
<linearGradient id="paint0_linear_16_55" x1="28.0107" y1="-3.05176e-05" x2="28.0107" y2="56" gradientUnits="userSpaceOnUse">
<stop stop-color="#1A2C32"/>
<stop offset="1" stop-color="#0E1C0F"/>
</linearGradient>
<linearGradient id="paint1_linear_16_55" x1="8.01162" y1="24.5876" x2="27.5547" y2="24.5876" gradientUnits="userSpaceOnUse">
<stop stop-color="#00D2E6"/>
<stop offset="1" stop-color="#2ECCAA"/>
</linearGradient>
<linearGradient id="paint2_linear_16_55" x1="19.4494" y1="36.7352" x2="29.5959" y2="30.0298" gradientUnits="userSpaceOnUse">
<stop stop-opacity="0"/>
<stop offset="0.514"/>
<stop offset="1" stop-opacity="0"/>
</linearGradient>
<linearGradient id="paint3_linear_16_55" x1="48.012" y1="25.0624" x2="28.5021" y2="25.0624" gradientUnits="userSpaceOnUse">
<stop stop-color="#1FA385"/>
<stop offset="1" stop-color="#2ECCAA"/>
</linearGradient>
</defs>
</svg>
