<svg width="57" height="56" viewBox="0 0 57 56" fill="none" xmlns="http://www.w3.org/2000/svg">
<g clip-path="url(#clip0_28_3973)">
<rect x="0.0107422" y="-0.00012207" width="56" height="56" rx="8.4" fill="url(#paint0_linear_28_3973)"/>
<g filter="url(#filter0_d_28_3973)">
<path d="M18.5332 7.99997V11.2692H12.5362V14.1538H9.44092V17.423H12.5362V20.3077H15.6314V23.3846H21.8219V26.4615H34.2028V23.3846H40.3933V20.3077H43.2951V29.7307H40.3933V38.7692H37.1046V44.923H18.5332V48H37.1046V44.923H40.3933V38.7692H43.2951V29.7307H46.5838V14.1538H43.2951V17.423H40.3933V20.3077H34.2028V23.3846H21.8219V20.3077H15.6314V17.423H12.5362V14.1538H18.5332V11.2692H28.0123V7.99997H18.5332Z" fill="#353535"/>
<path d="M28.0122 7.99997V11.2692H37.1045V14.1538H43.2949V11.2692H37.1045V7.99997H28.0122Z" fill="#515151"/>
<path d="M18.5332 11.2692V14.1538H21.8219V11.2692H18.5332Z" fill="#A37B63"/>
<path d="M21.8213 11.2692V14.1538H24.9165V11.2692H21.8213Z" fill="#AB826B"/>
<path d="M24.9175 11.2692V14.1538H30.9145V11.2692H24.9175Z" fill="#ABA26B"/>
<path d="M30.9136 11.2692V14.1538H34.2023V11.2692H30.9136Z" fill="#AB826B"/>
<path d="M34.2026 11.2692V14.1538H37.1044V17.423H40.3931V14.1538H37.1044V11.2692H34.2026Z" fill="#BF967E"/>
<path d="M12.5361 14.1539V17.4231H15.6314V14.1539H12.5361Z" fill="#958C55"/>
<path d="M15.6313 14.1539V17.4231H18.5331V14.1539H15.6313Z" fill="#956C55"/>
<path d="M18.5332 14.1539V17.4231H21.8219V14.1539H18.5332Z" fill="#C33E1F"/>
<path d="M21.8213 14.1539V17.4231H24.9165V20.3077H28.0118V23.3846H34.2022V20.3077H28.0118V17.4231H24.9165V14.1539H21.8213Z" fill="#E38C3F"/>
<path d="M24.9175 14.1539V17.4231H28.0127V20.3077H34.2032V17.4231H30.9145V14.1539H24.9175Z" fill="#E4D25C"/>
<path d="M30.9136 14.1539V17.4231H34.2023V14.1539H30.9136Z" fill="#E38C3F"/>
<path d="M34.2026 14.1539V17.4231H37.1044V20.3077H40.3931V17.4231H37.1044V14.1539H34.2026Z" fill="#CC4628"/>
<path d="M40.3931 14.1539V17.4231H43.2949V14.1539H40.3931Z" fill="#BFB67E"/>
<path d="M9.44092 17.423V29.7307H12.5362V38.7692H15.6314V44.923H18.5332V38.7692H15.6314V29.7307H12.5362V17.423H9.44092Z" fill="#515151"/>
<path d="M15.6313 17.4231V20.3077H18.5331V17.4231H15.6313Z" fill="#DC8638"/>
<path d="M18.5332 17.4231V20.3077H21.8219V23.3846H24.9171V17.4231H18.5332Z" fill="#E2CF5A"/>
<path d="M34.2026 17.4231V20.3077H37.1044V17.4231H34.2026Z" fill="#EA9346"/>
<path d="M12.5361 20.3076V23.3845H15.6314V26.4615H21.8218V23.3845H15.6314V20.3076H12.5361Z" fill="#E7E7E7"/>
<path d="M24.9175 20.3076V23.3845H28.0127V20.3076H24.9175Z" fill="#C54021"/>
<path d="M40.3931 20.3076V23.3845H43.2949V20.3076H40.3931Z" fill="#A9A9A9"/>
<path d="M12.5361 23.3846V29.7308H15.6314V38.7693H18.5332V42.0385H21.8218V44.9231H28.0123V32.6154H24.9171V29.7308H21.8218V32.6154H18.5332V26.4616H15.6314V23.3846H12.5361Z" fill="#D8D8D8"/>
<path d="M34.2026 23.3846V26.4616H37.1044V23.3846H34.2026Z" fill="#EAD762"/>
<path d="M37.1045 23.3846V26.4616H40.3932V23.3846H37.1045Z" fill="#CB4627"/>
<path d="M40.3932 23.3846V29.7308H37.1045V38.7693H40.3932V29.7308H43.295V23.3846H40.3932Z" fill="#727272"/>
<path d="M18.5332 26.4615V32.6154H21.8219V26.4615H18.5332Z" fill="white"/>
<path d="M21.8213 26.4615V29.7307H24.9165V26.4615H21.8213Z" fill="#D85334"/>
<path d="M24.9175 26.4615V29.7307H34.2032V26.4615H24.9175Z" fill="#CACACA"/>
<path d="M34.2026 26.4615V29.7307H37.1044V26.4615H34.2026Z" fill="#E99245"/>
<path d="M37.1045 26.4615V29.7307H40.3932V26.4615H37.1045Z" fill="#969696"/>
<path d="M24.9175 29.7307V32.6154H28.0127V42.0384H30.9145V32.6154H34.2032V29.7307H24.9175Z" fill="#A8A8A8"/>
<path d="M34.2026 29.7307V32.6154H37.1044V29.7307H34.2026Z" fill="#CB4627"/>
<path d="M21.8213 32.6153V38.7691H24.9165V32.6153H21.8213Z" fill="white"/>
<path d="M30.914 32.6153V42.0383H28.0122V44.923H37.1045V38.7691H34.2027V35.8845H37.1045V32.6153H30.914Z" fill="#969696"/>
<path d="M34.2026 35.8846V38.7693H37.1044V35.8846H34.2026Z" fill="#CB4627"/>
<path d="M18.5332 42.0384V44.923H21.8219V42.0384H18.5332Z" fill="#969696"/>
<g opacity="0.7">
<mask id="path-40-outside-1_28_3973" maskUnits="userSpaceOnUse" x="22.1548" y="22.143" width="28" height="28" fill="black">
<rect fill="white" x="22.1548" y="22.143" width="28" height="28"/>
<path fill-rule="evenodd" clip-rule="evenodd" d="M27.9702 25.3522C27.6913 25.0733 27.2391 25.0733 26.9602 25.3522L25.3655 26.9473C25.0866 27.2263 25.0866 27.6786 25.3655 27.9576L33.9781 36.5725L25.364 45.1852C25.085 45.4641 25.085 45.9163 25.364 46.1953L26.959 47.79C27.238 48.0689 27.6903 48.0689 27.9693 47.79L36.5828 39.1779L45.1931 47.7904C45.472 48.0694 45.9242 48.0694 46.2031 47.7904L47.7978 46.1953C48.0767 45.9164 48.0767 45.464 47.7978 45.1851L39.1881 36.5731L47.8012 27.9615C48.0801 27.6826 48.0801 27.2304 47.8012 26.9514L46.2061 25.3567C45.9272 25.0778 45.4749 25.0778 45.1959 25.3567L36.5834 33.9677L27.9702 25.3522Z"/>
</mask>
<path fill-rule="evenodd" clip-rule="evenodd" d="M27.9702 25.3522C27.6913 25.0733 27.2391 25.0733 26.9602 25.3522L25.3655 26.9473C25.0866 27.2263 25.0866 27.6786 25.3655 27.9576L33.9781 36.5725L25.364 45.1852C25.085 45.4641 25.085 45.9163 25.364 46.1953L26.959 47.79C27.238 48.0689 27.6903 48.0689 27.9693 47.79L36.5828 39.1779L45.1931 47.7904C45.472 48.0694 45.9242 48.0694 46.2031 47.7904L47.7978 46.1953C48.0767 45.9164 48.0767 45.464 47.7978 45.1851L39.1881 36.5731L47.8012 27.9615C48.0801 27.6826 48.0801 27.2304 47.8012 26.9514L46.2061 25.3567C45.9272 25.0778 45.4749 25.0778 45.1959 25.3567L36.5834 33.9677L27.9702 25.3522Z" fill="url(#paint1_linear_28_3973)"/>
<path d="M26.9602 25.3522L28.4756 26.8673L28.4756 26.8673L26.9602 25.3522ZM27.9702 25.3522L26.4548 26.8673L26.4548 26.8673L27.9702 25.3522ZM25.3655 26.9473L23.8501 25.4323L23.8501 25.4323L25.3655 26.9473ZM25.3655 27.9576L23.8501 29.4727L23.8501 29.4727L25.3655 27.9576ZM33.9781 36.5725L35.4932 38.0879L37.0085 36.5729L35.4936 35.0575L33.9781 36.5725ZM25.364 45.1852L23.8489 43.6698L23.8489 43.6698L25.364 45.1852ZM25.364 46.1953L23.8489 47.7106L23.8489 47.7106L25.364 46.1953ZM26.959 47.79L28.4741 46.2747L28.4741 46.2747L26.959 47.79ZM27.9693 47.79L29.4844 49.3054L29.4844 49.3054L27.9693 47.79ZM36.5828 39.1779L38.0983 37.6629L36.5832 36.1474L35.0677 37.6626L36.5828 39.1779ZM45.1931 47.7904L43.6777 49.3055L43.6777 49.3055L45.1931 47.7904ZM46.2031 47.7904L47.7185 49.3055L47.7185 49.3055L46.2031 47.7904ZM47.7978 46.1953L49.3132 47.7104L49.3132 47.7104L47.7978 46.1953ZM47.7978 45.1851L46.2824 46.7001L46.2824 46.7001L47.7978 45.1851ZM39.1881 36.5731L37.673 35.0577L36.1577 36.5728L37.6727 38.0881L39.1881 36.5731ZM47.8012 27.9615L49.3163 29.4769L49.3163 29.4769L47.8012 27.9615ZM47.8012 26.9514L49.3163 25.4361L49.3163 25.4361L47.8012 26.9514ZM46.2061 25.3567L47.7212 23.8413L47.7212 23.8413L46.2061 25.3567ZM45.1959 25.3567L43.6808 23.8413L43.6808 23.8413L45.1959 25.3567ZM36.5834 33.9677L35.068 35.4827L36.5831 36.9982L38.0985 35.4831L36.5834 33.9677ZM28.4756 26.8673C27.9177 27.4254 27.0128 27.4254 26.4548 26.8673L29.4857 23.8372C28.3699 22.7211 26.5606 22.7211 25.4448 23.8372L28.4756 26.8673ZM26.881 28.4624L28.4756 26.8673L25.4448 23.8372L23.8501 25.4323L26.881 28.4624ZM26.881 26.4426C27.4386 27.0004 27.4386 27.9046 26.881 28.4624L23.8501 25.4323C22.7346 26.5481 22.7346 28.3569 23.8501 29.4727L26.881 26.4426ZM35.4936 35.0575L26.881 26.4426L23.8501 29.4727L32.4627 38.0876L35.4936 35.0575ZM26.8791 46.7006L35.4932 38.0879L32.463 35.0572L23.8489 43.6698L26.8791 46.7006ZM26.8791 44.6799C27.4372 45.2379 27.4372 46.1426 26.8791 46.7006L23.8489 43.6698C22.7329 44.7856 22.7329 46.5948 23.8489 47.7106L26.8791 44.6799ZM28.4741 46.2747L26.8791 44.6799L23.8489 47.7106L25.4439 49.3054L28.4741 46.2747ZM26.4542 46.2747C27.012 45.7169 27.9163 45.7169 28.4741 46.2747L25.4439 49.3054C26.5597 50.421 28.3686 50.421 29.4844 49.3054L26.4542 46.2747ZM35.0677 37.6626L26.4542 46.2747L29.4844 49.3054L38.0979 40.6933L35.0677 37.6626ZM46.7085 46.2754L38.0983 37.6629L35.0674 40.6929L43.6777 49.3055L46.7085 46.2754ZM44.6877 46.2754C45.2457 45.7173 46.1506 45.7173 46.7085 46.2754L43.6777 49.3055C44.7935 50.4216 46.6028 50.4216 47.7185 49.3055L44.6877 46.2754ZM46.2824 44.6803L44.6877 46.2754L47.7185 49.3055L49.3132 47.7104L46.2824 44.6803ZM46.2824 46.7001C45.7247 46.1423 45.7247 45.2381 46.2824 44.6803L49.3132 47.7104C50.4287 46.5946 50.4287 44.7858 49.3132 43.67L46.2824 46.7001ZM37.6727 38.0881L46.2824 46.7001L49.3132 43.67L40.7035 35.0581L37.6727 38.0881ZM46.2861 26.4461L37.673 35.0577L40.7032 38.0884L49.3163 29.4769L46.2861 26.4461ZM46.2861 28.4668C45.728 27.9088 45.728 27.0041 46.2861 26.4461L49.3163 29.4769C50.4322 28.3611 50.4322 26.5519 49.3163 25.4361L46.2861 28.4668ZM44.691 26.872L46.2861 28.4668L49.3163 25.4361L47.7212 23.8413L44.691 26.872ZM46.711 26.872C46.1531 27.4298 45.2489 27.4298 44.691 26.872L47.7212 23.8413C46.6054 22.7257 44.7966 22.7257 43.6808 23.8413L46.711 26.872ZM38.0985 35.4831L46.711 26.872L43.6808 23.8413L35.0683 32.4523L38.0985 35.4831ZM26.4548 26.8673L35.068 35.4827L38.0988 32.4527L29.4857 23.8372L26.4548 26.8673Z" fill="black" mask="url(#path-40-outside-1_28_3973)"/>
</g>
</g>
</g>
<rect x="1.06074" y="1.04988" width="53.9" height="53.9" rx="7.35" stroke="white" stroke-opacity="0.15" stroke-width="2.1"/>
<defs>
<filter id="filter0_d_28_3973" x="2.29646" y="2.28559" width="53.5711" height="53.5712" filterUnits="userSpaceOnUse" color-interpolation-filters="sRGB">
<feFlood flood-opacity="0" result="BackgroundImageFix"/>
<feColorMatrix in="SourceAlpha" type="matrix" values="0 0 0 0 0 0 0 0 0 0 0 0 0 0 0 0 0 0 127 0" result="hardAlpha"/>
<feOffset/>
<feGaussianBlur stdDeviation="2.85714"/>
<feComposite in2="hardAlpha" operator="out"/>
<feColorMatrix type="matrix" values="0 0 0 0 0 0 0 0 0 0 0 0 0 0 0 0 0 0 0.25 0"/>
<feBlend mode="normal" in2="BackgroundImageFix" result="effect1_dropShadow_28_3973"/>
<feBlend mode="normal" in="SourceGraphic" in2="effect1_dropShadow_28_3973" result="shape"/>
</filter>
<linearGradient id="paint0_linear_28_3973" x1="28.0107" y1="-0.00012207" x2="28.0107" y2="55.9999" gradientUnits="userSpaceOnUse">
<stop stop-color="#2C1B1B"/>
<stop offset="1" stop-color="#1F1414"/>
</linearGradient>
<linearGradient id="paint1_linear_28_3973" x1="36.5826" y1="25.143" x2="36.5826" y2="47.9997" gradientUnits="userSpaceOnUse">
<stop stop-color="#FF0000"/>
<stop offset="1" stop-color="#CC0000"/>
</linearGradient>
<clipPath id="clip0_28_3973">
<rect x="0.0107422" y="-0.00012207" width="56" height="56" rx="8.4" fill="white"/>
</clipPath>
</defs>
</svg>
