<svg width="57" height="56" viewBox="0 0 57 56" fill="none" xmlns="http://www.w3.org/2000/svg">
<g clip-path="url(#clip0_33_40)">
<rect x="0.0107422" y="-0.000183105" width="56" height="56" rx="8.4" fill="url(#paint0_linear_33_40)"/>
<g filter="url(#filter0_d_33_40)">
<path fill-rule="evenodd" clip-rule="evenodd" d="M37.7188 25.2207C37.9456 25.5747 38.172 25.9282 38.4315 26.257C38.4862 26.1274 38.548 25.9959 38.6107 25.8628C38.7703 25.5235 38.9349 25.1737 38.9982 24.8186C39.0447 24.5577 38.9881 24.3021 38.9314 24.0457C38.8859 23.8404 38.8403 23.6345 38.8476 23.4251C38.8691 22.8014 39.1331 22.1545 39.3742 21.5638C39.4089 21.4787 39.4431 21.3949 39.4761 21.3124C39.5968 21.0104 39.7768 20.7071 40.0595 20.5307C40.1411 20.4798 40.2352 20.445 40.3295 20.4101C40.4676 20.3589 40.6061 20.3076 40.7064 20.2055C41.0126 19.8937 41.2342 19.043 41.2705 18.6154C41.334 17.8688 41.0445 17.0596 40.7678 16.2859C40.6339 15.9116 40.503 15.5457 40.4165 15.1992C39.9196 13.2101 40.6004 10.8376 42.4981 9.84175C43.911 9.10031 45.8811 9.36449 46.9551 10.5698C47.7114 11.4185 48.0107 12.4686 48.0107 13.5809C48.0107 14.3315 47.9692 15.6235 47.3193 16.1449C46.9135 16.4704 46.0958 16.4457 45.8257 15.9618C45.5836 15.528 45.7049 15.0603 45.8273 14.5885C45.9227 14.2205 46.0189 13.85 45.9437 13.491C45.7871 12.7432 45.0218 11.7706 44.17 11.8865C43.4943 11.9785 42.9666 12.6273 42.735 13.2213C42.481 13.8727 42.7011 14.5571 42.9095 15.2051C42.9479 15.3244 42.9858 15.4424 43.0203 15.5588L43.0282 15.5852C43.3812 16.7745 43.716 17.9027 43.572 19.1548C43.5365 19.4633 43.4255 19.7611 43.3151 20.0573C43.1989 20.3691 43.0833 20.679 43.0572 20.9978C43.0427 21.1756 43.1111 21.3519 43.1802 21.5298C43.2386 21.6803 43.2975 21.8319 43.307 21.9867C43.3599 22.856 43.0532 23.7258 42.6806 24.5039C42.512 24.8561 42.2477 25.075 41.9802 25.2967C41.7809 25.4617 41.5799 25.6283 41.4151 25.8525C41.1069 26.2718 40.9141 26.7909 40.725 27.3001C40.6288 27.5591 40.5336 27.8156 40.4246 28.055C40.3518 28.2149 40.2629 28.3758 40.1729 28.5385C40.0015 28.8485 39.8265 29.1651 39.753 29.4934C39.696 29.7476 39.7824 30.0645 39.8618 30.3558C39.8956 30.4798 39.9281 30.5992 39.9478 30.7071C40.0918 31.4982 40.2186 32.3297 40.2376 33.1344C40.3229 36.7355 39.436 40.4136 36.9703 43.1584C36.2052 44.01 35.3044 44.7555 34.3196 45.3428C30.6594 47.5258 26.0769 46.5753 22.7522 44.2484C21.6006 43.4424 20.6581 42.4672 19.7039 41.4798C19.3787 41.1434 19.0523 40.8056 18.7157 40.4726C18.421 40.181 18.0966 40.0868 17.7638 39.9902C17.5455 39.9269 17.3237 39.8625 17.1041 39.7407C16.5103 39.4114 15.848 38.5409 15.5385 37.9441C15.3999 37.6766 15.411 37.4023 15.422 37.1329C15.4313 36.9029 15.4405 36.6764 15.3561 36.4607C15.2613 36.2183 15.0779 36.0009 14.8953 35.7844C14.7592 35.6231 14.6235 35.4623 14.5253 35.292C14.103 34.5604 13.961 33.7408 13.9029 32.9097C13.8794 32.5744 13.8903 32.2107 13.9015 31.839C13.9376 30.6344 13.9762 29.3457 12.8566 28.6668C11.5752 27.8896 10.0185 29.3845 10.2084 30.7071C10.2638 31.0934 10.447 31.3976 10.6281 31.6986C10.8463 32.0611 11.0617 32.4189 11.0479 32.9097C11.033 33.4357 10.6701 33.7539 10.1455 33.7551C9.45174 33.7567 9.01877 33.2759 8.67228 32.7299C7.97709 31.6342 7.85936 30.1915 8.18132 28.954C8.93517 26.0566 12.7503 24.9619 14.9351 27.0254C16.1716 28.1933 16.2267 29.7193 16.2834 31.2917C16.285 31.3365 16.2867 31.3814 16.2883 31.4263C16.2936 31.5717 16.2969 31.7124 16.3001 31.8491C16.322 32.7991 16.3396 33.5602 17.0194 34.3921C17.2432 34.666 17.5337 34.7032 17.8372 34.7421C18.029 34.7667 18.2259 34.7919 18.4144 34.8779C18.8399 35.072 19.1726 35.493 19.4726 35.8726C19.5349 35.9514 19.5957 36.0283 19.6556 36.1011C19.8656 36.3561 20.0816 36.6288 20.16 36.9552C20.2005 37.1233 20.2157 37.2911 20.2308 37.4568C20.2589 37.7649 20.2863 38.0658 20.4734 38.3487C21.0903 39.2815 21.9986 40.1172 22.8426 40.8418C24.1159 41.9351 25.4629 42.9128 27.0448 43.517C31.0845 45.06 35.0887 42.4308 36.7584 38.7532C37.6856 36.7111 37.7675 34.7416 37.7537 32.5501C37.4605 32.8001 37.206 33.1036 36.951 33.4075C36.7438 33.6545 36.5363 33.9018 36.3078 34.1209C35.2014 35.1813 33.9745 36.0406 32.5574 36.6344C31.2812 37.1691 29.8766 37.4359 28.4907 37.4034C27.4533 37.3791 26.3691 37.1461 25.4181 36.7354C19.6382 34.2391 18.4896 25.6316 23.6107 21.8093C24.3658 21.2458 25.1974 20.8014 26.0959 20.5177C27.2037 20.1679 28.3723 20.009 29.53 20.1051C31.0288 20.2297 32.4696 20.6576 33.7774 21.4024C35.0142 22.1067 36.1322 23.0714 37.0105 24.1893C37.2687 24.5179 37.4939 24.8696 37.7188 25.2207ZM25.7348 23.546C26.5075 23.0635 27.4065 22.783 28.3104 22.681C31.295 22.3442 34.0926 24.4095 35.6752 26.7513C36.0241 27.2677 36.3169 27.8104 36.5897 28.3695C36.6084 28.4079 36.629 28.448 36.6503 28.4896C36.7597 28.7029 36.8879 28.9527 36.8739 29.1787C36.8609 29.3887 36.7138 29.5926 36.5869 29.7684C36.566 29.7974 36.5457 29.8256 36.5266 29.8529C36.2161 30.297 35.899 30.7447 35.5461 31.1565C34.0572 32.8941 31.9814 34.5258 29.6208 34.7927C28.7587 34.8902 27.8767 34.8478 27.0452 34.5817C26.3232 34.3505 25.6337 33.9738 25.057 33.4845C21.867 30.7776 22.1489 25.7853 25.7348 23.546Z" fill="#FCFCFC"/>
<g opacity="0.7">
<mask id="path-4-outside-1_33_40" maskUnits="userSpaceOnUse" x="22.1548" y="22.143" width="28" height="28" fill="black">
<rect fill="white" x="22.1548" y="22.143" width="28" height="28"/>
<path fill-rule="evenodd" clip-rule="evenodd" d="M27.9702 25.3522C27.6913 25.0733 27.2391 25.0733 26.9602 25.3522L25.3655 26.9473C25.0866 27.2263 25.0866 27.6786 25.3655 27.9576L33.9781 36.5725L25.364 45.1851C25.085 45.4641 25.085 45.9163 25.364 46.1952L26.959 47.79C27.238 48.0689 27.6903 48.0689 27.9693 47.79L36.5828 39.1779L45.1931 47.7904C45.472 48.0694 45.9242 48.0694 46.2031 47.7904L47.7978 46.1953C48.0767 45.9164 48.0767 45.464 47.7978 45.1851L39.1881 36.5731L47.8012 27.9614C48.0801 27.6825 48.0801 27.2303 47.8012 26.9514L46.2061 25.3566C45.9272 25.0777 45.4749 25.0777 45.1959 25.3566L36.5834 33.9677L27.9702 25.3522Z"/>
</mask>
<path fill-rule="evenodd" clip-rule="evenodd" d="M27.9702 25.3522C27.6913 25.0733 27.2391 25.0733 26.9602 25.3522L25.3655 26.9473C25.0866 27.2263 25.0866 27.6786 25.3655 27.9576L33.9781 36.5725L25.364 45.1851C25.085 45.4641 25.085 45.9163 25.364 46.1952L26.959 47.79C27.238 48.0689 27.6903 48.0689 27.9693 47.79L36.5828 39.1779L45.1931 47.7904C45.472 48.0694 45.9242 48.0694 46.2031 47.7904L47.7978 46.1953C48.0767 45.9164 48.0767 45.464 47.7978 45.1851L39.1881 36.5731L47.8012 27.9614C48.0801 27.6825 48.0801 27.2303 47.8012 26.9514L46.2061 25.3566C45.9272 25.0777 45.4749 25.0777 45.1959 25.3566L36.5834 33.9677L27.9702 25.3522Z" fill="url(#paint1_linear_33_40)"/>
<path d="M26.9602 25.3522L28.4756 26.8673L28.4756 26.8673L26.9602 25.3522ZM27.9702 25.3522L26.4548 26.8673L26.4548 26.8673L27.9702 25.3522ZM25.3655 26.9473L23.8501 25.4323L23.8501 25.4323L25.3655 26.9473ZM25.3655 27.9576L23.8501 29.4727L23.8501 29.4727L25.3655 27.9576ZM33.9781 36.5725L35.4932 38.0878L37.0085 36.5728L35.4935 35.0575L33.9781 36.5725ZM25.364 45.1851L23.8489 43.6698L23.8489 43.6698L25.364 45.1851ZM25.364 46.1952L23.8489 47.7106L23.8489 47.7106L25.364 46.1952ZM26.959 47.79L28.4741 46.2746L28.4741 46.2746L26.959 47.79ZM27.9693 47.79L29.4844 49.3053L29.4844 49.3053L27.9693 47.79ZM36.5828 39.1779L38.0982 37.6629L36.5831 36.1474L35.0677 37.6625L36.5828 39.1779ZM45.1931 47.7904L43.6777 49.3055L43.6777 49.3055L45.1931 47.7904ZM46.2031 47.7904L47.7185 49.3055L47.7186 49.3055L46.2031 47.7904ZM47.7978 46.1953L46.2824 44.6803L46.2824 44.6803L47.7978 46.1953ZM47.7978 45.1851L46.2824 46.7001L46.2824 46.7001L47.7978 45.1851ZM39.1881 36.5731L37.673 35.0577L36.1577 36.5727L37.6726 38.0881L39.1881 36.5731ZM47.8012 27.9614L49.3163 29.4768L49.3163 29.4768L47.8012 27.9614ZM47.8012 26.9514L49.3163 25.436L49.3163 25.436L47.8012 26.9514ZM46.2061 25.3566L47.7212 23.8413L47.7212 23.8413L46.2061 25.3566ZM45.1959 25.3566L43.6808 23.8413L43.6808 23.8413L45.1959 25.3566ZM36.5834 33.9677L35.0679 35.4827L36.5831 36.9982L38.0985 35.483L36.5834 33.9677ZM28.4756 26.8673C27.9177 27.4254 27.0128 27.4254 26.4548 26.8673L29.4857 23.8372C28.3699 22.7211 26.5606 22.7211 25.4448 23.8372L28.4756 26.8673ZM26.881 28.4624L28.4756 26.8673L25.4448 23.8372L23.8501 25.4323L26.881 28.4624ZM26.881 26.4426C27.4386 27.0004 27.4386 27.9046 26.881 28.4624L23.8501 25.4323C22.7346 26.5481 22.7346 28.3569 23.8501 29.4727L26.881 26.4426ZM35.4935 35.0575L26.881 26.4426L23.8501 29.4727L32.4627 38.0875L35.4935 35.0575ZM26.8791 46.7005L35.4932 38.0878L32.463 35.0571L23.8489 43.6698L26.8791 46.7005ZM26.8791 44.6798C27.4372 45.2378 27.4372 46.1425 26.8791 46.7005L23.8489 43.6698C22.7329 44.7856 22.7329 46.5948 23.8489 47.7106L26.8791 44.6798ZM28.4741 46.2746L26.8791 44.6798L23.8489 47.7106L25.4439 49.3053L28.4741 46.2746ZM26.4542 46.2746C27.012 45.7169 27.9163 45.7169 28.4741 46.2746L25.4439 49.3053C26.5597 50.4209 28.3686 50.4209 29.4844 49.3053L26.4542 46.2746ZM35.0677 37.6625L26.4542 46.2746L29.4844 49.3053L38.0979 40.6932L35.0677 37.6625ZM46.7085 46.2754L38.0982 37.6629L35.0674 40.6929L43.6777 49.3055L46.7085 46.2754ZM44.6877 46.2754C45.2457 45.7173 46.1506 45.7173 46.7085 46.2754L43.6777 49.3055C44.7935 50.4216 46.6028 50.4216 47.7185 49.3055L44.6877 46.2754ZM46.2824 44.6803L44.6877 46.2754L47.7186 49.3055L49.3132 47.7104L46.2824 44.6803ZM46.2824 46.7001C45.7247 46.1423 45.7247 45.2381 46.2824 44.6803L49.3132 47.7104C50.4287 46.5946 50.4287 44.7858 49.3132 43.67L46.2824 46.7001ZM37.6726 38.0881L46.2824 46.7001L49.3132 43.67L40.7035 35.058L37.6726 38.0881ZM46.2861 26.4461L37.673 35.0577L40.7032 38.0884L49.3163 29.4768L46.2861 26.4461ZM46.2861 28.4667C45.728 27.9088 45.728 27.004 46.2861 26.4461L49.3163 29.4768C50.4322 28.361 50.4322 26.5518 49.3163 25.436L46.2861 28.4667ZM44.691 26.872L46.2861 28.4667L49.3163 25.436L47.7212 23.8413L44.691 26.872ZM46.711 26.872C46.1531 27.4297 45.2489 27.4297 44.691 26.872L47.7212 23.8413C46.6054 22.7257 44.7966 22.7257 43.6808 23.8413L46.711 26.872ZM38.0985 35.483L46.711 26.872L43.6808 23.8413L35.0683 32.4523L38.0985 35.483ZM26.4548 26.8673L35.0679 35.4827L38.0988 32.4526L29.4857 23.8372L26.4548 26.8673Z" fill="black" mask="url(#path-4-outside-1_33_40)"/>
</g>
</g>
</g>
<rect x="1.06074" y="1.04982" width="53.9" height="53.9" rx="7.35" stroke="white" stroke-opacity="0.15" stroke-width="2.1"/>
<defs>
<filter id="filter0_d_33_40" x="2.29646" y="2.28553" width="53.5711" height="53.5713" filterUnits="userSpaceOnUse" color-interpolation-filters="sRGB">
<feFlood flood-opacity="0" result="BackgroundImageFix"/>
<feColorMatrix in="SourceAlpha" type="matrix" values="0 0 0 0 0 0 0 0 0 0 0 0 0 0 0 0 0 0 127 0" result="hardAlpha"/>
<feOffset/>
<feGaussianBlur stdDeviation="2.85714"/>
<feComposite in2="hardAlpha" operator="out"/>
<feColorMatrix type="matrix" values="0 0 0 0 0 0 0 0 0 0 0 0 0 0 0 0 0 0 0.25 0"/>
<feBlend mode="normal" in2="BackgroundImageFix" result="effect1_dropShadow_33_40"/>
<feBlend mode="normal" in="SourceGraphic" in2="effect1_dropShadow_33_40" result="shape"/>
</filter>
<linearGradient id="paint0_linear_33_40" x1="28.0107" y1="-0.000183105" x2="28.0107" y2="55.9998" gradientUnits="userSpaceOnUse">
<stop stop-color="#2C1B1B"/>
<stop offset="1" stop-color="#1F1414"/>
</linearGradient>
<linearGradient id="paint1_linear_33_40" x1="36.5826" y1="25.143" x2="36.5826" y2="47.9997" gradientUnits="userSpaceOnUse">
<stop stop-color="#FF0000"/>
<stop offset="1" stop-color="#CC0000"/>
</linearGradient>
<clipPath id="clip0_33_40">
<rect x="0.0107422" y="-0.000183105" width="56" height="56" rx="8.4" fill="white"/>
</clipPath>
</defs>
</svg>
