<svg width="57" height="56" viewBox="0 0 57 56" fill="none" xmlns="http://www.w3.org/2000/svg">
<g clip-path="url(#clip0_28_3934)">
<rect x="0.0107422" y="-1.52588e-05" width="56" height="56" rx="8.4" fill="url(#paint0_linear_28_3934)"/>
<g filter="url(#filter0_d_28_3934)">
<path d="M44.1926 20.5225L27.0107 19.6667H48.0107V18H24.2835V21.5135V24.3063C24.2835 24.3513 23.6016 20.2072 23.4198 19.036H21.5562V22.0991V24.8919C21.5562 24.9369 20.738 19.982 20.6926 19.3513C15.9653 19.3513 8.01074 19.3513 8.01074 19.3513C8.87438 20.0721 13.6471 24.1261 17.0562 25.7928C18.738 26.6036 20.8289 26.6486 22.6926 26.6937C23.6471 26.7387 24.6016 26.7838 25.3289 27.5045C26.3744 28.4955 26.6016 30.0721 25.6926 31.2432C24.8289 32.4144 22.3744 32.6847 22.3744 32.6847L20.2835 35.1171V38H24.9653L25.1016 35.1621L29.1471 32.3243C28.738 32.6847 27.738 33.5856 26.3289 35.7928C26.0107 36.2883 25.738 36.8288 25.5562 37.3694C26.5562 36.5135 28.6471 35.9279 31.1016 35.9279C33.5107 35.9279 35.6016 36.5135 36.6016 37.3694C36.4198 36.8288 36.1471 36.2883 35.8289 35.7928C34.3744 33.5856 33.4198 32.6847 33.0107 32.3243L37.0562 35.1621L37.1926 38H41.5562V35.1171L39.5107 32.6396C39.5107 32.6396 36.4653 32.4594 35.6926 31.1982C33.3289 27.6847 36.5562 22.1892 44.1926 20.5225Z" fill="#DFA86A"/>
<g opacity="0.7">
<mask id="path-4-outside-1_28_3934" maskUnits="userSpaceOnUse" x="22.1548" y="22.1431" width="28" height="28" fill="black">
<rect fill="white" x="22.1548" y="22.1431" width="28" height="28"/>
<path fill-rule="evenodd" clip-rule="evenodd" d="M27.9702 25.3523C27.6913 25.0734 27.2391 25.0734 26.9602 25.3523L25.3655 26.9474C25.0866 27.2264 25.0866 27.6787 25.3655 27.9577L33.9781 36.5726L25.364 45.1853C25.085 45.4642 25.085 45.9164 25.364 46.1953L26.959 47.7901C27.238 48.069 27.6903 48.069 27.9693 47.7901L36.5828 39.178L45.1931 47.7905C45.472 48.0695 45.9242 48.0695 46.2031 47.7905L47.7978 46.1954C48.0767 45.9165 48.0767 45.4641 47.7978 45.1852L39.1881 36.5732L47.8012 27.9616C48.0801 27.6827 48.0801 27.2304 47.8012 26.9515L46.2061 25.3568C45.9272 25.0778 45.4749 25.0778 45.1959 25.3568L36.5834 33.9678L27.9702 25.3523Z"/>
</mask>
<path fill-rule="evenodd" clip-rule="evenodd" d="M27.9702 25.3523C27.6913 25.0734 27.2391 25.0734 26.9602 25.3523L25.3655 26.9474C25.0866 27.2264 25.0866 27.6787 25.3655 27.9577L33.9781 36.5726L25.364 45.1853C25.085 45.4642 25.085 45.9164 25.364 46.1953L26.959 47.7901C27.238 48.069 27.6903 48.069 27.9693 47.7901L36.5828 39.178L45.1931 47.7905C45.472 48.0695 45.9242 48.0695 46.2031 47.7905L47.7978 46.1954C48.0767 45.9165 48.0767 45.4641 47.7978 45.1852L39.1881 36.5732L47.8012 27.9616C48.0801 27.6827 48.0801 27.2304 47.8012 26.9515L46.2061 25.3568C45.9272 25.0778 45.4749 25.0778 45.1959 25.3568L36.5834 33.9678L27.9702 25.3523Z" fill="url(#paint1_linear_28_3934)"/>
<path d="M26.9602 25.3523L28.4756 26.8674L28.4756 26.8674L26.9602 25.3523ZM27.9702 25.3523L26.4548 26.8674L26.4548 26.8674L27.9702 25.3523ZM25.3655 26.9474L23.8501 25.4324L23.8501 25.4324L25.3655 26.9474ZM25.3655 27.9577L26.881 26.4427L26.881 26.4427L25.3655 27.9577ZM33.9781 36.5726L35.4932 38.088L37.0085 36.5729L35.4936 35.0576L33.9781 36.5726ZM25.364 45.1853L23.8489 43.6699L23.8489 43.6699L25.364 45.1853ZM25.364 46.1953L23.8489 47.7107L23.8489 47.7107L25.364 46.1953ZM26.959 47.7901L28.4741 46.2747L28.4741 46.2747L26.959 47.7901ZM27.9693 47.7901L29.4844 49.3055L29.4844 49.3055L27.9693 47.7901ZM36.5828 39.178L38.0983 37.663L36.5832 36.1475L35.0677 37.6626L36.5828 39.178ZM45.1931 47.7905L43.6777 49.3056L43.6777 49.3056L45.1931 47.7905ZM46.2031 47.7905L47.7185 49.3056L47.7185 49.3056L46.2031 47.7905ZM47.7978 46.1954L46.2824 44.6804L46.2824 44.6804L47.7978 46.1954ZM47.7978 45.1852L46.2824 46.7002L46.2824 46.7002L47.7978 45.1852ZM39.1881 36.5732L37.673 35.0578L36.1577 36.5728L37.6727 38.0882L39.1881 36.5732ZM47.8012 27.9616L49.3163 29.4769L49.3163 29.4769L47.8012 27.9616ZM47.8012 26.9515L49.3163 25.4362L49.3163 25.4362L47.8012 26.9515ZM46.2061 25.3568L47.7212 23.8414L47.7212 23.8414L46.2061 25.3568ZM45.1959 25.3568L43.6808 23.8414L43.6808 23.8414L45.1959 25.3568ZM36.5834 33.9678L35.068 35.4828L36.5831 36.9983L38.0985 35.4831L36.5834 33.9678ZM28.4756 26.8674C27.9177 27.4255 27.0128 27.4255 26.4548 26.8674L29.4857 23.8373C28.3699 22.7212 26.5606 22.7212 25.4448 23.8373L28.4756 26.8674ZM26.881 28.4625L28.4756 26.8674L25.4448 23.8373L23.8501 25.4324L26.881 28.4625ZM26.881 26.4427C27.4386 27.0005 27.4386 27.9047 26.881 28.4625L23.8501 25.4324C22.7346 26.5482 22.7346 28.357 23.8501 29.4728L26.881 26.4427ZM35.4936 35.0576L26.881 26.4427L23.8501 29.4728L32.4627 38.0876L35.4936 35.0576ZM26.8791 46.7006L35.4932 38.088L32.463 35.0573L23.8489 43.6699L26.8791 46.7006ZM26.8791 44.68C27.4372 45.2379 27.4372 46.1427 26.8791 46.7006L23.8489 43.6699C22.7329 44.7857 22.7329 46.5949 23.8489 47.7107L26.8791 44.68ZM28.4741 46.2747L26.8791 44.68L23.8489 47.7107L25.4439 49.3055L28.4741 46.2747ZM26.4542 46.2747C27.012 45.717 27.9163 45.717 28.4741 46.2747L25.4439 49.3055C26.5597 50.421 28.3686 50.421 29.4844 49.3055L26.4542 46.2747ZM35.0677 37.6626L26.4542 46.2747L29.4844 49.3055L38.0979 40.6934L35.0677 37.6626ZM46.7085 46.2755L38.0983 37.663L35.0674 40.693L43.6777 49.3056L46.7085 46.2755ZM44.6877 46.2755C45.2457 45.7174 46.1506 45.7174 46.7085 46.2755L43.6777 49.3056C44.7935 50.4217 46.6028 50.4217 47.7185 49.3056L44.6877 46.2755ZM46.2824 44.6804L44.6877 46.2755L47.7185 49.3056L49.3132 47.7105L46.2824 44.6804ZM46.2824 46.7002C45.7247 46.1424 45.7247 45.2382 46.2824 44.6804L49.3132 47.7105C50.4287 46.5947 50.4287 44.7859 49.3132 43.6701L46.2824 46.7002ZM37.6727 38.0882L46.2824 46.7002L49.3132 43.6701L40.7035 35.0581L37.6727 38.0882ZM46.2861 26.4462L37.673 35.0578L40.7032 38.0885L49.3163 29.4769L46.2861 26.4462ZM46.2861 28.4669C45.728 27.9089 45.728 27.0042 46.2861 26.4462L49.3163 29.4769C50.4322 28.3611 50.4322 26.5519 49.3163 25.4362L46.2861 28.4669ZM44.691 26.8721L46.2861 28.4669L49.3163 25.4362L47.7212 23.8414L44.691 26.8721ZM46.711 26.8721C46.1531 27.4299 45.2489 27.4299 44.691 26.8721L47.7212 23.8414C46.6054 22.7258 44.7966 22.7258 43.6808 23.8414L46.711 26.8721ZM38.0985 35.4831L46.711 26.8721L43.6808 23.8414L35.0683 32.4524L38.0985 35.4831ZM26.4548 26.8674L35.068 35.4828L38.0988 32.4528L29.4857 23.8373L26.4548 26.8674Z" fill="black" mask="url(#path-4-outside-1_28_3934)"/>
</g>
</g>
</g>
<rect x="1.06074" y="1.04998" width="53.9" height="53.9" rx="7.35" stroke="white" stroke-opacity="0.15" stroke-width="2.1"/>
<defs>
<filter id="filter0_d_28_3934" x="2.29646" y="2.2857" width="53.5711" height="53.5712" filterUnits="userSpaceOnUse" color-interpolation-filters="sRGB">
<feFlood flood-opacity="0" result="BackgroundImageFix"/>
<feColorMatrix in="SourceAlpha" type="matrix" values="0 0 0 0 0 0 0 0 0 0 0 0 0 0 0 0 0 0 127 0" result="hardAlpha"/>
<feOffset/>
<feGaussianBlur stdDeviation="2.85714"/>
<feComposite in2="hardAlpha" operator="out"/>
<feColorMatrix type="matrix" values="0 0 0 0 0 0 0 0 0 0 0 0 0 0 0 0 0 0 0.25 0"/>
<feBlend mode="normal" in2="BackgroundImageFix" result="effect1_dropShadow_28_3934"/>
<feBlend mode="normal" in="SourceGraphic" in2="effect1_dropShadow_28_3934" result="shape"/>
</filter>
<linearGradient id="paint0_linear_28_3934" x1="28.0107" y1="-1.52588e-05" x2="28.0107" y2="56" gradientUnits="userSpaceOnUse">
<stop stop-color="#2C1B1B"/>
<stop offset="1" stop-color="#1F1414"/>
</linearGradient>
<linearGradient id="paint1_linear_28_3934" x1="36.5826" y1="25.1431" x2="36.5826" y2="47.9998" gradientUnits="userSpaceOnUse">
<stop stop-color="#FF0000"/>
<stop offset="1" stop-color="#CC0000"/>
</linearGradient>
<clipPath id="clip0_28_3934">
<rect x="0.0107422" y="-1.52588e-05" width="56" height="56" rx="8.4" fill="white"/>
</clipPath>
</defs>
</svg>
