<svg width="57" height="56" viewBox="0 0 57 56" fill="none" xmlns="http://www.w3.org/2000/svg">
<g clip-path="url(#clip0_28_3985)">
<rect x="0.0107422" y="-0.000183105" width="56" height="56" rx="8.4" fill="url(#paint0_linear_28_3985)"/>
<g filter="url(#filter0_d_28_3985)">
<path d="M43.7032 12.3207L38.8062 41.7071C38.7456 42.0732 38.5162 42.3894 38.1881 42.563C38.0063 42.6629 37.8018 42.7164 37.5938 42.7175C37.4381 42.7152 37.2848 42.6831 37.1422 42.6224L28.4773 39.0561L23.8537 44.7028C23.6243 44.9857 23.2784 45.1474 22.9147 45.1426C22.7721 45.145 22.6294 45.1165 22.4987 45.0594C21.9947 44.8894 21.6631 44.402 21.6904 43.8707V37.2492L38.2119 17.0401L17.7681 34.6934L10.2205 31.5907C9.77954 31.4266 9.47526 31.0153 9.44792 30.5446C9.38968 30.0595 9.63572 29.5864 10.066 29.3558L41.8846 11.0487C42.2781 10.7932 42.7868 10.7932 43.1802 11.0487C43.5903 11.3317 43.7959 11.831 43.7032 12.3207Z" fill="white"/>
<g opacity="0.7">
<mask id="path-4-outside-1_28_3985" maskUnits="userSpaceOnUse" x="22.1548" y="22.143" width="28" height="28" fill="black">
<rect fill="white" x="22.1548" y="22.143" width="28" height="28"/>
<path fill-rule="evenodd" clip-rule="evenodd" d="M27.9702 25.3522C27.6913 25.0733 27.2391 25.0733 26.9602 25.3522L25.3655 26.9473C25.0866 27.2263 25.0866 27.6786 25.3655 27.9576L33.9781 36.5725L25.364 45.1851C25.085 45.4641 25.085 45.9163 25.364 46.1952L26.959 47.79C27.238 48.0689 27.6903 48.0689 27.9693 47.79L36.5828 39.1779L45.1931 47.7904C45.472 48.0694 45.9242 48.0694 46.2031 47.7904L47.7978 46.1953C48.0767 45.9164 48.0767 45.464 47.7978 45.1851L39.1881 36.5731L47.8012 27.9614C48.0801 27.6825 48.0801 27.2303 47.8012 26.9514L46.2061 25.3566C45.9272 25.0777 45.4749 25.0777 45.1959 25.3566L36.5834 33.9677L27.9702 25.3522Z"/>
</mask>
<path fill-rule="evenodd" clip-rule="evenodd" d="M27.9702 25.3522C27.6913 25.0733 27.2391 25.0733 26.9602 25.3522L25.3655 26.9473C25.0866 27.2263 25.0866 27.6786 25.3655 27.9576L33.9781 36.5725L25.364 45.1851C25.085 45.4641 25.085 45.9163 25.364 46.1952L26.959 47.79C27.238 48.0689 27.6903 48.0689 27.9693 47.79L36.5828 39.1779L45.1931 47.7904C45.472 48.0694 45.9242 48.0694 46.2031 47.7904L47.7978 46.1953C48.0767 45.9164 48.0767 45.464 47.7978 45.1851L39.1881 36.5731L47.8012 27.9614C48.0801 27.6825 48.0801 27.2303 47.8012 26.9514L46.2061 25.3566C45.9272 25.0777 45.4749 25.0777 45.1959 25.3566L36.5834 33.9677L27.9702 25.3522Z" fill="url(#paint1_linear_28_3985)"/>
<path d="M26.9602 25.3522L28.4756 26.8673L28.4756 26.8673L26.9602 25.3522ZM27.9702 25.3522L26.4548 26.8673L26.4548 26.8673L27.9702 25.3522ZM25.3655 26.9473L23.8501 25.4323L23.8501 25.4323L25.3655 26.9473ZM25.3655 27.9576L26.881 26.4426L26.881 26.4426L25.3655 27.9576ZM33.9781 36.5725L35.4932 38.0878L37.0085 36.5728L35.4935 35.0575L33.9781 36.5725ZM25.364 45.1851L23.8489 43.6698L23.8489 43.6698L25.364 45.1851ZM25.364 46.1952L23.8489 47.7106L23.8489 47.7106L25.364 46.1952ZM26.959 47.79L28.4741 46.2746L28.4741 46.2746L26.959 47.79ZM27.9693 47.79L29.4844 49.3053L29.4844 49.3053L27.9693 47.79ZM36.5828 39.1779L38.0982 37.6629L36.5831 36.1474L35.0677 37.6625L36.5828 39.1779ZM45.1931 47.7904L43.6777 49.3055L43.6777 49.3055L45.1931 47.7904ZM46.2031 47.7904L47.7185 49.3055L47.7185 49.3055L46.2031 47.7904ZM47.7978 46.1953L46.2824 44.6803L46.2824 44.6803L47.7978 46.1953ZM47.7978 45.1851L46.2824 46.7001L46.2824 46.7001L47.7978 45.1851ZM39.1881 36.5731L37.673 35.0577L36.1577 36.5727L37.6727 38.0881L39.1881 36.5731ZM47.8012 27.9614L49.3163 29.4768L49.3163 29.4768L47.8012 27.9614ZM47.8012 26.9514L49.3163 25.436L49.3163 25.436L47.8012 26.9514ZM46.2061 25.3566L47.7212 23.8413L47.7212 23.8413L46.2061 25.3566ZM45.1959 25.3566L43.6808 23.8413L43.6808 23.8413L45.1959 25.3566ZM36.5834 33.9677L35.068 35.4827L36.5831 36.9982L38.0985 35.483L36.5834 33.9677ZM28.4756 26.8673C27.9177 27.4254 27.0128 27.4254 26.4548 26.8673L29.4857 23.8372C28.3699 22.7211 26.5606 22.7211 25.4448 23.8372L28.4756 26.8673ZM26.881 28.4624L28.4756 26.8673L25.4448 23.8372L23.8501 25.4323L26.881 28.4624ZM26.881 26.4426C27.4386 27.0004 27.4386 27.9046 26.881 28.4624L23.8501 25.4323C22.7346 26.5481 22.7346 28.3569 23.8501 29.4727L26.881 26.4426ZM35.4935 35.0575L26.881 26.4426L23.8501 29.4727L32.4627 38.0875L35.4935 35.0575ZM26.8791 46.7005L35.4932 38.0878L32.463 35.0571L23.8489 43.6698L26.8791 46.7005ZM26.8791 44.6798C27.4372 45.2378 27.4372 46.1425 26.8791 46.7005L23.8489 43.6698C22.7329 44.7856 22.7329 46.5948 23.8489 47.7106L26.8791 44.6798ZM28.4741 46.2746L26.8791 44.6798L23.8489 47.7106L25.4439 49.3053L28.4741 46.2746ZM26.4542 46.2746C27.012 45.7169 27.9163 45.7169 28.4741 46.2746L25.4439 49.3053C26.5597 50.4209 28.3686 50.4209 29.4844 49.3053L26.4542 46.2746ZM35.0677 37.6625L26.4542 46.2746L29.4844 49.3053L38.0979 40.6932L35.0677 37.6625ZM46.7085 46.2754L38.0982 37.6629L35.0674 40.6929L43.6777 49.3055L46.7085 46.2754ZM44.6877 46.2754C45.2457 45.7173 46.1506 45.7173 46.7085 46.2754L43.6777 49.3055C44.7935 50.4216 46.6028 50.4216 47.7185 49.3055L44.6877 46.2754ZM46.2824 44.6803L44.6877 46.2754L47.7185 49.3055L49.3132 47.7104L46.2824 44.6803ZM46.2824 46.7001C45.7247 46.1423 45.7247 45.2381 46.2824 44.6803L49.3132 47.7104C50.4287 46.5946 50.4287 44.7858 49.3132 43.67L46.2824 46.7001ZM37.6727 38.0881L46.2824 46.7001L49.3132 43.67L40.7035 35.058L37.6727 38.0881ZM46.2861 26.4461L37.673 35.0577L40.7032 38.0884L49.3163 29.4768L46.2861 26.4461ZM46.2861 28.4667C45.728 27.9088 45.728 27.004 46.2861 26.4461L49.3163 29.4768C50.4322 28.361 50.4322 26.5518 49.3163 25.436L46.2861 28.4667ZM44.691 26.872L46.2861 28.4667L49.3163 25.436L47.7212 23.8413L44.691 26.872ZM46.711 26.872C46.1531 27.4297 45.2489 27.4297 44.691 26.872L47.7212 23.8413C46.6054 22.7257 44.7966 22.7257 43.6808 23.8413L46.711 26.872ZM38.0985 35.483L46.711 26.872L43.6808 23.8413L35.0683 32.4523L38.0985 35.483ZM26.4548 26.8673L35.068 35.4827L38.0988 32.4526L29.4857 23.8372L26.4548 26.8673Z" fill="black" mask="url(#path-4-outside-1_28_3985)"/>
</g>
</g>
</g>
<rect x="1.06074" y="1.04982" width="53.9" height="53.9" rx="7.35" stroke="white" stroke-opacity="0.15" stroke-width="2.1"/>
<defs>
<filter id="filter0_d_28_3985" x="2.29646" y="2.28553" width="53.5711" height="53.5713" filterUnits="userSpaceOnUse" color-interpolation-filters="sRGB">
<feFlood flood-opacity="0" result="BackgroundImageFix"/>
<feColorMatrix in="SourceAlpha" type="matrix" values="0 0 0 0 0 0 0 0 0 0 0 0 0 0 0 0 0 0 127 0" result="hardAlpha"/>
<feOffset/>
<feGaussianBlur stdDeviation="2.85714"/>
<feComposite in2="hardAlpha" operator="out"/>
<feColorMatrix type="matrix" values="0 0 0 0 0 0 0 0 0 0 0 0 0 0 0 0 0 0 0.25 0"/>
<feBlend mode="normal" in2="BackgroundImageFix" result="effect1_dropShadow_28_3985"/>
<feBlend mode="normal" in="SourceGraphic" in2="effect1_dropShadow_28_3985" result="shape"/>
</filter>
<linearGradient id="paint0_linear_28_3985" x1="28.0107" y1="-0.000183105" x2="28.0107" y2="55.9998" gradientUnits="userSpaceOnUse">
<stop stop-color="#2C1B1B"/>
<stop offset="1" stop-color="#1F1414"/>
</linearGradient>
<linearGradient id="paint1_linear_28_3985" x1="36.5826" y1="25.143" x2="36.5826" y2="47.9997" gradientUnits="userSpaceOnUse">
<stop stop-color="#FF0000"/>
<stop offset="1" stop-color="#CC0000"/>
</linearGradient>
<clipPath id="clip0_28_3985">
<rect x="0.0107422" y="-0.000183105" width="56" height="56" rx="8.4" fill="white"/>
</clipPath>
</defs>
</svg>
