<svg width="57" height="56" viewBox="0 0 57 56" fill="none" xmlns="http://www.w3.org/2000/svg">
<g clip-path="url(#clip0_28_3952)">
<rect x="0.0107422" y="-6.10352e-05" width="56" height="56" rx="8.4" fill="url(#paint0_linear_28_3952)"/>
<g filter="url(#filter0_d_28_3952)">
<path d="M19.1324 13.5364C19.1326 13.7238 19.2071 13.9035 19.3396 14.036C19.4722 14.1685 19.6518 14.2431 19.8393 14.2432H21.0412V16.9299H19.8393C19.6518 16.9299 19.472 17.0044 19.3394 17.137C19.2069 17.2695 19.1324 17.4493 19.1324 17.6368C19.1324 17.8243 19.2069 18.0041 19.3394 18.1366C19.472 18.2692 19.6518 18.3436 19.8393 18.3436H21.0412V20.4041C21.0412 20.5702 20.9753 20.7295 20.8578 20.8469C20.7404 20.9644 20.5811 21.0304 20.415 21.0304H18.3546V19.8284C18.3546 19.6409 18.2801 19.4611 18.1475 19.3286C18.015 19.196 17.8352 19.1215 17.6477 19.1215C17.4602 19.1215 17.2805 19.196 17.1479 19.3286C17.0153 19.4611 16.9409 19.6409 16.9409 19.8284V21.0304H14.2542V19.8284C14.2542 19.6409 14.1797 19.4611 14.0471 19.3286C13.9146 19.196 13.7348 19.1215 13.5473 19.1215C13.3599 19.1215 13.1801 19.196 13.0475 19.3286C12.915 19.4611 12.8405 19.6409 12.8405 19.8284V21.0304H10.7801C10.614 21.0302 10.4548 20.9641 10.3374 20.8467C10.22 20.7293 10.154 20.5701 10.1538 20.4041V10.7691C10.1538 10.603 10.2198 10.4437 10.3372 10.3262C10.4547 10.2088 10.614 10.1428 10.7801 10.1428H20.415C20.4972 10.1427 20.5787 10.1589 20.6547 10.1903C20.7308 10.2218 20.7998 10.2679 20.858 10.326C20.9162 10.3842 20.9623 10.4533 20.9937 10.5293C21.0252 10.6053 21.0413 10.6868 21.0412 10.7691V12.8289H19.8393C19.6517 12.829 19.4719 12.9037 19.3394 13.0363C19.2069 13.169 19.1324 13.3489 19.1324 13.5364V13.5364Z" fill="#9722FF"/>
<path d="M31.4321 13.5364C31.4321 13.7239 31.5066 13.9036 31.6392 14.0362C31.7717 14.1688 31.9515 14.2432 32.139 14.2432H33.3444V16.9299H32.1424C31.9549 16.9299 31.7751 17.0044 31.6426 17.137C31.51 17.2695 31.4355 17.4493 31.4355 17.6368C31.4355 17.8243 31.51 18.0041 31.6426 18.1366C31.7751 18.2692 31.9549 18.3436 32.1424 18.3436H33.3444V20.4041C33.3442 20.5701 33.2781 20.7293 33.1607 20.8467C33.0433 20.9641 32.8841 21.0302 32.7181 21.0304H23.0818C22.9157 21.0304 22.7564 20.9644 22.639 20.8469C22.5215 20.7295 22.4556 20.5702 22.4556 20.4041V18.3436H23.6569C23.8443 18.3436 24.0241 18.2692 24.1567 18.1366C24.2892 18.0041 24.3637 17.8243 24.3637 17.6368C24.3637 17.4493 24.2892 17.2695 24.1567 17.137C24.0241 17.0044 23.8443 16.9299 23.6569 16.9299H22.4556V14.2432H23.6569C23.7516 14.2462 23.8459 14.2301 23.9343 14.1958C24.0227 14.1616 24.1033 14.11 24.1713 14.0441C24.2393 13.9781 24.2934 13.8991 24.3304 13.8119C24.3673 13.7246 24.3864 13.6308 24.3864 13.536C24.3864 13.4413 24.3673 13.3475 24.3304 13.2602C24.2934 13.1729 24.2393 13.094 24.1713 13.028C24.1033 12.9621 24.0227 12.9105 23.9343 12.8762C23.8459 12.842 23.7516 12.8259 23.6569 12.8289H22.4556V10.7691C22.4555 10.6868 22.4716 10.6053 22.5031 10.5293C22.5345 10.4533 22.5806 10.3842 22.6388 10.326C22.697 10.2679 22.766 10.2218 22.8421 10.1903C22.9181 10.1589 22.9996 10.1427 23.0818 10.1428H32.7167C32.8828 10.1428 33.0421 10.2088 33.1596 10.3262C33.277 10.4437 33.343 10.603 33.343 10.7691V12.8289H32.141C32.048 12.8286 31.9558 12.8467 31.8697 12.8821C31.7837 12.9176 31.7055 12.9697 31.6396 13.0354C31.5738 13.1011 31.5215 13.1792 31.4859 13.2652C31.4503 13.3512 31.432 13.4433 31.4321 13.5364V13.5364Z" fill="#DC29DD"/>
<path d="M45.6443 10.7691V20.4041C45.6443 20.5702 45.5783 20.7295 45.4608 20.8469C45.3434 20.9644 45.1841 21.0304 45.018 21.0304H42.9576V19.8284C42.9576 19.6409 42.8831 19.4611 42.7505 19.3286C42.618 19.196 42.4382 19.1215 42.2507 19.1215C42.0633 19.1215 41.8835 19.196 41.7509 19.3286C41.6184 19.4611 41.5439 19.6409 41.5439 19.8284V21.0304H38.8572V19.8284C38.8572 19.6409 38.7827 19.4611 38.6502 19.3286C38.5176 19.196 38.3378 19.1215 38.1504 19.1215C37.9629 19.1215 37.7831 19.196 37.6506 19.3286C37.518 19.4611 37.4435 19.6409 37.4435 19.8284V21.0304H35.3831C35.2171 21.0302 35.0579 20.9641 34.9405 20.8467C34.8231 20.7293 34.757 20.5701 34.7568 20.4041V18.3436H35.9588C36.1463 18.3436 36.3261 18.2692 36.4586 18.1366C36.5912 18.0041 36.6657 17.8243 36.6657 17.6368C36.6657 17.4493 36.5912 17.2695 36.4586 17.137C36.3261 17.0044 36.1463 16.9299 35.9588 16.9299H34.7568V14.2432H35.9588C36.1426 14.2375 36.3169 14.1605 36.4448 14.0285C36.5728 13.8965 36.6444 13.7199 36.6444 13.536C36.6444 13.3522 36.5728 13.1756 36.4448 13.0436C36.3169 12.9116 36.1426 12.8346 35.9588 12.8289H34.7568V10.7691C34.7568 10.603 34.8228 10.4437 34.9403 10.3262C35.0577 10.2088 35.217 10.1428 35.3831 10.1428H45.018C45.1003 10.1427 45.1817 10.1589 45.2578 10.1903C45.3338 10.2218 45.4029 10.2679 45.461 10.326C45.5192 10.3842 45.5653 10.4533 45.5968 10.5293C45.6282 10.6053 45.6444 10.6868 45.6443 10.7691Z" fill="#27A2FD"/>
<path d="M21.0412 23.0703V32.7053C21.0413 32.7876 21.0252 32.8691 20.9937 32.9451C20.9623 33.0211 20.9162 33.0902 20.858 33.1484C20.7998 33.2065 20.7308 33.2527 20.6547 33.2841C20.5787 33.3156 20.4972 33.3317 20.415 33.3316H18.3546V32.1296C18.3546 31.9421 18.2801 31.7624 18.1475 31.6298C18.015 31.4972 17.8352 31.4228 17.6477 31.4228C17.4602 31.4228 17.2805 31.4972 17.1479 31.6298C17.0153 31.7624 16.9409 31.9421 16.9409 32.1296V33.333H14.2542V32.131C14.2542 31.9435 14.1797 31.7637 14.0471 31.6312C13.9146 31.4986 13.7348 31.4241 13.5473 31.4241C13.3599 31.4241 13.1801 31.4986 13.0475 31.6312C12.915 31.7637 12.8405 31.9435 12.8405 32.131V33.333H10.7801C10.614 33.333 10.4547 33.267 10.3372 33.1495C10.2198 33.0321 10.1538 32.8728 10.1538 32.7067V23.0703C10.154 22.9043 10.22 22.7451 10.3374 22.6277C10.4548 22.5103 10.614 22.4442 10.7801 22.4441H12.8405V23.646C12.8405 23.8335 12.915 24.0133 13.0475 24.1459C13.1801 24.2784 13.3599 24.3529 13.5473 24.3529C13.7348 24.3529 13.9146 24.2784 14.0471 24.1459C14.1797 24.0133 14.2542 23.8335 14.2542 23.646V22.4441H16.9409V23.646C16.9409 23.8335 17.0153 24.0133 17.1479 24.1459C17.2805 24.2784 17.4602 24.3529 17.6477 24.3529C17.8352 24.3529 18.015 24.2784 18.1475 24.1459C18.2801 24.0133 18.3546 23.8335 18.3546 23.646V22.4441H20.415C20.4972 22.4441 20.5787 22.4603 20.6546 22.4917C20.7306 22.5232 20.7997 22.5693 20.8578 22.6275C20.916 22.6856 20.9621 22.7547 20.9936 22.8307C21.025 22.9066 21.0412 22.9881 21.0412 23.0703V23.0703Z" fill="#DC29DD"/>
<path d="M31.4321 25.8376C31.4321 26.0251 31.5066 26.2049 31.6392 26.3374C31.7717 26.47 31.9515 26.5445 32.139 26.5445H33.3444V29.2312H32.1424C31.9549 29.2312 31.7751 29.3057 31.6426 29.4382C31.51 29.5708 31.4355 29.7506 31.4355 29.938C31.4355 30.1255 31.51 30.3053 31.6426 30.4379C31.7751 30.5704 31.9549 30.6449 32.1424 30.6449H33.3444V32.7053C33.3444 32.8714 33.2784 33.0307 33.1609 33.1482C33.0435 33.2656 32.8842 33.3316 32.7181 33.3316H30.6563V32.1296C30.6563 31.9421 30.5818 31.7624 30.4493 31.6298C30.3167 31.4972 30.1369 31.4228 29.9495 31.4228C29.762 31.4228 29.5822 31.4972 29.4497 31.6298C29.3171 31.7624 29.2426 31.9421 29.2426 32.1296V33.333H26.5559V32.131C26.5502 31.9472 26.4732 31.7729 26.3412 31.6449C26.2092 31.517 26.0326 31.4454 25.8488 31.4454C25.6649 31.4454 25.4883 31.517 25.3563 31.6449C25.2243 31.7729 25.1473 31.9472 25.1416 32.131V33.333H23.0818C22.9996 33.3331 22.9181 33.3169 22.8421 33.2855C22.766 33.254 22.697 33.2079 22.6388 33.1497C22.5806 33.0916 22.5345 33.0225 22.5031 32.9465C22.4716 32.8704 22.4555 32.789 22.4556 32.7067V23.0703C22.4556 22.9042 22.5215 22.7449 22.639 22.6275C22.7564 22.51 22.9157 22.4441 23.0818 22.4441H32.7167C32.8828 22.4442 33.042 22.5103 33.1594 22.6277C33.2768 22.7451 33.3428 22.9043 33.343 23.0703V25.1308H32.141C32.048 25.1305 31.9559 25.1486 31.8699 25.184C31.7839 25.2194 31.7057 25.2714 31.6399 25.3371C31.574 25.4027 31.5218 25.4808 31.4861 25.5667C31.4505 25.6525 31.4321 25.7446 31.4321 25.8376V25.8376Z" fill="#27A2FD"/>
<path d="M45.6443 23.0703V32.7053C45.6444 32.7876 45.6282 32.8691 45.5968 32.9451C45.5653 33.0211 45.5192 33.0902 45.461 33.1484C45.4029 33.2065 45.3338 33.2527 45.2578 33.2841C45.1817 33.3156 45.1003 33.3317 45.018 33.3316H35.3831C35.217 33.3316 35.0577 33.2656 34.9403 33.1482C34.8228 33.0307 34.7568 32.8714 34.7568 32.7053V30.6449H35.9588C36.1463 30.6449 36.3261 30.5704 36.4586 30.4379C36.5912 30.3053 36.6657 30.1255 36.6657 29.938C36.6657 29.7506 36.5912 29.5708 36.4586 29.4382C36.3261 29.3057 36.1463 29.2312 35.9588 29.2312H34.7568V26.5445H35.9588C36.1463 26.5445 36.3261 26.47 36.4586 26.3374C36.5912 26.2049 36.6657 26.0251 36.6657 25.8376C36.6657 25.6502 36.5912 25.4704 36.4586 25.3378C36.3261 25.2052 36.1463 25.1308 35.9588 25.1308H34.7568V23.0703C34.757 22.9043 34.8231 22.7451 34.9405 22.6277C35.0579 22.5103 35.2171 22.4442 35.3831 22.4441H37.4422V23.646C37.4422 23.8335 37.5166 24.0133 37.6492 24.1459C37.7817 24.2784 37.9615 24.3529 38.149 24.3529C38.3365 24.3529 38.5163 24.2784 38.6488 24.1459C38.7814 24.0133 38.8558 23.8335 38.8558 23.646V22.4441H41.5425V23.646C41.5425 23.8335 41.617 24.0133 41.7496 24.1459C41.8821 24.2784 42.0619 24.3529 42.2494 24.3529C42.4368 24.3529 42.6166 24.2784 42.7492 24.1459C42.8817 24.0133 42.9562 23.8335 42.9562 23.646V22.4441H45.0166C45.099 22.4439 45.1806 22.46 45.2567 22.4913C45.3329 22.5227 45.4021 22.5688 45.4604 22.627C45.5187 22.6852 45.5649 22.7543 45.5965 22.8303C45.628 22.9064 45.6443 22.988 45.6443 23.0703Z" fill="#3344FF"/>
<path d="M19.1324 38.1395C19.1326 38.3269 19.2071 38.5066 19.3396 38.6392C19.4722 38.7717 19.6518 38.8462 19.8393 38.8464H21.0412V41.5324H19.8393C19.6555 41.5381 19.4812 41.6151 19.3532 41.7471C19.2253 41.8791 19.1537 42.0558 19.1537 42.2396C19.1537 42.4234 19.2253 42.6001 19.3532 42.7321C19.4812 42.8641 19.6555 42.9411 19.8393 42.9468H21.0412V45.0072C21.0412 45.1733 20.9753 45.3326 20.8578 45.4501C20.7404 45.5675 20.5811 45.6335 20.415 45.6335H10.7801C10.614 45.6333 10.4548 45.5673 10.3374 45.4499C10.22 45.3325 10.154 45.1733 10.1538 45.0072V35.3722C10.1538 35.2061 10.2198 35.0468 10.3372 34.9294C10.4547 34.812 10.614 34.746 10.7801 34.746H12.8405V35.9473C12.8405 36.1347 12.915 36.3145 13.0475 36.4471C13.1801 36.5797 13.3599 36.6541 13.5473 36.6541C13.7348 36.6541 13.9146 36.5797 14.0471 36.4471C14.1797 36.3145 14.2542 36.1347 14.2542 35.9473V34.746H16.9409V35.9473C16.9409 36.1347 17.0153 36.3145 17.1479 36.4471C17.2805 36.5797 17.4602 36.6541 17.6477 36.6541C17.8352 36.6541 18.015 36.5797 18.1475 36.4471C18.2801 36.3145 18.3546 36.1347 18.3546 35.9473V34.746H20.415C20.4972 34.7459 20.5787 34.762 20.6547 34.7935C20.7308 34.8249 20.7998 34.871 20.858 34.9292C20.9162 34.9874 20.9623 35.0564 20.9937 35.1325C21.0252 35.2085 21.0413 35.29 21.0412 35.3722V37.4306H19.8393C19.7463 37.4307 19.6542 37.4491 19.5684 37.4848C19.4825 37.5205 19.4046 37.5728 19.3389 37.6386C19.2733 37.7044 19.2213 37.7826 19.1858 37.8685C19.1504 37.9545 19.1322 38.0466 19.1324 38.1395Z" fill="#9722FF"/>
<path d="M33.3444 35.3722V45.0072C33.3442 45.1733 33.2781 45.3325 33.1607 45.4499C33.0433 45.5673 32.8841 45.6333 32.7181 45.6335H23.0818C22.9157 45.6335 22.7564 45.5675 22.639 45.4501C22.5215 45.3326 22.4556 45.1733 22.4556 45.0072V42.9468H23.6569C23.7516 42.9497 23.8459 42.9336 23.9343 42.8994C24.0227 42.8652 24.1033 42.8136 24.1713 42.7476C24.2393 42.6817 24.2934 42.6027 24.3304 42.5154C24.3673 42.4282 24.3864 42.3344 24.3864 42.2396C24.3864 42.1448 24.3673 42.051 24.3304 41.9638C24.2934 41.8765 24.2393 41.7976 24.1713 41.7316C24.1033 41.6656 24.0227 41.614 23.9343 41.5798C23.8459 41.5456 23.7516 41.5295 23.6569 41.5324H22.4556V38.8464H23.6569C23.7516 38.8493 23.8459 38.8332 23.9343 38.799C24.0227 38.7648 24.1033 38.7132 24.1713 38.6472C24.2393 38.5812 24.2934 38.5023 24.3304 38.415C24.3673 38.3278 24.3864 38.234 24.3864 38.1392C24.3864 38.0444 24.3673 37.9506 24.3304 37.8634C24.2934 37.7761 24.2393 37.6971 24.1713 37.6312C24.1033 37.5652 24.0227 37.5136 23.9343 37.4794C23.8459 37.4452 23.7516 37.4291 23.6569 37.432H22.4556V35.3722C22.4555 35.29 22.4716 35.2085 22.5031 35.1325C22.5345 35.0564 22.5806 34.9874 22.6388 34.9292C22.697 34.871 22.766 34.8249 22.8421 34.7935C22.9181 34.762 22.9996 34.7459 23.0818 34.746H25.1416V35.9473C25.1386 36.042 25.1547 36.1363 25.189 36.2247C25.2232 36.3131 25.2748 36.3937 25.3407 36.4617C25.4067 36.5298 25.4857 36.5839 25.5729 36.6208C25.6602 36.6578 25.754 36.6768 25.8488 36.6768C25.9435 36.6768 26.0373 36.6578 26.1246 36.6208C26.2118 36.5839 26.2908 36.5298 26.3568 36.4617C26.4227 36.3937 26.4743 36.3131 26.5086 36.2247C26.5428 36.1363 26.5589 36.042 26.5559 35.9473V34.746H29.2426V35.9473C29.2426 36.0401 29.2609 36.132 29.2964 36.2178C29.3319 36.3035 29.384 36.3815 29.4497 36.4471C29.5153 36.5127 29.5932 36.5648 29.679 36.6003C29.7647 36.6358 29.8566 36.6541 29.9495 36.6541C30.0423 36.6541 30.1342 36.6358 30.22 36.6003C30.3057 36.5648 30.3836 36.5127 30.4493 36.4471C30.5149 36.3815 30.567 36.3035 30.6025 36.2178C30.638 36.132 30.6563 36.0401 30.6563 35.9473V34.746H32.7167C32.7991 34.7458 32.8807 34.7619 32.9568 34.7933C33.033 34.8246 33.1022 34.8707 33.1605 34.9289C33.2187 34.9871 33.265 35.0562 33.2966 35.1323C33.3281 35.2083 33.3444 35.2899 33.3444 35.3722V35.3722Z" fill="#3344FF"/>
<path d="M42.0126 35.1883L35.1997 42.0013C34.9551 42.2459 34.9551 42.6424 35.1997 42.887L42.0126 49.7C42.2571 49.9445 42.6537 49.9445 42.8982 49.7L49.7111 42.887C49.9557 42.6424 49.9557 42.2459 49.7111 42.0013L42.8982 35.1883C42.6537 34.9438 42.2571 34.9438 42.0126 35.1883Z" fill="#9722FF"/>
<g opacity="0.7">
<mask id="path-12-outside-1_28_3952" maskUnits="userSpaceOnUse" x="22.1548" y="22.1431" width="28" height="28" fill="black">
<rect fill="white" x="22.1548" y="22.1431" width="28" height="28"/>
<path fill-rule="evenodd" clip-rule="evenodd" d="M27.9702 25.3523C27.6913 25.0734 27.2391 25.0734 26.9602 25.3523L25.3655 26.9474C25.0866 27.2264 25.0866 27.6787 25.3655 27.9577L33.9781 36.5726L25.364 45.1852C25.085 45.4641 25.085 45.9164 25.364 46.1953L26.959 47.79C27.238 48.069 27.6903 48.069 27.9693 47.7901L36.5828 39.178L45.1931 47.7905C45.472 48.0695 45.9242 48.0695 46.2031 47.7905L47.7978 46.1954C48.0767 45.9164 48.0767 45.4641 47.7978 45.1851L39.1881 36.5731L47.8012 27.9615C48.0801 27.6826 48.0801 27.2304 47.8012 26.9515L46.2061 25.3567C45.9272 25.0778 45.4749 25.0778 45.1959 25.3567L36.5834 33.9678L27.9702 25.3523Z"/>
</mask>
<path fill-rule="evenodd" clip-rule="evenodd" d="M27.9702 25.3523C27.6913 25.0734 27.2391 25.0734 26.9602 25.3523L25.3655 26.9474C25.0866 27.2264 25.0866 27.6787 25.3655 27.9577L33.9781 36.5726L25.364 45.1852C25.085 45.4641 25.085 45.9164 25.364 46.1953L26.959 47.79C27.238 48.069 27.6903 48.069 27.9693 47.7901L36.5828 39.178L45.1931 47.7905C45.472 48.0695 45.9242 48.0695 46.2031 47.7905L47.7978 46.1954C48.0767 45.9164 48.0767 45.4641 47.7978 45.1851L39.1881 36.5731L47.8012 27.9615C48.0801 27.6826 48.0801 27.2304 47.8012 26.9515L46.2061 25.3567C45.9272 25.0778 45.4749 25.0778 45.1959 25.3567L36.5834 33.9678L27.9702 25.3523Z" fill="url(#paint1_linear_28_3952)"/>
<path d="M26.9602 25.3523L28.4756 26.8674L28.4756 26.8674L26.9602 25.3523ZM27.9702 25.3523L26.4548 26.8674L26.4548 26.8674L27.9702 25.3523ZM25.3655 26.9474L26.881 28.4625L26.881 28.4625L25.3655 26.9474ZM25.3655 27.9577L23.8501 29.4727L23.8501 29.4727L25.3655 27.9577ZM33.9781 36.5726L35.4932 38.0879L37.0085 36.5729L35.4935 35.0576L33.9781 36.5726ZM25.364 45.1852L23.8489 43.6699L23.8489 43.6699L25.364 45.1852ZM25.364 46.1953L23.8489 47.7106L23.8489 47.7107L25.364 46.1953ZM26.959 47.79L28.4741 46.2747L28.4741 46.2747L26.959 47.79ZM27.9693 47.7901L29.4844 49.3054L29.4844 49.3054L27.9693 47.7901ZM36.5828 39.178L38.0982 37.6629L36.5831 36.1474L35.0677 37.6626L36.5828 39.178ZM45.1931 47.7905L46.7085 46.2755L46.7085 46.2755L45.1931 47.7905ZM46.2031 47.7905L47.7185 49.3056L47.7186 49.3056L46.2031 47.7905ZM47.7978 46.1954L46.2824 44.6804L46.2824 44.6804L47.7978 46.1954ZM47.7978 45.1851L49.3132 43.6701L49.3132 43.6701L47.7978 45.1851ZM39.1881 36.5731L37.673 35.0578L36.1577 36.5728L37.6727 38.0882L39.1881 36.5731ZM47.8012 27.9615L49.3163 29.4769L49.3163 29.4769L47.8012 27.9615ZM47.8012 26.9515L49.3163 25.4361L49.3163 25.4361L47.8012 26.9515ZM46.2061 25.3567L47.7212 23.8414L47.7212 23.8413L46.2061 25.3567ZM45.1959 25.3567L43.6808 23.8413L43.6808 23.8414L45.1959 25.3567ZM36.5834 33.9678L35.0679 35.4828L36.5831 36.9983L38.0985 35.4831L36.5834 33.9678ZM28.4756 26.8674C27.9177 27.4255 27.0128 27.4255 26.4548 26.8674L29.4857 23.8373C28.3699 22.7212 26.5606 22.7212 25.4448 23.8373L28.4756 26.8674ZM26.881 28.4625L28.4756 26.8674L25.4448 23.8373L23.8501 25.4324L26.881 28.4625ZM26.881 26.4427C27.4386 27.0005 27.4386 27.9047 26.881 28.4625L23.8501 25.4324C22.7346 26.5482 22.7346 28.357 23.8501 29.4727L26.881 26.4427ZM35.4935 35.0576L26.881 26.4427L23.8501 29.4727L32.4627 38.0876L35.4935 35.0576ZM26.8791 46.7006L35.4932 38.0879L32.463 35.0572L23.8489 43.6699L26.8791 46.7006ZM26.8791 44.6799C27.4372 45.2379 27.4372 46.1426 26.8791 46.7006L23.8489 43.6699C22.7329 44.7857 22.7329 46.5949 23.8489 47.7106L26.8791 44.6799ZM28.4741 46.2747L26.8791 44.6799L23.8489 47.7107L25.4439 49.3054L28.4741 46.2747ZM26.4542 46.2747C27.012 45.7169 27.9163 45.7169 28.4741 46.2747L25.4439 49.3054C26.5597 50.421 28.3686 50.421 29.4844 49.3054L26.4542 46.2747ZM35.0677 37.6626L26.4542 46.2747L29.4844 49.3054L38.0979 40.6933L35.0677 37.6626ZM46.7085 46.2755L38.0982 37.6629L35.0674 40.693L43.6777 49.3056L46.7085 46.2755ZM44.6877 46.2755C45.2457 45.7174 46.1506 45.7174 46.7085 46.2755L43.6777 49.3056C44.7935 50.4216 46.6028 50.4216 47.7185 49.3056L44.6877 46.2755ZM46.2824 44.6804L44.6877 46.2755L47.7186 49.3056L49.3132 47.7105L46.2824 44.6804ZM46.2824 46.7002C45.7247 46.1424 45.7247 45.2382 46.2824 44.6804L49.3132 47.7105C50.4287 46.5947 50.4287 44.7859 49.3132 43.6701L46.2824 46.7002ZM37.6727 38.0882L46.2824 46.7002L49.3132 43.6701L40.7035 35.0581L37.6727 38.0882ZM46.2861 26.4462L37.673 35.0578L40.7032 38.0885L49.3163 29.4769L46.2861 26.4462ZM46.2861 28.4668C45.728 27.9089 45.728 27.0041 46.2861 26.4462L49.3163 29.4769C50.4322 28.3611 50.4322 26.5519 49.3163 25.4361L46.2861 28.4668ZM44.691 26.8721L46.2861 28.4668L49.3163 25.4361L47.7212 23.8414L44.691 26.8721ZM46.711 26.8721C46.1531 27.4298 45.2489 27.4298 44.691 26.8721L47.7212 23.8413C46.6054 22.7258 44.7966 22.7258 43.6808 23.8413L46.711 26.8721ZM38.0985 35.4831L46.711 26.8721L43.6808 23.8414L35.0683 32.4524L38.0985 35.4831ZM26.4548 26.8674L35.0679 35.4828L38.0988 32.4527L29.4857 23.8373L26.4548 26.8674Z" fill="black" mask="url(#path-12-outside-1_28_3952)"/>
</g>
</g>
</g>
<rect x="1.06074" y="1.04994" width="53.9" height="53.9" rx="7.35" stroke="white" stroke-opacity="0.15" stroke-width="2.1"/>
<defs>
<filter id="filter0_d_28_3952" x="2.29646" y="2.28565" width="53.5711" height="53.5713" filterUnits="userSpaceOnUse" color-interpolation-filters="sRGB">
<feFlood flood-opacity="0" result="BackgroundImageFix"/>
<feColorMatrix in="SourceAlpha" type="matrix" values="0 0 0 0 0 0 0 0 0 0 0 0 0 0 0 0 0 0 127 0" result="hardAlpha"/>
<feOffset/>
<feGaussianBlur stdDeviation="2.85714"/>
<feComposite in2="hardAlpha" operator="out"/>
<feColorMatrix type="matrix" values="0 0 0 0 0 0 0 0 0 0 0 0 0 0 0 0 0 0 0.25 0"/>
<feBlend mode="normal" in2="BackgroundImageFix" result="effect1_dropShadow_28_3952"/>
<feBlend mode="normal" in="SourceGraphic" in2="effect1_dropShadow_28_3952" result="shape"/>
</filter>
<linearGradient id="paint0_linear_28_3952" x1="28.0107" y1="-6.10351e-05" x2="28.0107" y2="55.9999" gradientUnits="userSpaceOnUse">
<stop stop-color="#2C1B1B"/>
<stop offset="1" stop-color="#1F1414"/>
</linearGradient>
<linearGradient id="paint1_linear_28_3952" x1="36.5826" y1="25.1431" x2="36.5826" y2="47.9998" gradientUnits="userSpaceOnUse">
<stop stop-color="#FF0000"/>
<stop offset="1" stop-color="#CC0000"/>
</linearGradient>
<clipPath id="clip0_28_3952">
<rect x="0.0107422" y="-6.10352e-05" width="56" height="56" rx="8.4" fill="white"/>
</clipPath>
</defs>
</svg>
