<svg width="57" height="56" viewBox="0 0 57 56" fill="none" xmlns="http://www.w3.org/2000/svg">
<g clip-path="url(#clip0_28_3967)">
<rect x="0.0107422" y="-9.15527e-05" width="56" height="56" rx="8.4" fill="url(#paint0_linear_28_3967)"/>
<g filter="url(#filter0_d_28_3967)">
<path d="M27.2965 8.4123C27.7385 8.15711 28.283 8.15711 28.725 8.4123L44.617 17.5875C45.059 17.8427 45.3312 18.3143 45.3312 18.8247V37.1751C45.3312 37.6855 45.059 38.1571 44.617 38.4123L28.725 47.5875C28.283 47.8427 27.7385 47.8427 27.2965 47.5875L11.4045 38.4123C10.9625 38.1571 10.6902 37.6855 10.6902 37.1751V18.8247C10.6902 18.3143 10.9625 17.8427 11.4045 17.5875L27.2965 8.4123Z" fill="url(#paint1_linear_28_3967)"/>
<g opacity="0.7">
<mask id="path-4-outside-1_28_3967" maskUnits="userSpaceOnUse" x="22.1548" y="22.1431" width="28" height="28" fill="black">
<rect fill="white" x="22.1548" y="22.1431" width="28" height="28"/>
<path fill-rule="evenodd" clip-rule="evenodd" d="M27.9702 25.3523C27.6913 25.0733 27.2391 25.0733 26.9602 25.3523L25.3655 26.9474C25.0866 27.2264 25.0866 27.6787 25.3655 27.9577L33.9781 36.5726L25.364 45.1852C25.085 45.4642 25.085 45.9164 25.364 46.1953L26.959 47.7901C27.238 48.069 27.6903 48.069 27.9693 47.7901L36.5828 39.178L45.1931 47.7905C45.472 48.0695 45.9242 48.0695 46.2031 47.7905L47.7978 46.1954C48.0767 45.9164 48.0767 45.4641 47.7978 45.1851L39.1881 36.5731L47.8012 27.9615C48.0801 27.6826 48.0801 27.2304 47.8012 26.9515L46.2061 25.3567C45.9272 25.0778 45.4749 25.0778 45.1959 25.3567L36.5834 33.9677L27.9702 25.3523Z"/>
</mask>
<path fill-rule="evenodd" clip-rule="evenodd" d="M27.9702 25.3523C27.6913 25.0733 27.2391 25.0733 26.9602 25.3523L25.3655 26.9474C25.0866 27.2264 25.0866 27.6787 25.3655 27.9577L33.9781 36.5726L25.364 45.1852C25.085 45.4642 25.085 45.9164 25.364 46.1953L26.959 47.7901C27.238 48.069 27.6903 48.069 27.9693 47.7901L36.5828 39.178L45.1931 47.7905C45.472 48.0695 45.9242 48.0695 46.2031 47.7905L47.7978 46.1954C48.0767 45.9164 48.0767 45.4641 47.7978 45.1851L39.1881 36.5731L47.8012 27.9615C48.0801 27.6826 48.0801 27.2304 47.8012 26.9515L46.2061 25.3567C45.9272 25.0778 45.4749 25.0778 45.1959 25.3567L36.5834 33.9677L27.9702 25.3523Z" fill="url(#paint2_linear_28_3967)"/>
<path d="M26.9602 25.3523L28.4756 26.8673L28.4756 26.8673L26.9602 25.3523ZM27.9702 25.3523L26.4548 26.8673L26.4548 26.8673L27.9702 25.3523ZM25.3655 26.9474L23.8501 25.4324L23.8501 25.4324L25.3655 26.9474ZM25.3655 27.9577L23.8501 29.4727L23.8501 29.4727L25.3655 27.9577ZM33.9781 36.5726L35.4932 38.0879L37.0085 36.5729L35.4936 35.0575L33.9781 36.5726ZM25.364 45.1852L23.8489 43.6699L23.8489 43.6699L25.364 45.1852ZM25.364 46.1953L23.8489 47.7106L23.8489 47.7107L25.364 46.1953ZM26.959 47.7901L28.4741 46.2747L28.4741 46.2747L26.959 47.7901ZM27.9693 47.7901L29.4844 49.3054L29.4844 49.3054L27.9693 47.7901ZM36.5828 39.178L38.0983 37.6629L36.5832 36.1474L35.0677 37.6626L36.5828 39.178ZM45.1931 47.7905L43.6777 49.3055L43.6777 49.3055L45.1931 47.7905ZM46.2031 47.7905L47.7185 49.3055L47.7185 49.3055L46.2031 47.7905ZM47.7978 46.1954L49.3132 47.7104L49.3132 47.7104L47.7978 46.1954ZM47.7978 45.1851L46.2824 46.7001L46.2824 46.7001L47.7978 45.1851ZM39.1881 36.5731L37.673 35.0578L36.1577 36.5728L37.6727 38.0882L39.1881 36.5731ZM47.8012 27.9615L49.3163 29.4769L49.3163 29.4769L47.8012 27.9615ZM47.8012 26.9515L49.3163 25.4361L49.3163 25.4361L47.8012 26.9515ZM46.2061 25.3567L47.7212 23.8414L47.7212 23.8414L46.2061 25.3567ZM45.1959 25.3567L43.6808 23.8413L43.6808 23.8414L45.1959 25.3567ZM36.5834 33.9677L35.068 35.4828L36.5831 36.9983L38.0985 35.4831L36.5834 33.9677ZM28.4756 26.8673C27.9177 27.4255 27.0128 27.4255 26.4548 26.8673L29.4857 23.8373C28.3699 22.7212 26.5606 22.7212 25.4448 23.8373L28.4756 26.8673ZM26.881 28.4624L28.4756 26.8673L25.4448 23.8373L23.8501 25.4324L26.881 28.4624ZM26.881 26.4427C27.4386 27.0005 27.4386 27.9046 26.881 28.4624L23.8501 25.4324C22.7346 26.5482 22.7346 28.3569 23.8501 29.4727L26.881 26.4427ZM35.4936 35.0575L26.881 26.4427L23.8501 29.4727L32.4627 38.0876L35.4936 35.0575ZM26.8791 46.7006L35.4932 38.0879L32.463 35.0572L23.8489 43.6699L26.8791 46.7006ZM26.8791 44.6799C27.4372 45.2379 27.4372 46.1426 26.8791 46.7006L23.8489 43.6699C22.7329 44.7857 22.7329 46.5949 23.8489 47.7106L26.8791 44.6799ZM28.4741 46.2747L26.8791 44.6799L23.8489 47.7107L25.4439 49.3054L28.4741 46.2747ZM26.4542 46.2747C27.012 45.7169 27.9163 45.7169 28.4741 46.2747L25.4439 49.3054C26.5597 50.421 28.3686 50.421 29.4844 49.3054L26.4542 46.2747ZM35.0677 37.6626L26.4542 46.2747L29.4844 49.3054L38.0979 40.6933L35.0677 37.6626ZM46.7085 46.2755L38.0983 37.6629L35.0674 40.693L43.6777 49.3055L46.7085 46.2755ZM44.6877 46.2755C45.2457 45.7174 46.1506 45.7174 46.7085 46.2755L43.6777 49.3055C44.7935 50.4216 46.6028 50.4216 47.7185 49.3055L44.6877 46.2755ZM46.2824 44.6804L44.6877 46.2755L47.7185 49.3055L49.3132 47.7104L46.2824 44.6804ZM46.2824 46.7001C45.7247 46.1423 45.7247 45.2382 46.2824 44.6804L49.3132 47.7104C50.4287 46.5947 50.4287 44.7859 49.3132 43.6701L46.2824 46.7001ZM37.6727 38.0882L46.2824 46.7001L49.3132 43.6701L40.7035 35.0581L37.6727 38.0882ZM46.2861 26.4462L37.673 35.0578L40.7032 38.0885L49.3163 29.4769L46.2861 26.4462ZM46.2861 28.4668C45.728 27.9089 45.728 27.0041 46.2861 26.4462L49.3163 29.4769C50.4322 28.3611 50.4322 26.5519 49.3163 25.4361L46.2861 28.4668ZM44.691 26.8721L46.2861 28.4668L49.3163 25.4361L47.7212 23.8414L44.691 26.8721ZM46.711 26.8721C46.1531 27.4298 45.2489 27.4298 44.691 26.8721L47.7212 23.8414C46.6054 22.7258 44.7966 22.7258 43.6808 23.8413L46.711 26.8721ZM38.0985 35.4831L46.711 26.8721L43.6808 23.8414L35.0683 32.4524L38.0985 35.4831ZM26.4548 26.8673L35.068 35.4828L38.0988 32.4527L29.4857 23.8373L26.4548 26.8673Z" fill="black" mask="url(#path-4-outside-1_28_3967)"/>
</g>
</g>
</g>
<rect x="1.06074" y="1.04991" width="53.9" height="53.9" rx="7.35" stroke="white" stroke-opacity="0.15" stroke-width="2.1"/>
<defs>
<filter id="filter0_d_28_3967" x="2.29646" y="2.28562" width="53.5711" height="53.5713" filterUnits="userSpaceOnUse" color-interpolation-filters="sRGB">
<feFlood flood-opacity="0" result="BackgroundImageFix"/>
<feColorMatrix in="SourceAlpha" type="matrix" values="0 0 0 0 0 0 0 0 0 0 0 0 0 0 0 0 0 0 127 0" result="hardAlpha"/>
<feOffset/>
<feGaussianBlur stdDeviation="2.85714"/>
<feComposite in2="hardAlpha" operator="out"/>
<feColorMatrix type="matrix" values="0 0 0 0 0 0 0 0 0 0 0 0 0 0 0 0 0 0 0.25 0"/>
<feBlend mode="normal" in2="BackgroundImageFix" result="effect1_dropShadow_28_3967"/>
<feBlend mode="normal" in="SourceGraphic" in2="effect1_dropShadow_28_3967" result="shape"/>
</filter>
<linearGradient id="paint0_linear_28_3967" x1="28.0107" y1="-9.15527e-05" x2="28.0107" y2="55.9999" gradientUnits="userSpaceOnUse">
<stop stop-color="#2C1B1B"/>
<stop offset="1" stop-color="#1F1414"/>
</linearGradient>
<linearGradient id="paint1_linear_28_3967" x1="8.01075" y1="8" x2="8.01075" y2="48" gradientUnits="userSpaceOnUse">
<stop stop-color="white"/>
<stop offset="1" stop-color="#B9B9B9"/>
</linearGradient>
<linearGradient id="paint2_linear_28_3967" x1="36.5826" y1="25.1431" x2="36.5826" y2="47.9997" gradientUnits="userSpaceOnUse">
<stop stop-color="#FF0000"/>
<stop offset="1" stop-color="#CC0000"/>
</linearGradient>
<clipPath id="clip0_28_3967">
<rect x="0.0107422" y="-9.15527e-05" width="56" height="56" rx="8.4" fill="white"/>
</clipPath>
</defs>
</svg>
