<svg width="57" height="56" viewBox="0 0 57 56" fill="none" xmlns="http://www.w3.org/2000/svg">
<g clip-path="url(#clip0_28_4010)">
<rect x="0.0107422" y="-0.000183105" width="56" height="56" rx="8.4" fill="url(#paint0_linear_28_4010)"/>
<g filter="url(#filter0_d_28_4010)">
<g clip-path="url(#clip1_28_4010)">
<path d="M46.0107 7.99982H10.0107C8.91074 7.99982 8.01074 8.89982 8.01074 9.99982V45.9998C8.01074 47.0998 8.91074 47.9998 10.0107 47.9998H13.2307C12.8907 38.8598 13.2107 37.4998 13.8507 36.5998C14.6307 35.4798 14.9507 35.3398 16.1307 34.3998C17.1307 33.5998 16.7707 32.2998 16.0507 31.3598C15.6107 30.7798 14.9907 30.0998 14.5107 29.4398C14.2107 28.9998 14.9507 26.4198 15.2307 25.4798C15.5107 24.5398 15.9907 21.4798 20.1907 20.6598C21.7707 20.3398 26.1107 20.1198 29.0907 20.2998C29.0707 20.1798 29.0307 20.0398 29.0107 19.8998C28.9507 19.6598 28.9107 19.3998 28.8507 19.1198C28.7907 18.8598 28.7307 18.5798 28.6707 18.2998C28.6107 18.0198 28.5307 17.7398 28.4707 17.4398C28.3907 17.1398 28.3307 16.8598 28.2307 16.5598C28.0707 15.9598 27.8707 15.3798 27.6307 14.8198C27.5107 14.5398 27.3907 14.2798 27.2507 14.0398C27.1107 13.8198 26.9707 13.6198 26.8507 13.5398C26.8307 13.5198 26.8107 13.4998 26.7907 13.4998H26.7707H26.8107C26.8107 13.4998 26.8307 13.4998 26.8107 13.4998L26.7507 13.4798H26.7107L26.6307 13.4598H26.5307C26.2707 13.4398 25.9907 13.4398 25.6907 13.4598C25.1107 13.4998 24.4907 13.6198 23.8907 13.7598C23.2907 13.8998 22.7107 14.0798 22.1507 14.2398C21.9107 14.3198 21.6907 14.3998 21.4707 14.4598C21.4907 14.6398 21.5107 14.7998 21.5107 14.9798C21.5107 17.5798 19.4107 19.6798 16.8107 19.6798C14.2107 19.6798 12.1307 17.5798 12.1307 14.9798C12.1307 12.3798 14.2307 10.2798 16.8307 10.2798C18.5707 10.2798 20.0907 11.2198 20.9107 12.6398C21.1107 12.5598 21.3307 12.4798 21.5507 12.3998C22.1107 12.1798 22.7307 11.9598 23.3707 11.7598C24.0307 11.5598 24.7107 11.3598 25.4707 11.2598C25.8507 11.1998 26.2507 11.1798 26.6907 11.1998H26.8507C26.9107 11.1998 26.9707 11.2198 27.0107 11.2198H27.1507L27.2107 11.2398H27.2307L27.2907 11.2598C27.2907 11.2598 27.3307 11.2598 27.3507 11.2798L27.4307 11.2998C27.5507 11.3398 27.6107 11.3598 27.6907 11.3998C27.7707 11.4398 27.8307 11.4598 27.9107 11.4998C28.0507 11.5798 28.1707 11.6598 28.2907 11.7398C28.5107 11.9198 28.6907 12.0998 28.8307 12.2798C28.9907 12.4598 29.1107 12.6398 29.2307 12.8198C29.4707 13.1798 29.6507 13.5198 29.8107 13.8598C30.1307 14.5398 30.3907 15.2198 30.5907 15.8598L30.8907 16.8198C30.9907 17.1398 31.0507 17.4398 31.1307 17.7398C31.1707 17.8798 31.2107 18.0398 31.2307 18.1798C31.2707 18.3198 31.2907 18.4598 31.3307 18.5998C31.3907 18.8798 31.4507 19.1598 31.5107 19.4198C31.5907 19.8198 31.6507 20.1998 31.7107 20.5398C36.1907 20.9798 39.6107 21.5598 41.1507 23.0998C43.4107 25.2998 45.1507 35.2998 44.0107 47.9998H46.0107C47.1107 47.9998 48.0107 47.0998 48.0107 45.9998V9.99982C48.0107 8.89982 47.1107 7.99982 46.0107 7.99982Z" fill="#F7CF0D"/>
<path d="M26.2906 36.1597C26.0306 36.8797 25.8106 45.2997 28.2906 45.2997C30.7706 45.2997 30.7906 36.6597 30.7106 36.1597C30.6306 35.6797 26.5506 35.4597 26.2906 36.1597ZM23.0106 27.9997C21.3106 27.7597 20.2906 36.0397 22.6706 36.5197C24.9106 36.9597 24.6906 28.2397 23.0106 27.9997ZM34.1706 27.9997C32.4706 27.7597 31.4506 36.0397 33.8306 36.5197C36.0706 36.9597 35.8706 28.2397 34.1706 27.9997Z" fill="#F7CF0D"/>
</g>
<g opacity="0.7">
<mask id="path-5-outside-1_28_4010" maskUnits="userSpaceOnUse" x="22.1548" y="22.143" width="28" height="28" fill="black">
<rect fill="white" x="22.1548" y="22.143" width="28" height="28"/>
<path fill-rule="evenodd" clip-rule="evenodd" d="M27.9702 25.3522C27.6913 25.0733 27.2391 25.0733 26.9602 25.3522L25.3655 26.9473C25.0866 27.2263 25.0866 27.6786 25.3655 27.9576L33.9781 36.5725L25.364 45.1851C25.085 45.4641 25.085 45.9163 25.364 46.1952L26.959 47.79C27.238 48.0689 27.6903 48.0689 27.9693 47.79L36.5828 39.1779L45.1931 47.7904C45.472 48.0694 45.9242 48.0694 46.2031 47.7904L47.7978 46.1953C48.0767 45.9164 48.0767 45.464 47.7978 45.1851L39.1881 36.5731L47.8012 27.9614C48.0801 27.6825 48.0801 27.2303 47.8012 26.9514L46.2061 25.3566C45.9272 25.0777 45.4749 25.0777 45.1959 25.3566L36.5834 33.9677L27.9702 25.3522Z"/>
</mask>
<path fill-rule="evenodd" clip-rule="evenodd" d="M27.9702 25.3522C27.6913 25.0733 27.2391 25.0733 26.9602 25.3522L25.3655 26.9473C25.0866 27.2263 25.0866 27.6786 25.3655 27.9576L33.9781 36.5725L25.364 45.1851C25.085 45.4641 25.085 45.9163 25.364 46.1952L26.959 47.79C27.238 48.0689 27.6903 48.0689 27.9693 47.79L36.5828 39.1779L45.1931 47.7904C45.472 48.0694 45.9242 48.0694 46.2031 47.7904L47.7978 46.1953C48.0767 45.9164 48.0767 45.464 47.7978 45.1851L39.1881 36.5731L47.8012 27.9614C48.0801 27.6825 48.0801 27.2303 47.8012 26.9514L46.2061 25.3566C45.9272 25.0777 45.4749 25.0777 45.1959 25.3566L36.5834 33.9677L27.9702 25.3522Z" fill="url(#paint1_linear_28_4010)"/>
<path d="M26.9602 25.3522L28.4756 26.8673L28.4756 26.8673L26.9602 25.3522ZM27.9702 25.3522L26.4548 26.8673L26.4548 26.8673L27.9702 25.3522ZM25.3655 26.9473L23.8501 25.4323L23.8501 25.4323L25.3655 26.9473ZM25.3655 27.9576L26.881 26.4426L26.881 26.4426L25.3655 27.9576ZM33.9781 36.5725L35.4932 38.0878L37.0085 36.5728L35.4935 35.0575L33.9781 36.5725ZM25.364 45.1851L23.8489 43.6698L23.8489 43.6698L25.364 45.1851ZM25.364 46.1952L23.8489 47.7106L23.8489 47.7106L25.364 46.1952ZM26.959 47.79L28.4741 46.2746L28.4741 46.2746L26.959 47.79ZM27.9693 47.79L29.4844 49.3053L29.4844 49.3053L27.9693 47.79ZM36.5828 39.1779L38.0982 37.6629L36.5831 36.1474L35.0677 37.6625L36.5828 39.1779ZM45.1931 47.7904L43.6777 49.3055L43.6777 49.3055L45.1931 47.7904ZM46.2031 47.7904L47.7185 49.3055L47.7185 49.3055L46.2031 47.7904ZM47.7978 46.1953L46.2824 44.6803L46.2824 44.6803L47.7978 46.1953ZM47.7978 45.1851L46.2824 46.7001L46.2824 46.7001L47.7978 45.1851ZM39.1881 36.5731L37.673 35.0577L36.1577 36.5727L37.6727 38.0881L39.1881 36.5731ZM47.8012 27.9614L49.3163 29.4768L49.3163 29.4768L47.8012 27.9614ZM47.8012 26.9514L49.3163 25.436L49.3163 25.436L47.8012 26.9514ZM46.2061 25.3566L47.7212 23.8413L47.7212 23.8413L46.2061 25.3566ZM45.1959 25.3566L43.6808 23.8413L43.6808 23.8413L45.1959 25.3566ZM36.5834 33.9677L35.068 35.4827L36.583 36.9982L38.0985 35.483L36.5834 33.9677ZM28.4756 26.8673C27.9177 27.4254 27.0128 27.4254 26.4548 26.8673L29.4857 23.8372C28.3699 22.7211 26.5606 22.7211 25.4448 23.8372L28.4756 26.8673ZM26.881 28.4624L28.4756 26.8673L25.4448 23.8372L23.8501 25.4323L26.881 28.4624ZM26.881 26.4426C27.4386 27.0004 27.4386 27.9046 26.881 28.4624L23.8501 25.4323C22.7346 26.5481 22.7346 28.3569 23.8501 29.4727L26.881 26.4426ZM35.4935 35.0575L26.881 26.4426L23.8501 29.4727L32.4627 38.0875L35.4935 35.0575ZM26.8791 46.7005L35.4932 38.0878L32.463 35.0571L23.8489 43.6698L26.8791 46.7005ZM26.8791 44.6798C27.4372 45.2378 27.4372 46.1425 26.8791 46.7005L23.8489 43.6698C22.7329 44.7856 22.7329 46.5948 23.8489 47.7106L26.8791 44.6798ZM28.4741 46.2746L26.8791 44.6798L23.8489 47.7106L25.4439 49.3053L28.4741 46.2746ZM26.4542 46.2746C27.012 45.7169 27.9163 45.7169 28.4741 46.2746L25.4439 49.3053C26.5597 50.4209 28.3686 50.4209 29.4844 49.3053L26.4542 46.2746ZM35.0677 37.6625L26.4542 46.2746L29.4844 49.3053L38.0979 40.6932L35.0677 37.6625ZM46.7085 46.2754L38.0982 37.6629L35.0674 40.6929L43.6777 49.3055L46.7085 46.2754ZM44.6877 46.2754C45.2457 45.7173 46.1506 45.7173 46.7085 46.2754L43.6777 49.3055C44.7935 50.4216 46.6028 50.4216 47.7185 49.3055L44.6877 46.2754ZM46.2824 44.6803L44.6877 46.2754L47.7185 49.3055L49.3132 47.7104L46.2824 44.6803ZM46.2824 46.7001C45.7247 46.1423 45.7247 45.2381 46.2824 44.6803L49.3132 47.7104C50.4287 46.5946 50.4287 44.7858 49.3132 43.67L46.2824 46.7001ZM37.6727 38.0881L46.2824 46.7001L49.3132 43.67L40.7035 35.058L37.6727 38.0881ZM46.2861 26.4461L37.673 35.0577L40.7032 38.0884L49.3163 29.4768L46.2861 26.4461ZM46.2861 28.4667C45.728 27.9088 45.728 27.004 46.2861 26.4461L49.3163 29.4768C50.4322 28.361 50.4322 26.5518 49.3163 25.436L46.2861 28.4667ZM44.691 26.872L46.2861 28.4667L49.3163 25.436L47.7212 23.8413L44.691 26.872ZM46.711 26.872C46.1531 27.4297 45.2489 27.4297 44.691 26.872L47.7212 23.8413C46.6054 22.7257 44.7966 22.7257 43.6808 23.8413L46.711 26.872ZM38.0985 35.483L46.711 26.872L43.6808 23.8413L35.0683 32.4523L38.0985 35.483ZM26.4548 26.8673L35.068 35.4827L38.0988 32.4526L29.4857 23.8372L26.4548 26.8673Z" fill="black" mask="url(#path-5-outside-1_28_4010)"/>
</g>
</g>
</g>
<rect x="1.06074" y="1.04982" width="53.9" height="53.9" rx="7.35" stroke="white" stroke-opacity="0.15" stroke-width="2.1"/>
<defs>
<filter id="filter0_d_28_4010" x="2.29646" y="2.28553" width="53.5711" height="53.5713" filterUnits="userSpaceOnUse" color-interpolation-filters="sRGB">
<feFlood flood-opacity="0" result="BackgroundImageFix"/>
<feColorMatrix in="SourceAlpha" type="matrix" values="0 0 0 0 0 0 0 0 0 0 0 0 0 0 0 0 0 0 127 0" result="hardAlpha"/>
<feOffset/>
<feGaussianBlur stdDeviation="2.85714"/>
<feComposite in2="hardAlpha" operator="out"/>
<feColorMatrix type="matrix" values="0 0 0 0 0 0 0 0 0 0 0 0 0 0 0 0 0 0 0.25 0"/>
<feBlend mode="normal" in2="BackgroundImageFix" result="effect1_dropShadow_28_4010"/>
<feBlend mode="normal" in="SourceGraphic" in2="effect1_dropShadow_28_4010" result="shape"/>
</filter>
<linearGradient id="paint0_linear_28_4010" x1="28.0107" y1="-0.000183105" x2="28.0107" y2="55.9998" gradientUnits="userSpaceOnUse">
<stop stop-color="#2C1B1B"/>
<stop offset="1" stop-color="#1F1414"/>
</linearGradient>
<linearGradient id="paint1_linear_28_4010" x1="36.5826" y1="25.143" x2="36.5826" y2="47.9997" gradientUnits="userSpaceOnUse">
<stop stop-color="#FF0000"/>
<stop offset="1" stop-color="#CC0000"/>
</linearGradient>
<clipPath id="clip0_28_4010">
<rect x="0.0107422" y="-0.000183105" width="56" height="56" rx="8.4" fill="white"/>
</clipPath>
<clipPath id="clip1_28_4010">
<rect width="40" height="40" fill="white" transform="translate(8.01074 7.99982)"/>
</clipPath>
</defs>
</svg>
