<svg width="187" height="56" viewBox="0 0 187 56" fill="none" xmlns="http://www.w3.org/2000/svg">
<rect y="-0.000244141" width="187" height="56" rx="8" fill="url(#paint0_linear_8_96)"/>
<rect x="1.05" y="1.04976" width="184.9" height="53.9" rx="6.95" stroke="white" stroke-opacity="0.15" stroke-width="2.1"/>
<g filter="url(#filter0_d_8_96)">
<path d="M47.0264 26.1997C46.8483 26.1891 46.6706 26.2266 46.5118 26.3082C46.353 26.3898 46.219 26.5125 46.1235 26.6636C45.7639 26.4374 44.7883 25.962 44.4096 25.7665L44.2719 25.6974C44.261 25.6928 44.2493 25.6904 44.2374 25.6904C44.2256 25.6904 44.2139 25.6928 44.203 25.6974V25.6744C44.205 25.6464 44.205 25.6182 44.203 25.5901C44.5856 17.6997 36.6165 11.5691 28.8998 13.9423C27.0534 14.5309 25.3749 15.5551 24.0055 16.9288C22.6361 18.3025 21.6157 19.9856 21.0302 21.8366C20.7156 22.9851 20.5485 24.1691 20.5328 25.36L20.2421 25.4751L20.0317 25.5633C19.6491 25.7319 19.2665 25.9121 18.8839 26.1077C18.5014 26.3032 18.1188 26.4911 17.7706 26.7326C17.7462 26.7478 17.7281 26.7713 17.7197 26.7988C17.7112 26.8263 17.713 26.8559 17.7247 26.8822C17.7387 26.9099 17.7627 26.9312 17.7918 26.9419C17.821 26.9526 17.853 26.9518 17.8816 26.9397C18.2642 26.7633 18.6467 26.6061 19.0293 26.4604C19.4119 26.3147 19.8136 26.1844 20.2115 26.077H20.2344C20.4257 26.0195 20.617 25.9697 20.8121 25.9198L21.1105 25.8508H21.145L21.4128 25.7933C21.8145 25.7051 22.22 25.6514 22.6256 25.6016H22.6715C22.7288 25.5932 22.7839 25.5729 22.833 25.542C22.8821 25.5111 22.9242 25.4702 22.9567 25.4221C22.9892 25.3739 23.0113 25.3195 23.0216 25.2623C23.0319 25.2051 23.0301 25.1464 23.0165 25.0899C23.0029 25.0334 22.9777 24.9804 22.9424 24.9342C22.9072 24.888 22.8627 24.8497 22.8119 24.8218C22.7611 24.7938 22.705 24.7767 22.6472 24.7717C22.5894 24.7667 22.5312 24.7738 22.4763 24.7926C22.0938 24.8846 21.7112 24.9843 21.363 25.1032L21.4357 25.0802C21.4578 24.0187 21.6107 22.964 21.891 21.9401C22.4335 20.2321 23.3767 18.6793 24.6414 17.4118C25.9062 16.1443 27.4556 15.1991 29.16 14.6555C29.4664 14.5621 29.7766 14.4815 30.0897 14.4139C30.3919 14.3487 31.6009 14.1762 30.281 14.9162C28.0873 16.1801 26.4484 18.2249 25.69 20.6442C25.3074 21.8826 25.1582 24.3249 25.426 26.1997C25.5102 26.7863 25.3113 26.9013 24.9478 27.0547C24.1826 27.3806 22.8436 27.971 22.155 28.8068C21.8872 29.1289 21.7724 28.8068 21.7074 28.5768C21.5734 27.9456 21.4915 27.3044 21.4625 26.6598C21.4611 26.632 21.4536 26.6049 21.4404 26.5804C21.4273 26.5559 21.4089 26.5347 21.3866 26.5182C21.3643 26.5017 21.3386 26.4903 21.3113 26.485C21.2841 26.4796 21.256 26.4804 21.2291 26.4873C21.0417 26.5333 20.8466 26.5793 20.6706 26.6406C20.6327 26.6537 20.5999 26.6787 20.5772 26.7118C20.5545 26.7449 20.543 26.7845 20.5443 26.8246C20.6514 29.2899 21.275 31.5827 22.7671 31.5098C22.7955 31.5077 22.8232 31.4996 22.8482 31.4858C22.8732 31.4721 22.895 31.4531 22.9121 31.4302C22.9291 31.4073 22.941 31.381 22.9471 31.353C22.9531 31.3251 22.953 31.2962 22.9469 31.2683C22.7137 31.1421 22.5312 30.9389 22.4304 30.6932C21.9369 29.2132 26.5126 27.2771 32.3775 26.3991C37.7642 25.5901 42.3896 25.9582 43.193 27.1889C43.359 27.3997 43.3774 27.6911 43.2389 27.9212C42.9004 28.5304 42.3945 29.0294 41.7813 29.3589C41.7556 29.3745 41.7334 29.3952 41.7159 29.4197C41.6984 29.4442 41.6861 29.472 41.6797 29.5014C41.6732 29.5307 41.6728 29.5611 41.6784 29.5907C41.6841 29.6203 41.6956 29.6484 41.7124 29.6733C41.7416 29.7191 41.7868 29.7523 41.8392 29.7665C41.8915 29.7807 41.9473 29.7748 41.9955 29.75C42.7459 29.3822 43.3714 28.8007 43.7936 28.0784C44.0315 27.5362 44.1614 26.9528 44.1762 26.3607C44.5588 26.4796 45.5688 26.886 45.9552 27.0432H45.9858C45.9697 27.1073 45.9595 27.1727 45.9552 27.2387C45.9441 27.5225 46.0418 27.7997 46.2282 28.0136C46.4146 28.2274 46.6755 28.3617 46.9576 28.3889C47.0904 28.3951 47.223 28.3748 47.348 28.3293C47.4729 28.2838 47.5876 28.2139 47.6854 28.1237C47.7832 28.0335 47.8623 27.9248 47.9179 27.8038C47.9736 27.6829 48.0048 27.552 48.0097 27.4189C48.028 27.1345 47.936 26.854 47.7527 26.6361C47.5695 26.4181 47.3092 26.2796 47.0264 26.2495V26.1997ZM39.482 23.7076C39.4847 23.7805 39.4723 23.8531 39.4455 23.921C39.4187 23.9888 39.3781 24.0502 39.3262 24.1015C39.2744 24.1527 39.2125 24.1925 39.1445 24.2184C39.0764 24.2444 39.0038 24.2558 38.9311 24.252C37.6438 24.1524 36.35 24.1755 35.067 24.321C34.9934 24.327 34.9194 24.3173 34.8498 24.2927C34.7802 24.268 34.7166 24.2288 34.6631 24.1778C34.6097 24.1267 34.5676 24.065 34.5396 23.9965C34.5116 23.928 34.4984 23.8544 34.5008 23.7804V23.328C34.5012 23.2726 34.5203 23.2189 34.5551 23.1757C34.5898 23.1325 34.6381 23.1024 34.6921 23.0903C36.2106 22.8364 37.759 22.8183 39.283 23.0366C39.3377 23.0459 39.3873 23.0746 39.4224 23.1176C39.4576 23.1606 39.476 23.2149 39.4743 23.2705L39.482 23.7076ZM42.183 22.4232C42.1579 22.462 42.1202 22.4909 42.0762 22.5048C42.0322 22.5188 41.9848 22.5171 41.942 22.4999C38.6059 21.2308 33.399 21.9478 33.399 21.9478C31.6131 22.1258 29.8571 22.5303 28.1729 23.1516C28.0825 23.1864 27.9848 23.1982 27.8887 23.186C27.7926 23.1739 27.7009 23.1382 27.6218 23.0821C27.5428 23.026 27.4787 22.9512 27.4354 22.8643C27.392 22.7775 27.3707 22.6813 27.3734 22.5842C27.3868 22.1253 27.4329 21.6679 27.5111 21.2155C27.6801 19.9777 28.1783 18.8084 28.9534 17.83C28.9993 17.7763 29.0452 17.7227 29.095 17.6728C29.103 17.6584 29.1133 17.6455 29.1256 17.6345L29.1485 17.6077L29.2059 17.5463L29.2327 17.5195C31.5014 15.1424 35.4917 14.8702 38.2922 16.4191C39.6925 17.2091 40.8533 18.3644 41.6512 19.7624C41.7736 19.9924 42.5464 21.7829 42.183 22.4232Z" fill="#0C9EF0"/>
<path d="M40.4079 19.448C39.7751 18.3665 38.8101 17.5191 37.6571 17.0326C36.3713 16.4904 34.9712 16.2769 33.5827 16.4115C33.0895 16.4503 32.6041 16.5574 32.1403 16.7297C32.0955 16.7426 32.0567 16.7712 32.0311 16.8103C32.0055 16.8494 31.9948 16.8964 32.0008 16.9428C32.0068 16.9892 32.0292 17.0319 32.0639 17.0631C32.0987 17.0944 32.1434 17.1121 32.1901 17.1131C33.2362 17.0024 34.2923 17.0308 35.331 17.1974C39.1568 17.9642 40.3811 19.8084 40.515 19.8813C40.5532 19.9004 40.5992 19.8621 40.58 19.8238C40.5306 19.6931 40.4744 19.5651 40.4117 19.4403M23.2989 26.1384C23.3314 26.1841 23.3734 26.2222 23.4221 26.2499C23.4709 26.2775 23.525 26.2941 23.5809 26.2985C23.6367 26.3029 23.6928 26.295 23.7452 26.2752C23.7977 26.2555 23.8451 26.2245 23.8843 26.1844C24.0116 26.056 24.1049 25.8979 24.1559 25.7243C24.2732 25.2786 24.245 24.8071 24.0756 24.3786C23.9665 24.1051 23.7683 23.8767 23.5132 23.7306C23.4901 23.716 23.4644 23.7061 23.4374 23.7015C23.4105 23.6969 23.3829 23.6976 23.3563 23.7038C23.1994 23.7564 23.0646 23.8604 22.9737 23.999C22.9625 24.0132 22.9544 24.0296 22.95 24.0471C22.9456 24.0647 22.945 24.083 22.9482 24.1008C22.9515 24.1186 22.9585 24.1355 22.9689 24.1504C22.9792 24.1652 22.9926 24.1777 23.0082 24.1869C23.1616 24.268 23.2947 24.383 23.3974 24.5231C23.5001 24.6632 23.5698 24.8249 23.6012 24.9959C23.623 25.171 23.6073 25.3488 23.5552 25.5173C23.5031 25.6859 23.4157 25.8414 23.2989 25.9735C23.2793 25.9965 23.2685 26.0257 23.2685 26.056C23.2685 26.0862 23.2793 26.1154 23.2989 26.1384ZM16.1447 26.6982C15.9812 26.6846 15.8167 26.7036 15.6606 26.7542C15.5045 26.8048 15.36 26.886 15.2354 26.993C15.1109 27.0999 15.0088 27.2306 14.935 27.3775C14.8612 27.5243 14.8173 27.6844 14.8057 27.8484C14.8003 28.1919 14.928 28.5241 15.1621 28.7751C15.3961 29.0261 15.7182 29.1763 16.0605 29.1941C16.3846 29.2175 16.7048 29.1125 16.9524 28.9017C17.1999 28.6909 17.355 28.3911 17.3843 28.0669C17.3979 27.7215 17.2756 27.3845 17.0438 27.1285C16.8119 26.8725 16.4891 26.718 16.1447 26.6982Z" fill="#0C9EF0"/>
<path d="M51.9885 28.0401C51.9893 18.6689 45.5084 10.5493 36.3858 8.49115C27.2624 6.43304 17.9352 10.9871 13.9292 19.4545C9.92318 27.922 12.3082 38.0411 19.6721 43.8171L20.0546 44.12C20.1847 44.2197 20.3186 44.3155 20.4372 44.4114C22.4923 45.8686 24.8043 46.9224 27.2509 47.5169H27.3083L27.6488 47.5974L27.7521 47.6166L28.0735 47.6856L28.1997 47.7086L28.5135 47.7661L28.6359 47.7891C28.8425 47.8225 29.0491 47.8532 29.2557 47.8811L29.3781 47.9003L29.6115 47.9272L29.8487 47.954L30.0706 47.977L30.3269 48H33.4832L33.7012 47.9808L33.9805 47.9578L34.2101 47.931L34.4779 47.9003L34.7112 47.8696L34.9676 47.8313L35.2048 47.793L35.4534 47.7546L35.6945 47.7086L35.9393 47.6626L36.1803 47.6089L36.4175 47.5591L36.6586 47.5016L36.8919 47.4441L37.1865 47.4019L37.4084 47.3405L37.6571 47.2715L37.8752 47.2064L38.12 47.1258C38.1927 47.1067 38.2642 47.0837 38.3343 47.0568L38.5829 46.9725L38.7895 46.8996L39.0382 46.8076L39.2371 46.7309L39.482 46.6351L39.6733 46.5584L39.9258 46.4511L40.1133 46.3705L40.3658 46.2555L40.5456 46.1712L40.7981 46.0485L40.9702 45.9603L41.2227 45.8338L41.3911 45.7418C41.4791 45.6996 41.5632 45.6536 41.6436 45.6076L41.8081 45.5156L42.0606 45.3699L42.2136 45.2778L42.4699 45.1245L42.6153 45.0325L42.8716 44.8714L43.0094 44.7794L43.2657 44.6069L43.3958 44.5187L43.6559 44.3347L43.7745 44.2465L44.0385 44.051L44.1456 43.9704L44.4134 43.7634L44.5091 43.6829L44.7807 43.4644L44.8611 43.3915L45.1403 43.1576L45.2054 43.1001L45.4923 42.8394L45.5344 42.8049L45.8366 42.5173C47.788 40.6494 49.3405 38.4036 50.4 35.9164C51.4594 33.4291 52.0038 30.7521 52 28.0477M38.0856 34.7496C38.0588 34.5272 38.032 34.301 37.9976 34.0787C37.9632 33.8563 37.9326 33.6339 37.8905 33.4154C37.8484 33.1968 37.814 32.9745 37.7719 32.7559C37.7298 32.5374 37.6762 32.315 37.6227 32.1156C37.6071 32.0429 37.6191 31.967 37.6563 31.9027C37.6936 31.8384 37.7534 31.7903 37.8241 31.7678C37.8948 31.7453 37.9714 31.75 38.0388 31.781C38.1063 31.812 38.1598 31.867 38.1889 31.9354C38.273 32.1731 38.3304 32.3879 38.3916 32.6179C38.4529 32.8479 38.5064 33.0665 38.5562 33.2927C38.6518 33.7489 38.7283 34.2013 38.801 34.6576C38.8928 35.2557 38.954 35.8576 39.0038 36.4558C39.3864 36.4749 39.7957 36.5018 40.1898 36.5401C41.2584 36.65 42.3124 36.8723 43.3346 37.2034C43.3974 37.2265 43.4494 37.2721 43.4808 37.3313C43.5122 37.3906 43.5206 37.4594 43.5045 37.5244C43.4883 37.5895 43.4488 37.6464 43.3935 37.6841C43.3381 37.7217 43.2708 37.7376 43.2045 37.7286H43.1854C42.6727 37.6405 42.1754 37.5178 41.655 37.4603L41.2725 37.4028L41.0812 37.3759H40.8899L40.1247 37.3031C39.9947 37.2839 39.8646 37.3031 39.7422 37.2762L39.3596 37.2532H39.0765V37.4488L39.1071 38.1351V40.2054C39.1071 40.6655 39.0726 41.1218 39.0573 41.578C39.042 42.0343 38.9923 42.4943 38.9502 42.9506C38.9393 43.0237 38.9017 43.0902 38.8447 43.1371C38.7877 43.1841 38.7154 43.2083 38.6416 43.2049C38.5679 43.2016 38.4981 43.171 38.4456 43.1191C38.393 43.0672 38.3616 42.9976 38.3572 42.9238C38.3572 42.4713 38.3572 42.0189 38.3802 41.5665C38.4031 41.1141 38.3802 40.6578 38.3802 40.2054C38.3802 39.753 38.3802 39.3006 38.3572 38.852L38.3343 38.1734V37.4334V37.1766H37.0564C36.7963 37.1766 36.5361 37.1996 36.2913 37.2072C36.0464 37.2149 35.771 37.2341 35.5261 37.2571C35.0058 37.2916 34.4855 37.3414 33.969 37.3989C32.9322 37.5178 31.8916 37.6673 30.8778 37.8667C30.8068 37.8803 30.7334 37.8654 30.6733 37.8252C30.6132 37.7851 30.5712 37.7228 30.5564 37.652C30.5443 37.5847 30.5575 37.5152 30.5936 37.4571C30.6296 37.399 30.6859 37.3564 30.7515 37.3376C31.2757 37.1957 31.7883 37.0845 32.3125 36.981C32.8366 36.8775 33.3569 36.7931 33.8849 36.7126C34.145 36.6705 34.4128 36.6436 34.6768 36.6091C34.9408 36.5746 35.2048 36.5478 35.4687 36.5248C35.7327 36.5018 35.9967 36.4749 36.2645 36.4634C36.5323 36.4519 36.7963 36.4251 37.0641 36.4212C37.4849 36.4021 37.9058 36.3982 38.3304 36.4212C38.2845 35.8576 38.231 35.2979 38.1621 34.7419M27.9472 32.0236C27.756 32.6601 27.3083 34.1937 27.0291 35.3937C26.3122 38.8918 25.7898 42.4271 25.4643 45.9833C23.7394 45.3466 22.1166 44.4606 20.6476 43.3532C20.9544 41.0448 21.447 38.7651 22.1206 36.5363C22.3656 35.7274 22.7019 34.9492 23.1229 34.2167C23.4601 33.7243 23.926 33.3343 24.4696 33.0895L24.5691 33.0435L24.7336 32.9515L24.944 32.8441C25.0894 32.7751 25.2309 32.7061 25.3725 32.6447L25.5906 32.5489L25.8048 32.4607L26.2409 32.292C26.6235 32.1501 27.2739 31.9508 27.6794 31.8319C27.8899 31.7706 28.0008 31.8319 27.9472 32.0236ZM44.9873 37.3913C44.3905 35.1637 43.5832 31.6747 41.1998 30.8734C38.6595 30.0069 35.9278 29.9111 33.288 30.0798C31.4088 30.2007 29.5492 30.5338 27.7445 31.0728C26.9449 31.3067 24.3816 32.292 23.8728 32.5527C23.2909 32.8157 22.7921 33.2334 22.4305 33.7604C21.9791 34.545 21.6184 35.3785 21.3554 36.2449C20.7125 38.3802 20.2203 40.5582 19.8825 42.7627C19.4349 42.3793 18.9987 41.9959 18.5817 41.5703C11.1559 34.1308 11.1222 22.0766 18.5067 14.5957C25.8913 7.11473 37.9192 7.01811 45.4227 14.3794C52.9258 21.7408 53.0854 33.7938 45.7792 41.3518C45.6013 40.0171 45.3367 38.6954 44.9873 37.3951" fill="#0C9EF0"/>
</g>
<g filter="url(#filter1_d_8_96)">
<path d="M61.2784 24.4998V12.8634H65.4261C66.3276 12.8634 67.0757 13.0187 67.6704 13.3293C68.2689 13.6399 68.7159 14.0698 69.0113 14.6191C69.3068 15.1645 69.4545 15.7952 69.4545 16.5111C69.4545 17.2232 69.3049 17.8501 69.0056 18.3918C68.7102 18.9297 68.2632 19.3482 67.6647 19.6475C67.07 19.9467 66.3219 20.0963 65.4204 20.0963H62.2784V18.585H65.2613C65.8295 18.585 66.2916 18.5035 66.6477 18.3407C67.0075 18.1778 67.2708 17.941 67.4375 17.6304C67.6041 17.3198 67.6875 16.9467 67.6875 16.5111C67.6875 16.0717 67.6022 15.691 67.4318 15.3691C67.2651 15.0471 67.0019 14.8009 66.642 14.6304C66.286 14.4562 65.8181 14.3691 65.2386 14.3691H63.0341V24.4998H61.2784ZM67.0227 19.2498L69.8977 24.4998H67.8977L65.0795 19.2498H67.0227ZM75.1065 24.6759C74.2467 24.6759 73.5061 24.4922 72.8849 24.1248C72.2675 23.7535 71.7902 23.2327 71.4531 22.5623C71.1198 21.888 70.9531 21.0982 70.9531 20.1929C70.9531 19.299 71.1198 18.5111 71.4531 17.8293C71.7902 17.1475 72.2599 16.6153 72.8622 16.2327C73.4682 15.8501 74.1766 15.6588 74.9872 15.6588C75.4796 15.6588 75.9569 15.7403 76.419 15.9032C76.8811 16.066 77.2959 16.3217 77.6633 16.6702C78.0307 17.0187 78.3205 17.4713 78.5326 18.0282C78.7448 18.5812 78.8508 19.2535 78.8508 20.0452V20.6475H71.9133V19.3748H77.186C77.186 18.9278 77.0951 18.532 76.9133 18.1873C76.7315 17.8388 76.4758 17.5641 76.1463 17.3634C75.8205 17.1626 75.4379 17.0623 74.9985 17.0623C74.5213 17.0623 74.1046 17.1797 73.7485 17.4145C73.3963 17.6456 73.1235 17.9486 72.9304 18.3236C72.741 18.6948 72.6463 19.0982 72.6463 19.5338V20.5282C72.6463 21.1115 72.7485 21.6077 72.9531 22.0168C73.1614 22.4259 73.4512 22.7384 73.8224 22.9543C74.1936 23.1664 74.6273 23.2725 75.1235 23.2725C75.4455 23.2725 75.7391 23.227 76.0042 23.1361C76.2694 23.0414 76.4985 22.9013 76.6917 22.7157C76.8849 22.5301 77.0326 22.3009 77.1349 22.0282L78.7429 22.3179C78.6141 22.7914 78.383 23.2062 78.0497 23.5623C77.7201 23.9145 77.3054 24.1891 76.8054 24.3861C76.3092 24.5793 75.7429 24.6759 75.1065 24.6759ZM87.9517 15.7725L84.7869 24.4998H82.9687L79.7983 15.7725H81.6221L83.8323 22.4884H83.9233L86.1278 15.7725H87.9517ZM89.5483 24.4998V15.7725H91.2471V24.4998H89.5483ZM90.4062 14.4259C90.1108 14.4259 89.857 14.3274 89.6448 14.1304C89.4365 13.9297 89.3323 13.691 89.3323 13.4145C89.3323 13.1342 89.4365 12.8956 89.6448 12.6986C89.857 12.4979 90.1108 12.3975 90.4062 12.3975C90.7017 12.3975 90.9536 12.4979 91.1619 12.6986C91.374 12.8956 91.4801 13.1342 91.4801 13.4145C91.4801 13.691 91.374 13.9297 91.1619 14.1304C90.9536 14.3274 90.7017 14.4259 90.4062 14.4259ZM97.294 24.6759C96.4341 24.6759 95.6936 24.4922 95.0724 24.1248C94.455 23.7535 93.9777 23.2327 93.6406 22.5623C93.3073 21.888 93.1406 21.0982 93.1406 20.1929C93.1406 19.299 93.3073 18.5111 93.6406 17.8293C93.9777 17.1475 94.4474 16.6153 95.0497 16.2327C95.6557 15.8501 96.3641 15.6588 97.1747 15.6588C97.6671 15.6588 98.1444 15.7403 98.6065 15.9032C99.0686 16.066 99.4834 16.3217 99.8508 16.6702C100.218 17.0187 100.508 17.4713 100.72 18.0282C100.932 18.5812 101.038 19.2535 101.038 20.0452V20.6475H94.1008V19.3748H99.3735C99.3735 18.9278 99.2826 18.532 99.1008 18.1873C98.919 17.8388 98.6633 17.5641 98.3338 17.3634C98.008 17.1626 97.6254 17.0623 97.186 17.0623C96.7088 17.0623 96.2921 17.1797 95.936 17.4145C95.5838 17.6456 95.311 17.9486 95.1179 18.3236C94.9285 18.6948 94.8338 19.0982 94.8338 19.5338V20.5282C94.8338 21.1115 94.936 21.6077 95.1406 22.0168C95.3489 22.4259 95.6387 22.7384 96.0099 22.9543C96.3811 23.1664 96.8148 23.2725 97.311 23.2725C97.633 23.2725 97.9266 23.227 98.1917 23.1361C98.4569 23.0414 98.686 22.9013 98.8792 22.7157C99.0724 22.5301 99.2201 22.3009 99.3224 22.0282L100.93 22.3179C100.802 22.7914 100.571 23.2062 100.237 23.5623C99.9076 23.9145 99.4929 24.1891 98.9929 24.3861C98.4966 24.5793 97.9304 24.6759 97.294 24.6759ZM104.8 24.4998L102.231 15.7725H103.987L105.697 22.1816H105.783L107.499 15.7725H109.254L110.959 22.1532H111.044L112.743 15.7725H114.499L111.936 24.4998H110.203L108.43 18.1986H108.3L106.527 24.4998H104.8ZM124.021 24.6759C123.203 24.6759 122.489 24.4884 121.879 24.1134C121.269 23.7384 120.796 23.2138 120.459 22.5395C120.122 21.8653 119.953 21.0774 119.953 20.1759C119.953 19.2706 120.122 18.4789 120.459 17.8009C120.796 17.1229 121.269 16.5963 121.879 16.2213C122.489 15.8463 123.203 15.6588 124.021 15.6588C124.839 15.6588 125.553 15.8463 126.163 16.2213C126.773 16.5963 127.247 17.1229 127.584 17.8009C127.921 18.4789 128.089 19.2706 128.089 20.1759C128.089 21.0774 127.921 21.8653 127.584 22.5395C127.247 23.2138 126.773 23.7384 126.163 24.1134C125.553 24.4884 124.839 24.6759 124.021 24.6759ZM124.027 23.2498C124.557 23.2498 124.997 23.1096 125.345 22.8293C125.694 22.549 125.951 22.1759 126.118 21.71C126.288 21.2441 126.374 20.7308 126.374 20.1702C126.374 19.6134 126.288 19.102 126.118 18.6361C125.951 18.1664 125.694 17.7895 125.345 17.5054C124.997 17.2213 124.557 17.0793 124.027 17.0793C123.493 17.0793 123.05 17.2213 122.697 17.5054C122.349 17.7895 122.089 18.1664 121.919 18.6361C121.752 19.102 121.669 19.6134 121.669 20.1702C121.669 20.7308 121.752 21.2441 121.919 21.71C122.089 22.1759 122.349 22.549 122.697 22.8293C123.05 23.1096 123.493 23.2498 124.027 23.2498ZM131.685 19.3179V24.4998H129.986V15.7725H131.616V17.1929H131.724C131.925 16.7308 132.24 16.3596 132.668 16.0793C133.099 15.799 133.643 15.6588 134.298 15.6588C134.893 15.6588 135.414 15.7838 135.861 16.0338C136.308 16.2801 136.654 16.6475 136.901 17.1361C137.147 17.6248 137.27 18.2289 137.27 18.9486V24.4998H135.571V19.1532C135.571 18.5206 135.406 18.0263 135.077 17.6702C134.747 17.3104 134.294 17.1304 133.719 17.1304C133.325 17.1304 132.974 17.2157 132.668 17.3861C132.365 17.5566 132.124 17.8066 131.946 18.1361C131.772 18.4619 131.685 18.8558 131.685 19.3179Z" fill="#E8E8E8"/>
<path d="M63.6101 43.4998H60.3984L64.5699 31.1361H68.5483L72.7198 43.4998H69.5081L66.6044 34.2512H66.5078L63.6101 43.4998ZM63.1814 38.634H69.8945V40.9039H63.1814V38.634ZM77.003 31.1361V43.4998H74.0509V31.1361H77.003ZM84.116 34.227V36.4003H78.2662V34.227H84.116ZM79.4917 32.0054H82.4438V40.5839C82.4438 40.765 82.4719 40.9119 82.5283 41.0246C82.5887 41.1333 82.6752 41.2118 82.7879 41.2601C82.9006 41.3043 83.0354 41.3265 83.1923 41.3265C83.305 41.3265 83.4238 41.3164 83.5485 41.2963C83.6773 41.2721 83.7739 41.252 83.8383 41.2359L84.285 43.3669C84.1442 43.4072 83.9449 43.4575 83.6874 43.5179C83.4338 43.5782 83.13 43.6165 82.7758 43.6326C82.0836 43.6648 81.4899 43.5843 80.9949 43.3911C80.5039 43.1939 80.1276 42.888 79.866 42.4735C79.6084 42.0589 79.4837 41.5377 79.4917 40.9099V32.0054ZM89.8571 43.6748C88.8872 43.6748 88.0501 43.4837 87.3458 43.1013C86.6455 42.715 86.1062 42.1656 85.7279 41.4532C85.3536 40.7368 85.1664 39.8856 85.1664 38.8996C85.1664 37.9418 85.3556 37.1046 85.7339 36.3882C86.1122 35.6678 86.6455 35.1084 87.3337 34.71C88.0219 34.3075 88.8329 34.1063 89.7666 34.1063C90.4266 34.1063 91.0303 34.2089 91.5776 34.4142C92.125 34.6194 92.5979 34.9233 92.9963 35.3257C93.3948 35.7282 93.7047 36.2253 93.926 36.8169C94.1474 37.4045 94.258 38.0786 94.258 38.8392V39.5757H86.1987V37.8613H91.5112C91.5072 37.5473 91.4328 37.2676 91.2879 37.0221C91.143 36.7766 90.9438 36.5855 90.6902 36.4486C90.4407 36.3078 90.1529 36.2373 89.8269 36.2373C89.4969 36.2373 89.2011 36.3118 88.9395 36.4607C88.6779 36.6056 88.4706 36.8048 88.3177 37.0583C88.1648 37.3079 88.0843 37.5916 88.0762 37.9096V39.6542C88.0762 40.0325 88.1507 40.3646 88.2996 40.6503C88.4485 40.932 88.6598 41.1514 88.9335 41.3083C89.2071 41.4653 89.5331 41.5438 89.9114 41.5438C90.173 41.5438 90.4105 41.5076 90.6238 41.4351C90.8371 41.3627 91.0202 41.256 91.1732 41.1152C91.3261 40.9743 91.4408 40.8012 91.5173 40.596L94.2279 40.6745C94.1152 41.2822 93.8677 41.8114 93.4853 42.2622C93.107 42.7089 92.61 43.057 91.9942 43.3066C91.3784 43.5521 90.6661 43.6748 89.8571 43.6748ZM95.7658 43.4998V34.227H98.6333V35.9174H98.7299C98.8989 35.3056 99.1746 34.8508 99.557 34.553C99.9393 34.2512 100.384 34.1003 100.891 34.1003C101.028 34.1003 101.169 34.1103 101.314 34.1304C101.459 34.1465 101.593 34.1727 101.718 34.2089V36.7746C101.577 36.7263 101.392 36.6881 101.163 36.6599C100.937 36.6317 100.736 36.6177 100.559 36.6177C100.209 36.6177 99.893 36.6961 99.6113 36.8531C99.3336 37.006 99.1142 37.2213 98.9533 37.499C98.7963 37.7727 98.7178 38.0947 98.7178 38.465V43.4998H95.7658ZM105.873 38.2114V43.4998H102.921V34.227H105.728V35.9294H105.831C106.036 35.362 106.386 34.9172 106.881 34.5953C107.376 34.2693 107.966 34.1063 108.65 34.1063C109.302 34.1063 109.868 34.2532 110.346 34.547C110.829 34.8368 111.204 35.2432 111.469 35.7664C111.739 36.2856 111.872 36.8933 111.868 37.5896V43.4998H108.916V38.1691C108.92 37.654 108.789 37.2515 108.523 36.9618C108.262 36.672 107.897 36.5271 107.431 36.5271C107.121 36.5271 106.847 36.5955 106.61 36.7324C106.376 36.8652 106.195 37.0563 106.066 37.3059C105.942 37.5554 105.877 37.8572 105.873 38.2114ZM116.309 43.6567C115.718 43.6567 115.193 43.5581 114.734 43.3609C114.279 43.1597 113.919 42.8578 113.653 42.4554C113.392 42.0489 113.261 41.5398 113.261 40.928C113.261 40.4129 113.351 39.9782 113.532 39.624C113.714 39.2699 113.963 38.9821 114.281 38.7608C114.599 38.5394 114.965 38.3724 115.38 38.2597C115.794 38.143 116.237 38.0645 116.708 38.0243C117.235 37.976 117.66 37.9257 117.982 37.8733C118.304 37.817 118.537 37.7385 118.682 37.6379C118.831 37.5333 118.905 37.3864 118.905 37.1972V37.167C118.905 36.8571 118.799 36.6177 118.585 36.4486C118.372 36.2796 118.084 36.1951 117.722 36.1951C117.332 36.1951 117.018 36.2796 116.78 36.4486C116.543 36.6177 116.392 36.8511 116.328 37.1489L113.605 37.0523C113.685 36.4889 113.893 35.9858 114.227 35.5431C114.565 35.0963 115.028 34.7462 115.615 34.4927C116.207 34.2351 116.917 34.1063 117.746 34.1063C118.338 34.1063 118.883 34.1767 119.382 34.3176C119.881 34.4544 120.316 34.6556 120.686 34.9213C121.056 35.1829 121.342 35.5048 121.543 35.8872C121.749 36.2695 121.851 36.7062 121.851 37.1972V43.4998H119.074V42.2078H119.002C118.837 42.5218 118.626 42.7874 118.368 43.0047C118.114 43.2221 117.815 43.385 117.469 43.4937C117.126 43.6024 116.74 43.6567 116.309 43.6567ZM117.221 41.7249C117.539 41.7249 117.825 41.6605 118.078 41.5317C118.336 41.4029 118.541 41.2258 118.694 41.0005C118.847 40.7711 118.923 40.5054 118.923 40.2036V39.3222C118.839 39.3665 118.736 39.4067 118.616 39.4429C118.499 39.4792 118.37 39.5134 118.229 39.5456C118.088 39.5778 117.943 39.6059 117.795 39.6301C117.646 39.6542 117.503 39.6764 117.366 39.6965C117.088 39.7408 116.851 39.8092 116.654 39.9017C116.46 39.9943 116.311 40.115 116.207 40.264C116.106 40.4088 116.056 40.5819 116.056 40.7831C116.056 41.089 116.165 41.3224 116.382 41.4834C116.603 41.6444 116.883 41.7249 117.221 41.7249ZM128.89 34.227V36.4003H123.041V34.227H128.89ZM124.266 32.0054H127.218V40.5839C127.218 40.765 127.246 40.9119 127.303 41.0246C127.363 41.1333 127.45 41.2118 127.562 41.2601C127.675 41.3043 127.81 41.3265 127.967 41.3265C128.079 41.3265 128.198 41.3164 128.323 41.2963C128.452 41.2721 128.548 41.252 128.613 41.2359L129.059 43.3669C128.919 43.4072 128.719 43.4575 128.462 43.5179C128.208 43.5782 127.904 43.6165 127.55 43.6326C126.858 43.6648 126.264 43.5843 125.769 43.3911C125.278 43.1939 124.902 42.888 124.64 42.4735C124.383 42.0589 124.258 41.5377 124.266 40.9099V32.0054ZM130.397 43.4998V34.227H133.349V43.4998H130.397ZM131.876 33.1464C131.461 33.1464 131.105 33.0096 130.807 32.7359C130.509 32.4582 130.36 32.1242 130.36 31.7338C130.36 31.3474 130.509 31.0174 130.807 30.7437C131.105 30.466 131.461 30.3272 131.876 30.3272C132.294 30.3272 132.65 30.466 132.944 30.7437C133.242 31.0174 133.391 31.3474 133.391 31.7338C133.391 32.1242 133.242 32.4582 132.944 32.7359C132.65 33.0096 132.294 33.1464 131.876 33.1464ZM144.223 34.227L141.041 43.4998H137.661L134.485 34.227H137.594L139.303 40.6141H139.399L141.114 34.227H144.223ZM149.39 43.6748C148.42 43.6748 147.583 43.4837 146.879 43.1013C146.179 42.715 145.639 42.1656 145.261 41.4532C144.887 40.7368 144.7 39.8856 144.7 38.8996C144.7 37.9418 144.889 37.1046 145.267 36.3882C145.645 35.6678 146.179 35.1084 146.867 34.71C147.555 34.3075 148.366 34.1063 149.3 34.1063C149.96 34.1063 150.563 34.2089 151.111 34.4142C151.658 34.6194 152.131 34.9233 152.53 35.3257C152.928 35.7282 153.238 36.2253 153.459 36.8169C153.681 37.4045 153.791 38.0786 153.791 38.8392V39.5757H145.732V37.8613H151.044C151.04 37.5473 150.966 37.2676 150.821 37.0221C150.676 36.7766 150.477 36.5855 150.223 36.4486C149.974 36.3078 149.686 36.2373 149.36 36.2373C149.03 36.2373 148.734 36.3118 148.473 36.4607C148.211 36.6056 148.004 36.8048 147.851 37.0583C147.698 37.3079 147.617 37.5916 147.609 37.9096V39.6542C147.609 40.0325 147.684 40.3646 147.833 40.6503C147.982 40.932 148.193 41.1514 148.467 41.3083C148.74 41.4653 149.066 41.5438 149.445 41.5438C149.706 41.5438 149.944 41.5076 150.157 41.4351C150.37 41.3627 150.553 41.256 150.706 41.1152C150.859 40.9743 150.974 40.8012 151.05 40.596L153.761 40.6745C153.648 41.2822 153.401 41.8114 153.018 42.2622C152.64 42.7089 152.143 43.057 151.527 43.3066C150.912 43.5521 150.199 43.6748 149.39 43.6748ZM154.031 33.563V31.1361H164.481V33.563H160.732V43.4998H157.786V33.563H154.031ZM168.924 43.6748C167.95 43.6748 167.113 43.4756 166.413 43.0772C165.717 42.6747 165.179 42.1153 164.801 41.3989C164.427 40.6785 164.24 39.8434 164.24 38.8936C164.24 37.9397 164.427 37.1046 164.801 36.3882C165.179 35.6678 165.717 35.1084 166.413 34.71C167.113 34.3075 167.95 34.1063 168.924 34.1063C169.898 34.1063 170.733 34.3075 171.43 34.71C172.13 35.1084 172.667 35.6678 173.041 36.3882C173.42 37.1046 173.609 37.9397 173.609 38.8936C173.609 39.8434 173.42 40.6785 173.041 41.3989C172.667 42.1153 172.13 42.6747 171.43 43.0772C170.733 43.4756 169.898 43.6748 168.924 43.6748ZM168.942 41.4472C169.297 41.4472 169.596 41.3385 169.842 41.1212C170.087 40.9039 170.275 40.602 170.403 40.2157C170.536 39.8293 170.603 39.3826 170.603 38.8755C170.603 38.3603 170.536 37.9096 170.403 37.5232C170.275 37.1368 170.087 36.835 169.842 36.6177C169.596 36.4003 169.297 36.2917 168.942 36.2917C168.576 36.2917 168.266 36.4003 168.013 36.6177C167.763 36.835 167.572 37.1368 167.439 37.5232C167.31 37.9096 167.246 38.3603 167.246 38.8755C167.246 39.3826 167.31 39.8293 167.439 40.2157C167.572 40.602 167.763 40.9039 168.013 41.1212C168.266 41.3385 168.576 41.4472 168.942 41.4472Z" fill="#0C9EF0"/>
</g>
<defs>
<filter id="filter0_d_8_96" x="6.28571" y="2.28547" width="51.4286" height="51.4288" filterUnits="userSpaceOnUse" color-interpolation-filters="sRGB">
<feFlood flood-opacity="0" result="BackgroundImageFix"/>
<feColorMatrix in="SourceAlpha" type="matrix" values="0 0 0 0 0 0 0 0 0 0 0 0 0 0 0 0 0 0 127 0" result="hardAlpha"/>
<feOffset/>
<feGaussianBlur stdDeviation="2.85714"/>
<feComposite in2="hardAlpha" operator="out"/>
<feColorMatrix type="matrix" values="0 0 0 0 0 0 0 0 0 0 0 0 0 0 0 0 0 0 0.25 0"/>
<feBlend mode="normal" in2="BackgroundImageFix" result="effect1_dropShadow_8_96"/>
<feBlend mode="normal" in="SourceGraphic" in2="effect1_dropShadow_8_96" result="shape"/>
</filter>
<filter id="filter1_d_8_96" x="54.4" y="3.89976" width="126.2" height="48.2" filterUnits="userSpaceOnUse" color-interpolation-filters="sRGB">
<feFlood flood-opacity="0" result="BackgroundImageFix"/>
<feColorMatrix in="SourceAlpha" type="matrix" values="0 0 0 0 0 0 0 0 0 0 0 0 0 0 0 0 0 0 127 0" result="hardAlpha"/>
<feOffset/>
<feGaussianBlur stdDeviation="2.8"/>
<feComposite in2="hardAlpha" operator="out"/>
<feColorMatrix type="matrix" values="0 0 0 0 0 0 0 0 0 0 0 0 0 0 0 0 0 0 0.25 0"/>
<feBlend mode="normal" in2="BackgroundImageFix" result="effect1_dropShadow_8_96"/>
<feBlend mode="normal" in="SourceGraphic" in2="effect1_dropShadow_8_96" result="shape"/>
</filter>
<linearGradient id="paint0_linear_8_96" x1="93.5" y1="-0.000244141" x2="93.5" y2="55.9997" gradientUnits="userSpaceOnUse">
<stop stop-color="#152531"/>
<stop offset="1" stop-color="#0C161C"/>
</linearGradient>
</defs>
</svg>
