<svg width="168" height="56" viewBox="0 0 168 56" fill="none" xmlns="http://www.w3.org/2000/svg">
<rect y="-0.000152588" width="168" height="56" rx="8" fill="url(#paint0_linear_28_569)"/>
<g filter="url(#filter0_d_28_569)">
<path d="M47.3792 20.9229C47.1451 21.1029 43.0123 23.4112 43.0123 28.5437C43.0123 34.4803 48.2712 36.5805 48.4286 36.6325C48.4044 36.7605 47.5931 39.5088 45.6558 42.309C43.9284 44.7733 42.1243 47.2335 39.3798 47.2335C36.6354 47.2335 35.9291 45.6534 32.7608 45.6534C29.6732 45.6534 28.5755 47.2855 26.0651 47.2855C23.5547 47.2855 21.803 45.0053 19.7891 42.205C17.4563 38.9167 15.5714 33.8082 15.5714 28.9597C15.5714 21.1829 20.673 17.0585 25.6937 17.0585C28.3615 17.0585 30.5854 18.7947 32.2603 18.7947C33.8546 18.7947 36.3407 16.9545 39.3758 16.9545C40.5261 16.9545 44.6589 17.0585 47.3792 20.9229V20.9229ZM37.935 13.6622C39.1902 12.186 40.0781 10.1378 40.0781 8.08963C40.0781 7.8056 40.0539 7.51758 40.0014 7.28555C37.9592 7.36156 35.5295 8.63369 34.0644 10.3179C32.9142 11.614 31.8406 13.6622 31.8406 15.7384C31.8406 16.0504 31.8931 16.3625 31.9173 16.4625C32.0464 16.4865 32.2563 16.5145 32.4662 16.5145C34.2985 16.5145 36.6031 15.2984 37.935 13.6622Z" fill="white"/>
</g>
<g filter="url(#filter1_d_28_569)">
<path d="M66.2613 24.4998H64.3977L68.5852 12.8635H70.6136L74.8011 24.4998H72.9375L69.6477 14.9771H69.5568L66.2613 24.4998ZM66.5738 19.943H72.6193V21.4203H66.5738V19.943ZM82.7173 15.7726L79.5525 24.4998H77.7343L74.5639 15.7726H76.3878L78.598 22.4885H78.6889L80.8934 15.7726H82.7173ZM86.6037 24.693C86.0506 24.693 85.5506 24.5908 85.1037 24.3862C84.6567 24.1779 84.3025 23.8767 84.0412 23.4828C83.7836 23.0889 83.6548 22.6059 83.6548 22.0339C83.6548 21.5415 83.7495 21.1362 83.9389 20.818C84.1283 20.4998 84.384 20.248 84.7059 20.0623C85.0279 19.8767 85.3877 19.7366 85.7855 19.6419C86.1832 19.5472 86.5885 19.4752 87.0014 19.426C87.5241 19.3654 87.9484 19.3161 88.2741 19.2783C88.5999 19.2366 88.8366 19.1703 88.9843 19.0794C89.1321 18.9885 89.2059 18.8408 89.2059 18.6362V18.5964C89.2059 18.1002 89.0658 17.7158 88.7855 17.443C88.509 17.1703 88.0961 17.0339 87.5468 17.0339C86.9749 17.0339 86.5241 17.1608 86.1946 17.4146C85.8688 17.6646 85.6434 17.943 85.5184 18.2498L83.9218 17.8862C84.1112 17.3559 84.3877 16.9279 84.7514 16.6021C85.1188 16.2726 85.5412 16.0339 86.0184 15.8862C86.4957 15.7347 86.9976 15.6589 87.5241 15.6589C87.8726 15.6589 88.2419 15.7006 88.6321 15.7839C89.026 15.8635 89.3934 16.0112 89.7343 16.2271C90.079 16.443 90.3612 16.7517 90.5809 17.1533C90.8006 17.551 90.9105 18.068 90.9105 18.7044V24.4998H89.2514V23.3067H89.1832C89.0734 23.5264 88.9086 23.7423 88.6889 23.9544C88.4692 24.1665 88.187 24.3426 87.8423 24.4828C87.4976 24.6229 87.0847 24.693 86.6037 24.693ZM86.973 23.3294C87.4427 23.3294 87.8442 23.2366 88.1775 23.051C88.5146 22.8654 88.7703 22.6229 88.9446 22.3237C89.1226 22.0207 89.2116 21.6968 89.2116 21.3521V20.2271C89.151 20.2877 89.0336 20.3445 88.8593 20.3976C88.6889 20.4468 88.4938 20.4904 88.2741 20.5283C88.0544 20.5623 87.8404 20.5945 87.6321 20.6248C87.4237 20.6514 87.2495 20.6741 87.1093 20.693C86.7798 20.7347 86.4787 20.8048 86.2059 20.9033C85.937 21.0017 85.7211 21.1438 85.5582 21.3294C85.3991 21.5112 85.3196 21.7536 85.3196 22.0567C85.3196 22.4771 85.4749 22.7953 85.7855 23.0112C86.0961 23.2233 86.4919 23.3294 86.973 23.3294ZM93.1733 24.4998V15.7726H94.8721V24.4998H93.1733ZM94.0312 14.426C93.7358 14.426 93.482 14.3275 93.2698 14.1305C93.0615 13.9298 92.9573 13.6911 92.9573 13.4146C92.9573 13.1343 93.0615 12.8957 93.2698 12.6987C93.482 12.498 93.7358 12.3976 94.0312 12.3976C94.3267 12.3976 94.5786 12.498 94.7869 12.6987C94.999 12.8957 95.1051 13.1343 95.1051 13.4146C95.1051 13.6911 94.999 13.9298 94.7869 14.1305C94.5786 14.3275 94.3267 14.426 94.0312 14.426ZM98.8565 12.8635V24.4998H97.1576V12.8635H98.8565ZM103.682 24.693C103.129 24.693 102.629 24.5908 102.182 24.3862C101.735 24.1779 101.381 23.8767 101.119 23.4828C100.862 23.0889 100.733 22.6059 100.733 22.0339C100.733 21.5415 100.828 21.1362 101.017 20.818C101.206 20.4998 101.462 20.248 101.784 20.0623C102.106 19.8767 102.466 19.7366 102.864 19.6419C103.261 19.5472 103.667 19.4752 104.08 19.426C104.602 19.3654 105.026 19.3161 105.352 19.2783C105.678 19.2366 105.915 19.1703 106.062 19.0794C106.21 18.9885 106.284 18.8408 106.284 18.6362V18.5964C106.284 18.1002 106.144 17.7158 105.864 17.443C105.587 17.1703 105.174 17.0339 104.625 17.0339C104.053 17.0339 103.602 17.1608 103.273 17.4146C102.947 17.6646 102.722 17.943 102.597 18.2498L101 17.8862C101.189 17.3559 101.466 16.9279 101.83 16.6021C102.197 16.2726 102.619 16.0339 103.097 15.8862C103.574 15.7347 104.076 15.6589 104.602 15.6589C104.951 15.6589 105.32 15.7006 105.71 15.7839C106.104 15.8635 106.472 16.0112 106.812 16.2271C107.157 16.443 107.439 16.7517 107.659 17.1533C107.879 17.551 107.989 18.068 107.989 18.7044V24.4998H106.33V23.3067H106.261C106.151 23.5264 105.987 23.7423 105.767 23.9544C105.547 24.1665 105.265 24.3426 104.92 24.4828C104.576 24.6229 104.163 24.693 103.682 24.693ZM104.051 23.3294C104.521 23.3294 104.922 23.2366 105.256 23.051C105.593 22.8654 105.848 22.6229 106.023 22.3237C106.201 22.0207 106.29 21.6968 106.29 21.3521V20.2271C106.229 20.2877 106.112 20.3445 105.937 20.3976C105.767 20.4468 105.572 20.4904 105.352 20.5283C105.133 20.5623 104.919 20.5945 104.71 20.6248C104.502 20.6514 104.328 20.6741 104.187 20.693C103.858 20.7347 103.557 20.8048 103.284 20.9033C103.015 21.0017 102.799 21.1438 102.636 21.3294C102.477 21.5112 102.398 21.7536 102.398 22.0567C102.398 22.4771 102.553 22.7953 102.864 23.0112C103.174 23.2233 103.57 23.3294 104.051 23.3294ZM110.388 24.4998V12.8635H112.087V17.1873H112.189C112.287 17.0055 112.429 16.7953 112.615 16.5567C112.801 16.318 113.058 16.1097 113.388 15.9317C113.717 15.7498 114.153 15.6589 114.695 15.6589C115.399 15.6589 116.028 15.837 116.581 16.193C117.134 16.5491 117.568 17.0623 117.882 17.7328C118.2 18.4033 118.359 19.2101 118.359 20.1533C118.359 21.0964 118.202 21.9051 117.888 22.5794C117.573 23.2498 117.142 23.7669 116.592 24.1305C116.043 24.4904 115.416 24.6703 114.712 24.6703C114.181 24.6703 113.748 24.5813 113.41 24.4033C113.077 24.2252 112.816 24.0169 112.626 23.7783C112.437 23.5396 112.291 23.3275 112.189 23.1419H112.047V24.4998H110.388ZM112.053 20.1362C112.053 20.7498 112.142 21.2877 112.32 21.7498C112.498 22.212 112.755 22.5737 113.092 22.8351C113.429 23.0926 113.842 23.2214 114.331 23.2214C114.838 23.2214 115.263 23.087 115.604 22.818C115.945 22.5453 116.202 22.176 116.376 21.7101C116.554 21.2442 116.643 20.7195 116.643 20.1362C116.643 19.5605 116.556 19.0434 116.382 18.5851C116.212 18.1267 115.954 17.765 115.609 17.4998C115.268 17.2347 114.842 17.1021 114.331 17.1021C113.838 17.1021 113.422 17.229 113.081 17.4828C112.744 17.7366 112.488 18.0908 112.314 18.5453C112.14 18.9998 112.053 19.5301 112.053 20.1362ZM121.966 12.8635V24.4998H120.267V12.8635H121.966ZM128.013 24.676C127.153 24.676 126.412 24.4923 125.791 24.1248C125.174 23.7536 124.696 23.2328 124.359 22.5623C124.026 21.8881 123.859 21.0983 123.859 20.193C123.859 19.2991 124.026 18.5112 124.359 17.8294C124.696 17.1476 125.166 16.6154 125.768 16.2328C126.374 15.8502 127.083 15.6589 127.893 15.6589C128.386 15.6589 128.863 15.7404 129.325 15.9033C129.787 16.0661 130.202 16.3218 130.57 16.6703C130.937 17.0188 131.227 17.4714 131.439 18.0283C131.651 18.5813 131.757 19.2536 131.757 20.0453V20.6476H124.82V19.3748H130.092C130.092 18.9279 130.001 18.532 129.82 18.1873C129.638 17.8389 129.382 17.5642 129.053 17.3635C128.727 17.1627 128.344 17.0623 127.905 17.0623C127.428 17.0623 127.011 17.1798 126.655 17.4146C126.303 17.6457 126.03 17.9487 125.837 18.3237C125.647 18.6949 125.553 19.0983 125.553 19.5339V20.5283C125.553 21.1116 125.655 21.6078 125.859 22.0169C126.068 22.426 126.357 22.7385 126.729 22.9544C127.1 23.1665 127.534 23.2726 128.03 23.2726C128.352 23.2726 128.645 23.2271 128.91 23.1362C129.176 23.0415 129.405 22.9014 129.598 22.7158C129.791 22.5301 129.939 22.301 130.041 22.0283L131.649 22.318C131.52 22.7915 131.289 23.2063 130.956 23.5623C130.626 23.9146 130.212 24.1892 129.712 24.3862C129.215 24.5794 128.649 24.676 128.013 24.676ZM141.553 24.676C140.734 24.676 140.02 24.4885 139.41 24.1135C138.801 23.7385 138.327 23.2139 137.99 22.5396C137.653 21.8654 137.484 21.0775 137.484 20.176C137.484 19.2707 137.653 18.479 137.99 17.801C138.327 17.123 138.801 16.5964 139.41 16.2214C140.02 15.8464 140.734 15.6589 141.553 15.6589C142.371 15.6589 143.085 15.8464 143.695 16.2214C144.304 16.5964 144.778 17.123 145.115 17.801C145.452 18.479 145.621 19.2707 145.621 20.176C145.621 21.0775 145.452 21.8654 145.115 22.5396C144.778 23.2139 144.304 23.7385 143.695 24.1135C143.085 24.4885 142.371 24.676 141.553 24.676ZM141.558 23.2498C142.088 23.2498 142.528 23.1097 142.876 22.8294C143.225 22.5491 143.482 22.176 143.649 21.7101C143.82 21.2442 143.905 20.7309 143.905 20.1703C143.905 19.6135 143.82 19.1021 143.649 18.6362C143.482 18.1665 143.225 17.7896 142.876 17.5055C142.528 17.2214 142.088 17.0794 141.558 17.0794C141.024 17.0794 140.581 17.2214 140.229 17.5055C139.88 17.7896 139.621 18.1665 139.45 18.6362C139.284 19.1021 139.2 19.6135 139.2 20.1703C139.2 20.7309 139.284 21.2442 139.45 21.7101C139.621 22.176 139.88 22.5491 140.229 22.8294C140.581 23.1097 141.024 23.2498 141.558 23.2498ZM149.216 19.318V24.4998H147.517V15.7726H149.148V17.193H149.256C149.456 16.7309 149.771 16.3597 150.199 16.0794C150.631 15.7991 151.174 15.6589 151.829 15.6589C152.424 15.6589 152.945 15.7839 153.392 16.0339C153.839 16.2801 154.186 16.6476 154.432 17.1362C154.678 17.6248 154.801 18.229 154.801 18.9487V24.4998H153.102V19.1533C153.102 18.5207 152.937 18.0264 152.608 17.6703C152.278 17.3105 151.826 17.1305 151.25 17.1305C150.856 17.1305 150.506 17.2158 150.199 17.3862C149.896 17.5567 149.655 17.8067 149.477 18.1362C149.303 18.462 149.216 18.8559 149.216 19.318Z" fill="#E8E8E8"/>
<path d="M67.6101 43.4998H64.3984L68.5699 31.1362H72.5483L76.7198 43.4998H73.5081L70.6044 34.2513H70.5078L67.6101 43.4998ZM67.1814 38.6341H73.8945V40.904H67.1814V38.6341ZM78.0509 46.9771V34.2271H80.9728V35.8148H81.0634C81.1841 35.5331 81.3551 35.2614 81.5765 34.9998C81.8019 34.7382 82.0876 34.5249 82.4337 34.3599C82.7839 34.1909 83.2024 34.1064 83.6894 34.1064C84.3334 34.1064 84.935 34.2754 85.4945 34.6135C86.0579 34.9515 86.5127 35.4727 86.8588 36.177C87.2049 36.8814 87.378 37.7788 87.378 38.8695C87.378 39.9199 87.211 40.7993 86.8769 41.5077C86.5469 42.216 86.1002 42.7472 85.5367 43.1014C84.9773 43.4556 84.3555 43.6327 83.6713 43.6327C83.2045 43.6327 82.8 43.5562 82.4579 43.4033C82.1158 43.2503 81.828 43.0491 81.5946 42.7996C81.3652 42.55 81.1881 42.2824 81.0634 41.9966H81.003V46.9771H78.0509ZM80.9426 38.8635C80.9426 39.3625 81.009 39.7972 81.1418 40.1675C81.2787 40.5377 81.4739 40.8255 81.7274 41.0307C81.985 41.232 82.2929 41.3326 82.6511 41.3326C83.0133 41.3326 83.3212 41.232 83.5747 41.0307C83.8283 40.8255 84.0194 40.5377 84.1482 40.1675C84.281 39.7972 84.3474 39.3625 84.3474 38.8635C84.3474 38.3644 84.281 37.9318 84.1482 37.5655C84.0194 37.1993 83.8283 36.9156 83.5747 36.7143C83.3252 36.5131 83.0173 36.4125 82.6511 36.4125C82.2888 36.4125 81.981 36.5111 81.7274 36.7083C81.4739 36.9055 81.2787 37.1872 81.1418 37.5535C81.009 37.9197 80.9426 38.3564 80.9426 38.8635ZM88.9249 46.9771V34.2271H91.8468V35.8148H91.9374C92.0581 35.5331 92.2292 35.2614 92.4505 34.9998C92.6759 34.7382 92.9616 34.5249 93.3078 34.3599C93.6579 34.1909 94.0765 34.1064 94.5634 34.1064C95.2074 34.1064 95.8091 34.2754 96.3685 34.6135C96.9319 34.9515 97.3867 35.4727 97.7328 36.177C98.0789 36.8814 98.252 37.7788 98.252 38.8695C98.252 39.9199 98.085 40.7993 97.7509 41.5077C97.4209 42.216 96.9742 42.7472 96.4107 43.1014C95.8513 43.4556 95.2295 43.6327 94.5453 43.6327C94.0785 43.6327 93.674 43.5562 93.3319 43.4033C92.9898 43.2503 92.7021 43.0491 92.4686 42.7996C92.2392 42.55 92.0621 42.2824 91.9374 41.9966H91.877V46.9771H88.9249ZM91.8166 38.8635C91.8166 39.3625 91.883 39.7972 92.0159 40.1675C92.1527 40.5377 92.3479 40.8255 92.6014 41.0307C92.859 41.232 93.1669 41.3326 93.5251 41.3326C93.8873 41.3326 94.1952 41.232 94.4487 41.0307C94.7023 40.8255 94.8935 40.5377 95.0222 40.1675C95.1551 39.7972 95.2215 39.3625 95.2215 38.8635C95.2215 38.3644 95.1551 37.9318 95.0222 37.5655C94.8935 37.1993 94.7023 36.9156 94.4487 36.7143C94.1992 36.5131 93.8913 36.4125 93.5251 36.4125C93.1629 36.4125 92.855 36.5111 92.6014 36.7083C92.3479 36.9055 92.1527 37.1872 92.0159 37.5535C91.883 37.9197 91.8166 38.3564 91.8166 38.8635ZM110.134 34.8429C110.094 34.4002 109.915 34.0561 109.597 33.8106C109.283 33.561 108.834 33.4363 108.251 33.4363C107.864 33.4363 107.542 33.4866 107.285 33.5872C107.027 33.6878 106.834 33.8267 106.705 34.0038C106.576 34.1768 106.51 34.376 106.506 34.6014C106.498 34.7865 106.534 34.9495 106.615 35.0904C106.699 35.2313 106.82 35.356 106.977 35.4647C107.138 35.5693 107.331 35.6619 107.556 35.7424C107.782 35.8229 108.035 35.8933 108.317 35.9537L109.38 36.1952C109.991 36.328 110.531 36.5051 110.997 36.7264C111.468 36.9478 111.863 37.2114 112.181 37.5172C112.503 37.8231 112.746 38.1753 112.911 38.5737C113.076 38.9721 113.161 39.4189 113.165 39.9139C113.161 40.6947 112.963 41.3648 112.573 41.9242C112.183 42.4836 111.621 42.9122 110.889 43.2101C110.16 43.5079 109.281 43.6568 108.251 43.6568C107.216 43.6568 106.315 43.5019 105.546 43.192C104.777 42.8821 104.18 42.4112 103.753 41.7793C103.327 41.1475 103.107 40.3486 103.095 39.3827H105.957C105.981 39.7811 106.087 40.1131 106.277 40.3788C106.466 40.6444 106.725 40.8456 107.055 40.9824C107.389 41.1193 107.776 41.1877 108.214 41.1877C108.617 41.1877 108.959 41.1334 109.241 41.0247C109.526 40.916 109.746 40.7651 109.899 40.5719C110.052 40.3787 110.13 40.1574 110.134 39.9079C110.13 39.6744 110.058 39.4752 109.917 39.3102C109.776 39.1412 109.559 38.9963 109.265 38.8756C108.975 38.7508 108.605 38.6361 108.154 38.5314L106.862 38.2296C105.792 37.9841 104.948 37.5877 104.333 37.0403C103.717 36.489 103.411 35.7444 103.415 34.8067C103.411 34.042 103.616 33.3719 104.031 32.7964C104.445 32.2208 105.019 31.7721 105.751 31.4501C106.484 31.1282 107.319 30.9672 108.257 30.9672C109.215 30.9672 110.046 31.1302 110.75 31.4562C111.458 31.7781 112.008 32.2309 112.398 32.8145C112.788 33.398 112.988 34.0742 112.996 34.8429H110.134ZM119.908 34.2271V36.4004H114.058V34.2271H119.908ZM115.284 32.0055H118.236V40.584C118.236 40.7651 118.264 40.912 118.32 41.0247C118.381 41.1334 118.467 41.2118 118.58 41.2601C118.693 41.3044 118.827 41.3265 118.984 41.3265C119.097 41.3265 119.216 41.3165 119.341 41.2964C119.469 41.2722 119.566 41.2521 119.63 41.236L120.077 43.367C119.936 43.4073 119.737 43.4576 119.479 43.518C119.226 43.5783 118.922 43.6166 118.568 43.6327C117.876 43.6649 117.282 43.5844 116.787 43.3912C116.296 43.194 115.92 42.8881 115.658 42.4736C115.4 42.059 115.276 41.5378 115.284 40.91V32.0055ZM125.643 43.6749C124.669 43.6749 123.832 43.4757 123.132 43.0773C122.435 42.6748 121.898 42.1154 121.52 41.399C121.146 40.6786 120.958 39.8435 120.958 38.8937C120.958 37.9398 121.146 37.1047 121.52 36.3883C121.898 35.6679 122.435 35.1085 123.132 34.7101C123.832 34.3076 124.669 34.1064 125.643 34.1064C126.617 34.1064 127.452 34.3076 128.148 34.7101C128.849 35.1085 129.386 35.6679 129.76 36.3883C130.139 37.1047 130.328 37.9398 130.328 38.8937C130.328 39.8435 130.139 40.6786 129.76 41.399C129.386 42.1154 128.849 42.6748 128.148 43.0773C127.452 43.4757 126.617 43.6749 125.643 43.6749ZM125.661 41.4473C126.015 41.4473 126.315 41.3386 126.561 41.1213C126.806 40.904 126.993 40.6021 127.122 40.2158C127.255 39.8294 127.321 39.3827 127.321 38.8756C127.321 38.3604 127.255 37.9096 127.122 37.5233C126.993 37.1369 126.806 36.8351 126.561 36.6177C126.315 36.4004 126.015 36.2917 125.661 36.2917C125.295 36.2917 124.985 36.4004 124.731 36.6177C124.482 36.8351 124.291 37.1369 124.158 37.5233C124.029 37.9096 123.965 38.3604 123.965 38.8756C123.965 39.3827 124.029 39.8294 124.158 40.2158C124.291 40.6021 124.482 40.904 124.731 41.1213C124.985 41.3386 125.295 41.4473 125.661 41.4473ZM131.84 43.4998V34.2271H134.708V35.9175H134.804C134.973 35.3057 135.249 34.8509 135.631 34.5531C136.014 34.2513 136.458 34.1003 136.965 34.1003C137.102 34.1003 137.243 34.1104 137.388 34.1305C137.533 34.1466 137.668 34.1728 137.792 34.209V36.7747C137.652 36.7264 137.466 36.6882 137.237 36.66C137.012 36.6318 136.81 36.6177 136.633 36.6177C136.283 36.6177 135.967 36.6962 135.685 36.8532C135.408 37.0061 135.188 37.2214 135.027 37.4991C134.871 37.7728 134.792 38.0948 134.792 38.465V43.4998H131.84ZM142.848 43.6749C141.878 43.6749 141.041 43.4837 140.337 43.1014C139.637 42.715 139.097 42.1657 138.719 41.4533C138.345 40.7369 138.158 39.8857 138.158 38.8997C138.158 37.9418 138.347 37.1047 138.725 36.3883C139.103 35.6679 139.637 35.1085 140.325 34.7101C141.013 34.3076 141.824 34.1064 142.758 34.1064C143.418 34.1064 144.021 34.209 144.569 34.4143C145.116 34.6195 145.589 34.9234 145.988 35.3258C146.386 35.7283 146.696 36.2253 146.917 36.817C147.139 37.4046 147.249 38.0787 147.249 38.8393V39.5758H139.19V37.8613H144.502C144.498 37.5474 144.424 37.2677 144.279 37.0222C144.134 36.7767 143.935 36.5855 143.681 36.4487C143.432 36.3078 143.144 36.2374 142.818 36.2374C142.488 36.2374 142.192 36.3119 141.931 36.4608C141.669 36.6057 141.462 36.8049 141.309 37.0584C141.156 37.308 141.075 37.5917 141.067 37.9096V39.6543C141.067 40.0326 141.142 40.3647 141.291 40.6504C141.44 40.9321 141.651 41.1515 141.925 41.3084C142.198 41.4654 142.524 41.5439 142.903 41.5439C143.164 41.5439 143.402 41.5077 143.615 41.4352C143.828 41.3628 144.011 41.2561 144.164 41.1153C144.317 40.9744 144.432 40.8013 144.508 40.5961L147.219 40.6746C147.106 41.2823 146.859 41.8115 146.477 42.2623C146.098 42.709 145.601 43.0571 144.985 43.3067C144.37 43.5522 143.657 43.6749 142.848 43.6749Z" fill="white"/>
</g>
<rect x="1.05" y="1.04985" width="165.9" height="53.9" rx="6.95" stroke="white" stroke-opacity="0.15" stroke-width="2.1"/>
<defs>
<filter id="filter0_d_28_569" x="6.28571" y="1.57127" width="51.4286" height="52.1428" filterUnits="userSpaceOnUse" color-interpolation-filters="sRGB">
<feFlood flood-opacity="0" result="BackgroundImageFix"/>
<feColorMatrix in="SourceAlpha" type="matrix" values="0 0 0 0 0 0 0 0 0 0 0 0 0 0 0 0 0 0 127 0" result="hardAlpha"/>
<feOffset/>
<feGaussianBlur stdDeviation="2.85714"/>
<feComposite in2="hardAlpha" operator="out"/>
<feColorMatrix type="matrix" values="0 0 0 0 0 0 0 0 0 0 0 0 0 0 0 0 0 0 0.25 0"/>
<feBlend mode="normal" in2="BackgroundImageFix" result="effect1_dropShadow_28_569"/>
<feBlend mode="normal" in="SourceGraphic" in2="effect1_dropShadow_28_569" result="shape"/>
</filter>
<filter id="filter1_d_28_569" x="58.4" y="3.89985" width="103.2" height="48.6773" filterUnits="userSpaceOnUse" color-interpolation-filters="sRGB">
<feFlood flood-opacity="0" result="BackgroundImageFix"/>
<feColorMatrix in="SourceAlpha" type="matrix" values="0 0 0 0 0 0 0 0 0 0 0 0 0 0 0 0 0 0 127 0" result="hardAlpha"/>
<feOffset/>
<feGaussianBlur stdDeviation="2.8"/>
<feComposite in2="hardAlpha" operator="out"/>
<feColorMatrix type="matrix" values="0 0 0 0 0 0 0 0 0 0 0 0 0 0 0 0 0 0 0.25 0"/>
<feBlend mode="normal" in2="BackgroundImageFix" result="effect1_dropShadow_28_569"/>
<feBlend mode="normal" in="SourceGraphic" in2="effect1_dropShadow_28_569" result="shape"/>
</filter>
<linearGradient id="paint0_linear_28_569" x1="84" y1="-0.000152588" x2="84" y2="55.9998" gradientUnits="userSpaceOnUse">
<stop stop-color="#1E1E1E"/>
<stop offset="1" stop-color="#0D0D0D"/>
</linearGradient>
</defs>
</svg>
