<svg width="164" height="56" viewBox="0 0 164 56" fill="none" xmlns="http://www.w3.org/2000/svg">
<rect y="-0.000152588" width="164" height="56" rx="8" fill="url(#paint0_linear_28_569)"/>
<g filter="url(#filter0_d_28_569)">
<path d="M47.3792 20.9229C47.1451 21.1029 43.0123 23.4112 43.0123 28.5437C43.0123 34.4803 48.2712 36.5805 48.4286 36.6325C48.4044 36.7605 47.5931 39.5088 45.6558 42.309C43.9284 44.7733 42.1243 47.2335 39.3798 47.2335C36.6354 47.2335 35.9291 45.6534 32.7608 45.6534C29.6732 45.6534 28.5755 47.2855 26.0651 47.2855C23.5547 47.2855 21.803 45.0053 19.7891 42.205C17.4563 38.9167 15.5714 33.8082 15.5714 28.9597C15.5714 21.1829 20.673 17.0585 25.6937 17.0585C28.3615 17.0585 30.5854 18.7947 32.2603 18.7947C33.8546 18.7947 36.3407 16.9545 39.3758 16.9545C40.5261 16.9545 44.6589 17.0585 47.3792 20.9229ZM37.935 13.6622C39.1902 12.186 40.0781 10.1378 40.0781 8.08963C40.0781 7.8056 40.0539 7.51758 40.0014 7.28555C37.9592 7.36156 35.5295 8.63369 34.0644 10.3179C32.9142 11.614 31.8406 13.6622 31.8406 15.7384C31.8406 16.0504 31.8931 16.3625 31.9173 16.4625C32.0464 16.4865 32.2563 16.5145 32.4662 16.5145C34.2985 16.5145 36.6031 15.2984 37.935 13.6622Z" fill="white"/>
</g>
<g filter="url(#filter1_d_28_569)">
<path d="M62.2613 24.4998H60.3977L64.5852 12.8635H66.6136L70.8011 24.4998H68.9375L65.6477 14.9771H65.5568L62.2613 24.4998ZM62.5738 19.943H68.6193V21.4203H62.5738V19.943ZM78.7173 15.7726L75.5525 24.4998H73.7343L70.5639 15.7726H72.3878L74.598 22.4885H74.6889L76.8934 15.7726H78.7173ZM82.6037 24.693C82.0506 24.693 81.5506 24.5908 81.1037 24.3862C80.6567 24.1779 80.3025 23.8767 80.0412 23.4828C79.7836 23.0889 79.6548 22.6059 79.6548 22.0339C79.6548 21.5415 79.7495 21.1362 79.9389 20.818C80.1283 20.4998 80.384 20.248 80.7059 20.0623C81.0279 19.8767 81.3877 19.7366 81.7855 19.6419C82.1832 19.5472 82.5885 19.4752 83.0014 19.426C83.5241 19.3654 83.9484 19.3161 84.2741 19.2783C84.5999 19.2366 84.8366 19.1703 84.9843 19.0794C85.1321 18.9885 85.2059 18.8408 85.2059 18.6362V18.5964C85.2059 18.1002 85.0658 17.7158 84.7855 17.443C84.509 17.1703 84.0961 17.0339 83.5468 17.0339C82.9749 17.0339 82.5241 17.1608 82.1946 17.4146C81.8688 17.6646 81.6434 17.943 81.5184 18.2498L79.9218 17.8862C80.1112 17.3559 80.3877 16.9279 80.7514 16.6021C81.1188 16.2726 81.5412 16.0339 82.0184 15.8862C82.4957 15.7347 82.9976 15.6589 83.5241 15.6589C83.8726 15.6589 84.2419 15.7006 84.6321 15.7839C85.026 15.8635 85.3934 16.0112 85.7343 16.2271C86.079 16.443 86.3612 16.7517 86.5809 17.1533C86.8006 17.551 86.9105 18.068 86.9105 18.7044V24.4998H85.2514V23.3067H85.1832C85.0734 23.5264 84.9086 23.7423 84.6889 23.9544C84.4692 24.1665 84.187 24.3426 83.8423 24.4828C83.4976 24.6229 83.0847 24.693 82.6037 24.693ZM82.973 23.3294C83.4427 23.3294 83.8442 23.2366 84.1775 23.051C84.5146 22.8654 84.7703 22.6229 84.9446 22.3237C85.1226 22.0207 85.2116 21.6968 85.2116 21.3521V20.2271C85.151 20.2877 85.0336 20.3445 84.8593 20.3976C84.6889 20.4468 84.4938 20.4904 84.2741 20.5283C84.0544 20.5623 83.8404 20.5945 83.6321 20.6248C83.4237 20.6514 83.2495 20.6741 83.1093 20.693C82.7798 20.7347 82.4787 20.8048 82.2059 20.9033C81.937 21.0017 81.7211 21.1438 81.5582 21.3294C81.3991 21.5112 81.3196 21.7536 81.3196 22.0567C81.3196 22.4771 81.4749 22.7953 81.7855 23.0112C82.0961 23.2233 82.4919 23.3294 82.973 23.3294ZM89.1733 24.4998V15.7726H90.8721V24.4998H89.1733ZM90.0312 14.426C89.7358 14.426 89.482 14.3275 89.2698 14.1305C89.0615 13.9298 88.9573 13.6911 88.9573 13.4146C88.9573 13.1343 89.0615 12.8957 89.2698 12.6987C89.482 12.498 89.7358 12.3976 90.0312 12.3976C90.3267 12.3976 90.5786 12.498 90.7869 12.6987C90.999 12.8957 91.1051 13.1343 91.1051 13.4146C91.1051 13.6911 90.999 13.9298 90.7869 14.1305C90.5786 14.3275 90.3267 14.426 90.0312 14.426ZM94.8565 12.8635V24.4998H93.1576V12.8635H94.8565ZM99.6818 24.693C99.1287 24.693 98.6287 24.5908 98.1818 24.3862C97.7348 24.1779 97.3806 23.8767 97.1193 23.4828C96.8617 23.0889 96.7329 22.6059 96.7329 22.0339C96.7329 21.5415 96.8276 21.1362 97.017 20.818C97.2064 20.4998 97.4621 20.248 97.784 20.0623C98.106 19.8767 98.4659 19.7366 98.8636 19.6419C99.2613 19.5472 99.6666 19.4752 100.08 19.426C100.602 19.3654 101.026 19.3161 101.352 19.2783C101.678 19.2366 101.915 19.1703 102.062 19.0794C102.21 18.9885 102.284 18.8408 102.284 18.6362V18.5964C102.284 18.1002 102.144 17.7158 101.864 17.443C101.587 17.1703 101.174 17.0339 100.625 17.0339C100.053 17.0339 99.6022 17.1608 99.2727 17.4146C98.9469 17.6646 98.7215 17.943 98.5965 18.2498L97 17.8862C97.1894 17.3559 97.4659 16.9279 97.8295 16.6021C98.1969 16.2726 98.6193 16.0339 99.0965 15.8862C99.5738 15.7347 100.076 15.6589 100.602 15.6589C100.951 15.6589 101.32 15.7006 101.71 15.7839C102.104 15.8635 102.472 16.0112 102.812 16.2271C103.157 16.443 103.439 16.7517 103.659 17.1533C103.879 17.551 103.989 18.068 103.989 18.7044V24.4998H102.33V23.3067H102.261C102.151 23.5264 101.987 23.7423 101.767 23.9544C101.547 24.1665 101.265 24.3426 100.92 24.4828C100.576 24.6229 100.163 24.693 99.6818 24.693ZM100.051 23.3294C100.521 23.3294 100.922 23.2366 101.256 23.051C101.593 22.8654 101.848 22.6229 102.023 22.3237C102.201 22.0207 102.29 21.6968 102.29 21.3521V20.2271C102.229 20.2877 102.112 20.3445 101.937 20.3976C101.767 20.4468 101.572 20.4904 101.352 20.5283C101.133 20.5623 100.919 20.5945 100.71 20.6248C100.502 20.6514 100.328 20.6741 100.187 20.693C99.8579 20.7347 99.5568 20.8048 99.284 20.9033C99.0151 21.0017 98.7992 21.1438 98.6363 21.3294C98.4772 21.5112 98.3977 21.7536 98.3977 22.0567C98.3977 22.4771 98.553 22.7953 98.8636 23.0112C99.1742 23.2233 99.57 23.3294 100.051 23.3294ZM106.388 24.4998V12.8635H108.087V17.1873H108.189C108.287 17.0055 108.429 16.7953 108.615 16.5567C108.801 16.318 109.058 16.1097 109.388 15.9317C109.717 15.7498 110.153 15.6589 110.695 15.6589C111.399 15.6589 112.028 15.837 112.581 16.193C113.134 16.5491 113.568 17.0623 113.882 17.7328C114.2 18.4033 114.359 19.2101 114.359 20.1533C114.359 21.0964 114.202 21.9051 113.888 22.5794C113.573 23.2498 113.142 23.7669 112.592 24.1305C112.043 24.4904 111.416 24.6703 110.712 24.6703C110.181 24.6703 109.748 24.5813 109.41 24.4033C109.077 24.2252 108.816 24.0169 108.626 23.7783C108.437 23.5396 108.291 23.3275 108.189 23.1419H108.047V24.4998H106.388ZM108.053 20.1362C108.053 20.7498 108.142 21.2877 108.32 21.7498C108.498 22.212 108.755 22.5737 109.092 22.8351C109.429 23.0926 109.842 23.2214 110.331 23.2214C110.838 23.2214 111.263 23.087 111.604 22.818C111.945 22.5453 112.202 22.176 112.376 21.7101C112.554 21.2442 112.643 20.7195 112.643 20.1362C112.643 19.5605 112.556 19.0434 112.382 18.5851C112.212 18.1267 111.954 17.765 111.609 17.4998C111.268 17.2347 110.842 17.1021 110.331 17.1021C109.838 17.1021 109.422 17.229 109.081 17.4828C108.744 17.7366 108.488 18.0908 108.314 18.5453C108.14 18.9998 108.053 19.5301 108.053 20.1362ZM117.966 12.8635V24.4998H116.267V12.8635H117.966ZM124.013 24.676C123.153 24.676 122.412 24.4923 121.791 24.1248C121.174 23.7536 120.696 23.2328 120.359 22.5623C120.026 21.8881 119.859 21.0983 119.859 20.193C119.859 19.2991 120.026 18.5112 120.359 17.8294C120.696 17.1476 121.166 16.6154 121.768 16.2328C122.374 15.8502 123.083 15.6589 123.893 15.6589C124.386 15.6589 124.863 15.7404 125.325 15.9033C125.787 16.0661 126.202 16.3218 126.57 16.6703C126.937 17.0188 127.227 17.4714 127.439 18.0283C127.651 18.5813 127.757 19.2536 127.757 20.0453V20.6476H120.82V19.3748H126.092C126.092 18.9279 126.001 18.532 125.82 18.1873C125.638 17.8389 125.382 17.5642 125.053 17.3635C124.727 17.1627 124.344 17.0623 123.905 17.0623C123.428 17.0623 123.011 17.1798 122.655 17.4146C122.303 17.6457 122.03 17.9487 121.837 18.3237C121.647 18.6949 121.553 19.0983 121.553 19.5339V20.5283C121.553 21.1116 121.655 21.6078 121.859 22.0169C122.068 22.426 122.357 22.7385 122.729 22.9544C123.1 23.1665 123.534 23.2726 124.03 23.2726C124.352 23.2726 124.645 23.2271 124.91 23.1362C125.176 23.0415 125.405 22.9014 125.598 22.7158C125.791 22.5301 125.939 22.301 126.041 22.0283L127.649 22.318C127.52 22.7915 127.289 23.2063 126.956 23.5623C126.626 23.9146 126.212 24.1892 125.712 24.3862C125.215 24.5794 124.649 24.676 124.013 24.676ZM137.553 24.676C136.734 24.676 136.02 24.4885 135.41 24.1135C134.801 23.7385 134.327 23.2139 133.99 22.5396C133.653 21.8654 133.484 21.0775 133.484 20.176C133.484 19.2707 133.653 18.479 133.99 17.801C134.327 17.123 134.801 16.5964 135.41 16.2214C136.02 15.8464 136.734 15.6589 137.553 15.6589C138.371 15.6589 139.085 15.8464 139.695 16.2214C140.304 16.5964 140.778 17.123 141.115 17.801C141.452 18.479 141.621 19.2707 141.621 20.176C141.621 21.0775 141.452 21.8654 141.115 22.5396C140.778 23.2139 140.304 23.7385 139.695 24.1135C139.085 24.4885 138.371 24.676 137.553 24.676ZM137.558 23.2498C138.088 23.2498 138.528 23.1097 138.876 22.8294C139.225 22.5491 139.482 22.176 139.649 21.7101C139.82 21.2442 139.905 20.7309 139.905 20.1703C139.905 19.6135 139.82 19.1021 139.649 18.6362C139.482 18.1665 139.225 17.7896 138.876 17.5055C138.528 17.2214 138.088 17.0794 137.558 17.0794C137.024 17.0794 136.581 17.2214 136.229 17.5055C135.88 17.7896 135.621 18.1665 135.45 18.6362C135.284 19.1021 135.2 19.6135 135.2 20.1703C135.2 20.7309 135.284 21.2442 135.45 21.7101C135.621 22.176 135.88 22.5491 136.229 22.8294C136.581 23.1097 137.024 23.2498 137.558 23.2498ZM145.216 19.318V24.4998H143.517V15.7726H145.148V17.193H145.256C145.456 16.7309 145.771 16.3597 146.199 16.0794C146.631 15.7991 147.174 15.6589 147.829 15.6589C148.424 15.6589 148.945 15.7839 149.392 16.0339C149.839 16.2801 150.186 16.6476 150.432 17.1362C150.678 17.6248 150.801 18.229 150.801 18.9487V24.4998H149.102V19.1533C149.102 18.5207 148.937 18.0264 148.608 17.6703C148.278 17.3105 147.826 17.1305 147.25 17.1305C146.856 17.1305 146.506 17.2158 146.199 17.3862C145.896 17.5567 145.655 17.8067 145.477 18.1362C145.303 18.462 145.216 18.8559 145.216 19.318Z" fill="#E8E8E8"/>
<path d="M63.6101 43.4998H60.3984L64.5699 31.1362H68.5483L72.7198 43.4998H69.5081L66.6044 34.2513H66.5078L63.6101 43.4998ZM63.1814 38.6341H69.8945V40.904H63.1814V38.6341ZM74.0509 46.9771V34.2271H76.9728V35.8148H77.0634C77.1841 35.5331 77.3551 35.2614 77.5765 34.9998C77.8019 34.7382 78.0876 34.5249 78.4337 34.3599C78.7839 34.1909 79.2024 34.1064 79.6894 34.1064C80.3334 34.1064 80.935 34.2754 81.4945 34.6135C82.0579 34.9515 82.5127 35.4727 82.8588 36.177C83.2049 36.8814 83.378 37.7788 83.378 38.8695C83.378 39.9199 83.211 40.7993 82.8769 41.5077C82.5469 42.216 82.1002 42.7472 81.5367 43.1014C80.9773 43.4556 80.3555 43.6327 79.6713 43.6327C79.2045 43.6327 78.8 43.5562 78.4579 43.4033C78.1158 43.2503 77.828 43.0491 77.5946 42.7996C77.3652 42.55 77.1881 42.2824 77.0634 41.9966H77.003V46.9771H74.0509ZM76.9426 38.8635C76.9426 39.3625 77.009 39.7972 77.1418 40.1675C77.2787 40.5377 77.4739 40.8255 77.7274 41.0307C77.985 41.232 78.2929 41.3326 78.6511 41.3326C79.0133 41.3326 79.3212 41.232 79.5747 41.0307C79.8283 40.8255 80.0194 40.5377 80.1482 40.1675C80.281 39.7972 80.3474 39.3625 80.3474 38.8635C80.3474 38.3644 80.281 37.9318 80.1482 37.5655C80.0194 37.1993 79.8283 36.9156 79.5747 36.7143C79.3252 36.5131 79.0173 36.4125 78.6511 36.4125C78.2888 36.4125 77.981 36.5111 77.7274 36.7083C77.4739 36.9055 77.2787 37.1872 77.1418 37.5535C77.009 37.9197 76.9426 38.3564 76.9426 38.8635ZM84.9249 46.9771V34.2271H87.8468V35.8148H87.9374C88.0581 35.5331 88.2292 35.2614 88.4505 34.9998C88.6759 34.7382 88.9616 34.5249 89.3078 34.3599C89.6579 34.1909 90.0765 34.1064 90.5634 34.1064C91.2074 34.1064 91.8091 34.2754 92.3685 34.6135C92.9319 34.9515 93.3867 35.4727 93.7328 36.177C94.0789 36.8814 94.252 37.7788 94.252 38.8695C94.252 39.9199 94.085 40.7993 93.7509 41.5077C93.4209 42.216 92.9742 42.7472 92.4107 43.1014C91.8513 43.4556 91.2295 43.6327 90.5453 43.6327C90.0785 43.6327 89.674 43.5562 89.3319 43.4033C88.9898 43.2503 88.7021 43.0491 88.4686 42.7996C88.2392 42.55 88.0621 42.2824 87.9374 41.9966H87.877V46.9771H84.9249ZM87.8166 38.8635C87.8166 39.3625 87.883 39.7972 88.0159 40.1675C88.1527 40.5377 88.3479 40.8255 88.6014 41.0307C88.859 41.232 89.1669 41.3326 89.5251 41.3326C89.8873 41.3326 90.1952 41.232 90.4487 41.0307C90.7023 40.8255 90.8935 40.5377 91.0222 40.1675C91.1551 39.7972 91.2215 39.3625 91.2215 38.8635C91.2215 38.3644 91.1551 37.9318 91.0222 37.5655C90.8935 37.1993 90.7023 36.9156 90.4487 36.7143C90.1992 36.5131 89.8913 36.4125 89.5251 36.4125C89.1629 36.4125 88.855 36.5111 88.6014 36.7083C88.3479 36.9055 88.1527 37.1872 88.0159 37.5535C87.883 37.9197 87.8166 38.3564 87.8166 38.8635ZM106.134 34.8429C106.094 34.4002 105.915 34.0561 105.597 33.8106C105.283 33.561 104.834 33.4363 104.251 33.4363C103.864 33.4363 103.542 33.4866 103.285 33.5872C103.027 33.6878 102.834 33.8267 102.705 34.0038C102.576 34.1768 102.51 34.376 102.506 34.6014C102.498 34.7865 102.534 34.9495 102.615 35.0904C102.699 35.2313 102.82 35.356 102.977 35.4647C103.138 35.5693 103.331 35.6619 103.556 35.7424C103.782 35.8229 104.035 35.8933 104.317 35.9537L105.38 36.1952C105.991 36.328 106.531 36.5051 106.997 36.7264C107.468 36.9478 107.863 37.2114 108.181 37.5172C108.503 37.8231 108.746 38.1753 108.911 38.5737C109.076 38.9721 109.161 39.4189 109.165 39.9139C109.161 40.6947 108.963 41.3648 108.573 41.9242C108.183 42.4836 107.621 42.9122 106.889 43.2101C106.16 43.5079 105.281 43.6568 104.251 43.6568C103.216 43.6568 102.315 43.5019 101.546 43.192C100.777 42.8821 100.18 42.4112 99.7532 41.7793C99.3265 41.1475 99.1072 40.3486 99.0951 39.3827H101.957C101.981 39.7811 102.087 40.1131 102.277 40.3788C102.466 40.6444 102.725 40.8456 103.055 40.9824C103.389 41.1193 103.776 41.1877 104.214 41.1877C104.617 41.1877 104.959 41.1334 105.241 41.0247C105.526 40.916 105.746 40.7651 105.899 40.5719C106.052 40.3787 106.13 40.1574 106.134 39.9079C106.13 39.6744 106.058 39.4752 105.917 39.3102C105.776 39.1412 105.559 38.9963 105.265 38.8756C104.975 38.7508 104.605 38.6361 104.154 38.5314L102.862 38.2296C101.792 37.9841 100.948 37.5877 100.333 37.0403C99.7169 36.489 99.4111 35.7444 99.4151 34.8067C99.4111 34.042 99.6163 33.3719 100.031 32.7964C100.445 32.2208 101.019 31.7721 101.751 31.4501C102.484 31.1282 103.319 30.9672 104.257 30.9672C105.215 30.9672 106.046 31.1302 106.75 31.4562C107.458 31.7781 108.008 32.2309 108.398 32.8145C108.788 33.398 108.988 34.0742 108.996 34.8429H106.134ZM115.908 34.2271V36.4004H110.058V34.2271H115.908ZM111.284 32.0055H114.236V40.584C114.236 40.7651 114.264 40.912 114.32 41.0247C114.381 41.1334 114.467 41.2118 114.58 41.2601C114.693 41.3044 114.827 41.3265 114.984 41.3265C115.097 41.3265 115.216 41.3165 115.341 41.2964C115.469 41.2722 115.566 41.2521 115.63 41.236L116.077 43.367C115.936 43.4073 115.737 43.4576 115.479 43.518C115.226 43.5783 114.922 43.6166 114.568 43.6327C113.876 43.6649 113.282 43.5844 112.787 43.3912C112.296 43.194 111.92 42.8881 111.658 42.4736C111.4 42.059 111.276 41.5378 111.284 40.91V32.0055ZM121.643 43.6749C120.669 43.6749 119.832 43.4757 119.132 43.0773C118.435 42.6748 117.898 42.1154 117.52 41.399C117.146 40.6786 116.958 39.8435 116.958 38.8937C116.958 37.9398 117.146 37.1047 117.52 36.3883C117.898 35.6679 118.435 35.1085 119.132 34.7101C119.832 34.3076 120.669 34.1064 121.643 34.1064C122.617 34.1064 123.452 34.3076 124.148 34.7101C124.849 35.1085 125.386 35.6679 125.76 36.3883C126.139 37.1047 126.328 37.9398 126.328 38.8937C126.328 39.8435 126.139 40.6786 125.76 41.399C125.386 42.1154 124.849 42.6748 124.148 43.0773C123.452 43.4757 122.617 43.6749 121.643 43.6749ZM121.661 41.4473C122.015 41.4473 122.315 41.3386 122.561 41.1213C122.806 40.904 122.993 40.6021 123.122 40.2158C123.255 39.8294 123.321 39.3827 123.321 38.8756C123.321 38.3604 123.255 37.9096 123.122 37.5233C122.993 37.1369 122.806 36.8351 122.561 36.6177C122.315 36.4004 122.015 36.2917 121.661 36.2917C121.295 36.2917 120.985 36.4004 120.731 36.6177C120.482 36.8351 120.291 37.1369 120.158 37.5233C120.029 37.9096 119.965 38.3604 119.965 38.8756C119.965 39.3827 120.029 39.8294 120.158 40.2158C120.291 40.6021 120.482 40.904 120.731 41.1213C120.985 41.3386 121.295 41.4473 121.661 41.4473ZM127.84 43.4998V34.2271H130.708V35.9175H130.804C130.973 35.3057 131.249 34.8509 131.631 34.5531C132.014 34.2513 132.458 34.1003 132.965 34.1003C133.102 34.1003 133.243 34.1104 133.388 34.1305C133.533 34.1466 133.668 34.1728 133.792 34.209V36.7747C133.652 36.7264 133.466 36.6882 133.237 36.66C133.012 36.6318 132.81 36.6177 132.633 36.6177C132.283 36.6177 131.967 36.6962 131.685 36.8532C131.408 37.0061 131.188 37.2214 131.027 37.4991C130.871 37.7728 130.792 38.0948 130.792 38.465V43.4998H127.84ZM138.848 43.6749C137.878 43.6749 137.041 43.4837 136.337 43.1014C135.637 42.715 135.097 42.1657 134.719 41.4533C134.345 40.7369 134.158 39.8857 134.158 38.8997C134.158 37.9418 134.347 37.1047 134.725 36.3883C135.103 35.6679 135.637 35.1085 136.325 34.7101C137.013 34.3076 137.824 34.1064 138.758 34.1064C139.418 34.1064 140.021 34.209 140.569 34.4143C141.116 34.6195 141.589 34.9234 141.988 35.3258C142.386 35.7283 142.696 36.2253 142.917 36.817C143.139 37.4046 143.249 38.0787 143.249 38.8393V39.5758H135.19V37.8613H140.502C140.498 37.5474 140.424 37.2677 140.279 37.0222C140.134 36.7767 139.935 36.5855 139.681 36.4487C139.432 36.3078 139.144 36.2374 138.818 36.2374C138.488 36.2374 138.192 36.3119 137.931 36.4608C137.669 36.6057 137.462 36.8049 137.309 37.0584C137.156 37.308 137.075 37.5917 137.067 37.9096V39.6543C137.067 40.0326 137.142 40.3647 137.291 40.6504C137.44 40.9321 137.651 41.1515 137.925 41.3084C138.198 41.4654 138.524 41.5439 138.903 41.5439C139.164 41.5439 139.402 41.5077 139.615 41.4352C139.828 41.3628 140.011 41.2561 140.164 41.1153C140.317 40.9744 140.432 40.8013 140.508 40.5961L143.219 40.6746C143.106 41.2823 142.859 41.8115 142.477 42.2623C142.098 42.709 141.601 43.0571 140.985 43.3067C140.37 43.5522 139.657 43.6749 138.848 43.6749Z" fill="white"/>
</g>
<rect x="1.05" y="1.04985" width="161.9" height="53.9" rx="6.95" stroke="white" stroke-opacity="0.15" stroke-width="2.1"/>
<defs>
<filter id="filter0_d_28_569" x="6.28571" y="1.57127" width="51.4286" height="52.1428" filterUnits="userSpaceOnUse" color-interpolation-filters="sRGB">
<feFlood flood-opacity="0" result="BackgroundImageFix"/>
<feColorMatrix in="SourceAlpha" type="matrix" values="0 0 0 0 0 0 0 0 0 0 0 0 0 0 0 0 0 0 127 0" result="hardAlpha"/>
<feOffset/>
<feGaussianBlur stdDeviation="2.85714"/>
<feComposite in2="hardAlpha" operator="out"/>
<feColorMatrix type="matrix" values="0 0 0 0 0 0 0 0 0 0 0 0 0 0 0 0 0 0 0.25 0"/>
<feBlend mode="normal" in2="BackgroundImageFix" result="effect1_dropShadow_28_569"/>
<feBlend mode="normal" in="SourceGraphic" in2="effect1_dropShadow_28_569" result="shape"/>
</filter>
<filter id="filter1_d_28_569" x="54.4" y="3.89985" width="103.2" height="48.6773" filterUnits="userSpaceOnUse" color-interpolation-filters="sRGB">
<feFlood flood-opacity="0" result="BackgroundImageFix"/>
<feColorMatrix in="SourceAlpha" type="matrix" values="0 0 0 0 0 0 0 0 0 0 0 0 0 0 0 0 0 0 127 0" result="hardAlpha"/>
<feOffset/>
<feGaussianBlur stdDeviation="2.8"/>
<feComposite in2="hardAlpha" operator="out"/>
<feColorMatrix type="matrix" values="0 0 0 0 0 0 0 0 0 0 0 0 0 0 0 0 0 0 0.25 0"/>
<feBlend mode="normal" in2="BackgroundImageFix" result="effect1_dropShadow_28_569"/>
<feBlend mode="normal" in="SourceGraphic" in2="effect1_dropShadow_28_569" result="shape"/>
</filter>
<linearGradient id="paint0_linear_28_569" x1="82" y1="-0.000152588" x2="82" y2="55.9998" gradientUnits="userSpaceOnUse">
<stop stop-color="#1E1E1E"/>
<stop offset="1" stop-color="#0D0D0D"/>
</linearGradient>
</defs>
</svg>
