<svg width="120" height="40" viewBox="0 0 120 40" fill="none" xmlns="http://www.w3.org/2000/svg">
<rect x="-0.000183105" y="-6.10352e-05" width="120" height="40" rx="6" fill="url(#paint0_linear_28_569)"/>
<g filter="url(#filter0_d_28_569)">
<path d="M34.7653 15.5461C34.6014 15.6721 31.7084 17.2879 31.7084 20.8806C31.7084 25.0362 35.3896 26.5064 35.4998 26.5428C35.4829 26.6324 34.915 28.5562 33.5589 30.5164C32.3497 32.2414 31.0868 33.9635 29.1657 33.9635C27.2446 33.9635 26.7502 32.8574 24.5324 32.8574C22.3711 32.8574 21.6026 33.9999 19.8453 33.9999C18.0881 33.9999 16.8619 32.4038 15.4522 30.4436C13.8192 28.1417 12.4998 24.5658 12.4998 21.1719C12.4998 15.7281 16.0709 12.841 19.5854 12.841C21.4529 12.841 23.0096 14.0563 24.182 14.0563C25.298 14.0563 27.0383 12.7682 29.1629 12.7682C29.9681 12.7682 32.8611 12.841 34.7653 15.5461V15.5461ZM28.1543 10.4636C29.0329 9.43028 29.6545 7.99654 29.6545 6.5628C29.6545 6.36398 29.6375 6.16236 29.6008 5.99994C28.1712 6.05314 26.4705 6.94363 25.4449 8.12255C24.6397 9.02984 23.8882 10.4636 23.8882 11.9169C23.8882 12.1354 23.9249 12.3538 23.9419 12.4238C24.0323 12.4406 24.1792 12.4602 24.3261 12.4602C25.6088 12.4602 27.222 11.6089 28.1543 10.4636Z" fill="white"/>
</g>
<g filter="url(#filter1_d_28_569)">
<path d="M47.5545 17.9999H46.2733L49.1522 9.99994H50.5467L53.4256 17.9999H52.1443L49.8826 11.4531H49.8201L47.5545 17.9999ZM47.7693 14.8671H51.9256V15.8827H47.7693V14.8671ZM58.868 11.9999L56.6922 17.9999H55.4422L53.2625 11.9999H54.5164L56.0359 16.6171H56.0984L57.6141 11.9999H58.868ZM61.5399 18.1327C61.1596 18.1327 60.8159 18.0624 60.5086 17.9218C60.2013 17.7786 59.9578 17.5716 59.7781 17.3007C59.601 17.0299 59.5125 16.6979 59.5125 16.3046C59.5125 15.9661 59.5776 15.6874 59.7078 15.4687C59.838 15.2499 60.0138 15.0768 60.2352 14.9492C60.4565 14.8216 60.7039 14.7252 60.9774 14.6601C61.2508 14.595 61.5294 14.5455 61.8133 14.5117C62.1727 14.47 62.4643 14.4361 62.6883 14.4101C62.9122 14.3814 63.075 14.3359 63.1766 14.2734C63.2781 14.2109 63.3289 14.1093 63.3289 13.9687V13.9413C63.3289 13.6002 63.2326 13.3359 63.0399 13.1484C62.8497 12.9609 62.5659 12.8671 62.1883 12.8671C61.7951 12.8671 61.4852 12.9544 61.2586 13.1288C61.0346 13.3007 60.8797 13.4921 60.7938 13.7031L59.6961 13.4531C59.8263 13.0885 60.0164 12.7942 60.2664 12.5702C60.519 12.3437 60.8094 12.1796 61.1375 12.0781C61.4656 11.9739 61.8107 11.9218 62.1727 11.9218C62.4122 11.9218 62.6662 11.9505 62.9344 12.0078C63.2052 12.0624 63.4578 12.164 63.6922 12.3124C63.9292 12.4609 64.1232 12.6731 64.2742 12.9492C64.4253 13.2226 64.5008 13.5781 64.5008 14.0156V17.9999H63.3602V17.1796H63.3133C63.2378 17.3307 63.1245 17.4791 62.9734 17.6249C62.8224 17.7708 62.6284 17.8919 62.3914 17.9882C62.1544 18.0846 61.8706 18.1327 61.5399 18.1327ZM61.7938 17.1952C62.1167 17.1952 62.3927 17.1314 62.6219 17.0038C62.8537 16.8762 63.0294 16.7096 63.1492 16.5038C63.2716 16.2955 63.3328 16.0729 63.3328 15.8359V15.0624C63.2912 15.1041 63.2104 15.1432 63.0906 15.1796C62.9734 15.2135 62.8393 15.2434 62.6883 15.2695C62.5372 15.2929 62.3901 15.315 62.2469 15.3359C62.1037 15.3541 61.9839 15.3697 61.8875 15.3827C61.6609 15.4114 61.4539 15.4596 61.2664 15.5273C61.0815 15.595 60.9331 15.6926 60.8211 15.8202C60.7117 15.9452 60.657 16.1119 60.657 16.3202C60.657 16.6093 60.7638 16.8281 60.9774 16.9765C61.1909 17.1223 61.463 17.1952 61.7938 17.1952ZM66.0565 17.9999V11.9999H67.2244V17.9999H66.0565ZM66.6463 11.0742C66.4432 11.0742 66.2687 11.0064 66.1229 10.871C65.9796 10.733 65.908 10.5689 65.908 10.3788C65.908 10.1861 65.9796 10.0221 66.1229 9.88666C66.2687 9.74864 66.4432 9.67963 66.6463 9.67963C66.8494 9.67963 67.0226 9.74864 67.1658 9.88666C67.3117 10.0221 67.3846 10.1861 67.3846 10.3788C67.3846 10.5689 67.3117 10.733 67.1658 10.871C67.0226 11.0064 66.8494 11.0742 66.6463 11.0742ZM69.9637 9.99994V17.9999H68.7957V9.99994H69.9637ZM73.2811 18.1327C72.9009 18.1327 72.5571 18.0624 72.2498 17.9218C71.9425 17.7786 71.699 17.5716 71.5193 17.3007C71.3423 17.0299 71.2537 16.6979 71.2537 16.3046C71.2537 15.9661 71.3188 15.6874 71.449 15.4687C71.5792 15.2499 71.755 15.0768 71.9764 14.9492C72.1977 14.8216 72.4451 14.7252 72.7186 14.6601C72.992 14.595 73.2706 14.5455 73.5545 14.5117C73.9139 14.47 74.2055 14.4361 74.4295 14.4101C74.6535 14.3814 74.8162 14.3359 74.9178 14.2734C75.0193 14.2109 75.0701 14.1093 75.0701 13.9687V13.9413C75.0701 13.6002 74.9738 13.3359 74.7811 13.1484C74.591 12.9609 74.3071 12.8671 73.9295 12.8671C73.5363 12.8671 73.2264 12.9544 72.9998 13.1288C72.7759 13.3007 72.6209 13.4921 72.535 13.7031L71.4373 13.4531C71.5675 13.0885 71.7576 12.7942 72.0076 12.5702C72.2602 12.3437 72.5506 12.1796 72.8787 12.0781C73.2068 11.9739 73.5519 11.9218 73.9139 11.9218C74.1535 11.9218 74.4074 11.9505 74.6756 12.0078C74.9464 12.0624 75.199 12.164 75.4334 12.3124C75.6704 12.4609 75.8644 12.6731 76.0154 12.9492C76.1665 13.2226 76.242 13.5781 76.242 14.0156V17.9999H75.1014V17.1796H75.0545C74.979 17.3307 74.8657 17.4791 74.7147 17.6249C74.5636 17.7708 74.3696 17.8919 74.1326 17.9882C73.8956 18.0846 73.6118 18.1327 73.2811 18.1327ZM73.535 17.1952C73.8579 17.1952 74.1339 17.1314 74.3631 17.0038C74.5949 16.8762 74.7706 16.7096 74.8904 16.5038C75.0128 16.2955 75.074 16.0729 75.074 15.8359V15.0624C75.0324 15.1041 74.9516 15.1432 74.8318 15.1796C74.7147 15.2135 74.5805 15.2434 74.4295 15.2695C74.2785 15.2929 74.1313 15.315 73.9881 15.3359C73.8449 15.3541 73.7251 15.3697 73.6287 15.3827C73.4022 15.4114 73.1951 15.4596 73.0076 15.5273C72.8227 15.595 72.6743 15.6926 72.5623 15.8202C72.4529 15.9452 72.3982 16.1119 72.3982 16.3202C72.3982 16.6093 72.505 16.8281 72.7186 16.9765C72.9321 17.1223 73.2042 17.1952 73.535 17.1952ZM77.8914 17.9999V9.99994H79.0594V12.9726H79.1297C79.1974 12.8476 79.2951 12.7031 79.4227 12.539C79.5503 12.3749 79.7273 12.2317 79.9539 12.1093C80.1805 11.9843 80.4799 11.9218 80.8523 11.9218C81.3367 11.9218 81.769 12.0442 82.1492 12.289C82.5294 12.5338 82.8276 12.8867 83.0438 13.3476C83.2625 13.8085 83.3719 14.3632 83.3719 15.0117C83.3719 15.6601 83.2638 16.2161 83.0477 16.6796C82.8315 17.1406 82.5346 17.496 82.157 17.746C81.7794 17.9934 81.3484 18.1171 80.8641 18.1171C80.4995 18.1171 80.2013 18.0559 79.9695 17.9335C79.7404 17.8111 79.5607 17.6679 79.4305 17.5038C79.3003 17.3398 79.2 17.1939 79.1297 17.0663H79.032V17.9999H77.8914ZM79.0359 14.9999C79.0359 15.4218 79.0971 15.7916 79.2195 16.1093C79.3419 16.427 79.519 16.6757 79.7508 16.8554C79.9826 17.0325 80.2664 17.121 80.6023 17.121C80.9513 17.121 81.243 17.0286 81.4773 16.8437C81.7117 16.6562 81.8888 16.4023 82.0086 16.082C82.131 15.7617 82.1922 15.401 82.1922 14.9999C82.1922 14.6041 82.1323 14.2486 82.0125 13.9335C81.8953 13.6184 81.7182 13.3697 81.4813 13.1874C81.2469 13.0051 80.9539 12.914 80.6023 12.914C80.2638 12.914 79.9773 13.0012 79.743 13.1757C79.5112 13.3502 79.3354 13.5937 79.2156 13.9062C79.0958 14.2187 79.0359 14.5833 79.0359 14.9999ZM85.8514 9.99994V17.9999H84.6834V9.99994H85.8514ZM90.0086 18.121C89.4174 18.121 88.9083 17.9947 88.4812 17.7421C88.0568 17.4869 87.7286 17.1288 87.4969 16.6679C87.2677 16.2044 87.1531 15.6614 87.1531 15.039C87.1531 14.4244 87.2677 13.8827 87.4969 13.414C87.7286 12.9452 88.0516 12.5794 88.4656 12.3163C88.8823 12.0533 89.3693 11.9218 89.9266 11.9218C90.2651 11.9218 90.5932 11.9778 90.9109 12.0898C91.2286 12.2018 91.5138 12.3775 91.7664 12.6171C92.019 12.8567 92.2182 13.1679 92.3641 13.5507C92.5099 13.9309 92.5828 14.3932 92.5828 14.9374V15.3515H87.8133V14.4765H91.4383C91.4383 14.1692 91.3758 13.8971 91.2508 13.6601C91.1258 13.4205 90.95 13.2317 90.7234 13.0937C90.4995 12.9557 90.2365 12.8867 89.9344 12.8867C89.6062 12.8867 89.3198 12.9674 89.075 13.1288C88.8328 13.2877 88.6453 13.496 88.5125 13.7538C88.3823 14.0091 88.3172 14.2864 88.3172 14.5859V15.2695C88.3172 15.6705 88.3875 16.0117 88.5281 16.2929C88.6714 16.5742 88.8706 16.789 89.1258 16.9374C89.381 17.0833 89.6792 17.1562 90.0203 17.1562C90.2417 17.1562 90.4435 17.1249 90.6258 17.0624C90.8081 16.9973 90.9656 16.901 91.0984 16.7734C91.2312 16.6458 91.3328 16.4882 91.4031 16.3007L92.5086 16.4999C92.4201 16.8255 92.2612 17.1106 92.032 17.3554C91.8055 17.5976 91.5203 17.7864 91.1766 17.9218C90.8354 18.0546 90.4461 18.121 90.0086 18.121ZM99.3172 18.121C98.7547 18.121 98.2638 17.9921 97.8445 17.7343C97.4253 17.4765 97.0997 17.1158 96.868 16.6523C96.6362 16.1887 96.5203 15.6471 96.5203 15.0273C96.5203 14.4049 96.6362 13.8606 96.868 13.3945C97.0997 12.9283 97.4253 12.5663 97.8445 12.3085C98.2638 12.0507 98.7547 11.9218 99.3172 11.9218C99.8797 11.9218 100.371 12.0507 100.79 12.3085C101.209 12.5663 101.535 12.9283 101.766 13.3945C101.998 13.8606 102.114 14.4049 102.114 15.0273C102.114 15.6471 101.998 16.1887 101.766 16.6523C101.535 17.1158 101.209 17.4765 100.79 17.7343C100.371 17.9921 99.8797 18.121 99.3172 18.121ZM99.3211 17.1406C99.6857 17.1406 99.9878 17.0442 100.227 16.8515C100.467 16.6588 100.644 16.4023 100.759 16.082C100.876 15.7617 100.934 15.4088 100.934 15.0234C100.934 14.6406 100.876 14.289 100.759 13.9687C100.644 13.6458 100.467 13.3867 100.227 13.1913C99.9878 12.996 99.6857 12.8984 99.3211 12.8984C98.9539 12.8984 98.6492 12.996 98.407 13.1913C98.1674 13.3867 97.9891 13.6458 97.8719 13.9687C97.7573 14.289 97.7 14.6406 97.7 15.0234C97.7 15.4088 97.7573 15.7617 97.8719 16.082C97.9891 16.4023 98.1674 16.6588 98.407 16.8515C98.6492 17.0442 98.9539 17.1406 99.3211 17.1406ZM104.586 14.4374V17.9999H103.418V11.9999H104.539V12.9765H104.613C104.751 12.6588 104.967 12.4036 105.262 12.2109C105.558 12.0182 105.932 11.9218 106.383 11.9218C106.791 11.9218 107.15 12.0078 107.457 12.1796C107.764 12.3489 108.002 12.6015 108.172 12.9374C108.341 13.2734 108.426 13.6887 108.426 14.1835V17.9999H107.258V14.3242C107.258 13.8893 107.144 13.5494 106.918 13.3046C106.691 13.0572 106.38 12.9335 105.984 12.9335C105.713 12.9335 105.472 12.9921 105.262 13.1093C105.053 13.2265 104.888 13.3984 104.765 13.6249C104.646 13.8489 104.586 14.1197 104.586 14.4374Z" fill="#E8E8E8"/>
<path d="M48.5481 30.9999H46.2811L49.2257 22.2727H52.0339L54.9785 30.9999H52.7115L50.6617 24.4715H50.5936L48.5481 30.9999ZM48.2456 27.5653H52.9842V29.1675H48.2456V27.5653ZM55.9181 33.4545V24.4545H57.9806V25.5752H58.0446C58.1298 25.3764 58.2505 25.1846 58.4068 24.9999C58.5659 24.8153 58.7676 24.6647 59.0119 24.5482C59.259 24.4289 59.5545 24.3693 59.8983 24.3693C60.3528 24.3693 60.7775 24.4886 61.1724 24.7272C61.5701 24.9658 61.8911 25.3337 62.1355 25.8309C62.3798 26.3281 62.5019 26.9616 62.5019 27.7315C62.5019 28.4729 62.384 29.0937 62.1482 29.5937C61.9153 30.0937 61.6 30.4687 61.2022 30.7187C60.8073 30.9687 60.3684 31.0937 59.8855 31.0937C59.5559 31.0937 59.2704 31.0397 59.0289 30.9318C58.7875 30.8238 58.5843 30.6818 58.4196 30.5056C58.2576 30.3295 58.1326 30.1406 58.0446 29.9389H58.0019V33.4545H55.9181ZM57.9593 27.7272C57.9593 28.0795 58.0062 28.3863 58.1 28.6477C58.1965 28.909 58.3343 29.1122 58.5133 29.257C58.6951 29.3991 58.9125 29.4701 59.1653 29.4701C59.421 29.4701 59.6383 29.3991 59.8173 29.257C59.9963 29.1122 60.1312 28.909 60.2221 28.6477C60.3159 28.3863 60.3627 28.0795 60.3627 27.7272C60.3627 27.3749 60.3159 27.0695 60.2221 26.811C60.1312 26.5525 59.9963 26.3522 59.8173 26.2102C59.6411 26.0681 59.4238 25.9971 59.1653 25.9971C58.9096 25.9971 58.6923 26.0667 58.5133 26.2059C58.3343 26.3451 58.1965 26.544 58.1 26.8025C58.0062 27.061 57.9593 27.3693 57.9593 27.7272ZM63.5939 33.4545V24.4545H65.6564V25.5752H65.7203C65.8056 25.3764 65.9263 25.1846 66.0826 24.9999C66.2416 24.8153 66.4433 24.6647 66.6877 24.5482C66.9348 24.4289 67.2303 24.3693 67.574 24.3693C68.0286 24.3693 68.4533 24.4886 68.8482 24.7272C69.2459 24.9658 69.5669 25.3337 69.8112 25.8309C70.0556 26.3281 70.1777 26.9616 70.1777 27.7315C70.1777 28.4729 70.0598 29.0937 69.824 29.5937C69.5911 30.0937 69.2757 30.4687 68.878 30.7187C68.4831 30.9687 68.0442 31.0937 67.5612 31.0937C67.2317 31.0937 66.9462 31.0397 66.7047 30.9318C66.4632 30.8238 66.2601 30.6818 66.0953 30.5056C65.9334 30.3295 65.8084 30.1406 65.7203 29.9389H65.6777V33.4545H63.5939ZM65.6351 27.7272C65.6351 28.0795 65.682 28.3863 65.7757 28.6477C65.8723 28.909 66.0101 29.1122 66.1891 29.257C66.3709 29.3991 66.5882 29.4701 66.8411 29.4701C67.0968 29.4701 67.3141 29.3991 67.4931 29.257C67.672 29.1122 67.807 28.909 67.8979 28.6477C67.9916 28.3863 68.0385 28.0795 68.0385 27.7272C68.0385 27.3749 67.9916 27.0695 67.8979 26.811C67.807 26.5525 67.672 26.3522 67.4931 26.2102C67.3169 26.0681 67.0996 25.9971 66.8411 25.9971C66.5854 25.9971 66.3681 26.0667 66.1891 26.2059C66.0101 26.3451 65.8723 26.544 65.7757 26.8025C65.682 27.061 65.6351 27.3693 65.6351 27.7272ZM78.5651 24.8891C78.5367 24.5766 78.4103 24.3337 78.1859 24.1604C77.9643 23.9843 77.6475 23.8962 77.2356 23.8962C76.9629 23.8962 76.7356 23.9318 76.5538 24.0028C76.372 24.0738 76.2356 24.1718 76.1447 24.2968C76.0538 24.419 76.0069 24.5596 76.0041 24.7187C75.9984 24.8494 76.024 24.9644 76.0808 25.0639C76.1404 25.1633 76.2257 25.2514 76.3365 25.3281C76.4501 25.4019 76.5865 25.4673 76.7455 25.5241C76.9046 25.5809 77.0836 25.6306 77.2825 25.6732L78.0325 25.8437C78.4643 25.9374 78.845 26.0624 79.1745 26.2187C79.5069 26.3749 79.7853 26.561 80.0098 26.7769C80.237 26.9928 80.4089 27.2414 80.5254 27.5227C80.6419 27.8039 80.7015 28.1193 80.7044 28.4687C80.7015 29.0198 80.5623 29.4928 80.2867 29.8877C80.0112 30.2826 79.6149 30.5852 79.0978 30.7954C78.5836 31.0056 77.9629 31.1107 77.2356 31.1107C76.5055 31.1107 75.8691 31.0014 75.3265 30.7826C74.7839 30.5639 74.362 30.2315 74.0609 29.7854C73.7598 29.3394 73.6049 28.7755 73.5964 28.0937H75.6163C75.6333 28.3749 75.7086 28.6093 75.8421 28.7968C75.9757 28.9843 76.1589 29.1264 76.3919 29.2229C76.6276 29.3195 76.9004 29.3678 77.21 29.3678C77.4941 29.3678 77.7356 29.3295 77.9345 29.2528C78.1362 29.1761 78.291 29.0695 78.399 28.9332C78.5069 28.7968 78.5623 28.6406 78.5651 28.4644C78.5623 28.2997 78.5112 28.159 78.4117 28.0426C78.3123 27.9232 78.1589 27.821 77.9515 27.7357C77.747 27.6477 77.4856 27.5667 77.1674 27.4928L76.2555 27.2798C75.4998 27.1065 74.9046 26.8266 74.47 26.4403C74.0353 26.0511 73.8194 25.5255 73.8223 24.8636C73.8194 24.3238 73.9643 23.8508 74.2569 23.4445C74.5495 23.0383 74.9544 22.7215 75.4714 22.4943C75.9884 22.267 76.5779 22.1533 77.2399 22.1533C77.916 22.1533 78.5026 22.2684 78.9998 22.4985C79.4998 22.7258 79.8876 23.0454 80.1632 23.4573C80.4387 23.8693 80.5794 24.3465 80.585 24.8891H78.5651ZM85.4643 24.4545V25.9886H81.335V24.4545H85.4643ZM82.2001 22.8863H84.2839V28.9417C84.2839 29.0695 84.3038 29.1732 84.3436 29.2528C84.3862 29.3295 84.4472 29.3849 84.5268 29.419C84.6063 29.4502 84.7015 29.4658 84.8123 29.4658C84.8919 29.4658 84.9757 29.4587 85.0637 29.4445C85.1546 29.4275 85.2228 29.4133 85.2683 29.4019L85.5836 30.9062C85.4842 30.9346 85.3436 30.9701 85.1617 31.0127C84.9828 31.0553 84.7683 31.0823 84.5183 31.0937C84.0296 31.1164 83.6106 31.0596 83.2612 30.9232C82.9146 30.784 82.649 30.5681 82.4643 30.2755C82.2825 29.9829 82.1944 29.615 82.2001 29.1718V22.8863ZM89.5126 31.1235C88.8251 31.1235 88.2342 30.9829 87.7399 30.7016C87.2484 30.4175 86.8691 30.0227 86.6021 29.517C86.3379 29.0085 86.2058 28.419 86.2058 27.7485C86.2058 27.0752 86.3379 26.4857 86.6021 25.9801C86.8691 25.4715 87.2484 25.0766 87.7399 24.7954C88.2342 24.5113 88.8251 24.3693 89.5126 24.3693C90.2001 24.3693 90.7896 24.5113 91.2811 24.7954C91.7754 25.0766 92.1546 25.4715 92.4188 25.9801C92.6859 26.4857 92.8194 27.0752 92.8194 27.7485C92.8194 28.419 92.6859 29.0085 92.4188 29.517C92.1546 30.0227 91.7754 30.4175 91.2811 30.7016C90.7896 30.9829 90.2001 31.1235 89.5126 31.1235ZM89.5254 29.5511C89.7754 29.5511 89.987 29.4744 90.1603 29.321C90.3336 29.1675 90.4657 28.9545 90.5566 28.6818C90.6504 28.409 90.6972 28.0937 90.6972 27.7357C90.6972 27.3721 90.6504 27.0539 90.5566 26.7812C90.4657 26.5085 90.3336 26.2954 90.1603 26.142C89.987 25.9886 89.7754 25.9119 89.5254 25.9119C89.2668 25.9119 89.0481 25.9886 88.8691 26.142C88.693 26.2954 88.558 26.5085 88.4643 26.7812C88.3734 27.0539 88.3279 27.3721 88.3279 27.7357C88.3279 28.0937 88.3734 28.409 88.4643 28.6818C88.558 28.9545 88.693 29.1675 88.8691 29.321C89.0481 29.4744 89.2668 29.5511 89.5254 29.5511ZM93.8869 30.9999V24.4545H95.911V25.6477H95.9792C96.0985 25.2158 96.2931 24.8948 96.563 24.6846C96.8329 24.4715 97.1468 24.365 97.5048 24.365C97.6014 24.365 97.7008 24.3721 97.8031 24.3863C97.9053 24.3977 98.0005 24.4161 98.0886 24.4417V26.2528C97.9891 26.2187 97.8585 26.1917 97.6965 26.1718C97.5374 26.1519 97.3954 26.142 97.2704 26.142C97.0232 26.142 96.8002 26.1974 96.6014 26.3082C96.4053 26.4161 96.2505 26.5681 96.1369 26.7641C96.0261 26.9573 95.9707 27.1846 95.9707 27.446V30.9999H93.8869ZM101.657 31.1235C100.973 31.1235 100.382 30.9886 99.8847 30.7187C99.3904 30.446 99.0097 30.0582 98.7427 29.5553C98.4785 29.0497 98.3464 28.4488 98.3464 27.7528C98.3464 27.0766 98.4799 26.4857 98.747 25.9801C99.014 25.4715 99.3904 25.0766 99.8762 24.7954C100.362 24.5113 100.934 24.3693 101.594 24.3693C102.059 24.3693 102.486 24.4417 102.872 24.5866C103.258 24.7315 103.592 24.946 103.873 25.2301C104.155 25.5141 104.373 25.865 104.53 26.2826C104.686 26.6974 104.764 27.1732 104.764 27.7102V28.2301H99.0751V27.0198H102.825C102.822 26.7982 102.77 26.6008 102.667 26.4275C102.565 26.2542 102.425 26.1193 102.246 26.0227C102.069 25.9232 101.866 25.8735 101.636 25.8735C101.403 25.8735 101.194 25.9261 101.01 26.0312C100.825 26.1335 100.679 26.2741 100.571 26.4531C100.463 26.6292 100.406 26.8295 100.4 27.0539V28.2854C100.4 28.5525 100.453 28.7869 100.558 28.9886C100.663 29.1874 100.812 29.3423 101.005 29.4531C101.199 29.5639 101.429 29.6193 101.696 29.6193C101.88 29.6193 102.048 29.5937 102.199 29.5425C102.349 29.4914 102.478 29.4161 102.586 29.3167C102.694 29.2173 102.775 29.0951 102.829 28.9502L104.743 29.0056C104.663 29.4346 104.488 29.8082 104.219 30.1264C103.952 30.4417 103.601 30.6874 103.166 30.8636C102.731 31.0369 102.228 31.1235 101.657 31.1235Z" fill="white"/>
</g>
<rect x="0.749817" y="0.749939" width="118.5" height="38.5" rx="5.25" stroke="white" stroke-opacity="0.15" stroke-width="1.5"/>
<defs>
<filter id="filter0_d_28_569" x="5.99982" y="1.99994" width="36" height="36" filterUnits="userSpaceOnUse" color-interpolation-filters="sRGB">
<feFlood flood-opacity="0" result="BackgroundImageFix"/>
<feColorMatrix in="SourceAlpha" type="matrix" values="0 0 0 0 0 0 0 0 0 0 0 0 0 0 0 0 0 0 127 0" result="hardAlpha"/>
<feOffset/>
<feGaussianBlur stdDeviation="2"/>
<feComposite in2="hardAlpha" operator="out"/>
<feColorMatrix type="matrix" values="0 0 0 0 0 0 0 0 0 0 0 0 0 0 0 0 0 0 0.25 0"/>
<feBlend mode="normal" in2="BackgroundImageFix" result="effect1_dropShadow_28_569"/>
<feBlend mode="normal" in="SourceGraphic" in2="effect1_dropShadow_28_569" result="shape"/>
</filter>
<filter id="filter1_d_28_569" x="41.9998" y="2.99994" width="71.9999" height="34.4545" filterUnits="userSpaceOnUse" color-interpolation-filters="sRGB">
<feFlood flood-opacity="0" result="BackgroundImageFix"/>
<feColorMatrix in="SourceAlpha" type="matrix" values="0 0 0 0 0 0 0 0 0 0 0 0 0 0 0 0 0 0 127 0" result="hardAlpha"/>
<feOffset/>
<feGaussianBlur stdDeviation="2"/>
<feComposite in2="hardAlpha" operator="out"/>
<feColorMatrix type="matrix" values="0 0 0 0 0 0 0 0 0 0 0 0 0 0 0 0 0 0 0.25 0"/>
<feBlend mode="normal" in2="BackgroundImageFix" result="effect1_dropShadow_28_569"/>
<feBlend mode="normal" in="SourceGraphic" in2="effect1_dropShadow_28_569" result="shape"/>
</filter>
<linearGradient id="paint0_linear_28_569" x1="59.9998" y1="-6.10351e-05" x2="59.9998" y2="39.9999" gradientUnits="userSpaceOnUse">
<stop stop-color="#1A1A1A"/>
<stop offset="1" stop-color="#0A0A0A"/>
</linearGradient>
</defs>
</svg>
