<svg width="120" height="40" viewBox="0 0 120 40" fill="none" xmlns="http://www.w3.org/2000/svg">
<rect y="-6.10352e-05" width="120" height="40" rx="6" fill="url(#paint0_linear_28_569)"/>
<g filter="url(#filter0_d_28_569)">
<path d="M34.7654 15.0461C34.6016 15.1721 31.7086 16.7879 31.7086 20.3806C31.7086 24.5362 35.3898 26.0064 35.5 26.0428C35.483 26.1324 34.9152 28.0562 33.5591 30.0164C32.3499 31.7414 31.087 33.4635 29.1659 33.4635C27.2447 33.4635 26.7503 32.3574 24.5325 32.3574C22.3713 32.3574 21.6028 33.4999 19.8455 33.4999C18.0883 33.4999 16.8621 31.9038 15.4523 29.9436C13.8194 27.6417 12.5 24.0658 12.5 20.6719C12.5 15.2281 16.0711 12.341 19.5856 12.341C21.4531 12.341 23.0098 13.5563 24.1822 13.5563C25.2982 13.5563 27.0385 12.2682 29.1631 12.2682C29.9682 12.2682 32.8613 12.341 34.7654 15.0461V15.0461ZM28.1545 9.96358C29.0331 8.93028 29.6546 7.49654 29.6546 6.0628C29.6546 5.86398 29.6377 5.66236 29.601 5.49994C28.1714 5.55314 26.4706 6.44363 25.4451 7.62255C24.6399 8.52984 23.8884 9.96358 23.8884 11.4169C23.8884 11.6354 23.9251 11.8538 23.9421 11.9238C24.0325 11.9406 24.1794 11.9602 24.3263 11.9602C25.609 11.9602 27.2221 11.1089 28.1545 9.96358Z" fill="white"/>
</g>
<g filter="url(#filter1_d_28_569)">
<path d="M47.5547 17.9999H46.2734L49.1523 9.99994H50.5469L53.4258 17.9999H52.1445L49.8828 11.4531H49.8203L47.5547 17.9999ZM47.7695 14.8671H51.9258V15.8827H47.7695V14.8671ZM58.8682 11.9999L56.6924 17.9999H55.4424L53.2627 11.9999H54.5166L56.0361 16.6171H56.0986L57.6143 11.9999H58.8682ZM61.54 18.1327C61.1598 18.1327 60.8161 18.0624 60.5088 17.9218C60.2015 17.7786 59.958 17.5716 59.7783 17.3007C59.6012 17.0299 59.5127 16.6979 59.5127 16.3046C59.5127 15.9661 59.5778 15.6874 59.708 15.4687C59.8382 15.2499 60.014 15.0768 60.2353 14.9492C60.4567 14.8216 60.7041 14.7252 60.9775 14.6601C61.251 14.595 61.5296 14.5455 61.8135 14.5117C62.1728 14.47 62.4645 14.4361 62.6885 14.4101C62.9124 14.3814 63.0752 14.3359 63.1768 14.2734C63.2783 14.2109 63.3291 14.1093 63.3291 13.9687V13.9413C63.3291 13.6002 63.2327 13.3359 63.04 13.1484C62.8499 12.9609 62.5661 12.8671 62.1885 12.8671C61.7952 12.8671 61.4853 12.9544 61.2588 13.1288C61.0348 13.3007 60.8799 13.4921 60.7939 13.7031L59.6963 13.4531C59.8265 13.0885 60.0166 12.7942 60.2666 12.5702C60.5192 12.3437 60.8096 12.1796 61.1377 12.0781C61.4658 11.9739 61.8109 11.9218 62.1728 11.9218C62.4124 11.9218 62.6663 11.9505 62.9346 12.0078C63.2054 12.0624 63.458 12.164 63.6924 12.3124C63.9294 12.4609 64.1234 12.6731 64.2744 12.9492C64.4255 13.2226 64.501 13.5781 64.501 14.0156V17.9999H63.3603V17.1796H63.3135C63.238 17.3307 63.1247 17.4791 62.9736 17.6249C62.8226 17.7708 62.6286 17.8919 62.3916 17.9882C62.1546 18.0846 61.8708 18.1327 61.54 18.1327ZM61.7939 17.1952C62.1169 17.1952 62.3929 17.1314 62.6221 17.0038C62.8538 16.8762 63.0296 16.7096 63.1494 16.5038C63.2718 16.2955 63.333 16.0729 63.333 15.8359V15.0624C63.2913 15.1041 63.2106 15.1432 63.0908 15.1796C62.9736 15.2135 62.8395 15.2434 62.6885 15.2695C62.5374 15.2929 62.3903 15.315 62.2471 15.3359C62.1038 15.3541 61.984 15.3697 61.8877 15.3827C61.6611 15.4114 61.4541 15.4596 61.2666 15.5273C61.0817 15.595 60.9333 15.6926 60.8213 15.8202C60.7119 15.9452 60.6572 16.1119 60.6572 16.3202C60.6572 16.6093 60.764 16.8281 60.9775 16.9765C61.1911 17.1223 61.4632 17.1952 61.7939 17.1952ZM66.0566 17.9999V11.9999H67.2246V17.9999H66.0566ZM66.6465 11.0742C66.4434 11.0742 66.2689 11.0064 66.123 10.871C65.9798 10.733 65.9082 10.5689 65.9082 10.3788C65.9082 10.1861 65.9798 10.0221 66.123 9.88666C66.2689 9.74864 66.4434 9.67963 66.6465 9.67963C66.8496 9.67963 67.0228 9.74864 67.166 9.88666C67.3118 10.0221 67.3848 10.1861 67.3848 10.3788C67.3848 10.5689 67.3118 10.733 67.166 10.871C67.0228 11.0064 66.8496 11.0742 66.6465 11.0742ZM69.9639 9.99994V17.9999H68.7959V9.99994H69.9639ZM73.2812 18.1327C72.901 18.1327 72.5573 18.0624 72.25 17.9218C71.9427 17.7786 71.6992 17.5716 71.5195 17.3007C71.3424 17.0299 71.2539 16.6979 71.2539 16.3046C71.2539 15.9661 71.319 15.6874 71.4492 15.4687C71.5794 15.2499 71.7552 15.0768 71.9766 14.9492C72.1979 14.8216 72.4453 14.7252 72.7187 14.6601C72.9922 14.595 73.2708 14.5455 73.5547 14.5117C73.9141 14.47 74.2057 14.4361 74.4297 14.4101C74.6536 14.3814 74.8164 14.3359 74.918 14.2734C75.0195 14.2109 75.0703 14.1093 75.0703 13.9687V13.9413C75.0703 13.6002 74.9739 13.3359 74.7812 13.1484C74.5911 12.9609 74.3073 12.8671 73.9297 12.8671C73.5365 12.8671 73.2266 12.9544 73 13.1288C72.776 13.3007 72.6211 13.4921 72.5351 13.7031L71.4375 13.4531C71.5677 13.0885 71.7578 12.7942 72.0078 12.5702C72.2604 12.3437 72.5508 12.1796 72.8789 12.0781C73.207 11.9739 73.5521 11.9218 73.9141 11.9218C74.1536 11.9218 74.4075 11.9505 74.6758 12.0078C74.9466 12.0624 75.1992 12.164 75.4336 12.3124C75.6706 12.4609 75.8646 12.6731 76.0156 12.9492C76.1667 13.2226 76.2422 13.5781 76.2422 14.0156V17.9999H75.1016V17.1796H75.0547C74.9792 17.3307 74.8659 17.4791 74.7148 17.6249C74.5638 17.7708 74.3698 17.8919 74.1328 17.9882C73.8958 18.0846 73.612 18.1327 73.2812 18.1327ZM73.5351 17.1952C73.8581 17.1952 74.1341 17.1314 74.3633 17.0038C74.595 16.8762 74.7708 16.7096 74.8906 16.5038C75.013 16.2955 75.0742 16.0729 75.0742 15.8359V15.0624C75.0325 15.1041 74.9518 15.1432 74.832 15.1796C74.7148 15.2135 74.5807 15.2434 74.4297 15.2695C74.2786 15.2929 74.1315 15.315 73.9883 15.3359C73.845 15.3541 73.7253 15.3697 73.6289 15.3827C73.4023 15.4114 73.1953 15.4596 73.0078 15.5273C72.8229 15.595 72.6745 15.6926 72.5625 15.8202C72.4531 15.9452 72.3984 16.1119 72.3984 16.3202C72.3984 16.6093 72.5052 16.8281 72.7187 16.9765C72.9323 17.1223 73.2044 17.1952 73.5351 17.1952ZM77.8916 17.9999V9.99994H79.0596V12.9726H79.1299C79.1976 12.8476 79.2952 12.7031 79.4228 12.539C79.5504 12.3749 79.7275 12.2317 79.9541 12.1093C80.1807 11.9843 80.4801 11.9218 80.8525 11.9218C81.3369 11.9218 81.7692 12.0442 82.1494 12.289C82.5296 12.5338 82.8278 12.8867 83.0439 13.3476C83.2627 13.8085 83.3721 14.3632 83.3721 15.0117C83.3721 15.6601 83.264 16.2161 83.0478 16.6796C82.8317 17.1406 82.5348 17.496 82.1572 17.746C81.7796 17.9934 81.3486 18.1171 80.8642 18.1171C80.4997 18.1171 80.2015 18.0559 79.9697 17.9335C79.7405 17.8111 79.5609 17.6679 79.4307 17.5038C79.3004 17.3398 79.2002 17.1939 79.1299 17.0663H79.0322V17.9999H77.8916ZM79.0361 14.9999C79.0361 15.4218 79.0973 15.7916 79.2197 16.1093C79.3421 16.427 79.5192 16.6757 79.751 16.8554C79.9827 17.0325 80.2666 17.121 80.6025 17.121C80.9515 17.121 81.2432 17.0286 81.4775 16.8437C81.7119 16.6562 81.889 16.4023 82.0088 16.082C82.1312 15.7617 82.1924 15.401 82.1924 14.9999C82.1924 14.6041 82.1325 14.2486 82.0127 13.9335C81.8955 13.6184 81.7184 13.3697 81.4814 13.1874C81.2471 13.0051 80.9541 12.914 80.6025 12.914C80.264 12.914 79.9775 13.0012 79.7432 13.1757C79.5114 13.3502 79.3356 13.5937 79.2158 13.9062C79.096 14.2187 79.0361 14.5833 79.0361 14.9999ZM85.8516 9.99994V17.9999H84.6836V9.99994H85.8516ZM90.0088 18.121C89.4176 18.121 88.9085 17.9947 88.4814 17.7421C88.057 17.4869 87.7288 17.1288 87.4971 16.6679C87.2679 16.2044 87.1533 15.6614 87.1533 15.039C87.1533 14.4244 87.2679 13.8827 87.4971 13.414C87.7288 12.9452 88.0517 12.5794 88.4658 12.3163C88.8825 12.0533 89.3695 11.9218 89.9267 11.9218C90.2653 11.9218 90.5934 11.9778 90.9111 12.0898C91.2288 12.2018 91.514 12.3775 91.7666 12.6171C92.0192 12.8567 92.2184 13.1679 92.3642 13.5507C92.5101 13.9309 92.583 14.3932 92.583 14.9374V15.3515H87.8135V14.4765H91.4385C91.4385 14.1692 91.376 13.8971 91.251 13.6601C91.126 13.4205 90.9502 13.2317 90.7236 13.0937C90.4997 12.9557 90.2366 12.8867 89.9346 12.8867C89.6064 12.8867 89.32 12.9674 89.0752 13.1288C88.833 13.2877 88.6455 13.496 88.5127 13.7538C88.3825 14.0091 88.3174 14.2864 88.3174 14.5859V15.2695C88.3174 15.6705 88.3877 16.0117 88.5283 16.2929C88.6715 16.5742 88.8708 16.789 89.126 16.9374C89.3812 17.0833 89.6793 17.1562 90.0205 17.1562C90.2418 17.1562 90.4437 17.1249 90.626 17.0624C90.8083 16.9973 90.9658 16.901 91.0986 16.7734C91.2314 16.6458 91.333 16.4882 91.4033 16.3007L92.5088 16.4999C92.4202 16.8255 92.2614 17.1106 92.0322 17.3554C91.8057 17.5976 91.5205 17.7864 91.1767 17.9218C90.8356 18.0546 90.4463 18.121 90.0088 18.121ZM99.3174 18.121C98.7549 18.121 98.264 17.9921 97.8447 17.7343C97.4254 17.4765 97.0999 17.1158 96.8681 16.6523C96.6364 16.1887 96.5205 15.6471 96.5205 15.0273C96.5205 14.4049 96.6364 13.8606 96.8681 13.3945C97.0999 12.9283 97.4254 12.5663 97.8447 12.3085C98.264 12.0507 98.7549 11.9218 99.3174 11.9218C99.8799 11.9218 100.371 12.0507 100.79 12.3085C101.209 12.5663 101.535 12.9283 101.767 13.3945C101.998 13.8606 102.114 14.4049 102.114 15.0273C102.114 15.6471 101.998 16.1887 101.767 16.6523C101.535 17.1158 101.209 17.4765 100.79 17.7343C100.371 17.9921 99.8799 18.121 99.3174 18.121ZM99.3213 17.1406C99.6859 17.1406 99.9879 17.0442 100.228 16.8515C100.467 16.6588 100.644 16.4023 100.759 16.082C100.876 15.7617 100.935 15.4088 100.935 15.0234C100.935 14.6406 100.876 14.289 100.759 13.9687C100.644 13.6458 100.467 13.3867 100.228 13.1913C99.9879 12.996 99.6859 12.8984 99.3213 12.8984C98.9541 12.8984 98.6494 12.996 98.4072 13.1913C98.1676 13.3867 97.9892 13.6458 97.8721 13.9687C97.7575 14.289 97.7002 14.6406 97.7002 15.0234C97.7002 15.4088 97.7575 15.7617 97.8721 16.082C97.9892 16.4023 98.1676 16.6588 98.4072 16.8515C98.6494 17.0442 98.9541 17.1406 99.3213 17.1406ZM104.586 14.4374V17.9999H103.418V11.9999H104.539V12.9765H104.613C104.751 12.6588 104.967 12.4036 105.262 12.2109C105.559 12.0182 105.932 11.9218 106.383 11.9218C106.792 11.9218 107.15 12.0078 107.457 12.1796C107.764 12.3489 108.003 12.6015 108.172 12.9374C108.341 13.2734 108.426 13.6887 108.426 14.1835V17.9999H107.258V14.3242C107.258 13.8893 107.145 13.5494 106.918 13.3046C106.691 13.0572 106.38 12.9335 105.984 12.9335C105.714 12.9335 105.473 12.9921 105.262 13.1093C105.053 13.2265 104.888 13.3984 104.766 13.6249C104.646 13.8489 104.586 14.1197 104.586 14.4374Z" fill="#E8E8E8"/>
<path d="M48.5483 30.9999H46.2812L49.2259 22.2727H52.0341L54.9787 30.9999H52.7116L50.6619 24.4715H50.5937L48.5483 30.9999ZM48.2457 27.5653H52.9844V29.1675H48.2457V27.5653ZM55.9183 33.4545V24.4545H57.9808V25.5752H58.0447C58.13 25.3764 58.2507 25.1846 58.407 24.9999C58.566 24.8153 58.7678 24.6647 59.0121 24.5482C59.2592 24.4289 59.5547 24.3693 59.8984 24.3693C60.353 24.3693 60.7777 24.4886 61.1726 24.7272C61.5703 24.9658 61.8913 25.3337 62.1356 25.8309C62.38 26.3281 62.5021 26.9616 62.5021 27.7315C62.5021 28.4729 62.3842 29.0937 62.1484 29.5937C61.9155 30.0937 61.6001 30.4687 61.2024 30.7187C60.8075 30.9687 60.3686 31.0937 59.8856 31.0937C59.5561 31.0937 59.2706 31.0397 59.0291 30.9318C58.7876 30.8238 58.5845 30.6818 58.4197 30.5056C58.2578 30.3295 58.1328 30.1406 58.0447 29.9389H58.0021V33.4545H55.9183ZM57.9595 27.7272C57.9595 28.0795 58.0064 28.3863 58.1001 28.6477C58.1967 28.909 58.3345 29.1122 58.5135 29.257C58.6953 29.3991 58.9126 29.4701 59.1655 29.4701C59.4212 29.4701 59.6385 29.3991 59.8175 29.257C59.9964 29.1122 60.1314 28.909 60.2223 28.6477C60.316 28.3863 60.3629 28.0795 60.3629 27.7272C60.3629 27.3749 60.316 27.0695 60.2223 26.811C60.1314 26.5525 59.9964 26.3522 59.8175 26.2102C59.6413 26.0681 59.424 25.9971 59.1655 25.9971C58.9098 25.9971 58.6925 26.0667 58.5135 26.2059C58.3345 26.3451 58.1967 26.544 58.1001 26.8025C58.0064 27.061 57.9595 27.3693 57.9595 27.7272ZM63.5941 33.4545V24.4545H65.6566V25.5752H65.7205C65.8057 25.3764 65.9265 25.1846 66.0827 24.9999C66.2418 24.8153 66.4435 24.6647 66.6878 24.5482C66.935 24.4289 67.2305 24.3693 67.5742 24.3693C68.0288 24.3693 68.4535 24.4886 68.8484 24.7272C69.2461 24.9658 69.5671 25.3337 69.8114 25.8309C70.0557 26.3281 70.1779 26.9616 70.1779 27.7315C70.1779 28.4729 70.06 29.0937 69.8242 29.5937C69.5913 30.0937 69.2759 30.4687 68.8782 30.7187C68.4833 30.9687 68.0444 31.0937 67.5614 31.0937C67.2319 31.0937 66.9464 31.0397 66.7049 30.9318C66.4634 30.8238 66.2603 30.6818 66.0955 30.5056C65.9336 30.3295 65.8086 30.1406 65.7205 29.9389H65.6779V33.4545H63.5941ZM65.6353 27.7272C65.6353 28.0795 65.6822 28.3863 65.7759 28.6477C65.8725 28.909 66.0103 29.1122 66.1893 29.257C66.3711 29.3991 66.5884 29.4701 66.8413 29.4701C67.0969 29.4701 67.3143 29.3991 67.4932 29.257C67.6722 29.1122 67.8072 28.909 67.8981 28.6477C67.9918 28.3863 68.0387 28.0795 68.0387 27.7272C68.0387 27.3749 67.9918 27.0695 67.8981 26.811C67.8072 26.5525 67.6722 26.3522 67.4932 26.2102C67.3171 26.0681 67.0998 25.9971 66.8413 25.9971C66.5856 25.9971 66.3682 26.0667 66.1893 26.2059C66.0103 26.3451 65.8725 26.544 65.7759 26.8025C65.6822 27.061 65.6353 27.3693 65.6353 27.7272ZM78.5653 24.8891C78.5369 24.5766 78.4105 24.3337 78.1861 24.1604C77.9645 23.9843 77.6477 23.8962 77.2358 23.8962C76.9631 23.8962 76.7358 23.9318 76.554 24.0028C76.3722 24.0738 76.2358 24.1718 76.1449 24.2968C76.054 24.419 76.0071 24.5596 76.0043 24.7187C75.9986 24.8494 76.0241 24.9644 76.081 25.0639C76.1406 25.1633 76.2258 25.2514 76.3366 25.3281C76.4503 25.4019 76.5866 25.4673 76.7457 25.5241C76.9048 25.5809 77.0838 25.6306 77.2827 25.6732L78.0327 25.8437C78.4645 25.9374 78.8452 26.0624 79.1747 26.2187C79.5071 26.3749 79.7855 26.561 80.0099 26.7769C80.2372 26.9928 80.4091 27.2414 80.5256 27.5227C80.642 27.8039 80.7017 28.1193 80.7045 28.4687C80.7017 29.0198 80.5625 29.4928 80.2869 29.8877C80.0114 30.2826 79.615 30.5852 79.098 30.7954C78.5838 31.0056 77.9631 31.1107 77.2358 31.1107C76.5057 31.1107 75.8693 31.0014 75.3267 30.7826C74.7841 30.5639 74.3622 30.2315 74.0611 29.7854C73.7599 29.3394 73.6051 28.7755 73.5966 28.0937H75.6165C75.6335 28.3749 75.7088 28.6093 75.8423 28.7968C75.9758 28.9843 76.1591 29.1264 76.392 29.2229C76.6278 29.3195 76.9006 29.3678 77.2102 29.3678C77.4943 29.3678 77.7358 29.3295 77.9346 29.2528C78.1364 29.1761 78.2912 29.0695 78.3991 28.9332C78.5071 28.7968 78.5625 28.6406 78.5653 28.4644C78.5625 28.2997 78.5114 28.159 78.4119 28.0426C78.3125 27.9232 78.1591 27.821 77.9517 27.7357C77.7471 27.6477 77.4858 27.5667 77.1676 27.4928L76.2557 27.2798C75.5 27.1065 74.9048 26.8266 74.4702 26.4403C74.0355 26.0511 73.8196 25.5255 73.8224 24.8636C73.8196 24.3238 73.9645 23.8508 74.2571 23.4445C74.5497 23.0383 74.9545 22.7215 75.4716 22.4943C75.9886 22.267 76.5781 22.1533 77.24 22.1533C77.9162 22.1533 78.5028 22.2684 79 22.4985C79.5 22.7258 79.8878 23.0454 80.1633 23.4573C80.4389 23.8693 80.5795 24.3465 80.5852 24.8891H78.5653ZM85.4645 24.4545V25.9886H81.3352V24.4545H85.4645ZM82.2003 22.8863H84.2841V28.9417C84.2841 29.0695 84.304 29.1732 84.3437 29.2528C84.3864 29.3295 84.4474 29.3849 84.527 29.419C84.6065 29.4502 84.7017 29.4658 84.8125 29.4658C84.892 29.4658 84.9758 29.4587 85.0639 29.4445C85.1548 29.4275 85.223 29.4133 85.2685 29.4019L85.5838 30.9062C85.4844 30.9346 85.3437 30.9701 85.1619 31.0127C84.9829 31.0553 84.7685 31.0823 84.5185 31.0937C84.0298 31.1164 83.6108 31.0596 83.2614 30.9232C82.9148 30.784 82.6491 30.5681 82.4645 30.2755C82.2827 29.9829 82.1946 29.615 82.2003 29.1718V22.8863ZM89.5128 31.1235C88.8253 31.1235 88.2344 30.9829 87.74 30.7016C87.2486 30.4175 86.8693 30.0227 86.6023 29.517C86.3381 29.0085 86.206 28.419 86.206 27.7485C86.206 27.0752 86.3381 26.4857 86.6023 25.9801C86.8693 25.4715 87.2486 25.0766 87.74 24.7954C88.2344 24.5113 88.8253 24.3693 89.5128 24.3693C90.2003 24.3693 90.7898 24.5113 91.2812 24.7954C91.7756 25.0766 92.1548 25.4715 92.419 25.9801C92.6861 26.4857 92.8196 27.0752 92.8196 27.7485C92.8196 28.419 92.6861 29.0085 92.419 29.517C92.1548 30.0227 91.7756 30.4175 91.2812 30.7016C90.7898 30.9829 90.2003 31.1235 89.5128 31.1235ZM89.5256 29.5511C89.7756 29.5511 89.9872 29.4744 90.1605 29.321C90.3338 29.1675 90.4659 28.9545 90.5568 28.6818C90.6506 28.409 90.6974 28.0937 90.6974 27.7357C90.6974 27.3721 90.6506 27.0539 90.5568 26.7812C90.4659 26.5085 90.3338 26.2954 90.1605 26.142C89.9872 25.9886 89.7756 25.9119 89.5256 25.9119C89.267 25.9119 89.0483 25.9886 88.8693 26.142C88.6932 26.2954 88.5582 26.5085 88.4645 26.7812C88.3736 27.0539 88.3281 27.3721 88.3281 27.7357C88.3281 28.0937 88.3736 28.409 88.4645 28.6818C88.5582 28.9545 88.6932 29.1675 88.8693 29.321C89.0483 29.4744 89.267 29.5511 89.5256 29.5511ZM93.8871 30.9999V24.4545H95.9112V25.6477H95.9794C96.0987 25.2158 96.2933 24.8948 96.5632 24.6846C96.8331 24.4715 97.147 24.365 97.505 24.365C97.6015 24.365 97.701 24.3721 97.8033 24.3863C97.9055 24.3977 98.0007 24.4161 98.0888 24.4417V26.2528C97.9893 26.2187 97.8586 26.1917 97.6967 26.1718C97.5376 26.1519 97.3956 26.142 97.2706 26.142C97.0234 26.142 96.8004 26.1974 96.6015 26.3082C96.4055 26.4161 96.2507 26.5681 96.1371 26.7641C96.0263 26.9573 95.9709 27.1846 95.9709 27.446V30.9999H93.8871ZM101.658 31.1235C100.973 31.1235 100.382 30.9886 99.8849 30.7187C99.3906 30.446 99.0099 30.0582 98.7429 29.5553C98.4787 29.0497 98.3466 28.4488 98.3466 27.7528C98.3466 27.0766 98.4801 26.4857 98.7471 25.9801C99.0142 25.4715 99.3906 25.0766 99.8764 24.7954C100.362 24.5113 100.935 24.3693 101.594 24.3693C102.06 24.3693 102.486 24.4417 102.872 24.5866C103.259 24.7315 103.592 24.946 103.874 25.2301C104.155 25.5141 104.374 25.865 104.53 26.2826C104.686 26.6974 104.764 27.1732 104.764 27.7102V28.2301H99.0753V27.0198H102.825C102.822 26.7982 102.77 26.6008 102.668 26.4275C102.565 26.2542 102.425 26.1193 102.246 26.0227C102.07 25.9232 101.866 25.8735 101.636 25.8735C101.403 25.8735 101.195 25.9261 101.01 26.0312C100.825 26.1335 100.679 26.2741 100.571 26.4531C100.463 26.6292 100.406 26.8295 100.401 27.0539V28.2854C100.401 28.5525 100.453 28.7869 100.558 28.9886C100.663 29.1874 100.812 29.3423 101.006 29.4531C101.199 29.5639 101.429 29.6193 101.696 29.6193C101.881 29.6193 102.048 29.5937 102.199 29.5425C102.349 29.4914 102.479 29.4161 102.587 29.3167C102.695 29.2173 102.776 29.0951 102.83 28.9502L104.743 29.0056C104.663 29.4346 104.489 29.8082 104.219 30.1264C103.952 30.4417 103.601 30.6874 103.166 30.8636C102.732 31.0369 102.229 31.1235 101.658 31.1235Z" fill="white"/>
</g>
<rect x="0.75" y="0.749939" width="118.5" height="38.5" rx="5.25" stroke="white" stroke-opacity="0.15" stroke-width="1.5"/>
<defs>
<filter id="filter0_d_28_569" x="6" y="1.49994" width="36" height="36.5" filterUnits="userSpaceOnUse" color-interpolation-filters="sRGB">
<feFlood flood-opacity="0" result="BackgroundImageFix"/>
<feColorMatrix in="SourceAlpha" type="matrix" values="0 0 0 0 0 0 0 0 0 0 0 0 0 0 0 0 0 0 127 0" result="hardAlpha"/>
<feOffset/>
<feGaussianBlur stdDeviation="2"/>
<feComposite in2="hardAlpha" operator="out"/>
<feColorMatrix type="matrix" values="0 0 0 0 0 0 0 0 0 0 0 0 0 0 0 0 0 0 0.25 0"/>
<feBlend mode="normal" in2="BackgroundImageFix" result="effect1_dropShadow_28_569"/>
<feBlend mode="normal" in="SourceGraphic" in2="effect1_dropShadow_28_569" result="shape"/>
</filter>
<filter id="filter1_d_28_569" x="42" y="2.99994" width="72" height="34.4545" filterUnits="userSpaceOnUse" color-interpolation-filters="sRGB">
<feFlood flood-opacity="0" result="BackgroundImageFix"/>
<feColorMatrix in="SourceAlpha" type="matrix" values="0 0 0 0 0 0 0 0 0 0 0 0 0 0 0 0 0 0 127 0" result="hardAlpha"/>
<feOffset/>
<feGaussianBlur stdDeviation="2"/>
<feComposite in2="hardAlpha" operator="out"/>
<feColorMatrix type="matrix" values="0 0 0 0 0 0 0 0 0 0 0 0 0 0 0 0 0 0 0.25 0"/>
<feBlend mode="normal" in2="BackgroundImageFix" result="effect1_dropShadow_28_569"/>
<feBlend mode="normal" in="SourceGraphic" in2="effect1_dropShadow_28_569" result="shape"/>
</filter>
<linearGradient id="paint0_linear_28_569" x1="60" y1="-6.10351e-05" x2="60" y2="39.9999" gradientUnits="userSpaceOnUse">
<stop stop-color="#1E1E1E"/>
<stop offset="1" stop-color="#0D0D0D"/>
</linearGradient>
</defs>
</svg>
