<svg width="164" height="56" viewBox="0 0 164 56" fill="none" xmlns="http://www.w3.org/2000/svg">
<rect y="-0.00012207" width="164" height="56" rx="8" fill="url(#paint0_linear_2_3779)"/>
<rect x="1.05" y="1.04988" width="161.9" height="53.9" rx="6.95" stroke="white" stroke-opacity="0.15" stroke-width="2.1"/>
<g filter="url(#filter0_d_2_3779)">
<path d="M17 13V43H47M42 36.3333V23M33.6667 36.3333V16.3333M25.3333 36.3333V31.3333" stroke="#00DDC3" stroke-width="3" stroke-linecap="round" stroke-linejoin="round"/>
</g>
<g filter="url(#filter1_d_2_3779)">
<path d="M62.2613 24.4999H60.3977L64.5852 12.8635H66.6136L70.8011 24.4999H68.9375L65.6477 14.9771H65.5568L62.2613 24.4999ZM62.5738 19.9431H68.6193V21.4203H62.5738V19.9431ZM78.7173 15.7726L75.5525 24.4999H73.7343L70.5639 15.7726H72.3878L74.598 22.4885H74.6889L76.8934 15.7726H78.7173ZM82.6037 24.6931C82.0506 24.6931 81.5506 24.5908 81.1037 24.3862C80.6567 24.1779 80.3025 23.8768 80.0412 23.4828C79.7836 23.0889 79.6548 22.6059 79.6548 22.034C79.6548 21.5415 79.7495 21.1362 79.9389 20.8181C80.1283 20.4999 80.384 20.248 80.7059 20.0624C81.0279 19.8768 81.3877 19.7366 81.7855 19.6419C82.1832 19.5472 82.5885 19.4753 83.0014 19.426C83.5241 19.3654 83.9484 19.3162 84.2741 19.2783C84.5999 19.2366 84.8366 19.1703 84.9843 19.0794C85.1321 18.9885 85.2059 18.8408 85.2059 18.6362V18.5965C85.2059 18.1003 85.0658 17.7158 84.7855 17.4431C84.509 17.1703 84.0961 17.034 83.5468 17.034C82.9749 17.034 82.5241 17.1609 82.1946 17.4146C81.8688 17.6646 81.6434 17.9431 81.5184 18.2499L79.9218 17.8862C80.1112 17.3559 80.3877 16.9279 80.7514 16.6021C81.1188 16.2726 81.5412 16.034 82.0184 15.8862C82.4957 15.7347 82.9976 15.659 83.5241 15.659C83.8726 15.659 84.2419 15.7006 84.6321 15.784C85.026 15.8635 85.3934 16.0112 85.7343 16.2271C86.079 16.4431 86.3612 16.7518 86.5809 17.1533C86.8006 17.551 86.9105 18.0681 86.9105 18.7044V24.4999H85.2514V23.3067H85.1832C85.0734 23.5264 84.9086 23.7423 84.6889 23.9544C84.4692 24.1665 84.187 24.3427 83.8423 24.4828C83.4976 24.623 83.0847 24.6931 82.6037 24.6931ZM82.973 23.3294C83.4427 23.3294 83.8442 23.2366 84.1775 23.051C84.5146 22.8654 84.7703 22.623 84.9446 22.3237C85.1226 22.0207 85.2116 21.6968 85.2116 21.3521V20.2271C85.151 20.2878 85.0336 20.3446 84.8593 20.3976C84.6889 20.4468 84.4938 20.4904 84.2741 20.5283C84.0544 20.5624 83.8404 20.5946 83.6321 20.6249C83.4237 20.6514 83.2495 20.6741 83.1093 20.6931C82.7798 20.7347 82.4787 20.8048 82.2059 20.9033C81.937 21.0018 81.7211 21.1438 81.5582 21.3294C81.3991 21.5112 81.3196 21.7537 81.3196 22.0567C81.3196 22.4771 81.4749 22.7953 81.7855 23.0112C82.0961 23.2234 82.4919 23.3294 82.973 23.3294ZM89.1733 24.4999V15.7726H90.8721V24.4999H89.1733ZM90.0312 14.426C89.7358 14.426 89.482 14.3275 89.2698 14.1306C89.0615 13.9298 88.9573 13.6912 88.9573 13.4146C88.9573 13.1343 89.0615 12.8957 89.2698 12.6987C89.482 12.498 89.7358 12.3976 90.0312 12.3976C90.3267 12.3976 90.5786 12.498 90.7869 12.6987C90.999 12.8957 91.1051 13.1343 91.1051 13.4146C91.1051 13.6912 90.999 13.9298 90.7869 14.1306C90.5786 14.3275 90.3267 14.426 90.0312 14.426ZM94.8565 12.8635V24.4999H93.1576V12.8635H94.8565ZM99.6818 24.6931C99.1287 24.6931 98.6287 24.5908 98.1818 24.3862C97.7348 24.1779 97.3806 23.8768 97.1193 23.4828C96.8617 23.0889 96.7329 22.6059 96.7329 22.034C96.7329 21.5415 96.8276 21.1362 97.017 20.8181C97.2064 20.4999 97.4621 20.248 97.784 20.0624C98.106 19.8768 98.4659 19.7366 98.8636 19.6419C99.2613 19.5472 99.6666 19.4753 100.08 19.426C100.602 19.3654 101.026 19.3162 101.352 19.2783C101.678 19.2366 101.915 19.1703 102.062 19.0794C102.21 18.9885 102.284 18.8408 102.284 18.6362V18.5965C102.284 18.1003 102.144 17.7158 101.864 17.4431C101.587 17.1703 101.174 17.034 100.625 17.034C100.053 17.034 99.6022 17.1609 99.2727 17.4146C98.9469 17.6646 98.7215 17.9431 98.5965 18.2499L97 17.8862C97.1894 17.3559 97.4659 16.9279 97.8295 16.6021C98.1969 16.2726 98.6193 16.034 99.0965 15.8862C99.5738 15.7347 100.076 15.659 100.602 15.659C100.951 15.659 101.32 15.7006 101.71 15.784C102.104 15.8635 102.472 16.0112 102.812 16.2271C103.157 16.4431 103.439 16.7518 103.659 17.1533C103.879 17.551 103.989 18.0681 103.989 18.7044V24.4999H102.33V23.3067H102.261C102.151 23.5264 101.987 23.7423 101.767 23.9544C101.547 24.1665 101.265 24.3427 100.92 24.4828C100.576 24.623 100.163 24.6931 99.6818 24.6931ZM100.051 23.3294C100.521 23.3294 100.922 23.2366 101.256 23.051C101.593 22.8654 101.848 22.623 102.023 22.3237C102.201 22.0207 102.29 21.6968 102.29 21.3521V20.2271C102.229 20.2878 102.112 20.3446 101.937 20.3976C101.767 20.4468 101.572 20.4904 101.352 20.5283C101.133 20.5624 100.919 20.5946 100.71 20.6249C100.502 20.6514 100.328 20.6741 100.187 20.6931C99.8579 20.7347 99.5568 20.8048 99.284 20.9033C99.0151 21.0018 98.7992 21.1438 98.6363 21.3294C98.4772 21.5112 98.3977 21.7537 98.3977 22.0567C98.3977 22.4771 98.553 22.7953 98.8636 23.0112C99.1742 23.2234 99.57 23.3294 100.051 23.3294ZM106.388 24.4999V12.8635H108.087V17.1874H108.189C108.287 17.0056 108.429 16.7953 108.615 16.5567C108.801 16.3181 109.058 16.1097 109.388 15.9317C109.717 15.7499 110.153 15.659 110.695 15.659C111.399 15.659 112.028 15.837 112.581 16.1931C113.134 16.5491 113.568 17.0624 113.882 17.7328C114.2 18.4033 114.359 19.2101 114.359 20.1533C114.359 21.0965 114.202 21.9052 113.888 22.5794C113.573 23.2499 113.142 23.7669 112.592 24.1306C112.043 24.4904 111.416 24.6703 110.712 24.6703C110.181 24.6703 109.748 24.5813 109.41 24.4033C109.077 24.2253 108.816 24.0169 108.626 23.7783C108.437 23.5396 108.291 23.3275 108.189 23.1419H108.047V24.4999H106.388ZM108.053 20.1362C108.053 20.7499 108.142 21.2878 108.32 21.7499C108.498 22.212 108.755 22.5737 109.092 22.8351C109.429 23.0927 109.842 23.2215 110.331 23.2215C110.838 23.2215 111.263 23.087 111.604 22.8181C111.945 22.5453 112.202 22.176 112.376 21.7101C112.554 21.2442 112.643 20.7196 112.643 20.1362C112.643 19.5605 112.556 19.0434 112.382 18.5851C112.212 18.1268 111.954 17.765 111.609 17.4999C111.268 17.2347 110.842 17.1021 110.331 17.1021C109.838 17.1021 109.422 17.229 109.081 17.4828C108.744 17.7366 108.488 18.0908 108.314 18.5453C108.14 18.9999 108.053 19.5302 108.053 20.1362ZM117.966 12.8635V24.4999H116.267V12.8635H117.966ZM124.013 24.676C123.153 24.676 122.412 24.4923 121.791 24.1249C121.174 23.7537 120.696 23.2328 120.359 22.5624C120.026 21.8881 119.859 21.0984 119.859 20.1931C119.859 19.2991 120.026 18.5112 120.359 17.8294C120.696 17.1476 121.166 16.6154 121.768 16.2328C122.374 15.8503 123.083 15.659 123.893 15.659C124.386 15.659 124.863 15.7404 125.325 15.9033C125.787 16.0662 126.202 16.3218 126.57 16.6703C126.937 17.0188 127.227 17.4715 127.439 18.0283C127.651 18.5813 127.757 19.2537 127.757 20.0453V20.6476H120.82V19.3749H126.092C126.092 18.9279 126.001 18.5321 125.82 18.1874C125.638 17.8389 125.382 17.5643 125.053 17.3635C124.727 17.1628 124.344 17.0624 123.905 17.0624C123.428 17.0624 123.011 17.1798 122.655 17.4146C122.303 17.6457 122.03 17.9487 121.837 18.3237C121.647 18.695 121.553 19.0984 121.553 19.534V20.5283C121.553 21.1116 121.655 21.6078 121.859 22.0169C122.068 22.426 122.357 22.7385 122.729 22.9544C123.1 23.1665 123.534 23.2726 124.03 23.2726C124.352 23.2726 124.645 23.2271 124.91 23.1362C125.176 23.0415 125.405 22.9014 125.598 22.7158C125.791 22.5302 125.939 22.301 126.041 22.0283L127.649 22.3181C127.52 22.7915 127.289 23.2063 126.956 23.5624C126.626 23.9146 126.212 24.1893 125.712 24.3862C125.215 24.5794 124.649 24.676 124.013 24.676ZM137.553 24.676C136.734 24.676 136.02 24.4885 135.41 24.1135C134.801 23.7385 134.327 23.2139 133.99 22.5396C133.653 21.8654 133.484 21.0775 133.484 20.176C133.484 19.2707 133.653 18.479 133.99 17.801C134.327 17.123 134.801 16.5965 135.41 16.2215C136.02 15.8465 136.734 15.659 137.553 15.659C138.371 15.659 139.085 15.8465 139.695 16.2215C140.304 16.5965 140.778 17.123 141.115 17.801C141.452 18.479 141.621 19.2707 141.621 20.176C141.621 21.0775 141.452 21.8654 141.115 22.5396C140.778 23.2139 140.304 23.7385 139.695 24.1135C139.085 24.4885 138.371 24.676 137.553 24.676ZM137.558 23.2499C138.088 23.2499 138.528 23.1097 138.876 22.8294C139.225 22.5491 139.482 22.176 139.649 21.7101C139.82 21.2442 139.905 20.7309 139.905 20.1703C139.905 19.6135 139.82 19.1021 139.649 18.6362C139.482 18.1665 139.225 17.7896 138.876 17.5056C138.528 17.2215 138.088 17.0794 137.558 17.0794C137.024 17.0794 136.581 17.2215 136.229 17.5056C135.88 17.7896 135.621 18.1665 135.45 18.6362C135.284 19.1021 135.2 19.6135 135.2 20.1703C135.2 20.7309 135.284 21.2442 135.45 21.7101C135.621 22.176 135.88 22.5491 136.229 22.8294C136.581 23.1097 137.024 23.2499 137.558 23.2499ZM145.216 19.3181V24.4999H143.517V15.7726H145.148V17.1931H145.256C145.456 16.7309 145.771 16.3597 146.199 16.0794C146.631 15.7991 147.174 15.659 147.829 15.659C148.424 15.659 148.945 15.784 149.392 16.034C149.839 16.2802 150.186 16.6476 150.432 17.1362C150.678 17.6249 150.801 18.229 150.801 18.9487V24.4999H149.102V19.1533C149.102 18.5207 148.937 18.0264 148.608 17.6703C148.278 17.3105 147.826 17.1306 147.25 17.1306C146.856 17.1306 146.506 17.2158 146.199 17.3862C145.896 17.5567 145.655 17.8067 145.477 18.1362C145.303 18.462 145.216 18.8559 145.216 19.3181Z" fill="#E8E8E8"/>
<path d="M60.9357 43.4999V31.1362H63.8878V35.8149H63.9481C64.0689 35.5331 64.2399 35.2615 64.4613 34.9999C64.6866 34.7383 64.9724 34.525 65.3185 34.36C65.6686 34.1909 66.0872 34.1064 66.5742 34.1064C67.2181 34.1064 67.8198 34.2754 68.3792 34.6135C68.9427 34.9516 69.3975 35.4728 69.7436 36.1771C70.0897 36.8814 70.2628 37.7789 70.2628 38.8695C70.2628 39.92 70.0957 40.7994 69.7617 41.5077C69.4317 42.216 68.9849 42.7473 68.4215 43.1014C67.8621 43.4556 67.2403 43.6327 66.5561 43.6327C66.0892 43.6327 65.6847 43.5562 65.3427 43.4033C65.0006 43.2503 64.7128 43.0491 64.4794 42.7996C64.25 42.5501 64.0729 42.2824 63.9481 41.9967H63.8576V43.4999H60.9357ZM63.8274 38.8635C63.8274 39.3626 63.8938 39.7972 64.0266 40.1675C64.1634 40.5378 64.3586 40.8255 64.6122 41.0308C64.8698 41.232 65.1776 41.3326 65.5358 41.3326C65.8981 41.3326 66.2059 41.232 66.4595 41.0308C66.713 40.8255 66.9042 40.5378 67.033 40.1675C67.1658 39.7972 67.2322 39.3626 67.2322 38.8635C67.2322 38.3645 67.1658 37.9318 67.033 37.5656C66.9042 37.1993 66.713 36.9156 66.4595 36.7144C66.21 36.5131 65.9021 36.4125 65.5358 36.4125C65.1736 36.4125 64.8657 36.5111 64.6122 36.7083C64.3586 36.9055 64.1634 37.1873 64.0266 37.5535C63.8938 37.9197 63.8274 38.3564 63.8274 38.8635ZM78.4926 34.8429C78.4523 34.4002 78.2733 34.0561 77.9553 33.8106C77.6414 33.5611 77.1926 33.4363 76.6091 33.4363C76.2227 33.4363 75.9007 33.4866 75.6432 33.5872C75.3856 33.6878 75.1924 33.8267 75.0636 34.0038C74.9348 34.1768 74.8684 34.3761 74.8644 34.6014C74.8564 34.7866 74.8926 34.9496 74.9731 35.0904C75.0576 35.2313 75.1783 35.3561 75.3353 35.4647C75.4963 35.5694 75.6894 35.6619 75.9148 35.7424C76.1402 35.8229 76.3938 35.8933 76.6755 35.9537L77.738 36.1952C78.3497 36.328 78.889 36.5051 79.3559 36.7264C79.8268 36.9478 80.2212 37.2114 80.5391 37.5173C80.8611 37.8231 81.1046 38.1753 81.2696 38.5737C81.4346 38.9722 81.5191 39.4189 81.5231 39.9139C81.5191 40.6947 81.3219 41.3648 80.9315 41.9242C80.5411 42.4837 79.9797 42.9123 79.2472 43.2101C78.5188 43.5079 77.6394 43.6568 76.6091 43.6568C75.5747 43.6568 74.6732 43.5019 73.9045 43.192C73.1358 42.8821 72.5382 42.4112 72.1116 41.7793C71.685 41.1475 71.4656 40.3486 71.4535 39.3827H74.315C74.3392 39.7811 74.4458 40.1132 74.635 40.3788C74.8242 40.6444 75.0837 40.8456 75.4138 40.9825C75.7478 41.1193 76.1342 41.1877 76.5729 41.1877C76.9753 41.1877 77.3174 41.1334 77.5991 41.0247C77.8849 40.9161 78.1042 40.7651 78.2572 40.572C78.4101 40.3788 78.4886 40.1574 78.4926 39.9079C78.4886 39.6745 78.4161 39.4753 78.2753 39.3102C78.1344 39.1412 77.9171 38.9963 77.6233 38.8756C77.3335 38.7508 76.9632 38.6361 76.5125 38.5315L75.2206 38.2296C74.15 37.9841 73.3069 37.5877 72.6911 37.0404C72.0753 36.489 71.7695 35.7444 71.7735 34.8067C71.7695 34.042 71.9747 33.3719 72.3893 32.7964C72.8038 32.2209 73.3773 31.7721 74.1098 31.4502C74.8423 31.1282 75.6774 30.9672 76.6151 30.9672C77.573 30.9672 78.4041 31.1302 79.1084 31.4562C79.8167 31.7782 80.3661 32.2309 80.7564 32.8145C81.1468 33.3981 81.3461 34.0742 81.3541 34.8429H78.4926ZM88.2664 34.2271V36.4004H82.4166V34.2271H88.2664ZM83.6421 32.0056H86.5942V40.584C86.5942 40.7651 86.6223 40.912 86.6787 41.0247C86.739 41.1334 86.8256 41.2119 86.9383 41.2602C87.0509 41.3044 87.1858 41.3266 87.3427 41.3266C87.4554 41.3266 87.5742 41.3165 87.6989 41.2964C87.8277 41.2722 87.9243 41.2521 87.9887 41.236L88.4354 43.3671C88.2946 43.4073 88.0953 43.4576 87.8378 43.518C87.5842 43.5784 87.2804 43.6166 86.9262 43.6327C86.234 43.6649 85.6403 43.5844 85.1453 43.3912C84.6543 43.194 84.278 42.8881 84.0164 42.4736C83.7588 42.0591 83.634 41.5379 83.6421 40.91V32.0056ZM92.3866 43.6568C91.795 43.6568 91.2698 43.5582 90.811 43.361C90.3562 43.1598 89.996 42.8579 89.7303 42.4555C89.4687 42.049 89.3379 41.5399 89.3379 40.9281C89.3379 40.413 89.4285 39.9783 89.6096 39.6242C89.7907 39.27 90.0402 38.9822 90.3582 38.7609C90.6761 38.5395 91.0424 38.3725 91.4569 38.2598C91.8714 38.1431 92.3141 38.0646 92.785 38.0244C93.3123 37.9761 93.7369 37.9258 94.0588 37.8735C94.3808 37.8171 94.6142 37.7386 94.7591 37.638C94.908 37.5334 94.9825 37.3865 94.9825 37.1973V37.1671C94.9825 36.8572 94.8758 36.6178 94.6625 36.4487C94.4492 36.2797 94.1614 36.1952 93.7992 36.1952C93.4088 36.1952 93.0949 36.2797 92.8575 36.4487C92.62 36.6178 92.4691 36.8512 92.4047 37.149L89.682 37.0524C89.7625 36.489 89.9698 35.9859 90.3038 35.5432C90.6419 35.0965 91.1047 34.7463 91.6923 34.4928C92.284 34.2352 92.9943 34.1064 93.8234 34.1064C94.415 34.1064 94.9603 34.1768 95.4594 34.3177C95.9584 34.4545 96.3931 34.6558 96.7634 34.9214C97.1336 35.183 97.4194 35.505 97.6206 35.8873C97.8259 36.2696 97.9285 36.7063 97.9285 37.1973V43.4999H95.1515V42.208H95.0791C94.9141 42.5219 94.7028 42.7875 94.4452 43.0048C94.1916 43.2222 93.8918 43.3852 93.5457 43.4938C93.2036 43.6025 92.8172 43.6568 92.3866 43.6568ZM93.2982 41.725C93.6161 41.725 93.9019 41.6606 94.1554 41.5318C94.413 41.403 94.6182 41.226 94.7712 41.0006C94.9241 40.7712 95.0006 40.5056 95.0006 40.2037V39.3223C94.9161 39.3666 94.8134 39.4068 94.6927 39.4431C94.576 39.4793 94.4472 39.5135 94.3063 39.5457C94.1655 39.5779 94.0206 39.6061 93.8717 39.6302C93.7228 39.6543 93.5799 39.6765 93.4431 39.6966C93.1654 39.7409 92.9279 39.8093 92.7307 39.9019C92.5375 39.9944 92.3886 40.1152 92.284 40.2641C92.1833 40.409 92.133 40.582 92.133 40.7833C92.133 41.0891 92.2417 41.3226 92.459 41.4835C92.6804 41.6445 92.9601 41.725 93.2982 41.725ZM104.968 34.2271V36.4004H99.1178V34.2271H104.968ZM100.343 32.0056H103.295V40.584C103.295 40.7651 103.323 40.912 103.38 41.0247C103.44 41.1334 103.527 41.2119 103.639 41.2602C103.752 41.3044 103.887 41.3266 104.044 41.3266C104.157 41.3266 104.275 41.3165 104.4 41.2964C104.529 41.2722 104.625 41.2521 104.69 41.236L105.137 43.3671C104.996 43.4073 104.797 43.4576 104.539 43.518C104.285 43.5784 103.982 43.6166 103.627 43.6327C102.935 43.6649 102.341 43.5844 101.846 43.3912C101.355 43.194 100.979 42.8881 100.718 42.4736C100.46 42.0591 100.335 41.5379 100.343 40.91V32.0056ZM114.453 37.0585L111.742 37.1309C111.714 36.9377 111.638 36.7667 111.513 36.6178C111.388 36.4648 111.225 36.3461 111.024 36.2616C110.827 36.1731 110.597 36.1288 110.336 36.1288C109.994 36.1288 109.702 36.1972 109.461 36.334C109.223 36.4709 109.106 36.656 109.11 36.8894C109.106 37.0705 109.179 37.2275 109.328 37.3603C109.481 37.4931 109.752 37.5998 110.143 37.6803L111.93 38.0183C112.855 38.1954 113.544 38.4892 113.994 38.8997C114.449 39.3102 114.678 39.8536 114.682 40.5297C114.678 41.1656 114.489 41.719 114.115 42.1899C113.745 42.6607 113.238 43.027 112.594 43.2886C111.95 43.5462 111.213 43.6749 110.384 43.6749C109.06 43.6749 108.016 43.4033 107.251 42.86C106.49 42.3126 106.056 41.5801 105.947 40.6625L108.863 40.5901C108.927 40.9281 109.094 41.1857 109.364 41.3628C109.634 41.5399 109.978 41.6284 110.396 41.6284C110.775 41.6284 111.082 41.558 111.32 41.4171C111.557 41.2763 111.678 41.0891 111.682 40.8557C111.678 40.6464 111.586 40.4794 111.404 40.3546C111.223 40.2258 110.94 40.1252 110.553 40.0528L108.935 39.7449C108.006 39.5759 107.313 39.264 106.859 38.8092C106.404 38.3504 106.178 37.7668 106.182 37.0585C106.178 36.4387 106.343 35.9094 106.678 35.4708C107.012 35.028 107.486 34.69 108.102 34.4566C108.718 34.2231 109.444 34.1064 110.282 34.1064C111.537 34.1064 112.527 34.37 113.252 34.8972C113.976 35.4204 114.377 36.1409 114.453 37.0585Z" fill="#00DDC3"/>
</g>
<defs>
<filter id="filter0_d_2_3779" x="6.28571" y="2.28559" width="51.4286" height="51.4287" filterUnits="userSpaceOnUse" color-interpolation-filters="sRGB">
<feFlood flood-opacity="0" result="BackgroundImageFix"/>
<feColorMatrix in="SourceAlpha" type="matrix" values="0 0 0 0 0 0 0 0 0 0 0 0 0 0 0 0 0 0 127 0" result="hardAlpha"/>
<feOffset/>
<feGaussianBlur stdDeviation="2.85714"/>
<feComposite in2="hardAlpha" operator="out"/>
<feColorMatrix type="matrix" values="0 0 0 0 0 0 0 0 0 0 0 0 0 0 0 0 0 0 0.25 0"/>
<feBlend mode="normal" in2="BackgroundImageFix" result="effect1_dropShadow_2_3779"/>
<feBlend mode="normal" in="SourceGraphic" in2="effect1_dropShadow_2_3779" result="shape"/>
</filter>
<filter id="filter1_d_2_3779" x="54.4" y="3.89988" width="103.2" height="48.2" filterUnits="userSpaceOnUse" color-interpolation-filters="sRGB">
<feFlood flood-opacity="0" result="BackgroundImageFix"/>
<feColorMatrix in="SourceAlpha" type="matrix" values="0 0 0 0 0 0 0 0 0 0 0 0 0 0 0 0 0 0 127 0" result="hardAlpha"/>
<feOffset/>
<feGaussianBlur stdDeviation="2.8"/>
<feComposite in2="hardAlpha" operator="out"/>
<feColorMatrix type="matrix" values="0 0 0 0 0 0 0 0 0 0 0 0 0 0 0 0 0 0 0.25 0"/>
<feBlend mode="normal" in2="BackgroundImageFix" result="effect1_dropShadow_2_3779"/>
<feBlend mode="normal" in="SourceGraphic" in2="effect1_dropShadow_2_3779" result="shape"/>
</filter>
<linearGradient id="paint0_linear_2_3779" x1="82" y1="-0.00012207" x2="82" y2="55.9999" gradientUnits="userSpaceOnUse">
<stop stop-color="#002723"/>
<stop offset="1" stop-color="#001D19"/>
</linearGradient>
</defs>
</svg>
