<svg width="164" height="56" viewBox="0 0 164 56" fill="none" xmlns="http://www.w3.org/2000/svg">
<rect y="-0.00012207" width="164" height="56" rx="8" fill="url(#paint0_linear_2_3325)"/>
<rect x="1.05" y="1.04988" width="161.9" height="53.9" rx="6.95" stroke="white" stroke-opacity="0.15" stroke-width="2.1"/>
<g filter="url(#filter0_d_2_3325)">
<path d="M22.5209 8V11.2692H16.5239V14.1538H13.4286V17.4231H16.5239V20.3077H19.6191V23.3846H25.8096V26.4615H38.1906V23.3846H44.381V20.3077H47.2828V29.7308H44.381V38.7692H41.0923V44.9231H22.5209V48H41.0923V44.9231H44.381V38.7692H47.2828V29.7308H50.5715V14.1538H47.2828V17.4231H44.381V20.3077H38.1906V23.3846H25.8096V20.3077H19.6191V17.4231H16.5239V14.1538H22.5209V11.2692H32.0001V8H22.5209Z" fill="#353535"/>
<path d="M32.0001 8V11.2692H41.0924V14.1538H47.2828V11.2692H41.0924V8H32.0001Z" fill="#515151"/>
<path d="M22.521 11.2692V14.1538H25.8097V11.2692H22.521Z" fill="#A37B63"/>
<path d="M25.8095 11.2692V14.1538H28.9047V11.2692H25.8095Z" fill="#AB826B"/>
<path d="M28.9049 11.2692V14.1538H34.9019V11.2692H28.9049Z" fill="#ABA26B"/>
<path d="M34.9019 11.2692V14.1538H38.1906V11.2692H34.9019Z" fill="#AB826B"/>
<path d="M38.1904 11.2692V14.1538H41.0922V17.423H44.3809V14.1538H41.0922V11.2692H38.1904Z" fill="#BF967E"/>
<path d="M16.5238 14.1539V17.4232H19.6191V14.1539H16.5238Z" fill="#958C55"/>
<path d="M19.6192 14.1539V17.4232H22.521V14.1539H19.6192Z" fill="#956C55"/>
<path d="M22.521 14.1539V17.4232H25.8097V14.1539H22.521Z" fill="#C33E1F"/>
<path d="M25.8095 14.1539V17.4232H28.9047V20.3078H32V23.3847H38.1905V20.3078H32V17.4232H28.9047V14.1539H25.8095Z" fill="#E38C3F"/>
<path d="M28.9049 14.1539V17.4232H32.0001V20.3078H38.1906V17.4232H34.9019V14.1539H28.9049Z" fill="#E4D25C"/>
<path d="M34.9019 14.1539V17.4232H38.1906V14.1539H34.9019Z" fill="#E38C3F"/>
<path d="M38.1904 14.1539V17.4232H41.0922V20.3078H44.3809V17.4232H41.0922V14.1539H38.1904Z" fill="#CC4628"/>
<path d="M44.381 14.1539V17.4232H47.2828V14.1539H44.381Z" fill="#BFB67E"/>
<path d="M13.4287 17.4231V29.7308H16.5239V38.7693H19.6192V44.9231H22.521V38.7693H19.6192V29.7308H16.5239V17.4231H13.4287Z" fill="#515151"/>
<path d="M19.6192 17.4231V20.3077H22.521V17.4231H19.6192Z" fill="#DC8638"/>
<path d="M22.521 17.4231V20.3077H25.8097V23.3846H28.9049V17.4231H22.521Z" fill="#E2CF5A"/>
<path d="M38.1904 17.4231V20.3077H41.0922V17.4231H38.1904Z" fill="#EA9346"/>
<path d="M16.5238 20.3076V23.3845H19.6191V26.4615H25.8095V23.3845H19.6191V20.3076H16.5238Z" fill="#E7E7E7"/>
<path d="M28.9049 20.3076V23.3845H32.0001V20.3076H28.9049Z" fill="#C54021"/>
<path d="M44.381 20.3076V23.3845H47.2828V20.3076H44.381Z" fill="#A9A9A9"/>
<path d="M16.5238 23.3846V29.7308H19.6191V38.7693H22.5209V42.0385H25.8095V44.9231H32V32.6154H28.9048V29.7308H25.8095V32.6154H22.5209V26.4616H19.6191V23.3846H16.5238Z" fill="#D8D8D8"/>
<path d="M38.1904 23.3846V26.4616H41.0922V23.3846H38.1904Z" fill="#EAD762"/>
<path d="M41.0925 23.3846V26.4616H44.3812V23.3846H41.0925Z" fill="#CB4627"/>
<path d="M44.3812 23.3846V29.7308H41.0925V38.7693H44.3812V29.7308H47.2829V23.3846H44.3812Z" fill="#727272"/>
<path d="M22.521 26.4615V32.6154H25.8097V26.4615H22.521Z" fill="white"/>
<path d="M25.8095 26.4615V29.7308H28.9047V26.4615H25.8095Z" fill="#D85334"/>
<path d="M28.9049 26.4615V29.7308H38.1906V26.4615H28.9049Z" fill="#CACACA"/>
<path d="M38.1904 26.4615V29.7308H41.0922V26.4615H38.1904Z" fill="#E99245"/>
<path d="M41.0925 26.4615V29.7308H44.3812V26.4615H41.0925Z" fill="#969696"/>
<path d="M28.9049 29.7308V32.6155H32.0001V42.0385H34.9019V32.6155H38.1906V29.7308H28.9049Z" fill="#A8A8A8"/>
<path d="M38.1904 29.7308V32.6155H41.0922V29.7308H38.1904Z" fill="#CB4627"/>
<path d="M25.8095 32.6152V38.7691H28.9047V32.6152H25.8095Z" fill="white"/>
<path d="M34.9019 32.6152V42.0383H32.0001V44.9229H41.0924V38.7691H38.1906V35.8845H41.0924V32.6152H34.9019Z" fill="#969696"/>
<path d="M38.1904 35.8846V38.7693H41.0922V35.8846H38.1904Z" fill="#CB4627"/>
<path d="M22.521 42.0385V44.9231H25.8097V42.0385H22.521Z" fill="#969696"/>
</g>
<g filter="url(#filter1_d_2_3325)">
<path d="M62.2613 24.4999H60.3977L64.5852 12.8635H66.6136L70.8011 24.4999H68.9375L65.6477 14.9771H65.5568L62.2613 24.4999ZM62.5738 19.9431H68.6193V21.4203H62.5738V19.9431ZM78.7173 15.7726L75.5525 24.4999H73.7343L70.5639 15.7726H72.3878L74.598 22.4885H74.6889L76.8934 15.7726H78.7173ZM82.6037 24.6931C82.0506 24.6931 81.5506 24.5908 81.1037 24.3862C80.6567 24.1779 80.3025 23.8768 80.0412 23.4828C79.7836 23.0889 79.6548 22.6059 79.6548 22.034C79.6548 21.5415 79.7495 21.1362 79.9389 20.8181C80.1283 20.4999 80.384 20.248 80.7059 20.0624C81.0279 19.8768 81.3877 19.7366 81.7855 19.6419C82.1832 19.5472 82.5885 19.4753 83.0014 19.426C83.5241 19.3654 83.9484 19.3162 84.2741 19.2783C84.5999 19.2366 84.8366 19.1703 84.9843 19.0794C85.1321 18.9885 85.2059 18.8408 85.2059 18.6362V18.5965C85.2059 18.1003 85.0658 17.7158 84.7855 17.4431C84.509 17.1703 84.0961 17.034 83.5468 17.034C82.9749 17.034 82.5241 17.1609 82.1946 17.4146C81.8688 17.6646 81.6434 17.9431 81.5184 18.2499L79.9218 17.8862C80.1112 17.3559 80.3877 16.9279 80.7514 16.6021C81.1188 16.2726 81.5412 16.034 82.0184 15.8862C82.4957 15.7347 82.9976 15.659 83.5241 15.659C83.8726 15.659 84.2419 15.7006 84.6321 15.784C85.026 15.8635 85.3934 16.0112 85.7343 16.2271C86.079 16.4431 86.3612 16.7518 86.5809 17.1533C86.8006 17.551 86.9105 18.0681 86.9105 18.7044V24.4999H85.2514V23.3067H85.1832C85.0734 23.5264 84.9086 23.7423 84.6889 23.9544C84.4692 24.1665 84.187 24.3427 83.8423 24.4828C83.4976 24.623 83.0847 24.6931 82.6037 24.6931ZM82.973 23.3294C83.4427 23.3294 83.8442 23.2366 84.1775 23.051C84.5146 22.8654 84.7703 22.623 84.9446 22.3237C85.1226 22.0207 85.2116 21.6968 85.2116 21.3521V20.2271C85.151 20.2878 85.0336 20.3446 84.8593 20.3976C84.6889 20.4468 84.4938 20.4904 84.2741 20.5283C84.0544 20.5624 83.8404 20.5946 83.6321 20.6249C83.4237 20.6514 83.2495 20.6741 83.1093 20.6931C82.7798 20.7347 82.4787 20.8048 82.2059 20.9033C81.937 21.0018 81.7211 21.1438 81.5582 21.3294C81.3991 21.5112 81.3196 21.7537 81.3196 22.0567C81.3196 22.4771 81.4749 22.7953 81.7855 23.0112C82.0961 23.2234 82.4919 23.3294 82.973 23.3294ZM89.1733 24.4999V15.7726H90.8721V24.4999H89.1733ZM90.0312 14.426C89.7358 14.426 89.482 14.3275 89.2698 14.1306C89.0615 13.9298 88.9573 13.6912 88.9573 13.4146C88.9573 13.1343 89.0615 12.8957 89.2698 12.6987C89.482 12.498 89.7358 12.3976 90.0312 12.3976C90.3267 12.3976 90.5786 12.498 90.7869 12.6987C90.999 12.8957 91.1051 13.1343 91.1051 13.4146C91.1051 13.6912 90.999 13.9298 90.7869 14.1306C90.5786 14.3275 90.3267 14.426 90.0312 14.426ZM94.8565 12.8635V24.4999H93.1576V12.8635H94.8565ZM99.6818 24.6931C99.1287 24.6931 98.6287 24.5908 98.1818 24.3862C97.7348 24.1779 97.3806 23.8768 97.1193 23.4828C96.8617 23.0889 96.7329 22.6059 96.7329 22.034C96.7329 21.5415 96.8276 21.1362 97.017 20.8181C97.2064 20.4999 97.4621 20.248 97.784 20.0624C98.106 19.8768 98.4659 19.7366 98.8636 19.6419C99.2613 19.5472 99.6666 19.4753 100.08 19.426C100.602 19.3654 101.026 19.3162 101.352 19.2783C101.678 19.2366 101.915 19.1703 102.062 19.0794C102.21 18.9885 102.284 18.8408 102.284 18.6362V18.5965C102.284 18.1003 102.144 17.7158 101.864 17.4431C101.587 17.1703 101.174 17.034 100.625 17.034C100.053 17.034 99.6022 17.1609 99.2727 17.4146C98.9469 17.6646 98.7215 17.9431 98.5965 18.2499L97 17.8862C97.1894 17.3559 97.4659 16.9279 97.8295 16.6021C98.1969 16.2726 98.6193 16.034 99.0965 15.8862C99.5738 15.7347 100.076 15.659 100.602 15.659C100.951 15.659 101.32 15.7006 101.71 15.784C102.104 15.8635 102.472 16.0112 102.812 16.2271C103.157 16.4431 103.439 16.7518 103.659 17.1533C103.879 17.551 103.989 18.0681 103.989 18.7044V24.4999H102.33V23.3067H102.261C102.151 23.5264 101.987 23.7423 101.767 23.9544C101.547 24.1665 101.265 24.3427 100.92 24.4828C100.576 24.623 100.163 24.6931 99.6818 24.6931ZM100.051 23.3294C100.521 23.3294 100.922 23.2366 101.256 23.051C101.593 22.8654 101.848 22.623 102.023 22.3237C102.201 22.0207 102.29 21.6968 102.29 21.3521V20.2271C102.229 20.2878 102.112 20.3446 101.937 20.3976C101.767 20.4468 101.572 20.4904 101.352 20.5283C101.133 20.5624 100.919 20.5946 100.71 20.6249C100.502 20.6514 100.328 20.6741 100.187 20.6931C99.8579 20.7347 99.5568 20.8048 99.284 20.9033C99.0151 21.0018 98.7992 21.1438 98.6363 21.3294C98.4772 21.5112 98.3977 21.7537 98.3977 22.0567C98.3977 22.4771 98.553 22.7953 98.8636 23.0112C99.1742 23.2234 99.57 23.3294 100.051 23.3294ZM106.388 24.4999V12.8635H108.087V17.1874H108.189C108.287 17.0056 108.429 16.7953 108.615 16.5567C108.801 16.3181 109.058 16.1097 109.388 15.9317C109.717 15.7499 110.153 15.659 110.695 15.659C111.399 15.659 112.028 15.837 112.581 16.1931C113.134 16.5491 113.568 17.0624 113.882 17.7328C114.2 18.4033 114.359 19.2101 114.359 20.1533C114.359 21.0965 114.202 21.9052 113.888 22.5794C113.573 23.2499 113.142 23.7669 112.592 24.1306C112.043 24.4904 111.416 24.6703 110.712 24.6703C110.181 24.6703 109.748 24.5813 109.41 24.4033C109.077 24.2253 108.816 24.0169 108.626 23.7783C108.437 23.5396 108.291 23.3275 108.189 23.1419H108.047V24.4999H106.388ZM108.053 20.1362C108.053 20.7499 108.142 21.2878 108.32 21.7499C108.498 22.212 108.755 22.5737 109.092 22.8351C109.429 23.0927 109.842 23.2215 110.331 23.2215C110.838 23.2215 111.263 23.087 111.604 22.8181C111.945 22.5453 112.202 22.176 112.376 21.7101C112.554 21.2442 112.643 20.7196 112.643 20.1362C112.643 19.5605 112.556 19.0434 112.382 18.5851C112.212 18.1268 111.954 17.765 111.609 17.4999C111.268 17.2347 110.842 17.1021 110.331 17.1021C109.838 17.1021 109.422 17.229 109.081 17.4828C108.744 17.7366 108.488 18.0908 108.314 18.5453C108.14 18.9999 108.053 19.5302 108.053 20.1362ZM117.966 12.8635V24.4999H116.267V12.8635H117.966ZM124.013 24.676C123.153 24.676 122.412 24.4923 121.791 24.1249C121.174 23.7537 120.696 23.2328 120.359 22.5624C120.026 21.8881 119.859 21.0984 119.859 20.1931C119.859 19.2991 120.026 18.5112 120.359 17.8294C120.696 17.1476 121.166 16.6154 121.768 16.2328C122.374 15.8503 123.083 15.659 123.893 15.659C124.386 15.659 124.863 15.7404 125.325 15.9033C125.787 16.0662 126.202 16.3218 126.57 16.6703C126.937 17.0188 127.227 17.4715 127.439 18.0283C127.651 18.5813 127.757 19.2537 127.757 20.0453V20.6476H120.82V19.3749H126.092C126.092 18.9279 126.001 18.5321 125.82 18.1874C125.638 17.8389 125.382 17.5643 125.053 17.3635C124.727 17.1628 124.344 17.0624 123.905 17.0624C123.428 17.0624 123.011 17.1798 122.655 17.4146C122.303 17.6457 122.03 17.9487 121.837 18.3237C121.647 18.695 121.553 19.0984 121.553 19.534V20.5283C121.553 21.1116 121.655 21.6078 121.859 22.0169C122.068 22.426 122.357 22.7385 122.729 22.9544C123.1 23.1665 123.534 23.2726 124.03 23.2726C124.352 23.2726 124.645 23.2271 124.91 23.1362C125.176 23.0415 125.405 22.9014 125.598 22.7158C125.791 22.5302 125.939 22.301 126.041 22.0283L127.649 22.3181C127.52 22.7915 127.289 23.2063 126.956 23.5624C126.626 23.9146 126.212 24.1893 125.712 24.3862C125.215 24.5794 124.649 24.676 124.013 24.676ZM137.553 24.676C136.734 24.676 136.02 24.4885 135.41 24.1135C134.801 23.7385 134.327 23.2139 133.99 22.5396C133.653 21.8654 133.484 21.0775 133.484 20.176C133.484 19.2707 133.653 18.479 133.99 17.801C134.327 17.123 134.801 16.5965 135.41 16.2215C136.02 15.8465 136.734 15.659 137.553 15.659C138.371 15.659 139.085 15.8465 139.695 16.2215C140.304 16.5965 140.778 17.123 141.115 17.801C141.452 18.479 141.621 19.2707 141.621 20.176C141.621 21.0775 141.452 21.8654 141.115 22.5396C140.778 23.2139 140.304 23.7385 139.695 24.1135C139.085 24.4885 138.371 24.676 137.553 24.676ZM137.558 23.2499C138.088 23.2499 138.528 23.1097 138.876 22.8294C139.225 22.5491 139.482 22.176 139.649 21.7101C139.82 21.2442 139.905 20.7309 139.905 20.1703C139.905 19.6135 139.82 19.1021 139.649 18.6362C139.482 18.1665 139.225 17.7896 138.876 17.5056C138.528 17.2215 138.088 17.0794 137.558 17.0794C137.024 17.0794 136.581 17.2215 136.229 17.5056C135.88 17.7896 135.621 18.1665 135.45 18.6362C135.284 19.1021 135.2 19.6135 135.2 20.1703C135.2 20.7309 135.284 21.2442 135.45 21.7101C135.621 22.176 135.88 22.5491 136.229 22.8294C136.581 23.1097 137.024 23.2499 137.558 23.2499ZM145.216 19.3181V24.4999H143.517V15.7726H145.148V17.1931H145.256C145.456 16.7309 145.771 16.3597 146.199 16.0794C146.631 15.7991 147.174 15.659 147.829 15.659C148.424 15.659 148.945 15.784 149.392 16.034C149.839 16.2802 150.186 16.6476 150.432 17.1362C150.678 17.6249 150.801 18.229 150.801 18.9487V24.4999H149.102V19.1533C149.102 18.5207 148.937 18.0264 148.608 17.6703C148.278 17.3105 147.826 17.1306 147.25 17.1306C146.856 17.1306 146.506 17.2158 146.199 17.3862C145.896 17.5567 145.655 17.8067 145.477 18.1362C145.303 18.462 145.216 18.8559 145.216 19.3181Z" fill="#E8E8E8"/>
<path d="M60.9357 43.4999V31.1362H66.0912C67.0169 31.1362 67.7916 31.267 68.4155 31.5286C69.0433 31.7902 69.5142 32.1565 69.8281 32.6274C70.146 33.0982 70.305 33.6436 70.305 34.2634C70.305 34.7343 70.2064 35.1548 70.0092 35.5251C69.812 35.8913 69.5403 36.1952 69.1942 36.4367C68.8481 36.6781 68.4476 36.8472 67.9929 36.9438V37.0645C68.4919 37.0887 68.9527 37.2235 69.3753 37.469C69.8019 37.7145 70.144 38.0566 70.4016 38.4953C70.6592 38.9299 70.788 39.4451 70.788 40.0407C70.788 40.7048 70.6189 41.2984 70.2809 41.8216C69.9428 42.3408 69.4538 42.7513 68.8139 43.0531C68.174 43.351 67.3972 43.4999 66.4836 43.4999H60.9357ZM63.924 41.0911H65.7713C66.4192 41.0911 66.8962 40.9684 67.202 40.7229C67.5119 40.4774 67.6669 40.1353 67.6669 39.6966C67.6669 39.3787 67.5924 39.105 67.4435 38.8756C67.2946 38.6422 67.0833 38.4631 66.8096 38.3383C66.536 38.2095 66.2079 38.1451 65.8256 38.1451H63.924V41.0911ZM63.924 36.2193H65.5781C65.9041 36.2193 66.1939 36.165 66.4474 36.0563C66.701 35.9477 66.8982 35.7907 67.039 35.5855C67.1839 35.3802 67.2564 35.1327 67.2564 34.8429C67.2564 34.4284 67.1095 34.1024 66.8157 33.8649C66.5219 33.6275 66.1254 33.5088 65.6264 33.5088H63.924V36.2193ZM78.2074 39.4974V34.2271H81.1534V43.4999H78.3402V41.7733H78.2436C78.0383 42.3408 77.6882 42.7915 77.1931 43.1256C76.7021 43.4556 76.1085 43.6206 75.4123 43.6206C74.7804 43.6206 74.225 43.4757 73.7461 43.186C73.2671 42.8962 72.8949 42.4917 72.6292 41.9725C72.3636 41.4493 72.2288 40.8376 72.2248 40.1373V34.2271H75.1768V39.5578C75.1808 40.0608 75.3136 40.4573 75.5752 40.747C75.8368 41.0368 76.193 41.1817 76.6438 41.1817C76.9376 41.1817 77.2012 41.1173 77.4346 40.9885C77.6721 40.8557 77.8592 40.6645 77.9961 40.415C78.1369 40.1615 78.2074 39.8556 78.2074 39.4974ZM85.6947 41.067L85.7067 37.5475H86.1172L88.7252 34.2271H92.0697L88.1939 38.9842H87.4152L85.6947 41.067ZM83.0324 43.4999V31.1362H85.9844V43.4999H83.0324ZM88.7916 43.4999L86.3648 39.6483L88.3086 37.5535L92.2025 43.4999H88.7916ZM95.7884 41.067L95.8005 37.5475H96.211L98.8189 34.2271H102.163L98.2877 38.9842H97.5089L95.7884 41.067ZM93.1261 43.4999V31.1362H96.0782V43.4999H93.1261ZM98.8853 43.4999L96.4585 39.6483L98.4024 37.5535L102.296 43.4999H98.8853ZM103.22 43.4999V34.2271H106.172V43.4999H103.22ZM104.699 33.1465C104.284 33.1465 103.928 33.0097 103.63 32.736C103.333 32.4583 103.184 32.1243 103.184 31.7339C103.184 31.3475 103.333 31.0175 103.63 30.7438C103.928 30.4661 104.284 30.3273 104.699 30.3273C105.117 30.3273 105.474 30.4661 105.767 30.7438C106.065 31.0175 106.214 31.3475 106.214 31.7339C106.214 32.1243 106.065 32.4583 105.767 32.736C105.474 33.0097 105.117 33.1465 104.699 33.1465ZM113.285 34.2271V36.4004H107.435V34.2271H113.285ZM108.661 32.0056H111.613V40.584C111.613 40.7651 111.641 40.912 111.697 41.0247C111.758 41.1334 111.844 41.2119 111.957 41.2602C112.069 41.3044 112.204 41.3266 112.361 41.3266C112.474 41.3266 112.593 41.3165 112.717 41.2964C112.846 41.2722 112.943 41.2521 113.007 41.236L113.454 43.3671C113.313 43.4073 113.114 43.4576 112.856 43.518C112.603 43.5784 112.299 43.6166 111.945 43.6327C111.252 43.6649 110.659 43.5844 110.164 43.3912C109.673 43.194 109.297 42.8881 109.035 42.4736C108.777 42.0591 108.653 41.5379 108.661 40.91V32.0056Z" fill="url(#paint1_linear_2_3325)"/>
</g>
<defs>
<filter id="filter0_d_2_3325" x="6.28571" y="2.28559" width="51.4286" height="51.4287" filterUnits="userSpaceOnUse" color-interpolation-filters="sRGB">
<feFlood flood-opacity="0" result="BackgroundImageFix"/>
<feColorMatrix in="SourceAlpha" type="matrix" values="0 0 0 0 0 0 0 0 0 0 0 0 0 0 0 0 0 0 127 0" result="hardAlpha"/>
<feOffset/>
<feGaussianBlur stdDeviation="2.85714"/>
<feComposite in2="hardAlpha" operator="out"/>
<feColorMatrix type="matrix" values="0 0 0 0 0 0 0 0 0 0 0 0 0 0 0 0 0 0 0.25 0"/>
<feBlend mode="normal" in2="BackgroundImageFix" result="effect1_dropShadow_2_3325"/>
<feBlend mode="normal" in="SourceGraphic" in2="effect1_dropShadow_2_3325" result="shape"/>
</filter>
<filter id="filter1_d_2_3325" x="54.4" y="3.89988" width="103.2" height="48.2" filterUnits="userSpaceOnUse" color-interpolation-filters="sRGB">
<feFlood flood-opacity="0" result="BackgroundImageFix"/>
<feColorMatrix in="SourceAlpha" type="matrix" values="0 0 0 0 0 0 0 0 0 0 0 0 0 0 0 0 0 0 127 0" result="hardAlpha"/>
<feOffset/>
<feGaussianBlur stdDeviation="2.8"/>
<feComposite in2="hardAlpha" operator="out"/>
<feColorMatrix type="matrix" values="0 0 0 0 0 0 0 0 0 0 0 0 0 0 0 0 0 0 0.25 0"/>
<feBlend mode="normal" in2="BackgroundImageFix" result="effect1_dropShadow_2_3325"/>
<feBlend mode="normal" in="SourceGraphic" in2="effect1_dropShadow_2_3325" result="shape"/>
</filter>
<linearGradient id="paint0_linear_2_3325" x1="82" y1="-0.00012207" x2="82" y2="55.9999" gradientUnits="userSpaceOnUse">
<stop stop-color="#342C18"/>
<stop offset="1" stop-color="#251A11"/>
</linearGradient>
<linearGradient id="paint1_linear_2_3325" x1="87" y1="28.4999" x2="87" y2="46.4999" gradientUnits="userSpaceOnUse">
<stop stop-color="white"/>
<stop offset="1" stop-color="#B9B9B9"/>
</linearGradient>
</defs>
</svg>
