<svg width="168" height="56" viewBox="0 0 168 56" fill="none" xmlns="http://www.w3.org/2000/svg">
<rect y="-0.000244141" width="168" height="56" rx="8" fill="url(#paint0_linear_5_297)"/>
<g filter="url(#filter0_d_5_297)">
<path d="M22.6909 22.7816L32.2161 19.6739C32.8474 19.4679 33.2508 18.8434 33.0678 18.1834C32.8978 17.5703 32.1991 17.1332 31.567 17.3368L22.0426 20.4446C21.4114 20.6506 21.0071 21.275 21.1902 21.935C21.3602 22.5482 22.0589 22.9852 22.6909 22.7816V22.7816Z" fill="#FF3E3E"/>
<path d="M31.5654 19.6739L41.0825 22.7776C41.7145 22.9836 42.4133 22.5441 42.5833 21.931C42.7663 21.271 42.362 20.6465 41.7308 20.4405L32.2162 17.3368C31.5841 17.1308 30.8846 17.5703 30.7146 18.1834C30.5324 18.8434 30.9358 19.4679 31.5671 19.6739H31.5654Z" fill="#FF3E3E"/>
<path d="M21.7506 22.6596L31.249 26.9645C31.8534 27.2392 32.557 27.1423 32.9181 26.5299C33.2281 26.004 33.0857 25.1469 32.4805 24.8722L22.9821 20.5665C22.3778 20.2926 21.6742 20.3896 21.313 21.0019C21.0031 21.5278 21.1454 22.3849 21.7506 22.6596Z" fill="#FF3E3E"/>
<path d="M40.788 20.5625L31.249 24.8748C30.643 25.1486 30.5006 26.0057 30.8106 26.5324C31.1725 27.1448 31.8753 27.2409 32.4805 26.967L42.0204 22.6556C42.6256 22.3818 42.7679 21.5247 42.458 20.998C42.0968 20.3848 41.394 20.2895 40.788 20.5625Z" fill="#FF3E3E"/>
<path d="M21.7506 36.0519L31.2221 40.3423C31.8273 40.6162 32.5301 40.5201 32.8913 39.9077C33.202 39.3818 33.0589 38.5239 32.4537 38.2501L22.9821 33.9596C22.3778 33.685 21.6742 33.7819 21.313 34.3943C21.0031 34.9202 21.1454 35.7781 21.7506 36.0519V36.0519Z" fill="#FF3E3E"/>
<path d="M32.4537 40.3423L42.0309 36.0244C42.6361 35.7514 42.7785 34.8935 42.4685 34.3668C42.1066 33.7536 41.4046 33.6591 40.7994 33.9321L31.2221 38.25C30.6161 38.5231 30.4746 39.381 30.7845 39.9077C31.1457 40.52 31.8485 40.6154 32.4537 40.3423V40.3423Z" fill="#FF3E3E"/>
<path d="M40.1877 21.6094L40.1966 33.6291V34.9782C40.1966 36.5406 42.6369 36.5414 42.6369 34.9782L42.628 22.9585V21.6094C42.628 20.0462 40.1877 20.0462 40.1877 21.6094Z" fill="#FF3E3E"/>
<path d="M21.1462 21.6137V35.0059C21.1462 36.5691 23.5865 36.5691 23.5865 35.0059V21.6137C23.5865 20.0505 21.1462 20.0505 21.1462 21.6137Z" fill="#FF3E3E"/>
<path d="M30.6446 25.9209L30.6202 37.9463V39.2962C30.6202 40.8586 33.0605 40.8586 33.0605 39.2962L33.0841 27.2708V25.9209C33.0841 24.3586 30.6438 24.3586 30.6438 25.9209H30.6446Z" fill="#FF3E3E"/>
<path d="M12.4478 28.2026V26.8171C13.6917 26.8171 14.5595 26.5564 15.0511 26.035C15.5502 25.5135 15.7998 24.642 15.7998 23.4204V19.8449C15.7998 18.817 15.8966 17.9268 16.0903 17.1745C16.2914 16.4222 16.6154 15.8002 17.0623 15.3086C17.5093 14.8169 18.1052 14.4519 18.8501 14.2136C19.595 13.9752 20.5149 13.856 21.6099 13.856V16.046C20.7458 16.046 20.0642 16.1801 19.5652 16.4482C19.0735 16.7164 18.7234 17.1335 18.5149 17.6997C18.3138 18.2583 18.2132 18.9734 18.2132 19.8449V24.3143C18.2132 24.8953 18.135 25.4242 17.9786 25.9009C17.8296 26.3776 17.5502 26.7873 17.1406 27.1299C16.7309 27.4726 16.1461 27.737 15.3863 27.9233C14.634 28.1095 13.6545 28.2026 12.4478 28.2026ZM21.6099 42.4597C20.5149 42.4597 19.595 42.3406 18.8501 42.1022C18.1052 41.8638 17.5093 41.4988 17.0623 41.0072C16.6154 40.5156 16.2914 39.8936 16.0903 39.1413C15.8966 38.3889 15.7998 37.4988 15.7998 36.4708V32.8954C15.7998 31.6738 15.5502 30.8022 15.0511 30.2808C14.5595 29.7594 13.6917 29.4987 12.4478 29.4987V28.1132C13.6545 28.1132 14.634 28.2063 15.3863 28.3925C16.1461 28.5788 16.7309 28.8432 17.1406 29.1858C17.5502 29.5285 17.8296 29.9382 17.9786 30.4149C18.135 30.8916 18.2132 31.4205 18.2132 32.0015V36.4708C18.2132 37.3424 18.3138 38.0575 18.5149 38.6161C18.7234 39.1748 19.0735 39.5882 19.5652 39.8564C20.0642 40.132 20.7458 40.2698 21.6099 40.2698V42.4597ZM12.4478 29.4987V26.8171H15.0847V29.4987H12.4478Z" fill="#FF3E3E"/>
<path d="M51.5523 27.9621V26.5766C50.3083 26.5766 49.4405 26.3159 48.9489 25.7945C48.4498 25.2731 48.2003 24.4015 48.2003 23.1799V19.6045C48.2003 18.5765 48.1034 17.6864 47.9098 16.934C47.7086 16.1817 47.3846 15.5597 46.9377 15.0681C46.4908 14.5765 45.8948 14.2115 45.15 13.9731C44.4051 13.7347 43.4851 13.6156 42.3901 13.6156V15.8055C43.2542 15.8055 43.9358 15.9396 44.4349 16.2078C44.9265 16.4759 45.2766 16.8931 45.4852 17.4592C45.6863 18.0178 45.7868 18.7329 45.7868 19.6045V24.0738C45.7868 24.6548 45.865 25.1837 46.0215 25.6604C46.1704 26.1371 46.4498 26.5468 46.8595 26.8895C47.2692 27.2321 47.8539 27.4966 48.6137 27.6828C49.366 27.869 50.3455 27.9621 51.5523 27.9621ZM42.3901 42.2193C43.4851 42.2193 44.4051 42.1001 45.15 41.8617C45.8948 41.6234 46.4908 41.2584 46.9377 40.7667C47.3846 40.2751 47.7086 39.6531 47.9098 38.9008C48.1034 38.1485 48.2003 37.2583 48.2003 36.2304V32.6549C48.2003 31.4333 48.4498 30.5618 48.9489 30.0403C49.4405 29.5189 50.3083 29.2582 51.5523 29.2582V27.8727C50.3455 27.8727 49.366 27.9658 48.6137 28.1521C47.8539 28.3383 47.2692 28.6027 46.8595 28.9454C46.4498 29.288 46.1704 29.6977 46.0215 30.1744C45.865 30.6512 45.7868 31.18 45.7868 31.761V36.2304C45.7868 37.1019 45.6863 37.817 45.4852 38.3756C45.2766 38.9343 44.9265 39.3477 44.4349 39.6159C43.9358 39.8915 43.2542 40.0293 42.3901 40.0293V42.2193ZM51.5523 29.2582V26.5766H48.9154V29.2582H51.5523Z" fill="#FF3E3E"/>
</g>
<g filter="url(#filter1_d_5_297)">
<path d="M66.2613 24.4998H64.3977L68.5852 12.8634H70.6136L74.8011 24.4998H72.9375L69.6477 14.977H69.5568L66.2613 24.4998ZM66.5738 19.9429H72.6193V21.4202H66.5738V19.9429ZM82.7173 15.7725L79.5525 24.4998H77.7343L74.5639 15.7725H76.3878L78.598 22.4884H78.6889L80.8934 15.7725H82.7173ZM86.6037 24.6929C86.0506 24.6929 85.5506 24.5907 85.1037 24.3861C84.6567 24.1778 84.3025 23.8766 84.0412 23.4827C83.7836 23.0888 83.6548 22.6058 83.6548 22.0338C83.6548 21.5414 83.7495 21.1361 83.9389 20.8179C84.1283 20.4998 84.384 20.2479 84.7059 20.0623C85.0279 19.8766 85.3877 19.7365 85.7855 19.6418C86.1832 19.5471 86.5885 19.4751 87.0014 19.4259C87.5241 19.3653 87.9484 19.316 88.2741 19.2782C88.5999 19.2365 88.8366 19.1702 88.9843 19.0793C89.1321 18.9884 89.2059 18.8407 89.2059 18.6361V18.5963C89.2059 18.1001 89.0658 17.7157 88.7855 17.4429C88.509 17.1702 88.0961 17.0338 87.5468 17.0338C86.9749 17.0338 86.5241 17.1607 86.1946 17.4145C85.8688 17.6645 85.6434 17.9429 85.5184 18.2498L83.9218 17.8861C84.1112 17.3558 84.3877 16.9278 84.7514 16.602C85.1188 16.2725 85.5412 16.0338 86.0184 15.8861C86.4957 15.7346 86.9976 15.6588 87.5241 15.6588C87.8726 15.6588 88.2419 15.7005 88.6321 15.7838C89.026 15.8634 89.3934 16.0111 89.7343 16.227C90.079 16.4429 90.3612 16.7516 90.5809 17.1532C90.8006 17.5509 90.9105 18.0679 90.9105 18.7043V24.4998H89.2514V23.3066H89.1832C89.0734 23.5263 88.9086 23.7422 88.6889 23.9543C88.4692 24.1664 88.187 24.3426 87.8423 24.4827C87.4976 24.6229 87.0847 24.6929 86.6037 24.6929ZM86.973 23.3293C87.4427 23.3293 87.8442 23.2365 88.1775 23.0509C88.5146 22.8653 88.7703 22.6229 88.9446 22.3236C89.1226 22.0206 89.2116 21.6967 89.2116 21.352V20.227C89.151 20.2876 89.0336 20.3444 88.8593 20.3975C88.6889 20.4467 88.4938 20.4903 88.2741 20.5282C88.0544 20.5623 87.8404 20.5944 87.6321 20.6248C87.4237 20.6513 87.2495 20.674 87.1093 20.6929C86.7798 20.7346 86.4787 20.8047 86.2059 20.9032C85.937 21.0016 85.7211 21.1437 85.5582 21.3293C85.3991 21.5111 85.3196 21.7535 85.3196 22.0566C85.3196 22.477 85.4749 22.7952 85.7855 23.0111C86.0961 23.2232 86.4919 23.3293 86.973 23.3293ZM93.1733 24.4998V15.7725H94.8721V24.4998H93.1733ZM94.0312 14.4259C93.7358 14.4259 93.482 14.3274 93.2698 14.1304C93.0615 13.9297 92.9573 13.691 92.9573 13.4145C92.9573 13.1342 93.0615 12.8956 93.2698 12.6986C93.482 12.4979 93.7358 12.3975 94.0312 12.3975C94.3267 12.3975 94.5786 12.4979 94.7869 12.6986C94.999 12.8956 95.1051 13.1342 95.1051 13.4145C95.1051 13.691 94.999 13.9297 94.7869 14.1304C94.5786 14.3274 94.3267 14.4259 94.0312 14.4259ZM98.8565 12.8634V24.4998H97.1576V12.8634H98.8565ZM103.682 24.6929C103.129 24.6929 102.629 24.5907 102.182 24.3861C101.735 24.1778 101.381 23.8766 101.119 23.4827C100.862 23.0888 100.733 22.6058 100.733 22.0338C100.733 21.5414 100.828 21.1361 101.017 20.8179C101.206 20.4998 101.462 20.2479 101.784 20.0623C102.106 19.8766 102.466 19.7365 102.864 19.6418C103.261 19.5471 103.667 19.4751 104.08 19.4259C104.602 19.3653 105.026 19.316 105.352 19.2782C105.678 19.2365 105.915 19.1702 106.062 19.0793C106.21 18.9884 106.284 18.8407 106.284 18.6361V18.5963C106.284 18.1001 106.144 17.7157 105.864 17.4429C105.587 17.1702 105.174 17.0338 104.625 17.0338C104.053 17.0338 103.602 17.1607 103.273 17.4145C102.947 17.6645 102.722 17.9429 102.597 18.2498L101 17.8861C101.189 17.3558 101.466 16.9278 101.83 16.602C102.197 16.2725 102.619 16.0338 103.097 15.8861C103.574 15.7346 104.076 15.6588 104.602 15.6588C104.951 15.6588 105.32 15.7005 105.71 15.7838C106.104 15.8634 106.472 16.0111 106.812 16.227C107.157 16.4429 107.439 16.7516 107.659 17.1532C107.879 17.5509 107.989 18.0679 107.989 18.7043V24.4998H106.33V23.3066H106.261C106.151 23.5263 105.987 23.7422 105.767 23.9543C105.547 24.1664 105.265 24.3426 104.92 24.4827C104.576 24.6229 104.163 24.6929 103.682 24.6929ZM104.051 23.3293C104.521 23.3293 104.922 23.2365 105.256 23.0509C105.593 22.8653 105.848 22.6229 106.023 22.3236C106.201 22.0206 106.29 21.6967 106.29 21.352V20.227C106.229 20.2876 106.112 20.3444 105.937 20.3975C105.767 20.4467 105.572 20.4903 105.352 20.5282C105.133 20.5623 104.919 20.5944 104.71 20.6248C104.502 20.6513 104.328 20.674 104.187 20.6929C103.858 20.7346 103.557 20.8047 103.284 20.9032C103.015 21.0016 102.799 21.1437 102.636 21.3293C102.477 21.5111 102.398 21.7535 102.398 22.0566C102.398 22.477 102.553 22.7952 102.864 23.0111C103.174 23.2232 103.57 23.3293 104.051 23.3293ZM110.388 24.4998V12.8634H112.087V17.1873H112.189C112.287 17.0054 112.429 16.7952 112.615 16.5566C112.801 16.3179 113.058 16.1096 113.388 15.9316C113.717 15.7498 114.153 15.6588 114.695 15.6588C115.399 15.6588 116.028 15.8369 116.581 16.1929C117.134 16.549 117.568 17.0623 117.882 17.7327C118.2 18.4032 118.359 19.21 118.359 20.1532C118.359 21.0963 118.202 21.9051 117.888 22.5793C117.573 23.2498 117.142 23.7668 116.592 24.1304C116.043 24.4903 115.416 24.6702 114.712 24.6702C114.181 24.6702 113.748 24.5812 113.41 24.4032C113.077 24.2251 112.816 24.0168 112.626 23.7782C112.437 23.5395 112.291 23.3274 112.189 23.1418H112.047V24.4998H110.388ZM112.053 20.1361C112.053 20.7498 112.142 21.2876 112.32 21.7498C112.498 22.2119 112.755 22.5736 113.092 22.835C113.429 23.0926 113.842 23.2213 114.331 23.2213C114.838 23.2213 115.263 23.0869 115.604 22.8179C115.945 22.5452 116.202 22.1759 116.376 21.71C116.554 21.2441 116.643 20.7194 116.643 20.1361C116.643 19.5604 116.556 19.0433 116.382 18.585C116.212 18.1266 115.954 17.7649 115.609 17.4998C115.268 17.2346 114.842 17.102 114.331 17.102C113.838 17.102 113.422 17.2289 113.081 17.4827C112.744 17.7365 112.488 18.0907 112.314 18.5452C112.14 18.9998 112.053 19.5301 112.053 20.1361ZM121.966 12.8634V24.4998H120.267V12.8634H121.966ZM128.013 24.6759C127.153 24.6759 126.412 24.4922 125.791 24.1248C125.174 23.7535 124.696 23.2327 124.359 22.5623C124.026 21.888 123.859 21.0982 123.859 20.1929C123.859 19.299 124.026 18.5111 124.359 17.8293C124.696 17.1475 125.166 16.6153 125.768 16.2327C126.374 15.8501 127.083 15.6588 127.893 15.6588C128.386 15.6588 128.863 15.7403 129.325 15.9032C129.787 16.066 130.202 16.3217 130.57 16.6702C130.937 17.0187 131.227 17.4713 131.439 18.0282C131.651 18.5812 131.757 19.2535 131.757 20.0452V20.6475H124.82V19.3748H130.092C130.092 18.9278 130.001 18.532 129.82 18.1873C129.638 17.8388 129.382 17.5641 129.053 17.3634C128.727 17.1626 128.344 17.0623 127.905 17.0623C127.428 17.0623 127.011 17.1797 126.655 17.4145C126.303 17.6456 126.03 17.9486 125.837 18.3236C125.647 18.6948 125.553 19.0982 125.553 19.5338V20.5282C125.553 21.1115 125.655 21.6077 125.859 22.0168C126.068 22.4259 126.357 22.7384 126.729 22.9543C127.1 23.1664 127.534 23.2725 128.03 23.2725C128.352 23.2725 128.645 23.227 128.91 23.1361C129.176 23.0414 129.405 22.9013 129.598 22.7157C129.791 22.5301 129.939 22.3009 130.041 22.0282L131.649 22.3179C131.52 22.7914 131.289 23.2062 130.956 23.5623C130.626 23.9145 130.212 24.1891 129.712 24.3861C129.215 24.5793 128.649 24.6759 128.013 24.6759ZM141.553 24.6759C140.734 24.6759 140.02 24.4884 139.41 24.1134C138.801 23.7384 138.327 23.2138 137.99 22.5395C137.653 21.8653 137.484 21.0774 137.484 20.1759C137.484 19.2706 137.653 18.4789 137.99 17.8009C138.327 17.1229 138.801 16.5963 139.41 16.2213C140.02 15.8463 140.734 15.6588 141.553 15.6588C142.371 15.6588 143.085 15.8463 143.695 16.2213C144.304 16.5963 144.778 17.1229 145.115 17.8009C145.452 18.4789 145.621 19.2706 145.621 20.1759C145.621 21.0774 145.452 21.8653 145.115 22.5395C144.778 23.2138 144.304 23.7384 143.695 24.1134C143.085 24.4884 142.371 24.6759 141.553 24.6759ZM141.558 23.2498C142.088 23.2498 142.528 23.1096 142.876 22.8293C143.225 22.549 143.482 22.1759 143.649 21.71C143.82 21.2441 143.905 20.7308 143.905 20.1702C143.905 19.6134 143.82 19.102 143.649 18.6361C143.482 18.1664 143.225 17.7895 142.876 17.5054C142.528 17.2213 142.088 17.0793 141.558 17.0793C141.024 17.0793 140.581 17.2213 140.229 17.5054C139.88 17.7895 139.621 18.1664 139.45 18.6361C139.284 19.102 139.2 19.6134 139.2 20.1702C139.2 20.7308 139.284 21.2441 139.45 21.71C139.621 22.1759 139.88 22.549 140.229 22.8293C140.581 23.1096 141.024 23.2498 141.558 23.2498ZM149.216 19.3179V24.4998H147.517V15.7725H149.148V17.1929H149.256C149.456 16.7308 149.771 16.3596 150.199 16.0793C150.631 15.799 151.174 15.6588 151.829 15.6588C152.424 15.6588 152.945 15.7838 153.392 16.0338C153.839 16.2801 154.186 16.6475 154.432 17.1361C154.678 17.6248 154.801 18.2289 154.801 18.9486V24.4998H153.102V19.1532C153.102 18.5206 152.937 18.0263 152.608 17.6702C152.278 17.3104 151.826 17.1304 151.25 17.1304C150.856 17.1304 150.506 17.2157 150.199 17.3861C149.896 17.5566 149.655 17.8066 149.477 18.1361C149.303 18.4619 149.216 18.8558 149.216 19.3179Z" fill="#E8E8E8"/>
<path d="M76.1583 35.6155H73.1399C73.0996 35.3056 73.0171 35.0259 72.8924 34.7764C72.7676 34.5269 72.6026 34.3136 72.3973 34.1365C72.1921 33.9594 71.9486 33.8246 71.6669 33.732C71.3892 33.6354 71.0813 33.5871 70.7432 33.5871C70.1436 33.5871 69.6264 33.734 69.1917 34.0278C68.7611 34.3216 68.4291 34.7462 68.1956 35.3016C67.9662 35.857 67.8515 36.5291 67.8515 37.3179C67.8515 38.139 67.9682 38.8272 68.2017 39.3826C68.4391 39.9339 68.7712 40.3505 69.1978 40.6322C69.6284 40.9099 70.1375 41.0488 70.7251 41.0488C71.0551 41.0488 71.355 41.0065 71.6246 40.922C71.8983 40.8375 72.1378 40.7147 72.343 40.5537C72.5523 40.3887 72.7233 40.1895 72.8561 39.9561C72.993 39.7186 73.0876 39.451 73.1399 39.1532L76.1583 39.1713C76.106 39.7186 75.9471 40.2579 75.6814 40.7892C75.4198 41.3204 75.0596 41.8054 74.6008 42.2441C74.142 42.6787 73.5826 43.0248 72.9226 43.2824C72.2665 43.54 71.5139 43.6688 70.6647 43.6688C69.5459 43.6688 68.5438 43.4233 67.6583 42.9323C66.777 42.4373 66.0807 41.7168 65.5696 40.7711C65.0584 39.8253 64.8029 38.6742 64.8029 37.3179C64.8029 35.9576 65.0625 34.8046 65.5816 33.8588C66.1008 32.913 66.8031 32.1946 67.6885 31.7036C68.574 31.2126 69.566 30.9671 70.6647 30.9671C71.4133 30.9671 72.1056 31.0717 72.7414 31.281C73.3773 31.4863 73.9368 31.7881 74.4197 32.1865C74.9027 32.581 75.2951 33.0659 75.5969 33.6414C75.8988 34.217 76.0859 34.875 76.1583 35.6155ZM82.1968 43.6748C81.2228 43.6748 80.3857 43.4756 79.6854 43.0772C78.9892 42.6747 78.4519 42.1153 78.0736 41.3989C77.6993 40.6785 77.5121 39.8434 77.5121 38.8936C77.5121 37.9397 77.6993 37.1046 78.0736 36.3882C78.4519 35.6678 78.9892 35.1084 79.6854 34.71C80.3857 34.3075 81.2228 34.1063 82.1968 34.1063C83.1707 34.1063 84.0059 34.3075 84.7021 34.71C85.4024 35.1084 85.9397 35.6678 86.314 36.3882C86.6923 37.1046 86.8814 37.9397 86.8814 38.8936C86.8814 39.8434 86.6923 40.6785 86.314 41.3989C85.9397 42.1153 85.4024 42.6747 84.7021 43.0772C84.0059 43.4756 83.1707 43.6748 82.1968 43.6748ZM82.2149 41.4472C82.5691 41.4472 82.8689 41.3385 83.1144 41.1212C83.3599 40.9039 83.547 40.602 83.6758 40.2157C83.8086 39.8293 83.8751 39.3826 83.8751 38.8755C83.8751 38.3603 83.8086 37.9096 83.6758 37.5232C83.547 37.1368 83.3599 36.835 83.1144 36.6177C82.8689 36.4003 82.5691 36.2917 82.2149 36.2917C81.8487 36.2917 81.5388 36.4003 81.2852 36.6177C81.0357 36.835 80.8445 37.1368 80.7117 37.5232C80.5829 37.9096 80.5185 38.3603 80.5185 38.8755C80.5185 39.3826 80.5829 39.8293 80.7117 40.2157C80.8445 40.602 81.0357 40.9039 81.2852 41.1212C81.5388 41.3385 81.8487 41.4472 82.2149 41.4472ZM91.7804 43.6326C91.0962 43.6326 90.4744 43.4555 89.915 43.1013C89.3556 42.7471 88.9088 42.2159 88.5748 41.5076C88.2408 40.7992 88.0737 39.9199 88.0737 38.8694C88.0737 37.7788 88.2468 36.8813 88.5929 36.177C88.939 35.4726 89.3918 34.9515 89.9512 34.6134C90.5147 34.2753 91.1204 34.1063 91.7683 34.1063C92.2553 34.1063 92.6719 34.1908 93.018 34.3598C93.3641 34.5248 93.6498 34.7382 93.8752 34.9998C94.1006 35.2614 94.2717 35.533 94.3884 35.8147H94.4487V31.1361H97.4008V43.4998H94.4789V41.9966H94.3884C94.2636 42.2823 94.0865 42.5499 93.8571 42.7995C93.6277 43.049 93.34 43.2502 92.9938 43.4032C92.6517 43.5561 92.2473 43.6326 91.7804 43.6326ZM92.8067 41.3325C93.1649 41.3325 93.4708 41.2319 93.7243 41.0306C93.9779 40.8254 94.173 40.5376 94.3099 40.1674C94.4467 39.7971 94.5151 39.3624 94.5151 38.8634C94.5151 38.3563 94.4467 37.9196 94.3099 37.5534C94.1771 37.1871 93.9819 36.9054 93.7243 36.7082C93.4708 36.511 93.1649 36.4124 92.8067 36.4124C92.4404 36.4124 92.1306 36.513 91.877 36.7142C91.6235 36.9155 91.4303 37.1992 91.2975 37.5654C91.1687 37.9317 91.1043 38.3643 91.1043 38.8634C91.1043 39.3624 91.1707 39.7971 91.3035 40.1674C91.4363 40.5376 91.6275 40.8254 91.877 41.0306C92.1306 41.2319 92.4404 41.3325 92.8067 41.3325ZM103.602 43.6748C102.632 43.6748 101.795 43.4837 101.091 43.1013C100.391 42.715 99.8513 42.1656 99.473 41.4532C99.0987 40.7368 98.9115 39.8856 98.9115 38.8996C98.9115 37.9418 99.1007 37.1046 99.479 36.3882C99.8573 35.6678 100.391 35.1084 101.079 34.71C101.767 34.3075 102.578 34.1063 103.512 34.1063C104.172 34.1063 104.775 34.2089 105.323 34.4142C105.87 34.6194 106.343 34.9233 106.741 35.3257C107.14 35.7282 107.45 36.2253 107.671 36.8169C107.892 37.4045 108.003 38.0786 108.003 38.8392V39.5757H99.9439V37.8613H105.256C105.252 37.5473 105.178 37.2676 105.033 37.0221C104.888 36.7766 104.689 36.5855 104.435 36.4486C104.186 36.3078 103.898 36.2373 103.572 36.2373C103.242 36.2373 102.946 36.3118 102.685 36.4607C102.423 36.6056 102.216 36.8048 102.063 37.0583C101.91 37.3079 101.829 37.5916 101.821 37.9096V39.6542C101.821 40.0325 101.896 40.3646 102.045 40.6503C102.194 40.932 102.405 41.1514 102.679 41.3083C102.952 41.4653 103.278 41.5438 103.657 41.5438C103.918 41.5438 104.156 41.5076 104.369 41.4351C104.582 41.3627 104.765 41.256 104.918 41.1152C105.071 40.9743 105.186 40.8012 105.262 40.596L107.973 40.6745C107.86 41.2822 107.613 41.8114 107.23 42.2622C106.852 42.7089 106.355 43.057 105.739 43.3066C105.124 43.5521 104.411 43.6748 103.602 43.6748ZM109.511 31.1361H113.212L116.351 38.7909H116.496L119.635 31.1361H123.335V43.4998H120.426V35.9053H120.323L117.353 43.4213H115.493L112.523 35.863H112.421V43.4998H109.511V31.1361ZM136.422 35.6155H133.404C133.363 35.3056 133.281 35.0259 133.156 34.7764C133.031 34.5269 132.866 34.3136 132.661 34.1365C132.456 33.9594 132.212 33.8246 131.931 33.732C131.653 33.6354 131.345 33.5871 131.007 33.5871C130.407 33.5871 129.89 33.734 129.455 34.0278C129.025 34.3216 128.693 34.7462 128.459 35.3016C128.23 35.857 128.115 36.5291 128.115 37.3179C128.115 38.139 128.232 38.8272 128.465 39.3826C128.703 39.9339 129.035 40.3505 129.461 40.6322C129.892 40.9099 130.401 41.0488 130.989 41.0488C131.319 41.0488 131.619 41.0065 131.888 40.922C132.162 40.8375 132.401 40.7147 132.607 40.5537C132.816 40.3887 132.987 40.1895 133.12 39.9561C133.257 39.7186 133.351 39.451 133.404 39.1532L136.422 39.1713C136.37 39.7186 136.211 40.2579 135.945 40.7892C135.683 41.3204 135.323 41.8054 134.864 42.2441C134.406 42.6787 133.846 43.0248 133.186 43.2824C132.53 43.54 131.778 43.6688 130.928 43.6688C129.81 43.6688 128.807 43.4233 127.922 42.9323C127.041 42.4373 126.344 41.7168 125.833 40.7711C125.322 39.8253 125.067 38.6742 125.067 37.3179C125.067 35.9576 125.326 34.8046 125.845 33.8588C126.364 32.913 127.067 32.1946 127.952 31.7036C128.838 31.2126 129.83 30.9671 130.928 30.9671C131.677 30.9671 132.369 31.0717 133.005 31.281C133.641 31.4863 134.2 31.7881 134.683 32.1865C135.166 32.581 135.559 33.0659 135.861 33.6414C136.162 34.217 136.35 34.875 136.422 35.6155Z" fill="#FF3E3E"/>
</g>
<rect x="1.05" y="1.04976" width="165.9" height="53.9" rx="6.95" stroke="white" stroke-opacity="0.15" stroke-width="2.1"/>
<defs>
<filter id="filter0_d_5_297" x="6.28571" y="2.28547" width="51.4286" height="51.4286" filterUnits="userSpaceOnUse" color-interpolation-filters="sRGB">
<feFlood flood-opacity="0" result="BackgroundImageFix"/>
<feColorMatrix in="SourceAlpha" type="matrix" values="0 0 0 0 0 0 0 0 0 0 0 0 0 0 0 0 0 0 127 0" result="hardAlpha"/>
<feOffset/>
<feGaussianBlur stdDeviation="2.85714"/>
<feComposite in2="hardAlpha" operator="out"/>
<feColorMatrix type="matrix" values="0 0 0 0 0 0 0 0 0 0 0 0 0 0 0 0 0 0 0.25 0"/>
<feBlend mode="normal" in2="BackgroundImageFix" result="effect1_dropShadow_5_297"/>
<feBlend mode="normal" in="SourceGraphic" in2="effect1_dropShadow_5_297" result="shape"/>
</filter>
<filter id="filter1_d_5_297" x="58.4" y="3.89976" width="103.2" height="48.2" filterUnits="userSpaceOnUse" color-interpolation-filters="sRGB">
<feFlood flood-opacity="0" result="BackgroundImageFix"/>
<feColorMatrix in="SourceAlpha" type="matrix" values="0 0 0 0 0 0 0 0 0 0 0 0 0 0 0 0 0 0 127 0" result="hardAlpha"/>
<feOffset/>
<feGaussianBlur stdDeviation="2.8"/>
<feComposite in2="hardAlpha" operator="out"/>
<feColorMatrix type="matrix" values="0 0 0 0 0 0 0 0 0 0 0 0 0 0 0 0 0 0 0.25 0"/>
<feBlend mode="normal" in2="BackgroundImageFix" result="effect1_dropShadow_5_297"/>
<feBlend mode="normal" in="SourceGraphic" in2="effect1_dropShadow_5_297" result="shape"/>
</filter>
<linearGradient id="paint0_linear_5_297" x1="84" y1="-0.000244141" x2="84" y2="55.9997" gradientUnits="userSpaceOnUse">
<stop stop-color="#310D0D"/>
<stop offset="1" stop-color="#1D0808"/>
</linearGradient>
</defs>
</svg>
