<svg width="120" height="40" viewBox="0 0 120 40" fill="none" xmlns="http://www.w3.org/2000/svg">
<rect x="-0.000183105" y="-3.05176e-05" width="120" height="40" rx="6" fill="url(#paint0_linear_28_660)"/>
<g filter="url(#filter0_d_28_660)">
<ellipse cx="24.0011" cy="20.0073" rx="13.9987" ry="13.9927" fill="white"/>
<path opacity="0.5" d="M24.2785 12.5299C24.2464 12.5299 24.1983 12.5299 24.1822 12.562L24.1501 12.6422L29.5452 32.8492C32.1561 31.7248 34.3627 29.8327 35.8716 27.4243L24.3748 12.578C24.3632 12.5635 24.3485 12.5517 24.3319 12.5434C24.3153 12.535 24.2971 12.5304 24.2785 12.5298V12.5299Z" fill="url(#paint1_linear_28_660)"/>
<path d="M23.9501 5.99999C21.4536 6.00863 19.0049 6.68444 16.8576 7.95738C14.7104 9.23032 12.9427 11.0541 11.7379 13.2397C10.5331 15.4252 9.93493 17.8931 10.0054 20.3875C10.0759 22.882 10.8124 25.3122 12.1387 27.4263L23.8115 12.3404C23.848 12.2967 23.9209 12.2676 24.0011 12.2676C24.0813 12.2676 24.1469 12.2967 24.1907 12.3404L35.8563 27.4263C37.2555 25.199 37.9984 22.6227 37.9998 19.9927C37.9998 12.2676 31.7296 5.99999 24.0011 5.99999C23.9841 5.99996 23.9671 5.99996 23.9501 5.99999V5.99999Z" fill="#2185D0"/>
</g>
<g filter="url(#filter1_d_28_660)">
<path d="M47.5545 18H46.2733L49.1522 9.99997H50.5467L53.4256 18H52.1443L49.8826 11.4531H49.8201L47.5545 18ZM47.7693 14.8672H51.9256V15.8828H47.7693V14.8672ZM58.868 12L56.6922 18H55.4422L53.2625 12H54.5164L56.0359 16.6172H56.0984L57.6141 12H58.868ZM61.5399 18.1328C61.1596 18.1328 60.8159 18.0625 60.5086 17.9218C60.2013 17.7786 59.9578 17.5716 59.7781 17.3007C59.601 17.0299 59.5125 16.6979 59.5125 16.3047C59.5125 15.9661 59.5776 15.6875 59.7078 15.4687C59.838 15.25 60.0138 15.0768 60.2352 14.9492C60.4565 14.8216 60.7039 14.7252 60.9774 14.6601C61.2508 14.595 61.5294 14.5455 61.8133 14.5117C62.1727 14.47 62.4643 14.4362 62.6883 14.4101C62.9122 14.3815 63.075 14.3359 63.1766 14.2734C63.2781 14.2109 63.3289 14.1093 63.3289 13.9687V13.9414C63.3289 13.6002 63.2326 13.3359 63.0399 13.1484C62.8497 12.9609 62.5659 12.8672 62.1883 12.8672C61.7951 12.8672 61.4852 12.9544 61.2586 13.1289C61.0346 13.3007 60.8797 13.4922 60.7938 13.7031L59.6961 13.4531C59.8263 13.0885 60.0164 12.7942 60.2664 12.5703C60.519 12.3437 60.8094 12.1797 61.1375 12.0781C61.4656 11.9739 61.8107 11.9218 62.1727 11.9218C62.4122 11.9218 62.6662 11.9505 62.9344 12.0078C63.2052 12.0625 63.4578 12.164 63.6922 12.3125C63.9292 12.4609 64.1232 12.6731 64.2742 12.9492C64.4253 13.2226 64.5008 13.5781 64.5008 14.0156V18H63.3602V17.1797H63.3133C63.2378 17.3307 63.1245 17.4791 62.9734 17.625C62.8224 17.7708 62.6284 17.8919 62.3914 17.9882C62.1544 18.0846 61.8706 18.1328 61.5399 18.1328ZM61.7938 17.1953C62.1167 17.1953 62.3927 17.1315 62.6219 17.0039C62.8537 16.8763 63.0294 16.7096 63.1492 16.5039C63.2716 16.2955 63.3328 16.0729 63.3328 15.8359V15.0625C63.2912 15.1041 63.2104 15.1432 63.0906 15.1797C62.9734 15.2135 62.8393 15.2435 62.6883 15.2695C62.5372 15.2929 62.3901 15.3151 62.2469 15.3359C62.1037 15.3541 61.9839 15.3698 61.8875 15.3828C61.6609 15.4114 61.4539 15.4596 61.2664 15.5273C61.0815 15.595 60.9331 15.6927 60.8211 15.8203C60.7117 15.9453 60.657 16.1119 60.657 16.3203C60.657 16.6093 60.7638 16.8281 60.9774 16.9765C61.1909 17.1224 61.463 17.1953 61.7938 17.1953ZM66.0565 18V12H67.2244V18H66.0565ZM66.6463 11.0742C66.4432 11.0742 66.2687 11.0065 66.1229 10.8711C65.9796 10.733 65.908 10.569 65.908 10.3789C65.908 10.1862 65.9796 10.0221 66.1229 9.88669C66.2687 9.74867 66.4432 9.67966 66.6463 9.67966C66.8494 9.67966 67.0226 9.74867 67.1658 9.88669C67.3117 10.0221 67.3846 10.1862 67.3846 10.3789C67.3846 10.569 67.3117 10.733 67.1658 10.8711C67.0226 11.0065 66.8494 11.0742 66.6463 11.0742ZM69.9637 9.99997V18H68.7957V9.99997H69.9637ZM73.2811 18.1328C72.9009 18.1328 72.5571 18.0625 72.2498 17.9218C71.9425 17.7786 71.699 17.5716 71.5193 17.3007C71.3423 17.0299 71.2537 16.6979 71.2537 16.3047C71.2537 15.9661 71.3188 15.6875 71.449 15.4687C71.5792 15.25 71.755 15.0768 71.9764 14.9492C72.1977 14.8216 72.4451 14.7252 72.7186 14.6601C72.992 14.595 73.2706 14.5455 73.5545 14.5117C73.9139 14.47 74.2055 14.4362 74.4295 14.4101C74.6535 14.3815 74.8162 14.3359 74.9178 14.2734C75.0193 14.2109 75.0701 14.1093 75.0701 13.9687V13.9414C75.0701 13.6002 74.9738 13.3359 74.7811 13.1484C74.591 12.9609 74.3071 12.8672 73.9295 12.8672C73.5363 12.8672 73.2264 12.9544 72.9998 13.1289C72.7759 13.3007 72.6209 13.4922 72.535 13.7031L71.4373 13.4531C71.5675 13.0885 71.7576 12.7942 72.0076 12.5703C72.2602 12.3437 72.5506 12.1797 72.8787 12.0781C73.2068 11.9739 73.5519 11.9218 73.9139 11.9218C74.1535 11.9218 74.4074 11.9505 74.6756 12.0078C74.9464 12.0625 75.199 12.164 75.4334 12.3125C75.6704 12.4609 75.8644 12.6731 76.0154 12.9492C76.1665 13.2226 76.242 13.5781 76.242 14.0156V18H75.1014V17.1797H75.0545C74.979 17.3307 74.8657 17.4791 74.7147 17.625C74.5636 17.7708 74.3696 17.8919 74.1326 17.9882C73.8956 18.0846 73.6118 18.1328 73.2811 18.1328ZM73.535 17.1953C73.8579 17.1953 74.1339 17.1315 74.3631 17.0039C74.5949 16.8763 74.7706 16.7096 74.8904 16.5039C75.0128 16.2955 75.074 16.0729 75.074 15.8359V15.0625C75.0324 15.1041 74.9516 15.1432 74.8318 15.1797C74.7147 15.2135 74.5805 15.2435 74.4295 15.2695C74.2785 15.2929 74.1313 15.3151 73.9881 15.3359C73.8449 15.3541 73.7251 15.3698 73.6287 15.3828C73.4022 15.4114 73.1951 15.4596 73.0076 15.5273C72.8227 15.595 72.6743 15.6927 72.5623 15.8203C72.4529 15.9453 72.3982 16.1119 72.3982 16.3203C72.3982 16.6093 72.505 16.8281 72.7186 16.9765C72.9321 17.1224 73.2042 17.1953 73.535 17.1953ZM77.8914 18V9.99997H79.0594V12.9726H79.1297C79.1974 12.8476 79.2951 12.7031 79.4227 12.539C79.5503 12.375 79.7273 12.2317 79.9539 12.1093C80.1805 11.9843 80.4799 11.9218 80.8523 11.9218C81.3367 11.9218 81.769 12.0442 82.1492 12.289C82.5294 12.5338 82.8276 12.8867 83.0438 13.3476C83.2625 13.8086 83.3719 14.3632 83.3719 15.0117C83.3719 15.6601 83.2638 16.2161 83.0477 16.6797C82.8315 17.1406 82.5346 17.4961 82.157 17.7461C81.7794 17.9935 81.3484 18.1172 80.8641 18.1172C80.4995 18.1172 80.2013 18.056 79.9695 17.9336C79.7404 17.8112 79.5607 17.6679 79.4305 17.5039C79.3003 17.3398 79.2 17.194 79.1297 17.0664H79.032V18H77.8914ZM79.0359 15C79.0359 15.4218 79.0971 15.7916 79.2195 16.1093C79.3419 16.427 79.519 16.6757 79.7508 16.8554C79.9826 17.0325 80.2664 17.1211 80.6023 17.1211C80.9513 17.1211 81.243 17.0286 81.4773 16.8437C81.7117 16.6562 81.8888 16.4023 82.0086 16.082C82.131 15.7617 82.1922 15.401 82.1922 15C82.1922 14.6041 82.1323 14.2487 82.0125 13.9336C81.8953 13.6185 81.7182 13.3698 81.4813 13.1875C81.2469 13.0052 80.9539 12.914 80.6023 12.914C80.2638 12.914 79.9773 13.0013 79.743 13.1757C79.5112 13.3502 79.3354 13.5937 79.2156 13.9062C79.0958 14.2187 79.0359 14.5833 79.0359 15ZM85.8514 9.99997V18H84.6834V9.99997H85.8514ZM90.0086 18.1211C89.4174 18.1211 88.9083 17.9948 88.4812 17.7422C88.0568 17.4869 87.7286 17.1289 87.4969 16.6679C87.2677 16.2044 87.1531 15.6614 87.1531 15.039C87.1531 14.4244 87.2677 13.8828 87.4969 13.414C87.7286 12.9453 88.0516 12.5794 88.4656 12.3164C88.8823 12.0534 89.3693 11.9218 89.9266 11.9218C90.2651 11.9218 90.5932 11.9778 90.9109 12.0898C91.2286 12.2018 91.5138 12.3776 91.7664 12.6172C92.019 12.8567 92.2182 13.1679 92.3641 13.5507C92.5099 13.931 92.5828 14.3932 92.5828 14.9375V15.3515H87.8133V14.4765H91.4383C91.4383 14.1692 91.3758 13.8971 91.2508 13.6601C91.1258 13.4205 90.95 13.2317 90.7234 13.0937C90.4995 12.9557 90.2365 12.8867 89.9344 12.8867C89.6062 12.8867 89.3198 12.9674 89.075 13.1289C88.8328 13.2877 88.6453 13.4961 88.5125 13.7539C88.3823 14.0091 88.3172 14.2864 88.3172 14.5859V15.2695C88.3172 15.6705 88.3875 16.0117 88.5281 16.2929C88.6714 16.5742 88.8706 16.789 89.1258 16.9375C89.381 17.0833 89.6792 17.1562 90.0203 17.1562C90.2417 17.1562 90.4435 17.125 90.6258 17.0625C90.8081 16.9974 90.9656 16.901 91.0984 16.7734C91.2312 16.6458 91.3328 16.4882 91.4031 16.3007L92.5086 16.5C92.4201 16.8255 92.2612 17.1106 92.032 17.3554C91.8055 17.5976 91.5203 17.7864 91.1766 17.9218C90.8354 18.0547 90.4461 18.1211 90.0086 18.1211ZM99.3172 18.1211C98.7547 18.1211 98.2638 17.9922 97.8445 17.7343C97.4253 17.4765 97.0997 17.1159 96.868 16.6523C96.6362 16.1888 96.5203 15.6471 96.5203 15.0273C96.5203 14.4049 96.6362 13.8606 96.868 13.3945C97.0997 12.9284 97.4253 12.5664 97.8445 12.3086C98.2638 12.0507 98.7547 11.9218 99.3172 11.9218C99.8797 11.9218 100.371 12.0507 100.79 12.3086C101.209 12.5664 101.535 12.9284 101.766 13.3945C101.998 13.8606 102.114 14.4049 102.114 15.0273C102.114 15.6471 101.998 16.1888 101.766 16.6523C101.535 17.1159 101.209 17.4765 100.79 17.7343C100.371 17.9922 99.8797 18.1211 99.3172 18.1211ZM99.3211 17.1406C99.6857 17.1406 99.9878 17.0442 100.227 16.8515C100.467 16.6588 100.644 16.4023 100.759 16.082C100.876 15.7617 100.934 15.4088 100.934 15.0234C100.934 14.6406 100.876 14.289 100.759 13.9687C100.644 13.6458 100.467 13.3867 100.227 13.1914C99.9878 12.9961 99.6857 12.8984 99.3211 12.8984C98.9539 12.8984 98.6492 12.9961 98.407 13.1914C98.1674 13.3867 97.9891 13.6458 97.8719 13.9687C97.7573 14.289 97.7 14.6406 97.7 15.0234C97.7 15.4088 97.7573 15.7617 97.8719 16.082C97.9891 16.4023 98.1674 16.6588 98.407 16.8515C98.6492 17.0442 98.9539 17.1406 99.3211 17.1406ZM104.586 14.4375V18H103.418V12H104.539V12.9765H104.613C104.751 12.6588 104.967 12.4036 105.262 12.2109C105.558 12.0182 105.932 11.9218 106.383 11.9218C106.791 11.9218 107.15 12.0078 107.457 12.1797C107.764 12.3489 108.002 12.6015 108.172 12.9375C108.341 13.2734 108.426 13.6888 108.426 14.1836V18H107.258V14.3242C107.258 13.8893 107.144 13.5494 106.918 13.3047C106.691 13.0573 106.38 12.9336 105.984 12.9336C105.713 12.9336 105.472 12.9922 105.262 13.1093C105.053 13.2265 104.888 13.3984 104.765 13.625C104.646 13.8489 104.586 14.1198 104.586 14.4375Z" fill="#E8E8E8"/>
<path d="M54.5822 25.4346H52.4515C52.4231 25.2159 52.3649 25.0184 52.2768 24.8423C52.1887 24.6662 52.0723 24.5156 51.9274 24.3906C51.7825 24.2656 51.6106 24.1704 51.4117 24.1051C51.2157 24.0369 50.9984 24.0028 50.7598 24.0028C50.3365 24.0028 49.9714 24.1065 49.6646 24.3139C49.3606 24.5213 49.1262 24.821 48.9615 25.213C48.7995 25.6051 48.7186 26.0795 48.7186 26.6363C48.7186 27.2159 48.801 27.7017 48.9657 28.0937C49.1333 28.4829 49.3677 28.777 49.6688 28.9758C49.9728 29.1718 50.3322 29.2699 50.747 29.2699C50.9799 29.2699 51.1916 29.24 51.3819 29.1804C51.5751 29.1207 51.7441 29.0341 51.889 28.9204C52.0367 28.8039 52.1575 28.6633 52.2512 28.4985C52.3478 28.3309 52.4146 28.142 52.4515 27.9318L54.5822 27.9446C54.5453 28.3309 54.4331 28.7116 54.2456 29.0866C54.0609 29.4616 53.8066 29.8039 53.4828 30.1136C53.1589 30.4204 52.764 30.6647 52.2981 30.8466C51.835 31.0284 51.3038 31.1193 50.7044 31.1193C49.9146 31.1193 49.2072 30.946 48.5822 30.5994C47.96 30.25 47.4686 29.7414 47.1078 29.0738C46.747 28.4062 46.5666 27.5937 46.5666 26.6363C46.5666 25.6761 46.7498 24.8622 47.1163 24.1946C47.4828 23.527 47.9785 23.0199 48.6035 22.6733C49.2285 22.3267 49.9288 22.1534 50.7044 22.1534C51.2328 22.1534 51.7214 22.2272 52.1703 22.375C52.6191 22.5199 53.014 22.7329 53.3549 23.0142C53.6958 23.2926 53.9728 23.6349 54.1859 24.0412C54.399 24.4474 54.5311 24.9119 54.5822 25.4346ZM58.8446 31.1235C58.1571 31.1235 57.5662 30.9829 57.0719 30.7017C56.5804 30.4176 56.2012 30.0227 55.9341 29.517C55.6699 29.0085 55.5378 28.419 55.5378 27.7485C55.5378 27.0753 55.6699 26.4858 55.9341 25.9801C56.2012 25.4716 56.5804 25.0767 57.0719 24.7954C57.5662 24.5113 58.1571 24.3693 58.8446 24.3693C59.5321 24.3693 60.1216 24.5113 60.6131 24.7954C61.1074 25.0767 61.4867 25.4716 61.7509 25.9801C62.0179 26.4858 62.1514 27.0753 62.1514 27.7485C62.1514 28.419 62.0179 29.0085 61.7509 29.517C61.4867 30.0227 61.1074 30.4176 60.6131 30.7017C60.1216 30.9829 59.5321 31.1235 58.8446 31.1235ZM58.8574 29.5511C59.1074 29.5511 59.3191 29.4744 59.4924 29.321C59.6657 29.1676 59.7978 28.9545 59.8887 28.6818C59.9824 28.4091 60.0293 28.0937 60.0293 27.7358C60.0293 27.3721 59.9824 27.0539 59.8887 26.7812C59.7978 26.5085 59.6657 26.2954 59.4924 26.142C59.3191 25.9886 59.1074 25.9119 58.8574 25.9119C58.5989 25.9119 58.3801 25.9886 58.2012 26.142C58.025 26.2954 57.8901 26.5085 57.7963 26.7812C57.7054 27.0539 57.66 27.3721 57.66 27.7358C57.66 28.0937 57.7054 28.4091 57.7963 28.6818C57.8901 28.9545 58.025 29.1676 58.2012 29.321C58.3801 29.4744 58.5989 29.5511 58.8574 29.5511ZM65.6095 31.0937C65.1266 31.0937 64.6877 30.9687 64.2928 30.7187C63.8979 30.4687 63.5826 30.0937 63.3468 29.5937C63.111 29.0937 62.9931 28.473 62.9931 27.7315C62.9931 26.9616 63.1152 26.3281 63.3595 25.8309C63.6039 25.3338 63.9235 24.9659 64.3183 24.7272C64.7161 24.4886 65.1436 24.3693 65.601 24.3693C65.9448 24.3693 66.2388 24.4289 66.4831 24.5483C66.7274 24.6647 66.9291 24.8153 67.0882 25C67.2473 25.1846 67.3681 25.3764 67.4504 25.5753H67.4931V22.2727H69.5769V31H67.5144V29.9389H67.4504C67.3624 30.1406 67.2374 30.3295 67.0754 30.5056C66.9135 30.6818 66.7104 30.8238 66.4661 30.9318C66.2246 31.0397 65.9391 31.0937 65.6095 31.0937ZM66.334 29.4701C66.5868 29.4701 66.8027 29.3991 66.9817 29.2571C67.1607 29.1122 67.2985 28.9091 67.3951 28.6477C67.4916 28.3863 67.5399 28.0795 67.5399 27.7272C67.5399 27.3693 67.4916 27.061 67.3951 26.8025C67.3013 26.544 67.1635 26.3451 66.9817 26.2059C66.8027 26.0667 66.5868 25.9971 66.334 25.9971C66.0755 25.9971 65.8567 26.0681 65.6777 26.2102C65.4987 26.3522 65.3624 26.5525 65.2686 26.811C65.1777 27.0696 65.1323 27.375 65.1323 27.7272C65.1323 28.0795 65.1791 28.3863 65.2729 28.6477C65.3666 28.9091 65.5016 29.1122 65.6777 29.2571C65.8567 29.3991 66.0755 29.4701 66.334 29.4701ZM73.9544 31.1235C73.2697 31.1235 72.6788 30.9886 72.1816 30.7187C71.6873 30.446 71.3066 30.0582 71.0396 29.5554C70.7754 29.0497 70.6433 28.4488 70.6433 27.7528C70.6433 27.0767 70.7768 26.4858 71.0438 25.9801C71.3109 25.4716 71.6873 25.0767 72.1731 24.7954C72.6589 24.5113 73.2313 24.3693 73.8904 24.3693C74.3563 24.3693 74.7825 24.4417 75.1688 24.5866C75.5552 24.7315 75.889 24.946 76.1703 25.2301C76.4515 25.5142 76.6703 25.865 76.8265 26.2826C76.9828 26.6974 77.0609 27.1733 77.0609 27.7102V28.2301H71.372V27.0199H75.122C75.1191 26.7983 75.0666 26.6008 74.9643 26.4275C74.862 26.2542 74.7214 26.1193 74.5424 26.0227C74.3663 25.9233 74.1632 25.8735 73.933 25.8735C73.7001 25.8735 73.4913 25.9261 73.3066 26.0312C73.122 26.1335 72.9757 26.2741 72.8677 26.4531C72.7598 26.6292 72.7029 26.8295 72.6973 27.0539V28.2855C72.6973 28.5525 72.7498 28.7869 72.8549 28.9886C72.96 29.1875 73.1092 29.3423 73.3024 29.4531C73.4955 29.5639 73.7257 29.6193 73.9927 29.6193C74.1774 29.6193 74.345 29.5937 74.4955 29.5426C74.6461 29.4914 74.7754 29.4162 74.8833 29.3167C74.9913 29.2173 75.0723 29.0951 75.1262 28.9503L77.0396 29.0056C76.96 29.4346 76.7853 29.8082 76.5154 30.1264C76.2484 30.4417 75.8975 30.6875 75.4629 30.8636C75.0282 31.0369 74.5254 31.1235 73.9544 31.1235ZM78.1252 31V22.2727H80.209V25.5753H80.2516C80.3368 25.3764 80.4575 25.1846 80.6138 25C80.7729 24.8153 80.9746 24.6647 81.2189 24.5483C81.4661 24.4289 81.7615 24.3693 82.1053 24.3693C82.5598 24.3693 82.9845 24.4886 83.3794 24.7272C83.7771 24.9659 84.0982 25.3338 84.3425 25.8309C84.5868 26.3281 84.709 26.9616 84.709 27.7315C84.709 28.473 84.5911 29.0937 84.3553 29.5937C84.1223 30.0937 83.807 30.4687 83.4093 30.7187C83.0144 30.9687 82.5754 31.0937 82.0925 31.0937C81.7629 31.0937 81.4774 31.0397 81.236 30.9318C80.9945 30.8238 80.7914 30.6818 80.6266 30.5056C80.4647 30.3295 80.3397 30.1406 80.2516 29.9389H80.1877V31H78.1252ZM80.1664 27.7272C80.1664 28.0795 80.2132 28.3863 80.307 28.6477C80.4036 28.9091 80.5414 29.1122 80.7203 29.2571C80.9022 29.3991 81.1195 29.4701 81.3723 29.4701C81.628 29.4701 81.8453 29.3991 82.0243 29.2571C82.2033 29.1122 82.3382 28.9091 82.4291 28.6477C82.5229 28.3863 82.5698 28.0795 82.5698 27.7272C82.5698 27.375 82.5229 27.0696 82.4291 26.811C82.3382 26.5525 82.2033 26.3522 82.0243 26.2102C81.8482 26.0681 81.6308 25.9971 81.3723 25.9971C81.1166 25.9971 80.8993 26.0667 80.7203 26.2059C80.5414 26.3451 80.4036 26.544 80.307 26.8025C80.2132 27.061 80.1664 27.3693 80.1664 27.7272ZM88.8606 31.1235C88.1759 31.1235 87.585 30.9886 87.0879 30.7187C86.5936 30.446 86.2129 30.0582 85.9458 29.5554C85.6816 29.0497 85.5495 28.4488 85.5495 27.7528C85.5495 27.0767 85.683 26.4858 85.9501 25.9801C86.2171 25.4716 86.5936 25.0767 87.0794 24.7954C87.5651 24.5113 88.1376 24.3693 88.7967 24.3693C89.2626 24.3693 89.6887 24.4417 90.0751 24.5866C90.4615 24.7315 90.7953 24.946 91.0765 25.2301C91.3578 25.5142 91.5765 25.865 91.7328 26.2826C91.889 26.6974 91.9671 27.1733 91.9671 27.7102V28.2301H86.2782V27.0199H90.0282C90.0254 26.7983 89.9728 26.6008 89.8705 26.4275C89.7683 26.2542 89.6276 26.1193 89.4487 26.0227C89.2725 25.9233 89.0694 25.8735 88.8393 25.8735C88.6063 25.8735 88.3975 25.9261 88.2129 26.0312C88.0282 26.1335 87.8819 26.2741 87.774 26.4531C87.666 26.6292 87.6092 26.8295 87.6035 27.0539V28.2855C87.6035 28.5525 87.6561 28.7869 87.7612 28.9886C87.8663 29.1875 88.0154 29.3423 88.2086 29.4531C88.4018 29.5639 88.6319 29.6193 88.899 29.6193C89.0836 29.6193 89.2512 29.5937 89.4018 29.5426C89.5524 29.4914 89.6816 29.4162 89.7896 29.3167C89.8975 29.2173 89.9785 29.0951 90.0325 28.9503L91.9458 29.0056C91.8663 29.4346 91.6916 29.8082 91.4217 30.1264C91.1546 30.4417 90.8038 30.6875 90.3691 30.8636C89.9345 31.0369 89.4316 31.1235 88.8606 31.1235ZM93.0314 31V24.4545H95.0556V25.6477H95.1237C95.2431 25.2159 95.4377 24.8949 95.7075 24.6846C95.9774 24.4716 96.2914 24.365 96.6493 24.365C96.7459 24.365 96.8453 24.3721 96.9476 24.3863C97.0499 24.3977 97.145 24.4162 97.2331 24.4417V26.2528C97.1337 26.2187 97.003 26.1917 96.8411 26.1718C96.682 26.152 96.5399 26.142 96.4149 26.142C96.1678 26.142 95.9448 26.1974 95.7459 26.3082C95.5499 26.4162 95.395 26.5681 95.2814 26.7642C95.1706 26.9574 95.1152 27.1846 95.1152 27.446V31H93.0314ZM100.793 33.5909C100.171 33.5909 99.6387 33.5042 99.1955 33.3309C98.7523 33.1576 98.4043 32.9204 98.1514 32.6193C97.8986 32.3181 97.7466 31.9772 97.6955 31.5966L99.6685 31.4858C99.7054 31.6193 99.7736 31.7358 99.873 31.8352C99.9753 31.9346 100.107 32.0113 100.269 32.0653C100.434 32.1193 100.627 32.1463 100.849 32.1463C101.198 32.1463 101.487 32.061 101.714 31.8906C101.944 31.723 102.059 31.4289 102.059 31.0085V29.8579H101.987C101.904 30.0596 101.779 30.24 101.612 30.3991C101.444 30.5582 101.235 30.6832 100.985 30.7741C100.738 30.865 100.454 30.9105 100.133 30.9105C99.6557 30.9105 99.2182 30.7997 98.8205 30.5781C98.4256 30.3537 98.1088 30.0071 97.8702 29.5383C97.6344 29.0667 97.5165 28.4602 97.5165 27.7187C97.5165 26.9545 97.6387 26.3253 97.883 25.8309C98.1273 25.3338 98.4469 24.9659 98.8418 24.7272C99.2395 24.4886 99.6671 24.3693 100.124 24.3693C100.468 24.3693 100.762 24.4289 101.007 24.5483C101.254 24.6647 101.457 24.8153 101.616 25C101.775 25.1846 101.896 25.3764 101.978 25.5753H102.038V24.4545H104.113V31.0255C104.113 31.5795 103.974 32.0468 103.695 32.4275C103.417 32.8082 103.028 33.0966 102.528 33.2926C102.028 33.4914 101.45 33.5909 100.793 33.5909ZM100.857 29.3934C101.11 29.3934 101.326 29.3267 101.505 29.1931C101.684 29.0596 101.822 28.8679 101.918 28.6179C102.015 28.3679 102.063 28.0681 102.063 27.7187C102.063 27.3636 102.015 27.0582 101.918 26.8025C101.825 26.544 101.687 26.3451 101.505 26.2059C101.326 26.0667 101.11 25.9971 100.857 25.9971C100.599 25.9971 100.38 26.0681 100.201 26.2102C100.022 26.3522 99.8858 26.5525 99.7921 26.811C99.7012 27.0667 99.6557 27.3693 99.6557 27.7187C99.6557 28.0681 99.7026 28.3679 99.7963 28.6179C99.8901 28.8679 100.025 29.0596 100.201 29.1931C100.38 29.3267 100.599 29.3934 100.857 29.3934Z" fill="url(#paint2_linear_28_660)"/>
</g>
<rect x="0.749817" y="0.749969" width="118.5" height="38.5" rx="5.25" stroke="white" stroke-opacity="0.15" stroke-width="1.5"/>
<defs>
<filter id="filter0_d_28_660" x="5.99982" y="1.99997" width="36.0001" height="36" filterUnits="userSpaceOnUse" color-interpolation-filters="sRGB">
<feFlood flood-opacity="0" result="BackgroundImageFix"/>
<feColorMatrix in="SourceAlpha" type="matrix" values="0 0 0 0 0 0 0 0 0 0 0 0 0 0 0 0 0 0 127 0" result="hardAlpha"/>
<feOffset/>
<feGaussianBlur stdDeviation="2"/>
<feComposite in2="hardAlpha" operator="out"/>
<feColorMatrix type="matrix" values="0 0 0 0 0 0 0 0 0 0 0 0 0 0 0 0 0 0 0.25 0"/>
<feBlend mode="normal" in2="BackgroundImageFix" result="effect1_dropShadow_28_660"/>
<feBlend mode="normal" in="SourceGraphic" in2="effect1_dropShadow_28_660" result="shape"/>
</filter>
<filter id="filter1_d_28_660" x="41.9998" y="2.99997" width="71.9999" height="34.5909" filterUnits="userSpaceOnUse" color-interpolation-filters="sRGB">
<feFlood flood-opacity="0" result="BackgroundImageFix"/>
<feColorMatrix in="SourceAlpha" type="matrix" values="0 0 0 0 0 0 0 0 0 0 0 0 0 0 0 0 0 0 127 0" result="hardAlpha"/>
<feOffset/>
<feGaussianBlur stdDeviation="2"/>
<feComposite in2="hardAlpha" operator="out"/>
<feColorMatrix type="matrix" values="0 0 0 0 0 0 0 0 0 0 0 0 0 0 0 0 0 0 0.25 0"/>
<feBlend mode="normal" in2="BackgroundImageFix" result="effect1_dropShadow_28_660"/>
<feBlend mode="normal" in="SourceGraphic" in2="effect1_dropShadow_28_660" result="shape"/>
</filter>
<linearGradient id="paint0_linear_28_660" x1="59.9998" y1="-3.05176e-05" x2="59.9998" y2="40" gradientUnits="userSpaceOnUse">
<stop stop-color="#132430"/>
<stop offset="1" stop-color="#323232"/>
</linearGradient>
<linearGradient id="paint1_linear_28_660" x1="24.2785" y1="12.5299" x2="33.2641" y2="30.4929" gradientUnits="userSpaceOnUse">
<stop stop-color="white" stop-opacity="0"/>
<stop offset="0.5" stop-color="#71C2FF"/>
<stop offset="1" stop-color="#39AAFF"/>
</linearGradient>
<linearGradient id="paint2_linear_28_660" x1="75.4998" y1="20" x2="75.4998" y2="33" gradientUnits="userSpaceOnUse">
<stop stop-color="#7AB3DE"/>
<stop offset="1" stop-color="#C1D8EA"/>
</linearGradient>
</defs>
</svg>
