<svg width="164" height="56" viewBox="0 0 164 56" fill="none" xmlns="http://www.w3.org/2000/svg">
<rect y="-9.15527e-05" width="164" height="56" rx="8" fill="url(#paint0_linear_9_9)"/>
<g filter="url(#filter0_d_9_9)">
<path d="M30.4259 8.0102C30.3324 8.02003 30.0324 8.05446 29.7618 8.07906C25.9151 8.48241 22.1273 10.1106 19.0381 12.6979C18.4675 13.1702 17.1688 14.4688 16.6966 15.0394C14.1386 18.094 12.6432 21.5225 12.0923 25.5806C11.9693 26.4808 11.9693 29.5207 12.0923 30.4209C12.6432 34.479 14.1386 37.9075 16.6966 40.9621C17.1688 41.5327 18.4675 42.8313 19.0381 43.3036C22.0929 45.8614 25.5215 47.3568 29.5798 47.9077C30.48 48.0307 33.52 48.0307 34.4202 47.9077C38.4785 47.3568 41.9072 45.8614 44.962 43.3036C45.5326 42.8313 46.8312 41.5327 47.3035 40.9621C49.8614 37.9075 51.3569 34.479 51.9078 30.4209C52.0308 29.5207 52.0308 26.4808 51.9078 25.5806C51.3569 21.5225 49.8614 18.094 47.3035 15.0394C46.8312 14.4688 45.5326 13.1702 44.962 12.6979C41.917 10.1499 38.4539 8.6349 34.4498 8.09873C34.0169 8.03971 33.3872 8.01511 32.2214 8.00528C31.331 7.99544 30.5194 8.00036 30.4259 8.0102ZM30.6719 10.1352C30.6719 10.7107 30.7112 11.9601 30.7653 13.1456C30.7948 13.726 30.8293 14.5573 30.844 14.9902C30.8981 16.5249 31.0605 20.5535 31.0851 20.9126L31.1097 21.2716L30.8883 21.247C30.7653 21.2372 30.6522 21.2077 30.6325 21.1929C30.6178 21.1733 30.5833 20.8339 30.5636 20.4354C30.4751 18.6843 30.1849 11.8912 30.1554 10.8976L30.1258 9.80561L30.2636 9.78593C30.3374 9.7761 30.4603 9.76133 30.539 9.75642L30.6719 9.7515V10.1352ZM35.3795 10.0171C35.3844 10.022 35.3992 11.5076 35.4139 13.3177C35.4336 15.1328 35.4582 16.761 35.4729 16.9381C35.4877 17.1201 35.4828 17.2775 35.4582 17.2873C35.4385 17.3021 35.3155 17.3021 35.1926 17.2873L34.9663 17.2676L34.9318 15.8362C34.9122 15.0443 34.8876 14.1687 34.8777 13.8834C34.8384 13.0128 34.8039 10.0565 34.8335 9.98269C34.8531 9.92858 34.9072 9.92366 35.1138 9.95809C35.2565 9.98761 35.3746 10.0122 35.3795 10.0171ZM24.0015 11.665C24.031 11.7092 24.2622 14.4196 24.5475 17.9661C24.641 19.1713 24.7345 20.2731 24.7492 20.4108C24.7738 20.6617 24.7689 20.6715 24.6115 20.7699C24.5229 20.824 24.4344 20.8683 24.4147 20.8683C24.4 20.8683 24.3704 20.7404 24.3557 20.583C24.2868 19.9435 24.0212 16.8544 23.8343 14.6212C23.726 13.3079 23.6277 12.1323 23.6129 12.0044C23.5883 11.7879 23.5932 11.7683 23.7211 11.6994C23.8785 11.6158 23.9671 11.601 24.0015 11.665ZM37.5439 12.6537C37.6816 12.7029 37.6964 12.7275 37.7259 13.0078C37.7751 13.4997 37.7603 15.851 37.7062 15.851C37.5636 15.851 37.2684 15.6837 37.2438 15.5903C37.2291 15.5312 37.2143 14.8328 37.2143 14.0408C37.2143 12.4422 37.1946 12.5356 37.5439 12.6537ZM28.4583 12.8849C28.4583 13.0177 28.4927 13.7506 28.532 14.5229C28.5714 15.2951 28.6157 16.274 28.6353 16.697C28.6698 17.5529 28.6796 17.5234 28.35 17.5431C28.1877 17.548 28.1877 17.548 28.1779 17.3021C28.168 17.1643 28.1434 16.7364 28.1139 16.3429C28.0893 15.9494 28.0303 15.0984 27.9909 14.4491C27.9516 13.7998 27.9024 13.1554 27.8876 13.0177C27.8581 12.7717 27.863 12.7619 27.9958 12.7127C28.0746 12.6832 28.2123 12.6586 28.3008 12.6586C28.4582 12.6537 28.4583 12.6537 28.4583 12.8849ZM42.1039 13.5588L42.2712 13.6276L42.3056 14.2868C42.3204 14.6458 42.3302 15.423 42.3204 16.0084L42.3056 17.0807L42.099 16.9774L41.8924 16.879L41.8777 15.2459C41.8678 14.3458 41.8727 13.5833 41.8826 13.5489C41.9023 13.4751 41.9023 13.4751 42.1039 13.5588ZM33.1216 14.2031C33.1511 14.2326 33.22 16.6183 33.2249 17.8284L33.2298 18.5564L32.9986 18.522C32.8658 18.5072 32.7576 18.4924 32.7527 18.4875C32.7379 18.4777 32.5903 14.8328 32.5903 14.4786V14.1146L32.8412 14.1441C32.9839 14.1638 33.1068 14.1884 33.1216 14.2031ZM44.4504 14.5524C44.5094 14.6212 44.5192 15.6985 44.534 21.6406C44.5488 28.4631 44.5488 28.6402 44.4602 28.6402C44.4061 28.6402 44.3323 28.6107 44.288 28.5763C44.2143 28.5222 44.2044 27.927 44.1798 22.098C44.1601 18.5662 44.1356 15.3591 44.1208 14.9705L44.0913 14.2622L44.2339 14.3655C44.3176 14.4245 44.411 14.5081 44.4504 14.5524ZM40.0379 15.5608C40.0625 15.5804 40.0871 15.8608 40.092 16.1805C40.1166 17.2676 40.1215 23.9328 40.0969 23.9525C40.0871 23.9623 39.9986 23.9377 39.9002 23.8984L39.7231 23.8246V19.6386V15.4575L39.8608 15.487C39.9346 15.5067 40.0133 15.5362 40.0379 15.5608ZM26.4611 15.8362C26.4758 15.969 26.5004 16.2691 26.5152 16.515C26.5299 16.7561 26.5644 17.307 26.5939 17.7349C26.6529 18.6007 26.6431 18.6548 26.3627 18.6548C26.2151 18.6548 26.1954 18.64 26.1758 18.4924C26.1266 18.2022 25.9544 15.7821 25.979 15.7428C26.0036 15.7083 26.2594 15.6198 26.3775 15.61C26.407 15.605 26.4463 15.7083 26.4611 15.8362ZM18.3248 17.0905C18.3789 17.612 18.4871 18.704 18.5659 19.5156C18.6495 20.3272 18.7183 21.0159 18.7183 21.0454C18.7183 21.1044 18.3396 21.2913 18.3002 21.252C18.2756 21.2274 17.7837 16.8741 17.7837 16.6774C17.7837 16.5593 18.1625 16.0625 18.2117 16.1166C18.2264 16.1264 18.2756 16.5642 18.3248 17.0905ZM37.6128 17.607L37.7554 17.6907L37.7603 18.7531C37.7653 19.3336 37.7751 19.9829 37.7751 20.1944C37.7849 20.6371 37.7308 20.7109 37.4652 20.6174L37.3127 20.5633V20.1403C37.3127 19.9042 37.2979 19.2204 37.2783 18.6154L37.2488 17.5234H37.3619C37.4209 17.5234 37.5341 17.5628 37.6128 17.607ZM20.4843 19.5156C20.5729 20.46 20.7155 22.0538 20.809 23.0572L20.9762 24.8772L20.7844 25.0691L20.5975 25.2609L20.563 24.8723C20.5433 24.6559 20.445 23.6524 20.3417 22.6391C20.2384 21.6258 20.0908 20.155 20.017 19.3729L19.8793 17.9563L20.0711 17.7792C20.2433 17.6169 20.263 17.612 20.2974 17.7005C20.3171 17.7497 20.4007 18.5662 20.4843 19.5156ZM16.7999 20.1108C16.9081 21.0798 17.1934 23.6573 17.4394 25.8364C17.6853 28.0155 17.9165 30.1159 17.9608 30.5094C18.0002 30.9029 18.069 31.4981 18.1084 31.8375C18.1772 32.413 18.1772 32.4524 18.0985 32.5114C17.9805 32.6 17.9313 32.5901 17.9313 32.4868C17.9313 32.4425 17.887 32.0687 17.8329 31.6654C17.7444 30.9915 17.5968 29.8503 17.2672 27.2875C17.1983 26.771 17.0655 25.743 16.9721 25.0002C16.8737 24.2574 16.731 23.1507 16.6523 22.5407C16.5736 21.9308 16.4408 20.888 16.3572 20.2141C16.2686 19.5451 16.2145 18.9499 16.2293 18.886C16.2637 18.7531 16.5539 18.2908 16.5834 18.3203C16.5933 18.335 16.6917 19.1368 16.7999 20.1108ZM15.2946 22.2308C15.3684 22.8211 15.5061 23.8984 15.5996 24.6313C15.6931 25.3593 15.8111 26.2693 15.8652 26.648L15.9587 27.3367L15.8554 27.4252C15.7964 27.4744 15.7373 27.4941 15.7177 27.4744C15.698 27.4547 15.6586 27.258 15.6291 27.0416C15.5996 26.8251 15.4176 25.561 15.2208 24.2378L14.8716 21.8275L14.9847 21.493C15.0437 21.311 15.1077 21.1634 15.1225 21.1634C15.1421 21.1634 15.2159 21.6455 15.2946 22.2308ZM42.3007 21.5865C42.3696 21.6553 42.3794 21.9603 42.3794 24.2181V26.771H42.2417C41.9416 26.771 41.9465 26.8448 41.9269 24.0508L41.9121 21.5078H42.0695C42.1531 21.5078 42.2614 21.5422 42.3007 21.5865ZM31.5327 22.4669C32.6444 22.6342 33.6135 22.9441 34.5727 23.436C35.1926 23.7557 35.4877 23.9771 36.1764 24.6362C37.1996 25.6151 37.8292 26.471 38.4195 27.681C39.2804 29.442 39.6149 31.0013 40.0379 35.1824C40.2298 37.0565 40.4806 40.4555 40.5347 41.8475C40.5495 42.2509 40.5839 42.915 40.6134 43.3232C40.6676 44.189 40.7315 44.0709 39.969 44.4398C38.9114 44.9514 37.8932 45.3056 36.5502 45.6351C34.9072 46.0385 33.8447 46.1664 32.2214 46.1713L31.0408 46.1762L31.0506 45.6105C31.0506 45.3006 31.0801 44.5776 31.1097 44.0119C31.2572 41.272 31.2277 37.814 31.0359 35.8956C30.9277 34.7938 30.7161 33.4558 30.5981 33.1607C30.5735 33.0968 30.6866 33.0427 31.1736 32.8754C32.064 32.5655 32.8363 32.1769 32.9543 31.9851C33.1659 31.6211 32.7871 31.0997 32.305 31.0997C32.2214 31.0997 31.9705 31.1882 31.7393 31.2915C30.6374 31.7982 28.4287 32.3934 27.1547 32.5262C26.2741 32.6196 24.9066 32.5655 23.9572 32.3934C23.4407 32.2999 22.5159 31.9507 21.7436 31.5522C20.8533 31.0898 20.3072 30.475 20.1449 29.747C20.0564 29.3535 20.0809 28.5664 20.1941 28.1237C20.3171 27.6367 20.6614 26.9284 20.9762 26.5152C22.3782 24.6706 25.2706 23.072 28.2369 22.5112C29.1814 22.3341 30.5194 22.3145 31.5327 22.4669ZM46.7083 22.6194C46.8854 22.6932 46.905 22.7129 46.905 22.8801C46.9149 24.223 46.8854 27.2924 46.8608 27.4203C46.8558 27.4646 46.6 27.4695 46.4918 27.4302C46.423 27.4056 46.4131 27.1399 46.4131 24.9707C46.4131 23.4163 46.4328 22.5407 46.4623 22.5407C46.4869 22.5407 46.6 22.5752 46.7083 22.6194ZM48.8579 25.3199L49.035 25.3937L49.0006 29.4666C48.9612 34.6561 48.9563 34.8086 48.7694 35.2562C48.4644 35.9891 48.4792 36.1367 48.5087 32.9197C48.5185 31.3112 48.5431 29.683 48.5529 29.3043C48.5628 28.9255 48.5726 27.8581 48.5775 26.9284C48.5775 25.8069 48.5923 25.2461 48.6267 25.2461C48.6562 25.2461 48.7595 25.2806 48.8579 25.3199ZM19.2742 26.5447C19.3037 26.9432 19.2939 26.9825 19.1512 27.2973L18.9938 27.6318L18.9348 27.1399C18.8413 26.3529 18.8413 26.3185 19.0283 26.2004C19.1119 26.1414 19.2004 26.102 19.2152 26.1119C19.2299 26.1217 19.2595 26.3185 19.2742 26.5447ZM16.2342 29.5109C16.2785 29.9142 16.6228 32.5901 16.7999 33.9035C17.0655 35.935 17.0852 36.2252 16.9671 36.1022C16.9524 36.0875 16.8392 35.4037 16.7212 34.5823C15.9538 29.2797 15.9587 29.3141 16.0227 29.2748C16.1555 29.1862 16.1997 29.2354 16.2342 29.5109ZM19.776 31.7637C19.8055 31.8867 19.9481 33.2197 19.9481 33.3821C19.9481 33.5198 19.771 33.6477 19.6923 33.569C19.6677 33.5444 19.6038 33.1263 19.5546 32.6442C19.5005 32.1572 19.4464 31.6506 19.4316 31.5178L19.4021 31.2718L19.5743 31.4686C19.6727 31.5768 19.7612 31.7096 19.776 31.7637ZM23.7457 33.6182C23.7998 33.6674 23.8343 33.8641 23.8785 34.3954C23.9523 35.3546 23.9622 35.2808 23.7605 35.2808C23.5539 35.2808 23.5588 35.2955 23.4899 34.4298C23.421 33.5493 23.421 33.5591 23.5539 33.5591C23.6178 33.5591 23.7014 33.5887 23.7457 33.6182ZM27.6417 33.692C27.6515 33.7411 27.6761 34.0363 27.6958 34.3462C27.7105 34.6561 27.7548 35.3546 27.7942 35.8956C27.9319 37.8829 27.9368 38.1338 27.8532 38.1338C27.7597 38.1338 27.7499 38.06 27.6417 36.6581C27.6023 36.0776 27.5285 35.1627 27.4793 34.6266C27.4351 34.0904 27.4056 33.6428 27.4203 33.6329C27.4744 33.5739 27.6171 33.6182 27.6417 33.692ZM18.3937 34.6364C18.4232 34.6807 18.6101 36.2547 18.8413 38.4043C18.9102 39.0536 18.9791 39.6783 18.9938 39.7964L19.0184 40.0079L18.8954 39.9292C18.802 39.8652 18.7675 39.8013 18.7675 39.6881C18.7675 39.3782 18.556 37.3369 18.3937 36.0875C18.3002 35.3791 18.2264 34.7544 18.2264 34.6954C18.2264 34.5921 18.3445 34.5528 18.3937 34.6364ZM46.7821 36.6925L46.7476 38.7486L46.6246 38.9306C46.3442 39.3438 46.359 39.4225 46.3738 37.1205L46.3836 35.0102L46.5656 34.8233C46.664 34.7249 46.7624 34.6413 46.7821 34.6413C46.7968 34.6413 46.7968 35.5661 46.7821 36.6925ZM42.2318 39.9538C42.2564 42.8117 42.2515 43.033 42.1728 43.1216C42.1236 43.1757 42.0793 43.2101 42.0646 43.1953C42.0302 43.156 41.981 36.9237 42.0203 36.8893C42.04 36.8696 42.0892 36.8597 42.1335 36.8647C42.1974 36.8794 42.2122 37.2287 42.2318 39.9538ZM26.1659 37.996C26.2004 38.301 26.3233 39.7619 26.3725 40.4506C26.402 40.913 26.402 40.9277 26.2938 40.9621C26.2348 40.9818 26.1659 40.9769 26.1463 40.9523C26.1118 40.9179 26.0036 39.8259 25.8708 38.1436L25.8363 37.7402H25.9888C26.1315 37.7402 26.1413 37.7501 26.1659 37.996ZM22.2995 39.7177C22.3339 39.7521 22.3585 39.8751 22.3585 39.998C22.3585 40.1259 22.4175 40.79 22.4815 41.4786C22.6684 43.3626 22.6832 43.6184 22.5996 43.5692C22.4717 43.4954 22.3585 43.3823 22.3831 43.3527C22.3929 43.3331 22.3733 43.0871 22.3339 42.8067C22.2995 42.5214 22.2552 42.0591 22.2355 41.7738C22.2159 41.4885 22.1716 40.9671 22.1322 40.6178C22.0388 39.757 22.0437 39.6586 22.1519 39.6586C22.2011 39.6586 22.265 39.6832 22.2995 39.7177ZM24.6262 43.0281C24.641 43.1363 24.6705 43.5397 24.6902 43.9233C24.7246 44.6612 24.7099 44.7153 24.5082 44.5628C24.4491 44.5185 24.4098 44.3316 24.3508 43.7709C24.2475 42.7576 24.2425 42.7969 24.4344 42.8166C24.577 42.8313 24.5967 42.851 24.6262 43.0281Z" fill="white"/>
<path d="M22.8701 24.8232C22.3585 25.0445 22.3192 25.7381 22.8012 25.984C23.1505 26.1611 23.5047 26.0775 23.6867 25.7725C24.031 25.2117 23.4702 24.5624 22.8701 24.8232Z" fill="white"/>
<path d="M26.2053 25.2953C25.733 25.5855 25.733 26.284 26.2053 26.5743C26.6726 26.8546 27.2777 26.4857 27.2777 25.925C27.2777 25.3839 26.6578 25.0199 26.2053 25.2953Z" fill="white"/>
</g>
<g filter="url(#filter1_d_9_9)">
<path d="M62.2613 24.4999H60.3977L64.5852 12.8635H66.6136L70.8011 24.4999H68.9375L65.6477 14.9772H65.5568L62.2613 24.4999ZM62.5738 19.9431H68.6193V21.4204H62.5738V19.9431ZM78.7173 15.7726L75.5525 24.4999H73.7343L70.5639 15.7726H72.3878L74.598 22.4885H74.6889L76.8934 15.7726H78.7173ZM82.6037 24.6931C82.0506 24.6931 81.5506 24.5908 81.1037 24.3863C80.6567 24.1779 80.3025 23.8768 80.0412 23.4829C79.7836 23.0889 79.6548 22.606 79.6548 22.034C79.6548 21.5416 79.7495 21.1363 79.9389 20.8181C80.1283 20.4999 80.384 20.248 80.7059 20.0624C81.0279 19.8768 81.3877 19.7366 81.7855 19.642C82.1832 19.5473 82.5885 19.4753 83.0014 19.426C83.5241 19.3654 83.9484 19.3162 84.2741 19.2783C84.5999 19.2366 84.8366 19.1704 84.9843 19.0795C85.1321 18.9885 85.2059 18.8408 85.2059 18.6363V18.5965C85.2059 18.1003 85.0658 17.7158 84.7855 17.4431C84.509 17.1704 84.0961 17.034 83.5468 17.034C82.9749 17.034 82.5241 17.1609 82.1946 17.4147C81.8688 17.6647 81.6434 17.9431 81.5184 18.2499L79.9218 17.8863C80.1112 17.356 80.3877 16.9279 80.7514 16.6022C81.1188 16.2726 81.5412 16.034 82.0184 15.8863C82.4957 15.7348 82.9976 15.659 83.5241 15.659C83.8726 15.659 84.2419 15.7007 84.6321 15.784C85.026 15.8635 85.3934 16.0113 85.7343 16.2272C86.079 16.4431 86.3612 16.7518 86.5809 17.1533C86.8006 17.551 86.9105 18.0681 86.9105 18.7045V24.4999H85.2514V23.3067H85.1832C85.0734 23.5264 84.9086 23.7423 84.6889 23.9544C84.4692 24.1666 84.187 24.3427 83.8423 24.4829C83.4976 24.623 83.0847 24.6931 82.6037 24.6931ZM82.973 23.3294C83.4427 23.3294 83.8442 23.2366 84.1775 23.051C84.5146 22.8654 84.7703 22.623 84.9446 22.3238C85.1226 22.0207 85.2116 21.6969 85.2116 21.3522V20.2272C85.151 20.2878 85.0336 20.3446 84.8593 20.3976C84.6889 20.4469 84.4938 20.4904 84.2741 20.5283C84.0544 20.5624 83.8404 20.5946 83.6321 20.6249C83.4237 20.6514 83.2495 20.6741 83.1093 20.6931C82.7798 20.7348 82.4787 20.8048 82.2059 20.9033C81.937 21.0018 81.7211 21.1438 81.5582 21.3295C81.3991 21.5113 81.3196 21.7537 81.3196 22.0567C81.3196 22.4772 81.4749 22.7954 81.7855 23.0113C82.0961 23.2234 82.4919 23.3294 82.973 23.3294ZM89.1733 24.4999V15.7726H90.8721V24.4999H89.1733ZM90.0312 14.426C89.7358 14.426 89.482 14.3276 89.2698 14.1306C89.0615 13.9298 88.9573 13.6912 88.9573 13.4147C88.9573 13.1344 89.0615 12.8957 89.2698 12.6988C89.482 12.498 89.7358 12.3976 90.0312 12.3976C90.3267 12.3976 90.5786 12.498 90.7869 12.6988C90.999 12.8957 91.1051 13.1344 91.1051 13.4147C91.1051 13.6912 90.999 13.9298 90.7869 14.1306C90.5786 14.3276 90.3267 14.426 90.0312 14.426ZM94.8565 12.8635V24.4999H93.1576V12.8635H94.8565ZM99.6818 24.6931C99.1287 24.6931 98.6287 24.5908 98.1818 24.3863C97.7348 24.1779 97.3806 23.8768 97.1193 23.4829C96.8617 23.0889 96.7329 22.606 96.7329 22.034C96.7329 21.5416 96.8276 21.1363 97.017 20.8181C97.2064 20.4999 97.4621 20.248 97.784 20.0624C98.106 19.8768 98.4659 19.7366 98.8636 19.642C99.2613 19.5473 99.6666 19.4753 100.08 19.426C100.602 19.3654 101.026 19.3162 101.352 19.2783C101.678 19.2366 101.915 19.1704 102.062 19.0795C102.21 18.9885 102.284 18.8408 102.284 18.6363V18.5965C102.284 18.1003 102.144 17.7158 101.864 17.4431C101.587 17.1704 101.174 17.034 100.625 17.034C100.053 17.034 99.6022 17.1609 99.2727 17.4147C98.9469 17.6647 98.7215 17.9431 98.5965 18.2499L97 17.8863C97.1894 17.356 97.4659 16.9279 97.8295 16.6022C98.1969 16.2726 98.6193 16.034 99.0965 15.8863C99.5738 15.7348 100.076 15.659 100.602 15.659C100.951 15.659 101.32 15.7007 101.71 15.784C102.104 15.8635 102.472 16.0113 102.812 16.2272C103.157 16.4431 103.439 16.7518 103.659 17.1533C103.879 17.551 103.989 18.0681 103.989 18.7045V24.4999H102.33V23.3067H102.261C102.151 23.5264 101.987 23.7423 101.767 23.9544C101.547 24.1666 101.265 24.3427 100.92 24.4829C100.576 24.623 100.163 24.6931 99.6818 24.6931ZM100.051 23.3294C100.521 23.3294 100.922 23.2366 101.256 23.051C101.593 22.8654 101.848 22.623 102.023 22.3238C102.201 22.0207 102.29 21.6969 102.29 21.3522V20.2272C102.229 20.2878 102.112 20.3446 101.937 20.3976C101.767 20.4469 101.572 20.4904 101.352 20.5283C101.133 20.5624 100.919 20.5946 100.71 20.6249C100.502 20.6514 100.328 20.6741 100.187 20.6931C99.8579 20.7348 99.5568 20.8048 99.284 20.9033C99.0151 21.0018 98.7992 21.1438 98.6363 21.3295C98.4772 21.5113 98.3977 21.7537 98.3977 22.0567C98.3977 22.4772 98.553 22.7954 98.8636 23.0113C99.1742 23.2234 99.57 23.3294 100.051 23.3294ZM106.388 24.4999V12.8635H108.087V17.1874H108.189C108.287 17.0056 108.429 16.7954 108.615 16.5567C108.801 16.3181 109.058 16.1098 109.388 15.9317C109.717 15.7499 110.153 15.659 110.695 15.659C111.399 15.659 112.028 15.837 112.581 16.1931C113.134 16.5491 113.568 17.0624 113.882 17.7329C114.2 18.4033 114.359 19.2101 114.359 20.1533C114.359 21.0965 114.202 21.9052 113.888 22.5794C113.573 23.2499 113.142 23.7669 112.592 24.1306C112.043 24.4904 111.416 24.6704 110.712 24.6704C110.181 24.6704 109.748 24.5813 109.41 24.4033C109.077 24.2253 108.816 24.0169 108.626 23.7783C108.437 23.5397 108.291 23.3276 108.189 23.1419H108.047V24.4999H106.388ZM108.053 20.1363C108.053 20.7499 108.142 21.2878 108.32 21.7499C108.498 22.212 108.755 22.5738 109.092 22.8351C109.429 23.0927 109.842 23.2215 110.331 23.2215C110.838 23.2215 111.263 23.087 111.604 22.8181C111.945 22.5454 112.202 22.176 112.376 21.7101C112.554 21.2442 112.643 20.7196 112.643 20.1363C112.643 19.5605 112.556 19.0435 112.382 18.5851C112.212 18.1268 111.954 17.7651 111.609 17.4999C111.268 17.2348 110.842 17.1022 110.331 17.1022C109.838 17.1022 109.422 17.2291 109.081 17.4829C108.744 17.7366 108.488 18.0908 108.314 18.5454C108.14 18.9999 108.053 19.5302 108.053 20.1363ZM117.966 12.8635V24.4999H116.267V12.8635H117.966ZM124.013 24.676C123.153 24.676 122.412 24.4923 121.791 24.1249C121.174 23.7537 120.696 23.2329 120.359 22.5624C120.026 21.8882 119.859 21.0984 119.859 20.1931C119.859 19.2991 120.026 18.5113 120.359 17.8295C120.696 17.1476 121.166 16.6154 121.768 16.2329C122.374 15.8503 123.083 15.659 123.893 15.659C124.386 15.659 124.863 15.7404 125.325 15.9033C125.787 16.0662 126.202 16.3219 126.57 16.6704C126.937 17.0188 127.227 17.4715 127.439 18.0283C127.651 18.5813 127.757 19.2537 127.757 20.0454V20.6476H120.82V19.3749H126.092C126.092 18.9279 126.001 18.5321 125.82 18.1874C125.638 17.8389 125.382 17.5643 125.053 17.3635C124.727 17.1628 124.344 17.0624 123.905 17.0624C123.428 17.0624 123.011 17.1798 122.655 17.4147C122.303 17.6457 122.03 17.9488 121.837 18.3238C121.647 18.695 121.553 19.0984 121.553 19.534V20.5283C121.553 21.1116 121.655 21.6079 121.859 22.017C122.068 22.426 122.357 22.7385 122.729 22.9544C123.1 23.1666 123.534 23.2726 124.03 23.2726C124.352 23.2726 124.645 23.2272 124.91 23.1363C125.176 23.0416 125.405 22.9014 125.598 22.7158C125.791 22.5302 125.939 22.301 126.041 22.0283L127.649 22.3181C127.52 22.7916 127.289 23.2063 126.956 23.5624C126.626 23.9147 126.212 24.1893 125.712 24.3863C125.215 24.5794 124.649 24.676 124.013 24.676ZM137.553 24.676C136.734 24.676 136.02 24.4885 135.41 24.1135C134.801 23.7385 134.327 23.2139 133.99 22.5397C133.653 21.8654 133.484 21.0776 133.484 20.176C133.484 19.2707 133.653 18.4791 133.99 17.801C134.327 17.123 134.801 16.5965 135.41 16.2215C136.02 15.8465 136.734 15.659 137.553 15.659C138.371 15.659 139.085 15.8465 139.695 16.2215C140.304 16.5965 140.778 17.123 141.115 17.801C141.452 18.4791 141.621 19.2707 141.621 20.176C141.621 21.0776 141.452 21.8654 141.115 22.5397C140.778 23.2139 140.304 23.7385 139.695 24.1135C139.085 24.4885 138.371 24.676 137.553 24.676ZM137.558 23.2499C138.088 23.2499 138.528 23.1098 138.876 22.8294C139.225 22.5491 139.482 22.176 139.649 21.7101C139.82 21.2442 139.905 20.731 139.905 20.1704C139.905 19.6135 139.82 19.1022 139.649 18.6363C139.482 18.1666 139.225 17.7897 138.876 17.5056C138.528 17.2215 138.088 17.0795 137.558 17.0795C137.024 17.0795 136.581 17.2215 136.229 17.5056C135.88 17.7897 135.621 18.1666 135.45 18.6363C135.284 19.1022 135.2 19.6135 135.2 20.1704C135.2 20.731 135.284 21.2442 135.45 21.7101C135.621 22.176 135.88 22.5491 136.229 22.8294C136.581 23.1098 137.024 23.2499 137.558 23.2499ZM145.216 19.3181V24.4999H143.517V15.7726H145.148V17.1931H145.256C145.456 16.731 145.771 16.3598 146.199 16.0795C146.631 15.7991 147.174 15.659 147.829 15.659C148.424 15.659 148.945 15.784 149.392 16.034C149.839 16.2802 150.186 16.6476 150.432 17.1363C150.678 17.6249 150.801 18.2291 150.801 18.9488V24.4999H149.102V19.1533C149.102 18.5207 148.937 18.0264 148.608 17.6704C148.278 17.3105 147.826 17.1306 147.25 17.1306C146.856 17.1306 146.506 17.2158 146.199 17.3863C145.896 17.5567 145.655 17.8067 145.477 18.1363C145.303 18.462 145.216 18.856 145.216 19.3181Z" fill="#E8E8E8"/>
<path d="M65.5056 43.4999H60.9357V31.1363H65.4996C66.7593 31.1363 67.844 31.3838 68.7535 31.8788C69.6671 32.3698 70.3714 33.0781 70.8664 34.0038C71.3615 34.9255 71.609 36.0282 71.609 37.3121C71.609 38.5999 71.3615 39.7067 70.8664 40.6324C70.3754 41.558 69.6731 42.2684 68.7596 42.7634C67.846 43.2544 66.7613 43.4999 65.5056 43.4999ZM63.924 40.9523H65.3909C66.0832 40.9523 66.6688 40.8356 67.1477 40.6022C67.6306 40.3647 67.9949 39.9804 68.2404 39.4491C68.4899 38.9138 68.6147 38.2015 68.6147 37.3121C68.6147 36.4226 68.4899 35.7143 68.2404 35.1871C67.9909 34.6558 67.6226 34.2735 67.1356 34.04C66.6527 33.8026 66.057 33.6839 65.3487 33.6839H63.924V40.9523ZM77.6882 43.675C76.7182 43.675 75.8811 43.4838 75.1768 43.1015C74.4765 42.7151 73.9372 42.1657 73.5589 41.4534C73.1846 40.737 72.9975 39.8858 72.9975 38.8998C72.9975 37.9419 73.1866 37.1048 73.565 36.3884C73.9433 35.668 74.4765 35.1086 75.1647 34.7101C75.8529 34.3077 76.6639 34.1064 77.5976 34.1064C78.2577 34.1064 78.8614 34.2091 79.4087 34.4143C79.956 34.6196 80.4289 34.9234 80.8274 35.3259C81.2258 35.7284 81.5357 36.2254 81.7571 36.817C81.9784 37.4046 82.0891 38.0787 82.0891 38.8394V39.5759H74.0298V37.8614H79.3423C79.3383 37.5475 79.2638 37.2678 79.1189 37.0223C78.974 36.7768 78.7748 36.5856 78.5213 36.4488C78.2717 36.3079 77.984 36.2375 77.658 36.2375C77.328 36.2375 77.0322 36.3119 76.7706 36.4608C76.509 36.6057 76.3017 36.8049 76.1488 37.0585C75.9958 37.308 75.9153 37.5918 75.9073 37.9097V39.6544C75.9073 40.0327 75.9817 40.3647 76.1306 40.6505C76.2796 40.9322 76.4908 41.1515 76.7645 41.3085C77.0382 41.4655 77.3642 41.5439 77.7425 41.5439C78.0041 41.5439 78.2416 41.5077 78.4549 41.4353C78.6682 41.3628 78.8513 41.2562 79.0042 41.1153C79.1572 40.9745 79.2719 40.8014 79.3483 40.5961L82.0589 40.6746C81.9462 41.2823 81.6987 41.8116 81.3164 42.2623C80.9381 42.7091 80.441 43.0572 79.8252 43.3067C79.2095 43.5522 78.4971 43.675 77.6882 43.675ZM86.5489 38.2116V43.4999H83.5968V34.2272H86.404V35.9296H86.5066C86.7119 35.3621 87.062 34.9174 87.557 34.5954C88.0521 34.2694 88.6417 34.1064 89.3259 34.1064C89.9779 34.1064 90.5433 34.2533 91.0222 34.5471C91.5052 34.8369 91.8795 35.2434 92.1451 35.7666C92.4148 36.2858 92.5476 36.8935 92.5436 37.5897V43.4999H89.5915V38.1693C89.5955 37.6541 89.4647 37.2517 89.1991 36.9619C88.9375 36.6721 88.5733 36.5272 88.1064 36.5272C87.7965 36.5272 87.5228 36.5957 87.2854 36.7325C87.052 36.8653 86.8708 37.0565 86.7421 37.306C86.6173 37.5555 86.5529 37.8574 86.5489 38.2116ZM98.6997 43.675C97.7258 43.675 96.8886 43.4758 96.1883 43.0773C95.4921 42.6749 94.9548 42.1154 94.5765 41.3991C94.2022 40.6786 94.0151 39.8435 94.0151 38.8937C94.0151 37.9399 94.2022 37.1048 94.5765 36.3884C94.9548 35.668 95.4921 35.1086 96.1883 34.7101C96.8886 34.3077 97.7258 34.1064 98.6997 34.1064C99.6737 34.1064 100.509 34.3077 101.205 34.7101C101.905 35.1086 102.443 35.668 102.817 36.3884C103.195 37.1048 103.384 37.9399 103.384 38.8937C103.384 39.8435 103.195 40.6786 102.817 41.3991C102.443 42.1154 101.905 42.6749 101.205 43.0773C100.509 43.4758 99.6737 43.675 98.6997 43.675ZM98.7178 41.4473C99.072 41.4473 99.3718 41.3387 99.6173 41.1214C99.8628 40.904 100.05 40.6022 100.179 40.2158C100.312 39.8295 100.378 39.3827 100.378 38.8756C100.378 38.3605 100.312 37.9097 100.179 37.5233C100.05 37.137 99.8628 36.8351 99.6173 36.6178C99.3718 36.4005 99.072 36.2918 98.7178 36.2918C98.3516 36.2918 98.0417 36.4005 97.7881 36.6178C97.5386 36.8351 97.3474 37.137 97.2146 37.5233C97.0858 37.9097 97.0214 38.3605 97.0214 38.8756C97.0214 39.3827 97.0858 39.8295 97.2146 40.2158C97.3474 40.6022 97.5386 40.904 97.7881 41.1214C98.0417 41.3387 98.3516 41.4473 98.7178 41.4473Z" fill="white"/>
</g>
<rect x="1.05" y="1.04991" width="161.9" height="53.9" rx="6.95" stroke="white" stroke-opacity="0.15" stroke-width="2.1"/>
<defs>
<filter id="filter0_d_9_9" x="6.28571" y="2.28562" width="51.4286" height="51.4286" filterUnits="userSpaceOnUse" color-interpolation-filters="sRGB">
<feFlood flood-opacity="0" result="BackgroundImageFix"/>
<feColorMatrix in="SourceAlpha" type="matrix" values="0 0 0 0 0 0 0 0 0 0 0 0 0 0 0 0 0 0 127 0" result="hardAlpha"/>
<feOffset/>
<feGaussianBlur stdDeviation="2.85714"/>
<feComposite in2="hardAlpha" operator="out"/>
<feColorMatrix type="matrix" values="0 0 0 0 0 0 0 0 0 0 0 0 0 0 0 0 0 0 0.25 0"/>
<feBlend mode="normal" in2="BackgroundImageFix" result="effect1_dropShadow_9_9"/>
<feBlend mode="normal" in="SourceGraphic" in2="effect1_dropShadow_9_9" result="shape"/>
</filter>
<filter id="filter1_d_9_9" x="54.4" y="3.89991" width="103.2" height="48.2" filterUnits="userSpaceOnUse" color-interpolation-filters="sRGB">
<feFlood flood-opacity="0" result="BackgroundImageFix"/>
<feColorMatrix in="SourceAlpha" type="matrix" values="0 0 0 0 0 0 0 0 0 0 0 0 0 0 0 0 0 0 127 0" result="hardAlpha"/>
<feOffset/>
<feGaussianBlur stdDeviation="2.8"/>
<feComposite in2="hardAlpha" operator="out"/>
<feColorMatrix type="matrix" values="0 0 0 0 0 0 0 0 0 0 0 0 0 0 0 0 0 0 0.25 0"/>
<feBlend mode="normal" in2="BackgroundImageFix" result="effect1_dropShadow_9_9"/>
<feBlend mode="normal" in="SourceGraphic" in2="effect1_dropShadow_9_9" result="shape"/>
</filter>
<linearGradient id="paint0_linear_9_9" x1="82" y1="-9.15527e-05" x2="82" y2="55.9999" gradientUnits="userSpaceOnUse">
<stop stop-color="#282828"/>
<stop offset="1" stop-color="#1A1A1A"/>
</linearGradient>
</defs>
</svg>
