<svg width="130" height="40" viewBox="0 0 130 40" fill="none" xmlns="http://www.w3.org/2000/svg">
<rect x="-0.000183105" width="130" height="40" rx="6" fill="url(#paint0_linear_28_669)"/>
<g filter="url(#filter0_d_28_669)">
<path d="M37.4737 18.7544L25.2487 6.52942C25.0815 6.36161 24.8828 6.22846 24.664 6.13761C24.4452 6.04676 24.2106 6 23.9737 6C23.7368 6 23.5023 6.04676 23.2835 6.13761C23.0647 6.22846 22.866 6.36161 22.6987 6.52942L20.1597 9.06842L23.3797 12.2884C23.7594 12.1592 24.1678 12.1392 24.5583 12.2308C24.9488 12.3224 25.3057 12.5218 25.5884 12.8064C25.8711 13.0909 26.0681 13.4492 26.1571 13.8402C26.2461 14.2313 26.2235 14.6396 26.0917 15.0184L29.1917 18.1184C29.6551 17.9592 30.159 17.9636 30.6196 18.1309C31.0801 18.2982 31.4694 18.6182 31.7226 19.0376C31.9758 19.4571 32.0777 19.9506 32.0112 20.4361C31.9447 20.9215 31.7138 21.3694 31.3571 21.7053C31.0004 22.0412 30.5394 22.2447 30.0508 22.282C29.5623 22.3192 29.0757 22.1879 28.6723 21.9099C28.2688 21.632 27.9727 21.2242 27.8334 20.7544C27.6941 20.2847 27.72 19.7814 27.9067 19.3284L25.0117 16.4334V24.0504C25.4503 24.2677 25.8011 24.6287 26.0059 25.0732C26.2106 25.5177 26.2569 26.019 26.1369 26.4935C26.017 26.968 25.7381 27.3871 25.3468 27.681C24.9554 27.9748 24.4751 28.1257 23.986 28.1085C23.4969 28.0913 23.0284 27.9071 22.6587 27.5865C22.2889 27.2659 22.0401 26.8282 21.9538 26.3465C21.8675 25.8647 21.9488 25.368 22.1842 24.9389C22.4197 24.5098 22.795 24.1744 23.2477 23.9884V16.3014C22.9858 16.194 22.7478 16.0357 22.5473 15.8359C22.3468 15.636 22.1878 15.3985 22.0795 15.1369C21.9712 14.8753 21.9158 14.5949 21.9163 14.3118C21.9169 14.0287 21.9734 13.7486 22.0827 13.4874L18.9127 10.3154L10.5297 18.7014C10.3618 18.8687 10.2285 19.0674 10.1376 19.2863C10.0466 19.5052 9.99982 19.7399 9.99982 19.9769C9.99982 20.2139 10.0466 20.4486 10.1376 20.6675C10.2285 20.8864 10.3618 21.0852 10.5297 21.2524L22.7547 33.4734C22.922 33.6412 23.1207 33.7744 23.3395 33.8652C23.5583 33.9561 23.7928 34.0028 24.0297 34.0028C24.2666 34.0028 24.5012 33.9561 24.72 33.8652C24.9388 33.7744 25.1375 33.6412 25.3047 33.4734L37.4737 21.3014C37.6417 21.1342 37.775 20.9354 37.8659 20.7165C37.9568 20.4976 38.0037 20.2629 38.0037 20.0259C38.0037 19.7889 37.9568 19.5542 37.8659 19.3353C37.775 19.1164 37.6417 18.9177 37.4737 18.7504" fill="#DD4C35"/>
<path d="M20.1597 9.06842L23.3797 12.2884C23.7594 12.1592 24.1678 12.1392 24.5583 12.2308C24.9488 12.3224 25.3057 12.5218 25.5884 12.8064C25.8711 13.0909 26.0681 13.4492 26.1571 13.8402C26.2461 14.2313 26.2234 14.6396 26.0917 15.0184L29.1917 18.1184C29.6551 17.9592 30.159 17.9636 30.6196 18.1309C31.0801 18.2982 31.4694 18.6182 31.7226 19.0376C31.9758 19.4571 32.0777 19.9506 32.0111 20.4361C31.9446 20.9215 31.7138 21.3694 31.3571 21.7053C31.0004 22.0412 30.5394 22.2447 30.0508 22.282C29.5623 22.3192 29.0757 22.1879 28.6722 21.9099C28.2688 21.632 27.9727 21.2242 27.8334 20.7544C27.6941 20.2847 27.72 19.7814 27.9067 19.3284L25.0117 16.4334V24.0504C25.4503 24.2677 25.8011 24.6287 26.0059 25.0732C26.2106 25.5177 26.2569 26.019 26.1369 26.4935C26.017 26.968 25.7381 27.3871 25.3467 27.681C24.9554 27.9748 24.4751 28.1257 23.986 28.1085C23.4969 28.0913 23.0284 27.9071 22.6586 27.5865C22.2889 27.2659 22.0401 26.8282 21.9538 26.3465C21.8674 25.8647 21.9488 25.368 22.1842 24.9389C22.4197 24.5098 22.795 24.1744 23.2477 23.9884V16.3014C22.9858 16.194 22.7478 16.0357 22.5473 15.8359C22.3468 15.636 22.1878 15.3985 22.0795 15.1369C21.9712 14.8753 21.9157 14.5949 21.9163 14.3118C21.9169 14.0287 21.9734 13.7486 22.0827 13.4874L18.9127 10.3154" fill="white"/>
</g>
<g filter="url(#filter1_d_28_669)">
<path d="M53.5233 12.6016H52.3045C52.2576 12.3411 52.1704 12.112 52.0428 11.9141C51.9152 11.7161 51.7589 11.5482 51.574 11.4102C51.3891 11.2721 51.1821 11.168 50.9529 11.0977C50.7264 11.0273 50.4855 10.9922 50.2303 10.9922C49.7693 10.9922 49.3566 11.1081 48.992 11.3398C48.63 11.5716 48.3436 11.9115 48.1326 12.3594C47.9243 12.8073 47.8201 13.3542 47.8201 14C47.8201 14.651 47.9243 15.2005 48.1326 15.6484C48.3436 16.0963 48.6313 16.4349 48.9959 16.6641C49.3605 16.8932 49.7706 17.0078 50.2264 17.0078C50.479 17.0078 50.7186 16.974 50.9451 16.9062C51.1743 16.8359 51.3813 16.7331 51.5662 16.5977C51.7511 16.4622 51.9074 16.2969 52.035 16.1016C52.1652 15.9036 52.255 15.6771 52.3045 15.4219L53.5233 15.4258C53.4581 15.819 53.3318 16.181 53.1443 16.5117C52.9595 16.8398 52.7212 17.1237 52.4295 17.3633C52.1404 17.6003 51.8097 17.7838 51.4373 17.9141C51.0649 18.0443 50.6587 18.1094 50.2186 18.1094C49.5259 18.1094 48.9087 17.9453 48.367 17.6172C47.8253 17.2865 47.3983 16.8138 47.0858 16.1992C46.7759 15.5846 46.6209 14.8516 46.6209 14C46.6209 13.1458 46.7772 12.4128 47.0897 11.8008C47.4022 11.1862 47.8292 10.7148 48.3709 10.3867C48.9126 10.056 49.5285 9.89062 50.2186 9.89062C50.643 9.89062 51.0389 9.95182 51.4061 10.0742C51.7759 10.194 52.1079 10.3711 52.4022 10.6055C52.6964 10.8372 52.9399 11.1211 53.1326 11.457C53.3253 11.7904 53.4555 12.1719 53.5233 12.6016ZM56.0418 14.4375V18H54.8738V10H56.0262V12.9766H56.1004C56.241 12.6536 56.4559 12.3971 56.7449 12.207C57.034 12.0169 57.4116 11.9219 57.8777 11.9219C58.2892 11.9219 58.6486 12.0065 58.9559 12.1758C59.2658 12.345 59.5053 12.5977 59.6746 12.9336C59.8465 13.2669 59.9324 13.6836 59.9324 14.1836V18H58.7645V14.3242C58.7645 13.8841 58.6512 13.543 58.4246 13.3008C58.1981 13.056 57.883 12.9336 57.4793 12.9336C57.2033 12.9336 56.9559 12.9922 56.7371 13.1094C56.521 13.2266 56.3504 13.3984 56.2254 13.625C56.103 13.849 56.0418 14.1198 56.0418 14.4375ZM64.077 18.1211C63.4858 18.1211 62.9767 17.9948 62.5496 17.7422C62.1251 17.487 61.797 17.1289 61.5652 16.668C61.3361 16.2044 61.2215 15.6615 61.2215 15.0391C61.2215 14.4245 61.3361 13.8828 61.5652 13.4141C61.797 12.9453 62.1199 12.5794 62.534 12.3164C62.9507 12.0534 63.4376 11.9219 63.9949 11.9219C64.3335 11.9219 64.6616 11.9779 64.9793 12.0898C65.297 12.2018 65.5822 12.3776 65.8348 12.6172C66.0874 12.8568 66.2866 13.168 66.4324 13.5508C66.5783 13.931 66.6512 14.3932 66.6512 14.9375V15.3516H61.8816V14.4766H65.5066C65.5066 14.1693 65.4441 13.8971 65.3191 13.6602C65.1941 13.4206 65.0184 13.2318 64.7918 13.0937C64.5678 12.9557 64.3048 12.8867 64.0027 12.8867C63.6746 12.8867 63.3882 12.9674 63.1434 13.1289C62.9012 13.2878 62.7137 13.4961 62.5809 13.7539C62.4507 14.0091 62.3856 14.2865 62.3856 14.5859V15.2695C62.3856 15.6706 62.4559 16.0117 62.5965 16.293C62.7397 16.5742 62.9389 16.7891 63.1941 16.9375C63.4494 17.0833 63.7475 17.1562 64.0887 17.1562C64.31 17.1562 64.5119 17.125 64.6941 17.0625C64.8764 16.9974 65.034 16.901 65.1668 16.7734C65.2996 16.6458 65.4012 16.4883 65.4715 16.3008L66.577 16.5C66.4884 16.8255 66.3296 17.1107 66.1004 17.3555C65.8738 17.5977 65.5887 17.7865 65.2449 17.9219C64.9038 18.0547 64.5145 18.1211 64.077 18.1211ZM70.4744 18.1211C69.8937 18.1211 69.3937 17.9896 68.9744 17.7266C68.5578 17.4609 68.2374 17.095 68.0135 16.6289C67.7895 16.1628 67.6775 15.6289 67.6775 15.0273C67.6775 14.418 67.7921 13.8802 68.0213 13.4141C68.2505 12.9453 68.5734 12.5794 68.99 12.3164C69.4067 12.0534 69.8976 11.9219 70.4627 11.9219C70.9184 11.9219 71.3247 12.0065 71.6815 12.1758C72.0382 12.3424 72.326 12.5768 72.5447 12.8789C72.7661 13.181 72.8976 13.5339 72.9393 13.9375H71.8025C71.74 13.6562 71.5968 13.4141 71.3729 13.2109C71.1515 13.0078 70.8546 12.9062 70.4822 12.9062C70.1567 12.9062 69.8716 12.9922 69.6268 13.1641C69.3846 13.3333 69.1958 13.5755 69.0604 13.8906C68.9249 14.2031 68.8572 14.5729 68.8572 15C68.8572 15.4375 68.9236 15.8151 69.0565 16.1328C69.1893 16.4505 69.3768 16.6966 69.619 16.8711C69.8637 17.0456 70.1515 17.1328 70.4822 17.1328C70.7036 17.1328 70.9041 17.0924 71.0838 17.0117C71.2661 16.9284 71.4184 16.8099 71.5408 16.6562C71.6658 16.5026 71.7531 16.3177 71.8025 16.1016H72.9393C72.8976 16.4896 72.7713 16.8359 72.5604 17.1406C72.3494 17.4453 72.0669 17.6849 71.7127 17.8594C71.3611 18.0338 70.9484 18.1211 70.4744 18.1211ZM75.2625 15.9648L75.2547 14.5391H75.4578L77.8484 12H79.2469L76.5203 14.8906H76.3367L75.2625 15.9648ZM74.1883 18V10H75.3563V18H74.1883ZM77.9773 18L75.8289 15.1484L76.6336 14.332L79.4109 18H77.9773ZM85.7498 18.1211C85.1873 18.1211 84.6964 17.9922 84.2771 17.7344C83.8579 17.4766 83.5324 17.1159 83.3006 16.6523C83.0688 16.1888 82.9529 15.6471 82.9529 15.0273C82.9529 14.4049 83.0688 13.8607 83.3006 13.3945C83.5324 12.9284 83.8579 12.5664 84.2771 12.3086C84.6964 12.0508 85.1873 11.9219 85.7498 11.9219C86.3123 11.9219 86.8032 12.0508 87.2225 12.3086C87.6417 12.5664 87.9673 12.9284 88.199 13.3945C88.4308 13.8607 88.5467 14.4049 88.5467 15.0273C88.5467 15.6471 88.4308 16.1888 88.199 16.6523C87.9673 17.1159 87.6417 17.4766 87.2225 17.7344C86.8032 17.9922 86.3123 18.1211 85.7498 18.1211ZM85.7537 17.1406C86.1183 17.1406 86.4204 17.0443 86.66 16.8516C86.8995 16.6588 87.0766 16.4023 87.1912 16.082C87.3084 15.7617 87.367 15.4088 87.367 15.0234C87.367 14.6406 87.3084 14.2891 87.1912 13.9687C87.0766 13.6458 86.8995 13.3867 86.66 13.1914C86.4204 12.9961 86.1183 12.8984 85.7537 12.8984C85.3865 12.8984 85.0818 12.9961 84.8396 13.1914C84.6001 13.3867 84.4217 13.6458 84.3045 13.9687C84.1899 14.2891 84.1326 14.6406 84.1326 15.0234C84.1326 15.4088 84.1899 15.7617 84.3045 16.082C84.4217 16.4023 84.6001 16.6588 84.8396 16.8516C85.0818 17.0443 85.3865 17.1406 85.7537 17.1406ZM93.6512 15.5117V12H94.823V18H93.6746V16.9609H93.6121C93.4741 17.2812 93.2527 17.5482 92.948 17.7617C92.646 17.9727 92.2697 18.0781 91.8191 18.0781C91.4337 18.0781 91.0926 17.9935 90.7957 17.8242C90.5014 17.6523 90.2697 17.3984 90.1004 17.0625C89.9337 16.7266 89.8504 16.3112 89.8504 15.8164V12H91.0184V15.6758C91.0184 16.0846 91.1316 16.4102 91.3582 16.6523C91.5848 16.8945 91.879 17.0156 92.241 17.0156C92.4598 17.0156 92.6772 16.9609 92.8934 16.8516C93.1121 16.7422 93.2931 16.5768 93.4363 16.3555C93.5822 16.1341 93.6538 15.8529 93.6512 15.5117ZM99.1932 12V12.9375H95.9158V12H99.1932ZM96.7947 10.5625H97.9627V16.2383C97.9627 16.4648 97.9965 16.6354 98.0643 16.75C98.132 16.862 98.2192 16.9388 98.326 16.9805C98.4353 17.0195 98.5538 17.0391 98.6814 17.0391C98.7752 17.0391 98.8572 17.0325 98.9275 17.0195C98.9978 17.0065 99.0525 16.9961 99.0916 16.9883L99.3025 17.9531C99.2348 17.9792 99.1385 18.0052 99.0135 18.0312C98.8885 18.0599 98.7322 18.0755 98.5447 18.0781C98.2374 18.0833 97.951 18.0286 97.6853 17.9141C97.4197 17.7995 97.2049 17.6224 97.0408 17.3828C96.8768 17.1432 96.7947 16.8424 96.7947 16.4805V10.5625ZM106.197 12V12.9375H102.92V12H106.197ZM103.799 10.5625H104.967V16.2383C104.967 16.4648 105 16.6354 105.068 16.75C105.136 16.862 105.223 16.9388 105.33 16.9805C105.439 17.0195 105.558 17.0391 105.685 17.0391C105.779 17.0391 105.861 17.0325 105.931 17.0195C106.002 17.0065 106.056 16.9961 106.096 16.9883L106.306 17.9531C106.239 17.9792 106.142 18.0052 106.017 18.0312C105.892 18.0599 105.736 18.0755 105.549 18.0781C105.241 18.0833 104.955 18.0286 104.689 17.9141C104.424 17.7995 104.209 17.6224 104.045 17.3828C103.881 17.1432 103.799 16.8424 103.799 16.4805V10.5625ZM108.786 14.4375V18H107.618V10H108.77V12.9766H108.845C108.985 12.6536 109.2 12.3971 109.489 12.207C109.778 12.0169 110.156 11.9219 110.622 11.9219C111.033 11.9219 111.393 12.0065 111.7 12.1758C112.01 12.345 112.249 12.5977 112.419 12.9336C112.591 13.2669 112.677 13.6836 112.677 14.1836V18H111.509V14.3242C111.509 13.8841 111.395 13.543 111.169 13.3008C110.942 13.056 110.627 12.9336 110.223 12.9336C109.947 12.9336 109.7 12.9922 109.481 13.1094C109.265 13.2266 109.095 13.3984 108.97 13.625C108.847 13.849 108.786 14.1198 108.786 14.4375ZM116.821 18.1211C116.23 18.1211 115.721 17.9948 115.294 17.7422C114.869 17.487 114.541 17.1289 114.309 16.668C114.08 16.2044 113.966 15.6615 113.966 15.0391C113.966 14.4245 114.08 13.8828 114.309 13.4141C114.541 12.9453 114.864 12.5794 115.278 12.3164C115.695 12.0534 116.182 11.9219 116.739 11.9219C117.078 11.9219 117.406 11.9779 117.723 12.0898C118.041 12.2018 118.326 12.3776 118.579 12.6172C118.832 12.8568 119.031 13.168 119.177 13.5508C119.322 13.931 119.395 14.3932 119.395 14.9375V15.3516H114.626V14.4766H118.251C118.251 14.1693 118.188 13.8971 118.063 13.6602C117.938 13.4206 117.762 13.2318 117.536 13.0937C117.312 12.9557 117.049 12.8867 116.747 12.8867C116.419 12.8867 116.132 12.9674 115.887 13.1289C115.645 13.2878 115.458 13.4961 115.325 13.7539C115.195 14.0091 115.13 14.2865 115.13 14.5859V15.2695C115.13 15.6706 115.2 16.0117 115.341 16.293C115.484 16.5742 115.683 16.7891 115.938 16.9375C116.193 17.0833 116.492 17.1562 116.833 17.1562C117.054 17.1562 117.256 17.125 117.438 17.0625C117.621 16.9974 117.778 16.901 117.911 16.7734C118.044 16.6458 118.145 16.4883 118.216 16.3008L119.321 16.5C119.233 16.8255 119.074 17.1107 118.845 17.3555C118.618 17.5977 118.333 17.7865 117.989 17.9219C117.648 18.0547 117.259 18.1211 116.821 18.1211Z" fill="#E8E8E8"/>
<path d="M46.6603 31V22.2727H50.2654C50.9188 22.2727 51.4828 22.3906 51.9572 22.6264C52.4345 22.8594 52.8024 23.1946 53.0609 23.6321C53.3194 24.0668 53.4487 24.5824 53.4487 25.179C53.4487 25.7841 53.3166 26.2983 53.0524 26.7216C52.7882 27.142 52.4132 27.4631 51.9274 27.6846C51.4416 27.9034 50.8663 28.0128 50.2015 28.0128H47.9217V26.3508H49.8095C50.1277 26.3508 50.3933 26.3096 50.6063 26.2273C50.8223 26.142 50.9856 26.0142 51.0964 25.8437C51.2072 25.6704 51.2626 25.4489 51.2626 25.179C51.2626 24.9091 51.2072 24.6861 51.0964 24.5099C50.9856 24.331 50.8223 24.1974 50.6063 24.1094C50.3904 24.0185 50.1248 23.973 49.8095 23.973H48.7697V31H46.6603ZM51.5737 27.0114L53.747 31H51.4458L49.3152 27.0114H51.5737ZM57.5364 31.1236C56.8517 31.1236 56.2608 30.9886 55.7637 30.7187C55.2693 30.446 54.8887 30.0582 54.6216 29.5554C54.3574 29.0497 54.2253 28.4489 54.2253 27.7528C54.2253 27.0767 54.3588 26.4858 54.6259 25.9801C54.8929 25.4716 55.2693 25.0767 55.7551 24.7954C56.2409 24.5114 56.8134 24.3693 57.4725 24.3693C57.9384 24.3693 58.3645 24.4418 58.7509 24.5866C59.1372 24.7315 59.471 24.946 59.7523 25.2301C60.0335 25.5142 60.2523 25.865 60.4085 26.2827C60.5648 26.6974 60.6429 27.1733 60.6429 27.7102V28.2301H54.954V27.0199H58.704C58.7012 26.7983 58.6486 26.6008 58.5463 26.4275C58.4441 26.2543 58.3034 26.1193 58.1245 26.0227C57.9483 25.9233 57.7452 25.8736 57.5151 25.8736C57.2821 25.8736 57.0733 25.9261 56.8887 26.0312C56.704 26.1335 56.5577 26.2741 56.4497 26.4531C56.3418 26.6293 56.285 26.8295 56.2793 27.054V28.2855C56.2793 28.5525 56.3318 28.7869 56.437 28.9886C56.5421 29.1875 56.6912 29.3423 56.8844 29.4531C57.0776 29.5639 57.3077 29.6193 57.5747 29.6193C57.7594 29.6193 57.927 29.5937 58.0776 29.5426C58.2282 29.4915 58.3574 29.4162 58.4654 29.3168C58.5733 29.2173 58.6543 29.0952 58.7083 28.9503L60.6216 29.0057C60.5421 29.4346 60.3674 29.8082 60.0975 30.1264C59.8304 30.4418 59.4796 30.6875 59.0449 30.8636C58.6103 31.0369 58.1074 31.1236 57.5364 31.1236ZM61.7072 33.4545V24.4545H63.7697V25.5753H63.8336C63.9188 25.3764 64.0396 25.1846 64.1958 25C64.3549 24.8153 64.5566 24.6648 64.8009 24.5483C65.0481 24.429 65.3436 24.3693 65.6873 24.3693C66.1419 24.3693 66.5666 24.4886 66.9615 24.7273C67.3592 24.9659 67.6802 25.3338 67.9245 25.831C68.1688 26.3281 68.291 26.9616 68.291 27.7315C68.291 28.473 68.1731 29.0937 67.9373 29.5937C67.7044 30.0937 67.389 30.4687 66.9913 30.7187C66.5964 30.9687 66.1575 31.0937 65.6745 31.0937C65.345 31.0937 65.0595 31.0398 64.818 30.9318C64.5765 30.8239 64.3734 30.6818 64.2086 30.5057C64.0467 30.3295 63.9217 30.1406 63.8336 29.9389H63.791V33.4545H61.7072ZM63.7484 27.7273C63.7484 28.0795 63.7953 28.3864 63.889 28.6477C63.9856 28.9091 64.1234 29.1122 64.3024 29.2571C64.4842 29.3991 64.7015 29.4702 64.9544 29.4702C65.21 29.4702 65.4274 29.3991 65.6063 29.2571C65.7853 29.1122 65.9203 28.9091 66.0112 28.6477C66.1049 28.3864 66.1518 28.0795 66.1518 27.7273C66.1518 27.375 66.1049 27.0696 66.0112 26.8111C65.9203 26.5525 65.7853 26.3523 65.6063 26.2102C65.4302 26.0682 65.2129 25.9971 64.9544 25.9971C64.6987 25.9971 64.4813 26.0668 64.3024 26.206C64.1234 26.3452 63.9856 26.544 63.889 26.8025C63.7953 27.0611 63.7484 27.3693 63.7484 27.7273ZM72.4384 31.1236C71.7509 31.1236 71.16 30.9829 70.6656 30.7017C70.1742 30.4176 69.7949 30.0227 69.5279 29.517C69.2637 29.0085 69.1316 28.419 69.1316 27.7486C69.1316 27.0753 69.2637 26.4858 69.5279 25.9801C69.7949 25.4716 70.1742 25.0767 70.6656 24.7954C71.16 24.5114 71.7509 24.3693 72.4384 24.3693C73.1259 24.3693 73.7154 24.5114 74.2068 24.7954C74.7012 25.0767 75.0804 25.4716 75.3446 25.9801C75.6117 26.4858 75.7452 27.0753 75.7452 27.7486C75.7452 28.419 75.6117 29.0085 75.3446 29.517C75.0804 30.0227 74.7012 30.4176 74.2068 30.7017C73.7154 30.9829 73.1259 31.1236 72.4384 31.1236ZM72.4512 29.5511C72.7012 29.5511 72.9128 29.4744 73.0861 29.321C73.2594 29.1676 73.3915 28.9545 73.4824 28.6818C73.5762 28.4091 73.623 28.0937 73.623 27.7358C73.623 27.3721 73.5762 27.054 73.4824 26.7812C73.3915 26.5085 73.2594 26.2954 73.0861 26.142C72.9128 25.9886 72.7012 25.9119 72.4512 25.9119C72.1926 25.9119 71.9739 25.9886 71.7949 26.142C71.6188 26.2954 71.4838 26.5085 71.3901 26.7812C71.2992 27.054 71.2537 27.3721 71.2537 27.7358C71.2537 28.0937 71.2992 28.4091 71.3901 28.6818C71.4838 28.9545 71.6188 29.1676 71.7949 29.321C71.9739 29.4744 72.1926 29.5511 72.4512 29.5511ZM82.5271 26.4531L80.6138 26.5043C80.5939 26.3679 80.5399 26.2471 80.4519 26.142C80.3638 26.0341 80.2487 25.9503 80.1067 25.8906C79.9675 25.8281 79.8056 25.7969 79.6209 25.7969C79.3794 25.7969 79.1735 25.8452 79.003 25.9418C78.8354 26.0383 78.753 26.169 78.7558 26.3338C78.753 26.4616 78.8041 26.5724 78.9093 26.6662C79.0172 26.7599 79.209 26.8352 79.4845 26.892L80.7459 27.1307C81.3993 27.2557 81.8851 27.4631 82.2033 27.7528C82.5243 28.0426 82.6862 28.4261 82.6891 28.9034C82.6862 29.3523 82.5527 29.7429 82.2885 30.0753C82.0271 30.4077 81.6692 30.6662 81.2147 30.8508C80.7601 31.0327 80.2402 31.1236 79.655 31.1236C78.7203 31.1236 77.9831 30.9318 77.4433 30.5483C76.9064 30.1619 76.5996 29.6449 76.5229 28.9971L78.5811 28.946C78.6266 29.1846 78.7445 29.3665 78.9348 29.4915C79.1252 29.6165 79.3681 29.679 79.6635 29.679C79.9306 29.679 80.1479 29.6293 80.3155 29.5298C80.4831 29.4304 80.5683 29.2983 80.5712 29.1335C80.5683 28.9858 80.503 28.8679 80.3752 28.7798C80.2473 28.6889 80.047 28.6179 79.7743 28.5668L78.6323 28.3494C77.976 28.2301 77.4874 28.0099 77.1664 27.6889C76.8453 27.365 76.6862 26.9531 76.6891 26.4531C76.6862 26.0156 76.8027 25.642 77.0385 25.3324C77.2743 25.0199 77.6095 24.7812 78.0442 24.6165C78.4789 24.4517 78.9916 24.3693 79.5825 24.3693C80.4689 24.3693 81.1678 24.5554 81.6791 24.9275C82.1905 25.2969 82.4732 25.8054 82.5271 26.4531ZM83.715 31V24.4545H85.7988V31H83.715ZM84.759 23.6918C84.4664 23.6918 84.215 23.5952 84.0048 23.402C83.7945 23.206 83.6894 22.9702 83.6894 22.6946C83.6894 22.4219 83.7945 22.1889 84.0048 21.9957C84.215 21.7997 84.4664 21.7017 84.759 21.7017C85.0545 21.7017 85.3059 21.7997 85.5133 21.9957C85.7235 22.1889 85.8286 22.4219 85.8286 22.6946C85.8286 22.9702 85.7235 23.206 85.5133 23.402C85.3059 23.5952 85.0545 23.6918 84.759 23.6918ZM90.8198 24.4545V25.9886H86.6905V24.4545H90.8198ZM87.5556 22.8864H89.6394V28.9418C89.6394 29.0696 89.6592 29.1733 89.699 29.2528C89.7416 29.3295 89.8027 29.3849 89.8823 29.419C89.9618 29.4503 90.057 29.4659 90.1678 29.4659C90.2473 29.4659 90.3311 29.4588 90.4192 29.4446C90.5101 29.4275 90.5783 29.4133 90.6237 29.402L90.9391 30.9062C90.8396 30.9346 90.699 30.9702 90.5172 31.0128C90.3382 31.0554 90.1237 31.0824 89.8737 31.0937C89.3851 31.1165 88.9661 31.0596 88.6166 30.9233C88.27 30.7841 88.0044 30.5682 87.8198 30.2756C87.6379 29.9829 87.5499 29.615 87.5556 29.1719V22.8864ZM94.8681 31.1236C94.1806 31.1236 93.5896 30.9829 93.0953 30.7017C92.6039 30.4176 92.2246 30.0227 91.9575 29.517C91.6933 29.0085 91.5612 28.419 91.5612 27.7486C91.5612 27.0753 91.6933 26.4858 91.9575 25.9801C92.2246 25.4716 92.6039 25.0767 93.0953 24.7954C93.5896 24.5114 94.1806 24.3693 94.8681 24.3693C95.5556 24.3693 96.145 24.5114 96.6365 24.7954C97.1308 25.0767 97.5101 25.4716 97.7743 25.9801C98.0414 26.4858 98.1749 27.0753 98.1749 27.7486C98.1749 28.419 98.0414 29.0085 97.7743 29.517C97.5101 30.0227 97.1308 30.4176 96.6365 30.7017C96.145 30.9829 95.5556 31.1236 94.8681 31.1236ZM94.8808 29.5511C95.1308 29.5511 95.3425 29.4744 95.5158 29.321C95.6891 29.1676 95.8212 28.9545 95.9121 28.6818C96.0058 28.4091 96.0527 28.0937 96.0527 27.7358C96.0527 27.3721 96.0058 27.054 95.9121 26.7812C95.8212 26.5085 95.6891 26.2954 95.5158 26.142C95.3425 25.9886 95.1308 25.9119 94.8808 25.9119C94.6223 25.9119 94.4036 25.9886 94.2246 26.142C94.0485 26.2954 93.9135 26.5085 93.8198 26.7812C93.7289 27.054 93.6834 27.3721 93.6834 27.7358C93.6834 28.0937 93.7289 28.4091 93.8198 28.6818C93.9135 28.9545 94.0485 29.1676 94.2246 29.321C94.4036 29.4744 94.6223 29.5511 94.8808 29.5511ZM99.2423 31V24.4545H101.266V25.6477H101.335C101.454 25.2159 101.649 24.8949 101.918 24.6846C102.188 24.4716 102.502 24.365 102.86 24.365C102.957 24.365 103.056 24.3722 103.159 24.3864C103.261 24.3977 103.356 24.4162 103.444 24.4418V26.2528C103.345 26.2187 103.214 26.1918 103.052 26.1719C102.893 26.152 102.751 26.142 102.626 26.142C102.379 26.142 102.156 26.1974 101.957 26.3082C101.761 26.4162 101.606 26.5682 101.492 26.7642C101.382 26.9574 101.326 27.1846 101.326 27.446V31H99.2423ZM105.766 33.4545C105.516 33.4545 105.281 33.4346 105.059 33.3949C104.838 33.3579 104.647 33.3082 104.488 33.2457L104.948 31.7329C105.153 31.8011 105.338 31.8409 105.502 31.8523C105.67 31.8636 105.813 31.8366 105.933 31.7713C106.055 31.7088 106.149 31.5966 106.214 31.4346L106.295 31.2386L103.968 24.4545H106.15L107.356 29.125H107.424L108.647 24.4545H110.842L108.374 31.6264C108.255 31.9844 108.086 32.2997 107.867 32.5724C107.651 32.848 107.372 33.0639 107.028 33.2202C106.687 33.3764 106.266 33.4545 105.766 33.4545Z" fill="#DD4C35"/>
</g>
<rect x="0.749817" y="0.75" width="128.5" height="38.5" rx="5.25" stroke="white" stroke-opacity="0.15" stroke-width="1.5"/>
<defs>
<filter id="filter0_d_28_669" x="5.99982" y="2" width="36.0038" height="36.0028" filterUnits="userSpaceOnUse" color-interpolation-filters="sRGB">
<feFlood flood-opacity="0" result="BackgroundImageFix"/>
<feColorMatrix in="SourceAlpha" type="matrix" values="0 0 0 0 0 0 0 0 0 0 0 0 0 0 0 0 0 0 127 0" result="hardAlpha"/>
<feOffset/>
<feGaussianBlur stdDeviation="2"/>
<feComposite in2="hardAlpha" operator="out"/>
<feColorMatrix type="matrix" values="0 0 0 0 0 0 0 0 0 0 0 0 0 0 0 0 0 0 0.25 0"/>
<feBlend mode="normal" in2="BackgroundImageFix" result="effect1_dropShadow_28_669"/>
<feBlend mode="normal" in="SourceGraphic" in2="effect1_dropShadow_28_669" result="shape"/>
</filter>
<filter id="filter1_d_28_669" x="41.9998" y="3" width="81.9999" height="34.4545" filterUnits="userSpaceOnUse" color-interpolation-filters="sRGB">
<feFlood flood-opacity="0" result="BackgroundImageFix"/>
<feColorMatrix in="SourceAlpha" type="matrix" values="0 0 0 0 0 0 0 0 0 0 0 0 0 0 0 0 0 0 127 0" result="hardAlpha"/>
<feOffset/>
<feGaussianBlur stdDeviation="2"/>
<feComposite in2="hardAlpha" operator="out"/>
<feColorMatrix type="matrix" values="0 0 0 0 0 0 0 0 0 0 0 0 0 0 0 0 0 0 0.25 0"/>
<feBlend mode="normal" in2="BackgroundImageFix" result="effect1_dropShadow_28_669"/>
<feBlend mode="normal" in="SourceGraphic" in2="effect1_dropShadow_28_669" result="shape"/>
</filter>
<linearGradient id="paint0_linear_28_669" x1="64.9998" y1="0" x2="64.9998" y2="40" gradientUnits="userSpaceOnUse">
<stop stop-color="#361712"/>
<stop offset="1" stop-color="#1D0C09"/>
</linearGradient>
</defs>
</svg>
