<svg width="180" height="56" viewBox="0 0 180 56" fill="none" xmlns="http://www.w3.org/2000/svg">
<rect width="180" height="56" rx="8" fill="url(#paint0_linear_28_669)"/>
<g filter="url(#filter0_d_28_669)">
<path d="M51.2485 26.2206L33.7842 8.75631C33.5453 8.51659 33.2614 8.32638 32.9489 8.19659C32.6363 8.06681 32.3012 8 31.9627 8C31.6243 8 31.2892 8.06681 30.9766 8.19659C30.6641 8.32638 30.3802 8.51659 30.1413 8.75631L26.5142 12.3835L31.1142 16.9835C31.6566 16.7989 32.24 16.7703 32.7979 16.9012C33.3557 17.032 33.8656 17.3169 34.2694 17.7234C34.6732 18.1299 34.9548 18.6416 35.0819 19.2004C35.209 19.7591 35.1766 20.3422 34.9885 20.8835L39.417 25.312C40.079 25.0846 40.7989 25.0909 41.4568 25.3298C42.1147 25.5688 42.6708 26.026 43.0326 26.6252C43.3943 27.2244 43.5398 27.9295 43.4448 28.6229C43.3498 29.3164 43.02 29.9564 42.5104 30.4362C42.0008 30.916 41.3422 31.2068 40.6443 31.2599C39.9464 31.3131 39.2513 31.1256 38.6749 30.7285C38.0985 30.3314 37.6756 29.7488 37.4766 29.0777C37.2776 28.4067 37.3146 27.6877 37.5813 27.0406L33.4456 22.9049V33.7863C34.0721 34.0967 34.5733 34.6124 34.8658 35.2474C35.1583 35.8825 35.2244 36.5986 35.053 37.2764C34.8817 37.9543 34.4833 38.553 33.9242 38.9728C33.3651 39.3926 32.679 39.6082 31.9803 39.5836C31.2815 39.5591 30.6123 39.2958 30.0841 38.8378C29.5558 38.3798 29.2004 37.7546 29.0771 37.0664C28.9538 36.3782 29.07 35.6685 29.4063 35.0556C29.7427 34.4426 30.2789 33.9634 30.9256 33.6977V22.7163C30.5514 22.5628 30.2114 22.3368 29.9249 22.0513C29.6385 21.7657 29.4114 21.4264 29.2567 21.0527C29.102 20.6791 29.0228 20.2785 29.0236 19.8741C29.0244 19.4696 29.1052 19.0694 29.2613 18.6963L24.7327 14.1649L12.757 26.1449C12.5171 26.3838 12.3267 26.6678 12.1968 26.9805C12.0669 27.2931 12 27.6284 12 27.967C12 28.3056 12.0669 28.6409 12.1968 28.9536C12.3267 29.2663 12.5171 29.5502 12.757 29.7892L30.2213 47.2477C30.4602 47.4875 30.7441 47.6777 31.0566 47.8075C31.3692 47.9372 31.7043 48.004 32.0427 48.004C32.3812 48.004 32.7163 47.9372 33.0289 47.8075C33.3414 47.6777 33.6253 47.4875 33.8642 47.2477L51.2485 29.8592C51.4884 29.6202 51.6788 29.3363 51.8087 29.0236C51.9386 28.7109 52.0055 28.3756 52.0055 28.037C52.0055 27.6984 51.9386 27.3631 51.8087 27.0505C51.6788 26.7378 51.4884 26.4538 51.2485 26.2149" fill="#DD4C35"/>
<path d="M26.5142 12.3835L31.1142 16.9835C31.6566 16.7989 32.24 16.7703 32.7979 16.9012C33.3557 17.032 33.8656 17.3169 34.2694 17.7234C34.6733 18.1299 34.9548 18.6416 35.0819 19.2004C35.209 19.7591 35.1767 20.3423 34.9885 20.8835L39.417 25.312C40.079 25.0846 40.7989 25.0909 41.4568 25.3299C42.1147 25.5688 42.6708 26.026 43.0326 26.6252C43.3943 27.2244 43.5398 27.9295 43.4448 28.6229C43.3498 29.3164 43.02 29.9564 42.5104 30.4362C42.0009 30.916 41.3422 31.2068 40.6443 31.26C39.9464 31.3131 39.2513 31.1256 38.6749 30.7285C38.0985 30.3314 37.6756 29.7488 37.4766 29.0777C37.2776 28.4067 37.3146 27.6877 37.5813 27.0406L33.4456 22.9049V33.7863C34.0721 34.0967 34.5733 34.6124 34.8658 35.2474C35.1583 35.8825 35.2244 36.5986 35.053 37.2764C34.8817 37.9543 34.4833 38.553 33.9242 38.9728C33.3651 39.3926 32.679 39.6082 31.9803 39.5836C31.2816 39.5591 30.6123 39.2959 30.0841 38.8378C29.5558 38.3798 29.2004 37.7546 29.0771 37.0664C28.9538 36.3782 29.07 35.6685 29.4063 35.0556C29.7427 34.4426 30.2789 33.9634 30.9256 33.6977V22.7163C30.5515 22.5628 30.2114 22.3368 29.925 22.0513C29.6385 21.7658 29.4114 21.4264 29.2567 21.0527C29.102 20.6791 29.0228 20.2785 29.0236 19.8741C29.0244 19.4696 29.1052 19.0694 29.2613 18.6963L24.7328 14.1649" fill="white"/>
</g>
<g filter="url(#filter1_d_28_669)">
<path d="M70.9431 16.6477H69.1704C69.1022 16.2689 68.9753 15.9356 68.7897 15.6477C68.6041 15.3598 68.3769 15.1155 68.1079 14.9148C67.839 14.714 67.5378 14.5625 67.2045 14.4602C66.875 14.358 66.5246 14.3068 66.1534 14.3068C65.4829 14.3068 64.8825 14.4754 64.3522 14.8125C63.8257 15.1496 63.4091 15.6439 63.1022 16.2955C62.7992 16.947 62.6477 17.7424 62.6477 18.6818C62.6477 19.6288 62.7992 20.428 63.1022 21.0795C63.4091 21.7311 63.8276 22.2235 64.3579 22.5568C64.8882 22.8901 65.4848 23.0568 66.1477 23.0568C66.5151 23.0568 66.8636 23.0076 67.1931 22.9091C67.5265 22.8068 67.8276 22.6572 68.0966 22.4602C68.3655 22.2633 68.5928 22.0227 68.7784 21.7386C68.9678 21.4508 69.0985 21.1212 69.1704 20.75L70.9431 20.7557C70.8485 21.3276 70.6647 21.8542 70.392 22.3352C70.1231 22.8125 69.7765 23.2254 69.3522 23.5739C68.9318 23.9186 68.4507 24.1856 67.9091 24.375C67.3674 24.5644 66.7765 24.6591 66.1363 24.6591C65.1288 24.6591 64.231 24.4204 63.4432 23.9432C62.6553 23.4621 62.0341 22.7746 61.5795 21.8807C61.1288 20.9867 60.9034 19.9204 60.9034 18.6818C60.9034 17.4394 61.1307 16.3731 61.5852 15.483C62.0397 14.589 62.661 13.9034 63.4488 13.4261C64.2367 12.9451 65.1325 12.7045 66.1363 12.7045C66.7538 12.7045 67.3295 12.7936 67.8636 12.9716C68.4015 13.1458 68.8844 13.4034 69.3125 13.7443C69.7405 14.0814 70.0947 14.4943 70.375 14.983C70.6553 15.4678 70.8447 16.0227 70.9431 16.6477ZM74.6065 19.3182V24.5H72.9076V12.8636H74.5838V17.1932H74.6917C74.8963 16.7235 75.2088 16.3504 75.6292 16.0739C76.0497 15.7973 76.5989 15.6591 77.277 15.6591C77.8754 15.6591 78.3982 15.7822 78.8451 16.0284C79.2959 16.2746 79.6444 16.642 79.8906 17.1307C80.1406 17.6155 80.2656 18.2216 80.2656 18.9489V24.5H78.5667V19.1534C78.5667 18.5133 78.402 18.017 78.0724 17.6648C77.7429 17.3087 77.2845 17.1307 76.6974 17.1307C76.2959 17.1307 75.936 17.2159 75.6179 17.3864C75.3035 17.5568 75.0554 17.8068 74.8735 18.1364C74.6955 18.4621 74.6065 18.8561 74.6065 19.3182ZM86.294 24.6761C85.4341 24.6761 84.6936 24.4924 84.0724 24.125C83.455 23.7538 82.9777 23.2329 82.6406 22.5625C82.3073 21.8883 82.1406 21.0985 82.1406 20.1932C82.1406 19.2992 82.3073 18.5114 82.6406 17.8295C82.9777 17.1477 83.4474 16.6155 84.0497 16.233C84.6557 15.8504 85.3641 15.6591 86.1747 15.6591C86.6671 15.6591 87.1444 15.7405 87.6065 15.9034C88.0686 16.0663 88.4834 16.322 88.8508 16.6705C89.2182 17.0189 89.508 17.4716 89.7201 18.0284C89.9323 18.5814 90.0383 19.2538 90.0383 20.0454V20.6477H83.1008V19.375H88.3735C88.3735 18.928 88.2826 18.5322 88.1008 18.1875C87.919 17.839 87.6633 17.5644 87.3338 17.3636C87.008 17.1629 86.6254 17.0625 86.186 17.0625C85.7088 17.0625 85.2921 17.1799 84.936 17.4148C84.5838 17.6458 84.311 17.9489 84.1179 18.3239C83.9285 18.6951 83.8338 19.0985 83.8338 19.5341V20.5284C83.8338 21.1117 83.936 21.6079 84.1406 22.017C84.3489 22.4261 84.6387 22.7386 85.0099 22.9545C85.3811 23.1667 85.8148 23.2727 86.311 23.2727C86.633 23.2727 86.9266 23.2273 87.1917 23.1364C87.4569 23.0417 87.686 22.9015 87.8792 22.7159C88.0724 22.5303 88.2201 22.3011 88.3224 22.0284L89.9304 22.3182C89.8016 22.7917 89.5705 23.2064 89.2372 23.5625C88.9076 23.9148 88.4929 24.1894 87.9929 24.3864C87.4966 24.5795 86.9304 24.6761 86.294 24.6761ZM95.5994 24.6761C94.7547 24.6761 94.0274 24.4848 93.4176 24.1023C92.8115 23.7159 92.3456 23.1837 92.0198 22.5057C91.6941 21.8276 91.5312 21.0511 91.5312 20.1761C91.5312 19.2898 91.6979 18.5076 92.0312 17.8295C92.3645 17.1477 92.8342 16.6155 93.4403 16.233C94.0464 15.8504 94.7604 15.6591 95.5823 15.6591C96.2452 15.6591 96.8361 15.7822 97.3551 16.0284C97.874 16.2708 98.2926 16.6117 98.6108 17.0511C98.9327 17.4905 99.124 18.0038 99.1846 18.5909H97.5312C97.4403 18.1818 97.232 17.8295 96.9062 17.5341C96.5842 17.2386 96.1524 17.0909 95.6108 17.0909C95.1373 17.0909 94.7225 17.2159 94.3664 17.4659C94.0142 17.7121 93.7395 18.0644 93.5426 18.5227C93.3456 18.9773 93.2471 19.5151 93.2471 20.1364C93.2471 20.7727 93.3437 21.322 93.5369 21.7841C93.7301 22.2462 94.0028 22.6042 94.3551 22.8579C94.7111 23.1117 95.1297 23.2386 95.6108 23.2386C95.9327 23.2386 96.2244 23.1799 96.4858 23.0625C96.7509 22.9413 96.9725 22.7689 97.1505 22.5454C97.3323 22.322 97.4592 22.053 97.5312 21.7386H99.1846C99.124 22.303 98.9403 22.8068 98.6335 23.25C98.3267 23.6932 97.9157 24.0417 97.4005 24.2954C96.8892 24.5492 96.2888 24.6761 95.5994 24.6761ZM102.564 21.5398L102.553 19.4659H102.848L106.325 15.7727H108.359L104.393 19.9773H104.126L102.564 21.5398ZM101.001 24.5V12.8636H102.7V24.5H101.001ZM106.513 24.5L103.388 20.3523L104.558 19.1648L108.598 24.5H106.513ZM117.818 24.6761C117 24.6761 116.286 24.4886 115.676 24.1136C115.066 23.7386 114.593 23.214 114.256 22.5398C113.919 21.8655 113.75 21.0776 113.75 20.1761C113.75 19.2708 113.919 18.4792 114.256 17.8011C114.593 17.1231 115.066 16.5966 115.676 16.2216C116.286 15.8466 117 15.6591 117.818 15.6591C118.636 15.6591 119.35 15.8466 119.96 16.2216C120.57 16.5966 121.044 17.1231 121.381 17.8011C121.718 18.4792 121.886 19.2708 121.886 20.1761C121.886 21.0776 121.718 21.8655 121.381 22.5398C121.044 23.214 120.57 23.7386 119.96 24.1136C119.35 24.4886 118.636 24.6761 117.818 24.6761ZM117.824 23.25C118.354 23.25 118.794 23.1098 119.142 22.8295C119.49 22.5492 119.748 22.1761 119.915 21.7102C120.085 21.2443 120.17 20.7311 120.17 20.1704C120.17 19.6136 120.085 19.1023 119.915 18.6364C119.748 18.1667 119.49 17.7898 119.142 17.5057C118.794 17.2216 118.354 17.0795 117.824 17.0795C117.29 17.0795 116.847 17.2216 116.494 17.5057C116.146 17.7898 115.886 18.1667 115.716 18.6364C115.549 19.1023 115.466 19.6136 115.466 20.1704C115.466 20.7311 115.549 21.2443 115.716 21.7102C115.886 22.1761 116.146 22.5492 116.494 22.8295C116.847 23.1098 117.29 23.25 117.824 23.25ZM129.311 20.8807V15.7727H131.016V24.5H129.345V22.9886H129.254C129.053 23.4545 128.731 23.8428 128.288 24.1534C127.849 24.4602 127.302 24.6136 126.646 24.6136C126.086 24.6136 125.589 24.4905 125.158 24.2443C124.73 23.9943 124.392 23.625 124.146 23.1364C123.904 22.6477 123.783 22.0436 123.783 21.3239V15.7727H125.481V21.1193C125.481 21.714 125.646 22.1875 125.976 22.5398C126.305 22.892 126.733 23.0682 127.26 23.0682C127.578 23.0682 127.894 22.9886 128.209 22.8295C128.527 22.6704 128.79 22.4299 128.999 22.1079C129.211 21.786 129.315 21.3769 129.311 20.8807ZM137.372 15.7727V17.1364H132.605V15.7727H137.372ZM133.883 13.6818H135.582V21.9375C135.582 22.267 135.632 22.5151 135.73 22.6818C135.829 22.8447 135.955 22.9564 136.111 23.017C136.27 23.0739 136.442 23.1023 136.628 23.1023C136.764 23.1023 136.883 23.0928 136.986 23.0739C137.088 23.0549 137.168 23.0398 137.224 23.0284L137.531 24.4318C137.433 24.4697 137.293 24.5076 137.111 24.5454C136.929 24.5871 136.702 24.6098 136.429 24.6136C135.982 24.6212 135.565 24.5417 135.179 24.375C134.793 24.2083 134.48 23.9508 134.241 23.6023C134.003 23.2538 133.883 22.8163 133.883 22.2898V13.6818ZM147.56 15.7727V17.1364H142.793V15.7727H147.56ZM144.071 13.6818H145.77V21.9375C145.77 22.267 145.819 22.5151 145.918 22.6818C146.016 22.8447 146.143 22.9564 146.298 23.017C146.457 23.0739 146.63 23.1023 146.815 23.1023C146.952 23.1023 147.071 23.0928 147.173 23.0739C147.276 23.0549 147.355 23.0398 147.412 23.0284L147.719 24.4318C147.62 24.4697 147.48 24.5076 147.298 24.5454C147.116 24.5871 146.889 24.6098 146.616 24.6136C146.169 24.6212 145.753 24.5417 145.366 24.375C144.98 24.2083 144.668 23.9508 144.429 23.6023C144.19 23.2538 144.071 22.8163 144.071 22.2898V13.6818ZM151.325 19.3182V24.5H149.626V12.8636H151.302V17.1932H151.41C151.615 16.7235 151.927 16.3504 152.348 16.0739C152.768 15.7973 153.318 15.6591 153.996 15.6591C154.594 15.6591 155.117 15.7822 155.564 16.0284C156.015 16.2746 156.363 16.642 156.609 17.1307C156.859 17.6155 156.984 18.2216 156.984 18.9489V24.5H155.285V19.1534C155.285 18.5133 155.121 18.017 154.791 17.6648C154.462 17.3087 154.003 17.1307 153.416 17.1307C153.015 17.1307 152.655 17.2159 152.337 17.3864C152.022 17.5568 151.774 17.8068 151.592 18.1364C151.414 18.4621 151.325 18.8561 151.325 19.3182ZM163.013 24.6761C162.153 24.6761 161.412 24.4924 160.791 24.125C160.174 23.7538 159.696 23.2329 159.359 22.5625C159.026 21.8883 158.859 21.0985 158.859 20.1932C158.859 19.2992 159.026 18.5114 159.359 17.8295C159.696 17.1477 160.166 16.6155 160.768 16.233C161.374 15.8504 162.083 15.6591 162.893 15.6591C163.386 15.6591 163.863 15.7405 164.325 15.9034C164.787 16.0663 165.202 16.322 165.57 16.6705C165.937 17.0189 166.227 17.4716 166.439 18.0284C166.651 18.5814 166.757 19.2538 166.757 20.0454V20.6477H159.82V19.375H165.092C165.092 18.928 165.001 18.5322 164.82 18.1875C164.638 17.839 164.382 17.5644 164.052 17.3636C163.727 17.1629 163.344 17.0625 162.905 17.0625C162.427 17.0625 162.011 17.1799 161.655 17.4148C161.302 17.6458 161.03 17.9489 160.837 18.3239C160.647 18.6951 160.552 19.0985 160.552 19.5341V20.5284C160.552 21.1117 160.655 21.6079 160.859 22.017C161.068 22.4261 161.357 22.7386 161.729 22.9545C162.1 23.1667 162.534 23.2727 163.03 23.2727C163.352 23.2727 163.645 23.2273 163.91 23.1364C164.176 23.0417 164.405 22.9015 164.598 22.7159C164.791 22.5303 164.939 22.3011 165.041 22.0284L166.649 22.3182C166.52 22.7917 166.289 23.2064 165.956 23.5625C165.626 23.9148 165.212 24.1894 164.712 24.3864C164.215 24.5795 163.649 24.6761 163.013 24.6761Z" fill="#E8E8E8"/>
<path d="M60.9357 43.5V31.1364H66.0429C66.9686 31.1364 67.7675 31.3034 68.4396 31.6374C69.1157 31.9674 69.6369 32.4423 70.0032 33.0621C70.3694 33.6779 70.5525 34.4084 70.5525 35.2535C70.5525 36.1108 70.3654 36.8392 69.9911 37.4389C69.6168 38.0346 69.0855 38.4893 68.3973 38.8033C67.7091 39.1132 66.8941 39.2681 65.9524 39.2681H62.7226V36.9137H65.397C65.8477 36.9137 66.224 36.8553 66.5259 36.7386C66.8318 36.6179 67.0632 36.4368 67.2201 36.1953C67.3771 35.9498 67.4556 35.6359 67.4556 35.2535C67.4556 34.8712 67.3771 34.5553 67.2201 34.3057C67.0632 34.0522 66.8318 33.863 66.5259 33.7383C66.22 33.6095 65.8437 33.5451 65.397 33.5451H63.924V43.5H60.9357ZM67.8963 37.8494L70.9751 43.5H67.7152L64.6967 37.8494H67.8963ZM76.3434 43.6751C75.3735 43.6751 74.5364 43.4839 73.8321 43.1016C73.1318 42.7152 72.5925 42.1658 72.2142 41.4535C71.8399 40.7371 71.6528 39.8859 71.6528 38.8998C71.6528 37.942 71.8419 37.1049 72.2202 36.3885C72.5985 35.6681 73.1318 35.1087 73.82 34.7102C74.5082 34.3078 75.3192 34.1065 76.2529 34.1065C76.9129 34.1065 77.5166 34.2092 78.064 34.4144C78.6113 34.6197 79.0842 34.9235 79.4827 35.326C79.8811 35.7284 80.191 36.2255 80.4123 36.8171C80.6337 37.4047 80.7444 38.0788 80.7444 38.8395V39.576H72.6851V37.8615H77.9976C77.9935 37.5476 77.9191 37.2679 77.7742 37.0224C77.6293 36.7769 77.4301 36.5857 77.1765 36.4489C76.927 36.308 76.6393 36.2376 76.3133 36.2376C75.9832 36.2376 75.6874 36.312 75.4258 36.4609C75.1642 36.6058 74.957 36.805 74.804 37.0586C74.6511 37.3081 74.5706 37.5918 74.5626 37.9098V39.6545C74.5626 40.0328 74.637 40.3648 74.7859 40.6506C74.9348 40.9323 75.1461 41.1516 75.4198 41.3086C75.6935 41.4655 76.0195 41.544 76.3978 41.544C76.6594 41.544 76.8968 41.5078 77.1101 41.4354C77.3234 41.3629 77.5066 41.2563 77.6595 41.1154C77.8124 40.9745 77.9271 40.8015 78.0036 40.5962L80.7142 40.6747C80.6015 41.2824 80.354 41.8117 79.9716 42.2624C79.5933 42.7092 79.0963 43.0573 78.4805 43.3068C77.8648 43.5523 77.1524 43.6751 76.3434 43.6751ZM82.2521 46.9773V34.2273H85.174V35.815H85.2645C85.3853 35.5333 85.5563 35.2616 85.7777 35C86.003 34.7384 86.2888 34.5251 86.6349 34.3601C86.985 34.191 87.4036 34.1065 87.8906 34.1065C88.5345 34.1065 89.1362 34.2756 89.6956 34.6136C90.2591 34.9517 90.7139 35.4729 91.06 36.1772C91.4061 36.8815 91.5792 37.779 91.5792 38.8697C91.5792 39.9201 91.4121 40.7995 91.0781 41.5078C90.7481 42.2161 90.3013 42.7474 89.7379 43.1016C89.1785 43.4557 88.5567 43.6328 87.8725 43.6328C87.4056 43.6328 87.0011 43.5563 86.6591 43.4034C86.317 43.2505 86.0292 43.0492 85.7958 42.7997C85.5664 42.5502 85.3893 42.2825 85.2645 41.9968H85.2042V46.9773H82.2521ZM85.1438 38.8636C85.1438 39.3627 85.2102 39.7973 85.343 40.1676C85.4798 40.5379 85.675 40.8256 85.9286 41.0309C86.1862 41.2321 86.494 41.3327 86.8522 41.3327C87.2145 41.3327 87.5223 41.2321 87.7759 41.0309C88.0294 40.8256 88.2206 40.5379 88.3494 40.1676C88.4822 39.7973 88.5486 39.3627 88.5486 38.8636C88.5486 38.3646 88.4822 37.9319 88.3494 37.5657C88.2206 37.1994 88.0294 36.9157 87.7759 36.7145C87.5264 36.5132 87.2185 36.4126 86.8522 36.4126C86.49 36.4126 86.1821 36.5112 85.9286 36.7084C85.675 36.9056 85.4798 37.1874 85.343 37.5536C85.2102 37.9199 85.1438 38.3565 85.1438 38.8636ZM97.4546 43.6751C96.4806 43.6751 95.6435 43.4758 94.9432 43.0774C94.247 42.6749 93.7097 42.1155 93.3314 41.3991C92.9571 40.6787 92.7699 39.8436 92.7699 38.8938C92.7699 37.94 92.9571 37.1049 93.3314 36.3885C93.7097 35.6681 94.247 35.1087 94.9432 34.7102C95.6435 34.3078 96.4806 34.1065 97.4546 34.1065C98.4286 34.1065 99.2637 34.3078 99.9599 34.7102C100.66 35.1087 101.197 35.6681 101.572 36.3885C101.95 37.1049 102.139 37.94 102.139 38.8938C102.139 39.8436 101.95 40.6787 101.572 41.3991C101.197 42.1155 100.66 42.6749 99.9599 43.0774C99.2637 43.4758 98.4286 43.6751 97.4546 43.6751ZM97.4727 41.4474C97.8269 41.4474 98.1267 41.3388 98.3722 41.1214C98.6177 40.9041 98.8049 40.6023 98.9336 40.2159C99.0665 39.8295 99.1329 39.3828 99.1329 38.8757C99.1329 38.3605 99.0665 37.9098 98.9336 37.5234C98.8049 37.1371 98.6177 36.8352 98.3722 36.6179C98.1267 36.4006 97.8269 36.2919 97.4727 36.2919C97.1065 36.2919 96.7966 36.4006 96.543 36.6179C96.2935 36.8352 96.1023 37.1371 95.9695 37.5234C95.8407 37.9098 95.7763 38.3605 95.7763 38.8757C95.7763 39.3828 95.8407 39.8295 95.9695 40.2159C96.1023 40.6023 96.2935 40.9041 96.543 41.1214C96.7966 41.3388 97.1065 41.4474 97.4727 41.4474ZM111.747 37.0586L109.036 37.131C109.008 36.9378 108.932 36.7668 108.807 36.6179C108.682 36.465 108.519 36.3462 108.318 36.2617C108.121 36.1732 107.891 36.1289 107.63 36.1289C107.288 36.1289 106.996 36.1973 106.754 36.3342C106.517 36.471 106.4 36.6561 106.404 36.8895C106.4 37.0707 106.473 37.2276 106.622 37.3604C106.775 37.4932 107.046 37.5999 107.437 37.6804L109.224 38.0185C110.149 38.1955 110.837 38.4893 111.288 38.8998C111.743 39.3104 111.972 39.8537 111.976 40.5298C111.972 41.1657 111.783 41.7191 111.409 42.19C111.039 42.6609 110.532 43.0271 109.888 43.2887C109.244 43.5463 108.507 43.6751 107.678 43.6751C106.354 43.6751 105.31 43.4034 104.545 42.8601C103.784 42.3127 103.35 41.5802 103.241 40.6626L106.157 40.5902C106.221 40.9283 106.388 41.1858 106.658 41.3629C106.928 41.54 107.272 41.6285 107.69 41.6285C108.069 41.6285 108.376 41.5581 108.614 41.4172C108.851 41.2764 108.972 41.0892 108.976 40.8558C108.972 40.6465 108.879 40.4795 108.698 40.3547C108.517 40.226 108.234 40.1253 107.847 40.0529L106.229 39.745C105.3 39.576 104.607 39.2641 104.153 38.8093C103.698 38.3505 103.472 37.7669 103.476 37.0586C103.472 36.4388 103.637 35.9096 103.971 35.4709C104.306 35.0282 104.78 34.6901 105.396 34.4567C106.012 34.2232 106.738 34.1065 107.576 34.1065C108.831 34.1065 109.821 34.3701 110.546 34.8974C111.27 35.4206 111.671 36.141 111.747 37.0586ZM113.43 43.5V34.2273H116.382V43.5H113.43ZM114.909 33.1467C114.494 33.1467 114.138 33.0098 113.84 32.7361C113.543 32.4584 113.394 32.1244 113.394 31.734C113.394 31.3476 113.543 31.0176 113.84 30.744C114.138 30.4663 114.494 30.3274 114.909 30.3274C115.327 30.3274 115.684 30.4663 115.977 30.744C116.275 31.0176 116.424 31.3476 116.424 31.734C116.424 32.1244 116.275 32.4584 115.977 32.7361C115.684 33.0098 115.327 33.1467 114.909 33.1467ZM123.495 34.2273V36.4006H117.645V34.2273H123.495ZM118.871 32.0057H121.823V40.5842C121.823 40.7653 121.851 40.9122 121.907 41.0248C121.968 41.1335 122.054 41.212 122.167 41.2603C122.279 41.3046 122.414 41.3267 122.571 41.3267C122.684 41.3267 122.803 41.3166 122.927 41.2965C123.056 41.2724 123.153 41.2522 123.217 41.2361L123.664 43.3672C123.523 43.4074 123.324 43.4577 123.066 43.5181C122.813 43.5785 122.509 43.6167 122.155 43.6328C121.462 43.665 120.869 43.5845 120.374 43.3913C119.883 43.1941 119.506 42.8882 119.245 42.4737C118.987 42.0592 118.863 41.538 118.871 40.9101V32.0057ZM129.23 43.6751C128.256 43.6751 127.419 43.4758 126.719 43.0774C126.022 42.6749 125.485 42.1155 125.107 41.3991C124.732 40.6787 124.545 39.8436 124.545 38.8938C124.545 37.94 124.732 37.1049 125.107 36.3885C125.485 35.6681 126.022 35.1087 126.719 34.7102C127.419 34.3078 128.256 34.1065 129.23 34.1065C130.204 34.1065 131.039 34.3078 131.735 34.7102C132.436 35.1087 132.973 35.6681 133.347 36.3885C133.725 37.1049 133.915 37.94 133.915 38.8938C133.915 39.8436 133.725 40.6787 133.347 41.3991C132.973 42.1155 132.436 42.6749 131.735 43.0774C131.039 43.4758 130.204 43.6751 129.23 43.6751ZM129.248 41.4474C129.602 41.4474 129.902 41.3388 130.148 41.1214C130.393 40.9041 130.58 40.6023 130.709 40.2159C130.842 39.8295 130.908 39.3828 130.908 38.8757C130.908 38.3605 130.842 37.9098 130.709 37.5234C130.58 37.1371 130.393 36.8352 130.148 36.6179C129.902 36.4006 129.602 36.2919 129.248 36.2919C128.882 36.2919 128.572 36.4006 128.318 36.6179C128.069 36.8352 127.878 37.1371 127.745 37.5234C127.616 37.9098 127.552 38.3605 127.552 38.8757C127.552 39.3828 127.616 39.8295 127.745 40.2159C127.878 40.6023 128.069 40.9041 128.318 41.1214C128.572 41.3388 128.882 41.4474 129.248 41.4474ZM135.427 43.5V34.2273H138.294V35.9176H138.391C138.56 35.3059 138.836 34.8511 139.218 34.5533C139.6 34.2514 140.045 34.1005 140.552 34.1005C140.689 34.1005 140.83 34.1105 140.975 34.1307C141.12 34.1468 141.255 34.1729 141.379 34.2092V36.7748C141.238 36.7266 141.053 36.6883 140.824 36.6601C140.599 36.632 140.397 36.6179 140.22 36.6179C139.87 36.6179 139.554 36.6964 139.272 36.8533C138.995 37.0063 138.775 37.2216 138.614 37.4993C138.457 37.773 138.379 38.0949 138.379 38.4652V43.5H135.427ZM144.669 46.9773C144.315 46.9773 143.981 46.9491 143.667 46.8927C143.353 46.8404 143.084 46.77 142.858 46.6815L143.51 44.5383C143.8 44.6349 144.062 44.6913 144.295 44.7074C144.533 44.7235 144.736 44.6852 144.905 44.5927C145.078 44.5041 145.211 44.3452 145.303 44.1158L145.418 43.8381L142.122 34.2273H145.213L146.921 40.8437H147.018L148.75 34.2273H151.859L148.364 44.3874C148.195 44.8945 147.956 45.3413 147.646 45.7276C147.34 46.118 146.943 46.4239 146.456 46.6452C145.973 46.8666 145.378 46.9773 144.669 46.9773Z" fill="#DD4C35"/>
</g>
<rect x="1.05" y="1.05" width="177.9" height="53.9" rx="6.95" stroke="white" stroke-opacity="0.15" stroke-width="2.1"/>
<defs>
<filter id="filter0_d_28_669" x="6.28571" y="2.28571" width="51.4341" height="51.4326" filterUnits="userSpaceOnUse" color-interpolation-filters="sRGB">
<feFlood flood-opacity="0" result="BackgroundImageFix"/>
<feColorMatrix in="SourceAlpha" type="matrix" values="0 0 0 0 0 0 0 0 0 0 0 0 0 0 0 0 0 0 127 0" result="hardAlpha"/>
<feOffset/>
<feGaussianBlur stdDeviation="2.85714"/>
<feComposite in2="hardAlpha" operator="out"/>
<feColorMatrix type="matrix" values="0 0 0 0 0 0 0 0 0 0 0 0 0 0 0 0 0 0 0.25 0"/>
<feBlend mode="normal" in2="BackgroundImageFix" result="effect1_dropShadow_28_669"/>
<feBlend mode="normal" in="SourceGraphic" in2="effect1_dropShadow_28_669" result="shape"/>
</filter>
<filter id="filter1_d_28_669" x="54.4" y="3.9" width="119.2" height="48.6773" filterUnits="userSpaceOnUse" color-interpolation-filters="sRGB">
<feFlood flood-opacity="0" result="BackgroundImageFix"/>
<feColorMatrix in="SourceAlpha" type="matrix" values="0 0 0 0 0 0 0 0 0 0 0 0 0 0 0 0 0 0 127 0" result="hardAlpha"/>
<feOffset/>
<feGaussianBlur stdDeviation="2.8"/>
<feComposite in2="hardAlpha" operator="out"/>
<feColorMatrix type="matrix" values="0 0 0 0 0 0 0 0 0 0 0 0 0 0 0 0 0 0 0.25 0"/>
<feBlend mode="normal" in2="BackgroundImageFix" result="effect1_dropShadow_28_669"/>
<feBlend mode="normal" in="SourceGraphic" in2="effect1_dropShadow_28_669" result="shape"/>
</filter>
<linearGradient id="paint0_linear_28_669" x1="90" y1="0" x2="90" y2="56" gradientUnits="userSpaceOnUse">
<stop stop-color="#361712"/>
<stop offset="1" stop-color="#1D0C09"/>
</linearGradient>
</defs>
</svg>
