<svg width="168" height="56" viewBox="0 0 168 56" fill="none" xmlns="http://www.w3.org/2000/svg">
<rect y="-0.000244141" width="168" height="56" rx="8" fill="url(#paint0_linear_2_835)"/>
<g filter="url(#filter0_d_2_835)">
<path d="M19.0152 16.5728C18.6035 16.5728 18.1402 16.6037 17.6152 16.7088C17.0602 16.8169 15.4819 17.146 14.1919 18.2953C11.3286 20.662 12.0586 24.4236 12.1486 24.9906C12.2569 25.6795 12.5869 27.5967 14.1652 29.2666C17.0802 32.5741 23.3535 32.4984 23.3535 32.4984C23.3535 32.4984 24.1235 34.2023 25.3002 35.7718C26.8918 37.723 28.5268 39.2446 30.1168 39.4284C34.1268 39.4284 42.1367 39.4222 42.1367 39.4222C42.1367 39.4222 42.9001 39.4284 43.9367 38.8136C44.8284 38.3131 45.6251 37.4341 45.6251 37.4341C45.6251 37.4341 46.4451 36.62 47.5917 34.7615C47.9417 34.19 48.2334 33.6354 48.4884 33.1117C48.4884 33.1117 52 26.2048 52 19.4817C51.93 17.4457 51.3884 17.0873 51.2617 16.9683C51.0017 16.7273 50.6517 16.7319 50.6517 16.7319C50.6517 16.7319 43.1934 17.1212 39.3318 17.2047C38.4851 17.2217 37.6451 17.2402 36.8118 17.2464V24.1579L35.7551 23.6929C35.7551 21.5456 35.7484 17.251 35.7484 17.251C33.9035 17.2757 30.0735 17.1212 30.0735 17.1212C30.0735 17.1212 21.0752 16.7041 20.0952 16.6207C19.7835 16.6037 19.4269 16.5713 19.0152 16.5713V16.5728ZM19.6052 19.4029H19.7902C19.7902 19.4029 20.2419 22.9081 20.7902 24.9597C21.2485 26.6821 22.3668 29.5447 22.3668 29.5447C22.3668 29.5447 20.7068 29.3608 19.6319 29.0071C17.9819 28.5066 17.2835 27.9041 17.2835 27.9041C17.2835 27.9041 16.0669 27.1147 15.4569 25.556C14.4069 22.9483 15.3685 21.3571 15.3685 21.3571C15.3685 21.3571 15.9019 20.0301 17.8185 19.5883C18.4769 19.4246 19.2569 19.4029 19.6052 19.4029ZM33.4885 23.3484C33.9218 23.353 34.3368 23.5446 34.3368 23.5446L35.7834 24.1965L34.9018 25.8572C34.6928 25.8541 34.4869 25.9042 34.3065 26.002C34.1261 26.0997 33.978 26.2415 33.8785 26.4118C33.7719 26.5957 33.7265 26.8047 33.7479 27.0126C33.7692 27.2204 33.8564 27.4177 33.9985 27.5797L32.4335 30.5519C32.1787 30.5555 31.9325 30.6374 31.7334 30.7847C31.5343 30.9321 31.3936 31.1365 31.3335 31.366C31.276 31.5941 31.3016 31.8334 31.4062 32.0466C31.5108 32.2598 31.6886 32.4349 31.9118 32.5447C32.1541 32.6598 32.4327 32.691 32.6976 32.6327C32.9625 32.5744 33.1963 32.4303 33.3568 32.2265C33.5135 32.0231 33.5879 31.775 33.5669 31.5258C33.5459 31.2766 33.4307 31.0423 33.2418 30.864L34.7684 27.969C34.901 27.9807 35.0348 27.9702 35.1634 27.9381C35.3298 27.9012 35.4845 27.8287 35.6151 27.7264C36.1973 27.956 36.7629 28.2202 37.3084 28.5174C37.5065 28.6204 37.6712 28.7709 37.7851 28.953C37.9068 29.2774 37.6634 29.832 37.6634 29.832C37.5184 30.28 36.4934 32.2265 36.4934 32.2265C36.2451 32.2204 36.0012 32.2889 35.7982 32.4217C35.5952 32.5544 35.4439 32.7444 35.3668 32.9634C35.3076 33.1391 35.2993 33.3261 35.3425 33.5057C35.3858 33.6854 35.4791 33.8514 35.6132 33.9871C35.7474 34.1229 35.9175 34.2236 36.1068 34.2793C36.2961 34.335 36.4978 34.3437 36.6918 34.3045C36.8859 34.2654 37.0654 34.1797 37.2125 34.0561C37.3597 33.9325 37.4692 33.7752 37.5303 33.6001C37.5914 33.4249 37.6018 33.238 37.5605 33.058C37.5192 32.8779 37.4277 32.7111 37.2951 32.5741C37.4168 32.3562 37.5301 32.1384 37.6518 31.9083C37.9684 31.295 38.5101 30.1163 38.5101 30.1163C38.5684 30.0143 38.8734 29.5076 38.6818 28.8588C38.5234 28.1868 37.8818 27.8732 37.8818 27.8732C37.1034 27.4082 36.0218 26.9772 36.0218 26.9772C36.0218 26.9772 36.0218 26.7362 35.9518 26.5601C35.8983 26.4215 35.8143 26.2947 35.7051 26.1878L36.5651 24.5472L41.3817 26.7115C41.3817 26.7115 42.1817 27.0483 42.3534 27.6677C42.4751 28.1034 42.3217 28.4927 42.2384 28.6827C41.8384 29.5895 38.7384 35.3517 38.7384 35.3517C38.7384 35.3517 38.3518 36.2075 37.4918 36.26C37.2707 36.275 37.0485 36.2514 36.8368 36.1905L36.5001 36.0669L29.3168 32.8228C29.3168 32.8228 28.6218 32.486 28.5001 31.9021C28.3618 31.4232 28.6735 30.8346 28.6735 30.8346L32.1285 24.2351C32.1285 24.2351 32.4335 23.6636 32.9051 23.4674C33.0883 23.39 33.2871 23.3494 33.4885 23.3484V23.3484Z" fill="#609926"/>
</g>
<g filter="url(#filter1_d_2_835)">
<path d="M66.2613 24.4998H64.3977L68.5852 12.8634H70.6136L74.8011 24.4998H72.9375L69.6477 14.977H69.5568L66.2613 24.4998ZM66.5738 19.9429H72.6193V21.4202H66.5738V19.9429ZM82.7173 15.7725L79.5525 24.4998H77.7343L74.5639 15.7725H76.3878L78.598 22.4884H78.6889L80.8934 15.7725H82.7173ZM86.6037 24.6929C86.0506 24.6929 85.5506 24.5907 85.1037 24.3861C84.6567 24.1778 84.3025 23.8766 84.0412 23.4827C83.7836 23.0888 83.6548 22.6058 83.6548 22.0338C83.6548 21.5414 83.7495 21.1361 83.9389 20.8179C84.1283 20.4998 84.384 20.2479 84.7059 20.0623C85.0279 19.8766 85.3877 19.7365 85.7855 19.6418C86.1832 19.5471 86.5885 19.4751 87.0014 19.4259C87.5241 19.3653 87.9484 19.316 88.2741 19.2782C88.5999 19.2365 88.8366 19.1702 88.9843 19.0793C89.1321 18.9884 89.2059 18.8407 89.2059 18.6361V18.5963C89.2059 18.1001 89.0658 17.7157 88.7855 17.4429C88.509 17.1702 88.0961 17.0338 87.5468 17.0338C86.9749 17.0338 86.5241 17.1607 86.1946 17.4145C85.8688 17.6645 85.6434 17.9429 85.5184 18.2498L83.9218 17.8861C84.1112 17.3558 84.3877 16.9278 84.7514 16.602C85.1188 16.2725 85.5412 16.0338 86.0184 15.8861C86.4957 15.7346 86.9976 15.6588 87.5241 15.6588C87.8726 15.6588 88.2419 15.7005 88.6321 15.7838C89.026 15.8634 89.3934 16.0111 89.7343 16.227C90.079 16.4429 90.3612 16.7516 90.5809 17.1532C90.8006 17.5509 90.9105 18.0679 90.9105 18.7043V24.4998H89.2514V23.3066H89.1832C89.0734 23.5263 88.9086 23.7422 88.6889 23.9543C88.4692 24.1664 88.187 24.3426 87.8423 24.4827C87.4976 24.6229 87.0847 24.6929 86.6037 24.6929ZM86.973 23.3293C87.4427 23.3293 87.8442 23.2365 88.1775 23.0509C88.5146 22.8653 88.7703 22.6229 88.9446 22.3236C89.1226 22.0206 89.2116 21.6967 89.2116 21.352V20.227C89.151 20.2876 89.0336 20.3444 88.8593 20.3975C88.6889 20.4467 88.4938 20.4903 88.2741 20.5282C88.0544 20.5623 87.8404 20.5944 87.6321 20.6248C87.4237 20.6513 87.2495 20.674 87.1093 20.6929C86.7798 20.7346 86.4787 20.8047 86.2059 20.9032C85.937 21.0016 85.7211 21.1437 85.5582 21.3293C85.3991 21.5111 85.3196 21.7535 85.3196 22.0566C85.3196 22.477 85.4749 22.7952 85.7855 23.0111C86.0961 23.2232 86.4919 23.3293 86.973 23.3293ZM93.1733 24.4998V15.7725H94.8721V24.4998H93.1733ZM94.0312 14.4259C93.7358 14.4259 93.482 14.3274 93.2698 14.1304C93.0615 13.9297 92.9573 13.691 92.9573 13.4145C92.9573 13.1342 93.0615 12.8956 93.2698 12.6986C93.482 12.4979 93.7358 12.3975 94.0312 12.3975C94.3267 12.3975 94.5786 12.4979 94.7869 12.6986C94.999 12.8956 95.1051 13.1342 95.1051 13.4145C95.1051 13.691 94.999 13.9297 94.7869 14.1304C94.5786 14.3274 94.3267 14.4259 94.0312 14.4259ZM98.8565 12.8634V24.4998H97.1576V12.8634H98.8565ZM103.682 24.6929C103.129 24.6929 102.629 24.5907 102.182 24.3861C101.735 24.1778 101.381 23.8766 101.119 23.4827C100.862 23.0888 100.733 22.6058 100.733 22.0338C100.733 21.5414 100.828 21.1361 101.017 20.8179C101.206 20.4998 101.462 20.2479 101.784 20.0623C102.106 19.8766 102.466 19.7365 102.864 19.6418C103.261 19.5471 103.667 19.4751 104.08 19.4259C104.602 19.3653 105.026 19.316 105.352 19.2782C105.678 19.2365 105.915 19.1702 106.062 19.0793C106.21 18.9884 106.284 18.8407 106.284 18.6361V18.5963C106.284 18.1001 106.144 17.7157 105.864 17.4429C105.587 17.1702 105.174 17.0338 104.625 17.0338C104.053 17.0338 103.602 17.1607 103.273 17.4145C102.947 17.6645 102.722 17.9429 102.597 18.2498L101 17.8861C101.189 17.3558 101.466 16.9278 101.83 16.602C102.197 16.2725 102.619 16.0338 103.097 15.8861C103.574 15.7346 104.076 15.6588 104.602 15.6588C104.951 15.6588 105.32 15.7005 105.71 15.7838C106.104 15.8634 106.472 16.0111 106.812 16.227C107.157 16.4429 107.439 16.7516 107.659 17.1532C107.879 17.5509 107.989 18.0679 107.989 18.7043V24.4998H106.33V23.3066H106.261C106.151 23.5263 105.987 23.7422 105.767 23.9543C105.547 24.1664 105.265 24.3426 104.92 24.4827C104.576 24.6229 104.163 24.6929 103.682 24.6929ZM104.051 23.3293C104.521 23.3293 104.922 23.2365 105.256 23.0509C105.593 22.8653 105.848 22.6229 106.023 22.3236C106.201 22.0206 106.29 21.6967 106.29 21.352V20.227C106.229 20.2876 106.112 20.3444 105.937 20.3975C105.767 20.4467 105.572 20.4903 105.352 20.5282C105.133 20.5623 104.919 20.5944 104.71 20.6248C104.502 20.6513 104.328 20.674 104.187 20.6929C103.858 20.7346 103.557 20.8047 103.284 20.9032C103.015 21.0016 102.799 21.1437 102.636 21.3293C102.477 21.5111 102.398 21.7535 102.398 22.0566C102.398 22.477 102.553 22.7952 102.864 23.0111C103.174 23.2232 103.57 23.3293 104.051 23.3293ZM110.388 24.4998V12.8634H112.087V17.1873H112.189C112.287 17.0054 112.429 16.7952 112.615 16.5566C112.801 16.3179 113.058 16.1096 113.388 15.9316C113.717 15.7498 114.153 15.6588 114.695 15.6588C115.399 15.6588 116.028 15.8369 116.581 16.1929C117.134 16.549 117.568 17.0623 117.882 17.7327C118.2 18.4032 118.359 19.21 118.359 20.1532C118.359 21.0963 118.202 21.9051 117.888 22.5793C117.573 23.2498 117.142 23.7668 116.592 24.1304C116.043 24.4903 115.416 24.6702 114.712 24.6702C114.181 24.6702 113.748 24.5812 113.41 24.4032C113.077 24.2251 112.816 24.0168 112.626 23.7782C112.437 23.5395 112.291 23.3274 112.189 23.1418H112.047V24.4998H110.388ZM112.053 20.1361C112.053 20.7498 112.142 21.2876 112.32 21.7498C112.498 22.2119 112.755 22.5736 113.092 22.835C113.429 23.0926 113.842 23.2213 114.331 23.2213C114.838 23.2213 115.263 23.0869 115.604 22.8179C115.945 22.5452 116.202 22.1759 116.376 21.71C116.554 21.2441 116.643 20.7194 116.643 20.1361C116.643 19.5604 116.556 19.0433 116.382 18.585C116.212 18.1266 115.954 17.7649 115.609 17.4998C115.268 17.2346 114.842 17.102 114.331 17.102C113.838 17.102 113.422 17.2289 113.081 17.4827C112.744 17.7365 112.488 18.0907 112.314 18.5452C112.14 18.9998 112.053 19.5301 112.053 20.1361ZM121.966 12.8634V24.4998H120.267V12.8634H121.966ZM128.013 24.6759C127.153 24.6759 126.412 24.4922 125.791 24.1248C125.174 23.7535 124.696 23.2327 124.359 22.5623C124.026 21.888 123.859 21.0982 123.859 20.1929C123.859 19.299 124.026 18.5111 124.359 17.8293C124.696 17.1475 125.166 16.6153 125.768 16.2327C126.374 15.8501 127.083 15.6588 127.893 15.6588C128.386 15.6588 128.863 15.7403 129.325 15.9032C129.787 16.066 130.202 16.3217 130.57 16.6702C130.937 17.0187 131.227 17.4713 131.439 18.0282C131.651 18.5812 131.757 19.2535 131.757 20.0452V20.6475H124.82V19.3748H130.092C130.092 18.9278 130.001 18.532 129.82 18.1873C129.638 17.8388 129.382 17.5641 129.053 17.3634C128.727 17.1626 128.344 17.0623 127.905 17.0623C127.428 17.0623 127.011 17.1797 126.655 17.4145C126.303 17.6456 126.03 17.9486 125.837 18.3236C125.647 18.6948 125.553 19.0982 125.553 19.5338V20.5282C125.553 21.1115 125.655 21.6077 125.859 22.0168C126.068 22.4259 126.357 22.7384 126.729 22.9543C127.1 23.1664 127.534 23.2725 128.03 23.2725C128.352 23.2725 128.645 23.227 128.91 23.1361C129.176 23.0414 129.405 22.9013 129.598 22.7157C129.791 22.5301 129.939 22.3009 130.041 22.0282L131.649 22.3179C131.52 22.7914 131.289 23.2062 130.956 23.5623C130.626 23.9145 130.212 24.1891 129.712 24.3861C129.215 24.5793 128.649 24.6759 128.013 24.6759ZM141.553 24.6759C140.734 24.6759 140.02 24.4884 139.41 24.1134C138.801 23.7384 138.327 23.2138 137.99 22.5395C137.653 21.8653 137.484 21.0774 137.484 20.1759C137.484 19.2706 137.653 18.4789 137.99 17.8009C138.327 17.1229 138.801 16.5963 139.41 16.2213C140.02 15.8463 140.734 15.6588 141.553 15.6588C142.371 15.6588 143.085 15.8463 143.695 16.2213C144.304 16.5963 144.778 17.1229 145.115 17.8009C145.452 18.4789 145.621 19.2706 145.621 20.1759C145.621 21.0774 145.452 21.8653 145.115 22.5395C144.778 23.2138 144.304 23.7384 143.695 24.1134C143.085 24.4884 142.371 24.6759 141.553 24.6759ZM141.558 23.2498C142.088 23.2498 142.528 23.1096 142.876 22.8293C143.225 22.549 143.482 22.1759 143.649 21.71C143.82 21.2441 143.905 20.7308 143.905 20.1702C143.905 19.6134 143.82 19.102 143.649 18.6361C143.482 18.1664 143.225 17.7895 142.876 17.5054C142.528 17.2213 142.088 17.0793 141.558 17.0793C141.024 17.0793 140.581 17.2213 140.229 17.5054C139.88 17.7895 139.621 18.1664 139.45 18.6361C139.284 19.102 139.2 19.6134 139.2 20.1702C139.2 20.7308 139.284 21.2441 139.45 21.71C139.621 22.1759 139.88 22.549 140.229 22.8293C140.581 23.1096 141.024 23.2498 141.558 23.2498ZM149.216 19.3179V24.4998H147.517V15.7725H149.148V17.1929H149.256C149.456 16.7308 149.771 16.3596 150.199 16.0793C150.631 15.799 151.174 15.6588 151.829 15.6588C152.424 15.6588 152.945 15.7838 153.392 16.0338C153.839 16.2801 154.186 16.6475 154.432 17.1361C154.678 17.6248 154.801 18.2289 154.801 18.9486V24.4998H153.102V19.1532C153.102 18.5206 152.937 18.0263 152.608 17.6702C152.278 17.3104 151.826 17.1304 151.25 17.1304C150.856 17.1304 150.506 17.2157 150.199 17.3861C149.896 17.5566 149.655 17.8066 149.477 18.1361C149.303 18.4619 149.216 18.8558 149.216 19.3179Z" fill="#E8E8E8"/>
<path d="M73.0493 35.1748C72.9809 34.9213 72.8803 34.6979 72.7475 34.5047C72.6147 34.3075 72.4517 34.1405 72.2585 34.0037C72.0653 33.8668 71.844 33.7642 71.5944 33.6958C71.3449 33.6233 71.0712 33.5871 70.7734 33.5871C70.1737 33.5871 69.6546 33.732 69.2159 34.0218C68.7812 34.3115 68.4452 34.7341 68.2077 35.2895C67.9703 35.8409 67.8515 36.511 67.8515 37.2998C67.8515 38.0927 67.9662 38.7688 68.1956 39.3282C68.425 39.8877 68.7571 40.3143 69.1917 40.6081C69.6264 40.9019 70.1536 41.0488 70.7734 41.0488C71.3208 41.0488 71.7836 40.9602 72.1619 40.7831C72.5442 40.602 72.834 40.3465 73.0312 40.0164C73.2284 39.6864 73.327 39.298 73.327 38.8513L73.8824 38.9177H70.876V36.7384H76.2066V38.3744C76.2066 39.4812 75.9712 40.429 75.5003 41.2178C75.0335 42.0066 74.3895 42.6123 73.5685 43.0349C72.7515 43.4575 71.8118 43.6688 70.7493 43.6688C69.57 43.6688 68.5337 43.4132 67.6402 42.9021C66.7468 42.391 66.0505 41.6625 65.5515 40.7167C65.0524 39.7669 64.8029 38.64 64.8029 37.336C64.8029 36.3218 64.9538 35.4223 65.2557 34.6375C65.5575 33.8487 65.9781 33.1806 66.5174 32.6333C67.0607 32.0859 67.6885 31.6714 68.4009 31.3897C69.1173 31.1079 69.888 30.9671 70.713 30.9671C71.4294 30.9671 72.0955 31.0697 72.7113 31.275C73.3311 31.4802 73.8784 31.77 74.3533 32.1443C74.8322 32.5186 75.2206 32.9633 75.5184 33.4784C75.8163 33.9936 76.0014 34.5591 76.0738 35.1748H73.0493ZM78.549 43.4998V34.227H81.501V43.4998H78.549ZM80.028 33.1464C79.6135 33.1464 79.2573 33.0096 78.9595 32.7359C78.6617 32.4582 78.5127 32.1242 78.5127 31.7338C78.5127 31.3474 78.6617 31.0174 78.9595 30.7437C79.2573 30.466 79.6135 30.3272 80.028 30.3272C80.4466 30.3272 80.8028 30.466 81.0966 30.7437C81.3944 31.0174 81.5433 31.3474 81.5433 31.7338C81.5433 32.1242 81.3944 32.4582 81.0966 32.7359C80.8028 33.0096 80.4466 33.1464 80.028 33.1464ZM88.614 34.227V36.4003H82.7643V34.227H88.614ZM83.9898 32.0054H86.9418V40.5839C86.9418 40.765 86.97 40.9119 87.0263 41.0246C87.0867 41.1333 87.1732 41.2118 87.2859 41.2601C87.3986 41.3043 87.5334 41.3265 87.6904 41.3265C87.8031 41.3265 87.9218 41.3164 88.0466 41.2963C88.1754 41.2721 88.2719 41.252 88.3363 41.2359L88.7831 43.3669C88.6422 43.4072 88.443 43.4575 88.1854 43.5179C87.9319 43.5782 87.628 43.6165 87.2738 43.6326C86.5816 43.6648 85.988 43.5843 85.4929 43.3911C85.0019 43.1939 84.6256 42.888 84.364 42.4735C84.1065 42.0589 83.9817 41.5377 83.9898 40.9099V32.0054ZM94.3552 43.6748C93.3852 43.6748 92.5481 43.4837 91.8438 43.1013C91.1435 42.715 90.6042 42.1656 90.2259 41.4532C89.8516 40.7368 89.6645 39.8856 89.6645 38.8996C89.6645 37.9418 89.8536 37.1046 90.2319 36.3882C90.6103 35.6678 91.1435 35.1084 91.8317 34.71C92.5199 34.3075 93.3309 34.1063 94.2646 34.1063C94.9246 34.1063 95.5283 34.2089 96.0757 34.4142C96.623 34.6194 97.0959 34.9233 97.4944 35.3257C97.8928 35.7282 98.2027 36.2253 98.4241 36.8169C98.6454 37.4045 98.7561 38.0786 98.7561 38.8392V39.5757H90.6968V37.8613H96.0093C96.0053 37.5473 95.9308 37.2676 95.7859 37.0221C95.641 36.7766 95.4418 36.5855 95.1883 36.4486C94.9387 36.3078 94.651 36.2373 94.325 36.2373C93.995 36.2373 93.6991 36.3118 93.4375 36.4607C93.1759 36.6056 92.9687 36.8048 92.8157 37.0583C92.6628 37.3079 92.5823 37.5916 92.5743 37.9096V39.6542C92.5743 40.0325 92.6487 40.3646 92.7976 40.6503C92.9465 40.932 93.1578 41.1514 93.4315 41.3083C93.7052 41.4653 94.0312 41.5438 94.4095 41.5438C94.6711 41.5438 94.9085 41.5076 95.1219 41.4351C95.3352 41.3627 95.5183 41.256 95.6712 41.1152C95.8241 40.9743 95.9389 40.8012 96.0153 40.596L98.7259 40.6745C98.6132 41.2822 98.3657 41.8114 97.9834 42.2622C97.605 42.7089 97.108 43.057 96.4922 43.3066C95.8765 43.5521 95.1641 43.6748 94.3552 43.6748ZM102.878 43.6567C102.286 43.6567 101.761 43.5581 101.302 43.3609C100.847 43.1597 100.487 42.8578 100.222 42.4554C99.9599 42.0489 99.8291 41.5398 99.8291 40.928C99.8291 40.4129 99.9197 39.9782 100.101 39.624C100.282 39.2699 100.531 38.9821 100.849 38.7608C101.167 38.5394 101.534 38.3724 101.948 38.2597C102.363 38.143 102.805 38.0645 103.276 38.0243C103.803 37.976 104.228 37.9257 104.55 37.8733C104.872 37.817 105.105 37.7385 105.25 37.6379C105.399 37.5333 105.474 37.3864 105.474 37.1972V37.167C105.474 36.8571 105.367 36.6177 105.154 36.4486C104.94 36.2796 104.653 36.1951 104.29 36.1951C103.9 36.1951 103.586 36.2796 103.349 36.4486C103.111 36.6177 102.96 36.8511 102.896 37.1489L100.173 37.0523C100.254 36.4889 100.461 35.9858 100.795 35.5431C101.133 35.0963 101.596 34.7462 102.184 34.4927C102.775 34.2351 103.486 34.1063 104.315 34.1063C104.906 34.1063 105.452 34.1767 105.951 34.3176C106.45 34.4544 106.884 34.6556 107.255 34.9213C107.625 35.1829 107.911 35.5048 108.112 35.8872C108.317 36.2695 108.42 36.7062 108.42 37.1972V43.4998H105.643V42.2078H105.57C105.405 42.5218 105.194 42.7874 104.936 43.0047C104.683 43.2221 104.383 43.385 104.037 43.4937C103.695 43.6024 103.308 43.6567 102.878 43.6567ZM103.789 41.7249C104.107 41.7249 104.393 41.6605 104.647 41.5317C104.904 41.4029 105.109 41.2258 105.262 41.0005C105.415 40.7711 105.492 40.5054 105.492 40.2036V39.3222C105.407 39.3665 105.305 39.4067 105.184 39.4429C105.067 39.4792 104.938 39.5134 104.798 39.5456C104.657 39.5778 104.512 39.6059 104.363 39.6301C104.214 39.6542 104.071 39.6764 103.934 39.6965C103.657 39.7408 103.419 39.8092 103.222 39.9017C103.029 39.9943 102.88 40.115 102.775 40.264C102.675 40.4088 102.624 40.5819 102.624 40.7831C102.624 41.089 102.733 41.3224 102.95 41.4834C103.172 41.6444 103.451 41.7249 103.789 41.7249Z" fill="url(#paint1_linear_2_835)"/>
</g>
<rect x="1.05" y="1.04976" width="165.9" height="53.9" rx="6.95" stroke="white" stroke-opacity="0.15" stroke-width="2.1"/>
<defs>
<filter id="filter0_d_2_835" x="6.28571" y="2.28547" width="51.4286" height="51.4286" filterUnits="userSpaceOnUse" color-interpolation-filters="sRGB">
<feFlood flood-opacity="0" result="BackgroundImageFix"/>
<feColorMatrix in="SourceAlpha" type="matrix" values="0 0 0 0 0 0 0 0 0 0 0 0 0 0 0 0 0 0 127 0" result="hardAlpha"/>
<feOffset/>
<feGaussianBlur stdDeviation="2.85714"/>
<feComposite in2="hardAlpha" operator="out"/>
<feColorMatrix type="matrix" values="0 0 0 0 0 0 0 0 0 0 0 0 0 0 0 0 0 0 0.25 0"/>
<feBlend mode="normal" in2="BackgroundImageFix" result="effect1_dropShadow_2_835"/>
<feBlend mode="normal" in="SourceGraphic" in2="effect1_dropShadow_2_835" result="shape"/>
</filter>
<filter id="filter1_d_2_835" x="58.4" y="3.89976" width="103.2" height="48.2" filterUnits="userSpaceOnUse" color-interpolation-filters="sRGB">
<feFlood flood-opacity="0" result="BackgroundImageFix"/>
<feColorMatrix in="SourceAlpha" type="matrix" values="0 0 0 0 0 0 0 0 0 0 0 0 0 0 0 0 0 0 127 0" result="hardAlpha"/>
<feOffset/>
<feGaussianBlur stdDeviation="2.8"/>
<feComposite in2="hardAlpha" operator="out"/>
<feColorMatrix type="matrix" values="0 0 0 0 0 0 0 0 0 0 0 0 0 0 0 0 0 0 0.25 0"/>
<feBlend mode="normal" in2="BackgroundImageFix" result="effect1_dropShadow_2_835"/>
<feBlend mode="normal" in="SourceGraphic" in2="effect1_dropShadow_2_835" result="shape"/>
</filter>
<linearGradient id="paint0_linear_2_835" x1="84" y1="-0.000244141" x2="84" y2="55.9997" gradientUnits="userSpaceOnUse">
<stop stop-color="#263813"/>
<stop offset="1" stop-color="#131F07"/>
</linearGradient>
<linearGradient id="paint1_linear_2_835" x1="87" y1="28.4998" x2="87" y2="46.4998" gradientUnits="userSpaceOnUse">
<stop stop-color="#7AB3DE"/>
<stop stop-color="#7AB3DE"/>
<stop offset="0.0001" stop-color="#68A52B"/>
<stop offset="1" stop-color="#8AC74D"/>
</linearGradient>
</defs>
</svg>
