<svg width="168" height="56" viewBox="0 0 168 56" fill="none" xmlns="http://www.w3.org/2000/svg">
<rect y="-1.52588e-05" width="168" height="56" rx="8" fill="url(#paint0_linear_28_641)"/>
<g filter="url(#filter0_d_28_641)">
<path d="M32.0013 8.71551C20.9518 8.71551 12 17.5725 12 28.4883C12 37.2291 17.7304 44.6377 25.6721 47.2514C26.6759 47.438 27.0385 46.8263 27.0385 46.2974C27.0385 45.8278 27.0272 44.5858 27.0197 42.9373C21.4531 44.1286 20.2805 40.279 20.2805 40.279C19.3692 38.0002 18.0542 37.3885 18.0542 37.3885C16.244 36.1663 18.1979 36.1923 18.1979 36.1923C20.203 36.327 21.2581 38.2252 21.2581 38.2252C23.042 41.2504 25.9384 40.3754 27.0847 39.8663C27.2597 38.5922 27.781 37.716 28.3485 37.2279C23.9083 36.7323 19.2392 35.0331 19.2392 27.4564C19.2392 25.2925 20.0143 23.5303 21.2956 22.1462C21.0743 21.6506 20.3968 19.6363 21.4719 16.9126C21.4719 16.9126 23.1457 16.3849 26.9722 18.9405C28.5736 18.5018 30.2737 18.2831 31.9725 18.2719C33.6726 18.2831 35.3715 18.503 36.9728 18.9405C40.7768 16.3849 42.4494 16.9126 42.4494 16.9126C43.5232 19.6363 42.8457 21.6494 42.6507 22.1462C43.9195 23.5303 44.6946 25.2938 44.6946 27.4564C44.6946 35.0504 40.0193 36.7249 35.574 37.2081C36.269 37.8 36.9203 39.0173 36.9203 40.8648C36.9203 43.5094 36.8953 45.6399 36.8953 46.2838C36.8953 46.7979 37.2454 47.4158 38.2754 47.2168C46.2759 44.6303 52 37.2155 52 28.4871C52 17.5712 43.0482 8.71428 31.9988 8.71428L32.0013 8.71551Z" fill="white"/>
</g>
<g filter="url(#filter1_d_28_641)">
<path d="M66.2613 24.5H64.3977L68.5852 12.8636H70.6136L74.8011 24.5H72.9375L69.6477 14.9773H69.5568L66.2613 24.5ZM66.5738 19.9432H72.6193V21.4204H66.5738V19.9432ZM82.7173 15.7727L79.5525 24.5H77.7343L74.5639 15.7727H76.3878L78.598 22.4886H78.6889L80.8934 15.7727H82.7173ZM86.6037 24.6932C86.0506 24.6932 85.5506 24.5909 85.1037 24.3863C84.6567 24.178 84.3025 23.8769 84.0412 23.4829C83.7836 23.089 83.6548 22.606 83.6548 22.0341C83.6548 21.5416 83.7495 21.1363 83.9389 20.8182C84.1283 20.5 84.384 20.2481 84.7059 20.0625C85.0279 19.8769 85.3877 19.7367 85.7855 19.642C86.1832 19.5473 86.5885 19.4754 87.0014 19.4261C87.5241 19.3655 87.9484 19.3163 88.2741 19.2784C88.5999 19.2367 88.8366 19.1704 88.9843 19.0795C89.1321 18.9886 89.2059 18.8409 89.2059 18.6363V18.5966C89.2059 18.1004 89.0658 17.7159 88.7855 17.4432C88.509 17.1704 88.0961 17.0341 87.5468 17.0341C86.9749 17.0341 86.5241 17.161 86.1946 17.4148C85.8688 17.6648 85.6434 17.9432 85.5184 18.25L83.9218 17.8863C84.1112 17.356 84.3877 16.928 84.7514 16.6023C85.1188 16.2727 85.5412 16.0341 86.0184 15.8863C86.4957 15.7348 86.9976 15.6591 87.5241 15.6591C87.8726 15.6591 88.2419 15.7007 88.6321 15.7841C89.026 15.8636 89.3934 16.0113 89.7343 16.2273C90.079 16.4432 90.3612 16.7519 90.5809 17.1534C90.8006 17.5511 90.9105 18.0682 90.9105 18.7045V24.5H89.2514V23.3068H89.1832C89.0734 23.5265 88.9086 23.7424 88.6889 23.9545C88.4692 24.1666 88.187 24.3428 87.8423 24.4829C87.4976 24.6231 87.0847 24.6932 86.6037 24.6932ZM86.973 23.3295C87.4427 23.3295 87.8442 23.2367 88.1775 23.0511C88.5146 22.8655 88.7703 22.6231 88.9446 22.3238C89.1226 22.0208 89.2116 21.697 89.2116 21.3523V20.2273C89.151 20.2879 89.0336 20.3447 88.8593 20.3977C88.6889 20.447 88.4938 20.4905 88.2741 20.5284C88.0544 20.5625 87.8404 20.5947 87.6321 20.625C87.4237 20.6515 87.2495 20.6742 87.1093 20.6932C86.7798 20.7348 86.4787 20.8049 86.2059 20.9034C85.937 21.0019 85.7211 21.1439 85.5582 21.3295C85.3991 21.5113 85.3196 21.7538 85.3196 22.0568C85.3196 22.4773 85.4749 22.7954 85.7855 23.0113C86.0961 23.2235 86.4919 23.3295 86.973 23.3295ZM93.1733 24.5V15.7727H94.8721V24.5H93.1733ZM94.0312 14.4261C93.7358 14.4261 93.482 14.3276 93.2698 14.1307C93.0615 13.9299 92.9573 13.6913 92.9573 13.4148C92.9573 13.1345 93.0615 12.8958 93.2698 12.6988C93.482 12.4981 93.7358 12.3977 94.0312 12.3977C94.3267 12.3977 94.5786 12.4981 94.7869 12.6988C94.999 12.8958 95.1051 13.1345 95.1051 13.4148C95.1051 13.6913 94.999 13.9299 94.7869 14.1307C94.5786 14.3276 94.3267 14.4261 94.0312 14.4261ZM98.8565 12.8636V24.5H97.1576V12.8636H98.8565ZM103.682 24.6932C103.129 24.6932 102.629 24.5909 102.182 24.3863C101.735 24.178 101.381 23.8769 101.119 23.4829C100.862 23.089 100.733 22.606 100.733 22.0341C100.733 21.5416 100.828 21.1363 101.017 20.8182C101.206 20.5 101.462 20.2481 101.784 20.0625C102.106 19.8769 102.466 19.7367 102.864 19.642C103.261 19.5473 103.667 19.4754 104.08 19.4261C104.602 19.3655 105.026 19.3163 105.352 19.2784C105.678 19.2367 105.915 19.1704 106.062 19.0795C106.21 18.9886 106.284 18.8409 106.284 18.6363V18.5966C106.284 18.1004 106.144 17.7159 105.864 17.4432C105.587 17.1704 105.174 17.0341 104.625 17.0341C104.053 17.0341 103.602 17.161 103.273 17.4148C102.947 17.6648 102.722 17.9432 102.597 18.25L101 17.8863C101.189 17.356 101.466 16.928 101.83 16.6023C102.197 16.2727 102.619 16.0341 103.097 15.8863C103.574 15.7348 104.076 15.6591 104.602 15.6591C104.951 15.6591 105.32 15.7007 105.71 15.7841C106.104 15.8636 106.472 16.0113 106.812 16.2273C107.157 16.4432 107.439 16.7519 107.659 17.1534C107.879 17.5511 107.989 18.0682 107.989 18.7045V24.5H106.33V23.3068H106.261C106.151 23.5265 105.987 23.7424 105.767 23.9545C105.547 24.1666 105.265 24.3428 104.92 24.4829C104.576 24.6231 104.163 24.6932 103.682 24.6932ZM104.051 23.3295C104.521 23.3295 104.922 23.2367 105.256 23.0511C105.593 22.8655 105.848 22.6231 106.023 22.3238C106.201 22.0208 106.29 21.697 106.29 21.3523V20.2273C106.229 20.2879 106.112 20.3447 105.937 20.3977C105.767 20.447 105.572 20.4905 105.352 20.5284C105.133 20.5625 104.919 20.5947 104.71 20.625C104.502 20.6515 104.328 20.6742 104.187 20.6932C103.858 20.7348 103.557 20.8049 103.284 20.9034C103.015 21.0019 102.799 21.1439 102.636 21.3295C102.477 21.5113 102.398 21.7538 102.398 22.0568C102.398 22.4773 102.553 22.7954 102.864 23.0113C103.174 23.2235 103.57 23.3295 104.051 23.3295ZM110.388 24.5V12.8636H112.087V17.1875H112.189C112.287 17.0057 112.429 16.7954 112.615 16.5568C112.801 16.3182 113.058 16.1098 113.388 15.9318C113.717 15.75 114.153 15.6591 114.695 15.6591C115.399 15.6591 116.028 15.8371 116.581 16.1932C117.134 16.5492 117.568 17.0625 117.882 17.7329C118.2 18.4034 118.359 19.2102 118.359 20.1534C118.359 21.0966 118.202 21.9053 117.888 22.5795C117.573 23.25 117.142 23.767 116.592 24.1307C116.043 24.4905 115.416 24.6704 114.712 24.6704C114.181 24.6704 113.748 24.5814 113.41 24.4034C113.077 24.2254 112.816 24.017 112.626 23.7784C112.437 23.5398 112.291 23.3276 112.189 23.142H112.047V24.5H110.388ZM112.053 20.1363C112.053 20.75 112.142 21.2879 112.32 21.75C112.498 22.2121 112.755 22.5738 113.092 22.8352C113.429 23.0928 113.842 23.2216 114.331 23.2216C114.838 23.2216 115.263 23.0871 115.604 22.8182C115.945 22.5454 116.202 22.1761 116.376 21.7102C116.554 21.2443 116.643 20.7197 116.643 20.1363C116.643 19.5606 116.556 19.0435 116.382 18.5852C116.212 18.1269 115.954 17.7651 115.609 17.5C115.268 17.2348 114.842 17.1023 114.331 17.1023C113.838 17.1023 113.422 17.2291 113.081 17.4829C112.744 17.7367 112.488 18.0909 112.314 18.5454C112.14 19 112.053 19.5303 112.053 20.1363ZM121.966 12.8636V24.5H120.267V12.8636H121.966ZM128.013 24.6761C127.153 24.6761 126.412 24.4924 125.791 24.125C125.174 23.7538 124.696 23.2329 124.359 22.5625C124.026 21.8882 123.859 21.0985 123.859 20.1932C123.859 19.2992 124.026 18.5113 124.359 17.8295C124.696 17.1477 125.166 16.6155 125.768 16.2329C126.374 15.8504 127.083 15.6591 127.893 15.6591C128.386 15.6591 128.863 15.7405 129.325 15.9034C129.787 16.0663 130.202 16.322 130.57 16.6704C130.937 17.0189 131.227 17.4716 131.439 18.0284C131.651 18.5814 131.757 19.2538 131.757 20.0454V20.6477H124.82V19.375H130.092C130.092 18.928 130.001 18.5322 129.82 18.1875C129.638 17.839 129.382 17.5644 129.053 17.3636C128.727 17.1629 128.344 17.0625 127.905 17.0625C127.428 17.0625 127.011 17.1799 126.655 17.4148C126.303 17.6458 126.03 17.9488 125.837 18.3238C125.647 18.6951 125.553 19.0985 125.553 19.5341V20.5284C125.553 21.1117 125.655 21.6079 125.859 22.017C126.068 22.4261 126.357 22.7386 126.729 22.9545C127.1 23.1666 127.534 23.2727 128.03 23.2727C128.352 23.2727 128.645 23.2273 128.91 23.1363C129.176 23.0416 129.405 22.9015 129.598 22.7159C129.791 22.5303 129.939 22.3011 130.041 22.0284L131.649 22.3182C131.52 22.7916 131.289 23.2064 130.956 23.5625C130.626 23.9148 130.212 24.1894 129.712 24.3863C129.215 24.5795 128.649 24.6761 128.013 24.6761ZM141.553 24.6761C140.734 24.6761 140.02 24.4886 139.41 24.1136C138.801 23.7386 138.327 23.214 137.99 22.5398C137.653 21.8655 137.484 21.0776 137.484 20.1761C137.484 19.2708 137.653 18.4791 137.99 17.8011C138.327 17.1231 138.801 16.5966 139.41 16.2216C140.02 15.8466 140.734 15.6591 141.553 15.6591C142.371 15.6591 143.085 15.8466 143.695 16.2216C144.304 16.5966 144.778 17.1231 145.115 17.8011C145.452 18.4791 145.621 19.2708 145.621 20.1761C145.621 21.0776 145.452 21.8655 145.115 22.5398C144.778 23.214 144.304 23.7386 143.695 24.1136C143.085 24.4886 142.371 24.6761 141.553 24.6761ZM141.558 23.25C142.088 23.25 142.528 23.1098 142.876 22.8295C143.225 22.5492 143.482 22.1761 143.649 21.7102C143.82 21.2443 143.905 20.731 143.905 20.1704C143.905 19.6136 143.82 19.1023 143.649 18.6363C143.482 18.1666 143.225 17.7898 142.876 17.5057C142.528 17.2216 142.088 17.0795 141.558 17.0795C141.024 17.0795 140.581 17.2216 140.229 17.5057C139.88 17.7898 139.621 18.1666 139.45 18.6363C139.284 19.1023 139.2 19.6136 139.2 20.1704C139.2 20.731 139.284 21.2443 139.45 21.7102C139.621 22.1761 139.88 22.5492 140.229 22.8295C140.581 23.1098 141.024 23.25 141.558 23.25ZM149.216 19.3182V24.5H147.517V15.7727H149.148V17.1932H149.256C149.456 16.731 149.771 16.3598 150.199 16.0795C150.631 15.7992 151.174 15.6591 151.829 15.6591C152.424 15.6591 152.945 15.7841 153.392 16.0341C153.839 16.2803 154.186 16.6477 154.432 17.1363C154.678 17.625 154.801 18.2291 154.801 18.9488V24.5H153.102V19.1534C153.102 18.5208 152.937 18.0265 152.608 17.6704C152.278 17.3106 151.826 17.1307 151.25 17.1307C150.856 17.1307 150.506 17.2159 150.199 17.3863C149.896 17.5568 149.655 17.8068 149.477 18.1363C149.303 18.4621 149.216 18.856 149.216 19.3182Z" fill="#E8E8E8"/>
<path d="M73.0493 35.175C72.9809 34.9215 72.8803 34.6981 72.7475 34.5049C72.6147 34.3077 72.4517 34.1407 72.2585 34.0039C72.0653 33.867 71.844 33.7644 71.5944 33.696C71.3449 33.6236 71.0712 33.5873 70.7734 33.5873C70.1737 33.5873 69.6546 33.7322 69.2159 34.022C68.7812 34.3118 68.4452 34.7343 68.2077 35.2897C67.9703 35.8411 67.8515 36.5112 67.8515 37.3C67.8515 38.0929 67.9662 38.769 68.1956 39.3285C68.425 39.8879 68.7571 40.3145 69.1917 40.6083C69.6264 40.9021 70.1536 41.049 70.7734 41.049C71.3208 41.049 71.7836 40.9604 72.1619 40.7834C72.5442 40.6022 72.834 40.3467 73.0312 40.0167C73.2284 39.6866 73.327 39.2983 73.327 38.8515L73.8824 38.9179H70.876V36.7386H76.2066V38.3746C76.2066 39.4814 75.9712 40.4292 75.5003 41.218C75.0335 42.0068 74.3895 42.6125 73.5685 43.0351C72.7515 43.4577 71.8118 43.669 70.7493 43.669C69.57 43.669 68.5337 43.4134 67.6402 42.9023C66.7468 42.3912 66.0505 41.6627 65.5515 40.7169C65.0524 39.7671 64.8029 38.6402 64.8029 37.3363C64.8029 36.3221 64.9538 35.4226 65.2557 34.6378C65.5575 33.8489 65.9781 33.1808 66.5174 32.6335C67.0607 32.0862 67.6885 31.6716 68.4009 31.3899C69.1173 31.1082 69.888 30.9673 70.713 30.9673C71.4294 30.9673 72.0955 31.0699 72.7113 31.2752C73.3311 31.4804 73.8784 31.7702 74.3533 32.1445C74.8322 32.5188 75.2206 32.9635 75.5184 33.4787C75.8163 33.9938 76.0014 34.5593 76.0738 35.175H73.0493ZM78.549 43.5V34.2272H81.501V43.5H78.549ZM80.028 33.1466C79.6135 33.1466 79.2573 33.0098 78.9595 32.7361C78.6617 32.4584 78.5127 32.1244 78.5127 31.734C78.5127 31.3476 78.6617 31.0176 78.9595 30.7439C79.2573 30.4662 79.6135 30.3274 80.028 30.3274C80.4466 30.3274 80.8028 30.4662 81.0966 30.7439C81.3944 31.0176 81.5433 31.3476 81.5433 31.734C81.5433 32.1244 81.3944 32.4584 81.0966 32.7361C80.8028 33.0098 80.4466 33.1466 80.028 33.1466ZM88.614 34.2272V36.4005H82.7643V34.2272H88.614ZM83.9898 32.0057H86.9418V40.5841C86.9418 40.7652 86.97 40.9121 87.0263 41.0248C87.0867 41.1335 87.1732 41.212 87.2859 41.2603C87.3986 41.3045 87.5334 41.3267 87.6904 41.3267C87.8031 41.3267 87.9218 41.3166 88.0466 41.2965C88.1754 41.2723 88.2719 41.2522 88.3363 41.2361L88.7831 43.3672C88.6422 43.4074 88.443 43.4577 88.1854 43.5181C87.9319 43.5785 87.628 43.6167 87.2738 43.6328C86.5816 43.665 85.988 43.5845 85.4929 43.3913C85.0019 43.1941 84.6256 42.8882 84.364 42.4737C84.1065 42.0592 83.9817 41.538 83.9898 40.9101V32.0057ZM90.3195 43.5V31.1363H93.3078V36.0987H98.1796V31.1363H101.162V43.5H98.1796V38.5316H93.3078V43.5H90.3195ZM109.019 39.4975V34.2272H111.965V43.5H109.152V41.7734H109.055C108.85 42.3409 108.5 42.7916 108.005 43.1257C107.514 43.4557 106.92 43.6207 106.224 43.6207C105.592 43.6207 105.037 43.4758 104.558 43.1861C104.079 42.8963 103.706 42.4918 103.441 41.9726C103.175 41.4494 103.04 40.8377 103.036 40.1374V34.2272H105.988V39.5579C105.992 40.0609 106.125 40.4574 106.387 40.7471C106.648 41.0369 107.005 41.1818 107.455 41.1818C107.749 41.1818 108.013 41.1174 108.246 40.9886C108.484 40.8558 108.671 40.6646 108.808 40.4151C108.948 40.1616 109.019 39.8557 109.019 39.4975ZM113.844 43.5V31.1363H116.796V35.815H116.856C116.977 35.5332 117.148 35.2616 117.369 35C117.595 34.7384 117.881 34.5251 118.227 34.3601C118.577 34.191 118.995 34.1065 119.482 34.1065C120.126 34.1065 120.728 34.2755 121.287 34.6136C121.851 34.9517 122.306 35.4729 122.652 36.1772C122.998 36.8815 123.171 37.779 123.171 38.8696C123.171 39.9201 123.004 40.7995 122.67 41.5078C122.34 42.2161 121.893 42.7474 121.33 43.1015C120.77 43.4557 120.148 43.6328 119.464 43.6328C118.997 43.6328 118.593 43.5563 118.251 43.4034C117.909 43.2504 117.621 43.0492 117.388 42.7997C117.158 42.5502 116.981 42.2825 116.856 41.9968H116.766V43.5H113.844ZM116.736 38.8636C116.736 39.3627 116.802 39.7973 116.935 40.1676C117.072 40.5379 117.267 40.8256 117.52 41.0309C117.778 41.2321 118.086 41.3327 118.444 41.3327C118.806 41.3327 119.114 41.2321 119.368 41.0309C119.621 40.8256 119.812 40.5379 119.941 40.1676C120.074 39.7973 120.14 39.3627 120.14 38.8636C120.14 38.3646 120.074 37.9319 119.941 37.5657C119.812 37.1994 119.621 36.9157 119.368 36.7145C119.118 36.5132 118.81 36.4126 118.444 36.4126C118.082 36.4126 117.774 36.5112 117.52 36.7084C117.267 36.9056 117.072 37.1874 116.935 37.5536C116.802 37.9198 116.736 38.3565 116.736 38.8636Z" fill="white"/>
</g>
<rect x="1.05" y="1.04998" width="165.9" height="53.9" rx="6.95" stroke="white" stroke-opacity="0.15" stroke-width="2.1"/>
<defs>
<filter id="filter0_d_28_641" x="6.28571" y="2.2857" width="51.4286" height="51.4286" filterUnits="userSpaceOnUse" color-interpolation-filters="sRGB">
<feFlood flood-opacity="0" result="BackgroundImageFix"/>
<feColorMatrix in="SourceAlpha" type="matrix" values="0 0 0 0 0 0 0 0 0 0 0 0 0 0 0 0 0 0 127 0" result="hardAlpha"/>
<feOffset/>
<feGaussianBlur stdDeviation="2.85714"/>
<feComposite in2="hardAlpha" operator="out"/>
<feColorMatrix type="matrix" values="0 0 0 0 0 0 0 0 0 0 0 0 0 0 0 0 0 0 0.25 0"/>
<feBlend mode="normal" in2="BackgroundImageFix" result="effect1_dropShadow_28_641"/>
<feBlend mode="normal" in="SourceGraphic" in2="effect1_dropShadow_28_641" result="shape"/>
</filter>
<filter id="filter1_d_28_641" x="58.4" y="3.89998" width="103.2" height="48.2" filterUnits="userSpaceOnUse" color-interpolation-filters="sRGB">
<feFlood flood-opacity="0" result="BackgroundImageFix"/>
<feColorMatrix in="SourceAlpha" type="matrix" values="0 0 0 0 0 0 0 0 0 0 0 0 0 0 0 0 0 0 127 0" result="hardAlpha"/>
<feOffset/>
<feGaussianBlur stdDeviation="2.8"/>
<feComposite in2="hardAlpha" operator="out"/>
<feColorMatrix type="matrix" values="0 0 0 0 0 0 0 0 0 0 0 0 0 0 0 0 0 0 0.25 0"/>
<feBlend mode="normal" in2="BackgroundImageFix" result="effect1_dropShadow_28_641"/>
<feBlend mode="normal" in="SourceGraphic" in2="effect1_dropShadow_28_641" result="shape"/>
</filter>
<linearGradient id="paint0_linear_28_641" x1="84" y1="-1.52588e-05" x2="84" y2="56" gradientUnits="userSpaceOnUse">
<stop stop-color="#181F29"/>
<stop offset="1" stop-color="#0F131A"/>
</linearGradient>
</defs>
</svg>
