<svg width="120" height="40" viewBox="0 0 120 40" fill="none" xmlns="http://www.w3.org/2000/svg">
<rect x="-0.000183105" y="-1.52588e-05" width="120" height="40" rx="6" fill="url(#paint0_linear_28_641)"/>
<g filter="url(#filter0_d_28_641)">
<path d="M24.0007 6.50085C16.2661 6.50085 9.99982 12.7007 9.99982 20.3418C9.99982 26.4604 14.0111 31.6464 19.5703 33.476C20.273 33.6066 20.5267 33.1784 20.5267 32.8082C20.5267 32.4794 20.5188 31.6101 20.5136 30.4561C16.617 31.29 15.7962 28.5953 15.7962 28.5953C15.1583 27.0002 14.2377 26.572 14.2377 26.572C12.9706 25.7164 14.3383 25.7346 14.3383 25.7346C15.7419 25.8289 16.4805 27.1576 16.4805 27.1576C17.7292 29.2753 19.7567 28.6628 20.5591 28.3064C20.6816 27.4145 21.0465 26.8012 21.4438 26.4595C18.3356 26.1126 15.0673 24.9231 15.0673 19.6195C15.0673 18.1048 15.6098 16.8712 16.5067 15.9023C16.3518 15.5554 15.8776 14.1454 16.6301 12.2388C16.6301 12.2388 17.8018 11.8694 20.4803 13.6583C21.6013 13.3513 22.7914 13.1981 23.9806 13.1904C25.1706 13.1981 26.3598 13.3521 27.4808 13.6583C30.1436 11.8694 31.3144 12.2388 31.3144 12.2388C32.0661 14.1454 31.5918 15.5546 31.4553 15.9023C32.3435 16.8712 32.886 18.1056 32.886 19.6195C32.886 24.9353 29.6133 26.1074 26.5016 26.4457C26.9881 26.86 27.444 27.7121 27.444 29.0054C27.444 30.8566 27.4265 32.348 27.4265 32.7986C27.4265 33.1585 27.6715 33.591 28.3926 33.4518C33.9929 31.6412 37.9998 26.4508 37.9998 20.3409C37.9998 12.6999 31.7335 6.49998 23.9989 6.49998L24.0007 6.50085Z" fill="white"/>
</g>
<g filter="url(#filter1_d_28_641)">
<path d="M47.5545 18H46.2733L49.1522 9.99998H50.5467L53.4256 18H52.1443L49.8826 11.4531H49.8201L47.5545 18ZM47.7693 14.8672H51.9256V15.8828H47.7693V14.8672ZM58.868 12L56.6922 18H55.4422L53.2625 12H54.5164L56.0359 16.6172H56.0984L57.6141 12H58.868ZM61.5399 18.1328C61.1596 18.1328 60.8159 18.0625 60.5086 17.9219C60.2013 17.7786 59.9578 17.5716 59.7781 17.3008C59.601 17.0299 59.5125 16.6979 59.5125 16.3047C59.5125 15.9661 59.5776 15.6875 59.7078 15.4687C59.838 15.25 60.0138 15.0768 60.2352 14.9492C60.4565 14.8216 60.7039 14.7252 60.9774 14.6601C61.2508 14.595 61.5294 14.5456 61.8133 14.5117C62.1727 14.47 62.4643 14.4362 62.6883 14.4101C62.9122 14.3815 63.075 14.3359 63.1766 14.2734C63.2781 14.2109 63.3289 14.1094 63.3289 13.9687V13.9414C63.3289 13.6002 63.2326 13.3359 63.0399 13.1484C62.8497 12.9609 62.5659 12.8672 62.1883 12.8672C61.7951 12.8672 61.4852 12.9544 61.2586 13.1289C61.0346 13.3008 60.8797 13.4922 60.7938 13.7031L59.6961 13.4531C59.8263 13.0885 60.0164 12.7943 60.2664 12.5703C60.519 12.3437 60.8094 12.1797 61.1375 12.0781C61.4656 11.9739 61.8107 11.9219 62.1727 11.9219C62.4122 11.9219 62.6662 11.9505 62.9344 12.0078C63.2052 12.0625 63.4578 12.164 63.6922 12.3125C63.9292 12.4609 64.1232 12.6732 64.2742 12.9492C64.4253 13.2226 64.5008 13.5781 64.5008 14.0156V18H63.3602V17.1797H63.3133C63.2378 17.3307 63.1245 17.4791 62.9734 17.625C62.8224 17.7708 62.6284 17.8919 62.3914 17.9883C62.1544 18.0846 61.8706 18.1328 61.5399 18.1328ZM61.7938 17.1953C62.1167 17.1953 62.3927 17.1315 62.6219 17.0039C62.8537 16.8763 63.0294 16.7096 63.1492 16.5039C63.2716 16.2956 63.3328 16.0729 63.3328 15.8359V15.0625C63.2912 15.1041 63.2104 15.1432 63.0906 15.1797C62.9734 15.2135 62.8393 15.2435 62.6883 15.2695C62.5372 15.293 62.3901 15.3151 62.2469 15.3359C62.1037 15.3541 61.9839 15.3698 61.8875 15.3828C61.6609 15.4114 61.4539 15.4596 61.2664 15.5273C61.0815 15.595 60.9331 15.6927 60.8211 15.8203C60.7117 15.9453 60.657 16.112 60.657 16.3203C60.657 16.6094 60.7638 16.8281 60.9774 16.9765C61.1909 17.1224 61.463 17.1953 61.7938 17.1953ZM66.0565 18V12H67.2244V18H66.0565ZM66.6463 11.0742C66.4432 11.0742 66.2687 11.0065 66.1229 10.8711C65.9796 10.7331 65.908 10.569 65.908 10.3789C65.908 10.1862 65.9796 10.0221 66.1229 9.8867C66.2687 9.74868 66.4432 9.67967 66.6463 9.67967C66.8494 9.67967 67.0226 9.74868 67.1658 9.8867C67.3117 10.0221 67.3846 10.1862 67.3846 10.3789C67.3846 10.569 67.3117 10.7331 67.1658 10.8711C67.0226 11.0065 66.8494 11.0742 66.6463 11.0742ZM69.9637 9.99998V18H68.7957V9.99998H69.9637ZM73.2811 18.1328C72.9009 18.1328 72.5571 18.0625 72.2498 17.9219C71.9425 17.7786 71.699 17.5716 71.5193 17.3008C71.3423 17.0299 71.2537 16.6979 71.2537 16.3047C71.2537 15.9661 71.3188 15.6875 71.449 15.4687C71.5792 15.25 71.755 15.0768 71.9764 14.9492C72.1977 14.8216 72.4451 14.7252 72.7186 14.6601C72.992 14.595 73.2706 14.5456 73.5545 14.5117C73.9139 14.47 74.2055 14.4362 74.4295 14.4101C74.6535 14.3815 74.8162 14.3359 74.9178 14.2734C75.0193 14.2109 75.0701 14.1094 75.0701 13.9687V13.9414C75.0701 13.6002 74.9738 13.3359 74.7811 13.1484C74.591 12.9609 74.3071 12.8672 73.9295 12.8672C73.5363 12.8672 73.2264 12.9544 72.9998 13.1289C72.7759 13.3008 72.6209 13.4922 72.535 13.7031L71.4373 13.4531C71.5675 13.0885 71.7576 12.7943 72.0076 12.5703C72.2602 12.3437 72.5506 12.1797 72.8787 12.0781C73.2068 11.9739 73.5519 11.9219 73.9139 11.9219C74.1535 11.9219 74.4074 11.9505 74.6756 12.0078C74.9464 12.0625 75.199 12.164 75.4334 12.3125C75.6704 12.4609 75.8644 12.6732 76.0154 12.9492C76.1665 13.2226 76.242 13.5781 76.242 14.0156V18H75.1014V17.1797H75.0545C74.979 17.3307 74.8657 17.4791 74.7147 17.625C74.5636 17.7708 74.3696 17.8919 74.1326 17.9883C73.8956 18.0846 73.6118 18.1328 73.2811 18.1328ZM73.535 17.1953C73.8579 17.1953 74.1339 17.1315 74.3631 17.0039C74.5949 16.8763 74.7706 16.7096 74.8904 16.5039C75.0128 16.2956 75.074 16.0729 75.074 15.8359V15.0625C75.0324 15.1041 74.9516 15.1432 74.8318 15.1797C74.7147 15.2135 74.5805 15.2435 74.4295 15.2695C74.2785 15.293 74.1313 15.3151 73.9881 15.3359C73.8449 15.3541 73.7251 15.3698 73.6287 15.3828C73.4022 15.4114 73.1951 15.4596 73.0076 15.5273C72.8227 15.595 72.6743 15.6927 72.5623 15.8203C72.4529 15.9453 72.3982 16.112 72.3982 16.3203C72.3982 16.6094 72.505 16.8281 72.7186 16.9765C72.9321 17.1224 73.2042 17.1953 73.535 17.1953ZM77.8914 18V9.99998H79.0594V12.9726H79.1297C79.1974 12.8476 79.2951 12.7031 79.4227 12.539C79.5503 12.375 79.7273 12.2318 79.9539 12.1094C80.1805 11.9844 80.4799 11.9219 80.8523 11.9219C81.3367 11.9219 81.769 12.0443 82.1492 12.289C82.5294 12.5338 82.8276 12.8867 83.0438 13.3476C83.2625 13.8086 83.3719 14.3633 83.3719 15.0117C83.3719 15.6601 83.2638 16.2161 83.0477 16.6797C82.8315 17.1406 82.5346 17.4961 82.157 17.7461C81.7794 17.9935 81.3484 18.1172 80.8641 18.1172C80.4995 18.1172 80.2013 18.056 79.9695 17.9336C79.7404 17.8112 79.5607 17.668 79.4305 17.5039C79.3003 17.3398 79.2 17.194 79.1297 17.0664H79.032V18H77.8914ZM79.0359 15C79.0359 15.4219 79.0971 15.7916 79.2195 16.1094C79.3419 16.4271 79.519 16.6758 79.7508 16.8555C79.9826 17.0325 80.2664 17.1211 80.6023 17.1211C80.9513 17.1211 81.243 17.0286 81.4773 16.8437C81.7117 16.6562 81.8888 16.4023 82.0086 16.082C82.131 15.7617 82.1922 15.401 82.1922 15C82.1922 14.6041 82.1323 14.2487 82.0125 13.9336C81.8953 13.6185 81.7182 13.3698 81.4813 13.1875C81.2469 13.0052 80.9539 12.914 80.6023 12.914C80.2638 12.914 79.9773 13.0013 79.743 13.1758C79.5112 13.3502 79.3354 13.5937 79.2156 13.9062C79.0958 14.2187 79.0359 14.5833 79.0359 15ZM85.8514 9.99998V18H84.6834V9.99998H85.8514ZM90.0086 18.1211C89.4174 18.1211 88.9083 17.9948 88.4812 17.7422C88.0568 17.487 87.7286 17.1289 87.4969 16.668C87.2677 16.2044 87.1531 15.6614 87.1531 15.039C87.1531 14.4245 87.2677 13.8828 87.4969 13.414C87.7286 12.9453 88.0516 12.5794 88.4656 12.3164C88.8823 12.0534 89.3693 11.9219 89.9266 11.9219C90.2651 11.9219 90.5932 11.9778 90.9109 12.0898C91.2286 12.2018 91.5138 12.3776 91.7664 12.6172C92.019 12.8568 92.2182 13.168 92.3641 13.5508C92.5099 13.931 92.5828 14.3932 92.5828 14.9375V15.3515H87.8133V14.4765H91.4383C91.4383 14.1693 91.3758 13.8971 91.2508 13.6601C91.1258 13.4206 90.95 13.2318 90.7234 13.0937C90.4995 12.9557 90.2365 12.8867 89.9344 12.8867C89.6062 12.8867 89.3198 12.9674 89.075 13.1289C88.8328 13.2877 88.6453 13.4961 88.5125 13.7539C88.3823 14.0091 88.3172 14.2864 88.3172 14.5859V15.2695C88.3172 15.6706 88.3875 16.0117 88.5281 16.293C88.6714 16.5742 88.8706 16.789 89.1258 16.9375C89.381 17.0833 89.6792 17.1562 90.0203 17.1562C90.2417 17.1562 90.4435 17.125 90.6258 17.0625C90.8081 16.9974 90.9656 16.901 91.0984 16.7734C91.2312 16.6458 91.3328 16.4883 91.4031 16.3008L92.5086 16.5C92.4201 16.8255 92.2612 17.1107 92.032 17.3555C91.8055 17.5976 91.5203 17.7864 91.1766 17.9219C90.8354 18.0547 90.4461 18.1211 90.0086 18.1211ZM99.3172 18.1211C98.7547 18.1211 98.2638 17.9922 97.8445 17.7344C97.4253 17.4765 97.0997 17.1159 96.868 16.6523C96.6362 16.1888 96.5203 15.6471 96.5203 15.0273C96.5203 14.4049 96.6362 13.8607 96.868 13.3945C97.0997 12.9284 97.4253 12.5664 97.8445 12.3086C98.2638 12.0508 98.7547 11.9219 99.3172 11.9219C99.8797 11.9219 100.371 12.0508 100.79 12.3086C101.209 12.5664 101.535 12.9284 101.766 13.3945C101.998 13.8607 102.114 14.4049 102.114 15.0273C102.114 15.6471 101.998 16.1888 101.766 16.6523C101.535 17.1159 101.209 17.4765 100.79 17.7344C100.371 17.9922 99.8797 18.1211 99.3172 18.1211ZM99.3211 17.1406C99.6857 17.1406 99.9878 17.0443 100.227 16.8515C100.467 16.6588 100.644 16.4023 100.759 16.082C100.876 15.7617 100.934 15.4088 100.934 15.0234C100.934 14.6406 100.876 14.289 100.759 13.9687C100.644 13.6458 100.467 13.3867 100.227 13.1914C99.9878 12.9961 99.6857 12.8984 99.3211 12.8984C98.9539 12.8984 98.6492 12.9961 98.407 13.1914C98.1674 13.3867 97.9891 13.6458 97.8719 13.9687C97.7573 14.289 97.7 14.6406 97.7 15.0234C97.7 15.4088 97.7573 15.7617 97.8719 16.082C97.9891 16.4023 98.1674 16.6588 98.407 16.8515C98.6492 17.0443 98.9539 17.1406 99.3211 17.1406ZM104.586 14.4375V18H103.418V12H104.539V12.9765H104.613C104.751 12.6588 104.967 12.4036 105.262 12.2109C105.558 12.0182 105.932 11.9219 106.383 11.9219C106.791 11.9219 107.15 12.0078 107.457 12.1797C107.764 12.3489 108.002 12.6015 108.172 12.9375C108.341 13.2734 108.426 13.6888 108.426 14.1836V18H107.258V14.3242C107.258 13.8893 107.144 13.5495 106.918 13.3047C106.691 13.0573 106.38 12.9336 105.984 12.9336C105.713 12.9336 105.472 12.9922 105.262 13.1094C105.053 13.2265 104.888 13.3984 104.765 13.625C104.646 13.8489 104.586 14.1198 104.586 14.4375Z" fill="#E8E8E8"/>
<path d="M52.3876 25.1236C52.3393 24.9446 52.2683 24.7869 52.1745 24.6505C52.0808 24.5113 51.9657 24.3934 51.8294 24.2969C51.693 24.2003 51.5367 24.1278 51.3606 24.0795C51.1845 24.0284 50.9913 24.0028 50.7811 24.0028C50.3578 24.0028 49.9913 24.1051 49.6816 24.3096C49.3748 24.5142 49.1376 24.8125 48.97 25.2045C48.8024 25.5937 48.7186 26.0667 48.7186 26.6236C48.7186 27.1832 48.7995 27.6605 48.9615 28.0554C49.1234 28.4503 49.3578 28.7514 49.6646 28.9588C49.9714 29.1662 50.3436 29.2699 50.7811 29.2699C51.1674 29.2699 51.4941 29.2074 51.7612 29.0824C52.0311 28.9545 52.2356 28.7741 52.3748 28.5412C52.514 28.3082 52.5836 28.0341 52.5836 27.7187L52.9757 27.7656H50.8535V26.2272H54.6163V27.3821C54.6163 28.1633 54.4501 28.8324 54.1177 29.3892C53.7882 29.946 53.3336 30.3736 52.7541 30.6718C52.1774 30.9701 51.514 31.1193 50.764 31.1193C49.9316 31.1193 49.2001 30.9389 48.5694 30.5781C47.9387 30.2173 47.4473 29.7031 47.095 29.0355C46.7427 28.365 46.5666 27.5696 46.5666 26.6491C46.5666 25.9332 46.6731 25.2983 46.8862 24.7443C47.0992 24.1875 47.3961 23.7159 47.7768 23.3295C48.1603 22.9432 48.6035 22.6505 49.1064 22.4517C49.612 22.2528 50.1561 22.1534 50.7385 22.1534C51.2441 22.1534 51.7143 22.2258 52.149 22.3707C52.5865 22.5156 52.9728 22.7201 53.3081 22.9844C53.6461 23.2486 53.9203 23.5625 54.1305 23.9261C54.3407 24.2897 54.4714 24.6889 54.5225 25.1236H52.3876ZM56.2697 31V24.4545H58.3535V31H56.2697ZM57.3137 23.6917C57.0211 23.6917 56.7697 23.5951 56.5595 23.402C56.3492 23.2059 56.2441 22.9701 56.2441 22.6946C56.2441 22.4219 56.3492 22.1889 56.5595 21.9957C56.7697 21.7997 57.0211 21.7017 57.3137 21.7017C57.6092 21.7017 57.8606 21.7997 58.068 21.9957C58.2782 22.1889 58.3833 22.4219 58.3833 22.6946C58.3833 22.9701 58.2782 23.2059 58.068 23.402C57.8606 23.5951 57.6092 23.6917 57.3137 23.6917ZM63.3745 24.4545V25.9886H59.2452V24.4545H63.3745ZM60.1103 22.8863H62.1941V28.9417C62.1941 29.0696 62.2139 29.1733 62.2537 29.2528C62.2963 29.3295 62.3574 29.3849 62.437 29.419C62.5165 29.4503 62.6117 29.4659 62.7225 29.4659C62.802 29.4659 62.8858 29.4588 62.9739 29.4446C63.0648 29.4275 63.133 29.4133 63.1784 29.402L63.4938 30.9062C63.3943 30.9346 63.2537 30.9701 63.0719 31.0128C62.8929 31.0554 62.6784 31.0824 62.4284 31.0937C61.9398 31.1165 61.5208 31.0596 61.1713 30.9233C60.8247 30.7841 60.5591 30.5682 60.3745 30.2755C60.1926 29.9829 60.1046 29.615 60.1103 29.1718V22.8863ZM64.5783 31V22.2727H66.6877V25.7755H70.1266V22.2727H72.2317V31H70.1266V27.4929H66.6877V31H64.5783ZM77.7779 28.1747V24.4545H79.8574V31H77.8716V29.7812H77.8034C77.6585 30.1818 77.4114 30.5 77.062 30.7358C76.7154 30.9687 76.2963 31.0852 75.8049 31.0852C75.3588 31.0852 74.9668 30.9829 74.6287 30.7784C74.2906 30.5738 74.0279 30.2883 73.8404 29.9218C73.6529 29.5525 73.5577 29.1207 73.5549 28.6264V24.4545H75.6387V28.2173C75.6415 28.5724 75.7352 28.8522 75.9199 29.0568C76.1046 29.2613 76.356 29.3636 76.6742 29.3636C76.8816 29.3636 77.0676 29.3182 77.2324 29.2272C77.4 29.1335 77.5321 28.9986 77.6287 28.8224C77.7281 28.6434 77.7779 28.4275 77.7779 28.1747ZM81.1838 31V22.2727H83.2676V25.5753H83.3102C83.3954 25.3764 83.5161 25.1846 83.6724 25C83.8315 24.8153 84.0332 24.6647 84.2775 24.5483C84.5247 24.429 84.8201 24.3693 85.1639 24.3693C85.6184 24.3693 86.0431 24.4886 86.438 24.7272C86.8357 24.9659 87.1568 25.3338 87.4011 25.8309C87.6454 26.3281 87.7676 26.9616 87.7676 27.7315C87.7676 28.473 87.6497 29.0937 87.4139 29.5937C87.1809 30.0937 86.8656 30.4687 86.4678 30.7187C86.073 30.9687 85.634 31.0937 85.1511 31.0937C84.8215 31.0937 84.536 31.0397 84.2945 30.9318C84.0531 30.8238 83.8499 30.6818 83.6852 30.5057C83.5232 30.3295 83.3982 30.1406 83.3102 29.9389H83.2463V31H81.1838ZM83.2249 27.7272C83.2249 28.0795 83.2718 28.3863 83.3656 28.6477C83.4622 28.9091 83.5999 29.1122 83.7789 29.2571C83.9607 29.3991 84.1781 29.4701 84.4309 29.4701C84.6866 29.4701 84.9039 29.3991 85.0829 29.2571C85.2619 29.1122 85.3968 28.9091 85.4877 28.6477C85.5815 28.3863 85.6284 28.0795 85.6284 27.7272C85.6284 27.375 85.5815 27.0696 85.4877 26.8111C85.3968 26.5525 85.2619 26.3522 85.0829 26.2102C84.9068 26.0682 84.6894 25.9971 84.4309 25.9971C84.1752 25.9971 83.9579 26.0667 83.7789 26.2059C83.5999 26.3451 83.4622 26.544 83.3656 26.8025C83.2718 27.0611 83.2249 27.3693 83.2249 27.7272Z" fill="white"/>
</g>
<rect x="0.749817" y="0.749985" width="118.5" height="38.5" rx="5.25" stroke="white" stroke-opacity="0.15" stroke-width="1.5"/>
<defs>
<filter id="filter0_d_28_641" x="5.99982" y="1.99998" width="36" height="36" filterUnits="userSpaceOnUse" color-interpolation-filters="sRGB">
<feFlood flood-opacity="0" result="BackgroundImageFix"/>
<feColorMatrix in="SourceAlpha" type="matrix" values="0 0 0 0 0 0 0 0 0 0 0 0 0 0 0 0 0 0 127 0" result="hardAlpha"/>
<feOffset/>
<feGaussianBlur stdDeviation="2"/>
<feComposite in2="hardAlpha" operator="out"/>
<feColorMatrix type="matrix" values="0 0 0 0 0 0 0 0 0 0 0 0 0 0 0 0 0 0 0.25 0"/>
<feBlend mode="normal" in2="BackgroundImageFix" result="effect1_dropShadow_28_641"/>
<feBlend mode="normal" in="SourceGraphic" in2="effect1_dropShadow_28_641" result="shape"/>
</filter>
<filter id="filter1_d_28_641" x="41.9998" y="2.99998" width="71.9999" height="34" filterUnits="userSpaceOnUse" color-interpolation-filters="sRGB">
<feFlood flood-opacity="0" result="BackgroundImageFix"/>
<feColorMatrix in="SourceAlpha" type="matrix" values="0 0 0 0 0 0 0 0 0 0 0 0 0 0 0 0 0 0 127 0" result="hardAlpha"/>
<feOffset/>
<feGaussianBlur stdDeviation="2"/>
<feComposite in2="hardAlpha" operator="out"/>
<feColorMatrix type="matrix" values="0 0 0 0 0 0 0 0 0 0 0 0 0 0 0 0 0 0 0.25 0"/>
<feBlend mode="normal" in2="BackgroundImageFix" result="effect1_dropShadow_28_641"/>
<feBlend mode="normal" in="SourceGraphic" in2="effect1_dropShadow_28_641" result="shape"/>
</filter>
<linearGradient id="paint0_linear_28_641" x1="59.9998" y1="-1.52588e-05" x2="59.9998" y2="40" gradientUnits="userSpaceOnUse">
<stop stop-color="#2B2B2B"/>
<stop offset="1" stop-color="#1C1C1C"/>
</linearGradient>
</defs>
</svg>
