<svg width="176" height="56" viewBox="0 0 176 56" fill="none" xmlns="http://www.w3.org/2000/svg">
<rect y="-0.00012207" width="176" height="56" rx="8" fill="url(#paint0_linear_28_559)"/>
<g filter="url(#filter0_d_28_559)">
<path d="M30.7745 27.105L13.5824 44.6846C13.7754 45.3524 14.1223 45.9682 14.5966 46.4851C15.0709 47.002 15.66 47.4061 16.3189 47.6667C16.9778 47.9273 17.689 48.0375 18.3981 47.9887C19.1073 47.9399 19.7956 47.7335 20.4105 47.3853L39.7548 36.6325L30.7745 27.105Z" fill="#EA4335"/>
<path d="M48.1587 24.1168L39.7933 19.4406L30.3773 27.5052L39.8317 36.6075L48.1331 31.9813C48.8685 31.6055 49.4846 31.0404 49.9144 30.3472C50.3442 29.6541 50.5714 28.8593 50.5714 28.0491C50.5714 27.2388 50.3442 26.4441 49.9144 25.7509C49.4846 25.0577 48.8685 24.4926 48.1331 24.1168H48.1587Z" fill="#FBBC04"/>
<path d="M13.5824 11.3258C13.4784 11.7008 13.4267 12.0877 13.4286 12.4761V43.5343C13.4297 43.9225 13.4813 44.3091 13.5824 44.6846L31.3638 27.5551L13.5824 11.3258Z" fill="#4285F4"/>
<path d="M30.9026 28.0052L39.7933 19.4405L20.4746 8.63765C19.7478 8.22221 18.9212 8.00219 18.079 7.99998C17.0618 7.99801 16.0718 8.32072 15.26 8.91892C14.4482 9.51712 13.859 10.358 13.5824 11.3133L30.9026 28.0052Z" fill="#34A853"/>
</g>
<g filter="url(#filter1_d_28_559)">
<path d="M66.2613 24.4999H64.3977L68.5852 12.8635H70.6136L74.8011 24.4999H72.9375L69.6477 14.9771H69.5568L66.2613 24.4999ZM66.5738 19.9431H72.6193V21.4203H66.5738V19.9431ZM82.7173 15.7726L79.5525 24.4999H77.7343L74.5639 15.7726H76.3878L78.598 22.4885H78.6889L80.8934 15.7726H82.7173ZM86.6037 24.6931C86.0506 24.6931 85.5506 24.5908 85.1037 24.3862C84.6567 24.1779 84.3025 23.8768 84.0412 23.4828C83.7836 23.0889 83.6548 22.6059 83.6548 22.034C83.6548 21.5415 83.7495 21.1362 83.9389 20.8181C84.1283 20.4999 84.384 20.248 84.7059 20.0624C85.0279 19.8768 85.3877 19.7366 85.7855 19.6419C86.1832 19.5472 86.5885 19.4753 87.0014 19.426C87.5241 19.3654 87.9484 19.3162 88.2741 19.2783C88.5999 19.2366 88.8366 19.1703 88.9843 19.0794C89.1321 18.9885 89.2059 18.8408 89.2059 18.6362V18.5965C89.2059 18.1003 89.0658 17.7158 88.7855 17.4431C88.509 17.1703 88.0961 17.034 87.5468 17.034C86.9749 17.034 86.5241 17.1609 86.1946 17.4146C85.8688 17.6646 85.6434 17.9431 85.5184 18.2499L83.9218 17.8862C84.1112 17.3559 84.3877 16.9279 84.7514 16.6021C85.1188 16.2726 85.5412 16.034 86.0184 15.8862C86.4957 15.7347 86.9976 15.659 87.5241 15.659C87.8726 15.659 88.2419 15.7006 88.6321 15.784C89.026 15.8635 89.3934 16.0112 89.7343 16.2271C90.079 16.4431 90.3612 16.7518 90.5809 17.1533C90.8006 17.551 90.9105 18.0681 90.9105 18.7044V24.4999H89.2514V23.3067H89.1832C89.0734 23.5264 88.9086 23.7423 88.6889 23.9544C88.4692 24.1665 88.187 24.3427 87.8423 24.4828C87.4976 24.623 87.0847 24.6931 86.6037 24.6931ZM86.973 23.3294C87.4427 23.3294 87.8442 23.2366 88.1775 23.051C88.5146 22.8654 88.7703 22.623 88.9446 22.3237C89.1226 22.0207 89.2116 21.6968 89.2116 21.3521V20.2271C89.151 20.2878 89.0336 20.3446 88.8593 20.3976C88.6889 20.4468 88.4938 20.4904 88.2741 20.5283C88.0544 20.5624 87.8404 20.5946 87.6321 20.6249C87.4237 20.6514 87.2495 20.6741 87.1093 20.6931C86.7798 20.7347 86.4787 20.8048 86.2059 20.9033C85.937 21.0018 85.7211 21.1438 85.5582 21.3294C85.3991 21.5112 85.3196 21.7537 85.3196 22.0567C85.3196 22.4771 85.4749 22.7953 85.7855 23.0112C86.0961 23.2234 86.4919 23.3294 86.973 23.3294ZM93.1733 24.4999V15.7726H94.8721V24.4999H93.1733ZM94.0312 14.426C93.7358 14.426 93.482 14.3275 93.2698 14.1306C93.0615 13.9298 92.9573 13.6912 92.9573 13.4146C92.9573 13.1343 93.0615 12.8957 93.2698 12.6987C93.482 12.498 93.7358 12.3976 94.0312 12.3976C94.3267 12.3976 94.5786 12.498 94.7869 12.6987C94.999 12.8957 95.1051 13.1343 95.1051 13.4146C95.1051 13.6912 94.999 13.9298 94.7869 14.1306C94.5786 14.3275 94.3267 14.426 94.0312 14.426ZM98.8565 12.8635V24.4999H97.1576V12.8635H98.8565ZM103.682 24.6931C103.129 24.6931 102.629 24.5908 102.182 24.3862C101.735 24.1779 101.381 23.8768 101.119 23.4828C100.862 23.0889 100.733 22.6059 100.733 22.034C100.733 21.5415 100.828 21.1362 101.017 20.8181C101.206 20.4999 101.462 20.248 101.784 20.0624C102.106 19.8768 102.466 19.7366 102.864 19.6419C103.261 19.5472 103.667 19.4753 104.08 19.426C104.602 19.3654 105.026 19.3162 105.352 19.2783C105.678 19.2366 105.915 19.1703 106.062 19.0794C106.21 18.9885 106.284 18.8408 106.284 18.6362V18.5965C106.284 18.1003 106.144 17.7158 105.864 17.4431C105.587 17.1703 105.174 17.034 104.625 17.034C104.053 17.034 103.602 17.1609 103.273 17.4146C102.947 17.6646 102.722 17.9431 102.597 18.2499L101 17.8862C101.189 17.3559 101.466 16.9279 101.83 16.6021C102.197 16.2726 102.619 16.034 103.097 15.8862C103.574 15.7347 104.076 15.659 104.602 15.659C104.951 15.659 105.32 15.7006 105.71 15.784C106.104 15.8635 106.472 16.0112 106.812 16.2271C107.157 16.4431 107.439 16.7518 107.659 17.1533C107.879 17.551 107.989 18.0681 107.989 18.7044V24.4999H106.33V23.3067H106.261C106.151 23.5264 105.987 23.7423 105.767 23.9544C105.547 24.1665 105.265 24.3427 104.92 24.4828C104.576 24.623 104.163 24.6931 103.682 24.6931ZM104.051 23.3294C104.521 23.3294 104.922 23.2366 105.256 23.051C105.593 22.8654 105.848 22.623 106.023 22.3237C106.201 22.0207 106.29 21.6968 106.29 21.3521V20.2271C106.229 20.2878 106.112 20.3446 105.937 20.3976C105.767 20.4468 105.572 20.4904 105.352 20.5283C105.133 20.5624 104.919 20.5946 104.71 20.6249C104.502 20.6514 104.328 20.6741 104.187 20.6931C103.858 20.7347 103.557 20.8048 103.284 20.9033C103.015 21.0018 102.799 21.1438 102.636 21.3294C102.477 21.5112 102.398 21.7537 102.398 22.0567C102.398 22.4771 102.553 22.7953 102.864 23.0112C103.174 23.2234 103.57 23.3294 104.051 23.3294ZM110.388 24.4999V12.8635H112.087V17.1874H112.189C112.287 17.0056 112.429 16.7953 112.615 16.5567C112.801 16.3181 113.058 16.1097 113.388 15.9317C113.717 15.7499 114.153 15.659 114.695 15.659C115.399 15.659 116.028 15.837 116.581 16.1931C117.134 16.5491 117.568 17.0624 117.882 17.7328C118.2 18.4033 118.359 19.2101 118.359 20.1533C118.359 21.0965 118.202 21.9052 117.888 22.5794C117.573 23.2499 117.142 23.7669 116.592 24.1306C116.043 24.4904 115.416 24.6703 114.712 24.6703C114.181 24.6703 113.748 24.5813 113.41 24.4033C113.077 24.2253 112.816 24.0169 112.626 23.7783C112.437 23.5396 112.291 23.3275 112.189 23.1419H112.047V24.4999H110.388ZM112.053 20.1362C112.053 20.7499 112.142 21.2878 112.32 21.7499C112.498 22.212 112.755 22.5737 113.092 22.8351C113.429 23.0927 113.842 23.2215 114.331 23.2215C114.838 23.2215 115.263 23.087 115.604 22.8181C115.945 22.5453 116.202 22.176 116.376 21.7101C116.554 21.2442 116.643 20.7196 116.643 20.1362C116.643 19.5605 116.556 19.0434 116.382 18.5851C116.212 18.1268 115.954 17.765 115.609 17.4999C115.268 17.2347 114.842 17.1021 114.331 17.1021C113.838 17.1021 113.422 17.229 113.081 17.4828C112.744 17.7366 112.488 18.0908 112.314 18.5453C112.14 18.9999 112.053 19.5302 112.053 20.1362ZM121.966 12.8635V24.4999H120.267V12.8635H121.966ZM128.013 24.676C127.153 24.676 126.412 24.4923 125.791 24.1249C125.174 23.7537 124.696 23.2328 124.359 22.5624C124.026 21.8881 123.859 21.0984 123.859 20.1931C123.859 19.2991 124.026 18.5112 124.359 17.8294C124.696 17.1476 125.166 16.6154 125.768 16.2328C126.374 15.8503 127.083 15.659 127.893 15.659C128.386 15.659 128.863 15.7404 129.325 15.9033C129.787 16.0662 130.202 16.3218 130.57 16.6703C130.937 17.0188 131.227 17.4715 131.439 18.0283C131.651 18.5813 131.757 19.2537 131.757 20.0453V20.6476H124.82V19.3749H130.092C130.092 18.9279 130.001 18.5321 129.82 18.1874C129.638 17.8389 129.382 17.5643 129.053 17.3635C128.727 17.1628 128.344 17.0624 127.905 17.0624C127.428 17.0624 127.011 17.1798 126.655 17.4146C126.303 17.6457 126.03 17.9487 125.837 18.3237C125.647 18.695 125.553 19.0984 125.553 19.534V20.5283C125.553 21.1116 125.655 21.6078 125.859 22.0169C126.068 22.426 126.357 22.7385 126.729 22.9544C127.1 23.1665 127.534 23.2726 128.03 23.2726C128.352 23.2726 128.645 23.2271 128.91 23.1362C129.176 23.0415 129.405 22.9014 129.598 22.7158C129.791 22.5302 129.939 22.301 130.041 22.0283L131.649 22.3181C131.52 22.7915 131.289 23.2063 130.956 23.5624C130.626 23.9146 130.212 24.1893 129.712 24.3862C129.215 24.5794 128.649 24.676 128.013 24.676ZM141.553 24.676C140.734 24.676 140.02 24.4885 139.41 24.1135C138.801 23.7385 138.327 23.2139 137.99 22.5396C137.653 21.8654 137.484 21.0775 137.484 20.176C137.484 19.2707 137.653 18.479 137.99 17.801C138.327 17.123 138.801 16.5965 139.41 16.2215C140.02 15.8465 140.734 15.659 141.553 15.659C142.371 15.659 143.085 15.8465 143.695 16.2215C144.304 16.5965 144.778 17.123 145.115 17.801C145.452 18.479 145.621 19.2707 145.621 20.176C145.621 21.0775 145.452 21.8654 145.115 22.5396C144.778 23.2139 144.304 23.7385 143.695 24.1135C143.085 24.4885 142.371 24.676 141.553 24.676ZM141.558 23.2499C142.088 23.2499 142.528 23.1097 142.876 22.8294C143.225 22.5491 143.482 22.176 143.649 21.7101C143.82 21.2442 143.905 20.7309 143.905 20.1703C143.905 19.6135 143.82 19.1021 143.649 18.6362C143.482 18.1665 143.225 17.7896 142.876 17.5056C142.528 17.2215 142.088 17.0794 141.558 17.0794C141.024 17.0794 140.581 17.2215 140.229 17.5056C139.88 17.7896 139.621 18.1665 139.45 18.6362C139.284 19.1021 139.2 19.6135 139.2 20.1703C139.2 20.7309 139.284 21.2442 139.45 21.7101C139.621 22.176 139.88 22.5491 140.229 22.8294C140.581 23.1097 141.024 23.2499 141.558 23.2499ZM149.216 19.3181V24.4999H147.517V15.7726H149.148V17.1931H149.256C149.456 16.7309 149.771 16.3597 150.199 16.0794C150.631 15.7991 151.174 15.659 151.829 15.659C152.424 15.659 152.945 15.784 153.392 16.034C153.839 16.2802 154.186 16.6476 154.432 17.1362C154.678 17.6249 154.801 18.229 154.801 18.9487V24.4999H153.102V19.1533C153.102 18.5207 152.937 18.0264 152.608 17.6703C152.278 17.3105 151.826 17.1306 151.25 17.1306C150.856 17.1306 150.506 17.2158 150.199 17.3862C149.896 17.5567 149.655 17.8067 149.477 18.1362C149.303 18.462 149.216 18.8559 149.216 19.3181Z" fill="#E8E8E8"/>
<path d="M73.0493 35.1749C72.9809 34.9214 72.8803 34.698 72.7475 34.5048C72.6147 34.3076 72.4517 34.1406 72.2585 34.0038C72.0653 33.8669 71.844 33.7643 71.5944 33.6959C71.3449 33.6235 71.0712 33.5872 70.7734 33.5872C70.1737 33.5872 69.6546 33.7321 69.2159 34.0219C68.7812 34.3117 68.4452 34.7343 68.2077 35.2896C67.9703 35.841 67.8515 36.5111 67.8515 37.2999C67.8515 38.0928 67.9662 38.7689 68.1956 39.3284C68.425 39.8878 68.7571 40.3144 69.1917 40.6082C69.6264 40.902 70.1536 41.0489 70.7734 41.0489C71.3208 41.0489 71.7836 40.9603 72.1619 40.7833C72.5442 40.6021 72.834 40.3466 73.0312 40.0166C73.2284 39.6865 73.327 39.2982 73.327 38.8514L73.8824 38.9178H70.876V36.7385H76.2066V38.3745C76.2066 39.4813 75.9712 40.4291 75.5003 41.2179C75.0335 42.0067 74.3895 42.6124 73.5685 43.035C72.7515 43.4576 71.8118 43.6689 70.7493 43.6689C69.57 43.6689 68.5337 43.4133 67.6402 42.9022C66.7468 42.3911 66.0505 41.6626 65.5515 40.7168C65.0524 39.767 64.8029 38.6401 64.8029 37.3362C64.8029 36.322 64.9538 35.4225 65.2557 34.6377C65.5575 33.8488 65.9781 33.1807 66.5174 32.6334C67.0607 32.0861 67.6885 31.6715 68.4009 31.3898C69.1173 31.1081 69.888 30.9672 70.713 30.9672C71.4294 30.9672 72.0955 31.0698 72.7113 31.2751C73.3311 31.4803 73.8784 31.7701 74.3533 32.1444C74.8322 32.5187 75.2206 32.9634 75.5184 33.4786C75.8163 33.9937 76.0014 34.5592 76.0738 35.1749H73.0493ZM82.2964 43.6749C81.3224 43.6749 80.4853 43.4757 79.785 43.0773C79.0888 42.6748 78.5515 42.1154 78.1732 41.399C77.7989 40.6786 77.6117 39.8435 77.6117 38.8937C77.6117 37.9399 77.7989 37.1048 78.1732 36.3884C78.5515 35.668 79.0888 35.1085 79.785 34.7101C80.4853 34.3076 81.3224 34.1064 82.2964 34.1064C83.2704 34.1064 84.1055 34.3076 84.8017 34.7101C85.502 35.1085 86.0393 35.668 86.4136 36.3884C86.7919 37.1048 86.9811 37.9399 86.9811 38.8937C86.9811 39.8435 86.7919 40.6786 86.4136 41.399C86.0393 42.1154 85.502 42.6748 84.8017 43.0773C84.1055 43.4757 83.2704 43.6749 82.2964 43.6749ZM82.3145 41.4473C82.6687 41.4473 82.9685 41.3387 83.214 41.1213C83.4595 40.904 83.6467 40.6021 83.7754 40.2158C83.9083 39.8294 83.9747 39.3827 83.9747 38.8756C83.9747 38.3604 83.9083 37.9097 83.7754 37.5233C83.6467 37.1369 83.4595 36.8351 83.214 36.6178C82.9685 36.4004 82.6687 36.2918 82.3145 36.2918C81.9483 36.2918 81.6384 36.4004 81.3848 36.6178C81.1353 36.8351 80.9441 37.1369 80.8113 37.5233C80.6825 37.9097 80.6181 38.3604 80.6181 38.8756C80.6181 39.3827 80.6825 39.8294 80.8113 40.2158C80.9441 40.6021 81.1353 40.904 81.3848 41.1213C81.6384 41.3387 81.9483 41.4473 82.3145 41.4473ZM92.8218 43.6749C91.8478 43.6749 91.0107 43.4757 90.3104 43.0773C89.6142 42.6748 89.0769 42.1154 88.6986 41.399C88.3243 40.6786 88.1371 39.8435 88.1371 38.8937C88.1371 37.9399 88.3243 37.1048 88.6986 36.3884C89.0769 35.668 89.6142 35.1085 90.3104 34.7101C91.0107 34.3076 91.8478 34.1064 92.8218 34.1064C93.7957 34.1064 94.6308 34.3076 95.3271 34.7101C96.0274 35.1085 96.5647 35.668 96.939 36.3884C97.3173 37.1048 97.5064 37.9399 97.5064 38.8937C97.5064 39.8435 97.3173 40.6786 96.939 41.399C96.5647 42.1154 96.0274 42.6748 95.3271 43.0773C94.6308 43.4757 93.7957 43.6749 92.8218 43.6749ZM92.8399 41.4473C93.1941 41.4473 93.4939 41.3387 93.7394 41.1213C93.9849 40.904 94.172 40.6021 94.3008 40.2158C94.4336 39.8294 94.5 39.3827 94.5 38.8756C94.5 38.3604 94.4336 37.9097 94.3008 37.5233C94.172 37.1369 93.9849 36.8351 93.7394 36.6178C93.4939 36.4004 93.1941 36.2918 92.8399 36.2918C92.4737 36.2918 92.1638 36.4004 91.9102 36.6178C91.6607 36.8351 91.4695 37.1369 91.3367 37.5233C91.2079 37.9097 91.1435 38.3604 91.1435 38.8756C91.1435 39.3827 91.2079 39.8294 91.3367 40.2158C91.4695 40.6021 91.6607 40.904 91.9102 41.1213C92.1638 41.3387 92.4737 41.4473 92.8399 41.4473ZM103.341 47.1703C102.46 47.1703 101.705 47.0476 101.077 46.8021C100.449 46.5566 99.9564 46.2205 99.5982 45.7939C99.24 45.3673 99.0247 44.8843 98.9523 44.345L101.747 44.1881C101.8 44.3772 101.896 44.5423 102.037 44.6831C102.182 44.824 102.369 44.9326 102.599 45.0091C102.832 45.0856 103.106 45.1238 103.42 45.1238C103.915 45.1238 104.323 45.0031 104.645 44.7616C104.971 44.5241 105.134 44.1076 105.134 43.5119V41.882H105.031C104.915 42.1677 104.738 42.4233 104.5 42.6487C104.263 42.874 103.967 43.0511 103.613 43.1799C103.263 43.3087 102.86 43.3731 102.405 43.3731C101.729 43.3731 101.109 43.2161 100.546 42.9022C99.9866 42.5843 99.5379 42.0933 99.1998 41.4292C98.8658 40.7611 98.6987 39.9019 98.6987 38.8514C98.6987 37.7688 98.8718 36.8774 99.2179 36.1771C99.564 35.4728 100.017 34.9516 100.576 34.6135C101.14 34.2754 101.745 34.1064 102.393 34.1064C102.88 34.1064 103.297 34.1909 103.643 34.36C103.993 34.525 104.281 34.7383 104.506 34.9999C104.732 35.2615 104.903 35.5331 105.019 35.8149H105.104V34.2271H108.044V43.5361C108.044 44.3209 107.847 44.9829 107.452 45.5222C107.058 46.0615 106.506 46.47 105.798 46.7477C105.09 47.0295 104.271 47.1703 103.341 47.1703ZM103.432 41.224C103.79 41.224 104.096 41.1294 104.349 40.9402C104.603 40.7511 104.798 40.4794 104.935 40.1252C105.072 39.7711 105.14 39.3465 105.14 38.8514C105.14 38.3484 105.072 37.9157 104.935 37.5535C104.802 37.1873 104.607 36.9055 104.349 36.7083C104.096 36.5111 103.79 36.4125 103.432 36.4125C103.065 36.4125 102.756 36.5131 102.502 36.7144C102.248 36.9156 102.055 37.1993 101.922 37.5656C101.794 37.9278 101.729 38.3564 101.729 38.8514C101.729 39.3465 101.796 39.7711 101.928 40.1252C102.061 40.4794 102.252 40.7511 102.502 40.9402C102.756 41.1294 103.065 41.224 103.432 41.224ZM112.878 31.1362V43.4999H109.926V31.1362H112.878ZM119.091 43.6749C118.122 43.6749 117.284 43.4838 116.58 43.1014C115.88 42.7151 115.341 42.1657 114.962 41.4534C114.588 40.737 114.401 39.8858 114.401 38.8997C114.401 37.9419 114.59 37.1048 114.968 36.3884C115.347 35.668 115.88 35.1085 116.568 34.7101C117.256 34.3076 118.067 34.1064 119.001 34.1064C119.661 34.1064 120.265 34.209 120.812 34.4143C121.359 34.6195 121.832 34.9234 122.231 35.3259C122.629 35.7283 122.939 36.2254 123.16 36.817C123.382 37.4046 123.492 38.0787 123.492 38.8394V39.5759H115.433V37.8614H120.746C120.742 37.5475 120.667 37.2677 120.522 37.0222C120.377 36.7767 120.178 36.5856 119.925 36.4487C119.675 36.3079 119.387 36.2374 119.061 36.2374C118.731 36.2374 118.435 36.3119 118.174 36.4608C117.912 36.6057 117.705 36.8049 117.552 37.0585C117.399 37.308 117.319 37.5917 117.311 37.9097V39.6543C117.311 40.0327 117.385 40.3647 117.534 40.6504C117.683 40.9322 117.894 41.1515 118.168 41.3085C118.442 41.4654 118.768 41.5439 119.146 41.5439C119.407 41.5439 119.645 41.5077 119.858 41.4352C120.071 41.3628 120.255 41.2561 120.408 41.1153C120.56 40.9744 120.675 40.8014 120.752 40.5961L123.462 40.6746C123.35 41.2823 123.102 41.8115 122.72 42.2623C122.341 42.709 121.844 43.0572 121.229 43.3067C120.613 43.5522 119.9 43.6749 119.091 43.6749ZM128.652 43.4999V31.1362H133.76C134.685 31.1362 135.484 31.3173 136.156 31.6796C136.833 32.0378 137.354 32.5388 137.72 33.1828C138.086 33.8227 138.269 34.5672 138.269 35.4164C138.269 36.2696 138.082 37.0162 137.708 37.6561C137.338 38.292 136.808 38.785 136.12 39.1352C135.432 39.4853 134.615 39.6604 133.669 39.6604H130.518V37.306H133.114C133.565 37.306 133.941 37.2275 134.243 37.0705C134.549 36.9136 134.78 36.6942 134.937 36.4125C135.094 36.1268 135.172 35.7947 135.172 35.4164C135.172 35.0341 135.094 34.7041 134.937 34.4264C134.78 34.1446 134.549 33.9273 134.243 33.7744C133.937 33.6214 133.56 33.545 133.114 33.545H131.641V43.4999H128.652ZM142.694 31.1362V43.4999H139.742V31.1362H142.694ZM147.187 43.6568C146.596 43.6568 146.071 43.5582 145.612 43.361C145.157 43.1598 144.797 42.8579 144.531 42.4555C144.27 42.049 144.139 41.5399 144.139 40.9281C144.139 40.413 144.229 39.9783 144.41 39.6242C144.591 39.27 144.841 38.9822 145.159 38.7609C145.477 38.5395 145.843 38.3725 146.258 38.2598C146.672 38.1431 147.115 38.0646 147.586 38.0244C148.113 37.9761 148.538 37.9258 148.86 37.8735C149.182 37.8171 149.415 37.7386 149.56 37.638C149.709 37.5334 149.783 37.3865 149.783 37.1973V37.1671C149.783 36.8572 149.677 36.6178 149.463 36.4487C149.25 36.2797 148.962 36.1952 148.6 36.1952C148.21 36.1952 147.896 36.2797 147.658 36.4487C147.421 36.6178 147.27 36.8512 147.205 37.149L144.483 37.0524C144.563 36.489 144.771 35.9859 145.105 35.5432C145.443 35.0965 145.906 34.7463 146.493 34.4928C147.085 34.2352 147.795 34.1064 148.624 34.1064C149.216 34.1064 149.761 34.1768 150.26 34.3177C150.759 34.4545 151.194 34.6558 151.564 34.9214C151.934 35.183 152.22 35.505 152.421 35.8873C152.627 36.2696 152.729 36.7063 152.729 37.1973V43.4999H149.952V42.208H149.88C149.715 42.5219 149.504 42.7875 149.246 43.0048C148.992 43.2222 148.693 43.3852 148.346 43.4938C148.004 43.6025 147.618 43.6568 147.187 43.6568ZM148.099 41.725C148.417 41.725 148.703 41.6606 148.956 41.5318C149.214 41.403 149.419 41.226 149.572 41.0006C149.725 40.7712 149.801 40.5056 149.801 40.2037V39.3223C149.717 39.3666 149.614 39.4068 149.493 39.4431C149.377 39.4793 149.248 39.5135 149.107 39.5457C148.966 39.5779 148.821 39.6061 148.672 39.6302C148.524 39.6543 148.381 39.6765 148.244 39.6966C147.966 39.7409 147.729 39.8093 147.531 39.9019C147.338 39.9944 147.189 40.1152 147.085 40.2641C146.984 40.409 146.934 40.582 146.934 40.7833C146.934 41.0891 147.042 41.3226 147.26 41.4835C147.481 41.6445 147.761 41.725 148.099 41.725ZM156.007 46.9771C155.653 46.9771 155.319 46.949 155.005 46.8926C154.691 46.8403 154.422 46.7699 154.196 46.6813L154.848 44.5382C155.138 44.6348 155.4 44.6912 155.633 44.7073C155.87 44.7234 156.074 44.6851 156.243 44.5926C156.416 44.504 156.549 44.345 156.641 44.1156L156.756 43.8379L153.46 34.2271H156.551L158.259 40.8436H158.356L160.088 34.2271H163.197L159.702 44.3873C159.533 44.8944 159.293 45.3411 158.984 45.7275C158.678 46.1179 158.281 46.4238 157.794 46.6451C157.311 46.8665 156.716 46.9771 156.007 46.9771Z" fill="url(#paint1_linear_28_559)"/>
</g>
<rect x="1.05" y="1.04988" width="173.9" height="53.9" rx="6.95" stroke="white" stroke-opacity="0.15" stroke-width="2.1"/>
<defs>
<filter id="filter0_d_28_559" x="6.28571" y="2.28559" width="51.4286" height="51.4286" filterUnits="userSpaceOnUse" color-interpolation-filters="sRGB">
<feFlood flood-opacity="0" result="BackgroundImageFix"/>
<feColorMatrix in="SourceAlpha" type="matrix" values="0 0 0 0 0 0 0 0 0 0 0 0 0 0 0 0 0 0 127 0" result="hardAlpha"/>
<feOffset/>
<feGaussianBlur stdDeviation="2.85714"/>
<feComposite in2="hardAlpha" operator="out"/>
<feColorMatrix type="matrix" values="0 0 0 0 0 0 0 0 0 0 0 0 0 0 0 0 0 0 0.25 0"/>
<feBlend mode="normal" in2="BackgroundImageFix" result="effect1_dropShadow_28_559"/>
<feBlend mode="normal" in="SourceGraphic" in2="effect1_dropShadow_28_559" result="shape"/>
</filter>
<filter id="filter1_d_28_559" x="58.4" y="3.89988" width="111.2" height="48.8704" filterUnits="userSpaceOnUse" color-interpolation-filters="sRGB">
<feFlood flood-opacity="0" result="BackgroundImageFix"/>
<feColorMatrix in="SourceAlpha" type="matrix" values="0 0 0 0 0 0 0 0 0 0 0 0 0 0 0 0 0 0 127 0" result="hardAlpha"/>
<feOffset/>
<feGaussianBlur stdDeviation="2.8"/>
<feComposite in2="hardAlpha" operator="out"/>
<feColorMatrix type="matrix" values="0 0 0 0 0 0 0 0 0 0 0 0 0 0 0 0 0 0 0.25 0"/>
<feBlend mode="normal" in2="BackgroundImageFix" result="effect1_dropShadow_28_559"/>
<feBlend mode="normal" in="SourceGraphic" in2="effect1_dropShadow_28_559" result="shape"/>
</filter>
<linearGradient id="paint0_linear_28_559" x1="88" y1="-0.00012207" x2="88" y2="55.9999" gradientUnits="userSpaceOnUse">
<stop stop-color="#00171C"/>
<stop offset="0.333333" stop-color="#0A1209"/>
<stop offset="0.666667" stop-color="#100F06"/>
<stop offset="1" stop-color="#1A0000"/>
</linearGradient>
<linearGradient id="paint1_linear_28_559" x1="64" y1="28.4999" x2="164" y2="28.4999" gradientUnits="userSpaceOnUse">
<stop stop-color="#5991EE"/>
<stop offset="0.333333" stop-color="#56AB6C"/>
<stop offset="0.666667" stop-color="#F5D26A"/>
<stop offset="1" stop-color="#EB786F"/>
</linearGradient>
</defs>
</svg>
