<svg width="127" height="40" viewBox="0 0 127 40" fill="none" xmlns="http://www.w3.org/2000/svg">
<rect y="-6.10352e-05" width="127" height="40" rx="6" fill="url(#paint0_linear_28_559)"/>
<g filter="url(#filter0_d_28_559)">
<path d="M23.1421 19.3735L11.1076 31.6793C11.2428 32.1467 11.4856 32.5778 11.8176 32.9396C12.1496 33.3014 12.562 33.5843 13.0232 33.7668C13.4844 33.9492 13.9822 34.0263 14.4787 33.9921C14.9751 33.958 15.4569 33.8135 15.8873 33.5698L29.4284 26.0428L23.1421 19.3735Z" fill="#EA4335"/>
<path d="M35.3111 17.2818L29.4553 14.0084L22.8641 19.6537L29.4822 26.0253L35.2931 22.787C35.808 22.5239 36.2392 22.1283 36.5401 21.6431C36.8409 21.1579 37 20.6015 37 20.0344C37 19.4672 36.8409 18.9109 36.5401 18.4257C36.2392 17.9404 35.808 17.5449 35.2931 17.2818H35.3111Z" fill="#FBBC04"/>
<path d="M11.1076 8.32812C11.0349 8.5906 10.9987 8.86143 11 9.13334V30.874C11.0008 31.1458 11.0369 31.4164 11.1076 31.6792L23.5546 19.6886L11.1076 8.32812Z" fill="#4285F4"/>
<path d="M23.2318 20.0037L29.4553 14.0084L15.9322 6.44637C15.4234 6.15557 14.8448 6.00155 14.2553 6.00001C13.5432 5.99863 12.8502 6.22453 12.282 6.64326C11.7137 7.062 11.3013 7.65061 11.1076 8.31936L23.2318 20.0037Z" fill="#34A853"/>
</g>
<g filter="url(#filter1_d_28_559)">
<path d="M47.5547 17.9999H46.2734L49.1523 9.99994H50.5469L53.4258 17.9999H52.1445L49.8828 11.4531H49.8203L47.5547 17.9999ZM47.7695 14.8671H51.9258V15.8827H47.7695V14.8671ZM58.8682 11.9999L56.6924 17.9999H55.4424L53.2627 11.9999H54.5166L56.0361 16.6171H56.0986L57.6143 11.9999H58.8682ZM61.54 18.1327C61.1598 18.1327 60.8161 18.0624 60.5088 17.9218C60.2015 17.7786 59.958 17.5716 59.7783 17.3007C59.6012 17.0299 59.5127 16.6979 59.5127 16.3046C59.5127 15.9661 59.5778 15.6874 59.708 15.4687C59.8382 15.2499 60.014 15.0768 60.2353 14.9492C60.4567 14.8216 60.7041 14.7252 60.9775 14.6601C61.251 14.595 61.5296 14.5455 61.8135 14.5117C62.1728 14.47 62.4645 14.4361 62.6885 14.4101C62.9124 14.3814 63.0752 14.3359 63.1768 14.2734C63.2783 14.2109 63.3291 14.1093 63.3291 13.9687V13.9413C63.3291 13.6002 63.2327 13.3359 63.04 13.1484C62.8499 12.9609 62.5661 12.8671 62.1885 12.8671C61.7952 12.8671 61.4853 12.9544 61.2588 13.1288C61.0348 13.3007 60.8799 13.4921 60.7939 13.7031L59.6963 13.4531C59.8265 13.0885 60.0166 12.7942 60.2666 12.5702C60.5192 12.3437 60.8096 12.1796 61.1377 12.0781C61.4658 11.9739 61.8109 11.9218 62.1728 11.9218C62.4124 11.9218 62.6663 11.9505 62.9346 12.0078C63.2054 12.0624 63.458 12.164 63.6924 12.3124C63.9294 12.4609 64.1234 12.6731 64.2744 12.9492C64.4255 13.2226 64.501 13.5781 64.501 14.0156V17.9999H63.3603V17.1796H63.3135C63.238 17.3307 63.1247 17.4791 62.9736 17.6249C62.8226 17.7708 62.6286 17.8919 62.3916 17.9882C62.1546 18.0846 61.8708 18.1327 61.54 18.1327ZM61.7939 17.1952C62.1169 17.1952 62.3929 17.1314 62.6221 17.0038C62.8538 16.8762 63.0296 16.7096 63.1494 16.5038C63.2718 16.2955 63.333 16.0729 63.333 15.8359V15.0624C63.2913 15.1041 63.2106 15.1432 63.0908 15.1796C62.9736 15.2135 62.8395 15.2434 62.6885 15.2695C62.5374 15.2929 62.3903 15.315 62.2471 15.3359C62.1038 15.3541 61.984 15.3697 61.8877 15.3827C61.6611 15.4114 61.4541 15.4596 61.2666 15.5273C61.0817 15.595 60.9333 15.6926 60.8213 15.8202C60.7119 15.9452 60.6572 16.1119 60.6572 16.3202C60.6572 16.6093 60.764 16.8281 60.9775 16.9765C61.1911 17.1223 61.4632 17.1952 61.7939 17.1952ZM66.0566 17.9999V11.9999H67.2246V17.9999H66.0566ZM66.6465 11.0742C66.4434 11.0742 66.2689 11.0064 66.123 10.871C65.9798 10.733 65.9082 10.5689 65.9082 10.3788C65.9082 10.1861 65.9798 10.0221 66.123 9.88666C66.2689 9.74864 66.4434 9.67963 66.6465 9.67963C66.8496 9.67963 67.0228 9.74864 67.166 9.88666C67.3118 10.0221 67.3848 10.1861 67.3848 10.3788C67.3848 10.5689 67.3118 10.733 67.166 10.871C67.0228 11.0064 66.8496 11.0742 66.6465 11.0742ZM69.9639 9.99994V17.9999H68.7959V9.99994H69.9639ZM73.2812 18.1327C72.901 18.1327 72.5573 18.0624 72.25 17.9218C71.9427 17.7786 71.6992 17.5716 71.5195 17.3007C71.3424 17.0299 71.2539 16.6979 71.2539 16.3046C71.2539 15.9661 71.319 15.6874 71.4492 15.4687C71.5794 15.2499 71.7552 15.0768 71.9766 14.9492C72.1979 14.8216 72.4453 14.7252 72.7187 14.6601C72.9922 14.595 73.2708 14.5455 73.5547 14.5117C73.9141 14.47 74.2057 14.4361 74.4297 14.4101C74.6536 14.3814 74.8164 14.3359 74.918 14.2734C75.0195 14.2109 75.0703 14.1093 75.0703 13.9687V13.9413C75.0703 13.6002 74.9739 13.3359 74.7812 13.1484C74.5911 12.9609 74.3073 12.8671 73.9297 12.8671C73.5365 12.8671 73.2266 12.9544 73 13.1288C72.776 13.3007 72.6211 13.4921 72.5351 13.7031L71.4375 13.4531C71.5677 13.0885 71.7578 12.7942 72.0078 12.5702C72.2604 12.3437 72.5508 12.1796 72.8789 12.0781C73.207 11.9739 73.5521 11.9218 73.9141 11.9218C74.1536 11.9218 74.4075 11.9505 74.6758 12.0078C74.9466 12.0624 75.1992 12.164 75.4336 12.3124C75.6706 12.4609 75.8646 12.6731 76.0156 12.9492C76.1667 13.2226 76.2422 13.5781 76.2422 14.0156V17.9999H75.1016V17.1796H75.0547C74.9792 17.3307 74.8659 17.4791 74.7148 17.6249C74.5638 17.7708 74.3698 17.8919 74.1328 17.9882C73.8958 18.0846 73.612 18.1327 73.2812 18.1327ZM73.5351 17.1952C73.8581 17.1952 74.1341 17.1314 74.3633 17.0038C74.595 16.8762 74.7708 16.7096 74.8906 16.5038C75.013 16.2955 75.0742 16.0729 75.0742 15.8359V15.0624C75.0325 15.1041 74.9518 15.1432 74.832 15.1796C74.7148 15.2135 74.5807 15.2434 74.4297 15.2695C74.2786 15.2929 74.1315 15.315 73.9883 15.3359C73.845 15.3541 73.7253 15.3697 73.6289 15.3827C73.4023 15.4114 73.1953 15.4596 73.0078 15.5273C72.8229 15.595 72.6745 15.6926 72.5625 15.8202C72.4531 15.9452 72.3984 16.1119 72.3984 16.3202C72.3984 16.6093 72.5052 16.8281 72.7187 16.9765C72.9323 17.1223 73.2044 17.1952 73.5351 17.1952ZM77.8916 17.9999V9.99994H79.0596V12.9726H79.1299C79.1976 12.8476 79.2952 12.7031 79.4228 12.539C79.5504 12.3749 79.7275 12.2317 79.9541 12.1093C80.1807 11.9843 80.4801 11.9218 80.8525 11.9218C81.3369 11.9218 81.7692 12.0442 82.1494 12.289C82.5296 12.5338 82.8278 12.8867 83.0439 13.3476C83.2627 13.8085 83.3721 14.3632 83.3721 15.0117C83.3721 15.6601 83.264 16.2161 83.0478 16.6796C82.8317 17.1406 82.5348 17.496 82.1572 17.746C81.7796 17.9934 81.3486 18.1171 80.8642 18.1171C80.4997 18.1171 80.2015 18.0559 79.9697 17.9335C79.7405 17.8111 79.5609 17.6679 79.4307 17.5038C79.3004 17.3398 79.2002 17.1939 79.1299 17.0663H79.0322V17.9999H77.8916ZM79.0361 14.9999C79.0361 15.4218 79.0973 15.7916 79.2197 16.1093C79.3421 16.427 79.5192 16.6757 79.751 16.8554C79.9827 17.0325 80.2666 17.121 80.6025 17.121C80.9515 17.121 81.2432 17.0286 81.4775 16.8437C81.7119 16.6562 81.889 16.4023 82.0088 16.082C82.1312 15.7617 82.1924 15.401 82.1924 14.9999C82.1924 14.6041 82.1325 14.2486 82.0127 13.9335C81.8955 13.6184 81.7184 13.3697 81.4814 13.1874C81.2471 13.0051 80.9541 12.914 80.6025 12.914C80.264 12.914 79.9775 13.0012 79.7432 13.1757C79.5114 13.3502 79.3356 13.5937 79.2158 13.9062C79.096 14.2187 79.0361 14.5833 79.0361 14.9999ZM85.8516 9.99994V17.9999H84.6836V9.99994H85.8516ZM90.0088 18.121C89.4176 18.121 88.9085 17.9947 88.4814 17.7421C88.057 17.4869 87.7288 17.1288 87.4971 16.6679C87.2679 16.2044 87.1533 15.6614 87.1533 15.039C87.1533 14.4244 87.2679 13.8827 87.4971 13.414C87.7288 12.9452 88.0517 12.5794 88.4658 12.3163C88.8825 12.0533 89.3695 11.9218 89.9267 11.9218C90.2653 11.9218 90.5934 11.9778 90.9111 12.0898C91.2288 12.2018 91.514 12.3775 91.7666 12.6171C92.0192 12.8567 92.2184 13.1679 92.3642 13.5507C92.5101 13.9309 92.583 14.3932 92.583 14.9374V15.3515H87.8135V14.4765H91.4385C91.4385 14.1692 91.376 13.8971 91.251 13.6601C91.126 13.4205 90.9502 13.2317 90.7236 13.0937C90.4997 12.9557 90.2366 12.8867 89.9346 12.8867C89.6064 12.8867 89.32 12.9674 89.0752 13.1288C88.833 13.2877 88.6455 13.496 88.5127 13.7538C88.3825 14.0091 88.3174 14.2864 88.3174 14.5859V15.2695C88.3174 15.6705 88.3877 16.0117 88.5283 16.2929C88.6715 16.5742 88.8708 16.789 89.126 16.9374C89.3812 17.0833 89.6793 17.1562 90.0205 17.1562C90.2418 17.1562 90.4437 17.1249 90.626 17.0624C90.8083 16.9973 90.9658 16.901 91.0986 16.7734C91.2314 16.6458 91.333 16.4882 91.4033 16.3007L92.5088 16.4999C92.4202 16.8255 92.2614 17.1106 92.0322 17.3554C91.8057 17.5976 91.5205 17.7864 91.1767 17.9218C90.8356 18.0546 90.4463 18.121 90.0088 18.121ZM99.3174 18.121C98.7549 18.121 98.264 17.9921 97.8447 17.7343C97.4254 17.4765 97.0999 17.1158 96.8681 16.6523C96.6364 16.1887 96.5205 15.6471 96.5205 15.0273C96.5205 14.4049 96.6364 13.8606 96.8681 13.3945C97.0999 12.9283 97.4254 12.5663 97.8447 12.3085C98.264 12.0507 98.7549 11.9218 99.3174 11.9218C99.8799 11.9218 100.371 12.0507 100.79 12.3085C101.209 12.5663 101.535 12.9283 101.767 13.3945C101.998 13.8606 102.114 14.4049 102.114 15.0273C102.114 15.6471 101.998 16.1887 101.767 16.6523C101.535 17.1158 101.209 17.4765 100.79 17.7343C100.371 17.9921 99.8799 18.121 99.3174 18.121ZM99.3213 17.1406C99.6859 17.1406 99.9879 17.0442 100.228 16.8515C100.467 16.6588 100.644 16.4023 100.759 16.082C100.876 15.7617 100.935 15.4088 100.935 15.0234C100.935 14.6406 100.876 14.289 100.759 13.9687C100.644 13.6458 100.467 13.3867 100.228 13.1913C99.9879 12.996 99.6859 12.8984 99.3213 12.8984C98.9541 12.8984 98.6494 12.996 98.4072 13.1913C98.1676 13.3867 97.9892 13.6458 97.8721 13.9687C97.7575 14.289 97.7002 14.6406 97.7002 15.0234C97.7002 15.4088 97.7575 15.7617 97.8721 16.082C97.9892 16.4023 98.1676 16.6588 98.4072 16.8515C98.6494 17.0442 98.9541 17.1406 99.3213 17.1406ZM104.586 14.4374V17.9999H103.418V11.9999H104.539V12.9765H104.613C104.751 12.6588 104.967 12.4036 105.262 12.2109C105.559 12.0182 105.932 11.9218 106.383 11.9218C106.792 11.9218 107.15 12.0078 107.457 12.1796C107.764 12.3489 108.003 12.6015 108.172 12.9374C108.341 13.2734 108.426 13.6887 108.426 14.1835V17.9999H107.258V14.3242C107.258 13.8893 107.145 13.5494 106.918 13.3046C106.691 13.0572 106.38 12.9335 105.984 12.9335C105.714 12.9335 105.473 12.9921 105.262 13.1093C105.053 13.2265 104.888 13.3984 104.766 13.6249C104.646 13.8489 104.586 14.1197 104.586 14.4374Z" fill="#E8E8E8"/>
<path d="M52.3878 25.1235C52.3395 24.9445 52.2685 24.7869 52.1747 24.6505C52.081 24.5113 51.9659 24.3934 51.8295 24.2968C51.6932 24.2002 51.5369 24.1278 51.3608 24.0795C51.1847 24.0283 50.9915 24.0028 50.7812 24.0028C50.358 24.0028 49.9915 24.1051 49.6818 24.3096C49.375 24.5141 49.1378 24.8124 48.9702 25.2045C48.8026 25.5937 48.7187 26.0667 48.7187 26.6235C48.7187 27.1832 48.7997 27.6604 48.9616 28.0553C49.1236 28.4502 49.358 28.7514 49.6648 28.9587C49.9716 29.1661 50.3437 29.2698 50.7812 29.2698C51.1676 29.2698 51.4943 29.2073 51.7614 29.0823C52.0312 28.9545 52.2358 28.7741 52.375 28.5411C52.5142 28.3082 52.5838 28.034 52.5838 27.7187L52.9759 27.7656H50.8537V26.2272H54.6165V27.382C54.6165 28.1633 54.4503 28.8323 54.1179 29.3891C53.7884 29.946 53.3338 30.3735 52.7543 30.6718C52.1776 30.9701 51.5142 31.1193 50.7642 31.1193C49.9318 31.1193 49.2003 30.9389 48.5696 30.5781C47.9389 30.2173 47.4474 29.7031 47.0952 29.0354C46.7429 28.365 46.5668 27.5695 46.5668 26.6491C46.5668 25.9332 46.6733 25.2982 46.8864 24.7443C47.0994 24.1874 47.3963 23.7158 47.777 23.3295C48.1605 22.9431 48.6037 22.6505 49.1065 22.4516C49.6122 22.2528 50.1562 22.1533 50.7386 22.1533C51.2443 22.1533 51.7145 22.2258 52.1491 22.3707C52.5866 22.5156 52.973 22.7201 53.3082 22.9843C53.6463 23.2485 53.9205 23.5624 54.1307 23.9261C54.3409 24.2897 54.4716 24.6889 54.5227 25.1235H52.3878ZM58.9151 31.1235C58.2276 31.1235 57.6367 30.9829 57.1424 30.7016C56.6509 30.4175 56.2717 30.0227 56.0046 29.517C55.7404 29.0085 55.6083 28.419 55.6083 27.7485C55.6083 27.0752 55.7404 26.4857 56.0046 25.9801C56.2717 25.4715 56.6509 25.0766 57.1424 24.7954C57.6367 24.5113 58.2276 24.3693 58.9151 24.3693C59.6026 24.3693 60.1921 24.5113 60.6836 24.7954C61.1779 25.0766 61.5572 25.4715 61.8214 25.9801C62.0884 26.4857 62.2219 27.0752 62.2219 27.7485C62.2219 28.419 62.0884 29.0085 61.8214 29.517C61.5572 30.0227 61.1779 30.4175 60.6836 30.7016C60.1921 30.9829 59.6026 31.1235 58.9151 31.1235ZM58.9279 29.5511C59.1779 29.5511 59.3896 29.4744 59.5629 29.321C59.7361 29.1675 59.8682 28.9545 59.9592 28.6818C60.0529 28.409 60.0998 28.0937 60.0998 27.7357C60.0998 27.3721 60.0529 27.0539 59.9592 26.7812C59.8682 26.5085 59.7361 26.2954 59.5629 26.142C59.3896 25.9886 59.1779 25.9119 58.9279 25.9119C58.6694 25.9119 58.4506 25.9886 58.2717 26.142C58.0955 26.2954 57.9606 26.5085 57.8668 26.7812C57.7759 27.0539 57.7305 27.3721 57.7305 27.7357C57.7305 28.0937 57.7759 28.409 57.8668 28.6818C57.9606 28.9545 58.0955 29.1675 58.2717 29.321C58.4506 29.4744 58.6694 29.5511 58.9279 29.5511ZM66.3448 31.1235C65.6573 31.1235 65.0664 30.9829 64.5721 30.7016C64.0806 30.4175 63.7013 30.0227 63.4343 29.517C63.1701 29.0085 63.038 28.419 63.038 27.7485C63.038 27.0752 63.1701 26.4857 63.4343 25.9801C63.7013 25.4715 64.0806 25.0766 64.5721 24.7954C65.0664 24.5113 65.6573 24.3693 66.3448 24.3693C67.0323 24.3693 67.6218 24.5113 68.1133 24.7954C68.6076 25.0766 68.9869 25.4715 69.2511 25.9801C69.5181 26.4857 69.6516 27.0752 69.6516 27.7485C69.6516 28.419 69.5181 29.0085 69.2511 29.517C68.9869 30.0227 68.6076 30.4175 68.1133 30.7016C67.6218 30.9829 67.0323 31.1235 66.3448 31.1235ZM66.3576 29.5511C66.6076 29.5511 66.8192 29.4744 66.9925 29.321C67.1658 29.1675 67.2979 28.9545 67.3888 28.6818C67.4826 28.409 67.5295 28.0937 67.5295 27.7357C67.5295 27.3721 67.4826 27.0539 67.3888 26.7812C67.2979 26.5085 67.1658 26.2954 66.9925 26.142C66.8192 25.9886 66.6076 25.9119 66.3576 25.9119C66.0991 25.9119 65.8803 25.9886 65.7013 26.142C65.5252 26.2954 65.3903 26.5085 65.2965 26.7812C65.2056 27.0539 65.1602 27.3721 65.1602 27.7357C65.1602 28.0937 65.2056 28.409 65.2965 28.6818C65.3903 28.9545 65.5252 29.1675 65.7013 29.321C65.8803 29.4744 66.0991 29.5511 66.3576 29.5511ZM73.7702 33.5908C73.1481 33.5908 72.6154 33.5042 72.1722 33.3309C71.729 33.1576 71.381 32.9204 71.1282 32.6193C70.8753 32.3181 70.7234 31.9772 70.6722 31.5965L72.6452 31.4857C72.6822 31.6193 72.7503 31.7357 72.8498 31.8352C72.9521 31.9346 73.0842 32.0113 73.2461 32.0653C73.4109 32.1193 73.604 32.1462 73.8256 32.1462C74.1751 32.1462 74.4634 32.061 74.6907 31.8906C74.9208 31.7229 75.0359 31.4289 75.0359 31.0085V29.8579H74.9634C74.881 30.0596 74.756 30.24 74.5884 30.3991C74.4208 30.5582 74.212 30.6832 73.962 30.7741C73.7148 30.865 73.4307 30.9104 73.1097 30.9104C72.6324 30.9104 72.1949 30.7997 71.7972 30.5781C71.4023 30.3536 71.0856 30.007 70.8469 29.5383C70.6111 29.0667 70.4932 28.4602 70.4932 27.7187C70.4932 26.9545 70.6154 26.3252 70.8597 25.8309C71.104 25.3337 71.4236 24.9658 71.8185 24.7272C72.2163 24.4886 72.6438 24.3693 73.1012 24.3693C73.4449 24.3693 73.739 24.4289 73.9833 24.5482C74.2305 24.6647 74.4336 24.8153 74.5927 24.9999C74.7518 25.1846 74.8725 25.3764 74.9549 25.5752H75.0146V24.4545H77.0898V31.0255C77.0898 31.5795 76.9506 32.0468 76.6722 32.4275C76.3938 32.8082 76.0046 33.0965 75.5046 33.2925C75.0046 33.4914 74.4265 33.5908 73.7702 33.5908ZM73.8342 29.3934C74.087 29.3934 74.3029 29.3266 74.4819 29.1931C74.6609 29.0596 74.7986 28.8678 74.8952 28.6178C74.9918 28.3678 75.0401 28.0681 75.0401 27.7187C75.0401 27.3636 74.9918 27.0582 74.8952 26.8025C74.8015 26.544 74.6637 26.3451 74.4819 26.2059C74.3029 26.0667 74.087 25.9971 73.8342 25.9971C73.5756 25.9971 73.3569 26.0681 73.1779 26.2102C72.9989 26.3522 72.8626 26.5525 72.7688 26.811C72.6779 27.0667 72.6324 27.3693 72.6324 27.7187C72.6324 28.0681 72.6793 28.3678 72.7731 28.6178C72.8668 28.8678 73.0018 29.0596 73.1779 29.1931C73.3569 29.3266 73.5756 29.3934 73.8342 29.3934ZM80.5021 22.2727V30.9999H78.4183V22.2727H80.5021ZM84.8881 31.1235C84.2035 31.1235 83.6126 30.9886 83.1154 30.7187C82.6211 30.446 82.2404 30.0582 81.9734 29.5553C81.7092 29.0497 81.577 28.4488 81.577 27.7528C81.577 27.0766 81.7106 26.4857 81.9776 25.9801C82.2447 25.4715 82.6211 25.0766 83.1069 24.7954C83.5927 24.5113 84.1651 24.3693 84.8242 24.3693C85.2901 24.3693 85.7163 24.4417 86.1026 24.5866C86.489 24.7315 86.8228 24.946 87.104 25.2301C87.3853 25.5141 87.604 25.865 87.7603 26.2826C87.9165 26.6974 87.9947 27.1732 87.9947 27.7102V28.2301H82.3057V27.0198H86.0557C86.0529 26.7982 86.0003 26.6008 85.8981 26.4275C85.7958 26.2542 85.6552 26.1193 85.4762 26.0227C85.3001 25.9232 85.0969 25.8735 84.8668 25.8735C84.6339 25.8735 84.4251 25.9261 84.2404 26.0312C84.0557 26.1335 83.9094 26.2741 83.8015 26.4531C83.6935 26.6292 83.6367 26.8295 83.631 27.0539V28.2854C83.631 28.5525 83.6836 28.7869 83.7887 28.9886C83.8938 29.1874 84.043 29.3423 84.2361 29.4531C84.4293 29.5639 84.6594 29.6193 84.9265 29.6193C85.1111 29.6193 85.2788 29.5937 85.4293 29.5425C85.5799 29.4914 85.7092 29.4161 85.8171 29.3167C85.9251 29.2173 86.006 29.0951 86.06 28.9502L87.9734 29.0056C87.8938 29.4346 87.7191 29.8082 87.4492 30.1264C87.1822 30.4417 86.8313 30.6874 86.3966 30.8636C85.962 31.0369 85.4592 31.1235 84.8881 31.1235ZM91.6371 30.9999V22.2727H95.2422C95.8956 22.2727 96.4595 22.4005 96.9339 22.6562C97.4112 22.909 97.7791 23.2627 98.0376 23.7173C98.2961 24.169 98.4254 24.6945 98.4254 25.294C98.4254 25.8962 98.2933 26.4232 98.0291 26.8749C97.7677 27.3238 97.3942 27.6718 96.9084 27.919C96.4226 28.1661 95.8459 28.2897 95.1783 28.2897H92.9538V26.6278H94.7862C95.1044 26.6278 95.37 26.5724 95.5831 26.4616C95.799 26.3508 95.9623 26.196 96.0731 25.9971C96.1839 25.7954 96.2393 25.561 96.2393 25.294C96.2393 25.0241 96.1839 24.7911 96.0731 24.5951C95.9623 24.3962 95.799 24.2428 95.5831 24.1349C95.3672 24.0269 95.1015 23.9729 94.7862 23.9729H93.7464V30.9999H91.6371ZM101.549 22.2727V30.9999H99.4652V22.2727H101.549ZM104.721 31.1107C104.303 31.1107 103.932 31.0411 103.608 30.9019C103.287 30.7599 103.033 30.5468 102.846 30.2627C102.661 29.9758 102.569 29.6164 102.569 29.1846C102.569 28.821 102.632 28.5141 102.76 28.2641C102.888 28.0141 103.064 27.811 103.289 27.6548C103.513 27.4985 103.772 27.3806 104.064 27.3011C104.357 27.2187 104.669 27.1633 105.002 27.1349C105.374 27.1008 105.674 27.0653 105.901 27.0283C106.128 26.9886 106.293 26.9332 106.395 26.8622C106.5 26.7883 106.553 26.6846 106.553 26.5511V26.5298C106.553 26.311 106.478 26.142 106.327 26.0227C106.176 25.9033 105.973 25.8437 105.718 25.8437C105.442 25.8437 105.221 25.9033 105.053 26.0227C104.885 26.142 104.779 26.3068 104.733 26.517L102.811 26.4488C102.868 26.0511 103.015 25.696 103.25 25.3835C103.489 25.0681 103.816 24.821 104.23 24.642C104.648 24.4602 105.149 24.3693 105.735 24.3693C106.152 24.3693 106.537 24.419 106.89 24.5184C107.242 24.615 107.549 24.757 107.81 24.9445C108.071 25.1292 108.273 25.3565 108.415 25.6264C108.56 25.8962 108.632 26.2045 108.632 26.5511V30.9999H106.672V30.088H106.621C106.505 30.3096 106.355 30.4971 106.174 30.6505C105.995 30.8039 105.783 30.919 105.539 30.9957C105.297 31.0724 105.024 31.1107 104.721 31.1107ZM105.364 29.7471C105.588 29.7471 105.79 29.7016 105.969 29.6107C106.151 29.5198 106.296 29.3948 106.404 29.2357C106.512 29.0738 106.566 28.8863 106.566 28.6732V28.0511C106.506 28.0823 106.434 28.1107 106.348 28.1363C106.266 28.1619 106.175 28.186 106.076 28.2087C105.976 28.2315 105.874 28.2514 105.769 28.2684C105.664 28.2854 105.563 28.3011 105.466 28.3153C105.27 28.3465 105.103 28.3948 104.963 28.4602C104.827 28.5255 104.722 28.6107 104.648 28.7158C104.577 28.8181 104.542 28.9403 104.542 29.0823C104.542 29.2982 104.618 29.463 104.772 29.5766C104.928 29.6903 105.125 29.7471 105.364 29.7471ZM110.946 33.4545C110.696 33.4545 110.461 33.4346 110.239 33.3948C110.017 33.3579 109.827 33.3082 109.668 33.2457L110.128 31.7329C110.333 31.8011 110.517 31.8408 110.682 31.8522C110.85 31.8636 110.993 31.8366 111.113 31.7712C111.235 31.7087 111.328 31.5965 111.394 31.4346L111.475 31.2386L109.148 24.4545H111.33L112.536 29.1249H112.604L113.827 24.4545H116.022L113.554 31.6264C113.435 31.9843 113.266 32.2997 113.047 32.5724C112.831 32.8479 112.551 33.0639 112.208 33.2201C111.867 33.3764 111.446 33.4545 110.946 33.4545Z" fill="url(#paint1_linear_28_559)"/>
</g>
<rect x="0.75" y="0.749939" width="125.5" height="38.5" rx="5.25" stroke="white" stroke-opacity="0.15" stroke-width="1.5"/>
<defs>
<filter id="filter0_d_28_559" x="6" y="1.99994" width="36" height="36.0001" filterUnits="userSpaceOnUse" color-interpolation-filters="sRGB">
<feFlood flood-opacity="0" result="BackgroundImageFix"/>
<feColorMatrix in="SourceAlpha" type="matrix" values="0 0 0 0 0 0 0 0 0 0 0 0 0 0 0 0 0 0 127 0" result="hardAlpha"/>
<feOffset/>
<feGaussianBlur stdDeviation="2"/>
<feComposite in2="hardAlpha" operator="out"/>
<feColorMatrix type="matrix" values="0 0 0 0 0 0 0 0 0 0 0 0 0 0 0 0 0 0 0.25 0"/>
<feBlend mode="normal" in2="BackgroundImageFix" result="effect1_dropShadow_28_559"/>
<feBlend mode="normal" in="SourceGraphic" in2="effect1_dropShadow_28_559" result="shape"/>
</filter>
<filter id="filter1_d_28_559" x="42" y="2.99994" width="79" height="34.5909" filterUnits="userSpaceOnUse" color-interpolation-filters="sRGB">
<feFlood flood-opacity="0" result="BackgroundImageFix"/>
<feColorMatrix in="SourceAlpha" type="matrix" values="0 0 0 0 0 0 0 0 0 0 0 0 0 0 0 0 0 0 127 0" result="hardAlpha"/>
<feOffset/>
<feGaussianBlur stdDeviation="2"/>
<feComposite in2="hardAlpha" operator="out"/>
<feColorMatrix type="matrix" values="0 0 0 0 0 0 0 0 0 0 0 0 0 0 0 0 0 0 0.25 0"/>
<feBlend mode="normal" in2="BackgroundImageFix" result="effect1_dropShadow_28_559"/>
<feBlend mode="normal" in="SourceGraphic" in2="effect1_dropShadow_28_559" result="shape"/>
</filter>
<linearGradient id="paint0_linear_28_559" x1="63.5" y1="-6.10351e-05" x2="63.5" y2="39.9999" gradientUnits="userSpaceOnUse">
<stop stop-color="#00171C"/>
<stop offset="0.333333" stop-color="#0A1209"/>
<stop offset="0.666667" stop-color="#100F06"/>
<stop offset="1" stop-color="#1A0000"/>
</linearGradient>
<linearGradient id="paint1_linear_28_559" x1="46" y1="19.9999" x2="117" y2="19.9999" gradientUnits="userSpaceOnUse">
<stop stop-color="#5991EE"/>
<stop offset="0.333333" stop-color="#56AB6C"/>
<stop offset="0.666667" stop-color="#F5D26A"/>
<stop offset="1" stop-color="#EB786F"/>
</linearGradient>
</defs>
</svg>
