<svg width="172" height="56" viewBox="0 0 172 56" fill="none" xmlns="http://www.w3.org/2000/svg">
<rect y="-0.00012207" width="172" height="56" rx="8" fill="url(#paint0_linear_28_559)"/>
<g filter="url(#filter0_d_28_559)">
<path d="M30.7745 27.105L13.5824 44.6846C13.7754 45.3524 14.1223 45.9682 14.5966 46.4851C15.0709 47.002 15.66 47.4061 16.3189 47.6667C16.9778 47.9273 17.689 48.0375 18.3981 47.9887C19.1073 47.9399 19.7956 47.7335 20.4105 47.3853L39.7548 36.6325L30.7745 27.105Z" fill="#EA4335"/>
<path d="M48.1587 24.1168L39.7933 19.4406L30.3773 27.5052L39.8317 36.6075L48.1331 31.9813C48.8685 31.6055 49.4846 31.0404 49.9144 30.3472C50.3442 29.6541 50.5714 28.8593 50.5714 28.0491C50.5714 27.2388 50.3442 26.4441 49.9144 25.7509C49.4846 25.0577 48.8685 24.4926 48.1331 24.1168H48.1587Z" fill="#FBBC04"/>
<path d="M13.5824 11.3258C13.4784 11.7008 13.4267 12.0877 13.4286 12.4761V43.5343C13.4297 43.9225 13.4813 44.3091 13.5824 44.6846L31.3638 27.5551L13.5824 11.3258Z" fill="#4285F4"/>
<path d="M30.9026 28.0052L39.7933 19.4405L20.4746 8.63765C19.7478 8.22221 18.9212 8.00219 18.079 7.99998C17.0618 7.99801 16.0718 8.32072 15.26 8.91892C14.4482 9.51712 13.859 10.358 13.5824 11.3133L30.9026 28.0052Z" fill="#34A853"/>
</g>
<g filter="url(#filter1_d_28_559)">
<path d="M62.2613 24.4999H60.3977L64.5852 12.8635H66.6136L70.8011 24.4999H68.9375L65.6477 14.9771H65.5568L62.2613 24.4999ZM62.5738 19.9431H68.6193V21.4203H62.5738V19.9431ZM78.7173 15.7726L75.5525 24.4999H73.7343L70.5639 15.7726H72.3878L74.598 22.4885H74.6889L76.8934 15.7726H78.7173ZM82.6037 24.6931C82.0506 24.6931 81.5506 24.5908 81.1037 24.3862C80.6567 24.1779 80.3025 23.8768 80.0412 23.4828C79.7836 23.0889 79.6548 22.6059 79.6548 22.034C79.6548 21.5415 79.7495 21.1362 79.9389 20.8181C80.1283 20.4999 80.384 20.248 80.7059 20.0624C81.0279 19.8768 81.3877 19.7366 81.7855 19.6419C82.1832 19.5472 82.5885 19.4753 83.0014 19.426C83.5241 19.3654 83.9484 19.3162 84.2741 19.2783C84.5999 19.2366 84.8366 19.1703 84.9843 19.0794C85.1321 18.9885 85.2059 18.8408 85.2059 18.6362V18.5965C85.2059 18.1003 85.0658 17.7158 84.7855 17.4431C84.509 17.1703 84.0961 17.034 83.5468 17.034C82.9749 17.034 82.5241 17.1609 82.1946 17.4146C81.8688 17.6646 81.6434 17.9431 81.5184 18.2499L79.9218 17.8862C80.1112 17.3559 80.3877 16.9279 80.7514 16.6021C81.1188 16.2726 81.5412 16.034 82.0184 15.8862C82.4957 15.7347 82.9976 15.659 83.5241 15.659C83.8726 15.659 84.2419 15.7006 84.6321 15.784C85.026 15.8635 85.3934 16.0112 85.7343 16.2271C86.079 16.4431 86.3612 16.7518 86.5809 17.1533C86.8006 17.551 86.9105 18.0681 86.9105 18.7044V24.4999H85.2514V23.3067H85.1832C85.0734 23.5264 84.9086 23.7423 84.6889 23.9544C84.4692 24.1665 84.187 24.3427 83.8423 24.4828C83.4976 24.623 83.0847 24.6931 82.6037 24.6931ZM82.973 23.3294C83.4427 23.3294 83.8442 23.2366 84.1775 23.051C84.5146 22.8654 84.7703 22.623 84.9446 22.3237C85.1226 22.0207 85.2116 21.6968 85.2116 21.3521V20.2271C85.151 20.2878 85.0336 20.3446 84.8593 20.3976C84.6889 20.4468 84.4938 20.4904 84.2741 20.5283C84.0544 20.5624 83.8404 20.5946 83.6321 20.6249C83.4237 20.6514 83.2495 20.6741 83.1093 20.6931C82.7798 20.7347 82.4787 20.8048 82.2059 20.9033C81.937 21.0018 81.7211 21.1438 81.5582 21.3294C81.3991 21.5112 81.3196 21.7537 81.3196 22.0567C81.3196 22.4771 81.4749 22.7953 81.7855 23.0112C82.0961 23.2234 82.4919 23.3294 82.973 23.3294ZM89.1733 24.4999V15.7726H90.8721V24.4999H89.1733ZM90.0312 14.426C89.7358 14.426 89.482 14.3275 89.2698 14.1306C89.0615 13.9298 88.9573 13.6912 88.9573 13.4146C88.9573 13.1343 89.0615 12.8957 89.2698 12.6987C89.482 12.498 89.7358 12.3976 90.0312 12.3976C90.3267 12.3976 90.5786 12.498 90.7869 12.6987C90.999 12.8957 91.1051 13.1343 91.1051 13.4146C91.1051 13.6912 90.999 13.9298 90.7869 14.1306C90.5786 14.3275 90.3267 14.426 90.0312 14.426ZM94.8565 12.8635V24.4999H93.1576V12.8635H94.8565ZM99.6818 24.6931C99.1287 24.6931 98.6287 24.5908 98.1818 24.3862C97.7348 24.1779 97.3806 23.8768 97.1193 23.4828C96.8617 23.0889 96.7329 22.6059 96.7329 22.034C96.7329 21.5415 96.8276 21.1362 97.017 20.8181C97.2064 20.4999 97.4621 20.248 97.784 20.0624C98.106 19.8768 98.4659 19.7366 98.8636 19.6419C99.2613 19.5472 99.6666 19.4753 100.08 19.426C100.602 19.3654 101.026 19.3162 101.352 19.2783C101.678 19.2366 101.915 19.1703 102.062 19.0794C102.21 18.9885 102.284 18.8408 102.284 18.6362V18.5965C102.284 18.1003 102.144 17.7158 101.864 17.4431C101.587 17.1703 101.174 17.034 100.625 17.034C100.053 17.034 99.6022 17.1609 99.2727 17.4146C98.9469 17.6646 98.7215 17.9431 98.5965 18.2499L97 17.8862C97.1894 17.3559 97.4659 16.9279 97.8295 16.6021C98.1969 16.2726 98.6193 16.034 99.0965 15.8862C99.5738 15.7347 100.076 15.659 100.602 15.659C100.951 15.659 101.32 15.7006 101.71 15.784C102.104 15.8635 102.472 16.0112 102.812 16.2271C103.157 16.4431 103.439 16.7518 103.659 17.1533C103.879 17.551 103.989 18.0681 103.989 18.7044V24.4999H102.33V23.3067H102.261C102.151 23.5264 101.987 23.7423 101.767 23.9544C101.547 24.1665 101.265 24.3427 100.92 24.4828C100.576 24.623 100.163 24.6931 99.6818 24.6931ZM100.051 23.3294C100.521 23.3294 100.922 23.2366 101.256 23.051C101.593 22.8654 101.848 22.623 102.023 22.3237C102.201 22.0207 102.29 21.6968 102.29 21.3521V20.2271C102.229 20.2878 102.112 20.3446 101.937 20.3976C101.767 20.4468 101.572 20.4904 101.352 20.5283C101.133 20.5624 100.919 20.5946 100.71 20.6249C100.502 20.6514 100.328 20.6741 100.187 20.6931C99.8579 20.7347 99.5568 20.8048 99.284 20.9033C99.0151 21.0018 98.7992 21.1438 98.6363 21.3294C98.4772 21.5112 98.3977 21.7537 98.3977 22.0567C98.3977 22.4771 98.553 22.7953 98.8636 23.0112C99.1742 23.2234 99.57 23.3294 100.051 23.3294ZM106.388 24.4999V12.8635H108.087V17.1874H108.189C108.287 17.0056 108.429 16.7953 108.615 16.5567C108.801 16.3181 109.058 16.1097 109.388 15.9317C109.717 15.7499 110.153 15.659 110.695 15.659C111.399 15.659 112.028 15.837 112.581 16.1931C113.134 16.5491 113.568 17.0624 113.882 17.7328C114.2 18.4033 114.359 19.2101 114.359 20.1533C114.359 21.0965 114.202 21.9052 113.888 22.5794C113.573 23.2499 113.142 23.7669 112.592 24.1306C112.043 24.4904 111.416 24.6703 110.712 24.6703C110.181 24.6703 109.748 24.5813 109.41 24.4033C109.077 24.2253 108.816 24.0169 108.626 23.7783C108.437 23.5396 108.291 23.3275 108.189 23.1419H108.047V24.4999H106.388ZM108.053 20.1362C108.053 20.7499 108.142 21.2878 108.32 21.7499C108.498 22.212 108.755 22.5737 109.092 22.8351C109.429 23.0927 109.842 23.2215 110.331 23.2215C110.838 23.2215 111.263 23.087 111.604 22.8181C111.945 22.5453 112.202 22.176 112.376 21.7101C112.554 21.2442 112.643 20.7196 112.643 20.1362C112.643 19.5605 112.556 19.0434 112.382 18.5851C112.212 18.1268 111.954 17.765 111.609 17.4999C111.268 17.2347 110.842 17.1021 110.331 17.1021C109.838 17.1021 109.422 17.229 109.081 17.4828C108.744 17.7366 108.488 18.0908 108.314 18.5453C108.14 18.9999 108.053 19.5302 108.053 20.1362ZM117.966 12.8635V24.4999H116.267V12.8635H117.966ZM124.013 24.676C123.153 24.676 122.412 24.4923 121.791 24.1249C121.174 23.7537 120.696 23.2328 120.359 22.5624C120.026 21.8881 119.859 21.0984 119.859 20.1931C119.859 19.2991 120.026 18.5112 120.359 17.8294C120.696 17.1476 121.166 16.6154 121.768 16.2328C122.374 15.8503 123.083 15.659 123.893 15.659C124.386 15.659 124.863 15.7404 125.325 15.9033C125.787 16.0662 126.202 16.3218 126.57 16.6703C126.937 17.0188 127.227 17.4715 127.439 18.0283C127.651 18.5813 127.757 19.2537 127.757 20.0453V20.6476H120.82V19.3749H126.092C126.092 18.9279 126.001 18.5321 125.82 18.1874C125.638 17.8389 125.382 17.5643 125.053 17.3635C124.727 17.1628 124.344 17.0624 123.905 17.0624C123.428 17.0624 123.011 17.1798 122.655 17.4146C122.303 17.6457 122.03 17.9487 121.837 18.3237C121.647 18.695 121.553 19.0984 121.553 19.534V20.5283C121.553 21.1116 121.655 21.6078 121.859 22.0169C122.068 22.426 122.357 22.7385 122.729 22.9544C123.1 23.1665 123.534 23.2726 124.03 23.2726C124.352 23.2726 124.645 23.2271 124.91 23.1362C125.176 23.0415 125.405 22.9014 125.598 22.7158C125.791 22.5302 125.939 22.301 126.041 22.0283L127.649 22.3181C127.52 22.7915 127.289 23.2063 126.956 23.5624C126.626 23.9146 126.212 24.1893 125.712 24.3862C125.215 24.5794 124.649 24.676 124.013 24.676ZM137.553 24.676C136.734 24.676 136.02 24.4885 135.41 24.1135C134.801 23.7385 134.327 23.2139 133.99 22.5396C133.653 21.8654 133.484 21.0775 133.484 20.176C133.484 19.2707 133.653 18.479 133.99 17.801C134.327 17.123 134.801 16.5965 135.41 16.2215C136.02 15.8465 136.734 15.659 137.553 15.659C138.371 15.659 139.085 15.8465 139.695 16.2215C140.304 16.5965 140.778 17.123 141.115 17.801C141.452 18.479 141.621 19.2707 141.621 20.176C141.621 21.0775 141.452 21.8654 141.115 22.5396C140.778 23.2139 140.304 23.7385 139.695 24.1135C139.085 24.4885 138.371 24.676 137.553 24.676ZM137.558 23.2499C138.088 23.2499 138.528 23.1097 138.876 22.8294C139.225 22.5491 139.482 22.176 139.649 21.7101C139.82 21.2442 139.905 20.7309 139.905 20.1703C139.905 19.6135 139.82 19.1021 139.649 18.6362C139.482 18.1665 139.225 17.7896 138.876 17.5056C138.528 17.2215 138.088 17.0794 137.558 17.0794C137.024 17.0794 136.581 17.2215 136.229 17.5056C135.88 17.7896 135.621 18.1665 135.45 18.6362C135.284 19.1021 135.2 19.6135 135.2 20.1703C135.2 20.7309 135.284 21.2442 135.45 21.7101C135.621 22.176 135.88 22.5491 136.229 22.8294C136.581 23.1097 137.024 23.2499 137.558 23.2499ZM145.216 19.3181V24.4999H143.517V15.7726H145.148V17.1931H145.256C145.456 16.7309 145.771 16.3597 146.199 16.0794C146.631 15.7991 147.174 15.659 147.829 15.659C148.424 15.659 148.945 15.784 149.392 16.034C149.839 16.2802 150.186 16.6476 150.432 17.1362C150.678 17.6249 150.801 18.229 150.801 18.9487V24.4999H149.102V19.1533C149.102 18.5207 148.937 18.0264 148.608 17.6703C148.278 17.3105 147.826 17.1306 147.25 17.1306C146.856 17.1306 146.506 17.2158 146.199 17.3862C145.896 17.5567 145.655 17.8067 145.477 18.1362C145.303 18.462 145.216 18.8559 145.216 19.3181Z" fill="#E8E8E8"/>
<path d="M69.0493 35.1749C68.9809 34.9214 68.8803 34.698 68.7475 34.5048C68.6147 34.3076 68.4517 34.1406 68.2585 34.0038C68.0653 33.8669 67.844 33.7643 67.5944 33.6959C67.3449 33.6235 67.0712 33.5872 66.7734 33.5872C66.1737 33.5872 65.6546 33.7321 65.2159 34.0219C64.7812 34.3117 64.4452 34.7343 64.2077 35.2896C63.9703 35.841 63.8515 36.5111 63.8515 37.2999C63.8515 38.0928 63.9662 38.7689 64.1956 39.3284C64.425 39.8878 64.7571 40.3144 65.1917 40.6082C65.6264 40.902 66.1536 41.0489 66.7734 41.0489C67.3208 41.0489 67.7836 40.9603 68.1619 40.7833C68.5442 40.6021 68.834 40.3466 69.0312 40.0166C69.2284 39.6865 69.327 39.2982 69.327 38.8514L69.8824 38.9178H66.876V36.7385H72.2066V38.3745C72.2066 39.4813 71.9712 40.4291 71.5003 41.2179C71.0335 42.0067 70.3895 42.6124 69.5685 43.035C68.7515 43.4576 67.8118 43.6689 66.7493 43.6689C65.57 43.6689 64.5337 43.4133 63.6402 42.9022C62.7468 42.3911 62.0505 41.6626 61.5515 40.7168C61.0524 39.767 60.8029 38.6401 60.8029 37.3362C60.8029 36.322 60.9538 35.4225 61.2557 34.6377C61.5575 33.8488 61.9781 33.1807 62.5174 32.6334C63.0607 32.0861 63.6885 31.6715 64.4009 31.3898C65.1173 31.1081 65.888 30.9672 66.713 30.9672C67.4294 30.9672 68.0955 31.0698 68.7113 31.2751C69.3311 31.4803 69.8784 31.7701 70.3533 32.1444C70.8322 32.5187 71.2206 32.9634 71.5184 33.4786C71.8163 33.9937 72.0014 34.5592 72.0738 35.1749H69.0493ZM78.2964 43.6749C77.3224 43.6749 76.4853 43.4757 75.785 43.0773C75.0888 42.6748 74.5515 42.1154 74.1732 41.399C73.7989 40.6786 73.6117 39.8435 73.6117 38.8937C73.6117 37.9399 73.7989 37.1048 74.1732 36.3884C74.5515 35.668 75.0888 35.1085 75.785 34.7101C76.4853 34.3076 77.3224 34.1064 78.2964 34.1064C79.2704 34.1064 80.1055 34.3076 80.8017 34.7101C81.502 35.1085 82.0393 35.668 82.4136 36.3884C82.7919 37.1048 82.9811 37.9399 82.9811 38.8937C82.9811 39.8435 82.7919 40.6786 82.4136 41.399C82.0393 42.1154 81.502 42.6748 80.8017 43.0773C80.1055 43.4757 79.2704 43.6749 78.2964 43.6749ZM78.3145 41.4473C78.6687 41.4473 78.9685 41.3387 79.214 41.1213C79.4595 40.904 79.6467 40.6021 79.7754 40.2158C79.9083 39.8294 79.9747 39.3827 79.9747 38.8756C79.9747 38.3604 79.9083 37.9097 79.7754 37.5233C79.6467 37.1369 79.4595 36.8351 79.214 36.6178C78.9685 36.4004 78.6687 36.2918 78.3145 36.2918C77.9483 36.2918 77.6384 36.4004 77.3848 36.6178C77.1353 36.8351 76.9441 37.1369 76.8113 37.5233C76.6825 37.9097 76.6181 38.3604 76.6181 38.8756C76.6181 39.3827 76.6825 39.8294 76.8113 40.2158C76.9441 40.6021 77.1353 40.904 77.3848 41.1213C77.6384 41.3387 77.9483 41.4473 78.3145 41.4473ZM88.8218 43.6749C87.8478 43.6749 87.0107 43.4757 86.3104 43.0773C85.6142 42.6748 85.0769 42.1154 84.6986 41.399C84.3243 40.6786 84.1371 39.8435 84.1371 38.8937C84.1371 37.9399 84.3243 37.1048 84.6986 36.3884C85.0769 35.668 85.6142 35.1085 86.3104 34.7101C87.0107 34.3076 87.8478 34.1064 88.8218 34.1064C89.7957 34.1064 90.6308 34.3076 91.3271 34.7101C92.0274 35.1085 92.5647 35.668 92.939 36.3884C93.3173 37.1048 93.5064 37.9399 93.5064 38.8937C93.5064 39.8435 93.3173 40.6786 92.939 41.399C92.5647 42.1154 92.0274 42.6748 91.3271 43.0773C90.6308 43.4757 89.7957 43.6749 88.8218 43.6749ZM88.8399 41.4473C89.1941 41.4473 89.4939 41.3387 89.7394 41.1213C89.9849 40.904 90.172 40.6021 90.3008 40.2158C90.4336 39.8294 90.5 39.3827 90.5 38.8756C90.5 38.3604 90.4336 37.9097 90.3008 37.5233C90.172 37.1369 89.9849 36.8351 89.7394 36.6178C89.4939 36.4004 89.1941 36.2918 88.8399 36.2918C88.4737 36.2918 88.1638 36.4004 87.9102 36.6178C87.6607 36.8351 87.4695 37.1369 87.3367 37.5233C87.2079 37.9097 87.1435 38.3604 87.1435 38.8756C87.1435 39.3827 87.2079 39.8294 87.3367 40.2158C87.4695 40.6021 87.6607 40.904 87.9102 41.1213C88.1638 41.3387 88.4737 41.4473 88.8399 41.4473ZM99.3411 47.1703C98.4597 47.1703 97.7051 47.0476 97.0773 46.8021C96.4494 46.5566 95.9564 46.2205 95.5982 45.7939C95.24 45.3673 95.0247 44.8843 94.9523 44.345L97.7474 44.1881C97.7997 44.3772 97.8963 44.5423 98.0372 44.6831C98.182 44.824 98.3692 44.9326 98.5986 45.0091C98.832 45.0856 99.1057 45.1238 99.4196 45.1238C99.9146 45.1238 100.323 45.0031 100.645 44.7616C100.971 44.5241 101.134 44.1076 101.134 43.5119V41.882H101.031C100.915 42.1677 100.738 42.4233 100.5 42.6487C100.263 42.874 99.967 43.0511 99.6128 43.1799C99.2627 43.3087 98.8602 43.3731 98.4054 43.3731C97.7293 43.3731 97.1095 43.2161 96.546 42.9022C95.9866 42.5843 95.5379 42.0933 95.1998 41.4292C94.8658 40.7611 94.6987 39.9019 94.6987 38.8514C94.6987 37.7688 94.8718 36.8774 95.2179 36.1771C95.564 35.4728 96.0168 34.9516 96.5762 34.6135C97.1397 34.2754 97.7454 34.1064 98.3933 34.1064C98.8803 34.1064 99.2969 34.1909 99.643 34.36C99.9931 34.525 100.281 34.7383 100.506 34.9999C100.732 35.2615 100.903 35.5331 101.019 35.8149H101.104V34.2271H104.044V43.5361C104.044 44.3209 103.847 44.9829 103.452 45.5222C103.058 46.0615 102.506 46.47 101.798 46.7477C101.09 47.0295 100.271 47.1703 99.3411 47.1703ZM99.4317 41.224C99.7899 41.224 100.096 41.1294 100.349 40.9402C100.603 40.7511 100.798 40.4794 100.935 40.1252C101.072 39.7711 101.14 39.3465 101.14 38.8514C101.14 38.3484 101.072 37.9157 100.935 37.5535C100.802 37.1873 100.607 36.9055 100.349 36.7083C100.096 36.5111 99.7899 36.4125 99.4317 36.4125C99.0654 36.4125 98.7556 36.5131 98.502 36.7144C98.2484 36.9156 98.0553 37.1993 97.9225 37.5656C97.7937 37.9278 97.7293 38.3564 97.7293 38.8514C97.7293 39.3465 97.7957 39.7711 97.9285 40.1252C98.0613 40.4794 98.2525 40.7511 98.502 40.9402C98.7556 41.1294 99.0654 41.224 99.4317 41.224ZM108.878 31.1362V43.4999H105.926V31.1362H108.878ZM115.091 43.6749C114.122 43.6749 113.284 43.4838 112.58 43.1014C111.88 42.7151 111.341 42.1657 110.962 41.4534C110.588 40.737 110.401 39.8858 110.401 38.8997C110.401 37.9419 110.59 37.1048 110.968 36.3884C111.347 35.668 111.88 35.1085 112.568 34.7101C113.256 34.3076 114.067 34.1064 115.001 34.1064C115.661 34.1064 116.265 34.209 116.812 34.4143C117.359 34.6195 117.832 34.9234 118.231 35.3259C118.629 35.7283 118.939 36.2254 119.16 36.817C119.382 37.4046 119.492 38.0787 119.492 38.8394V39.5759H111.433V37.8614H116.746C116.742 37.5475 116.667 37.2677 116.522 37.0222C116.377 36.7767 116.178 36.5856 115.925 36.4487C115.675 36.3079 115.387 36.2374 115.061 36.2374C114.731 36.2374 114.435 36.3119 114.174 36.4608C113.912 36.6057 113.705 36.8049 113.552 37.0585C113.399 37.308 113.319 37.5917 113.311 37.9097V39.6543C113.311 40.0327 113.385 40.3647 113.534 40.6504C113.683 40.9322 113.894 41.1515 114.168 41.3085C114.442 41.4654 114.768 41.5439 115.146 41.5439C115.407 41.5439 115.645 41.5077 115.858 41.4352C116.071 41.3628 116.255 41.2561 116.408 41.1153C116.56 40.9744 116.675 40.8014 116.752 40.5961L119.462 40.6746C119.35 41.2823 119.102 41.8115 118.72 42.2623C118.341 42.709 117.844 43.0572 117.229 43.3067C116.613 43.5522 115.9 43.6749 115.091 43.6749ZM124.652 43.4999V31.1362H129.76C130.685 31.1362 131.484 31.3173 132.156 31.6796C132.833 32.0378 133.354 32.5388 133.72 33.1828C134.086 33.8227 134.269 34.5672 134.269 35.4164C134.269 36.2696 134.082 37.0162 133.708 37.6561C133.338 38.292 132.808 38.785 132.12 39.1352C131.432 39.4853 130.615 39.6604 129.669 39.6604H126.518V37.306H129.114C129.565 37.306 129.941 37.2275 130.243 37.0705C130.549 36.9136 130.78 36.6942 130.937 36.4125C131.094 36.1268 131.172 35.7947 131.172 35.4164C131.172 35.0341 131.094 34.7041 130.937 34.4264C130.78 34.1446 130.549 33.9273 130.243 33.7744C129.937 33.6214 129.56 33.545 129.114 33.545H127.641V43.4999H124.652ZM138.694 31.1362V43.4999H135.742V31.1362H138.694ZM143.187 43.6568C142.596 43.6568 142.071 43.5582 141.612 43.361C141.157 43.1598 140.797 42.8579 140.531 42.4555C140.27 42.049 140.139 41.5399 140.139 40.9281C140.139 40.413 140.229 39.9783 140.41 39.6242C140.591 39.27 140.841 38.9822 141.159 38.7609C141.477 38.5395 141.843 38.3725 142.258 38.2598C142.672 38.1431 143.115 38.0646 143.586 38.0244C144.113 37.9761 144.538 37.9258 144.86 37.8735C145.182 37.8171 145.415 37.7386 145.56 37.638C145.709 37.5334 145.783 37.3865 145.783 37.1973V37.1671C145.783 36.8572 145.677 36.6178 145.463 36.4487C145.25 36.2797 144.962 36.1952 144.6 36.1952C144.21 36.1952 143.896 36.2797 143.658 36.4487C143.421 36.6178 143.27 36.8512 143.205 37.149L140.483 37.0524C140.563 36.489 140.771 35.9859 141.105 35.5432C141.443 35.0965 141.906 34.7463 142.493 34.4928C143.085 34.2352 143.795 34.1064 144.624 34.1064C145.216 34.1064 145.761 34.1768 146.26 34.3177C146.759 34.4545 147.194 34.6558 147.564 34.9214C147.934 35.183 148.22 35.505 148.421 35.8873C148.627 36.2696 148.729 36.7063 148.729 37.1973V43.4999H145.952V42.208H145.88C145.715 42.5219 145.504 42.7875 145.246 43.0048C144.992 43.2222 144.693 43.3852 144.346 43.4938C144.004 43.6025 143.618 43.6568 143.187 43.6568ZM144.099 41.725C144.417 41.725 144.703 41.6606 144.956 41.5318C145.214 41.403 145.419 41.226 145.572 41.0006C145.725 40.7712 145.801 40.5056 145.801 40.2037V39.3223C145.717 39.3666 145.614 39.4068 145.493 39.4431C145.377 39.4793 145.248 39.5135 145.107 39.5457C144.966 39.5779 144.821 39.6061 144.672 39.6302C144.524 39.6543 144.381 39.6765 144.244 39.6966C143.966 39.7409 143.729 39.8093 143.531 39.9019C143.338 39.9944 143.189 40.1152 143.085 40.2641C142.984 40.409 142.934 40.582 142.934 40.7833C142.934 41.0891 143.042 41.3226 143.26 41.4835C143.481 41.6445 143.761 41.725 144.099 41.725ZM152.007 46.9771C151.653 46.9771 151.319 46.949 151.005 46.8926C150.691 46.8403 150.422 46.7699 150.196 46.6813L150.848 44.5382C151.138 44.6348 151.4 44.6912 151.633 44.7073C151.87 44.7234 152.074 44.6851 152.243 44.5926C152.416 44.504 152.549 44.345 152.641 44.1156L152.756 43.8379L149.46 34.2271H152.551L154.259 40.8436H154.356L156.088 34.2271H159.197L155.702 44.3873C155.533 44.8944 155.293 45.3411 154.984 45.7275C154.678 46.1179 154.281 46.4238 153.794 46.6451C153.311 46.8665 152.716 46.9771 152.007 46.9771Z" fill="url(#paint1_linear_28_559)"/>
</g>
<rect x="1.05" y="1.04988" width="169.9" height="53.9" rx="6.95" stroke="white" stroke-opacity="0.15" stroke-width="2.1"/>
<defs>
<filter id="filter0_d_28_559" x="6.28571" y="2.28559" width="51.4286" height="51.4286" filterUnits="userSpaceOnUse" color-interpolation-filters="sRGB">
<feFlood flood-opacity="0" result="BackgroundImageFix"/>
<feColorMatrix in="SourceAlpha" type="matrix" values="0 0 0 0 0 0 0 0 0 0 0 0 0 0 0 0 0 0 127 0" result="hardAlpha"/>
<feOffset/>
<feGaussianBlur stdDeviation="2.85714"/>
<feComposite in2="hardAlpha" operator="out"/>
<feColorMatrix type="matrix" values="0 0 0 0 0 0 0 0 0 0 0 0 0 0 0 0 0 0 0.25 0"/>
<feBlend mode="normal" in2="BackgroundImageFix" result="effect1_dropShadow_28_559"/>
<feBlend mode="normal" in="SourceGraphic" in2="effect1_dropShadow_28_559" result="shape"/>
</filter>
<filter id="filter1_d_28_559" x="54.4" y="3.89988" width="111.2" height="48.8704" filterUnits="userSpaceOnUse" color-interpolation-filters="sRGB">
<feFlood flood-opacity="0" result="BackgroundImageFix"/>
<feColorMatrix in="SourceAlpha" type="matrix" values="0 0 0 0 0 0 0 0 0 0 0 0 0 0 0 0 0 0 127 0" result="hardAlpha"/>
<feOffset/>
<feGaussianBlur stdDeviation="2.8"/>
<feComposite in2="hardAlpha" operator="out"/>
<feColorMatrix type="matrix" values="0 0 0 0 0 0 0 0 0 0 0 0 0 0 0 0 0 0 0.25 0"/>
<feBlend mode="normal" in2="BackgroundImageFix" result="effect1_dropShadow_28_559"/>
<feBlend mode="normal" in="SourceGraphic" in2="effect1_dropShadow_28_559" result="shape"/>
</filter>
<linearGradient id="paint0_linear_28_559" x1="86" y1="-0.00012207" x2="86" y2="55.9999" gradientUnits="userSpaceOnUse">
<stop stop-color="#00171C"/>
<stop offset="0.333333" stop-color="#0A1209"/>
<stop offset="0.666667" stop-color="#100F06"/>
<stop offset="1" stop-color="#1A0000"/>
</linearGradient>
<linearGradient id="paint1_linear_28_559" x1="60" y1="28.4999" x2="160" y2="28.4999" gradientUnits="userSpaceOnUse">
<stop stop-color="#5991EE"/>
<stop offset="0.333333" stop-color="#56AB6C"/>
<stop offset="0.666667" stop-color="#F5D26A"/>
<stop offset="1" stop-color="#EB786F"/>
</linearGradient>
</defs>
</svg>
