<svg width="127" height="40" viewBox="0 0 127 40" fill="none" xmlns="http://www.w3.org/2000/svg">
<rect x="-0.000183105" y="-4.57764e-05" width="127" height="40" rx="6" fill="url(#paint0_linear_28_559)"/>
<g filter="url(#filter0_d_28_559)">
<path d="M12.5996 6.44308C12.2833 6.77713 12.0936 7.30206 12.0936 7.97015V32.0374C12.0936 32.7055 12.2833 33.2304 12.5996 33.5645L12.6786 33.644L26.0879 20.1549V19.8368L12.6786 6.34764L12.5996 6.44308Z" fill="url(#paint1_linear_28_559)"/>
<path d="M30.5471 24.6566L26.0879 20.1549V19.8368L30.5629 15.3351L30.6578 15.3987L35.9551 18.421C37.4731 19.28 37.4731 20.6957 35.9551 21.5706L30.6578 24.5929L30.5471 24.6566Z" fill="url(#paint2_linear_28_559)"/>
<path d="M30.6577 24.5929L26.0878 19.9958L12.5995 33.5645C13.0897 34.0894 13.9278 34.1689 14.845 33.6281L30.6577 24.5929Z" fill="url(#paint3_linear_28_559)"/>
<path d="M30.6577 15.4146L14.845 6.37946C13.912 5.85453 13.0897 5.91815 12.5995 6.44308L26.0878 20.0117L30.6577 15.4146Z" fill="url(#paint4_linear_28_559)"/>
</g>
<g filter="url(#filter1_d_28_559)">
<path d="M47.5545 18H46.2733L49.1522 9.99995H50.5467L53.4256 18H52.1443L49.8826 11.4531H49.8201L47.5545 18ZM47.7693 14.8671H51.9256V15.8828H47.7693V14.8671ZM58.868 12L56.6922 18H55.4422L53.2625 12H54.5164L56.0359 16.6171H56.0984L57.6141 12H58.868ZM61.5399 18.1328C61.1596 18.1328 60.8159 18.0625 60.5086 17.9218C60.2013 17.7786 59.9578 17.5716 59.7781 17.3007C59.601 17.0299 59.5125 16.6979 59.5125 16.3046C59.5125 15.9661 59.5776 15.6875 59.7078 15.4687C59.838 15.25 60.0138 15.0768 60.2352 14.9492C60.4565 14.8216 60.7039 14.7252 60.9774 14.6601C61.2508 14.595 61.5294 14.5455 61.8133 14.5117C62.1727 14.47 62.4643 14.4361 62.6883 14.4101C62.9122 14.3815 63.075 14.3359 63.1766 14.2734C63.2781 14.2109 63.3289 14.1093 63.3289 13.9687V13.9414C63.3289 13.6002 63.2326 13.3359 63.0399 13.1484C62.8497 12.9609 62.5659 12.8671 62.1883 12.8671C61.7951 12.8671 61.4852 12.9544 61.2586 13.1289C61.0346 13.3007 60.8797 13.4921 60.7938 13.7031L59.6961 13.4531C59.8263 13.0885 60.0164 12.7942 60.2664 12.5703C60.519 12.3437 60.8094 12.1796 61.1375 12.0781C61.4656 11.9739 61.8107 11.9218 62.1727 11.9218C62.4122 11.9218 62.6662 11.9505 62.9344 12.0078C63.2052 12.0625 63.4578 12.164 63.6922 12.3125C63.9292 12.4609 64.1232 12.6731 64.2742 12.9492C64.4253 13.2226 64.5008 13.5781 64.5008 14.0156V18H63.3602V17.1796H63.3133C63.2378 17.3307 63.1245 17.4791 62.9734 17.625C62.8224 17.7708 62.6284 17.8919 62.3914 17.9882C62.1544 18.0846 61.8706 18.1328 61.5399 18.1328ZM61.7938 17.1953C62.1167 17.1953 62.3927 17.1315 62.6219 17.0039C62.8537 16.8763 63.0294 16.7096 63.1492 16.5039C63.2716 16.2955 63.3328 16.0729 63.3328 15.8359V15.0625C63.2912 15.1041 63.2104 15.1432 63.0906 15.1796C62.9734 15.2135 62.8393 15.2434 62.6883 15.2695C62.5372 15.2929 62.3901 15.3151 62.2469 15.3359C62.1037 15.3541 61.9839 15.3697 61.8875 15.3828C61.6609 15.4114 61.4539 15.4596 61.2664 15.5273C61.0815 15.595 60.9331 15.6927 60.8211 15.8203C60.7117 15.9453 60.657 16.1119 60.657 16.3203C60.657 16.6093 60.7638 16.8281 60.9774 16.9765C61.1909 17.1223 61.463 17.1953 61.7938 17.1953ZM66.0565 18V12H67.2244V18H66.0565ZM66.6463 11.0742C66.4432 11.0742 66.2687 11.0065 66.1229 10.871C65.9796 10.733 65.908 10.569 65.908 10.3789C65.908 10.1862 65.9796 10.0221 66.1229 9.88667C66.2687 9.74865 66.4432 9.67964 66.6463 9.67964C66.8494 9.67964 67.0226 9.74865 67.1658 9.88667C67.3117 10.0221 67.3846 10.1862 67.3846 10.3789C67.3846 10.569 67.3117 10.733 67.1658 10.871C67.0226 11.0065 66.8494 11.0742 66.6463 11.0742ZM69.9637 9.99995V18H68.7957V9.99995H69.9637ZM73.2811 18.1328C72.9009 18.1328 72.5571 18.0625 72.2498 17.9218C71.9425 17.7786 71.699 17.5716 71.5193 17.3007C71.3423 17.0299 71.2537 16.6979 71.2537 16.3046C71.2537 15.9661 71.3188 15.6875 71.449 15.4687C71.5792 15.25 71.755 15.0768 71.9764 14.9492C72.1977 14.8216 72.4451 14.7252 72.7186 14.6601C72.992 14.595 73.2706 14.5455 73.5545 14.5117C73.9139 14.47 74.2055 14.4361 74.4295 14.4101C74.6535 14.3815 74.8162 14.3359 74.9178 14.2734C75.0193 14.2109 75.0701 14.1093 75.0701 13.9687V13.9414C75.0701 13.6002 74.9738 13.3359 74.7811 13.1484C74.591 12.9609 74.3071 12.8671 73.9295 12.8671C73.5363 12.8671 73.2264 12.9544 72.9998 13.1289C72.7759 13.3007 72.6209 13.4921 72.535 13.7031L71.4373 13.4531C71.5675 13.0885 71.7576 12.7942 72.0076 12.5703C72.2602 12.3437 72.5506 12.1796 72.8787 12.0781C73.2068 11.9739 73.5519 11.9218 73.9139 11.9218C74.1535 11.9218 74.4074 11.9505 74.6756 12.0078C74.9464 12.0625 75.199 12.164 75.4334 12.3125C75.6704 12.4609 75.8644 12.6731 76.0154 12.9492C76.1665 13.2226 76.242 13.5781 76.242 14.0156V18H75.1014V17.1796H75.0545C74.979 17.3307 74.8657 17.4791 74.7147 17.625C74.5636 17.7708 74.3696 17.8919 74.1326 17.9882C73.8956 18.0846 73.6118 18.1328 73.2811 18.1328ZM73.535 17.1953C73.8579 17.1953 74.1339 17.1315 74.3631 17.0039C74.5949 16.8763 74.7706 16.7096 74.8904 16.5039C75.0128 16.2955 75.074 16.0729 75.074 15.8359V15.0625C75.0324 15.1041 74.9516 15.1432 74.8318 15.1796C74.7147 15.2135 74.5805 15.2434 74.4295 15.2695C74.2785 15.2929 74.1313 15.3151 73.9881 15.3359C73.8449 15.3541 73.7251 15.3697 73.6287 15.3828C73.4022 15.4114 73.1951 15.4596 73.0076 15.5273C72.8227 15.595 72.6743 15.6927 72.5623 15.8203C72.4529 15.9453 72.3982 16.1119 72.3982 16.3203C72.3982 16.6093 72.505 16.8281 72.7186 16.9765C72.9321 17.1223 73.2042 17.1953 73.535 17.1953ZM77.8914 18V9.99995H79.0594V12.9726H79.1297C79.1974 12.8476 79.2951 12.7031 79.4227 12.539C79.5503 12.375 79.7273 12.2317 79.9539 12.1093C80.1805 11.9843 80.4799 11.9218 80.8523 11.9218C81.3367 11.9218 81.769 12.0442 82.1492 12.289C82.5294 12.5338 82.8276 12.8867 83.0438 13.3476C83.2625 13.8085 83.3719 14.3632 83.3719 15.0117C83.3719 15.6601 83.2638 16.2161 83.0477 16.6796C82.8315 17.1406 82.5346 17.496 82.157 17.746C81.7794 17.9934 81.3484 18.1171 80.8641 18.1171C80.4995 18.1171 80.2013 18.0559 79.9695 17.9335C79.7404 17.8111 79.5607 17.6679 79.4305 17.5039C79.3003 17.3398 79.2 17.194 79.1297 17.0664H79.032V18H77.8914ZM79.0359 15C79.0359 15.4218 79.0971 15.7916 79.2195 16.1093C79.3419 16.427 79.519 16.6757 79.7508 16.8554C79.9826 17.0325 80.2664 17.121 80.6023 17.121C80.9513 17.121 81.243 17.0286 81.4773 16.8437C81.7117 16.6562 81.8888 16.4023 82.0086 16.082C82.131 15.7617 82.1922 15.401 82.1922 15C82.1922 14.6041 82.1323 14.2486 82.0125 13.9335C81.8953 13.6184 81.7182 13.3697 81.4813 13.1875C81.2469 13.0052 80.9539 12.914 80.6023 12.914C80.2638 12.914 79.9773 13.0013 79.743 13.1757C79.5112 13.3502 79.3354 13.5937 79.2156 13.9062C79.0958 14.2187 79.0359 14.5833 79.0359 15ZM85.8514 9.99995V18H84.6834V9.99995H85.8514ZM90.0086 18.121C89.4174 18.121 88.9083 17.9947 88.4812 17.7421C88.0568 17.4869 87.7286 17.1289 87.4969 16.6679C87.2677 16.2044 87.1531 15.6614 87.1531 15.039C87.1531 14.4244 87.2677 13.8828 87.4969 13.414C87.7286 12.9453 88.0516 12.5794 88.4656 12.3164C88.8823 12.0533 89.3693 11.9218 89.9266 11.9218C90.2651 11.9218 90.5932 11.9778 90.9109 12.0898C91.2286 12.2018 91.5138 12.3776 91.7664 12.6171C92.019 12.8567 92.2182 13.1679 92.3641 13.5507C92.5099 13.9309 92.5828 14.3932 92.5828 14.9375V15.3515H87.8133V14.4765H91.4383C91.4383 14.1692 91.3758 13.8971 91.2508 13.6601C91.1258 13.4205 90.95 13.2317 90.7234 13.0937C90.4995 12.9557 90.2365 12.8867 89.9344 12.8867C89.6062 12.8867 89.3198 12.9674 89.075 13.1289C88.8328 13.2877 88.6453 13.496 88.5125 13.7539C88.3823 14.0091 88.3172 14.2864 88.3172 14.5859V15.2695C88.3172 15.6705 88.3875 16.0117 88.5281 16.2929C88.6714 16.5742 88.8706 16.789 89.1258 16.9375C89.381 17.0833 89.6792 17.1562 90.0203 17.1562C90.2417 17.1562 90.4435 17.125 90.6258 17.0625C90.8081 16.9973 90.9656 16.901 91.0984 16.7734C91.2312 16.6458 91.3328 16.4882 91.4031 16.3007L92.5086 16.5C92.4201 16.8255 92.2612 17.1106 92.032 17.3554C91.8055 17.5976 91.5203 17.7864 91.1766 17.9218C90.8354 18.0546 90.4461 18.121 90.0086 18.121ZM99.3172 18.121C98.7547 18.121 98.2638 17.9921 97.8445 17.7343C97.4253 17.4765 97.0997 17.1158 96.868 16.6523C96.6362 16.1888 96.5203 15.6471 96.5203 15.0273C96.5203 14.4049 96.6362 13.8606 96.868 13.3945C97.0997 12.9283 97.4253 12.5664 97.8445 12.3085C98.2638 12.0507 98.7547 11.9218 99.3172 11.9218C99.8797 11.9218 100.371 12.0507 100.79 12.3085C101.209 12.5664 101.535 12.9283 101.766 13.3945C101.998 13.8606 102.114 14.4049 102.114 15.0273C102.114 15.6471 101.998 16.1888 101.766 16.6523C101.535 17.1158 101.209 17.4765 100.79 17.7343C100.371 17.9921 99.8797 18.121 99.3172 18.121ZM99.3211 17.1406C99.6857 17.1406 99.9878 17.0442 100.227 16.8515C100.467 16.6588 100.644 16.4023 100.759 16.082C100.876 15.7617 100.934 15.4088 100.934 15.0234C100.934 14.6406 100.876 14.289 100.759 13.9687C100.644 13.6458 100.467 13.3867 100.227 13.1914C99.9878 12.996 99.6857 12.8984 99.3211 12.8984C98.9539 12.8984 98.6492 12.996 98.407 13.1914C98.1674 13.3867 97.9891 13.6458 97.8719 13.9687C97.7573 14.289 97.7 14.6406 97.7 15.0234C97.7 15.4088 97.7573 15.7617 97.8719 16.082C97.9891 16.4023 98.1674 16.6588 98.407 16.8515C98.6492 17.0442 98.9539 17.1406 99.3211 17.1406ZM104.586 14.4375V18H103.418V12H104.539V12.9765H104.613C104.751 12.6588 104.967 12.4036 105.262 12.2109C105.558 12.0182 105.932 11.9218 106.383 11.9218C106.791 11.9218 107.15 12.0078 107.457 12.1796C107.764 12.3489 108.002 12.6015 108.172 12.9375C108.341 13.2734 108.426 13.6888 108.426 14.1835V18H107.258V14.3242C107.258 13.8893 107.144 13.5494 106.918 13.3046C106.691 13.0572 106.38 12.9335 105.984 12.9335C105.713 12.9335 105.472 12.9921 105.262 13.1093C105.053 13.2265 104.888 13.3984 104.765 13.625C104.646 13.8489 104.586 14.1197 104.586 14.4375Z" fill="#E8E8E8"/>
<path d="M52.3876 25.1235C52.3393 24.9446 52.2683 24.7869 52.1745 24.6505C52.0808 24.5113 51.9657 24.3934 51.8294 24.2968C51.693 24.2002 51.5367 24.1278 51.3606 24.0795C51.1845 24.0284 50.9913 24.0028 50.7811 24.0028C50.3578 24.0028 49.9913 24.1051 49.6816 24.3096C49.3748 24.5142 49.1376 24.8125 48.97 25.2045C48.8024 25.5937 48.7186 26.0667 48.7186 26.6235C48.7186 27.1832 48.7995 27.6605 48.9615 28.0553C49.1234 28.4502 49.3578 28.7514 49.6646 28.9588C49.9714 29.1661 50.3436 29.2698 50.7811 29.2698C51.1674 29.2698 51.4941 29.2073 51.7612 29.0823C52.0311 28.9545 52.2356 28.7741 52.3748 28.5411C52.514 28.3082 52.5836 28.034 52.5836 27.7187L52.9757 27.7656H50.8535V26.2272H54.6163V27.3821C54.6163 28.1633 54.4501 28.8323 54.1177 29.3892C53.7882 29.946 53.3336 30.3735 52.7541 30.6718C52.1774 30.9701 51.514 31.1193 50.764 31.1193C49.9316 31.1193 49.2001 30.9389 48.5694 30.5781C47.9387 30.2173 47.4473 29.7031 47.095 29.0355C46.7427 28.365 46.5666 27.5696 46.5666 26.6491C46.5666 25.9332 46.6731 25.2982 46.8862 24.7443C47.0992 24.1875 47.3961 23.7159 47.7768 23.3295C48.1603 22.9431 48.6035 22.6505 49.1064 22.4517C49.612 22.2528 50.1561 22.1534 50.7385 22.1534C51.2441 22.1534 51.7143 22.2258 52.149 22.3707C52.5865 22.5156 52.9728 22.7201 53.3081 22.9843C53.6461 23.2485 53.9203 23.5625 54.1305 23.9261C54.3407 24.2897 54.4714 24.6889 54.5225 25.1235H52.3876ZM58.9149 31.1235C58.2274 31.1235 57.6365 30.9829 57.1422 30.7017C56.6507 30.4176 56.2715 30.0227 56.0044 29.517C55.7402 29.0085 55.6081 28.419 55.6081 27.7485C55.6081 27.0752 55.7402 26.4857 56.0044 25.9801C56.2715 25.4715 56.6507 25.0767 57.1422 24.7954C57.6365 24.5113 58.2274 24.3693 58.9149 24.3693C59.6024 24.3693 60.1919 24.5113 60.6834 24.7954C61.1777 25.0767 61.557 25.4715 61.8212 25.9801C62.0882 26.4857 62.2218 27.0752 62.2218 27.7485C62.2218 28.419 62.0882 29.0085 61.8212 29.517C61.557 30.0227 61.1777 30.4176 60.6834 30.7017C60.1919 30.9829 59.6024 31.1235 58.9149 31.1235ZM58.9277 29.5511C59.1777 29.5511 59.3894 29.4744 59.5627 29.321C59.736 29.1676 59.8681 28.9545 59.959 28.6818C60.0527 28.409 60.0996 28.0937 60.0996 27.7357C60.0996 27.3721 60.0527 27.0539 59.959 26.7812C59.8681 26.5085 59.736 26.2954 59.5627 26.142C59.3894 25.9886 59.1777 25.9119 58.9277 25.9119C58.6692 25.9119 58.4505 25.9886 58.2715 26.142C58.0953 26.2954 57.9604 26.5085 57.8666 26.7812C57.7757 27.0539 57.7303 27.3721 57.7303 27.7357C57.7303 28.0937 57.7757 28.409 57.8666 28.6818C57.9604 28.9545 58.0953 29.1676 58.2715 29.321C58.4505 29.4744 58.6692 29.5511 58.9277 29.5511ZM66.3446 31.1235C65.6571 31.1235 65.0662 30.9829 64.5719 30.7017C64.0804 30.4176 63.7012 30.0227 63.4341 29.517C63.1699 29.0085 63.0378 28.419 63.0378 27.7485C63.0378 27.0752 63.1699 26.4857 63.4341 25.9801C63.7012 25.4715 64.0804 25.0767 64.5719 24.7954C65.0662 24.5113 65.6571 24.3693 66.3446 24.3693C67.0321 24.3693 67.6216 24.5113 68.1131 24.7954C68.6074 25.0767 68.9867 25.4715 69.2509 25.9801C69.5179 26.4857 69.6514 27.0752 69.6514 27.7485C69.6514 28.419 69.5179 29.0085 69.2509 29.517C68.9867 30.0227 68.6074 30.4176 68.1131 30.7017C67.6216 30.9829 67.0321 31.1235 66.3446 31.1235ZM66.3574 29.5511C66.6074 29.5511 66.8191 29.4744 66.9924 29.321C67.1656 29.1676 67.2978 28.9545 67.3887 28.6818C67.4824 28.409 67.5293 28.0937 67.5293 27.7357C67.5293 27.3721 67.4824 27.0539 67.3887 26.7812C67.2978 26.5085 67.1656 26.2954 66.9924 26.142C66.8191 25.9886 66.6074 25.9119 66.3574 25.9119C66.0989 25.9119 65.8801 25.9886 65.7012 26.142C65.525 26.2954 65.3901 26.5085 65.2963 26.7812C65.2054 27.0539 65.16 27.3721 65.16 27.7357C65.16 28.0937 65.2054 28.409 65.2963 28.6818C65.3901 28.9545 65.525 29.1676 65.7012 29.321C65.8801 29.4744 66.0989 29.5511 66.3574 29.5511ZM73.7701 33.5909C73.1479 33.5909 72.6152 33.5042 72.172 33.3309C71.7289 33.1576 71.3808 32.9204 71.128 32.6193C70.8752 32.3181 70.7232 31.9772 70.672 31.5965L72.6451 31.4857C72.682 31.6193 72.7502 31.7357 72.8496 31.8352C72.9519 31.9346 73.084 32.0113 73.2459 32.0653C73.4107 32.1193 73.6039 32.1463 73.8254 32.1463C74.1749 32.1463 74.4632 32.061 74.6905 31.8906C74.9206 31.723 75.0357 31.4289 75.0357 31.0085V29.8579H74.9632C74.8808 30.0596 74.7558 30.24 74.5882 30.3991C74.4206 30.5582 74.2118 30.6832 73.9618 30.7741C73.7147 30.865 73.4306 30.9105 73.1095 30.9105C72.6323 30.9105 72.1948 30.7997 71.797 30.5781C71.4022 30.3536 71.0854 30.0071 70.8468 29.5383C70.611 29.0667 70.4931 28.4602 70.4931 27.7187C70.4931 26.9545 70.6152 26.3252 70.8595 25.8309C71.1039 25.3338 71.4235 24.9659 71.8183 24.7272C72.2161 24.4886 72.6436 24.3693 73.101 24.3693C73.4448 24.3693 73.7388 24.4289 73.9831 24.5482C74.2303 24.6647 74.4334 24.8153 74.5925 25C74.7516 25.1846 74.8723 25.3764 74.9547 25.5752H75.0144V24.4545H77.0897V31.0255C77.0897 31.5795 76.9504 32.0468 76.672 32.4275C76.3936 32.8082 76.0044 33.0965 75.5044 33.2926C75.0044 33.4914 74.4263 33.5909 73.7701 33.5909ZM73.834 29.3934C74.0868 29.3934 74.3027 29.3267 74.4817 29.1931C74.6607 29.0596 74.7985 28.8678 74.8951 28.6178C74.9916 28.3678 75.0399 28.0681 75.0399 27.7187C75.0399 27.3636 74.9916 27.0582 74.8951 26.8025C74.8013 26.544 74.6635 26.3451 74.4817 26.2059C74.3027 26.0667 74.0868 25.9971 73.834 25.9971C73.5754 25.9971 73.3567 26.0681 73.1777 26.2102C72.9987 26.3522 72.8624 26.5525 72.7686 26.811C72.6777 27.0667 72.6323 27.3693 72.6323 27.7187C72.6323 28.0681 72.6791 28.3678 72.7729 28.6178C72.8666 28.8678 73.0016 29.0596 73.1777 29.1931C73.3567 29.3267 73.5754 29.3934 73.834 29.3934ZM80.5019 22.2727V31H78.4181V22.2727H80.5019ZM84.8879 31.1235C84.2033 31.1235 83.6124 30.9886 83.1152 30.7187C82.6209 30.446 82.2402 30.0582 81.9732 29.5553C81.709 29.0497 81.5769 28.4488 81.5769 27.7528C81.5769 27.0767 81.7104 26.4857 81.9774 25.9801C82.2445 25.4715 82.6209 25.0767 83.1067 24.7954C83.5925 24.5113 84.1649 24.3693 84.824 24.3693C85.2899 24.3693 85.7161 24.4417 86.1024 24.5866C86.4888 24.7315 86.8226 24.946 87.1039 25.2301C87.3851 25.5142 87.6039 25.865 87.7601 26.2826C87.9164 26.6974 87.9945 27.1732 87.9945 27.7102V28.2301H82.3056V27.0198H86.0556C86.0527 26.7982 86.0002 26.6008 85.8979 26.4275C85.7956 26.2542 85.655 26.1193 85.476 26.0227C85.2999 25.9232 85.0968 25.8735 84.8666 25.8735C84.6337 25.8735 84.4249 25.9261 84.2402 26.0312C84.0556 26.1335 83.9093 26.2741 83.8013 26.4531C83.6933 26.6292 83.6365 26.8295 83.6308 27.0539V28.2855C83.6308 28.5525 83.6834 28.7869 83.7885 28.9886C83.8936 29.1875 84.0428 29.3423 84.236 29.4531C84.4291 29.5639 84.6593 29.6193 84.9263 29.6193C85.111 29.6193 85.2786 29.5937 85.4291 29.5426C85.5797 29.4914 85.709 29.4161 85.8169 29.3167C85.9249 29.2173 86.0058 29.0951 86.0598 28.9502L87.9732 29.0056C87.8936 29.4346 87.7189 29.8082 87.449 30.1264C87.182 30.4417 86.8311 30.6875 86.3965 30.8636C85.9618 31.0369 85.459 31.1235 84.8879 31.1235ZM91.6369 31V22.2727H95.242C95.8954 22.2727 96.4593 22.4005 96.9338 22.6562C97.411 22.909 97.7789 23.2627 98.0374 23.7173C98.296 24.169 98.4252 24.6946 98.4252 25.294C98.4252 25.8963 98.2931 26.4232 98.0289 26.875C97.7676 27.3238 97.394 27.6718 96.9082 27.919C96.4224 28.1661 95.8457 28.2897 95.1781 28.2897H92.9536V26.6278H94.786C95.1042 26.6278 95.3698 26.5724 95.5829 26.4616C95.7988 26.3508 95.9622 26.196 96.073 25.9971C96.1838 25.7954 96.2391 25.561 96.2391 25.294C96.2391 25.0241 96.1838 24.7911 96.073 24.5951C95.9622 24.3963 95.7988 24.2429 95.5829 24.1349C95.367 24.0269 95.1014 23.973 94.786 23.973H93.7463V31H91.6369ZM101.549 22.2727V31H99.465V22.2727H101.549ZM104.72 31.1107C104.303 31.1107 103.932 31.0411 103.608 30.9019C103.287 30.7599 103.033 30.5468 102.845 30.2627C102.661 29.9758 102.568 29.6164 102.568 29.1846C102.568 28.821 102.632 28.5142 102.76 28.2642C102.888 28.0142 103.064 27.811 103.289 27.6548C103.513 27.4985 103.771 27.3806 104.064 27.3011C104.357 27.2187 104.669 27.1633 105.002 27.1349C105.374 27.1008 105.673 27.0653 105.901 27.0284C106.128 26.9886 106.293 26.9332 106.395 26.8622C106.5 26.7883 106.553 26.6846 106.553 26.5511V26.5298C106.553 26.311 106.477 26.142 106.327 26.0227C106.176 25.9034 105.973 25.8437 105.717 25.8437C105.442 25.8437 105.22 25.9034 105.053 26.0227C104.885 26.142 104.779 26.3068 104.733 26.517L102.811 26.4488C102.868 26.0511 103.014 25.696 103.25 25.3835C103.489 25.0681 103.815 24.821 104.23 24.642C104.648 24.4602 105.149 24.3693 105.735 24.3693C106.152 24.3693 106.537 24.419 106.889 24.5184C107.242 24.615 107.548 24.7571 107.81 24.9446C108.071 25.1292 108.273 25.3565 108.415 25.6264C108.56 25.8963 108.632 26.2045 108.632 26.5511V31H106.672V30.088H106.621C106.504 30.3096 106.355 30.4971 106.173 30.6505C105.994 30.8039 105.783 30.919 105.539 30.9957C105.297 31.0724 105.024 31.1107 104.72 31.1107ZM105.364 29.7471C105.588 29.7471 105.79 29.7017 105.969 29.6107C106.151 29.5198 106.296 29.3948 106.404 29.2357C106.512 29.0738 106.565 28.8863 106.565 28.6732V28.0511C106.506 28.0823 106.433 28.1107 106.348 28.1363C106.266 28.1619 106.175 28.186 106.075 28.2088C105.976 28.2315 105.874 28.2514 105.769 28.2684C105.664 28.2855 105.563 28.3011 105.466 28.3153C105.27 28.3465 105.102 28.3948 104.963 28.4602C104.827 28.5255 104.722 28.6107 104.648 28.7159C104.577 28.8181 104.541 28.9403 104.541 29.0823C104.541 29.2982 104.618 29.463 104.771 29.5767C104.928 29.6903 105.125 29.7471 105.364 29.7471ZM110.946 33.4545C110.696 33.4545 110.46 33.4346 110.239 33.3948C110.017 33.3579 109.827 33.3082 109.668 33.2457L110.128 31.7329C110.333 31.8011 110.517 31.8409 110.682 31.8522C110.85 31.8636 110.993 31.8366 111.112 31.7713C111.235 31.7088 111.328 31.5965 111.394 31.4346L111.475 31.2386L109.148 24.4545H111.33L112.536 29.125H112.604L113.827 24.4545H116.021L113.554 31.6264C113.435 31.9843 113.266 32.2997 113.047 32.5724C112.831 32.848 112.551 33.0639 112.208 33.2201C111.867 33.3764 111.446 33.4545 110.946 33.4545Z" fill="url(#paint5_linear_28_559)"/>
</g>
<rect x="0.749817" y="0.749954" width="125.5" height="38.5" rx="5.25" stroke="white" stroke-opacity="0.15" stroke-width="1.5"/>
<defs>
<filter id="filter0_d_28_559" x="5.99982" y="1.99995" width="36" height="36" filterUnits="userSpaceOnUse" color-interpolation-filters="sRGB">
<feFlood flood-opacity="0" result="BackgroundImageFix"/>
<feColorMatrix in="SourceAlpha" type="matrix" values="0 0 0 0 0 0 0 0 0 0 0 0 0 0 0 0 0 0 127 0" result="hardAlpha"/>
<feOffset/>
<feGaussianBlur stdDeviation="2"/>
<feComposite in2="hardAlpha" operator="out"/>
<feColorMatrix type="matrix" values="0 0 0 0 0 0 0 0 0 0 0 0 0 0 0 0 0 0 0.25 0"/>
<feBlend mode="normal" in2="BackgroundImageFix" result="effect1_dropShadow_28_559"/>
<feBlend mode="normal" in="SourceGraphic" in2="effect1_dropShadow_28_559" result="shape"/>
</filter>
<filter id="filter1_d_28_559" x="41.9998" y="2.99995" width="78.9999" height="34.5909" filterUnits="userSpaceOnUse" color-interpolation-filters="sRGB">
<feFlood flood-opacity="0" result="BackgroundImageFix"/>
<feColorMatrix in="SourceAlpha" type="matrix" values="0 0 0 0 0 0 0 0 0 0 0 0 0 0 0 0 0 0 127 0" result="hardAlpha"/>
<feOffset/>
<feGaussianBlur stdDeviation="2"/>
<feComposite in2="hardAlpha" operator="out"/>
<feColorMatrix type="matrix" values="0 0 0 0 0 0 0 0 0 0 0 0 0 0 0 0 0 0 0.25 0"/>
<feBlend mode="normal" in2="BackgroundImageFix" result="effect1_dropShadow_28_559"/>
<feBlend mode="normal" in="SourceGraphic" in2="effect1_dropShadow_28_559" result="shape"/>
</filter>
<linearGradient id="paint0_linear_28_559" x1="63.4998" y1="-4.57764e-05" x2="63.4998" y2="39.9999" gradientUnits="userSpaceOnUse">
<stop stop-color="#00171C"/>
<stop offset="0.333333" stop-color="#0A1209"/>
<stop offset="0.666667" stop-color="#100F06"/>
<stop offset="1" stop-color="#1A0000"/>
</linearGradient>
<linearGradient id="paint1_linear_28_559" x1="24.8855" y1="7.70832" x2="6.6187" y2="25.8669" gradientUnits="userSpaceOnUse">
<stop stop-color="#00A0FF"/>
<stop offset="0.007" stop-color="#00A1FF"/>
<stop offset="0.26" stop-color="#00BEFF"/>
<stop offset="0.512" stop-color="#00D2FF"/>
<stop offset="0.76" stop-color="#00DFFF"/>
<stop offset="1" stop-color="#00E3FF"/>
</linearGradient>
<linearGradient id="paint2_linear_28_559" x1="37.9124" y1="20.0038" x2="11.731" y2="20.0038" gradientUnits="userSpaceOnUse">
<stop stop-color="#FFE000"/>
<stop offset="0.409" stop-color="#FFBD00"/>
<stop offset="0.775" stop-color="#FFA500"/>
<stop offset="1" stop-color="#FF9C00"/>
</linearGradient>
<linearGradient id="paint3_linear_28_559" x1="28.1702" y1="22.5061" x2="3.39922" y2="47.1304" gradientUnits="userSpaceOnUse">
<stop stop-color="#FF3A44"/>
<stop offset="1" stop-color="#C31162"/>
</linearGradient>
<linearGradient id="paint4_linear_28_559" x1="9.20296" y1="-1.5788" x2="20.2643" y2="9.41705" gradientUnits="userSpaceOnUse">
<stop stop-color="#32A071"/>
<stop offset="0.069" stop-color="#2DA771"/>
<stop offset="0.476" stop-color="#15CF74"/>
<stop offset="0.801" stop-color="#06E775"/>
<stop offset="1" stop-color="#00F076"/>
</linearGradient>
<linearGradient id="paint5_linear_28_559" x1="45.9998" y1="20" x2="117" y2="20" gradientUnits="userSpaceOnUse">
<stop stop-color="#7EC8FF"/>
<stop offset="0.333333" stop-color="#76F0B2"/>
<stop offset="0.666667" stop-color="#FFDC77"/>
<stop offset="1" stop-color="#FF7D84"/>
</linearGradient>
</defs>
</svg>
