<svg width="164" height="56" viewBox="0 0 164 56" fill="none" xmlns="http://www.w3.org/2000/svg">
<g clip-path="url(#clip0_1_50)">
<rect width="164" height="56" rx="8" fill="url(#paint0_linear_1_50)"/>
<g filter="url(#filter0_d_1_50)">
<path d="M44 25.6755C41.0848 24.5349 36.7871 28.9075 34.6833 35.6248C33.5546 39.2913 33.1957 43.1727 33.6314 47L32.279 46.398C29.6943 37.9379 31.1369 28.6857 35.615 22L44 25.6755Z" fill="white"/>
<path d="M46.5263 39.413L36.1527 35.1351C38.0587 29.3583 41.5895 25.8923 43.8704 25.8923C44.1043 25.9007 44.3358 25.9428 44.5578 26.0172L44.7453 26.1108C45.5576 26.4856 48.026 28.6089 46.5263 39.413ZM42.808 13.7767C39.5732 15.5307 36.8082 18.0368 34.7467 21.0835C30.1848 27.7034 28.6226 36.6651 30.9972 45.0336C31.28 46.0425 31.6244 47.0331 32.0283 48L18.1241 42.2545C12.8748 29.3895 17.6866 14.0578 28.9038 8L42.808 13.7767Z" fill="white"/>
</g>
<g filter="url(#filter1_d_1_50)">
<path d="M62.2613 24.5H60.3977L64.5852 12.8636H66.6136L70.8011 24.5H68.9375L65.6477 14.9773H65.5568L62.2613 24.5ZM62.5738 19.9432H68.6193V21.4204H62.5738V19.9432ZM78.7173 15.7727L75.5525 24.5H73.7344L70.5639 15.7727H72.3878L74.598 22.4886H74.6889L76.8934 15.7727H78.7173ZM82.6037 24.6932C82.0506 24.6932 81.5506 24.5909 81.1037 24.3864C80.6567 24.178 80.3025 23.8769 80.0412 23.4829C79.7836 23.089 79.6548 22.6061 79.6548 22.0341C79.6548 21.5417 79.7495 21.1364 79.9389 20.8182C80.1283 20.5 80.384 20.2481 80.7059 20.0625C81.0279 19.8769 81.3878 19.7367 81.7855 19.642C82.1832 19.5473 82.5885 19.4754 83.0014 19.4261C83.5241 19.3655 83.9484 19.3163 84.2741 19.2784C84.5999 19.2367 84.8366 19.1704 84.9844 19.0795C85.1321 18.9886 85.2059 18.8409 85.2059 18.6364V18.5966C85.2059 18.1004 85.0658 17.7159 84.7855 17.4432C84.509 17.1704 84.0961 17.0341 83.5469 17.0341C82.9749 17.0341 82.5241 17.161 82.1946 17.4148C81.8688 17.6648 81.6434 17.9432 81.5184 18.25L79.9219 17.8864C80.1112 17.3561 80.3878 16.928 80.7514 16.6023C81.1188 16.2727 81.5412 16.0341 82.0184 15.8864C82.4957 15.7348 82.9976 15.6591 83.5241 15.6591C83.8726 15.6591 84.2419 15.7008 84.6321 15.7841C85.026 15.8636 85.3934 16.0114 85.7344 16.2273C86.079 16.4432 86.3612 16.7519 86.5809 17.1534C86.8006 17.5511 86.9105 18.0682 86.9105 18.7045V24.5H85.2514V23.3068H85.1832C85.0734 23.5265 84.9086 23.7424 84.6889 23.9545C84.4692 24.1667 84.187 24.3428 83.8423 24.4829C83.4976 24.6231 83.0847 24.6932 82.6037 24.6932ZM82.973 23.3295C83.4427 23.3295 83.8442 23.2367 84.1775 23.0511C84.5147 22.8655 84.7703 22.6231 84.9446 22.3239C85.1226 22.0208 85.2116 21.697 85.2116 21.3523V20.2273C85.151 20.2879 85.0336 20.3447 84.8594 20.3977C84.6889 20.447 84.4938 20.4905 84.2741 20.5284C84.0544 20.5625 83.8404 20.5947 83.6321 20.625C83.4237 20.6515 83.2495 20.6742 83.1094 20.6932C82.7798 20.7348 82.4787 20.8049 82.2059 20.9034C81.937 21.0019 81.7211 21.1439 81.5582 21.3295C81.3991 21.5114 81.3196 21.7538 81.3196 22.0568C81.3196 22.4773 81.4749 22.7954 81.7855 23.0114C82.0961 23.2235 82.4919 23.3295 82.973 23.3295ZM89.1733 24.5V15.7727H90.8721V24.5H89.1733ZM90.0312 14.4261C89.7358 14.4261 89.482 14.3276 89.2699 14.1307C89.0615 13.9299 88.9574 13.6913 88.9574 13.4148C88.9574 13.1345 89.0615 12.8958 89.2699 12.6989C89.482 12.4981 89.7358 12.3977 90.0312 12.3977C90.3267 12.3977 90.5786 12.4981 90.7869 12.6989C90.999 12.8958 91.1051 13.1345 91.1051 13.4148C91.1051 13.6913 90.999 13.9299 90.7869 14.1307C90.5786 14.3276 90.3267 14.4261 90.0312 14.4261ZM94.8565 12.8636V24.5H93.1576V12.8636H94.8565ZM99.6818 24.6932C99.1288 24.6932 98.6288 24.5909 98.1818 24.3864C97.7348 24.178 97.3807 23.8769 97.1193 23.4829C96.8617 23.089 96.7329 22.6061 96.7329 22.0341C96.7329 21.5417 96.8276 21.1364 97.017 20.8182C97.2064 20.5 97.4621 20.2481 97.7841 20.0625C98.106 19.8769 98.4659 19.7367 98.8636 19.642C99.2613 19.5473 99.6666 19.4754 100.08 19.4261C100.602 19.3655 101.026 19.3163 101.352 19.2784C101.678 19.2367 101.915 19.1704 102.062 19.0795C102.21 18.9886 102.284 18.8409 102.284 18.6364V18.5966C102.284 18.1004 102.144 17.7159 101.864 17.4432C101.587 17.1704 101.174 17.0341 100.625 17.0341C100.053 17.0341 99.6022 17.161 99.2727 17.4148C98.9469 17.6648 98.7216 17.9432 98.5966 18.25L97 17.8864C97.1894 17.3561 97.4659 16.928 97.8295 16.6023C98.1969 16.2727 98.6193 16.0341 99.0966 15.8864C99.5738 15.7348 100.076 15.6591 100.602 15.6591C100.951 15.6591 101.32 15.7008 101.71 15.7841C102.104 15.8636 102.472 16.0114 102.812 16.2273C103.157 16.4432 103.439 16.7519 103.659 17.1534C103.879 17.5511 103.989 18.0682 103.989 18.7045V24.5H102.33V23.3068H102.261C102.151 23.5265 101.987 23.7424 101.767 23.9545C101.547 24.1667 101.265 24.3428 100.92 24.4829C100.576 24.6231 100.163 24.6932 99.6818 24.6932ZM100.051 23.3295C100.521 23.3295 100.922 23.2367 101.256 23.0511C101.593 22.8655 101.848 22.6231 102.023 22.3239C102.201 22.0208 102.29 21.697 102.29 21.3523V20.2273C102.229 20.2879 102.112 20.3447 101.937 20.3977C101.767 20.447 101.572 20.4905 101.352 20.5284C101.133 20.5625 100.919 20.5947 100.71 20.625C100.502 20.6515 100.328 20.6742 100.187 20.6932C99.8579 20.7348 99.5568 20.8049 99.2841 20.9034C99.0151 21.0019 98.7992 21.1439 98.6363 21.3295C98.4772 21.5114 98.3977 21.7538 98.3977 22.0568C98.3977 22.4773 98.553 22.7954 98.8636 23.0114C99.1742 23.2235 99.57 23.3295 100.051 23.3295ZM106.388 24.5V12.8636H108.087V17.1875H108.189C108.287 17.0057 108.429 16.7954 108.615 16.5568C108.801 16.3182 109.058 16.1098 109.388 15.9318C109.717 15.75 110.153 15.6591 110.695 15.6591C111.399 15.6591 112.028 15.8371 112.581 16.1932C113.134 16.5492 113.568 17.0625 113.882 17.7329C114.2 18.4034 114.359 19.2102 114.359 20.1534C114.359 21.0966 114.202 21.9053 113.888 22.5795C113.573 23.25 113.142 23.767 112.592 24.1307C112.043 24.4905 111.416 24.6704 110.712 24.6704C110.181 24.6704 109.748 24.5814 109.41 24.4034C109.077 24.2254 108.816 24.017 108.626 23.7784C108.437 23.5398 108.291 23.3276 108.189 23.142H108.047V24.5H106.388ZM108.053 20.1364C108.053 20.75 108.142 21.2879 108.32 21.75C108.498 22.2121 108.755 22.5739 109.092 22.8352C109.429 23.0928 109.842 23.2216 110.331 23.2216C110.839 23.2216 111.263 23.0871 111.604 22.8182C111.945 22.5454 112.202 22.1761 112.376 21.7102C112.554 21.2443 112.643 20.7197 112.643 20.1364C112.643 19.5606 112.556 19.0436 112.382 18.5852C112.212 18.1269 111.954 17.7651 111.609 17.5C111.268 17.2348 110.842 17.1023 110.331 17.1023C109.839 17.1023 109.422 17.2292 109.081 17.4829C108.744 17.7367 108.488 18.0909 108.314 18.5454C108.14 19 108.053 19.5303 108.053 20.1364ZM117.966 12.8636V24.5H116.267V12.8636H117.966ZM124.013 24.6761C123.153 24.6761 122.412 24.4924 121.791 24.125C121.174 23.7538 120.696 23.2329 120.359 22.5625C120.026 21.8883 119.859 21.0985 119.859 20.1932C119.859 19.2992 120.026 18.5114 120.359 17.8295C120.696 17.1477 121.166 16.6155 121.768 16.2329C122.374 15.8504 123.083 15.6591 123.893 15.6591C124.386 15.6591 124.863 15.7405 125.325 15.9034C125.787 16.0663 126.202 16.322 126.57 16.6704C126.937 17.0189 127.227 17.4716 127.439 18.0284C127.651 18.5814 127.757 19.2538 127.757 20.0454V20.6477H120.82V19.375H126.092C126.092 18.928 126.001 18.5322 125.82 18.1875C125.638 17.839 125.382 17.5644 125.053 17.3636C124.727 17.1629 124.344 17.0625 123.905 17.0625C123.428 17.0625 123.011 17.1799 122.655 17.4148C122.303 17.6458 122.03 17.9489 121.837 18.3239C121.647 18.6951 121.553 19.0985 121.553 19.5341V20.5284C121.553 21.1117 121.655 21.6079 121.859 22.017C122.068 22.4261 122.357 22.7386 122.729 22.9545C123.1 23.1667 123.534 23.2727 124.03 23.2727C124.352 23.2727 124.645 23.2273 124.91 23.1364C125.176 23.0417 125.405 22.9015 125.598 22.7159C125.791 22.5303 125.939 22.3011 126.041 22.0284L127.649 22.3182C127.52 22.7917 127.289 23.2064 126.956 23.5625C126.626 23.9148 126.212 24.1894 125.712 24.3864C125.215 24.5795 124.649 24.6761 124.013 24.6761ZM137.553 24.6761C136.734 24.6761 136.02 24.4886 135.41 24.1136C134.801 23.7386 134.327 23.214 133.99 22.5398C133.653 21.8655 133.484 21.0776 133.484 20.1761C133.484 19.2708 133.653 18.4792 133.99 17.8011C134.327 17.1231 134.801 16.5966 135.41 16.2216C136.02 15.8466 136.734 15.6591 137.553 15.6591C138.371 15.6591 139.085 15.8466 139.695 16.2216C140.304 16.5966 140.778 17.1231 141.115 17.8011C141.452 18.4792 141.621 19.2708 141.621 20.1761C141.621 21.0776 141.452 21.8655 141.115 22.5398C140.778 23.214 140.304 23.7386 139.695 24.1136C139.085 24.4886 138.371 24.6761 137.553 24.6761ZM137.558 23.25C138.089 23.25 138.528 23.1098 138.876 22.8295C139.225 22.5492 139.482 22.1761 139.649 21.7102C139.82 21.2443 139.905 20.7311 139.905 20.1704C139.905 19.6136 139.82 19.1023 139.649 18.6364C139.482 18.1667 139.225 17.7898 138.876 17.5057C138.528 17.2216 138.089 17.0795 137.558 17.0795C137.024 17.0795 136.581 17.2216 136.229 17.5057C135.88 17.7898 135.621 18.1667 135.45 18.6364C135.284 19.1023 135.2 19.6136 135.2 20.1704C135.2 20.7311 135.284 21.2443 135.45 21.7102C135.621 22.1761 135.88 22.5492 136.229 22.8295C136.581 23.1098 137.024 23.25 137.558 23.25ZM145.216 19.3182V24.5H143.517V15.7727H145.148V17.1932H145.256C145.456 16.7311 145.771 16.3598 146.199 16.0795C146.631 15.7992 147.174 15.6591 147.83 15.6591C148.424 15.6591 148.945 15.7841 149.392 16.0341C149.839 16.2803 150.186 16.6477 150.432 17.1364C150.678 17.625 150.801 18.2292 150.801 18.9489V24.5H149.102V19.1534C149.102 18.5208 148.937 18.0265 148.608 17.6704C148.278 17.3106 147.826 17.1307 147.25 17.1307C146.856 17.1307 146.506 17.2159 146.199 17.3864C145.896 17.5568 145.655 17.8068 145.477 18.1364C145.303 18.4621 145.216 18.8561 145.216 19.3182Z" fill="#E8E8E8"/>
<path d="M60.9357 43.5V31.1364H63.924V36.0987H68.7958V31.1364H71.778V43.5H68.7958V38.5316H63.924V43.5H60.9357ZM76.2665 43.6569C75.6749 43.6569 75.1497 43.5583 74.6909 43.3611C74.2361 43.1599 73.8759 42.8581 73.6102 42.4556C73.3486 42.0491 73.2178 41.54 73.2178 40.9283C73.2178 40.4131 73.3084 39.9784 73.4895 39.6243C73.6706 39.2701 73.9201 38.9824 74.2381 38.761C74.556 38.5396 74.9223 38.3726 75.3368 38.2599C75.7513 38.1432 76.194 38.0647 76.6649 38.0245C77.1922 37.9762 77.6168 37.9259 77.9387 37.8736C78.2607 37.8172 78.4941 37.7387 78.639 37.6381C78.7879 37.5335 78.8624 37.3866 78.8624 37.1974V37.1672C78.8624 36.8574 78.7557 36.6179 78.5424 36.4489C78.3291 36.2798 78.0414 36.1953 77.6791 36.1953C77.2887 36.1953 76.9748 36.2798 76.7374 36.4489C76.4999 36.6179 76.349 36.8513 76.2846 37.1491L73.5619 37.0525C73.6424 36.4891 73.8497 35.986 74.1838 35.5433C74.5218 35.0966 74.9847 34.7464 75.5722 34.4929C76.1639 34.2353 76.8742 34.1065 77.7033 34.1065C78.2949 34.1065 78.8402 34.177 79.3393 34.3178C79.8383 34.4547 80.273 34.6559 80.6433 34.9215C81.0135 35.1831 81.2993 35.5051 81.5005 35.8874C81.7058 36.2698 81.8084 36.7064 81.8084 37.1974V43.5H79.0314V42.2081H78.959C78.794 42.522 78.5827 42.7876 78.3251 43.005C78.0715 43.2223 77.7717 43.3853 77.4256 43.494C77.0835 43.6026 76.6971 43.6569 76.2665 43.6569ZM77.1781 41.7251C77.496 41.7251 77.7818 41.6607 78.0353 41.5319C78.2929 41.4032 78.4981 41.2261 78.6511 41.0007C78.804 40.7713 78.8805 40.5057 78.8805 40.2038V39.3224C78.796 39.3667 78.6933 39.4069 78.5726 39.4432C78.4559 39.4794 78.3271 39.5136 78.1862 39.5458C78.0454 39.578 77.9005 39.6062 77.7516 39.6303C77.6027 39.6545 77.4598 39.6766 77.323 39.6967C77.0453 39.741 76.8078 39.8094 76.6106 39.902C76.4174 39.9945 76.2685 40.1153 76.1639 40.2642C76.0632 40.4091 76.0129 40.5821 76.0129 40.7834C76.0129 41.0892 76.1216 41.3227 76.3389 41.4837C76.5603 41.6446 76.84 41.7251 77.1781 41.7251ZM86.5655 38.2116V43.5H83.6134V34.2273H86.4206V35.9297H86.5232C86.7285 35.3622 87.0786 34.9175 87.5737 34.5955C88.0687 34.2695 88.6583 34.1065 89.3425 34.1065C89.9945 34.1065 90.5599 34.2534 91.0389 34.5472C91.5218 34.837 91.8961 35.2435 92.1617 35.7667C92.4314 36.2859 92.5642 36.8936 92.5602 37.5898V43.5H89.6081V38.1694C89.6121 37.6542 89.4813 37.2518 89.2157 36.962C88.9541 36.6722 88.5899 36.5273 88.123 36.5273C87.8131 36.5273 87.5395 36.5958 87.302 36.7326C87.0686 36.8654 86.8875 37.0566 86.7587 37.3061C86.6339 37.5556 86.5695 37.8575 86.5655 38.2116ZM98.7103 47.1704C97.8289 47.1704 97.0743 47.0477 96.4464 46.8022C95.8186 46.5567 95.3256 46.2206 94.9674 45.794C94.6092 45.3674 94.3939 44.8845 94.3214 44.3452L97.1165 44.1882C97.1689 44.3774 97.2655 44.5424 97.4063 44.6832C97.5512 44.8241 97.7383 44.9328 97.9677 45.0092C98.2012 45.0857 98.4748 45.1239 98.7888 45.1239C99.2838 45.1239 99.6923 45.0032 100.014 44.7617C100.34 44.5243 100.503 44.1077 100.503 43.5121V41.8821H100.401C100.284 42.1678 100.107 42.4234 99.8694 42.6488C99.6319 42.8742 99.3361 43.0512 98.982 43.18C98.6318 43.3088 98.2293 43.3732 97.7746 43.3732C97.0984 43.3732 96.4786 43.2163 95.9152 42.9023C95.3558 42.5844 94.907 42.0934 94.569 41.4293C94.2349 40.7612 94.0679 39.902 94.0679 38.8516C94.0679 37.7689 94.2409 36.8775 94.5871 36.1772C94.9332 35.4729 95.386 34.9517 95.9454 34.6136C96.5088 34.2756 97.1145 34.1065 97.7625 34.1065C98.2495 34.1065 98.666 34.191 99.0121 34.3601C99.3623 34.5251 99.65 34.7384 99.8754 35C100.101 35.2616 100.272 35.5333 100.389 35.815H100.473V34.2273H103.413V43.5362C103.413 44.321 103.216 44.9831 102.821 45.5224C102.427 46.0617 101.876 46.4702 101.167 46.7479C100.459 47.0296 99.64 47.1704 98.7103 47.1704ZM98.8008 41.2241C99.159 41.2241 99.4649 41.1295 99.7185 40.9403C99.972 40.7512 100.167 40.4795 100.304 40.1253C100.441 39.7712 100.509 39.3466 100.509 38.8516C100.509 38.3485 100.441 37.9158 100.304 37.5536C100.171 37.1874 99.976 36.9056 99.7185 36.7084C99.4649 36.5112 99.159 36.4126 98.8008 36.4126C98.4346 36.4126 98.1247 36.5132 97.8712 36.7145C97.6176 36.9157 97.4244 37.1994 97.2916 37.5657C97.1628 37.9279 97.0984 38.3565 97.0984 38.8516C97.0984 39.3466 97.1648 39.7712 97.2976 40.1253C97.4305 40.4795 97.6216 40.7512 97.8712 40.9403C98.1247 41.1295 98.4346 41.2241 98.8008 41.2241ZM107.909 43.6569C107.317 43.6569 106.792 43.5583 106.333 43.3611C105.879 43.1599 105.518 42.8581 105.253 42.4556C104.991 42.0491 104.86 41.54 104.86 40.9283C104.86 40.4131 104.951 39.9784 105.132 39.6243C105.313 39.2701 105.563 38.9824 105.881 38.761C106.199 38.5396 106.565 38.3726 106.979 38.2599C107.394 38.1432 107.837 38.0647 108.307 38.0245C108.835 37.9762 109.259 37.9259 109.581 37.8736C109.903 37.8172 110.137 37.7387 110.282 37.6381C110.43 37.5335 110.505 37.3866 110.505 37.1974V37.1672C110.505 36.8574 110.398 36.6179 110.185 36.4489C109.972 36.2798 109.684 36.1953 109.322 36.1953C108.931 36.1953 108.617 36.2798 108.38 36.4489C108.142 36.6179 107.992 36.8513 107.927 37.1491L105.205 37.0525C105.285 36.4891 105.492 35.986 105.826 35.5433C106.164 35.0966 106.627 34.7464 107.215 34.4929C107.806 34.2353 108.517 34.1065 109.346 34.1065C109.937 34.1065 110.483 34.177 110.982 34.3178C111.481 34.4547 111.916 34.6559 112.286 34.9215C112.656 35.1831 112.942 35.5051 113.143 35.8874C113.348 36.2698 113.451 36.7064 113.451 37.1974V43.5H110.674V42.2081H110.602C110.437 42.522 110.225 42.7876 109.968 43.005C109.714 43.2223 109.414 43.3853 109.068 43.494C108.726 43.6026 108.34 43.6569 107.909 43.6569ZM108.821 41.7251C109.139 41.7251 109.424 41.6607 109.678 41.5319C109.935 41.4032 110.141 41.2261 110.294 41.0007C110.447 40.7713 110.523 40.5057 110.523 40.2038V39.3224C110.439 39.3667 110.336 39.4069 110.215 39.4432C110.098 39.4794 109.97 39.5136 109.829 39.5458C109.688 39.578 109.543 39.6062 109.394 39.6303C109.245 39.6545 109.102 39.6766 108.966 39.6967C108.688 39.741 108.45 39.8094 108.253 39.902C108.06 39.9945 107.911 40.1153 107.806 40.2642C107.706 40.4091 107.656 40.5821 107.656 40.7834C107.656 41.0892 107.764 41.3227 107.982 41.4837C108.203 41.6446 108.483 41.7251 108.821 41.7251ZM115.256 43.5V34.2273H118.124V35.9176H118.22C118.389 35.3059 118.665 34.8511 119.047 34.5533C119.43 34.2514 119.874 34.1005 120.381 34.1005C120.518 34.1005 120.659 34.1105 120.804 34.1307C120.949 34.1468 121.084 34.1729 121.208 34.2092V36.7748C121.068 36.7266 120.882 36.6883 120.653 36.6601C120.428 36.632 120.226 36.6179 120.049 36.6179C119.699 36.6179 119.383 36.6964 119.102 36.8533C118.824 37.0063 118.604 37.2216 118.444 37.4993C118.287 37.773 118.208 38.0949 118.208 38.4652V43.5H115.256Z" fill="#E8E8E8"/>
</g>
</g>
<rect x="1.05" y="1.05" width="161.9" height="53.9" rx="6.95" stroke="white" stroke-opacity="0.15" stroke-width="2.1"/>
<defs>
<filter id="filter0_d_1_50" x="-71.7143" y="-47.7143" width="252.429" height="235.929" filterUnits="userSpaceOnUse" color-interpolation-filters="sRGB">
<feFlood flood-opacity="0" result="BackgroundImageFix"/>
<feColorMatrix in="SourceAlpha" type="matrix" values="0 0 0 0 0 0 0 0 0 0 0 0 0 0 0 0 0 0 127 0" result="hardAlpha"/>
<feOffset/>
<feGaussianBlur stdDeviation="2.85714"/>
<feComposite in2="hardAlpha" operator="out"/>
<feColorMatrix type="matrix" values="0 0 0 0 0 0 0 0 0 0 0 0 0 0 0 0 0 0 0.25 0"/>
<feBlend mode="normal" in2="BackgroundImageFix" result="effect1_dropShadow_1_50"/>
<feBlend mode="normal" in="SourceGraphic" in2="effect1_dropShadow_1_50" result="shape"/>
</filter>
<filter id="filter1_d_1_50" x="54.4" y="3.9" width="103.2" height="48.8704" filterUnits="userSpaceOnUse" color-interpolation-filters="sRGB">
<feFlood flood-opacity="0" result="BackgroundImageFix"/>
<feColorMatrix in="SourceAlpha" type="matrix" values="0 0 0 0 0 0 0 0 0 0 0 0 0 0 0 0 0 0 127 0" result="hardAlpha"/>
<feOffset/>
<feGaussianBlur stdDeviation="2.8"/>
<feComposite in2="hardAlpha" operator="out"/>
<feColorMatrix type="matrix" values="0 0 0 0 0 0 0 0 0 0 0 0 0 0 0 0 0 0 0.25 0"/>
<feBlend mode="normal" in2="BackgroundImageFix" result="effect1_dropShadow_1_50"/>
<feBlend mode="normal" in="SourceGraphic" in2="effect1_dropShadow_1_50" result="shape"/>
</filter>
<linearGradient id="paint0_linear_1_50" x1="82" y1="0" x2="82" y2="56" gradientUnits="userSpaceOnUse">
<stop stop-color="#1C252C"/>
<stop offset="1" stop-color="#13191D"/>
</linearGradient>
<clipPath id="clip0_1_50">
<rect width="164" height="56" rx="8" fill="white"/>
</clipPath>
</defs>
</svg>
