<svg width="164" height="56" viewBox="0 0 164 56" fill="none" xmlns="http://www.w3.org/2000/svg">
<rect y="-0.000244141" width="164" height="56" rx="8" fill="url(#paint0_linear_1_54)"/>
<g filter="url(#filter0_d_1_54)">
<path d="M13.3817 15.1429V15.8639C18.4185 19.6355 17.3218 36.3269 14.7869 41.8185H14.0843L11.274 40.3766L10.5714 43.2604C14.3176 44.879 17.3274 41.9288 18.5337 38.2137C20.8986 30.9334 18.8337 22.3842 21.1101 15.1429H13.3817ZM23.2178 15.1429V15.8639C27.7178 19.2335 28.8946 25.6876 30.4775 31.0041C31.2201 33.4964 31.1906 36.5274 33.7565 37.4927L37.9719 24.5154H38.6745L42.8899 37.4927H43.5925C46.5665 30.6703 47.2031 20.5257 53.4286 15.8639V15.1429H45.7002L47.808 16.5849L44.2951 30.2831C41.6513 24.8567 40.3705 20.3965 42.1874 15.1429H34.459L37.5033 21.3913L34.459 31.0041H33.7565L31.6487 15.1429H23.2178Z" fill="white"/>
</g>
<g filter="url(#filter1_d_1_54)">
<path d="M62.2613 24.4998H60.3977L64.5852 12.8634H66.6136L70.8011 24.4998H68.9375L65.6477 14.977H65.5568L62.2613 24.4998ZM62.5738 19.9429H68.6193V21.4202H62.5738V19.9429ZM78.7173 15.7725L75.5525 24.4998H73.7343L70.5639 15.7725H72.3878L74.598 22.4884H74.6889L76.8934 15.7725H78.7173ZM82.6037 24.6929C82.0506 24.6929 81.5506 24.5907 81.1037 24.3861C80.6567 24.1778 80.3025 23.8766 80.0412 23.4827C79.7836 23.0888 79.6548 22.6058 79.6548 22.0338C79.6548 21.5414 79.7495 21.1361 79.9389 20.8179C80.1283 20.4998 80.384 20.2479 80.7059 20.0623C81.0279 19.8766 81.3877 19.7365 81.7855 19.6418C82.1832 19.5471 82.5885 19.4751 83.0014 19.4259C83.5241 19.3653 83.9484 19.316 84.2741 19.2782C84.5999 19.2365 84.8366 19.1702 84.9843 19.0793C85.1321 18.9884 85.2059 18.8407 85.2059 18.6361V18.5963C85.2059 18.1001 85.0658 17.7157 84.7855 17.4429C84.509 17.1702 84.0961 17.0338 83.5468 17.0338C82.9749 17.0338 82.5241 17.1607 82.1946 17.4145C81.8688 17.6645 81.6434 17.9429 81.5184 18.2498L79.9218 17.8861C80.1112 17.3558 80.3877 16.9278 80.7514 16.602C81.1188 16.2725 81.5412 16.0338 82.0184 15.8861C82.4957 15.7346 82.9976 15.6588 83.5241 15.6588C83.8726 15.6588 84.2419 15.7005 84.6321 15.7838C85.026 15.8634 85.3934 16.0111 85.7343 16.227C86.079 16.4429 86.3612 16.7516 86.5809 17.1532C86.8006 17.5509 86.9105 18.0679 86.9105 18.7043V24.4998H85.2514V23.3066H85.1832C85.0734 23.5263 84.9086 23.7422 84.6889 23.9543C84.4692 24.1664 84.187 24.3426 83.8423 24.4827C83.4976 24.6229 83.0847 24.6929 82.6037 24.6929ZM82.973 23.3293C83.4427 23.3293 83.8442 23.2365 84.1775 23.0509C84.5146 22.8653 84.7703 22.6229 84.9446 22.3236C85.1226 22.0206 85.2116 21.6967 85.2116 21.352V20.227C85.151 20.2876 85.0336 20.3444 84.8593 20.3975C84.6889 20.4467 84.4938 20.4903 84.2741 20.5282C84.0544 20.5623 83.8404 20.5944 83.6321 20.6248C83.4237 20.6513 83.2495 20.674 83.1093 20.6929C82.7798 20.7346 82.4787 20.8047 82.2059 20.9032C81.937 21.0016 81.7211 21.1437 81.5582 21.3293C81.3991 21.5111 81.3196 21.7535 81.3196 22.0566C81.3196 22.477 81.4749 22.7952 81.7855 23.0111C82.0961 23.2232 82.4919 23.3293 82.973 23.3293ZM89.1733 24.4998V15.7725H90.8721V24.4998H89.1733ZM90.0312 14.4259C89.7358 14.4259 89.482 14.3274 89.2698 14.1304C89.0615 13.9297 88.9573 13.691 88.9573 13.4145C88.9573 13.1342 89.0615 12.8956 89.2698 12.6986C89.482 12.4979 89.7358 12.3975 90.0312 12.3975C90.3267 12.3975 90.5786 12.4979 90.7869 12.6986C90.999 12.8956 91.1051 13.1342 91.1051 13.4145C91.1051 13.691 90.999 13.9297 90.7869 14.1304C90.5786 14.3274 90.3267 14.4259 90.0312 14.4259ZM94.8565 12.8634V24.4998H93.1576V12.8634H94.8565ZM99.6818 24.6929C99.1287 24.6929 98.6287 24.5907 98.1818 24.3861C97.7348 24.1778 97.3806 23.8766 97.1193 23.4827C96.8617 23.0888 96.7329 22.6058 96.7329 22.0338C96.7329 21.5414 96.8276 21.1361 97.017 20.8179C97.2064 20.4998 97.4621 20.2479 97.784 20.0623C98.106 19.8766 98.4659 19.7365 98.8636 19.6418C99.2613 19.5471 99.6666 19.4751 100.08 19.4259C100.602 19.3653 101.026 19.316 101.352 19.2782C101.678 19.2365 101.915 19.1702 102.062 19.0793C102.21 18.9884 102.284 18.8407 102.284 18.6361V18.5963C102.284 18.1001 102.144 17.7157 101.864 17.4429C101.587 17.1702 101.174 17.0338 100.625 17.0338C100.053 17.0338 99.6022 17.1607 99.2727 17.4145C98.9469 17.6645 98.7215 17.9429 98.5965 18.2498L97 17.8861C97.1894 17.3558 97.4659 16.9278 97.8295 16.602C98.1969 16.2725 98.6193 16.0338 99.0965 15.8861C99.5738 15.7346 100.076 15.6588 100.602 15.6588C100.951 15.6588 101.32 15.7005 101.71 15.7838C102.104 15.8634 102.472 16.0111 102.812 16.227C103.157 16.4429 103.439 16.7516 103.659 17.1532C103.879 17.5509 103.989 18.0679 103.989 18.7043V24.4998H102.33V23.3066H102.261C102.151 23.5263 101.987 23.7422 101.767 23.9543C101.547 24.1664 101.265 24.3426 100.92 24.4827C100.576 24.6229 100.163 24.6929 99.6818 24.6929ZM100.051 23.3293C100.521 23.3293 100.922 23.2365 101.256 23.0509C101.593 22.8653 101.848 22.6229 102.023 22.3236C102.201 22.0206 102.29 21.6967 102.29 21.352V20.227C102.229 20.2876 102.112 20.3444 101.937 20.3975C101.767 20.4467 101.572 20.4903 101.352 20.5282C101.133 20.5623 100.919 20.5944 100.71 20.6248C100.502 20.6513 100.328 20.674 100.187 20.6929C99.8579 20.7346 99.5568 20.8047 99.284 20.9032C99.0151 21.0016 98.7992 21.1437 98.6363 21.3293C98.4772 21.5111 98.3977 21.7535 98.3977 22.0566C98.3977 22.477 98.553 22.7952 98.8636 23.0111C99.1742 23.2232 99.57 23.3293 100.051 23.3293ZM106.388 24.4998V12.8634H108.087V17.1873H108.189C108.287 17.0054 108.429 16.7952 108.615 16.5566C108.801 16.3179 109.058 16.1096 109.388 15.9316C109.717 15.7498 110.153 15.6588 110.695 15.6588C111.399 15.6588 112.028 15.8369 112.581 16.1929C113.134 16.549 113.568 17.0623 113.882 17.7327C114.2 18.4032 114.359 19.21 114.359 20.1532C114.359 21.0963 114.202 21.9051 113.888 22.5793C113.573 23.2498 113.142 23.7668 112.592 24.1304C112.043 24.4903 111.416 24.6702 110.712 24.6702C110.181 24.6702 109.748 24.5812 109.41 24.4032C109.077 24.2251 108.816 24.0168 108.626 23.7782C108.437 23.5395 108.291 23.3274 108.189 23.1418H108.047V24.4998H106.388ZM108.053 20.1361C108.053 20.7498 108.142 21.2876 108.32 21.7498C108.498 22.2119 108.755 22.5736 109.092 22.835C109.429 23.0926 109.842 23.2213 110.331 23.2213C110.838 23.2213 111.263 23.0869 111.604 22.8179C111.945 22.5452 112.202 22.1759 112.376 21.71C112.554 21.2441 112.643 20.7194 112.643 20.1361C112.643 19.5604 112.556 19.0433 112.382 18.585C112.212 18.1266 111.954 17.7649 111.609 17.4998C111.268 17.2346 110.842 17.102 110.331 17.102C109.838 17.102 109.422 17.2289 109.081 17.4827C108.744 17.7365 108.488 18.0907 108.314 18.5452C108.14 18.9998 108.053 19.5301 108.053 20.1361ZM117.966 12.8634V24.4998H116.267V12.8634H117.966ZM124.013 24.6759C123.153 24.6759 122.412 24.4922 121.791 24.1248C121.174 23.7535 120.696 23.2327 120.359 22.5623C120.026 21.888 119.859 21.0982 119.859 20.1929C119.859 19.299 120.026 18.5111 120.359 17.8293C120.696 17.1475 121.166 16.6153 121.768 16.2327C122.374 15.8501 123.083 15.6588 123.893 15.6588C124.386 15.6588 124.863 15.7403 125.325 15.9032C125.787 16.066 126.202 16.3217 126.57 16.6702C126.937 17.0187 127.227 17.4713 127.439 18.0282C127.651 18.5812 127.757 19.2535 127.757 20.0452V20.6475H120.82V19.3748H126.092C126.092 18.9278 126.001 18.532 125.82 18.1873C125.638 17.8388 125.382 17.5641 125.053 17.3634C124.727 17.1626 124.344 17.0623 123.905 17.0623C123.428 17.0623 123.011 17.1797 122.655 17.4145C122.303 17.6456 122.03 17.9486 121.837 18.3236C121.647 18.6948 121.553 19.0982 121.553 19.5338V20.5282C121.553 21.1115 121.655 21.6077 121.859 22.0168C122.068 22.4259 122.357 22.7384 122.729 22.9543C123.1 23.1664 123.534 23.2725 124.03 23.2725C124.352 23.2725 124.645 23.227 124.91 23.1361C125.176 23.0414 125.405 22.9013 125.598 22.7157C125.791 22.5301 125.939 22.3009 126.041 22.0282L127.649 22.3179C127.52 22.7914 127.289 23.2062 126.956 23.5623C126.626 23.9145 126.212 24.1891 125.712 24.3861C125.215 24.5793 124.649 24.6759 124.013 24.6759ZM137.553 24.6759C136.734 24.6759 136.02 24.4884 135.41 24.1134C134.801 23.7384 134.327 23.2138 133.99 22.5395C133.653 21.8653 133.484 21.0774 133.484 20.1759C133.484 19.2706 133.653 18.4789 133.99 17.8009C134.327 17.1229 134.801 16.5963 135.41 16.2213C136.02 15.8463 136.734 15.6588 137.553 15.6588C138.371 15.6588 139.085 15.8463 139.695 16.2213C140.304 16.5963 140.778 17.1229 141.115 17.8009C141.452 18.4789 141.621 19.2706 141.621 20.1759C141.621 21.0774 141.452 21.8653 141.115 22.5395C140.778 23.2138 140.304 23.7384 139.695 24.1134C139.085 24.4884 138.371 24.6759 137.553 24.6759ZM137.558 23.2498C138.088 23.2498 138.528 23.1096 138.876 22.8293C139.225 22.549 139.482 22.1759 139.649 21.71C139.82 21.2441 139.905 20.7308 139.905 20.1702C139.905 19.6134 139.82 19.102 139.649 18.6361C139.482 18.1664 139.225 17.7895 138.876 17.5054C138.528 17.2213 138.088 17.0793 137.558 17.0793C137.024 17.0793 136.581 17.2213 136.229 17.5054C135.88 17.7895 135.621 18.1664 135.45 18.6361C135.284 19.102 135.2 19.6134 135.2 20.1702C135.2 20.7308 135.284 21.2441 135.45 21.71C135.621 22.1759 135.88 22.549 136.229 22.8293C136.581 23.1096 137.024 23.2498 137.558 23.2498ZM145.216 19.3179V24.4998H143.517V15.7725H145.148V17.1929H145.256C145.456 16.7308 145.771 16.3596 146.199 16.0793C146.631 15.799 147.174 15.6588 147.829 15.6588C148.424 15.6588 148.945 15.7838 149.392 16.0338C149.839 16.2801 150.186 16.6475 150.432 17.1361C150.678 17.6248 150.801 18.2289 150.801 18.9486V24.4998H149.102V19.1532C149.102 18.5206 148.937 18.0263 148.608 17.6702C148.278 17.3104 147.826 17.1304 147.25 17.1304C146.856 17.1304 146.506 17.2157 146.199 17.3861C145.896 17.5566 145.655 17.8066 145.477 18.1361C145.303 18.4619 145.216 18.8558 145.216 19.3179Z" fill="#E8E8E8"/>
<path d="M65.9584 31.1361H68.9044V39.6844C68.9004 40.4853 68.7092 41.1856 68.3309 41.7853C67.9526 42.3809 67.4294 42.8437 66.7613 43.1738C66.0973 43.5038 65.3286 43.6688 64.4552 43.6688C63.6825 43.6688 62.9802 43.534 62.3483 43.2643C61.7205 42.9947 61.2194 42.5761 60.8451 42.0086C60.4749 41.4412 60.2918 40.7147 60.2958 39.8293H63.272C63.2841 40.1472 63.3444 40.4189 63.4531 40.6443C63.5658 40.8656 63.7207 41.0327 63.9179 41.1453C64.1151 41.258 64.3506 41.3144 64.6243 41.3144C64.91 41.3144 65.1515 41.254 65.3487 41.1333C65.5459 41.0085 65.6948 40.8254 65.7954 40.5839C65.9001 40.3424 65.9544 40.0426 65.9584 39.6844V31.1361ZM73.7446 43.4998L70.1465 31.1361H73.4487L75.3142 39.2377H75.4168L77.5478 31.1361H80.2403L82.3713 39.2558H82.474L84.3454 31.1361H87.6416L84.0496 43.4998H81.17L78.9423 36.0019H78.8458L76.6181 43.4998H73.7446ZM88.8761 43.4998V31.1361H93.9834C94.909 31.1361 95.7079 31.3172 96.38 31.6794C97.0562 32.0376 97.5773 32.5387 97.9436 33.1826C98.3098 33.8226 98.4929 34.5671 98.4929 35.4163C98.4929 36.2695 98.3058 37.0161 97.9315 37.656C97.5612 38.2919 97.032 38.7849 96.3438 39.1351C95.6556 39.4852 94.8386 39.6603 93.8928 39.6603H90.7415V37.3059H93.3374C93.7882 37.3059 94.1645 37.2274 94.4663 37.0704C94.7722 36.9135 95.0036 36.6941 95.1606 36.4124C95.3175 36.1266 95.396 35.7946 95.396 35.4163C95.396 35.034 95.3175 34.7039 95.1606 34.4262C95.0036 34.1445 94.7722 33.9272 94.4663 33.7743C94.1604 33.6213 93.7841 33.5449 93.3374 33.5449H91.8644V43.4998H88.8761ZM104.118 43.6748C103.148 43.6748 102.311 43.4837 101.606 43.1013C100.906 42.715 100.367 42.1656 99.9886 41.4532C99.6143 40.7368 99.4272 39.8856 99.4272 38.8996C99.4272 37.9418 99.6163 37.1046 99.9946 36.3882C100.373 35.6678 100.906 35.1084 101.594 34.71C102.283 34.3075 103.094 34.1063 104.027 34.1063C104.687 34.1063 105.291 34.2089 105.838 34.4142C106.386 34.6194 106.859 34.9233 107.257 35.3257C107.655 35.7282 107.965 36.2253 108.187 36.8169C108.408 37.4045 108.519 38.0786 108.519 38.8392V39.5757H100.459V37.8613H105.772C105.768 37.5473 105.693 37.2676 105.549 37.0221C105.404 36.7766 105.205 36.5855 104.951 36.4486C104.701 36.3078 104.414 36.2373 104.088 36.2373C103.758 36.2373 103.462 36.3118 103.2 36.4607C102.939 36.6056 102.731 36.8048 102.578 37.0583C102.426 37.3079 102.345 37.5916 102.337 37.9096V39.6542C102.337 40.0325 102.411 40.3646 102.56 40.6503C102.709 40.932 102.921 41.1514 103.194 41.3083C103.468 41.4653 103.794 41.5438 104.172 41.5438C104.434 41.5438 104.671 41.5076 104.885 41.4351C105.098 41.3627 105.281 41.256 105.434 41.1152C105.587 40.9743 105.702 40.8012 105.778 40.596L108.489 40.6745C108.376 41.2822 108.128 41.8114 107.746 42.2622C107.368 42.7089 106.871 43.057 106.255 43.3066C105.639 43.5521 104.927 43.6748 104.118 43.6748ZM110.026 46.977V34.227H112.948V35.8147H113.039C113.16 35.533 113.331 35.2614 113.552 34.9998C113.777 34.7382 114.063 34.5248 114.409 34.3598C114.759 34.1908 115.178 34.1063 115.665 34.1063C116.309 34.1063 116.911 34.2753 117.47 34.6134C118.033 34.9515 118.488 35.4726 118.834 36.177C119.18 36.8813 119.354 37.7788 119.354 38.8694C119.354 39.9199 119.187 40.7992 118.852 41.5076C118.522 42.2159 118.076 42.7471 117.512 43.1013C116.953 43.4555 116.331 43.6326 115.647 43.6326C115.18 43.6326 114.776 43.5561 114.433 43.4032C114.091 43.2502 113.804 43.049 113.57 42.7995C113.341 42.5499 113.164 42.2823 113.039 41.9966H112.979V46.977H110.026ZM112.918 38.8634C112.918 39.3624 112.985 39.7971 113.117 40.1674C113.254 40.5376 113.449 40.8254 113.703 41.0306C113.961 41.2319 114.268 41.3325 114.627 41.3325C114.989 41.3325 115.297 41.2319 115.55 41.0306C115.804 40.8254 115.995 40.5376 116.124 40.1674C116.257 39.7971 116.323 39.3624 116.323 38.8634C116.323 38.3643 116.257 37.9317 116.124 37.5654C115.995 37.1992 115.804 36.9155 115.55 36.7142C115.301 36.513 114.993 36.4124 114.627 36.4124C114.264 36.4124 113.957 36.511 113.703 36.7082C113.449 36.9054 113.254 37.1871 113.117 37.5534C112.985 37.9196 112.918 38.3563 112.918 38.8634ZM120.901 46.977V34.227H123.822V35.8147H123.913C124.034 35.533 124.205 35.2614 124.426 34.9998C124.651 34.7382 124.937 34.5248 125.283 34.3598C125.633 34.1908 126.052 34.1063 126.539 34.1063C127.183 34.1063 127.785 34.2753 128.344 34.6134C128.908 34.9515 129.362 35.4726 129.708 36.177C130.055 36.8813 130.228 37.7788 130.228 38.8694C130.228 39.9199 130.061 40.7992 129.727 41.5076C129.396 42.2159 128.95 42.7471 128.386 43.1013C127.827 43.4555 127.205 43.6326 126.521 43.6326C126.054 43.6326 125.65 43.5561 125.307 43.4032C124.965 43.2502 124.678 43.049 124.444 42.7995C124.215 42.5499 124.038 42.2823 123.913 41.9966H123.853V46.977H120.901ZM123.792 38.8634C123.792 39.3624 123.859 39.7971 123.991 40.1674C124.128 40.5376 124.323 40.8254 124.577 41.0306C124.835 41.2319 125.142 41.3325 125.501 41.3325C125.863 41.3325 126.171 41.2319 126.424 41.0306C126.678 40.8254 126.869 40.5376 126.998 40.1674C127.131 39.7971 127.197 39.3624 127.197 38.8634C127.197 38.3643 127.131 37.9317 126.998 37.5654C126.869 37.1992 126.678 36.9155 126.424 36.7142C126.175 36.513 125.867 36.4124 125.501 36.4124C125.138 36.4124 124.831 36.511 124.577 36.7082C124.323 36.9054 124.128 37.1871 123.991 37.5534C123.859 37.9196 123.792 38.3563 123.792 38.8634ZM136.109 43.6748C135.139 43.6748 134.302 43.4837 133.598 43.1013C132.897 42.715 132.358 42.1656 131.98 41.4532C131.606 40.7368 131.418 39.8856 131.418 38.8996C131.418 37.9418 131.608 37.1046 131.986 36.3882C132.364 35.6678 132.897 35.1084 133.586 34.71C134.274 34.3075 135.085 34.1063 136.019 34.1063C136.679 34.1063 137.282 34.2089 137.83 34.4142C138.377 34.6194 138.85 34.9233 139.248 35.3257C139.647 35.7282 139.957 36.2253 140.178 36.8169C140.399 37.4045 140.51 38.0786 140.51 38.8392V39.5757H132.451V37.8613H137.763C137.759 37.5473 137.685 37.2676 137.54 37.0221C137.395 36.7766 137.196 36.5855 136.942 36.4486C136.693 36.3078 136.405 36.2373 136.079 36.2373C135.749 36.2373 135.453 36.3118 135.191 36.4607C134.93 36.6056 134.723 36.8048 134.57 37.0583C134.417 37.3079 134.336 37.5916 134.328 37.9096V39.6542C134.328 40.0325 134.403 40.3646 134.552 40.6503C134.7 40.932 134.912 41.1514 135.185 41.3083C135.459 41.4653 135.785 41.5438 136.163 41.5438C136.425 41.5438 136.662 41.5076 136.876 41.4351C137.089 41.3627 137.272 41.256 137.425 41.1152C137.578 40.9743 137.693 40.8012 137.769 40.596L140.48 40.6745C140.367 41.2822 140.12 41.8114 139.737 42.2622C139.359 42.7089 138.862 43.057 138.246 43.3066C137.63 43.5521 136.918 43.6748 136.109 43.6748ZM142.018 43.4998V34.227H144.885V35.9174H144.982C145.151 35.3056 145.427 34.8508 145.809 34.553C146.191 34.2512 146.636 34.1003 147.143 34.1003C147.28 34.1003 147.421 34.1103 147.566 34.1304C147.711 34.1465 147.845 34.1727 147.97 34.2089V36.7746C147.829 36.7263 147.644 36.6881 147.415 36.6599C147.189 36.6317 146.988 36.6177 146.811 36.6177C146.461 36.6177 146.145 36.6961 145.863 36.8531C145.586 37.006 145.366 37.2213 145.205 37.499C145.048 37.7727 144.97 38.0947 144.97 38.465V43.4998H142.018Z" fill="white"/>
</g>
<rect x="1.05" y="1.04976" width="161.9" height="53.9" rx="6.95" stroke="white" stroke-opacity="0.15" stroke-width="2.1"/>
<defs>
<filter id="filter0_d_1_54" x="4.85716" y="2.28547" width="54.2857" height="51.4286" filterUnits="userSpaceOnUse" color-interpolation-filters="sRGB">
<feFlood flood-opacity="0" result="BackgroundImageFix"/>
<feColorMatrix in="SourceAlpha" type="matrix" values="0 0 0 0 0 0 0 0 0 0 0 0 0 0 0 0 0 0 127 0" result="hardAlpha"/>
<feOffset/>
<feGaussianBlur stdDeviation="2.85714"/>
<feComposite in2="hardAlpha" operator="out"/>
<feColorMatrix type="matrix" values="0 0 0 0 0 0 0 0 0 0 0 0 0 0 0 0 0 0 0.25 0"/>
<feBlend mode="normal" in2="BackgroundImageFix" result="effect1_dropShadow_1_54"/>
<feBlend mode="normal" in="SourceGraphic" in2="effect1_dropShadow_1_54" result="shape"/>
</filter>
<filter id="filter1_d_1_54" x="54.4" y="3.89976" width="103.2" height="48.6773" filterUnits="userSpaceOnUse" color-interpolation-filters="sRGB">
<feFlood flood-opacity="0" result="BackgroundImageFix"/>
<feColorMatrix in="SourceAlpha" type="matrix" values="0 0 0 0 0 0 0 0 0 0 0 0 0 0 0 0 0 0 127 0" result="hardAlpha"/>
<feOffset/>
<feGaussianBlur stdDeviation="2.8"/>
<feComposite in2="hardAlpha" operator="out"/>
<feColorMatrix type="matrix" values="0 0 0 0 0 0 0 0 0 0 0 0 0 0 0 0 0 0 0.25 0"/>
<feBlend mode="normal" in2="BackgroundImageFix" result="effect1_dropShadow_1_54"/>
<feBlend mode="normal" in="SourceGraphic" in2="effect1_dropShadow_1_54" result="shape"/>
</filter>
<linearGradient id="paint0_linear_1_54" x1="82" y1="-0.000244141" x2="82" y2="55.9997" gradientUnits="userSpaceOnUse">
<stop stop-color="#3A0809"/>
<stop offset="1" stop-color="#230506"/>
</linearGradient>
</defs>
</svg>
