<svg width="196" height="56" viewBox="0 0 196 56" fill="none" xmlns="http://www.w3.org/2000/svg">
<rect y="-0.000183105" width="196" height="56" rx="8" fill="url(#paint0_linear_28_575)"/>
<g filter="url(#filter0_d_28_575)">
<path d="M47.3792 20.9229C47.1451 21.1029 43.0123 23.4111 43.0123 28.5436C43.0123 34.4802 48.2712 36.5804 48.4286 36.6324C48.4044 36.7605 47.5931 39.5087 45.6558 42.309C43.9284 44.7733 42.1243 47.2335 39.3799 47.2335C36.6354 47.2335 35.9291 45.6533 32.7608 45.6533C29.6733 45.6533 28.5755 47.2855 26.0651 47.2855C23.5547 47.2855 21.803 45.0053 19.7891 42.205C17.4563 38.9167 15.5714 33.8082 15.5714 28.9597C15.5714 21.1829 20.673 17.0585 25.6937 17.0585C28.3615 17.0585 30.5854 18.7947 32.2603 18.7947C33.8546 18.7947 36.3407 16.9545 39.3758 16.9545C40.5261 16.9545 44.6589 17.0585 47.3792 20.9229ZM37.935 13.6622C39.1902 12.186 40.0781 10.1378 40.0781 8.0896C40.0781 7.80557 40.0539 7.51755 40.0014 7.28552C37.9592 7.36153 35.5295 8.63366 34.0644 10.3178C32.9142 11.614 31.8406 13.6622 31.8406 15.7384C31.8406 16.0504 31.8931 16.3624 31.9173 16.4624C32.0464 16.4864 32.2563 16.5144 32.4662 16.5144C34.2985 16.5144 36.6031 15.2983 37.935 13.6622Z" fill="white"/>
</g>
<g filter="url(#filter1_d_28_575)">
<path d="M62.2613 24.4998H60.3977L64.5852 12.8635H66.6136L70.8011 24.4998H68.9375L65.6477 14.9771H65.5568L62.2613 24.4998ZM62.5738 19.943H68.6193V21.4203H62.5738V19.943ZM78.7173 15.7725L75.5525 24.4998H73.7343L70.5639 15.7725H72.3878L74.598 22.4884H74.6889L76.8934 15.7725H78.7173ZM82.6037 24.693C82.0506 24.693 81.5506 24.5907 81.1037 24.3862C80.6567 24.1778 80.3025 23.8767 80.0412 23.4828C79.7836 23.0888 79.6548 22.6059 79.6548 22.0339C79.6548 21.5415 79.7495 21.1362 79.9389 20.818C80.1283 20.4998 80.384 20.2479 80.7059 20.0623C81.0279 19.8767 81.3877 19.7366 81.7855 19.6419C82.1832 19.5472 82.5885 19.4752 83.0014 19.4259C83.5241 19.3653 83.9484 19.3161 84.2741 19.2782C84.5999 19.2366 84.8366 19.1703 84.9843 19.0794C85.1321 18.9885 85.2059 18.8407 85.2059 18.6362V18.5964C85.2059 18.1002 85.0658 17.7157 84.7855 17.443C84.509 17.1703 84.0961 17.0339 83.5468 17.0339C82.9749 17.0339 82.5241 17.1608 82.1946 17.4146C81.8688 17.6646 81.6434 17.943 81.5184 18.2498L79.9218 17.8862C80.1112 17.3559 80.3877 16.9278 80.7514 16.6021C81.1188 16.2725 81.5412 16.0339 82.0184 15.8862C82.4957 15.7347 82.9976 15.6589 83.5241 15.6589C83.8726 15.6589 84.2419 15.7006 84.6321 15.7839C85.026 15.8635 85.3934 16.0112 85.7343 16.2271C86.079 16.443 86.3612 16.7517 86.5809 17.1532C86.8006 17.551 86.9105 18.068 86.9105 18.7044V24.4998H85.2514V23.3066H85.1832C85.0734 23.5263 84.9086 23.7422 84.6889 23.9544C84.4692 24.1665 84.187 24.3426 83.8423 24.4828C83.4976 24.6229 83.0847 24.693 82.6037 24.693ZM82.973 23.3294C83.4427 23.3294 83.8442 23.2366 84.1775 23.0509C84.5146 22.8653 84.7703 22.6229 84.9446 22.3237C85.1226 22.0206 85.2116 21.6968 85.2116 21.3521V20.2271C85.151 20.2877 85.0336 20.3445 84.8593 20.3975C84.6889 20.4468 84.4938 20.4903 84.2741 20.5282C84.0544 20.5623 83.8404 20.5945 83.6321 20.6248C83.4237 20.6513 83.2495 20.6741 83.1093 20.693C82.7798 20.7347 82.4787 20.8047 82.2059 20.9032C81.937 21.0017 81.7211 21.1438 81.5582 21.3294C81.3991 21.5112 81.3196 21.7536 81.3196 22.0566C81.3196 22.4771 81.4749 22.7953 81.7855 23.0112C82.0961 23.2233 82.4919 23.3294 82.973 23.3294ZM89.1733 24.4998V15.7725H90.8721V24.4998H89.1733ZM90.0312 14.426C89.7358 14.426 89.482 14.3275 89.2698 14.1305C89.0615 13.9297 88.9573 13.6911 88.9573 13.4146C88.9573 13.1343 89.0615 12.8956 89.2698 12.6987C89.482 12.4979 89.7358 12.3975 90.0312 12.3975C90.3267 12.3975 90.5786 12.4979 90.7869 12.6987C90.999 12.8956 91.1051 13.1343 91.1051 13.4146C91.1051 13.6911 90.999 13.9297 90.7869 14.1305C90.5786 14.3275 90.3267 14.426 90.0312 14.426ZM94.8565 12.8635V24.4998H93.1576V12.8635H94.8565ZM99.6818 24.693C99.1287 24.693 98.6287 24.5907 98.1818 24.3862C97.7348 24.1778 97.3806 23.8767 97.1193 23.4828C96.8617 23.0888 96.7329 22.6059 96.7329 22.0339C96.7329 21.5415 96.8276 21.1362 97.017 20.818C97.2064 20.4998 97.4621 20.2479 97.784 20.0623C98.106 19.8767 98.4659 19.7366 98.8636 19.6419C99.2613 19.5472 99.6666 19.4752 100.08 19.4259C100.602 19.3653 101.026 19.3161 101.352 19.2782C101.678 19.2366 101.915 19.1703 102.062 19.0794C102.21 18.9885 102.284 18.8407 102.284 18.6362V18.5964C102.284 18.1002 102.144 17.7157 101.864 17.443C101.587 17.1703 101.174 17.0339 100.625 17.0339C100.053 17.0339 99.6022 17.1608 99.2727 17.4146C98.9469 17.6646 98.7215 17.943 98.5965 18.2498L97 17.8862C97.1894 17.3559 97.4659 16.9278 97.8295 16.6021C98.1969 16.2725 98.6193 16.0339 99.0965 15.8862C99.5738 15.7347 100.076 15.6589 100.602 15.6589C100.951 15.6589 101.32 15.7006 101.71 15.7839C102.104 15.8635 102.472 16.0112 102.812 16.2271C103.157 16.443 103.439 16.7517 103.659 17.1532C103.879 17.551 103.989 18.068 103.989 18.7044V24.4998H102.33V23.3066H102.261C102.151 23.5263 101.987 23.7422 101.767 23.9544C101.547 24.1665 101.265 24.3426 100.92 24.4828C100.576 24.6229 100.163 24.693 99.6818 24.693ZM100.051 23.3294C100.521 23.3294 100.922 23.2366 101.256 23.0509C101.593 22.8653 101.848 22.6229 102.023 22.3237C102.201 22.0206 102.29 21.6968 102.29 21.3521V20.2271C102.229 20.2877 102.112 20.3445 101.937 20.3975C101.767 20.4468 101.572 20.4903 101.352 20.5282C101.133 20.5623 100.919 20.5945 100.71 20.6248C100.502 20.6513 100.328 20.6741 100.187 20.693C99.8579 20.7347 99.5568 20.8047 99.284 20.9032C99.0151 21.0017 98.7992 21.1438 98.6363 21.3294C98.4772 21.5112 98.3977 21.7536 98.3977 22.0566C98.3977 22.4771 98.553 22.7953 98.8636 23.0112C99.1742 23.2233 99.57 23.3294 100.051 23.3294ZM106.388 24.4998V12.8635H108.087V17.1873H108.189C108.287 17.0055 108.429 16.7953 108.615 16.5566C108.801 16.318 109.058 16.1097 109.388 15.9316C109.717 15.7498 110.153 15.6589 110.695 15.6589C111.399 15.6589 112.028 15.8369 112.581 16.193C113.134 16.5491 113.568 17.0623 113.882 17.7328C114.2 18.4032 114.359 19.21 114.359 20.1532C114.359 21.0964 114.202 21.9051 113.888 22.5794C113.573 23.2498 113.142 23.7669 112.592 24.1305C112.043 24.4903 111.416 24.6703 110.712 24.6703C110.181 24.6703 109.748 24.5813 109.41 24.4032C109.077 24.2252 108.816 24.0169 108.626 23.7782C108.437 23.5396 108.291 23.3275 108.189 23.1419H108.047V24.4998H106.388ZM108.053 20.1362C108.053 20.7498 108.142 21.2877 108.32 21.7498C108.498 22.2119 108.755 22.5737 109.092 22.835C109.429 23.0926 109.842 23.2214 110.331 23.2214C110.838 23.2214 111.263 23.0869 111.604 22.818C111.945 22.5453 112.202 22.1759 112.376 21.71C112.554 21.2441 112.643 20.7195 112.643 20.1362C112.643 19.5604 112.556 19.0434 112.382 18.585C112.212 18.1267 111.954 17.765 111.609 17.4998C111.268 17.2347 110.842 17.1021 110.331 17.1021C109.838 17.1021 109.422 17.229 109.081 17.4828C108.744 17.7366 108.488 18.0907 108.314 18.5453C108.14 18.9998 108.053 19.5301 108.053 20.1362ZM117.966 12.8635V24.4998H116.267V12.8635H117.966ZM124.013 24.6759C123.153 24.6759 122.412 24.4922 121.791 24.1248C121.174 23.7536 120.696 23.2328 120.359 22.5623C120.026 21.8881 119.859 21.0983 119.859 20.193C119.859 19.2991 120.026 18.5112 120.359 17.8294C120.696 17.1475 121.166 16.6153 121.768 16.2328C122.374 15.8502 123.083 15.6589 123.893 15.6589C124.386 15.6589 124.863 15.7403 125.325 15.9032C125.787 16.0661 126.202 16.3218 126.57 16.6703C126.937 17.0188 127.227 17.4714 127.439 18.0282C127.651 18.5813 127.757 19.2536 127.757 20.0453V20.6475H120.82V19.3748H126.092C126.092 18.9278 126.001 18.532 125.82 18.1873C125.638 17.8388 125.382 17.5642 125.053 17.3635C124.727 17.1627 124.344 17.0623 123.905 17.0623C123.428 17.0623 123.011 17.1797 122.655 17.4146C122.303 17.6456 122.03 17.9487 121.837 18.3237C121.647 18.6949 121.553 19.0983 121.553 19.5339V20.5282C121.553 21.1116 121.655 21.6078 121.859 22.0169C122.068 22.4259 122.357 22.7384 122.729 22.9544C123.1 23.1665 123.534 23.2725 124.03 23.2725C124.352 23.2725 124.645 23.2271 124.91 23.1362C125.176 23.0415 125.405 22.9013 125.598 22.7157C125.791 22.5301 125.939 22.3009 126.041 22.0282L127.649 22.318C127.52 22.7915 127.289 23.2063 126.956 23.5623C126.626 23.9146 126.212 24.1892 125.712 24.3862C125.215 24.5794 124.649 24.6759 124.013 24.6759ZM137.553 24.6759C136.734 24.6759 136.02 24.4884 135.41 24.1134C134.801 23.7384 134.327 23.2138 133.99 22.5396C133.653 21.8653 133.484 21.0775 133.484 20.1759C133.484 19.2706 133.653 18.479 133.99 17.801C134.327 17.1229 134.801 16.5964 135.41 16.2214C136.02 15.8464 136.734 15.6589 137.553 15.6589C138.371 15.6589 139.085 15.8464 139.695 16.2214C140.304 16.5964 140.778 17.1229 141.115 17.801C141.452 18.479 141.621 19.2706 141.621 20.1759C141.621 21.0775 141.452 21.8653 141.115 22.5396C140.778 23.2138 140.304 23.7384 139.695 24.1134C139.085 24.4884 138.371 24.6759 137.553 24.6759ZM137.558 23.2498C138.088 23.2498 138.528 23.1097 138.876 22.8294C139.225 22.5491 139.482 22.1759 139.649 21.71C139.82 21.2441 139.905 20.7309 139.905 20.1703C139.905 19.6135 139.82 19.1021 139.649 18.6362C139.482 18.1665 139.225 17.7896 138.876 17.5055C138.528 17.2214 138.088 17.0794 137.558 17.0794C137.024 17.0794 136.581 17.2214 136.229 17.5055C135.88 17.7896 135.621 18.1665 135.45 18.6362C135.284 19.1021 135.2 19.6135 135.2 20.1703C135.2 20.7309 135.284 21.2441 135.45 21.71C135.621 22.1759 135.88 22.5491 136.229 22.8294C136.581 23.1097 137.024 23.2498 137.558 23.2498ZM145.216 19.318V24.4998H143.517V15.7725H145.148V17.193H145.256C145.456 16.7309 145.771 16.3597 146.199 16.0794C146.631 15.7991 147.174 15.6589 147.829 15.6589C148.424 15.6589 148.945 15.7839 149.392 16.0339C149.839 16.2801 150.186 16.6475 150.432 17.1362C150.678 17.6248 150.801 18.229 150.801 18.9487V24.4998H149.102V19.1532C149.102 18.5206 148.937 18.0263 148.608 17.6703C148.278 17.3104 147.826 17.1305 147.25 17.1305C146.856 17.1305 146.506 17.2157 146.199 17.3862C145.896 17.5566 145.655 17.8066 145.477 18.1362C145.303 18.4619 145.216 18.8559 145.216 19.318Z" fill="#E8E8E8"/>
<path d="M60.9357 31.1362H64.6363L67.7755 38.791H67.9204L71.0596 31.1362H74.7603V43.4998H71.8505V35.9054H71.7478L68.7777 43.4213H66.9183L63.9481 35.8631H63.8455V43.4998H60.9357V31.1362ZM79.2382 43.6568C78.6465 43.6568 78.1213 43.5582 77.6625 43.361C77.2077 43.1597 76.8475 42.8579 76.5819 42.4554C76.3203 42.0489 76.1895 41.5398 76.1895 40.9281C76.1895 40.4129 76.2801 39.9783 76.4612 39.6241C76.6423 39.2699 76.8918 38.9822 77.2097 38.7608C77.5277 38.5395 77.8939 38.3724 78.3085 38.2598C78.723 38.143 79.1657 38.0646 79.6366 38.0243C80.1638 37.976 80.5884 37.9257 80.9104 37.8734C81.2324 37.817 81.4658 37.7386 81.6107 37.638C81.7596 37.5333 81.834 37.3864 81.834 37.1973V37.1671C81.834 36.8572 81.7274 36.6177 81.5141 36.4487C81.3008 36.2796 81.013 36.1951 80.6508 36.1951C80.2604 36.1951 79.9465 36.2796 79.709 36.4487C79.4716 36.6177 79.3207 36.8511 79.2563 37.149L76.5336 37.0524C76.6141 36.4889 76.8214 35.9858 77.1554 35.5431C77.4935 35.0964 77.9563 34.7463 78.5439 34.4927C79.1355 34.2351 79.8459 34.1063 80.6749 34.1063C81.2666 34.1063 81.8119 34.1768 82.311 34.3176C82.81 34.4545 83.2447 34.6557 83.6149 34.9213C83.9852 35.1829 84.2709 35.5049 84.4722 35.8872C84.6774 36.2696 84.7801 36.7063 84.7801 37.1973V43.4998H82.0031V42.2079H81.9306C81.7656 42.5218 81.5543 42.7875 81.2967 43.0048C81.0432 43.2221 80.7434 43.3851 80.3972 43.4938C80.0552 43.6024 79.6688 43.6568 79.2382 43.6568ZM80.1497 41.725C80.4677 41.725 80.7534 41.6606 81.007 41.5318C81.2646 41.403 81.4698 41.2259 81.6227 41.0005C81.7757 40.7711 81.8521 40.5055 81.8521 40.2036V39.3223C81.7676 39.3665 81.665 39.4068 81.5443 39.443C81.4275 39.4792 81.2988 39.5134 81.1579 39.5456C81.017 39.5778 80.8722 39.606 80.7232 39.6301C80.5743 39.6543 80.4315 39.6764 80.2946 39.6965C80.0169 39.7408 79.7795 39.8092 79.5823 39.9018C79.3891 39.9944 79.2402 40.1151 79.1355 40.264C79.0349 40.4089 78.9846 40.582 78.9846 40.7832C78.9846 41.0891 79.0933 41.3225 79.3106 41.4835C79.532 41.6445 79.8117 41.725 80.1497 41.725ZM90.9136 43.6749C89.9356 43.6749 89.0965 43.4737 88.3962 43.0712C87.6999 42.6687 87.1646 42.1093 86.7904 41.3929C86.4161 40.6725 86.2289 39.8394 86.2289 38.8936C86.2289 37.9438 86.4161 37.1107 86.7904 36.3943C87.1687 35.6739 87.706 35.1125 88.4022 34.71C89.1025 34.3076 89.9376 34.1063 90.9075 34.1063C91.7648 34.1063 92.5114 34.2613 93.1472 34.5712C93.7872 34.8811 94.2862 35.3198 94.6444 35.8872C95.0066 36.4507 95.1978 37.1127 95.2179 37.8734H92.459C92.4027 37.3985 92.2417 37.0262 91.9761 36.7566C91.7145 36.4869 91.3724 36.3521 90.9498 36.3521C90.6077 36.3521 90.3079 36.4487 90.0503 36.6419C89.7927 36.831 89.5915 37.1127 89.4466 37.487C89.3057 37.8573 89.2353 38.3161 89.2353 38.8635C89.2353 39.4108 89.3057 39.8736 89.4466 40.2519C89.5915 40.6262 89.7927 40.91 90.0503 41.1032C90.3079 41.2923 90.6077 41.3869 90.9498 41.3869C91.2235 41.3869 91.465 41.3285 91.6742 41.2118C91.8875 41.0951 92.0626 40.9241 92.1994 40.6987C92.3363 40.4693 92.4228 40.1916 92.459 39.8656H95.2179C95.1897 40.6303 94.9986 41.2983 94.6444 41.8698C94.2943 42.4413 93.8012 42.8861 93.1654 43.204C92.5335 43.5179 91.7829 43.6749 90.9136 43.6749ZM103.055 43.4998H99.8437L104.015 31.1362H107.994L112.165 43.4998H108.953L106.05 34.2512H105.953L103.055 43.4998ZM102.627 38.634H109.34V40.9039H102.627V38.634ZM113.496 46.9771V34.2271H116.418V35.8148H116.509C116.629 35.5331 116.8 35.2614 117.022 34.9998C117.247 34.7382 117.533 34.5249 117.879 34.3599C118.229 34.1909 118.648 34.1063 119.135 34.1063C119.779 34.1063 120.38 34.2754 120.94 34.6135C121.503 34.9515 121.958 35.4727 122.304 36.177C122.65 36.8813 122.823 37.7788 122.823 38.8695C122.823 39.9199 122.656 40.7993 122.322 41.5076C121.992 42.216 121.545 42.7472 120.982 43.1014C120.423 43.4555 119.801 43.6326 119.117 43.6326C118.65 43.6326 118.245 43.5562 117.903 43.4032C117.561 43.2503 117.273 43.0491 117.04 42.7995C116.81 42.55 116.633 42.2824 116.509 41.9966H116.448V46.9771H113.496ZM116.388 38.8635C116.388 39.3625 116.454 39.7972 116.587 40.1674C116.724 40.5377 116.919 40.8255 117.173 41.0307C117.43 41.2319 117.738 41.3326 118.096 41.3326C118.459 41.3326 118.766 41.2319 119.02 41.0307C119.274 40.8255 119.465 40.5377 119.594 40.1674C119.726 39.7972 119.793 39.3625 119.793 38.8635C119.793 38.3644 119.726 37.9318 119.594 37.5655C119.465 37.1993 119.274 36.9155 119.02 36.7143C118.77 36.5131 118.463 36.4125 118.096 36.4125C117.734 36.4125 117.426 36.5111 117.173 36.7083C116.919 36.9055 116.724 37.1872 116.587 37.5534C116.454 37.9197 116.388 38.3563 116.388 38.8635ZM124.37 46.9771V34.2271H127.292V35.8148H127.383C127.503 35.5331 127.674 35.2614 127.896 34.9998C128.121 34.7382 128.407 34.5249 128.753 34.3599C129.103 34.1909 129.522 34.1063 130.009 34.1063C130.653 34.1063 131.254 34.2754 131.814 34.6135C132.377 34.9515 132.832 35.4727 133.178 36.177C133.524 36.8813 133.697 37.7788 133.697 38.8695C133.697 39.9199 133.53 40.7993 133.196 41.5076C132.866 42.216 132.419 42.7472 131.856 43.1014C131.297 43.4555 130.675 43.6326 129.991 43.6326C129.524 43.6326 129.119 43.5562 128.777 43.4032C128.435 43.2503 128.147 43.0491 127.914 42.7995C127.685 42.55 127.507 42.2824 127.383 41.9966H127.322V46.9771H124.37ZM127.262 38.8635C127.262 39.3625 127.328 39.7972 127.461 40.1674C127.598 40.5377 127.793 40.8255 128.047 41.0307C128.304 41.2319 128.612 41.3326 128.97 41.3326C129.333 41.3326 129.64 41.2319 129.894 41.0307C130.148 40.8255 130.339 40.5377 130.468 40.1674C130.6 39.7972 130.667 39.3625 130.667 38.8635C130.667 38.3644 130.6 37.9318 130.468 37.5655C130.339 37.1993 130.148 36.9155 129.894 36.7143C129.645 36.5131 129.337 36.4125 128.97 36.4125C128.608 36.4125 128.3 36.5111 128.047 36.7083C127.793 36.9055 127.598 37.1872 127.461 37.5534C127.328 37.9197 127.262 38.3563 127.262 38.8635ZM145.579 34.8429C145.539 34.4001 145.36 34.056 145.042 33.8105C144.728 33.561 144.28 33.4362 143.696 33.4362C143.31 33.4362 142.988 33.4866 142.73 33.5872C142.472 33.6878 142.279 33.8266 142.151 34.0037C142.022 34.1768 141.955 34.376 141.951 34.6014C141.943 34.7865 141.979 34.9495 142.06 35.0904C142.144 35.2312 142.265 35.356 142.422 35.4647C142.583 35.5693 142.776 35.6619 143.002 35.7424C143.227 35.8228 143.481 35.8933 143.762 35.9536L144.825 36.1951C145.437 36.3279 145.976 36.505 146.443 36.7264C146.914 36.9477 147.308 37.2113 147.626 37.5172C147.948 37.8231 148.191 38.1752 148.356 38.5737C148.521 38.9721 148.606 39.4188 148.61 39.9139C148.606 40.6947 148.409 41.3648 148.018 41.9242C147.628 42.4836 147.067 42.9122 146.334 43.21C145.606 43.5079 144.726 43.6568 143.696 43.6568C142.662 43.6568 141.76 43.5018 140.991 43.1919C140.223 42.882 139.625 42.4112 139.198 41.7793C138.772 41.1474 138.553 40.3485 138.54 39.3826H141.402C141.426 39.7811 141.533 40.1131 141.722 40.3787C141.911 40.6443 142.171 40.8456 142.501 40.9824C142.835 41.1192 143.221 41.1877 143.66 41.1877C144.062 41.1877 144.404 41.1333 144.686 41.0247C144.972 40.916 145.191 40.7651 145.344 40.5719C145.497 40.3787 145.575 40.1574 145.579 39.9078C145.575 39.6744 145.503 39.4752 145.362 39.3102C145.221 39.1411 145.004 38.9963 144.71 38.8755C144.42 38.7508 144.05 38.6361 143.599 38.5314L142.307 38.2296C141.237 37.9841 140.394 37.5876 139.778 37.0403C139.162 36.4889 138.856 35.7444 138.86 34.8066C138.856 34.042 139.062 33.3719 139.476 32.7963C139.891 32.2208 140.464 31.7721 141.197 31.4501C141.929 31.1281 142.764 30.9671 143.702 30.9671C144.66 30.9671 145.491 31.1301 146.195 31.4561C146.904 31.7781 147.453 32.2309 147.843 32.8144C148.234 33.398 148.433 34.0742 148.441 34.8429H145.579ZM155.353 34.2271V36.4004H149.503V34.2271H155.353ZM150.729 32.0055H153.681V40.584C153.681 40.7651 153.709 40.912 153.766 41.0247C153.826 41.1333 153.912 41.2118 154.025 41.2601C154.138 41.3044 154.273 41.3265 154.43 41.3265C154.542 41.3265 154.661 41.3165 154.786 41.2963C154.915 41.2722 155.011 41.2521 155.076 41.236L155.522 43.367C155.381 43.4072 155.182 43.4576 154.925 43.5179C154.671 43.5783 154.367 43.6165 154.013 43.6326C153.321 43.6648 152.727 43.5843 152.232 43.3911C151.741 43.1939 151.365 42.8881 151.103 42.4735C150.846 42.059 150.721 41.5378 150.729 40.91V32.0055ZM161.088 43.6749C160.114 43.6749 159.277 43.4757 158.577 43.0772C157.881 42.6748 157.343 42.1153 156.965 41.399C156.591 40.6786 156.404 39.8434 156.404 38.8936C156.404 37.9398 156.591 37.1047 156.965 36.3883C157.343 35.6679 157.881 35.1085 158.577 34.71C159.277 34.3076 160.114 34.1063 161.088 34.1063C162.062 34.1063 162.897 34.3076 163.594 34.71C164.294 35.1085 164.831 35.6679 165.206 36.3883C165.584 37.1047 165.773 37.9398 165.773 38.8936C165.773 39.8434 165.584 40.6786 165.206 41.399C164.831 42.1153 164.294 42.6748 163.594 43.0772C162.897 43.4757 162.062 43.6749 161.088 43.6749ZM161.106 41.4473C161.461 41.4473 161.76 41.3386 162.006 41.1213C162.251 40.9039 162.439 40.6021 162.567 40.2157C162.7 39.8294 162.767 39.3826 162.767 38.8755C162.767 38.3604 162.7 37.9096 162.567 37.5233C162.439 37.1369 162.251 36.835 162.006 36.6177C161.76 36.4004 161.461 36.2917 161.106 36.2917C160.74 36.2917 160.43 36.4004 160.177 36.6177C159.927 36.835 159.736 37.1369 159.603 37.5233C159.474 37.9096 159.41 38.3604 159.41 38.8755C159.41 39.3826 159.474 39.8294 159.603 40.2157C159.736 40.6021 159.927 40.9039 160.177 41.1213C160.43 41.3386 160.74 41.4473 161.106 41.4473ZM167.285 43.4998V34.2271H170.153V35.9174H170.249C170.418 35.3057 170.694 34.8509 171.076 34.5531C171.459 34.2512 171.904 34.1003 172.411 34.1003C172.547 34.1003 172.688 34.1104 172.833 34.1305C172.978 34.1466 173.113 34.1728 173.238 34.209V36.7747C173.097 36.7264 172.912 36.6881 172.682 36.66C172.457 36.6318 172.256 36.6177 172.079 36.6177C171.728 36.6177 171.413 36.6962 171.131 36.8532C170.853 37.0061 170.634 37.2214 170.473 37.4991C170.316 37.7728 170.237 38.0947 170.237 38.465V43.4998H167.285ZM178.294 43.6749C177.324 43.6749 176.487 43.4837 175.782 43.1014C175.082 42.715 174.543 42.1657 174.164 41.4533C173.79 40.7369 173.603 39.8857 173.603 38.8997C173.603 37.9418 173.792 37.1047 174.17 36.3883C174.549 35.6679 175.082 35.1085 175.77 34.71C176.458 34.3076 177.269 34.1063 178.203 34.1063C178.863 34.1063 179.467 34.209 180.014 34.4142C180.561 34.6195 181.034 34.9233 181.433 35.3258C181.831 35.7283 182.141 36.2253 182.363 36.8169C182.584 37.4045 182.695 38.0786 182.695 38.8393V39.5758H174.635V37.8613H179.948C179.944 37.5474 179.869 37.2677 179.724 37.0222C179.579 36.7767 179.38 36.5855 179.127 36.4487C178.877 36.3078 178.589 36.2374 178.263 36.2374C177.933 36.2374 177.638 36.3118 177.376 36.4608C177.114 36.6056 176.907 36.8049 176.754 37.0584C176.601 37.3079 176.521 37.5917 176.513 37.9096V39.6543C176.513 40.0326 176.587 40.3646 176.736 40.6504C176.885 40.9321 177.096 41.1514 177.37 41.3084C177.644 41.4654 177.97 41.5438 178.348 41.5438C178.61 41.5438 178.847 41.5076 179.06 41.4352C179.274 41.3627 179.457 41.2561 179.61 41.1152C179.763 40.9744 179.877 40.8013 179.954 40.596L182.664 40.6745C182.552 41.2822 182.304 41.8115 181.922 42.2622C181.543 42.709 181.046 43.0571 180.431 43.3066C179.815 43.5521 179.103 43.6749 178.294 43.6749Z" fill="white"/>
</g>
<rect x="1.05" y="1.04982" width="193.9" height="53.9" rx="6.95" stroke="white" stroke-opacity="0.15" stroke-width="2.1"/>
<defs>
<filter id="filter0_d_28_575" x="6.28571" y="1.57124" width="51.4286" height="52.1429" filterUnits="userSpaceOnUse" color-interpolation-filters="sRGB">
<feFlood flood-opacity="0" result="BackgroundImageFix"/>
<feColorMatrix in="SourceAlpha" type="matrix" values="0 0 0 0 0 0 0 0 0 0 0 0 0 0 0 0 0 0 127 0" result="hardAlpha"/>
<feOffset/>
<feGaussianBlur stdDeviation="2.85714"/>
<feComposite in2="hardAlpha" operator="out"/>
<feColorMatrix type="matrix" values="0 0 0 0 0 0 0 0 0 0 0 0 0 0 0 0 0 0 0.25 0"/>
<feBlend mode="normal" in2="BackgroundImageFix" result="effect1_dropShadow_28_575"/>
<feBlend mode="normal" in="SourceGraphic" in2="effect1_dropShadow_28_575" result="shape"/>
</filter>
<filter id="filter1_d_28_575" x="54.4" y="3.89982" width="135.2" height="48.6773" filterUnits="userSpaceOnUse" color-interpolation-filters="sRGB">
<feFlood flood-opacity="0" result="BackgroundImageFix"/>
<feColorMatrix in="SourceAlpha" type="matrix" values="0 0 0 0 0 0 0 0 0 0 0 0 0 0 0 0 0 0 127 0" result="hardAlpha"/>
<feOffset/>
<feGaussianBlur stdDeviation="2.8"/>
<feComposite in2="hardAlpha" operator="out"/>
<feColorMatrix type="matrix" values="0 0 0 0 0 0 0 0 0 0 0 0 0 0 0 0 0 0 0.25 0"/>
<feBlend mode="normal" in2="BackgroundImageFix" result="effect1_dropShadow_28_575"/>
<feBlend mode="normal" in="SourceGraphic" in2="effect1_dropShadow_28_575" result="shape"/>
</filter>
<linearGradient id="paint0_linear_28_575" x1="98" y1="-0.000183105" x2="98" y2="55.9998" gradientUnits="userSpaceOnUse">
<stop stop-color="#1E1E1E"/>
<stop offset="1" stop-color="#0D0D0D"/>
</linearGradient>
</defs>
</svg>
