<svg width="200" height="56" viewBox="0 0 200 56" fill="none" xmlns="http://www.w3.org/2000/svg">
<rect y="-0.000183105" width="200" height="56" rx="8" fill="url(#paint0_linear_28_575)"/>
<g filter="url(#filter0_d_28_575)">
<path d="M47.3792 20.9229C47.1451 21.1029 43.0123 23.4111 43.0123 28.5436C43.0123 34.4802 48.2712 36.5804 48.4286 36.6324C48.4044 36.7605 47.5931 39.5087 45.6558 42.309C43.9284 44.7733 42.1243 47.2335 39.3799 47.2335C36.6354 47.2335 35.9291 45.6533 32.7608 45.6533C29.6733 45.6533 28.5755 47.2855 26.0651 47.2855C23.5547 47.2855 21.803 45.0053 19.7891 42.205C17.4563 38.9167 15.5714 33.8082 15.5714 28.9597C15.5714 21.1829 20.673 17.0585 25.6937 17.0585C28.3615 17.0585 30.5854 18.7947 32.2603 18.7947C33.8546 18.7947 36.3407 16.9545 39.3758 16.9545C40.5261 16.9545 44.6589 17.0585 47.3792 20.9229V20.9229ZM37.935 13.6622C39.1902 12.186 40.0781 10.1378 40.0781 8.0896C40.0781 7.80557 40.0539 7.51755 40.0014 7.28552C37.9592 7.36153 35.5295 8.63366 34.0644 10.3178C32.9142 11.614 31.8406 13.6622 31.8406 15.7384C31.8406 16.0504 31.8931 16.3624 31.9173 16.4624C32.0464 16.4864 32.2563 16.5144 32.4662 16.5144C34.2985 16.5144 36.6031 15.2983 37.935 13.6622Z" fill="white"/>
</g>
<g filter="url(#filter1_d_28_575)">
<path d="M66.2613 24.4998H64.3977L68.5852 12.8635H70.6136L74.8011 24.4998H72.9375L69.6477 14.9771H69.5568L66.2613 24.4998ZM66.5738 19.943H72.6193V21.4203H66.5738V19.943ZM82.7173 15.7725L79.5525 24.4998H77.7343L74.5639 15.7725H76.3878L78.598 22.4884H78.6889L80.8934 15.7725H82.7173ZM86.6037 24.693C86.0506 24.693 85.5506 24.5907 85.1037 24.3862C84.6567 24.1778 84.3025 23.8767 84.0412 23.4828C83.7836 23.0888 83.6548 22.6059 83.6548 22.0339C83.6548 21.5415 83.7495 21.1362 83.9389 20.818C84.1283 20.4998 84.384 20.2479 84.7059 20.0623C85.0279 19.8767 85.3877 19.7366 85.7855 19.6419C86.1832 19.5472 86.5885 19.4752 87.0014 19.4259C87.5241 19.3653 87.9484 19.3161 88.2741 19.2782C88.5999 19.2366 88.8366 19.1703 88.9843 19.0794C89.1321 18.9885 89.2059 18.8407 89.2059 18.6362V18.5964C89.2059 18.1002 89.0658 17.7157 88.7855 17.443C88.509 17.1703 88.0961 17.0339 87.5468 17.0339C86.9749 17.0339 86.5241 17.1608 86.1946 17.4146C85.8688 17.6646 85.6434 17.943 85.5184 18.2498L83.9218 17.8862C84.1112 17.3559 84.3877 16.9278 84.7514 16.6021C85.1188 16.2725 85.5412 16.0339 86.0184 15.8862C86.4957 15.7347 86.9976 15.6589 87.5241 15.6589C87.8726 15.6589 88.2419 15.7006 88.6321 15.7839C89.026 15.8635 89.3934 16.0112 89.7343 16.2271C90.079 16.443 90.3612 16.7517 90.5809 17.1532C90.8006 17.551 90.9105 18.068 90.9105 18.7044V24.4998H89.2514V23.3066H89.1832C89.0734 23.5263 88.9086 23.7422 88.6889 23.9544C88.4692 24.1665 88.187 24.3426 87.8423 24.4828C87.4976 24.6229 87.0847 24.693 86.6037 24.693ZM86.973 23.3294C87.4427 23.3294 87.8442 23.2366 88.1775 23.0509C88.5146 22.8653 88.7703 22.6229 88.9446 22.3237C89.1226 22.0206 89.2116 21.6968 89.2116 21.3521V20.2271C89.151 20.2877 89.0336 20.3445 88.8593 20.3975C88.6889 20.4468 88.4938 20.4903 88.2741 20.5282C88.0544 20.5623 87.8404 20.5945 87.6321 20.6248C87.4237 20.6513 87.2495 20.6741 87.1093 20.693C86.7798 20.7347 86.4787 20.8047 86.2059 20.9032C85.937 21.0017 85.7211 21.1438 85.5582 21.3294C85.3991 21.5112 85.3196 21.7536 85.3196 22.0566C85.3196 22.4771 85.4749 22.7953 85.7855 23.0112C86.0961 23.2233 86.4919 23.3294 86.973 23.3294ZM93.1733 24.4998V15.7725H94.8721V24.4998H93.1733ZM94.0312 14.426C93.7358 14.426 93.482 14.3275 93.2698 14.1305C93.0615 13.9297 92.9573 13.6911 92.9573 13.4146C92.9573 13.1343 93.0615 12.8956 93.2698 12.6987C93.482 12.4979 93.7358 12.3975 94.0312 12.3975C94.3267 12.3975 94.5786 12.4979 94.7869 12.6987C94.999 12.8956 95.1051 13.1343 95.1051 13.4146C95.1051 13.6911 94.999 13.9297 94.7869 14.1305C94.5786 14.3275 94.3267 14.426 94.0312 14.426ZM98.8565 12.8635V24.4998H97.1576V12.8635H98.8565ZM103.682 24.693C103.129 24.693 102.629 24.5907 102.182 24.3862C101.735 24.1778 101.381 23.8767 101.119 23.4828C100.862 23.0888 100.733 22.6059 100.733 22.0339C100.733 21.5415 100.828 21.1362 101.017 20.818C101.206 20.4998 101.462 20.2479 101.784 20.0623C102.106 19.8767 102.466 19.7366 102.864 19.6419C103.261 19.5472 103.667 19.4752 104.08 19.4259C104.602 19.3653 105.026 19.3161 105.352 19.2782C105.678 19.2366 105.915 19.1703 106.062 19.0794C106.21 18.9885 106.284 18.8407 106.284 18.6362V18.5964C106.284 18.1002 106.144 17.7157 105.864 17.443C105.587 17.1703 105.174 17.0339 104.625 17.0339C104.053 17.0339 103.602 17.1608 103.273 17.4146C102.947 17.6646 102.722 17.943 102.597 18.2498L101 17.8862C101.189 17.3559 101.466 16.9278 101.83 16.6021C102.197 16.2725 102.619 16.0339 103.097 15.8862C103.574 15.7347 104.076 15.6589 104.602 15.6589C104.951 15.6589 105.32 15.7006 105.71 15.7839C106.104 15.8635 106.472 16.0112 106.812 16.2271C107.157 16.443 107.439 16.7517 107.659 17.1532C107.879 17.551 107.989 18.068 107.989 18.7044V24.4998H106.33V23.3066H106.261C106.151 23.5263 105.987 23.7422 105.767 23.9544C105.547 24.1665 105.265 24.3426 104.92 24.4828C104.576 24.6229 104.163 24.693 103.682 24.693ZM104.051 23.3294C104.521 23.3294 104.922 23.2366 105.256 23.0509C105.593 22.8653 105.848 22.6229 106.023 22.3237C106.201 22.0206 106.29 21.6968 106.29 21.3521V20.2271C106.229 20.2877 106.112 20.3445 105.937 20.3975C105.767 20.4468 105.572 20.4903 105.352 20.5282C105.133 20.5623 104.919 20.5945 104.71 20.6248C104.502 20.6513 104.328 20.6741 104.187 20.693C103.858 20.7347 103.557 20.8047 103.284 20.9032C103.015 21.0017 102.799 21.1438 102.636 21.3294C102.477 21.5112 102.398 21.7536 102.398 22.0566C102.398 22.4771 102.553 22.7953 102.864 23.0112C103.174 23.2233 103.57 23.3294 104.051 23.3294ZM110.388 24.4998V12.8635H112.087V17.1873H112.189C112.287 17.0055 112.429 16.7953 112.615 16.5566C112.801 16.318 113.058 16.1097 113.388 15.9316C113.717 15.7498 114.153 15.6589 114.695 15.6589C115.399 15.6589 116.028 15.8369 116.581 16.193C117.134 16.5491 117.568 17.0623 117.882 17.7328C118.2 18.4032 118.359 19.21 118.359 20.1532C118.359 21.0964 118.202 21.9051 117.888 22.5794C117.573 23.2498 117.142 23.7669 116.592 24.1305C116.043 24.4903 115.416 24.6703 114.712 24.6703C114.181 24.6703 113.748 24.5813 113.41 24.4032C113.077 24.2252 112.816 24.0169 112.626 23.7782C112.437 23.5396 112.291 23.3275 112.189 23.1419H112.047V24.4998H110.388ZM112.053 20.1362C112.053 20.7498 112.142 21.2877 112.32 21.7498C112.498 22.2119 112.755 22.5737 113.092 22.835C113.429 23.0926 113.842 23.2214 114.331 23.2214C114.838 23.2214 115.263 23.0869 115.604 22.818C115.945 22.5453 116.202 22.1759 116.376 21.71C116.554 21.2441 116.643 20.7195 116.643 20.1362C116.643 19.5604 116.556 19.0434 116.382 18.585C116.212 18.1267 115.954 17.765 115.609 17.4998C115.268 17.2347 114.842 17.1021 114.331 17.1021C113.838 17.1021 113.422 17.229 113.081 17.4828C112.744 17.7366 112.488 18.0907 112.314 18.5453C112.14 18.9998 112.053 19.5301 112.053 20.1362ZM121.966 12.8635V24.4998H120.267V12.8635H121.966ZM128.013 24.6759C127.153 24.6759 126.412 24.4922 125.791 24.1248C125.174 23.7536 124.696 23.2328 124.359 22.5623C124.026 21.8881 123.859 21.0983 123.859 20.193C123.859 19.2991 124.026 18.5112 124.359 17.8294C124.696 17.1475 125.166 16.6153 125.768 16.2328C126.374 15.8502 127.083 15.6589 127.893 15.6589C128.386 15.6589 128.863 15.7403 129.325 15.9032C129.787 16.0661 130.202 16.3218 130.57 16.6703C130.937 17.0188 131.227 17.4714 131.439 18.0282C131.651 18.5813 131.757 19.2536 131.757 20.0453V20.6475H124.82V19.3748H130.092C130.092 18.9278 130.001 18.532 129.82 18.1873C129.638 17.8388 129.382 17.5642 129.053 17.3635C128.727 17.1627 128.344 17.0623 127.905 17.0623C127.428 17.0623 127.011 17.1797 126.655 17.4146C126.303 17.6456 126.03 17.9487 125.837 18.3237C125.647 18.6949 125.553 19.0983 125.553 19.5339V20.5282C125.553 21.1116 125.655 21.6078 125.859 22.0169C126.068 22.4259 126.357 22.7384 126.729 22.9544C127.1 23.1665 127.534 23.2725 128.03 23.2725C128.352 23.2725 128.645 23.2271 128.91 23.1362C129.176 23.0415 129.405 22.9013 129.598 22.7157C129.791 22.5301 129.939 22.3009 130.041 22.0282L131.649 22.318C131.52 22.7915 131.289 23.2063 130.956 23.5623C130.626 23.9146 130.212 24.1892 129.712 24.3862C129.215 24.5794 128.649 24.6759 128.013 24.6759ZM141.553 24.6759C140.734 24.6759 140.02 24.4884 139.41 24.1134C138.801 23.7384 138.327 23.2138 137.99 22.5396C137.653 21.8653 137.484 21.0775 137.484 20.1759C137.484 19.2706 137.653 18.479 137.99 17.801C138.327 17.1229 138.801 16.5964 139.41 16.2214C140.02 15.8464 140.734 15.6589 141.553 15.6589C142.371 15.6589 143.085 15.8464 143.695 16.2214C144.304 16.5964 144.778 17.1229 145.115 17.801C145.452 18.479 145.621 19.2706 145.621 20.1759C145.621 21.0775 145.452 21.8653 145.115 22.5396C144.778 23.2138 144.304 23.7384 143.695 24.1134C143.085 24.4884 142.371 24.6759 141.553 24.6759ZM141.558 23.2498C142.088 23.2498 142.528 23.1097 142.876 22.8294C143.225 22.5491 143.482 22.1759 143.649 21.71C143.82 21.2441 143.905 20.7309 143.905 20.1703C143.905 19.6135 143.82 19.1021 143.649 18.6362C143.482 18.1665 143.225 17.7896 142.876 17.5055C142.528 17.2214 142.088 17.0794 141.558 17.0794C141.024 17.0794 140.581 17.2214 140.229 17.5055C139.88 17.7896 139.621 18.1665 139.45 18.6362C139.284 19.1021 139.2 19.6135 139.2 20.1703C139.2 20.7309 139.284 21.2441 139.45 21.71C139.621 22.1759 139.88 22.5491 140.229 22.8294C140.581 23.1097 141.024 23.2498 141.558 23.2498ZM149.216 19.318V24.4998H147.517V15.7725H149.148V17.193H149.256C149.456 16.7309 149.771 16.3597 150.199 16.0794C150.631 15.7991 151.174 15.6589 151.829 15.6589C152.424 15.6589 152.945 15.7839 153.392 16.0339C153.839 16.2801 154.186 16.6475 154.432 17.1362C154.678 17.6248 154.801 18.229 154.801 18.9487V24.4998H153.102V19.1532C153.102 18.5206 152.937 18.0263 152.608 17.6703C152.278 17.3104 151.826 17.1305 151.25 17.1305C150.856 17.1305 150.506 17.2157 150.199 17.3862C149.896 17.5566 149.655 17.8066 149.477 18.1362C149.303 18.4619 149.216 18.8559 149.216 19.318Z" fill="#E8E8E8"/>
<path d="M64.9357 31.1362H68.6363L71.7755 38.791H71.9204L75.0596 31.1362H78.7603V43.4998H75.8505V35.9054H75.7478L72.7777 43.4213H70.9183L67.9481 35.8631H67.8455V43.4998H64.9357V31.1362ZM83.2382 43.6568C82.6465 43.6568 82.1213 43.5582 81.6625 43.361C81.2077 43.1597 80.8475 42.8579 80.5819 42.4554C80.3203 42.0489 80.1895 41.5398 80.1895 40.9281C80.1895 40.4129 80.2801 39.9783 80.4612 39.6241C80.6423 39.2699 80.8918 38.9822 81.2097 38.7608C81.5277 38.5395 81.8939 38.3724 82.3085 38.2598C82.723 38.143 83.1657 38.0646 83.6366 38.0243C84.1638 37.976 84.5884 37.9257 84.9104 37.8734C85.2324 37.817 85.4658 37.7386 85.6107 37.638C85.7596 37.5333 85.834 37.3864 85.834 37.1973V37.1671C85.834 36.8572 85.7274 36.6177 85.5141 36.4487C85.3008 36.2796 85.013 36.1951 84.6508 36.1951C84.2604 36.1951 83.9465 36.2796 83.709 36.4487C83.4716 36.6177 83.3207 36.8511 83.2563 37.149L80.5336 37.0524C80.6141 36.4889 80.8214 35.9858 81.1554 35.5431C81.4935 35.0964 81.9563 34.7463 82.5439 34.4927C83.1355 34.2351 83.8459 34.1063 84.6749 34.1063C85.2666 34.1063 85.8119 34.1768 86.311 34.3176C86.81 34.4545 87.2447 34.6557 87.6149 34.9213C87.9852 35.1829 88.2709 35.5049 88.4722 35.8872C88.6774 36.2696 88.7801 36.7063 88.7801 37.1973V43.4998H86.0031V42.2079H85.9306C85.7656 42.5218 85.5543 42.7875 85.2967 43.0048C85.0432 43.2221 84.7434 43.3851 84.3972 43.4938C84.0552 43.6024 83.6688 43.6568 83.2382 43.6568ZM84.1497 41.725C84.4677 41.725 84.7534 41.6606 85.007 41.5318C85.2646 41.403 85.4698 41.2259 85.6227 41.0005C85.7757 40.7711 85.8521 40.5055 85.8521 40.2036V39.3223C85.7676 39.3665 85.665 39.4068 85.5443 39.443C85.4275 39.4792 85.2988 39.5134 85.1579 39.5456C85.017 39.5778 84.8722 39.606 84.7232 39.6301C84.5743 39.6543 84.4315 39.6764 84.2946 39.6965C84.0169 39.7408 83.7795 39.8092 83.5823 39.9018C83.3891 39.9944 83.2402 40.1151 83.1355 40.264C83.0349 40.4089 82.9846 40.582 82.9846 40.7832C82.9846 41.0891 83.0933 41.3225 83.3106 41.4835C83.532 41.6445 83.8117 41.725 84.1497 41.725ZM94.9136 43.6749C93.9356 43.6749 93.0965 43.4737 92.3962 43.0712C91.6999 42.6687 91.1646 42.1093 90.7904 41.3929C90.4161 40.6725 90.2289 39.8394 90.2289 38.8936C90.2289 37.9438 90.4161 37.1107 90.7904 36.3943C91.1687 35.6739 91.706 35.1125 92.4022 34.71C93.1025 34.3076 93.9376 34.1063 94.9075 34.1063C95.7648 34.1063 96.5114 34.2613 97.1472 34.5712C97.7872 34.8811 98.2862 35.3198 98.6444 35.8872C99.0066 36.4507 99.1978 37.1127 99.2179 37.8734H96.459C96.4027 37.3985 96.2417 37.0262 95.9761 36.7566C95.7145 36.4869 95.3724 36.3521 94.9498 36.3521C94.6077 36.3521 94.3079 36.4487 94.0503 36.6419C93.7927 36.831 93.5915 37.1127 93.4466 37.487C93.3057 37.8573 93.2353 38.3161 93.2353 38.8635C93.2353 39.4108 93.3057 39.8736 93.4466 40.2519C93.5915 40.6262 93.7927 40.91 94.0503 41.1032C94.3079 41.2923 94.6077 41.3869 94.9498 41.3869C95.2235 41.3869 95.465 41.3285 95.6742 41.2118C95.8875 41.0951 96.0626 40.9241 96.1994 40.6987C96.3363 40.4693 96.4228 40.1916 96.459 39.8656H99.2179C99.1897 40.6303 98.9986 41.2983 98.6444 41.8698C98.2943 42.4413 97.8012 42.8861 97.1654 43.204C96.5335 43.5179 95.7829 43.6749 94.9136 43.6749ZM107.055 43.4998H103.844L108.015 31.1362H111.994L116.165 43.4998H112.953L110.05 34.2512H109.953L107.055 43.4998ZM106.627 38.634H113.34V40.9039H106.627V38.634ZM117.496 46.9771V34.2271H120.418V35.8148H120.509C120.629 35.5331 120.8 35.2614 121.022 34.9998C121.247 34.7382 121.533 34.5249 121.879 34.3599C122.229 34.1909 122.648 34.1063 123.135 34.1063C123.779 34.1063 124.38 34.2754 124.94 34.6135C125.503 34.9515 125.958 35.4727 126.304 36.177C126.65 36.8813 126.823 37.7788 126.823 38.8695C126.823 39.9199 126.656 40.7993 126.322 41.5076C125.992 42.216 125.545 42.7472 124.982 43.1014C124.423 43.4555 123.801 43.6326 123.117 43.6326C122.65 43.6326 122.245 43.5562 121.903 43.4032C121.561 43.2503 121.273 43.0491 121.04 42.7995C120.81 42.55 120.633 42.2824 120.509 41.9966H120.448V46.9771H117.496ZM120.388 38.8635C120.388 39.3625 120.454 39.7972 120.587 40.1674C120.724 40.5377 120.919 40.8255 121.173 41.0307C121.43 41.2319 121.738 41.3326 122.096 41.3326C122.459 41.3326 122.766 41.2319 123.02 41.0307C123.274 40.8255 123.465 40.5377 123.594 40.1674C123.726 39.7972 123.793 39.3625 123.793 38.8635C123.793 38.3644 123.726 37.9318 123.594 37.5655C123.465 37.1993 123.274 36.9155 123.02 36.7143C122.77 36.5131 122.463 36.4125 122.096 36.4125C121.734 36.4125 121.426 36.5111 121.173 36.7083C120.919 36.9055 120.724 37.1872 120.587 37.5534C120.454 37.9197 120.388 38.3563 120.388 38.8635ZM128.37 46.9771V34.2271H131.292V35.8148H131.383C131.503 35.5331 131.674 35.2614 131.896 34.9998C132.121 34.7382 132.407 34.5249 132.753 34.3599C133.103 34.1909 133.522 34.1063 134.009 34.1063C134.653 34.1063 135.254 34.2754 135.814 34.6135C136.377 34.9515 136.832 35.4727 137.178 36.177C137.524 36.8813 137.697 37.7788 137.697 38.8695C137.697 39.9199 137.53 40.7993 137.196 41.5076C136.866 42.216 136.419 42.7472 135.856 43.1014C135.297 43.4555 134.675 43.6326 133.991 43.6326C133.524 43.6326 133.119 43.5562 132.777 43.4032C132.435 43.2503 132.147 43.0491 131.914 42.7995C131.685 42.55 131.507 42.2824 131.383 41.9966H131.322V46.9771H128.37ZM131.262 38.8635C131.262 39.3625 131.328 39.7972 131.461 40.1674C131.598 40.5377 131.793 40.8255 132.047 41.0307C132.304 41.2319 132.612 41.3326 132.97 41.3326C133.333 41.3326 133.64 41.2319 133.894 41.0307C134.148 40.8255 134.339 40.5377 134.468 40.1674C134.6 39.7972 134.667 39.3625 134.667 38.8635C134.667 38.3644 134.6 37.9318 134.468 37.5655C134.339 37.1993 134.148 36.9155 133.894 36.7143C133.645 36.5131 133.337 36.4125 132.97 36.4125C132.608 36.4125 132.3 36.5111 132.047 36.7083C131.793 36.9055 131.598 37.1872 131.461 37.5534C131.328 37.9197 131.262 38.3563 131.262 38.8635ZM149.579 34.8429C149.539 34.4001 149.36 34.056 149.042 33.8105C148.728 33.561 148.28 33.4362 147.696 33.4362C147.31 33.4362 146.988 33.4866 146.73 33.5872C146.472 33.6878 146.279 33.8266 146.151 34.0037C146.022 34.1768 145.955 34.376 145.951 34.6014C145.943 34.7865 145.979 34.9495 146.06 35.0904C146.144 35.2312 146.265 35.356 146.422 35.4647C146.583 35.5693 146.776 35.6619 147.002 35.7424C147.227 35.8228 147.481 35.8933 147.762 35.9536L148.825 36.1951C149.437 36.3279 149.976 36.505 150.443 36.7264C150.914 36.9477 151.308 37.2113 151.626 37.5172C151.948 37.8231 152.191 38.1752 152.356 38.5737C152.521 38.9721 152.606 39.4188 152.61 39.9139C152.606 40.6947 152.409 41.3648 152.018 41.9242C151.628 42.4836 151.067 42.9122 150.334 43.21C149.606 43.5079 148.726 43.6568 147.696 43.6568C146.662 43.6568 145.76 43.5018 144.991 43.1919C144.223 42.882 143.625 42.4112 143.198 41.7793C142.772 41.1474 142.553 40.3485 142.54 39.3826H145.402C145.426 39.7811 145.533 40.1131 145.722 40.3787C145.911 40.6443 146.171 40.8456 146.501 40.9824C146.835 41.1192 147.221 41.1877 147.66 41.1877C148.062 41.1877 148.404 41.1333 148.686 41.0247C148.972 40.916 149.191 40.7651 149.344 40.5719C149.497 40.3787 149.575 40.1574 149.579 39.9078C149.575 39.6744 149.503 39.4752 149.362 39.3102C149.221 39.1411 149.004 38.9963 148.71 38.8755C148.42 38.7508 148.05 38.6361 147.599 38.5314L146.307 38.2296C145.237 37.9841 144.394 37.5876 143.778 37.0403C143.162 36.4889 142.856 35.7444 142.86 34.8066C142.856 34.042 143.062 33.3719 143.476 32.7963C143.891 32.2208 144.464 31.7721 145.197 31.4501C145.929 31.1281 146.764 30.9671 147.702 30.9671C148.66 30.9671 149.491 31.1301 150.195 31.4561C150.904 31.7781 151.453 32.2309 151.843 32.8144C152.234 33.398 152.433 34.0742 152.441 34.8429H149.579ZM159.353 34.2271V36.4004H153.503V34.2271H159.353ZM154.729 32.0055H157.681V40.584C157.681 40.7651 157.709 40.912 157.766 41.0247C157.826 41.1333 157.912 41.2118 158.025 41.2601C158.138 41.3044 158.273 41.3265 158.43 41.3265C158.542 41.3265 158.661 41.3165 158.786 41.2963C158.915 41.2722 159.011 41.2521 159.076 41.236L159.522 43.367C159.381 43.4072 159.182 43.4576 158.925 43.5179C158.671 43.5783 158.367 43.6165 158.013 43.6326C157.321 43.6648 156.727 43.5843 156.232 43.3911C155.741 43.1939 155.365 42.8881 155.103 42.4735C154.846 42.059 154.721 41.5378 154.729 40.91V32.0055ZM165.088 43.6749C164.114 43.6749 163.277 43.4757 162.577 43.0772C161.881 42.6748 161.343 42.1153 160.965 41.399C160.591 40.6786 160.404 39.8434 160.404 38.8936C160.404 37.9398 160.591 37.1047 160.965 36.3883C161.343 35.6679 161.881 35.1085 162.577 34.71C163.277 34.3076 164.114 34.1063 165.088 34.1063C166.062 34.1063 166.897 34.3076 167.594 34.71C168.294 35.1085 168.831 35.6679 169.206 36.3883C169.584 37.1047 169.773 37.9398 169.773 38.8936C169.773 39.8434 169.584 40.6786 169.206 41.399C168.831 42.1153 168.294 42.6748 167.594 43.0772C166.897 43.4757 166.062 43.6749 165.088 43.6749ZM165.106 41.4473C165.461 41.4473 165.76 41.3386 166.006 41.1213C166.251 40.9039 166.439 40.6021 166.567 40.2157C166.7 39.8294 166.767 39.3826 166.767 38.8755C166.767 38.3604 166.7 37.9096 166.567 37.5233C166.439 37.1369 166.251 36.835 166.006 36.6177C165.76 36.4004 165.461 36.2917 165.106 36.2917C164.74 36.2917 164.43 36.4004 164.177 36.6177C163.927 36.835 163.736 37.1369 163.603 37.5233C163.474 37.9096 163.41 38.3604 163.41 38.8755C163.41 39.3826 163.474 39.8294 163.603 40.2157C163.736 40.6021 163.927 40.9039 164.177 41.1213C164.43 41.3386 164.74 41.4473 165.106 41.4473ZM171.285 43.4998V34.2271H174.153V35.9174H174.249C174.418 35.3057 174.694 34.8509 175.076 34.5531C175.459 34.2512 175.904 34.1003 176.411 34.1003C176.547 34.1003 176.688 34.1104 176.833 34.1305C176.978 34.1466 177.113 34.1728 177.238 34.209V36.7747C177.097 36.7264 176.912 36.6881 176.682 36.66C176.457 36.6318 176.256 36.6177 176.079 36.6177C175.728 36.6177 175.413 36.6962 175.131 36.8532C174.853 37.0061 174.634 37.2214 174.473 37.4991C174.316 37.7728 174.237 38.0947 174.237 38.465V43.4998H171.285ZM182.294 43.6749C181.324 43.6749 180.487 43.4837 179.782 43.1014C179.082 42.715 178.543 42.1657 178.164 41.4533C177.79 40.7369 177.603 39.8857 177.603 38.8997C177.603 37.9418 177.792 37.1047 178.17 36.3883C178.549 35.6679 179.082 35.1085 179.77 34.71C180.458 34.3076 181.269 34.1063 182.203 34.1063C182.863 34.1063 183.467 34.209 184.014 34.4142C184.561 34.6195 185.034 34.9233 185.433 35.3258C185.831 35.7283 186.141 36.2253 186.363 36.8169C186.584 37.4045 186.695 38.0786 186.695 38.8393V39.5758H178.635V37.8613H183.948C183.944 37.5474 183.869 37.2677 183.724 37.0222C183.579 36.7767 183.38 36.5855 183.127 36.4487C182.877 36.3078 182.589 36.2374 182.263 36.2374C181.933 36.2374 181.638 36.3118 181.376 36.4608C181.114 36.6056 180.907 36.8049 180.754 37.0584C180.601 37.3079 180.521 37.5917 180.513 37.9096V39.6543C180.513 40.0326 180.587 40.3646 180.736 40.6504C180.885 40.9321 181.096 41.1514 181.37 41.3084C181.644 41.4654 181.97 41.5438 182.348 41.5438C182.61 41.5438 182.847 41.5076 183.06 41.4352C183.274 41.3627 183.457 41.2561 183.61 41.1152C183.763 40.9744 183.877 40.8013 183.954 40.596L186.664 40.6745C186.552 41.2822 186.304 41.8115 185.922 42.2622C185.543 42.709 185.046 43.0571 184.431 43.3066C183.815 43.5521 183.103 43.6749 182.294 43.6749Z" fill="white"/>
</g>
<rect x="1.05" y="1.04982" width="197.9" height="53.9" rx="6.95" stroke="white" stroke-opacity="0.15" stroke-width="2.1"/>
<defs>
<filter id="filter0_d_28_575" x="6.28571" y="1.57124" width="51.4286" height="52.1429" filterUnits="userSpaceOnUse" color-interpolation-filters="sRGB">
<feFlood flood-opacity="0" result="BackgroundImageFix"/>
<feColorMatrix in="SourceAlpha" type="matrix" values="0 0 0 0 0 0 0 0 0 0 0 0 0 0 0 0 0 0 127 0" result="hardAlpha"/>
<feOffset/>
<feGaussianBlur stdDeviation="2.85714"/>
<feComposite in2="hardAlpha" operator="out"/>
<feColorMatrix type="matrix" values="0 0 0 0 0 0 0 0 0 0 0 0 0 0 0 0 0 0 0.25 0"/>
<feBlend mode="normal" in2="BackgroundImageFix" result="effect1_dropShadow_28_575"/>
<feBlend mode="normal" in="SourceGraphic" in2="effect1_dropShadow_28_575" result="shape"/>
</filter>
<filter id="filter1_d_28_575" x="58.4" y="3.89982" width="135.2" height="48.6773" filterUnits="userSpaceOnUse" color-interpolation-filters="sRGB">
<feFlood flood-opacity="0" result="BackgroundImageFix"/>
<feColorMatrix in="SourceAlpha" type="matrix" values="0 0 0 0 0 0 0 0 0 0 0 0 0 0 0 0 0 0 127 0" result="hardAlpha"/>
<feOffset/>
<feGaussianBlur stdDeviation="2.8"/>
<feComposite in2="hardAlpha" operator="out"/>
<feColorMatrix type="matrix" values="0 0 0 0 0 0 0 0 0 0 0 0 0 0 0 0 0 0 0.25 0"/>
<feBlend mode="normal" in2="BackgroundImageFix" result="effect1_dropShadow_28_575"/>
<feBlend mode="normal" in="SourceGraphic" in2="effect1_dropShadow_28_575" result="shape"/>
</filter>
<linearGradient id="paint0_linear_28_575" x1="100" y1="-0.000183105" x2="100" y2="55.9998" gradientUnits="userSpaceOnUse">
<stop stop-color="#1E1E1E"/>
<stop offset="1" stop-color="#0D0D0D"/>
</linearGradient>
</defs>
</svg>
