<svg width="144" height="40" viewBox="0 0 144 40" fill="none" xmlns="http://www.w3.org/2000/svg">
<rect y="-6.10352e-05" width="144" height="40" rx="6" fill="url(#paint0_linear_28_575)"/>
<g filter="url(#filter0_d_28_575)">
<path d="M34.7654 15.0461C34.6016 15.1721 31.7086 16.7879 31.7086 20.3806C31.7086 24.5362 35.3898 26.0064 35.5 26.0428C35.483 26.1324 34.9152 28.0562 33.5591 30.0164C32.3499 31.7414 31.087 33.4635 29.1659 33.4635C27.2447 33.4635 26.7503 32.3574 24.5325 32.3574C22.3713 32.3574 21.6028 33.4999 19.8455 33.4999C18.0883 33.4999 16.8621 31.9038 15.4523 29.9436C13.8194 27.6417 12.5 24.0658 12.5 20.6719C12.5 15.2281 16.0711 12.341 19.5856 12.341C21.4531 12.341 23.0098 13.5563 24.1822 13.5563C25.2982 13.5563 27.0385 12.2682 29.1631 12.2682C29.9682 12.2682 32.8613 12.341 34.7654 15.0461V15.0461ZM28.1545 9.96358C29.0331 8.93028 29.6546 7.49654 29.6546 6.0628C29.6546 5.86398 29.6377 5.66236 29.601 5.49994C28.1714 5.55314 26.4706 6.44363 25.4451 7.62255C24.6399 8.52984 23.8884 9.96358 23.8884 11.4169C23.8884 11.6354 23.9251 11.8538 23.9421 11.9238C24.0325 11.9406 24.1794 11.9602 24.3263 11.9602C25.609 11.9602 27.2221 11.1089 28.1545 9.96358Z" fill="white"/>
</g>
<g filter="url(#filter1_d_28_575)">
<path d="M47.5547 17.9999H46.2734L49.1523 9.99994H50.5469L53.4258 17.9999H52.1445L49.8828 11.4531H49.8203L47.5547 17.9999ZM47.7695 14.8671H51.9258V15.8827H47.7695V14.8671ZM58.8682 11.9999L56.6924 17.9999H55.4424L53.2627 11.9999H54.5166L56.0361 16.6171H56.0986L57.6143 11.9999H58.8682ZM61.54 18.1327C61.1598 18.1327 60.8161 18.0624 60.5088 17.9218C60.2015 17.7786 59.958 17.5716 59.7783 17.3007C59.6012 17.0299 59.5127 16.6979 59.5127 16.3046C59.5127 15.9661 59.5778 15.6874 59.708 15.4687C59.8382 15.2499 60.014 15.0768 60.2353 14.9492C60.4567 14.8216 60.7041 14.7252 60.9775 14.6601C61.251 14.595 61.5296 14.5455 61.8135 14.5117C62.1728 14.47 62.4645 14.4361 62.6885 14.4101C62.9124 14.3814 63.0752 14.3359 63.1768 14.2734C63.2783 14.2109 63.3291 14.1093 63.3291 13.9687V13.9413C63.3291 13.6002 63.2327 13.3359 63.04 13.1484C62.8499 12.9609 62.5661 12.8671 62.1885 12.8671C61.7952 12.8671 61.4853 12.9544 61.2588 13.1288C61.0348 13.3007 60.8799 13.4921 60.7939 13.7031L59.6963 13.4531C59.8265 13.0885 60.0166 12.7942 60.2666 12.5702C60.5192 12.3437 60.8096 12.1796 61.1377 12.0781C61.4658 11.9739 61.8109 11.9218 62.1728 11.9218C62.4124 11.9218 62.6663 11.9505 62.9346 12.0078C63.2054 12.0624 63.458 12.164 63.6924 12.3124C63.9294 12.4609 64.1234 12.6731 64.2744 12.9492C64.4255 13.2226 64.501 13.5781 64.501 14.0156V17.9999H63.3603V17.1796H63.3135C63.238 17.3307 63.1247 17.4791 62.9736 17.6249C62.8226 17.7708 62.6286 17.8919 62.3916 17.9882C62.1546 18.0846 61.8708 18.1327 61.54 18.1327ZM61.7939 17.1952C62.1169 17.1952 62.3929 17.1314 62.6221 17.0038C62.8538 16.8762 63.0296 16.7096 63.1494 16.5038C63.2718 16.2955 63.333 16.0729 63.333 15.8359V15.0624C63.2913 15.1041 63.2106 15.1432 63.0908 15.1796C62.9736 15.2135 62.8395 15.2434 62.6885 15.2695C62.5374 15.2929 62.3903 15.315 62.2471 15.3359C62.1038 15.3541 61.984 15.3697 61.8877 15.3827C61.6611 15.4114 61.4541 15.4596 61.2666 15.5273C61.0817 15.595 60.9333 15.6926 60.8213 15.8202C60.7119 15.9452 60.6572 16.1119 60.6572 16.3202C60.6572 16.6093 60.764 16.8281 60.9775 16.9765C61.1911 17.1223 61.4632 17.1952 61.7939 17.1952ZM66.0566 17.9999V11.9999H67.2246V17.9999H66.0566ZM66.6465 11.0742C66.4434 11.0742 66.2689 11.0064 66.123 10.871C65.9798 10.733 65.9082 10.5689 65.9082 10.3788C65.9082 10.1861 65.9798 10.0221 66.123 9.88666C66.2689 9.74864 66.4434 9.67963 66.6465 9.67963C66.8496 9.67963 67.0228 9.74864 67.166 9.88666C67.3118 10.0221 67.3848 10.1861 67.3848 10.3788C67.3848 10.5689 67.3118 10.733 67.166 10.871C67.0228 11.0064 66.8496 11.0742 66.6465 11.0742ZM69.9639 9.99994V17.9999H68.7959V9.99994H69.9639ZM73.2812 18.1327C72.901 18.1327 72.5573 18.0624 72.25 17.9218C71.9427 17.7786 71.6992 17.5716 71.5195 17.3007C71.3424 17.0299 71.2539 16.6979 71.2539 16.3046C71.2539 15.9661 71.319 15.6874 71.4492 15.4687C71.5794 15.2499 71.7552 15.0768 71.9766 14.9492C72.1979 14.8216 72.4453 14.7252 72.7187 14.6601C72.9922 14.595 73.2708 14.5455 73.5547 14.5117C73.9141 14.47 74.2057 14.4361 74.4297 14.4101C74.6536 14.3814 74.8164 14.3359 74.918 14.2734C75.0195 14.2109 75.0703 14.1093 75.0703 13.9687V13.9413C75.0703 13.6002 74.9739 13.3359 74.7812 13.1484C74.5911 12.9609 74.3073 12.8671 73.9297 12.8671C73.5365 12.8671 73.2266 12.9544 73 13.1288C72.776 13.3007 72.6211 13.4921 72.5351 13.7031L71.4375 13.4531C71.5677 13.0885 71.7578 12.7942 72.0078 12.5702C72.2604 12.3437 72.5508 12.1796 72.8789 12.0781C73.207 11.9739 73.5521 11.9218 73.9141 11.9218C74.1536 11.9218 74.4075 11.9505 74.6758 12.0078C74.9466 12.0624 75.1992 12.164 75.4336 12.3124C75.6706 12.4609 75.8646 12.6731 76.0156 12.9492C76.1667 13.2226 76.2422 13.5781 76.2422 14.0156V17.9999H75.1016V17.1796H75.0547C74.9792 17.3307 74.8659 17.4791 74.7148 17.6249C74.5638 17.7708 74.3698 17.8919 74.1328 17.9882C73.8958 18.0846 73.612 18.1327 73.2812 18.1327ZM73.5351 17.1952C73.8581 17.1952 74.1341 17.1314 74.3633 17.0038C74.595 16.8762 74.7708 16.7096 74.8906 16.5038C75.013 16.2955 75.0742 16.0729 75.0742 15.8359V15.0624C75.0325 15.1041 74.9518 15.1432 74.832 15.1796C74.7148 15.2135 74.5807 15.2434 74.4297 15.2695C74.2786 15.2929 74.1315 15.315 73.9883 15.3359C73.845 15.3541 73.7253 15.3697 73.6289 15.3827C73.4023 15.4114 73.1953 15.4596 73.0078 15.5273C72.8229 15.595 72.6745 15.6926 72.5625 15.8202C72.4531 15.9452 72.3984 16.1119 72.3984 16.3202C72.3984 16.6093 72.5052 16.8281 72.7187 16.9765C72.9323 17.1223 73.2044 17.1952 73.5351 17.1952ZM77.8916 17.9999V9.99994H79.0596V12.9726H79.1299C79.1976 12.8476 79.2952 12.7031 79.4228 12.539C79.5504 12.3749 79.7275 12.2317 79.9541 12.1093C80.1807 11.9843 80.4801 11.9218 80.8525 11.9218C81.3369 11.9218 81.7692 12.0442 82.1494 12.289C82.5296 12.5338 82.8278 12.8867 83.0439 13.3476C83.2627 13.8085 83.3721 14.3632 83.3721 15.0117C83.3721 15.6601 83.264 16.2161 83.0478 16.6796C82.8317 17.1406 82.5348 17.496 82.1572 17.746C81.7796 17.9934 81.3486 18.1171 80.8642 18.1171C80.4997 18.1171 80.2015 18.0559 79.9697 17.9335C79.7405 17.8111 79.5609 17.6679 79.4307 17.5038C79.3004 17.3398 79.2002 17.1939 79.1299 17.0663H79.0322V17.9999H77.8916ZM79.0361 14.9999C79.0361 15.4218 79.0973 15.7916 79.2197 16.1093C79.3421 16.427 79.5192 16.6757 79.751 16.8554C79.9827 17.0325 80.2666 17.121 80.6025 17.121C80.9515 17.121 81.2432 17.0286 81.4775 16.8437C81.7119 16.6562 81.889 16.4023 82.0088 16.082C82.1312 15.7617 82.1924 15.401 82.1924 14.9999C82.1924 14.6041 82.1325 14.2486 82.0127 13.9335C81.8955 13.6184 81.7184 13.3697 81.4814 13.1874C81.2471 13.0051 80.9541 12.914 80.6025 12.914C80.264 12.914 79.9775 13.0012 79.7432 13.1757C79.5114 13.3502 79.3356 13.5937 79.2158 13.9062C79.096 14.2187 79.0361 14.5833 79.0361 14.9999ZM85.8516 9.99994V17.9999H84.6836V9.99994H85.8516ZM90.0088 18.121C89.4176 18.121 88.9085 17.9947 88.4814 17.7421C88.057 17.4869 87.7288 17.1288 87.4971 16.6679C87.2679 16.2044 87.1533 15.6614 87.1533 15.039C87.1533 14.4244 87.2679 13.8827 87.4971 13.414C87.7288 12.9452 88.0517 12.5794 88.4658 12.3163C88.8825 12.0533 89.3695 11.9218 89.9267 11.9218C90.2653 11.9218 90.5934 11.9778 90.9111 12.0898C91.2288 12.2018 91.514 12.3775 91.7666 12.6171C92.0192 12.8567 92.2184 13.1679 92.3642 13.5507C92.5101 13.9309 92.583 14.3932 92.583 14.9374V15.3515H87.8135V14.4765H91.4385C91.4385 14.1692 91.376 13.8971 91.251 13.6601C91.126 13.4205 90.9502 13.2317 90.7236 13.0937C90.4997 12.9557 90.2366 12.8867 89.9346 12.8867C89.6064 12.8867 89.32 12.9674 89.0752 13.1288C88.833 13.2877 88.6455 13.496 88.5127 13.7538C88.3825 14.0091 88.3174 14.2864 88.3174 14.5859V15.2695C88.3174 15.6705 88.3877 16.0117 88.5283 16.2929C88.6715 16.5742 88.8708 16.789 89.126 16.9374C89.3812 17.0833 89.6793 17.1562 90.0205 17.1562C90.2418 17.1562 90.4437 17.1249 90.626 17.0624C90.8083 16.9973 90.9658 16.901 91.0986 16.7734C91.2314 16.6458 91.333 16.4882 91.4033 16.3007L92.5088 16.4999C92.4202 16.8255 92.2614 17.1106 92.0322 17.3554C91.8057 17.5976 91.5205 17.7864 91.1767 17.9218C90.8356 18.0546 90.4463 18.121 90.0088 18.121ZM99.3174 18.121C98.7549 18.121 98.264 17.9921 97.8447 17.7343C97.4254 17.4765 97.0999 17.1158 96.8681 16.6523C96.6364 16.1887 96.5205 15.6471 96.5205 15.0273C96.5205 14.4049 96.6364 13.8606 96.8681 13.3945C97.0999 12.9283 97.4254 12.5663 97.8447 12.3085C98.264 12.0507 98.7549 11.9218 99.3174 11.9218C99.8799 11.9218 100.371 12.0507 100.79 12.3085C101.209 12.5663 101.535 12.9283 101.767 13.3945C101.998 13.8606 102.114 14.4049 102.114 15.0273C102.114 15.6471 101.998 16.1887 101.767 16.6523C101.535 17.1158 101.209 17.4765 100.79 17.7343C100.371 17.9921 99.8799 18.121 99.3174 18.121ZM99.3213 17.1406C99.6859 17.1406 99.9879 17.0442 100.228 16.8515C100.467 16.6588 100.644 16.4023 100.759 16.082C100.876 15.7617 100.935 15.4088 100.935 15.0234C100.935 14.6406 100.876 14.289 100.759 13.9687C100.644 13.6458 100.467 13.3867 100.228 13.1913C99.9879 12.996 99.6859 12.8984 99.3213 12.8984C98.9541 12.8984 98.6494 12.996 98.4072 13.1913C98.1676 13.3867 97.9892 13.6458 97.8721 13.9687C97.7575 14.289 97.7002 14.6406 97.7002 15.0234C97.7002 15.4088 97.7575 15.7617 97.8721 16.082C97.9892 16.4023 98.1676 16.6588 98.4072 16.8515C98.6494 17.0442 98.9541 17.1406 99.3213 17.1406ZM104.586 14.4374V17.9999H103.418V11.9999H104.539V12.9765H104.613C104.751 12.6588 104.967 12.4036 105.262 12.2109C105.559 12.0182 105.932 11.9218 106.383 11.9218C106.792 11.9218 107.15 12.0078 107.457 12.1796C107.764 12.3489 108.003 12.6015 108.172 12.9374C108.341 13.2734 108.426 13.6887 108.426 14.1835V17.9999H107.258V14.3242C107.258 13.8893 107.145 13.5494 106.918 13.3046C106.691 13.0572 106.38 12.9335 105.984 12.9335C105.714 12.9335 105.473 12.9921 105.262 13.1093C105.053 13.2265 104.888 13.3984 104.766 13.6249C104.646 13.8489 104.586 14.1197 104.586 14.4374Z" fill="#E8E8E8"/>
<path d="M46.6605 22.2727H49.2727L51.4886 27.6761H51.5909L53.8068 22.2727H56.419V30.9999H54.3651V25.6391H54.2926L52.196 30.9445H50.8835L48.7869 25.6093H48.7145V30.9999H46.6605V22.2727ZM59.5799 31.1107C59.1623 31.1107 58.7915 31.0411 58.4677 30.9019C58.1467 30.7599 57.8924 30.5468 57.7049 30.2627C57.5202 29.9758 57.4279 29.6164 57.4279 29.1846C57.4279 28.821 57.4918 28.5141 57.6197 28.2641C57.7475 28.0141 57.9236 27.811 58.1481 27.6548C58.3725 27.4985 58.631 27.3806 58.9236 27.3011C59.2163 27.2187 59.5288 27.1633 59.8611 27.1349C60.2333 27.1008 60.533 27.0653 60.7603 27.0283C60.9876 26.9886 61.1523 26.9332 61.2546 26.8622C61.3597 26.7883 61.4123 26.6846 61.4123 26.5511V26.5298C61.4123 26.311 61.337 26.142 61.1864 26.0227C61.0359 25.9033 60.8327 25.8437 60.5771 25.8437C60.3015 25.8437 60.0799 25.9033 59.9123 26.0227C59.7447 26.142 59.6381 26.3068 59.5927 26.517L57.6708 26.4488C57.7276 26.0511 57.8739 25.696 58.1097 25.3835C58.3484 25.0681 58.6751 24.821 59.0898 24.642C59.5075 24.4602 60.0089 24.3693 60.5941 24.3693C61.0117 24.3693 61.3967 24.419 61.7489 24.5184C62.1012 24.615 62.408 24.757 62.6694 24.9445C62.9307 25.1292 63.1325 25.3565 63.2745 25.6264C63.4194 25.8962 63.4918 26.2045 63.4918 26.5511V30.9999H61.5316V30.088H61.4805C61.364 30.3096 61.2148 30.4971 61.033 30.6505C60.854 30.8039 60.6424 30.919 60.3981 30.9957C60.1566 31.0724 59.8839 31.1107 59.5799 31.1107ZM60.2234 29.7471C60.4478 29.7471 60.6495 29.7016 60.8285 29.6107C61.0103 29.5198 61.1552 29.3948 61.2631 29.2357C61.3711 29.0738 61.4251 28.8863 61.4251 28.6732V28.0511C61.3654 28.0823 61.293 28.1107 61.2077 28.1363C61.1254 28.1619 61.0344 28.186 60.935 28.2087C60.8356 28.2315 60.7333 28.2514 60.6282 28.2684C60.5231 28.2854 60.4222 28.3011 60.3256 28.3153C60.1296 28.3465 59.962 28.3948 59.8228 28.4602C59.6864 28.5255 59.5813 28.6107 59.5075 28.7158C59.4364 28.8181 59.4009 28.9403 59.4009 29.0823C59.4009 29.2982 59.4776 29.463 59.631 29.5766C59.7873 29.6903 59.9847 29.7471 60.2234 29.7471ZM67.8214 31.1235C67.131 31.1235 66.5387 30.9815 66.0444 30.6974C65.5529 30.4133 65.1751 30.0184 64.9109 29.5127C64.6467 29.0042 64.5146 28.4161 64.5146 27.7485C64.5146 27.0781 64.6467 26.49 64.9109 25.9843C65.1779 25.4758 65.5572 25.0795 66.0486 24.7954C66.543 24.5113 67.1325 24.3693 67.8171 24.3693C68.4222 24.3693 68.9492 24.4786 69.3981 24.6974C69.8498 24.9161 70.2021 25.2258 70.4549 25.6264C70.7106 26.0241 70.8455 26.4914 70.8597 27.0283H68.9123C68.8725 26.6931 68.7589 26.4303 68.5714 26.24C68.3867 26.0497 68.1452 25.9545 67.8469 25.9545C67.6055 25.9545 67.3938 26.0227 67.212 26.159C67.0302 26.2926 66.8881 26.4914 66.7859 26.7556C66.6864 27.017 66.6367 27.3408 66.6367 27.7272C66.6367 28.1136 66.6864 28.4403 66.7859 28.7073C66.8881 28.9715 67.0302 29.1718 67.212 29.3082C67.3938 29.4417 67.6055 29.5085 67.8469 29.5085C68.0401 29.5085 68.2106 29.4673 68.3583 29.3849C68.5089 29.3025 68.6325 29.1818 68.729 29.0227C68.8256 28.8607 68.8867 28.6647 68.9123 28.4346H70.8597C70.8398 28.9744 70.7049 29.446 70.4549 29.8494C70.2077 30.2528 69.8597 30.5667 69.4109 30.7911C68.9648 31.0127 68.435 31.1235 67.8214 31.1235ZM76.392 30.9999H74.125L77.0696 22.2727H79.8778L82.8224 30.9999H80.5554L78.5057 24.4715H78.4375L76.392 30.9999ZM76.0895 27.5653H80.8281V29.1675H76.0895V27.5653ZM83.7621 33.4545V24.4545H85.8246V25.5752H85.8885C85.9737 25.3764 86.0944 25.1846 86.2507 24.9999C86.4098 24.8153 86.6115 24.6647 86.8558 24.5482C87.103 24.4289 87.3984 24.3693 87.7422 24.3693C88.1967 24.3693 88.6214 24.4886 89.0163 24.7272C89.414 24.9658 89.7351 25.3337 89.9794 25.8309C90.2237 26.3281 90.3459 26.9616 90.3459 27.7315C90.3459 28.4729 90.228 29.0937 89.9922 29.5937C89.7592 30.0937 89.4439 30.4687 89.0462 30.7187C88.6513 30.9687 88.2123 31.0937 87.7294 31.0937C87.3998 31.0937 87.1143 31.0397 86.8729 30.9318C86.6314 30.8238 86.4283 30.6818 86.2635 30.5056C86.1016 30.3295 85.9766 30.1406 85.8885 29.9389H85.8459V33.4545H83.7621ZM85.8033 27.7272C85.8033 28.0795 85.8501 28.3863 85.9439 28.6477C86.0405 28.909 86.1783 29.1122 86.3572 29.257C86.5391 29.3991 86.7564 29.4701 87.0092 29.4701C87.2649 29.4701 87.4822 29.3991 87.6612 29.257C87.8402 29.1122 87.9751 28.909 88.066 28.6477C88.1598 28.3863 88.2067 28.0795 88.2067 27.7272C88.2067 27.3749 88.1598 27.0695 88.066 26.811C87.9751 26.5525 87.8402 26.3522 87.6612 26.2102C87.4851 26.0681 87.2677 25.9971 87.0092 25.9971C86.7535 25.9971 86.5362 26.0667 86.3572 26.2059C86.1783 26.3451 86.0405 26.544 85.9439 26.8025C85.8501 27.061 85.8033 27.3693 85.8033 27.7272ZM91.4378 33.4545V24.4545H93.5003V25.5752H93.5643C93.6495 25.3764 93.7702 25.1846 93.9265 24.9999C94.0856 24.8153 94.2873 24.6647 94.5316 24.5482C94.7787 24.4289 95.0742 24.3693 95.418 24.3693C95.8725 24.3693 96.2972 24.4886 96.6921 24.7272C97.0898 24.9658 97.4109 25.3337 97.6552 25.8309C97.8995 26.3281 98.0216 26.9616 98.0216 27.7315C98.0216 28.4729 97.9037 29.0937 97.668 29.5937C97.435 30.0937 97.1197 30.4687 96.7219 30.7187C96.327 30.9687 95.8881 31.0937 95.4052 31.0937C95.0756 31.0937 94.7901 31.0397 94.5486 30.9318C94.3072 30.8238 94.104 30.6818 93.9393 30.5056C93.7773 30.3295 93.6523 30.1406 93.5643 29.9389H93.5216V33.4545H91.4378ZM93.479 27.7272C93.479 28.0795 93.5259 28.3863 93.6197 28.6477C93.7163 28.909 93.854 29.1122 94.033 29.257C94.2148 29.3991 94.4322 29.4701 94.685 29.4701C94.9407 29.4701 95.158 29.3991 95.337 29.257C95.516 29.1122 95.6509 28.909 95.7418 28.6477C95.8356 28.3863 95.8824 28.0795 95.8824 27.7272C95.8824 27.3749 95.8356 27.0695 95.7418 26.811C95.6509 26.5525 95.516 26.3522 95.337 26.2102C95.1609 26.0681 94.9435 25.9971 94.685 25.9971C94.4293 25.9971 94.212 26.0667 94.033 26.2059C93.854 26.3451 93.7163 26.544 93.6197 26.8025C93.5259 27.061 93.479 27.3693 93.479 27.7272ZM106.409 24.8891C106.381 24.5766 106.254 24.3337 106.03 24.1604C105.808 23.9843 105.491 23.8962 105.08 23.8962C104.807 23.8962 104.58 23.9318 104.398 24.0028C104.216 24.0738 104.08 24.1718 103.989 24.2968C103.898 24.419 103.851 24.5596 103.848 24.7187C103.842 24.8494 103.868 24.9644 103.925 25.0639C103.984 25.1633 104.07 25.2514 104.18 25.3281C104.294 25.4019 104.43 25.4673 104.589 25.5241C104.749 25.5809 104.928 25.6306 105.126 25.6732L105.876 25.8437C106.308 25.9374 106.689 26.0624 107.018 26.2187C107.351 26.3749 107.629 26.561 107.854 26.7769C108.081 26.9928 108.253 27.2414 108.369 27.5227C108.486 27.8039 108.545 28.1193 108.548 28.4687C108.545 29.0198 108.406 29.4928 108.131 29.8877C107.855 30.2826 107.459 30.5852 106.942 30.7954C106.428 31.0056 105.807 31.1107 105.08 31.1107C104.349 31.1107 103.713 31.0014 103.17 30.7826C102.628 30.5639 102.206 30.2315 101.905 29.7854C101.604 29.3394 101.449 28.7755 101.44 28.0937H103.46C103.477 28.3749 103.553 28.6093 103.686 28.7968C103.82 28.9843 104.003 29.1264 104.236 29.2229C104.472 29.3195 104.744 29.3678 105.054 29.3678C105.338 29.3678 105.58 29.3295 105.778 29.2528C105.98 29.1761 106.135 29.0695 106.243 28.9332C106.351 28.7968 106.406 28.6406 106.409 28.4644C106.406 28.2997 106.355 28.159 106.256 28.0426C106.156 27.9232 106.003 27.821 105.795 27.7357C105.591 27.6477 105.33 27.5667 105.011 27.4928L104.099 27.2798C103.344 27.1065 102.749 26.8266 102.314 26.4403C101.879 26.0511 101.663 25.5255 101.666 24.8636C101.663 24.3238 101.808 23.8508 102.101 23.4445C102.393 23.0383 102.798 22.7215 103.315 22.4943C103.832 22.267 104.422 22.1533 105.084 22.1533C105.76 22.1533 106.347 22.2684 106.844 22.4985C107.344 22.7258 107.732 23.0454 108.007 23.4573C108.283 23.8693 108.423 24.3465 108.429 24.8891H106.409ZM113.308 24.4545V25.9886H109.179V24.4545H113.308ZM110.044 22.8863H112.128V28.9417C112.128 29.0695 112.148 29.1732 112.187 29.2528C112.23 29.3295 112.291 29.3849 112.371 29.419C112.45 29.4502 112.545 29.4658 112.656 29.4658C112.736 29.4658 112.82 29.4587 112.908 29.4445C112.999 29.4275 113.067 29.4133 113.112 29.4019L113.428 30.9062C113.328 30.9346 113.187 30.9701 113.006 31.0127C112.827 31.0553 112.612 31.0823 112.362 31.0937C111.874 31.1164 111.455 31.0596 111.105 30.9232C110.759 30.784 110.493 30.5681 110.308 30.2755C110.126 29.9829 110.038 29.615 110.044 29.1718V22.8863ZM117.357 31.1235C116.669 31.1235 116.078 30.9829 115.584 30.7016C115.092 30.4175 114.713 30.0227 114.446 29.517C114.182 29.0085 114.05 28.419 114.05 27.7485C114.05 27.0752 114.182 26.4857 114.446 25.9801C114.713 25.4715 115.092 25.0766 115.584 24.7954C116.078 24.5113 116.669 24.3693 117.357 24.3693C118.044 24.3693 118.634 24.5113 119.125 24.7954C119.619 25.0766 119.999 25.4715 120.263 25.9801C120.53 26.4857 120.663 27.0752 120.663 27.7485C120.663 28.419 120.53 29.0085 120.263 29.517C119.999 30.0227 119.619 30.4175 119.125 30.7016C118.634 30.9829 118.044 31.1235 117.357 31.1235ZM117.369 29.5511C117.619 29.5511 117.831 29.4744 118.004 29.321C118.178 29.1675 118.31 28.9545 118.401 28.6818C118.494 28.409 118.541 28.0937 118.541 27.7357C118.541 27.3721 118.494 27.0539 118.401 26.7812C118.31 26.5085 118.178 26.2954 118.004 26.142C117.831 25.9886 117.619 25.9119 117.369 25.9119C117.111 25.9119 116.892 25.9886 116.713 26.142C116.537 26.2954 116.402 26.5085 116.308 26.7812C116.217 27.0539 116.172 27.3721 116.172 27.7357C116.172 28.0937 116.217 28.409 116.308 28.6818C116.402 28.9545 116.537 29.1675 116.713 29.321C116.892 29.4744 117.111 29.5511 117.369 29.5511ZM121.731 30.9999V24.4545H123.755V25.6477H123.823C123.942 25.2158 124.137 24.8948 124.407 24.6846C124.677 24.4715 124.991 24.365 125.349 24.365C125.445 24.365 125.545 24.3721 125.647 24.3863C125.749 24.3977 125.844 24.4161 125.933 24.4417V26.2528C125.833 26.2187 125.702 26.1917 125.54 26.1718C125.381 26.1519 125.239 26.142 125.114 26.142C124.867 26.142 124.644 26.1974 124.445 26.3082C124.249 26.4161 124.094 26.5681 123.981 26.7641C123.87 26.9573 123.815 27.1846 123.815 27.446V30.9999H121.731ZM129.501 31.1235C128.817 31.1235 128.226 30.9886 127.729 30.7187C127.234 30.446 126.854 30.0582 126.587 29.5553C126.322 29.0497 126.19 28.4488 126.19 27.7528C126.19 27.0766 126.324 26.4857 126.591 25.9801C126.858 25.4715 127.234 25.0766 127.72 24.7954C128.206 24.5113 128.778 24.3693 129.437 24.3693C129.903 24.3693 130.33 24.4417 130.716 24.5866C131.102 24.7315 131.436 24.946 131.717 25.2301C131.999 25.5141 132.217 25.865 132.374 26.2826C132.53 26.6974 132.608 27.1732 132.608 27.7102V28.2301H126.919V27.0198H130.669C130.666 26.7982 130.614 26.6008 130.511 26.4275C130.409 26.2542 130.268 26.1193 130.089 26.0227C129.913 25.9232 129.71 25.8735 129.48 25.8735C129.247 25.8735 129.038 25.9261 128.854 26.0312C128.669 26.1335 128.523 26.2741 128.415 26.4531C128.307 26.6292 128.25 26.8295 128.244 27.0539V28.2854C128.244 28.5525 128.297 28.7869 128.402 28.9886C128.507 29.1874 128.656 29.3423 128.849 29.4531C129.043 29.5639 129.273 29.6193 129.54 29.6193C129.724 29.6193 129.892 29.5937 130.043 29.5425C130.193 29.4914 130.322 29.4161 130.43 29.3167C130.538 29.2173 130.619 29.0951 130.673 28.9502L132.587 29.0056C132.507 29.4346 132.332 29.8082 132.062 30.1264C131.795 30.4417 131.445 30.6874 131.01 30.8636C130.575 31.0369 130.072 31.1235 129.501 31.1235Z" fill="white"/>
</g>
<rect x="0.75" y="0.749939" width="142.5" height="38.5" rx="5.25" stroke="white" stroke-opacity="0.15" stroke-width="1.5"/>
<defs>
<filter id="filter0_d_28_575" x="6" y="1.49994" width="36" height="36.5" filterUnits="userSpaceOnUse" color-interpolation-filters="sRGB">
<feFlood flood-opacity="0" result="BackgroundImageFix"/>
<feColorMatrix in="SourceAlpha" type="matrix" values="0 0 0 0 0 0 0 0 0 0 0 0 0 0 0 0 0 0 127 0" result="hardAlpha"/>
<feOffset/>
<feGaussianBlur stdDeviation="2"/>
<feComposite in2="hardAlpha" operator="out"/>
<feColorMatrix type="matrix" values="0 0 0 0 0 0 0 0 0 0 0 0 0 0 0 0 0 0 0.25 0"/>
<feBlend mode="normal" in2="BackgroundImageFix" result="effect1_dropShadow_28_575"/>
<feBlend mode="normal" in="SourceGraphic" in2="effect1_dropShadow_28_575" result="shape"/>
</filter>
<filter id="filter1_d_28_575" x="42" y="2.99994" width="96" height="34.4545" filterUnits="userSpaceOnUse" color-interpolation-filters="sRGB">
<feFlood flood-opacity="0" result="BackgroundImageFix"/>
<feColorMatrix in="SourceAlpha" type="matrix" values="0 0 0 0 0 0 0 0 0 0 0 0 0 0 0 0 0 0 127 0" result="hardAlpha"/>
<feOffset/>
<feGaussianBlur stdDeviation="2"/>
<feComposite in2="hardAlpha" operator="out"/>
<feColorMatrix type="matrix" values="0 0 0 0 0 0 0 0 0 0 0 0 0 0 0 0 0 0 0.25 0"/>
<feBlend mode="normal" in2="BackgroundImageFix" result="effect1_dropShadow_28_575"/>
<feBlend mode="normal" in="SourceGraphic" in2="effect1_dropShadow_28_575" result="shape"/>
</filter>
<linearGradient id="paint0_linear_28_575" x1="72" y1="-6.10351e-05" x2="72" y2="39.9999" gradientUnits="userSpaceOnUse">
<stop stop-color="#1E1E1E"/>
<stop offset="1" stop-color="#0D0D0D"/>
</linearGradient>
</defs>
</svg>
