<svg width="143" height="40" viewBox="0 0 143 40" fill="none" xmlns="http://www.w3.org/2000/svg">
<rect y="-6.10352e-05" width="143" height="40" rx="6" fill="url(#paint0_linear_28_612)"/>
<g filter="url(#filter0_d_28_612)">
<path fill-rule="evenodd" clip-rule="evenodd" d="M36.1244 13L24 6L11.8756 13V27L24 34L36.1244 27V13ZM32.6602 15L24 10L15.3397 15V25L24 30L32.6602 25V15Z" fill="url(#paint1_linear_28_612)"/>
</g>
<g filter="url(#filter1_d_28_612)">
<path d="M47.5547 17.9999H46.2734L49.1523 9.99994H50.5469L53.4258 17.9999H52.1445L49.8828 11.4531H49.8203L47.5547 17.9999ZM47.7695 14.8671H51.9258V15.8827H47.7695V14.8671ZM58.8682 11.9999L56.6924 17.9999H55.4424L53.2627 11.9999H54.5166L56.0361 16.6171H56.0986L57.6143 11.9999H58.8682ZM61.54 18.1327C61.1598 18.1327 60.8161 18.0624 60.5088 17.9218C60.2015 17.7786 59.958 17.5716 59.7783 17.3007C59.6012 17.0299 59.5127 16.6979 59.5127 16.3046C59.5127 15.9661 59.5778 15.6874 59.708 15.4687C59.8382 15.2499 60.014 15.0768 60.2353 14.9492C60.4567 14.8216 60.7041 14.7252 60.9775 14.6601C61.251 14.595 61.5296 14.5455 61.8135 14.5117C62.1728 14.47 62.4645 14.4361 62.6885 14.4101C62.9124 14.3814 63.0752 14.3359 63.1768 14.2734C63.2783 14.2109 63.3291 14.1093 63.3291 13.9687V13.9413C63.3291 13.6002 63.2327 13.3359 63.04 13.1484C62.8499 12.9609 62.5661 12.8671 62.1885 12.8671C61.7952 12.8671 61.4853 12.9544 61.2588 13.1288C61.0348 13.3007 60.8799 13.4921 60.7939 13.7031L59.6963 13.4531C59.8265 13.0885 60.0166 12.7942 60.2666 12.5702C60.5192 12.3437 60.8096 12.1796 61.1377 12.0781C61.4658 11.9739 61.8109 11.9218 62.1728 11.9218C62.4124 11.9218 62.6663 11.9505 62.9346 12.0078C63.2054 12.0624 63.458 12.164 63.6924 12.3124C63.9294 12.4609 64.1234 12.6731 64.2744 12.9492C64.4255 13.2226 64.501 13.5781 64.501 14.0156V17.9999H63.3603V17.1796H63.3135C63.238 17.3307 63.1247 17.4791 62.9736 17.6249C62.8226 17.7708 62.6286 17.8919 62.3916 17.9882C62.1546 18.0846 61.8708 18.1327 61.54 18.1327ZM61.7939 17.1952C62.1169 17.1952 62.3929 17.1314 62.6221 17.0038C62.8538 16.8762 63.0296 16.7096 63.1494 16.5038C63.2718 16.2955 63.333 16.0729 63.333 15.8359V15.0624C63.2913 15.1041 63.2106 15.1432 63.0908 15.1796C62.9736 15.2135 62.8395 15.2434 62.6885 15.2695C62.5374 15.2929 62.3903 15.315 62.2471 15.3359C62.1038 15.3541 61.984 15.3697 61.8877 15.3827C61.6611 15.4114 61.4541 15.4596 61.2666 15.5273C61.0817 15.595 60.9333 15.6926 60.8213 15.8202C60.7119 15.9452 60.6572 16.1119 60.6572 16.3202C60.6572 16.6093 60.764 16.8281 60.9775 16.9765C61.1911 17.1223 61.4632 17.1952 61.7939 17.1952ZM66.0566 17.9999V11.9999H67.2246V17.9999H66.0566ZM66.6465 11.0742C66.4434 11.0742 66.2689 11.0064 66.123 10.871C65.9798 10.733 65.9082 10.5689 65.9082 10.3788C65.9082 10.1861 65.9798 10.0221 66.123 9.88666C66.2689 9.74864 66.4434 9.67963 66.6465 9.67963C66.8496 9.67963 67.0228 9.74864 67.166 9.88666C67.3118 10.0221 67.3848 10.1861 67.3848 10.3788C67.3848 10.5689 67.3118 10.733 67.166 10.871C67.0228 11.0064 66.8496 11.0742 66.6465 11.0742ZM69.9639 9.99994V17.9999H68.7959V9.99994H69.9639ZM73.2812 18.1327C72.901 18.1327 72.5573 18.0624 72.25 17.9218C71.9427 17.7786 71.6992 17.5716 71.5195 17.3007C71.3424 17.0299 71.2539 16.6979 71.2539 16.3046C71.2539 15.9661 71.319 15.6874 71.4492 15.4687C71.5794 15.2499 71.7552 15.0768 71.9766 14.9492C72.1979 14.8216 72.4453 14.7252 72.7187 14.6601C72.9922 14.595 73.2708 14.5455 73.5547 14.5117C73.9141 14.47 74.2057 14.4361 74.4297 14.4101C74.6536 14.3814 74.8164 14.3359 74.918 14.2734C75.0195 14.2109 75.0703 14.1093 75.0703 13.9687V13.9413C75.0703 13.6002 74.9739 13.3359 74.7812 13.1484C74.5911 12.9609 74.3073 12.8671 73.9297 12.8671C73.5365 12.8671 73.2266 12.9544 73 13.1288C72.776 13.3007 72.6211 13.4921 72.5351 13.7031L71.4375 13.4531C71.5677 13.0885 71.7578 12.7942 72.0078 12.5702C72.2604 12.3437 72.5508 12.1796 72.8789 12.0781C73.207 11.9739 73.5521 11.9218 73.9141 11.9218C74.1536 11.9218 74.4075 11.9505 74.6758 12.0078C74.9466 12.0624 75.1992 12.164 75.4336 12.3124C75.6706 12.4609 75.8646 12.6731 76.0156 12.9492C76.1667 13.2226 76.2422 13.5781 76.2422 14.0156V17.9999H75.1016V17.1796H75.0547C74.9792 17.3307 74.8659 17.4791 74.7148 17.6249C74.5638 17.7708 74.3698 17.8919 74.1328 17.9882C73.8958 18.0846 73.612 18.1327 73.2812 18.1327ZM73.5351 17.1952C73.8581 17.1952 74.1341 17.1314 74.3633 17.0038C74.595 16.8762 74.7708 16.7096 74.8906 16.5038C75.013 16.2955 75.0742 16.0729 75.0742 15.8359V15.0624C75.0325 15.1041 74.9518 15.1432 74.832 15.1796C74.7148 15.2135 74.5807 15.2434 74.4297 15.2695C74.2786 15.2929 74.1315 15.315 73.9883 15.3359C73.845 15.3541 73.7253 15.3697 73.6289 15.3827C73.4023 15.4114 73.1953 15.4596 73.0078 15.5273C72.8229 15.595 72.6745 15.6926 72.5625 15.8202C72.4531 15.9452 72.3984 16.1119 72.3984 16.3202C72.3984 16.6093 72.5052 16.8281 72.7187 16.9765C72.9323 17.1223 73.2044 17.1952 73.5351 17.1952ZM77.8916 17.9999V9.99994H79.0596V12.9726H79.1299C79.1976 12.8476 79.2952 12.7031 79.4228 12.539C79.5504 12.3749 79.7275 12.2317 79.9541 12.1093C80.1807 11.9843 80.4801 11.9218 80.8525 11.9218C81.3369 11.9218 81.7692 12.0442 82.1494 12.289C82.5296 12.5338 82.8278 12.8867 83.0439 13.3476C83.2627 13.8085 83.3721 14.3632 83.3721 15.0117C83.3721 15.6601 83.264 16.2161 83.0478 16.6796C82.8317 17.1406 82.5348 17.496 82.1572 17.746C81.7796 17.9934 81.3486 18.1171 80.8642 18.1171C80.4997 18.1171 80.2015 18.0559 79.9697 17.9335C79.7405 17.8111 79.5609 17.6679 79.4307 17.5038C79.3004 17.3398 79.2002 17.1939 79.1299 17.0663H79.0322V17.9999H77.8916ZM79.0361 14.9999C79.0361 15.4218 79.0973 15.7916 79.2197 16.1093C79.3421 16.427 79.5192 16.6757 79.751 16.8554C79.9827 17.0325 80.2666 17.121 80.6025 17.121C80.9515 17.121 81.2432 17.0286 81.4775 16.8437C81.7119 16.6562 81.889 16.4023 82.0088 16.082C82.1312 15.7617 82.1924 15.401 82.1924 14.9999C82.1924 14.6041 82.1325 14.2486 82.0127 13.9335C81.8955 13.6184 81.7184 13.3697 81.4814 13.1874C81.2471 13.0051 80.9541 12.914 80.6025 12.914C80.264 12.914 79.9775 13.0012 79.7432 13.1757C79.5114 13.3502 79.3356 13.5937 79.2158 13.9062C79.096 14.2187 79.0361 14.5833 79.0361 14.9999ZM85.8516 9.99994V17.9999H84.6836V9.99994H85.8516ZM90.0088 18.121C89.4176 18.121 88.9085 17.9947 88.4814 17.7421C88.057 17.4869 87.7288 17.1288 87.4971 16.6679C87.2679 16.2044 87.1533 15.6614 87.1533 15.039C87.1533 14.4244 87.2679 13.8827 87.4971 13.414C87.7288 12.9452 88.0517 12.5794 88.4658 12.3163C88.8825 12.0533 89.3695 11.9218 89.9267 11.9218C90.2653 11.9218 90.5934 11.9778 90.9111 12.0898C91.2288 12.2018 91.514 12.3775 91.7666 12.6171C92.0192 12.8567 92.2184 13.1679 92.3642 13.5507C92.5101 13.9309 92.583 14.3932 92.583 14.9374V15.3515H87.8135V14.4765H91.4385C91.4385 14.1692 91.376 13.8971 91.251 13.6601C91.126 13.4205 90.9502 13.2317 90.7236 13.0937C90.4997 12.9557 90.2366 12.8867 89.9346 12.8867C89.6064 12.8867 89.32 12.9674 89.0752 13.1288C88.833 13.2877 88.6455 13.496 88.5127 13.7538C88.3825 14.0091 88.3174 14.2864 88.3174 14.5859V15.2695C88.3174 15.6705 88.3877 16.0117 88.5283 16.2929C88.6715 16.5742 88.8708 16.789 89.126 16.9374C89.3812 17.0833 89.6793 17.1562 90.0205 17.1562C90.2418 17.1562 90.4437 17.1249 90.626 17.0624C90.8083 16.9973 90.9658 16.901 91.0986 16.7734C91.2314 16.6458 91.333 16.4882 91.4033 16.3007L92.5088 16.4999C92.4202 16.8255 92.2614 17.1106 92.0322 17.3554C91.8057 17.5976 91.5205 17.7864 91.1767 17.9218C90.8356 18.0546 90.4463 18.121 90.0088 18.121ZM99.3174 18.121C98.7549 18.121 98.264 17.9921 97.8447 17.7343C97.4254 17.4765 97.0999 17.1158 96.8681 16.6523C96.6364 16.1887 96.5205 15.6471 96.5205 15.0273C96.5205 14.4049 96.6364 13.8606 96.8681 13.3945C97.0999 12.9283 97.4254 12.5663 97.8447 12.3085C98.264 12.0507 98.7549 11.9218 99.3174 11.9218C99.8799 11.9218 100.371 12.0507 100.79 12.3085C101.209 12.5663 101.535 12.9283 101.767 13.3945C101.998 13.8606 102.114 14.4049 102.114 15.0273C102.114 15.6471 101.998 16.1887 101.767 16.6523C101.535 17.1158 101.209 17.4765 100.79 17.7343C100.371 17.9921 99.8799 18.121 99.3174 18.121ZM99.3213 17.1406C99.6859 17.1406 99.9879 17.0442 100.228 16.8515C100.467 16.6588 100.644 16.4023 100.759 16.082C100.876 15.7617 100.935 15.4088 100.935 15.0234C100.935 14.6406 100.876 14.289 100.759 13.9687C100.644 13.6458 100.467 13.3867 100.228 13.1913C99.9879 12.996 99.6859 12.8984 99.3213 12.8984C98.9541 12.8984 98.6494 12.996 98.4072 13.1913C98.1676 13.3867 97.9892 13.6458 97.8721 13.9687C97.7575 14.289 97.7002 14.6406 97.7002 15.0234C97.7002 15.4088 97.7575 15.7617 97.8721 16.082C97.9892 16.4023 98.1676 16.6588 98.4072 16.8515C98.6494 17.0442 98.9541 17.1406 99.3213 17.1406ZM104.586 14.4374V17.9999H103.418V11.9999H104.539V12.9765H104.613C104.751 12.6588 104.967 12.4036 105.262 12.2109C105.559 12.0182 105.932 11.9218 106.383 11.9218C106.792 11.9218 107.15 12.0078 107.457 12.1796C107.764 12.3489 108.003 12.6015 108.172 12.9374C108.341 13.2734 108.426 13.6887 108.426 14.1835V17.9999H107.258V14.3242C107.258 13.8893 107.145 13.5494 106.918 13.3046C106.691 13.0572 106.38 12.9335 105.984 12.9335C105.714 12.9335 105.473 12.9921 105.262 13.1093C105.053 13.2265 104.888 13.3984 104.766 13.6249C104.646 13.8489 104.586 14.1197 104.586 14.4374Z" fill="#E8E8E8"/>
<path d="M46.6605 22.2727H49.2727L51.4886 27.6761H51.5909L53.8068 22.2727H56.419V30.9999H54.3651V25.6391H54.2926L52.196 30.9445H50.8835L48.7869 25.6093H48.7145V30.9999H46.6605V22.2727ZM59.5799 31.1107C59.1623 31.1107 58.7915 31.0411 58.4677 30.9019C58.1467 30.7599 57.8924 30.5468 57.7049 30.2627C57.5202 29.9758 57.4279 29.6164 57.4279 29.1846C57.4279 28.821 57.4918 28.5141 57.6197 28.2641C57.7475 28.0141 57.9236 27.811 58.1481 27.6548C58.3725 27.4985 58.631 27.3806 58.9236 27.3011C59.2163 27.2187 59.5288 27.1633 59.8611 27.1349C60.2333 27.1008 60.533 27.0653 60.7603 27.0283C60.9876 26.9886 61.1523 26.9332 61.2546 26.8622C61.3597 26.7883 61.4123 26.6846 61.4123 26.5511V26.5298C61.4123 26.311 61.337 26.142 61.1864 26.0227C61.0359 25.9033 60.8327 25.8437 60.5771 25.8437C60.3015 25.8437 60.0799 25.9033 59.9123 26.0227C59.7447 26.142 59.6381 26.3068 59.5927 26.517L57.6708 26.4488C57.7276 26.0511 57.8739 25.696 58.1097 25.3835C58.3484 25.0681 58.6751 24.821 59.0898 24.642C59.5075 24.4602 60.0089 24.3693 60.5941 24.3693C61.0117 24.3693 61.3967 24.419 61.7489 24.5184C62.1012 24.615 62.408 24.757 62.6694 24.9445C62.9307 25.1292 63.1325 25.3565 63.2745 25.6264C63.4194 25.8962 63.4918 26.2045 63.4918 26.5511V30.9999H61.5316V30.088H61.4805C61.364 30.3096 61.2148 30.4971 61.033 30.6505C60.854 30.8039 60.6424 30.919 60.3981 30.9957C60.1566 31.0724 59.8839 31.1107 59.5799 31.1107ZM60.2234 29.7471C60.4478 29.7471 60.6495 29.7016 60.8285 29.6107C61.0103 29.5198 61.1552 29.3948 61.2631 29.2357C61.3711 29.0738 61.4251 28.8863 61.4251 28.6732V28.0511C61.3654 28.0823 61.293 28.1107 61.2077 28.1363C61.1254 28.1619 61.0344 28.186 60.935 28.2087C60.8356 28.2315 60.7333 28.2514 60.6282 28.2684C60.5231 28.2854 60.4222 28.3011 60.3256 28.3153C60.1296 28.3465 59.962 28.3948 59.8228 28.4602C59.6864 28.5255 59.5813 28.6107 59.5075 28.7158C59.4364 28.8181 59.4009 28.9403 59.4009 29.0823C59.4009 29.2982 59.4776 29.463 59.631 29.5766C59.7873 29.6903 59.9847 29.7471 60.2234 29.7471ZM70.881 24.4545L68.6353 30.9999H66.2489L64.0075 24.4545H66.2021L67.408 28.963H67.4762L68.6864 24.4545H70.881ZM74.5288 31.1235C73.8441 31.1235 73.2532 30.9886 72.756 30.7187C72.2617 30.446 71.881 30.0582 71.614 29.5553C71.3498 29.0497 71.2177 28.4488 71.2177 27.7528C71.2177 27.0766 71.3512 26.4857 71.6182 25.9801C71.8853 25.4715 72.2617 25.0766 72.7475 24.7954C73.2333 24.5113 73.8057 24.3693 74.4648 24.3693C74.9307 24.3693 75.3569 24.4417 75.7432 24.5866C76.1296 24.7315 76.4634 24.946 76.7447 25.2301C77.0259 25.5141 77.2447 25.865 77.4009 26.2826C77.5572 26.6974 77.6353 27.1732 77.6353 27.7102V28.2301H71.9464V27.0198H75.6964C75.6935 26.7982 75.641 26.6008 75.5387 26.4275C75.4364 26.2542 75.2958 26.1193 75.1168 26.0227C74.9407 25.9232 74.7376 25.8735 74.5074 25.8735C74.2745 25.8735 74.0657 25.9261 73.881 26.0312C73.6964 26.1335 73.5501 26.2741 73.4421 26.4531C73.3342 26.6292 73.2773 26.8295 73.2717 27.0539V28.2854C73.2717 28.5525 73.3242 28.7869 73.4293 28.9886C73.5344 29.1874 73.6836 29.3423 73.8768 29.4531C74.0699 29.5639 74.3001 29.6193 74.5671 29.6193C74.7518 29.6193 74.9194 29.5937 75.0699 29.5425C75.2205 29.4914 75.3498 29.4161 75.4577 29.3167C75.5657 29.2173 75.6467 29.0951 75.7006 28.9502L77.614 29.0056C77.5344 29.4346 77.3597 29.8082 77.0898 30.1264C76.8228 30.4417 76.4719 30.6874 76.0373 30.8636C75.6026 31.0369 75.0998 31.1235 74.5288 31.1235ZM80.7834 27.267V30.9999H78.6996V24.4545H80.6811V25.6562H80.7535C80.8984 25.2556 81.1456 24.9417 81.495 24.7144C81.8444 24.4843 82.2606 24.3693 82.7436 24.3693C83.2038 24.3693 83.603 24.4729 83.941 24.6803C84.2819 24.8849 84.5462 25.1718 84.7337 25.5411C84.924 25.9076 85.0177 26.3366 85.0149 26.8281V30.9999H82.9311V27.2372C82.9339 26.8735 82.8416 26.5894 82.6541 26.3849C82.4694 26.1803 82.2123 26.0781 81.8828 26.0781C81.6641 26.0781 81.4709 26.1264 81.3033 26.2229C81.1385 26.3167 81.0106 26.4516 80.9197 26.6278C80.8317 26.8039 80.7862 27.017 80.7834 27.267ZM96.805 25.4346H94.6743C94.6459 25.2158 94.5877 25.0184 94.4996 24.8423C94.4116 24.6661 94.2951 24.5156 94.1502 24.3906C94.0053 24.2656 93.8334 24.1704 93.6346 24.1051C93.4386 24.0369 93.2212 24.0028 92.9826 24.0028C92.5593 24.0028 92.1942 24.1065 91.8874 24.3139C91.5834 24.5212 91.3491 24.821 91.1843 25.213C91.0224 25.6051 90.9414 26.0795 90.9414 26.6363C90.9414 27.2158 91.0238 27.7016 91.1886 28.0937C91.3562 28.4829 91.5905 28.7769 91.8917 28.9758C92.1957 29.1718 92.555 29.2698 92.9698 29.2698C93.2028 29.2698 93.4144 29.24 93.6047 29.1803C93.7979 29.1207 93.967 29.034 94.1118 28.9204C94.2596 28.8039 94.3803 28.6633 94.4741 28.4985C94.5707 28.3309 94.6374 28.142 94.6743 27.9318L96.805 27.9445C96.7681 28.3309 96.6559 28.7116 96.4684 29.0866C96.2837 29.4616 96.0295 29.8039 95.7056 30.1136C95.3817 30.4204 94.9868 30.6647 94.5209 30.8465C94.0579 31.0283 93.5266 31.1193 92.9272 31.1193C92.1374 31.1193 91.43 30.946 90.805 30.5994C90.1829 30.2499 89.6914 29.7414 89.3306 29.0738C88.9698 28.4062 88.7894 27.5937 88.7894 26.6363C88.7894 25.6761 88.9726 24.8622 89.3391 24.1945C89.7056 23.5269 90.2013 23.0198 90.8263 22.6732C91.4513 22.3266 92.1516 22.1533 92.9272 22.1533C93.4556 22.1533 93.9442 22.2272 94.3931 22.3749C94.842 22.5198 95.2368 22.7329 95.5778 23.0141C95.9187 23.2926 96.1957 23.6349 96.4087 24.0411C96.6218 24.4474 96.7539 24.9119 96.805 25.4346ZM101.072 31.1235C100.387 31.1235 99.7961 30.9886 99.299 30.7187C98.8047 30.446 98.424 30.0582 98.1569 29.5553C97.8927 29.0497 97.7606 28.4488 97.7606 27.7528C97.7606 27.0766 97.8942 26.4857 98.1612 25.9801C98.4283 25.4715 98.8047 25.0766 99.2905 24.7954C99.7763 24.5113 100.349 24.3693 101.008 24.3693C101.474 24.3693 101.9 24.4417 102.286 24.5866C102.673 24.7315 103.006 24.946 103.288 25.2301C103.569 25.5141 103.788 25.865 103.944 26.2826C104.1 26.6974 104.178 27.1732 104.178 27.7102V28.2301H98.4893V27.0198H102.239C102.236 26.7982 102.184 26.6008 102.082 26.4275C101.979 26.2542 101.839 26.1193 101.66 26.0227C101.484 25.9232 101.281 25.8735 101.05 25.8735C100.817 25.8735 100.609 25.9261 100.424 26.0312C100.239 26.1335 100.093 26.2741 99.9851 26.4531C99.8771 26.6292 99.8203 26.8295 99.8146 27.0539V28.2854C99.8146 28.5525 99.8672 28.7869 99.9723 28.9886C100.077 29.1874 100.227 29.3423 100.42 29.4531C100.613 29.5639 100.843 29.6193 101.11 29.6193C101.295 29.6193 101.462 29.5937 101.613 29.5425C101.763 29.4914 101.893 29.4161 102.001 29.3167C102.109 29.2173 102.19 29.0951 102.244 28.9502L104.157 29.0056C104.077 29.4346 103.903 29.8082 103.633 30.1264C103.366 30.4417 103.015 30.6874 102.58 30.8636C102.146 31.0369 101.643 31.1235 101.072 31.1235ZM107.326 27.267V30.9999H105.243V24.4545H107.224V25.6562H107.297C107.441 25.2556 107.689 24.9417 108.038 24.7144C108.387 24.4843 108.804 24.3693 109.287 24.3693C109.747 24.3693 110.146 24.4729 110.484 24.6803C110.825 24.8849 111.089 25.1718 111.277 25.5411C111.467 25.9076 111.561 26.3366 111.558 26.8281V30.9999H109.474V27.2372C109.477 26.8735 109.385 26.5894 109.197 26.3849C109.012 26.1803 108.755 26.0781 108.426 26.0781C108.207 26.0781 108.014 26.1264 107.846 26.2229C107.681 26.3167 107.554 26.4516 107.463 26.6278C107.375 26.8039 107.329 27.017 107.326 27.267ZM116.543 24.4545V25.9886H112.413V24.4545H116.543ZM113.278 22.8863H115.362V28.9417C115.362 29.0695 115.382 29.1732 115.422 29.2528C115.464 29.3295 115.526 29.3849 115.605 29.419C115.685 29.4502 115.78 29.4658 115.891 29.4658C115.97 29.4658 116.054 29.4587 116.142 29.4445C116.233 29.4275 116.301 29.4133 116.347 29.4019L116.662 30.9062C116.562 30.9346 116.422 30.9701 116.24 31.0127C116.061 31.0553 115.847 31.0823 115.597 31.0937C115.108 31.1164 114.689 31.0596 114.339 30.9232C113.993 30.784 113.727 30.5681 113.543 30.2755C113.361 29.9829 113.273 29.615 113.278 29.1718V22.8863ZM117.606 30.9999V24.4545H119.63V25.6477H119.698C119.817 25.2158 120.012 24.8948 120.282 24.6846C120.552 24.4715 120.866 24.365 121.224 24.365C121.32 24.365 121.42 24.3721 121.522 24.3863C121.624 24.3977 121.719 24.4161 121.808 24.4417V26.2528C121.708 26.2187 121.577 26.1917 121.415 26.1718C121.256 26.1519 121.114 26.142 120.989 26.142C120.742 26.142 120.519 26.1974 120.32 26.3082C120.124 26.4161 119.969 26.5681 119.856 26.7641C119.745 26.9573 119.69 27.1846 119.69 27.446V30.9999H117.606ZM124.256 31.1107C123.838 31.1107 123.467 31.0411 123.143 30.9019C122.822 30.7599 122.568 30.5468 122.381 30.2627C122.196 29.9758 122.104 29.6164 122.104 29.1846C122.104 28.821 122.168 28.5141 122.295 28.2641C122.423 28.0141 122.599 27.811 122.824 27.6548C123.048 27.4985 123.307 27.3806 123.599 27.3011C123.892 27.2187 124.205 27.1633 124.537 27.1349C124.909 27.1008 125.209 27.0653 125.436 27.0283C125.663 26.9886 125.828 26.9332 125.93 26.8622C126.035 26.7883 126.088 26.6846 126.088 26.5511V26.5298C126.088 26.311 126.013 26.142 125.862 26.0227C125.712 25.9033 125.508 25.8437 125.253 25.8437C124.977 25.8437 124.756 25.9033 124.588 26.0227C124.42 26.142 124.314 26.3068 124.268 26.517L122.347 26.4488C122.403 26.0511 122.55 25.696 122.785 25.3835C123.024 25.0681 123.351 24.821 123.766 24.642C124.183 24.4602 124.685 24.3693 125.27 24.3693C125.687 24.3693 126.072 24.419 126.425 24.5184C126.777 24.615 127.084 24.757 127.345 24.9445C127.607 25.1292 127.808 25.3565 127.95 25.6264C128.095 25.8962 128.168 26.2045 128.168 26.5511V30.9999H126.207V30.088H126.156C126.04 30.3096 125.891 30.4971 125.709 30.6505C125.53 30.8039 125.318 30.919 125.074 30.9957C124.832 31.0724 124.56 31.1107 124.256 31.1107ZM124.899 29.7471C125.124 29.7471 125.325 29.7016 125.504 29.6107C125.686 29.5198 125.831 29.3948 125.939 29.2357C126.047 29.0738 126.101 28.8863 126.101 28.6732V28.0511C126.041 28.0823 125.969 28.1107 125.883 28.1363C125.801 28.1619 125.71 28.186 125.611 28.2087C125.511 28.2315 125.409 28.2514 125.304 28.2684C125.199 28.2854 125.098 28.3011 125.001 28.3153C124.805 28.3465 124.638 28.3948 124.499 28.4602C124.362 28.5255 124.257 28.6107 124.183 28.7158C124.112 28.8181 124.077 28.9403 124.077 29.0823C124.077 29.2982 124.153 29.463 124.307 29.5766C124.463 29.6903 124.66 29.7471 124.899 29.7471ZM131.526 22.2727V30.9999H129.442V22.2727H131.526Z" fill="url(#paint2_linear_28_612)"/>
</g>
<rect x="0.75" y="0.749939" width="141.5" height="38.5" rx="5.25" stroke="white" stroke-opacity="0.15" stroke-width="1.5"/>
<defs>
<filter id="filter0_d_28_612" x="6" y="1.99994" width="36" height="36.0001" filterUnits="userSpaceOnUse" color-interpolation-filters="sRGB">
<feFlood flood-opacity="0" result="BackgroundImageFix"/>
<feColorMatrix in="SourceAlpha" type="matrix" values="0 0 0 0 0 0 0 0 0 0 0 0 0 0 0 0 0 0 127 0" result="hardAlpha"/>
<feOffset/>
<feGaussianBlur stdDeviation="2"/>
<feComposite in2="hardAlpha" operator="out"/>
<feColorMatrix type="matrix" values="0 0 0 0 0 0 0 0 0 0 0 0 0 0 0 0 0 0 0.25 0"/>
<feBlend mode="normal" in2="BackgroundImageFix" result="effect1_dropShadow_28_612"/>
<feBlend mode="normal" in="SourceGraphic" in2="effect1_dropShadow_28_612" result="shape"/>
</filter>
<filter id="filter1_d_28_612" x="42" y="2.99994" width="95" height="34" filterUnits="userSpaceOnUse" color-interpolation-filters="sRGB">
<feFlood flood-opacity="0" result="BackgroundImageFix"/>
<feColorMatrix in="SourceAlpha" type="matrix" values="0 0 0 0 0 0 0 0 0 0 0 0 0 0 0 0 0 0 127 0" result="hardAlpha"/>
<feOffset/>
<feGaussianBlur stdDeviation="2"/>
<feComposite in2="hardAlpha" operator="out"/>
<feColorMatrix type="matrix" values="0 0 0 0 0 0 0 0 0 0 0 0 0 0 0 0 0 0 0.25 0"/>
<feBlend mode="normal" in2="BackgroundImageFix" result="effect1_dropShadow_28_612"/>
<feBlend mode="normal" in="SourceGraphic" in2="effect1_dropShadow_28_612" result="shape"/>
</filter>
<linearGradient id="paint0_linear_28_612" x1="71.5" y1="-6.10351e-05" x2="71.5" y2="39.9999" gradientUnits="userSpaceOnUse">
<stop stop-color="#141732"/>
<stop offset="1" stop-color="#0F1A23"/>
</linearGradient>
<linearGradient id="paint1_linear_28_612" x1="14.5" y1="10" x2="35.5" y2="27" gradientUnits="userSpaceOnUse">
<stop stop-color="#6E3BED"/>
<stop offset="1" stop-color="#4BA9EA"/>
</linearGradient>
<linearGradient id="paint2_linear_28_612" x1="46" y1="20" x2="133" y2="20" gradientUnits="userSpaceOnUse">
<stop stop-color="#5865F2"/>
<stop offset="1" stop-color="#27A2FD"/>
</linearGradient>
</defs>
</svg>
