<svg width="120" height="40" viewBox="0 0 120 40" fill="none" xmlns="http://www.w3.org/2000/svg">
<rect x="-0.000183105" y="-6.10352e-05" width="120" height="40" rx="6" fill="url(#paint0_linear_28_626)"/>
<g filter="url(#filter0_d_28_626)">
<path d="M22.6075 6.0794C17.7766 6.55923 13.5824 9.45692 11.4104 13.819C10.6864 15.271 10.1995 16.941 10.0373 18.5239L9.99982 18.8853H11.2481C11.9347 18.8853 12.4964 18.8666 12.5026 18.8354C12.5713 17.8197 13.0207 16.2244 13.5637 15.084C15.4923 11.046 19.5055 8.50972 23.9494 8.50972C25.8343 8.50972 27.4321 8.87738 29.0674 9.68748C30.9274 10.6098 32.4191 11.9184 33.5612 13.6196C34.0668 14.3736 34.7658 15.7508 34.6785 15.8256C34.6472 15.8567 34.1479 16.0063 33.5737 16.1559L32.5252 16.4363L32.2505 15.9004C31.3643 14.1306 29.885 12.6475 28.1374 11.7688C27.507 11.451 26.8579 11.208 26.7581 11.2454C26.7144 11.2578 26.6582 11.4074 26.6395 11.5756C26.6145 11.7377 26.5459 12.1676 26.4772 12.5291C26.4148 12.8905 26.3461 13.2893 26.3274 13.414L26.2837 13.6445L26.8142 13.8938C28.6367 14.7413 29.9537 16.3116 30.5092 18.2933C30.6715 18.8666 30.6902 18.9975 30.6902 20.007C30.6902 21.0165 30.6715 21.1473 30.5092 21.7206C30.1784 22.8922 29.5917 23.9266 28.7865 24.7367C28.3247 25.2041 27.6444 25.7089 27.1513 25.9643C26.9828 26.0454 26.8517 26.1513 26.8517 26.1949C26.8579 26.3009 27.4509 28.4819 27.4946 28.5193C27.5507 28.5754 28.6055 28.0145 29.2234 27.6033C29.9974 27.086 31.0709 26.0142 31.5889 25.2415C32.313 24.1572 32.7623 23.1165 33.0432 21.8702C33.1618 21.3218 33.1868 21.0414 33.1868 20.0257C33.1868 19.0161 33.1992 18.823 33.2804 18.8043C34.0418 18.5862 35.3588 18.2621 35.3837 18.2808C35.4274 18.3307 35.4961 19.3713 35.4961 20.007C35.4961 20.8669 35.4149 21.7082 35.2776 22.3126C35.2152 22.5993 35.1653 22.8423 35.1715 22.8486C35.1778 22.861 35.7021 23.048 36.3324 23.2785C37.2062 23.5964 37.4933 23.6774 37.5308 23.615C37.6307 23.4468 37.899 21.8017 37.9677 20.923C38.1112 18.9601 37.768 16.7042 37.0502 14.9282C35.028 9.92428 30.609 6.59662 25.2913 6.0794C24.2241 5.97347 23.6623 5.97347 22.6075 6.0794Z" fill="#00D845"/>
<path d="M22.9196 10.8279C22.464 10.8715 21.4466 11.1145 20.9286 11.2952C18.3758 12.1926 16.2725 14.2428 15.3238 16.7665C14.5873 18.717 14.5623 21.166 15.2613 23.0791L15.4174 23.5029L14.8432 23.8331C13.6947 24.4999 13.4888 24.6183 13.4451 24.6183C13.3889 24.6183 13.1143 23.9266 12.9395 23.3409C12.7398 22.6429 12.5276 21.6334 12.5026 21.1723C12.4964 21.1473 11.9347 21.1286 11.2481 21.1286H9.99982L10.0373 21.4838C10.3681 24.7056 11.8535 27.7466 14.219 30.046C19.7677 35.4301 28.6243 35.2992 34.0356 29.7531C34.7471 29.0178 35.4524 28.1142 35.9517 27.2917C36.3824 26.575 36.7132 25.902 36.6632 25.8522C36.6383 25.8272 36.3387 25.7088 35.9954 25.5842C35.6521 25.4596 35.1903 25.2913 34.9656 25.2166C34.7409 25.1355 34.5162 25.0483 34.4662 25.0296C34.3976 25.0047 34.3102 25.1106 34.1355 25.4471C33.0869 27.4911 31.1271 29.3481 28.9114 30.4075C27.0202 31.3048 25.0979 31.6413 22.8197 31.4606C20.5915 31.2861 18.1074 30.1894 16.3037 28.5878C15.7919 28.1329 15.0491 27.3353 14.7683 26.9365C14.6747 26.7994 14.6247 26.8368 16.0727 25.9955L16.6157 25.6777L17.3834 26.4442C18.7566 27.8214 20.2295 28.6315 22.1144 29.0552C22.6699 29.1736 22.9383 29.1985 23.9619 29.1985C24.6173 29.1985 25.1727 29.1798 25.1915 29.1611C25.2164 29.1424 25.1166 28.7062 24.9793 28.1952C24.842 27.6843 24.6984 27.1546 24.661 27.0112L24.5923 26.7558L23.7123 26.7184C22.052 26.6498 20.7351 26.1264 19.4993 25.0421C19.2933 24.8614 19.0624 24.637 18.9937 24.5498L18.8689 24.3878L20.2483 23.5901L21.6339 22.7987L23.0819 24.3317L24.7483 23.9889L26.4148 23.6524L28.6617 21.4091L28.462 20.6737C28.3372 20.2064 28.2373 19.9446 28.1874 19.9446C28.1374 19.9446 27.6319 20.0693 27.0577 20.2251L26.0091 20.5117L25.5722 20.9355C25.0979 21.3966 25.1665 21.3779 24.1367 21.4714L23.7622 21.5088L23.3128 21.0663C23.0631 20.8295 22.8572 20.6177 22.8572 20.6052C22.8572 20.5865 22.7885 20.3248 22.7074 20.0132L22.5576 19.4461L22.9633 18.904C23.188 18.5986 23.3815 18.3494 23.3939 18.3369C23.4002 18.3244 23.6686 18.2434 23.9931 18.1624L24.5736 18.0129L25.3662 17.2214C25.8094 16.7852 26.1651 16.3989 26.1651 16.3615C26.1651 16.3241 25.928 16.0624 25.6409 15.7757L25.1166 15.2585L23.5999 15.6698L22.077 16.0811L21.7649 16.4051C21.5964 16.5858 21.2406 16.9722 20.9847 17.2651C20.7288 17.5517 20.4043 17.9194 20.267 18.0752C19.7365 18.6734 19.7552 18.4927 20.086 19.6268C20.242 20.1814 20.3668 20.6488 20.3544 20.655C20.3232 20.68 19.0312 21.434 18.2323 21.8827C17.9327 22.0509 17.6643 22.188 17.6269 22.188C17.5956 22.188 17.502 21.9263 17.4209 21.6085C17.2898 21.1162 17.2711 20.8918 17.2711 19.9758C17.2773 19.0099 17.2898 18.8604 17.4521 18.2933C17.7891 17.0968 18.3696 16.0935 19.2059 15.2585C20.3544 14.1119 21.8648 13.4077 23.4002 13.3018C24.0493 13.2519 23.9994 13.3018 24.1055 12.6225C24.1429 12.3795 24.1991 12.0742 24.2303 11.9371C24.2615 11.8 24.2989 11.5756 24.3177 11.4385C24.3426 11.3015 24.3738 11.0958 24.3926 10.9836L24.43 10.7842L23.7871 10.7967C23.4314 10.7967 23.0382 10.8154 22.9196 10.8279Z" fill="#00D845"/>
</g>
<g filter="url(#filter1_d_28_626)">
<path d="M47.5545 17.9999H46.2733L49.1522 9.99994H50.5467L53.4256 17.9999H52.1443L49.8826 11.4531H49.8201L47.5545 17.9999ZM47.7693 14.8671H51.9256V15.8827H47.7693V14.8671ZM58.868 11.9999L56.6922 17.9999H55.4422L53.2625 11.9999H54.5164L56.0359 16.6171H56.0984L57.6141 11.9999H58.868ZM61.5399 18.1327C61.1596 18.1327 60.8159 18.0624 60.5086 17.9218C60.2013 17.7786 59.9578 17.5716 59.7781 17.3007C59.601 17.0299 59.5125 16.6979 59.5125 16.3046C59.5125 15.9661 59.5776 15.6874 59.7078 15.4687C59.838 15.2499 60.0138 15.0768 60.2352 14.9492C60.4565 14.8216 60.7039 14.7252 60.9774 14.6601C61.2508 14.595 61.5294 14.5455 61.8133 14.5117C62.1727 14.47 62.4643 14.4361 62.6883 14.4101C62.9122 14.3814 63.075 14.3359 63.1766 14.2734C63.2781 14.2109 63.3289 14.1093 63.3289 13.9687V13.9413C63.3289 13.6002 63.2326 13.3359 63.0399 13.1484C62.8497 12.9609 62.5659 12.8671 62.1883 12.8671C61.7951 12.8671 61.4852 12.9544 61.2586 13.1288C61.0346 13.3007 60.8797 13.4921 60.7938 13.7031L59.6961 13.4531C59.8263 13.0885 60.0164 12.7942 60.2664 12.5702C60.519 12.3437 60.8094 12.1796 61.1375 12.0781C61.4656 11.9739 61.8107 11.9218 62.1727 11.9218C62.4122 11.9218 62.6662 11.9505 62.9344 12.0078C63.2052 12.0624 63.4578 12.164 63.6922 12.3124C63.9292 12.4609 64.1232 12.6731 64.2742 12.9492C64.4253 13.2226 64.5008 13.5781 64.5008 14.0156V17.9999H63.3602V17.1796H63.3133C63.2378 17.3307 63.1245 17.4791 62.9734 17.6249C62.8224 17.7708 62.6284 17.8919 62.3914 17.9882C62.1544 18.0846 61.8706 18.1327 61.5399 18.1327ZM61.7938 17.1952C62.1167 17.1952 62.3927 17.1314 62.6219 17.0038C62.8537 16.8762 63.0294 16.7096 63.1492 16.5038C63.2716 16.2955 63.3328 16.0729 63.3328 15.8359V15.0624C63.2912 15.1041 63.2104 15.1432 63.0906 15.1796C62.9734 15.2135 62.8393 15.2434 62.6883 15.2695C62.5372 15.2929 62.3901 15.315 62.2469 15.3359C62.1037 15.3541 61.9839 15.3697 61.8875 15.3827C61.6609 15.4114 61.4539 15.4596 61.2664 15.5273C61.0815 15.595 60.9331 15.6926 60.8211 15.8202C60.7117 15.9452 60.657 16.1119 60.657 16.3202C60.657 16.6093 60.7638 16.8281 60.9774 16.9765C61.1909 17.1223 61.463 17.1952 61.7938 17.1952ZM66.0565 17.9999V11.9999H67.2244V17.9999H66.0565ZM66.6463 11.0742C66.4432 11.0742 66.2687 11.0064 66.1229 10.871C65.9796 10.733 65.908 10.5689 65.908 10.3788C65.908 10.1861 65.9796 10.0221 66.1229 9.88666C66.2687 9.74864 66.4432 9.67963 66.6463 9.67963C66.8494 9.67963 67.0226 9.74864 67.1658 9.88666C67.3117 10.0221 67.3846 10.1861 67.3846 10.3788C67.3846 10.5689 67.3117 10.733 67.1658 10.871C67.0226 11.0064 66.8494 11.0742 66.6463 11.0742ZM69.9637 9.99994V17.9999H68.7957V9.99994H69.9637ZM73.2811 18.1327C72.9009 18.1327 72.5571 18.0624 72.2498 17.9218C71.9425 17.7786 71.699 17.5716 71.5193 17.3007C71.3423 17.0299 71.2537 16.6979 71.2537 16.3046C71.2537 15.9661 71.3188 15.6874 71.449 15.4687C71.5792 15.2499 71.755 15.0768 71.9764 14.9492C72.1977 14.8216 72.4451 14.7252 72.7186 14.6601C72.992 14.595 73.2706 14.5455 73.5545 14.5117C73.9139 14.47 74.2055 14.4361 74.4295 14.4101C74.6535 14.3814 74.8162 14.3359 74.9178 14.2734C75.0193 14.2109 75.0701 14.1093 75.0701 13.9687V13.9413C75.0701 13.6002 74.9738 13.3359 74.7811 13.1484C74.591 12.9609 74.3071 12.8671 73.9295 12.8671C73.5363 12.8671 73.2264 12.9544 72.9998 13.1288C72.7759 13.3007 72.6209 13.4921 72.535 13.7031L71.4373 13.4531C71.5675 13.0885 71.7576 12.7942 72.0076 12.5702C72.2602 12.3437 72.5506 12.1796 72.8787 12.0781C73.2068 11.9739 73.5519 11.9218 73.9139 11.9218C74.1535 11.9218 74.4074 11.9505 74.6756 12.0078C74.9464 12.0624 75.199 12.164 75.4334 12.3124C75.6704 12.4609 75.8644 12.6731 76.0154 12.9492C76.1665 13.2226 76.242 13.5781 76.242 14.0156V17.9999H75.1014V17.1796H75.0545C74.979 17.3307 74.8657 17.4791 74.7147 17.6249C74.5636 17.7708 74.3696 17.8919 74.1326 17.9882C73.8956 18.0846 73.6118 18.1327 73.2811 18.1327ZM73.535 17.1952C73.8579 17.1952 74.1339 17.1314 74.3631 17.0038C74.5949 16.8762 74.7706 16.7096 74.8904 16.5038C75.0128 16.2955 75.074 16.0729 75.074 15.8359V15.0624C75.0324 15.1041 74.9516 15.1432 74.8318 15.1796C74.7147 15.2135 74.5805 15.2434 74.4295 15.2695C74.2785 15.2929 74.1313 15.315 73.9881 15.3359C73.8449 15.3541 73.7251 15.3697 73.6287 15.3827C73.4022 15.4114 73.1951 15.4596 73.0076 15.5273C72.8227 15.595 72.6743 15.6926 72.5623 15.8202C72.4529 15.9452 72.3982 16.1119 72.3982 16.3202C72.3982 16.6093 72.505 16.8281 72.7186 16.9765C72.9321 17.1223 73.2042 17.1952 73.535 17.1952ZM77.8914 17.9999V9.99994H79.0594V12.9726H79.1297C79.1974 12.8476 79.2951 12.7031 79.4227 12.539C79.5503 12.3749 79.7273 12.2317 79.9539 12.1093C80.1805 11.9843 80.4799 11.9218 80.8523 11.9218C81.3367 11.9218 81.769 12.0442 82.1492 12.289C82.5294 12.5338 82.8276 12.8867 83.0438 13.3476C83.2625 13.8085 83.3719 14.3632 83.3719 15.0117C83.3719 15.6601 83.2638 16.2161 83.0477 16.6796C82.8315 17.1406 82.5346 17.496 82.157 17.746C81.7794 17.9934 81.3484 18.1171 80.8641 18.1171C80.4995 18.1171 80.2013 18.0559 79.9695 17.9335C79.7404 17.8111 79.5607 17.6679 79.4305 17.5038C79.3003 17.3398 79.2 17.1939 79.1297 17.0663H79.032V17.9999H77.8914ZM79.0359 14.9999C79.0359 15.4218 79.0971 15.7916 79.2195 16.1093C79.3419 16.427 79.519 16.6757 79.7508 16.8554C79.9826 17.0325 80.2664 17.121 80.6023 17.121C80.9513 17.121 81.243 17.0286 81.4773 16.8437C81.7117 16.6562 81.8888 16.4023 82.0086 16.082C82.131 15.7617 82.1922 15.401 82.1922 14.9999C82.1922 14.6041 82.1323 14.2486 82.0125 13.9335C81.8953 13.6184 81.7182 13.3697 81.4813 13.1874C81.2469 13.0051 80.9539 12.914 80.6023 12.914C80.2638 12.914 79.9773 13.0012 79.743 13.1757C79.5112 13.3502 79.3354 13.5937 79.2156 13.9062C79.0958 14.2187 79.0359 14.5833 79.0359 14.9999ZM85.8514 9.99994V17.9999H84.6834V9.99994H85.8514ZM90.0086 18.121C89.4174 18.121 88.9083 17.9947 88.4812 17.7421C88.0568 17.4869 87.7286 17.1288 87.4969 16.6679C87.2677 16.2044 87.1531 15.6614 87.1531 15.039C87.1531 14.4244 87.2677 13.8827 87.4969 13.414C87.7286 12.9452 88.0516 12.5794 88.4656 12.3163C88.8823 12.0533 89.3693 11.9218 89.9266 11.9218C90.2651 11.9218 90.5932 11.9778 90.9109 12.0898C91.2286 12.2018 91.5138 12.3775 91.7664 12.6171C92.019 12.8567 92.2182 13.1679 92.3641 13.5507C92.5099 13.9309 92.5828 14.3932 92.5828 14.9374V15.3515H87.8133V14.4765H91.4383C91.4383 14.1692 91.3758 13.8971 91.2508 13.6601C91.1258 13.4205 90.95 13.2317 90.7234 13.0937C90.4995 12.9557 90.2365 12.8867 89.9344 12.8867C89.6062 12.8867 89.3198 12.9674 89.075 13.1288C88.8328 13.2877 88.6453 13.496 88.5125 13.7538C88.3823 14.0091 88.3172 14.2864 88.3172 14.5859V15.2695C88.3172 15.6705 88.3875 16.0117 88.5281 16.2929C88.6714 16.5742 88.8706 16.789 89.1258 16.9374C89.381 17.0833 89.6792 17.1562 90.0203 17.1562C90.2417 17.1562 90.4435 17.1249 90.6258 17.0624C90.8081 16.9973 90.9656 16.901 91.0984 16.7734C91.2312 16.6458 91.3328 16.4882 91.4031 16.3007L92.5086 16.4999C92.4201 16.8255 92.2612 17.1106 92.032 17.3554C91.8055 17.5976 91.5203 17.7864 91.1766 17.9218C90.8354 18.0546 90.4461 18.121 90.0086 18.121ZM99.3172 18.121C98.7547 18.121 98.2638 17.9921 97.8445 17.7343C97.4253 17.4765 97.0997 17.1158 96.868 16.6523C96.6362 16.1887 96.5203 15.6471 96.5203 15.0273C96.5203 14.4049 96.6362 13.8606 96.868 13.3945C97.0997 12.9283 97.4253 12.5663 97.8445 12.3085C98.2638 12.0507 98.7547 11.9218 99.3172 11.9218C99.8797 11.9218 100.371 12.0507 100.79 12.3085C101.209 12.5663 101.535 12.9283 101.766 13.3945C101.998 13.8606 102.114 14.4049 102.114 15.0273C102.114 15.6471 101.998 16.1887 101.766 16.6523C101.535 17.1158 101.209 17.4765 100.79 17.7343C100.371 17.9921 99.8797 18.121 99.3172 18.121ZM99.3211 17.1406C99.6857 17.1406 99.9878 17.0442 100.227 16.8515C100.467 16.6588 100.644 16.4023 100.759 16.082C100.876 15.7617 100.934 15.4088 100.934 15.0234C100.934 14.6406 100.876 14.289 100.759 13.9687C100.644 13.6458 100.467 13.3867 100.227 13.1913C99.9878 12.996 99.6857 12.8984 99.3211 12.8984C98.9539 12.8984 98.6492 12.996 98.407 13.1913C98.1674 13.3867 97.9891 13.6458 97.8719 13.9687C97.7573 14.289 97.7 14.6406 97.7 15.0234C97.7 15.4088 97.7573 15.7617 97.8719 16.082C97.9891 16.4023 98.1674 16.6588 98.407 16.8515C98.6492 17.0442 98.9539 17.1406 99.3211 17.1406ZM104.586 14.4374V17.9999H103.418V11.9999H104.539V12.9765H104.613C104.751 12.6588 104.967 12.4036 105.262 12.2109C105.558 12.0182 105.932 11.9218 106.383 11.9218C106.791 11.9218 107.15 12.0078 107.457 12.1796C107.764 12.3489 108.002 12.6015 108.172 12.9374C108.341 13.2734 108.426 13.6887 108.426 14.1835V17.9999H107.258V14.3242C107.258 13.8893 107.144 13.5494 106.918 13.3046C106.691 13.0572 106.38 12.9335 105.984 12.9335C105.713 12.9335 105.472 12.9921 105.262 13.1093C105.053 13.2265 104.888 13.3984 104.765 13.6249C104.646 13.8489 104.586 14.1197 104.586 14.4374Z" fill="#E8E8E8"/>
<path d="M46.6603 22.2727H49.2725L51.4885 27.6761H51.5907L53.8066 22.2727H56.4188V30.9999H54.3649V25.6391H54.2924L52.1958 30.9445H50.8833L48.7867 25.6093H48.7143V30.9999H46.6603V22.2727ZM60.7899 31.1235C60.1024 31.1235 59.5115 30.9829 59.0172 30.7016C58.5257 30.4175 58.1465 30.0227 57.8794 29.517C57.6152 29.0085 57.4831 28.419 57.4831 27.7485C57.4831 27.0752 57.6152 26.4857 57.8794 25.9801C58.1465 25.4715 58.5257 25.0766 59.0172 24.7954C59.5115 24.5113 60.1024 24.3693 60.7899 24.3693C61.4774 24.3693 62.0669 24.5113 62.5584 24.7954C63.0527 25.0766 63.432 25.4715 63.6962 25.9801C63.9632 26.4857 64.0968 27.0752 64.0968 27.7485C64.0968 28.419 63.9632 29.0085 63.6962 29.517C63.432 30.0227 63.0527 30.4175 62.5584 30.7016C62.0669 30.9829 61.4774 31.1235 60.7899 31.1235ZM60.8027 29.5511C61.0527 29.5511 61.2644 29.4744 61.4377 29.321C61.611 29.1675 61.7431 28.9545 61.834 28.6818C61.9277 28.409 61.9746 28.0937 61.9746 27.7357C61.9746 27.3721 61.9277 27.0539 61.834 26.7812C61.7431 26.5085 61.611 26.2954 61.4377 26.142C61.2644 25.9886 61.0527 25.9119 60.8027 25.9119C60.5442 25.9119 60.3255 25.9886 60.1465 26.142C59.9703 26.2954 59.8354 26.5085 59.7416 26.7812C59.6507 27.0539 59.6053 27.3721 59.6053 27.7357C59.6053 28.0937 59.6507 28.409 59.7416 28.6818C59.8354 28.9545 59.9703 29.1675 60.1465 29.321C60.3255 29.4744 60.5442 29.5511 60.8027 29.5511ZM67.5549 31.0937C67.0719 31.0937 66.633 30.9687 66.2381 30.7187C65.8432 30.4687 65.5279 30.0937 65.2921 29.5937C65.0563 29.0937 64.9384 28.4729 64.9384 27.7315C64.9384 26.9616 65.0605 26.3281 65.3049 25.8309C65.5492 25.3337 65.8688 24.9658 66.2637 24.7272C66.6614 24.4886 67.0889 24.3693 67.5463 24.3693C67.8901 24.3693 68.1841 24.4289 68.4284 24.5482C68.6728 24.6647 68.8745 24.8153 69.0335 24.9999C69.1926 25.1846 69.3134 25.3764 69.3958 25.5752H69.4384V22.2727H71.5222V30.9999H69.4597V29.9389H69.3958C69.3077 30.1406 69.1827 30.3295 69.0208 30.5056C68.8588 30.6818 68.6557 30.8238 68.4114 30.9318C68.1699 31.0397 67.8844 31.0937 67.5549 31.0937ZM68.2793 29.4701C68.5321 29.4701 68.748 29.3991 68.927 29.257C69.106 29.1122 69.2438 28.909 69.3404 28.6477C69.437 28.3863 69.4853 28.0795 69.4853 27.7272C69.4853 27.3693 69.437 27.061 69.3404 26.8025C69.2466 26.544 69.1088 26.3451 68.927 26.2059C68.748 26.0667 68.5321 25.9971 68.2793 25.9971C68.0208 25.9971 67.802 26.0681 67.623 26.2102C67.4441 26.3522 67.3077 26.5525 67.2139 26.811C67.123 27.0695 67.0776 27.3749 67.0776 27.7272C67.0776 28.0795 67.1245 28.3863 67.2182 28.6477C67.312 28.909 67.4469 29.1122 67.623 29.257C67.802 29.3991 68.0208 29.4701 68.2793 29.4701ZM72.84 30.9999V24.4545H74.8642V25.6477H74.9323C75.0517 25.2158 75.2463 24.8948 75.5161 24.6846C75.786 24.4715 76.1 24.365 76.4579 24.365C76.5545 24.365 76.6539 24.3721 76.7562 24.3863C76.8585 24.3977 76.9536 24.4161 77.0417 24.4417V26.2528C76.9423 26.2187 76.8116 26.1917 76.6497 26.1718C76.4906 26.1519 76.3485 26.142 76.2235 26.142C75.9764 26.142 75.7534 26.1974 75.5545 26.3082C75.3585 26.4161 75.2036 26.5681 75.09 26.7641C74.9792 26.9573 74.9238 27.1846 74.9238 27.446V30.9999H72.84ZM77.8908 30.9999V24.4545H79.9746V30.9999H77.8908ZM78.9348 23.6917C78.6422 23.6917 78.3908 23.5951 78.1806 23.4019C77.9703 23.2059 77.8652 22.9701 77.8652 22.6945C77.8652 22.4218 77.9703 22.1889 78.1806 21.9957C78.3908 21.7997 78.6422 21.7016 78.9348 21.7016C79.2303 21.7016 79.4817 21.7997 79.6891 21.9957C79.8993 22.1889 80.0044 22.4218 80.0044 22.6945C80.0044 22.9701 79.8993 23.2059 79.6891 23.4019C79.4817 23.5951 79.2303 23.6917 78.9348 23.6917ZM83.3847 27.267V30.9999H81.3009V24.4545H83.2825V25.6562H83.3549C83.4998 25.2556 83.747 24.9417 84.0964 24.7144C84.4458 24.4843 84.862 24.3693 85.345 24.3693C85.8052 24.3693 86.2044 24.4729 86.5424 24.6803C86.8833 24.8849 87.1475 25.1718 87.335 25.5411C87.5254 25.9076 87.6191 26.3366 87.6163 26.8281V30.9999H85.5325V27.2372C85.5353 26.8735 85.443 26.5894 85.2555 26.3849C85.0708 26.1803 84.8137 26.0781 84.4842 26.0781C84.2654 26.0781 84.0722 26.1264 83.9046 26.2229C83.7399 26.3167 83.612 26.4516 83.5211 26.6278C83.433 26.8039 83.3876 27.017 83.3847 27.267ZM92.601 24.4545V25.9886H88.4718V24.4545H92.601ZM89.3368 22.8863H91.4206V28.9417C91.4206 29.0695 91.4405 29.1732 91.4803 29.2528C91.5229 29.3295 91.584 29.3849 91.6635 29.419C91.7431 29.4502 91.8382 29.4658 91.949 29.4658C92.0286 29.4658 92.1124 29.4587 92.2004 29.4445C92.2914 29.4275 92.3595 29.4133 92.405 29.4019L92.7203 30.9062C92.6209 30.9346 92.4803 30.9701 92.2985 31.0127C92.1195 31.0553 91.905 31.0823 91.655 31.0937C91.1664 31.1164 90.7473 31.0596 90.3979 30.9232C90.0513 30.784 89.7857 30.5681 89.601 30.2755C89.4192 29.9829 89.3311 29.615 89.3368 29.1718V22.8863ZM95.8887 27.267V30.9999H93.8048V22.2727H95.8205V25.6562H95.8929C96.0406 25.2528 96.2821 24.9374 96.6173 24.7102C96.9554 24.4829 97.3688 24.3693 97.8574 24.3693C98.3176 24.3693 98.7182 24.4715 99.0591 24.6761C99.4 24.8778 99.6642 25.1633 99.8517 25.5326C100.042 25.9019 100.136 26.3337 100.133 26.8281V30.9999H98.0492V27.2372C98.052 26.8735 97.9611 26.5894 97.7764 26.3849C97.5918 26.1803 97.3318 26.0781 96.9966 26.0781C96.7779 26.0781 96.5847 26.1264 96.4171 26.2229C96.2523 26.3167 96.123 26.4516 96.0293 26.6278C95.9384 26.8039 95.8915 27.017 95.8887 27.267Z" fill="#00D845"/>
</g>
<rect x="0.749817" y="0.749939" width="118.5" height="38.5" rx="5.25" stroke="white" stroke-opacity="0.15" stroke-width="1.5"/>
<defs>
<filter id="filter0_d_28_626" x="5.99982" y="1.99994" width="36" height="36" filterUnits="userSpaceOnUse" color-interpolation-filters="sRGB">
<feFlood flood-opacity="0" result="BackgroundImageFix"/>
<feColorMatrix in="SourceAlpha" type="matrix" values="0 0 0 0 0 0 0 0 0 0 0 0 0 0 0 0 0 0 127 0" result="hardAlpha"/>
<feOffset/>
<feGaussianBlur stdDeviation="2"/>
<feComposite in2="hardAlpha" operator="out"/>
<feColorMatrix type="matrix" values="0 0 0 0 0 0 0 0 0 0 0 0 0 0 0 0 0 0 0.25 0"/>
<feBlend mode="normal" in2="BackgroundImageFix" result="effect1_dropShadow_28_626"/>
<feBlend mode="normal" in="SourceGraphic" in2="effect1_dropShadow_28_626" result="shape"/>
</filter>
<filter id="filter1_d_28_626" x="41.9998" y="2.99994" width="71.9999" height="34" filterUnits="userSpaceOnUse" color-interpolation-filters="sRGB">
<feFlood flood-opacity="0" result="BackgroundImageFix"/>
<feColorMatrix in="SourceAlpha" type="matrix" values="0 0 0 0 0 0 0 0 0 0 0 0 0 0 0 0 0 0 127 0" result="hardAlpha"/>
<feOffset/>
<feGaussianBlur stdDeviation="2"/>
<feComposite in2="hardAlpha" operator="out"/>
<feColorMatrix type="matrix" values="0 0 0 0 0 0 0 0 0 0 0 0 0 0 0 0 0 0 0.25 0"/>
<feBlend mode="normal" in2="BackgroundImageFix" result="effect1_dropShadow_28_626"/>
<feBlend mode="normal" in="SourceGraphic" in2="effect1_dropShadow_28_626" result="shape"/>
</filter>
<linearGradient id="paint0_linear_28_626" x1="59.9998" y1="-6.10351e-05" x2="59.9998" y2="39.9999" gradientUnits="userSpaceOnUse">
<stop stop-color="#00230B"/>
<stop offset="1" stop-color="#001B08"/>
</linearGradient>
</defs>
</svg>
