<svg width="166" height="56" viewBox="0 0 166 56" fill="none" xmlns="http://www.w3.org/2000/svg">
<rect y="-0.000244141" width="166" height="56" rx="8" fill="url(#paint0_linear_1_30)"/>
<g filter="url(#filter0_d_1_30)">
<path d="M12 27.9998C12 39.0455 20.9543 47.9998 32 47.9998C43.0457 47.9998 52 39.0455 52 27.9998C52 16.9541 43.0457 7.99976 32 7.99976C20.9543 7.99976 12 16.9541 12 27.9998Z" fill="url(#paint1_linear_1_30)"/>
<path d="M27.2897 25.4524C26.3919 24.2405 24.6222 23.445 22.9731 23.445C20.2483 23.445 17.7143 25.0789 17.7143 29.5628V37.0802C17.7143 37.5897 18.1377 37.9999 18.6597 37.9999C19.182 37.9999 19.6053 37.5867 19.6053 37.0802V29.5628C19.6044 26.1551 21.2891 25.2877 22.9731 25.2877C24.6572 25.2877 26.3412 26.6541 26.3412 28.9603V37.0802C26.3412 37.5897 26.7646 37.9999 27.2866 37.9999H27.2906H27.2947C27.8167 37.9999 28.2401 37.5897 28.2401 37.0802V28.9603C28.2401 26.6541 29.9241 25.2877 31.6082 25.2877C32.6773 25.2877 34.976 25.7511 34.976 28.9603L35.0399 31.6875C35.0399 36.7267 38.505 37.9999 40.7101 37.9999C42.9152 37.9999 46.2184 36.5132 46.2858 32.0547V24.9201C46.2858 23.6928 44.3894 23.6928 44.3894 24.9201V32.0547C44.3894 35.437 41.8126 36.1574 40.7101 36.1574C39.6076 36.1574 36.93 35.6504 36.93 31.6875L36.867 29.1095C36.867 25.2872 34.4099 23.2913 31.6082 23.2913C29.9591 23.2913 28.1875 24.2405 27.2897 25.4524Z" fill="white"/>
<path d="M36.7229 20.8313C36.7229 18.9863 38.115 16.9876 40.5219 16.9876C42.9289 16.9876 44.3163 18.9863 44.3163 20.8313C44.3163 22.2149 46.2107 22.2149 46.2107 20.8313C46.2107 17.6026 43.7165 15.1427 40.5219 15.1427C37.3274 15.1427 34.8338 17.6026 34.8338 20.8313C34.8341 22.2149 36.7229 22.2149 36.7229 20.8313Z" fill="white"/>
<path d="M41.9518 20.8826C41.9518 20.2097 41.3936 19.6649 40.7044 19.6649C40.0151 19.6649 39.4569 20.2097 39.4569 20.8826C39.4569 21.5554 40.0151 22.1002 40.7044 22.1002C41.3936 22.1002 41.9518 21.5554 41.9518 20.8826Z" fill="white"/>
</g>
<g filter="url(#filter1_d_1_30)">
<path d="M62.2613 24.4998H60.3977L64.5852 12.8634H66.6136L70.8011 24.4998H68.9375L65.6477 14.977H65.5568L62.2613 24.4998ZM62.5738 19.9429H68.6193V21.4202H62.5738V19.9429ZM78.7173 15.7725L75.5525 24.4998H73.7343L70.5639 15.7725H72.3878L74.598 22.4884H74.6889L76.8934 15.7725H78.7173ZM82.6037 24.6929C82.0506 24.6929 81.5506 24.5907 81.1037 24.3861C80.6567 24.1778 80.3025 23.8766 80.0412 23.4827C79.7836 23.0888 79.6548 22.6058 79.6548 22.0338C79.6548 21.5414 79.7495 21.1361 79.9389 20.8179C80.1283 20.4998 80.384 20.2479 80.7059 20.0623C81.0279 19.8766 81.3877 19.7365 81.7855 19.6418C82.1832 19.5471 82.5885 19.4751 83.0014 19.4259C83.5241 19.3653 83.9484 19.316 84.2741 19.2782C84.5999 19.2365 84.8366 19.1702 84.9843 19.0793C85.1321 18.9884 85.2059 18.8407 85.2059 18.6361V18.5963C85.2059 18.1001 85.0658 17.7157 84.7855 17.4429C84.509 17.1702 84.0961 17.0338 83.5468 17.0338C82.9749 17.0338 82.5241 17.1607 82.1946 17.4145C81.8688 17.6645 81.6434 17.9429 81.5184 18.2498L79.9218 17.8861C80.1112 17.3558 80.3877 16.9278 80.7514 16.602C81.1188 16.2725 81.5412 16.0338 82.0184 15.8861C82.4957 15.7346 82.9976 15.6588 83.5241 15.6588C83.8726 15.6588 84.2419 15.7005 84.6321 15.7838C85.026 15.8634 85.3934 16.0111 85.7343 16.227C86.079 16.4429 86.3612 16.7516 86.5809 17.1532C86.8006 17.5509 86.9105 18.0679 86.9105 18.7043V24.4998H85.2514V23.3066H85.1832C85.0734 23.5263 84.9086 23.7422 84.6889 23.9543C84.4692 24.1664 84.187 24.3426 83.8423 24.4827C83.4976 24.6229 83.0847 24.6929 82.6037 24.6929ZM82.973 23.3293C83.4427 23.3293 83.8442 23.2365 84.1775 23.0509C84.5146 22.8653 84.7703 22.6229 84.9446 22.3236C85.1226 22.0206 85.2116 21.6967 85.2116 21.352V20.227C85.151 20.2876 85.0336 20.3444 84.8593 20.3975C84.6889 20.4467 84.4938 20.4903 84.2741 20.5282C84.0544 20.5623 83.8404 20.5944 83.6321 20.6248C83.4237 20.6513 83.2495 20.674 83.1093 20.6929C82.7798 20.7346 82.4787 20.8047 82.2059 20.9032C81.937 21.0016 81.7211 21.1437 81.5582 21.3293C81.3991 21.5111 81.3196 21.7535 81.3196 22.0566C81.3196 22.477 81.4749 22.7952 81.7855 23.0111C82.0961 23.2232 82.4919 23.3293 82.973 23.3293ZM89.1733 24.4998V15.7725H90.8721V24.4998H89.1733ZM90.0312 14.4259C89.7358 14.4259 89.482 14.3274 89.2698 14.1304C89.0615 13.9297 88.9573 13.691 88.9573 13.4145C88.9573 13.1342 89.0615 12.8956 89.2698 12.6986C89.482 12.4979 89.7358 12.3975 90.0312 12.3975C90.3267 12.3975 90.5786 12.4979 90.7869 12.6986C90.999 12.8956 91.1051 13.1342 91.1051 13.4145C91.1051 13.691 90.999 13.9297 90.7869 14.1304C90.5786 14.3274 90.3267 14.4259 90.0312 14.4259ZM94.8565 12.8634V24.4998H93.1576V12.8634H94.8565ZM99.6818 24.6929C99.1287 24.6929 98.6287 24.5907 98.1818 24.3861C97.7348 24.1778 97.3806 23.8766 97.1193 23.4827C96.8617 23.0888 96.7329 22.6058 96.7329 22.0338C96.7329 21.5414 96.8276 21.1361 97.017 20.8179C97.2064 20.4998 97.4621 20.2479 97.784 20.0623C98.106 19.8766 98.4659 19.7365 98.8636 19.6418C99.2613 19.5471 99.6666 19.4751 100.08 19.4259C100.602 19.3653 101.026 19.316 101.352 19.2782C101.678 19.2365 101.915 19.1702 102.062 19.0793C102.21 18.9884 102.284 18.8407 102.284 18.6361V18.5963C102.284 18.1001 102.144 17.7157 101.864 17.4429C101.587 17.1702 101.174 17.0338 100.625 17.0338C100.053 17.0338 99.6022 17.1607 99.2727 17.4145C98.9469 17.6645 98.7215 17.9429 98.5965 18.2498L97 17.8861C97.1894 17.3558 97.4659 16.9278 97.8295 16.602C98.1969 16.2725 98.6193 16.0338 99.0965 15.8861C99.5738 15.7346 100.076 15.6588 100.602 15.6588C100.951 15.6588 101.32 15.7005 101.71 15.7838C102.104 15.8634 102.472 16.0111 102.812 16.227C103.157 16.4429 103.439 16.7516 103.659 17.1532C103.879 17.5509 103.989 18.0679 103.989 18.7043V24.4998H102.33V23.3066H102.261C102.151 23.5263 101.987 23.7422 101.767 23.9543C101.547 24.1664 101.265 24.3426 100.92 24.4827C100.576 24.6229 100.163 24.6929 99.6818 24.6929ZM100.051 23.3293C100.521 23.3293 100.922 23.2365 101.256 23.0509C101.593 22.8653 101.848 22.6229 102.023 22.3236C102.201 22.0206 102.29 21.6967 102.29 21.352V20.227C102.229 20.2876 102.112 20.3444 101.937 20.3975C101.767 20.4467 101.572 20.4903 101.352 20.5282C101.133 20.5623 100.919 20.5944 100.71 20.6248C100.502 20.6513 100.328 20.674 100.187 20.6929C99.8579 20.7346 99.5568 20.8047 99.284 20.9032C99.0151 21.0016 98.7992 21.1437 98.6363 21.3293C98.4772 21.5111 98.3977 21.7535 98.3977 22.0566C98.3977 22.477 98.553 22.7952 98.8636 23.0111C99.1742 23.2232 99.57 23.3293 100.051 23.3293ZM106.388 24.4998V12.8634H108.087V17.1873H108.189C108.287 17.0054 108.429 16.7952 108.615 16.5566C108.801 16.3179 109.058 16.1096 109.388 15.9316C109.717 15.7498 110.153 15.6588 110.695 15.6588C111.399 15.6588 112.028 15.8369 112.581 16.1929C113.134 16.549 113.568 17.0623 113.882 17.7327C114.2 18.4032 114.359 19.21 114.359 20.1532C114.359 21.0963 114.202 21.9051 113.888 22.5793C113.573 23.2498 113.142 23.7668 112.592 24.1304C112.043 24.4903 111.416 24.6702 110.712 24.6702C110.181 24.6702 109.748 24.5812 109.41 24.4032C109.077 24.2251 108.816 24.0168 108.626 23.7782C108.437 23.5395 108.291 23.3274 108.189 23.1418H108.047V24.4998H106.388ZM108.053 20.1361C108.053 20.7498 108.142 21.2876 108.32 21.7498C108.498 22.2119 108.755 22.5736 109.092 22.835C109.429 23.0926 109.842 23.2213 110.331 23.2213C110.838 23.2213 111.263 23.0869 111.604 22.8179C111.945 22.5452 112.202 22.1759 112.376 21.71C112.554 21.2441 112.643 20.7194 112.643 20.1361C112.643 19.5604 112.556 19.0433 112.382 18.585C112.212 18.1266 111.954 17.7649 111.609 17.4998C111.268 17.2346 110.842 17.102 110.331 17.102C109.838 17.102 109.422 17.2289 109.081 17.4827C108.744 17.7365 108.488 18.0907 108.314 18.5452C108.14 18.9998 108.053 19.5301 108.053 20.1361ZM117.966 12.8634V24.4998H116.267V12.8634H117.966ZM124.013 24.6759C123.153 24.6759 122.412 24.4922 121.791 24.1248C121.174 23.7535 120.696 23.2327 120.359 22.5623C120.026 21.888 119.859 21.0982 119.859 20.1929C119.859 19.299 120.026 18.5111 120.359 17.8293C120.696 17.1475 121.166 16.6153 121.768 16.2327C122.374 15.8501 123.083 15.6588 123.893 15.6588C124.386 15.6588 124.863 15.7403 125.325 15.9032C125.787 16.066 126.202 16.3217 126.57 16.6702C126.937 17.0187 127.227 17.4713 127.439 18.0282C127.651 18.5812 127.757 19.2535 127.757 20.0452V20.6475H120.82V19.3748H126.092C126.092 18.9278 126.001 18.532 125.82 18.1873C125.638 17.8388 125.382 17.5641 125.053 17.3634C124.727 17.1626 124.344 17.0623 123.905 17.0623C123.428 17.0623 123.011 17.1797 122.655 17.4145C122.303 17.6456 122.03 17.9486 121.837 18.3236C121.647 18.6948 121.553 19.0982 121.553 19.5338V20.5282C121.553 21.1115 121.655 21.6077 121.859 22.0168C122.068 22.4259 122.357 22.7384 122.729 22.9543C123.1 23.1664 123.534 23.2725 124.03 23.2725C124.352 23.2725 124.645 23.227 124.91 23.1361C125.176 23.0414 125.405 22.9013 125.598 22.7157C125.791 22.5301 125.939 22.3009 126.041 22.0282L127.649 22.3179C127.52 22.7914 127.289 23.2062 126.956 23.5623C126.626 23.9145 126.212 24.1891 125.712 24.3861C125.215 24.5793 124.649 24.6759 124.013 24.6759ZM137.553 24.6759C136.734 24.6759 136.02 24.4884 135.41 24.1134C134.801 23.7384 134.327 23.2138 133.99 22.5395C133.653 21.8653 133.484 21.0774 133.484 20.1759C133.484 19.2706 133.653 18.4789 133.99 17.8009C134.327 17.1229 134.801 16.5963 135.41 16.2213C136.02 15.8463 136.734 15.6588 137.553 15.6588C138.371 15.6588 139.085 15.8463 139.695 16.2213C140.304 16.5963 140.778 17.1229 141.115 17.8009C141.452 18.4789 141.621 19.2706 141.621 20.1759C141.621 21.0774 141.452 21.8653 141.115 22.5395C140.778 23.2138 140.304 23.7384 139.695 24.1134C139.085 24.4884 138.371 24.6759 137.553 24.6759ZM137.558 23.2498C138.088 23.2498 138.528 23.1096 138.876 22.8293C139.225 22.549 139.482 22.1759 139.649 21.71C139.82 21.2441 139.905 20.7308 139.905 20.1702C139.905 19.6134 139.82 19.102 139.649 18.6361C139.482 18.1664 139.225 17.7895 138.876 17.5054C138.528 17.2213 138.088 17.0793 137.558 17.0793C137.024 17.0793 136.581 17.2213 136.229 17.5054C135.88 17.7895 135.621 18.1664 135.45 18.6361C135.284 19.102 135.2 19.6134 135.2 20.1702C135.2 20.7308 135.284 21.2441 135.45 21.71C135.621 22.1759 135.88 22.549 136.229 22.8293C136.581 23.1096 137.024 23.2498 137.558 23.2498ZM145.216 19.3179V24.4998H143.517V15.7725H145.148V17.1929H145.256C145.456 16.7308 145.771 16.3596 146.199 16.0793C146.631 15.799 147.174 15.6588 147.829 15.6588C148.424 15.6588 148.945 15.7838 149.392 16.0338C149.839 16.2801 150.186 16.6475 150.432 17.1361C150.678 17.6248 150.801 18.2289 150.801 18.9486V24.4998H149.102V19.1532C149.102 18.5206 148.937 18.0263 148.608 17.6702C148.278 17.3104 147.826 17.1304 147.25 17.1304C146.856 17.1304 146.506 17.2157 146.199 17.3861C145.896 17.5566 145.655 17.8066 145.477 18.1361C145.303 18.4619 145.216 18.8558 145.216 19.3179Z" fill="#E8E8E8"/>
<path d="M60.9357 31.1361H64.6363L67.7755 38.7909H67.9204L71.0596 31.1361H74.7603V43.4998H71.8505V35.9053H71.7478L68.7777 43.4213H66.9183L63.9481 35.863H63.8455V43.4998H60.9357V31.1361ZM82.6068 39.4973V34.227H85.5528V43.4998H82.7396V41.7732H82.643C82.4377 42.3407 82.0876 42.7914 81.5926 43.1255C81.1016 43.4555 80.5079 43.6205 79.8117 43.6205C79.1798 43.6205 78.6244 43.4756 78.1455 43.1858C77.6665 42.8961 77.2943 42.4916 77.0286 41.9724C76.763 41.4492 76.6282 40.8375 76.6242 40.1372V34.227H79.5762V39.5576C79.5802 40.0607 79.7131 40.4571 79.9747 40.7469C80.2363 41.0367 80.5924 41.1816 81.0432 41.1816C81.337 41.1816 81.6006 41.1172 81.834 40.9884C82.0715 40.8556 82.2586 40.6644 82.3955 40.4149C82.5363 40.1613 82.6068 39.8555 82.6068 39.4973ZM95.5273 37.0583L92.8167 37.1308C92.7885 36.9376 92.7121 36.7666 92.5873 36.6177C92.4626 36.4647 92.2996 36.346 92.0983 36.2615C91.9011 36.1729 91.6717 36.1287 91.4101 36.1287C91.068 36.1287 90.7762 36.1971 90.5348 36.3339C90.2973 36.4708 90.1806 36.6559 90.1846 36.8893C90.1806 37.0704 90.253 37.2274 90.4019 37.3602C90.5549 37.493 90.8265 37.5997 91.2169 37.6802L93.0039 38.0182C93.9295 38.1953 94.6177 38.4891 95.0685 38.8996C95.5233 39.3101 95.7527 39.8534 95.7567 40.5296C95.7527 41.1655 95.5635 41.7189 95.1892 42.1897C94.819 42.6606 94.3119 43.0269 93.6679 43.2885C93.024 43.546 92.2875 43.6748 91.4584 43.6748C90.1343 43.6748 89.0899 43.4032 88.3252 42.8598C87.5646 42.3125 87.1299 41.58 87.0213 40.6624L89.9371 40.59C90.0015 40.928 90.1685 41.1856 90.4382 41.3627C90.7078 41.5398 91.0519 41.6283 91.4705 41.6283C91.8488 41.6283 92.1567 41.5579 92.3941 41.417C92.6316 41.2761 92.7523 41.089 92.7564 40.8556C92.7523 40.6463 92.6598 40.4793 92.4787 40.3545C92.2975 40.2257 92.0138 40.1251 91.6274 40.0527L90.0095 39.7448C89.0799 39.5757 88.3876 39.2638 87.9328 38.8091C87.4781 38.3502 87.2527 37.7667 87.2567 37.0583C87.2527 36.4386 87.4177 35.9093 87.7517 35.4706C88.0858 35.0279 88.5607 34.6899 89.1765 34.4564C89.7922 34.223 90.5187 34.1063 91.3558 34.1063C92.6115 34.1063 93.6015 34.3699 94.326 34.8971C95.0504 35.4203 95.4508 36.1407 95.5273 37.0583ZM101.545 43.6748C100.575 43.6748 99.7376 43.4837 99.0332 43.1013C98.333 42.715 97.7937 42.1656 97.4154 41.4532C97.0411 40.7368 96.8539 39.8856 96.8539 38.8996C96.8539 37.9418 97.0431 37.1046 97.4214 36.3882C97.7997 35.6678 98.333 35.1084 99.0212 34.71C99.7094 34.3075 100.52 34.1063 101.454 34.1063C102.114 34.1063 102.718 34.2089 103.265 34.4142C103.812 34.6194 104.285 34.9233 104.684 35.3257C105.082 35.7282 105.392 36.2253 105.614 36.8169C105.835 37.4045 105.946 38.0786 105.946 38.8392V39.5757H97.8862V37.8613H103.199C103.195 37.5473 103.12 37.2676 102.975 37.0221C102.83 36.7766 102.631 36.5855 102.378 36.4486C102.128 36.3078 101.84 36.2373 101.514 36.2373C101.184 36.2373 100.889 36.3118 100.627 36.4607C100.365 36.6056 100.158 36.8048 100.005 37.0583C99.8523 37.3079 99.7718 37.5916 99.7637 37.9096V39.6542C99.7637 40.0325 99.8382 40.3646 99.9871 40.6503C100.136 40.932 100.347 41.1514 100.621 41.3083C100.895 41.4653 101.221 41.5438 101.599 41.5438C101.861 41.5438 102.098 41.5076 102.311 41.4351C102.525 41.3627 102.708 41.256 102.861 41.1152C103.014 40.9743 103.128 40.8012 103.205 40.596L105.915 40.6745C105.803 41.2822 105.555 41.8114 105.173 42.2622C104.794 42.7089 104.297 43.057 103.682 43.3066C103.066 43.5521 102.354 43.6748 101.545 43.6748ZM115.549 37.0583L112.838 37.1308C112.81 36.9376 112.734 36.7666 112.609 36.6177C112.484 36.4647 112.321 36.346 112.12 36.2615C111.923 36.1729 111.693 36.1287 111.432 36.1287C111.09 36.1287 110.798 36.1971 110.556 36.3339C110.319 36.4708 110.202 36.6559 110.206 36.8893C110.202 37.0704 110.275 37.2274 110.423 37.3602C110.576 37.493 110.848 37.5997 111.238 37.6802L113.025 38.0182C113.951 38.1953 114.639 38.4891 115.09 38.8996C115.545 39.3101 115.774 39.8534 115.778 40.5296C115.774 41.1655 115.585 41.7189 115.211 42.1897C114.84 42.6606 114.333 43.0269 113.689 43.2885C113.045 43.546 112.309 43.6748 111.48 43.6748C110.156 43.6748 109.111 43.4032 108.347 42.8598C107.586 42.3125 107.151 41.58 107.043 40.6624L109.959 40.59C110.023 40.928 110.19 41.1856 110.46 41.3627C110.729 41.5398 111.073 41.6283 111.492 41.6283C111.87 41.6283 112.178 41.5579 112.416 41.417C112.653 41.2761 112.774 41.089 112.778 40.8556C112.774 40.6463 112.681 40.4793 112.5 40.3545C112.319 40.2257 112.035 40.1251 111.649 40.0527L110.031 39.7448C109.101 39.5757 108.409 39.2638 107.954 38.8091C107.5 38.3502 107.274 37.7667 107.278 37.0583C107.274 36.4386 107.439 35.9093 107.773 35.4706C108.107 35.0279 108.582 34.6899 109.198 34.4564C109.814 34.223 110.54 34.1063 111.377 34.1063C112.633 34.1063 113.623 34.3699 114.347 34.8971C115.072 35.4203 115.472 36.1407 115.549 37.0583ZM121.56 43.6748C120.582 43.6748 119.743 43.4736 119.043 43.0711C118.346 42.6687 117.811 42.1092 117.437 41.3929C117.063 40.6725 116.875 39.8394 116.875 38.8936C116.875 37.9438 117.063 37.1107 117.437 36.3943C117.815 35.6739 118.352 35.1124 119.049 34.71C119.749 34.3075 120.584 34.1063 121.554 34.1063C122.411 34.1063 123.158 34.2612 123.794 34.5711C124.434 34.881 124.933 35.3197 125.291 35.8872C125.653 36.4506 125.844 37.1127 125.864 37.8733H123.106C123.049 37.3984 122.888 37.0261 122.623 36.7565C122.361 36.4869 122.019 36.352 121.596 36.352C121.254 36.352 120.954 36.4486 120.697 36.6418C120.439 36.831 120.238 37.1127 120.093 37.487C119.952 37.8572 119.882 38.316 119.882 38.8634C119.882 39.4107 119.952 39.8736 120.093 40.2519C120.238 40.6262 120.439 40.9099 120.697 41.1031C120.954 41.2922 121.254 41.3868 121.596 41.3868C121.87 41.3868 122.111 41.3285 122.321 41.2118C122.534 41.095 122.709 40.924 122.846 40.6986C122.983 40.4692 123.069 40.1915 123.106 39.8655H125.864C125.836 40.6302 125.645 41.2983 125.291 41.8698C124.941 42.4413 124.448 42.886 123.812 43.2039C123.18 43.5179 122.429 43.6748 121.56 43.6748ZM131.704 43.6748C130.73 43.6748 129.893 43.4756 129.192 43.0772C128.496 42.6747 127.959 42.1153 127.58 41.3989C127.206 40.6785 127.019 39.8434 127.019 38.8936C127.019 37.9397 127.206 37.1046 127.58 36.3882C127.959 35.6678 128.496 35.1084 129.192 34.71C129.893 34.3075 130.73 34.1063 131.704 34.1063C132.678 34.1063 133.513 34.3075 134.209 34.71C134.909 35.1084 135.447 35.6678 135.821 36.3882C136.199 37.1046 136.388 37.9397 136.388 38.8936C136.388 39.8434 136.199 40.6785 135.821 41.3989C135.447 42.1153 134.909 42.6747 134.209 43.0772C133.513 43.4756 132.678 43.6748 131.704 43.6748ZM131.722 41.4472C132.076 41.4472 132.376 41.3385 132.621 41.1212C132.867 40.9039 133.054 40.602 133.183 40.2157C133.315 39.8293 133.382 39.3826 133.382 38.8755C133.382 38.3603 133.315 37.9096 133.183 37.5232C133.054 37.1368 132.867 36.835 132.621 36.6177C132.376 36.4003 132.076 36.2917 131.722 36.2917C131.355 36.2917 131.046 36.4003 130.792 36.6177C130.543 36.835 130.351 37.1368 130.219 37.5232C130.09 37.9096 130.025 38.3603 130.025 38.8755C130.025 39.3826 130.09 39.8293 130.219 40.2157C130.351 40.602 130.543 40.9039 130.792 41.1212C131.046 41.3385 131.355 41.4472 131.722 41.4472ZM137.901 43.4998V34.227H140.768V35.9174H140.865C141.034 35.3056 141.309 34.8508 141.692 34.553C142.074 34.2512 142.519 34.1003 143.026 34.1003C143.163 34.1003 143.304 34.1103 143.448 34.1304C143.593 34.1465 143.728 34.1727 143.853 34.2089V36.7746C143.712 36.7263 143.527 36.6881 143.298 36.6599C143.072 36.6317 142.871 36.6177 142.694 36.6177C142.344 36.6177 142.028 36.6961 141.746 36.8531C141.468 37.006 141.249 37.2213 141.088 37.499C140.931 37.7727 140.853 38.0947 140.853 38.465V43.4998H137.901ZM148.909 43.6748C147.939 43.6748 147.102 43.4837 146.397 43.1013C145.697 42.715 145.158 42.1656 144.78 41.4532C144.405 40.7368 144.218 39.8856 144.218 38.8996C144.218 37.9418 144.407 37.1046 144.786 36.3882C145.164 35.6678 145.697 35.1084 146.385 34.71C147.074 34.3075 147.885 34.1063 148.818 34.1063C149.478 34.1063 150.082 34.2089 150.629 34.4142C151.177 34.6194 151.65 34.9233 152.048 35.3257C152.446 35.7282 152.756 36.2253 152.978 36.8169C153.199 37.4045 153.31 38.0786 153.31 38.8392V39.5757H145.25V37.8613H150.563C150.559 37.5473 150.484 37.2676 150.34 37.0221C150.195 36.7766 149.996 36.5855 149.742 36.4486C149.492 36.3078 149.205 36.2373 148.879 36.2373C148.549 36.2373 148.253 36.3118 147.991 36.4607C147.73 36.6056 147.522 36.8048 147.369 37.0583C147.217 37.3079 147.136 37.5916 147.128 37.9096V39.6542C147.128 40.0325 147.202 40.3646 147.351 40.6503C147.5 40.932 147.712 41.1514 147.985 41.3083C148.259 41.4653 148.585 41.5438 148.963 41.5438C149.225 41.5438 149.462 41.5076 149.676 41.4351C149.889 41.3627 150.072 41.256 150.225 41.1152C150.378 40.9743 150.493 40.8012 150.569 40.596L153.28 40.6745C153.167 41.2822 152.919 41.8114 152.537 42.2622C152.159 42.7089 151.662 43.057 151.046 43.3066C150.43 43.5521 149.718 43.6748 148.909 43.6748Z" fill="#663DED"/>
</g>
<rect x="1.05" y="1.04976" width="163.9" height="53.9" rx="6.95" stroke="white" stroke-opacity="0.15" stroke-width="2.1"/>
<defs>
<filter id="filter0_d_1_30" x="6.28571" y="2.28547" width="51.4286" height="51.4286" filterUnits="userSpaceOnUse" color-interpolation-filters="sRGB">
<feFlood flood-opacity="0" result="BackgroundImageFix"/>
<feColorMatrix in="SourceAlpha" type="matrix" values="0 0 0 0 0 0 0 0 0 0 0 0 0 0 0 0 0 0 127 0" result="hardAlpha"/>
<feOffset/>
<feGaussianBlur stdDeviation="2.85714"/>
<feComposite in2="hardAlpha" operator="out"/>
<feColorMatrix type="matrix" values="0 0 0 0 0 0 0 0 0 0 0 0 0 0 0 0 0 0 0.25 0"/>
<feBlend mode="normal" in2="BackgroundImageFix" result="effect1_dropShadow_1_30"/>
<feBlend mode="normal" in="SourceGraphic" in2="effect1_dropShadow_1_30" result="shape"/>
</filter>
<filter id="filter1_d_1_30" x="54.4" y="3.89976" width="105.2" height="48.2" filterUnits="userSpaceOnUse" color-interpolation-filters="sRGB">
<feFlood flood-opacity="0" result="BackgroundImageFix"/>
<feColorMatrix in="SourceAlpha" type="matrix" values="0 0 0 0 0 0 0 0 0 0 0 0 0 0 0 0 0 0 127 0" result="hardAlpha"/>
<feOffset/>
<feGaussianBlur stdDeviation="2.8"/>
<feComposite in2="hardAlpha" operator="out"/>
<feColorMatrix type="matrix" values="0 0 0 0 0 0 0 0 0 0 0 0 0 0 0 0 0 0 0.25 0"/>
<feBlend mode="normal" in2="BackgroundImageFix" result="effect1_dropShadow_1_30"/>
<feBlend mode="normal" in="SourceGraphic" in2="effect1_dropShadow_1_30" result="shape"/>
</filter>
<linearGradient id="paint0_linear_1_30" x1="83" y1="-0.000244141" x2="83" y2="55.9997" gradientUnits="userSpaceOnUse">
<stop stop-color="#170B3F"/>
<stop offset="1" stop-color="#0F0729"/>
</linearGradient>
<linearGradient id="paint1_linear_1_30" x1="32" y1="7.99976" x2="32" y2="47.9998" gradientUnits="userSpaceOnUse">
<stop stop-color="#5529E5"/>
<stop offset="1" stop-color="#0F0239"/>
</linearGradient>
</defs>
</svg>
