<svg width="120" height="40" viewBox="0 0 120 40" fill="none" xmlns="http://www.w3.org/2000/svg">
<rect y="-6.10352e-05" width="120" height="40" rx="6" fill="url(#paint0_linear_48_2)"/>
<g filter="url(#filter0_d_48_2)">
<path d="M18.0346 15.4237L22.0138 16.95V21.8788L18.0346 20.3525V15.4237Z" fill="#E9E9FF" stroke="#CCCCCC" stroke-width="0.212801" stroke-linejoin="bevel"/>
<path d="M13.9966 16.9726V21.9014L18.0346 20.3525V15.4237L13.9966 16.9726Z" fill="#353564" stroke="#CCCCCC" stroke-width="0.212801" stroke-linejoin="bevel"/>
<path d="M13.9966 21.901L17.9757 23.427L22.0138 21.8784L18.0346 20.3524L13.9966 21.901Z" fill="#AFAFDE" stroke="#CCCCCC" stroke-width="0.212801" stroke-linejoin="bevel"/>
<path d="M13.9966 16.9723L17.9757 18.4983L22.0138 16.9497L18.0346 15.4237L13.9966 16.9723Z" fill="#F7F7F4" stroke="#CCCCCC" stroke-width="0.212801" stroke-linejoin="bevel"/>
<path d="M17.9758 18.4989V23.4277L22.0138 21.8788V16.95L17.9758 18.4989Z" fill="white" stroke="#CCCCCC" stroke-width="0.212801" stroke-linejoin="bevel"/>
<path d="M13.9966 16.9726L17.9757 18.4989V23.4277L13.9966 21.9014V16.9726Z" fill="#EFEEEA" stroke="#CCCCCC" stroke-width="0.212801" stroke-linejoin="bevel"/>
<path d="M22.0312 11.9777L26.0104 13.504V18.4327L22.0312 16.9064V11.9777Z" fill="#E9E9FF" stroke="#CCCCCC" stroke-width="0.212801" stroke-linejoin="bevel"/>
<path d="M17.9931 13.5266V18.4553L22.0312 16.9064V11.9777L17.9931 13.5266Z" fill="#353564" stroke="#CCCCCC" stroke-width="0.212801" stroke-linejoin="bevel"/>
<path d="M17.9931 18.455L21.9723 19.9809L26.0103 18.4324L22.0312 16.9064L17.9931 18.455Z" fill="#AFAFDE" stroke="#CCCCCC" stroke-width="0.212801" stroke-linejoin="bevel"/>
<path d="M17.9931 13.5262L21.9723 15.0522L26.0103 13.5037L22.0312 11.9777L17.9931 13.5262Z" fill="#F7F7F4" stroke="#CCCCCC" stroke-width="0.212801" stroke-linejoin="bevel"/>
<path d="M21.9723 15.0528V19.9816L26.0104 18.4327V13.5039L21.9723 15.0528Z" fill="white" stroke="#CCCCCC" stroke-width="0.212801" stroke-linejoin="bevel"/>
<path d="M17.9931 13.5266L21.9723 15.0529V19.9816L17.9931 18.4553V13.5266Z" fill="#EFEEEA" stroke="#CCCCCC" stroke-width="0.212801" stroke-linejoin="bevel"/>
<path d="M14.0381 21.9329L18.0173 23.4592V28.388L14.0381 26.8617V21.9329Z" fill="#E9E9FF" stroke="#CCCCCC" stroke-width="0.212801" stroke-linejoin="bevel"/>
<path d="M10 23.4818V28.4106L14.0381 26.8617V21.9329L10 23.4818Z" fill="#353564" stroke="#CCCCCC" stroke-width="0.212801" stroke-linejoin="bevel"/>
<path d="M10 28.4102L13.9792 29.9362L18.0172 28.3876L14.0381 26.8616L10 28.4102Z" fill="#AFAFDE" stroke="#CCCCCC" stroke-width="0.212801" stroke-linejoin="bevel"/>
<path d="M10 23.4815L13.9792 25.0075L18.0172 23.4589L14.0381 21.9329L10 23.4815Z" fill="#F7F7F4" stroke="#CCCCCC" stroke-width="0.212801" stroke-linejoin="bevel"/>
<path d="M13.9792 25.0081V29.9369L18.0173 28.388V23.4592L13.9792 25.0081Z" fill="white" stroke="#CCCCCC" stroke-width="0.212801" stroke-linejoin="bevel"/>
<path d="M10 23.4818L13.9792 25.0081V29.9369L10 28.4106V23.4818Z" fill="#EFEEEA" stroke="#CCCCCC" stroke-width="0.212801" stroke-linejoin="bevel"/>
<path d="M18.0346 23.4644L22.0137 24.9907V29.9195L18.0346 28.3932V23.4644Z" fill="#E9E9FF" stroke="#CCCCCC" stroke-width="0.212801" stroke-linejoin="bevel"/>
<path d="M13.9965 25.0133V29.9421L18.0346 28.3932V23.4644L13.9965 25.0133Z" fill="#353564" stroke="#CCCCCC" stroke-width="0.212801" stroke-linejoin="bevel"/>
<path d="M13.9965 29.9418L17.9757 31.4678L22.0137 29.9192L18.0346 28.3932L13.9965 29.9418Z" fill="#AFAFDE" stroke="#CCCCCC" stroke-width="0.212801" stroke-linejoin="bevel"/>
<path d="M13.9965 25.013L17.9757 26.539L22.0137 24.9904L18.0346 23.4644L13.9965 25.013Z" fill="#F7F7F4" stroke="#CCCCCC" stroke-width="0.212801" stroke-linejoin="bevel"/>
<path d="M17.9757 26.5397V31.4685L22.0137 29.9195V24.9908L17.9757 26.5397Z" fill="white" stroke="#CCCCCC" stroke-width="0.212801" stroke-linejoin="bevel"/>
<path d="M13.9965 25.0134L17.9757 26.5397V31.4684L13.9965 29.9421V25.0134Z" fill="#EFEEEA" stroke="#CCCCCC" stroke-width="0.212801" stroke-linejoin="bevel"/>
<path d="M18.0346 18.4868L22.0137 20.0131V24.9419L18.0346 23.4156V18.4868Z" fill="#E9E9FF" stroke="#CCCCCC" stroke-width="0.212801" stroke-linejoin="bevel"/>
<path d="M13.9965 20.0357V24.9645L18.0346 23.4156V18.4868L13.9965 20.0357Z" fill="#353564" stroke="#CCCCCC" stroke-width="0.212801" stroke-linejoin="bevel"/>
<path d="M13.9965 24.9641L17.9757 26.4901L22.0137 24.9415L18.0346 23.4155L13.9965 24.9641Z" fill="#AFAFDE" stroke="#CCCCCC" stroke-width="0.212801" stroke-linejoin="bevel"/>
<path d="M13.9965 20.0354L17.9757 21.5614L22.0137 20.0128L18.0346 18.4868L13.9965 20.0354Z" fill="#F7F7F4" stroke="#CCCCCC" stroke-width="0.212801" stroke-linejoin="bevel"/>
<path d="M17.9757 21.562V26.4908L22.0137 24.9419V20.0131L17.9757 21.562Z" fill="white" stroke="#CCCCCC" stroke-width="0.212801" stroke-linejoin="bevel"/>
<path d="M13.9965 20.0357L17.9757 21.562V26.4908L13.9965 24.9645V20.0357Z" fill="#EFEEEA" stroke="#CCCCCC" stroke-width="0.212801" stroke-linejoin="bevel"/>
<path d="M34.0208 20.4012L38 21.9276V26.8563L34.0208 25.33V20.4012Z" fill="#E9E9FF" stroke="#CCCCCC" stroke-width="0.212801" stroke-linejoin="bevel"/>
<path d="M29.9827 21.9502V26.8789L34.0208 25.33V20.4012L29.9827 21.9502Z" fill="#353564" stroke="#CCCCCC" stroke-width="0.212801" stroke-linejoin="bevel"/>
<path d="M29.9827 26.8786L33.9619 28.4046L38 26.856L34.0208 25.33L29.9827 26.8786Z" fill="#AFAFDE" stroke="#CCCCCC" stroke-width="0.212801" stroke-linejoin="bevel"/>
<path d="M29.9827 21.9498L33.9619 23.4758L38 21.9272L34.0208 20.4012L29.9827 21.9498Z" fill="#F7F7F4" stroke="#CCCCCC" stroke-width="0.212801" stroke-linejoin="bevel"/>
<path d="M33.9619 23.4765V28.4053L38 26.8564V21.9276L33.9619 23.4765Z" fill="white" stroke="#CCCCCC" stroke-width="0.212801" stroke-linejoin="bevel"/>
<path d="M29.9827 21.9502L33.9619 23.4765V28.4053L29.9827 26.879V21.9502Z" fill="#EFEEEA" stroke="#CCCCCC" stroke-width="0.212801" stroke-linejoin="bevel"/>
<path d="M30.0243 21.9329L34.0034 23.4592V28.3879L30.0243 26.8616V21.9329Z" fill="#E9E9FF" stroke="#CCCCCC" stroke-width="0.212801" stroke-linejoin="bevel"/>
<path d="M25.9862 23.4818V28.4105L30.0242 26.8616V21.9329L25.9862 23.4818Z" fill="#353564" stroke="#CCCCCC" stroke-width="0.212801" stroke-linejoin="bevel"/>
<path d="M25.9862 28.4102L29.9653 29.9361L34.0034 28.3876L30.0242 26.8616L25.9862 28.4102Z" fill="#AFAFDE" stroke="#CCCCCC" stroke-width="0.212801" stroke-linejoin="bevel"/>
<path d="M25.9862 23.4814L29.9653 25.0074L34.0034 23.4589L30.0242 21.9329L25.9862 23.4814Z" fill="#F7F7F4" stroke="#CCCCCC" stroke-width="0.212801" stroke-linejoin="bevel"/>
<path d="M29.9653 25.0081V29.9368L34.0033 28.3879V23.4592L29.9653 25.0081Z" fill="#FFD242" stroke="#CCCCCC" stroke-width="0.212801" stroke-linejoin="bevel"/>
<path d="M25.9862 23.4818L29.9653 25.0081V29.9368L25.9862 28.4105V23.4818Z" fill="#EFEEEA" stroke="#CCCCCC" stroke-width="0.212801" stroke-linejoin="bevel"/>
<path d="M32.496 27.3767C32.9243 27.2125 33.2715 26.69 33.2715 26.2097C33.2715 25.7295 32.9243 25.4733 32.496 25.6376C32.0677 25.8019 31.7205 26.3244 31.7205 26.8047C31.7205 27.2849 32.0677 27.541 32.496 27.3767Z" fill="white"/>
<path d="M26.0277 23.4644L30.0069 24.9907V29.9195L26.0277 28.3932V23.4644Z" fill="#E9E9FF" stroke="#CCCCCC" stroke-width="0.212801" stroke-linejoin="bevel"/>
<path d="M21.9897 25.0133V29.9421L26.0278 28.3932V23.4644L21.9897 25.0133Z" fill="#353564" stroke="#CCCCCC" stroke-width="0.212801" stroke-linejoin="bevel"/>
<path d="M21.9897 29.9418L25.9689 31.4678L30.0069 29.9192L26.0278 28.3932L21.9897 29.9418Z" fill="#AFAFDE" stroke="#CCCCCC" stroke-width="0.212801" stroke-linejoin="bevel"/>
<path d="M21.9897 25.013L25.9689 26.539L30.0069 24.9904L26.0278 23.4644L21.9897 25.013Z" fill="#F7F7F4" stroke="#CCCCCC" stroke-width="0.212801" stroke-linejoin="bevel"/>
<path d="M25.9688 26.5397V31.4685L30.0069 29.9195V24.9908L25.9688 26.5397Z" fill="#FFD242" stroke="#CCCCCC" stroke-width="0.212801" stroke-linejoin="bevel"/>
<path d="M21.9897 25.0134L25.9689 26.5397V31.4684L21.9897 29.9421V25.0134Z" fill="#EFEEEA" stroke="#CCCCCC" stroke-width="0.212801" stroke-linejoin="bevel"/>
<path d="M22.0311 24.996L26.0103 26.5224V31.4511L22.0311 29.9248V24.996Z" fill="#E9E9FF" stroke="#CCCCCC" stroke-width="0.212801" stroke-linejoin="bevel"/>
<path d="M17.9931 26.5449V31.4737L22.0311 29.9248V24.996L17.9931 26.5449Z" fill="#353564" stroke="#CCCCCC" stroke-width="0.212801" stroke-linejoin="bevel"/>
<path d="M17.9931 31.4733L21.9722 32.9993L26.0103 31.4507L22.0311 29.9247L17.9931 31.4733Z" fill="#AFAFDE" stroke="#CCCCCC" stroke-width="0.212801" stroke-linejoin="bevel"/>
<path d="M17.9931 26.5446L21.9722 28.0706L26.0103 26.522L22.0311 24.996L17.9931 26.5446Z" fill="#F7F7F4" stroke="#CCCCCC" stroke-width="0.212801" stroke-linejoin="bevel"/>
<path d="M21.9723 28.0712V33L26.0104 31.4511V26.5223L21.9723 28.0712Z" fill="white" stroke="#CCCCCC" stroke-width="0.212801" stroke-linejoin="bevel"/>
<path d="M17.9931 26.5449L21.9722 28.0712V33L17.9931 31.4737V26.5449Z" fill="#EFEEEA" stroke="#CCCCCC" stroke-width="0.212801" stroke-linejoin="bevel"/>
<path d="M34.0208 15.4237L38 16.95V21.8788L34.0208 20.3525V15.4237Z" fill="#E9E9FF" stroke="#CCCCCC" stroke-width="0.212801" stroke-linejoin="bevel"/>
<path d="M29.9827 16.9726V21.9014L34.0208 20.3525V15.4237L29.9827 16.9726Z" fill="#353564" stroke="#CCCCCC" stroke-width="0.212801" stroke-linejoin="bevel"/>
<path d="M29.9827 21.901L33.9619 23.427L38 21.8784L34.0208 20.3524L29.9827 21.901Z" fill="#AFAFDE" stroke="#CCCCCC" stroke-width="0.212801" stroke-linejoin="bevel"/>
<path d="M29.9827 16.9723L33.9619 18.4983L38 16.9497L34.0208 15.4237L29.9827 16.9723Z" fill="#F7F7F4" stroke="#CCCCCC" stroke-width="0.212801" stroke-linejoin="bevel"/>
<path d="M33.9619 18.4989V23.4277L38 21.8788V16.95L33.9619 18.4989Z" fill="#FFD242" stroke="#CCCCCC" stroke-width="0.212801" stroke-linejoin="bevel"/>
<path d="M29.9827 16.9726L33.9619 18.4989V23.4277L29.9827 21.9014V16.9726Z" fill="#EFEEEA" stroke="#CCCCCC" stroke-width="0.212801" stroke-linejoin="bevel"/>
<path d="M34.0208 10.446L38 11.9724V16.9011L34.0208 15.3748V10.446Z" fill="#E9E9FF" stroke="#CCCCCC" stroke-width="0.212801" stroke-linejoin="bevel"/>
<path d="M29.9827 11.995V16.9237L34.0208 15.3748V10.446L29.9827 11.995Z" fill="#353564" stroke="#CCCCCC" stroke-width="0.212801" stroke-linejoin="bevel"/>
<path d="M29.9827 16.9234L33.9619 18.4494L38 16.9008L34.0208 15.3748L29.9827 16.9234Z" fill="#AFAFDE" stroke="#CCCCCC" stroke-width="0.212801" stroke-linejoin="bevel"/>
<path d="M29.9827 11.9946L33.9619 13.5206L38 11.972L34.0208 10.446L29.9827 11.9946Z" fill="#FFC91D" stroke="#CCCCCC" stroke-width="0.212801" stroke-linejoin="bevel"/>
<path d="M33.9619 13.5213V18.45L38 16.9011V11.9724L33.9619 13.5213Z" fill="#FFD242" stroke="#CCCCCC" stroke-width="0.212801" stroke-linejoin="bevel"/>
<path d="M29.9827 11.995L33.9619 13.5213V18.4501L29.9827 16.9238V11.995Z" fill="#EFEEEA" stroke="#CCCCCC" stroke-width="0.212801" stroke-linejoin="bevel"/>
<path d="M30.0243 16.9552L34.0034 18.4815V23.4103L30.0243 21.884V16.9552Z" fill="#E9E9FF" stroke="#CCCCCC" stroke-width="0.212801" stroke-linejoin="bevel"/>
<path d="M25.9862 18.5041V23.4329L30.0242 21.884V16.9552L25.9862 18.5041Z" fill="#353564" stroke="#CCCCCC" stroke-width="0.212801" stroke-linejoin="bevel"/>
<path d="M25.9862 23.4326L29.9653 24.9586L34.0034 23.41L30.0242 21.884L25.9862 23.4326Z" fill="#AFAFDE" stroke="#CCCCCC" stroke-width="0.212801" stroke-linejoin="bevel"/>
<path d="M25.9862 18.5038L29.9653 20.0298L34.0034 18.4812L30.0242 16.9552L25.9862 18.5038Z" fill="#F7F7F4" stroke="#CCCCCC" stroke-width="0.212801" stroke-linejoin="bevel"/>
<path d="M29.9653 20.0305V24.9592L34.0033 23.4103V18.4816L29.9653 20.0305Z" fill="#FFD242" stroke="#CCCCCC" stroke-width="0.212801" stroke-linejoin="bevel"/>
<path d="M25.9862 18.5042L29.9653 20.0305V24.9592L25.9862 23.4329V18.5042Z" fill="#EFEEEA" stroke="#CCCCCC" stroke-width="0.212801" stroke-linejoin="bevel"/>
<path d="M30.0243 11.9777L34.0034 13.504V18.4327L30.0243 16.9064V11.9777Z" fill="#E9E9FF" stroke="#CCCCCC" stroke-width="0.212801" stroke-linejoin="bevel"/>
<path d="M25.9862 13.5266V18.4553L30.0242 16.9064V11.9777L25.9862 13.5266Z" fill="#353564" stroke="#CCCCCC" stroke-width="0.212801" stroke-linejoin="bevel"/>
<path d="M25.9862 18.455L29.9653 19.9809L34.0034 18.4324L30.0242 16.9064L25.9862 18.455Z" fill="#AFAFDE" stroke="#CCCCCC" stroke-width="0.212801" stroke-linejoin="bevel"/>
<path d="M25.9862 13.5262L29.9653 15.0522L34.0034 13.5037L30.0242 11.9777L25.9862 13.5262Z" fill="#F7F7F4" stroke="#CCCCCC" stroke-width="0.212801" stroke-linejoin="bevel"/>
<path d="M29.9653 15.0528V19.9816L34.0033 18.4327V13.5039L29.9653 15.0528Z" fill="#3775A9" stroke="#CCCCCC" stroke-width="0.212801" stroke-linejoin="bevel"/>
<path d="M25.9862 13.5266L29.9653 15.0529V19.9816L25.9862 18.4553V13.5266Z" fill="#EFEEEA" stroke="#CCCCCC" stroke-width="0.212801" stroke-linejoin="bevel"/>
<path d="M30.0243 7L34.0034 8.52632V13.4551L30.0243 11.9288V7Z" fill="#E9E9FF" stroke="#CCCCCC" stroke-width="0.212801" stroke-linejoin="bevel"/>
<path d="M25.9862 8.54891V13.4777L30.0242 11.9288V7L25.9862 8.54891Z" fill="#353564" stroke="#CCCCCC" stroke-width="0.212801" stroke-linejoin="bevel"/>
<path d="M25.9862 13.4773L29.9653 15.0033L34.0034 13.4547L30.0242 11.9287L25.9862 13.4773Z" fill="#AFAFDE" stroke="#CCCCCC" stroke-width="0.212801" stroke-linejoin="bevel"/>
<path d="M25.9862 8.54858L29.9653 10.0746L34.0034 8.52599L30.0242 7L25.9862 8.54858Z" fill="#2F6491" stroke="#CCCCCC" stroke-width="0.212801" stroke-linejoin="bevel"/>
<path d="M29.9653 10.0752V15.004L34.0033 13.4551V8.52631L29.9653 10.0752Z" fill="#3775A9" stroke="#CCCCCC" stroke-width="0.212801" stroke-linejoin="bevel"/>
<path d="M25.9862 8.54889L29.9653 10.0752V15.004L25.9862 13.4776V8.54889Z" fill="#EFEEEA" stroke="#CCCCCC" stroke-width="0.212801" stroke-linejoin="bevel"/>
<path d="M26.0277 18.4868L30.0069 20.0131V24.9419L26.0277 23.4156V18.4868Z" fill="#E9E9FF" stroke="#CCCCCC" stroke-width="0.212801" stroke-linejoin="bevel"/>
<path d="M21.9897 20.0357V24.9645L26.0278 23.4156V18.4868L21.9897 20.0357Z" fill="#353564" stroke="#CCCCCC" stroke-width="0.212801" stroke-linejoin="bevel"/>
<path d="M21.9897 24.9641L25.9689 26.4901L30.0069 24.9415L26.0278 23.4155L21.9897 24.9641Z" fill="#AFAFDE" stroke="#CCCCCC" stroke-width="0.212801" stroke-linejoin="bevel"/>
<path d="M21.9897 20.0354L25.9689 21.5614L30.0069 20.0128L26.0278 18.4868L21.9897 20.0354Z" fill="#F7F7F4" stroke="#CCCCCC" stroke-width="0.212801" stroke-linejoin="bevel"/>
<path d="M25.9688 21.562V26.4908L30.0069 24.9419V20.0131L25.9688 21.562Z" fill="#FFD242" stroke="#CCCCCC" stroke-width="0.212801" stroke-linejoin="bevel"/>
<path d="M21.9897 20.0357L25.9689 21.562V26.4908L21.9897 24.9645V20.0357Z" fill="#EFEEEA" stroke="#CCCCCC" stroke-width="0.212801" stroke-linejoin="bevel"/>
<path d="M26.0277 13.5092L30.0069 15.0355V19.9643L26.0277 18.438V13.5092Z" fill="#E9E9FF" stroke="#CCCCCC" stroke-width="0.212801" stroke-linejoin="bevel"/>
<path d="M21.9897 15.0581V19.9869L26.0278 18.438V13.5092L21.9897 15.0581Z" fill="#353564" stroke="#CCCCCC" stroke-width="0.212801" stroke-linejoin="bevel"/>
<path d="M21.9897 19.9865L25.9689 21.5125L30.0069 19.9639L26.0278 18.4379L21.9897 19.9865Z" fill="#AFAFDE" stroke="#CCCCCC" stroke-width="0.212801" stroke-linejoin="bevel"/>
<path d="M21.9897 15.0578L25.9689 16.5838L30.0069 15.0352L26.0278 13.5092L21.9897 15.0578Z" fill="#F7F7F4" stroke="#CCCCCC" stroke-width="0.212801" stroke-linejoin="bevel"/>
<path d="M25.9688 16.5844V21.5132L30.0069 19.9643V15.0355L25.9688 16.5844Z" fill="#3775A9" stroke="#CCCCCC" stroke-width="0.212801" stroke-linejoin="bevel"/>
<path d="M21.9897 15.0581L25.9689 16.5844V21.5132L21.9897 19.9869V15.0581Z" fill="#EFEEEA" stroke="#CCCCCC" stroke-width="0.212801" stroke-linejoin="bevel"/>
<path d="M22.0311 20.0184L26.0103 21.5448V26.4735L22.0311 24.9472V20.0184Z" fill="#E9E9FF" stroke="#CCCCCC" stroke-width="0.212801" stroke-linejoin="bevel"/>
<path d="M17.9931 21.5673V26.4961L22.0311 24.9472V20.0184L17.9931 21.5673Z" fill="#353564" stroke="#CCCCCC" stroke-width="0.212801" stroke-linejoin="bevel"/>
<path d="M17.9931 26.4957L21.9722 28.0217L26.0103 26.4731L22.0311 24.9471L17.9931 26.4957Z" fill="#AFAFDE" stroke="#CCCCCC" stroke-width="0.212801" stroke-linejoin="bevel"/>
<path d="M17.9931 21.567L21.9722 23.093L26.0103 21.5444L22.0311 20.0184L17.9931 21.567Z" fill="#F7F7F4" stroke="#CCCCCC" stroke-width="0.212801" stroke-linejoin="bevel"/>
<path d="M21.9723 23.0936V28.0223L26.0104 26.4734V21.5447L21.9723 23.0936Z" fill="#3775A9" stroke="#CCCCCC" stroke-width="0.212801" stroke-linejoin="bevel"/>
<path d="M17.9931 21.5673L21.9722 23.0936V28.0224L17.9931 26.4961V21.5673Z" fill="#2F6491" stroke="#CCCCCC" stroke-width="0.212801" stroke-linejoin="bevel"/>
<path d="M22.0311 15.0408L26.0103 16.5671V21.4958L22.0311 19.9695V15.0408Z" fill="#E9E9FF" stroke="#CCCCCC" stroke-width="0.212801" stroke-linejoin="bevel"/>
<path d="M17.9931 16.5897V21.5184L22.0311 19.9695V15.0408L17.9931 16.5897Z" fill="#353564" stroke="#CCCCCC" stroke-width="0.212801" stroke-linejoin="bevel"/>
<path d="M17.9931 21.5181L21.9722 23.0441L26.0103 21.4955L22.0311 19.9695L17.9931 21.5181Z" fill="#AFAFDE" stroke="#CCCCCC" stroke-width="0.212801" stroke-linejoin="bevel"/>
<path d="M17.9931 16.5893L21.9722 18.1153L26.0103 16.5668L22.0311 15.0408L17.9931 16.5893Z" fill="#2F6491" stroke="#CCCCCC" stroke-width="0.212801" stroke-linejoin="bevel"/>
<path d="M21.9723 18.116V23.0448L26.0104 21.4959V16.5671L21.9723 18.116Z" fill="#3775A9" stroke="#CCCCCC" stroke-width="0.212801" stroke-linejoin="bevel"/>
<path d="M17.9931 16.5897L21.9722 18.116V23.0448L17.9931 21.5185V16.5897Z" fill="#2F6491" stroke="#CCCCCC" stroke-width="0.212801" stroke-linejoin="bevel"/>
<path d="M26.0277 8.53156L30.0069 10.0579V14.9866L26.0277 13.4603V8.53156Z" fill="#E9E9FF" stroke="#CCCCCC" stroke-width="0.212801" stroke-linejoin="bevel"/>
<path d="M21.9897 10.0805V15.0092L26.0278 13.4603V8.53156L21.9897 10.0805Z" fill="#353564" stroke="#CCCCCC" stroke-width="0.212801" stroke-linejoin="bevel"/>
<path d="M21.9897 15.0089L25.9689 16.5349L30.0069 14.9863L26.0278 13.4603L21.9897 15.0089Z" fill="#AFAFDE" stroke="#CCCCCC" stroke-width="0.212801" stroke-linejoin="bevel"/>
<path d="M21.9897 10.0801L25.9689 11.6061L30.0069 10.0575L26.0278 8.53156L21.9897 10.0801Z" fill="#2F6491" stroke="#CCCCCC" stroke-width="0.212801" stroke-linejoin="bevel"/>
<path d="M25.9688 11.6068V16.5356L30.0069 14.9867V10.0579L25.9688 11.6068Z" fill="#3775A9" stroke="#CCCCCC" stroke-width="0.212801" stroke-linejoin="bevel"/>
<path d="M21.9897 10.0805L25.9689 11.6068V16.5356L21.9897 15.0093V10.0805Z" fill="#2F6491" stroke="#CCCCCC" stroke-width="0.212801" stroke-linejoin="bevel"/>
<path d="M27.4762 14.3567C27.9045 14.1924 28.2517 13.6699 28.2517 13.1897C28.2517 12.7094 27.9045 12.4533 27.4762 12.6176C27.0479 12.7819 26.7007 13.3043 26.7007 13.7846C26.7007 14.2648 27.0479 14.521 27.4762 14.3567Z" fill="white"/>
</g>
<g filter="url(#filter1_d_48_2)">
<path d="M47.5547 17.9999H46.2734L49.1523 9.99994H50.5469L53.4258 17.9999H52.1445L49.8828 11.4531H49.8203L47.5547 17.9999ZM47.7695 14.8671H51.9258V15.8827H47.7695V14.8671ZM58.8682 11.9999L56.6924 17.9999H55.4424L53.2627 11.9999H54.5166L56.0361 16.6171H56.0986L57.6143 11.9999H58.8682ZM61.54 18.1327C61.1598 18.1327 60.8161 18.0624 60.5088 17.9218C60.2015 17.7786 59.958 17.5716 59.7783 17.3007C59.6012 17.0299 59.5127 16.6979 59.5127 16.3046C59.5127 15.9661 59.5778 15.6874 59.708 15.4687C59.8382 15.2499 60.014 15.0768 60.2353 14.9492C60.4567 14.8216 60.7041 14.7252 60.9775 14.6601C61.251 14.595 61.5296 14.5455 61.8135 14.5117C62.1728 14.47 62.4645 14.4361 62.6885 14.4101C62.9124 14.3814 63.0752 14.3359 63.1768 14.2734C63.2783 14.2109 63.3291 14.1093 63.3291 13.9687V13.9413C63.3291 13.6002 63.2327 13.3359 63.04 13.1484C62.8499 12.9609 62.5661 12.8671 62.1885 12.8671C61.7952 12.8671 61.4853 12.9544 61.2588 13.1288C61.0348 13.3007 60.8799 13.4921 60.7939 13.7031L59.6963 13.4531C59.8265 13.0885 60.0166 12.7942 60.2666 12.5702C60.5192 12.3437 60.8096 12.1796 61.1377 12.0781C61.4658 11.9739 61.8109 11.9218 62.1728 11.9218C62.4124 11.9218 62.6663 11.9505 62.9346 12.0078C63.2054 12.0624 63.458 12.164 63.6924 12.3124C63.9294 12.4609 64.1234 12.6731 64.2744 12.9492C64.4255 13.2226 64.501 13.5781 64.501 14.0156V17.9999H63.3603V17.1796H63.3135C63.238 17.3307 63.1247 17.4791 62.9736 17.6249C62.8226 17.7708 62.6286 17.8919 62.3916 17.9882C62.1546 18.0846 61.8708 18.1327 61.54 18.1327ZM61.7939 17.1952C62.1169 17.1952 62.3929 17.1314 62.6221 17.0038C62.8538 16.8762 63.0296 16.7096 63.1494 16.5038C63.2718 16.2955 63.333 16.0729 63.333 15.8359V15.0624C63.2913 15.1041 63.2106 15.1432 63.0908 15.1796C62.9736 15.2135 62.8395 15.2434 62.6885 15.2695C62.5374 15.2929 62.3903 15.315 62.2471 15.3359C62.1038 15.3541 61.984 15.3697 61.8877 15.3827C61.6611 15.4114 61.4541 15.4596 61.2666 15.5273C61.0817 15.595 60.9333 15.6926 60.8213 15.8202C60.7119 15.9452 60.6572 16.1119 60.6572 16.3202C60.6572 16.6093 60.764 16.8281 60.9775 16.9765C61.1911 17.1223 61.4632 17.1952 61.7939 17.1952ZM66.0566 17.9999V11.9999H67.2246V17.9999H66.0566ZM66.6465 11.0742C66.4434 11.0742 66.2689 11.0064 66.123 10.871C65.9798 10.733 65.9082 10.5689 65.9082 10.3788C65.9082 10.1861 65.9798 10.0221 66.123 9.88666C66.2689 9.74864 66.4434 9.67963 66.6465 9.67963C66.8496 9.67963 67.0228 9.74864 67.166 9.88666C67.3118 10.0221 67.3848 10.1861 67.3848 10.3788C67.3848 10.5689 67.3118 10.733 67.166 10.871C67.0228 11.0064 66.8496 11.0742 66.6465 11.0742ZM69.9639 9.99994V17.9999H68.7959V9.99994H69.9639ZM73.2812 18.1327C72.901 18.1327 72.5573 18.0624 72.25 17.9218C71.9427 17.7786 71.6992 17.5716 71.5195 17.3007C71.3424 17.0299 71.2539 16.6979 71.2539 16.3046C71.2539 15.9661 71.319 15.6874 71.4492 15.4687C71.5794 15.2499 71.7552 15.0768 71.9766 14.9492C72.1979 14.8216 72.4453 14.7252 72.7187 14.6601C72.9922 14.595 73.2708 14.5455 73.5547 14.5117C73.9141 14.47 74.2057 14.4361 74.4297 14.4101C74.6536 14.3814 74.8164 14.3359 74.918 14.2734C75.0195 14.2109 75.0703 14.1093 75.0703 13.9687V13.9413C75.0703 13.6002 74.9739 13.3359 74.7812 13.1484C74.5911 12.9609 74.3073 12.8671 73.9297 12.8671C73.5365 12.8671 73.2266 12.9544 73 13.1288C72.776 13.3007 72.6211 13.4921 72.5351 13.7031L71.4375 13.4531C71.5677 13.0885 71.7578 12.7942 72.0078 12.5702C72.2604 12.3437 72.5508 12.1796 72.8789 12.0781C73.207 11.9739 73.5521 11.9218 73.9141 11.9218C74.1536 11.9218 74.4075 11.9505 74.6758 12.0078C74.9466 12.0624 75.1992 12.164 75.4336 12.3124C75.6706 12.4609 75.8646 12.6731 76.0156 12.9492C76.1667 13.2226 76.2422 13.5781 76.2422 14.0156V17.9999H75.1016V17.1796H75.0547C74.9792 17.3307 74.8659 17.4791 74.7148 17.6249C74.5638 17.7708 74.3698 17.8919 74.1328 17.9882C73.8958 18.0846 73.612 18.1327 73.2812 18.1327ZM73.5351 17.1952C73.8581 17.1952 74.1341 17.1314 74.3633 17.0038C74.595 16.8762 74.7708 16.7096 74.8906 16.5038C75.013 16.2955 75.0742 16.0729 75.0742 15.8359V15.0624C75.0325 15.1041 74.9518 15.1432 74.832 15.1796C74.7148 15.2135 74.5807 15.2434 74.4297 15.2695C74.2786 15.2929 74.1315 15.315 73.9883 15.3359C73.845 15.3541 73.7253 15.3697 73.6289 15.3827C73.4023 15.4114 73.1953 15.4596 73.0078 15.5273C72.8229 15.595 72.6745 15.6926 72.5625 15.8202C72.4531 15.9452 72.3984 16.1119 72.3984 16.3202C72.3984 16.6093 72.5052 16.8281 72.7187 16.9765C72.9323 17.1223 73.2044 17.1952 73.5351 17.1952ZM77.8916 17.9999V9.99994H79.0596V12.9726H79.1299C79.1976 12.8476 79.2952 12.7031 79.4228 12.539C79.5504 12.3749 79.7275 12.2317 79.9541 12.1093C80.1807 11.9843 80.4801 11.9218 80.8525 11.9218C81.3369 11.9218 81.7692 12.0442 82.1494 12.289C82.5296 12.5338 82.8278 12.8867 83.0439 13.3476C83.2627 13.8085 83.3721 14.3632 83.3721 15.0117C83.3721 15.6601 83.264 16.2161 83.0478 16.6796C82.8317 17.1406 82.5348 17.496 82.1572 17.746C81.7796 17.9934 81.3486 18.1171 80.8642 18.1171C80.4997 18.1171 80.2015 18.0559 79.9697 17.9335C79.7405 17.8111 79.5609 17.6679 79.4307 17.5038C79.3004 17.3398 79.2002 17.1939 79.1299 17.0663H79.0322V17.9999H77.8916ZM79.0361 14.9999C79.0361 15.4218 79.0973 15.7916 79.2197 16.1093C79.3421 16.427 79.5192 16.6757 79.751 16.8554C79.9827 17.0325 80.2666 17.121 80.6025 17.121C80.9515 17.121 81.2432 17.0286 81.4775 16.8437C81.7119 16.6562 81.889 16.4023 82.0088 16.082C82.1312 15.7617 82.1924 15.401 82.1924 14.9999C82.1924 14.6041 82.1325 14.2486 82.0127 13.9335C81.8955 13.6184 81.7184 13.3697 81.4814 13.1874C81.2471 13.0051 80.9541 12.914 80.6025 12.914C80.264 12.914 79.9775 13.0012 79.7432 13.1757C79.5114 13.3502 79.3356 13.5937 79.2158 13.9062C79.096 14.2187 79.0361 14.5833 79.0361 14.9999ZM85.8516 9.99994V17.9999H84.6836V9.99994H85.8516ZM90.0088 18.121C89.4176 18.121 88.9085 17.9947 88.4814 17.7421C88.057 17.4869 87.7288 17.1288 87.4971 16.6679C87.2679 16.2044 87.1533 15.6614 87.1533 15.039C87.1533 14.4244 87.2679 13.8827 87.4971 13.414C87.7288 12.9452 88.0517 12.5794 88.4658 12.3163C88.8825 12.0533 89.3695 11.9218 89.9267 11.9218C90.2653 11.9218 90.5934 11.9778 90.9111 12.0898C91.2288 12.2018 91.514 12.3775 91.7666 12.6171C92.0192 12.8567 92.2184 13.1679 92.3642 13.5507C92.5101 13.9309 92.583 14.3932 92.583 14.9374V15.3515H87.8135V14.4765H91.4385C91.4385 14.1692 91.376 13.8971 91.251 13.6601C91.126 13.4205 90.9502 13.2317 90.7236 13.0937C90.4997 12.9557 90.2366 12.8867 89.9346 12.8867C89.6064 12.8867 89.32 12.9674 89.0752 13.1288C88.833 13.2877 88.6455 13.496 88.5127 13.7538C88.3825 14.0091 88.3174 14.2864 88.3174 14.5859V15.2695C88.3174 15.6705 88.3877 16.0117 88.5283 16.2929C88.6715 16.5742 88.8708 16.789 89.126 16.9374C89.3812 17.0833 89.6793 17.1562 90.0205 17.1562C90.2418 17.1562 90.4437 17.1249 90.626 17.0624C90.8083 16.9973 90.9658 16.901 91.0986 16.7734C91.2314 16.6458 91.333 16.4882 91.4033 16.3007L92.5088 16.4999C92.4202 16.8255 92.2614 17.1106 92.0322 17.3554C91.8057 17.5976 91.5205 17.7864 91.1767 17.9218C90.8356 18.0546 90.4463 18.121 90.0088 18.121ZM99.3174 18.121C98.7549 18.121 98.264 17.9921 97.8447 17.7343C97.4254 17.4765 97.0999 17.1158 96.8681 16.6523C96.6364 16.1887 96.5205 15.6471 96.5205 15.0273C96.5205 14.4049 96.6364 13.8606 96.8681 13.3945C97.0999 12.9283 97.4254 12.5663 97.8447 12.3085C98.264 12.0507 98.7549 11.9218 99.3174 11.9218C99.8799 11.9218 100.371 12.0507 100.79 12.3085C101.209 12.5663 101.535 12.9283 101.767 13.3945C101.998 13.8606 102.114 14.4049 102.114 15.0273C102.114 15.6471 101.998 16.1887 101.767 16.6523C101.535 17.1158 101.209 17.4765 100.79 17.7343C100.371 17.9921 99.8799 18.121 99.3174 18.121ZM99.3213 17.1406C99.6859 17.1406 99.9879 17.0442 100.228 16.8515C100.467 16.6588 100.644 16.4023 100.759 16.082C100.876 15.7617 100.935 15.4088 100.935 15.0234C100.935 14.6406 100.876 14.289 100.759 13.9687C100.644 13.6458 100.467 13.3867 100.228 13.1913C99.9879 12.996 99.6859 12.8984 99.3213 12.8984C98.9541 12.8984 98.6494 12.996 98.4072 13.1913C98.1676 13.3867 97.9892 13.6458 97.8721 13.9687C97.7575 14.289 97.7002 14.6406 97.7002 15.0234C97.7002 15.4088 97.7575 15.7617 97.8721 16.082C97.9892 16.4023 98.1676 16.6588 98.4072 16.8515C98.6494 17.0442 98.9541 17.1406 99.3213 17.1406ZM104.586 14.4374V17.9999H103.418V11.9999H104.539V12.9765H104.613C104.751 12.6588 104.967 12.4036 105.262 12.2109C105.559 12.0182 105.932 11.9218 106.383 11.9218C106.792 11.9218 107.15 12.0078 107.457 12.1796C107.764 12.3489 108.003 12.6015 108.172 12.9374C108.341 13.2734 108.426 13.6887 108.426 14.1835V17.9999H107.258V14.3242C107.258 13.8893 107.145 13.5494 106.918 13.3046C106.691 13.0572 106.38 12.9335 105.984 12.9335C105.714 12.9335 105.473 12.9921 105.262 13.1093C105.053 13.2265 104.888 13.3984 104.766 13.6249C104.646 13.8489 104.586 14.1197 104.586 14.4374Z" fill="#E8E8E8"/>
<path d="M46.6605 30.9999V22.2727H50.2656C50.919 22.2727 51.483 22.4005 51.9574 22.6562C52.4347 22.909 52.8026 23.2627 53.0611 23.7173C53.3196 24.169 53.4489 24.6945 53.4489 25.294C53.4489 25.8962 53.3168 26.4232 53.0526 26.8749C52.7912 27.3238 52.4176 27.6718 51.9318 27.919C51.446 28.1661 50.8693 28.2897 50.2017 28.2897H47.9773V26.6278H49.8097C50.1278 26.6278 50.3935 26.5724 50.6065 26.4616C50.8224 26.3508 50.9858 26.196 51.0966 25.9971C51.2074 25.7954 51.2628 25.561 51.2628 25.294C51.2628 25.0241 51.2074 24.7911 51.0966 24.5951C50.9858 24.3962 50.8224 24.2428 50.6065 24.1349C50.3906 24.0269 50.125 23.9729 49.8097 23.9729H48.7699V30.9999H46.6605ZM55.7628 33.4545C55.5128 33.4545 55.277 33.4346 55.0554 33.3948C54.8338 33.3579 54.6435 33.3082 54.4844 33.2457L54.9446 31.7329C55.1491 31.8011 55.3338 31.8408 55.4986 31.8522C55.6662 31.8636 55.8097 31.8366 55.929 31.7712C56.0511 31.7087 56.1449 31.5965 56.2102 31.4346L56.2912 31.2386L53.9645 24.4545H56.1463L57.3523 29.1249H57.4205L58.6435 24.4545H60.8381L58.3707 31.6264C58.2514 31.9843 58.0824 32.2997 57.8636 32.5724C57.6477 32.8479 57.3679 33.0639 57.0241 33.2201C56.6832 33.3764 56.2628 33.4545 55.7628 33.4545ZM61.6371 30.9999V22.2727H65.2422C65.8956 22.2727 66.4595 22.4005 66.9339 22.6562C67.4112 22.909 67.7791 23.2627 68.0376 23.7173C68.2962 24.169 68.4254 24.6945 68.4254 25.294C68.4254 25.8962 68.2933 26.4232 68.0291 26.8749C67.7677 27.3238 67.3942 27.6718 66.9084 27.919C66.4226 28.1661 65.8459 28.2897 65.1783 28.2897H62.9538V26.6278H64.7862C65.1044 26.6278 65.37 26.5724 65.5831 26.4616C65.799 26.3508 65.9624 26.196 66.0731 25.9971C66.1839 25.7954 66.2393 25.561 66.2393 25.294C66.2393 25.0241 66.1839 24.7911 66.0731 24.5951C65.9624 24.3962 65.799 24.2428 65.5831 24.1349C65.3672 24.0269 65.1016 23.9729 64.7862 23.9729H63.7464V30.9999H61.6371ZM71.5746 22.2727V30.9999H69.4652V22.2727H71.5746Z" fill="white"/>
</g>
<rect x="0.75" y="0.749939" width="118.5" height="38.5" rx="5.25" stroke="white" stroke-opacity="0.15" stroke-width="1.5"/>
<defs>
<filter id="filter0_d_48_2" x="5.89359" y="1.99994" width="36.2128" height="36" filterUnits="userSpaceOnUse" color-interpolation-filters="sRGB">
<feFlood flood-opacity="0" result="BackgroundImageFix"/>
<feColorMatrix in="SourceAlpha" type="matrix" values="0 0 0 0 0 0 0 0 0 0 0 0 0 0 0 0 0 0 127 0" result="hardAlpha"/>
<feOffset/>
<feGaussianBlur stdDeviation="2"/>
<feComposite in2="hardAlpha" operator="out"/>
<feColorMatrix type="matrix" values="0 0 0 0 0 0 0 0 0 0 0 0 0 0 0 0 0 0 0.25 0"/>
<feBlend mode="normal" in2="BackgroundImageFix" result="effect1_dropShadow_48_2"/>
<feBlend mode="normal" in="SourceGraphic" in2="effect1_dropShadow_48_2" result="shape"/>
</filter>
<filter id="filter1_d_48_2" x="42" y="2.99994" width="72" height="34.4545" filterUnits="userSpaceOnUse" color-interpolation-filters="sRGB">
<feFlood flood-opacity="0" result="BackgroundImageFix"/>
<feColorMatrix in="SourceAlpha" type="matrix" values="0 0 0 0 0 0 0 0 0 0 0 0 0 0 0 0 0 0 127 0" result="hardAlpha"/>
<feOffset/>
<feGaussianBlur stdDeviation="2"/>
<feComposite in2="hardAlpha" operator="out"/>
<feColorMatrix type="matrix" values="0 0 0 0 0 0 0 0 0 0 0 0 0 0 0 0 0 0 0.25 0"/>
<feBlend mode="normal" in2="BackgroundImageFix" result="effect1_dropShadow_48_2"/>
<feBlend mode="normal" in="SourceGraphic" in2="effect1_dropShadow_48_2" result="shape"/>
</filter>
<linearGradient id="paint0_linear_48_2" x1="60" y1="-6.10351e-05" x2="60" y2="39.9999" gradientUnits="userSpaceOnUse">
<stop stop-color="#001F31"/>
<stop offset="1" stop-color="#00121D"/>
</linearGradient>
</defs>
</svg>
