<svg width="174" height="56" viewBox="0 0 174 56" fill="none" xmlns="http://www.w3.org/2000/svg">
<rect y="-0.000244141" width="174" height="56" rx="8" fill="url(#paint0_linear_1_17)"/>
<g filter="url(#filter0_d_1_17)">
<path d="M8.2644 30.2415C8.16306 30.2415 8.08261 30.3264 8.06951 30.4475L7.71432 33.3709L8.06951 36.244C8.08261 36.3651 8.16301 36.4494 8.2644 36.4494C8.36256 36.4494 8.44251 36.3657 8.45817 36.2451L8.87917 33.3709L8.45817 30.4469C8.443 30.3263 8.36207 30.2415 8.2644 30.2415ZM10.2619 28.6442C10.2451 28.5186 10.1621 28.4319 10.0597 28.4319C9.9568 28.4319 9.87165 28.5214 9.85756 28.6442C9.85756 28.6453 9.38012 33.3709 9.38012 33.3709L9.85756 37.993C9.87116 38.1169 9.95631 38.2064 10.0597 38.2064C10.1616 38.2064 10.2446 38.1192 10.2613 37.9941L10.8045 33.3709L10.2619 28.6442ZM17.7859 24.2842C17.59 24.2842 17.4281 24.458 17.4187 24.6787L17.0384 33.3749L17.4187 38.9948C17.4286 39.2144 17.59 39.3876 17.7859 39.3876C17.9807 39.3876 18.1422 39.2138 18.1537 38.9937V38.9954L18.5835 33.3749L18.1537 24.6787C18.1421 24.458 17.9807 24.2842 17.7859 24.2842ZM13.8917 27.3067C13.7413 27.3067 13.6185 27.4369 13.6065 27.6106L13.1782 33.3726L13.6065 38.9472C13.618 39.1198 13.7412 39.25 13.8917 39.25C14.0406 39.25 14.1633 39.1198 14.1764 38.9472L14.6632 33.3726L14.1764 27.6094C14.1633 27.4369 14.0406 27.3067 13.8917 27.3067ZM21.7433 39.387C21.9862 39.387 22.1836 39.1747 22.1936 38.903L22.5666 33.3777L22.1941 21.7999C22.1842 21.5282 21.9867 21.316 21.7438 21.316C21.4988 21.316 21.3009 21.5288 21.293 21.8005L20.9624 33.3771L21.293 38.9047C21.3009 39.1742 21.4988 39.387 21.7433 39.387ZM29.845 39.4131C30.1794 39.4131 30.4552 39.1148 30.4614 38.748L30.7216 33.3811L30.4614 20.0097C30.4556 19.6435 30.1793 19.3446 29.845 19.3446C29.5102 19.3446 29.2339 19.6429 29.2286 20.0103L28.9962 33.3766C28.9962 33.3851 29.2286 38.7514 29.2286 38.7514C29.2339 39.1147 29.5107 39.4131 29.845 39.4131ZM25.7633 39.3921C26.0543 39.3921 26.2888 39.1391 26.2967 38.8165V38.8204L26.6132 33.3788L26.2961 21.7173C26.2883 21.3947 26.0538 21.1423 25.7628 21.1423C25.4697 21.1423 25.2352 21.3948 25.229 21.7173L24.9474 33.3794L25.2295 38.8199C25.2358 39.1391 25.4703 39.3921 25.7633 39.3921ZM15.8312 39.3412C16.0041 39.3412 16.1442 39.1912 16.1572 38.9937L16.6159 33.3726L16.1572 28.0255C16.1447 27.828 16.0047 27.6791 15.8312 27.6791C15.6558 27.6791 15.5157 27.8291 15.5048 28.0278L15.101 33.3726L15.5048 38.9931C15.5163 39.1912 15.6557 39.3412 15.8312 39.3412ZM11.9679 39.0333C12.0943 39.0333 12.1967 38.9252 12.2113 38.7757L12.7263 33.3715L12.2118 27.7635C12.1966 27.6135 12.0942 27.5053 11.9679 27.5053C11.8399 27.5053 11.7375 27.614 11.7244 27.7635L11.271 33.3715L11.7244 38.7746C11.737 38.9246 11.8394 39.0333 11.9679 39.0333ZM27.7964 21.5232C27.4804 21.5232 27.227 21.7955 27.2207 22.1441L26.9638 33.38L27.2207 38.7865C27.227 39.1306 27.4798 39.4029 27.7964 39.4029C28.1119 39.4029 28.3637 39.1312 28.3709 38.7825V38.7871L28.6593 33.3806L28.3709 22.143C28.3636 21.7955 28.1118 21.5232 27.7964 21.5232ZM19.7573 39.3984C19.9756 39.3984 20.1558 39.2053 20.1663 38.9591L20.5675 33.3765L20.1663 22.6914C20.1553 22.4446 19.9756 22.2522 19.7573 22.2522C19.5369 22.2522 19.3572 22.4452 19.3477 22.6914L18.9926 33.3765L19.3483 38.9614C19.3571 39.2053 19.5368 39.3984 19.7573 39.3984ZM24.237 38.8714V38.8685L24.5817 33.3783L24.237 21.4106C24.2286 21.1134 24.0124 20.8802 23.7454 20.8802C23.4769 20.8802 23.2607 21.1128 23.2534 21.4106L22.9473 33.3777L23.2539 38.8708C23.2612 39.1651 23.4775 39.3977 23.7455 39.3977C24.0129 39.3977 24.2281 39.1651 24.2371 38.8691V38.8714H24.237ZM50.312 26.4797C49.4934 26.4797 48.7125 26.6592 48.0011 26.9823C47.5257 21.1479 43.0105 16.5712 37.5028 16.5712C36.1551 16.5712 34.8413 16.8587 33.6812 17.3449C33.2304 17.5339 33.1103 17.7286 33.1061 18.1062V38.6523C33.1108 39.0485 33.3944 39.3785 33.7512 39.4176C33.7664 39.4193 50.2049 39.4283 50.3115 39.4283C53.6107 39.4283 56.2857 36.5297 56.2857 32.9543C56.2857 29.3788 53.6112 26.4797 50.312 26.4797ZM31.8848 18.0881C31.526 18.0881 31.2314 18.4073 31.2261 18.7995L30.9566 33.3828L31.2267 38.6755C31.2314 39.0622 31.526 39.3808 31.8848 39.3808C32.2426 39.3808 32.5372 39.0622 32.5424 38.6699V38.6761L32.8355 33.3828L32.5424 18.7984C32.5372 18.4073 32.2426 18.0881 31.8848 18.0881Z" fill="url(#paint1_linear_1_17)"/>
</g>
<g filter="url(#filter1_d_1_17)">
<path d="M62.2613 24.4998H60.3977L64.5852 12.8634H66.6136L70.8011 24.4998H68.9375L65.6477 14.977H65.5568L62.2613 24.4998ZM62.5738 19.9429H68.6193V21.4202H62.5738V19.9429ZM78.7173 15.7725L75.5525 24.4998H73.7343L70.5639 15.7725H72.3878L74.598 22.4884H74.6889L76.8934 15.7725H78.7173ZM82.6037 24.6929C82.0506 24.6929 81.5506 24.5907 81.1037 24.3861C80.6567 24.1778 80.3025 23.8766 80.0412 23.4827C79.7836 23.0888 79.6548 22.6058 79.6548 22.0338C79.6548 21.5414 79.7495 21.1361 79.9389 20.8179C80.1283 20.4998 80.384 20.2479 80.7059 20.0623C81.0279 19.8766 81.3877 19.7365 81.7855 19.6418C82.1832 19.5471 82.5885 19.4751 83.0014 19.4259C83.5241 19.3653 83.9484 19.316 84.2741 19.2782C84.5999 19.2365 84.8366 19.1702 84.9843 19.0793C85.1321 18.9884 85.2059 18.8407 85.2059 18.6361V18.5963C85.2059 18.1001 85.0658 17.7157 84.7855 17.4429C84.509 17.1702 84.0961 17.0338 83.5468 17.0338C82.9749 17.0338 82.5241 17.1607 82.1946 17.4145C81.8688 17.6645 81.6434 17.9429 81.5184 18.2498L79.9218 17.8861C80.1112 17.3558 80.3877 16.9278 80.7514 16.602C81.1188 16.2725 81.5412 16.0338 82.0184 15.8861C82.4957 15.7346 82.9976 15.6588 83.5241 15.6588C83.8726 15.6588 84.2419 15.7005 84.6321 15.7838C85.026 15.8634 85.3934 16.0111 85.7343 16.227C86.079 16.4429 86.3612 16.7516 86.5809 17.1532C86.8006 17.5509 86.9105 18.0679 86.9105 18.7043V24.4998H85.2514V23.3066H85.1832C85.0734 23.5263 84.9086 23.7422 84.6889 23.9543C84.4692 24.1664 84.187 24.3426 83.8423 24.4827C83.4976 24.6229 83.0847 24.6929 82.6037 24.6929ZM82.973 23.3293C83.4427 23.3293 83.8442 23.2365 84.1775 23.0509C84.5146 22.8653 84.7703 22.6229 84.9446 22.3236C85.1226 22.0206 85.2116 21.6967 85.2116 21.352V20.227C85.151 20.2876 85.0336 20.3444 84.8593 20.3975C84.6889 20.4467 84.4938 20.4903 84.2741 20.5282C84.0544 20.5623 83.8404 20.5944 83.6321 20.6248C83.4237 20.6513 83.2495 20.674 83.1093 20.6929C82.7798 20.7346 82.4787 20.8047 82.2059 20.9032C81.937 21.0016 81.7211 21.1437 81.5582 21.3293C81.3991 21.5111 81.3196 21.7535 81.3196 22.0566C81.3196 22.477 81.4749 22.7952 81.7855 23.0111C82.0961 23.2232 82.4919 23.3293 82.973 23.3293ZM89.1733 24.4998V15.7725H90.8721V24.4998H89.1733ZM90.0312 14.4259C89.7358 14.4259 89.482 14.3274 89.2698 14.1304C89.0615 13.9297 88.9573 13.691 88.9573 13.4145C88.9573 13.1342 89.0615 12.8956 89.2698 12.6986C89.482 12.4979 89.7358 12.3975 90.0312 12.3975C90.3267 12.3975 90.5786 12.4979 90.7869 12.6986C90.999 12.8956 91.1051 13.1342 91.1051 13.4145C91.1051 13.691 90.999 13.9297 90.7869 14.1304C90.5786 14.3274 90.3267 14.4259 90.0312 14.4259ZM94.8565 12.8634V24.4998H93.1576V12.8634H94.8565ZM99.6818 24.6929C99.1287 24.6929 98.6287 24.5907 98.1818 24.3861C97.7348 24.1778 97.3806 23.8766 97.1193 23.4827C96.8617 23.0888 96.7329 22.6058 96.7329 22.0338C96.7329 21.5414 96.8276 21.1361 97.017 20.8179C97.2064 20.4998 97.4621 20.2479 97.784 20.0623C98.106 19.8766 98.4659 19.7365 98.8636 19.6418C99.2613 19.5471 99.6666 19.4751 100.08 19.4259C100.602 19.3653 101.026 19.316 101.352 19.2782C101.678 19.2365 101.915 19.1702 102.062 19.0793C102.21 18.9884 102.284 18.8407 102.284 18.6361V18.5963C102.284 18.1001 102.144 17.7157 101.864 17.4429C101.587 17.1702 101.174 17.0338 100.625 17.0338C100.053 17.0338 99.6022 17.1607 99.2727 17.4145C98.9469 17.6645 98.7215 17.9429 98.5965 18.2498L97 17.8861C97.1894 17.3558 97.4659 16.9278 97.8295 16.602C98.1969 16.2725 98.6193 16.0338 99.0965 15.8861C99.5738 15.7346 100.076 15.6588 100.602 15.6588C100.951 15.6588 101.32 15.7005 101.71 15.7838C102.104 15.8634 102.472 16.0111 102.812 16.227C103.157 16.4429 103.439 16.7516 103.659 17.1532C103.879 17.5509 103.989 18.0679 103.989 18.7043V24.4998H102.33V23.3066H102.261C102.151 23.5263 101.987 23.7422 101.767 23.9543C101.547 24.1664 101.265 24.3426 100.92 24.4827C100.576 24.6229 100.163 24.6929 99.6818 24.6929ZM100.051 23.3293C100.521 23.3293 100.922 23.2365 101.256 23.0509C101.593 22.8653 101.848 22.6229 102.023 22.3236C102.201 22.0206 102.29 21.6967 102.29 21.352V20.227C102.229 20.2876 102.112 20.3444 101.937 20.3975C101.767 20.4467 101.572 20.4903 101.352 20.5282C101.133 20.5623 100.919 20.5944 100.71 20.6248C100.502 20.6513 100.328 20.674 100.187 20.6929C99.8579 20.7346 99.5568 20.8047 99.284 20.9032C99.0151 21.0016 98.7992 21.1437 98.6363 21.3293C98.4772 21.5111 98.3977 21.7535 98.3977 22.0566C98.3977 22.477 98.553 22.7952 98.8636 23.0111C99.1742 23.2232 99.57 23.3293 100.051 23.3293ZM106.388 24.4998V12.8634H108.087V17.1873H108.189C108.287 17.0054 108.429 16.7952 108.615 16.5566C108.801 16.3179 109.058 16.1096 109.388 15.9316C109.717 15.7498 110.153 15.6588 110.695 15.6588C111.399 15.6588 112.028 15.8369 112.581 16.1929C113.134 16.549 113.568 17.0623 113.882 17.7327C114.2 18.4032 114.359 19.21 114.359 20.1532C114.359 21.0963 114.202 21.9051 113.888 22.5793C113.573 23.2498 113.142 23.7668 112.592 24.1304C112.043 24.4903 111.416 24.6702 110.712 24.6702C110.181 24.6702 109.748 24.5812 109.41 24.4032C109.077 24.2251 108.816 24.0168 108.626 23.7782C108.437 23.5395 108.291 23.3274 108.189 23.1418H108.047V24.4998H106.388ZM108.053 20.1361C108.053 20.7498 108.142 21.2876 108.32 21.7498C108.498 22.2119 108.755 22.5736 109.092 22.835C109.429 23.0926 109.842 23.2213 110.331 23.2213C110.838 23.2213 111.263 23.0869 111.604 22.8179C111.945 22.5452 112.202 22.1759 112.376 21.71C112.554 21.2441 112.643 20.7194 112.643 20.1361C112.643 19.5604 112.556 19.0433 112.382 18.585C112.212 18.1266 111.954 17.7649 111.609 17.4998C111.268 17.2346 110.842 17.102 110.331 17.102C109.838 17.102 109.422 17.2289 109.081 17.4827C108.744 17.7365 108.488 18.0907 108.314 18.5452C108.14 18.9998 108.053 19.5301 108.053 20.1361ZM117.966 12.8634V24.4998H116.267V12.8634H117.966ZM124.013 24.6759C123.153 24.6759 122.412 24.4922 121.791 24.1248C121.174 23.7535 120.696 23.2327 120.359 22.5623C120.026 21.888 119.859 21.0982 119.859 20.1929C119.859 19.299 120.026 18.5111 120.359 17.8293C120.696 17.1475 121.166 16.6153 121.768 16.2327C122.374 15.8501 123.083 15.6588 123.893 15.6588C124.386 15.6588 124.863 15.7403 125.325 15.9032C125.787 16.066 126.202 16.3217 126.57 16.6702C126.937 17.0187 127.227 17.4713 127.439 18.0282C127.651 18.5812 127.757 19.2535 127.757 20.0452V20.6475H120.82V19.3748H126.092C126.092 18.9278 126.001 18.532 125.82 18.1873C125.638 17.8388 125.382 17.5641 125.053 17.3634C124.727 17.1626 124.344 17.0623 123.905 17.0623C123.428 17.0623 123.011 17.1797 122.655 17.4145C122.303 17.6456 122.03 17.9486 121.837 18.3236C121.647 18.6948 121.553 19.0982 121.553 19.5338V20.5282C121.553 21.1115 121.655 21.6077 121.859 22.0168C122.068 22.4259 122.357 22.7384 122.729 22.9543C123.1 23.1664 123.534 23.2725 124.03 23.2725C124.352 23.2725 124.645 23.227 124.91 23.1361C125.176 23.0414 125.405 22.9013 125.598 22.7157C125.791 22.5301 125.939 22.3009 126.041 22.0282L127.649 22.3179C127.52 22.7914 127.289 23.2062 126.956 23.5623C126.626 23.9145 126.212 24.1891 125.712 24.3861C125.215 24.5793 124.649 24.6759 124.013 24.6759ZM137.553 24.6759C136.734 24.6759 136.02 24.4884 135.41 24.1134C134.801 23.7384 134.327 23.2138 133.99 22.5395C133.653 21.8653 133.484 21.0774 133.484 20.1759C133.484 19.2706 133.653 18.4789 133.99 17.8009C134.327 17.1229 134.801 16.5963 135.41 16.2213C136.02 15.8463 136.734 15.6588 137.553 15.6588C138.371 15.6588 139.085 15.8463 139.695 16.2213C140.304 16.5963 140.778 17.1229 141.115 17.8009C141.452 18.4789 141.621 19.2706 141.621 20.1759C141.621 21.0774 141.452 21.8653 141.115 22.5395C140.778 23.2138 140.304 23.7384 139.695 24.1134C139.085 24.4884 138.371 24.6759 137.553 24.6759ZM137.558 23.2498C138.088 23.2498 138.528 23.1096 138.876 22.8293C139.225 22.549 139.482 22.1759 139.649 21.71C139.82 21.2441 139.905 20.7308 139.905 20.1702C139.905 19.6134 139.82 19.102 139.649 18.6361C139.482 18.1664 139.225 17.7895 138.876 17.5054C138.528 17.2213 138.088 17.0793 137.558 17.0793C137.024 17.0793 136.581 17.2213 136.229 17.5054C135.88 17.7895 135.621 18.1664 135.45 18.6361C135.284 19.102 135.2 19.6134 135.2 20.1702C135.2 20.7308 135.284 21.2441 135.45 21.71C135.621 22.1759 135.88 22.549 136.229 22.8293C136.581 23.1096 137.024 23.2498 137.558 23.2498ZM145.216 19.3179V24.4998H143.517V15.7725H145.148V17.1929H145.256C145.456 16.7308 145.771 16.3596 146.199 16.0793C146.631 15.799 147.174 15.6588 147.829 15.6588C148.424 15.6588 148.945 15.7838 149.392 16.0338C149.839 16.2801 150.186 16.6475 150.432 17.1361C150.678 17.6248 150.801 18.2289 150.801 18.9486V24.4998H149.102V19.1532C149.102 18.5206 148.937 18.0263 148.608 17.6702C148.278 17.3104 147.826 17.1304 147.25 17.1304C146.856 17.1304 146.506 17.2157 146.199 17.3861C145.896 17.5566 145.655 17.8066 145.477 18.1361C145.303 18.4619 145.216 18.8558 145.216 19.3179Z" fill="#E8E8E8"/>
<path d="M67.6186 34.8428C67.5783 34.4001 67.3992 34.056 67.0813 33.8105C66.7674 33.561 66.3186 33.4362 65.7351 33.4362C65.3487 33.4362 65.0267 33.4865 64.7691 33.5871C64.5116 33.6877 64.3184 33.8266 64.1896 34.0037C64.0608 34.1767 63.9944 34.3759 63.9904 34.6013C63.9823 34.7864 64.0186 34.9494 64.099 35.0903C64.1836 35.2312 64.3043 35.3559 64.4613 35.4646C64.6222 35.5692 64.8154 35.6618 65.0408 35.7423C65.2662 35.8228 65.5197 35.8932 65.8015 35.9536L66.864 36.1951C67.4757 36.3279 68.015 36.505 68.4819 36.7263C68.9527 36.9477 69.3471 37.2113 69.6651 37.5172C69.9871 37.823 70.2306 38.1752 70.3956 38.5736C70.5606 38.9721 70.6451 39.4188 70.6491 39.9138C70.6451 40.6946 70.4479 41.3647 70.0575 41.9241C69.6671 42.4835 69.1057 42.9122 68.3732 43.21C67.6447 43.5078 66.7654 43.6567 65.7351 43.6567C64.7007 43.6567 63.7992 43.5018 63.0305 43.1919C62.2618 42.882 61.6641 42.4111 61.2375 41.7792C60.8109 41.1474 60.5916 40.3485 60.5795 39.3826H63.441C63.4652 39.781 63.5718 40.113 63.761 40.3787C63.9501 40.6443 64.2097 40.8455 64.5397 40.9824C64.8738 41.1192 65.2601 41.1876 65.6988 41.1876C66.1013 41.1876 66.4434 41.1333 66.7251 41.0246C67.0109 40.9159 67.2302 40.765 67.3831 40.5718C67.5361 40.3787 67.6146 40.1573 67.6186 39.9078C67.6146 39.6743 67.5421 39.4751 67.4012 39.3101C67.2604 39.1411 67.0431 38.9962 66.7493 38.8755C66.4595 38.7507 66.0892 38.636 65.6385 38.5314L64.3466 38.2295C63.276 37.984 62.4329 37.5876 61.8171 37.0402C61.2013 36.4889 60.8954 35.7443 60.8995 34.8066C60.8954 34.0419 61.1007 33.3718 61.5152 32.7963C61.9298 32.2208 62.5033 31.772 63.2358 31.45C63.9682 31.1281 64.8034 30.9671 65.7411 30.9671C66.6989 30.9671 67.53 31.1301 68.2343 31.4561C68.9427 31.778 69.492 32.2308 69.8824 32.8144C70.2728 33.398 70.472 34.0741 70.4801 34.8428H67.6186ZM76.4868 43.6748C75.5129 43.6748 74.6757 43.4756 73.9755 43.0772C73.2792 42.6747 72.7419 42.1153 72.3636 41.3989C71.9893 40.6785 71.8022 39.8434 71.8022 38.8936C71.8022 37.9397 71.9893 37.1046 72.3636 36.3882C72.7419 35.6678 73.2792 35.1084 73.9755 34.71C74.6757 34.3075 75.5129 34.1063 76.4868 34.1063C77.4608 34.1063 78.2959 34.3075 78.9922 34.71C79.6924 35.1084 80.2297 35.6678 80.604 36.3882C80.9823 37.1046 81.1715 37.9397 81.1715 38.8936C81.1715 39.8434 80.9823 40.6785 80.604 41.3989C80.2297 42.1153 79.6924 42.6747 78.9922 43.0772C78.2959 43.4756 77.4608 43.6748 76.4868 43.6748ZM76.5049 41.4472C76.8591 41.4472 77.1589 41.3385 77.4044 41.1212C77.6499 40.9039 77.8371 40.602 77.9659 40.2157C78.0987 39.8293 78.1651 39.3826 78.1651 38.8755C78.1651 38.3603 78.0987 37.9096 77.9659 37.5232C77.8371 37.1368 77.6499 36.835 77.4044 36.6177C77.1589 36.4003 76.8591 36.2917 76.5049 36.2917C76.1387 36.2917 75.8288 36.4003 75.5752 36.6177C75.3257 36.835 75.1346 37.1368 75.0017 37.5232C74.873 37.9096 74.8086 38.3603 74.8086 38.8755C74.8086 39.3826 74.873 39.8293 75.0017 40.2157C75.1346 40.602 75.3257 40.9039 75.5752 41.1212C75.8288 41.3385 76.1387 41.4472 76.5049 41.4472ZM88.6663 39.4973V34.227H91.6124V43.4998H88.7991V41.7732H88.7026C88.4973 42.3407 88.1472 42.7914 87.6521 43.1255C87.1611 43.4555 86.5675 43.6205 85.8712 43.6205C85.2394 43.6205 84.684 43.4756 84.205 43.1858C83.7261 42.8961 83.3538 42.4916 83.0882 41.9724C82.8226 41.4492 82.6878 40.8375 82.6837 40.1372V34.227H85.6358V39.5576C85.6398 40.0607 85.7726 40.4571 86.0342 40.7469C86.2958 41.0367 86.652 41.1816 87.1028 41.1816C87.3966 41.1816 87.6602 41.1172 87.8936 40.9884C88.1311 40.8556 88.3182 40.6644 88.455 40.4149C88.5959 40.1613 88.6663 39.8555 88.6663 39.4973ZM96.4434 38.2114V43.4998H93.4913V34.227H96.2985V35.9294H96.4011C96.6064 35.362 96.9565 34.9172 97.4516 34.5953C97.9466 34.2693 98.5362 34.1063 99.2204 34.1063C99.8724 34.1063 100.438 34.2532 100.917 34.547C101.4 34.8368 101.774 35.2432 102.04 35.7664C102.309 36.2856 102.442 36.8933 102.438 37.5896V43.4998H99.486V38.1691C99.49 37.654 99.3592 37.2515 99.0936 36.9618C98.832 36.672 98.4678 36.5271 98.0009 36.5271C97.691 36.5271 97.4174 36.5955 97.1799 36.7324C96.9465 36.8652 96.7654 37.0563 96.6366 37.3059C96.5118 37.5554 96.4474 37.8572 96.4434 38.2114ZM107.652 43.6326C106.968 43.6326 106.346 43.4555 105.787 43.1013C105.228 42.7471 104.781 42.2159 104.447 41.5076C104.113 40.7992 103.946 39.9199 103.946 38.8694C103.946 37.7788 104.119 36.8813 104.465 36.177C104.811 35.4726 105.264 34.9515 105.823 34.6134C106.387 34.2753 106.992 34.1063 107.64 34.1063C108.127 34.1063 108.544 34.1908 108.89 34.3598C109.236 34.5248 109.522 34.7382 109.747 34.9998C109.973 35.2614 110.144 35.533 110.26 35.8147H110.321V31.1361H113.273V43.4998H110.351V41.9966H110.26C110.136 42.2823 109.959 42.5499 109.729 42.7995C109.5 43.049 109.212 43.2502 108.866 43.4032C108.524 43.5561 108.119 43.6326 107.652 43.6326ZM108.679 41.3325C109.037 41.3325 109.343 41.2319 109.596 41.0306C109.85 40.8254 110.045 40.5376 110.182 40.1674C110.319 39.7971 110.387 39.3624 110.387 38.8634C110.387 38.3563 110.319 37.9196 110.182 37.5534C110.049 37.1871 109.854 36.9054 109.596 36.7082C109.343 36.511 109.037 36.4124 108.679 36.4124C108.313 36.4124 108.003 36.513 107.749 36.7142C107.496 36.9155 107.302 37.1992 107.17 37.5654C107.041 37.9317 106.976 38.3643 106.976 38.8634C106.976 39.3624 107.043 39.7971 107.176 40.1674C107.308 40.5376 107.5 40.8254 107.749 41.0306C108.003 41.2319 108.313 41.3325 108.679 41.3325ZM119.468 43.6748C118.49 43.6748 117.651 43.4736 116.951 43.0711C116.255 42.6687 115.719 42.1092 115.345 41.3929C114.971 40.6725 114.784 39.8394 114.784 38.8936C114.784 37.9438 114.971 37.1107 115.345 36.3943C115.723 35.6739 116.261 35.1124 116.957 34.71C117.657 34.3075 118.492 34.1063 119.462 34.1063C120.319 34.1063 121.066 34.2612 121.702 34.5711C122.342 34.881 122.841 35.3197 123.199 35.8872C123.561 36.4506 123.752 37.1127 123.773 37.8733H121.014C120.957 37.3984 120.796 37.0261 120.531 36.7565C120.269 36.4869 119.927 36.352 119.504 36.352C119.162 36.352 118.863 36.4486 118.605 36.6418C118.347 36.831 118.146 37.1127 118.001 37.487C117.86 37.8572 117.79 38.316 117.79 38.8634C117.79 39.4107 117.86 39.8736 118.001 40.2519C118.146 40.6262 118.347 40.9099 118.605 41.1031C118.863 41.2922 119.162 41.3868 119.504 41.3868C119.778 41.3868 120.02 41.3285 120.229 41.2118C120.442 41.095 120.617 40.924 120.754 40.6986C120.891 40.4692 120.977 40.1915 121.014 39.8655H123.773C123.744 40.6302 123.553 41.2983 123.199 41.8698C122.849 42.4413 122.356 42.886 121.72 43.2039C121.088 43.5179 120.338 43.6748 119.468 43.6748ZM128.235 31.1361V43.4998H125.283V31.1361H128.235ZM134.443 43.6748C133.469 43.6748 132.632 43.4756 131.932 43.0772C131.235 42.6747 130.698 42.1153 130.32 41.3989C129.945 40.6785 129.758 39.8434 129.758 38.8936C129.758 37.9397 129.945 37.1046 130.32 36.3882C130.698 35.6678 131.235 35.1084 131.932 34.71C132.632 34.3075 133.469 34.1063 134.443 34.1063C135.417 34.1063 136.252 34.3075 136.948 34.71C137.648 35.1084 138.186 35.6678 138.56 36.3882C138.938 37.1046 139.128 37.9397 139.128 38.8936C139.128 39.8434 138.938 40.6785 138.56 41.3989C138.186 42.1153 137.648 42.6747 136.948 43.0772C136.252 43.4756 135.417 43.6748 134.443 43.6748ZM134.461 41.4472C134.815 41.4472 135.115 41.3385 135.36 41.1212C135.606 40.9039 135.793 40.602 135.922 40.2157C136.055 39.8293 136.121 39.3826 136.121 38.8755C136.121 38.3603 136.055 37.9096 135.922 37.5232C135.793 37.1368 135.606 36.835 135.36 36.6177C135.115 36.4003 134.815 36.2917 134.461 36.2917C134.095 36.2917 133.785 36.4003 133.531 36.6177C133.282 36.835 133.091 37.1368 132.958 37.5232C132.829 37.9096 132.765 38.3603 132.765 38.8755C132.765 39.3826 132.829 39.8293 132.958 40.2157C133.091 40.602 133.282 40.9039 133.531 41.1212C133.785 41.3385 134.095 41.4472 134.461 41.4472ZM146.622 39.4973V34.227H149.568V43.4998H146.755V41.7732H146.659C146.453 42.3407 146.103 42.7914 145.608 43.1255C145.117 43.4555 144.524 43.6205 143.827 43.6205C143.195 43.6205 142.64 43.4756 142.161 43.1858C141.682 42.8961 141.31 42.4916 141.044 41.9724C140.779 41.4492 140.644 40.8375 140.64 40.1372V34.227H143.592V39.5576C143.596 40.0607 143.729 40.4571 143.99 40.7469C144.252 41.0367 144.608 41.1816 145.059 41.1816C145.353 41.1816 145.616 41.1172 145.85 40.9884C146.087 40.8556 146.274 40.6644 146.411 40.4149C146.552 40.1613 146.622 39.8555 146.622 39.4973ZM154.834 43.6326C154.15 43.6326 153.528 43.4555 152.969 43.1013C152.409 42.7471 151.963 42.2159 151.628 41.5076C151.294 40.7992 151.127 39.9199 151.127 38.8694C151.127 37.7788 151.3 36.8813 151.647 36.177C151.993 35.4726 152.445 34.9515 153.005 34.6134C153.568 34.2753 154.174 34.1063 154.822 34.1063C155.309 34.1063 155.726 34.1908 156.072 34.3598C156.418 34.5248 156.704 34.7382 156.929 34.9998C157.154 35.2614 157.325 35.533 157.442 35.8147H157.502V31.1361H160.454V43.4998H157.533V41.9966H157.442C157.317 42.2823 157.14 42.5499 156.911 42.7995C156.681 43.049 156.394 43.2502 156.048 43.4032C155.705 43.5561 155.301 43.6326 154.834 43.6326ZM155.86 41.3325C156.219 41.3325 156.524 41.2319 156.778 41.0306C157.032 40.8254 157.227 40.5376 157.364 40.1674C157.5 39.7971 157.569 39.3624 157.569 38.8634C157.569 38.3563 157.5 37.9196 157.364 37.5534C157.231 37.1871 157.036 36.9054 156.778 36.7082C156.524 36.511 156.219 36.4124 155.86 36.4124C155.494 36.4124 155.184 36.513 154.931 36.7142C154.677 36.9155 154.484 37.1992 154.351 37.5654C154.222 37.9317 154.158 38.3643 154.158 38.8634C154.158 39.3624 154.224 39.7971 154.357 40.1674C154.49 40.5376 154.681 40.8254 154.931 41.0306C155.184 41.2319 155.494 41.3325 155.86 41.3325Z" fill="url(#paint2_linear_1_17)"/>
</g>
<rect x="1.05" y="1.04976" width="171.9" height="53.9" rx="6.95" stroke="white" stroke-opacity="0.15" stroke-width="2.1"/>
<defs>
<filter id="filter0_d_1_17" x="2.00004" y="2.28547" width="60" height="51.4286" filterUnits="userSpaceOnUse" color-interpolation-filters="sRGB">
<feFlood flood-opacity="0" result="BackgroundImageFix"/>
<feColorMatrix in="SourceAlpha" type="matrix" values="0 0 0 0 0 0 0 0 0 0 0 0 0 0 0 0 0 0 127 0" result="hardAlpha"/>
<feOffset/>
<feGaussianBlur stdDeviation="2.85714"/>
<feComposite in2="hardAlpha" operator="out"/>
<feColorMatrix type="matrix" values="0 0 0 0 0 0 0 0 0 0 0 0 0 0 0 0 0 0 0.25 0"/>
<feBlend mode="normal" in2="BackgroundImageFix" result="effect1_dropShadow_1_17"/>
<feBlend mode="normal" in="SourceGraphic" in2="effect1_dropShadow_1_17" result="shape"/>
</filter>
<filter id="filter1_d_1_17" x="54.4" y="3.89976" width="113.2" height="48.2" filterUnits="userSpaceOnUse" color-interpolation-filters="sRGB">
<feFlood flood-opacity="0" result="BackgroundImageFix"/>
<feColorMatrix in="SourceAlpha" type="matrix" values="0 0 0 0 0 0 0 0 0 0 0 0 0 0 0 0 0 0 127 0" result="hardAlpha"/>
<feOffset/>
<feGaussianBlur stdDeviation="2.8"/>
<feComposite in2="hardAlpha" operator="out"/>
<feColorMatrix type="matrix" values="0 0 0 0 0 0 0 0 0 0 0 0 0 0 0 0 0 0 0.25 0"/>
<feBlend mode="normal" in2="BackgroundImageFix" result="effect1_dropShadow_1_17"/>
<feBlend mode="normal" in="SourceGraphic" in2="effect1_dropShadow_1_17" result="shape"/>
</filter>
<linearGradient id="paint0_linear_1_17" x1="87" y1="-0.000244141" x2="87" y2="55.9997" gradientUnits="userSpaceOnUse">
<stop stop-color="#402806"/>
<stop offset="1" stop-color="#270802"/>
</linearGradient>
<linearGradient id="paint1_linear_1_17" x1="31.9978" y1="16.567" x2="31.9978" y2="46.569" gradientUnits="userSpaceOnUse">
<stop stop-color="#F79810"/>
<stop offset="1" stop-color="#F8310E"/>
</linearGradient>
<linearGradient id="paint2_linear_1_17" x1="111" y1="28.4998" x2="111" y2="46.4998" gradientUnits="userSpaceOnUse">
<stop stop-color="#F4B252"/>
<stop offset="1" stop-color="#F4644A"/>
</linearGradient>
</defs>
</svg>
