<svg width="164" height="56" viewBox="0 0 164 56" fill="none" xmlns="http://www.w3.org/2000/svg">
<rect y="-0.00012207" width="164" height="56" rx="8" fill="url(#paint0_linear_2_3368)"/>
<rect x="1.05" y="1.04988" width="161.9" height="53.9" rx="6.95" stroke="white" stroke-opacity="0.15" stroke-width="2.1"/>
<g filter="url(#filter0_d_2_3368)">
<path fill-rule="evenodd" clip-rule="evenodd" d="M32.75 10.9412C32.3054 11.0831 31.9638 11.3401 31.5766 11.8239C31.4677 11.9598 31.2802 12.0078 31.0363 11.9619C30.7471 11.9075 29.6494 11.8365 26.776 11.6864C25.9363 11.6424 25.766 11.6664 25.6153 11.8487C25.2552 12.2845 25.3522 13.6884 25.7635 13.9935C25.8806 14.0805 26.5189 14.0934 27.1471 14.0216C27.4855 13.9828 27.8226 13.9484 28.5968 13.8731C28.7912 13.8543 29.1094 13.8229 29.3039 13.8035C29.4983 13.7842 29.904 13.744 30.2054 13.7142C30.5068 13.6845 30.9494 13.6194 31.1889 13.5695L31.6245 13.4789L31.7546 13.5662C32.1349 13.8214 32.2397 14.006 32.1854 14.3257C32.0835 14.9262 32.073 15.2567 32.0877 17.3767C32.1059 19.9943 32.167 19.7628 31.4428 19.8195C30.99 19.855 30.8139 19.9837 30.7345 20.3375C30.6965 20.5069 30.7053 22.1218 30.7466 22.5626C30.7725 22.8393 30.5551 22.9967 30.0577 23.0615C29.5688 23.1251 29.4508 23.4048 29.5554 24.2528C29.5782 24.437 29.4661 24.5859 29.1772 24.755C28.9148 24.9086 28.8596 25.2724 29.0658 25.4898C29.2904 25.7267 29.3016 25.8448 29.1236 26.1025C28.9386 26.3706 28.9345 26.4126 28.9328 28.053C28.931 29.7012 28.9099 29.9706 28.7648 30.1865C28.5549 30.4989 27.5256 31.4477 27.2828 31.5524C27.2089 31.5843 26.5819 31.6016 24.9021 31.6183C23.6479 31.6307 22.578 31.6528 22.5247 31.6676C22.3091 31.7268 22.1098 31.658 21.9165 31.4572C21.6473 31.1776 21.6776 31.1814 19.8286 31.2007C18.0118 31.2197 18.0312 31.2222 17.9877 30.963C17.9386 30.6709 17.9098 30.5766 17.7915 30.3196C17.5665 29.8306 17.368 29.7349 16.741 29.8135C16.3415 29.8636 16.2512 29.9723 16.1533 30.5221C16.0306 31.211 15.9027 31.3552 15.5371 31.2173C15.2962 31.1265 15.2597 31.1247 14.3132 31.1572C14.2548 31.1591 14.1486 31.1504 14.0771 31.1377C14.0009 31.1242 13.8909 31.1334 13.8118 31.16C13.7375 31.185 13.5574 31.209 13.4115 31.2136C12.7587 31.2335 12.6499 31.267 12.5007 31.4942C12.1716 31.9951 11.8935 34.7956 12.0403 36.1304C12.2076 37.652 12.418 38.3732 12.7326 38.5035C13.1646 38.6823 15.0314 38.7649 15.521 38.6267L15.7743 38.5552L15.8879 38.6358C16.0361 38.7412 16.116 38.9293 16.1868 39.3403C16.2716 39.833 16.3594 39.9432 16.7218 40.0113C16.9692 40.0579 17.3043 40.0395 17.4548 39.9711C17.7726 39.8266 17.9501 38.8375 17.7578 38.283C17.6477 37.9657 17.73 37.8902 17.8746 38.1758C18.0778 38.5769 18.2864 38.6171 20.1644 38.6172C21.8644 38.6172 21.742 38.6468 21.9802 38.1787C22.1718 37.8023 22.2586 37.7329 22.527 37.7426C22.6374 37.7466 23.5233 37.7635 24.4956 37.7802C26.4355 37.8134 26.2511 37.7916 26.8643 38.0617C28.4702 38.7688 30.2286 39.1672 32.4328 39.3232C33.6446 39.409 35.3117 39.3722 36.3573 39.2366C38.2371 38.9929 39.4766 38.6798 40.759 38.1245C41.6936 37.7198 42.1077 37.9343 42.2997 38.9225C42.4499 39.695 42.4138 39.8089 41.9611 39.9924C41.323 40.2512 40.9275 40.5177 40.8335 40.7521C40.7655 40.9217 40.7973 41.108 40.9802 41.6154C41.0292 41.7512 41.0741 41.9496 41.0798 42.0563C41.0964 42.3591 41.1276 42.4834 41.2349 42.6749C41.2897 42.7728 41.3448 42.9314 41.3574 43.0277C41.3865 43.2521 41.4721 43.5175 41.5729 43.6965C41.6212 43.7822 41.6613 43.9299 41.6748 44.0723C41.7382 44.7366 42.0258 44.9301 43.1102 45.0382C43.2366 45.0508 43.3776 45.0668 43.4237 45.0738C45.6272 45.4108 48.6711 44.4907 50.8598 42.826C51.8804 42.0496 52.1373 41.6816 51.9373 41.2815C51.9045 41.216 51.8783 41.0805 51.8783 40.9764C51.8783 40.7724 51.7757 40.4573 51.6625 40.3137C51.6233 40.2639 51.5844 40.153 51.5765 40.0673C51.561 39.9027 51.4509 39.5921 51.3642 39.4687C51.3358 39.4283 51.3127 39.3434 51.3127 39.2802C51.3127 39.1493 51.2264 38.9096 51.1284 38.7683C51.092 38.7156 51.0393 38.5958 51.0114 38.5022C50.8666 38.0161 50.0432 37.7222 49.2089 37.8589C48.4943 37.976 48.4456 37.95 48.239 37.3442C47.5817 35.4163 46.6867 33.993 45.6515 33.2292C45.2585 32.9392 45.1114 32.8722 43.6405 32.3123C42.1978 31.7632 41.8329 31.6097 41.172 31.2741C40.7769 31.0735 40.3394 30.8358 40.1997 30.7459C38.0639 29.3709 38.2943 29.731 38.2165 27.646C38.1641 26.2437 38.1529 26.1883 37.8782 25.9681C37.655 25.7892 37.6225 25.7065 37.6844 25.4744C37.791 25.0753 37.7352 24.8992 37.4385 24.6974C37.2068 24.5398 37.1748 24.4725 37.2108 24.2175C37.3322 23.3573 37.1936 23.0487 36.6603 22.9911C36.3376 22.9563 36.2022 22.9131 36.1102 22.8153L36.0269 22.7267L36.0241 21.4657C36.0205 19.7911 36.0319 19.8163 35.2612 19.7786C34.7103 19.7516 34.5834 19.7204 34.4683 19.584L34.3774 19.4761L34.3771 17.1067C34.3769 15.7301 34.3617 14.606 34.3408 14.4239C34.2985 14.0561 34.3039 14.0434 34.6318 13.7359C34.8823 13.5008 35.0409 13.4053 35.1376 13.4315C35.7064 13.5861 35.6143 13.5788 38.7261 13.7155C41.1142 13.8204 41.0938 13.8227 41.2891 13.4325C41.5448 12.9216 41.3722 11.5395 41.0349 11.3971C40.9194 11.3484 40.4631 11.3504 40.0342 11.4015C39.7174 11.4394 39.6337 11.4486 38.0897 11.6182C36.1717 11.8288 36.1345 11.8334 35.6628 11.9155C35.2012 11.9958 35.1739 11.9869 34.909 11.6674C34.3431 10.9848 33.5008 10.7014 32.75 10.9412Z" fill="url(#paint1_linear_2_3368)"/>
</g>
<g filter="url(#filter1_d_2_3368)">
<path d="M62.2613 24.4999H60.3977L64.5852 12.8635H66.6136L70.8011 24.4999H68.9375L65.6477 14.9771H65.5568L62.2613 24.4999ZM62.5738 19.9431H68.6193V21.4203H62.5738V19.9431ZM78.7173 15.7726L75.5525 24.4999H73.7343L70.5639 15.7726H72.3878L74.598 22.4885H74.6889L76.8934 15.7726H78.7173ZM82.6037 24.6931C82.0506 24.6931 81.5506 24.5908 81.1037 24.3862C80.6567 24.1779 80.3025 23.8768 80.0412 23.4828C79.7836 23.0889 79.6548 22.6059 79.6548 22.034C79.6548 21.5415 79.7495 21.1362 79.9389 20.8181C80.1283 20.4999 80.384 20.248 80.7059 20.0624C81.0279 19.8768 81.3877 19.7366 81.7855 19.6419C82.1832 19.5472 82.5885 19.4753 83.0014 19.426C83.5241 19.3654 83.9484 19.3162 84.2741 19.2783C84.5999 19.2366 84.8366 19.1703 84.9843 19.0794C85.1321 18.9885 85.2059 18.8408 85.2059 18.6362V18.5965C85.2059 18.1003 85.0658 17.7158 84.7855 17.4431C84.509 17.1703 84.0961 17.034 83.5468 17.034C82.9749 17.034 82.5241 17.1609 82.1946 17.4146C81.8688 17.6646 81.6434 17.9431 81.5184 18.2499L79.9218 17.8862C80.1112 17.3559 80.3877 16.9279 80.7514 16.6021C81.1188 16.2726 81.5412 16.034 82.0184 15.8862C82.4957 15.7347 82.9976 15.659 83.5241 15.659C83.8726 15.659 84.2419 15.7006 84.6321 15.784C85.026 15.8635 85.3934 16.0112 85.7343 16.2271C86.079 16.4431 86.3612 16.7518 86.5809 17.1533C86.8006 17.551 86.9105 18.0681 86.9105 18.7044V24.4999H85.2514V23.3067H85.1832C85.0734 23.5264 84.9086 23.7423 84.6889 23.9544C84.4692 24.1665 84.187 24.3427 83.8423 24.4828C83.4976 24.623 83.0847 24.6931 82.6037 24.6931ZM82.973 23.3294C83.4427 23.3294 83.8442 23.2366 84.1775 23.051C84.5146 22.8654 84.7703 22.623 84.9446 22.3237C85.1226 22.0207 85.2116 21.6968 85.2116 21.3521V20.2271C85.151 20.2878 85.0336 20.3446 84.8593 20.3976C84.6889 20.4468 84.4938 20.4904 84.2741 20.5283C84.0544 20.5624 83.8404 20.5946 83.6321 20.6249C83.4237 20.6514 83.2495 20.6741 83.1093 20.6931C82.7798 20.7347 82.4787 20.8048 82.2059 20.9033C81.937 21.0018 81.7211 21.1438 81.5582 21.3294C81.3991 21.5112 81.3196 21.7537 81.3196 22.0567C81.3196 22.4771 81.4749 22.7953 81.7855 23.0112C82.0961 23.2234 82.4919 23.3294 82.973 23.3294ZM89.1733 24.4999V15.7726H90.8721V24.4999H89.1733ZM90.0312 14.426C89.7358 14.426 89.482 14.3275 89.2698 14.1306C89.0615 13.9298 88.9573 13.6912 88.9573 13.4146C88.9573 13.1343 89.0615 12.8957 89.2698 12.6987C89.482 12.498 89.7358 12.3976 90.0312 12.3976C90.3267 12.3976 90.5786 12.498 90.7869 12.6987C90.999 12.8957 91.1051 13.1343 91.1051 13.4146C91.1051 13.6912 90.999 13.9298 90.7869 14.1306C90.5786 14.3275 90.3267 14.426 90.0312 14.426ZM94.8565 12.8635V24.4999H93.1576V12.8635H94.8565ZM99.6818 24.6931C99.1287 24.6931 98.6287 24.5908 98.1818 24.3862C97.7348 24.1779 97.3806 23.8768 97.1193 23.4828C96.8617 23.0889 96.7329 22.6059 96.7329 22.034C96.7329 21.5415 96.8276 21.1362 97.017 20.8181C97.2064 20.4999 97.4621 20.248 97.784 20.0624C98.106 19.8768 98.4659 19.7366 98.8636 19.6419C99.2613 19.5472 99.6666 19.4753 100.08 19.426C100.602 19.3654 101.026 19.3162 101.352 19.2783C101.678 19.2366 101.915 19.1703 102.062 19.0794C102.21 18.9885 102.284 18.8408 102.284 18.6362V18.5965C102.284 18.1003 102.144 17.7158 101.864 17.4431C101.587 17.1703 101.174 17.034 100.625 17.034C100.053 17.034 99.6022 17.1609 99.2727 17.4146C98.9469 17.6646 98.7215 17.9431 98.5965 18.2499L97 17.8862C97.1894 17.3559 97.4659 16.9279 97.8295 16.6021C98.1969 16.2726 98.6193 16.034 99.0965 15.8862C99.5738 15.7347 100.076 15.659 100.602 15.659C100.951 15.659 101.32 15.7006 101.71 15.784C102.104 15.8635 102.472 16.0112 102.812 16.2271C103.157 16.4431 103.439 16.7518 103.659 17.1533C103.879 17.551 103.989 18.0681 103.989 18.7044V24.4999H102.33V23.3067H102.261C102.151 23.5264 101.987 23.7423 101.767 23.9544C101.547 24.1665 101.265 24.3427 100.92 24.4828C100.576 24.623 100.163 24.6931 99.6818 24.6931ZM100.051 23.3294C100.521 23.3294 100.922 23.2366 101.256 23.051C101.593 22.8654 101.848 22.623 102.023 22.3237C102.201 22.0207 102.29 21.6968 102.29 21.3521V20.2271C102.229 20.2878 102.112 20.3446 101.937 20.3976C101.767 20.4468 101.572 20.4904 101.352 20.5283C101.133 20.5624 100.919 20.5946 100.71 20.6249C100.502 20.6514 100.328 20.6741 100.187 20.6931C99.8579 20.7347 99.5568 20.8048 99.284 20.9033C99.0151 21.0018 98.7992 21.1438 98.6363 21.3294C98.4772 21.5112 98.3977 21.7537 98.3977 22.0567C98.3977 22.4771 98.553 22.7953 98.8636 23.0112C99.1742 23.2234 99.57 23.3294 100.051 23.3294ZM106.388 24.4999V12.8635H108.087V17.1874H108.189C108.287 17.0056 108.429 16.7953 108.615 16.5567C108.801 16.3181 109.058 16.1097 109.388 15.9317C109.717 15.7499 110.153 15.659 110.695 15.659C111.399 15.659 112.028 15.837 112.581 16.1931C113.134 16.5491 113.568 17.0624 113.882 17.7328C114.2 18.4033 114.359 19.2101 114.359 20.1533C114.359 21.0965 114.202 21.9052 113.888 22.5794C113.573 23.2499 113.142 23.7669 112.592 24.1306C112.043 24.4904 111.416 24.6703 110.712 24.6703C110.181 24.6703 109.748 24.5813 109.41 24.4033C109.077 24.2253 108.816 24.0169 108.626 23.7783C108.437 23.5396 108.291 23.3275 108.189 23.1419H108.047V24.4999H106.388ZM108.053 20.1362C108.053 20.7499 108.142 21.2878 108.32 21.7499C108.498 22.212 108.755 22.5737 109.092 22.8351C109.429 23.0927 109.842 23.2215 110.331 23.2215C110.838 23.2215 111.263 23.087 111.604 22.8181C111.945 22.5453 112.202 22.176 112.376 21.7101C112.554 21.2442 112.643 20.7196 112.643 20.1362C112.643 19.5605 112.556 19.0434 112.382 18.5851C112.212 18.1268 111.954 17.765 111.609 17.4999C111.268 17.2347 110.842 17.1021 110.331 17.1021C109.838 17.1021 109.422 17.229 109.081 17.4828C108.744 17.7366 108.488 18.0908 108.314 18.5453C108.14 18.9999 108.053 19.5302 108.053 20.1362ZM117.966 12.8635V24.4999H116.267V12.8635H117.966ZM124.013 24.676C123.153 24.676 122.412 24.4923 121.791 24.1249C121.174 23.7537 120.696 23.2328 120.359 22.5624C120.026 21.8881 119.859 21.0984 119.859 20.1931C119.859 19.2991 120.026 18.5112 120.359 17.8294C120.696 17.1476 121.166 16.6154 121.768 16.2328C122.374 15.8503 123.083 15.659 123.893 15.659C124.386 15.659 124.863 15.7404 125.325 15.9033C125.787 16.0662 126.202 16.3218 126.57 16.6703C126.937 17.0188 127.227 17.4715 127.439 18.0283C127.651 18.5813 127.757 19.2537 127.757 20.0453V20.6476H120.82V19.3749H126.092C126.092 18.9279 126.001 18.5321 125.82 18.1874C125.638 17.8389 125.382 17.5643 125.053 17.3635C124.727 17.1628 124.344 17.0624 123.905 17.0624C123.428 17.0624 123.011 17.1798 122.655 17.4146C122.303 17.6457 122.03 17.9487 121.837 18.3237C121.647 18.695 121.553 19.0984 121.553 19.534V20.5283C121.553 21.1116 121.655 21.6078 121.859 22.0169C122.068 22.426 122.357 22.7385 122.729 22.9544C123.1 23.1665 123.534 23.2726 124.03 23.2726C124.352 23.2726 124.645 23.2271 124.91 23.1362C125.176 23.0415 125.405 22.9014 125.598 22.7158C125.791 22.5302 125.939 22.301 126.041 22.0283L127.649 22.3181C127.52 22.7915 127.289 23.2063 126.956 23.5624C126.626 23.9146 126.212 24.1893 125.712 24.3862C125.215 24.5794 124.649 24.676 124.013 24.676ZM137.553 24.676C136.734 24.676 136.02 24.4885 135.41 24.1135C134.801 23.7385 134.327 23.2139 133.99 22.5396C133.653 21.8654 133.484 21.0775 133.484 20.176C133.484 19.2707 133.653 18.479 133.99 17.801C134.327 17.123 134.801 16.5965 135.41 16.2215C136.02 15.8465 136.734 15.659 137.553 15.659C138.371 15.659 139.085 15.8465 139.695 16.2215C140.304 16.5965 140.778 17.123 141.115 17.801C141.452 18.479 141.621 19.2707 141.621 20.176C141.621 21.0775 141.452 21.8654 141.115 22.5396C140.778 23.2139 140.304 23.7385 139.695 24.1135C139.085 24.4885 138.371 24.676 137.553 24.676ZM137.558 23.2499C138.088 23.2499 138.528 23.1097 138.876 22.8294C139.225 22.5491 139.482 22.176 139.649 21.7101C139.82 21.2442 139.905 20.7309 139.905 20.1703C139.905 19.6135 139.82 19.1021 139.649 18.6362C139.482 18.1665 139.225 17.7896 138.876 17.5056C138.528 17.2215 138.088 17.0794 137.558 17.0794C137.024 17.0794 136.581 17.2215 136.229 17.5056C135.88 17.7896 135.621 18.1665 135.45 18.6362C135.284 19.1021 135.2 19.6135 135.2 20.1703C135.2 20.7309 135.284 21.2442 135.45 21.7101C135.621 22.176 135.88 22.5491 136.229 22.8294C136.581 23.1097 137.024 23.2499 137.558 23.2499ZM145.216 19.3181V24.4999H143.517V15.7726H145.148V17.1931H145.256C145.456 16.7309 145.771 16.3597 146.199 16.0794C146.631 15.7991 147.174 15.659 147.829 15.659C148.424 15.659 148.945 15.784 149.392 16.034C149.839 16.2802 150.186 16.6476 150.432 17.1362C150.678 17.6249 150.801 18.229 150.801 18.9487V24.4999H149.102V19.1533C149.102 18.5207 148.937 18.0264 148.608 17.6703C148.278 17.3105 147.826 17.1306 147.25 17.1306C146.856 17.1306 146.506 17.2158 146.199 17.3862C145.896 17.5567 145.655 17.8067 145.477 18.1362C145.303 18.462 145.216 18.8559 145.216 19.3181Z" fill="#E8E8E8"/>
<path d="M67.6186 34.8429C67.5783 34.4002 67.3992 34.0561 67.0813 33.8106C66.7674 33.5611 66.3186 33.4363 65.7351 33.4363C65.3487 33.4363 65.0267 33.4866 64.7691 33.5872C64.5116 33.6878 64.3184 33.8267 64.1896 34.0038C64.0608 34.1768 63.9944 34.3761 63.9904 34.6014C63.9823 34.7866 64.0186 34.9496 64.099 35.0904C64.1836 35.2313 64.3043 35.3561 64.4613 35.4647C64.6222 35.5694 64.8154 35.6619 65.0408 35.7424C65.2662 35.8229 65.5197 35.8933 65.8015 35.9537L66.864 36.1952C67.4757 36.328 68.015 36.5051 68.4819 36.7264C68.9527 36.9478 69.3471 37.2114 69.6651 37.5173C69.9871 37.8231 70.2306 38.1753 70.3956 38.5737C70.5606 38.9722 70.6451 39.4189 70.6491 39.9139C70.6451 40.6947 70.4479 41.3648 70.0575 41.9242C69.6671 42.4837 69.1057 42.9123 68.3732 43.2101C67.6447 43.5079 66.7654 43.6568 65.7351 43.6568C64.7007 43.6568 63.7992 43.5019 63.0305 43.192C62.2618 42.8821 61.6641 42.4112 61.2375 41.7793C60.8109 41.1475 60.5916 40.3486 60.5795 39.3827H63.441C63.4652 39.7811 63.5718 40.1132 63.761 40.3788C63.9501 40.6444 64.2097 40.8456 64.5397 40.9825C64.8738 41.1193 65.2601 41.1877 65.6988 41.1877C66.1013 41.1877 66.4434 41.1334 66.7251 41.0247C67.0109 40.9161 67.2302 40.7651 67.3831 40.572C67.5361 40.3788 67.6146 40.1574 67.6186 39.9079C67.6146 39.6745 67.5421 39.4753 67.4012 39.3102C67.2604 39.1412 67.0431 38.9963 66.7493 38.8756C66.4595 38.7508 66.0892 38.6361 65.6385 38.5315L64.3466 38.2296C63.276 37.9841 62.4329 37.5877 61.8171 37.0404C61.2013 36.489 60.8954 35.7444 60.8995 34.8067C60.8954 34.042 61.1007 33.3719 61.5152 32.7964C61.9298 32.2209 62.5033 31.7721 63.2358 31.4502C63.9682 31.1282 64.8034 30.9672 65.7411 30.9672C66.6989 30.9672 67.53 31.1302 68.2343 31.4562C68.9427 31.7782 69.492 32.2309 69.8824 32.8145C70.2728 33.3981 70.472 34.0742 70.4801 34.8429H67.6186ZM72.1583 46.9771V34.2271H75.0802V35.8149H75.1708C75.2915 35.5331 75.4626 35.2615 75.6839 34.9999C75.9093 34.7383 76.195 34.525 76.5412 34.36C76.8913 34.1909 77.3099 34.1064 77.7968 34.1064C78.4408 34.1064 79.0425 34.2754 79.6019 34.6135C80.1653 34.9516 80.6201 35.4728 80.9662 36.1771C81.3123 36.8814 81.4854 37.7789 81.4854 38.8695C81.4854 39.92 81.3184 40.7994 80.9843 41.5077C80.6543 42.216 80.2076 42.7473 79.6441 43.1014C79.0847 43.4556 78.4629 43.6327 77.7787 43.6327C77.3119 43.6327 76.9074 43.5562 76.5653 43.4033C76.2232 43.2503 75.9355 43.0491 75.702 42.7996C75.4726 42.5501 75.2955 42.2824 75.1708 41.9967H75.1104V46.9771H72.1583ZM75.05 38.8635C75.05 39.3626 75.1164 39.7972 75.2493 40.1675C75.3861 40.5378 75.5813 40.8255 75.8348 41.0308C76.0924 41.232 76.4003 41.3326 76.7585 41.3326C77.1207 41.3326 77.4286 41.232 77.6821 41.0308C77.9357 40.8255 78.1269 40.5378 78.2556 40.1675C78.3885 39.7972 78.4549 39.3626 78.4549 38.8635C78.4549 38.3645 78.3885 37.9318 78.2556 37.5656C78.1269 37.1993 77.9357 36.9156 77.6821 36.7144C77.4326 36.5131 77.1247 36.4125 76.7585 36.4125C76.3963 36.4125 76.0884 36.5111 75.8348 36.7083C75.5813 36.9055 75.3861 37.1873 75.2493 37.5535C75.1164 37.9197 75.05 38.3564 75.05 38.8635ZM83.0324 43.4999V34.2271H85.9844V43.4999H83.0324ZM84.5114 33.1465C84.0969 33.1465 83.7407 33.0097 83.4429 32.736C83.1451 32.4583 82.9961 32.1243 82.9961 31.7339C82.9961 31.3475 83.1451 31.0175 83.4429 30.7438C83.7407 30.4661 84.0969 30.3273 84.5114 30.3273C84.93 30.3273 85.2862 30.4661 85.58 30.7438C85.8778 31.0175 86.0267 31.3475 86.0267 31.7339C86.0267 32.1243 85.8778 32.4583 85.58 32.736C85.2862 33.0097 84.93 33.1465 84.5114 33.1465ZM92.1859 47.1703C91.3045 47.1703 90.5499 47.0476 89.922 46.8021C89.2942 46.5566 88.8012 46.2205 88.443 45.7939C88.0848 45.3673 87.8695 44.8843 87.797 44.345L90.5921 44.1881C90.6444 44.3772 90.741 44.5423 90.8819 44.6831C91.0268 44.824 91.2139 44.9326 91.4433 45.0091C91.6767 45.0856 91.9504 45.1238 92.2643 45.1238C92.7594 45.1238 93.1679 45.0031 93.4898 44.7616C93.8158 44.5241 93.9788 44.1076 93.9788 43.5119V41.882H93.8762C93.7595 42.1677 93.5824 42.4233 93.345 42.6487C93.1075 42.874 92.8117 43.0511 92.4575 43.1799C92.1074 43.3087 91.7049 43.3731 91.2501 43.3731C90.574 43.3731 89.9542 43.2161 89.3908 42.9022C88.8313 42.5843 88.3826 42.0933 88.0445 41.4292C87.7105 40.7611 87.5435 39.9019 87.5435 38.8514C87.5435 37.7688 87.7165 36.8774 88.0626 36.1771C88.4088 35.4728 88.8615 34.9516 89.4209 34.6135C89.9844 34.2754 90.5901 34.1064 91.2381 34.1064C91.725 34.1064 92.1416 34.1909 92.4877 34.36C92.8379 34.525 93.1256 34.7383 93.351 34.9999C93.5764 35.2615 93.7474 35.5331 93.8641 35.8149H93.9486V34.2271H96.8886V43.5361C96.8886 44.3209 96.6914 44.9829 96.297 45.5222C95.9026 46.0615 95.3512 46.47 94.6429 46.7477C93.9346 47.0295 93.1155 47.1703 92.1859 47.1703ZM92.2764 41.224C92.6346 41.224 92.9405 41.1294 93.194 40.9402C93.4476 40.7511 93.6428 40.4794 93.7796 40.1252C93.9164 39.7711 93.9849 39.3465 93.9849 38.8514C93.9849 38.3484 93.9164 37.9157 93.7796 37.5535C93.6468 37.1873 93.4516 36.9055 93.194 36.7083C92.9405 36.5111 92.6346 36.4125 92.2764 36.4125C91.9102 36.4125 91.6003 36.5131 91.3467 36.7144C91.0932 36.9156 90.9 37.1993 90.7672 37.5656C90.6384 37.9278 90.574 38.3564 90.574 38.8514C90.574 39.3465 90.6404 39.7711 90.7732 40.1252C90.906 40.4794 91.0972 40.7511 91.3467 40.9402C91.6003 41.1294 91.9102 41.224 92.2764 41.224ZM103.099 43.6749C102.125 43.6749 101.288 43.4757 100.588 43.0773C99.8915 42.6748 99.3542 42.1154 98.9759 41.399C98.6016 40.6786 98.4145 39.8435 98.4145 38.8937C98.4145 37.9399 98.6016 37.1048 98.9759 36.3884C99.3542 35.668 99.8915 35.1085 100.588 34.7101C101.288 34.3076 102.125 34.1064 103.099 34.1064C104.073 34.1064 104.908 34.3076 105.604 34.7101C106.305 35.1085 106.842 35.668 107.216 36.3884C107.595 37.1048 107.784 37.9399 107.784 38.8937C107.784 39.8435 107.595 40.6786 107.216 41.399C106.842 42.1154 106.305 42.6748 105.604 43.0773C104.908 43.4757 104.073 43.6749 103.099 43.6749ZM103.117 41.4473C103.471 41.4473 103.771 41.3387 104.017 41.1213C104.262 40.904 104.449 40.6021 104.578 40.2158C104.711 39.8294 104.777 39.3827 104.777 38.8756C104.777 38.3604 104.711 37.9097 104.578 37.5233C104.449 37.1369 104.262 36.8351 104.017 36.6178C103.771 36.4004 103.471 36.2918 103.117 36.2918C102.751 36.2918 102.441 36.4004 102.188 36.6178C101.938 36.8351 101.747 37.1369 101.614 37.5233C101.485 37.9097 101.421 38.3604 101.421 38.8756C101.421 39.3827 101.485 39.8294 101.614 40.2158C101.747 40.6021 101.938 40.904 102.188 41.1213C102.441 41.3387 102.751 41.4473 103.117 41.4473ZM114.53 34.2271V36.4004H108.68V34.2271H114.53ZM109.906 32.0056H112.858V40.584C112.858 40.7651 112.886 40.912 112.942 41.0247C113.003 41.1334 113.089 41.2119 113.202 41.2602C113.315 41.3044 113.449 41.3266 113.606 41.3266C113.719 41.3266 113.838 41.3165 113.963 41.2964C114.091 41.2722 114.188 41.2521 114.252 41.236L114.699 43.3671C114.558 43.4073 114.359 43.4576 114.101 43.518C113.848 43.5784 113.544 43.6166 113.19 43.6327C112.498 43.6649 111.904 43.5844 111.409 43.3912C110.918 43.194 110.542 42.8881 110.28 42.4736C110.022 42.0591 109.898 41.5379 109.906 40.91V32.0056Z" fill="url(#paint2_linear_2_3368)"/>
</g>
<defs>
<filter id="filter0_d_2_3368" x="6.28571" y="2.28559" width="51.4286" height="51.4286" filterUnits="userSpaceOnUse" color-interpolation-filters="sRGB">
<feFlood flood-opacity="0" result="BackgroundImageFix"/>
<feColorMatrix in="SourceAlpha" type="matrix" values="0 0 0 0 0 0 0 0 0 0 0 0 0 0 0 0 0 0 127 0" result="hardAlpha"/>
<feOffset/>
<feGaussianBlur stdDeviation="2.85714"/>
<feComposite in2="hardAlpha" operator="out"/>
<feColorMatrix type="matrix" values="0 0 0 0 0 0 0 0 0 0 0 0 0 0 0 0 0 0 0.25 0"/>
<feBlend mode="normal" in2="BackgroundImageFix" result="effect1_dropShadow_2_3368"/>
<feBlend mode="normal" in="SourceGraphic" in2="effect1_dropShadow_2_3368" result="shape"/>
</filter>
<filter id="filter1_d_2_3368" x="54.4" y="3.89988" width="103.2" height="48.8704" filterUnits="userSpaceOnUse" color-interpolation-filters="sRGB">
<feFlood flood-opacity="0" result="BackgroundImageFix"/>
<feColorMatrix in="SourceAlpha" type="matrix" values="0 0 0 0 0 0 0 0 0 0 0 0 0 0 0 0 0 0 127 0" result="hardAlpha"/>
<feOffset/>
<feGaussianBlur stdDeviation="2.8"/>
<feComposite in2="hardAlpha" operator="out"/>
<feColorMatrix type="matrix" values="0 0 0 0 0 0 0 0 0 0 0 0 0 0 0 0 0 0 0.25 0"/>
<feBlend mode="normal" in2="BackgroundImageFix" result="effect1_dropShadow_2_3368"/>
<feBlend mode="normal" in="SourceGraphic" in2="effect1_dropShadow_2_3368" result="shape"/>
</filter>
<linearGradient id="paint0_linear_2_3368" x1="82" y1="-0.00012207" x2="82" y2="55.9999" gradientUnits="userSpaceOnUse">
<stop stop-color="#342A1D"/>
<stop offset="1" stop-color="#1C1610"/>
</linearGradient>
<linearGradient id="paint1_linear_2_3368" x1="32.0001" y1="10.8572" x2="32.0001" y2="45.1429" gradientUnits="userSpaceOnUse">
<stop stop-color="#CEA260"/>
<stop offset="1" stop-color="#81562E"/>
</linearGradient>
<linearGradient id="paint2_linear_2_3368" x1="88" y1="28.4999" x2="88" y2="46.4999" gradientUnits="userSpaceOnUse">
<stop stop-color="#E9C48D"/>
<stop offset="1" stop-color="#A2825D"/>
</linearGradient>
</defs>
</svg>
