<svg width="168" height="56" viewBox="0 0 168 56" fill="none" xmlns="http://www.w3.org/2000/svg">
<rect y="-0.000244141" width="168" height="56" rx="8" fill="url(#paint0_linear_1_2)"/>
<g filter="url(#filter0_d_1_2)">
<path d="M31.9999 7.99976C20.9545 7.99976 12 16.9542 12 27.9999C12 39.046 20.9545 47.9998 31.9999 47.9998C43.0465 47.9998 52 39.046 52 27.9999C52 16.9549 43.0465 8.00071 31.9996 8.00071L31.9999 7.99976ZM41.1717 36.8457C40.8135 37.4332 40.0444 37.6195 39.4569 37.2588C34.7612 34.3905 28.8498 33.7409 21.8881 35.3315C21.2172 35.4843 20.5485 35.064 20.3956 34.3929C20.2421 33.7218 20.6607 33.053 21.3333 32.9002C28.9518 31.1596 35.4867 31.909 40.7585 35.1309C41.346 35.4915 41.5323 36.2581 41.1717 36.8457ZM43.6196 31.3999C43.1683 32.1335 42.2082 32.3652 41.475 31.9138C36.0991 28.6094 27.9043 27.6524 21.5456 29.5826C20.7209 29.8317 19.8499 29.3669 19.5996 28.5437C19.3513 27.719 19.8162 26.8497 20.6395 26.5989C27.9028 24.395 36.9326 25.4625 43.1062 29.2564C43.8394 29.7077 44.071 30.6676 43.6196 31.3999ZM43.8298 25.7291C37.3839 21.9004 26.7491 21.5484 20.5948 23.4162C19.6066 23.716 18.5615 23.1581 18.262 22.1698C17.9625 21.181 18.5199 20.1366 19.5089 19.8362C26.5735 17.6915 38.3177 18.1059 45.739 22.5116C46.6298 23.0391 46.9212 24.1872 46.3934 25.0749C45.8679 25.9638 44.7168 26.2569 43.8308 25.7291H43.8298Z" fill="#1ED760"/>
</g>
<g filter="url(#filter1_d_1_2)">
<path d="M66.2613 24.4998H64.3977L68.5852 12.8634H70.6136L74.8011 24.4998H72.9375L69.6477 14.977H69.5568L66.2613 24.4998ZM66.5738 19.9429H72.6193V21.4202H66.5738V19.9429ZM82.7173 15.7725L79.5525 24.4998H77.7343L74.5639 15.7725H76.3878L78.598 22.4884H78.6889L80.8934 15.7725H82.7173ZM86.6037 24.6929C86.0506 24.6929 85.5506 24.5907 85.1037 24.3861C84.6567 24.1778 84.3025 23.8766 84.0412 23.4827C83.7836 23.0888 83.6548 22.6058 83.6548 22.0338C83.6548 21.5414 83.7495 21.1361 83.9389 20.8179C84.1283 20.4998 84.384 20.2479 84.7059 20.0623C85.0279 19.8766 85.3877 19.7365 85.7855 19.6418C86.1832 19.5471 86.5885 19.4751 87.0014 19.4259C87.5241 19.3653 87.9484 19.316 88.2741 19.2782C88.5999 19.2365 88.8366 19.1702 88.9843 19.0793C89.1321 18.9884 89.2059 18.8407 89.2059 18.6361V18.5963C89.2059 18.1001 89.0658 17.7157 88.7855 17.4429C88.509 17.1702 88.0961 17.0338 87.5468 17.0338C86.9749 17.0338 86.5241 17.1607 86.1946 17.4145C85.8688 17.6645 85.6434 17.9429 85.5184 18.2498L83.9218 17.8861C84.1112 17.3558 84.3877 16.9278 84.7514 16.602C85.1188 16.2725 85.5412 16.0338 86.0184 15.8861C86.4957 15.7346 86.9976 15.6588 87.5241 15.6588C87.8726 15.6588 88.2419 15.7005 88.6321 15.7838C89.026 15.8634 89.3934 16.0111 89.7343 16.227C90.079 16.4429 90.3612 16.7516 90.5809 17.1532C90.8006 17.5509 90.9105 18.0679 90.9105 18.7043V24.4998H89.2514V23.3066H89.1832C89.0734 23.5263 88.9086 23.7422 88.6889 23.9543C88.4692 24.1664 88.187 24.3426 87.8423 24.4827C87.4976 24.6229 87.0847 24.6929 86.6037 24.6929ZM86.973 23.3293C87.4427 23.3293 87.8442 23.2365 88.1775 23.0509C88.5146 22.8653 88.7703 22.6229 88.9446 22.3236C89.1226 22.0206 89.2116 21.6967 89.2116 21.352V20.227C89.151 20.2876 89.0336 20.3444 88.8593 20.3975C88.6889 20.4467 88.4938 20.4903 88.2741 20.5282C88.0544 20.5623 87.8404 20.5944 87.6321 20.6248C87.4237 20.6513 87.2495 20.674 87.1093 20.6929C86.7798 20.7346 86.4787 20.8047 86.2059 20.9032C85.937 21.0016 85.7211 21.1437 85.5582 21.3293C85.3991 21.5111 85.3196 21.7535 85.3196 22.0566C85.3196 22.477 85.4749 22.7952 85.7855 23.0111C86.0961 23.2232 86.4919 23.3293 86.973 23.3293ZM93.1733 24.4998V15.7725H94.8721V24.4998H93.1733ZM94.0312 14.4259C93.7358 14.4259 93.482 14.3274 93.2698 14.1304C93.0615 13.9297 92.9573 13.691 92.9573 13.4145C92.9573 13.1342 93.0615 12.8956 93.2698 12.6986C93.482 12.4979 93.7358 12.3975 94.0312 12.3975C94.3267 12.3975 94.5786 12.4979 94.7869 12.6986C94.999 12.8956 95.1051 13.1342 95.1051 13.4145C95.1051 13.691 94.999 13.9297 94.7869 14.1304C94.5786 14.3274 94.3267 14.4259 94.0312 14.4259ZM98.8565 12.8634V24.4998H97.1576V12.8634H98.8565ZM103.682 24.6929C103.129 24.6929 102.629 24.5907 102.182 24.3861C101.735 24.1778 101.381 23.8766 101.119 23.4827C100.862 23.0888 100.733 22.6058 100.733 22.0338C100.733 21.5414 100.828 21.1361 101.017 20.8179C101.206 20.4998 101.462 20.2479 101.784 20.0623C102.106 19.8766 102.466 19.7365 102.864 19.6418C103.261 19.5471 103.667 19.4751 104.08 19.4259C104.602 19.3653 105.026 19.316 105.352 19.2782C105.678 19.2365 105.915 19.1702 106.062 19.0793C106.21 18.9884 106.284 18.8407 106.284 18.6361V18.5963C106.284 18.1001 106.144 17.7157 105.864 17.4429C105.587 17.1702 105.174 17.0338 104.625 17.0338C104.053 17.0338 103.602 17.1607 103.273 17.4145C102.947 17.6645 102.722 17.9429 102.597 18.2498L101 17.8861C101.189 17.3558 101.466 16.9278 101.83 16.602C102.197 16.2725 102.619 16.0338 103.097 15.8861C103.574 15.7346 104.076 15.6588 104.602 15.6588C104.951 15.6588 105.32 15.7005 105.71 15.7838C106.104 15.8634 106.472 16.0111 106.812 16.227C107.157 16.4429 107.439 16.7516 107.659 17.1532C107.879 17.5509 107.989 18.0679 107.989 18.7043V24.4998H106.33V23.3066H106.261C106.151 23.5263 105.987 23.7422 105.767 23.9543C105.547 24.1664 105.265 24.3426 104.92 24.4827C104.576 24.6229 104.163 24.6929 103.682 24.6929ZM104.051 23.3293C104.521 23.3293 104.922 23.2365 105.256 23.0509C105.593 22.8653 105.848 22.6229 106.023 22.3236C106.201 22.0206 106.29 21.6967 106.29 21.352V20.227C106.229 20.2876 106.112 20.3444 105.937 20.3975C105.767 20.4467 105.572 20.4903 105.352 20.5282C105.133 20.5623 104.919 20.5944 104.71 20.6248C104.502 20.6513 104.328 20.674 104.187 20.6929C103.858 20.7346 103.557 20.8047 103.284 20.9032C103.015 21.0016 102.799 21.1437 102.636 21.3293C102.477 21.5111 102.398 21.7535 102.398 22.0566C102.398 22.477 102.553 22.7952 102.864 23.0111C103.174 23.2232 103.57 23.3293 104.051 23.3293ZM110.388 24.4998V12.8634H112.087V17.1873H112.189C112.287 17.0054 112.429 16.7952 112.615 16.5566C112.801 16.3179 113.058 16.1096 113.388 15.9316C113.717 15.7498 114.153 15.6588 114.695 15.6588C115.399 15.6588 116.028 15.8369 116.581 16.1929C117.134 16.549 117.568 17.0623 117.882 17.7327C118.2 18.4032 118.359 19.21 118.359 20.1532C118.359 21.0963 118.202 21.9051 117.888 22.5793C117.573 23.2498 117.142 23.7668 116.592 24.1304C116.043 24.4903 115.416 24.6702 114.712 24.6702C114.181 24.6702 113.748 24.5812 113.41 24.4032C113.077 24.2251 112.816 24.0168 112.626 23.7782C112.437 23.5395 112.291 23.3274 112.189 23.1418H112.047V24.4998H110.388ZM112.053 20.1361C112.053 20.7498 112.142 21.2876 112.32 21.7498C112.498 22.2119 112.755 22.5736 113.092 22.835C113.429 23.0926 113.842 23.2213 114.331 23.2213C114.838 23.2213 115.263 23.0869 115.604 22.8179C115.945 22.5452 116.202 22.1759 116.376 21.71C116.554 21.2441 116.643 20.7194 116.643 20.1361C116.643 19.5604 116.556 19.0433 116.382 18.585C116.212 18.1266 115.954 17.7649 115.609 17.4998C115.268 17.2346 114.842 17.102 114.331 17.102C113.838 17.102 113.422 17.2289 113.081 17.4827C112.744 17.7365 112.488 18.0907 112.314 18.5452C112.14 18.9998 112.053 19.5301 112.053 20.1361ZM121.966 12.8634V24.4998H120.267V12.8634H121.966ZM128.013 24.6759C127.153 24.6759 126.412 24.4922 125.791 24.1248C125.174 23.7535 124.696 23.2327 124.359 22.5623C124.026 21.888 123.859 21.0982 123.859 20.1929C123.859 19.299 124.026 18.5111 124.359 17.8293C124.696 17.1475 125.166 16.6153 125.768 16.2327C126.374 15.8501 127.083 15.6588 127.893 15.6588C128.386 15.6588 128.863 15.7403 129.325 15.9032C129.787 16.066 130.202 16.3217 130.57 16.6702C130.937 17.0187 131.227 17.4713 131.439 18.0282C131.651 18.5812 131.757 19.2535 131.757 20.0452V20.6475H124.82V19.3748H130.092C130.092 18.9278 130.001 18.532 129.82 18.1873C129.638 17.8388 129.382 17.5641 129.053 17.3634C128.727 17.1626 128.344 17.0623 127.905 17.0623C127.428 17.0623 127.011 17.1797 126.655 17.4145C126.303 17.6456 126.03 17.9486 125.837 18.3236C125.647 18.6948 125.553 19.0982 125.553 19.5338V20.5282C125.553 21.1115 125.655 21.6077 125.859 22.0168C126.068 22.4259 126.357 22.7384 126.729 22.9543C127.1 23.1664 127.534 23.2725 128.03 23.2725C128.352 23.2725 128.645 23.227 128.91 23.1361C129.176 23.0414 129.405 22.9013 129.598 22.7157C129.791 22.5301 129.939 22.3009 130.041 22.0282L131.649 22.3179C131.52 22.7914 131.289 23.2062 130.956 23.5623C130.626 23.9145 130.212 24.1891 129.712 24.3861C129.215 24.5793 128.649 24.6759 128.013 24.6759ZM141.553 24.6759C140.734 24.6759 140.02 24.4884 139.41 24.1134C138.801 23.7384 138.327 23.2138 137.99 22.5395C137.653 21.8653 137.484 21.0774 137.484 20.1759C137.484 19.2706 137.653 18.4789 137.99 17.8009C138.327 17.1229 138.801 16.5963 139.41 16.2213C140.02 15.8463 140.734 15.6588 141.553 15.6588C142.371 15.6588 143.085 15.8463 143.695 16.2213C144.304 16.5963 144.778 17.1229 145.115 17.8009C145.452 18.4789 145.621 19.2706 145.621 20.1759C145.621 21.0774 145.452 21.8653 145.115 22.5395C144.778 23.2138 144.304 23.7384 143.695 24.1134C143.085 24.4884 142.371 24.6759 141.553 24.6759ZM141.558 23.2498C142.088 23.2498 142.528 23.1096 142.876 22.8293C143.225 22.549 143.482 22.1759 143.649 21.71C143.82 21.2441 143.905 20.7308 143.905 20.1702C143.905 19.6134 143.82 19.102 143.649 18.6361C143.482 18.1664 143.225 17.7895 142.876 17.5054C142.528 17.2213 142.088 17.0793 141.558 17.0793C141.024 17.0793 140.581 17.2213 140.229 17.5054C139.88 17.7895 139.621 18.1664 139.45 18.6361C139.284 19.102 139.2 19.6134 139.2 20.1702C139.2 20.7308 139.284 21.2441 139.45 21.71C139.621 22.1759 139.88 22.549 140.229 22.8293C140.581 23.1096 141.024 23.2498 141.558 23.2498ZM149.216 19.3179V24.4998H147.517V15.7725H149.148V17.1929H149.256C149.456 16.7308 149.771 16.3596 150.199 16.0793C150.631 15.799 151.174 15.6588 151.829 15.6588C152.424 15.6588 152.945 15.7838 153.392 16.0338C153.839 16.2801 154.186 16.6475 154.432 17.1361C154.678 17.6248 154.801 18.2289 154.801 18.9486V24.4998H153.102V19.1532C153.102 18.5206 152.937 18.0263 152.608 17.6702C152.278 17.3104 151.826 17.1304 151.25 17.1304C150.856 17.1304 150.506 17.2157 150.199 17.3861C149.896 17.5566 149.655 17.8066 149.477 18.1361C149.303 18.4619 149.216 18.8558 149.216 19.3179Z" fill="#E8E8E8"/>
<path d="M71.6186 34.8428C71.5783 34.4001 71.3992 34.056 71.0813 33.8105C70.7674 33.561 70.3186 33.4362 69.7351 33.4362C69.3487 33.4362 69.0267 33.4865 68.7691 33.5871C68.5116 33.6877 68.3184 33.8266 68.1896 34.0037C68.0608 34.1767 67.9944 34.3759 67.9904 34.6013C67.9823 34.7864 68.0186 34.9494 68.099 35.0903C68.1836 35.2312 68.3043 35.3559 68.4613 35.4646C68.6222 35.5692 68.8154 35.6618 69.0408 35.7423C69.2662 35.8228 69.5197 35.8932 69.8015 35.9536L70.864 36.1951C71.4757 36.3279 72.015 36.505 72.4819 36.7263C72.9527 36.9477 73.3471 37.2113 73.6651 37.5172C73.9871 37.823 74.2306 38.1752 74.3956 38.5736C74.5606 38.9721 74.6451 39.4188 74.6491 39.9138C74.6451 40.6946 74.4479 41.3647 74.0575 41.9241C73.6671 42.4835 73.1057 42.9122 72.3732 43.21C71.6447 43.5078 70.7654 43.6567 69.7351 43.6567C68.7007 43.6567 67.7992 43.5018 67.0305 43.1919C66.2618 42.882 65.6641 42.4111 65.2375 41.7792C64.8109 41.1474 64.5916 40.3485 64.5795 39.3826H67.441C67.4652 39.781 67.5718 40.113 67.761 40.3787C67.9501 40.6443 68.2097 40.8455 68.5397 40.9824C68.8738 41.1192 69.2601 41.1876 69.6988 41.1876C70.1013 41.1876 70.4434 41.1333 70.7251 41.0246C71.0109 40.9159 71.2302 40.765 71.3831 40.5718C71.5361 40.3787 71.6146 40.1573 71.6186 39.9078C71.6146 39.6743 71.5421 39.4751 71.4012 39.3101C71.2604 39.1411 71.0431 38.9962 70.7493 38.8755C70.4595 38.7507 70.0892 38.636 69.6385 38.5314L68.3466 38.2295C67.276 37.984 66.4329 37.5876 65.8171 37.0402C65.2013 36.4889 64.8954 35.7443 64.8995 34.8066C64.8954 34.0419 65.1007 33.3718 65.5152 32.7963C65.9298 32.2208 66.5033 31.772 67.2358 31.45C67.9682 31.1281 68.8034 30.9671 69.7411 30.9671C70.6989 30.9671 71.53 31.1301 72.2343 31.4561C72.9427 31.778 73.492 32.2308 73.8824 32.8144C74.2728 33.398 74.472 34.0741 74.4801 34.8428H71.6186ZM76.1583 46.977V34.227H79.0802V35.8147H79.1708C79.2915 35.533 79.4626 35.2614 79.6839 34.9998C79.9093 34.7382 80.195 34.5248 80.5412 34.3598C80.8913 34.1908 81.3099 34.1063 81.7968 34.1063C82.4408 34.1063 83.0425 34.2753 83.6019 34.6134C84.1653 34.9515 84.6201 35.4726 84.9662 36.177C85.3123 36.8813 85.4854 37.7788 85.4854 38.8694C85.4854 39.9199 85.3184 40.7992 84.9843 41.5076C84.6543 42.2159 84.2076 42.7471 83.6441 43.1013C83.0847 43.4555 82.4629 43.6326 81.7787 43.6326C81.3119 43.6326 80.9074 43.5561 80.5653 43.4032C80.2232 43.2502 79.9355 43.049 79.702 42.7995C79.4726 42.5499 79.2955 42.2823 79.1708 41.9966H79.1104V46.977H76.1583ZM79.05 38.8634C79.05 39.3624 79.1164 39.7971 79.2493 40.1674C79.3861 40.5376 79.5813 40.8254 79.8348 41.0306C80.0924 41.2319 80.4003 41.3325 80.7585 41.3325C81.1207 41.3325 81.4286 41.2319 81.6821 41.0306C81.9357 40.8254 82.1269 40.5376 82.2556 40.1674C82.3885 39.7971 82.4549 39.3624 82.4549 38.8634C82.4549 38.3643 82.3885 37.9317 82.2556 37.5654C82.1269 37.1992 81.9357 36.9155 81.6821 36.7142C81.4326 36.513 81.1247 36.4124 80.7585 36.4124C80.3963 36.4124 80.0884 36.511 79.8348 36.7082C79.5813 36.9054 79.3861 37.1871 79.2493 37.5534C79.1164 37.9196 79.05 38.3563 79.05 38.8634ZM91.3608 43.6748C90.3869 43.6748 89.5498 43.4756 88.8495 43.0772C88.1532 42.6747 87.6159 42.1153 87.2376 41.3989C86.8633 40.6785 86.6762 39.8434 86.6762 38.8936C86.6762 37.9397 86.8633 37.1046 87.2376 36.3882C87.6159 35.6678 88.1532 35.1084 88.8495 34.71C89.5498 34.3075 90.3869 34.1063 91.3608 34.1063C92.3348 34.1063 93.1699 34.3075 93.8662 34.71C94.5665 35.1084 95.1037 35.6678 95.478 36.3882C95.8563 37.1046 96.0455 37.9397 96.0455 38.8936C96.0455 39.8434 95.8563 40.6785 95.478 41.3989C95.1037 42.1153 94.5665 42.6747 93.8662 43.0772C93.1699 43.4756 92.3348 43.6748 91.3608 43.6748ZM91.379 41.4472C91.7331 41.4472 92.033 41.3385 92.2785 41.1212C92.524 40.9039 92.7111 40.602 92.8399 40.2157C92.9727 39.8293 93.0391 39.3826 93.0391 38.8755C93.0391 38.3603 92.9727 37.9096 92.8399 37.5232C92.7111 37.1368 92.524 36.835 92.2785 36.6177C92.033 36.4003 91.7331 36.2917 91.379 36.2917C91.0127 36.2917 90.7028 36.4003 90.4493 36.6177C90.1997 36.835 90.0086 37.1368 89.8758 37.5232C89.747 37.9096 89.6826 38.3603 89.6826 38.8755C89.6826 39.3826 89.747 39.8293 89.8758 40.2157C90.0086 40.602 90.1997 40.9039 90.4493 41.1212C90.7028 41.3385 91.0127 41.4472 91.379 41.4472ZM102.792 34.227V36.4003H96.942V34.227H102.792ZM98.1675 32.0054H101.12V40.5839C101.12 40.765 101.148 40.9119 101.204 41.0246C101.264 41.1333 101.351 41.2118 101.464 41.2601C101.576 41.3043 101.711 41.3265 101.868 41.3265C101.981 41.3265 102.1 41.3164 102.224 41.2963C102.353 41.2721 102.45 41.252 102.514 41.2359L102.961 43.3669C102.82 43.4072 102.621 43.4575 102.363 43.5179C102.11 43.5782 101.806 43.6165 101.452 43.6326C100.759 43.6648 100.166 43.5843 99.6707 43.3911C99.1797 43.1939 98.8034 42.888 98.5418 42.4735C98.2842 42.0589 98.1594 41.5377 98.1675 40.9099V32.0054ZM104.298 43.4998V34.227H107.25V43.4998H104.298ZM105.777 33.1464C105.362 33.1464 105.006 33.0096 104.708 32.7359C104.411 32.4582 104.262 32.1242 104.262 31.7338C104.262 31.3474 104.411 31.0174 104.708 30.7437C105.006 30.466 105.362 30.3272 105.777 30.3272C106.196 30.3272 106.552 30.466 106.846 30.7437C107.143 31.0174 107.292 31.3474 107.292 31.7338C107.292 32.1242 107.143 32.4582 106.846 32.7359C106.552 33.0096 106.196 33.1464 105.777 33.1464ZM114.399 34.227V36.4003H108.435V34.227H114.399ZM109.678 43.4998V33.7561C109.678 33.0398 109.813 32.4461 110.083 31.9753C110.353 31.5003 110.727 31.1462 111.206 30.9128C111.685 30.6753 112.238 30.5566 112.866 30.5566C113.276 30.5566 113.663 30.5888 114.025 30.6532C114.391 30.7135 114.663 30.7679 114.84 30.8162L114.369 32.9774C114.26 32.9412 114.128 32.911 113.971 32.8868C113.818 32.8627 113.673 32.8506 113.536 32.8506C113.19 32.8506 112.952 32.9271 112.824 33.08C112.695 33.2329 112.63 33.4422 112.63 33.7079V43.4998H109.678ZM117.625 46.977C117.27 46.977 116.936 46.9489 116.622 46.8925C116.308 46.8402 116.039 46.7698 115.813 46.6812L116.465 44.5381C116.755 44.6347 117.017 44.691 117.25 44.7071C117.488 44.7232 117.691 44.685 117.86 44.5924C118.033 44.5039 118.166 44.3449 118.258 44.1155L118.373 43.8378L115.077 34.227H118.168L119.876 40.8435H119.973L121.705 34.227H124.814L121.319 44.3872C121.15 44.8943 120.911 45.341 120.601 45.7274C120.295 46.1178 119.898 46.4236 119.411 46.645C118.928 46.8663 118.333 46.977 117.625 46.977Z" fill="#1ED760"/>
</g>
<rect x="1.05" y="1.04976" width="165.9" height="53.9" rx="6.95" stroke="white" stroke-opacity="0.15" stroke-width="2.1"/>
<defs>
<filter id="filter0_d_1_2" x="6.28571" y="2.28547" width="51.4286" height="51.4286" filterUnits="userSpaceOnUse" color-interpolation-filters="sRGB">
<feFlood flood-opacity="0" result="BackgroundImageFix"/>
<feColorMatrix in="SourceAlpha" type="matrix" values="0 0 0 0 0 0 0 0 0 0 0 0 0 0 0 0 0 0 127 0" result="hardAlpha"/>
<feOffset/>
<feGaussianBlur stdDeviation="2.85714"/>
<feComposite in2="hardAlpha" operator="out"/>
<feColorMatrix type="matrix" values="0 0 0 0 0 0 0 0 0 0 0 0 0 0 0 0 0 0 0.25 0"/>
<feBlend mode="normal" in2="BackgroundImageFix" result="effect1_dropShadow_1_2"/>
<feBlend mode="normal" in="SourceGraphic" in2="effect1_dropShadow_1_2" result="shape"/>
</filter>
<filter id="filter1_d_1_2" x="58.4" y="3.89976" width="103.2" height="48.6773" filterUnits="userSpaceOnUse" color-interpolation-filters="sRGB">
<feFlood flood-opacity="0" result="BackgroundImageFix"/>
<feColorMatrix in="SourceAlpha" type="matrix" values="0 0 0 0 0 0 0 0 0 0 0 0 0 0 0 0 0 0 127 0" result="hardAlpha"/>
<feOffset/>
<feGaussianBlur stdDeviation="2.8"/>
<feComposite in2="hardAlpha" operator="out"/>
<feColorMatrix type="matrix" values="0 0 0 0 0 0 0 0 0 0 0 0 0 0 0 0 0 0 0.25 0"/>
<feBlend mode="normal" in2="BackgroundImageFix" result="effect1_dropShadow_1_2"/>
<feBlend mode="normal" in="SourceGraphic" in2="effect1_dropShadow_1_2" result="shape"/>
</filter>
<linearGradient id="paint0_linear_1_2" x1="84" y1="-0.000244141" x2="84" y2="55.9997" gradientUnits="userSpaceOnUse">
<stop stop-color="#073417"/>
<stop offset="1" stop-color="#041F0E"/>
</linearGradient>
</defs>
</svg>
