<svg width="164" height="56" viewBox="0 0 164 56" fill="none" xmlns="http://www.w3.org/2000/svg">
<rect y="-0.000244141" width="164" height="56" rx="8" fill="url(#paint0_linear_1_2)"/>
<g filter="url(#filter0_d_1_2)">
<path d="M31.9999 7.99976C20.9545 7.99976 12 16.9542 12 27.9999C12 39.046 20.9545 47.9998 31.9999 47.9998C43.0465 47.9998 52 39.046 52 27.9999C52 16.9549 43.0465 8.00071 31.9996 8.00071L31.9999 7.99976ZM41.1717 36.8457C40.8135 37.4332 40.0444 37.6195 39.4569 37.2588C34.7612 34.3905 28.8498 33.7409 21.8881 35.3315C21.2172 35.4843 20.5485 35.064 20.3956 34.3929C20.2421 33.7218 20.6607 33.053 21.3333 32.9002C28.9518 31.1596 35.4867 31.909 40.7585 35.1309C41.346 35.4915 41.5323 36.2581 41.1717 36.8457ZM43.6196 31.3999C43.1683 32.1335 42.2082 32.3652 41.475 31.9138C36.0991 28.6094 27.9043 27.6524 21.5456 29.5826C20.7209 29.8317 19.8499 29.3669 19.5996 28.5437C19.3513 27.719 19.8162 26.8497 20.6395 26.5989C27.9028 24.395 36.9326 25.4625 43.1062 29.2564C43.8394 29.7078 44.071 30.6676 43.6196 31.3999ZM43.8298 25.7291C37.3839 21.9004 26.7491 21.5484 20.5948 23.4162C19.6066 23.716 18.5615 23.1581 18.262 22.1698C17.9625 21.181 18.5199 20.1366 19.5089 19.8362C26.5735 17.6915 38.3177 18.1059 45.739 22.5116C46.6298 23.0391 46.9212 24.1872 46.3934 25.0749C45.8679 25.9638 44.7168 26.2569 43.8308 25.7291H43.8298Z" fill="#1ED760"/>
</g>
<g filter="url(#filter1_d_1_2)">
<path d="M62.2613 24.4998H60.3977L64.5852 12.8634H66.6136L70.8011 24.4998H68.9375L65.6477 14.977H65.5568L62.2613 24.4998ZM62.5738 19.9429H68.6193V21.4202H62.5738V19.9429ZM78.7173 15.7725L75.5525 24.4998H73.7343L70.5639 15.7725H72.3878L74.598 22.4884H74.6889L76.8934 15.7725H78.7173ZM82.6037 24.6929C82.0506 24.6929 81.5506 24.5907 81.1037 24.3861C80.6567 24.1778 80.3025 23.8766 80.0412 23.4827C79.7836 23.0888 79.6548 22.6058 79.6548 22.0338C79.6548 21.5414 79.7495 21.1361 79.9389 20.8179C80.1283 20.4998 80.384 20.2479 80.7059 20.0623C81.0279 19.8766 81.3877 19.7365 81.7855 19.6418C82.1832 19.5471 82.5885 19.4751 83.0014 19.4259C83.5241 19.3653 83.9484 19.316 84.2741 19.2782C84.5999 19.2365 84.8366 19.1702 84.9843 19.0793C85.1321 18.9884 85.2059 18.8407 85.2059 18.6361V18.5963C85.2059 18.1001 85.0658 17.7157 84.7855 17.4429C84.509 17.1702 84.0961 17.0338 83.5468 17.0338C82.9749 17.0338 82.5241 17.1607 82.1946 17.4145C81.8688 17.6645 81.6434 17.9429 81.5184 18.2498L79.9218 17.8861C80.1112 17.3558 80.3877 16.9278 80.7514 16.602C81.1188 16.2725 81.5412 16.0338 82.0184 15.8861C82.4957 15.7346 82.9976 15.6588 83.5241 15.6588C83.8726 15.6588 84.2419 15.7005 84.6321 15.7838C85.026 15.8634 85.3934 16.0111 85.7343 16.227C86.079 16.4429 86.3612 16.7516 86.5809 17.1532C86.8006 17.5509 86.9105 18.0679 86.9105 18.7043V24.4998H85.2514V23.3066H85.1832C85.0734 23.5263 84.9086 23.7422 84.6889 23.9543C84.4692 24.1664 84.187 24.3426 83.8423 24.4827C83.4976 24.6229 83.0847 24.6929 82.6037 24.6929ZM82.973 23.3293C83.4427 23.3293 83.8442 23.2365 84.1775 23.0509C84.5146 22.8653 84.7703 22.6229 84.9446 22.3236C85.1226 22.0206 85.2116 21.6967 85.2116 21.352V20.227C85.151 20.2876 85.0336 20.3444 84.8593 20.3975C84.6889 20.4467 84.4938 20.4903 84.2741 20.5282C84.0544 20.5623 83.8404 20.5944 83.6321 20.6248C83.4237 20.6513 83.2495 20.674 83.1093 20.6929C82.7798 20.7346 82.4787 20.8047 82.2059 20.9032C81.937 21.0016 81.7211 21.1437 81.5582 21.3293C81.3991 21.5111 81.3196 21.7535 81.3196 22.0566C81.3196 22.477 81.4749 22.7952 81.7855 23.0111C82.0961 23.2232 82.4919 23.3293 82.973 23.3293ZM89.1733 24.4998V15.7725H90.8721V24.4998H89.1733ZM90.0312 14.4259C89.7358 14.4259 89.482 14.3274 89.2698 14.1304C89.0615 13.9297 88.9573 13.691 88.9573 13.4145C88.9573 13.1342 89.0615 12.8956 89.2698 12.6986C89.482 12.4979 89.7358 12.3975 90.0312 12.3975C90.3267 12.3975 90.5786 12.4979 90.7869 12.6986C90.999 12.8956 91.1051 13.1342 91.1051 13.4145C91.1051 13.691 90.999 13.9297 90.7869 14.1304C90.5786 14.3274 90.3267 14.4259 90.0312 14.4259ZM94.8565 12.8634V24.4998H93.1576V12.8634H94.8565ZM99.6818 24.6929C99.1287 24.6929 98.6287 24.5907 98.1818 24.3861C97.7348 24.1778 97.3806 23.8766 97.1193 23.4827C96.8617 23.0888 96.7329 22.6058 96.7329 22.0338C96.7329 21.5414 96.8276 21.1361 97.017 20.8179C97.2064 20.4998 97.4621 20.2479 97.784 20.0623C98.106 19.8766 98.4659 19.7365 98.8636 19.6418C99.2613 19.5471 99.6666 19.4751 100.08 19.4259C100.602 19.3653 101.026 19.316 101.352 19.2782C101.678 19.2365 101.915 19.1702 102.062 19.0793C102.21 18.9884 102.284 18.8407 102.284 18.6361V18.5963C102.284 18.1001 102.144 17.7157 101.864 17.4429C101.587 17.1702 101.174 17.0338 100.625 17.0338C100.053 17.0338 99.6022 17.1607 99.2727 17.4145C98.9469 17.6645 98.7215 17.9429 98.5965 18.2498L97 17.8861C97.1894 17.3558 97.4659 16.9278 97.8295 16.602C98.1969 16.2725 98.6193 16.0338 99.0965 15.8861C99.5738 15.7346 100.076 15.6588 100.602 15.6588C100.951 15.6588 101.32 15.7005 101.71 15.7838C102.104 15.8634 102.472 16.0111 102.812 16.227C103.157 16.4429 103.439 16.7516 103.659 17.1532C103.879 17.5509 103.989 18.0679 103.989 18.7043V24.4998H102.33V23.3066H102.261C102.151 23.5263 101.987 23.7422 101.767 23.9543C101.547 24.1664 101.265 24.3426 100.92 24.4827C100.576 24.6229 100.163 24.6929 99.6818 24.6929ZM100.051 23.3293C100.521 23.3293 100.922 23.2365 101.256 23.0509C101.593 22.8653 101.848 22.6229 102.023 22.3236C102.201 22.0206 102.29 21.6967 102.29 21.352V20.227C102.229 20.2876 102.112 20.3444 101.937 20.3975C101.767 20.4467 101.572 20.4903 101.352 20.5282C101.133 20.5623 100.919 20.5944 100.71 20.6248C100.502 20.6513 100.328 20.674 100.187 20.6929C99.8579 20.7346 99.5568 20.8047 99.284 20.9032C99.0151 21.0016 98.7992 21.1437 98.6363 21.3293C98.4772 21.5111 98.3977 21.7535 98.3977 22.0566C98.3977 22.477 98.553 22.7952 98.8636 23.0111C99.1742 23.2232 99.57 23.3293 100.051 23.3293ZM106.388 24.4998V12.8634H108.087V17.1873H108.189C108.287 17.0054 108.429 16.7952 108.615 16.5566C108.801 16.3179 109.058 16.1096 109.388 15.9316C109.717 15.7498 110.153 15.6588 110.695 15.6588C111.399 15.6588 112.028 15.8369 112.581 16.1929C113.134 16.549 113.568 17.0623 113.882 17.7327C114.2 18.4032 114.359 19.21 114.359 20.1532C114.359 21.0963 114.202 21.9051 113.888 22.5793C113.573 23.2498 113.142 23.7668 112.592 24.1304C112.043 24.4903 111.416 24.6702 110.712 24.6702C110.181 24.6702 109.748 24.5812 109.41 24.4032C109.077 24.2251 108.816 24.0168 108.626 23.7782C108.437 23.5395 108.291 23.3274 108.189 23.1418H108.047V24.4998H106.388ZM108.053 20.1361C108.053 20.7498 108.142 21.2876 108.32 21.7498C108.498 22.2119 108.755 22.5736 109.092 22.835C109.429 23.0926 109.842 23.2213 110.331 23.2213C110.838 23.2213 111.263 23.0869 111.604 22.8179C111.945 22.5452 112.202 22.1759 112.376 21.71C112.554 21.2441 112.643 20.7194 112.643 20.1361C112.643 19.5604 112.556 19.0433 112.382 18.585C112.212 18.1266 111.954 17.7649 111.609 17.4998C111.268 17.2346 110.842 17.102 110.331 17.102C109.838 17.102 109.422 17.2289 109.081 17.4827C108.744 17.7365 108.488 18.0907 108.314 18.5452C108.14 18.9998 108.053 19.5301 108.053 20.1361ZM117.966 12.8634V24.4998H116.267V12.8634H117.966ZM124.013 24.6759C123.153 24.6759 122.412 24.4922 121.791 24.1248C121.174 23.7535 120.696 23.2327 120.359 22.5623C120.026 21.888 119.859 21.0982 119.859 20.1929C119.859 19.299 120.026 18.5111 120.359 17.8293C120.696 17.1475 121.166 16.6153 121.768 16.2327C122.374 15.8501 123.083 15.6588 123.893 15.6588C124.386 15.6588 124.863 15.7403 125.325 15.9032C125.787 16.066 126.202 16.3217 126.57 16.6702C126.937 17.0187 127.227 17.4713 127.439 18.0282C127.651 18.5812 127.757 19.2535 127.757 20.0452V20.6475H120.82V19.3748H126.092C126.092 18.9278 126.001 18.532 125.82 18.1873C125.638 17.8388 125.382 17.5641 125.053 17.3634C124.727 17.1626 124.344 17.0623 123.905 17.0623C123.428 17.0623 123.011 17.1797 122.655 17.4145C122.303 17.6456 122.03 17.9486 121.837 18.3236C121.647 18.6948 121.553 19.0982 121.553 19.5338V20.5282C121.553 21.1115 121.655 21.6077 121.859 22.0168C122.068 22.4259 122.357 22.7384 122.729 22.9543C123.1 23.1664 123.534 23.2725 124.03 23.2725C124.352 23.2725 124.645 23.227 124.91 23.1361C125.176 23.0414 125.405 22.9013 125.598 22.7157C125.791 22.5301 125.939 22.3009 126.041 22.0282L127.649 22.3179C127.52 22.7914 127.289 23.2062 126.956 23.5623C126.626 23.9145 126.212 24.1891 125.712 24.3861C125.215 24.5793 124.649 24.6759 124.013 24.6759ZM137.553 24.6759C136.734 24.6759 136.02 24.4884 135.41 24.1134C134.801 23.7384 134.327 23.2138 133.99 22.5395C133.653 21.8653 133.484 21.0774 133.484 20.1759C133.484 19.2706 133.653 18.4789 133.99 17.8009C134.327 17.1229 134.801 16.5963 135.41 16.2213C136.02 15.8463 136.734 15.6588 137.553 15.6588C138.371 15.6588 139.085 15.8463 139.695 16.2213C140.304 16.5963 140.778 17.1229 141.115 17.8009C141.452 18.4789 141.621 19.2706 141.621 20.1759C141.621 21.0774 141.452 21.8653 141.115 22.5395C140.778 23.2138 140.304 23.7384 139.695 24.1134C139.085 24.4884 138.371 24.6759 137.553 24.6759ZM137.558 23.2498C138.088 23.2498 138.528 23.1096 138.876 22.8293C139.225 22.549 139.482 22.1759 139.649 21.71C139.82 21.2441 139.905 20.7308 139.905 20.1702C139.905 19.6134 139.82 19.102 139.649 18.6361C139.482 18.1664 139.225 17.7895 138.876 17.5054C138.528 17.2213 138.088 17.0793 137.558 17.0793C137.024 17.0793 136.581 17.2213 136.229 17.5054C135.88 17.7895 135.621 18.1664 135.45 18.6361C135.284 19.102 135.2 19.6134 135.2 20.1702C135.2 20.7308 135.284 21.2441 135.45 21.71C135.621 22.1759 135.88 22.549 136.229 22.8293C136.581 23.1096 137.024 23.2498 137.558 23.2498ZM145.216 19.3179V24.4998H143.517V15.7725H145.148V17.1929H145.256C145.456 16.7308 145.771 16.3596 146.199 16.0793C146.631 15.799 147.174 15.6588 147.829 15.6588C148.424 15.6588 148.945 15.7838 149.392 16.0338C149.839 16.2801 150.186 16.6475 150.432 17.1361C150.678 17.6248 150.801 18.2289 150.801 18.9486V24.4998H149.102V19.1532C149.102 18.5206 148.937 18.0263 148.608 17.6702C148.278 17.3104 147.826 17.1304 147.25 17.1304C146.856 17.1304 146.506 17.2157 146.199 17.3861C145.896 17.5566 145.655 17.8066 145.477 18.1361C145.303 18.4619 145.216 18.8558 145.216 19.3179Z" fill="#E8E8E8"/>
<path d="M67.6186 34.8428C67.5783 34.4001 67.3992 34.056 67.0813 33.8105C66.7674 33.561 66.3186 33.4362 65.7351 33.4362C65.3487 33.4362 65.0267 33.4865 64.7691 33.5871C64.5116 33.6877 64.3184 33.8266 64.1896 34.0037C64.0608 34.1767 63.9944 34.3759 63.9904 34.6013C63.9823 34.7864 64.0186 34.9494 64.099 35.0903C64.1836 35.2312 64.3043 35.3559 64.4613 35.4646C64.6222 35.5692 64.8154 35.6618 65.0408 35.7423C65.2662 35.8228 65.5197 35.8932 65.8015 35.9536L66.864 36.1951C67.4757 36.3279 68.015 36.505 68.4819 36.7263C68.9527 36.9477 69.3471 37.2113 69.6651 37.5172C69.9871 37.823 70.2306 38.1752 70.3956 38.5736C70.5606 38.9721 70.6451 39.4188 70.6491 39.9138C70.6451 40.6946 70.4479 41.3647 70.0575 41.9241C69.6671 42.4835 69.1057 42.9122 68.3732 43.21C67.6447 43.5078 66.7654 43.6567 65.7351 43.6567C64.7007 43.6567 63.7992 43.5018 63.0305 43.1919C62.2618 42.882 61.6641 42.4111 61.2375 41.7792C60.8109 41.1474 60.5916 40.3485 60.5795 39.3826H63.441C63.4652 39.781 63.5718 40.113 63.761 40.3787C63.9501 40.6443 64.2097 40.8455 64.5397 40.9824C64.8738 41.1192 65.2601 41.1876 65.6988 41.1876C66.1013 41.1876 66.4434 41.1333 66.7251 41.0246C67.0109 40.9159 67.2302 40.765 67.3831 40.5718C67.5361 40.3787 67.6146 40.1573 67.6186 39.9078C67.6146 39.6743 67.5421 39.4751 67.4012 39.3101C67.2604 39.1411 67.0431 38.9962 66.7493 38.8755C66.4595 38.7507 66.0892 38.636 65.6385 38.5314L64.3466 38.2295C63.276 37.984 62.4329 37.5876 61.8171 37.0402C61.2013 36.4889 60.8954 35.7443 60.8995 34.8066C60.8954 34.0419 61.1007 33.3718 61.5152 32.7963C61.9298 32.2208 62.5033 31.772 63.2358 31.45C63.9682 31.1281 64.8034 30.9671 65.7411 30.9671C66.6989 30.9671 67.53 31.1301 68.2343 31.4561C68.9427 31.778 69.492 32.2308 69.8824 32.8144C70.2728 33.398 70.472 34.0741 70.4801 34.8428H67.6186ZM72.1583 46.977V34.227H75.0802V35.8147H75.1708C75.2915 35.533 75.4626 35.2614 75.6839 34.9998C75.9093 34.7382 76.195 34.5248 76.5412 34.3598C76.8913 34.1908 77.3099 34.1063 77.7968 34.1063C78.4408 34.1063 79.0425 34.2753 79.6019 34.6134C80.1653 34.9515 80.6201 35.4726 80.9662 36.177C81.3123 36.8813 81.4854 37.7788 81.4854 38.8694C81.4854 39.9199 81.3184 40.7992 80.9843 41.5076C80.6543 42.2159 80.2076 42.7471 79.6441 43.1013C79.0847 43.4555 78.4629 43.6326 77.7787 43.6326C77.3119 43.6326 76.9074 43.5561 76.5653 43.4032C76.2232 43.2502 75.9355 43.049 75.702 42.7995C75.4726 42.5499 75.2955 42.2823 75.1708 41.9966H75.1104V46.977H72.1583ZM75.05 38.8634C75.05 39.3624 75.1164 39.7971 75.2493 40.1674C75.3861 40.5376 75.5813 40.8254 75.8348 41.0306C76.0924 41.2319 76.4003 41.3325 76.7585 41.3325C77.1207 41.3325 77.4286 41.2319 77.6821 41.0306C77.9357 40.8254 78.1269 40.5376 78.2556 40.1674C78.3885 39.7971 78.4549 39.3624 78.4549 38.8634C78.4549 38.3643 78.3885 37.9317 78.2556 37.5654C78.1269 37.1992 77.9357 36.9155 77.6821 36.7142C77.4326 36.513 77.1247 36.4124 76.7585 36.4124C76.3963 36.4124 76.0884 36.511 75.8348 36.7082C75.5813 36.9054 75.3861 37.1871 75.2493 37.5534C75.1164 37.9196 75.05 38.3563 75.05 38.8634ZM87.3608 43.6748C86.3869 43.6748 85.5498 43.4756 84.8495 43.0772C84.1532 42.6747 83.6159 42.1153 83.2376 41.3989C82.8633 40.6785 82.6762 39.8434 82.6762 38.8936C82.6762 37.9397 82.8633 37.1046 83.2376 36.3882C83.6159 35.6678 84.1532 35.1084 84.8495 34.71C85.5498 34.3075 86.3869 34.1063 87.3608 34.1063C88.3348 34.1063 89.1699 34.3075 89.8662 34.71C90.5665 35.1084 91.1037 35.6678 91.478 36.3882C91.8563 37.1046 92.0455 37.9397 92.0455 38.8936C92.0455 39.8434 91.8563 40.6785 91.478 41.3989C91.1037 42.1153 90.5665 42.6747 89.8662 43.0772C89.1699 43.4756 88.3348 43.6748 87.3608 43.6748ZM87.379 41.4472C87.7331 41.4472 88.033 41.3385 88.2785 41.1212C88.524 40.9039 88.7111 40.602 88.8399 40.2157C88.9727 39.8293 89.0391 39.3826 89.0391 38.8755C89.0391 38.3603 88.9727 37.9096 88.8399 37.5232C88.7111 37.1368 88.524 36.835 88.2785 36.6177C88.033 36.4003 87.7331 36.2917 87.379 36.2917C87.0127 36.2917 86.7028 36.4003 86.4493 36.6177C86.1997 36.835 86.0086 37.1368 85.8758 37.5232C85.747 37.9096 85.6826 38.3603 85.6826 38.8755C85.6826 39.3826 85.747 39.8293 85.8758 40.2157C86.0086 40.602 86.1997 40.9039 86.4493 41.1212C86.7028 41.3385 87.0127 41.4472 87.379 41.4472ZM98.7918 34.227V36.4003H92.942V34.227H98.7918ZM94.1675 32.0054H97.1195V40.5839C97.1195 40.765 97.1477 40.9119 97.2041 41.0246C97.2644 41.1333 97.351 41.2118 97.4636 41.2601C97.5763 41.3043 97.7112 41.3265 97.8681 41.3265C97.9808 41.3265 98.0995 41.3164 98.2243 41.2963C98.3531 41.2721 98.4497 41.252 98.5141 41.2359L98.9608 43.3669C98.8199 43.4072 98.6207 43.4575 98.3632 43.5179C98.1096 43.5782 97.8057 43.6165 97.4516 43.6326C96.7593 43.6648 96.1657 43.5843 95.6707 43.3911C95.1797 43.1939 94.8034 42.888 94.5418 42.4735C94.2842 42.0589 94.1594 41.5377 94.1675 40.9099V32.0054ZM100.298 43.4998V34.227H103.25V43.4998H100.298ZM101.777 33.1464C101.362 33.1464 101.006 33.0096 100.708 32.7359C100.411 32.4582 100.262 32.1242 100.262 31.7338C100.262 31.3474 100.411 31.0174 100.708 30.7437C101.006 30.466 101.362 30.3272 101.777 30.3272C102.196 30.3272 102.552 30.466 102.846 30.7437C103.143 31.0174 103.292 31.3474 103.292 31.7338C103.292 32.1242 103.143 32.4582 102.846 32.7359C102.552 33.0096 102.196 33.1464 101.777 33.1464ZM110.399 34.227V36.4003H104.435V34.227H110.399ZM105.678 43.4998V33.7561C105.678 33.0398 105.813 32.4461 106.083 31.9753C106.353 31.5003 106.727 31.1462 107.206 30.9128C107.685 30.6753 108.238 30.5566 108.866 30.5566C109.276 30.5566 109.663 30.5888 110.025 30.6532C110.391 30.7135 110.663 30.7679 110.84 30.8162L110.369 32.9774C110.26 32.9412 110.128 32.911 109.971 32.8868C109.818 32.8627 109.673 32.8506 109.536 32.8506C109.19 32.8506 108.952 32.9271 108.824 33.08C108.695 33.2329 108.63 33.4422 108.63 33.7079V43.4998H105.678ZM113.625 46.977C113.27 46.977 112.936 46.9489 112.622 46.8925C112.308 46.8402 112.039 46.7698 111.813 46.6812L112.465 44.5381C112.755 44.6347 113.017 44.691 113.25 44.7071C113.488 44.7232 113.691 44.685 113.86 44.5924C114.033 44.5039 114.166 44.3449 114.258 44.1155L114.373 43.8378L111.077 34.227H114.168L115.876 40.8435H115.973L117.705 34.227H120.814L117.319 44.3872C117.15 44.8943 116.911 45.341 116.601 45.7274C116.295 46.1178 115.898 46.4236 115.411 46.645C114.928 46.8663 114.333 46.977 113.625 46.977Z" fill="#1ED760"/>
</g>
<rect x="1.05" y="1.04976" width="161.9" height="53.9" rx="6.95" stroke="white" stroke-opacity="0.15" stroke-width="2.1"/>
<defs>
<filter id="filter0_d_1_2" x="6.28571" y="2.28547" width="51.4286" height="51.4286" filterUnits="userSpaceOnUse" color-interpolation-filters="sRGB">
<feFlood flood-opacity="0" result="BackgroundImageFix"/>
<feColorMatrix in="SourceAlpha" type="matrix" values="0 0 0 0 0 0 0 0 0 0 0 0 0 0 0 0 0 0 127 0" result="hardAlpha"/>
<feOffset/>
<feGaussianBlur stdDeviation="2.85714"/>
<feComposite in2="hardAlpha" operator="out"/>
<feColorMatrix type="matrix" values="0 0 0 0 0 0 0 0 0 0 0 0 0 0 0 0 0 0 0.25 0"/>
<feBlend mode="normal" in2="BackgroundImageFix" result="effect1_dropShadow_1_2"/>
<feBlend mode="normal" in="SourceGraphic" in2="effect1_dropShadow_1_2" result="shape"/>
</filter>
<filter id="filter1_d_1_2" x="54.4" y="3.89976" width="103.2" height="48.6773" filterUnits="userSpaceOnUse" color-interpolation-filters="sRGB">
<feFlood flood-opacity="0" result="BackgroundImageFix"/>
<feColorMatrix in="SourceAlpha" type="matrix" values="0 0 0 0 0 0 0 0 0 0 0 0 0 0 0 0 0 0 127 0" result="hardAlpha"/>
<feOffset/>
<feGaussianBlur stdDeviation="2.8"/>
<feComposite in2="hardAlpha" operator="out"/>
<feColorMatrix type="matrix" values="0 0 0 0 0 0 0 0 0 0 0 0 0 0 0 0 0 0 0.25 0"/>
<feBlend mode="normal" in2="BackgroundImageFix" result="effect1_dropShadow_1_2"/>
<feBlend mode="normal" in="SourceGraphic" in2="effect1_dropShadow_1_2" result="shape"/>
</filter>
<linearGradient id="paint0_linear_1_2" x1="82" y1="-0.000244141" x2="82" y2="55.9997" gradientUnits="userSpaceOnUse">
<stop stop-color="#073417"/>
<stop offset="1" stop-color="#041F0E"/>
</linearGradient>
</defs>
</svg>
