<svg width="164" height="56" viewBox="0 0 164 56" fill="none" xmlns="http://www.w3.org/2000/svg">
<rect y="-0.000183105" width="164" height="56" rx="8" fill="url(#paint0_linear_28_581)"/>
<g filter="url(#filter0_d_28_581)">
<path d="M12.8159 33.7511C15.2887 41.9911 22.9368 47.9998 31.9869 47.9998C43.0397 47.9998 51.9998 39.0454 51.9998 27.9998C51.9998 16.9542 43.0397 7.99982 31.9869 7.99982C21.3814 7.99982 12.7027 16.2454 12.0172 26.6711C13.3143 28.8442 13.8178 30.1886 12.8146 33.7511H12.8159Z" fill="url(#paint1_linear_28_581)"/>
<path d="M30.956 22.9905L30.9579 23.0892L26.061 30.1986C25.2679 30.1623 24.4724 30.3017 23.7169 30.6123C23.3881 30.7459 23.0741 30.9135 22.7801 31.1123L12.0263 26.683C12.0263 26.683 11.7774 30.7742 12.8143 33.823L20.4167 36.958C20.7919 38.663 21.9677 40.158 23.6951 40.8767C25.054 41.441 26.5815 41.4432 27.9421 40.8828C29.3027 40.3224 30.3851 39.2453 30.9516 37.888C31.2538 37.165 31.3996 36.3863 31.3794 35.603L38.3795 30.5998L38.5515 30.603C42.7448 30.603 46.1532 27.1867 46.1532 22.9905C46.1532 18.7942 42.7511 15.3905 38.5515 15.3817C34.36 15.3817 30.9497 18.7942 30.9497 22.9905H30.956ZM29.7802 37.3967C28.8709 39.5842 26.3618 40.6136 24.181 39.7055C23.2133 39.299 22.4289 38.5511 21.9771 37.6042L24.4518 38.6292C24.8341 38.7882 25.244 38.8704 25.6581 38.8711C26.0722 38.8717 26.4823 38.7909 26.8651 38.633C27.2479 38.4752 27.5959 38.2436 27.889 37.9513C28.1822 37.6591 28.4149 37.312 28.5738 36.9298C28.8956 36.1577 28.8975 35.2895 28.5791 34.5159C28.2607 33.7423 27.6481 33.1267 26.8759 32.8042L24.3117 31.7448C25.2986 31.3698 26.4206 31.3573 27.47 31.793C28.5332 32.2323 29.3462 33.0598 29.7815 34.118C30.2167 35.1761 30.2142 36.343 29.7752 37.3967M38.5584 28.0623C37.2147 28.0587 35.9272 27.523 34.9779 26.5726C34.0287 25.6222 33.495 24.3345 33.4939 22.9917C33.4953 21.6491 34.0291 20.3618 34.9784 19.4116C35.9276 18.4615 37.2149 17.926 38.5584 17.9223C39.9021 17.9256 41.1897 18.461 42.1392 19.4112C43.0887 20.3614 43.6226 21.6489 43.6241 22.9917C43.623 24.3348 43.0891 25.6226 42.1396 26.573C41.1901 27.5235 39.9023 28.059 38.5584 28.0623ZM34.7634 22.9836C34.7626 21.9746 35.1626 21.0067 35.8756 20.2924C36.5886 19.578 37.5563 19.1759 38.5659 19.1742C40.6641 19.1742 42.3708 20.8805 42.3708 22.9836C42.3713 23.9927 41.9708 24.9608 41.2573 25.6749C40.5437 26.389 39.5757 26.7907 38.5659 26.7917C37.5564 26.7902 36.5888 26.3883 35.8757 25.6742C35.1626 24.9602 34.7623 23.9924 34.7628 22.9836H34.7634Z" fill="white"/>
</g>
<g filter="url(#filter1_d_28_581)">
<path d="M62.2613 24.4998H60.3977L64.5852 12.8635H66.6136L70.8011 24.4998H68.9375L65.6477 14.9771H65.5568L62.2613 24.4998ZM62.5738 19.943H68.6193V21.4203H62.5738V19.943ZM78.7173 15.7725L75.5525 24.4998H73.7343L70.5639 15.7725H72.3878L74.598 22.4884H74.6889L76.8934 15.7725H78.7173ZM82.6037 24.693C82.0506 24.693 81.5506 24.5907 81.1037 24.3862C80.6567 24.1778 80.3025 23.8767 80.0412 23.4828C79.7836 23.0888 79.6548 22.6059 79.6548 22.0339C79.6548 21.5415 79.7495 21.1362 79.9389 20.818C80.1283 20.4998 80.384 20.2479 80.7059 20.0623C81.0279 19.8767 81.3877 19.7366 81.7855 19.6419C82.1832 19.5472 82.5885 19.4752 83.0014 19.4259C83.5241 19.3653 83.9484 19.3161 84.2741 19.2782C84.5999 19.2366 84.8366 19.1703 84.9843 19.0794C85.1321 18.9885 85.2059 18.8407 85.2059 18.6362V18.5964C85.2059 18.1002 85.0658 17.7157 84.7855 17.443C84.509 17.1703 84.0961 17.0339 83.5468 17.0339C82.9749 17.0339 82.5241 17.1608 82.1946 17.4146C81.8688 17.6646 81.6434 17.943 81.5184 18.2498L79.9218 17.8862C80.1112 17.3559 80.3877 16.9278 80.7514 16.6021C81.1188 16.2725 81.5412 16.0339 82.0184 15.8862C82.4957 15.7347 82.9976 15.6589 83.5241 15.6589C83.8726 15.6589 84.2419 15.7006 84.6321 15.7839C85.026 15.8635 85.3934 16.0112 85.7343 16.2271C86.079 16.443 86.3612 16.7517 86.5809 17.1532C86.8006 17.551 86.9105 18.068 86.9105 18.7044V24.4998H85.2514V23.3066H85.1832C85.0734 23.5263 84.9086 23.7422 84.6889 23.9544C84.4692 24.1665 84.187 24.3426 83.8423 24.4828C83.4976 24.6229 83.0847 24.693 82.6037 24.693ZM82.973 23.3294C83.4427 23.3294 83.8442 23.2366 84.1775 23.0509C84.5146 22.8653 84.7703 22.6229 84.9446 22.3237C85.1226 22.0206 85.2116 21.6968 85.2116 21.3521V20.2271C85.151 20.2877 85.0336 20.3445 84.8593 20.3975C84.6889 20.4468 84.4938 20.4903 84.2741 20.5282C84.0544 20.5623 83.8404 20.5945 83.6321 20.6248C83.4237 20.6513 83.2495 20.6741 83.1093 20.693C82.7798 20.7347 82.4787 20.8047 82.2059 20.9032C81.937 21.0017 81.7211 21.1438 81.5582 21.3294C81.3991 21.5112 81.3196 21.7536 81.3196 22.0566C81.3196 22.4771 81.4749 22.7953 81.7855 23.0112C82.0961 23.2233 82.4919 23.3294 82.973 23.3294ZM89.1733 24.4998V15.7725H90.8721V24.4998H89.1733ZM90.0312 14.426C89.7358 14.426 89.482 14.3275 89.2698 14.1305C89.0615 13.9297 88.9573 13.6911 88.9573 13.4146C88.9573 13.1343 89.0615 12.8956 89.2698 12.6987C89.482 12.4979 89.7358 12.3975 90.0312 12.3975C90.3267 12.3975 90.5786 12.4979 90.7869 12.6987C90.999 12.8956 91.1051 13.1343 91.1051 13.4146C91.1051 13.6911 90.999 13.9297 90.7869 14.1305C90.5786 14.3275 90.3267 14.426 90.0312 14.426ZM94.8565 12.8635V24.4998H93.1576V12.8635H94.8565ZM99.6818 24.693C99.1287 24.693 98.6287 24.5907 98.1818 24.3862C97.7348 24.1778 97.3806 23.8767 97.1193 23.4828C96.8617 23.0888 96.7329 22.6059 96.7329 22.0339C96.7329 21.5415 96.8276 21.1362 97.017 20.818C97.2064 20.4998 97.4621 20.2479 97.784 20.0623C98.106 19.8767 98.4659 19.7366 98.8636 19.6419C99.2613 19.5472 99.6666 19.4752 100.08 19.4259C100.602 19.3653 101.026 19.3161 101.352 19.2782C101.678 19.2366 101.915 19.1703 102.062 19.0794C102.21 18.9885 102.284 18.8407 102.284 18.6362V18.5964C102.284 18.1002 102.144 17.7157 101.864 17.443C101.587 17.1703 101.174 17.0339 100.625 17.0339C100.053 17.0339 99.6022 17.1608 99.2727 17.4146C98.9469 17.6646 98.7215 17.943 98.5965 18.2498L97 17.8862C97.1894 17.3559 97.4659 16.9278 97.8295 16.6021C98.1969 16.2725 98.6193 16.0339 99.0965 15.8862C99.5738 15.7347 100.076 15.6589 100.602 15.6589C100.951 15.6589 101.32 15.7006 101.71 15.7839C102.104 15.8635 102.472 16.0112 102.812 16.2271C103.157 16.443 103.439 16.7517 103.659 17.1532C103.879 17.551 103.989 18.068 103.989 18.7044V24.4998H102.33V23.3066H102.261C102.151 23.5263 101.987 23.7422 101.767 23.9544C101.547 24.1665 101.265 24.3426 100.92 24.4828C100.576 24.6229 100.163 24.693 99.6818 24.693ZM100.051 23.3294C100.521 23.3294 100.922 23.2366 101.256 23.0509C101.593 22.8653 101.848 22.6229 102.023 22.3237C102.201 22.0206 102.29 21.6968 102.29 21.3521V20.2271C102.229 20.2877 102.112 20.3445 101.937 20.3975C101.767 20.4468 101.572 20.4903 101.352 20.5282C101.133 20.5623 100.919 20.5945 100.71 20.6248C100.502 20.6513 100.328 20.6741 100.187 20.693C99.8579 20.7347 99.5568 20.8047 99.284 20.9032C99.0151 21.0017 98.7992 21.1438 98.6363 21.3294C98.4772 21.5112 98.3977 21.7536 98.3977 22.0566C98.3977 22.4771 98.553 22.7953 98.8636 23.0112C99.1742 23.2233 99.57 23.3294 100.051 23.3294ZM106.388 24.4998V12.8635H108.087V17.1873H108.189C108.287 17.0055 108.429 16.7953 108.615 16.5566C108.801 16.318 109.058 16.1097 109.388 15.9316C109.717 15.7498 110.153 15.6589 110.695 15.6589C111.399 15.6589 112.028 15.8369 112.581 16.193C113.134 16.5491 113.568 17.0623 113.882 17.7328C114.2 18.4032 114.359 19.21 114.359 20.1532C114.359 21.0964 114.202 21.9051 113.888 22.5794C113.573 23.2498 113.142 23.7669 112.592 24.1305C112.043 24.4903 111.416 24.6703 110.712 24.6703C110.181 24.6703 109.748 24.5813 109.41 24.4032C109.077 24.2252 108.816 24.0169 108.626 23.7782C108.437 23.5396 108.291 23.3275 108.189 23.1419H108.047V24.4998H106.388ZM108.053 20.1362C108.053 20.7498 108.142 21.2877 108.32 21.7498C108.498 22.2119 108.755 22.5737 109.092 22.835C109.429 23.0926 109.842 23.2214 110.331 23.2214C110.838 23.2214 111.263 23.0869 111.604 22.818C111.945 22.5453 112.202 22.1759 112.376 21.71C112.554 21.2441 112.643 20.7195 112.643 20.1362C112.643 19.5604 112.556 19.0434 112.382 18.585C112.212 18.1267 111.954 17.765 111.609 17.4998C111.268 17.2347 110.842 17.1021 110.331 17.1021C109.838 17.1021 109.422 17.229 109.081 17.4828C108.744 17.7366 108.488 18.0907 108.314 18.5453C108.14 18.9998 108.053 19.5301 108.053 20.1362ZM117.966 12.8635V24.4998H116.267V12.8635H117.966ZM124.013 24.6759C123.153 24.6759 122.412 24.4922 121.791 24.1248C121.174 23.7536 120.696 23.2328 120.359 22.5623C120.026 21.8881 119.859 21.0983 119.859 20.193C119.859 19.2991 120.026 18.5112 120.359 17.8294C120.696 17.1475 121.166 16.6153 121.768 16.2328C122.374 15.8502 123.083 15.6589 123.893 15.6589C124.386 15.6589 124.863 15.7403 125.325 15.9032C125.787 16.0661 126.202 16.3218 126.57 16.6703C126.937 17.0188 127.227 17.4714 127.439 18.0282C127.651 18.5813 127.757 19.2536 127.757 20.0453V20.6475H120.82V19.3748H126.092C126.092 18.9278 126.001 18.532 125.82 18.1873C125.638 17.8388 125.382 17.5642 125.053 17.3635C124.727 17.1627 124.344 17.0623 123.905 17.0623C123.428 17.0623 123.011 17.1797 122.655 17.4146C122.303 17.6456 122.03 17.9487 121.837 18.3237C121.647 18.6949 121.553 19.0983 121.553 19.5339V20.5282C121.553 21.1116 121.655 21.6078 121.859 22.0169C122.068 22.4259 122.357 22.7384 122.729 22.9544C123.1 23.1665 123.534 23.2725 124.03 23.2725C124.352 23.2725 124.645 23.2271 124.91 23.1362C125.176 23.0415 125.405 22.9013 125.598 22.7157C125.791 22.5301 125.939 22.3009 126.041 22.0282L127.649 22.318C127.52 22.7915 127.289 23.2063 126.956 23.5623C126.626 23.9146 126.212 24.1892 125.712 24.3862C125.215 24.5794 124.649 24.6759 124.013 24.6759ZM137.553 24.6759C136.734 24.6759 136.02 24.4884 135.41 24.1134C134.801 23.7384 134.327 23.2138 133.99 22.5396C133.653 21.8653 133.484 21.0775 133.484 20.1759C133.484 19.2706 133.653 18.479 133.99 17.801C134.327 17.1229 134.801 16.5964 135.41 16.2214C136.02 15.8464 136.734 15.6589 137.553 15.6589C138.371 15.6589 139.085 15.8464 139.695 16.2214C140.304 16.5964 140.778 17.1229 141.115 17.801C141.452 18.479 141.621 19.2706 141.621 20.1759C141.621 21.0775 141.452 21.8653 141.115 22.5396C140.778 23.2138 140.304 23.7384 139.695 24.1134C139.085 24.4884 138.371 24.6759 137.553 24.6759ZM137.558 23.2498C138.088 23.2498 138.528 23.1097 138.876 22.8294C139.225 22.5491 139.482 22.1759 139.649 21.71C139.82 21.2441 139.905 20.7309 139.905 20.1703C139.905 19.6135 139.82 19.1021 139.649 18.6362C139.482 18.1665 139.225 17.7896 138.876 17.5055C138.528 17.2214 138.088 17.0794 137.558 17.0794C137.024 17.0794 136.581 17.2214 136.229 17.5055C135.88 17.7896 135.621 18.1665 135.45 18.6362C135.284 19.1021 135.2 19.6135 135.2 20.1703C135.2 20.7309 135.284 21.2441 135.45 21.71C135.621 22.1759 135.88 22.5491 136.229 22.8294C136.581 23.1097 137.024 23.2498 137.558 23.2498ZM145.216 19.318V24.4998H143.517V15.7725H145.148V17.193H145.256C145.456 16.7309 145.771 16.3597 146.199 16.0794C146.631 15.7991 147.174 15.6589 147.829 15.6589C148.424 15.6589 148.945 15.7839 149.392 16.0339C149.839 16.2801 150.186 16.6475 150.432 17.1362C150.678 17.6248 150.801 18.229 150.801 18.9487V24.4998H149.102V19.1532C149.102 18.5206 148.937 18.0263 148.608 17.6703C148.278 17.3104 147.826 17.1305 147.25 17.1305C146.856 17.1305 146.506 17.2157 146.199 17.3862C145.896 17.5566 145.655 17.8066 145.477 18.1362C145.303 18.4619 145.216 18.8559 145.216 19.318Z" fill="#E8E8E8"/>
<path d="M67.6186 34.8429C67.5783 34.4001 67.3992 34.056 67.0813 33.8105C66.7674 33.561 66.3186 33.4362 65.7351 33.4362C65.3487 33.4362 65.0267 33.4866 64.7691 33.5872C64.5116 33.6878 64.3184 33.8266 64.1896 34.0037C64.0608 34.1768 63.9944 34.376 63.9904 34.6014C63.9823 34.7865 64.0186 34.9495 64.099 35.0904C64.1836 35.2312 64.3043 35.356 64.4613 35.4647C64.6222 35.5693 64.8154 35.6619 65.0408 35.7424C65.2662 35.8228 65.5197 35.8933 65.8015 35.9536L66.864 36.1951C67.4757 36.3279 68.015 36.505 68.4819 36.7264C68.9527 36.9477 69.3471 37.2113 69.6651 37.5172C69.9871 37.8231 70.2306 38.1752 70.3956 38.5737C70.5606 38.9721 70.6451 39.4188 70.6491 39.9139C70.6451 40.6947 70.4479 41.3648 70.0575 41.9242C69.6671 42.4836 69.1057 42.9122 68.3732 43.21C67.6447 43.5079 66.7654 43.6568 65.7351 43.6568C64.7007 43.6568 63.7992 43.5018 63.0305 43.1919C62.2618 42.882 61.6641 42.4112 61.2375 41.7793C60.8109 41.1474 60.5916 40.3485 60.5795 39.3826H63.441C63.4652 39.7811 63.5718 40.1131 63.761 40.3787C63.9501 40.6443 64.2097 40.8456 64.5397 40.9824C64.8738 41.1192 65.2601 41.1877 65.6988 41.1877C66.1013 41.1877 66.4434 41.1333 66.7251 41.0247C67.0109 40.916 67.2302 40.7651 67.3831 40.5719C67.5361 40.3787 67.6146 40.1574 67.6186 39.9078C67.6146 39.6744 67.5421 39.4752 67.4012 39.3102C67.2604 39.1411 67.0431 38.9963 66.7493 38.8755C66.4595 38.7508 66.0892 38.6361 65.6385 38.5314L64.3466 38.2296C63.276 37.9841 62.4329 37.5876 61.8171 37.0403C61.2013 36.4889 60.8954 35.7444 60.8995 34.8066C60.8954 34.042 61.1007 33.3719 61.5152 32.7963C61.9298 32.2208 62.5033 31.7721 63.2358 31.4501C63.9682 31.1281 64.8034 30.9671 65.7411 30.9671C66.6989 30.9671 67.53 31.1301 68.2343 31.4561C68.9427 31.7781 69.492 32.2309 69.8824 32.8144C70.2728 33.398 70.472 34.0742 70.4801 34.8429H67.6186ZM77.3924 34.2271V36.4004H71.5426V34.2271H77.3924ZM72.7681 32.0055H75.7201V40.584C75.7201 40.7651 75.7483 40.912 75.8047 41.0247C75.865 41.1333 75.9516 41.2118 76.0642 41.2601C76.1769 41.3044 76.3118 41.3265 76.4687 41.3265C76.5814 41.3265 76.7001 41.3165 76.8249 41.2963C76.9537 41.2722 77.0503 41.2521 77.1147 41.236L77.5614 43.367C77.4205 43.4072 77.2213 43.4576 76.9637 43.5179C76.7102 43.5783 76.4063 43.6165 76.0522 43.6326C75.3599 43.6648 74.7663 43.5843 74.2713 43.3911C73.7803 43.1939 73.404 42.8881 73.1424 42.4735C72.8848 42.059 72.76 41.5378 72.7681 40.91V32.0055ZM83.1335 43.6749C82.1636 43.6749 81.3264 43.4837 80.6221 43.1014C79.9218 42.715 79.3825 42.1657 79.0042 41.4533C78.6299 40.7369 78.4428 39.8857 78.4428 38.8997C78.4428 37.9418 78.6319 37.1047 79.0103 36.3883C79.3886 35.6679 79.9218 35.1085 80.61 34.71C81.2983 34.3076 82.1092 34.1063 83.0429 34.1063C83.703 34.1063 84.3067 34.209 84.854 34.4142C85.4014 34.6195 85.8743 34.9233 86.2727 35.3258C86.6711 35.7283 86.981 36.2253 87.2024 36.8169C87.4237 37.4045 87.5344 38.0786 87.5344 38.8393V39.5758H79.4751V37.8613H84.7876C84.7836 37.5474 84.7091 37.2677 84.5642 37.0222C84.4194 36.7767 84.2201 36.5855 83.9666 36.4487C83.7171 36.3078 83.4293 36.2374 83.1033 36.2374C82.7733 36.2374 82.4775 36.3118 82.2159 36.4608C81.9543 36.6056 81.747 36.8049 81.5941 37.0584C81.4411 37.3079 81.3606 37.5917 81.3526 37.9096V39.6543C81.3526 40.0326 81.427 40.3646 81.576 40.6504C81.7249 40.9321 81.9362 41.1514 82.2098 41.3084C82.4835 41.4654 82.8095 41.5438 83.1878 41.5438C83.4494 41.5438 83.6869 41.5076 83.9002 41.4352C84.1135 41.3627 84.2966 41.2561 84.4495 41.1152C84.6025 40.9744 84.7172 40.8013 84.7936 40.596L87.5042 40.6745C87.3915 41.2822 87.144 41.8115 86.7617 42.2622C86.3834 42.709 85.8863 43.0571 85.2706 43.3066C84.6548 43.5521 83.9424 43.6749 83.1335 43.6749ZM91.6561 43.6568C91.0645 43.6568 90.5393 43.5582 90.0805 43.361C89.6257 43.1597 89.2655 42.8579 88.9999 42.4554C88.7383 42.0489 88.6075 41.5398 88.6075 40.9281C88.6075 40.4129 88.698 39.9783 88.8791 39.6241C89.0602 39.2699 89.3098 38.9822 89.6277 38.7608C89.9457 38.5395 90.3119 38.3724 90.7264 38.2598C91.141 38.143 91.5837 38.0646 92.0546 38.0243C92.5818 37.976 93.0064 37.9257 93.3284 37.8734C93.6503 37.817 93.8837 37.7386 94.0286 37.638C94.1775 37.5333 94.252 37.3864 94.252 37.1973V37.1671C94.252 36.8572 94.1453 36.6177 93.932 36.4487C93.7187 36.2796 93.431 36.1951 93.0688 36.1951C92.6784 36.1951 92.3645 36.2796 92.127 36.4487C91.8895 36.6177 91.7386 36.8511 91.6742 37.149L88.9516 37.0524C89.0321 36.4889 89.2393 35.9858 89.5734 35.5431C89.9114 35.0964 90.3743 34.7463 90.9619 34.4927C91.5535 34.2351 92.2638 34.1063 93.0929 34.1063C93.6845 34.1063 94.2299 34.1768 94.7289 34.3176C95.228 34.4545 95.6626 34.6557 96.0329 34.9213C96.4032 35.1829 96.6889 35.5049 96.8901 35.8872C97.0954 36.2696 97.198 36.7063 97.198 37.1973V43.4998H94.421V42.2079H94.3486C94.1836 42.5218 93.9723 42.7875 93.7147 43.0048C93.4612 43.2221 93.1613 43.3851 92.8152 43.4938C92.4731 43.6024 92.0868 43.6568 91.6561 43.6568ZM92.5677 41.725C92.8856 41.725 93.1714 41.6606 93.4249 41.5318C93.6825 41.403 93.8878 41.2259 94.0407 41.0005C94.1936 40.7711 94.2701 40.5055 94.2701 40.2036V39.3223C94.1856 39.3665 94.083 39.4068 93.9622 39.443C93.8455 39.4792 93.7167 39.5134 93.5759 39.5456C93.435 39.5778 93.2901 39.606 93.1412 39.6301C92.9923 39.6543 92.8494 39.6764 92.7126 39.6965C92.4349 39.7408 92.1974 39.8092 92.0002 39.9018C91.807 39.9944 91.6581 40.1151 91.5535 40.264C91.4529 40.4089 91.4026 40.582 91.4026 40.7832C91.4026 41.0891 91.5112 41.3225 91.7286 41.4835C91.9499 41.6445 92.2296 41.725 92.5677 41.725ZM99.0031 43.4998V34.2271H101.81V35.9295H101.913C102.106 35.3661 102.432 34.9213 102.891 34.5953C103.35 34.2693 103.897 34.1063 104.533 34.1063C105.177 34.1063 105.728 34.2714 106.187 34.6014C106.646 34.9314 106.938 35.3741 107.062 35.9295H107.159C107.332 35.3781 107.67 34.9374 108.173 34.6074C108.676 34.2734 109.27 34.1063 109.954 34.1063C110.831 34.1063 111.544 34.3881 112.091 34.9515C112.638 35.5109 112.912 36.2796 112.912 37.2576V43.4998H109.96V37.9338C109.96 37.4709 109.841 37.1188 109.604 36.8773C109.366 36.6318 109.059 36.509 108.68 36.509C108.274 36.509 107.954 36.6419 107.72 36.9075C107.491 37.1691 107.376 37.5212 107.376 37.9639V43.4998H104.539V37.9036C104.539 37.4729 104.422 37.1329 104.189 36.8833C103.955 36.6338 103.647 36.509 103.265 36.509C103.008 36.509 102.78 36.5714 102.583 36.6962C102.386 36.8169 102.231 36.99 102.118 37.2154C102.009 37.4407 101.955 37.7064 101.955 38.0122V43.4998H99.0031Z" fill="white"/>
</g>
<rect x="1.05" y="1.04982" width="161.9" height="53.9" rx="6.95" stroke="white" stroke-opacity="0.15" stroke-width="2.1"/>
<defs>
<filter id="filter0_d_28_581" x="6.28571" y="2.28553" width="51.4286" height="51.4286" filterUnits="userSpaceOnUse" color-interpolation-filters="sRGB">
<feFlood flood-opacity="0" result="BackgroundImageFix"/>
<feColorMatrix in="SourceAlpha" type="matrix" values="0 0 0 0 0 0 0 0 0 0 0 0 0 0 0 0 0 0 127 0" result="hardAlpha"/>
<feOffset/>
<feGaussianBlur stdDeviation="2.85714"/>
<feComposite in2="hardAlpha" operator="out"/>
<feColorMatrix type="matrix" values="0 0 0 0 0 0 0 0 0 0 0 0 0 0 0 0 0 0 0.25 0"/>
<feBlend mode="normal" in2="BackgroundImageFix" result="effect1_dropShadow_28_581"/>
<feBlend mode="normal" in="SourceGraphic" in2="effect1_dropShadow_28_581" result="shape"/>
</filter>
<filter id="filter1_d_28_581" x="54.4" y="3.89982" width="103.2" height="48.2" filterUnits="userSpaceOnUse" color-interpolation-filters="sRGB">
<feFlood flood-opacity="0" result="BackgroundImageFix"/>
<feColorMatrix in="SourceAlpha" type="matrix" values="0 0 0 0 0 0 0 0 0 0 0 0 0 0 0 0 0 0 127 0" result="hardAlpha"/>
<feOffset/>
<feGaussianBlur stdDeviation="2.8"/>
<feComposite in2="hardAlpha" operator="out"/>
<feColorMatrix type="matrix" values="0 0 0 0 0 0 0 0 0 0 0 0 0 0 0 0 0 0 0.25 0"/>
<feBlend mode="normal" in2="BackgroundImageFix" result="effect1_dropShadow_28_581"/>
<feBlend mode="normal" in="SourceGraphic" in2="effect1_dropShadow_28_581" result="shape"/>
</filter>
<linearGradient id="paint0_linear_28_581" x1="82" y1="-0.000183105" x2="82" y2="55.9998" gradientUnits="userSpaceOnUse">
<stop stop-color="#0D1B31"/>
<stop offset="1" stop-color="#081320"/>
</linearGradient>
<linearGradient id="paint1_linear_28_581" x1="32.0085" y1="7.99982" x2="32.0085" y2="47.9998" gradientUnits="userSpaceOnUse">
<stop stop-color="#111D2E"/>
<stop offset="0.212" stop-color="#051839"/>
<stop offset="0.407" stop-color="#0A1B48"/>
<stop offset="0.581" stop-color="#132E62"/>
<stop offset="0.738" stop-color="#144B7E"/>
<stop offset="0.873" stop-color="#136497"/>
<stop offset="1" stop-color="#1387B8"/>
</linearGradient>
</defs>
</svg>
