<svg width="120" height="40" viewBox="0 0 120 40" fill="none" xmlns="http://www.w3.org/2000/svg">
<rect y="-6.10352e-05" width="120" height="40" rx="6" fill="url(#paint0_linear_28_581)"/>
<g filter="url(#filter0_d_28_581)">
<path d="M10.5711 24.0258C12.3021 29.7938 17.6557 33.9999 23.9908 33.9999C31.7278 33.9999 37.9999 27.7319 37.9999 19.9999C37.9999 12.268 31.7278 5.99994 23.9908 5.99994C16.567 5.99994 10.4919 11.7719 10.0121 19.0698C10.92 20.591 11.2724 21.5321 10.5702 24.0258H10.5711Z" fill="url(#paint1_linear_28_581)"/>
<path d="M23.2692 16.4934L23.2705 16.5625L19.8426 21.539C19.2875 21.5137 18.7307 21.6112 18.2018 21.8287C17.9716 21.9222 17.7518 22.0395 17.546 22.1787L10.0184 19.0781C10.0184 19.0781 9.84416 21.942 10.57 24.0761L15.8917 26.2706C16.1543 27.4641 16.9774 28.5106 18.1865 29.0137C19.1378 29.4087 20.2071 29.4103 21.1595 29.018C22.1119 28.6257 22.8696 27.8717 23.2661 26.9216C23.4776 26.4155 23.5797 25.8704 23.5655 25.3221L28.4656 21.8199L28.586 21.8221C31.5213 21.8221 33.9072 19.4307 33.9072 16.4934C33.9072 13.556 31.5257 11.1734 28.586 11.1672C25.652 11.1672 23.2648 13.556 23.2648 16.4934H23.2692ZM22.4461 26.5777C21.8096 28.109 20.0532 28.8295 18.5267 28.1939C17.8493 27.9093 17.3002 27.3858 16.9839 26.723L18.7162 27.4405C18.9838 27.5518 19.2708 27.6093 19.5606 27.6098C19.8505 27.6103 20.1376 27.5536 20.4056 27.4432C20.6735 27.3327 20.9171 27.1705 21.1223 26.966C21.3275 26.7614 21.4904 26.5184 21.6016 26.2509C21.8269 25.7104 21.8282 25.1027 21.6054 24.5612C21.3825 24.0197 20.9537 23.5887 20.4131 23.363L18.6182 22.6214C19.309 22.3589 20.0944 22.3502 20.829 22.6551C21.5732 22.9627 22.1423 23.5419 22.447 24.2826C22.7517 25.0233 22.7499 25.8401 22.4426 26.5777M28.5908 20.0437C27.6502 20.0411 26.749 19.6661 26.0845 19.0009C25.42 18.3356 25.0465 17.4342 25.0457 16.4942C25.0467 15.5544 25.4204 14.6533 26.0848 13.9882C26.7493 13.3231 27.6504 12.9482 28.5908 12.9457C29.5314 12.948 30.4327 13.3228 31.0974 13.9879C31.762 14.653 32.1358 15.5543 32.1369 16.4942C32.136 17.4344 31.7624 18.3359 31.0977 19.0012C30.433 19.6665 29.5316 20.0414 28.5908 20.0437M25.9344 16.4885C25.9338 15.7823 26.2138 15.1047 26.7129 14.6047C27.212 14.1047 27.8894 13.8231 28.5961 13.822C30.0648 13.822 31.2595 15.0164 31.2595 16.4885C31.2599 17.195 30.9795 17.8726 30.4801 18.3725C29.9806 18.8723 29.3029 19.1535 28.5961 19.1542C27.8894 19.1532 27.2121 18.8718 26.713 18.372C26.2138 17.8722 25.9336 17.1947 25.9339 16.4885H25.9344Z" fill="white"/>
</g>
<g filter="url(#filter1_d_28_581)">
<path d="M47.5547 17.9999H46.2734L49.1523 9.99994H50.5469L53.4258 17.9999H52.1445L49.8828 11.4531H49.8203L47.5547 17.9999ZM47.7695 14.8671H51.9258V15.8827H47.7695V14.8671ZM58.8682 11.9999L56.6924 17.9999H55.4424L53.2627 11.9999H54.5166L56.0361 16.6171H56.0986L57.6143 11.9999H58.8682ZM61.54 18.1327C61.1598 18.1327 60.8161 18.0624 60.5088 17.9218C60.2015 17.7786 59.958 17.5716 59.7783 17.3007C59.6012 17.0299 59.5127 16.6979 59.5127 16.3046C59.5127 15.9661 59.5778 15.6874 59.708 15.4687C59.8382 15.2499 60.014 15.0768 60.2353 14.9492C60.4567 14.8216 60.7041 14.7252 60.9775 14.6601C61.251 14.595 61.5296 14.5455 61.8135 14.5117C62.1728 14.47 62.4645 14.4361 62.6885 14.4101C62.9124 14.3814 63.0752 14.3359 63.1768 14.2734C63.2783 14.2109 63.3291 14.1093 63.3291 13.9687V13.9413C63.3291 13.6002 63.2327 13.3359 63.04 13.1484C62.8499 12.9609 62.5661 12.8671 62.1885 12.8671C61.7952 12.8671 61.4853 12.9544 61.2588 13.1288C61.0348 13.3007 60.8799 13.4921 60.7939 13.7031L59.6963 13.4531C59.8265 13.0885 60.0166 12.7942 60.2666 12.5702C60.5192 12.3437 60.8096 12.1796 61.1377 12.0781C61.4658 11.9739 61.8109 11.9218 62.1728 11.9218C62.4124 11.9218 62.6663 11.9505 62.9346 12.0078C63.2054 12.0624 63.458 12.164 63.6924 12.3124C63.9294 12.4609 64.1234 12.6731 64.2744 12.9492C64.4255 13.2226 64.501 13.5781 64.501 14.0156V17.9999H63.3603V17.1796H63.3135C63.238 17.3307 63.1247 17.4791 62.9736 17.6249C62.8226 17.7708 62.6286 17.8919 62.3916 17.9882C62.1546 18.0846 61.8708 18.1327 61.54 18.1327ZM61.7939 17.1952C62.1169 17.1952 62.3929 17.1314 62.6221 17.0038C62.8538 16.8762 63.0296 16.7096 63.1494 16.5038C63.2718 16.2955 63.333 16.0729 63.333 15.8359V15.0624C63.2913 15.1041 63.2106 15.1432 63.0908 15.1796C62.9736 15.2135 62.8395 15.2434 62.6885 15.2695C62.5374 15.2929 62.3903 15.315 62.2471 15.3359C62.1038 15.3541 61.984 15.3697 61.8877 15.3827C61.6611 15.4114 61.4541 15.4596 61.2666 15.5273C61.0817 15.595 60.9333 15.6926 60.8213 15.8202C60.7119 15.9452 60.6572 16.1119 60.6572 16.3202C60.6572 16.6093 60.764 16.8281 60.9775 16.9765C61.1911 17.1223 61.4632 17.1952 61.7939 17.1952ZM66.0566 17.9999V11.9999H67.2246V17.9999H66.0566ZM66.6465 11.0742C66.4434 11.0742 66.2689 11.0064 66.123 10.871C65.9798 10.733 65.9082 10.5689 65.9082 10.3788C65.9082 10.1861 65.9798 10.0221 66.123 9.88666C66.2689 9.74864 66.4434 9.67963 66.6465 9.67963C66.8496 9.67963 67.0228 9.74864 67.166 9.88666C67.3118 10.0221 67.3848 10.1861 67.3848 10.3788C67.3848 10.5689 67.3118 10.733 67.166 10.871C67.0228 11.0064 66.8496 11.0742 66.6465 11.0742ZM69.9639 9.99994V17.9999H68.7959V9.99994H69.9639ZM73.2812 18.1327C72.901 18.1327 72.5573 18.0624 72.25 17.9218C71.9427 17.7786 71.6992 17.5716 71.5195 17.3007C71.3424 17.0299 71.2539 16.6979 71.2539 16.3046C71.2539 15.9661 71.319 15.6874 71.4492 15.4687C71.5794 15.2499 71.7552 15.0768 71.9766 14.9492C72.1979 14.8216 72.4453 14.7252 72.7187 14.6601C72.9922 14.595 73.2708 14.5455 73.5547 14.5117C73.9141 14.47 74.2057 14.4361 74.4297 14.4101C74.6536 14.3814 74.8164 14.3359 74.918 14.2734C75.0195 14.2109 75.0703 14.1093 75.0703 13.9687V13.9413C75.0703 13.6002 74.9739 13.3359 74.7812 13.1484C74.5911 12.9609 74.3073 12.8671 73.9297 12.8671C73.5365 12.8671 73.2266 12.9544 73 13.1288C72.776 13.3007 72.6211 13.4921 72.5351 13.7031L71.4375 13.4531C71.5677 13.0885 71.7578 12.7942 72.0078 12.5702C72.2604 12.3437 72.5508 12.1796 72.8789 12.0781C73.207 11.9739 73.5521 11.9218 73.9141 11.9218C74.1536 11.9218 74.4075 11.9505 74.6758 12.0078C74.9466 12.0624 75.1992 12.164 75.4336 12.3124C75.6706 12.4609 75.8646 12.6731 76.0156 12.9492C76.1667 13.2226 76.2422 13.5781 76.2422 14.0156V17.9999H75.1016V17.1796H75.0547C74.9792 17.3307 74.8659 17.4791 74.7148 17.6249C74.5638 17.7708 74.3698 17.8919 74.1328 17.9882C73.8958 18.0846 73.612 18.1327 73.2812 18.1327ZM73.5351 17.1952C73.8581 17.1952 74.1341 17.1314 74.3633 17.0038C74.595 16.8762 74.7708 16.7096 74.8906 16.5038C75.013 16.2955 75.0742 16.0729 75.0742 15.8359V15.0624C75.0325 15.1041 74.9518 15.1432 74.832 15.1796C74.7148 15.2135 74.5807 15.2434 74.4297 15.2695C74.2786 15.2929 74.1315 15.315 73.9883 15.3359C73.845 15.3541 73.7253 15.3697 73.6289 15.3827C73.4023 15.4114 73.1953 15.4596 73.0078 15.5273C72.8229 15.595 72.6745 15.6926 72.5625 15.8202C72.4531 15.9452 72.3984 16.1119 72.3984 16.3202C72.3984 16.6093 72.5052 16.8281 72.7187 16.9765C72.9323 17.1223 73.2044 17.1952 73.5351 17.1952ZM77.8916 17.9999V9.99994H79.0596V12.9726H79.1299C79.1976 12.8476 79.2952 12.7031 79.4228 12.539C79.5504 12.3749 79.7275 12.2317 79.9541 12.1093C80.1807 11.9843 80.4801 11.9218 80.8525 11.9218C81.3369 11.9218 81.7692 12.0442 82.1494 12.289C82.5296 12.5338 82.8278 12.8867 83.0439 13.3476C83.2627 13.8085 83.3721 14.3632 83.3721 15.0117C83.3721 15.6601 83.264 16.2161 83.0478 16.6796C82.8317 17.1406 82.5348 17.496 82.1572 17.746C81.7796 17.9934 81.3486 18.1171 80.8642 18.1171C80.4997 18.1171 80.2015 18.0559 79.9697 17.9335C79.7405 17.8111 79.5609 17.6679 79.4307 17.5038C79.3004 17.3398 79.2002 17.1939 79.1299 17.0663H79.0322V17.9999H77.8916ZM79.0361 14.9999C79.0361 15.4218 79.0973 15.7916 79.2197 16.1093C79.3421 16.427 79.5192 16.6757 79.751 16.8554C79.9827 17.0325 80.2666 17.121 80.6025 17.121C80.9515 17.121 81.2432 17.0286 81.4775 16.8437C81.7119 16.6562 81.889 16.4023 82.0088 16.082C82.1312 15.7617 82.1924 15.401 82.1924 14.9999C82.1924 14.6041 82.1325 14.2486 82.0127 13.9335C81.8955 13.6184 81.7184 13.3697 81.4814 13.1874C81.2471 13.0051 80.9541 12.914 80.6025 12.914C80.264 12.914 79.9775 13.0012 79.7432 13.1757C79.5114 13.3502 79.3356 13.5937 79.2158 13.9062C79.096 14.2187 79.0361 14.5833 79.0361 14.9999ZM85.8516 9.99994V17.9999H84.6836V9.99994H85.8516ZM90.0088 18.121C89.4176 18.121 88.9085 17.9947 88.4814 17.7421C88.057 17.4869 87.7288 17.1288 87.4971 16.6679C87.2679 16.2044 87.1533 15.6614 87.1533 15.039C87.1533 14.4244 87.2679 13.8827 87.4971 13.414C87.7288 12.9452 88.0517 12.5794 88.4658 12.3163C88.8825 12.0533 89.3695 11.9218 89.9267 11.9218C90.2653 11.9218 90.5934 11.9778 90.9111 12.0898C91.2288 12.2018 91.514 12.3775 91.7666 12.6171C92.0192 12.8567 92.2184 13.1679 92.3642 13.5507C92.5101 13.9309 92.583 14.3932 92.583 14.9374V15.3515H87.8135V14.4765H91.4385C91.4385 14.1692 91.376 13.8971 91.251 13.6601C91.126 13.4205 90.9502 13.2317 90.7236 13.0937C90.4997 12.9557 90.2366 12.8867 89.9346 12.8867C89.6064 12.8867 89.32 12.9674 89.0752 13.1288C88.833 13.2877 88.6455 13.496 88.5127 13.7538C88.3825 14.0091 88.3174 14.2864 88.3174 14.5859V15.2695C88.3174 15.6705 88.3877 16.0117 88.5283 16.2929C88.6715 16.5742 88.8708 16.789 89.126 16.9374C89.3812 17.0833 89.6793 17.1562 90.0205 17.1562C90.2418 17.1562 90.4437 17.1249 90.626 17.0624C90.8083 16.9973 90.9658 16.901 91.0986 16.7734C91.2314 16.6458 91.333 16.4882 91.4033 16.3007L92.5088 16.4999C92.4202 16.8255 92.2614 17.1106 92.0322 17.3554C91.8057 17.5976 91.5205 17.7864 91.1767 17.9218C90.8356 18.0546 90.4463 18.121 90.0088 18.121ZM99.3174 18.121C98.7549 18.121 98.264 17.9921 97.8447 17.7343C97.4254 17.4765 97.0999 17.1158 96.8681 16.6523C96.6364 16.1887 96.5205 15.6471 96.5205 15.0273C96.5205 14.4049 96.6364 13.8606 96.8681 13.3945C97.0999 12.9283 97.4254 12.5663 97.8447 12.3085C98.264 12.0507 98.7549 11.9218 99.3174 11.9218C99.8799 11.9218 100.371 12.0507 100.79 12.3085C101.209 12.5663 101.535 12.9283 101.767 13.3945C101.998 13.8606 102.114 14.4049 102.114 15.0273C102.114 15.6471 101.998 16.1887 101.767 16.6523C101.535 17.1158 101.209 17.4765 100.79 17.7343C100.371 17.9921 99.8799 18.121 99.3174 18.121ZM99.3213 17.1406C99.6859 17.1406 99.9879 17.0442 100.228 16.8515C100.467 16.6588 100.644 16.4023 100.759 16.082C100.876 15.7617 100.935 15.4088 100.935 15.0234C100.935 14.6406 100.876 14.289 100.759 13.9687C100.644 13.6458 100.467 13.3867 100.228 13.1913C99.9879 12.996 99.6859 12.8984 99.3213 12.8984C98.9541 12.8984 98.6494 12.996 98.4072 13.1913C98.1676 13.3867 97.9892 13.6458 97.8721 13.9687C97.7575 14.289 97.7002 14.6406 97.7002 15.0234C97.7002 15.4088 97.7575 15.7617 97.8721 16.082C97.9892 16.4023 98.1676 16.6588 98.4072 16.8515C98.6494 17.0442 98.9541 17.1406 99.3213 17.1406ZM104.586 14.4374V17.9999H103.418V11.9999H104.539V12.9765H104.613C104.751 12.6588 104.967 12.4036 105.262 12.2109C105.559 12.0182 105.932 11.9218 106.383 11.9218C106.792 11.9218 107.15 12.0078 107.457 12.1796C107.764 12.3489 108.003 12.6015 108.172 12.9374C108.341 13.2734 108.426 13.6887 108.426 14.1835V17.9999H107.258V14.3242C107.258 13.8893 107.145 13.5494 106.918 13.3046C106.691 13.0572 106.38 12.9335 105.984 12.9335C105.714 12.9335 105.473 12.9921 105.262 13.1093C105.053 13.2265 104.888 13.3984 104.766 13.6249C104.646 13.8489 104.586 14.1197 104.586 14.4374Z" fill="#E8E8E8"/>
<path d="M51.3778 24.8891C51.3494 24.5766 51.223 24.3337 50.9986 24.1604C50.777 23.9843 50.4602 23.8962 50.0483 23.8962C49.7756 23.8962 49.5483 23.9318 49.3665 24.0028C49.1847 24.0738 49.0483 24.1718 48.9574 24.2968C48.8665 24.419 48.8196 24.5596 48.8168 24.7187C48.8111 24.8494 48.8366 24.9644 48.8935 25.0639C48.9531 25.1633 49.0384 25.2514 49.1491 25.3281C49.2628 25.4019 49.3991 25.4673 49.5582 25.5241C49.7173 25.5809 49.8963 25.6306 50.0952 25.6732L50.8452 25.8437C51.277 25.9374 51.6577 26.0624 51.9872 26.2187C52.3196 26.3749 52.598 26.561 52.8224 26.7769C53.0497 26.9928 53.2216 27.2414 53.3381 27.5227C53.4545 27.8039 53.5142 28.1193 53.517 28.4687C53.5142 29.0198 53.375 29.4928 53.0994 29.8877C52.8239 30.2826 52.4276 30.5852 51.9105 30.7954C51.3963 31.0056 50.7756 31.1107 50.0483 31.1107C49.3182 31.1107 48.6818 31.0014 48.1392 30.7826C47.5966 30.5639 47.1747 30.2315 46.8736 29.7854C46.5724 29.3394 46.4176 28.7755 46.4091 28.0937H48.429C48.446 28.3749 48.5213 28.6093 48.6548 28.7968C48.7884 28.9843 48.9716 29.1264 49.2045 29.2229C49.4403 29.3195 49.7131 29.3678 50.0227 29.3678C50.3068 29.3678 50.5483 29.3295 50.7472 29.2528C50.9489 29.1761 51.1037 29.0695 51.2116 28.9332C51.3196 28.7968 51.375 28.6406 51.3778 28.4644C51.375 28.2997 51.3239 28.159 51.2244 28.0426C51.125 27.9232 50.9716 27.821 50.7642 27.7357C50.5597 27.6477 50.2983 27.5667 49.9801 27.4928L49.0682 27.2798C48.3125 27.1065 47.7173 26.8266 47.2827 26.4403C46.848 26.0511 46.6321 25.5255 46.6349 24.8636C46.6321 24.3238 46.777 23.8508 47.0696 23.4445C47.3622 23.0383 47.767 22.7215 48.2841 22.4943C48.8011 22.267 49.3906 22.1533 50.0526 22.1533C50.7287 22.1533 51.3153 22.2684 51.8125 22.4985C52.3125 22.7258 52.7003 23.0454 52.9759 23.4573C53.2514 23.8693 53.392 24.3465 53.3977 24.8891H51.3778ZM58.277 24.4545V25.9886H54.1477V24.4545H58.277ZM55.0128 22.8863H57.0966V28.9417C57.0966 29.0695 57.1165 29.1732 57.1562 29.2528C57.1989 29.3295 57.2599 29.3849 57.3395 29.419C57.419 29.4502 57.5142 29.4658 57.625 29.4658C57.7045 29.4658 57.7883 29.4587 57.8764 29.4445C57.9673 29.4275 58.0355 29.4133 58.081 29.4019L58.3963 30.9062C58.2969 30.9346 58.1562 30.9701 57.9744 31.0127C57.7955 31.0553 57.581 31.0823 57.331 31.0937C56.8423 31.1164 56.4233 31.0596 56.0739 30.9232C55.7273 30.784 55.4616 30.5681 55.277 30.2755C55.0952 29.9829 55.0071 29.615 55.0128 29.1718V22.8863ZM62.3295 31.1235C61.6449 31.1235 61.054 30.9886 60.5568 30.7187C60.0625 30.446 59.6818 30.0582 59.4148 29.5553C59.1506 29.0497 59.0185 28.4488 59.0185 27.7528C59.0185 27.0766 59.152 26.4857 59.419 25.9801C59.6861 25.4715 60.0625 25.0766 60.5483 24.7954C61.0341 24.5113 61.6065 24.3693 62.2656 24.3693C62.7315 24.3693 63.1577 24.4417 63.544 24.5866C63.9304 24.7315 64.2642 24.946 64.5454 25.2301C64.8267 25.5141 65.0454 25.865 65.2017 26.2826C65.3579 26.6974 65.4361 27.1732 65.4361 27.7102V28.2301H59.7472V27.0198H63.4972C63.4943 26.7982 63.4418 26.6008 63.3395 26.4275C63.2372 26.2542 63.0966 26.1193 62.9176 26.0227C62.7415 25.9232 62.5383 25.8735 62.3082 25.8735C62.0753 25.8735 61.8665 25.9261 61.6818 26.0312C61.4972 26.1335 61.3508 26.2741 61.2429 26.4531C61.1349 26.6292 61.0781 26.8295 61.0724 27.0539V28.2854C61.0724 28.5525 61.125 28.7869 61.2301 28.9886C61.3352 29.1874 61.4844 29.3423 61.6776 29.4531C61.8707 29.5639 62.1008 29.6193 62.3679 29.6193C62.5526 29.6193 62.7202 29.5937 62.8707 29.5425C63.0213 29.4914 63.1506 29.4161 63.2585 29.3167C63.3665 29.2173 63.4474 29.0951 63.5014 28.9502L65.4148 29.0056C65.3352 29.4346 65.1605 29.8082 64.8906 30.1264C64.6236 30.4417 64.2727 30.6874 63.8381 30.8636C63.4034 31.0369 62.9006 31.1235 62.3295 31.1235ZM68.3455 31.1107C67.9279 31.1107 67.5572 31.0411 67.2333 30.9019C66.9123 30.7599 66.658 30.5468 66.4705 30.2627C66.2859 29.9758 66.1935 29.6164 66.1935 29.1846C66.1935 28.821 66.2575 28.5141 66.3853 28.2641C66.5131 28.0141 66.6893 27.811 66.9137 27.6548C67.1381 27.4985 67.3967 27.3806 67.6893 27.3011C67.9819 27.2187 68.2944 27.1633 68.6268 27.1349C68.9989 27.1008 69.2986 27.0653 69.5259 27.0283C69.7532 26.9886 69.918 26.9332 70.0202 26.8622C70.1253 26.7883 70.1779 26.6846 70.1779 26.5511V26.5298C70.1779 26.311 70.1026 26.142 69.9521 26.0227C69.8015 25.9033 69.5984 25.8437 69.3427 25.8437C69.0671 25.8437 68.8455 25.9033 68.6779 26.0227C68.5103 26.142 68.4038 26.3068 68.3583 26.517L66.4364 26.4488C66.4932 26.0511 66.6396 25.696 66.8753 25.3835C67.114 25.0681 67.4407 24.821 67.8555 24.642C68.2731 24.4602 68.7745 24.3693 69.3597 24.3693C69.7773 24.3693 70.1623 24.419 70.5146 24.5184C70.8668 24.615 71.1736 24.757 71.435 24.9445C71.6964 25.1292 71.8981 25.3565 72.0401 25.6264C72.185 25.8962 72.2574 26.2045 72.2574 26.5511V30.9999H70.2972V30.088H70.2461C70.1296 30.3096 69.9805 30.4971 69.7986 30.6505C69.6197 30.8039 69.408 30.919 69.1637 30.9957C68.9222 31.0724 68.6495 31.1107 68.3455 31.1107ZM68.989 29.7471C69.2134 29.7471 69.4151 29.7016 69.5941 29.6107C69.7759 29.5198 69.9208 29.3948 70.0288 29.2357C70.1367 29.0738 70.1907 28.8863 70.1907 28.6732V28.0511C70.131 28.0823 70.0586 28.1107 69.9734 28.1363C69.891 28.1619 69.8001 28.186 69.7006 28.2087C69.6012 28.2315 69.4989 28.2514 69.3938 28.2684C69.2887 28.2854 69.1878 28.3011 69.0913 28.3153C68.8952 28.3465 68.7276 28.3948 68.5884 28.4602C68.4521 28.5255 68.3469 28.6107 68.2731 28.7158C68.2021 28.8181 68.1665 28.9403 68.1665 29.0823C68.1665 29.2982 68.2432 29.463 68.3967 29.5766C68.5529 29.6903 68.7503 29.7471 68.989 29.7471ZM73.5316 30.9999V24.4545H75.5131V25.6562H75.5856C75.7219 25.2585 75.9521 24.9445 76.2759 24.7144C76.5998 24.4843 76.9861 24.3693 77.435 24.3693C77.8896 24.3693 78.2788 24.4857 78.6026 24.7187C78.9265 24.9516 79.1324 25.2641 79.2205 25.6562H79.2887C79.4109 25.267 79.6495 24.9559 80.0046 24.7229C80.3597 24.4872 80.7788 24.3693 81.2617 24.3693C81.881 24.3693 82.3839 24.5681 82.7702 24.9658C83.1566 25.3607 83.3498 25.9033 83.3498 26.5937V30.9999H81.266V27.071C81.266 26.7443 81.1822 26.4957 81.0145 26.3252C80.8469 26.1519 80.6296 26.0653 80.3626 26.0653C80.0756 26.0653 79.8498 26.159 79.685 26.3465C79.5231 26.5312 79.4421 26.7798 79.4421 27.0923V30.9999H77.4393V27.0497C77.4393 26.7457 77.3569 26.5056 77.1921 26.3295C77.0273 26.1533 76.81 26.0653 76.5401 26.0653C76.3583 26.0653 76.1978 26.1093 76.0586 26.1974C75.9194 26.2826 75.81 26.4048 75.7305 26.5639C75.6538 26.7229 75.6154 26.9104 75.6154 27.1264V30.9999H73.5316Z" fill="white"/>
</g>
<rect x="0.75" y="0.749939" width="118.5" height="38.5" rx="5.25" stroke="white" stroke-opacity="0.15" stroke-width="1.5"/>
<defs>
<filter id="filter0_d_28_581" x="6" y="1.99994" width="36" height="36" filterUnits="userSpaceOnUse" color-interpolation-filters="sRGB">
<feFlood flood-opacity="0" result="BackgroundImageFix"/>
<feColorMatrix in="SourceAlpha" type="matrix" values="0 0 0 0 0 0 0 0 0 0 0 0 0 0 0 0 0 0 127 0" result="hardAlpha"/>
<feOffset/>
<feGaussianBlur stdDeviation="2"/>
<feComposite in2="hardAlpha" operator="out"/>
<feColorMatrix type="matrix" values="0 0 0 0 0 0 0 0 0 0 0 0 0 0 0 0 0 0 0.25 0"/>
<feBlend mode="normal" in2="BackgroundImageFix" result="effect1_dropShadow_28_581"/>
<feBlend mode="normal" in="SourceGraphic" in2="effect1_dropShadow_28_581" result="shape"/>
</filter>
<filter id="filter1_d_28_581" x="42" y="2.99994" width="72" height="34" filterUnits="userSpaceOnUse" color-interpolation-filters="sRGB">
<feFlood flood-opacity="0" result="BackgroundImageFix"/>
<feColorMatrix in="SourceAlpha" type="matrix" values="0 0 0 0 0 0 0 0 0 0 0 0 0 0 0 0 0 0 127 0" result="hardAlpha"/>
<feOffset/>
<feGaussianBlur stdDeviation="2"/>
<feComposite in2="hardAlpha" operator="out"/>
<feColorMatrix type="matrix" values="0 0 0 0 0 0 0 0 0 0 0 0 0 0 0 0 0 0 0.25 0"/>
<feBlend mode="normal" in2="BackgroundImageFix" result="effect1_dropShadow_28_581"/>
<feBlend mode="normal" in="SourceGraphic" in2="effect1_dropShadow_28_581" result="shape"/>
</filter>
<linearGradient id="paint0_linear_28_581" x1="60" y1="-6.10351e-05" x2="60" y2="39.9999" gradientUnits="userSpaceOnUse">
<stop stop-color="#0D1B31"/>
<stop offset="1" stop-color="#081320"/>
</linearGradient>
<linearGradient id="paint1_linear_28_581" x1="24.006" y1="5.99994" x2="24.006" y2="33.9999" gradientUnits="userSpaceOnUse">
<stop stop-color="#111D2E"/>
<stop offset="0.212" stop-color="#051839"/>
<stop offset="0.407" stop-color="#0A1B48"/>
<stop offset="0.581" stop-color="#132E62"/>
<stop offset="0.738" stop-color="#144B7E"/>
<stop offset="0.873" stop-color="#136497"/>
<stop offset="1" stop-color="#1387B8"/>
</linearGradient>
</defs>
</svg>
