<svg width="134" height="56" viewBox="0 0 134 56" fill="none" xmlns="http://www.w3.org/2000/svg">
<rect y="-0.00012207" width="134" height="56" rx="8" fill="url(#paint0_linear_7_249)"/>
<rect x="1.05" y="1.04988" width="131.9" height="53.9" rx="6.95" stroke="white" stroke-opacity="0.15" stroke-width="2.1"/>
<g filter="url(#filter0_d_7_249)">
<path fill-rule="evenodd" clip-rule="evenodd" d="M44.9637 11H19.0417C16.8117 11 15.0031 12.8073 15 15.0388V40.9394C14.9957 42.0148 15.4196 43.0477 16.178 43.8097C16.9365 44.5717 17.967 45 19.0417 45H44.9637C46.0375 44.9986 47.0666 44.5696 47.8239 43.8078C48.5811 43.0459 49.0043 42.0139 49 40.9394V15.0388C48.9969 12.8095 47.1916 11.003 44.9637 11ZM29.6633 35.4889C29.6618 35.8484 29.5174 36.1925 29.2618 36.4451C29.0063 36.6977 28.6607 36.8381 28.3015 36.8352H22.6367C21.8958 36.8322 21.2967 36.2303 21.2967 35.4889V18.6198C21.2967 17.8784 21.8958 17.2765 22.6367 17.2735H28.3015C29.0433 17.2765 29.6439 17.8775 29.6469 18.6198L29.6633 35.4889ZM42.7359 27.7438C42.7359 28.1037 42.592 28.4487 42.3361 28.7016C42.0803 28.9546 41.7338 29.0945 41.3742 29.0902H35.7094C34.9676 29.0871 34.367 28.4861 34.364 27.7438V18.6198C34.367 17.8775 34.9676 17.2765 35.7094 17.2735H41.3742C42.1151 17.2765 42.7142 17.8784 42.7142 18.6198L42.7359 27.7438Z" fill="url(#paint1_linear_7_249)"/>
</g>
<g filter="url(#filter1_d_7_249)">
<path d="M62.2954 12.8635L65.5341 22.3408H65.6647L68.9034 12.8635H70.8011L66.6136 24.4999H64.5852L60.3977 12.8635H62.2954ZM72.3451 24.4999V15.7726H74.044V24.4999H72.3451ZM73.2031 14.426C72.9076 14.426 72.6538 14.3275 72.4417 14.1306C72.2334 13.9298 72.1292 13.6912 72.1292 13.4146C72.1292 13.1343 72.2334 12.8957 72.4417 12.6987C72.6538 12.498 72.9076 12.3976 73.2031 12.3976C73.4985 12.3976 73.7504 12.498 73.9588 12.6987C74.1709 12.8957 74.277 13.1343 74.277 13.4146C74.277 13.6912 74.1709 13.9298 73.9588 14.1306C73.7504 14.3275 73.4985 14.426 73.2031 14.426ZM80.0909 24.676C79.231 24.676 78.4905 24.4923 77.8693 24.1249C77.2519 23.7537 76.7746 23.2328 76.4375 22.5624C76.1041 21.8881 75.9375 21.0984 75.9375 20.1931C75.9375 19.2991 76.1041 18.5112 76.4375 17.8294C76.7746 17.1476 77.2443 16.6154 77.8466 16.2328C78.4526 15.8503 79.1609 15.659 79.9716 15.659C80.464 15.659 80.9413 15.7404 81.4034 15.9033C81.8655 16.0662 82.2803 16.3218 82.6477 16.6703C83.0151 17.0188 83.3049 17.4715 83.517 18.0283C83.7291 18.5813 83.8352 19.2537 83.8352 20.0453V20.6476H76.8977V19.3749H82.1704C82.1704 18.9279 82.0795 18.5321 81.8977 18.1874C81.7159 17.8389 81.4602 17.5643 81.1306 17.3635C80.8049 17.1628 80.4223 17.0624 79.9829 17.0624C79.5056 17.0624 79.089 17.1798 78.7329 17.4146C78.3806 17.6457 78.1079 17.9487 77.9147 18.3237C77.7253 18.695 77.6306 19.0984 77.6306 19.534V20.5283C77.6306 21.1116 77.7329 21.6078 77.9375 22.0169C78.1458 22.426 78.4356 22.7385 78.8068 22.9544C79.178 23.1665 79.6117 23.2726 80.1079 23.2726C80.4299 23.2726 80.7234 23.2271 80.9886 23.1362C81.2538 23.0415 81.4829 22.9014 81.6761 22.7158C81.8693 22.5302 82.017 22.301 82.1193 22.0283L83.7272 22.3181C83.5984 22.7915 83.3674 23.2063 83.0341 23.5624C82.7045 23.9146 82.2897 24.1893 81.7897 24.3862C81.2935 24.5794 80.7272 24.676 80.0909 24.676ZM87.5966 24.4999L85.0284 15.7726H86.7841L88.4943 22.1817H88.5795L90.2954 15.7726H92.0511L93.7556 22.1533H93.8409L95.5397 15.7726H97.2954L94.7329 24.4999H93L91.2272 18.1987H91.0966L89.3238 24.4999H87.5966ZM106.818 24.676C106 24.676 105.286 24.4885 104.676 24.1135C104.066 23.7385 103.593 23.2139 103.256 22.5396C102.919 21.8654 102.75 21.0775 102.75 20.176C102.75 19.2707 102.919 18.479 103.256 17.801C103.593 17.123 104.066 16.5965 104.676 16.2215C105.286 15.8465 106 15.659 106.818 15.659C107.636 15.659 108.35 15.8465 108.96 16.2215C109.57 16.5965 110.044 17.123 110.381 17.801C110.718 18.479 110.886 19.2707 110.886 20.176C110.886 21.0775 110.718 21.8654 110.381 22.5396C110.044 23.2139 109.57 23.7385 108.96 24.1135C108.35 24.4885 107.636 24.676 106.818 24.676ZM106.824 23.2499C107.354 23.2499 107.794 23.1097 108.142 22.8294C108.49 22.5491 108.748 22.176 108.915 21.7101C109.085 21.2442 109.17 20.7309 109.17 20.1703C109.17 19.6135 109.085 19.1021 108.915 18.6362C108.748 18.1665 108.49 17.7896 108.142 17.5056C107.794 17.2215 107.354 17.0794 106.824 17.0794C106.29 17.0794 105.847 17.2215 105.494 17.5056C105.146 17.7896 104.886 18.1665 104.716 18.6362C104.549 19.1021 104.466 19.6135 104.466 20.1703C104.466 20.7309 104.549 21.2442 104.716 21.7101C104.886 22.176 105.146 22.5491 105.494 22.8294C105.847 23.1097 106.29 23.2499 106.824 23.2499ZM114.481 19.3181V24.4999H112.783V15.7726H114.413V17.1931H114.521C114.722 16.7309 115.036 16.3597 115.464 16.0794C115.896 15.7991 116.44 15.659 117.095 15.659C117.69 15.659 118.211 15.784 118.658 16.034C119.105 16.2802 119.451 16.6476 119.697 17.1362C119.944 17.6249 120.067 18.229 120.067 18.9487V24.4999H118.368V19.1533C118.368 18.5207 118.203 18.0264 117.874 17.6703C117.544 17.3105 117.091 17.1306 116.516 17.1306C116.122 17.1306 115.771 17.2158 115.464 17.3862C115.161 17.5567 114.921 17.8067 114.743 18.1362C114.569 18.462 114.481 18.8559 114.481 19.3181Z" fill="#E8E8E8"/>
<path d="M60.5312 33.5631V31.1362H70.9811V33.5631H67.2322V43.4999H64.2862V33.5631H60.5312ZM71.4777 43.4999V34.2271H74.3452V35.9175H74.4418C74.6108 35.3057 74.8865 34.851 75.2689 34.5531C75.6512 34.2513 76.0959 34.1004 76.603 34.1004C76.7399 34.1004 76.8807 34.1104 77.0256 34.1306C77.1705 34.1467 77.3053 34.1728 77.4301 34.209V36.7747C77.2892 36.7264 77.1041 36.6882 76.8747 36.66C76.6493 36.6319 76.4481 36.6178 76.271 36.6178C75.9209 36.6178 75.6049 36.6963 75.3232 36.8532C75.0455 37.0061 74.8262 37.2215 74.6652 37.4992C74.5082 37.7728 74.4297 38.0948 74.4297 38.4651V43.4999H71.4777ZM82.486 43.6749C81.5161 43.6749 80.679 43.4838 79.9747 43.1014C79.2744 42.7151 78.7351 42.1657 78.3568 41.4534C77.9825 40.737 77.7953 39.8858 77.7953 38.8997C77.7953 37.9419 77.9845 37.1048 78.3628 36.3884C78.7411 35.668 79.2744 35.1085 79.9626 34.7101C80.6508 34.3076 81.4618 34.1064 82.3955 34.1064C83.0555 34.1064 83.6592 34.209 84.2065 34.4143C84.7539 34.6195 85.2268 34.9234 85.6252 35.3259C86.0237 35.7283 86.3336 36.2254 86.5549 36.817C86.7763 37.4046 86.8869 38.0787 86.8869 38.8394V39.5759H78.8276V37.8614H84.1401C84.1361 37.5475 84.0617 37.2677 83.9168 37.0222C83.7719 36.7767 83.5727 36.5856 83.3191 36.4487C83.0696 36.3079 82.7818 36.2374 82.4558 36.2374C82.1258 36.2374 81.83 36.3119 81.5684 36.4608C81.3068 36.6057 81.0995 36.8049 80.9466 37.0585C80.7937 37.308 80.7132 37.5917 80.7051 37.9097V39.6543C80.7051 40.0327 80.7796 40.3647 80.9285 40.6504C81.0774 40.9322 81.2887 41.1515 81.5624 41.3085C81.836 41.4654 82.162 41.5439 82.5404 41.5439C82.802 41.5439 83.0394 41.5077 83.2527 41.4352C83.466 41.3628 83.6491 41.2561 83.8021 41.1153C83.955 40.9744 84.0697 40.8014 84.1462 40.5961L86.8568 40.6746C86.7441 41.2823 86.4966 41.8115 86.1142 42.2623C85.7359 42.709 85.2389 43.0572 84.6231 43.3067C84.0073 43.5522 83.295 43.6749 82.486 43.6749ZM91.3467 31.1362V43.4999H88.3947V31.1362H91.3467ZM96.1778 31.1362V43.4999H93.2257V31.1362H96.1778ZM102.385 43.6749C101.411 43.6749 100.574 43.4757 99.8739 43.0773C99.1776 42.6748 98.6403 42.1154 98.262 41.399C97.8877 40.6786 97.7006 39.8435 97.7006 38.8937C97.7006 37.9399 97.8877 37.1048 98.262 36.3884C98.6403 35.668 99.1776 35.1085 99.8739 34.7101C100.574 34.3076 101.411 34.1064 102.385 34.1064C103.359 34.1064 104.194 34.3076 104.891 34.7101C105.591 35.1085 106.128 35.668 106.502 36.3884C106.881 37.1048 107.07 37.9399 107.07 38.8937C107.07 39.8435 106.881 40.6786 106.502 41.399C106.128 42.1154 105.591 42.6748 104.891 43.0773C104.194 43.4757 103.359 43.6749 102.385 43.6749ZM102.403 41.4473C102.758 41.4473 103.057 41.3387 103.303 41.1213C103.548 40.904 103.736 40.6021 103.864 40.2158C103.997 39.8294 104.064 39.3827 104.064 38.8756C104.064 38.3604 103.997 37.9097 103.864 37.5233C103.736 37.1369 103.548 36.8351 103.303 36.6178C103.057 36.4004 102.758 36.2918 102.403 36.2918C102.037 36.2918 101.727 36.4004 101.474 36.6178C101.224 36.8351 101.033 37.1369 100.9 37.5233C100.771 37.9097 100.707 38.3604 100.707 38.8756C100.707 39.3827 100.771 39.8294 100.9 40.2158C101.033 40.6021 101.224 40.904 101.474 41.1213C101.727 41.3387 102.037 41.4473 102.403 41.4473Z" fill="#2684FF"/>
</g>
<defs>
<filter id="filter0_d_7_249" x="6.28571" y="2.28559" width="51.4286" height="51.4284" filterUnits="userSpaceOnUse" color-interpolation-filters="sRGB">
<feFlood flood-opacity="0" result="BackgroundImageFix"/>
<feColorMatrix in="SourceAlpha" type="matrix" values="0 0 0 0 0 0 0 0 0 0 0 0 0 0 0 0 0 0 127 0" result="hardAlpha"/>
<feOffset/>
<feGaussianBlur stdDeviation="2.85714"/>
<feComposite in2="hardAlpha" operator="out"/>
<feColorMatrix type="matrix" values="0 0 0 0 0 0 0 0 0 0 0 0 0 0 0 0 0 0 0.25 0"/>
<feBlend mode="normal" in2="BackgroundImageFix" result="effect1_dropShadow_7_249"/>
<feBlend mode="normal" in="SourceGraphic" in2="effect1_dropShadow_7_249" result="shape"/>
</filter>
<filter id="filter1_d_7_249" x="54.4" y="3.89988" width="73.2" height="48.1999" filterUnits="userSpaceOnUse" color-interpolation-filters="sRGB">
<feFlood flood-opacity="0" result="BackgroundImageFix"/>
<feColorMatrix in="SourceAlpha" type="matrix" values="0 0 0 0 0 0 0 0 0 0 0 0 0 0 0 0 0 0 127 0" result="hardAlpha"/>
<feOffset/>
<feGaussianBlur stdDeviation="2.8"/>
<feComposite in2="hardAlpha" operator="out"/>
<feColorMatrix type="matrix" values="0 0 0 0 0 0 0 0 0 0 0 0 0 0 0 0 0 0 0.25 0"/>
<feBlend mode="normal" in2="BackgroundImageFix" result="effect1_dropShadow_7_249"/>
<feBlend mode="normal" in="SourceGraphic" in2="effect1_dropShadow_7_249" result="shape"/>
</filter>
<linearGradient id="paint0_linear_7_249" x1="67" y1="-0.00012207" x2="67" y2="55.9999" gradientUnits="userSpaceOnUse">
<stop stop-color="#081F3E"/>
<stop offset="1" stop-color="#051428"/>
</linearGradient>
<linearGradient id="paint1_linear_7_249" x1="5324.1" y1="2187" x2="5324.1" y2="11" gradientUnits="userSpaceOnUse">
<stop stop-color="#0052CC"/>
<stop offset="1" stop-color="#2684FF"/>
</linearGradient>
</defs>
</svg>
