<svg width="187" height="40" viewBox="0 0 187 40" fill="none" xmlns="http://www.w3.org/2000/svg">
<rect x="-0.000244141" y="-3.05176e-05" width="187" height="40" rx="6" fill="url(#paint0_linear_18_3129)"/>
<g filter="url(#filter0_d_18_3129)">
<path d="M10.408 12.4545H15.3227L18.7034 20.6931H18.8739L22.2545 12.4545H27.1693V27H23.3057V18.5909H23.192L19.9534 26.8863H17.6239L14.3852 18.5341H14.2716V27H10.408V12.4545ZM29.0408 27V12.4545H32.9896V23.8181H38.8703V27H29.0408Z" fill="#AEAEAE"/>
</g>
<g filter="url(#filter1_d_18_3129)">
<path d="M48.4451 18L46.2263 9.99997H47.4958L49.0544 16.1953H49.1287L50.7498 9.99997H52.0076L53.6287 16.1992H53.7029L55.2576 9.99997H56.531L54.3083 18H53.0935L51.4099 12.0078H51.3474L49.6638 18H48.4451ZM59.4744 18.1211C58.9119 18.1211 58.421 17.9922 58.0017 17.7343C57.5824 17.4765 57.2569 17.1159 57.0251 16.6523C56.7934 16.1888 56.6775 15.6471 56.6775 15.0273C56.6775 14.4049 56.7934 13.8606 57.0251 13.3945C57.2569 12.9284 57.5824 12.5664 58.0017 12.3086C58.421 12.0507 58.9119 11.9218 59.4744 11.9218C60.0369 11.9218 60.5277 12.0507 60.947 12.3086C61.3663 12.5664 61.6918 12.9284 61.9236 13.3945C62.1554 13.8606 62.2712 14.4049 62.2712 15.0273C62.2712 15.6471 62.1554 16.1888 61.9236 16.6523C61.6918 17.1159 61.3663 17.4765 60.947 17.7343C60.5277 17.9922 60.0369 18.1211 59.4744 18.1211ZM59.4783 17.1406C59.8429 17.1406 60.1449 17.0442 60.3845 16.8515C60.6241 16.6588 60.8012 16.4023 60.9158 16.082C61.033 15.7617 61.0915 15.4088 61.0915 15.0234C61.0915 14.6406 61.033 14.289 60.9158 13.9687C60.8012 13.6458 60.6241 13.3867 60.3845 13.1914C60.1449 12.9961 59.8429 12.8984 59.4783 12.8984C59.1111 12.8984 58.8064 12.9961 58.5642 13.1914C58.3246 13.3867 58.1462 13.6458 58.029 13.9687C57.9145 14.289 57.8572 14.6406 57.8572 15.0234C57.8572 15.4088 57.9145 15.7617 58.029 16.082C58.1462 16.4023 58.3246 16.6588 58.5642 16.8515C58.8064 17.0442 59.1111 17.1406 59.4783 17.1406ZM64.7429 14.4375V18H63.5749V12H64.696V12.9765H64.7703C64.9083 12.6588 65.1244 12.4036 65.4187 12.2109C65.7156 12.0182 66.0893 11.9218 66.5398 11.9218C66.9486 11.9218 67.3067 12.0078 67.614 12.1797C67.9213 12.3489 68.1596 12.6015 68.3289 12.9375C68.4981 13.2734 68.5828 13.6888 68.5828 14.1836V18H67.4148V14.3242C67.4148 13.8893 67.3015 13.5494 67.0749 13.3047C66.8484 13.0573 66.5372 12.9336 66.1414 12.9336C65.8705 12.9336 65.6296 12.9922 65.4187 13.1093C65.2104 13.2265 65.045 13.3984 64.9226 13.625C64.8028 13.8489 64.7429 14.1198 64.7429 14.4375ZM71.1531 9.99997V10.75C71.1531 10.9713 71.1114 11.2044 71.0281 11.4492C70.9473 11.6914 70.8328 11.9244 70.6843 12.1484C70.5359 12.3724 70.3614 12.5651 70.1609 12.7265L69.5828 12.3125C69.7364 12.0885 69.8692 11.8502 69.9812 11.5976C70.0958 11.345 70.1531 11.0664 70.1531 10.7617V9.99997H71.1531ZM75.3132 12V12.9375H72.0359V12H75.3132ZM72.9148 10.5625H74.0828V16.2382C74.0828 16.4648 74.1166 16.6354 74.1843 16.75C74.252 16.8619 74.3393 16.9388 74.446 16.9804C74.5554 17.0195 74.6739 17.039 74.8015 17.039C74.8953 17.039 74.9773 17.0325 75.0476 17.0195C75.1179 17.0065 75.1726 16.9961 75.2117 16.9882L75.4226 17.9531C75.3549 17.9791 75.2585 18.0052 75.1335 18.0312C75.0085 18.0599 74.8523 18.0755 74.6648 18.0781C74.3575 18.0833 74.071 18.0286 73.8054 17.914C73.5398 17.7994 73.3249 17.6224 73.1609 17.3828C72.9968 17.1432 72.9148 16.8424 72.9148 16.4804V10.5625ZM84.0124 13.4648L82.9538 13.6523C82.9096 13.5169 82.8393 13.388 82.7429 13.2656C82.6492 13.1432 82.5216 13.0429 82.3601 12.9648C82.1986 12.8867 81.9968 12.8476 81.7546 12.8476C81.4239 12.8476 81.1479 12.9218 80.9265 13.0703C80.7051 13.2161 80.5945 13.4049 80.5945 13.6367C80.5945 13.8372 80.6687 13.9987 80.8171 14.1211C80.9656 14.2435 81.2051 14.3437 81.5359 14.4218L82.489 14.6406C83.0411 14.7682 83.4525 14.9648 83.7234 15.2304C83.9942 15.4961 84.1296 15.8411 84.1296 16.2656C84.1296 16.625 84.0255 16.9453 83.8171 17.2265C83.6114 17.5052 83.3236 17.7239 82.9538 17.8828C82.5867 18.0416 82.1609 18.1211 81.6765 18.1211C81.0046 18.1211 80.4565 17.9778 80.032 17.6914C79.6075 17.4023 79.3471 16.9922 79.2507 16.4609L80.3796 16.289C80.4499 16.5833 80.5945 16.806 80.8132 16.957C81.032 17.1054 81.3171 17.1797 81.6687 17.1797C82.0515 17.1797 82.3575 17.1002 82.5867 16.9414C82.8158 16.7799 82.9304 16.5833 82.9304 16.3515C82.9304 16.164 82.8601 16.0065 82.7195 15.8789C82.5815 15.7513 82.3692 15.6549 82.0828 15.5898L81.0671 15.3672C80.5072 15.2396 80.0932 15.0364 79.8249 14.7578C79.5593 14.4791 79.4265 14.1263 79.4265 13.6992C79.4265 13.345 79.5255 13.0351 79.7234 12.7695C79.9213 12.5039 80.1947 12.2968 80.5437 12.1484C80.8926 11.9974 81.2924 11.9218 81.7429 11.9218C82.3913 11.9218 82.9018 12.0625 83.2742 12.3437C83.6466 12.6224 83.8926 12.9961 84.0124 13.4648ZM89.2146 15.5117V12H90.3865V18H89.238V16.9609H89.1755C89.0375 17.2812 88.8161 17.5481 88.5115 17.7617C88.2094 17.9726 87.8331 18.0781 87.3826 18.0781C86.9971 18.0781 86.656 17.9935 86.3591 17.8242C86.0648 17.6523 85.8331 17.3984 85.6638 17.0625C85.4971 16.7265 85.4138 16.3112 85.4138 15.8164V12H86.5818V15.6757C86.5818 16.0846 86.6951 16.4101 86.9216 16.6523C87.1482 16.8945 87.4425 17.0156 87.8044 17.0156C88.0232 17.0156 88.2406 16.9609 88.4568 16.8515C88.6755 16.7422 88.8565 16.5768 88.9997 16.3554C89.1456 16.1341 89.2172 15.8528 89.2146 15.5117ZM91.9558 20.25V12H93.0964V12.9726H93.1941C93.2618 12.8476 93.3594 12.7031 93.487 12.539C93.6147 12.375 93.7917 12.2317 94.0183 12.1093C94.2449 11.9843 94.5443 11.9218 94.9167 11.9218C95.4011 11.9218 95.8334 12.0442 96.2136 12.289C96.5938 12.5338 96.892 12.8867 97.1081 13.3476C97.3269 13.8086 97.4363 14.3632 97.4363 15.0117C97.4363 15.6601 97.3282 16.2161 97.112 16.6797C96.8959 17.1406 96.599 17.4961 96.2214 17.7461C95.8438 17.9935 95.4128 18.1172 94.9285 18.1172C94.5639 18.1172 94.2657 18.056 94.0339 17.9336C93.8048 17.8112 93.6251 17.6679 93.4949 17.5039C93.3647 17.3398 93.2644 17.194 93.1941 17.0664H93.1238V20.25H91.9558ZM93.1003 15C93.1003 15.4218 93.1615 15.7916 93.2839 16.1093C93.4063 16.427 93.5834 16.6757 93.8152 16.8554C94.0469 17.0325 94.3308 17.1211 94.6667 17.1211C95.0157 17.1211 95.3074 17.0286 95.5417 16.8437C95.7761 16.6562 95.9532 16.4023 96.073 16.082C96.1954 15.7617 96.2566 15.401 96.2566 15C96.2566 14.6041 96.1967 14.2487 96.0769 13.9336C95.9597 13.6185 95.7826 13.3698 95.5456 13.1875C95.3113 13.0052 95.0183 12.914 94.6667 12.914C94.3282 12.914 94.0417 13.0013 93.8074 13.1757C93.5756 13.3502 93.3998 13.5937 93.28 13.9062C93.1602 14.2187 93.1003 14.5833 93.1003 15ZM98.7449 20.25V12H99.8855V12.9726H99.9831C100.051 12.8476 100.149 12.7031 100.276 12.539C100.404 12.375 100.581 12.2317 100.807 12.1093C101.034 11.9843 101.333 11.9218 101.706 11.9218C102.19 11.9218 102.622 12.0442 103.003 12.289C103.383 12.5338 103.681 12.8867 103.897 13.3476C104.116 13.8086 104.225 14.3632 104.225 15.0117C104.225 15.6601 104.117 16.2161 103.901 16.6797C103.685 17.1406 103.388 17.4961 103.01 17.7461C102.633 17.9935 102.202 18.1172 101.718 18.1172C101.353 18.1172 101.055 18.056 100.823 17.9336C100.594 17.8112 100.414 17.6679 100.284 17.5039C100.154 17.3398 100.053 17.194 99.9831 17.0664H99.9128V20.25H98.7449ZM99.8894 15C99.8894 15.4218 99.9506 15.7916 100.073 16.1093C100.195 16.427 100.372 16.6757 100.604 16.8554C100.836 17.0325 101.12 17.1211 101.456 17.1211C101.805 17.1211 102.096 17.0286 102.331 16.8437C102.565 16.6562 102.742 16.4023 102.862 16.082C102.984 15.7617 103.046 15.401 103.046 15C103.046 14.6041 102.986 14.2487 102.866 13.9336C102.749 13.6185 102.572 13.3698 102.335 13.1875C102.1 13.0052 101.807 12.914 101.456 12.914C101.117 12.914 100.831 13.0013 100.596 13.1757C100.365 13.3502 100.189 13.5937 100.069 13.9062C99.9493 14.2187 99.8894 14.5833 99.8894 15ZM108.061 18.1211C107.499 18.1211 107.008 17.9922 106.589 17.7343C106.169 17.4765 105.844 17.1159 105.612 16.6523C105.38 16.1888 105.264 15.6471 105.264 15.0273C105.264 14.4049 105.38 13.8606 105.612 13.3945C105.844 12.9284 106.169 12.5664 106.589 12.3086C107.008 12.0507 107.499 11.9218 108.061 11.9218C108.624 11.9218 109.115 12.0507 109.534 12.3086C109.953 12.5664 110.279 12.9284 110.51 13.3945C110.742 13.8606 110.858 14.4049 110.858 15.0273C110.858 15.6471 110.742 16.1888 110.51 16.6523C110.279 17.1159 109.953 17.4765 109.534 17.7343C109.115 17.9922 108.624 18.1211 108.061 18.1211ZM108.065 17.1406C108.43 17.1406 108.732 17.0442 108.971 16.8515C109.211 16.6588 109.388 16.4023 109.503 16.082C109.62 15.7617 109.678 15.4088 109.678 15.0234C109.678 14.6406 109.62 14.289 109.503 13.9687C109.388 13.6458 109.211 13.3867 108.971 13.1914C108.732 12.9961 108.43 12.8984 108.065 12.8984C107.698 12.8984 107.393 12.9961 107.151 13.1914C106.912 13.3867 106.733 13.6458 106.616 13.9687C106.501 14.289 106.444 14.6406 106.444 15.0234C106.444 15.4088 106.501 15.7617 106.616 16.082C106.733 16.4023 106.912 16.6588 107.151 16.8515C107.393 17.0442 107.698 17.1406 108.065 17.1406ZM112.162 18V12H113.291V12.9531H113.353C113.463 12.6302 113.655 12.3763 113.931 12.1914C114.21 12.0039 114.525 11.9101 114.877 11.9101C114.95 11.9101 115.036 11.9127 115.135 11.9179C115.236 11.9231 115.315 11.9297 115.373 11.9375V13.0547C115.326 13.0416 115.243 13.0273 115.123 13.0117C115.003 12.9935 114.883 12.9843 114.763 12.9843C114.487 12.9843 114.241 13.0429 114.025 13.1601C113.812 13.2747 113.642 13.4349 113.517 13.6406C113.392 13.8437 113.33 14.0755 113.33 14.3359V18H112.162ZM119.539 12V12.9375H116.261V12H119.539ZM117.14 10.5625H118.308V16.2382C118.308 16.4648 118.342 16.6354 118.41 16.75C118.478 16.8619 118.565 16.9388 118.672 16.9804C118.781 17.0195 118.899 17.039 119.027 17.039C119.121 17.039 119.203 17.0325 119.273 17.0195C119.343 17.0065 119.398 16.9961 119.437 16.9882L119.648 17.9531C119.58 17.9791 119.484 18.0052 119.359 18.0312C119.234 18.0599 119.078 18.0755 118.89 18.0781C118.583 18.0833 118.297 18.0286 118.031 17.914C117.765 17.7994 117.551 17.6224 117.386 17.3828C117.222 17.1432 117.14 16.8424 117.14 16.4804V10.5625Z" fill="#E8E8E8"/>
<path d="M46.6603 31V22.2727H50.2654C50.9188 22.2727 51.4827 22.3906 51.9571 22.6264C52.4344 22.8593 52.8023 23.1946 53.0608 23.6321C53.3194 24.0667 53.4486 24.5824 53.4486 25.1789C53.4486 25.7841 53.3165 26.2983 53.0523 26.7216C52.7881 27.142 52.4131 27.463 51.9273 27.6846C51.4415 27.9034 50.8662 28.0128 50.2015 28.0128H47.9216V26.3508H49.8094C50.1276 26.3508 50.3932 26.3096 50.6063 26.2272C50.8222 26.142 50.9856 26.0142 51.0963 25.8437C51.2071 25.6704 51.2625 25.4488 51.2625 25.1789C51.2625 24.9091 51.2071 24.686 51.0963 24.5099C50.9856 24.3309 50.8222 24.1974 50.6063 24.1093C50.3904 24.0184 50.1248 23.973 49.8094 23.973H48.7696V31H46.6603ZM51.5736 27.0113L53.7469 31H51.4458L49.3151 27.0113H51.5736ZM54.6056 31V24.4545H56.6894V31H54.6056ZM55.6496 23.6917C55.357 23.6917 55.1056 23.5951 54.8953 23.402C54.6851 23.2059 54.58 22.9701 54.58 22.6946C54.58 22.4218 54.6851 22.1889 54.8953 21.9957C55.1056 21.7997 55.357 21.7017 55.6496 21.7017C55.9451 21.7017 56.1965 21.7997 56.4039 21.9957C56.6141 22.1889 56.7192 22.4218 56.7192 22.6946C56.7192 22.9701 56.6141 23.2059 56.4039 23.402C56.1965 23.5951 55.9451 23.6917 55.6496 23.6917ZM63.7302 26.4531L61.8169 26.5042C61.797 26.3679 61.743 26.2471 61.6549 26.142C61.5669 26.0341 61.4518 25.9503 61.3098 25.8906C61.1706 25.8281 61.0086 25.7968 60.824 25.7968C60.5825 25.7968 60.3765 25.8451 60.2061 25.9417C60.0385 26.0383 59.9561 26.169 59.9589 26.3338C59.9561 26.4616 60.0072 26.5724 60.1123 26.6662C60.2203 26.7599 60.412 26.8352 60.6876 26.892L61.949 27.1306C62.6024 27.2556 63.0882 27.463 63.4064 27.7528C63.7274 28.0426 63.8893 28.4261 63.8922 28.9034C63.8893 29.3522 63.7558 29.7429 63.4916 30.0753C63.2302 30.4076 62.8723 30.6662 62.4177 30.8508C61.9632 31.0326 61.4433 31.1235 60.8581 31.1235C59.9234 31.1235 59.1862 30.9318 58.6464 30.5483C58.1095 30.1619 57.8027 29.6449 57.726 28.9971L59.7842 28.946C59.8297 29.1846 59.9476 29.3664 60.1379 29.4914C60.3282 29.6164 60.5711 29.6789 60.8666 29.6789C61.1336 29.6789 61.351 29.6292 61.5186 29.5298C61.6862 29.4304 61.7714 29.2983 61.7743 29.1335C61.7714 28.9858 61.7061 28.8679 61.5782 28.7798C61.4504 28.6889 61.2501 28.6179 60.9774 28.5667L59.8353 28.3494C59.1791 28.2301 58.6904 28.0099 58.3694 27.6889C58.0484 27.365 57.8893 26.9531 57.8922 26.4531C57.8893 26.0156 58.0058 25.642 58.2416 25.3324C58.4774 25.0199 58.8126 24.7812 59.2473 24.6164C59.6819 24.4517 60.1947 24.3693 60.7856 24.3693C61.672 24.3693 62.3708 24.5554 62.8822 24.9275C63.3936 25.2968 63.6762 25.8054 63.7302 26.4531ZM69.1411 28.1747V24.4545H71.2206V31H69.2348V29.7812H69.1667C69.0218 30.1818 68.7746 30.5 68.4252 30.7358C68.0786 30.9687 67.6596 31.0852 67.1681 31.0852C66.7221 31.0852 66.33 30.9829 65.9919 30.7784C65.6539 30.5738 65.3911 30.2883 65.2036 29.9218C65.0161 29.5525 64.9209 29.1207 64.9181 28.6264V24.4545H67.0019V28.2173C67.0047 28.5724 67.0985 28.8522 67.2831 29.0568C67.4678 29.2613 67.7192 29.3636 68.0374 29.3636C68.2448 29.3636 68.4309 29.3181 68.5956 29.2272C68.7632 29.1335 68.8953 28.9985 68.9919 28.8224C69.0914 28.6434 69.1411 28.4275 69.1411 28.1747ZM75.5981 33.5909C74.976 33.5909 74.4433 33.5042 74.0001 33.3309C73.5569 33.1576 73.2089 32.9204 72.9561 32.6193C72.7032 32.3181 72.5512 31.9772 72.5001 31.5966L74.4731 31.4858C74.51 31.6193 74.5782 31.7358 74.6777 31.8352C74.7799 31.9346 74.912 32.0113 75.074 32.0653C75.2387 32.1193 75.4319 32.1463 75.6535 32.1463C76.0029 32.1463 76.2913 32.061 76.5186 31.8906C76.7487 31.723 76.8637 31.4289 76.8637 31.0085V29.8579H76.7913C76.7089 30.0596 76.5839 30.24 76.4163 30.3991C76.2487 30.5582 76.0399 30.6832 75.7899 30.7741C75.5427 30.865 75.2586 30.9105 74.9376 30.9105C74.4603 30.9105 74.0228 30.7997 73.6251 30.5781C73.2302 30.3537 72.9135 30.0071 72.6748 29.5383C72.439 29.0667 72.3211 28.4602 72.3211 27.7187C72.3211 26.9545 72.4433 26.3253 72.6876 25.8309C72.9319 25.3338 73.2515 24.9659 73.6464 24.7272C74.0441 24.4886 74.4717 24.3693 74.9291 24.3693C75.2728 24.3693 75.5669 24.4289 75.8112 24.5483C76.0583 24.6647 76.2615 24.8153 76.4206 25C76.5796 25.1846 76.7004 25.3764 76.7828 25.5753H76.8424V24.4545H78.9177V31.0255C78.9177 31.5795 78.7785 32.0468 78.5001 32.4275C78.2217 32.8082 77.8325 33.0966 77.3325 33.2926C76.8325 33.4914 76.2544 33.5909 75.5981 33.5909ZM75.662 29.3934C75.9149 29.3934 76.1308 29.3267 76.3098 29.1931C76.4887 29.0596 76.6265 28.8679 76.7231 28.6179C76.8197 28.3679 76.868 28.0681 76.868 27.7187C76.868 27.3636 76.8197 27.0582 76.7231 26.8025C76.6294 26.544 76.4916 26.3451 76.3098 26.2059C76.1308 26.0667 75.9149 25.9971 75.662 25.9971C75.4035 25.9971 75.1848 26.0681 75.0058 26.2102C74.8268 26.3522 74.6904 26.5525 74.5967 26.811C74.5058 27.0667 74.4603 27.3693 74.4603 27.7187C74.4603 28.0681 74.5072 28.3679 74.601 28.6179C74.6947 28.8679 74.8296 29.0596 75.0058 29.1931C75.1848 29.3267 75.4035 29.3934 75.662 29.3934ZM82.0914 31.1108C81.6738 31.1108 81.303 31.0412 80.9791 30.902C80.6581 30.7599 80.4039 30.5468 80.2164 30.2628C80.0317 29.9758 79.9394 29.6164 79.9394 29.1846C79.9394 28.821 80.0033 28.5142 80.1311 28.2642C80.259 28.0142 80.4351 27.811 80.6595 27.6548C80.884 27.4985 81.1425 27.3806 81.4351 27.3011C81.7277 27.2187 82.0402 27.1633 82.3726 27.1349C82.7448 27.1008 83.0445 27.0653 83.2718 27.0284C83.499 26.9886 83.6638 26.9332 83.7661 26.8622C83.8712 26.7883 83.9238 26.6846 83.9238 26.5511V26.5298C83.9238 26.311 83.8485 26.142 83.6979 26.0227C83.5473 25.9034 83.3442 25.8437 83.0885 25.8437C82.813 25.8437 82.5914 25.9034 82.4238 26.0227C82.2561 26.142 82.1496 26.3068 82.1041 26.517L80.1823 26.4488C80.2391 26.0511 80.3854 25.696 80.6212 25.3835C80.8598 25.0681 81.1865 24.821 81.6013 24.642C82.0189 24.4602 82.5203 24.3693 83.1056 24.3693C83.5232 24.3693 83.9081 24.419 84.2604 24.5184C84.6127 24.615 84.9195 24.7571 85.1809 24.9446C85.4422 25.1292 85.6439 25.3565 85.786 25.6264C85.9309 25.8963 86.0033 26.2045 86.0033 26.5511V31H84.0431V30.088H83.9919C83.8755 30.3096 83.7263 30.4971 83.5445 30.6505C83.3655 30.8039 83.1539 30.919 82.9095 30.9957C82.6681 31.0724 82.3953 31.1108 82.0914 31.1108ZM82.7348 29.7471C82.9593 29.7471 83.161 29.7017 83.3399 29.6108C83.5218 29.5199 83.6666 29.3949 83.7746 29.2358C83.8826 29.0738 83.9365 28.8863 83.9365 28.6733V28.0511C83.8769 28.0824 83.8044 28.1108 83.7192 28.1363C83.6368 28.1619 83.5459 28.186 83.4465 28.2088C83.347 28.2315 83.2448 28.2514 83.1397 28.2684C83.0345 28.2855 82.9337 28.3011 82.8371 28.3153C82.6411 28.3466 82.4735 28.3949 82.3343 28.4602C82.1979 28.5255 82.0928 28.6108 82.0189 28.7159C81.9479 28.8181 81.9124 28.9403 81.9124 29.0824C81.9124 29.2983 81.9891 29.463 82.1425 29.5767C82.2988 29.6903 82.4962 29.7471 82.7348 29.7471ZM87.2774 31V24.4545H89.259V25.6562H89.3314C89.4678 25.2585 89.6979 24.9446 90.0218 24.7145C90.3456 24.4843 90.732 24.3693 91.1809 24.3693C91.6354 24.3693 92.0246 24.4858 92.3485 24.7187C92.6723 24.9517 92.8783 25.2642 92.9664 25.6562H93.0345C93.1567 25.267 93.3953 24.9559 93.7505 24.723C94.1056 24.4872 94.5246 24.3693 95.0076 24.3693C95.6269 24.3693 96.1297 24.5681 96.5161 24.9659C96.9024 25.3608 97.0956 25.9034 97.0956 26.5937V31H95.0118V27.071C95.0118 26.7443 94.928 26.4957 94.7604 26.3253C94.5928 26.152 94.3755 26.0653 94.1084 26.0653C93.8215 26.0653 93.5956 26.1591 93.4309 26.3466C93.2689 26.5312 93.188 26.7798 93.188 27.0923V31H91.1851V27.0497C91.1851 26.7457 91.1027 26.5056 90.938 26.3295C90.7732 26.1534 90.5559 26.0653 90.286 26.0653C90.1041 26.0653 89.9436 26.1093 89.8044 26.1974C89.6652 26.2826 89.5559 26.4048 89.4763 26.5639C89.3996 26.723 89.3612 26.9105 89.3612 27.1264V31H87.2774ZM98.3868 31V24.4545H100.471V31H98.3868ZM99.4308 23.6917C99.1382 23.6917 98.8868 23.5951 98.6766 23.402C98.4664 23.2059 98.3612 22.9701 98.3612 22.6946C98.3612 22.4218 98.4664 22.1889 98.6766 21.9957C98.8868 21.7997 99.1382 21.7017 99.4308 21.7017C99.7263 21.7017 99.9777 21.7997 100.185 21.9957C100.395 22.1889 100.5 22.4218 100.5 22.6946C100.5 22.9701 100.395 23.2059 100.185 23.402C99.9777 23.5951 99.7263 23.6917 99.4308 23.6917ZM103.531 22.2727V23.2443C103.531 23.5142 103.477 23.7869 103.369 24.0625C103.264 24.3352 103.127 24.5909 102.956 24.8295C102.786 25.0681 102.605 25.2699 102.415 25.4346L101.529 24.9488C101.659 24.7329 101.776 24.49 101.878 24.2201C101.98 23.9474 102.031 23.6235 102.031 23.2485V22.2727H103.531ZM109.633 26.4531L107.719 26.5042C107.699 26.3679 107.645 26.2471 107.557 26.142C107.469 26.0341 107.354 25.9503 107.212 25.8906C107.073 25.8281 106.911 25.7968 106.726 25.7968C106.485 25.7968 106.279 25.8451 106.108 25.9417C105.941 26.0383 105.858 26.169 105.861 26.3338C105.858 26.4616 105.91 26.5724 106.015 26.6662C106.123 26.7599 106.314 26.8352 106.59 26.892L107.851 27.1306C108.505 27.2556 108.991 27.463 109.309 27.7528C109.63 28.0426 109.792 28.4261 109.794 28.9034C109.792 29.3522 109.658 29.7429 109.394 30.0753C109.133 30.4076 108.775 30.6662 108.32 30.8508C107.866 31.0326 107.346 31.1235 106.76 31.1235C105.826 31.1235 105.089 30.9318 104.549 30.5483C104.012 30.1619 103.705 29.6449 103.628 28.9971L105.687 28.946C105.732 29.1846 105.85 29.3664 106.04 29.4914C106.231 29.6164 106.473 29.6789 106.769 29.6789C107.036 29.6789 107.253 29.6292 107.421 29.5298C107.589 29.4304 107.674 29.2983 107.677 29.1335C107.674 28.9858 107.608 28.8679 107.481 28.7798C107.353 28.6889 107.152 28.6179 106.88 28.5667L105.738 28.3494C105.081 28.2301 104.593 28.0099 104.272 27.6889C103.951 27.365 103.792 26.9531 103.794 26.4531C103.792 26.0156 103.908 25.642 104.144 25.3324C104.38 25.0199 104.715 24.7812 105.15 24.6164C105.584 24.4517 106.097 24.3693 106.688 24.3693C107.574 24.3693 108.273 24.5554 108.785 24.9275C109.296 25.2968 109.579 25.8054 109.633 26.4531ZM113.399 22.2727H116.011L118.227 27.6761H118.329L120.545 22.2727H123.157V31H121.103V25.6392H121.031L118.934 30.9446H117.622L115.525 25.6093H115.453V31H113.399V22.2727ZM127.528 31.1235C126.841 31.1235 126.25 30.9829 125.755 30.7017C125.264 30.4176 124.885 30.0227 124.618 29.517C124.353 29.0085 124.221 28.419 124.221 27.7485C124.221 27.0753 124.353 26.4858 124.618 25.9801C124.885 25.4716 125.264 25.0767 125.755 24.7954C126.25 24.5113 126.841 24.3693 127.528 24.3693C128.216 24.3693 128.805 24.5113 129.297 24.7954C129.791 25.0767 130.17 25.4716 130.434 25.9801C130.701 26.4858 130.835 27.0753 130.835 27.7485C130.835 28.419 130.701 29.0085 130.434 29.517C130.17 30.0227 129.791 30.4176 129.297 30.7017C128.805 30.9829 128.216 31.1235 127.528 31.1235ZM127.541 29.5511C127.791 29.5511 128.003 29.4744 128.176 29.321C128.349 29.1676 128.481 28.9545 128.572 28.6818C128.666 28.4091 128.713 28.0937 128.713 27.7358C128.713 27.3721 128.666 27.0539 128.572 26.7812C128.481 26.5085 128.349 26.2954 128.176 26.142C128.003 25.9886 127.791 25.9119 127.541 25.9119C127.282 25.9119 127.064 25.9886 126.885 26.142C126.709 26.2954 126.574 26.5085 126.48 26.7812C126.389 27.0539 126.343 27.3721 126.343 27.7358C126.343 28.0937 126.389 28.4091 126.48 28.6818C126.574 28.9545 126.709 29.1676 126.885 29.321C127.064 29.4744 127.282 29.5511 127.541 29.5511ZM134.293 31.0937C133.81 31.0937 133.371 30.9687 132.976 30.7187C132.581 30.4687 132.266 30.0937 132.03 29.5937C131.794 29.0937 131.677 28.473 131.677 27.7315C131.677 26.9616 131.799 26.3281 132.043 25.8309C132.287 25.3338 132.607 24.9659 133.002 24.7272C133.4 24.4886 133.827 24.3693 134.285 24.3693C134.628 24.3693 134.922 24.4289 135.167 24.5483C135.411 24.6647 135.613 24.8153 135.772 25C135.931 25.1846 136.052 25.3764 136.134 25.5753H136.177V22.2727H138.26V31H136.198V29.9389H136.134C136.046 30.1406 135.921 30.3295 135.759 30.5056C135.597 30.6818 135.394 30.8238 135.15 30.9318C134.908 31.0397 134.623 31.0937 134.293 31.0937ZM135.017 29.4701C135.27 29.4701 135.486 29.3991 135.665 29.2571C135.844 29.1122 135.982 28.9091 136.079 28.6477C136.175 28.3863 136.223 28.0795 136.223 27.7272C136.223 27.3693 136.175 27.061 136.079 26.8025C135.985 26.544 135.847 26.3451 135.665 26.2059C135.486 26.0667 135.27 25.9971 135.017 25.9971C134.759 25.9971 134.54 26.0681 134.361 26.2102C134.182 26.3522 134.046 26.5525 133.952 26.811C133.861 27.0696 133.816 27.375 133.816 27.7272C133.816 28.0795 133.863 28.3863 133.956 28.6477C134.05 28.9091 134.185 29.1122 134.361 29.2571C134.54 29.3991 134.759 29.4701 135.017 29.4701ZM141.662 22.2727V31H139.578V22.2727H141.662ZM146.044 31.1235C145.356 31.1235 144.765 30.9829 144.271 30.7017C143.78 30.4176 143.4 30.0227 143.133 29.517C142.869 29.0085 142.737 28.419 142.737 27.7485C142.737 27.0753 142.869 26.4858 143.133 25.9801C143.4 25.4716 143.78 25.0767 144.271 24.7954C144.765 24.5113 145.356 24.3693 146.044 24.3693C146.731 24.3693 147.321 24.5113 147.812 24.7954C148.307 25.0767 148.686 25.4716 148.95 25.9801C149.217 26.4858 149.351 27.0753 149.351 27.7485C149.351 28.419 149.217 29.0085 148.95 29.517C148.686 30.0227 148.307 30.4176 147.812 30.7017C147.321 30.9829 146.731 31.1235 146.044 31.1235ZM146.057 29.5511C146.307 29.5511 146.518 29.4744 146.691 29.321C146.865 29.1676 146.997 28.9545 147.088 28.6818C147.182 28.4091 147.228 28.0937 147.228 27.7358C147.228 27.3721 147.182 27.0539 147.088 26.7812C146.997 26.5085 146.865 26.2954 146.691 26.142C146.518 25.9886 146.307 25.9119 146.057 25.9119C145.798 25.9119 145.579 25.9886 145.4 26.142C145.224 26.2954 145.089 26.5085 144.995 26.7812C144.905 27.0539 144.859 27.3721 144.859 27.7358C144.859 28.0937 144.905 28.4091 144.995 28.6818C145.089 28.9545 145.224 29.1676 145.4 29.321C145.579 29.4744 145.798 29.5511 146.057 29.5511ZM152.263 31.1108C151.846 31.1108 151.475 31.0412 151.151 30.902C150.83 30.7599 150.576 30.5468 150.388 30.2628C150.204 29.9758 150.111 29.6164 150.111 29.1846C150.111 28.821 150.175 28.5142 150.303 28.2642C150.431 28.0142 150.607 27.811 150.831 27.6548C151.056 27.4985 151.314 27.3806 151.607 27.3011C151.9 27.2187 152.212 27.1633 152.544 27.1349C152.917 27.1008 153.216 27.0653 153.444 27.0284C153.671 26.9886 153.836 26.9332 153.938 26.8622C154.043 26.7883 154.096 26.6846 154.096 26.5511V26.5298C154.096 26.311 154.02 26.142 153.87 26.0227C153.719 25.9034 153.516 25.8437 153.26 25.8437C152.985 25.8437 152.763 25.9034 152.596 26.0227C152.428 26.142 152.321 26.3068 152.276 26.517L150.354 26.4488C150.411 26.0511 150.557 25.696 150.793 25.3835C151.032 25.0681 151.358 24.821 151.773 24.642C152.191 24.4602 152.692 24.3693 153.277 24.3693C153.695 24.3693 154.08 24.419 154.432 24.5184C154.785 24.615 155.091 24.7571 155.353 24.9446C155.614 25.1292 155.816 25.3565 155.958 25.6264C156.103 25.8963 156.175 26.2045 156.175 26.5511V31H154.215V30.088H154.164C154.047 30.3096 153.898 30.4971 153.716 30.6505C153.537 30.8039 153.326 30.919 153.081 30.9957C152.84 31.0724 152.567 31.1108 152.263 31.1108ZM152.907 29.7471C153.131 29.7471 153.333 29.7017 153.512 29.6108C153.694 29.5199 153.839 29.3949 153.946 29.2358C154.054 29.0738 154.108 28.8863 154.108 28.6733V28.0511C154.049 28.0824 153.976 28.1108 153.891 28.1363C153.809 28.1619 153.718 28.186 153.618 28.2088C153.519 28.2315 153.417 28.2514 153.312 28.2684C153.206 28.2855 153.106 28.3011 153.009 28.3153C152.813 28.3466 152.645 28.3949 152.506 28.4602C152.37 28.5255 152.265 28.6108 152.191 28.7159C152.12 28.8181 152.084 28.9403 152.084 29.0824C152.084 29.2983 152.161 29.463 152.314 29.5767C152.471 29.6903 152.668 29.7471 152.907 29.7471ZM159.84 31.0937C159.357 31.0937 158.918 30.9687 158.523 30.7187C158.128 30.4687 157.813 30.0937 157.577 29.5937C157.341 29.0937 157.223 28.473 157.223 27.7315C157.223 26.9616 157.346 26.3281 157.59 25.8309C157.834 25.3338 158.154 24.9659 158.549 24.7272C158.946 24.4886 159.374 24.3693 159.831 24.3693C160.175 24.3693 160.469 24.4289 160.714 24.5483C160.958 24.6647 161.16 24.8153 161.319 25C161.478 25.1846 161.598 25.3764 161.681 25.5753H161.723V22.2727H163.807V31H161.745V29.9389H161.681C161.593 30.1406 161.468 30.3295 161.306 30.5056C161.144 30.6818 160.941 30.8238 160.696 30.9318C160.455 31.0397 160.169 31.0937 159.84 31.0937ZM160.564 29.4701C160.817 29.4701 161.033 29.3991 161.212 29.2571C161.391 29.1122 161.529 28.9091 161.625 28.6477C161.722 28.3863 161.77 28.0795 161.77 27.7272C161.77 27.3693 161.722 27.061 161.625 26.8025C161.532 26.544 161.394 26.3451 161.212 26.2059C161.033 26.0667 160.817 25.9971 160.564 25.9971C160.306 25.9971 160.087 26.0681 159.908 26.2102C159.729 26.3522 159.593 26.5525 159.499 26.811C159.408 27.0696 159.363 27.375 159.363 27.7272C159.363 28.0795 159.41 28.3863 159.503 28.6477C159.597 28.9091 159.732 29.1122 159.908 29.2571C160.087 29.3991 160.306 29.4701 160.564 29.4701ZM168.185 31.1235C167.5 31.1235 166.909 30.9886 166.412 30.7187C165.918 30.446 165.537 30.0582 165.27 29.5554C165.006 29.0497 164.874 28.4488 164.874 27.7528C164.874 27.0767 165.007 26.4858 165.274 25.9801C165.541 25.4716 165.918 25.0767 166.403 24.7954C166.889 24.5113 167.462 24.3693 168.121 24.3693C168.587 24.3693 169.013 24.4417 169.399 24.5866C169.786 24.7315 170.119 24.946 170.401 25.2301C170.682 25.5142 170.901 25.865 171.057 26.2826C171.213 26.6974 171.291 27.1733 171.291 27.7102V28.2301H165.602V27.0199H169.352C169.35 26.7983 169.297 26.6008 169.195 26.4275C169.092 26.2542 168.952 26.1193 168.773 26.0227C168.597 25.9233 168.394 25.8735 168.163 25.8735C167.93 25.8735 167.722 25.9261 167.537 26.0312C167.352 26.1335 167.206 26.2741 167.098 26.4531C166.99 26.6292 166.933 26.8295 166.928 27.0539V28.2855C166.928 28.5525 166.98 28.7869 167.085 28.9886C167.19 29.1875 167.34 29.3423 167.533 29.4531C167.726 29.5639 167.956 29.6193 168.223 29.6193C168.408 29.6193 168.575 29.5937 168.726 29.5426C168.876 29.4914 169.006 29.4162 169.114 29.3167C169.222 29.2173 169.303 29.0951 169.357 28.9503L171.27 29.0056C171.19 29.4346 171.016 29.8082 170.746 30.1264C170.479 30.4417 170.128 30.6875 169.693 30.8636C169.259 31.0369 168.756 31.1235 168.185 31.1235ZM172.356 31V24.4545H174.38V25.6477H174.448C174.567 25.2159 174.762 24.8949 175.032 24.6846C175.302 24.4716 175.615 24.365 175.973 24.365C176.07 24.365 176.169 24.3721 176.272 24.3863C176.374 24.3977 176.469 24.4162 176.557 24.4417V26.2528C176.458 26.2187 176.327 26.1917 176.165 26.1718C176.006 26.152 175.864 26.142 175.739 26.142C175.492 26.142 175.269 26.1974 175.07 26.3082C174.874 26.4162 174.719 26.5681 174.606 26.7642C174.495 26.9574 174.439 27.1846 174.439 27.446V31H172.356Z" fill="#AEAEAE"/>
</g>
<rect x="0.749756" y="0.749969" width="185.5" height="38.5" rx="5.25" stroke="white" stroke-opacity="0.15" stroke-width="1.5"/>
<defs>
<filter id="filter0_d_18_3129" x="5.99976" y="1.99997" width="36.8706" height="36" filterUnits="userSpaceOnUse" color-interpolation-filters="sRGB">
<feFlood flood-opacity="0" result="BackgroundImageFix"/>
<feColorMatrix in="SourceAlpha" type="matrix" values="0 0 0 0 0 0 0 0 0 0 0 0 0 0 0 0 0 0 127 0" result="hardAlpha"/>
<feOffset/>
<feGaussianBlur stdDeviation="2"/>
<feComposite in2="hardAlpha" operator="out"/>
<feColorMatrix type="matrix" values="0 0 0 0 0 0 0 0 0 0 0 0 0 0 0 0 0 0 0.25 0"/>
<feBlend mode="normal" in2="BackgroundImageFix" result="effect1_dropShadow_18_3129"/>
<feBlend mode="normal" in="SourceGraphic" in2="effect1_dropShadow_18_3129" result="shape"/>
</filter>
<filter id="filter1_d_18_3129" x="41.9998" y="2.99997" width="139" height="34.5909" filterUnits="userSpaceOnUse" color-interpolation-filters="sRGB">
<feFlood flood-opacity="0" result="BackgroundImageFix"/>
<feColorMatrix in="SourceAlpha" type="matrix" values="0 0 0 0 0 0 0 0 0 0 0 0 0 0 0 0 0 0 127 0" result="hardAlpha"/>
<feOffset/>
<feGaussianBlur stdDeviation="2"/>
<feComposite in2="hardAlpha" operator="out"/>
<feColorMatrix type="matrix" values="0 0 0 0 0 0 0 0 0 0 0 0 0 0 0 0 0 0 0.25 0"/>
<feBlend mode="normal" in2="BackgroundImageFix" result="effect1_dropShadow_18_3129"/>
<feBlend mode="normal" in="SourceGraphic" in2="effect1_dropShadow_18_3129" result="shape"/>
</filter>
<linearGradient id="paint0_linear_18_3129" x1="93.4997" y1="-3.05176e-05" x2="93.4997" y2="40" gradientUnits="userSpaceOnUse">
<stop stop-color="#2C1B1B"/>
<stop offset="1" stop-color="#1F1414"/>
</linearGradient>
</defs>
</svg>
