<svg width="131" height="40" viewBox="0 0 131 40" fill="none" xmlns="http://www.w3.org/2000/svg">
<rect x="-0.000244141" y="-6.10352e-05" width="131" height="40" rx="6" fill="url(#paint0_linear_18_3162)"/>
<g filter="url(#filter0_d_18_3162)">
<path fill-rule="evenodd" clip-rule="evenodd" d="M24.5247 8.05885C24.2135 8.15821 23.9744 8.3381 23.7033 8.67675C23.6271 8.77193 23.4958 8.80548 23.3251 8.77337C23.1227 8.73527 22.3543 8.68555 20.3429 8.58049C19.7552 8.54975 19.6359 8.56649 19.5304 8.69414C19.2784 8.99916 19.3463 9.98191 19.6341 10.1955C19.7162 10.2564 20.1629 10.2654 20.6027 10.2151C20.8396 10.188 21.0755 10.1639 21.6175 10.1112C21.7536 10.098 21.9763 10.0761 22.1124 10.0625C22.2485 10.0489 22.5325 10.0208 22.7435 9.99995C22.9545 9.97917 23.2643 9.93363 23.432 9.89871L23.7368 9.83528L23.828 9.8964C24.0941 10.075 24.1675 10.2042 24.1295 10.428C24.0582 10.8484 24.0508 11.0798 24.0611 12.5637C24.0738 14.3961 24.1166 14.234 23.6097 14.2737C23.2927 14.2985 23.1694 14.3886 23.1139 14.6363C23.0873 14.7549 23.0934 15.8853 23.1223 16.1939C23.1405 16.3875 22.9883 16.4977 22.6401 16.5431C22.2979 16.5876 22.2153 16.7834 22.2885 17.377C22.3044 17.506 22.226 17.6102 22.0237 17.7286C21.8401 17.8361 21.8015 18.0907 21.9458 18.2429C22.103 18.4088 22.1108 18.4914 21.9863 18.6718C21.8567 18.8595 21.8538 18.8888 21.8527 20.0371C21.8514 21.1909 21.8366 21.3794 21.7351 21.5306C21.5882 21.7493 20.8676 22.4134 20.6977 22.4867C20.6459 22.509 20.2071 22.5211 19.0312 22.5328C18.1532 22.5415 17.4043 22.557 17.367 22.5673C17.2161 22.6088 17.0765 22.5606 16.9413 22.4201C16.7528 22.2244 16.7741 22.227 15.4797 22.2405C14.208 22.2538 14.2215 22.2556 14.1911 22.0741C14.1567 21.8697 14.1366 21.8037 14.0538 21.6238C13.8963 21.2814 13.7573 21.2145 13.3184 21.2695C13.0387 21.3045 12.9755 21.3807 12.907 21.7655C12.8211 22.2477 12.7316 22.3487 12.4757 22.2521C12.3071 22.1886 12.2815 22.1873 11.6189 22.2101C11.5781 22.2114 11.5037 22.2053 11.4537 22.1964C11.4004 22.187 11.3233 22.1934 11.268 22.212C11.216 22.2295 11.0899 22.2464 10.9878 22.2495C10.5308 22.2635 10.4547 22.2869 10.3502 22.446C10.1198 22.7966 9.92514 24.757 10.0279 25.6914C10.145 26.7564 10.2923 27.2613 10.5125 27.3525C10.8149 27.4777 12.1217 27.5355 12.4644 27.4387L12.6417 27.3887L12.7212 27.4451C12.825 27.5189 12.8809 27.6506 12.9305 27.9383C12.9898 28.2831 13.0513 28.3603 13.305 28.408C13.4781 28.4406 13.7127 28.4277 13.8181 28.3798C14.0406 28.2786 14.1648 27.5863 14.0301 27.1981C13.9531 26.976 14.0107 26.9232 14.1119 27.1231C14.2541 27.4039 14.4002 27.432 15.7148 27.4321C16.9048 27.4321 16.8191 27.4528 16.9858 27.1251C17.1199 26.8616 17.1808 26.8131 17.3686 26.8199C17.4459 26.8227 18.066 26.8345 18.7466 26.8462C20.1046 26.8694 19.9755 26.8541 20.4047 27.0432C21.5289 27.5382 22.7597 27.8171 24.3027 27.9263C25.1509 27.9863 26.3179 27.9606 27.0498 27.8657C28.3657 27.6951 29.2334 27.4759 30.131 27.0872C30.7852 26.8039 31.0751 26.9541 31.2095 27.6458C31.3146 28.1866 31.2894 28.2662 30.9725 28.3948C30.5258 28.5759 30.249 28.7624 30.1832 28.9265C30.1356 29.0452 30.1578 29.1757 30.2859 29.5308C30.3202 29.6259 30.3516 29.7648 30.3556 29.8395C30.3672 30.0514 30.389 30.1384 30.4642 30.2725C30.5025 30.341 30.5411 30.452 30.5499 30.5194C30.5703 30.6765 30.6302 30.8623 30.7008 30.9876C30.7345 31.0476 30.7626 31.151 30.7721 31.2506C30.8165 31.7156 31.0178 31.8511 31.7769 31.9268C31.8653 31.9356 31.964 31.9468 31.9963 31.9517C33.5388 32.1876 35.6695 31.5435 37.2016 30.3782C37.916 29.8348 38.0958 29.5772 37.9558 29.2971C37.9329 29.2512 37.9145 29.1564 37.9145 29.0835C37.9145 28.9407 37.8427 28.7201 37.7635 28.6196C37.736 28.5847 37.7088 28.5071 37.7032 28.4471C37.6924 28.3319 37.6154 28.1145 37.5547 28.0281C37.5348 27.9998 37.5186 27.9404 37.5186 27.8962C37.5186 27.8046 37.4582 27.6368 37.3896 27.5379C37.3641 27.501 37.3272 27.4171 37.3077 27.3516C37.2063 27.0113 36.63 26.8056 36.046 26.9013C35.5458 26.9832 35.5116 26.965 35.367 26.541C34.9069 25.1914 34.2804 24.1951 33.5558 23.6605C33.2806 23.4575 33.1777 23.4106 32.1481 23.0186C31.1382 22.6343 30.8827 22.5268 30.4201 22.2919C30.1435 22.1515 29.8373 21.9851 29.7395 21.9221C28.2444 20.9597 28.4057 21.2117 28.3512 19.7522C28.3146 18.7706 28.3068 18.7319 28.1144 18.5777C27.9582 18.4525 27.9355 18.3946 27.9788 18.2321C28.0534 17.9528 28.0143 17.8295 27.8067 17.6882C27.6444 17.5779 27.6221 17.5308 27.6473 17.3523C27.7323 16.7502 27.6353 16.5341 27.2619 16.4938C27.036 16.4695 26.9413 16.4392 26.8768 16.3707L26.8185 16.3088L26.8166 15.426C26.814 14.2538 26.8221 14.2715 26.2826 14.245C25.8969 14.2261 25.8081 14.2043 25.7275 14.1088L25.6639 14.0333L25.6637 12.3747C25.6635 11.4111 25.6529 10.6242 25.6383 10.4968C25.6087 10.2393 25.6125 10.2304 25.842 10.0152C26.0173 9.85058 26.1284 9.78376 26.196 9.80209C26.5942 9.91033 26.5297 9.9052 28.708 10.0009C30.3796 10.0743 30.3654 10.0759 30.5021 9.80281C30.6811 9.44518 30.5602 8.47766 30.3241 8.37801C30.2433 8.34395 29.9239 8.34532 29.6236 8.38111C29.4019 8.40759 29.3433 8.41409 28.2625 8.53279C26.9199 8.68021 26.8939 8.68339 26.5636 8.7409C26.2406 8.79711 26.2215 8.79084 26.036 8.56721C25.6399 8.08937 25.0502 7.891 24.5247 8.05885Z" fill="url(#paint1_linear_18_3162)"/>
</g>
<g filter="url(#filter1_d_18_3162)">
<path d="M48.4451 17.9999L46.2263 9.99994H47.4958L49.0544 16.1952H49.1287L50.7498 9.99994H52.0076L53.6287 16.1992H53.7029L55.2576 9.99994H56.531L54.3083 17.9999H53.0935L51.4099 12.0078H51.3474L49.6638 17.9999H48.4451ZM59.4744 18.121C58.9119 18.121 58.421 17.9921 58.0017 17.7343C57.5824 17.4765 57.2569 17.1158 57.0251 16.6523C56.7934 16.1887 56.6775 15.6471 56.6775 15.0273C56.6775 14.4049 56.7934 13.8606 57.0251 13.3945C57.2569 12.9283 57.5824 12.5663 58.0017 12.3085C58.421 12.0507 58.9119 11.9218 59.4744 11.9218C60.0369 11.9218 60.5277 12.0507 60.947 12.3085C61.3663 12.5663 61.6918 12.9283 61.9236 13.3945C62.1554 13.8606 62.2712 14.4049 62.2712 15.0273C62.2712 15.6471 62.1554 16.1887 61.9236 16.6523C61.6918 17.1158 61.3663 17.4765 60.947 17.7343C60.5277 17.9921 60.0369 18.121 59.4744 18.121ZM59.4783 17.1406C59.8429 17.1406 60.1449 17.0442 60.3845 16.8515C60.6241 16.6588 60.8012 16.4023 60.9158 16.082C61.033 15.7617 61.0915 15.4088 61.0915 15.0234C61.0915 14.6406 61.033 14.289 60.9158 13.9687C60.8012 13.6458 60.6241 13.3867 60.3845 13.1913C60.1449 12.996 59.8429 12.8984 59.4783 12.8984C59.1111 12.8984 58.8064 12.996 58.5642 13.1913C58.3246 13.3867 58.1462 13.6458 58.029 13.9687C57.9145 14.289 57.8572 14.6406 57.8572 15.0234C57.8572 15.4088 57.9145 15.7617 58.029 16.082C58.1462 16.4023 58.3246 16.6588 58.5642 16.8515C58.8064 17.0442 59.1111 17.1406 59.4783 17.1406ZM64.7429 14.4374V17.9999H63.5749V11.9999H64.696V12.9765H64.7703C64.9083 12.6588 65.1244 12.4036 65.4187 12.2109C65.7156 12.0182 66.0893 11.9218 66.5398 11.9218C66.9486 11.9218 67.3067 12.0078 67.614 12.1796C67.9213 12.3489 68.1596 12.6015 68.3289 12.9374C68.4981 13.2734 68.5828 13.6887 68.5828 14.1835V17.9999H67.4148V14.3242C67.4148 13.8893 67.3015 13.5494 67.0749 13.3046C66.8484 13.0572 66.5372 12.9335 66.1414 12.9335C65.8705 12.9335 65.6296 12.9921 65.4187 13.1093C65.2104 13.2265 65.045 13.3984 64.9226 13.6249C64.8028 13.8489 64.7429 14.1197 64.7429 14.4374ZM71.1531 9.99994V10.7499C71.1531 10.9713 71.1114 11.2044 71.0281 11.4492C70.9473 11.6913 70.8328 11.9244 70.6843 12.1484C70.5359 12.3723 70.3614 12.565 70.1609 12.7265L69.5828 12.3124C69.7364 12.0885 69.8692 11.8502 69.9812 11.5976C70.0958 11.345 70.1531 11.0663 70.1531 10.7617V9.99994H71.1531ZM75.3132 11.9999V12.9374H72.0359V11.9999H75.3132ZM72.9148 10.5624H74.0828V16.2382C74.0828 16.4648 74.1166 16.6354 74.1843 16.7499C74.252 16.8619 74.3393 16.9387 74.446 16.9804C74.5554 17.0195 74.6739 17.039 74.8015 17.039C74.8953 17.039 74.9773 17.0325 75.0476 17.0195C75.1179 17.0064 75.1726 16.996 75.2117 16.9882L75.4226 17.9531C75.3549 17.9791 75.2585 18.0051 75.1335 18.0312C75.0085 18.0598 74.8523 18.0755 74.6648 18.0781C74.3575 18.0833 74.071 18.0286 73.8054 17.914C73.5398 17.7994 73.3249 17.6223 73.1609 17.3827C72.9968 17.1432 72.9148 16.8424 72.9148 16.4804V10.5624ZM84.0124 13.4648L82.9538 13.6523C82.9096 13.5169 82.8393 13.388 82.7429 13.2656C82.6492 13.1432 82.5216 13.0429 82.3601 12.9648C82.1986 12.8867 81.9968 12.8476 81.7546 12.8476C81.4239 12.8476 81.1479 12.9218 80.9265 13.0702C80.7051 13.2161 80.5945 13.4049 80.5945 13.6367C80.5945 13.8372 80.6687 13.9986 80.8171 14.121C80.9656 14.2434 81.2051 14.3437 81.5359 14.4218L82.489 14.6406C83.0411 14.7682 83.4525 14.9648 83.7234 15.2304C83.9942 15.496 84.1296 15.8411 84.1296 16.2656C84.1296 16.6249 84.0255 16.9452 83.8171 17.2265C83.6114 17.5051 83.3236 17.7239 82.9538 17.8827C82.5867 18.0416 82.1609 18.121 81.6765 18.121C81.0046 18.121 80.4565 17.9778 80.032 17.6913C79.6075 17.4023 79.3471 16.9921 79.2507 16.4609L80.3796 16.289C80.4499 16.5833 80.5945 16.8059 80.8132 16.957C81.032 17.1054 81.3171 17.1796 81.6687 17.1796C82.0515 17.1796 82.3575 17.1002 82.5867 16.9413C82.8158 16.7799 82.9304 16.5833 82.9304 16.3515C82.9304 16.164 82.8601 16.0064 82.7195 15.8788C82.5815 15.7512 82.3692 15.6549 82.0828 15.5898L81.0671 15.3671C80.5072 15.2395 80.0932 15.0364 79.8249 14.7577C79.5593 14.4791 79.4265 14.1262 79.4265 13.6992C79.4265 13.345 79.5255 13.0351 79.7234 12.7695C79.9213 12.5038 80.1947 12.2968 80.5437 12.1484C80.8926 11.9973 81.2924 11.9218 81.7429 11.9218C82.3913 11.9218 82.9018 12.0624 83.2742 12.3437C83.6466 12.6223 83.8926 12.996 84.0124 13.4648ZM89.2146 15.5117V11.9999H90.3865V17.9999H89.238V16.9609H89.1755C89.0375 17.2812 88.8161 17.5481 88.5115 17.7617C88.2094 17.9726 87.8331 18.0781 87.3826 18.0781C86.9971 18.0781 86.656 17.9934 86.3591 17.8242C86.0648 17.6523 85.8331 17.3984 85.6638 17.0624C85.4971 16.7265 85.4138 16.3111 85.4138 15.8163V11.9999H86.5818V15.6757C86.5818 16.0846 86.6951 16.4101 86.9216 16.6523C87.1482 16.8945 87.4425 17.0156 87.8044 17.0156C88.0232 17.0156 88.2406 16.9609 88.4568 16.8515C88.6755 16.7421 88.8565 16.5768 88.9997 16.3554C89.1456 16.1341 89.2172 15.8528 89.2146 15.5117ZM91.9558 20.2499V11.9999H93.0964V12.9726H93.1941C93.2618 12.8476 93.3594 12.7031 93.487 12.539C93.6147 12.3749 93.7917 12.2317 94.0183 12.1093C94.2449 11.9843 94.5443 11.9218 94.9167 11.9218C95.4011 11.9218 95.8334 12.0442 96.2136 12.289C96.5938 12.5338 96.892 12.8867 97.1081 13.3476C97.3269 13.8085 97.4363 14.3632 97.4363 15.0117C97.4363 15.6601 97.3282 16.2161 97.112 16.6796C96.8959 17.1406 96.599 17.496 96.2214 17.746C95.8438 17.9934 95.4128 18.1171 94.9285 18.1171C94.5639 18.1171 94.2657 18.0559 94.0339 17.9335C93.8048 17.8111 93.6251 17.6679 93.4949 17.5038C93.3647 17.3398 93.2644 17.1939 93.1941 17.0663H93.1238V20.2499H91.9558ZM93.1003 14.9999C93.1003 15.4218 93.1615 15.7916 93.2839 16.1093C93.4063 16.427 93.5834 16.6757 93.8152 16.8554C94.0469 17.0325 94.3308 17.121 94.6667 17.121C95.0157 17.121 95.3074 17.0286 95.5417 16.8437C95.7761 16.6562 95.9532 16.4023 96.073 16.082C96.1954 15.7617 96.2566 15.401 96.2566 14.9999C96.2566 14.6041 96.1967 14.2486 96.0769 13.9335C95.9597 13.6184 95.7826 13.3697 95.5456 13.1874C95.3113 13.0051 95.0183 12.914 94.6667 12.914C94.3282 12.914 94.0417 13.0012 93.8074 13.1757C93.5756 13.3502 93.3998 13.5937 93.28 13.9062C93.1602 14.2187 93.1003 14.5833 93.1003 14.9999ZM98.7449 20.2499V11.9999H99.8855V12.9726H99.9831C100.051 12.8476 100.149 12.7031 100.276 12.539C100.404 12.3749 100.581 12.2317 100.807 12.1093C101.034 11.9843 101.333 11.9218 101.706 11.9218C102.19 11.9218 102.622 12.0442 103.003 12.289C103.383 12.5338 103.681 12.8867 103.897 13.3476C104.116 13.8085 104.225 14.3632 104.225 15.0117C104.225 15.6601 104.117 16.2161 103.901 16.6796C103.685 17.1406 103.388 17.496 103.01 17.746C102.633 17.9934 102.202 18.1171 101.718 18.1171C101.353 18.1171 101.055 18.0559 100.823 17.9335C100.594 17.8111 100.414 17.6679 100.284 17.5038C100.154 17.3398 100.053 17.1939 99.9831 17.0663H99.9128V20.2499H98.7449ZM99.8894 14.9999C99.8894 15.4218 99.9506 15.7916 100.073 16.1093C100.195 16.427 100.372 16.6757 100.604 16.8554C100.836 17.0325 101.12 17.121 101.456 17.121C101.805 17.121 102.096 17.0286 102.331 16.8437C102.565 16.6562 102.742 16.4023 102.862 16.082C102.984 15.7617 103.046 15.401 103.046 14.9999C103.046 14.6041 102.986 14.2486 102.866 13.9335C102.749 13.6184 102.572 13.3697 102.335 13.1874C102.1 13.0051 101.807 12.914 101.456 12.914C101.117 12.914 100.831 13.0012 100.596 13.1757C100.365 13.3502 100.189 13.5937 100.069 13.9062C99.9493 14.2187 99.8894 14.5833 99.8894 14.9999ZM108.061 18.121C107.499 18.121 107.008 17.9921 106.589 17.7343C106.169 17.4765 105.844 17.1158 105.612 16.6523C105.38 16.1887 105.264 15.6471 105.264 15.0273C105.264 14.4049 105.38 13.8606 105.612 13.3945C105.844 12.9283 106.169 12.5663 106.589 12.3085C107.008 12.0507 107.499 11.9218 108.061 11.9218C108.624 11.9218 109.115 12.0507 109.534 12.3085C109.953 12.5663 110.279 12.9283 110.51 13.3945C110.742 13.8606 110.858 14.4049 110.858 15.0273C110.858 15.6471 110.742 16.1887 110.51 16.6523C110.279 17.1158 109.953 17.4765 109.534 17.7343C109.115 17.9921 108.624 18.121 108.061 18.121ZM108.065 17.1406C108.43 17.1406 108.732 17.0442 108.971 16.8515C109.211 16.6588 109.388 16.4023 109.503 16.082C109.62 15.7617 109.678 15.4088 109.678 15.0234C109.678 14.6406 109.62 14.289 109.503 13.9687C109.388 13.6458 109.211 13.3867 108.971 13.1913C108.732 12.996 108.43 12.8984 108.065 12.8984C107.698 12.8984 107.393 12.996 107.151 13.1913C106.912 13.3867 106.733 13.6458 106.616 13.9687C106.501 14.289 106.444 14.6406 106.444 15.0234C106.444 15.4088 106.501 15.7617 106.616 16.082C106.733 16.4023 106.912 16.6588 107.151 16.8515C107.393 17.0442 107.698 17.1406 108.065 17.1406ZM112.162 17.9999V11.9999H113.291V12.9531H113.353C113.463 12.6301 113.655 12.3762 113.931 12.1913C114.21 12.0038 114.525 11.9101 114.877 11.9101C114.95 11.9101 115.036 11.9127 115.135 11.9179C115.236 11.9231 115.315 11.9296 115.373 11.9374V13.0546C115.326 13.0416 115.243 13.0273 115.123 13.0117C115.003 12.9934 114.883 12.9843 114.763 12.9843C114.487 12.9843 114.241 13.0429 114.025 13.1601C113.812 13.2747 113.642 13.4348 113.517 13.6406C113.392 13.8437 113.33 14.0755 113.33 14.3359V17.9999H112.162ZM119.539 11.9999V12.9374H116.261V11.9999H119.539ZM117.14 10.5624H118.308V16.2382C118.308 16.4648 118.342 16.6354 118.41 16.7499C118.478 16.8619 118.565 16.9387 118.672 16.9804C118.781 17.0195 118.899 17.039 119.027 17.039C119.121 17.039 119.203 17.0325 119.273 17.0195C119.343 17.0064 119.398 16.996 119.437 16.9882L119.648 17.9531C119.58 17.9791 119.484 18.0051 119.359 18.0312C119.234 18.0598 119.078 18.0755 118.89 18.0781C118.583 18.0833 118.297 18.0286 118.031 17.914C117.765 17.7994 117.551 17.6223 117.386 17.3827C117.222 17.1432 117.14 16.8424 117.14 16.4804V10.5624Z" fill="#E8E8E8"/>
<path d="M51.3776 24.8891C51.3492 24.5766 51.2228 24.3337 50.9983 24.1604C50.7767 23.9843 50.46 23.8962 50.0481 23.8962C49.7753 23.8962 49.5481 23.9318 49.3662 24.0028C49.1844 24.0738 49.0481 24.1718 48.9571 24.2968C48.8662 24.419 48.8194 24.5596 48.8165 24.7187C48.8108 24.8494 48.8364 24.9644 48.8932 25.0639C48.9529 25.1633 49.0381 25.2514 49.1489 25.3281C49.2625 25.4019 49.3989 25.4673 49.558 25.5241C49.7171 25.5809 49.8961 25.6306 50.0949 25.6732L50.8449 25.8437C51.2767 25.9374 51.6574 26.0624 51.987 26.2187C52.3194 26.3749 52.5978 26.561 52.8222 26.7769C53.0495 26.9928 53.2213 27.2414 53.3378 27.5227C53.4543 27.8039 53.514 28.1193 53.5168 28.4687C53.514 29.0198 53.3748 29.4928 53.0992 29.8877C52.8236 30.2826 52.4273 30.5852 51.9103 30.7954C51.3961 31.0056 50.7753 31.1107 50.0481 31.1107C49.3179 31.1107 48.6816 31.0014 48.139 30.7826C47.5963 30.5639 47.1745 30.2315 46.8733 29.7854C46.5722 29.3394 46.4174 28.7755 46.4088 28.0937H48.4287C48.4458 28.3749 48.5211 28.6093 48.6546 28.7968C48.7881 28.9843 48.9713 29.1264 49.2043 29.2229C49.4401 29.3195 49.7128 29.3678 50.0225 29.3678C50.3066 29.3678 50.5481 29.3295 50.7469 29.2528C50.9486 29.1761 51.1034 29.0695 51.2114 28.9332C51.3194 28.7968 51.3748 28.6406 51.3776 28.4644C51.3748 28.2997 51.3236 28.159 51.2242 28.0426C51.1248 27.9232 50.9713 27.821 50.764 27.7357C50.5594 27.6477 50.2981 27.5667 49.9799 27.4928L49.0679 27.2798C48.3123 27.1065 47.7171 26.8266 47.2824 26.4403C46.8478 26.0511 46.6319 25.5255 46.6347 24.8636C46.6319 24.3238 46.7767 23.8508 47.0694 23.4445C47.362 23.0383 47.7668 22.7215 48.2838 22.4943C48.8009 22.267 49.3904 22.1533 50.0523 22.1533C50.7284 22.1533 51.3151 22.2684 51.8123 22.4985C52.3123 22.7258 52.7 23.0454 52.9756 23.4573C53.2512 23.8693 53.3918 24.3465 53.3975 24.8891H51.3776ZM54.5821 33.4545V24.4545H56.6446V25.5752H56.7086C56.7938 25.3764 56.9145 25.1846 57.0708 24.9999C57.2299 24.8153 57.4316 24.6647 57.6759 24.5482C57.923 24.4289 58.2185 24.3693 58.5623 24.3693C59.0168 24.3693 59.4415 24.4886 59.8364 24.7272C60.2341 24.9658 60.5551 25.3337 60.7995 25.8309C61.0438 26.3281 61.1659 26.9616 61.1659 27.7315C61.1659 28.4729 61.048 29.0937 60.8123 29.5937C60.5793 30.0937 60.264 30.4687 59.8662 30.7187C59.4713 30.9687 59.0324 31.0937 58.5495 31.0937C58.2199 31.0937 57.9344 31.0397 57.6929 30.9318C57.4515 30.8238 57.2483 30.6818 57.0836 30.5056C56.9216 30.3295 56.7966 30.1406 56.7086 29.9389H56.6659V33.4545H54.5821ZM56.6233 27.7272C56.6233 28.0795 56.6702 28.3863 56.764 28.6477C56.8605 28.909 56.9983 29.1122 57.1773 29.257C57.3591 29.3991 57.5765 29.4701 57.8293 29.4701C58.085 29.4701 58.3023 29.3991 58.4813 29.257C58.6603 29.1122 58.7952 28.909 58.8861 28.6477C58.9799 28.3863 59.0267 28.0795 59.0267 27.7272C59.0267 27.3749 58.9799 27.0695 58.8861 26.811C58.7952 26.5525 58.6603 26.3522 58.4813 26.2102C58.3052 26.0681 58.0878 25.9971 57.8293 25.9971C57.5736 25.9971 57.3563 26.0667 57.1773 26.2059C56.9983 26.3451 56.8605 26.544 56.764 26.8025C56.6702 27.061 56.6233 27.3693 56.6233 27.7272ZM62.2579 30.9999V24.4545H64.3417V30.9999H62.2579ZM63.302 23.6917C63.0093 23.6917 62.7579 23.5951 62.5477 23.4019C62.3375 23.2059 62.2324 22.9701 62.2324 22.6945C62.2324 22.4218 62.3375 22.1889 62.5477 21.9957C62.7579 21.7997 63.0093 21.7016 63.302 21.7016C63.5974 21.7016 63.8488 21.7997 64.0562 21.9957C64.2664 22.1889 64.3716 22.4218 64.3716 22.6945C64.3716 22.9701 64.2664 23.2059 64.0562 23.4019C63.8488 23.5951 63.5974 23.6917 63.302 23.6917ZM68.7192 33.5908C68.0971 33.5908 67.5644 33.5042 67.1212 33.3309C66.678 33.1576 66.33 32.9204 66.0772 32.6193C65.8243 32.3181 65.6723 31.9772 65.6212 31.5965L67.5942 31.4857C67.6311 31.6193 67.6993 31.7357 67.7988 31.8352C67.901 31.9346 68.0331 32.0113 68.1951 32.0653C68.3598 32.1193 68.553 32.1462 68.7746 32.1462C69.124 32.1462 69.4124 32.061 69.6397 31.8906C69.8698 31.7229 69.9848 31.4289 69.9848 31.0085V29.8579H69.9124C69.83 30.0596 69.705 30.24 69.5374 30.3991C69.3698 30.5582 69.161 30.6832 68.911 30.7741C68.6638 30.865 68.3797 30.9104 68.0587 30.9104C67.5814 30.9104 67.1439 30.7997 66.7462 30.5781C66.3513 30.3536 66.0346 30.007 65.7959 29.5383C65.5601 29.0667 65.4422 28.4602 65.4422 27.7187C65.4422 26.9545 65.5644 26.3252 65.8087 25.8309C66.053 25.3337 66.3726 24.9658 66.7675 24.7272C67.1652 24.4886 67.5928 24.3693 68.0502 24.3693C68.3939 24.3693 68.688 24.4289 68.9323 24.5482C69.1794 24.6647 69.3826 24.8153 69.5417 24.9999C69.7007 25.1846 69.8215 25.3764 69.9039 25.5752H69.9635V24.4545H72.0388V31.0255C72.0388 31.5795 71.8996 32.0468 71.6212 32.4275C71.3428 32.8082 70.9536 33.0965 70.4536 33.2925C69.9536 33.4914 69.3755 33.5908 68.7192 33.5908ZM68.7831 29.3934C69.036 29.3934 69.2519 29.3266 69.4309 29.1931C69.6098 29.0596 69.7476 28.8678 69.8442 28.6178C69.9408 28.3678 69.9891 28.0681 69.9891 27.7187C69.9891 27.3636 69.9408 27.0582 69.8442 26.8025C69.7505 26.544 69.6127 26.3451 69.4309 26.2059C69.2519 26.0667 69.036 25.9971 68.7831 25.9971C68.5246 25.9971 68.3059 26.0681 68.1269 26.2102C67.9479 26.3522 67.8115 26.5525 67.7178 26.811C67.6269 27.0667 67.5814 27.3693 67.5814 27.7187C67.5814 28.0681 67.6283 28.3678 67.7221 28.6178C67.8158 28.8678 67.9507 29.0596 68.1269 29.1931C68.3059 29.3266 68.5246 29.3934 68.7831 29.3934ZM76.4227 31.1235C75.7352 31.1235 75.1443 30.9829 74.65 30.7016C74.1585 30.4175 73.7792 30.0227 73.5122 29.517C73.248 29.0085 73.1159 28.419 73.1159 27.7485C73.1159 27.0752 73.248 26.4857 73.5122 25.9801C73.7792 25.4715 74.1585 25.0766 74.65 24.7954C75.1443 24.5113 75.7352 24.3693 76.4227 24.3693C77.1102 24.3693 77.6997 24.5113 78.1912 24.7954C78.6855 25.0766 79.0647 25.4715 79.3289 25.9801C79.596 26.4857 79.7295 27.0752 79.7295 27.7485C79.7295 28.419 79.596 29.0085 79.3289 29.517C79.0647 30.0227 78.6855 30.4175 78.1912 30.7016C77.6997 30.9829 77.1102 31.1235 76.4227 31.1235ZM76.4355 29.5511C76.6855 29.5511 76.8971 29.4744 77.0704 29.321C77.2437 29.1675 77.3758 28.9545 77.4667 28.6818C77.5605 28.409 77.6073 28.0937 77.6073 27.7357C77.6073 27.3721 77.5605 27.0539 77.4667 26.7812C77.3758 26.5085 77.2437 26.2954 77.0704 26.142C76.8971 25.9886 76.6855 25.9119 76.4355 25.9119C76.1769 25.9119 75.9582 25.9886 75.7792 26.142C75.6031 26.2954 75.4681 26.5085 75.3744 26.7812C75.2835 27.0539 75.238 27.3721 75.238 27.7357C75.238 28.0937 75.2835 28.409 75.3744 28.6818C75.4681 28.9545 75.6031 29.1675 75.7792 29.321C75.9582 29.4744 76.1769 29.5511 76.4355 29.5511ZM84.4916 24.4545V25.9886H80.3623V24.4545H84.4916ZM81.2274 22.8863H83.3112V28.9417C83.3112 29.0695 83.3311 29.1732 83.3708 29.2528C83.4135 29.3295 83.4745 29.3849 83.5541 29.419C83.6336 29.4502 83.7288 29.4658 83.8396 29.4658C83.9191 29.4658 84.0029 29.4587 84.091 29.4445C84.1819 29.4275 84.2501 29.4133 84.2956 29.4019L84.6109 30.9062C84.5115 30.9346 84.3708 30.9701 84.189 31.0127C84.01 31.0553 83.7956 31.0823 83.5456 31.0937C83.0569 31.1164 82.6379 31.0596 82.2885 30.9232C81.9419 30.784 81.6762 30.5681 81.4916 30.2755C81.3098 29.9829 81.2217 29.615 81.2274 29.1718V22.8863Z" fill="url(#paint2_linear_18_3162)"/>
</g>
<rect x="0.749756" y="0.749939" width="129.5" height="38.5" rx="5.25" stroke="white" stroke-opacity="0.15" stroke-width="1.5"/>
<defs>
<filter id="filter0_d_18_3162" x="5.99976" y="1.99994" width="36" height="36" filterUnits="userSpaceOnUse" color-interpolation-filters="sRGB">
<feFlood flood-opacity="0" result="BackgroundImageFix"/>
<feColorMatrix in="SourceAlpha" type="matrix" values="0 0 0 0 0 0 0 0 0 0 0 0 0 0 0 0 0 0 127 0" result="hardAlpha"/>
<feOffset/>
<feGaussianBlur stdDeviation="2"/>
<feComposite in2="hardAlpha" operator="out"/>
<feColorMatrix type="matrix" values="0 0 0 0 0 0 0 0 0 0 0 0 0 0 0 0 0 0 0.25 0"/>
<feBlend mode="normal" in2="BackgroundImageFix" result="effect1_dropShadow_18_3162"/>
<feBlend mode="normal" in="SourceGraphic" in2="effect1_dropShadow_18_3162" result="shape"/>
</filter>
<filter id="filter1_d_18_3162" x="41.9998" y="2.99994" width="83" height="34.5909" filterUnits="userSpaceOnUse" color-interpolation-filters="sRGB">
<feFlood flood-opacity="0" result="BackgroundImageFix"/>
<feColorMatrix in="SourceAlpha" type="matrix" values="0 0 0 0 0 0 0 0 0 0 0 0 0 0 0 0 0 0 127 0" result="hardAlpha"/>
<feOffset/>
<feGaussianBlur stdDeviation="2"/>
<feComposite in2="hardAlpha" operator="out"/>
<feColorMatrix type="matrix" values="0 0 0 0 0 0 0 0 0 0 0 0 0 0 0 0 0 0 0.25 0"/>
<feBlend mode="normal" in2="BackgroundImageFix" result="effect1_dropShadow_18_3162"/>
<feBlend mode="normal" in="SourceGraphic" in2="effect1_dropShadow_18_3162" result="shape"/>
</filter>
<linearGradient id="paint0_linear_18_3162" x1="65.4997" y1="-6.10351e-05" x2="65.4997" y2="39.9999" gradientUnits="userSpaceOnUse">
<stop stop-color="#2C1B1B"/>
<stop offset="1" stop-color="#1F1414"/>
</linearGradient>
<linearGradient id="paint1_linear_18_3162" x1="23.9998" y1="8.00006" x2="23.9998" y2="32.0001" gradientUnits="userSpaceOnUse">
<stop stop-color="#CEA260"/>
<stop offset="1" stop-color="#81562E"/>
</linearGradient>
<linearGradient id="paint2_linear_18_3162" x1="65.4998" y1="19.9999" x2="65.4998" y2="32.9999" gradientUnits="userSpaceOnUse">
<stop stop-color="#E9C48D"/>
<stop offset="1" stop-color="#A2825D"/>
</linearGradient>
</defs>
</svg>
