<svg width="41" height="40" viewBox="0 0 41 40" fill="none" xmlns="http://www.w3.org/2000/svg">
<g clip-path="url(#clip0_8_122)">
<rect x="0.0107422" y="-0.00012207" width="40" height="40" rx="8" fill="url(#paint0_linear_8_122)"/>
<g filter="url(#filter0_d_8_122)">
<path d="M30.5292 18.7398C30.4045 18.7324 30.2801 18.7586 30.1689 18.8157C30.0578 18.8728 29.9639 18.9587 29.8971 19.0645C29.6454 18.9062 28.9625 18.5734 28.6974 18.4365L28.601 18.3882C28.5933 18.3849 28.5851 18.3833 28.5769 18.3833C28.5686 18.3833 28.5604 18.3849 28.5528 18.3882V18.3721C28.5542 18.3524 28.5542 18.3327 28.5528 18.313C28.8206 12.7897 23.2422 8.49832 17.8405 10.1596C16.548 10.5716 15.3731 11.2885 14.4145 12.2501C13.4559 13.2117 12.7417 14.3899 12.3318 15.6856C12.1116 16.4896 11.9946 17.3184 11.9836 18.152L11.7801 18.2325L11.6328 18.2943C11.365 18.4123 11.0972 18.5385 10.8294 18.6754C10.5616 18.8122 10.2938 18.9437 10.0501 19.1128C10.033 19.1234 10.0203 19.1399 10.0144 19.1591C10.0085 19.1784 10.0098 19.1991 10.018 19.2175C10.0278 19.2369 10.0446 19.2518 10.0649 19.2593C10.0853 19.2668 10.1078 19.2662 10.1278 19.2577C10.3956 19.1343 10.6634 19.0243 10.9312 18.9223C11.199 18.8203 11.4802 18.729 11.7587 18.6539H11.7748C11.9087 18.6136 12.0426 18.5787 12.1791 18.5438L12.388 18.4955H12.4121L12.5996 18.4553C12.8808 18.3936 13.1647 18.356 13.4485 18.3211H13.4807C13.5208 18.3152 13.5594 18.301 13.5937 18.2794C13.6281 18.2577 13.6576 18.2291 13.6803 18.1954C13.7031 18.1617 13.7185 18.1236 13.7257 18.0836C13.733 18.0436 13.7318 18.0024 13.7222 17.9629C13.7127 17.9234 13.695 17.8862 13.6704 17.8539C13.6457 17.8216 13.6146 17.7948 13.579 17.7752C13.5434 17.7556 13.5041 17.7437 13.4637 17.7402C13.4232 17.7367 13.3825 17.7417 13.3441 17.7548C13.0763 17.8192 12.8085 17.889 12.5648 17.9722L12.6157 17.9561C12.6311 17.213 12.7381 16.4748 12.9344 15.758C13.3141 14.5624 13.9743 13.4755 14.8596 12.5882C15.745 11.701 16.8296 11.0394 18.0227 10.6588C18.2372 10.5935 18.4543 10.537 18.6734 10.4897C18.885 10.4441 19.7313 10.3233 18.8073 10.8413C17.2718 11.7261 16.1246 13.1574 15.5937 14.8509C15.3259 15.7178 15.2214 17.4274 15.4089 18.7398C15.4678 19.1504 15.3285 19.2309 15.0741 19.3383C14.5385 19.5664 13.6012 19.9797 13.1191 20.5648C12.9317 20.7902 12.8513 20.5648 12.8058 20.4037C12.7121 19.9619 12.6547 19.5131 12.6344 19.0618C12.6334 19.0424 12.6281 19.0234 12.619 19.0063C12.6098 18.9891 12.5969 18.9742 12.5813 18.9627C12.5656 18.9511 12.5476 18.9432 12.5286 18.9395C12.5095 18.9357 12.4899 18.9363 12.471 18.9411C12.3398 18.9733 12.2032 19.0055 12.0801 19.0484C12.0535 19.0576 12.0306 19.075 12.0147 19.0982C11.9988 19.1214 11.9907 19.1491 11.9917 19.1772C12.0667 20.9029 12.5032 22.5078 13.5476 22.4569C13.5675 22.4554 13.5869 22.4497 13.6044 22.44C13.6219 22.4304 13.6371 22.4172 13.6491 22.4011C13.661 22.3851 13.6694 22.3667 13.6736 22.3471C13.6778 22.3276 13.6778 22.3073 13.6735 22.2878C13.5102 22.1994 13.3825 22.0572 13.312 21.8852C12.9665 20.8492 16.1694 19.4939 20.2749 18.8793C24.0456 18.313 27.2834 18.5707 27.8457 19.4322C27.962 19.5798 27.9748 19.7838 27.8779 19.9448C27.6409 20.3712 27.2868 20.7206 26.8576 20.9512C26.8396 20.9622 26.824 20.9766 26.8118 20.9938C26.7996 21.0109 26.7909 21.0304 26.7864 21.0509C26.7819 21.0715 26.7816 21.0928 26.7856 21.1135C26.7895 21.1342 26.7976 21.1538 26.8093 21.1713C26.8298 21.2033 26.8614 21.2266 26.8981 21.2365C26.9347 21.2464 26.9737 21.2423 27.0075 21.225C27.5328 20.9675 27.9706 20.5605 28.2662 20.0548C28.4327 19.6753 28.5237 19.2669 28.534 18.8525C28.8018 18.9357 29.5088 19.2202 29.7793 19.3302H29.8007C29.7895 19.3751 29.7823 19.4209 29.7793 19.4671C29.7716 19.6657 29.8399 19.8598 29.9704 20.0095C30.1009 20.1592 30.2835 20.2532 30.481 20.2722C30.5739 20.2765 30.6668 20.2624 30.7542 20.2305C30.8417 20.1986 30.922 20.1497 30.9904 20.0866C31.0589 20.0235 31.1142 19.9474 31.1532 19.8627C31.1922 19.778 31.214 19.6864 31.2174 19.5932C31.2303 19.3941 31.1658 19.1978 31.0376 19.0452C30.9093 18.8927 30.7271 18.7957 30.5292 18.7747V18.7398ZM25.248 16.9953C25.25 17.0463 25.2413 17.0972 25.2225 17.1446C25.2037 17.1921 25.1753 17.2351 25.139 17.271C25.1027 17.3069 25.0594 17.3347 25.0118 17.3529C24.9642 17.371 24.9133 17.379 24.8624 17.3764C23.9613 17.3067 23.0556 17.3228 22.1576 17.4247C22.1061 17.4289 22.0542 17.4221 22.0055 17.4048C21.9568 17.3876 21.9123 17.3602 21.8748 17.3244C21.8374 17.2887 21.808 17.2455 21.7884 17.1975C21.7688 17.1496 21.7595 17.098 21.7612 17.0463V16.7296C21.7615 16.6908 21.7749 16.6532 21.7992 16.623C21.8235 16.5928 21.8573 16.5717 21.8951 16.5632C22.9581 16.3855 24.042 16.3728 25.1088 16.5256C25.1471 16.5321 25.1817 16.5522 25.2063 16.5823C25.231 16.6124 25.2439 16.6504 25.2427 16.6893L25.248 16.9953ZM27.1387 16.0962C27.1212 16.1234 27.0948 16.1436 27.064 16.1534C27.0332 16.1632 27 16.1619 26.97 16.1499C24.6348 15.2615 20.9899 15.7634 20.9899 15.7634C19.7399 15.888 18.5106 16.1712 17.3317 16.6061C17.2684 16.6304 17.2 16.6387 17.1327 16.6302C17.0654 16.6217 17.0013 16.5967 16.9459 16.5574C16.8906 16.5182 16.8457 16.4658 16.8154 16.405C16.7851 16.3442 16.7702 16.2769 16.772 16.2089C16.7814 15.8877 16.8137 15.5675 16.8684 15.2508C16.9867 14.3844 17.3354 13.5659 17.878 12.881C17.9102 12.8434 17.9423 12.8058 17.9771 12.771C17.9827 12.7609 17.99 12.7518 17.9986 12.7441L18.0146 12.7253L18.0548 12.6824L18.0735 12.6636C19.6616 10.9996 22.4548 10.8091 24.4152 11.8933C25.3954 12.4464 26.208 13.2551 26.7665 14.2336C26.8522 14.3947 27.3932 15.648 27.1387 16.0962Z" fill="#0C9EF0"/>
<path d="M25.8963 14.0136C25.4533 13.2565 24.7778 12.6634 23.9707 12.3228C23.0707 11.9432 22.0906 11.7938 21.1186 11.888C20.7734 11.9152 20.4336 11.9901 20.109 12.1108C20.0776 12.1198 20.0505 12.1398 20.0326 12.1672C20.0146 12.1946 20.0071 12.2275 20.0113 12.2599C20.0155 12.2924 20.0312 12.3223 20.0555 12.3442C20.0798 12.366 20.1111 12.3784 20.1438 12.3791C20.8761 12.3017 21.6154 12.3215 22.3425 12.4382C25.0205 12.975 25.8775 14.2659 25.9712 14.3169C25.998 14.3303 26.0302 14.3034 26.0168 14.2766C25.9822 14.1851 25.9429 14.0956 25.8989 14.0082M13.92 18.6969C13.9427 18.7289 13.9722 18.7555 14.0063 18.7749C14.0404 18.7942 14.0783 18.8059 14.1174 18.8089C14.1564 18.812 14.1957 18.8065 14.2324 18.7926C14.2691 18.7788 14.3023 18.7571 14.3297 18.7291C14.4188 18.6392 14.4842 18.5285 14.5199 18.407C14.602 18.095 14.5823 17.7649 14.4636 17.465C14.3873 17.2736 14.2486 17.1137 14.07 17.0114C14.0538 17.0012 14.0358 16.9942 14.017 16.991C13.9981 16.9878 13.9788 16.9883 13.9602 16.9926C13.8503 17.0295 13.756 17.1023 13.6924 17.1993C13.6845 17.2092 13.6788 17.2207 13.6757 17.233C13.6726 17.2453 13.6722 17.2581 13.6745 17.2705C13.6768 17.283 13.6817 17.2948 13.689 17.3052C13.6962 17.3156 13.7056 17.3243 13.7165 17.3308C13.8239 17.3876 13.917 17.4681 13.9889 17.5662C14.0608 17.6642 14.1096 17.7774 14.1316 17.8971C14.1468 18.0197 14.1359 18.1441 14.0994 18.2621C14.0629 18.3801 14.0018 18.489 13.92 18.5814C13.9062 18.5975 13.8987 18.618 13.8987 18.6391C13.8987 18.6603 13.9062 18.6808 13.92 18.6969ZM8.91204 19.0887C8.7976 19.0792 8.68242 19.0925 8.57316 19.1279C8.4639 19.1633 8.36275 19.2202 8.27556 19.295C8.18837 19.3699 8.11689 19.4614 8.06525 19.5642C8.01361 19.667 7.98284 19.779 7.97473 19.8938C7.97093 20.1343 8.06037 20.3668 8.2242 20.5425C8.38803 20.7182 8.61349 20.8234 8.85313 20.8359C9.07994 20.8523 9.30412 20.7788 9.47741 20.6312C9.65071 20.4836 9.75927 20.2738 9.77973 20.0468C9.78926 19.805 9.70367 19.5691 9.54139 19.3899C9.37911 19.2107 9.15311 19.1026 8.91204 19.0887Z" fill="#0C9EF0"/>
<path d="M34.0027 20.0281C34.0032 13.4683 29.4666 7.78448 23.0808 6.3438C16.6944 4.90313 10.1653 8.09097 7.36116 14.0182C4.55697 19.9454 6.22647 27.0288 11.3812 31.072L11.649 31.284C11.74 31.3538 11.8338 31.4209 11.9168 31.488C13.3553 32.508 14.9738 33.2457 16.6864 33.6618H16.7266L16.9649 33.7182L17.0372 33.7316L17.2622 33.7799L17.3506 33.796L17.5702 33.8363L17.6559 33.8524C17.8005 33.8757 17.9451 33.8972 18.0897 33.9168L18.1754 33.9302L18.3388 33.949L18.5048 33.9678L18.6601 33.9839L18.8396 34H21.049L21.2016 33.9866L21.3971 33.9705L21.5578 33.9517L21.7453 33.9302L21.9086 33.9088L22.088 33.8819L22.2541 33.8551L22.4282 33.8282L22.5969 33.796L22.7683 33.7638L22.937 33.7263L23.103 33.6914L23.2717 33.6511L23.4351 33.6109L23.6413 33.5813L23.7966 33.5384L23.9707 33.4901L24.1234 33.4445L24.2948 33.3881C24.3456 33.3747 24.3957 33.3586 24.4447 33.3398L24.6188 33.2807L24.7634 33.2298L24.9375 33.1653L25.0767 33.1117L25.2481 33.0446L25.382 32.9909L25.5588 32.9157L25.69 32.8594L25.8668 32.7789L25.9926 32.7198L26.1694 32.6339L26.2899 32.5722L26.4667 32.4837L26.5845 32.4192C26.6461 32.3897 26.705 32.3575 26.7612 32.3253L26.8764 32.2609L27.0532 32.1589L27.1603 32.0945L27.3397 31.9871L27.4415 31.9227L27.6209 31.81L27.7173 31.7456L27.8967 31.6248L27.9878 31.5631L28.1699 31.4343L28.2529 31.3725L28.4377 31.2357L28.5127 31.1793L28.7002 31.0344L28.7671 30.978L28.9572 30.8251L29.0135 30.7741L29.209 30.6103L29.2545 30.5701L29.4554 30.3876L29.4848 30.3634L29.6964 30.1621C31.0624 28.8546 32.1491 27.2826 32.8907 25.5415C33.6323 23.8004 34.0134 21.9265 34.0107 20.0334M24.2707 24.7247C24.2519 24.5691 24.2332 24.4107 24.2091 24.2551C24.185 24.0994 24.1635 23.9437 24.1341 23.7908C24.1046 23.6378 24.0805 23.4821 24.0511 23.3291C24.0216 23.1762 23.9841 23.0205 23.9466 22.881C23.9357 22.8301 23.9441 22.7769 23.9702 22.7319C23.9962 22.6869 24.0381 22.6532 24.0876 22.6375C24.1371 22.6217 24.1907 22.625 24.2379 22.6467C24.2851 22.6684 24.3226 22.7069 24.343 22.7548C24.4019 22.9212 24.4421 23.0715 24.4849 23.2325C24.5277 23.3936 24.5652 23.5465 24.6001 23.7049C24.667 24.0243 24.7206 24.3409 24.7715 24.6603C24.8357 25.079 24.8786 25.5004 24.9134 25.919C25.1812 25.9325 25.4677 25.9512 25.7436 25.9781C26.4916 26.055 27.2295 26.2106 27.9449 26.4424C27.9889 26.4586 28.0254 26.4905 28.0473 26.5319C28.0693 26.5734 28.0752 26.6216 28.0639 26.6671C28.0526 26.7127 28.0249 26.7525 27.9862 26.7788C27.9474 26.8052 27.9003 26.8163 27.8539 26.8101H27.8405C27.4816 26.7483 27.1335 26.6624 26.7693 26.6222L26.5015 26.5819L26.3676 26.5631H26.2337L25.6981 26.5122C25.607 26.4987 25.5159 26.5122 25.4303 26.4934L25.1624 26.4773H24.9643V26.6141L24.9857 27.0945V28.5438C24.9857 28.8659 24.9616 29.1852 24.9509 29.5046C24.9402 29.824 24.9054 30.146 24.8759 30.4654C24.8682 30.5166 24.8419 30.5631 24.802 30.596C24.7621 30.6289 24.7115 30.6458 24.6599 30.6435C24.6083 30.6411 24.5594 30.6197 24.5226 30.5834C24.4859 30.547 24.4638 30.4983 24.4608 30.4466C24.4608 30.1299 24.4608 29.8133 24.4769 29.4966C24.4929 29.1799 24.4769 28.8605 24.4769 28.5438C24.4769 28.2271 24.4769 27.9104 24.4608 27.5964L24.4447 27.1214V26.6034V26.4236H23.5503C23.3682 26.4236 23.186 26.4397 23.0146 26.4451C22.8433 26.4504 22.6504 26.4638 22.479 26.48C22.1148 26.5041 21.7506 26.539 21.3891 26.5793C20.6633 26.6625 19.9349 26.7671 19.2252 26.9067C19.1755 26.9162 19.1241 26.9058 19.082 26.8777C19.04 26.8495 19.0106 26.806 19.0002 26.7564C18.9918 26.7093 19.001 26.6607 19.0263 26.62C19.0515 26.5793 19.0909 26.5495 19.1368 26.5363C19.5037 26.437 19.8626 26.3592 20.2295 26.2867C20.5964 26.2143 20.9606 26.1552 21.3302 26.0988C21.5123 26.0693 21.6997 26.0505 21.8845 26.0264C22.0693 26.0022 22.2541 25.9834 22.4389 25.9673C22.6237 25.9512 22.8084 25.9325 22.9959 25.9244C23.1834 25.9163 23.3682 25.8976 23.5556 25.8949C23.8502 25.8815 24.1448 25.8788 24.442 25.8949C24.4099 25.5004 24.3724 25.1085 24.3242 24.7194M17.1738 22.8165C17.0399 23.2621 16.7266 24.3356 16.5311 25.1756C16.0293 27.6243 15.6636 30.099 15.4358 32.5883C14.2283 32.1427 13.0924 31.5224 12.0641 30.7472C12.2788 29.1314 12.6236 27.5355 13.0951 25.9754C13.2667 25.4092 13.5021 24.8644 13.7968 24.3517C14.0328 24.007 14.359 23.734 14.7395 23.5626L14.8091 23.5304L14.9242 23.466L15.0715 23.3909C15.1733 23.3426 15.2724 23.2943 15.3715 23.2513L15.5241 23.1842L15.6741 23.1225L15.9794 23.0044C16.2472 22.9051 16.7025 22.7655 16.9864 22.6823C17.1336 22.6394 17.2113 22.6823 17.1738 22.8165ZM29.1019 26.5739C28.6841 25.0146 28.119 22.5723 26.4506 22.0114C24.6724 21.4049 22.7602 21.3378 20.9124 21.4558C19.5969 21.5405 18.2952 21.7737 17.0319 22.151C16.4722 22.3147 14.6779 23.0044 14.3217 23.1869C13.9144 23.371 13.5652 23.6634 13.3121 24.0323C12.9961 24.5815 12.7436 25.1649 12.5595 25.7714C12.1095 27.2661 11.7649 28.7907 11.5285 30.3339C11.2151 30.0655 10.9098 29.7971 10.6179 29.4992C5.41984 24.2916 5.39627 15.8536 10.5655 10.617C15.7346 5.38031 24.1542 5.31268 29.4066 10.4656C34.6588 15.6185 34.7705 24.0557 29.6562 29.3463C29.5316 28.412 29.3465 27.4868 29.1019 26.5766" fill="#0C9EF0"/>
</g>
</g>
<rect x="1.06074" y="1.04988" width="37.9" height="37.9" rx="6.95" stroke="white" stroke-opacity="0.15" stroke-width="2.1"/>
<defs>
<filter id="filter0_d_8_122" x="0.296457" y="0.285593" width="39.4286" height="39.4287" filterUnits="userSpaceOnUse" color-interpolation-filters="sRGB">
<feFlood flood-opacity="0" result="BackgroundImageFix"/>
<feColorMatrix in="SourceAlpha" type="matrix" values="0 0 0 0 0 0 0 0 0 0 0 0 0 0 0 0 0 0 127 0" result="hardAlpha"/>
<feOffset/>
<feGaussianBlur stdDeviation="2.85714"/>
<feComposite in2="hardAlpha" operator="out"/>
<feColorMatrix type="matrix" values="0 0 0 0 0 0 0 0 0 0 0 0 0 0 0 0 0 0 0.25 0"/>
<feBlend mode="normal" in2="BackgroundImageFix" result="effect1_dropShadow_8_122"/>
<feBlend mode="normal" in="SourceGraphic" in2="effect1_dropShadow_8_122" result="shape"/>
</filter>
<linearGradient id="paint0_linear_8_122" x1="20.0107" y1="-0.00012207" x2="20.0107" y2="39.9999" gradientUnits="userSpaceOnUse">
<stop stop-color="#152531"/>
<stop offset="1" stop-color="#0C161C"/>
</linearGradient>
<clipPath id="clip0_8_122">
<rect x="0.0107422" y="-0.00012207" width="40" height="40" rx="8" fill="white"/>
</clipPath>
</defs>
</svg>
