<svg width="41" height="40" viewBox="0 0 41 40" fill="none" xmlns="http://www.w3.org/2000/svg">
<rect x="0.0107422" y="-6.10352e-05" width="40" height="40" rx="8" fill="url(#paint0_linear_2_1590)"/>
<g filter="url(#filter0_d_2_1590)">
<path d="M19.9378 6.00652C18.9505 6.13709 17.6956 7.17275 16.8317 7.66439C14.6249 8.92013 12.381 10.1109 10.1648 11.3491C9.43224 11.7584 8.69425 12.1605 7.96783 12.5807C7.74358 12.7105 7.28459 12.9103 7.45552 13.2477C7.65716 13.6457 8.50164 13.9079 8.87694 14.1175C10.1992 14.8558 11.5457 15.5697 12.8922 16.2623C13.3783 16.5123 13.9891 17.0581 14.5589 16.8261C15.9145 16.2739 17.2364 15.3105 18.4984 14.5639C18.9042 14.3238 19.5967 13.7195 20.0893 13.7797C20.517 13.8319 21.0071 14.2549 21.3772 14.467C22.339 15.0181 23.3042 15.5688 24.2561 16.137C24.676 16.3877 25.3337 16.9542 25.847 16.8926C26.355 16.8316 26.9099 16.3784 27.3622 16.1484C28.6375 15.5 29.8766 14.7777 31.1502 14.1255C31.4668 13.9634 32.7181 13.4975 32.6084 13.0454C32.5422 12.7724 32.1259 12.6164 31.9078 12.4937L29.8623 11.3491C27.4692 10.0121 25.0709 8.68166 22.6651 7.36798C22.005 7.00748 20.7058 5.90495 19.9378 6.00652ZM7.29721 15.1807C6.88334 15.281 7.05871 16.3794 7.05871 16.7015V21.6617V25.7824C7.05871 26.2456 6.90869 27.0393 7.13658 27.4533C7.50463 28.1219 9.05022 28.6436 9.71029 29.0051C11.8894 30.1987 14.0439 31.4382 16.2256 32.6268C16.8833 32.9852 17.5409 33.3436 18.1953 33.7082C18.4253 33.8363 18.7371 34.0787 19.0175 33.9746C19.4491 33.8145 19.256 32.6403 19.256 32.2689V28.377C19.256 27.871 19.3989 27.1021 19.2103 26.629C19.0415 26.2057 18.3372 25.9635 17.968 25.7503C16.9267 25.149 15.2221 24.5393 14.4315 23.6297C14.1406 23.2951 14.2558 22.6854 14.2558 22.2721C14.2558 21.275 14.4841 19.9568 14.2318 18.9938C14.0981 18.4839 13.2299 18.2403 12.8164 18.0093C11.4915 17.2695 10.1516 16.5349 8.80118 15.8434C8.44426 15.6607 7.70437 15.0821 7.29721 15.1807ZM32.6609 15.1726C32.1822 15.1538 31.4112 15.7365 30.9986 15.9707C29.7763 16.6647 28.5207 17.3028 27.2864 17.9752C26.8641 18.2052 25.9315 18.4784 25.7953 18.9941C25.5358 19.9771 25.7713 21.3299 25.7713 22.3485C25.7713 22.7171 25.8801 23.3068 25.6393 23.616C25.3855 23.9417 24.836 24.1519 24.4833 24.354C23.6741 24.8177 22.8668 25.2838 22.059 25.7503C21.6838 25.967 21.0042 26.201 20.8274 26.629C20.6309 27.1045 20.7711 27.8676 20.7711 28.377V32.3452C20.7711 32.7141 20.5757 33.9041 21.0824 33.9917C21.3923 34.0453 21.7303 33.7739 21.9833 33.6318C22.6122 33.2784 23.2476 32.9365 23.8773 32.5847C26.021 31.387 28.1632 30.1847 30.3168 29.0051C30.9945 28.6339 32.4684 28.1525 32.8905 27.4972C33.0842 27.1966 32.9684 26.5855 32.9684 26.2403V22.9589V17.0067C32.9684 16.6467 33.1776 15.193 32.6609 15.1726Z" fill="#2F87C2"/>
</g>
<rect x="1.06074" y="1.04994" width="37.9" height="37.9" rx="6.95" stroke="white" stroke-opacity="0.15" stroke-width="2.1"/>
<defs>
<filter id="filter0_d_2_1590" x="2.01074" y="1.99994" width="36" height="36" filterUnits="userSpaceOnUse" color-interpolation-filters="sRGB">
<feFlood flood-opacity="0" result="BackgroundImageFix"/>
<feColorMatrix in="SourceAlpha" type="matrix" values="0 0 0 0 0 0 0 0 0 0 0 0 0 0 0 0 0 0 127 0" result="hardAlpha"/>
<feOffset/>
<feGaussianBlur stdDeviation="2"/>
<feComposite in2="hardAlpha" operator="out"/>
<feColorMatrix type="matrix" values="0 0 0 0 0 0 0 0 0 0 0 0 0 0 0 0 0 0 0.25 0"/>
<feBlend mode="normal" in2="BackgroundImageFix" result="effect1_dropShadow_2_1590"/>
<feBlend mode="normal" in="SourceGraphic" in2="effect1_dropShadow_2_1590" result="shape"/>
</filter>
<linearGradient id="paint0_linear_2_1590" x1="20.0107" y1="-6.10351e-05" x2="20.0107" y2="39.9999" gradientUnits="userSpaceOnUse">
<stop stop-color="#09202F"/>
<stop offset="1" stop-color="#05111A"/>
</linearGradient>
</defs>
</svg>
