<svg width="41" height="40" viewBox="0 0 41 40" fill="none" xmlns="http://www.w3.org/2000/svg">
<rect x="0.0107422" width="40" height="40" rx="8" fill="url(#paint0_linear_2_3521)"/>
<rect x="1.06074" y="1.05" width="37.9" height="37.9" rx="6.95" stroke="white" stroke-opacity="0.15" stroke-width="2.1"/>
<g filter="url(#filter0_d_2_3521)">
<path d="M13.3758 6.00012V8.28858H9.1779V10.3078H7.01123V12.5963H9.1779V14.6155H11.3446V16.7694H15.6779V18.9232H24.3446V16.7694H28.6779V14.6155H30.7091V21.2117H28.6779V27.5386H26.3758V31.8463H13.3758V34.0001H26.3758V31.8463H28.6779V27.5386H30.7091V21.2117H33.0112V10.3078H30.7091V12.5963H28.6779V14.6155H24.3446V16.7694H15.6779V14.6155H11.3446V12.5963H9.1779V10.3078H13.3758V8.28858H20.0112V6.00012H13.3758Z" fill="#353535"/>
<path d="M20.0117 6.00012V8.28858H26.3763V10.3078H30.7096V8.28858H26.3763V6.00012H20.0117Z" fill="#515151"/>
<path d="M13.3765 8.28857V10.3078H15.6785V8.28857H13.3765Z" fill="#A37B63"/>
<path d="M15.6777 8.28857V10.3078H17.8444V8.28857H15.6777Z" fill="#AB826B"/>
<path d="M17.8447 8.28857V10.3078H22.0426V8.28857H17.8447Z" fill="#ABA26B"/>
<path d="M22.043 8.28857V10.3078H24.3451V8.28857H22.043Z" fill="#AB826B"/>
<path d="M24.3452 8.28857V10.3078H26.3765V12.5963H28.6785V10.3078H26.3765V8.28857H24.3452Z" fill="#BF967E"/>
<path d="M9.17773 10.3079V12.5963H11.3444V10.3079H9.17773Z" fill="#958C55"/>
<path d="M11.3447 10.3079V12.5963H13.376V10.3079H11.3447Z" fill="#956C55"/>
<path d="M13.3765 10.3079V12.5963H15.6785V10.3079H13.3765Z" fill="#C33E1F"/>
<path d="M15.6777 10.3079V12.5963H17.8444V14.6156H20.0111V16.7694H24.3444V14.6156H20.0111V12.5963H17.8444V10.3079H15.6777Z" fill="#E38C3F"/>
<path d="M17.8447 10.3079V12.5963H20.0114V14.6156H24.3447V12.5963H22.0426V10.3079H17.8447Z" fill="#E4D25C"/>
<path d="M22.043 10.3079V12.5963H24.3451V10.3079H22.043Z" fill="#E38C3F"/>
<path d="M24.3452 10.3079V12.5963H26.3765V14.6156H28.6785V12.5963H26.3765V10.3079H24.3452Z" fill="#CC4628"/>
<path d="M28.6782 10.3079V12.5963H30.7095V10.3079H28.6782Z" fill="#BFB67E"/>
<path d="M7.01123 12.5963V21.2117H9.1779V27.5386H11.3446V31.8463H13.3758V27.5386H11.3446V21.2117H9.1779V12.5963H7.01123Z" fill="#515151"/>
<path d="M11.3447 12.5963V14.6155H13.376V12.5963H11.3447Z" fill="#DC8638"/>
<path d="M13.3765 12.5963V14.6155H15.6785V16.7694H17.8452V12.5963H13.3765Z" fill="#E2CF5A"/>
<path d="M24.3452 12.5963V14.6155H26.3765V12.5963H24.3452Z" fill="#EA9346"/>
<path d="M9.17773 14.6155V16.7693H11.3444V18.9232H15.6777V16.7693H11.3444V14.6155H9.17773Z" fill="#E7E7E7"/>
<path d="M17.8447 14.6155V16.7693H20.0114V14.6155H17.8447Z" fill="#C54021"/>
<path d="M28.6782 14.6155V16.7693H30.7095V14.6155H28.6782Z" fill="#A9A9A9"/>
<path d="M9.17773 16.7694V21.2117H11.3444V27.5386H13.3757V29.8271H15.6777V31.8463H20.0111V23.2309H17.8444V21.2117H15.6777V23.2309H13.3757V18.9233H11.3444V16.7694H9.17773Z" fill="#D8D8D8"/>
<path d="M24.3452 16.7694V18.9233H26.3765V16.7694H24.3452Z" fill="#EAD762"/>
<path d="M26.376 16.7694V18.9233H28.6781V16.7694H26.376Z" fill="#CB4627"/>
<path d="M28.6781 16.7694V21.2117H26.376V27.5386H28.6781V21.2117H30.7093V16.7694H28.6781Z" fill="#727272"/>
<path d="M13.3765 18.9232V23.2309H15.6785V18.9232H13.3765Z" fill="white"/>
<path d="M15.6777 18.9232V21.2117H17.8444V18.9232H15.6777Z" fill="#D85334"/>
<path d="M17.8447 18.9232V21.2117H24.3447V18.9232H17.8447Z" fill="#CACACA"/>
<path d="M24.3452 18.9232V21.2117H26.3765V18.9232H24.3452Z" fill="#E99245"/>
<path d="M26.376 18.9232V21.2117H28.6781V18.9232H26.376Z" fill="#969696"/>
<path d="M17.8447 21.2117V23.2309H20.0114V29.8271H22.0426V23.2309H24.3447V21.2117H17.8447Z" fill="#A8A8A8"/>
<path d="M24.3452 21.2117V23.2309H26.3765V21.2117H24.3452Z" fill="#CB4627"/>
<path d="M15.6777 23.2308V27.5385H17.8444V23.2308H15.6777Z" fill="white"/>
<path d="M22.043 23.2308V29.827H20.0117V31.8462H26.3763V27.5385H24.3451V25.5193H26.3763V23.2308H22.043Z" fill="#969696"/>
<path d="M24.3452 25.5194V27.5386H26.3765V25.5194H24.3452Z" fill="#CB4627"/>
<path d="M13.3765 29.827V31.8463H15.6785V29.827H13.3765Z" fill="#969696"/>
</g>
<defs>
<filter id="filter0_d_2_3521" x="2.01074" y="2" width="36" height="36.0001" filterUnits="userSpaceOnUse" color-interpolation-filters="sRGB">
<feFlood flood-opacity="0" result="BackgroundImageFix"/>
<feColorMatrix in="SourceAlpha" type="matrix" values="0 0 0 0 0 0 0 0 0 0 0 0 0 0 0 0 0 0 127 0" result="hardAlpha"/>
<feOffset/>
<feGaussianBlur stdDeviation="2"/>
<feComposite in2="hardAlpha" operator="out"/>
<feColorMatrix type="matrix" values="0 0 0 0 0 0 0 0 0 0 0 0 0 0 0 0 0 0 0.25 0"/>
<feBlend mode="normal" in2="BackgroundImageFix" result="effect1_dropShadow_2_3521"/>
<feBlend mode="normal" in="SourceGraphic" in2="effect1_dropShadow_2_3521" result="shape"/>
</filter>
<linearGradient id="paint0_linear_2_3521" x1="20.0107" y1="0" x2="20.0107" y2="40" gradientUnits="userSpaceOnUse">
<stop stop-color="#342C18"/>
<stop offset="1" stop-color="#251A11"/>
</linearGradient>
</defs>
</svg>
