<svg width="41" height="40" viewBox="0 0 41 40" fill="none" xmlns="http://www.w3.org/2000/svg">
<rect x="0.0107422" width="40" height="40" rx="8" fill="url(#paint0_linear_2_1607)"/>
<g filter="url(#filter0_d_2_1607)">
<path d="M13.4936 16.0974L20.1613 13.9219C20.6031 13.7778 20.8855 13.3406 20.7574 12.8786C20.6384 12.4494 20.1493 12.1435 19.7069 12.286L13.0398 14.4614C12.598 14.6056 12.315 15.0427 12.4431 15.5047C12.5621 15.9339 13.0512 16.2399 13.4936 16.0974V16.0974Z" fill="#FF3E3E"/>
<path d="M19.7064 13.9219L26.3684 16.0945C26.8108 16.2387 27.2999 15.9311 27.4189 15.5019C27.5471 15.0399 27.2641 14.6028 26.8222 14.4586L20.162 12.286C19.7195 12.1418 19.2299 12.4494 19.1109 12.8786C18.9833 13.3406 19.2657 13.7777 19.7076 13.9219H19.7064Z" fill="#FF3E3E"/>
<path d="M12.836 16.0119L19.4848 19.0254C19.9079 19.2177 20.4004 19.1498 20.6533 18.7212C20.8702 18.353 20.7705 17.7531 20.3469 17.5608L13.6981 14.5468C13.275 14.3551 12.7825 14.4229 12.5297 14.8516C12.3127 15.2197 12.4124 15.8197 12.836 16.0119Z" fill="#FF3E3E"/>
<path d="M26.1623 14.544L19.485 17.5625C19.0608 17.7542 18.9611 18.3542 19.1781 18.7229C19.4315 19.1515 19.9234 19.2188 20.347 19.0271L27.0249 16.0091C27.4486 15.8174 27.5482 15.2174 27.3313 14.8488C27.0785 14.4196 26.5865 14.3528 26.1623 14.544Z" fill="#FF3E3E"/>
<path d="M12.836 25.3865L19.4661 28.3898C19.8897 28.5815 20.3816 28.5142 20.6345 28.0856C20.852 27.7175 20.7518 27.1169 20.3281 26.9252L13.6981 23.9219C13.275 23.7297 12.7825 23.7975 12.5297 24.2262C12.3127 24.5943 12.4124 25.1948 12.836 25.3865V25.3865Z" fill="#FF3E3E"/>
<path d="M20.3281 28.3897L27.0322 25.3672C27.4558 25.1761 27.5554 24.5756 27.3385 24.2069C27.0851 23.7777 26.5937 23.7115 26.1701 23.9026L19.466 26.9251C19.0418 27.1163 18.9427 27.7168 19.1597 28.0855C19.4125 28.5142 19.9044 28.5809 20.3281 28.3897V28.3897Z" fill="#FF3E3E"/>
<path d="M25.7417 15.2768L25.748 23.6907V24.635C25.748 25.7287 27.4562 25.7292 27.4562 24.635L27.4499 16.2212V15.2768C27.4499 14.1826 25.7417 14.1826 25.7417 15.2768Z" fill="#FF3E3E"/>
<path d="M12.4131 15.2796V24.6542C12.4131 25.7484 14.1213 25.7484 14.1213 24.6542V15.2796C14.1213 14.1854 12.4131 14.1854 12.4131 15.2796Z" fill="#FF3E3E"/>
<path d="M19.061 18.2948L19.0439 26.7126V27.6576C19.0439 28.7512 20.7521 28.7512 20.7521 27.6576L20.7687 19.2398V18.2948C20.7687 17.2012 19.0605 17.2012 19.0605 18.2948H19.061Z" fill="#FF3E3E"/>
<path d="M6.32416 20.192V19.2221C7.19493 19.2221 7.80239 19.0396 8.14653 18.6747C8.49588 18.3097 8.67056 17.6996 8.67056 16.8445V14.3416C8.67056 13.6221 8.73834 12.999 8.87391 12.4723C9.0147 11.9457 9.24152 11.5103 9.55437 11.1662C9.86722 10.822 10.2844 10.5665 10.8058 10.3997C11.3272 10.2328 11.9712 10.1494 12.7376 10.1494V11.6824C12.1328 11.6824 11.6557 11.7762 11.3063 11.964C10.9622 12.1517 10.7171 12.4437 10.5711 12.8399C10.4304 13.231 10.36 13.7316 10.36 14.3416V17.4702C10.36 17.8769 10.3052 18.2471 10.1957 18.5808C10.0914 18.9145 9.8959 19.2013 9.60912 19.4411C9.32234 19.681 8.91302 19.8661 8.38117 19.9965C7.85453 20.1268 7.16886 20.192 6.32416 20.192ZM12.7376 30.172C11.9712 30.172 11.3272 30.0886 10.8058 29.9217C10.2844 29.7549 9.86722 29.4994 9.55437 29.1552C9.24152 28.8111 9.0147 28.3757 8.87391 27.8491C8.73834 27.3224 8.67056 26.6993 8.67056 25.9798V23.477C8.67056 22.6218 8.49588 22.0118 8.14653 21.6468C7.80239 21.2818 7.19493 21.0993 6.32416 21.0993V20.1294C7.16886 20.1294 7.85453 20.1946 8.38117 20.325C8.91302 20.4553 9.32234 20.6404 9.60912 20.8803C9.8959 21.1201 10.0914 21.4069 10.1957 21.7406C10.3052 22.0743 10.36 22.4445 10.36 22.8512V25.9798C10.36 26.5898 10.4304 27.0904 10.5711 27.4815C10.7171 27.8725 10.9622 28.1619 11.3063 28.3496C11.6557 28.5426 12.1328 28.639 12.7376 28.639V30.172ZM6.32416 21.0993V19.2221H8.16999V21.0993H6.32416Z" fill="#FF3E3E"/>
<path d="M33.6968 20.0237V19.0538C32.8261 19.0538 32.2186 18.8713 31.8745 18.5063C31.5251 18.1413 31.3504 17.5313 31.3504 16.6761V14.1733C31.3504 13.4537 31.2827 12.8306 31.1471 12.304C31.0063 11.7774 30.7795 11.342 30.4666 10.9978C30.1538 10.6537 29.7366 10.3982 29.2152 10.2314C28.6938 10.0645 28.0498 9.98107 27.2833 9.98107V11.5141C27.8882 11.5141 28.3653 11.6079 28.7146 11.7956C29.0588 11.9833 29.3039 12.2753 29.4499 12.6716C29.5906 13.0627 29.661 13.5632 29.661 14.1733V17.3018C29.661 17.7085 29.7158 18.0788 29.8253 18.4125C29.9296 18.7462 30.1251 19.033 30.4119 19.2728C30.6987 19.5127 31.108 19.6978 31.6398 19.8281C32.1665 19.9585 32.8521 20.0237 33.6968 20.0237ZM27.2833 30.0037C28.0498 30.0037 28.6938 29.9202 29.2152 29.7534C29.7366 29.5865 30.1538 29.331 30.4666 28.9869C30.7795 28.6428 31.0063 28.2074 31.1471 27.6807C31.2827 27.1541 31.3504 26.531 31.3504 25.8114V23.3086C31.3504 22.4535 31.5251 21.8434 31.8745 21.4784C32.2186 21.1134 32.8261 20.9309 33.6968 20.9309V19.9611C32.8521 19.9611 32.1665 20.0263 31.6398 20.1566C31.108 20.287 30.6987 20.4721 30.4119 20.7119C30.1251 20.9518 29.9296 21.2386 29.8253 21.5723C29.7158 21.906 29.661 22.2762 29.661 22.6829V25.8114C29.661 26.4215 29.5906 26.9221 29.4499 27.3131C29.3039 27.7042 29.0588 27.9936 28.7146 28.1813C28.3653 28.3742 27.8882 28.4707 27.2833 28.4707V30.0037ZM33.6968 20.9309V19.0538H31.851V20.9309H33.6968Z" fill="#FF3E3E"/>
</g>
<rect x="1.06074" y="1.05" width="37.9" height="37.9" rx="6.95" stroke="white" stroke-opacity="0.15" stroke-width="2.1"/>
<defs>
<filter id="filter0_d_2_1607" x="2.01074" y="1.75" width="36" height="36.25" filterUnits="userSpaceOnUse" color-interpolation-filters="sRGB">
<feFlood flood-opacity="0" result="BackgroundImageFix"/>
<feColorMatrix in="SourceAlpha" type="matrix" values="0 0 0 0 0 0 0 0 0 0 0 0 0 0 0 0 0 0 127 0" result="hardAlpha"/>
<feOffset/>
<feGaussianBlur stdDeviation="2"/>
<feComposite in2="hardAlpha" operator="out"/>
<feColorMatrix type="matrix" values="0 0 0 0 0 0 0 0 0 0 0 0 0 0 0 0 0 0 0.25 0"/>
<feBlend mode="normal" in2="BackgroundImageFix" result="effect1_dropShadow_2_1607"/>
<feBlend mode="normal" in="SourceGraphic" in2="effect1_dropShadow_2_1607" result="shape"/>
</filter>
<linearGradient id="paint0_linear_2_1607" x1="20.0107" y1="0" x2="20.0107" y2="40" gradientUnits="userSpaceOnUse">
<stop stop-color="#310D0D"/>
<stop offset="1" stop-color="#1D0808"/>
</linearGradient>
</defs>
</svg>
