<svg width="41" height="40" viewBox="0 0 41 40" fill="none" xmlns="http://www.w3.org/2000/svg">
<rect x="0.0107422" y="-6.10352e-05" width="40" height="40" rx="8" fill="url(#paint0_linear_2_1409)"/>
<g filter="url(#filter0_d_2_1409)">
<path d="M12.8945 12L13.3828 14.087C10.941 14.087 5.01074 14.087 5.01074 14.087C5.01074 14.087 5.15031 14.713 5.22008 14.7826C5.42938 15.1304 5.63868 15.5478 5.91775 15.8261C7.24333 17.3565 9.54559 17.9826 11.4293 18.3304C12.7549 18.6087 14.0805 18.6783 15.4061 18.7478L16.941 22.8522H17.7782L18.2666 24.1739H17.5689L16.3829 28H28.034L26.848 24.1739H26.1503L26.6386 22.8522H27.4758C27.4758 22.8522 28.1736 18.6087 30.3364 16.6609C32.4294 14.7131 35.0107 14.4348 35.0107 14.4348V12H12.8945ZM24.6154 22.5043C24.0572 22.8522 23.4294 22.8522 23.0108 23.1304C22.7317 23.2696 22.5921 23.6869 22.5921 23.6869C22.313 23.0609 21.9642 22.8522 21.5456 22.7131C21.127 22.5739 20.3596 22.6435 19.3131 21.7391C18.6154 21.113 18.5456 20.2783 18.6154 19.8609V19.7913C18.6154 19.7217 18.6154 19.7217 18.6154 19.6522C18.6154 19.5826 18.6154 19.5131 18.6851 19.4435C18.8247 19.0261 19.1736 18.6087 19.8712 18.3304C19.8712 18.3304 19.3829 19.0261 19.8712 19.7217C20.1503 20.1391 20.7084 20.3478 21.1968 20.0695C21.4061 19.9304 21.5457 19.6522 21.6154 19.4435C21.755 18.9565 21.7549 18.4696 21.3363 18.1217C20.7084 17.5652 20.5689 16.8 20.9875 16.3131C20.9875 16.3131 21.127 16.9391 21.7549 16.8696C22.1735 16.8696 22.1735 16.7304 22.034 16.5913C21.9642 16.3826 21.0573 15.0609 22.3828 14.087C22.3828 14.087 23.22 13.5304 24.1968 13.6C23.6386 13.6696 23.0107 14.0174 22.8014 14.5739C22.8014 14.5739 22.8014 14.5739 22.8014 14.6435C22.5921 15.2 22.7317 15.8261 23.1503 16.3826C23.4293 16.8 23.7782 17.1478 23.9177 17.7044C23.7084 17.6348 23.5689 17.7044 23.4294 17.8435C23.2898 17.9826 23.22 18.2609 23.2898 18.4696C23.3595 18.6087 23.4991 18.7478 23.6386 18.7478C23.7084 18.7478 23.7084 18.7478 23.7782 18.7478H23.8479C24.0572 18.6783 24.1968 18.4 24.127 18.1913C24.2666 18.3305 24.3363 18.6783 24.2665 18.887C24.2665 19.0957 24.1271 19.3044 24.0573 19.4435C23.9875 19.5826 23.848 19.7217 23.7782 19.8609C23.7084 20 23.6386 20.1391 23.6386 20.2783C23.6386 20.4174 23.6387 20.6261 23.7084 20.7652C23.9875 21.1826 24.5456 20.7652 24.6851 20.4174C24.8944 20 24.8247 19.5131 24.5456 19.0957C24.5456 19.0957 25.034 19.3739 25.3828 20.3478C25.6619 21.1826 25.1735 22.1565 24.6154 22.5043Z" fill="#F16436"/>
</g>
<rect x="1.06074" y="1.04994" width="37.9" height="37.9" rx="6.95" stroke="white" stroke-opacity="0.15" stroke-width="2.1"/>
<defs>
<filter id="filter0_d_2_1409" x="1.01074" y="1.99994" width="38" height="36" filterUnits="userSpaceOnUse" color-interpolation-filters="sRGB">
<feFlood flood-opacity="0" result="BackgroundImageFix"/>
<feColorMatrix in="SourceAlpha" type="matrix" values="0 0 0 0 0 0 0 0 0 0 0 0 0 0 0 0 0 0 127 0" result="hardAlpha"/>
<feOffset/>
<feGaussianBlur stdDeviation="2"/>
<feComposite in2="hardAlpha" operator="out"/>
<feColorMatrix type="matrix" values="0 0 0 0 0 0 0 0 0 0 0 0 0 0 0 0 0 0 0.25 0"/>
<feBlend mode="normal" in2="BackgroundImageFix" result="effect1_dropShadow_2_1409"/>
<feBlend mode="normal" in="SourceGraphic" in2="effect1_dropShadow_2_1409" result="shape"/>
</filter>
<linearGradient id="paint0_linear_2_1409" x1="20.0107" y1="-6.10351e-05" x2="20.0107" y2="39.9999" gradientUnits="userSpaceOnUse">
<stop stop-color="#2E140B"/>
<stop offset="1" stop-color="#1E0C07"/>
</linearGradient>
</defs>
</svg>
