<svg width="41" height="40" viewBox="0 0 41 40" fill="none" xmlns="http://www.w3.org/2000/svg">
<rect x="0.0107422" y="-6.10352e-05" width="40" height="40" rx="8" fill="url(#paint0_linear_2_1364)"/>
<g filter="url(#filter0_d_2_1364)">
<path d="M30.6126 26.2924L30.607 26.3468L30.6015 26.4066L30.5904 26.4611L30.5739 26.5155L30.5632 26.5645L30.5465 26.619L30.5245 26.668L30.5023 26.7115L30.4806 26.7605L30.453 26.804L30.4254 26.8476L30.3925 26.8911L30.3648 26.9347L30.332 26.9727L30.2933 27.0109L30.2605 27.0435L30.2164 27.0816L30.178 27.1143L30.1338 27.147L30.0899 27.1738L30.046 27.2065L29.9963 27.2337L29.9468 27.2555L29.8975 27.2827L29.8422 27.3045L29.7872 27.3263L29.7323 27.3425L29.6774 27.3589L29.6277 27.3752L29.5728 27.3861L29.5233 27.397L29.4739 27.4079L29.4187 27.4188L29.3637 27.4242L29.3143 27.4296L29.259 27.4351L29.1986 27.4406L29.1436 27.446H29.0887H29.0283H28.9675H28.9126L28.8576 27.4406H28.7972L28.7422 27.4351L28.687 27.4296L28.6265 27.4242L28.5716 27.4133L28.5167 27.4079L28.4614 27.397L28.4064 27.3861L28.3515 27.3752L28.2966 27.3643L28.2414 27.3481L28.1919 27.3371L28.137 27.3208L28.082 27.3045L28.0323 27.2827L27.9774 27.2663L27.928 27.2501L27.873 27.2283L27.8233 27.2065L27.7739 27.1847L27.7245 27.1578L27.6748 27.136L27.6254 27.1088L27.5815 27.0816L27.5317 27.0544L27.4879 27.0272L27.4437 27L27.3998 26.9673L27.3559 26.9347L27.3117 26.902L27.2678 26.8693L27.2291 26.8367L27.1852 26.7986L27.2184 26.7551L27.2567 26.7169L27.2899 26.6734L27.3283 26.6298L27.3614 26.5918L27.3942 26.5482L27.4329 26.5046L27.4657 26.4666L27.5044 26.423L27.5373 26.3849L27.5759 26.3414L27.6088 26.2978L27.6419 26.2597L27.6803 26.2162L27.7134 26.1726L27.7518 26.1345L27.7849 26.091L27.8288 26.1237L27.8783 26.1563L27.9225 26.189L27.9719 26.2217L28.0161 26.2489L28.0655 26.2815L28.1093 26.3087L28.1591 26.3305L28.203 26.3577L28.2524 26.3795L28.3021 26.4012L28.3515 26.423L28.401 26.4394L28.4507 26.4611L28.5056 26.4774L28.5606 26.4938L28.6099 26.5101L28.6652 26.521L28.7201 26.5319L28.7751 26.5428L28.8355 26.5482L28.8908 26.5591H28.9457L29.0061 26.5645H29.0611H29.1271L29.1875 26.5591L29.2428 26.5482L29.2922 26.5373L29.3416 26.5264L29.3858 26.5101L29.4242 26.4884L29.4684 26.4557L29.5012 26.4176L29.5233 26.374L29.54 26.325L29.5454 26.2706V26.2597L29.54 26.1944L29.5178 26.1399L29.4902 26.1019L29.4518 26.0692L29.4076 26.0365L29.3637 26.0148L29.3143 25.993L29.259 25.9712L29.1931 25.9441L29.1547 25.9332L29.1109 25.9223L29.0611 25.9059L29.0117 25.895L28.9568 25.8787L28.9015 25.8678L28.8411 25.8515L28.7861 25.8406L28.7256 25.8243L28.6707 25.8134L28.6154 25.7971L28.5606 25.7862L28.5056 25.7698L28.4558 25.7536L28.401 25.7426L28.3515 25.7263L28.3021 25.71L28.2524 25.6936L28.1919 25.6718L28.137 25.65L28.082 25.6283L28.0268 25.6065L27.9774 25.5793L27.9225 25.5521L27.8783 25.5249L27.8288 25.4977L27.7849 25.4651L27.7407 25.4379L27.7024 25.4051L27.6638 25.3671L27.6254 25.3289L27.5922 25.2908L27.5594 25.2527L27.5317 25.2147L27.5044 25.1711L27.4768 25.1222L27.4547 25.0844L27.4381 25.0408L27.4219 24.9918L27.4053 24.9483L27.3942 24.8938L27.3832 24.8448L27.3776 24.7904L27.3722 24.736L27.3666 24.6762V24.6162V24.6054V24.5509L27.3722 24.4965L27.3776 24.4475L27.3832 24.3931L27.3942 24.3441L27.4053 24.2951L27.4219 24.2461L27.4329 24.1971L27.4547 24.1481L27.4768 24.0992L27.4989 24.0502L27.5263 24.0012L27.5538 23.9522L27.5867 23.9086L27.6199 23.8651L27.6582 23.8216L27.6969 23.7835L27.7353 23.7399L27.7795 23.7018L27.8178 23.6746L27.862 23.6419L27.9059 23.6093L27.9498 23.5821L27.9995 23.5549L28.0489 23.5331L28.0983 23.5059L28.148 23.4841L28.203 23.4677L28.2579 23.446L28.3076 23.4297L28.3515 23.4187L28.401 23.4079L28.4507 23.397L28.5056 23.3861L28.555 23.3752L28.6099 23.3698L28.6652 23.3644L28.7201 23.3589L28.7751 23.3535H28.83H28.8908H28.9513H29.0117L29.0721 23.3589L29.1326 23.3644H29.1875L29.2483 23.3698L29.3032 23.3807L29.3637 23.3861L29.4187 23.397L29.4684 23.4079L29.5233 23.4187L29.5782 23.4297L29.6277 23.4405L29.6829 23.4569L29.7323 23.4732L29.7818 23.4841L29.837 23.5059L29.8864 23.5222L29.9358 23.5439L29.9852 23.5657L30.0404 23.5875L30.0899 23.6147L30.1338 23.6365L30.1835 23.6637L30.2329 23.6909L30.2768 23.7182L30.3265 23.7508L30.3704 23.778L30.4146 23.8107L30.4585 23.8434L30.5023 23.876L30.4696 23.9196L30.4419 23.9631L30.4091 24.0066L30.3759 24.0502L30.3431 24.0992L30.3155 24.1427L30.2823 24.1863L30.2495 24.2298L30.2219 24.2733L30.189 24.3169L30.1559 24.3605L30.1282 24.404L30.0954 24.453L30.0622 24.4965L30.0294 24.54L30.0018 24.5836L29.9689 24.6271L29.9248 24.5945L29.8754 24.5672L29.8314 24.54L29.7872 24.5074L29.7379 24.4856L29.6936 24.4584L29.6443 24.4366L29.6004 24.4149L29.5506 24.3931L29.5067 24.3713L29.4574 24.355L29.4132 24.3332L29.3526 24.3169L29.2977 24.3005L29.2428 24.2843L29.1875 24.2733L29.1326 24.2625L29.0777 24.2515L29.0228 24.2461L28.9675 24.2407L28.9181 24.2352H28.8631H28.7972L28.7367 24.2461L28.6814 24.257L28.6321 24.2679L28.5882 24.2897L28.5495 24.3114L28.5 24.355L28.4669 24.404L28.4452 24.453L28.4396 24.5074V24.5183L28.4452 24.589L28.4724 24.6489L28.4946 24.6816L28.5329 24.7197L28.5826 24.7469L28.6265 24.7741L28.6814 24.7959L28.7422 24.8177L28.8082 24.8394L28.8521 24.8503L28.896 24.8666L28.9457 24.8775L28.9951 24.8938L29.05 24.9047L29.1109 24.9211L29.1713 24.9373L29.2318 24.9537L29.2922 24.9646L29.3471 24.9809L29.4076 24.9973L29.4629 25.0081L29.5178 25.0245L29.5728 25.0408L29.6221 25.0571L29.6774 25.0735L29.7268 25.0898L29.7762 25.1061L29.837 25.1276L29.8919 25.1548L29.9468 25.1766L30.0018 25.2038L30.0515 25.231L30.101 25.2582L30.1448 25.2854L30.189 25.3181L30.2329 25.3453L30.2768 25.3834L30.321 25.4215L30.3594 25.4651L30.398 25.5031L30.4308 25.5467L30.464 25.5957L30.4913 25.6392L30.519 25.6882L30.5411 25.7318L30.5576 25.7807L30.5739 25.8297L30.5849 25.8787L30.596 25.9332L30.607 25.9876L30.6126 26.042L30.6181 26.1019V26.1617V26.1726V26.2325L30.6126 26.2924ZM26.7545 27.3807H26.6993H26.6444H26.5894H26.5345H26.4792H26.4243H26.3694H26.3144H26.2537H26.1987H26.1438H26.0889H26.0336H25.9787H25.9237H25.8688H25.8135H25.7586H25.7037H25.6488H25.5938H25.5386H25.4836H25.4287H25.3737H25.3185H25.2635H25.2086H25.1482H25.0929H25.0379H24.983H24.9281H24.8729H24.8179H24.763H24.708H24.6528H24.5979H24.543H24.488H24.4327H24.3778H24.3228H24.2679H24.2127H24.1577H24.0973H24.0423H23.9874H23.9321H23.8772H23.8222H23.7674H23.7122H23.6572H23.6023V27.3263V27.2718V27.2174V27.1632V27.1088V27.0544V27V26.9456V26.8911V26.8367V26.7823V26.7278V26.6734V26.619V26.5645V26.5101V26.4557V26.4012V26.3522V26.2978V26.2434V26.189V26.1345V26.0801V26.0257V25.9712V25.9168V25.8624V25.808V25.7536V25.6991V25.6446V25.5902V25.5358V25.4813V25.4269V25.3725V25.3181V25.2637V25.2092V25.1548V25.1007V25.0463V24.9918V24.9373V24.8829V24.8286V24.7741V24.7197V24.6652V24.6108V24.5564V24.5019V24.4475V24.3985V24.3441V24.2897V24.2352V24.1808V24.1264V24.072V24.0175V23.9631V23.9086V23.8542V23.7998V23.7453V23.6909V23.6365V23.5821V23.5277V23.4732V23.4187H23.6572H23.7122H23.7674H23.8222H23.8772H23.9321H23.9874H24.0423H24.0973H24.1522H24.2075H24.2624H24.3173H24.3723H24.422H24.4769H24.5319H24.5868H24.6421H24.697H24.7519H24.8069H24.8621H24.917H24.9719H25.0269H25.0822H25.1371H25.192H25.247H25.3022H25.3572H25.4121H25.467H25.522H25.5773H25.6322H25.6871H25.742H25.7973H25.8522H25.9071H25.9621H26.0119H26.0668H26.1217H26.1767H26.2319H26.2868H26.3417H26.3967H26.4519H26.5069H26.5618H26.6168H26.672H26.727H26.7819V23.4732V23.5222V23.5766V23.6311V23.6855V23.7345V23.7889V23.8434V23.8923V23.9468V24.0012V24.0502V24.1046V24.159V24.2135V24.2625V24.3169H26.727H26.672H26.6168H26.5618H26.5069H26.4519H26.4022H26.3473H26.2924H26.2374H26.1822H26.1272H26.0723H26.0173H25.9621H25.9071H25.8522H25.7973H25.742H25.6926H25.6377H25.5827H25.5275H25.4726H25.4176H25.3627H25.3074H25.2525H25.1976H25.1427H25.0874H25.0324H24.983H24.9281H24.8729H24.8179H24.763H24.708H24.6528V24.3713V24.4257V24.4801V24.5346V24.589V24.638V24.6924V24.7469V24.8013V24.8557V24.9101V24.9646H24.708H24.763H24.8179H24.8729H24.9281H24.983H25.0379H25.0929H25.1427H25.1976H25.2525H25.3074H25.3627H25.4176H25.4726H25.5275H25.5827H25.6377H25.6926H25.7476H25.8028H25.8577H25.9127H25.9677H26.0229H26.0778H26.1272H26.1822H26.2374H26.2924H26.3473H26.4022H26.4574H26.5124H26.5673V25.019V25.068V25.1222V25.1766V25.2255V25.2799V25.3344V25.3834V25.4379V25.4923V25.5467V25.5957V25.65V25.7045V25.7536V25.808H26.5124H26.4574H26.4022H26.3473H26.2924H26.2374H26.1822H26.1272H26.0778H26.0229H25.9677H25.9127H25.8577H25.8028H25.7476H25.6926H25.6377H25.5827H25.5275H25.4726H25.4176H25.3627H25.3074H25.2525H25.1976H25.1427H25.0929H25.0379H24.983H24.9281H24.8729H24.8179H24.763H24.708H24.6528V25.8624V25.9223V25.9767V26.0311V26.091V26.1455V26.1999V26.2597V26.3141V26.3686V26.4284V26.4828H24.708H24.763H24.8179H24.8729H24.9281H24.983H25.0379H25.0929H25.1482H25.2086H25.2635H25.3185H25.3737H25.4287H25.4836H25.5386H25.5938H25.6488H25.7037H25.7586H25.8135H25.8688H25.9237H25.9787H26.0336H26.0889H26.1438H26.1987H26.2537H26.3144H26.3694H26.4243H26.4792H26.5345H26.5894H26.6444H26.6993H26.7545H26.8095V26.5373V26.5863V26.6408V26.6952V26.7496V26.7986V26.853V26.9074V26.9565V27.0109V27.0653V27.1143V27.1684V27.2228V27.2772V27.3263V27.3807H26.7545ZM22.735 27.3807H22.6801H22.6251H22.5644H22.5095H22.4545H22.3996H22.3443H22.2894H22.2289H22.174H22.119H22.0638H22.0089H21.9539H21.8935H21.8382H21.7833H21.7283V27.3263V27.2718V27.2174V27.1629V27.1082V27.0538V26.9993V26.9449V26.8905V26.8361V26.7816V26.7269V26.6724V26.618V26.5636V26.5091V26.4544V26.3999V26.3455V26.2911V26.2367V26.1823V26.1275V26.0731V26.0186V25.9642V25.9098V25.8553V25.8006V25.7461V25.6917V25.6373V25.5829V25.5284V25.4737V25.4193V25.3648V25.3104V25.256V25.2012V25.1468V25.0923V25.0379L21.7007 25.0814L21.6679 25.1308L21.6402 25.1743L21.6074 25.2179L21.5798 25.2668L21.5466 25.3104L21.5193 25.354L21.4917 25.4033L21.4589 25.4468L21.4312 25.4903L21.3981 25.5339L21.3708 25.5832L21.3376 25.6267L21.3103 25.6703L21.2827 25.7193L21.2495 25.7631L21.2222 25.8067L21.189 25.8556L21.1618 25.8992L21.1286 25.9427L21.1013 25.992L21.0736 26.0356L21.0406 26.0792L21.0132 26.1282L20.9801 26.172L20.9528 26.2155L20.9196 26.2591L20.8919 26.308L20.8646 26.3519L20.8315 26.3955L20.8042 26.4445L20.7711 26.488L20.7435 26.5315L20.7106 26.5809L20.683 26.6244H20.6612L20.6281 26.5754L20.6004 26.5315L20.5676 26.4825L20.5399 26.439L20.5071 26.3901L20.4795 26.3462L20.4467 26.2972L20.419 26.2536L20.3859 26.2047L20.3585 26.1611L20.3254 26.1118L20.2981 26.0682L20.265 26.0192L20.2373 25.9757L20.2045 25.9264L20.1768 25.8829L20.1441 25.8339L20.1109 25.7904L20.0833 25.7411L20.0504 25.6975L20.0228 25.6485L19.99 25.605L19.9624 25.5556L19.9295 25.5121L19.9019 25.4631L19.8687 25.4196L19.8414 25.3706L19.8083 25.3267L19.781 25.2778L19.7478 25.2342L19.7202 25.1852L19.6874 25.1417L19.6597 25.0923L19.6269 25.0488V25.1032V25.1577V25.2121V25.2668V25.3213V25.3757V25.4301V25.4846V25.5393V25.5938V25.6428V25.6972V25.7516V25.806V25.8608V25.9152V25.9696V26.024V26.0785V26.133V26.1877V26.2421V26.2966V26.351V26.4054V26.4598V26.5146V26.569V26.6234V26.6778V26.7323V26.787V26.8361V26.8905V26.9449V26.9993V27.0538V27.1082V27.1629V27.2174V27.2718V27.3263V27.3807H19.5719H19.5167H19.4617H19.4068H19.3519H19.2967H19.2417H19.1868H19.1318H19.0766H19.0217H18.9667H18.9118H18.8565H18.8016H18.7466H18.6917H18.6364H18.5815V27.3263V27.2718V27.2174V27.1632V27.1088V27.0544V27V26.9456V26.8911V26.8367V26.7823V26.7278V26.6734V26.619V26.5645V26.5101V26.4557V26.4012V26.3522V26.2978V26.2434V26.189V26.1345V26.0801V26.0257V25.9712V25.9168V25.8624V25.808V25.7536V25.6991V25.6446V25.5902V25.5358V25.4813V25.4269V25.3725V25.3181V25.2637V25.2092V25.1548V25.1007V25.0463V24.9918V24.9373V24.8829V24.8286V24.7741V24.7197V24.6652V24.6108V24.5564V24.5019V24.4475V24.3985V24.3441V24.2897V24.2352V24.1808V24.1264V24.072V24.0175V23.9631V23.9086V23.8542V23.7998V23.7453V23.6909V23.6365V23.5821V23.5277V23.4732V23.4187H18.6364H18.6917H18.7412H18.796H18.851H18.9062H18.9557H19.0106H19.0659H19.1208H19.1702H19.2251H19.2804H19.3353H19.3847H19.4396H19.4949H19.5499H19.5993H19.6542H19.7095L19.7368 23.4623L19.7644 23.5113L19.7972 23.5545L19.8248 23.6035L19.8525 23.647L19.8798 23.6961L19.9074 23.7392L19.9403 23.7883L19.9678 23.8318L19.9955 23.8754L20.0228 23.924L20.0504 23.9676L20.0833 24.0165L20.1109 24.0601L20.1385 24.1087L20.1658 24.1523L20.199 24.1958L20.2266 24.2446L20.2539 24.288L20.2815 24.337L20.3089 24.3806L20.342 24.4292L20.3696 24.4728L20.3969 24.5218L20.4246 24.565L20.4519 24.6085L20.485 24.6575L20.5126 24.7011L20.5399 24.7501L20.5676 24.7933L20.5949 24.8423L20.6281 24.8859L20.6557 24.9345L20.683 24.9781L20.7106 24.9345L20.7382 24.8859L20.7711 24.8423L20.7986 24.7933L20.826 24.7501L20.8536 24.7011L20.8865 24.6575L20.9141 24.6085L20.9417 24.565L20.969 24.5218L21.0022 24.4728L21.0295 24.4292L21.0571 24.3806L21.0847 24.337L21.1175 24.288L21.1451 24.2446L21.1728 24.1958L21.2001 24.1523L21.2278 24.1087L21.2606 24.0601L21.2882 24.0165L21.3158 23.9676L21.3432 23.924L21.3763 23.8754L21.4036 23.8318L21.4312 23.7883L21.4589 23.7392L21.4917 23.6961L21.5193 23.647L21.5466 23.6035L21.5743 23.5545L21.6074 23.5113L21.6347 23.4623L21.6623 23.4187H21.7173H21.7722H21.8219H21.8769H21.9318H21.9867H22.0365H22.0914H22.1463H22.2013H22.251H22.3059H22.3609H22.4158H22.4655H22.5205H22.5754H22.6303H22.6801H22.735H22.7899V23.4732V23.5277V23.5821V23.6365V23.6909V23.7453V23.7998V23.8542V23.9086V23.9631V24.0175V24.072V24.1264V24.1808V24.2352V24.2897V24.3441V24.3985V24.4475V24.5019V24.5564V24.6108V24.6652V24.7197V24.7741V24.8286V24.8829V24.9373V24.9918V25.0463V25.1007V25.1548V25.2092V25.2637V25.3181V25.3725V25.4269V25.4813V25.5358V25.5902V25.6446V25.6991V25.7536V25.808V25.8624V25.9168V25.9712V26.0257V26.0801V26.1345V26.189V26.2434V26.2978V26.3522V26.4012V26.4557V26.5101V26.5645V26.619V26.6734V26.7278V26.7823V26.8367V26.8911V26.9456V27V27.0544V27.1088V27.1632V27.2174V27.2718V27.3263V27.3807H22.735ZM16.352 25.7481L16.3354 25.6988L16.3137 25.6443L16.2916 25.5953L16.275 25.546L16.2532 25.4971L16.2312 25.4426L16.2145 25.3933L16.1924 25.3443L16.1707 25.2954L16.1541 25.2461L16.1319 25.1916L16.1157 25.1426L16.0936 25.0933L16.0715 25.0443L16.0549 24.9953L16.0331 24.9406L16.0111 24.8916L15.9945 24.8426L15.9724 24.7933L15.9506 24.7389L15.934 24.6896L15.9119 24.6406L15.8901 24.6896L15.8736 24.7389L15.8515 24.7933L15.8294 24.8426L15.8131 24.8916L15.791 24.9406L15.7689 24.9953L15.7471 25.0443L15.7305 25.0933L15.7084 25.1426L15.6863 25.1916L15.67 25.2461L15.648 25.2954L15.6258 25.3443L15.6093 25.3933L15.5875 25.4426L15.5654 25.4971L15.5433 25.546L15.5271 25.5953L15.505 25.6443L15.4828 25.6988L15.4663 25.7481L15.4445 25.7971H15.4994H15.5543H15.6093H15.6645H15.7195H15.7744H15.8294H15.8846H15.934H15.9889H16.0442H16.0991H16.1541H16.209H16.2639H16.3192H16.3741L16.352 25.7481ZM18.0797 27.3807H18.0245H17.975H17.9201H17.8648H17.8099H17.7549H17.7056H17.6503H17.5953H17.5404H17.4855H17.4302H17.3808H17.3259H17.2709H17.2157H17.1608H17.1113H17.0564H17.0012L16.9794 27.3317L16.9628 27.2827L16.9407 27.2337L16.9186 27.1793L16.9023 27.1306L16.8802 27.0816L16.8581 27.0327L16.8418 26.9837L16.8198 26.9347L16.7977 26.8857L16.7811 26.8367L16.7593 26.7823L16.7372 26.7333L16.7206 26.6843L16.6985 26.6353H16.6436H16.5886H16.5337H16.4788H16.4291H16.3741H16.3192H16.2639H16.209H16.1541H16.0991H16.0442H15.9889H15.934H15.8846H15.8294H15.7744H15.7195H15.6645H15.6093H15.5543H15.4994H15.4445H15.3896H15.3398H15.2849H15.2299H15.1747H15.1197L15.098 26.6843L15.0814 26.7333L15.0593 26.7823L15.0372 26.8367L15.0209 26.8857L14.9989 26.9347L14.9767 26.9837L14.9602 27.0327L14.9384 27.0816L14.9163 27.1306L14.8997 27.1793L14.8779 27.2337L14.8558 27.2827L14.8392 27.3317L14.8171 27.3807H14.7622H14.7073H14.6524H14.5971H14.5422H14.4817H14.4268H14.3718H14.3166H14.2616H14.2067H14.1517H14.0965H14.0416H13.9867H13.9262H13.8709H13.816H13.761H13.7061L13.7279 27.3317L13.75 27.2827L13.7721 27.2337L13.7939 27.1793L13.8105 27.1306L13.8326 27.0816L13.8547 27.0327L13.8764 26.9837L13.8985 26.9347L13.9207 26.8802L13.9424 26.8312L13.9646 26.7823L13.9811 26.7333L14.0032 26.6843L14.025 26.6353L14.0471 26.5809L14.0692 26.5319L14.091 26.4828L14.1131 26.4339L14.1352 26.3849L14.1517 26.3359L14.1735 26.2815L14.1956 26.2325L14.2178 26.1835L14.2395 26.1345L14.2616 26.0855L14.2838 26.0365L14.3055 25.9821L14.3221 25.9332L14.3442 25.8842L14.3663 25.8352L14.3881 25.7862L14.4102 25.7372L14.4323 25.6828L14.4541 25.6338L14.4761 25.5848L14.4927 25.5358L14.5148 25.4869L14.5366 25.4379L14.5587 25.3834L14.5809 25.3344L14.6026 25.2854L14.6247 25.2364L14.6468 25.1875L14.6634 25.1384L14.6852 25.0898L14.7073 25.0353L14.7293 24.9864L14.7512 24.9373L14.7732 24.8884L14.7954 24.8394L14.8171 24.7904L14.8337 24.736L14.8558 24.687L14.8779 24.638L14.8997 24.589L14.9218 24.54L14.9439 24.4911L14.9657 24.4366L14.9878 24.3877L15.0044 24.3387L15.0264 24.2897L15.0482 24.2407L15.0703 24.1917L15.0924 24.1373L15.1142 24.0883L15.1363 24.0393L15.1584 23.9903L15.1747 23.9414L15.1968 23.8923L15.2189 23.8379L15.241 23.7889L15.2628 23.7399L15.2849 23.6909L15.307 23.6419L15.3287 23.593L15.3454 23.5385L15.3675 23.4895L15.3896 23.4405L15.4113 23.3916H15.4663H15.516H15.5709H15.6258H15.6811H15.7305H15.7854H15.8404H15.8957H15.9451H16H16.0549H16.1102H16.1596H16.2145H16.2694H16.3247H16.3741H16.4291L16.4511 23.4405L16.4733 23.4895L16.4951 23.5385L16.5171 23.593L16.5337 23.6419L16.5555 23.6909L16.5776 23.7399L16.5997 23.7889L16.6218 23.8379L16.6436 23.8923L16.6657 23.9414L16.6878 23.9903L16.704 24.0393L16.7262 24.0883L16.7483 24.1373L16.7704 24.1917L16.7922 24.2407L16.8142 24.2897L16.8364 24.3387L16.8581 24.3877L16.8747 24.4366L16.8968 24.4911L16.9186 24.54L16.9407 24.589L16.9628 24.638L16.9849 24.687L17.0067 24.736L17.0287 24.7904L17.0454 24.8394L17.0671 24.8884L17.0892 24.9373L17.1113 24.9864L17.1334 25.0353L17.1552 25.0898L17.1773 25.1384L17.1994 25.1875L17.2157 25.2364L17.2377 25.2854L17.2599 25.3344L17.2817 25.3834L17.3037 25.4379L17.3259 25.4869L17.348 25.5358L17.3698 25.5848L17.3863 25.6338L17.4084 25.6828L17.4302 25.7372L17.4523 25.7862L17.4744 25.8352L17.4965 25.8842L17.5183 25.9332L17.5404 25.9821L17.5569 26.0365L17.5788 26.0855L17.6008 26.1345L17.623 26.1835L17.6447 26.2325L17.6668 26.2815L17.689 26.3359L17.7111 26.3849L17.7273 26.4339L17.7494 26.4828L17.7716 26.5319L17.7933 26.5809L17.8154 26.6353L17.8375 26.6843L17.8596 26.7333L17.8813 26.7823L17.898 26.8312L17.9201 26.8802L17.9419 26.9347L17.9639 26.9837L17.986 27.0327L18.0078 27.0816L18.0299 27.1306L18.052 27.1793L18.0686 27.2337L18.0903 27.2827L18.1125 27.3317L18.1345 27.3807H18.0797ZM13.2602 26.8747L13.216 26.9074L13.1776 26.9347L13.1334 26.9673L13.0895 26.9945L13.0456 27.0272L13.0014 27.0544L12.9576 27.0816L12.9078 27.1088L12.8584 27.136L12.8089 27.1632L12.7593 27.1847L12.7098 27.2119L12.6549 27.2337L12.6055 27.2555L12.5503 27.2772L12.5009 27.299L12.4514 27.3153L12.4017 27.3317L12.3523 27.3481L12.2974 27.3643L12.248 27.3807L12.1927 27.3916L12.1433 27.4024L12.0884 27.4133L12.0331 27.4242L11.9782 27.4296L11.9177 27.4351L11.8628 27.4406L11.8023 27.446L11.747 27.4514L11.6866 27.4568H11.6262H11.5656H11.5052H11.4499L11.395 27.4514L11.3346 27.446L11.2796 27.4406L11.2247 27.4351L11.1694 27.4296L11.1145 27.4188L11.0595 27.4079L11.0102 27.397L10.9549 27.3861L10.9055 27.3698L10.8506 27.3589L10.8008 27.3425L10.7514 27.3208L10.702 27.3045L10.6471 27.2827L10.5974 27.2609L10.548 27.2392L10.4986 27.2174L10.4488 27.1902L10.405 27.1632L10.3555 27.136L10.3113 27.1088L10.2675 27.0816L10.2233 27.0489L10.1794 27.0163L10.1354 26.9837L10.0968 26.951L10.0584 26.9183L10.0197 26.8802L9.9814 26.8476L9.94269 26.8095L9.90435 26.7713L9.87119 26.7333L9.83834 26.6897L9.80518 26.6516L9.77757 26.6081L9.74472 26.5645L9.71716 26.521L9.6898 26.4774L9.66219 26.4284L9.63457 26.3849L9.61282 26.3359L9.59069 26.2869L9.56862 26.2379L9.5468 26.189L9.53022 26.1455L9.5081 26.0964L9.49706 26.0474L9.48079 25.9985L9.46976 25.9441L9.45318 25.895L9.44214 25.8406L9.4366 25.7916L9.4255 25.7372L9.42008 25.6882L9.41447 25.6338L9.40929 25.5793L9.40381 25.5249V25.4651V25.4106V25.3997V25.3453L9.40929 25.2854V25.231L9.41447 25.1766L9.42008 25.1167L9.43111 25.0626L9.4366 25.0081L9.44763 24.9591L9.46421 24.9047L9.4753 24.8503L9.49151 24.8013L9.5081 24.7469L9.52468 24.6979L9.5468 24.6434L9.56862 24.5945L9.59069 24.5455L9.61282 24.4965L9.63457 24.4475L9.66219 24.3985L9.6898 24.355L9.71716 24.3114L9.74472 24.2679L9.77239 24.2243L9.80518 24.1808L9.83834 24.1373L9.87119 24.0937L9.90435 24.0556L9.94269 24.0175L9.97585 23.9794L10.0143 23.9414L10.0529 23.9032L10.0912 23.8706L10.1354 23.8324L10.1738 23.7998L10.2177 23.7671L10.2619 23.7399L10.3058 23.7073L10.35 23.6801L10.3939 23.6529L10.4433 23.6256L10.493 23.5984L10.5424 23.5712L10.5918 23.5494L10.6415 23.5277L10.6965 23.5004L10.7404 23.4841L10.7953 23.4677L10.8451 23.446L10.8945 23.4351L10.9438 23.4187L10.9991 23.4079L11.0485 23.3916L11.1034 23.3807L11.1584 23.3752L11.2136 23.3644L11.2686 23.3589L11.3235 23.3535L11.3784 23.348L11.4337 23.3426H11.4942H11.5491H11.6095H11.67L11.7308 23.348L11.7913 23.3535H11.8462L11.9011 23.3589L11.9616 23.3698L12.0113 23.3752L12.0662 23.3861L12.1212 23.397L12.1709 23.4079L12.2203 23.4187L12.2698 23.4297L12.3195 23.446L12.3689 23.4569L12.4128 23.4732L12.4625 23.4895L12.5119 23.5113L12.5613 23.5331L12.611 23.5549L12.6605 23.5821L12.7098 23.6039L12.7541 23.6311L12.8035 23.6583L12.8473 23.6855L12.8971 23.7127L12.941 23.7453L12.9849 23.7726L13.029 23.8052L13.0729 23.8379L13.1171 23.876L13.161 23.9086L13.1279 23.9522L13.0895 23.9903L13.0564 24.0338L13.018 24.0774L12.9849 24.1209L12.952 24.159L12.9133 24.2025L12.8805 24.2461L12.8473 24.2843L12.8089 24.3278L12.7758 24.3713L12.7375 24.4149L12.7043 24.453L12.6715 24.4965L12.6329 24.54L12.5999 24.5836L12.5613 24.6217L12.5284 24.6652L12.4842 24.6326L12.4404 24.5945L12.3962 24.5672L12.3523 24.5346L12.3084 24.5074L12.2642 24.4801L12.2203 24.453L12.1709 24.4257L12.1267 24.404L12.0828 24.3822L12.0386 24.3659L11.9892 24.3495L11.9398 24.3332L11.8901 24.3223L11.8352 24.3114L11.7802 24.3005L11.7253 24.2951L11.6648 24.2897L11.604 24.2843H11.5436H11.4886L11.4337 24.2897L11.384 24.2951L11.3291 24.306L11.2796 24.3169L11.2299 24.3332L11.1805 24.3495L11.1311 24.3713L11.0817 24.3931L11.0375 24.4203L10.9936 24.4475L10.9494 24.4748L10.9111 24.5074L10.8723 24.54L10.834 24.5727L10.8008 24.6108L10.7625 24.6489L10.7293 24.6924L10.702 24.7306L10.6744 24.7741L10.6471 24.8231L10.6195 24.8666L10.5974 24.9156L10.5808 24.9646L10.559 25.0136L10.5424 25.068L10.5314 25.1222L10.5203 25.1711L10.5092 25.231L10.5038 25.2854L10.4986 25.3398V25.3997V25.4106V25.4651L10.5038 25.5195L10.5092 25.5685L10.5148 25.6229L10.5258 25.6718L10.5369 25.7209L10.548 25.7698L10.5645 25.8188L10.5808 25.8624L10.6029 25.9168L10.625 25.9658L10.6523 26.0148L10.6799 26.0583L10.7075 26.1019L10.7404 26.1455L10.7735 26.1835L10.8119 26.2217L10.8451 26.2597L10.8834 26.2924L10.9276 26.325L10.9715 26.3577L11.0153 26.3849L11.0595 26.4121L11.109 26.4339L11.1584 26.4557L11.2081 26.4774L11.2631 26.4938L11.318 26.5101L11.3733 26.521L11.4282 26.5319L11.4831 26.5373L11.5436 26.5428H11.604H11.67L11.7308 26.5373L11.7913 26.5319L11.8462 26.5264L11.9011 26.5155L11.9564 26.5046L12.0113 26.4884L12.0607 26.4774L12.1102 26.4557L12.1544 26.4339L12.2037 26.4121L12.2424 26.3904L12.2863 26.3631V26.3087V26.2543V26.1999V26.1455V26.0855V26.0311V25.9767V25.9223V25.8678H12.2314H12.1817H12.1267H12.0718H12.0169H11.9671H11.9121H11.8572H11.8023H11.7526H11.6977H11.6427H11.5878H11.5381H11.4831V25.8134V25.7644V25.71V25.6556V25.6011V25.5521V25.4977V25.4433V25.3889V25.3398V25.2854V25.231V25.1766V25.1276V25.0735H11.5381H11.5933H11.6483H11.7031H11.7581H11.813H11.8683H11.9232H11.9782H12.0331H12.0884H12.1433H12.1982H12.2531H12.3084H12.3634H12.4183H12.4732H12.5284H12.5834H12.6383H12.6933H12.7485H12.8035H12.8584H12.9133H12.9686H13.0235H13.0785H13.1334H13.1886H13.2435H13.2985V25.1276V25.182V25.2364V25.2854V25.3398V25.3943V25.4487V25.5031V25.5576V25.6065V25.661V25.7154V25.7698V25.8243V25.8787V25.9332V25.9821V26.0365V26.091V26.1455V26.1999V26.2543V26.3087V26.3577V26.4121V26.4666V26.521V26.5754V26.6298V26.6789V26.7333V26.7877V26.8421L13.2602 26.8747Z" fill="white"/>
<path d="M11.491 14.4544H13.8752V12.6378H11.491V8.92913H13.9702V7.1125H9.46631V20.2234H14.0079V18.4067H11.491V14.4544Z" fill="white"/>
<path d="M28.5684 14.848V17.8073C28.5684 18.3318 28.3223 18.5752 27.8116 18.5752H27.4329C26.9032 18.5752 26.6571 18.3318 26.6571 17.8073V9.52847C26.6571 9.00404 26.9032 8.76071 27.4329 8.76071H27.7736C28.2846 8.76071 28.5307 9.00404 28.5307 9.52847V12.0947H30.5174V9.4161C30.5174 7.78676 29.7226 7.00005 28.0766 7.00005H27.0923C25.4463 7.00005 24.6323 7.80534 24.6323 9.43498V17.9008C24.6323 19.5305 25.4463 20.3358 27.0923 20.3358H28.0954C29.7418 20.3358 30.5554 19.5305 30.5554 17.9008V14.848H28.5684Z" fill="white"/>
<path d="M21.5376 20.2234H23.5626V7.11244H21.5376V20.2234Z" fill="white"/>
<path d="M18.5996 12.9374C18.5996 13.4619 18.3538 13.7056 17.8429 13.7056H17.0101V8.8731H17.8429C18.3538 8.8731 18.5996 9.11649 18.5996 9.64086V12.9374ZM18.1643 7.11244H14.9854V20.2234H17.0101V15.4658H18.1643C19.8107 15.4658 20.6243 14.6606 20.6243 13.0313V9.54737C20.6243 7.91773 19.8107 7.11244 18.1643 7.11244Z" fill="white"/>
<path fill-rule="evenodd" clip-rule="evenodd" d="M14.2427 32.0783H25.8336L19.9174 34.0001L14.2427 32.0783Z" fill="white"/>
</g>
<rect x="1.06074" y="1.04994" width="37.9" height="37.9" rx="6.95" stroke="white" stroke-opacity="0.15" stroke-width="2.1"/>
<defs>
<filter id="filter0_d_2_1364" x="2.01074" y="1.99994" width="36" height="36.0001" filterUnits="userSpaceOnUse" color-interpolation-filters="sRGB">
<feFlood flood-opacity="0" result="BackgroundImageFix"/>
<feColorMatrix in="SourceAlpha" type="matrix" values="0 0 0 0 0 0 0 0 0 0 0 0 0 0 0 0 0 0 127 0" result="hardAlpha"/>
<feOffset/>
<feGaussianBlur stdDeviation="2"/>
<feComposite in2="hardAlpha" operator="out"/>
<feColorMatrix type="matrix" values="0 0 0 0 0 0 0 0 0 0 0 0 0 0 0 0 0 0 0.25 0"/>
<feBlend mode="normal" in2="BackgroundImageFix" result="effect1_dropShadow_2_1364"/>
<feBlend mode="normal" in="SourceGraphic" in2="effect1_dropShadow_2_1364" result="shape"/>
</filter>
<linearGradient id="paint0_linear_2_1364" x1="20.0107" y1="-6.10351e-05" x2="20.0107" y2="39.9999" gradientUnits="userSpaceOnUse">
<stop stop-color="#181818"/>
<stop offset="1" stop-color="#0F0F0F"/>
</linearGradient>
</defs>
</svg>
