<svg width="41" height="40" viewBox="0 0 41 40" fill="none" xmlns="http://www.w3.org/2000/svg">
<rect x="0.0107422" width="40" height="40" rx="8" fill="url(#paint0_linear_2_1282)"/>
<g filter="url(#filter0_d_2_1282)">
<path d="M33.4847 18.7544L21.2597 6.52942C21.0924 6.36161 20.8937 6.22846 20.6749 6.13761C20.4561 6.04676 20.2216 6 19.9847 6C19.7478 6 19.5132 6.04676 19.2944 6.13761C19.0756 6.22846 18.8769 6.36161 18.7097 6.52942L16.1707 9.06842L19.3907 12.2884C19.7704 12.1592 20.1787 12.1392 20.5692 12.2308C20.9597 12.3224 21.3167 12.5218 21.5993 12.8064C21.882 13.0909 22.0791 13.4492 22.1681 13.8402C22.2571 14.2313 22.2344 14.6396 22.1027 15.0184L25.2027 18.1184C25.666 17.9592 26.17 17.9636 26.6305 18.1309C27.091 18.2982 27.4803 18.6182 27.7335 19.0376C27.9868 19.4571 28.0886 19.9506 28.0221 20.436C27.9556 20.9215 27.7247 21.3694 27.368 21.7053C27.0113 22.0412 26.5503 22.2447 26.0618 22.282C25.5732 22.3192 25.0867 22.1879 24.6832 21.9099C24.2797 21.632 23.9837 21.2242 23.8444 20.7544C23.7051 20.2847 23.7309 19.7814 23.9177 19.3284L21.0227 16.4334V24.0504C21.4612 24.2677 21.8121 24.6287 22.0168 25.0732C22.2215 25.5177 22.2678 26.019 22.1479 26.4935C22.0279 26.968 21.7491 27.3871 21.3577 27.681C20.9663 27.9748 20.4861 28.1257 19.9969 28.1085C19.5078 28.0913 19.0394 27.9071 18.6696 27.5865C18.2998 27.2659 18.051 26.8282 17.9647 26.3465C17.8784 25.8647 17.9597 25.368 18.1952 24.9389C18.4306 24.5098 18.806 24.1744 19.2587 23.9884V16.3014C18.9968 16.194 18.7587 16.0357 18.5582 15.8359C18.3577 15.636 18.1987 15.3985 18.0904 15.1369C17.9822 14.8753 17.9267 14.5949 17.9272 14.3118C17.9278 14.0287 17.9844 13.7486 18.0937 13.4874L14.9237 10.3154L6.54066 18.7014C6.37271 18.8687 6.23943 19.0674 6.14849 19.2863C6.05756 19.5052 6.01074 19.7399 6.01074 19.9769C6.01074 20.2139 6.05756 20.4486 6.14849 20.6675C6.23943 20.8864 6.37271 21.0852 6.54066 21.2524L18.7657 33.4734C18.9329 33.6412 19.1316 33.7744 19.3504 33.8652C19.5692 33.9561 19.8038 34.0028 20.0407 34.0028C20.2776 34.0028 20.5121 33.9561 20.7309 33.8652C20.9497 33.7744 21.1484 33.6412 21.3157 33.4734L33.4847 21.3014C33.6526 21.1342 33.7859 20.9354 33.8768 20.7165C33.9678 20.4976 34.0146 20.2629 34.0146 20.0259C34.0146 19.7889 33.9678 19.5542 33.8768 19.3353C33.7859 19.1164 33.6526 18.9177 33.4847 18.7504" fill="#DD4C35"/>
<path d="M16.1708 9.06842L19.3908 12.2884C19.7705 12.1592 20.1789 12.1392 20.5694 12.2308C20.9599 12.3224 21.3168 12.5218 21.5995 12.8064C21.8822 13.0909 22.0792 13.4492 22.1682 13.8403C22.2572 14.2313 22.2346 14.6396 22.1028 15.0184L25.2028 18.1184C25.6662 17.9592 26.1701 17.9636 26.6307 18.1309C27.0912 18.2982 27.4805 18.6182 27.7337 19.0376C27.9869 19.4571 28.0888 19.9506 28.0223 20.4361C27.9557 20.9215 27.7249 21.3694 27.3682 21.7053C27.0115 22.0412 26.5505 22.2447 26.0619 22.282C25.5734 22.3192 25.0868 22.1879 24.6834 21.9099C24.2799 21.632 23.9838 21.2242 23.8445 20.7544C23.7052 20.2847 23.7311 19.7814 23.9178 19.3284L21.0228 16.4334V24.0504C21.4614 24.2677 21.8122 24.6287 22.017 25.0732C22.2217 25.5178 22.268 26.019 22.148 26.4935C22.0281 26.968 21.7492 27.3871 21.3578 27.681C20.9665 27.9748 20.4862 28.1257 19.9971 28.1085C19.508 28.0913 19.0395 27.9071 18.6697 27.5865C18.3 27.2659 18.0512 26.8282 17.9649 26.3465C17.8786 25.8647 17.9599 25.368 18.1953 24.9389C18.4308 24.5098 18.8061 24.1744 19.2588 23.9884V16.3014C18.9969 16.194 18.7589 16.0357 18.5584 15.8359C18.3579 15.636 18.1989 15.3985 18.0906 15.1369C17.9823 14.8753 17.9269 14.5949 17.9274 14.3118C17.928 14.0287 17.9845 13.7486 18.0938 13.4874L14.9238 10.3154" fill="white"/>
</g>
<rect x="1.06074" y="1.05" width="37.9" height="37.9" rx="6.95" stroke="white" stroke-opacity="0.15" stroke-width="2.1"/>
<defs>
<filter id="filter0_d_2_1282" x="2.01074" y="2" width="36.0039" height="36.0028" filterUnits="userSpaceOnUse" color-interpolation-filters="sRGB">
<feFlood flood-opacity="0" result="BackgroundImageFix"/>
<feColorMatrix in="SourceAlpha" type="matrix" values="0 0 0 0 0 0 0 0 0 0 0 0 0 0 0 0 0 0 127 0" result="hardAlpha"/>
<feOffset/>
<feGaussianBlur stdDeviation="2"/>
<feComposite in2="hardAlpha" operator="out"/>
<feColorMatrix type="matrix" values="0 0 0 0 0 0 0 0 0 0 0 0 0 0 0 0 0 0 0.25 0"/>
<feBlend mode="normal" in2="BackgroundImageFix" result="effect1_dropShadow_2_1282"/>
<feBlend mode="normal" in="SourceGraphic" in2="effect1_dropShadow_2_1282" result="shape"/>
</filter>
<linearGradient id="paint0_linear_2_1282" x1="20.0107" y1="0" x2="20.0107" y2="40" gradientUnits="userSpaceOnUse">
<stop stop-color="#361712"/>
<stop offset="1" stop-color="#1D0C09"/>
</linearGradient>
</defs>
</svg>
