<svg width="41" height="40" viewBox="0 0 41 40" fill="none" xmlns="http://www.w3.org/2000/svg">
<rect x="0.0107422" y="-0.00012207" width="40" height="40" rx="8" fill="url(#paint0_linear_2_1658)"/>
<g filter="url(#filter0_d_2_1658)">
<path d="M10.9214 12.0011C10.6332 12.0011 10.3089 12.0227 9.94136 12.0962C9.55286 12.1719 8.44803 12.4023 7.54504 13.2068C5.54071 14.8635 6.05171 17.4966 6.11471 17.8935C6.19054 18.3758 6.42154 19.7178 7.52637 20.8867C9.56686 23.2019 13.9582 23.149 13.9582 23.149C13.9582 23.149 14.4972 24.3417 15.3208 25.4404C16.435 26.8062 17.5795 27.8713 18.6925 28C21.4995 28 27.1064 27.9957 27.1064 27.9957C27.1064 27.9957 27.6408 28 28.3664 27.5696C28.9906 27.2192 29.5483 26.6039 29.5483 26.6039C29.5483 26.6039 30.1223 26.0341 30.9249 24.7332C31.1699 24.3331 31.3741 23.9448 31.5526 23.5783C31.5526 23.5783 34.0107 18.7434 34.0107 14.0373C33.9617 12.6121 33.5826 12.3612 33.4939 12.2779C33.3119 12.1092 33.0669 12.1125 33.0669 12.1125C33.0669 12.1125 27.8461 12.385 25.143 12.4434C24.5503 12.4553 23.9623 12.4682 23.379 12.4726V17.3106L22.6393 16.9851C22.6393 15.482 22.6346 12.4758 22.6346 12.4758C21.3431 12.4931 18.6622 12.385 18.6622 12.385C18.6622 12.385 12.3633 12.093 11.6773 12.0346C11.4592 12.0227 11.2095 12 10.9214 12V12.0011ZM11.3344 13.9822H11.4639C11.4639 13.9822 11.78 16.4358 12.1638 17.8719C12.4847 19.0776 13.2675 21.0814 13.2675 21.0814C13.2675 21.0814 12.1055 20.9527 11.353 20.7051C10.198 20.3547 9.70919 19.933 9.70919 19.933C9.70919 19.933 8.85753 19.3804 8.43053 18.2893C7.69554 16.4639 8.3687 15.3501 8.3687 15.3501C8.3687 15.3501 8.74203 14.4212 10.0837 14.1119C10.5445 13.9973 11.0905 13.9822 11.3344 13.9822ZM21.0526 16.744C21.356 16.7472 21.6465 16.8813 21.6465 16.8813L22.6591 17.3377L22.042 18.5001C21.8957 18.498 21.7516 18.533 21.6253 18.6015C21.499 18.6699 21.3954 18.7691 21.3256 18.8883C21.2511 19.0171 21.2193 19.1634 21.2342 19.3089C21.2492 19.4544 21.3102 19.5925 21.4096 19.7059L20.3141 21.7864C20.1358 21.7889 19.9634 21.8463 19.8241 21.9494C19.6847 22.0526 19.5863 22.1957 19.5441 22.3563C19.5039 22.516 19.5218 22.6835 19.5951 22.8327C19.6683 22.982 19.7927 23.1046 19.949 23.1814C20.1186 23.262 20.3136 23.2838 20.4991 23.243C20.6845 23.2021 20.8481 23.1013 20.9605 22.9586C21.0702 22.8163 21.1223 22.6426 21.1075 22.4682C21.0928 22.2937 21.0122 22.1297 20.88 22.0049L21.9486 19.9784C22.0415 19.9866 22.1351 19.9792 22.2251 19.9567C22.3416 19.9309 22.4498 19.8802 22.5413 19.8086C22.9488 19.9693 23.3448 20.1543 23.7266 20.3623C23.8653 20.4344 23.9805 20.5397 24.0603 20.6672C24.1455 20.8943 23.9751 21.2825 23.9751 21.2825C23.8736 21.5961 23.1561 22.9586 23.1561 22.9586C22.9823 22.9544 22.8116 23.0023 22.6695 23.0953C22.5274 23.1882 22.4214 23.3212 22.3675 23.4745C22.3261 23.5975 22.3202 23.7284 22.3505 23.8541C22.3808 23.9799 22.4461 24.0961 22.54 24.1911C22.6339 24.2861 22.753 24.3566 22.8855 24.3956C23.018 24.4346 23.1592 24.4407 23.295 24.4133C23.4308 24.3859 23.5565 24.3259 23.6595 24.2394C23.7625 24.1528 23.8392 24.0428 23.8819 23.9202C23.9247 23.7976 23.932 23.6667 23.9031 23.5407C23.8742 23.4146 23.8101 23.2978 23.7173 23.2019C23.8025 23.0495 23.8818 22.897 23.967 22.7359C24.1886 22.3066 24.5678 21.4815 24.5678 21.4815C24.6086 21.4101 24.8221 21.0554 24.688 20.6012C24.5771 20.1308 24.128 19.9113 24.128 19.9113C23.5831 19.5858 22.826 19.2841 22.826 19.2841C22.826 19.2841 22.826 19.1154 22.777 18.9922C22.7395 18.8951 22.6807 18.8064 22.6043 18.7315L23.2063 17.5831L26.5779 19.0981C26.5779 19.0981 27.1379 19.3339 27.2581 19.7675C27.3433 20.0725 27.2359 20.345 27.1776 20.478C26.8976 21.1127 24.7276 25.1463 24.7276 25.1463C24.7276 25.1463 24.457 25.7453 23.855 25.7821C23.7002 25.7926 23.5447 25.7761 23.3965 25.7334L23.1608 25.6469L18.1325 23.376C18.1325 23.376 17.646 23.1403 17.5608 22.7315C17.464 22.3963 17.6822 21.9843 17.6822 21.9843L20.1006 17.3647C20.1006 17.3647 20.3141 16.9646 20.6443 16.8273C20.7725 16.7731 20.9117 16.7447 21.0526 16.744V16.744Z" fill="#609926"/>
</g>
<rect x="1.06074" y="1.04988" width="37.9" height="37.9" rx="6.95" stroke="white" stroke-opacity="0.15" stroke-width="2.1"/>
<defs>
<filter id="filter0_d_2_1658" x="2.01074" y="1.99988" width="36" height="36" filterUnits="userSpaceOnUse" color-interpolation-filters="sRGB">
<feFlood flood-opacity="0" result="BackgroundImageFix"/>
<feColorMatrix in="SourceAlpha" type="matrix" values="0 0 0 0 0 0 0 0 0 0 0 0 0 0 0 0 0 0 127 0" result="hardAlpha"/>
<feOffset/>
<feGaussianBlur stdDeviation="2"/>
<feComposite in2="hardAlpha" operator="out"/>
<feColorMatrix type="matrix" values="0 0 0 0 0 0 0 0 0 0 0 0 0 0 0 0 0 0 0.25 0"/>
<feBlend mode="normal" in2="BackgroundImageFix" result="effect1_dropShadow_2_1658"/>
<feBlend mode="normal" in="SourceGraphic" in2="effect1_dropShadow_2_1658" result="shape"/>
</filter>
<linearGradient id="paint0_linear_2_1658" x1="20.0107" y1="-0.00012207" x2="20.0107" y2="39.9999" gradientUnits="userSpaceOnUse">
<stop stop-color="#263813"/>
<stop offset="1" stop-color="#131F07"/>
</linearGradient>
</defs>
</svg>
