<svg width="41" height="40" viewBox="0 0 41 40" fill="none" xmlns="http://www.w3.org/2000/svg">
<rect x="0.0107422" y="-1.52588e-05" width="40" height="40" rx="8" fill="url(#paint0_linear_2_1290)"/>
<g filter="url(#filter0_d_2_1290)">
<path d="M20.0116 6.50085C12.277 6.50085 6.01074 12.7007 6.01074 20.3418C6.01074 26.4604 10.022 31.6464 15.5812 33.476C16.2839 33.6066 16.5376 33.1784 16.5376 32.8082C16.5376 32.4794 16.5298 31.6101 16.5245 30.4561C12.6279 31.29 11.8071 28.5953 11.8071 28.5953C11.1692 27.0002 10.2486 26.5719 10.2486 26.5719C8.98155 25.7164 10.3493 25.7346 10.3493 25.7346C11.7529 25.8289 12.4914 27.1576 12.4914 27.1576C13.7401 29.2753 15.7676 28.6628 16.57 28.3064C16.6925 27.4145 17.0574 26.8012 17.4547 26.4595C14.3465 26.1126 11.0782 24.9231 11.0782 19.6195C11.0782 18.1048 11.6207 16.8712 12.5176 15.9023C12.3628 15.5554 11.8885 14.1454 12.641 12.2388C12.641 12.2388 13.8127 11.8694 16.4913 13.6583C17.6122 13.3513 18.8023 13.1981 19.9915 13.1904C21.1816 13.1981 22.3708 13.3521 23.4917 13.6583C26.1545 11.8694 27.3253 12.2388 27.3253 12.2388C28.077 14.1454 27.6027 15.5546 27.4662 15.9023C28.3544 16.8712 28.8969 18.1056 28.8969 19.6195C28.8969 24.9353 25.6242 26.1074 22.5125 26.4457C22.9991 26.86 23.455 27.7121 23.455 29.0054C23.455 30.8566 23.4375 32.3479 23.4375 32.7986C23.4375 33.1585 23.6825 33.591 24.4035 33.4518C30.0039 31.6412 34.0107 26.4508 34.0107 20.3409C34.0107 12.6999 27.7445 6.49998 20.0099 6.49998L20.0116 6.50085Z" fill="white"/>
</g>
<rect x="1.06074" y="1.04998" width="37.9" height="37.9" rx="6.95" stroke="white" stroke-opacity="0.15" stroke-width="2.1"/>
<defs>
<filter id="filter0_d_2_1290" x="2.01074" y="1.99998" width="36" height="36" filterUnits="userSpaceOnUse" color-interpolation-filters="sRGB">
<feFlood flood-opacity="0" result="BackgroundImageFix"/>
<feColorMatrix in="SourceAlpha" type="matrix" values="0 0 0 0 0 0 0 0 0 0 0 0 0 0 0 0 0 0 127 0" result="hardAlpha"/>
<feOffset/>
<feGaussianBlur stdDeviation="2"/>
<feComposite in2="hardAlpha" operator="out"/>
<feColorMatrix type="matrix" values="0 0 0 0 0 0 0 0 0 0 0 0 0 0 0 0 0 0 0.25 0"/>
<feBlend mode="normal" in2="BackgroundImageFix" result="effect1_dropShadow_2_1290"/>
<feBlend mode="normal" in="SourceGraphic" in2="effect1_dropShadow_2_1290" result="shape"/>
</filter>
<linearGradient id="paint0_linear_2_1290" x1="20.0107" y1="-1.52588e-05" x2="20.0107" y2="40" gradientUnits="userSpaceOnUse">
<stop stop-color="#181F29"/>
<stop offset="1" stop-color="#0F131A"/>
</linearGradient>
</defs>
</svg>
