<svg width="41" height="40" viewBox="0 0 41 40" fill="none" xmlns="http://www.w3.org/2000/svg">
<rect x="0.0107422" y="-6.10352e-05" width="40" height="40" rx="8" fill="url(#paint0_linear_2_1381)"/>
<g filter="url(#filter0_d_2_1381)">
<path d="M32.4818 10.8547C30.731 9.06872 28.0464 9.06872 26.2956 10.7356C26.1789 10.8547 26.1789 10.9737 26.1789 11.0928C26.1789 11.2118 26.1789 11.3309 26.2956 11.45L26.8792 12.0453C26.9959 12.1643 27.2294 12.1643 27.4628 12.0453C27.9297 11.6881 28.3966 11.569 28.9802 11.569C30.3808 11.569 31.548 12.7597 31.548 14.1884C31.548 14.9028 31.3146 15.4981 30.8477 15.9743C27.3461 19.5462 22.5606 9.54497 11.9391 14.6647C11.2388 15.0218 10.8886 15.8553 11.2388 16.5696V16.6887L12.9896 19.9034C13.3397 20.6178 14.2735 20.8559 14.9738 20.4987L15.7908 20.0225C16.7246 19.4271 17.5416 18.8318 18.3587 18.1175C18.4754 17.9984 18.8255 17.9984 18.9423 18.1175C19.1757 18.2365 19.1757 18.4746 19.059 18.7128L18.9423 18.8318C18.1252 19.5462 17.1915 20.2606 16.2577 20.8559L15.4407 21.2131C15.0905 21.4512 14.7403 21.5703 14.2735 21.5703C13.4564 21.5703 12.6394 21.094 12.2892 20.3796L10.5384 17.284C7.27027 19.6653 5.16932 24.3087 6.33652 30.1427C6.33652 30.3809 6.56995 30.4999 6.80339 30.4999H8.78763C9.02107 30.4999 9.13779 30.3809 9.25451 30.1427C9.48795 28.4759 10.8886 27.4043 12.5227 27.6424C13.8066 27.7615 14.8571 28.8331 14.9738 30.1427C14.9738 30.3809 15.2072 30.4999 15.4407 30.4999H17.3082C17.5416 30.4999 17.6583 30.3809 17.7751 30.1427C18.0085 28.4759 19.4091 27.4043 21.0432 27.6424C22.3271 27.7615 23.3776 28.8331 23.4943 30.1427C23.4943 30.3809 23.7278 30.4999 23.9612 30.4999H25.8287C26.0622 30.4999 26.2956 30.2618 26.2956 30.0237C26.2956 27.2853 27.1127 24.1896 29.0969 22.6418C35.9834 17.165 34.1159 12.5215 32.4818 10.8547ZM25.2451 19.07L23.8445 18.3556C23.8445 17.8793 24.1947 17.5221 24.6615 17.5221C25.1284 17.5221 25.4786 17.8793 25.4786 18.3556C25.5953 18.7128 25.4786 18.9509 25.2451 19.07Z" fill="#7DC1D1"/>
</g>
<rect x="1.06074" y="1.04994" width="37.9" height="37.9" rx="6.95" stroke="white" stroke-opacity="0.15" stroke-width="2.1"/>
<defs>
<filter id="filter0_d_2_1381" x="2.01074" y="1.99994" width="36" height="36" filterUnits="userSpaceOnUse" color-interpolation-filters="sRGB">
<feFlood flood-opacity="0" result="BackgroundImageFix"/>
<feColorMatrix in="SourceAlpha" type="matrix" values="0 0 0 0 0 0 0 0 0 0 0 0 0 0 0 0 0 0 127 0" result="hardAlpha"/>
<feOffset/>
<feGaussianBlur stdDeviation="2"/>
<feComposite in2="hardAlpha" operator="out"/>
<feColorMatrix type="matrix" values="0 0 0 0 0 0 0 0 0 0 0 0 0 0 0 0 0 0 0.25 0"/>
<feBlend mode="normal" in2="BackgroundImageFix" result="effect1_dropShadow_2_1381"/>
<feBlend mode="normal" in="SourceGraphic" in2="effect1_dropShadow_2_1381" result="shape"/>
</filter>
<linearGradient id="paint0_linear_2_1381" x1="20.0107" y1="-6.10351e-05" x2="20.0107" y2="39.9999" gradientUnits="userSpaceOnUse">
<stop stop-color="#19282C"/>
<stop offset="1" stop-color="#121C1F"/>
</linearGradient>
</defs>
</svg>
