<svg width="41" height="40" viewBox="0 0 41 40" fill="none" xmlns="http://www.w3.org/2000/svg">
<rect x="0.0107422" y="-6.10352e-05" width="40" height="40" rx="8" fill="url(#paint0_linear_2_1395)"/>
<g filter="url(#filter0_d_2_1395)">
<path d="M23.7373 6C21.3663 6.45853 19.6901 7.39913 18.687 8.70454L22.0527 10.6453C22.4731 10.4456 22.9345 10.3316 23.4165 10.3246C23.6896 10.3207 23.9694 10.3511 24.2514 10.4192C24.4622 9.1467 24.3066 7.6679 23.7374 6H23.7373ZM17.9689 9.57023L12.8052 18.5013L18.3344 21.6933L19.6332 19.4467C19.0437 18.8657 18.7973 17.9818 18.7667 17.0609C18.7293 15.9347 19.003 14.6824 19.5127 13.5501C19.8909 12.7097 20.3979 11.931 21.0397 11.3422L17.9689 9.57017L17.9689 9.57023ZM30.2277 9.74445C28.4825 10.082 27.1152 10.6814 26.1142 11.4943C26.6681 12.0756 26.9633 12.785 27.0215 13.5129L30.3779 15.4482C31.0126 13.9251 31.0003 12.0084 30.2277 9.74445H30.2277ZM8.78634 10.2227L6.53382 14.1209L12.5899 16.6568L16.2007 10.41L8.78646 10.2227L8.78634 10.2227ZM23.4293 11.4072C23.0413 11.4134 22.6818 11.5412 22.3271 11.7539C21.6181 12.1792 20.9689 13.0193 20.5256 14.0043C20.0823 14.9893 19.844 16.1108 19.8743 17.024C19.9046 17.9361 20.1903 18.57 20.6351 18.8275C20.6355 18.8278 20.6366 18.8273 20.637 18.8275C21.0825 19.0835 21.774 19.0145 22.5796 18.5847C23.3861 18.1544 24.2391 17.3884 24.8711 16.5123C25.5032 15.6362 25.9072 14.6527 25.9213 13.8264C25.9354 12.9999 25.6433 12.3291 24.7042 11.7873C24.2345 11.5163 23.8174 11.4011 23.4294 11.4073L23.4293 11.4072ZM26.9212 14.7365C26.7313 15.5856 26.3098 16.414 25.7708 17.1611C25.0443 18.1683 24.0977 19.0309 23.1028 19.5617C22.287 19.997 21.3931 20.2261 20.5925 20.0029L19.2955 22.2458L24.8246 25.436L29.9846 16.5031L26.9213 14.7365L26.9212 14.7365ZM30.1404 18.4513L26.5316 24.7001L31.7582 28.6744L34.0107 24.7743L30.1403 18.4513L30.1404 18.4513ZM13.7143 20.3068C12.3797 20.8905 11.3554 21.6799 10.6379 22.6407L15.8331 25.638C16.3105 24.5359 16.4893 23.2595 16.3378 21.8214L13.7142 20.307L13.7143 20.3068ZM10.1464 23.6379L6.01074 30.7893V33.0045L11.1075 24.1921L10.1464 23.6378L10.1464 23.6379ZM20.2046 24.0512C18.8699 24.6349 17.846 25.424 17.1284 26.385L22.3236 29.3825C22.8011 28.2798 22.9801 27.0027 22.8283 25.5639L20.2046 24.0513V24.0512ZM12.1838 24.8131L6.84019 34H8.12385L13.1465 25.3692L12.1835 24.8131L12.1838 24.8131ZM14.2285 25.9921L9.61038 34H10.8905L15.1877 26.5463L14.2285 25.9921H14.2285ZM16.6535 27.3916L12.8999 33.9999H14.1764L17.6145 27.9458L16.6534 27.3916H16.6535ZM18.698 28.5723L15.6663 33.9999H16.9354L19.6591 29.1248L18.698 28.5723L18.698 28.5723ZM20.7428 29.7513L18.4309 34H19.6963L21.7057 30.3057L20.7426 29.7513L20.7428 29.7513Z" fill="#6E93B7"/>
</g>
<rect x="1.06074" y="1.04994" width="37.9" height="37.9" rx="6.95" stroke="white" stroke-opacity="0.15" stroke-width="2.1"/>
<defs>
<filter id="filter0_d_2_1395" x="2.01074" y="1.99994" width="36" height="36.0001" filterUnits="userSpaceOnUse" color-interpolation-filters="sRGB">
<feFlood flood-opacity="0" result="BackgroundImageFix"/>
<feColorMatrix in="SourceAlpha" type="matrix" values="0 0 0 0 0 0 0 0 0 0 0 0 0 0 0 0 0 0 127 0" result="hardAlpha"/>
<feOffset/>
<feGaussianBlur stdDeviation="2"/>
<feComposite in2="hardAlpha" operator="out"/>
<feColorMatrix type="matrix" values="0 0 0 0 0 0 0 0 0 0 0 0 0 0 0 0 0 0 0.25 0"/>
<feBlend mode="normal" in2="BackgroundImageFix" result="effect1_dropShadow_2_1395"/>
<feBlend mode="normal" in="SourceGraphic" in2="effect1_dropShadow_2_1395" result="shape"/>
</filter>
<linearGradient id="paint0_linear_2_1395" x1="20.0107" y1="-6.10351e-05" x2="20.0107" y2="39.9999" gradientUnits="userSpaceOnUse">
<stop stop-color="#1E2833"/>
<stop offset="1" stop-color="#141B22"/>
</linearGradient>
</defs>
</svg>
