<svg width="41" height="40" viewBox="0 0 41 40" fill="none" xmlns="http://www.w3.org/2000/svg">
<rect x="0.0107422" y="-6.10352e-05" width="40" height="40" rx="8" fill="url(#paint0_linear_2_1401)"/>
<g filter="url(#filter0_d_2_1401)">
<path d="M18.6184 6.07946C13.7876 6.55929 9.59333 9.45697 7.42131 13.8191C6.6973 15.271 6.21047 16.9411 6.04819 18.5239L6.01074 18.8853H7.25903C7.94559 18.8853 8.50732 18.8666 8.51356 18.8355C8.58221 17.8197 9.0316 16.2245 9.5746 15.0841C11.5032 11.046 15.5164 8.50978 19.9604 8.50978C21.8453 8.50978 23.4431 8.87744 25.0783 9.68754C26.9383 10.6098 28.43 11.9184 29.5722 13.6197C30.0777 14.3737 30.7768 15.7509 30.6894 15.8256C30.6582 15.8568 30.1589 16.0064 29.5846 16.1559L28.5361 16.4363L28.2615 15.9004C27.3752 14.1307 25.896 12.6475 24.1484 11.7689C23.518 11.4511 22.8689 11.208 22.769 11.2454C22.7253 11.2579 22.6691 11.4075 22.6504 11.5757C22.6254 11.7377 22.5568 12.1677 22.4881 12.5291C22.4257 12.8906 22.3571 13.2894 22.3383 13.414L22.2946 13.6446L22.8252 13.8939C24.6477 14.7413 25.9646 16.3117 26.5201 18.2933C26.6824 18.8666 26.7011 18.9975 26.7011 20.007C26.7011 21.0165 26.6824 21.1474 26.5201 21.7207C26.1893 22.8922 25.6026 23.9267 24.7975 24.7368C24.3356 25.2042 23.6553 25.7089 23.1622 25.9644C22.9937 26.0454 22.8626 26.1514 22.8626 26.195C22.8689 26.3009 23.4618 28.482 23.5055 28.5194C23.5617 28.5754 24.6165 28.0146 25.2344 27.6033C26.0083 27.0861 27.0818 26.0143 27.5999 25.2415C28.3239 24.1573 28.7733 23.1166 29.0541 21.8703C29.1727 21.3219 29.1977 21.0415 29.1977 20.0257C29.1977 19.0162 29.2102 18.823 29.2913 18.8043C30.0528 18.5862 31.3697 18.2622 31.3947 18.2809C31.4384 18.3307 31.507 19.3714 31.507 20.007C31.507 20.867 31.4259 21.7082 31.2886 22.3127C31.2261 22.5994 31.1762 22.8424 31.1825 22.8486C31.1887 22.8611 31.713 23.048 32.3434 23.2786C33.2172 23.5964 33.5043 23.6774 33.5417 23.6151C33.6416 23.4469 33.91 21.8017 33.9786 20.9231C34.1222 18.9601 33.7789 16.7043 33.0611 14.9283C31.0389 9.92434 26.62 6.59668 21.3023 6.07946C20.235 5.97353 19.6732 5.97353 18.6184 6.07946Z" fill="#00D845"/>
<path d="M18.9305 10.8279C18.4749 10.8715 17.4575 11.1146 16.9395 11.2953C14.3867 12.1926 12.2834 14.2428 11.3347 16.7666C10.5982 18.7171 10.5732 21.1661 11.2723 23.0792L11.4283 23.5029L10.8541 23.8332C9.70567 24.5 9.4997 24.6184 9.45602 24.6184C9.39984 24.6184 9.12522 23.9267 8.95046 23.3409C8.75073 22.643 8.53852 21.6335 8.51356 21.1723C8.50732 21.1474 7.94559 21.1287 7.25903 21.1287H6.01074L6.04819 21.4839C6.37899 24.7056 7.86445 27.7466 10.23 30.0461C15.7786 35.4302 24.6352 35.2993 30.0465 29.7532C30.758 29.0179 31.4633 28.1143 31.9626 27.2917C32.3933 26.5751 32.7241 25.9021 32.6742 25.8522C32.6492 25.8273 32.3496 25.7089 32.0063 25.5843C31.663 25.4596 31.2012 25.2914 30.9765 25.2166C30.7518 25.1356 30.5271 25.0484 30.4772 25.0297C30.4085 25.0047 30.3211 25.1107 30.1464 25.4472C29.0978 27.4911 27.138 29.3481 24.9223 30.4075C23.0311 31.3049 21.1088 31.6414 18.8307 31.4607C16.6025 31.2862 14.1184 30.1894 12.3146 28.5879C11.8028 28.133 11.0601 27.3354 10.7792 26.9365C10.6856 26.7994 10.6356 26.8368 12.0837 25.9956L12.6267 25.6778L13.3944 26.4442C14.7675 27.8214 16.2405 28.6315 18.1254 29.0553C18.6809 29.1737 18.9492 29.1986 19.9728 29.1986C20.6282 29.1986 21.1837 29.1799 21.2024 29.1612C21.2274 29.1425 21.1275 28.7063 20.9902 28.1953C20.8529 27.6843 20.7093 27.1546 20.6719 27.0113L20.6032 26.7558L19.7232 26.7184C18.063 26.6499 16.746 26.1264 15.5102 25.0421C15.3042 24.8614 15.0733 24.6371 15.0047 24.5498L14.8798 24.3878L16.2592 23.5902L17.6448 22.7988L19.0928 24.3317L20.7593 23.989L22.4257 23.6525L24.6726 21.4091L24.4729 20.6738C24.3481 20.2064 24.2482 19.9447 24.1983 19.9447C24.1484 19.9447 23.6428 20.0693 23.0686 20.2251L22.02 20.5118L21.5831 20.9355C21.1088 21.3967 21.1774 21.378 20.1476 21.4714L19.7731 21.5088L19.3237 21.0664C19.0741 20.8296 18.8681 20.6177 18.8681 20.6053C18.8681 20.5866 18.7994 20.3248 18.7183 20.0133L18.5685 19.4462L18.9742 18.904C19.1989 18.5987 19.3924 18.3494 19.4049 18.337C19.4111 18.3245 19.6795 18.2435 20.004 18.1625L20.5845 18.0129L21.3772 17.2215C21.8203 16.7853 22.1761 16.3989 22.1761 16.3616C22.1761 16.3242 21.9389 16.0624 21.6518 15.7758L21.1275 15.2586L19.6108 15.6698L18.0879 16.0811L17.7758 16.4052C17.6073 16.5859 17.2516 16.9722 16.9957 17.2651C16.7398 17.5518 16.4152 17.9194 16.2779 18.0752C15.7474 18.6735 15.7661 18.4928 16.0969 19.6269C16.2529 20.1815 16.3778 20.6489 16.3653 20.6551C16.3341 20.68 15.0421 21.4341 14.2432 21.8827C13.9436 22.051 13.6752 22.1881 13.6378 22.1881C13.6066 22.1881 13.5129 21.9263 13.4318 21.6085C13.3007 21.1162 13.282 20.8919 13.282 19.9759C13.2883 19.01 13.3007 18.8604 13.463 18.2933C13.8001 17.0969 14.3805 16.0936 15.2169 15.2586C16.3653 14.112 17.8757 13.4078 19.4111 13.3018C20.0602 13.252 20.0103 13.3018 20.1164 12.6226C20.1538 12.3796 20.21 12.0742 20.2412 11.9371C20.2724 11.8 20.3099 11.5757 20.3286 11.4386C20.3536 11.3015 20.3848 11.0959 20.4035 10.9837L20.4409 10.7843L19.7981 10.7968C19.4423 10.7968 19.0491 10.8155 18.9305 10.8279Z" fill="#00D845"/>
</g>
<rect x="1.06074" y="1.04994" width="37.9" height="37.9" rx="6.95" stroke="white" stroke-opacity="0.15" stroke-width="2.1"/>
<defs>
<filter id="filter0_d_2_1401" x="2.01074" y="1.99994" width="36" height="36.0001" filterUnits="userSpaceOnUse" color-interpolation-filters="sRGB">
<feFlood flood-opacity="0" result="BackgroundImageFix"/>
<feColorMatrix in="SourceAlpha" type="matrix" values="0 0 0 0 0 0 0 0 0 0 0 0 0 0 0 0 0 0 127 0" result="hardAlpha"/>
<feOffset/>
<feGaussianBlur stdDeviation="2"/>
<feComposite in2="hardAlpha" operator="out"/>
<feColorMatrix type="matrix" values="0 0 0 0 0 0 0 0 0 0 0 0 0 0 0 0 0 0 0.25 0"/>
<feBlend mode="normal" in2="BackgroundImageFix" result="effect1_dropShadow_2_1401"/>
<feBlend mode="normal" in="SourceGraphic" in2="effect1_dropShadow_2_1401" result="shape"/>
</filter>
<linearGradient id="paint0_linear_2_1401" x1="20.0107" y1="-6.10351e-05" x2="20.0107" y2="39.9999" gradientUnits="userSpaceOnUse">
<stop stop-color="#072C13"/>
<stop offset="1" stop-color="#041C0B"/>
</linearGradient>
</defs>
</svg>
