<svg width="41" height="40" viewBox="0 0 41 40" fill="none" xmlns="http://www.w3.org/2000/svg">
<g clip-path="url(#clip0_2_1431)">
<rect x="0.0107422" y="-6.10352e-05" width="40" height="40" rx="8" fill="url(#paint0_linear_2_1431)"/>
<g filter="url(#filter0_d_2_1431)">
<path d="M11.8016 19.2331L12.2338 19.1155L12.1418 18.6771L11.5751 15.9792L11.9814 12.8838L14.1965 16.2583L14.3371 16.4727H14.5935H15.7602H16.0166L16.1573 16.2583L18.3723 12.8838L18.7787 15.9792L18.212 18.6771L18.1199 19.1155L18.5522 19.2331L22.6355 20.344L23.1507 20.4841L23.2299 19.9561L23.8132 16.0681L23.8232 16.0021L23.8145 15.9358L22.6478 7.04902L22.6085 6.7495L22.3205 6.65811L18.8206 5.54726L18.5528 5.46227L18.3493 5.656L15.1769 8.67667L12.0044 5.656L11.801 5.46227L11.5332 5.54726L8.03322 6.65811L7.74528 6.7495L7.70596 7.04902L6.53929 15.9358L6.5306 16.0021L6.54051 16.0681L7.12384 19.9561L7.20306 20.4841L7.71827 20.344L11.8016 19.2331Z" fill="url(#paint1_linear_2_1431)" stroke="#544125" stroke-width="0.95"/>
<circle cx="18.7607" cy="9.74994" r="1.25" fill="black"/>
<circle cx="11.7603" cy="9.74994" r="1.25" fill="black"/>
<path d="M28.3174 21.0352L27.8852 21.1527L27.9773 21.5911L28.5317 24.2307L28.1376 27.2328L25.9838 23.9516L25.8431 23.7373L25.5867 23.7373L24.4446 23.7373L24.1882 23.7373L24.0475 23.9516L21.8937 27.2328L21.4996 24.2307L22.0541 21.5911L22.1461 21.1527L21.7139 21.0352L17.7163 19.9476L17.2011 19.8075L17.1219 20.3355L16.5508 24.1418L16.5409 24.2079L16.5496 24.2741L17.6918 32.9742L17.7311 33.2738L18.019 33.3652L21.4455 34.4527L21.7133 34.5377L21.9167 34.3439L25.0157 31.3933L28.1146 34.3439L28.318 34.5377L28.5858 34.4527L32.0123 33.3652L32.3002 33.2738L32.3395 32.9742L33.4817 24.2741L33.4904 24.2079L33.4805 24.1418L32.9094 20.3355L32.8302 19.8075L32.315 19.9476L28.3174 21.0352Z" fill="url(#paint2_linear_2_1431)" stroke="#959595" stroke-width="0.95"/>
<mask id="mask0_2_1431" style="mask-type:alpha" maskUnits="userSpaceOnUse" x="17" y="20" width="17" height="14">
<path d="M28.4421 21.4935L32.4397 20.406L33.0107 24.2123L31.8686 32.9124L28.4421 33.9999L25.0157 30.7374L21.5892 33.9999L18.1627 32.9124L17.0206 24.2123L17.5917 20.406L21.5892 21.4935L21.0181 24.2123L21.5892 28.5624L24.4446 24.2123L25.5867 24.2123L28.4421 28.5624L29.0132 24.2123L28.4421 21.4935Z" fill="url(#paint3_linear_2_1431)"/>
</mask>
<g mask="url(#mask0_2_1431)">
</g>
</g>
</g>
<rect x="1.06074" y="1.04994" width="37.9" height="37.9" rx="6.95" stroke="white" stroke-opacity="0.15" stroke-width="2.1"/>
<defs>
<filter id="filter0_d_2_1431" x="2.01074" y="0.924561" width="36" height="38.1508" filterUnits="userSpaceOnUse" color-interpolation-filters="sRGB">
<feFlood flood-opacity="0" result="BackgroundImageFix"/>
<feColorMatrix in="SourceAlpha" type="matrix" values="0 0 0 0 0 0 0 0 0 0 0 0 0 0 0 0 0 0 127 0" result="hardAlpha"/>
<feOffset/>
<feGaussianBlur stdDeviation="2"/>
<feComposite in2="hardAlpha" operator="out"/>
<feColorMatrix type="matrix" values="0 0 0 0 0 0 0 0 0 0 0 0 0 0 0 0 0 0 0.25 0"/>
<feBlend mode="normal" in2="BackgroundImageFix" result="effect1_dropShadow_2_1431"/>
<feBlend mode="normal" in="SourceGraphic" in2="effect1_dropShadow_2_1431" result="shape"/>
</filter>
<linearGradient id="paint0_linear_2_1431" x1="20.0107" y1="-6.10351e-05" x2="20.0107" y2="39.9999" gradientUnits="userSpaceOnUse">
<stop stop-color="#2C2A07"/>
<stop offset="1" stop-color="#1C1604"/>
</linearGradient>
<linearGradient id="paint1_linear_2_1431" x1="15.1769" y1="6" x2="15.1769" y2="19.8856" gradientUnits="userSpaceOnUse">
<stop stop-color="#FFF500"/>
<stop offset="1" stop-color="#D7A700"/>
</linearGradient>
<linearGradient id="paint2_linear_2_1431" x1="25.0157" y1="33.9999" x2="25.0157" y2="20.406" gradientUnits="userSpaceOnUse">
<stop stop-color="#111000"/>
<stop offset="1" stop-color="#161100"/>
</linearGradient>
<linearGradient id="paint3_linear_2_1431" x1="25.0157" y1="33.9999" x2="25.0157" y2="20.406" gradientUnits="userSpaceOnUse">
<stop stop-color="#111000"/>
<stop offset="1" stop-color="#161100"/>
</linearGradient>
<clipPath id="clip0_2_1431">
<rect x="0.0107422" y="-6.10352e-05" width="40" height="40" rx="8" fill="white"/>
</clipPath>
</defs>
</svg>
