<svg width="41" height="40" viewBox="0 0 41 40" fill="none" xmlns="http://www.w3.org/2000/svg">
<rect x="0.0107422" y="-0.00012207" width="40" height="40" rx="8" fill="url(#paint0_linear_2_1640)"/>
<g filter="url(#filter0_d_2_1640)">
<path d="M6.01074 19.9999C6.01074 27.7319 12.2788 33.9999 20.0107 33.9999C27.7427 33.9999 34.0107 27.7319 34.0107 19.9999C34.0107 12.2679 27.7427 5.99988 20.0107 5.99988C12.2788 5.99988 6.01074 12.2679 6.01074 19.9999Z" fill="url(#paint1_linear_2_1640)"/>
<path d="M16.7135 18.2168C16.0851 17.3685 14.8462 16.8116 13.6919 16.8116C11.7845 16.8116 10.0107 17.9553 10.0107 21.0941V26.3563C10.0107 26.7129 10.3071 27.0001 10.6725 27.0001C11.0381 27.0001 11.3344 26.7108 11.3344 26.3563V21.0941C11.3338 18.7087 12.5131 18.1015 13.6919 18.1015C14.8707 18.1015 16.0496 19.058 16.0496 20.6723V26.3563C16.0496 26.7129 16.3459 27.0001 16.7113 27.0001H16.7141H16.717C17.0824 27.0001 17.3788 26.7129 17.3788 26.3563V20.6723C17.3788 19.058 18.5576 18.1015 19.7364 18.1015C20.4848 18.1015 22.0939 18.4259 22.0939 20.6723L22.1386 22.5813C22.1386 26.1088 24.5642 27.0001 26.1078 27.0001C27.6513 27.0001 29.9636 25.9594 30.0107 22.8384V17.8442C30.0107 16.9851 28.6833 16.9851 28.6833 17.8442V22.8384C28.6833 25.206 26.8795 25.7103 26.1078 25.7103C25.336 25.7103 23.4617 25.3554 23.4617 22.5813L23.4176 20.7768C23.4176 18.1011 21.6976 16.704 19.7364 16.704C18.5821 16.704 17.342 17.3685 16.7135 18.2168Z" fill="white"/>
<path d="M23.3165 14.982C23.3165 13.6905 24.2909 12.2914 25.9758 12.2914C27.6607 12.2914 28.6319 13.6905 28.6319 14.982C28.6319 15.9505 29.958 15.9505 29.958 14.982C29.958 12.7219 28.212 11 25.9758 11C23.7397 11 21.9941 12.7219 21.9941 14.982C21.9944 15.9505 23.3165 15.9505 23.3165 14.982Z" fill="white"/>
<path d="M26.9769 15.0179C26.9769 14.5469 26.5862 14.1655 26.1037 14.1655C25.6212 14.1655 25.2305 14.5469 25.2305 15.0179C25.2305 15.4889 25.6212 15.8702 26.1037 15.8702C26.5862 15.8702 26.9769 15.4889 26.9769 15.0179Z" fill="white"/>
</g>
<rect x="1.06074" y="1.04988" width="37.9" height="37.9" rx="6.95" stroke="white" stroke-opacity="0.15" stroke-width="2.1"/>
<defs>
<filter id="filter0_d_2_1640" x="2.01074" y="1.99988" width="36" height="36" filterUnits="userSpaceOnUse" color-interpolation-filters="sRGB">
<feFlood flood-opacity="0" result="BackgroundImageFix"/>
<feColorMatrix in="SourceAlpha" type="matrix" values="0 0 0 0 0 0 0 0 0 0 0 0 0 0 0 0 0 0 127 0" result="hardAlpha"/>
<feOffset/>
<feGaussianBlur stdDeviation="2"/>
<feComposite in2="hardAlpha" operator="out"/>
<feColorMatrix type="matrix" values="0 0 0 0 0 0 0 0 0 0 0 0 0 0 0 0 0 0 0.25 0"/>
<feBlend mode="normal" in2="BackgroundImageFix" result="effect1_dropShadow_2_1640"/>
<feBlend mode="normal" in="SourceGraphic" in2="effect1_dropShadow_2_1640" result="shape"/>
</filter>
<linearGradient id="paint0_linear_2_1640" x1="20.0107" y1="-0.00012207" x2="20.0107" y2="39.9999" gradientUnits="userSpaceOnUse">
<stop stop-color="#170B3F"/>
<stop offset="1" stop-color="#0F0729"/>
</linearGradient>
<linearGradient id="paint1_linear_2_1640" x1="20.0107" y1="5.99988" x2="20.0107" y2="33.9999" gradientUnits="userSpaceOnUse">
<stop stop-color="#5529E5"/>
<stop offset="1" stop-color="#0F0239"/>
</linearGradient>
</defs>
</svg>
