<svg width="41" height="40" viewBox="0 0 41 40" fill="none" xmlns="http://www.w3.org/2000/svg">
<rect x="0.0107422" y="-6.10352e-05" width="40" height="40" rx="8" fill="url(#paint0_linear_2_1415)"/>
<g filter="url(#filter0_d_2_1415)">
<path d="M26.0141 6.65111C26.4953 6.37374 27.0107 6.15547 27.5456 6.00592C27.6776 5.98385 27.8099 6.02764 27.9376 6.05933C28.6013 6.26941 29.1917 6.65147 29.7669 7.0346C30.5846 7.60252 31.3632 8.23062 32.0735 8.92958C32.1578 9.00506 32.2399 9.08411 32.3089 9.17455C32.2257 9.16636 32.1432 9.15603 32.0603 9.14642C31.4457 9.07948 30.84 9.26748 30.2801 9.50391C29.6499 9.78912 29.0683 10.174 28.5341 10.6123C28.4516 10.6779 28.3726 10.748 28.2951 10.8192C28.1596 10.8936 28.0721 11.0257 27.9586 11.1272C27.8174 11.2568 27.6925 11.4053 27.5336 11.5139C27.3411 11.7478 27.1288 11.9665 26.9054 12.1701C26.7048 12.4518 26.4754 12.7117 26.262 12.9834C26.0589 13.2568 25.8679 13.5388 25.6655 13.813C25.6179 13.8782 25.5809 13.9501 25.5453 14.0224C25.3102 14.314 25.1391 14.6526 24.9599 14.9806C24.9008 15.1372 24.7788 15.2736 24.782 15.4491C24.9883 15.5371 25.1807 15.6542 25.3792 15.7586C25.7189 15.932 26.0546 16.1132 26.3858 16.3033C26.1813 16.423 25.9476 16.4753 25.7374 16.5828C25.4767 16.659 25.2369 16.7897 24.9769 16.8666C24.6518 17.0119 24.3118 17.1223 23.9849 17.2644C23.5507 17.4178 23.1299 17.6055 22.6981 17.7653C22.1187 17.9882 21.5478 18.235 20.957 18.4266C20.8521 18.3172 20.8631 18.1478 20.8276 18.0089C20.7209 17.7073 20.6472 17.395 20.5654 17.0863C20.5299 16.9621 20.4914 16.8385 20.4726 16.7103C20.4548 16.6836 20.437 16.6573 20.4196 16.6309C20.3947 16.3813 20.2916 16.1499 20.2453 15.9045C20.2133 15.7347 20.1365 15.5766 20.119 15.4036C20.1091 15.3875 20.0885 15.3551 20.0781 15.3391C20.0536 15.1251 19.9736 14.9239 19.9216 14.7164C19.794 14.2122 19.6599 13.7094 19.5187 13.2084C19.4746 12.9926 19.3974 12.7843 19.3696 12.5654C19.5219 12.5857 19.641 12.6836 19.7708 12.7562C19.9978 12.8513 20.2023 12.9901 20.4253 13.0934C20.5551 13.1507 20.6672 13.2479 20.8098 13.2754C21.2455 12.2784 21.7228 11.2967 22.2951 10.3699C22.3211 10.325 22.341 10.2769 22.3627 10.2296C22.5163 10.0451 22.6273 9.83078 22.7674 9.63637C22.9556 9.37323 23.1384 9.10512 23.3525 8.86157C23.5087 8.68318 23.6477 8.48984 23.8153 8.32177C23.9266 8.20926 24.0394 8.09781 24.1507 7.98493C24.4601 7.69581 24.792 7.43054 25.1462 7.19839C25.4375 7.01929 25.7135 6.81526 26.0141 6.65111Z" fill="#FEFEFE"/>
<path d="M17.0916 7.63469C17.9979 7.40859 18.9316 7.3153 19.8631 7.28432C21.316 7.28183 22.7804 7.49013 24.1505 7.98506C24.0391 8.09793 23.9264 8.20938 23.8151 8.3219C23.6475 8.48996 23.5085 8.6833 23.3523 8.86169C23.1382 9.10524 22.9554 9.37336 22.7672 9.63649C22.6271 9.8309 22.5161 10.0453 22.3625 10.2297C22.3408 10.2771 22.3208 10.3251 22.2949 10.37C21.7226 11.2968 21.2453 12.2785 20.8096 13.2755C20.6669 13.2481 20.5549 13.1509 20.4251 13.0935C20.2021 12.9903 19.9975 12.8514 19.7706 12.7563C19.6408 12.6837 19.5216 12.5858 19.3694 12.5655C19.3972 12.7845 19.4743 12.9928 19.5184 13.2085C19.6596 13.7095 19.7937 14.2123 19.9214 14.7165C19.9734 14.9241 20.0534 15.1252 20.0779 15.3392C20.0882 15.3553 20.1089 15.3877 20.1188 15.4037C20.1363 15.5767 20.2131 15.7348 20.2451 15.9047C20.2913 16.15 20.3945 16.3814 20.4194 16.631C20.4368 16.6574 20.4546 16.6837 20.4724 16.7104C20.4912 16.8386 20.5296 16.9622 20.5652 17.0864C20.647 17.3952 20.7206 17.7074 20.8273 18.009C20.8629 18.1479 20.8519 18.3174 20.9568 18.4267C21.5476 18.2351 22.1185 17.9884 22.6979 17.7655C23.1297 17.6056 23.5504 17.4179 23.9847 17.2645C24.3116 17.1224 24.6516 17.012 24.9767 16.8668C25.2367 16.7898 25.4764 16.6592 25.7372 16.583C25.9474 16.4754 26.181 16.4231 26.3856 16.3035C26.0544 16.1133 25.7187 15.9321 25.379 15.7587C25.1805 15.6544 24.9881 15.5372 24.7818 15.4493C24.7786 15.2737 24.9006 15.1373 24.9596 14.9807C25.1389 14.6527 25.31 14.3141 25.5451 14.0225C25.5807 13.9502 25.6176 13.8783 25.6653 13.8131C25.8677 13.539 26.0587 13.257 26.2618 12.9835C26.4752 12.7118 26.7046 12.4519 26.9052 12.1703C27.1286 11.9666 27.3409 11.748 27.5333 11.514C27.6923 11.4054 27.8172 11.2569 27.9584 11.1273C28.0718 11.0259 28.1593 10.8938 28.2948 10.8193C28.3724 10.7481 28.4513 10.678 28.5339 10.6125C28.9657 10.9265 29.2879 11.3584 29.6468 11.7472C29.7834 11.8858 29.8886 12.0503 30.0185 12.1945C30.2838 12.5626 30.5548 12.9283 30.7786 13.3243C30.9198 13.5208 31.0275 13.738 31.1463 13.9484C31.2381 14.1161 31.2893 14.3045 31.4003 14.4622C31.9452 15.5678 32.3005 16.7656 32.4912 17.9823C32.6313 18.8746 32.6466 19.7812 32.6103 20.682C32.5438 21.7986 32.3329 22.9095 31.9651 23.966C30.9781 22.963 29.7727 22.207 28.5371 21.5508C28.2411 21.3788 27.9246 21.2474 27.6201 21.0922C27.3594 20.9576 27.0923 20.8351 26.8202 20.7254C26.7629 20.7083 26.7508 20.65 26.7387 20.6001C26.7732 20.573 26.8081 20.5463 26.843 20.5196C26.9429 20.2266 27.1264 19.9709 27.2555 19.69C27.3178 19.5419 27.4217 19.4155 27.4739 19.2624C27.379 19.2606 27.2836 19.2677 27.1961 19.3054C25.6742 19.7092 24.153 20.1215 22.6338 20.5357C22.2874 20.6029 21.9563 20.7336 21.6095 20.8041C21.6351 20.9245 21.6707 21.0423 21.7087 21.1598C21.8425 21.4661 21.9396 21.7869 22.0761 22.0924C22.1956 22.4032 22.3056 22.7187 22.4393 23.0242C22.8508 24.1145 23.2933 25.1923 23.6991 26.2843C23.8311 26.1366 23.8962 25.9471 23.9972 25.7794C24.196 25.4127 24.3905 25.0438 24.589 24.6763C24.6587 24.6842 24.7309 24.6909 24.7932 24.7276C24.9753 24.828 25.1709 24.9035 25.3438 25.0207C25.4017 25.0612 25.47 25.0819 25.538 25.1011C25.7514 25.2834 26.0114 25.3991 26.2312 25.5736C26.7078 25.8816 27.1563 26.2313 27.5885 26.5991C27.782 26.7351 27.9328 26.9231 28.1323 27.0506C28.2123 27.157 28.3044 27.2528 28.4008 27.3447C28.5278 27.465 28.6391 27.6032 28.7853 27.7022C28.9561 27.934 29.1641 28.1355 29.3469 28.3581C29.2698 28.5343 29.1094 28.644 28.982 28.78C28.6157 29.1987 28.1647 29.5277 27.7432 29.8866C27.5657 30.0483 27.3519 30.1608 27.1616 30.3054C26.7071 30.6461 26.212 30.9267 25.7019 31.1756C24.1978 31.9411 22.5357 32.3926 20.8515 32.4966C20.4183 32.545 19.9805 32.5137 19.5455 32.5212C18.4688 32.4663 17.3929 32.3001 16.3611 31.9799C16.233 31.9419 16.1014 31.9098 15.983 31.8454C16.3675 31.4437 16.7317 31.0207 17.044 30.56C17.082 30.5037 17.124 30.4499 17.166 30.3969C17.1749 30.3659 17.1838 30.3353 17.193 30.3054C17.3616 30.1644 17.447 29.9582 17.5736 29.7841C17.6949 29.6128 17.766 29.4124 17.8866 29.2404C18.0804 28.9174 18.2433 28.5763 18.4404 28.2555C18.4937 28.0736 18.6061 27.9172 18.6694 27.7389C18.8 27.5049 18.9095 27.2607 19.0127 27.0135C19.0308 27.0075 19.0671 26.9954 19.0849 26.9893C19.0938 26.9067 19.1034 26.8245 19.1137 26.7426C19.289 26.7561 19.4345 26.8594 19.5878 26.9349C19.9189 27.1054 20.2355 27.3062 20.5752 27.4593C20.5713 27.1834 20.4585 26.9281 20.397 26.6635C20.2077 25.9721 20.0363 25.2763 19.8414 24.5866C19.8229 24.5168 19.7948 24.4502 19.7646 24.3851C19.6966 23.9781 19.5508 23.5886 19.4679 23.1844C19.3854 22.9986 19.3691 22.7935 19.3111 22.6005C19.2076 22.2679 19.1243 21.9296 19.0479 21.5903C18.8636 21.5629 18.7171 21.6925 18.5499 21.7427C18.2319 21.8488 17.9271 21.9902 17.6116 22.1031C17.3442 22.2163 17.0667 22.3035 16.8007 22.4196C16.7217 22.4545 16.6403 22.483 16.5578 22.5075C16.2412 22.6496 15.909 22.7514 15.5914 22.8907C15.2802 23.005 14.9682 23.1182 14.6652 23.2535C14.4009 23.3546 14.131 23.4444 13.8759 23.5679C13.8037 23.5886 13.7312 23.6089 13.6586 23.6288C13.6547 23.6601 13.6476 23.7228 13.6437 23.7538C14.1548 24.0169 14.6602 24.2911 15.1642 24.5677C15.1553 24.6329 15.1528 24.702 15.1194 24.7614C14.9149 25.1474 14.7278 25.5451 14.4767 25.904C14.0844 26.4987 13.6657 27.0766 13.2069 27.6214C13.0134 27.8507 12.7972 28.06 12.6104 28.2947C12.3764 28.4891 12.1552 28.7038 11.962 28.9395C11.818 29.0349 11.6956 29.1578 11.5647 29.2703C11.3133 29.0374 11.0728 28.7928 10.831 28.5503C10.3924 28.0593 9.98871 27.538 9.60422 27.0039C9.49716 26.8067 9.34066 26.6415 9.24071 26.4399C9.11018 26.1654 8.93589 25.9147 8.79255 25.647C8.72746 25.4358 8.63179 25.2361 8.52046 25.0456C8.38992 24.7792 8.29389 24.4976 8.18256 24.2231C8.24872 24.1924 8.22311 24.1145 8.19963 24.0671C8.17936 24.1116 8.16691 24.159 8.16264 24.2088C8.13846 24.0764 8.09364 23.9496 8.04669 23.8243C7.82048 23.1136 7.64193 22.3854 7.54874 21.6448C7.50926 21.3486 7.45662 21.053 7.46373 20.7532C7.42283 20.1967 7.41821 19.6369 7.46267 19.0808C7.47583 18.948 7.4463 18.7995 7.49646 18.6798L7.51459 18.6862C7.51886 18.6934 7.52704 18.708 7.53096 18.7151C7.52455 18.6592 7.51531 18.6033 7.51815 18.5474C7.57613 18.0361 7.65616 17.5269 7.77744 17.0266C7.84004 16.7411 7.9343 16.464 8.00365 16.1803C8.02286 16.1731 8.06092 16.1589 8.08013 16.1518C8.38103 16.4527 8.69545 16.74 9.03513 16.9967C9.29726 17.1812 9.54908 17.3798 9.81193 17.5629C10.7413 18.1696 11.7237 18.6927 12.731 19.1563C12.906 19.2517 13.1109 19.2901 13.2656 19.4219C13.2713 19.4564 13.2659 19.4895 13.2496 19.5209C13.076 19.8349 12.9092 20.1525 12.7406 20.4698C12.6737 20.5812 12.6136 20.6966 12.5717 20.8201C12.8 20.834 13.0091 20.734 13.2293 20.6945C13.4292 20.6556 13.6134 20.5609 13.8169 20.5374C14.8807 20.2362 15.9503 19.9585 17.0177 19.6722C17.2748 19.6216 17.5188 19.5184 17.7788 19.4813C17.8023 19.4632 17.8261 19.4454 17.8499 19.4279C18.0538 19.4244 18.2344 19.3147 18.4365 19.2994C18.3187 18.8953 18.1366 18.5146 17.9976 18.118C17.7031 17.3738 17.4178 16.6261 17.1315 15.8787C17.0401 15.6907 16.9896 15.4863 16.8917 15.3015C16.7413 14.8482 16.5499 14.4099 16.3824 13.9627C16.3636 13.9164 16.3422 13.8263 16.2721 13.8683C16.2152 13.9431 16.179 14.03 16.1377 14.1137C16.0466 14.3063 15.9247 14.484 15.8532 14.6859C15.6942 14.9095 15.5825 15.1619 15.4541 15.4033C15.2649 15.4072 15.1013 15.3061 14.9408 15.2196C14.1854 14.8443 13.5096 14.3337 12.8373 13.8292C12.5685 13.6041 12.2892 13.3916 12.0321 13.153C11.516 12.6538 10.9978 12.1532 10.5525 11.5888C10.7502 11.3342 10.9924 11.1202 11.2119 10.8849C11.4459 10.6666 11.6718 10.4373 11.9282 10.2439C12.2366 10.021 12.503 9.74118 12.8327 9.54783C13.2339 9.28897 13.6159 8.99237 14.0577 8.80259C14.5364 8.51453 15.0586 8.30801 15.5754 8.09793C16.0723 7.91812 16.577 7.75647 17.0916 7.63469Z" fill="#F9A332"/>
<path d="M9.15192 7.8809C9.40623 7.79651 9.67548 7.80577 9.9394 7.8072C10.225 7.81467 10.5142 7.78298 10.7955 7.84707C11.3298 7.88873 11.8569 8.00944 12.3626 8.18498C12.7518 8.31103 13.1419 8.43601 13.5168 8.60158C13.6925 8.67884 13.8668 8.76822 14.0578 8.8024C13.6161 8.99218 13.2341 9.28878 12.8329 9.54764C12.5031 9.74099 12.2367 10.0209 11.9284 10.2438C11.6719 10.4371 11.4461 10.6664 11.212 10.8847C10.9926 11.12 10.7503 11.334 10.5526 11.5886C9.89138 10.7501 9.31056 9.79333 9.16046 8.7173C9.11849 8.44633 9.16046 8.17252 9.15512 7.90191L9.15192 7.8809Z" fill="#9D6B36"/>
<path d="M6.59812 11.1401C7.30699 9.95618 8.18766 8.88264 9.15511 7.90204C9.16044 8.17265 9.11847 8.44646 9.16044 8.71743C9.31054 9.79346 9.89137 10.7502 10.5526 11.5887C10.9979 12.1531 11.5161 12.6537 12.0322 13.1529C12.2894 13.3915 12.5686 13.6041 12.8375 13.8291C13.5097 14.3336 14.1855 14.8442 14.941 15.2195C15.1014 15.3061 15.265 15.4072 15.4542 15.4033C15.5826 15.1619 15.6943 14.9094 15.8533 14.6858C15.9248 14.4839 16.0468 14.3062 16.1378 14.1136C16.1791 14.0299 16.2154 13.943 16.2723 13.8683C16.3423 13.8263 16.3637 13.9163 16.3825 13.9626C16.5501 14.4098 16.7414 14.8482 16.8919 15.3014C16.9897 15.4862 17.0402 15.6906 17.1316 15.8786C17.4179 16.626 17.7032 17.3737 17.9977 18.1179C18.1367 18.5146 18.3189 18.8952 18.4366 19.2993C18.2346 19.3146 18.0539 19.4243 17.8501 19.4279C17.8262 19.4453 17.8024 19.4631 17.7789 19.4813C17.5189 19.5183 17.2749 19.6216 17.0178 19.6721C15.9504 19.9584 14.8808 20.2361 13.817 20.5374C13.6136 20.5609 13.4293 20.6556 13.2294 20.6944C13.0093 20.7339 12.8001 20.834 12.5718 20.8201C12.6137 20.6965 12.6739 20.5812 12.7407 20.4697C12.9093 20.1525 13.0761 19.8349 13.2497 19.5208C13.2661 19.4895 13.2714 19.4564 13.2657 19.4218C13.111 19.2901 12.9061 19.2516 12.7311 19.1562C11.7238 18.6926 10.7414 18.1695 9.81205 17.5628C9.5492 17.3798 9.29738 17.1811 9.03524 16.9967C8.69557 16.7399 8.38115 16.4526 8.08024 16.1517C8.05321 16.1239 8.02689 16.0962 8.00093 16.068C7.65734 15.6945 7.3415 15.294 7.08007 14.8578C6.61377 14.1894 6.23853 13.4527 6.01801 12.6658C6.00272 12.5722 6.01232 12.4753 6.03971 12.3849C6.15139 11.9405 6.37582 11.5368 6.59812 11.1401Z" fill="#FEFEFE"/>
<path d="M30.2802 9.50399C30.8401 9.26757 31.4458 9.07956 32.0604 9.1465C32.1575 9.1668 32.2631 9.16324 32.3524 9.20953C32.4061 9.66102 32.42 10.1186 32.3759 10.5718C32.3471 11.2818 32.1593 11.9744 31.9217 12.6402C31.8296 12.908 31.7445 13.1793 31.6279 13.4382C31.5222 13.6824 31.4476 13.9463 31.2985 14.1681C31.3334 14.2657 31.3736 14.3618 31.4006 14.4622C31.2896 14.3045 31.2384 14.1161 31.1467 13.9484C31.0279 13.738 30.9201 13.5208 30.7789 13.3242C30.5552 12.9283 30.2841 12.5626 30.0188 12.1944C29.889 12.0502 29.7837 11.8857 29.6471 11.7472C29.2882 11.3584 28.966 10.9265 28.5342 10.6124C29.0684 10.1741 29.6499 9.7892 30.2802 9.50399Z" fill="#9D6B36"/>
<path d="M8.00075 16.068C8.02671 16.0961 8.05303 16.1239 8.08007 16.1517C8.06086 16.1588 8.0228 16.173 8.00359 16.1802C7.93424 16.4639 7.83998 16.741 7.77738 17.0265C7.6561 17.5268 7.57607 18.036 7.51809 18.5473C7.51525 18.6032 7.52449 18.6591 7.5309 18.715C7.52698 18.7079 7.5188 18.6933 7.51453 18.6861C7.46581 18.4964 7.52414 18.3044 7.54477 18.1154C7.62551 17.4189 7.81117 16.741 8.00075 16.068Z" fill="#9D6B36"/>
<path d="M27.196 19.3053C27.2835 19.2676 27.3789 19.2604 27.4738 19.2622C27.4215 19.4153 27.3177 19.5417 27.2554 19.6898C27.1263 19.9708 26.9428 20.2264 26.8429 20.5195C26.808 20.5462 26.7731 20.5729 26.7386 20.5999C26.7507 20.6498 26.7628 20.7082 26.8201 20.7253C27.0922 20.835 27.3593 20.9574 27.62 21.092C27.9245 21.2473 28.241 21.3787 28.537 21.5506C29.7726 22.2069 30.978 22.9628 31.965 23.9658C32.3232 24.3458 32.6483 24.7567 32.9228 25.2017C33.3728 25.8466 33.7445 26.5516 33.9732 27.3061C34.0671 27.5528 33.9639 27.8145 33.8828 28.0499C33.605 28.7492 33.1836 29.3791 32.7525 29.9912C32.3182 30.5805 31.864 31.1576 31.3579 31.6868C31.2227 31.8281 31.0893 31.9705 30.9584 32.1158C30.9125 32.1849 30.8421 32.2365 30.7589 32.2479C30.7923 32.2048 30.8482 32.176 30.8595 32.1187C30.9424 31.508 30.8126 30.8845 30.5761 30.3209C30.2777 29.6048 29.8473 28.9483 29.3468 28.3579C29.164 28.1354 28.9559 27.9338 28.7852 27.702C28.639 27.603 28.5277 27.4649 28.4007 27.3445C28.3043 27.2527 28.2122 27.1569 28.1322 27.0504C27.9327 26.923 27.7818 26.735 27.5884 26.5989C27.1562 26.2311 26.7077 25.8815 26.2311 25.5735C26.0113 25.399 25.7513 25.2833 25.5379 25.101C25.4699 25.0817 25.4016 25.0611 25.3437 25.0205C25.1708 24.9034 24.9752 24.8279 24.7931 24.7275C24.7308 24.6908 24.6586 24.684 24.5889 24.6762C24.3904 25.0436 24.1959 25.4125 23.9971 25.7793C23.896 25.947 23.831 26.1364 23.699 26.2842C23.2932 25.1921 22.8507 24.1143 22.4392 23.024C22.3054 22.7185 22.1955 22.4031 22.076 22.0922C21.9394 21.7867 21.8423 21.4659 21.7086 21.1597C21.6706 21.0422 21.635 20.9243 21.6094 20.804C21.9562 20.7335 22.2873 20.6028 22.6337 20.5355C24.1528 20.1214 25.6741 19.7091 27.196 19.3053Z" fill="#FEFEFE"/>
<path d="M18.5496 21.7425C18.7167 21.6923 18.8633 21.5627 19.0475 21.5901C19.124 21.9295 19.2072 22.2677 19.3107 22.6003C19.3687 22.7933 19.385 22.9984 19.4676 23.1842C19.5504 23.5884 19.6963 23.9779 19.7642 24.3849C19.7944 24.45 19.8225 24.5166 19.841 24.5864C20.0359 25.2761 20.2074 25.9719 20.3966 26.6634C20.4581 26.9279 20.5709 27.1832 20.5748 27.4592C20.2351 27.306 19.9186 27.1052 19.5874 26.9347C19.4341 26.8592 19.2887 26.7559 19.1133 26.7424C19.103 26.8243 19.0934 26.9065 19.0845 26.9892C19.0667 26.9952 19.0304 27.0073 19.0123 27.0134C18.9091 27.2605 18.7996 27.5047 18.6691 27.7387C18.6058 27.9171 18.4934 28.0734 18.44 28.2553C18.243 28.5761 18.0801 28.9172 17.8862 29.2402C17.7656 29.4122 17.6945 29.6126 17.5732 29.7839C17.4466 29.958 17.3612 30.1642 17.1926 30.3052C17.1834 30.3351 17.1745 30.3657 17.1656 30.3967C17.1236 30.4497 17.0817 30.5035 17.0436 30.5598C16.7313 31.0205 16.3671 31.4435 15.9826 31.8452C15.6575 32.1528 15.3239 32.4551 14.9511 32.7047C14.4503 33.0366 13.952 33.378 13.4032 33.6269C13.071 33.7772 12.7303 33.92 12.3732 33.9997C12.1441 34.0036 11.9264 33.9178 11.7159 33.837C11.1688 33.6009 10.6563 33.2922 10.1672 32.9529C9.26096 32.334 8.41943 31.6216 7.64404 30.845C7.91187 30.8589 8.18148 30.8963 8.44824 30.8482C8.91951 30.798 9.37158 30.642 9.79769 30.4394C10.4397 30.1378 11.0194 29.7205 11.5643 29.2701C11.6952 29.1576 11.8176 29.0347 11.9616 28.9393C12.1548 28.7036 12.376 28.4889 12.61 28.2945C12.7968 28.0598 13.013 27.8505 13.2065 27.6212C13.6654 27.0764 14.084 26.4985 14.4763 25.9039C14.7274 25.5449 14.9145 25.1472 15.119 24.7612C15.1525 24.7018 15.1549 24.6327 15.1638 24.5675C14.6598 24.2909 14.1544 24.0167 13.6433 23.7536C13.6472 23.7226 13.6543 23.6599 13.6582 23.6286C13.7308 23.6087 13.8034 23.5884 13.8756 23.5677C14.1306 23.4442 14.4005 23.3544 14.6648 23.2533C14.9679 23.118 15.2798 23.0048 15.591 22.8905C15.9086 22.7513 16.2408 22.6494 16.5574 22.5074C16.6399 22.4828 16.7214 22.4543 16.8003 22.4194C17.0664 22.3033 17.3438 22.2161 17.6113 22.1029C17.9268 21.99 18.2316 21.8486 18.5496 21.7425Z" fill="#FEFEFE"/>
<path d="M8.52068 25.0455C8.63201 25.236 8.72769 25.4358 8.79278 25.6469C8.93612 25.9147 9.1104 26.1654 9.24094 26.4399C9.34088 26.6414 9.49738 26.8066 9.60444 27.0039C9.98893 27.538 10.3926 28.0593 10.8312 28.5503C11.073 28.7928 11.3135 29.0374 11.5649 29.2702C11.02 29.7207 10.4403 30.138 9.79829 30.4396C9.37218 30.6422 8.92011 30.7981 8.44884 30.8483C8.18208 30.8964 7.91247 30.859 7.64464 30.8451C7.63824 30.8448 7.62544 30.8441 7.61868 30.8437C7.52478 30.3473 7.54185 29.8375 7.58204 29.3365C7.62615 28.6083 7.82497 27.9005 8.07928 27.2207C8.2557 26.6617 8.50112 26.1262 8.74974 25.5974C8.69639 25.4066 8.56088 25.2439 8.52068 25.0455Z" fill="#9D6B36"/>
<path d="M28.9822 28.78C29.1096 28.644 29.27 28.5343 29.3472 28.358C29.8476 28.9484 30.278 29.605 30.5764 30.321C30.8129 30.8847 30.9427 31.5081 30.8599 32.1188C30.8485 32.1761 30.7926 32.205 30.7592 32.248L30.7482 32.2602C30.3822 32.2879 30.0137 32.3182 29.6466 32.2837C29.4432 32.2872 29.2415 32.2673 29.0427 32.2249C28.5796 32.1889 28.1275 32.0682 27.6879 31.9226C27.3706 31.8297 27.058 31.7211 26.7564 31.5858C26.5522 31.5249 26.3591 31.4337 26.161 31.3561C26.0116 31.2867 25.869 31.1969 25.7021 31.1756C26.2122 30.9267 26.7073 30.6461 27.1619 30.3054C27.3521 30.1608 27.5659 30.0483 27.7434 29.8866C28.1649 29.5277 28.6159 29.1987 28.9822 28.78Z" fill="#9D6B36"/>
</g>
<rect x="1.06074" y="1.04994" width="37.9" height="37.9" rx="6.95" stroke="white" stroke-opacity="0.15" stroke-width="2.1"/>
<defs>
<filter id="filter0_d_2_1415" x="2.01074" y="1.99994" width="36" height="36" filterUnits="userSpaceOnUse" color-interpolation-filters="sRGB">
<feFlood flood-opacity="0" result="BackgroundImageFix"/>
<feColorMatrix in="SourceAlpha" type="matrix" values="0 0 0 0 0 0 0 0 0 0 0 0 0 0 0 0 0 0 127 0" result="hardAlpha"/>
<feOffset/>
<feGaussianBlur stdDeviation="2"/>
<feComposite in2="hardAlpha" operator="out"/>
<feColorMatrix type="matrix" values="0 0 0 0 0 0 0 0 0 0 0 0 0 0 0 0 0 0 0.25 0"/>
<feBlend mode="normal" in2="BackgroundImageFix" result="effect1_dropShadow_2_1415"/>
<feBlend mode="normal" in="SourceGraphic" in2="effect1_dropShadow_2_1415" result="shape"/>
</filter>
<linearGradient id="paint0_linear_2_1415" x1="20.0107" y1="-6.10351e-05" x2="20.0107" y2="39.9999" gradientUnits="userSpaceOnUse">
<stop stop-color="#301F09"/>
<stop offset="1" stop-color="#20150A"/>
</linearGradient>
</defs>
</svg>
