<svg width="41" height="40" viewBox="0 0 41 40" fill="none" xmlns="http://www.w3.org/2000/svg">
<rect x="0.0107422" y="-6.10352e-05" width="40" height="40" rx="8" fill="url(#paint0_linear_2_1444)"/>
<g filter="url(#filter0_d_2_1444)">
<path d="M14.0454 15.4237L18.0246 16.95V21.8788L14.0454 20.3525V15.4237Z" fill="#E9E9FF" stroke="#CCCCCC" stroke-width="0.212801" stroke-linejoin="bevel"/>
<path d="M10.0073 16.9726V21.9014L14.0454 20.3525V15.4237L10.0073 16.9726Z" fill="#353564" stroke="#CCCCCC" stroke-width="0.212801" stroke-linejoin="bevel"/>
<path d="M10.0073 21.901L13.9865 23.427L18.0246 21.8784L14.0454 20.3524L10.0073 21.901Z" fill="#AFAFDE" stroke="#CCCCCC" stroke-width="0.212801" stroke-linejoin="bevel"/>
<path d="M10.0073 16.9723L13.9865 18.4983L18.0246 16.9497L14.0454 15.4237L10.0073 16.9723Z" fill="#F7F7F4" stroke="#CCCCCC" stroke-width="0.212801" stroke-linejoin="bevel"/>
<path d="M13.9863 18.4989V23.4276L18.0244 21.8787V16.95L13.9863 18.4989Z" fill="white" stroke="#CCCCCC" stroke-width="0.212801" stroke-linejoin="bevel"/>
<path d="M10.0073 16.9727L13.9865 18.499V23.4277L10.0073 21.9014V16.9727Z" fill="#EFEEEA" stroke="#CCCCCC" stroke-width="0.212801" stroke-linejoin="bevel"/>
<path d="M18.042 11.9777L22.0212 13.504V18.4327L18.042 16.9064V11.9777Z" fill="#E9E9FF" stroke="#CCCCCC" stroke-width="0.212801" stroke-linejoin="bevel"/>
<path d="M14.0039 13.5266V18.4553L18.042 16.9064V11.9777L14.0039 13.5266Z" fill="#353564" stroke="#CCCCCC" stroke-width="0.212801" stroke-linejoin="bevel"/>
<path d="M14.0039 18.455L17.9831 19.9809L22.0211 18.4324L18.042 16.9064L14.0039 18.455Z" fill="#AFAFDE" stroke="#CCCCCC" stroke-width="0.212801" stroke-linejoin="bevel"/>
<path d="M14.0039 13.5262L17.9831 15.0522L22.0211 13.5037L18.042 11.9777L14.0039 13.5262Z" fill="#F7F7F4" stroke="#CCCCCC" stroke-width="0.212801" stroke-linejoin="bevel"/>
<path d="M17.9829 15.0528V19.9816L22.021 18.4327V13.5039L17.9829 15.0528Z" fill="white" stroke="#CCCCCC" stroke-width="0.212801" stroke-linejoin="bevel"/>
<path d="M14.0039 13.5266L17.9831 15.0529V19.9816L14.0039 18.4553V13.5266Z" fill="#EFEEEA" stroke="#CCCCCC" stroke-width="0.212801" stroke-linejoin="bevel"/>
<path d="M10.0488 21.9328L14.028 23.4591V28.3879L10.0488 26.8616V21.9328Z" fill="#E9E9FF" stroke="#CCCCCC" stroke-width="0.212801" stroke-linejoin="bevel"/>
<path d="M6.01074 23.4817V28.4105L10.0488 26.8616V21.9328L6.01074 23.4817Z" fill="#353564" stroke="#CCCCCC" stroke-width="0.212801" stroke-linejoin="bevel"/>
<path d="M6.01074 28.4101L9.98991 29.9361L14.028 28.3875L10.0488 26.8615L6.01074 28.4101Z" fill="#AFAFDE" stroke="#CCCCCC" stroke-width="0.212801" stroke-linejoin="bevel"/>
<path d="M6.01074 23.4814L9.98991 25.0074L14.028 23.4588L10.0488 21.9328L6.01074 23.4814Z" fill="#F7F7F4" stroke="#CCCCCC" stroke-width="0.212801" stroke-linejoin="bevel"/>
<path d="M9.98975 25.008V29.9368L14.0278 28.3879V23.4591L9.98975 25.008Z" fill="white" stroke="#CCCCCC" stroke-width="0.212801" stroke-linejoin="bevel"/>
<path d="M6.01074 23.4817L9.98991 25.008V29.9368L6.01074 28.4104V23.4817Z" fill="#EFEEEA" stroke="#CCCCCC" stroke-width="0.212801" stroke-linejoin="bevel"/>
<path d="M14.0454 23.4645L18.0246 24.9908V29.9196L14.0454 28.3932V23.4645Z" fill="#E9E9FF" stroke="#CCCCCC" stroke-width="0.212801" stroke-linejoin="bevel"/>
<path d="M10.0073 25.0134V29.9421L14.0454 28.3932V23.4645L10.0073 25.0134Z" fill="#353564" stroke="#CCCCCC" stroke-width="0.212801" stroke-linejoin="bevel"/>
<path d="M10.0073 29.9419L13.9865 31.4679L18.0246 29.9193L14.0454 28.3933L10.0073 29.9419Z" fill="#AFAFDE" stroke="#CCCCCC" stroke-width="0.212801" stroke-linejoin="bevel"/>
<path d="M10.0073 25.0131L13.9865 26.539L18.0246 24.9905L14.0454 23.4645L10.0073 25.0131Z" fill="#F7F7F4" stroke="#CCCCCC" stroke-width="0.212801" stroke-linejoin="bevel"/>
<path d="M13.9863 26.5397V31.4685L18.0244 29.9195V24.9908L13.9863 26.5397Z" fill="white" stroke="#CCCCCC" stroke-width="0.212801" stroke-linejoin="bevel"/>
<path d="M10.0073 25.0135L13.9865 26.5398V31.4686L10.0073 29.9422V25.0135Z" fill="#EFEEEA" stroke="#CCCCCC" stroke-width="0.212801" stroke-linejoin="bevel"/>
<path d="M14.0454 18.4869L18.0246 20.0132V24.942L14.0454 23.4156V18.4869Z" fill="#E9E9FF" stroke="#CCCCCC" stroke-width="0.212801" stroke-linejoin="bevel"/>
<path d="M10.0073 20.0358V24.9645L14.0454 23.4156V18.4869L10.0073 20.0358Z" fill="#353564" stroke="#CCCCCC" stroke-width="0.212801" stroke-linejoin="bevel"/>
<path d="M10.0073 24.9642L13.9865 26.4902L18.0246 24.9416L14.0454 23.4156L10.0073 24.9642Z" fill="#AFAFDE" stroke="#CCCCCC" stroke-width="0.212801" stroke-linejoin="bevel"/>
<path d="M10.0073 20.0355L13.9865 21.5614L18.0246 20.0129L14.0454 18.4869L10.0073 20.0355Z" fill="#F7F7F4" stroke="#CCCCCC" stroke-width="0.212801" stroke-linejoin="bevel"/>
<path d="M13.9863 21.5621V26.4909L18.0244 24.9419V20.0132L13.9863 21.5621Z" fill="white" stroke="#CCCCCC" stroke-width="0.212801" stroke-linejoin="bevel"/>
<path d="M10.0073 20.0358L13.9865 21.5621V26.4908L10.0073 24.9645V20.0358Z" fill="#EFEEEA" stroke="#CCCCCC" stroke-width="0.212801" stroke-linejoin="bevel"/>
<path d="M30.0312 20.4013L34.0104 21.9276V26.8564L30.0312 25.3301V20.4013Z" fill="#E9E9FF" stroke="#CCCCCC" stroke-width="0.212801" stroke-linejoin="bevel"/>
<path d="M25.9937 21.9502V26.879L30.0317 25.3301V20.4013L25.9937 21.9502Z" fill="#353564" stroke="#CCCCCC" stroke-width="0.212801" stroke-linejoin="bevel"/>
<path d="M25.9937 26.8787L29.9728 28.4046L34.0109 26.8561L30.0317 25.3301L25.9937 26.8787Z" fill="#AFAFDE" stroke="#CCCCCC" stroke-width="0.212801" stroke-linejoin="bevel"/>
<path d="M25.9937 21.9499L29.9728 23.4759L34.0109 21.9273L30.0317 20.4013L25.9937 21.9499Z" fill="#F7F7F4" stroke="#CCCCCC" stroke-width="0.212801" stroke-linejoin="bevel"/>
<path d="M29.9727 23.4766V28.4053L34.0107 26.8564V21.9277L29.9727 23.4766Z" fill="white" stroke="#CCCCCC" stroke-width="0.212801" stroke-linejoin="bevel"/>
<path d="M25.9937 21.9503L29.9728 23.4766V28.4054L25.9937 26.8791V21.9503Z" fill="#EFEEEA" stroke="#CCCCCC" stroke-width="0.212801" stroke-linejoin="bevel"/>
<path d="M26.0342 21.9328L30.0134 23.4591V28.3879L26.0342 26.8616V21.9328Z" fill="#E9E9FF" stroke="#CCCCCC" stroke-width="0.212801" stroke-linejoin="bevel"/>
<path d="M21.9961 23.4817V28.4105L26.0342 26.8616V21.9328L21.9961 23.4817Z" fill="#353564" stroke="#CCCCCC" stroke-width="0.212801" stroke-linejoin="bevel"/>
<path d="M21.9961 28.4101L25.9753 29.9361L30.0133 28.3875L26.0342 26.8615L21.9961 28.4101Z" fill="#AFAFDE" stroke="#CCCCCC" stroke-width="0.212801" stroke-linejoin="bevel"/>
<path d="M21.9961 23.4814L25.9753 25.0074L30.0133 23.4588L26.0342 21.9328L21.9961 23.4814Z" fill="#F7F7F4" stroke="#CCCCCC" stroke-width="0.212801" stroke-linejoin="bevel"/>
<path d="M25.9751 25.0081V29.9369L30.0132 28.388V23.4592L25.9751 25.0081Z" fill="#FFD242" stroke="#CCCCCC" stroke-width="0.212801" stroke-linejoin="bevel"/>
<path d="M21.9961 23.4818L25.9753 25.0081V29.9368L21.9961 28.4105V23.4818Z" fill="#EFEEEA" stroke="#CCCCCC" stroke-width="0.212801" stroke-linejoin="bevel"/>
<path d="M28.5065 27.3767C28.9348 27.2125 29.282 26.69 29.282 26.2097C29.282 25.7295 28.9348 25.4733 28.5065 25.6376C28.0782 25.8019 27.731 26.3244 27.731 26.8047C27.731 27.2849 28.0782 27.541 28.5065 27.3767Z" fill="white"/>
<path d="M22.0386 23.4645L26.0177 24.9908V29.9196L22.0386 28.3932V23.4645Z" fill="#E9E9FF" stroke="#CCCCCC" stroke-width="0.212801" stroke-linejoin="bevel"/>
<path d="M18 25.0134V29.9421L22.0381 28.3932V23.4645L18 25.0134Z" fill="#353564" stroke="#CCCCCC" stroke-width="0.212801" stroke-linejoin="bevel"/>
<path d="M18 29.942L21.9792 31.4679L26.0172 29.9194L22.0381 28.3934L18 29.942Z" fill="#AFAFDE" stroke="#CCCCCC" stroke-width="0.212801" stroke-linejoin="bevel"/>
<path d="M18 25.0131L21.9792 26.539L26.0172 24.9905L22.0381 23.4645L18 25.0131Z" fill="#F7F7F4" stroke="#CCCCCC" stroke-width="0.212801" stroke-linejoin="bevel"/>
<path d="M21.9795 26.5397V31.4685L26.0176 29.9195V24.9908L21.9795 26.5397Z" fill="#FFD242" stroke="#CCCCCC" stroke-width="0.212801" stroke-linejoin="bevel"/>
<path d="M18 25.0135L21.9792 26.5398V31.4686L18 29.9422V25.0135Z" fill="#EFEEEA" stroke="#CCCCCC" stroke-width="0.212801" stroke-linejoin="bevel"/>
<path d="M18.042 24.9961L22.0212 26.5224V31.4512L18.042 29.9248V24.9961Z" fill="#E9E9FF" stroke="#CCCCCC" stroke-width="0.212801" stroke-linejoin="bevel"/>
<path d="M14.0039 26.545V31.4738L18.042 29.9248V24.9961L14.0039 26.545Z" fill="#353564" stroke="#CCCCCC" stroke-width="0.212801" stroke-linejoin="bevel"/>
<path d="M14.0039 31.4734L17.9831 32.9994L22.0211 31.4508L18.042 29.9248L14.0039 31.4734Z" fill="#AFAFDE" stroke="#CCCCCC" stroke-width="0.212801" stroke-linejoin="bevel"/>
<path d="M14.0039 26.5447L17.9831 28.0707L22.0211 26.5221L18.042 24.9961L14.0039 26.5447Z" fill="#F7F7F4" stroke="#CCCCCC" stroke-width="0.212801" stroke-linejoin="bevel"/>
<path d="M17.9829 28.0714V33.0001L22.021 31.4512V26.5225L17.9829 28.0714Z" fill="white" stroke="#CCCCCC" stroke-width="0.212801" stroke-linejoin="bevel"/>
<path d="M14.0039 26.545L17.9831 28.0714V33.0001L14.0039 31.4738V26.545Z" fill="#EFEEEA" stroke="#CCCCCC" stroke-width="0.212801" stroke-linejoin="bevel"/>
<path d="M30.0312 15.4238L34.0104 16.9501V21.8789L30.0312 20.3526V15.4238Z" fill="#E9E9FF" stroke="#CCCCCC" stroke-width="0.212801" stroke-linejoin="bevel"/>
<path d="M25.9937 16.9727V21.9015L30.0317 20.3526V15.4238L25.9937 16.9727Z" fill="#353564" stroke="#CCCCCC" stroke-width="0.212801" stroke-linejoin="bevel"/>
<path d="M25.9937 21.9011L29.9728 23.4271L34.0109 21.8785L30.0317 20.3525L25.9937 21.9011Z" fill="#AFAFDE" stroke="#CCCCCC" stroke-width="0.212801" stroke-linejoin="bevel"/>
<path d="M25.9937 16.9724L29.9728 18.4984L34.0109 16.9498L30.0317 15.4238L25.9937 16.9724Z" fill="#F7F7F4" stroke="#CCCCCC" stroke-width="0.212801" stroke-linejoin="bevel"/>
<path d="M29.9727 18.4989V23.4277L34.0107 21.8788V16.95L29.9727 18.4989Z" fill="#FFD242" stroke="#CCCCCC" stroke-width="0.212801" stroke-linejoin="bevel"/>
<path d="M25.9937 16.9727L29.9728 18.499V23.4278L25.9937 21.9015V16.9727Z" fill="#EFEEEA" stroke="#CCCCCC" stroke-width="0.212801" stroke-linejoin="bevel"/>
<path d="M30.0312 10.4461L34.0104 11.9724V16.9012L30.0312 15.3749V10.4461Z" fill="#E9E9FF" stroke="#CCCCCC" stroke-width="0.212801" stroke-linejoin="bevel"/>
<path d="M25.9937 11.995V16.9238L30.0317 15.3749V10.4461L25.9937 11.995Z" fill="#353564" stroke="#CCCCCC" stroke-width="0.212801" stroke-linejoin="bevel"/>
<path d="M25.9937 16.9235L29.9728 18.4495L34.0109 16.9009L30.0317 15.3749L25.9937 16.9235Z" fill="#AFAFDE" stroke="#CCCCCC" stroke-width="0.212801" stroke-linejoin="bevel"/>
<path d="M25.9937 11.9947L29.9728 13.5207L34.0109 11.9721L30.0317 10.4461L25.9937 11.9947Z" fill="#FFC91D" stroke="#CCCCCC" stroke-width="0.212801" stroke-linejoin="bevel"/>
<path d="M29.9727 13.5213V18.4501L34.0107 16.9012V11.9724L29.9727 13.5213Z" fill="#FFD242" stroke="#CCCCCC" stroke-width="0.212801" stroke-linejoin="bevel"/>
<path d="M25.9937 11.995L29.9728 13.5213V18.4501L25.9937 16.9238V11.995Z" fill="#EFEEEA" stroke="#CCCCCC" stroke-width="0.212801" stroke-linejoin="bevel"/>
<path d="M26.0352 16.9551L30.0143 18.4815V23.4102L26.0352 21.8839V16.9551Z" fill="#E9E9FF" stroke="#CCCCCC" stroke-width="0.212801" stroke-linejoin="bevel"/>
<path d="M21.9966 18.5041V23.4329L26.0346 21.884V16.9552L21.9966 18.5041Z" fill="#353564" stroke="#CCCCCC" stroke-width="0.212801" stroke-linejoin="bevel"/>
<path d="M21.9966 23.4327L25.9758 24.9587L30.0138 23.4101L26.0346 21.8841L21.9966 23.4327Z" fill="#AFAFDE" stroke="#CCCCCC" stroke-width="0.212801" stroke-linejoin="bevel"/>
<path d="M21.9966 18.5038L25.9758 20.0298L30.0138 18.4812L26.0346 16.9552L21.9966 18.5038Z" fill="#F7F7F4" stroke="#CCCCCC" stroke-width="0.212801" stroke-linejoin="bevel"/>
<path d="M25.9756 20.0306V24.9594L30.0137 23.4104V18.4817L25.9756 20.0306Z" fill="#FFD242" stroke="#CCCCCC" stroke-width="0.212801" stroke-linejoin="bevel"/>
<path d="M21.9966 18.5043L25.9758 20.0306V24.9594L21.9966 23.433V18.5043Z" fill="#EFEEEA" stroke="#CCCCCC" stroke-width="0.212801" stroke-linejoin="bevel"/>
<path d="M26.0352 11.9777L30.0143 13.504V18.4328L26.0352 16.9065V11.9777Z" fill="#E9E9FF" stroke="#CCCCCC" stroke-width="0.212801" stroke-linejoin="bevel"/>
<path d="M21.9966 13.5266V18.4554L26.0346 16.9065V11.9777L21.9966 13.5266Z" fill="#353564" stroke="#CCCCCC" stroke-width="0.212801" stroke-linejoin="bevel"/>
<path d="M21.9966 18.455L25.9758 19.981L30.0138 18.4324L26.0346 16.9064L21.9966 18.455Z" fill="#AFAFDE" stroke="#CCCCCC" stroke-width="0.212801" stroke-linejoin="bevel"/>
<path d="M21.9966 13.5263L25.9758 15.0523L30.0138 13.5037L26.0346 11.9777L21.9966 13.5263Z" fill="#F7F7F4" stroke="#CCCCCC" stroke-width="0.212801" stroke-linejoin="bevel"/>
<path d="M25.9756 15.0529V19.9816L30.0137 18.4327V13.504L25.9756 15.0529Z" fill="#3775A9" stroke="#CCCCCC" stroke-width="0.212801" stroke-linejoin="bevel"/>
<path d="M21.9966 13.5267L25.9758 15.053V19.9818L21.9966 18.4554V13.5267Z" fill="#EFEEEA" stroke="#CCCCCC" stroke-width="0.212801" stroke-linejoin="bevel"/>
<path d="M26.0352 7.00006L30.0143 8.52638V13.4551L26.0352 11.9288V7.00006Z" fill="#E9E9FF" stroke="#CCCCCC" stroke-width="0.212801" stroke-linejoin="bevel"/>
<path d="M21.9966 8.54897V13.4777L26.0346 11.9288V7.00006L21.9966 8.54897Z" fill="#353564" stroke="#CCCCCC" stroke-width="0.212801" stroke-linejoin="bevel"/>
<path d="M21.9966 13.4774L25.9758 15.0033L30.0138 13.4548L26.0346 11.9288L21.9966 13.4774Z" fill="#AFAFDE" stroke="#CCCCCC" stroke-width="0.212801" stroke-linejoin="bevel"/>
<path d="M21.9966 8.54864L25.9758 10.0746L30.0138 8.52605L26.0346 7.00006L21.9966 8.54864Z" fill="#2F6491" stroke="#CCCCCC" stroke-width="0.212801" stroke-linejoin="bevel"/>
<path d="M25.9756 10.0753V15.0041L30.0137 13.4552V8.52643L25.9756 10.0753Z" fill="#3775A9" stroke="#CCCCCC" stroke-width="0.212801" stroke-linejoin="bevel"/>
<path d="M21.9966 8.54901L25.9758 10.0753V15.0041L21.9966 13.4778V8.54901Z" fill="#EFEEEA" stroke="#CCCCCC" stroke-width="0.212801" stroke-linejoin="bevel"/>
<path d="M22.0386 18.4869L26.0177 20.0132V24.942L22.0386 23.4156V18.4869Z" fill="#E9E9FF" stroke="#CCCCCC" stroke-width="0.212801" stroke-linejoin="bevel"/>
<path d="M18 20.0358V24.9645L22.0381 23.4156V18.4869L18 20.0358Z" fill="#353564" stroke="#CCCCCC" stroke-width="0.212801" stroke-linejoin="bevel"/>
<path d="M18 24.9642L21.9792 26.4902L26.0172 24.9416L22.0381 23.4156L18 24.9642Z" fill="#AFAFDE" stroke="#CCCCCC" stroke-width="0.212801" stroke-linejoin="bevel"/>
<path d="M18 20.0355L21.9792 21.5614L26.0172 20.0129L22.0381 18.4869L18 20.0355Z" fill="#F7F7F4" stroke="#CCCCCC" stroke-width="0.212801" stroke-linejoin="bevel"/>
<path d="M21.9795 21.5621V26.4909L26.0176 24.9419V20.0132L21.9795 21.5621Z" fill="#FFD242" stroke="#CCCCCC" stroke-width="0.212801" stroke-linejoin="bevel"/>
<path d="M18 20.0358L21.9792 21.5621V26.4908L18 24.9645V20.0358Z" fill="#EFEEEA" stroke="#CCCCCC" stroke-width="0.212801" stroke-linejoin="bevel"/>
<path d="M22.0386 13.5093L26.0177 15.0357V19.9644L22.0386 18.4381V13.5093Z" fill="#E9E9FF" stroke="#CCCCCC" stroke-width="0.212801" stroke-linejoin="bevel"/>
<path d="M18 15.0582V19.987L22.0381 18.4381V13.5093L18 15.0582Z" fill="#353564" stroke="#CCCCCC" stroke-width="0.212801" stroke-linejoin="bevel"/>
<path d="M18 19.9865L21.9792 21.5125L26.0172 19.9639L22.0381 18.4379L18 19.9865Z" fill="#AFAFDE" stroke="#CCCCCC" stroke-width="0.212801" stroke-linejoin="bevel"/>
<path d="M18 15.0579L21.9792 16.5839L26.0172 15.0353L22.0381 13.5093L18 15.0579Z" fill="#F7F7F4" stroke="#CCCCCC" stroke-width="0.212801" stroke-linejoin="bevel"/>
<path d="M21.9795 16.5845V21.5133L26.0176 19.9643V15.0356L21.9795 16.5845Z" fill="#3775A9" stroke="#CCCCCC" stroke-width="0.212801" stroke-linejoin="bevel"/>
<path d="M18 15.0582L21.9792 16.5845V21.5132L18 19.9869V15.0582Z" fill="#EFEEEA" stroke="#CCCCCC" stroke-width="0.212801" stroke-linejoin="bevel"/>
<path d="M18.042 20.0185L22.0212 21.5448V26.4736L18.042 24.9472V20.0185Z" fill="#E9E9FF" stroke="#CCCCCC" stroke-width="0.212801" stroke-linejoin="bevel"/>
<path d="M14.0039 21.5674V26.4962L18.042 24.9472V20.0185L14.0039 21.5674Z" fill="#353564" stroke="#CCCCCC" stroke-width="0.212801" stroke-linejoin="bevel"/>
<path d="M14.0039 26.4958L17.9831 28.0218L22.0211 26.4732L18.042 24.9472L14.0039 26.4958Z" fill="#AFAFDE" stroke="#CCCCCC" stroke-width="0.212801" stroke-linejoin="bevel"/>
<path d="M14.0039 21.5671L17.9831 23.0931L22.0211 21.5445L18.042 20.0185L14.0039 21.5671Z" fill="#F7F7F4" stroke="#CCCCCC" stroke-width="0.212801" stroke-linejoin="bevel"/>
<path d="M17.9829 23.0937V28.0225L22.021 26.4736V21.5448L17.9829 23.0937Z" fill="#3775A9" stroke="#CCCCCC" stroke-width="0.212801" stroke-linejoin="bevel"/>
<path d="M14.0039 21.5674L17.9831 23.0938V28.0225L14.0039 26.4962V21.5674Z" fill="#2F6491" stroke="#CCCCCC" stroke-width="0.212801" stroke-linejoin="bevel"/>
<path d="M18.042 15.0408L22.0212 16.5672V21.4959L18.042 19.9696V15.0408Z" fill="#E9E9FF" stroke="#CCCCCC" stroke-width="0.212801" stroke-linejoin="bevel"/>
<path d="M14.0039 16.5897V21.5185L18.042 19.9696V15.0408L14.0039 16.5897Z" fill="#353564" stroke="#CCCCCC" stroke-width="0.212801" stroke-linejoin="bevel"/>
<path d="M14.0039 21.5182L17.9831 23.0442L22.0211 21.4956L18.042 19.9696L14.0039 21.5182Z" fill="#AFAFDE" stroke="#CCCCCC" stroke-width="0.212801" stroke-linejoin="bevel"/>
<path d="M14.0039 16.5894L17.9831 18.1154L22.0211 16.5668L18.042 15.0408L14.0039 16.5894Z" fill="#2F6491" stroke="#CCCCCC" stroke-width="0.212801" stroke-linejoin="bevel"/>
<path d="M17.9829 18.1161V23.0449L22.021 21.496V16.5672L17.9829 18.1161Z" fill="#3775A9" stroke="#CCCCCC" stroke-width="0.212801" stroke-linejoin="bevel"/>
<path d="M14.0039 16.5898L17.9831 18.1161V23.0449L14.0039 21.5185V16.5898Z" fill="#2F6491" stroke="#CCCCCC" stroke-width="0.212801" stroke-linejoin="bevel"/>
<path d="M22.0386 8.53162L26.0177 10.0579V14.9867L22.0386 13.4604V8.53162Z" fill="#E9E9FF" stroke="#CCCCCC" stroke-width="0.212801" stroke-linejoin="bevel"/>
<path d="M18 10.0805V15.0093L22.0381 13.4604V8.53162L18 10.0805Z" fill="#353564" stroke="#CCCCCC" stroke-width="0.212801" stroke-linejoin="bevel"/>
<path d="M18 15.0089L21.9792 16.5349L26.0172 14.9863L22.0381 13.4603L18 15.0089Z" fill="#AFAFDE" stroke="#CCCCCC" stroke-width="0.212801" stroke-linejoin="bevel"/>
<path d="M18 10.0802L21.9792 11.6062L26.0172 10.0576L22.0381 8.53162L18 10.0802Z" fill="#2F6491" stroke="#CCCCCC" stroke-width="0.212801" stroke-linejoin="bevel"/>
<path d="M21.9795 11.6068V16.5356L26.0176 14.9867V10.0579L21.9795 11.6068Z" fill="#3775A9" stroke="#CCCCCC" stroke-width="0.212801" stroke-linejoin="bevel"/>
<path d="M18 10.0806L21.9792 11.6069V16.5356L18 15.0093V10.0806Z" fill="#2F6491" stroke="#CCCCCC" stroke-width="0.212801" stroke-linejoin="bevel"/>
<path d="M23.4864 14.3567C23.9147 14.1924 24.2619 13.6699 24.2619 13.1897C24.2619 12.7094 23.9147 12.4533 23.4864 12.6176C23.0581 12.7819 22.7109 13.3043 22.7109 13.7846C22.7109 14.2648 23.0581 14.521 23.4864 14.3567Z" fill="white"/>
</g>
<rect x="1.06074" y="1.04994" width="37.9" height="37.9" rx="6.95" stroke="white" stroke-opacity="0.15" stroke-width="2.1"/>
<defs>
<filter id="filter0_d_2_1444" x="1.9043" y="1.99994" width="36.2129" height="36" filterUnits="userSpaceOnUse" color-interpolation-filters="sRGB">
<feFlood flood-opacity="0" result="BackgroundImageFix"/>
<feColorMatrix in="SourceAlpha" type="matrix" values="0 0 0 0 0 0 0 0 0 0 0 0 0 0 0 0 0 0 127 0" result="hardAlpha"/>
<feOffset/>
<feGaussianBlur stdDeviation="2"/>
<feComposite in2="hardAlpha" operator="out"/>
<feColorMatrix type="matrix" values="0 0 0 0 0 0 0 0 0 0 0 0 0 0 0 0 0 0 0.25 0"/>
<feBlend mode="normal" in2="BackgroundImageFix" result="effect1_dropShadow_2_1444"/>
<feBlend mode="normal" in="SourceGraphic" in2="effect1_dropShadow_2_1444" result="shape"/>
</filter>
<linearGradient id="paint0_linear_2_1444" x1="20.0107" y1="-6.10351e-05" x2="20.0107" y2="39.9999" gradientUnits="userSpaceOnUse">
<stop stop-color="#001F31"/>
<stop offset="1" stop-color="#00121D"/>
</linearGradient>
</defs>
</svg>
