<svg width="41" height="40" viewBox="0 0 41 40" fill="none" xmlns="http://www.w3.org/2000/svg">
<g clip-path="url(#clip0_2_1633)">
<rect x="0.0107422" y="-0.00012207" width="40" height="40" rx="8" fill="url(#paint0_linear_2_1633)"/>
<g filter="url(#filter0_d_2_1633)">
<path d="M3.39531 21.5691C3.32437 21.5691 3.26806 21.6285 3.25888 21.7133L3.01025 23.7597L3.25888 25.7709C3.26806 25.8556 3.32433 25.9147 3.39531 25.9147C3.46402 25.9147 3.51998 25.856 3.53094 25.7716L3.82564 23.7597L3.53094 21.7129C3.52033 21.6285 3.46368 21.5691 3.39531 21.5691ZM4.79354 20.451C4.78182 20.3631 4.72369 20.3024 4.65203 20.3024C4.57999 20.3024 4.52038 20.365 4.51052 20.451C4.51052 20.4518 4.17631 23.7597 4.17631 23.7597L4.51052 26.9951C4.52004 27.0819 4.57964 27.1445 4.65203 27.1445C4.72332 27.1445 4.78148 27.0835 4.79316 26.9959L5.17341 23.7597L4.79354 20.451ZM10.0604 17.399C9.92325 17.399 9.80987 17.5206 9.80331 17.6752L9.53713 23.7625L9.80331 27.6964C9.81025 27.8501 9.92325 27.9714 10.0604 27.9714C10.1967 27.9714 10.3097 27.8497 10.3178 27.6956V27.6968L10.6187 23.7625L10.3178 17.6752C10.3097 17.5206 10.1967 17.399 10.0604 17.399ZM7.33443 19.5147C7.22913 19.5147 7.14321 19.6059 7.13476 19.7275L6.83494 23.7609L7.13476 27.6631C7.1428 27.7839 7.2291 27.8751 7.33443 27.8751C7.43863 27.8751 7.52455 27.7839 7.53373 27.6631L7.8745 23.7609L7.53373 19.7267C7.52455 19.6059 7.43863 19.5147 7.33443 19.5147ZM12.8305 27.971C13.0006 27.971 13.1388 27.8224 13.1457 27.6322L13.4068 23.7644L13.1461 15.66C13.1392 15.4698 13.0009 15.3213 12.8309 15.3213C12.6594 15.3213 12.5209 15.4702 12.5153 15.6604L12.2839 23.764L12.5153 27.6334C12.5208 27.822 12.6594 27.971 12.8305 27.971ZM18.5018 27.9892C18.7358 27.9892 18.9289 27.7804 18.9332 27.5237L19.1153 23.7668L18.9332 14.4068C18.9292 14.1505 18.7357 13.9413 18.5017 13.9413C18.2673 13.9413 18.0739 14.1501 18.0702 14.4072L17.9075 23.7637C17.9075 23.7696 18.0702 27.526 18.0702 27.526C18.074 27.7804 18.2677 27.9892 18.5018 27.9892ZM15.6446 27.9746C15.8482 27.9746 16.0124 27.7974 16.0179 27.5716V27.5744L16.2395 23.7653L16.0175 15.6022C16.012 15.3764 15.8479 15.1997 15.6442 15.1997C15.439 15.1997 15.2749 15.3764 15.2705 15.6022L15.0734 23.7657L15.2709 27.574C15.2753 27.7974 15.4394 27.9746 15.6446 27.9746ZM8.69209 27.9389C8.81312 27.9389 8.91114 27.8339 8.92028 27.6956L9.24133 23.7609L8.92028 20.0179C8.91151 19.8797 8.81353 19.7754 8.69209 19.7754C8.56927 19.7754 8.47125 19.8804 8.46359 20.0195L8.18091 23.7609L8.46359 27.6952C8.47163 27.8339 8.56923 27.9389 8.69209 27.9389ZM5.98777 27.7234C6.07623 27.7234 6.1479 27.6477 6.15814 27.5431L6.51866 23.7601L6.15848 19.8345C6.14786 19.7295 6.0762 19.6538 5.98773 19.6538C5.89813 19.6538 5.82647 19.7299 5.81733 19.8345L5.49996 23.7601L5.81733 27.5423C5.82613 27.6473 5.89779 27.7234 5.98777 27.7234ZM17.0677 15.4663C16.8465 15.4663 16.6691 15.6569 16.6647 15.9009L16.4849 23.766L16.6647 27.5506C16.6691 27.7915 16.8461 27.9821 17.0677 27.9821C17.2885 27.9821 17.4648 27.7919 17.4699 27.5478V27.551L17.6717 23.7664L17.4699 15.9001C17.4648 15.6569 17.2885 15.4663 17.0677 15.4663ZM11.4403 27.9789C11.5932 27.9789 11.7193 27.8438 11.7266 27.6714L12.0075 23.7636L11.7266 16.284C11.7189 16.1113 11.5932 15.9766 11.4403 15.9766C11.286 15.9766 11.1602 16.1117 11.1537 16.284L10.905 23.7636L11.154 27.673C11.1602 27.8438 11.286 27.9789 11.4403 27.9789ZM14.5761 27.61V27.608L14.8174 23.7648L14.5761 15.3874C14.5703 15.1795 14.4189 15.0162 14.232 15.0162C14.0441 15.0162 13.8927 15.1791 13.8876 15.3874L13.6733 23.7644L13.888 27.6096C13.8931 27.8156 14.0445 27.9785 14.2321 27.9785C14.4193 27.9785 14.5699 27.8156 14.5762 27.6084V27.61H14.5761ZM32.8286 18.9359C32.2556 18.9359 31.709 19.0615 31.211 19.2877C30.8782 15.2036 27.7176 11.9999 23.8622 11.9999C22.9188 11.9999 21.9992 12.2012 21.1871 12.5415C20.8715 12.6738 20.7874 12.8101 20.7845 13.0744V27.4567C20.7878 27.734 20.9863 27.965 21.2361 27.9924C21.2467 27.9935 32.7537 27.9999 32.8283 27.9999C35.1377 27.9999 37.0102 25.9709 37.0102 23.4681C37.0102 20.9652 35.1381 18.9359 32.8286 18.9359ZM19.9296 13.0617C19.6784 13.0617 19.4722 13.2852 19.4685 13.5597L19.2798 23.768L19.4689 27.4729C19.4722 27.7436 19.6784 27.9666 19.9296 27.9666C20.18 27.9666 20.3863 27.7436 20.3899 27.469V27.4733L20.5951 23.768L20.3899 13.559C20.3863 13.2852 20.18 13.0617 19.9296 13.0617Z" fill="url(#paint1_linear_2_1633)"/>
</g>
</g>
<rect x="1.06074" y="1.04988" width="37.9" height="37.9" rx="6.95" stroke="white" stroke-opacity="0.15" stroke-width="2.1"/>
<defs>
<filter id="filter0_d_2_1633" x="-0.989746" y="1.99988" width="42" height="36" filterUnits="userSpaceOnUse" color-interpolation-filters="sRGB">
<feFlood flood-opacity="0" result="BackgroundImageFix"/>
<feColorMatrix in="SourceAlpha" type="matrix" values="0 0 0 0 0 0 0 0 0 0 0 0 0 0 0 0 0 0 127 0" result="hardAlpha"/>
<feOffset/>
<feGaussianBlur stdDeviation="2"/>
<feComposite in2="hardAlpha" operator="out"/>
<feColorMatrix type="matrix" values="0 0 0 0 0 0 0 0 0 0 0 0 0 0 0 0 0 0 0.25 0"/>
<feBlend mode="normal" in2="BackgroundImageFix" result="effect1_dropShadow_2_1633"/>
<feBlend mode="normal" in="SourceGraphic" in2="effect1_dropShadow_2_1633" result="shape"/>
</filter>
<linearGradient id="paint0_linear_2_1633" x1="20.0107" y1="-0.00012207" x2="20.0107" y2="39.9999" gradientUnits="userSpaceOnUse">
<stop stop-color="#402806"/>
<stop offset="1" stop-color="#270802"/>
</linearGradient>
<linearGradient id="paint1_linear_2_1633" x1="20.0087" y1="11.9969" x2="20.0087" y2="32.9984" gradientUnits="userSpaceOnUse">
<stop stop-color="#F79810"/>
<stop offset="1" stop-color="#F8310E"/>
</linearGradient>
<clipPath id="clip0_2_1633">
<rect x="0.0107422" y="-0.00012207" width="40" height="40" rx="8" fill="white"/>
</clipPath>
</defs>
</svg>
