<svg width="41" height="40" viewBox="0 0 41 40" fill="none" xmlns="http://www.w3.org/2000/svg">
<rect x="0.0107422" y="-6.10352e-05" width="40" height="40" rx="8" fill="url(#paint0_linear_2_1356)"/>
<g filter="url(#filter0_d_2_1356)">
<path d="M6.582 24.0258C8.31298 29.7938 13.6666 33.9999 20.0017 33.9999C27.7387 33.9999 34.0107 27.7319 34.0107 19.9999C34.0107 12.268 27.7387 5.99994 20.0017 5.99994C12.5778 5.99994 6.50276 11.7719 6.02295 19.0698C6.93091 20.591 7.28332 21.5321 6.58112 24.0258H6.582Z" fill="url(#paint1_linear_2_1356)"/>
<path d="M19.2798 16.4934L19.2812 16.5625L15.8533 21.5391C15.2982 21.5137 14.7414 21.6113 14.2125 21.8287C13.9823 21.9222 13.7625 22.0395 13.5567 22.1787L6.02907 19.0781C6.02907 19.0781 5.85484 21.942 6.58068 24.0761L11.9023 26.2706C12.165 27.4641 12.988 28.5106 14.1972 29.0138C15.1485 29.4088 16.2177 29.4103 17.1701 29.018C18.1226 28.6258 18.8802 27.8718 19.2768 26.9216C19.4883 26.4155 19.5904 25.8704 19.5762 25.3221L24.4763 21.82L24.5967 21.8221C27.532 21.8221 29.9179 19.4308 29.9179 16.4934C29.9179 13.556 27.5364 11.1734 24.5967 11.1673C21.6627 11.1673 19.2755 13.556 19.2755 16.4934H19.2798ZM18.4568 26.5778C17.8203 28.109 16.0639 28.8296 14.5374 28.1939C13.8599 27.9094 13.3109 27.3859 12.9946 26.723L14.7269 27.4405C14.9945 27.5518 15.2815 27.6094 15.5713 27.6098C15.8612 27.6103 16.1483 27.5537 16.4163 27.4432C16.6842 27.3327 16.9278 27.1706 17.133 26.966C17.3382 26.7614 17.5011 26.5185 17.6123 26.251C17.8376 25.7104 17.8389 25.1027 17.616 24.5612C17.3932 24.0197 16.9643 23.5887 16.4238 23.363L14.6289 22.6215C15.3197 22.359 16.105 22.3502 16.8396 22.6551C17.5839 22.9627 18.153 23.542 18.4577 24.2826C18.7624 25.0233 18.7606 25.8401 18.4533 26.5778M24.6015 20.0437C23.6609 20.0412 22.7597 19.6662 22.0952 19.0009C21.4307 18.3356 21.0572 17.4343 21.0564 16.4943C21.0574 15.5544 21.4311 14.6533 22.0955 13.9882C22.76 13.3231 23.6611 12.9483 24.6015 12.9457C25.5421 12.948 26.4434 13.3228 27.1081 13.9879C27.7727 14.653 28.1465 15.5543 28.1475 16.4943C28.1467 17.4344 27.7731 18.3359 27.1084 19.0012C26.4437 19.6665 25.5422 20.0414 24.6015 20.0437M21.9451 16.4886C21.9445 15.7823 22.2245 15.1047 22.7236 14.6047C23.2227 14.1047 23.9001 13.8232 24.6068 13.822C26.0755 13.822 27.2702 15.0164 27.2702 16.4886C27.2706 17.195 26.9902 17.8726 26.4907 18.3725C25.9913 18.8724 25.3136 19.1536 24.6068 19.1543C23.9001 19.1532 23.2228 18.8719 22.7236 18.372C22.2245 17.8722 21.9443 17.1948 21.9446 16.4886H21.9451Z" fill="white"/>
</g>
<rect x="1.06074" y="1.04994" width="37.9" height="37.9" rx="6.95" stroke="white" stroke-opacity="0.15" stroke-width="2.1"/>
<defs>
<filter id="filter0_d_2_1356" x="2.01074" y="1.99994" width="36" height="36" filterUnits="userSpaceOnUse" color-interpolation-filters="sRGB">
<feFlood flood-opacity="0" result="BackgroundImageFix"/>
<feColorMatrix in="SourceAlpha" type="matrix" values="0 0 0 0 0 0 0 0 0 0 0 0 0 0 0 0 0 0 127 0" result="hardAlpha"/>
<feOffset/>
<feGaussianBlur stdDeviation="2"/>
<feComposite in2="hardAlpha" operator="out"/>
<feColorMatrix type="matrix" values="0 0 0 0 0 0 0 0 0 0 0 0 0 0 0 0 0 0 0.25 0"/>
<feBlend mode="normal" in2="BackgroundImageFix" result="effect1_dropShadow_2_1356"/>
<feBlend mode="normal" in="SourceGraphic" in2="effect1_dropShadow_2_1356" result="shape"/>
</filter>
<linearGradient id="paint0_linear_2_1356" x1="20.0107" y1="-6.10351e-05" x2="20.0107" y2="39.9999" gradientUnits="userSpaceOnUse">
<stop stop-color="#0D1B31"/>
<stop offset="1" stop-color="#081320"/>
</linearGradient>
<linearGradient id="paint1_linear_2_1356" x1="20.0168" y1="5.99994" x2="20.0168" y2="33.9999" gradientUnits="userSpaceOnUse">
<stop stop-color="#111D2E"/>
<stop offset="0.212" stop-color="#051839"/>
<stop offset="0.407" stop-color="#0A1B48"/>
<stop offset="0.581" stop-color="#132E62"/>
<stop offset="0.738" stop-color="#144B7E"/>
<stop offset="0.873" stop-color="#136497"/>
<stop offset="1" stop-color="#1387B8"/>
</linearGradient>
</defs>
</svg>
