<svg width="227" height="41" viewBox="0 0 227 41" fill="none" xmlns="http://www.w3.org/2000/svg">
<g clip-path="url(#clip0_28_2883)">
<rect x="0.00585938" y="0.0238037" width="226.001" height="40.0014" rx="8" fill="url(#paint0_linear_28_2883)"/>
<g filter="url(#filter0_d_28_2883)">
<ellipse cx="22.0077" cy="20.0318" rx="13.9994" ry="13.9934" fill="white"/>
<path opacity="0.5" d="M22.2851 12.554C22.253 12.554 22.2049 12.554 22.1888 12.5861L22.1567 12.6663L27.5521 32.8743C30.1631 31.7499 32.3698 29.8577 33.8788 27.4492L22.3814 12.6021C22.3698 12.5876 22.3551 12.5758 22.3385 12.5675C22.3219 12.5591 22.3037 12.5545 22.2851 12.554V12.554Z" fill="url(#paint1_linear_28_2883)"/>
<path d="M21.9568 6.02383C19.4602 6.03246 17.0114 6.70831 14.864 7.98131C12.7166 9.25432 10.9489 11.0782 9.74405 13.2639C8.53917 15.4496 7.94097 17.9176 8.01144 20.4121C8.0819 22.9066 8.81847 25.337 10.1448 27.4512L21.8183 12.3646C21.8547 12.3209 21.9276 12.2917 22.0079 12.2917C22.0881 12.2917 22.1537 12.3209 22.1974 12.3646L33.8636 27.4512C35.2629 25.2238 36.0058 22.6474 36.0073 20.0172C36.0073 12.2917 29.7367 6.02383 22.0079 6.02383C21.9908 6.0238 21.9738 6.0238 21.9568 6.02383V6.02383Z" fill="#2185D0"/>
</g>
<g filter="url(#filter1_d_28_2883)">
<path d="M52.1089 17.4087C52.0445 16.8372 51.7789 16.3945 51.312 16.0806C50.8452 15.7626 50.2576 15.6037 49.5492 15.6037C49.0421 15.6037 48.6034 15.6842 48.2332 15.8451C47.8629 16.0021 47.5751 16.2194 47.3699 16.4971C47.1687 16.7708 47.068 17.0827 47.068 17.4329C47.068 17.7267 47.1365 17.9802 47.2733 18.1935C47.4142 18.4068 47.5973 18.5859 47.8227 18.7308C48.0521 18.8717 48.2976 18.9904 48.5592 19.087C48.8208 19.1795 49.0723 19.256 49.3138 19.3164L50.5212 19.6303C50.9156 19.7269 51.3201 19.8577 51.7346 20.0227C52.1491 20.1877 52.5335 20.405 52.8876 20.6747C53.2418 20.9443 53.5276 21.2784 53.7449 21.6768C53.9662 22.0753 54.0769 22.5522 54.0769 23.1076C54.0769 23.8079 53.8958 24.4297 53.5336 24.973C53.1754 25.5163 52.6542 25.9449 51.97 26.2588C51.2899 26.5728 50.4668 26.7297 49.5009 26.7297C48.5753 26.7297 47.7744 26.5828 47.0982 26.289C46.4221 25.9952 45.8929 25.5787 45.5105 25.0394C45.1282 24.4961 44.9169 23.8521 44.8766 23.1076H46.7481C46.7843 23.5543 46.9292 23.9266 47.1827 24.2244C47.4403 24.5182 47.7683 24.7375 48.1668 24.8824C48.5692 25.0233 49.0099 25.0937 49.4889 25.0937C50.0161 25.0937 50.485 25.0112 50.8955 24.8462C51.31 24.6772 51.636 24.4437 51.8734 24.1459C52.1109 23.8441 52.2296 23.4919 52.2296 23.0895C52.2296 22.7232 52.125 22.4234 51.9157 22.19C51.7104 21.9565 51.4307 21.7633 51.0766 21.6104C50.7264 21.4575 50.33 21.3226 49.8873 21.2059L48.4264 20.8075C47.4363 20.5378 46.6515 20.1414 46.072 19.6182C45.4964 19.095 45.2087 18.4028 45.2087 17.5415C45.2087 16.8292 45.4019 16.2074 45.7882 15.6761C46.1746 15.1449 46.6978 14.7323 47.3578 14.4385C48.0179 14.1407 48.7624 13.9918 49.5915 13.9918C50.4286 13.9918 51.1671 14.1387 51.807 14.4325C52.451 14.7263 52.9581 15.1308 53.3283 15.6459C53.6986 16.157 53.8918 16.7446 53.9079 17.4087H52.1089ZM60.1576 26.7116C59.244 26.7116 58.4572 26.5164 57.7972 26.126C57.1412 25.7316 56.6341 25.1782 56.2759 24.4659C55.9217 23.7495 55.7446 22.9104 55.7446 21.9485C55.7446 20.9987 55.9217 20.1615 56.2759 19.4371C56.6341 18.7127 57.1331 18.1472 57.773 17.7407C58.417 17.3343 59.1696 17.131 60.0308 17.131C60.554 17.131 61.0611 17.2175 61.5522 17.3906C62.0432 17.5637 62.4839 17.8353 62.8742 18.2056C63.2646 18.5758 63.5725 19.0568 63.7979 19.6484C64.0233 20.236 64.136 20.9504 64.136 21.7915V22.4314H56.7649V21.0792H62.3671C62.3671 20.6043 62.2705 20.1837 62.0774 19.8174C61.8842 19.4472 61.6125 19.1554 61.2624 18.9421C60.9163 18.7288 60.5098 18.6221 60.0429 18.6221C59.5358 18.6221 59.0931 18.7469 58.7148 18.9964C58.3405 19.2419 58.0507 19.5639 57.8455 19.9623C57.6442 20.3567 57.5436 20.7854 57.5436 21.2482V22.3047C57.5436 22.9244 57.6523 23.4517 57.8696 23.8863C58.091 24.321 58.3989 24.653 58.7933 24.8824C59.1877 25.1078 59.6485 25.2205 60.1757 25.2205C60.5178 25.2205 60.8297 25.1722 61.1115 25.0756C61.3932 24.975 61.6367 24.8261 61.8419 24.6289C62.0472 24.4317 62.2041 24.1882 62.3128 23.8984L64.0213 24.2063C63.8844 24.7094 63.6389 25.1501 63.2848 25.5284C62.9346 25.9027 62.4939 26.1945 61.9627 26.4037C61.4354 26.609 60.8338 26.7116 60.1576 26.7116ZM70.1352 26.7116C69.2216 26.7116 68.4348 26.5164 67.7747 26.126C67.1187 25.7316 66.6116 25.1782 66.2534 24.4659C65.8992 23.7495 65.7222 22.9104 65.7222 21.9485C65.7222 20.9987 65.8992 20.1615 66.2534 19.4371C66.6116 18.7127 67.1107 18.1472 67.7506 17.7407C68.3945 17.3343 69.1471 17.131 70.0084 17.131C70.5316 17.131 71.0387 17.2175 71.5297 17.3906C72.0207 17.5637 72.4614 17.8353 72.8518 18.2056C73.2422 18.5758 73.55 19.0568 73.7754 19.6484C74.0008 20.236 74.1135 20.9504 74.1135 21.7915V22.4314H66.7424V21.0792H72.3447C72.3447 20.6043 72.2481 20.1837 72.0549 19.8174C71.8617 19.4472 71.5901 19.1554 71.2399 18.9421C70.8938 18.7288 70.4873 18.6221 70.0205 18.6221C69.5134 18.6221 69.0706 18.7469 68.6923 18.9964C68.318 19.2419 68.0283 19.5639 67.823 19.9623C67.6218 20.3567 67.5212 20.7854 67.5212 21.2482V22.3047C67.5212 22.9244 67.6298 23.4517 67.8472 23.8863C68.0685 24.321 68.3764 24.653 68.7708 24.8824C69.1652 25.1078 69.626 25.2205 70.1533 25.2205C70.4954 25.2205 70.8073 25.1722 71.089 25.0756C71.3707 24.975 71.6142 24.8261 71.8195 24.6289C72.0247 24.4317 72.1817 24.1882 72.2903 23.8984L73.9988 24.2063C73.862 24.7094 73.6165 25.1501 73.2623 25.5284C72.9121 25.9027 72.4714 26.1945 71.9402 26.4037C71.413 26.609 70.8113 26.7116 70.1352 26.7116ZM80.6153 26.5245V17.2517H82.3479V18.761H82.4626C82.6558 18.2499 82.9717 17.8514 83.4104 17.5657C83.8491 17.2759 84.3743 17.131 84.986 17.131C85.6058 17.131 86.125 17.2759 86.5435 17.5657C86.9661 17.8554 87.278 18.2539 87.4793 18.761H87.5758C87.7972 18.2659 88.1494 17.8715 88.6323 17.5777C89.1153 17.2799 89.6908 17.131 90.3589 17.131C91.2 17.131 91.8862 17.3946 92.4175 17.9218C92.9527 18.4491 93.2204 19.2439 93.2204 20.3064V26.5245H91.4153V20.4755C91.4153 19.8476 91.2443 19.3928 90.9022 19.1111C90.5601 18.8294 90.1516 18.6885 89.6767 18.6885C89.0891 18.6885 88.6323 18.8696 88.3063 19.2319C87.9803 19.59 87.8173 20.0509 87.8173 20.6143V26.5245H86.0183V20.3608C86.0183 19.8577 85.8614 19.4532 85.5474 19.1473C85.2335 18.8415 84.825 18.6885 84.3219 18.6885C83.9799 18.6885 83.6639 18.7791 83.3741 18.9602C83.0884 19.1373 82.857 19.3848 82.6799 19.7027C82.5068 20.0207 82.4203 20.3889 82.4203 20.8075V26.5245H80.6153ZM99.6361 26.7116C98.7225 26.7116 97.9357 26.5164 97.2757 26.126C96.6197 25.7316 96.1126 25.1782 95.7544 24.4659C95.4002 23.7495 95.2231 22.9104 95.2231 21.9485C95.2231 20.9987 95.4002 20.1615 95.7544 19.4371C96.1126 18.7127 96.6116 18.1472 97.2515 17.7407C97.8955 17.3343 98.6481 17.131 99.5093 17.131C100.033 17.131 100.54 17.2175 101.031 17.3906C101.522 17.5637 101.962 17.8353 102.353 18.2056C102.743 18.5758 103.051 19.0568 103.276 19.6484C103.502 20.236 103.614 20.9504 103.614 21.7915V22.4314H96.2434V21.0792H101.846C101.846 20.6043 101.749 20.1837 101.556 19.8174C101.363 19.4472 101.091 19.1554 100.741 18.9421C100.395 18.7288 99.9883 18.6221 99.5214 18.6221C99.0143 18.6221 98.5716 18.7469 98.1933 18.9964C97.819 19.2419 97.5292 19.5639 97.324 19.9623C97.1228 20.3567 97.0221 20.7854 97.0221 21.2482V22.3047C97.0221 22.9244 97.1308 23.4517 97.3481 23.8863C97.5695 24.321 97.8774 24.653 98.2718 24.8824C98.6662 25.1078 99.127 25.2205 99.6542 25.2205C99.9963 25.2205 100.308 25.1722 100.59 25.0756C100.872 24.975 101.115 24.8261 101.32 24.6289C101.526 24.4317 101.683 24.1882 101.791 23.8984L103.5 24.2063C103.363 24.7094 103.117 25.1501 102.763 25.5284C102.413 25.9027 101.972 26.1945 101.441 26.4037C100.914 26.609 100.312 26.7116 99.6361 26.7116ZM114.022 26.7116C113.153 26.7116 112.394 26.5124 111.746 26.114C111.098 25.7155 110.595 25.1581 110.237 24.4417C109.879 23.7253 109.7 22.8882 109.7 21.9304C109.7 20.9685 109.879 20.1273 110.237 19.4069C110.595 18.6865 111.098 18.1271 111.746 17.7287C112.394 17.3302 113.153 17.131 114.022 17.131C114.891 17.131 115.65 17.3302 116.298 17.7287C116.946 18.1271 117.449 18.6865 117.807 19.4069C118.165 20.1273 118.345 20.9685 118.345 21.9304C118.345 22.8882 118.165 23.7253 117.807 24.4417C117.449 25.1581 116.946 25.7155 116.298 26.114C115.65 26.5124 114.891 26.7116 114.022 26.7116ZM114.028 25.1963C114.592 25.1963 115.058 25.0474 115.429 24.7496C115.799 24.4518 116.073 24.0554 116.25 23.5603C116.431 23.0653 116.521 22.52 116.521 21.9243C116.521 21.3327 116.431 20.7894 116.25 20.2944C116.073 19.7953 115.799 19.3949 115.429 19.093C115.058 18.7912 114.592 18.6402 114.028 18.6402C113.461 18.6402 112.99 18.7912 112.616 19.093C112.245 19.3949 111.97 19.7953 111.788 20.2944C111.611 20.7894 111.523 21.3327 111.523 21.9243C111.523 22.52 111.611 23.0653 111.788 23.5603C111.97 24.0554 112.245 24.4518 112.616 24.7496C112.99 25.0474 113.461 25.1963 114.028 25.1963ZM122.164 21.0188V26.5245H120.359V17.2517H122.092V18.761H122.207C122.42 18.27 122.754 17.8756 123.209 17.5777C123.668 17.2799 124.245 17.131 124.941 17.131C125.573 17.131 126.127 17.2638 126.602 17.5294C127.076 17.791 127.445 18.1814 127.706 18.7006C127.968 19.2198 128.099 19.8617 128.099 20.6264V26.5245H126.294V20.8437C126.294 20.1716 126.119 19.6464 125.768 19.2681C125.418 18.8857 124.937 18.6946 124.326 18.6946C123.907 18.6946 123.535 18.7851 123.209 18.9662C122.887 19.1473 122.631 19.413 122.442 19.7631C122.257 20.1092 122.164 20.5278 122.164 21.0188Z" fill="#E8E8E8"/>
<path d="M146.166 18.6402H143.147C143.107 18.3303 143.024 18.0506 142.9 17.8011C142.775 17.5516 142.61 17.3383 142.405 17.1612C142.199 16.9841 141.956 16.8493 141.674 16.7567C141.397 16.6601 141.089 16.6118 140.751 16.6118C140.151 16.6118 139.634 16.7587 139.199 17.0525C138.768 17.3463 138.436 17.7709 138.203 18.3263C137.974 18.8817 137.859 19.5538 137.859 20.3427C137.859 21.1637 137.976 21.8519 138.209 22.4073C138.446 22.9587 138.779 23.3752 139.205 23.6569C139.636 23.9346 140.145 24.0735 140.732 24.0735C141.062 24.0735 141.362 24.0312 141.632 23.9467C141.906 23.8622 142.145 23.7394 142.35 23.5784C142.56 23.4134 142.731 23.2142 142.864 22.9808C143 22.7433 143.095 22.4757 143.147 22.1779L146.166 22.196C146.113 22.7433 145.954 23.2826 145.689 23.8139C145.427 24.3451 145.067 24.8301 144.608 25.2688C144.149 25.7034 143.59 26.0496 142.93 26.3071C142.274 26.5647 141.521 26.6935 140.672 26.6935C139.553 26.6935 138.551 26.448 137.666 25.957C136.784 25.462 136.088 24.7416 135.577 23.7958C135.066 22.85 134.81 21.699 134.81 20.3427C134.81 18.9823 135.07 17.8293 135.589 16.8835C136.108 15.9377 136.81 15.2193 137.696 14.7283C138.581 14.2373 139.573 13.9918 140.672 13.9918C141.421 13.9918 142.113 14.0964 142.749 14.3057C143.385 14.511 143.944 14.8128 144.427 15.2113C144.91 15.6057 145.302 16.0906 145.604 16.6662C145.906 17.2417 146.093 17.8997 146.166 18.6402ZM152.204 26.6995C151.23 26.6995 150.393 26.5003 149.693 26.1019C148.997 25.6994 148.459 25.14 148.081 24.4236C147.707 23.7032 147.519 22.8681 147.519 21.9183C147.519 20.9645 147.707 20.1293 148.081 19.413C148.459 18.6926 148.997 18.1331 149.693 17.7347C150.393 17.3322 151.23 17.131 152.204 17.131C153.178 17.131 154.013 17.3322 154.709 17.7347C155.41 18.1331 155.947 18.6926 156.321 19.413C156.7 20.1293 156.889 20.9645 156.889 21.9183C156.889 22.8681 156.7 23.7032 156.321 24.4236C155.947 25.14 155.41 25.6994 154.709 26.1019C154.013 26.5003 153.178 26.6995 152.204 26.6995ZM152.222 24.4719C152.576 24.4719 152.876 24.3632 153.122 24.1459C153.367 23.9286 153.554 23.6267 153.683 23.2404C153.816 22.854 153.882 22.4073 153.882 21.9002C153.882 21.385 153.816 20.9343 153.683 20.5479C153.554 20.1615 153.367 19.8597 153.122 19.6424C152.876 19.425 152.576 19.3164 152.222 19.3164C151.856 19.3164 151.546 19.425 151.293 19.6424C151.043 19.8597 150.852 20.1615 150.719 20.5479C150.59 20.9343 150.526 21.385 150.526 21.9002C150.526 22.4073 150.59 22.854 150.719 23.2404C150.852 23.6267 151.043 23.9286 151.293 24.1459C151.546 24.3632 151.856 24.4719 152.222 24.4719ZM161.788 26.6573C161.104 26.6573 160.482 26.4802 159.922 26.126C159.363 25.7719 158.916 25.2406 158.582 24.5323C158.248 23.824 158.081 22.9446 158.081 21.8941C158.081 20.8035 158.254 19.906 158.6 19.2017C158.946 18.4974 159.399 17.9762 159.959 17.6381C160.522 17.3 161.128 17.131 161.776 17.131C162.263 17.131 162.679 17.2155 163.025 17.3846C163.371 17.5496 163.657 17.7629 163.883 18.0245C164.108 18.2861 164.279 18.5577 164.396 18.8395H164.456V14.1608H167.408V26.5245H164.486V25.0213H164.396C164.271 25.307 164.094 25.5747 163.864 25.8242C163.635 26.0737 163.347 26.2749 163.001 26.4279C162.659 26.5808 162.255 26.6573 161.788 26.6573ZM162.814 24.3572C163.172 24.3572 163.478 24.2566 163.732 24.0554C163.985 23.8501 164.18 23.5623 164.317 23.1921C164.454 22.8218 164.522 22.3872 164.522 21.8881C164.522 21.381 164.454 20.9443 164.317 20.5781C164.184 20.2119 163.989 19.9301 163.732 19.7329C163.478 19.5357 163.172 19.4371 162.814 19.4371C162.448 19.4371 162.138 19.5377 161.884 19.739C161.631 19.9402 161.438 20.2239 161.305 20.5902C161.176 20.9564 161.112 21.3891 161.112 21.8881C161.112 22.3872 161.178 22.8218 161.311 23.1921C161.444 23.5623 161.635 23.8501 161.884 24.0554C162.138 24.2566 162.448 24.3572 162.814 24.3572ZM173.61 26.6995C172.64 26.6995 171.803 26.5084 171.098 26.126C170.398 25.7397 169.859 25.1903 169.48 24.478C169.106 23.7616 168.919 22.9104 168.919 21.9243C168.919 20.9665 169.108 20.1293 169.486 19.413C169.865 18.6926 170.398 18.1331 171.086 17.7347C171.774 17.3322 172.585 17.131 173.519 17.131C174.179 17.131 174.783 17.2336 175.33 17.4389C175.877 17.6441 176.35 17.948 176.749 18.3505C177.147 18.7529 177.457 19.25 177.678 19.8416C177.9 20.4292 178.011 21.1033 178.011 21.864V22.6005H169.951V20.886H175.264C175.26 20.5721 175.185 20.2923 175.04 20.0468C174.895 19.8013 174.696 19.6102 174.443 19.4733C174.193 19.3325 173.905 19.262 173.579 19.262C173.249 19.262 172.954 19.3365 172.692 19.4854C172.43 19.6303 172.223 19.8295 172.07 20.0831C171.917 20.3326 171.837 20.6163 171.829 20.9343V22.6789C171.829 23.0573 171.903 23.3893 172.052 23.675C172.201 23.9568 172.412 24.1761 172.686 24.3331C172.96 24.49 173.286 24.5685 173.664 24.5685C173.926 24.5685 174.163 24.5323 174.376 24.4598C174.59 24.3874 174.773 24.2807 174.926 24.1399C175.079 23.999 175.193 23.826 175.27 23.6207L177.98 23.6992C177.868 24.3069 177.62 24.8361 177.238 25.2869C176.859 25.7336 176.362 26.0818 175.747 26.3313C175.131 26.5768 174.419 26.6995 173.61 26.6995ZM179.518 26.5245V14.1608H182.47V18.8395H182.531C182.651 18.5577 182.822 18.2861 183.044 18.0245C183.269 17.7629 183.555 17.5496 183.901 17.3846C184.251 17.2155 184.67 17.131 185.157 17.131C185.801 17.131 186.402 17.3 186.962 17.6381C187.525 17.9762 187.98 18.4974 188.326 19.2017C188.672 19.906 188.845 20.8035 188.845 21.8941C188.845 22.9446 188.678 23.824 188.344 24.5323C188.014 25.2406 187.567 25.7719 187.004 26.126C186.445 26.4802 185.823 26.6573 185.139 26.6573C184.672 26.6573 184.267 26.5808 183.925 26.4279C183.583 26.2749 183.295 26.0737 183.062 25.8242C182.833 25.5747 182.655 25.307 182.531 25.0213H182.44V26.5245H179.518ZM182.41 21.8881C182.41 22.3872 182.476 22.8218 182.609 23.1921C182.746 23.5623 182.941 23.8501 183.195 24.0554C183.452 24.2566 183.76 24.3572 184.118 24.3572C184.481 24.3572 184.788 24.2566 185.042 24.0554C185.296 23.8501 185.487 23.5623 185.616 23.1921C185.748 22.8218 185.815 22.3872 185.815 21.8881C185.815 21.3891 185.748 20.9564 185.616 20.5902C185.487 20.2239 185.296 19.9402 185.042 19.739C184.792 19.5377 184.485 19.4371 184.118 19.4371C183.756 19.4371 183.448 19.5357 183.195 19.7329C182.941 19.9301 182.746 20.2119 182.609 20.5781C182.476 20.9443 182.41 21.381 182.41 21.8881ZM194.727 26.6995C193.757 26.6995 192.92 26.5084 192.215 26.126C191.515 25.7397 190.976 25.1903 190.598 24.478C190.223 23.7616 190.036 22.9104 190.036 21.9243C190.036 20.9665 190.225 20.1293 190.604 19.413C190.982 18.6926 191.515 18.1331 192.203 17.7347C192.892 17.3322 193.703 17.131 194.636 17.131C195.296 17.131 195.9 17.2336 196.447 17.4389C196.995 17.6441 197.468 17.948 197.866 18.3505C198.264 18.7529 198.574 19.25 198.796 19.8416C199.017 20.4292 199.128 21.1033 199.128 21.864V22.6005H191.068V20.886H196.381C196.377 20.5721 196.302 20.2923 196.158 20.0468C196.013 19.8013 195.813 19.6102 195.56 19.4733C195.31 19.3325 195.023 19.262 194.697 19.262C194.367 19.262 194.071 19.3365 193.809 19.4854C193.548 19.6303 193.34 19.8295 193.187 20.0831C193.034 20.3326 192.954 20.6163 192.946 20.9343V22.6789C192.946 23.0573 193.02 23.3893 193.169 23.675C193.318 23.9568 193.529 24.1761 193.803 24.3331C194.077 24.49 194.403 24.5685 194.781 24.5685C195.043 24.5685 195.28 24.5323 195.493 24.4598C195.707 24.3874 195.89 24.2807 196.043 24.1399C196.196 23.999 196.31 23.826 196.387 23.6207L199.098 23.6992C198.985 24.3069 198.737 24.8361 198.355 25.2869C197.977 25.7336 197.48 26.0818 196.864 26.3313C196.248 26.5768 195.536 26.6995 194.727 26.6995ZM200.635 26.5245V17.2517H203.503V18.9421H203.6C203.769 18.3303 204.044 17.8756 204.427 17.5777C204.809 17.2759 205.254 17.125 205.761 17.125C205.898 17.125 206.038 17.135 206.183 17.1552C206.328 17.1713 206.463 17.1974 206.588 17.2336V19.7993C206.447 19.751 206.262 19.7128 206.032 19.6846C205.807 19.6565 205.606 19.6424 205.429 19.6424C205.079 19.6424 204.763 19.7208 204.481 19.8778C204.203 20.0307 203.984 20.2461 203.823 20.5238C203.666 20.7974 203.587 21.1194 203.587 21.4897V26.5245H200.635ZM211.632 30.1949C210.75 30.1949 209.996 30.0722 209.368 29.8267C208.74 29.5812 208.247 29.2451 207.889 28.8185C207.531 28.3919 207.315 27.9089 207.243 27.3696L210.038 27.2127C210.09 27.4018 210.187 27.5668 210.328 27.7077C210.473 27.8486 210.66 27.9572 210.889 28.0337C211.123 28.1102 211.396 28.1484 211.71 28.1484C212.205 28.1484 212.614 28.0277 212.936 27.7862C213.262 27.5487 213.425 27.1322 213.425 26.5365V24.9066H213.322C213.205 25.1923 213.028 25.4479 212.791 25.6733C212.553 25.8986 212.258 26.0757 211.903 26.2045C211.553 26.3333 211.151 26.3977 210.696 26.3977C210.02 26.3977 209.4 26.2407 208.837 25.9268C208.277 25.6089 207.828 25.1179 207.49 24.4538C207.156 23.7857 206.989 22.9265 206.989 21.876C206.989 20.7934 207.162 19.902 207.508 19.2017C207.855 18.4974 208.307 17.9762 208.867 17.6381C209.43 17.3 210.036 17.131 210.684 17.131C211.171 17.131 211.587 17.2155 211.934 17.3846C212.284 17.5496 212.571 17.7629 212.797 18.0245C213.022 18.2861 213.193 18.5577 213.31 18.8395H213.394V17.2517H216.334V26.5607C216.334 27.3455 216.137 28.0075 215.743 28.5468C215.348 29.0861 214.797 29.4946 214.089 29.7723C213.38 30.0541 212.561 30.1949 211.632 30.1949ZM211.722 24.2485C212.08 24.2485 212.386 24.154 212.64 23.9648C212.893 23.7757 213.089 23.504 213.225 23.1498C213.362 22.7957 213.431 22.3711 213.431 21.876C213.431 21.373 213.362 20.9403 213.225 20.5781C213.093 20.2119 212.897 19.9301 212.64 19.7329C212.386 19.5357 212.08 19.4371 211.722 19.4371C211.356 19.4371 211.046 19.5377 210.793 19.739C210.539 19.9402 210.346 20.2239 210.213 20.5902C210.084 20.9524 210.02 21.381 210.02 21.876C210.02 22.3711 210.086 22.7957 210.219 23.1498C210.352 23.504 210.543 23.7757 210.793 23.9648C211.046 24.154 211.356 24.2485 211.722 24.2485Z" fill="url(#paint2_linear_28_2883)"/>
</g>
</g>
<rect x="1.07729" y="1.09523" width="223.858" height="37.8585" rx="6.92857" stroke="white" stroke-opacity="0.15" stroke-width="2.14286"/>
<defs>
<filter id="filter0_d_28_2883" x="2.40558" y="0.423523" width="39.202" height="39.202" filterUnits="userSpaceOnUse" color-interpolation-filters="sRGB">
<feFlood flood-opacity="0" result="BackgroundImageFix"/>
<feColorMatrix in="SourceAlpha" type="matrix" values="0 0 0 0 0 0 0 0 0 0 0 0 0 0 0 0 0 0 127 0" result="hardAlpha"/>
<feOffset/>
<feGaussianBlur stdDeviation="2.80014"/>
<feComposite in2="hardAlpha" operator="out"/>
<feColorMatrix type="matrix" values="0 0 0 0 0 0 0 0 0 0 0 0 0 0 0 0 0 0 0.25 0"/>
<feBlend mode="normal" in2="BackgroundImageFix" result="effect1_dropShadow_28_2883"/>
<feBlend mode="normal" in="SourceGraphic" in2="effect1_dropShadow_28_2883" result="shape"/>
</filter>
<filter id="filter1_d_28_2883" x="38.293" y="3.81019" width="185.429" height="32.4286" filterUnits="userSpaceOnUse" color-interpolation-filters="sRGB">
<feFlood flood-opacity="0" result="BackgroundImageFix"/>
<feColorMatrix in="SourceAlpha" type="matrix" values="0 0 0 0 0 0 0 0 0 0 0 0 0 0 0 0 0 0 127 0" result="hardAlpha"/>
<feOffset/>
<feGaussianBlur stdDeviation="2.85714"/>
<feComposite in2="hardAlpha" operator="out"/>
<feColorMatrix type="matrix" values="0 0 0 0 0 0 0 0 0 0 0 0 0 0 0 0 0 0 0.25 0"/>
<feBlend mode="normal" in2="BackgroundImageFix" result="effect1_dropShadow_28_2883"/>
<feBlend mode="normal" in="SourceGraphic" in2="effect1_dropShadow_28_2883" result="shape"/>
</filter>
<linearGradient id="paint0_linear_28_2883" x1="113.007" y1="0.0238037" x2="113.007" y2="40.0252" gradientUnits="userSpaceOnUse">
<stop stop-color="#132430"/>
<stop offset="1" stop-color="#323232"/>
</linearGradient>
<linearGradient id="paint1_linear_28_2883" x1="22.2851" y1="12.554" x2="31.2712" y2="30.5179" gradientUnits="userSpaceOnUse">
<stop stop-color="white" stop-opacity="0"/>
<stop offset="0.5" stop-color="#71C2FF"/>
<stop offset="1" stop-color="#39AAFF"/>
</linearGradient>
<linearGradient id="paint2_linear_28_2883" x1="176.007" y1="9.52448" x2="176.007" y2="30.5245" gradientUnits="userSpaceOnUse">
<stop stop-color="#7AB3DE"/>
<stop offset="1" stop-color="#C1D8EA"/>
</linearGradient>
<clipPath id="clip0_28_2883">
<rect x="0.00585938" y="0.0238037" width="226.001" height="40.0014" rx="8" fill="white"/>
</clipPath>
</defs>
</svg>
