<svg width="256" height="41" viewBox="0 0 256 41" fill="none" xmlns="http://www.w3.org/2000/svg">
<rect x="0.00585938" y="0.00695801" width="255.001" height="40.0014" rx="8" fill="url(#paint0_linear_28_2784)"/>
<g filter="url(#filter0_d_28_2784)">
<path d="M31.7093 11.2524C29.9156 10.443 28.0098 9.85439 26.0069 9.50857C25.9695 9.50857 25.9321 9.50857 25.9172 9.55271C25.6706 9.98683 25.394 10.546 25.2072 10.9875C23.0398 10.6711 20.9098 10.6711 18.8023 10.9875C18.608 10.5313 18.3314 9.97948 18.0549 9.55271C18.0325 9.52328 18.0026 9.50121 17.9652 9.50857C16.2463 9.84703 14.049 10.4651 12.2852 11.2524C12.2703 11.2524 12.2554 11.2671 12.2479 11.2818C8.58579 16.6531 7.61422 21.8037 8.13737 26.9543C8.13737 26.9764 8.15232 27.0058 8.17474 27.0279C10.5663 28.7644 12.8831 29.8239 15.1701 30.5082C15.2074 30.5082 15.2448 30.5082 15.2672 30.4788C15.8053 29.7577 16.2836 28.9924 16.7022 28.1831C16.7246 28.1389 16.7022 28.0801 16.6499 28.0653C15.9025 27.771 15.1551 27.4326 14.4601 27.0352C14.4078 27.0058 14.4003 26.9249 14.4601 26.8881C14.6096 26.7777 14.759 26.6673 14.8936 26.557C14.916 26.5349 14.9533 26.5349 14.9832 26.5422C19.5721 28.6025 24.5495 28.6025 29.0337 26.5422C29.0636 26.5275 29.101 26.5349 29.1234 26.5496C29.2654 26.6673 29.4074 26.7777 29.5569 26.8881C29.6092 26.9249 29.6017 27.0058 29.5569 27.0352C28.8618 27.4399 28.1369 27.771 27.3671 28.0653C27.3148 28.0874 27.2923 28.1389 27.3222 28.1904C27.7408 28.9998 28.2265 29.7577 28.7422 30.4714C28.7646 30.5008 28.802 30.5155 28.8394 30.5008C31.1263 29.8018 33.4506 28.7496 35.8497 27.0205C35.8721 27.0058 35.887 26.9837 35.887 26.9469C36.47 20.9943 34.908 15.8364 31.7466 11.2745C31.7466 11.2598 31.7242 11.245 31.7093 11.245V11.2524ZM17.3599 23.8345C15.9399 23.8345 14.8188 22.5837 14.8188 21.0385C14.8188 19.4933 15.9399 18.2425 17.3599 18.2425C18.7798 18.2425 19.9009 19.4933 19.9009 21.0385C19.9009 22.5837 18.7798 23.8345 17.3599 23.8345ZM26.7019 23.8345C25.2819 23.8345 24.1609 22.5837 24.1609 21.0385C24.1609 19.4933 25.2819 18.2425 26.7019 18.2425C28.1219 18.2425 29.243 19.4933 29.243 21.0385C29.243 22.5837 28.1219 23.8345 26.7019 23.8345Z" fill="#5865F2"/>
</g>
<g filter="url(#filter1_d_28_2784)">
<path d="M55.6345 18.1646H53.7509C53.6785 17.7622 53.5437 17.408 53.3465 17.1021C53.1492 16.7962 52.9078 16.5367 52.622 16.3234C52.3363 16.11 52.0163 15.9491 51.6622 15.8404C51.312 15.7317 50.9397 15.6774 50.5453 15.6774C49.833 15.6774 49.1951 15.8565 48.6316 16.2147C48.0722 16.5729 47.6295 17.0981 47.3035 17.7903C46.9815 18.4826 46.8205 19.3277 46.8205 20.3258C46.8205 21.332 46.9815 22.1812 47.3035 22.8734C47.6295 23.5657 48.0742 24.0889 48.6376 24.443C49.2011 24.7972 49.835 24.9743 50.5393 24.9743C50.9297 24.9743 51.2999 24.922 51.6501 24.8173C52.0042 24.7086 52.3242 24.5497 52.6099 24.3404C52.8957 24.1311 53.1372 23.8756 53.3344 23.5737C53.5356 23.2678 53.6745 22.9177 53.7509 22.5233L55.6345 22.5293C55.5338 23.137 55.3386 23.6965 55.0489 24.2076C54.7631 24.7147 54.3949 25.1534 53.9441 25.5236C53.4974 25.8899 52.9863 26.1736 52.4107 26.3748C51.8352 26.5761 51.2074 26.6767 50.5272 26.6767C49.4567 26.6767 48.5028 26.4231 47.6657 25.916C46.8286 25.4049 46.1685 24.6744 45.6856 23.7246C45.2067 22.7748 44.9672 21.6419 44.9672 20.3258C44.9672 19.0058 45.2087 17.8728 45.6916 16.927C46.1746 15.9772 46.8346 15.2488 47.6717 14.7417C48.5089 14.2306 49.4607 13.975 50.5272 13.975C51.1832 13.975 51.795 14.0696 52.3624 14.2587C52.9339 14.4439 53.4471 14.7175 53.9019 15.0797C54.3566 15.4379 54.7329 15.8766 55.0308 16.3958C55.3286 16.9109 55.5298 17.5006 55.6345 18.1646ZM59.5268 21.002V26.5077H57.7217V14.144H59.5026V18.7442H59.6173C59.8346 18.2451 60.1667 17.8487 60.6134 17.5549C61.0601 17.2611 61.6437 17.1142 62.3641 17.1142C63 17.1142 63.5554 17.245 64.0303 17.5066C64.5092 17.7682 64.8795 18.1586 65.1411 18.6778C65.4067 19.1929 65.5395 19.8368 65.5395 20.6096V26.5077H63.7345V20.8269C63.7345 20.1467 63.5594 19.6195 63.2093 19.2452C62.8591 18.8669 62.3722 18.6778 61.7484 18.6778C61.3217 18.6778 60.9394 18.7683 60.6013 18.9494C60.2673 19.1305 60.0037 19.3962 59.8105 19.7463C59.6213 20.0924 59.5268 20.511 59.5268 21.002ZM70.6468 26.7129C70.0592 26.7129 69.5279 26.6042 69.053 26.3869C68.5781 26.1656 68.2018 25.8456 67.9241 25.427C67.6505 25.0085 67.5136 24.4953 67.5136 23.8876C67.5136 23.3644 67.6142 22.9338 67.8155 22.5957C68.0167 22.2577 68.2884 21.99 68.6305 21.7928C68.9725 21.5956 69.3549 21.4467 69.7775 21.3461C70.2001 21.2455 70.6307 21.169 71.0694 21.1167C71.6248 21.0523 72.0755 21 72.4216 20.9597C72.7678 20.9154 73.0193 20.845 73.1763 20.7484C73.3332 20.6518 73.4117 20.4949 73.4117 20.2775V20.2353C73.4117 19.7081 73.2628 19.2996 72.965 19.0098C72.6712 18.72 72.2325 18.5751 71.6489 18.5751C71.0412 18.5751 70.5623 18.71 70.2121 18.9796C69.866 19.2452 69.6265 19.541 69.4937 19.867L67.7974 19.4807C67.9986 18.9172 68.2924 18.4624 68.6787 18.1163C69.0691 17.7662 69.5179 17.5126 70.025 17.3557C70.5321 17.1947 71.0653 17.1142 71.6248 17.1142C71.995 17.1142 72.3874 17.1585 72.802 17.247C73.2205 17.3315 73.6109 17.4885 73.9731 17.7179C74.3394 17.9473 74.6392 18.2753 74.8726 18.7019C75.1061 19.1245 75.2228 19.6739 75.2228 20.35V26.5077H73.46V25.2399H73.3876C73.2708 25.4733 73.0958 25.7027 72.8623 25.9281C72.6289 26.1535 72.3291 26.3406 71.9628 26.4895C71.5966 26.6385 71.1579 26.7129 70.6468 26.7129ZM71.0392 25.264C71.5382 25.264 71.9649 25.1654 72.319 24.9682C72.6772 24.771 72.9489 24.5135 73.134 24.1955C73.3232 23.8735 73.4177 23.5294 73.4177 23.1632V21.9679C73.3533 22.0323 73.2286 22.0926 73.0434 22.149C72.8623 22.2013 72.6551 22.2476 72.4216 22.2878C72.1882 22.3241 71.9608 22.3583 71.7395 22.3905C71.5181 22.4186 71.333 22.4428 71.1841 22.4629C70.8339 22.5072 70.514 22.5816 70.2242 22.6863C69.9385 22.7909 69.7091 22.9418 69.536 23.139C69.367 23.3322 69.2824 23.5898 69.2824 23.9118C69.2824 24.3585 69.4475 24.6966 69.7775 24.926C70.1075 25.1514 70.5281 25.264 71.0392 25.264ZM81.9555 17.2349V18.6838H76.8905V17.2349H81.9555ZM78.2488 15.0133H80.0538V23.785C80.0538 24.1351 80.1062 24.3988 80.2108 24.5758C80.3154 24.7489 80.4503 24.8676 80.6153 24.932C80.7843 24.9924 80.9674 25.0226 81.1646 25.0226C81.3095 25.0226 81.4363 25.0125 81.545 24.9924C81.6536 24.9723 81.7381 24.9562 81.7985 24.9441L82.1245 26.4352C82.0199 26.4755 81.8709 26.5157 81.6778 26.556C81.4846 26.6002 81.2431 26.6244 80.9533 26.6284C80.4784 26.6364 80.0357 26.5519 79.6252 26.3748C79.2147 26.1978 78.8827 25.9241 78.6291 25.5538C78.3756 25.1836 78.2488 24.7187 78.2488 24.1593V15.0133ZM90.4615 26.5077L87.7328 17.2349H89.5982L91.4153 24.0446H91.5059L93.329 17.2349H95.1945L97.0055 24.0144H97.0961L98.9011 17.2349H100.767L98.0439 26.5077H96.2026L94.3191 19.8127H94.1802L92.2967 26.5077H90.4615ZM102.48 26.5077V17.2349H104.285V26.5077H102.48ZM103.391 15.8042C103.077 15.8042 102.808 15.6995 102.582 15.4903C102.361 15.277 102.25 15.0234 102.25 14.7296C102.25 14.4318 102.361 14.1782 102.582 13.969C102.808 13.7556 103.077 13.649 103.391 13.649C103.705 13.649 103.973 13.7556 104.194 13.969C104.419 14.1782 104.532 14.4318 104.532 14.7296C104.532 15.0234 104.419 15.277 104.194 15.4903C103.973 15.6995 103.705 15.8042 103.391 15.8042ZM111.041 17.2349V18.6838H105.976V17.2349H111.041ZM107.335 15.0133H109.14V23.785C109.14 24.1351 109.192 24.3988 109.297 24.5758C109.401 24.7489 109.536 24.8676 109.701 24.932C109.87 24.9924 110.053 25.0226 110.251 25.0226C110.395 25.0226 110.522 25.0125 110.631 24.9924C110.74 24.9723 110.824 24.9562 110.884 24.9441L111.21 26.4352C111.106 26.4755 110.957 26.5157 110.764 26.556C110.571 26.6002 110.329 26.6244 110.039 26.6284C109.564 26.6364 109.122 26.5519 108.711 26.3748C108.301 26.1978 107.969 25.9241 107.715 25.5538C107.461 25.1836 107.335 24.7187 107.335 24.1593V15.0133ZM115.042 21.002V26.5077H113.237V14.144H115.018V18.7442H115.133C115.35 18.2451 115.682 17.8487 116.129 17.5549C116.576 17.2611 117.159 17.1142 117.88 17.1142C118.516 17.1142 119.071 17.245 119.546 17.5066C120.025 17.7682 120.395 18.1586 120.657 18.6778C120.922 19.1929 121.055 19.8368 121.055 20.6096V26.5077H119.25V20.8269C119.25 20.1467 119.075 19.6195 118.725 19.2452C118.375 18.8669 117.888 18.6778 117.264 18.6778C116.837 18.6778 116.455 18.7683 116.117 18.9494C115.783 19.1305 115.519 19.3962 115.326 19.7463C115.137 20.0924 115.042 20.511 115.042 21.002ZM127.963 26.5077V17.2349H129.696V18.7442H129.81C130.003 18.233 130.319 17.8346 130.758 17.5489C131.197 17.2591 131.722 17.1142 132.334 17.1142C132.953 17.1142 133.473 17.2591 133.891 17.5489C134.314 17.8386 134.626 18.2371 134.827 18.7442H134.923C135.145 18.2491 135.497 17.8547 135.98 17.5609C136.463 17.2631 137.038 17.1142 137.707 17.1142C138.548 17.1142 139.234 17.3778 139.765 17.905C140.3 18.4323 140.568 19.2271 140.568 20.2896V26.5077H138.763V20.4587C138.763 19.8308 138.592 19.376 138.25 19.0943C137.908 18.8126 137.499 18.6717 137.024 18.6717C136.437 18.6717 135.98 18.8528 135.654 19.215C135.328 19.5732 135.165 20.0341 135.165 20.5975V26.5077H133.366V20.3439C133.366 19.8409 133.209 19.4364 132.895 19.1305C132.581 18.8247 132.173 18.6717 131.67 18.6717C131.327 18.6717 131.012 18.7623 130.722 18.9434C130.436 19.1205 130.205 19.368 130.028 19.6859C129.854 20.0039 129.768 20.3721 129.768 20.7907V26.5077H127.963ZM146.984 26.6948C146.07 26.6948 145.283 26.4996 144.623 26.1092C143.967 25.7148 143.46 25.1614 143.102 24.4491C142.748 23.7327 142.571 22.8935 142.571 21.9317C142.571 20.9819 142.748 20.1447 143.102 19.4203C143.46 18.6959 143.959 18.1304 144.599 17.7239C145.243 17.3174 145.996 17.1142 146.857 17.1142C147.38 17.1142 147.887 17.2007 148.378 17.3738C148.869 17.5468 149.31 17.8185 149.7 18.1888C150.091 18.559 150.399 19.04 150.624 19.6316C150.849 20.2192 150.962 20.9336 150.962 21.7747V22.4146H143.591V21.0623H149.193C149.193 20.5874 149.097 20.1669 148.904 19.8006C148.71 19.4304 148.439 19.1386 148.089 18.9253C147.742 18.712 147.336 18.6053 146.869 18.6053C146.362 18.6053 145.919 18.7301 145.541 18.9796C145.167 19.2251 144.877 19.5471 144.672 19.9455C144.47 20.3399 144.37 20.7685 144.37 21.2314V22.2878C144.37 22.9076 144.478 23.4349 144.696 23.8695C144.917 24.3042 145.225 24.6362 145.619 24.8656C146.014 25.091 146.475 25.2037 147.002 25.2037C147.344 25.2037 147.656 25.1554 147.938 25.0588C148.219 24.9582 148.463 24.8093 148.668 24.6121C148.873 24.4149 149.03 24.1714 149.139 23.8816L150.847 24.1895C150.711 24.6926 150.465 25.1332 150.111 25.5116C149.761 25.8859 149.32 26.1776 148.789 26.3869C148.262 26.5922 147.66 26.6948 146.984 26.6948ZM161.37 26.6948C160.5 26.6948 159.742 26.4956 159.094 26.0971C158.446 25.6987 157.943 25.1413 157.585 24.4249C157.226 23.7085 157.047 22.8714 157.047 21.9136C157.047 20.9517 157.226 20.1105 157.585 19.3901C157.943 18.6697 158.446 18.1103 159.094 17.7118C159.742 17.3134 160.5 17.1142 161.37 17.1142C162.239 17.1142 162.998 17.3134 163.646 17.7118C164.294 18.1103 164.797 18.6697 165.155 19.3901C165.513 20.1105 165.692 20.9517 165.692 21.9136C165.692 22.8714 165.513 23.7085 165.155 24.4249C164.797 25.1413 164.294 25.6987 163.646 26.0971C162.998 26.4956 162.239 26.6948 161.37 26.6948ZM161.376 25.1795C161.939 25.1795 162.406 25.0306 162.776 24.7328C163.147 24.435 163.42 24.0386 163.597 23.5435C163.779 23.0485 163.869 22.5032 163.869 21.9075C163.869 21.3159 163.779 20.7726 163.597 20.2775C163.42 19.7785 163.147 19.378 162.776 19.0762C162.406 18.7743 161.939 18.6234 161.376 18.6234C160.808 18.6234 160.337 18.7743 159.963 19.0762C159.593 19.378 159.317 19.7785 159.136 20.2775C158.959 20.7726 158.87 21.3159 158.87 21.9075C158.87 22.5032 158.959 23.0485 159.136 23.5435C159.317 24.0386 159.593 24.435 159.963 24.7328C160.337 25.0306 160.808 25.1795 161.376 25.1795ZM169.512 21.002V26.5077H167.707V17.2349H169.44V18.7442H169.554C169.768 18.2532 170.102 17.8587 170.556 17.5609C171.015 17.2631 171.593 17.1142 172.289 17.1142C172.921 17.1142 173.474 17.247 173.949 17.5126C174.424 17.7742 174.792 18.1646 175.054 18.6838C175.316 19.203 175.446 19.8449 175.446 20.6096V26.5077H173.641V20.8269C173.641 20.1548 173.466 19.6296 173.116 19.2513C172.766 18.8689 172.285 18.6778 171.673 18.6778C171.255 18.6778 170.882 18.7683 170.556 18.9494C170.235 19.1305 169.979 19.3962 169.79 19.7463C169.605 20.0924 169.512 20.511 169.512 21.002Z" fill="#E8E8E8"/>
<path d="M186.513 26.5077H181.943V14.144H186.507C187.767 14.144 188.851 14.3915 189.761 14.8866C190.674 15.3776 191.379 16.0859 191.874 17.0116C192.369 17.9332 192.616 19.0359 192.616 20.3198C192.616 21.6077 192.369 22.7145 191.874 23.6401C191.383 24.5658 190.68 25.2761 189.767 25.7711C188.853 26.2622 187.769 26.5077 186.513 26.5077ZM184.931 23.9601H186.398C187.091 23.9601 187.676 23.8434 188.155 23.6099C188.638 23.3725 189.002 22.9881 189.248 22.4569C189.497 21.9216 189.622 21.2092 189.622 20.3198C189.622 19.4304 189.497 18.722 189.248 18.1948C188.998 17.6636 188.63 17.2812 188.143 17.0478C187.66 16.8103 187.064 16.6916 186.356 16.6916H184.931V23.9601ZM194.361 26.5077V17.2349H197.313V26.5077H194.361ZM195.84 16.1543C195.426 16.1543 195.069 16.0175 194.772 15.7438C194.474 15.4661 194.325 15.1321 194.325 14.7417C194.325 14.3553 194.474 14.0253 194.772 13.7516C195.069 13.4739 195.426 13.3351 195.84 13.3351C196.259 13.3351 196.615 13.4739 196.909 13.7516C197.206 14.0253 197.355 14.3553 197.355 14.7417C197.355 15.1321 197.206 15.4661 196.909 15.7438C196.615 16.0175 196.259 16.1543 195.84 16.1543ZM207.288 20.0663L204.577 20.1387C204.549 19.9455 204.472 19.7745 204.348 19.6256C204.223 19.4726 204.06 19.3539 203.859 19.2694C203.661 19.1808 203.432 19.1366 203.17 19.1366C202.828 19.1366 202.537 19.205 202.295 19.3418C202.058 19.4787 201.941 19.6638 201.945 19.8972C201.941 20.0783 202.013 20.2353 202.162 20.3681C202.315 20.5009 202.587 20.6076 202.977 20.6881L204.764 21.0261C205.69 21.2032 206.378 21.497 206.829 21.9075C207.284 22.318 207.513 22.8613 207.517 23.5375C207.513 24.1734 207.324 24.7268 206.95 25.1976C206.579 25.6685 206.072 26.0348 205.428 26.2964C204.784 26.5539 204.048 26.6827 203.219 26.6827C201.895 26.6827 200.85 26.4111 200.086 25.8677C199.325 25.3204 198.89 24.5879 198.782 23.6703L201.697 23.5979C201.762 23.9359 201.929 24.1935 202.198 24.3706C202.468 24.5477 202.812 24.6362 203.231 24.6362C203.609 24.6362 203.917 24.5658 204.154 24.4249C204.392 24.2841 204.513 24.0969 204.517 23.8635C204.513 23.6542 204.42 23.4872 204.239 23.3624C204.058 23.2336 203.774 23.133 203.388 23.0606L201.77 22.7527C200.84 22.5837 200.148 22.2717 199.693 21.817C199.238 21.3582 199.013 20.7746 199.017 20.0663C199.013 19.4465 199.178 18.9172 199.512 18.4785C199.846 18.0358 200.321 17.6978 200.937 17.4643C201.553 17.2309 202.279 17.1142 203.116 17.1142C204.372 17.1142 205.362 17.3778 206.086 17.905C206.811 18.4282 207.211 19.1486 207.288 20.0663ZM213.299 26.6827C212.321 26.6827 211.482 26.4815 210.781 26.079C210.085 25.6766 209.55 25.1171 209.176 24.4008C208.801 23.6804 208.614 22.8473 208.614 21.9015C208.614 20.9517 208.801 20.1186 209.176 19.4022C209.554 18.6818 210.091 18.1203 210.788 17.7179C211.488 17.3154 212.323 17.1142 213.293 17.1142C214.15 17.1142 214.897 17.2691 215.533 17.579C216.172 17.8889 216.671 18.3276 217.03 18.8951C217.392 19.4585 217.583 20.1206 217.603 20.8812H214.844C214.788 20.4063 214.627 20.0341 214.361 19.7644C214.1 19.4948 213.758 19.3599 213.335 19.3599C212.993 19.3599 212.693 19.4565 212.436 19.6497C212.178 19.8389 211.977 20.1206 211.832 20.4949C211.691 20.8651 211.621 21.3239 211.621 21.8713C211.621 22.4186 211.691 22.8815 211.832 23.2598C211.977 23.6341 212.178 23.9178 212.436 24.111C212.693 24.3002 212.993 24.3947 213.335 24.3947C213.609 24.3947 213.85 24.3364 214.06 24.2197C214.273 24.1029 214.448 23.9319 214.585 23.7065C214.722 23.4771 214.808 23.1994 214.844 22.8734H217.603C217.575 23.6381 217.384 24.3062 217.03 24.8777C216.68 25.4492 216.187 25.8939 215.551 26.2118C214.919 26.5258 214.168 26.6827 213.299 26.6827ZM223.442 26.6827C222.468 26.6827 221.631 26.4835 220.931 26.0851C220.235 25.6826 219.698 25.1232 219.319 24.4068C218.945 23.6864 218.758 22.8513 218.758 21.9015C218.758 20.9476 218.945 20.1125 219.319 19.3962C219.698 18.6757 220.235 18.1163 220.931 17.7179C221.631 17.3154 222.468 17.1142 223.442 17.1142C224.416 17.1142 225.251 17.3154 225.948 17.7179C226.648 18.1163 227.185 18.6757 227.56 19.3962C227.938 20.1125 228.127 20.9476 228.127 21.9015C228.127 22.8513 227.938 23.6864 227.56 24.4068C227.185 25.1232 226.648 25.6826 225.948 26.0851C225.251 26.4835 224.416 26.6827 223.442 26.6827ZM223.461 24.4551C223.815 24.4551 224.115 24.3464 224.36 24.1291C224.606 23.9118 224.793 23.6099 224.921 23.2236C225.054 22.8372 225.121 22.3905 225.121 21.8834C225.121 21.3682 225.054 20.9175 224.921 20.5311C224.793 20.1447 224.606 19.8429 224.36 19.6256C224.115 19.4082 223.815 19.2996 223.461 19.2996C223.094 19.2996 222.784 19.4082 222.531 19.6256C222.281 19.8429 222.09 20.1447 221.957 20.5311C221.829 20.9175 221.764 21.3682 221.764 21.8834C221.764 22.3905 221.829 22.8372 221.957 23.2236C222.09 23.6099 222.281 23.9118 222.531 24.1291C222.784 24.3464 223.094 24.4551 223.461 24.4551ZM229.639 26.5077V17.2349H232.507V18.9253H232.603C232.772 18.3135 233.048 17.8587 233.431 17.5609C233.813 17.2591 234.258 17.1082 234.765 17.1082C234.902 17.1082 235.042 17.1182 235.187 17.1383C235.332 17.1544 235.467 17.1806 235.592 17.2168V19.7825C235.451 19.7342 235.266 19.696 235.036 19.6678C234.811 19.6396 234.61 19.6256 234.433 19.6256C234.083 19.6256 233.767 19.704 233.485 19.861C233.207 20.0139 232.988 20.2292 232.827 20.5069C232.67 20.7806 232.591 21.1026 232.591 21.4729V26.5077H229.639ZM239.7 26.6405C239.016 26.6405 238.394 26.4634 237.834 26.1092C237.275 25.7551 236.828 25.2238 236.494 24.5155C236.16 23.8071 235.993 22.9278 235.993 21.8773C235.993 20.7867 236.166 19.8892 236.512 19.1849C236.858 18.4805 237.311 17.9594 237.871 17.6213C238.434 17.2832 239.04 17.1142 239.688 17.1142C240.175 17.1142 240.591 17.1987 240.937 17.3677C241.284 17.5328 241.569 17.7461 241.795 18.0077C242.02 18.2693 242.191 18.5409 242.308 18.8226H242.368V14.144H245.32V26.5077H242.398V25.0045H242.308C242.183 25.2902 242.006 25.5578 241.777 25.8074C241.547 26.0569 241.259 26.2581 240.913 26.4111C240.571 26.564 240.167 26.6405 239.7 26.6405ZM240.726 24.3404C241.084 24.3404 241.39 24.2398 241.644 24.0386C241.897 23.8333 242.093 23.5455 242.229 23.1753C242.366 22.805 242.435 22.3703 242.435 21.8713C242.435 21.3642 242.366 20.9275 242.229 20.5613C242.097 20.195 241.901 19.9133 241.644 19.7161C241.39 19.5189 241.084 19.4203 240.726 19.4203C240.36 19.4203 240.05 19.5209 239.796 19.7221C239.543 19.9234 239.35 20.2071 239.217 20.5734C239.088 20.9396 239.024 21.3722 239.024 21.8713C239.024 22.3703 239.09 22.805 239.223 23.1753C239.356 23.5455 239.547 23.8333 239.796 24.0386C240.05 24.2398 240.36 24.3404 240.726 24.3404Z" fill="#5865F2"/>
</g>
<rect x="1.07729" y="1.07839" width="252.858" height="37.8585" rx="6.92857" stroke="white" stroke-opacity="0.15" stroke-width="2.14286"/>
<defs>
<filter id="filter0_d_28_2784" x="2.40558" y="0.406678" width="39.202" height="39.202" filterUnits="userSpaceOnUse" color-interpolation-filters="sRGB">
<feFlood flood-opacity="0" result="BackgroundImageFix"/>
<feColorMatrix in="SourceAlpha" type="matrix" values="0 0 0 0 0 0 0 0 0 0 0 0 0 0 0 0 0 0 127 0" result="hardAlpha"/>
<feOffset/>
<feGaussianBlur stdDeviation="2.80014"/>
<feComposite in2="hardAlpha" operator="out"/>
<feColorMatrix type="matrix" values="0 0 0 0 0 0 0 0 0 0 0 0 0 0 0 0 0 0 0.25 0"/>
<feBlend mode="normal" in2="BackgroundImageFix" result="effect1_dropShadow_28_2784"/>
<feBlend mode="normal" in="SourceGraphic" in2="effect1_dropShadow_28_2784" result="shape"/>
</filter>
<filter id="filter1_d_28_2784" x="38.293" y="3.79337" width="214.429" height="32.4286" filterUnits="userSpaceOnUse" color-interpolation-filters="sRGB">
<feFlood flood-opacity="0" result="BackgroundImageFix"/>
<feColorMatrix in="SourceAlpha" type="matrix" values="0 0 0 0 0 0 0 0 0 0 0 0 0 0 0 0 0 0 127 0" result="hardAlpha"/>
<feOffset/>
<feGaussianBlur stdDeviation="2.85714"/>
<feComposite in2="hardAlpha" operator="out"/>
<feColorMatrix type="matrix" values="0 0 0 0 0 0 0 0 0 0 0 0 0 0 0 0 0 0 0.25 0"/>
<feBlend mode="normal" in2="BackgroundImageFix" result="effect1_dropShadow_28_2784"/>
<feBlend mode="normal" in="SourceGraphic" in2="effect1_dropShadow_28_2784" result="shape"/>
</filter>
<linearGradient id="paint0_linear_28_2784" x1="127.507" y1="0.00695801" x2="127.507" y2="40.0084" gradientUnits="userSpaceOnUse">
<stop stop-color="#1B1D31"/>
<stop offset="1" stop-color="#11121F"/>
</linearGradient>
</defs>
</svg>
