<svg width="268" height="41" viewBox="0 0 268 41" fill="none" xmlns="http://www.w3.org/2000/svg">
<g clip-path="url(#clip0_3_851)">
<rect x="0.00585938" y="0.0307617" width="267.001" height="40.0014" rx="8" fill="url(#paint0_linear_3_851)"/>
<g filter="url(#filter0_d_3_851)">
<path d="M22.0663 7.34351C19.8837 7.34479 17.7389 7.91284 15.8418 8.99203C13.9446 10.0712 12.3602 11.6246 11.2435 13.5001C10.1269 15.3755 9.51627 17.5088 9.47152 19.6912C9.42677 21.8735 9.94938 24.0301 10.9882 25.9497L8.70801 33.2854L16.896 31.4355C18.6094 32.2075 20.4737 32.5865 22.3524 32.5447C24.2312 32.5029 26.0768 32.0414 27.7542 31.1939C29.4315 30.3464 30.898 29.1345 32.0464 27.6468C33.1948 26.1592 33.996 24.4335 34.3912 22.5961C34.7864 20.7587 34.7657 18.8562 34.3306 17.0278C33.8955 15.1995 33.057 13.4916 31.8765 12.0293C30.696 10.567 29.2035 9.38723 27.5081 8.57646C25.8127 7.76569 23.9575 7.34442 22.0783 7.34351H22.0663Z" fill="#FFF9AE"/>
<path d="M32.0641 12.2791C33.7626 14.5062 34.6706 17.236 34.6444 20.0369C34.6182 22.8379 33.6594 25.5502 31.9196 27.7453C30.1797 29.9403 27.758 31.4929 25.0373 32.1575C22.3165 32.8222 19.4518 32.5611 16.896 31.4155L8.70801 33.2893L17.0435 32.3046C19.7127 33.8683 22.8639 34.3952 25.8965 33.7846C28.9292 33.1741 31.6311 31.4689 33.4874 28.9941C35.3438 26.5192 36.2246 23.4478 35.9621 20.3652C35.6996 17.2826 34.3121 14.4043 32.0641 12.2791Z" fill="#00AEEF"/>
<path d="M29.7441 9.95471C31.6657 11.9924 32.8535 14.6124 33.1199 17.4007C33.3862 20.1889 32.7158 22.9865 31.2147 25.3511C29.7135 27.7158 27.4673 29.5127 24.8308 30.4579C22.1944 31.4031 19.3182 31.4426 16.6568 30.5703L8.70801 33.2893L16.896 31.4354C19.713 32.708 22.8995 32.9003 25.849 31.9758C28.7986 31.0513 31.3053 29.0744 32.8921 26.4215C34.4789 23.7685 35.0349 20.6247 34.4545 17.5884C33.874 14.552 32.1975 11.8351 29.7441 9.95471Z" fill="#00A94F"/>
<path d="M11.7416 26.2287C10.6343 23.5594 10.478 20.5905 11.2989 17.8196C12.1198 15.0488 13.868 12.6442 16.2506 11.009C18.6331 9.37374 21.5052 8.60713 24.3857 8.83762C27.2661 9.06811 29.9798 10.2817 32.0721 12.275C30.1467 9.74799 27.3379 8.04153 24.2081 7.49725C21.0783 6.95298 17.8585 7.61106 15.1931 9.33975C12.5278 11.0684 10.6137 13.7402 9.83397 16.8201C9.05427 19.9 9.46652 23.1607 10.9882 25.9496L8.70801 33.2853L11.7416 26.2287Z" fill="#F15D22"/>
<path d="M10.9884 25.9498C9.6144 23.4115 9.15323 20.4785 9.68201 17.641C10.2108 14.8035 11.6975 12.2335 13.8936 10.3607C16.0896 8.48793 18.862 7.42581 21.7471 7.35194C24.6322 7.27807 27.4553 8.19692 29.7443 9.95488C27.5622 7.65704 24.5947 6.26571 21.4328 6.0581C18.271 5.85049 15.147 6.84184 12.6833 8.83464C10.2195 10.8274 8.59695 13.6754 8.1388 16.811C7.68065 19.9467 8.42055 23.1399 10.2111 25.7544L8.71222 33.2894L10.9884 25.9498Z" fill="#E31B23"/>
</g>
<g filter="url(#filter1_d_3_851)">
<path d="M53.6345 18.1885H51.7509C51.6785 17.786 51.5437 17.4318 51.3465 17.126C51.1492 16.8201 50.9078 16.5605 50.622 16.3472C50.3363 16.1339 50.0163 15.9729 49.6622 15.8642C49.312 15.7556 48.9397 15.7012 48.5453 15.7012C47.833 15.7012 47.1951 15.8803 46.6316 16.2385C46.0722 16.5967 45.6295 17.1219 45.3035 17.8142C44.9815 18.5064 44.8205 19.3516 44.8205 20.3497C44.8205 21.3558 44.9815 22.205 45.3035 22.8973C45.6295 23.5895 46.0742 24.1127 46.6376 24.4669C47.2011 24.821 47.835 24.9981 48.5393 24.9981C48.9297 24.9981 49.2999 24.9458 49.6501 24.8411C50.0042 24.7325 50.3242 24.5735 50.6099 24.3642C50.8957 24.155 51.1372 23.8994 51.3344 23.5975C51.5356 23.2917 51.6745 22.9415 51.7509 22.5471L53.6345 22.5532C53.5338 23.1609 53.3386 23.7203 53.0489 24.2314C52.7631 24.7385 52.3949 25.1772 51.9441 25.5475C51.4974 25.9137 50.9863 26.1974 50.4107 26.3987C49.8352 26.5999 49.2074 26.7005 48.5272 26.7005C47.4567 26.7005 46.5028 26.447 45.6657 25.9399C44.8286 25.4287 44.1685 24.6983 43.6856 23.7485C43.2067 22.7987 42.9672 21.6657 42.9672 20.3497C42.9672 19.0296 43.2087 17.8967 43.6916 16.9509C44.1746 16.0011 44.8346 15.2726 45.6717 14.7655C46.5089 14.2544 47.4607 13.9988 48.5272 13.9988C49.1832 13.9988 49.795 14.0934 50.3624 14.2826C50.9339 14.4677 51.4471 14.7414 51.9019 15.1036C52.3566 15.4618 52.7329 15.9005 53.0308 16.4196C53.3286 16.9348 53.5298 17.5244 53.6345 18.1885ZM57.5268 21.0258V26.5315H55.7217V14.1679H57.5026V18.768H57.6173C57.8346 18.2689 58.1667 17.8725 58.6134 17.5787C59.0601 17.2849 59.6437 17.138 60.3641 17.138C61 17.138 61.5554 17.2688 62.0303 17.5304C62.5092 17.792 62.8795 18.1824 63.1411 18.7016C63.4067 19.2167 63.5395 19.8607 63.5395 20.6334V26.5315H61.7345V20.8507C61.7345 20.1706 61.5594 19.6434 61.2093 19.2691C60.8591 18.8907 60.3722 18.7016 59.7484 18.7016C59.3217 18.7016 58.9394 18.7921 58.6013 18.9733C58.2673 19.1544 58.0037 19.42 57.8105 19.7701C57.6213 20.1162 57.5268 20.5348 57.5268 21.0258ZM68.6468 26.7367C68.0592 26.7367 67.5279 26.6281 67.053 26.4108C66.5781 26.1894 66.2018 25.8694 65.9241 25.4509C65.6505 25.0323 65.5136 24.5192 65.5136 23.9115C65.5136 23.3883 65.6142 22.9576 65.8155 22.6196C66.0167 22.2815 66.2884 22.0139 66.6305 21.8166C66.9725 21.6194 67.3549 21.4705 67.7775 21.3699C68.2001 21.2693 68.6307 21.1928 69.0694 21.1405C69.6248 21.0761 70.0755 21.0238 70.4216 20.9836C70.7678 20.9393 71.0193 20.8688 71.1763 20.7723C71.3332 20.6757 71.4117 20.5187 71.4117 20.3014V20.2591C71.4117 19.7319 71.2628 19.3234 70.965 19.0336C70.6712 18.7438 70.2325 18.599 69.6489 18.599C69.0412 18.599 68.5623 18.7338 68.2121 19.0034C67.866 19.2691 67.6265 19.5649 67.4937 19.8909L65.7974 19.5045C65.9986 18.9411 66.2924 18.4863 66.6787 18.1402C67.0691 17.79 67.5179 17.5365 68.025 17.3795C68.5321 17.2185 69.0653 17.138 69.6248 17.138C69.995 17.138 70.3874 17.1823 70.802 17.2708C71.2205 17.3554 71.6109 17.5123 71.9731 17.7417C72.3394 17.9711 72.6392 18.2991 72.8726 18.7257C73.1061 19.1483 73.2228 19.6977 73.2228 20.3738V26.5315H71.46V25.2637H71.3876C71.2708 25.4972 71.0958 25.7266 70.8623 25.9519C70.6289 26.1773 70.3291 26.3645 69.9628 26.5134C69.5966 26.6623 69.1579 26.7367 68.6468 26.7367ZM69.0392 25.2879C69.5382 25.2879 69.9649 25.1893 70.319 24.9921C70.6772 24.7949 70.9489 24.5373 71.134 24.2193C71.3232 23.8974 71.4177 23.5533 71.4177 23.187V21.9917C71.3533 22.0561 71.2286 22.1165 71.0434 22.1728C70.8623 22.2251 70.6551 22.2714 70.4216 22.3117C70.1882 22.3479 69.9608 22.3821 69.7395 22.4143C69.5181 22.4425 69.333 22.4666 69.1841 22.4867C68.8339 22.531 68.514 22.6055 68.2242 22.7101C67.9385 22.8148 67.7091 22.9657 67.536 23.1629C67.367 23.3561 67.2824 23.6136 67.2824 23.9356C67.2824 24.3823 67.4475 24.7204 67.7775 24.9498C68.1075 25.1752 68.5281 25.2879 69.0392 25.2879ZM79.9555 17.2588V18.7076H74.8905V17.2588H79.9555ZM76.2488 15.0372H78.0538V23.8088C78.0538 24.159 78.1062 24.4226 78.2108 24.5997C78.3154 24.7727 78.4503 24.8915 78.6153 24.9559C78.7843 25.0162 78.9674 25.0464 79.1646 25.0464C79.3095 25.0464 79.4363 25.0363 79.545 25.0162C79.6536 24.9961 79.7381 24.98 79.7985 24.9679L80.1245 26.459C80.0199 26.4993 79.8709 26.5395 79.6778 26.5798C79.4846 26.6241 79.2431 26.6482 78.9533 26.6522C78.4784 26.6603 78.0357 26.5758 77.6252 26.3987C77.2147 26.2216 76.8827 25.9479 76.6291 25.5777C76.3756 25.2074 76.2488 24.7425 76.2488 24.1831V15.0372ZM88.4615 26.5315L85.7328 17.2588H87.5982L89.4153 24.0684H89.5059L91.329 17.2588H93.1945L95.0055 24.0382H95.0961L96.9011 17.2588H98.7665L96.0439 26.5315H94.2026L92.3191 19.8365H92.1802L90.2967 26.5315H88.4615ZM100.48 26.5315V17.2588H102.285V26.5315H100.48ZM101.391 15.828C101.077 15.828 100.808 15.7234 100.582 15.5141C100.361 15.3008 100.25 15.0472 100.25 14.7534C100.25 14.4556 100.361 14.2021 100.582 13.9928C100.808 13.7795 101.077 13.6728 101.391 13.6728C101.705 13.6728 101.973 13.7795 102.194 13.9928C102.419 14.2021 102.532 14.4556 102.532 14.7534C102.532 15.0472 102.419 15.3008 102.194 15.5141C101.973 15.7234 101.705 15.828 101.391 15.828ZM109.041 17.2588V18.7076H103.976V17.2588H109.041ZM105.335 15.0372H107.14V23.8088C107.14 24.159 107.192 24.4226 107.297 24.5997C107.401 24.7727 107.536 24.8915 107.701 24.9559C107.87 25.0162 108.053 25.0464 108.251 25.0464C108.395 25.0464 108.522 25.0363 108.631 25.0162C108.74 24.9961 108.824 24.98 108.884 24.9679L109.21 26.459C109.106 26.4993 108.957 26.5395 108.764 26.5798C108.571 26.6241 108.329 26.6482 108.039 26.6522C107.564 26.6603 107.122 26.5758 106.711 26.3987C106.301 26.2216 105.969 25.9479 105.715 25.5777C105.461 25.2074 105.335 24.7425 105.335 24.1831V15.0372ZM113.042 21.0258V26.5315H111.237V14.1679H113.018V18.768H113.133C113.35 18.2689 113.682 17.8725 114.129 17.5787C114.576 17.2849 115.159 17.138 115.88 17.138C116.516 17.138 117.071 17.2688 117.546 17.5304C118.025 17.792 118.395 18.1824 118.657 18.7016C118.922 19.2167 119.055 19.8607 119.055 20.6334V26.5315H117.25V20.8507C117.25 20.1706 117.075 19.6434 116.725 19.2691C116.375 18.8907 115.888 18.7016 115.264 18.7016C114.837 18.7016 114.455 18.7921 114.117 18.9733C113.783 19.1544 113.519 19.42 113.326 19.7701C113.137 20.1162 113.042 20.5348 113.042 21.0258ZM131.837 22.686V17.2588H133.648V26.5315H131.873V24.9257H131.776C131.563 25.4207 131.221 25.8332 130.75 26.1632C130.283 26.4892 129.702 26.6522 129.006 26.6522C128.41 26.6522 127.883 26.5214 127.424 26.2598C126.969 25.9942 126.611 25.6018 126.349 25.0826C126.092 24.5634 125.963 23.9215 125.963 23.1568V17.2588H127.768V22.9395C127.768 23.5714 127.943 24.0745 128.293 24.4487C128.643 24.823 129.098 25.0102 129.658 25.0102C129.996 25.0102 130.332 24.9257 130.666 24.7566C131.004 24.5876 131.283 24.332 131.505 23.9899C131.73 23.6478 131.841 23.2132 131.837 22.686ZM143.022 19.5226L141.386 19.8124C141.317 19.6031 141.209 19.4039 141.06 19.2147C140.915 19.0256 140.718 18.8706 140.468 18.7499C140.219 18.6291 139.907 18.5688 139.532 18.5688C139.021 18.5688 138.595 18.6835 138.253 18.9129C137.91 19.1383 137.739 19.43 137.739 19.7882C137.739 20.0981 137.854 20.3477 138.084 20.5368C138.313 20.726 138.683 20.8809 139.194 21.0017L140.667 21.3397C141.521 21.5369 142.156 21.8408 142.575 22.2513C142.994 22.6618 143.203 23.1951 143.203 23.8511C143.203 24.4065 143.042 24.9015 142.72 25.3362C142.402 25.7668 141.957 26.1049 141.386 26.3504C140.818 26.5959 140.16 26.7186 139.412 26.7186C138.373 26.7186 137.526 26.4973 136.87 26.0546C136.214 25.6078 135.812 24.974 135.663 24.1529L137.407 23.8873C137.516 24.3421 137.739 24.6862 138.078 24.9196C138.416 25.149 138.856 25.2637 139.4 25.2637C139.991 25.2637 140.464 25.141 140.818 24.8955C141.172 24.646 141.35 24.3421 141.35 23.9839C141.35 23.6941 141.241 23.4506 141.024 23.2534C140.81 23.0562 140.482 22.9073 140.04 22.8067L138.47 22.4626C137.605 22.2654 136.965 21.9515 136.55 21.5208C136.14 21.0902 135.934 20.5449 135.934 19.8848C135.934 19.3375 136.087 18.8586 136.393 18.448C136.699 18.0375 137.122 17.7176 137.661 17.4882C138.2 17.2547 138.818 17.138 139.514 17.138C140.516 17.138 141.305 17.3554 141.881 17.79C142.456 18.2206 142.837 18.7982 143.022 19.5226ZM153.592 26.7186C152.723 26.7186 151.964 26.5194 151.317 26.121C150.669 25.7225 150.165 25.1651 149.807 24.4487C149.449 23.7324 149.27 22.8952 149.27 21.9374C149.27 20.9755 149.449 20.1344 149.807 19.4139C150.165 18.6935 150.669 18.1341 151.317 17.7357C151.964 17.3372 152.723 17.138 153.592 17.138C154.462 17.138 155.22 17.3372 155.868 17.7357C156.516 18.1341 157.019 18.6935 157.378 19.4139C157.736 20.1344 157.915 20.9755 157.915 21.9374C157.915 22.8952 157.736 23.7324 157.378 24.4487C157.019 25.1651 156.516 25.7225 155.868 26.121C155.22 26.5194 154.462 26.7186 153.592 26.7186ZM153.598 25.2034C154.162 25.2034 154.629 25.0545 154.999 24.7566C155.369 24.4588 155.643 24.0624 155.82 23.5674C156.001 23.0723 156.092 22.527 156.092 21.9313C156.092 21.3397 156.001 20.7964 155.82 20.3014C155.643 19.8023 155.369 19.4019 154.999 19.1C154.629 18.7982 154.162 18.6473 153.598 18.6473C153.031 18.6473 152.56 18.7982 152.186 19.1C151.816 19.4019 151.54 19.8023 151.359 20.3014C151.182 20.7964 151.093 21.3397 151.093 21.9313C151.093 22.527 151.182 23.0723 151.359 23.5674C151.54 24.0624 151.816 24.4588 152.186 24.7566C152.56 25.0545 153.031 25.2034 153.598 25.2034ZM161.735 21.0258V26.5315H159.93V17.2588H161.662V18.768H161.777C161.99 18.277 162.324 17.8826 162.779 17.5848C163.238 17.2869 163.815 17.138 164.512 17.138C165.144 17.138 165.697 17.2708 166.172 17.5365C166.647 17.7981 167.015 18.1885 167.277 18.7076C167.538 19.2268 167.669 19.8687 167.669 20.6334V26.5315H165.864V20.8507C165.864 20.1786 165.689 19.6534 165.339 19.2751C164.989 18.8928 164.508 18.7016 163.896 18.7016C163.477 18.7016 163.105 18.7921 162.779 18.9733C162.457 19.1544 162.202 19.42 162.012 19.7701C161.827 20.1162 161.735 20.5348 161.735 21.0258Z" fill="#E8E8E8"/>
<path d="M178.513 26.5315H173.943V14.1679H178.507C179.767 14.1679 180.851 14.4154 181.761 14.9104C182.674 15.4014 183.379 16.1097 183.874 17.0354C184.369 17.957 184.616 19.0598 184.616 20.3436C184.616 21.6315 184.369 22.7383 183.874 23.6639C183.383 24.5896 182.68 25.3 181.767 25.795C180.853 26.286 179.769 26.5315 178.513 26.5315ZM176.931 23.9839H178.398C179.091 23.9839 179.676 23.8672 180.155 23.6338C180.638 23.3963 181.002 23.012 181.248 22.4807C181.497 21.9454 181.622 21.2331 181.622 20.3436C181.622 19.4542 181.497 18.7459 181.248 18.2186C180.998 17.6874 180.63 17.305 180.143 17.0716C179.66 16.8342 179.064 16.7154 178.356 16.7154H176.931V23.9839ZM186.361 26.5315V17.2588H189.313V26.5315H186.361ZM187.84 16.1782C187.426 16.1782 187.069 16.0413 186.772 15.7676C186.474 15.4899 186.325 15.1559 186.325 14.7655C186.325 14.3791 186.474 14.0491 186.772 13.7755C187.069 13.4978 187.426 13.3589 187.84 13.3589C188.259 13.3589 188.615 13.4978 188.909 13.7755C189.206 14.0491 189.355 14.3791 189.355 14.7655C189.355 15.1559 189.206 15.4899 188.909 15.7676C188.615 16.0413 188.259 16.1782 187.84 16.1782ZM199.288 20.0901L196.577 20.1625C196.549 19.9693 196.472 19.7983 196.348 19.6494C196.223 19.4965 196.06 19.3777 195.859 19.2932C195.661 19.2047 195.432 19.1604 195.17 19.1604C194.828 19.1604 194.537 19.2288 194.295 19.3657C194.058 19.5025 193.941 19.6876 193.945 19.9211C193.941 20.1022 194.013 20.2591 194.162 20.3919C194.315 20.5247 194.587 20.6314 194.977 20.7119L196.764 21.05C197.69 21.227 198.378 21.5208 198.829 21.9313C199.284 22.3419 199.513 22.8852 199.517 23.5613C199.513 24.1972 199.324 24.7506 198.95 25.2215C198.579 25.6924 198.072 26.0586 197.428 26.3202C196.784 26.5778 196.048 26.7066 195.219 26.7066C193.895 26.7066 192.85 26.4349 192.086 25.8916C191.325 25.3442 190.89 24.6117 190.782 23.6941L193.697 23.6217C193.762 23.9598 193.929 24.2173 194.198 24.3944C194.468 24.5715 194.812 24.66 195.231 24.66C195.609 24.66 195.917 24.5896 196.154 24.4487C196.392 24.3079 196.513 24.1207 196.517 23.8873C196.513 23.678 196.42 23.511 196.239 23.3862C196.058 23.2575 195.774 23.1568 195.388 23.0844L193.77 22.7765C192.84 22.6075 192.148 22.2956 191.693 21.8408C191.238 21.382 191.013 20.7984 191.017 20.0901C191.013 19.4703 191.178 18.9411 191.512 18.5024C191.846 18.0597 192.321 17.7216 192.937 17.4882C193.553 17.2547 194.279 17.138 195.116 17.138C196.372 17.138 197.362 17.4016 198.086 17.9289C198.811 18.4521 199.211 19.1725 199.288 20.0901ZM205.299 26.7066C204.321 26.7066 203.482 26.5053 202.781 26.1029C202.085 25.7004 201.55 25.141 201.176 24.4246C200.801 23.7042 200.614 22.8711 200.614 21.9253C200.614 20.9755 200.801 20.1424 201.176 19.426C201.554 18.7056 202.091 18.1442 202.788 17.7417C203.488 17.3393 204.323 17.138 205.293 17.138C206.15 17.138 206.897 17.293 207.533 17.6029C208.172 17.9128 208.671 18.3514 209.03 18.9189C209.392 19.4824 209.583 20.1444 209.603 20.9051H206.844C206.788 20.4302 206.627 20.0579 206.361 19.7882C206.1 19.5186 205.758 19.3838 205.335 19.3838C204.993 19.3838 204.693 19.4804 204.436 19.6735C204.178 19.8627 203.977 20.1444 203.832 20.5187C203.691 20.889 203.621 21.3478 203.621 21.8951C203.621 22.4425 203.691 22.9053 203.832 23.2836C203.977 23.6579 204.178 23.9416 204.436 24.1348C204.693 24.324 204.993 24.4186 205.335 24.4186C205.609 24.4186 205.85 24.3602 206.06 24.2435C206.273 24.1268 206.448 23.9557 206.585 23.7304C206.722 23.501 206.808 23.2233 206.844 22.8973H209.603C209.575 23.6619 209.384 24.33 209.03 24.9015C208.68 25.473 208.187 25.9177 207.551 26.2357C206.919 26.5496 206.168 26.7066 205.299 26.7066ZM215.442 26.7066C214.468 26.7066 213.631 26.5073 212.931 26.1089C212.235 25.7064 211.698 25.147 211.319 24.4306C210.945 23.7102 210.758 22.8751 210.758 21.9253C210.758 20.9715 210.945 20.1364 211.319 19.42C211.698 18.6996 212.235 18.1402 212.931 17.7417C213.631 17.3393 214.468 17.138 215.442 17.138C216.416 17.138 217.251 17.3393 217.948 17.7417C218.648 18.1402 219.185 18.6996 219.56 19.42C219.938 20.1364 220.127 20.9715 220.127 21.9253C220.127 22.8751 219.938 23.7102 219.56 24.4306C219.185 25.147 218.648 25.7064 217.948 26.1089C217.251 26.5073 216.416 26.7066 215.442 26.7066ZM215.461 24.4789C215.815 24.4789 216.115 24.3703 216.36 24.1529C216.606 23.9356 216.793 23.6338 216.921 23.2474C217.054 22.861 217.121 22.4143 217.121 21.9072C217.121 21.392 217.054 20.9413 216.921 20.5549C216.793 20.1686 216.606 19.8667 216.36 19.6494C216.115 19.4321 215.815 19.3234 215.461 19.3234C215.094 19.3234 214.784 19.4321 214.531 19.6494C214.281 19.8667 214.09 20.1686 213.957 20.5549C213.829 20.9413 213.764 21.392 213.764 21.9072C213.764 22.4143 213.829 22.861 213.957 23.2474C214.09 23.6338 214.281 23.9356 214.531 24.1529C214.784 24.3703 215.094 24.4789 215.461 24.4789ZM227.622 22.529V17.2588H230.568V26.5315H227.755V24.8049H227.658C227.453 25.3724 227.103 25.8232 226.608 26.1572C226.117 26.4872 225.523 26.6522 224.827 26.6522C224.195 26.6522 223.64 26.5073 223.161 26.2176C222.682 25.9278 222.309 25.5233 222.044 25.0041C221.778 24.4809 221.643 23.8692 221.639 23.1689V17.2588H224.591V22.5894C224.595 23.0925 224.728 23.4889 224.99 23.7786C225.251 24.0684 225.608 24.2133 226.058 24.2133C226.352 24.2133 226.616 24.1489 226.849 24.0201C227.087 23.8873 227.274 23.6961 227.411 23.4466C227.551 23.1931 227.622 22.8872 227.622 22.529ZM232.447 26.5315V17.2588H235.314V18.9491H235.411C235.58 18.3374 235.856 17.8826 236.238 17.5848C236.62 17.2829 237.065 17.132 237.572 17.132C237.709 17.132 237.85 17.1421 237.995 17.1622C238.14 17.1783 238.275 17.2044 238.399 17.2407V19.8063C238.258 19.7581 238.073 19.7198 237.844 19.6916C237.619 19.6635 237.417 19.6494 237.24 19.6494C236.89 19.6494 236.574 19.7279 236.292 19.8848C236.015 20.0378 235.795 20.2531 235.634 20.5308C235.477 20.8045 235.399 21.1264 235.399 21.4967V26.5315H232.447ZM247.698 20.0901L244.987 20.1625C244.959 19.9693 244.883 19.7983 244.758 19.6494C244.633 19.4965 244.47 19.3777 244.269 19.2932C244.072 19.2047 243.842 19.1604 243.581 19.1604C243.238 19.1604 242.947 19.2288 242.705 19.3657C242.468 19.5025 242.351 19.6876 242.355 19.9211C242.351 20.1022 242.423 20.2591 242.572 20.3919C242.725 20.5247 242.997 20.6314 243.387 20.7119L245.174 21.05C246.1 21.227 246.788 21.5208 247.239 21.9313C247.694 22.3419 247.923 22.8852 247.927 23.5613C247.923 24.1972 247.734 24.7506 247.36 25.2215C246.989 25.6924 246.482 26.0586 245.838 26.3202C245.194 26.5778 244.458 26.7066 243.629 26.7066C242.305 26.7066 241.26 26.4349 240.496 25.8916C239.735 25.3442 239.3 24.6117 239.192 23.6941L242.108 23.6217C242.172 23.9598 242.339 24.2173 242.609 24.3944C242.878 24.5715 243.222 24.66 243.641 24.66C244.019 24.66 244.327 24.5896 244.565 24.4487C244.802 24.3079 244.923 24.1207 244.927 23.8873C244.923 23.678 244.83 23.511 244.649 23.3862C244.468 23.2575 244.184 23.1568 243.798 23.0844L242.18 22.7765C241.25 22.6075 240.558 22.2956 240.103 21.8408C239.648 21.382 239.423 20.7984 239.427 20.0901C239.423 19.4703 239.588 18.9411 239.922 18.5024C240.256 18.0597 240.731 17.7216 241.347 17.4882C241.963 17.2547 242.689 17.138 243.526 17.138C244.782 17.138 245.772 17.4016 246.496 17.9289C247.221 18.4521 247.621 19.1725 247.698 20.0901ZM253.715 26.7066C252.745 26.7066 251.908 26.5154 251.204 26.1331C250.503 25.7467 249.964 25.1973 249.586 24.485C249.211 23.7686 249.024 22.9174 249.024 21.9313C249.024 20.9735 249.214 20.1364 249.592 19.42C249.97 18.6996 250.503 18.1402 251.192 17.7417C251.88 17.3393 252.691 17.138 253.624 17.138C254.285 17.138 254.888 17.2407 255.436 17.4459C255.983 17.6512 256.456 17.955 256.854 18.3575C257.253 18.7599 257.563 19.257 257.784 19.8486C258.005 20.4362 258.116 21.1103 258.116 21.871V22.6075H250.057V20.893H255.369C255.365 20.5791 255.291 20.2994 255.146 20.0539C255.001 19.8084 254.802 19.6172 254.548 19.4804C254.299 19.3395 254.011 19.2691 253.685 19.2691C253.355 19.2691 253.059 19.3435 252.797 19.4924C252.536 19.6373 252.329 19.8365 252.176 20.0901C252.023 20.3396 251.942 20.6233 251.934 20.9413V22.686C251.934 23.0643 252.009 23.3963 252.158 23.6821C252.306 23.9638 252.518 24.1831 252.791 24.3401C253.065 24.497 253.391 24.5755 253.769 24.5755C254.031 24.5755 254.268 24.5393 254.482 24.4669C254.695 24.3944 254.878 24.2878 255.031 24.1469C255.184 24.006 255.299 23.833 255.375 23.6277L258.086 23.7062C257.973 24.3139 257.726 24.8432 257.343 25.2939C256.965 25.7407 256.468 26.0888 255.852 26.3383C255.236 26.5838 254.524 26.7066 253.715 26.7066Z" fill="#FFF9AE"/>
</g>
</g>
<rect x="1.07729" y="1.10219" width="264.858" height="37.8585" rx="6.92857" stroke="white" stroke-opacity="0.15" stroke-width="2.14286"/>
<defs>
<filter id="filter0_d_3_851" x="2.40558" y="0.430481" width="39.2025" height="39.2021" filterUnits="userSpaceOnUse" color-interpolation-filters="sRGB">
<feFlood flood-opacity="0" result="BackgroundImageFix"/>
<feColorMatrix in="SourceAlpha" type="matrix" values="0 0 0 0 0 0 0 0 0 0 0 0 0 0 0 0 0 0 127 0" result="hardAlpha"/>
<feOffset/>
<feGaussianBlur stdDeviation="2.80014"/>
<feComposite in2="hardAlpha" operator="out"/>
<feColorMatrix type="matrix" values="0 0 0 0 0 0 0 0 0 0 0 0 0 0 0 0 0 0 0.25 0"/>
<feBlend mode="normal" in2="BackgroundImageFix" result="effect1_dropShadow_3_851"/>
<feBlend mode="normal" in="SourceGraphic" in2="effect1_dropShadow_3_851" result="shape"/>
</filter>
<filter id="filter1_d_3_851" x="36.293" y="3.81721" width="228.429" height="32.4286" filterUnits="userSpaceOnUse" color-interpolation-filters="sRGB">
<feFlood flood-opacity="0" result="BackgroundImageFix"/>
<feColorMatrix in="SourceAlpha" type="matrix" values="0 0 0 0 0 0 0 0 0 0 0 0 0 0 0 0 0 0 127 0" result="hardAlpha"/>
<feOffset/>
<feGaussianBlur stdDeviation="2.85714"/>
<feComposite in2="hardAlpha" operator="out"/>
<feColorMatrix type="matrix" values="0 0 0 0 0 0 0 0 0 0 0 0 0 0 0 0 0 0 0.25 0"/>
<feBlend mode="normal" in2="BackgroundImageFix" result="effect1_dropShadow_3_851"/>
<feBlend mode="normal" in="SourceGraphic" in2="effect1_dropShadow_3_851" result="shape"/>
</filter>
<linearGradient id="paint0_linear_3_851" x1="133.507" y1="0.0307617" x2="133.507" y2="40.0322" gradientUnits="userSpaceOnUse">
<stop stop-color="#353426"/>
<stop offset="1" stop-color="#27261C"/>
</linearGradient>
<clipPath id="clip0_3_851">
<rect x="0.00585938" y="0.0307617" width="267.001" height="40.0014" rx="8" fill="white"/>
</clipPath>
</defs>
</svg>
