<svg width="140" height="28" viewBox="0 0 140 28" fill="none" xmlns="http://www.w3.org/2000/svg">
<g clip-path="url(#clip0_28_2842)">
<rect x="0.499268" y="-3.05176e-05" width="139.5" height="28" rx="6" fill="url(#paint0_linear_28_2842)"/>
<g filter="url(#filter0_d_28_2842)">
<path d="M16.4999 4.35773C10.9752 4.35773 6.49927 8.78622 6.49927 14.2441C6.49927 18.6145 9.36445 22.3188 13.3353 23.6257C13.8372 23.719 14.0185 23.4131 14.0185 23.1487C14.0185 22.9139 14.0129 22.2929 14.0091 21.4686C11.2258 22.0643 10.6395 20.1395 10.6395 20.1395C10.1839 19.0001 9.52633 18.6942 9.52633 18.6942C8.62128 18.0831 9.59821 18.0961 9.59821 18.0961C10.6008 18.1635 11.1283 19.1126 11.1283 19.1126C12.0202 20.6252 13.4685 20.1877 14.0416 19.9331C14.1291 19.2961 14.3898 18.858 14.6735 18.6139C12.4534 18.3661 10.1189 17.5165 10.1189 13.7282C10.1189 12.6462 10.5064 11.7651 11.1471 11.0731C11.0364 10.8253 10.6977 9.81811 11.2352 8.45626C11.2352 8.45626 12.0721 8.19242 13.9854 9.47024C14.786 9.25088 15.6361 9.14151 16.4855 9.13595C17.3356 9.14151 18.185 9.2515 18.9857 9.47024C20.8877 8.19242 21.724 8.45626 21.724 8.45626C22.2609 9.81811 21.9221 10.8247 21.8246 11.0731C22.459 11.7651 22.8465 12.6469 22.8465 13.7282C22.8465 17.5252 20.5089 18.3624 18.2863 18.604C18.6338 18.9 18.9594 19.5086 18.9594 20.4324C18.9594 21.7547 18.9469 22.82 18.9469 23.1419C18.9469 23.3989 19.1219 23.7079 19.637 23.6084C23.6372 22.3151 26.4993 18.6077 26.4993 14.2435C26.4993 8.7856 22.0234 4.35712 16.4986 4.35712L16.4999 4.35773Z" fill="white"/>
</g>
<g filter="url(#filter1_d_28_2842)">
<path d="M37.7415 12.6015C37.6998 12.2317 37.5279 11.9453 37.2258 11.7422C36.9237 11.5364 36.5435 11.4336 36.0852 11.4336C35.7571 11.4336 35.4732 11.4856 35.2336 11.5898C34.9941 11.6914 34.8079 11.832 34.675 12.0117C34.5448 12.1888 34.4797 12.3906 34.4797 12.6172C34.4797 12.8073 34.524 12.9713 34.6125 13.1093C34.7037 13.2474 34.8222 13.3632 34.968 13.457C35.1165 13.5481 35.2753 13.625 35.4446 13.6875C35.6138 13.7474 35.7766 13.7968 35.9329 13.8359L36.7141 14.039C36.9693 14.1015 37.231 14.1862 37.4993 14.2929C37.7675 14.3997 38.0162 14.5403 38.2454 14.7148C38.4745 14.8893 38.6594 15.1054 38.8 15.3632C38.9433 15.6211 39.0149 15.9297 39.0149 16.289C39.0149 16.7422 38.8977 17.1445 38.6633 17.4961C38.4316 17.8476 38.0943 18.125 37.6516 18.3281C37.2115 18.5312 36.679 18.6328 36.054 18.6328C35.455 18.6328 34.9368 18.5377 34.4993 18.3476C34.0618 18.1575 33.7193 17.888 33.4719 17.539C33.2245 17.1875 33.0878 16.7708 33.0618 16.289H34.2727C34.2961 16.5781 34.3899 16.819 34.554 17.0117C34.7206 17.2018 34.9329 17.3437 35.1907 17.4375C35.4511 17.5286 35.7362 17.5742 36.0461 17.5742C36.3873 17.5742 36.6907 17.5208 36.9563 17.414C37.2245 17.3047 37.4355 17.1536 37.5891 16.9609C37.7428 16.7656 37.8196 16.5377 37.8196 16.2773C37.8196 16.0403 37.7519 15.8463 37.6165 15.6953C37.4836 15.5442 37.3027 15.4192 37.0735 15.3203C36.8469 15.2213 36.5904 15.1341 36.304 15.0586L35.3586 14.8007C34.718 14.6263 34.2102 14.3698 33.8352 14.0312C33.4628 13.6927 33.2766 13.2448 33.2766 12.6875C33.2766 12.2265 33.4016 11.8242 33.6516 11.4804C33.9016 11.1367 34.2402 10.8698 34.6672 10.6797C35.0943 10.4869 35.5761 10.3906 36.1125 10.3906C36.6542 10.3906 37.1321 10.4856 37.5461 10.6757C37.9628 10.8659 38.2909 11.1276 38.5305 11.4609C38.7701 11.7916 38.8951 12.1718 38.9055 12.6015H37.7415ZM42.9495 18.6211C42.3583 18.6211 41.8492 18.4948 41.4221 18.2422C40.9976 17.9869 40.6695 17.6289 40.4377 17.1679C40.2086 16.7044 40.094 16.1614 40.094 15.539C40.094 14.9244 40.2086 14.3828 40.4377 13.914C40.6695 13.4453 40.9924 13.0794 41.4065 12.8164C41.8232 12.5534 42.3101 12.4218 42.8674 12.4218C43.206 12.4218 43.5341 12.4778 43.8518 12.5898C44.1695 12.7018 44.4547 12.8776 44.7073 13.1172C44.9599 13.3567 45.1591 13.6679 45.3049 14.0507C45.4508 14.431 45.5237 14.8932 45.5237 15.4375V15.8515H40.7541V14.9765H44.3791C44.3791 14.6692 44.3166 14.3971 44.1916 14.1601C44.0666 13.9205 43.8909 13.7317 43.6643 13.5937C43.4403 13.4557 43.1773 13.3867 42.8752 13.3867C42.5471 13.3867 42.2607 13.4674 42.0159 13.6289C41.7737 13.7877 41.5862 13.9961 41.4534 14.2539C41.3232 14.5091 41.2581 14.7864 41.2581 15.0859V15.7695C41.2581 16.1705 41.3284 16.5117 41.469 16.7929C41.6122 17.0742 41.8114 17.289 42.0666 17.4375C42.3219 17.5833 42.62 17.6562 42.9612 17.6562C43.1825 17.6562 43.3844 17.625 43.5666 17.5625C43.7489 17.4974 43.9065 17.401 44.0393 17.2734C44.1721 17.1458 44.2737 16.9882 44.344 16.8007L45.4495 17C45.3609 17.3255 45.2021 17.6106 44.9729 17.8554C44.7463 18.0976 44.4612 18.2864 44.1174 18.4218C43.7763 18.5547 43.387 18.6211 42.9495 18.6211ZM49.4055 18.6211C48.8144 18.6211 48.3053 18.4948 47.8782 18.2422C47.4537 17.9869 47.1256 17.6289 46.8938 17.1679C46.6646 16.7044 46.55 16.1614 46.55 15.539C46.55 14.9244 46.6646 14.3828 46.8938 13.914C47.1256 13.4453 47.4485 13.0794 47.8625 12.8164C48.2792 12.5534 48.7662 12.4218 49.3235 12.4218C49.662 12.4218 49.9901 12.4778 50.3079 12.5898C50.6256 12.7018 50.9107 12.8776 51.1633 13.1172C51.4159 13.3567 51.6151 13.6679 51.761 14.0507C51.9068 14.431 51.9797 14.8932 51.9797 15.4375V15.8515H47.2102V14.9765H50.8352C50.8352 14.6692 50.7727 14.3971 50.6477 14.1601C50.5227 13.9205 50.3469 13.7317 50.1204 13.5937C49.8964 13.4557 49.6334 13.3867 49.3313 13.3867C49.0032 13.3867 48.7167 13.4674 48.4719 13.6289C48.2297 13.7877 48.0422 13.9961 47.9094 14.2539C47.7792 14.5091 47.7141 14.7864 47.7141 15.0859V15.7695C47.7141 16.1705 47.7844 16.5117 47.925 16.7929C48.0683 17.0742 48.2675 17.289 48.5227 17.4375C48.7779 17.5833 49.0761 17.6562 49.4172 17.6562C49.6386 17.6562 49.8404 17.625 50.0227 17.5625C50.205 17.4974 50.3625 17.401 50.4954 17.2734C50.6282 17.1458 50.7297 16.9882 50.8 16.8007L51.9055 17C51.817 17.3255 51.6581 17.6106 51.4289 17.8554C51.2024 18.0976 50.9172 18.2864 50.5735 18.4218C50.2323 18.5547 49.843 18.6211 49.4055 18.6211ZM56.1868 18.5V12.5H57.3079V13.4765H57.3821C57.5071 13.1458 57.7115 12.888 57.9954 12.7031C58.2792 12.5156 58.6191 12.4218 59.0149 12.4218C59.4159 12.4218 59.7519 12.5156 60.0227 12.7031C60.2961 12.8906 60.498 13.1484 60.6282 13.4765H60.6907C60.8339 13.1562 61.0618 12.901 61.3743 12.7109C61.6868 12.5182 62.0592 12.4218 62.4914 12.4218C63.0357 12.4218 63.4797 12.5924 63.8235 12.9336C64.1698 13.2747 64.343 13.789 64.343 14.4765V18.5H63.175V14.5859C63.175 14.1797 63.0644 13.8854 62.843 13.7031C62.6217 13.5208 62.3573 13.4297 62.05 13.4297C61.6698 13.4297 61.3743 13.5468 61.1633 13.7812C60.9524 14.013 60.8469 14.3112 60.8469 14.6757V18.5H59.6829V14.5117C59.6829 14.1862 59.5813 13.9244 59.3782 13.7265C59.175 13.5286 58.9107 13.4297 58.5852 13.4297C58.3638 13.4297 58.1594 13.4882 57.9719 13.6054C57.787 13.72 57.6373 13.8802 57.5227 14.0859C57.4107 14.2916 57.3547 14.5299 57.3547 14.8007V18.5H56.1868ZM68.4944 18.6211C67.9032 18.6211 67.3941 18.4948 66.967 18.2422C66.5426 17.9869 66.2144 17.6289 65.9827 17.1679C65.7535 16.7044 65.6389 16.1614 65.6389 15.539C65.6389 14.9244 65.7535 14.3828 65.9827 13.914C66.2144 13.4453 66.5373 13.0794 66.9514 12.8164C67.3681 12.5534 67.8551 12.4218 68.4123 12.4218C68.7509 12.4218 69.079 12.4778 69.3967 12.5898C69.7144 12.7018 69.9996 12.8776 70.2522 13.1172C70.5048 13.3567 70.704 13.6679 70.8498 14.0507C70.9957 14.431 71.0686 14.8932 71.0686 15.4375V15.8515H66.2991V14.9765H69.9241C69.9241 14.6692 69.8616 14.3971 69.7366 14.1601C69.6116 13.9205 69.4358 13.7317 69.2092 13.5937C68.9853 13.4557 68.7222 13.3867 68.4202 13.3867C68.092 13.3867 67.8056 13.4674 67.5608 13.6289C67.3186 13.7877 67.1311 13.9961 66.9983 14.2539C66.8681 14.5091 66.803 14.7864 66.803 15.0859V15.7695C66.803 16.1705 66.8733 16.5117 67.0139 16.7929C67.1571 17.0742 67.3564 17.289 67.6116 17.4375C67.8668 17.5833 68.1649 17.6562 68.5061 17.6562C68.7274 17.6562 68.9293 17.625 69.1116 17.5625C69.2939 17.4974 69.4514 17.401 69.5842 17.2734C69.717 17.1458 69.8186 16.9882 69.8889 16.8007L70.9944 17C70.9058 17.3255 70.747 17.6106 70.5178 17.8554C70.2912 18.0976 70.0061 18.2864 69.6623 18.4218C69.3212 18.5547 68.9319 18.6211 68.4944 18.6211ZM77.803 18.6211C77.2405 18.6211 76.7496 18.4922 76.3303 18.2343C75.911 17.9765 75.5855 17.6159 75.3537 17.1523C75.122 16.6888 75.0061 16.1471 75.0061 15.5273C75.0061 14.9049 75.122 14.3606 75.3537 13.8945C75.5855 13.4284 75.911 13.0664 76.3303 12.8086C76.7496 12.5507 77.2405 12.4218 77.803 12.4218C78.3655 12.4218 78.8564 12.5507 79.2756 12.8086C79.6949 13.0664 80.0204 13.4284 80.2522 13.8945C80.484 14.3606 80.5998 14.9049 80.5998 15.5273C80.5998 16.1471 80.484 16.6888 80.2522 17.1523C80.0204 17.6159 79.6949 17.9765 79.2756 18.2343C78.8564 18.4922 78.3655 18.6211 77.803 18.6211ZM77.8069 17.6406C78.1715 17.6406 78.4735 17.5442 78.7131 17.3515C78.9527 17.1588 79.1298 16.9023 79.2444 16.582C79.3616 16.2617 79.4202 15.9088 79.4202 15.5234C79.4202 15.1406 79.3616 14.789 79.2444 14.4687C79.1298 14.1458 78.9527 13.8867 78.7131 13.6914C78.4735 13.4961 78.1715 13.3984 77.8069 13.3984C77.4397 13.3984 77.135 13.4961 76.8928 13.6914C76.6532 13.8867 76.4748 14.1458 76.3577 14.4687C76.2431 14.789 76.1858 15.1406 76.1858 15.5234C76.1858 15.9088 76.2431 16.2617 76.3577 16.582C76.4748 16.9023 76.6532 17.1588 76.8928 17.3515C77.135 17.5442 77.4397 17.6406 77.8069 17.6406ZM83.0715 14.9375V18.5H81.9035V12.5H83.0246V13.4765H83.0989C83.2369 13.1588 83.453 12.9036 83.7473 12.7109C84.0442 12.5182 84.4179 12.4218 84.8684 12.4218C85.2772 12.4218 85.6353 12.5078 85.9426 12.6797C86.2499 12.8489 86.4882 13.1015 86.6575 13.4375C86.8267 13.7734 86.9114 14.1888 86.9114 14.6836V18.5H85.7434V14.8242C85.7434 14.3893 85.6301 14.0494 85.4035 13.8047C85.177 13.5573 84.8658 13.4336 84.47 13.4336C84.1991 13.4336 83.9582 13.4922 83.7473 13.6093C83.539 13.7265 83.3736 13.8984 83.2512 14.125C83.1314 14.3489 83.0715 14.6198 83.0715 14.9375Z" fill="#E8E8E8"/>
<path d="M97.3871 12.6235C97.3388 12.4446 97.2677 12.2869 97.174 12.1505C97.0802 12.0113 96.9652 11.8934 96.8288 11.7968C96.6924 11.7003 96.5362 11.6278 96.3601 11.5795C96.1839 11.5284 95.9907 11.5028 95.7805 11.5028C95.3572 11.5028 94.9907 11.6051 94.6811 11.8096C94.3743 12.0142 94.1371 12.3125 93.9694 12.7045C93.8018 13.0937 93.718 13.5667 93.718 14.1235C93.718 14.6832 93.799 15.1605 93.9609 15.5554C94.1228 15.9503 94.3572 16.2514 94.664 16.4588C94.9709 16.6662 95.343 16.7699 95.7805 16.7699C96.1669 16.7699 96.4936 16.7074 96.7606 16.5824C97.0305 16.4545 97.2351 16.2741 97.3743 16.0412C97.5135 15.8082 97.5831 15.5341 97.5831 15.2187L97.9751 15.2656H95.853V13.7272H99.6157V14.8821C99.6157 15.6633 99.4495 16.3324 99.1172 16.8892C98.7876 17.446 98.3331 17.8735 97.7535 18.1718C97.1768 18.4701 96.5135 18.6193 95.7635 18.6193C94.9311 18.6193 94.1996 18.4389 93.5689 18.0781C92.9382 17.7173 92.4467 17.2031 92.0944 16.5355C91.7422 15.865 91.566 15.0696 91.566 14.1491C91.566 13.4332 91.6726 12.7983 91.8856 12.2443C92.0987 11.6875 92.3956 11.2159 92.7763 10.8295C93.1598 10.4432 93.603 10.1505 94.1058 9.95167C94.6115 9.75281 95.1555 9.65338 95.7379 9.65338C96.2436 9.65338 96.7138 9.72582 97.1484 9.87071C97.5859 10.0156 97.9723 10.2201 98.3075 10.4843C98.6456 10.7485 98.9197 11.0625 99.1299 11.4261C99.3402 11.7897 99.4709 12.1889 99.522 12.6235H97.3871ZM101.269 18.5V11.9545H103.353V18.5H101.269ZM102.313 11.1917C102.021 11.1917 101.769 11.0951 101.559 10.902C101.349 10.7059 101.244 10.4701 101.244 10.1946C101.244 9.92184 101.349 9.68889 101.559 9.49571C101.769 9.29968 102.021 9.20167 102.313 9.20167C102.609 9.20167 102.86 9.29968 103.067 9.49571C103.278 9.68889 103.383 9.92184 103.383 10.1946C103.383 10.4701 103.278 10.7059 103.067 10.902C102.86 11.0951 102.609 11.1917 102.313 11.1917ZM108.374 11.9545V13.4886H104.245V11.9545H108.374ZM105.11 10.3863H107.194V16.4417C107.194 16.5696 107.213 16.6733 107.253 16.7528C107.296 16.8295 107.357 16.8849 107.436 16.919C107.516 16.9503 107.611 16.9659 107.722 16.9659C107.801 16.9659 107.885 16.9588 107.973 16.9446C108.064 16.9275 108.132 16.9133 108.178 16.902L108.493 18.4062C108.394 18.4346 108.253 18.4701 108.071 18.5128C107.892 18.5554 107.678 18.5824 107.428 18.5937C106.939 18.6164 106.52 18.5596 106.171 18.4233C105.824 18.2841 105.559 18.0681 105.374 17.7755C105.192 17.4829 105.104 17.115 105.11 16.6718V10.3863ZM109.578 18.5V9.7727H111.687V13.2755H115.126V9.7727H117.231V18.5H115.126V14.9929H111.687V18.5H109.578ZM122.777 15.6747V11.9545H124.857V18.5H122.871V17.2812H122.803C122.658 17.6818 122.411 18 122.061 18.2358C121.715 18.4687 121.296 18.5852 120.804 18.5852C120.358 18.5852 119.966 18.4829 119.628 18.2784C119.29 18.0738 119.027 17.7883 118.84 17.4218C118.652 17.0525 118.557 16.6207 118.554 16.1264V11.9545H120.638V15.7173C120.641 16.0724 120.735 16.3522 120.919 16.5568C121.104 16.7613 121.355 16.8636 121.674 16.8636C121.881 16.8636 122.067 16.8181 122.232 16.7272C122.399 16.6335 122.532 16.4985 122.628 16.3224C122.728 16.1434 122.777 15.9275 122.777 15.6747ZM126.183 18.5V9.7727H128.267V13.0753H128.31C128.395 12.8764 128.516 12.6846 128.672 12.5C128.831 12.3153 129.033 12.1647 129.277 12.0483C129.524 11.9289 129.82 11.8693 130.163 11.8693C130.618 11.8693 131.043 11.9886 131.437 12.2272C131.835 12.4659 132.156 12.8338 132.401 13.3309C132.645 13.8281 132.767 14.4616 132.767 15.2315C132.767 15.973 132.649 16.5937 132.413 17.0937C132.18 17.5937 131.865 17.9687 131.467 18.2187C131.072 18.4687 130.633 18.5937 130.151 18.5937C129.821 18.5937 129.535 18.5397 129.294 18.4318C129.053 18.3238 128.849 18.1818 128.685 18.0056C128.523 17.8295 128.398 17.6406 128.31 17.4389H128.246V18.5H126.183ZM128.224 15.2272C128.224 15.5795 128.271 15.8863 128.365 16.1477C128.462 16.4091 128.599 16.6122 128.778 16.7571C128.96 16.8991 129.178 16.9701 129.43 16.9701C129.686 16.9701 129.903 16.8991 130.082 16.7571C130.261 16.6122 130.396 16.4091 130.487 16.1477C130.581 15.8863 130.628 15.5795 130.628 15.2272C130.628 14.875 130.581 14.5696 130.487 14.311C130.396 14.0525 130.261 13.8522 130.082 13.7102C129.906 13.5681 129.689 13.4971 129.43 13.4971C129.175 13.4971 128.957 13.5667 128.778 13.7059C128.599 13.8451 128.462 14.044 128.365 14.3025C128.271 14.561 128.224 14.8693 128.224 15.2272Z" fill="white"/>
</g>
</g>
<rect x="1.24927" y="0.749969" width="138" height="26.5" rx="5.25" stroke="white" stroke-opacity="0.15" stroke-width="1.5"/>
<defs>
<filter id="filter0_d_28_2842" x="2.49927" y="-3.05176e-05" width="28" height="28" filterUnits="userSpaceOnUse" color-interpolation-filters="sRGB">
<feFlood flood-opacity="0" result="BackgroundImageFix"/>
<feColorMatrix in="SourceAlpha" type="matrix" values="0 0 0 0 0 0 0 0 0 0 0 0 0 0 0 0 0 0 127 0" result="hardAlpha"/>
<feOffset/>
<feGaussianBlur stdDeviation="2"/>
<feComposite in2="hardAlpha" operator="out"/>
<feColorMatrix type="matrix" values="0 0 0 0 0 0 0 0 0 0 0 0 0 0 0 0 0 0 0.25 0"/>
<feBlend mode="normal" in2="BackgroundImageFix" result="effect1_dropShadow_28_2842"/>
<feBlend mode="normal" in="SourceGraphic" in2="effect1_dropShadow_28_2842" result="shape"/>
</filter>
<filter id="filter1_d_28_2842" x="28.4993" y="3.49997" width="109.5" height="21" filterUnits="userSpaceOnUse" color-interpolation-filters="sRGB">
<feFlood flood-opacity="0" result="BackgroundImageFix"/>
<feColorMatrix in="SourceAlpha" type="matrix" values="0 0 0 0 0 0 0 0 0 0 0 0 0 0 0 0 0 0 127 0" result="hardAlpha"/>
<feOffset/>
<feGaussianBlur stdDeviation="2"/>
<feComposite in2="hardAlpha" operator="out"/>
<feColorMatrix type="matrix" values="0 0 0 0 0 0 0 0 0 0 0 0 0 0 0 0 0 0 0.25 0"/>
<feBlend mode="normal" in2="BackgroundImageFix" result="effect1_dropShadow_28_2842"/>
<feBlend mode="normal" in="SourceGraphic" in2="effect1_dropShadow_28_2842" result="shape"/>
</filter>
<linearGradient id="paint0_linear_28_2842" x1="70.2492" y1="-3.05176e-05" x2="70.2492" y2="28" gradientUnits="userSpaceOnUse">
<stop stop-color="#2B2B2B"/>
<stop offset="1" stop-color="#1C1C1C"/>
</linearGradient>
<clipPath id="clip0_28_2842">
<rect x="0.499268" y="-3.05176e-05" width="139.5" height="28" rx="6" fill="white"/>
</clipPath>
</defs>
</svg>
