<svg width="136" height="28" viewBox="0 0 136 28" fill="none" xmlns="http://www.w3.org/2000/svg">
<g clip-path="url(#clip0_28_2836)">
<rect x="0.499268" y="-3.05176e-05" width="135.5" height="28" rx="6" fill="url(#paint0_linear_28_2836)"/>
<g filter="url(#filter0_d_28_2836)">
<path d="M16.4999 4.35773C10.9752 4.35773 6.49927 8.78622 6.49927 14.2441C6.49927 18.6145 9.36445 22.3188 13.3353 23.6257C13.8372 23.719 14.0185 23.4131 14.0185 23.1487C14.0185 22.9139 14.0129 22.2929 14.0091 21.4686C11.2258 22.0643 10.6395 20.1395 10.6395 20.1395C10.1839 19.0001 9.52633 18.6942 9.52633 18.6942C8.62128 18.0831 9.59821 18.0961 9.59821 18.0961C10.6008 18.1635 11.1283 19.1126 11.1283 19.1126C12.0202 20.6252 13.4685 20.1877 14.0416 19.9331C14.1291 19.2961 14.3898 18.858 14.6735 18.6139C12.4534 18.3661 10.1189 17.5165 10.1189 13.7282C10.1189 12.6462 10.5064 11.7651 11.1471 11.0731C11.0364 10.8253 10.6977 9.81811 11.2352 8.45626C11.2352 8.45626 12.0721 8.19242 13.9854 9.47024C14.786 9.25088 15.6361 9.14151 16.4855 9.13595C17.3356 9.14151 18.185 9.2515 18.9857 9.47024C20.8877 8.19242 21.724 8.45626 21.724 8.45626C22.2609 9.81811 21.9221 10.8247 21.8246 11.0731C22.459 11.7651 22.8465 12.6469 22.8465 13.7282C22.8465 17.5252 20.5089 18.3624 18.2863 18.604C18.6338 18.9 18.9594 19.5086 18.9594 20.4324C18.9594 21.7547 18.9469 22.82 18.9469 23.1419C18.9469 23.3989 19.1219 23.7079 19.637 23.6084C23.6372 22.3151 26.4993 18.6077 26.4993 14.2435C26.4993 8.7856 22.0234 4.35712 16.4986 4.35712L16.4999 4.35773Z" fill="white"/>
</g>
<g filter="url(#filter1_d_28_2836)">
<path d="M37.7415 12.6015C37.6998 12.2317 37.5279 11.9453 37.2258 11.7422C36.9237 11.5364 36.5435 11.4336 36.0852 11.4336C35.7571 11.4336 35.4732 11.4856 35.2336 11.5898C34.9941 11.6914 34.8079 11.832 34.675 12.0117C34.5448 12.1888 34.4797 12.3906 34.4797 12.6172C34.4797 12.8073 34.524 12.9713 34.6125 13.1093C34.7037 13.2474 34.8222 13.3632 34.968 13.457C35.1165 13.5481 35.2753 13.625 35.4446 13.6875C35.6138 13.7474 35.7766 13.7968 35.9329 13.8359L36.7141 14.039C36.9693 14.1015 37.231 14.1862 37.4993 14.2929C37.7675 14.3997 38.0162 14.5403 38.2454 14.7148C38.4745 14.8893 38.6594 15.1054 38.8 15.3632C38.9433 15.6211 39.0149 15.9297 39.0149 16.289C39.0149 16.7422 38.8977 17.1445 38.6633 17.4961C38.4316 17.8476 38.0943 18.125 37.6516 18.3281C37.2115 18.5312 36.679 18.6328 36.054 18.6328C35.455 18.6328 34.9368 18.5377 34.4993 18.3476C34.0618 18.1575 33.7193 17.888 33.4719 17.539C33.2245 17.1875 33.0878 16.7708 33.0618 16.289H34.2727C34.2961 16.5781 34.3899 16.819 34.554 17.0117C34.7206 17.2018 34.9329 17.3437 35.1907 17.4375C35.4511 17.5286 35.7362 17.5742 36.0461 17.5742C36.3873 17.5742 36.6907 17.5208 36.9563 17.414C37.2245 17.3047 37.4355 17.1536 37.5891 16.9609C37.7428 16.7656 37.8196 16.5377 37.8196 16.2773C37.8196 16.0403 37.7519 15.8463 37.6165 15.6953C37.4836 15.5442 37.3027 15.4192 37.0735 15.3203C36.8469 15.2213 36.5904 15.1341 36.304 15.0586L35.3586 14.8007C34.718 14.6263 34.2102 14.3698 33.8352 14.0312C33.4628 13.6927 33.2766 13.2448 33.2766 12.6875C33.2766 12.2265 33.4016 11.8242 33.6516 11.4804C33.9016 11.1367 34.2402 10.8698 34.6672 10.6797C35.0943 10.4869 35.5761 10.3906 36.1125 10.3906C36.6542 10.3906 37.1321 10.4856 37.5461 10.6757C37.9628 10.8659 38.2909 11.1276 38.5305 11.4609C38.7701 11.7916 38.8951 12.1718 38.9055 12.6015H37.7415ZM42.9495 18.6211C42.3583 18.6211 41.8492 18.4948 41.4221 18.2422C40.9976 17.9869 40.6695 17.6289 40.4377 17.1679C40.2086 16.7044 40.094 16.1614 40.094 15.539C40.094 14.9244 40.2086 14.3828 40.4377 13.914C40.6695 13.4453 40.9924 13.0794 41.4065 12.8164C41.8232 12.5534 42.3101 12.4218 42.8674 12.4218C43.206 12.4218 43.5341 12.4778 43.8518 12.5898C44.1695 12.7018 44.4547 12.8776 44.7073 13.1172C44.9599 13.3567 45.1591 13.6679 45.3049 14.0507C45.4508 14.431 45.5237 14.8932 45.5237 15.4375V15.8515H40.7541V14.9765H44.3791C44.3791 14.6692 44.3166 14.3971 44.1916 14.1601C44.0666 13.9205 43.8909 13.7317 43.6643 13.5937C43.4403 13.4557 43.1773 13.3867 42.8752 13.3867C42.5471 13.3867 42.2607 13.4674 42.0159 13.6289C41.7737 13.7877 41.5862 13.9961 41.4534 14.2539C41.3232 14.5091 41.2581 14.7864 41.2581 15.0859V15.7695C41.2581 16.1705 41.3284 16.5117 41.469 16.7929C41.6122 17.0742 41.8114 17.289 42.0666 17.4375C42.3219 17.5833 42.62 17.6562 42.9612 17.6562C43.1825 17.6562 43.3844 17.625 43.5666 17.5625C43.7489 17.4974 43.9065 17.401 44.0393 17.2734C44.1721 17.1458 44.2737 16.9882 44.344 16.8007L45.4495 17C45.3609 17.3255 45.2021 17.6106 44.9729 17.8554C44.7463 18.0976 44.4612 18.2864 44.1174 18.4218C43.7763 18.5547 43.387 18.6211 42.9495 18.6211ZM49.4055 18.6211C48.8144 18.6211 48.3053 18.4948 47.8782 18.2422C47.4537 17.9869 47.1256 17.6289 46.8938 17.1679C46.6646 16.7044 46.55 16.1614 46.55 15.539C46.55 14.9244 46.6646 14.3828 46.8938 13.914C47.1256 13.4453 47.4485 13.0794 47.8625 12.8164C48.2792 12.5534 48.7662 12.4218 49.3235 12.4218C49.662 12.4218 49.9901 12.4778 50.3079 12.5898C50.6256 12.7018 50.9107 12.8776 51.1633 13.1172C51.4159 13.3567 51.6151 13.6679 51.761 14.0507C51.9068 14.431 51.9797 14.8932 51.9797 15.4375V15.8515H47.2102V14.9765H50.8352C50.8352 14.6692 50.7727 14.3971 50.6477 14.1601C50.5227 13.9205 50.3469 13.7317 50.1204 13.5937C49.8964 13.4557 49.6334 13.3867 49.3313 13.3867C49.0032 13.3867 48.7167 13.4674 48.4719 13.6289C48.2297 13.7877 48.0422 13.9961 47.9094 14.2539C47.7792 14.5091 47.7141 14.7864 47.7141 15.0859V15.7695C47.7141 16.1705 47.7844 16.5117 47.925 16.7929C48.0683 17.0742 48.2675 17.289 48.5227 17.4375C48.7779 17.5833 49.0761 17.6562 49.4172 17.6562C49.6386 17.6562 49.8404 17.625 50.0227 17.5625C50.205 17.4974 50.3625 17.401 50.4954 17.2734C50.6282 17.1458 50.7297 16.9882 50.8 16.8007L51.9055 17C51.817 17.3255 51.6581 17.6106 51.4289 17.8554C51.2024 18.0976 50.9172 18.2864 50.5735 18.4218C50.2323 18.5547 49.843 18.6211 49.4055 18.6211ZM59.9875 16.0117V12.5H61.1594V18.5H60.011V17.4609H59.9485C59.8105 17.7812 59.5891 18.0481 59.2844 18.2617C58.9823 18.4726 58.606 18.5781 58.1555 18.5781C57.7701 18.5781 57.4289 18.4935 57.1321 18.3242C56.8378 18.1523 56.606 17.8984 56.4368 17.5625C56.2701 17.2265 56.1868 16.8112 56.1868 16.3164V12.5H57.3547V16.1757C57.3547 16.5846 57.468 16.9101 57.6946 17.1523C57.9211 17.3945 58.2154 17.5156 58.5774 17.5156C58.7961 17.5156 59.0136 17.4609 59.2297 17.3515C59.4485 17.2422 59.6295 17.0768 59.7727 16.8554C59.9185 16.6341 59.9901 16.3528 59.9875 16.0117ZM67.2248 13.9648L66.1662 14.1523C66.122 14.0169 66.0517 13.888 65.9553 13.7656C65.8616 13.6432 65.734 13.5429 65.5725 13.4648C65.411 13.3867 65.2092 13.3476 64.967 13.3476C64.6363 13.3476 64.3603 13.4218 64.1389 13.5703C63.9176 13.7161 63.8069 13.9049 63.8069 14.1367C63.8069 14.3372 63.8811 14.4987 64.0295 14.6211C64.178 14.7435 64.4176 14.8437 64.7483 14.9218L65.7014 15.1406C66.2535 15.2682 66.6649 15.4648 66.9358 15.7304C67.2066 15.9961 67.342 16.3411 67.342 16.7656C67.342 17.125 67.2379 17.4453 67.0295 17.7265C66.8238 18.0052 66.536 18.2239 66.1662 18.3828C65.7991 18.5416 65.3733 18.6211 64.8889 18.6211C64.217 18.6211 63.6689 18.4778 63.2444 18.1914C62.8199 17.9023 62.5595 17.4922 62.4631 16.9609L63.592 16.789C63.6623 17.0833 63.8069 17.306 64.0256 17.457C64.2444 17.6054 64.5295 17.6797 64.8811 17.6797C65.2639 17.6797 65.5699 17.6002 65.7991 17.4414C66.0282 17.2799 66.1428 17.0833 66.1428 16.8515C66.1428 16.664 66.0725 16.5065 65.9319 16.3789C65.7939 16.2513 65.5816 16.1549 65.2952 16.0898L64.2795 15.8672C63.7196 15.7396 63.3056 15.5364 63.0373 15.2578C62.7717 14.9791 62.6389 14.6263 62.6389 14.1992C62.6389 13.845 62.7379 13.5351 62.9358 13.2695C63.1337 13.0039 63.4071 12.7968 63.7561 12.6484C64.1051 12.4974 64.5048 12.4218 64.9553 12.4218C65.6037 12.4218 66.1142 12.5625 66.4866 12.8437C66.859 13.1224 67.1051 13.4961 67.2248 13.9648ZM74.0647 18.6211C73.5022 18.6211 73.0113 18.4922 72.592 18.2343C72.1728 17.9765 71.8472 17.6159 71.6155 17.1523C71.3837 16.6888 71.2678 16.1471 71.2678 15.5273C71.2678 14.9049 71.3837 14.3606 71.6155 13.8945C71.8472 13.4284 72.1728 13.0664 72.592 12.8086C73.0113 12.5507 73.5022 12.4218 74.0647 12.4218C74.6272 12.4218 75.1181 12.5507 75.5373 12.8086C75.9566 13.0664 76.2821 13.4284 76.5139 13.8945C76.7457 14.3606 76.8616 14.9049 76.8616 15.5273C76.8616 16.1471 76.7457 16.6888 76.5139 17.1523C76.2821 17.6159 75.9566 17.9765 75.5373 18.2343C75.1181 18.4922 74.6272 18.6211 74.0647 18.6211ZM74.0686 17.6406C74.4332 17.6406 74.7353 17.5442 74.9748 17.3515C75.2144 17.1588 75.3915 16.9023 75.5061 16.582C75.6233 16.2617 75.6819 15.9088 75.6819 15.5234C75.6819 15.1406 75.6233 14.789 75.5061 14.4687C75.3915 14.1458 75.2144 13.8867 74.9748 13.6914C74.7353 13.4961 74.4332 13.3984 74.0686 13.3984C73.7014 13.3984 73.3967 13.4961 73.1545 13.6914C72.9149 13.8867 72.7366 14.1458 72.6194 14.4687C72.5048 14.789 72.4475 15.1406 72.4475 15.5234C72.4475 15.9088 72.5048 16.2617 72.6194 16.582C72.7366 16.9023 72.9149 17.1588 73.1545 17.3515C73.3967 17.5442 73.7014 17.6406 74.0686 17.6406ZM79.3332 14.9375V18.5H78.1653V12.5H79.2864V13.4765H79.3606C79.4986 13.1588 79.7147 12.9036 80.009 12.7109C80.3059 12.5182 80.6796 12.4218 81.1301 12.4218C81.539 12.4218 81.897 12.5078 82.2043 12.6797C82.5116 12.8489 82.7499 13.1015 82.9192 13.4375C83.0884 13.7734 83.1731 14.1888 83.1731 14.6836V18.5H82.0051V14.8242C82.0051 14.3893 81.8918 14.0494 81.6653 13.8047C81.4387 13.5573 81.1275 13.4336 80.7317 13.4336C80.4608 13.4336 80.22 13.4922 80.009 13.6093C79.8007 13.7265 79.6353 13.8984 79.5129 14.125C79.3931 14.3489 79.3332 14.6198 79.3332 14.9375Z" fill="#E8E8E8"/>
<path d="M93.3871 12.6235C93.3388 12.4446 93.2677 12.2869 93.174 12.1505C93.0802 12.0113 92.9652 11.8934 92.8288 11.7968C92.6924 11.7003 92.5362 11.6278 92.3601 11.5795C92.1839 11.5284 91.9907 11.5028 91.7805 11.5028C91.3572 11.5028 90.9907 11.6051 90.6811 11.8096C90.3743 12.0142 90.1371 12.3125 89.9694 12.7045C89.8018 13.0937 89.718 13.5667 89.718 14.1235C89.718 14.6832 89.799 15.1605 89.9609 15.5554C90.1228 15.9503 90.3572 16.2514 90.664 16.4588C90.9709 16.6662 91.343 16.7699 91.7805 16.7699C92.1669 16.7699 92.4936 16.7074 92.7606 16.5824C93.0305 16.4545 93.2351 16.2741 93.3743 16.0412C93.5135 15.8082 93.5831 15.5341 93.5831 15.2187L93.9751 15.2656H91.853V13.7272H95.6157V14.8821C95.6157 15.6633 95.4495 16.3324 95.1172 16.8892C94.7876 17.446 94.3331 17.8735 93.7535 18.1718C93.1768 18.4701 92.5135 18.6193 91.7635 18.6193C90.9311 18.6193 90.1996 18.4389 89.5689 18.0781C88.9382 17.7173 88.4467 17.2031 88.0944 16.5355C87.7422 15.865 87.566 15.0696 87.566 14.1491C87.566 13.4332 87.6726 12.7983 87.8856 12.2443C88.0987 11.6875 88.3956 11.2159 88.7763 10.8295C89.1598 10.4432 89.603 10.1505 90.1058 9.95167C90.6115 9.75281 91.1555 9.65338 91.7379 9.65338C92.2436 9.65338 92.7138 9.72582 93.1484 9.87071C93.5859 10.0156 93.9723 10.2201 94.3075 10.4843C94.6456 10.7485 94.9197 11.0625 95.1299 11.4261C95.3402 11.7897 95.4709 12.1889 95.522 12.6235H93.3871ZM97.2692 18.5V11.9545H99.353V18.5H97.2692ZM98.3132 11.1917C98.0206 11.1917 97.7692 11.0951 97.5589 10.902C97.3487 10.7059 97.2436 10.4701 97.2436 10.1946C97.2436 9.92184 97.3487 9.68889 97.5589 9.49571C97.7692 9.29968 98.0206 9.20167 98.3132 9.20167C98.6086 9.20167 98.8601 9.29968 99.0674 9.49571C99.2777 9.68889 99.3828 9.92184 99.3828 10.1946C99.3828 10.4701 99.2777 10.7059 99.0674 10.902C98.8601 11.0951 98.6086 11.1917 98.3132 11.1917ZM104.374 11.9545V13.4886H100.245V11.9545H104.374ZM101.11 10.3863H103.194V16.4417C103.194 16.5696 103.213 16.6733 103.253 16.7528C103.296 16.8295 103.357 16.8849 103.436 16.919C103.516 16.9503 103.611 16.9659 103.722 16.9659C103.801 16.9659 103.885 16.9588 103.973 16.9446C104.064 16.9275 104.132 16.9133 104.178 16.902L104.493 18.4062C104.394 18.4346 104.253 18.4701 104.071 18.5128C103.892 18.5554 103.678 18.5824 103.428 18.5937C102.939 18.6164 102.52 18.5596 102.171 18.4233C101.824 18.2841 101.559 18.0681 101.374 17.7755C101.192 17.4829 101.104 17.115 101.11 16.6718V10.3863ZM105.578 18.5V9.7727H107.687V13.2755H111.126V9.7727H113.231V18.5H111.126V14.9929H107.687V18.5H105.578ZM118.777 15.6747V11.9545H120.857V18.5H118.871V17.2812H118.803C118.658 17.6818 118.411 18 118.061 18.2358C117.715 18.4687 117.296 18.5852 116.804 18.5852C116.358 18.5852 115.966 18.4829 115.628 18.2784C115.29 18.0738 115.027 17.7883 114.84 17.4218C114.652 17.0525 114.557 16.6207 114.554 16.1264V11.9545H116.638V15.7173C116.641 16.0724 116.735 16.3522 116.919 16.5568C117.104 16.7613 117.355 16.8636 117.674 16.8636C117.881 16.8636 118.067 16.8181 118.232 16.7272C118.399 16.6335 118.532 16.4985 118.628 16.3224C118.728 16.1434 118.777 15.9275 118.777 15.6747ZM122.183 18.5V9.7727H124.267V13.0753H124.31C124.395 12.8764 124.516 12.6846 124.672 12.5C124.831 12.3153 125.033 12.1647 125.277 12.0483C125.524 11.9289 125.82 11.8693 126.163 11.8693C126.618 11.8693 127.043 11.9886 127.437 12.2272C127.835 12.4659 128.156 12.8338 128.401 13.3309C128.645 13.8281 128.767 14.4616 128.767 15.2315C128.767 15.973 128.649 16.5937 128.413 17.0937C128.18 17.5937 127.865 17.9687 127.467 18.2187C127.072 18.4687 126.633 18.5937 126.151 18.5937C125.821 18.5937 125.535 18.5397 125.294 18.4318C125.053 18.3238 124.849 18.1818 124.685 18.0056C124.523 17.8295 124.398 17.6406 124.31 17.4389H124.246V18.5H122.183ZM124.224 15.2272C124.224 15.5795 124.271 15.8863 124.365 16.1477C124.462 16.4091 124.599 16.6122 124.778 16.7571C124.96 16.8991 125.178 16.9701 125.43 16.9701C125.686 16.9701 125.903 16.8991 126.082 16.7571C126.261 16.6122 126.396 16.4091 126.487 16.1477C126.581 15.8863 126.628 15.5795 126.628 15.2272C126.628 14.875 126.581 14.5696 126.487 14.311C126.396 14.0525 126.261 13.8522 126.082 13.7102C125.906 13.5681 125.689 13.4971 125.43 13.4971C125.175 13.4971 124.957 13.5667 124.778 13.7059C124.599 13.8451 124.462 14.044 124.365 14.3025C124.271 14.561 124.224 14.8693 124.224 15.2272Z" fill="white"/>
</g>
</g>
<rect x="1.24927" y="0.749969" width="134" height="26.5" rx="5.25" stroke="white" stroke-opacity="0.15" stroke-width="1.5"/>
<defs>
<filter id="filter0_d_28_2836" x="2.49927" y="-3.05176e-05" width="28" height="28" filterUnits="userSpaceOnUse" color-interpolation-filters="sRGB">
<feFlood flood-opacity="0" result="BackgroundImageFix"/>
<feColorMatrix in="SourceAlpha" type="matrix" values="0 0 0 0 0 0 0 0 0 0 0 0 0 0 0 0 0 0 127 0" result="hardAlpha"/>
<feOffset/>
<feGaussianBlur stdDeviation="2"/>
<feComposite in2="hardAlpha" operator="out"/>
<feColorMatrix type="matrix" values="0 0 0 0 0 0 0 0 0 0 0 0 0 0 0 0 0 0 0.25 0"/>
<feBlend mode="normal" in2="BackgroundImageFix" result="effect1_dropShadow_28_2836"/>
<feBlend mode="normal" in="SourceGraphic" in2="effect1_dropShadow_28_2836" result="shape"/>
</filter>
<filter id="filter1_d_28_2836" x="28.4993" y="3.49997" width="105.5" height="21" filterUnits="userSpaceOnUse" color-interpolation-filters="sRGB">
<feFlood flood-opacity="0" result="BackgroundImageFix"/>
<feColorMatrix in="SourceAlpha" type="matrix" values="0 0 0 0 0 0 0 0 0 0 0 0 0 0 0 0 0 0 127 0" result="hardAlpha"/>
<feOffset/>
<feGaussianBlur stdDeviation="2"/>
<feComposite in2="hardAlpha" operator="out"/>
<feColorMatrix type="matrix" values="0 0 0 0 0 0 0 0 0 0 0 0 0 0 0 0 0 0 0.25 0"/>
<feBlend mode="normal" in2="BackgroundImageFix" result="effect1_dropShadow_28_2836"/>
<feBlend mode="normal" in="SourceGraphic" in2="effect1_dropShadow_28_2836" result="shape"/>
</filter>
<linearGradient id="paint0_linear_28_2836" x1="68.2492" y1="-3.05176e-05" x2="68.2492" y2="28" gradientUnits="userSpaceOnUse">
<stop stop-color="#2B2B2B"/>
<stop offset="1" stop-color="#1C1C1C"/>
</linearGradient>
<clipPath id="clip0_28_2836">
<rect x="0.499268" y="-3.05176e-05" width="135.5" height="28" rx="6" fill="white"/>
</clipPath>
</defs>
</svg>
