<svg width="191" height="41" viewBox="0 0 191 41" fill="none" xmlns="http://www.w3.org/2000/svg">
<rect x="0.00585938" y="0.0195923" width="190.001" height="40.0014" rx="8" fill="url(#paint0_linear_28_2848)"/>
<g filter="url(#filter0_d_28_2848)">
<path d="M22.0064 33.0169L27.1626 17.0235H16.8501L22.0064 33.0169Z" fill="#E24329"/>
<path d="M22.0066 33.0169L16.8504 17.0235H9.625L22.0066 33.0169Z" fill="#FC6D26"/>
<path d="M9.6251 17.0235L8.05803 21.8839C7.98842 22.1 7.98847 22.3327 8.05818 22.5487C8.12788 22.7647 8.26366 22.9529 8.44605 23.0864L22.0067 33.0209L9.6251 17.0235Z" fill="#FCA326"/>
<path d="M9.625 17.0235H16.8504L13.7452 7.39143C13.7102 7.28359 13.6422 7.18967 13.5511 7.12308C13.46 7.05649 13.3503 7.02063 13.2377 7.02063C13.1251 7.02063 13.0154 7.05649 12.9243 7.12308C12.8331 7.18967 12.7652 7.28359 12.7302 7.39143L9.625 17.0235Z" fill="#E24329"/>
<path d="M22.0063 33.0169L27.1626 17.0235H34.388L22.0063 33.0169Z" fill="#FC6D26"/>
<path d="M34.388 17.0235L35.955 21.8839C36.0247 22.1 36.0246 22.3327 35.9549 22.5487C35.8852 22.7647 35.7494 22.9529 35.567 23.0864L22.0063 33.0209L34.388 17.0235Z" fill="#FCA326"/>
<path d="M34.388 17.0235H27.1626L30.2678 7.39039C30.3028 7.28256 30.3707 7.18863 30.4619 7.12204C30.553 7.05545 30.6627 7.01959 30.7753 7.01959C30.8879 7.01959 30.9975 7.05545 31.0887 7.12204C31.1798 7.18863 31.2478 7.28256 31.2828 7.39039L34.388 17.0235Z" fill="#E24329"/>
</g>
<g filter="url(#filter1_d_28_2848)">
<path d="M50.1089 17.4045C50.0445 16.833 49.7789 16.3903 49.312 16.0764C48.8452 15.7584 48.2576 15.5995 47.5492 15.5995C47.0421 15.5995 46.6034 15.6799 46.2332 15.8409C45.8629 15.9979 45.5751 16.2152 45.3699 16.4929C45.1687 16.7666 45.068 17.0785 45.068 17.4286C45.068 17.7224 45.1365 17.976 45.2733 18.1893C45.4142 18.4026 45.5973 18.5817 45.8227 18.7266C46.0521 18.8674 46.2976 18.9862 46.5592 19.0828C46.8208 19.1753 47.0723 19.2518 47.3138 19.3122L48.5212 19.6261C48.9156 19.7227 49.3201 19.8535 49.7346 20.0185C50.1491 20.1835 50.5335 20.4008 50.8876 20.6705C51.2418 20.9401 51.5276 21.2742 51.7449 21.6726C51.9662 22.071 52.0769 22.548 52.0769 23.1034C52.0769 23.8036 51.8958 24.4254 51.5336 24.9688C51.1754 25.5121 50.6542 25.9407 49.97 26.2546C49.2899 26.5686 48.4668 26.7255 47.5009 26.7255C46.5753 26.7255 45.7744 26.5786 45.0982 26.2848C44.4221 25.991 43.8929 25.5745 43.5105 25.0352C43.1282 24.4919 42.9169 23.8479 42.8766 23.1034H44.7481C44.7843 23.5501 44.9292 23.9224 45.1827 24.2202C45.4403 24.514 45.7683 24.7333 46.1668 24.8782C46.5692 25.0191 47.0099 25.0895 47.4889 25.0895C48.0161 25.0895 48.485 25.007 48.8955 24.842C49.31 24.673 49.636 24.4395 49.8734 24.1417C50.1109 23.8399 50.2296 23.4877 50.2296 23.0852C50.2296 22.719 50.125 22.4192 49.9157 22.1857C49.7104 21.9523 49.4307 21.7591 49.0766 21.6062C48.7264 21.4533 48.33 21.3184 47.8873 21.2017L46.4264 20.8033C45.4363 20.5336 44.6515 20.1372 44.072 19.614C43.4964 19.0908 43.2087 18.3986 43.2087 17.5373C43.2087 16.8249 43.4019 16.2031 43.7882 15.6719C44.1746 15.1406 44.6978 14.7281 45.3578 14.4343C46.0179 14.1365 46.7624 13.9876 47.5915 13.9876C48.4286 13.9876 49.1671 14.1345 49.807 14.4283C50.451 14.7221 50.9581 15.1266 51.3283 15.6417C51.6986 16.1528 51.8918 16.7404 51.9079 17.4045H50.1089ZM58.1576 26.7074C57.244 26.7074 56.4572 26.5122 55.7972 26.1218C55.1412 25.7274 54.6341 25.174 54.2759 24.4617C53.9217 23.7453 53.7446 22.9061 53.7446 21.9443C53.7446 20.9945 53.9217 20.1573 54.2759 19.4329C54.6341 18.7085 55.1331 18.143 55.773 17.7365C56.417 17.33 57.1696 17.1268 58.0308 17.1268C58.554 17.1268 59.0611 17.2133 59.5522 17.3864C60.0432 17.5594 60.4839 17.8311 60.8742 18.2014C61.2646 18.5716 61.5725 19.0526 61.7979 19.6442C62.0233 20.2318 62.136 20.9462 62.136 21.7873V22.4272H54.7649V21.0749H60.3671C60.3671 20.6 60.2705 20.1795 60.0774 19.8132C59.8842 19.443 59.6125 19.1512 59.2624 18.9379C58.9163 18.7246 58.5098 18.6179 58.0429 18.6179C57.5358 18.6179 57.0931 18.7427 56.7148 18.9922C56.3405 19.2377 56.0507 19.5597 55.8455 19.9581C55.6442 20.3525 55.5436 20.7812 55.5436 21.244V22.3004C55.5436 22.9202 55.6523 23.4475 55.8696 23.8821C56.091 24.3168 56.3989 24.6488 56.7933 24.8782C57.1877 25.1036 57.6485 25.2163 58.1757 25.2163C58.5178 25.2163 58.8297 25.168 59.1115 25.0714C59.3932 24.9708 59.6367 24.8219 59.8419 24.6247C60.0472 24.4275 60.2041 24.184 60.3128 23.8942L62.0213 24.2021C61.8844 24.7052 61.6389 25.1459 61.2848 25.5242C60.9346 25.8985 60.4939 26.1902 59.9627 26.3995C59.4354 26.6048 58.8338 26.7074 58.1576 26.7074ZM68.1352 26.7074C67.2216 26.7074 66.4348 26.5122 65.7747 26.1218C65.1187 25.7274 64.6116 25.174 64.2534 24.4617C63.8992 23.7453 63.7222 22.9061 63.7222 21.9443C63.7222 20.9945 63.8992 20.1573 64.2534 19.4329C64.6116 18.7085 65.1107 18.143 65.7506 17.7365C66.3945 17.33 67.1471 17.1268 68.0084 17.1268C68.5316 17.1268 69.0387 17.2133 69.5297 17.3864C70.0207 17.5594 70.4614 17.8311 70.8518 18.2014C71.2422 18.5716 71.55 19.0526 71.7754 19.6442C72.0008 20.2318 72.1135 20.9462 72.1135 21.7873V22.4272H64.7424V21.0749H70.3447C70.3447 20.6 70.2481 20.1795 70.0549 19.8132C69.8617 19.443 69.5901 19.1512 69.2399 18.9379C68.8938 18.7246 68.4873 18.6179 68.0205 18.6179C67.5134 18.6179 67.0706 18.7427 66.6923 18.9922C66.318 19.2377 66.0283 19.5597 65.823 19.9581C65.6218 20.3525 65.5212 20.7812 65.5212 21.244V22.3004C65.5212 22.9202 65.6298 23.4475 65.8472 23.8821C66.0685 24.3168 66.3764 24.6488 66.7708 24.8782C67.1652 25.1036 67.626 25.2163 68.1533 25.2163C68.4954 25.2163 68.8073 25.168 69.089 25.0714C69.3707 24.9708 69.6142 24.8219 69.8195 24.6247C70.0247 24.4275 70.1817 24.184 70.2903 23.8942L71.9988 24.2021C71.862 24.7052 71.6165 25.1459 71.2623 25.5242C70.9121 25.8985 70.4714 26.1902 69.9402 26.3995C69.413 26.6048 68.8113 26.7074 68.1352 26.7074ZM84.4892 22.6747V17.2475H86.3003V26.5203H84.5254V24.9144H84.4288C84.2155 25.4095 83.8734 25.822 83.4026 26.152C82.9357 26.478 82.3541 26.641 81.6579 26.641C81.0622 26.641 80.535 26.5102 80.0762 26.2486C79.6214 25.983 79.2632 25.5906 79.0016 25.0714C78.7441 24.5522 78.6153 23.9103 78.6153 23.1456V17.2475H80.4203V22.9283C80.4203 23.5602 80.5954 24.0632 80.9455 24.4375C81.2957 24.8118 81.7504 24.999 82.3099 24.999C82.6479 24.999 82.984 24.9144 83.318 24.7454C83.6561 24.5764 83.9358 24.3208 84.1572 23.9787C84.3825 23.6366 84.4932 23.202 84.4892 22.6747ZM95.6741 19.5114L94.0381 19.8012C93.9697 19.5919 93.861 19.3927 93.7121 19.2035C93.5672 19.0143 93.37 18.8594 93.1205 18.7387C92.871 18.6179 92.5591 18.5575 92.1848 18.5575C91.6737 18.5575 91.247 18.6722 90.9049 18.9017C90.5629 19.127 90.3918 19.4188 90.3918 19.777C90.3918 20.0869 90.5065 20.3364 90.7359 20.5256C90.9653 20.7147 91.3356 20.8697 91.8467 20.9904L93.3197 21.3285C94.1729 21.5257 94.8088 21.8296 95.2274 22.2401C95.646 22.6506 95.8552 23.1838 95.8552 23.8399C95.8552 24.3953 95.6942 24.8903 95.3723 25.3249C95.0543 25.7556 94.6096 26.0936 94.0381 26.3392C93.4706 26.5847 92.8126 26.7074 92.064 26.7074C91.0257 26.7074 90.1785 26.486 89.5225 26.0433C88.8665 25.5966 88.464 24.9627 88.3151 24.1417L90.0598 23.8761C90.1684 24.3309 90.3918 24.675 90.7299 24.9084C91.0679 25.1378 91.5086 25.2525 92.052 25.2525C92.6436 25.2525 93.1165 25.1298 93.4706 24.8843C93.8248 24.6347 94.0019 24.3309 94.0019 23.9727C94.0019 23.6829 93.8932 23.4394 93.6759 23.2422C93.4626 23.045 93.1346 22.8961 92.6919 22.7955L91.1223 22.4514C90.257 22.2542 89.6171 21.9402 89.2025 21.5096C88.792 21.079 88.5868 20.5336 88.5868 19.8736C88.5868 19.3262 88.7397 18.8473 89.0456 18.4368C89.3514 18.0263 89.774 17.7063 90.3133 17.4769C90.8526 17.2435 91.4704 17.1268 92.1667 17.1268C93.1688 17.1268 93.9576 17.3441 94.5331 17.7788C95.1087 18.2094 95.489 18.787 95.6741 19.5114ZM106.245 26.7074C105.375 26.7074 104.617 26.5082 103.969 26.1097C103.321 25.7113 102.818 25.1539 102.46 24.4375C102.101 23.7211 101.922 22.884 101.922 21.9262C101.922 20.9643 102.101 20.1231 102.46 19.4027C102.818 18.6823 103.321 18.1229 103.969 17.7245C104.617 17.326 105.375 17.1268 106.245 17.1268C107.114 17.1268 107.873 17.326 108.521 17.7245C109.169 18.1229 109.672 18.6823 110.03 19.4027C110.388 20.1231 110.567 20.9643 110.567 21.9262C110.567 22.884 110.388 23.7211 110.03 24.4375C109.672 25.1539 109.169 25.7113 108.521 26.1097C107.873 26.5082 107.114 26.7074 106.245 26.7074ZM106.251 25.1921C106.814 25.1921 107.281 25.0432 107.651 24.7454C108.022 24.4476 108.295 24.0512 108.472 23.5561C108.654 23.0611 108.744 22.5158 108.744 21.9201C108.744 21.3285 108.654 20.7852 108.472 20.2901C108.295 19.7911 108.022 19.3906 107.651 19.0888C107.281 18.787 106.814 18.636 106.251 18.636C105.683 18.636 105.212 18.787 104.838 19.0888C104.468 19.3906 104.192 19.7911 104.011 20.2901C103.834 20.7852 103.745 21.3285 103.745 21.9201C103.745 22.5158 103.834 23.0611 104.011 23.5561C104.192 24.0512 104.468 24.4476 104.838 24.7454C105.212 25.0432 105.683 25.1921 106.251 25.1921ZM114.387 21.0146V26.5203H112.582V17.2475H114.315V18.7568H114.429C114.643 18.2658 114.977 17.8714 115.431 17.5735C115.89 17.2757 116.468 17.1268 117.164 17.1268C117.796 17.1268 118.349 17.2596 118.824 17.5252C119.299 17.7868 119.667 18.1772 119.929 18.6964C120.191 19.2156 120.321 19.8575 120.321 20.6222V26.5203H118.516V20.8395C118.516 20.1674 118.341 19.6422 117.991 19.2639C117.641 18.8815 117.16 18.6904 116.548 18.6904C116.13 18.6904 115.757 18.7809 115.431 18.962C115.11 19.1431 114.854 19.4088 114.665 19.7589C114.48 20.105 114.387 20.5236 114.387 21.0146Z" fill="#E8E8E8"/>
<path d="M135.057 18.1953C134.988 17.9418 134.888 17.7184 134.755 17.5252C134.622 17.328 134.459 17.161 134.266 17.0242C134.073 16.8873 133.851 16.7847 133.602 16.7163C133.352 16.6438 133.079 16.6076 132.781 16.6076C132.181 16.6076 131.662 16.7525 131.223 17.0423C130.789 17.3321 130.453 17.7546 130.215 18.31C129.978 18.8614 129.859 19.5315 129.859 20.3203C129.859 21.1132 129.974 21.7893 130.203 22.3487C130.432 22.9082 130.764 23.3348 131.199 23.6286C131.634 23.9224 132.161 24.0693 132.781 24.0693C133.328 24.0693 133.791 23.9807 134.169 23.8036C134.552 23.6225 134.841 23.367 135.039 23.0369C135.236 22.7069 135.334 22.3186 135.334 21.8718L135.89 21.9382H132.883V19.7589H138.214V21.3949C138.214 22.5017 137.979 23.4495 137.508 24.2383C137.041 25.0271 136.397 25.6328 135.576 26.0554C134.759 26.478 133.819 26.6893 132.757 26.6893C131.577 26.6893 130.541 26.4337 129.648 25.9226C128.754 25.4115 128.058 24.683 127.559 23.7372C127.06 22.7874 126.81 21.6605 126.81 20.3566C126.81 19.3423 126.961 18.4428 127.263 17.658C127.565 16.8692 127.985 16.2011 128.525 15.6538C129.068 15.1064 129.696 14.6919 130.408 14.4102C131.125 14.1285 131.895 13.9876 132.72 13.9876C133.437 13.9876 134.103 14.0902 134.719 14.2955C135.338 14.5007 135.886 14.7905 136.361 15.1648C136.84 15.5391 137.228 15.9838 137.526 16.499C137.824 17.0141 138.009 17.5796 138.081 18.1953H135.057ZM140.556 26.5203V17.2475H143.508V26.5203H140.556ZM142.035 16.1669C141.621 16.1669 141.265 16.0301 140.967 15.7564C140.669 15.4787 140.52 15.1447 140.52 14.7543C140.52 14.3679 140.669 14.0379 140.967 13.7642C141.265 13.4865 141.621 13.3477 142.035 13.3477C142.454 13.3477 142.81 13.4865 143.104 13.7642C143.402 14.0379 143.551 14.3679 143.551 14.7543C143.551 15.1447 143.402 15.4787 143.104 15.7564C142.81 16.0301 142.454 16.1669 142.035 16.1669ZM150.621 17.2475V19.4208H144.772V17.2475H150.621ZM145.997 15.0259H148.949V23.6044C148.949 23.7855 148.977 23.9324 149.034 24.0451C149.094 24.1538 149.181 24.2323 149.293 24.2806C149.406 24.3248 149.541 24.347 149.698 24.347C149.81 24.347 149.929 24.3369 150.054 24.3168C150.183 24.2926 150.279 24.2725 150.344 24.2564L150.79 26.3874C150.65 26.4277 150.45 26.478 150.193 26.5384C149.939 26.5987 149.635 26.637 149.281 26.6531C148.589 26.6853 147.995 26.6048 147.5 26.4116C147.009 26.2144 146.633 25.9085 146.371 25.494C146.114 25.0794 145.989 24.5583 145.997 23.9304V15.0259ZM152.327 26.5203V14.1566H155.315V24.0934H160.459V26.5203H152.327ZM164.62 26.6772C164.028 26.6772 163.503 26.5786 163.044 26.3814C162.589 26.1802 162.229 25.8783 161.963 25.4759C161.702 25.0694 161.571 24.5603 161.571 23.9485C161.571 23.4334 161.661 22.9987 161.843 22.6445C162.024 22.2904 162.273 22.0026 162.591 21.7813C162.909 21.5599 163.275 21.3929 163.69 21.2802C164.104 21.1635 164.547 21.085 165.018 21.0448C165.545 20.9965 165.97 20.9462 166.292 20.8938C166.614 20.8375 166.847 20.759 166.992 20.6584C167.141 20.5538 167.215 20.4069 167.215 20.2177V20.1875C167.215 19.8776 167.109 19.6382 166.895 19.4691C166.682 19.3001 166.394 19.2156 166.032 19.2156C165.642 19.2156 165.328 19.3001 165.09 19.4691C164.853 19.6382 164.702 19.8716 164.638 20.1694L161.915 20.0728C161.995 19.5094 162.203 19.0063 162.537 18.5636C162.875 18.1169 163.338 17.7667 163.925 17.5132C164.517 17.2556 165.227 17.1268 166.056 17.1268C166.648 17.1268 167.193 17.1972 167.692 17.3381C168.191 17.4749 168.626 17.6762 168.996 17.9418C169.367 18.2034 169.652 18.5254 169.854 18.9077C170.059 19.29 170.161 19.7267 170.161 20.2177V26.5203H167.384V25.2284H167.312C167.147 25.5423 166.936 25.8079 166.678 26.0252C166.425 26.2426 166.125 26.4056 165.779 26.5142C165.437 26.6229 165.05 26.6772 164.62 26.6772ZM165.531 24.7454C165.849 24.7454 166.135 24.681 166.388 24.5522C166.646 24.4234 166.851 24.2463 167.004 24.021C167.157 23.7916 167.234 23.5259 167.234 23.2241V22.3427C167.149 22.387 167.046 22.4272 166.926 22.4634C166.809 22.4997 166.68 22.5339 166.539 22.5661C166.398 22.5983 166.254 22.6264 166.105 22.6506C165.956 22.6747 165.813 22.6969 165.676 22.717C165.398 22.7613 165.161 22.8297 164.964 22.9222C164.77 23.0148 164.622 23.1356 164.517 23.2845C164.416 23.4294 164.366 23.6024 164.366 23.8036C164.366 24.1095 164.475 24.3429 164.692 24.5039C164.913 24.6649 165.193 24.7454 165.531 24.7454ZM171.966 26.5203V14.1566H174.919V18.8352H174.979C175.1 18.5535 175.271 18.2819 175.492 18.0203C175.717 17.7587 176.003 17.5454 176.349 17.3803C176.699 17.2113 177.118 17.1268 177.605 17.1268C178.249 17.1268 178.851 17.2958 179.41 17.6339C179.973 17.972 180.428 18.4932 180.774 19.1975C181.12 19.9018 181.294 20.7993 181.294 21.8899C181.294 22.9404 181.127 23.8197 180.792 24.5281C180.462 25.2364 180.016 25.7677 179.452 26.1218C178.893 26.476 178.271 26.6531 177.587 26.6531C177.12 26.6531 176.716 26.5766 176.373 26.4237C176.031 26.2707 175.744 26.0695 175.51 25.82C175.281 25.5704 175.104 25.3028 174.979 25.0171H174.888V26.5203H171.966ZM174.858 21.8839C174.858 22.3829 174.925 22.8176 175.057 23.1879C175.194 23.5581 175.389 23.8459 175.643 24.0512C175.901 24.2524 176.208 24.353 176.567 24.353C176.929 24.353 177.237 24.2524 177.49 24.0512C177.744 23.8459 177.935 23.5581 178.064 23.1879C178.197 22.8176 178.263 22.3829 178.263 21.8839C178.263 21.3848 178.197 20.9522 178.064 20.586C177.935 20.2197 177.744 19.936 177.49 19.7347C177.241 19.5335 176.933 19.4329 176.567 19.4329C176.204 19.4329 175.897 19.5315 175.643 19.7287C175.389 19.9259 175.194 20.2076 175.057 20.5739C174.925 20.9401 174.858 21.3768 174.858 21.8839Z" fill="url(#paint1_linear_28_2848)"/>
</g>
<rect x="1.07729" y="1.09102" width="187.858" height="37.8585" rx="6.92857" stroke="white" stroke-opacity="0.15" stroke-width="2.14286"/>
<defs>
<filter id="filter0_d_28_2848" x="2.40558" y="0.419312" width="39.202" height="39.202" filterUnits="userSpaceOnUse" color-interpolation-filters="sRGB">
<feFlood flood-opacity="0" result="BackgroundImageFix"/>
<feColorMatrix in="SourceAlpha" type="matrix" values="0 0 0 0 0 0 0 0 0 0 0 0 0 0 0 0 0 0 127 0" result="hardAlpha"/>
<feOffset/>
<feGaussianBlur stdDeviation="2.80014"/>
<feComposite in2="hardAlpha" operator="out"/>
<feColorMatrix type="matrix" values="0 0 0 0 0 0 0 0 0 0 0 0 0 0 0 0 0 0 0.25 0"/>
<feBlend mode="normal" in2="BackgroundImageFix" result="effect1_dropShadow_28_2848"/>
<feBlend mode="normal" in="SourceGraphic" in2="effect1_dropShadow_28_2848" result="shape"/>
</filter>
<filter id="filter1_d_28_2848" x="36.293" y="3.80598" width="151.429" height="32.4286" filterUnits="userSpaceOnUse" color-interpolation-filters="sRGB">
<feFlood flood-opacity="0" result="BackgroundImageFix"/>
<feColorMatrix in="SourceAlpha" type="matrix" values="0 0 0 0 0 0 0 0 0 0 0 0 0 0 0 0 0 0 127 0" result="hardAlpha"/>
<feOffset/>
<feGaussianBlur stdDeviation="2.85714"/>
<feComposite in2="hardAlpha" operator="out"/>
<feColorMatrix type="matrix" values="0 0 0 0 0 0 0 0 0 0 0 0 0 0 0 0 0 0 0.25 0"/>
<feBlend mode="normal" in2="BackgroundImageFix" result="effect1_dropShadow_28_2848"/>
<feBlend mode="normal" in="SourceGraphic" in2="effect1_dropShadow_28_2848" result="shape"/>
</filter>
<linearGradient id="paint0_linear_28_2848" x1="95.0065" y1="0.0195923" x2="95.0065" y2="40.021" gradientUnits="userSpaceOnUse">
<stop stop-color="#2E0E09"/>
<stop offset="1" stop-color="#1F1506"/>
</linearGradient>
<linearGradient id="paint1_linear_28_2848" x1="154.007" y1="9.52026" x2="154.007" y2="30.5203" gradientUnits="userSpaceOnUse">
<stop stop-color="#E06955"/>
<stop offset="1" stop-color="#F5B253"/>
</linearGradient>
</defs>
</svg>
