<svg width="171" height="28" viewBox="0 0 171 28" fill="none" xmlns="http://www.w3.org/2000/svg">
<rect x="0.499268" y="-3.05176e-05" width="170.5" height="28" rx="6" fill="url(#paint0_linear_28_2822)"/>
<g filter="url(#filter0_d_28_2822)">
<path d="M11.3123 9.86253C11.3123 9.86253 11.3278 12.0894 12.4588 14.3925C13.6207 16.6094 15.2228 18.0334 16.5444 18.6007C17.9101 17.9553 19.2292 16.8351 19.9492 15.628H16.2003C15.2302 14.8153 14.4669 13.4669 14.2918 11.9084H25.2897C24.7474 14.4142 23.5966 16.6931 22.5003 18.1444C20.9786 20.1567 18.9152 21.6924 16.5525 22.5714H16.5178C12.5733 20.9825 10.4512 18.4798 9.05094 15.6559C8.15271 13.8463 7.21362 10.5606 7.21362 6.14285H25.785C25.788 7.38698 25.7052 8.62983 25.5373 9.86253H11.3123Z" fill="#F5C400"/>
</g>
<g filter="url(#filter1_d_28_2822)">
<path d="M40.0227 13.1015H38.804C38.7571 12.8411 38.6698 12.6119 38.5422 12.414C38.4146 12.2161 38.2584 12.0481 38.0735 11.9101C37.8886 11.7721 37.6816 11.6679 37.4524 11.5976C37.2258 11.5273 36.9849 11.4922 36.7297 11.4922C36.2688 11.4922 35.856 11.608 35.4915 11.8398C35.1295 12.0716 34.843 12.4114 34.6321 12.8593C34.4237 13.3073 34.3196 13.8541 34.3196 14.5C34.3196 15.151 34.4237 15.7005 34.6321 16.1484C34.843 16.5963 35.1308 16.9349 35.4954 17.164C35.8599 17.3932 36.2701 17.5078 36.7258 17.5078C36.9784 17.5078 37.218 17.4739 37.4446 17.4062C37.6737 17.3359 37.8808 17.233 38.0657 17.0976C38.2506 16.9622 38.4068 16.7968 38.5344 16.6015C38.6646 16.4036 38.7545 16.1771 38.804 15.9218L40.0227 15.9257C39.9576 16.319 39.8313 16.681 39.6438 17.0117C39.4589 17.3398 39.2206 17.6237 38.929 17.8632C38.6399 18.1002 38.3092 18.2838 37.9368 18.414C37.5644 18.5442 37.1581 18.6093 36.718 18.6093C36.0253 18.6093 35.4081 18.4453 34.8665 18.1172C34.3248 17.7864 33.8977 17.3138 33.5852 16.6992C33.2753 16.0846 33.1204 15.3515 33.1204 14.5C33.1204 13.6458 33.2766 12.9127 33.5891 12.3007C33.9016 11.6862 34.3287 11.2148 34.8704 10.8867C35.412 10.556 36.0279 10.3906 36.718 10.3906C37.1425 10.3906 37.5383 10.4518 37.9055 10.5742C38.2753 10.694 38.6073 10.8711 38.9016 11.1054C39.1959 11.3372 39.4394 11.6211 39.6321 11.957C39.8248 12.2903 39.955 12.6718 40.0227 13.1015ZM42.5413 14.9375V18.5H41.3733V10.5H42.5256V13.4765H42.5999C42.7405 13.1536 42.9553 12.8971 43.2444 12.707C43.5334 12.5169 43.911 12.4218 44.3772 12.4218C44.7887 12.4218 45.148 12.5065 45.4553 12.6757C45.7652 12.845 46.0048 13.0976 46.1741 13.4336C46.3459 13.7669 46.4319 14.1836 46.4319 14.6836V18.5H45.2639V14.8242C45.2639 14.3841 45.1506 14.0429 44.9241 13.8007C44.6975 13.556 44.3824 13.4336 43.9788 13.4336C43.7027 13.4336 43.4553 13.4922 43.2366 13.6093C43.0204 13.7265 42.8499 13.8984 42.7249 14.125C42.6025 14.3489 42.5413 14.6198 42.5413 14.9375ZM49.7366 18.6328C49.3564 18.6328 49.0126 18.5625 48.7053 18.4218C48.398 18.2786 48.1545 18.0716 47.9748 17.8007C47.7978 17.5299 47.7092 17.1979 47.7092 16.8047C47.7092 16.4661 47.7743 16.1875 47.9045 15.9687C48.0347 15.75 48.2105 15.5768 48.4319 15.4492C48.6532 15.3216 48.9006 15.2252 49.1741 15.1601C49.4475 15.095 49.7262 15.0455 50.01 15.0117C50.3694 14.97 50.661 14.9362 50.885 14.9101C51.109 14.8815 51.2717 14.8359 51.3733 14.7734C51.4748 14.7109 51.5256 14.6093 51.5256 14.4687V14.4414C51.5256 14.1002 51.4293 13.8359 51.2366 13.6484C51.0465 13.4609 50.7626 13.3672 50.385 13.3672C49.9918 13.3672 49.6819 13.4544 49.4553 13.6289C49.2314 13.8007 49.0764 13.9922 48.9905 14.2031L47.8928 13.9531C48.023 13.5885 48.2131 13.2942 48.4631 13.0703C48.7157 12.8437 49.0061 12.6797 49.3342 12.5781C49.6623 12.4739 50.0074 12.4218 50.3694 12.4218C50.609 12.4218 50.8629 12.4505 51.1311 12.5078C51.4019 12.5625 51.6545 12.664 51.8889 12.8125C52.1259 12.9609 52.3199 13.1731 52.4709 13.4492C52.622 13.7226 52.6975 14.0781 52.6975 14.5156V18.5H51.5569V17.6797H51.51C51.4345 17.8307 51.3212 17.9791 51.1702 18.125C51.0191 18.2708 50.8251 18.3919 50.5881 18.4882C50.3512 18.5846 50.0673 18.6328 49.7366 18.6328ZM49.9905 17.6953C50.3134 17.6953 50.5894 17.6315 50.8186 17.5039C51.0504 17.3763 51.2262 17.2096 51.3459 17.0039C51.4683 16.7955 51.5295 16.5729 51.5295 16.3359V15.5625C51.4879 15.6041 51.4071 15.6432 51.2873 15.6797C51.1702 15.7135 51.036 15.7435 50.885 15.7695C50.734 15.7929 50.5868 15.8151 50.4436 15.8359C50.3004 15.8541 50.1806 15.8698 50.0842 15.8828C49.8577 15.9114 49.6506 15.9596 49.4631 16.0273C49.2782 16.095 49.1298 16.1927 49.0178 16.3203C48.9084 16.4453 48.8538 16.6119 48.8538 16.8203C48.8538 17.1093 48.9605 17.3281 49.1741 17.4765C49.3876 17.6224 49.6597 17.6953 49.9905 17.6953ZM57.0539 12.5V13.4375H53.7766V12.5H57.0539ZM54.6555 11.0625H55.8235V16.7382C55.8235 16.9648 55.8573 17.1354 55.925 17.25C55.9928 17.3619 56.08 17.4388 56.1868 17.4804C56.2961 17.5195 56.4146 17.539 56.5422 17.539C56.636 17.539 56.718 17.5325 56.7883 17.5195C56.8586 17.5065 56.9133 17.4961 56.9524 17.4882L57.1633 18.4531C57.0956 18.4791 56.9993 18.5052 56.8743 18.5312C56.7493 18.5599 56.593 18.5755 56.4055 18.5781C56.0982 18.5833 55.8118 18.5286 55.5461 18.414C55.2805 18.2994 55.0657 18.1224 54.9016 17.8828C54.7375 17.6432 54.6555 17.3424 54.6555 16.9804V11.0625ZM62.5579 18.5L60.7922 12.5H61.9993L63.175 16.9062H63.2336L64.4133 12.5H65.6204L66.7922 16.8867H66.8508L68.0188 12.5H69.2258L67.4641 18.5H66.2727L65.0539 14.1679H64.9641L63.7454 18.5H62.5579ZM70.3342 18.5V12.5H71.5022V18.5H70.3342ZM70.9241 11.5742C70.7209 11.5742 70.5465 11.5065 70.4006 11.3711C70.2574 11.233 70.1858 11.069 70.1858 10.8789C70.1858 10.6862 70.2574 10.5221 70.4006 10.3867C70.5465 10.2487 70.7209 10.1797 70.9241 10.1797C71.1272 10.1797 71.3004 10.2487 71.4436 10.3867C71.5894 10.5221 71.6623 10.6862 71.6623 10.8789C71.6623 11.069 71.5894 11.233 71.4436 11.3711C71.3004 11.5065 71.1272 11.5742 70.9241 11.5742ZM75.8743 12.5V13.4375H72.5969V12.5H75.8743ZM73.4758 11.0625H74.6438V16.7382C74.6438 16.9648 74.6776 17.1354 74.7453 17.25C74.8131 17.3619 74.9003 17.4388 75.0071 17.4804C75.1164 17.5195 75.2349 17.539 75.3625 17.539C75.4563 17.539 75.5383 17.5325 75.6086 17.5195C75.6789 17.5065 75.7336 17.4961 75.7727 17.4882L75.9836 18.4531C75.9159 18.4791 75.8196 18.5052 75.6946 18.5312C75.5696 18.5599 75.4133 18.5755 75.2258 18.5781C74.9185 18.5833 74.6321 18.5286 74.3664 18.414C74.1008 18.2994 73.886 18.1224 73.7219 17.8828C73.5578 17.6432 73.4758 17.3424 73.4758 16.9804V11.0625ZM78.4631 14.9375V18.5H77.2952V10.5H78.4475V13.4765H78.5217C78.6623 13.1536 78.8772 12.8971 79.1662 12.707C79.4553 12.5169 79.8329 12.4218 80.2991 12.4218C80.7105 12.4218 81.0699 12.5065 81.3772 12.6757C81.6871 12.845 81.9267 13.0976 82.0959 13.4336C82.2678 13.7669 82.3537 14.1836 82.3537 14.6836V18.5H81.1858V14.8242C81.1858 14.3841 81.0725 14.0429 80.8459 13.8007C80.6194 13.556 80.3043 13.4336 79.9006 13.4336C79.6246 13.4336 79.3772 13.4922 79.1584 13.6093C78.9423 13.7265 78.7717 13.8984 78.6467 14.125C78.5243 14.3489 78.4631 14.6198 78.4631 14.9375ZM90.6243 16.0117V12.5H91.7961V18.5H90.6477V17.4609H90.5852C90.4472 17.7812 90.2258 18.0481 89.9211 18.2617C89.619 18.4726 89.2427 18.5781 88.7922 18.5781C88.4068 18.5781 88.0657 18.4935 87.7688 18.3242C87.4745 18.1523 87.2427 17.8984 87.0735 17.5625C86.9068 17.2265 86.8235 16.8112 86.8235 16.3164V12.5H87.9914V16.1757C87.9914 16.5846 88.1047 16.9101 88.3313 17.1523C88.5578 17.3945 88.8521 17.5156 89.2141 17.5156C89.4328 17.5156 89.6503 17.4609 89.8664 17.3515C90.0852 17.2422 90.2662 17.0768 90.4094 16.8554C90.5552 16.6341 90.6269 16.3528 90.6243 16.0117ZM97.8616 13.9648L96.803 14.1523C96.7587 14.0169 96.6884 13.888 96.592 13.7656C96.4983 13.6432 96.3707 13.5429 96.2092 13.4648C96.0478 13.3867 95.8459 13.3476 95.6037 13.3476C95.273 13.3476 94.997 13.4218 94.7756 13.5703C94.5543 13.7161 94.4436 13.9049 94.4436 14.1367C94.4436 14.3372 94.5178 14.4987 94.6662 14.6211C94.8147 14.7435 95.0543 14.8437 95.385 14.9218L96.3381 15.1406C96.8902 15.2682 97.3017 15.4648 97.5725 15.7304C97.8433 15.9961 97.9787 16.3411 97.9787 16.7656C97.9787 17.125 97.8746 17.4453 97.6662 17.7265C97.4605 18.0052 97.1728 18.2239 96.803 18.3828C96.4358 18.5416 96.01 18.6211 95.5256 18.6211C94.8537 18.6211 94.3056 18.4778 93.8811 18.1914C93.4566 17.9023 93.1962 17.4922 93.0998 16.9609L94.2287 16.789C94.2991 17.0833 94.4436 17.306 94.6623 17.457C94.8811 17.6054 95.1662 17.6797 95.5178 17.6797C95.9006 17.6797 96.2066 17.6002 96.4358 17.4414C96.6649 17.2799 96.7795 17.0833 96.7795 16.8515C96.7795 16.664 96.7092 16.5065 96.5686 16.3789C96.4306 16.2513 96.2183 16.1549 95.9319 16.0898L94.9162 15.8672C94.3563 15.7396 93.9423 15.5364 93.6741 15.2578C93.4084 14.9791 93.2756 14.6263 93.2756 14.1992C93.2756 13.845 93.3746 13.5351 93.5725 13.2695C93.7704 13.0039 94.0438 12.7968 94.3928 12.6484C94.7418 12.4974 95.1415 12.4218 95.592 12.4218C96.2405 12.4218 96.7509 12.5625 97.1233 12.8437C97.4957 13.1224 97.7418 13.4961 97.8616 13.9648ZM104.701 18.6211C104.139 18.6211 103.648 18.4922 103.229 18.2343C102.809 17.9765 102.484 17.6159 102.252 17.1523C102.02 16.6888 101.905 16.1471 101.905 15.5273C101.905 14.9049 102.02 14.3606 102.252 13.8945C102.484 13.4284 102.809 13.0664 103.229 12.8086C103.648 12.5507 104.139 12.4218 104.701 12.4218C105.264 12.4218 105.755 12.5507 106.174 12.8086C106.593 13.0664 106.919 13.4284 107.151 13.8945C107.382 14.3606 107.498 14.9049 107.498 15.5273C107.498 16.1471 107.382 16.6888 107.151 17.1523C106.919 17.6159 106.593 17.9765 106.174 18.2343C105.755 18.4922 105.264 18.6211 104.701 18.6211ZM104.705 17.6406C105.07 17.6406 105.372 17.5442 105.612 17.3515C105.851 17.1588 106.028 16.9023 106.143 16.582C106.26 16.2617 106.319 15.9088 106.319 15.5234C106.319 15.1406 106.26 14.789 106.143 14.4687C106.028 14.1458 105.851 13.8867 105.612 13.6914C105.372 13.4961 105.07 13.3984 104.705 13.3984C104.338 13.3984 104.033 13.4961 103.791 13.6914C103.552 13.8867 103.373 14.1458 103.256 14.4687C103.141 14.789 103.084 15.1406 103.084 15.5234C103.084 15.9088 103.141 16.2617 103.256 16.582C103.373 16.9023 103.552 17.1588 103.791 17.3515C104.033 17.5442 104.338 17.6406 104.705 17.6406ZM109.97 14.9375V18.5H108.802V12.5H109.923V13.4765H109.997C110.135 13.1588 110.351 12.9036 110.646 12.7109C110.943 12.5182 111.316 12.4218 111.767 12.4218C112.176 12.4218 112.534 12.5078 112.841 12.6797C113.148 12.8489 113.387 13.1015 113.556 13.4375C113.725 13.7734 113.81 14.1888 113.81 14.6836V18.5H112.642V14.8242C112.642 14.3893 112.529 14.0494 112.302 13.8047C112.075 13.5573 111.764 13.4336 111.368 13.4336C111.098 13.4336 110.857 13.4922 110.646 13.6093C110.437 13.7265 110.272 13.8984 110.15 14.125C110.03 14.3489 109.97 14.6198 109.97 14.9375Z" fill="#E8E8E8"/>
<path d="M124.387 12.6235C124.339 12.4446 124.268 12.2869 124.174 12.1505C124.08 12.0113 123.965 11.8934 123.829 11.7968C123.692 11.7003 123.536 11.6278 123.36 11.5795C123.184 11.5284 122.991 11.5028 122.781 11.5028C122.357 11.5028 121.991 11.6051 121.681 11.8096C121.374 12.0142 121.137 12.3125 120.969 12.7045C120.802 13.0937 120.718 13.5667 120.718 14.1235C120.718 14.6832 120.799 15.1605 120.961 15.5554C121.123 15.9503 121.357 16.2514 121.664 16.4588C121.971 16.6662 122.343 16.7699 122.781 16.7699C123.167 16.7699 123.494 16.7074 123.761 16.5824C124.031 16.4545 124.235 16.2741 124.374 16.0412C124.513 15.8082 124.583 15.5341 124.583 15.2187L124.975 15.2656H122.853V13.7272H126.616V14.8821C126.616 15.6633 126.45 16.3324 126.117 16.8892C125.788 17.446 125.333 17.8735 124.754 18.1718C124.177 18.4701 123.513 18.6193 122.763 18.6193C121.931 18.6193 121.2 18.4389 120.569 18.0781C119.938 17.7173 119.447 17.2031 119.094 16.5355C118.742 15.865 118.566 15.0696 118.566 14.1491C118.566 13.4332 118.673 12.7983 118.886 12.2443C119.099 11.6875 119.396 11.2159 119.776 10.8295C120.16 10.4432 120.603 10.1505 121.106 9.95167C121.611 9.75281 122.156 9.65338 122.738 9.65338C123.244 9.65338 123.714 9.72582 124.148 9.87071C124.586 10.0156 124.972 10.2201 125.308 10.4843C125.646 10.7485 125.92 11.0625 126.13 11.4261C126.34 11.7897 126.471 12.1889 126.522 12.6235H124.387ZM132.082 15.6747V11.9545H134.162V18.5H132.176V17.2812H132.108C131.963 17.6818 131.716 18 131.366 18.2358C131.02 18.4687 130.6 18.5852 130.109 18.5852C129.663 18.5852 129.271 18.4829 128.933 18.2784C128.595 18.0738 128.332 17.7883 128.145 17.4218C127.957 17.0525 127.862 16.6207 127.859 16.1264V11.9545H129.943V15.7173C129.946 16.0724 130.039 16.3522 130.224 16.5568C130.409 16.7613 130.66 16.8636 130.978 16.8636C131.186 16.8636 131.372 16.8181 131.537 16.7272C131.704 16.6335 131.836 16.4985 131.933 16.3224C132.032 16.1434 132.082 15.9275 132.082 15.6747ZM135.488 18.5V11.9545H137.572V18.5H135.488ZM136.532 11.1917C136.239 11.1917 135.988 11.0951 135.778 10.902C135.567 10.7059 135.462 10.4701 135.462 10.1946C135.462 9.92184 135.567 9.68889 135.778 9.49571C135.988 9.29968 136.239 9.20167 136.532 9.20167C136.827 9.20167 137.079 9.29968 137.286 9.49571C137.496 9.68889 137.602 9.92184 137.602 10.1946C137.602 10.4701 137.496 10.7059 137.286 10.902C137.079 11.0951 136.827 11.1917 136.532 11.1917ZM140.982 9.7727V18.5H138.898V9.7727H140.982ZM144.699 18.5937C144.216 18.5937 143.777 18.4687 143.382 18.2187C142.987 17.9687 142.672 17.5937 142.436 17.0937C142.2 16.5937 142.082 15.973 142.082 15.2315C142.082 14.4616 142.205 13.8281 142.449 13.3309C142.693 12.8338 143.013 12.4659 143.408 12.2272C143.805 11.9886 144.233 11.8693 144.69 11.8693C145.034 11.8693 145.328 11.9289 145.572 12.0483C145.817 12.1647 146.018 12.3153 146.178 12.5C146.337 12.6846 146.457 12.8764 146.54 13.0753H146.582V9.7727H148.666V18.5H146.604V17.4389H146.54C146.452 17.6406 146.327 17.8295 146.165 18.0056C146.003 18.1818 145.8 18.3238 145.555 18.4318C145.314 18.5397 145.028 18.5937 144.699 18.5937ZM145.423 16.9701C145.676 16.9701 145.892 16.8991 146.071 16.7571C146.25 16.6122 146.388 16.4091 146.484 16.1477C146.581 15.8863 146.629 15.5795 146.629 15.2272C146.629 14.8693 146.581 14.561 146.484 14.3025C146.391 14.044 146.253 13.8451 146.071 13.7059C145.892 13.5667 145.676 13.4971 145.423 13.4971C145.165 13.4971 144.946 13.5681 144.767 13.7102C144.588 13.8522 144.452 14.0525 144.358 14.311C144.267 14.5696 144.222 14.875 144.222 15.2272C144.222 15.5795 144.268 15.8863 144.362 16.1477C144.456 16.4091 144.591 16.6122 144.767 16.7571C144.946 16.8991 145.165 16.9701 145.423 16.9701ZM153.044 18.6235C152.359 18.6235 151.768 18.4886 151.271 18.2187C150.777 17.946 150.396 17.5582 150.129 17.0554C149.865 16.5497 149.733 15.9488 149.733 15.2528C149.733 14.5767 149.866 13.9858 150.133 13.4801C150.4 12.9716 150.777 12.5767 151.262 12.2954C151.748 12.0113 152.321 11.8693 152.98 11.8693C153.446 11.8693 153.872 11.9417 154.258 12.0866C154.644 12.2315 154.978 12.446 155.26 12.7301C155.541 13.0142 155.76 13.365 155.916 13.7826C156.072 14.1974 156.15 14.6733 156.15 15.2102V15.7301H150.461V14.5199H154.211C154.208 14.2983 154.156 14.1008 154.054 13.9275C153.951 13.7542 153.811 13.6193 153.632 13.5227C153.456 13.4233 153.252 13.3735 153.022 13.3735C152.789 13.3735 152.581 13.4261 152.396 13.5312C152.211 13.6335 152.065 13.7741 151.957 13.9531C151.849 14.1292 151.792 14.3295 151.787 14.5539V15.7855C151.787 16.0525 151.839 16.2869 151.944 16.4886C152.049 16.6875 152.198 16.8423 152.392 16.9531C152.585 17.0639 152.815 17.1193 153.082 17.1193C153.267 17.1193 153.434 17.0937 153.585 17.0426C153.735 16.9914 153.865 16.9162 153.973 16.8167C154.081 16.7173 154.162 16.5951 154.216 16.4503L156.129 16.5056C156.049 16.9346 155.875 17.3082 155.605 17.6264C155.338 17.9417 154.987 18.1875 154.552 18.3636C154.118 18.5369 153.615 18.6235 153.044 18.6235ZM159.605 18.5937C159.122 18.5937 158.683 18.4687 158.288 18.2187C157.893 17.9687 157.578 17.5937 157.342 17.0937C157.107 16.5937 156.989 15.973 156.989 15.2315C156.989 14.4616 157.111 13.8281 157.355 13.3309C157.599 12.8338 157.919 12.4659 158.314 12.2272C158.712 11.9886 159.139 11.8693 159.597 11.8693C159.94 11.8693 160.234 11.9289 160.479 12.0483C160.723 12.1647 160.925 12.3153 161.084 12.5C161.243 12.6846 161.364 12.8764 161.446 13.0753H161.489V9.7727H163.572V18.5H161.51V17.4389H161.446C161.358 17.6406 161.233 17.8295 161.071 18.0056C160.909 18.1818 160.706 18.3238 160.462 18.4318C160.22 18.5397 159.935 18.5937 159.605 18.5937ZM160.33 16.9701C160.582 16.9701 160.798 16.8991 160.977 16.7571C161.156 16.6122 161.294 16.4091 161.391 16.1477C161.487 15.8863 161.535 15.5795 161.535 15.2272C161.535 14.8693 161.487 14.561 161.391 14.3025C161.297 14.044 161.159 13.8451 160.977 13.7059C160.798 13.5667 160.582 13.4971 160.33 13.4971C160.071 13.4971 159.852 13.5681 159.673 13.7102C159.494 13.8522 159.358 14.0525 159.264 14.311C159.173 14.5696 159.128 14.875 159.128 15.2272C159.128 15.5795 159.175 15.8863 159.268 16.1477C159.362 16.4091 159.497 16.6122 159.673 16.7571C159.852 16.8991 160.071 16.9701 160.33 16.9701Z" fill="#F5C400"/>
</g>
<rect x="1.24927" y="0.749969" width="169" height="26.5" rx="5.25" stroke="white" stroke-opacity="0.15" stroke-width="1.5"/>
<defs>
<filter id="filter0_d_28_2822" x="2.49927" y="-3.05176e-05" width="28" height="28" filterUnits="userSpaceOnUse" color-interpolation-filters="sRGB">
<feFlood flood-opacity="0" result="BackgroundImageFix"/>
<feColorMatrix in="SourceAlpha" type="matrix" values="0 0 0 0 0 0 0 0 0 0 0 0 0 0 0 0 0 0 127 0" result="hardAlpha"/>
<feOffset/>
<feGaussianBlur stdDeviation="2"/>
<feComposite in2="hardAlpha" operator="out"/>
<feColorMatrix type="matrix" values="0 0 0 0 0 0 0 0 0 0 0 0 0 0 0 0 0 0 0.25 0"/>
<feBlend mode="normal" in2="BackgroundImageFix" result="effect1_dropShadow_28_2822"/>
<feBlend mode="normal" in="SourceGraphic" in2="effect1_dropShadow_28_2822" result="shape"/>
</filter>
<filter id="filter1_d_28_2822" x="28.4993" y="3.49997" width="140.5" height="21" filterUnits="userSpaceOnUse" color-interpolation-filters="sRGB">
<feFlood flood-opacity="0" result="BackgroundImageFix"/>
<feColorMatrix in="SourceAlpha" type="matrix" values="0 0 0 0 0 0 0 0 0 0 0 0 0 0 0 0 0 0 127 0" result="hardAlpha"/>
<feOffset/>
<feGaussianBlur stdDeviation="2"/>
<feComposite in2="hardAlpha" operator="out"/>
<feColorMatrix type="matrix" values="0 0 0 0 0 0 0 0 0 0 0 0 0 0 0 0 0 0 0.25 0"/>
<feBlend mode="normal" in2="BackgroundImageFix" result="effect1_dropShadow_28_2822"/>
<feBlend mode="normal" in="SourceGraphic" in2="effect1_dropShadow_28_2822" result="shape"/>
</filter>
<linearGradient id="paint0_linear_28_2822" x1="85.7492" y1="-3.05176e-05" x2="85.7492" y2="28" gradientUnits="userSpaceOnUse">
<stop stop-color="#322C16"/>
<stop offset="1" stop-color="#231F0F"/>
</linearGradient>
</defs>
</svg>
