<svg width="184" height="28" viewBox="0 0 184 28" fill="none" xmlns="http://www.w3.org/2000/svg">
<g clip-path="url(#clip0_28_2892)">
<rect x="0.499268" y="-6.10352e-05" width="183.5" height="28" rx="6" fill="url(#paint0_linear_28_2892)"/>
<g filter="url(#filter0_d_28_2892)">
<path d="M25.7101 8.4278C25.4241 6.2789 23.5709 4.5854 21.3741 4.25725C21.0035 4.2018 19.5992 4 16.3463 4H16.322C13.0682 4 12.3701 4.2018 11.9995 4.25725C9.86383 4.57631 7.91351 6.098 7.44032 8.27235C7.21273 9.34319 7.18844 10.5304 7.23072 11.6194C7.29099 13.181 7.30268 14.74 7.44302 16.2953C7.54004 17.3285 7.70929 18.3533 7.94949 19.3623C8.39929 21.2258 10.2201 22.7766 12.0039 23.4093C13.9139 24.0691 15.9678 24.1786 17.9359 23.7256C18.1524 23.6747 18.3662 23.6156 18.5773 23.5484C19.0559 23.3947 19.6163 23.2229 20.0283 22.9211C20.034 22.9169 20.0386 22.9114 20.0419 22.9051C20.0451 22.8988 20.047 22.8919 20.0472 22.8848V21.3776C20.0471 21.371 20.0455 21.3645 20.0426 21.3585C20.0397 21.3526 20.0355 21.3473 20.0303 21.3432C20.0251 21.3391 20.0191 21.3363 20.0127 21.3348C20.0063 21.3334 19.9996 21.3334 19.9932 21.3349C18.7323 21.6392 17.4403 21.7918 16.1439 21.7894C13.9129 21.7894 13.3129 20.7195 13.141 20.2741C13.0029 19.8891 12.9152 19.4876 12.8802 19.0796C12.8798 19.0728 12.881 19.0659 12.8838 19.0597C12.8865 19.0534 12.8907 19.0479 12.896 19.0435C12.9012 19.0392 12.9074 19.0362 12.9141 19.0347C12.9207 19.0332 12.9276 19.0334 12.9341 19.0351C14.174 19.3374 15.445 19.4899 16.7205 19.4896C17.0273 19.4896 17.3331 19.4896 17.6399 19.4814C18.9227 19.4451 20.2748 19.3787 21.5369 19.1296C21.5684 19.1233 21.5999 19.1178 21.6269 19.1096C23.6177 18.7233 25.5122 17.5107 25.7047 14.44C25.7119 14.3191 25.7299 13.1738 25.7299 13.0483C25.7308 12.622 25.8658 10.024 25.7101 8.4278Z" fill="url(#paint1_linear_28_2892)"/>
<path d="M22.5562 10.8421V16.1808H20.4629V10.9994C20.4629 9.90855 20.0131 9.35222 19.0982 9.35222C18.0924 9.35222 17.5887 10.0103 17.5887 11.3102V14.1464H15.5079V11.3102C15.5079 10.0103 15.0033 9.35222 13.9975 9.35222C13.088 9.35222 12.6337 9.90855 12.6337 10.9994V16.1808H10.5413V10.8421C10.5413 9.75129 10.8168 8.8847 11.368 8.24232C11.9365 7.60146 12.6823 7.2724 13.608 7.2724C14.6794 7.2724 15.489 7.68873 16.0288 8.52048L16.5496 9.40405L17.0714 8.52048C17.6112 7.68873 18.4208 7.2724 19.4904 7.2724C20.4152 7.2724 21.1609 7.60146 21.7313 8.24232C22.2818 8.8841 22.5568 9.75068 22.5562 10.8421Z" fill="white"/>
</g>
<g filter="url(#filter1_d_28_2892)">
<path d="M40.0227 13.1015H38.804C38.7571 12.8411 38.6698 12.6119 38.5422 12.414C38.4146 12.2161 38.2584 12.0481 38.0735 11.9101C37.8886 11.7721 37.6816 11.6679 37.4524 11.5976C37.2258 11.5273 36.9849 11.4921 36.7297 11.4921C36.2688 11.4921 35.856 11.608 35.4915 11.8398C35.1295 12.0716 34.843 12.4114 34.6321 12.8593C34.4237 13.3072 34.3196 13.8541 34.3196 14.4999C34.3196 15.151 34.4237 15.7005 34.6321 16.1484C34.843 16.5963 35.1308 16.9348 35.4954 17.164C35.8599 17.3932 36.2701 17.5077 36.7258 17.5077C36.9784 17.5077 37.218 17.4739 37.4446 17.4062C37.6737 17.3359 37.8808 17.233 38.0657 17.0976C38.2506 16.9622 38.4068 16.7968 38.5344 16.6015C38.6646 16.4036 38.7545 16.177 38.804 15.9218L40.0227 15.9257C39.9576 16.3189 39.8313 16.6809 39.6438 17.0117C39.4589 17.3398 39.2206 17.6236 38.929 17.8632C38.6399 18.1002 38.3092 18.2838 37.9368 18.414C37.5644 18.5442 37.1581 18.6093 36.718 18.6093C36.0253 18.6093 35.4081 18.4452 34.8665 18.1171C34.3248 17.7864 33.8977 17.3137 33.5852 16.6992C33.2753 16.0846 33.1204 15.3515 33.1204 14.4999C33.1204 13.6458 33.2766 12.9127 33.5891 12.3007C33.9016 11.6861 34.3287 11.2148 34.8704 10.8867C35.412 10.5559 36.0279 10.3906 36.718 10.3906C37.1425 10.3906 37.5383 10.4518 37.9055 10.5742C38.2753 10.6939 38.6073 10.871 38.9016 11.1054C39.1959 11.3372 39.4394 11.621 39.6321 11.957C39.8248 12.2903 39.955 12.6718 40.0227 13.1015ZM42.5413 14.9374V18.4999H41.3733V10.4999H42.5256V13.4765H42.5999C42.7405 13.1536 42.9553 12.8971 43.2444 12.707C43.5334 12.5169 43.911 12.4218 44.3772 12.4218C44.7887 12.4218 45.148 12.5064 45.4553 12.6757C45.7652 12.845 46.0048 13.0976 46.1741 13.4335C46.3459 13.7669 46.4319 14.1835 46.4319 14.6835V18.4999H45.2639V14.8242C45.2639 14.3841 45.1506 14.0429 44.9241 13.8007C44.6975 13.5559 44.3824 13.4335 43.9788 13.4335C43.7027 13.4335 43.4553 13.4921 43.2366 13.6093C43.0204 13.7265 42.8499 13.8984 42.7249 14.1249C42.6025 14.3489 42.5413 14.6197 42.5413 14.9374ZM49.7366 18.6327C49.3564 18.6327 49.0126 18.5624 48.7053 18.4218C48.398 18.2786 48.1545 18.0716 47.9748 17.8007C47.7978 17.5299 47.7092 17.1979 47.7092 16.8046C47.7092 16.4661 47.7743 16.1874 47.9045 15.9687C48.0347 15.7499 48.2105 15.5768 48.4319 15.4492C48.6532 15.3216 48.9006 15.2252 49.1741 15.1601C49.4475 15.095 49.7262 15.0455 50.01 15.0117C50.3694 14.97 50.661 14.9361 50.885 14.9101C51.109 14.8814 51.2717 14.8359 51.3733 14.7734C51.4748 14.7109 51.5256 14.6093 51.5256 14.4687V14.4413C51.5256 14.1002 51.4293 13.8359 51.2366 13.6484C51.0465 13.4609 50.7626 13.3671 50.385 13.3671C49.9918 13.3671 49.6819 13.4544 49.4553 13.6288C49.2314 13.8007 49.0764 13.9921 48.9905 14.2031L47.8928 13.9531C48.023 13.5885 48.2131 13.2942 48.4631 13.0702C48.7157 12.8437 49.0061 12.6796 49.3342 12.5781C49.6623 12.4739 50.0074 12.4218 50.3694 12.4218C50.609 12.4218 50.8629 12.4505 51.1311 12.5078C51.4019 12.5624 51.6545 12.664 51.8889 12.8124C52.1259 12.9609 52.3199 13.1731 52.4709 13.4492C52.622 13.7226 52.6975 14.0781 52.6975 14.5156V18.4999H51.5569V17.6796H51.51C51.4345 17.8307 51.3212 17.9791 51.1702 18.1249C51.0191 18.2708 50.8251 18.3919 50.5881 18.4882C50.3512 18.5846 50.0673 18.6327 49.7366 18.6327ZM49.9905 17.6952C50.3134 17.6952 50.5894 17.6314 50.8186 17.5038C51.0504 17.3762 51.2262 17.2096 51.3459 17.0038C51.4683 16.7955 51.5295 16.5729 51.5295 16.3359V15.5624C51.4879 15.6041 51.4071 15.6432 51.2873 15.6796C51.1702 15.7135 51.036 15.7434 50.885 15.7695C50.734 15.7929 50.5868 15.815 50.4436 15.8359C50.3004 15.8541 50.1806 15.8697 50.0842 15.8827C49.8577 15.9114 49.6506 15.9596 49.4631 16.0273C49.2782 16.095 49.1298 16.1926 49.0178 16.3202C48.9084 16.4452 48.8538 16.6119 48.8538 16.8202C48.8538 17.1093 48.9605 17.3281 49.1741 17.4765C49.3876 17.6223 49.6597 17.6952 49.9905 17.6952ZM57.0539 12.4999V13.4374H53.7766V12.4999H57.0539ZM54.6555 11.0624H55.8235V16.7382C55.8235 16.9648 55.8573 17.1354 55.925 17.2499C55.9928 17.3619 56.08 17.4387 56.1868 17.4804C56.2961 17.5195 56.4146 17.539 56.5422 17.539C56.636 17.539 56.718 17.5325 56.7883 17.5195C56.8586 17.5064 56.9133 17.496 56.9524 17.4882L57.1633 18.4531C57.0956 18.4791 56.9993 18.5051 56.8743 18.5312C56.7493 18.5598 56.593 18.5755 56.4055 18.5781C56.0982 18.5833 55.8118 18.5286 55.5461 18.414C55.2805 18.2994 55.0657 18.1223 54.9016 17.8827C54.7375 17.6432 54.6555 17.3424 54.6555 16.9804V11.0624ZM62.5579 18.4999L60.7922 12.4999H61.9993L63.175 16.9062H63.2336L64.4133 12.4999H65.6204L66.7922 16.8867H66.8508L68.0188 12.4999H69.2258L67.4641 18.4999H66.2727L65.0539 14.1679H64.9641L63.7454 18.4999H62.5579ZM70.3342 18.4999V12.4999H71.5022V18.4999H70.3342ZM70.9241 11.5742C70.7209 11.5742 70.5465 11.5064 70.4006 11.371C70.2574 11.233 70.1858 11.0689 70.1858 10.8788C70.1858 10.6861 70.2574 10.5221 70.4006 10.3867C70.5465 10.2486 70.7209 10.1796 70.9241 10.1796C71.1272 10.1796 71.3004 10.2486 71.4436 10.3867C71.5894 10.5221 71.6623 10.6861 71.6623 10.8788C71.6623 11.0689 71.5894 11.233 71.4436 11.371C71.3004 11.5064 71.1272 11.5742 70.9241 11.5742ZM75.8743 12.4999V13.4374H72.5969V12.4999H75.8743ZM73.4758 11.0624H74.6438V16.7382C74.6438 16.9648 74.6776 17.1354 74.7453 17.2499C74.8131 17.3619 74.9003 17.4387 75.0071 17.4804C75.1164 17.5195 75.2349 17.539 75.3625 17.539C75.4563 17.539 75.5383 17.5325 75.6086 17.5195C75.6789 17.5064 75.7336 17.496 75.7727 17.4882L75.9836 18.4531C75.9159 18.4791 75.8196 18.5051 75.6946 18.5312C75.5696 18.5598 75.4133 18.5755 75.2258 18.5781C74.9185 18.5833 74.6321 18.5286 74.3664 18.414C74.1008 18.2994 73.886 18.1223 73.7219 17.8827C73.5578 17.6432 73.4758 17.3424 73.4758 16.9804V11.0624ZM78.4631 14.9374V18.4999H77.2952V10.4999H78.4475V13.4765H78.5217C78.6623 13.1536 78.8772 12.8971 79.1662 12.707C79.4553 12.5169 79.8329 12.4218 80.2991 12.4218C80.7105 12.4218 81.0699 12.5064 81.3772 12.6757C81.6871 12.845 81.9267 13.0976 82.0959 13.4335C82.2678 13.7669 82.3537 14.1835 82.3537 14.6835V18.4999H81.1858V14.8242C81.1858 14.3841 81.0725 14.0429 80.8459 13.8007C80.6194 13.5559 80.3043 13.4335 79.9006 13.4335C79.6246 13.4335 79.3772 13.4921 79.1584 13.6093C78.9423 13.7265 78.7717 13.8984 78.6467 14.1249C78.5243 14.3489 78.4631 14.6197 78.4631 14.9374ZM90.6243 16.0117V12.4999H91.7961V18.4999H90.6477V17.4609H90.5852C90.4472 17.7812 90.2258 18.0481 89.9211 18.2617C89.619 18.4726 89.2427 18.5781 88.7922 18.5781C88.4068 18.5781 88.0657 18.4934 87.7688 18.3242C87.4745 18.1523 87.2427 17.8984 87.0735 17.5624C86.9068 17.2265 86.8235 16.8111 86.8235 16.3163V12.4999H87.9914V16.1757C87.9914 16.5846 88.1047 16.9101 88.3313 17.1523C88.5578 17.3945 88.8521 17.5156 89.2141 17.5156C89.4328 17.5156 89.6503 17.4609 89.8664 17.3515C90.0852 17.2421 90.2662 17.0768 90.4094 16.8554C90.5552 16.6341 90.6269 16.3528 90.6243 16.0117ZM97.8616 13.9648L96.803 14.1523C96.7587 14.0169 96.6884 13.888 96.592 13.7656C96.4983 13.6432 96.3707 13.5429 96.2092 13.4648C96.0478 13.3867 95.8459 13.3476 95.6037 13.3476C95.273 13.3476 94.997 13.4218 94.7756 13.5702C94.5543 13.7161 94.4436 13.9049 94.4436 14.1367C94.4436 14.3372 94.5178 14.4986 94.6662 14.621C94.8147 14.7434 95.0543 14.8437 95.385 14.9218L96.3381 15.1406C96.8902 15.2682 97.3017 15.4648 97.5725 15.7304C97.8433 15.996 97.9787 16.3411 97.9787 16.7656C97.9787 17.1249 97.8746 17.4452 97.6662 17.7265C97.4605 18.0051 97.1728 18.2239 96.803 18.3827C96.4358 18.5416 96.01 18.621 95.5256 18.621C94.8537 18.621 94.3056 18.4778 93.8811 18.1913C93.4566 17.9023 93.1962 17.4921 93.0998 16.9609L94.2287 16.789C94.2991 17.0833 94.4436 17.3059 94.6623 17.457C94.8811 17.6054 95.1662 17.6796 95.5178 17.6796C95.9006 17.6796 96.2066 17.6002 96.4358 17.4413C96.6649 17.2799 96.7795 17.0833 96.7795 16.8515C96.7795 16.664 96.7092 16.5064 96.5686 16.3788C96.4306 16.2512 96.2183 16.1549 95.9319 16.0898L94.9162 15.8671C94.3563 15.7395 93.9423 15.5364 93.6741 15.2577C93.4084 14.9791 93.2756 14.6262 93.2756 14.1992C93.2756 13.845 93.3746 13.5351 93.5725 13.2695C93.7704 13.0038 94.0438 12.7968 94.3928 12.6484C94.7418 12.4973 95.1415 12.4218 95.592 12.4218C96.2405 12.4218 96.7509 12.5624 97.1233 12.8437C97.4957 13.1223 97.7418 13.496 97.8616 13.9648ZM104.701 18.621C104.139 18.621 103.648 18.4921 103.229 18.2343C102.809 17.9765 102.484 17.6158 102.252 17.1523C102.02 16.6887 101.905 16.1471 101.905 15.5273C101.905 14.9049 102.02 14.3606 102.252 13.8945C102.484 13.4283 102.809 13.0663 103.229 12.8085C103.648 12.5507 104.139 12.4218 104.701 12.4218C105.264 12.4218 105.755 12.5507 106.174 12.8085C106.593 13.0663 106.919 13.4283 107.151 13.8945C107.382 14.3606 107.498 14.9049 107.498 15.5273C107.498 16.1471 107.382 16.6887 107.151 17.1523C106.919 17.6158 106.593 17.9765 106.174 18.2343C105.755 18.4921 105.264 18.621 104.701 18.621ZM104.705 17.6406C105.07 17.6406 105.372 17.5442 105.612 17.3515C105.851 17.1588 106.028 16.9023 106.143 16.582C106.26 16.2617 106.319 15.9088 106.319 15.5234C106.319 15.1406 106.26 14.789 106.143 14.4687C106.028 14.1458 105.851 13.8867 105.612 13.6913C105.372 13.496 105.07 13.3984 104.705 13.3984C104.338 13.3984 104.033 13.496 103.791 13.6913C103.552 13.8867 103.373 14.1458 103.256 14.4687C103.141 14.789 103.084 15.1406 103.084 15.5234C103.084 15.9088 103.141 16.2617 103.256 16.582C103.373 16.9023 103.552 17.1588 103.791 17.3515C104.033 17.5442 104.338 17.6406 104.705 17.6406ZM109.97 14.9374V18.4999H108.802V12.4999H109.923V13.4765H109.997C110.135 13.1588 110.351 12.9036 110.646 12.7109C110.943 12.5182 111.316 12.4218 111.767 12.4218C112.176 12.4218 112.534 12.5078 112.841 12.6796C113.148 12.8489 113.387 13.1015 113.556 13.4374C113.725 13.7734 113.81 14.1887 113.81 14.6835V18.4999H112.642V14.8242C112.642 14.3893 112.529 14.0494 112.302 13.8046C112.075 13.5572 111.764 13.4335 111.368 13.4335C111.098 13.4335 110.857 13.4921 110.646 13.6093C110.437 13.7265 110.272 13.8984 110.15 14.1249C110.03 14.3489 109.97 14.6197 109.97 14.9374Z" fill="#E8E8E8"/>
<path d="M118.66 9.77267H121.272L123.488 15.1761H123.59L125.806 9.77267H128.418V18.4999H126.364V13.1391H126.292L124.195 18.4445H122.883L120.786 13.1093H120.714V18.4999H118.66V9.77267ZM131.579 18.6107C131.162 18.6107 130.791 18.5411 130.467 18.4019C130.146 18.2599 129.892 18.0468 129.704 17.7627C129.52 17.4758 129.427 17.1164 129.427 16.6846C129.427 16.321 129.491 16.0141 129.619 15.7641C129.747 15.5141 129.923 15.311 130.147 15.1548C130.372 14.9985 130.63 14.8806 130.923 14.8011C131.216 14.7187 131.528 14.6633 131.86 14.6349C132.233 14.6008 132.532 14.5653 132.76 14.5283C132.987 14.4886 133.152 14.4332 133.254 14.3622C133.359 14.2883 133.412 14.1846 133.412 14.0511V14.0298C133.412 13.811 133.336 13.642 133.186 13.5227C133.035 13.4033 132.832 13.3437 132.576 13.3437C132.301 13.3437 132.079 13.4033 131.912 13.5227C131.744 13.642 131.637 13.8068 131.592 14.017L129.67 13.9488C129.727 13.5511 129.873 13.196 130.109 12.8835C130.348 12.5681 130.674 12.321 131.089 12.142C131.507 11.9602 132.008 11.8693 132.593 11.8693C133.011 11.8693 133.396 11.919 133.748 12.0184C134.1 12.115 134.407 12.257 134.669 12.4445C134.93 12.6292 135.132 12.8565 135.274 13.1264C135.419 13.3962 135.491 13.7045 135.491 14.0511V18.4999H133.531V17.588H133.48C133.363 17.8096 133.214 17.9971 133.032 18.1505C132.853 18.3039 132.642 18.419 132.397 18.4957C132.156 18.5724 131.883 18.6107 131.579 18.6107ZM132.223 17.2471C132.447 17.2471 132.649 17.2016 132.828 17.1107C133.01 17.0198 133.154 16.8948 133.262 16.7357C133.37 16.5738 133.424 16.3863 133.424 16.1732V15.5511C133.365 15.5823 133.292 15.6107 133.207 15.6363C133.125 15.6619 133.034 15.686 132.934 15.7087C132.835 15.7315 132.733 15.7514 132.627 15.7684C132.522 15.7854 132.421 15.8011 132.325 15.8153C132.129 15.8465 131.961 15.8948 131.822 15.9602C131.686 16.0255 131.581 16.1107 131.507 16.2158C131.436 16.3181 131.4 16.4403 131.4 16.5823C131.4 16.7982 131.477 16.963 131.63 17.0766C131.787 17.1903 131.984 17.2471 132.223 17.2471ZM142.48 13.9531L140.566 14.0042C140.546 13.8678 140.493 13.7471 140.404 13.642C140.316 13.534 140.201 13.4502 140.059 13.3906C139.92 13.3281 139.758 13.2968 139.573 13.2968C139.332 13.2968 139.126 13.3451 138.956 13.4417C138.788 13.5383 138.706 13.669 138.708 13.8337C138.706 13.9616 138.757 14.0724 138.862 14.1661C138.97 14.2599 139.162 14.3352 139.437 14.392L140.698 14.6306C141.352 14.7556 141.838 14.963 142.156 15.2528C142.477 15.5426 142.639 15.9261 142.642 16.4033C142.639 16.8522 142.505 17.2428 142.241 17.5752C141.98 17.9076 141.622 18.1661 141.167 18.3508C140.713 18.5326 140.193 18.6235 139.608 18.6235C138.673 18.6235 137.936 18.4318 137.396 18.0482C136.859 17.6619 136.552 17.1448 136.475 16.4971L138.534 16.446C138.579 16.6846 138.697 16.8664 138.887 16.9914C139.078 17.1164 139.321 17.1789 139.616 17.1789C139.883 17.1789 140.1 17.1292 140.268 17.0298C140.436 16.9303 140.521 16.7982 140.524 16.6335C140.521 16.4857 140.456 16.3678 140.328 16.2798C140.2 16.1889 140 16.1178 139.727 16.0667L138.585 15.8494C137.929 15.7301 137.44 15.5099 137.119 15.1889C136.798 14.865 136.639 14.4531 136.642 13.9531C136.639 13.5156 136.755 13.142 136.991 12.8323C137.227 12.5198 137.562 12.2812 137.997 12.1164C138.431 11.9516 138.944 11.8693 139.535 11.8693C140.421 11.8693 141.12 12.0553 141.632 12.4275C142.143 12.7968 142.426 13.3053 142.48 13.9531ZM147.362 11.9545V13.4886H143.233V11.9545H147.362ZM144.098 10.3863H146.182V16.4417C146.182 16.5695 146.202 16.6732 146.241 16.7528C146.284 16.8295 146.345 16.8849 146.425 16.919C146.504 16.9502 146.599 16.9658 146.71 16.9658C146.79 16.9658 146.874 16.9587 146.962 16.9445C147.053 16.9275 147.121 16.9133 147.166 16.9019L147.482 18.4062C147.382 18.4346 147.241 18.4701 147.06 18.5127C146.881 18.5553 146.666 18.5823 146.416 18.5937C145.928 18.6164 145.508 18.5596 145.159 18.4232C144.812 18.284 144.547 18.0681 144.362 17.7755C144.18 17.4829 144.092 17.115 144.098 16.6718V10.3863ZM151.41 18.6235C150.723 18.6235 150.132 18.4829 149.638 18.2016C149.146 17.9175 148.767 17.5227 148.5 17.017C148.236 16.5085 148.104 15.919 148.104 15.2485C148.104 14.5752 148.236 13.9857 148.5 13.4801C148.767 12.9715 149.146 12.5766 149.638 12.2954C150.132 12.0113 150.723 11.8693 151.41 11.8693C152.098 11.8693 152.687 12.0113 153.179 12.2954C153.673 12.5766 154.053 12.9715 154.317 13.4801C154.584 13.9857 154.717 14.5752 154.717 15.2485C154.717 15.919 154.584 16.5085 154.317 17.017C154.053 17.5227 153.673 17.9175 153.179 18.2016C152.687 18.4829 152.098 18.6235 151.41 18.6235ZM151.423 17.0511C151.673 17.0511 151.885 16.9744 152.058 16.821C152.232 16.6675 152.364 16.4545 152.455 16.1818C152.548 15.909 152.595 15.5937 152.595 15.2357C152.595 14.8721 152.548 14.5539 152.455 14.2812C152.364 14.0085 152.232 13.7954 152.058 13.642C151.885 13.4886 151.673 13.4119 151.423 13.4119C151.165 13.4119 150.946 13.4886 150.767 13.642C150.591 13.7954 150.456 14.0085 150.362 14.2812C150.271 14.5539 150.226 14.8721 150.226 15.2357C150.226 15.5937 150.271 15.909 150.362 16.1818C150.456 16.4545 150.591 16.6675 150.767 16.821C150.946 16.9744 151.165 17.0511 151.423 17.0511ZM158.175 18.5937C157.692 18.5937 157.254 18.4687 156.859 18.2187C156.464 17.9687 156.148 17.5937 155.913 17.0937C155.677 16.5937 155.559 15.9729 155.559 15.2315C155.559 14.4616 155.681 13.8281 155.925 13.3309C156.17 12.8337 156.489 12.4658 156.884 12.2272C157.282 11.9886 157.709 11.8693 158.167 11.8693C158.511 11.8693 158.805 11.9289 159.049 12.0482C159.293 12.1647 159.495 12.3153 159.654 12.4999C159.813 12.6846 159.934 12.8764 160.016 13.0752H160.059V9.77267H162.143V18.4999H160.08V17.4389H160.016C159.928 17.6406 159.803 17.8295 159.641 18.0056C159.479 18.1818 159.276 18.3238 159.032 18.4318C158.79 18.5397 158.505 18.5937 158.175 18.5937ZM158.9 16.9701C159.153 16.9701 159.369 16.8991 159.548 16.757C159.727 16.6122 159.864 16.409 159.961 16.1477C160.057 15.8863 160.106 15.5795 160.106 15.2272C160.106 14.8693 160.057 14.561 159.961 14.3025C159.867 14.044 159.729 13.8451 159.548 13.7059C159.369 13.5667 159.153 13.4971 158.9 13.4971C158.641 13.4971 158.423 13.5681 158.244 13.7102C158.065 13.8522 157.928 14.0525 157.834 14.311C157.744 14.5695 157.698 14.8749 157.698 15.2272C157.698 15.5795 157.745 15.8863 157.839 16.1477C157.932 16.409 158.067 16.6122 158.244 16.757C158.423 16.8991 158.641 16.9701 158.9 16.9701ZM166.516 18.6235C165.828 18.6235 165.238 18.4829 164.743 18.2016C164.252 17.9175 163.872 17.5227 163.605 17.017C163.341 16.5085 163.209 15.919 163.209 15.2485C163.209 14.5752 163.341 13.9857 163.605 13.4801C163.872 12.9715 164.252 12.5766 164.743 12.2954C165.238 12.0113 165.828 11.8693 166.516 11.8693C167.203 11.8693 167.793 12.0113 168.284 12.2954C168.779 12.5766 169.158 12.9715 169.422 13.4801C169.689 13.9857 169.823 14.5752 169.823 15.2485C169.823 15.919 169.689 16.5085 169.422 17.017C169.158 17.5227 168.779 17.9175 168.284 18.2016C167.793 18.4829 167.203 18.6235 166.516 18.6235ZM166.529 17.0511C166.779 17.0511 166.99 16.9744 167.164 16.821C167.337 16.6675 167.469 16.4545 167.56 16.1818C167.654 15.909 167.701 15.5937 167.701 15.2357C167.701 14.8721 167.654 14.5539 167.56 14.2812C167.469 14.0085 167.337 13.7954 167.164 13.642C166.99 13.4886 166.779 13.4119 166.529 13.4119C166.27 13.4119 166.051 13.4886 165.872 13.642C165.696 13.7954 165.561 14.0085 165.468 14.2812C165.377 14.5539 165.331 14.8721 165.331 15.2357C165.331 15.5937 165.377 15.909 165.468 16.1818C165.561 16.4545 165.696 16.6675 165.872 16.821C166.051 16.9744 166.27 17.0511 166.529 17.0511ZM172.974 14.767V18.4999H170.89V11.9545H172.872V13.1562H172.944C173.089 12.7556 173.336 12.4417 173.686 12.2144C174.035 11.9843 174.451 11.8693 174.934 11.8693C175.394 11.8693 175.794 11.9729 176.132 12.1803C176.473 12.3849 176.737 12.6718 176.924 13.0411C177.115 13.4076 177.208 13.8366 177.206 14.3281V18.4999H175.122V14.7372C175.125 14.3735 175.032 14.0894 174.845 13.8849C174.66 13.6803 174.403 13.5781 174.073 13.5781C173.855 13.5781 173.662 13.6264 173.494 13.7229C173.329 13.8167 173.201 13.9516 173.11 14.1278C173.022 14.3039 172.977 14.517 172.974 14.767Z" fill="url(#paint2_linear_28_2892)"/>
</g>
</g>
<rect x="1.24927" y="0.749939" width="182" height="26.5" rx="5.25" stroke="white" stroke-opacity="0.15" stroke-width="1.5"/>
<defs>
<filter id="filter0_d_28_2892" x="2.49927" y="-6.10352e-05" width="28" height="28.0001" filterUnits="userSpaceOnUse" color-interpolation-filters="sRGB">
<feFlood flood-opacity="0" result="BackgroundImageFix"/>
<feColorMatrix in="SourceAlpha" type="matrix" values="0 0 0 0 0 0 0 0 0 0 0 0 0 0 0 0 0 0 127 0" result="hardAlpha"/>
<feOffset/>
<feGaussianBlur stdDeviation="2"/>
<feComposite in2="hardAlpha" operator="out"/>
<feColorMatrix type="matrix" values="0 0 0 0 0 0 0 0 0 0 0 0 0 0 0 0 0 0 0.25 0"/>
<feBlend mode="normal" in2="BackgroundImageFix" result="effect1_dropShadow_28_2892"/>
<feBlend mode="normal" in="SourceGraphic" in2="effect1_dropShadow_28_2892" result="shape"/>
</filter>
<filter id="filter1_d_28_2892" x="28.4993" y="3.49994" width="153.5" height="21" filterUnits="userSpaceOnUse" color-interpolation-filters="sRGB">
<feFlood flood-opacity="0" result="BackgroundImageFix"/>
<feColorMatrix in="SourceAlpha" type="matrix" values="0 0 0 0 0 0 0 0 0 0 0 0 0 0 0 0 0 0 127 0" result="hardAlpha"/>
<feOffset/>
<feGaussianBlur stdDeviation="2"/>
<feComposite in2="hardAlpha" operator="out"/>
<feColorMatrix type="matrix" values="0 0 0 0 0 0 0 0 0 0 0 0 0 0 0 0 0 0 0.25 0"/>
<feBlend mode="normal" in2="BackgroundImageFix" result="effect1_dropShadow_28_2892"/>
<feBlend mode="normal" in="SourceGraphic" in2="effect1_dropShadow_28_2892" result="shape"/>
</filter>
<linearGradient id="paint0_linear_28_2892" x1="92.2492" y1="-6.10351e-05" x2="92.2492" y2="27.9999" gradientUnits="userSpaceOnUse">
<stop stop-color="#0D0D2F"/>
<stop offset="1" stop-color="#100B27"/>
</linearGradient>
<linearGradient id="paint1_linear_28_2892" x1="16.4993" y1="4" x2="16.4993" y2="24" gradientUnits="userSpaceOnUse">
<stop stop-color="#6364FF"/>
<stop offset="1" stop-color="#563ACC"/>
</linearGradient>
<linearGradient id="paint2_linear_28_2892" x1="147.999" y1="7.49994" x2="147.999" y2="20.4999" gradientUnits="userSpaceOnUse">
<stop stop-color="#9393FF"/>
<stop offset="1" stop-color="#7A65D1"/>
</linearGradient>
<clipPath id="clip0_28_2892">
<rect x="0.499268" y="-6.10352e-05" width="183.5" height="28" rx="6" fill="white"/>
</clipPath>
</defs>
</svg>
