<svg width="236" height="41" viewBox="0 0 236 41" fill="none" xmlns="http://www.w3.org/2000/svg">
<g clip-path="url(#clip0_2_3265)">
<rect x="0.00585938" y="0.0280151" width="236" height="40" rx="8" fill="url(#paint0_linear_2_3265)"/>
<g filter="url(#filter0_d_2_3265)">
<g clip-path="url(#clip1_2_3265)">
<path d="M33.47 33.3324V6.64489H31.5469V6.00439H34.2164V34.0044H31.5469V33.3639L33.47 33.3324Z" fill="white"/>
<path d="M16.8998 15.1324V16.4799H16.9384C17.2765 15.9864 17.7226 15.5787 18.2468 15.2812C18.7561 14.9986 19.3445 14.8568 19.9943 14.8568C20.6266 14.8568 21.2061 14.9793 21.7242 15.2243C22.2467 15.4684 22.6463 15.8989 22.9185 16.5193C23.2153 16.0818 23.6175 15.6959 24.1303 15.3643C24.6397 15.0292 25.2456 14.8621 25.9393 14.8621C26.4679 14.8621 26.9579 14.9268 27.4058 15.0546C27.8572 15.1841 28.2435 15.3897 28.5649 15.6732C28.8863 15.9558 29.1384 16.3259 29.3192 16.7844C29.4993 17.2412 29.5897 17.7907 29.5897 18.4382V25.1144H26.8411V19.4619C26.8411 19.1268 26.828 18.8118 26.8025 18.5169C26.7842 18.2483 26.7121 17.9858 26.59 17.7452C26.4732 17.5256 26.2949 17.3444 26.0772 17.2237C25.8515 17.0959 25.545 17.0312 25.1551 17.0312C24.7687 17.0312 24.4561 17.1056 24.2155 17.2526C23.9767 17.4013 23.7896 17.5938 23.6544 17.8318C23.5148 18.0829 23.4226 18.3586 23.3839 18.6429C23.3383 18.9466 23.3154 19.2528 23.3154 19.5617V25.1179H20.5669V19.5179C20.5669 19.2222 20.5607 18.9291 20.5484 18.6429C20.5384 18.3682 20.4826 18.0978 20.3833 17.8414C20.2885 17.5991 20.1199 17.3934 19.9004 17.2526C19.6738 17.1056 19.3419 17.0312 18.8993 17.0312C18.7254 17.0384 18.5533 17.0679 18.3865 17.1187C18.1599 17.1839 17.9491 17.2954 17.7674 17.4459C17.5671 17.6069 17.3968 17.8388 17.2545 18.1407C17.1132 18.4434 17.042 18.8389 17.042 19.3307V25.1232H14.2935V15.1482L16.8998 15.1324Z" fill="white"/>
<path d="M10.4945 6.67292V33.3604H12.4176V34.0009H9.74805V6.00092H12.4088V6.64142L10.4945 6.67292Z" fill="white"/>
</g>
</g>
<g filter="url(#filter1_d_2_3265)">
<path d="M53.633 18.185H51.7495C51.677 17.7825 51.5422 17.4283 51.345 17.1225C51.1478 16.8166 50.9063 16.557 50.6206 16.3437C50.3348 16.1304 50.0149 15.9694 49.6607 15.8608C49.3105 15.7521 48.9383 15.6978 48.5439 15.6978C47.8315 15.6978 47.1936 15.8769 46.6301 16.235C46.0707 16.5932 45.628 17.1184 45.302 17.8107C44.9801 18.5029 44.8191 19.3481 44.8191 20.3462C44.8191 21.3523 44.9801 22.2015 45.302 22.8938C45.628 23.586 46.0727 24.1092 46.6362 24.4634C47.1996 24.8175 47.8335 24.9946 48.5378 24.9946C48.9282 24.9946 49.2985 24.9423 49.6486 24.8377C50.0028 24.729 50.3227 24.57 50.6085 24.3608C50.8942 24.1515 51.1357 23.8959 51.3329 23.5941C51.5341 23.2882 51.673 22.938 51.7495 22.5436L53.633 22.5497C53.5324 23.1574 53.3372 23.7168 53.0474 24.2279C52.7617 24.735 52.3934 25.1737 51.9426 25.544C51.4959 25.9102 50.9848 26.194 50.4093 26.3952C49.8337 26.5964 49.2059 26.697 48.5257 26.697C47.4552 26.697 46.5014 26.4435 45.6642 25.9364C44.8271 25.4253 44.1671 24.6948 43.6841 23.745C43.2052 22.7952 42.9657 21.6622 42.9657 20.3462C42.9657 19.0261 43.2072 17.8932 43.6902 16.9474C44.1731 15.9976 44.8332 15.2691 45.6703 14.762C46.5074 14.2509 47.4592 13.9953 48.5257 13.9953C49.1818 13.9953 49.7935 14.0899 50.361 14.2791C50.9325 14.4642 51.4456 14.7379 51.9004 15.1001C52.3552 15.4583 52.7315 15.897 53.0293 16.4162C53.3271 16.9313 53.5283 17.5209 53.633 18.185ZM57.5253 21.0223V26.528H55.7203V14.1644H57.5011V18.7645H57.6159C57.8332 18.2655 58.1652 17.869 58.6119 17.5752C59.0587 17.2814 59.6422 17.1345 60.3627 17.1345C60.9985 17.1345 61.5539 17.2653 62.0288 17.5269C62.5078 17.7885 62.878 18.1789 63.1396 18.6981C63.4053 19.2133 63.5381 19.8572 63.5381 20.6299V26.528H61.733V20.8473C61.733 20.1671 61.558 19.6399 61.2078 19.2656C60.8577 18.8873 60.3707 18.6981 59.7469 18.6981C59.3203 18.6981 58.9379 18.7887 58.5999 18.9698C58.2658 19.1509 58.0022 19.4165 57.809 19.7666C57.6199 20.1128 57.5253 20.5313 57.5253 21.0223ZM68.6453 26.7333C68.0577 26.7333 67.5265 26.6246 67.0516 26.4073C66.5767 26.1859 66.2004 25.866 65.9227 25.4474C65.649 25.0288 65.5122 24.5157 65.5122 23.908C65.5122 23.3848 65.6128 22.9541 65.814 22.6161C66.0152 22.278 66.2869 22.0104 66.629 21.8132C66.9711 21.616 67.3534 21.4671 67.776 21.3664C68.1986 21.2658 68.6292 21.1894 69.0679 21.137C69.6233 21.0726 70.0741 21.0203 70.4202 20.9801C70.7663 20.9358 71.0178 20.8654 71.1748 20.7688C71.3318 20.6722 71.4102 20.5152 71.4102 20.2979V20.2556C71.4102 19.7284 71.2613 19.3199 70.9635 19.0301C70.6697 18.7404 70.231 18.5955 69.6475 18.5955C69.0397 18.5955 68.5608 18.7303 68.2107 19C67.8645 19.2656 67.6251 19.5614 67.4923 19.8874L65.7959 19.501C65.9971 18.9376 66.2909 18.4828 66.6773 18.1367C67.0677 17.7865 67.5164 17.533 68.0235 17.376C68.5306 17.215 69.0639 17.1345 69.6233 17.1345C69.9936 17.1345 70.386 17.1788 70.8005 17.2674C71.2191 17.3519 71.6095 17.5088 71.9717 17.7382C72.3379 17.9676 72.6377 18.2956 72.8712 18.7223C73.1046 19.1448 73.2213 19.6942 73.2213 20.3703V26.528H71.4585V25.2603H71.3861C71.2694 25.4937 71.0943 25.7231 70.8609 25.9485C70.6274 26.1738 70.3276 26.361 69.9614 26.5099C69.5951 26.6588 69.1564 26.7333 68.6453 26.7333ZM69.0377 25.2844C69.5368 25.2844 69.9634 25.1858 70.3176 24.9886C70.6757 24.7914 70.9474 24.5338 71.1325 24.2159C71.3217 23.8939 71.4163 23.5498 71.4163 23.1836V21.9882C71.3519 22.0526 71.2271 22.113 71.042 22.1693C70.8609 22.2217 70.6536 22.2679 70.4202 22.3082C70.1868 22.3444 69.9594 22.3786 69.738 22.4108C69.5167 22.439 69.3315 22.4631 69.1826 22.4833C68.8325 22.5275 68.5125 22.602 68.2227 22.7066C67.937 22.8113 67.7076 22.9622 67.5345 23.1594C67.3655 23.3526 67.281 23.6102 67.281 23.9321C67.281 24.3789 67.446 24.7169 67.776 24.9463C68.106 25.1717 68.5266 25.2844 69.0377 25.2844ZM79.954 17.2553V18.7041H74.889V17.2553H79.954ZM76.2473 15.0337H78.0524V23.8054C78.0524 24.1555 78.1047 24.4191 78.2093 24.5962C78.314 24.7693 78.4488 24.888 78.6138 24.9524C78.7828 25.0127 78.966 25.0429 79.1632 25.0429C79.3081 25.0429 79.4348 25.0329 79.5435 25.0127C79.6522 24.9926 79.7367 24.9765 79.797 24.9644L80.123 26.4556C80.0184 26.4958 79.8695 26.5361 79.6763 26.5763C79.4831 26.6206 79.2416 26.6447 78.9519 26.6487C78.477 26.6568 78.0343 26.5723 77.6237 26.3952C77.2132 26.2181 76.8812 25.9444 76.6277 25.5742C76.3741 25.2039 76.2473 24.7391 76.2473 24.1796V15.0337ZM88.46 26.528L85.7313 17.2553H87.5968L89.4139 24.0649H89.5044L91.3276 17.2553H93.193L95.0041 24.0348H95.0946L96.8997 17.2553H98.7651L96.0424 26.528H94.2012L92.3176 19.8331H92.1788L90.2953 26.528H88.46ZM100.478 26.528V17.2553H102.283V26.528H100.478ZM101.39 15.8245C101.076 15.8245 100.806 15.7199 100.581 15.5106C100.359 15.2973 100.249 15.0438 100.249 14.75C100.249 14.4521 100.359 14.1986 100.581 13.9893C100.806 13.776 101.076 13.6693 101.39 13.6693C101.704 13.6693 101.971 13.776 102.193 13.9893C102.418 14.1986 102.531 14.4521 102.531 14.75C102.531 15.0438 102.418 15.2973 102.193 15.5106C101.971 15.7199 101.704 15.8245 101.39 15.8245ZM109.04 17.2553V18.7041H103.975V17.2553H109.04ZM105.333 15.0337H107.138V23.8054C107.138 24.1555 107.191 24.4191 107.295 24.5962C107.4 24.7693 107.535 24.888 107.7 24.9524C107.869 25.0127 108.052 25.0429 108.249 25.0429C108.394 25.0429 108.521 25.0329 108.629 25.0127C108.738 24.9926 108.823 24.9765 108.883 24.9644L109.209 26.4556C109.104 26.4958 108.955 26.5361 108.762 26.5763C108.569 26.6206 108.328 26.6447 108.038 26.6487C107.563 26.6568 107.12 26.5723 106.71 26.3952C106.299 26.2181 105.967 25.9444 105.714 25.5742C105.46 25.2039 105.333 24.7391 105.333 24.1796V15.0337ZM113.041 21.0223V26.528H111.236V14.1644H113.017V18.7645H113.131C113.349 18.2655 113.681 17.869 114.128 17.5752C114.574 17.2814 115.158 17.1345 115.878 17.1345C116.514 17.1345 117.07 17.2653 117.544 17.5269C118.023 17.7885 118.394 18.1789 118.655 18.6981C118.921 19.2133 119.054 19.8572 119.054 20.6299V26.528H117.249V20.8473C117.249 20.1671 117.074 19.6399 116.723 19.2656C116.373 18.8873 115.886 18.6981 115.262 18.6981C114.836 18.6981 114.454 18.7887 114.115 18.9698C113.781 19.1509 113.518 19.4165 113.325 19.7666C113.135 20.1128 113.041 20.5313 113.041 21.0223ZM131.835 22.6825V17.2553H133.646V26.528H131.872V24.9222H131.775C131.562 25.4172 131.22 25.8297 130.749 26.1598C130.282 26.4858 129.7 26.6487 129.004 26.6487C128.408 26.6487 127.881 26.5179 127.422 26.2563C126.968 25.9907 126.609 25.5983 126.348 25.0791C126.09 24.56 125.961 23.918 125.961 23.1534V17.2553H127.766V22.936C127.766 23.5679 127.942 24.071 128.292 24.4453C128.642 24.8196 129.097 25.0067 129.656 25.0067C129.994 25.0067 130.33 24.9222 130.664 24.7532C131.002 24.5841 131.282 24.3286 131.503 23.9865C131.729 23.6444 131.839 23.2097 131.835 22.6825ZM143.02 19.5191L141.384 19.8089C141.316 19.5996 141.207 19.4004 141.058 19.2113C140.913 19.0221 140.716 18.8671 140.467 18.7464C140.217 18.6257 139.905 18.5653 139.531 18.5653C139.02 18.5653 138.593 18.68 138.251 18.9094C137.909 19.1348 137.738 19.4266 137.738 19.7848C137.738 20.0947 137.853 20.3442 138.082 20.5333C138.311 20.7225 138.682 20.8774 139.193 20.9982L140.666 21.3362C141.519 21.5335 142.155 21.8373 142.574 22.2478C142.992 22.6583 143.201 23.1916 143.201 23.8476C143.201 24.403 143.04 24.898 142.718 25.3327C142.401 25.7633 141.956 26.1014 141.384 26.3469C140.817 26.5924 140.159 26.7152 139.41 26.7152C138.372 26.7152 137.525 26.4938 136.869 26.0511C136.213 25.6044 135.81 24.9705 135.661 24.1495L137.406 23.8838C137.515 24.3386 137.738 24.6827 138.076 24.9161C138.414 25.1456 138.855 25.2603 139.398 25.2603C139.99 25.2603 140.463 25.1375 140.817 24.892C141.171 24.6425 141.348 24.3386 141.348 23.9804C141.348 23.6907 141.239 23.4472 141.022 23.25C140.809 23.0528 140.481 22.9038 140.038 22.8032L138.468 22.4591C137.603 22.2619 136.963 21.948 136.549 21.5174C136.138 21.0867 135.933 20.5414 135.933 19.8813C135.933 19.334 136.086 18.8551 136.392 18.4446C136.698 18.034 137.12 17.7141 137.66 17.4847C138.199 17.2513 138.817 17.1345 139.513 17.1345C140.515 17.1345 141.304 17.3519 141.879 17.7865C142.455 18.2172 142.835 18.7947 143.02 19.5191ZM153.591 26.7152C152.722 26.7152 151.963 26.5159 151.315 26.1175C150.667 25.7191 150.164 25.1617 149.806 24.4453C149.448 23.7289 149.269 22.8918 149.269 21.9339C149.269 20.972 149.448 20.1309 149.806 19.4105C150.164 18.6901 150.667 18.1306 151.315 17.7322C151.963 17.3338 152.722 17.1345 153.591 17.1345C154.46 17.1345 155.219 17.3338 155.867 17.7322C156.515 18.1306 157.018 18.6901 157.376 19.4105C157.734 20.1309 157.913 20.972 157.913 21.9339C157.913 22.8918 157.734 23.7289 157.376 24.4453C157.018 25.1617 156.515 25.7191 155.867 26.1175C155.219 26.5159 154.46 26.7152 153.591 26.7152ZM153.597 25.1999C154.16 25.1999 154.627 25.051 154.998 24.7532C155.368 24.4553 155.642 24.0589 155.819 23.5639C156 23.0688 156.09 22.5235 156.09 21.9279C156.09 21.3363 156 20.7929 155.819 20.2979C155.642 19.7988 155.368 19.3984 154.998 19.0965C154.627 18.7947 154.16 18.6438 153.597 18.6438C153.03 18.6438 152.559 18.7947 152.184 19.0965C151.814 19.3984 151.538 19.7988 151.357 20.2979C151.18 20.7929 151.092 21.3363 151.092 21.9279C151.092 22.5235 151.18 23.0688 151.357 23.5639C151.538 24.0589 151.814 24.4553 152.184 24.7532C152.559 25.051 153.03 25.1999 153.597 25.1999ZM161.733 21.0223V26.528H159.928V17.2553H161.661V18.7645H161.776C161.989 18.2735 162.323 17.8791 162.778 17.5813C163.236 17.2835 163.814 17.1345 164.51 17.1345C165.142 17.1345 165.696 17.2674 166.17 17.533C166.645 17.7946 167.014 18.185 167.275 18.7041C167.537 19.2233 167.668 19.8653 167.668 20.6299V26.528H165.863V20.8473C165.863 20.1751 165.687 19.6499 165.337 19.2716C164.987 18.8893 164.506 18.6981 163.894 18.6981C163.476 18.6981 163.104 18.7887 162.778 18.9698C162.456 19.1509 162.2 19.4165 162.011 19.7666C161.826 20.1128 161.733 20.5313 161.733 21.0223Z" fill="#E8E8E8"/>
<path d="M173.942 13.6644H177.642L180.781 21.3192H180.926L184.066 13.6644H187.766V26.028H184.856V18.4336H184.754L181.784 25.9495H179.924L176.954 18.3913H176.851V26.028H173.942V13.6644ZM192.244 26.185C191.652 26.185 191.127 26.0864 190.668 25.8892C190.214 25.6879 189.853 25.3861 189.588 24.9836C189.326 24.5771 189.195 24.068 189.195 23.4563C189.195 22.9411 189.286 22.5065 189.467 22.1523C189.648 21.7981 189.898 21.5104 190.216 21.289C190.534 21.0677 190.9 20.9006 191.314 20.788C191.729 20.6712 192.172 20.5928 192.642 20.5525C193.17 20.5042 193.594 20.4539 193.916 20.4016C194.238 20.3452 194.472 20.2668 194.617 20.1662C194.765 20.0615 194.84 19.9146 194.84 19.7255V19.6953C194.84 19.3854 194.733 19.1459 194.52 18.9769C194.307 18.8078 194.019 18.7233 193.657 18.7233C193.266 18.7233 192.952 18.8078 192.715 18.9769C192.477 19.1459 192.327 19.3793 192.262 19.6772L189.54 19.5806C189.62 19.0171 189.827 18.514 190.161 18.0713C190.499 17.6246 190.962 17.2745 191.55 17.0209C192.141 16.7633 192.852 16.6345 193.681 16.6345C194.272 16.6345 194.818 16.705 195.317 16.8458C195.816 16.9827 196.251 17.1839 196.621 17.4495C196.991 17.7111 197.277 18.0331 197.478 18.4154C197.683 18.7978 197.786 19.2345 197.786 19.7255V26.028H195.009V24.7361H194.937C194.772 25.05 194.56 25.3157 194.303 25.533C194.049 25.7503 193.749 25.9133 193.403 26.022C193.061 26.1306 192.675 26.185 192.244 26.185ZM193.156 24.2532C193.474 24.2532 193.759 24.1888 194.013 24.06C194.27 23.9312 194.476 23.7541 194.629 23.5287C194.782 23.2993 194.858 23.0337 194.858 22.7318V21.8505C194.774 21.8947 194.671 21.935 194.55 21.9712C194.433 22.0074 194.305 22.0416 194.164 22.0738C194.023 22.106 193.878 22.1342 193.729 22.1583C193.58 22.1825 193.437 22.2046 193.301 22.2247C193.023 22.269 192.785 22.3374 192.588 22.43C192.395 22.5226 192.246 22.6433 192.141 22.7922C192.041 22.9371 191.99 23.1102 191.99 23.3114C191.99 23.6173 192.099 23.8507 192.316 24.0117C192.538 24.1727 192.818 24.2532 193.156 24.2532ZM204.825 16.7553V18.9286H198.975V16.7553H204.825ZM200.201 14.5337H203.153V23.1122C203.153 23.2933 203.181 23.4402 203.237 23.5529C203.298 23.6615 203.384 23.74 203.497 23.7883C203.61 23.8326 203.744 23.8547 203.901 23.8547C204.014 23.8547 204.133 23.8447 204.258 23.8245C204.386 23.8004 204.483 23.7803 204.547 23.7642L204.994 25.8952C204.853 25.9354 204.654 25.9858 204.396 26.0461C204.143 26.1065 203.839 26.1447 203.485 26.1608C202.793 26.193 202.199 26.1125 201.704 25.9193C201.213 25.7221 200.837 25.4163 200.575 25.0017C200.317 24.5872 200.193 24.066 200.201 23.4382V14.5337ZM206.331 26.028V16.7553H209.199V18.4456H209.295C209.464 17.8339 209.74 17.3791 210.122 17.0813C210.505 16.7794 210.949 16.6285 211.457 16.6285C211.593 16.6285 211.734 16.6386 211.879 16.6587C212.024 16.6748 212.159 16.701 212.284 16.7372V19.3029C212.143 19.2546 211.958 19.2163 211.728 19.1882C211.503 19.16 211.302 19.1459 211.125 19.1459C210.774 19.1459 210.458 19.2244 210.177 19.3814C209.899 19.5343 209.68 19.7496 209.519 20.0273C209.362 20.301 209.283 20.6229 209.283 20.9932V26.028H206.331ZM213.486 26.028V16.7553H216.439V26.028H213.486ZM214.966 15.6747C214.551 15.6747 214.195 15.5378 213.897 15.2642C213.599 14.9865 213.45 14.6524 213.45 14.262C213.45 13.8757 213.599 13.5457 213.897 13.272C214.195 12.9943 214.551 12.8554 214.966 12.8554C215.384 12.8554 215.74 12.9943 216.034 13.272C216.332 13.5457 216.481 13.8757 216.481 14.262C216.481 14.6524 216.332 14.9865 216.034 15.2642C215.74 15.5378 215.384 15.6747 214.966 15.6747ZM220.829 16.7553L222.356 19.81L223.938 16.7553H226.914L224.324 21.3916L227.011 26.028H224.059L222.356 22.9492L220.696 26.028H217.702L220.394 21.3916L217.835 16.7553H220.829Z" fill="white"/>
</g>
</g>
<rect x="1.05586" y="1.07802" width="233.9" height="37.9" rx="6.95" stroke="white" stroke-opacity="0.15" stroke-width="2.1"/>
<defs>
<filter id="filter0_d_2_3265" x="2.29157" y="0.31373" width="39.4286" height="39.4286" filterUnits="userSpaceOnUse" color-interpolation-filters="sRGB">
<feFlood flood-opacity="0" result="BackgroundImageFix"/>
<feColorMatrix in="SourceAlpha" type="matrix" values="0 0 0 0 0 0 0 0 0 0 0 0 0 0 0 0 0 0 127 0" result="hardAlpha"/>
<feOffset/>
<feGaussianBlur stdDeviation="2.85714"/>
<feComposite in2="hardAlpha" operator="out"/>
<feColorMatrix type="matrix" values="0 0 0 0 0 0 0 0 0 0 0 0 0 0 0 0 0 0 0.25 0"/>
<feBlend mode="normal" in2="BackgroundImageFix" result="effect1_dropShadow_2_3265"/>
<feBlend mode="normal" in="SourceGraphic" in2="effect1_dropShadow_2_3265" result="shape"/>
</filter>
<filter id="filter1_d_2_3265" x="36.4059" y="3.92802" width="197.2" height="32.2" filterUnits="userSpaceOnUse" color-interpolation-filters="sRGB">
<feFlood flood-opacity="0" result="BackgroundImageFix"/>
<feColorMatrix in="SourceAlpha" type="matrix" values="0 0 0 0 0 0 0 0 0 0 0 0 0 0 0 0 0 0 127 0" result="hardAlpha"/>
<feOffset/>
<feGaussianBlur stdDeviation="2.8"/>
<feComposite in2="hardAlpha" operator="out"/>
<feColorMatrix type="matrix" values="0 0 0 0 0 0 0 0 0 0 0 0 0 0 0 0 0 0 0.25 0"/>
<feBlend mode="normal" in2="BackgroundImageFix" result="effect1_dropShadow_2_3265"/>
<feBlend mode="normal" in="SourceGraphic" in2="effect1_dropShadow_2_3265" result="shape"/>
</filter>
<linearGradient id="paint0_linear_2_3265" x1="118.006" y1="0.0280151" x2="118.006" y2="40.028" gradientUnits="userSpaceOnUse">
<stop stop-color="#373737"/>
<stop offset="1" stop-color="#202020"/>
</linearGradient>
<clipPath id="clip0_2_3265">
<rect x="0.00585938" y="0.0280151" width="236" height="40" rx="8" fill="white"/>
</clipPath>
<clipPath id="clip1_2_3265">
<rect width="24.5" height="28" fill="white" transform="translate(9.75586 6.02802)"/>
</clipPath>
</defs>
</svg>
