<svg width="242" height="41" viewBox="0 0 242 41" fill="none" xmlns="http://www.w3.org/2000/svg">
<g clip-path="url(#clip0_2_3275)">
<rect x="0.00585938" y="0.0280762" width="242" height="40" rx="8" fill="url(#paint0_linear_2_3275)"/>
<g filter="url(#filter0_d_2_3275)">
<g clip-path="url(#clip1_2_3275)">
<path d="M33.47 33.3325V6.64502H31.5469V6.00452H34.2164V34.0045H31.5469V33.364L33.47 33.3325Z" fill="white"/>
<path d="M16.8998 15.1324V16.4799H16.9384C17.2765 15.9864 17.7226 15.5787 18.2468 15.2812C18.7561 14.9986 19.3445 14.8568 19.9943 14.8568C20.6266 14.8568 21.2061 14.9793 21.7242 15.2243C22.2467 15.4684 22.6463 15.8989 22.9185 16.5193C23.2153 16.0818 23.6175 15.6959 24.1303 15.3643C24.6397 15.0292 25.2456 14.8621 25.9393 14.8621C26.4679 14.8621 26.9579 14.9268 27.4058 15.0546C27.8572 15.1841 28.2435 15.3897 28.5649 15.6732C28.8863 15.9558 29.1384 16.3259 29.3192 16.7844C29.4993 17.2412 29.5897 17.7907 29.5897 18.4382V25.1144H26.8411V19.4619C26.8411 19.1268 26.828 18.8118 26.8025 18.5169C26.7842 18.2483 26.7121 17.9858 26.59 17.7452C26.4732 17.5256 26.2949 17.3444 26.0772 17.2237C25.8515 17.0959 25.545 17.0312 25.1551 17.0312C24.7687 17.0312 24.4561 17.1056 24.2155 17.2526C23.9767 17.4013 23.7896 17.5938 23.6544 17.8318C23.5148 18.0829 23.4226 18.3586 23.3839 18.6429C23.3383 18.9466 23.3154 19.2528 23.3154 19.5617V25.1179H20.5669V19.5179C20.5669 19.2222 20.5607 18.9291 20.5484 18.6429C20.5384 18.3682 20.4826 18.0978 20.3833 17.8414C20.2885 17.5991 20.1199 17.3934 19.9004 17.2526C19.6738 17.1056 19.3419 17.0312 18.8993 17.0312C18.7254 17.0384 18.5533 17.0679 18.3865 17.1187C18.1599 17.1839 17.9491 17.2954 17.7674 17.4459C17.5671 17.6069 17.3968 17.8388 17.2545 18.1407C17.1132 18.4434 17.042 18.8389 17.042 19.3307V25.1232H14.2935V15.1482L16.8998 15.1324Z" fill="white"/>
<path d="M10.4945 6.67298V33.3605H12.4176V34.001H9.74805V6.00098H12.4088V6.64148L10.4945 6.67298Z" fill="white"/>
</g>
</g>
<g filter="url(#filter1_d_2_3275)">
<path d="M53.633 18.185H51.7495C51.677 17.7826 51.5422 17.4284 51.345 17.1225C51.1478 16.8167 50.9063 16.5571 50.6206 16.3438C50.3348 16.1305 50.0149 15.9695 49.6607 15.8608C49.3105 15.7522 48.9383 15.6978 48.5439 15.6978C47.8315 15.6978 47.1936 15.8769 46.6301 16.2351C46.0707 16.5933 45.628 17.1185 45.302 17.8107C44.9801 18.503 44.8191 19.3481 44.8191 20.3463C44.8191 21.3524 44.9801 22.2016 45.302 22.8938C45.628 23.5861 46.0727 24.1093 46.6362 24.4634C47.1996 24.8176 47.8335 24.9947 48.5378 24.9947C48.9282 24.9947 49.2985 24.9424 49.6486 24.8377C50.0028 24.7291 50.3227 24.5701 50.6085 24.3608C50.8942 24.1515 51.1357 23.896 51.3329 23.5941C51.5341 23.2883 51.673 22.9381 51.7495 22.5437L53.633 22.5497C53.5324 23.1575 53.3372 23.7169 53.0474 24.228C52.7617 24.7351 52.3934 25.1738 51.9426 25.5441C51.4959 25.9103 50.9848 26.194 50.4093 26.3953C49.8337 26.5965 49.2059 26.6971 48.5257 26.6971C47.4552 26.6971 46.5014 26.4436 45.6642 25.9365C44.8271 25.4253 44.1671 24.6949 43.6841 23.745C43.2052 22.7952 42.9657 21.6623 42.9657 20.3463C42.9657 19.0262 43.2072 17.8932 43.6902 16.9475C44.1731 15.9977 44.8332 15.2692 45.6703 14.7621C46.5074 14.251 47.4592 13.9954 48.5257 13.9954C49.1818 13.9954 49.7935 14.09 50.361 14.2791C50.9325 14.4643 51.4456 14.7379 51.9004 15.1002C52.3552 15.4584 52.7315 15.897 53.0293 16.4162C53.3271 16.9314 53.5283 17.521 53.633 18.185ZM57.5253 21.0224V26.5281H55.7203V14.1644H57.5011V18.7646H57.6159C57.8332 18.2655 58.1652 17.8691 58.6119 17.5753C59.0587 17.2815 59.6422 17.1346 60.3627 17.1346C60.9985 17.1346 61.5539 17.2654 62.0288 17.527C62.5078 17.7886 62.878 18.179 63.1396 18.6982C63.4053 19.2133 63.5381 19.8573 63.5381 20.63V26.5281H61.733V20.8473C61.733 20.1672 61.558 19.6399 61.2078 19.2656C60.8577 18.8873 60.3707 18.6982 59.7469 18.6982C59.3203 18.6982 58.9379 18.7887 58.5999 18.9698C58.2658 19.1509 58.0022 19.4166 57.809 19.7667C57.6199 20.1128 57.5253 20.5314 57.5253 21.0224ZM68.6453 26.7333C68.0577 26.7333 67.5265 26.6247 67.0516 26.4073C66.5767 26.186 66.2004 25.866 65.9227 25.4475C65.649 25.0289 65.5122 24.5158 65.5122 23.908C65.5122 23.3848 65.6128 22.9542 65.814 22.6161C66.0152 22.2781 66.2869 22.0104 66.629 21.8132C66.9711 21.616 67.3534 21.4671 67.776 21.3665C68.1986 21.2659 68.6292 21.1894 69.0679 21.1371C69.6233 21.0727 70.0741 21.0204 70.4202 20.9801C70.7663 20.9359 71.0178 20.8654 71.1748 20.7688C71.3318 20.6722 71.4102 20.5153 71.4102 20.298V20.2557C71.4102 19.7285 71.2613 19.32 70.9635 19.0302C70.6697 18.7404 70.231 18.5955 69.6475 18.5955C69.0397 18.5955 68.5608 18.7304 68.2107 19C67.8645 19.2656 67.6251 19.5615 67.4923 19.8874L65.7959 19.5011C65.9971 18.9376 66.2909 18.4829 66.6773 18.1367C67.0677 17.7866 67.5164 17.533 68.0235 17.3761C68.5306 17.2151 69.0639 17.1346 69.6233 17.1346C69.9936 17.1346 70.386 17.1789 70.8005 17.2674C71.2191 17.3519 71.6095 17.5089 71.9717 17.7383C72.3379 17.9677 72.6377 18.2957 72.8712 18.7223C73.1046 19.1449 73.2213 19.6943 73.2213 20.3704V26.5281H71.4585V25.2603H71.3861C71.2694 25.4937 71.0943 25.7231 70.8609 25.9485C70.6274 26.1739 70.3276 26.361 69.9614 26.51C69.5951 26.6589 69.1564 26.7333 68.6453 26.7333ZM69.0377 25.2845C69.5368 25.2845 69.9634 25.1859 70.3176 24.9887C70.6757 24.7914 70.9474 24.5339 71.1325 24.2159C71.3217 23.894 71.4163 23.5499 71.4163 23.1836V21.9883C71.3519 22.0527 71.2271 22.1131 71.042 22.1694C70.8609 22.2217 70.6536 22.268 70.4202 22.3083C70.1868 22.3445 69.9594 22.3787 69.738 22.4109C69.5167 22.4391 69.3315 22.4632 69.1826 22.4833C68.8325 22.5276 68.5125 22.6021 68.2227 22.7067C67.937 22.8113 67.7076 22.9623 67.5345 23.1595C67.3655 23.3526 67.281 23.6102 67.281 23.9322C67.281 24.3789 67.446 24.717 67.776 24.9464C68.106 25.1718 68.5266 25.2845 69.0377 25.2845ZM79.954 17.2553V18.7042H74.889V17.2553H79.954ZM76.2473 15.0338H78.0524V23.8054C78.0524 24.1556 78.1047 24.4192 78.2093 24.5963C78.314 24.7693 78.4488 24.888 78.6138 24.9524C78.7828 25.0128 78.966 25.043 79.1632 25.043C79.3081 25.043 79.4348 25.0329 79.5435 25.0128C79.6522 24.9927 79.7367 24.9766 79.797 24.9645L80.123 26.4556C80.0184 26.4959 79.8695 26.5361 79.6763 26.5764C79.4831 26.6206 79.2416 26.6448 78.9519 26.6488C78.477 26.6569 78.0343 26.5723 77.6237 26.3953C77.2132 26.2182 76.8812 25.9445 76.6277 25.5742C76.3741 25.204 76.2473 24.7391 76.2473 24.1797V15.0338ZM88.46 26.5281L85.7313 17.2553H87.5968L89.4139 24.065H89.5044L91.3276 17.2553H93.193L95.0041 24.0348H95.0946L96.8997 17.2553H98.7651L96.0424 26.5281H94.2012L92.3176 19.8331H92.1788L90.2953 26.5281H88.46ZM100.478 26.5281V17.2553H102.283V26.5281H100.478ZM101.39 15.8246C101.076 15.8246 100.806 15.72 100.581 15.5107C100.359 15.2974 100.249 15.0438 100.249 14.75C100.249 14.4522 100.359 14.1986 100.581 13.9894C100.806 13.7761 101.076 13.6694 101.39 13.6694C101.704 13.6694 101.971 13.7761 102.193 13.9894C102.418 14.1986 102.531 14.4522 102.531 14.75C102.531 15.0438 102.418 15.2974 102.193 15.5107C101.971 15.72 101.704 15.8246 101.39 15.8246ZM109.04 17.2553V18.7042H103.975V17.2553H109.04ZM105.333 15.0338H107.138V23.8054C107.138 24.1556 107.191 24.4192 107.295 24.5963C107.4 24.7693 107.535 24.888 107.7 24.9524C107.869 25.0128 108.052 25.043 108.249 25.043C108.394 25.043 108.521 25.0329 108.629 25.0128C108.738 24.9927 108.823 24.9766 108.883 24.9645L109.209 26.4556C109.104 26.4959 108.955 26.5361 108.762 26.5764C108.569 26.6206 108.328 26.6448 108.038 26.6488C107.563 26.6569 107.12 26.5723 106.71 26.3953C106.299 26.2182 105.967 25.9445 105.714 25.5742C105.46 25.204 105.333 24.7391 105.333 24.1797V15.0338ZM113.041 21.0224V26.5281H111.236V14.1644H113.017V18.7646H113.131C113.349 18.2655 113.681 17.8691 114.128 17.5753C114.574 17.2815 115.158 17.1346 115.878 17.1346C116.514 17.1346 117.07 17.2654 117.544 17.527C118.023 17.7886 118.394 18.179 118.655 18.6982C118.921 19.2133 119.054 19.8573 119.054 20.63V26.5281H117.249V20.8473C117.249 20.1672 117.074 19.6399 116.723 19.2656C116.373 18.8873 115.886 18.6982 115.262 18.6982C114.836 18.6982 114.454 18.7887 114.115 18.9698C113.781 19.1509 113.518 19.4166 113.325 19.7667C113.135 20.1128 113.041 20.5314 113.041 21.0224ZM125.961 26.5281V17.2553H127.694V18.7646H127.809C128.002 18.2535 128.318 17.855 128.757 17.5693C129.195 17.2795 129.72 17.1346 130.332 17.1346C130.952 17.1346 131.471 17.2795 131.89 17.5693C132.312 17.859 132.624 18.2575 132.825 18.7646H132.922C133.143 18.2696 133.496 17.8751 133.978 17.5813C134.461 17.2835 135.037 17.1346 135.705 17.1346C136.546 17.1346 137.232 17.3982 137.764 17.9254C138.299 18.4527 138.567 19.2475 138.567 20.31V26.5281H136.762V20.4791C136.762 19.8512 136.59 19.3964 136.248 19.1147C135.906 18.833 135.498 18.6921 135.023 18.6921C134.435 18.6921 133.978 18.8732 133.652 19.2355C133.327 19.5937 133.164 20.0545 133.164 20.6179V26.5281H131.364V20.3644C131.364 19.8613 131.208 19.4568 130.894 19.1509C130.58 18.8451 130.171 18.6921 129.668 18.6921C129.326 18.6921 129.01 18.7827 128.72 18.9638C128.435 19.1409 128.203 19.3884 128.026 19.7063C127.853 20.0243 127.766 20.3925 127.766 20.8111V26.5281H125.961ZM144.982 26.7152C144.069 26.7152 143.282 26.52 142.622 26.1296C141.966 25.7352 141.459 25.1818 141.101 24.4695C140.746 23.7531 140.569 22.914 140.569 21.9521C140.569 21.0023 140.746 20.1651 141.101 19.4407C141.459 18.7163 141.958 18.1508 142.598 17.7443C143.242 17.3379 143.994 17.1346 144.856 17.1346C145.379 17.1346 145.886 17.2211 146.377 17.3942C146.868 17.5673 147.309 17.8389 147.699 18.2092C148.089 18.5794 148.397 19.0604 148.623 19.652C148.848 20.2396 148.961 20.954 148.961 21.7951V22.435H141.59V21.0828H147.192C147.192 20.6079 147.095 20.1873 146.902 19.821C146.709 19.4508 146.437 19.159 146.087 18.9457C145.741 18.7324 145.334 18.6257 144.868 18.6257C144.36 18.6257 143.918 18.7505 143.539 19C143.165 19.2455 142.875 19.5675 142.67 19.9659C142.469 20.3603 142.368 20.789 142.368 21.2518V22.3083C142.368 22.928 142.477 23.4553 142.694 23.8899C142.916 24.3246 143.224 24.6566 143.618 24.886C144.012 25.1114 144.473 25.2241 145 25.2241C145.343 25.2241 145.654 25.1758 145.936 25.0792C146.218 24.9786 146.461 24.8297 146.667 24.6325C146.872 24.4353 147.029 24.1918 147.137 23.902L148.846 24.2099C148.709 24.713 148.464 25.1537 148.109 25.532C147.759 25.9063 147.319 26.1981 146.787 26.4073C146.26 26.6126 145.658 26.7152 144.982 26.7152ZM159.368 26.7152C158.499 26.7152 157.74 26.516 157.092 26.1176C156.444 25.7191 155.941 25.1617 155.583 24.4453C155.225 23.7289 155.046 22.8918 155.046 21.934C155.046 20.9721 155.225 20.1309 155.583 19.4105C155.941 18.6901 156.444 18.1307 157.092 17.7323C157.74 17.3338 158.499 17.1346 159.368 17.1346C160.238 17.1346 160.996 17.3338 161.644 17.7323C162.292 18.1307 162.795 18.6901 163.153 19.4105C163.512 20.1309 163.691 20.9721 163.691 21.934C163.691 22.8918 163.512 23.7289 163.153 24.4453C162.795 25.1617 162.292 25.7191 161.644 26.1176C160.996 26.516 160.238 26.7152 159.368 26.7152ZM159.374 25.1999C159.938 25.1999 160.405 25.051 160.775 24.7532C161.145 24.4554 161.419 24.059 161.596 23.5639C161.777 23.0689 161.868 22.5236 161.868 21.9279C161.868 21.3363 161.777 20.793 161.596 20.298C161.419 19.7989 161.145 19.3985 160.775 19.0966C160.405 18.7948 159.938 18.6438 159.374 18.6438C158.807 18.6438 158.336 18.7948 157.962 19.0966C157.591 19.3985 157.316 19.7989 157.135 20.298C156.958 20.793 156.869 21.3363 156.869 21.9279C156.869 22.5236 156.958 23.0689 157.135 23.5639C157.316 24.059 157.591 24.4554 157.962 24.7532C158.336 25.051 158.807 25.1999 159.374 25.1999ZM167.511 21.0224V26.5281H165.706V17.2553H167.438V18.7646H167.553C167.766 18.2736 168.1 17.8792 168.555 17.5813C169.014 17.2835 169.591 17.1346 170.288 17.1346C170.919 17.1346 171.473 17.2674 171.948 17.533C172.423 17.7946 172.791 18.185 173.053 18.7042C173.314 19.2234 173.445 19.8653 173.445 20.63V26.5281H171.64V20.8473C171.64 20.1752 171.465 19.65 171.115 19.2717C170.765 18.8893 170.284 18.6982 169.672 18.6982C169.253 18.6982 168.881 18.7887 168.555 18.9698C168.233 19.1509 167.977 19.4166 167.788 19.7667C167.603 20.1128 167.511 20.5314 167.511 21.0224Z" fill="#E8E8E8"/>
<path d="M179.942 13.6644H183.642L186.781 21.3193H186.926L190.066 13.6644H193.766V26.0281H190.856V18.4336H190.754L187.784 25.9496H185.924L182.954 18.3914H182.851V26.0281H179.942V13.6644ZM198.244 26.185C197.652 26.185 197.127 26.0864 196.668 25.8892C196.214 25.688 195.853 25.3861 195.588 24.9837C195.326 24.5772 195.195 24.0681 195.195 23.4563C195.195 22.9412 195.286 22.5065 195.467 22.1524C195.648 21.7982 195.898 21.5104 196.216 21.2891C196.534 21.0677 196.9 20.9007 197.314 20.788C197.729 20.6713 198.172 20.5928 198.642 20.5526C199.17 20.5043 199.594 20.454 199.916 20.4017C200.238 20.3453 200.472 20.2668 200.617 20.1662C200.765 20.0616 200.84 19.9147 200.84 19.7255V19.6953C200.84 19.3854 200.733 19.146 200.52 18.9769C200.307 18.8079 200.019 18.7234 199.657 18.7234C199.266 18.7234 198.952 18.8079 198.715 18.9769C198.477 19.146 198.327 19.3794 198.262 19.6772L195.54 19.5806C195.62 19.0172 195.827 18.5141 196.161 18.0714C196.499 17.6247 196.962 17.2745 197.55 17.021C198.141 16.7634 198.852 16.6346 199.681 16.6346C200.272 16.6346 200.818 16.705 201.317 16.8459C201.816 16.9827 202.251 17.184 202.621 17.4496C202.991 17.7112 203.277 18.0332 203.478 18.4155C203.683 18.7978 203.786 19.2345 203.786 19.7255V26.0281H201.009V24.7362H200.937C200.772 25.0501 200.56 25.3157 200.303 25.533C200.049 25.7504 199.749 25.9134 199.403 26.022C199.061 26.1307 198.675 26.185 198.244 26.185ZM199.156 24.2532C199.474 24.2532 199.759 24.1888 200.013 24.06C200.27 23.9312 200.476 23.7542 200.629 23.5288C200.782 23.2994 200.858 23.0338 200.858 22.7319V21.8505C200.774 21.8948 200.671 21.935 200.55 21.9713C200.433 22.0075 200.305 22.0417 200.164 22.0739C200.023 22.1061 199.878 22.1343 199.729 22.1584C199.58 22.1825 199.437 22.2047 199.301 22.2248C199.023 22.2691 198.785 22.3375 198.588 22.4301C198.395 22.5226 198.246 22.6434 198.141 22.7923C198.041 22.9372 197.99 23.1102 197.99 23.3115C197.99 23.6173 198.099 23.8508 198.316 24.0117C198.538 24.1727 198.818 24.2532 199.156 24.2532ZM210.825 16.7553V18.9286H204.975V16.7553H210.825ZM206.201 14.5338H209.153V23.1122C209.153 23.2933 209.181 23.4402 209.237 23.5529C209.298 23.6616 209.384 23.7401 209.497 23.7884C209.61 23.8326 209.744 23.8548 209.901 23.8548C210.014 23.8548 210.133 23.8447 210.258 23.8246C210.386 23.8004 210.483 23.7803 210.547 23.7642L210.994 25.8953C210.853 25.9355 210.654 25.9858 210.396 26.0462C210.143 26.1066 209.839 26.1448 209.485 26.1609C208.793 26.1931 208.199 26.1126 207.704 25.9194C207.213 25.7222 206.837 25.4163 206.575 25.0018C206.317 24.5873 206.193 24.0661 206.201 23.4382V14.5338ZM212.331 26.0281V16.7553H215.199V18.4457H215.295C215.464 17.8339 215.74 17.3792 216.122 17.0813C216.505 16.7795 216.949 16.6286 217.457 16.6286C217.593 16.6286 217.734 16.6386 217.879 16.6588C218.024 16.6749 218.159 16.701 218.284 16.7372V19.3029C218.143 19.2546 217.958 19.2164 217.728 19.1882C217.503 19.1601 217.302 19.146 217.125 19.146C216.774 19.146 216.458 19.2245 216.177 19.3814C215.899 19.5343 215.68 19.7497 215.519 20.0274C215.362 20.301 215.283 20.623 215.283 20.9933V26.0281H212.331ZM219.486 26.0281V16.7553H222.439V26.0281H219.486ZM220.966 15.6747C220.551 15.6747 220.195 15.5379 219.897 15.2642C219.599 14.9865 219.45 14.6525 219.45 14.2621C219.45 13.8757 219.599 13.5457 219.897 13.272C220.195 12.9943 220.551 12.8555 220.966 12.8555C221.384 12.8555 221.74 12.9943 222.034 13.272C222.332 13.5457 222.481 13.8757 222.481 14.2621C222.481 14.6525 222.332 14.9865 222.034 15.2642C221.74 15.5379 221.384 15.6747 220.966 15.6747ZM226.829 16.7553L228.356 19.81L229.938 16.7553H232.914L230.324 21.3917L233.011 26.0281H230.059L228.356 22.9492L226.696 26.0281H223.702L226.394 21.3917L223.835 16.7553H226.829Z" fill="white"/>
</g>
</g>
<rect x="1.05586" y="1.07808" width="239.9" height="37.9" rx="6.95" stroke="white" stroke-opacity="0.15" stroke-width="2.1"/>
<defs>
<filter id="filter0_d_2_3275" x="2.29157" y="0.313791" width="39.4286" height="39.4286" filterUnits="userSpaceOnUse" color-interpolation-filters="sRGB">
<feFlood flood-opacity="0" result="BackgroundImageFix"/>
<feColorMatrix in="SourceAlpha" type="matrix" values="0 0 0 0 0 0 0 0 0 0 0 0 0 0 0 0 0 0 127 0" result="hardAlpha"/>
<feOffset/>
<feGaussianBlur stdDeviation="2.85714"/>
<feComposite in2="hardAlpha" operator="out"/>
<feColorMatrix type="matrix" values="0 0 0 0 0 0 0 0 0 0 0 0 0 0 0 0 0 0 0.25 0"/>
<feBlend mode="normal" in2="BackgroundImageFix" result="effect1_dropShadow_2_3275"/>
<feBlend mode="normal" in="SourceGraphic" in2="effect1_dropShadow_2_3275" result="shape"/>
</filter>
<filter id="filter1_d_2_3275" x="36.4059" y="3.92808" width="203.2" height="32.2" filterUnits="userSpaceOnUse" color-interpolation-filters="sRGB">
<feFlood flood-opacity="0" result="BackgroundImageFix"/>
<feColorMatrix in="SourceAlpha" type="matrix" values="0 0 0 0 0 0 0 0 0 0 0 0 0 0 0 0 0 0 127 0" result="hardAlpha"/>
<feOffset/>
<feGaussianBlur stdDeviation="2.8"/>
<feComposite in2="hardAlpha" operator="out"/>
<feColorMatrix type="matrix" values="0 0 0 0 0 0 0 0 0 0 0 0 0 0 0 0 0 0 0.25 0"/>
<feBlend mode="normal" in2="BackgroundImageFix" result="effect1_dropShadow_2_3275"/>
<feBlend mode="normal" in="SourceGraphic" in2="effect1_dropShadow_2_3275" result="shape"/>
</filter>
<linearGradient id="paint0_linear_2_3275" x1="121.006" y1="0.0280762" x2="121.006" y2="40.0281" gradientUnits="userSpaceOnUse">
<stop stop-color="#373737"/>
<stop offset="1" stop-color="#202020"/>
</linearGradient>
<clipPath id="clip0_2_3275">
<rect x="0.00585938" y="0.0280762" width="242" height="40" rx="8" fill="white"/>
</clipPath>
<clipPath id="clip1_2_3275">
<rect width="24.5" height="28" fill="white" transform="translate(9.75586 6.02808)"/>
</clipPath>
</defs>
</svg>
