<svg width="229" height="41" viewBox="0 0 229 41" fill="none" xmlns="http://www.w3.org/2000/svg">
<g clip-path="url(#clip0_28_2802)">
<rect x="0.00585938" y="0.0111694" width="228.001" height="40.0014" rx="8" fill="url(#paint0_linear_28_2802)"/>
<g filter="url(#filter0_d_28_2802)">
<path d="M13.9088 23.7127C13.9088 25.3402 12.5945 26.6555 10.9683 26.6555C9.34214 26.6555 8.02783 25.3402 8.02783 23.7127C8.02783 22.0852 9.34214 20.7699 10.9683 20.7699H13.9088V23.7127ZM15.379 23.7127C15.379 22.0852 16.6933 20.7699 18.3195 20.7699C19.9457 20.7699 21.26 22.0852 21.26 23.7127V31.0698C21.26 32.6973 19.9457 34.0126 18.3195 34.0126C16.6933 34.0126 15.379 32.6973 15.379 31.0698V23.7127Z" fill="#E01E5A"/>
<path d="M18.3198 11.8968C16.6936 11.8968 15.3793 10.5815 15.3793 8.95399C15.3793 7.32652 16.6936 6.01117 18.3198 6.01117C19.946 6.01117 21.2603 7.32652 21.2603 8.95399V11.8968H18.3198ZM18.3198 13.3905C19.946 13.3905 21.2603 14.7059 21.2603 16.3333C21.2603 17.9608 19.946 19.2762 18.3198 19.2762H10.9463C9.32017 19.2762 8.00586 17.9608 8.00586 16.3333C8.00586 14.7059 9.32017 13.3905 10.9463 13.3905H18.3198Z" fill="#36C5F0"/>
<path d="M30.1041 16.3333C30.1041 14.7059 31.4184 13.3905 33.0446 13.3905C34.6708 13.3905 35.9851 14.7059 35.9851 16.3333C35.9851 17.9608 34.6708 19.2762 33.0446 19.2762H30.1041V16.3333ZM28.6339 16.3333C28.6339 17.9608 27.3196 19.2762 25.6934 19.2762C24.0672 19.2762 22.7529 17.9608 22.7529 16.3333V8.95399C22.7529 7.32652 24.0672 6.01117 25.6934 6.01117C27.3196 6.01117 28.6339 7.32652 28.6339 8.95399V16.3333Z" fill="#2EB67D"/>
<path d="M25.6934 28.127C27.3196 28.127 28.6339 29.4423 28.6339 31.0698C28.6339 32.6973 27.3196 34.0126 25.6934 34.0126C24.0672 34.0126 22.7529 32.6973 22.7529 31.0698V28.127H25.6934ZM25.6934 26.6555C24.0672 26.6555 22.7529 25.3402 22.7529 23.7127C22.7529 22.0852 24.0672 20.7699 25.6934 20.7699H33.0669C34.6931 20.7699 36.0074 22.0852 36.0074 23.7127C36.0074 25.3402 34.6931 26.6555 33.0669 26.6555H25.6934Z" fill="#ECB22E"/>
</g>
<g filter="url(#filter1_d_28_2802)">
<path d="M53.6345 18.1688H51.7509C51.6785 17.7664 51.5437 17.4122 51.3465 17.1063C51.1492 16.8005 50.9078 16.5409 50.622 16.3276C50.3363 16.1143 50.0163 15.9533 49.6622 15.8446C49.312 15.7359 48.9397 15.6816 48.5453 15.6816C47.833 15.6816 47.1951 15.8607 46.6316 16.2189C46.0722 16.5771 45.6295 17.1023 45.3035 17.7945C44.9815 18.4868 44.8205 19.3319 44.8205 20.33C44.8205 21.3362 44.9815 22.1854 45.3035 22.8776C45.6295 23.5699 46.0742 24.0931 46.6376 24.4472C47.2011 24.8014 47.835 24.9785 48.5393 24.9785C48.9297 24.9785 49.2999 24.9262 49.6501 24.8215C50.0042 24.7129 50.3242 24.5539 50.6099 24.3446C50.8957 24.1353 51.1372 23.8798 51.3344 23.5779C51.5356 23.272 51.6745 22.9219 51.7509 22.5275L53.6345 22.5335C53.5338 23.1412 53.3386 23.7007 53.0489 24.2118C52.7631 24.7189 52.3949 25.1576 51.9441 25.5278C51.4974 25.8941 50.9863 26.1778 50.4107 26.3791C49.8352 26.5803 49.2074 26.6809 48.5272 26.6809C47.4567 26.6809 46.5028 26.4273 45.6657 25.9202C44.8286 25.4091 44.1685 24.6787 43.6856 23.7288C43.2067 22.779 42.9672 21.6461 42.9672 20.33C42.9672 19.01 43.2087 17.877 43.6916 16.9313C44.1746 15.9814 44.8346 15.253 45.6717 14.7459C46.5089 14.2348 47.4607 13.9792 48.5272 13.9792C49.1832 13.9792 49.795 14.0738 50.3624 14.2629C50.9339 14.4481 51.4471 14.7217 51.9019 15.084C52.3566 15.4421 52.7329 15.8808 53.0308 16.4C53.3286 16.9152 53.5298 17.5048 53.6345 18.1688ZM57.5268 21.0062V26.5119H55.7217V14.1482H57.5026V18.7484H57.6173C57.8346 18.2493 58.1667 17.8529 58.6134 17.5591C59.0601 17.2653 59.6437 17.1184 60.3641 17.1184C61 17.1184 61.5554 17.2492 62.0303 17.5108C62.5092 17.7724 62.8795 18.1628 63.1411 18.682C63.4067 19.1971 63.5395 19.8411 63.5395 20.6138V26.5119H61.7345V20.8311C61.7345 20.151 61.5594 19.6237 61.2093 19.2494C60.8591 18.8711 60.3722 18.682 59.7484 18.682C59.3217 18.682 58.9394 18.7725 58.6013 18.9536C58.2673 19.1347 58.0037 19.4004 57.8105 19.7505C57.6213 20.0966 57.5268 20.5152 57.5268 21.0062ZM68.6468 26.7171C68.0592 26.7171 67.5279 26.6085 67.053 26.3911C66.5781 26.1698 66.2018 25.8498 65.9241 25.4313C65.6505 25.0127 65.5136 24.4996 65.5136 23.8918C65.5136 23.3686 65.6142 22.938 65.8155 22.5999C66.0167 22.2619 66.2884 21.9942 66.6305 21.797C66.9725 21.5998 67.3549 21.4509 67.7775 21.3503C68.2001 21.2497 68.6307 21.1732 69.0694 21.1209C69.6248 21.0565 70.0755 21.0042 70.4216 20.9639C70.7678 20.9197 71.0193 20.8492 71.1763 20.7526C71.3332 20.656 71.4117 20.4991 71.4117 20.2818V20.2395C71.4117 19.7123 71.2628 19.3038 70.965 19.014C70.6712 18.7242 70.2325 18.5793 69.6489 18.5793C69.0412 18.5793 68.5623 18.7142 68.2121 18.9838C67.866 19.2494 67.6265 19.5452 67.4937 19.8712L65.7974 19.4849C65.9986 18.9214 66.2924 18.4667 66.6787 18.1205C67.0691 17.7704 67.5179 17.5168 68.025 17.3599C68.5321 17.1989 69.0653 17.1184 69.6248 17.1184C69.995 17.1184 70.3874 17.1627 70.802 17.2512C71.2205 17.3357 71.6109 17.4927 71.9731 17.7221C72.3394 17.9515 72.6392 18.2795 72.8726 18.7061C73.1061 19.1287 73.2228 19.6781 73.2228 20.3542V26.5119H71.46V25.2441H71.3876C71.2708 25.4775 71.0958 25.7069 70.8623 25.9323C70.6289 26.1577 70.3291 26.3448 69.9628 26.4938C69.5966 26.6427 69.1579 26.7171 68.6468 26.7171ZM69.0392 25.2683C69.5382 25.2683 69.9649 25.1697 70.319 24.9724C70.6772 24.7752 70.9489 24.5177 71.134 24.1997C71.3232 23.8778 71.4177 23.5336 71.4177 23.1674V21.9721C71.3533 22.0365 71.2286 22.0969 71.0434 22.1532C70.8623 22.2055 70.6551 22.2518 70.4216 22.2921C70.1882 22.3283 69.9608 22.3625 69.7395 22.3947C69.5181 22.4229 69.333 22.447 69.1841 22.4671C68.8339 22.5114 68.514 22.5858 68.2242 22.6905C67.9385 22.7951 67.7091 22.9461 67.536 23.1433C67.367 23.3364 67.2824 23.594 67.2824 23.916C67.2824 24.3627 67.4475 24.7008 67.7775 24.9302C68.1075 25.1556 68.5281 25.2683 69.0392 25.2683ZM79.9555 17.2391V18.688H74.8905V17.2391H79.9555ZM76.2488 15.0176H78.0538V23.7892C78.0538 24.1394 78.1062 24.403 78.2108 24.58C78.3154 24.7531 78.4503 24.8718 78.6153 24.9362C78.7843 24.9966 78.9674 25.0268 79.1646 25.0268C79.3095 25.0268 79.4363 25.0167 79.545 24.9966C79.6536 24.9765 79.7381 24.9604 79.7985 24.9483L80.1245 26.4394C80.0199 26.4797 79.8709 26.5199 79.6778 26.5602C79.4846 26.6044 79.2431 26.6286 78.9533 26.6326C78.4784 26.6407 78.0357 26.5561 77.6252 26.3791C77.2147 26.202 76.8827 25.9283 76.6291 25.558C76.3756 25.1878 76.2488 24.7229 76.2488 24.1635V15.0176ZM88.4615 26.5119L85.7328 17.2391H87.5982L89.4153 24.0488H89.5059L91.329 17.2391H93.1945L95.0055 24.0186H95.0961L96.9011 17.2391H98.7665L96.0439 26.5119H94.2026L92.3191 19.8169H92.1802L90.2967 26.5119H88.4615ZM100.48 26.5119V17.2391H102.285V26.5119H100.48ZM101.391 15.8084C101.077 15.8084 100.808 15.7037 100.582 15.4945C100.361 15.2812 100.25 15.0276 100.25 14.7338C100.25 14.436 100.361 14.1824 100.582 13.9732C100.808 13.7599 101.077 13.6532 101.391 13.6532C101.705 13.6532 101.973 13.7599 102.194 13.9732C102.419 14.1824 102.532 14.436 102.532 14.7338C102.532 15.0276 102.419 15.2812 102.194 15.4945C101.973 15.7037 101.705 15.8084 101.391 15.8084ZM109.041 17.2391V18.688H103.976V17.2391H109.041ZM105.335 15.0176H107.14V23.7892C107.14 24.1394 107.192 24.403 107.297 24.58C107.401 24.7531 107.536 24.8718 107.701 24.9362C107.87 24.9966 108.053 25.0268 108.251 25.0268C108.395 25.0268 108.522 25.0167 108.631 24.9966C108.74 24.9765 108.824 24.9604 108.884 24.9483L109.21 26.4394C109.106 26.4797 108.957 26.5199 108.764 26.5602C108.571 26.6044 108.329 26.6286 108.039 26.6326C107.564 26.6407 107.122 26.5561 106.711 26.3791C106.301 26.202 105.969 25.9283 105.715 25.558C105.461 25.1878 105.335 24.7229 105.335 24.1635V15.0176ZM113.042 21.0062V26.5119H111.237V14.1482H113.018V18.7484H113.133C113.35 18.2493 113.682 17.8529 114.129 17.5591C114.576 17.2653 115.159 17.1184 115.88 17.1184C116.516 17.1184 117.071 17.2492 117.546 17.5108C118.025 17.7724 118.395 18.1628 118.657 18.682C118.922 19.1971 119.055 19.8411 119.055 20.6138V26.5119H117.25V20.8311C117.25 20.151 117.075 19.6237 116.725 19.2494C116.375 18.8711 115.888 18.682 115.264 18.682C114.837 18.682 114.455 18.7725 114.117 18.9536C113.783 19.1347 113.519 19.4004 113.326 19.7505C113.137 20.0966 113.042 20.5152 113.042 21.0062ZM131.837 22.6663V17.2391H133.648V26.5119H131.873V24.906H131.776C131.563 25.4011 131.221 25.8136 130.75 26.1436C130.283 26.4696 129.702 26.6326 129.006 26.6326C128.41 26.6326 127.883 26.5018 127.424 26.2402C126.969 25.9746 126.611 25.5822 126.349 25.063C126.092 24.5438 125.963 23.9019 125.963 23.1372V17.2391H127.768V22.9199C127.768 23.5518 127.943 24.0548 128.293 24.4291C128.643 24.8034 129.098 24.9906 129.658 24.9906C129.996 24.9906 130.332 24.906 130.666 24.737C131.004 24.568 131.283 24.3124 131.505 23.9703C131.73 23.6282 131.841 23.1936 131.837 22.6663ZM143.022 19.503L141.386 19.7928C141.317 19.5835 141.209 19.3843 141.06 19.1951C140.915 19.0059 140.718 18.851 140.468 18.7303C140.219 18.6095 139.907 18.5492 139.532 18.5492C139.021 18.5492 138.595 18.6639 138.253 18.8933C137.91 19.1186 137.739 19.4104 137.739 19.7686C137.739 20.0785 137.854 20.328 138.084 20.5172C138.313 20.7064 138.683 20.8613 139.194 20.982L140.667 21.3201C141.521 21.5173 142.156 21.8212 142.575 22.2317C142.994 22.6422 143.203 23.1755 143.203 23.8315C143.203 24.3869 143.042 24.8819 142.72 25.3166C142.402 25.7472 141.957 26.0853 141.386 26.3308C140.818 26.5763 140.16 26.699 139.412 26.699C138.373 26.699 137.526 26.4777 136.87 26.0349C136.214 25.5882 135.812 24.9543 135.663 24.1333L137.407 23.8677C137.516 24.3225 137.739 24.6666 138.078 24.9C138.416 25.1294 138.856 25.2441 139.4 25.2441C139.991 25.2441 140.464 25.1214 140.818 24.8759C141.172 24.6263 141.35 24.3225 141.35 23.9643C141.35 23.6745 141.241 23.431 141.024 23.2338C140.81 23.0366 140.482 22.8877 140.04 22.7871L138.47 22.443C137.605 22.2458 136.965 21.9318 136.55 21.5012C136.14 21.0706 135.934 20.5252 135.934 19.8652C135.934 19.3179 136.087 18.8389 136.393 18.4284C136.699 18.0179 137.122 17.6979 137.661 17.4685C138.2 17.2351 138.818 17.1184 139.514 17.1184C140.516 17.1184 141.305 17.3357 141.881 17.7704C142.456 18.201 142.837 18.7786 143.022 19.503ZM153.592 26.699C152.723 26.699 151.964 26.4998 151.317 26.1014C150.669 25.7029 150.165 25.1455 149.807 24.4291C149.449 23.7127 149.27 22.8756 149.27 21.9178C149.27 20.9559 149.449 20.1147 149.807 19.3943C150.165 18.6739 150.669 18.1145 151.317 17.7161C151.964 17.3176 152.723 17.1184 153.592 17.1184C154.462 17.1184 155.22 17.3176 155.868 17.7161C156.516 18.1145 157.019 18.6739 157.378 19.3943C157.736 20.1147 157.915 20.9559 157.915 21.9178C157.915 22.8756 157.736 23.7127 157.378 24.4291C157.019 25.1455 156.516 25.7029 155.868 26.1014C155.22 26.4998 154.462 26.699 153.592 26.699ZM153.598 25.1837C154.162 25.1837 154.629 25.0348 154.999 24.737C155.369 24.4392 155.643 24.0428 155.82 23.5477C156.001 23.0527 156.092 22.5074 156.092 21.9117C156.092 21.3201 156.001 20.7768 155.82 20.2818C155.643 19.7827 155.369 19.3823 154.999 19.0804C154.629 18.7786 154.162 18.6276 153.598 18.6276C153.031 18.6276 152.56 18.7786 152.186 19.0804C151.816 19.3823 151.54 19.7827 151.359 20.2818C151.182 20.7768 151.093 21.3201 151.093 21.9117C151.093 22.5074 151.182 23.0527 151.359 23.5477C151.54 24.0428 151.816 24.4392 152.186 24.737C152.56 25.0348 153.031 25.1837 153.598 25.1837ZM161.735 21.0062V26.5119H159.93V17.2391H161.662V18.7484H161.777C161.99 18.2574 162.324 17.863 162.779 17.5651C163.238 17.2673 163.815 17.1184 164.512 17.1184C165.144 17.1184 165.697 17.2512 166.172 17.5168C166.647 17.7784 167.015 18.1688 167.277 18.688C167.538 19.2072 167.669 19.8491 167.669 20.6138V26.5119H165.864V20.8311C165.864 20.159 165.689 19.6338 165.339 19.2555C164.989 18.8731 164.508 18.682 163.896 18.682C163.477 18.682 163.105 18.7725 162.779 18.9536C162.457 19.1347 162.202 19.4004 162.012 19.7505C161.827 20.0966 161.735 20.5152 161.735 21.0062Z" fill="#E8E8E8"/>
<path d="M180.626 17.8549C180.586 17.4122 180.407 17.0681 180.089 16.8226C179.775 16.5731 179.326 16.4483 178.742 16.4483C178.356 16.4483 178.034 16.4986 177.776 16.5992C177.519 16.6998 177.326 16.8387 177.197 17.0158C177.068 17.1888 177.002 17.3881 176.998 17.6134C176.99 17.7986 177.026 17.9616 177.106 18.1024C177.191 18.2433 177.312 18.368 177.469 18.4767C177.63 18.5814 177.823 18.6739 178.048 18.7544C178.274 18.8349 178.527 18.9053 178.809 18.9657L179.871 19.2072C180.483 19.34 181.022 19.5171 181.489 19.7384C181.96 19.9598 182.355 20.2234 182.672 20.5293C182.994 20.8351 183.238 21.1873 183.403 21.5857C183.568 21.9842 183.652 22.4309 183.656 22.9259C183.652 23.7067 183.455 24.3768 183.065 24.9362C182.674 25.4956 182.113 25.9243 181.381 26.2221C180.652 26.5199 179.773 26.6688 178.742 26.6688C177.708 26.6688 176.807 26.5139 176.038 26.204C175.269 25.8941 174.672 25.4232 174.245 24.7913C173.818 24.1595 173.599 23.3606 173.587 22.3947H176.448C176.473 22.7931 176.579 23.1251 176.768 23.3908C176.957 23.6564 177.217 23.8576 177.547 23.9945C177.881 24.1313 178.268 24.1997 178.706 24.1997C179.109 24.1997 179.451 24.1454 179.732 24.0367C180.018 23.9281 180.238 23.7771 180.39 23.584C180.543 23.3908 180.622 23.1694 180.626 22.9199C180.622 22.6865 180.549 22.4872 180.409 22.3222C180.268 22.1532 180.05 22.0083 179.757 21.8876C179.467 21.7628 179.097 21.6481 178.646 21.5435L177.354 21.2416C176.283 20.9961 175.44 20.5997 174.824 20.0524C174.209 19.501 173.903 18.7564 173.907 17.8187C173.903 17.054 174.108 16.3839 174.523 15.8084C174.937 15.2329 175.511 14.7841 176.243 14.4622C176.976 14.1402 177.811 13.9792 178.748 13.9792C179.706 13.9792 180.537 14.1422 181.242 14.4682C181.95 14.7902 182.499 15.2429 182.89 15.8265C183.28 16.4101 183.479 17.0862 183.487 17.8549H180.626ZM188.118 14.1482V26.5119H185.166V14.1482H188.118ZM192.611 26.6688C192.019 26.6688 191.494 26.5702 191.035 26.373C190.58 26.1718 190.22 25.8699 189.954 25.4675C189.693 25.061 189.562 24.5519 189.562 23.9401C189.562 23.425 189.653 22.9903 189.834 22.6362C190.015 22.282 190.264 21.9942 190.582 21.7729C190.9 21.5515 191.267 21.3845 191.681 21.2718C192.096 21.1551 192.538 21.0766 193.009 21.0364C193.536 20.9881 193.961 20.9378 194.283 20.8854C194.605 20.8291 194.838 20.7506 194.983 20.65C195.132 20.5454 195.207 20.3985 195.207 20.2093V20.1791C195.207 19.8692 195.1 19.6298 194.887 19.4607C194.673 19.2917 194.386 19.2072 194.023 19.2072C193.633 19.2072 193.319 19.2917 193.082 19.4607C192.844 19.6298 192.693 19.8632 192.629 20.161L189.906 20.0644C189.987 19.501 190.194 18.9979 190.528 18.5552C190.866 18.1085 191.329 17.7583 191.916 17.5048C192.508 17.2472 193.218 17.1184 194.048 17.1184C194.639 17.1184 195.184 17.1888 195.684 17.3297C196.183 17.4665 196.617 17.6678 196.988 17.9334C197.358 18.195 197.644 18.517 197.845 18.8993C198.05 19.2816 198.153 19.7183 198.153 20.2093V26.5119H195.376V25.22H195.303C195.138 25.5339 194.927 25.7995 194.669 26.0168C194.416 26.2342 194.116 26.3972 193.77 26.5058C193.428 26.6145 193.041 26.6688 192.611 26.6688ZM193.522 24.737C193.84 24.737 194.126 24.6726 194.38 24.5438C194.637 24.415 194.842 24.238 194.995 24.0126C195.148 23.7832 195.225 23.5175 195.225 23.2157V22.3343C195.14 22.3786 195.038 22.4188 194.917 22.455C194.8 22.4913 194.671 22.5255 194.53 22.5577C194.39 22.5899 194.245 22.618 194.096 22.6422C193.947 22.6663 193.804 22.6885 193.667 22.7086C193.39 22.7529 193.152 22.8213 192.955 22.9139C192.762 23.0064 192.613 23.1272 192.508 23.2761C192.408 23.421 192.357 23.594 192.357 23.7952C192.357 24.1011 192.466 24.3345 192.683 24.4955C192.905 24.6565 193.184 24.737 193.522 24.737ZM204.286 26.6869C203.308 26.6869 202.469 26.4857 201.769 26.0832C201.073 25.6808 200.537 25.1214 200.163 24.405C199.789 23.6846 199.602 22.8515 199.602 21.9057C199.602 20.9559 199.789 20.1228 200.163 19.4064C200.541 18.686 201.079 18.1246 201.775 17.7221C202.475 17.3196 203.31 17.1184 204.28 17.1184C205.137 17.1184 205.884 17.2734 206.52 17.5832C207.16 17.8931 207.659 18.3318 208.017 18.8993C208.379 19.4627 208.57 20.1248 208.59 20.8854H205.832C205.775 20.4105 205.614 20.0383 205.349 19.7686C205.087 19.499 204.745 19.3641 204.322 19.3641C203.98 19.3641 203.68 19.4607 203.423 19.6539C203.165 19.8431 202.964 20.1248 202.819 20.4991C202.678 20.8693 202.608 21.3282 202.608 21.8755C202.608 22.4229 202.678 22.8857 202.819 23.264C202.964 23.6383 203.165 23.922 203.423 24.1152C203.68 24.3044 203.98 24.3989 204.322 24.3989C204.596 24.3989 204.838 24.3406 205.047 24.2239C205.26 24.1072 205.435 23.9361 205.572 23.7107C205.709 23.4813 205.795 23.2036 205.832 22.8776H208.59C208.562 23.6423 208.371 24.3104 208.017 24.8819C207.667 25.4534 207.174 25.8981 206.538 26.2161C205.906 26.53 205.155 26.6869 204.286 26.6869ZM212.764 24.079L212.776 20.5595H213.186L215.794 17.2391H219.139L215.263 21.9962H214.484L212.764 24.079ZM210.101 26.5119V14.1482H213.053V26.5119H210.101ZM215.86 26.5119L213.434 22.6603L215.378 20.5655L219.271 26.5119H215.86Z" fill="#D54AD5"/>
</g>
</g>
<rect x="1.07729" y="1.0826" width="225.858" height="37.8585" rx="6.92857" stroke="white" stroke-opacity="0.15" stroke-width="2.14286"/>
<defs>
<filter id="filter0_d_28_2802" x="2.40558" y="0.410889" width="39.202" height="39.202" filterUnits="userSpaceOnUse" color-interpolation-filters="sRGB">
<feFlood flood-opacity="0" result="BackgroundImageFix"/>
<feColorMatrix in="SourceAlpha" type="matrix" values="0 0 0 0 0 0 0 0 0 0 0 0 0 0 0 0 0 0 127 0" result="hardAlpha"/>
<feOffset/>
<feGaussianBlur stdDeviation="2.80014"/>
<feComposite in2="hardAlpha" operator="out"/>
<feColorMatrix type="matrix" values="0 0 0 0 0 0 0 0 0 0 0 0 0 0 0 0 0 0 0.25 0"/>
<feBlend mode="normal" in2="BackgroundImageFix" result="effect1_dropShadow_28_2802"/>
<feBlend mode="normal" in="SourceGraphic" in2="effect1_dropShadow_28_2802" result="shape"/>
</filter>
<filter id="filter1_d_28_2802" x="36.293" y="3.79759" width="189.429" height="32.4286" filterUnits="userSpaceOnUse" color-interpolation-filters="sRGB">
<feFlood flood-opacity="0" result="BackgroundImageFix"/>
<feColorMatrix in="SourceAlpha" type="matrix" values="0 0 0 0 0 0 0 0 0 0 0 0 0 0 0 0 0 0 127 0" result="hardAlpha"/>
<feOffset/>
<feGaussianBlur stdDeviation="2.85714"/>
<feComposite in2="hardAlpha" operator="out"/>
<feColorMatrix type="matrix" values="0 0 0 0 0 0 0 0 0 0 0 0 0 0 0 0 0 0 0.25 0"/>
<feBlend mode="normal" in2="BackgroundImageFix" result="effect1_dropShadow_28_2802"/>
<feBlend mode="normal" in="SourceGraphic" in2="effect1_dropShadow_28_2802" result="shape"/>
</filter>
<linearGradient id="paint0_linear_28_2802" x1="113.186" y1="0.0111918" x2="113.186" y2="40.0126" gradientUnits="userSpaceOnUse">
<stop stop-color="#2C0C2C"/>
<stop offset="1" stop-color="#1C081C"/>
</linearGradient>
<clipPath id="clip0_28_2802">
<rect x="0.00585938" y="0.0111694" width="228.001" height="40.0014" rx="8" fill="white"/>
</clipPath>
</defs>
</svg>
