<svg width="41" height="40" viewBox="0 0 41 40" fill="none" xmlns="http://www.w3.org/2000/svg">
<rect x="0.0107422" y="-0.00012207" width="40" height="40" rx="8" fill="url(#paint0_linear_2_2537)"/>
<g filter="url(#filter0_d_2_2537)">
<path d="M20.07 7.3125C17.8876 7.31379 15.7429 7.8818 13.8458 8.96094C11.9487 10.0401 10.3644 11.5934 9.24778 13.4687C8.13118 15.3441 7.52063 17.4773 7.47588 19.6595C7.43113 21.8418 7.95371 23.9982 8.99249 25.9178L6.7124 33.2531L14.9 31.4033C16.6133 32.1753 18.4775 32.5543 20.3562 32.5124C22.2348 32.4706 24.0803 32.0091 25.7576 31.1617C27.4348 30.3143 28.9013 29.1024 30.0497 27.6148C31.198 26.1272 31.9991 24.4016 32.3943 22.5643C32.7895 20.727 32.7688 18.8246 32.3337 16.9963C31.8986 15.1681 31.0602 13.4603 29.8798 11.9981C28.6993 10.5358 27.2068 9.35612 25.5115 8.54539C23.8163 7.73466 21.9611 7.31342 20.082 7.3125H20.07Z" fill="#FFF9AE"/>
<path d="M30.0673 12.2478C31.7658 14.4749 32.6737 17.2045 32.6475 20.0053C32.6213 22.8061 31.6626 25.5183 29.9228 27.7132C28.183 29.9082 25.7615 31.4606 23.0408 32.1253C20.3202 32.7899 17.4557 32.5289 14.9 31.3833L6.7124 33.257L15.0475 32.2723C17.7165 33.836 20.8676 34.3628 23.9001 33.7523C26.9326 33.1418 29.6344 31.4367 31.4906 28.962C33.3468 26.4873 34.2276 23.416 33.9651 20.3335C33.7027 17.2511 32.3152 14.373 30.0673 12.2478Z" fill="#00AEEF"/>
<path d="M27.7474 9.92383C29.6689 11.9614 30.8567 14.5813 31.123 17.3694C31.3893 20.1575 30.719 22.9549 29.2179 25.3195C27.7169 27.684 25.4707 29.4808 22.8344 30.426C20.1981 31.3711 17.3221 31.4107 14.6608 30.5384L6.7124 33.2572L14.9 31.4034C17.7168 32.676 20.9032 32.8683 23.8526 31.9438C26.802 31.0193 29.3086 29.0426 30.8953 26.3898C32.482 23.737 33.038 20.5933 32.4576 17.5571C31.8771 14.5209 30.2007 11.8041 27.7474 9.92383Z" fill="#00A94F"/>
<path d="M9.74587 26.1969C8.63864 23.5277 8.48235 20.5589 9.3032 17.7882C10.124 15.0175 11.8721 12.6131 14.2546 10.9779C16.637 9.34275 19.509 8.57618 22.3893 8.80666C25.2696 9.03714 27.9832 10.2507 30.0753 12.2439C28.15 9.71698 25.3414 8.01061 22.2117 7.46636C19.0821 6.92211 15.8624 7.58016 13.1972 9.30876C10.532 11.0374 8.61797 13.709 7.8383 16.7887C7.05864 19.8684 7.47088 23.1291 8.99249 25.9178L6.7124 33.2531L9.74587 26.1969Z" fill="#F15D22"/>
<path d="M8.99268 25.9178C7.61871 23.3797 7.15756 20.4468 7.68633 17.6094C8.21509 14.772 9.70171 12.2022 11.8977 10.3295C14.0936 8.4568 16.8658 7.39474 19.7508 7.32087C22.6358 7.247 25.4587 8.1658 27.7476 9.92367C25.5656 7.62595 22.5982 6.23469 19.4365 6.02709C16.2748 5.81949 13.151 6.81079 10.6874 8.80349C8.22382 10.7962 6.60132 13.644 6.14319 16.7795C5.68506 19.915 6.42492 23.108 8.21538 25.7224L6.71658 33.257L8.99268 25.9178Z" fill="#E31B23"/>
</g>
<rect x="1.06074" y="1.04988" width="37.9" height="37.9" rx="6.95" stroke="white" stroke-opacity="0.15" stroke-width="2.1"/>
<defs>
<filter id="filter0_d_2_2537" x="2.01074" y="1.99988" width="36" height="36.0001" filterUnits="userSpaceOnUse" color-interpolation-filters="sRGB">
<feFlood flood-opacity="0" result="BackgroundImageFix"/>
<feColorMatrix in="SourceAlpha" type="matrix" values="0 0 0 0 0 0 0 0 0 0 0 0 0 0 0 0 0 0 127 0" result="hardAlpha"/>
<feOffset/>
<feGaussianBlur stdDeviation="2"/>
<feComposite in2="hardAlpha" operator="out"/>
<feColorMatrix type="matrix" values="0 0 0 0 0 0 0 0 0 0 0 0 0 0 0 0 0 0 0.25 0"/>
<feBlend mode="normal" in2="BackgroundImageFix" result="effect1_dropShadow_2_2537"/>
<feBlend mode="normal" in="SourceGraphic" in2="effect1_dropShadow_2_2537" result="shape"/>
</filter>
<linearGradient id="paint0_linear_2_2537" x1="20.0107" y1="-0.00012207" x2="20.0107" y2="39.9999" gradientUnits="userSpaceOnUse">
<stop stop-color="#353426"/>
<stop offset="1" stop-color="#27261C"/>
</linearGradient>
</defs>
</svg>
