<svg width="41" height="40" viewBox="0 0 41 40" fill="none" xmlns="http://www.w3.org/2000/svg">
<rect x="0.0107422" y="-6.10352e-05" width="40" height="40" rx="8" fill="url(#paint0_linear_2_2399)"/>
<g filter="url(#filter0_d_2_2399)">
<path d="M29.713 11.2451C27.9194 10.4358 26.0137 9.84717 24.0108 9.50136C23.9735 9.50136 23.9361 9.50136 23.9212 9.54551C23.6745 9.97961 23.398 10.5388 23.2112 10.9802C21.044 10.6639 18.9141 10.6639 16.8066 10.9802C16.6123 10.5241 16.3358 9.97225 16.0593 9.54551C16.0369 9.51608 16.007 9.49401 15.9696 9.50136C14.2507 9.83981 12.0536 10.4579 10.2899 11.2451C10.275 11.2451 10.26 11.2598 10.2525 11.2745C6.59064 16.6456 5.61912 21.7959 6.14225 26.9462C6.14225 26.9683 6.15719 26.9977 6.17961 27.0198C8.57106 28.7562 10.8878 29.8157 13.1746 30.4999C13.212 30.4999 13.2493 30.4999 13.2717 30.4705C13.8098 29.7495 14.2881 28.9843 14.7066 28.1749C14.729 28.1308 14.7066 28.0719 14.6543 28.0572C13.907 27.7629 13.1597 27.4245 12.4646 27.0271C12.4123 26.9977 12.4049 26.9168 12.4646 26.88C12.6141 26.7696 12.7636 26.6593 12.8981 26.5489C12.9205 26.5268 12.9579 26.5268 12.9878 26.5342C17.5764 28.5943 22.5536 28.5943 27.0375 26.5342C27.0674 26.5195 27.1048 26.5268 27.1272 26.5415C27.2692 26.6593 27.4112 26.7696 27.5606 26.88C27.613 26.9168 27.6055 26.9977 27.5606 27.0271C26.8656 27.4318 26.1407 27.7629 25.371 28.0572C25.3187 28.0793 25.2962 28.1308 25.3261 28.1823C25.7446 28.9916 26.2304 29.7495 26.7461 30.4631C26.7685 30.4926 26.8058 30.5073 26.8432 30.4926C29.13 29.7936 31.4542 28.7415 33.8531 27.0124C33.8756 26.9977 33.8905 26.9756 33.8905 26.9389C34.4734 20.9866 32.9115 15.8289 29.7503 11.2672C29.7503 11.2525 29.7279 11.2378 29.713 11.2378V11.2451ZM15.3643 23.8266C13.9443 23.8266 12.8234 22.5758 12.8234 21.0307C12.8234 19.4856 13.9443 18.2348 15.3643 18.2348C16.7842 18.2348 17.9052 19.4856 17.9052 21.0307C17.9052 22.5758 16.7842 23.8266 15.3643 23.8266ZM24.7059 23.8266C23.2859 23.8266 22.1649 22.5758 22.1649 21.0307C22.1649 19.4856 23.2859 18.2348 24.7059 18.2348C26.1258 18.2348 27.2468 19.4856 27.2468 21.0307C27.2468 22.5758 26.1258 23.8266 24.7059 23.8266Z" fill="#5865F2"/>
</g>
<rect x="1.06074" y="1.04994" width="37.9" height="37.9" rx="6.95" stroke="white" stroke-opacity="0.15" stroke-width="2.1"/>
<defs>
<filter id="filter0_d_2_2399" x="2.01074" y="1.99994" width="36" height="36" filterUnits="userSpaceOnUse" color-interpolation-filters="sRGB">
<feFlood flood-opacity="0" result="BackgroundImageFix"/>
<feColorMatrix in="SourceAlpha" type="matrix" values="0 0 0 0 0 0 0 0 0 0 0 0 0 0 0 0 0 0 127 0" result="hardAlpha"/>
<feOffset/>
<feGaussianBlur stdDeviation="2"/>
<feComposite in2="hardAlpha" operator="out"/>
<feColorMatrix type="matrix" values="0 0 0 0 0 0 0 0 0 0 0 0 0 0 0 0 0 0 0.25 0"/>
<feBlend mode="normal" in2="BackgroundImageFix" result="effect1_dropShadow_2_2399"/>
<feBlend mode="normal" in="SourceGraphic" in2="effect1_dropShadow_2_2399" result="shape"/>
</filter>
<linearGradient id="paint0_linear_2_2399" x1="20.0107" y1="-6.10351e-05" x2="20.0107" y2="39.9999" gradientUnits="userSpaceOnUse">
<stop stop-color="#1B1D31"/>
<stop offset="1" stop-color="#11121F"/>
</linearGradient>
</defs>
</svg>
