<svg width="41" height="40" viewBox="0 0 41 40" fill="none" xmlns="http://www.w3.org/2000/svg">
<rect x="0.0107422" y="-0.00012207" width="40" height="40" rx="8" fill="url(#paint0_linear_2_2548)"/>
<g filter="url(#filter0_d_2_2548)">
<path d="M20.07 7.31238C17.8876 7.31367 15.7429 7.88168 13.8458 8.96082C11.9487 10.04 10.3644 11.5932 9.24778 13.4686C8.13118 15.344 7.52063 17.4772 7.47588 19.6594C7.43113 21.8416 7.95371 23.9981 8.99249 25.9177L6.7124 33.253L14.9 31.4032C16.6133 32.1752 18.4775 32.5541 20.3562 32.5123C22.2348 32.4705 24.0803 32.009 25.7576 31.1616C27.4348 30.3141 28.9013 29.1023 30.0497 27.6147C31.198 26.1271 31.9991 24.4015 32.3943 22.5642C32.7895 20.7269 32.7688 18.8245 32.3337 16.9962C31.8986 15.168 31.0602 13.4602 29.8798 11.9979C28.6993 10.5357 27.2068 9.356 25.5115 8.54527C23.8163 7.73454 21.9611 7.31329 20.082 7.31238H20.07Z" fill="#FFF9AE"/>
<path d="M30.0673 12.2478C31.7658 14.4749 32.6737 17.2045 32.6475 20.0053C32.6213 22.8061 31.6626 25.5183 29.9228 27.7132C28.183 29.9082 25.7615 31.4606 23.0408 32.1253C20.3202 32.7899 17.4557 32.5289 14.9 31.3833L6.7124 33.257L15.0475 32.2723C17.7165 33.836 20.8676 34.3628 23.9001 33.7523C26.9326 33.1418 29.6344 31.4367 31.4906 28.962C33.3468 26.4873 34.2276 23.416 33.9651 20.3335C33.7027 17.2511 32.3152 14.373 30.0673 12.2478Z" fill="#00AEEF"/>
<path d="M27.7474 9.92371C29.6689 11.9613 30.8567 14.5811 31.123 17.3693C31.3893 20.1574 30.719 22.9548 29.2179 25.3194C27.7169 27.6839 25.4707 29.4807 22.8344 30.4259C20.1981 31.371 17.3221 31.4105 14.6608 30.5382L6.7124 33.2571L14.9 31.4033C17.7168 32.6758 20.9032 32.8682 23.8526 31.9437C26.802 31.0192 29.3086 29.0424 30.8953 26.3896C32.482 23.7368 33.038 20.5932 32.4576 17.557C31.8771 14.5208 30.2007 11.804 27.7474 9.92371Z" fill="#00A94F"/>
<path d="M9.74587 26.1967C8.63864 23.5275 8.48235 20.5588 9.3032 17.7881C10.124 15.0174 11.8721 12.613 14.2546 10.9778C16.637 9.34263 19.509 8.57606 22.3893 8.80654C25.2696 9.03702 27.9832 10.2505 30.0753 12.2438C28.15 9.71686 25.3414 8.01049 22.2117 7.46624C19.0821 6.92199 15.8624 7.58004 13.1972 9.30864C10.532 11.0372 8.61797 13.7088 7.8383 16.7886C7.05864 19.8683 7.47088 23.1289 8.99249 25.9177L6.7124 33.253L9.74587 26.1967Z" fill="#F15D22"/>
<path d="M8.99268 25.9178C7.61871 23.3797 7.15756 20.4468 7.68633 17.6094C8.21509 14.772 9.70171 12.2022 11.8977 10.3295C14.0936 8.4568 16.8658 7.39474 19.7508 7.32087C22.6358 7.247 25.4587 8.1658 27.7476 9.92367C25.5656 7.62595 22.5982 6.23469 19.4365 6.02709C16.2748 5.81949 13.151 6.81079 10.6874 8.80349C8.22382 10.7962 6.60132 13.644 6.14319 16.7795C5.68506 19.915 6.42492 23.108 8.21538 25.7224L6.71658 33.257L8.99268 25.9178Z" fill="#E31B23"/>
</g>
<rect x="1.06074" y="1.04988" width="37.9" height="37.9" rx="6.95" stroke="white" stroke-opacity="0.15" stroke-width="2.1"/>
<defs>
<filter id="filter0_d_2_2548" x="2.01074" y="1.99988" width="36" height="36.0001" filterUnits="userSpaceOnUse" color-interpolation-filters="sRGB">
<feFlood flood-opacity="0" result="BackgroundImageFix"/>
<feColorMatrix in="SourceAlpha" type="matrix" values="0 0 0 0 0 0 0 0 0 0 0 0 0 0 0 0 0 0 127 0" result="hardAlpha"/>
<feOffset/>
<feGaussianBlur stdDeviation="2"/>
<feComposite in2="hardAlpha" operator="out"/>
<feColorMatrix type="matrix" values="0 0 0 0 0 0 0 0 0 0 0 0 0 0 0 0 0 0 0.25 0"/>
<feBlend mode="normal" in2="BackgroundImageFix" result="effect1_dropShadow_2_2548"/>
<feBlend mode="normal" in="SourceGraphic" in2="effect1_dropShadow_2_2548" result="shape"/>
</filter>
<linearGradient id="paint0_linear_2_2548" x1="20.0107" y1="-0.00012207" x2="20.0107" y2="39.9999" gradientUnits="userSpaceOnUse">
<stop stop-color="#353426"/>
<stop offset="1" stop-color="#27261C"/>
</linearGradient>
</defs>
</svg>
