<svg width="40" height="40" viewBox="0 0 40 40" fill="none" xmlns="http://www.w3.org/2000/svg">
<rect width="40" height="40" rx="8" fill="url(#paint0_linear_2_2463)"/>
<rect x="1.05" y="1.05" width="37.9" height="37.9" rx="6.95" stroke="white" stroke-opacity="0.15" stroke-width="2.1"/>
<g filter="url(#filter0_d_2_2463)">
<path d="M20.0002 32.996L25.1562 17.0034H14.8442L20.0002 32.996Z" fill="#E24329"/>
<path d="M20.0001 32.996L14.8441 17.0034H7.61914L20.0001 32.996Z" fill="#FC6D26"/>
<path d="M7.61916 17.0034L6.05216 21.8636C5.98256 22.0796 5.98261 22.3123 6.05232 22.5283C6.12202 22.7443 6.25779 22.9326 6.44016 23.066L20.0002 33L7.61916 17.0034Z" fill="#FCA326"/>
<path d="M7.61914 17.0035H14.8441L11.7391 7.37188C11.7041 7.26405 11.6362 7.17013 11.545 7.10354C11.4539 7.03695 11.3442 7.0011 11.2316 7.0011C11.1191 7.0011 11.0094 7.03695 10.9182 7.10354C10.8271 7.17013 10.7592 7.26405 10.7241 7.37188L7.61914 17.0035Z" fill="#E24329"/>
<path d="M20 32.996L25.156 17.0034H32.381L20 32.996Z" fill="#FC6D26"/>
<path d="M32.381 17.0034L33.948 21.8636C34.0176 22.0796 34.0175 22.3123 33.9478 22.5283C33.8781 22.7443 33.7424 22.9326 33.56 23.066L20 33L32.381 17.0034Z" fill="#FCA326"/>
<path d="M32.3813 17.0035H25.1562L28.2612 7.37084C28.2963 7.26301 28.3642 7.16909 28.4553 7.10251C28.5465 7.03592 28.6562 7.00006 28.7687 7.00006C28.8813 7.00006 28.991 7.03592 29.0822 7.10251C29.1733 7.16909 29.2412 7.26301 29.2762 7.37084L32.3813 17.0035Z" fill="#E24329"/>
</g>
<defs>
<filter id="filter0_d_2_2463" x="2" y="2" width="36" height="36" filterUnits="userSpaceOnUse" color-interpolation-filters="sRGB">
<feFlood flood-opacity="0" result="BackgroundImageFix"/>
<feColorMatrix in="SourceAlpha" type="matrix" values="0 0 0 0 0 0 0 0 0 0 0 0 0 0 0 0 0 0 127 0" result="hardAlpha"/>
<feOffset/>
<feGaussianBlur stdDeviation="2"/>
<feComposite in2="hardAlpha" operator="out"/>
<feColorMatrix type="matrix" values="0 0 0 0 0 0 0 0 0 0 0 0 0 0 0 0 0 0 0.25 0"/>
<feBlend mode="normal" in2="BackgroundImageFix" result="effect1_dropShadow_2_2463"/>
<feBlend mode="normal" in="SourceGraphic" in2="effect1_dropShadow_2_2463" result="shape"/>
</filter>
<linearGradient id="paint0_linear_2_2463" x1="20" y1="0" x2="20" y2="40" gradientUnits="userSpaceOnUse">
<stop stop-color="#2E0E09"/>
<stop offset="1" stop-color="#1F1506"/>
</linearGradient>
</defs>
</svg>
