<svg width="41" height="40" viewBox="0 0 41 40" fill="none" xmlns="http://www.w3.org/2000/svg">
<rect x="0.0107422" y="-6.10352e-05" width="40" height="40" rx="8" fill="url(#paint0_linear_2_2444)"/>
<g filter="url(#filter0_d_2_2444)">
<path d="M12.7489 14.2075C12.7489 14.2075 12.7706 17.3251 14.3539 20.5495C15.9807 23.6532 18.2236 25.6468 20.0739 26.4409C21.9857 25.5374 23.8326 23.9691 24.8405 22.2792H19.592C18.234 21.1414 17.1654 19.2537 16.9201 17.0717H32.3172C31.558 20.5798 29.9469 23.7703 28.412 25.8022C26.2817 28.6193 23.393 30.7694 20.0852 32H20.0366C14.5143 29.7755 11.5434 26.2717 9.58299 22.3183C8.32546 19.7848 7.01074 15.1848 7.01074 9H33.0106C33.0148 10.7418 32.899 12.4818 32.6639 14.2075H12.7489Z" fill="#F5C400"/>
</g>
<rect x="1.06074" y="1.04994" width="37.9" height="37.9" rx="6.95" stroke="white" stroke-opacity="0.15" stroke-width="2.1"/>
<defs>
<filter id="filter0_d_2_2444" x="2.01074" y="1.99994" width="36" height="36" filterUnits="userSpaceOnUse" color-interpolation-filters="sRGB">
<feFlood flood-opacity="0" result="BackgroundImageFix"/>
<feColorMatrix in="SourceAlpha" type="matrix" values="0 0 0 0 0 0 0 0 0 0 0 0 0 0 0 0 0 0 127 0" result="hardAlpha"/>
<feOffset/>
<feGaussianBlur stdDeviation="2"/>
<feComposite in2="hardAlpha" operator="out"/>
<feColorMatrix type="matrix" values="0 0 0 0 0 0 0 0 0 0 0 0 0 0 0 0 0 0 0.25 0"/>
<feBlend mode="normal" in2="BackgroundImageFix" result="effect1_dropShadow_2_2444"/>
<feBlend mode="normal" in="SourceGraphic" in2="effect1_dropShadow_2_2444" result="shape"/>
</filter>
<linearGradient id="paint0_linear_2_2444" x1="20.0107" y1="-6.10351e-05" x2="20.0107" y2="39.9999" gradientUnits="userSpaceOnUse">
<stop stop-color="#322C16"/>
<stop offset="1" stop-color="#231F0F"/>
</linearGradient>
</defs>
</svg>
