<svg width="41" height="40" viewBox="0 0 41 40" fill="none" xmlns="http://www.w3.org/2000/svg">
<rect x="0.0107422" y="-6.10352e-05" width="40" height="40" rx="8" fill="url(#paint0_linear_2_2507)"/>
<g filter="url(#filter0_d_2_2507)">
<path d="M32.9063 12.199C32.5058 9.19052 29.9114 6.81963 26.8359 6.36021C26.317 6.28258 24.351 6.00006 19.7969 6.00006H19.7629C15.2076 6.00006 14.2303 6.28258 13.7114 6.36021C10.7215 6.8069 7.99107 8.93727 7.32861 11.9814C7.00997 13.4805 6.97597 15.1426 7.03516 16.6672C7.11954 18.8535 7.13592 21.0361 7.33239 23.2135C7.46821 24.6599 7.70516 26.0947 8.04144 27.5073C8.67116 30.1162 11.2202 32.2873 13.7177 33.173C16.3916 34.0967 19.2671 34.2501 22.0224 33.6159C22.3255 33.5446 22.6248 33.4619 22.9203 33.3677C23.5904 33.1527 24.375 32.9121 24.9518 32.4896C24.9597 32.4837 24.9662 32.476 24.9708 32.4672C24.9754 32.4584 24.9779 32.4487 24.9782 32.4387V30.3287C24.9781 30.3194 24.9759 30.3103 24.9718 30.302C24.9677 30.2936 24.9619 30.2863 24.9546 30.2806C24.9473 30.2748 24.9389 30.2708 24.9299 30.2688C24.921 30.2668 24.9116 30.2668 24.9027 30.2689C23.1374 30.695 21.3285 30.9086 19.5136 30.9052C16.3902 30.9052 15.5502 29.4073 15.3096 28.7838C15.1163 28.2448 14.9935 27.6826 14.9444 27.1116C14.9439 27.102 14.9456 27.0924 14.9495 27.0836C14.9533 27.0748 14.9591 27.0671 14.9665 27.061C14.9739 27.0549 14.9825 27.0507 14.9918 27.0486C15.0011 27.0466 15.0107 27.0468 15.02 27.0492C16.7558 27.4724 18.5352 27.686 20.3209 27.6855C20.7504 27.6855 21.1785 27.6855 21.608 27.674C23.404 27.6231 25.2969 27.5302 27.0638 27.1816C27.1079 27.1726 27.152 27.165 27.1898 27.1536C29.9769 26.6127 32.6293 24.915 32.8988 20.6161C32.9089 20.4468 32.9341 18.8433 32.9341 18.6677C32.9353 18.0709 33.1242 14.4337 32.9063 12.199Z" fill="url(#paint1_linear_2_2507)"/>
<path d="M28.4908 15.5791V23.0532H25.5602V15.7992C25.5602 14.2721 24.9304 13.4932 23.6496 13.4932C22.2416 13.4932 21.5363 14.4146 21.5363 16.2345V20.205H18.6232V16.2345C18.6232 14.4146 17.9167 13.4932 16.5087 13.4932C15.2354 13.4932 14.5993 14.2721 14.5993 15.7992V23.0532H11.6699V15.5791C11.6699 14.0519 12.0557 12.8387 12.8274 11.9394C13.6233 11.0422 14.6674 10.5815 15.9633 10.5815C17.4633 10.5815 18.5968 11.1643 19.3525 12.3288L20.0817 13.5658L20.8121 12.3288C21.5678 11.1643 22.7013 10.5815 24.1987 10.5815C25.4934 10.5815 26.5375 11.0422 27.336 11.9394C28.1067 12.8379 28.4917 14.0511 28.4908 15.5791Z" fill="white"/>
</g>
<rect x="1.06074" y="1.04994" width="37.9" height="37.9" rx="6.95" stroke="white" stroke-opacity="0.15" stroke-width="2.1"/>
<defs>
<filter id="filter0_d_2_2507" x="2.01074" y="1.99994" width="36" height="36.0001" filterUnits="userSpaceOnUse" color-interpolation-filters="sRGB">
<feFlood flood-opacity="0" result="BackgroundImageFix"/>
<feColorMatrix in="SourceAlpha" type="matrix" values="0 0 0 0 0 0 0 0 0 0 0 0 0 0 0 0 0 0 127 0" result="hardAlpha"/>
<feOffset/>
<feGaussianBlur stdDeviation="2"/>
<feComposite in2="hardAlpha" operator="out"/>
<feColorMatrix type="matrix" values="0 0 0 0 0 0 0 0 0 0 0 0 0 0 0 0 0 0 0.25 0"/>
<feBlend mode="normal" in2="BackgroundImageFix" result="effect1_dropShadow_2_2507"/>
<feBlend mode="normal" in="SourceGraphic" in2="effect1_dropShadow_2_2507" result="shape"/>
</filter>
<linearGradient id="paint0_linear_2_2507" x1="20.0107" y1="-6.10351e-05" x2="20.0107" y2="39.9999" gradientUnits="userSpaceOnUse">
<stop stop-color="#1C1036"/>
<stop offset="1" stop-color="#0B0920"/>
</linearGradient>
<linearGradient id="paint1_linear_2_2507" x1="20.0112" y1="6.00006" x2="20.0112" y2="34.0001" gradientUnits="userSpaceOnUse">
<stop stop-color="#6364FF"/>
<stop offset="1" stop-color="#563ACC"/>
</linearGradient>
</defs>
</svg>
