<svg width="41" height="40" viewBox="0 0 41 40" fill="none" xmlns="http://www.w3.org/2000/svg">
<rect x="0.0107422" y="-6.10352e-05" width="40" height="40" rx="8" fill="url(#paint0_linear_2_2515)"/>
<g filter="url(#filter0_d_2_2515)">
<path d="M32.9063 12.1989C32.5058 9.1904 29.9114 6.81951 26.8359 6.36009C26.317 6.28246 24.351 5.99994 19.7969 5.99994H19.7629C15.2076 5.99994 14.2303 6.28246 13.7114 6.36009C10.7215 6.80678 7.99107 8.93714 7.32861 11.9812C7.00997 13.4804 6.97597 15.1424 7.03516 16.667C7.11954 18.8534 7.13592 21.0359 7.33239 23.2134C7.46821 24.6598 7.70516 26.0946 8.04144 27.5072C8.67116 30.1161 11.2202 32.2872 13.7177 33.1729C16.3916 34.0966 19.2671 34.25 22.0224 33.6158C22.3255 33.5445 22.6248 33.4618 22.9203 33.3676C23.5904 33.1526 24.375 32.912 24.9518 32.4895C24.9597 32.4836 24.9662 32.4759 24.9708 32.4671C24.9754 32.4583 24.9779 32.4486 24.9782 32.4386V30.3286C24.9781 30.3193 24.9759 30.3102 24.9718 30.3018C24.9677 30.2935 24.9619 30.2862 24.9546 30.2805C24.9473 30.2747 24.9389 30.2707 24.9299 30.2687C24.921 30.2667 24.9116 30.2667 24.9027 30.2688C23.1374 30.6949 21.3285 30.9085 19.5136 30.9051C16.3902 30.9051 15.5502 29.4072 15.3096 28.7836C15.1163 28.2447 14.9935 27.6825 14.9444 27.1114C14.9439 27.1018 14.9456 27.0923 14.9495 27.0835C14.9533 27.0747 14.9591 27.067 14.9665 27.0609C14.9739 27.0548 14.9825 27.0506 14.9918 27.0485C15.0011 27.0465 15.0107 27.0466 15.02 27.0491C16.7558 27.4722 18.5352 27.6859 20.3209 27.6854C20.7504 27.6854 21.1785 27.6854 21.608 27.6739C23.404 27.623 25.2969 27.5301 27.0638 27.1814C27.1079 27.1725 27.152 27.1649 27.1898 27.1534C29.9769 26.6125 32.6293 24.9149 32.8988 20.616C32.9089 20.4467 32.9341 18.8432 32.9341 18.6676C32.9353 18.0707 33.1242 14.4336 32.9063 12.1989Z" fill="url(#paint1_linear_2_2515)"/>
<path d="M28.4908 15.579V23.0531H25.5602V15.7992C25.5602 14.272 24.9304 13.4932 23.6496 13.4932C22.2416 13.4932 21.5363 14.4145 21.5363 16.2344V20.205H18.6232V16.2344C18.6232 14.4145 17.9167 13.4932 16.5087 13.4932C15.2354 13.4932 14.5993 14.272 14.5993 15.7992V23.0531H11.6699V15.579C11.6699 14.0519 12.0557 12.8386 12.8274 11.9393C13.6233 11.0421 14.6674 10.5814 15.9633 10.5814C17.4633 10.5814 18.5968 11.1643 19.3525 12.3287L20.0817 13.5657L20.8121 12.3287C21.5678 11.1643 22.7013 10.5814 24.1987 10.5814C25.4934 10.5814 26.5375 11.0421 27.336 11.9393C28.1067 12.8378 28.4917 14.051 28.4908 15.579Z" fill="white"/>
</g>
<rect x="1.06074" y="1.04994" width="37.9" height="37.9" rx="6.95" stroke="white" stroke-opacity="0.15" stroke-width="2.1"/>
<defs>
<filter id="filter0_d_2_2515" x="2.01074" y="1.99994" width="36" height="36" filterUnits="userSpaceOnUse" color-interpolation-filters="sRGB">
<feFlood flood-opacity="0" result="BackgroundImageFix"/>
<feColorMatrix in="SourceAlpha" type="matrix" values="0 0 0 0 0 0 0 0 0 0 0 0 0 0 0 0 0 0 127 0" result="hardAlpha"/>
<feOffset/>
<feGaussianBlur stdDeviation="2"/>
<feComposite in2="hardAlpha" operator="out"/>
<feColorMatrix type="matrix" values="0 0 0 0 0 0 0 0 0 0 0 0 0 0 0 0 0 0 0.25 0"/>
<feBlend mode="normal" in2="BackgroundImageFix" result="effect1_dropShadow_2_2515"/>
<feBlend mode="normal" in="SourceGraphic" in2="effect1_dropShadow_2_2515" result="shape"/>
</filter>
<linearGradient id="paint0_linear_2_2515" x1="20.0107" y1="-6.10351e-05" x2="20.0107" y2="39.9999" gradientUnits="userSpaceOnUse">
<stop stop-color="#1C1036"/>
<stop offset="1" stop-color="#0B0920"/>
</linearGradient>
<linearGradient id="paint1_linear_2_2515" x1="20.0112" y1="5.99994" x2="20.0112" y2="33.9999" gradientUnits="userSpaceOnUse">
<stop stop-color="#6364FF"/>
<stop offset="1" stop-color="#563ACC"/>
</linearGradient>
</defs>
</svg>
