<svg width="41" height="40" viewBox="0 0 41 40" fill="none" xmlns="http://www.w3.org/2000/svg">
<rect x="0.0107422" y="-6.10352e-05" width="40" height="40" rx="8" fill="url(#paint0_linear_2_2427)"/>
<g filter="url(#filter0_d_2_2427)">
<path d="M11.9134 23.7006C11.9134 25.328 10.5991 26.6433 8.97305 26.6433C7.34696 26.6433 6.03271 25.328 6.03271 23.7006C6.03271 22.0733 7.34696 20.758 8.97305 20.758H11.9134V23.7006ZM13.3836 23.7006C13.3836 22.0733 14.6978 20.758 16.3239 20.758C17.95 20.758 19.2642 22.0733 19.2642 23.7006V31.0573C19.2642 32.6847 17.95 34 16.3239 34C14.6978 34 13.3836 32.6847 13.3836 31.0573V23.7006Z" fill="#E01E5A"/>
<path d="M16.3242 11.8853C14.6981 11.8853 13.3839 10.57 13.3839 8.94261C13.3839 7.31523 14.6981 5.99994 16.3242 5.99994C17.9503 5.99994 19.2645 7.31523 19.2645 8.94261V11.8853H16.3242ZM16.3242 13.3789C17.9503 13.3789 19.2645 14.6942 19.2645 16.3216C19.2645 17.949 17.9503 19.2643 16.3242 19.2643H8.95108C7.32498 19.2643 6.01074 17.949 6.01074 16.3216C6.01074 14.6942 7.32498 13.3789 8.95108 13.3789H16.3242Z" fill="#36C5F0"/>
<path d="M28.1077 16.3216C28.1077 14.6942 29.4219 13.3789 31.048 13.3789C32.6741 13.3789 33.9883 14.6942 33.9883 16.3216C33.9883 17.949 32.6741 19.2643 31.048 19.2643H28.1077V16.3216ZM26.6375 16.3216C26.6375 17.949 25.3233 19.2643 23.6972 19.2643C22.0711 19.2643 20.7568 17.949 20.7568 16.3216V8.94261C20.7568 7.31523 22.0711 5.99994 23.6972 5.99994C25.3233 5.99994 26.6375 7.31523 26.6375 8.94261V16.3216V16.3216Z" fill="#2EB67D"/>
<path d="M23.6972 28.1147C25.3233 28.1147 26.6375 29.4299 26.6375 31.0573C26.6375 32.6847 25.3233 34 23.6972 34C22.0711 34 20.7568 32.6847 20.7568 31.0573V28.1147H23.6972ZM23.6972 26.6433C22.0711 26.6433 20.7568 25.328 20.7568 23.7006C20.7568 22.0733 22.0711 20.758 23.6972 20.758H31.0703C32.6964 20.758 34.0106 22.0733 34.0106 23.7006C34.0106 25.328 32.6964 26.6433 31.0703 26.6433H23.6972Z" fill="#ECB22E"/>
</g>
<rect x="1.06074" y="1.04994" width="37.9" height="37.9" rx="6.95" stroke="white" stroke-opacity="0.15" stroke-width="2.1"/>
<defs>
<filter id="filter0_d_2_2427" x="2.01074" y="1.99994" width="36" height="36.0001" filterUnits="userSpaceOnUse" color-interpolation-filters="sRGB">
<feFlood flood-opacity="0" result="BackgroundImageFix"/>
<feColorMatrix in="SourceAlpha" type="matrix" values="0 0 0 0 0 0 0 0 0 0 0 0 0 0 0 0 0 0 127 0" result="hardAlpha"/>
<feOffset/>
<feGaussianBlur stdDeviation="2"/>
<feComposite in2="hardAlpha" operator="out"/>
<feColorMatrix type="matrix" values="0 0 0 0 0 0 0 0 0 0 0 0 0 0 0 0 0 0 0.25 0"/>
<feBlend mode="normal" in2="BackgroundImageFix" result="effect1_dropShadow_2_2427"/>
<feBlend mode="normal" in="SourceGraphic" in2="effect1_dropShadow_2_2427" result="shape"/>
</filter>
<linearGradient id="paint0_linear_2_2427" x1="19.8669" y1="-3.86315e-05" x2="19.8669" y2="40" gradientUnits="userSpaceOnUse">
<stop stop-color="#2C0C2C"/>
<stop offset="1" stop-color="#1C081C"/>
</linearGradient>
</defs>
</svg>
