<svg width="40" height="40" viewBox="0 0 40 40" fill="none" xmlns="http://www.w3.org/2000/svg">
<rect x="-0.000976562" y="-6.10352e-05" width="40" height="40" rx="6" fill="url(#paint0_linear_31_22)"/>
<g filter="url(#filter0_d_31_22)">
<path d="M16.0053 19.5639C17.076 19.6959 17.868 20.0406 18.3813 20.5979C18.9093 21.1406 19.1733 21.8153 19.1733 22.6219C19.1733 23.4286 18.8727 24.1913 18.2713 24.9099C17.6847 25.6286 16.9293 26.1859 16.0053 26.5819C15.5947 26.7433 15.052 26.8606 14.3773 26.9339C13.7173 27.0073 13.0353 27.0439 12.3313 27.0439C11.158 27.0439 9.95534 26.9339 8.72334 26.7139C8.50334 26.6699 8.26867 26.5599 8.01934 26.3839C7.78467 26.2079 7.66734 25.9513 7.66734 25.6139C7.65267 24.2646 7.60134 22.3873 7.51334 19.9819L7.49134 18.7719C7.43267 16.8946 7.40334 15.4206 7.40334 14.3499C7.40334 14.1593 7.51334 13.9393 7.73334 13.6899C7.968 13.4259 8.24667 13.2793 8.56934 13.2499C8.76 13.2499 8.94334 13.2426 9.11934 13.2279C10.7767 13.0666 11.884 12.9859 12.4413 12.9859C13.5413 12.9859 14.5093 13.0959 15.3453 13.3159C16.196 13.5213 16.9 13.9026 17.4573 14.4599C17.6627 14.6946 17.8313 14.9953 17.9633 15.3619C18.0953 15.7139 18.1613 16.0586 18.1613 16.3959C18.176 17.1146 17.9853 17.7746 17.5893 18.3759C17.208 18.9773 16.68 19.3733 16.0053 19.5639ZM12.5733 14.8559C12.0747 14.8559 11.554 14.8853 11.0113 14.9439C10.4833 15.0026 10.036 15.0759 9.66934 15.1639L9.80134 19.3219L10.5933 19.2999C11.8693 19.1679 12.808 19.0579 13.4093 18.9699C13.7907 18.8819 14.1647 18.7133 14.5313 18.4639C14.898 18.1999 15.1987 17.9286 15.4333 17.6499C15.6827 17.3566 15.8073 17.1366 15.8073 16.9899C15.8073 16.7699 15.7633 16.5499 15.6753 16.3299C15.5873 16.0953 15.492 15.9266 15.3893 15.8239C14.9933 15.4426 14.59 15.1859 14.1793 15.0539C13.7687 14.9219 13.2333 14.8559 12.5733 14.8559ZM9.86734 25.1079C10.6153 25.2106 11.3267 25.2619 12.0013 25.2619C13.4827 25.2619 14.6487 25.0713 15.4993 24.6899C16.3647 24.2939 16.7973 23.5459 16.7973 22.4459C16.7973 22.0059 16.4673 21.6393 15.8073 21.3459C15.1473 21.0526 14.436 20.9059 13.6733 20.9059C13.16 20.9059 12.5073 20.9646 11.7153 21.0819C11.0847 21.1699 10.4687 21.2286 9.86734 21.2579C9.89667 22.1379 9.91134 22.6953 9.91134 22.9299C9.91134 23.3846 9.904 23.7293 9.88934 23.9639L9.86734 25.1079ZM32.362 15.1859C32.582 15.4499 32.736 15.6626 32.824 15.8239C32.912 15.9853 32.956 16.1393 32.956 16.2859C32.956 16.4619 32.8387 16.6673 32.604 16.9019C32.384 17.1366 32.164 17.2539 31.944 17.2539C31.6507 17.2539 31.416 17.2099 31.24 17.1219C31.064 17.0339 30.9173 16.8946 30.8 16.7039C30.5213 16.2639 30.1987 15.8753 29.832 15.5379C29.4653 15.1859 28.974 15.0099 28.358 15.0099C27.7567 15.0099 27.082 15.1493 26.334 15.4279C25.586 15.7066 25.036 16.0513 24.684 16.4619C23.892 17.4299 23.496 18.7133 23.496 20.3119C23.496 21.5879 23.892 22.6806 24.684 23.5899C25.52 24.5286 26.576 24.9979 27.852 24.9979C28.4387 24.9979 29.0767 24.8953 29.766 24.6899C30.47 24.4699 31.0273 24.1179 31.438 23.6339H31.416C31.68 23.3553 32.01 23.2159 32.406 23.2159C32.6407 23.2159 32.8607 23.3186 33.066 23.5239C33.286 23.7293 33.396 23.9346 33.396 24.1399C33.396 24.3599 33.3593 24.5579 33.286 24.7339C33.2273 24.8953 33.11 25.0786 32.934 25.2839C32.3327 25.9439 31.5627 26.4059 30.624 26.6699C29.7 26.9193 28.644 27.0439 27.456 27.0439C26.4733 27.0439 25.5273 26.8093 24.618 26.3399C23.7233 25.8706 22.9827 25.2766 22.396 24.5579C22.1027 24.1326 21.8167 23.5239 21.538 22.7319C21.274 21.9253 21.142 21.2726 21.142 20.7739C21.142 19.4979 21.3327 18.2879 21.714 17.1439C22.11 15.9853 22.6967 15.0613 23.474 14.3719C23.9873 13.9026 24.728 13.5506 25.696 13.3159C26.664 13.0813 27.5513 12.9639 28.358 12.9639C29.0033 12.9639 29.5533 13.0593 30.008 13.2499C30.4773 13.4259 30.8807 13.6679 31.218 13.9759C31.5553 14.2693 31.9367 14.6726 32.362 15.1859Z" fill="white"/>
</g>
<rect x="0.749023" y="0.749939" width="38.5" height="38.5" rx="5.25" stroke="white" stroke-opacity="0.15" stroke-width="1.5"/>
<defs>
<filter id="filter0_d_31_22" x="1.99902" y="1.99994" width="36" height="36" filterUnits="userSpaceOnUse" color-interpolation-filters="sRGB">
<feFlood flood-opacity="0" result="BackgroundImageFix"/>
<feColorMatrix in="SourceAlpha" type="matrix" values="0 0 0 0 0 0 0 0 0 0 0 0 0 0 0 0 0 0 127 0" result="hardAlpha"/>
<feOffset/>
<feGaussianBlur stdDeviation="2"/>
<feComposite in2="hardAlpha" operator="out"/>
<feColorMatrix type="matrix" values="0 0 0 0 0 0 0 0 0 0 0 0 0 0 0 0 0 0 0.25 0"/>
<feBlend mode="normal" in2="BackgroundImageFix" result="effect1_dropShadow_31_22"/>
<feBlend mode="normal" in="SourceGraphic" in2="effect1_dropShadow_31_22" result="shape"/>
</filter>
<linearGradient id="paint0_linear_31_22" x1="19.999" y1="-6.10351e-05" x2="19.999" y2="39.9999" gradientUnits="userSpaceOnUse">
<stop stop-color="#191B35"/>
<stop offset="1" stop-color="#1F170F"/>
</linearGradient>
</defs>
</svg>
