<svg width="40" height="40" viewBox="0 0 40 40" fill="none" xmlns="http://www.w3.org/2000/svg">
<rect x="-0.000976562" y="-6.10352e-05" width="40" height="40" rx="6" fill="url(#paint0_linear_28_3865)"/>
<g filter="url(#filter0_d_28_3865)">
<path d="M18.9598 25.0365L15.2695 25.7021L22.65 29.6958L23.8801 27.6989L18.9598 25.0365Z" fill="#9C9C9C"/>
<path d="M18.96 25.0365L23.8803 27.6989V25.0365L18.96 22.3741V25.0365Z" fill="#7E7E7E"/>
<path d="M31.261 17.0492V30.3616L11.5796 19.7121V6.39966L31.261 17.0492Z" fill="#6A6A6A"/>
<path d="M12.3176 5.99994L11.5796 6.3993L31.261 17.0488L31.9991 16.6494L12.3176 5.99994Z" fill="#9C9C9C"/>
<path d="M31.2607 30.3616L31.9988 29.9622V16.6498L31.2607 17.0491V30.3616Z" fill="#7E7E7E"/>
<path d="M12.8101 8.39612L30.031 17.7149V28.3644L12.8101 19.0456V8.39612Z" fill="white"/>
<path d="M11.6893 25.0808L7.99902 27.3439L20.2998 33.9999L23.9901 31.7369L11.6893 25.0808Z" fill="#7E7E7E"/>
<path d="M20.2998 33.9999L23.99 32.0031V31.7368L20.2998 33.9999Z" fill="#2D2D2D"/>
</g>
<rect x="0.749023" y="0.749939" width="38.5" height="38.5" rx="5.25" stroke="white" stroke-opacity="0.15" stroke-width="1.5"/>
<defs>
<filter id="filter0_d_28_3865" x="1.99902" y="1.99994" width="36" height="36" filterUnits="userSpaceOnUse" color-interpolation-filters="sRGB">
<feFlood flood-opacity="0" result="BackgroundImageFix"/>
<feColorMatrix in="SourceAlpha" type="matrix" values="0 0 0 0 0 0 0 0 0 0 0 0 0 0 0 0 0 0 127 0" result="hardAlpha"/>
<feOffset/>
<feGaussianBlur stdDeviation="2"/>
<feComposite in2="hardAlpha" operator="out"/>
<feColorMatrix type="matrix" values="0 0 0 0 0 0 0 0 0 0 0 0 0 0 0 0 0 0 0.25 0"/>
<feBlend mode="normal" in2="BackgroundImageFix" result="effect1_dropShadow_28_3865"/>
<feBlend mode="normal" in="SourceGraphic" in2="effect1_dropShadow_28_3865" result="shape"/>
</filter>
<linearGradient id="paint0_linear_28_3865" x1="-0.000895582" y1="40" x2="13.8812" y2="5.6026" gradientUnits="userSpaceOnUse">
<stop stop-color="#161616"/>
<stop offset="1" stop-color="#2D2D2D"/>
</linearGradient>
</defs>
</svg>
