<svg width="40" height="40" viewBox="0 0 40 40" fill="none" xmlns="http://www.w3.org/2000/svg">
<rect x="-0.000976562" y="-0.00012207" width="40" height="40" rx="6" fill="url(#paint0_linear_28_3920)"/>
<g filter="url(#filter0_d_28_3920)">
<path d="M18.6029 33.9423C16.4461 33.7358 14.2625 32.9617 12.3866 31.7385C10.8148 30.7135 10.4598 30.2921 10.4598 29.4513C10.4598 27.7622 12.318 24.8038 15.4972 21.4312C17.3028 19.5159 19.8179 17.2708 20.0899 17.3316C20.6186 17.4497 24.846 21.571 26.4286 23.511C28.9311 26.5789 30.0816 29.0908 29.4971 30.2107C29.0528 31.062 26.2959 32.7258 24.2705 33.365C22.6012 33.8919 20.4089 34.1152 18.6029 33.9423ZM8.33677 27.6951C7.03056 25.6923 6.37063 23.7206 6.052 20.8688C5.94679 19.9271 5.9845 19.3885 6.29091 17.4557C6.67281 15.0467 8.04542 12.2599 9.69474 10.5448C10.3972 9.81434 10.4599 9.79654 11.3162 10.0848C12.356 10.4349 13.4664 11.2014 15.1886 12.7578L16.1934 13.6658L15.6447 14.3395C13.0977 17.4669 10.4089 21.8997 9.39561 24.6422C8.84474 26.1332 8.62255 27.6298 8.85958 28.2528C9.0196 28.6735 8.87261 28.5167 8.33677 27.6951ZM31.2647 28.0357C31.3937 27.4062 31.2305 26.2499 30.848 25.0837C30.0196 22.5581 27.2507 17.8597 24.7082 14.6652L23.9078 13.6596L24.7737 12.8649C25.9044 11.8273 26.6894 11.206 27.5364 10.6784C28.2048 10.262 29.1599 9.89342 29.5705 9.89342C29.8236 9.89342 30.7147 10.8177 31.4341 11.8264C32.5483 13.3887 33.3679 15.2825 33.7832 17.2539C34.0515 18.5278 34.0739 21.2544 33.8264 22.5251C33.6234 23.5679 33.1946 24.9206 32.7763 25.838C32.4628 26.5254 31.6833 27.8604 31.3417 28.2948C31.1661 28.5182 31.1659 28.5177 31.2647 28.0357H31.2647ZM18.8338 9.41651C17.6607 8.8211 15.8509 8.18196 14.8512 8.01C14.5007 7.94972 13.9028 7.9161 13.5226 7.93529C12.6977 7.97692 12.7346 7.93381 14.0578 7.30899C15.1579 6.78953 16.0756 6.48406 17.3213 6.22264C18.7226 5.92856 21.3566 5.92511 22.7356 6.21554C24.2251 6.52924 25.979 7.18157 26.9673 7.78943L27.261 7.97009L26.5871 7.93608C25.2479 7.86849 23.2962 8.40923 21.2007 9.42843C20.5687 9.73584 20.0188 9.98137 19.9788 9.97404C19.9388 9.96671 19.4236 9.71582 18.8338 9.41651V9.41651Z" fill="white"/>
</g>
<rect x="0.749023" y="0.749878" width="38.5" height="38.5" rx="5.25" stroke="white" stroke-opacity="0.15" stroke-width="1.5"/>
<defs>
<filter id="filter0_d_28_3920" x="1.99902" y="1.99988" width="36" height="36" filterUnits="userSpaceOnUse" color-interpolation-filters="sRGB">
<feFlood flood-opacity="0" result="BackgroundImageFix"/>
<feColorMatrix in="SourceAlpha" type="matrix" values="0 0 0 0 0 0 0 0 0 0 0 0 0 0 0 0 0 0 127 0" result="hardAlpha"/>
<feOffset/>
<feGaussianBlur stdDeviation="2"/>
<feComposite in2="hardAlpha" operator="out"/>
<feColorMatrix type="matrix" values="0 0 0 0 0 0 0 0 0 0 0 0 0 0 0 0 0 0 0.25 0"/>
<feBlend mode="normal" in2="BackgroundImageFix" result="effect1_dropShadow_28_3920"/>
<feBlend mode="normal" in="SourceGraphic" in2="effect1_dropShadow_28_3920" result="shape"/>
</filter>
<linearGradient id="paint0_linear_28_3920" x1="19.9991" y1="-6.75528e-05" x2="6.11638" y2="34.3968" gradientUnits="userSpaceOnUse">
<stop stop-color="#083407"/>
<stop offset="1" stop-color="#041D04"/>
</linearGradient>
</defs>
</svg>
