<svg width="120" height="40" viewBox="0 0 120 40" fill="none" xmlns="http://www.w3.org/2000/svg">
<rect x="-0.000183105" y="-1.14441e-05" width="120" height="40" rx="6" fill="url(#paint0_linear_18_2013)"/>
<g filter="url(#filter0_d_18_2013)">
<path d="M34.7653 15.5461C34.6014 15.6721 31.7084 17.2879 31.7084 20.8807C31.7084 25.0363 35.3896 26.5064 35.4998 26.5428C35.4829 26.6324 34.915 28.5562 33.5589 30.5164C32.3497 32.2414 31.0868 33.9636 29.1657 33.9636C27.2446 33.9636 26.7502 32.8575 24.5324 32.8575C22.3711 32.8575 21.6026 34 19.8453 34C18.0881 34 16.8619 32.4038 15.4522 30.4436C13.8192 28.1418 12.4998 24.5658 12.4998 21.1719C12.4998 15.7282 16.0709 12.8411 19.5854 12.8411C21.4529 12.8411 23.0096 14.0564 24.182 14.0564C25.298 14.0564 27.0383 12.7683 29.1629 12.7683C29.9681 12.7683 32.8611 12.8411 34.7653 15.5461V15.5461ZM28.1543 10.4636C29.0329 9.43033 29.6545 7.99658 29.6545 6.56284C29.6545 6.36402 29.6375 6.1624 29.6008 5.99998C28.1712 6.05319 26.4705 6.94368 25.4449 8.1226C24.6397 9.02989 23.8882 10.4636 23.8882 11.917C23.8882 12.1354 23.9249 12.3538 23.9419 12.4238C24.0323 12.4406 24.1792 12.4602 24.3261 12.4602C25.6088 12.4602 27.222 11.6089 28.1543 10.4636Z" fill="white"/>
</g>
<g filter="url(#filter1_d_18_2013)">
<path d="M47.5545 18H46.2733L49.1522 9.99998H50.5467L53.4256 18H52.1443L49.8826 11.4531H49.8201L47.5545 18ZM47.7693 14.8672H51.9256V15.8828H47.7693V14.8672ZM58.868 12L56.6922 18H55.4422L53.2625 12H54.5164L56.0359 16.6172H56.0984L57.6141 12H58.868ZM61.5399 18.1328C61.1596 18.1328 60.8159 18.0625 60.5086 17.9219C60.2013 17.7786 59.9578 17.5716 59.7781 17.3008C59.601 17.0299 59.5125 16.6979 59.5125 16.3047C59.5125 15.9661 59.5776 15.6875 59.7078 15.4687C59.838 15.25 60.0138 15.0768 60.2352 14.9492C60.4565 14.8216 60.7039 14.7252 60.9774 14.6601C61.2508 14.595 61.5294 14.5456 61.8133 14.5117C62.1727 14.47 62.4643 14.4362 62.6883 14.4101C62.9122 14.3815 63.075 14.3359 63.1766 14.2734C63.2781 14.2109 63.3289 14.1094 63.3289 13.9687V13.9414C63.3289 13.6002 63.2326 13.3359 63.0399 13.1484C62.8497 12.9609 62.5659 12.8672 62.1883 12.8672C61.7951 12.8672 61.4852 12.9544 61.2586 13.1289C61.0346 13.3008 60.8797 13.4922 60.7938 13.7031L59.6961 13.4531C59.8263 13.0885 60.0164 12.7943 60.2664 12.5703C60.519 12.3437 60.8094 12.1797 61.1375 12.0781C61.4656 11.9739 61.8107 11.9219 62.1727 11.9219C62.4122 11.9219 62.6662 11.9505 62.9344 12.0078C63.2052 12.0625 63.4578 12.164 63.6922 12.3125C63.9292 12.4609 64.1232 12.6732 64.2742 12.9492C64.4253 13.2226 64.5008 13.5781 64.5008 14.0156V18H63.3602V17.1797H63.3133C63.2378 17.3307 63.1245 17.4791 62.9734 17.625C62.8224 17.7708 62.6284 17.8919 62.3914 17.9883C62.1544 18.0846 61.8706 18.1328 61.5399 18.1328ZM61.7938 17.1953C62.1167 17.1953 62.3927 17.1315 62.6219 17.0039C62.8537 16.8763 63.0294 16.7096 63.1492 16.5039C63.2716 16.2956 63.3328 16.0729 63.3328 15.8359V15.0625C63.2912 15.1041 63.2104 15.1432 63.0906 15.1797C62.9734 15.2135 62.8393 15.2435 62.6883 15.2695C62.5372 15.293 62.3901 15.3151 62.2469 15.3359C62.1037 15.3541 61.9839 15.3698 61.8875 15.3828C61.6609 15.4114 61.4539 15.4596 61.2664 15.5273C61.0815 15.595 60.9331 15.6927 60.8211 15.8203C60.7117 15.9453 60.657 16.112 60.657 16.3203C60.657 16.6094 60.7638 16.8281 60.9774 16.9765C61.1909 17.1224 61.463 17.1953 61.7938 17.1953ZM66.0565 18V12H67.2244V18H66.0565ZM66.6463 11.0742C66.4432 11.0742 66.2687 11.0065 66.1229 10.8711C65.9796 10.7331 65.908 10.569 65.908 10.3789C65.908 10.1862 65.9796 10.0221 66.1229 9.8867C66.2687 9.74868 66.4432 9.67967 66.6463 9.67967C66.8494 9.67967 67.0226 9.74868 67.1658 9.8867C67.3117 10.0221 67.3846 10.1862 67.3846 10.3789C67.3846 10.569 67.3117 10.7331 67.1658 10.8711C67.0226 11.0065 66.8494 11.0742 66.6463 11.0742ZM69.9637 9.99998V18H68.7957V9.99998H69.9637ZM73.2811 18.1328C72.9009 18.1328 72.5571 18.0625 72.2498 17.9219C71.9425 17.7786 71.699 17.5716 71.5193 17.3008C71.3423 17.0299 71.2537 16.6979 71.2537 16.3047C71.2537 15.9661 71.3188 15.6875 71.449 15.4687C71.5792 15.25 71.755 15.0768 71.9764 14.9492C72.1977 14.8216 72.4451 14.7252 72.7186 14.6601C72.992 14.595 73.2706 14.5456 73.5545 14.5117C73.9139 14.47 74.2055 14.4362 74.4295 14.4101C74.6535 14.3815 74.8162 14.3359 74.9178 14.2734C75.0193 14.2109 75.0701 14.1094 75.0701 13.9687V13.9414C75.0701 13.6002 74.9738 13.3359 74.7811 13.1484C74.591 12.9609 74.3071 12.8672 73.9295 12.8672C73.5363 12.8672 73.2264 12.9544 72.9998 13.1289C72.7759 13.3008 72.6209 13.4922 72.535 13.7031L71.4373 13.4531C71.5675 13.0885 71.7576 12.7943 72.0076 12.5703C72.2602 12.3437 72.5506 12.1797 72.8787 12.0781C73.2068 11.9739 73.5519 11.9219 73.9139 11.9219C74.1535 11.9219 74.4074 11.9505 74.6756 12.0078C74.9464 12.0625 75.199 12.164 75.4334 12.3125C75.6704 12.4609 75.8644 12.6732 76.0154 12.9492C76.1665 13.2226 76.242 13.5781 76.242 14.0156V18H75.1014V17.1797H75.0545C74.979 17.3307 74.8657 17.4791 74.7147 17.625C74.5636 17.7708 74.3696 17.8919 74.1326 17.9883C73.8956 18.0846 73.6118 18.1328 73.2811 18.1328ZM73.535 17.1953C73.8579 17.1953 74.1339 17.1315 74.3631 17.0039C74.5949 16.8763 74.7706 16.7096 74.8904 16.5039C75.0128 16.2956 75.074 16.0729 75.074 15.8359V15.0625C75.0324 15.1041 74.9516 15.1432 74.8318 15.1797C74.7147 15.2135 74.5805 15.2435 74.4295 15.2695C74.2785 15.293 74.1313 15.3151 73.9881 15.3359C73.8449 15.3541 73.7251 15.3698 73.6287 15.3828C73.4022 15.4114 73.1951 15.4596 73.0076 15.5273C72.8227 15.595 72.6743 15.6927 72.5623 15.8203C72.4529 15.9453 72.3982 16.112 72.3982 16.3203C72.3982 16.6094 72.505 16.8281 72.7186 16.9765C72.9321 17.1224 73.2042 17.1953 73.535 17.1953ZM77.8914 18V9.99998H79.0594V12.9726H79.1297C79.1974 12.8476 79.2951 12.7031 79.4227 12.539C79.5503 12.375 79.7273 12.2318 79.9539 12.1094C80.1805 11.9844 80.4799 11.9219 80.8523 11.9219C81.3367 11.9219 81.769 12.0443 82.1492 12.289C82.5294 12.5338 82.8276 12.8867 83.0438 13.3476C83.2625 13.8086 83.3719 14.3633 83.3719 15.0117C83.3719 15.6601 83.2638 16.2161 83.0477 16.6797C82.8315 17.1406 82.5346 17.4961 82.157 17.7461C81.7794 17.9935 81.3484 18.1172 80.8641 18.1172C80.4995 18.1172 80.2013 18.056 79.9695 17.9336C79.7404 17.8112 79.5607 17.668 79.4305 17.5039C79.3003 17.3398 79.2 17.194 79.1297 17.0664H79.032V18H77.8914ZM79.0359 15C79.0359 15.4219 79.0971 15.7916 79.2195 16.1094C79.3419 16.4271 79.519 16.6758 79.7508 16.8555C79.9826 17.0325 80.2664 17.1211 80.6023 17.1211C80.9513 17.1211 81.243 17.0286 81.4773 16.8437C81.7117 16.6562 81.8888 16.4023 82.0086 16.082C82.131 15.7617 82.1922 15.401 82.1922 15C82.1922 14.6041 82.1323 14.2487 82.0125 13.9336C81.8953 13.6185 81.7182 13.3698 81.4813 13.1875C81.2469 13.0052 80.9539 12.914 80.6023 12.914C80.2638 12.914 79.9773 13.0013 79.743 13.1758C79.5112 13.3502 79.3354 13.5937 79.2156 13.9062C79.0958 14.2187 79.0359 14.5833 79.0359 15ZM85.8514 9.99998V18H84.6834V9.99998H85.8514ZM90.0086 18.1211C89.4174 18.1211 88.9083 17.9948 88.4812 17.7422C88.0568 17.487 87.7286 17.1289 87.4969 16.668C87.2677 16.2044 87.1531 15.6614 87.1531 15.039C87.1531 14.4245 87.2677 13.8828 87.4969 13.414C87.7286 12.9453 88.0516 12.5794 88.4656 12.3164C88.8823 12.0534 89.3693 11.9219 89.9266 11.9219C90.2651 11.9219 90.5932 11.9778 90.9109 12.0898C91.2286 12.2018 91.5138 12.3776 91.7664 12.6172C92.019 12.8568 92.2182 13.168 92.3641 13.5508C92.5099 13.931 92.5828 14.3932 92.5828 14.9375V15.3515H87.8133V14.4765H91.4383C91.4383 14.1693 91.3758 13.8971 91.2508 13.6601C91.1258 13.4206 90.95 13.2318 90.7234 13.0937C90.4995 12.9557 90.2365 12.8867 89.9344 12.8867C89.6062 12.8867 89.3198 12.9674 89.075 13.1289C88.8328 13.2877 88.6453 13.4961 88.5125 13.7539C88.3823 14.0091 88.3172 14.2864 88.3172 14.5859V15.2695C88.3172 15.6706 88.3875 16.0117 88.5281 16.293C88.6714 16.5742 88.8706 16.789 89.1258 16.9375C89.381 17.0833 89.6792 17.1562 90.0203 17.1562C90.2417 17.1562 90.4435 17.125 90.6258 17.0625C90.8081 16.9974 90.9656 16.901 91.0984 16.7734C91.2312 16.6458 91.3328 16.4883 91.4031 16.3008L92.5086 16.5C92.4201 16.8255 92.2612 17.1107 92.032 17.3555C91.8055 17.5976 91.5203 17.7864 91.1766 17.9219C90.8354 18.0547 90.4461 18.1211 90.0086 18.1211ZM99.3172 18.1211C98.7547 18.1211 98.2638 17.9922 97.8445 17.7344C97.4253 17.4765 97.0997 17.1159 96.868 16.6523C96.6362 16.1888 96.5203 15.6471 96.5203 15.0273C96.5203 14.4049 96.6362 13.8607 96.868 13.3945C97.0997 12.9284 97.4253 12.5664 97.8445 12.3086C98.2638 12.0508 98.7547 11.9219 99.3172 11.9219C99.8797 11.9219 100.371 12.0508 100.79 12.3086C101.209 12.5664 101.535 12.9284 101.766 13.3945C101.998 13.8607 102.114 14.4049 102.114 15.0273C102.114 15.6471 101.998 16.1888 101.766 16.6523C101.535 17.1159 101.209 17.4765 100.79 17.7344C100.371 17.9922 99.8797 18.1211 99.3172 18.1211ZM99.3211 17.1406C99.6857 17.1406 99.9878 17.0443 100.227 16.8515C100.467 16.6588 100.644 16.4023 100.759 16.082C100.876 15.7617 100.934 15.4088 100.934 15.0234C100.934 14.6406 100.876 14.289 100.759 13.9687C100.644 13.6458 100.467 13.3867 100.227 13.1914C99.9878 12.9961 99.6857 12.8984 99.3211 12.8984C98.9539 12.8984 98.6492 12.9961 98.407 13.1914C98.1674 13.3867 97.9891 13.6458 97.8719 13.9687C97.7573 14.289 97.7 14.6406 97.7 15.0234C97.7 15.4088 97.7573 15.7617 97.8719 16.082C97.9891 16.4023 98.1674 16.6588 98.407 16.8515C98.6492 17.0443 98.9539 17.1406 99.3211 17.1406ZM104.586 14.4375V18H103.418V12H104.539V12.9765H104.613C104.751 12.6588 104.967 12.4036 105.262 12.2109C105.558 12.0182 105.932 11.9219 106.383 11.9219C106.791 11.9219 107.15 12.0078 107.457 12.1797C107.764 12.3489 108.002 12.6015 108.172 12.9375C108.341 13.2734 108.426 13.6888 108.426 14.1836V18H107.258V14.3242C107.258 13.8893 107.144 13.5495 106.918 13.3047C106.691 13.0573 106.38 12.9336 105.984 12.9336C105.713 12.9336 105.472 12.9922 105.262 13.1094C105.053 13.2265 104.888 13.3984 104.765 13.625C104.646 13.8489 104.586 14.1198 104.586 14.4375Z" fill="#E8E8E8"/>
<path d="M48.5481 31H46.2811L49.2257 22.2727H52.0339L54.9785 31H52.7115L50.6617 24.4716H50.5936L48.5481 31ZM48.2456 27.5653H52.9842V29.1676H48.2456V27.5653ZM55.9181 33.4545V24.4545H57.9806V25.5753H58.0446C58.1298 25.3764 58.2505 25.1846 58.4068 25C58.5659 24.8153 58.7676 24.6647 59.0119 24.5483C59.259 24.429 59.5545 24.3693 59.8983 24.3693C60.3528 24.3693 60.7775 24.4886 61.1724 24.7272C61.5701 24.9659 61.8911 25.3338 62.1355 25.8309C62.3798 26.3281 62.5019 26.9616 62.5019 27.7315C62.5019 28.473 62.384 29.0937 62.1482 29.5937C61.9153 30.0937 61.6 30.4687 61.2022 30.7187C60.8073 30.9687 60.3684 31.0937 59.8855 31.0937C59.5559 31.0937 59.2704 31.0397 59.0289 30.9318C58.7875 30.8238 58.5843 30.6818 58.4196 30.5057C58.2576 30.3295 58.1326 30.1406 58.0446 29.9389H58.0019V33.4545H55.9181ZM57.9593 27.7272C57.9593 28.0795 58.0062 28.3863 58.1 28.6477C58.1965 28.9091 58.3343 29.1122 58.5133 29.2571C58.6951 29.3991 58.9125 29.4701 59.1653 29.4701C59.421 29.4701 59.6383 29.3991 59.8173 29.2571C59.9963 29.1122 60.1312 28.9091 60.2221 28.6477C60.3159 28.3863 60.3627 28.0795 60.3627 27.7272C60.3627 27.375 60.3159 27.0696 60.2221 26.8111C60.1312 26.5525 59.9963 26.3522 59.8173 26.2102C59.6411 26.0682 59.4238 25.9971 59.1653 25.9971C58.9096 25.9971 58.6923 26.0667 58.5133 26.2059C58.3343 26.3451 58.1965 26.544 58.1 26.8025C58.0062 27.0611 57.9593 27.3693 57.9593 27.7272ZM63.5939 33.4545V24.4545H65.6564V25.5753H65.7203C65.8056 25.3764 65.9263 25.1846 66.0826 25C66.2416 24.8153 66.4433 24.6647 66.6877 24.5483C66.9348 24.429 67.2303 24.3693 67.574 24.3693C68.0286 24.3693 68.4533 24.4886 68.8482 24.7272C69.2459 24.9659 69.5669 25.3338 69.8112 25.8309C70.0556 26.3281 70.1777 26.9616 70.1777 27.7315C70.1777 28.473 70.0598 29.0937 69.824 29.5937C69.5911 30.0937 69.2757 30.4687 68.878 30.7187C68.4831 30.9687 68.0442 31.0937 67.5612 31.0937C67.2317 31.0937 66.9462 31.0397 66.7047 30.9318C66.4632 30.8238 66.2601 30.6818 66.0953 30.5057C65.9334 30.3295 65.8084 30.1406 65.7203 29.9389H65.6777V33.4545H63.5939ZM65.6351 27.7272C65.6351 28.0795 65.682 28.3863 65.7757 28.6477C65.8723 28.9091 66.0101 29.1122 66.1891 29.2571C66.3709 29.3991 66.5882 29.4701 66.8411 29.4701C67.0968 29.4701 67.3141 29.3991 67.4931 29.2571C67.672 29.1122 67.807 28.9091 67.8979 28.6477C67.9916 28.3863 68.0385 28.0795 68.0385 27.7272C68.0385 27.375 67.9916 27.0696 67.8979 26.8111C67.807 26.5525 67.672 26.3522 67.4931 26.2102C67.3169 26.0682 67.0996 25.9971 66.8411 25.9971C66.5854 25.9971 66.3681 26.0667 66.1891 26.2059C66.0101 26.3451 65.8723 26.544 65.7757 26.8025C65.682 27.0611 65.6351 27.3693 65.6351 27.7272ZM78.5651 24.8892C78.5367 24.5767 78.4103 24.3338 78.1859 24.1605C77.9643 23.9844 77.6475 23.8963 77.2356 23.8963C76.9629 23.8963 76.7356 23.9318 76.5538 24.0028C76.372 24.0738 76.2356 24.1719 76.1447 24.2969C76.0538 24.419 76.0069 24.5596 76.0041 24.7187C75.9984 24.8494 76.024 24.9645 76.0808 25.0639C76.1404 25.1633 76.2257 25.2514 76.3365 25.3281C76.4501 25.402 76.5865 25.4673 76.7455 25.5241C76.9046 25.5809 77.0836 25.6307 77.2825 25.6733L78.0325 25.8437C78.4643 25.9375 78.845 26.0625 79.1745 26.2187C79.5069 26.375 79.7853 26.5611 80.0098 26.777C80.237 26.9929 80.4089 27.2415 80.5254 27.5227C80.6419 27.804 80.7015 28.1193 80.7044 28.4687C80.7015 29.0199 80.5623 29.4929 80.2867 29.8878C80.0112 30.2826 79.6149 30.5852 79.0978 30.7954C78.5836 31.0057 77.9629 31.1108 77.2356 31.1108C76.5055 31.1108 75.8691 31.0014 75.3265 30.7826C74.7839 30.5639 74.362 30.2315 74.0609 29.7855C73.7598 29.3395 73.6049 28.7755 73.5964 28.0937H75.6163C75.6333 28.375 75.7086 28.6093 75.8421 28.7968C75.9757 28.9843 76.1589 29.1264 76.3919 29.223C76.6276 29.3196 76.9004 29.3679 77.21 29.3679C77.4941 29.3679 77.7356 29.3295 77.9345 29.2528C78.1362 29.1761 78.291 29.0696 78.399 28.9332C78.5069 28.7968 78.5623 28.6406 78.5651 28.4645C78.5623 28.2997 78.5112 28.1591 78.4117 28.0426C78.3123 27.9233 78.1589 27.821 77.9515 27.7358C77.747 27.6477 77.4856 27.5667 77.1674 27.4929L76.2555 27.2798C75.4998 27.1065 74.9046 26.8267 74.47 26.4403C74.0353 26.0511 73.8194 25.5255 73.8223 24.8636C73.8194 24.3238 73.9643 23.8508 74.2569 23.4446C74.5495 23.0383 74.9544 22.7216 75.4714 22.4943C75.9884 22.267 76.5779 22.1534 77.2399 22.1534C77.916 22.1534 78.5026 22.2684 78.9998 22.4986C79.4998 22.7258 79.8876 23.0454 80.1632 23.4574C80.4387 23.8693 80.5794 24.3466 80.585 24.8892H78.5651ZM85.4643 24.4545V25.9886H81.335V24.4545H85.4643ZM82.2001 22.8863H84.2839V28.9417C84.2839 29.0696 84.3038 29.1733 84.3436 29.2528C84.3862 29.3295 84.4472 29.3849 84.5268 29.419C84.6063 29.4503 84.7015 29.4659 84.8123 29.4659C84.8919 29.4659 84.9757 29.4588 85.0637 29.4446C85.1546 29.4275 85.2228 29.4133 85.2683 29.402L85.5836 30.9062C85.4842 30.9346 85.3436 30.9701 85.1617 31.0128C84.9828 31.0554 84.7683 31.0824 84.5183 31.0937C84.0296 31.1165 83.6106 31.0596 83.2612 30.9233C82.9146 30.7841 82.649 30.5682 82.4643 30.2755C82.2825 29.9829 82.1944 29.615 82.2001 29.1718V22.8863ZM89.5126 31.1236C88.8251 31.1236 88.2342 30.9829 87.7399 30.7017C87.2484 30.4176 86.8691 30.0227 86.6021 29.517C86.3379 29.0085 86.2058 28.419 86.2058 27.7486C86.2058 27.0753 86.3379 26.4858 86.6021 25.9801C86.8691 25.4716 87.2484 25.0767 87.7399 24.7954C88.2342 24.5113 88.8251 24.3693 89.5126 24.3693C90.2001 24.3693 90.7896 24.5113 91.2811 24.7954C91.7754 25.0767 92.1546 25.4716 92.4188 25.9801C92.6859 26.4858 92.8194 27.0753 92.8194 27.7486C92.8194 28.419 92.6859 29.0085 92.4188 29.517C92.1546 30.0227 91.7754 30.4176 91.2811 30.7017C90.7896 30.9829 90.2001 31.1236 89.5126 31.1236ZM89.5254 29.5511C89.7754 29.5511 89.987 29.4744 90.1603 29.321C90.3336 29.1676 90.4657 28.9545 90.5566 28.6818C90.6504 28.4091 90.6972 28.0937 90.6972 27.7358C90.6972 27.3721 90.6504 27.054 90.5566 26.7812C90.4657 26.5085 90.3336 26.2954 90.1603 26.142C89.987 25.9886 89.7754 25.9119 89.5254 25.9119C89.2668 25.9119 89.0481 25.9886 88.8691 26.142C88.693 26.2954 88.558 26.5085 88.4643 26.7812C88.3734 27.054 88.3279 27.3721 88.3279 27.7358C88.3279 28.0937 88.3734 28.4091 88.4643 28.6818C88.558 28.9545 88.693 29.1676 88.8691 29.321C89.0481 29.4744 89.2668 29.5511 89.5254 29.5511ZM93.8869 31V24.4545H95.911V25.6477H95.9792C96.0985 25.2159 96.2931 24.8949 96.563 24.6846C96.8329 24.4716 97.1468 24.365 97.5048 24.365C97.6014 24.365 97.7008 24.3721 97.8031 24.3863C97.9053 24.3977 98.0005 24.4162 98.0886 24.4417V26.2528C97.9891 26.2187 97.8585 26.1917 97.6965 26.1719C97.5374 26.152 97.3954 26.142 97.2704 26.142C97.0232 26.142 96.8002 26.1974 96.6014 26.3082C96.4053 26.4162 96.2505 26.5682 96.1369 26.7642C96.0261 26.9574 95.9707 27.1846 95.9707 27.446V31H93.8869ZM101.657 31.1236C100.973 31.1236 100.382 30.9886 99.8847 30.7187C99.3904 30.446 99.0097 30.0582 98.7427 29.5554C98.4785 29.0497 98.3464 28.4488 98.3464 27.7528C98.3464 27.0767 98.4799 26.4858 98.747 25.9801C99.014 25.4716 99.3904 25.0767 99.8762 24.7954C100.362 24.5113 100.934 24.3693 101.594 24.3693C102.059 24.3693 102.486 24.4417 102.872 24.5866C103.258 24.7315 103.592 24.946 103.873 25.2301C104.155 25.5142 104.373 25.865 104.53 26.2826C104.686 26.6974 104.764 27.1733 104.764 27.7102V28.2301H99.0751V27.0199H102.825C102.822 26.7983 102.77 26.6008 102.667 26.4275C102.565 26.2542 102.425 26.1193 102.246 26.0227C102.069 25.9233 101.866 25.8736 101.636 25.8736C101.403 25.8736 101.194 25.9261 101.01 26.0312C100.825 26.1335 100.679 26.2741 100.571 26.4531C100.463 26.6292 100.406 26.8295 100.4 27.054V28.2855C100.4 28.5525 100.453 28.7869 100.558 28.9886C100.663 29.1875 100.812 29.3423 101.005 29.4531C101.199 29.5639 101.429 29.6193 101.696 29.6193C101.88 29.6193 102.048 29.5937 102.199 29.5426C102.349 29.4915 102.478 29.4162 102.586 29.3167C102.694 29.2173 102.775 29.0951 102.829 28.9503L104.743 29.0057C104.663 29.4346 104.488 29.8082 104.219 30.1264C103.952 30.4417 103.601 30.6875 103.166 30.8636C102.731 31.0369 102.228 31.1236 101.657 31.1236Z" fill="white"/>
</g>
<rect x="0.749817" y="0.749989" width="118.5" height="38.5" rx="5.25" stroke="white" stroke-opacity="0.15" stroke-width="1.5"/>
<defs>
<filter id="filter0_d_18_2013" x="5.99982" y="1.99998" width="36" height="36" filterUnits="userSpaceOnUse" color-interpolation-filters="sRGB">
<feFlood flood-opacity="0" result="BackgroundImageFix"/>
<feColorMatrix in="SourceAlpha" type="matrix" values="0 0 0 0 0 0 0 0 0 0 0 0 0 0 0 0 0 0 127 0" result="hardAlpha"/>
<feOffset/>
<feGaussianBlur stdDeviation="2"/>
<feComposite in2="hardAlpha" operator="out"/>
<feColorMatrix type="matrix" values="0 0 0 0 0 0 0 0 0 0 0 0 0 0 0 0 0 0 0.25 0"/>
<feBlend mode="normal" in2="BackgroundImageFix" result="effect1_dropShadow_18_2013"/>
<feBlend mode="normal" in="SourceGraphic" in2="effect1_dropShadow_18_2013" result="shape"/>
</filter>
<filter id="filter1_d_18_2013" x="41.9998" y="2.99998" width="71.9999" height="34.4545" filterUnits="userSpaceOnUse" color-interpolation-filters="sRGB">
<feFlood flood-opacity="0" result="BackgroundImageFix"/>
<feColorMatrix in="SourceAlpha" type="matrix" values="0 0 0 0 0 0 0 0 0 0 0 0 0 0 0 0 0 0 127 0" result="hardAlpha"/>
<feOffset/>
<feGaussianBlur stdDeviation="2"/>
<feComposite in2="hardAlpha" operator="out"/>
<feColorMatrix type="matrix" values="0 0 0 0 0 0 0 0 0 0 0 0 0 0 0 0 0 0 0.25 0"/>
<feBlend mode="normal" in2="BackgroundImageFix" result="effect1_dropShadow_18_2013"/>
<feBlend mode="normal" in="SourceGraphic" in2="effect1_dropShadow_18_2013" result="shape"/>
</filter>
<linearGradient id="paint0_linear_18_2013" x1="59.9998" y1="-1.14441e-05" x2="59.9998" y2="40" gradientUnits="userSpaceOnUse">
<stop stop-color="#1A1A1A"/>
<stop offset="1" stop-color="#0A0A0A"/>
</linearGradient>
</defs>
</svg>
