<svg width="174" height="40" viewBox="0 0 174 40" fill="none" xmlns="http://www.w3.org/2000/svg">
<rect x="-0.000183105" y="-3.05176e-05" width="174" height="40" rx="6" fill="url(#paint0_linear_18_2107)"/>
<g filter="url(#filter0_d_18_2107)">
<path d="M36.4709 10.8547C34.7201 9.06875 32.0355 9.06875 30.2847 10.7356C30.168 10.8547 30.168 10.9738 30.168 11.0928C30.168 11.2119 30.168 11.3309 30.2847 11.45L30.8683 12.0453C30.985 12.1644 31.2185 12.1644 31.4519 12.0453C31.9188 11.6881 32.3857 11.5691 32.9693 11.5691C34.3699 11.5691 35.5371 12.7597 35.5371 14.1884C35.5371 14.9028 35.3037 15.4981 34.8368 15.9744C31.3352 19.5462 26.5497 9.545 15.9281 14.6647C15.2278 15.0219 14.8777 15.8553 15.2278 16.5697V16.6887L16.9786 19.9034C17.3288 20.6178 18.2625 20.8559 18.9629 20.4987L19.7799 20.0225C20.7137 19.4272 21.5307 18.8319 22.3477 18.1175C22.4645 17.9984 22.8146 17.9984 22.9313 18.1175C23.1648 18.2366 23.1648 18.4747 23.0481 18.7128L22.9313 18.8319C22.1143 19.5462 21.1805 20.2606 20.2468 20.8559L19.4297 21.2131C19.0796 21.4512 18.7294 21.5703 18.2625 21.5703C17.4455 21.5703 16.6285 21.094 16.2783 20.3797L14.5275 17.2841C11.2593 19.6653 9.15839 24.3087 10.3256 30.1428C10.3256 30.3809 10.559 30.5 10.7925 30.5H12.7767C13.0101 30.5 13.1269 30.3809 13.2436 30.1428C13.477 28.4759 14.8777 27.4043 16.5117 27.6425C17.7957 27.7615 18.8461 28.8331 18.9629 30.1428C18.9629 30.3809 19.1963 30.5 19.4297 30.5H21.2973C21.5307 30.5 21.6474 30.3809 21.7641 30.1428C21.9976 28.4759 23.3982 27.4043 25.0323 27.6425C26.3162 27.7615 27.3667 28.8331 27.4834 30.1428C27.4834 30.3809 27.7169 30.5 27.9503 30.5H29.8178C30.0513 30.5 30.2847 30.2618 30.2847 30.0237C30.2847 27.2853 31.1017 24.1897 33.086 22.6419C39.9725 17.165 38.1049 12.5216 36.4709 10.8547V10.8547ZM29.2342 19.07L27.8336 18.3556C27.8336 17.8794 28.1837 17.5222 28.6506 17.5222C29.1175 17.5222 29.4677 17.8794 29.4677 18.3556C29.5844 18.7128 29.4677 18.9509 29.2342 19.07Z" fill="#7DC1D1"/>
</g>
<g filter="url(#filter1_d_18_2107)">
<path d="M47.5545 18H46.2733L49.1522 9.99997H50.5467L53.4256 18H52.1443L49.8826 11.4531H49.8201L47.5545 18ZM47.7693 14.8672H51.9256V15.8828H47.7693V14.8672ZM58.868 12L56.6922 18H55.4422L53.2625 12H54.5164L56.0359 16.6172H56.0984L57.6141 12H58.868ZM61.5399 18.1328C61.1596 18.1328 60.8159 18.0625 60.5086 17.9218C60.2013 17.7786 59.9578 17.5716 59.7781 17.3007C59.601 17.0299 59.5125 16.6979 59.5125 16.3047C59.5125 15.9661 59.5776 15.6875 59.7078 15.4687C59.838 15.25 60.0138 15.0768 60.2352 14.9492C60.4565 14.8216 60.7039 14.7252 60.9774 14.6601C61.2508 14.595 61.5294 14.5455 61.8133 14.5117C62.1727 14.47 62.4643 14.4362 62.6883 14.4101C62.9122 14.3815 63.075 14.3359 63.1766 14.2734C63.2781 14.2109 63.3289 14.1093 63.3289 13.9687V13.9414C63.3289 13.6002 63.2326 13.3359 63.0399 13.1484C62.8497 12.9609 62.5659 12.8672 62.1883 12.8672C61.7951 12.8672 61.4852 12.9544 61.2586 13.1289C61.0346 13.3007 60.8797 13.4922 60.7938 13.7031L59.6961 13.4531C59.8263 13.0885 60.0164 12.7942 60.2664 12.5703C60.519 12.3437 60.8094 12.1797 61.1375 12.0781C61.4656 11.9739 61.8107 11.9218 62.1727 11.9218C62.4122 11.9218 62.6662 11.9505 62.9344 12.0078C63.2052 12.0625 63.4578 12.164 63.6922 12.3125C63.9292 12.4609 64.1232 12.6731 64.2742 12.9492C64.4253 13.2226 64.5008 13.5781 64.5008 14.0156V18H63.3602V17.1797H63.3133C63.2378 17.3307 63.1245 17.4791 62.9734 17.625C62.8224 17.7708 62.6284 17.8919 62.3914 17.9882C62.1544 18.0846 61.8706 18.1328 61.5399 18.1328ZM61.7938 17.1953C62.1167 17.1953 62.3927 17.1315 62.6219 17.0039C62.8537 16.8763 63.0294 16.7096 63.1492 16.5039C63.2716 16.2955 63.3328 16.0729 63.3328 15.8359V15.0625C63.2912 15.1041 63.2104 15.1432 63.0906 15.1797C62.9734 15.2135 62.8393 15.2435 62.6883 15.2695C62.5372 15.2929 62.3901 15.3151 62.2469 15.3359C62.1037 15.3541 61.9839 15.3698 61.8875 15.3828C61.6609 15.4114 61.4539 15.4596 61.2664 15.5273C61.0815 15.595 60.9331 15.6927 60.8211 15.8203C60.7117 15.9453 60.657 16.1119 60.657 16.3203C60.657 16.6093 60.7638 16.8281 60.9774 16.9765C61.1909 17.1224 61.463 17.1953 61.7938 17.1953ZM66.0565 18V12H67.2244V18H66.0565ZM66.6463 11.0742C66.4432 11.0742 66.2687 11.0065 66.1229 10.8711C65.9796 10.733 65.908 10.569 65.908 10.3789C65.908 10.1862 65.9796 10.0221 66.1229 9.88669C66.2687 9.74867 66.4432 9.67966 66.6463 9.67966C66.8494 9.67966 67.0226 9.74867 67.1658 9.88669C67.3117 10.0221 67.3846 10.1862 67.3846 10.3789C67.3846 10.569 67.3117 10.733 67.1658 10.8711C67.0226 11.0065 66.8494 11.0742 66.6463 11.0742ZM69.9637 9.99997V18H68.7957V9.99997H69.9637ZM73.2811 18.1328C72.9009 18.1328 72.5571 18.0625 72.2498 17.9218C71.9425 17.7786 71.699 17.5716 71.5193 17.3007C71.3423 17.0299 71.2537 16.6979 71.2537 16.3047C71.2537 15.9661 71.3188 15.6875 71.449 15.4687C71.5792 15.25 71.755 15.0768 71.9764 14.9492C72.1977 14.8216 72.4451 14.7252 72.7186 14.6601C72.992 14.595 73.2706 14.5455 73.5545 14.5117C73.9139 14.47 74.2055 14.4362 74.4295 14.4101C74.6535 14.3815 74.8162 14.3359 74.9178 14.2734C75.0193 14.2109 75.0701 14.1093 75.0701 13.9687V13.9414C75.0701 13.6002 74.9738 13.3359 74.7811 13.1484C74.591 12.9609 74.3071 12.8672 73.9295 12.8672C73.5363 12.8672 73.2264 12.9544 72.9998 13.1289C72.7759 13.3007 72.6209 13.4922 72.535 13.7031L71.4373 13.4531C71.5675 13.0885 71.7576 12.7942 72.0076 12.5703C72.2602 12.3437 72.5506 12.1797 72.8787 12.0781C73.2068 11.9739 73.5519 11.9218 73.9139 11.9218C74.1535 11.9218 74.4074 11.9505 74.6756 12.0078C74.9464 12.0625 75.199 12.164 75.4334 12.3125C75.6704 12.4609 75.8644 12.6731 76.0154 12.9492C76.1665 13.2226 76.242 13.5781 76.242 14.0156V18H75.1014V17.1797H75.0545C74.979 17.3307 74.8657 17.4791 74.7147 17.625C74.5636 17.7708 74.3696 17.8919 74.1326 17.9882C73.8956 18.0846 73.6118 18.1328 73.2811 18.1328ZM73.535 17.1953C73.8579 17.1953 74.1339 17.1315 74.3631 17.0039C74.5949 16.8763 74.7706 16.7096 74.8904 16.5039C75.0128 16.2955 75.074 16.0729 75.074 15.8359V15.0625C75.0324 15.1041 74.9516 15.1432 74.8318 15.1797C74.7147 15.2135 74.5805 15.2435 74.4295 15.2695C74.2785 15.2929 74.1313 15.3151 73.9881 15.3359C73.8449 15.3541 73.7251 15.3698 73.6287 15.3828C73.4022 15.4114 73.1951 15.4596 73.0076 15.5273C72.8227 15.595 72.6743 15.6927 72.5623 15.8203C72.4529 15.9453 72.3982 16.1119 72.3982 16.3203C72.3982 16.6093 72.505 16.8281 72.7186 16.9765C72.9321 17.1224 73.2042 17.1953 73.535 17.1953ZM77.8914 18V9.99997H79.0594V12.9726H79.1297C79.1974 12.8476 79.2951 12.7031 79.4227 12.539C79.5503 12.375 79.7273 12.2317 79.9539 12.1093C80.1805 11.9843 80.4799 11.9218 80.8523 11.9218C81.3367 11.9218 81.769 12.0442 82.1492 12.289C82.5294 12.5338 82.8276 12.8867 83.0438 13.3476C83.2625 13.8086 83.3719 14.3632 83.3719 15.0117C83.3719 15.6601 83.2638 16.2161 83.0477 16.6797C82.8315 17.1406 82.5346 17.4961 82.157 17.7461C81.7794 17.9935 81.3484 18.1172 80.8641 18.1172C80.4995 18.1172 80.2013 18.056 79.9695 17.9336C79.7404 17.8112 79.5607 17.6679 79.4305 17.5039C79.3003 17.3398 79.2 17.194 79.1297 17.0664H79.032V18H77.8914ZM79.0359 15C79.0359 15.4218 79.0971 15.7916 79.2195 16.1093C79.3419 16.427 79.519 16.6757 79.7508 16.8554C79.9826 17.0325 80.2664 17.1211 80.6023 17.1211C80.9513 17.1211 81.243 17.0286 81.4773 16.8437C81.7117 16.6562 81.8888 16.4023 82.0086 16.082C82.131 15.7617 82.1922 15.401 82.1922 15C82.1922 14.6041 82.1323 14.2487 82.0125 13.9336C81.8953 13.6185 81.7182 13.3698 81.4813 13.1875C81.2469 13.0052 80.9539 12.914 80.6023 12.914C80.2638 12.914 79.9773 13.0013 79.743 13.1757C79.5112 13.3502 79.3354 13.5937 79.2156 13.9062C79.0958 14.2187 79.0359 14.5833 79.0359 15ZM85.8514 9.99997V18H84.6834V9.99997H85.8514ZM90.0086 18.1211C89.4174 18.1211 88.9083 17.9948 88.4812 17.7422C88.0568 17.4869 87.7286 17.1289 87.4969 16.6679C87.2677 16.2044 87.1531 15.6614 87.1531 15.039C87.1531 14.4244 87.2677 13.8828 87.4969 13.414C87.7286 12.9453 88.0516 12.5794 88.4656 12.3164C88.8823 12.0534 89.3693 11.9218 89.9266 11.9218C90.2651 11.9218 90.5932 11.9778 90.9109 12.0898C91.2286 12.2018 91.5138 12.3776 91.7664 12.6172C92.019 12.8567 92.2182 13.1679 92.3641 13.5507C92.5099 13.931 92.5828 14.3932 92.5828 14.9375V15.3515H87.8133V14.4765H91.4383C91.4383 14.1692 91.3758 13.8971 91.2508 13.6601C91.1258 13.4205 90.95 13.2317 90.7234 13.0937C90.4995 12.9557 90.2365 12.8867 89.9344 12.8867C89.6062 12.8867 89.3198 12.9674 89.075 13.1289C88.8328 13.2877 88.6453 13.4961 88.5125 13.7539C88.3823 14.0091 88.3172 14.2864 88.3172 14.5859V15.2695C88.3172 15.6705 88.3875 16.0117 88.5281 16.2929C88.6714 16.5742 88.8706 16.789 89.1258 16.9375C89.381 17.0833 89.6792 17.1562 90.0203 17.1562C90.2417 17.1562 90.4435 17.125 90.6258 17.0625C90.8081 16.9974 90.9656 16.901 91.0984 16.7734C91.2312 16.6458 91.3328 16.4882 91.4031 16.3007L92.5086 16.5C92.4201 16.8255 92.2612 17.1106 92.032 17.3554C91.8055 17.5976 91.5203 17.7864 91.1766 17.9218C90.8354 18.0547 90.4461 18.1211 90.0086 18.1211ZM99.3172 18.1211C98.7547 18.1211 98.2638 17.9922 97.8445 17.7343C97.4253 17.4765 97.0997 17.1159 96.868 16.6523C96.6362 16.1888 96.5203 15.6471 96.5203 15.0273C96.5203 14.4049 96.6362 13.8606 96.868 13.3945C97.0997 12.9284 97.4253 12.5664 97.8445 12.3086C98.2638 12.0507 98.7547 11.9218 99.3172 11.9218C99.8797 11.9218 100.371 12.0507 100.79 12.3086C101.209 12.5664 101.535 12.9284 101.766 13.3945C101.998 13.8606 102.114 14.4049 102.114 15.0273C102.114 15.6471 101.998 16.1888 101.766 16.6523C101.535 17.1159 101.209 17.4765 100.79 17.7343C100.371 17.9922 99.8797 18.1211 99.3172 18.1211ZM99.3211 17.1406C99.6857 17.1406 99.9878 17.0442 100.227 16.8515C100.467 16.6588 100.644 16.4023 100.759 16.082C100.876 15.7617 100.934 15.4088 100.934 15.0234C100.934 14.6406 100.876 14.289 100.759 13.9687C100.644 13.6458 100.467 13.3867 100.227 13.1914C99.9878 12.9961 99.6857 12.8984 99.3211 12.8984C98.9539 12.8984 98.6492 12.9961 98.407 13.1914C98.1674 13.3867 97.9891 13.6458 97.8719 13.9687C97.7573 14.289 97.7 14.6406 97.7 15.0234C97.7 15.4088 97.7573 15.7617 97.8719 16.082C97.9891 16.4023 98.1674 16.6588 98.407 16.8515C98.6492 17.0442 98.9539 17.1406 99.3211 17.1406ZM104.586 14.4375V18H103.418V12H104.539V12.9765H104.613C104.751 12.6588 104.967 12.4036 105.262 12.2109C105.558 12.0182 105.932 11.9218 106.383 11.9218C106.791 11.9218 107.15 12.0078 107.457 12.1797C107.764 12.3489 108.002 12.6015 108.172 12.9375C108.341 13.2734 108.426 13.6888 108.426 14.1836V18H107.258V14.3242C107.258 13.8893 107.144 13.5494 106.918 13.3047C106.691 13.0573 106.38 12.9336 105.984 12.9336C105.713 12.9336 105.472 12.9922 105.262 13.1093C105.053 13.2265 104.888 13.3984 104.765 13.625C104.646 13.8489 104.586 14.1198 104.586 14.4375Z" fill="#E8E8E8"/>
<path d="M52.3876 25.1235C52.3393 24.9446 52.2683 24.7869 52.1745 24.6505C52.0808 24.5113 51.9657 24.3934 51.8294 24.2968C51.693 24.2003 51.5367 24.1278 51.3606 24.0795C51.1845 24.0284 50.9913 24.0028 50.7811 24.0028C50.3578 24.0028 49.9913 24.1051 49.6816 24.3096C49.3748 24.5142 49.1376 24.8125 48.97 25.2045C48.8024 25.5937 48.7186 26.0667 48.7186 26.6235C48.7186 27.1832 48.7995 27.6605 48.9615 28.0554C49.1234 28.4503 49.3578 28.7514 49.6646 28.9588C49.9714 29.1662 50.3436 29.2699 50.7811 29.2699C51.1674 29.2699 51.4941 29.2074 51.7612 29.0824C52.0311 28.9545 52.2356 28.7741 52.3748 28.5412C52.514 28.3082 52.5836 28.0341 52.5836 27.7187L52.9757 27.7656H50.8535V26.2272H54.6163V27.3821C54.6163 28.1633 54.4501 28.8324 54.1177 29.3892C53.7882 29.946 53.3336 30.3735 52.7541 30.6718C52.1774 30.9701 51.514 31.1193 50.764 31.1193C49.9316 31.1193 49.2001 30.9389 48.5694 30.5781C47.9387 30.2173 47.4473 29.7031 47.095 29.0355C46.7427 28.365 46.5666 27.5696 46.5666 26.6491C46.5666 25.9332 46.6731 25.2983 46.8862 24.7443C47.0992 24.1875 47.3961 23.7159 47.7768 23.3295C48.1603 22.9432 48.6035 22.6505 49.1064 22.4517C49.612 22.2528 50.1561 22.1534 50.7385 22.1534C51.2441 22.1534 51.7143 22.2258 52.149 22.3707C52.5865 22.5156 52.9728 22.7201 53.3081 22.9843C53.6461 23.2485 53.9203 23.5625 54.1305 23.9261C54.3407 24.2897 54.4714 24.6889 54.5225 25.1235H52.3876ZM55.8595 31V24.4545H57.8837V25.6477H57.9519C58.0712 25.2159 58.2658 24.8949 58.5357 24.6846C58.8056 24.4716 59.1195 24.365 59.4774 24.365C59.574 24.365 59.6735 24.3721 59.7757 24.3863C59.878 24.3977 59.9732 24.4162 60.0612 24.4417V26.2528C59.9618 26.2187 59.8311 26.1917 59.6692 26.1718C59.5101 26.152 59.3681 26.142 59.2431 26.142C58.9959 26.142 58.7729 26.1974 58.574 26.3082C58.378 26.4162 58.2232 26.5681 58.1095 26.7642C57.9987 26.9574 57.9434 27.1846 57.9434 27.446V31H55.8595ZM62.5094 31.1108C62.0918 31.1108 61.721 31.0412 61.3972 30.902C61.0762 30.7599 60.8219 30.5468 60.6344 30.2628C60.4497 29.9758 60.3574 29.6164 60.3574 29.1846C60.3574 28.821 60.4213 28.5142 60.5492 28.2642C60.677 28.0142 60.8532 27.811 61.0776 27.6548C61.302 27.4985 61.5605 27.3806 61.8532 27.3011C62.1458 27.2187 62.4583 27.1633 62.7907 27.1349C63.1628 27.1008 63.4625 27.0653 63.6898 27.0284C63.9171 26.9886 64.0818 26.9332 64.1841 26.8622C64.2892 26.7883 64.3418 26.6846 64.3418 26.5511V26.5298C64.3418 26.311 64.2665 26.142 64.1159 26.0227C63.9654 25.9034 63.7622 25.8437 63.5066 25.8437C63.231 25.8437 63.0094 25.9034 62.8418 26.0227C62.6742 26.142 62.5676 26.3068 62.5222 26.517L60.6003 26.4488C60.6571 26.0511 60.8034 25.696 61.0392 25.3835C61.2779 25.0681 61.6046 24.821 62.0193 24.642C62.437 24.4602 62.9384 24.3693 63.5236 24.3693C63.9412 24.3693 64.3262 24.419 64.6784 24.5184C65.0307 24.615 65.3375 24.7571 65.5989 24.9446C65.8603 25.1292 66.062 25.3565 66.204 25.6264C66.3489 25.8963 66.4213 26.2045 66.4213 26.5511V31H64.4611V30.088H64.41C64.2935 30.3096 64.1443 30.4971 63.9625 30.6505C63.7835 30.8039 63.5719 30.919 63.3276 30.9957C63.0861 31.0724 62.8134 31.1108 62.5094 31.1108ZM63.1529 29.7471C63.3773 29.7471 63.579 29.7017 63.758 29.6108C63.9398 29.5199 64.0847 29.3949 64.1926 29.2358C64.3006 29.0738 64.3546 28.8863 64.3546 28.6733V28.0511C64.2949 28.0824 64.2225 28.1108 64.1372 28.1363C64.0549 28.1619 63.9639 28.186 63.8645 28.2088C63.7651 28.2315 63.6628 28.2514 63.5577 28.2684C63.4526 28.2855 63.3517 28.3011 63.2551 28.3153C63.0591 28.3466 62.8915 28.3949 62.7523 28.4602C62.6159 28.5255 62.5108 28.6108 62.437 28.7159C62.3659 28.8181 62.3304 28.9403 62.3304 29.0824C62.3304 29.2983 62.4071 29.463 62.5605 29.5767C62.7168 29.6903 62.9142 29.7471 63.1529 29.7471ZM70.0861 31.0937C69.6031 31.0937 69.1642 30.9687 68.7693 30.7187C68.3745 30.4687 68.0591 30.0937 67.8233 29.5937C67.5875 29.0937 67.4696 28.473 67.4696 27.7315C67.4696 26.9616 67.5918 26.3281 67.8361 25.8309C68.0804 25.3338 68.4 24.9659 68.7949 24.7272C69.1926 24.4886 69.6202 24.3693 70.0776 24.3693C70.4213 24.3693 70.7154 24.4289 70.9597 24.5483C71.204 24.6647 71.4057 24.8153 71.5648 25C71.7239 25.1846 71.8446 25.3764 71.927 25.5753H71.9696V22.2727H74.0534V31H71.9909V29.9389H71.927C71.8389 30.1406 71.7139 30.3295 71.552 30.5056C71.3901 30.6818 71.187 30.8238 70.9426 30.9318C70.7012 31.0397 70.4156 31.0937 70.0861 31.0937ZM70.8105 29.4701C71.0634 29.4701 71.2793 29.3991 71.4583 29.2571C71.6372 29.1122 71.775 28.9091 71.8716 28.6477C71.9682 28.3863 72.0165 28.0795 72.0165 27.7272C72.0165 27.3693 71.9682 27.061 71.8716 26.8025C71.7779 26.544 71.6401 26.3451 71.4583 26.2059C71.2793 26.0667 71.0634 25.9971 70.8105 25.9971C70.552 25.9971 70.3333 26.0681 70.1543 26.2102C69.9753 26.3522 69.8389 26.5525 69.7452 26.811C69.6543 27.0696 69.6088 27.375 69.6088 27.7272C69.6088 28.0795 69.6557 28.3863 69.7495 28.6477C69.8432 28.9091 69.9781 29.1122 70.1543 29.2571C70.3333 29.3991 70.552 29.4701 70.8105 29.4701ZM77.4551 22.2727V31H75.3713V22.2727H77.4551ZM81.8411 31.1235C81.1564 31.1235 80.5655 30.9886 80.0683 30.7187C79.574 30.446 79.1933 30.0582 78.9263 29.5554C78.6621 29.0497 78.53 28.4488 78.53 27.7528C78.53 27.0767 78.6635 26.4858 78.9306 25.9801C79.1976 25.4716 79.574 25.0767 80.0598 24.7954C80.5456 24.5113 81.1181 24.3693 81.7771 24.3693C82.2431 24.3693 82.6692 24.4417 83.0556 24.5866C83.4419 24.7315 83.7757 24.946 84.057 25.2301C84.3382 25.5142 84.557 25.865 84.7132 26.2826C84.8695 26.6974 84.9476 27.1733 84.9476 27.7102V28.2301H79.2587V27.0199H83.0087C83.0058 26.7983 82.9533 26.6008 82.851 26.4275C82.7487 26.2542 82.6081 26.1193 82.4291 26.0227C82.253 25.9233 82.0499 25.8735 81.8198 25.8735C81.5868 25.8735 81.378 25.9261 81.1933 26.0312C81.0087 26.1335 80.8624 26.2741 80.7544 26.4531C80.6465 26.6292 80.5897 26.8295 80.584 27.0539V28.2855C80.584 28.5525 80.6365 28.7869 80.7416 28.9886C80.8468 29.1875 80.9959 29.3423 81.1891 29.4531C81.3823 29.5639 81.6124 29.6193 81.8794 29.6193C82.0641 29.6193 82.2317 29.5937 82.3823 29.5426C82.5328 29.4914 82.6621 29.4162 82.77 29.3167C82.878 29.2173 82.959 29.0951 83.0129 28.9503L84.9263 29.0056C84.8468 29.4346 84.672 29.8082 84.4021 30.1264C84.1351 30.4417 83.7843 30.6875 83.3496 30.8636C82.9149 31.0369 82.4121 31.1235 81.8411 31.1235ZM88.59 31V22.2727H92.1951C92.8485 22.2727 93.4124 22.4005 93.8869 22.6562C94.3641 22.9091 94.732 23.2628 94.9906 23.7173C95.2491 24.169 95.3784 24.6946 95.3784 25.294C95.3784 25.8963 95.2463 26.4233 94.982 26.875C94.7207 27.3238 94.3471 27.6718 93.8613 27.919C93.3755 28.1662 92.7988 28.2897 92.1312 28.2897H89.9068V26.6278H91.7391C92.0573 26.6278 92.323 26.5724 92.536 26.4616C92.7519 26.3508 92.9153 26.196 93.0261 25.9971C93.1369 25.7954 93.1923 25.561 93.1923 25.294C93.1923 25.0241 93.1369 24.7912 93.0261 24.5951C92.9153 24.3963 92.7519 24.2429 92.536 24.1349C92.3201 24.027 92.0545 23.973 91.7391 23.973H90.6994V31H88.59ZM98.5019 22.2727V31H96.4181V22.2727H98.5019ZM104.051 28.1747V24.4545H106.131V31H104.145V29.7812H104.077C103.932 30.1818 103.685 30.5 103.335 30.7358C102.989 30.9687 102.57 31.0852 102.078 31.0852C101.632 31.0852 101.24 30.9829 100.902 30.7784C100.564 30.5738 100.301 30.2883 100.114 29.9218C99.9263 29.5525 99.8311 29.1207 99.8283 28.6264V24.4545H101.912V28.2173C101.915 28.5724 102.009 28.8522 102.193 29.0568C102.378 29.2613 102.629 29.3636 102.948 29.3636C103.155 29.3636 103.341 29.3181 103.506 29.2272C103.673 29.1335 103.806 28.9985 103.902 28.8224C104.002 28.6434 104.051 28.4275 104.051 28.1747ZM110.508 33.5909C109.886 33.5909 109.353 33.5042 108.91 33.3309C108.467 33.1576 108.119 32.9204 107.866 32.6193C107.613 32.3181 107.461 31.9772 107.41 31.5966L109.383 31.4858C109.42 31.6193 109.488 31.7358 109.588 31.8352C109.69 31.9346 109.822 32.0113 109.984 32.0653C110.149 32.1193 110.342 32.1463 110.564 32.1463C110.913 32.1463 111.202 32.061 111.429 31.8906C111.659 31.723 111.774 31.4289 111.774 31.0085V29.8579H111.702C111.619 30.0596 111.494 30.24 111.327 30.3991C111.159 30.5582 110.95 30.6832 110.7 30.7741C110.453 30.865 110.169 30.9105 109.848 30.9105C109.371 30.9105 108.933 30.7997 108.535 30.5781C108.14 30.3537 107.824 30.0071 107.585 29.5383C107.349 29.0667 107.231 28.4602 107.231 27.7187C107.231 26.9545 107.353 26.3253 107.598 25.8309C107.842 25.3338 108.162 24.9659 108.557 24.7272C108.954 24.4886 109.382 24.3693 109.839 24.3693C110.183 24.3693 110.477 24.4289 110.721 24.5483C110.969 24.6647 111.172 24.8153 111.331 25C111.49 25.1846 111.611 25.3764 111.693 25.5753H111.753V24.4545H113.828V31.0255C113.828 31.5795 113.689 32.0468 113.41 32.4275C113.132 32.8082 112.743 33.0966 112.243 33.2926C111.743 33.4914 111.165 33.5909 110.508 33.5909ZM110.572 29.3934C110.825 29.3934 111.041 29.3267 111.22 29.1931C111.399 29.0596 111.537 28.8679 111.633 28.6179C111.73 28.3679 111.778 28.0681 111.778 27.7187C111.778 27.3636 111.73 27.0582 111.633 26.8025C111.54 26.544 111.402 26.3451 111.22 26.2059C111.041 26.0667 110.825 25.9971 110.572 25.9971C110.314 25.9971 110.095 26.0681 109.916 26.2102C109.737 26.3522 109.601 26.5525 109.507 26.811C109.416 27.0667 109.371 27.3693 109.371 27.7187C109.371 28.0681 109.417 28.3679 109.511 28.6179C109.605 28.8679 109.74 29.0596 109.916 29.1931C110.095 29.3267 110.314 29.3934 110.572 29.3934ZM115.156 31V24.4545H117.24V31H115.156ZM116.2 23.6917C115.908 23.6917 115.656 23.5951 115.446 23.402C115.236 23.2059 115.131 22.9701 115.131 22.6946C115.131 22.4218 115.236 22.1889 115.446 21.9957C115.656 21.7997 115.908 21.7017 116.2 21.7017C116.496 21.7017 116.747 21.7997 116.955 21.9957C117.165 22.1889 117.27 22.4218 117.27 22.6946C117.27 22.9701 117.165 23.2059 116.955 23.402C116.747 23.5951 116.496 23.6917 116.2 23.6917ZM120.65 27.267V31H118.567V24.4545H120.548V25.6562H120.621C120.765 25.2556 121.013 24.9417 121.362 24.7145C121.711 24.4843 122.128 24.3693 122.611 24.3693C123.071 24.3693 123.47 24.473 123.808 24.6804C124.149 24.8849 124.413 25.1718 124.601 25.5412C124.791 25.9076 124.885 26.3366 124.882 26.8281V31H122.798V27.2372C122.801 26.8735 122.709 26.5895 122.521 26.3849C122.336 26.1804 122.079 26.0781 121.75 26.0781C121.531 26.0781 121.338 26.1264 121.17 26.223C121.005 26.3167 120.878 26.4517 120.787 26.6278C120.699 26.8039 120.653 27.017 120.65 27.267ZM128.75 31V22.2727H132.355C133.009 22.2727 133.573 22.4005 134.047 22.6562C134.524 22.9091 134.892 23.2628 135.151 23.7173C135.409 24.169 135.538 24.6946 135.538 25.294C135.538 25.8963 135.406 26.4233 135.142 26.875C134.881 27.3238 134.507 27.6718 134.021 27.919C133.536 28.1662 132.959 28.2897 132.291 28.2897H130.067V26.6278H131.899C132.217 26.6278 132.483 26.5724 132.696 26.4616C132.912 26.3508 133.075 26.196 133.186 25.9971C133.297 25.7954 133.352 25.561 133.352 25.294C133.352 25.0241 133.297 24.7912 133.186 24.5951C133.075 24.3963 132.912 24.2429 132.696 24.1349C132.48 24.027 132.215 23.973 131.899 23.973H130.86V31H128.75ZM139.505 31.1235C138.817 31.1235 138.226 30.9829 137.732 30.7017C137.241 30.4176 136.861 30.0227 136.594 29.517C136.33 29.0085 136.198 28.419 136.198 27.7485C136.198 27.0753 136.33 26.4858 136.594 25.9801C136.861 25.4716 137.241 25.0767 137.732 24.7954C138.226 24.5113 138.817 24.3693 139.505 24.3693C140.192 24.3693 140.782 24.5113 141.273 24.7954C141.768 25.0767 142.147 25.4716 142.411 25.9801C142.678 26.4858 142.812 27.0753 142.812 27.7485C142.812 28.419 142.678 29.0085 142.411 29.517C142.147 30.0227 141.768 30.4176 141.273 30.7017C140.782 30.9829 140.192 31.1235 139.505 31.1235ZM139.518 29.5511C139.768 29.5511 139.979 29.4744 140.152 29.321C140.326 29.1676 140.458 28.9545 140.549 28.6818C140.643 28.4091 140.689 28.0937 140.689 27.7358C140.689 27.3721 140.643 27.0539 140.549 26.7812C140.458 26.5085 140.326 26.2954 140.152 26.142C139.979 25.9886 139.768 25.9119 139.518 25.9119C139.259 25.9119 139.04 25.9886 138.861 26.142C138.685 26.2954 138.55 26.5085 138.456 26.7812C138.366 27.0539 138.32 27.3721 138.32 27.7358C138.32 28.0937 138.366 28.4091 138.456 28.6818C138.55 28.9545 138.685 29.1676 138.861 29.321C139.04 29.4744 139.259 29.5511 139.518 29.5511ZM143.879 31V24.4545H145.903V25.6477H145.971C146.091 25.2159 146.285 24.8949 146.555 24.6846C146.825 24.4716 147.139 24.365 147.497 24.365C147.594 24.365 147.693 24.3721 147.795 24.3863C147.898 24.3977 147.993 24.4162 148.081 24.4417V26.2528C147.981 26.2187 147.851 26.1917 147.689 26.1718C147.53 26.152 147.388 26.142 147.263 26.142C147.015 26.142 146.792 26.1974 146.594 26.3082C146.398 26.4162 146.243 26.5681 146.129 26.7642C146.018 26.9574 145.963 27.1846 145.963 27.446V31H143.879ZM152.929 24.4545V25.9886H148.8V24.4545H152.929ZM149.665 22.8863H151.749V28.9417C151.749 29.0696 151.769 29.1733 151.808 29.2528C151.851 29.3295 151.912 29.3849 151.992 29.419C152.071 29.4503 152.166 29.4659 152.277 29.4659C152.357 29.4659 152.44 29.4588 152.529 29.4446C152.619 29.4275 152.688 29.4133 152.733 29.402L153.048 30.9062C152.949 30.9346 152.808 30.9701 152.627 31.0128C152.448 31.0554 152.233 31.0824 151.983 31.0937C151.494 31.1164 151.075 31.0596 150.726 30.9233C150.379 30.7841 150.114 30.5681 149.929 30.2755C149.747 29.9829 149.659 29.615 149.665 29.1718V22.8863ZM155.837 31.1108C155.42 31.1108 155.049 31.0412 154.725 30.902C154.404 30.7599 154.15 30.5468 153.962 30.2628C153.778 29.9758 153.686 29.6164 153.686 29.1846C153.686 28.821 153.749 28.5142 153.877 28.2642C154.005 28.0142 154.181 27.811 154.406 27.6548C154.63 27.4985 154.889 27.3806 155.181 27.3011C155.474 27.2187 155.786 27.1633 156.119 27.1349C156.491 27.1008 156.791 27.0653 157.018 27.0284C157.245 26.9886 157.41 26.9332 157.512 26.8622C157.617 26.7883 157.67 26.6846 157.67 26.5511V26.5298C157.67 26.311 157.595 26.142 157.444 26.0227C157.293 25.9034 157.09 25.8437 156.835 25.8437C156.559 25.8437 156.337 25.9034 156.17 26.0227C156.002 26.142 155.896 26.3068 155.85 26.517L153.928 26.4488C153.985 26.0511 154.132 25.696 154.367 25.3835C154.606 25.0681 154.933 24.821 155.347 24.642C155.765 24.4602 156.266 24.3693 156.852 24.3693C157.269 24.3693 157.654 24.419 158.007 24.5184C158.359 24.615 158.666 24.7571 158.927 24.9446C159.188 25.1292 159.39 25.3565 159.532 25.6264C159.677 25.8963 159.749 26.2045 159.749 26.5511V31H157.789V30.088H157.738C157.622 30.3096 157.472 30.4971 157.291 30.6505C157.112 30.8039 156.9 30.919 156.656 30.9957C156.414 31.0724 156.141 31.1108 155.837 31.1108ZM156.481 29.7471C156.705 29.7471 156.907 29.7017 157.086 29.6108C157.268 29.5199 157.413 29.3949 157.521 29.2358C157.629 29.0738 157.683 28.8863 157.683 28.6733V28.0511C157.623 28.0824 157.551 28.1108 157.465 28.1363C157.383 28.1619 157.292 28.186 157.193 28.2088C157.093 28.2315 156.991 28.2514 156.886 28.2684C156.781 28.2855 156.68 28.3011 156.583 28.3153C156.387 28.3466 156.22 28.3949 156.08 28.4602C155.944 28.5255 155.839 28.6108 155.765 28.7159C155.694 28.8181 155.659 28.9403 155.659 29.0824C155.659 29.2983 155.735 29.463 155.889 29.5767C156.045 29.6903 156.242 29.7471 156.481 29.7471ZM163.107 22.2727V31H161.024V22.2727H163.107Z" fill="#7DC1D1"/>
</g>
<rect x="0.749817" y="0.749969" width="172.5" height="38.5" rx="5.25" stroke="white" stroke-opacity="0.15" stroke-width="1.5"/>
<defs>
<filter id="filter0_d_18_2107" x="5.99982" y="1.99997" width="36" height="36" filterUnits="userSpaceOnUse" color-interpolation-filters="sRGB">
<feFlood flood-opacity="0" result="BackgroundImageFix"/>
<feColorMatrix in="SourceAlpha" type="matrix" values="0 0 0 0 0 0 0 0 0 0 0 0 0 0 0 0 0 0 127 0" result="hardAlpha"/>
<feOffset/>
<feGaussianBlur stdDeviation="2"/>
<feComposite in2="hardAlpha" operator="out"/>
<feColorMatrix type="matrix" values="0 0 0 0 0 0 0 0 0 0 0 0 0 0 0 0 0 0 0.25 0"/>
<feBlend mode="normal" in2="BackgroundImageFix" result="effect1_dropShadow_18_2107"/>
<feBlend mode="normal" in="SourceGraphic" in2="effect1_dropShadow_18_2107" result="shape"/>
</filter>
<filter id="filter1_d_18_2107" x="41.9998" y="2.99997" width="126" height="34.5909" filterUnits="userSpaceOnUse" color-interpolation-filters="sRGB">
<feFlood flood-opacity="0" result="BackgroundImageFix"/>
<feColorMatrix in="SourceAlpha" type="matrix" values="0 0 0 0 0 0 0 0 0 0 0 0 0 0 0 0 0 0 127 0" result="hardAlpha"/>
<feOffset/>
<feGaussianBlur stdDeviation="2"/>
<feComposite in2="hardAlpha" operator="out"/>
<feColorMatrix type="matrix" values="0 0 0 0 0 0 0 0 0 0 0 0 0 0 0 0 0 0 0.25 0"/>
<feBlend mode="normal" in2="BackgroundImageFix" result="effect1_dropShadow_18_2107"/>
<feBlend mode="normal" in="SourceGraphic" in2="effect1_dropShadow_18_2107" result="shape"/>
</filter>
<linearGradient id="paint0_linear_18_2107" x1="86.9998" y1="-3.05176e-05" x2="86.9998" y2="40" gradientUnits="userSpaceOnUse">
<stop stop-color="#22383D"/>
<stop offset="1" stop-color="#162225"/>
</linearGradient>
</defs>
</svg>
