<svg width="144" height="40" viewBox="0 0 144 40" fill="none" xmlns="http://www.w3.org/2000/svg">
<rect x="-0.000183105" y="-2.28882e-05" width="144" height="40" rx="6" fill="url(#paint0_linear_18_2019)"/>
<g filter="url(#filter0_d_18_2019)">
<path d="M34.7653 15.5461C34.6014 15.6721 31.7084 17.2879 31.7084 20.8807C31.7084 25.0363 35.3896 26.5064 35.4998 26.5428C35.4829 26.6324 34.915 28.5562 33.5589 30.5164C32.3497 32.2414 31.0868 33.9636 29.1657 33.9636C27.2446 33.9636 26.7502 32.8575 24.5324 32.8575C22.3711 32.8575 21.6026 34 19.8453 34C18.0881 34 16.8619 32.4038 15.4522 30.4436C13.8192 28.1418 12.4998 24.5658 12.4998 21.1719C12.4998 15.7281 16.0709 12.8411 19.5854 12.8411C21.4529 12.8411 23.0096 14.0564 24.182 14.0564C25.298 14.0564 27.0383 12.7683 29.1629 12.7683C29.9681 12.7683 32.8611 12.8411 34.7653 15.5461V15.5461ZM28.1543 10.4636C29.0329 9.43032 29.6545 7.99658 29.6545 6.56283C29.6545 6.36401 29.6375 6.16239 29.6008 5.99998C28.1712 6.05318 26.4705 6.94367 25.4449 8.12259C24.6397 9.02988 23.8882 10.4636 23.8882 11.917C23.8882 12.1354 23.9249 12.3538 23.9419 12.4238C24.0323 12.4406 24.1792 12.4602 24.3261 12.4602C25.6088 12.4602 27.222 11.6089 28.1543 10.4636Z" fill="white"/>
</g>
<g filter="url(#filter1_d_18_2019)">
<path d="M47.5545 18H46.2733L49.1522 9.99998H50.5467L53.4256 18H52.1443L49.8826 11.4531H49.8201L47.5545 18ZM47.7693 14.8672H51.9256V15.8828H47.7693V14.8672ZM58.868 12L56.6922 18H55.4422L53.2625 12H54.5164L56.0359 16.6172H56.0984L57.6141 12H58.868ZM61.5399 18.1328C61.1596 18.1328 60.8159 18.0625 60.5086 17.9218C60.2013 17.7786 59.9578 17.5716 59.7781 17.3008C59.601 17.0299 59.5125 16.6979 59.5125 16.3047C59.5125 15.9661 59.5776 15.6875 59.7078 15.4687C59.838 15.25 60.0138 15.0768 60.2352 14.9492C60.4565 14.8216 60.7039 14.7252 60.9774 14.6601C61.2508 14.595 61.5294 14.5455 61.8133 14.5117C62.1727 14.47 62.4643 14.4362 62.6883 14.4101C62.9122 14.3815 63.075 14.3359 63.1766 14.2734C63.2781 14.2109 63.3289 14.1093 63.3289 13.9687V13.9414C63.3289 13.6002 63.2326 13.3359 63.0399 13.1484C62.8497 12.9609 62.5659 12.8672 62.1883 12.8672C61.7951 12.8672 61.4852 12.9544 61.2586 13.1289C61.0346 13.3008 60.8797 13.4922 60.7938 13.7031L59.6961 13.4531C59.8263 13.0885 60.0164 12.7942 60.2664 12.5703C60.519 12.3437 60.8094 12.1797 61.1375 12.0781C61.4656 11.9739 61.8107 11.9219 62.1727 11.9219C62.4122 11.9219 62.6662 11.9505 62.9344 12.0078C63.2052 12.0625 63.4578 12.164 63.6922 12.3125C63.9292 12.4609 64.1232 12.6732 64.2742 12.9492C64.4253 13.2226 64.5008 13.5781 64.5008 14.0156V18H63.3602V17.1797H63.3133C63.2378 17.3307 63.1245 17.4791 62.9734 17.625C62.8224 17.7708 62.6284 17.8919 62.3914 17.9883C62.1544 18.0846 61.8706 18.1328 61.5399 18.1328ZM61.7938 17.1953C62.1167 17.1953 62.3927 17.1315 62.6219 17.0039C62.8537 16.8763 63.0294 16.7096 63.1492 16.5039C63.2716 16.2955 63.3328 16.0729 63.3328 15.8359V15.0625C63.2912 15.1041 63.2104 15.1432 63.0906 15.1797C62.9734 15.2135 62.8393 15.2435 62.6883 15.2695C62.5372 15.2929 62.3901 15.3151 62.2469 15.3359C62.1037 15.3541 61.9839 15.3698 61.8875 15.3828C61.6609 15.4114 61.4539 15.4596 61.2664 15.5273C61.0815 15.595 60.9331 15.6927 60.8211 15.8203C60.7117 15.9453 60.657 16.112 60.657 16.3203C60.657 16.6093 60.7638 16.8281 60.9774 16.9765C61.1909 17.1224 61.463 17.1953 61.7938 17.1953ZM66.0565 18V12H67.2244V18H66.0565ZM66.6463 11.0742C66.4432 11.0742 66.2687 11.0065 66.1229 10.8711C65.9796 10.733 65.908 10.569 65.908 10.3789C65.908 10.1862 65.9796 10.0221 66.1229 9.88669C66.2687 9.74867 66.4432 9.67966 66.6463 9.67966C66.8494 9.67966 67.0226 9.74867 67.1658 9.88669C67.3117 10.0221 67.3846 10.1862 67.3846 10.3789C67.3846 10.569 67.3117 10.733 67.1658 10.8711C67.0226 11.0065 66.8494 11.0742 66.6463 11.0742ZM69.9637 9.99998V18H68.7957V9.99998H69.9637ZM73.2811 18.1328C72.9009 18.1328 72.5571 18.0625 72.2498 17.9218C71.9425 17.7786 71.699 17.5716 71.5193 17.3008C71.3423 17.0299 71.2537 16.6979 71.2537 16.3047C71.2537 15.9661 71.3188 15.6875 71.449 15.4687C71.5792 15.25 71.755 15.0768 71.9764 14.9492C72.1977 14.8216 72.4451 14.7252 72.7186 14.6601C72.992 14.595 73.2706 14.5455 73.5545 14.5117C73.9139 14.47 74.2055 14.4362 74.4295 14.4101C74.6535 14.3815 74.8162 14.3359 74.9178 14.2734C75.0193 14.2109 75.0701 14.1093 75.0701 13.9687V13.9414C75.0701 13.6002 74.9738 13.3359 74.7811 13.1484C74.591 12.9609 74.3071 12.8672 73.9295 12.8672C73.5363 12.8672 73.2264 12.9544 72.9998 13.1289C72.7759 13.3008 72.6209 13.4922 72.535 13.7031L71.4373 13.4531C71.5675 13.0885 71.7576 12.7942 72.0076 12.5703C72.2602 12.3437 72.5506 12.1797 72.8787 12.0781C73.2068 11.9739 73.5519 11.9219 73.9139 11.9219C74.1535 11.9219 74.4074 11.9505 74.6756 12.0078C74.9464 12.0625 75.199 12.164 75.4334 12.3125C75.6704 12.4609 75.8644 12.6732 76.0154 12.9492C76.1665 13.2226 76.242 13.5781 76.242 14.0156V18H75.1014V17.1797H75.0545C74.979 17.3307 74.8657 17.4791 74.7147 17.625C74.5636 17.7708 74.3696 17.8919 74.1326 17.9883C73.8956 18.0846 73.6118 18.1328 73.2811 18.1328ZM73.535 17.1953C73.8579 17.1953 74.1339 17.1315 74.3631 17.0039C74.5949 16.8763 74.7706 16.7096 74.8904 16.5039C75.0128 16.2955 75.074 16.0729 75.074 15.8359V15.0625C75.0324 15.1041 74.9516 15.1432 74.8318 15.1797C74.7147 15.2135 74.5805 15.2435 74.4295 15.2695C74.2785 15.2929 74.1313 15.3151 73.9881 15.3359C73.8449 15.3541 73.7251 15.3698 73.6287 15.3828C73.4022 15.4114 73.1951 15.4596 73.0076 15.5273C72.8227 15.595 72.6743 15.6927 72.5623 15.8203C72.4529 15.9453 72.3982 16.112 72.3982 16.3203C72.3982 16.6093 72.505 16.8281 72.7186 16.9765C72.9321 17.1224 73.2042 17.1953 73.535 17.1953ZM77.8914 18V9.99998H79.0594V12.9726H79.1297C79.1974 12.8476 79.2951 12.7031 79.4227 12.539C79.5503 12.375 79.7273 12.2317 79.9539 12.1094C80.1805 11.9844 80.4799 11.9219 80.8523 11.9219C81.3367 11.9219 81.769 12.0442 82.1492 12.289C82.5294 12.5338 82.8276 12.8867 83.0438 13.3476C83.2625 13.8086 83.3719 14.3633 83.3719 15.0117C83.3719 15.6601 83.2638 16.2161 83.0477 16.6797C82.8315 17.1406 82.5346 17.4961 82.157 17.7461C81.7794 17.9935 81.3484 18.1172 80.8641 18.1172C80.4995 18.1172 80.2013 18.056 79.9695 17.9336C79.7404 17.8112 79.5607 17.6679 79.4305 17.5039C79.3003 17.3398 79.2 17.194 79.1297 17.0664H79.032V18H77.8914ZM79.0359 15C79.0359 15.4218 79.0971 15.7916 79.2195 16.1093C79.3419 16.4271 79.519 16.6758 79.7508 16.8554C79.9826 17.0325 80.2664 17.1211 80.6023 17.1211C80.9513 17.1211 81.243 17.0286 81.4773 16.8437C81.7117 16.6562 81.8888 16.4023 82.0086 16.082C82.131 15.7617 82.1922 15.401 82.1922 15C82.1922 14.6041 82.1323 14.2487 82.0125 13.9336C81.8953 13.6185 81.7182 13.3698 81.4813 13.1875C81.2469 13.0052 80.9539 12.914 80.6023 12.914C80.2638 12.914 79.9773 13.0013 79.743 13.1758C79.5112 13.3502 79.3354 13.5937 79.2156 13.9062C79.0958 14.2187 79.0359 14.5833 79.0359 15ZM85.8514 9.99998V18H84.6834V9.99998H85.8514ZM90.0086 18.1211C89.4174 18.1211 88.9083 17.9948 88.4812 17.7422C88.0568 17.487 87.7286 17.1289 87.4969 16.6679C87.2677 16.2044 87.1531 15.6614 87.1531 15.039C87.1531 14.4245 87.2677 13.8828 87.4969 13.414C87.7286 12.9453 88.0516 12.5794 88.4656 12.3164C88.8823 12.0534 89.3693 11.9219 89.9266 11.9219C90.2651 11.9219 90.5932 11.9778 90.9109 12.0898C91.2286 12.2018 91.5138 12.3776 91.7664 12.6172C92.019 12.8567 92.2182 13.1679 92.3641 13.5508C92.5099 13.931 92.5828 14.3932 92.5828 14.9375V15.3515H87.8133V14.4765H91.4383C91.4383 14.1692 91.3758 13.8971 91.2508 13.6601C91.1258 13.4205 90.95 13.2317 90.7234 13.0937C90.4995 12.9557 90.2365 12.8867 89.9344 12.8867C89.6062 12.8867 89.3198 12.9674 89.075 13.1289C88.8328 13.2877 88.6453 13.4961 88.5125 13.7539C88.3823 14.0091 88.3172 14.2864 88.3172 14.5859V15.2695C88.3172 15.6705 88.3875 16.0117 88.5281 16.2929C88.6714 16.5742 88.8706 16.789 89.1258 16.9375C89.381 17.0833 89.6792 17.1562 90.0203 17.1562C90.2417 17.1562 90.4435 17.125 90.6258 17.0625C90.8081 16.9974 90.9656 16.901 91.0984 16.7734C91.2312 16.6458 91.3328 16.4883 91.4031 16.3008L92.5086 16.5C92.4201 16.8255 92.2612 17.1107 92.032 17.3554C91.8055 17.5976 91.5203 17.7864 91.1766 17.9218C90.8354 18.0547 90.4461 18.1211 90.0086 18.1211ZM99.3172 18.1211C98.7547 18.1211 98.2638 17.9922 97.8445 17.7343C97.4253 17.4765 97.0997 17.1159 96.868 16.6523C96.6362 16.1888 96.5203 15.6471 96.5203 15.0273C96.5203 14.4049 96.6362 13.8607 96.868 13.3945C97.0997 12.9284 97.4253 12.5664 97.8445 12.3086C98.2638 12.0508 98.7547 11.9219 99.3172 11.9219C99.8797 11.9219 100.371 12.0508 100.79 12.3086C101.209 12.5664 101.535 12.9284 101.766 13.3945C101.998 13.8607 102.114 14.4049 102.114 15.0273C102.114 15.6471 101.998 16.1888 101.766 16.6523C101.535 17.1159 101.209 17.4765 100.79 17.7343C100.371 17.9922 99.8797 18.1211 99.3172 18.1211ZM99.3211 17.1406C99.6857 17.1406 99.9878 17.0442 100.227 16.8515C100.467 16.6588 100.644 16.4023 100.759 16.082C100.876 15.7617 100.934 15.4088 100.934 15.0234C100.934 14.6406 100.876 14.289 100.759 13.9687C100.644 13.6458 100.467 13.3867 100.227 13.1914C99.9878 12.9961 99.6857 12.8984 99.3211 12.8984C98.9539 12.8984 98.6492 12.9961 98.407 13.1914C98.1674 13.3867 97.9891 13.6458 97.8719 13.9687C97.7573 14.289 97.7 14.6406 97.7 15.0234C97.7 15.4088 97.7573 15.7617 97.8719 16.082C97.9891 16.4023 98.1674 16.6588 98.407 16.8515C98.6492 17.0442 98.9539 17.1406 99.3211 17.1406ZM104.586 14.4375V18H103.418V12H104.539V12.9765H104.613C104.751 12.6588 104.967 12.4036 105.262 12.2109C105.558 12.0182 105.932 11.9219 106.383 11.9219C106.791 11.9219 107.15 12.0078 107.457 12.1797C107.764 12.3489 108.002 12.6015 108.172 12.9375C108.341 13.2734 108.426 13.6888 108.426 14.1836V18H107.258V14.3242C107.258 13.8893 107.144 13.5495 106.918 13.3047C106.691 13.0573 106.38 12.9336 105.984 12.9336C105.713 12.9336 105.472 12.9922 105.262 13.1094C105.053 13.2265 104.888 13.3984 104.765 13.625C104.646 13.8489 104.586 14.1198 104.586 14.4375Z" fill="#E8E8E8"/>
<path d="M46.6603 22.2727H49.2725L51.4885 27.6761H51.5907L53.8066 22.2727H56.4188V31H54.3649V25.6392H54.2924L52.1958 30.9446H50.8833L48.7867 25.6093H48.7143V31H46.6603V22.2727ZM59.5797 31.1108C59.1621 31.1108 58.7914 31.0412 58.4675 30.902C58.1465 30.7599 57.8922 30.5468 57.7047 30.2628C57.5201 29.9758 57.4277 29.6164 57.4277 29.1846C57.4277 28.821 57.4916 28.5142 57.6195 28.2642C57.7473 28.0142 57.9235 27.811 58.1479 27.6548C58.3723 27.4985 58.6309 27.3806 58.9235 27.3011C59.2161 27.2187 59.5286 27.1633 59.861 27.1349C60.2331 27.1008 60.5328 27.0653 60.7601 27.0284C60.9874 26.9886 61.1522 26.9332 61.2544 26.8622C61.3595 26.7883 61.4121 26.6846 61.4121 26.5511V26.5298C61.4121 26.311 61.3368 26.142 61.1862 26.0227C61.0357 25.9034 60.8326 25.8437 60.5769 25.8437C60.3013 25.8437 60.0797 25.9034 59.9121 26.0227C59.7445 26.142 59.638 26.3068 59.5925 26.517L57.6706 26.4488C57.7274 26.0511 57.8737 25.696 58.1095 25.3835C58.3482 25.0681 58.6749 24.821 59.0897 24.642C59.5073 24.4602 60.0087 24.3693 60.5939 24.3693C61.0115 24.3693 61.3965 24.419 61.7487 24.5184C62.101 24.615 62.4078 24.7571 62.6692 24.9446C62.9306 25.1292 63.1323 25.3565 63.2743 25.6264C63.4192 25.8963 63.4916 26.2045 63.4916 26.5511V31H61.5314V30.088H61.4803C61.3638 30.3096 61.2147 30.4971 61.0328 30.6505C60.8539 30.8039 60.6422 30.919 60.3979 30.9957C60.1564 31.0724 59.8837 31.1108 59.5797 31.1108ZM60.2232 29.7471C60.4476 29.7471 60.6493 29.7017 60.8283 29.6108C61.0101 29.5199 61.155 29.3949 61.263 29.2358C61.3709 29.0738 61.4249 28.8863 61.4249 28.6733V28.0511C61.3652 28.0824 61.2928 28.1108 61.2076 28.1363C61.1252 28.1619 61.0343 28.186 60.9348 28.2088C60.8354 28.2315 60.7331 28.2514 60.628 28.2684C60.5229 28.2855 60.422 28.3011 60.3255 28.3153C60.1294 28.3466 59.9618 28.3949 59.8226 28.4602C59.6862 28.5255 59.5811 28.6108 59.5073 28.7159C59.4362 28.8181 59.4007 28.9403 59.4007 29.0824C59.4007 29.2983 59.4774 29.463 59.6308 29.5767C59.7871 29.6903 59.9845 29.7471 60.2232 29.7471ZM67.8212 31.1235C67.1308 31.1235 66.5385 30.9815 66.0442 30.6974C65.5527 30.4133 65.1749 30.0184 64.9107 29.5128C64.6465 29.0042 64.5144 28.4162 64.5144 27.7485C64.5144 27.0781 64.6465 26.49 64.9107 25.9843C65.1777 25.4758 65.557 25.0795 66.0485 24.7954C66.5428 24.5113 67.1323 24.3693 67.8169 24.3693C68.422 24.3693 68.949 24.4787 69.3979 24.6974C69.8496 24.9162 70.2019 25.2258 70.4547 25.6264C70.7104 26.0241 70.8453 26.4914 70.8595 27.0284H68.9121C68.8723 26.6931 68.7587 26.4304 68.5712 26.24C68.3865 26.0497 68.1451 25.9545 67.8468 25.9545C67.6053 25.9545 67.3936 26.0227 67.2118 26.1591C67.03 26.2926 66.8879 26.4914 66.7857 26.7556C66.6862 27.017 66.6365 27.3409 66.6365 27.7272C66.6365 28.1136 66.6862 28.4403 66.7857 28.7074C66.8879 28.9716 67.03 29.1718 67.2118 29.3082C67.3936 29.4417 67.6053 29.5085 67.8468 29.5085C68.0399 29.5085 68.2104 29.4673 68.3581 29.3849C68.5087 29.3025 68.6323 29.1818 68.7289 29.0227C68.8254 28.8608 68.8865 28.6647 68.9121 28.4346H70.8595C70.8397 28.9744 70.7047 29.446 70.4547 29.8494C70.2076 30.2528 69.8595 30.5667 69.4107 30.7912C68.9647 31.0128 68.4348 31.1235 67.8212 31.1235ZM76.3919 31H74.1248L77.0694 22.2727H79.8776L82.8222 31H80.5552L78.5055 24.4716H78.4373L76.3919 31ZM76.0893 27.5653H80.8279V29.1676H76.0893V27.5653ZM83.7619 33.4545V24.4545H85.8244V25.5753H85.8883C85.9735 25.3764 86.0943 25.1846 86.2505 25C86.4096 24.8153 86.6113 24.6647 86.8556 24.5483C87.1028 24.4289 87.3982 24.3693 87.742 24.3693C88.1965 24.3693 88.6213 24.4886 89.0161 24.7272C89.4139 24.9659 89.7349 25.3338 89.9792 25.8309C90.2235 26.3281 90.3457 26.9616 90.3457 27.7315C90.3457 28.473 90.2278 29.0937 89.992 29.5937C89.759 30.0937 89.4437 30.4687 89.046 30.7187C88.6511 30.9687 88.2122 31.0937 87.7292 31.0937C87.3997 31.0937 87.1142 31.0397 86.8727 30.9318C86.6312 30.8238 86.4281 30.6818 86.2633 30.5056C86.1014 30.3295 85.9764 30.1406 85.8883 29.9389H85.8457V33.4545H83.7619ZM85.8031 27.7272C85.8031 28.0795 85.8499 28.3863 85.9437 28.6477C86.0403 28.9091 86.1781 29.1122 86.357 29.2571C86.5389 29.3991 86.7562 29.4701 87.009 29.4701C87.2647 29.4701 87.482 29.3991 87.661 29.2571C87.84 29.1122 87.9749 28.9091 88.0659 28.6477C88.1596 28.3863 88.2065 28.0795 88.2065 27.7272C88.2065 27.375 88.1596 27.0696 88.0659 26.811C87.9749 26.5525 87.84 26.3522 87.661 26.2102C87.4849 26.0681 87.2676 25.9971 87.009 25.9971C86.7534 25.9971 86.536 26.0667 86.357 26.2059C86.1781 26.3451 86.0403 26.544 85.9437 26.8025C85.8499 27.061 85.8031 27.3693 85.8031 27.7272ZM91.4377 33.4545V24.4545H93.5002V25.5753H93.5641C93.6493 25.3764 93.77 25.1846 93.9263 25C94.0854 24.8153 94.2871 24.6647 94.5314 24.5483C94.7786 24.4289 95.074 24.3693 95.4178 24.3693C95.8723 24.3693 96.297 24.4886 96.6919 24.7272C97.0896 24.9659 97.4107 25.3338 97.655 25.8309C97.8993 26.3281 98.0215 26.9616 98.0215 27.7315C98.0215 28.473 97.9036 29.0937 97.6678 29.5937C97.4348 30.0937 97.1195 30.4687 96.7217 30.7187C96.3269 30.9687 95.8879 31.0937 95.405 31.0937C95.0754 31.0937 94.7899 31.0397 94.5485 30.9318C94.307 30.8238 94.1039 30.6818 93.9391 30.5056C93.7771 30.3295 93.6521 30.1406 93.5641 29.9389H93.5215V33.4545H91.4377ZM93.4789 27.7272C93.4789 28.0795 93.5257 28.3863 93.6195 28.6477C93.7161 28.9091 93.8539 29.1122 94.0328 29.2571C94.2146 29.3991 94.432 29.4701 94.6848 29.4701C94.9405 29.4701 95.1578 29.3991 95.3368 29.2571C95.5158 29.1122 95.6507 28.9091 95.7416 28.6477C95.8354 28.3863 95.8823 28.0795 95.8823 27.7272C95.8823 27.375 95.8354 27.0696 95.7416 26.811C95.6507 26.5525 95.5158 26.3522 95.3368 26.2102C95.1607 26.0681 94.9433 25.9971 94.6848 25.9971C94.4291 25.9971 94.2118 26.0667 94.0328 26.2059C93.8539 26.3451 93.7161 26.544 93.6195 26.8025C93.5257 27.061 93.4789 27.3693 93.4789 27.7272ZM106.409 24.8892C106.38 24.5767 106.254 24.3338 106.03 24.1605C105.808 23.9843 105.491 23.8963 105.079 23.8963C104.807 23.8963 104.579 23.9318 104.398 24.0028C104.216 24.0738 104.079 24.1718 103.988 24.2968C103.898 24.419 103.851 24.5596 103.848 24.7187C103.842 24.8494 103.868 24.9645 103.925 25.0639C103.984 25.1633 104.069 25.2514 104.18 25.3281C104.294 25.402 104.43 25.4673 104.589 25.5241C104.748 25.5809 104.927 25.6306 105.126 25.6733L105.876 25.8437C106.308 25.9375 106.689 26.0625 107.018 26.2187C107.351 26.375 107.629 26.561 107.853 26.777C108.081 26.9929 108.253 27.2414 108.369 27.5227C108.486 27.8039 108.545 28.1193 108.548 28.4687C108.545 29.0199 108.406 29.4929 108.13 29.8878C107.855 30.2826 107.459 30.5852 106.942 30.7954C106.427 31.0056 105.807 31.1108 105.079 31.1108C104.349 31.1108 103.713 31.0014 103.17 30.7826C102.628 30.5639 102.206 30.2315 101.905 29.7855C101.603 29.3395 101.449 28.7755 101.44 28.0937H103.46C103.477 28.375 103.552 28.6093 103.686 28.7968C103.819 28.9843 104.003 29.1264 104.236 29.223C104.471 29.3196 104.744 29.3679 105.054 29.3679C105.338 29.3679 105.579 29.3295 105.778 29.2528C105.98 29.1761 106.135 29.0696 106.243 28.9332C106.351 28.7968 106.406 28.6406 106.409 28.4645C106.406 28.2997 106.355 28.1591 106.255 28.0426C106.156 27.9233 106.003 27.821 105.795 27.7358C105.591 27.6477 105.329 27.5667 105.011 27.4929L104.099 27.2798C103.344 27.1065 102.748 26.8267 102.314 26.4403C101.879 26.0511 101.663 25.5255 101.666 24.8636C101.663 24.3238 101.808 23.8508 102.101 23.4446C102.393 23.0383 102.798 22.7216 103.315 22.4943C103.832 22.267 104.422 22.1534 105.084 22.1534C105.76 22.1534 106.346 22.2684 106.844 22.4985C107.344 22.7258 107.731 23.0454 108.007 23.4574C108.282 23.8693 108.423 24.3466 108.429 24.8892H106.409ZM113.308 24.4545V25.9886H109.179V24.4545H113.308ZM110.044 22.8863H112.128V28.9417C112.128 29.0696 112.148 29.1733 112.187 29.2528C112.23 29.3295 112.291 29.3849 112.371 29.419C112.45 29.4503 112.545 29.4659 112.656 29.4659C112.736 29.4659 112.819 29.4588 112.907 29.4446C112.998 29.4275 113.067 29.4133 113.112 29.402L113.427 30.9062C113.328 30.9346 113.187 30.9701 113.005 31.0128C112.827 31.0554 112.612 31.0824 112.362 31.0937C111.873 31.1164 111.454 31.0596 111.105 30.9233C110.758 30.7841 110.493 30.5681 110.308 30.2755C110.126 29.9829 110.038 29.615 110.044 29.1718V22.8863ZM117.356 31.1235C116.669 31.1235 116.078 30.9829 115.584 30.7017C115.092 30.4176 114.713 30.0227 114.446 29.517C114.182 29.0085 114.05 28.419 114.05 27.7485C114.05 27.0753 114.182 26.4858 114.446 25.9801C114.713 25.4716 115.092 25.0767 115.584 24.7954C116.078 24.5113 116.669 24.3693 117.356 24.3693C118.044 24.3693 118.633 24.5113 119.125 24.7954C119.619 25.0767 119.998 25.4716 120.263 25.9801C120.53 26.4858 120.663 27.0753 120.663 27.7485C120.663 28.419 120.53 29.0085 120.263 29.517C119.998 30.0227 119.619 30.4176 119.125 30.7017C118.633 30.9829 118.044 31.1235 117.356 31.1235ZM117.369 29.5511C117.619 29.5511 117.831 29.4744 118.004 29.321C118.177 29.1676 118.309 28.9545 118.4 28.6818C118.494 28.4091 118.541 28.0937 118.541 27.7358C118.541 27.3721 118.494 27.0539 118.4 26.7812C118.309 26.5085 118.177 26.2954 118.004 26.142C117.831 25.9886 117.619 25.9119 117.369 25.9119C117.111 25.9119 116.892 25.9886 116.713 26.142C116.537 26.2954 116.402 26.5085 116.308 26.7812C116.217 27.0539 116.172 27.3721 116.172 27.7358C116.172 28.0937 116.217 28.4091 116.308 28.6818C116.402 28.9545 116.537 29.1676 116.713 29.321C116.892 29.4744 117.111 29.5511 117.369 29.5511ZM121.731 31V24.4545H123.755V25.6477H123.823C123.942 25.2159 124.137 24.8949 124.407 24.6846C124.677 24.4716 124.991 24.365 125.349 24.365C125.445 24.365 125.545 24.3721 125.647 24.3863C125.749 24.3977 125.844 24.4162 125.932 24.4417V26.2528C125.833 26.2187 125.702 26.1917 125.54 26.1718C125.381 26.152 125.239 26.142 125.114 26.142C124.867 26.142 124.644 26.1974 124.445 26.3082C124.249 26.4162 124.094 26.5681 123.981 26.7642C123.87 26.9574 123.814 27.1846 123.814 27.446V31H121.731ZM129.501 31.1235C128.817 31.1235 128.226 30.9886 127.728 30.7187C127.234 30.446 126.853 30.0582 126.586 29.5554C126.322 29.0497 126.19 28.4488 126.19 27.7528C126.19 27.0767 126.324 26.4858 126.591 25.9801C126.858 25.4716 127.234 25.0767 127.72 24.7954C128.206 24.5113 128.778 24.3693 129.437 24.3693C129.903 24.3693 130.329 24.4417 130.716 24.5866C131.102 24.7315 131.436 24.946 131.717 25.2301C131.998 25.5142 132.217 25.865 132.373 26.2826C132.53 26.6974 132.608 27.1733 132.608 27.7102V28.2301H126.919V27.0199H130.669C130.666 26.7983 130.613 26.6008 130.511 26.4275C130.409 26.2542 130.268 26.1193 130.089 26.0227C129.913 25.9233 129.71 25.8735 129.48 25.8735C129.247 25.8735 129.038 25.9261 128.853 26.0312C128.669 26.1335 128.523 26.2741 128.415 26.4531C128.307 26.6292 128.25 26.8295 128.244 27.0539V28.2855C128.244 28.5525 128.297 28.7869 128.402 28.9886C128.507 29.1875 128.656 29.3423 128.849 29.4531C129.042 29.5639 129.273 29.6193 129.54 29.6193C129.724 29.6193 129.892 29.5937 130.042 29.5426C130.193 29.4914 130.322 29.4162 130.43 29.3167C130.538 29.2173 130.619 29.0951 130.673 28.9503L132.586 29.0056C132.507 29.4346 132.332 29.8082 132.062 30.1264C131.795 30.4417 131.444 30.6875 131.01 30.8636C130.575 31.0369 130.072 31.1235 129.501 31.1235Z" fill="white"/>
</g>
<rect x="0.749817" y="0.749977" width="142.5" height="38.5" rx="5.25" stroke="white" stroke-opacity="0.15" stroke-width="1.5"/>
<defs>
<filter id="filter0_d_18_2019" x="5.99982" y="1.99998" width="36" height="36" filterUnits="userSpaceOnUse" color-interpolation-filters="sRGB">
<feFlood flood-opacity="0" result="BackgroundImageFix"/>
<feColorMatrix in="SourceAlpha" type="matrix" values="0 0 0 0 0 0 0 0 0 0 0 0 0 0 0 0 0 0 127 0" result="hardAlpha"/>
<feOffset/>
<feGaussianBlur stdDeviation="2"/>
<feComposite in2="hardAlpha" operator="out"/>
<feColorMatrix type="matrix" values="0 0 0 0 0 0 0 0 0 0 0 0 0 0 0 0 0 0 0.25 0"/>
<feBlend mode="normal" in2="BackgroundImageFix" result="effect1_dropShadow_18_2019"/>
<feBlend mode="normal" in="SourceGraphic" in2="effect1_dropShadow_18_2019" result="shape"/>
</filter>
<filter id="filter1_d_18_2019" x="41.9998" y="2.99998" width="95.9999" height="34.4545" filterUnits="userSpaceOnUse" color-interpolation-filters="sRGB">
<feFlood flood-opacity="0" result="BackgroundImageFix"/>
<feColorMatrix in="SourceAlpha" type="matrix" values="0 0 0 0 0 0 0 0 0 0 0 0 0 0 0 0 0 0 127 0" result="hardAlpha"/>
<feOffset/>
<feGaussianBlur stdDeviation="2"/>
<feComposite in2="hardAlpha" operator="out"/>
<feColorMatrix type="matrix" values="0 0 0 0 0 0 0 0 0 0 0 0 0 0 0 0 0 0 0.25 0"/>
<feBlend mode="normal" in2="BackgroundImageFix" result="effect1_dropShadow_18_2019"/>
<feBlend mode="normal" in="SourceGraphic" in2="effect1_dropShadow_18_2019" result="shape"/>
</filter>
<linearGradient id="paint0_linear_18_2019" x1="71.9998" y1="-2.28882e-05" x2="71.9998" y2="40" gradientUnits="userSpaceOnUse">
<stop stop-color="#1A1A1A"/>
<stop offset="1" stop-color="#0A0A0A"/>
</linearGradient>
</defs>
</svg>
