<svg width="219" height="40" viewBox="0 0 219 40" fill="none" xmlns="http://www.w3.org/2000/svg">
<g clip-path="url(#clip0_7_203)">
<rect x="0.00195312" y="0.00279236" width="219" height="40" rx="8" fill="url(#paint0_linear_7_203)"/>
<g filter="url(#filter0_d_7_203)">
<path d="M33.3867 11.7172V32.0029C33.3867 32.7919 32.7471 33.4314 31.9581 33.4314H12.046C11.257 33.4314 10.6174 32.7919 10.6174 32.0029V8.00287C10.6174 7.21389 11.257 6.5743 12.046 6.5743H27.8482H31.9581C32.7471 6.5743 33.3867 7.21389 33.3867 8.00287V11.7172Z" fill="#F1F1F1"/>
<path d="M28.2251 15.1457H13.625C13.2384 15.1457 12.925 15.4591 12.925 15.8457C12.925 16.2323 13.2384 16.5457 13.625 16.5457H28.2251C28.6116 16.5457 28.9251 16.2323 28.9251 15.8457C28.9251 15.4591 28.6117 15.1457 28.2251 15.1457Z" fill="#231F20"/>
<path d="M30.225 18.5743H13.7789C13.3923 18.5743 13.0789 18.8877 13.0789 19.2743C13.0789 19.6609 13.3923 19.9743 13.7789 19.9743H30.225C30.6116 19.9743 30.925 19.6609 30.925 19.2743C30.925 18.8877 30.6116 18.5743 30.225 18.5743Z" fill="#231F20"/>
<path d="M30.225 22.0029H13.7789C13.3923 22.0029 13.0789 22.3163 13.0789 22.7029C13.0789 23.0895 13.3923 23.4029 13.7789 23.4029H30.225C30.6116 23.4029 30.925 23.0895 30.925 22.7029C30.925 22.3163 30.6116 22.0029 30.225 22.0029Z" fill="#231F20"/>
<path d="M30.225 25.4314H13.7789C13.3923 25.4314 13.0789 25.7448 13.0789 26.1314C13.0789 26.518 13.3923 26.8314 13.7789 26.8314H30.225C30.6116 26.8314 30.925 26.518 30.925 26.1314C30.925 25.7448 30.6116 25.4314 30.225 25.4314Z" fill="#231F20"/>
<path d="M26.5327 28.86H13.7789C13.3923 28.86 13.0789 29.1734 13.0789 29.56C13.0789 29.9466 13.3923 30.26 13.7789 30.26H26.5327C26.9193 30.26 27.2327 29.9466 27.2327 29.56C27.2327 29.1734 26.9193 28.86 26.5327 28.86Z" fill="#231F20"/>
<path d="M30.2251 28.86H29.4712C29.0846 28.86 28.7712 29.1734 28.7712 29.56C28.7712 29.9466 29.0846 30.26 29.4712 30.26H30.2251C30.6117 30.26 30.9251 29.9466 30.9251 29.56C30.9251 29.1734 30.6117 28.86 30.2251 28.86Z" fill="#231F20"/>
<path d="M16.0712 8.5743H13.7789C13.3923 8.5743 13.0789 8.8877 13.0789 9.2743C13.0789 9.66089 13.3923 9.9743 13.7789 9.9743H16.0712C16.4578 9.9743 16.7712 9.66089 16.7712 9.2743C16.7712 8.8877 16.4578 8.5743 16.0712 8.5743Z" fill="#231F20"/>
<path d="M19.7635 10.5743H13.7789C13.3923 10.5743 13.0789 10.8877 13.0789 11.2743C13.0789 11.6609 13.3923 11.9743 13.7789 11.9743H19.7635C20.1501 11.9743 20.4635 11.6609 20.4635 11.2743C20.4635 10.8877 20.1501 10.5743 19.7635 10.5743Z" fill="#231F20"/>
</g>
<g filter="url(#filter1_d_7_203)">
<path d="M43.3603 26.5028V14.1392H47.7672C48.7251 14.1392 49.5199 14.3042 50.1518 14.6342C50.7877 14.9642 51.2626 15.421 51.5765 16.0046C51.8904 16.5841 52.0474 17.2542 52.0474 18.0149C52.0474 18.7715 51.8884 19.4376 51.5705 20.0131C51.2566 20.5846 50.7817 21.0293 50.1458 21.3472C49.5139 21.6652 48.719 21.8242 47.7612 21.8242H44.4228V20.2183H47.5922C48.1958 20.2183 48.6868 20.1318 49.0652 19.9588C49.4475 19.7857 49.7272 19.5342 49.9043 19.2041C50.0814 18.8741 50.1699 18.4777 50.1699 18.0149C50.1699 17.548 50.0794 17.1435 49.8983 16.8014C49.7212 16.4593 49.4415 16.1977 49.0591 16.0166C48.6808 15.8315 48.1838 15.7389 47.568 15.7389H45.2257V26.5028H43.3603ZM49.4636 20.9247L52.5183 26.5028H50.3933L47.399 20.9247H49.4636ZM58.0526 26.6899C57.1391 26.6899 56.3522 26.4947 55.6922 26.1043C55.0362 25.7099 54.5291 25.1566 54.1709 24.4442C53.8167 23.7278 53.6396 22.8887 53.6396 21.9268C53.6396 20.977 53.8167 20.1399 54.1709 19.4154C54.5291 18.691 55.0281 18.1255 55.6681 17.7191C56.312 17.3126 57.0646 17.1093 57.9259 17.1093C58.4491 17.1093 58.9562 17.1959 59.4472 17.3689C59.9382 17.542 60.3789 17.8136 60.7693 18.1839C61.1596 18.5542 61.4675 19.0351 61.6929 19.6267C61.9183 20.2143 62.031 20.9287 62.031 21.7698V22.4097H54.6599V21.0575H60.2622C60.2622 20.5826 60.1656 20.162 59.9724 19.7958C59.7792 19.4255 59.5075 19.1337 59.1574 18.9204C58.8113 18.7071 58.4048 18.6004 57.9379 18.6004C57.4308 18.6004 56.9881 18.7252 56.6098 18.9747C56.2355 19.2202 55.9458 19.5422 55.7405 19.9406C55.5393 20.3351 55.4387 20.7637 55.4387 21.2265V22.283C55.4387 22.9028 55.5473 23.43 55.7646 23.8646C55.986 24.2993 56.2939 24.6313 56.6883 24.8607C57.0827 25.0861 57.5435 25.1988 58.0708 25.1988C58.4128 25.1988 58.7248 25.1505 59.0065 25.0539C59.2882 24.9533 59.5317 24.8044 59.7369 24.6072C59.9422 24.41 60.0992 24.1665 60.2078 23.8767L61.9163 24.1846C61.7794 24.6877 61.5339 25.1284 61.1798 25.5067C60.8296 25.881 60.3889 26.1728 59.8577 26.382C59.3305 26.5873 58.7288 26.6899 58.0526 26.6899ZM66.7322 26.708C66.1446 26.708 65.6134 26.5994 65.1385 26.382C64.6636 26.1607 64.2873 25.8407 64.0096 25.4222C63.7359 25.0036 63.5991 24.4905 63.5991 23.8828C63.5991 23.3596 63.6997 22.9289 63.9009 22.5909C64.1021 22.2528 64.3738 21.9852 64.7159 21.7879C65.058 21.5907 65.4403 21.4418 65.8629 21.3412C66.2855 21.2406 66.7161 21.1641 67.1548 21.1118C67.7102 21.0474 68.161 20.9951 68.5071 20.9548C68.8532 20.9106 69.1048 20.8401 69.2617 20.7436C69.4187 20.647 69.4972 20.49 69.4972 20.2727V20.2304C69.4972 19.7032 69.3482 19.2947 69.0504 19.0049C68.7566 18.7151 68.3179 18.5703 67.7344 18.5703C67.1266 18.5703 66.6477 18.7051 66.2976 18.9747C65.9515 19.2404 65.712 19.5362 65.5792 19.8622L63.8828 19.4758C64.084 18.9124 64.3778 18.4576 64.7642 18.1115C65.1546 17.7613 65.6033 17.5078 66.1104 17.3508C66.6175 17.1898 67.1508 17.1093 67.7102 17.1093C68.0805 17.1093 68.4729 17.1536 68.8874 17.2421C69.306 17.3267 69.6964 17.4836 70.0586 17.713C70.4248 17.9424 70.7247 18.2704 70.9581 18.697C71.1915 19.1196 71.3082 19.669 71.3082 20.3451V26.5028H69.5454V25.235H69.473C69.3563 25.4685 69.1812 25.6979 68.9478 25.9232C68.7144 26.1486 68.4145 26.3358 68.0483 26.4847C67.682 26.6336 67.2434 26.708 66.7322 26.708ZM67.1246 25.2592C67.6237 25.2592 68.0503 25.1606 68.4045 24.9634C68.7627 24.7662 69.0343 24.5086 69.2195 24.1906C69.4086 23.8687 69.5032 23.5246 69.5032 23.1583V21.963C69.4388 22.0274 69.314 22.0878 69.1289 22.1441C68.9478 22.1964 68.7405 22.2427 68.5071 22.283C68.2737 22.3192 68.0463 22.3534 67.8249 22.3856C67.6036 22.4138 67.4184 22.4379 67.2695 22.458C66.9194 22.5023 66.5994 22.5768 66.3097 22.6814C66.0239 22.7861 65.7945 22.937 65.6214 23.1342C65.4524 23.3274 65.3679 23.5849 65.3679 23.9069C65.3679 24.3536 65.5329 24.6917 65.8629 24.9211C66.1929 25.1465 66.6135 25.2592 67.1246 25.2592ZM77.1837 26.6839C76.4351 26.6839 75.767 26.4927 75.1794 26.1104C74.5958 25.724 74.137 25.1747 73.803 24.4623C73.473 23.7459 73.308 22.8867 73.308 21.8845C73.308 20.8824 73.475 20.0252 73.809 19.3128C74.1471 18.6004 74.6099 18.0551 75.1975 17.6768C75.7851 17.2985 76.4512 17.1093 77.1957 17.1093C77.7713 17.1093 78.2341 17.2059 78.5842 17.3991C78.9384 17.5883 79.2121 17.8096 79.4053 18.0632C79.6025 18.3167 79.7554 18.5401 79.8641 18.7333H79.9727V14.1392H81.7778V26.5028H80.015V25.06H79.8641C79.7554 25.2572 79.5984 25.4825 79.3932 25.7361C79.192 25.9896 78.9143 26.211 78.5601 26.4002C78.2059 26.5893 77.7471 26.6839 77.1837 26.6839ZM77.5821 25.1445C78.1013 25.1445 78.54 25.0076 78.8982 24.734C79.2604 24.4563 79.5341 24.0719 79.7192 23.5809C79.9083 23.0899 80.0029 22.5184 80.0029 21.8664C80.0029 21.2225 79.9104 20.659 79.7252 20.1761C79.5401 19.6931 79.2684 19.3168 78.9102 19.0472C78.552 18.7775 78.1093 18.6427 77.5821 18.6427C77.0388 18.6427 76.586 18.7836 76.2238 19.0653C75.8616 19.347 75.5879 19.7314 75.4028 20.2183C75.2217 20.7053 75.1311 21.2547 75.1311 21.8664C75.1311 22.4862 75.2237 23.0436 75.4088 23.5387C75.5939 24.0337 75.8676 24.4261 76.2298 24.7159C76.5961 25.0016 77.0468 25.1445 77.5821 25.1445ZM93.1815 17.2301V18.6789H88.1166V17.2301H93.1815ZM89.4749 15.0085H91.2799V23.7801C91.2799 24.1303 91.3322 24.3939 91.4369 24.571C91.5415 24.744 91.6763 24.8628 91.8413 24.9271C92.0104 24.9875 92.1935 25.0177 92.3907 25.0177C92.5356 25.0177 92.6624 25.0076 92.771 24.9875C92.8797 24.9674 92.9642 24.9513 93.0246 24.9392L93.3506 26.4303C93.2459 26.4706 93.097 26.5108 92.9038 26.5511C92.7107 26.5954 92.4692 26.6195 92.1794 26.6235C91.7045 26.6316 91.2618 26.5471 90.8513 26.37C90.4408 26.1929 90.1087 25.9192 89.8552 25.549C89.6016 25.1787 89.4749 24.7138 89.4749 24.1544V15.0085ZM97.1825 20.9971V26.5028H95.3775V14.1392H97.1584V18.7393H97.2731C97.4904 18.2402 97.8224 17.8438 98.2692 17.55C98.7159 17.2562 99.2995 17.1093 100.02 17.1093C100.656 17.1093 101.211 17.2401 101.686 17.5017C102.165 17.7633 102.535 18.1537 102.797 18.6729C103.062 19.188 103.195 19.832 103.195 20.6047V26.5028H101.39V20.822C101.39 20.1419 101.215 19.6146 100.865 19.2404C100.515 18.862 100.028 18.6729 99.4041 18.6729C98.9775 18.6729 98.5952 18.7634 98.2571 18.9446C97.923 19.1257 97.6594 19.3913 97.4662 19.7414C97.2771 20.0875 97.1825 20.5061 97.1825 20.9971ZM109.6 26.6899C108.687 26.6899 107.9 26.4947 107.24 26.1043C106.584 25.7099 106.077 25.1566 105.719 24.4442C105.365 23.7278 105.187 22.8887 105.187 21.9268C105.187 20.977 105.365 20.1399 105.719 19.4154C106.077 18.691 106.576 18.1255 107.216 17.7191C107.86 17.3126 108.612 17.1093 109.474 17.1093C109.997 17.1093 110.504 17.1959 110.995 17.3689C111.486 17.542 111.927 17.8136 112.317 18.1839C112.707 18.5542 113.015 19.0351 113.241 19.6267C113.466 20.2143 113.579 20.9287 113.579 21.7698V22.4097H106.208V21.0575H111.81C111.81 20.5826 111.713 20.162 111.52 19.7958C111.327 19.4255 111.055 19.1337 110.705 18.9204C110.359 18.7071 109.953 18.6004 109.486 18.6004C108.979 18.6004 108.536 18.7252 108.158 18.9747C107.783 19.2202 107.494 19.5422 107.288 19.9406C107.087 20.3351 106.986 20.7637 106.986 21.2265V22.283C106.986 22.9028 107.095 23.43 107.312 23.8646C107.534 24.2993 107.842 24.6313 108.236 24.8607C108.631 25.0861 109.091 25.1988 109.619 25.1988C109.961 25.1988 110.273 25.1505 110.554 25.0539C110.836 24.9533 111.08 24.8044 111.285 24.6072C111.49 24.41 111.647 24.1665 111.756 23.8767L113.464 24.1846C113.327 24.6877 113.082 25.1284 112.728 25.5067C112.377 25.881 111.937 26.1728 111.406 26.382C110.878 26.5873 110.277 26.6899 109.6 26.6899Z" fill="#E8E8E8"/>
<path d="M131.16 18.1186H128.142C128.102 17.8087 128.019 17.5289 127.894 17.2794C127.77 17.0299 127.605 16.8166 127.399 16.6395C127.194 16.4624 126.951 16.3276 126.669 16.235C126.391 16.1384 126.083 16.0901 125.745 16.0901C125.146 16.0901 124.628 16.237 124.194 16.5308C123.763 16.8246 123.431 17.2492 123.198 17.8046C122.968 18.36 122.854 19.0321 122.854 19.821C122.854 20.642 122.97 21.3302 123.204 21.8856C123.441 22.437 123.773 22.8535 124.2 23.1352C124.63 23.4129 125.139 23.5518 125.727 23.5518C126.057 23.5518 126.357 23.5095 126.627 23.425C126.9 23.3405 127.14 23.2178 127.345 23.0568C127.554 22.8918 127.725 22.6925 127.858 22.4591C127.995 22.2217 128.09 21.954 128.142 21.6562L131.16 21.6743C131.108 22.2217 130.949 22.761 130.683 23.2922C130.422 23.8235 130.062 24.3084 129.603 24.7471C129.144 25.1818 128.585 25.5279 127.925 25.7855C127.269 26.043 126.516 26.1718 125.667 26.1718C124.548 26.1718 123.546 25.9263 122.66 25.4353C121.779 24.9403 121.083 24.2199 120.572 23.2741C120.06 22.3283 119.805 21.1773 119.805 19.821C119.805 18.4606 120.064 17.3076 120.584 16.3618C121.103 15.416 121.805 14.6976 122.691 14.2066C123.576 13.7156 124.568 13.4701 125.667 13.4701C126.415 13.4701 127.108 13.5748 127.743 13.784C128.379 13.9893 128.939 14.2911 129.422 14.6896C129.905 15.084 130.297 15.569 130.599 16.1445C130.901 16.72 131.088 17.378 131.16 18.1186ZM135.822 20.7144V26.0028H132.87V13.6392H135.726V18.4325H135.828C136.038 17.861 136.38 17.4142 136.855 17.0923C137.334 16.7703 137.919 16.6093 138.611 16.6093C139.263 16.6093 139.831 16.7542 140.314 17.044C140.797 17.3297 141.171 17.7342 141.437 18.2574C141.706 18.7806 141.839 19.3923 141.835 20.0926V26.0028H138.883V20.6722C138.887 20.157 138.758 19.7546 138.497 19.4648C138.235 19.175 137.867 19.0301 137.392 19.0301C137.082 19.0301 136.808 19.0986 136.571 19.2354C136.338 19.3682 136.154 19.5594 136.022 19.8089C135.893 20.0584 135.826 20.3603 135.822 20.7144ZM146.292 26.1597C145.7 26.1597 145.175 26.0611 144.716 25.8639C144.261 25.6627 143.901 25.3609 143.636 24.9584C143.374 24.5519 143.243 24.0428 143.243 23.4311C143.243 22.9159 143.334 22.4812 143.515 22.1271C143.696 21.7729 143.946 21.4852 144.263 21.2638C144.581 21.0424 144.948 20.8754 145.362 20.7627C145.777 20.646 146.219 20.5675 146.69 20.5273C147.218 20.479 147.642 20.4287 147.964 20.3764C148.286 20.32 148.52 20.2415 148.664 20.1409C148.813 20.0363 148.888 19.8894 148.888 19.7002V19.67C148.888 19.3602 148.781 19.1207 148.568 18.9517C148.355 18.7826 148.067 18.6981 147.705 18.6981C147.314 18.6981 147 18.7826 146.763 18.9517C146.525 19.1207 146.374 19.3541 146.31 19.6519L143.587 19.5553C143.668 18.9919 143.875 18.4888 144.209 18.0461C144.547 17.5994 145.01 17.2492 145.598 16.9957C146.189 16.7381 146.9 16.6093 147.729 16.6093C148.32 16.6093 148.866 16.6798 149.365 16.8206C149.864 16.9575 150.298 17.1587 150.669 17.4243C151.039 17.6859 151.325 18.0079 151.526 18.3902C151.731 18.7726 151.834 19.2092 151.834 19.7002V26.0028H149.057V24.7109H148.984C148.819 25.0248 148.608 25.2904 148.35 25.5078C148.097 25.7251 147.797 25.8881 147.451 25.9968C147.109 26.1054 146.723 26.1597 146.292 26.1597ZM147.203 24.2279C147.521 24.2279 147.807 24.1635 148.061 24.0347C148.318 23.906 148.524 23.7289 148.676 23.5035C148.829 23.2741 148.906 23.0085 148.906 22.7066V21.8252C148.821 21.8695 148.719 21.9097 148.598 21.946C148.481 21.9822 148.353 22.0164 148.212 22.0486C148.071 22.0808 147.926 22.109 147.777 22.1331C147.628 22.1573 147.485 22.1794 147.348 22.1995C147.071 22.2438 146.833 22.3122 146.636 22.4048C146.443 22.4973 146.294 22.6181 146.189 22.767C146.089 22.9119 146.038 23.0849 146.038 23.2862C146.038 23.592 146.147 23.8255 146.364 23.9865C146.586 24.1474 146.865 24.2279 147.203 24.2279ZM156.591 20.7144V26.0028H153.639V16.7301H156.446V18.4325H156.549C156.754 17.865 157.104 17.4203 157.599 17.0983C158.094 16.7723 158.684 16.6093 159.368 16.6093C160.02 16.6093 160.585 16.7562 161.064 17.05C161.547 17.3398 161.922 17.7463 162.187 18.2695C162.457 18.7887 162.59 19.3964 162.586 20.0926V26.0028H159.634V20.6722C159.638 20.157 159.507 19.7546 159.241 19.4648C158.98 19.175 158.615 19.0301 158.148 19.0301C157.839 19.0301 157.565 19.0986 157.327 19.2354C157.094 19.3682 156.913 19.5594 156.784 19.8089C156.659 20.0584 156.595 20.3603 156.591 20.7144ZM168.736 29.6732C167.854 29.6732 167.1 29.5505 166.472 29.305C165.844 29.0595 165.351 28.7234 164.993 28.2968C164.635 27.8702 164.419 27.3873 164.347 26.848L167.142 26.691C167.194 26.8802 167.291 27.0452 167.432 27.186C167.577 27.3269 167.764 27.4356 167.993 27.512C168.227 27.5885 168.5 27.6267 168.814 27.6267C169.309 27.6267 169.718 27.506 170.04 27.2645C170.366 27.0271 170.529 26.6105 170.529 26.0149V24.3849H170.426C170.309 24.6706 170.132 24.9262 169.895 25.1516C169.657 25.377 169.362 25.554 169.007 25.6828C168.657 25.8116 168.255 25.876 167.8 25.876C167.124 25.876 166.504 25.7191 165.941 25.4051C165.381 25.0872 164.932 24.5962 164.594 23.9321C164.26 23.264 164.093 22.4048 164.093 21.3544C164.093 20.2717 164.266 19.3803 164.612 18.68C164.959 17.9757 165.411 17.4545 165.971 17.1164C166.534 16.7784 167.14 16.6093 167.788 16.6093C168.275 16.6093 168.691 16.6938 169.038 16.8629C169.388 17.0279 169.675 17.2412 169.901 17.5028C170.126 17.7644 170.297 18.0361 170.414 18.3178H170.498V16.7301H173.438V26.039C173.438 26.8238 173.241 27.4859 172.847 28.0252C172.452 28.5645 171.901 28.973 171.193 29.2507C170.484 29.5324 169.665 29.6732 168.736 29.6732ZM168.826 23.7269C169.184 23.7269 169.49 23.6323 169.744 23.4431C169.997 23.254 170.193 22.9823 170.329 22.6281C170.466 22.274 170.535 21.8494 170.535 21.3544C170.535 20.8513 170.466 20.4186 170.329 20.0564C170.197 19.6902 170.001 19.4084 169.744 19.2112C169.49 19.014 169.184 18.9154 168.826 18.9154C168.46 18.9154 168.15 19.016 167.897 19.2173C167.643 19.4185 167.45 19.7022 167.317 20.0685C167.188 20.4307 167.124 20.8593 167.124 21.3544C167.124 21.8494 167.19 22.274 167.323 22.6281C167.456 22.9823 167.647 23.254 167.897 23.4431C168.15 23.6323 168.46 23.7269 168.826 23.7269ZM179.655 26.1779C178.685 26.1779 177.848 25.9867 177.144 25.6044C176.443 25.218 175.904 24.6686 175.526 23.9563C175.151 23.2399 174.964 22.3887 174.964 21.4026C174.964 20.4448 175.153 19.6077 175.532 18.8913C175.91 18.1709 176.443 17.6115 177.132 17.213C177.82 16.8106 178.631 16.6093 179.564 16.6093C180.224 16.6093 180.828 16.712 181.376 16.9172C181.923 17.1225 182.396 17.4263 182.794 17.8288C183.193 18.2312 183.503 18.7283 183.724 19.3199C183.945 19.9075 184.056 20.5816 184.056 21.3423V22.0788H175.997V20.3643H181.309C181.305 20.0504 181.231 19.7707 181.086 19.5252C180.941 19.2797 180.742 19.0885 180.488 18.9517C180.239 18.8108 179.951 18.7404 179.625 18.7404C179.295 18.7404 178.999 18.8148 178.737 18.9637C178.476 19.1086 178.269 19.3078 178.116 19.5614C177.963 19.8109 177.882 20.0946 177.874 20.4126V22.1573C177.874 22.5356 177.949 22.8676 178.097 23.1534C178.246 23.4351 178.458 23.6544 178.731 23.8114C179.005 23.9683 179.331 24.0468 179.709 24.0468C179.971 24.0468 180.208 24.0106 180.422 23.9382C180.635 23.8657 180.818 23.7591 180.971 23.6182C181.124 23.4773 181.239 23.3043 181.315 23.099L184.026 23.1775C183.913 23.7852 183.666 24.3145 183.283 24.7652C182.905 25.212 182.408 25.5601 181.792 25.8096C181.176 26.0551 180.464 26.1779 179.655 26.1779ZM188.516 13.6392V26.0028H185.564V13.6392H188.516ZM194.723 26.1779C193.749 26.1779 192.912 25.9786 192.212 25.5802C191.516 25.1777 190.978 24.6183 190.6 23.9019C190.226 23.1815 190.039 22.3464 190.039 21.3966C190.039 20.4428 190.226 19.6077 190.6 18.8913C190.978 18.1709 191.516 17.6115 192.212 17.213C192.912 16.8106 193.749 16.6093 194.723 16.6093C195.697 16.6093 196.532 16.8106 197.228 17.213C197.929 17.6115 198.466 18.1709 198.84 18.8913C199.219 19.6077 199.408 20.4428 199.408 21.3966C199.408 22.3464 199.219 23.1815 198.84 23.9019C198.466 24.6183 197.929 25.1777 197.228 25.5802C196.532 25.9786 195.697 26.1779 194.723 26.1779ZM194.741 23.9502C195.095 23.9502 195.395 23.8416 195.641 23.6242C195.886 23.4069 196.073 23.1051 196.202 22.7187C196.335 22.3323 196.401 21.8856 196.401 21.3785C196.401 20.8633 196.335 20.4126 196.202 20.0262C196.073 19.6399 195.886 19.338 195.641 19.1207C195.395 18.9034 195.095 18.7947 194.741 18.7947C194.375 18.7947 194.065 18.9034 193.812 19.1207C193.562 19.338 193.371 19.6399 193.238 20.0262C193.109 20.4126 193.045 20.8633 193.045 21.3785C193.045 21.8856 193.109 22.3323 193.238 22.7187C193.371 23.1051 193.562 23.4069 193.812 23.6242C194.065 23.8416 194.375 23.9502 194.741 23.9502ZM205.243 29.6732C204.361 29.6732 203.607 29.5505 202.979 29.305C202.351 29.0595 201.858 28.7234 201.5 28.2968C201.141 27.8702 200.926 27.3873 200.854 26.848L203.649 26.691C203.701 26.8802 203.798 27.0452 203.939 27.186C204.083 27.3269 204.271 27.4356 204.5 27.512C204.733 27.5885 205.007 27.6267 205.321 27.6267C205.816 27.6267 206.225 27.506 206.546 27.2645C206.872 27.0271 207.035 26.6105 207.035 26.0149V24.3849H206.933C206.816 24.6706 206.639 24.9262 206.402 25.1516C206.164 25.377 205.868 25.554 205.514 25.6828C205.164 25.8116 204.762 25.876 204.307 25.876C203.631 25.876 203.011 25.7191 202.447 25.4051C201.888 25.0872 201.439 24.5962 201.101 23.9321C200.767 23.264 200.6 22.4048 200.6 21.3544C200.6 20.2717 200.773 19.3803 201.119 18.68C201.465 17.9757 201.918 17.4545 202.478 17.1164C203.041 16.7784 203.647 16.6093 204.295 16.6093C204.782 16.6093 205.198 16.6938 205.544 16.8629C205.895 17.0279 206.182 17.2412 206.408 17.5028C206.633 17.7644 206.804 18.0361 206.921 18.3178H207.005V16.7301H209.945V26.039C209.945 26.8238 209.748 27.4859 209.354 28.0252C208.959 28.5645 208.408 28.973 207.7 29.2507C206.991 29.5324 206.172 29.6732 205.243 29.6732ZM205.333 23.7269C205.691 23.7269 205.997 23.6323 206.251 23.4431C206.504 23.254 206.699 22.9823 206.836 22.6281C206.973 22.274 207.042 21.8494 207.042 21.3544C207.042 20.8513 206.973 20.4186 206.836 20.0564C206.703 19.6902 206.508 19.4084 206.251 19.2112C205.997 19.014 205.691 18.9154 205.333 18.9154C204.967 18.9154 204.657 19.016 204.403 19.2173C204.15 19.4185 203.957 19.7022 203.824 20.0685C203.695 20.4307 203.631 20.8593 203.631 21.3544C203.631 21.8494 203.697 22.274 203.83 22.6281C203.963 22.9823 204.154 23.254 204.403 23.4431C204.657 23.6323 204.967 23.7269 205.333 23.7269Z" fill="#F1F1F1"/>
</g>
</g>
<rect x="1.05195" y="1.05279" width="216.9" height="37.9" rx="6.95" stroke="white" stroke-opacity="0.15" stroke-width="2.1"/>
<defs>
<filter id="filter0_d_7_203" x="2.28767" y="0.288507" width="39.4286" height="39.4286" filterUnits="userSpaceOnUse" color-interpolation-filters="sRGB">
<feFlood flood-opacity="0" result="BackgroundImageFix"/>
<feColorMatrix in="SourceAlpha" type="matrix" values="0 0 0 0 0 0 0 0 0 0 0 0 0 0 0 0 0 0 127 0" result="hardAlpha"/>
<feOffset/>
<feGaussianBlur stdDeviation="2.85714"/>
<feComposite in2="hardAlpha" operator="out"/>
<feColorMatrix type="matrix" values="0 0 0 0 0 0 0 0 0 0 0 0 0 0 0 0 0 0 0.25 0"/>
<feBlend mode="normal" in2="BackgroundImageFix" result="effect1_dropShadow_7_203"/>
<feBlend mode="normal" in="SourceGraphic" in2="effect1_dropShadow_7_203" result="shape"/>
</filter>
<filter id="filter1_d_7_203" x="36.402" y="3.90279" width="180.2" height="32.2" filterUnits="userSpaceOnUse" color-interpolation-filters="sRGB">
<feFlood flood-opacity="0" result="BackgroundImageFix"/>
<feColorMatrix in="SourceAlpha" type="matrix" values="0 0 0 0 0 0 0 0 0 0 0 0 0 0 0 0 0 0 127 0" result="hardAlpha"/>
<feOffset/>
<feGaussianBlur stdDeviation="2.8"/>
<feComposite in2="hardAlpha" operator="out"/>
<feColorMatrix type="matrix" values="0 0 0 0 0 0 0 0 0 0 0 0 0 0 0 0 0 0 0.25 0"/>
<feBlend mode="normal" in2="BackgroundImageFix" result="effect1_dropShadow_7_203"/>
<feBlend mode="normal" in="SourceGraphic" in2="effect1_dropShadow_7_203" result="shape"/>
</filter>
<linearGradient id="paint0_linear_7_203" x1="109.502" y1="0.00279236" x2="109.502" y2="40.0028" gradientUnits="userSpaceOnUse">
<stop stop-color="#303030"/>
<stop offset="1" stop-color="#1D1D1D"/>
</linearGradient>
<clipPath id="clip0_7_203">
<rect x="0.00195312" y="0.00279236" width="219" height="40" rx="8" fill="white"/>
</clipPath>
</defs>
</svg>
