<svg width="180" height="28" viewBox="0 0 180 28" fill="none" xmlns="http://www.w3.org/2000/svg">
<rect x="-0.000488281" y="-7.62939e-06" width="179.5" height="28" rx="6" fill="url(#paint0_linear_28_2409)"/>
<g filter="url(#filter0_d_28_2409)">
<path fill-rule="evenodd" clip-rule="evenodd" d="M6.71387 7.01593C6.71387 6.78438 6.80558 6.56232 6.96883 6.39859C7.13207 6.23486 7.35348 6.14287 7.58435 6.14287H12.5206C13.9447 6.14287 15.2098 6.82968 16.0025 7.89015C16.4078 7.34691 16.9339 6.90607 17.539 6.60273C18.1441 6.29938 18.8114 6.14192 19.4879 6.14287H24.4148C24.6457 6.14287 24.8671 6.23486 25.0303 6.39859C25.1936 6.56232 25.2853 6.78438 25.2853 7.01593V19.2387C25.2853 19.4703 25.1936 19.6924 25.0303 19.8561C24.8671 20.0198 24.6457 20.1118 24.4148 20.1118H19.1838C18.8409 20.1118 18.5013 20.1795 18.1844 20.3112C17.8676 20.4428 17.5797 20.6357 17.3372 20.8789L16.6153 21.6018C16.4521 21.7653 16.2308 21.8572 16.0002 21.8572C15.7695 21.8572 15.5482 21.7653 15.385 21.6018L14.6631 20.8789C14.4206 20.6357 14.1327 20.4428 13.8159 20.3112C13.499 20.1795 13.1595 20.1118 12.8165 20.1118H7.58435C7.35348 20.1118 7.13207 20.0198 6.96883 19.8561C6.80558 19.6924 6.71387 19.4703 6.71387 19.2387V7.01593ZM16.8753 10.5082C16.8753 9.81352 17.1504 9.14732 17.6402 8.65613C18.1299 8.16494 18.7941 7.88899 19.4867 7.88899H23.5432V18.3657H19.1826C18.3586 18.3657 17.5577 18.5997 16.8706 19.0315L16.8753 10.5082ZM15.1297 19.0339L15.1343 13.1285L15.132 10.5058C15.1314 9.81159 14.856 9.14599 14.3663 8.6553C13.8766 8.16462 13.2128 7.88899 12.5206 7.88899H8.45483V18.3657H12.8154C13.6341 18.3657 14.4363 18.5973 15.1297 19.0339Z" fill="#E8E8E8"/>
</g>
<g filter="url(#filter1_d_28_2409)">
<path d="M32.8784 18.5V10.5H35.73C36.3498 10.5 36.8641 10.6068 37.2729 10.8203C37.6844 11.0339 37.9917 11.3294 38.1948 11.707C38.3979 12.082 38.4995 12.5156 38.4995 13.0078C38.4995 13.4974 38.3966 13.9284 38.1909 14.3008C37.9878 14.6706 37.6805 14.9583 37.269 15.1641C36.8602 15.3698 36.3459 15.4727 35.7261 15.4727H33.5659V14.4336H35.6167C36.0073 14.4336 36.325 14.3776 36.5698 14.2656C36.8172 14.1536 36.9982 13.9909 37.1128 13.7773C37.2274 13.5638 37.2847 13.3073 37.2847 13.0078C37.2847 12.7057 37.2261 12.444 37.1089 12.2227C36.9943 12.0013 36.8133 11.832 36.5659 11.7148C36.3211 11.5951 35.9995 11.5352 35.6011 11.5352H34.0854V18.5H32.8784ZM36.8276 14.8906L38.8042 18.5H37.4292L35.4917 14.8906H36.8276ZM42.3853 18.6211C41.7941 18.6211 41.285 18.4948 40.8579 18.2422C40.4334 17.987 40.1053 17.6289 39.8735 17.168C39.6444 16.7044 39.5298 16.1615 39.5298 15.5391C39.5298 14.9245 39.6444 14.3828 39.8735 13.9141C40.1053 13.4453 40.4282 13.0794 40.8423 12.8164C41.2589 12.5534 41.7459 12.4219 42.3032 12.4219C42.6418 12.4219 42.9699 12.4779 43.2876 12.5898C43.6053 12.7018 43.8905 12.8776 44.1431 13.1172C44.3957 13.3568 44.5949 13.668 44.7407 14.0508C44.8866 14.431 44.9595 14.8932 44.9595 15.4375V15.8516H40.1899V14.9766H43.8149C43.8149 14.6693 43.7524 14.3971 43.6274 14.1602C43.5024 13.9206 43.3267 13.7318 43.1001 13.5937C42.8761 13.4557 42.6131 13.3867 42.311 13.3867C41.9829 13.3867 41.6964 13.4674 41.4517 13.6289C41.2095 13.7878 41.022 13.9961 40.8892 14.2539C40.7589 14.5091 40.6938 14.7865 40.6938 15.0859V15.7695C40.6938 16.1706 40.7642 16.5117 40.9048 16.793C41.048 17.0742 41.2472 17.2891 41.5024 17.4375C41.7576 17.5833 42.0558 17.6562 42.397 17.6562C42.6183 17.6562 42.8201 17.625 43.0024 17.5625C43.1847 17.4974 43.3423 17.401 43.4751 17.2734C43.6079 17.1458 43.7095 16.9883 43.7798 16.8008L44.8853 17C44.7967 17.3255 44.6379 17.6107 44.4087 17.8555C44.1821 18.0977 43.897 18.2865 43.5532 18.4219C43.2121 18.5547 42.8228 18.6211 42.3853 18.6211ZM48.0015 18.6328C47.6213 18.6328 47.2775 18.5625 46.9702 18.4219C46.6629 18.2786 46.4194 18.0716 46.2397 17.8008C46.0627 17.5299 45.9741 17.1979 45.9741 16.8047C45.9741 16.4661 46.0392 16.1875 46.1694 15.9687C46.2996 15.75 46.4754 15.5768 46.6968 15.4492C46.9181 15.3216 47.1655 15.2253 47.439 15.1602C47.7124 15.095 47.991 15.0456 48.2749 15.0117C48.6343 14.97 48.9259 14.9362 49.1499 14.9102C49.3739 14.8815 49.5366 14.8359 49.6382 14.7734C49.7397 14.7109 49.7905 14.6094 49.7905 14.4687V14.4414C49.7905 14.1003 49.6942 13.8359 49.5015 13.6484C49.3114 13.4609 49.0275 13.3672 48.6499 13.3672C48.2567 13.3672 47.9468 13.4544 47.7202 13.6289C47.4963 13.8008 47.3413 13.9922 47.2554 14.2031L46.1577 13.9531C46.2879 13.5885 46.478 13.2943 46.728 13.0703C46.9806 12.8437 47.271 12.6797 47.5991 12.5781C47.9272 12.474 48.2723 12.4219 48.6343 12.4219C48.8739 12.4219 49.1278 12.4505 49.396 12.5078C49.6668 12.5625 49.9194 12.6641 50.1538 12.8125C50.3908 12.9609 50.5848 13.1732 50.7358 13.4492C50.8869 13.7227 50.9624 14.0781 50.9624 14.5156V18.5H49.8218V17.6797H49.7749C49.6994 17.8307 49.5861 17.9792 49.4351 18.125C49.284 18.2708 49.09 18.3919 48.853 18.4883C48.616 18.5846 48.3322 18.6328 48.0015 18.6328ZM48.2554 17.6953C48.5783 17.6953 48.8543 17.6315 49.0835 17.5039C49.3153 17.3763 49.491 17.2096 49.6108 17.0039C49.7332 16.7956 49.7944 16.5729 49.7944 16.3359V15.5625C49.7528 15.6042 49.672 15.6432 49.5522 15.6797C49.4351 15.7135 49.3009 15.7435 49.1499 15.7695C48.9989 15.793 48.8517 15.8151 48.7085 15.8359C48.5653 15.8542 48.4455 15.8698 48.3491 15.8828C48.1226 15.9115 47.9155 15.9596 47.728 16.0273C47.5431 16.095 47.3947 16.1927 47.2827 16.3203C47.1733 16.4453 47.1186 16.612 47.1186 16.8203C47.1186 17.1094 47.2254 17.3281 47.439 17.4766C47.6525 17.6224 47.9246 17.6953 48.2554 17.6953ZM54.7642 18.6172C54.2798 18.6172 53.8475 18.4935 53.4673 18.2461C53.0897 17.9961 52.7928 17.6406 52.5767 17.1797C52.3631 16.7161 52.2563 16.1602 52.2563 15.5117C52.2563 14.8633 52.3644 14.3086 52.5806 13.8477C52.7993 13.3867 53.0988 13.0339 53.479 12.7891C53.8592 12.5443 54.2902 12.4219 54.772 12.4219C55.1444 12.4219 55.4438 12.4844 55.6704 12.6094C55.8996 12.7318 56.0767 12.875 56.2017 13.0391C56.3293 13.2031 56.4282 13.3477 56.4985 13.4727H56.5688V10.5H57.7368V18.5H56.5962V17.5664H56.4985C56.4282 17.694 56.3267 17.8398 56.1938 18.0039C56.0636 18.168 55.8839 18.3112 55.6548 18.4336C55.4256 18.556 55.1287 18.6172 54.7642 18.6172ZM55.022 17.6211C55.3579 17.6211 55.6418 17.5325 55.8735 17.3555C56.1079 17.1758 56.285 16.9271 56.4048 16.6094C56.5272 16.2917 56.5884 15.9219 56.5884 15.5C56.5884 15.0833 56.5285 14.7187 56.4087 14.4062C56.2889 14.0937 56.1131 13.8503 55.8813 13.6758C55.6496 13.5013 55.3631 13.4141 55.022 13.4141C54.6704 13.4141 54.3774 13.5052 54.1431 13.6875C53.9087 13.8698 53.7316 14.1185 53.6118 14.4336C53.4946 14.7487 53.436 15.1042 53.436 15.5C53.436 15.901 53.4959 16.2617 53.6157 16.582C53.7355 16.9023 53.9126 17.1562 54.147 17.3437C54.3839 17.5286 54.6756 17.6211 55.022 17.6211ZM65.1157 12.5V13.4375H61.8384V12.5H65.1157ZM62.7173 11.0625H63.8852V16.7383C63.8852 16.9648 63.9191 17.1354 63.9868 17.25C64.0545 17.362 64.1418 17.4388 64.2485 17.4805C64.3579 17.5195 64.4764 17.5391 64.604 17.5391C64.6977 17.5391 64.7798 17.5325 64.8501 17.5195C64.9204 17.5065 64.9751 17.4961 65.0142 17.4883L65.2251 18.4531C65.1574 18.4792 65.061 18.5052 64.936 18.5312C64.811 18.5599 64.6548 18.5755 64.4673 18.5781C64.16 18.5833 63.8735 18.5286 63.6079 18.4141C63.3423 18.2995 63.1274 18.1224 62.9634 17.8828C62.7993 17.6432 62.7173 17.3424 62.7173 16.9805V11.0625ZM67.7046 14.9375V18.5H66.5366V10.5H67.689V13.4766H67.7632C67.9038 13.1536 68.1186 12.8971 68.4077 12.707C68.6968 12.5169 69.0744 12.4219 69.5405 12.4219C69.952 12.4219 70.3113 12.5065 70.6186 12.6758C70.9285 12.8451 71.1681 13.0977 71.3374 13.4336C71.5093 13.7669 71.5952 14.1836 71.5952 14.6836V18.5H70.4272V14.8242C70.4272 14.3841 70.314 14.043 70.0874 13.8008C69.8608 13.556 69.5457 13.4336 69.1421 13.4336C68.866 13.4336 68.6186 13.4922 68.3999 13.6094C68.1837 13.7266 68.0132 13.8984 67.8882 14.125C67.7658 14.349 67.7046 14.6198 67.7046 14.9375ZM75.7397 18.6211C75.1486 18.6211 74.6395 18.4948 74.2124 18.2422C73.7879 17.987 73.4598 17.6289 73.228 17.168C72.9988 16.7044 72.8843 16.1615 72.8843 15.5391C72.8843 14.9245 72.9988 14.3828 73.228 13.9141C73.4598 13.4453 73.7827 13.0794 74.1968 12.8164C74.6134 12.5534 75.1004 12.4219 75.6577 12.4219C75.9962 12.4219 76.3244 12.4779 76.6421 12.5898C76.9598 12.7018 77.2449 12.8776 77.4975 13.1172C77.7501 13.3568 77.9494 13.668 78.0952 14.0508C78.241 14.431 78.314 14.8932 78.314 15.4375V15.8516H73.5444V14.9766H77.1694C77.1694 14.6693 77.1069 14.3971 76.9819 14.1602C76.8569 13.9206 76.6811 13.7318 76.4546 13.5937C76.2306 13.4557 75.9676 13.3867 75.6655 13.3867C75.3374 13.3867 75.0509 13.4674 74.8061 13.6289C74.564 13.7878 74.3765 13.9961 74.2436 14.2539C74.1134 14.5091 74.0483 14.7865 74.0483 15.0859V15.7695C74.0483 16.1706 74.1186 16.5117 74.2593 16.793C74.4025 17.0742 74.6017 17.2891 74.8569 17.4375C75.1121 17.5833 75.4103 17.6562 75.7515 17.6562C75.9728 17.6562 76.1746 17.625 76.3569 17.5625C76.5392 17.4974 76.6968 17.401 76.8296 17.2734C76.9624 17.1458 77.064 16.9883 77.1343 16.8008L78.2397 17C78.1512 17.3255 77.9923 17.6107 77.7632 17.8555C77.5366 18.0977 77.2515 18.2865 76.9077 18.4219C76.5666 18.5547 76.1772 18.6211 75.7397 18.6211Z" fill="#E8E8E8"/>
<path d="M85.3859 18.5H82.16V9.77273H85.3816C86.2708 9.77273 87.0364 9.94744 87.6785 10.2969C88.3234 10.6435 88.8205 11.1435 89.17 11.7969C89.5194 12.4474 89.6941 13.2259 89.6941 14.1321C89.6941 15.0412 89.5194 15.8224 89.17 16.4758C88.8234 17.1293 88.3276 17.6307 87.6827 17.9801C87.0379 18.3267 86.2722 18.5 85.3859 18.5ZM84.2694 16.7017H85.3049C85.7935 16.7017 86.2069 16.6193 86.545 16.4545C86.8859 16.2869 87.143 16.0156 87.3163 15.6406C87.4924 15.2628 87.5805 14.7599 87.5805 14.1321C87.5805 13.5043 87.4924 13.0043 87.3163 12.6321C87.1401 12.2571 86.8802 11.9872 86.5364 11.8224C86.1955 11.6548 85.7751 11.571 85.2751 11.571H84.2694V16.7017ZM93.981 18.6236C93.2935 18.6236 92.7026 18.483 92.2083 18.2017C91.7168 17.9176 91.3376 17.5227 91.0705 17.017C90.8063 16.5085 90.6742 15.919 90.6742 15.2486C90.6742 14.5753 90.8063 13.9858 91.0705 13.4801C91.3376 12.9716 91.7168 12.5767 92.2083 12.2955C92.7026 12.0114 93.2935 11.8693 93.981 11.8693C94.6685 11.8693 95.258 12.0114 95.7495 12.2955C96.2438 12.5767 96.6231 12.9716 96.8873 13.4801C97.1543 13.9858 97.2879 14.5753 97.2879 15.2486C97.2879 15.919 97.1543 16.5085 96.8873 17.017C96.6231 17.5227 96.2438 17.9176 95.7495 18.2017C95.258 18.483 94.6685 18.6236 93.981 18.6236ZM93.9938 17.0511C94.2438 17.0511 94.4555 16.9744 94.6288 16.821C94.8021 16.6676 94.9342 16.4545 95.0251 16.1818C95.1188 15.9091 95.1657 15.5937 95.1657 15.2358C95.1657 14.8722 95.1188 14.554 95.0251 14.2812C94.9342 14.0085 94.8021 13.7955 94.6288 13.642C94.4555 13.4886 94.2438 13.4119 93.9938 13.4119C93.7353 13.4119 93.5166 13.4886 93.3376 13.642C93.1614 13.7955 93.0265 14.0085 92.9327 14.2812C92.8418 14.554 92.7964 14.8722 92.7964 15.2358C92.7964 15.5937 92.8418 15.9091 92.9327 16.1818C93.0265 16.4545 93.1614 16.6676 93.3376 16.821C93.5166 16.9744 93.7353 17.0511 93.9938 17.0511ZM101.411 18.6236C100.72 18.6236 100.128 18.4815 99.6337 18.1974C99.1423 17.9133 98.7644 17.5185 98.5002 17.0128C98.236 16.5043 98.1039 15.9162 98.1039 15.2486C98.1039 14.5781 98.236 13.9901 98.5002 13.4844C98.7673 12.9759 99.1465 12.5795 99.638 12.2955C100.132 12.0114 100.722 11.8693 101.406 11.8693C102.012 11.8693 102.539 11.9787 102.987 12.1974C103.439 12.4162 103.791 12.7259 104.044 13.1264C104.3 13.5241 104.435 13.9915 104.449 14.5284H102.502C102.462 14.1932 102.348 13.9304 102.161 13.7401C101.976 13.5497 101.735 13.4545 101.436 13.4545C101.195 13.4545 100.983 13.5227 100.801 13.6591C100.62 13.7926 100.477 13.9915 100.375 14.2557C100.276 14.517 100.226 14.8409 100.226 15.2273C100.226 15.6136 100.276 15.9403 100.375 16.2074C100.477 16.4716 100.62 16.6719 100.801 16.8082C100.983 16.9418 101.195 17.0085 101.436 17.0085C101.629 17.0085 101.8 16.9673 101.948 16.8849C102.098 16.8026 102.222 16.6818 102.318 16.5227C102.415 16.3608 102.476 16.1648 102.502 15.9347H104.449C104.429 16.4744 104.294 16.946 104.044 17.3494C103.797 17.7528 103.449 18.0668 103 18.2912C102.554 18.5128 102.024 18.6236 101.411 18.6236ZM109.738 15.6747V11.9545H111.818V18.5H109.832V17.2812H109.764C109.619 17.6818 109.372 18 109.023 18.2358C108.676 18.4687 108.257 18.5852 107.765 18.5852C107.319 18.5852 106.927 18.483 106.589 18.2784C106.251 18.0739 105.988 17.7883 105.801 17.4219C105.613 17.0526 105.518 16.6207 105.515 16.1264V11.9545H107.599V15.7173C107.602 16.0724 107.696 16.3523 107.881 16.5568C108.065 16.7614 108.317 16.8636 108.635 16.8636C108.842 16.8636 109.028 16.8182 109.193 16.7273C109.361 16.6335 109.493 16.4986 109.589 16.3224C109.689 16.1435 109.738 15.9276 109.738 15.6747ZM113.144 18.5V11.9545H115.126V13.1562H115.198C115.335 12.7585 115.565 12.4446 115.889 12.2145C116.213 11.9844 116.599 11.8693 117.048 11.8693C117.502 11.8693 117.892 11.9858 118.215 12.2187C118.539 12.4517 118.745 12.7642 118.833 13.1562H118.901C119.024 12.767 119.262 12.456 119.617 12.223C119.973 11.9872 120.392 11.8693 120.874 11.8693C121.494 11.8693 121.997 12.0682 122.383 12.4659C122.769 12.8608 122.963 13.4034 122.963 14.0937V18.5H120.879V14.571C120.879 14.2443 120.795 13.9957 120.627 13.8253C120.46 13.652 120.242 13.5653 119.975 13.5653C119.688 13.5653 119.463 13.6591 119.298 13.8466C119.136 14.0312 119.055 14.2798 119.055 14.5923V18.5H117.052V14.5497C117.052 14.2457 116.97 14.0057 116.805 13.8295C116.64 13.6534 116.423 13.5653 116.153 13.5653C115.971 13.5653 115.811 13.6094 115.671 13.6974C115.532 13.7827 115.423 13.9048 115.343 14.0639C115.267 14.223 115.228 14.4105 115.228 14.6264V18.5H113.144ZM127.313 18.6236C126.629 18.6236 126.038 18.4886 125.541 18.2187C125.046 17.946 124.666 17.5582 124.399 17.0554C124.134 16.5497 124.002 15.9489 124.002 15.2528C124.002 14.5767 124.136 13.9858 124.403 13.4801C124.67 12.9716 125.046 12.5767 125.532 12.2955C126.018 12.0114 126.59 11.8693 127.249 11.8693C127.715 11.8693 128.142 11.9418 128.528 12.0866C128.914 12.2315 129.248 12.446 129.529 12.7301C129.811 13.0142 130.029 13.3651 130.186 13.7827C130.342 14.1974 130.42 14.6733 130.42 15.2102V15.7301H124.731V14.5199H128.481C128.478 14.2983 128.426 14.1009 128.323 13.9276C128.221 13.7543 128.08 13.6193 127.901 13.5227C127.725 13.4233 127.522 13.3736 127.292 13.3736C127.059 13.3736 126.85 13.4261 126.666 13.5312C126.481 13.6335 126.335 13.7741 126.227 13.9531C126.119 14.1293 126.062 14.3295 126.056 14.554V15.7855C126.056 16.0526 126.109 16.2869 126.214 16.4886C126.319 16.6875 126.468 16.8423 126.661 16.9531C126.855 17.0639 127.085 17.1193 127.352 17.1193C127.536 17.1193 127.704 17.0937 127.855 17.0426C128.005 16.9915 128.134 16.9162 128.242 16.8168C128.35 16.7173 128.431 16.5952 128.485 16.4503L130.399 16.5057C130.319 16.9347 130.144 17.3082 129.874 17.6264C129.607 17.9418 129.257 18.1875 128.822 18.3636C128.387 18.5369 127.884 18.6236 127.313 18.6236ZM133.568 14.767V18.5H131.484V11.9545H133.466V13.1562H133.538C133.683 12.7557 133.93 12.4418 134.28 12.2145C134.629 11.9844 135.045 11.8693 135.528 11.8693C135.988 11.8693 136.388 11.973 136.726 12.1804C137.067 12.3849 137.331 12.6719 137.518 13.0412C137.709 13.4077 137.802 13.8366 137.8 14.3281V18.5H135.716V14.7372C135.719 14.3736 135.626 14.0895 135.439 13.8849C135.254 13.6804 134.997 13.5781 134.667 13.5781C134.449 13.5781 134.256 13.6264 134.088 13.723C133.923 13.8168 133.795 13.9517 133.704 14.1278C133.616 14.304 133.571 14.517 133.568 14.767ZM142.784 11.9545V13.4886H138.655V11.9545H142.784ZM139.52 10.3864H141.604V16.4418C141.604 16.5696 141.624 16.6733 141.664 16.7528C141.706 16.8295 141.767 16.8849 141.847 16.919C141.926 16.9503 142.022 16.9659 142.132 16.9659C142.212 16.9659 142.296 16.9588 142.384 16.9446C142.475 16.9276 142.543 16.9133 142.588 16.902L142.904 18.4062C142.804 18.4347 142.664 18.4702 142.482 18.5128C142.303 18.5554 142.088 18.5824 141.838 18.5937C141.35 18.6165 140.931 18.5597 140.581 18.4233C140.235 18.2841 139.969 18.0682 139.784 17.7756C139.602 17.483 139.514 17.1151 139.52 16.6719V10.3864ZM145.693 18.6108C145.275 18.6108 144.904 18.5412 144.58 18.402C144.259 18.2599 144.005 18.0469 143.818 17.7628C143.633 17.4758 143.541 17.1165 143.541 16.6847C143.541 16.321 143.605 16.0142 143.732 15.7642C143.86 15.5142 144.036 15.3111 144.261 15.1548C144.485 14.9986 144.744 14.8807 145.036 14.8011C145.329 14.7187 145.642 14.6633 145.974 14.6349C146.346 14.6009 146.646 14.5653 146.873 14.5284C147.1 14.4886 147.265 14.4332 147.367 14.3622C147.473 14.2884 147.525 14.1847 147.525 14.0511V14.0298C147.525 13.8111 147.45 13.642 147.299 13.5227C147.149 13.4034 146.946 13.3437 146.69 13.3437C146.414 13.3437 146.193 13.4034 146.025 13.5227C145.857 13.642 145.751 13.8068 145.705 14.017L143.784 13.9489C143.84 13.5511 143.987 13.196 144.223 12.8835C144.461 12.5682 144.788 12.321 145.203 12.142C145.62 11.9602 146.122 11.8693 146.707 11.8693C147.124 11.8693 147.509 11.919 147.862 12.0185C148.214 12.1151 148.521 12.2571 148.782 12.4446C149.044 12.6293 149.245 12.8565 149.387 13.1264C149.532 13.3963 149.605 13.7045 149.605 14.0511V18.5H147.644V17.5881H147.593C147.477 17.8097 147.328 17.9972 147.146 18.1506C146.967 18.304 146.755 18.419 146.511 18.4957C146.269 18.5724 145.997 18.6108 145.693 18.6108ZM146.336 17.2472C146.561 17.2472 146.762 17.2017 146.941 17.1108C147.123 17.0199 147.268 16.8949 147.376 16.7358C147.484 16.5739 147.538 16.3864 147.538 16.1733V15.5511C147.478 15.5824 147.406 15.6108 147.321 15.6364C147.238 15.6619 147.147 15.6861 147.048 15.7088C146.948 15.7315 146.846 15.7514 146.741 15.7685C146.636 15.7855 146.535 15.8011 146.438 15.8153C146.242 15.8466 146.075 15.8949 145.936 15.9602C145.799 16.0256 145.694 16.1108 145.62 16.2159C145.549 16.3182 145.514 16.4403 145.514 16.5824C145.514 16.7983 145.59 16.9631 145.744 17.0767C145.9 17.1903 146.098 17.2472 146.336 17.2472ZM154.573 11.9545V13.4886H150.444V11.9545H154.573ZM151.309 10.3864H153.393V16.4418C153.393 16.5696 153.413 16.6733 153.453 16.7528C153.495 16.8295 153.556 16.8849 153.636 16.919C153.715 16.9503 153.811 16.9659 153.921 16.9659C154.001 16.9659 154.085 16.9588 154.173 16.9446C154.264 16.9276 154.332 16.9133 154.377 16.902L154.693 18.4062C154.593 18.4347 154.453 18.4702 154.271 18.5128C154.092 18.5554 153.877 18.5824 153.627 18.5937C153.139 18.6165 152.72 18.5597 152.37 18.4233C152.024 18.2841 151.758 18.0682 151.573 17.7756C151.392 17.483 151.303 17.1151 151.309 16.6719V10.3864ZM155.637 18.5V11.9545H157.72V18.5H155.637ZM156.681 11.1918C156.388 11.1918 156.137 11.0952 155.926 10.902C155.716 10.706 155.611 10.4702 155.611 10.1946C155.611 9.92187 155.716 9.68892 155.926 9.49574C156.137 9.29971 156.388 9.2017 156.681 9.2017C156.976 9.2017 157.227 9.29971 157.435 9.49574C157.645 9.68892 157.75 9.92187 157.75 10.1946C157.75 10.4702 157.645 10.706 157.435 10.902C157.227 11.0952 156.976 11.1918 156.681 11.1918ZM162.102 18.6236C161.415 18.6236 160.824 18.483 160.329 18.2017C159.838 17.9176 159.459 17.5227 159.192 17.017C158.927 16.5085 158.795 15.919 158.795 15.2486C158.795 14.5753 158.927 13.9858 159.192 13.4801C159.459 12.9716 159.838 12.5767 160.329 12.2955C160.824 12.0114 161.415 11.8693 162.102 11.8693C162.79 11.8693 163.379 12.0114 163.871 12.2955C164.365 12.5767 164.744 12.9716 165.008 13.4801C165.275 13.9858 165.409 14.5753 165.409 15.2486C165.409 15.919 165.275 16.5085 165.008 17.017C164.744 17.5227 164.365 17.9176 163.871 18.2017C163.379 18.483 162.79 18.6236 162.102 18.6236ZM162.115 17.0511C162.365 17.0511 162.577 16.9744 162.75 16.821C162.923 16.6676 163.055 16.4545 163.146 16.1818C163.24 15.9091 163.287 15.5937 163.287 15.2358C163.287 14.8722 163.24 14.554 163.146 14.2812C163.055 14.0085 162.923 13.7955 162.75 13.642C162.577 13.4886 162.365 13.4119 162.115 13.4119C161.856 13.4119 161.638 13.4886 161.459 13.642C161.283 13.7955 161.148 14.0085 161.054 14.2812C160.963 14.554 160.917 14.8722 160.917 15.2358C160.917 15.5937 160.963 15.9091 161.054 16.1818C161.148 16.4545 161.283 16.6676 161.459 16.821C161.638 16.9744 161.856 17.0511 162.115 17.0511ZM168.56 14.767V18.5H166.476V11.9545H168.458V13.1562H168.53C168.675 12.7557 168.922 12.4418 169.272 12.2145C169.621 11.9844 170.037 11.8693 170.52 11.8693C170.981 11.8693 171.38 11.973 171.718 12.1804C172.059 12.3849 172.323 12.6719 172.51 13.0412C172.701 13.4077 172.795 13.8366 172.792 14.3281V18.5H170.708V14.7372C170.711 14.3736 170.618 14.0895 170.431 13.8849C170.246 13.6804 169.989 13.5781 169.66 13.5781C169.441 13.5781 169.248 13.6264 169.08 13.723C168.915 13.8168 168.787 13.9517 168.697 14.1278C168.609 14.304 168.563 14.517 168.56 14.767Z" fill="#E8E8E8"/>
</g>
<rect x="0.749512" y="0.749992" width="178" height="26.5" rx="5.25" stroke="white" stroke-opacity="0.15" stroke-width="1.5"/>
<defs>
<filter id="filter0_d_28_2409" x="1.99951" y="-1.52588e-05" width="28" height="28" filterUnits="userSpaceOnUse" color-interpolation-filters="sRGB">
<feFlood flood-opacity="0" result="BackgroundImageFix"/>
<feColorMatrix in="SourceAlpha" type="matrix" values="0 0 0 0 0 0 0 0 0 0 0 0 0 0 0 0 0 0 127 0" result="hardAlpha"/>
<feOffset/>
<feGaussianBlur stdDeviation="2"/>
<feComposite in2="hardAlpha" operator="out"/>
<feColorMatrix type="matrix" values="0 0 0 0 0 0 0 0 0 0 0 0 0 0 0 0 0 0 0.25 0"/>
<feBlend mode="normal" in2="BackgroundImageFix" result="effect1_dropShadow_28_2409"/>
<feBlend mode="normal" in="SourceGraphic" in2="effect1_dropShadow_28_2409" result="shape"/>
</filter>
<filter id="filter1_d_28_2409" x="27.9995" y="3.5" width="149.5" height="21" filterUnits="userSpaceOnUse" color-interpolation-filters="sRGB">
<feFlood flood-opacity="0" result="BackgroundImageFix"/>
<feColorMatrix in="SourceAlpha" type="matrix" values="0 0 0 0 0 0 0 0 0 0 0 0 0 0 0 0 0 0 127 0" result="hardAlpha"/>
<feOffset/>
<feGaussianBlur stdDeviation="2"/>
<feComposite in2="hardAlpha" operator="out"/>
<feColorMatrix type="matrix" values="0 0 0 0 0 0 0 0 0 0 0 0 0 0 0 0 0 0 0.25 0"/>
<feBlend mode="normal" in2="BackgroundImageFix" result="effect1_dropShadow_28_2409"/>
<feBlend mode="normal" in="SourceGraphic" in2="effect1_dropShadow_28_2409" result="shape"/>
</filter>
<linearGradient id="paint0_linear_28_2409" x1="89.7495" y1="-7.62939e-06" x2="89.7495" y2="28" gradientUnits="userSpaceOnUse">
<stop stop-color="#1B2330"/>
<stop offset="1" stop-color="#10151D"/>
</linearGradient>
</defs>
</svg>
