<svg width="261" height="41" viewBox="0 0 261 41" fill="none" xmlns="http://www.w3.org/2000/svg">
<rect x="0.00195312" y="0.00418091" width="260.001" height="40.0014" rx="8" fill="url(#paint0_linear_28_2409)"/>
<g filter="url(#filter0_d_28_2409)">
<path fill-rule="evenodd" clip-rule="evenodd" d="M9.00195 10.2267C9.00195 9.90254 9.13036 9.59163 9.35891 9.3624C9.58747 9.13317 9.89746 9.00439 10.2207 9.00439H17.1317C19.1256 9.00439 20.8968 9.96596 22.0067 11.4507C22.5741 10.6901 23.3107 10.0729 24.1579 9.64821C25.005 9.22351 25.9394 9.00305 26.8865 9.00439H33.7845C34.1077 9.00439 34.4177 9.13317 34.6463 9.3624C34.8749 9.59163 35.0033 9.90254 35.0033 10.2267V27.3395C35.0033 27.6637 34.8749 27.9746 34.6463 28.2039C34.4177 28.4331 34.1077 28.5619 33.7845 28.5619H26.4607C25.9806 28.5619 25.5052 28.6567 25.0616 28.841C24.618 29.0253 24.2149 29.2954 23.8754 29.6359L22.8647 30.648C22.6361 30.8769 22.3264 31.0055 22.0034 31.0055C21.6805 31.0055 21.3707 30.8769 21.1422 30.648L20.1314 29.6359C19.7919 29.2954 19.3889 29.0253 18.9453 28.841C18.5017 28.6567 18.0262 28.5619 17.5461 28.5619H10.2207C9.89746 28.5619 9.58747 28.4331 9.35891 28.2039C9.13036 27.9746 9.00195 27.6637 9.00195 27.3395V10.2267ZM23.2287 15.1161C23.2287 14.1435 23.6139 13.2108 24.2995 12.5231C24.9852 11.8354 25.9152 11.4491 26.8849 11.4491H32.5642V26.1172H26.4591C25.3054 26.1172 24.1841 26.4448 23.2222 27.0494L23.2287 15.1161V15.1161ZM20.7847 27.0527L20.7912 18.7848L20.7879 15.1128C20.7871 14.1408 20.4015 13.209 19.7159 12.522C19.0303 11.835 18.1008 11.4491 17.1317 11.4491H11.4394V26.1172H17.5445C18.6908 26.1171 19.8138 26.4414 20.7847 27.0527V27.0527Z" fill="#E8E8E8"/>
</g>
<g filter="url(#filter1_d_28_2409)">
<path d="M45.3617 26.5049V14.1412H49.7687C50.7265 14.1412 51.5214 14.3063 52.1533 14.6363C52.7892 14.9663 53.2641 15.4231 53.578 16.0067C53.8919 16.5862 54.0489 17.2563 54.0489 18.017C54.0489 18.7736 53.8899 19.4397 53.572 20.0152C53.258 20.5867 52.7831 21.0314 52.1472 21.3493C51.5154 21.6673 50.7205 21.8263 49.7626 21.8263H46.4242V20.2204H49.5936C50.1973 20.2204 50.6883 20.1339 51.0666 19.9608C51.449 19.7878 51.7287 19.5362 51.9058 19.2062C52.0828 18.8762 52.1714 18.4798 52.1714 18.017C52.1714 17.5501 52.0808 17.1456 51.8997 16.8035C51.7226 16.4614 51.4429 16.1998 51.0606 16.0187C50.6823 15.8336 50.1852 15.741 49.5695 15.741H47.2271V26.5049H45.3617ZM51.4651 20.9268L54.5198 26.5049H52.3948L49.4004 20.9268H51.4651ZM60.0541 26.692C59.1405 26.692 58.3537 26.4968 57.6937 26.1064C57.0377 25.712 56.5306 25.1586 56.1724 24.4463C55.8182 23.7299 55.6411 22.8908 55.6411 21.9289C55.6411 20.9791 55.8182 20.142 56.1724 19.4175C56.5306 18.6931 57.0296 18.1276 57.6695 17.7211C58.3135 17.3147 59.0661 17.1114 59.9273 17.1114C60.4505 17.1114 60.9576 17.1979 61.4486 17.371C61.9396 17.5441 62.3803 17.8157 62.7707 18.186C63.1611 18.5563 63.469 19.0372 63.6944 19.6288C63.9198 20.2164 64.0324 20.9308 64.0324 21.7719V22.4118H56.6614V21.0596H62.2636C62.2636 20.5847 62.167 20.1641 61.9738 19.7978C61.7807 19.4276 61.509 19.1358 61.1589 18.9225C60.8127 18.7092 60.4063 18.6025 59.9394 18.6025C59.4323 18.6025 58.9896 18.7273 58.6113 18.9768C58.237 19.2223 57.9472 19.5443 57.742 19.9427C57.5407 20.3371 57.4401 20.7658 57.4401 21.2286V22.2851C57.4401 22.9049 57.5488 23.4321 57.7661 23.8667C57.9875 24.3014 58.2953 24.6334 58.6898 24.8628C59.0842 25.0882 59.545 25.2009 60.0722 25.2009C60.4143 25.2009 60.7262 25.1526 61.0079 25.056C61.2897 24.9554 61.5332 24.8065 61.7384 24.6093C61.9437 24.4121 62.1006 24.1686 62.2093 23.8788L63.9177 24.1867C63.7809 24.6898 63.5354 25.1305 63.1812 25.5088C62.8311 25.8831 62.3904 26.1749 61.8591 26.3841C61.3319 26.5894 60.7302 26.692 60.0541 26.692ZM68.7337 26.7101C68.1461 26.7101 67.6149 26.6015 67.14 26.3841C66.665 26.1628 66.2887 25.8428 66.011 25.4243C65.7374 25.0057 65.6005 24.4926 65.6005 23.8848C65.6005 23.3616 65.7012 22.931 65.9024 22.5929C66.1036 22.2549 66.3753 21.9872 66.7174 21.79C67.0595 21.5928 67.4418 21.4439 67.8644 21.3433C68.287 21.2427 68.7176 21.1662 69.1563 21.1139C69.7117 21.0495 70.1624 20.9972 70.5086 20.9569C70.8547 20.9127 71.1062 20.8422 71.2632 20.7456C71.4201 20.6491 71.4986 20.4921 71.4986 20.2748V20.2325C71.4986 19.7053 71.3497 19.2968 71.0519 19.007C70.7581 18.7172 70.3194 18.5724 69.7358 18.5724C69.1281 18.5724 68.6492 18.7072 68.299 18.9768C67.9529 19.2425 67.7135 19.5383 67.5806 19.8643L65.8843 19.4779C66.0855 18.9144 66.3793 18.4597 66.7657 18.1135C67.1561 17.7634 67.6048 17.5099 68.1119 17.3529C68.619 17.1919 69.1523 17.1114 69.7117 17.1114C70.0819 17.1114 70.4744 17.1557 70.8889 17.2442C71.3074 17.3287 71.6978 17.4857 72.0601 17.7151C72.4263 17.9445 72.7261 18.2725 72.9596 18.6991C73.193 19.1217 73.3097 19.6711 73.3097 20.3472V26.5049H71.5469V25.2371H71.4745C71.3578 25.4706 71.1827 25.7 70.9493 25.9253C70.7158 26.1507 70.416 26.3379 70.0498 26.4868C69.6835 26.6357 69.2448 26.7101 68.7337 26.7101ZM69.1261 25.2613C69.6252 25.2613 70.0518 25.1627 70.4059 24.9655C70.7641 24.7683 71.0358 24.5107 71.2209 24.1927C71.4101 23.8708 71.5047 23.5267 71.5047 23.1604V21.9651C71.4403 22.0295 71.3155 22.0899 71.1304 22.1462C70.9493 22.1985 70.742 22.2448 70.5086 22.2851C70.2751 22.3213 70.0477 22.3555 69.8264 22.3877C69.605 22.4159 69.4199 22.44 69.271 22.4601C68.9208 22.5044 68.6009 22.5789 68.3111 22.6835C68.0254 22.7881 67.796 22.9391 67.6229 23.1363C67.4539 23.3295 67.3694 23.587 67.3694 23.909C67.3694 24.3557 67.5344 24.6938 67.8644 24.9232C68.1944 25.1486 68.615 25.2613 69.1261 25.2613ZM79.1851 26.686C78.4366 26.686 77.7685 26.4948 77.1809 26.1125C76.5973 25.7261 76.1385 25.1768 75.8045 24.4644C75.4744 23.748 75.3094 22.8888 75.3094 21.8866C75.3094 20.8845 75.4764 20.0273 75.8105 19.3149C76.1486 18.6025 76.6114 18.0572 77.199 17.6789C77.7866 17.3006 78.4527 17.1114 79.1972 17.1114C79.7727 17.1114 80.2356 17.208 80.5857 17.4012C80.9399 17.5903 81.2135 17.8117 81.4067 18.0652C81.6039 18.3188 81.7569 18.5422 81.8655 18.7353H81.9742V14.1412H83.7792V26.5049H82.0165V25.0621H81.8655C81.7569 25.2593 81.5999 25.4846 81.3947 25.7382C81.1934 25.9917 80.9157 26.2131 80.5616 26.4022C80.2074 26.5914 79.7486 26.686 79.1851 26.686ZM79.5836 25.1466C80.1028 25.1466 80.5414 25.0097 80.8996 24.7361C81.2618 24.4584 81.5355 24.074 81.7206 23.583C81.9098 23.092 82.0044 22.5205 82.0044 21.8685C82.0044 21.2246 81.9118 20.6611 81.7267 20.1782C81.5416 19.6952 81.2699 19.3189 80.9117 19.0493C80.5535 18.7796 80.1108 18.6448 79.5836 18.6448C79.0403 18.6448 78.5875 18.7857 78.2253 19.0674C77.863 19.3491 77.5894 19.7335 77.4042 20.2204C77.2231 20.7074 77.1326 21.2568 77.1326 21.8685C77.1326 22.4883 77.2251 23.0457 77.4103 23.5407C77.5954 24.0358 77.8691 24.4282 78.2313 24.7179C78.5975 25.0037 79.0483 25.1466 79.5836 25.1466ZM95.183 17.2322V18.681H90.118V17.2322H95.183ZM91.4763 15.0106H93.2814V23.7822C93.2814 24.1324 93.3337 24.396 93.4383 24.5731C93.543 24.7461 93.6778 24.8648 93.8428 24.9292C94.0118 24.9896 94.195 25.0198 94.3922 25.0198C94.5371 25.0198 94.6638 25.0097 94.7725 24.9896C94.8812 24.9695 94.9657 24.9534 95.026 24.9413L95.352 26.4324C95.2474 26.4727 95.0985 26.5129 94.9053 26.5532C94.7121 26.5974 94.4706 26.6216 94.1809 26.6256C93.706 26.6337 93.2633 26.5491 92.8527 26.3721C92.4422 26.195 92.1102 25.9213 91.8567 25.551C91.6031 25.1808 91.4763 24.7159 91.4763 24.1565V15.0106ZM99.184 20.9992V26.5049H97.3789V14.1412H99.1598V18.7414H99.2745C99.4919 18.2423 99.8239 17.8459 100.271 17.5521C100.717 17.2583 101.301 17.1114 102.021 17.1114C102.657 17.1114 103.213 17.2422 103.688 17.5038C104.166 17.7654 104.537 18.1558 104.798 18.675C105.064 19.1901 105.197 19.8341 105.197 20.6068V26.5049H103.392V20.8241C103.392 20.144 103.217 19.6167 102.867 19.2425C102.516 18.8641 102.029 18.675 101.406 18.675C100.979 18.675 100.597 18.7655 100.259 18.9466C99.9245 19.1277 99.6609 19.3934 99.4677 19.7435C99.2786 20.0896 99.184 20.5082 99.184 20.9992ZM111.602 26.692C110.688 26.692 109.902 26.4968 109.242 26.1064C108.585 25.712 108.078 25.1586 107.72 24.4463C107.366 23.7299 107.189 22.8908 107.189 21.9289C107.189 20.9791 107.366 20.142 107.72 19.4175C108.078 18.6931 108.577 18.1276 109.217 17.7211C109.861 17.3147 110.614 17.1114 111.475 17.1114C111.998 17.1114 112.505 17.1979 112.996 17.371C113.487 17.5441 113.928 17.8157 114.319 18.186C114.709 18.5563 115.017 19.0372 115.242 19.6288C115.468 20.2164 115.58 20.9308 115.58 21.7719V22.4118H108.209V21.0596H113.811C113.811 20.5847 113.715 20.1641 113.522 19.7978C113.329 19.4276 113.057 19.1358 112.707 18.9225C112.361 18.7092 111.954 18.6025 111.487 18.6025C110.98 18.6025 110.537 18.7273 110.159 18.9768C109.785 19.2223 109.495 19.5443 109.29 19.9427C109.089 20.3371 108.988 20.7658 108.988 21.2286V22.2851C108.988 22.9049 109.097 23.4321 109.314 23.8667C109.535 24.3014 109.843 24.6334 110.238 24.8628C110.632 25.0882 111.093 25.2009 111.62 25.2009C111.962 25.2009 112.274 25.1526 112.556 25.056C112.838 24.9554 113.081 24.8065 113.286 24.6093C113.492 24.4121 113.648 24.1686 113.757 23.8788L115.466 24.1867C115.329 24.6898 115.083 25.1305 114.729 25.5088C114.379 25.8831 113.938 26.1749 113.407 26.3841C112.88 26.5894 112.278 26.692 111.602 26.692Z" fill="#E8E8E8"/>
<path d="M126.509 26.5049H121.939V14.1412H126.503C127.763 14.1412 128.847 14.3888 129.757 14.8838C130.671 15.3748 131.375 16.0831 131.87 17.0088C132.365 17.9304 132.612 19.0332 132.612 20.317C132.612 21.6049 132.365 22.7117 131.87 23.6373C131.379 24.563 130.677 25.2733 129.763 25.7684C128.849 26.2594 127.765 26.5049 126.509 26.5049ZM124.927 23.9573H126.394C127.087 23.9573 127.672 23.8406 128.151 23.6072C128.634 23.3697 128.998 22.9853 129.244 22.4541C129.493 21.9188 129.618 21.2065 129.618 20.317C129.618 19.4276 129.493 18.7193 129.244 18.192C128.994 17.6608 128.626 17.2784 128.139 17.045C127.656 16.8076 127.06 16.6888 126.352 16.6888H124.927V23.9573ZM138.686 26.6799C137.712 26.6799 136.875 26.4807 136.174 26.0823C135.478 25.6798 134.941 25.1204 134.562 24.404C134.188 23.6836 134.001 22.8485 134.001 21.8987C134.001 20.9449 134.188 20.1098 134.562 19.3934C134.941 18.673 135.478 18.1135 136.174 17.7151C136.875 17.3126 137.712 17.1114 138.686 17.1114C139.66 17.1114 140.495 17.3126 141.191 17.7151C141.891 18.1135 142.428 18.673 142.803 19.3934C143.181 20.1098 143.37 20.9449 143.37 21.8987C143.37 22.8485 143.181 23.6836 142.803 24.404C142.428 25.1204 141.891 25.6798 141.191 26.0823C140.495 26.4807 139.66 26.6799 138.686 26.6799ZM138.704 24.4523C139.058 24.4523 139.358 24.3437 139.603 24.1263C139.849 23.909 140.036 23.6072 140.165 23.2208C140.297 22.8344 140.364 22.3877 140.364 21.8806C140.364 21.3654 140.297 20.9147 140.165 20.5283C140.036 20.142 139.849 19.8401 139.603 19.6228C139.358 19.4054 139.058 19.2968 138.704 19.2968C138.337 19.2968 138.028 19.4054 137.774 19.6228C137.524 19.8401 137.333 20.142 137.201 20.5283C137.072 20.9147 137.007 21.3654 137.007 21.8806C137.007 22.3877 137.072 22.8344 137.201 23.2208C137.333 23.6072 137.524 23.909 137.774 24.1263C138.028 24.3437 138.337 24.4523 138.704 24.4523ZM149.211 26.6799C148.233 26.6799 147.394 26.4787 146.694 26.0763C145.997 25.6738 145.462 25.1144 145.088 24.398C144.713 23.6776 144.526 22.8445 144.526 21.8987C144.526 20.9489 144.713 20.1158 145.088 19.3994C145.466 18.679 146.003 18.1176 146.7 17.7151C147.4 17.3126 148.235 17.1114 149.205 17.1114C150.062 17.1114 150.809 17.2664 151.445 17.5763C152.085 17.8862 152.584 18.3248 152.942 18.8923C153.304 19.4558 153.495 20.1178 153.515 20.8785H150.756C150.7 20.4036 150.539 20.0313 150.273 19.7616C150.012 19.492 149.67 19.3572 149.247 19.3572C148.905 19.3572 148.605 19.4537 148.348 19.6469C148.09 19.8361 147.889 20.1178 147.744 20.4921C147.603 20.8624 147.533 21.3212 147.533 21.8685C147.533 22.4159 147.603 22.8787 147.744 23.257C147.889 23.6313 148.09 23.915 148.348 24.1082C148.605 24.2974 148.905 24.392 149.247 24.392C149.521 24.392 149.762 24.3336 149.972 24.2169C150.185 24.1002 150.36 23.9291 150.497 23.7037C150.634 23.4743 150.72 23.1966 150.756 22.8706H153.515C153.487 23.6353 153.296 24.3034 152.942 24.8749C152.592 25.4464 152.099 25.8911 151.463 26.2091C150.831 26.523 150.08 26.6799 149.211 26.6799ZM161.009 22.5024V17.2322H163.955V26.5049H161.141V24.7783H161.045C160.84 25.3458 160.489 25.7965 159.994 26.1306C159.503 26.4606 158.91 26.6256 158.214 26.6256C157.582 26.6256 157.026 26.4807 156.547 26.191C156.068 25.9012 155.696 25.4967 155.431 24.9775C155.165 24.4543 155.03 23.8426 155.026 23.1423V17.2322H157.978V22.5628C157.982 23.0658 158.115 23.4623 158.377 23.752C158.638 24.0418 158.994 24.1867 159.445 24.1867C159.739 24.1867 160.002 24.1223 160.236 23.9935C160.473 23.8607 160.661 23.6695 160.797 23.42C160.938 23.1665 161.009 22.8606 161.009 22.5024ZM165.834 26.5049V17.2322H168.641V18.9346H168.743C168.937 18.3711 169.263 17.9264 169.721 17.6004C170.18 17.2744 170.728 17.1114 171.363 17.1114C172.007 17.1114 172.559 17.2764 173.018 17.6064C173.476 17.9365 173.768 18.3792 173.893 18.9346H173.99C174.163 18.3832 174.501 17.9425 175.004 17.6125C175.507 17.2784 176.1 17.1114 176.785 17.1114C177.662 17.1114 178.374 17.3931 178.922 17.9566C179.469 18.516 179.743 19.2847 179.743 20.2627V26.5049H176.791V20.9388C176.791 20.476 176.672 20.1238 176.435 19.8824C176.197 19.6369 175.889 19.5141 175.511 19.5141C175.104 19.5141 174.784 19.6469 174.551 19.9126C174.322 20.1742 174.207 20.5263 174.207 20.969V26.5049H171.37V20.9086C171.37 20.478 171.253 20.1379 171.019 19.8884C170.786 19.6389 170.478 19.5141 170.096 19.5141C169.838 19.5141 169.611 19.5765 169.414 19.7013C169.216 19.822 169.061 19.9951 168.949 20.2204C168.84 20.4458 168.786 20.7114 168.786 21.0173V26.5049H165.834ZM185.906 26.6799C184.937 26.6799 184.099 26.4888 183.395 26.1064C182.695 25.7201 182.156 25.1707 181.777 24.4584C181.403 23.742 181.216 22.8908 181.216 21.9047C181.216 20.9469 181.405 20.1098 181.783 19.3934C182.162 18.673 182.695 18.1135 183.383 17.7151C184.071 17.3126 184.882 17.1114 185.816 17.1114C186.476 17.1114 187.08 17.214 187.627 17.4193C188.174 17.6246 188.647 17.9284 189.046 18.3309C189.444 18.7333 189.754 19.2304 189.975 19.822C190.197 20.4096 190.307 21.0837 190.307 21.8444V22.5809H182.248V20.8664H187.561C187.557 20.5525 187.482 20.2728 187.337 20.0273C187.192 19.7817 186.993 19.5906 186.74 19.4537C186.49 19.3129 186.202 19.2425 185.876 19.2425C185.546 19.2425 185.25 19.3169 184.989 19.4658C184.727 19.6107 184.52 19.8099 184.367 20.0635C184.214 20.313 184.134 20.5967 184.126 20.9147V22.6594C184.126 23.0377 184.2 23.3697 184.349 23.6554C184.498 23.9372 184.709 24.1565 184.983 24.3135C185.256 24.4704 185.582 24.5489 185.961 24.5489C186.222 24.5489 186.46 24.5127 186.673 24.4402C186.886 24.3678 187.07 24.2612 187.223 24.1203C187.375 23.9794 187.49 23.8064 187.567 23.6011L190.277 23.6796C190.165 24.2873 189.917 24.8165 189.535 25.2673C189.156 25.714 188.659 26.0622 188.044 26.3117C187.428 26.5572 186.715 26.6799 185.906 26.6799ZM194.767 21.2165V26.5049H191.815V17.2322H194.622V18.9346H194.725C194.93 18.3671 195.28 17.9224 195.775 17.6004C196.27 17.2744 196.86 17.1114 197.544 17.1114C198.196 17.1114 198.762 17.2583 199.241 17.5521C199.723 17.8419 200.098 18.2484 200.363 18.7716C200.633 19.2907 200.766 19.8985 200.762 20.5947V26.5049H197.81V21.1743C197.814 20.6591 197.683 20.2567 197.417 19.9669C197.156 19.6771 196.792 19.5322 196.325 19.5322C196.015 19.5322 195.741 19.6006 195.504 19.7375C195.27 19.8703 195.089 20.0615 194.96 20.311C194.836 20.5605 194.771 20.8624 194.767 21.2165ZM207.824 17.2322V19.4054H201.974V17.2322H207.824ZM203.199 15.0106H206.151V23.589C206.151 23.7701 206.179 23.917 206.236 24.0297C206.296 24.1384 206.383 24.2169 206.495 24.2652C206.608 24.3094 206.743 24.3316 206.9 24.3316C207.013 24.3316 207.131 24.3215 207.256 24.3014C207.385 24.2773 207.481 24.2571 207.546 24.241L207.993 26.3721C207.852 26.4123 207.652 26.4626 207.395 26.523C207.141 26.5834 206.837 26.6216 206.483 26.6377C205.791 26.6699 205.197 26.5894 204.702 26.3962C204.211 26.199 203.835 25.8931 203.574 25.4786C203.316 25.0641 203.191 24.5429 203.199 23.915V15.0106ZM211.944 26.6618C211.352 26.6618 210.827 26.5632 210.368 26.366C209.913 26.1648 209.553 25.863 209.287 25.4605C209.026 25.054 208.895 24.5449 208.895 23.9331C208.895 23.418 208.986 22.9833 209.167 22.6292C209.348 22.275 209.597 21.9872 209.915 21.7659C210.233 21.5445 210.6 21.3775 211.014 21.2648C211.429 21.1481 211.871 21.0696 212.342 21.0294C212.869 20.9811 213.294 20.9308 213.616 20.8785C213.938 20.8221 214.171 20.7436 214.316 20.643C214.465 20.5384 214.54 20.3915 214.54 20.2023V20.1721C214.54 19.8622 214.433 19.6228 214.22 19.4537C214.006 19.2847 213.719 19.2002 213.356 19.2002C212.966 19.2002 212.652 19.2847 212.415 19.4537C212.177 19.6228 212.026 19.8562 211.962 20.154L209.239 20.0574C209.32 19.494 209.527 18.9909 209.861 18.5482C210.199 18.1015 210.662 17.7513 211.249 17.4978C211.841 17.2402 212.551 17.1114 213.381 17.1114C213.972 17.1114 214.517 17.1818 215.017 17.3227C215.516 17.4595 215.95 17.6608 216.321 17.9264C216.691 18.188 216.977 18.51 217.178 18.8923C217.383 19.2746 217.486 19.7113 217.486 20.2023V26.5049H214.709V25.213H214.636C214.471 25.5269 214.26 25.7925 214.002 26.0098C213.749 26.2272 213.449 26.3902 213.103 26.4988C212.761 26.6075 212.374 26.6618 211.944 26.6618ZM212.855 24.73C213.173 24.73 213.459 24.6656 213.713 24.5368C213.97 24.4081 214.175 24.231 214.328 24.0056C214.481 23.7762 214.558 23.5106 214.558 23.2087V22.3273C214.473 22.3716 214.371 22.4118 214.25 22.4481C214.133 22.4843 214.004 22.5185 213.863 22.5507C213.723 22.5829 213.578 22.6111 213.429 22.6352C213.28 22.6594 213.137 22.6815 213 22.7016C212.722 22.7459 212.485 22.8143 212.288 22.9069C212.095 22.9994 211.946 23.1202 211.841 23.2691C211.74 23.414 211.69 23.587 211.69 23.7883C211.69 24.0941 211.799 24.3276 212.016 24.4885C212.238 24.6495 212.517 24.73 212.855 24.73ZM224.525 17.2322V19.4054H218.675V17.2322H224.525ZM219.9 15.0106H222.852V23.589C222.852 23.7701 222.881 23.917 222.937 24.0297C222.997 24.1384 223.084 24.2169 223.197 24.2652C223.309 24.3094 223.444 24.3316 223.601 24.3316C223.714 24.3316 223.832 24.3215 223.957 24.3014C224.086 24.2773 224.183 24.2571 224.247 24.241L224.694 26.3721C224.553 26.4123 224.354 26.4626 224.096 26.523C223.843 26.5834 223.539 26.6216 223.184 26.6377C222.492 26.6699 221.899 26.5894 221.404 26.3962C220.913 26.199 220.536 25.8931 220.275 25.4786C220.017 25.0641 219.892 24.5429 219.9 23.915V15.0106ZM226.031 26.5049V17.2322H228.983V26.5049H226.031ZM227.51 16.1515C227.095 16.1515 226.739 16.0147 226.441 15.741C226.144 15.4633 225.995 15.1293 225.995 14.7389C225.995 14.3525 226.144 14.0225 226.441 13.7488C226.739 13.4711 227.095 13.3323 227.51 13.3323C227.929 13.3323 228.285 13.4711 228.578 13.7488C228.876 14.0225 229.025 14.3525 229.025 14.7389C229.025 15.1293 228.876 15.4633 228.578 15.741C228.285 16.0147 227.929 16.1515 227.51 16.1515ZM235.19 26.6799C234.216 26.6799 233.379 26.4807 232.679 26.0823C231.983 25.6798 231.446 25.1204 231.067 24.404C230.693 23.6836 230.506 22.8485 230.506 21.8987C230.506 20.9449 230.693 20.1098 231.067 19.3934C231.446 18.673 231.983 18.1135 232.679 17.7151C233.379 17.3126 234.216 17.1114 235.19 17.1114C236.164 17.1114 237 17.3126 237.696 17.7151C238.396 18.1135 238.933 18.673 239.308 19.3934C239.686 20.1098 239.875 20.9449 239.875 21.8987C239.875 22.8485 239.686 23.6836 239.308 24.404C238.933 25.1204 238.396 25.6798 237.696 26.0823C237 26.4807 236.164 26.6799 235.19 26.6799ZM235.209 24.4523C235.563 24.4523 235.863 24.3437 236.108 24.1263C236.354 23.909 236.541 23.6072 236.669 23.2208C236.802 22.8344 236.869 22.3877 236.869 21.8806C236.869 21.3654 236.802 20.9147 236.669 20.5283C236.541 20.142 236.354 19.8401 236.108 19.6228C235.863 19.4054 235.563 19.2968 235.209 19.2968C234.842 19.2968 234.532 19.4054 234.279 19.6228C234.029 19.8401 233.838 20.142 233.705 20.5283C233.577 20.9147 233.512 21.3654 233.512 21.8806C233.512 22.3877 233.577 22.8344 233.705 23.2208C233.838 23.6072 234.029 23.909 234.279 24.1263C234.532 24.3437 234.842 24.4523 235.209 24.4523ZM244.339 21.2165V26.5049H241.387V17.2322H244.195V18.9346H244.297C244.502 18.3671 244.853 17.9224 245.348 17.6004C245.843 17.2744 246.432 17.1114 247.116 17.1114C247.768 17.1114 248.334 17.2583 248.813 17.5521C249.296 17.8419 249.67 18.2484 249.936 18.7716C250.205 19.2907 250.338 19.8985 250.334 20.5947V26.5049H247.382V21.1743C247.386 20.6591 247.255 20.2567 246.99 19.9669C246.728 19.6771 246.364 19.5322 245.897 19.5322C245.587 19.5322 245.313 19.6006 245.076 19.7375C244.842 19.8703 244.661 20.0615 244.533 20.311C244.408 20.5605 244.343 20.8624 244.339 21.2165Z" fill="#E8E8E8"/>
</g>
<rect x="1.07338" y="1.07561" width="257.858" height="37.8585" rx="6.92857" stroke="white" stroke-opacity="0.15" stroke-width="2.14286"/>
<defs>
<filter id="filter0_d_28_2409" x="2.40167" y="0.403901" width="39.202" height="39.202" filterUnits="userSpaceOnUse" color-interpolation-filters="sRGB">
<feFlood flood-opacity="0" result="BackgroundImageFix"/>
<feColorMatrix in="SourceAlpha" type="matrix" values="0 0 0 0 0 0 0 0 0 0 0 0 0 0 0 0 0 0 127 0" result="hardAlpha"/>
<feOffset/>
<feGaussianBlur stdDeviation="2.80014"/>
<feComposite in2="hardAlpha" operator="out"/>
<feColorMatrix type="matrix" values="0 0 0 0 0 0 0 0 0 0 0 0 0 0 0 0 0 0 0.25 0"/>
<feBlend mode="normal" in2="BackgroundImageFix" result="effect1_dropShadow_28_2409"/>
<feBlend mode="normal" in="SourceGraphic" in2="effect1_dropShadow_28_2409" result="shape"/>
</filter>
<filter id="filter1_d_28_2409" x="38.2891" y="3.7906" width="219.429" height="32.4286" filterUnits="userSpaceOnUse" color-interpolation-filters="sRGB">
<feFlood flood-opacity="0" result="BackgroundImageFix"/>
<feColorMatrix in="SourceAlpha" type="matrix" values="0 0 0 0 0 0 0 0 0 0 0 0 0 0 0 0 0 0 127 0" result="hardAlpha"/>
<feOffset/>
<feGaussianBlur stdDeviation="2.85714"/>
<feComposite in2="hardAlpha" operator="out"/>
<feColorMatrix type="matrix" values="0 0 0 0 0 0 0 0 0 0 0 0 0 0 0 0 0 0 0.25 0"/>
<feBlend mode="normal" in2="BackgroundImageFix" result="effect1_dropShadow_28_2409"/>
<feBlend mode="normal" in="SourceGraphic" in2="effect1_dropShadow_28_2409" result="shape"/>
</filter>
<linearGradient id="paint0_linear_28_2409" x1="130.003" y1="0.00418091" x2="130.003" y2="40.0056" gradientUnits="userSpaceOnUse">
<stop stop-color="#1B2330"/>
<stop offset="1" stop-color="#10151D"/>
</linearGradient>
</defs>
</svg>
