<svg width="261" height="41" viewBox="0 0 261 41" fill="none" xmlns="http://www.w3.org/2000/svg">
<rect x="0.00195312" y="0.00279236" width="260.001" height="40.0014" rx="8" fill="url(#paint0_linear_28_2402)"/>
<g filter="url(#filter0_d_28_2402)">
<path d="M20.6058 26.6723C21.0432 26.6723 21.4369 27.0185 21.4369 27.4944C21.4369 27.9271 21.0869 28.3165 20.6058 28.3165C20.1683 28.3165 19.7746 27.9704 19.7746 27.4944C19.7746 27.0185 20.1683 26.6723 20.6058 26.6723ZM33.4663 21.6531C33.0288 21.6531 32.6351 21.307 32.6351 20.831C32.6351 20.3983 32.9851 20.0089 33.4663 20.0089C33.9037 20.0089 34.2974 20.355 34.2974 20.831C34.2974 21.2637 33.9037 21.6531 33.4663 21.6531ZM33.4663 18.3214C32.0665 18.3214 30.9292 19.4464 30.9292 20.831C30.9292 21.0906 30.9729 21.3502 31.0604 21.6098L22.7054 26.0233C22.2243 25.331 21.4369 24.9415 20.6058 24.9415C19.6434 24.9415 18.7685 25.504 18.3311 26.3261L10.8073 22.4319C10.0199 21.9993 9.40749 20.7445 9.49498 19.5329C9.53872 18.9272 9.75744 18.4512 10.0636 18.2781C10.2824 18.1483 10.5011 18.1916 10.8073 18.3214L10.851 18.3647C12.8632 19.4031 19.3809 22.7781 19.6434 22.9079C20.0808 23.081 20.2996 23.1675 21.0432 22.8214L34.5161 15.8983C34.7348 15.8118 34.9535 15.6387 34.9535 15.3358C34.9535 14.9464 34.5598 14.7733 34.5598 14.7733C33.7725 14.4272 32.5914 13.8647 31.4541 13.3455C29.0044 12.2205 26.2049 10.9224 24.9801 10.2734C23.9302 9.71087 23.0554 10.1868 22.9241 10.2734L22.6179 10.4032C17.0626 13.1724 9.7137 16.7637 9.27626 17.0233C8.53263 17.456 8.05145 18.3647 8.00771 19.4897C7.92022 21.2637 8.83883 23.1242 10.1511 23.7733L18.1124 27.8406C18.2874 29.0521 19.3809 30.004 20.6058 30.004C22.0055 30.004 23.0991 28.9223 23.1429 27.5377L31.8915 22.8646C32.3289 23.2108 32.8976 23.3839 33.4663 23.3839C34.866 23.3839 36.0034 22.2589 36.0034 20.8743C36.0034 19.4464 34.866 18.3214 33.4663 18.3214" fill="#4285FD"/>
</g>
<g filter="url(#filter1_d_28_2402)">
<path d="M45.3617 26.5035V14.1399H49.7687C50.7265 14.1399 51.5214 14.3049 52.1533 14.6349C52.7892 14.9649 53.2641 15.4217 53.578 16.0053C53.8919 16.5848 54.0489 17.2549 54.0489 18.0156C54.0489 18.7722 53.8899 19.4383 53.572 20.0138C53.258 20.5853 52.7831 21.03 52.1472 21.348C51.5154 21.6659 50.7205 21.8249 49.7626 21.8249H46.4242V20.219H49.5936C50.1973 20.219 50.6883 20.1325 51.0666 19.9595C51.449 19.7864 51.7287 19.5349 51.9058 19.2048C52.0828 18.8748 52.1714 18.4784 52.1714 18.0156C52.1714 17.5487 52.0808 17.1442 51.8997 16.8021C51.7226 16.46 51.4429 16.1984 51.0606 16.0173C50.6823 15.8322 50.1852 15.7396 49.5695 15.7396H47.2271V26.5035H45.3617ZM51.4651 20.9254L54.5198 26.5035H52.3948L49.4004 20.9254H51.4651ZM60.0541 26.6906C59.1405 26.6906 58.3537 26.4954 57.6937 26.1051C57.0377 25.7106 56.5306 25.1573 56.1724 24.4449C55.8182 23.7285 55.6411 22.8894 55.6411 21.9275C55.6411 20.9777 55.8182 20.1406 56.1724 19.4161C56.5306 18.6917 57.0296 18.1262 57.6695 17.7198C58.3135 17.3133 59.0661 17.11 59.9273 17.11C60.4505 17.11 60.9576 17.1966 61.4486 17.3696C61.9396 17.5427 62.3803 17.8143 62.7707 18.1846C63.1611 18.5549 63.469 19.0358 63.6944 19.6274C63.9198 20.215 64.0324 20.9294 64.0324 21.7705V22.4105H56.6614V21.0582H62.2636C62.2636 20.5833 62.167 20.1627 61.9738 19.7965C61.7807 19.4262 61.509 19.1344 61.1589 18.9211C60.8127 18.7078 60.4063 18.6011 59.9394 18.6011C59.4323 18.6011 58.9896 18.7259 58.6113 18.9754C58.237 19.2209 57.9472 19.5429 57.742 19.9413C57.5407 20.3358 57.4401 20.7644 57.4401 21.2272V22.2837C57.4401 22.9035 57.5488 23.4307 57.7661 23.8654C57.9875 24.3 58.2953 24.632 58.6898 24.8614C59.0842 25.0868 59.545 25.1995 60.0722 25.1995C60.4143 25.1995 60.7262 25.1512 61.0079 25.0546C61.2897 24.954 61.5332 24.8051 61.7384 24.6079C61.9437 24.4107 62.1006 24.1672 62.2093 23.8774L63.9177 24.1853C63.7809 24.6884 63.5354 25.1291 63.1812 25.5074C62.8311 25.8817 62.3904 26.1735 61.8591 26.3828C61.3319 26.588 60.7302 26.6906 60.0541 26.6906ZM68.7337 26.7087C68.1461 26.7087 67.6149 26.6001 67.14 26.3828C66.665 26.1614 66.2887 25.8414 66.011 25.4229C65.7374 25.0043 65.6005 24.4912 65.6005 23.8835C65.6005 23.3603 65.7012 22.9296 65.9024 22.5916C66.1036 22.2535 66.3753 21.9859 66.7174 21.7886C67.0595 21.5914 67.4418 21.4425 67.8644 21.3419C68.287 21.2413 68.7176 21.1648 69.1563 21.1125C69.7117 21.0481 70.1624 20.9958 70.5086 20.9556C70.8547 20.9113 71.1062 20.8408 71.2632 20.7443C71.4201 20.6477 71.4986 20.4907 71.4986 20.2734V20.2311C71.4986 19.7039 71.3497 19.2954 71.0519 19.0056C70.7581 18.7158 70.3194 18.571 69.7358 18.571C69.1281 18.571 68.6492 18.7058 68.299 18.9754C67.9529 19.2411 67.7135 19.5369 67.5806 19.8629L65.8843 19.4765C66.0855 18.9131 66.3793 18.4583 66.7657 18.1122C67.1561 17.762 67.6048 17.5085 68.1119 17.3515C68.619 17.1905 69.1523 17.11 69.7117 17.11C70.0819 17.11 70.4744 17.1543 70.8889 17.2428C71.3074 17.3274 71.6978 17.4843 72.0601 17.7137C72.4263 17.9431 72.7261 18.2711 72.9596 18.6977C73.193 19.1203 73.3097 19.6697 73.3097 20.3458V26.5035H71.5469V25.2357H71.4745C71.3578 25.4692 71.1827 25.6986 70.9493 25.9239C70.7158 26.1493 70.416 26.3365 70.0498 26.4854C69.6835 26.6343 69.2448 26.7087 68.7337 26.7087ZM69.1261 25.2599C69.6252 25.2599 70.0518 25.1613 70.4059 24.9641C70.7641 24.7669 71.0358 24.5093 71.2209 24.1913C71.4101 23.8694 71.5047 23.5253 71.5047 23.159V21.9637C71.4403 22.0281 71.3155 22.0885 71.1304 22.1448C70.9493 22.1971 70.742 22.2434 70.5086 22.2837C70.2751 22.3199 70.0477 22.3541 69.8264 22.3863C69.605 22.4145 69.4199 22.4386 69.271 22.4587C68.9208 22.503 68.6009 22.5775 68.3111 22.6821C68.0254 22.7868 67.796 22.9377 67.6229 23.1349C67.4539 23.3281 67.3694 23.5856 67.3694 23.9076C67.3694 24.3543 67.5344 24.6924 67.8644 24.9218C68.1944 25.1472 68.615 25.2599 69.1261 25.2599ZM79.1851 26.6846C78.4366 26.6846 77.7685 26.4934 77.1809 26.1111C76.5973 25.7247 76.1385 25.1754 75.8045 24.463C75.4744 23.7466 75.3094 22.8874 75.3094 21.8852C75.3094 20.8831 75.4764 20.0259 75.8105 19.3135C76.1486 18.6011 76.6114 18.0558 77.199 17.6775C77.7866 17.2992 78.4527 17.11 79.1972 17.11C79.7727 17.11 80.2356 17.2066 80.5857 17.3998C80.9399 17.589 81.2135 17.8103 81.4067 18.0639C81.6039 18.3174 81.7569 18.5408 81.8655 18.734H81.9742V14.1399H83.7792V26.5035H82.0165V25.0607H81.8655C81.7569 25.2579 81.5999 25.4832 81.3947 25.7368C81.1934 25.9904 80.9157 26.2117 80.5616 26.4009C80.2074 26.59 79.7486 26.6846 79.1851 26.6846ZM79.5836 25.1452C80.1028 25.1452 80.5414 25.0083 80.8996 24.7347C81.2618 24.457 81.5355 24.0726 81.7206 23.5816C81.9098 23.0906 82.0044 22.5191 82.0044 21.8671C82.0044 21.2232 81.9118 20.6597 81.7267 20.1768C81.5416 19.6938 81.2699 19.3175 80.9117 19.0479C80.5535 18.7782 80.1108 18.6434 79.5836 18.6434C79.0403 18.6434 78.5875 18.7843 78.2253 19.066C77.863 19.3477 77.5894 19.7321 77.4042 20.219C77.2231 20.706 77.1326 21.2554 77.1326 21.8671C77.1326 22.4869 77.2251 23.0443 77.4103 23.5394C77.5954 24.0344 77.8691 24.4268 78.2313 24.7166C78.5975 25.0023 79.0483 25.1452 79.5836 25.1452ZM95.183 17.2308V18.6796H90.118V17.2308H95.183ZM91.4763 15.0092H93.2814V23.7808C93.2814 24.131 93.3337 24.3946 93.4383 24.5717C93.543 24.7447 93.6778 24.8635 93.8428 24.9279C94.0118 24.9882 94.195 25.0184 94.3922 25.0184C94.5371 25.0184 94.6638 25.0083 94.7725 24.9882C94.8812 24.9681 94.9657 24.952 95.026 24.9399L95.352 26.431C95.2474 26.4713 95.0985 26.5115 94.9053 26.5518C94.7121 26.5961 94.4706 26.6202 94.1809 26.6242C93.706 26.6323 93.2633 26.5478 92.8527 26.3707C92.4422 26.1936 92.1102 25.9199 91.8567 25.5497C91.6031 25.1794 91.4763 24.7145 91.4763 24.1551V15.0092ZM99.184 20.9978V26.5035H97.3789V14.1399H99.1598V18.74H99.2745C99.4919 18.2409 99.8239 17.8445 100.271 17.5507C100.717 17.2569 101.301 17.11 102.021 17.11C102.657 17.11 103.213 17.2408 103.688 17.5024C104.166 17.764 104.537 18.1544 104.798 18.6736C105.064 19.1887 105.197 19.8327 105.197 20.6054V26.5035H103.392V20.8227C103.392 20.1426 103.217 19.6154 102.867 19.2411C102.516 18.8627 102.029 18.6736 101.406 18.6736C100.979 18.6736 100.597 18.7641 100.259 18.9453C99.9245 19.1264 99.6609 19.392 99.4677 19.7421C99.2786 20.0882 99.184 20.5068 99.184 20.9978ZM111.602 26.6906C110.688 26.6906 109.902 26.4954 109.242 26.1051C108.585 25.7106 108.078 25.1573 107.72 24.4449C107.366 23.7285 107.189 22.8894 107.189 21.9275C107.189 20.9777 107.366 20.1406 107.72 19.4161C108.078 18.6917 108.577 18.1262 109.217 17.7198C109.861 17.3133 110.614 17.11 111.475 17.11C111.998 17.11 112.505 17.1966 112.996 17.3696C113.487 17.5427 113.928 17.8143 114.319 18.1846C114.709 18.5549 115.017 19.0358 115.242 19.6274C115.468 20.215 115.58 20.9294 115.58 21.7705V22.4105H108.209V21.0582H113.811C113.811 20.5833 113.715 20.1627 113.522 19.7965C113.329 19.4262 113.057 19.1344 112.707 18.9211C112.361 18.7078 111.954 18.6011 111.487 18.6011C110.98 18.6011 110.537 18.7259 110.159 18.9754C109.785 19.2209 109.495 19.5429 109.29 19.9413C109.089 20.3358 108.988 20.7644 108.988 21.2272V22.2837C108.988 22.9035 109.097 23.4307 109.314 23.8654C109.535 24.3 109.843 24.632 110.238 24.8614C110.632 25.0868 111.093 25.1995 111.62 25.1995C111.962 25.1995 112.274 25.1512 112.556 25.0546C112.838 24.954 113.081 24.8051 113.286 24.6079C113.492 24.4107 113.648 24.1672 113.757 23.8774L115.466 24.1853C115.329 24.6884 115.083 25.1291 114.729 25.5074C114.379 25.8817 113.938 26.1735 113.407 26.3828C112.88 26.588 112.278 26.6906 111.602 26.6906Z" fill="#E8E8E8"/>
<path d="M126.509 26.5035H121.939V14.1399H126.503C127.763 14.1399 128.847 14.3874 129.757 14.8824C130.671 15.3734 131.375 16.0817 131.87 17.0074C132.365 17.929 132.612 19.0318 132.612 20.3156C132.612 21.6035 132.365 22.7103 131.87 23.6359C131.379 24.5616 130.677 25.272 129.763 25.767C128.849 26.258 127.765 26.5035 126.509 26.5035ZM124.927 23.9559H126.394C127.087 23.9559 127.672 23.8392 128.151 23.6058C128.634 23.3683 128.998 22.984 129.244 22.4527C129.493 21.9174 129.618 21.2051 129.618 20.3156C129.618 19.4262 129.493 18.7179 129.244 18.1906C128.994 17.6594 128.626 17.277 128.139 17.0436C127.656 16.8062 127.06 16.6874 126.352 16.6874H124.927V23.9559ZM138.686 26.6786C137.712 26.6786 136.875 26.4793 136.174 26.0809C135.478 25.6784 134.941 25.119 134.562 24.4026C134.188 23.6822 134.001 22.8471 134.001 21.8973C134.001 20.9435 134.188 20.1084 134.562 19.392C134.941 18.6716 135.478 18.1122 136.174 17.7137C136.875 17.3113 137.712 17.11 138.686 17.11C139.66 17.11 140.495 17.3113 141.191 17.7137C141.891 18.1122 142.428 18.6716 142.803 19.392C143.181 20.1084 143.37 20.9435 143.37 21.8973C143.37 22.8471 143.181 23.6822 142.803 24.4026C142.428 25.119 141.891 25.6784 141.191 26.0809C140.495 26.4793 139.66 26.6786 138.686 26.6786ZM138.704 24.4509C139.058 24.4509 139.358 24.3423 139.603 24.1249C139.849 23.9076 140.036 23.6058 140.165 23.2194C140.297 22.833 140.364 22.3863 140.364 21.8792C140.364 21.364 140.297 20.9133 140.165 20.5269C140.036 20.1406 139.849 19.8387 139.603 19.6214C139.358 19.4041 139.058 19.2954 138.704 19.2954C138.337 19.2954 138.028 19.4041 137.774 19.6214C137.524 19.8387 137.333 20.1406 137.201 20.5269C137.072 20.9133 137.007 21.364 137.007 21.8792C137.007 22.3863 137.072 22.833 137.201 23.2194C137.333 23.6058 137.524 23.9076 137.774 24.1249C138.028 24.3423 138.337 24.4509 138.704 24.4509ZM149.211 26.6786C148.233 26.6786 147.394 26.4773 146.694 26.0749C145.997 25.6724 145.462 25.113 145.088 24.3966C144.713 23.6762 144.526 22.8431 144.526 21.8973C144.526 20.9475 144.713 20.1144 145.088 19.398C145.466 18.6776 146.003 18.1162 146.7 17.7137C147.4 17.3113 148.235 17.11 149.205 17.11C150.062 17.11 150.809 17.265 151.445 17.5749C152.085 17.8848 152.584 18.3234 152.942 18.8909C153.304 19.4544 153.495 20.1164 153.515 20.8771H150.756C150.7 20.4022 150.539 20.0299 150.273 19.7602C150.012 19.4906 149.67 19.3558 149.247 19.3558C148.905 19.3558 148.605 19.4524 148.348 19.6455C148.09 19.8347 147.889 20.1164 147.744 20.4907C147.603 20.861 147.533 21.3198 147.533 21.8671C147.533 22.4145 147.603 22.8773 147.744 23.2556C147.889 23.6299 148.09 23.9136 148.348 24.1068C148.605 24.296 148.905 24.3906 149.247 24.3906C149.521 24.3906 149.762 24.3322 149.972 24.2155C150.185 24.0988 150.36 23.9277 150.497 23.7024C150.634 23.473 150.72 23.1953 150.756 22.8693H153.515C153.487 23.6339 153.296 24.302 152.942 24.8735C152.592 25.445 152.099 25.8897 151.463 26.2077C150.831 26.5216 150.08 26.6786 149.211 26.6786ZM161.009 22.501V17.2308H163.955V26.5035H161.141V24.7769H161.045C160.84 25.3444 160.489 25.7952 159.994 26.1292C159.503 26.4592 158.91 26.6242 158.214 26.6242C157.582 26.6242 157.026 26.4793 156.547 26.1896C156.068 25.8998 155.696 25.4953 155.431 24.9761C155.165 24.4529 155.03 23.8412 155.026 23.1409V17.2308H157.978V22.5614C157.982 23.0645 158.115 23.4609 158.377 23.7506C158.638 24.0404 158.994 24.1853 159.445 24.1853C159.739 24.1853 160.002 24.1209 160.236 23.9921C160.473 23.8593 160.661 23.6681 160.797 23.4186C160.938 23.1651 161.009 22.8592 161.009 22.501ZM165.834 26.5035V17.2308H168.641V18.9332H168.743C168.937 18.3697 169.263 17.925 169.721 17.599C170.18 17.273 170.728 17.11 171.363 17.11C172.007 17.11 172.559 17.275 173.018 17.6051C173.476 17.9351 173.768 18.3778 173.893 18.9332H173.99C174.163 18.3818 174.501 17.9411 175.004 17.6111C175.507 17.277 176.1 17.11 176.785 17.11C177.662 17.11 178.374 17.3917 178.922 17.9552C179.469 18.5146 179.743 19.2833 179.743 20.2613V26.5035H176.791V20.9374C176.791 20.4746 176.672 20.1225 176.435 19.881C176.197 19.6355 175.889 19.5127 175.511 19.5127C175.104 19.5127 174.784 19.6455 174.551 19.9112C174.322 20.1728 174.207 20.5249 174.207 20.9676V26.5035H171.37V20.9073C171.37 20.4766 171.253 20.1365 171.019 19.887C170.786 19.6375 170.478 19.5127 170.096 19.5127C169.838 19.5127 169.611 19.5751 169.414 19.6999C169.216 19.8206 169.061 19.9937 168.949 20.219C168.84 20.4444 168.786 20.71 168.786 21.0159V26.5035H165.834ZM185.906 26.6786C184.937 26.6786 184.099 26.4874 183.395 26.1051C182.695 25.7187 182.156 25.1693 181.777 24.457C181.403 23.7406 181.216 22.8894 181.216 21.9033C181.216 20.9455 181.405 20.1084 181.783 19.392C182.162 18.6716 182.695 18.1122 183.383 17.7137C184.071 17.3113 184.882 17.11 185.816 17.11C186.476 17.11 187.08 17.2127 187.627 17.4179C188.174 17.6232 188.647 17.927 189.046 18.3295C189.444 18.7319 189.754 19.229 189.975 19.8206C190.197 20.4082 190.307 21.0823 190.307 21.843V22.5795H182.248V20.865H187.561C187.557 20.5511 187.482 20.2714 187.337 20.0259C187.192 19.7804 186.993 19.5892 186.74 19.4524C186.49 19.3115 186.202 19.2411 185.876 19.2411C185.546 19.2411 185.25 19.3155 184.989 19.4644C184.727 19.6093 184.52 19.8085 184.367 20.0621C184.214 20.3116 184.134 20.5953 184.126 20.9133V22.658C184.126 23.0363 184.2 23.3683 184.349 23.6541C184.498 23.9358 184.709 24.1551 184.983 24.3121C185.256 24.469 185.582 24.5475 185.961 24.5475C186.222 24.5475 186.46 24.5113 186.673 24.4389C186.886 24.3664 187.07 24.2598 187.223 24.1189C187.375 23.978 187.49 23.805 187.567 23.5997L190.277 23.6782C190.165 24.2859 189.917 24.8152 189.535 25.2659C189.156 25.7127 188.659 26.0608 188.044 26.3103C187.428 26.5558 186.715 26.6786 185.906 26.6786ZM194.767 21.2151V26.5035H191.815V17.2308H194.622V18.9332H194.725C194.93 18.3657 195.28 17.921 195.775 17.599C196.27 17.273 196.86 17.11 197.544 17.11C198.196 17.11 198.762 17.2569 199.241 17.5507C199.723 17.8405 200.098 18.247 200.363 18.7702C200.633 19.2894 200.766 19.8971 200.762 20.5933V26.5035H197.81V21.1729C197.814 20.6577 197.683 20.2553 197.417 19.9655C197.156 19.6757 196.792 19.5308 196.325 19.5308C196.015 19.5308 195.741 19.5993 195.504 19.7361C195.27 19.8689 195.089 20.0601 194.96 20.3096C194.836 20.5591 194.771 20.861 194.767 21.2151ZM207.824 17.2308V19.4041H201.974V17.2308H207.824ZM203.199 15.0092H206.151V23.5877C206.151 23.7688 206.179 23.9157 206.236 24.0283C206.296 24.137 206.383 24.2155 206.495 24.2638C206.608 24.3081 206.743 24.3302 206.9 24.3302C207.013 24.3302 207.131 24.3201 207.256 24.3C207.385 24.2759 207.481 24.2557 207.546 24.2396L207.993 26.3707C207.852 26.4109 207.652 26.4612 207.395 26.5216C207.141 26.582 206.837 26.6202 206.483 26.6363C205.791 26.6685 205.197 26.588 204.702 26.3948C204.211 26.1976 203.835 25.8917 203.574 25.4772C203.316 25.0627 203.191 24.5415 203.199 23.9136V15.0092ZM211.944 26.6604C211.352 26.6604 210.827 26.5618 210.368 26.3646C209.913 26.1634 209.553 25.8616 209.287 25.4591C209.026 25.0526 208.895 24.5435 208.895 23.9318C208.895 23.4166 208.986 22.9819 209.167 22.6278C209.348 22.2736 209.597 21.9859 209.915 21.7645C210.233 21.5431 210.6 21.3761 211.014 21.2634C211.429 21.1467 211.871 21.0682 212.342 21.028C212.869 20.9797 213.294 20.9294 213.616 20.8771C213.938 20.8207 214.171 20.7422 214.316 20.6416C214.465 20.537 214.54 20.3901 214.54 20.2009V20.1707C214.54 19.8609 214.433 19.6214 214.22 19.4524C214.006 19.2833 213.719 19.1988 213.356 19.1988C212.966 19.1988 212.652 19.2833 212.415 19.4524C212.177 19.6214 212.026 19.8548 211.962 20.1526L209.239 20.056C209.32 19.4926 209.527 18.9895 209.861 18.5468C210.199 18.1001 210.662 17.7499 211.249 17.4964C211.841 17.2388 212.551 17.11 213.381 17.11C213.972 17.11 214.517 17.1805 215.017 17.3213C215.516 17.4582 215.95 17.6594 216.321 17.925C216.691 18.1866 216.977 18.5086 217.178 18.8909C217.383 19.2733 217.486 19.7099 217.486 20.2009V26.5035H214.709V25.2116H214.636C214.471 25.5255 214.26 25.7911 214.002 26.0085C213.749 26.2258 213.449 26.3888 213.103 26.4975C212.761 26.6061 212.374 26.6604 211.944 26.6604ZM212.855 24.7286C213.173 24.7286 213.459 24.6642 213.713 24.5354C213.97 24.4067 214.175 24.2296 214.328 24.0042C214.481 23.7748 214.558 23.5092 214.558 23.2073V22.3259C214.473 22.3702 214.371 22.4105 214.25 22.4467C214.133 22.4829 214.004 22.5171 213.863 22.5493C213.723 22.5815 213.578 22.6097 213.429 22.6338C213.28 22.658 213.137 22.6801 213 22.7002C212.722 22.7445 212.485 22.8129 212.288 22.9055C212.095 22.998 211.946 23.1188 211.841 23.2677C211.74 23.4126 211.69 23.5856 211.69 23.7869C211.69 24.0927 211.799 24.3262 212.016 24.4872C212.238 24.6481 212.517 24.7286 212.855 24.7286ZM224.525 17.2308V19.4041H218.675V17.2308H224.525ZM219.9 15.0092H222.852V23.5877C222.852 23.7688 222.881 23.9157 222.937 24.0283C222.997 24.137 223.084 24.2155 223.197 24.2638C223.309 24.3081 223.444 24.3302 223.601 24.3302C223.714 24.3302 223.832 24.3201 223.957 24.3C224.086 24.2759 224.183 24.2557 224.247 24.2396L224.694 26.3707C224.553 26.4109 224.354 26.4612 224.096 26.5216C223.843 26.582 223.539 26.6202 223.184 26.6363C222.492 26.6685 221.899 26.588 221.404 26.3948C220.913 26.1976 220.536 25.8917 220.275 25.4772C220.017 25.0627 219.892 24.5415 219.9 23.9136V15.0092ZM226.031 26.5035V17.2308H228.983V26.5035H226.031ZM227.51 16.1502C227.095 16.1502 226.739 16.0133 226.441 15.7396C226.144 15.4619 225.995 15.1279 225.995 14.7375C225.995 14.3511 226.144 14.0211 226.441 13.7475C226.739 13.4698 227.095 13.3309 227.51 13.3309C227.929 13.3309 228.285 13.4698 228.578 13.7475C228.876 14.0211 229.025 14.3511 229.025 14.7375C229.025 15.1279 228.876 15.4619 228.578 15.7396C228.285 16.0133 227.929 16.1502 227.51 16.1502ZM235.19 26.6786C234.216 26.6786 233.379 26.4793 232.679 26.0809C231.983 25.6784 231.446 25.119 231.067 24.4026C230.693 23.6822 230.506 22.8471 230.506 21.8973C230.506 20.9435 230.693 20.1084 231.067 19.392C231.446 18.6716 231.983 18.1122 232.679 17.7137C233.379 17.3113 234.216 17.11 235.19 17.11C236.164 17.11 237 17.3113 237.696 17.7137C238.396 18.1122 238.933 18.6716 239.308 19.392C239.686 20.1084 239.875 20.9435 239.875 21.8973C239.875 22.8471 239.686 23.6822 239.308 24.4026C238.933 25.119 238.396 25.6784 237.696 26.0809C237 26.4793 236.164 26.6786 235.19 26.6786ZM235.209 24.4509C235.563 24.4509 235.863 24.3423 236.108 24.1249C236.354 23.9076 236.541 23.6058 236.669 23.2194C236.802 22.833 236.869 22.3863 236.869 21.8792C236.869 21.364 236.802 20.9133 236.669 20.5269C236.541 20.1406 236.354 19.8387 236.108 19.6214C235.863 19.4041 235.563 19.2954 235.209 19.2954C234.842 19.2954 234.532 19.4041 234.279 19.6214C234.029 19.8387 233.838 20.1406 233.705 20.5269C233.577 20.9133 233.512 21.364 233.512 21.8792C233.512 22.3863 233.577 22.833 233.705 23.2194C233.838 23.6058 234.029 23.9076 234.279 24.1249C234.532 24.3423 234.842 24.4509 235.209 24.4509ZM244.339 21.2151V26.5035H241.387V17.2308H244.195V18.9332H244.297C244.502 18.3657 244.853 17.921 245.348 17.599C245.843 17.273 246.432 17.11 247.116 17.11C247.768 17.11 248.334 17.2569 248.813 17.5507C249.296 17.8405 249.67 18.247 249.936 18.7702C250.205 19.2894 250.338 19.8971 250.334 20.5933V26.5035H247.382V21.1729C247.386 20.6577 247.255 20.2553 246.99 19.9655C246.728 19.6757 246.364 19.5308 245.897 19.5308C245.587 19.5308 245.313 19.5993 245.076 19.7361C244.842 19.8689 244.661 20.0601 244.533 20.3096C244.408 20.5591 244.343 20.861 244.339 21.2151Z" fill="#4285FD"/>
</g>
<rect x="1.07338" y="1.07422" width="257.858" height="37.8585" rx="6.92857" stroke="white" stroke-opacity="0.15" stroke-width="2.14286"/>
<defs>
<filter id="filter0_d_28_2402" x="2.40167" y="0.402512" width="39.202" height="39.202" filterUnits="userSpaceOnUse" color-interpolation-filters="sRGB">
<feFlood flood-opacity="0" result="BackgroundImageFix"/>
<feColorMatrix in="SourceAlpha" type="matrix" values="0 0 0 0 0 0 0 0 0 0 0 0 0 0 0 0 0 0 127 0" result="hardAlpha"/>
<feOffset/>
<feGaussianBlur stdDeviation="2.80014"/>
<feComposite in2="hardAlpha" operator="out"/>
<feColorMatrix type="matrix" values="0 0 0 0 0 0 0 0 0 0 0 0 0 0 0 0 0 0 0.25 0"/>
<feBlend mode="normal" in2="BackgroundImageFix" result="effect1_dropShadow_28_2402"/>
<feBlend mode="normal" in="SourceGraphic" in2="effect1_dropShadow_28_2402" result="shape"/>
</filter>
<filter id="filter1_d_28_2402" x="38.2891" y="3.78921" width="219.429" height="32.4286" filterUnits="userSpaceOnUse" color-interpolation-filters="sRGB">
<feFlood flood-opacity="0" result="BackgroundImageFix"/>
<feColorMatrix in="SourceAlpha" type="matrix" values="0 0 0 0 0 0 0 0 0 0 0 0 0 0 0 0 0 0 127 0" result="hardAlpha"/>
<feOffset/>
<feGaussianBlur stdDeviation="2.85714"/>
<feComposite in2="hardAlpha" operator="out"/>
<feColorMatrix type="matrix" values="0 0 0 0 0 0 0 0 0 0 0 0 0 0 0 0 0 0 0.25 0"/>
<feBlend mode="normal" in2="BackgroundImageFix" result="effect1_dropShadow_28_2402"/>
<feBlend mode="normal" in="SourceGraphic" in2="effect1_dropShadow_28_2402" result="shape"/>
</filter>
<linearGradient id="paint0_linear_28_2402" x1="130.003" y1="0.00279236" x2="130.003" y2="40.0042" gradientUnits="userSpaceOnUse">
<stop stop-color="#121E34"/>
<stop offset="1" stop-color="#0A121F"/>
</linearGradient>
</defs>
</svg>
