<svg width="227" height="40" viewBox="0 0 227 40" fill="none" xmlns="http://www.w3.org/2000/svg">
<g clip-path="url(#clip0_8_39)">
<rect x="0.00195312" y="0.00839233" width="227" height="40" rx="8" fill="url(#paint0_linear_8_39)"/>
<g filter="url(#filter0_d_8_39)">
<g clip-path="url(#clip1_8_39)">
<path d="M22.0019 31.6751C28.4452 31.6751 33.6685 26.4518 33.6685 20.0085C33.6685 13.5651 28.4452 8.3418 22.0019 8.3418C15.5585 8.3418 10.3352 13.5651 10.3352 20.0085C10.3352 26.4518 15.5585 31.6751 22.0019 31.6751Z" stroke="#3FB950" stroke-width="2.86" stroke-linecap="round" stroke-linejoin="round"/>
<path d="M22.0019 21.1751C22.6462 21.1751 23.1685 20.6528 23.1685 20.0085C23.1685 19.3641 22.6462 18.8418 22.0019 18.8418C21.3575 18.8418 20.8352 19.3641 20.8352 20.0085C20.8352 20.6528 21.3575 21.1751 22.0019 21.1751Z" fill="#3FB950" stroke="#3FB950" stroke-width="2.86" stroke-linecap="round" stroke-linejoin="round"/>
</g>
</g>
<g filter="url(#filter1_d_8_39)">
<path d="M50.1035 17.3926C50.0391 16.8211 49.7735 16.3784 49.3066 16.0645C48.8398 15.7466 48.2522 15.5876 47.5439 15.5876C47.0368 15.5876 46.5981 15.6681 46.2278 15.8291C45.8575 15.986 45.5698 16.2033 45.3645 16.481C45.1633 16.7547 45.0627 17.0666 45.0627 17.4168C45.0627 17.7106 45.1311 17.9641 45.2679 18.1774C45.4088 18.3907 45.5919 18.5698 45.8173 18.7147C46.0467 18.8556 46.2922 18.9743 46.5538 19.0709C46.8154 19.1635 47.0669 19.2399 47.3084 19.3003L48.5158 19.6142C48.9102 19.7108 49.3147 19.8416 49.7292 20.0066C50.1438 20.1716 50.5281 20.389 50.8823 20.6586C51.2364 20.9283 51.5222 21.2623 51.7395 21.6607C51.9609 22.0592 52.0716 22.5361 52.0716 23.0915C52.0716 23.7918 51.8904 24.4136 51.5282 24.9569C51.17 25.5002 50.6488 25.9288 49.9647 26.2428C49.2845 26.5567 48.4615 26.7136 47.4956 26.7136C46.5699 26.7136 45.769 26.5667 45.0929 26.2729C44.4167 25.9791 43.8875 25.5626 43.5051 25.0233C43.1228 24.48 42.9115 23.836 42.8713 23.0915H44.7427C44.7789 23.5382 44.9238 23.9105 45.1774 24.2083C45.435 24.5021 45.763 24.7215 46.1614 24.8663C46.5639 25.0072 47.0046 25.0776 47.4835 25.0776C48.0107 25.0776 48.4796 24.9951 48.8901 24.8301C49.3046 24.6611 49.6306 24.4277 49.8681 24.1298C50.1055 23.828 50.2243 23.4758 50.2243 23.0734C50.2243 22.7071 50.1196 22.4073 49.9103 22.1739C49.7051 21.9404 49.4254 21.7473 49.0712 21.5943C48.7211 21.4414 48.3246 21.3066 47.8819 21.1899L46.421 20.7914C45.4309 20.5218 44.6461 20.1253 44.0666 19.6021C43.4911 19.0789 43.2033 18.3867 43.2033 17.5254C43.2033 16.8131 43.3965 16.1913 43.7828 15.66C44.1692 15.1288 44.6924 14.7163 45.3524 14.4225C46.0125 14.1246 46.757 13.9757 47.5861 13.9757C48.4232 13.9757 49.1618 14.1226 49.8017 14.4164C50.4456 14.7102 50.9527 15.1147 51.323 15.6298C51.6932 16.141 51.8864 16.7286 51.9025 17.3926H50.1035ZM58.1523 26.6955C57.2387 26.6955 56.4518 26.5003 55.7918 26.1099C55.1358 25.7155 54.6287 25.1622 54.2705 24.4498C53.9163 23.7334 53.7393 22.8943 53.7393 21.9324C53.7393 20.9826 53.9163 20.1455 54.2705 19.421C54.6287 18.6966 55.1277 18.1311 55.7677 17.7247C56.4116 17.3182 57.1642 17.1149 58.0255 17.1149C58.5487 17.1149 59.0558 17.2015 59.5468 17.3745C60.0378 17.5476 60.4785 17.8192 60.8689 18.1895C61.2593 18.5598 61.5671 19.0407 61.7925 19.6323C62.0179 20.2199 62.1306 20.9343 62.1306 21.7754V22.4153H54.7595V21.0631H60.3618C60.3618 20.5882 60.2652 20.1676 60.072 19.8014C59.8788 19.4311 59.6072 19.1393 59.257 18.926C58.9109 18.7127 58.5044 18.606 58.0375 18.606C57.5304 18.606 57.0877 18.7308 56.7094 18.9803C56.3351 19.2258 56.0454 19.5478 55.8401 19.9462C55.6389 20.3407 55.5383 20.7693 55.5383 21.2321V22.2886C55.5383 22.9084 55.6469 23.4356 55.8643 23.8702C56.0856 24.3049 56.3935 24.6369 56.7879 24.8663C57.1823 25.0917 57.6431 25.2044 58.1704 25.2044C58.5125 25.2044 58.8244 25.1561 59.1061 25.0595C59.3878 24.9589 59.6313 24.81 59.8366 24.6128C60.0418 24.4156 60.1988 24.1721 60.3074 23.8823L62.0159 24.1902C61.879 24.6933 61.6335 25.134 61.2794 25.5123C60.9292 25.8866 60.4885 26.1784 59.9573 26.3876C59.4301 26.5929 58.8284 26.6955 58.1523 26.6955ZM68.1298 26.6955C67.2162 26.6955 66.4294 26.5003 65.7693 26.1099C65.1133 25.7155 64.6062 25.1622 64.248 24.4498C63.8939 23.7334 63.7168 22.8943 63.7168 21.9324C63.7168 20.9826 63.8939 20.1455 64.248 19.421C64.6062 18.6966 65.1053 18.1311 65.7452 17.7247C66.3891 17.3182 67.1417 17.1149 68.003 17.1149C68.5262 17.1149 69.0333 17.2015 69.5243 17.3745C70.0153 17.5476 70.456 17.8192 70.8464 18.1895C71.2368 18.5598 71.5447 19.0407 71.7701 19.6323C71.9954 20.2199 72.1081 20.9343 72.1081 21.7754V22.4153H64.737V21.0631H70.3393C70.3393 20.5882 70.2427 20.1676 70.0495 19.8014C69.8563 19.4311 69.5847 19.1393 69.2345 18.926C68.8884 18.7127 68.4819 18.606 68.0151 18.606C67.508 18.606 67.0653 18.7308 66.687 18.9803C66.3127 19.2258 66.0229 19.5478 65.8176 19.9462C65.6164 20.3407 65.5158 20.7693 65.5158 21.2321V22.2886C65.5158 22.9084 65.6245 23.4356 65.8418 23.8702C66.0631 24.3049 66.371 24.6369 66.7654 24.8663C67.1599 25.0917 67.6207 25.2044 68.1479 25.2044C68.49 25.2044 68.8019 25.1561 69.0836 25.0595C69.3653 24.9589 69.6088 24.81 69.8141 24.6128C70.0193 24.4156 70.1763 24.1721 70.285 23.8823L71.9934 24.1902C71.8566 24.6933 71.6111 25.134 71.2569 25.5123C70.9068 25.8866 70.4661 26.1784 69.9348 26.3876C69.4076 26.5929 68.8059 26.6955 68.1298 26.6955ZM82.9384 17.2357V18.6845H77.8734V17.2357H82.9384ZM79.2317 15.0141H81.0367V23.7857C81.0367 24.1359 81.0891 24.3995 81.1937 24.5766C81.2983 24.7496 81.4332 24.8684 81.5982 24.9327C81.7672 24.9931 81.9503 25.0233 82.1475 25.0233C82.2924 25.0233 82.4192 25.0132 82.5279 24.9931C82.6365 24.973 82.721 24.9569 82.7814 24.9448L83.1074 26.4359C83.0028 26.4762 82.8539 26.5164 82.6607 26.5567C82.4675 26.601 82.226 26.6251 81.9362 26.6291C81.4613 26.6372 81.0186 26.5527 80.6081 26.3756C80.1976 26.1985 79.8656 25.9248 79.612 25.5546C79.3585 25.1843 79.2317 24.7194 79.2317 24.16V15.0141ZM86.9394 21.0027V26.5084H85.1343V14.1448H86.9152V18.7449H87.0299C87.2472 18.2458 87.5793 17.8494 88.026 17.5556C88.4727 17.2618 89.0563 17.1149 89.7767 17.1149C90.4126 17.1149 90.968 17.2457 91.4429 17.5073C91.9218 17.7689 92.2921 18.1593 92.5537 18.6785C92.8193 19.1936 92.9521 19.8376 92.9521 20.6103V26.5084H91.1471V20.8276C91.1471 20.1475 90.972 19.6202 90.6219 19.246C90.2717 18.8676 89.7848 18.6785 89.1609 18.6785C88.7343 18.6785 88.352 18.769 88.0139 18.9502C87.6799 19.1313 87.4163 19.3969 87.2231 19.747C87.0339 20.0931 86.9394 20.5117 86.9394 21.0027ZM99.3573 26.6955C98.4437 26.6955 97.6569 26.5003 96.9969 26.1099C96.3409 25.7155 95.8338 25.1622 95.4756 24.4498C95.1214 23.7334 94.9443 22.8943 94.9443 21.9324C94.9443 20.9826 95.1214 20.1455 95.4756 19.421C95.8338 18.6966 96.3328 18.1311 96.9727 17.7247C97.6167 17.3182 98.3693 17.1149 99.2305 17.1149C99.7537 17.1149 100.261 17.2015 100.752 17.3745C101.243 17.5476 101.684 17.8192 102.074 18.1895C102.464 18.5598 102.772 19.0407 102.998 19.6323C103.223 20.2199 103.336 20.9343 103.336 21.7754V22.4153H95.9646V21.0631H101.567C101.567 20.5882 101.47 20.1676 101.277 19.8014C101.084 19.4311 100.812 19.1393 100.462 18.926C100.116 18.7127 99.7095 18.606 99.2426 18.606C98.7355 18.606 98.2928 18.7308 97.9145 18.9803C97.5402 19.2258 97.2504 19.5478 97.0452 19.9462C96.8439 20.3407 96.7433 20.7693 96.7433 21.2321V22.2886C96.7433 22.9084 96.852 23.4356 97.0693 23.8702C97.2907 24.3049 97.5986 24.6369 97.993 24.8663C98.3874 25.0917 98.8482 25.2044 99.3754 25.2044C99.7175 25.2044 100.029 25.1561 100.311 25.0595C100.593 24.9589 100.836 24.81 101.042 24.6128C101.247 24.4156 101.404 24.1721 101.513 23.8823L103.221 24.1902C103.084 24.6933 102.839 25.134 102.484 25.5123C102.134 25.8866 101.694 26.1784 101.162 26.3876C100.635 26.5929 100.033 26.6955 99.3573 26.6955Z" fill="#E8E8E8"/>
<path d="M112.926 13.6448V26.0084H109.938V13.6448H112.926ZM122.897 19.567L120.187 19.6394C120.159 19.4462 120.082 19.2752 119.957 19.1263C119.833 18.9734 119.67 18.8546 119.468 18.7701C119.271 18.6816 119.042 18.6373 118.78 18.6373C118.438 18.6373 118.146 18.7057 117.905 18.8426C117.667 18.9794 117.551 19.1645 117.555 19.3979C117.551 19.5791 117.623 19.736 117.772 19.8688C117.925 20.0016 118.197 20.1083 118.587 20.1888L120.374 20.5269C121.3 20.7039 121.988 20.9977 122.439 21.4082C122.893 21.8188 123.123 22.3621 123.127 23.0382C123.123 23.6741 122.934 24.2275 122.559 24.6984C122.189 25.1693 121.682 25.5355 121.038 25.7971C120.394 26.0547 119.658 26.1835 118.829 26.1835C117.504 26.1835 116.46 25.9118 115.695 25.3685C114.935 24.8211 114.5 24.0886 114.391 23.171L117.307 23.0986C117.372 23.4367 117.539 23.6942 117.808 23.8713C118.078 24.0484 118.422 24.1369 118.841 24.1369C119.219 24.1369 119.527 24.0665 119.764 23.9256C120.002 23.7848 120.122 23.5976 120.127 23.3642C120.122 23.1549 120.03 22.9879 119.849 22.8631C119.668 22.7344 119.384 22.6337 118.998 22.5613L117.38 22.2534C116.45 22.0844 115.758 21.7725 115.303 21.3177C114.848 20.8589 114.623 20.2753 114.627 19.567C114.623 18.9472 114.788 18.418 115.122 17.9793C115.456 17.5366 115.931 17.1985 116.547 16.9651C117.162 16.7316 117.889 16.6149 118.726 16.6149C119.982 16.6149 120.972 16.8785 121.696 17.4058C122.421 17.929 122.821 18.6494 122.897 19.567ZM132.676 19.567L129.965 19.6394C129.937 19.4462 129.861 19.2752 129.736 19.1263C129.611 18.9734 129.448 18.8546 129.247 18.7701C129.05 18.6816 128.82 18.6373 128.559 18.6373C128.216 18.6373 127.925 18.7057 127.683 18.8426C127.446 18.9794 127.329 19.1645 127.333 19.3979C127.329 19.5791 127.402 19.736 127.55 19.8688C127.703 20.0016 127.975 20.1083 128.365 20.1888L130.152 20.5269C131.078 20.7039 131.766 20.9977 132.217 21.4082C132.672 21.8188 132.901 22.3621 132.905 23.0382C132.901 23.6741 132.712 24.2275 132.338 24.6984C131.967 25.1693 131.46 25.5355 130.816 25.7971C130.172 26.0547 129.436 26.1835 128.607 26.1835C127.283 26.1835 126.238 25.9118 125.474 25.3685C124.713 24.8211 124.278 24.0886 124.17 23.171L127.086 23.0986C127.15 23.4367 127.317 23.6942 127.587 23.8713C127.856 24.0484 128.2 24.1369 128.619 24.1369C128.997 24.1369 129.305 24.0665 129.543 23.9256C129.78 23.7848 129.901 23.5976 129.905 23.3642C129.901 23.1549 129.808 22.9879 129.627 22.8631C129.446 22.7344 129.162 22.6337 128.776 22.5613L127.158 22.2534C126.228 22.0844 125.536 21.7725 125.081 21.3177C124.627 20.8589 124.401 20.2753 124.405 19.567C124.401 18.9472 124.566 18.418 124.9 17.9793C125.234 17.5366 125.709 17.1985 126.325 16.9651C126.941 16.7316 127.667 16.6149 128.504 16.6149C129.76 16.6149 130.75 16.8785 131.474 17.4058C132.199 17.929 132.599 18.6494 132.676 19.567ZM140.341 22.0059V16.7357H143.287V26.0084H140.474V24.2818H140.377C140.172 24.8493 139.822 25.3001 139.327 25.6341C138.836 25.9641 138.242 26.1291 137.546 26.1291C136.914 26.1291 136.359 25.9842 135.88 25.6945C135.401 25.4047 135.029 25.0002 134.763 24.481C134.497 23.9578 134.363 23.3461 134.359 22.6458V16.7357H137.311V22.0663C137.315 22.5693 137.447 22.9658 137.709 23.2555C137.971 23.5453 138.327 23.6902 138.778 23.6902C139.071 23.6902 139.335 23.6258 139.568 23.497C139.806 23.3642 139.993 23.173 140.13 22.9235C140.271 22.67 140.341 22.3641 140.341 22.0059ZM149.501 26.1835C148.531 26.1835 147.694 25.9923 146.989 25.61C146.289 25.2236 145.75 24.6742 145.371 23.9619C144.997 23.2455 144.81 22.3943 144.81 21.4082C144.81 20.4504 144.999 19.6133 145.377 18.8969C145.756 18.1765 146.289 17.6171 146.977 17.2186C147.665 16.8162 148.476 16.6149 149.41 16.6149C150.07 16.6149 150.674 16.7176 151.221 16.9228C151.769 17.1281 152.241 17.4319 152.64 17.8344C153.038 18.2368 153.348 18.7339 153.57 19.3255C153.791 19.9131 153.902 20.5872 153.902 21.3479V22.0844H145.842V20.3699H151.155C151.151 20.056 151.076 19.7763 150.931 19.5308C150.787 19.2853 150.587 19.0941 150.334 18.9573C150.084 18.8164 149.797 18.746 149.471 18.746C149.14 18.746 148.845 18.8204 148.583 18.9693C148.321 19.1142 148.114 19.3134 147.961 19.567C147.808 19.8165 147.728 20.1002 147.72 20.4182V22.1629C147.72 22.5412 147.794 22.8732 147.943 23.159C148.092 23.4407 148.303 23.66 148.577 23.817C148.851 23.9739 149.177 24.0524 149.555 24.0524C149.817 24.0524 150.054 24.0162 150.267 23.9438C150.481 23.8713 150.664 23.7647 150.817 23.6238C150.97 23.4829 151.084 23.3099 151.161 23.1046L153.871 23.1831C153.759 23.7908 153.511 24.3201 153.129 24.7708C152.751 25.2176 152.254 25.5657 151.638 25.8152C151.022 26.0607 150.31 26.1835 149.501 26.1835ZM164.296 16.7357V18.909H158.446V16.7357H164.296ZM159.671 14.5141H162.623V23.0926C162.623 23.2737 162.652 23.4206 162.708 23.5332C162.768 23.6419 162.855 23.7204 162.968 23.7687C163.08 23.813 163.215 23.8351 163.372 23.8351C163.485 23.8351 163.603 23.825 163.728 23.8049C163.857 23.7808 163.954 23.7606 164.018 23.7445L164.465 25.8756C164.324 25.9158 164.125 25.9661 163.867 26.0265C163.614 26.0869 163.31 26.1251 162.956 26.1412C162.263 26.1734 161.67 26.0929 161.175 25.8997C160.684 25.7025 160.307 25.3966 160.046 24.9821C159.788 24.5676 159.663 24.0464 159.671 23.4185V14.5141ZM165.802 26.0084V16.7357H168.669V18.426H168.766C168.935 17.8143 169.211 17.3595 169.593 17.0617C169.975 16.7598 170.42 16.6089 170.927 16.6089C171.064 16.6089 171.205 16.6189 171.35 16.6391C171.495 16.6552 171.63 16.6813 171.754 16.7176V19.2832C171.613 19.235 171.428 19.1967 171.199 19.1685C170.974 19.1404 170.772 19.1263 170.595 19.1263C170.245 19.1263 169.929 19.2048 169.647 19.3617C169.37 19.5147 169.15 19.73 168.989 20.0077C168.832 20.2814 168.754 20.6033 168.754 20.9736V26.0084H165.802ZM175.223 26.1653C174.631 26.1653 174.106 26.0667 173.647 25.8695C173.192 25.6683 172.832 25.3665 172.566 24.964C172.305 24.5575 172.174 24.0484 172.174 23.4367C172.174 22.9215 172.264 22.4868 172.446 22.1327C172.627 21.7785 172.876 21.4908 173.194 21.2694C173.512 21.048 173.878 20.881 174.293 20.7683C174.707 20.6516 175.15 20.5731 175.621 20.5329C176.148 20.4846 176.573 20.4343 176.895 20.382C177.217 20.3256 177.45 20.2471 177.595 20.1465C177.744 20.0419 177.818 19.895 177.818 19.7058V19.6756C177.818 19.3658 177.712 19.1263 177.498 18.9573C177.285 18.7882 176.997 18.7037 176.635 18.7037C176.245 18.7037 175.931 18.7882 175.693 18.9573C175.456 19.1263 175.305 19.3597 175.241 19.6575L172.518 19.5609C172.598 18.9975 172.806 18.4944 173.14 18.0517C173.478 17.605 173.941 17.2548 174.528 17.0013C175.12 16.7437 175.83 16.6149 176.659 16.6149C177.251 16.6149 177.796 16.6854 178.295 16.8262C178.794 16.9631 179.229 17.1643 179.599 17.4299C179.97 17.6915 180.255 18.0135 180.457 18.3958C180.662 18.7782 180.764 19.2148 180.764 19.7058V26.0084H177.987V24.7165H177.915C177.75 25.0304 177.539 25.296 177.281 25.5134C177.028 25.7307 176.728 25.8937 176.382 26.0024C176.04 26.111 175.653 26.1653 175.223 26.1653ZM176.134 24.2335C176.452 24.2335 176.738 24.1691 176.991 24.0403C177.249 23.9116 177.454 23.7345 177.607 23.5091C177.76 23.2797 177.837 23.0141 177.837 22.7122V21.8308C177.752 21.8751 177.649 21.9153 177.529 21.9516C177.412 21.9878 177.283 22.022 177.142 22.0542C177.001 22.0864 176.857 22.1146 176.708 22.1387C176.559 22.1629 176.416 22.185 176.279 22.2051C176.001 22.2494 175.764 22.3178 175.567 22.4104C175.373 22.5029 175.225 22.6237 175.12 22.7726C175.019 22.9175 174.969 23.0905 174.969 23.2918C174.969 23.5976 175.078 23.8311 175.295 23.9921C175.516 24.153 175.796 24.2335 176.134 24.2335ZM186.898 26.1835C185.92 26.1835 185.081 25.9822 184.381 25.5798C183.684 25.1773 183.149 24.6179 182.775 23.9015C182.4 23.1811 182.213 22.348 182.213 21.4022C182.213 20.4524 182.4 19.6193 182.775 18.9029C183.153 18.1825 183.69 17.6211 184.387 17.2186C185.087 16.8162 185.922 16.6149 186.892 16.6149C187.749 16.6149 188.496 16.7699 189.132 17.0798C189.772 17.3897 190.271 17.8283 190.629 18.3958C190.991 18.9593 191.182 19.6213 191.202 20.382H188.443C188.387 19.9071 188.226 19.5348 187.96 19.2651C187.699 18.9955 187.357 18.8607 186.934 18.8607C186.592 18.8607 186.292 18.9573 186.035 19.1504C185.777 19.3396 185.576 19.6213 185.431 19.9956C185.29 20.3659 185.22 20.8247 185.22 21.372C185.22 21.9194 185.29 22.3822 185.431 22.7605C185.576 23.1348 185.777 23.4185 186.035 23.6117C186.292 23.8009 186.592 23.8955 186.934 23.8955C187.208 23.8955 187.449 23.8371 187.659 23.7204C187.872 23.6037 188.047 23.4326 188.184 23.2073C188.321 22.9778 188.407 22.7002 188.443 22.3742H191.202C191.174 23.1388 190.983 23.8069 190.629 24.3784C190.279 24.9499 189.786 25.3946 189.15 25.7126C188.518 26.0265 187.767 26.1835 186.898 26.1835ZM195.375 23.5755L195.387 20.056H195.798L198.406 16.7357H201.75L197.875 21.4928H197.096L195.375 23.5755ZM192.713 26.0084V13.6448H195.665V26.0084H192.713ZM198.472 26.0084L196.045 22.1568L197.989 20.062L201.883 26.0084H198.472ZM206.759 26.1835C205.79 26.1835 204.952 25.9923 204.248 25.61C203.548 25.2236 203.009 24.6742 202.63 23.9619C202.256 23.2455 202.069 22.3943 202.069 21.4082C202.069 20.4504 202.258 19.6133 202.636 18.8969C203.015 18.1765 203.548 17.6171 204.236 17.2186C204.924 16.8162 205.735 16.6149 206.669 16.6149C207.329 16.6149 207.933 16.7176 208.48 16.9228C209.027 17.1281 209.5 17.4319 209.899 17.8344C210.297 18.2368 210.607 18.7339 210.828 19.3255C211.05 19.9131 211.16 20.5872 211.16 21.3479V22.0844H203.101V20.3699H208.414C208.41 20.056 208.335 19.7763 208.19 19.5308C208.045 19.2853 207.846 19.0941 207.593 18.9573C207.343 18.8164 207.055 18.746 206.729 18.746C206.399 18.746 206.103 18.8204 205.842 18.9693C205.58 19.1142 205.373 19.3134 205.22 19.567C205.067 19.8165 204.987 20.1002 204.979 20.4182V22.1629C204.979 22.5412 205.053 22.8732 205.202 23.159C205.351 23.4407 205.562 23.66 205.836 23.817C206.109 23.9739 206.435 24.0524 206.814 24.0524C207.075 24.0524 207.313 24.0162 207.526 23.9438C207.739 23.8713 207.923 23.7647 208.076 23.6238C208.228 23.4829 208.343 23.3099 208.42 23.1046L211.13 23.1831C211.018 23.7908 210.77 24.3201 210.388 24.7708C210.009 25.2176 209.512 25.5657 208.897 25.8152C208.281 26.0607 207.568 26.1835 206.759 26.1835ZM212.668 26.0084V16.7357H215.536V18.426H215.632C215.801 17.8143 216.077 17.3595 216.459 17.0617C216.842 16.7598 217.286 16.6089 217.793 16.6089C217.93 16.6089 218.071 16.6189 218.216 16.6391C218.361 16.6552 218.496 16.6813 218.621 16.7176V19.2832C218.48 19.235 218.295 19.1967 218.065 19.1685C217.84 19.1404 217.639 19.1263 217.461 19.1263C217.111 19.1263 216.795 19.2048 216.514 19.3617C216.236 19.5147 216.017 19.73 215.856 20.0077C215.699 20.2814 215.62 20.6033 215.62 20.9736V26.0084H212.668Z" fill="white"/>
</g>
</g>
<rect x="1.05195" y="1.05839" width="224.9" height="37.9" rx="6.95" stroke="white" stroke-opacity="0.15" stroke-width="2.1"/>
<defs>
<filter id="filter0_d_8_39" x="2.28767" y="0.294107" width="39.4286" height="39.4286" filterUnits="userSpaceOnUse" color-interpolation-filters="sRGB">
<feFlood flood-opacity="0" result="BackgroundImageFix"/>
<feColorMatrix in="SourceAlpha" type="matrix" values="0 0 0 0 0 0 0 0 0 0 0 0 0 0 0 0 0 0 127 0" result="hardAlpha"/>
<feOffset/>
<feGaussianBlur stdDeviation="2.85714"/>
<feComposite in2="hardAlpha" operator="out"/>
<feColorMatrix type="matrix" values="0 0 0 0 0 0 0 0 0 0 0 0 0 0 0 0 0 0 0.25 0"/>
<feBlend mode="normal" in2="BackgroundImageFix" result="effect1_dropShadow_8_39"/>
<feBlend mode="normal" in="SourceGraphic" in2="effect1_dropShadow_8_39" result="shape"/>
</filter>
<filter id="filter1_d_8_39" x="36.402" y="3.90839" width="188.2" height="32.2" filterUnits="userSpaceOnUse" color-interpolation-filters="sRGB">
<feFlood flood-opacity="0" result="BackgroundImageFix"/>
<feColorMatrix in="SourceAlpha" type="matrix" values="0 0 0 0 0 0 0 0 0 0 0 0 0 0 0 0 0 0 127 0" result="hardAlpha"/>
<feOffset/>
<feGaussianBlur stdDeviation="2.8"/>
<feComposite in2="hardAlpha" operator="out"/>
<feColorMatrix type="matrix" values="0 0 0 0 0 0 0 0 0 0 0 0 0 0 0 0 0 0 0.25 0"/>
<feBlend mode="normal" in2="BackgroundImageFix" result="effect1_dropShadow_8_39"/>
<feBlend mode="normal" in="SourceGraphic" in2="effect1_dropShadow_8_39" result="shape"/>
</filter>
<linearGradient id="paint0_linear_8_39" x1="113.502" y1="0.00839233" x2="113.502" y2="40.0084" gradientUnits="userSpaceOnUse">
<stop stop-color="#181F29"/>
<stop offset="1" stop-color="#0F131A"/>
</linearGradient>
<clipPath id="clip0_8_39">
<rect x="0.00195312" y="0.00839233" width="227" height="40" rx="8" fill="white"/>
</clipPath>
<clipPath id="clip1_8_39">
<rect width="28" height="28" fill="white" transform="translate(8.00195 6.00845)"/>
</clipPath>
</defs>
</svg>
