<svg width="228" height="40" viewBox="0 0 228 40" fill="none" xmlns="http://www.w3.org/2000/svg">
<g clip-path="url(#clip0_8_47)">
<rect x="0.00195312" y="0.00839233" width="228" height="40" rx="8" fill="url(#paint0_linear_8_47)"/>
<g filter="url(#filter0_d_8_47)">
<g clip-path="url(#clip1_8_47)">
<path d="M13.8352 16.5085C15.7682 16.5085 17.3352 14.9415 17.3352 13.0085C17.3352 11.0755 15.7682 9.50845 13.8352 9.50845C11.9022 9.50845 10.3352 11.0755 10.3352 13.0085C10.3352 14.9415 11.9022 16.5085 13.8352 16.5085Z" stroke="#3FB950" stroke-width="2.86" stroke-linecap="round" stroke-linejoin="round"/>
<path d="M13.8352 16.5085V30.5085" stroke="#3FB950" stroke-width="2.86" stroke-linecap="round" stroke-linejoin="round"/>
<path d="M30.1687 30.5085C32.1017 30.5085 33.6687 28.9415 33.6687 27.0085C33.6687 25.0755 32.1017 23.5085 30.1687 23.5085C28.2357 23.5085 26.6687 25.0755 26.6687 27.0085C26.6687 28.9415 28.2357 30.5085 30.1687 30.5085Z" stroke="#3FB950" stroke-width="2.86" stroke-linecap="round" stroke-linejoin="round"/>
<path d="M25.502 16.5085L22.002 13.0085L25.502 9.50845" stroke="#3FB950" stroke-width="2.86" stroke-linecap="round" stroke-linejoin="round"/>
<path d="M22.002 13.0085H27.8353C28.4541 13.0085 29.0476 13.2543 29.4852 13.6919C29.9228 14.1295 30.1686 14.7229 30.1686 15.3418V23.5085" stroke="#3FB950" stroke-width="2.86" stroke-linecap="round" stroke-linejoin="round"/>
</g>
</g>
<g filter="url(#filter1_d_8_47)">
<path d="M50.1035 17.3926C50.0391 16.8211 49.7735 16.3784 49.3066 16.0645C48.8398 15.7466 48.2522 15.5876 47.5439 15.5876C47.0368 15.5876 46.5981 15.6681 46.2278 15.8291C45.8575 15.986 45.5698 16.2033 45.3645 16.481C45.1633 16.7547 45.0627 17.0666 45.0627 17.4168C45.0627 17.7106 45.1311 17.9641 45.2679 18.1774C45.4088 18.3907 45.5919 18.5698 45.8173 18.7147C46.0467 18.8556 46.2922 18.9743 46.5538 19.0709C46.8154 19.1635 47.0669 19.2399 47.3084 19.3003L48.5158 19.6142C48.9102 19.7108 49.3147 19.8416 49.7292 20.0066C50.1438 20.1716 50.5281 20.389 50.8823 20.6586C51.2364 20.9283 51.5222 21.2623 51.7395 21.6607C51.9609 22.0592 52.0716 22.5361 52.0716 23.0915C52.0716 23.7918 51.8904 24.4136 51.5282 24.9569C51.17 25.5002 50.6488 25.9288 49.9647 26.2428C49.2845 26.5567 48.4615 26.7136 47.4956 26.7136C46.5699 26.7136 45.769 26.5667 45.0929 26.2729C44.4167 25.9791 43.8875 25.5626 43.5051 25.0233C43.1228 24.48 42.9115 23.836 42.8713 23.0915H44.7427C44.7789 23.5382 44.9238 23.9105 45.1774 24.2083C45.435 24.5021 45.763 24.7215 46.1614 24.8663C46.5639 25.0072 47.0046 25.0776 47.4835 25.0776C48.0107 25.0776 48.4796 24.9951 48.8901 24.8301C49.3046 24.6611 49.6306 24.4277 49.8681 24.1298C50.1055 23.828 50.2243 23.4758 50.2243 23.0734C50.2243 22.7071 50.1196 22.4073 49.9103 22.1739C49.7051 21.9404 49.4254 21.7473 49.0712 21.5943C48.7211 21.4414 48.3246 21.3066 47.8819 21.1899L46.421 20.7914C45.4309 20.5218 44.6461 20.1253 44.0666 19.6021C43.4911 19.0789 43.2033 18.3867 43.2033 17.5254C43.2033 16.8131 43.3965 16.1913 43.7828 15.66C44.1692 15.1288 44.6924 14.7163 45.3524 14.4225C46.0125 14.1246 46.757 13.9757 47.5861 13.9757C48.4232 13.9757 49.1618 14.1226 49.8017 14.4164C50.4456 14.7102 50.9527 15.1147 51.323 15.6298C51.6932 16.141 51.8864 16.7286 51.9025 17.3926H50.1035ZM58.1523 26.6955C57.2387 26.6955 56.4518 26.5003 55.7918 26.1099C55.1358 25.7155 54.6287 25.1622 54.2705 24.4498C53.9163 23.7334 53.7393 22.8943 53.7393 21.9324C53.7393 20.9826 53.9163 20.1455 54.2705 19.421C54.6287 18.6966 55.1277 18.1311 55.7677 17.7247C56.4116 17.3182 57.1642 17.1149 58.0255 17.1149C58.5487 17.1149 59.0558 17.2015 59.5468 17.3745C60.0378 17.5476 60.4785 17.8192 60.8689 18.1895C61.2593 18.5598 61.5671 19.0407 61.7925 19.6323C62.0179 20.2199 62.1306 20.9343 62.1306 21.7754V22.4153H54.7595V21.0631H60.3618C60.3618 20.5882 60.2652 20.1676 60.072 19.8014C59.8788 19.4311 59.6072 19.1393 59.257 18.926C58.9109 18.7127 58.5044 18.606 58.0375 18.606C57.5304 18.606 57.0877 18.7308 56.7094 18.9803C56.3351 19.2258 56.0454 19.5478 55.8401 19.9462C55.6389 20.3407 55.5383 20.7693 55.5383 21.2321V22.2886C55.5383 22.9084 55.6469 23.4356 55.8643 23.8702C56.0856 24.3049 56.3935 24.6369 56.7879 24.8663C57.1823 25.0917 57.6431 25.2044 58.1704 25.2044C58.5125 25.2044 58.8244 25.1561 59.1061 25.0595C59.3878 24.9589 59.6313 24.81 59.8366 24.6128C60.0418 24.4156 60.1988 24.1721 60.3074 23.8823L62.0159 24.1902C61.879 24.6933 61.6335 25.134 61.2794 25.5123C60.9292 25.8866 60.4885 26.1784 59.9573 26.3876C59.4301 26.5929 58.8284 26.6955 58.1523 26.6955ZM68.1298 26.6955C67.2162 26.6955 66.4294 26.5003 65.7693 26.1099C65.1133 25.7155 64.6062 25.1622 64.248 24.4498C63.8939 23.7334 63.7168 22.8943 63.7168 21.9324C63.7168 20.9826 63.8939 20.1455 64.248 19.421C64.6062 18.6966 65.1053 18.1311 65.7452 17.7247C66.3891 17.3182 67.1417 17.1149 68.003 17.1149C68.5262 17.1149 69.0333 17.2015 69.5243 17.3745C70.0153 17.5476 70.456 17.8192 70.8464 18.1895C71.2368 18.5598 71.5447 19.0407 71.7701 19.6323C71.9954 20.2199 72.1081 20.9343 72.1081 21.7754V22.4153H64.737V21.0631H70.3393C70.3393 20.5882 70.2427 20.1676 70.0495 19.8014C69.8563 19.4311 69.5847 19.1393 69.2345 18.926C68.8884 18.7127 68.4819 18.606 68.0151 18.606C67.508 18.606 67.0653 18.7308 66.687 18.9803C66.3127 19.2258 66.0229 19.5478 65.8176 19.9462C65.6164 20.3407 65.5158 20.7693 65.5158 21.2321V22.2886C65.5158 22.9084 65.6245 23.4356 65.8418 23.8702C66.0631 24.3049 66.371 24.6369 66.7654 24.8663C67.1599 25.0917 67.6207 25.2044 68.1479 25.2044C68.49 25.2044 68.8019 25.1561 69.0836 25.0595C69.3653 24.9589 69.6088 24.81 69.8141 24.6128C70.0193 24.4156 70.1763 24.1721 70.285 23.8823L71.9934 24.1902C71.8566 24.6933 71.6111 25.134 71.2569 25.5123C70.9068 25.8866 70.4661 26.1784 69.9348 26.3876C69.4076 26.5929 68.8059 26.6955 68.1298 26.6955ZM82.9384 17.2357V18.6845H77.8734V17.2357H82.9384ZM79.2317 15.0141H81.0367V23.7857C81.0367 24.1359 81.0891 24.3995 81.1937 24.5766C81.2983 24.7496 81.4332 24.8684 81.5982 24.9327C81.7672 24.9931 81.9503 25.0233 82.1475 25.0233C82.2924 25.0233 82.4192 25.0132 82.5279 24.9931C82.6365 24.973 82.721 24.9569 82.7814 24.9448L83.1074 26.4359C83.0028 26.4762 82.8539 26.5164 82.6607 26.5567C82.4675 26.601 82.226 26.6251 81.9362 26.6291C81.4613 26.6372 81.0186 26.5527 80.6081 26.3756C80.1976 26.1985 79.8656 25.9248 79.612 25.5546C79.3585 25.1843 79.2317 24.7194 79.2317 24.16V15.0141ZM86.9394 21.0027V26.5084H85.1343V14.1448H86.9152V18.7449H87.0299C87.2472 18.2458 87.5793 17.8494 88.026 17.5556C88.4727 17.2618 89.0563 17.1149 89.7767 17.1149C90.4126 17.1149 90.968 17.2457 91.4429 17.5073C91.9218 17.7689 92.2921 18.1593 92.5537 18.6785C92.8193 19.1936 92.9521 19.8376 92.9521 20.6103V26.5084H91.1471V20.8276C91.1471 20.1475 90.972 19.6202 90.6219 19.246C90.2717 18.8676 89.7848 18.6785 89.1609 18.6785C88.7343 18.6785 88.352 18.769 88.0139 18.9502C87.6799 19.1313 87.4163 19.3969 87.2231 19.747C87.0339 20.0931 86.9394 20.5117 86.9394 21.0027ZM99.3573 26.6955C98.4437 26.6955 97.6569 26.5003 96.9969 26.1099C96.3409 25.7155 95.8338 25.1622 95.4756 24.4498C95.1214 23.7334 94.9443 22.8943 94.9443 21.9324C94.9443 20.9826 95.1214 20.1455 95.4756 19.421C95.8338 18.6966 96.3328 18.1311 96.9727 17.7247C97.6167 17.3182 98.3693 17.1149 99.2305 17.1149C99.7537 17.1149 100.261 17.2015 100.752 17.3745C101.243 17.5476 101.684 17.8192 102.074 18.1895C102.464 18.5598 102.772 19.0407 102.998 19.6323C103.223 20.2199 103.336 20.9343 103.336 21.7754V22.4153H95.9646V21.0631H101.567C101.567 20.5882 101.47 20.1676 101.277 19.8014C101.084 19.4311 100.812 19.1393 100.462 18.926C100.116 18.7127 99.7095 18.606 99.2426 18.606C98.7355 18.606 98.2928 18.7308 97.9145 18.9803C97.5402 19.2258 97.2504 19.5478 97.0452 19.9462C96.8439 20.3407 96.7433 20.7693 96.7433 21.2321V22.2886C96.7433 22.9084 96.852 23.4356 97.0693 23.8702C97.2907 24.3049 97.5986 24.6369 97.993 24.8663C98.3874 25.0917 98.8482 25.2044 99.3754 25.2044C99.7175 25.2044 100.029 25.1561 100.311 25.0595C100.593 24.9589 100.836 24.81 101.042 24.6128C101.247 24.4156 101.404 24.1721 101.513 23.8823L103.221 24.1902C103.084 24.6933 102.839 25.134 102.484 25.5123C102.134 25.8866 101.694 26.1784 101.162 26.3876C100.635 26.5929 100.033 26.6955 99.3573 26.6955Z" fill="#E8E8E8"/>
<path d="M109.938 26.0084V13.6448H115.045C115.971 13.6448 116.769 13.8259 117.442 14.1881C118.118 14.5463 118.639 15.0473 119.005 15.6913C119.371 16.3312 119.555 17.0757 119.555 17.9249C119.555 18.7782 119.367 19.5247 118.993 20.1646C118.623 20.8005 118.094 21.2935 117.405 21.6437C116.717 21.9938 115.9 22.1689 114.954 22.1689H111.803V19.8145H114.399C114.85 19.8145 115.226 19.736 115.528 19.5791C115.834 19.4221 116.065 19.2028 116.222 18.921C116.379 18.6353 116.458 18.3033 116.458 17.9249C116.458 17.5426 116.379 17.2126 116.222 16.9349C116.065 16.6532 115.834 16.4358 115.528 16.2829C115.222 16.13 114.846 16.0535 114.399 16.0535H112.926V26.0084H109.938ZM127.01 22.0059V16.7357H129.956V26.0084H127.143V24.2818H127.046C126.841 24.8493 126.491 25.3001 125.996 25.6341C125.505 25.9641 124.911 26.1291 124.215 26.1291C123.583 26.1291 123.028 25.9842 122.549 25.6945C122.07 25.4047 121.698 25.0002 121.432 24.481C121.166 23.9578 121.032 23.3461 121.028 22.6458V16.7357H123.98V22.0663C123.984 22.5693 124.116 22.9658 124.378 23.2555C124.64 23.5453 124.996 23.6902 125.447 23.6902C125.74 23.6902 126.004 23.6258 126.237 23.497C126.475 23.3642 126.662 23.173 126.799 22.9235C126.94 22.67 127.01 22.3641 127.01 22.0059ZM134.787 13.6448V26.0084H131.835V13.6448H134.787ZM139.618 13.6448V26.0084H136.666V13.6448H139.618ZM145.15 26.0084V16.7357H148.017V18.426H148.114C148.283 17.8143 148.558 17.3595 148.941 17.0617C149.323 16.7598 149.768 16.6089 150.275 16.6089C150.412 16.6089 150.553 16.6189 150.698 16.6391C150.842 16.6552 150.977 16.6813 151.102 16.7176V19.2832C150.961 19.235 150.776 19.1967 150.547 19.1685C150.321 19.1404 150.12 19.1263 149.943 19.1263C149.593 19.1263 149.277 19.2048 148.995 19.3617C148.717 19.5147 148.498 19.73 148.337 20.0077C148.18 20.2814 148.102 20.6033 148.102 20.9736V26.0084H145.15ZM156.158 26.1835C155.188 26.1835 154.351 25.9923 153.647 25.61C152.946 25.2236 152.407 24.6742 152.029 23.9619C151.654 23.2455 151.467 22.3943 151.467 21.4082C151.467 20.4504 151.656 19.6133 152.035 18.8969C152.413 18.1765 152.946 17.6171 153.634 17.2186C154.323 16.8162 155.134 16.6149 156.067 16.6149C156.727 16.6149 157.331 16.7176 157.878 16.9228C158.426 17.1281 158.899 17.4319 159.297 17.8344C159.696 18.2368 160.005 18.7339 160.227 19.3255C160.448 19.9131 160.559 20.5872 160.559 21.3479V22.0844H152.5V20.3699H157.812C157.808 20.056 157.734 19.7763 157.589 19.5308C157.444 19.2853 157.245 19.0941 156.991 18.9573C156.741 18.8164 156.454 18.746 156.128 18.746C155.798 18.746 155.502 18.8204 155.24 18.9693C154.979 19.1142 154.771 19.3134 154.619 19.567C154.466 19.8165 154.385 20.1002 154.377 20.4182V22.1629C154.377 22.5412 154.451 22.8732 154.6 23.159C154.749 23.4407 154.961 23.66 155.234 23.817C155.508 23.9739 155.834 24.0524 156.212 24.0524C156.474 24.0524 156.711 24.0162 156.925 23.9438C157.138 23.8713 157.321 23.7647 157.474 23.6238C157.627 23.4829 157.742 23.3099 157.818 23.1046L160.529 23.1831C160.416 23.7908 160.168 24.3201 159.786 24.7708C159.408 25.2176 158.911 25.5657 158.295 25.8152C157.679 26.0607 156.967 26.1835 156.158 26.1835ZM168.122 29.4857V24.5052H168.061C167.936 24.7909 167.759 25.0586 167.53 25.3081C167.301 25.5576 167.013 25.7589 166.667 25.9118C166.325 26.0647 165.92 26.1412 165.453 26.1412C164.769 26.1412 164.147 25.9641 163.588 25.61C163.028 25.2558 162.582 24.7245 162.248 24.0162C161.914 23.3079 161.747 22.4285 161.747 21.3781C161.747 20.2874 161.92 19.3899 162.266 18.6856C162.612 17.9813 163.065 17.4601 163.624 17.122C164.188 16.784 164.793 16.6149 165.441 16.6149C165.928 16.6149 166.345 16.6994 166.691 16.8685C167.037 17.0335 167.323 17.2468 167.548 17.5084C167.773 17.77 167.945 18.0417 168.061 18.3234H168.152V16.7357H171.074V29.4857H168.122ZM166.48 23.8411C166.838 23.8411 167.144 23.7405 167.397 23.5393C167.651 23.334 167.846 23.0463 167.983 22.676C168.12 22.3057 168.188 21.8711 168.188 21.372C168.188 20.8649 168.12 20.4283 167.983 20.062C167.85 19.6958 167.655 19.414 167.397 19.2168C167.144 19.0196 166.838 18.921 166.48 18.921C166.113 18.921 165.803 19.0216 165.55 19.2229C165.296 19.4241 165.103 19.7078 164.97 20.0741C164.842 20.4403 164.777 20.873 164.777 21.372C164.777 21.8711 164.844 22.3057 164.976 22.676C165.109 23.0463 165.3 23.334 165.55 23.5393C165.803 23.7405 166.113 23.8411 166.48 23.8411ZM178.923 22.0059V16.7357H181.869V26.0084H179.056V24.2818H178.959C178.754 24.8493 178.404 25.3001 177.909 25.6341C177.418 25.9641 176.824 26.1291 176.128 26.1291C175.496 26.1291 174.941 25.9842 174.462 25.6945C173.983 25.4047 173.611 25.0002 173.345 24.481C173.079 23.9578 172.945 23.3461 172.941 22.6458V16.7357H175.893V22.0663C175.897 22.5693 176.029 22.9658 176.291 23.2555C176.553 23.5453 176.909 23.6902 177.36 23.6902C177.653 23.6902 177.917 23.6258 178.15 23.497C178.388 23.3642 178.575 23.173 178.712 22.9235C178.853 22.67 178.923 22.3641 178.923 22.0059ZM188.083 26.1835C187.113 26.1835 186.276 25.9923 185.571 25.61C184.871 25.2236 184.332 24.6742 183.953 23.9619C183.579 23.2455 183.392 22.3943 183.392 21.4082C183.392 20.4504 183.581 19.6133 183.959 18.8969C184.338 18.1765 184.871 17.6171 185.559 17.2186C186.247 16.8162 187.058 16.6149 187.992 16.6149C188.652 16.6149 189.256 16.7176 189.803 16.9228C190.351 17.1281 190.823 17.4319 191.222 17.8344C191.62 18.2368 191.93 18.7339 192.152 19.3255C192.373 19.9131 192.484 20.5872 192.484 21.3479V22.0844H184.424V20.3699H189.737C189.733 20.056 189.658 19.7763 189.513 19.5308C189.369 19.2853 189.169 19.0941 188.916 18.9573C188.666 18.8164 188.379 18.746 188.053 18.746C187.723 18.746 187.427 18.8204 187.165 18.9693C186.904 19.1142 186.696 19.3134 186.543 19.567C186.39 19.8165 186.31 20.1002 186.302 20.4182V22.1629C186.302 22.5412 186.376 22.8732 186.525 23.159C186.674 23.4407 186.885 23.66 187.159 23.817C187.433 23.9739 187.759 24.0524 188.137 24.0524C188.399 24.0524 188.636 24.0162 188.849 23.9438C189.063 23.8713 189.246 23.7647 189.399 23.6238C189.552 23.4829 189.666 23.3099 189.743 23.1046L192.453 23.1831C192.341 23.7908 192.093 24.3201 191.711 24.7708C191.333 25.2176 190.836 25.5657 190.22 25.8152C189.604 26.0607 188.892 26.1835 188.083 26.1835ZM202.087 19.567L199.376 19.6394C199.348 19.4462 199.272 19.2752 199.147 19.1263C199.022 18.9734 198.859 18.8546 198.658 18.7701C198.461 18.6816 198.231 18.6373 197.97 18.6373C197.628 18.6373 197.336 18.7057 197.094 18.8426C196.857 18.9794 196.74 19.1645 196.744 19.3979C196.74 19.5791 196.813 19.736 196.962 19.8688C197.114 20.0016 197.386 20.1083 197.777 20.1888L199.563 20.5269C200.489 20.7039 201.177 20.9977 201.628 21.4082C202.083 21.8188 202.312 22.3621 202.316 23.0382C202.312 23.6741 202.123 24.2275 201.749 24.6984C201.379 25.1693 200.871 25.5355 200.228 25.7971C199.584 26.0547 198.847 26.1835 198.018 26.1835C196.694 26.1835 195.65 25.9118 194.885 25.3685C194.124 24.8211 193.69 24.0886 193.581 23.171L196.497 23.0986C196.561 23.4367 196.728 23.6942 196.998 23.8713C197.267 24.0484 197.612 24.1369 198.03 24.1369C198.408 24.1369 198.716 24.0665 198.954 23.9256C199.191 23.7848 199.312 23.5976 199.316 23.3642C199.312 23.1549 199.219 22.9879 199.038 22.8631C198.857 22.7344 198.573 22.6337 198.187 22.5613L196.569 22.2534C195.639 22.0844 194.947 21.7725 194.492 21.3177C194.038 20.8589 193.812 20.2753 193.816 19.567C193.812 18.9472 193.977 18.418 194.311 17.9793C194.645 17.5366 195.12 17.1985 195.736 16.9651C196.352 16.7316 197.078 16.6149 197.915 16.6149C199.171 16.6149 200.161 16.8785 200.886 17.4058C201.61 17.929 202.01 18.6494 202.087 19.567ZM209.004 16.7357V18.909H203.154V16.7357H209.004ZM204.379 14.5141H207.331V23.0926C207.331 23.2737 207.36 23.4206 207.416 23.5332C207.476 23.6419 207.563 23.7204 207.676 23.7687C207.788 23.813 207.923 23.8351 208.08 23.8351C208.193 23.8351 208.311 23.825 208.436 23.8049C208.565 23.7808 208.662 23.7606 208.726 23.7445L209.173 25.8756C209.032 25.9158 208.833 25.9661 208.575 26.0265C208.322 26.0869 208.018 26.1251 207.664 26.1412C206.971 26.1734 206.378 26.0929 205.883 25.8997C205.392 25.7025 205.015 25.3966 204.754 24.9821C204.496 24.5676 204.371 24.0464 204.379 23.4185V14.5141ZM218.489 19.567L215.779 19.6394C215.75 19.4462 215.674 19.2752 215.549 19.1263C215.424 18.9734 215.261 18.8546 215.06 18.7701C214.863 18.6816 214.634 18.6373 214.372 18.6373C214.03 18.6373 213.738 18.7057 213.497 18.8426C213.259 18.9794 213.143 19.1645 213.147 19.3979C213.143 19.5791 213.215 19.736 213.364 19.8688C213.517 20.0016 213.788 20.1083 214.179 20.1888L215.966 20.5269C216.891 20.7039 217.58 20.9977 218.03 21.4082C218.485 21.8188 218.715 22.3621 218.719 23.0382C218.715 23.6741 218.525 24.2275 218.151 24.6984C217.781 25.1693 217.274 25.5355 216.63 25.7971C215.986 26.0547 215.249 26.1835 214.42 26.1835C213.096 26.1835 212.052 25.9118 211.287 25.3685C210.527 24.8211 210.092 24.0886 209.983 23.171L212.899 23.0986C212.963 23.4367 213.13 23.6942 213.4 23.8713C213.67 24.0484 214.014 24.1369 214.432 24.1369C214.811 24.1369 215.119 24.0665 215.356 23.9256C215.594 23.7848 215.714 23.5976 215.718 23.3642C215.714 23.1549 215.622 22.9879 215.441 22.8631C215.259 22.7344 214.976 22.6337 214.589 22.5613L212.971 22.2534C212.042 22.0844 211.35 21.7725 210.895 21.3177C210.44 20.8589 210.215 20.2753 210.219 19.567C210.215 18.9472 210.38 18.418 210.714 17.9793C211.048 17.5366 211.523 17.1985 212.138 16.9651C212.754 16.7316 213.481 16.6149 214.318 16.6149C215.573 16.6149 216.563 16.8785 217.288 17.4058C218.012 17.929 218.413 18.6494 218.489 19.567Z" fill="white"/>
</g>
</g>
<rect x="1.05195" y="1.05839" width="225.9" height="37.9" rx="6.95" stroke="white" stroke-opacity="0.15" stroke-width="2.1"/>
<defs>
<filter id="filter0_d_8_47" x="2.28767" y="0.294107" width="39.4286" height="39.4286" filterUnits="userSpaceOnUse" color-interpolation-filters="sRGB">
<feFlood flood-opacity="0" result="BackgroundImageFix"/>
<feColorMatrix in="SourceAlpha" type="matrix" values="0 0 0 0 0 0 0 0 0 0 0 0 0 0 0 0 0 0 127 0" result="hardAlpha"/>
<feOffset/>
<feGaussianBlur stdDeviation="2.85714"/>
<feComposite in2="hardAlpha" operator="out"/>
<feColorMatrix type="matrix" values="0 0 0 0 0 0 0 0 0 0 0 0 0 0 0 0 0 0 0.25 0"/>
<feBlend mode="normal" in2="BackgroundImageFix" result="effect1_dropShadow_8_47"/>
<feBlend mode="normal" in="SourceGraphic" in2="effect1_dropShadow_8_47" result="shape"/>
</filter>
<filter id="filter1_d_8_47" x="36.402" y="3.90839" width="189.2" height="32.2" filterUnits="userSpaceOnUse" color-interpolation-filters="sRGB">
<feFlood flood-opacity="0" result="BackgroundImageFix"/>
<feColorMatrix in="SourceAlpha" type="matrix" values="0 0 0 0 0 0 0 0 0 0 0 0 0 0 0 0 0 0 127 0" result="hardAlpha"/>
<feOffset/>
<feGaussianBlur stdDeviation="2.8"/>
<feComposite in2="hardAlpha" operator="out"/>
<feColorMatrix type="matrix" values="0 0 0 0 0 0 0 0 0 0 0 0 0 0 0 0 0 0 0.25 0"/>
<feBlend mode="normal" in2="BackgroundImageFix" result="effect1_dropShadow_8_47"/>
<feBlend mode="normal" in="SourceGraphic" in2="effect1_dropShadow_8_47" result="shape"/>
</filter>
<linearGradient id="paint0_linear_8_47" x1="114.002" y1="0.00839233" x2="114.002" y2="40.0084" gradientUnits="userSpaceOnUse">
<stop stop-color="#181F29"/>
<stop offset="1" stop-color="#0F131A"/>
</linearGradient>
<clipPath id="clip0_8_47">
<rect x="0.00195312" y="0.00839233" width="228" height="40" rx="8" fill="white"/>
</clipPath>
<clipPath id="clip1_8_47">
<rect width="28" height="28" fill="white" transform="translate(8.00195 6.00845)"/>
</clipPath>
</defs>
</svg>
