<svg width="252" height="41" viewBox="0 0 252 41" fill="none" xmlns="http://www.w3.org/2000/svg">
<rect width="251.083" height="40.6293" rx="8" fill="url(#paint0_linear_1_56)"/>
<rect x="1.07143" y="1.07143" width="248.94" height="38.4864" rx="6.92857" stroke="black" stroke-opacity="0.25" stroke-width="2.14286"/>
<path d="M11.2738 28.2176C10.9252 28.2372 10.0187 28.2309 8.77415 28.2176C8.73355 28.2176 8.55435 28.2246 8.43255 28.3618C8.32685 28.4808 8.32825 28.6243 8.32965 28.7489C8.33105 28.87 8.33315 29.0352 8.45705 29.1563C8.55925 29.2557 8.68945 29.2725 8.74125 29.276H9.39575V33.1302C9.18715 33.1414 8.97855 33.1519 8.76995 33.1631C8.59705 33.1722 8.49555 33.2331 8.41155 33.3318C8.24635 33.5257 8.31985 33.812 8.33315 33.8631C8.35065 33.931 8.37795 34.0318 8.46475 34.1102C8.51515 34.1557 8.60125 34.2075 8.75735 34.2173C9.01985 34.2341 11.0659 34.2376 13.8589 34.2215C13.9051 34.2215 14.0262 34.2348 14.1144 34.1599C14.302 33.9996 14.267 33.714 14.2593 32.9657C14.2509 32.1621 14.3034 31.8961 14.0941 31.7302C13.9471 31.614 13.7392 31.6 13.707 31.5986C13.5971 31.593 13.406 31.5832 13.2744 31.7218C13.1414 31.8625 13.1624 32.0613 13.1673 32.1005L13.1386 33.1176H10.7418C10.7292 31.8408 10.7173 30.5647 10.7047 29.2879C10.7649 29.2865 10.858 29.2844 10.9721 29.2837C11.2143 29.283 11.2745 29.29 11.3837 29.2669C11.4978 29.2431 11.5832 29.2249 11.6595 29.1556C11.8058 29.0226 11.7981 28.8105 11.7953 28.7356C11.7932 28.681 11.7848 28.4311 11.6098 28.2988C11.4831 28.2029 11.327 28.2134 11.2724 28.2162L11.2738 28.2176Z" fill="black" stroke="black" stroke-width="0.07" stroke-miterlimit="10"/>
<path d="M11.6533 20.9391L11.7539 20.9469L11.7431 20.9538C11.8587 20.9756 11.933 21.0145 11.9697 21.0377C12.0039 21.0593 12.0513 21.0935 12.1064 21.1559C12.184 21.2437 12.2379 21.3361 12.2734 21.4088L12.33 21.5446L12.747 22.6657C13.012 23.368 13.4123 24.424 13.9765 25.9069C14.1145 25.91 14.222 25.9387 14.291 25.9635C14.3819 25.9959 14.4641 26.0233 14.5293 26.1032C14.6019 26.1914 14.6102 26.2895 14.6172 26.3756C14.6217 26.4268 14.6289 26.5195 14.6152 26.6188C14.6015 26.7178 14.5668 26.8278 14.4843 26.9118C14.4362 26.9603 14.3817 26.9894 14.2968 27.0085C14.214 27.027 14.0995 27.0368 13.9297 27.0456C13.5806 27.0638 13.3964 27.0587 13.1464 27.0622C12.9374 27.0657 12.6175 27.0757 12.2031 27.0377C12.0793 27.0267 11.9391 27.0115 11.8339 26.904C11.7194 26.787 11.7107 26.6262 11.7011 26.4997C11.6929 26.3873 11.6777 26.2168 11.789 26.0846C11.847 26.0151 11.9158 25.9854 11.9619 25.9645L12.0713 25.9323C12.1317 25.9215 12.2225 25.9132 12.3593 25.9118C12.4082 25.9112 12.4713 25.9122 12.5459 25.9157C12.5072 25.8279 12.4684 25.7398 12.4297 25.652C12.3863 25.5537 12.3421 25.4554 12.2988 25.3571C11.9319 25.355 11.565 25.3533 11.1982 25.3512C10.8312 25.3492 10.4638 25.3474 10.0966 25.3454C10.0147 25.5364 9.93248 25.728 9.85055 25.9196C9.95766 25.9104 10.048 25.9122 10.1142 25.9176C10.221 25.9267 10.3082 25.9345 10.4101 25.9821C10.4682 26.0087 10.5538 26.0482 10.6142 26.1364C10.6838 26.2374 10.6812 26.3455 10.6777 26.4596C10.6756 26.5356 10.6739 26.6131 10.6611 26.6842C10.6481 26.7564 10.6227 26.825 10.5693 26.8835C10.5261 26.9306 10.4756 26.9603 10.4277 26.9792L10.3027 27.0124C9.93493 27.0781 9.62738 27.0608 9.34957 27.0622C9.14803 27.0629 8.85855 27.0779 8.47262 27.0377C8.37512 27.0273 8.25013 27.0114 8.1484 26.9167C8.04449 26.819 8.01508 26.6851 8.00582 26.5817L8.00094 26.4909C7.99954 26.4468 7.99773 26.3752 8.01168 26.2995C8.02567 26.2237 8.0564 26.141 8.12301 26.0758L8.19821 26.0182C8.22132 26.0037 8.24034 25.9934 8.24899 25.9889L8.35153 25.9508C8.38593 25.9419 8.42243 25.9357 8.46578 25.9284C8.51769 25.9193 8.58491 25.9112 8.665 25.9069C9.12831 24.6428 9.59135 23.3793 10.0547 22.1159C9.96323 22.1216 9.84571 22.1272 9.70895 22.1208C9.58219 22.1145 9.48443 22.1094 9.40719 22.0983C9.32939 22.0871 9.26805 22.0687 9.21578 22.0338C9.09434 21.9525 9.00681 21.7994 8.97457 21.6364C8.94237 21.4728 8.96443 21.2917 9.07223 21.1559C9.19328 21.0033 9.37437 20.9678 9.43942 20.9577L9.4443 20.9567L10.25 20.9381C10.9877 20.925 11.5049 20.928 11.6533 20.9391ZM11.1679 22.1676L11.1601 22.1911C11.0398 22.5297 10.9191 22.8682 10.7988 23.2067C10.6784 23.5453 10.5578 23.8845 10.4375 24.2233L10.4209 24.2702H10.4707C10.9521 24.2681 11.4339 24.2654 11.916 24.2633H11.9658L11.9492 24.2165L11.2265 22.1911L11.2187 22.1676H11.1679Z" fill="black"/>
<path d="M13.5054 13.7808L8.88125 13.7521C8.83295 13.7619 8.68385 13.7997 8.57255 13.9376C8.46335 14.0734 8.45915 14.2211 8.45705 14.296C8.45495 14.3793 8.44865 14.6096 8.62155 14.7531C8.72725 14.8406 8.84835 14.8539 8.90155 14.856C8.95825 14.856 9.01425 14.856 9.07095 14.8553C9.07935 16.1405 9.08705 17.425 9.09545 18.7102C9.03525 18.7088 8.93935 18.7137 8.83155 18.7529C8.78675 18.7697 8.70275 18.8005 8.62645 18.8705C8.44935 19.0315 8.44935 19.2674 8.44935 19.2947C8.44935 19.3304 8.45215 19.5243 8.58935 19.665C8.67685 19.7553 8.80565 19.8099 9.27675 19.8176C9.59665 19.8225 13.5803 19.931 13.7854 19.7805C13.9443 19.6643 13.9499 19.3458 13.9541 18.7137C13.9583 18.097 13.945 17.7995 13.7686 17.6308C13.5964 17.4656 13.2541 17.432 13.0483 17.5734C12.9643 17.6308 12.9237 17.705 12.8957 17.7547C12.79 17.9451 12.8369 18.0977 12.8012 18.573C12.7963 18.6353 12.7914 18.6864 12.7886 18.7179C11.9857 18.7263 11.1828 18.7347 10.3799 18.7424L10.3715 17.2024C10.6886 17.1954 11.0057 17.1884 11.3228 17.1821C11.3256 17.2843 11.3291 17.3858 11.3319 17.488C11.3417 17.5342 11.3683 17.6315 11.4523 17.7106C11.5601 17.8121 11.6917 17.8177 11.7764 17.8219C11.8625 17.8261 12.1075 17.8373 12.2426 17.6581C12.3203 17.5552 12.3231 17.4355 12.3238 17.3774C12.3273 17.0575 12.3336 16.6074 12.3322 16.0551C12.3371 16.011 12.3511 15.8297 12.2272 15.6848C12.062 15.4902 11.7925 15.5266 11.7421 15.5336C11.5783 15.556 11.4663 15.64 11.418 15.682C11.39 15.7261 11.3571 15.787 11.3347 15.864C11.2955 15.997 11.3053 16.1125 11.3165 16.179H10.3218C10.3267 15.7233 10.3323 15.2669 10.3372 14.8112C11.1758 14.814 12.0151 14.8168 12.8537 14.8196C12.8509 15.0569 12.8488 15.2942 12.846 15.5315C12.8474 15.5714 12.8593 15.7723 13.0196 15.9011C13.1309 15.9907 13.2534 15.9963 13.3689 16.0012C13.448 16.0047 13.6111 16.0117 13.7392 15.9067C13.7392 15.9067 13.7686 15.8836 13.7924 15.8535C13.8799 15.7443 13.9261 15.5399 13.945 14.9141C13.9688 14.1098 13.9072 13.9488 13.7847 13.8599C13.6916 13.7927 13.5831 13.7808 13.5047 13.7815L13.5054 13.7808Z" fill="black" stroke="black" stroke-width="0.07" stroke-miterlimit="10"/>
<path d="M12.1559 6.54932H12.1579C12.3409 6.55932 12.7074 6.60334 13.0885 6.83839C13.3156 6.97838 13.4766 7.14198 13.5846 7.27491L13.6754 7.396L13.6794 7.40089L13.7379 7.54444C13.7993 7.71347 13.8608 7.9574 13.8512 8.25245C13.8405 8.6026 13.7338 8.87103 13.6618 9.02003C13.5456 9.26011 13.3896 9.40344 13.3405 9.44972H13.3395C13.0854 9.68815 12.803 9.7861 12.6217 9.83057C12.6656 9.86195 12.7178 9.90163 12.7711 9.95264C12.9184 10.0927 12.9658 10.2069 13.112 10.4566C13.1957 10.5997 13.2294 10.6469 13.2692 10.7036C13.3098 10.7615 13.357 10.8303 13.4694 11.0151L13.6003 11.2232C13.6376 11.2753 13.6742 11.3152 13.7262 11.355C13.8406 11.4417 13.9616 11.4772 14.0485 11.4937H14.0495C14.1228 11.5025 14.2591 11.5311 14.3844 11.6333C14.4009 11.6469 14.4232 11.6649 14.446 11.689L14.5133 11.7817L14.5534 11.8814C14.5798 11.9797 14.5695 12.0723 14.5622 12.1421C14.5556 12.2002 14.5417 12.2854 14.5016 12.3823L14.4997 12.3862C14.4779 12.4238 14.4423 12.4729 14.3893 12.5161C14.245 12.6324 14.0745 12.6221 14.027 12.6177C13.8788 12.6191 13.7301 12.6212 13.5817 12.6226C13.4322 12.624 13.2818 12.6251 13.1325 12.6265H13.1237V12.6245C13.0609 12.6093 12.9645 12.5806 12.86 12.523C12.7136 12.4422 12.6238 12.3463 12.529 12.2026C12.4819 12.1314 12.433 12.0478 12.3756 11.9487C12.3181 11.8494 12.2513 11.7338 12.1676 11.5972C12.0256 11.365 11.9567 11.2714 11.8981 11.1919C11.8384 11.1109 11.7882 11.0427 11.6852 10.8628C11.6385 10.7813 11.5763 10.6776 11.484 10.5562L11.3805 10.4282C11.2761 10.3072 11.1785 10.2156 11.1081 10.1548C11.0066 10.1541 10.9048 10.1545 10.8034 10.1538C10.7087 10.1532 10.6138 10.1525 10.5192 10.1519V11.4976C10.5673 11.5033 10.6157 11.5095 10.6637 11.5151C10.7218 11.5219 10.7802 11.5287 10.8385 11.5357L10.8454 11.5366L10.8346 11.5698L10.8454 11.5376C10.8964 11.5546 10.9887 11.5928 11.0631 11.6802C11.1715 11.8079 11.1753 11.9574 11.1774 12.0474L11.1784 12.1333C11.1759 12.2272 11.1582 12.3417 11.0788 12.4429C10.993 12.5522 10.8725 12.5982 10.7731 12.6167C10.6741 12.6351 10.5915 12.6272 10.5768 12.6255V12.6245C10.298 12.6231 10.0188 12.623 9.7399 12.6216C9.45946 12.6202 9.17837 12.6191 8.8981 12.6177H8.89322V12.6167C8.83826 12.6086 8.72321 12.585 8.63052 12.4917C8.50342 12.3646 8.50455 12.1946 8.50455 12.064C8.50455 11.9494 8.50293 11.7615 8.63541 11.6382C8.69564 11.5819 8.76124 11.56 8.84146 11.5337C8.96093 11.4941 9.06873 11.4864 9.14615 11.4858C9.14065 10.8516 9.13683 10.2176 9.1315 9.5835C9.12617 8.94923 9.12039 8.31462 9.1149 7.68018C9.06916 7.68 9.01169 7.6776 8.94693 7.66749C8.86494 7.65451 8.77805 7.64221 8.70767 7.60206C8.60175 7.54091 8.54982 7.42852 8.52408 7.33253C8.4983 7.2363 8.49711 7.14926 8.49673 7.12843V7.04444C8.50219 6.94074 8.53149 6.78673 8.66177 6.67237L8.71255 6.63429C8.83409 6.5566 8.97222 6.55287 9.03482 6.55225H9.06998V6.55323C9.43496 6.54964 10.5909 6.54324 12.1559 6.54932ZM11.5358 7.65284C11.2761 7.63244 10.9199 7.61979 10.486 7.65284L10.4538 7.65479V9.09913L10.487 9.10108C11.1153 9.13397 11.5995 9.10769 11.819 9.0503H11.82C11.8734 9.03606 11.9761 9.00874 12.0836 8.92921C12.2138 8.83335 12.2759 8.71718 12.2917 8.68507L12.2926 8.68604C12.3823 8.51234 12.3911 8.30673 12.3297 8.1294L12.2995 8.05518L12.2292 7.9419C12.2067 7.91248 12.1865 7.89139 12.1745 7.8794C11.9986 7.70244 11.7603 7.67098 11.5358 7.65284Z" fill="black"/>
<path d="M27.9562 6.00169C26.6192 5.98489 25.5048 6.09619 24.683 6.21589C23.7604 6.35029 22.9184 6.47699 21.8663 6.87039C21.0228 7.18609 20.3633 7.55289 19.9146 7.83359C19.6234 7.99809 19.0284 8.38799 18.6049 9.13069C18.3228 9.62559 18.2234 10.0904 18.1849 10.3907C18.1751 10.5062 18.1296 11.2013 18.6546 11.7739C19.2286 12.4004 20.0141 12.3647 20.1163 12.3584C20.2584 12.3486 20.4676 12.3283 20.7175 12.28C21.7283 12.0847 22.4157 11.6199 22.6201 11.4897C23.2081 11.1145 24.2252 10.6805 26.1117 10.4152C26.3973 10.3732 27.0091 10.3221 27.7091 10.5881C28.3503 10.8317 28.7535 11.2237 28.9446 11.4365C29.1791 11.7753 29.5053 12.3486 29.6362 13.1207C29.8924 14.6278 29.2225 15.8045 29.0104 16.1475C28.463 16.6522 27.9576 16.8825 27.5978 17.0001C27.0182 17.1884 26.6199 17.1471 25.4481 17.3956C25.1394 17.4607 24.8888 17.523 24.7278 17.5643C24.5514 17.6441 24.1573 17.852 23.892 18.2972C23.6477 18.7067 23.6463 19.0931 23.6449 19.4088C23.6428 19.875 23.64 20.5806 24.1636 21.0762C24.6165 21.5046 25.2052 21.534 25.4236 21.5333L26.5065 21.6159C27.2233 21.6621 27.7903 21.7979 28.1781 21.9162C28.7717 22.0975 29.0398 22.2655 29.191 22.3733C29.4808 22.5798 29.6776 22.8045 29.8008 22.9662C30.162 23.7243 30.3033 24.3984 30.3649 24.8562C30.4307 25.3504 30.5413 26.252 30.192 27.3146C30.01 27.8676 29.7608 28.289 29.5704 28.5662C29.3156 28.8413 28.8928 29.2277 28.2775 29.5259C27.3535 29.9739 26.5002 29.9774 26.0788 29.9501C24.8174 29.857 23.8696 29.5889 23.2256 29.353C22.7559 29.1815 22.4108 29.0135 21.323 28.5872C20.6776 28.3345 20.1435 28.1364 19.7872 28.0069C19.601 27.9684 18.9668 27.8606 18.2843 28.2043C17.5836 28.5571 17.2938 29.1535 17.2175 29.3243C17.1286 29.5224 16.8773 30.1468 17.0607 30.9217C17.214 31.5685 17.5878 31.9731 17.7523 32.132C18.2612 32.6241 18.7764 33.0581 19.5926 33.4417C20.9009 34.0563 22.0231 34.2516 22.8659 34.393C24.5563 34.6758 25.8765 34.6345 26.3126 34.6156C27.784 34.5498 29.0433 34.288 30.031 34.0024C30.6176 33.8421 31.41 33.5586 32.2542 33.035C33.2636 32.4092 33.9468 31.6882 34.3668 31.1695C34.8001 30.5955 35.4476 29.5868 35.8123 28.1798C36.2106 26.6419 36.0854 25.3434 35.9608 24.614C35.9153 24.0701 35.7472 22.9389 34.9723 21.7811C34.2828 20.75 33.4372 20.183 32.971 19.9156C32.7043 19.7749 32.4159 19.6335 32.1065 19.4956C31.7754 19.3486 31.4569 19.2219 31.1552 19.1127C31.5696 18.9076 32.1506 18.5891 32.7981 18.1243C33.3322 17.7414 33.7312 17.4551 34.1197 16.9875C34.4081 16.641 34.8624 15.9879 35.1039 14.9617C35.2691 14.4073 35.4582 13.519 35.3672 12.4291C35.2951 11.5618 35.0703 10.8625 34.8729 10.3823C34.6545 9.89019 34.2933 9.22379 33.6997 8.54969C32.9486 7.69779 32.1471 7.19939 31.6123 6.92289C31.1342 6.70869 30.5505 6.48819 29.8708 6.31319C29.1512 6.12839 28.5001 6.03949 27.9562 6.00029V6.00169Z" fill="black" stroke="black" stroke-width="0.07" stroke-miterlimit="10"/>
<g filter="url(#filter0_d_1_56)">
<path d="M43.3611 25.8146V14.1783H47.5089C48.4104 14.1783 49.1585 14.3336 49.7532 14.6442C50.3517 14.9548 50.7986 15.3847 51.0941 15.934C51.3895 16.4794 51.5373 17.1101 51.5373 17.826C51.5373 18.5381 51.3877 19.165 51.0884 19.7067C50.793 20.2446 50.346 20.6631 49.7475 20.9624C49.1528 21.2616 48.4047 21.4112 47.5032 21.4112H44.3611V19.8999H47.3441C47.9123 19.8999 48.3744 19.8184 48.7305 19.6556C49.0903 19.4927 49.3536 19.2559 49.5202 18.9453C49.6869 18.6347 49.7702 18.2616 49.7702 17.826C49.7702 17.3866 49.685 17.0059 49.5145 16.684C49.3479 16.362 49.0846 16.1158 48.7248 15.9453C48.3687 15.7711 47.9009 15.684 47.3214 15.684H45.1168V25.8146H43.3611ZM49.1055 20.5646L51.9805 25.8146H49.9805L47.1623 20.5646H49.1055ZM53.6736 25.8146V14.1783H60.9691V15.6897H55.4293V19.2351H60.5884V20.7408H55.4293V24.3033H61.0373V25.8146H53.6736ZM64.2972 25.8146H62.4336L66.6211 14.1783H68.6495L72.837 25.8146H70.9733L67.6836 16.2919H67.5927L64.2972 25.8146ZM64.6097 21.2578H70.6552V22.7351H64.6097V21.2578ZM74.5174 25.8146V14.1783H76.2731V24.3033H81.5458V25.8146H74.5174ZM87.783 25.8146V14.1783H91.9307C92.8322 14.1783 93.5804 14.3336 94.175 14.6442C94.7735 14.9548 95.2205 15.3847 95.516 15.934C95.8114 16.4794 95.9591 17.1101 95.9591 17.826C95.9591 18.5381 95.8095 19.165 95.5103 19.7067C95.2148 20.2446 94.7679 20.6631 94.1694 20.9624C93.5747 21.2616 92.8266 21.4112 91.925 21.4112H88.783V19.8999H91.766C92.3341 19.8999 92.7963 19.8184 93.1523 19.6556C93.5122 19.4927 93.7754 19.2559 93.9421 18.9453C94.1088 18.6347 94.1921 18.2616 94.1921 17.826C94.1921 17.3866 94.1069 17.0059 93.9364 16.684C93.7697 16.362 93.5065 16.1158 93.1466 15.9453C92.7906 15.7711 92.3228 15.684 91.7432 15.684H89.5387V25.8146H87.783ZM93.5273 20.5646L96.4023 25.8146H94.4023L91.5841 20.5646H93.5273ZM100.499 26.0078C99.9459 26.0078 99.4459 25.9056 98.9989 25.701C98.5519 25.4927 98.1978 25.1915 97.9364 24.7976C97.6788 24.4037 97.55 23.9207 97.55 23.3487C97.55 22.8563 97.6447 22.451 97.8341 22.1328C98.0235 21.8146 98.2792 21.5628 98.6012 21.3771C98.9232 21.1915 99.283 21.0514 99.6807 20.9567C100.078 20.862 100.484 20.79 100.897 20.7408C101.419 20.6802 101.844 20.6309 102.169 20.5931C102.495 20.5514 102.732 20.4851 102.88 20.3942C103.027 20.3033 103.101 20.1556 103.101 19.951V19.9112C103.101 19.415 102.961 19.0306 102.681 18.7578C102.404 18.4851 101.991 18.3487 101.442 18.3487C100.87 18.3487 100.419 18.4756 100.09 18.7294C99.7641 18.9794 99.5387 19.2578 99.4137 19.5646L97.8171 19.201C98.0065 18.6707 98.283 18.2427 98.6466 17.9169C99.0141 17.5874 99.4364 17.3487 99.9137 17.201C100.391 17.0495 100.893 16.9737 101.419 16.9737C101.768 16.9737 102.137 17.0154 102.527 17.0987C102.921 17.1783 103.289 17.326 103.63 17.5419C103.974 17.7578 104.256 18.0665 104.476 18.4681C104.696 18.8658 104.806 19.3828 104.806 20.0192V25.8146H103.147V24.6215H103.078C102.969 24.8412 102.804 25.0571 102.584 25.2692C102.364 25.4813 102.082 25.6575 101.738 25.7976C101.393 25.9378 100.98 26.0078 100.499 26.0078ZM100.868 24.6442C101.338 24.6442 101.739 24.5514 102.073 24.3658C102.41 24.1802 102.666 23.9378 102.84 23.6385C103.018 23.3355 103.107 23.0116 103.107 22.6669V21.5419C103.046 21.6025 102.929 21.6593 102.755 21.7124C102.584 21.7616 102.389 21.8052 102.169 21.8431C101.95 21.8771 101.736 21.9093 101.527 21.9396C101.319 21.9662 101.145 21.9889 101.005 22.0078C100.675 22.0495 100.374 22.1196 100.101 22.2181C99.8322 22.3165 99.6163 22.4586 99.4535 22.6442C99.2944 22.826 99.2148 23.0684 99.2148 23.3715C99.2148 23.7919 99.3701 24.1101 99.6807 24.326C99.9913 24.5381 100.387 24.6442 100.868 24.6442ZM111.142 17.0874V18.451H106.375V17.0874H111.142ZM107.654 14.9965H109.353V23.2521C109.353 23.5817 109.402 23.8298 109.5 23.9965C109.599 24.1593 109.726 24.2711 109.881 24.3317C110.04 24.3885 110.212 24.4169 110.398 24.4169C110.534 24.4169 110.654 24.4075 110.756 24.3885C110.858 24.3696 110.938 24.3544 110.995 24.3431L111.301 25.7465C111.203 25.7843 111.063 25.8222 110.881 25.8601C110.699 25.9018 110.472 25.9245 110.199 25.9283C109.752 25.9359 109.336 25.8563 108.949 25.6896C108.563 25.523 108.25 25.2654 108.012 24.9169C107.773 24.5684 107.654 24.1309 107.654 23.6044V14.9965ZM113.022 25.8146V17.0874H114.72V25.8146H113.022ZM113.88 15.7408C113.584 15.7408 113.33 15.6423 113.118 15.4453C112.91 15.2446 112.806 15.0059 112.806 14.7294C112.806 14.4491 112.91 14.2105 113.118 14.0135C113.33 13.8128 113.584 13.7124 113.88 13.7124C114.175 13.7124 114.427 13.8128 114.635 14.0135C114.847 14.2105 114.953 14.4491 114.953 14.7294C114.953 15.0059 114.847 15.2446 114.635 15.4453C114.427 15.6423 114.175 15.7408 113.88 15.7408ZM118.705 20.6328V25.8146H117.006V17.0874H118.637V18.5078H118.745C118.945 18.0457 119.26 17.6745 119.688 17.3942C120.12 17.1139 120.663 16.9737 121.319 16.9737C121.913 16.9737 122.434 17.0987 122.881 17.3487C123.328 17.595 123.675 17.9624 123.921 18.451C124.167 18.9396 124.29 19.5438 124.29 20.2635V25.8146H122.591V20.4681C122.591 19.8355 122.426 19.3412 122.097 18.9851C121.767 18.6253 121.315 18.4453 120.739 18.4453C120.345 18.4453 119.995 18.5306 119.688 18.701C119.385 18.8715 119.144 19.1215 118.966 19.451C118.792 19.7768 118.705 20.1707 118.705 20.6328ZM130.228 29.2692C129.534 29.2692 128.938 29.1783 128.438 28.9965C127.942 28.8146 127.536 28.5741 127.222 28.2749C126.908 27.9756 126.673 27.648 126.517 27.2919L127.978 26.6896C128.08 26.8563 128.216 27.0324 128.387 27.2181C128.561 27.4074 128.796 27.5684 129.091 27.701C129.39 27.8336 129.775 27.8999 130.245 27.8999C130.889 27.8999 131.421 27.7427 131.841 27.4283C132.262 27.1177 132.472 26.6215 132.472 25.9396V24.2237H132.364C132.262 24.4093 132.114 24.6158 131.921 24.8431C131.731 25.0703 131.47 25.2673 131.137 25.434C130.803 25.6006 130.37 25.684 129.836 25.684C129.146 25.684 128.525 25.523 127.972 25.201C127.423 24.8753 126.987 24.3961 126.665 23.7635C126.347 23.1271 126.188 22.345 126.188 21.4169C126.188 20.4889 126.345 19.6934 126.659 19.0306C126.978 18.3677 127.413 17.8601 127.966 17.5078C128.519 17.1518 129.146 16.9737 129.847 16.9737C130.389 16.9737 130.826 17.0646 131.159 17.2465C131.493 17.4245 131.752 17.6328 131.938 17.8715C132.127 18.1101 132.273 18.3203 132.375 18.5021H132.5V17.0874H134.165V26.0078C134.165 26.7578 133.991 27.3734 133.642 27.8544C133.294 28.3355 132.822 28.6915 132.228 28.9226C131.637 29.1537 130.97 29.2692 130.228 29.2692ZM130.211 24.2749C130.699 24.2749 131.112 24.1612 131.449 23.934C131.79 23.7029 132.048 23.3734 132.222 22.9453C132.4 22.5135 132.489 21.9965 132.489 21.3942C132.489 20.8071 132.402 20.29 132.228 19.8431C132.053 19.3961 131.798 19.0476 131.461 18.7976C131.123 18.5438 130.707 18.4169 130.211 18.4169C129.699 18.4169 129.273 18.5495 128.932 18.8146C128.591 19.076 128.334 19.4321 128.159 19.8828C127.989 20.3336 127.904 20.8374 127.904 21.3942C127.904 21.9662 127.991 22.4681 128.165 22.8999C128.339 23.3317 128.597 23.6688 128.938 23.9112C129.283 24.1537 129.707 24.2749 130.211 24.2749Z" fill="black"/>
<path d="M141.018 13.951H144.719L147.858 21.6058H148.003L151.142 13.951H154.843V26.3146H151.933V18.7202H151.831L148.86 26.2362H147.001L144.031 18.6779H143.928V26.3146H141.018V13.951ZM161.035 26.4897C160.061 26.4897 159.224 26.2905 158.524 25.8921C157.828 25.4896 157.29 24.9302 156.912 24.2138C156.538 23.4934 156.351 22.6583 156.351 21.7085C156.351 20.7546 156.538 19.9195 156.912 19.2031C157.29 18.4827 157.828 17.9233 158.524 17.5249C159.224 17.1224 160.061 16.9212 161.035 16.9212C162.009 16.9212 162.844 17.1224 163.541 17.5249C164.241 17.9233 164.778 18.4827 165.153 19.2031C165.531 19.9195 165.72 20.7546 165.72 21.7085C165.72 22.6583 165.531 23.4934 165.153 24.2138C164.778 24.9302 164.241 25.4896 163.541 25.8921C162.844 26.2905 162.009 26.4897 161.035 26.4897ZM161.053 24.2621C161.408 24.2621 161.707 24.1534 161.953 23.9361C162.198 23.7188 162.386 23.4169 162.514 23.0306C162.647 22.6442 162.714 22.1975 162.714 21.6904C162.714 21.1752 162.647 20.7244 162.514 20.3381C162.386 19.9517 162.198 19.6499 161.953 19.4325C161.707 19.2152 161.408 19.1066 161.053 19.1066C160.687 19.1066 160.377 19.2152 160.124 19.4325C159.874 19.6499 159.683 19.9517 159.55 20.3381C159.422 20.7244 159.357 21.1752 159.357 21.6904C159.357 22.1975 159.422 22.6442 159.55 23.0306C159.683 23.4169 159.874 23.7188 160.124 23.9361C160.377 24.1534 160.687 24.2621 161.053 24.2621ZM170.619 26.4475C169.935 26.4475 169.313 26.2704 168.754 25.9162C168.194 25.562 167.747 25.0308 167.413 24.3225C167.079 23.6141 166.912 22.7347 166.912 21.6843C166.912 20.5936 167.085 19.6962 167.432 18.9919C167.778 18.2875 168.23 17.7664 168.79 17.4283C169.353 17.0902 169.959 16.9212 170.607 16.9212C171.094 16.9212 171.51 17.0057 171.857 17.1747C172.203 17.3397 172.488 17.553 172.714 17.8146C172.939 18.0762 173.11 18.3479 173.227 18.6296H173.287V13.951H176.239V26.3146H173.318V24.8115H173.227C173.102 25.0972 172.925 25.3648 172.696 25.6144C172.466 25.8639 172.179 26.0651 171.832 26.2181C171.49 26.371 171.086 26.4475 170.619 26.4475ZM171.645 24.1474C172.003 24.1474 172.309 24.0468 172.563 23.8455C172.816 23.6403 173.012 23.3525 173.148 22.9823C173.285 22.612 173.354 22.1773 173.354 21.6783C173.354 21.1712 173.285 20.7345 173.148 20.3683C173.016 20.002 172.82 19.7203 172.563 19.5231C172.309 19.3259 172.003 19.2273 171.645 19.2273C171.279 19.2273 170.969 19.3279 170.716 19.5291C170.462 19.7304 170.269 20.0141 170.136 20.3803C170.007 20.7466 169.943 21.1792 169.943 21.6783C169.943 22.1773 170.009 22.612 170.142 22.9823C170.275 23.3525 170.466 23.6403 170.716 23.8455C170.969 24.0468 171.279 24.1474 171.645 24.1474ZM182.441 26.4897C181.471 26.4897 180.634 26.2985 179.929 25.9162C179.229 25.5298 178.69 24.9805 178.312 24.2681C177.937 23.5517 177.75 22.7005 177.75 21.7145C177.75 20.7566 177.939 19.9195 178.318 19.2031C178.696 18.4827 179.229 17.9233 179.917 17.5249C180.606 17.1224 181.417 16.9212 182.35 16.9212C183.01 16.9212 183.614 17.0238 184.161 17.2291C184.709 17.4343 185.182 17.7382 185.58 18.1406C185.978 18.5431 186.288 19.0401 186.51 19.6318C186.731 20.2194 186.842 20.8935 186.842 21.6541V22.3906H178.782V20.6762H184.095C184.091 20.3622 184.016 20.0825 183.872 19.837C183.727 19.5915 183.527 19.4003 183.274 19.2635C183.024 19.1227 182.737 19.0522 182.411 19.0522C182.081 19.0522 181.785 19.1267 181.523 19.2756C181.262 19.4205 181.054 19.6197 180.901 19.8732C180.748 20.1228 180.668 20.4065 180.66 20.7244V22.4691C180.66 22.8474 180.734 23.1795 180.883 23.4652C181.032 23.7469 181.243 23.9663 181.517 24.1232C181.791 24.2802 182.117 24.3587 182.495 24.3587C182.757 24.3587 182.994 24.3225 183.208 24.25C183.421 24.1776 183.604 24.0709 183.757 23.9301C183.91 23.7892 184.025 23.6161 184.101 23.4109L186.812 23.4894C186.699 24.0971 186.451 24.6263 186.069 25.0771C185.691 25.5238 185.194 25.8719 184.578 26.1215C183.962 26.367 183.25 26.4897 182.441 26.4897ZM188.349 26.3146V17.0419H191.217V18.7323H191.314C191.483 18.1205 191.758 17.6657 192.141 17.3679C192.523 17.0661 192.968 16.9151 193.475 16.9151C193.612 16.9151 193.753 16.9252 193.897 16.9453C194.042 16.9614 194.177 16.9876 194.302 17.0238V19.5895C194.161 19.5412 193.976 19.503 193.746 19.4748C193.521 19.4466 193.32 19.4325 193.143 19.4325C192.793 19.4325 192.477 19.511 192.195 19.668C191.917 19.8209 191.698 20.0362 191.537 20.3139C191.38 20.5876 191.302 20.9096 191.302 21.2798V26.3146H188.349ZM197.77 26.4716C197.178 26.4716 196.653 26.373 196.194 26.1758C195.74 25.9746 195.379 25.6727 195.114 25.2703C194.852 24.8638 194.721 24.3547 194.721 23.7429C194.721 23.2278 194.812 22.7931 194.993 22.4389C195.174 22.0848 195.424 21.797 195.742 21.5757C196.06 21.3543 196.426 21.1873 196.84 21.0746C197.255 20.9579 197.698 20.8794 198.169 20.8392C198.696 20.7909 199.12 20.7405 199.442 20.6882C199.764 20.6319 199.998 20.5534 200.143 20.4528C200.292 20.3481 200.366 20.2012 200.366 20.0121V19.9819C200.366 19.672 200.259 19.4325 200.046 19.2635C199.833 19.0945 199.545 19.01 199.183 19.01C198.792 19.01 198.478 19.0945 198.241 19.2635C198.004 19.4325 197.853 19.666 197.788 19.9638L195.066 19.8672C195.146 19.3038 195.353 18.8007 195.687 18.358C196.025 17.9112 196.488 17.5611 197.076 17.3075C197.667 17.05 198.378 16.9212 199.207 16.9212C199.799 16.9212 200.344 16.9916 200.843 17.1325C201.342 17.2693 201.777 17.4705 202.147 17.7362C202.517 17.9978 202.803 18.3197 203.004 18.7021C203.209 19.0844 203.312 19.5211 203.312 20.0121V26.3146H200.535V25.0227H200.463C200.298 25.3367 200.086 25.6023 199.829 25.8196C199.575 26.0369 199.275 26.1999 198.929 26.3086C198.587 26.4173 198.201 26.4716 197.77 26.4716ZM198.682 24.5398C199 24.5398 199.285 24.4754 199.539 24.3466C199.796 24.2178 200.002 24.0407 200.155 23.8154C200.308 23.586 200.384 23.3203 200.384 23.0185V22.1371C200.3 22.1814 200.197 22.2216 200.076 22.2578C199.959 22.2941 199.831 22.3283 199.69 22.3605C199.549 22.3927 199.404 22.4208 199.255 22.445C199.106 22.4691 198.963 22.4913 198.827 22.5114C198.549 22.5557 198.311 22.6241 198.114 22.7166C197.921 22.8092 197.772 22.9299 197.667 23.0789C197.567 23.2237 197.517 23.3968 197.517 23.598C197.517 23.9039 197.625 24.1373 197.843 24.2983C198.064 24.4593 198.344 24.5398 198.682 24.5398ZM210.351 17.0419V19.2152H204.501V17.0419H210.351ZM205.727 14.8203H208.679V23.3988C208.679 23.5799 208.707 23.7268 208.763 23.8395C208.824 23.9482 208.91 24.0267 209.023 24.0749C209.136 24.1192 209.27 24.1414 209.427 24.1414C209.54 24.1414 209.659 24.1313 209.784 24.1112C209.912 24.087 210.009 24.0669 210.073 24.0508L210.52 26.1818C210.379 26.2221 210.18 26.2724 209.922 26.3328C209.669 26.3931 209.365 26.4314 209.011 26.4475C208.319 26.4797 207.725 26.3992 207.23 26.206C206.739 26.0088 206.363 25.7029 206.101 25.2884C205.843 24.8738 205.719 24.3526 205.727 23.7248V14.8203ZM216.092 26.4897C215.122 26.4897 214.285 26.2985 213.581 25.9162C212.881 25.5298 212.341 24.9805 211.963 24.2681C211.589 23.5517 211.401 22.7005 211.401 21.7145C211.401 20.7566 211.591 19.9195 211.969 19.2031C212.347 18.4827 212.881 17.9233 213.569 17.5249C214.257 17.1224 215.068 16.9212 216.002 16.9212C216.662 16.9212 217.265 17.0238 217.813 17.2291C218.36 17.4343 218.833 17.7382 219.231 18.1406C219.63 18.5431 219.94 19.0401 220.161 19.6318C220.382 20.2194 220.493 20.8935 220.493 21.6541V22.3906H212.434V20.6762H217.746C217.742 20.3622 217.668 20.0825 217.523 19.837C217.378 19.5915 217.179 19.4003 216.925 19.2635C216.676 19.1227 216.388 19.0522 216.062 19.0522C215.732 19.0522 215.436 19.1267 215.175 19.2756C214.913 19.4205 214.706 19.6197 214.553 19.8732C214.4 20.1228 214.319 20.4065 214.311 20.7244V22.4691C214.311 22.8474 214.386 23.1795 214.535 23.4652C214.684 23.7469 214.895 23.9663 215.169 24.1232C215.442 24.2802 215.768 24.3587 216.147 24.3587C216.408 24.3587 216.646 24.3225 216.859 24.25C217.072 24.1776 217.255 24.0709 217.408 23.9301C217.561 23.7892 217.676 23.6161 217.752 23.4109L220.463 23.4894C220.35 24.0971 220.103 24.6263 219.72 25.0771C219.342 25.5238 218.845 25.8719 218.229 26.1215C217.613 26.367 216.901 26.4897 216.092 26.4897ZM228.328 26.3146H225.116L229.287 13.951H233.266L237.437 26.3146H234.226L231.322 17.0661H231.225L228.328 26.3146ZM227.899 21.4489H234.612V23.7188H227.899V21.4489ZM241.757 13.951V26.3146H238.768V13.951H241.757Z" fill="black"/>
</g>
<defs>
<filter id="filter0_d_1_56" x="36.3684" y="5.10037" width="212.429" height="30.4286" filterUnits="userSpaceOnUse" color-interpolation-filters="sRGB">
<feFlood flood-opacity="0" result="BackgroundImageFix"/>
<feColorMatrix in="SourceAlpha" type="matrix" values="0 0 0 0 0 0 0 0 0 0 0 0 0 0 0 0 0 0 127 0" result="hardAlpha"/>
<feOffset/>
<feGaussianBlur stdDeviation="2.85714"/>
<feComposite in2="hardAlpha" operator="out"/>
<feColorMatrix type="matrix" values="0 0 0 0 0 0 0 0 0 0 0 0 0 0 0 0 0 0 0.25 0"/>
<feBlend mode="normal" in2="BackgroundImageFix" result="effect1_dropShadow_1_56"/>
<feBlend mode="normal" in="SourceGraphic" in2="effect1_dropShadow_1_56" result="shape"/>
</filter>
<linearGradient id="paint0_linear_1_56" x1="125.541" y1="0" x2="125.541" y2="40.6293" gradientUnits="userSpaceOnUse">
<stop stop-color="white"/>
<stop offset="1" stop-color="#DEDEDE" stop-opacity="0.9"/>
</linearGradient>
</defs>
</svg>
