<svg width="122" height="40" viewBox="0 0 122 40" fill="none" xmlns="http://www.w3.org/2000/svg">
<rect x="-0.000488281" y="-3.05176e-05" width="122" height="40" rx="6" fill="url(#paint0_linear_4_232)"/>
<g filter="url(#filter0_d_4_232)">
<path d="M28.7957 27.0114C28.0338 27.0114 27.3989 26.7511 26.891 26.3605C26.2561 25.8398 25.7481 25.0586 25.7481 24.1473C25.7481 23.6266 26.2561 23.6266 26.2561 23.6266H27.3989C27.7799 23.6266 27.9069 24.1473 27.9069 24.2775C28.0338 25.5794 28.7957 26.1001 29.3037 26.3605C29.5577 26.4907 29.4307 27.0114 28.7957 27.0114ZM22.1925 20.6323L19.9068 20.3719C18.8909 19.9814 18.8909 19.0701 19.0179 18.8097C19.1449 17.8984 19.5259 16.9871 19.9068 16.206C20.5417 15.2947 21.4306 14.3834 22.5735 13.7325C24.7322 12.4306 27.7799 11.6495 31.0815 11.6495C33.4942 11.6495 36.0339 12.04 36.0339 12.04C36.2879 12.04 36.4148 12.3004 36.4148 12.5608C36.4148 12.8212 36.2879 13.0815 36.0339 13.0815H35.018C31.5894 13.0815 29.1767 13.6023 27.3989 14.6438C25.6211 15.6852 24.3513 17.2475 23.5894 19.4606C23.4624 19.5908 23.2084 20.7625 22.1925 20.6323ZM25.1132 30.1359C23.4624 30.1359 21.8116 29.3548 20.6687 28.0529C19.6528 26.8812 19.0179 25.7096 18.8909 24.2775C18.7639 23.236 19.2719 22.9757 19.7798 22.9757L22.0655 23.236C22.5735 23.3662 22.9544 23.6266 23.0814 24.2775C23.5894 27.5322 25.4941 28.834 26.764 29.2246C27.018 29.2246 27.1449 29.3548 27.1449 29.6151C27.1449 29.8755 27.018 30.0057 26.764 30.1359C26.1291 30.1359 25.6211 30.1359 25.1132 30.1359ZM20.2878 33C19.3989 33 18.51 32.8698 17.6211 32.7396C16.2242 32.4792 15.0814 32.0887 14.0655 31.3076C11.6528 29.7453 10.256 26.8812 10.002 23.6266C10.002 22.8455 9.875 21.2832 11.6528 21.4134C12.4147 21.4134 13.5576 21.804 14.4465 22.0644C15.4623 22.3247 15.9703 23.236 15.9703 24.0172C15.9703 28.7038 20.0338 31.8283 21.8116 31.8283C22.5735 31.8283 22.3195 32.7396 21.9386 32.7396C21.4306 33 20.6687 33 20.2878 33ZM14.0655 19.3305C13.3036 19.2003 12.6687 18.9399 12.0337 18.6795C10.002 18.1588 10.3829 15.9456 10.5099 15.4249C12.4147 9.69669 18.383 7.7439 23.2084 7.22316C27.7799 6.70242 32.4783 7.09297 36.9228 8.39483C37.3037 8.52502 38.4466 8.78539 37.8117 9.43632C37.4307 9.82688 35.7799 9.43632 35.399 9.43632C32.8593 9.17595 30.1926 9.17595 27.6529 9.56651C24.8592 9.95707 22.0655 10.8684 19.9068 12.8212C18.637 13.7325 16.7322 16.9871 16.7322 17.3777C16.6052 17.7682 16.0973 19.5908 14.0655 19.3305ZM25.6211 20.3719C26.0021 18.5493 27.7799 15.6852 33.1132 15.9456C34.3831 15.9456 33.7482 16.8569 33.1132 16.8569C30.0656 16.7267 28.6688 18.8097 27.9069 20.7625C27.6529 21.4134 27.1449 21.5436 26.383 21.4134C26.0021 21.2832 25.4941 21.2832 25.6211 20.3719Z" fill="#F1F1F1"/>
</g>
<g filter="url(#filter1_d_4_232)">
<path d="M46.4839 11.039V9.99997H52.6753V11.039H50.1792V18H48.9761V11.039H46.4839ZM53.3267 18V12H54.4556V12.9531H54.5181C54.6274 12.6302 54.8201 12.3763 55.0962 12.1914C55.3748 12.0039 55.6899 11.9101 56.0415 11.9101C56.1144 11.9101 56.2004 11.9127 56.2993 11.9179C56.4009 11.9231 56.4803 11.9297 56.5376 11.9375V13.0547C56.4907 13.0416 56.4074 13.0273 56.2876 13.0117C56.1678 12.9935 56.048 12.9843 55.9282 12.9843C55.6522 12.9843 55.4061 13.0429 55.1899 13.1601C54.9764 13.2747 54.8071 13.4349 54.6821 13.6406C54.5571 13.8437 54.4946 14.0755 54.4946 14.3359V18H53.3267ZM59.2407 18.1328C58.8605 18.1328 58.5168 18.0625 58.2095 17.9218C57.9022 17.7786 57.6587 17.5716 57.479 17.3007C57.3019 17.0299 57.2134 16.6979 57.2134 16.3047C57.2134 15.9661 57.2785 15.6875 57.4087 15.4687C57.5389 15.25 57.7147 15.0768 57.936 14.9492C58.1574 14.8216 58.4048 14.7252 58.6782 14.6601C58.9517 14.595 59.2303 14.5455 59.5142 14.5117C59.8735 14.47 60.1652 14.4362 60.3892 14.4101C60.6131 14.3815 60.7759 14.3359 60.8774 14.2734C60.979 14.2109 61.0298 14.1093 61.0298 13.9687V13.9414C61.0298 13.6002 60.9334 13.3359 60.7407 13.1484C60.5506 12.9609 60.2668 12.8672 59.8892 12.8672C59.4959 12.8672 59.186 12.9544 58.9595 13.1289C58.7355 13.3007 58.5806 13.4922 58.4946 13.7031L57.397 13.4531C57.5272 13.0885 57.7173 12.7942 57.9673 12.5703C58.2199 12.3437 58.5103 12.1797 58.8384 12.0781C59.1665 11.9739 59.5116 11.9218 59.8735 11.9218C60.1131 11.9218 60.367 11.9505 60.6352 12.0078C60.9061 12.0625 61.1587 12.164 61.3931 12.3125C61.63 12.4609 61.8241 12.6731 61.9751 12.9492C62.1261 13.2226 62.2017 13.5781 62.2017 14.0156V18H61.061V17.1797H61.0142C60.9386 17.3307 60.8254 17.4791 60.6743 17.625C60.5233 17.7708 60.3293 17.8919 60.0923 17.9882C59.8553 18.0846 59.5714 18.1328 59.2407 18.1328ZM59.4946 17.1953C59.8175 17.1953 60.0936 17.1315 60.3227 17.0039C60.5545 16.8763 60.7303 16.7096 60.8501 16.5039C60.9725 16.2955 61.0337 16.0729 61.0337 15.8359V15.0625C60.992 15.1041 60.9113 15.1432 60.7915 15.1797C60.6743 15.2135 60.5402 15.2435 60.3892 15.2695C60.2381 15.2929 60.091 15.3151 59.9477 15.3359C59.8045 15.3541 59.6847 15.3698 59.5884 15.3828C59.3618 15.4114 59.1548 15.4596 58.9673 15.5273C58.7824 15.595 58.6339 15.6927 58.522 15.8203C58.4126 15.9453 58.3579 16.1119 58.3579 16.3203C58.3579 16.6093 58.4647 16.8281 58.6782 16.9765C58.8918 17.1224 59.1639 17.1953 59.4946 17.1953ZM64.9253 14.4375V18H63.7573V12H64.8784V12.9765H64.9526C65.0907 12.6588 65.3068 12.4036 65.6011 12.2109C65.8979 12.0182 66.2716 11.9218 66.7222 11.9218C67.131 11.9218 67.4891 12.0078 67.7964 12.1797C68.1037 12.3489 68.342 12.6015 68.5112 12.9375C68.6805 13.2734 68.7651 13.6888 68.7651 14.1836V18H67.5972V14.3242C67.5972 13.8893 67.4839 13.5494 67.2573 13.3047C67.0308 13.0573 66.7196 12.9336 66.3237 12.9336C66.0529 12.9336 65.812 12.9922 65.6011 13.1093C65.3927 13.2265 65.2274 13.3984 65.105 13.625C64.9852 13.8489 64.9253 14.1198 64.9253 14.4375ZM74.8276 13.4648L73.769 13.6523C73.7248 13.5169 73.6545 13.388 73.5581 13.2656C73.4643 13.1432 73.3367 13.0429 73.1753 12.9648C73.0138 12.8867 72.812 12.8476 72.5698 12.8476C72.2391 12.8476 71.963 12.9218 71.7417 13.0703C71.5203 13.2161 71.4097 13.4049 71.4097 13.6367C71.4097 13.8372 71.4839 13.9987 71.6323 14.1211C71.7808 14.2435 72.0203 14.3437 72.3511 14.4218L73.3042 14.6406C73.8563 14.7682 74.2677 14.9648 74.5386 15.2304C74.8094 15.4961 74.9448 15.8411 74.9448 16.2656C74.9448 16.625 74.8406 16.9453 74.6323 17.2265C74.4266 17.5052 74.1388 17.7239 73.769 17.8828C73.4018 18.0416 72.9761 18.1211 72.4917 18.1211C71.8198 18.1211 71.2716 17.9778 70.8472 17.6914C70.4227 17.4023 70.1623 16.9922 70.0659 16.4609L71.1948 16.289C71.2651 16.5833 71.4097 16.806 71.6284 16.957C71.8472 17.1054 72.1323 17.1797 72.4839 17.1797C72.8667 17.1797 73.1727 17.1002 73.4018 16.9414C73.631 16.7799 73.7456 16.5833 73.7456 16.3515C73.7456 16.164 73.6753 16.0065 73.5347 15.8789C73.3966 15.7513 73.1844 15.6549 72.8979 15.5898L71.8823 15.3672C71.3224 15.2396 70.9084 15.0364 70.6401 14.7578C70.3745 14.4791 70.2417 14.1263 70.2417 13.6992C70.2417 13.345 70.3407 13.0351 70.5386 12.7695C70.7365 12.5039 71.0099 12.2968 71.3589 12.1484C71.7078 11.9974 72.1076 11.9218 72.5581 11.9218C73.2065 11.9218 73.717 12.0625 74.0893 12.3437C74.4617 12.6224 74.7078 12.9961 74.8276 13.4648ZM77.397 9.99997V18H76.229V9.99997H77.397ZM80.7143 18.1328C80.3341 18.1328 79.9904 18.0625 79.6831 17.9218C79.3758 17.7786 79.1323 17.5716 78.9526 17.3007C78.7755 17.0299 78.687 16.6979 78.687 16.3047C78.687 15.9661 78.7521 15.6875 78.8823 15.4687C79.0125 15.25 79.1883 15.0768 79.4097 14.9492C79.631 14.8216 79.8784 14.7252 80.1518 14.6601C80.4253 14.595 80.7039 14.5455 80.9878 14.5117C81.3472 14.47 81.6388 14.4362 81.8628 14.4101C82.0867 14.3815 82.2495 14.3359 82.3511 14.2734C82.4526 14.2109 82.5034 14.1093 82.5034 13.9687V13.9414C82.5034 13.6002 82.4071 13.3359 82.2143 13.1484C82.0242 12.9609 81.7404 12.8672 81.3628 12.8672C80.9696 12.8672 80.6597 12.9544 80.4331 13.1289C80.2091 13.3007 80.0542 13.4922 79.9683 13.7031L78.8706 13.4531C79.0008 13.0885 79.1909 12.7942 79.4409 12.5703C79.6935 12.3437 79.9839 12.1797 80.312 12.0781C80.6401 11.9739 80.9852 11.9218 81.3472 11.9218C81.5867 11.9218 81.8406 11.9505 82.1089 12.0078C82.3797 12.0625 82.6323 12.164 82.8667 12.3125C83.1037 12.4609 83.2977 12.6731 83.4487 12.9492C83.5998 13.2226 83.6753 13.5781 83.6753 14.0156V18H82.5347V17.1797H82.4878C82.4123 17.3307 82.299 17.4791 82.1479 17.625C81.9969 17.7708 81.8029 17.8919 81.5659 17.9882C81.3289 18.0846 81.0451 18.1328 80.7143 18.1328ZM80.9683 17.1953C81.2912 17.1953 81.5672 17.1315 81.7964 17.0039C82.0281 16.8763 82.2039 16.7096 82.3237 16.5039C82.4461 16.2955 82.5073 16.0729 82.5073 15.8359V15.0625C82.4656 15.1041 82.3849 15.1432 82.2651 15.1797C82.1479 15.2135 82.0138 15.2435 81.8628 15.2695C81.7117 15.2929 81.5646 15.3151 81.4214 15.3359C81.2781 15.3541 81.1584 15.3698 81.062 15.3828C80.8354 15.4114 80.6284 15.4596 80.4409 15.5273C80.256 15.595 80.1076 15.6927 79.9956 15.8203C79.8862 15.9453 79.8315 16.1119 79.8315 16.3203C79.8315 16.6093 79.9383 16.8281 80.1518 16.9765C80.3654 17.1224 80.6375 17.1953 80.9683 17.1953ZM88.0317 12V12.9375H84.7544V12H88.0317ZM85.6333 10.5625H86.8013V16.2382C86.8013 16.4648 86.8351 16.6354 86.9028 16.75C86.9705 16.8619 87.0578 16.9388 87.1645 16.9804C87.2739 17.0195 87.3924 17.039 87.52 17.039C87.6138 17.039 87.6958 17.0325 87.7661 17.0195C87.8364 17.0065 87.8911 16.9961 87.9302 16.9882L88.1411 17.9531C88.0734 17.9791 87.977 18.0052 87.852 18.0312C87.727 18.0599 87.5708 18.0755 87.3833 18.0781C87.076 18.0833 86.7895 18.0286 86.5239 17.914C86.2583 17.7994 86.0434 17.6224 85.8794 17.3828C85.7153 17.1432 85.6333 16.8424 85.6333 16.4804V10.5625ZM91.8452 18.1211C91.2541 18.1211 90.7449 17.9948 90.3179 17.7422C89.8934 17.4869 89.5653 17.1289 89.3335 16.6679C89.1043 16.2044 88.9897 15.6614 88.9897 15.039C88.9897 14.4244 89.1043 13.8828 89.3335 13.414C89.5653 12.9453 89.8882 12.5794 90.3022 12.3164C90.7189 12.0534 91.2059 11.9218 91.7632 11.9218C92.1017 11.9218 92.4298 11.9778 92.7475 12.0898C93.0653 12.2018 93.3504 12.3776 93.603 12.6172C93.8556 12.8567 94.0548 13.1679 94.2007 13.5507C94.3465 13.931 94.4194 14.3932 94.4194 14.9375V15.3515H89.6499V14.4765H93.2749C93.2749 14.1692 93.2124 13.8971 93.0874 13.6601C92.9624 13.4205 92.7866 13.2317 92.56 13.0937C92.3361 12.9557 92.0731 12.8867 91.771 12.8867C91.4429 12.8867 91.1564 12.9674 90.9116 13.1289C90.6694 13.2877 90.4819 13.4961 90.3491 13.7539C90.2189 14.0091 90.1538 14.2864 90.1538 14.5859V15.2695C90.1538 15.6705 90.2241 16.0117 90.3647 16.2929C90.508 16.5742 90.7072 16.789 90.9624 16.9375C91.2176 17.0833 91.5158 17.1562 91.8569 17.1562C92.0783 17.1562 92.2801 17.125 92.4624 17.0625C92.6447 16.9974 92.8022 16.901 92.935 16.7734C93.0679 16.6458 93.1694 16.4882 93.2397 16.3007L94.3452 16.5C94.2567 16.8255 94.0978 17.1106 93.8686 17.3554C93.6421 17.5976 93.3569 17.7864 93.0132 17.9218C92.672 18.0547 92.2827 18.1211 91.8452 18.1211ZM101.154 18.1211C100.591 18.1211 100.1 17.9922 99.6811 17.7343C99.2619 17.4765 98.9363 17.1159 98.7046 16.6523C98.4728 16.1888 98.3569 15.6471 98.3569 15.0273C98.3569 14.4049 98.4728 13.8606 98.7046 13.3945C98.9363 12.9284 99.2619 12.5664 99.6811 12.3086C100.1 12.0507 100.591 11.9218 101.154 11.9218C101.716 11.9218 102.207 12.0507 102.626 12.3086C103.046 12.5664 103.371 12.9284 103.603 13.3945C103.835 13.8606 103.951 14.4049 103.951 15.0273C103.951 15.6471 103.835 16.1888 103.603 16.6523C103.371 17.1159 103.046 17.4765 102.626 17.7343C102.207 17.9922 101.716 18.1211 101.154 18.1211ZM101.158 17.1406C101.522 17.1406 101.824 17.0442 102.064 16.8515C102.304 16.6588 102.481 16.4023 102.595 16.082C102.712 15.7617 102.771 15.4088 102.771 15.0234C102.771 14.6406 102.712 14.289 102.595 13.9687C102.481 13.6458 102.304 13.3867 102.064 13.1914C101.824 12.9961 101.522 12.8984 101.158 12.8984C100.791 12.8984 100.486 12.9961 100.244 13.1914C100.004 13.3867 99.8257 13.6458 99.7085 13.9687C99.5939 14.289 99.5366 14.6406 99.5366 15.0234C99.5366 15.4088 99.5939 15.7617 99.7085 16.082C99.8257 16.4023 100.004 16.6588 100.244 16.8515C100.486 17.0442 100.791 17.1406 101.158 17.1406ZM106.422 14.4375V18H105.254V12H106.375V12.9765H106.45C106.588 12.6588 106.804 12.4036 107.098 12.2109C107.395 12.0182 107.769 11.9218 108.219 11.9218C108.628 11.9218 108.986 12.0078 109.293 12.1797C109.601 12.3489 109.839 12.6015 110.008 12.9375C110.178 13.2734 110.262 13.6888 110.262 14.1836V18H109.094V14.3242C109.094 13.8893 108.981 13.5494 108.754 13.3047C108.528 13.0573 108.217 12.9336 107.821 12.9336C107.55 12.9336 107.309 12.9922 107.098 13.1093C106.89 13.2265 106.724 13.3984 106.602 13.625C106.482 13.8489 106.422 14.1198 106.422 14.4375Z" fill="#E8E8E8"/>
<path d="M54.5819 25.4346H52.4512C52.4228 25.2159 52.3646 25.0184 52.2765 24.8423C52.1884 24.6662 52.072 24.5156 51.9271 24.3906C51.7822 24.2656 51.6103 24.1704 51.4114 24.1051C51.2154 24.0369 50.9981 24.0028 50.7595 24.0028C50.3362 24.0028 49.9711 24.1065 49.6643 24.3139C49.3603 24.5213 49.1259 24.821 48.9612 25.213C48.7992 25.6051 48.7183 26.0795 48.7183 26.6363C48.7183 27.2159 48.8006 27.7017 48.9654 28.0937C49.133 28.4829 49.3674 28.777 49.6685 28.9758C49.9725 29.1718 50.3319 29.2699 50.7467 29.2699C50.9796 29.2699 51.1913 29.24 51.3816 29.1804C51.5748 29.1207 51.7438 29.0341 51.8887 28.9204C52.0364 28.8039 52.1572 28.6633 52.2509 28.4985C52.3475 28.3309 52.4143 28.142 52.4512 27.9318L54.5819 27.9446C54.545 28.3309 54.4327 28.7116 54.2452 29.0866C54.0606 29.4616 53.8063 29.8039 53.4825 30.1136C53.1586 30.4204 52.7637 30.6647 52.2978 30.8466C51.8347 31.0284 51.3035 31.1193 50.7041 31.1193C49.9143 31.1193 49.2069 30.946 48.5819 30.5994C47.9597 30.25 47.4683 29.7414 47.1075 29.0738C46.7467 28.4062 46.5663 27.5937 46.5663 26.6363C46.5663 25.6761 46.7495 24.8622 47.116 24.1946C47.4825 23.527 47.9782 23.0199 48.6032 22.6733C49.2282 22.3267 49.9285 22.1534 50.7041 22.1534C51.2325 22.1534 51.7211 22.2272 52.17 22.375C52.6188 22.5199 53.0137 22.7329 53.3546 23.0142C53.6955 23.2926 53.9725 23.6349 54.1856 24.0412C54.3987 24.4474 54.5308 24.9119 54.5819 25.4346ZM55.7889 31V24.4545H57.8131V25.6477H57.8813C58.0006 25.2159 58.1952 24.8949 58.4651 24.6846C58.7349 24.4716 59.0489 24.365 59.4068 24.365C59.5034 24.365 59.6028 24.3721 59.7051 24.3863C59.8074 24.3977 59.9026 24.4162 59.9906 24.4417V26.2528C59.8912 26.2187 59.7605 26.1917 59.5986 26.1718C59.4395 26.152 59.2974 26.142 59.1724 26.142C58.9253 26.142 58.7023 26.1974 58.5034 26.3082C58.3074 26.4162 58.1526 26.5681 58.0389 26.7642C57.9281 26.9574 57.8727 27.1846 57.8727 27.446V31H55.7889ZM63.5553 31.1235C62.8678 31.1235 62.2769 30.9829 61.7825 30.7017C61.2911 30.4176 60.9118 30.0227 60.6447 29.517C60.3805 29.0085 60.2484 28.419 60.2484 27.7485C60.2484 27.0753 60.3805 26.4858 60.6447 25.9801C60.9118 25.4716 61.2911 25.0767 61.7825 24.7954C62.2769 24.5113 62.8678 24.3693 63.5553 24.3693C64.2428 24.3693 64.8322 24.5113 65.3237 24.7954C65.818 25.0767 66.1973 25.4716 66.4615 25.9801C66.7286 26.4858 66.8621 27.0753 66.8621 27.7485C66.8621 28.419 66.7286 29.0085 66.4615 29.517C66.1973 30.0227 65.818 30.4176 65.3237 30.7017C64.8322 30.9829 64.2428 31.1235 63.5553 31.1235ZM63.568 29.5511C63.818 29.5511 64.0297 29.4744 64.203 29.321C64.3763 29.1676 64.5084 28.9545 64.5993 28.6818C64.693 28.4091 64.7399 28.0937 64.7399 27.7358C64.7399 27.3721 64.693 27.0539 64.5993 26.7812C64.5084 26.5085 64.3763 26.2954 64.203 26.142C64.0297 25.9886 63.818 25.9119 63.568 25.9119C63.3095 25.9119 63.0908 25.9886 62.9118 26.142C62.7357 26.2954 62.6007 26.5085 62.507 26.7812C62.4161 27.0539 62.3706 27.3721 62.3706 27.7358C62.3706 28.0937 62.4161 28.4091 62.507 28.6818C62.6007 28.9545 62.7357 29.1676 62.9118 29.321C63.0908 29.4744 63.3095 29.5511 63.568 29.5511ZM69.0119 31L67.3074 24.4545H69.3997L70.2818 28.6477H70.3372L71.2832 24.4545H73.3244L74.296 28.6179H74.3514L75.208 24.4545H77.3003L75.5915 31H73.3628L72.3401 27.186H72.2676L71.2449 31H69.0119ZM80.3866 31.0937C79.9036 31.0937 79.4647 30.9687 79.0698 30.7187C78.6749 30.4687 78.3596 30.0937 78.1238 29.5937C77.888 29.0937 77.7701 28.473 77.7701 27.7315C77.7701 26.9616 77.8923 26.3281 78.1366 25.8309C78.3809 25.3338 78.7005 24.9659 79.0954 24.7272C79.4931 24.4886 79.9207 24.3693 80.3781 24.3693C80.7218 24.3693 81.0158 24.4289 81.2602 24.5483C81.5045 24.6647 81.7062 24.8153 81.8653 25C82.0244 25.1846 82.1451 25.3764 82.2275 25.5753H82.2701V22.2727H84.3539V31H82.2914V29.9389H82.2275C82.1394 30.1406 82.0144 30.3295 81.8525 30.5056C81.6906 30.6818 81.4874 30.8238 81.2431 30.9318C81.0016 31.0397 80.7161 31.0937 80.3866 31.0937ZM81.111 29.4701C81.3638 29.4701 81.5798 29.3991 81.7587 29.2571C81.9377 29.1122 82.0755 28.9091 82.1721 28.6477C82.2687 28.3863 82.317 28.0795 82.317 27.7272C82.317 27.3693 82.2687 27.061 82.1721 26.8025C82.0783 26.544 81.9406 26.3451 81.7587 26.2059C81.5798 26.0667 81.3638 25.9971 81.111 25.9971C80.8525 25.9971 80.6337 26.0681 80.4548 26.2102C80.2758 26.3522 80.1394 26.5525 80.0457 26.811C79.9548 27.0696 79.9093 27.375 79.9093 27.7272C79.9093 28.0795 79.9562 28.3863 80.0499 28.6477C80.1437 28.9091 80.2786 29.1122 80.4548 29.2571C80.6337 29.3991 80.8525 29.4701 81.111 29.4701ZM85.6717 31V24.4545H87.7555V31H85.6717ZM86.7158 23.6917C86.4232 23.6917 86.1717 23.5951 85.9615 23.402C85.7513 23.2059 85.6462 22.9701 85.6462 22.6946C85.6462 22.4218 85.7513 22.1889 85.9615 21.9957C86.1717 21.7997 86.4232 21.7017 86.7158 21.7017C87.0112 21.7017 87.2626 21.7997 87.47 21.9957C87.6803 22.1889 87.7854 22.4218 87.7854 22.6946C87.7854 22.9701 87.6803 23.2059 87.47 23.402C87.2626 23.5951 87.0112 23.6917 86.7158 23.6917ZM91.1657 27.267V31H89.0819V24.4545H91.0634V25.6562H91.1359C91.2807 25.2556 91.5279 24.9417 91.8773 24.7145C92.2268 24.4843 92.643 24.3693 93.1259 24.3693C93.5861 24.3693 93.9853 24.473 94.3234 24.6804C94.6643 24.8849 94.9285 25.1718 95.116 25.5412C95.3063 25.9076 95.4001 26.3366 95.3972 26.8281V31H93.3134V27.2372C93.3163 26.8735 93.2239 26.5895 93.0364 26.3849C92.8518 26.1804 92.5947 26.0781 92.2651 26.0781C92.0464 26.0781 91.8532 26.1264 91.6856 26.223C91.5208 26.3167 91.393 26.4517 91.3021 26.6278C91.214 26.8039 91.1685 27.017 91.1657 27.267Z" fill="#F1F1F1"/>
</g>
<rect x="0.749512" y="0.749969" width="120.5" height="38.5" rx="5.25" stroke="white" stroke-opacity="0.15" stroke-width="1.5"/>
<defs>
<filter id="filter0_d_4_232" x="5.99951" y="1.99997" width="36.0005" height="36" filterUnits="userSpaceOnUse" color-interpolation-filters="sRGB">
<feFlood flood-opacity="0" result="BackgroundImageFix"/>
<feColorMatrix in="SourceAlpha" type="matrix" values="0 0 0 0 0 0 0 0 0 0 0 0 0 0 0 0 0 0 127 0" result="hardAlpha"/>
<feOffset/>
<feGaussianBlur stdDeviation="2"/>
<feComposite in2="hardAlpha" operator="out"/>
<feColorMatrix type="matrix" values="0 0 0 0 0 0 0 0 0 0 0 0 0 0 0 0 0 0 0.25 0"/>
<feBlend mode="normal" in2="BackgroundImageFix" result="effect1_dropShadow_4_232"/>
<feBlend mode="normal" in="SourceGraphic" in2="effect1_dropShadow_4_232" result="shape"/>
</filter>
<filter id="filter1_d_4_232" x="41.9995" y="2.99997" width="74" height="34" filterUnits="userSpaceOnUse" color-interpolation-filters="sRGB">
<feFlood flood-opacity="0" result="BackgroundImageFix"/>
<feColorMatrix in="SourceAlpha" type="matrix" values="0 0 0 0 0 0 0 0 0 0 0 0 0 0 0 0 0 0 127 0" result="hardAlpha"/>
<feOffset/>
<feGaussianBlur stdDeviation="2"/>
<feComposite in2="hardAlpha" operator="out"/>
<feColorMatrix type="matrix" values="0 0 0 0 0 0 0 0 0 0 0 0 0 0 0 0 0 0 0.25 0"/>
<feBlend mode="normal" in2="BackgroundImageFix" result="effect1_dropShadow_4_232"/>
<feBlend mode="normal" in="SourceGraphic" in2="effect1_dropShadow_4_232" result="shape"/>
</filter>
<linearGradient id="paint0_linear_4_232" x1="60.9995" y1="-3.05176e-05" x2="60.9995" y2="40" gradientUnits="userSpaceOnUse">
<stop stop-color="#273227"/>
<stop offset="1" stop-color="#181F18"/>
</linearGradient>
</defs>
</svg>
