<svg width="171" height="56" viewBox="0 0 171 56" fill="none" xmlns="http://www.w3.org/2000/svg">
<rect x="-0.000732422" y="-4.57764e-05" width="171" height="56" rx="8" fill="url(#paint0_linear_4_232)"/>
<g filter="url(#filter0_d_4_232)">
<path d="M38.8511 38.0163C37.7626 38.0163 36.8556 37.6444 36.13 37.0864C35.2229 36.3425 34.4973 35.2266 34.4973 33.9248C34.4973 33.1809 35.2229 33.1809 35.2229 33.1809H36.8556C37.3998 33.1809 37.5812 33.9248 37.5812 34.1108C37.7626 35.9706 38.8511 36.7145 39.5767 37.0864C39.9395 37.2724 39.7581 38.0163 38.8511 38.0163ZM29.4179 28.9033L26.1526 28.5314C24.7013 27.9734 24.7013 26.6716 24.8827 26.2996C25.0641 24.9977 25.6084 23.6959 26.1526 22.58C27.0596 21.2781 28.3295 19.9763 29.9621 19.0464C33.046 17.1866 37.3998 16.0707 42.1164 16.0707C45.5631 16.0707 49.1913 16.6286 49.1913 16.6286C49.5541 16.6286 49.7355 17.0006 49.7355 17.3726C49.7355 17.7445 49.5541 18.1165 49.1913 18.1165H47.74C42.842 18.1165 39.3953 18.8604 36.8556 20.3482C34.3159 21.8361 32.5018 24.0678 31.4134 27.2295C31.232 27.4155 30.8692 29.0893 29.4179 28.9033ZM33.5903 42.4798C31.232 42.4798 28.8737 41.364 27.241 39.5042C25.7898 37.8304 24.8827 36.1565 24.7013 34.1108C24.5199 32.6229 25.2455 32.251 25.9712 32.251L29.2365 32.6229C29.9621 32.8089 30.5063 33.1809 30.6878 34.1108C31.4134 38.7603 34.1345 40.6201 35.9486 41.178C36.3114 41.178 36.4928 41.364 36.4928 41.7359C36.4928 42.1079 36.3114 42.2939 35.9486 42.4798C35.0415 42.4798 34.3159 42.4798 33.5903 42.4798ZM26.6968 46.5714C25.427 46.5714 24.1571 46.3854 22.8873 46.1994C20.8918 45.8275 19.2591 45.2695 17.8079 44.1537C14.3611 41.9219 12.3656 37.8304 12.0028 33.1809C12.0028 32.065 11.8214 29.8332 14.3611 30.0192C15.4496 30.0192 17.0822 30.5771 18.3521 30.9491C19.8033 31.3211 20.529 32.6229 20.529 33.7388C20.529 40.4341 26.334 44.8976 28.8737 44.8976C29.9621 44.8976 29.5993 46.1994 29.0551 46.1994C28.3295 46.5714 27.241 46.5714 26.6968 46.5714ZM17.8079 27.0435C16.7194 26.8575 15.8124 26.4856 14.9053 26.1136C12.0028 25.3697 12.5471 22.208 12.7285 21.4641C15.4496 13.281 23.9757 10.4913 30.8692 9.74738C37.3998 9.00346 44.1119 9.5614 50.4611 11.4212C51.0053 11.6072 52.638 11.9791 51.731 12.909C51.1867 13.467 48.8285 12.909 48.2842 12.909C44.6561 12.5371 40.8465 12.5371 37.2184 13.095C33.2275 13.653 29.2365 14.9548 26.1526 17.7445C24.3385 19.0464 21.6174 23.6959 21.6174 24.2538C21.436 24.8118 20.7104 27.4155 17.8079 27.0435ZM34.3159 28.5314C34.8601 25.9276 37.3998 21.8361 45.0189 22.208C46.833 22.208 45.9259 23.5099 45.0189 23.5099C40.6651 23.3239 38.6697 26.2996 37.5812 29.0893C37.2184 30.0192 36.4928 30.2052 35.4043 30.0192C34.8601 29.8332 34.1345 29.8332 34.3159 28.5314Z" fill="#F1F1F1"/>
</g>
<g filter="url(#filter1_d_4_232)">
<path d="M64.7038 14.375V12.8636H73.7095V14.375H70.0788V24.4999H68.3288V14.375H64.7038ZM74.6569 24.4999V15.7727H76.299V17.159H76.3899C76.549 16.6893 76.8293 16.32 77.2308 16.0511C77.6361 15.7784 78.0944 15.642 78.6058 15.642C78.7119 15.642 78.8369 15.6458 78.9808 15.6534C79.1285 15.6609 79.2441 15.6704 79.3274 15.6818V17.3068C79.2592 17.2878 79.138 17.267 78.9638 17.2443C78.7895 17.2178 78.6153 17.2045 78.441 17.2045C78.0395 17.2045 77.6816 17.2897 77.3672 17.4602C77.0566 17.6268 76.8103 17.8598 76.6285 18.159C76.4467 18.4545 76.3558 18.7916 76.3558 19.1704V24.4999H74.6569ZM83.2592 24.6931C82.7062 24.6931 82.2062 24.5909 81.7592 24.3863C81.3122 24.178 80.9581 23.8768 80.6967 23.4829C80.4391 23.089 80.3103 22.606 80.3103 22.034C80.3103 21.5416 80.405 21.1363 80.5944 20.8181C80.7838 20.5 81.0395 20.2481 81.3615 20.0625C81.6834 19.8768 82.0433 19.7367 82.441 19.642C82.8388 19.5473 83.2441 19.4753 83.6569 19.4261C84.1797 19.3655 84.6039 19.3162 84.9297 19.2784C85.2554 19.2367 85.4922 19.1704 85.6399 19.0795C85.7876 18.9886 85.8615 18.8409 85.8615 18.6363V18.5965C85.8615 18.1003 85.7213 17.7159 85.441 17.4431C85.1645 17.1704 84.7516 17.034 84.2024 17.034C83.6304 17.034 83.1797 17.1609 82.8501 17.4147C82.5244 17.6647 82.299 17.9431 82.174 18.25L80.5774 17.8863C80.7668 17.356 81.0433 16.928 81.4069 16.6022C81.7744 16.2727 82.1967 16.034 82.674 15.8863C83.1513 15.7348 83.6531 15.659 84.1797 15.659C84.5281 15.659 84.8975 15.7007 85.2876 15.784C85.6816 15.8636 86.049 16.0113 86.3899 16.2272C86.7346 16.4431 87.0168 16.7518 87.2365 17.1534C87.4562 17.5511 87.566 18.0681 87.566 18.7045V24.4999H85.9069V23.3068H85.8388C85.7289 23.5265 85.5641 23.7424 85.3444 23.9545C85.1247 24.1666 84.8425 24.3428 84.4978 24.4829C84.1531 24.6231 83.7403 24.6931 83.2592 24.6931ZM83.6285 23.3295C84.0982 23.3295 84.4997 23.2367 84.8331 23.0511C85.1702 22.8655 85.4259 22.6231 85.6001 22.3238C85.7781 22.0208 85.8672 21.6969 85.8672 21.3522V20.2272C85.8066 20.2878 85.6891 20.3446 85.5149 20.3977C85.3444 20.4469 85.1494 20.4905 84.9297 20.5284C84.71 20.5625 84.4959 20.5946 84.2876 20.625C84.0793 20.6515 83.905 20.6742 83.7649 20.6931C83.4353 20.7348 83.1342 20.8049 82.8615 20.9034C82.5925 21.0018 82.3766 21.1439 82.2138 21.3295C82.0547 21.5113 81.9751 21.7537 81.9751 22.0568C81.9751 22.4772 82.1304 22.7954 82.441 23.0113C82.7516 23.2234 83.1475 23.3295 83.6285 23.3295ZM91.5277 19.3181V24.4999H89.8288V15.7727H91.4595V17.1931H91.5674C91.7682 16.731 92.0826 16.3598 92.5106 16.0795C92.9424 15.7992 93.486 15.659 94.1413 15.659C94.736 15.659 95.2568 15.784 95.7038 16.034C96.1508 16.2803 96.4974 16.6477 96.7436 17.1363C96.9898 17.625 97.1129 18.2291 97.1129 18.9488V24.4999H95.414V19.1534C95.414 18.5208 95.2493 18.0265 94.9197 17.6704C94.5902 17.3106 94.1375 17.1306 93.5618 17.1306C93.1678 17.1306 92.8174 17.2159 92.5106 17.3863C92.2076 17.5568 91.9671 17.8068 91.789 18.1363C91.6148 18.4621 91.5277 18.856 91.5277 19.3181ZM105.931 17.9034L104.391 18.1761C104.327 17.9791 104.225 17.7916 104.084 17.6136C103.948 17.4356 103.763 17.2897 103.528 17.1761C103.293 17.0625 102.999 17.0056 102.647 17.0056C102.166 17.0056 101.764 17.1136 101.442 17.3295C101.12 17.5416 100.959 17.8162 100.959 18.1534C100.959 18.445 101.067 18.6799 101.283 18.8579C101.499 19.0359 101.848 19.1818 102.329 19.2954L103.715 19.6136C104.518 19.7992 105.117 20.0852 105.511 20.4715C105.905 20.8579 106.102 21.3598 106.102 21.9772C106.102 22.5 105.95 22.9659 105.647 23.375C105.348 23.7803 104.929 24.0984 104.391 24.3295C103.857 24.5606 103.238 24.6761 102.533 24.6761C101.556 24.6761 100.759 24.4678 100.141 24.0511C99.5239 23.6306 99.1451 23.034 99.0049 22.2613L100.647 22.0113C100.749 22.4393 100.959 22.7632 101.278 22.9829C101.596 23.1988 102.011 23.3068 102.522 23.3068C103.079 23.3068 103.524 23.1912 103.857 22.9602C104.191 22.7253 104.357 22.4393 104.357 22.1022C104.357 21.8295 104.255 21.6003 104.05 21.4147C103.85 21.2291 103.541 21.089 103.124 20.9943L101.647 20.6704C100.833 20.4848 100.23 20.1893 99.8402 19.784C99.4538 19.3787 99.2606 18.8655 99.2606 18.2443C99.2606 17.7291 99.4046 17.2784 99.6924 16.892C99.9803 16.5056 100.378 16.2045 100.886 15.9886C101.393 15.7689 101.975 15.659 102.63 15.659C103.573 15.659 104.316 15.8636 104.857 16.2727C105.399 16.678 105.757 17.2215 105.931 17.9034ZM109.668 12.8636V24.4999H107.969V12.8636H109.668ZM114.494 24.6931C113.941 24.6931 113.441 24.5909 112.994 24.3863C112.547 24.178 112.192 23.8768 111.931 23.4829C111.673 23.089 111.545 22.606 111.545 22.034C111.545 21.5416 111.639 21.1363 111.829 20.8181C112.018 20.5 112.274 20.2481 112.596 20.0625C112.918 19.8768 113.278 19.7367 113.675 19.642C114.073 19.5473 114.478 19.4753 114.891 19.4261C115.414 19.3655 115.838 19.3162 116.164 19.2784C116.49 19.2367 116.727 19.1704 116.874 19.0795C117.022 18.9886 117.096 18.8409 117.096 18.6363V18.5965C117.096 18.1003 116.956 17.7159 116.675 17.4431C116.399 17.1704 115.986 17.034 115.437 17.034C114.865 17.034 114.414 17.1609 114.084 17.4147C113.759 17.6647 113.533 17.9431 113.408 18.25L111.812 17.8863C112.001 17.356 112.278 16.928 112.641 16.6022C113.009 16.2727 113.431 16.034 113.908 15.8863C114.386 15.7348 114.888 15.659 115.414 15.659C115.763 15.659 116.132 15.7007 116.522 15.784C116.916 15.8636 117.283 16.0113 117.624 16.2272C117.969 16.4431 118.251 16.7518 118.471 17.1534C118.691 17.5511 118.8 18.0681 118.8 18.7045V24.4999H117.141V23.3068H117.073C116.963 23.5265 116.798 23.7424 116.579 23.9545C116.359 24.1666 116.077 24.3428 115.732 24.4829C115.388 24.6231 114.975 24.6931 114.494 24.6931ZM114.863 23.3295C115.333 23.3295 115.734 23.2367 116.067 23.0511C116.405 22.8655 116.66 22.6231 116.834 22.3238C117.013 22.0208 117.102 21.6969 117.102 21.3522V20.2272C117.041 20.2878 116.923 20.3446 116.749 20.3977C116.579 20.4469 116.384 20.4905 116.164 20.5284C115.944 20.5625 115.73 20.5946 115.522 20.625C115.314 20.6515 115.139 20.6742 114.999 20.6931C114.67 20.7348 114.369 20.8049 114.096 20.9034C113.827 21.0018 113.611 21.1439 113.448 21.3295C113.289 21.5113 113.209 21.7537 113.209 22.0568C113.209 22.4772 113.365 22.7954 113.675 23.0113C113.986 23.2234 114.382 23.3295 114.863 23.3295ZM125.137 15.7727V17.1363H120.37V15.7727H125.137ZM121.648 13.6818H123.347V21.9375C123.347 22.267 123.397 22.5151 123.495 22.6818C123.593 22.8446 123.72 22.9564 123.876 23.017C124.035 23.0738 124.207 23.1022 124.393 23.1022C124.529 23.1022 124.648 23.0928 124.751 23.0738C124.853 23.0549 124.932 23.0397 124.989 23.0284L125.296 24.4318C125.198 24.4696 125.057 24.5075 124.876 24.5454C124.694 24.5871 124.467 24.6098 124.194 24.6136C123.747 24.6212 123.33 24.5416 122.944 24.3749C122.557 24.2083 122.245 23.9507 122.006 23.6022C121.768 23.2537 121.648 22.8162 121.648 22.2897V13.6818ZM130.684 24.6761C129.824 24.6761 129.084 24.4924 128.462 24.1249C127.845 23.7537 127.368 23.2329 127.03 22.5625C126.697 21.8882 126.53 21.0984 126.53 20.1931C126.53 19.2992 126.697 18.5113 127.03 17.8295C127.368 17.1477 127.837 16.6155 128.44 16.2329C129.046 15.8503 129.754 15.659 130.565 15.659C131.057 15.659 131.534 15.7405 131.996 15.9034C132.459 16.0662 132.873 16.3219 133.241 16.6704C133.608 17.0189 133.898 17.4715 134.11 18.0284C134.322 18.5814 134.428 19.2537 134.428 20.0454V20.6477H127.491V19.375H132.763C132.763 18.928 132.673 18.5321 132.491 18.1875C132.309 17.839 132.053 17.5643 131.724 17.3636C131.398 17.1628 131.015 17.0625 130.576 17.0625C130.099 17.0625 129.682 17.1799 129.326 17.4147C128.974 17.6458 128.701 17.9488 128.508 18.3238C128.318 18.695 128.224 19.0984 128.224 19.534V20.5284C128.224 21.1117 128.326 21.6079 128.53 22.017C128.739 22.4261 129.029 22.7386 129.4 22.9545C129.771 23.1666 130.205 23.2727 130.701 23.2727C131.023 23.2727 131.316 23.2272 131.582 23.1363C131.847 23.0416 132.076 22.9015 132.269 22.7159C132.462 22.5303 132.61 22.3011 132.712 22.0284L134.32 22.3181C134.191 22.7916 133.96 23.2064 133.627 23.5625C133.298 23.9147 132.883 24.1893 132.383 24.3863C131.887 24.5795 131.32 24.6761 130.684 24.6761ZM144.224 24.6761C143.405 24.6761 142.691 24.4886 142.082 24.1136C141.472 23.7386 140.998 23.214 140.661 22.5397C140.324 21.8655 140.155 21.0776 140.155 20.1761C140.155 19.2708 140.324 18.4791 140.661 17.8011C140.998 17.1231 141.472 16.5965 142.082 16.2215C142.691 15.8465 143.405 15.659 144.224 15.659C145.042 15.659 145.756 15.8465 146.366 16.2215C146.976 16.5965 147.449 17.1231 147.786 17.8011C148.123 18.4791 148.292 19.2708 148.292 20.1761C148.292 21.0776 148.123 21.8655 147.786 22.5397C147.449 23.214 146.976 23.7386 146.366 24.1136C145.756 24.4886 145.042 24.6761 144.224 24.6761ZM144.229 23.25C144.76 23.25 145.199 23.1098 145.548 22.8295C145.896 22.5492 146.154 22.1761 146.32 21.7102C146.491 21.2443 146.576 20.731 146.576 20.1704C146.576 19.6136 146.491 19.1022 146.32 18.6363C146.154 18.1666 145.896 17.7897 145.548 17.5056C145.199 17.2215 144.76 17.0795 144.229 17.0795C143.695 17.0795 143.252 17.2215 142.9 17.5056C142.551 17.7897 142.292 18.1666 142.121 18.6363C141.955 19.1022 141.871 19.6136 141.871 20.1704C141.871 20.731 141.955 21.2443 142.121 21.7102C142.292 22.1761 142.551 22.5492 142.9 22.8295C143.252 23.1098 143.695 23.25 144.229 23.25ZM151.887 19.3181V24.4999H150.188V15.7727H151.819V17.1931H151.927C152.128 16.731 152.442 16.3598 152.87 16.0795C153.302 15.7992 153.845 15.659 154.501 15.659C155.095 15.659 155.616 15.784 156.063 16.034C156.51 16.2803 156.857 16.6477 157.103 17.1363C157.349 17.625 157.472 18.2291 157.472 18.9488V24.4999H155.773V19.1534C155.773 18.5208 155.609 18.0265 155.279 17.6704C154.95 17.3106 154.497 17.1306 153.921 17.1306C153.527 17.1306 153.177 17.2159 152.87 17.3863C152.567 17.5568 152.326 17.8068 152.148 18.1363C151.974 18.4621 151.887 18.856 151.887 19.3181Z" fill="#E8E8E8"/>
<path d="M76.1576 35.6157H73.1392C73.0989 35.3058 73.0164 35.0261 72.8917 34.7766C72.7669 34.5271 72.6019 34.3138 72.3966 34.1367C72.1914 33.9596 71.9479 33.8248 71.6662 33.7322C71.3885 33.6356 71.0806 33.5873 70.7425 33.5873C70.1429 33.5873 69.6257 33.7342 69.191 34.028C68.7604 34.3218 68.4284 34.7464 68.1949 35.3018C67.9655 35.8572 67.8508 36.5293 67.8508 37.3181C67.8508 38.1392 67.9675 38.8274 68.201 39.3828C68.4384 39.9341 68.7705 40.3507 69.1971 40.6324C69.6277 40.9101 70.1368 41.049 70.7244 41.049C71.0544 41.049 71.3543 41.0067 71.6239 40.9222C71.8976 40.8377 72.137 40.7149 72.3423 40.5539C72.5516 40.3889 72.7226 40.1897 72.8554 39.9563C72.9923 39.7188 73.0869 39.4512 73.1392 39.1534L76.1576 39.1715C76.1053 39.7188 75.9464 40.2581 75.6807 40.7894C75.4191 41.3206 75.0589 41.8056 74.6001 42.2443C74.1413 42.6789 73.5819 43.025 72.9219 43.2826C72.2658 43.5402 71.5132 43.669 70.664 43.669C69.5452 43.669 68.5431 43.4235 67.6576 42.9325C66.7763 42.4375 66.08 41.717 65.5689 40.7713C65.0577 39.8255 64.8022 38.6744 64.8022 37.3181C64.8022 35.9578 65.0618 34.8048 65.5809 33.859C66.1001 32.9132 66.8024 32.1948 67.6878 31.7038C68.5732 31.2128 69.5653 30.9673 70.664 30.9673C71.4126 30.9673 72.1049 31.0719 72.7407 31.2812C73.3766 31.4865 73.9361 31.7883 74.419 32.1867C74.902 32.5812 75.2944 33.0661 75.5962 33.6416C75.8981 34.2172 76.0852 34.8752 76.1576 35.6157ZM77.8676 43.4999V34.2272H80.7351V35.9176H80.8317C81.0008 35.3058 81.2765 34.851 81.6588 34.5532C82.0411 34.2514 82.4859 34.1004 82.993 34.1004C83.1298 34.1004 83.2707 34.1105 83.4155 34.1306C83.5604 34.1467 83.6953 34.1729 83.82 34.2091V36.7748C83.6792 36.7265 83.494 36.6883 83.2646 36.6601C83.0392 36.6319 82.838 36.6178 82.6609 36.6178C82.3108 36.6178 81.9949 36.6963 81.7131 36.8533C81.4354 37.0062 81.2161 37.2215 81.0551 37.4992C80.8981 37.7729 80.8197 38.0949 80.8197 38.4651V43.4999H77.8676ZM88.8699 43.675C87.896 43.675 87.0588 43.4758 86.3585 43.0774C85.6623 42.6749 85.125 42.1155 84.7467 41.3991C84.3724 40.6787 84.1853 39.8436 84.1853 38.8938C84.1853 37.9399 84.3724 37.1048 84.7467 36.3884C85.125 35.668 85.6623 35.1086 86.3585 34.7102C87.0588 34.3077 87.896 34.1065 88.8699 34.1065C89.8439 34.1065 90.679 34.3077 91.3752 34.7102C92.0755 35.1086 92.6128 35.668 92.9871 36.3884C93.3654 37.1048 93.5546 37.9399 93.5546 38.8938C93.5546 39.8436 93.3654 40.6787 92.9871 41.3991C92.6128 42.1155 92.0755 42.6749 91.3752 43.0774C90.679 43.4758 89.8439 43.675 88.8699 43.675ZM88.888 41.4474C89.2422 41.4474 89.542 41.3387 89.7875 41.1214C90.033 40.9041 90.2202 40.6022 90.349 40.2159C90.4818 39.8295 90.5482 39.3828 90.5482 38.8757C90.5482 38.3605 90.4818 37.9098 90.349 37.5234C90.2202 37.137 90.033 36.8352 89.7875 36.6178C89.542 36.4005 89.2422 36.2919 88.888 36.2919C88.5218 36.2919 88.2119 36.4005 87.9583 36.6178C87.7088 36.8352 87.5176 37.137 87.3848 37.5234C87.256 37.9098 87.1916 38.3605 87.1916 38.8757C87.1916 39.3828 87.256 39.8295 87.3848 40.2159C87.5176 40.6022 87.7088 40.9041 87.9583 41.1214C88.2119 41.3387 88.5218 41.4474 88.888 41.4474ZM96.6002 43.4999L94.1854 34.2272H97.1496L98.3992 40.1676H98.4777L99.8179 34.2272H102.71L104.086 40.1253H104.164L105.378 34.2272H108.342L105.921 43.4999H102.764L101.315 38.0969H101.212L99.7636 43.4999H96.6002ZM112.714 43.6328C112.03 43.6328 111.408 43.4557 110.849 43.1015C110.289 42.7473 109.843 42.2161 109.509 41.5078C109.175 40.7994 109.008 39.9201 109.008 38.8696C109.008 37.779 109.181 36.8815 109.527 36.1772C109.873 35.4728 110.326 34.9517 110.885 34.6136C111.449 34.2755 112.054 34.1065 112.702 34.1065C113.189 34.1065 113.606 34.191 113.952 34.36C114.298 34.525 114.584 34.7384 114.809 35C115.034 35.2616 115.206 35.5332 115.322 35.8149H115.383V31.1363H118.335V43.4999H115.413V41.9968H115.322C115.197 42.2825 115.02 42.5501 114.791 42.7997C114.562 43.0492 114.274 43.2504 113.928 43.4034C113.586 43.5563 113.181 43.6328 112.714 43.6328ZM113.741 41.3327C114.099 41.3327 114.405 41.2321 114.658 41.0308C114.912 40.8256 115.107 40.5378 115.244 40.1676C115.381 39.7973 115.449 39.3626 115.449 38.8636C115.449 38.3565 115.381 37.9198 115.244 37.5536C115.111 37.1873 114.916 36.9056 114.658 36.7084C114.405 36.5112 114.099 36.4126 113.741 36.4126C113.374 36.4126 113.064 36.5132 112.811 36.7144C112.557 36.9157 112.364 37.1994 112.231 37.5656C112.103 37.9319 112.038 38.3645 112.038 38.8636C112.038 39.3626 112.105 39.7973 112.237 40.1676C112.37 40.5378 112.561 40.8256 112.811 41.0308C113.064 41.2321 113.374 41.3327 113.741 41.3327ZM120.202 43.4999V34.2272H123.154V43.4999H120.202ZM121.681 33.1466C121.266 33.1466 120.91 33.0098 120.612 32.7361C120.314 32.4584 120.165 32.1244 120.165 31.734C120.165 31.3476 120.314 31.0176 120.612 30.7439C120.91 30.4662 121.266 30.3274 121.681 30.3274C122.099 30.3274 122.455 30.4662 122.749 30.7439C123.047 31.0176 123.196 31.3476 123.196 31.734C123.196 32.1244 123.047 32.4584 122.749 32.7361C122.455 33.0098 122.099 33.1466 121.681 33.1466ZM127.985 38.2116V43.4999H125.033V34.2272H127.84V35.9296H127.942C128.148 35.3622 128.498 34.9174 128.993 34.5955C129.488 34.2695 130.077 34.1065 130.762 34.1065C131.414 34.1065 131.979 34.2534 132.458 34.5472C132.941 34.837 133.315 35.2434 133.581 35.7666C133.851 36.2858 133.983 36.8935 133.979 37.5898V43.4999H131.027V38.1693C131.031 37.6542 130.901 37.2517 130.635 36.962C130.373 36.6722 130.009 36.5273 129.542 36.5273C129.232 36.5273 128.959 36.5957 128.721 36.7326C128.488 36.8654 128.307 37.0565 128.178 37.3061C128.053 37.5556 127.989 37.8574 127.985 38.2116Z" fill="#F1F1F1"/>
</g>
<rect x="1.04927" y="1.04995" width="168.9" height="53.9" rx="6.95" stroke="white" stroke-opacity="0.15" stroke-width="2.1"/>
<defs>
<filter id="filter0_d_4_232" x="6.28498" y="2.28567" width="51.4293" height="51.4286" filterUnits="userSpaceOnUse" color-interpolation-filters="sRGB">
<feFlood flood-opacity="0" result="BackgroundImageFix"/>
<feColorMatrix in="SourceAlpha" type="matrix" values="0 0 0 0 0 0 0 0 0 0 0 0 0 0 0 0 0 0 127 0" result="hardAlpha"/>
<feOffset/>
<feGaussianBlur stdDeviation="2.85714"/>
<feComposite in2="hardAlpha" operator="out"/>
<feColorMatrix type="matrix" values="0 0 0 0 0 0 0 0 0 0 0 0 0 0 0 0 0 0 0.25 0"/>
<feBlend mode="normal" in2="BackgroundImageFix" result="effect1_dropShadow_4_232"/>
<feBlend mode="normal" in="SourceGraphic" in2="effect1_dropShadow_4_232" result="shape"/>
</filter>
<filter id="filter1_d_4_232" x="58.3993" y="3.89995" width="106.2" height="48.2" filterUnits="userSpaceOnUse" color-interpolation-filters="sRGB">
<feFlood flood-opacity="0" result="BackgroundImageFix"/>
<feColorMatrix in="SourceAlpha" type="matrix" values="0 0 0 0 0 0 0 0 0 0 0 0 0 0 0 0 0 0 127 0" result="hardAlpha"/>
<feOffset/>
<feGaussianBlur stdDeviation="2.8"/>
<feComposite in2="hardAlpha" operator="out"/>
<feColorMatrix type="matrix" values="0 0 0 0 0 0 0 0 0 0 0 0 0 0 0 0 0 0 0.25 0"/>
<feBlend mode="normal" in2="BackgroundImageFix" result="effect1_dropShadow_4_232"/>
<feBlend mode="normal" in="SourceGraphic" in2="effect1_dropShadow_4_232" result="shape"/>
</filter>
<linearGradient id="paint0_linear_4_232" x1="85.4992" y1="-4.57764e-05" x2="85.4992" y2="55.9999" gradientUnits="userSpaceOnUse">
<stop stop-color="#273227"/>
<stop offset="1" stop-color="#181F18"/>
</linearGradient>
</defs>
</svg>
