<svg width="167" height="56" viewBox="0 0 167 56" fill="none" xmlns="http://www.w3.org/2000/svg">
<rect x="-0.000732422" y="-3.05176e-05" width="167" height="56" rx="8" fill="url(#paint0_linear_4_223)"/>
<g filter="url(#filter0_d_4_223)">
<path d="M37.6254 35.3814C37.042 35.3786 36.4606 35.2641 35.9125 35.0337C34.6779 34.515 33.5908 33.5353 32.7064 32.2098C32.9586 31.7774 33.1859 31.3297 33.3889 30.8746C34.2787 28.8789 34.7019 26.6937 34.7343 24.5246C34.7296 24.4815 34.7259 24.4384 34.7232 24.395L34.7207 24.2837C34.7187 23.4332 34.5845 22.5713 34.281 21.7688C33.9315 20.8442 33.3743 19.9188 32.4903 19.558C32.3297 19.4925 32.1607 19.465 31.9925 19.4688C30.8805 17.4643 30.8452 15.5434 31.9925 13.7143C32.013 13.7143 32.0342 13.7144 32.0546 13.7145C33.4083 13.7289 34.7493 14.1318 35.8969 14.8355C39.0217 16.7516 40.5797 20.4855 40.6141 24.1516C40.6145 24.1946 40.614 24.2376 40.6126 24.2805H40.6302C40.6256 28.155 39.6596 32.084 37.6254 35.3814H37.6254ZM30.6968 41.4631C27.7783 42.6208 24.3887 42.5587 21.4958 41.2634C18.1677 39.7734 15.6246 36.8775 14.0584 33.5719C11.3794 27.9177 11.3181 21.1586 13.8588 15.4178C15.7669 16.154 17.4635 14.9814 17.4635 14.9814C17.4635 14.9814 17.4596 16.7856 19.271 17.6905C17.4125 21.8902 17.4573 26.8797 19.3197 30.9722C20.2164 32.9414 21.5862 34.775 23.4848 35.812C24.1625 36.1821 24.9071 36.421 25.6731 36.5107C25.6759 36.515 25.6788 36.5192 25.6816 36.5235C27.0343 38.5592 28.7383 40.2557 30.6968 41.4631H30.6968Z" fill="url(#paint1_linear_4_223)"/>
<path opacity="0.3" fill-rule="evenodd" clip-rule="evenodd" d="M37.6249 35.3828C37.0417 35.3799 36.4606 35.2653 35.9128 35.0351C34.6781 34.5163 33.5908 33.5364 32.7063 32.2105C32.9587 31.7779 33.1861 31.33 33.3892 30.8746C33.6575 30.2729 33.8833 29.654 34.0688 29.0235C34.4987 27.5628 40.206 29.4167 39.3353 31.8233C38.8861 33.065 38.3174 34.2605 37.6249 35.3828ZM30.6958 41.4636C27.7776 42.6208 24.3886 42.5585 21.4961 41.2634C18.168 39.7734 21.5865 34.775 23.4852 35.812C24.1625 36.1819 24.9068 36.4208 25.6725 36.5106C25.6756 36.5153 25.6788 36.5201 25.682 36.5249C27.0343 38.5601 28.7379 40.2563 30.6958 41.4636V41.4636Z" fill="url(#paint2_linear_4_223)"/>
<path d="M23.3876 24.2805C23.3863 24.2376 23.3858 24.1946 23.3862 24.1516C23.4206 20.4855 24.9785 16.7516 28.1034 14.8355C29.2509 14.1318 30.592 13.7289 31.9457 13.7145C31.9661 13.7144 31.9873 13.7143 32.0077 13.7143V19.4688C31.8396 19.465 31.6706 19.4925 31.51 19.558C30.626 19.9188 30.0688 20.8442 29.7192 21.7688C29.4158 22.5713 29.2815 23.4332 29.2796 24.2837L29.2771 24.395C29.2744 24.4384 29.2707 24.4815 29.266 24.5246C29.2984 26.6937 29.7216 28.8789 30.6114 30.8746C31.608 33.1096 33.192 35.1656 35.4286 36.1054C37.1158 36.8145 38.9862 36.6472 40.5155 35.812C42.4141 34.775 43.7839 32.9414 44.6805 30.9722C46.543 26.8797 46.5878 21.8902 44.7293 17.6905C46.5407 16.7856 46.5367 14.9814 46.5367 14.9814C46.5367 14.9814 48.2334 16.154 50.1415 15.4178C52.6822 21.1586 52.6209 27.9177 49.9419 33.5719C48.3757 36.8775 45.8326 39.7734 42.5045 41.2634C39.5418 42.5899 36.0581 42.6231 33.093 41.3771C30.4286 40.2571 28.2615 38.2392 26.7023 35.8928C24.4442 32.4945 23.3749 28.3573 23.3701 24.2805H23.3876Z" fill="url(#paint3_linear_4_223)"/>
</g>
<g filter="url(#filter1_d_4_223)">
<path d="M60.7038 14.375V12.8636H69.7095V14.375H66.0788V24.5H64.3288V14.375H60.7038ZM70.6569 24.5V15.7727H72.299V17.1591H72.3899C72.549 16.6894 72.8293 16.32 73.2308 16.0511C73.6361 15.7784 74.0944 15.642 74.6058 15.642C74.7119 15.642 74.8369 15.6458 74.9808 15.6534C75.1285 15.661 75.2441 15.6704 75.3274 15.6818V17.3068C75.2592 17.2878 75.138 17.267 74.9638 17.2443C74.7895 17.2178 74.6153 17.2045 74.441 17.2045C74.0395 17.2045 73.6816 17.2897 73.3672 17.4602C73.0566 17.6269 72.8103 17.8598 72.6285 18.1591C72.4467 18.4545 72.3558 18.7916 72.3558 19.1704V24.5H70.6569ZM79.2592 24.6931C78.7062 24.6931 78.2062 24.5909 77.7592 24.3863C77.3122 24.178 76.9581 23.8769 76.6967 23.4829C76.4391 23.089 76.3103 22.606 76.3103 22.0341C76.3103 21.5416 76.405 21.1363 76.5944 20.8181C76.7838 20.5 77.0395 20.2481 77.3615 20.0625C77.6834 19.8769 78.0433 19.7367 78.441 19.642C78.8388 19.5473 79.2441 19.4753 79.6569 19.4261C80.1797 19.3655 80.6039 19.3163 80.9297 19.2784C81.2554 19.2367 81.4922 19.1704 81.6399 19.0795C81.7876 18.9886 81.8615 18.8409 81.8615 18.6363V18.5966C81.8615 18.1003 81.7213 17.7159 81.441 17.4431C81.1645 17.1704 80.7516 17.0341 80.2024 17.0341C79.6304 17.0341 79.1797 17.161 78.8501 17.4147C78.5244 17.6647 78.299 17.9431 78.174 18.25L76.5774 17.8863C76.7668 17.356 77.0433 16.928 77.4069 16.6022C77.7744 16.2727 78.1967 16.0341 78.674 15.8863C79.1513 15.7348 79.6531 15.6591 80.1797 15.6591C80.5281 15.6591 80.8975 15.7007 81.2876 15.7841C81.6816 15.8636 82.049 16.0113 82.3899 16.2272C82.7346 16.4431 83.0168 16.7519 83.2365 17.1534C83.4562 17.5511 83.566 18.0681 83.566 18.7045V24.5H81.9069V23.3068H81.8388C81.7289 23.5265 81.5641 23.7424 81.3444 23.9545C81.1247 24.1666 80.8425 24.3428 80.4978 24.4829C80.1531 24.6231 79.7403 24.6931 79.2592 24.6931ZM79.6285 23.3295C80.0982 23.3295 80.4997 23.2367 80.8331 23.0511C81.1702 22.8655 81.4259 22.6231 81.6001 22.3238C81.7781 22.0208 81.8672 21.6969 81.8672 21.3522V20.2272C81.8066 20.2878 81.6891 20.3447 81.5149 20.3977C81.3444 20.4469 81.1494 20.4905 80.9297 20.5284C80.71 20.5625 80.4959 20.5947 80.2876 20.625C80.0793 20.6515 79.905 20.6742 79.7649 20.6931C79.4353 20.7348 79.1342 20.8049 78.8615 20.9034C78.5925 21.0019 78.3766 21.1439 78.2138 21.3295C78.0547 21.5113 77.9751 21.7538 77.9751 22.0568C77.9751 22.4772 78.1304 22.7954 78.441 23.0113C78.7516 23.2235 79.1475 23.3295 79.6285 23.3295ZM87.5277 19.3181V24.5H85.8288V15.7727H87.4595V17.1931H87.5674C87.7682 16.731 88.0826 16.3598 88.5106 16.0795C88.9424 15.7992 89.486 15.6591 90.1413 15.6591C90.736 15.6591 91.2568 15.7841 91.7038 16.0341C92.1508 16.2803 92.4974 16.6477 92.7436 17.1363C92.9898 17.625 93.1129 18.2291 93.1129 18.9488V24.5H91.414V19.1534C91.414 18.5208 91.2493 18.0265 90.9197 17.6704C90.5902 17.3106 90.1375 17.1306 89.5618 17.1306C89.1678 17.1306 88.8174 17.2159 88.5106 17.3863C88.2076 17.5568 87.9671 17.8068 87.789 18.1363C87.6148 18.4621 87.5277 18.856 87.5277 19.3181ZM101.931 17.9034L100.391 18.1761C100.327 17.9791 100.225 17.7916 100.084 17.6136C99.9481 17.4356 99.7625 17.2897 99.5277 17.1761C99.2928 17.0625 98.9993 17.0056 98.647 17.0056C98.1659 17.0056 97.7644 17.1136 97.4424 17.3295C97.1205 17.5416 96.9595 17.8163 96.9595 18.1534C96.9595 18.445 97.0674 18.6799 97.2833 18.8579C97.4993 19.036 97.8477 19.1818 98.3288 19.2954L99.7152 19.6136C100.518 19.7992 101.117 20.0852 101.511 20.4716C101.905 20.8579 102.102 21.3598 102.102 21.9772C102.102 22.5 101.95 22.9659 101.647 23.375C101.348 23.7803 100.929 24.0984 100.391 24.3295C99.8572 24.5606 99.2379 24.6761 98.5333 24.6761C97.5561 24.6761 96.7587 24.4678 96.1413 24.0511C95.5239 23.6306 95.1451 23.0341 95.0049 22.2613L96.647 22.0113C96.7493 22.4394 96.9595 22.7632 97.2777 22.9829C97.5958 23.1988 98.0106 23.3068 98.522 23.3068C99.0788 23.3068 99.5239 23.1913 99.8572 22.9602C100.191 22.7253 100.357 22.4394 100.357 22.1022C100.357 21.8295 100.255 21.6003 100.05 21.4147C99.8496 21.2291 99.5409 21.089 99.1243 20.9943L97.647 20.6704C96.8326 20.4848 96.2303 20.1894 95.8402 19.7841C95.4538 19.3788 95.2606 18.8655 95.2606 18.2443C95.2606 17.7291 95.4046 17.2784 95.6924 16.892C95.9803 16.5056 96.378 16.2045 96.8856 15.9886C97.3932 15.7689 97.9746 15.6591 98.6299 15.6591C99.5731 15.6591 100.316 15.8636 100.857 16.2727C101.399 16.678 101.757 17.2216 101.931 17.9034ZM105.668 12.8636V24.5H103.969V12.8636H105.668ZM110.494 24.6931C109.941 24.6931 109.441 24.5909 108.994 24.3863C108.547 24.178 108.192 23.8769 107.931 23.4829C107.673 23.089 107.545 22.606 107.545 22.0341C107.545 21.5416 107.639 21.1363 107.829 20.8181C108.018 20.5 108.274 20.2481 108.596 20.0625C108.918 19.8769 109.278 19.7367 109.675 19.642C110.073 19.5473 110.478 19.4753 110.891 19.4261C111.414 19.3655 111.838 19.3163 112.164 19.2784C112.49 19.2367 112.727 19.1704 112.874 19.0795C113.022 18.9886 113.096 18.8409 113.096 18.6363V18.5966C113.096 18.1003 112.956 17.7159 112.675 17.4431C112.399 17.1704 111.986 17.0341 111.437 17.0341C110.865 17.0341 110.414 17.161 110.084 17.4147C109.759 17.6647 109.533 17.9431 109.408 18.25L107.812 17.8863C108.001 17.356 108.278 16.928 108.641 16.6022C109.009 16.2727 109.431 16.0341 109.908 15.8863C110.386 15.7348 110.888 15.6591 111.414 15.6591C111.763 15.6591 112.132 15.7007 112.522 15.7841C112.916 15.8636 113.283 16.0113 113.624 16.2272C113.969 16.4431 114.251 16.7519 114.471 17.1534C114.691 17.5511 114.8 18.0681 114.8 18.7045V24.5H113.141V23.3068H113.073C112.963 23.5265 112.798 23.7424 112.579 23.9545C112.359 24.1666 112.077 24.3428 111.732 24.4829C111.388 24.6231 110.975 24.6931 110.494 24.6931ZM110.863 23.3295C111.333 23.3295 111.734 23.2367 112.067 23.0511C112.405 22.8655 112.66 22.6231 112.834 22.3238C113.013 22.0208 113.102 21.6969 113.102 21.3522V20.2272C113.041 20.2878 112.923 20.3447 112.749 20.3977C112.579 20.4469 112.384 20.4905 112.164 20.5284C111.944 20.5625 111.73 20.5947 111.522 20.625C111.314 20.6515 111.139 20.6742 110.999 20.6931C110.67 20.7348 110.369 20.8049 110.096 20.9034C109.827 21.0019 109.611 21.1439 109.448 21.3295C109.289 21.5113 109.209 21.7538 109.209 22.0568C109.209 22.4772 109.365 22.7954 109.675 23.0113C109.986 23.2235 110.382 23.3295 110.863 23.3295ZM121.137 15.7727V17.1363H116.37V15.7727H121.137ZM117.648 13.6818H119.347V21.9375C119.347 22.267 119.397 22.5151 119.495 22.6818C119.593 22.8447 119.72 22.9564 119.876 23.017C120.035 23.0738 120.207 23.1022 120.393 23.1022C120.529 23.1022 120.648 23.0928 120.751 23.0738C120.853 23.0549 120.932 23.0397 120.989 23.0284L121.296 24.4318C121.198 24.4697 121.057 24.5075 120.876 24.5454C120.694 24.5871 120.467 24.6098 120.194 24.6136C119.747 24.6212 119.33 24.5416 118.944 24.375C118.557 24.2083 118.245 23.9507 118.006 23.6022C117.768 23.2538 117.648 22.8163 117.648 22.2897V13.6818ZM126.684 24.6761C125.824 24.6761 125.084 24.4924 124.462 24.125C123.845 23.7538 123.368 23.2329 123.03 22.5625C122.697 21.8882 122.53 21.0985 122.53 20.1931C122.53 19.2992 122.697 18.5113 123.03 17.8295C123.368 17.1477 123.837 16.6155 124.44 16.2329C125.046 15.8503 125.754 15.6591 126.565 15.6591C127.057 15.6591 127.534 15.7405 127.996 15.9034C128.459 16.0663 128.873 16.3219 129.241 16.6704C129.608 17.0189 129.898 17.4716 130.11 18.0284C130.322 18.5814 130.428 19.2538 130.428 20.0454V20.6477H123.491V19.375H128.763C128.763 18.928 128.673 18.5322 128.491 18.1875C128.309 17.839 128.053 17.5644 127.724 17.3636C127.398 17.1628 127.015 17.0625 126.576 17.0625C126.099 17.0625 125.682 17.1799 125.326 17.4147C124.974 17.6458 124.701 17.9488 124.508 18.3238C124.318 18.695 124.224 19.0985 124.224 19.5341V20.5284C124.224 21.1117 124.326 21.6079 124.53 22.017C124.739 22.4261 125.029 22.7386 125.4 22.9545C125.771 23.1666 126.205 23.2727 126.701 23.2727C127.023 23.2727 127.316 23.2272 127.582 23.1363C127.847 23.0416 128.076 22.9015 128.269 22.7159C128.462 22.5303 128.61 22.3011 128.712 22.0284L130.32 22.3181C130.191 22.7916 129.96 23.2064 129.627 23.5625C129.298 23.9147 128.883 24.1894 128.383 24.3863C127.887 24.5795 127.32 24.6761 126.684 24.6761ZM140.224 24.6761C139.405 24.6761 138.691 24.4886 138.082 24.1136C137.472 23.7386 136.998 23.214 136.661 22.5397C136.324 21.8655 136.155 21.0776 136.155 20.1761C136.155 19.2708 136.324 18.4791 136.661 17.8011C136.998 17.1231 137.472 16.5966 138.082 16.2216C138.691 15.8466 139.405 15.6591 140.224 15.6591C141.042 15.6591 141.756 15.8466 142.366 16.2216C142.976 16.5966 143.449 17.1231 143.786 17.8011C144.123 18.4791 144.292 19.2708 144.292 20.1761C144.292 21.0776 144.123 21.8655 143.786 22.5397C143.449 23.214 142.976 23.7386 142.366 24.1136C141.756 24.4886 141.042 24.6761 140.224 24.6761ZM140.229 23.25C140.76 23.25 141.199 23.1098 141.548 22.8295C141.896 22.5492 142.154 22.1761 142.32 21.7102C142.491 21.2443 142.576 20.731 142.576 20.1704C142.576 19.6136 142.491 19.1022 142.32 18.6363C142.154 18.1666 141.896 17.7897 141.548 17.5056C141.199 17.2216 140.76 17.0795 140.229 17.0795C139.695 17.0795 139.252 17.2216 138.9 17.5056C138.551 17.7897 138.292 18.1666 138.121 18.6363C137.955 19.1022 137.871 19.6136 137.871 20.1704C137.871 20.731 137.955 21.2443 138.121 21.7102C138.292 22.1761 138.551 22.5492 138.9 22.8295C139.252 23.1098 139.695 23.25 140.229 23.25ZM147.887 19.3181V24.5H146.188V15.7727H147.819V17.1931H147.927C148.128 16.731 148.442 16.3598 148.87 16.0795C149.302 15.7992 149.845 15.6591 150.501 15.6591C151.095 15.6591 151.616 15.7841 152.063 16.0341C152.51 16.2803 152.857 16.6477 153.103 17.1363C153.349 17.625 153.472 18.2291 153.472 18.9488V24.5H151.773V19.1534C151.773 18.5208 151.609 18.0265 151.279 17.6704C150.95 17.3106 150.497 17.1306 149.921 17.1306C149.527 17.1306 149.177 17.2159 148.87 17.3863C148.567 17.5568 148.326 17.8068 148.148 18.1363C147.974 18.4621 147.887 18.856 147.887 19.3181Z" fill="#E8E8E8"/>
<path d="M63.8991 43.5L60.3011 31.1363H63.6033L65.4687 39.2379H65.5714L67.7024 31.1363H70.3949L72.5259 39.256H72.6285L74.5 31.1363H77.7961L74.2042 43.5H71.3245L69.0969 36.0021H69.0003L66.7727 43.5H63.8991ZM82.3359 43.675C81.366 43.675 80.5289 43.4839 79.8245 43.1015C79.1243 42.7152 78.585 42.1658 78.2066 41.4534C77.8324 40.7371 77.6452 39.8859 77.6452 38.8998C77.6452 37.942 77.8344 37.1048 78.2127 36.3885C78.591 35.6681 79.1243 35.1086 79.8125 34.7102C80.5007 34.3077 81.3116 34.1065 82.2454 34.1065C82.9054 34.1065 83.5091 34.2091 84.0564 34.4144C84.6038 34.6196 85.0767 34.9235 85.4751 35.326C85.8735 35.7284 86.1834 36.2255 86.4048 36.8171C86.6262 37.4047 86.7368 38.0788 86.7368 38.8395V39.576H78.6775V37.8615H83.99C83.986 37.5476 83.9115 37.2678 83.7667 37.0223C83.6218 36.7768 83.4226 36.5857 83.169 36.4488C82.9195 36.308 82.6317 36.2375 82.3057 36.2375C81.9757 36.2375 81.6799 36.312 81.4183 36.4609C81.1567 36.6058 80.9494 36.805 80.7965 37.0586C80.6436 37.3081 80.5631 37.5918 80.555 37.9098V39.6544C80.555 40.0328 80.6295 40.3648 80.7784 40.6505C80.9273 40.9323 81.1386 41.1516 81.4123 41.3086C81.6859 41.4655 82.0119 41.544 82.3902 41.544C82.6518 41.544 82.8893 41.5078 83.1026 41.4353C83.3159 41.3629 83.499 41.2562 83.652 41.1154C83.8049 40.9745 83.9196 40.8015 83.9961 40.5962L86.7066 40.6747C86.594 41.2824 86.3464 41.8116 85.9641 42.2624C85.5858 42.7091 85.0887 43.0573 84.473 43.3068C83.8572 43.5523 83.1449 43.675 82.3359 43.675ZM88.2446 43.5V31.1363H91.1966V35.815H91.257C91.3777 35.5332 91.5488 35.2616 91.7701 35C91.9955 34.7384 92.2812 34.5251 92.6274 34.3601C92.9775 34.191 93.3961 34.1065 93.883 34.1065C94.527 34.1065 95.1287 34.2755 95.6881 34.6136C96.2515 34.9517 96.7063 35.4729 97.0524 36.1772C97.3986 36.8815 97.5716 37.779 97.5716 38.8696C97.5716 39.9201 97.4046 40.7994 97.0705 41.5078C96.7405 42.2161 96.2938 42.7474 95.7303 43.1015C95.1709 43.4557 94.5491 43.6328 93.8649 43.6328C93.3981 43.6328 92.9936 43.5563 92.6515 43.4034C92.3094 43.2504 92.0217 43.0492 91.7882 42.7997C91.5588 42.5502 91.3817 42.2825 91.257 41.9968H91.1664V43.5H88.2446ZM91.1362 38.8636C91.1362 39.3627 91.2026 39.7973 91.3355 40.1676C91.4723 40.5378 91.6675 40.8256 91.921 41.0309C92.1786 41.2321 92.4865 41.3327 92.8447 41.3327C93.2069 41.3327 93.5148 41.2321 93.7683 41.0309C94.0219 40.8256 94.2131 40.5378 94.3419 40.1676C94.4747 39.7973 94.5411 39.3627 94.5411 38.8636C94.5411 38.3645 94.4747 37.9319 94.3419 37.5657C94.2131 37.1994 94.0219 36.9157 93.7683 36.7145C93.5188 36.5132 93.2109 36.4126 92.8447 36.4126C92.4825 36.4126 92.1746 36.5112 91.921 36.7084C91.6675 36.9056 91.4723 37.1873 91.3355 37.5536C91.2026 37.9198 91.1362 38.3565 91.1362 38.8636ZM102.071 31.1363V43.5H99.1186V31.1363H102.071ZM106.564 43.6569C105.972 43.6569 105.447 43.5583 104.988 43.3611C104.533 43.1599 104.173 42.858 103.907 42.4556C103.646 42.0491 103.515 41.54 103.515 40.9282C103.515 40.4131 103.606 39.9784 103.787 39.6243C103.968 39.2701 104.217 38.9823 104.535 38.761C104.853 38.5396 105.219 38.3726 105.634 38.2599C106.048 38.1432 106.491 38.0647 106.962 38.0245C107.489 37.9762 107.914 37.9259 108.236 37.8735C108.558 37.8172 108.791 37.7387 108.936 37.6381C109.085 37.5335 109.159 37.3866 109.159 37.1974V37.1672C109.159 36.8573 109.053 36.6179 108.84 36.4488C108.626 36.2798 108.338 36.1953 107.976 36.1953C107.586 36.1953 107.272 36.2798 107.034 36.4488C106.797 36.6179 106.646 36.8513 106.582 37.1491L103.859 37.0525C103.94 36.4891 104.147 35.986 104.481 35.5433C104.819 35.0966 105.282 34.7464 105.869 34.4929C106.461 34.2353 107.171 34.1065 108 34.1065C108.592 34.1065 109.137 34.1769 109.636 34.3178C110.135 34.4546 110.57 34.6559 110.94 34.9215C111.311 35.1831 111.596 35.5051 111.798 35.8874C112.003 36.2697 112.106 36.7064 112.106 37.1974V43.5H109.329V42.2081H109.256C109.091 42.522 108.88 42.7876 108.622 43.0049C108.369 43.2223 108.069 43.3853 107.723 43.4939C107.381 43.6026 106.994 43.6569 106.564 43.6569ZM107.475 41.7251C107.793 41.7251 108.079 41.6607 108.332 41.5319C108.59 41.4031 108.795 41.2261 108.948 41.0007C109.101 40.7713 109.178 40.5056 109.178 40.2038V39.3224C109.093 39.3667 108.99 39.4069 108.87 39.4431C108.753 39.4794 108.624 39.5136 108.483 39.5458C108.343 39.578 108.198 39.6061 108.049 39.6303C107.9 39.6544 107.757 39.6766 107.62 39.6967C107.342 39.741 107.105 39.8094 106.908 39.902C106.715 39.9945 106.566 40.1153 106.461 40.2642C106.36 40.4091 106.31 40.5821 106.31 40.7833C106.31 41.0892 106.419 41.3226 106.636 41.4836C106.857 41.6446 107.137 41.7251 107.475 41.7251ZM119.145 34.2272V36.4005H113.295V34.2272H119.145ZM114.52 32.0057H117.472V40.5841C117.472 40.7652 117.501 40.9121 117.557 41.0248C117.617 41.1335 117.704 41.212 117.816 41.2603C117.929 41.3045 118.064 41.3267 118.221 41.3267C118.334 41.3267 118.452 41.3166 118.577 41.2965C118.706 41.2723 118.802 41.2522 118.867 41.2361L119.314 43.3672C119.173 43.4074 118.974 43.4577 118.716 43.5181C118.462 43.5784 118.159 43.6167 117.804 43.6328C117.112 43.665 116.519 43.5845 116.023 43.3913C115.532 43.1941 115.156 42.8882 114.895 42.4737C114.637 42.0592 114.512 41.538 114.52 40.9101V32.0057ZM124.886 43.675C123.916 43.675 123.079 43.4839 122.374 43.1015C121.674 42.7152 121.135 42.1658 120.756 41.4534C120.382 40.7371 120.195 39.8859 120.195 38.8998C120.195 37.942 120.384 37.1048 120.762 36.3885C121.141 35.6681 121.674 35.1086 122.362 34.7102C123.05 34.3077 123.861 34.1065 124.795 34.1065C125.455 34.1065 126.059 34.2091 126.606 34.4144C127.154 34.6196 127.626 34.9235 128.025 35.326C128.423 35.7284 128.733 36.2255 128.955 36.8171C129.176 37.4047 129.287 38.0788 129.287 38.8395V39.576H121.227V37.8615H126.54C126.536 37.5476 126.461 37.2678 126.316 37.0223C126.172 36.7768 125.972 36.5857 125.719 36.4488C125.469 36.308 125.182 36.2375 124.856 36.2375C124.525 36.2375 124.23 36.312 123.968 36.4609C123.706 36.6058 123.499 36.805 123.346 37.0586C123.193 37.3081 123.113 37.5918 123.105 37.9098V39.6544C123.105 40.0328 123.179 40.3648 123.328 40.6505C123.477 40.9323 123.688 41.1516 123.962 41.3086C124.236 41.4655 124.562 41.544 124.94 41.544C125.202 41.544 125.439 41.5078 125.652 41.4353C125.866 41.3629 126.049 41.2562 126.202 41.1154C126.355 40.9745 126.469 40.8015 126.546 40.5962L129.256 40.6747C129.144 41.2824 128.896 41.8116 128.514 42.2624C128.136 42.7091 127.639 43.0573 127.023 43.3068C126.407 43.5523 125.695 43.675 124.886 43.675Z" fill="url(#paint4_linear_4_223)"/>
</g>
<rect x="1.04927" y="1.04997" width="164.9" height="53.9" rx="6.95" stroke="white" stroke-opacity="0.15" stroke-width="2.1"/>
<defs>
<filter id="filter0_d_4_223" x="6.28498" y="2.28568" width="51.4295" height="51.4286" filterUnits="userSpaceOnUse" color-interpolation-filters="sRGB">
<feFlood flood-opacity="0" result="BackgroundImageFix"/>
<feColorMatrix in="SourceAlpha" type="matrix" values="0 0 0 0 0 0 0 0 0 0 0 0 0 0 0 0 0 0 127 0" result="hardAlpha"/>
<feOffset/>
<feGaussianBlur stdDeviation="2.85714"/>
<feComposite in2="hardAlpha" operator="out"/>
<feColorMatrix type="matrix" values="0 0 0 0 0 0 0 0 0 0 0 0 0 0 0 0 0 0 0.25 0"/>
<feBlend mode="normal" in2="BackgroundImageFix" result="effect1_dropShadow_4_223"/>
<feBlend mode="normal" in="SourceGraphic" in2="effect1_dropShadow_4_223" result="shape"/>
</filter>
<filter id="filter1_d_4_223" x="54.3993" y="3.89997" width="106.2" height="48.2" filterUnits="userSpaceOnUse" color-interpolation-filters="sRGB">
<feFlood flood-opacity="0" result="BackgroundImageFix"/>
<feColorMatrix in="SourceAlpha" type="matrix" values="0 0 0 0 0 0 0 0 0 0 0 0 0 0 0 0 0 0 127 0" result="hardAlpha"/>
<feOffset/>
<feGaussianBlur stdDeviation="2.8"/>
<feComposite in2="hardAlpha" operator="out"/>
<feColorMatrix type="matrix" values="0 0 0 0 0 0 0 0 0 0 0 0 0 0 0 0 0 0 0.25 0"/>
<feBlend mode="normal" in2="BackgroundImageFix" result="effect1_dropShadow_4_223"/>
<feBlend mode="normal" in="SourceGraphic" in2="effect1_dropShadow_4_223" result="shape"/>
</filter>
<linearGradient id="paint0_linear_4_223" x1="83.4992" y1="-3.05176e-05" x2="83.4992" y2="56" gradientUnits="userSpaceOnUse">
<stop stop-color="#1A2C32"/>
<stop offset="1" stop-color="#0E1C0F"/>
</linearGradient>
<linearGradient id="paint1_linear_4_223" x1="11.9999" y1="24.5876" x2="31.543" y2="24.5876" gradientUnits="userSpaceOnUse">
<stop stop-color="#00D2E6"/>
<stop offset="1" stop-color="#2ECCAA"/>
</linearGradient>
<linearGradient id="paint2_linear_4_223" x1="23.4377" y1="36.7352" x2="33.5842" y2="30.0298" gradientUnits="userSpaceOnUse">
<stop stop-opacity="0"/>
<stop offset="0.514"/>
<stop offset="1" stop-opacity="0"/>
</linearGradient>
<linearGradient id="paint3_linear_4_223" x1="52.0003" y1="25.0624" x2="32.4903" y2="25.0624" gradientUnits="userSpaceOnUse">
<stop stop-color="#1FA385"/>
<stop offset="1" stop-color="#2ECCAA"/>
</linearGradient>
<linearGradient id="paint4_linear_4_223" x1="60" y1="36.8077" x2="130" y2="36.8077" gradientUnits="userSpaceOnUse">
<stop stop-color="#00D2E6"/>
<stop offset="1" stop-color="#2ECCAA"/>
</linearGradient>
</defs>
</svg>
