<svg width="171" height="56" viewBox="0 0 171 56" fill="none" xmlns="http://www.w3.org/2000/svg">
<rect x="-0.000732422" y="-3.05176e-05" width="171" height="56" rx="8" fill="url(#paint0_linear_4_223)"/>
<g filter="url(#filter0_d_4_223)">
<path d="M37.6254 35.3814C37.042 35.3786 36.4606 35.2641 35.9125 35.0337C34.6779 34.515 33.5908 33.5353 32.7064 32.2098C32.9586 31.7774 33.1859 31.3297 33.3889 30.8746C34.2787 28.8789 34.7019 26.6937 34.7343 24.5246C34.7296 24.4815 34.7259 24.4384 34.7232 24.395L34.7207 24.2837C34.7187 23.4332 34.5845 22.5713 34.281 21.7688C33.9315 20.8442 33.3743 19.9188 32.4903 19.558C32.3297 19.4925 32.1607 19.465 31.9925 19.4688C30.8805 17.4643 30.8452 15.5434 31.9925 13.7143C32.013 13.7143 32.0342 13.7144 32.0546 13.7145C33.4083 13.7289 34.7493 14.1318 35.8969 14.8355C39.0217 16.7516 40.5797 20.4855 40.6141 24.1516C40.6145 24.1946 40.614 24.2376 40.6126 24.2805H40.6302C40.6256 28.155 39.6596 32.084 37.6254 35.3814H37.6254ZM30.6968 41.4631C27.7783 42.6208 24.3887 42.5587 21.4958 41.2634C18.1677 39.7734 15.6246 36.8775 14.0584 33.5719C11.3794 27.9177 11.3181 21.1586 13.8588 15.4178C15.7669 16.154 17.4635 14.9814 17.4635 14.9814C17.4635 14.9814 17.4596 16.7856 19.271 17.6905C17.4125 21.8902 17.4573 26.8797 19.3197 30.9722C20.2164 32.9414 21.5862 34.775 23.4848 35.812C24.1625 36.1821 24.9071 36.421 25.6731 36.5107C25.6759 36.515 25.6788 36.5192 25.6816 36.5235C27.0343 38.5592 28.7383 40.2557 30.6968 41.4631H30.6968Z" fill="url(#paint1_linear_4_223)"/>
<path opacity="0.3" fill-rule="evenodd" clip-rule="evenodd" d="M37.6249 35.3828C37.0417 35.3799 36.4606 35.2653 35.9128 35.0351C34.6781 34.5163 33.5908 33.5364 32.7063 32.2105C32.9587 31.7779 33.1861 31.33 33.3892 30.8746C33.6575 30.2729 33.8833 29.654 34.0688 29.0235C34.4987 27.5628 40.206 29.4167 39.3353 31.8233C38.8861 33.065 38.3174 34.2605 37.6249 35.3828V35.3828ZM30.6958 41.4636C27.7776 42.6208 24.3886 42.5585 21.4961 41.2634C18.168 39.7734 21.5865 34.775 23.4852 35.812C24.1625 36.1819 24.9068 36.4208 25.6725 36.5106C25.6756 36.5153 25.6788 36.5201 25.682 36.5249C27.0343 38.5601 28.7379 40.2563 30.6958 41.4636V41.4636Z" fill="url(#paint2_linear_4_223)"/>
<path d="M23.3876 24.2805C23.3863 24.2376 23.3858 24.1946 23.3862 24.1516C23.4206 20.4855 24.9785 16.7516 28.1034 14.8355C29.2509 14.1318 30.592 13.7289 31.9457 13.7145C31.9661 13.7144 31.9873 13.7143 32.0077 13.7143V19.4688C31.8396 19.465 31.6706 19.4925 31.51 19.558C30.626 19.9188 30.0688 20.8442 29.7192 21.7688C29.4158 22.5713 29.2815 23.4332 29.2796 24.2837L29.2771 24.395C29.2744 24.4384 29.2707 24.4815 29.266 24.5246C29.2984 26.6937 29.7216 28.8789 30.6114 30.8746C31.608 33.1096 33.192 35.1656 35.4286 36.1054C37.1158 36.8145 38.9862 36.6472 40.5155 35.812C42.4141 34.775 43.7839 32.9414 44.6805 30.9722C46.543 26.8797 46.5878 21.8902 44.7293 17.6905C46.5407 16.7856 46.5367 14.9814 46.5367 14.9814C46.5367 14.9814 48.2334 16.154 50.1415 15.4178C52.6822 21.1586 52.6209 27.9177 49.9419 33.5719C48.3757 36.8775 45.8326 39.7734 42.5045 41.2634C39.5418 42.5899 36.0581 42.6231 33.093 41.3771C30.4286 40.2571 28.2615 38.2392 26.7023 35.8928C24.4442 32.4945 23.3749 28.3573 23.3701 24.2805H23.3876Z" fill="url(#paint3_linear_4_223)"/>
</g>
<g filter="url(#filter1_d_4_223)">
<path d="M64.7038 14.375V12.8636H73.7095V14.375H70.0788V24.5H68.3288V14.375H64.7038ZM74.6569 24.5V15.7727H76.299V17.1591H76.3899C76.549 16.6894 76.8293 16.32 77.2308 16.0511C77.6361 15.7784 78.0944 15.642 78.6058 15.642C78.7119 15.642 78.8369 15.6458 78.9808 15.6534C79.1285 15.661 79.2441 15.6704 79.3274 15.6818V17.3068C79.2592 17.2878 79.138 17.267 78.9638 17.2443C78.7895 17.2178 78.6153 17.2045 78.441 17.2045C78.0395 17.2045 77.6816 17.2897 77.3672 17.4602C77.0566 17.6269 76.8103 17.8598 76.6285 18.1591C76.4467 18.4545 76.3558 18.7916 76.3558 19.1704V24.5H74.6569ZM83.2592 24.6931C82.7062 24.6931 82.2062 24.5909 81.7592 24.3863C81.3122 24.178 80.9581 23.8769 80.6967 23.4829C80.4391 23.089 80.3103 22.606 80.3103 22.0341C80.3103 21.5416 80.405 21.1363 80.5944 20.8181C80.7838 20.5 81.0395 20.2481 81.3615 20.0625C81.6834 19.8769 82.0433 19.7367 82.441 19.642C82.8388 19.5473 83.2441 19.4753 83.6569 19.4261C84.1797 19.3655 84.6039 19.3163 84.9297 19.2784C85.2554 19.2367 85.4922 19.1704 85.6399 19.0795C85.7876 18.9886 85.8615 18.8409 85.8615 18.6363V18.5966C85.8615 18.1003 85.7213 17.7159 85.441 17.4431C85.1645 17.1704 84.7516 17.0341 84.2024 17.0341C83.6304 17.0341 83.1797 17.161 82.8501 17.4147C82.5244 17.6647 82.299 17.9431 82.174 18.25L80.5774 17.8863C80.7668 17.356 81.0433 16.928 81.4069 16.6022C81.7744 16.2727 82.1967 16.0341 82.674 15.8863C83.1513 15.7348 83.6531 15.6591 84.1797 15.6591C84.5281 15.6591 84.8975 15.7007 85.2876 15.7841C85.6816 15.8636 86.049 16.0113 86.3899 16.2272C86.7346 16.4431 87.0168 16.7519 87.2365 17.1534C87.4562 17.5511 87.566 18.0681 87.566 18.7045V24.5H85.9069V23.3068H85.8388C85.7289 23.5265 85.5641 23.7424 85.3444 23.9545C85.1247 24.1666 84.8425 24.3428 84.4978 24.4829C84.1531 24.6231 83.7403 24.6931 83.2592 24.6931ZM83.6285 23.3295C84.0982 23.3295 84.4997 23.2367 84.8331 23.0511C85.1702 22.8655 85.4259 22.6231 85.6001 22.3238C85.7781 22.0208 85.8672 21.6969 85.8672 21.3522V20.2272C85.8066 20.2878 85.6891 20.3447 85.5149 20.3977C85.3444 20.4469 85.1494 20.4905 84.9297 20.5284C84.71 20.5625 84.4959 20.5947 84.2876 20.625C84.0793 20.6515 83.905 20.6742 83.7649 20.6931C83.4353 20.7348 83.1342 20.8049 82.8615 20.9034C82.5925 21.0019 82.3766 21.1439 82.2138 21.3295C82.0547 21.5113 81.9751 21.7538 81.9751 22.0568C81.9751 22.4772 82.1304 22.7954 82.441 23.0113C82.7516 23.2235 83.1475 23.3295 83.6285 23.3295ZM91.5277 19.3181V24.5H89.8288V15.7727H91.4595V17.1931H91.5674C91.7682 16.731 92.0826 16.3598 92.5106 16.0795C92.9424 15.7992 93.486 15.6591 94.1413 15.6591C94.736 15.6591 95.2568 15.7841 95.7038 16.0341C96.1508 16.2803 96.4974 16.6477 96.7436 17.1363C96.9898 17.625 97.1129 18.2291 97.1129 18.9488V24.5H95.414V19.1534C95.414 18.5208 95.2493 18.0265 94.9197 17.6704C94.5902 17.3106 94.1375 17.1306 93.5618 17.1306C93.1678 17.1306 92.8174 17.2159 92.5106 17.3863C92.2076 17.5568 91.9671 17.8068 91.789 18.1363C91.6148 18.4621 91.5277 18.856 91.5277 19.3181ZM105.931 17.9034L104.391 18.1761C104.327 17.9791 104.225 17.7916 104.084 17.6136C103.948 17.4356 103.763 17.2897 103.528 17.1761C103.293 17.0625 102.999 17.0056 102.647 17.0056C102.166 17.0056 101.764 17.1136 101.442 17.3295C101.12 17.5416 100.959 17.8163 100.959 18.1534C100.959 18.445 101.067 18.6799 101.283 18.8579C101.499 19.036 101.848 19.1818 102.329 19.2954L103.715 19.6136C104.518 19.7992 105.117 20.0852 105.511 20.4716C105.905 20.8579 106.102 21.3598 106.102 21.9772C106.102 22.5 105.95 22.9659 105.647 23.375C105.348 23.7803 104.929 24.0984 104.391 24.3295C103.857 24.5606 103.238 24.6761 102.533 24.6761C101.556 24.6761 100.759 24.4678 100.141 24.0511C99.5239 23.6306 99.1451 23.0341 99.0049 22.2613L100.647 22.0113C100.749 22.4394 100.959 22.7632 101.278 22.9829C101.596 23.1988 102.011 23.3068 102.522 23.3068C103.079 23.3068 103.524 23.1913 103.857 22.9602C104.191 22.7253 104.357 22.4394 104.357 22.1022C104.357 21.8295 104.255 21.6003 104.05 21.4147C103.85 21.2291 103.541 21.089 103.124 20.9943L101.647 20.6704C100.833 20.4848 100.23 20.1894 99.8402 19.7841C99.4538 19.3788 99.2606 18.8655 99.2606 18.2443C99.2606 17.7291 99.4046 17.2784 99.6924 16.892C99.9803 16.5056 100.378 16.2045 100.886 15.9886C101.393 15.7689 101.975 15.6591 102.63 15.6591C103.573 15.6591 104.316 15.8636 104.857 16.2727C105.399 16.678 105.757 17.2216 105.931 17.9034ZM109.668 12.8636V24.5H107.969V12.8636H109.668ZM114.494 24.6931C113.941 24.6931 113.441 24.5909 112.994 24.3863C112.547 24.178 112.192 23.8769 111.931 23.4829C111.673 23.089 111.545 22.606 111.545 22.0341C111.545 21.5416 111.639 21.1363 111.829 20.8181C112.018 20.5 112.274 20.2481 112.596 20.0625C112.918 19.8769 113.278 19.7367 113.675 19.642C114.073 19.5473 114.478 19.4753 114.891 19.4261C115.414 19.3655 115.838 19.3163 116.164 19.2784C116.49 19.2367 116.727 19.1704 116.874 19.0795C117.022 18.9886 117.096 18.8409 117.096 18.6363V18.5966C117.096 18.1003 116.956 17.7159 116.675 17.4431C116.399 17.1704 115.986 17.0341 115.437 17.0341C114.865 17.0341 114.414 17.161 114.084 17.4147C113.759 17.6647 113.533 17.9431 113.408 18.25L111.812 17.8863C112.001 17.356 112.278 16.928 112.641 16.6022C113.009 16.2727 113.431 16.0341 113.908 15.8863C114.386 15.7348 114.888 15.6591 115.414 15.6591C115.763 15.6591 116.132 15.7007 116.522 15.7841C116.916 15.8636 117.283 16.0113 117.624 16.2272C117.969 16.4431 118.251 16.7519 118.471 17.1534C118.691 17.5511 118.8 18.0681 118.8 18.7045V24.5H117.141V23.3068H117.073C116.963 23.5265 116.798 23.7424 116.579 23.9545C116.359 24.1666 116.077 24.3428 115.732 24.4829C115.388 24.6231 114.975 24.6931 114.494 24.6931ZM114.863 23.3295C115.333 23.3295 115.734 23.2367 116.067 23.0511C116.405 22.8655 116.66 22.6231 116.834 22.3238C117.013 22.0208 117.102 21.6969 117.102 21.3522V20.2272C117.041 20.2878 116.923 20.3447 116.749 20.3977C116.579 20.4469 116.384 20.4905 116.164 20.5284C115.944 20.5625 115.73 20.5947 115.522 20.625C115.314 20.6515 115.139 20.6742 114.999 20.6931C114.67 20.7348 114.369 20.8049 114.096 20.9034C113.827 21.0019 113.611 21.1439 113.448 21.3295C113.289 21.5113 113.209 21.7538 113.209 22.0568C113.209 22.4772 113.365 22.7954 113.675 23.0113C113.986 23.2235 114.382 23.3295 114.863 23.3295ZM125.137 15.7727V17.1363H120.37V15.7727H125.137ZM121.648 13.6818H123.347V21.9375C123.347 22.267 123.397 22.5151 123.495 22.6818C123.593 22.8447 123.72 22.9564 123.876 23.017C124.035 23.0738 124.207 23.1022 124.393 23.1022C124.529 23.1022 124.648 23.0928 124.751 23.0738C124.853 23.0549 124.932 23.0397 124.989 23.0284L125.296 24.4318C125.198 24.4697 125.057 24.5075 124.876 24.5454C124.694 24.5871 124.467 24.6098 124.194 24.6136C123.747 24.6212 123.33 24.5416 122.944 24.375C122.557 24.2083 122.245 23.9507 122.006 23.6022C121.768 23.2538 121.648 22.8163 121.648 22.2897V13.6818ZM130.684 24.6761C129.824 24.6761 129.084 24.4924 128.462 24.125C127.845 23.7538 127.368 23.2329 127.03 22.5625C126.697 21.8882 126.53 21.0985 126.53 20.1931C126.53 19.2992 126.697 18.5113 127.03 17.8295C127.368 17.1477 127.837 16.6155 128.44 16.2329C129.046 15.8503 129.754 15.6591 130.565 15.6591C131.057 15.6591 131.534 15.7405 131.996 15.9034C132.459 16.0663 132.873 16.3219 133.241 16.6704C133.608 17.0189 133.898 17.4716 134.11 18.0284C134.322 18.5814 134.428 19.2538 134.428 20.0454V20.6477H127.491V19.375H132.763C132.763 18.928 132.673 18.5322 132.491 18.1875C132.309 17.839 132.053 17.5644 131.724 17.3636C131.398 17.1628 131.015 17.0625 130.576 17.0625C130.099 17.0625 129.682 17.1799 129.326 17.4147C128.974 17.6458 128.701 17.9488 128.508 18.3238C128.318 18.695 128.224 19.0985 128.224 19.5341V20.5284C128.224 21.1117 128.326 21.6079 128.53 22.017C128.739 22.4261 129.029 22.7386 129.4 22.9545C129.771 23.1666 130.205 23.2727 130.701 23.2727C131.023 23.2727 131.316 23.2272 131.582 23.1363C131.847 23.0416 132.076 22.9015 132.269 22.7159C132.462 22.5303 132.61 22.3011 132.712 22.0284L134.32 22.3181C134.191 22.7916 133.96 23.2064 133.627 23.5625C133.298 23.9147 132.883 24.1894 132.383 24.3863C131.887 24.5795 131.32 24.6761 130.684 24.6761ZM144.224 24.6761C143.405 24.6761 142.691 24.4886 142.082 24.1136C141.472 23.7386 140.998 23.214 140.661 22.5397C140.324 21.8655 140.155 21.0776 140.155 20.1761C140.155 19.2708 140.324 18.4791 140.661 17.8011C140.998 17.1231 141.472 16.5966 142.082 16.2216C142.691 15.8466 143.405 15.6591 144.224 15.6591C145.042 15.6591 145.756 15.8466 146.366 16.2216C146.976 16.5966 147.449 17.1231 147.786 17.8011C148.123 18.4791 148.292 19.2708 148.292 20.1761C148.292 21.0776 148.123 21.8655 147.786 22.5397C147.449 23.214 146.976 23.7386 146.366 24.1136C145.756 24.4886 145.042 24.6761 144.224 24.6761ZM144.229 23.25C144.76 23.25 145.199 23.1098 145.548 22.8295C145.896 22.5492 146.154 22.1761 146.32 21.7102C146.491 21.2443 146.576 20.731 146.576 20.1704C146.576 19.6136 146.491 19.1022 146.32 18.6363C146.154 18.1666 145.896 17.7897 145.548 17.5056C145.199 17.2216 144.76 17.0795 144.229 17.0795C143.695 17.0795 143.252 17.2216 142.9 17.5056C142.551 17.7897 142.292 18.1666 142.121 18.6363C141.955 19.1022 141.871 19.6136 141.871 20.1704C141.871 20.731 141.955 21.2443 142.121 21.7102C142.292 22.1761 142.551 22.5492 142.9 22.8295C143.252 23.1098 143.695 23.25 144.229 23.25ZM151.887 19.3181V24.5H150.188V15.7727H151.819V17.1931H151.927C152.128 16.731 152.442 16.3598 152.87 16.0795C153.302 15.7992 153.845 15.6591 154.501 15.6591C155.095 15.6591 155.616 15.7841 156.063 16.0341C156.51 16.2803 156.857 16.6477 157.103 17.1363C157.349 17.625 157.472 18.2291 157.472 18.9488V24.5H155.773V19.1534C155.773 18.5208 155.609 18.0265 155.279 17.6704C154.95 17.3106 154.497 17.1306 153.921 17.1306C153.527 17.1306 153.177 17.2159 152.87 17.3863C152.567 17.5568 152.326 17.8068 152.148 18.1363C151.974 18.4621 151.887 18.856 151.887 19.3181Z" fill="#E8E8E8"/>
<path d="M67.8991 43.5L64.3011 31.1363H67.6033L69.4687 39.2379H69.5714L71.7024 31.1363H74.3949L76.5259 39.256H76.6285L78.5 31.1363H81.7961L78.2042 43.5H75.3245L73.0969 36.0021H73.0003L70.7727 43.5H67.8991ZM86.3359 43.675C85.366 43.675 84.5289 43.4839 83.8245 43.1015C83.1243 42.7152 82.585 42.1658 82.2066 41.4534C81.8324 40.7371 81.6452 39.8859 81.6452 38.8998C81.6452 37.942 81.8344 37.1048 82.2127 36.3885C82.591 35.6681 83.1243 35.1086 83.8125 34.7102C84.5007 34.3077 85.3116 34.1065 86.2454 34.1065C86.9054 34.1065 87.5091 34.2091 88.0564 34.4144C88.6038 34.6196 89.0767 34.9235 89.4751 35.326C89.8735 35.7284 90.1834 36.2255 90.4048 36.8171C90.6262 37.4047 90.7368 38.0788 90.7368 38.8395V39.576H82.6775V37.8615H87.99C87.986 37.5476 87.9115 37.2678 87.7667 37.0223C87.6218 36.7768 87.4226 36.5857 87.169 36.4488C86.9195 36.308 86.6317 36.2375 86.3057 36.2375C85.9757 36.2375 85.6799 36.312 85.4183 36.4609C85.1567 36.6058 84.9494 36.805 84.7965 37.0586C84.6436 37.3081 84.5631 37.5918 84.555 37.9098V39.6544C84.555 40.0328 84.6295 40.3648 84.7784 40.6505C84.9273 40.9323 85.1386 41.1516 85.4123 41.3086C85.6859 41.4655 86.0119 41.544 86.3902 41.544C86.6518 41.544 86.8893 41.5078 87.1026 41.4353C87.3159 41.3629 87.499 41.2562 87.652 41.1154C87.8049 40.9745 87.9196 40.8015 87.9961 40.5962L90.7066 40.6747C90.594 41.2824 90.3464 41.8116 89.9641 42.2624C89.5858 42.7091 89.0887 43.0573 88.473 43.3068C87.8572 43.5523 87.1449 43.675 86.3359 43.675ZM92.2446 43.5V31.1363H95.1966V35.815H95.257C95.3777 35.5332 95.5488 35.2616 95.7701 35C95.9955 34.7384 96.2812 34.5251 96.6274 34.3601C96.9775 34.191 97.3961 34.1065 97.883 34.1065C98.527 34.1065 99.1287 34.2755 99.6881 34.6136C100.252 34.9517 100.706 35.4729 101.052 36.1772C101.399 36.8815 101.572 37.779 101.572 38.8696C101.572 39.9201 101.405 40.7994 101.071 41.5078C100.741 42.2161 100.294 42.7474 99.7303 43.1015C99.1709 43.4557 98.5491 43.6328 97.8649 43.6328C97.3981 43.6328 96.9936 43.5563 96.6515 43.4034C96.3094 43.2504 96.0217 43.0492 95.7882 42.7997C95.5588 42.5502 95.3817 42.2825 95.257 41.9968H95.1664V43.5H92.2446ZM95.1362 38.8636C95.1362 39.3627 95.2026 39.7973 95.3355 40.1676C95.4723 40.5378 95.6675 40.8256 95.921 41.0309C96.1786 41.2321 96.4865 41.3327 96.8447 41.3327C97.2069 41.3327 97.5148 41.2321 97.7683 41.0309C98.0219 40.8256 98.2131 40.5378 98.3419 40.1676C98.4747 39.7973 98.5411 39.3627 98.5411 38.8636C98.5411 38.3645 98.4747 37.9319 98.3419 37.5657C98.2131 37.1994 98.0219 36.9157 97.7683 36.7145C97.5188 36.5132 97.2109 36.4126 96.8447 36.4126C96.4825 36.4126 96.1746 36.5112 95.921 36.7084C95.6675 36.9056 95.4723 37.1873 95.3355 37.5536C95.2026 37.9198 95.1362 38.3565 95.1362 38.8636ZM106.071 31.1363V43.5H103.119V31.1363H106.071ZM110.564 43.6569C109.972 43.6569 109.447 43.5583 108.988 43.3611C108.533 43.1599 108.173 42.858 107.907 42.4556C107.646 42.0491 107.515 41.54 107.515 40.9282C107.515 40.4131 107.606 39.9784 107.787 39.6243C107.968 39.2701 108.217 38.9823 108.535 38.761C108.853 38.5396 109.219 38.3726 109.634 38.2599C110.048 38.1432 110.491 38.0647 110.962 38.0245C111.489 37.9762 111.914 37.9259 112.236 37.8735C112.558 37.8172 112.791 37.7387 112.936 37.6381C113.085 37.5335 113.159 37.3866 113.159 37.1974V37.1672C113.159 36.8573 113.053 36.6179 112.84 36.4488C112.626 36.2798 112.338 36.1953 111.976 36.1953C111.586 36.1953 111.272 36.2798 111.034 36.4488C110.797 36.6179 110.646 36.8513 110.582 37.1491L107.859 37.0525C107.94 36.4891 108.147 35.986 108.481 35.5433C108.819 35.0966 109.282 34.7464 109.869 34.4929C110.461 34.2353 111.171 34.1065 112 34.1065C112.592 34.1065 113.137 34.1769 113.636 34.3178C114.135 34.4546 114.57 34.6559 114.94 34.9215C115.311 35.1831 115.596 35.5051 115.798 35.8874C116.003 36.2697 116.106 36.7064 116.106 37.1974V43.5H113.329V42.2081H113.256C113.091 42.522 112.88 42.7876 112.622 43.0049C112.369 43.2223 112.069 43.3853 111.723 43.4939C111.381 43.6026 110.994 43.6569 110.564 43.6569ZM111.475 41.7251C111.793 41.7251 112.079 41.6607 112.332 41.5319C112.59 41.4031 112.795 41.2261 112.948 41.0007C113.101 40.7713 113.178 40.5056 113.178 40.2038V39.3224C113.093 39.3667 112.99 39.4069 112.87 39.4431C112.753 39.4794 112.624 39.5136 112.483 39.5458C112.343 39.578 112.198 39.6061 112.049 39.6303C111.9 39.6544 111.757 39.6766 111.62 39.6967C111.342 39.741 111.105 39.8094 110.908 39.902C110.715 39.9945 110.566 40.1153 110.461 40.2642C110.36 40.4091 110.31 40.5821 110.31 40.7833C110.31 41.0892 110.419 41.3226 110.636 41.4836C110.857 41.6446 111.137 41.7251 111.475 41.7251ZM123.145 34.2272V36.4005H117.295V34.2272H123.145ZM118.52 32.0057H121.472V40.5841C121.472 40.7652 121.501 40.9121 121.557 41.0248C121.617 41.1335 121.704 41.212 121.816 41.2603C121.929 41.3045 122.064 41.3267 122.221 41.3267C122.334 41.3267 122.452 41.3166 122.577 41.2965C122.706 41.2723 122.802 41.2522 122.867 41.2361L123.314 43.3672C123.173 43.4074 122.974 43.4577 122.716 43.5181C122.462 43.5784 122.159 43.6167 121.804 43.6328C121.112 43.665 120.519 43.5845 120.023 43.3913C119.532 43.1941 119.156 42.8882 118.895 42.4737C118.637 42.0592 118.512 41.538 118.52 40.9101V32.0057ZM128.886 43.675C127.916 43.675 127.079 43.4839 126.374 43.1015C125.674 42.7152 125.135 42.1658 124.756 41.4534C124.382 40.7371 124.195 39.8859 124.195 38.8998C124.195 37.942 124.384 37.1048 124.762 36.3885C125.141 35.6681 125.674 35.1086 126.362 34.7102C127.05 34.3077 127.861 34.1065 128.795 34.1065C129.455 34.1065 130.059 34.2091 130.606 34.4144C131.154 34.6196 131.626 34.9235 132.025 35.326C132.423 35.7284 132.733 36.2255 132.955 36.8171C133.176 37.4047 133.287 38.0788 133.287 38.8395V39.576H125.227V37.8615H130.54C130.536 37.5476 130.461 37.2678 130.316 37.0223C130.172 36.7768 129.972 36.5857 129.719 36.4488C129.469 36.308 129.182 36.2375 128.856 36.2375C128.525 36.2375 128.23 36.312 127.968 36.4609C127.706 36.6058 127.499 36.805 127.346 37.0586C127.193 37.3081 127.113 37.5918 127.105 37.9098V39.6544C127.105 40.0328 127.179 40.3648 127.328 40.6505C127.477 40.9323 127.688 41.1516 127.962 41.3086C128.236 41.4655 128.562 41.544 128.94 41.544C129.202 41.544 129.439 41.5078 129.652 41.4353C129.866 41.3629 130.049 41.2562 130.202 41.1154C130.355 40.9745 130.469 40.8015 130.546 40.5962L133.256 40.6747C133.144 41.2824 132.896 41.8116 132.514 42.2624C132.136 42.7091 131.639 43.0573 131.023 43.3068C130.407 43.5523 129.695 43.675 128.886 43.675Z" fill="url(#paint4_linear_4_223)"/>
</g>
<rect x="1.04927" y="1.04997" width="168.9" height="53.9" rx="6.95" stroke="white" stroke-opacity="0.15" stroke-width="2.1"/>
<defs>
<filter id="filter0_d_4_223" x="6.28498" y="2.28568" width="51.4295" height="51.4286" filterUnits="userSpaceOnUse" color-interpolation-filters="sRGB">
<feFlood flood-opacity="0" result="BackgroundImageFix"/>
<feColorMatrix in="SourceAlpha" type="matrix" values="0 0 0 0 0 0 0 0 0 0 0 0 0 0 0 0 0 0 127 0" result="hardAlpha"/>
<feOffset/>
<feGaussianBlur stdDeviation="2.85714"/>
<feComposite in2="hardAlpha" operator="out"/>
<feColorMatrix type="matrix" values="0 0 0 0 0 0 0 0 0 0 0 0 0 0 0 0 0 0 0.25 0"/>
<feBlend mode="normal" in2="BackgroundImageFix" result="effect1_dropShadow_4_223"/>
<feBlend mode="normal" in="SourceGraphic" in2="effect1_dropShadow_4_223" result="shape"/>
</filter>
<filter id="filter1_d_4_223" x="58.3993" y="3.89997" width="106.2" height="48.2" filterUnits="userSpaceOnUse" color-interpolation-filters="sRGB">
<feFlood flood-opacity="0" result="BackgroundImageFix"/>
<feColorMatrix in="SourceAlpha" type="matrix" values="0 0 0 0 0 0 0 0 0 0 0 0 0 0 0 0 0 0 127 0" result="hardAlpha"/>
<feOffset/>
<feGaussianBlur stdDeviation="2.8"/>
<feComposite in2="hardAlpha" operator="out"/>
<feColorMatrix type="matrix" values="0 0 0 0 0 0 0 0 0 0 0 0 0 0 0 0 0 0 0.25 0"/>
<feBlend mode="normal" in2="BackgroundImageFix" result="effect1_dropShadow_4_223"/>
<feBlend mode="normal" in="SourceGraphic" in2="effect1_dropShadow_4_223" result="shape"/>
</filter>
<linearGradient id="paint0_linear_4_223" x1="85.4992" y1="-3.05176e-05" x2="85.4992" y2="56" gradientUnits="userSpaceOnUse">
<stop stop-color="#1A2C32"/>
<stop offset="1" stop-color="#0E1C0F"/>
</linearGradient>
<linearGradient id="paint1_linear_4_223" x1="11.9999" y1="24.5876" x2="31.543" y2="24.5876" gradientUnits="userSpaceOnUse">
<stop stop-color="#00D2E6"/>
<stop offset="1" stop-color="#2ECCAA"/>
</linearGradient>
<linearGradient id="paint2_linear_4_223" x1="23.4377" y1="36.7352" x2="33.5842" y2="30.0298" gradientUnits="userSpaceOnUse">
<stop stop-opacity="0"/>
<stop offset="0.514"/>
<stop offset="1" stop-opacity="0"/>
</linearGradient>
<linearGradient id="paint3_linear_4_223" x1="52.0003" y1="25.0624" x2="32.4903" y2="25.0624" gradientUnits="userSpaceOnUse">
<stop stop-color="#1FA385"/>
<stop offset="1" stop-color="#2ECCAA"/>
</linearGradient>
<linearGradient id="paint4_linear_4_223" x1="64" y1="36.8077" x2="134" y2="36.8077" gradientUnits="userSpaceOnUse">
<stop stop-color="#00D2E6"/>
<stop offset="1" stop-color="#2ECCAA"/>
</linearGradient>
</defs>
</svg>
