<svg width="153" height="40" viewBox="0 0 153 40" fill="none" xmlns="http://www.w3.org/2000/svg">
<rect x="-0.00012207" y="-9.53674e-07" width="153" height="40" rx="6" fill="url(#paint0_linear_18_3554)"/>
<g filter="url(#filter0_d_18_3554)">
<path d="M31.0503 11.9785L31.0298 11.9664L30.9824 11.9519C31.0015 11.9681 31.0253 11.9774 31.0503 11.9785Z" fill="#0D0C22"/>
<path d="M31.3431 14.1217L31.3218 14.1278L31.3431 14.1217Z" fill="#0D0C22"/>
<path d="M31.0577 11.9751C31.055 11.9747 31.0523 11.9741 31.0497 11.9732C31.0496 11.9749 31.0496 11.9767 31.0497 11.9785C31.0527 11.9781 31.0554 11.9769 31.0577 11.9751Z" fill="#0D0C22"/>
<path d="M31.0496 11.9787H31.0526V11.9769L31.0496 11.9787Z" fill="#0D0C22"/>
<path d="M31.326 14.1179L31.3606 14.0981L31.3734 14.0908L31.3851 14.0783C31.3632 14.0878 31.3432 14.1012 31.326 14.1179Z" fill="#0D0C22"/>
<path d="M31.1093 12.0254L31.0755 11.9931L31.0527 11.9806C31.065 12.0024 31.0853 12.0185 31.1093 12.0254Z" fill="#0D0C22"/>
<path d="M22.7304 32.8228C22.7035 32.8345 22.6798 32.8528 22.6617 32.876L22.683 32.8624C22.6975 32.849 22.7179 32.8333 22.7304 32.8228Z" fill="#0D0C22"/>
<path d="M27.5954 31.8482C27.5954 31.8177 27.5806 31.8233 27.5842 31.9322C27.5842 31.9235 27.5878 31.9146 27.5894 31.9061C27.5914 31.8867 27.593 31.8677 27.5954 31.8482Z" fill="#0D0C22"/>
<path d="M27.0915 32.8228C27.0645 32.8345 27.0409 32.8528 27.0228 32.876L27.0441 32.8624C27.0585 32.849 27.079 32.8333 27.0915 32.8228Z" fill="#0D0C22"/>
<path d="M19.3039 33.0545C19.2834 33.0367 19.2584 33.025 19.2316 33.0205C19.2533 33.0311 19.275 33.0416 19.2894 33.0496L19.3039 33.0545Z" fill="#0D0C22"/>
<path d="M18.5324 32.3028C18.5292 32.2711 18.5195 32.2404 18.5038 32.2125C18.5149 32.2413 18.5241 32.2711 18.5315 32.3011L18.5324 32.3028Z" fill="#0D0C22"/>
<path d="M23.7112 18.8585C22.6527 19.3198 21.4514 19.8429 19.8945 19.8429C19.2432 19.8415 18.5951 19.7506 17.9677 19.5725L19.0445 30.8267C19.0826 31.297 19.2931 31.7356 19.6342 32.0553C19.9753 32.375 20.422 32.5523 20.8856 32.5523C20.8856 32.5523 22.4124 32.633 22.9219 32.633C23.4701 32.633 25.1142 32.5523 25.1142 32.5523C25.5778 32.5523 26.0244 32.3748 26.3655 32.0551C26.7065 31.7354 26.9169 31.297 26.955 30.8267L28.1083 18.3903C27.5929 18.2112 27.0728 18.0921 26.4864 18.0921C25.4723 18.0917 24.6552 18.4473 23.7112 18.8585Z" fill="#FFDD00"/>
<path d="M14.6344 14.057L14.6529 14.0744L14.6649 14.0817C14.6556 14.0724 14.6454 14.0641 14.6344 14.057Z" fill="#0D0C22"/>
<path d="M33.0877 13.0183L32.9256 12.1857C32.7801 11.4387 32.4498 10.7328 31.6966 10.4628C31.4551 10.3764 31.1811 10.3393 30.996 10.1605C30.8109 9.98173 30.7562 9.70406 30.7133 9.44656C30.634 8.97395 30.5595 8.50094 30.4782 8.02915C30.4081 7.62353 30.3526 7.16788 30.1698 6.79577C29.9319 6.29613 29.4383 6.00393 28.9475 5.81061C28.696 5.71504 28.4394 5.63419 28.1788 5.56846C26.9525 5.23912 25.6633 5.11805 24.4017 5.04903C22.8875 4.96398 21.3693 4.9896 19.8587 5.12572C18.7344 5.22984 17.5501 5.35576 16.4817 5.75169C16.0912 5.89657 15.6888 6.07052 15.3918 6.37765C15.0275 6.75501 14.9086 7.3386 15.1746 7.80918C15.3637 8.14336 15.684 8.37946 16.0238 8.53565C16.4663 8.7369 16.9285 8.89005 17.4027 8.99253C18.7229 9.28957 20.0903 9.40619 21.439 9.45585C22.9339 9.51725 24.4312 9.46748 25.919 9.3069C26.2869 9.26574 26.6541 9.21636 27.0207 9.1588C27.4525 9.09139 27.7296 8.51668 27.6023 8.11631C27.4501 7.63767 27.0409 7.45202 26.5783 7.52426C26.5101 7.53515 26.4423 7.54523 26.3741 7.55532L26.325 7.56259C26.1682 7.58279 26.0115 7.6016 25.8548 7.6191C25.531 7.65461 25.2064 7.68367 24.8811 7.70628C24.1523 7.75793 23.4217 7.78174 22.6914 7.78296C21.9738 7.78296 21.2558 7.76236 20.5398 7.71435C20.2132 7.69256 19.8873 7.66483 19.5622 7.6312C19.4143 7.61546 19.2668 7.59892 19.1193 7.58035L18.979 7.56219L18.9485 7.55776L18.803 7.53637C18.5056 7.49075 18.2083 7.4383 17.9141 7.37492C17.8844 7.36821 17.8579 7.35142 17.8388 7.32727C17.8198 7.30313 17.8094 7.2731 17.8094 7.24215C17.8094 7.21119 17.8198 7.18116 17.8388 7.15702C17.8579 7.13288 17.8844 7.11607 17.9141 7.10936H17.9197C18.1746 7.05407 18.4315 7.00685 18.6892 6.96568C18.7751 6.95196 18.8612 6.93851 18.9477 6.92533H18.95C19.1114 6.91443 19.2736 6.88497 19.4341 6.86559C20.8311 6.71767 22.2364 6.66724 23.6401 6.71465C24.3216 6.73483 25.0028 6.77559 25.6811 6.84582C25.827 6.86116 25.9721 6.8773 26.1172 6.89546C26.1727 6.90232 26.2286 6.91039 26.2845 6.91725L26.3971 6.9338C26.7254 6.98358 27.0519 7.04398 27.3767 7.11501C27.858 7.22156 28.4761 7.25627 28.6902 7.79304C28.7584 7.96336 28.7893 8.15264 28.827 8.33142L28.8749 8.55946C28.8762 8.56354 28.8771 8.56774 28.8777 8.57196C28.9911 9.11009 29.1046 9.64821 29.2183 10.1863C29.2266 10.2261 29.2268 10.2672 29.2189 10.307C29.2109 10.3468 29.195 10.3846 29.1721 10.4179C29.1492 10.4511 29.1197 10.4793 29.0857 10.5005C29.0516 10.5217 29.0136 10.5355 28.9741 10.5411H28.9709L28.9015 10.5508L28.8329 10.5601C28.6157 10.5889 28.3982 10.6158 28.1804 10.6408C27.7514 10.6906 27.3218 10.7336 26.8915 10.7699C26.0365 10.8423 25.1797 10.8898 24.3212 10.9124C23.8838 10.9242 23.4465 10.9298 23.0094 10.9289C21.2693 10.9276 19.5308 10.8246 17.8023 10.6206C17.6152 10.598 17.428 10.5738 17.2409 10.5492C17.386 10.5681 17.1354 10.5346 17.0847 10.5274C16.9658 10.5104 16.8468 10.4928 16.7279 10.4745C16.3287 10.4135 15.9318 10.3385 15.5334 10.2727C15.0517 10.192 14.591 10.2324 14.1553 10.4745C13.7976 10.6737 13.5082 10.9793 13.3255 11.3503C13.1376 11.7458 13.0817 12.1764 12.9976 12.6014C12.9136 13.0264 12.7827 13.4837 12.8323 13.92C12.939 14.8615 13.5856 15.6267 14.5157 15.7979C15.3906 15.9593 16.2704 16.0901 17.1525 16.2014C20.6177 16.6335 24.1184 16.6852 27.5944 16.3556C27.8775 16.3287 28.1601 16.2994 28.4424 16.2676C28.5306 16.2578 28.6198 16.2681 28.7035 16.2979C28.7873 16.3277 28.8634 16.3762 28.9264 16.4398C28.9893 16.5034 29.0375 16.5805 29.0673 16.6655C29.0972 16.7506 29.108 16.8413 29.099 16.9311L29.0109 17.8021C28.8336 19.562 28.6562 21.3218 28.4789 23.0815C28.2939 24.9294 28.1077 26.7771 27.9203 28.6247C27.8674 29.1451 27.8146 29.6654 27.7617 30.1854C27.711 30.6977 27.7038 31.2259 27.6083 31.7321C27.4576 32.5279 26.9284 33.0168 26.1561 33.1955C25.4485 33.3594 24.7257 33.4455 24.0001 33.4521C23.1957 33.4566 22.3917 33.4202 21.5873 33.4247C20.7285 33.4296 19.6768 33.3489 19.0139 32.6982C18.4315 32.1268 18.351 31.232 18.2717 30.4582C18.166 29.4339 18.0612 28.4098 17.9573 27.3858L17.3745 21.6915L16.9975 18.0071C16.9911 17.9462 16.9848 17.886 16.9789 17.8247C16.9336 17.3852 16.628 16.955 16.1463 16.9772C15.734 16.9957 15.2654 17.3525 15.3137 17.8247L15.5932 20.5562L16.1713 26.2065C16.3359 27.8114 16.5002 29.4165 16.6641 31.0221C16.6958 31.3296 16.7255 31.638 16.7588 31.9455C16.94 33.6261 18.2007 34.5318 19.762 34.7867C20.6738 34.9361 21.6079 34.9669 22.5332 34.9821C23.7194 35.0016 24.9175 35.048 26.0843 34.8292C27.8133 34.5062 29.1105 33.3311 29.2956 31.5081C29.3485 30.9817 29.4013 30.4554 29.4542 29.9288C29.6299 28.1874 29.8054 26.4459 29.9807 24.7043L30.554 19.0137L30.8168 16.4057C30.8299 16.2763 30.8835 16.1547 30.9698 16.0589C31.0561 15.963 31.1703 15.898 31.2957 15.8733C31.7901 15.7753 32.2627 15.6078 32.6144 15.2247C33.1741 14.6149 33.2855 13.8199 33.0877 13.0183ZM14.4903 13.5809C14.4978 13.5773 14.4839 13.6431 14.478 13.6738C14.4768 13.6273 14.4792 13.5862 14.4903 13.5809ZM14.5383 13.9587C14.5422 13.9559 14.5541 13.972 14.5664 13.9914C14.5478 13.9736 14.5359 13.9603 14.5379 13.9587H14.5383ZM14.5854 14.0221C14.6025 14.0515 14.6116 14.0701 14.5854 14.0221V14.0221ZM14.6802 14.1004H14.6826C14.6826 14.1032 14.6869 14.106 14.6885 14.1088C14.6859 14.1057 14.683 14.1029 14.6798 14.1004H14.6802ZM31.2727 13.9833C31.0951 14.1552 30.8275 14.2352 30.5631 14.2751C27.5976 14.7231 24.5889 14.9499 21.5908 14.8498C19.4452 14.7752 17.3222 14.5326 15.198 14.2271C14.9898 14.1972 14.7642 14.1585 14.6211 14.0023C14.3515 13.7077 14.4839 13.1144 14.5541 12.7584C14.6183 12.4323 14.7412 11.9977 15.1222 11.9512C15.7169 11.8802 16.4075 12.1357 16.9959 12.2265C17.7042 12.3365 18.4152 12.4246 19.1288 12.4908C22.1744 12.7734 25.2712 12.7294 28.3033 12.3161C28.8559 12.2405 29.4066 12.1526 29.9553 12.0525C30.4441 11.9633 30.9861 11.7959 31.2815 12.3112C31.484 12.6624 31.511 13.1321 31.4797 13.5289C31.47 13.7017 31.3958 13.8643 31.2723 13.9833H31.2727Z" fill="#E8E8E8"/>
</g>
<g filter="url(#filter1_d_18_3554)">
<path d="M46.6604 24.5V15.7727H50.2996C50.953 15.7727 51.4999 15.8651 51.9402 16.0497C52.3834 16.2344 52.7158 16.4929 52.9374 16.8253C53.1618 17.1577 53.274 17.5426 53.274 17.9801C53.274 18.3125 53.2044 18.6094 53.0652 18.8707C52.926 19.1293 52.7343 19.3437 52.4899 19.5142C52.2456 19.6847 51.9629 19.804 51.6419 19.8722V19.9574C51.9942 19.9744 52.3195 20.0696 52.6178 20.2429C52.9189 20.4162 53.1604 20.6577 53.3422 20.9673C53.524 21.2741 53.6149 21.6378 53.6149 22.0582C53.6149 22.527 53.4956 22.946 53.257 23.3153C53.0183 23.6818 52.6732 23.9716 52.2215 24.1847C51.7698 24.3949 51.2215 24.5 50.5766 24.5H46.6604ZM48.7698 22.7997H50.0737C50.5311 22.7997 50.8678 22.7131 51.0837 22.5398C51.3024 22.3665 51.4118 22.125 51.4118 21.8153C51.4118 21.5909 51.3593 21.3977 51.2541 21.2358C51.149 21.071 50.9999 20.9446 50.8067 20.8565C50.6135 20.7656 50.382 20.7202 50.1121 20.7202H48.7698V22.7997ZM48.7698 19.3608H49.9374C50.1675 19.3608 50.372 19.3224 50.551 19.2457C50.73 19.169 50.8692 19.0582 50.9686 18.9133C51.0709 18.7685 51.122 18.5937 51.122 18.3892C51.122 18.0966 51.0183 17.8665 50.811 17.6989C50.6036 17.5312 50.3237 17.4474 49.9715 17.4474H48.7698V19.3608ZM58.8521 21.6747V17.9545H60.9317V24.5H58.9459V23.2812H58.8777C58.7328 23.6818 58.4857 24 58.1362 24.2358C57.7896 24.4687 57.3706 24.5852 56.8791 24.5852C56.4331 24.5852 56.0411 24.4829 55.703 24.2784C55.3649 24.0739 55.1021 23.7883 54.9146 23.4219C54.7271 23.0525 54.632 22.6207 54.6291 22.1264V17.9545H56.7129V21.7173C56.7158 22.0724 56.8095 22.3523 56.9942 22.5568C57.1789 22.7614 57.4303 22.8636 57.7485 22.8636C57.9558 22.8636 58.1419 22.8182 58.3067 22.7273C58.4743 22.6335 58.6064 22.4986 58.703 22.3224C58.8024 22.1435 58.8521 21.9275 58.8521 21.6747ZM63.5322 26.9545C63.2822 26.9545 63.0464 26.9346 62.8248 26.8949C62.6032 26.8579 62.4129 26.8082 62.2538 26.7457L62.714 25.2329C62.9186 25.3011 63.1032 25.3409 63.268 25.3523C63.4356 25.3636 63.5791 25.3366 63.6984 25.2713C63.8205 25.2088 63.9143 25.0966 63.9796 24.9346L64.0606 24.7386L61.7339 17.9545H63.9157L65.1217 22.625H65.1899L66.4129 17.9545H68.6075L66.1401 25.1264C66.0208 25.4844 65.8518 25.7997 65.633 26.0724C65.4171 26.348 65.1373 26.5639 64.7936 26.7202C64.4526 26.8764 64.0322 26.9545 63.5322 26.9545ZM71.9846 15.7727H74.5968L76.8127 21.1761H76.915L79.1309 15.7727H81.7431V24.5H79.6891V19.1392H79.6167L77.5201 24.4446H76.2076L74.111 19.1094H74.0386V24.5H71.9846V15.7727ZM86.1185 24.6236C85.4338 24.6236 84.8429 24.4886 84.3457 24.2187C83.8514 23.946 83.4707 23.5582 83.2037 23.0554C82.9395 22.5497 82.8074 21.9489 82.8074 21.2528C82.8074 20.5767 82.9409 19.9858 83.208 19.4801C83.475 18.9716 83.8514 18.5767 84.3372 18.2954C84.823 18.0114 85.3955 17.8693 86.0546 17.8693C86.5205 17.8693 86.9466 17.9418 87.333 18.0866C87.7193 18.2315 88.0531 18.446 88.3344 18.7301C88.6156 19.0142 88.8344 19.365 88.9906 19.7827C89.1469 20.1974 89.225 20.6733 89.225 21.2102V21.7301H83.5361V20.5199H87.2861C87.2832 20.2983 87.2307 20.1008 87.1284 19.9275C87.0261 19.7543 86.8855 19.6193 86.7065 19.5227C86.5304 19.4233 86.3273 19.3736 86.0972 19.3736C85.8642 19.3736 85.6554 19.4261 85.4707 19.5312C85.2861 19.6335 85.1398 19.7741 85.0318 19.9531C84.9239 20.1293 84.8671 20.3295 84.8614 20.554V21.7855C84.8614 22.0525 84.9139 22.2869 85.019 22.4886C85.1242 22.6875 85.2733 22.8423 85.4665 22.9531C85.6597 23.0639 85.8898 23.1193 86.1568 23.1193C86.3415 23.1193 86.5091 23.0937 86.6597 23.0426C86.8102 22.9915 86.9395 22.9162 87.0475 22.8168C87.1554 22.7173 87.2364 22.5952 87.2903 22.4503L89.2037 22.5057C89.1242 22.9347 88.9494 23.3082 88.6796 23.6264C88.4125 23.9418 88.0617 24.1875 87.627 24.3636C87.1923 24.5369 86.6895 24.6236 86.1185 24.6236ZM94.7126 24.6108C94.295 24.6108 93.9242 24.5412 93.6004 24.402C93.2793 24.2599 93.0251 24.0469 92.8376 23.7628C92.6529 23.4758 92.5606 23.1165 92.5606 22.6847C92.5606 22.321 92.6245 22.0142 92.7523 21.7642C92.8802 21.5142 93.0563 21.3111 93.2808 21.1548C93.5052 20.9986 93.7637 20.8807 94.0563 20.8011C94.3489 20.7187 94.6614 20.6633 94.9938 20.6349C95.366 20.6008 95.6657 20.5653 95.893 20.5284C96.1202 20.4886 96.285 20.4332 96.3873 20.3622C96.4924 20.2883 96.545 20.1847 96.545 20.0511V20.0298C96.545 19.8111 96.4697 19.642 96.3191 19.5227C96.1685 19.4034 95.9654 19.3437 95.7097 19.3437C95.4342 19.3437 95.2126 19.4034 95.045 19.5227C94.8773 19.642 94.7708 19.8068 94.7254 20.017L92.8035 19.9489C92.8603 19.5511 93.0066 19.196 93.2424 18.8835C93.481 18.5682 93.8077 18.321 94.2225 18.142C94.6401 17.9602 95.1416 17.8693 95.7268 17.8693C96.1444 17.8693 96.5293 17.919 96.8816 18.0185C97.2339 18.115 97.5407 18.2571 97.8021 18.4446C98.0634 18.6293 98.2651 18.8565 98.4072 19.1264C98.5521 19.3963 98.6245 19.7045 98.6245 20.0511V24.5H96.6643V23.5881H96.6131C96.4967 23.8097 96.3475 23.9972 96.1657 24.1506C95.9867 24.304 95.7751 24.419 95.5308 24.4957C95.2893 24.5724 95.0166 24.6108 94.7126 24.6108ZM95.356 23.2472C95.5805 23.2472 95.7822 23.2017 95.9612 23.1108C96.143 23.0199 96.2879 22.8949 96.3958 22.7358C96.5038 22.5739 96.5577 22.3864 96.5577 22.1733V21.5511C96.4981 21.5824 96.4256 21.6108 96.3404 21.6364C96.258 21.6619 96.1671 21.6861 96.0677 21.7088C95.9683 21.7315 95.866 21.7514 95.7609 21.7685C95.6558 21.7855 95.5549 21.8011 95.4583 21.8153C95.2623 21.8466 95.0947 21.8949 94.9555 21.9602C94.8191 22.0256 94.714 22.1108 94.6401 22.2159C94.5691 22.3182 94.5336 22.4403 94.5336 22.5824C94.5336 22.7983 94.6103 22.9631 94.7637 23.0767C94.92 23.1903 95.1174 23.2472 95.356 23.2472ZM110.399 18.9347H108.268C108.24 18.7159 108.181 18.5185 108.093 18.3423C108.005 18.1662 107.889 18.0156 107.744 17.8906C107.599 17.7656 107.427 17.6704 107.228 17.6051C107.032 17.5369 106.815 17.5028 106.576 17.5028C106.153 17.5028 105.788 17.6065 105.481 17.8139C105.177 18.0213 104.943 18.321 104.778 18.7131C104.616 19.1051 104.535 19.5795 104.535 20.1364C104.535 20.7159 104.617 21.2017 104.782 21.5937C104.95 21.9829 105.184 22.277 105.485 22.4758C105.789 22.6719 106.149 22.7699 106.563 22.7699C106.796 22.7699 107.008 22.74 107.198 22.6804C107.392 22.6207 107.561 22.5341 107.705 22.4204C107.853 22.304 107.974 22.1633 108.068 21.9986C108.164 21.831 108.231 21.642 108.268 21.4318L110.399 21.4446C110.362 21.831 110.25 22.2116 110.062 22.5866C109.877 22.9616 109.623 23.304 109.299 23.6136C108.975 23.9204 108.58 24.1648 108.115 24.3466C107.651 24.5284 107.12 24.6193 106.521 24.6193C105.731 24.6193 105.024 24.446 104.399 24.0994C103.776 23.75 103.285 23.2415 102.924 22.5739C102.563 21.9062 102.383 21.0937 102.383 20.1364C102.383 19.1761 102.566 18.3622 102.933 17.6946C103.299 17.027 103.795 16.5199 104.42 16.1733C105.045 15.8267 105.745 15.6534 106.521 15.6534C107.049 15.6534 107.538 15.7273 107.987 15.875C108.436 16.0199 108.83 16.2329 109.171 16.5142C109.512 16.7926 109.789 17.1349 110.002 17.5412C110.215 17.9474 110.348 18.4119 110.399 18.9347ZM114.661 24.6236C113.974 24.6236 113.383 24.4829 112.888 24.2017C112.397 23.9176 112.018 23.5227 111.751 23.017C111.486 22.5085 111.354 21.919 111.354 21.2486C111.354 20.5753 111.486 19.9858 111.751 19.4801C112.018 18.9716 112.397 18.5767 112.888 18.2954C113.383 18.0114 113.974 17.8693 114.661 17.8693C115.349 17.8693 115.938 18.0114 116.43 18.2954C116.924 18.5767 117.303 18.9716 117.567 19.4801C117.834 19.9858 117.968 20.5753 117.968 21.2486C117.968 21.919 117.834 22.5085 117.567 23.017C117.303 23.5227 116.924 23.9176 116.43 24.2017C115.938 24.4829 115.349 24.6236 114.661 24.6236ZM114.674 23.0511C114.924 23.0511 115.136 22.9744 115.309 22.821C115.482 22.6676 115.614 22.4545 115.705 22.1818C115.799 21.9091 115.846 21.5937 115.846 21.2358C115.846 20.8722 115.799 20.554 115.705 20.2812C115.614 20.0085 115.482 19.7954 115.309 19.642C115.136 19.4886 114.924 19.4119 114.674 19.4119C114.415 19.4119 114.197 19.4886 114.018 19.642C113.841 19.7954 113.707 20.0085 113.613 20.2812C113.522 20.554 113.476 20.8722 113.476 21.2358C113.476 21.5937 113.522 21.9091 113.613 22.1818C113.707 22.4545 113.841 22.6676 114.018 22.821C114.197 22.9744 114.415 23.0511 114.674 23.0511ZM122.756 17.9545V19.4886H118.545V17.9545H122.756ZM119.423 24.5V17.6222C119.423 17.1165 119.518 16.6974 119.709 16.3651C119.899 16.0298 120.163 15.7798 120.501 15.6151C120.839 15.4474 121.23 15.3636 121.673 15.3636C121.963 15.3636 122.236 15.3864 122.491 15.4318C122.75 15.4744 122.942 15.5128 123.067 15.5469L122.734 17.0724C122.658 17.0469 122.564 17.0256 122.453 17.0085C122.345 16.9915 122.243 16.9829 122.146 16.9829C121.902 16.9829 121.734 17.0369 121.643 17.1449C121.552 17.2528 121.507 17.4006 121.507 17.5881V24.5H119.423ZM127.478 17.9545V19.4886H123.268V17.9545H127.478ZM124.146 24.5V17.6222C124.146 17.1165 124.241 16.6974 124.431 16.3651C124.622 16.0298 124.886 15.7798 125.224 15.6151C125.562 15.4474 125.953 15.3636 126.396 15.3636C126.686 15.3636 126.958 15.3864 127.214 15.4318C127.473 15.4744 127.664 15.5128 127.789 15.5469L127.457 17.0724C127.38 17.0469 127.286 17.0256 127.176 17.0085C127.068 16.9915 126.965 16.9829 126.869 16.9829C126.624 16.9829 126.457 17.0369 126.366 17.1449C126.275 17.2528 126.23 17.4006 126.23 17.5881V24.5H124.146ZM131.329 24.6236C130.645 24.6236 130.054 24.4886 129.557 24.2187C129.062 23.946 128.682 23.5582 128.415 23.0554C128.15 22.5497 128.018 21.9489 128.018 21.2528C128.018 20.5767 128.152 19.9858 128.419 19.4801C128.686 18.9716 129.062 18.5767 129.548 18.2954C130.034 18.0114 130.606 17.8693 131.265 17.8693C131.731 17.8693 132.158 17.9418 132.544 18.0866C132.93 18.2315 133.264 18.446 133.545 18.7301C133.827 19.0142 134.045 19.365 134.202 19.7827C134.358 20.1974 134.436 20.6733 134.436 21.2102V21.7301H128.747V20.5199H132.497C132.494 20.2983 132.442 20.1008 132.339 19.9275C132.237 19.7543 132.096 19.6193 131.917 19.5227C131.741 19.4233 131.538 19.3736 131.308 19.3736C131.075 19.3736 130.866 19.4261 130.682 19.5312C130.497 19.6335 130.351 19.7741 130.243 19.9531C130.135 20.1293 130.078 20.3295 130.072 20.554V21.7855C130.072 22.0525 130.125 22.2869 130.23 22.4886C130.335 22.6875 130.484 22.8423 130.677 22.9531C130.871 23.0639 131.101 23.1193 131.368 23.1193C131.552 23.1193 131.72 23.0937 131.871 23.0426C132.021 22.9915 132.15 22.9162 132.258 22.8168C132.366 22.7173 132.447 22.5952 132.501 22.4503L134.415 22.5057C134.335 22.9347 134.16 23.3082 133.89 23.6264C133.623 23.9418 133.273 24.1875 132.838 24.3636C132.403 24.5369 131.9 24.6236 131.329 24.6236ZM138.56 24.6236C137.875 24.6236 137.284 24.4886 136.787 24.2187C136.293 23.946 135.912 23.5582 135.645 23.0554C135.381 22.5497 135.249 21.9489 135.249 21.2528C135.249 20.5767 135.382 19.9858 135.649 19.4801C135.916 18.9716 136.293 18.5767 136.779 18.2954C137.264 18.0114 137.837 17.8693 138.496 17.8693C138.962 17.8693 139.388 17.9418 139.774 18.0866C140.161 18.2315 140.495 18.446 140.776 18.7301C141.057 19.0142 141.276 19.365 141.432 19.7827C141.588 20.1974 141.666 20.6733 141.666 21.2102V21.7301H135.977V20.5199H139.727C139.725 20.2983 139.672 20.1008 139.57 19.9275C139.468 19.7543 139.327 19.6193 139.148 19.5227C138.972 19.4233 138.769 19.3736 138.539 19.3736C138.306 19.3736 138.097 19.4261 137.912 19.5312C137.727 19.6335 137.581 19.7741 137.473 19.9531C137.365 20.1293 137.308 20.3295 137.303 20.554V21.7855C137.303 22.0525 137.355 22.2869 137.46 22.4886C137.566 22.6875 137.715 22.8423 137.908 22.9531C138.101 23.0639 138.331 23.1193 138.598 23.1193C138.783 23.1193 138.95 23.0937 139.101 23.0426C139.252 22.9915 139.381 22.9162 139.489 22.8168C139.597 22.7173 139.678 22.5952 139.732 22.4503L141.645 22.5057C141.566 22.9347 141.391 23.3082 141.121 23.6264C140.854 23.9418 140.503 24.1875 140.068 24.3636C139.634 24.5369 139.131 24.6236 138.56 24.6236Z" fill="#FFDD00"/>
</g>
<rect x="0.749878" y="0.749999" width="151.5" height="38.5" rx="5.25" stroke="white" stroke-opacity="0.15" stroke-width="1.5"/>
<defs>
<filter id="filter0_d_18_3554" x="5.99988" y="1" width="36" height="38" filterUnits="userSpaceOnUse" color-interpolation-filters="sRGB">
<feFlood flood-opacity="0" result="BackgroundImageFix"/>
<feColorMatrix in="SourceAlpha" type="matrix" values="0 0 0 0 0 0 0 0 0 0 0 0 0 0 0 0 0 0 127 0" result="hardAlpha"/>
<feOffset/>
<feGaussianBlur stdDeviation="2"/>
<feComposite in2="hardAlpha" operator="out"/>
<feColorMatrix type="matrix" values="0 0 0 0 0 0 0 0 0 0 0 0 0 0 0 0 0 0 0.25 0"/>
<feBlend mode="normal" in2="BackgroundImageFix" result="effect1_dropShadow_18_3554"/>
<feBlend mode="normal" in="SourceGraphic" in2="effect1_dropShadow_18_3554" result="shape"/>
</filter>
<filter id="filter1_d_18_3554" x="41.9999" y="9.49999" width="105" height="21.4545" filterUnits="userSpaceOnUse" color-interpolation-filters="sRGB">
<feFlood flood-opacity="0" result="BackgroundImageFix"/>
<feColorMatrix in="SourceAlpha" type="matrix" values="0 0 0 0 0 0 0 0 0 0 0 0 0 0 0 0 0 0 127 0" result="hardAlpha"/>
<feOffset/>
<feGaussianBlur stdDeviation="2"/>
<feComposite in2="hardAlpha" operator="out"/>
<feColorMatrix type="matrix" values="0 0 0 0 0 0 0 0 0 0 0 0 0 0 0 0 0 0 0.25 0"/>
<feBlend mode="normal" in2="BackgroundImageFix" result="effect1_dropShadow_18_3554"/>
<feBlend mode="normal" in="SourceGraphic" in2="effect1_dropShadow_18_3554" result="shape"/>
</filter>
<linearGradient id="paint0_linear_18_3554" x1="76.4999" y1="-9.53674e-07" x2="76.4999" y2="40" gradientUnits="userSpaceOnUse">
<stop stop-color="#554600"/>
<stop offset="1" stop-color="#352C00"/>
</linearGradient>
</defs>
</svg>
