<svg width="150" height="40" viewBox="0 0 150 40" fill="none" xmlns="http://www.w3.org/2000/svg">
<rect x="-0.00012207" y="-1.14441e-05" width="150" height="40" rx="6" fill="url(#paint0_linear_18_3596)"/>
<g filter="url(#filter0_d_18_3596)">
<path d="M31.0503 11.9785L31.0298 11.9664L30.9824 11.9519C31.0015 11.968 31.0253 11.9774 31.0503 11.9785Z" fill="#0D0C22"/>
<path d="M31.3431 14.1217L31.3218 14.1277L31.3431 14.1217Z" fill="#0D0C22"/>
<path d="M31.0577 11.9751C31.055 11.9747 31.0523 11.9741 31.0497 11.9732C31.0496 11.9749 31.0496 11.9767 31.0497 11.9785C31.0527 11.9781 31.0554 11.9769 31.0577 11.9751Z" fill="#0D0C22"/>
<path d="M31.0496 11.9787H31.0526V11.9768L31.0496 11.9787Z" fill="#0D0C22"/>
<path d="M31.326 14.1179L31.3606 14.0981L31.3734 14.0908L31.3851 14.0783C31.3632 14.0878 31.3432 14.1012 31.326 14.1179Z" fill="#0D0C22"/>
<path d="M31.1093 12.0253L31.0755 11.993L31.0527 11.9805C31.065 12.0024 31.0853 12.0184 31.1093 12.0253Z" fill="#0D0C22"/>
<path d="M22.7304 32.8228C22.7035 32.8345 22.6798 32.8528 22.6617 32.876L22.683 32.8624C22.6975 32.849 22.7179 32.8333 22.7304 32.8228Z" fill="#0D0C22"/>
<path d="M27.5954 31.8482C27.5954 31.8177 27.5806 31.8233 27.5842 31.9321C27.5842 31.9235 27.5878 31.9146 27.5894 31.9061C27.5914 31.8866 27.593 31.8676 27.5954 31.8482Z" fill="#0D0C22"/>
<path d="M27.0915 32.8228C27.0645 32.8345 27.0409 32.8528 27.0228 32.876L27.0441 32.8624C27.0585 32.849 27.079 32.8333 27.0915 32.8228Z" fill="#0D0C22"/>
<path d="M19.3039 33.0545C19.2834 33.0367 19.2584 33.0249 19.2316 33.0205C19.2533 33.031 19.275 33.0416 19.2894 33.0496L19.3039 33.0545Z" fill="#0D0C22"/>
<path d="M18.5324 32.3028C18.5292 32.2711 18.5195 32.2404 18.5038 32.2124C18.5149 32.2413 18.5241 32.2711 18.5315 32.3011L18.5324 32.3028Z" fill="#0D0C22"/>
<path d="M23.7112 18.8585C22.6527 19.3198 21.4514 19.8428 19.8945 19.8428C19.2432 19.8415 18.5951 19.7506 17.9677 19.5724L19.0445 30.8267C19.0826 31.297 19.2931 31.7356 19.6342 32.0553C19.9753 32.375 20.422 32.5523 20.8856 32.5523C20.8856 32.5523 22.4124 32.633 22.9219 32.633C23.4701 32.633 25.1142 32.5523 25.1142 32.5523C25.5778 32.5523 26.0244 32.3747 26.3655 32.055C26.7065 31.7353 26.9169 31.297 26.955 30.8267L28.1083 18.3903C27.5929 18.2111 27.0728 18.0921 26.4864 18.0921C25.4723 18.0917 24.6552 18.4472 23.7112 18.8585Z" fill="#FFDD00"/>
<path d="M14.6344 14.057L14.6529 14.0744L14.6649 14.0816C14.6556 14.0724 14.6454 14.0641 14.6344 14.057Z" fill="#0D0C22"/>
<path d="M33.0877 13.0183L32.9256 12.1857C32.7801 11.4387 32.4498 10.7328 31.6966 10.4628C31.4551 10.3764 31.1811 10.3393 30.996 10.1605C30.8109 9.98171 30.7562 9.70404 30.7133 9.44654C30.634 8.97393 30.5595 8.50092 30.4782 8.02913C30.4081 7.62351 30.3526 7.16787 30.1698 6.79576C29.9319 6.29611 29.4383 6.00391 28.9475 5.81059C28.696 5.71502 28.4394 5.63417 28.1788 5.56844C26.9525 5.23911 25.6633 5.11803 24.4017 5.04902C22.8875 4.96396 21.3693 4.98959 19.8587 5.1257C18.7344 5.22983 17.5501 5.35575 16.4817 5.75167C16.0912 5.89656 15.6888 6.0705 15.3918 6.37764C15.0275 6.755 14.9086 7.33859 15.1746 7.80917C15.3637 8.14334 15.684 8.37945 16.0238 8.53564C16.4663 8.73689 16.9285 8.89003 17.4027 8.99251C18.7229 9.28955 20.0903 9.40618 21.439 9.45583C22.9339 9.51724 24.4312 9.46747 25.919 9.30689C26.2869 9.26572 26.6541 9.21635 27.0207 9.15879C27.4525 9.09138 27.7296 8.51666 27.6023 8.1163C27.4501 7.63766 27.0409 7.452 26.5783 7.52425C26.5101 7.53513 26.4423 7.54522 26.3741 7.5553L26.325 7.56258C26.1682 7.58277 26.0115 7.60158 25.8548 7.61908C25.531 7.65459 25.2064 7.68365 24.8811 7.70627C24.1523 7.75792 23.4217 7.78172 22.6914 7.78294C21.9738 7.78294 21.2558 7.76235 20.5398 7.71433C20.2132 7.69254 19.8873 7.66482 19.5622 7.63118C19.4143 7.61544 19.2668 7.59891 19.1193 7.58033L18.979 7.56218L18.9485 7.55774L18.803 7.53635C18.5056 7.49073 18.2083 7.43828 17.9141 7.37491C17.8844 7.3682 17.8579 7.3514 17.8388 7.32725C17.8198 7.30311 17.8094 7.27308 17.8094 7.24213C17.8094 7.21118 17.8198 7.18115 17.8388 7.15701C17.8579 7.13286 17.8844 7.11605 17.9141 7.10935H17.9197C18.1746 7.05406 18.4315 7.00684 18.6892 6.96567C18.7751 6.95195 18.8612 6.93849 18.9477 6.92531H18.95C19.1114 6.91441 19.2736 6.88495 19.4341 6.86558C20.8311 6.71766 22.2364 6.66722 23.6401 6.71464C24.3216 6.73482 25.0028 6.77558 25.6811 6.8458C25.827 6.86114 25.9721 6.87728 26.1172 6.89544C26.1727 6.90231 26.2286 6.91038 26.2845 6.91724L26.3971 6.93378C26.7254 6.98356 27.0519 7.04397 27.3767 7.115C27.858 7.22155 28.4761 7.25625 28.6902 7.79303C28.7584 7.96334 28.7893 8.15263 28.827 8.33141L28.8749 8.55945C28.8762 8.56353 28.8771 8.56773 28.8777 8.57195C28.9911 9.11007 29.1046 9.64819 29.2183 10.1863C29.2266 10.2261 29.2268 10.2671 29.2189 10.307C29.2109 10.3468 29.195 10.3845 29.1721 10.4178C29.1492 10.4511 29.1197 10.4793 29.0857 10.5005C29.0516 10.5217 29.0136 10.5355 28.9741 10.5411H28.9709L28.9015 10.5508L28.8329 10.56C28.6157 10.5888 28.3982 10.6157 28.1804 10.6408C27.7514 10.6905 27.3218 10.7336 26.8915 10.7699C26.0365 10.8423 25.1797 10.8898 24.3212 10.9124C23.8838 10.9242 23.4465 10.9297 23.0094 10.9289C21.2693 10.9275 19.5308 10.8246 17.8023 10.6206C17.6152 10.598 17.428 10.5738 17.2409 10.5492C17.386 10.5681 17.1354 10.5346 17.0847 10.5274C16.9658 10.5104 16.8468 10.4928 16.7279 10.4745C16.3287 10.4135 15.9318 10.3385 15.5334 10.2727C15.0517 10.192 14.591 10.2323 14.1553 10.4745C13.7976 10.6737 13.5082 10.9792 13.3255 11.3503C13.1376 11.7458 13.0817 12.1764 12.9976 12.6014C12.9136 13.0264 12.7827 13.4837 12.8323 13.9199C12.939 14.8615 13.5856 15.6267 14.5157 15.7979C15.3906 15.9593 16.2704 16.09 17.1525 16.2014C20.6177 16.6335 24.1184 16.6851 27.5944 16.3556C27.8775 16.3287 28.1601 16.2994 28.4424 16.2676C28.5306 16.2578 28.6198 16.2681 28.7035 16.2979C28.7873 16.3277 28.8634 16.3762 28.9264 16.4398C28.9893 16.5034 29.0375 16.5805 29.0673 16.6655C29.0972 16.7506 29.108 16.8413 29.099 16.9311L29.0109 17.8021C28.8336 19.562 28.6562 21.3218 28.4789 23.0814C28.2939 24.9294 28.1077 26.7771 27.9203 28.6246C27.8674 29.1451 27.8146 29.6654 27.7617 30.1854C27.711 30.6977 27.7038 31.2259 27.6083 31.7321C27.4576 32.5279 26.9284 33.0167 26.1561 33.1955C25.4485 33.3594 24.7257 33.4455 24.0001 33.4521C23.1957 33.4565 22.3917 33.4202 21.5873 33.4246C20.7285 33.4296 19.6768 33.3489 19.0139 32.6982C18.4315 32.1268 18.351 31.232 18.2717 30.4582C18.166 29.4339 18.0612 28.4098 17.9573 27.3857L17.3745 21.6915L16.9975 18.0071C16.9911 17.9462 16.9848 17.886 16.9789 17.8247C16.9336 17.3852 16.628 16.955 16.1463 16.9771C15.734 16.9957 15.2654 17.3525 15.3137 17.8247L15.5932 20.5562L16.1713 26.2064C16.3359 27.8114 16.5002 29.4165 16.6641 31.0221C16.6958 31.3296 16.7255 31.638 16.7588 31.9455C16.94 33.6261 18.2007 34.5318 19.762 34.7867C20.6738 34.9361 21.6079 34.9669 22.5332 34.9821C23.7194 35.0016 24.9175 35.048 26.0843 34.8292C27.8133 34.5062 29.1105 33.331 29.2956 31.5081C29.3485 30.9817 29.4013 30.4554 29.4542 29.9288C29.6299 28.1874 29.8054 26.4459 29.9807 24.7043L30.554 19.0137L30.8168 16.4057C30.8299 16.2763 30.8835 16.1547 30.9698 16.0589C31.0561 15.963 31.1703 15.8979 31.2957 15.8733C31.7901 15.7752 32.2627 15.6077 32.6144 15.2247C33.1741 14.6149 33.2855 13.8199 33.0877 13.0183ZM14.4903 13.5809C14.4978 13.5773 14.4839 13.6431 14.478 13.6737C14.4768 13.6273 14.4792 13.5862 14.4903 13.5809ZM14.5383 13.9587C14.5422 13.9558 14.5541 13.972 14.5664 13.9914C14.5478 13.9736 14.5359 13.9603 14.5379 13.9587H14.5383ZM14.5854 14.022C14.6025 14.0515 14.6116 14.0701 14.5854 14.022V14.022ZM14.6802 14.1003H14.6826C14.6826 14.1032 14.6869 14.106 14.6885 14.1088C14.6859 14.1057 14.683 14.1029 14.6798 14.1003H14.6802ZM31.2727 13.9833C31.0951 14.1552 30.8275 14.2351 30.5631 14.2751C27.5976 14.7231 24.5889 14.9499 21.5908 14.8498C19.4452 14.7752 17.3222 14.5326 15.198 14.2271C14.9898 14.1972 14.7642 14.1585 14.6211 14.0023C14.3515 13.7076 14.4839 13.1144 14.5541 12.7584C14.6183 12.4323 14.7412 11.9976 15.1222 11.9512C15.7169 11.8802 16.4075 12.1357 16.9959 12.2265C17.7042 12.3365 18.4152 12.4246 19.1288 12.4908C22.1744 12.7733 25.2712 12.7293 28.3033 12.3161C28.8559 12.2405 29.4066 12.1526 29.9553 12.0525C30.4441 11.9633 30.9861 11.7959 31.2815 12.3112C31.484 12.6624 31.511 13.1321 31.4797 13.5289C31.47 13.7017 31.3958 13.8643 31.2723 13.9833H31.2727Z" fill="#E8E8E8"/>
</g>
<g filter="url(#filter1_d_18_3596)">
<path d="M46.6604 24.5V15.7727H50.2996C50.953 15.7727 51.4999 15.865 51.9402 16.0497C52.3834 16.2344 52.7158 16.4929 52.9374 16.8253C53.1618 17.1577 53.274 17.5426 53.274 17.9801C53.274 18.3125 53.2044 18.6094 53.0652 18.8707C52.926 19.1292 52.7343 19.3437 52.4899 19.5142C52.2456 19.6846 51.9629 19.804 51.6419 19.8721V19.9574C51.9942 19.9744 52.3195 20.0696 52.6178 20.2429C52.9189 20.4162 53.1604 20.6577 53.3422 20.9673C53.524 21.2741 53.6149 21.6378 53.6149 22.0582C53.6149 22.527 53.4956 22.946 53.257 23.3153C53.0183 23.6818 52.6732 23.9716 52.2215 24.1846C51.7698 24.3949 51.2215 24.5 50.5766 24.5H46.6604ZM48.7698 22.7997H50.0737C50.5311 22.7997 50.8678 22.7131 51.0837 22.5398C51.3024 22.3665 51.4118 22.125 51.4118 21.8153C51.4118 21.5909 51.3593 21.3977 51.2541 21.2358C51.149 21.071 50.9999 20.9446 50.8067 20.8565C50.6135 20.7656 50.382 20.7202 50.1121 20.7202H48.7698V22.7997ZM48.7698 19.3608H49.9374C50.1675 19.3608 50.372 19.3224 50.551 19.2457C50.73 19.169 50.8692 19.0582 50.9686 18.9133C51.0709 18.7684 51.122 18.5937 51.122 18.3892C51.122 18.0966 51.0183 17.8665 50.811 17.6988C50.6036 17.5312 50.3237 17.4474 49.9715 17.4474H48.7698V19.3608ZM58.8521 21.6747V17.9545H60.9317V24.5H58.9459V23.2812H58.8777C58.7328 23.6818 58.4857 24 58.1362 24.2358C57.7896 24.4687 57.3706 24.5852 56.8791 24.5852C56.4331 24.5852 56.0411 24.4829 55.703 24.2784C55.3649 24.0738 55.1021 23.7883 54.9146 23.4219C54.7271 23.0525 54.632 22.6207 54.6291 22.1264V17.9545H56.7129V21.7173C56.7158 22.0724 56.8095 22.3523 56.9942 22.5568C57.1789 22.7613 57.4303 22.8636 57.7485 22.8636C57.9558 22.8636 58.1419 22.8182 58.3067 22.7273C58.4743 22.6335 58.6064 22.4986 58.703 22.3224C58.8024 22.1434 58.8521 21.9275 58.8521 21.6747ZM63.5322 26.9545C63.2822 26.9545 63.0464 26.9346 62.8248 26.8949C62.6032 26.8579 62.4129 26.8082 62.2538 26.7457L62.714 25.2329C62.9186 25.3011 63.1032 25.3409 63.268 25.3523C63.4356 25.3636 63.5791 25.3366 63.6984 25.2713C63.8205 25.2088 63.9143 25.0966 63.9796 24.9346L64.0606 24.7386L61.7339 17.9545H63.9157L65.1217 22.625H65.1899L66.4129 17.9545H68.6075L66.1401 25.1264C66.0208 25.4844 65.8518 25.7997 65.633 26.0724C65.4171 26.348 65.1373 26.5639 64.7936 26.7202C64.4526 26.8764 64.0322 26.9545 63.5322 26.9545ZM77.2644 15.7727H79.3695V21.402C79.3695 22.0525 79.2147 22.6193 78.9051 23.1023C78.5954 23.5824 78.1636 23.9545 77.6096 24.2187C77.0556 24.4801 76.4122 24.6108 75.6792 24.6108C74.9377 24.6108 74.29 24.4801 73.736 24.2187C73.182 23.9545 72.7516 23.5824 72.4448 23.1023C72.138 22.6193 71.9846 22.0525 71.9846 21.402V15.7727H74.094V21.2187C74.094 21.5199 74.1593 21.7883 74.29 22.0241C74.4235 22.2599 74.6096 22.4446 74.8482 22.5781C75.0869 22.7116 75.3639 22.7784 75.6792 22.7784C75.9945 22.7784 76.2701 22.7116 76.5059 22.5781C76.7445 22.4446 76.9306 22.2599 77.0641 22.0241C77.1977 21.7883 77.2644 21.5199 77.2644 21.2187V15.7727ZM86.4061 19.9531L84.4928 20.0042C84.4729 19.8679 84.4189 19.7471 84.3308 19.642C84.2428 19.5341 84.1277 19.4503 83.9857 19.3906C83.8465 19.3281 83.6845 19.2969 83.4999 19.2969C83.2584 19.2969 83.0524 19.3452 82.882 19.4417C82.7144 19.5383 82.632 19.669 82.6348 19.8338C82.632 19.9616 82.6831 20.0724 82.7882 20.1662C82.8962 20.2599 83.0879 20.3352 83.3635 20.392L84.6249 20.6307C85.2783 20.7557 85.7641 20.9631 86.0823 21.2528C86.4033 21.5426 86.5652 21.9261 86.568 22.4034C86.5652 22.8523 86.4317 23.2429 86.1675 23.5753C85.9061 23.9077 85.5482 24.1662 85.0936 24.3508C84.6391 24.5327 84.1192 24.6236 83.534 24.6236C82.5993 24.6236 81.8621 24.4318 81.3223 24.0483C80.7854 23.6619 80.4786 23.1449 80.4019 22.4971L82.4601 22.446C82.5055 22.6846 82.6234 22.8665 82.8138 22.9915C83.0041 23.1165 83.247 23.179 83.5425 23.179C83.8095 23.179 84.0269 23.1292 84.1945 23.0298C84.3621 22.9304 84.4473 22.7983 84.4502 22.6335C84.4473 22.4858 84.382 22.3679 84.2541 22.2798C84.1263 22.1889 83.926 22.1179 83.6533 22.0667L82.5112 21.8494C81.855 21.7301 81.3663 21.5099 81.0453 21.1889C80.7243 20.865 80.5652 20.4531 80.568 19.9531C80.5652 19.5156 80.6817 19.142 80.9175 18.8324C81.1533 18.5199 81.4885 18.2812 81.9232 18.1165C82.3578 17.9517 82.8706 17.8693 83.4615 17.8693C84.3479 17.8693 85.0467 18.0554 85.5581 18.4275C86.0695 18.7969 86.3521 19.3054 86.4061 19.9531ZM92.0173 24.6108C91.5997 24.6108 91.2289 24.5412 90.905 24.402C90.584 24.2599 90.3298 24.0469 90.1423 23.7628C89.9576 23.4758 89.8653 23.1165 89.8653 22.6846C89.8653 22.321 89.9292 22.0142 90.057 21.7642C90.1849 21.5142 90.361 21.3111 90.5854 21.1548C90.8099 20.9986 91.0684 20.8807 91.361 20.8011C91.6536 20.7187 91.9661 20.6633 92.2985 20.6349C92.6707 20.6008 92.9704 20.5653 93.1977 20.5284C93.4249 20.4886 93.5897 20.4332 93.692 20.3622C93.7971 20.2883 93.8497 20.1846 93.8497 20.0511V20.0298C93.8497 19.8111 93.7744 19.642 93.6238 19.5227C93.4732 19.4034 93.2701 19.3437 93.0144 19.3437C92.7389 19.3437 92.5173 19.4034 92.3497 19.5227C92.182 19.642 92.0755 19.8068 92.03 20.017L90.1082 19.9488C90.165 19.5511 90.3113 19.196 90.5471 18.8835C90.7857 18.5682 91.1124 18.321 91.5272 18.142C91.9448 17.9602 92.4462 17.8693 93.0315 17.8693C93.4491 17.8693 93.834 17.919 94.1863 18.0184C94.5386 18.115 94.8454 18.2571 95.1068 18.4446C95.3681 18.6292 95.5698 18.8565 95.7119 19.1264C95.8568 19.3963 95.9292 19.7045 95.9292 20.0511V24.5H93.969V23.588H93.9178C93.8014 23.8096 93.6522 23.9971 93.4704 24.1505C93.2914 24.304 93.0798 24.419 92.8354 24.4957C92.594 24.5724 92.3212 24.6108 92.0173 24.6108ZM92.6607 23.2471C92.8852 23.2471 93.0869 23.2017 93.2658 23.1108C93.4477 23.0199 93.5925 22.8949 93.7005 22.7358C93.8085 22.5738 93.8624 22.3863 93.8624 22.1733V21.5511C93.8028 21.5824 93.7303 21.6108 93.6451 21.6363C93.5627 21.6619 93.4718 21.6861 93.3724 21.7088C93.2729 21.7315 93.1707 21.7514 93.0656 21.7684C92.9604 21.7855 92.8596 21.8011 92.763 21.8153C92.567 21.8466 92.3994 21.8949 92.2602 21.9602C92.1238 22.0256 92.0187 22.1108 91.9448 22.2159C91.8738 22.3182 91.8383 22.4403 91.8383 22.5824C91.8383 22.7983 91.915 22.9631 92.0684 23.0767C92.2247 23.1903 92.4221 23.2471 92.6607 23.2471ZM107.703 18.9346H105.573C105.544 18.7159 105.486 18.5184 105.398 18.3423C105.31 18.1662 105.193 18.0156 105.049 17.8906C104.904 17.7656 104.732 17.6704 104.533 17.6051C104.337 17.5369 104.12 17.5028 103.881 17.5028C103.458 17.5028 103.093 17.6065 102.786 17.8139C102.482 18.0213 102.247 18.321 102.083 18.7131C101.921 19.1051 101.84 19.5795 101.84 20.1363C101.84 20.7159 101.922 21.2017 102.087 21.5937C102.254 21.9829 102.489 22.277 102.79 22.4758C103.094 22.6719 103.453 22.7699 103.868 22.7699C104.101 22.7699 104.313 22.74 104.503 22.6804C104.696 22.6207 104.865 22.5341 105.01 22.4204C105.158 22.304 105.279 22.1633 105.372 21.9986C105.469 21.8309 105.536 21.642 105.573 21.4318L107.703 21.4446C107.666 21.8309 107.554 22.2116 107.367 22.5866C107.182 22.9616 106.928 23.304 106.604 23.6136C106.28 23.9204 105.885 24.1648 105.419 24.3466C104.956 24.5284 104.425 24.6193 103.826 24.6193C103.036 24.6193 102.328 24.446 101.703 24.0994C101.081 23.75 100.59 23.2415 100.229 22.5738C99.8681 21.9062 99.6877 21.0937 99.6877 20.1363C99.6877 19.1761 99.871 18.3622 100.237 17.6946C100.604 17.027 101.1 16.5199 101.725 16.1733C102.35 15.8267 103.05 15.6534 103.826 15.6534C104.354 15.6534 104.843 15.7273 105.291 15.875C105.74 16.0199 106.135 16.2329 106.476 16.5142C106.817 16.7926 107.094 17.1349 107.307 17.5412C107.52 17.9474 107.652 18.4119 107.703 18.9346ZM111.966 24.6236C111.278 24.6236 110.687 24.4829 110.193 24.2017C109.702 23.9176 109.322 23.5227 109.055 23.017C108.791 22.5085 108.659 21.919 108.659 21.2486C108.659 20.5753 108.791 19.9858 109.055 19.4801C109.322 18.9716 109.702 18.5767 110.193 18.2954C110.687 18.0113 111.278 17.8693 111.966 17.8693C112.653 17.8693 113.243 18.0113 113.734 18.2954C114.229 18.5767 114.608 18.9716 114.872 19.4801C115.139 19.9858 115.273 20.5753 115.273 21.2486C115.273 21.919 115.139 22.5085 114.872 23.017C114.608 23.5227 114.229 23.9176 113.734 24.2017C113.243 24.4829 112.653 24.6236 111.966 24.6236ZM111.979 23.0511C112.229 23.0511 112.44 22.9744 112.613 22.821C112.787 22.6676 112.919 22.4545 113.01 22.1818C113.104 21.9091 113.15 21.5937 113.15 21.2358C113.15 20.8721 113.104 20.554 113.01 20.2812C112.919 20.0085 112.787 19.7954 112.613 19.642C112.44 19.4886 112.229 19.4119 111.979 19.4119C111.72 19.4119 111.501 19.4886 111.322 19.642C111.146 19.7954 111.011 20.0085 110.917 20.2812C110.827 20.554 110.781 20.8721 110.781 21.2358C110.781 21.5937 110.827 21.9091 110.917 22.1818C111.011 22.4545 111.146 22.6676 111.322 22.821C111.501 22.9744 111.72 23.0511 111.979 23.0511ZM120.06 17.9545V19.4886H115.85V17.9545H120.06ZM116.728 24.5V17.6221C116.728 17.1165 116.823 16.6974 117.013 16.365C117.204 16.0298 117.468 15.7798 117.806 15.615C118.144 15.4474 118.535 15.3636 118.978 15.3636C119.268 15.3636 119.54 15.3863 119.796 15.4318C120.055 15.4744 120.246 15.5128 120.371 15.5469L120.039 17.0724C119.962 17.0469 119.868 17.0256 119.758 17.0085C119.65 16.9915 119.547 16.9829 119.451 16.9829C119.207 16.9829 119.039 17.0369 118.948 17.1449C118.857 17.2528 118.812 17.4006 118.812 17.5881V24.5H116.728ZM124.783 17.9545V19.4886H120.573V17.9545H124.783ZM121.45 24.5V17.6221C121.45 17.1165 121.546 16.6974 121.736 16.365C121.926 16.0298 122.191 15.7798 122.529 15.615C122.867 15.4474 123.257 15.3636 123.7 15.3636C123.99 15.3636 124.263 15.3863 124.519 15.4318C124.777 15.4744 124.969 15.5128 125.094 15.5469L124.762 17.0724C124.685 17.0469 124.591 17.0256 124.48 17.0085C124.372 16.9915 124.27 16.9829 124.174 16.9829C123.929 16.9829 123.762 17.0369 123.671 17.1449C123.58 17.2528 123.534 17.4006 123.534 17.5881V24.5H121.45ZM128.634 24.6236C127.949 24.6236 127.359 24.4886 126.861 24.2187C126.367 23.946 125.986 23.5582 125.719 23.0554C125.455 22.5497 125.323 21.9488 125.323 21.2528C125.323 20.5767 125.457 19.9858 125.724 19.4801C125.991 18.9716 126.367 18.5767 126.853 18.2954C127.339 18.0113 127.911 17.8693 128.57 17.8693C129.036 17.8693 129.462 17.9417 129.849 18.0866C130.235 18.2315 130.569 18.446 130.85 18.7301C131.131 19.0142 131.35 19.365 131.506 19.7827C131.662 20.1974 131.741 20.6733 131.741 21.2102V21.7301H126.052V20.5199H129.802C129.799 20.2983 129.746 20.1008 129.644 19.9275C129.542 19.7542 129.401 19.6193 129.222 19.5227C129.046 19.4233 128.843 19.3736 128.613 19.3736C128.38 19.3736 128.171 19.4261 127.986 19.5312C127.802 19.6335 127.655 19.7741 127.547 19.9531C127.439 20.1292 127.383 20.3295 127.377 20.554V21.7855C127.377 22.0525 127.43 22.2869 127.535 22.4886C127.64 22.6875 127.789 22.8423 127.982 22.9531C128.175 23.0639 128.405 23.1193 128.672 23.1193C128.857 23.1193 129.025 23.0937 129.175 23.0426C129.326 22.9915 129.455 22.9162 129.563 22.8167C129.671 22.7173 129.752 22.5952 129.806 22.4503L131.719 22.5057C131.64 22.9346 131.465 23.3082 131.195 23.6264C130.928 23.9417 130.577 24.1875 130.143 24.3636C129.708 24.5369 129.205 24.6236 128.634 24.6236ZM135.865 24.6236C135.18 24.6236 134.589 24.4886 134.092 24.2187C133.598 23.946 133.217 23.5582 132.95 23.0554C132.686 22.5497 132.553 21.9488 132.553 21.2528C132.553 20.5767 132.687 19.9858 132.954 19.4801C133.221 18.9716 133.598 18.5767 134.083 18.2954C134.569 18.0113 135.142 17.8693 135.801 17.8693C136.267 17.8693 136.693 17.9417 137.079 18.0866C137.465 18.2315 137.799 18.446 138.08 18.7301C138.362 19.0142 138.58 19.365 138.737 19.7827C138.893 20.1974 138.971 20.6733 138.971 21.2102V21.7301H133.282V20.5199H137.032C137.029 20.2983 136.977 20.1008 136.874 19.9275C136.772 19.7542 136.632 19.6193 136.453 19.5227C136.276 19.4233 136.073 19.3736 135.843 19.3736C135.61 19.3736 135.401 19.4261 135.217 19.5312C135.032 19.6335 134.886 19.7741 134.778 19.9531C134.67 20.1292 134.613 20.3295 134.607 20.554V21.7855C134.607 22.0525 134.66 22.2869 134.765 22.4886C134.87 22.6875 135.019 22.8423 135.213 22.9531C135.406 23.0639 135.636 23.1193 135.903 23.1193C136.088 23.1193 136.255 23.0937 136.406 23.0426C136.556 22.9915 136.686 22.9162 136.794 22.8167C136.901 22.7173 136.982 22.5952 137.036 22.4503L138.95 22.5057C138.87 22.9346 138.696 23.3082 138.426 23.6264C138.159 23.9417 137.808 24.1875 137.373 24.3636C136.938 24.5369 136.436 24.6236 135.865 24.6236Z" fill="#FFDD00"/>
</g>
<rect x="0.749878" y="0.749989" width="148.5" height="38.5" rx="5.25" stroke="white" stroke-opacity="0.15" stroke-width="1.5"/>
<defs>
<filter id="filter0_d_18_3596" x="5.99988" y="0.999985" width="36" height="38" filterUnits="userSpaceOnUse" color-interpolation-filters="sRGB">
<feFlood flood-opacity="0" result="BackgroundImageFix"/>
<feColorMatrix in="SourceAlpha" type="matrix" values="0 0 0 0 0 0 0 0 0 0 0 0 0 0 0 0 0 0 127 0" result="hardAlpha"/>
<feOffset/>
<feGaussianBlur stdDeviation="2"/>
<feComposite in2="hardAlpha" operator="out"/>
<feColorMatrix type="matrix" values="0 0 0 0 0 0 0 0 0 0 0 0 0 0 0 0 0 0 0.25 0"/>
<feBlend mode="normal" in2="BackgroundImageFix" result="effect1_dropShadow_18_3596"/>
<feBlend mode="normal" in="SourceGraphic" in2="effect1_dropShadow_18_3596" result="shape"/>
</filter>
<filter id="filter1_d_18_3596" x="41.9999" y="9.49998" width="102" height="21.4545" filterUnits="userSpaceOnUse" color-interpolation-filters="sRGB">
<feFlood flood-opacity="0" result="BackgroundImageFix"/>
<feColorMatrix in="SourceAlpha" type="matrix" values="0 0 0 0 0 0 0 0 0 0 0 0 0 0 0 0 0 0 127 0" result="hardAlpha"/>
<feOffset/>
<feGaussianBlur stdDeviation="2"/>
<feComposite in2="hardAlpha" operator="out"/>
<feColorMatrix type="matrix" values="0 0 0 0 0 0 0 0 0 0 0 0 0 0 0 0 0 0 0.25 0"/>
<feBlend mode="normal" in2="BackgroundImageFix" result="effect1_dropShadow_18_3596"/>
<feBlend mode="normal" in="SourceGraphic" in2="effect1_dropShadow_18_3596" result="shape"/>
</filter>
<linearGradient id="paint0_linear_18_3596" x1="74.9999" y1="-1.14441e-05" x2="74.9999" y2="40" gradientUnits="userSpaceOnUse">
<stop stop-color="#554600"/>
<stop offset="1" stop-color="#352C00"/>
</linearGradient>
</defs>
</svg>
