<svg width="134" height="40" viewBox="0 0 134 40" fill="none" xmlns="http://www.w3.org/2000/svg">
<rect x="-0.00012207" y="-6.10352e-05" width="134" height="40" rx="6" fill="url(#paint0_linear_18_3974)"/>
<g filter="url(#filter0_d_18_3974)">
<path d="M14.7501 12.0909C14.7501 12.8953 14.9692 13.6491 15.3511 14.2955H13.9092C13.3366 14.2955 12.7874 14.5229 12.3825 14.9278C11.9776 15.3327 11.7501 15.8819 11.7501 16.4545V19.1818C11.7501 19.9862 12.1903 20.6865 12.841 21.0587V30.0909C12.841 31.2828 13.8082 32.25 15.0001 32.25H33.0001C33.5727 32.25 34.1219 32.0225 34.5268 31.6176C34.9317 31.2127 35.1592 30.6635 35.1592 30.0909V21.0589C35.8102 20.6873 36.2501 19.9859 36.2501 19.1818V16.4545C36.2501 15.8819 36.0226 15.3327 35.6177 14.9278C35.2128 14.5229 34.6637 14.2955 34.091 14.2955H32.6487C32.9743 13.743 33.1746 13.1234 33.2326 12.4807C33.305 11.6778 33.1524 10.8706 32.7918 10.1496C32.4313 9.42855 31.8771 8.82213 31.1914 8.39831C30.5056 7.97449 29.7154 7.75 28.9092 7.75C27.3274 7.75 25.2436 8.66616 24.0001 10.8543C22.7565 8.66614 20.6718 7.75 19.091 7.75C17.9398 7.75 16.8356 8.20734 16.0215 9.02142C15.2075 9.8355 14.7501 10.9396 14.7501 12.0909ZM19.091 9.88636C20.1883 9.88636 22.4796 10.8368 22.8736 14.2955H19.091C18.5063 14.2955 17.9456 14.0632 17.5322 13.6498C17.1187 13.2363 16.8865 12.6756 16.8865 12.0909C16.8865 11.5062 17.1187 10.9455 17.5322 10.5321C17.9456 10.1186 18.5063 9.88636 19.091 9.88636ZM33.0228 21.3409V30.0909C33.0228 30.0969 33.0205 30.1027 33.0162 30.107C33.0119 30.1112 33.0061 30.1136 33.0001 30.1136H25.0683V21.3409H33.0228ZM22.9319 21.3409V30.1136H15.0001C14.9876 30.1136 14.9774 30.1034 14.9774 30.0909V21.3409H22.9319ZM34.1071 19.1979C34.1028 19.2021 34.0971 19.2045 34.091 19.2045H25.0683V16.4318H34.091C34.0971 16.4318 34.1028 16.4342 34.1071 16.4385C34.1114 16.4427 34.1138 16.4485 34.1138 16.4545V19.1818C34.1138 19.1878 34.1114 19.1936 34.1071 19.1979ZM22.9319 16.4318V19.2045H13.9092C13.8967 19.2045 13.8865 19.1943 13.8865 19.1818V16.4545C13.8865 16.4485 13.8889 16.4427 13.8931 16.4385C13.8974 16.4342 13.9032 16.4318 13.9092 16.4318H22.9319ZM31.1138 12.0909C31.1138 12.6756 30.8815 13.2363 30.4681 13.6498C30.0546 14.0632 29.4939 14.2955 28.9092 14.2955H25.1267C25.5206 10.8368 27.8119 9.88636 28.9092 9.88636C29.4939 9.88636 30.0546 10.1186 30.4681 10.5321C30.8815 10.9455 31.1138 11.5062 31.1138 12.0909Z" fill="white" stroke="white" stroke-width="0.5"/>
</g>
<g filter="url(#filter1_d_18_3974)">
<path d="M51.2421 12.1015C51.2004 11.7317 51.0285 11.4452 50.7264 11.2421C50.4244 11.0364 50.0441 10.9335 49.5858 10.9335C49.2577 10.9335 48.9738 10.9856 48.7343 11.0898C48.4947 11.1913 48.3085 11.332 48.1757 11.5117C48.0455 11.6887 47.9803 11.8906 47.9803 12.1171C47.9803 12.3072 48.0246 12.4713 48.1132 12.6093C48.2043 12.7473 48.3228 12.8632 48.4686 12.957C48.6171 13.0481 48.7759 13.1249 48.9452 13.1874C49.1145 13.2473 49.2772 13.2968 49.4335 13.3359L50.2147 13.539C50.4699 13.6015 50.7316 13.6861 50.9999 13.7929C51.2681 13.8997 51.5168 14.0403 51.746 14.2148C51.9751 14.3893 52.16 14.6054 52.3007 14.8632C52.4439 15.121 52.5155 15.4296 52.5155 15.789C52.5155 16.2421 52.3983 16.6445 52.1639 16.996C51.9322 17.3476 51.5949 17.6249 51.1522 17.8281C50.7121 18.0312 50.1796 18.1327 49.5546 18.1327C48.9556 18.1327 48.4374 18.0377 47.9999 17.8476C47.5624 17.6575 47.2199 17.388 46.9725 17.039C46.7251 16.6874 46.5884 16.2708 46.5624 15.789H47.7733C47.7968 16.0781 47.8905 16.3189 48.0546 16.5117C48.2212 16.7018 48.4335 16.8437 48.6913 16.9374C48.9517 17.0286 49.2369 17.0742 49.5468 17.0742C49.8879 17.0742 50.1913 17.0208 50.4569 16.914C50.7251 16.8046 50.9361 16.6536 51.0897 16.4609C51.2434 16.2656 51.3202 16.0377 51.3202 15.7773C51.3202 15.5403 51.2525 15.3463 51.1171 15.1952C50.9843 15.0442 50.8033 14.9192 50.5741 14.8202C50.3475 14.7213 50.091 14.6341 49.8046 14.5585L48.8593 14.3007C48.2186 14.1262 47.7108 13.8697 47.3358 13.5312C46.9634 13.1926 46.7772 12.7447 46.7772 12.1874C46.7772 11.7265 46.9022 11.3242 47.1522 10.9804C47.4022 10.6367 47.7408 10.3697 48.1678 10.1796C48.5949 9.98692 49.0767 9.89056 49.6132 9.89056C50.1548 9.89056 50.6327 9.98561 51.0468 10.1757C51.4634 10.3658 51.7915 10.6275 52.0311 10.9609C52.2707 11.2916 52.3957 11.6718 52.4061 12.1015H51.2421ZM57.6649 15.5117V11.9999H58.8368V17.9999H57.6884V16.9609H57.6259C57.4878 17.2812 57.2665 17.5481 56.9618 17.7617C56.6597 17.9726 56.2834 18.0781 55.8329 18.0781C55.4475 18.0781 55.1063 17.9934 54.8094 17.8242C54.5152 17.6523 54.2834 17.3984 54.1141 17.0624C53.9475 16.7265 53.8641 16.3111 53.8641 15.8163V11.9999H55.0321V15.6757C55.0321 16.0846 55.1454 16.4101 55.3719 16.6523C55.5985 16.8945 55.8928 17.0156 56.2548 17.0156C56.4735 17.0156 56.691 16.9609 56.9071 16.8515C57.1259 16.7421 57.3068 16.5768 57.4501 16.3554C57.5959 16.1341 57.6675 15.8528 57.6649 15.5117ZM60.4061 20.2499V11.9999H61.5467V12.9726H61.6444C61.7121 12.8476 61.8098 12.7031 61.9374 12.539C62.065 12.3749 62.2421 12.2317 62.4686 12.1093C62.6952 11.9843 62.9947 11.9218 63.3671 11.9218C63.8514 11.9218 64.2837 12.0442 64.6639 12.289C65.0441 12.5338 65.3423 12.8867 65.5585 13.3476C65.7772 13.8085 65.8866 14.3632 65.8866 15.0117C65.8866 15.6601 65.7785 16.2161 65.5624 16.6796C65.3462 17.1406 65.0494 17.496 64.6717 17.746C64.2941 17.9934 63.8632 18.1171 63.3788 18.1171C63.0142 18.1171 62.716 18.0559 62.4842 17.9335C62.2551 17.8111 62.0754 17.6679 61.9452 17.5038C61.815 17.3398 61.7147 17.1939 61.6444 17.0663H61.5741V20.2499H60.4061ZM61.5507 14.9999C61.5507 15.4218 61.6119 15.7916 61.7342 16.1093C61.8566 16.427 62.0337 16.6757 62.2655 16.8554C62.4973 17.0325 62.7811 17.121 63.1171 17.121C63.466 17.121 63.7577 17.0286 63.9921 16.8437C64.2264 16.6562 64.4035 16.4023 64.5233 16.082C64.6457 15.7617 64.7069 15.401 64.7069 14.9999C64.7069 14.6041 64.647 14.2486 64.5272 13.9335C64.41 13.6184 64.2329 13.3697 63.996 13.1874C63.7616 13.0051 63.4686 12.914 63.1171 12.914C62.7785 12.914 62.4921 13.0012 62.2577 13.1757C62.0259 13.3502 61.8501 13.5937 61.7303 13.9062C61.6106 14.2187 61.5507 14.5833 61.5507 14.9999ZM67.1952 20.2499V11.9999H68.3358V12.9726H68.4335C68.5012 12.8476 68.5988 12.7031 68.7264 12.539C68.854 12.3749 69.0311 12.2317 69.2577 12.1093C69.4842 11.9843 69.7837 11.9218 70.1561 11.9218C70.6405 11.9218 71.0728 12.0442 71.453 12.289C71.8332 12.5338 72.1314 12.8867 72.3475 13.3476C72.5663 13.8085 72.6757 14.3632 72.6757 15.0117C72.6757 15.6601 72.5676 16.2161 72.3514 16.6796C72.1353 17.1406 71.8384 17.496 71.4608 17.746C71.0832 17.9934 70.6522 18.1171 70.1678 18.1171C69.8033 18.1171 69.5051 18.0559 69.2733 17.9335C69.0441 17.8111 68.8645 17.6679 68.7342 17.5038C68.604 17.3398 68.5038 17.1939 68.4335 17.0663H68.3632V20.2499H67.1952ZM68.3397 14.9999C68.3397 15.4218 68.4009 15.7916 68.5233 16.1093C68.6457 16.427 68.8228 16.6757 69.0546 16.8554C69.2863 17.0325 69.5702 17.121 69.9061 17.121C70.2551 17.121 70.5467 17.0286 70.7811 16.8437C71.0155 16.6562 71.1926 16.4023 71.3124 16.082C71.4348 15.7617 71.496 15.401 71.496 14.9999C71.496 14.6041 71.4361 14.2486 71.3163 13.9335C71.1991 13.6184 71.022 13.3697 70.785 13.1874C70.5507 13.0051 70.2577 12.914 69.9061 12.914C69.5676 12.914 69.2811 13.0012 69.0467 13.1757C68.815 13.3502 68.6392 13.5937 68.5194 13.9062C68.3996 14.2187 68.3397 14.5833 68.3397 14.9999ZM76.5116 18.121C75.9491 18.121 75.4582 17.9921 75.0389 17.7343C74.6197 17.4765 74.2941 17.1158 74.0624 16.6523C73.8306 16.1887 73.7147 15.6471 73.7147 15.0273C73.7147 14.4049 73.8306 13.8606 74.0624 13.3945C74.2941 12.9283 74.6197 12.5663 75.0389 12.3085C75.4582 12.0507 75.9491 11.9218 76.5116 11.9218C77.0741 11.9218 77.565 12.0507 77.9842 12.3085C78.4035 12.5663 78.729 12.9283 78.9608 13.3945C79.1926 13.8606 79.3085 14.4049 79.3085 15.0273C79.3085 15.6471 79.1926 16.1887 78.9608 16.6523C78.729 17.1158 78.4035 17.4765 77.9842 17.7343C77.565 17.9921 77.0741 18.121 76.5116 18.121ZM76.5155 17.1406C76.8801 17.1406 77.1822 17.0442 77.4217 16.8515C77.6613 16.6588 77.8384 16.4023 77.953 16.082C78.0702 15.7617 78.1288 15.4088 78.1288 15.0234C78.1288 14.6406 78.0702 14.289 77.953 13.9687C77.8384 13.6458 77.6613 13.3867 77.4217 13.1913C77.1822 12.996 76.8801 12.8984 76.5155 12.8984C76.1483 12.8984 75.8436 12.996 75.6014 13.1913C75.3618 13.3867 75.1835 13.6458 75.0663 13.9687C74.9517 14.289 74.8944 14.6406 74.8944 15.0234C74.8944 15.4088 74.9517 15.7617 75.0663 16.082C75.1835 16.4023 75.3618 16.6588 75.6014 16.8515C75.8436 17.0442 76.1483 17.1406 76.5155 17.1406ZM80.6122 17.9999V11.9999H81.7411V12.9531H81.8036C81.913 12.6301 82.1057 12.3762 82.3817 12.1913C82.6603 12.0038 82.9755 11.9101 83.327 11.9101C83.3999 11.9101 83.4859 11.9127 83.5848 11.9179C83.6864 11.9231 83.7658 11.9296 83.8231 11.9374V13.0546C83.7762 13.0416 83.6929 13.0273 83.5731 13.0117C83.4533 12.9934 83.3335 12.9843 83.2137 12.9843C82.9377 12.9843 82.6916 13.0429 82.4755 13.1601C82.2619 13.2747 82.0926 13.4348 81.9676 13.6406C81.8426 13.8437 81.7801 14.0755 81.7801 14.3359V17.9999H80.6122ZM87.9891 11.9999V12.9374H84.7118V11.9999H87.9891ZM85.5907 10.5624H86.7587V16.2382C86.7587 16.4648 86.7925 16.6354 86.8602 16.7499C86.9279 16.8619 87.0152 16.9387 87.1219 16.9804C87.2313 17.0195 87.3498 17.039 87.4774 17.039C87.5712 17.039 87.6532 17.0325 87.7235 17.0195C87.7938 17.0064 87.8485 16.996 87.8876 16.9882L88.0985 17.9531C88.0308 17.9791 87.9344 18.0051 87.8094 18.0312C87.6844 18.0598 87.5282 18.0755 87.3407 18.0781C87.0334 18.0833 86.7469 18.0286 86.4813 17.914C86.2157 17.7994 86.0008 17.6223 85.8368 17.3827C85.6727 17.1432 85.5907 16.8424 85.5907 16.4804V10.5624ZM92.1922 17.9999V11.9999H93.3133V12.9765H93.3876C93.5126 12.6458 93.717 12.388 94.0008 12.2031C94.2847 12.0156 94.6245 11.9218 95.0204 11.9218C95.4214 11.9218 95.7574 12.0156 96.0282 12.2031C96.3016 12.3906 96.5034 12.6484 96.6337 12.9765H96.6962C96.8394 12.6562 97.0672 12.401 97.3797 12.2109C97.6922 12.0182 98.0646 11.9218 98.4969 11.9218C99.0412 11.9218 99.4852 12.0924 99.829 12.4335C100.175 12.7747 100.348 13.289 100.348 13.9765V17.9999H99.1805V14.0859C99.1805 13.6796 99.0698 13.3854 98.8485 13.2031C98.6271 13.0208 98.3628 12.9296 98.0555 12.9296C97.6753 12.9296 97.3797 13.0468 97.1688 13.2812C96.9579 13.513 96.8524 13.8111 96.8524 14.1757V17.9999H95.6883V14.0117C95.6883 13.6861 95.5868 13.4244 95.3837 13.2265C95.1805 13.0286 94.9162 12.9296 94.5907 12.9296C94.3693 12.9296 94.1649 12.9882 93.9774 13.1054C93.7925 13.22 93.6428 13.3801 93.5282 13.5859C93.4162 13.7916 93.3602 14.0299 93.3602 14.3007V17.9999H92.1922ZM104.5 18.121C103.909 18.121 103.4 17.9947 102.973 17.7421C102.548 17.4869 102.22 17.1288 101.988 16.6679C101.759 16.2044 101.644 15.6614 101.644 15.039C101.644 14.4244 101.759 13.8827 101.988 13.414C102.22 12.9452 102.543 12.5794 102.957 12.3163C103.374 12.0533 103.861 11.9218 104.418 11.9218C104.756 11.9218 105.084 11.9778 105.402 12.0898C105.72 12.2018 106.005 12.3775 106.258 12.6171C106.51 12.8567 106.709 13.1679 106.855 13.5507C107.001 13.9309 107.074 14.3932 107.074 14.9374V15.3515H102.305V14.4765H105.93C105.93 14.1692 105.867 13.8971 105.742 13.6601C105.617 13.4205 105.441 13.2317 105.215 13.0937C104.991 12.9557 104.728 12.8867 104.426 12.8867C104.098 12.8867 103.811 12.9674 103.566 13.1288C103.324 13.2877 103.137 13.496 103.004 13.7538C102.874 14.0091 102.808 14.2864 102.808 14.5859V15.2695C102.808 15.6705 102.879 16.0117 103.019 16.2929C103.163 16.5742 103.362 16.789 103.617 16.9374C103.872 17.0833 104.17 17.1562 104.512 17.1562C104.733 17.1562 104.935 17.1249 105.117 17.0624C105.299 16.9973 105.457 16.901 105.59 16.7734C105.723 16.6458 105.824 16.4882 105.894 16.3007L107 16.4999C106.911 16.8255 106.752 17.1106 106.523 17.3554C106.297 17.5976 106.012 17.7864 105.668 17.9218C105.327 18.0546 104.937 18.121 104.5 18.121ZM111.375 17.9999V9.99994H112.543V12.9726H112.613C112.681 12.8476 112.779 12.7031 112.906 12.539C113.034 12.3749 113.211 12.2317 113.437 12.1093C113.664 11.9843 113.963 11.9218 114.336 11.9218C114.82 11.9218 115.252 12.0442 115.633 12.289C116.013 12.5338 116.311 12.8867 116.527 13.3476C116.746 13.8085 116.855 14.3632 116.855 15.0117C116.855 15.6601 116.747 16.2161 116.531 16.6796C116.315 17.1406 116.018 17.496 115.64 17.746C115.263 17.9934 114.832 18.1171 114.348 18.1171C113.983 18.1171 113.685 18.0559 113.453 17.9335C113.224 17.8111 113.044 17.6679 112.914 17.5038C112.784 17.3398 112.683 17.1939 112.613 17.0663H112.515V17.9999H111.375ZM112.519 14.9999C112.519 15.4218 112.581 15.7916 112.703 16.1093C112.825 16.427 113.002 16.6757 113.234 16.8554C113.466 17.0325 113.75 17.121 114.086 17.121C114.435 17.121 114.726 17.0286 114.961 16.8437C115.195 16.6562 115.372 16.4023 115.492 16.082C115.614 15.7617 115.676 15.401 115.676 14.9999C115.676 14.6041 115.616 14.2486 115.496 13.9335C115.379 13.6184 115.202 13.3697 114.965 13.1874C114.73 13.0051 114.437 12.914 114.086 12.914C113.747 12.914 113.461 13.0012 113.226 13.1757C112.995 13.3502 112.819 13.5937 112.699 13.9062C112.579 14.2187 112.519 14.5833 112.519 14.9999ZM118.701 20.2499C118.527 20.2499 118.368 20.2356 118.224 20.207C118.081 20.1809 117.974 20.1523 117.904 20.121L118.185 19.164C118.399 19.2213 118.589 19.246 118.756 19.2382C118.922 19.2304 119.07 19.1679 119.197 19.0507C119.327 18.9335 119.442 18.7421 119.541 18.4765L119.685 18.0781L117.49 11.9999H118.74L120.26 16.6562H120.322L121.842 11.9999H123.096L120.623 18.8007C120.508 19.1132 120.362 19.3775 120.185 19.5937C120.008 19.8124 119.797 19.9765 119.553 20.0859C119.308 20.1952 119.024 20.2499 118.701 20.2499Z" fill="#E8E8E8"/>
<path d="M49.8862 30.9999H46.6604V22.2727H49.882C50.7712 22.2727 51.5368 22.4474 52.1789 22.7968C52.8237 23.1434 53.3209 23.6434 53.6703 24.2968C54.0198 24.9474 54.1945 25.7258 54.1945 26.632C54.1945 27.5411 54.0198 28.3224 53.6703 28.9758C53.3237 29.6292 52.828 30.1306 52.1831 30.48C51.5382 30.8266 50.7726 30.9999 49.8862 30.9999ZM48.7698 29.2016H49.8053C50.2939 29.2016 50.7073 29.1193 51.0453 28.9545C51.3862 28.7869 51.6433 28.5156 51.8166 28.1406C51.9928 27.7627 52.0808 27.2599 52.0808 26.632C52.0808 26.0042 51.9928 25.5042 51.8166 25.132C51.6405 24.757 51.3806 24.4872 51.0368 24.3224C50.6959 24.1548 50.2754 24.071 49.7754 24.071H48.7698V29.2016ZM58.4814 31.1235C57.7939 31.1235 57.203 30.9829 56.7087 30.7016C56.2172 30.4175 55.8379 30.0227 55.5709 29.517C55.3067 29.0085 55.1746 28.419 55.1746 27.7485C55.1746 27.0752 55.3067 26.4857 55.5709 25.9801C55.8379 25.4715 56.2172 25.0766 56.7087 24.7954C57.203 24.5113 57.7939 24.3693 58.4814 24.3693C59.1689 24.3693 59.7584 24.5113 60.2499 24.7954C60.7442 25.0766 61.1235 25.4715 61.3877 25.9801C61.6547 26.4857 61.7882 27.0752 61.7882 27.7485C61.7882 28.419 61.6547 29.0085 61.3877 29.517C61.1235 30.0227 60.7442 30.4175 60.2499 30.7016C59.7584 30.9829 59.1689 31.1235 58.4814 31.1235ZM58.4942 29.5511C58.7442 29.5511 58.9558 29.4744 59.1291 29.321C59.3024 29.1675 59.4345 28.9545 59.5254 28.6818C59.6192 28.409 59.6661 28.0937 59.6661 27.7357C59.6661 27.3721 59.6192 27.0539 59.5254 26.7812C59.4345 26.5085 59.3024 26.2954 59.1291 26.142C58.9558 25.9886 58.7442 25.9119 58.4942 25.9119C58.2357 25.9119 58.0169 25.9886 57.8379 26.142C57.6618 26.2954 57.5269 26.5085 57.4331 26.7812C57.3422 27.0539 57.2967 27.3721 57.2967 27.7357C57.2967 28.0937 57.3422 28.409 57.4331 28.6818C57.5269 28.9545 57.6618 29.1675 57.8379 29.321C58.0169 29.4744 58.2357 29.5511 58.4942 29.5511ZM64.9395 27.267V30.9999H62.8557V24.4545H64.8372V25.6562H64.9097C65.0546 25.2556 65.3017 24.9417 65.6512 24.7144C66.0006 24.4843 66.4168 24.3693 66.8997 24.3693C67.36 24.3693 67.7591 24.4729 68.0972 24.6803C68.4381 24.8849 68.7023 25.1718 68.8898 25.5411C69.0801 25.9076 69.1739 26.3366 69.171 26.8281V30.9999H67.0872V27.2372C67.0901 26.8735 66.9977 26.5894 66.8102 26.3849C66.6256 26.1803 66.3685 26.0781 66.0389 26.0781C65.8202 26.0781 65.627 26.1264 65.4594 26.2229C65.2946 26.3167 65.1668 26.4516 65.0759 26.6278C64.9878 26.8039 64.9423 27.017 64.9395 27.267ZM72.3063 31.1107C71.8887 31.1107 71.518 31.0411 71.1941 30.9019C70.8731 30.7599 70.6188 30.5468 70.4313 30.2627C70.2467 29.9758 70.1543 29.6164 70.1543 29.1846C70.1543 28.821 70.2183 28.5141 70.3461 28.2641C70.4739 28.0141 70.6501 27.811 70.8745 27.6548C71.0989 27.4985 71.3575 27.3806 71.6501 27.3011C71.9427 27.2187 72.2552 27.1633 72.5876 27.1349C72.9597 27.1008 73.2595 27.0653 73.4867 27.0283C73.714 26.9886 73.8788 26.9332 73.981 26.8622C74.0862 26.7883 74.1387 26.6846 74.1387 26.5511V26.5298C74.1387 26.311 74.0634 26.142 73.9129 26.0227C73.7623 25.9033 73.5592 25.8437 73.3035 25.8437C73.0279 25.8437 72.8063 25.9033 72.6387 26.0227C72.4711 26.142 72.3646 26.3068 72.3191 26.517L70.3972 26.4488C70.4541 26.0511 70.6004 25.696 70.8362 25.3835C71.0748 25.0681 71.4015 24.821 71.8163 24.642C72.2339 24.4602 72.7353 24.3693 73.3205 24.3693C73.7382 24.3693 74.1231 24.419 74.4754 24.5184C74.8276 24.615 75.1345 24.757 75.3958 24.9445C75.6572 25.1292 75.8589 25.3565 76.0009 25.6264C76.1458 25.8962 76.2183 26.2045 76.2183 26.5511V30.9999H74.258V30.088H74.2069C74.0904 30.3096 73.9413 30.4971 73.7595 30.6505C73.5805 30.8039 73.3688 30.919 73.1245 30.9957C72.883 31.0724 72.6103 31.1107 72.3063 31.1107ZM72.9498 29.7471C73.1742 29.7471 73.3759 29.7016 73.5549 29.6107C73.7367 29.5198 73.8816 29.3948 73.9896 29.2357C74.0975 29.0738 74.1515 28.8863 74.1515 28.6732V28.0511C74.0918 28.0823 74.0194 28.1107 73.9342 28.1363C73.8518 28.1619 73.7609 28.186 73.6614 28.2087C73.562 28.2315 73.4597 28.2514 73.3546 28.2684C73.2495 28.2854 73.1487 28.3011 73.0521 28.3153C72.856 28.3465 72.6884 28.3948 72.5492 28.4602C72.4129 28.5255 72.3078 28.6107 72.2339 28.7158C72.1629 28.8181 72.1274 28.9403 72.1274 29.0823C72.1274 29.2982 72.2041 29.463 72.3575 29.5766C72.5137 29.6903 72.7112 29.7471 72.9498 29.7471ZM81.187 24.4545V25.9886H77.0578V24.4545H81.187ZM77.9228 22.8863H80.0066V28.9417C80.0066 29.0695 80.0265 29.1732 80.0663 29.2528C80.1089 29.3295 80.17 29.3849 80.2495 29.419C80.3291 29.4502 80.4242 29.4658 80.535 29.4658C80.6146 29.4658 80.6984 29.4587 80.7864 29.4445C80.8774 29.4275 80.9455 29.4133 80.991 29.4019L81.3063 30.9062C81.2069 30.9346 81.0663 30.9701 80.8845 31.0127C80.7055 31.0553 80.491 31.0823 80.241 31.0937C79.7524 31.1164 79.3333 31.0596 78.9839 30.9232C78.6373 30.784 78.3717 30.5681 78.187 30.2755C78.0052 29.9829 77.9171 29.615 77.9228 29.1718V22.8863ZM82.2502 30.9999V24.4545H84.334V30.9999H82.2502ZM83.2943 23.6917C83.0016 23.6917 82.7502 23.5951 82.54 23.4019C82.3298 23.2059 82.2247 22.9701 82.2247 22.6945C82.2247 22.4218 82.3298 22.1889 82.54 21.9957C82.7502 21.7997 83.0016 21.7016 83.2943 21.7016C83.5897 21.7016 83.8411 21.7997 84.0485 21.9957C84.2587 22.1889 84.3639 22.4218 84.3639 22.6945C84.3639 22.9701 84.2587 23.2059 84.0485 23.4019C83.8411 23.5951 83.5897 23.6917 83.2943 23.6917ZM87.7442 27.267V30.9999H85.6604V24.4545H87.6419V25.6562H87.7144C87.8592 25.2556 88.1064 24.9417 88.4558 24.7144C88.8053 24.4843 89.2215 24.3693 89.7044 24.3693C90.1646 24.3693 90.5638 24.4729 90.9019 24.6803C91.2428 24.8849 91.507 25.1718 91.6945 25.5411C91.8848 25.9076 91.9786 26.3366 91.9757 26.8281V30.9999H89.8919V27.2372C89.8948 26.8735 89.8024 26.5894 89.6149 26.3849C89.4303 26.1803 89.1732 26.0781 88.8436 26.0781C88.6249 26.0781 88.4317 26.1264 88.2641 26.2229C88.0993 26.3167 87.9715 26.4516 87.8805 26.6278C87.7925 26.8039 87.747 27.017 87.7442 27.267ZM96.317 33.5908C95.6948 33.5908 95.1622 33.5042 94.719 33.3309C94.2758 33.1576 93.9278 32.9204 93.6749 32.6193C93.4221 32.3181 93.2701 31.9772 93.219 31.5965L95.192 31.4857C95.2289 31.6193 95.2971 31.7357 95.3965 31.8352C95.4988 31.9346 95.6309 32.0113 95.7928 32.0653C95.9576 32.1193 96.1508 32.1462 96.3724 32.1462C96.7218 32.1462 97.0102 32.061 97.2374 31.8906C97.4675 31.7229 97.5826 31.4289 97.5826 31.0085V29.8579H97.5102C97.4278 30.0596 97.3028 30.24 97.1352 30.3991C96.9675 30.5582 96.7587 30.6832 96.5087 30.7741C96.2616 30.865 95.9775 30.9104 95.6565 30.9104C95.1792 30.9104 94.7417 30.7997 94.344 30.5781C93.9491 30.3536 93.6323 30.007 93.3937 29.5383C93.1579 29.0667 93.04 28.4602 93.04 27.7187C93.04 26.9545 93.1622 26.3252 93.4065 25.8309C93.6508 25.3337 93.9704 24.9658 94.3653 24.7272C94.763 24.4886 95.1906 24.3693 95.6479 24.3693C95.9917 24.3693 96.2857 24.4289 96.53 24.5482C96.7772 24.6647 96.9803 24.8153 97.1394 24.9999C97.2985 25.1846 97.4193 25.3764 97.5016 25.5752H97.5613V24.4545H99.6366V31.0255C99.6366 31.5795 99.4974 32.0468 99.219 32.4275C98.9406 32.8082 98.5514 33.0965 98.0514 33.2925C97.5514 33.4914 96.9732 33.5908 96.317 33.5908ZM96.3809 29.3934C96.6337 29.3934 96.8496 29.3266 97.0286 29.1931C97.2076 29.0596 97.3454 28.8678 97.442 28.6178C97.5386 28.3678 97.5869 28.0681 97.5869 27.7187C97.5869 27.3636 97.5386 27.0582 97.442 26.8025C97.3482 26.544 97.2104 26.3451 97.0286 26.2059C96.8496 26.0667 96.6337 25.9971 96.3809 25.9971C96.1224 25.9971 95.9036 26.0681 95.7247 26.2102C95.5457 26.3522 95.4093 26.5525 95.3156 26.811C95.2247 27.0667 95.1792 27.3693 95.1792 27.7187C95.1792 28.0681 95.2261 28.3678 95.3198 28.6178C95.4136 28.8678 95.5485 29.0596 95.7247 29.1931C95.9036 29.3266 96.1224 29.3934 96.3809 29.3934Z" fill="white"/>
</g>
<rect x="0.749878" y="0.749939" width="132.5" height="38.5" rx="5.25" stroke="white" stroke-opacity="0.15" stroke-width="1.5"/>
<defs>
<filter id="filter0_d_18_3974" x="5.99988" y="1.99994" width="36" height="36" filterUnits="userSpaceOnUse" color-interpolation-filters="sRGB">
<feFlood flood-opacity="0" result="BackgroundImageFix"/>
<feColorMatrix in="SourceAlpha" type="matrix" values="0 0 0 0 0 0 0 0 0 0 0 0 0 0 0 0 0 0 127 0" result="hardAlpha"/>
<feOffset/>
<feGaussianBlur stdDeviation="2"/>
<feComposite in2="hardAlpha" operator="out"/>
<feColorMatrix type="matrix" values="0 0 0 0 0 0 0 0 0 0 0 0 0 0 0 0 0 0 0.25 0"/>
<feBlend mode="normal" in2="BackgroundImageFix" result="effect1_dropShadow_18_3974"/>
<feBlend mode="normal" in="SourceGraphic" in2="effect1_dropShadow_18_3974" result="shape"/>
</filter>
<filter id="filter1_d_18_3974" x="41.9999" y="2.99994" width="86" height="34.5909" filterUnits="userSpaceOnUse" color-interpolation-filters="sRGB">
<feFlood flood-opacity="0" result="BackgroundImageFix"/>
<feColorMatrix in="SourceAlpha" type="matrix" values="0 0 0 0 0 0 0 0 0 0 0 0 0 0 0 0 0 0 127 0" result="hardAlpha"/>
<feOffset/>
<feGaussianBlur stdDeviation="2"/>
<feComposite in2="hardAlpha" operator="out"/>
<feColorMatrix type="matrix" values="0 0 0 0 0 0 0 0 0 0 0 0 0 0 0 0 0 0 0.25 0"/>
<feBlend mode="normal" in2="BackgroundImageFix" result="effect1_dropShadow_18_3974"/>
<feBlend mode="normal" in="SourceGraphic" in2="effect1_dropShadow_18_3974" result="shape"/>
</filter>
<linearGradient id="paint0_linear_18_3974" x1="66.9999" y1="-6.10351e-05" x2="66.9999" y2="39.9999" gradientUnits="userSpaceOnUse">
<stop stop-color="#2D2D2D"/>
<stop offset="1" stop-color="#222222"/>
</linearGradient>
</defs>
</svg>
