<svg width="130" height="40" viewBox="0 0 130 40" fill="none" xmlns="http://www.w3.org/2000/svg">
<rect x="-0.00012207" y="-3.05176e-05" width="130" height="40" rx="6" fill="url(#paint0_linear_18_3650)"/>
<g filter="url(#filter0_d_18_3650)">
<rect x="12.7775" y="12.2222" width="15.5556" height="14.4444" fill="#FF5E5B"/>
<path d="M40.4006 16.0071C39.3986 10.6644 34.102 10 34.102 10H10.3814C9.59841 10 9.50119 11.0437 9.50119 11.0437C9.50119 11.0437 9.3949 20.6225 9.47267 26.5054C9.68526 29.6756 12.8249 30 12.8249 30C12.8249 30 23.5412 29.9699 28.3361 29.9359C31.4965 29.3788 31.814 26.5799 31.7816 25.0523C37.423 25.3662 41.4026 21.3497 40.4006 16.0071V16.0071ZM26.0612 20.599C24.446 22.4993 20.8618 25.7991 20.8618 25.7991C20.8618 25.7991 20.7049 25.9547 20.4599 25.8292C20.3614 25.7546 20.3199 25.7115 20.3199 25.7115C19.7457 25.1347 15.9541 21.7238 15.0907 20.5402C14.1717 19.2781 13.7413 17.0089 14.9728 15.6879C16.2055 14.367 18.8681 14.2676 20.6285 16.2202C20.6285 16.2202 22.6571 13.8896 25.1239 14.9608C27.5921 16.0332 27.4987 18.8988 26.0612 20.599V20.599ZM34.0631 21.2242C32.8601 21.3759 31.8827 21.2608 31.8827 21.2608V13.8308H34.1772C34.1772 13.8308 36.7321 14.5514 36.7321 17.2809C36.7321 19.7829 35.4553 20.769 34.0631 21.2242V21.2242Z" fill="white"/>
</g>
<g filter="url(#filter1_d_18_3650)">
<path d="M51.2421 12.1015C51.2004 11.7317 51.0285 11.4453 50.7264 11.2422C50.4244 11.0364 50.0441 10.9336 49.5858 10.9336C49.2577 10.9336 48.9738 10.9856 48.7343 11.0898C48.4947 11.1914 48.3085 11.332 48.1757 11.5117C48.0455 11.6888 47.9803 11.8906 47.9803 12.1172C47.9803 12.3073 48.0246 12.4713 48.1132 12.6093C48.2043 12.7474 48.3228 12.8632 48.4686 12.957C48.6171 13.0481 48.7759 13.125 48.9452 13.1875C49.1145 13.2474 49.2772 13.2968 49.4335 13.3359L50.2147 13.539C50.4699 13.6015 50.7316 13.6862 50.9999 13.7929C51.2681 13.8997 51.5168 14.0403 51.746 14.2148C51.9751 14.3893 52.16 14.6054 52.3007 14.8632C52.4439 15.1211 52.5155 15.4297 52.5155 15.789C52.5155 16.2422 52.3983 16.6445 52.1639 16.9961C51.9322 17.3476 51.5949 17.625 51.1522 17.8281C50.7121 18.0312 50.1796 18.1328 49.5546 18.1328C48.9556 18.1328 48.4374 18.0377 47.9999 17.8476C47.5624 17.6575 47.2199 17.388 46.9725 17.039C46.7251 16.6875 46.5884 16.2708 46.5624 15.789H47.7733C47.7968 16.0781 47.8905 16.319 48.0546 16.5117C48.2212 16.7018 48.4335 16.8437 48.6913 16.9375C48.9517 17.0286 49.2369 17.0742 49.5468 17.0742C49.8879 17.0742 50.1913 17.0208 50.4569 16.914C50.7251 16.8047 50.9361 16.6536 51.0897 16.4609C51.2434 16.2656 51.3202 16.0377 51.3202 15.7773C51.3202 15.5403 51.2525 15.3463 51.1171 15.1953C50.9843 15.0442 50.8033 14.9192 50.5741 14.8203C50.3475 14.7213 50.091 14.6341 49.8046 14.5586L48.8593 14.3007C48.2186 14.1263 47.7108 13.8698 47.3358 13.5312C46.9634 13.1927 46.7772 12.7448 46.7772 12.1875C46.7772 11.7265 46.9022 11.3242 47.1522 10.9804C47.4022 10.6367 47.7408 10.3698 48.1678 10.1797C48.5949 9.98695 49.0767 9.89059 49.6132 9.89059C50.1548 9.89059 50.6327 9.98565 51.0468 10.1757C51.4634 10.3659 51.7915 10.6276 52.0311 10.9609C52.2707 11.2916 52.3957 11.6718 52.4061 12.1015H51.2421ZM57.6649 15.5117V12H58.8368V18H57.6884V16.9609H57.6259C57.4878 17.2812 57.2665 17.5481 56.9618 17.7617C56.6597 17.9726 56.2834 18.0781 55.8329 18.0781C55.4475 18.0781 55.1063 17.9935 54.8094 17.8242C54.5152 17.6523 54.2834 17.3984 54.1141 17.0625C53.9475 16.7265 53.8641 16.3112 53.8641 15.8164V12H55.0321V15.6757C55.0321 16.0846 55.1454 16.4101 55.3719 16.6523C55.5985 16.8945 55.8928 17.0156 56.2548 17.0156C56.4735 17.0156 56.691 16.9609 56.9071 16.8515C57.1259 16.7422 57.3068 16.5768 57.4501 16.3554C57.5959 16.1341 57.6675 15.8528 57.6649 15.5117ZM60.4061 20.25V12H61.5467V12.9726H61.6444C61.7121 12.8476 61.8098 12.7031 61.9374 12.539C62.065 12.375 62.2421 12.2317 62.4686 12.1093C62.6952 11.9843 62.9947 11.9218 63.3671 11.9218C63.8514 11.9218 64.2837 12.0442 64.6639 12.289C65.0441 12.5338 65.3423 12.8867 65.5585 13.3476C65.7772 13.8086 65.8866 14.3632 65.8866 15.0117C65.8866 15.6601 65.7785 16.2161 65.5624 16.6797C65.3462 17.1406 65.0494 17.4961 64.6717 17.7461C64.2941 17.9935 63.8632 18.1172 63.3788 18.1172C63.0142 18.1172 62.716 18.056 62.4842 17.9336C62.2551 17.8112 62.0754 17.6679 61.9452 17.5039C61.815 17.3398 61.7147 17.194 61.6444 17.0664H61.5741V20.25H60.4061ZM61.5507 15C61.5507 15.4218 61.6119 15.7916 61.7342 16.1093C61.8566 16.427 62.0337 16.6757 62.2655 16.8554C62.4973 17.0325 62.7811 17.1211 63.1171 17.1211C63.466 17.1211 63.7577 17.0286 63.9921 16.8437C64.2264 16.6562 64.4035 16.4023 64.5233 16.082C64.6457 15.7617 64.7069 15.401 64.7069 15C64.7069 14.6041 64.647 14.2487 64.5272 13.9336C64.41 13.6185 64.2329 13.3698 63.996 13.1875C63.7616 13.0052 63.4686 12.914 63.1171 12.914C62.7785 12.914 62.4921 13.0013 62.2577 13.1757C62.0259 13.3502 61.8501 13.5937 61.7303 13.9062C61.6106 14.2187 61.5507 14.5833 61.5507 15ZM67.1952 20.25V12H68.3358V12.9726H68.4335C68.5012 12.8476 68.5988 12.7031 68.7264 12.539C68.854 12.375 69.0311 12.2317 69.2577 12.1093C69.4842 11.9843 69.7837 11.9218 70.1561 11.9218C70.6405 11.9218 71.0728 12.0442 71.453 12.289C71.8332 12.5338 72.1314 12.8867 72.3475 13.3476C72.5663 13.8086 72.6757 14.3632 72.6757 15.0117C72.6757 15.6601 72.5676 16.2161 72.3514 16.6797C72.1353 17.1406 71.8384 17.4961 71.4608 17.7461C71.0832 17.9935 70.6522 18.1172 70.1678 18.1172C69.8033 18.1172 69.5051 18.056 69.2733 17.9336C69.0441 17.8112 68.8645 17.6679 68.7342 17.5039C68.604 17.3398 68.5038 17.194 68.4335 17.0664H68.3632V20.25H67.1952ZM68.3397 15C68.3397 15.4218 68.4009 15.7916 68.5233 16.1093C68.6457 16.427 68.8228 16.6757 69.0546 16.8554C69.2863 17.0325 69.5702 17.1211 69.9061 17.1211C70.2551 17.1211 70.5467 17.0286 70.7811 16.8437C71.0155 16.6562 71.1926 16.4023 71.3124 16.082C71.4348 15.7617 71.496 15.401 71.496 15C71.496 14.6041 71.4361 14.2487 71.3163 13.9336C71.1991 13.6185 71.022 13.3698 70.785 13.1875C70.5507 13.0052 70.2577 12.914 69.9061 12.914C69.5676 12.914 69.2811 13.0013 69.0467 13.1757C68.815 13.3502 68.6392 13.5937 68.5194 13.9062C68.3996 14.2187 68.3397 14.5833 68.3397 15ZM76.5116 18.1211C75.9491 18.1211 75.4582 17.9922 75.0389 17.7343C74.6197 17.4765 74.2941 17.1159 74.0624 16.6523C73.8306 16.1888 73.7147 15.6471 73.7147 15.0273C73.7147 14.4049 73.8306 13.8606 74.0624 13.3945C74.2941 12.9284 74.6197 12.5664 75.0389 12.3086C75.4582 12.0507 75.9491 11.9218 76.5116 11.9218C77.0741 11.9218 77.565 12.0507 77.9842 12.3086C78.4035 12.5664 78.729 12.9284 78.9608 13.3945C79.1926 13.8606 79.3085 14.4049 79.3085 15.0273C79.3085 15.6471 79.1926 16.1888 78.9608 16.6523C78.729 17.1159 78.4035 17.4765 77.9842 17.7343C77.565 17.9922 77.0741 18.1211 76.5116 18.1211ZM76.5155 17.1406C76.8801 17.1406 77.1822 17.0442 77.4217 16.8515C77.6613 16.6588 77.8384 16.4023 77.953 16.082C78.0702 15.7617 78.1288 15.4088 78.1288 15.0234C78.1288 14.6406 78.0702 14.289 77.953 13.9687C77.8384 13.6458 77.6613 13.3867 77.4217 13.1914C77.1822 12.9961 76.8801 12.8984 76.5155 12.8984C76.1483 12.8984 75.8436 12.9961 75.6014 13.1914C75.3618 13.3867 75.1835 13.6458 75.0663 13.9687C74.9517 14.289 74.8944 14.6406 74.8944 15.0234C74.8944 15.4088 74.9517 15.7617 75.0663 16.082C75.1835 16.4023 75.3618 16.6588 75.6014 16.8515C75.8436 17.0442 76.1483 17.1406 76.5155 17.1406ZM80.6122 18V12H81.7411V12.9531H81.8036C81.913 12.6302 82.1057 12.3763 82.3817 12.1914C82.6603 12.0039 82.9755 11.9101 83.327 11.9101C83.3999 11.9101 83.4859 11.9127 83.5848 11.9179C83.6864 11.9231 83.7658 11.9297 83.8231 11.9375V13.0547C83.7762 13.0416 83.6929 13.0273 83.5731 13.0117C83.4533 12.9935 83.3335 12.9843 83.2137 12.9843C82.9377 12.9843 82.6916 13.0429 82.4755 13.1601C82.2619 13.2747 82.0926 13.4349 81.9676 13.6406C81.8426 13.8437 81.7801 14.0755 81.7801 14.3359V18H80.6122ZM87.9891 12V12.9375H84.7118V12H87.9891ZM85.5907 10.5625H86.7587V16.2382C86.7587 16.4648 86.7925 16.6354 86.8602 16.75C86.9279 16.8619 87.0152 16.9388 87.1219 16.9804C87.2313 17.0195 87.3498 17.039 87.4774 17.039C87.5712 17.039 87.6532 17.0325 87.7235 17.0195C87.7938 17.0065 87.8485 16.9961 87.8876 16.9882L88.0985 17.9531C88.0308 17.9791 87.9344 18.0052 87.8094 18.0312C87.6844 18.0599 87.5282 18.0755 87.3407 18.0781C87.0334 18.0833 86.7469 18.0286 86.4813 17.914C86.2157 17.7994 86.0008 17.6224 85.8368 17.3828C85.6727 17.1432 85.5907 16.8424 85.5907 16.4804V10.5625ZM95.993 15.5117V12H97.1649V18H96.0165V16.9609H95.954C95.8159 17.2812 95.5946 17.5481 95.2899 17.7617C94.9878 17.9726 94.6115 18.0781 94.161 18.0781C93.7756 18.0781 93.4344 17.9935 93.1376 17.8242C92.8433 17.6523 92.6115 17.3984 92.4422 17.0625C92.2756 16.7265 92.1922 16.3112 92.1922 15.8164V12H93.3602V15.6757C93.3602 16.0846 93.4735 16.4101 93.7001 16.6523C93.9266 16.8945 94.2209 17.0156 94.5829 17.0156C94.8016 17.0156 95.0191 16.9609 95.2352 16.8515C95.454 16.7422 95.635 16.5768 95.7782 16.3554C95.924 16.1341 95.9956 15.8528 95.993 15.5117ZM103.23 13.4648L102.172 13.6523C102.127 13.5169 102.057 13.388 101.961 13.2656C101.867 13.1432 101.739 13.0429 101.578 12.9648C101.417 12.8867 101.215 12.8476 100.973 12.8476C100.642 12.8476 100.366 12.9218 100.144 13.0703C99.923 13.2161 99.8124 13.4049 99.8124 13.6367C99.8124 13.8372 99.8866 13.9987 100.035 14.1211C100.183 14.2435 100.423 14.3437 100.754 14.4218L101.707 14.6406C102.259 14.7682 102.67 14.9648 102.941 15.2304C103.212 15.4961 103.348 15.8411 103.348 16.2656C103.348 16.625 103.243 16.9453 103.035 17.2265C102.829 17.5052 102.542 17.7239 102.172 17.8828C101.805 18.0416 101.379 18.1211 100.894 18.1211C100.223 18.1211 99.6743 17.9778 99.2499 17.6914C98.8254 17.4023 98.565 16.9922 98.4686 16.4609L99.5975 16.289C99.6678 16.5833 99.8124 16.806 100.031 16.957C100.25 17.1054 100.535 17.1797 100.887 17.1797C101.269 17.1797 101.575 17.1002 101.805 16.9414C102.034 16.7799 102.148 16.5833 102.148 16.3515C102.148 16.164 102.078 16.0065 101.937 15.8789C101.799 15.7513 101.587 15.6549 101.301 15.5898L100.285 15.3672C99.7251 15.2396 99.3111 15.0364 99.0428 14.7578C98.7772 14.4791 98.6444 14.1263 98.6444 13.6992C98.6444 13.345 98.7434 13.0351 98.9413 12.7695C99.1392 12.5039 99.4126 12.2968 99.7616 12.1484C100.111 11.9974 100.51 11.9218 100.961 11.9218C101.609 11.9218 102.12 12.0625 102.492 12.3437C102.864 12.6224 103.111 12.9961 103.23 13.4648ZM110.07 18.1211C109.508 18.1211 109.017 17.9922 108.598 17.7343C108.178 17.4765 107.853 17.1159 107.621 16.6523C107.389 16.1888 107.273 15.6471 107.273 15.0273C107.273 14.4049 107.389 13.8606 107.621 13.3945C107.853 12.9284 108.178 12.5664 108.598 12.3086C109.017 12.0507 109.508 11.9218 110.07 11.9218C110.633 11.9218 111.124 12.0507 111.543 12.3086C111.962 12.5664 112.288 12.9284 112.519 13.3945C112.751 13.8606 112.867 14.4049 112.867 15.0273C112.867 15.6471 112.751 16.1888 112.519 16.6523C112.288 17.1159 111.962 17.4765 111.543 17.7343C111.124 17.9922 110.633 18.1211 110.07 18.1211ZM110.074 17.1406C110.439 17.1406 110.741 17.0442 110.98 16.8515C111.22 16.6588 111.397 16.4023 111.512 16.082C111.629 15.7617 111.687 15.4088 111.687 15.0234C111.687 14.6406 111.629 14.289 111.512 13.9687C111.397 13.6458 111.22 13.3867 110.98 13.1914C110.741 12.9961 110.439 12.8984 110.074 12.8984C109.707 12.8984 109.402 12.9961 109.16 13.1914C108.92 13.3867 108.742 13.6458 108.625 13.9687C108.51 14.289 108.453 14.6406 108.453 15.0234C108.453 15.4088 108.51 15.7617 108.625 16.082C108.742 16.4023 108.92 16.6588 109.16 16.8515C109.402 17.0442 109.707 17.1406 110.074 17.1406ZM115.339 14.4375V18H114.171V12H115.292V12.9765H115.366C115.504 12.6588 115.72 12.4036 116.015 12.2109C116.311 12.0182 116.685 11.9218 117.136 11.9218C117.544 11.9218 117.903 12.0078 118.21 12.1797C118.517 12.3489 118.755 12.6015 118.925 12.9375C119.094 13.2734 119.179 13.6888 119.179 14.1836V18H118.011V14.3242C118.011 13.8893 117.897 13.5494 117.671 13.3047C117.444 13.0573 117.133 12.9336 116.737 12.9336C116.466 12.9336 116.225 12.9922 116.015 13.1093C115.806 13.2265 115.641 13.3984 115.518 13.625C115.399 13.8489 115.339 14.1198 115.339 14.4375Z" fill="#E8E8E8"/>
<path d="M46.6604 31V22.2727H48.7698V25.963H48.8848L51.7698 22.2727H54.2541L51.1604 26.1676L54.3095 31H51.7868L49.6135 27.5696L48.7698 28.6349V31H46.6604ZM57.6611 31.1235C56.9736 31.1235 56.3827 30.9829 55.8884 30.7017C55.3969 30.4176 55.0176 30.0227 54.7506 29.517C54.4864 29.0085 54.3543 28.419 54.3543 27.7485C54.3543 27.0753 54.4864 26.4858 54.7506 25.9801C55.0176 25.4716 55.3969 25.0767 55.8884 24.7954C56.3827 24.5113 56.9736 24.3693 57.6611 24.3693C58.3486 24.3693 58.9381 24.5113 59.4296 24.7954C59.9239 25.0767 60.3031 25.4716 60.5673 25.9801C60.8344 26.4858 60.9679 27.0753 60.9679 27.7485C60.9679 28.419 60.8344 29.0085 60.5673 29.517C60.3031 30.0227 59.9239 30.4176 59.4296 30.7017C58.9381 30.9829 58.3486 31.1235 57.6611 31.1235ZM57.6739 29.5511C57.9239 29.5511 58.1355 29.4744 58.3088 29.321C58.4821 29.1676 58.6142 28.9545 58.7051 28.6818C58.7989 28.4091 58.8458 28.0937 58.8458 27.7358C58.8458 27.3721 58.7989 27.0539 58.7051 26.7812C58.6142 26.5085 58.4821 26.2954 58.3088 26.142C58.1355 25.9886 57.9239 25.9119 57.6739 25.9119C57.4154 25.9119 57.1966 25.9886 57.0176 26.142C56.8415 26.2954 56.7066 26.5085 56.6128 26.7812C56.5219 27.0539 56.4764 27.3721 56.4764 27.7358C56.4764 28.0937 56.5219 28.4091 56.6128 28.6818C56.7066 28.9545 56.8415 29.1676 57.0176 29.321C57.1966 29.4744 57.4154 29.5511 57.6739 29.5511ZM66.2243 26.6662V28.2727H62.1845V26.6662H66.2243ZM71.4157 24.4545V25.9886H67.2055V24.4545H71.4157ZM68.0833 31V24.1221C68.0833 23.6164 68.1785 23.1974 68.3688 22.865C68.5592 22.5298 68.8234 22.2798 69.1614 22.115C69.4995 21.9474 69.8901 21.8636 70.3333 21.8636C70.6231 21.8636 70.8958 21.8863 71.1515 21.9318C71.41 21.9744 71.6018 22.0128 71.7268 22.0468L71.3944 23.5724C71.3177 23.5468 71.2239 23.5255 71.1132 23.5085C71.0052 23.4914 70.9029 23.4829 70.8063 23.4829C70.562 23.4829 70.3944 23.5369 70.3035 23.6449C70.2126 23.7528 70.1671 23.9005 70.1671 24.088V31H68.0833ZM72.4182 31V24.4545H74.502V31H72.4182ZM73.4622 23.6917C73.1696 23.6917 72.9182 23.5951 72.708 23.402C72.4977 23.2059 72.3926 22.9701 72.3926 22.6946C72.3926 22.4218 72.4977 22.1889 72.708 21.9957C72.9182 21.7997 73.1696 21.7017 73.4622 21.7017C73.7577 21.7017 74.0091 21.7997 74.2165 21.9957C74.4267 22.1889 74.5318 22.4218 74.5318 22.6946C74.5318 22.9701 74.4267 23.2059 74.2165 23.402C74.0091 23.5951 73.7577 23.6917 73.4622 23.6917Z" fill="#FF5E5B"/>
</g>
<rect x="0.749878" y="0.749969" width="128.5" height="38.5" rx="5.25" stroke="white" stroke-opacity="0.15" stroke-width="1.5"/>
<defs>
<filter id="filter0_d_18_3650" x="5.44421" y="1.99997" width="39.1111" height="36" filterUnits="userSpaceOnUse" color-interpolation-filters="sRGB">
<feFlood flood-opacity="0" result="BackgroundImageFix"/>
<feColorMatrix in="SourceAlpha" type="matrix" values="0 0 0 0 0 0 0 0 0 0 0 0 0 0 0 0 0 0 127 0" result="hardAlpha"/>
<feOffset/>
<feGaussianBlur stdDeviation="2"/>
<feComposite in2="hardAlpha" operator="out"/>
<feColorMatrix type="matrix" values="0 0 0 0 0 0 0 0 0 0 0 0 0 0 0 0 0 0 0.25 0"/>
<feBlend mode="normal" in2="BackgroundImageFix" result="effect1_dropShadow_18_3650"/>
<feBlend mode="normal" in="SourceGraphic" in2="effect1_dropShadow_18_3650" result="shape"/>
</filter>
<filter id="filter1_d_18_3650" x="41.9999" y="2.99997" width="82" height="34" filterUnits="userSpaceOnUse" color-interpolation-filters="sRGB">
<feFlood flood-opacity="0" result="BackgroundImageFix"/>
<feColorMatrix in="SourceAlpha" type="matrix" values="0 0 0 0 0 0 0 0 0 0 0 0 0 0 0 0 0 0 127 0" result="hardAlpha"/>
<feOffset/>
<feGaussianBlur stdDeviation="2"/>
<feComposite in2="hardAlpha" operator="out"/>
<feColorMatrix type="matrix" values="0 0 0 0 0 0 0 0 0 0 0 0 0 0 0 0 0 0 0.25 0"/>
<feBlend mode="normal" in2="BackgroundImageFix" result="effect1_dropShadow_18_3650"/>
<feBlend mode="normal" in="SourceGraphic" in2="effect1_dropShadow_18_3650" result="shape"/>
</filter>
<linearGradient id="paint0_linear_18_3650" x1="64.9999" y1="-3.05176e-05" x2="64.9999" y2="40" gradientUnits="userSpaceOnUse">
<stop stop-color="#002E3F"/>
<stop offset="1" stop-color="#001A23"/>
</linearGradient>
</defs>
</svg>
