<svg width="134" height="40" viewBox="0 0 134 40" fill="none" xmlns="http://www.w3.org/2000/svg">
<rect x="-0.00012207" y="-6.10352e-05" width="134" height="40" rx="6" fill="url(#paint0_linear_18_3720)"/>
<g filter="url(#filter0_d_18_3720)">
<path d="M12.4999 9V31.0001H16.544V9H12.4999ZM27.2438 9C22.6783 9 18.9629 12.7049 18.9629 17.2596C18.9629 21.8 22.6783 25.4934 27.2438 25.4934C31.7959 25.4934 35.4999 21.8 35.4999 17.2596C35.4999 12.7049 31.7969 9 27.2438 9Z" fill="#FF424E"/>
</g>
<g filter="url(#filter1_d_18_3720)">
<path d="M51.2421 12.1015C51.2004 11.7317 51.0285 11.4452 50.7264 11.2421C50.4244 11.0364 50.0441 10.9335 49.5858 10.9335C49.2577 10.9335 48.9738 10.9856 48.7343 11.0898C48.4947 11.1913 48.3085 11.332 48.1757 11.5117C48.0455 11.6887 47.9803 11.8906 47.9803 12.1171C47.9803 12.3072 48.0246 12.4713 48.1132 12.6093C48.2043 12.7473 48.3228 12.8632 48.4686 12.957C48.6171 13.0481 48.7759 13.1249 48.9452 13.1874C49.1145 13.2473 49.2772 13.2968 49.4335 13.3359L50.2147 13.539C50.4699 13.6015 50.7316 13.6861 50.9999 13.7929C51.2681 13.8997 51.5168 14.0403 51.746 14.2148C51.9751 14.3893 52.16 14.6054 52.3007 14.8632C52.4439 15.121 52.5155 15.4296 52.5155 15.789C52.5155 16.2421 52.3983 16.6445 52.1639 16.996C51.9322 17.3476 51.5949 17.6249 51.1522 17.8281C50.7121 18.0312 50.1796 18.1327 49.5546 18.1327C48.9556 18.1327 48.4374 18.0377 47.9999 17.8476C47.5624 17.6575 47.2199 17.388 46.9725 17.039C46.7251 16.6874 46.5884 16.2708 46.5624 15.789H47.7733C47.7968 16.0781 47.8905 16.3189 48.0546 16.5117C48.2212 16.7018 48.4335 16.8437 48.6913 16.9374C48.9517 17.0286 49.2369 17.0742 49.5468 17.0742C49.8879 17.0742 50.1913 17.0208 50.4569 16.914C50.7251 16.8046 50.9361 16.6536 51.0897 16.4609C51.2434 16.2656 51.3202 16.0377 51.3202 15.7773C51.3202 15.5403 51.2525 15.3463 51.1171 15.1952C50.9843 15.0442 50.8033 14.9192 50.5741 14.8202C50.3475 14.7213 50.091 14.6341 49.8046 14.5585L48.8593 14.3007C48.2186 14.1262 47.7108 13.8697 47.3358 13.5312C46.9634 13.1926 46.7772 12.7447 46.7772 12.1874C46.7772 11.7265 46.9022 11.3242 47.1522 10.9804C47.4022 10.6367 47.7408 10.3697 48.1678 10.1796C48.5949 9.98692 49.0767 9.89056 49.6132 9.89056C50.1548 9.89056 50.6327 9.98561 51.0468 10.1757C51.4634 10.3658 51.7915 10.6275 52.0311 10.9609C52.2707 11.2916 52.3957 11.6718 52.4061 12.1015H51.2421ZM57.6649 15.5117V11.9999H58.8368V17.9999H57.6884V16.9609H57.6259C57.4878 17.2812 57.2665 17.5481 56.9618 17.7617C56.6597 17.9726 56.2834 18.0781 55.8329 18.0781C55.4475 18.0781 55.1063 17.9934 54.8094 17.8242C54.5152 17.6523 54.2834 17.3984 54.1141 17.0624C53.9475 16.7265 53.8641 16.3111 53.8641 15.8163V11.9999H55.0321V15.6757C55.0321 16.0846 55.1454 16.4101 55.3719 16.6523C55.5985 16.8945 55.8928 17.0156 56.2548 17.0156C56.4735 17.0156 56.691 16.9609 56.9071 16.8515C57.1259 16.7421 57.3068 16.5768 57.4501 16.3554C57.5959 16.1341 57.6675 15.8528 57.6649 15.5117ZM60.4061 20.2499V11.9999H61.5467V12.9726H61.6444C61.7121 12.8476 61.8098 12.7031 61.9374 12.539C62.065 12.3749 62.2421 12.2317 62.4686 12.1093C62.6952 11.9843 62.9947 11.9218 63.3671 11.9218C63.8514 11.9218 64.2837 12.0442 64.6639 12.289C65.0441 12.5338 65.3423 12.8867 65.5585 13.3476C65.7772 13.8085 65.8866 14.3632 65.8866 15.0117C65.8866 15.6601 65.7785 16.2161 65.5624 16.6796C65.3462 17.1406 65.0494 17.496 64.6717 17.746C64.2941 17.9934 63.8632 18.1171 63.3788 18.1171C63.0142 18.1171 62.716 18.0559 62.4842 17.9335C62.2551 17.8111 62.0754 17.6679 61.9452 17.5038C61.815 17.3398 61.7147 17.1939 61.6444 17.0663H61.5741V20.2499H60.4061ZM61.5507 14.9999C61.5507 15.4218 61.6119 15.7916 61.7342 16.1093C61.8566 16.427 62.0337 16.6757 62.2655 16.8554C62.4973 17.0325 62.7811 17.121 63.1171 17.121C63.466 17.121 63.7577 17.0286 63.9921 16.8437C64.2264 16.6562 64.4035 16.4023 64.5233 16.082C64.6457 15.7617 64.7069 15.401 64.7069 14.9999C64.7069 14.6041 64.647 14.2486 64.5272 13.9335C64.41 13.6184 64.2329 13.3697 63.996 13.1874C63.7616 13.0051 63.4686 12.914 63.1171 12.914C62.7785 12.914 62.4921 13.0012 62.2577 13.1757C62.0259 13.3502 61.8501 13.5937 61.7303 13.9062C61.6106 14.2187 61.5507 14.5833 61.5507 14.9999ZM67.1952 20.2499V11.9999H68.3358V12.9726H68.4335C68.5012 12.8476 68.5988 12.7031 68.7264 12.539C68.854 12.3749 69.0311 12.2317 69.2577 12.1093C69.4842 11.9843 69.7837 11.9218 70.1561 11.9218C70.6405 11.9218 71.0728 12.0442 71.453 12.289C71.8332 12.5338 72.1314 12.8867 72.3475 13.3476C72.5663 13.8085 72.6757 14.3632 72.6757 15.0117C72.6757 15.6601 72.5676 16.2161 72.3514 16.6796C72.1353 17.1406 71.8384 17.496 71.4608 17.746C71.0832 17.9934 70.6522 18.1171 70.1678 18.1171C69.8033 18.1171 69.5051 18.0559 69.2733 17.9335C69.0441 17.8111 68.8645 17.6679 68.7342 17.5038C68.604 17.3398 68.5038 17.1939 68.4335 17.0663H68.3632V20.2499H67.1952ZM68.3397 14.9999C68.3397 15.4218 68.4009 15.7916 68.5233 16.1093C68.6457 16.427 68.8228 16.6757 69.0546 16.8554C69.2863 17.0325 69.5702 17.121 69.9061 17.121C70.2551 17.121 70.5467 17.0286 70.7811 16.8437C71.0155 16.6562 71.1926 16.4023 71.3124 16.082C71.4348 15.7617 71.496 15.401 71.496 14.9999C71.496 14.6041 71.4361 14.2486 71.3163 13.9335C71.1991 13.6184 71.022 13.3697 70.785 13.1874C70.5507 13.0051 70.2577 12.914 69.9061 12.914C69.5676 12.914 69.2811 13.0012 69.0467 13.1757C68.815 13.3502 68.6392 13.5937 68.5194 13.9062C68.3996 14.2187 68.3397 14.5833 68.3397 14.9999ZM76.5116 18.121C75.9491 18.121 75.4582 17.9921 75.0389 17.7343C74.6197 17.4765 74.2941 17.1158 74.0624 16.6523C73.8306 16.1887 73.7147 15.6471 73.7147 15.0273C73.7147 14.4049 73.8306 13.8606 74.0624 13.3945C74.2941 12.9283 74.6197 12.5663 75.0389 12.3085C75.4582 12.0507 75.9491 11.9218 76.5116 11.9218C77.0741 11.9218 77.565 12.0507 77.9842 12.3085C78.4035 12.5663 78.729 12.9283 78.9608 13.3945C79.1926 13.8606 79.3085 14.4049 79.3085 15.0273C79.3085 15.6471 79.1926 16.1887 78.9608 16.6523C78.729 17.1158 78.4035 17.4765 77.9842 17.7343C77.565 17.9921 77.0741 18.121 76.5116 18.121ZM76.5155 17.1406C76.8801 17.1406 77.1822 17.0442 77.4217 16.8515C77.6613 16.6588 77.8384 16.4023 77.953 16.082C78.0702 15.7617 78.1288 15.4088 78.1288 15.0234C78.1288 14.6406 78.0702 14.289 77.953 13.9687C77.8384 13.6458 77.6613 13.3867 77.4217 13.1913C77.1822 12.996 76.8801 12.8984 76.5155 12.8984C76.1483 12.8984 75.8436 12.996 75.6014 13.1913C75.3618 13.3867 75.1835 13.6458 75.0663 13.9687C74.9517 14.289 74.8944 14.6406 74.8944 15.0234C74.8944 15.4088 74.9517 15.7617 75.0663 16.082C75.1835 16.4023 75.3618 16.6588 75.6014 16.8515C75.8436 17.0442 76.1483 17.1406 76.5155 17.1406ZM80.6122 17.9999V11.9999H81.7411V12.9531H81.8036C81.913 12.6301 82.1057 12.3762 82.3817 12.1913C82.6603 12.0038 82.9755 11.9101 83.327 11.9101C83.3999 11.9101 83.4859 11.9127 83.5848 11.9179C83.6864 11.9231 83.7658 11.9296 83.8231 11.9374V13.0546C83.7762 13.0416 83.6929 13.0273 83.5731 13.0117C83.4533 12.9934 83.3335 12.9843 83.2137 12.9843C82.9377 12.9843 82.6916 13.0429 82.4755 13.1601C82.2619 13.2747 82.0926 13.4348 81.9676 13.6406C81.8426 13.8437 81.7801 14.0755 81.7801 14.3359V17.9999H80.6122ZM87.9891 11.9999V12.9374H84.7118V11.9999H87.9891ZM85.5907 10.5624H86.7587V16.2382C86.7587 16.4648 86.7925 16.6354 86.8602 16.7499C86.9279 16.8619 87.0152 16.9387 87.1219 16.9804C87.2313 17.0195 87.3498 17.039 87.4774 17.039C87.5712 17.039 87.6532 17.0325 87.7235 17.0195C87.7938 17.0064 87.8485 16.996 87.8876 16.9882L88.0985 17.9531C88.0308 17.9791 87.9344 18.0051 87.8094 18.0312C87.6844 18.0598 87.5282 18.0755 87.3407 18.0781C87.0334 18.0833 86.7469 18.0286 86.4813 17.914C86.2157 17.7994 86.0008 17.6223 85.8368 17.3827C85.6727 17.1432 85.5907 16.8424 85.5907 16.4804V10.5624ZM92.1922 17.9999V11.9999H93.3133V12.9765H93.3876C93.5126 12.6458 93.717 12.388 94.0008 12.2031C94.2847 12.0156 94.6245 11.9218 95.0204 11.9218C95.4214 11.9218 95.7574 12.0156 96.0282 12.2031C96.3016 12.3906 96.5034 12.6484 96.6337 12.9765H96.6962C96.8394 12.6562 97.0672 12.401 97.3797 12.2109C97.6922 12.0182 98.0646 11.9218 98.4969 11.9218C99.0412 11.9218 99.4852 12.0924 99.829 12.4335C100.175 12.7747 100.348 13.289 100.348 13.9765V17.9999H99.1805V14.0859C99.1805 13.6796 99.0698 13.3854 98.8485 13.2031C98.6271 13.0208 98.3628 12.9296 98.0555 12.9296C97.6753 12.9296 97.3797 13.0468 97.1688 13.2812C96.9579 13.513 96.8524 13.8111 96.8524 14.1757V17.9999H95.6883V14.0117C95.6883 13.6861 95.5868 13.4244 95.3837 13.2265C95.1805 13.0286 94.9162 12.9296 94.5907 12.9296C94.3693 12.9296 94.1649 12.9882 93.9774 13.1054C93.7925 13.22 93.6428 13.3801 93.5282 13.5859C93.4162 13.7916 93.3602 14.0299 93.3602 14.3007V17.9999H92.1922ZM104.5 18.121C103.909 18.121 103.4 17.9947 102.973 17.7421C102.548 17.4869 102.22 17.1288 101.988 16.6679C101.759 16.2044 101.644 15.6614 101.644 15.039C101.644 14.4244 101.759 13.8827 101.988 13.414C102.22 12.9452 102.543 12.5794 102.957 12.3163C103.374 12.0533 103.861 11.9218 104.418 11.9218C104.756 11.9218 105.084 11.9778 105.402 12.0898C105.72 12.2018 106.005 12.3775 106.258 12.6171C106.51 12.8567 106.709 13.1679 106.855 13.5507C107.001 13.9309 107.074 14.3932 107.074 14.9374V15.3515H102.305V14.4765H105.93C105.93 14.1692 105.867 13.8971 105.742 13.6601C105.617 13.4205 105.441 13.2317 105.215 13.0937C104.991 12.9557 104.728 12.8867 104.426 12.8867C104.098 12.8867 103.811 12.9674 103.566 13.1288C103.324 13.2877 103.137 13.496 103.004 13.7538C102.874 14.0091 102.808 14.2864 102.808 14.5859V15.2695C102.808 15.6705 102.879 16.0117 103.019 16.2929C103.163 16.5742 103.362 16.789 103.617 16.9374C103.872 17.0833 104.17 17.1562 104.512 17.1562C104.733 17.1562 104.935 17.1249 105.117 17.0624C105.299 16.9973 105.457 16.901 105.59 16.7734C105.723 16.6458 105.824 16.4882 105.894 16.3007L107 16.4999C106.911 16.8255 106.752 17.1106 106.523 17.3554C106.297 17.5976 106.012 17.7864 105.668 17.9218C105.327 18.0546 104.937 18.121 104.5 18.121ZM113.808 18.121C113.246 18.121 112.755 17.9921 112.336 17.7343C111.917 17.4765 111.591 17.1158 111.359 16.6523C111.127 16.1887 111.012 15.6471 111.012 15.0273C111.012 14.4049 111.127 13.8606 111.359 13.3945C111.591 12.9283 111.917 12.5663 112.336 12.3085C112.755 12.0507 113.246 11.9218 113.808 11.9218C114.371 11.9218 114.862 12.0507 115.281 12.3085C115.7 12.5663 116.026 12.9283 116.258 13.3945C116.489 13.8606 116.605 14.4049 116.605 15.0273C116.605 15.6471 116.489 16.1887 116.258 16.6523C116.026 17.1158 115.7 17.4765 115.281 17.7343C114.862 17.9921 114.371 18.121 113.808 18.121ZM113.812 17.1406C114.177 17.1406 114.479 17.0442 114.719 16.8515C114.958 16.6588 115.135 16.4023 115.25 16.082C115.367 15.7617 115.426 15.4088 115.426 15.0234C115.426 14.6406 115.367 14.289 115.25 13.9687C115.135 13.6458 114.958 13.3867 114.719 13.1913C114.479 12.996 114.177 12.8984 113.812 12.8984C113.445 12.8984 113.14 12.996 112.898 13.1913C112.659 13.3867 112.48 13.6458 112.363 13.9687C112.249 14.289 112.191 14.6406 112.191 15.0234C112.191 15.4088 112.249 15.7617 112.363 16.082C112.48 16.4023 112.659 16.6588 112.898 16.8515C113.14 17.0442 113.445 17.1406 113.812 17.1406ZM119.077 14.4374V17.9999H117.909V11.9999H119.03V12.9765H119.104C119.242 12.6588 119.459 12.4036 119.753 12.2109C120.05 12.0182 120.423 11.9218 120.874 11.9218C121.283 11.9218 121.641 12.0078 121.948 12.1796C122.255 12.3489 122.494 12.6015 122.663 12.9374C122.832 13.2734 122.917 13.6887 122.917 14.1835V17.9999H121.749V14.3242C121.749 13.8893 121.636 13.5494 121.409 13.3046C121.182 13.0572 120.871 12.9335 120.475 12.9335C120.205 12.9335 119.964 12.9921 119.753 13.1093C119.544 13.2265 119.379 13.3984 119.257 13.6249C119.137 13.8489 119.077 14.1197 119.077 14.4374Z" fill="#E8E8E8"/>
<path d="M46.6604 30.9999V22.2727H50.2655C50.9189 22.2727 51.4828 22.4005 51.9573 22.6562C52.4345 22.909 52.8024 23.2627 53.061 23.7173C53.3195 24.169 53.4487 24.6945 53.4487 25.294C53.4487 25.8962 53.3166 26.4232 53.0524 26.8749C52.7911 27.3238 52.4175 27.6718 51.9317 27.919C51.4459 28.1661 50.8692 28.2897 50.2016 28.2897H47.9772V26.6278H49.8095C50.1277 26.6278 50.3933 26.5724 50.6064 26.4616C50.8223 26.3508 50.9857 26.196 51.0965 25.9971C51.2073 25.7954 51.2627 25.561 51.2627 25.294C51.2627 25.0241 51.2073 24.7911 51.0965 24.5951C50.9857 24.3962 50.8223 24.2428 50.6064 24.1349C50.3905 24.0269 50.1249 23.9729 49.8095 23.9729H48.7698V30.9999H46.6604ZM56.0993 31.1107C55.6817 31.1107 55.311 31.0411 54.9871 30.9019C54.6661 30.7599 54.4118 30.5468 54.2243 30.2627C54.0396 29.9758 53.9473 29.6164 53.9473 29.1846C53.9473 28.821 54.0112 28.5141 54.1391 28.2641C54.2669 28.0141 54.4431 27.811 54.6675 27.6548C54.8919 27.4985 55.1504 27.3806 55.4431 27.3011C55.7357 27.2187 56.0482 27.1633 56.3806 27.1349C56.7527 27.1008 57.0524 27.0653 57.2797 27.0283C57.507 26.9886 57.6717 26.9332 57.774 26.8622C57.8791 26.7883 57.9317 26.6846 57.9317 26.5511V26.5298C57.9317 26.311 57.8564 26.142 57.7058 26.0227C57.5553 25.9033 57.3521 25.8437 57.0965 25.8437C56.8209 25.8437 56.5993 25.9033 56.4317 26.0227C56.2641 26.142 56.1575 26.3068 56.1121 26.517L54.1902 26.4488C54.247 26.0511 54.3933 25.696 54.6291 25.3835C54.8678 25.0681 55.1945 24.821 55.6093 24.642C56.0269 24.4602 56.5283 24.3693 57.1135 24.3693C57.5311 24.3693 57.9161 24.419 58.2683 24.5184C58.6206 24.615 58.9274 24.757 59.1888 24.9445C59.4502 25.1292 59.6519 25.3565 59.7939 25.6264C59.9388 25.8962 60.0112 26.2045 60.0112 26.5511V30.9999H58.051V30.088H57.9999C57.8834 30.3096 57.7342 30.4971 57.5524 30.6505C57.3735 30.8039 57.1618 30.919 56.9175 30.9957C56.676 31.0724 56.4033 31.1107 56.0993 31.1107ZM56.7428 29.7471C56.9672 29.7471 57.1689 29.7016 57.3479 29.6107C57.5297 29.5198 57.6746 29.3948 57.7825 29.2357C57.8905 29.0738 57.9445 28.8863 57.9445 28.6732V28.0511C57.8848 28.0823 57.8124 28.1107 57.7271 28.1363C57.6448 28.1619 57.5539 28.186 57.4544 28.2087C57.355 28.2315 57.2527 28.2514 57.1476 28.2684C57.0425 28.2854 56.9416 28.3011 56.845 28.3153C56.649 28.3465 56.4814 28.3948 56.3422 28.4602C56.2058 28.5255 56.1007 28.6107 56.0269 28.7158C55.9558 28.8181 55.9203 28.9403 55.9203 29.0823C55.9203 29.2982 55.997 29.463 56.1504 29.5766C56.3067 29.6903 56.5041 29.7471 56.7428 29.7471ZM64.98 24.4545V25.9886H60.8507V24.4545H64.98ZM61.7158 22.8863H63.7996V28.9417C63.7996 29.0695 63.8195 29.1732 63.8592 29.2528C63.9019 29.3295 63.9629 29.3849 64.0425 29.419C64.122 29.4502 64.2172 29.4658 64.328 29.4658C64.4075 29.4658 64.4913 29.4587 64.5794 29.4445C64.6703 29.4275 64.7385 29.4133 64.784 29.4019L65.0993 30.9062C64.9999 30.9346 64.8592 30.9701 64.6774 31.0127C64.4985 31.0553 64.284 31.0823 64.034 31.0937C63.5453 31.1164 63.1263 31.0596 62.7769 30.9232C62.4303 30.784 62.1646 30.5681 61.98 30.2755C61.7982 29.9829 61.7101 29.615 61.7158 29.1718V22.8863ZM66.0432 30.9999V24.4545H68.0673V25.6477H68.1355C68.2548 25.2158 68.4494 24.8948 68.7193 24.6846C68.9892 24.4715 69.3031 24.365 69.6611 24.365C69.7577 24.365 69.8571 24.3721 69.9594 24.3863C70.0617 24.3977 70.1568 24.4161 70.2449 24.4417V26.2528C70.1455 26.2187 70.0148 26.1917 69.8529 26.1718C69.6938 26.1519 69.5517 26.142 69.4267 26.142C69.1796 26.142 68.9565 26.1974 68.7577 26.3082C68.5617 26.4161 68.4068 26.5681 68.2932 26.7641C68.1824 26.9573 68.127 27.1846 68.127 27.446V30.9999H66.0432ZM73.8138 31.1235C73.1291 31.1235 72.5382 30.9886 72.0411 30.7187C71.5467 30.446 71.1661 30.0582 70.899 29.5553C70.6348 29.0497 70.5027 28.4488 70.5027 27.7528C70.5027 27.0766 70.6362 26.4857 70.9033 25.9801C71.1703 25.4715 71.5467 25.0766 72.0325 24.7954C72.5183 24.5113 73.0908 24.3693 73.7499 24.3693C74.2158 24.3693 74.6419 24.4417 75.0283 24.5866C75.4146 24.7315 75.7484 24.946 76.0297 25.2301C76.3109 25.5141 76.5297 25.865 76.6859 26.2826C76.8422 26.6974 76.9203 27.1732 76.9203 27.7102V28.2301H71.2314V27.0198H74.9814C74.9786 26.7982 74.926 26.6008 74.8237 26.4275C74.7215 26.2542 74.5808 26.1193 74.4019 26.0227C74.2257 25.9232 74.0226 25.8735 73.7925 25.8735C73.5595 25.8735 73.3507 25.9261 73.1661 26.0312C72.9814 26.1335 72.8351 26.2741 72.7271 26.4531C72.6192 26.6292 72.5624 26.8295 72.5567 27.0539V28.2854C72.5567 28.5525 72.6092 28.7869 72.7144 28.9886C72.8195 29.1874 72.9686 29.3423 73.1618 29.4531C73.355 29.5639 73.5851 29.6193 73.8521 29.6193C74.0368 29.6193 74.2044 29.5937 74.355 29.5425C74.5056 29.4914 74.6348 29.4161 74.7428 29.3167C74.8507 29.2173 74.9317 29.0951 74.9857 28.9502L76.899 29.0056C76.8195 29.4346 76.6448 29.8082 76.3749 30.1264C76.1078 30.4417 75.757 30.6874 75.3223 30.8636C74.8877 31.0369 74.3848 31.1235 73.8138 31.1235ZM81.04 31.1235C80.3525 31.1235 79.7616 30.9829 79.2673 30.7016C78.7758 30.4175 78.3965 30.0227 78.1295 29.517C77.8653 29.0085 77.7332 28.419 77.7332 27.7485C77.7332 27.0752 77.8653 26.4857 78.1295 25.9801C78.3965 25.4715 78.7758 25.0766 79.2673 24.7954C79.7616 24.5113 80.3525 24.3693 81.04 24.3693C81.7275 24.3693 82.317 24.5113 82.8085 24.7954C83.3028 25.0766 83.682 25.4715 83.9462 25.9801C84.2133 26.4857 84.3468 27.0752 84.3468 27.7485C84.3468 28.419 84.2133 29.0085 83.9462 29.517C83.682 30.0227 83.3028 30.4175 82.8085 30.7016C82.317 30.9829 81.7275 31.1235 81.04 31.1235ZM81.0528 29.5511C81.3028 29.5511 81.5144 29.4744 81.6877 29.321C81.861 29.1675 81.9931 28.9545 82.084 28.6818C82.1778 28.409 82.2247 28.0937 82.2247 27.7357C82.2247 27.3721 82.1778 27.0539 82.084 26.7812C81.9931 26.5085 81.861 26.2954 81.6877 26.142C81.5144 25.9886 81.3028 25.9119 81.0528 25.9119C80.7943 25.9119 80.5755 25.9886 80.3965 26.142C80.2204 26.2954 80.0855 26.5085 79.9917 26.7812C79.9008 27.0539 79.8553 27.3721 79.8553 27.7357C79.8553 28.0937 79.9008 28.409 79.9917 28.6818C80.0855 28.9545 80.2204 29.1675 80.3965 29.321C80.5755 29.4744 80.7943 29.5511 81.0528 29.5511ZM87.4981 27.267V30.9999H85.4143V24.4545H87.3958V25.6562H87.4683C87.6131 25.2556 87.8603 24.9417 88.2097 24.7144C88.5592 24.4843 88.9754 24.3693 89.4583 24.3693C89.9185 24.3693 90.3177 24.4729 90.6558 24.6803C90.9967 24.8849 91.2609 25.1718 91.4484 25.5411C91.6387 25.9076 91.7325 26.3366 91.7296 26.8281V30.9999H89.6458V27.2372C89.6487 26.8735 89.5563 26.5894 89.3688 26.3849C89.1842 26.1803 88.9271 26.0781 88.5975 26.0781C88.3788 26.0781 88.1856 26.1264 88.018 26.2229C87.8532 26.3167 87.7254 26.4516 87.6345 26.6278C87.5464 26.8039 87.5009 27.017 87.4981 27.267Z" fill="#FF424E"/>
</g>
<rect x="0.749878" y="0.749939" width="132.5" height="38.5" rx="5.25" stroke="white" stroke-opacity="0.15" stroke-width="1.5"/>
<defs>
<filter id="filter0_d_18_3720" x="5.99988" y="1.99994" width="36" height="36" filterUnits="userSpaceOnUse" color-interpolation-filters="sRGB">
<feFlood flood-opacity="0" result="BackgroundImageFix"/>
<feColorMatrix in="SourceAlpha" type="matrix" values="0 0 0 0 0 0 0 0 0 0 0 0 0 0 0 0 0 0 127 0" result="hardAlpha"/>
<feOffset/>
<feGaussianBlur stdDeviation="2"/>
<feComposite in2="hardAlpha" operator="out"/>
<feColorMatrix type="matrix" values="0 0 0 0 0 0 0 0 0 0 0 0 0 0 0 0 0 0 0.25 0"/>
<feBlend mode="normal" in2="BackgroundImageFix" result="effect1_dropShadow_18_3720"/>
<feBlend mode="normal" in="SourceGraphic" in2="effect1_dropShadow_18_3720" result="shape"/>
</filter>
<filter id="filter1_d_18_3720" x="41.9999" y="2.99994" width="86" height="34" filterUnits="userSpaceOnUse" color-interpolation-filters="sRGB">
<feFlood flood-opacity="0" result="BackgroundImageFix"/>
<feColorMatrix in="SourceAlpha" type="matrix" values="0 0 0 0 0 0 0 0 0 0 0 0 0 0 0 0 0 0 127 0" result="hardAlpha"/>
<feOffset/>
<feGaussianBlur stdDeviation="2"/>
<feComposite in2="hardAlpha" operator="out"/>
<feColorMatrix type="matrix" values="0 0 0 0 0 0 0 0 0 0 0 0 0 0 0 0 0 0 0.25 0"/>
<feBlend mode="normal" in2="BackgroundImageFix" result="effect1_dropShadow_18_3720"/>
<feBlend mode="normal" in="SourceGraphic" in2="effect1_dropShadow_18_3720" result="shape"/>
</filter>
<linearGradient id="paint0_linear_18_3720" x1="66.9999" y1="-6.10351e-05" x2="66.9999" y2="39.9999" gradientUnits="userSpaceOnUse">
<stop stop-color="#340C0E"/>
<stop offset="1" stop-color="#210709"/>
</linearGradient>
</defs>
</svg>
