<svg width="130" height="40" viewBox="0 0 130 40" fill="none" xmlns="http://www.w3.org/2000/svg">
<rect x="-0.00012207" y="-6.10352e-05" width="130" height="40" rx="6" fill="url(#paint0_linear_18_3677)"/>
<g filter="url(#filter0_d_18_3677)">
<path d="M32.6724 14.9638L18.6024 30.2219H13.4418C13.0834 30.2219 12.7967 29.8658 12.8684 29.5096L16.3088 7.85479C16.3805 7.35616 16.8105 7 17.3123 7H26.0567C32.0775 7.2137 33.726 10.2767 32.6509 14.9781L32.6724 14.9638Z" fill="#0045D9"/>
<path d="M32.9017 13.5535C35.052 14.6932 35.5537 16.8302 34.837 19.6795C33.9052 23.8822 31.1098 25.6631 27.0243 25.7343L25.8775 25.8055C25.4474 25.8055 25.1607 26.0905 25.0891 26.5179L24.1573 32.1453C24.0856 32.6439 23.6555 33 23.1538 33H18.8533C18.4949 33 18.2082 32.6439 18.2799 32.2877L19.8567 22.1014C19.9284 21.7452 32.9017 13.5535 32.9017 13.5535Z" fill="#00A4EE"/>
<path d="M19.7708 22.6L21.2043 13.5534C21.2514 13.3391 21.3681 13.1463 21.5366 13.0046C21.705 12.863 21.9157 12.7805 22.1361 12.7698H29.017C30.6655 12.7698 31.884 13.0548 32.8875 13.5534C32.5291 16.6876 31.0239 21.7452 23.713 21.8876H20.5592C20.2009 21.8876 19.8425 22.1726 19.7708 22.6Z" fill="#002788"/>
</g>
<g filter="url(#filter1_d_18_3677)">
<path d="M51.2421 12.1015C51.2004 11.7317 51.0285 11.4452 50.7264 11.2421C50.4244 11.0364 50.0441 10.9335 49.5858 10.9335C49.2577 10.9335 48.9738 10.9856 48.7343 11.0898C48.4947 11.1913 48.3085 11.332 48.1757 11.5117C48.0455 11.6887 47.9803 11.8906 47.9803 12.1171C47.9803 12.3072 48.0246 12.4713 48.1132 12.6093C48.2043 12.7473 48.3228 12.8632 48.4686 12.957C48.6171 13.0481 48.7759 13.1249 48.9452 13.1874C49.1145 13.2473 49.2772 13.2968 49.4335 13.3359L50.2147 13.539C50.4699 13.6015 50.7316 13.6861 50.9999 13.7929C51.2681 13.8997 51.5168 14.0403 51.746 14.2148C51.9751 14.3893 52.16 14.6054 52.3007 14.8632C52.4439 15.121 52.5155 15.4296 52.5155 15.789C52.5155 16.2421 52.3983 16.6445 52.1639 16.996C51.9322 17.3476 51.5949 17.6249 51.1522 17.8281C50.7121 18.0312 50.1796 18.1327 49.5546 18.1327C48.9556 18.1327 48.4374 18.0377 47.9999 17.8476C47.5624 17.6575 47.2199 17.388 46.9725 17.039C46.7251 16.6874 46.5884 16.2708 46.5624 15.789H47.7733C47.7968 16.0781 47.8905 16.3189 48.0546 16.5117C48.2212 16.7018 48.4335 16.8437 48.6913 16.9374C48.9517 17.0286 49.2369 17.0742 49.5468 17.0742C49.8879 17.0742 50.1913 17.0208 50.4569 16.914C50.7251 16.8046 50.9361 16.6536 51.0897 16.4609C51.2434 16.2656 51.3202 16.0377 51.3202 15.7773C51.3202 15.5403 51.2525 15.3463 51.1171 15.1952C50.9843 15.0442 50.8033 14.9192 50.5741 14.8202C50.3475 14.7213 50.091 14.6341 49.8046 14.5585L48.8593 14.3007C48.2186 14.1262 47.7108 13.8697 47.3358 13.5312C46.9634 13.1926 46.7772 12.7447 46.7772 12.1874C46.7772 11.7265 46.9022 11.3242 47.1522 10.9804C47.4022 10.6367 47.7408 10.3697 48.1678 10.1796C48.5949 9.98692 49.0767 9.89056 49.6132 9.89056C50.1548 9.89056 50.6327 9.98561 51.0468 10.1757C51.4634 10.3658 51.7915 10.6275 52.0311 10.9609C52.2707 11.2916 52.3957 11.6718 52.4061 12.1015H51.2421ZM57.6649 15.5117V11.9999H58.8368V17.9999H57.6884V16.9609H57.6259C57.4878 17.2812 57.2665 17.5481 56.9618 17.7617C56.6597 17.9726 56.2834 18.0781 55.8329 18.0781C55.4475 18.0781 55.1063 17.9934 54.8094 17.8242C54.5152 17.6523 54.2834 17.3984 54.1141 17.0624C53.9475 16.7265 53.8641 16.3111 53.8641 15.8163V11.9999H55.0321V15.6757C55.0321 16.0846 55.1454 16.4101 55.3719 16.6523C55.5985 16.8945 55.8928 17.0156 56.2548 17.0156C56.4735 17.0156 56.691 16.9609 56.9071 16.8515C57.1259 16.7421 57.3068 16.5768 57.4501 16.3554C57.5959 16.1341 57.6675 15.8528 57.6649 15.5117ZM60.4061 20.2499V11.9999H61.5467V12.9726H61.6444C61.7121 12.8476 61.8098 12.7031 61.9374 12.539C62.065 12.3749 62.2421 12.2317 62.4686 12.1093C62.6952 11.9843 62.9947 11.9218 63.3671 11.9218C63.8514 11.9218 64.2837 12.0442 64.6639 12.289C65.0441 12.5338 65.3423 12.8867 65.5585 13.3476C65.7772 13.8085 65.8866 14.3632 65.8866 15.0117C65.8866 15.6601 65.7785 16.2161 65.5624 16.6796C65.3462 17.1406 65.0494 17.496 64.6717 17.746C64.2941 17.9934 63.8632 18.1171 63.3788 18.1171C63.0142 18.1171 62.716 18.0559 62.4842 17.9335C62.2551 17.8111 62.0754 17.6679 61.9452 17.5038C61.815 17.3398 61.7147 17.1939 61.6444 17.0663H61.5741V20.2499H60.4061ZM61.5507 14.9999C61.5507 15.4218 61.6119 15.7916 61.7342 16.1093C61.8566 16.427 62.0337 16.6757 62.2655 16.8554C62.4973 17.0325 62.7811 17.121 63.1171 17.121C63.466 17.121 63.7577 17.0286 63.9921 16.8437C64.2264 16.6562 64.4035 16.4023 64.5233 16.082C64.6457 15.7617 64.7069 15.401 64.7069 14.9999C64.7069 14.6041 64.647 14.2486 64.5272 13.9335C64.41 13.6184 64.2329 13.3697 63.996 13.1874C63.7616 13.0051 63.4686 12.914 63.1171 12.914C62.7785 12.914 62.4921 13.0012 62.2577 13.1757C62.0259 13.3502 61.8501 13.5937 61.7303 13.9062C61.6106 14.2187 61.5507 14.5833 61.5507 14.9999ZM67.1952 20.2499V11.9999H68.3358V12.9726H68.4335C68.5012 12.8476 68.5988 12.7031 68.7264 12.539C68.854 12.3749 69.0311 12.2317 69.2577 12.1093C69.4842 11.9843 69.7837 11.9218 70.1561 11.9218C70.6405 11.9218 71.0728 12.0442 71.453 12.289C71.8332 12.5338 72.1314 12.8867 72.3475 13.3476C72.5663 13.8085 72.6757 14.3632 72.6757 15.0117C72.6757 15.6601 72.5676 16.2161 72.3514 16.6796C72.1353 17.1406 71.8384 17.496 71.4608 17.746C71.0832 17.9934 70.6522 18.1171 70.1678 18.1171C69.8033 18.1171 69.5051 18.0559 69.2733 17.9335C69.0441 17.8111 68.8645 17.6679 68.7342 17.5038C68.604 17.3398 68.5038 17.1939 68.4335 17.0663H68.3632V20.2499H67.1952ZM68.3397 14.9999C68.3397 15.4218 68.4009 15.7916 68.5233 16.1093C68.6457 16.427 68.8228 16.6757 69.0546 16.8554C69.2863 17.0325 69.5702 17.121 69.9061 17.121C70.2551 17.121 70.5467 17.0286 70.7811 16.8437C71.0155 16.6562 71.1926 16.4023 71.3124 16.082C71.4348 15.7617 71.496 15.401 71.496 14.9999C71.496 14.6041 71.4361 14.2486 71.3163 13.9335C71.1991 13.6184 71.022 13.3697 70.785 13.1874C70.5507 13.0051 70.2577 12.914 69.9061 12.914C69.5676 12.914 69.2811 13.0012 69.0467 13.1757C68.815 13.3502 68.6392 13.5937 68.5194 13.9062C68.3996 14.2187 68.3397 14.5833 68.3397 14.9999ZM76.5116 18.121C75.9491 18.121 75.4582 17.9921 75.0389 17.7343C74.6197 17.4765 74.2941 17.1158 74.0624 16.6523C73.8306 16.1887 73.7147 15.6471 73.7147 15.0273C73.7147 14.4049 73.8306 13.8606 74.0624 13.3945C74.2941 12.9283 74.6197 12.5663 75.0389 12.3085C75.4582 12.0507 75.9491 11.9218 76.5116 11.9218C77.0741 11.9218 77.565 12.0507 77.9842 12.3085C78.4035 12.5663 78.729 12.9283 78.9608 13.3945C79.1926 13.8606 79.3085 14.4049 79.3085 15.0273C79.3085 15.6471 79.1926 16.1887 78.9608 16.6523C78.729 17.1158 78.4035 17.4765 77.9842 17.7343C77.565 17.9921 77.0741 18.121 76.5116 18.121ZM76.5155 17.1406C76.8801 17.1406 77.1822 17.0442 77.4217 16.8515C77.6613 16.6588 77.8384 16.4023 77.953 16.082C78.0702 15.7617 78.1288 15.4088 78.1288 15.0234C78.1288 14.6406 78.0702 14.289 77.953 13.9687C77.8384 13.6458 77.6613 13.3867 77.4217 13.1913C77.1822 12.996 76.8801 12.8984 76.5155 12.8984C76.1483 12.8984 75.8436 12.996 75.6014 13.1913C75.3618 13.3867 75.1835 13.6458 75.0663 13.9687C74.9517 14.289 74.8944 14.6406 74.8944 15.0234C74.8944 15.4088 74.9517 15.7617 75.0663 16.082C75.1835 16.4023 75.3618 16.6588 75.6014 16.8515C75.8436 17.0442 76.1483 17.1406 76.5155 17.1406ZM80.6122 17.9999V11.9999H81.7411V12.9531H81.8036C81.913 12.6301 82.1057 12.3762 82.3817 12.1913C82.6603 12.0038 82.9755 11.9101 83.327 11.9101C83.3999 11.9101 83.4859 11.9127 83.5848 11.9179C83.6864 11.9231 83.7658 11.9296 83.8231 11.9374V13.0546C83.7762 13.0416 83.6929 13.0273 83.5731 13.0117C83.4533 12.9934 83.3335 12.9843 83.2137 12.9843C82.9377 12.9843 82.6916 13.0429 82.4755 13.1601C82.2619 13.2747 82.0926 13.4348 81.9676 13.6406C81.8426 13.8437 81.7801 14.0755 81.7801 14.3359V17.9999H80.6122ZM87.9891 11.9999V12.9374H84.7118V11.9999H87.9891ZM85.5907 10.5624H86.7587V16.2382C86.7587 16.4648 86.7925 16.6354 86.8602 16.7499C86.9279 16.8619 87.0152 16.9387 87.1219 16.9804C87.2313 17.0195 87.3498 17.039 87.4774 17.039C87.5712 17.039 87.6532 17.0325 87.7235 17.0195C87.7938 17.0064 87.8485 16.996 87.8876 16.9882L88.0985 17.9531C88.0308 17.9791 87.9344 18.0051 87.8094 18.0312C87.6844 18.0598 87.5282 18.0755 87.3407 18.0781C87.0334 18.0833 86.7469 18.0286 86.4813 17.914C86.2157 17.7994 86.0008 17.6223 85.8368 17.3827C85.6727 17.1432 85.5907 16.8424 85.5907 16.4804V10.5624ZM95.993 15.5117V11.9999H97.1649V17.9999H96.0165V16.9609H95.954C95.8159 17.2812 95.5946 17.5481 95.2899 17.7617C94.9878 17.9726 94.6115 18.0781 94.161 18.0781C93.7756 18.0781 93.4344 17.9934 93.1376 17.8242C92.8433 17.6523 92.6115 17.3984 92.4422 17.0624C92.2756 16.7265 92.1922 16.3111 92.1922 15.8163V11.9999H93.3602V15.6757C93.3602 16.0846 93.4735 16.4101 93.7001 16.6523C93.9266 16.8945 94.2209 17.0156 94.5829 17.0156C94.8016 17.0156 95.0191 16.9609 95.2352 16.8515C95.454 16.7421 95.635 16.5768 95.7782 16.3554C95.924 16.1341 95.9956 15.8528 95.993 15.5117ZM103.23 13.4648L102.172 13.6523C102.127 13.5169 102.057 13.388 101.961 13.2656C101.867 13.1432 101.739 13.0429 101.578 12.9648C101.417 12.8867 101.215 12.8476 100.973 12.8476C100.642 12.8476 100.366 12.9218 100.144 13.0702C99.923 13.2161 99.8124 13.4049 99.8124 13.6367C99.8124 13.8372 99.8866 13.9986 100.035 14.121C100.183 14.2434 100.423 14.3437 100.754 14.4218L101.707 14.6406C102.259 14.7682 102.67 14.9648 102.941 15.2304C103.212 15.496 103.348 15.8411 103.348 16.2656C103.348 16.6249 103.243 16.9452 103.035 17.2265C102.829 17.5051 102.542 17.7239 102.172 17.8827C101.805 18.0416 101.379 18.121 100.894 18.121C100.223 18.121 99.6743 17.9778 99.2499 17.6913C98.8254 17.4023 98.565 16.9921 98.4686 16.4609L99.5975 16.289C99.6678 16.5833 99.8124 16.8059 100.031 16.957C100.25 17.1054 100.535 17.1796 100.887 17.1796C101.269 17.1796 101.575 17.1002 101.805 16.9413C102.034 16.7799 102.148 16.5833 102.148 16.3515C102.148 16.164 102.078 16.0064 101.937 15.8788C101.799 15.7512 101.587 15.6549 101.301 15.5898L100.285 15.3671C99.7251 15.2395 99.3111 15.0364 99.0428 14.7577C98.7772 14.4791 98.6444 14.1262 98.6444 13.6992C98.6444 13.345 98.7434 13.0351 98.9413 12.7695C99.1392 12.5038 99.4126 12.2968 99.7616 12.1484C100.111 11.9973 100.51 11.9218 100.961 11.9218C101.609 11.9218 102.12 12.0624 102.492 12.3437C102.864 12.6223 103.111 12.996 103.23 13.4648ZM110.07 18.121C109.508 18.121 109.017 17.9921 108.598 17.7343C108.178 17.4765 107.853 17.1158 107.621 16.6523C107.389 16.1887 107.273 15.6471 107.273 15.0273C107.273 14.4049 107.389 13.8606 107.621 13.3945C107.853 12.9283 108.178 12.5663 108.598 12.3085C109.017 12.0507 109.508 11.9218 110.07 11.9218C110.633 11.9218 111.124 12.0507 111.543 12.3085C111.962 12.5663 112.288 12.9283 112.519 13.3945C112.751 13.8606 112.867 14.4049 112.867 15.0273C112.867 15.6471 112.751 16.1887 112.519 16.6523C112.288 17.1158 111.962 17.4765 111.543 17.7343C111.124 17.9921 110.633 18.121 110.07 18.121ZM110.074 17.1406C110.439 17.1406 110.741 17.0442 110.98 16.8515C111.22 16.6588 111.397 16.4023 111.512 16.082C111.629 15.7617 111.687 15.4088 111.687 15.0234C111.687 14.6406 111.629 14.289 111.512 13.9687C111.397 13.6458 111.22 13.3867 110.98 13.1913C110.741 12.996 110.439 12.8984 110.074 12.8984C109.707 12.8984 109.402 12.996 109.16 13.1913C108.92 13.3867 108.742 13.6458 108.625 13.9687C108.51 14.289 108.453 14.6406 108.453 15.0234C108.453 15.4088 108.51 15.7617 108.625 16.082C108.742 16.4023 108.92 16.6588 109.16 16.8515C109.402 17.0442 109.707 17.1406 110.074 17.1406ZM115.339 14.4374V17.9999H114.171V11.9999H115.292V12.9765H115.366C115.504 12.6588 115.72 12.4036 116.015 12.2109C116.311 12.0182 116.685 11.9218 117.136 11.9218C117.544 11.9218 117.903 12.0078 118.21 12.1796C118.517 12.3489 118.755 12.6015 118.925 12.9374C119.094 13.2734 119.179 13.6887 119.179 14.1835V17.9999H118.011V14.3242C118.011 13.8893 117.897 13.5494 117.671 13.3046C117.444 13.0572 117.133 12.9335 116.737 12.9335C116.466 12.9335 116.225 12.9921 116.015 13.1093C115.806 13.2265 115.641 13.3984 115.518 13.6249C115.399 13.8489 115.339 14.1197 115.339 14.4374Z" fill="#E8E8E8"/>
<path d="M46.6604 30.9999V22.2727H50.2655C50.9189 22.2727 51.4828 22.4005 51.9573 22.6562C52.4345 22.909 52.8024 23.2627 53.061 23.7173C53.3195 24.169 53.4487 24.6945 53.4487 25.294C53.4487 25.8962 53.3166 26.4232 53.0524 26.8749C52.7911 27.3238 52.4175 27.6718 51.9317 27.919C51.4459 28.1661 50.8692 28.2897 50.2016 28.2897H47.9772V26.6278H49.8095C50.1277 26.6278 50.3933 26.5724 50.6064 26.4616C50.8223 26.3508 50.9857 26.196 51.0965 25.9971C51.2073 25.7954 51.2627 25.561 51.2627 25.294C51.2627 25.0241 51.2073 24.7911 51.0965 24.5951C50.9857 24.3962 50.8223 24.2428 50.6064 24.1349C50.3905 24.0269 50.1249 23.9729 49.8095 23.9729H48.7698V30.9999H46.6604ZM56.0993 31.1107C55.6817 31.1107 55.311 31.0411 54.9871 30.9019C54.6661 30.7599 54.4118 30.5468 54.2243 30.2627C54.0396 29.9758 53.9473 29.6164 53.9473 29.1846C53.9473 28.821 54.0112 28.5141 54.1391 28.2641C54.2669 28.0141 54.4431 27.811 54.6675 27.6548C54.8919 27.4985 55.1504 27.3806 55.4431 27.3011C55.7357 27.2187 56.0482 27.1633 56.3806 27.1349C56.7527 27.1008 57.0524 27.0653 57.2797 27.0283C57.507 26.9886 57.6717 26.9332 57.774 26.8622C57.8791 26.7883 57.9317 26.6846 57.9317 26.5511V26.5298C57.9317 26.311 57.8564 26.142 57.7058 26.0227C57.5553 25.9033 57.3521 25.8437 57.0965 25.8437C56.8209 25.8437 56.5993 25.9033 56.4317 26.0227C56.2641 26.142 56.1575 26.3068 56.1121 26.517L54.1902 26.4488C54.247 26.0511 54.3933 25.696 54.6291 25.3835C54.8678 25.0681 55.1945 24.821 55.6093 24.642C56.0269 24.4602 56.5283 24.3693 57.1135 24.3693C57.5311 24.3693 57.9161 24.419 58.2683 24.5184C58.6206 24.615 58.9274 24.757 59.1888 24.9445C59.4502 25.1292 59.6519 25.3565 59.7939 25.6264C59.9388 25.8962 60.0112 26.2045 60.0112 26.5511V30.9999H58.051V30.088H57.9999C57.8834 30.3096 57.7342 30.4971 57.5524 30.6505C57.3735 30.8039 57.1618 30.919 56.9175 30.9957C56.676 31.0724 56.4033 31.1107 56.0993 31.1107ZM56.7428 29.7471C56.9672 29.7471 57.1689 29.7016 57.3479 29.6107C57.5297 29.5198 57.6746 29.3948 57.7825 29.2357C57.8905 29.0738 57.9445 28.8863 57.9445 28.6732V28.0511C57.8848 28.0823 57.8124 28.1107 57.7271 28.1363C57.6448 28.1619 57.5539 28.186 57.4544 28.2087C57.355 28.2315 57.2527 28.2514 57.1476 28.2684C57.0425 28.2854 56.9416 28.3011 56.845 28.3153C56.649 28.3465 56.4814 28.3948 56.3422 28.4602C56.2058 28.5255 56.1007 28.6107 56.0269 28.7158C55.9558 28.8181 55.9203 28.9403 55.9203 29.0823C55.9203 29.2982 55.997 29.463 56.1504 29.5766C56.3067 29.6903 56.5041 29.7471 56.7428 29.7471ZM62.3252 33.4545C62.0752 33.4545 61.8394 33.4346 61.6178 33.3948C61.3962 33.3579 61.2058 33.3082 61.0467 33.2457L61.507 31.7329C61.7115 31.8011 61.8962 31.8408 62.061 31.8522C62.2286 31.8636 62.372 31.8366 62.4914 31.7712C62.6135 31.7087 62.7073 31.5965 62.7726 31.4346L62.8536 31.2386L60.5269 24.4545H62.7087L63.9146 29.1249H63.9828L65.2058 24.4545H67.4004L64.9331 31.6264C64.8138 31.9843 64.6448 32.2997 64.426 32.5724C64.2101 32.8479 63.9303 33.0639 63.5865 33.2201C63.2456 33.3764 62.8252 33.4545 62.3252 33.4545Z" fill="#0045D9"/>
<path d="M68.1994 30.9999V22.2727H71.8046C72.458 22.2727 73.0219 22.4005 73.4963 22.6562C73.9736 22.909 74.3415 23.2627 74.6 23.7173C74.8585 24.169 74.9878 24.6945 74.9878 25.294C74.9878 25.8962 74.8557 26.4232 74.5915 26.8749C74.3301 27.3238 73.9565 27.6718 73.4708 27.919C72.985 28.1661 72.4083 28.2897 71.7406 28.2897H69.5162V26.6278H71.3486C71.6668 26.6278 71.9324 26.5724 72.1455 26.4616C72.3614 26.3508 72.5247 26.196 72.6355 25.9971C72.7463 25.7954 72.8017 25.561 72.8017 25.294C72.8017 25.0241 72.7463 24.7911 72.6355 24.5951C72.5247 24.3962 72.3614 24.2428 72.1455 24.1349C71.9296 24.0269 71.6639 23.9729 71.3486 23.9729H70.3088V30.9999H68.1994ZM77.6384 31.1107C77.2207 31.1107 76.85 31.0411 76.5261 30.9019C76.2051 30.7599 75.9509 30.5468 75.7634 30.2627C75.5787 29.9758 75.4864 29.6164 75.4864 29.1846C75.4864 28.821 75.5503 28.5141 75.6781 28.2641C75.806 28.0141 75.9821 27.811 76.2065 27.6548C76.431 27.4985 76.6895 27.3806 76.9821 27.3011C77.2747 27.2187 77.5872 27.1633 77.9196 27.1349C78.2918 27.1008 78.5915 27.0653 78.8188 27.0283C79.046 26.9886 79.2108 26.9332 79.3131 26.8622C79.4182 26.7883 79.4707 26.6846 79.4707 26.5511V26.5298C79.4707 26.311 79.3955 26.142 79.2449 26.0227C79.0943 25.9033 78.8912 25.8437 78.6355 25.8437C78.36 25.8437 78.1384 25.9033 77.9707 26.0227C77.8031 26.142 77.6966 26.3068 77.6511 26.517L75.7293 26.4488C75.7861 26.0511 75.9324 25.696 76.1682 25.3835C76.4068 25.0681 76.7335 24.821 77.1483 24.642C77.5659 24.4602 78.0673 24.3693 78.6526 24.3693C79.0702 24.3693 79.4551 24.419 79.8074 24.5184C80.1597 24.615 80.4665 24.757 80.7279 24.9445C80.9892 25.1292 81.1909 25.3565 81.333 25.6264C81.4779 25.8962 81.5503 26.2045 81.5503 26.5511V30.9999H79.5901V30.088H79.5389C79.4225 30.3096 79.2733 30.4971 79.0915 30.6505C78.9125 30.8039 78.7009 30.919 78.4565 30.9957C78.2151 31.0724 77.9423 31.1107 77.6384 31.1107ZM78.2818 29.7471C78.5063 29.7471 78.708 29.7016 78.8869 29.6107C79.0688 29.5198 79.2136 29.3948 79.3216 29.2357C79.4296 29.0738 79.4835 28.8863 79.4835 28.6732V28.0511C79.4239 28.0823 79.3514 28.1107 79.2662 28.1363C79.1838 28.1619 79.0929 28.186 78.9935 28.2087C78.894 28.2315 78.7918 28.2514 78.6867 28.2684C78.5815 28.2854 78.4807 28.3011 78.3841 28.3153C78.1881 28.3465 78.0205 28.3948 77.8813 28.4602C77.7449 28.5255 77.6398 28.6107 77.5659 28.7158C77.4949 28.8181 77.4594 28.9403 77.4594 29.0823C77.4594 29.2982 77.5361 29.463 77.6895 29.5766C77.8457 29.6903 78.0432 29.7471 78.2818 29.7471ZM84.9082 22.2727V30.9999H82.8244V22.2727H84.9082Z" fill="#00A4EE"/>
</g>
<rect x="0.749878" y="0.749939" width="128.5" height="38.5" rx="5.25" stroke="white" stroke-opacity="0.15" stroke-width="1.5"/>
<defs>
<filter id="filter0_d_18_3677" x="5.99988" y="1.99994" width="36" height="36" filterUnits="userSpaceOnUse" color-interpolation-filters="sRGB">
<feFlood flood-opacity="0" result="BackgroundImageFix"/>
<feColorMatrix in="SourceAlpha" type="matrix" values="0 0 0 0 0 0 0 0 0 0 0 0 0 0 0 0 0 0 127 0" result="hardAlpha"/>
<feOffset/>
<feGaussianBlur stdDeviation="2"/>
<feComposite in2="hardAlpha" operator="out"/>
<feColorMatrix type="matrix" values="0 0 0 0 0 0 0 0 0 0 0 0 0 0 0 0 0 0 0.25 0"/>
<feBlend mode="normal" in2="BackgroundImageFix" result="effect1_dropShadow_18_3677"/>
<feBlend mode="normal" in="SourceGraphic" in2="effect1_dropShadow_18_3677" result="shape"/>
</filter>
<filter id="filter1_d_18_3677" x="41.9999" y="2.99994" width="82" height="34.4545" filterUnits="userSpaceOnUse" color-interpolation-filters="sRGB">
<feFlood flood-opacity="0" result="BackgroundImageFix"/>
<feColorMatrix in="SourceAlpha" type="matrix" values="0 0 0 0 0 0 0 0 0 0 0 0 0 0 0 0 0 0 127 0" result="hardAlpha"/>
<feOffset/>
<feGaussianBlur stdDeviation="2"/>
<feComposite in2="hardAlpha" operator="out"/>
<feColorMatrix type="matrix" values="0 0 0 0 0 0 0 0 0 0 0 0 0 0 0 0 0 0 0.25 0"/>
<feBlend mode="normal" in2="BackgroundImageFix" result="effect1_dropShadow_18_3677"/>
<feBlend mode="normal" in="SourceGraphic" in2="effect1_dropShadow_18_3677" result="shape"/>
</filter>
<linearGradient id="paint0_linear_18_3677" x1="64.9999" y1="-6.10351e-05" x2="64.9999" y2="39.9999" gradientUnits="userSpaceOnUse">
<stop stop-color="#001239"/>
<stop offset="1" stop-color="#001F2D"/>
</linearGradient>
</defs>
</svg>
