<svg width="148" height="40" viewBox="0 0 148 40" fill="none" xmlns="http://www.w3.org/2000/svg">
<rect y="-1.14441e-05" width="148" height="40" rx="6" fill="url(#paint0_linear_18_1673)"/>
<g filter="url(#filter0_d_18_1673)">
<path d="M35.3846 11.7143V32.4286C35.3846 32.9809 34.9369 33.4286 34.3846 33.4286H13.6154C13.0631 33.4286 12.6154 32.9809 12.6154 32.4286V7.57149C12.6154 7.0192 13.0631 6.57149 13.6154 6.57149H29.8462H34.3846C34.9369 6.57149 35.3846 7.0192 35.3846 7.57149V11.7143Z" fill="#F1F1F1"/>
<path d="M30.2231 15.1429H15.6231C15.2365 15.1429 14.9231 15.4563 14.9231 15.8429C14.9231 16.2295 15.2365 16.5429 15.6231 16.5429H30.2231C30.6097 16.5429 30.9231 16.2295 30.9231 15.8429C30.9231 15.4563 30.6097 15.1429 30.2231 15.1429Z" fill="#231F20"/>
<path d="M32.2231 18.5715H15.777C15.3904 18.5715 15.077 18.8849 15.077 19.2715C15.077 19.6581 15.3904 19.9715 15.777 19.9715H32.2231C32.6097 19.9715 32.9231 19.6581 32.9231 19.2715C32.9231 18.8849 32.6097 18.5715 32.2231 18.5715Z" fill="#231F20"/>
<path d="M32.2231 22H15.777C15.3904 22 15.077 22.3134 15.077 22.7C15.077 23.0866 15.3904 23.4 15.777 23.4H32.2231C32.6097 23.4 32.9231 23.0866 32.9231 22.7C32.9231 22.3134 32.6097 22 32.2231 22Z" fill="#231F20"/>
<path d="M32.2231 25.4286H15.777C15.3904 25.4286 15.077 25.742 15.077 26.1286C15.077 26.5152 15.3904 26.8286 15.777 26.8286H32.2231C32.6097 26.8286 32.9231 26.5152 32.9231 26.1286C32.9231 25.742 32.6097 25.4286 32.2231 25.4286Z" fill="#231F20"/>
<path d="M28.5308 28.8572H15.777C15.3904 28.8572 15.077 29.1706 15.077 29.5572C15.077 29.9438 15.3904 30.2572 15.777 30.2572H28.5308C28.9174 30.2572 29.2308 29.9438 29.2308 29.5572C29.2308 29.1706 28.9174 28.8572 28.5308 28.8572Z" fill="#231F20"/>
<path d="M32.2231 28.8572H31.4693C31.0827 28.8572 30.7693 29.1706 30.7693 29.5572C30.7693 29.9438 31.0827 30.2572 31.4693 30.2572H32.2231C32.6097 30.2572 32.9231 29.9438 32.9231 29.5572C32.9231 29.1706 32.6097 28.8572 32.2231 28.8572Z" fill="#231F20"/>
<path d="M18.0693 8.57149H15.777C15.3904 8.57149 15.077 8.88489 15.077 9.27149C15.077 9.65809 15.3904 9.97149 15.777 9.97149H18.0693C18.4559 9.97149 18.7693 9.65809 18.7693 9.27149C18.7693 8.88489 18.4559 8.57149 18.0693 8.57149Z" fill="#231F20"/>
<path d="M21.7616 10.5715H15.777C15.3904 10.5715 15.077 10.8849 15.077 11.2715C15.077 11.6581 15.3904 11.9715 15.777 11.9715H21.7616C22.1482 11.9715 22.4616 11.6581 22.4616 11.2715C22.4616 10.8849 22.1482 10.5715 21.7616 10.5715Z" fill="#231F20"/>
</g>
<g filter="url(#filter1_d_18_1673)">
<path d="M46.8789 18V9.99998H49.7305C50.3503 9.99998 50.8646 10.1068 51.2734 10.3203C51.6849 10.5338 51.9922 10.8294 52.1953 11.207C52.3984 11.582 52.5 12.0156 52.5 12.5078C52.5 12.9974 52.3971 13.4284 52.1914 13.8008C51.9883 14.1706 51.681 14.4583 51.2695 14.664C50.8607 14.8698 50.3464 14.9726 49.7266 14.9726H47.5664V13.9336H49.6172C50.0078 13.9336 50.3255 13.8776 50.5703 13.7656C50.8177 13.6536 50.9987 13.4909 51.1133 13.2773C51.2279 13.0638 51.2852 12.8073 51.2852 12.5078C51.2852 12.2057 51.2266 11.944 51.1094 11.7226C50.9948 11.5013 50.8138 11.332 50.5664 11.2148C50.3216 11.095 50 11.0351 49.6016 11.0351H48.0859V18H46.8789ZM50.8281 14.3906L52.8047 18H51.4297L49.4922 14.3906H50.8281ZM56.3857 18.1211C55.7946 18.1211 55.2855 17.9948 54.8584 17.7422C54.4339 17.487 54.1058 17.1289 53.874 16.668C53.6449 16.2044 53.5303 15.6614 53.5303 15.039C53.5303 14.4245 53.6449 13.8828 53.874 13.414C54.1058 12.9453 54.4287 12.5794 54.8428 12.3164C55.2594 12.0534 55.7464 11.9219 56.3037 11.9219C56.6422 11.9219 56.9704 11.9778 57.2881 12.0898C57.6058 12.2018 57.8909 12.3776 58.1436 12.6172C58.3962 12.8568 58.5954 13.168 58.7412 13.5508C58.887 13.931 58.96 14.3932 58.96 14.9375V15.3515H54.1904V14.4765H57.8154C57.8154 14.1693 57.7529 13.8971 57.6279 13.6601C57.5029 13.4206 57.3271 13.2318 57.1006 13.0937C56.8766 12.9557 56.6136 12.8867 56.3115 12.8867C55.9834 12.8867 55.6969 12.9674 55.4521 13.1289C55.21 13.2877 55.0225 13.4961 54.8896 13.7539C54.7594 14.0091 54.6943 14.2864 54.6943 14.5859V15.2695C54.6943 15.6706 54.7646 16.0117 54.9053 16.293C55.0485 16.5742 55.2477 16.789 55.5029 16.9375C55.7581 17.0833 56.0563 17.1562 56.3975 17.1562C56.6188 17.1562 56.8206 17.125 57.0029 17.0625C57.1852 16.9974 57.3428 16.901 57.4756 16.7734C57.6084 16.6458 57.71 16.4883 57.7803 16.3008L58.8857 16.5C58.7972 16.8255 58.6383 17.1107 58.4092 17.3555C58.1826 17.5976 57.8975 17.7864 57.5537 17.9219C57.2126 18.0547 56.8232 18.1211 56.3857 18.1211ZM62.0019 18.1328C61.6217 18.1328 61.278 18.0625 60.9707 17.9219C60.6634 17.7786 60.4199 17.5716 60.2402 17.3008C60.0631 17.0299 59.9746 16.6979 59.9746 16.3047C59.9746 15.9661 60.0397 15.6875 60.1699 15.4687C60.3001 15.25 60.4759 15.0768 60.6973 14.9492C60.9186 14.8216 61.166 14.7252 61.4394 14.6601C61.7129 14.595 61.9915 14.5456 62.2754 14.5117C62.6348 14.47 62.9264 14.4362 63.1504 14.4101C63.3743 14.3815 63.5371 14.3359 63.6387 14.2734C63.7402 14.2109 63.791 14.1094 63.791 13.9687V13.9414C63.791 13.6002 63.6947 13.3359 63.5019 13.1484C63.3118 12.9609 63.028 12.8672 62.6504 12.8672C62.2572 12.8672 61.9473 12.9544 61.7207 13.1289C61.4967 13.3008 61.3418 13.4922 61.2559 13.7031L60.1582 13.4531C60.2884 13.0885 60.4785 12.7943 60.7285 12.5703C60.9811 12.3437 61.2715 12.1797 61.5996 12.0781C61.9277 11.9739 62.2728 11.9219 62.6348 11.9219C62.8743 11.9219 63.1283 11.9505 63.3965 12.0078C63.6673 12.0625 63.9199 12.164 64.1543 12.3125C64.3913 12.4609 64.5853 12.6732 64.7363 12.9492C64.8874 13.2226 64.9629 13.5781 64.9629 14.0156V18H63.8223V17.1797H63.7754C63.6999 17.3307 63.5866 17.4791 63.4355 17.625C63.2845 17.7708 63.0905 17.8919 62.8535 17.9883C62.6165 18.0846 62.3327 18.1328 62.0019 18.1328ZM62.2559 17.1953C62.5788 17.1953 62.8548 17.1315 63.084 17.0039C63.3158 16.8763 63.4915 16.7096 63.6113 16.5039C63.7337 16.2956 63.7949 16.0729 63.7949 15.8359V15.0625C63.7533 15.1041 63.6725 15.1432 63.5527 15.1797C63.4355 15.2135 63.3014 15.2435 63.1504 15.2695C62.9993 15.293 62.8522 15.3151 62.709 15.3359C62.5658 15.3541 62.446 15.3698 62.3496 15.3828C62.123 15.4114 61.916 15.4596 61.7285 15.5273C61.5436 15.595 61.3952 15.6927 61.2832 15.8203C61.1738 15.9453 61.1191 16.112 61.1191 16.3203C61.1191 16.6094 61.2259 16.8281 61.4394 16.9765C61.653 17.1224 61.9251 17.1953 62.2559 17.1953ZM68.7646 18.1172C68.2803 18.1172 67.848 17.9935 67.4678 17.7461C67.0902 17.4961 66.7933 17.1406 66.5771 16.6797C66.3636 16.2161 66.2568 15.6601 66.2568 15.0117C66.2568 14.3633 66.3649 13.8086 66.581 13.3476C66.7998 12.8867 67.0993 12.5338 67.4795 12.289C67.8597 12.0443 68.2907 11.9219 68.7725 11.9219C69.1448 11.9219 69.4443 11.9844 69.6709 12.1094C69.9001 12.2318 70.0771 12.375 70.2021 12.539C70.3297 12.7031 70.4287 12.8476 70.499 12.9726H70.5693V9.99998H71.7373V18H70.5967V17.0664H70.499C70.4287 17.194 70.3271 17.3398 70.1943 17.5039C70.0641 17.668 69.8844 17.8112 69.6553 17.9336C69.4261 18.056 69.1292 18.1172 68.7646 18.1172ZM69.0225 17.1211C69.3584 17.1211 69.6422 17.0325 69.874 16.8555C70.1084 16.6758 70.2855 16.4271 70.4053 16.1094C70.5277 15.7916 70.5889 15.4219 70.5889 15C70.5889 14.5833 70.529 14.2187 70.4092 13.9062C70.2894 13.5937 70.1136 13.3502 69.8818 13.1758C69.6501 13.0013 69.3636 12.914 69.0225 12.914C68.6709 12.914 68.3779 13.0052 68.1435 13.1875C67.9092 13.3698 67.7321 13.6185 67.6123 13.9336C67.4951 14.2487 67.4365 14.6041 67.4365 15C67.4365 15.401 67.4964 15.7617 67.6162 16.082C67.736 16.4023 67.9131 16.6562 68.1475 16.8437C68.3844 17.0286 68.6761 17.1211 69.0225 17.1211ZM79.1162 12V12.9375H75.8389V12H79.1162ZM76.7178 10.5625H77.8857V16.2383C77.8857 16.4648 77.9196 16.6354 77.9873 16.75C78.055 16.862 78.1422 16.9388 78.249 16.9805C78.3584 17.0195 78.4769 17.039 78.6045 17.039C78.6982 17.039 78.7803 17.0325 78.8506 17.0195C78.9209 17.0065 78.9756 16.9961 79.0146 16.9883L79.2256 17.9531C79.1579 17.9791 79.0615 18.0052 78.9365 18.0312C78.8115 18.0599 78.6553 18.0755 78.4678 18.0781C78.1605 18.0833 77.874 18.0286 77.6084 17.914C77.3428 17.7995 77.1279 17.6224 76.9639 17.3828C76.7998 17.1432 76.7178 16.8424 76.7178 16.4805V10.5625ZM81.7051 14.4375V18H80.5371V9.99998H81.6894V12.9765H81.7637C81.9043 12.6536 82.1191 12.3971 82.4082 12.207C82.6973 12.0169 83.0749 11.9219 83.541 11.9219C83.9525 11.9219 84.3118 12.0065 84.6191 12.1758C84.929 12.345 85.1686 12.5976 85.3379 12.9336C85.5098 13.2669 85.5957 13.6836 85.5957 14.1836V18H84.4277V14.3242C84.4277 13.8841 84.3144 13.543 84.0879 13.3008C83.8613 13.056 83.5462 12.9336 83.1426 12.9336C82.8665 12.9336 82.6191 12.9922 82.4004 13.1094C82.1842 13.2265 82.0137 13.3984 81.8887 13.625C81.7663 13.8489 81.7051 14.1198 81.7051 14.4375ZM89.7402 18.1211C89.1491 18.1211 88.64 17.9948 88.2129 17.7422C87.7884 17.487 87.4603 17.1289 87.2285 16.668C86.9993 16.2044 86.8848 15.6614 86.8848 15.039C86.8848 14.4245 86.9993 13.8828 87.2285 13.414C87.4603 12.9453 87.7832 12.5794 88.1973 12.3164C88.6139 12.0534 89.1009 11.9219 89.6582 11.9219C89.9967 11.9219 90.3249 11.9778 90.6426 12.0898C90.9603 12.2018 91.2454 12.3776 91.498 12.6172C91.7506 12.8568 91.9499 13.168 92.0957 13.5508C92.2415 13.931 92.3144 14.3932 92.3144 14.9375V15.3515H87.5449V14.4765H91.1699C91.1699 14.1693 91.1074 13.8971 90.9824 13.6601C90.8574 13.4206 90.6816 13.2318 90.4551 13.0937C90.2311 12.9557 89.9681 12.8867 89.666 12.8867C89.3379 12.8867 89.0514 12.9674 88.8066 13.1289C88.5644 13.2877 88.3769 13.4961 88.2441 13.7539C88.1139 14.0091 88.0488 14.2864 88.0488 14.5859V15.2695C88.0488 15.6706 88.1191 16.0117 88.2598 16.293C88.403 16.5742 88.6022 16.789 88.8574 16.9375C89.1126 17.0833 89.4108 17.1562 89.7519 17.1562C89.9733 17.1562 90.1751 17.125 90.3574 17.0625C90.5397 16.9974 90.6973 16.901 90.8301 16.7734C90.9629 16.6458 91.0644 16.4883 91.1348 16.3008L92.2402 16.5C92.1517 16.8255 91.9928 17.1107 91.7637 17.3555C91.5371 17.5976 91.2519 17.7864 90.9082 17.9219C90.567 18.0547 90.1777 18.1211 89.7402 18.1211Z" fill="#E8E8E8"/>
<path d="M49.8864 31H46.6605V22.2727H49.8821C50.7713 22.2727 51.5369 22.4474 52.179 22.7969C52.8239 23.1434 53.321 23.6434 53.6705 24.2969C54.0199 24.9474 54.1946 25.7258 54.1946 26.6321C54.1946 27.5412 54.0199 28.3224 53.6705 28.9758C53.3239 29.6292 52.8281 30.1307 52.1832 30.4801C51.5384 30.8267 50.7727 31 49.8864 31ZM48.7699 29.2017H49.8054C50.294 29.2017 50.7074 29.1193 51.0455 28.9545C51.3864 28.7869 51.6435 28.5156 51.8168 28.1406C51.9929 27.7628 52.081 27.2599 52.081 26.6321C52.081 26.0042 51.9929 25.5042 51.8168 25.1321C51.6406 24.7571 51.3807 24.4872 51.0369 24.3224C50.696 24.1548 50.2756 24.071 49.7756 24.071H48.7699V29.2017ZM58.4815 31.1236C57.794 31.1236 57.2031 30.9829 56.7088 30.7017C56.2173 30.4176 55.8381 30.0227 55.571 29.517C55.3068 29.0085 55.1747 28.419 55.1747 27.7486C55.1747 27.0753 55.3068 26.4858 55.571 25.9801C55.8381 25.4716 56.2173 25.0767 56.7088 24.7954C57.2031 24.5113 57.794 24.3693 58.4815 24.3693C59.169 24.3693 59.7585 24.5113 60.25 24.7954C60.7443 25.0767 61.1236 25.4716 61.3878 25.9801C61.6548 26.4858 61.7883 27.0753 61.7883 27.7486C61.7883 28.419 61.6548 29.0085 61.3878 29.517C61.1236 30.0227 60.7443 30.4176 60.25 30.7017C59.7585 30.9829 59.169 31.1236 58.4815 31.1236ZM58.4943 29.5511C58.7443 29.5511 58.956 29.4744 59.1293 29.321C59.3026 29.1676 59.4347 28.9545 59.5256 28.6818C59.6193 28.4091 59.6662 28.0937 59.6662 27.7358C59.6662 27.3721 59.6193 27.054 59.5256 26.7812C59.4347 26.5085 59.3026 26.2954 59.1293 26.142C58.956 25.9886 58.7443 25.9119 58.4943 25.9119C58.2358 25.9119 58.017 25.9886 57.8381 26.142C57.6619 26.2954 57.527 26.5085 57.4332 26.7812C57.3423 27.054 57.2969 27.3721 57.2969 27.7358C57.2969 28.0937 57.3423 28.4091 57.4332 28.6818C57.527 28.9545 57.6619 29.1676 57.8381 29.321C58.017 29.4744 58.2358 29.5511 58.4943 29.5511ZM65.9112 31.1236C65.2209 31.1236 64.6285 30.9815 64.1342 30.6974C63.6428 30.4133 63.2649 30.0184 63.0007 29.5128C62.7365 29.0042 62.6044 28.4162 62.6044 27.7486C62.6044 27.0781 62.7365 26.49 63.0007 25.9844C63.2678 25.4758 63.647 25.0795 64.1385 24.7954C64.6328 24.5113 65.2223 24.3693 65.907 24.3693C66.5121 24.3693 67.0391 24.4787 67.4879 24.6974C67.9396 24.9162 68.2919 25.2258 68.5447 25.6264C68.8004 26.0241 68.9354 26.4915 68.9496 27.0284H67.0021C66.9624 26.6932 66.8487 26.4304 66.6612 26.24C66.4766 26.0497 66.2351 25.9545 65.9368 25.9545C65.6953 25.9545 65.4837 26.0227 65.3018 26.1591C65.12 26.2926 64.978 26.4915 64.8757 26.7557C64.7763 27.017 64.7266 27.3409 64.7266 27.7272C64.7266 28.1136 64.7763 28.4403 64.8757 28.7074C64.978 28.9716 65.12 29.1718 65.3018 29.3082C65.4837 29.4417 65.6953 29.5085 65.9368 29.5085C66.13 29.5085 66.3004 29.4673 66.4481 29.3849C66.5987 29.3025 66.7223 29.1818 66.8189 29.0227C66.9155 28.8608 66.9766 28.6647 67.0021 28.4346H68.9496C68.9297 28.9744 68.7947 29.446 68.5447 29.8494C68.2976 30.2528 67.9496 30.5667 67.5007 30.7912C67.0547 31.0128 66.5249 31.1236 65.9112 31.1236ZM74.239 28.1747V24.4545H76.3185V31H74.3327V29.7812H74.2646C74.1197 30.1818 73.8725 30.5 73.5231 30.7358C73.1765 30.9687 72.7574 31.0852 72.266 31.0852C71.8199 31.0852 71.4279 30.9829 71.0898 30.7784C70.7518 30.5738 70.489 30.2883 70.3015 29.9218C70.114 29.5525 70.0188 29.1207 70.016 28.6264V24.4545H72.0998V28.2173C72.1026 28.5724 72.1964 28.8522 72.381 29.0568C72.5657 29.2613 72.8171 29.3636 73.1353 29.3636C73.3427 29.3636 73.5288 29.3182 73.6935 29.2272C73.8611 29.1335 73.9932 28.9986 74.0898 28.8224C74.1893 28.6434 74.239 28.4275 74.239 28.1747ZM77.6449 31V24.4545H79.6264V25.6562H79.6989C79.8352 25.2585 80.0653 24.9446 80.3892 24.7145C80.7131 24.4844 81.0994 24.3693 81.5483 24.3693C82.0028 24.3693 82.392 24.4858 82.7159 24.7187C83.0398 24.9517 83.2457 25.2642 83.3338 25.6562H83.402C83.5241 25.267 83.7628 24.9559 84.1179 24.723C84.473 24.4872 84.892 24.3693 85.375 24.3693C85.9943 24.3693 86.4971 24.5682 86.8835 24.9659C87.2699 25.3608 87.4631 25.9034 87.4631 26.5937V31H85.3792V27.071C85.3792 26.7443 85.2954 26.4957 85.1278 26.3253C84.9602 26.152 84.7429 26.0653 84.4758 26.0653C84.1889 26.0653 83.9631 26.1591 83.7983 26.3466C83.6364 26.5312 83.5554 26.7798 83.5554 27.0923V31H81.5525V27.0497C81.5525 26.7457 81.4702 26.5057 81.3054 26.3295C81.1406 26.1534 80.9233 26.0653 80.6534 26.0653C80.4716 26.0653 80.3111 26.1094 80.1719 26.1974C80.0327 26.2826 79.9233 26.4048 79.8437 26.5639C79.767 26.723 79.7287 26.9105 79.7287 27.1264V31H77.6449ZM91.8139 31.1236C91.1292 31.1236 90.5383 30.9886 90.0412 30.7187C89.5469 30.446 89.1662 30.0582 88.8991 29.5554C88.6349 29.0497 88.5028 28.4488 88.5028 27.7528C88.5028 27.0767 88.6364 26.4858 88.9034 25.9801C89.1704 25.4716 89.5469 25.0767 90.0327 24.7954C90.5185 24.5113 91.0909 24.3693 91.75 24.3693C92.2159 24.3693 92.642 24.4417 93.0284 24.5866C93.4148 24.7315 93.7486 24.946 94.0298 25.2301C94.3111 25.5142 94.5298 25.865 94.6861 26.2826C94.8423 26.6974 94.9204 27.1733 94.9204 27.7102V28.2301H89.2315V27.0199H92.9815C92.9787 26.7983 92.9261 26.6008 92.8238 26.4275C92.7216 26.2542 92.581 26.1193 92.402 26.0227C92.2258 25.9233 92.0227 25.8736 91.7926 25.8736C91.5596 25.8736 91.3508 25.9261 91.1662 26.0312C90.9815 26.1335 90.8352 26.2741 90.7273 26.4531C90.6193 26.6292 90.5625 26.8295 90.5568 27.054V28.2855C90.5568 28.5525 90.6094 28.7869 90.7145 28.9886C90.8196 29.1875 90.9687 29.3423 91.1619 29.4531C91.3551 29.5639 91.5852 29.6193 91.8523 29.6193C92.0369 29.6193 92.2045 29.5937 92.3551 29.5426C92.5057 29.4915 92.6349 29.4162 92.7429 29.3167C92.8508 29.2173 92.9318 29.0951 92.9858 28.9503L94.8991 29.0057C94.8196 29.4346 94.6449 29.8082 94.375 30.1264C94.1079 30.4417 93.7571 30.6875 93.3224 30.8636C92.8878 31.0369 92.3849 31.1236 91.8139 31.1236ZM98.0685 27.267V31H95.9847V24.4545H97.9662V25.6562H98.0387C98.1836 25.2557 98.4307 24.9417 98.7802 24.7145C99.1296 24.4844 99.5458 24.3693 100.029 24.3693C100.489 24.3693 100.888 24.473 101.226 24.6804C101.567 24.8849 101.831 25.1719 102.019 25.5412C102.209 25.9076 102.303 26.3366 102.3 26.8281V31H100.216V27.2372C100.219 26.8736 100.127 26.5895 99.9393 26.3849C99.7546 26.1804 99.4975 26.0781 99.168 26.0781C98.9492 26.0781 98.756 26.1264 98.5884 26.223C98.4236 26.3167 98.2958 26.4517 98.2049 26.6278C98.1168 26.804 98.0714 27.017 98.0685 27.267ZM107.285 24.4545V25.9886H103.156V24.4545H107.285ZM104.021 22.8863H106.104V28.9417C106.104 29.0696 106.124 29.1733 106.164 29.2528C106.207 29.3295 106.268 29.3849 106.347 29.419C106.427 29.4503 106.522 29.4659 106.633 29.4659C106.712 29.4659 106.796 29.4588 106.884 29.4446C106.975 29.4275 107.043 29.4133 107.089 29.402L107.404 30.9062C107.305 30.9346 107.164 30.9701 106.982 31.0128C106.803 31.0554 106.589 31.0824 106.339 31.0937C105.85 31.1165 105.431 31.0596 105.082 30.9233C104.735 30.7841 104.469 30.5682 104.285 30.2755C104.103 29.9829 104.015 29.615 104.021 29.1718V22.8863ZM110.193 31.1108C109.776 31.1108 109.405 31.0412 109.081 30.902C108.76 30.7599 108.506 30.5468 108.318 30.2628C108.134 29.9758 108.041 29.6165 108.041 29.1846C108.041 28.821 108.105 28.5142 108.233 28.2642C108.361 28.0142 108.537 27.8111 108.761 27.6548C108.986 27.4986 109.244 27.3807 109.537 27.3011C109.83 27.2187 110.142 27.1633 110.474 27.1349C110.847 27.1008 111.146 27.0653 111.374 27.0284C111.601 26.9886 111.766 26.9332 111.868 26.8622C111.973 26.7883 112.026 26.6846 112.026 26.5511V26.5298C112.026 26.3111 111.95 26.142 111.8 26.0227C111.649 25.9034 111.446 25.8437 111.19 25.8437C110.915 25.8437 110.693 25.9034 110.526 26.0227C110.358 26.142 110.251 26.3068 110.206 26.517L108.284 26.4488C108.341 26.0511 108.487 25.696 108.723 25.3835C108.962 25.0682 109.288 24.821 109.703 24.642C110.121 24.4602 110.622 24.3693 111.207 24.3693C111.625 24.3693 112.01 24.419 112.362 24.5184C112.714 24.615 113.021 24.7571 113.283 24.9446C113.544 25.1292 113.746 25.3565 113.888 25.6264C114.033 25.8963 114.105 26.2045 114.105 26.5511V31H112.145V30.088H112.094C111.977 30.3096 111.828 30.4971 111.646 30.6505C111.467 30.804 111.256 30.919 111.011 30.9957C110.77 31.0724 110.497 31.1108 110.193 31.1108ZM110.837 29.7471C111.061 29.7471 111.263 29.7017 111.442 29.6108C111.624 29.5199 111.768 29.3949 111.876 29.2358C111.984 29.0738 112.038 28.8863 112.038 28.6733V28.0511C111.979 28.0824 111.906 28.1108 111.821 28.1363C111.739 28.1619 111.648 28.1861 111.548 28.2088C111.449 28.2315 111.347 28.2514 111.241 28.2684C111.136 28.2855 111.035 28.3011 110.939 28.3153C110.743 28.3466 110.575 28.3949 110.436 28.4602C110.3 28.5255 110.195 28.6108 110.121 28.7159C110.05 28.8182 110.014 28.9403 110.014 29.0824C110.014 29.2983 110.091 29.463 110.244 29.5767C110.401 29.6903 110.598 29.7471 110.837 29.7471ZM119.074 24.4545V25.9886H114.945V24.4545H119.074ZM115.81 22.8863H117.893V28.9417C117.893 29.0696 117.913 29.1733 117.953 29.2528C117.996 29.3295 118.057 29.3849 118.136 29.419C118.216 29.4503 118.311 29.4659 118.422 29.4659C118.501 29.4659 118.585 29.4588 118.673 29.4446C118.764 29.4275 118.832 29.4133 118.878 29.402L119.193 30.9062C119.094 30.9346 118.953 30.9701 118.771 31.0128C118.592 31.0554 118.378 31.0824 118.128 31.0937C117.639 31.1165 117.22 31.0596 116.871 30.9233C116.524 30.7841 116.259 30.5682 116.074 30.2755C115.892 29.9829 115.804 29.615 115.81 29.1718V22.8863ZM120.137 31V24.4545H122.221V31H120.137ZM121.181 23.6917C120.888 23.6917 120.637 23.5951 120.427 23.402C120.217 23.2059 120.111 22.9701 120.111 22.6946C120.111 22.4219 120.217 22.1889 120.427 21.9957C120.637 21.7997 120.888 21.7017 121.181 21.7017C121.477 21.7017 121.728 21.7997 121.935 21.9957C122.146 22.1889 122.251 22.4219 122.251 22.6946C122.251 22.9701 122.146 23.2059 121.935 23.402C121.728 23.5951 121.477 23.6917 121.181 23.6917ZM126.603 31.1236C125.915 31.1236 125.324 30.9829 124.83 30.7017C124.338 30.4176 123.959 30.0227 123.692 29.517C123.428 29.0085 123.296 28.419 123.296 27.7486C123.296 27.0753 123.428 26.4858 123.692 25.9801C123.959 25.4716 124.338 25.0767 124.83 24.7954C125.324 24.5113 125.915 24.3693 126.603 24.3693C127.29 24.3693 127.88 24.5113 128.371 24.7954C128.865 25.0767 129.245 25.4716 129.509 25.9801C129.776 26.4858 129.909 27.0753 129.909 27.7486C129.909 28.419 129.776 29.0085 129.509 29.517C129.245 30.0227 128.865 30.4176 128.371 30.7017C127.88 30.9829 127.29 31.1236 126.603 31.1236ZM126.615 29.5511C126.865 29.5511 127.077 29.4744 127.25 29.321C127.424 29.1676 127.556 28.9545 127.647 28.6818C127.74 28.4091 127.787 28.0937 127.787 27.7358C127.787 27.3721 127.74 27.054 127.647 26.7812C127.556 26.5085 127.424 26.2954 127.25 26.142C127.077 25.9886 126.865 25.9119 126.615 25.9119C126.357 25.9119 126.138 25.9886 125.959 26.142C125.783 26.2954 125.648 26.5085 125.554 26.7812C125.463 27.054 125.418 27.3721 125.418 27.7358C125.418 28.0937 125.463 28.4091 125.554 28.6818C125.648 28.9545 125.783 29.1676 125.959 29.321C126.138 29.4744 126.357 29.5511 126.615 29.5511ZM133.061 27.267V31H130.977V24.4545H132.958V25.6562H133.031C133.176 25.2557 133.423 24.9417 133.772 24.7145C134.122 24.4844 134.538 24.3693 135.021 24.3693C135.481 24.3693 135.88 24.473 136.218 24.6804C136.559 24.8849 136.823 25.1719 137.011 25.5412C137.201 25.9076 137.295 26.3366 137.292 26.8281V31H135.208V27.2372C135.211 26.8736 135.119 26.5895 134.931 26.3849C134.747 26.1804 134.49 26.0781 134.16 26.0781C133.941 26.0781 133.748 26.1264 133.581 26.223C133.416 26.3167 133.288 26.4517 133.197 26.6278C133.109 26.804 133.064 27.017 133.061 27.267Z" fill="#F1F1F1"/>
</g>
<rect x="0.75" y="0.749989" width="146.5" height="38.5" rx="5.25" stroke="white" stroke-opacity="0.15" stroke-width="1.5"/>
<defs>
<filter id="filter0_d_18_1673" x="6" y="1.99998" width="36" height="36" filterUnits="userSpaceOnUse" color-interpolation-filters="sRGB">
<feFlood flood-opacity="0" result="BackgroundImageFix"/>
<feColorMatrix in="SourceAlpha" type="matrix" values="0 0 0 0 0 0 0 0 0 0 0 0 0 0 0 0 0 0 127 0" result="hardAlpha"/>
<feOffset/>
<feGaussianBlur stdDeviation="2"/>
<feComposite in2="hardAlpha" operator="out"/>
<feColorMatrix type="matrix" values="0 0 0 0 0 0 0 0 0 0 0 0 0 0 0 0 0 0 0.25 0"/>
<feBlend mode="normal" in2="BackgroundImageFix" result="effect1_dropShadow_18_1673"/>
<feBlend mode="normal" in="SourceGraphic" in2="effect1_dropShadow_18_1673" result="shape"/>
</filter>
<filter id="filter1_d_18_1673" x="42" y="2.99998" width="100" height="34" filterUnits="userSpaceOnUse" color-interpolation-filters="sRGB">
<feFlood flood-opacity="0" result="BackgroundImageFix"/>
<feColorMatrix in="SourceAlpha" type="matrix" values="0 0 0 0 0 0 0 0 0 0 0 0 0 0 0 0 0 0 127 0" result="hardAlpha"/>
<feOffset/>
<feGaussianBlur stdDeviation="2"/>
<feComposite in2="hardAlpha" operator="out"/>
<feColorMatrix type="matrix" values="0 0 0 0 0 0 0 0 0 0 0 0 0 0 0 0 0 0 0.25 0"/>
<feBlend mode="normal" in2="BackgroundImageFix" result="effect1_dropShadow_18_1673"/>
<feBlend mode="normal" in="SourceGraphic" in2="effect1_dropShadow_18_1673" result="shape"/>
</filter>
<linearGradient id="paint0_linear_18_1673" x1="74" y1="-1.14441e-05" x2="74" y2="40" gradientUnits="userSpaceOnUse">
<stop stop-color="#3E3E3E"/>
<stop offset="1" stop-color="#282828"/>
</linearGradient>
</defs>
</svg>
