<svg width="57" height="56" viewBox="0 0 57 56" fill="none" xmlns="http://www.w3.org/2000/svg">
<rect x="0.0107422" y="-0.000244141" width="56" height="56" rx="8" fill="url(#paint0_linear_8_113)"/>
<rect x="1.06074" y="1.04976" width="53.9" height="53.9" rx="6.95" stroke="white" stroke-opacity="0.15" stroke-width="2.1"/>
<g filter="url(#filter0_d_8_113)">
<path d="M43.0371 26.1997C42.859 26.1891 42.6813 26.2266 42.5225 26.3082C42.3637 26.3898 42.2296 26.5125 42.1342 26.6636C41.7746 26.4374 40.799 25.962 40.4203 25.7665L40.2825 25.6974C40.2717 25.6928 40.2599 25.6904 40.2481 25.6904C40.2363 25.6904 40.2246 25.6928 40.2137 25.6974V25.6744C40.2157 25.6464 40.2157 25.6182 40.2137 25.5901C40.5963 17.6997 32.6271 11.5691 24.9105 13.9423C23.0641 14.5309 21.3856 15.5551 20.0162 16.9288C18.6468 18.3025 17.6264 19.9856 17.0409 21.8366C16.7263 22.9851 16.5592 24.1691 16.5435 25.36L16.2528 25.4751L16.0423 25.5633C15.6598 25.7319 15.2772 25.9121 14.8946 26.1077C14.512 26.3032 14.1295 26.4911 13.7813 26.7326C13.7569 26.7478 13.7388 26.7713 13.7303 26.7988C13.7219 26.8263 13.7237 26.8559 13.7354 26.8822C13.7494 26.9099 13.7734 26.9312 13.8025 26.9419C13.8316 26.9526 13.8637 26.9518 13.8923 26.9397C14.2748 26.7633 14.6574 26.6061 15.04 26.4604C15.4226 26.3147 15.8243 26.1844 16.2222 26.077H16.2451C16.4364 26.0195 16.6277 25.9697 16.8228 25.9198L17.1212 25.8508H17.1557L17.4235 25.7933C17.8252 25.7051 18.2307 25.6514 18.6362 25.6016H18.6821C18.7395 25.5932 18.7945 25.5729 18.8437 25.542C18.8928 25.5111 18.9349 25.4702 18.9674 25.4221C18.9999 25.3739 19.0219 25.3195 19.0322 25.2623C19.0425 25.2051 19.0408 25.1464 19.0272 25.0899C19.0136 25.0334 18.9883 24.9804 18.9531 24.9342C18.9179 24.888 18.8734 24.8497 18.8226 24.8218C18.7718 24.7938 18.7157 24.7767 18.6579 24.7717C18.6001 24.7667 18.5419 24.7738 18.487 24.7926C18.1044 24.8846 17.7219 24.9843 17.3737 25.1032L17.4464 25.0802C17.4685 24.0187 17.6214 22.964 17.9017 21.9401C18.4442 20.2321 19.3874 18.6793 20.6521 17.4118C21.9168 16.1443 23.4663 15.1991 25.1707 14.6555C25.4771 14.5621 25.7873 14.4815 26.1003 14.4139C26.4026 14.3487 27.6115 14.1762 26.2916 14.9162C24.098 16.1801 22.4591 18.2249 21.7007 20.6442C21.3181 21.8826 21.1689 24.3249 21.4367 26.1997C21.5209 26.7863 21.3219 26.9013 20.9585 27.0547C20.1933 27.3806 18.8543 27.971 18.1657 28.8068C17.8979 29.1289 17.7831 28.8068 17.718 28.5768C17.5841 27.9456 17.5022 27.3044 17.4732 26.6598C17.4718 26.632 17.4642 26.6049 17.4511 26.5804C17.438 26.5559 17.4196 26.5347 17.3973 26.5182C17.3749 26.5017 17.3492 26.4903 17.322 26.485C17.2948 26.4796 17.2667 26.4804 17.2398 26.4873C17.0524 26.5333 16.8572 26.5793 16.6813 26.6406C16.6433 26.6537 16.6106 26.6787 16.5879 26.7118C16.5652 26.7449 16.5536 26.7845 16.555 26.8246C16.6621 29.2899 17.2857 31.5827 18.7778 31.5098C18.8062 31.5077 18.8339 31.4996 18.8589 31.4858C18.8839 31.4721 18.9057 31.4531 18.9227 31.4302C18.9398 31.4073 18.9517 31.381 18.9577 31.353C18.9638 31.3251 18.9637 31.2962 18.9576 31.2683C18.7243 31.1421 18.5418 30.9389 18.4411 30.6932C17.9476 29.2132 22.5232 27.2771 28.3882 26.3991C33.7749 25.5901 38.4003 25.9582 39.2037 27.1889C39.3697 27.3997 39.3881 27.6911 39.2496 27.9212C38.9111 28.5304 38.4051 29.0294 37.792 29.3589C37.7663 29.3745 37.744 29.3952 37.7266 29.4197C37.7091 29.4442 37.6968 29.472 37.6904 29.5014C37.6839 29.5307 37.6835 29.5611 37.6891 29.5907C37.6948 29.6203 37.7063 29.6484 37.7231 29.6733C37.7523 29.7191 37.7975 29.7523 37.8499 29.7665C37.9022 29.7807 37.9579 29.7748 38.0062 29.75C38.7566 29.3822 39.3821 28.8007 39.8043 28.0784C40.0422 27.5362 40.1721 26.9528 40.1869 26.3607C40.5695 26.4796 41.5795 26.886 41.9659 27.0432H41.9965C41.9804 27.1073 41.9702 27.1727 41.9659 27.2387C41.9548 27.5225 42.0525 27.7997 42.2389 28.0136C42.4252 28.2274 42.6862 28.3617 42.9683 28.3889C43.101 28.3951 43.2337 28.3748 43.3586 28.3293C43.4836 28.2838 43.5983 28.2139 43.6961 28.1237C43.7939 28.0335 43.8729 27.9248 43.9286 27.8038C43.9842 27.6829 44.0154 27.552 44.0203 27.4189C44.0387 27.1345 43.9467 26.854 43.7634 26.6361C43.5802 26.4181 43.3199 26.2796 43.0371 26.2495V26.1997ZM35.4927 23.7076C35.4954 23.7805 35.483 23.8531 35.4562 23.921C35.4294 23.9888 35.3887 24.0502 35.3369 24.1015C35.2851 24.1527 35.2232 24.1925 35.1552 24.2184C35.0871 24.2444 35.0144 24.2558 34.9417 24.252C33.6545 24.1524 32.3606 24.1755 31.0777 24.321C31.0041 24.327 30.9301 24.3173 30.8605 24.2927C30.7909 24.268 30.7273 24.2288 30.6738 24.1778C30.6203 24.1267 30.5783 24.065 30.5503 23.9965C30.5223 23.928 30.5091 23.8544 30.5115 23.7804V23.328C30.5119 23.2726 30.531 23.2189 30.5657 23.1757C30.6005 23.1325 30.6488 23.1024 30.7028 23.0903C32.2213 22.8364 33.7697 22.8183 35.2937 23.0366C35.3484 23.0459 35.3979 23.0746 35.4331 23.1176C35.4683 23.1606 35.4867 23.2149 35.485 23.2705L35.4927 23.7076ZM38.1937 22.4232C38.1686 22.462 38.1308 22.4909 38.0869 22.5048C38.0429 22.5188 37.9955 22.5171 37.9526 22.4999C34.6166 21.2308 29.4097 21.9478 29.4097 21.9478C27.6238 22.1258 25.8678 22.5303 24.1836 23.1516C24.0931 23.1864 23.9955 23.1982 23.8994 23.186C23.8032 23.1739 23.7116 23.1382 23.6325 23.0821C23.5534 23.026 23.4894 22.9512 23.446 22.8643C23.4027 22.7775 23.3814 22.6813 23.384 22.5842C23.3975 22.1253 23.4435 21.6679 23.5218 21.2155C23.6908 19.9777 24.189 18.8084 24.9641 17.83C25.01 17.7763 25.0559 17.7227 25.1056 17.6728C25.1137 17.6584 25.124 17.6455 25.1362 17.6345L25.1592 17.6077L25.2166 17.5463L25.2434 17.5195C27.5121 15.1424 31.5024 14.8702 34.3028 16.4191C35.7032 17.2091 36.864 18.3644 37.6619 19.7624C37.7843 19.9924 38.5571 21.7829 38.1937 22.4232Z" fill="#0C9EF0"/>
<path d="M36.4188 19.448C35.786 18.3665 34.821 17.5191 33.668 17.0326C32.3822 16.4904 30.9821 16.2769 29.5935 16.4115C29.1004 16.4503 28.615 16.5574 28.1512 16.7297C28.1064 16.7426 28.0676 16.7712 28.042 16.8103C28.0164 16.8494 28.0057 16.8964 28.0117 16.9428C28.0177 16.9892 28.0401 17.0319 28.0748 17.0631C28.1096 17.0944 28.1543 17.1121 28.201 17.1131C29.2471 17.0024 30.3032 17.0308 31.3419 17.1974C35.1677 17.9642 36.392 19.8084 36.5259 19.8813C36.5641 19.9004 36.61 19.8621 36.5909 19.8238C36.5415 19.6931 36.4853 19.5651 36.4226 19.4403M19.3098 26.1384C19.3423 26.1841 19.3843 26.2222 19.433 26.2499C19.4818 26.2775 19.5359 26.2941 19.5918 26.2985C19.6476 26.3029 19.7037 26.295 19.7561 26.2752C19.8085 26.2555 19.856 26.2245 19.8952 26.1844C20.0225 26.056 20.1158 25.8979 20.1668 25.7243C20.2841 25.2786 20.2559 24.8071 20.0865 24.3786C19.9774 24.1051 19.7792 23.8767 19.5241 23.7306C19.501 23.716 19.4752 23.7061 19.4483 23.7015C19.4214 23.6969 19.3938 23.6976 19.3672 23.7038C19.2103 23.7564 19.0755 23.8604 18.9846 23.999C18.9734 24.0132 18.9652 24.0296 18.9608 24.0471C18.9564 24.0647 18.9559 24.083 18.9591 24.1008C18.9624 24.1186 18.9694 24.1355 18.9798 24.1504C18.9901 24.1652 19.0035 24.1777 19.0191 24.1869C19.1725 24.268 19.3056 24.383 19.4083 24.5231C19.511 24.6632 19.5807 24.8249 19.6121 24.9959C19.6339 25.171 19.6182 25.3488 19.5661 25.5173C19.514 25.6859 19.4266 25.8414 19.3098 25.9735C19.2902 25.9965 19.2794 26.0257 19.2794 26.056C19.2794 26.0862 19.2902 26.1154 19.3098 26.1384ZM12.1556 26.6982C11.9921 26.6846 11.8276 26.7036 11.6715 26.7542C11.5154 26.8048 11.3709 26.886 11.2463 26.993C11.1218 27.0999 11.0197 27.2306 10.9459 27.3775C10.8721 27.5243 10.8282 27.6844 10.8166 27.8484C10.8112 28.1919 10.9389 28.5241 11.173 28.7751C11.407 29.0261 11.7291 29.1763 12.0714 29.1941C12.3955 29.2175 12.7157 29.1125 12.9633 28.9017C13.2108 28.6909 13.3659 28.3911 13.3952 28.0669C13.4088 27.7215 13.2865 27.3845 13.0547 27.1285C12.8228 26.8725 12.5 26.718 12.1556 26.6982Z" fill="#0C9EF0"/>
<path d="M47.9992 28.0401C48 18.6689 41.5191 10.5493 32.3965 8.49115C23.2732 6.43304 13.9459 10.9871 9.93991 19.4545C5.93393 27.922 8.31892 38.0411 15.6828 43.8171L16.0654 44.12C16.1955 44.2197 16.3294 44.3155 16.448 44.4114C18.503 45.8686 20.8151 46.9224 23.2617 47.5169H23.3191L23.6596 47.5974L23.7629 47.6166L24.0842 47.6856L24.2105 47.7086L24.5242 47.7661L24.6466 47.7891C24.8532 47.8225 25.0598 47.8532 25.2664 47.8811L25.3888 47.9003L25.6222 47.9272L25.8594 47.954L26.0813 47.977L26.3376 48H29.4939L29.712 47.9808L29.9913 47.9578L30.2208 47.931L30.4886 47.9003L30.722 47.8696L30.9783 47.8313L31.2155 47.793L31.4642 47.7546L31.7052 47.7086L31.9501 47.6626L32.1911 47.6089L32.4283 47.5591L32.6693 47.5016L32.9027 47.4441L33.1973 47.4019L33.4192 47.3405L33.6678 47.2715L33.8859 47.2064L34.1308 47.1258C34.2034 47.1067 34.275 47.0837 34.345 47.0568L34.5937 46.9725L34.8003 46.8996L35.0489 46.8076L35.2479 46.7309L35.4927 46.6351L35.684 46.5584L35.9365 46.4511L36.124 46.3705L36.3765 46.2555L36.5563 46.1712L36.8088 46.0485L36.981 45.9603L37.2335 45.8338L37.4018 45.7418C37.4898 45.6996 37.574 45.6536 37.6543 45.6076L37.8188 45.5156L38.0713 45.3699L38.2244 45.2778L38.4807 45.1245L38.6261 45.0325L38.8824 44.8714L39.0201 44.7794L39.2764 44.6069L39.4065 44.5187L39.6667 44.3347L39.7853 44.2465L40.0493 44.051L40.1564 43.9704L40.4242 43.7634L40.5198 43.6829L40.7915 43.4644L40.8718 43.3915L41.1511 43.1576L41.2161 43.1001L41.5031 42.8394L41.5451 42.8049L41.8474 42.5173C43.7988 40.6494 45.3513 38.4036 46.4107 35.9164C47.4702 33.4291 48.0145 30.7521 48.0107 28.0477M34.0963 34.7496C34.0695 34.5272 34.0428 34.301 34.0083 34.0787C33.9739 33.8563 33.9433 33.6339 33.9012 33.4154C33.8591 33.1968 33.8247 32.9745 33.7826 32.7559C33.7405 32.5374 33.687 32.315 33.6334 32.1156C33.6178 32.0429 33.6298 31.967 33.6671 31.9027C33.7043 31.8384 33.7641 31.7903 33.8348 31.7678C33.9056 31.7453 33.9821 31.75 34.0496 31.781C34.117 31.812 34.1705 31.867 34.1996 31.9354C34.2838 32.1731 34.3412 32.3879 34.4024 32.6179C34.4636 32.8479 34.5172 33.0665 34.5669 33.2927C34.6625 33.7489 34.7391 34.2013 34.8117 34.6576C34.9036 35.2557 34.9648 35.8576 35.0145 36.4558C35.3971 36.4749 35.8065 36.5018 36.2005 36.5401C37.2691 36.65 38.3232 36.8723 39.3453 37.2034C39.4081 37.2265 39.4602 37.2721 39.4915 37.3313C39.5229 37.3906 39.5313 37.4594 39.5152 37.5244C39.4991 37.5895 39.4596 37.6464 39.4042 37.6841C39.3488 37.7217 39.2816 37.7376 39.2152 37.7286H39.1961C38.6834 37.6405 38.1861 37.5178 37.6658 37.4603L37.2832 37.4028L37.0919 37.3759H36.9006L36.1355 37.3031C36.0054 37.2839 35.8753 37.3031 35.7529 37.2762L35.3703 37.2532H35.0872V37.4488L35.1178 38.1351V40.2054C35.1178 40.6655 35.0834 41.1218 35.0681 41.578C35.0528 42.0343 35.003 42.4943 34.961 42.9506C34.95 43.0237 34.9124 43.0902 34.8554 43.1371C34.7984 43.1841 34.7261 43.2083 34.6524 43.2049C34.5787 43.2016 34.5088 43.171 34.4563 43.1191C34.4038 43.0672 34.3723 42.9976 34.368 42.9238C34.368 42.4713 34.368 42.0189 34.3909 41.5665C34.4139 41.1141 34.3909 40.6578 34.3909 40.2054C34.3909 39.753 34.3909 39.3006 34.368 38.852L34.345 38.1734V37.4334V37.1766H33.0672C32.807 37.1766 32.5469 37.1996 32.302 37.2072C32.0572 37.2149 31.7817 37.2341 31.5369 37.2571C31.0166 37.2916 30.4963 37.3414 29.9798 37.3989C28.943 37.5178 27.9024 37.6673 26.8885 37.8667C26.8176 37.8803 26.7441 37.8654 26.684 37.8252C26.6239 37.7851 26.5819 37.7228 26.5672 37.652C26.555 37.5847 26.5683 37.5152 26.6043 37.4571C26.6404 37.399 26.6967 37.3564 26.7623 37.3376C27.2864 37.1957 27.7991 37.0845 28.3232 36.981C28.8473 36.8775 29.3677 36.7931 29.8956 36.7126C30.1558 36.6705 30.4236 36.6436 30.6875 36.6091C30.9515 36.5746 31.2155 36.5478 31.4795 36.5248C31.7435 36.5018 32.0074 36.4749 32.2753 36.4634C32.5431 36.4519 32.807 36.4251 33.0748 36.4212C33.4957 36.4021 33.9165 36.3982 34.3412 36.4212C34.2953 35.8576 34.2417 35.2979 34.1728 34.7419M23.958 32.0236C23.7667 32.6601 23.3191 34.1937 23.0398 35.3937C22.323 38.8918 21.8006 42.4271 21.475 45.9833C19.7501 45.3466 18.1274 44.4606 16.6584 43.3532C16.9652 41.0448 17.4578 38.7651 18.1313 36.5363C18.3764 35.7274 18.7126 34.9492 19.1337 34.2167C19.4709 33.7243 19.9368 33.3343 20.4803 33.0895L20.5798 33.0435L20.7443 32.9515L20.9547 32.8441C21.1001 32.7751 21.2417 32.7061 21.3832 32.6447L21.6013 32.5489L21.8155 32.4607L22.2517 32.292C22.6343 32.1501 23.2846 31.9508 23.6902 31.8319C23.9006 31.7706 24.0115 31.8319 23.958 32.0236ZM40.9981 37.3913C40.4012 35.1637 39.594 31.6747 37.2105 30.8734C34.6702 30.0069 31.9386 29.9111 29.2988 30.0798C27.4195 30.2007 25.5599 30.5338 23.7552 31.0728C22.9556 31.3067 20.3923 32.292 19.8835 32.5527C19.3017 32.8157 18.8028 33.2334 18.4412 33.7604C17.9898 34.545 17.6291 35.3785 17.3661 36.2449C16.7232 38.3802 16.231 40.5582 15.8932 42.7627C15.4456 42.3793 15.0095 41.9959 14.5925 41.5703C7.1666 34.1308 7.13293 22.0766 14.5175 14.5957C21.902 7.11473 33.9299 7.01811 41.4334 14.3794C48.9366 21.7408 49.0961 33.7938 41.79 41.3518C41.612 40.0171 41.3475 38.6954 40.9981 37.3951" fill="#0C9EF0"/>
</g>
<defs>
<filter id="filter0_d_8_113" x="2.29646" y="2.28547" width="51.4286" height="51.4288" filterUnits="userSpaceOnUse" color-interpolation-filters="sRGB">
<feFlood flood-opacity="0" result="BackgroundImageFix"/>
<feColorMatrix in="SourceAlpha" type="matrix" values="0 0 0 0 0 0 0 0 0 0 0 0 0 0 0 0 0 0 127 0" result="hardAlpha"/>
<feOffset/>
<feGaussianBlur stdDeviation="2.85714"/>
<feComposite in2="hardAlpha" operator="out"/>
<feColorMatrix type="matrix" values="0 0 0 0 0 0 0 0 0 0 0 0 0 0 0 0 0 0 0.25 0"/>
<feBlend mode="normal" in2="BackgroundImageFix" result="effect1_dropShadow_8_113"/>
<feBlend mode="normal" in="SourceGraphic" in2="effect1_dropShadow_8_113" result="shape"/>
</filter>
<linearGradient id="paint0_linear_8_113" x1="28.0107" y1="-0.000244141" x2="28.0107" y2="55.9997" gradientUnits="userSpaceOnUse">
<stop stop-color="#152531"/>
<stop offset="1" stop-color="#0C161C"/>
</linearGradient>
</defs>
</svg>
