<svg width="57" height="56" viewBox="0 0 57 56" fill="none" xmlns="http://www.w3.org/2000/svg">
<rect x="0.0107422" y="-0.000152588" width="56" height="56" rx="8.4" fill="url(#paint0_linear_28_3449)"/>
<g filter="url(#filter0_d_28_3449)">
<path d="M43.3898 20.9229C43.1557 21.1029 39.0228 23.4112 39.0228 28.5437C39.0228 34.4803 44.2818 36.5805 44.4392 36.6325C44.415 36.7605 43.6037 39.5088 41.6664 42.309C39.939 44.7733 38.1349 47.2335 35.3904 47.2335C32.646 47.2335 31.9397 45.6534 28.7714 45.6534C25.6838 45.6534 24.586 47.2855 22.0757 47.2855C19.5653 47.2855 17.8136 45.0053 15.7997 42.205C13.4668 38.9167 11.582 33.8082 11.582 28.9597C11.582 21.1829 16.6835 17.0585 21.7043 17.0585C24.3721 17.0585 26.596 18.7947 28.2709 18.7947C29.8651 18.7947 32.3513 16.9545 35.3864 16.9545C36.5367 16.9545 40.6695 17.0585 43.3898 20.9229V20.9229ZM33.9455 13.6622C35.2007 12.186 36.0887 10.1378 36.0887 8.08963C36.0887 7.8056 36.0645 7.51758 36.012 7.28555C33.9698 7.36156 31.5401 8.63369 30.075 10.3179C28.9248 11.614 27.8512 13.6622 27.8512 15.7384C27.8512 16.0504 27.9036 16.3625 27.9279 16.4625C28.057 16.4865 28.2669 16.5145 28.4768 16.5145C30.3091 16.5145 32.6137 15.2984 33.9455 13.6622Z" fill="white"/>
</g>
<rect x="1.06074" y="1.04985" width="53.9" height="53.9" rx="7.35" stroke="white" stroke-opacity="0.15" stroke-width="2.1"/>
<defs>
<filter id="filter0_d_28_3449" x="2.29646" y="1.57127" width="51.4286" height="52.1428" filterUnits="userSpaceOnUse" color-interpolation-filters="sRGB">
<feFlood flood-opacity="0" result="BackgroundImageFix"/>
<feColorMatrix in="SourceAlpha" type="matrix" values="0 0 0 0 0 0 0 0 0 0 0 0 0 0 0 0 0 0 127 0" result="hardAlpha"/>
<feOffset/>
<feGaussianBlur stdDeviation="2.85714"/>
<feComposite in2="hardAlpha" operator="out"/>
<feColorMatrix type="matrix" values="0 0 0 0 0 0 0 0 0 0 0 0 0 0 0 0 0 0 0.25 0"/>
<feBlend mode="normal" in2="BackgroundImageFix" result="effect1_dropShadow_28_3449"/>
<feBlend mode="normal" in="SourceGraphic" in2="effect1_dropShadow_28_3449" result="shape"/>
</filter>
<linearGradient id="paint0_linear_28_3449" x1="28.0107" y1="-0.000152588" x2="28.0107" y2="55.9998" gradientUnits="userSpaceOnUse">
<stop stop-color="#1E1E1E"/>
<stop offset="1" stop-color="#0D0D0D"/>
</linearGradient>
</defs>
</svg>
