<svg width="57" height="56" viewBox="0 0 57 56" fill="none" xmlns="http://www.w3.org/2000/svg">
<rect x="0.0107422" y="-0.000244141" width="56" height="56" rx="8.4" fill="url(#paint0_linear_45_28)"/>
<g filter="url(#filter0_d_45_28)">
<path d="M27.9069 8.00916C26.4965 8.19569 24.7038 9.67521 23.4695 10.3775C20.3171 12.1715 17.1115 13.8726 13.9455 15.6414C12.899 16.2261 11.8447 16.8005 10.8069 17.4009C10.4866 17.5862 9.83087 17.8716 10.0751 18.3537C10.3631 18.9223 11.5695 19.2969 12.1057 19.5963C13.9946 20.651 15.9182 21.6708 17.8417 22.6603C18.5362 23.0174 19.4087 23.7972 20.2227 23.4657C22.1593 22.6768 24.0478 21.3005 25.8506 20.234C26.4303 19.891 27.4196 19.0277 28.1233 19.1137C28.7344 19.1883 29.4345 19.7926 29.9632 20.0956C31.3371 20.8829 32.716 21.6695 34.0758 22.4812C34.6757 22.8394 35.6154 23.6487 36.3486 23.5607C37.0743 23.4736 37.8671 22.8261 38.5132 22.4975C40.335 21.5713 42.1051 20.5394 43.9245 19.6077C44.3768 19.3762 46.1644 18.7105 46.0077 18.0647C45.9132 17.6746 45.3184 17.4518 45.0068 17.2765L42.0847 15.6414C38.6661 13.7315 35.2398 11.8308 31.8031 9.9541C30.86 9.4391 29.0041 7.86406 27.9069 8.00916ZM9.84891 21.1152C9.25766 21.2584 9.50819 22.8276 9.50819 23.2876V30.3736V36.2605C9.50819 36.9222 9.29387 38.056 9.61943 38.6474C10.1452 39.6026 12.3532 40.3478 13.2962 40.8643C16.4091 42.5694 19.487 44.3402 22.6037 46.0382C23.5432 46.5501 24.4828 47.0622 25.4176 47.5829C25.7462 47.766 26.1916 48.1123 26.5921 47.9636C27.2088 47.7349 26.9328 46.0575 26.9328 45.5268V39.967C26.9328 39.2441 27.1371 38.1457 26.8676 37.4698C26.6264 36.8652 25.6204 36.5192 25.093 36.2146C23.6054 35.3555 21.1701 34.4846 20.0407 33.1851C19.6252 32.7071 19.7898 31.8361 19.7898 31.2458C19.7898 29.8213 20.1159 27.9381 19.7554 26.5625C19.5645 25.834 18.3242 25.4859 17.7335 25.1561C15.8407 24.0991 13.9266 23.0498 11.9974 22.0619C11.4875 21.8008 10.4306 20.9742 9.84891 21.1152ZM46.0827 21.1036C45.3989 21.0767 44.2975 21.9091 43.7081 22.2437C41.9618 23.2352 40.1682 24.1467 38.4049 25.1072C37.8016 25.4359 36.4693 25.8261 36.2748 26.5628C35.904 27.9671 36.2404 29.8997 36.2404 31.3548C36.2404 31.8814 36.3959 32.7239 36.0519 33.1655C35.6893 33.6309 34.9043 33.9311 34.4005 34.2198C33.2444 34.8823 32.0912 35.5482 30.9372 36.2146C30.4012 36.5241 29.4303 36.8584 29.1777 37.4698C28.897 38.1492 29.0974 39.2392 29.0974 39.967V45.6358C29.0974 46.1628 28.8181 47.8629 29.5421 47.988C29.9847 48.0646 30.4675 47.6769 30.829 47.4738C31.7275 46.9689 32.6351 46.4806 33.5347 45.978C36.5972 44.267 39.6575 42.5495 42.734 40.8643C43.7021 40.334 45.8077 39.6463 46.4107 38.7102C46.6875 38.2806 46.522 37.4078 46.522 36.9146V32.2269V23.7237C46.522 23.2094 46.8208 21.1327 46.0827 21.1036Z" fill="#2F87C2"/>
</g>
<rect x="1.06074" y="1.04976" width="53.9" height="53.9" rx="7.35" stroke="white" stroke-opacity="0.15" stroke-width="2.1"/>
<defs>
<filter id="filter0_d_45_28" x="2.29646" y="2.28547" width="51.4286" height="51.4286" filterUnits="userSpaceOnUse" color-interpolation-filters="sRGB">
<feFlood flood-opacity="0" result="BackgroundImageFix"/>
<feColorMatrix in="SourceAlpha" type="matrix" values="0 0 0 0 0 0 0 0 0 0 0 0 0 0 0 0 0 0 127 0" result="hardAlpha"/>
<feOffset/>
<feGaussianBlur stdDeviation="2.85714"/>
<feComposite in2="hardAlpha" operator="out"/>
<feColorMatrix type="matrix" values="0 0 0 0 0 0 0 0 0 0 0 0 0 0 0 0 0 0 0.25 0"/>
<feBlend mode="normal" in2="BackgroundImageFix" result="effect1_dropShadow_45_28"/>
<feBlend mode="normal" in="SourceGraphic" in2="effect1_dropShadow_45_28" result="shape"/>
</filter>
<linearGradient id="paint0_linear_45_28" x1="28.0107" y1="-0.000244141" x2="28.0107" y2="55.9997" gradientUnits="userSpaceOnUse">
<stop stop-color="#09202F"/>
<stop offset="1" stop-color="#05111A"/>
</linearGradient>
</defs>
</svg>
