<svg width="57" height="56" viewBox="0 0 57 56" fill="none" xmlns="http://www.w3.org/2000/svg">
<rect x="0.0107422" y="-0.000244141" width="56" height="56" rx="8.4" fill="url(#paint0_linear_5_324)"/>
<g filter="url(#filter0_d_5_324)">
<path d="M18.7008 21.4962L28.226 18.3885C28.8572 18.1825 29.2607 17.558 29.0776 16.898C28.9076 16.2849 28.2089 15.8478 27.5769 16.0514L18.0525 19.1592C17.4213 19.3652 17.017 19.9896 17.2 20.6496C17.37 21.2628 18.0687 21.6998 18.7008 21.4962V21.4962Z" fill="#FF3E3E"/>
<path d="M27.576 18.3885L37.093 21.4922C37.7251 21.6982 38.4238 21.2587 38.5938 20.6456C38.7768 19.9856 38.3726 19.3611 37.7413 19.1551L28.2267 16.0514C27.5947 15.8454 26.8951 16.2849 26.7251 16.898C26.5429 17.558 26.9464 18.1825 27.5776 18.3885H27.576Z" fill="#FF3E3E"/>
<path d="M17.761 21.3742L27.2594 25.6791C27.8638 25.9538 28.5674 25.8569 28.9285 25.2445C29.2385 24.7186 29.0961 23.8615 28.4909 23.5868L18.9926 19.2811C18.3882 19.0072 17.6846 19.1042 17.3234 19.7165C17.0135 20.2424 17.1558 21.0995 17.761 21.3742Z" fill="#FF3E3E"/>
<path d="M36.7989 19.2771L27.2599 23.5894C26.6539 23.8632 26.5115 24.7203 26.8214 25.247C27.1834 25.8594 27.8862 25.9555 28.4914 25.6816L38.0312 21.3702C38.6364 21.0964 38.7788 20.2393 38.4689 19.7126C38.1077 19.0994 37.4049 19.0041 36.7989 19.2771Z" fill="#FF3E3E"/>
<path d="M17.761 34.7665L27.2326 39.0569C27.8377 39.3308 28.5405 39.2347 28.9017 38.6223C29.2124 38.0964 29.0693 37.2385 28.4641 36.9647L18.9926 32.6742C18.3882 32.3996 17.6846 32.4965 17.3234 33.1089C17.0135 33.6348 17.1558 34.4927 17.761 34.7665V34.7665Z" fill="#FF3E3E"/>
<path d="M28.4639 39.0568L38.0412 34.7389C38.6464 34.4659 38.7887 33.6079 38.4788 33.0812C38.1169 32.4681 37.4149 32.3736 36.8097 32.6466L27.2324 36.9645C26.6264 37.2375 26.4849 38.0955 26.7948 38.6222C27.1559 39.2345 27.8587 39.3298 28.4639 39.0568V39.0568Z" fill="#FF3E3E"/>
<path d="M36.1978 20.324L36.2067 32.3437V33.6928C36.2067 35.2552 38.647 35.256 38.647 33.6928L38.638 21.6731V20.324C38.638 18.7608 36.1978 18.7608 36.1978 20.324Z" fill="#FF3E3E"/>
<path d="M17.1567 20.3283V33.7205C17.1567 35.2837 19.597 35.2837 19.597 33.7205V20.3283C19.597 18.7651 17.1567 18.7651 17.1567 20.3283Z" fill="#FF3E3E"/>
<path d="M26.6543 24.6355L26.6299 36.6609V38.0108C26.6299 39.5732 29.0702 39.5732 29.0702 38.0108L29.0937 25.9854V24.6355C29.0937 23.0732 26.6535 23.0732 26.6535 24.6355H26.6543Z" fill="#FF3E3E"/>
<path d="M8.45841 27.8455V26.46C9.70238 26.46 10.5702 26.1993 11.0618 25.6779C11.5609 25.1565 11.8104 24.285 11.8104 23.0633V19.4879C11.8104 18.4599 11.9072 17.5698 12.1009 16.8175C12.302 16.0651 12.6261 15.4431 13.073 14.9515C13.5199 14.4599 14.1158 14.0949 14.8607 13.8565C15.6056 13.6182 16.5256 13.499 17.6205 13.499V15.689C16.7565 15.689 16.0749 15.823 15.5758 16.0912C15.0842 16.3593 14.7341 16.7765 14.5255 17.3426C14.3244 17.9013 14.2238 18.6164 14.2238 19.4879V23.9572C14.2238 24.5382 14.1456 25.0671 13.9892 25.5438C13.8402 26.0206 13.5609 26.4302 13.1512 26.7729C12.7415 27.1155 12.1568 27.38 11.397 27.5662C10.6447 27.7524 9.66513 27.8455 8.45841 27.8455ZM17.6205 42.1027C16.5256 42.1027 15.6056 41.9835 14.8607 41.7451C14.1158 41.5068 13.5199 41.1418 13.073 40.6502C12.6261 40.1585 12.302 39.5366 12.1009 38.7842C11.9072 38.0319 11.8104 37.1417 11.8104 36.1138V32.5383C11.8104 31.3167 11.5609 30.4452 11.0618 29.9238C10.5702 29.4023 9.70238 29.1416 8.45841 29.1416V27.7561C9.66513 27.7561 10.6447 27.8493 11.397 28.0355C12.1568 28.2217 12.7415 28.4861 13.1512 28.8288C13.5609 29.1714 13.8402 29.5811 13.9892 30.0578C14.1456 30.5346 14.2238 31.0634 14.2238 31.6445V36.1138C14.2238 36.9853 14.3244 37.7004 14.5255 38.2591C14.7341 38.8177 15.0842 39.2311 15.5758 39.4993C16.0749 39.7749 16.7565 39.9127 17.6205 39.9127V42.1027ZM8.45841 29.1416V26.46H11.0953V29.1416H8.45841Z" fill="#FF3E3E"/>
<path d="M47.5626 27.6051V26.2196C46.3186 26.2196 45.4508 25.9588 44.9592 25.4374C44.4601 24.916 44.2106 24.0445 44.2106 22.8229V19.2474C44.2106 18.2195 44.1138 17.3293 43.9201 16.577C43.719 15.8246 43.3949 15.2027 42.948 14.711C42.5011 14.2194 41.9052 13.8544 41.1603 13.616C40.4154 13.3777 39.4954 13.2585 38.4005 13.2585V15.4485C39.2645 15.4485 39.9461 15.5826 40.4452 15.8507C40.9368 16.1189 41.2869 16.536 41.4955 17.1021C41.6966 17.6608 41.7971 18.3759 41.7971 19.2474V23.7167C41.7971 24.2977 41.8754 24.8266 42.0318 25.3033C42.1808 25.7801 42.4601 26.1898 42.8698 26.5324C43.2795 26.8751 43.8642 27.1395 44.624 27.3257C45.3763 27.5119 46.3559 27.6051 47.5626 27.6051ZM38.4005 41.8622C39.4954 41.8622 40.4154 41.743 41.1603 41.5047C41.9052 41.2663 42.5011 40.9013 42.948 40.4097C43.3949 39.9181 43.719 39.2961 43.9201 38.5437C44.1138 37.7914 44.2106 36.9013 44.2106 35.8733V32.2978C44.2106 31.0762 44.4601 30.2047 44.9592 29.6833C45.4508 29.1619 46.3186 28.9012 47.5626 28.9012V27.5157C46.3559 27.5157 45.3763 27.6088 44.624 27.795C43.8642 27.9812 43.2795 28.2457 42.8698 28.5883C42.4601 28.931 42.1808 29.3406 42.0318 29.8174C41.8754 30.2941 41.7971 30.823 41.7971 31.404V35.8733C41.7971 36.7448 41.6966 37.4599 41.4955 38.0186C41.2869 38.5773 40.9368 38.9907 40.4452 39.2588C39.9461 39.5344 39.2645 39.6722 38.4005 39.6722V41.8622ZM47.5626 28.9012V26.2196H44.9257V28.9012H47.5626Z" fill="#FF3E3E"/>
</g>
<rect x="1.06074" y="1.04976" width="53.9" height="53.9" rx="7.35" stroke="white" stroke-opacity="0.15" stroke-width="2.1"/>
<defs>
<filter id="filter0_d_5_324" x="2.29646" y="1.92841" width="51.4286" height="51.7856" filterUnits="userSpaceOnUse" color-interpolation-filters="sRGB">
<feFlood flood-opacity="0" result="BackgroundImageFix"/>
<feColorMatrix in="SourceAlpha" type="matrix" values="0 0 0 0 0 0 0 0 0 0 0 0 0 0 0 0 0 0 127 0" result="hardAlpha"/>
<feOffset/>
<feGaussianBlur stdDeviation="2.85714"/>
<feComposite in2="hardAlpha" operator="out"/>
<feColorMatrix type="matrix" values="0 0 0 0 0 0 0 0 0 0 0 0 0 0 0 0 0 0 0.25 0"/>
<feBlend mode="normal" in2="BackgroundImageFix" result="effect1_dropShadow_5_324"/>
<feBlend mode="normal" in="SourceGraphic" in2="effect1_dropShadow_5_324" result="shape"/>
</filter>
<linearGradient id="paint0_linear_5_324" x1="28.0107" y1="-0.000244141" x2="28.0107" y2="55.9997" gradientUnits="userSpaceOnUse">
<stop stop-color="#310D0D"/>
<stop offset="1" stop-color="#1D0808"/>
</linearGradient>
</defs>
</svg>
