<svg width="57" height="56" viewBox="0 0 57 56" fill="none" xmlns="http://www.w3.org/2000/svg">
<rect x="0.0107422" y="-9.15527e-05" width="56" height="56" rx="8.4" fill="url(#paint0_linear_9_39)"/>
<g filter="url(#filter0_d_9_39)">
<path d="M26.4366 8.0102C26.3432 8.02003 26.0431 8.05446 25.7725 8.07906C21.9258 8.48241 18.138 10.1106 15.0488 12.6979C14.4782 13.1702 13.1795 14.4688 12.7073 15.0394C10.1493 18.094 8.65392 21.5225 8.10298 25.5806C7.98 26.4808 7.98 29.5207 8.10298 30.4209C8.65392 34.479 10.1493 37.9075 12.7073 40.9621C13.1795 41.5327 14.4782 42.8313 15.0488 43.3036C18.1036 45.8614 21.5322 47.3568 25.5905 47.9077C26.4907 48.0307 29.5308 48.0307 30.431 47.9077C34.4893 47.3568 37.9179 45.8614 40.9727 43.3036C41.5433 42.8313 42.842 41.5327 43.3142 40.9621C45.8721 37.9075 47.3676 34.479 47.9185 30.4209C48.0415 29.5207 48.0415 26.4808 47.9185 25.5806C47.3676 21.5225 45.8721 18.094 43.3142 15.0394C42.842 14.4688 41.5433 13.1702 40.9727 12.6979C37.9277 10.1499 34.4647 8.6349 30.4605 8.09873C30.0276 8.03971 29.3979 8.01511 28.2321 8.00528C27.3417 7.99544 26.5301 8.00036 26.4366 8.0102ZM26.6826 10.1352C26.6826 10.7107 26.7219 11.9601 26.776 13.1456C26.8056 13.726 26.84 14.5573 26.8547 14.9902C26.9089 16.5249 27.0712 20.5535 27.0958 20.9126L27.1204 21.2716L26.899 21.247C26.776 21.2372 26.6629 21.2077 26.6432 21.1929C26.6285 21.1733 26.594 20.8339 26.5744 20.4354C26.4858 18.6843 26.1956 11.8912 26.1661 10.8976L26.1365 9.80561L26.2743 9.78593C26.3481 9.7761 26.4711 9.76133 26.5498 9.75642L26.6826 9.7515V10.1352ZM31.3902 10.0171C31.3951 10.022 31.4099 11.5076 31.4246 13.3177C31.4443 15.1328 31.4689 16.761 31.4837 16.9381C31.4984 17.1201 31.4935 17.2775 31.4689 17.2873C31.4492 17.3021 31.3262 17.3021 31.2033 17.2873L30.977 17.2676L30.9426 15.8362C30.9229 15.0443 30.8983 14.1687 30.8884 13.8834C30.8491 13.0128 30.8147 10.0565 30.8442 9.98269C30.8638 9.92858 30.918 9.92366 31.1246 9.95809C31.2672 9.98761 31.3853 10.0122 31.3902 10.0171ZM20.0122 11.665C20.0417 11.7092 20.2729 14.4196 20.5582 17.9661C20.6517 19.1713 20.7452 20.2731 20.7599 20.4108C20.7845 20.6617 20.7796 20.6715 20.6222 20.7699C20.5336 20.824 20.4451 20.8683 20.4254 20.8683C20.4107 20.8683 20.3812 20.7404 20.3664 20.583C20.2975 19.9435 20.0319 16.8544 19.845 14.6212C19.7367 13.3079 19.6384 12.1323 19.6236 12.0044C19.599 11.7879 19.6039 11.7683 19.7318 11.6994C19.8892 11.6158 19.9778 11.601 20.0122 11.665ZM33.5546 12.6537C33.6924 12.7029 33.7071 12.7275 33.7366 13.0078C33.7858 13.4997 33.7711 15.851 33.7169 15.851C33.5743 15.851 33.2791 15.6837 33.2545 15.5903C33.2398 15.5312 33.225 14.8328 33.225 14.0408C33.225 12.4422 33.2054 12.5356 33.5546 12.6537ZM24.469 12.8849C24.469 13.0177 24.5034 13.7506 24.5427 14.5229C24.5821 15.2951 24.6264 16.274 24.646 16.697C24.6805 17.5529 24.6903 17.5234 24.3607 17.5431C24.1984 17.548 24.1984 17.548 24.1886 17.3021C24.1787 17.1643 24.1541 16.7364 24.1246 16.3429C24.1 15.9494 24.041 15.0984 24.0016 14.4491C23.9623 13.7998 23.9131 13.1554 23.8983 13.0177C23.8688 12.7717 23.8737 12.7619 24.0066 12.7127C24.0853 12.6832 24.223 12.6586 24.3115 12.6586C24.469 12.6537 24.469 12.6537 24.469 12.8849ZM38.1147 13.5588L38.2819 13.6276L38.3163 14.2868C38.3311 14.6458 38.3409 15.423 38.3311 16.0084L38.3163 17.0807L38.1097 16.9774L37.9031 16.879L37.8884 15.2459C37.8785 14.3458 37.8835 13.5833 37.8933 13.5489C37.913 13.4751 37.913 13.4751 38.1147 13.5588ZM29.1323 14.2031C29.1618 14.2326 29.2307 16.6183 29.2356 17.8284L29.2405 18.5564L29.0093 18.522C28.8765 18.5072 28.7683 18.4924 28.7634 18.4875C28.7486 18.4777 28.601 14.8328 28.601 14.4786V14.1146L28.8519 14.1441C28.9946 14.1638 29.1175 14.1884 29.1323 14.2031ZM40.4611 14.5524C40.5201 14.6212 40.53 15.6985 40.5447 21.6406C40.5595 28.4631 40.5595 28.6402 40.4709 28.6402C40.4168 28.6402 40.343 28.6107 40.2988 28.5763C40.225 28.5222 40.2151 27.927 40.1905 22.098C40.1709 18.5662 40.1463 15.3591 40.1315 14.9705L40.102 14.2622L40.2446 14.3655C40.3283 14.4245 40.4217 14.5081 40.4611 14.5524ZM36.0486 15.5608C36.0732 15.5804 36.0978 15.8608 36.1027 16.1805C36.1273 17.2676 36.1322 23.9328 36.1077 23.9525C36.0978 23.9623 36.0093 23.9377 35.9109 23.8984L35.7338 23.8246V19.6386V15.4575L35.8715 15.487C35.9453 15.5067 36.024 15.5362 36.0486 15.5608ZM22.4718 15.8362C22.4865 15.969 22.5111 16.2691 22.5259 16.515C22.5407 16.7561 22.5751 17.307 22.6046 17.7349C22.6636 18.6007 22.6538 18.6548 22.3734 18.6548C22.2258 18.6548 22.2062 18.64 22.1865 18.4924C22.1373 18.2022 21.9651 15.7821 21.9897 15.7428C22.0143 15.7083 22.2701 15.6198 22.3882 15.61C22.4177 15.605 22.457 15.7083 22.4718 15.8362ZM14.3355 17.0905C14.3896 17.612 14.4979 18.704 14.5766 19.5156C14.6602 20.3272 14.7291 21.0159 14.7291 21.0454C14.7291 21.1044 14.3503 21.2913 14.3109 21.252C14.2863 21.2274 13.7944 16.8741 13.7944 16.6774C13.7944 16.5593 14.1732 16.0625 14.2224 16.1166C14.2371 16.1264 14.2863 16.5642 14.3355 17.0905ZM33.6235 17.607L33.7661 17.6907L33.7711 18.7531C33.776 19.3336 33.7858 19.9829 33.7858 20.1944C33.7957 20.6371 33.7415 20.7109 33.4759 20.6174L33.3234 20.5633V20.1403C33.3234 19.9042 33.3087 19.2204 33.289 18.6154L33.2595 17.5234H33.3726C33.4316 17.5234 33.5448 17.5628 33.6235 17.607ZM16.495 19.5156C16.5836 20.46 16.7262 22.0538 16.8197 23.0572L16.9869 24.8772L16.7951 25.0691L16.6082 25.2609L16.5737 24.8723C16.5541 24.6559 16.4557 23.6524 16.3524 22.6391C16.2491 21.6258 16.1015 20.155 16.0277 19.3729L15.89 17.9563L16.0818 17.7792C16.254 17.6169 16.2737 17.612 16.3081 17.7005C16.3278 17.7497 16.4114 18.5662 16.495 19.5156ZM12.8106 20.1108C12.9188 21.0798 13.2041 23.6573 13.4501 25.8364C13.696 28.0155 13.9272 30.1159 13.9715 30.5094C14.0109 30.9029 14.0797 31.4981 14.1191 31.8375C14.188 32.413 14.188 32.4524 14.1092 32.5114C13.9912 32.6 13.942 32.5901 13.942 32.4868C13.942 32.4425 13.8977 32.0687 13.8436 31.6654C13.7551 30.9915 13.6075 29.8503 13.2779 27.2875C13.209 26.771 13.0762 25.743 12.9828 25.0002C12.8844 24.2574 12.7417 23.1507 12.663 22.5407C12.5843 21.9308 12.4515 20.888 12.3679 20.2141C12.2793 19.5451 12.2252 18.9499 12.24 18.886C12.2744 18.7531 12.5646 18.2908 12.5942 18.3203C12.604 18.335 12.7024 19.1368 12.8106 20.1108ZM11.3053 22.2308C11.3791 22.8211 11.5169 23.8984 11.6103 24.6313C11.7038 25.3593 11.8218 26.2693 11.876 26.648L11.9694 27.3367L11.8661 27.4252C11.8071 27.4744 11.7481 27.4941 11.7284 27.4744C11.7087 27.4547 11.6694 27.258 11.6398 27.0416C11.6103 26.8251 11.4283 25.561 11.2316 24.2378L10.8823 21.8275L10.9954 21.493C11.0545 21.311 11.1184 21.1634 11.1332 21.1634C11.1528 21.1634 11.2266 21.6455 11.3053 22.2308ZM38.3114 21.5865C38.3803 21.6553 38.3901 21.9603 38.3901 24.2181V26.771H38.2524C37.9523 26.771 37.9572 26.8448 37.9376 24.0508L37.9228 21.5078H38.0802C38.1639 21.5078 38.2721 21.5422 38.3114 21.5865ZM27.5434 22.4669C28.6551 22.6342 29.6242 22.9441 30.5835 23.436C31.2033 23.7557 31.4984 23.9771 32.1871 24.6362C33.2103 25.6151 33.8399 26.471 34.4302 27.681C35.2911 29.442 35.6256 31.0013 36.0486 35.1824C36.2405 37.0565 36.4913 40.4555 36.5455 41.8476C36.5602 42.2509 36.5946 42.915 36.6242 43.3232C36.6783 44.189 36.7422 44.0709 35.9798 44.4398C34.9221 44.9514 33.9039 45.3056 32.5609 45.6351C30.918 46.0385 29.8554 46.1664 28.2321 46.1713L27.0515 46.1762L27.0613 45.6105C27.0613 45.3006 27.0909 44.5776 27.1204 44.0119C27.268 41.272 27.2384 37.814 27.0466 35.8956C26.9384 34.7938 26.7268 33.4558 26.6088 33.1607C26.5842 33.0968 26.6973 33.0427 27.1843 32.8754C28.0747 32.5655 28.847 32.1769 28.9651 31.9851C29.1766 31.6211 28.7978 31.0997 28.3157 31.0997C28.2321 31.0997 27.9812 31.1882 27.75 31.2915C26.6481 31.7982 24.4394 32.3934 23.1654 32.5262C22.2849 32.6196 20.9173 32.5655 19.9679 32.3934C19.4514 32.2999 18.5266 31.9507 17.7543 31.5522C16.864 31.0898 16.3179 30.475 16.1556 29.747C16.0671 29.3535 16.0917 28.5664 16.2048 28.1237C16.3278 27.6367 16.6721 26.9284 16.9869 26.5152C18.3889 24.6706 21.2814 23.072 24.2476 22.5112C25.1921 22.3341 26.5301 22.3145 27.5434 22.4669ZM42.719 22.6194C42.8961 22.6932 42.9157 22.7129 42.9157 22.8801C42.9256 24.223 42.8961 27.2924 42.8715 27.4203C42.8665 27.4646 42.6108 27.4695 42.5025 27.4302C42.4337 27.4056 42.4238 27.1399 42.4238 24.9707C42.4238 23.4163 42.4435 22.5407 42.473 22.5407C42.4976 22.5407 42.6108 22.5752 42.719 22.6194ZM44.8686 25.3199L45.0457 25.3937L45.0113 29.4666C44.9719 34.6561 44.967 34.8086 44.7801 35.2562C44.4751 35.9891 44.4899 36.1367 44.5194 32.9197C44.5292 31.3112 44.5538 29.683 44.5637 29.3043C44.5735 28.9255 44.5833 27.8581 44.5883 26.9284C44.5883 25.8069 44.603 25.2461 44.6374 25.2461C44.667 25.2461 44.7703 25.2806 44.8686 25.3199ZM15.2849 26.5447C15.3144 26.9432 15.3046 26.9825 15.1619 27.2973L15.0045 27.6318L14.9455 27.1399C14.852 26.3529 14.852 26.3185 15.039 26.2004C15.1226 26.1414 15.2111 26.102 15.2259 26.1119C15.2407 26.1217 15.2702 26.3185 15.2849 26.5447ZM12.2449 29.5109C12.2892 29.9142 12.6335 32.5901 12.8106 33.9035C13.0762 35.935 13.0959 36.2252 12.9778 36.1022C12.9631 36.0875 12.8499 35.4037 12.7319 34.5823C11.9645 29.2797 11.9694 29.3141 12.0334 29.2748C12.1662 29.1862 12.2105 29.2354 12.2449 29.5109ZM15.7867 31.7637C15.8162 31.8867 15.9588 33.2197 15.9588 33.3821C15.9588 33.5198 15.7818 33.6477 15.7031 33.569C15.6785 33.5444 15.6145 33.1263 15.5653 32.6442C15.5112 32.1572 15.4571 31.6506 15.4423 31.5178L15.4128 31.2718L15.585 31.4686C15.6834 31.5768 15.7719 31.7096 15.7867 31.7637ZM19.7564 33.6182C19.8105 33.6674 19.845 33.8641 19.8892 34.3954C19.963 35.3546 19.9729 35.2808 19.7712 35.2808C19.5646 35.2808 19.5695 35.2955 19.5006 34.4298C19.4318 33.5493 19.4318 33.5591 19.5646 33.5591C19.6285 33.5591 19.7121 33.5887 19.7564 33.6182ZM23.6524 33.692C23.6622 33.7411 23.6868 34.0363 23.7065 34.3462C23.7213 34.6561 23.7655 35.3546 23.8049 35.8956C23.9426 37.8829 23.9475 38.1338 23.8639 38.1338C23.7704 38.1338 23.7606 38.06 23.6524 36.6581C23.613 36.0776 23.5392 35.1627 23.4901 34.6266C23.4458 34.0904 23.4163 33.6428 23.431 33.6329C23.4851 33.5739 23.6278 33.6182 23.6524 33.692ZM14.4044 34.6364C14.4339 34.6807 14.6208 36.2547 14.852 38.4043C14.9209 39.0536 14.9898 39.6783 15.0045 39.7964L15.0291 40.0079L14.9061 39.9292C14.8127 39.8652 14.7783 39.8013 14.7783 39.6881C14.7783 39.3782 14.5667 37.3369 14.4044 36.0875C14.3109 35.3791 14.2371 34.7544 14.2371 34.6954C14.2371 34.5921 14.3552 34.5528 14.4044 34.6364ZM42.7928 36.6925L42.7583 38.7486L42.6353 38.9306C42.355 39.3438 42.3697 39.4225 42.3845 37.1205L42.3943 35.0102L42.5763 34.8233C42.6747 34.7249 42.7731 34.6413 42.7928 34.6413C42.8075 34.6413 42.8075 35.5661 42.7928 36.6925ZM38.2426 39.9538C38.2672 42.8117 38.2622 43.033 38.1835 43.1216C38.1343 43.1757 38.0901 43.2101 38.0753 43.1953C38.0409 43.156 37.9917 36.9237 38.031 36.8893C38.0507 36.8696 38.0999 36.8597 38.1442 36.8647C38.2081 36.8794 38.2229 37.2287 38.2426 39.9538ZM22.1766 37.996C22.2111 38.301 22.3341 39.7619 22.3832 40.4506C22.4128 40.913 22.4128 40.9277 22.3045 40.9621C22.2455 40.9818 22.1766 40.9769 22.157 40.9523C22.1225 40.9179 22.0143 39.8259 21.8815 38.1436L21.8471 37.7402H21.9996C22.1422 37.7402 22.152 37.7501 22.1766 37.996ZM18.3102 39.7177C18.3446 39.7521 18.3692 39.8751 18.3692 39.998C18.3692 40.1259 18.4283 40.79 18.4922 41.4786C18.6791 43.3626 18.6939 43.6184 18.6103 43.5692C18.4824 43.4954 18.3692 43.3823 18.3938 43.3527C18.4037 43.3331 18.384 43.0871 18.3446 42.8067C18.3102 42.5214 18.2659 42.0591 18.2462 41.7738C18.2266 41.4885 18.1823 40.9671 18.1429 40.6178C18.0495 39.757 18.0544 39.6586 18.1626 39.6586C18.2118 39.6586 18.2758 39.6832 18.3102 39.7177ZM20.6369 43.0281C20.6517 43.1363 20.6812 43.5397 20.7009 43.9233C20.7353 44.6612 20.7206 44.7153 20.5189 44.5628C20.4599 44.5185 20.4205 44.3316 20.3615 43.7709C20.2582 42.7576 20.2533 42.7969 20.4451 42.8166C20.5878 42.8313 20.6074 42.851 20.6369 43.0281Z" fill="white"/>
<path d="M18.8803 24.8232C18.3687 25.0445 18.3294 25.7381 18.8115 25.984C19.1607 26.1611 19.5149 26.0775 19.6969 25.7725C20.0412 25.2117 19.4805 24.5624 18.8803 24.8232Z" fill="white"/>
<path d="M22.216 25.2953C21.7438 25.5855 21.7438 26.284 22.216 26.5743C22.6833 26.8546 23.2884 26.4857 23.2884 25.925C23.2884 25.3839 22.6686 25.0199 22.216 25.2953Z" fill="white"/>
</g>
<rect x="1.06074" y="1.04991" width="53.9" height="53.9" rx="7.35" stroke="white" stroke-opacity="0.15" stroke-width="2.1"/>
<defs>
<filter id="filter0_d_9_39" x="2.29646" y="2.28562" width="51.4286" height="51.4286" filterUnits="userSpaceOnUse" color-interpolation-filters="sRGB">
<feFlood flood-opacity="0" result="BackgroundImageFix"/>
<feColorMatrix in="SourceAlpha" type="matrix" values="0 0 0 0 0 0 0 0 0 0 0 0 0 0 0 0 0 0 127 0" result="hardAlpha"/>
<feOffset/>
<feGaussianBlur stdDeviation="2.85714"/>
<feComposite in2="hardAlpha" operator="out"/>
<feColorMatrix type="matrix" values="0 0 0 0 0 0 0 0 0 0 0 0 0 0 0 0 0 0 0.25 0"/>
<feBlend mode="normal" in2="BackgroundImageFix" result="effect1_dropShadow_9_39"/>
<feBlend mode="normal" in="SourceGraphic" in2="effect1_dropShadow_9_39" result="shape"/>
</filter>
<linearGradient id="paint0_linear_9_39" x1="28.0107" y1="-9.15527e-05" x2="28.0107" y2="55.9999" gradientUnits="userSpaceOnUse">
<stop stop-color="#282828"/>
<stop offset="1" stop-color="#1A1A1A"/>
</linearGradient>
</defs>
</svg>
