<svg width="57" height="56" viewBox="0 0 57 56" fill="none" xmlns="http://www.w3.org/2000/svg">
<rect x="0.0107422" y="-0.000183105" width="56" height="56" rx="8.4" fill="url(#paint0_linear_28_3469)"/>
<g filter="url(#filter0_d_28_3469)">
<path d="M43.1561 36.989L43.1482 37.0668L43.1404 37.1522L43.1245 37.23L43.1009 37.3077L43.0856 37.3777L43.0618 37.4555L43.0303 37.5255L42.9987 37.5878L42.9676 37.6577L42.9282 37.7199L42.8887 37.7822L42.8418 37.8444L42.8022 37.9065L42.7554 37.9609L42.7001 38.0154L42.6532 38.0621L42.5901 38.1165L42.5353 38.1632L42.4721 38.2098L42.4094 38.2482L42.3467 38.2948L42.2757 38.3337L42.2051 38.3648L42.1345 38.4037L42.0556 38.4348L41.9771 38.466L41.8987 38.4892L41.8202 38.5126L41.7491 38.5359L41.6707 38.5515L41.6001 38.567L41.5295 38.5825L41.4506 38.5981L41.372 38.6059L41.3015 38.6137L41.2225 38.6215L41.1362 38.6293L41.0577 38.637H40.9792H40.8928H40.806H40.7276L40.649 38.6293H40.5627L40.4842 38.6215L40.4053 38.6137L40.3189 38.6059L40.2405 38.5903L40.162 38.5825L40.083 38.567L40.0045 38.5515L39.926 38.5359L39.8476 38.5203L39.7687 38.4971L39.6981 38.4815L39.6196 38.4582L39.5411 38.4348L39.4701 38.4037L39.3917 38.3804L39.321 38.3571L39.2425 38.326L39.1715 38.2948L39.1009 38.2637L39.0303 38.2254L38.9593 38.1942L38.8887 38.1553L38.826 38.1165L38.755 38.0776L38.6923 38.0387L38.6291 37.9999L38.5664 37.9532L38.5037 37.9065L38.4406 37.8599L38.3778 37.8132L38.3226 37.7666L38.2599 37.7122L38.3073 37.65L38.3621 37.5955L38.4094 37.5333L38.4643 37.4711L38.5117 37.4167L38.5585 37.3545L38.6138 37.2922L38.6607 37.2378L38.7159 37.1757L38.7629 37.1212L38.8181 37.059L38.865 36.9967L38.9124 36.9423L38.9672 36.8802L39.0145 36.8179L39.0693 36.7635L39.1167 36.7013L39.1794 36.748L39.25 36.7946L39.3131 36.8413L39.3837 36.888L39.4469 36.9268L39.5175 36.9734L39.5801 37.0123L39.6512 37.0434L39.7138 37.0823L39.7845 37.1135L39.8555 37.1445L39.926 37.1757L39.9967 37.199L40.0677 37.23L40.1462 37.2534L40.2247 37.2767L40.2952 37.3L40.3742 37.3156L40.4527 37.3312L40.5311 37.3467L40.6175 37.3545L40.6964 37.37H40.7749L40.8612 37.3777H40.9398H41.034L41.1204 37.37L41.1994 37.3545L41.2699 37.3389L41.3405 37.3234L41.4036 37.3L41.4585 37.269L41.5216 37.2223L41.5685 37.1679L41.6001 37.1056L41.6238 37.0357L41.6316 36.9579V36.9423L41.6238 36.849L41.5922 36.7712L41.5527 36.7168L41.4979 36.6702L41.4347 36.6235L41.372 36.5925L41.3015 36.5613L41.2225 36.5302L41.1283 36.4914L41.0734 36.4758L41.0108 36.4603L40.9398 36.4369L40.8692 36.4213L40.7907 36.398L40.7117 36.3825L40.6254 36.3592L40.5469 36.3436L40.4605 36.3203L40.3821 36.3048L40.3031 36.2814L40.2247 36.2658L40.1462 36.2425L40.0751 36.2193L39.9967 36.2037L39.926 36.1803L39.8555 36.157L39.7845 36.1337L39.6981 36.1025L39.6196 36.0714L39.5411 36.0403L39.4622 36.0092L39.3917 35.9703L39.3131 35.9315L39.25 35.8926L39.1794 35.8538L39.1167 35.8071L39.0535 35.7683L38.9988 35.7215L38.9436 35.6671L38.8887 35.6127L38.8413 35.5582L38.7945 35.5038L38.755 35.4494L38.7159 35.3872L38.6765 35.3173L38.6449 35.2633L38.6212 35.201L38.598 35.131L38.5744 35.0689L38.5585 34.9911L38.5428 34.9211L38.5348 34.8433L38.527 34.7655L38.5191 34.6801V34.5945V34.579V34.5012L38.527 34.4235L38.5348 34.3535L38.5428 34.2757L38.5585 34.2058L38.5744 34.1358L38.598 34.0657L38.6138 33.9958L38.6449 33.9258L38.6765 33.8558L38.708 33.7859L38.7471 33.7158L38.7865 33.6459L38.8334 33.5837L38.8809 33.5215L38.9356 33.4593L38.9908 33.4049L39.0457 33.3426L39.1088 33.2882L39.1636 33.2493L39.2267 33.2026L39.2895 33.156L39.3521 33.1171L39.4232 33.0783L39.4938 33.0471L39.5643 33.0083L39.6354 32.9772L39.7138 32.9538L39.7923 32.9228L39.8633 32.8994L39.926 32.8838L39.9967 32.8683L40.0677 32.8528L40.1462 32.8372L40.2168 32.8216L40.2952 32.8139L40.3742 32.8061L40.4527 32.7983L40.5311 32.7906H40.6096H40.6964H40.7829H40.8692L40.9555 32.7983L41.0419 32.8061H41.1204L41.2072 32.8139L41.2856 32.8294L41.372 32.8372L41.4506 32.8528L41.5216 32.8683L41.6001 32.8838L41.6785 32.8994L41.7491 32.915L41.828 32.9383L41.8987 32.9616L41.9693 32.9772L42.0482 33.0083L42.1188 33.0316L42.1893 33.0627L42.2599 33.0938L42.3388 33.1249L42.4094 33.1638L42.4721 33.1949L42.5432 33.2338L42.6138 33.2726L42.6765 33.3116L42.7475 33.3582L42.8102 33.397L42.8734 33.4438L42.9361 33.4904L42.9987 33.537L42.9518 33.5993L42.9124 33.6615L42.8655 33.7236L42.8181 33.7859L42.7712 33.8558L42.7317 33.918L42.6843 33.9803L42.6374 34.0425L42.598 34.1047L42.551 34.1669L42.5037 34.2291L42.4642 34.2913L42.4174 34.3613L42.3699 34.4235L42.3231 34.4857L42.2836 34.5479L42.2367 34.61L42.1735 34.5635L42.103 34.5245L42.0402 34.4857L41.9771 34.439L41.9066 34.408L41.8434 34.369L41.7728 34.3379L41.7101 34.3068L41.6391 34.2757L41.5764 34.2446L41.5059 34.2213L41.4427 34.1902L41.3563 34.1669L41.2778 34.1435L41.1994 34.1203L41.1204 34.1047L41.0419 34.0891L40.9635 34.0735L40.885 34.0657L40.806 34.058L40.7355 34.0502H40.657H40.5627L40.4764 34.0657L40.3974 34.0813L40.3268 34.0968L40.2642 34.128L40.2089 34.159L40.1382 34.2213L40.0909 34.2913L40.0599 34.3613L40.0519 34.439V34.4546L40.0599 34.5557L40.0988 34.6412L40.1304 34.6878L40.1852 34.7423L40.2562 34.7812L40.3189 34.82L40.3974 34.8512L40.4842 34.8823L40.5785 34.9133L40.6412 34.9289L40.7039 34.9522L40.7749 34.9677L40.8455 34.9911L40.9239 35.0067L41.0108 35.03L41.0972 35.0532L41.1836 35.0767L41.2699 35.0922L41.3483 35.1155L41.4347 35.1388L41.5137 35.1544L41.5922 35.1777L41.6707 35.201L41.7412 35.2244L41.8202 35.2477L41.8908 35.271L41.9613 35.2944L42.0482 35.325L42.1266 35.3639L42.2051 35.395L42.2836 35.4338L42.3547 35.4728L42.4253 35.5116L42.4879 35.5505L42.551 35.5971L42.6138 35.636L42.6765 35.6905L42.7396 35.7448L42.7944 35.8071L42.8496 35.8615L42.8965 35.9238L42.9439 35.9937L42.9829 36.0559L43.0225 36.1259L43.054 36.1881L43.0777 36.258L43.1009 36.328L43.1167 36.398L43.1324 36.4758L43.1482 36.5536L43.1561 36.6313L43.164 36.7168V36.8024V36.8179V36.9035L43.1561 36.989ZM37.6446 38.5438H37.5657H37.4873H37.4088H37.3304H37.2514H37.1728H37.0945H37.0159H36.9291H36.8507H36.7722H36.6938H36.6147H36.5363H36.4578H36.3793H36.3003H36.2219H36.1434H36.065H35.9864H35.9076H35.8291H35.7506H35.6721H35.5931H35.5147H35.4362H35.3498H35.2709H35.1924H35.1139H35.0355H34.9566H34.8781H34.7996H34.7211H34.6422H34.5637H34.4853H34.4067H34.3277H34.2494H34.1708H34.0924H34.0135H33.9349H33.8486H33.7701H33.6917H33.6127H33.5342H33.4557H33.3773H33.2984H33.2199H33.1414V38.466V38.3882V38.3105V38.2331V38.1553V38.0776V37.9999V37.9222V37.8444V37.7666V37.6888V37.6111V37.5333V37.4555V37.3777V37.3V37.2223V37.1445V37.0745V36.9967V36.919V36.8413V36.7635V36.6857V36.608V36.5302V36.4524V36.3747V36.297V36.2193V36.1415V36.0637V35.986V35.9082V35.8304V35.7526V35.6748V35.5971V35.5194V35.4416V35.3639V35.2865V35.2088V35.131V35.0532V34.9755V34.8978V34.82V34.7423V34.6645V34.5867V34.509V34.4312V34.3535V34.2835V34.2058V34.128V34.0502V33.9725V33.8947V33.817V33.7392V33.6615V33.5837V33.5059V33.4281V33.3503V33.2726V33.1949V33.1171V33.0394V32.9616V32.8838H33.2199H33.2984H33.3773H33.4557H33.5342H33.6127H33.6917H33.7701H33.8486H33.9271H34.006H34.0845H34.1629H34.2414H34.3124H34.391H34.4694H34.5479H34.6268H34.7053H34.7838H34.8623H34.9412H35.0196H35.0981H35.1766H35.2556H35.3341H35.4125H35.491H35.57H35.6485H35.7269H35.8053H35.8839H35.9628H36.0413H36.1198H36.1982H36.2772H36.3556H36.4341H36.5126H36.5837H36.6621H36.7406H36.8191H36.898H36.9765H37.0549H37.1334H37.2124H37.2908H37.3693H37.4478H37.5267H37.6053H37.6837V32.9616V33.0316V33.1093V33.1871V33.2648V33.3348V33.4126V33.4904V33.5603V33.6381V33.7158V33.7859V33.8636V33.9413V34.0191V34.0891V34.1669H37.6053H37.5267H37.4478H37.3693H37.2908H37.2124H37.1413H37.0629H36.9844H36.9059H36.827H36.7485H36.67H36.5915H36.5126H36.4341H36.3556H36.2772H36.1982H36.1277H36.0491H35.9707H35.8917H35.8133H35.7348H35.6563H35.5774H35.4989H35.4205H35.342H35.263H35.1845H35.1139H35.0355H34.9566H34.8781H34.7996H34.7211H34.6422V34.2446V34.3223V34.4001V34.4779V34.5557V34.6257V34.7034V34.7812V34.8589V34.9367V35.0144V35.0922H34.7211H34.7996H34.8781H34.9566H35.0355H35.1139H35.1924H35.2709H35.342H35.4205H35.4989H35.5774H35.6563H35.7348H35.8133H35.8917H35.9707H36.0491H36.1277H36.2061H36.285H36.3635H36.442H36.5206H36.5995H36.6779H36.7485H36.827H36.9059H36.9844H37.0629H37.1413H37.2202H37.2988H37.3772V35.1699V35.2399V35.3173V35.395V35.465V35.5427V35.6205V35.6905V35.7683V35.846V35.9238V35.9937V36.0714V36.1492V36.2193V36.297H37.2988H37.2202H37.1413H37.0629H36.9844H36.9059H36.827H36.7485H36.6779H36.5995H36.5206H36.442H36.3635H36.285H36.2061H36.1277H36.0491H35.9707H35.8917H35.8133H35.7348H35.6563H35.5774H35.4989H35.4205H35.342H35.2709H35.1924H35.1139H35.0355H34.9566H34.8781H34.7996H34.7211H34.6422V36.3747V36.4603V36.538V36.6158V36.7013V36.7791V36.8568V36.9423V37.0201V37.0979V37.1834V37.2611H34.7211H34.7996H34.8781H34.9566H35.0355H35.1139H35.1924H35.2709H35.3498H35.4362H35.5147H35.5931H35.6721H35.7506H35.8291H35.9076H35.9864H36.065H36.1434H36.2219H36.3003H36.3793H36.4578H36.5363H36.6147H36.6938H36.7722H36.8507H36.9291H37.0159H37.0945H37.1728H37.2514H37.3304H37.4088H37.4873H37.5657H37.6446H37.7232V37.3389V37.4089V37.4867V37.5644V37.6422V37.7122V37.7899V37.8676V37.9377V38.0154V38.0931V38.1632V38.2405V38.3182V38.3959V38.466V38.5438H37.6446ZM31.9024 38.5438H31.824H31.7455H31.6587H31.5803H31.5017H31.4233H31.3443H31.2658H31.1795H31.101H31.0225H30.9436H30.8651H30.7867H30.7003H30.6213H30.5428H30.4643V38.466V38.3882V38.3105V38.2327V38.1544V38.0767V37.9989V37.9211V37.8434V37.7657V37.6879V37.6097V37.532V37.4542V37.3764V37.2986V37.2204V37.1426V37.0649V36.9872V36.9094V36.8317V36.7534V36.6757V36.5979V36.5201V36.4424V36.3646V36.2864V36.2086V36.1309V36.0532V35.9755V35.8977V35.8194V35.7417V35.6639V35.5862V35.5084V35.4302V35.3525V35.2747V35.1969L30.4249 35.2591L30.378 35.3296L30.3385 35.3918L30.2916 35.454L30.2522 35.5239L30.2047 35.5862L30.1658 35.6484L30.1263 35.7188L30.0794 35.781L30.0399 35.8432L29.9926 35.9055L29.9536 35.9759L29.9062 36.0381L29.8672 36.1003L29.8277 36.1703L29.7803 36.2329L29.7413 36.2952L29.6939 36.3651L29.655 36.4273L29.6077 36.4895L29.5686 36.5599L29.5291 36.6222L29.4818 36.6844L29.4428 36.7544L29.3954 36.817L29.3564 36.8792L29.3091 36.9415L29.2695 37.0114L29.2305 37.074L29.1832 37.1363L29.1442 37.2063L29.0969 37.2685L29.0574 37.3306L29.0105 37.4012L28.971 37.4633H28.9399L28.8926 37.3934L28.8531 37.3306L28.8061 37.2607L28.7667 37.1985L28.7197 37.1286L28.6803 37.0659L28.6335 36.9959L28.5939 36.9336L28.5465 36.8637L28.5075 36.8015L28.4602 36.731L28.4212 36.6688L28.3739 36.5988L28.3343 36.5366L28.2875 36.4662L28.248 36.404L28.2011 36.334L28.1537 36.2718L28.1143 36.2014L28.0674 36.1392L28.0279 36.0692L27.981 36.007L27.9415 35.9365L27.8946 35.8743L27.8552 35.8043L27.8078 35.7422L27.7688 35.6722L27.7214 35.6095L27.6824 35.5395L27.635 35.4773L27.5956 35.4073L27.5487 35.3452L27.5091 35.2747L27.4623 35.2125V35.2902V35.368V35.4458V35.5239V35.6017V35.6794V35.7572V35.835V35.9132V35.991V36.061V36.1387V36.2165V36.2942V36.3724V36.4502V36.5279V36.6057V36.6835V36.7613V36.8394V36.9172V36.995V37.0727V37.1505V37.2282V37.3064V37.3842V37.462V37.5397V37.6175V37.6956V37.7657V37.8434V37.9211V37.9989V38.0767V38.1544V38.2327V38.3105V38.3882V38.466V38.5438H27.3838H27.3049H27.2264H27.1479H27.0695H26.9906H26.912H26.8336H26.7551H26.6762H26.5977H26.5192H26.4407H26.3618H26.2834H26.2048H26.1263H26.0474H25.9689V38.466V38.3882V38.3105V38.2331V38.1553V38.0776V37.9999V37.9222V37.8444V37.7666V37.6888V37.6111V37.5333V37.4555V37.3777V37.3V37.2223V37.1445V37.0745V36.9967V36.919V36.8413V36.7635V36.6857V36.608V36.5302V36.4524V36.3747V36.297V36.2193V36.1415V36.0637V35.986V35.9082V35.8304V35.7526V35.6748V35.5971V35.5194V35.4416V35.3639V35.2865V35.2088V35.131V35.0532V34.9755V34.8978V34.82V34.7423V34.6645V34.5867V34.509V34.4312V34.3535V34.2835V34.2058V34.128V34.0502V33.9725V33.8947V33.817V33.7392V33.6615V33.5837V33.5059V33.4281V33.3503V33.2726V33.1949V33.1171V33.0394V32.9616V32.8838H26.0474H26.1263H26.197H26.2753H26.3539H26.4328H26.5034H26.5819H26.6608H26.7393H26.8099H26.8884H26.9673H27.0458H27.1163H27.1948H27.2738H27.3523H27.4228H27.5013H27.5803L27.6193 32.9461L27.6587 33.016L27.7056 33.0777L27.7451 33.1477L27.7845 33.2099L27.8236 33.28L27.863 33.3417L27.91 33.4118L27.9494 33.4739L27.9889 33.5361L28.0279 33.6056L28.0674 33.6679L28.1143 33.7378L28.1537 33.8L28.1932 33.8695L28.2322 33.9317L28.2796 33.9939L28.3191 34.0635L28.358 34.1256L28.3975 34.1956L28.4366 34.2579L28.4839 34.3274L28.5234 34.3897L28.5623 34.4596L28.6018 34.5213L28.6408 34.5835L28.6882 34.6535L28.7277 34.7158L28.7667 34.7858L28.8061 34.8475L28.8451 34.9175L28.8926 34.9797L28.932 35.0492L28.971 35.1114L29.0105 35.0492L29.0499 34.9797L29.0969 34.9175L29.1362 34.8475L29.1753 34.7858L29.2148 34.7158L29.2617 34.6535L29.3011 34.5835L29.3407 34.5213L29.3796 34.4596L29.427 34.3897L29.466 34.3274L29.5055 34.2579L29.5449 34.1956L29.5918 34.1256L29.6313 34.0635L29.6708 33.9939L29.7097 33.9317L29.7493 33.8695L29.7962 33.8L29.8356 33.7378L29.8751 33.6679L29.9142 33.6056L29.9614 33.5361L30.0005 33.4739L30.0399 33.4118L30.0794 33.3417L30.1263 33.28L30.1658 33.2099L30.2047 33.1477L30.2443 33.0777L30.2916 33.016L30.3306 32.9461L30.3701 32.8838H30.4485H30.5271H30.5981H30.6766H30.755H30.8335H30.9046H30.9831H31.0615H31.14H31.2111H31.2895H31.368H31.4465H31.5175H31.596H31.6745H31.7529H31.824H31.9024H31.9809V32.9616V33.0394V33.1171V33.1949V33.2726V33.3503V33.4281V33.5059V33.5837V33.6615V33.7392V33.817V33.8947V33.9725V34.0502V34.128V34.2058V34.2835V34.3535V34.4312V34.509V34.5867V34.6645V34.7423V34.82V34.8978V34.9755V35.0532V35.131V35.2088V35.2865V35.3639V35.4416V35.5194V35.5971V35.6748V35.7526V35.8304V35.9082V35.986V36.0637V36.1415V36.2193V36.297V36.3747V36.4524V36.5302V36.608V36.6857V36.7635V36.8413V36.919V36.9967V37.0745V37.1445V37.2223V37.3V37.3777V37.4555V37.5333V37.6111V37.6888V37.7666V37.8444V37.9222V37.9999V38.0776V38.1553V38.2331V38.3105V38.3882V38.466V38.5438H31.9024ZM22.7839 36.2115L22.7603 36.141L22.7292 36.0632L22.6976 35.9932L22.6739 35.9228L22.6428 35.8528L22.6113 35.775L22.5875 35.7046L22.5559 35.6346L22.5249 35.5647L22.5011 35.4943L22.4695 35.4165L22.4463 35.3465L22.4147 35.2761L22.3831 35.2061L22.3595 35.1361L22.3284 35.0579L22.2968 34.9878L22.2732 34.9179L22.2415 34.8475L22.2105 34.7697L22.1868 34.6993L22.1552 34.6293L22.1241 34.6993L22.1005 34.7697L22.0689 34.8475L22.0373 34.9179L22.014 34.9878L21.9825 35.0579L21.9509 35.1361L21.9198 35.2061L21.896 35.2761L21.8645 35.3465L21.8329 35.4165L21.8096 35.4943L21.7781 35.5647L21.7465 35.6346L21.7229 35.7046L21.6917 35.775L21.6601 35.8528L21.6286 35.9228L21.6055 35.9932L21.5738 36.0632L21.5422 36.141L21.5186 36.2115L21.4875 36.2814H21.5659H21.6444H21.7229H21.8018H21.8803H21.9587H22.0373H22.1162H22.1868H22.2652H22.3442H22.4227H22.5011H22.5797H22.6581H22.737H22.8155L22.7839 36.2115ZM25.252 38.5438H25.1731H25.1024H25.0241H24.9451H24.8666H24.7881H24.7175H24.6386H24.5601H24.4817H24.4031H24.3242H24.2536H24.1751H24.0966H24.0177H23.9393H23.8686H23.7902H23.7113L23.6801 38.4737L23.6564 38.4037L23.6249 38.3337L23.5933 38.256L23.5701 38.1864L23.5385 38.1165L23.5069 38.0465L23.4837 37.9765L23.4522 37.9065L23.4205 37.8366L23.397 37.7666L23.3658 37.6888L23.3342 37.6189L23.3105 37.5489L23.2789 37.4789H23.2004H23.122H23.0435H22.9651H22.894H22.8155H22.737H22.6581H22.5797H22.5011H22.4227H22.3442H22.2652H22.1868H22.1162H22.0373H21.9587H21.8803H21.8018H21.7229H21.6444H21.5659H21.4875H21.409H21.3379H21.2595H21.181H21.102H21.0235L20.9924 37.5489L20.9688 37.6189L20.9371 37.6888L20.9056 37.7666L20.8824 37.8366L20.8509 37.9065L20.8192 37.9765L20.7956 38.0465L20.7645 38.1165L20.7329 38.1864L20.7092 38.256L20.678 38.3337L20.6465 38.4037L20.6228 38.4737L20.5912 38.5438H20.5127H20.4343H20.3558H20.2769H20.1984H20.112H20.0336H19.955H19.8761H19.7977H19.7192H19.6407H19.5617H19.4833H19.4049H19.3185H19.2395H19.1611H19.0825H19.0041L19.0352 38.4737L19.0668 38.4037L19.0983 38.3337L19.1295 38.256L19.1531 38.1864L19.1847 38.1165L19.2163 38.0465L19.2474 37.9765L19.279 37.9065L19.3106 37.8287L19.3417 37.7588L19.3733 37.6888L19.3969 37.6189L19.4285 37.5489L19.4596 37.4789L19.4912 37.4012L19.5227 37.3312L19.5539 37.2611L19.5855 37.1912L19.617 37.1212L19.6407 37.0512L19.6718 36.9734L19.7034 36.9035L19.735 36.8335L19.7661 36.7635L19.7977 36.6935L19.8293 36.6235L19.8604 36.5457L19.8841 36.4758L19.9157 36.4058L19.9472 36.3358L19.9784 36.2658L20.0099 36.1958L20.0414 36.1181L20.0726 36.0481L20.1041 35.9781L20.1278 35.9082L20.1594 35.8382L20.1905 35.7683L20.2221 35.6905L20.2537 35.6205L20.2848 35.5505L20.3163 35.4805L20.3479 35.4106L20.3716 35.3405L20.4028 35.271L20.4343 35.1932L20.4658 35.1233L20.497 35.0532L20.5285 34.9832L20.5601 34.9133L20.5912 34.8433L20.6149 34.7655L20.6465 34.6956L20.678 34.6257L20.7092 34.5557L20.7408 34.4857L20.7723 34.4157L20.8035 34.3379L20.835 34.268L20.8587 34.198L20.8902 34.128L20.9214 34.058L20.9529 33.988L20.9845 33.9103L21.0156 33.8403L21.0472 33.7703L21.0788 33.7003L21.102 33.6304L21.1336 33.5603L21.1652 33.4826L21.1968 33.4126L21.2279 33.3426L21.2595 33.2726L21.291 33.2026L21.3221 33.1327L21.3459 33.0549L21.3774 32.9849L21.409 32.915L21.4401 32.845H21.5186H21.5896H21.6681H21.7465H21.8255H21.896H21.9745H22.053H22.132H22.2026H22.281H22.3595H22.4384H22.509H22.5875H22.6659H22.7449H22.8155H22.894L22.9255 32.915L22.9571 32.9849L22.9883 33.0549L23.0198 33.1327L23.0435 33.2026L23.0746 33.2726L23.1062 33.3426L23.1377 33.4126L23.1693 33.4826L23.2004 33.5603L23.232 33.6304L23.2636 33.7003L23.2868 33.7703L23.3184 33.8403L23.35 33.9103L23.3816 33.988L23.4127 34.058L23.4442 34.128L23.4758 34.198L23.5069 34.268L23.5306 34.3379L23.5621 34.4157L23.5933 34.4857L23.6249 34.5557L23.6564 34.6257L23.688 34.6956L23.7191 34.7655L23.7507 34.8433L23.7744 34.9133L23.8055 34.9832L23.837 35.0532L23.8686 35.1233L23.9003 35.1932L23.9313 35.271L23.9629 35.3405L23.9945 35.4106L24.0177 35.4805L24.0492 35.5505L24.0808 35.6205L24.112 35.6905L24.1435 35.7683L24.1751 35.8382L24.2068 35.9082L24.2378 35.9781L24.2615 36.0481L24.293 36.1181L24.3242 36.1958L24.3557 36.2658L24.3874 36.3358L24.4189 36.4058L24.45 36.4758L24.4817 36.5457L24.5053 36.6235L24.5364 36.6935L24.5679 36.7635L24.5996 36.8335L24.6306 36.9035L24.6622 36.9734L24.6939 37.0512L24.7255 37.1212L24.7486 37.1912L24.7802 37.2611L24.8118 37.3312L24.8429 37.4012L24.8745 37.4789L24.9061 37.5489L24.9376 37.6189L24.9687 37.6888L24.9924 37.7588L25.0241 37.8287L25.0551 37.9065L25.0867 37.9765L25.1182 38.0465L25.1493 38.1165L25.1809 38.1864L25.2125 38.256L25.2363 38.3337L25.2672 38.4037L25.2989 38.4737L25.3304 38.5438H25.252ZM18.367 37.8209L18.3039 37.8676L18.249 37.9065L18.1859 37.9532L18.1232 37.9921L18.0605 38.0387L17.9974 38.0776L17.9347 38.1165L17.8636 38.1553L17.793 38.1942L17.7224 38.2331L17.6514 38.2637L17.5808 38.3027L17.5024 38.3337L17.4318 38.3648L17.3528 38.3959L17.2823 38.427L17.2116 38.4504L17.1406 38.4737L17.07 38.4971L16.9916 38.5203L16.921 38.5438L16.8421 38.5593L16.7714 38.5748L16.693 38.5903L16.6141 38.6059L16.5356 38.6137L16.4492 38.6215L16.3707 38.6293L16.2843 38.637L16.2054 38.6448L16.1191 38.6525H16.0327H15.9462H15.8599H15.781L15.7025 38.6448L15.6161 38.637L15.5377 38.6293L15.4592 38.6215L15.3802 38.6137L15.3018 38.5981L15.2232 38.5825L15.1527 38.567L15.0738 38.5515L15.0032 38.5282L14.9247 38.5126L14.8537 38.4892L14.7831 38.4582L14.7124 38.4348L14.6341 38.4037L14.563 38.3726L14.4924 38.3416L14.4219 38.3105L14.3507 38.2716L14.2881 38.2331L14.2175 38.1942L14.1544 38.1553L14.0917 38.1165L14.0286 38.0698L13.9659 38.0232L13.9031 37.9765L13.8479 37.9299L13.7931 37.8832L13.7378 37.8287L13.683 37.7822L13.6277 37.7277L13.573 37.6732L13.5256 37.6189L13.4787 37.5567L13.4313 37.5022L13.3919 37.44L13.3449 37.3777L13.3056 37.3156L13.2665 37.2534L13.227 37.1834L13.1876 37.1212L13.1565 37.0512L13.1249 36.9812L13.0934 36.9112L13.0622 36.8413L13.0385 36.7791L13.0069 36.709L12.9911 36.639L12.9679 36.5691L12.9521 36.4914L12.9284 36.4213L12.9127 36.3436L12.9048 36.2736L12.8889 36.1958L12.8812 36.1259L12.8731 36.0481L12.8657 35.9703L12.8579 35.8926V35.8071V35.7293V35.7138V35.636L12.8657 35.5505V35.4728L12.8731 35.395L12.8812 35.3094L12.8969 35.2322L12.9048 35.1544L12.9205 35.0844L12.9442 35.0067L12.96 34.9289L12.9832 34.8589L13.0069 34.7812L13.0306 34.7112L13.0622 34.6334L13.0934 34.5635L13.1249 34.4935L13.1565 34.4235L13.1876 34.3535L13.227 34.2835L13.2665 34.2213L13.3056 34.159L13.3449 34.0968L13.3845 34.0347L13.4313 33.9725L13.4787 33.9103L13.5256 33.8481L13.573 33.7935L13.6277 33.7392L13.6751 33.6847L13.73 33.6304L13.7852 33.5758L13.8399 33.5293L13.9031 33.4748L13.9579 33.4281L14.0206 33.3815L14.0838 33.3426L14.1465 33.296L14.2097 33.2571L14.2723 33.2183L14.3429 33.1793L14.414 33.1405L14.4845 33.1016L14.5551 33.0705L14.6261 33.0394L14.7046 33.0005L14.7673 32.9772L14.8458 32.9538L14.9169 32.9228L14.9874 32.9071L15.058 32.8838L15.1369 32.8683L15.2075 32.845L15.2859 32.8294L15.3645 32.8216L15.4434 32.8061L15.5219 32.7983L15.6003 32.7906L15.6788 32.7828L15.7578 32.775H15.8442H15.9226H16.0089H16.0953L16.1822 32.7828L16.2686 32.7906H16.347L16.4255 32.7983L16.5119 32.8139L16.5829 32.8216L16.6614 32.8372L16.7399 32.8528L16.8109 32.8683L16.8814 32.8838L16.9521 32.8994L17.0232 32.9228L17.0937 32.9383L17.1564 32.9616L17.2275 32.9849L17.2981 33.016L17.3686 33.0471L17.4397 33.0783L17.5103 33.1171L17.5808 33.1483L17.644 33.1871L17.7146 33.226L17.7772 33.2648L17.8483 33.3038L17.911 33.3503L17.9737 33.3893L18.0368 33.4359L18.0995 33.4826L18.1626 33.537L18.2253 33.5837L18.178 33.6459L18.1232 33.7003L18.0758 33.7625L18.0211 33.8247L17.9737 33.887L17.9268 33.9413L17.8715 34.0035L17.8246 34.0657L17.7772 34.1203L17.7224 34.1825L17.6751 34.2446L17.6203 34.3068L17.5729 34.3613L17.526 34.4235L17.4708 34.4857L17.4238 34.5479L17.3686 34.6023L17.3217 34.6645L17.2585 34.6178L17.1958 34.5635L17.1327 34.5245L17.07 34.4779L17.0073 34.439L16.9442 34.4001L16.8814 34.3613L16.8109 34.3223L16.7478 34.2913L16.6851 34.2602L16.6219 34.2368L16.5513 34.2135L16.4808 34.1902L16.4097 34.1746L16.3313 34.159L16.2528 34.1435L16.1743 34.1358L16.0879 34.128L16.0011 34.1203H15.9147H15.8362L15.7578 34.128L15.6867 34.1358L15.6083 34.1513L15.5377 34.1669L15.4666 34.1902L15.3961 34.2135L15.3255 34.2446L15.2548 34.2757L15.1917 34.3145L15.1291 34.3535L15.0659 34.3924L15.0111 34.439L14.9558 34.4857L14.9011 34.5323L14.8537 34.5867L14.7989 34.6412L14.7515 34.7034L14.7124 34.7578L14.673 34.82L14.6341 34.89L14.5945 34.9522L14.563 35.0222L14.5393 35.0922L14.5082 35.1622L14.4845 35.2399L14.4687 35.3173L14.453 35.3872L14.4371 35.4728L14.4293 35.5505L14.4219 35.6282V35.7138V35.7293V35.8071L14.4293 35.8848L14.4371 35.9548L14.445 36.0326L14.4608 36.1025L14.4766 36.1726L14.4924 36.2425L14.5161 36.3125L14.5393 36.3747L14.5709 36.4524L14.6025 36.5225L14.6415 36.5925L14.6809 36.6547L14.7204 36.7168L14.7673 36.7791L14.8147 36.8335L14.8694 36.888L14.9169 36.9423L14.9716 36.989L15.0348 37.0357L15.0975 37.0823L15.1601 37.1212L15.2232 37.16L15.2939 37.1912L15.3645 37.2223L15.4354 37.2534L15.514 37.2767L15.5924 37.3L15.6714 37.3156L15.7499 37.3312L15.8283 37.3389L15.9147 37.3467H16.0011H16.0953L16.1822 37.3389L16.2686 37.3312L16.347 37.3234L16.4255 37.3077L16.5045 37.2922L16.5829 37.269L16.6535 37.2534L16.7242 37.2223L16.7873 37.1912L16.8578 37.16L16.913 37.129L16.9758 37.0901V37.0123V36.9346V36.8568V36.7791V36.6935V36.6158V36.538V36.4603V36.3825H16.8973H16.8263H16.7478H16.6693H16.5908H16.5198H16.4412H16.3628H16.2843H16.2134H16.1348H16.0564H15.9778H15.9069H15.8283V36.3048V36.2348V36.157V36.0793V36.0015V35.9315V35.8538V35.776V35.6983V35.6282V35.5505V35.4728V35.395V35.325V35.2477H15.9069H15.9858H16.0643H16.1427H16.2212H16.2997H16.3786H16.4571H16.5356H16.6141H16.693H16.7714H16.8499H16.9283H17.0073H17.0859H17.1643H17.2428H17.3217H17.4002H17.4787H17.5571H17.636H17.7146H17.793H17.8715H17.9504H18.0289H18.1074H18.1859H18.2648H18.3432H18.4218V35.325V35.4027V35.4805V35.5505V35.6282V35.706V35.7837V35.8615V35.9393V36.0092V36.087V36.1648V36.2425V36.3203V36.398V36.4758V36.5457V36.6235V36.7013V36.7791V36.8568V36.9346V37.0123V37.0823V37.16V37.2378V37.3156V37.3934V37.4711V37.5411V37.6189V37.6966V37.7744L18.367 37.8209Z" fill="white"/>
<path d="M15.8397 20.0777H19.2458V17.4825H15.8397V12.1844H19.3814V9.58919H12.9473V28.319H19.4352V25.7238H15.8397V20.0777Z" fill="white"/>
<path d="M40.2362 20.6398V24.8675C40.2362 25.6167 39.8847 25.9644 39.1551 25.9644H38.6142C37.8574 25.9644 37.5058 25.6167 37.5058 24.8675V13.0405C37.5058 12.2913 37.8574 11.9437 38.6142 11.9437H39.1008C39.8308 11.9437 40.1824 12.2913 40.1824 13.0405V16.7066H43.0205V12.88C43.0205 10.5524 41.8851 9.42848 39.5337 9.42848H38.1276C35.7761 9.42848 34.6133 10.5789 34.6133 12.907V25.001C34.6133 27.3292 35.7761 28.4795 38.1276 28.4795H39.5605C41.9126 28.4795 43.0748 27.3292 43.0748 25.001V20.6398H40.2362Z" fill="white"/>
<path d="M30.1919 28.319H33.0847V9.58911H30.1919V28.319Z" fill="white"/>
<path d="M25.9947 17.9105C25.9947 18.6598 25.6436 19.0078 24.9137 19.0078H23.724V12.1043H24.9137C25.6436 12.1043 25.9947 12.452 25.9947 13.2011V17.9105ZM25.373 9.5891H20.8315V28.319H23.724V21.5225H25.373C27.7249 21.5225 28.8872 20.3722 28.8872 18.0446V13.0676C28.8872 10.7395 27.7249 9.5891 25.373 9.5891Z" fill="white"/>
<path fill-rule="evenodd" clip-rule="evenodd" d="M19.771 45.2545H36.3294L27.8777 47.9999L19.771 45.2545Z" fill="white"/>
</g>
<rect x="1.06074" y="1.04982" width="53.9" height="53.9" rx="7.35" stroke="white" stroke-opacity="0.15" stroke-width="2.1"/>
<defs>
<filter id="filter0_d_28_3469" x="2.29646" y="2.28553" width="51.4286" height="51.4287" filterUnits="userSpaceOnUse" color-interpolation-filters="sRGB">
<feFlood flood-opacity="0" result="BackgroundImageFix"/>
<feColorMatrix in="SourceAlpha" type="matrix" values="0 0 0 0 0 0 0 0 0 0 0 0 0 0 0 0 0 0 127 0" result="hardAlpha"/>
<feOffset/>
<feGaussianBlur stdDeviation="2.85714"/>
<feComposite in2="hardAlpha" operator="out"/>
<feColorMatrix type="matrix" values="0 0 0 0 0 0 0 0 0 0 0 0 0 0 0 0 0 0 0.25 0"/>
<feBlend mode="normal" in2="BackgroundImageFix" result="effect1_dropShadow_28_3469"/>
<feBlend mode="normal" in="SourceGraphic" in2="effect1_dropShadow_28_3469" result="shape"/>
</filter>
<linearGradient id="paint0_linear_28_3469" x1="28.0107" y1="-0.000183105" x2="28.0107" y2="55.9998" gradientUnits="userSpaceOnUse">
<stop stop-color="#181818"/>
<stop offset="1" stop-color="#0F0F0F"/>
</linearGradient>
</defs>
</svg>
