<svg width="57" height="56" viewBox="0 0 57 56" fill="none" xmlns="http://www.w3.org/2000/svg">
<rect x="0.0107422" width="56" height="56" rx="8.4" fill="url(#paint0_linear_28_3403)"/>
<g filter="url(#filter0_d_28_3403)">
<path d="M47.2592 26.2206L29.7949 8.75631C29.556 8.51659 29.2722 8.32638 28.9596 8.19659C28.647 8.06681 28.3119 8 27.9735 8C27.6351 8 27.2999 8.06681 26.9874 8.19659C26.6748 8.32638 26.391 8.51659 26.1521 8.75631L22.5249 12.3835L27.1249 16.9835C27.6674 16.7989 28.2507 16.7703 28.8086 16.9012C29.3665 17.032 29.8763 17.3169 30.2802 17.7234C30.684 18.1299 30.9655 18.6416 31.0926 19.2004C31.2198 19.7591 31.1874 20.3422 30.9992 20.8835L35.4278 25.312C36.0897 25.0846 36.8096 25.0909 37.4675 25.3298C38.1254 25.5688 38.6816 26.026 39.0433 26.6252C39.405 27.2244 39.5505 27.9295 39.4555 28.6229C39.3605 29.3164 39.0307 29.9564 38.5212 30.4362C38.0116 30.916 37.353 31.2068 36.6551 31.2599C35.9571 31.3131 35.2621 31.1256 34.6857 30.7285C34.1093 30.3314 33.6863 29.7488 33.4873 29.0777C33.2883 28.4067 33.3253 27.6877 33.5921 27.0406L29.4563 22.9049V33.7863C30.0828 34.0967 30.5841 34.6124 30.8765 35.2474C31.169 35.8825 31.2351 36.5986 31.0638 37.2764C30.8924 37.9543 30.494 38.553 29.9349 38.9728C29.3758 39.3926 28.6898 39.6082 27.991 39.5836C27.2923 39.5591 26.6231 39.2958 26.0948 38.8378C25.5665 38.3798 25.2112 37.7546 25.0878 37.0664C24.9645 36.3782 25.0807 35.6685 25.4171 35.0556C25.7534 34.4426 26.2896 33.9634 26.9363 33.6977V22.7163C26.5622 22.5628 26.2221 22.3368 25.9357 22.0513C25.6493 21.7657 25.4222 21.4264 25.2675 21.0527C25.1128 20.6791 25.0335 20.2785 25.0343 19.8741C25.0351 19.4696 25.1159 19.0694 25.2721 18.6963L20.7435 14.1649L8.76777 26.1449C8.52783 26.3838 8.33744 26.6678 8.20753 26.9805C8.07762 27.2931 8.01074 27.6284 8.01074 27.967C8.01074 28.3056 8.07762 28.6409 8.20753 28.9536C8.33744 29.2663 8.52783 29.5502 8.76777 29.7892L26.2321 47.2477C26.471 47.4875 26.7548 47.6777 27.0674 47.8075C27.3799 47.9372 27.7151 48.0041 28.0535 48.0041C28.3919 48.0041 28.727 47.9372 29.0396 47.8075C29.3522 47.6777 29.636 47.4875 29.8749 47.2477L47.2592 29.8592C47.4991 29.6202 47.6895 29.3363 47.8194 29.0236C47.9494 28.7109 48.0162 28.3756 48.0162 28.037C48.0162 27.6984 47.9494 27.3631 47.8194 27.0505C47.6895 26.7378 47.4991 26.4538 47.2592 26.2149" fill="#DD4C35"/>
<path d="M22.5251 12.3835L27.1251 16.9835C27.6675 16.7989 28.2509 16.7703 28.8088 16.9012C29.3666 17.032 29.8765 17.3169 30.2803 17.7234C30.6842 18.1299 30.9657 18.6416 31.0928 19.2004C31.2199 19.7591 31.1875 20.3423 30.9994 20.8835L35.4279 25.312C36.0899 25.0846 36.8098 25.0909 37.4677 25.3299C38.1256 25.5688 38.6817 26.026 39.0435 26.6252C39.4052 27.2244 39.5507 27.9295 39.4557 28.6229C39.3607 29.3164 39.0309 29.9564 38.5213 30.4362C38.0117 30.916 37.3531 31.2068 36.6552 31.26C35.9573 31.3131 35.2622 31.1256 34.6858 30.7285C34.1094 30.3314 33.6865 29.7488 33.4875 29.0777C33.2885 28.4067 33.3255 27.6877 33.5922 27.0406L29.4565 22.9049V33.7863C30.083 34.0967 30.5842 34.6124 30.8767 35.2474C31.1692 35.8825 31.2353 36.5986 31.0639 37.2764C30.8926 37.9543 30.4942 38.553 29.9351 38.9728C29.376 39.3926 28.6899 39.6082 27.9912 39.5836C27.2925 39.5591 26.6232 39.2959 26.095 38.8378C25.5667 38.3798 25.2113 37.7546 25.088 37.0664C24.9647 36.3782 25.0809 35.6685 25.4172 35.0556C25.7536 34.4426 26.2898 33.9634 26.9365 33.6977V22.7163C26.5624 22.5628 26.2223 22.3368 25.9358 22.0513C25.6494 21.7658 25.4223 21.4264 25.2676 21.0527C25.1129 20.6791 25.0337 20.2785 25.0345 19.8741C25.0353 19.4696 25.1161 19.0694 25.2722 18.6963L20.7437 14.1649" fill="white"/>
</g>
<rect x="1.06074" y="1.05" width="53.9" height="53.9" rx="7.35" stroke="white" stroke-opacity="0.15" stroke-width="2.1"/>
<defs>
<filter id="filter0_d_28_3403" x="2.29646" y="2.28571" width="51.4339" height="51.4326" filterUnits="userSpaceOnUse" color-interpolation-filters="sRGB">
<feFlood flood-opacity="0" result="BackgroundImageFix"/>
<feColorMatrix in="SourceAlpha" type="matrix" values="0 0 0 0 0 0 0 0 0 0 0 0 0 0 0 0 0 0 127 0" result="hardAlpha"/>
<feOffset/>
<feGaussianBlur stdDeviation="2.85714"/>
<feComposite in2="hardAlpha" operator="out"/>
<feColorMatrix type="matrix" values="0 0 0 0 0 0 0 0 0 0 0 0 0 0 0 0 0 0 0.25 0"/>
<feBlend mode="normal" in2="BackgroundImageFix" result="effect1_dropShadow_28_3403"/>
<feBlend mode="normal" in="SourceGraphic" in2="effect1_dropShadow_28_3403" result="shape"/>
</filter>
<linearGradient id="paint0_linear_28_3403" x1="28.0107" y1="0" x2="28.0107" y2="56" gradientUnits="userSpaceOnUse">
<stop stop-color="#361712"/>
<stop offset="1" stop-color="#1D0C09"/>
</linearGradient>
</defs>
</svg>
