<svg width="57" height="56" viewBox="0 0 57 56" fill="none" xmlns="http://www.w3.org/2000/svg">
<rect x="0.0107422" y="-0.000244141" width="56" height="56" rx="8.4" fill="url(#paint0_linear_2_1273)"/>
<g filter="url(#filter0_d_2_1273)">
<path d="M15.0259 16.5728C14.6142 16.5728 14.1509 16.6037 13.6259 16.7088C13.0709 16.8169 11.4926 17.146 10.2026 18.2953C7.33927 20.662 8.06927 24.4236 8.15927 24.9906C8.2676 25.6795 8.5976 27.5967 10.1759 29.2666C13.0909 32.5741 19.3642 32.4984 19.3642 32.4984C19.3642 32.4984 20.1342 34.2023 21.3109 35.7718C22.9025 37.723 24.5375 39.2446 26.1275 39.4284C30.1375 39.4284 38.1475 39.4222 38.1475 39.4222C38.1475 39.4222 38.9108 39.4284 39.9474 38.8136C40.8391 38.3131 41.6358 37.4341 41.6358 37.4341C41.6358 37.4341 42.4558 36.62 43.6024 34.7615C43.9524 34.19 44.2441 33.6354 44.4991 33.1117C44.4991 33.1117 48.0107 26.2048 48.0107 19.4817C47.9407 17.4457 47.3991 17.0873 47.2724 16.9683C47.0124 16.7273 46.6624 16.7319 46.6624 16.7319C46.6624 16.7319 39.2041 17.1212 35.3425 17.2047C34.4958 17.2217 33.6558 17.2402 32.8225 17.2464V24.1579L31.7658 23.6929C31.7658 21.5456 31.7592 17.251 31.7592 17.251C29.9142 17.2757 26.0842 17.1212 26.0842 17.1212C26.0842 17.1212 17.0859 16.7041 16.1059 16.6207C15.7942 16.6037 15.4376 16.5713 15.0259 16.5713V16.5728ZM15.6159 19.4029H15.8009C15.8009 19.4029 16.2526 22.9081 16.8009 24.9597C17.2592 26.6821 18.3776 29.5447 18.3776 29.5447C18.3776 29.5447 16.7176 29.3608 15.6426 29.0071C13.9926 28.5066 13.2942 27.9041 13.2942 27.9041C13.2942 27.9041 12.0776 27.1147 11.4676 25.556C10.4176 22.9483 11.3793 21.3571 11.3793 21.3571C11.3793 21.3571 11.9126 20.0301 13.8292 19.5883C14.4876 19.4246 15.2676 19.4029 15.6159 19.4029ZM29.4992 23.3484C29.9325 23.353 30.3475 23.5446 30.3475 23.5446L31.7942 24.1965L30.9125 25.8572C30.7035 25.8541 30.4976 25.9042 30.3172 26.002C30.1368 26.0997 29.9888 26.2415 29.8892 26.4118C29.7827 26.5957 29.7372 26.8047 29.7586 27.0126C29.7799 27.2204 29.8671 27.4177 30.0092 27.5797L28.4442 30.5519C28.1894 30.5555 27.9432 30.6374 27.7441 30.7847C27.545 30.9321 27.4043 31.1365 27.3442 31.366C27.2867 31.5941 27.3123 31.8334 27.4169 32.0466C27.5215 32.2598 27.6993 32.4349 27.9225 32.5447C28.1648 32.6598 28.4435 32.691 28.7083 32.6327C28.9732 32.5744 29.207 32.4303 29.3675 32.2265C29.5242 32.0231 29.5986 31.775 29.5776 31.5258C29.5566 31.2766 29.4415 31.0423 29.2525 30.864L30.7792 27.969C30.9118 27.9807 31.0456 27.9702 31.1742 27.9381C31.3405 27.9012 31.4952 27.8287 31.6258 27.7264C32.208 27.956 32.7736 28.2202 33.3191 28.5174C33.5173 28.6204 33.6819 28.7709 33.7958 28.953C33.9175 29.2774 33.6741 29.832 33.6741 29.832C33.5291 30.28 32.5042 32.2265 32.5042 32.2265C32.2558 32.2204 32.0119 32.2889 31.8089 32.4217C31.6059 32.5544 31.4546 32.7444 31.3775 32.9634C31.3184 33.1391 31.31 33.3261 31.3533 33.5057C31.3965 33.6854 31.4898 33.8514 31.624 33.9871C31.7581 34.1229 31.9283 34.2236 32.1175 34.2793C32.3068 34.335 32.5085 34.3437 32.7025 34.3045C32.8966 34.2654 33.0761 34.1797 33.2233 34.0561C33.3704 33.9325 33.48 33.7752 33.541 33.6001C33.6021 33.4249 33.6125 33.238 33.5712 33.058C33.5299 32.8779 33.4384 32.7111 33.3058 32.5741C33.4275 32.3562 33.5408 32.1384 33.6625 31.9083C33.9791 31.295 34.5208 30.1163 34.5208 30.1163C34.5791 30.0143 34.8841 29.5076 34.6925 28.8588C34.5341 28.1868 33.8925 27.8732 33.8925 27.8732C33.1141 27.4082 32.0325 26.9772 32.0325 26.9772C32.0325 26.9772 32.0325 26.7362 31.9625 26.5601C31.909 26.4215 31.825 26.2947 31.7158 26.1878L32.5758 24.5472L37.3925 26.7115C37.3925 26.7115 38.1925 27.0483 38.3641 27.6677C38.4858 28.1034 38.3325 28.4927 38.2491 28.6827C37.8491 29.5895 34.7491 35.3517 34.7491 35.3517C34.7491 35.3517 34.3625 36.2075 33.5025 36.26C33.2814 36.275 33.0592 36.2514 32.8475 36.1905L32.5108 36.0669L25.3275 32.8228C25.3275 32.8228 24.6325 32.486 24.5109 31.9021C24.3725 31.4232 24.6842 30.8346 24.6842 30.8346L28.1392 24.2351C28.1392 24.2351 28.4442 23.6636 28.9158 23.4674C29.099 23.39 29.2978 23.3494 29.4992 23.3484V23.3484Z" fill="#609926"/>
</g>
<rect x="1.06074" y="1.04976" width="53.9" height="53.9" rx="7.35" stroke="white" stroke-opacity="0.15" stroke-width="2.1"/>
<defs>
<filter id="filter0_d_2_1273" x="2.29646" y="2.28547" width="51.4286" height="51.4286" filterUnits="userSpaceOnUse" color-interpolation-filters="sRGB">
<feFlood flood-opacity="0" result="BackgroundImageFix"/>
<feColorMatrix in="SourceAlpha" type="matrix" values="0 0 0 0 0 0 0 0 0 0 0 0 0 0 0 0 0 0 127 0" result="hardAlpha"/>
<feOffset/>
<feGaussianBlur stdDeviation="2.85714"/>
<feComposite in2="hardAlpha" operator="out"/>
<feColorMatrix type="matrix" values="0 0 0 0 0 0 0 0 0 0 0 0 0 0 0 0 0 0 0.25 0"/>
<feBlend mode="normal" in2="BackgroundImageFix" result="effect1_dropShadow_2_1273"/>
<feBlend mode="normal" in="SourceGraphic" in2="effect1_dropShadow_2_1273" result="shape"/>
</filter>
<linearGradient id="paint0_linear_2_1273" x1="28.0107" y1="-0.000244141" x2="28.0107" y2="55.9997" gradientUnits="userSpaceOnUse">
<stop stop-color="#263813"/>
<stop offset="1" stop-color="#131F07"/>
</linearGradient>
</defs>
</svg>
