<svg width="57" height="56" viewBox="0 0 57 56" fill="none" xmlns="http://www.w3.org/2000/svg">
<rect x="0.0107422" y="-0.000183105" width="56" height="56" rx="8.4" fill="url(#paint0_linear_28_3500)"/>
<g filter="url(#filter0_d_28_3500)">
<path d="M33.3344 7.99988C29.9473 8.65492 27.5526 9.99864 26.1197 11.8635L30.9278 14.636C31.5285 14.3508 32.1875 14.1879 32.8761 14.1778C33.2662 14.1723 33.6659 14.2157 34.0688 14.313C34.3699 12.4952 34.1477 10.3826 33.3345 7.99988H33.3344ZM25.0938 13.1002L17.7171 25.8588L25.6159 30.4189L27.4715 27.2094C26.6292 26.3795 26.2772 25.1168 26.2336 23.8012C26.1802 22.1923 26.5712 20.4033 27.2992 18.7857C27.8395 17.5852 28.5638 16.4728 29.4807 15.6316L25.0939 13.1001L25.0938 13.1002ZM42.6065 13.3491C40.1133 13.8313 38.16 14.6876 36.7299 15.8489C37.5213 16.6794 37.943 17.6927 38.0261 18.7326L42.821 21.4974C43.7277 19.3214 43.7101 16.5833 42.6064 13.3491H42.6065ZM11.9759 14.0323L8.758 19.6012L17.4096 23.2238L22.5678 14.2999L11.9761 14.0323L11.9759 14.0323ZM32.8944 15.7244C32.3401 15.7333 31.8265 15.9159 31.3199 16.2197C30.307 16.8273 29.3796 18.0274 28.7463 19.4346C28.1129 20.8417 27.7726 22.4439 27.8158 23.7484C27.8591 25.0514 28.2673 25.957 28.9026 26.3249C28.9033 26.3252 28.9048 26.3246 28.9054 26.3249C29.5418 26.6906 30.5297 26.592 31.6805 25.978C32.8327 25.3634 34.0512 24.269 34.9541 23.0175C35.857 21.7659 36.4342 20.3609 36.4544 19.1805C36.4745 17.9998 36.0572 17.0415 34.7156 16.2675C34.0447 15.8804 33.4489 15.7158 32.8946 15.7245L32.8944 15.7244ZM37.8828 20.4806C37.6115 21.6936 37.0094 22.877 36.2394 23.9443C35.2016 25.3832 33.8492 26.6155 32.428 27.3737C31.2625 27.9956 29.9856 28.3228 28.8418 28.004L26.9889 31.2082L34.8876 35.7655L42.2591 23.0044L37.883 20.4806L37.8828 20.4806ZM42.4817 25.7874L37.3262 34.7143L44.7929 40.3919L48.0107 34.8203L42.4816 25.7875L42.4817 25.7874ZM19.0158 28.4382C17.1093 29.2721 15.6459 30.3998 14.621 31.7722L22.0427 36.0542C22.7246 34.4797 22.9801 32.6563 22.7636 30.6018L19.0157 28.4384L19.0158 28.4382ZM13.9188 33.1969L8.01074 43.4131V46.5778L15.2919 33.9885L13.9188 33.1968L13.9188 33.1969ZM28.2877 33.7873C26.3809 34.6211 24.9182 35.7484 23.8932 37.1213L31.3149 41.4035C31.997 39.8281 32.2526 38.0037 32.0358 35.9483L28.2877 33.7874V33.7873ZM16.8294 34.8757L9.19567 47.9999H11.0295L18.2047 35.6702L16.8289 34.8758L16.8294 34.8757ZM19.7503 36.56L13.1531 47.9999H14.9818L21.1207 37.3518L19.7504 36.56H19.7503ZM23.2146 38.5592L17.8523 47.9998H19.676L24.5875 39.351L23.2145 38.5592H23.2146ZM26.1355 40.2461L21.8044 47.9998H23.6174L27.5084 41.0353L26.1354 40.246L26.1355 40.2461ZM29.0565 41.9303L25.7538 47.9999H27.5615L30.4321 42.7223L29.0563 41.9304L29.0565 41.9303Z" fill="#6E93B7"/>
</g>
<rect x="1.06074" y="1.04982" width="53.9" height="53.9" rx="7.35" stroke="white" stroke-opacity="0.15" stroke-width="2.1"/>
<defs>
<filter id="filter0_d_28_3500" x="2.29646" y="2.28553" width="51.4286" height="51.4286" filterUnits="userSpaceOnUse" color-interpolation-filters="sRGB">
<feFlood flood-opacity="0" result="BackgroundImageFix"/>
<feColorMatrix in="SourceAlpha" type="matrix" values="0 0 0 0 0 0 0 0 0 0 0 0 0 0 0 0 0 0 127 0" result="hardAlpha"/>
<feOffset/>
<feGaussianBlur stdDeviation="2.85714"/>
<feComposite in2="hardAlpha" operator="out"/>
<feColorMatrix type="matrix" values="0 0 0 0 0 0 0 0 0 0 0 0 0 0 0 0 0 0 0.25 0"/>
<feBlend mode="normal" in2="BackgroundImageFix" result="effect1_dropShadow_28_3500"/>
<feBlend mode="normal" in="SourceGraphic" in2="effect1_dropShadow_28_3500" result="shape"/>
</filter>
<linearGradient id="paint0_linear_28_3500" x1="28.0107" y1="-0.000183105" x2="28.0107" y2="55.9998" gradientUnits="userSpaceOnUse">
<stop stop-color="#1E2833"/>
<stop offset="1" stop-color="#141B22"/>
</linearGradient>
</defs>
</svg>
