<svg width="57" height="56" viewBox="0 0 57 56" fill="none" xmlns="http://www.w3.org/2000/svg">
<g clip-path="url(#clip0_1_124)">
<rect x="0.0107422" y="-0.000244141" width="56" height="56" rx="8.4" fill="url(#paint0_linear_1_124)"/>
<g filter="url(#filter0_d_1_124)">
<path d="M9.39234 15.1429V15.8639C14.4291 19.6355 13.3324 36.3269 10.7975 41.8185H10.0949L7.28461 40.3766L6.58203 43.2604C10.3282 44.879 13.338 41.9288 14.5443 38.2137C16.9092 30.9334 14.8443 22.3842 17.1207 15.1429H9.39234ZM19.2284 15.1429V15.8639C23.7284 19.2335 24.9052 25.6876 26.4881 31.0041C27.2307 33.4964 27.2012 36.5274 29.767 37.4927L33.9825 24.5154H34.6851L38.9005 37.4927H39.6031C42.5771 30.6703 43.2136 20.5257 49.4392 15.8639V15.1429H41.7108L43.8186 16.5849L40.3057 30.2831C37.6619 24.8567 36.3811 20.3965 38.198 15.1429H30.4696L33.5139 21.3913L30.4696 31.0041H29.767L27.6593 15.1429H19.2284Z" fill="white"/>
</g>
</g>
<rect x="1.06074" y="1.04976" width="53.9" height="53.9" rx="7.35" stroke="white" stroke-opacity="0.15" stroke-width="2.1"/>
<defs>
<filter id="filter0_d_1_124" x="0.867746" y="2.28547" width="54.2855" height="51.4286" filterUnits="userSpaceOnUse" color-interpolation-filters="sRGB">
<feFlood flood-opacity="0" result="BackgroundImageFix"/>
<feColorMatrix in="SourceAlpha" type="matrix" values="0 0 0 0 0 0 0 0 0 0 0 0 0 0 0 0 0 0 127 0" result="hardAlpha"/>
<feOffset/>
<feGaussianBlur stdDeviation="2.85714"/>
<feComposite in2="hardAlpha" operator="out"/>
<feColorMatrix type="matrix" values="0 0 0 0 0 0 0 0 0 0 0 0 0 0 0 0 0 0 0.25 0"/>
<feBlend mode="normal" in2="BackgroundImageFix" result="effect1_dropShadow_1_124"/>
<feBlend mode="normal" in="SourceGraphic" in2="effect1_dropShadow_1_124" result="shape"/>
</filter>
<linearGradient id="paint0_linear_1_124" x1="28.0107" y1="-0.000244141" x2="28.0107" y2="55.9997" gradientUnits="userSpaceOnUse">
<stop stop-color="#3A0809"/>
<stop offset="1" stop-color="#230506"/>
</linearGradient>
<clipPath id="clip0_1_124">
<rect x="0.0107422" y="-0.000244141" width="56" height="56" rx="8.4" fill="white"/>
</clipPath>
</defs>
</svg>
