<svg width="56" height="56" viewBox="0 0 56 56" fill="none" xmlns="http://www.w3.org/2000/svg">
<g clip-path="url(#clip0_1_124)">
<rect width="56" height="56" rx="8.4" fill="url(#paint0_linear_1_124)"/>
<g filter="url(#filter0_d_1_124)">
<path d="M9.38159 15.1432V15.8641C14.4184 19.6357 13.3216 36.3272 10.7867 41.8187H10.0842L7.27387 40.3768L6.57129 43.2607C10.3174 44.8792 13.3273 41.9291 14.5336 38.2139C16.8985 30.9337 14.8336 22.3844 17.1099 15.1432H9.38159ZM19.2177 15.1432V15.8641C23.7177 19.2338 24.8945 25.6879 26.4774 31.0043C27.22 33.4967 27.1905 36.5276 29.7563 37.493L33.9718 24.5157H34.6743L38.8898 37.493H39.5924C42.5664 30.6705 43.2029 20.526 49.4284 15.8641V15.1432H41.7001L43.8078 16.5851L40.2949 30.2834C37.6511 24.8569 36.3704 20.3968 38.1872 15.1432H30.4589L33.5031 21.3915L30.4589 31.0043H29.7563L27.6486 15.1432H19.2177Z" fill="white"/>
</g>
</g>
<rect x="1.05" y="1.05" width="53.9" height="53.9" rx="7.35" stroke="white" stroke-opacity="0.15" stroke-width="2.1"/>
<defs>
<filter id="filter0_d_1_124" x="0.857004" y="2.28571" width="54.2855" height="51.4286" filterUnits="userSpaceOnUse" color-interpolation-filters="sRGB">
<feFlood flood-opacity="0" result="BackgroundImageFix"/>
<feColorMatrix in="SourceAlpha" type="matrix" values="0 0 0 0 0 0 0 0 0 0 0 0 0 0 0 0 0 0 127 0" result="hardAlpha"/>
<feOffset/>
<feGaussianBlur stdDeviation="2.85714"/>
<feComposite in2="hardAlpha" operator="out"/>
<feColorMatrix type="matrix" values="0 0 0 0 0 0 0 0 0 0 0 0 0 0 0 0 0 0 0.25 0"/>
<feBlend mode="normal" in2="BackgroundImageFix" result="effect1_dropShadow_1_124"/>
<feBlend mode="normal" in="SourceGraphic" in2="effect1_dropShadow_1_124" result="shape"/>
</filter>
<linearGradient id="paint0_linear_1_124" x1="28" y1="0" x2="28" y2="56" gradientUnits="userSpaceOnUse">
<stop stop-color="#3A0809"/>
<stop offset="1" stop-color="#230506"/>
</linearGradient>
<clipPath id="clip0_1_124">
<rect width="56" height="56" rx="8.4" fill="white"/>
</clipPath>
</defs>
</svg>
