<svg width="57" height="56" viewBox="0 0 57 56" fill="none" xmlns="http://www.w3.org/2000/svg">
<rect x="0.0107422" y="-0.000183105" width="56" height="56" rx="8.4" fill="url(#paint0_linear_28_3455)"/>
<g filter="url(#filter0_d_28_3455)">
<path d="M43.3898 20.9229C43.1557 21.1029 39.0228 23.4111 39.0228 28.5436C39.0228 34.4802 44.2818 36.5804 44.4392 36.6324C44.415 36.7605 43.6037 39.5087 41.6664 42.309C39.939 44.7733 38.1349 47.2335 35.3904 47.2335C32.646 47.2335 31.9397 45.6533 28.7714 45.6533C25.6838 45.6533 24.586 47.2855 22.0757 47.2855C19.5653 47.2855 17.8136 45.0053 15.7997 42.205C13.4668 38.9167 11.582 33.8082 11.582 28.9597C11.582 21.1829 16.6835 17.0585 21.7043 17.0585C24.3721 17.0585 26.596 18.7947 28.2709 18.7947C29.8651 18.7947 32.3513 16.9545 35.3864 16.9545C36.5367 16.9545 40.6695 17.0585 43.3898 20.9229V20.9229ZM33.9455 13.6622C35.2007 12.186 36.0887 10.1378 36.0887 8.0896C36.0887 7.80557 36.0645 7.51755 36.012 7.28552C33.9698 7.36153 31.5401 8.63366 30.075 10.3178C28.9248 11.614 27.8512 13.6622 27.8512 15.7384C27.8512 16.0504 27.9036 16.3624 27.9279 16.4624C28.057 16.4864 28.2669 16.5144 28.4768 16.5144C30.3091 16.5144 32.6137 15.2983 33.9455 13.6622Z" fill="white"/>
</g>
<rect x="1.06074" y="1.04982" width="53.9" height="53.9" rx="7.35" stroke="white" stroke-opacity="0.15" stroke-width="2.1"/>
<defs>
<filter id="filter0_d_28_3455" x="2.29646" y="1.57124" width="51.4286" height="52.1429" filterUnits="userSpaceOnUse" color-interpolation-filters="sRGB">
<feFlood flood-opacity="0" result="BackgroundImageFix"/>
<feColorMatrix in="SourceAlpha" type="matrix" values="0 0 0 0 0 0 0 0 0 0 0 0 0 0 0 0 0 0 127 0" result="hardAlpha"/>
<feOffset/>
<feGaussianBlur stdDeviation="2.85714"/>
<feComposite in2="hardAlpha" operator="out"/>
<feColorMatrix type="matrix" values="0 0 0 0 0 0 0 0 0 0 0 0 0 0 0 0 0 0 0.25 0"/>
<feBlend mode="normal" in2="BackgroundImageFix" result="effect1_dropShadow_28_3455"/>
<feBlend mode="normal" in="SourceGraphic" in2="effect1_dropShadow_28_3455" result="shape"/>
</filter>
<linearGradient id="paint0_linear_28_3455" x1="28.0107" y1="-0.000183105" x2="28.0107" y2="55.9998" gradientUnits="userSpaceOnUse">
<stop stop-color="#1E1E1E"/>
<stop offset="1" stop-color="#0D0D0D"/>
</linearGradient>
</defs>
</svg>
