<svg width="57" height="56" viewBox="0 0 57 56" fill="none" xmlns="http://www.w3.org/2000/svg">
<rect x="0.0107422" y="-0.000183105" width="56" height="56" rx="8.4" fill="url(#paint0_linear_28_3506)"/>
<g filter="url(#filter0_d_28_3506)">
<path d="M26.0217 8.11341C19.1205 8.79888 13.1287 12.9384 10.0258 19.17C8.99154 21.2442 8.29607 23.63 8.06424 25.8912L8.01074 26.4075H9.79401C10.7748 26.4075 11.5773 26.3808 11.5862 26.3363C11.6843 24.8852 12.3262 22.6063 13.102 20.9772C15.8571 15.2085 21.5903 11.5853 27.9388 11.5853C30.6315 11.5853 32.9141 12.1105 35.2502 13.2678C37.9072 14.5853 40.0382 16.4548 41.6699 18.8851C42.3921 19.9623 43.3908 21.9297 43.2659 22.0365C43.2214 22.081 42.5081 22.2947 41.6877 22.5083L40.1898 22.9089L39.7975 22.1433C38.5314 19.6151 36.4182 17.4964 33.9216 16.2412C33.0211 15.7871 32.0938 15.44 31.9511 15.4934C31.8887 15.5112 31.8084 15.7248 31.7817 15.9652C31.746 16.1966 31.648 16.8109 31.5499 17.3272C31.4607 17.8436 31.3626 18.4133 31.3359 18.5913L31.2735 18.9207L32.0314 19.2768C34.6349 20.4875 36.5163 22.7309 37.3098 25.5618C37.5417 26.3808 37.5684 26.5678 37.5684 28.0099C37.5684 29.4521 37.5417 29.639 37.3098 30.458C36.8373 32.1317 35.9991 33.6094 34.8489 34.7667C34.1891 35.4344 33.2172 36.1555 32.5128 36.5205C32.2721 36.6362 32.0849 36.7875 32.0849 36.8499C32.0938 37.0012 32.9408 40.117 33.0032 40.1704C33.0835 40.2505 34.5903 39.4493 35.4731 38.8618C36.5787 38.1229 38.1123 36.5917 38.8524 35.4878C39.8867 33.9388 40.5286 32.4521 40.9299 30.6717C41.0993 29.8883 41.1349 29.4877 41.1349 28.0366C41.1349 26.5945 41.1528 26.3185 41.2687 26.2918C42.3565 25.9802 44.2378 25.5173 44.2735 25.544C44.3359 25.6152 44.434 27.1019 44.434 28.0099C44.434 29.2384 44.3181 30.4402 44.1219 31.3038C44.0327 31.7133 43.9614 32.0604 43.9703 32.0693C43.9792 32.0872 44.7282 32.3542 45.6288 32.6836C46.8771 33.1376 47.2872 33.2533 47.3407 33.1643C47.4834 32.924 47.8668 30.5738 47.9649 29.3186C48.1699 26.5143 47.6795 23.2917 46.6542 20.7546C43.7653 13.6061 37.4525 8.85229 29.8558 8.11341C28.3311 7.96207 27.5286 7.96207 26.0217 8.11341Z" fill="#00D845"/>
<path d="M26.4676 14.8969C25.8167 14.9592 24.3633 15.3064 23.6232 15.5646C19.9765 16.8465 16.9717 19.7753 15.6164 23.3807C14.5642 26.1671 14.5286 29.6657 15.5272 32.3987L15.7501 33.0041L14.9298 33.4759C13.2892 34.4284 12.995 34.5976 12.9326 34.5976C12.8523 34.5976 12.46 33.6094 12.2103 32.7726C11.925 31.7756 11.6219 30.3334 11.5862 29.6746C11.5773 29.639 10.7748 29.6123 9.79401 29.6123H8.01074L8.06424 30.1197C8.53681 34.7222 10.6589 39.0665 14.0382 42.3514C21.9648 50.043 34.6171 49.856 42.3476 41.933C43.364 40.8826 44.3716 39.5917 45.0849 38.4166C45.7001 37.3929 46.1727 36.4314 46.1013 36.3602C46.0657 36.3246 45.6377 36.1555 45.1473 35.9774C44.6569 35.7994 43.9971 35.559 43.6761 35.4522C43.3551 35.3365 43.0341 35.2118 42.9628 35.1851C42.8647 35.1495 42.7399 35.3008 42.4902 35.7816C40.9923 38.7015 38.1925 41.3544 35.0272 42.8678C32.3256 44.1497 29.5794 44.6304 26.3249 44.3722C23.1418 44.123 19.5931 42.5562 17.0162 40.2683C16.2851 39.6184 15.2241 38.479 14.8228 37.9092C14.6891 37.7134 14.6177 37.7668 16.6863 36.565L17.4621 36.111L18.5588 37.2059C20.5204 39.1733 22.6246 40.3306 25.3174 40.936C26.1109 41.1051 26.4943 41.1407 27.9566 41.1407C28.8928 41.1407 29.6864 41.114 29.7131 41.0873C29.7488 41.0606 29.6061 40.4374 29.41 39.7075C29.2138 38.9775 29.0087 38.2208 28.9552 38.016L28.8571 37.651L27.5999 37.5976C25.2282 37.4997 23.3468 36.7519 21.5814 35.2029C21.2872 34.9448 20.9573 34.6243 20.8592 34.4996L20.6809 34.2682L22.6514 33.1287L24.6308 31.9981L26.6994 34.1881L29.08 33.6984L31.4607 33.2177L34.6706 30.0129L34.3853 28.9624C34.2069 28.2948 34.0643 27.9209 33.9929 27.9209C33.9216 27.9209 33.1994 28.0989 32.3791 28.3215L30.8811 28.731L30.257 29.3363C29.5794 29.9951 29.6774 29.9684 28.2062 30.1019L27.6713 30.1553L27.0293 29.5233C26.6726 29.185 26.3784 28.8823 26.3784 28.8645C26.3784 28.8378 26.2803 28.4639 26.1644 28.0188L25.9504 27.2087L26.53 26.4342C26.851 25.998 27.1274 25.6419 27.1452 25.6241C27.1541 25.6063 27.5375 25.4906 28.0012 25.3748L28.8304 25.1612L29.9628 24.0306C30.5958 23.4074 31.1041 22.8555 31.1041 22.8021C31.1041 22.7487 30.7652 22.3748 30.3551 21.9653L29.6061 21.2264L27.4394 21.8139L25.2639 22.4015L24.818 22.8644C24.5773 23.1226 24.0691 23.6745 23.7035 24.0929C23.3379 24.5024 22.8743 25.0277 22.6781 25.2502C21.9202 26.1048 21.947 25.8467 22.4195 27.4669C22.6425 28.2592 22.8208 28.9268 22.8029 28.9357C22.7584 28.9714 20.9127 30.0485 19.7714 30.6895C19.3434 30.9298 18.96 31.1257 18.9065 31.1257C18.8619 31.1257 18.7282 30.7518 18.6123 30.2978C18.425 29.5945 18.3983 29.274 18.3983 27.9654C18.4072 26.5856 18.425 26.3719 18.6568 25.5618C19.1383 23.8526 19.9676 22.4193 21.1623 21.2264C22.8029 19.5884 24.9607 18.5824 27.1541 18.4311C28.0814 18.3599 28.0101 18.4311 28.1617 17.4607C28.2152 17.1136 28.2954 16.6774 28.34 16.4815C28.3846 16.2857 28.4381 15.9652 28.4648 15.7693C28.5005 15.5735 28.5451 15.2797 28.5718 15.1195L28.6253 14.8346L27.7069 14.8524C27.1987 14.8524 26.637 14.8791 26.4676 14.8969Z" fill="#00D845"/>
</g>
<rect x="1.06074" y="1.04982" width="53.9" height="53.9" rx="7.35" stroke="white" stroke-opacity="0.15" stroke-width="2.1"/>
<defs>
<filter id="filter0_d_28_3506" x="2.29646" y="2.28553" width="51.4286" height="51.4286" filterUnits="userSpaceOnUse" color-interpolation-filters="sRGB">
<feFlood flood-opacity="0" result="BackgroundImageFix"/>
<feColorMatrix in="SourceAlpha" type="matrix" values="0 0 0 0 0 0 0 0 0 0 0 0 0 0 0 0 0 0 127 0" result="hardAlpha"/>
<feOffset/>
<feGaussianBlur stdDeviation="2.85714"/>
<feComposite in2="hardAlpha" operator="out"/>
<feColorMatrix type="matrix" values="0 0 0 0 0 0 0 0 0 0 0 0 0 0 0 0 0 0 0.25 0"/>
<feBlend mode="normal" in2="BackgroundImageFix" result="effect1_dropShadow_28_3506"/>
<feBlend mode="normal" in="SourceGraphic" in2="effect1_dropShadow_28_3506" result="shape"/>
</filter>
<linearGradient id="paint0_linear_28_3506" x1="28.0107" y1="-0.000183105" x2="28.0107" y2="55.9998" gradientUnits="userSpaceOnUse">
<stop stop-color="#072C13"/>
<stop offset="1" stop-color="#041C0B"/>
</linearGradient>
</defs>
</svg>
