<svg width="57" height="56" viewBox="0 0 57 56" fill="none" xmlns="http://www.w3.org/2000/svg">
<g clip-path="url(#clip0_4_42)">
<rect x="0.0107422" y="-0.000244141" width="56" height="56" rx="8.4" fill="url(#paint0_linear_4_42)"/>
<g filter="url(#filter0_d_4_42)">
<path d="M9.60123 27.9372L9.71441 28.6915L10.4504 28.4913L16.2837 26.9043L16.9012 26.7363L16.7697 26.1101L15.9601 22.2559L16.5406 17.8339L19.705 22.6546L19.906 22.9608H20.2722H21.9389H22.3052L22.5062 22.6546L25.6705 17.8339L26.251 22.2559L25.4415 26.1101L25.3099 26.7363L25.9274 26.9043L31.7607 28.4913L32.4967 28.6915L32.6099 27.9372L33.4432 22.3829L33.4574 22.2885L33.445 22.1939L31.7783 9.49848L31.7221 9.07059L31.3108 8.94003L26.3108 7.3531L25.9283 7.23169L25.6376 7.50845L21.1056 11.8237L16.5735 7.50845L16.2829 7.23169L15.9003 7.3531L10.9003 8.94003L10.489 9.07059L10.4328 9.49848L8.76617 22.1939L8.75374 22.2885L8.7679 22.3829L9.60123 27.9372Z" fill="url(#paint1_linear_4_42)" stroke="#544125" stroke-width="1.35714"/>
<circle cx="26.2252" cy="13.3569" r="1.78571" fill="black"/>
<circle cx="16.2247" cy="13.3569" r="1.78571" fill="black"/>
<path d="M46.4373 28.4792L46.3241 27.7249L45.5881 27.9252L39.8773 29.4788L39.2598 29.6467L39.3914 30.273L40.1834 34.0438L39.6204 38.3325L36.5436 33.6452L36.3426 33.3389L35.9763 33.3389L34.3447 33.3389L33.9784 33.3389L33.7774 33.6452L30.7006 38.3325L30.1376 34.0438L30.9296 30.273L31.0612 29.6467L30.4437 29.4788L24.7329 27.9252L23.9969 27.7249L23.8837 28.4792L23.0679 33.9168L23.0537 34.0112L23.0661 34.1058L24.6978 46.5346L24.754 46.9625L25.1653 47.0931L30.0603 48.6467L30.4428 48.7681L30.7335 48.4913L35.1605 44.2761L39.5875 48.4913L39.8782 48.7681L40.2607 48.6467L45.1557 47.0931L45.567 46.9625L45.6232 46.5346L47.2548 34.1058L47.2673 34.0112L47.2531 33.9168L46.4373 28.4792Z" fill="url(#paint2_linear_4_42)" stroke="#959595" stroke-width="1.35714"/>
<mask id="mask0_4_42" style="mask-type:alpha" maskUnits="userSpaceOnUse" x="23" y="28" width="24" height="20">
<path d="M40.0554 30.1335L45.7662 28.5799L46.582 34.0175L44.9504 46.4463L40.0554 47.9999L35.1605 43.3391L30.2655 47.9999L25.3706 46.4463L23.7389 34.0175L24.5548 28.5799L30.2655 30.1335L29.4497 34.0175L30.2655 40.2319L34.3447 34.0175L35.9763 34.0175L40.0554 40.2319L40.8713 34.0175L40.0554 30.1335Z" fill="url(#paint3_linear_4_42)"/>
</mask>
<g mask="url(#mask0_4_42)">
</g>
</g>
</g>
<rect x="1.06074" y="1.04976" width="53.9" height="53.9" rx="7.35" stroke="white" stroke-opacity="0.15" stroke-width="2.1"/>
<defs>
<filter id="filter0_d_4_42" x="2.29646" y="0.749216" width="51.4286" height="54.5013" filterUnits="userSpaceOnUse" color-interpolation-filters="sRGB">
<feFlood flood-opacity="0" result="BackgroundImageFix"/>
<feColorMatrix in="SourceAlpha" type="matrix" values="0 0 0 0 0 0 0 0 0 0 0 0 0 0 0 0 0 0 127 0" result="hardAlpha"/>
<feOffset/>
<feGaussianBlur stdDeviation="2.85714"/>
<feComposite in2="hardAlpha" operator="out"/>
<feColorMatrix type="matrix" values="0 0 0 0 0 0 0 0 0 0 0 0 0 0 0 0 0 0 0.25 0"/>
<feBlend mode="normal" in2="BackgroundImageFix" result="effect1_dropShadow_4_42"/>
<feBlend mode="normal" in="SourceGraphic" in2="effect1_dropShadow_4_42" result="shape"/>
</filter>
<linearGradient id="paint0_linear_4_42" x1="28.0107" y1="-0.000244141" x2="28.0107" y2="55.9997" gradientUnits="userSpaceOnUse">
<stop stop-color="#2C2A07"/>
<stop offset="1" stop-color="#1C1604"/>
</linearGradient>
<linearGradient id="paint1_linear_4_42" x1="21.1056" y1="7.99988" x2="21.1056" y2="27.8365" gradientUnits="userSpaceOnUse">
<stop stop-color="#FFF500"/>
<stop offset="1" stop-color="#D7A700"/>
</linearGradient>
<linearGradient id="paint2_linear_4_42" x1="35.1605" y1="47.9999" x2="35.1605" y2="28.5799" gradientUnits="userSpaceOnUse">
<stop stop-color="#111000"/>
<stop offset="1" stop-color="#161100"/>
</linearGradient>
<linearGradient id="paint3_linear_4_42" x1="35.1605" y1="47.9999" x2="35.1605" y2="28.5799" gradientUnits="userSpaceOnUse">
<stop stop-color="#111000"/>
<stop offset="1" stop-color="#161100"/>
</linearGradient>
<clipPath id="clip0_4_42">
<rect x="0.0107422" y="-0.000244141" width="56" height="56" rx="8.4" fill="white"/>
</clipPath>
</defs>
</svg>
