<svg width="57" height="56" viewBox="0 0 57 56" fill="none" xmlns="http://www.w3.org/2000/svg">
<rect x="0.0107422" y="-0.000244141" width="56" height="56" rx="8.4" fill="url(#paint0_linear_1_113)"/>
<g filter="url(#filter0_d_1_113)">
<path d="M8.01074 27.9998C8.01074 39.0455 16.965 47.9998 28.0107 47.9998C39.0564 47.9998 48.0107 39.0455 48.0107 27.9998C48.0107 16.9541 39.0564 7.99976 28.0107 7.99976C16.965 7.99976 8.01074 16.9541 8.01074 27.9998Z" fill="url(#paint1_linear_1_113)"/>
<path d="M23.3005 25.4524C22.4027 24.2405 20.6329 23.445 18.9839 23.445C16.259 23.445 13.7251 25.0789 13.7251 29.5628V37.0802C13.7251 37.5897 14.1485 37.9999 14.6704 37.9999C15.1927 37.9999 15.6161 37.5867 15.6161 37.0802V29.5628C15.6152 26.1551 17.2999 25.2877 18.9839 25.2877C20.6679 25.2877 22.352 26.6541 22.352 28.9603V37.0802C22.352 37.5897 22.7754 37.9999 23.2973 37.9999H23.3014H23.3055C23.8275 37.9999 24.2509 37.5897 24.2509 37.0802V28.9603C24.2509 26.6541 25.9349 25.2877 27.6189 25.2877C28.6881 25.2877 30.9867 25.7511 30.9867 28.9603L31.0507 31.6875C31.0507 36.7267 34.5158 37.9999 36.7209 37.9999C38.926 37.9999 42.2291 36.5132 42.2965 32.0547V24.9201C42.2965 23.6928 40.4002 23.6928 40.4002 24.9201V32.0547C40.4002 35.437 37.8234 36.1574 36.7209 36.1574C35.6184 36.1574 32.9408 35.6504 32.9408 31.6875L32.8777 29.1095C32.8777 25.2872 30.4206 23.2913 27.6189 23.2913C25.9699 23.2913 24.1983 24.2405 23.3005 25.4524Z" fill="white"/>
<path d="M32.7333 20.8313C32.7333 18.9863 34.1254 16.9876 36.5324 16.9876C38.9394 16.9876 40.3267 18.9863 40.3267 20.8313C40.3267 22.2149 42.2212 22.2149 42.2212 20.8313C42.2212 17.6026 39.7269 15.1427 36.5324 15.1427C33.3379 15.1427 30.8442 17.6026 30.8442 20.8313C30.8445 22.2149 32.7333 22.2149 32.7333 20.8313Z" fill="white"/>
<path d="M37.9622 20.8826C37.9622 20.2097 37.404 19.6649 36.7147 19.6649C36.0255 19.6649 35.4673 20.2097 35.4673 20.8826C35.4673 21.5554 36.0255 22.1002 36.7147 22.1002C37.404 22.1002 37.9622 21.5554 37.9622 20.8826Z" fill="white"/>
</g>
<rect x="1.06074" y="1.04976" width="53.9" height="53.9" rx="7.35" stroke="white" stroke-opacity="0.15" stroke-width="2.1"/>
<defs>
<filter id="filter0_d_1_113" x="2.29646" y="2.28547" width="51.4286" height="51.4286" filterUnits="userSpaceOnUse" color-interpolation-filters="sRGB">
<feFlood flood-opacity="0" result="BackgroundImageFix"/>
<feColorMatrix in="SourceAlpha" type="matrix" values="0 0 0 0 0 0 0 0 0 0 0 0 0 0 0 0 0 0 127 0" result="hardAlpha"/>
<feOffset/>
<feGaussianBlur stdDeviation="2.85714"/>
<feComposite in2="hardAlpha" operator="out"/>
<feColorMatrix type="matrix" values="0 0 0 0 0 0 0 0 0 0 0 0 0 0 0 0 0 0 0.25 0"/>
<feBlend mode="normal" in2="BackgroundImageFix" result="effect1_dropShadow_1_113"/>
<feBlend mode="normal" in="SourceGraphic" in2="effect1_dropShadow_1_113" result="shape"/>
</filter>
<linearGradient id="paint0_linear_1_113" x1="28.0107" y1="-0.000244141" x2="28.0107" y2="55.9997" gradientUnits="userSpaceOnUse">
<stop stop-color="#170B3F"/>
<stop offset="1" stop-color="#0F0729"/>
</linearGradient>
<linearGradient id="paint1_linear_1_113" x1="28.0107" y1="7.99976" x2="28.0107" y2="47.9998" gradientUnits="userSpaceOnUse">
<stop stop-color="#5529E5"/>
<stop offset="1" stop-color="#0F0239"/>
</linearGradient>
</defs>
</svg>
