<svg width="57" height="56" viewBox="0 0 57 56" fill="none" xmlns="http://www.w3.org/2000/svg">
<rect x="0.0107422" y="-0.000244141" width="56" height="56" rx="8.4" fill="url(#paint0_linear_44_39)"/>
<g filter="url(#filter0_d_44_39)">
<path d="M36.5873 8.93001C37.2748 8.53376 38.011 8.22194 38.7752 8.00831C38.9638 7.97677 39.1528 8.03933 39.3352 8.0846C40.2833 8.38472 41.1268 8.93051 41.9484 9.47784C43.1166 10.2892 44.2288 11.1864 45.2435 12.185C45.364 12.2928 45.4813 12.4057 45.5799 12.5349C45.461 12.5232 45.3431 12.5085 45.2247 12.4947C44.3467 12.3991 43.4814 12.6677 42.6816 13.0054C41.7812 13.4129 40.9505 13.9627 40.1873 14.5889C40.0694 14.6825 39.9566 14.7827 39.8458 14.8844C39.6522 14.9907 39.5273 15.1795 39.3652 15.3244C39.1634 15.5096 38.9851 15.7217 38.758 15.8768C38.4831 16.211 38.1797 16.5234 37.8606 16.8143C37.5741 17.2167 37.2463 17.588 36.9415 17.9761C36.6513 18.3668 36.3785 18.7696 36.0894 19.1613C36.0213 19.2544 35.9684 19.3571 35.9176 19.4604C35.5817 19.877 35.3373 20.3607 35.0813 20.8292C34.9969 21.053 34.8226 21.2478 34.8272 21.4986C35.1219 21.6242 35.3968 21.7916 35.6803 21.9406C36.1656 22.1884 36.6452 22.4473 37.1183 22.7189C36.8261 22.8898 36.4923 22.9646 36.192 23.1182C35.8195 23.227 35.4771 23.4137 35.1056 23.5236C34.6412 23.7311 34.1555 23.8888 33.6885 24.0918C33.0681 24.311 32.467 24.5791 31.8501 24.8075C31.0224 25.1259 30.2069 25.4784 29.3629 25.7521C29.213 25.5959 29.2288 25.3538 29.178 25.1554C29.0255 24.7246 28.9204 24.2785 28.8035 23.8374C28.7527 23.6599 28.6978 23.4834 28.6709 23.3003C28.6455 23.2621 28.6201 23.2245 28.5952 23.1869C28.5596 22.8303 28.4122 22.4997 28.3462 22.1492C28.3005 21.9066 28.1907 21.6807 28.1658 21.4335C28.1516 21.4106 28.1221 21.3643 28.1074 21.3414C28.0723 21.0357 27.958 20.7483 27.8838 20.4518C27.7014 19.7315 27.5098 19.0133 27.3081 18.2976C27.2451 17.9893 27.1348 17.6918 27.0952 17.3789C27.3127 17.4079 27.4829 17.5478 27.6684 17.6516C27.9925 17.7874 28.2847 17.9858 28.6033 18.1333C28.7888 18.2152 28.9488 18.354 29.1526 18.3932C29.775 16.9689 30.4569 15.5666 31.2745 14.2425C31.3115 14.1784 31.34 14.1097 31.371 14.0421C31.5905 13.7786 31.749 13.4724 31.9492 13.1947C32.218 12.8187 32.4792 12.4357 32.7851 12.0878C33.0081 11.833 33.2068 11.5568 33.4461 11.3167C33.6052 11.1559 33.7662 10.9967 33.9253 10.8355C34.3673 10.4224 34.8414 10.0435 35.3475 9.71182C35.7636 9.45597 36.1579 9.1645 36.5873 8.93001Z" fill="#FEFEFE"/>
<path d="M23.8407 10.3352C25.1354 10.0122 26.4692 9.87888 27.8 9.83463C29.8756 9.83107 31.9675 10.1286 33.9248 10.8357C33.7657 10.9969 33.6047 11.1561 33.4456 11.3169C33.2063 11.557 33.0076 11.8332 32.7846 12.088C32.4787 12.4359 32.2175 12.819 31.9487 13.1949C31.7485 13.4726 31.59 13.7788 31.3705 14.0423C31.3395 14.11 31.311 14.1786 31.2739 14.2427C30.4564 15.5668 29.7745 16.9692 29.1521 18.3934C28.9483 18.3543 28.7882 18.2154 28.6028 18.1335C28.2842 17.986 27.992 17.7876 27.6678 17.6518C27.4824 17.548 27.3122 17.4081 27.0947 17.3791C27.1343 17.692 27.2446 17.9895 27.3076 18.2978C27.5093 19.0135 27.7009 19.7317 27.8833 20.452C27.9575 20.7485 28.0718 21.0359 28.1069 21.3416C28.1216 21.3645 28.1511 21.4108 28.1653 21.4337C28.1902 21.6809 28.2999 21.9068 28.3457 22.1494C28.4117 22.4999 28.5591 22.8305 28.5946 23.1871C28.6195 23.2247 28.645 23.2624 28.6704 23.3005C28.6973 23.4836 28.7522 23.6601 28.803 23.8377C28.9198 24.2787 29.025 24.7248 29.1775 25.1556C29.2283 25.354 29.2125 25.5961 29.3624 25.7523C30.2064 25.4786 31.0219 25.1261 31.8496 24.8077C32.4665 24.5793 33.0676 24.3112 33.688 24.092C34.1549 23.889 34.6407 23.7313 35.1051 23.5238C35.4765 23.4139 35.819 23.2273 36.1915 23.1184C36.4918 22.9648 36.8256 22.89 37.1178 22.7191C36.6447 22.4475 36.165 22.1886 35.6798 21.9408C35.3963 21.7918 35.1214 21.6245 34.8267 21.4988C34.8221 21.248 34.9964 21.0532 35.0807 20.8294C35.3368 20.3609 35.5812 19.8772 35.9171 19.4606C35.9679 19.3573 36.0207 19.2546 36.0888 19.1615C36.3779 18.7698 36.6508 18.367 36.9409 17.9763C37.2458 17.5882 37.5735 17.2169 37.8601 16.8145C38.1792 16.5236 38.4826 16.2112 38.7574 15.8771C38.9846 15.7219 39.1629 15.5098 39.3646 15.3246C39.5267 15.1797 39.6517 14.991 39.8453 14.8847C39.9561 14.7829 40.0689 14.6827 40.1868 14.5891C40.8036 15.0378 41.264 15.6548 41.7767 16.2102C41.9718 16.4081 42.1222 16.6431 42.3076 16.8491C42.6867 17.3751 43.0739 17.8975 43.3935 18.4631C43.5952 18.7439 43.7492 19.0542 43.9189 19.3548C44.05 19.5944 44.1231 19.8635 44.2817 20.0888C45.0601 21.6682 45.5677 23.3794 45.84 25.1175C46.0402 26.3922 46.0621 27.6872 46.0103 28.9742C45.9152 30.5693 45.6139 32.1564 45.0885 33.6656C43.6785 32.2327 41.9565 31.1528 40.1913 30.2153C39.7686 29.9696 39.3164 29.7819 38.8814 29.5601C38.509 29.3679 38.1274 29.1929 37.7387 29.0362C37.6569 29.0118 37.6396 28.9284 37.6223 28.8572C37.6716 28.8185 37.7214 28.7804 37.7712 28.7422C37.914 28.3236 38.1762 27.9584 38.3606 27.557C38.4495 27.3454 38.5979 27.1648 38.6726 26.9461C38.5369 26.9436 38.4007 26.9537 38.2757 27.0077C36.1015 27.5845 33.9283 28.1735 31.7582 28.7651C31.2633 28.8612 30.7902 29.0479 30.2948 29.1486C30.3314 29.3206 30.3822 29.4889 30.4366 29.6568C30.6276 30.0942 30.7663 30.5525 30.9614 30.989C31.1322 31.433 31.2892 31.8837 31.4802 32.3202C32.0681 33.8777 32.7002 35.4174 33.28 36.9775C33.4685 36.7664 33.5615 36.4958 33.7058 36.2562C33.9898 35.7323 34.2677 35.2053 34.5513 34.6804C34.6509 34.6916 34.754 34.7012 34.8429 34.7536C35.1031 34.8971 35.3825 35.0049 35.6295 35.1722C35.7123 35.2302 35.8099 35.2597 35.9069 35.2872C36.2118 35.5476 36.5832 35.7129 36.8972 35.9622C37.5781 36.4022 38.2188 36.9017 38.8362 37.4271C39.1126 37.6215 39.3281 37.89 39.6131 38.0721C39.7274 38.2242 39.859 38.3611 39.9967 38.4923C40.1781 38.6642 40.3372 38.8616 40.546 39.003C40.7899 39.3341 41.0871 39.622 41.3483 39.94C41.2381 40.1917 41.0089 40.3484 40.827 40.5427C40.3036 41.1409 39.6593 41.6109 39.0572 42.1236C38.8037 42.3546 38.4983 42.5153 38.2265 42.7218C37.5771 43.2086 36.8698 43.6095 36.1412 43.965C33.9923 45.0586 31.6179 45.7036 29.212 45.8522C28.5931 45.9213 27.9676 45.8766 27.3462 45.8873C25.8081 45.8089 24.2711 45.5714 22.7971 45.1141C22.6141 45.0597 22.4261 45.0139 22.2569 44.9218C22.8062 44.348 23.3265 43.7437 23.7726 43.0855C23.827 43.0052 23.887 42.9284 23.9469 42.8526C23.9596 42.8083 23.9723 42.7646 23.9855 42.7218C24.2264 42.5204 24.3483 42.2259 24.5292 41.9772C24.7025 41.7325 24.8041 41.4461 24.9764 41.2004C25.2533 40.7391 25.486 40.2518 25.7675 39.7935C25.8437 39.5335 26.0043 39.3102 26.0947 39.0554C26.2812 38.7212 26.4377 38.3722 26.5851 38.0192C26.611 38.0106 26.6628 37.9933 26.6882 37.9846C26.7009 37.8666 26.7146 37.7491 26.7294 37.6321C26.9799 37.6515 27.1877 37.799 27.4067 37.9068C27.8797 38.1505 28.332 38.4374 28.8172 38.6561C28.8116 38.2619 28.6505 37.8972 28.5626 37.5192C28.2923 36.5314 28.0474 35.5375 27.769 34.5522C27.7425 34.4525 27.7024 34.3574 27.6592 34.2643C27.5622 33.6829 27.3538 33.1264 27.2354 32.5491C27.1176 32.2835 27.0942 31.9905 27.0114 31.7148C26.8635 31.2397 26.7446 30.7565 26.6354 30.2718C26.3722 30.2326 26.1628 30.4177 25.924 30.4895C25.4697 30.6411 25.0343 30.843 24.5836 31.0042C24.2015 31.166 23.8052 31.2906 23.4251 31.4564C23.3123 31.5063 23.1959 31.547 23.0781 31.5821C22.6258 31.785 22.1512 31.9305 21.6975 32.1294C21.2529 32.2927 20.8073 32.4544 20.3744 32.6477C19.9968 32.7922 19.6112 32.9204 19.2469 33.0969C19.1437 33.1264 19.0401 33.1554 18.9364 33.1839C18.9308 33.2286 18.9207 33.3182 18.9151 33.3624C19.6452 33.7383 20.3673 34.13 21.0873 34.5252C21.0746 34.6183 21.071 34.717 21.0232 34.8019C20.7311 35.3533 20.4638 35.9215 20.1051 36.4342C19.5446 37.2837 18.9466 38.1093 18.2911 38.8875C18.0147 39.2151 17.7058 39.5142 17.439 39.8494C17.1047 40.1271 16.7886 40.4339 16.5127 40.7706C16.3069 40.9069 16.1321 41.0824 15.9451 41.2432C15.5859 40.9105 15.2424 40.561 14.8969 40.2146C14.2704 39.5132 13.6937 38.7685 13.1444 38.0055C12.9915 37.7237 12.7679 37.4877 12.6251 37.1998C12.4386 36.8076 12.1897 36.4495 11.9849 36.067C11.8919 35.7653 11.7552 35.48 11.5962 35.2078C11.4097 34.8274 11.2725 34.425 11.1135 34.0328C11.208 33.9891 11.1714 33.8777 11.1379 33.81C11.1089 33.8736 11.0911 33.9413 11.085 34.0125C11.0505 33.8233 10.9865 33.6422 10.9194 33.4631C10.5962 32.4478 10.3411 31.4076 10.208 30.3496C10.1516 29.9264 10.0764 29.5042 10.0866 29.0759C10.0281 28.2808 10.0215 27.4812 10.0851 26.6867C10.1039 26.497 10.0617 26.2848 10.1333 26.1139L10.1592 26.1231C10.1653 26.1333 10.177 26.1541 10.1826 26.1643C10.1735 26.0844 10.1603 26.0046 10.1643 25.9247C10.2471 25.1943 10.3615 24.4669 10.5347 23.7522C10.6242 23.3443 10.7588 22.9485 10.8579 22.5431C10.8853 22.5329 10.9397 22.5126 10.9671 22.5024C11.397 22.9322 11.8462 23.3427 12.3314 23.7095C12.7059 23.973 13.0657 24.2568 13.4412 24.5183C14.7689 25.385 16.1723 26.1322 17.6112 26.7945C17.8612 26.9309 18.1539 26.9858 18.3749 27.174C18.3831 27.2233 18.3755 27.2706 18.3521 27.3154C18.1041 27.764 17.8658 28.2178 17.625 28.671C17.5294 28.8302 17.4436 28.995 17.3836 29.1715C17.7098 29.1914 18.0086 29.0484 18.3231 28.992C18.6087 28.9365 18.8719 28.8012 19.1625 28.7676C20.6823 28.3373 22.2102 27.9405 23.735 27.5316C24.1024 27.4594 24.451 27.3118 24.8224 27.2589C24.8559 27.233 24.89 27.2076 24.924 27.1826C25.2152 27.1776 25.4733 27.0209 25.7619 26.999C25.5937 26.4217 25.3336 25.8779 25.1349 25.3113C24.7142 24.2482 24.3067 23.18 23.8976 22.1123C23.7671 21.8437 23.6949 21.5517 23.5552 21.2877C23.3402 20.6402 23.0669 20.014 22.8275 19.3751C22.8006 19.309 22.7701 19.1803 22.67 19.2403C22.5887 19.3472 22.5369 19.4713 22.478 19.5908C22.3479 19.866 22.1736 20.1198 22.0715 20.4082C21.8443 20.7277 21.6848 21.0883 21.5014 21.4332C21.2311 21.4388 20.9973 21.2943 20.7682 21.1707C19.6889 20.6346 18.7235 19.9052 17.7632 19.1844C17.379 18.8629 16.9802 18.5592 16.6128 18.2184C15.8755 17.5053 15.1352 16.7901 14.499 15.9839C14.7816 15.6202 15.1276 15.3145 15.4411 14.9782C15.7754 14.6664 16.0981 14.3389 16.4644 14.0626C16.905 13.7442 17.2855 13.3444 17.7566 13.0682C18.3297 12.6984 18.8754 12.2747 19.5065 12.0036C20.1904 11.5921 20.9363 11.297 21.6746 10.9969C22.3845 10.74 23.1055 10.5091 23.8407 10.3352Z" fill="#F9A332"/>
<path d="M12.4981 10.6869C12.8614 10.5663 13.2461 10.5796 13.6231 10.5816C14.0311 10.5923 14.4442 10.547 14.8461 10.6386C15.6093 10.6981 16.3624 10.8705 17.0849 11.1213C17.6408 11.3014 18.1982 11.4799 18.7337 11.7164C18.9847 11.8268 19.2337 11.9545 19.5066 12.0033C18.8755 12.2744 18.3298 12.6982 17.7566 13.068C17.2856 13.3442 16.905 13.744 16.4645 14.0624C16.0981 14.3386 15.7755 14.6662 15.4411 14.978C15.1276 15.3142 14.7816 15.6199 14.4991 15.9836C13.5545 14.7857 12.7248 13.4189 12.5103 11.8818C12.4504 11.4947 12.5103 11.1035 12.5027 10.7169L12.4981 10.6869Z" fill="#9D6B36"/>
<path d="M8.84986 15.3428C9.86253 13.6515 11.1206 12.1179 12.5027 10.717C12.5103 11.1036 12.4504 11.4948 12.5103 11.8819C12.7247 13.4191 13.5545 14.7859 14.4991 15.9838C15.1352 16.79 15.8756 17.5052 16.6128 18.2183C16.9802 18.5591 17.3791 18.8628 17.7632 19.1843C18.7235 19.9051 19.689 20.6345 20.7682 21.1706C20.9974 21.2942 21.2311 21.4387 21.5014 21.4331C21.6848 21.0882 21.8444 20.7276 22.0715 20.4081C22.1736 20.1197 22.3479 19.8659 22.478 19.5907C22.5369 19.4712 22.5888 19.347 22.6701 19.2402C22.7702 19.1802 22.8006 19.3089 22.8276 19.375C23.0669 20.0139 23.3403 20.6401 23.5552 21.2876C23.6949 21.5516 23.7671 21.8436 23.8977 22.1122C24.3067 23.1798 24.7142 24.248 25.1349 25.3111C25.3336 25.8778 25.5938 26.4216 25.7619 26.9989C25.4733 27.0208 25.2152 27.1774 24.9241 27.1825C24.89 27.2074 24.856 27.2329 24.8224 27.2588C24.451 27.3117 24.1024 27.4592 23.7351 27.5315C22.2102 27.9404 20.6823 28.3372 19.1625 28.7675C18.8719 28.8011 18.6087 28.9364 18.3231 28.9918C18.0086 29.0483 17.7098 29.1912 17.3836 29.1714C17.4436 28.9949 17.5295 28.8301 17.625 28.6709C17.8658 28.2177 18.1041 27.7639 18.3521 27.3153C18.3755 27.2705 18.3831 27.2232 18.375 27.1739C18.1539 26.9857 17.8613 26.9307 17.6113 26.7944C16.1723 26.1321 14.7689 25.3849 13.4412 24.5181C13.0657 24.2567 12.7059 23.9728 12.3315 23.7094C11.8462 23.3426 11.397 22.9321 10.9672 22.5023C10.9286 22.4626 10.891 22.4229 10.8539 22.3828C10.363 21.8492 9.91182 21.2769 9.53835 20.6538C8.87222 19.699 8.33615 18.6466 8.02112 17.5225C7.99928 17.3887 8.01299 17.2503 8.05212 17.1211C8.21167 16.4863 8.53229 15.9095 8.84986 15.3428Z" fill="#FEFEFE"/>
<path d="M42.6813 13.0056C43.4811 12.6678 44.3464 12.3993 45.2245 12.4949C45.3632 12.5239 45.5141 12.5188 45.6416 12.5849C45.7183 13.2299 45.7382 13.8836 45.6752 14.5311C45.634 15.5454 45.3657 16.5347 45.0263 17.4859C44.8947 17.8684 44.7733 18.256 44.6066 18.6258C44.4557 18.9748 44.349 19.3517 44.1361 19.6686C44.1859 19.808 44.2433 19.9453 44.2819 20.0888C44.1234 19.8634 44.0502 19.5943 43.9191 19.3548C43.7494 19.0541 43.5954 18.7438 43.3937 18.4631C43.0741 17.8974 42.6869 17.375 42.3079 16.8491C42.1224 16.6431 41.972 16.4081 41.7769 16.2102C41.2642 15.6547 40.8039 15.0377 40.187 14.5891C40.9502 13.9629 41.781 13.413 42.6813 13.0056Z" fill="#9D6B36"/>
<path d="M10.8535 22.3827C10.8906 22.4229 10.9282 22.4625 10.9668 22.5022C10.9393 22.5124 10.885 22.5327 10.8575 22.5429C10.7585 22.9483 10.6238 23.3441 10.5344 23.752C10.3611 24.4667 10.2468 25.1941 10.164 25.9245C10.1599 26.0044 10.1731 26.0842 10.1823 26.1641C10.1767 26.1539 10.165 26.1331 10.1589 26.1229C10.0893 25.8518 10.1726 25.5776 10.2021 25.3075C10.3174 24.3126 10.5826 23.3441 10.8535 22.3827Z" fill="#9D6B36"/>
<path d="M38.2754 27.0075C38.4004 26.9535 38.5366 26.9434 38.6722 26.9459C38.5975 27.1646 38.4492 27.3452 38.3602 27.5568C38.1758 27.9582 37.9136 28.3234 37.7708 28.742C37.721 28.7802 37.6712 28.8183 37.622 28.857C37.6392 28.9282 37.6565 29.0116 37.7383 29.036C38.127 29.1927 38.5086 29.3677 38.8811 29.5599C39.316 29.7817 39.7682 29.9694 40.191 30.2151C41.9562 31.1526 43.6782 32.2325 45.0882 33.6654C45.5999 34.2081 46.0643 34.7951 46.4565 35.4309C47.0993 36.3521 47.6303 37.3593 47.957 38.4372C48.0911 38.7897 47.9438 39.1635 47.8279 39.4998C47.4311 40.4988 46.829 41.3986 46.2132 42.273C45.5927 43.1148 44.9439 43.9394 44.2208 44.6953C44.0278 44.8972 43.8372 45.1007 43.6502 45.3082C43.5847 45.4069 43.4841 45.4806 43.3652 45.4969C43.4129 45.4354 43.4927 45.3942 43.509 45.3123C43.6274 44.4399 43.4419 43.5492 43.104 42.744C42.6777 41.7211 42.0629 40.7831 41.348 39.9398C41.0868 39.6218 40.7895 39.3339 40.5456 39.0028C40.3368 38.8614 40.1778 38.664 39.9964 38.4921C39.8587 38.3609 39.7271 38.224 39.6127 38.0719C39.3277 37.8898 39.1123 37.6213 38.8358 37.4269C38.2185 36.9015 37.5777 36.402 36.8969 35.962C36.5829 35.7127 36.2114 35.5474 35.9066 35.287C35.8095 35.2595 35.7119 35.23 35.6291 35.172C35.3822 35.0047 35.1027 34.8969 34.8426 34.7534C34.7536 34.701 34.6505 34.6914 34.5509 34.6802C34.2674 35.2051 33.9894 35.7321 33.7054 36.256C33.5611 36.4956 33.4681 36.7662 33.2796 36.9773C32.6998 35.4172 32.0678 33.8775 31.4799 32.32C31.2888 31.8835 31.1318 31.4328 30.9611 30.9888C30.766 30.5523 30.6272 30.094 30.4362 29.6566C30.3818 29.4887 30.331 29.3204 30.2944 29.1484C30.7898 29.0477 31.2629 28.861 31.7578 28.7649C33.928 28.1733 36.1012 27.5843 38.2754 27.0075Z" fill="#FEFEFE"/>
<path d="M25.9235 30.4892C26.1624 30.4175 26.3717 30.2323 26.6349 30.2715C26.7441 30.7563 26.863 31.2395 27.0109 31.7146C27.0937 31.9903 27.1171 32.2833 27.235 32.5488C27.3534 33.1261 27.5617 33.6826 27.6587 34.264C27.7019 34.3571 27.7421 34.4522 27.7685 34.5519C28.0469 35.5372 28.2919 36.5311 28.5622 37.519C28.6501 37.8969 28.8112 38.2616 28.8167 38.6558C28.3315 38.4371 27.8793 38.1502 27.4062 37.9066C27.1872 37.7987 26.9794 37.6512 26.7289 37.6319C26.7142 37.7489 26.7004 37.8664 26.6877 37.9844C26.6623 37.993 26.6105 38.0103 26.5846 38.019C26.4372 38.372 26.2807 38.7209 26.0943 39.0551C26.0038 39.31 25.8433 39.5333 25.767 39.7932C25.4855 40.2515 25.2528 40.7388 24.9759 41.2002C24.8037 41.4458 24.702 41.7322 24.5288 41.9769C24.3479 42.2256 24.2259 42.5201 23.9851 42.7216C23.9719 42.7643 23.9592 42.808 23.9465 42.8523C23.8865 42.9281 23.8265 43.0049 23.7722 43.0853C23.3261 43.7435 22.8057 44.3478 22.2565 44.9215C21.7921 45.361 21.3154 45.7929 20.7829 46.1495C20.0675 46.6235 19.3556 47.1114 18.5716 47.4669C18.0971 47.6816 17.6103 47.8855 17.1001 47.9995C16.7729 48.0051 16.4619 47.8825 16.1611 47.767C15.3797 47.4298 14.6475 46.9888 13.9488 46.504C12.6541 45.6199 11.4519 44.6021 10.3442 43.4927C10.7268 43.5125 11.112 43.566 11.4931 43.4973C12.1663 43.4256 12.8122 43.2028 13.4209 42.9133C14.338 42.4825 15.1662 41.8863 15.9447 41.2429C16.1317 41.0821 16.3065 40.9067 16.5122 40.7703C16.7881 40.4336 17.1042 40.1269 17.4385 39.8491C17.7053 39.5139 18.0142 39.2148 18.2906 38.8873C18.9461 38.109 19.5442 37.2834 20.1046 36.434C20.4633 35.9212 20.7306 35.3531 21.0228 34.8017C21.0705 34.7167 21.0741 34.618 21.0868 34.5249C20.3668 34.1297 19.6448 33.738 18.9146 33.3621C18.9202 33.3179 18.9304 33.2284 18.9359 33.1836C19.0396 33.1551 19.1433 33.1261 19.2464 33.0966C19.6107 32.9201 19.9964 32.7919 20.3739 32.6475C20.8068 32.4542 21.2524 32.2924 21.697 32.1291C22.1508 31.9302 22.6254 31.7848 23.0776 31.5818C23.1955 31.5467 23.3118 31.506 23.4246 31.4562C23.8047 31.2904 24.201 31.1657 24.5831 31.004C25.0338 30.8427 25.4693 30.6408 25.9235 30.4892Z" fill="#FEFEFE"/>
<path d="M11.5964 35.2078C11.7555 35.4799 11.8922 35.7653 11.9852 36.0669C12.1899 36.4494 12.4389 36.8075 12.6254 37.1997C12.7682 37.4876 12.9917 37.7236 13.1447 38.0054C13.6939 38.7684 14.2706 39.5131 14.8972 40.2146C15.2427 40.561 15.5862 40.9104 15.9454 41.2431C15.167 41.8865 14.3387 42.4827 13.4216 42.9135C12.8129 43.203 12.1671 43.4258 11.4938 43.4975C11.1127 43.5661 10.7276 43.5127 10.345 43.4929C10.3358 43.4924 10.3175 43.4914 10.3079 43.4909C10.1737 42.7818 10.1981 42.0534 10.2555 41.3377C10.3185 40.2975 10.6026 39.2862 10.9659 38.3152C11.2179 37.5166 11.5685 36.7516 11.9237 35.9962C11.8475 35.7235 11.6539 35.4911 11.5964 35.2078Z" fill="#9D6B36"/>
<path d="M40.8269 40.5427C41.0089 40.3484 41.238 40.1917 41.3483 39.9399C42.0632 40.7833 42.678 41.7213 43.1043 42.7442C43.4422 43.5494 43.6277 44.4401 43.5093 45.3125C43.493 45.3944 43.4132 45.4356 43.3655 45.4971L43.3497 45.5144C42.8269 45.5541 42.3005 45.5973 41.7761 45.548C41.4855 45.5531 41.1974 45.5246 40.9133 45.464C40.2518 45.4127 39.6059 45.2402 38.9779 45.0322C38.5247 44.8994 38.078 44.7443 37.6472 44.551C37.3555 44.464 37.0796 44.3338 36.7966 44.2229C36.5832 44.1237 36.3794 43.9955 36.1411 43.965C36.8697 43.6094 37.577 43.2086 38.2264 42.7218C38.4983 42.5153 38.8036 42.3546 39.0572 42.1236C39.6593 41.6109 40.3036 41.1409 40.8269 40.5427Z" fill="#9D6B36"/>
</g>
<rect x="1.06074" y="1.04976" width="53.9" height="53.9" rx="7.35" stroke="white" stroke-opacity="0.15" stroke-width="2.1"/>
<defs>
<filter id="filter0_d_44_39" x="2.29646" y="2.28547" width="51.4286" height="51.4286" filterUnits="userSpaceOnUse" color-interpolation-filters="sRGB">
<feFlood flood-opacity="0" result="BackgroundImageFix"/>
<feColorMatrix in="SourceAlpha" type="matrix" values="0 0 0 0 0 0 0 0 0 0 0 0 0 0 0 0 0 0 127 0" result="hardAlpha"/>
<feOffset/>
<feGaussianBlur stdDeviation="2.85714"/>
<feComposite in2="hardAlpha" operator="out"/>
<feColorMatrix type="matrix" values="0 0 0 0 0 0 0 0 0 0 0 0 0 0 0 0 0 0 0.25 0"/>
<feBlend mode="normal" in2="BackgroundImageFix" result="effect1_dropShadow_44_39"/>
<feBlend mode="normal" in="SourceGraphic" in2="effect1_dropShadow_44_39" result="shape"/>
</filter>
<linearGradient id="paint0_linear_44_39" x1="28.0107" y1="-0.000244141" x2="28.0107" y2="55.9997" gradientUnits="userSpaceOnUse">
<stop stop-color="#301F09"/>
<stop offset="1" stop-color="#20150A"/>
</linearGradient>
</defs>
</svg>
