<svg width="57" height="56" viewBox="0 0 57 56" fill="none" xmlns="http://www.w3.org/2000/svg">
<rect x="0.0107422" y="-0.000244141" width="56" height="56" rx="8.4" fill="url(#paint0_linear_45_63)"/>
<g filter="url(#filter0_d_45_63)">
<path d="M14.7451 32.802L23.8409 31.9525L24.6504 26.2363C21.3106 28.2455 18.4546 28.6016 14.5318 28.6016V15.5923C20.4997 15.5923 27.0673 17.6188 25.6623 24.8565L30.3168 21.5056C28.9131 14.2741 24.4536 10.8616 16.9603 10.8616C14.8988 10.8616 10.7655 10.7187 9.43899 12.0178C9.43896 14.6158 9.43897 17.2138 9.43899 19.8119L9.43899 32.802C9.43899 34.7134 9.43895 41.2456 9.43897 43.1941C9.43899 45.7922 14.7451 45.7922 14.7451 43.1941C14.7451 40.3401 14.7451 36.0495 14.7451 32.802Z" fill="#05BBAB"/>
<path fill-rule="evenodd" clip-rule="evenodd" d="M32.745 20.8706C16.4611 23.9179 20.9502 46.9206 37.1972 44.2831C52.4257 41.811 47.8092 18.0515 32.745 20.8706ZM33.149 25.612C23.2932 27.8341 27.1649 42.2102 36.7917 39.4536C45.3602 37.0002 41.8469 23.651 33.149 25.612Z" fill="#FBFBFB"/>
</g>
<rect x="1.06074" y="1.04976" width="53.9" height="53.9" rx="7.35" stroke="white" stroke-opacity="0.15" stroke-width="2.1"/>
<defs>
<filter id="filter0_d_45_63" x="2.29646" y="2.28547" width="51.4286" height="51.4286" filterUnits="userSpaceOnUse" color-interpolation-filters="sRGB">
<feFlood flood-opacity="0" result="BackgroundImageFix"/>
<feColorMatrix in="SourceAlpha" type="matrix" values="0 0 0 0 0 0 0 0 0 0 0 0 0 0 0 0 0 0 127 0" result="hardAlpha"/>
<feOffset/>
<feGaussianBlur stdDeviation="2.85714"/>
<feComposite in2="hardAlpha" operator="out"/>
<feColorMatrix type="matrix" values="0 0 0 0 0 0 0 0 0 0 0 0 0 0 0 0 0 0 0.25 0"/>
<feBlend mode="normal" in2="BackgroundImageFix" result="effect1_dropShadow_45_63"/>
<feBlend mode="normal" in="SourceGraphic" in2="effect1_dropShadow_45_63" result="shape"/>
</filter>
<linearGradient id="paint0_linear_45_63" x1="28.0107" y1="-0.000244141" x2="28.0107" y2="55.9997" gradientUnits="userSpaceOnUse">
<stop stop-color="#012D29"/>
<stop offset="1" stop-color="#242424"/>
</linearGradient>
</defs>
</svg>
