<svg width="57" height="56" viewBox="0 0 57 56" fill="none" xmlns="http://www.w3.org/2000/svg">
<rect x="0.0107422" y="-0.000244141" width="56" height="56" rx="8.4" fill="url(#paint0_linear_48_311)"/>
<g filter="url(#filter0_d_48_311)">
<path d="M19.4888 21.4624L25.1733 23.6429V30.6839L19.4888 28.5035V21.4624Z" fill="#E9E9FF" stroke="#CCCCCC" stroke-width="0.304001" stroke-linejoin="bevel"/>
<path d="M13.7202 23.6751V30.7162L19.4889 28.5035V21.4624L13.7202 23.6751Z" fill="#353564" stroke="#CCCCCC" stroke-width="0.304001" stroke-linejoin="bevel"/>
<path d="M13.7202 30.7157L19.4047 32.8957L25.1734 30.6834L19.4889 28.5034L13.7202 30.7157Z" fill="#AFAFDE" stroke="#CCCCCC" stroke-width="0.304001" stroke-linejoin="bevel"/>
<path d="M13.7202 23.6747L19.4047 25.8546L25.1734 23.6424L19.4889 21.4624L13.7202 23.6747Z" fill="#F7F7F4" stroke="#CCCCCC" stroke-width="0.304001" stroke-linejoin="bevel"/>
<path d="M19.4048 25.8554V32.8965L25.1735 30.6838V23.6427L19.4048 25.8554Z" fill="white" stroke="#CCCCCC" stroke-width="0.304001" stroke-linejoin="bevel"/>
<path d="M13.7202 23.6752L19.4047 25.8556V32.8967L13.7202 30.7163V23.6752Z" fill="#EFEEEA" stroke="#CCCCCC" stroke-width="0.304001" stroke-linejoin="bevel"/>
<path d="M25.1982 16.5394L30.8828 18.7199V25.761L25.1982 23.5805V16.5394Z" fill="#E9E9FF" stroke="#CCCCCC" stroke-width="0.304001" stroke-linejoin="bevel"/>
<path d="M19.4297 18.7522V25.7932L25.1984 23.5805V16.5394L19.4297 18.7522Z" fill="#353564" stroke="#CCCCCC" stroke-width="0.304001" stroke-linejoin="bevel"/>
<path d="M19.4297 25.7927L25.1142 27.9727L30.8829 25.7604L25.1984 23.5804L19.4297 25.7927Z" fill="#AFAFDE" stroke="#CCCCCC" stroke-width="0.304001" stroke-linejoin="bevel"/>
<path d="M19.4297 18.7517L25.1142 20.9317L30.8829 18.7194L25.1984 16.5394L19.4297 18.7517Z" fill="#F7F7F4" stroke="#CCCCCC" stroke-width="0.304001" stroke-linejoin="bevel"/>
<path d="M25.1138 20.9326V27.9737L30.8824 25.7609V18.7198L25.1138 20.9326Z" fill="white" stroke="#CCCCCC" stroke-width="0.304001" stroke-linejoin="bevel"/>
<path d="M19.4297 18.7522L25.1142 20.9327V27.9737L19.4297 25.7933V18.7522Z" fill="#EFEEEA" stroke="#CCCCCC" stroke-width="0.304001" stroke-linejoin="bevel"/>
<path d="M13.7793 30.7611L19.4638 32.9416V39.9826L13.7793 37.8022V30.7611Z" fill="#E9E9FF" stroke="#CCCCCC" stroke-width="0.304001" stroke-linejoin="bevel"/>
<path d="M8.01074 32.9738V40.0149L13.7794 37.8022V30.7611L8.01074 32.9738Z" fill="#353564" stroke="#CCCCCC" stroke-width="0.304001" stroke-linejoin="bevel"/>
<path d="M8.01074 40.0144L13.6953 42.1944L19.4639 39.9821L13.7794 37.8021L8.01074 40.0144Z" fill="#AFAFDE" stroke="#CCCCCC" stroke-width="0.304001" stroke-linejoin="bevel"/>
<path d="M8.01074 32.9734L13.6953 35.1533L19.4639 32.9411L13.7794 30.7611L8.01074 32.9734Z" fill="#F7F7F4" stroke="#CCCCCC" stroke-width="0.304001" stroke-linejoin="bevel"/>
<path d="M13.6953 35.1543V42.1953L19.464 39.9826V32.9415L13.6953 35.1543Z" fill="white" stroke="#CCCCCC" stroke-width="0.304001" stroke-linejoin="bevel"/>
<path d="M8.01074 32.9738L13.6953 35.1542V42.1953L8.01074 40.0148V32.9738Z" fill="#EFEEEA" stroke="#CCCCCC" stroke-width="0.304001" stroke-linejoin="bevel"/>
<path d="M19.4888 32.9491L25.1733 35.1296V42.1706L19.4888 39.9902V32.9491Z" fill="#E9E9FF" stroke="#CCCCCC" stroke-width="0.304001" stroke-linejoin="bevel"/>
<path d="M13.7202 35.1618V42.2029L19.4889 39.9902V32.9491L13.7202 35.1618Z" fill="#353564" stroke="#CCCCCC" stroke-width="0.304001" stroke-linejoin="bevel"/>
<path d="M13.7202 42.2025L19.4047 44.3825L25.1734 42.1702L19.4889 39.9902L13.7202 42.2025Z" fill="#AFAFDE" stroke="#CCCCCC" stroke-width="0.304001" stroke-linejoin="bevel"/>
<path d="M13.7202 35.1613L19.4047 37.3413L25.1734 35.1291L19.4889 32.9491L13.7202 35.1613Z" fill="#F7F7F4" stroke="#CCCCCC" stroke-width="0.304001" stroke-linejoin="bevel"/>
<path d="M19.4048 37.3422V44.3833L25.1734 42.1706V35.1295L19.4048 37.3422Z" fill="white" stroke="#CCCCCC" stroke-width="0.304001" stroke-linejoin="bevel"/>
<path d="M13.7202 35.162L19.4047 37.3424V44.3835L13.7202 42.2031V35.162Z" fill="#EFEEEA" stroke="#CCCCCC" stroke-width="0.304001" stroke-linejoin="bevel"/>
<path d="M19.4888 25.8383L25.1733 28.0187V35.0598L19.4888 32.8793V25.8383Z" fill="#E9E9FF" stroke="#CCCCCC" stroke-width="0.304001" stroke-linejoin="bevel"/>
<path d="M13.7202 28.051V35.0921L19.4889 32.8793V25.8383L13.7202 28.051Z" fill="#353564" stroke="#CCCCCC" stroke-width="0.304001" stroke-linejoin="bevel"/>
<path d="M13.7202 35.0915L19.4047 37.2715L25.1734 35.0593L19.4889 32.8793L13.7202 35.0915Z" fill="#AFAFDE" stroke="#CCCCCC" stroke-width="0.304001" stroke-linejoin="bevel"/>
<path d="M13.7202 28.0505L19.4047 30.2305L25.1734 28.0182L19.4889 25.8383L13.7202 28.0505Z" fill="#F7F7F4" stroke="#CCCCCC" stroke-width="0.304001" stroke-linejoin="bevel"/>
<path d="M19.4048 30.2314V37.2725L25.1734 35.0598V28.0187L19.4048 30.2314Z" fill="white" stroke="#CCCCCC" stroke-width="0.304001" stroke-linejoin="bevel"/>
<path d="M13.7202 28.0509L19.4047 30.2314V37.2724L13.7202 35.092V28.0509Z" fill="#EFEEEA" stroke="#CCCCCC" stroke-width="0.304001" stroke-linejoin="bevel"/>
<path d="M42.3262 28.5731L48.0107 30.7536V37.7947L42.3262 35.6142V28.5731Z" fill="#E9E9FF" stroke="#CCCCCC" stroke-width="0.304001" stroke-linejoin="bevel"/>
<path d="M36.5576 30.7858V37.8269L42.3263 35.6142V28.5731L36.5576 30.7858Z" fill="#353564" stroke="#CCCCCC" stroke-width="0.304001" stroke-linejoin="bevel"/>
<path d="M36.5576 37.8265L42.2421 40.0065L48.0108 37.7942L42.3263 35.6143L36.5576 37.8265Z" fill="#AFAFDE" stroke="#CCCCCC" stroke-width="0.304001" stroke-linejoin="bevel"/>
<path d="M36.5576 30.7854L42.2421 32.9654L48.0108 30.7531L42.3263 28.5731L36.5576 30.7854Z" fill="#F7F7F4" stroke="#CCCCCC" stroke-width="0.304001" stroke-linejoin="bevel"/>
<path d="M42.2422 32.9664V40.0075L48.0109 37.7947V30.7537L42.2422 32.9664Z" fill="white" stroke="#CCCCCC" stroke-width="0.304001" stroke-linejoin="bevel"/>
<path d="M36.5576 30.786L42.2421 32.9665V40.0076L36.5576 37.8271V30.786Z" fill="#EFEEEA" stroke="#CCCCCC" stroke-width="0.304001" stroke-linejoin="bevel"/>
<path d="M36.6172 30.7611L42.3017 32.9416V39.9826L36.6172 37.8022V30.7611Z" fill="#E9E9FF" stroke="#CCCCCC" stroke-width="0.304001" stroke-linejoin="bevel"/>
<path d="M30.8481 32.9738V40.0149L36.6168 37.8022V30.7611L30.8481 32.9738Z" fill="#353564" stroke="#CCCCCC" stroke-width="0.304001" stroke-linejoin="bevel"/>
<path d="M30.8481 40.0144L36.5327 42.1944L42.3013 39.9821L36.6168 37.8021L30.8481 40.0144Z" fill="#AFAFDE" stroke="#CCCCCC" stroke-width="0.304001" stroke-linejoin="bevel"/>
<path d="M30.8481 32.9734L36.5327 35.1533L42.3013 32.9411L36.6168 30.7611L30.8481 32.9734Z" fill="#F7F7F4" stroke="#CCCCCC" stroke-width="0.304001" stroke-linejoin="bevel"/>
<path d="M36.5327 35.1544V42.1955L42.3014 39.9827V32.9417L36.5327 35.1544Z" fill="#FFD242" stroke="#CCCCCC" stroke-width="0.304001" stroke-linejoin="bevel"/>
<path d="M30.8481 32.9739L36.5327 35.1543V42.1954L30.8481 40.015V32.9739Z" fill="#EFEEEA" stroke="#CCCCCC" stroke-width="0.304001" stroke-linejoin="bevel"/>
<path d="M40.1484 38.5381C40.7602 38.3034 41.2562 37.557 41.2562 36.8709C41.2562 36.1848 40.7602 35.8189 40.1484 36.0536C39.5365 36.2883 39.0405 37.0347 39.0405 37.7208C39.0405 38.4069 39.5365 38.7728 40.1484 38.5381Z" fill="white"/>
<path d="M30.9077 32.9491L36.5922 35.1296V42.1706L30.9077 39.9902V32.9491Z" fill="#E9E9FF" stroke="#CCCCCC" stroke-width="0.304001" stroke-linejoin="bevel"/>
<path d="M25.1387 35.1618V42.2029L30.9073 39.9902V32.9491L25.1387 35.1618Z" fill="#353564" stroke="#CCCCCC" stroke-width="0.304001" stroke-linejoin="bevel"/>
<path d="M25.1387 42.2026L30.8232 44.3826L36.5919 42.1703L30.9073 39.9904L25.1387 42.2026Z" fill="#AFAFDE" stroke="#CCCCCC" stroke-width="0.304001" stroke-linejoin="bevel"/>
<path d="M25.1387 35.1613L30.8232 37.3413L36.5919 35.1291L30.9073 32.9491L25.1387 35.1613Z" fill="#F7F7F4" stroke="#CCCCCC" stroke-width="0.304001" stroke-linejoin="bevel"/>
<path d="M30.8232 37.3422V44.3833L36.5919 42.1706V35.1295L30.8232 37.3422Z" fill="#FFD242" stroke="#CCCCCC" stroke-width="0.304001" stroke-linejoin="bevel"/>
<path d="M25.1387 35.162L30.8232 37.3424V44.3835L25.1387 42.2031V35.162Z" fill="#EFEEEA" stroke="#CCCCCC" stroke-width="0.304001" stroke-linejoin="bevel"/>
<path d="M25.1982 35.1371L30.8828 37.3175V44.3586L25.1982 42.1782V35.1371Z" fill="#E9E9FF" stroke="#CCCCCC" stroke-width="0.304001" stroke-linejoin="bevel"/>
<path d="M19.4297 37.3498V44.3909L25.1984 42.1782V35.1371L19.4297 37.3498Z" fill="#353564" stroke="#CCCCCC" stroke-width="0.304001" stroke-linejoin="bevel"/>
<path d="M19.4297 44.3904L25.1142 46.5703L30.8829 44.3581L25.1984 42.1781L19.4297 44.3904Z" fill="#AFAFDE" stroke="#CCCCCC" stroke-width="0.304001" stroke-linejoin="bevel"/>
<path d="M19.4297 37.3493L25.1142 39.5293L30.8829 37.3171L25.1984 35.1371L19.4297 37.3493Z" fill="#F7F7F4" stroke="#CCCCCC" stroke-width="0.304001" stroke-linejoin="bevel"/>
<path d="M25.1138 39.5304V46.5714L30.8824 44.3587V37.3176L25.1138 39.5304Z" fill="white" stroke="#CCCCCC" stroke-width="0.304001" stroke-linejoin="bevel"/>
<path d="M19.4297 37.3499L25.1142 39.5303V46.5714L19.4297 44.3909V37.3499Z" fill="#EFEEEA" stroke="#CCCCCC" stroke-width="0.304001" stroke-linejoin="bevel"/>
<path d="M42.3262 21.4624L48.0107 23.6429V30.6839L42.3262 28.5035V21.4624Z" fill="#E9E9FF" stroke="#CCCCCC" stroke-width="0.304001" stroke-linejoin="bevel"/>
<path d="M36.5576 23.6751V30.7162L42.3263 28.5035V21.4624L36.5576 23.6751Z" fill="#353564" stroke="#CCCCCC" stroke-width="0.304001" stroke-linejoin="bevel"/>
<path d="M36.5576 30.7157L42.2421 32.8957L48.0108 30.6834L42.3263 28.5034L36.5576 30.7157Z" fill="#AFAFDE" stroke="#CCCCCC" stroke-width="0.304001" stroke-linejoin="bevel"/>
<path d="M36.5576 23.6747L42.2421 25.8546L48.0108 23.6424L42.3263 21.4624L36.5576 23.6747Z" fill="#F7F7F4" stroke="#CCCCCC" stroke-width="0.304001" stroke-linejoin="bevel"/>
<path d="M42.2422 25.8554V32.8965L48.0109 30.6838V23.6427L42.2422 25.8554Z" fill="#FFD242" stroke="#CCCCCC" stroke-width="0.304001" stroke-linejoin="bevel"/>
<path d="M36.5576 23.6752L42.2421 25.8556V32.8967L36.5576 30.7163V23.6752Z" fill="#EFEEEA" stroke="#CCCCCC" stroke-width="0.304001" stroke-linejoin="bevel"/>
<path d="M42.3262 14.3514L48.0107 16.5319V23.573L42.3262 21.3925V14.3514Z" fill="#E9E9FF" stroke="#CCCCCC" stroke-width="0.304001" stroke-linejoin="bevel"/>
<path d="M36.5576 16.5642V23.6053L42.3263 21.3925V14.3514L36.5576 16.5642Z" fill="#353564" stroke="#CCCCCC" stroke-width="0.304001" stroke-linejoin="bevel"/>
<path d="M36.5576 23.6048L42.2421 25.7848L48.0108 23.5726L42.3263 21.3926L36.5576 23.6048Z" fill="#AFAFDE" stroke="#CCCCCC" stroke-width="0.304001" stroke-linejoin="bevel"/>
<path d="M36.5576 16.5637L42.2421 18.7437L48.0108 16.5314L42.3263 14.3514L36.5576 16.5637Z" fill="#FFC91D" stroke="#CCCCCC" stroke-width="0.304001" stroke-linejoin="bevel"/>
<path d="M42.2422 18.7446V25.7857L48.0109 23.5729V16.5319L42.2422 18.7446Z" fill="#FFD242" stroke="#CCCCCC" stroke-width="0.304001" stroke-linejoin="bevel"/>
<path d="M36.5576 16.5641L42.2421 18.7445V25.7856L36.5576 23.6052V16.5641Z" fill="#EFEEEA" stroke="#CCCCCC" stroke-width="0.304001" stroke-linejoin="bevel"/>
<path d="M36.6172 23.6501L42.3017 25.8306V32.8717L36.6172 30.6912V23.6501Z" fill="#E9E9FF" stroke="#CCCCCC" stroke-width="0.304001" stroke-linejoin="bevel"/>
<path d="M30.8481 25.8629V32.904L36.6168 30.6912V23.6501L30.8481 25.8629Z" fill="#353564" stroke="#CCCCCC" stroke-width="0.304001" stroke-linejoin="bevel"/>
<path d="M30.8481 32.9037L36.5327 35.0837L42.3013 32.8714L36.6168 30.6914L30.8481 32.9037Z" fill="#AFAFDE" stroke="#CCCCCC" stroke-width="0.304001" stroke-linejoin="bevel"/>
<path d="M30.8481 25.8624L36.5327 28.0424L42.3013 25.8301L36.6168 23.6501L30.8481 25.8624Z" fill="#F7F7F4" stroke="#CCCCCC" stroke-width="0.304001" stroke-linejoin="bevel"/>
<path d="M36.5327 28.0435V35.0846L42.3014 32.8719V25.8308L36.5327 28.0435Z" fill="#FFD242" stroke="#CCCCCC" stroke-width="0.304001" stroke-linejoin="bevel"/>
<path d="M30.8481 25.863L36.5327 28.0435V35.0846L30.8481 32.9041V25.863Z" fill="#EFEEEA" stroke="#CCCCCC" stroke-width="0.304001" stroke-linejoin="bevel"/>
<path d="M36.6172 16.5394L42.3017 18.7199V25.761L36.6172 23.5805V16.5394Z" fill="#E9E9FF" stroke="#CCCCCC" stroke-width="0.304001" stroke-linejoin="bevel"/>
<path d="M30.8481 18.7522V25.7932L36.6168 23.5805V16.5394L30.8481 18.7522Z" fill="#353564" stroke="#CCCCCC" stroke-width="0.304001" stroke-linejoin="bevel"/>
<path d="M30.8481 25.7927L36.5327 27.9727L42.3013 25.7604L36.6168 23.5804L30.8481 25.7927Z" fill="#AFAFDE" stroke="#CCCCCC" stroke-width="0.304001" stroke-linejoin="bevel"/>
<path d="M30.8481 18.7517L36.5327 20.9317L42.3013 18.7194L36.6168 16.5394L30.8481 18.7517Z" fill="#F7F7F4" stroke="#CCCCCC" stroke-width="0.304001" stroke-linejoin="bevel"/>
<path d="M36.5327 20.9325V27.9735L42.3014 25.7608V18.7197L36.5327 20.9325Z" fill="#3775A9" stroke="#CCCCCC" stroke-width="0.304001" stroke-linejoin="bevel"/>
<path d="M30.8481 18.7522L36.5327 20.9327V27.9737L30.8481 25.7933V18.7522Z" fill="#EFEEEA" stroke="#CCCCCC" stroke-width="0.304001" stroke-linejoin="bevel"/>
<path d="M36.6172 9.42847L42.3017 11.6089V18.65L36.6172 16.4695V9.42847Z" fill="#E9E9FF" stroke="#CCCCCC" stroke-width="0.304001" stroke-linejoin="bevel"/>
<path d="M30.8481 11.6412V18.6823L36.6168 16.4695V9.42847L30.8481 11.6412Z" fill="#353564" stroke="#CCCCCC" stroke-width="0.304001" stroke-linejoin="bevel"/>
<path d="M30.8481 18.6817L36.5327 20.8617L42.3013 18.6495L36.6168 16.4695L30.8481 18.6817Z" fill="#AFAFDE" stroke="#CCCCCC" stroke-width="0.304001" stroke-linejoin="bevel"/>
<path d="M30.8481 11.6407L36.5327 13.8207L42.3013 11.6085L36.6168 9.42847L30.8481 11.6407Z" fill="#2F6491" stroke="#CCCCCC" stroke-width="0.304001" stroke-linejoin="bevel"/>
<path d="M36.5327 13.8217V20.8628L42.3014 18.6501V11.609L36.5327 13.8217Z" fill="#3775A9" stroke="#CCCCCC" stroke-width="0.304001" stroke-linejoin="bevel"/>
<path d="M30.8481 11.6412L36.5327 13.8217V20.8628L30.8481 18.6823V11.6412Z" fill="#EFEEEA" stroke="#CCCCCC" stroke-width="0.304001" stroke-linejoin="bevel"/>
<path d="M30.9077 25.8383L36.5922 28.0187V35.0598L30.9077 32.8793V25.8383Z" fill="#E9E9FF" stroke="#CCCCCC" stroke-width="0.304001" stroke-linejoin="bevel"/>
<path d="M25.1387 28.051V35.0921L30.9073 32.8793V25.8383L25.1387 28.051Z" fill="#353564" stroke="#CCCCCC" stroke-width="0.304001" stroke-linejoin="bevel"/>
<path d="M25.1387 35.0915L30.8232 37.2715L36.5919 35.0593L30.9073 32.8793L25.1387 35.0915Z" fill="#AFAFDE" stroke="#CCCCCC" stroke-width="0.304001" stroke-linejoin="bevel"/>
<path d="M25.1387 28.0505L30.8232 30.2305L36.5919 28.0182L30.9073 25.8383L25.1387 28.0505Z" fill="#F7F7F4" stroke="#CCCCCC" stroke-width="0.304001" stroke-linejoin="bevel"/>
<path d="M30.8232 30.2314V37.2725L36.5919 35.0598V28.0187L30.8232 30.2314Z" fill="#FFD242" stroke="#CCCCCC" stroke-width="0.304001" stroke-linejoin="bevel"/>
<path d="M25.1387 28.0509L30.8232 30.2314V37.2724L25.1387 35.092V28.0509Z" fill="#EFEEEA" stroke="#CCCCCC" stroke-width="0.304001" stroke-linejoin="bevel"/>
<path d="M30.9077 18.7274L36.5922 20.9079V27.949L30.9077 25.7685V18.7274Z" fill="#E9E9FF" stroke="#CCCCCC" stroke-width="0.304001" stroke-linejoin="bevel"/>
<path d="M25.1387 20.9401V27.9812L30.9073 25.7685V18.7274L25.1387 20.9401Z" fill="#353564" stroke="#CCCCCC" stroke-width="0.304001" stroke-linejoin="bevel"/>
<path d="M25.1387 27.9806L30.8232 30.1606L36.5919 27.9483L30.9073 25.7683L25.1387 27.9806Z" fill="#AFAFDE" stroke="#CCCCCC" stroke-width="0.304001" stroke-linejoin="bevel"/>
<path d="M25.1387 20.9397L30.8232 23.1197L36.5919 20.9074L30.9073 18.7274L25.1387 20.9397Z" fill="#F7F7F4" stroke="#CCCCCC" stroke-width="0.304001" stroke-linejoin="bevel"/>
<path d="M30.8232 23.1206V30.1617L36.5919 27.9489V20.9078L30.8232 23.1206Z" fill="#3775A9" stroke="#CCCCCC" stroke-width="0.304001" stroke-linejoin="bevel"/>
<path d="M25.1387 20.9401L30.8232 23.1205V30.1616L25.1387 27.9811V20.9401Z" fill="#EFEEEA" stroke="#CCCCCC" stroke-width="0.304001" stroke-linejoin="bevel"/>
<path d="M25.1982 28.0262L30.8828 30.2067V37.2478L25.1982 35.0673V28.0262Z" fill="#E9E9FF" stroke="#CCCCCC" stroke-width="0.304001" stroke-linejoin="bevel"/>
<path d="M19.4297 30.239V37.2801L25.1984 35.0673V28.0262L19.4297 30.239Z" fill="#353564" stroke="#CCCCCC" stroke-width="0.304001" stroke-linejoin="bevel"/>
<path d="M19.4297 37.2795L25.1142 39.4595L30.8829 37.2472L25.1984 35.0673L19.4297 37.2795Z" fill="#AFAFDE" stroke="#CCCCCC" stroke-width="0.304001" stroke-linejoin="bevel"/>
<path d="M19.4297 30.2385L25.1142 32.4185L30.8829 30.2062L25.1984 28.0262L19.4297 30.2385Z" fill="#F7F7F4" stroke="#CCCCCC" stroke-width="0.304001" stroke-linejoin="bevel"/>
<path d="M25.1138 32.4194V39.4605L30.8824 37.2477V30.2067L25.1138 32.4194Z" fill="#3775A9" stroke="#CCCCCC" stroke-width="0.304001" stroke-linejoin="bevel"/>
<path d="M19.4297 30.239L25.1142 32.4195V39.4606L19.4297 37.2801V30.239Z" fill="#2F6491" stroke="#CCCCCC" stroke-width="0.304001" stroke-linejoin="bevel"/>
<path d="M25.1982 20.9153L30.8828 23.0957V30.1368L25.1982 27.9564V20.9153Z" fill="#E9E9FF" stroke="#CCCCCC" stroke-width="0.304001" stroke-linejoin="bevel"/>
<path d="M19.4297 23.128V30.1691L25.1984 27.9564V20.9153L19.4297 23.128Z" fill="#353564" stroke="#CCCCCC" stroke-width="0.304001" stroke-linejoin="bevel"/>
<path d="M19.4297 30.1687L25.1142 32.3487L30.8829 30.1364L25.1984 27.9564L19.4297 30.1687Z" fill="#AFAFDE" stroke="#CCCCCC" stroke-width="0.304001" stroke-linejoin="bevel"/>
<path d="M19.4297 23.1275L25.1142 25.3075L30.8829 23.0953L25.1984 20.9153L19.4297 23.1275Z" fill="#2F6491" stroke="#CCCCCC" stroke-width="0.304001" stroke-linejoin="bevel"/>
<path d="M25.1138 25.3086V32.3496L30.8824 30.1369V23.0958L25.1138 25.3086Z" fill="#3775A9" stroke="#CCCCCC" stroke-width="0.304001" stroke-linejoin="bevel"/>
<path d="M19.4297 23.1281L25.1142 25.3085V32.3496L19.4297 30.1691V23.1281Z" fill="#2F6491" stroke="#CCCCCC" stroke-width="0.304001" stroke-linejoin="bevel"/>
<path d="M30.9077 11.6165L36.5922 13.7969V20.838L30.9077 18.6575V11.6165Z" fill="#E9E9FF" stroke="#CCCCCC" stroke-width="0.304001" stroke-linejoin="bevel"/>
<path d="M25.1387 13.8292V20.8703L30.9073 18.6575V11.6165L25.1387 13.8292Z" fill="#353564" stroke="#CCCCCC" stroke-width="0.304001" stroke-linejoin="bevel"/>
<path d="M25.1387 20.8697L30.8232 23.0497L36.5919 20.8375L30.9073 18.6575L25.1387 20.8697Z" fill="#AFAFDE" stroke="#CCCCCC" stroke-width="0.304001" stroke-linejoin="bevel"/>
<path d="M25.1387 13.8287L30.8232 16.0087L36.5919 13.7964L30.9073 11.6165L25.1387 13.8287Z" fill="#2F6491" stroke="#CCCCCC" stroke-width="0.304001" stroke-linejoin="bevel"/>
<path d="M30.8232 16.0096V23.0507L36.5919 20.838V13.7969L30.8232 16.0096Z" fill="#3775A9" stroke="#CCCCCC" stroke-width="0.304001" stroke-linejoin="bevel"/>
<path d="M25.1387 13.8292L30.8232 16.0097V23.0508L25.1387 20.8703V13.8292Z" fill="#2F6491" stroke="#CCCCCC" stroke-width="0.304001" stroke-linejoin="bevel"/>
<path d="M32.9765 19.938C33.5884 19.7034 34.0844 18.9569 34.0844 18.2709C34.0844 17.5848 33.5884 17.2189 32.9765 17.4536C32.3646 17.6883 31.8687 18.4347 31.8687 19.1208C31.8687 19.8068 32.3646 20.1727 32.9765 19.938Z" fill="white"/>
</g>
<rect x="1.06074" y="1.04976" width="53.9" height="53.9" rx="7.35" stroke="white" stroke-opacity="0.15" stroke-width="2.1"/>
<defs>
<filter id="filter0_d_48_311" x="2.1446" y="2.28547" width="51.7328" height="51.4286" filterUnits="userSpaceOnUse" color-interpolation-filters="sRGB">
<feFlood flood-opacity="0" result="BackgroundImageFix"/>
<feColorMatrix in="SourceAlpha" type="matrix" values="0 0 0 0 0 0 0 0 0 0 0 0 0 0 0 0 0 0 127 0" result="hardAlpha"/>
<feOffset/>
<feGaussianBlur stdDeviation="2.85714"/>
<feComposite in2="hardAlpha" operator="out"/>
<feColorMatrix type="matrix" values="0 0 0 0 0 0 0 0 0 0 0 0 0 0 0 0 0 0 0.25 0"/>
<feBlend mode="normal" in2="BackgroundImageFix" result="effect1_dropShadow_48_311"/>
<feBlend mode="normal" in="SourceGraphic" in2="effect1_dropShadow_48_311" result="shape"/>
</filter>
<linearGradient id="paint0_linear_48_311" x1="28.0107" y1="-0.000244141" x2="28.0107" y2="55.9997" gradientUnits="userSpaceOnUse">
<stop stop-color="#001F31"/>
<stop offset="1" stop-color="#00121D"/>
</linearGradient>
</defs>
</svg>
