<svg width="57" height="56" viewBox="0 0 57 56" fill="none" xmlns="http://www.w3.org/2000/svg">
<g clip-path="url(#clip0_1_106)">
<rect x="0.0107422" y="-0.000244141" width="56" height="56" rx="8.4" fill="url(#paint0_linear_1_106)"/>
<g filter="url(#filter0_d_1_106)">
<path d="M4.27469 30.2415C4.17334 30.2415 4.0929 30.3264 4.0798 30.4475L3.72461 33.3709L4.0798 36.244C4.0929 36.3651 4.17329 36.4494 4.27469 36.4494C4.37285 36.4494 4.4528 36.3657 4.46845 36.2451L4.88945 33.3709L4.46845 30.4469C4.45329 30.3263 4.37236 30.2415 4.27469 30.2415ZM6.27216 28.6442C6.25542 28.5186 6.17238 28.4319 6.07 28.4319C5.96708 28.4319 5.88193 28.5214 5.86785 28.6442C5.86785 28.6453 5.3904 33.3709 5.3904 33.3709L5.86785 37.993C5.88144 38.1169 5.96659 38.2064 6.07 38.2064C6.17184 38.2064 6.25493 38.1192 6.27162 37.9941L6.81483 33.3709L6.27216 28.6442ZM13.7962 24.2842C13.6003 24.2842 13.4384 24.458 13.429 24.6787L13.0487 33.3749L13.429 38.9948C13.4389 39.2144 13.6003 39.3876 13.7962 39.3876C13.991 39.3876 14.1525 39.2138 14.1639 38.9937V38.9954L14.5938 33.3749L14.1639 24.6787C14.1524 24.458 13.991 24.2842 13.7962 24.2842ZM9.902 27.3067C9.75158 27.3067 9.62883 27.4369 9.61676 27.6106L9.18844 33.3726L9.61676 38.9472C9.62824 39.1198 9.75153 39.25 9.902 39.25C10.0509 39.25 10.1736 39.1198 10.1867 38.9472L10.6735 33.3726L10.1867 27.6094C10.1736 27.4369 10.0509 27.3067 9.902 27.3067ZM17.7536 39.387C17.9965 39.387 18.1939 39.1747 18.2038 38.903L18.5768 33.3777L18.2044 21.7999C18.1945 21.5282 17.997 21.316 17.7541 21.316C17.5091 21.316 17.3112 21.5288 17.3033 21.8005L16.9726 33.3771L17.3033 38.9047C17.3111 39.1742 17.5091 39.387 17.7536 39.387ZM25.8553 39.4131C26.1897 39.4131 26.4655 39.1148 26.4717 38.748L26.7319 33.3811L26.4717 20.0097C26.4659 19.6435 26.1896 19.3446 25.8553 19.3446C25.5205 19.3446 25.2441 19.6429 25.2389 20.0103L25.0065 33.3766C25.0065 33.3851 25.2389 38.7514 25.2389 38.7514C25.2442 39.1148 25.521 39.4131 25.8553 39.4131ZM21.7736 39.3921C22.0646 39.3921 22.2991 39.1391 22.307 38.8165V38.8204L22.6235 33.3788L22.3064 21.7173C22.2986 21.3947 22.0641 21.1423 21.7731 21.1423C21.48 21.1423 21.2455 21.3948 21.2392 21.7173L20.9577 33.3794L21.2398 38.8199C21.2461 39.1391 21.4806 39.3921 21.7736 39.3921ZM11.8415 39.3412C12.0144 39.3412 12.1544 39.1912 12.1675 38.9937L12.6261 33.3726L12.1675 28.0255C12.155 27.828 12.015 27.6791 11.8415 27.6791C11.6661 27.6791 11.526 27.8291 11.5151 28.0278L11.1113 33.3726L11.5151 38.9931C11.5266 39.1912 11.666 39.3412 11.8415 39.3412ZM7.9782 39.0333C8.10458 39.0333 8.20696 38.9252 8.22158 38.7757L8.73662 33.3715L8.22207 27.7635C8.20691 27.6135 8.10453 27.5053 7.97815 27.5053C7.85015 27.5053 7.74777 27.614 7.73472 27.7635L7.28133 33.3715L7.73472 38.7746C7.74728 38.9246 7.84966 39.0333 7.9782 39.0333ZM23.8067 21.5232C23.4906 21.5232 23.2372 21.7955 23.231 22.1441L22.974 33.38L23.231 38.7865C23.2373 39.1306 23.4901 39.4029 23.8067 39.4029C24.1221 39.4029 24.374 39.1312 24.3812 38.7825V38.7871L24.6696 33.3806L24.3812 22.143C24.3739 21.7955 24.1221 21.5232 23.8067 21.5232ZM15.7675 39.3984C15.9859 39.3984 16.1661 39.2053 16.1766 38.9591L16.5777 33.3765L16.1766 22.6914C16.1656 22.4446 15.9859 22.2522 15.7675 22.2522C15.5471 22.2522 15.3675 22.4452 15.358 22.6914L15.0028 33.3765L15.3586 38.9614C15.3674 39.2053 15.5471 39.3984 15.7675 39.3984ZM20.2473 38.8714V38.8685L20.592 33.3783L20.2473 21.4106C20.2389 21.1134 20.0227 20.8802 19.7557 20.8802C19.4872 20.8802 19.271 21.1128 19.2637 21.4106L18.9576 33.3777L19.2642 38.8708C19.2715 39.1651 19.4878 39.3977 19.7558 39.3977C20.0232 39.3977 20.2384 39.1651 20.2473 38.8691V38.8714H20.2473ZM46.3223 26.4797C45.5037 26.4797 44.7228 26.6592 44.0114 26.9823C43.536 21.1479 39.0208 16.5712 33.513 16.5712C32.1654 16.5712 30.8516 16.8587 29.6915 17.3449C29.2407 17.5339 29.1206 17.7286 29.1164 18.1062V38.6523C29.1211 39.0485 29.4047 39.3785 29.7615 39.4176C29.7767 39.4193 46.2152 39.4283 46.3218 39.4283C49.621 39.4283 52.296 36.5297 52.296 32.9543C52.296 29.3788 49.6215 26.4797 46.3223 26.4797ZM27.8951 18.0881C27.5362 18.0881 27.2417 18.4073 27.2364 18.7995L26.9669 33.3828L27.237 38.6755C27.2417 39.0622 27.5363 39.3808 27.8951 39.3808C28.2529 39.3808 28.5475 39.0622 28.5527 38.6699V38.6761L28.8458 33.3828L28.5527 18.7984C28.5475 18.4073 28.2529 18.0881 27.8951 18.0881Z" fill="url(#paint1_linear_1_106)"/>
</g>
</g>
<rect x="1.06074" y="1.04976" width="53.9" height="53.9" rx="7.35" stroke="white" stroke-opacity="0.15" stroke-width="2.1"/>
<defs>
<filter id="filter0_d_1_106" x="-1.98968" y="2.28547" width="59.9999" height="51.4286" filterUnits="userSpaceOnUse" color-interpolation-filters="sRGB">
<feFlood flood-opacity="0" result="BackgroundImageFix"/>
<feColorMatrix in="SourceAlpha" type="matrix" values="0 0 0 0 0 0 0 0 0 0 0 0 0 0 0 0 0 0 127 0" result="hardAlpha"/>
<feOffset/>
<feGaussianBlur stdDeviation="2.85714"/>
<feComposite in2="hardAlpha" operator="out"/>
<feColorMatrix type="matrix" values="0 0 0 0 0 0 0 0 0 0 0 0 0 0 0 0 0 0 0.25 0"/>
<feBlend mode="normal" in2="BackgroundImageFix" result="effect1_dropShadow_1_106"/>
<feBlend mode="normal" in="SourceGraphic" in2="effect1_dropShadow_1_106" result="shape"/>
</filter>
<linearGradient id="paint0_linear_1_106" x1="28.0107" y1="-0.000244141" x2="28.0107" y2="55.9997" gradientUnits="userSpaceOnUse">
<stop stop-color="#402806"/>
<stop offset="1" stop-color="#270802"/>
</linearGradient>
<linearGradient id="paint1_linear_1_106" x1="28.008" y1="16.567" x2="28.008" y2="46.569" gradientUnits="userSpaceOnUse">
<stop stop-color="#F79810"/>
<stop offset="1" stop-color="#F8310E"/>
</linearGradient>
<clipPath id="clip0_1_106">
<rect x="0.0107422" y="-0.000244141" width="56" height="56" rx="8.4" fill="white"/>
</clipPath>
</defs>
</svg>
