<svg width="57" height="56" viewBox="0 0 57 56" fill="none" xmlns="http://www.w3.org/2000/svg">
<rect x="0.0107422" y="-0.000183105" width="56" height="56" rx="8.4" fill="url(#paint0_linear_28_3461)"/>
<g filter="url(#filter0_d_28_3461)">
<path d="M8.82696 33.7511C11.2998 41.9911 18.9478 47.9998 27.998 47.9998C39.0508 47.9998 48.0109 39.0454 48.0109 27.9998C48.0109 16.9542 39.0508 7.99982 27.998 7.99982C17.3925 7.99982 8.71376 16.2454 8.02832 26.6711C9.3254 28.8442 9.82885 30.1886 8.82571 33.7511H8.82696Z" fill="url(#paint1_linear_28_3461)"/>
<path d="M26.9666 22.9905L26.9685 23.0892L22.0716 30.1986C21.2786 30.1623 20.4831 30.3017 19.7276 30.6123C19.3987 30.7459 19.0847 30.9135 18.7907 31.1123L8.03693 26.683C8.03693 26.683 7.78802 30.7742 8.82494 33.823L16.4273 36.958C16.8026 38.663 17.9783 40.158 19.7057 40.8767C21.0646 41.441 22.5922 41.4432 23.9527 40.8828C25.3133 40.3224 26.3957 39.2453 26.9622 37.888C27.2644 37.165 27.4102 36.3863 27.39 35.603L34.3901 30.5998L34.5621 30.603C38.7554 30.603 42.1639 27.1867 42.1639 22.9905C42.1639 18.7942 38.7617 15.3905 34.5621 15.3817C30.3707 15.3817 26.9603 18.7942 26.9603 22.9905H26.9666ZM25.7908 37.3967C24.8815 39.5842 22.3724 40.6136 20.1916 39.7055C19.2239 39.299 18.4395 38.5511 17.9877 37.6042L20.4624 38.6292C20.8447 38.7882 21.2546 38.8704 21.6687 38.8711C22.0828 38.8717 22.493 38.7909 22.8758 38.633C23.2586 38.4752 23.6065 38.2436 23.8997 37.9513C24.1929 37.6591 24.4255 37.312 24.5844 36.9298C24.9062 36.1577 24.9081 35.2895 24.5897 34.5159C24.2714 33.7423 23.6587 33.1267 22.8865 32.8042L20.3223 31.7448C21.3092 31.3698 22.4312 31.3573 23.4806 31.793C24.5438 32.2323 25.3568 33.0598 25.7921 34.118C26.2274 35.1761 26.2249 36.343 25.7858 37.3967M34.569 28.0623C33.2253 28.0587 31.9378 27.523 30.9885 26.5726C30.0393 25.6222 29.5056 24.3345 29.5045 22.9917C29.506 21.6491 30.0398 20.3618 30.989 19.4116C31.9382 18.4615 33.2255 17.926 34.569 17.9223C35.9127 17.9256 37.2003 18.461 38.1498 19.4112C39.0993 20.3614 39.6332 21.6489 39.6347 22.9917C39.6336 24.3348 39.0998 25.6226 38.1502 26.573C37.2007 27.5235 35.9129 28.059 34.569 28.0623ZM30.774 22.9836C30.7732 21.9746 31.1733 21.0067 31.8863 20.2924C32.5993 19.578 33.5669 19.1759 34.5765 19.1742C36.6747 19.1742 38.3814 20.8805 38.3814 22.9836C38.3819 23.9927 37.9814 24.9608 37.2679 25.6749C36.5544 26.389 35.5863 26.7907 34.5765 26.7917C33.567 26.7902 32.5994 26.3883 31.8863 25.6742C31.1732 24.9602 30.7729 23.9924 30.7734 22.9836H30.774Z" fill="white"/>
</g>
<rect x="1.06074" y="1.04982" width="53.9" height="53.9" rx="7.35" stroke="white" stroke-opacity="0.15" stroke-width="2.1"/>
<defs>
<filter id="filter0_d_28_3461" x="2.29646" y="2.28553" width="51.4286" height="51.4286" filterUnits="userSpaceOnUse" color-interpolation-filters="sRGB">
<feFlood flood-opacity="0" result="BackgroundImageFix"/>
<feColorMatrix in="SourceAlpha" type="matrix" values="0 0 0 0 0 0 0 0 0 0 0 0 0 0 0 0 0 0 127 0" result="hardAlpha"/>
<feOffset/>
<feGaussianBlur stdDeviation="2.85714"/>
<feComposite in2="hardAlpha" operator="out"/>
<feColorMatrix type="matrix" values="0 0 0 0 0 0 0 0 0 0 0 0 0 0 0 0 0 0 0.25 0"/>
<feBlend mode="normal" in2="BackgroundImageFix" result="effect1_dropShadow_28_3461"/>
<feBlend mode="normal" in="SourceGraphic" in2="effect1_dropShadow_28_3461" result="shape"/>
</filter>
<linearGradient id="paint0_linear_28_3461" x1="28.0107" y1="-0.000183105" x2="28.0107" y2="55.9998" gradientUnits="userSpaceOnUse">
<stop stop-color="#0D1B31"/>
<stop offset="1" stop-color="#081320"/>
</linearGradient>
<linearGradient id="paint1_linear_28_3461" x1="28.0196" y1="7.99982" x2="28.0196" y2="47.9998" gradientUnits="userSpaceOnUse">
<stop stop-color="#111D2E"/>
<stop offset="0.212" stop-color="#051839"/>
<stop offset="0.407" stop-color="#0A1B48"/>
<stop offset="0.581" stop-color="#132E62"/>
<stop offset="0.738" stop-color="#144B7E"/>
<stop offset="0.873" stop-color="#136497"/>
<stop offset="1" stop-color="#1387B8"/>
</linearGradient>
</defs>
</svg>
