<svg width="57" height="56" viewBox="0 0 57 56" fill="none" xmlns="http://www.w3.org/2000/svg">
<rect x="0.0107422" y="-0.000244141" width="56" height="56" rx="8.4" fill="url(#paint0_linear_3_924)"/>
<g filter="url(#filter0_d_3_924)">
<path d="M28.0955 9.87488C24.9777 9.87672 21.9138 10.6882 19.2037 12.2298C16.4937 13.7714 14.2303 15.9904 12.6351 18.6695C11.04 21.3486 10.1678 24.3961 10.1039 27.5135C10.0399 30.631 10.7865 33.7116 12.2704 36.4539L9.01318 46.9328L20.7097 44.2903C23.1573 45.3932 25.8204 45.9345 28.5043 45.8748C31.1881 45.8151 33.8245 45.1558 36.2206 43.9452C38.6167 42.7345 40.7116 41.0033 42.3521 38.8782C43.9926 36.753 45.137 34.2879 45.7016 31.6632C46.2662 29.0385 46.2366 26.3207 45.6151 23.7089C44.9935 21.0971 43.7957 18.6574 42.1094 16.5685C40.4231 14.4796 38.2909 12.7943 35.8691 11.6362C33.4473 10.478 30.7971 9.87619 28.1126 9.87488H28.0955Z" fill="#FFF9AE"/>
<path d="M42.3774 16.9254C44.8037 20.1069 46.1007 24.0064 46.0633 28.0076C46.0259 32.0087 44.6563 35.8833 42.1709 39.0189C39.6855 42.1545 36.2261 44.3723 32.3395 45.3218C28.4529 46.2713 24.3607 45.8984 20.7097 44.2619L9.01318 46.9386L20.9204 45.5319C24.7334 47.7657 29.2349 48.5183 33.567 47.6461C37.8991 46.774 41.7589 44.3381 44.4106 40.8028C47.0623 37.2675 48.3207 32.8799 47.9457 28.4764C47.5707 24.0729 45.5887 19.9614 42.3774 16.9254V16.9254Z" fill="#00AEEF"/>
<path d="M39.0632 13.6052C41.8082 16.516 43.5051 20.2587 43.8855 24.2418C44.266 28.2248 43.3083 32.2211 41.1639 35.599C39.0196 38.9769 35.8108 41.5438 32.0446 42.894C28.2785 44.2442 24.1699 44.3007 20.3681 43.0546L9.01318 46.9386L20.7097 44.2904C24.7338 46.1083 29.2857 46.383 33.4991 45.0623C37.7126 43.7416 41.2934 40.9177 43.5602 37.128C45.8269 33.3383 46.6212 28.8473 45.792 24.5099C44.9628 20.1725 42.5679 16.2914 39.0632 13.6052V13.6052Z" fill="#00A94F"/>
<path d="M13.3467 36.8525C11.765 33.0394 11.5417 28.7984 12.7143 24.8402C13.887 20.882 16.3843 17.4471 19.7877 15.1112C23.1912 12.7752 27.294 11.6801 31.4087 12.0094C35.5234 12.3387 39.4 14.0723 42.3888 16.9197C39.6383 13.3099 35.626 10.8722 31.1551 10.0947C26.6842 9.31718 22.0846 10.2572 18.2772 12.7267C14.4697 15.1961 11.7354 19.0127 10.6216 23.4123C9.50781 27.8119 10.0967 32.47 12.2704 36.4539L9.01318 46.9328L13.3467 36.8525Z" fill="#F15D22"/>
<path d="M12.2707 36.4538C10.3078 32.828 9.64906 28.6381 10.4044 24.5847C11.1598 20.5314 13.2836 16.8602 16.4206 14.1849C19.5577 11.5096 23.518 9.99236 27.6394 9.88683C31.7608 9.78131 35.7935 11.0939 39.0634 13.6051C35.9463 10.3227 31.7071 8.33515 27.1904 8.03858C22.6737 7.74201 18.2111 9.15815 14.6917 12.0049C11.1723 14.8516 8.85442 18.9199 8.19995 23.3992C7.54548 27.8785 8.60243 32.4399 11.1602 36.1748L9.01908 46.9385L12.2707 36.4538Z" fill="#E31B23"/>
</g>
<rect x="1.06074" y="1.04976" width="53.9" height="53.9" rx="7.35" stroke="white" stroke-opacity="0.15" stroke-width="2.1"/>
<defs>
<filter id="filter0_d_3_924" x="2.29646" y="2.28547" width="51.4286" height="51.4288" filterUnits="userSpaceOnUse" color-interpolation-filters="sRGB">
<feFlood flood-opacity="0" result="BackgroundImageFix"/>
<feColorMatrix in="SourceAlpha" type="matrix" values="0 0 0 0 0 0 0 0 0 0 0 0 0 0 0 0 0 0 127 0" result="hardAlpha"/>
<feOffset/>
<feGaussianBlur stdDeviation="2.85714"/>
<feComposite in2="hardAlpha" operator="out"/>
<feColorMatrix type="matrix" values="0 0 0 0 0 0 0 0 0 0 0 0 0 0 0 0 0 0 0.25 0"/>
<feBlend mode="normal" in2="BackgroundImageFix" result="effect1_dropShadow_3_924"/>
<feBlend mode="normal" in="SourceGraphic" in2="effect1_dropShadow_3_924" result="shape"/>
</filter>
<linearGradient id="paint0_linear_3_924" x1="28.0107" y1="-0.000244141" x2="28.0107" y2="55.9997" gradientUnits="userSpaceOnUse">
<stop stop-color="#353426"/>
<stop offset="1" stop-color="#27261C"/>
</linearGradient>
</defs>
</svg>
