<svg width="57" height="56" viewBox="0 0 57 56" fill="none" xmlns="http://www.w3.org/2000/svg">
<rect x="0.0107422" y="-6.10352e-05" width="56" height="56" rx="8.4" fill="url(#paint0_linear_28_3624)"/>
<g filter="url(#filter0_d_28_3624)">
<path d="M41.871 15.493C39.3088 14.3368 36.5864 13.496 33.7252 13.0019C33.6718 13.0019 33.6184 13.0019 33.5971 13.065C33.2448 13.6852 32.8497 14.484 32.5828 15.1146C29.4868 14.6627 26.4441 14.6627 23.4334 15.1146C23.1558 14.463 22.7608 13.6746 22.3658 13.065C22.3338 13.023 22.2911 12.9914 22.2377 13.0019C19.7822 13.4854 16.6434 14.3684 14.1238 15.493C14.1025 15.493 14.0811 15.514 14.0705 15.5351C8.83917 23.208 7.45128 30.5656 8.19861 37.9232C8.19861 37.9547 8.21996 37.9967 8.25199 38.0283C11.6683 40.5088 14.9779 42.0224 18.2448 42.9999C18.2982 42.9999 18.3516 42.9999 18.3836 42.9579C19.1523 41.9278 19.8356 40.8347 20.4334 39.6785C20.4655 39.6154 20.4334 39.5313 20.3587 39.5103C19.2911 39.0899 18.2235 38.6064 17.2306 38.0388C17.1559 37.9967 17.1452 37.8811 17.2306 37.8286C17.4441 37.6709 17.6576 37.5132 17.8498 37.3556C17.8818 37.324 17.9352 37.324 17.9779 37.3346C24.533 40.2776 31.6433 40.2776 38.049 37.3346C38.0917 37.3135 38.1451 37.324 38.1771 37.3451C38.38 37.5132 38.5828 37.6709 38.7963 37.8286C38.8711 37.8811 38.8604 37.9967 38.7963 38.0388C37.8034 38.6169 36.7679 39.0899 35.6682 39.5103C35.5935 39.5418 35.5615 39.6154 35.6042 39.689C36.202 40.8452 36.896 41.9278 37.6326 42.9473C37.6647 42.9894 37.718 43.0104 37.7714 42.9894C41.0383 41.9909 44.3586 40.4878 47.7856 38.0178C47.8176 37.9967 47.839 37.9652 47.839 37.9126C48.6717 29.4094 46.4404 22.0413 41.9244 15.5245C41.9244 15.5035 41.8924 15.4825 41.871 15.4825V15.493ZM21.3729 33.4666C19.3445 33.4666 17.743 31.6797 17.743 29.4724C17.743 27.2652 19.3445 25.4783 21.3729 25.4783C23.4014 25.4783 25.0028 27.2652 25.0028 29.4724C25.0028 31.6797 23.4014 33.4666 21.3729 33.4666ZM34.7181 33.4666C32.6896 33.4666 31.0882 31.6797 31.0882 29.4724C31.0882 27.2652 32.6896 25.4783 34.7181 25.4783C36.7465 25.4783 38.3479 27.2652 38.3479 29.4724C38.3479 31.6797 36.7465 33.4666 34.7181 33.4666Z" fill="#5865F2"/>
</g>
<rect x="1.06074" y="1.04994" width="53.9" height="53.9" rx="7.35" stroke="white" stroke-opacity="0.15" stroke-width="2.1"/>
<defs>
<filter id="filter0_d_28_3624" x="2.29646" y="2.28565" width="51.4286" height="51.4286" filterUnits="userSpaceOnUse" color-interpolation-filters="sRGB">
<feFlood flood-opacity="0" result="BackgroundImageFix"/>
<feColorMatrix in="SourceAlpha" type="matrix" values="0 0 0 0 0 0 0 0 0 0 0 0 0 0 0 0 0 0 127 0" result="hardAlpha"/>
<feOffset/>
<feGaussianBlur stdDeviation="2.85714"/>
<feComposite in2="hardAlpha" operator="out"/>
<feColorMatrix type="matrix" values="0 0 0 0 0 0 0 0 0 0 0 0 0 0 0 0 0 0 0.25 0"/>
<feBlend mode="normal" in2="BackgroundImageFix" result="effect1_dropShadow_28_3624"/>
<feBlend mode="normal" in="SourceGraphic" in2="effect1_dropShadow_28_3624" result="shape"/>
</filter>
<linearGradient id="paint0_linear_28_3624" x1="28.0107" y1="-6.10351e-05" x2="28.0107" y2="55.9999" gradientUnits="userSpaceOnUse">
<stop stop-color="#1B1D31"/>
<stop offset="1" stop-color="#11121F"/>
</linearGradient>
</defs>
</svg>
