<svg width="57" height="56" viewBox="0 0 57 56" fill="none" xmlns="http://www.w3.org/2000/svg">
<rect x="0.0107422" y="-0.000244141" width="56" height="56" rx="8.4" fill="url(#paint0_linear_3_943)"/>
<g filter="url(#filter0_d_3_943)">
<path d="M28.7408 46.5714C23.9886 46.5714 19.6386 44.9122 16.2812 42.1664L8.01123 43.2382L11.2009 35.7005C10.0811 33.3531 9.46905 30.7458 9.46905 27.9999C9.46905 17.7409 18.1012 9.42859 28.7386 9.42859C39.3912 9.42859 48.0112 17.7409 48.0112 27.9999C48.0112 38.2582 39.3912 46.5714 28.7408 46.5714Z" fill="#2299F8"/>
<path d="M28.8637 18.0951H21.7612V37.9045H28.7636C35.3885 37.9045 39.261 33.658 39.261 27.9457V27.8933C39.261 22.1831 35.4387 18.0951 28.8637 18.0951ZM34.0184 28.0125C34.0184 31.2215 31.9938 33.0315 28.9384 33.0315H26.8638V22.9536H28.9384C31.9938 22.9536 34.0184 24.7908 34.0184 27.9604V28.0125Z" fill="#FCFCFC"/>
</g>
<rect x="1.06074" y="1.04976" width="53.9" height="53.9" rx="7.35" stroke="white" stroke-opacity="0.15" stroke-width="2.1"/>
<defs>
<filter id="filter0_d_3_943" x="2.29646" y="2.28547" width="51.4291" height="51.4286" filterUnits="userSpaceOnUse" color-interpolation-filters="sRGB">
<feFlood flood-opacity="0" result="BackgroundImageFix"/>
<feColorMatrix in="SourceAlpha" type="matrix" values="0 0 0 0 0 0 0 0 0 0 0 0 0 0 0 0 0 0 127 0" result="hardAlpha"/>
<feOffset/>
<feGaussianBlur stdDeviation="2.85714"/>
<feComposite in2="hardAlpha" operator="out"/>
<feColorMatrix type="matrix" values="0 0 0 0 0 0 0 0 0 0 0 0 0 0 0 0 0 0 0.25 0"/>
<feBlend mode="normal" in2="BackgroundImageFix" result="effect1_dropShadow_3_943"/>
<feBlend mode="normal" in="SourceGraphic" in2="effect1_dropShadow_3_943" result="shape"/>
</filter>
<linearGradient id="paint0_linear_3_943" x1="28.0107" y1="-0.000244141" x2="28.0107" y2="55.9997" gradientUnits="userSpaceOnUse">
<stop stop-color="#051F30"/>
<stop offset="1" stop-color="#031420"/>
</linearGradient>
</defs>
</svg>
