<svg width="57" height="56" viewBox="0 0 57 56" fill="none" xmlns="http://www.w3.org/2000/svg">
<rect x="0.0107422" y="-0.000244141" width="56" height="56" rx="8.4" fill="url(#paint0_linear_3_951)"/>
<g filter="url(#filter0_d_3_951)">
<path d="M48.0114 21.0643H36.8722L33.5811 10.8571H40.4165L48.0114 21.0643Z" fill="#5DADEC"/>
<path d="M8.01103 21.0643H19.1503L22.4414 10.8571H15.606L8.01103 21.0643Z" fill="#BDDDF4"/>
<path d="M19.1509 21.0643H36.8724L33.5813 10.8571H22.442L19.1509 21.0643Z" fill="#8CCAF7"/>
<path d="M36.8724 21.0643H19.1509L28.0116 45.1428L36.8724 21.0643Z" fill="#5DADEC"/>
<path d="M28.0112 45.1428L48.0112 21.0643H36.872L28.0112 45.1428Z" fill="#4289C1"/>
<path d="M28.0112 45.1428L8.01123 21.0643H19.1505L28.0112 45.1428Z" fill="#8CCAF7"/>
</g>
<rect x="1.06074" y="1.04976" width="53.9" height="53.9" rx="7.35" stroke="white" stroke-opacity="0.15" stroke-width="2.1"/>
<defs>
<filter id="filter0_d_3_951" x="2.29646" y="2.28547" width="51.4291" height="51.4286" filterUnits="userSpaceOnUse" color-interpolation-filters="sRGB">
<feFlood flood-opacity="0" result="BackgroundImageFix"/>
<feColorMatrix in="SourceAlpha" type="matrix" values="0 0 0 0 0 0 0 0 0 0 0 0 0 0 0 0 0 0 127 0" result="hardAlpha"/>
<feOffset/>
<feGaussianBlur stdDeviation="2.85714"/>
<feComposite in2="hardAlpha" operator="out"/>
<feColorMatrix type="matrix" values="0 0 0 0 0 0 0 0 0 0 0 0 0 0 0 0 0 0 0.25 0"/>
<feBlend mode="normal" in2="BackgroundImageFix" result="effect1_dropShadow_3_951"/>
<feBlend mode="normal" in="SourceGraphic" in2="effect1_dropShadow_3_951" result="shape"/>
</filter>
<linearGradient id="paint0_linear_3_951" x1="28.0107" y1="-0.000244141" x2="28.0107" y2="55.9997" gradientUnits="userSpaceOnUse">
<stop stop-color="#242E35"/>
<stop offset="1" stop-color="#12202B"/>
</linearGradient>
</defs>
</svg>
