<svg width="57" height="56" viewBox="0 0 57 56" fill="none" xmlns="http://www.w3.org/2000/svg">
<rect x="0.0107422" y="-0.000244141" width="56" height="56" rx="8.4" fill="url(#paint0_linear_28_3746)"/>
<g filter="url(#filter0_d_28_3746)">
<path d="M46.4334 16.8553C45.8613 12.5576 42.155 9.17057 37.7614 8.51426C37.0201 8.40336 34.2116 7.99976 27.7057 7.99976H27.6571C21.1495 7.99976 19.7534 8.40336 19.0121 8.51426C14.7408 9.15238 10.8402 12.1958 9.89383 16.5445C9.43863 18.6861 9.39006 21.0605 9.47462 23.2385C9.59516 26.3618 9.61855 29.4797 9.89922 32.5904C10.0933 34.6567 10.4318 36.7064 10.9122 38.7244C11.8118 42.4514 15.4533 45.553 19.0211 46.8183C22.8409 48.1379 26.9488 48.357 30.8849 47.451C31.3179 47.3492 31.7455 47.231 32.1677 47.0965C33.1249 46.7892 34.2458 46.4456 35.0698 45.842C35.0811 45.8335 35.0904 45.8226 35.0969 45.81C35.1035 45.7974 35.1071 45.7835 35.1076 45.7693V42.755C35.1074 42.7417 35.1043 42.7287 35.0984 42.7168C35.0925 42.7049 35.0842 42.6944 35.0738 42.6862C35.0634 42.678 35.0514 42.6723 35.0386 42.6694C35.0258 42.6665 35.0124 42.6666 34.9997 42.6696C32.4779 43.2782 29.8937 43.5834 27.3009 43.5786C22.8389 43.5786 21.6389 41.4387 21.2952 40.5479C21.019 39.778 20.8436 38.9749 20.7735 38.159C20.7727 38.1453 20.7753 38.1316 20.7808 38.1191C20.7862 38.1065 20.7946 38.0955 20.8051 38.0868C20.8156 38.0781 20.828 38.0721 20.8413 38.0692C20.8546 38.0662 20.8683 38.0665 20.8815 38.0699C23.3612 38.6745 25.9033 38.9796 28.4542 38.9789C29.0677 38.9789 29.6795 38.9789 30.293 38.9626C32.8586 38.8899 35.5628 38.7572 38.087 38.259C38.15 38.2463 38.213 38.2354 38.2669 38.219C42.2485 37.4463 46.0376 35.0211 46.4227 28.8798C46.437 28.638 46.4731 26.3473 46.4731 26.0964C46.4748 25.2437 46.7447 20.0478 46.4334 16.8553Z" fill="url(#paint1_linear_28_3746)"/>
<path d="M40.1251 21.6841V32.3614H35.9384V21.9986C35.9384 19.817 35.0388 18.7043 33.209 18.7043C31.1976 18.7043 30.1901 20.0206 30.1901 22.6204V28.2926H26.0285V22.6204C26.0285 20.0206 25.0192 18.7043 23.0077 18.7043C21.1887 18.7043 20.2801 19.817 20.2801 21.9986V32.3614H16.0952V21.6841C16.0952 19.5024 16.6464 17.7693 17.7487 16.4845C18.8857 15.2028 20.3773 14.5447 22.2286 14.5447C24.3715 14.5447 25.9907 15.3773 27.0703 17.0408L28.112 18.808L29.1555 17.0408C30.235 15.3773 31.8543 14.5447 33.9935 14.5447C35.8431 14.5447 37.3346 15.2028 38.4753 16.4845C39.5764 17.7681 40.1263 19.5012 40.1251 21.6841Z" fill="white"/>
</g>
<rect x="1.06074" y="1.04976" width="53.9" height="53.9" rx="7.35" stroke="white" stroke-opacity="0.15" stroke-width="2.1"/>
<defs>
<filter id="filter0_d_28_3746" x="2.29646" y="2.28547" width="51.4286" height="51.4286" filterUnits="userSpaceOnUse" color-interpolation-filters="sRGB">
<feFlood flood-opacity="0" result="BackgroundImageFix"/>
<feColorMatrix in="SourceAlpha" type="matrix" values="0 0 0 0 0 0 0 0 0 0 0 0 0 0 0 0 0 0 127 0" result="hardAlpha"/>
<feOffset/>
<feGaussianBlur stdDeviation="2.85714"/>
<feComposite in2="hardAlpha" operator="out"/>
<feColorMatrix type="matrix" values="0 0 0 0 0 0 0 0 0 0 0 0 0 0 0 0 0 0 0.25 0"/>
<feBlend mode="normal" in2="BackgroundImageFix" result="effect1_dropShadow_28_3746"/>
<feBlend mode="normal" in="SourceGraphic" in2="effect1_dropShadow_28_3746" result="shape"/>
</filter>
<linearGradient id="paint0_linear_28_3746" x1="28.0107" y1="-0.000244141" x2="28.0107" y2="55.9997" gradientUnits="userSpaceOnUse">
<stop stop-color="#1C1036"/>
<stop offset="1" stop-color="#0B0920"/>
</linearGradient>
<linearGradient id="paint1_linear_28_3746" x1="28.0119" y1="7.99976" x2="28.0119" y2="47.9997" gradientUnits="userSpaceOnUse">
<stop stop-color="#6364FF"/>
<stop offset="1" stop-color="#563ACC"/>
</linearGradient>
</defs>
</svg>
