<svg width="57" height="56" viewBox="0 0 57 56" fill="none" xmlns="http://www.w3.org/2000/svg">
<rect x="0.0107422" y="-0.000244141" width="56" height="56" rx="8.4" fill="url(#paint0_linear_28_3738)"/>
<g filter="url(#filter0_d_28_3738)">
<path d="M46.4334 16.8555C45.8613 12.5577 42.155 9.17069 37.7614 8.51438C37.0201 8.40348 34.2116 7.99988 27.7057 7.99988H27.6571C21.1495 7.99988 19.7534 8.40348 19.0121 8.51438C14.7408 9.15251 10.8402 12.1959 9.89383 16.5446C9.43863 18.6863 9.39006 21.0606 9.47462 23.2386C9.59516 26.3619 9.61855 29.4799 9.89922 32.5905C10.0933 34.6568 10.4318 36.7066 10.9122 38.7245C11.8118 42.4515 15.4533 45.5531 19.0211 46.8184C22.8409 48.138 26.9488 48.3571 30.8849 47.4511C31.3179 47.3493 31.7455 47.2311 32.1677 47.0966C33.1249 46.7893 34.2458 46.4457 35.0698 45.8421C35.0811 45.8336 35.0904 45.8227 35.0969 45.8101C35.1035 45.7975 35.1071 45.7836 35.1076 45.7694V42.7551C35.1074 42.7418 35.1043 42.7288 35.0984 42.7169C35.0925 42.705 35.0842 42.6945 35.0738 42.6863C35.0634 42.6781 35.0514 42.6724 35.0386 42.6695C35.0258 42.6667 35.0124 42.6667 34.9997 42.6697C32.4779 43.2783 29.8937 43.5835 27.3009 43.5787C22.8389 43.5787 21.6389 41.4389 21.2952 40.548C21.019 39.7781 20.8436 38.975 20.7735 38.1592C20.7727 38.1454 20.7753 38.1318 20.7808 38.1192C20.7862 38.1067 20.7946 38.0956 20.8051 38.087C20.8156 38.0782 20.828 38.0722 20.8413 38.0693C20.8546 38.0663 20.8683 38.0666 20.8815 38.07C23.3612 38.6746 25.9033 38.9798 28.4542 38.9791C29.0677 38.9791 29.6795 38.9791 30.293 38.9627C32.8586 38.89 35.5628 38.7573 38.087 38.2592C38.15 38.2464 38.213 38.2355 38.2669 38.2192C42.2485 37.4465 46.0376 35.0212 46.4227 28.8799C46.437 28.6381 46.4731 26.3474 46.4731 26.0965C46.4748 25.2439 46.7447 20.0479 46.4334 16.8555Z" fill="url(#paint1_linear_28_3738)"/>
<path d="M40.1251 21.6842V32.3615H35.9384V21.9987C35.9384 19.8171 35.0388 18.7044 33.209 18.7044C31.1976 18.7044 30.1901 20.0207 30.1901 22.6205V28.2927H26.0285V22.6205C26.0285 20.0207 25.0192 18.7044 23.0077 18.7044C21.1887 18.7044 20.2801 19.8171 20.2801 21.9987V32.3615H16.0952V21.6842C16.0952 19.5026 16.6464 17.7694 17.7487 16.4846C18.8857 15.2029 20.3773 14.5448 22.2286 14.5448C24.3715 14.5448 25.9907 15.3775 27.0703 17.041L28.112 18.8081L29.1555 17.041C30.235 15.3775 31.8543 14.5448 33.9935 14.5448C35.8431 14.5448 37.3346 15.2029 38.4753 16.4846C39.5764 17.7682 40.1263 19.5014 40.1251 21.6842Z" fill="white"/>
</g>
<rect x="1.06074" y="1.04976" width="53.9" height="53.9" rx="7.35" stroke="white" stroke-opacity="0.15" stroke-width="2.1"/>
<defs>
<filter id="filter0_d_28_3738" x="2.29646" y="2.28547" width="51.4286" height="51.4287" filterUnits="userSpaceOnUse" color-interpolation-filters="sRGB">
<feFlood flood-opacity="0" result="BackgroundImageFix"/>
<feColorMatrix in="SourceAlpha" type="matrix" values="0 0 0 0 0 0 0 0 0 0 0 0 0 0 0 0 0 0 127 0" result="hardAlpha"/>
<feOffset/>
<feGaussianBlur stdDeviation="2.85714"/>
<feComposite in2="hardAlpha" operator="out"/>
<feColorMatrix type="matrix" values="0 0 0 0 0 0 0 0 0 0 0 0 0 0 0 0 0 0 0.25 0"/>
<feBlend mode="normal" in2="BackgroundImageFix" result="effect1_dropShadow_28_3738"/>
<feBlend mode="normal" in="SourceGraphic" in2="effect1_dropShadow_28_3738" result="shape"/>
</filter>
<linearGradient id="paint0_linear_28_3738" x1="28.0107" y1="-0.000244141" x2="28.0107" y2="55.9997" gradientUnits="userSpaceOnUse">
<stop stop-color="#1C1036"/>
<stop offset="1" stop-color="#0B0920"/>
</linearGradient>
<linearGradient id="paint1_linear_28_3738" x1="28.0119" y1="7.99988" x2="28.0119" y2="47.9999" gradientUnits="userSpaceOnUse">
<stop stop-color="#6364FF"/>
<stop offset="1" stop-color="#563ACC"/>
</linearGradient>
</defs>
</svg>
