<svg width="57" height="56" viewBox="0 0 57 56" fill="none" xmlns="http://www.w3.org/2000/svg">
<rect x="0.0107422" y="-0.000152588" width="56" height="56" rx="8.4" fill="url(#paint0_linear_28_3642)"/>
<g filter="url(#filter0_d_28_3642)">
<path d="M34.3529 21.993C34.3529 24.6789 32.9108 26.2912 29.8329 26.2912H24.737V17.7921H29.8338C32.9108 17.7921 34.3529 19.4526 34.3529 21.993ZM11.582 10.8571L16.5157 17.8085V45.1399H24.7379V32.1999H26.7095L33.7305 45.1428H43.0106L35.2211 31.5648C37.3959 31.0271 39.3248 29.7513 40.6885 27.9485C42.0522 26.1457 42.769 23.9239 42.7203 21.6508C42.7203 15.6921 38.5855 10.8571 30.3149 10.8571H11.582Z" fill="#FF4654"/>
</g>
<rect x="1.06074" y="1.04985" width="53.9" height="53.9" rx="7.35" stroke="white" stroke-opacity="0.15" stroke-width="2.1"/>
<defs>
<filter id="filter0_d_28_3642" x="2.29646" y="2.28556" width="51.4286" height="51.4285" filterUnits="userSpaceOnUse" color-interpolation-filters="sRGB">
<feFlood flood-opacity="0" result="BackgroundImageFix"/>
<feColorMatrix in="SourceAlpha" type="matrix" values="0 0 0 0 0 0 0 0 0 0 0 0 0 0 0 0 0 0 127 0" result="hardAlpha"/>
<feOffset/>
<feGaussianBlur stdDeviation="2.85714"/>
<feComposite in2="hardAlpha" operator="out"/>
<feColorMatrix type="matrix" values="0 0 0 0 0 0 0 0 0 0 0 0 0 0 0 0 0 0 0.25 0"/>
<feBlend mode="normal" in2="BackgroundImageFix" result="effect1_dropShadow_28_3642"/>
<feBlend mode="normal" in="SourceGraphic" in2="effect1_dropShadow_28_3642" result="shape"/>
</filter>
<linearGradient id="paint0_linear_28_3642" x1="28.0107" y1="-0.000152588" x2="28.0107" y2="55.9998" gradientUnits="userSpaceOnUse">
<stop stop-color="#301515"/>
<stop offset="1" stop-color="#1E0D0D"/>
</linearGradient>
</defs>
</svg>
