<svg width="57" height="56" viewBox="0 0 57 56" fill="none" xmlns="http://www.w3.org/2000/svg">
<rect x="0.0107422" y="-0.000183105" width="56" height="56" rx="8.4" fill="url(#paint0_linear_28_3648)"/>
<g filter="url(#filter0_d_28_3648)">
<path d="M16.4434 33.2865C16.4434 35.6113 14.5659 37.4903 12.243 37.4903C9.91997 37.4903 8.04248 35.6113 8.04248 33.2865C8.04248 30.9616 9.91997 29.0826 12.243 29.0826H16.4434V33.2865ZM18.5437 33.2865C18.5437 30.9616 20.4212 29.0826 22.7442 29.0826C25.0671 29.0826 26.9446 30.9616 26.9446 33.2865V43.796C26.9446 46.1209 25.0671 47.9998 22.7442 47.9998C20.4212 47.9998 18.5437 46.1209 18.5437 43.796V33.2865Z" fill="#E01E5A"/>
<path d="M22.7442 16.4075C20.4212 16.4075 18.5438 14.5285 18.5438 12.2036C18.5438 9.8788 20.4212 7.99982 22.7442 7.99982C25.0672 7.99982 26.9447 9.8788 26.9447 12.2036V16.4075H22.7442ZM22.7442 18.5412C25.0672 18.5412 26.9447 20.4202 26.9447 22.745C26.9447 25.0699 25.0672 26.9489 22.7442 26.9489H12.2112C9.88823 26.9489 8.01074 25.0699 8.01074 22.745C8.01074 20.4202 9.88823 18.5412 12.2112 18.5412H22.7442Z" fill="#36C5F0"/>
<path d="M39.5779 22.745C39.5779 20.4202 41.4553 18.5412 43.7783 18.5412C46.1013 18.5412 47.9788 20.4202 47.9788 22.745C47.9788 25.0699 46.1013 26.9489 43.7783 26.9489H39.5779V22.745ZM37.4776 22.745C37.4776 25.0699 35.6001 26.9489 33.2771 26.9489C30.9541 26.9489 29.0767 25.0699 29.0767 22.745V12.2036C29.0767 9.8788 30.9541 7.99982 33.2771 7.99982C35.6001 7.99982 37.4776 9.8788 37.4776 12.2036V22.745Z" fill="#2EB67D"/>
<path d="M33.2771 39.5922C35.6001 39.5922 37.4776 41.4712 37.4776 43.796C37.4776 46.1209 35.6001 47.9998 33.2771 47.9998C30.9541 47.9998 29.0767 46.1209 29.0767 43.796V39.5922H33.2771ZM33.2771 37.4903C30.9541 37.4903 29.0767 35.6113 29.0767 33.2865C29.0767 30.9616 30.9541 29.0826 33.2771 29.0826H43.8102C46.1331 29.0826 48.0106 30.9616 48.0106 33.2865C48.0106 35.6113 46.1331 37.4903 43.8102 37.4903H33.2771Z" fill="#ECB22E"/>
</g>
<rect x="1.06074" y="1.04982" width="53.9" height="53.9" rx="7.35" stroke="white" stroke-opacity="0.15" stroke-width="2.1"/>
<defs>
<filter id="filter0_d_28_3648" x="2.29646" y="2.28553" width="51.4286" height="51.4286" filterUnits="userSpaceOnUse" color-interpolation-filters="sRGB">
<feFlood flood-opacity="0" result="BackgroundImageFix"/>
<feColorMatrix in="SourceAlpha" type="matrix" values="0 0 0 0 0 0 0 0 0 0 0 0 0 0 0 0 0 0 127 0" result="hardAlpha"/>
<feOffset/>
<feGaussianBlur stdDeviation="2.85714"/>
<feComposite in2="hardAlpha" operator="out"/>
<feColorMatrix type="matrix" values="0 0 0 0 0 0 0 0 0 0 0 0 0 0 0 0 0 0 0.25 0"/>
<feBlend mode="normal" in2="BackgroundImageFix" result="effect1_dropShadow_28_3648"/>
<feBlend mode="normal" in="SourceGraphic" in2="effect1_dropShadow_28_3648" result="shape"/>
</filter>
<linearGradient id="paint0_linear_28_3648" x1="27.8093" y1="-0.00015174" x2="27.8093" y2="55.9998" gradientUnits="userSpaceOnUse">
<stop stop-color="#2C0C2C"/>
<stop offset="1" stop-color="#1C081C"/>
</linearGradient>
</defs>
</svg>
