<svg width="57" height="56" viewBox="0 0 57 56" fill="none" xmlns="http://www.w3.org/2000/svg">
<rect x="0.0107422" y="-4.57764e-05" width="56" height="56" rx="8.4" fill="url(#paint0_linear_28_3617)"/>
<g filter="url(#filter0_d_28_3617)">
<path d="M11.3308 7.99992L8.7251 14.9486V42.7398H18.2747V47.9538H23.4885L28.697 42.7398H36.512L46.9341 32.3214V7.99992H11.3308ZM14.8022 11.472H43.4611V30.5808L37.3807 36.6616H27.8296L22.6225 41.8684V36.6616H14.8022V11.472ZM24.3557 28.8459H27.8296V18.4244H24.3557V28.8459ZM33.9075 28.8459H37.3807V18.4244H33.9075V28.8459Z" fill="#7755AC"/>
</g>
<rect x="1.06074" y="1.04995" width="53.9" height="53.9" rx="7.35" stroke="white" stroke-opacity="0.15" stroke-width="2.1"/>
<defs>
<filter id="filter0_d_28_3617" x="2.29646" y="2.28564" width="51.4286" height="51.4286" filterUnits="userSpaceOnUse" color-interpolation-filters="sRGB">
<feFlood flood-opacity="0" result="BackgroundImageFix"/>
<feColorMatrix in="SourceAlpha" type="matrix" values="0 0 0 0 0 0 0 0 0 0 0 0 0 0 0 0 0 0 127 0" result="hardAlpha"/>
<feOffset/>
<feGaussianBlur stdDeviation="2.85714"/>
<feComposite in2="hardAlpha" operator="out"/>
<feColorMatrix type="matrix" values="0 0 0 0 0 0 0 0 0 0 0 0 0 0 0 0 0 0 0.25 0"/>
<feBlend mode="normal" in2="BackgroundImageFix" result="effect1_dropShadow_28_3617"/>
<feBlend mode="normal" in="SourceGraphic" in2="effect1_dropShadow_28_3617" result="shape"/>
</filter>
<linearGradient id="paint0_linear_28_3617" x1="28.0107" y1="-4.57764e-05" x2="28.0107" y2="55.9999" gradientUnits="userSpaceOnUse">
<stop stop-color="#1E142F"/>
<stop offset="1" stop-color="#150E20"/>
</linearGradient>
</defs>
</svg>
