<svg width="57" height="56" viewBox="0 0 57 56" fill="none" xmlns="http://www.w3.org/2000/svg">
<rect x="0.0107422" y="-1.52588e-05" width="56" height="56" rx="8.4" fill="url(#paint0_linear_28_3604)"/>
<g filter="url(#filter0_d_28_3604)">
<path d="M39.7032 13.7144H16.3182C11.7301 13.7144 8.01074 17.4688 8.01074 22.1V33.9001C8.01074 38.5314 11.7301 42.2858 16.3182 42.2858H39.7032C44.2914 42.2858 48.0107 38.5314 48.0107 33.9001V22.1C48.0107 17.4688 44.2914 13.7144 39.7032 13.7144ZM34.085 28.5742L23.147 33.84C22.8556 33.9803 22.5189 33.7658 22.5189 33.4399V22.5791C22.5189 22.2486 22.8644 22.0344 23.1565 22.1838L34.0944 27.7787C34.4196 27.9451 34.414 28.4158 34.085 28.5742Z" fill="#F22F21"/>
</g>
<rect x="1.06074" y="1.04998" width="53.9" height="53.9" rx="7.35" stroke="white" stroke-opacity="0.15" stroke-width="2.1"/>
<defs>
<filter id="filter0_d_28_3604" x="2.29646" y="2.2857" width="51.4286" height="51.4286" filterUnits="userSpaceOnUse" color-interpolation-filters="sRGB">
<feFlood flood-opacity="0" result="BackgroundImageFix"/>
<feColorMatrix in="SourceAlpha" type="matrix" values="0 0 0 0 0 0 0 0 0 0 0 0 0 0 0 0 0 0 127 0" result="hardAlpha"/>
<feOffset/>
<feGaussianBlur stdDeviation="2.85714"/>
<feComposite in2="hardAlpha" operator="out"/>
<feColorMatrix type="matrix" values="0 0 0 0 0 0 0 0 0 0 0 0 0 0 0 0 0 0 0.25 0"/>
<feBlend mode="normal" in2="BackgroundImageFix" result="effect1_dropShadow_28_3604"/>
<feBlend mode="normal" in="SourceGraphic" in2="effect1_dropShadow_28_3604" result="shape"/>
</filter>
<linearGradient id="paint0_linear_28_3604" x1="28.0107" y1="-1.52588e-05" x2="28.0107" y2="56" gradientUnits="userSpaceOnUse">
<stop stop-color="#300E0C"/>
<stop offset="1" stop-color="#200908"/>
</linearGradient>
</defs>
</svg>
