<svg width="57" height="56" viewBox="0 0 57 56" fill="none" xmlns="http://www.w3.org/2000/svg">
<rect x="0.0107422" y="-0.00012207" width="56" height="56" rx="8.4" fill="url(#paint0_linear_28_3814)"/>
<g filter="url(#filter0_d_28_3814)">
<path d="M18.5327 7.99997V11.2692H12.5357V14.1538H9.44043V17.423H12.5357V20.3077H15.6309V23.3846H21.8214V26.4615H34.2023V23.3846H40.3928V20.3077H43.2946V29.7307H40.3928V38.7692H37.1041V44.923H18.5327V48H37.1041V44.923H40.3928V38.7692H43.2946V29.7307H46.5833V14.1538H43.2946V17.423H40.3928V20.3077H34.2023V23.3846H21.8214V20.3077H15.6309V17.423H12.5357V14.1538H18.5327V11.2692H28.0119V7.99997H18.5327Z" fill="#353535"/>
<path d="M28.0122 7.99997V11.2692H37.1045V14.1538H43.2949V11.2692H37.1045V7.99997H28.0122Z" fill="#515151"/>
<path d="M18.5332 11.2691V14.1537H21.8219V11.2691H18.5332Z" fill="#A37B63"/>
<path d="M21.8213 11.2692V14.1538H24.9165V11.2692H21.8213Z" fill="#AB826B"/>
<path d="M24.917 11.2691V14.1537H30.914V11.2691H24.917Z" fill="#ABA26B"/>
<path d="M30.9141 11.2692V14.1538H34.2028V11.2692H30.9141Z" fill="#AB826B"/>
<path d="M34.2031 11.2692V14.1538H37.1049V17.423H40.3936V14.1538H37.1049V11.2692H34.2031Z" fill="#BF967E"/>
<path d="M12.5356 14.1538V17.4231H15.6309V14.1538H12.5356Z" fill="#958C55"/>
<path d="M15.6313 14.1538V17.4231H18.5331V14.1538H15.6313Z" fill="#956C55"/>
<path d="M18.5332 14.1538V17.4231H21.8219V14.1538H18.5332Z" fill="#C33E1F"/>
<path d="M21.8213 14.1539V17.4231H24.9165V20.3077H28.0118V23.3846H34.2022V20.3077H28.0118V17.4231H24.9165V14.1539H21.8213Z" fill="#E38C3F"/>
<path d="M24.917 14.1538V17.4231H28.0122V20.3077H34.2027V17.4231H30.914V14.1538H24.917Z" fill="#E4D25C"/>
<path d="M30.9141 14.1539V17.4231H34.2028V14.1539H30.9141Z" fill="#E38C3F"/>
<path d="M34.2031 14.1539V17.4231H37.1049V20.3077H40.3936V17.4231H37.1049V14.1539H34.2031Z" fill="#CC4628"/>
<path d="M40.3931 14.1539V17.4231H43.2949V14.1539H40.3931Z" fill="#BFB67E"/>
<path d="M9.44043 17.423V29.7307H12.5357V38.7692H15.6309V44.923H18.5327V38.7692H15.6309V29.7307H12.5357V17.423H9.44043Z" fill="#515151"/>
<path d="M15.6313 17.423V20.3077H18.5331V17.423H15.6313Z" fill="#DC8638"/>
<path d="M18.5332 17.423V20.3077H21.8219V23.3846H24.9171V17.423H18.5332Z" fill="#E2CF5A"/>
<path d="M34.2031 17.4231V20.3077H37.1049V17.4231H34.2031Z" fill="#EA9346"/>
<path d="M12.5356 20.3076V23.3845H15.6309V26.4614H21.8214V23.3845H15.6309V20.3076H12.5356Z" fill="#E7E7E7"/>
<path d="M24.917 20.3076V23.3845H28.0122V20.3076H24.917Z" fill="#C54021"/>
<path d="M40.3931 20.3076V23.3845H43.2949V20.3076H40.3931Z" fill="#A9A9A9"/>
<path d="M12.5356 23.3846V29.7308H15.6309V38.7692H18.5327V42.0385H21.8214V44.9231H28.0118V32.6154H24.9166V29.7308H21.8214V32.6154H18.5327V26.4615H15.6309V23.3846H12.5356Z" fill="#D8D8D8"/>
<path d="M34.2031 23.3846V26.4616H37.1049V23.3846H34.2031Z" fill="#EAD762"/>
<path d="M37.1045 23.3846V26.4616H40.3932V23.3846H37.1045Z" fill="#CB4627"/>
<path d="M40.3932 23.3846V29.7308H37.1045V38.7693H40.3932V29.7308H43.295V23.3846H40.3932Z" fill="#727272"/>
<path d="M18.5332 26.4615V32.6153H21.8219V26.4615H18.5332Z" fill="white"/>
<path d="M21.8213 26.4615V29.7307H24.9165V26.4615H21.8213Z" fill="#D85334"/>
<path d="M24.917 26.4615V29.7307H34.2027V26.4615H24.917Z" fill="#CACACA"/>
<path d="M34.2031 26.4615V29.7307H37.1049V26.4615H34.2031Z" fill="#E99245"/>
<path d="M37.1045 26.4615V29.7307H40.3932V26.4615H37.1045Z" fill="#969696"/>
<path d="M24.917 29.7307V32.6153H28.0122V42.0384H30.914V32.6153H34.2027V29.7307H24.917Z" fill="#A8A8A8"/>
<path d="M34.2031 29.7307V32.6154H37.1049V29.7307H34.2031Z" fill="#CB4627"/>
<path d="M21.8213 32.6153V38.7691H24.9165V32.6153H21.8213Z" fill="white"/>
<path d="M30.914 32.6153V42.0383H28.0122V44.923H37.1045V38.7691H34.2027V35.8845H37.1045V32.6153H30.914Z" fill="#969696"/>
<path d="M34.2031 35.8846V38.7693H37.1049V35.8846H34.2031Z" fill="#CB4627"/>
<path d="M18.5332 42.0384V44.923H21.8219V42.0384H18.5332Z" fill="#969696"/>
</g>
<rect x="1.06074" y="1.04988" width="53.9" height="53.9" rx="7.35" stroke="white" stroke-opacity="0.15" stroke-width="2.1"/>
<defs>
<filter id="filter0_d_28_3814" x="2.29646" y="2.28559" width="51.4286" height="51.4287" filterUnits="userSpaceOnUse" color-interpolation-filters="sRGB">
<feFlood flood-opacity="0" result="BackgroundImageFix"/>
<feColorMatrix in="SourceAlpha" type="matrix" values="0 0 0 0 0 0 0 0 0 0 0 0 0 0 0 0 0 0 127 0" result="hardAlpha"/>
<feOffset/>
<feGaussianBlur stdDeviation="2.85714"/>
<feComposite in2="hardAlpha" operator="out"/>
<feColorMatrix type="matrix" values="0 0 0 0 0 0 0 0 0 0 0 0 0 0 0 0 0 0 0.25 0"/>
<feBlend mode="normal" in2="BackgroundImageFix" result="effect1_dropShadow_28_3814"/>
<feBlend mode="normal" in="SourceGraphic" in2="effect1_dropShadow_28_3814" result="shape"/>
</filter>
<linearGradient id="paint0_linear_28_3814" x1="28.0107" y1="-0.00012207" x2="28.0107" y2="55.9999" gradientUnits="userSpaceOnUse">
<stop stop-color="#342C18"/>
<stop offset="1" stop-color="#251A11"/>
</linearGradient>
</defs>
</svg>
