<svg width="57" height="56" viewBox="0 0 57 56" fill="none" xmlns="http://www.w3.org/2000/svg">
<rect x="0.0107422" y="-0.000183105" width="56" height="56" rx="8.4" fill="url(#paint0_linear_32_2)"/>
<g filter="url(#filter0_d_32_2)">
<path fill-rule="evenodd" clip-rule="evenodd" d="M37.7188 25.2207C37.9456 25.5747 38.172 25.9282 38.4315 26.257C38.4862 26.1274 38.548 25.9959 38.6107 25.8628C38.7703 25.5235 38.9349 25.1737 38.9982 24.8186C39.0447 24.5577 38.9881 24.3021 38.9314 24.0457C38.8859 23.8404 38.8403 23.6345 38.8476 23.4251C38.8691 22.8014 39.1331 22.1545 39.3742 21.5638C39.4089 21.4787 39.4431 21.3949 39.4761 21.3124C39.5968 21.0104 39.7768 20.7071 40.0595 20.5307C40.1411 20.4798 40.2352 20.445 40.3295 20.4101C40.4676 20.3589 40.6061 20.3076 40.7064 20.2055C41.0126 19.8937 41.2342 19.043 41.2705 18.6154C41.334 17.8688 41.0445 17.0596 40.7678 16.2859C40.6339 15.9116 40.503 15.5457 40.4165 15.1992C39.9196 13.2101 40.6004 10.8376 42.4981 9.84175C43.911 9.10031 45.8811 9.36449 46.9551 10.5698C47.7114 11.4185 48.0107 12.4686 48.0107 13.5809C48.0107 14.3315 47.9692 15.6235 47.3193 16.1449C46.9135 16.4704 46.0958 16.4457 45.8257 15.9618C45.5836 15.528 45.7049 15.0603 45.8273 14.5885C45.9227 14.2205 46.0189 13.85 45.9437 13.491C45.7871 12.7432 45.0218 11.7706 44.17 11.8865C43.4943 11.9785 42.9666 12.6273 42.735 13.2213C42.481 13.8727 42.7011 14.5571 42.9095 15.2051C42.9479 15.3244 42.9858 15.4424 43.0203 15.5588L43.0282 15.5852C43.3812 16.7745 43.716 17.9027 43.572 19.1548C43.5365 19.4633 43.4255 19.7611 43.3151 20.0573C43.1989 20.3691 43.0833 20.679 43.0572 20.9978C43.0427 21.1756 43.1111 21.3519 43.1802 21.5298C43.2386 21.6803 43.2975 21.8319 43.307 21.9867C43.3599 22.856 43.0532 23.7258 42.6806 24.5039C42.512 24.8561 42.2477 25.075 41.9802 25.2967C41.7809 25.4617 41.5799 25.6283 41.4151 25.8525C41.1069 26.2718 40.9141 26.7909 40.725 27.3001C40.6288 27.5591 40.5336 27.8156 40.4246 28.055C40.3518 28.2149 40.2629 28.3758 40.1729 28.5385C40.0015 28.8485 39.8265 29.1651 39.753 29.4934C39.696 29.7476 39.7824 30.0645 39.8618 30.3558C39.8956 30.4798 39.9281 30.5992 39.9478 30.7071C40.0918 31.4982 40.2186 32.3297 40.2376 33.1344C40.3229 36.7355 39.436 40.4136 36.9703 43.1584C36.2052 44.01 35.3044 44.7555 34.3196 45.3428C30.6594 47.5258 26.0769 46.5753 22.7522 44.2484C21.6006 43.4424 20.6581 42.4672 19.7039 41.4798C19.3787 41.1434 19.0523 40.8056 18.7157 40.4726C18.421 40.181 18.0966 40.0868 17.7638 39.9902C17.5455 39.9269 17.3237 39.8625 17.1041 39.7407C16.5103 39.4114 15.848 38.5409 15.5385 37.9441C15.3999 37.6766 15.411 37.4023 15.422 37.1329C15.4313 36.9029 15.4405 36.6764 15.3561 36.4607C15.2613 36.2183 15.0779 36.0009 14.8953 35.7844C14.7592 35.6231 14.6235 35.4623 14.5253 35.292C14.103 34.5604 13.961 33.7408 13.9029 32.9097C13.8794 32.5744 13.8903 32.2107 13.9015 31.839C13.9376 30.6344 13.9762 29.3457 12.8566 28.6668C11.5752 27.8896 10.0185 29.3845 10.2084 30.7071C10.2638 31.0934 10.447 31.3976 10.6281 31.6986C10.8463 32.0611 11.0617 32.4189 11.0479 32.9097C11.033 33.4357 10.6701 33.7539 10.1455 33.7551C9.45174 33.7567 9.01877 33.2759 8.67228 32.7299C7.97709 31.6342 7.85936 30.1915 8.18132 28.954C8.93517 26.0566 12.7503 24.9619 14.9351 27.0254C16.1716 28.1933 16.2267 29.7193 16.2834 31.2917C16.285 31.3365 16.2867 31.3814 16.2883 31.4263C16.2936 31.5717 16.2969 31.7124 16.3001 31.8491C16.322 32.7991 16.3396 33.5602 17.0194 34.3921C17.2432 34.666 17.5337 34.7032 17.8372 34.7421C18.029 34.7667 18.2259 34.7919 18.4144 34.8779C18.8399 35.072 19.1726 35.493 19.4726 35.8726C19.5349 35.9514 19.5957 36.0283 19.6556 36.1011C19.8656 36.3561 20.0816 36.6288 20.16 36.9552C20.2005 37.1233 20.2157 37.2911 20.2308 37.4568C20.2589 37.7649 20.2863 38.0658 20.4734 38.3487C21.0903 39.2815 21.9986 40.1172 22.8426 40.8418C24.1159 41.9351 25.4629 42.9128 27.0448 43.517C31.0845 45.06 35.0887 42.4308 36.7584 38.7532C37.6856 36.7111 37.7675 34.7416 37.7537 32.5501C37.4605 32.8001 37.206 33.1036 36.951 33.4075C36.7438 33.6545 36.5363 33.9018 36.3078 34.1209C35.2014 35.1813 33.9745 36.0406 32.5574 36.6344C31.2812 37.1691 29.8766 37.4359 28.4907 37.4034C27.4533 37.3791 26.3691 37.1461 25.4181 36.7354C19.6382 34.2391 18.4896 25.6316 23.6107 21.8093C24.3658 21.2458 25.1974 20.8014 26.0959 20.5177C27.2037 20.1679 28.3723 20.009 29.53 20.1051C31.0288 20.2297 32.4696 20.6576 33.7774 21.4024C35.0142 22.1067 36.1322 23.0714 37.0105 24.1893C37.2687 24.5179 37.4939 24.8696 37.7188 25.2207ZM25.7345 23.546C26.5072 23.0635 27.4062 22.783 28.3101 22.681C31.2947 22.3442 34.0922 24.4095 35.6749 26.7513C36.0238 27.2677 36.3166 27.8104 36.5894 28.3695C36.6081 28.4079 36.6287 28.448 36.65 28.4896C36.7594 28.7029 36.8876 28.9527 36.8736 29.1787C36.8606 29.3887 36.7135 29.5926 36.5866 29.7684C36.5657 29.7974 36.5453 29.8256 36.5262 29.8529C36.2158 30.297 35.8987 30.7447 35.5458 31.1565C34.0569 32.8941 31.981 34.5258 29.6204 34.7927C28.7583 34.8902 27.8764 34.8478 27.0449 34.5817C26.3229 34.3505 25.6333 33.9738 25.0567 33.4845C21.8666 30.7776 22.1486 25.7853 25.7345 23.546Z" fill="#FCFCFC"/>
</g>
<rect x="1.06074" y="1.04982" width="53.9" height="53.9" rx="7.35" stroke="white" stroke-opacity="0.15" stroke-width="2.1"/>
<defs>
<filter id="filter0_d_32_2" x="2.29646" y="2.28553" width="51.4286" height="51.4286" filterUnits="userSpaceOnUse" color-interpolation-filters="sRGB">
<feFlood flood-opacity="0" result="BackgroundImageFix"/>
<feColorMatrix in="SourceAlpha" type="matrix" values="0 0 0 0 0 0 0 0 0 0 0 0 0 0 0 0 0 0 127 0" result="hardAlpha"/>
<feOffset/>
<feGaussianBlur stdDeviation="2.85714"/>
<feComposite in2="hardAlpha" operator="out"/>
<feColorMatrix type="matrix" values="0 0 0 0 0 0 0 0 0 0 0 0 0 0 0 0 0 0 0.25 0"/>
<feBlend mode="normal" in2="BackgroundImageFix" result="effect1_dropShadow_32_2"/>
<feBlend mode="normal" in="SourceGraphic" in2="effect1_dropShadow_32_2" result="shape"/>
</filter>
<linearGradient id="paint0_linear_32_2" x1="28.0107" y1="-0.000183105" x2="28.0107" y2="55.9998" gradientUnits="userSpaceOnUse">
<stop stop-color="#322E20"/>
<stop offset="1" stop-color="#201C15"/>
</linearGradient>
</defs>
</svg>
