<svg width="57" height="56" viewBox="0 0 57 56" fill="none" xmlns="http://www.w3.org/2000/svg">
<rect x="0.0107422" y="-1.52588e-05" width="56" height="56" rx="8.4" fill="url(#paint0_linear_28_3775)"/>
<g filter="url(#filter0_d_28_3775)">
<path d="M44.1926 20.5225L27.0107 19.6667H48.0107V18H24.2835V21.5135V24.3063C24.2835 24.3513 23.6016 20.2072 23.4198 19.036H21.5562V22.0991V24.8919C21.5562 24.9369 20.738 19.982 20.6926 19.3513C15.9653 19.3513 8.01074 19.3513 8.01074 19.3513C8.87438 20.0721 13.6471 24.1261 17.0562 25.7928C18.738 26.6036 20.8289 26.6486 22.6926 26.6937C23.6471 26.7387 24.6016 26.7838 25.3289 27.5045C26.3744 28.4955 26.6016 30.0721 25.6926 31.2432C24.8289 32.4144 22.3744 32.6847 22.3744 32.6847L20.2835 35.1171V38H24.9653L25.1016 35.1621L29.1471 32.3243C28.738 32.6847 27.738 33.5856 26.3289 35.7928C26.0107 36.2883 25.738 36.8288 25.5562 37.3694C26.5562 36.5135 28.6471 35.9279 31.1016 35.9279C33.5107 35.9279 35.6016 36.5135 36.6016 37.3694C36.4198 36.8288 36.1471 36.2883 35.8289 35.7928C34.3744 33.5856 33.4198 32.6847 33.0107 32.3243L37.0562 35.1621L37.1926 38H41.5562V35.1171L39.5107 32.6396C39.5107 32.6396 36.4653 32.4594 35.6926 31.1982C33.3289 27.6847 36.5562 22.1892 44.1926 20.5225Z" fill="#DFA86A"/>
</g>
<rect x="1.06074" y="1.04998" width="53.9" height="53.9" rx="7.35" stroke="white" stroke-opacity="0.15" stroke-width="2.1"/>
<defs>
<filter id="filter0_d_28_3775" x="2.29646" y="2.2857" width="51.4286" height="51.4286" filterUnits="userSpaceOnUse" color-interpolation-filters="sRGB">
<feFlood flood-opacity="0" result="BackgroundImageFix"/>
<feColorMatrix in="SourceAlpha" type="matrix" values="0 0 0 0 0 0 0 0 0 0 0 0 0 0 0 0 0 0 127 0" result="hardAlpha"/>
<feOffset/>
<feGaussianBlur stdDeviation="2.85714"/>
<feComposite in2="hardAlpha" operator="out"/>
<feColorMatrix type="matrix" values="0 0 0 0 0 0 0 0 0 0 0 0 0 0 0 0 0 0 0.25 0"/>
<feBlend mode="normal" in2="BackgroundImageFix" result="effect1_dropShadow_28_3775"/>
<feBlend mode="normal" in="SourceGraphic" in2="effect1_dropShadow_28_3775" result="shape"/>
</filter>
<linearGradient id="paint0_linear_28_3775" x1="28.0107" y1="-1.52588e-05" x2="28.0107" y2="56" gradientUnits="userSpaceOnUse">
<stop stop-color="#251E17"/>
<stop offset="1" stop-color="#1B1610"/>
</linearGradient>
</defs>
</svg>
