<svg width="57" height="56" viewBox="0 0 57 56" fill="none" xmlns="http://www.w3.org/2000/svg">
<rect x="0.0107422" y="-0.000183105" width="56" height="56" rx="8.4" fill="url(#paint0_linear_28_3859)"/>
<g filter="url(#filter0_d_28_3859)">
<path fill-rule="evenodd" clip-rule="evenodd" d="M31.4048 9.98986C31.922 10.8999 32.0585 11.9775 31.7845 12.9877C31.5105 13.9979 30.8482 14.8588 29.942 15.3827L18.2277 22.1156C18.0753 22.2036 17.9488 22.3302 17.861 22.4827C17.7732 22.6352 17.7272 22.8082 17.7277 22.9841V33.5556C17.7272 33.7315 17.7732 33.9045 17.861 34.057C17.9488 34.2095 18.0753 34.3362 18.2277 34.4241L27.502 39.7541C27.6516 39.8405 27.8213 39.886 27.9941 39.886C28.1669 39.886 28.3366 39.8405 28.4862 39.7541L37.7591 34.427C37.9115 34.339 38.038 34.2124 38.1258 34.0599C38.2136 33.9074 38.2596 33.7344 38.2591 33.5584V26.987L29.9234 31.7127C29.4739 31.9677 28.9784 32.1312 28.4654 32.1938C27.9525 32.2564 27.4322 32.2168 26.9346 32.0774C26.437 31.938 25.9719 31.7014 25.5662 31.3814C25.1604 31.0613 24.822 30.6641 24.5705 30.2127C24.0584 29.3 23.9277 28.2219 24.2071 27.2133C24.4865 26.2048 25.1532 25.3475 26.062 24.8284L37.9891 18.0599C38.8204 17.5912 39.7603 17.3489 40.7146 17.3574C41.6689 17.3658 42.6043 17.6247 43.4272 18.108C44.2501 18.5913 44.9317 19.2822 45.4039 20.1116C45.876 20.941 46.1221 21.8798 46.1177 22.8341V34.3584C46.119 35.6823 45.7713 36.9831 45.1097 38.1298C44.4481 39.2764 43.4959 40.2284 42.3491 40.8899L31.7034 47.0084C30.5745 47.6577 29.295 47.9994 27.9927 47.9994C26.6904 47.9994 25.4109 47.6577 24.282 47.0084L13.6363 40.8884C12.4895 40.227 11.5373 39.275 10.8757 38.1283C10.2141 36.9817 9.86638 35.6809 9.86768 34.357V22.1827C9.86624 20.8588 10.2139 19.558 10.8755 18.4113C11.5371 17.2646 12.4894 16.3126 13.6363 15.6513L26.0434 8.51986C26.4915 8.26269 26.9861 8.09669 27.4987 8.0314C28.0112 7.96612 28.5316 8.00285 29.0299 8.13947C29.5282 8.2761 29.9946 8.50992 30.4022 8.82749C30.8097 9.14505 31.1505 9.54009 31.4048 9.98986Z" fill="url(#paint1_linear_28_3859)"/>
</g>
<rect x="1.06074" y="1.04982" width="53.9" height="53.9" rx="7.35" stroke="white" stroke-opacity="0.15" stroke-width="2.1"/>
<defs>
<filter id="filter0_d_28_3859" x="2.29646" y="2.28553" width="51.4286" height="51.4286" filterUnits="userSpaceOnUse" color-interpolation-filters="sRGB">
<feFlood flood-opacity="0" result="BackgroundImageFix"/>
<feColorMatrix in="SourceAlpha" type="matrix" values="0 0 0 0 0 0 0 0 0 0 0 0 0 0 0 0 0 0 127 0" result="hardAlpha"/>
<feOffset/>
<feGaussianBlur stdDeviation="2.85714"/>
<feComposite in2="hardAlpha" operator="out"/>
<feColorMatrix type="matrix" values="0 0 0 0 0 0 0 0 0 0 0 0 0 0 0 0 0 0 0.25 0"/>
<feBlend mode="normal" in2="BackgroundImageFix" result="effect1_dropShadow_28_3859"/>
<feBlend mode="normal" in="SourceGraphic" in2="effect1_dropShadow_28_3859" result="shape"/>
</filter>
<linearGradient id="paint0_linear_28_3859" x1="-0.25094" y1="55.9999" x2="20.6623" y2="9.23535" gradientUnits="userSpaceOnUse">
<stop stop-color="#331C00"/>
<stop offset="1" stop-color="#392916"/>
</linearGradient>
<linearGradient id="paint1_linear_28_3859" x1="37.1091" y1="14.0199" x2="18.3491" y2="43.3441" gradientUnits="userSpaceOnUse">
<stop stop-color="#FFB45B"/>
<stop offset="1" stop-color="#FF8A00"/>
</linearGradient>
</defs>
</svg>
