<svg width="57" height="56" viewBox="0 0 57 56" fill="none" xmlns="http://www.w3.org/2000/svg">
<rect x="0.0107422" y="-3.05176e-05" width="56" height="56" rx="8.4" fill="url(#paint0_linear_28_3781)"/>
<g filter="url(#filter0_d_28_3781)">
<path d="M11.582 22.6583V17.7042C11.6468 17.7001 11.7107 17.6145 11.7719 17.5928C12.8398 17.0496 13.8967 16.4814 14.9782 15.9695C15.3024 15.8153 15.421 15.6646 15.4142 15.3007C15.3902 13.9768 15.4046 12.6522 15.4052 11.3277C15.4052 10.9207 15.4052 10.9172 15.7418 10.747C17.1373 10.0392 18.5355 9.33564 19.9296 8.62509C20.321 8.42644 20.7453 8.2903 21.088 7.99997H21.3978C21.4101 8.02984 21.4142 8.07568 21.4355 8.08679C23.2059 8.97724 24.9783 9.86213 26.7453 10.7588C26.8529 10.8137 26.8927 10.8179 27.0017 10.7588C27.5959 10.4484 28.2087 10.1726 28.7995 9.85588C28.9619 9.76836 29.0428 9.78156 29.1977 9.86838C29.6556 10.1268 30.1354 10.3435 30.609 10.5803C30.914 10.7338 30.914 10.7401 31.1744 10.6025C31.6138 10.3706 32.0497 10.1323 32.4891 9.90103C32.7995 9.7378 32.8318 9.7378 33.119 9.88366C34.8553 10.7695 36.5931 11.6553 38.3322 12.5411C40.2561 13.5177 42.1842 14.4859 44.104 15.4715C44.2239 15.5327 44.3268 15.5222 44.4392 15.5375V30.1973C44.3268 30.2125 44.2239 30.2021 44.104 30.2632C41.8422 31.4204 39.5803 32.5748 37.2993 33.7007C36.9195 33.8882 36.779 34.0904 36.7825 34.5252C36.803 37.5605 36.7879 40.5958 36.8017 43.6304C36.8017 43.9318 36.7146 44.093 36.4521 44.2145C35.9449 44.4493 35.45 44.7111 34.9504 44.9619C34.9127 44.9806 34.8763 45.0029 34.84 45.0237C34.8869 45.0343 34.9327 45.0489 34.9771 45.0675C35.5172 45.3453 36.0546 45.6301 36.5995 45.9009C36.6968 45.9496 36.6913 45.9704 36.6234 46.0232C36.57 46.0585 36.5138 46.0894 36.4555 46.1156C35.6282 46.5323 34.7927 46.9366 33.9778 47.3797C33.6063 47.5818 33.1889 47.7055 32.8667 48H32.7639C32.6692 47.9236 32.5693 47.854 32.4651 47.7916C28.7456 45.9042 25.0252 44.0184 21.3039 42.1343C21.2696 42.1136 21.2368 42.0904 21.2059 42.0648C21.2353 42.0523 21.2655 42.0419 21.2936 42.0273C22.4622 41.4341 23.6329 40.8465 24.7974 40.2436C24.8944 40.1855 25.0051 40.1549 25.1178 40.1549C25.2306 40.1549 25.3412 40.1855 25.4383 40.2436C25.9695 40.5284 26.5109 40.793 27.0483 41.066C27.5904 40.793 28.1333 40.5214 28.6741 40.2457C28.7179 40.2235 28.7529 40.145 28.7865 40.1485C28.9489 40.1644 28.9421 40.0651 28.9414 39.954C28.9414 39.3087 28.9373 38.6635 28.9414 38.0182C28.9414 37.8911 28.8879 37.8793 28.7817 37.8244C27.8907 37.3882 27.014 36.927 26.1305 36.4783C23.2806 35.0308 20.4297 33.5856 17.578 32.1428C17.4334 32.0691 17.3573 32.0073 17.36 31.8191C17.3731 30.7383 17.3635 29.6569 17.3683 28.5761C17.3683 28.3865 17.323 28.2837 17.1284 28.1962C16.6486 27.9809 16.1935 27.7058 15.7178 27.478C15.5122 27.3794 15.3854 27.296 15.3943 27.0217C15.419 26.2382 15.3943 25.4526 15.4114 24.6684C15.4162 24.4816 15.3285 24.4524 15.2058 24.3906C14.1091 23.8398 13.0049 23.289 11.9158 22.7236C11.7979 22.6618 11.6979 22.6736 11.582 22.6583ZM34.7276 39.0476V35.1781C34.7276 35.0586 34.753 35.0072 34.5816 35.0954C33.5179 35.6434 32.439 36.163 31.3657 36.6929C31.2224 36.7624 31.0175 36.8055 30.9544 36.9228C30.8763 37.0743 30.9106 37.2875 30.9037 37.4743C30.8975 37.6306 30.9037 37.7876 30.9037 37.9446C30.9037 38.9559 30.9037 39.9665 30.9071 40.9778C30.9071 41.1167 30.8619 41.1577 30.7344 41.2181C30.2005 41.4709 29.6809 41.7557 29.158 42.0294C29.124 42.0506 29.0913 42.0738 29.06 42.0988C29.0894 42.1113 29.1196 42.1225 29.1484 42.1363C30.3334 42.7295 31.5199 43.3171 32.7002 43.9228C32.7989 43.9735 32.8283 43.9791 32.9312 43.9228C33.4527 43.645 33.9839 43.3873 34.5192 43.1386C34.6728 43.0692 34.7351 42.9955 34.7338 42.8136C34.7221 41.5578 34.7276 40.3027 34.7276 39.0476Z" fill="#4E84C4"/>
</g>
<rect x="1.06074" y="1.04997" width="53.9" height="53.9" rx="7.35" stroke="white" stroke-opacity="0.15" stroke-width="2.1"/>
<defs>
<filter id="filter0_d_28_3781" x="2.29646" y="2.28568" width="51.4286" height="51.4286" filterUnits="userSpaceOnUse" color-interpolation-filters="sRGB">
<feFlood flood-opacity="0" result="BackgroundImageFix"/>
<feColorMatrix in="SourceAlpha" type="matrix" values="0 0 0 0 0 0 0 0 0 0 0 0 0 0 0 0 0 0 127 0" result="hardAlpha"/>
<feOffset/>
<feGaussianBlur stdDeviation="2.85714"/>
<feComposite in2="hardAlpha" operator="out"/>
<feColorMatrix type="matrix" values="0 0 0 0 0 0 0 0 0 0 0 0 0 0 0 0 0 0 0.25 0"/>
<feBlend mode="normal" in2="BackgroundImageFix" result="effect1_dropShadow_28_3781"/>
<feBlend mode="normal" in="SourceGraphic" in2="effect1_dropShadow_28_3781" result="shape"/>
</filter>
<linearGradient id="paint0_linear_28_3781" x1="28.0107" y1="-3.05176e-05" x2="28.0107" y2="56" gradientUnits="userSpaceOnUse">
<stop stop-color="#131F2E"/>
<stop offset="1" stop-color="#0C141E"/>
</linearGradient>
</defs>
</svg>
