<svg width="57" height="56" viewBox="0 0 57 56" fill="none" xmlns="http://www.w3.org/2000/svg">
<rect x="0.0107422" y="-0.000183105" width="56" height="56" rx="8.4" fill="url(#paint0_linear_28_3826)"/>
<g filter="url(#filter0_d_28_3826)">
<path d="M43.7032 12.3207L38.8062 41.7071C38.7456 42.0732 38.5162 42.3894 38.1881 42.563C38.0063 42.6629 37.8018 42.7164 37.5938 42.7175C37.4381 42.7152 37.2848 42.6831 37.1422 42.6224L28.4773 39.0561L23.8537 44.7028C23.6243 44.9857 23.2784 45.1474 22.9147 45.1426C22.7721 45.145 22.6294 45.1165 22.4987 45.0594C21.9947 44.8894 21.6631 44.402 21.6904 43.8707V37.2492L38.2119 17.0401L17.7681 34.6934L10.2205 31.5907C9.77954 31.4266 9.47526 31.0153 9.44792 30.5446C9.38968 30.0595 9.63572 29.5864 10.066 29.3558L41.8846 11.0487C42.2781 10.7932 42.7868 10.7932 43.1802 11.0487C43.5903 11.3317 43.7959 11.831 43.7032 12.3207Z" fill="white"/>
</g>
<rect x="1.06074" y="1.04982" width="53.9" height="53.9" rx="7.35" stroke="white" stroke-opacity="0.15" stroke-width="2.1"/>
<defs>
<filter id="filter0_d_28_3826" x="2.29646" y="2.28553" width="51.4286" height="51.4286" filterUnits="userSpaceOnUse" color-interpolation-filters="sRGB">
<feFlood flood-opacity="0" result="BackgroundImageFix"/>
<feColorMatrix in="SourceAlpha" type="matrix" values="0 0 0 0 0 0 0 0 0 0 0 0 0 0 0 0 0 0 127 0" result="hardAlpha"/>
<feOffset/>
<feGaussianBlur stdDeviation="2.85714"/>
<feComposite in2="hardAlpha" operator="out"/>
<feColorMatrix type="matrix" values="0 0 0 0 0 0 0 0 0 0 0 0 0 0 0 0 0 0 0.25 0"/>
<feBlend mode="normal" in2="BackgroundImageFix" result="effect1_dropShadow_28_3826"/>
<feBlend mode="normal" in="SourceGraphic" in2="effect1_dropShadow_28_3826" result="shape"/>
</filter>
<linearGradient id="paint0_linear_28_3826" x1="28.0107" y1="-0.000183105" x2="28.0107" y2="55.9998" gradientUnits="userSpaceOnUse">
<stop stop-color="#1D262D"/>
<stop offset="1" stop-color="#12181C"/>
</linearGradient>
</defs>
</svg>
