<svg width="57" height="56" viewBox="0 0 57 56" fill="none" xmlns="http://www.w3.org/2000/svg">
<rect x="0.0107422" y="-0.000183105" width="56" height="56" rx="8.4" fill="url(#paint0_linear_28_3833)"/>
<g filter="url(#filter0_d_28_3833)">
<path d="M37.268 13.2365L29.3774 17.7086L37.2764 22.1726L45.167 17.7004L37.268 13.2365Z" stroke="url(#paint1_linear_28_3833)" stroke-width="0.857143" stroke-linejoin="round"/>
<path d="M27.9963 7.99982L20.1016 12.472L28.0005 16.9319L35.8953 12.4638L27.9963 7.99982Z" stroke="url(#paint2_linear_28_3833)" stroke-width="0.857143" stroke-linejoin="round"/>
<path d="M18.7332 13.2487L10.8384 17.7167L18.7373 22.1807L26.6279 17.7126L18.7332 13.2487Z" stroke="url(#paint3_linear_28_3833)" stroke-width="0.857143" stroke-linejoin="round"/>
<path d="M28.0042 18.4853L20.1094 22.9574L28.0083 27.4173L35.9031 22.9493L28.0042 18.4853Z" stroke="url(#paint4_linear_28_3833)" stroke-width="0.857143" stroke-linejoin="round"/>
<path d="M10.1533 18.8818L10.1575 27.8179L18.0564 32.2778L18.0523 23.3458L10.1533 18.8818Z" stroke="url(#paint5_linear_28_3833)" stroke-width="0.857143" stroke-linejoin="round"/>
<path d="M19.4253 24.1226L19.4295 33.0546L27.3284 37.5186L27.3242 28.5865L19.4253 24.1226Z" stroke="url(#paint6_linear_28_3833)" stroke-width="0.857143" stroke-linejoin="round"/>
<path d="M10.1582 29.3672L10.1624 38.2993L18.0613 42.7592L18.0572 33.8271L10.1582 29.3672Z" stroke="url(#paint7_linear_28_3833)" stroke-width="0.857143" stroke-linejoin="round"/>
<path d="M19.4292 34.6078L19.4334 43.5399L27.3323 47.9998L27.3282 39.0677L19.4292 34.6078Z" stroke="url(#paint8_linear_28_3833)" stroke-width="0.857143" stroke-linejoin="round"/>
<path d="M28.7053 47.9998L36.6001 43.5317L36.596 34.5997L28.7012 39.0677L28.7053 47.9998Z" stroke="url(#paint9_linear_28_3833)" stroke-width="0.857143" stroke-linejoin="round"/>
<path d="M37.9734 42.7509L45.8682 38.2829L45.8598 29.3508L37.9692 33.8189L37.9734 42.7509Z" stroke="url(#paint10_linear_28_3833)" stroke-width="0.857143" stroke-linejoin="round"/>
<path d="M37.9646 32.2656L45.8594 27.7975L45.8552 18.8655L37.9604 23.3335L37.9646 32.2656Z" stroke="url(#paint11_linear_28_3833)" stroke-width="0.857143" stroke-linejoin="round"/>
<path d="M28.6973 28.5824L28.7014 37.5144L36.592 33.0464L36.5879 24.1143L28.6973 28.5824Z" stroke="url(#paint12_linear_28_3833)" stroke-width="0.857143" stroke-linejoin="round"/>
</g>
<rect x="1.06074" y="1.04982" width="53.9" height="53.9" rx="7.35" stroke="white" stroke-opacity="0.15" stroke-width="2.1"/>
<defs>
<filter id="filter0_d_28_3833" x="2.29646" y="1.85694" width="51.4286" height="52.2857" filterUnits="userSpaceOnUse" color-interpolation-filters="sRGB">
<feFlood flood-opacity="0" result="BackgroundImageFix"/>
<feColorMatrix in="SourceAlpha" type="matrix" values="0 0 0 0 0 0 0 0 0 0 0 0 0 0 0 0 0 0 127 0" result="hardAlpha"/>
<feOffset/>
<feGaussianBlur stdDeviation="2.85714"/>
<feComposite in2="hardAlpha" operator="out"/>
<feColorMatrix type="matrix" values="0 0 0 0 0 0 0 0 0 0 0 0 0 0 0 0 0 0 0.25 0"/>
<feBlend mode="normal" in2="BackgroundImageFix" result="effect1_dropShadow_28_3833"/>
<feBlend mode="normal" in="SourceGraphic" in2="effect1_dropShadow_28_3833" result="shape"/>
</filter>
<linearGradient id="paint0_linear_28_3833" x1="0.0107423" y1="-1.35516e-05" x2="61.3974" y2="6.70846" gradientUnits="userSpaceOnUse">
<stop stop-color="#092230"/>
<stop offset="1" stop-color="#200521"/>
</linearGradient>
<linearGradient id="paint1_linear_28_3833" x1="7.18693" y1="7.57063" x2="48.0572" y2="49.289" gradientUnits="userSpaceOnUse">
<stop offset="0.15" stop-color="#25B8FF"/>
<stop offset="0.85" stop-color="#FA02FF"/>
</linearGradient>
<linearGradient id="paint2_linear_28_3833" x1="7.187" y1="7.57059" x2="48.0573" y2="49.289" gradientUnits="userSpaceOnUse">
<stop offset="0.15" stop-color="#25B8FF"/>
<stop offset="0.85" stop-color="#FA02FF"/>
</linearGradient>
<linearGradient id="paint3_linear_28_3833" x1="7.18725" y1="7.57058" x2="48.0575" y2="49.289" gradientUnits="userSpaceOnUse">
<stop offset="0.15" stop-color="#25B8FF"/>
<stop offset="0.85" stop-color="#FA02FF"/>
</linearGradient>
<linearGradient id="paint4_linear_28_3833" x1="7.18647" y1="7.57063" x2="48.0567" y2="49.289" gradientUnits="userSpaceOnUse">
<stop offset="0.15" stop-color="#25B8FF"/>
<stop offset="0.85" stop-color="#FA02FF"/>
</linearGradient>
<linearGradient id="paint5_linear_28_3833" x1="7.18652" y1="7.57058" x2="48.0568" y2="49.289" gradientUnits="userSpaceOnUse">
<stop offset="0.15" stop-color="#25B8FF"/>
<stop offset="0.85" stop-color="#FA02FF"/>
</linearGradient>
<linearGradient id="paint6_linear_28_3833" x1="7.18671" y1="7.57069" x2="48.057" y2="49.2891" gradientUnits="userSpaceOnUse">
<stop offset="0.15" stop-color="#25B8FF"/>
<stop offset="0.85" stop-color="#FA02FF"/>
</linearGradient>
<linearGradient id="paint7_linear_28_3833" x1="7.18723" y1="7.57062" x2="48.0575" y2="49.289" gradientUnits="userSpaceOnUse">
<stop offset="0.15" stop-color="#25B8FF"/>
<stop offset="0.85" stop-color="#FA02FF"/>
</linearGradient>
<linearGradient id="paint8_linear_28_3833" x1="7.18645" y1="7.57054" x2="48.0567" y2="49.2889" gradientUnits="userSpaceOnUse">
<stop offset="0.15" stop-color="#25B8FF"/>
<stop offset="0.85" stop-color="#FA02FF"/>
</linearGradient>
<linearGradient id="paint9_linear_28_3833" x1="7.18664" y1="7.57054" x2="48.0569" y2="49.2889" gradientUnits="userSpaceOnUse">
<stop offset="0.15" stop-color="#25B8FF"/>
<stop offset="0.85" stop-color="#FA02FF"/>
</linearGradient>
<linearGradient id="paint10_linear_28_3833" x1="7.1871" y1="7.57056" x2="48.0574" y2="49.2889" gradientUnits="userSpaceOnUse">
<stop offset="0.15" stop-color="#25B8FF"/>
<stop offset="0.85" stop-color="#FA02FF"/>
</linearGradient>
<linearGradient id="paint11_linear_28_3833" x1="7.18666" y1="7.57064" x2="48.0569" y2="49.289" gradientUnits="userSpaceOnUse">
<stop offset="0.15" stop-color="#25B8FF"/>
<stop offset="0.85" stop-color="#FA02FF"/>
</linearGradient>
<linearGradient id="paint12_linear_28_3833" x1="7.18691" y1="7.57063" x2="48.0572" y2="49.289" gradientUnits="userSpaceOnUse">
<stop offset="0.15" stop-color="#25B8FF"/>
<stop offset="0.85" stop-color="#FA02FF"/>
</linearGradient>
</defs>
</svg>
