<svg width="57" height="56" viewBox="0 0 57 56" fill="none" xmlns="http://www.w3.org/2000/svg">
<rect x="0.0107422" y="-9.15527e-05" width="56" height="56" rx="8.4" fill="url(#paint0_linear_28_3808)"/>
<g filter="url(#filter0_d_28_3808)">
<path d="M27.2965 8.4123C27.7385 8.15711 28.283 8.15711 28.725 8.4123L44.617 17.5875C45.059 17.8427 45.3312 18.3143 45.3312 18.8247V37.1751C45.3312 37.6855 45.059 38.1571 44.617 38.4123L28.725 47.5875C28.283 47.8427 27.7385 47.8427 27.2965 47.5875L11.4045 38.4123C10.9625 38.1571 10.6902 37.6855 10.6902 37.1751V18.8247C10.6902 18.3143 10.9625 17.8427 11.4045 17.5875L27.2965 8.4123Z" fill="url(#paint1_linear_28_3808)"/>
</g>
<rect x="1.06074" y="1.04991" width="53.9" height="53.9" rx="7.35" stroke="white" stroke-opacity="0.15" stroke-width="2.1"/>
<defs>
<filter id="filter0_d_28_3808" x="2.29646" y="2.28562" width="51.4286" height="51.4286" filterUnits="userSpaceOnUse" color-interpolation-filters="sRGB">
<feFlood flood-opacity="0" result="BackgroundImageFix"/>
<feColorMatrix in="SourceAlpha" type="matrix" values="0 0 0 0 0 0 0 0 0 0 0 0 0 0 0 0 0 0 127 0" result="hardAlpha"/>
<feOffset/>
<feGaussianBlur stdDeviation="2.85714"/>
<feComposite in2="hardAlpha" operator="out"/>
<feColorMatrix type="matrix" values="0 0 0 0 0 0 0 0 0 0 0 0 0 0 0 0 0 0 0.25 0"/>
<feBlend mode="normal" in2="BackgroundImageFix" result="effect1_dropShadow_28_3808"/>
<feBlend mode="normal" in="SourceGraphic" in2="effect1_dropShadow_28_3808" result="shape"/>
</filter>
<linearGradient id="paint0_linear_28_3808" x1="28.0107" y1="-9.15527e-05" x2="28.0107" y2="55.9999" gradientUnits="userSpaceOnUse">
<stop stop-color="#383838"/>
<stop offset="1" stop-color="#242424"/>
</linearGradient>
<linearGradient id="paint1_linear_28_3808" x1="8.01075" y1="8" x2="8.01075" y2="48" gradientUnits="userSpaceOnUse">
<stop stop-color="white"/>
<stop offset="1" stop-color="#B9B9B9"/>
</linearGradient>
</defs>
</svg>
