<svg width="57" height="56" viewBox="0 0 57 56" fill="none" xmlns="http://www.w3.org/2000/svg">
<rect x="0.0107422" y="-0.000152588" width="56" height="56" rx="8.4" fill="url(#paint0_linear_28_3820)"/>
<g filter="url(#filter0_d_28_3820)">
<path fill-rule="evenodd" clip-rule="evenodd" d="M28.7607 10.9411C28.3161 11.0831 27.9745 11.3401 27.5873 11.8238C27.4784 11.9598 27.2909 12.0078 27.047 11.9619C26.7578 11.9074 25.6601 11.8364 22.7867 11.6863C21.947 11.6424 21.7766 11.6663 21.626 11.8487C21.2659 12.2844 21.3629 13.6884 21.7742 13.9935C21.8913 14.0805 22.5296 14.0934 23.1578 14.0215C23.4962 13.9828 23.8332 13.9483 24.6075 13.8731C24.8019 13.8542 25.1201 13.8229 25.3145 13.8035C25.509 13.7841 25.9146 13.7439 26.2161 13.7141C26.5175 13.6844 26.9601 13.6194 27.1996 13.5695L27.6351 13.4789L27.7653 13.5662C28.1456 13.8213 28.2503 14.006 28.1961 14.3256C28.0942 14.9262 28.0837 15.2567 28.0983 17.3767C28.1165 19.9943 28.1777 19.7628 27.4535 19.8195C27.0007 19.8549 26.8245 19.9837 26.7452 20.3375C26.7072 20.5069 26.7159 22.1218 26.7573 22.5626C26.7832 22.8393 26.5658 22.9967 26.0684 23.0614C25.5795 23.125 25.4615 23.4048 25.5661 24.2528C25.5889 24.437 25.4768 24.5859 25.1879 24.755C24.9255 24.9086 24.8703 25.2724 25.0765 25.4898C25.3011 25.7267 25.3123 25.8447 25.1343 26.1024C24.9493 26.3706 24.9451 26.4125 24.9435 28.0529C24.9417 29.7012 24.9205 29.9705 24.7755 30.1865C24.5656 30.4988 23.5363 31.4476 23.2935 31.5524C23.2196 31.5842 22.5926 31.6016 20.9128 31.6183C19.6586 31.6306 18.5887 31.6528 18.5354 31.6675C18.3198 31.7268 18.1204 31.6579 17.9272 31.4571C17.6579 31.1776 17.6883 31.1814 15.8393 31.2007C14.0225 31.2196 14.0418 31.2222 13.9983 30.9629C13.9493 30.6709 13.9205 30.5766 13.8022 30.3196C13.5772 29.8305 13.3787 29.7349 12.7517 29.8134C12.3521 29.8635 12.2618 29.9723 12.164 30.522C12.0412 31.211 11.9134 31.3552 11.5477 31.2173C11.3069 31.1264 11.2704 31.1247 10.3238 31.1572C10.2655 31.1591 10.1592 31.1503 10.0877 31.1377C10.0116 31.1242 9.90155 31.1333 9.82251 31.1599C9.74821 31.185 9.56812 31.209 9.42222 31.2135C8.7694 31.2334 8.6606 31.2669 8.5114 31.4941C8.1823 31.995 7.90415 34.7956 8.05098 36.1304C8.21826 37.652 8.42863 38.3731 8.74326 38.5034C9.17527 38.6823 11.0421 38.7649 11.5317 38.6266L11.785 38.5552L11.8985 38.6358C12.0468 38.7412 12.1267 38.9293 12.1975 39.3403C12.2823 39.8329 12.3701 39.9431 12.7325 40.0113C12.9798 40.0579 13.3149 40.0394 13.4655 39.9711C13.7833 39.8265 13.9608 38.8374 13.7684 38.2829C13.6584 37.9656 13.7406 37.8902 13.8853 38.1757C14.0884 38.5768 14.2971 38.617 16.1751 38.6171C17.875 38.6171 17.7527 38.6467 17.9909 38.1786C18.1824 37.8023 18.2693 37.7329 18.5377 37.7426C18.6481 37.7466 19.5339 37.7635 20.5062 37.7802C22.4462 37.8134 22.2618 37.7915 22.875 38.0616C24.4809 38.7688 26.2393 39.1672 28.4435 39.3232C29.6553 39.4089 31.3223 39.3721 32.368 39.2366C34.2478 38.9929 35.4873 38.6797 36.7697 38.1245C37.7043 37.7198 38.1184 37.9343 38.3104 38.9225C38.4605 39.695 38.4245 39.8088 37.9718 39.9924C37.3337 40.2512 36.9382 40.5176 36.8442 40.7521C36.7762 40.9216 36.8079 41.108 36.9909 41.6154C37.0399 41.7512 37.0847 41.9496 37.0905 42.0563C37.1071 42.3591 37.1383 42.4834 37.2456 42.6749C37.3004 42.7727 37.3555 42.9314 37.3681 43.0277C37.3972 43.2521 37.4828 43.5174 37.5836 43.6965C37.6319 43.7822 37.6719 43.9299 37.6855 44.0722C37.7489 44.7365 38.0365 44.9301 39.1209 45.0381C39.2473 45.0507 39.3883 45.0668 39.4344 45.0738C41.6379 45.4108 44.6818 44.4907 46.8705 42.8259C47.8911 42.0496 48.148 41.6816 47.948 41.2815C47.9152 41.2159 47.889 41.0805 47.889 40.9764C47.889 40.7724 47.7864 40.4572 47.6732 40.3136C47.6339 40.2638 47.5951 40.1529 47.5871 40.0673C47.5716 39.9026 47.4616 39.592 47.3749 39.4686C47.3465 39.4282 47.3233 39.3434 47.3233 39.2802C47.3233 39.1493 47.2371 38.9096 47.1391 38.7683C47.1026 38.7156 47.0499 38.5958 47.022 38.5022C46.8773 38.0161 46.0539 37.7222 45.2196 37.8589C44.505 37.976 44.4562 37.95 44.2497 37.3441C43.5923 35.4162 42.6974 33.9929 41.6622 33.2292C41.2691 32.9392 41.1221 32.8722 39.6512 32.3122C38.2085 31.7632 37.8436 31.6097 37.1827 31.274C36.7876 31.0734 36.3501 30.8357 36.2104 30.7458C34.0745 29.3709 34.305 29.731 34.2271 27.646C34.1748 26.2437 34.1636 26.1883 33.8889 25.968C33.6657 25.7892 33.6332 25.7065 33.6951 25.4743C33.8017 25.0753 33.7459 24.8991 33.4492 24.6974C33.2174 24.5398 33.1855 24.4725 33.2215 24.2174C33.3429 23.3573 33.2043 23.0486 32.671 22.9911C32.3483 22.9563 32.2129 22.9131 32.1208 22.8153L32.0376 22.7267L32.0348 21.4657C32.0312 19.791 32.0426 19.8163 31.2719 19.7786C30.721 19.7515 30.5941 19.7204 30.479 19.5839L30.3881 19.4761L30.3877 17.1067C30.3875 15.7301 30.3724 14.6059 30.3515 14.4239C30.3092 14.0561 30.3146 14.0434 30.6424 13.7359C30.893 13.5007 31.0516 13.4053 31.1482 13.4315C31.717 13.5861 31.625 13.5788 34.7368 13.7155C37.1248 13.8204 37.1045 13.8227 37.2998 13.4325C37.5555 12.9216 37.3828 11.5394 37.0456 11.3971C36.9301 11.3484 36.4738 11.3504 36.0449 11.4015C35.7281 11.4393 35.6444 11.4486 34.1004 11.6182C32.1824 11.8288 32.1452 11.8333 31.6734 11.9155C31.2119 11.9958 31.1846 11.9868 30.9197 11.6674C30.3538 10.9847 29.5114 10.7013 28.7607 10.9411Z" fill="url(#paint1_linear_28_3820)"/>
</g>
<rect x="1.06074" y="1.04985" width="53.9" height="53.9" rx="7.35" stroke="white" stroke-opacity="0.15" stroke-width="2.1"/>
<defs>
<filter id="filter0_d_28_3820" x="2.29646" y="2.28556" width="51.4286" height="51.4285" filterUnits="userSpaceOnUse" color-interpolation-filters="sRGB">
<feFlood flood-opacity="0" result="BackgroundImageFix"/>
<feColorMatrix in="SourceAlpha" type="matrix" values="0 0 0 0 0 0 0 0 0 0 0 0 0 0 0 0 0 0 127 0" result="hardAlpha"/>
<feOffset/>
<feGaussianBlur stdDeviation="2.85714"/>
<feComposite in2="hardAlpha" operator="out"/>
<feColorMatrix type="matrix" values="0 0 0 0 0 0 0 0 0 0 0 0 0 0 0 0 0 0 0.25 0"/>
<feBlend mode="normal" in2="BackgroundImageFix" result="effect1_dropShadow_28_3820"/>
<feBlend mode="normal" in="SourceGraphic" in2="effect1_dropShadow_28_3820" result="shape"/>
</filter>
<linearGradient id="paint0_linear_28_3820" x1="28.0107" y1="-0.000152588" x2="28.0107" y2="55.9998" gradientUnits="userSpaceOnUse">
<stop stop-color="#342A1D"/>
<stop offset="1" stop-color="#1C1610"/>
</linearGradient>
<linearGradient id="paint1_linear_28_3820" x1="28.0107" y1="10.8571" x2="28.0107" y2="45.1429" gradientUnits="userSpaceOnUse">
<stop stop-color="#CEA260"/>
<stop offset="1" stop-color="#81562E"/>
</linearGradient>
</defs>
</svg>
