<svg width="57" height="56" viewBox="0 0 57 56" fill="none" xmlns="http://www.w3.org/2000/svg">
<rect x="0.0107422" y="-0.000183105" width="56" height="56" rx="8.4" fill="url(#paint0_linear_28_3851)"/>
<g filter="url(#filter0_d_28_3851)">
<g clip-path="url(#clip0_28_3851)">
<path d="M46.0107 7.99982H10.0107C8.91074 7.99982 8.01074 8.89982 8.01074 9.99982V45.9998C8.01074 47.0998 8.91074 47.9998 10.0107 47.9998H13.2307C12.8907 38.8598 13.2107 37.4998 13.8507 36.5998C14.6307 35.4798 14.9507 35.3398 16.1307 34.3998C17.1307 33.5998 16.7707 32.2998 16.0507 31.3598C15.6107 30.7798 14.9907 30.0998 14.5107 29.4398C14.2107 28.9998 14.9507 26.4198 15.2307 25.4798C15.5107 24.5398 15.9907 21.4798 20.1907 20.6598C21.7707 20.3398 26.1107 20.1198 29.0907 20.2998C29.0707 20.1798 29.0307 20.0398 29.0107 19.8998C28.9507 19.6598 28.9107 19.3998 28.8507 19.1198C28.7907 18.8598 28.7307 18.5798 28.6707 18.2998C28.6107 18.0198 28.5307 17.7398 28.4707 17.4398C28.3907 17.1398 28.3307 16.8598 28.2307 16.5598C28.0707 15.9598 27.8707 15.3798 27.6307 14.8198C27.5107 14.5398 27.3907 14.2798 27.2507 14.0398C27.1107 13.8198 26.9707 13.6198 26.8507 13.5398C26.8307 13.5198 26.8107 13.4998 26.7907 13.4998H26.7707H26.8107C26.8107 13.4998 26.8307 13.4998 26.8107 13.4998L26.7507 13.4798H26.7107L26.6307 13.4598H26.5307C26.2707 13.4398 25.9907 13.4398 25.6907 13.4598C25.1107 13.4998 24.4907 13.6198 23.8907 13.7598C23.2907 13.8998 22.7107 14.0798 22.1507 14.2398C21.9107 14.3198 21.6907 14.3998 21.4707 14.4598C21.4907 14.6398 21.5107 14.7998 21.5107 14.9798C21.5107 17.5798 19.4107 19.6798 16.8107 19.6798C14.2107 19.6798 12.1307 17.5798 12.1307 14.9798C12.1307 12.3798 14.2307 10.2798 16.8307 10.2798C18.5707 10.2798 20.0907 11.2198 20.9107 12.6398C21.1107 12.5598 21.3307 12.4798 21.5507 12.3998C22.1107 12.1798 22.7307 11.9598 23.3707 11.7598C24.0307 11.5598 24.7107 11.3598 25.4707 11.2598C25.8507 11.1998 26.2507 11.1798 26.6907 11.1998H26.8507C26.9107 11.1998 26.9707 11.2198 27.0107 11.2198H27.1507L27.2107 11.2398H27.2307L27.2907 11.2598C27.2907 11.2598 27.3307 11.2598 27.3507 11.2798L27.4307 11.2998C27.5507 11.3398 27.6107 11.3598 27.6907 11.3998C27.7707 11.4398 27.8307 11.4598 27.9107 11.4998C28.0507 11.5798 28.1707 11.6598 28.2907 11.7398C28.5107 11.9198 28.6907 12.0998 28.8307 12.2798C28.9907 12.4598 29.1107 12.6398 29.2307 12.8198C29.4707 13.1798 29.6507 13.5198 29.8107 13.8598C30.1307 14.5398 30.3907 15.2198 30.5907 15.8598L30.8907 16.8198C30.9907 17.1398 31.0507 17.4398 31.1307 17.7398C31.1707 17.8798 31.2107 18.0398 31.2307 18.1798C31.2707 18.3198 31.2907 18.4598 31.3307 18.5998C31.3907 18.8798 31.4507 19.1598 31.5107 19.4198C31.5907 19.8198 31.6507 20.1998 31.7107 20.5398C36.1907 20.9798 39.6107 21.5598 41.1507 23.0998C43.4107 25.2998 45.1507 35.2998 44.0107 47.9998H46.0107C47.1107 47.9998 48.0107 47.0998 48.0107 45.9998V9.99982C48.0107 8.89982 47.1107 7.99982 46.0107 7.99982Z" fill="#F7CF0D"/>
<path d="M26.2911 36.1597C26.0311 36.8797 25.8111 45.2997 28.2911 45.2997C30.7711 45.2997 30.7911 36.6597 30.7111 36.1597C30.6311 35.6797 26.5511 35.4597 26.2911 36.1597ZM23.0111 27.9997C21.3111 27.7597 20.2911 36.0397 22.6711 36.5197C24.9111 36.9597 24.6911 28.2397 23.0111 27.9997ZM34.1711 27.9997C32.4711 27.7597 31.4511 36.0397 33.8311 36.5197C36.0711 36.9597 35.8711 28.2397 34.1711 27.9997Z" fill="#F7CF0D"/>
</g>
</g>
<rect x="1.06074" y="1.04982" width="53.9" height="53.9" rx="7.35" stroke="white" stroke-opacity="0.15" stroke-width="2.1"/>
<defs>
<filter id="filter0_d_28_3851" x="2.29646" y="2.28553" width="51.4286" height="51.4286" filterUnits="userSpaceOnUse" color-interpolation-filters="sRGB">
<feFlood flood-opacity="0" result="BackgroundImageFix"/>
<feColorMatrix in="SourceAlpha" type="matrix" values="0 0 0 0 0 0 0 0 0 0 0 0 0 0 0 0 0 0 127 0" result="hardAlpha"/>
<feOffset/>
<feGaussianBlur stdDeviation="2.85714"/>
<feComposite in2="hardAlpha" operator="out"/>
<feColorMatrix type="matrix" values="0 0 0 0 0 0 0 0 0 0 0 0 0 0 0 0 0 0 0.25 0"/>
<feBlend mode="normal" in2="BackgroundImageFix" result="effect1_dropShadow_28_3851"/>
<feBlend mode="normal" in="SourceGraphic" in2="effect1_dropShadow_28_3851" result="shape"/>
</filter>
<linearGradient id="paint0_linear_28_3851" x1="28.0107" y1="-0.000183105" x2="28.0107" y2="55.9998" gradientUnits="userSpaceOnUse">
<stop stop-color="#353518"/>
<stop offset="1" stop-color="#241F10"/>
</linearGradient>
<clipPath id="clip0_28_3851">
<rect width="40" height="40" fill="white" transform="translate(8.01074 7.99982)"/>
</clipPath>
</defs>
</svg>
