<svg width="57" height="56" viewBox="0 0 57 56" fill="none" xmlns="http://www.w3.org/2000/svg">
<rect x="0.0107422" y="-0.000244141" width="56" height="56" rx="8.4" fill="url(#paint0_linear_28_3897)"/>
<g filter="url(#filter0_d_28_3897)">
<path d="M16.5743 8.13252C12.5898 8.84477 9.38407 11.7931 8.37346 15.6691C8.00898 17.0687 7.98413 17.8886 8.02555 28.7462C8.0504 38.7177 8.05869 38.9496 8.22436 39.7198C9.14384 43.869 12.0928 46.8257 16.2843 47.803C16.8311 47.9272 17.5269 47.952 22.0083 47.9769C26.6472 48.01 27.1276 48.0017 27.2519 47.8775C27.3761 47.7533 27.3844 46.1549 27.3844 28.034C27.3844 14.6007 27.3596 8.27331 27.3016 8.15737C27.2187 8.00829 27.0779 8.00001 22.2237 8.00829C18.2807 8.01657 17.0961 8.04142 16.5743 8.13252ZM24.071 28.0091V44.7883L20.6995 44.7469C17.5932 44.7138 17.2618 44.6972 16.6405 44.5399C13.9732 43.8525 11.9934 41.7986 11.4384 39.1235C11.2562 38.287 11.2562 17.6816 11.4301 16.8617C11.9271 14.5345 13.5425 12.6048 15.7211 11.7352C16.8145 11.2962 17.3198 11.2465 20.8652 11.2382L24.071 11.23V28.0091Z" fill="white"/>
<path d="M17.2866 16.29C16.7648 16.3894 15.9695 16.7869 15.5471 17.1596C14.6773 17.9133 14.2465 18.9816 14.3128 20.2405C14.3459 20.8948 14.3873 21.0687 14.6524 21.5987C15.0418 22.4021 15.6299 22.9901 16.4334 23.3876C16.9884 23.6609 17.1292 23.6941 17.8499 23.7189C18.5043 23.7437 18.7363 23.7189 19.1753 23.5698C20.9728 22.9652 22.058 21.2178 21.7515 19.4289C21.3953 17.3004 19.3741 15.8759 17.2866 16.29Z" fill="white"/>
<path d="M31.4183 8.05785C31.3852 8.0827 31.3604 17.0603 31.3604 28.009C31.3604 46.0719 31.3686 47.9022 31.4929 47.9519C31.7165 48.0347 38.1447 48.0016 38.9399 47.9188C42.303 47.5378 45.2686 45.4922 46.8839 42.4527C47.091 42.0635 47.3643 41.4092 47.5052 41.0034C48.027 39.4464 48.0105 39.8605 48.0105 27.9593C48.0105 18.46 47.9939 17.0437 47.8779 16.4392C47.0578 12.1243 43.7692 8.86948 39.4452 8.12411C38.8653 8.02472 37.9707 7.99988 35.088 7.99988C33.0999 7.99988 31.4432 8.02472 31.4183 8.05785ZM40.2653 26.0959C41.5575 26.4355 42.6178 27.421 43.0486 28.6799C43.3219 29.4584 43.3136 30.6013 43.0403 31.3135C42.535 32.6221 41.5409 33.5413 40.2653 33.8809C38.1944 34.4192 35.9909 33.1687 35.3862 31.1147C35.204 30.4853 35.2122 29.4252 35.4193 28.7792C36.0406 26.7502 38.1944 25.5576 40.2653 26.0959Z" fill="white"/>
</g>
<rect x="1.06074" y="1.04976" width="53.9" height="53.9" rx="7.35" stroke="white" stroke-opacity="0.15" stroke-width="2.1"/>
<defs>
<filter id="filter0_d_28_3897" x="2.29646" y="2.28547" width="51.4286" height="51.4287" filterUnits="userSpaceOnUse" color-interpolation-filters="sRGB">
<feFlood flood-opacity="0" result="BackgroundImageFix"/>
<feColorMatrix in="SourceAlpha" type="matrix" values="0 0 0 0 0 0 0 0 0 0 0 0 0 0 0 0 0 0 127 0" result="hardAlpha"/>
<feOffset/>
<feGaussianBlur stdDeviation="2.85714"/>
<feComposite in2="hardAlpha" operator="out"/>
<feColorMatrix type="matrix" values="0 0 0 0 0 0 0 0 0 0 0 0 0 0 0 0 0 0 0.25 0"/>
<feBlend mode="normal" in2="BackgroundImageFix" result="effect1_dropShadow_28_3897"/>
<feBlend mode="normal" in="SourceGraphic" in2="effect1_dropShadow_28_3897" result="shape"/>
</filter>
<linearGradient id="paint0_linear_28_3897" x1="0.0108418" y1="-0.000162432" x2="-19.4249" y2="48.1555" gradientUnits="userSpaceOnUse">
<stop stop-color="#40080B"/>
<stop offset="1" stop-color="#240507"/>
</linearGradient>
</defs>
</svg>
