<svg width="57" height="56" viewBox="0 0 57 56" fill="none" xmlns="http://www.w3.org/2000/svg">
<g clip-path="url(#clip0_29_50)">
<rect x="0.0107422" y="-0.000183105" width="56" height="56" rx="8.4" fill="url(#paint0_linear_29_50)"/>
<g filter="url(#filter0_d_29_50)">
<path d="M13.2745 37.7931C12.988 37.8901 12.712 38.0007 12.4094 37.9989C11.838 37.9956 11.3009 37.7249 10.9332 37.2875C10.579 36.8662 10.2302 36.4501 9.90491 36.0164C9.0851 34.9233 8.30793 33.7984 7.50014 32.6962C7.13899 32.2033 6.73622 31.7409 6.37235 31.2499C5.99453 30.7401 5.64182 30.2119 5.27336 29.6951C5.23345 29.6391 5.15379 29.6322 5.15383 29.5635C5.15397 29.3105 5.15493 29.0571 5.1619 28.8004C5.16863 28.5523 5.30203 28.3416 5.46929 28.1582C5.49595 28.129 5.51939 28.0983 5.53833 28.0651C5.76906 27.6606 5.96192 27.2348 6.18784 26.8273C7.23373 24.9411 8.27057 23.0496 9.34726 21.1809C9.59232 20.7556 9.69418 20.1877 10.2232 19.9779C10.5583 19.8449 10.9206 19.7737 11.2758 19.6983C12.4918 19.4403 13.7093 19.1885 14.9279 18.9422C16.2467 18.6755 17.5675 18.419 18.8859 18.1505C19.0055 18.1262 19.0739 17.9998 19.1959 17.9999C19.3907 18.0001 19.5858 18.0009 19.7826 18.0042C20.1543 18.0105 20.519 18.1505 20.791 18.4039C20.8647 18.4724 20.933 18.5435 20.9915 18.6219C21.5761 19.4037 22.1406 20.2007 22.6984 21.0019C22.9164 21.315 23.1481 21.4652 23.5714 21.4642C31.0704 21.4457 38.5694 21.4508 46.0685 21.4509C46.694 21.4509 47.09 21.8262 47.0914 22.4189C47.0928 23.0504 46.7156 23.4115 46.0538 23.4115C42.5665 23.4116 39.0792 23.4116 35.5919 23.4116C35.4083 23.4116 35.2245 23.4055 35.0413 23.4128C34.545 23.4324 34.0352 23.8079 33.9525 24.2086C33.8386 24.7599 34.1058 25.2581 34.6465 25.4686C34.7723 25.5175 34.92 25.5266 35.0576 25.5268C37.4437 25.5302 39.8298 25.5317 42.2158 25.5279C43.0714 25.5266 43.519 26.2651 43.2148 26.9869C43.0192 27.4508 42.5918 27.5604 42.145 27.5643C40.8079 27.5758 39.4706 27.5684 38.1333 27.5684C35.8259 27.5684 33.5185 27.5677 31.2111 27.5689C30.6013 27.5693 30.2215 28.0007 30.1612 28.5959C30.1031 29.1698 30.7657 29.6944 31.4065 29.6931C37.3454 29.6812 43.2843 29.6863 49.2232 29.6858C49.8009 29.6857 50.4117 29.5783 50.7966 30.1734C50.804 30.1848 50.8194 30.1885 50.8307 30.1811C50.8468 30.1706 50.8681 30.1821 50.8681 30.2013C50.868 30.4422 50.8672 30.6841 50.853 30.9432C50.8462 31.0681 50.7811 31.1822 50.6814 31.2579C50.3965 31.4741 50.1477 31.6684 49.7341 31.6647C46.0902 31.6319 42.4459 31.6466 38.8018 31.6471C38.1144 31.6472 37.5819 32.1061 37.5691 32.6931C37.5574 33.234 38.0137 33.7852 38.7712 33.7735C40.5798 33.7456 42.389 33.768 44.198 33.763C45.062 33.7607 45.4428 34.5488 45.2072 35.1256C45.0199 35.584 44.665 35.8037 44.0184 35.8037C36.7825 35.8038 29.5466 35.8036 22.3107 35.8049C22.1824 35.8049 21.9955 35.7718 21.9356 35.8404C21.5877 36.2393 21.0838 36.2469 20.6418 36.3379C18.2166 36.8372 15.7822 37.2917 13.3529 37.7719C13.3264 37.7771 13.3003 37.7843 13.2745 37.7931ZM19.3857 19.8708C18.9844 19.6861 18.4837 19.9352 18.2231 20.2919C17.9936 20.6062 17.8114 20.9563 17.6226 21.2986C16.8729 22.657 16.1437 24.0269 15.3719 25.3726C15.1578 25.7458 14.8716 26.1176 14.5279 26.3651C14.2395 26.5728 13.8247 26.6244 13.4567 26.7007C11.6431 27.0764 9.82611 27.4357 8.01117 27.8049C7.62958 27.8825 7.36694 28.1282 7.28731 28.4953C7.19321 28.929 7.27817 29.3262 7.68422 29.6134C8.0837 29.8959 8.48038 29.7783 8.90036 29.6911C10.5783 29.3431 12.2578 29.0017 13.9416 28.6829C14.5703 28.5639 15.1777 28.7011 15.5779 29.2269C16.7014 30.7035 17.7911 32.2057 18.8943 33.6976C19.2609 34.1933 19.8376 34.3052 20.3222 33.9755C20.7534 33.6822 20.8867 32.9917 20.5593 32.5393C19.5613 31.1605 18.5525 29.7893 17.5344 28.4251C17.1613 27.9251 16.8598 27.4097 17.0432 26.7664C17.1242 26.482 17.2825 26.2163 17.4267 25.9535C17.9422 25.0134 18.4744 24.0824 18.9851 23.1398C19.3563 22.4545 19.7294 21.7679 20.0507 21.059C20.2147 20.6974 20.0192 20.3567 19.7347 20.112C19.6264 20.0189 19.513 19.9294 19.3857 19.8708Z" fill="white"/>
<path d="M44.564 26.1076C44.9913 25.5633 45.3172 25.4401 45.8127 25.6085C46.2401 25.7537 46.5449 26.2677 46.4598 26.6999C46.3608 27.2033 45.8275 27.63 45.3759 27.5672C44.8723 27.4972 44.4908 27.0775 44.4971 26.5852C44.4991 26.436 44.5349 26.2873 44.564 26.1076Z" fill="white"/>
</g>
</g>
<rect x="1.06074" y="1.04982" width="53.9" height="53.9" rx="7.35" stroke="white" stroke-opacity="0.15" stroke-width="2.1"/>
<defs>
<filter id="filter0_d_29_50" x="-0.560477" y="2.28553" width="57.1429" height="51.4286" filterUnits="userSpaceOnUse" color-interpolation-filters="sRGB">
<feFlood flood-opacity="0" result="BackgroundImageFix"/>
<feColorMatrix in="SourceAlpha" type="matrix" values="0 0 0 0 0 0 0 0 0 0 0 0 0 0 0 0 0 0 127 0" result="hardAlpha"/>
<feOffset/>
<feGaussianBlur stdDeviation="2.85714"/>
<feComposite in2="hardAlpha" operator="out"/>
<feColorMatrix type="matrix" values="0 0 0 0 0 0 0 0 0 0 0 0 0 0 0 0 0 0 0.25 0"/>
<feBlend mode="normal" in2="BackgroundImageFix" result="effect1_dropShadow_29_50"/>
<feBlend mode="normal" in="SourceGraphic" in2="effect1_dropShadow_29_50" result="shape"/>
</filter>
<linearGradient id="paint0_linear_29_50" x1="28.0107" y1="-0.000183105" x2="28.0107" y2="55.9998" gradientUnits="userSpaceOnUse">
<stop stop-color="#1D292C"/>
<stop offset="1" stop-color="#12161C"/>
</linearGradient>
<clipPath id="clip0_29_50">
<rect x="0.0107422" y="-0.000183105" width="56" height="56" rx="8.4" fill="white"/>
</clipPath>
</defs>
</svg>
