<svg width="57" height="56" viewBox="0 0 57 56" fill="none" xmlns="http://www.w3.org/2000/svg">
<rect x="0.0107422" y="-0.000183105" width="56" height="56" rx="8.4" fill="url(#paint0_linear_29_19)"/>
<g filter="url(#filter0_d_29_19)">
<path fill-rule="evenodd" clip-rule="evenodd" d="M20.2658 8.27125C19.4236 9.18586 20.1046 9.6958 22.1693 9.6968C24.0453 9.6977 25.7079 9.95373 27.5422 10.5242C28.2575 10.7466 28.2606 10.6903 27.4841 11.577C26.6217 12.5618 26.0191 13.3108 25.5617 13.9663C25.3526 14.266 25.0557 14.6914 24.9018 14.9116C23.1676 17.3949 20.8706 22.6289 20.5188 24.8985C20.498 25.0332 20.432 25.3085 20.3722 25.5101C20.3125 25.7118 20.2038 26.1771 20.1307 26.5442C20.0576 26.9112 19.9269 27.5219 19.8402 27.9015C19.7535 28.2811 19.6819 28.7315 19.681 28.9024C19.6778 29.5779 19.6025 29.6567 18.759 29.8674C14.434 30.9474 10.8913 32.8517 9.29326 34.9551C7.08496 37.862 7.76313 41.2028 11.0597 43.6567C11.9775 44.3398 13.6688 45.3202 14.3369 45.5561C14.5912 45.6459 14.9606 45.7919 15.1579 45.8806C16.6306 46.5422 20.2803 47.4832 22.1156 47.6747C22.3846 47.7028 22.9095 47.7864 23.2821 47.8604C23.7344 47.9504 25.2882 47.9963 27.9588 47.9988C32.1308 48.0025 31.8764 48.022 35.2353 47.4451C37.5575 47.0462 39.0412 46.6181 41.5675 45.6181C48.4849 42.8796 50.0812 37.0581 44.9597 33.2475C42.7862 31.6304 39.3967 30.2404 36.0685 29.6012C35.7019 29.5309 35.1923 29.4273 34.9361 29.371C34.68 29.3148 34.3425 29.2687 34.1862 29.2687C33.8347 29.2687 33.8027 28.6077 34.0662 26.7873C34.1562 26.1642 34.3083 25.104 34.404 24.4312C34.6797 22.4925 35.2076 19.8603 35.4466 19.2322C35.5107 19.064 35.5397 18.9264 35.5111 18.9264C35.4826 18.9264 35.5284 18.7387 35.613 18.5093C35.7623 18.1046 36.2732 16.4806 36.2866 16.3685C36.2938 16.308 36.5346 15.6682 36.6842 15.3121C36.7356 15.1898 36.9287 14.7195 37.1135 14.267C37.55 13.1976 38.6186 11.409 38.9514 11.1907C40.1687 10.3923 43.3034 9.71092 45.8149 9.6988C47.6691 9.6898 48.0107 9.54347 48.0107 8.75808C48.0107 7.59056 42.4077 7.84698 39.3456 9.15473C39.1929 9.21999 38.7965 9.38093 38.4648 9.51254C36.5291 10.28 34.0535 16.3077 32.9085 23.0411C32.7889 23.7445 32.662 24.5702 32.6265 24.876C32.5911 25.1819 32.5168 25.7574 32.4615 26.1549C31.9506 29.8263 31.8022 37.8986 32.2379 38.3213C32.5112 38.5863 33.0533 38.5878 33.4023 38.3243C33.5961 38.178 33.6315 37.9887 33.68 36.8414L33.7355 35.526L34.8005 35.8836C36.5398 36.4676 37.5682 37.1501 37.5682 37.7205C37.5682 38.4417 35.3561 39.577 32.9302 40.101C31.6643 40.3745 30.525 40.5882 30.2918 40.596C27.5436 40.688 26.763 41.0684 27.3474 42.0303L27.5667 42.3913L28.5404 42.3921C30.0499 42.3932 32.3107 42.0496 34.1244 41.5434C34.4604 41.4496 34.8103 41.3538 34.902 41.3305C36.6041 40.8981 38.5343 39.6546 39.0007 38.6901C39.9306 36.7671 37.7389 34.6435 34.0411 33.8847C33.6865 33.812 33.68 33.7995 33.68 33.2004C33.68 32.671 33.7058 32.5978 33.8744 32.6484C33.9814 32.6805 34.4688 32.8106 34.9575 32.9376C43.4179 35.1346 43.6777 40.0022 35.4624 42.3955C35.007 42.5283 34.5071 42.6581 34.3515 42.6841C34.196 42.7101 33.9939 42.7595 33.9022 42.7938C32.0467 43.4876 23.982 43.4876 22.1265 42.7938C22.0348 42.7595 21.8327 42.7101 21.6772 42.6841C20.6312 42.509 18.9949 41.9216 17.6829 41.2503C13.332 39.0239 13.419 36.2608 17.909 34.0687C19.105 33.4849 19.1487 33.4851 19.1057 34.0741C19.0727 34.5271 19.0461 34.557 18.2939 34.9863C15.9312 36.3351 15.4498 38.3743 17.1657 39.7653C18.9027 41.1733 21.813 41.2776 21.3988 39.917C21.2656 39.4793 21.0049 39.2775 20.5727 39.2775C19.46 39.2775 17.794 38.3765 17.794 37.7747C17.794 37.5701 18.6853 36.6086 18.8749 36.6086C18.9355 36.6086 18.963 36.7249 18.9358 36.867C18.8757 37.1818 19.382 37.8318 19.6872 37.8318C20.4613 37.8318 20.6285 37.4139 20.7324 35.2184C20.811 33.5595 20.969 31.8082 21.1491 30.6033C21.2177 30.1445 21.2855 29.6441 21.2998 29.4911C21.3486 28.9692 21.5893 27.7687 21.9801 26.0994C23.2871 20.5152 25.3309 16.6148 29.4308 11.8795C29.9959 11.2267 30.4583 10.6161 30.4583 10.5225C30.4583 10.1371 30.1213 9.71212 29.7105 9.5796C29.4802 9.50544 29.2419 9.40675 29.1809 9.36051C28.3928 8.76329 25.2752 8.14154 22.682 8.06437L20.5157 7.99982L20.2658 8.27125ZM34.9873 9.66117C34.5608 9.77297 32.7151 12.6178 31.6375 14.824C30.9308 16.271 29.9143 18.8698 29.7342 19.6905C29.7123 19.7901 29.5422 20.4575 29.3562 21.1736C29.1703 21.8897 28.9425 22.8655 28.8501 23.3422C28.7576 23.8188 28.6316 24.459 28.5698 24.7648C28.5081 25.0707 28.438 25.5211 28.4142 25.7657C28.3903 26.0104 28.3201 26.5108 28.2582 26.8777C28.07 27.9933 27.6848 31.9277 27.6268 33.328C27.604 33.8785 27.5302 35.2591 27.4626 36.3961C27.3121 38.9296 27.4361 39.3627 28.2796 39.2496C29.0106 39.1516 29.0898 38.8814 29.1701 36.2131C29.2939 32.0906 29.6842 28.1957 30.3614 24.32C30.6861 22.4625 31.6656 18.9402 32.1861 17.7587C32.2669 17.5752 32.467 17.0998 32.6305 16.7022C33.0596 15.6598 33.6264 14.5567 34.2777 13.4967C34.5905 12.9877 34.8964 12.4872 34.9575 12.3847C35.0187 12.2822 35.2846 11.9077 35.5487 11.5527C36.4344 10.362 36.1369 9.35961 34.9873 9.66117ZM32.0692 9.93221C31.0673 10.2474 27.5153 15.8809 26.363 18.9819C25.9895 19.987 25.3536 21.9062 25.1655 22.5963C24.7982 23.9431 24.4814 25.2466 24.3547 25.9325C24.2812 26.3301 24.1534 26.9806 24.0704 27.3782C23.9875 27.7758 23.8682 28.4764 23.8054 28.9351C23.5681 30.6665 23.4228 31.8662 23.4297 32.038C23.4336 32.1357 23.3692 32.8213 23.2867 33.5613C22.8842 37.1701 23.0584 38.5475 23.9142 38.5231C24.5254 38.5057 24.6697 38.2462 24.7317 37.0527C24.8422 34.9265 25.1857 31.079 25.357 30.0472C25.4129 29.7108 25.4781 29.232 25.502 28.9833C25.5258 28.7345 25.6008 28.2591 25.6685 27.9268C26.2407 25.1197 26.2921 24.8813 26.459 24.2545C27.2478 21.294 28.1277 18.9291 29.2662 16.7101C29.9271 15.4222 31.6845 12.7419 32.3704 11.9758C33.2119 11.036 33.3325 10.5614 32.8519 10.0802C32.5532 9.78128 32.5505 9.78078 32.0692 9.93221ZM36.1593 31.3396C38.7824 31.9549 41.2877 32.9301 43.3349 34.1328C45.6792 35.51 46.8634 38.0251 46.0321 39.8607C44.9642 42.2185 40.4576 44.8096 36.1195 45.5603C35.9081 45.5969 35.5602 45.6712 35.3463 45.7255C34.9434 45.8277 34.154 45.9517 32.3469 46.1964C31.6875 46.2856 30.0619 46.3393 28.0144 46.3393C25.9668 46.3393 24.3412 46.2856 23.6819 46.1964C21.8748 45.9517 21.0853 45.8277 20.6824 45.7255C20.4685 45.6712 20.1206 45.5969 19.9092 45.5603C18.4959 45.3158 15.9525 44.455 14.4459 43.7115C8.05268 40.556 8.11487 36.2494 14.5989 33.1171C15.7621 32.5552 18.1565 31.7067 18.9882 31.5615C19.4261 31.4851 19.4745 31.6806 19.0438 31.7857C18.8757 31.8268 18.3001 32.0495 17.7645 32.2807C10.471 35.4293 11.3704 41.3659 19.5159 43.8414C19.7603 43.9157 20.1602 44.0399 20.4046 44.1174C20.649 44.195 21.1739 44.3176 21.5711 44.3898C21.9683 44.462 22.5182 44.5637 22.7931 44.6159C25.6607 45.1593 30.368 45.1593 33.2356 44.6159C33.5106 44.5637 34.0605 44.462 34.4576 44.3898C34.8548 44.3176 35.3797 44.195 35.6241 44.1174C35.8685 44.0399 36.2685 43.9154 36.5128 43.8407C46.1998 40.8816 45.2019 33.5336 34.7909 31.1622C34.5138 31.0991 34.4761 31.07 34.6596 31.0609C34.8012 31.0538 35.4761 31.1792 36.1593 31.3396Z" fill="white"/>
</g>
<rect x="1.06074" y="1.04982" width="53.9" height="53.9" rx="7.35" stroke="white" stroke-opacity="0.15" stroke-width="2.1"/>
<defs>
<filter id="filter0_d_29_19" x="2.29646" y="2.28553" width="51.4286" height="51.4286" filterUnits="userSpaceOnUse" color-interpolation-filters="sRGB">
<feFlood flood-opacity="0" result="BackgroundImageFix"/>
<feColorMatrix in="SourceAlpha" type="matrix" values="0 0 0 0 0 0 0 0 0 0 0 0 0 0 0 0 0 0 127 0" result="hardAlpha"/>
<feOffset/>
<feGaussianBlur stdDeviation="2.85714"/>
<feComposite in2="hardAlpha" operator="out"/>
<feColorMatrix type="matrix" values="0 0 0 0 0 0 0 0 0 0 0 0 0 0 0 0 0 0 0.25 0"/>
<feBlend mode="normal" in2="BackgroundImageFix" result="effect1_dropShadow_29_19"/>
<feBlend mode="normal" in="SourceGraphic" in2="effect1_dropShadow_29_19" result="shape"/>
</filter>
<linearGradient id="paint0_linear_29_19" x1="28.0107" y1="-0.000183105" x2="28.0107" y2="55.9998" gradientUnits="userSpaceOnUse">
<stop stop-color="#11192C"/>
<stop offset="1" stop-color="#13111D"/>
</linearGradient>
</defs>
</svg>
