<svg width="57" height="56" viewBox="0 0 57 56" fill="none" xmlns="http://www.w3.org/2000/svg">
<rect x="0.0107422" y="-0.000244141" width="56" height="56" rx="8.4" fill="url(#paint0_linear_28_3913)"/>
<g filter="url(#filter0_d_28_3913)">
<path d="M26.0163 47.9175C22.9351 47.6226 19.8157 46.5167 17.1359 44.7692C14.8904 43.3049 14.3833 42.703 14.3833 41.5017C14.3833 39.0887 17.0378 34.8625 21.5796 30.0445C24.1591 27.3083 27.752 24.101 28.1406 24.1879C28.8959 24.3567 34.935 30.2442 37.1958 33.0157C40.7708 37.3983 42.4144 40.9868 41.5794 42.5866C40.9447 43.8028 37.0063 46.1797 34.1128 47.0928C31.7281 47.8455 28.5962 48.1645 26.0163 47.9175ZM11.3504 38.9929C9.48437 36.1318 8.5416 33.315 8.08643 29.2411C7.93613 27.8958 7.98999 27.1264 8.42772 24.3652C8.97329 20.9238 10.9342 16.9426 13.2903 14.4925C14.2939 13.449 14.3835 13.4236 15.6067 13.8354C17.0921 14.3355 18.6785 15.4305 21.1387 17.6539L22.5741 18.9511L21.7902 19.9135C18.1517 24.3811 14.3106 30.7138 12.863 34.6317C12.0761 36.7616 11.7586 38.8996 12.0972 39.7897C12.3259 40.3907 12.1159 40.1666 11.3504 38.9929ZM44.1046 39.4795C44.2889 38.5802 44.0557 36.9284 43.5093 35.2624C42.3259 31.6544 38.3703 24.9423 34.7381 20.3788L33.5947 18.9422L34.8317 17.8069C36.4469 16.3246 37.5684 15.4371 38.7784 14.6833C39.7332 14.0885 41.0977 13.562 41.6842 13.562C42.0459 13.562 43.3189 14.8824 44.3466 16.3234C45.9383 18.5552 47.1092 21.2606 47.7024 24.077C48.0858 25.8967 48.1177 29.792 47.7642 31.6073C47.4741 33.097 46.8615 35.0294 46.264 36.34C45.8162 37.322 44.7026 39.2291 44.2146 39.8497C43.9636 40.1687 43.9634 40.168 44.1046 39.4795H44.1046ZM26.3462 12.8807C24.6703 12.0301 22.0849 11.117 20.6567 10.8714C20.156 10.7852 19.3019 10.7372 18.7587 10.7646C17.5803 10.8241 17.6329 10.7625 19.5233 9.86992C21.0949 9.12783 22.4058 8.69144 24.1854 8.31798C26.1873 7.89787 29.9502 7.89294 31.9202 8.30785C34.048 8.75599 36.5536 9.68788 37.9654 10.5563L38.385 10.8143L37.4223 10.7658C35.5091 10.6692 32.721 11.4417 29.7275 12.8977C28.8246 13.3368 28.039 13.6876 27.9819 13.6771C27.9247 13.6667 27.1887 13.3082 26.3462 12.8807V12.8807Z" fill="white"/>
</g>
<rect x="1.06074" y="1.04976" width="53.9" height="53.9" rx="7.35" stroke="white" stroke-opacity="0.15" stroke-width="2.1"/>
<defs>
<filter id="filter0_d_28_3913" x="2.29646" y="2.28547" width="51.4286" height="51.4286" filterUnits="userSpaceOnUse" color-interpolation-filters="sRGB">
<feFlood flood-opacity="0" result="BackgroundImageFix"/>
<feColorMatrix in="SourceAlpha" type="matrix" values="0 0 0 0 0 0 0 0 0 0 0 0 0 0 0 0 0 0 127 0" result="hardAlpha"/>
<feOffset/>
<feGaussianBlur stdDeviation="2.85714"/>
<feComposite in2="hardAlpha" operator="out"/>
<feColorMatrix type="matrix" values="0 0 0 0 0 0 0 0 0 0 0 0 0 0 0 0 0 0 0.25 0"/>
<feBlend mode="normal" in2="BackgroundImageFix" result="effect1_dropShadow_28_3913"/>
<feBlend mode="normal" in="SourceGraphic" in2="effect1_dropShadow_28_3913" result="shape"/>
</filter>
<linearGradient id="paint0_linear_28_3913" x1="28.0108" y1="-0.000167816" x2="8.57504" y2="48.1555" gradientUnits="userSpaceOnUse">
<stop stop-color="#083407"/>
<stop offset="1" stop-color="#041D04"/>
</linearGradient>
</defs>
</svg>
