<svg width="57" height="56" viewBox="0 0 57 56" fill="none" xmlns="http://www.w3.org/2000/svg">
<g clip-path="url(#clip0_28_3270)">
<rect x="0.0107422" width="56" height="56" rx="8.4" fill="url(#paint0_linear_28_3270)"/>
<g filter="url(#filter0_d_28_3270)">
<path d="M39.302 16.5407L39.2727 16.5235L39.2051 16.5027C39.2323 16.5258 39.2664 16.5392 39.302 16.5407Z" fill="#0D0C22"/>
<path d="M39.7193 19.6025L39.6895 19.6109L39.7193 19.6025Z" fill="#0D0C22"/>
<path d="M39.3116 16.5358C39.3078 16.5353 39.3041 16.5344 39.3005 16.5331C39.3002 16.5356 39.3002 16.5381 39.3005 16.5406C39.3045 16.54 39.3084 16.5384 39.3116 16.5358Z" fill="#0D0C22"/>
<path d="M39.3003 16.541H39.3045V16.5384L39.3003 16.541Z" fill="#0D0C22"/>
<path d="M39.6958 19.597L39.7451 19.5687L39.7635 19.5583L39.7801 19.5405C39.7488 19.554 39.7203 19.5732 39.6958 19.597Z" fill="#0D0C22"/>
<path d="M39.3865 16.6076L39.3383 16.5615L39.3057 16.5436C39.3232 16.5748 39.3523 16.5978 39.3865 16.6076Z" fill="#0D0C22"/>
<path d="M27.4165 46.3182C27.378 46.335 27.3442 46.3611 27.3184 46.3943L27.3488 46.3749C27.3694 46.3558 27.3987 46.3333 27.4165 46.3182Z" fill="#0D0C22"/>
<path d="M34.3665 44.926C34.3665 44.8824 34.3453 44.8905 34.3504 45.0459C34.3504 45.0335 34.3556 45.0208 34.3579 45.0087C34.3607 44.9809 34.363 44.9538 34.3665 44.926Z" fill="#0D0C22"/>
<path d="M33.6459 46.3182C33.6074 46.335 33.5737 46.3611 33.5479 46.3943L33.5783 46.3749C33.5989 46.3558 33.6281 46.3333 33.6459 46.3182Z" fill="#0D0C22"/>
<path d="M22.5212 46.6493C22.492 46.6238 22.4562 46.6071 22.418 46.6007C22.4489 46.6158 22.4799 46.6309 22.5005 46.6423L22.5212 46.6493Z" fill="#0D0C22"/>
<path d="M21.4191 45.5754C21.4146 45.5301 21.4007 45.4862 21.3784 45.4464C21.3942 45.4876 21.4074 45.5301 21.418 45.573L21.4191 45.5754Z" fill="#0D0C22"/>
<path d="M28.8178 26.3693C27.3056 27.0283 25.5895 27.7755 23.3653 27.7755C22.4349 27.7736 21.509 27.6437 20.6128 27.3892L22.1511 43.4667C22.2055 44.1385 22.5062 44.7651 22.9935 45.2219C23.4807 45.6786 24.1189 45.9319 24.7812 45.9319C24.7812 45.9319 26.9623 46.0472 27.6901 46.0472C28.4734 46.0472 30.8221 45.9319 30.8221 45.9319C31.4844 45.9319 32.1224 45.6782 32.6096 45.2215C33.0967 44.7648 33.3974 44.1385 33.4518 43.4667L35.0993 25.7005C34.3631 25.4445 33.62 25.2744 32.7823 25.2744C31.3336 25.2739 30.1663 25.7818 28.8178 26.3693Z" fill="#FFDD00"/>
<path d="M15.8506 19.51L15.8764 19.5343L15.8933 19.5445C15.8803 19.5315 15.866 19.52 15.8506 19.51Z" fill="#0D0C22"/>
<path d="M42.2126 18.0262L41.981 16.8367C41.7731 15.7695 41.3013 14.7611 40.2252 14.3754C39.8803 14.252 39.4889 14.199 39.2245 13.9436C38.96 13.6882 38.8818 13.2915 38.8206 12.9237C38.7073 12.2485 38.6009 11.5728 38.4848 10.8988C38.3845 10.3193 38.3052 9.6684 38.0441 9.13682C37.7043 8.42304 36.9992 8.00561 36.298 7.72944C35.9387 7.59291 35.5721 7.47741 35.1998 7.38351C33.4481 6.91303 31.6062 6.74007 29.804 6.64147C27.6409 6.51997 25.472 6.55657 23.314 6.75102C21.7078 6.89977 20.0161 7.07966 18.4897 7.64526C17.9319 7.85225 17.357 8.10074 16.9328 8.5395C16.4123 9.07858 16.2424 9.91229 16.6224 10.5845C16.8926 11.0619 17.3502 11.3992 17.8356 11.6224C18.4678 11.9099 19.1281 12.1286 19.8054 12.275C21.6914 12.6994 23.6448 12.866 25.5716 12.9369C27.7072 13.0246 29.8461 12.9535 31.9715 12.7241C32.4971 12.6653 33.0218 12.5948 33.5455 12.5126C34.1623 12.4163 34.5581 11.5953 34.3763 11.0233C34.1588 10.3395 33.5743 10.0743 32.9134 10.1775C32.816 10.1931 32.7192 10.2075 32.6217 10.2219L32.5515 10.2323C32.3276 10.2611 32.1037 10.288 31.8798 10.313C31.4173 10.3637 30.9536 10.4052 30.4888 10.4375C29.4478 10.5113 28.404 10.5453 27.3608 10.5471C26.3356 10.5471 25.3099 10.5177 24.2871 10.4491C23.8204 10.4179 23.3548 10.3783 22.8904 10.3303C22.6791 10.3078 22.4684 10.2842 22.2578 10.2576L22.0573 10.2317L22.0137 10.2254L21.8058 10.1948C21.381 10.1296 20.9562 10.0547 20.536 9.96417C20.4936 9.95459 20.4557 9.9306 20.4285 9.89609C20.4013 9.86161 20.3865 9.81871 20.3865 9.77449C20.3865 9.73027 20.4013 9.68737 20.4285 9.65289C20.4557 9.6184 20.4936 9.59438 20.536 9.5848H20.5439C20.9081 9.50581 21.2751 9.43836 21.6432 9.37955C21.766 9.35994 21.8891 9.34073 22.0125 9.32189H22.0159C22.2464 9.30632 22.4781 9.26423 22.7074 9.23656C24.7031 9.02524 26.7107 8.9532 28.7161 9.02093C29.6896 9.04976 30.6627 9.10799 31.6317 9.20831C31.8401 9.23022 32.0474 9.25328 32.2547 9.27923C32.334 9.28903 32.4139 9.30056 32.4937 9.31036L32.6546 9.334C33.1235 9.40511 33.59 9.4914 34.0541 9.59288C34.7417 9.74509 35.6246 9.79467 35.9304 10.5615C36.0279 10.8048 36.0721 11.0752 36.1258 11.3306L36.1944 11.6564C36.1962 11.6622 36.1975 11.6682 36.1983 11.6742C36.3603 12.443 36.5225 13.2117 36.6848 13.9805C36.6968 14.0373 36.697 14.0959 36.6857 14.1528C36.6743 14.2098 36.6516 14.2636 36.6188 14.3112C36.5861 14.3588 36.5441 14.399 36.4954 14.4292C36.4467 14.4595 36.3925 14.4793 36.336 14.4873H36.3314L36.2323 14.5011L36.1344 14.5144C35.824 14.5555 35.5132 14.5939 35.2021 14.6297C34.5893 14.7008 33.9755 14.7623 33.3609 14.8142C32.1394 14.9176 30.9155 14.9854 29.6891 15.0177C29.0642 15.0346 28.4395 15.0425 27.815 15.0413C25.3292 15.0394 22.8455 14.8923 20.3763 14.6008C20.109 14.5686 19.8416 14.534 19.5743 14.4988C19.7816 14.5259 19.4236 14.478 19.3512 14.4677C19.1813 14.4435 19.0113 14.4183 18.8414 14.3922C18.2711 14.3051 17.7042 14.1978 17.135 14.1038C16.4468 13.9885 15.7887 14.0462 15.1663 14.3922C14.6553 14.6768 14.2418 15.1132 13.9809 15.6433C13.7124 16.2083 13.6325 16.8235 13.5125 17.4306C13.3924 18.0377 13.2055 18.691 13.2763 19.3142C13.4287 20.6593 14.3524 21.7525 15.6811 21.997C16.9311 22.2276 18.1878 22.4144 19.448 22.5735C24.3982 23.1907 29.3993 23.2645 34.365 22.7937C34.7694 22.7553 35.1732 22.7134 35.5765 22.6681C35.7024 22.654 35.8299 22.6687 35.9495 22.7113C36.0691 22.7538 36.1779 22.8231 36.2678 22.914C36.3577 23.0048 36.4265 23.1151 36.4692 23.2365C36.5119 23.358 36.5273 23.4876 36.5144 23.6159L36.3886 24.8601C36.1353 27.3743 35.8819 29.8883 35.6286 32.4021C35.3643 35.042 35.0983 37.6816 34.8306 40.3209C34.755 41.0645 34.6795 41.8077 34.604 42.5506C34.5315 43.2824 34.5213 44.037 34.3848 44.7601C34.1696 45.8971 33.4135 46.5954 32.3102 46.8507C31.2995 47.0849 30.2669 47.2079 29.2303 47.2173C28.0812 47.2236 26.9326 47.1717 25.7834 47.1781C24.5566 47.1851 23.0541 47.0698 22.1071 46.1403C21.2751 45.3241 21.1601 44.0457 21.0469 42.9403C20.8958 41.477 20.7461 40.014 20.5977 38.5511L19.7652 30.4164L19.2266 25.153C19.2175 25.066 19.2084 24.9801 19.1999 24.8924C19.1354 24.2646 18.6987 23.6499 18.0106 23.6816C17.4216 23.7082 16.7521 24.2178 16.8212 24.8924L17.2205 28.7946L18.0462 36.8664C18.2815 39.1591 18.5161 41.4522 18.7502 43.7458C18.7956 44.1851 18.838 44.6257 18.8856 45.065C19.1445 47.4659 20.9455 48.7597 23.1758 49.1239C24.4785 49.3373 25.8128 49.3812 27.1348 49.403C28.8293 49.4308 30.5409 49.4972 32.2077 49.1845C34.6777 48.7231 36.5308 47.0444 36.7953 44.4401C36.8708 43.6882 36.9463 42.9363 37.0218 42.184C37.2729 39.6963 37.5236 37.2085 37.774 34.7204L38.593 26.591L38.9685 22.8653C38.9872 22.6805 39.0638 22.5068 39.187 22.3698C39.3102 22.2329 39.4735 22.1399 39.6526 22.1047C40.3589 21.9646 41.034 21.7254 41.5364 21.1782C42.3361 20.3071 42.4952 19.1712 42.2126 18.0262ZM15.6449 18.8299C15.6556 18.8247 15.6358 18.9187 15.6273 18.9625C15.6256 18.8962 15.629 18.8374 15.6449 18.8299ZM15.7134 19.3696C15.7191 19.3655 15.736 19.3886 15.7536 19.4163C15.727 19.3909 15.71 19.3719 15.7128 19.3696H15.7134ZM15.7808 19.4601C15.8051 19.5022 15.8182 19.5287 15.7808 19.4601V19.4601ZM15.9161 19.5719H15.9195C15.9195 19.576 15.9258 19.58 15.928 19.5841C15.9243 19.5796 15.9201 19.5755 15.9156 19.5719H15.9161ZM39.6198 19.4047C39.3661 19.6503 38.9837 19.7645 38.606 19.8216C34.3695 20.4616 30.0714 20.7856 25.7885 20.6426C22.7233 20.536 19.6904 20.1894 16.6558 19.753C16.3585 19.7103 16.0362 19.655 15.8318 19.4318C15.4466 19.0109 15.6358 18.1634 15.736 17.6549C15.8278 17.189 16.0034 16.5681 16.5476 16.5018C17.3972 16.4003 18.3838 16.7652 19.2243 16.895C20.2362 17.0522 21.2519 17.1781 22.2713 17.2726C26.6222 17.6762 31.0461 17.6134 35.3777 17.023C36.1672 16.915 36.9539 16.7895 37.7377 16.6465C38.4361 16.5191 39.2103 16.2798 39.6322 17.0161C39.9216 17.5177 39.9602 18.1888 39.9154 18.7555C39.9016 19.0025 39.7956 19.2347 39.6192 19.4047H39.6198Z" fill="#E8E8E8"/>
</g>
</g>
<rect x="1.06074" y="1.05" width="53.9" height="53.9" rx="7.35" stroke="white" stroke-opacity="0.15" stroke-width="2.1"/>
<defs>
<filter id="filter0_d_28_3270" x="2.29646" y="0.857141" width="51.4286" height="54.2857" filterUnits="userSpaceOnUse" color-interpolation-filters="sRGB">
<feFlood flood-opacity="0" result="BackgroundImageFix"/>
<feColorMatrix in="SourceAlpha" type="matrix" values="0 0 0 0 0 0 0 0 0 0 0 0 0 0 0 0 0 0 127 0" result="hardAlpha"/>
<feOffset/>
<feGaussianBlur stdDeviation="2.85714"/>
<feComposite in2="hardAlpha" operator="out"/>
<feColorMatrix type="matrix" values="0 0 0 0 0 0 0 0 0 0 0 0 0 0 0 0 0 0 0.25 0"/>
<feBlend mode="normal" in2="BackgroundImageFix" result="effect1_dropShadow_28_3270"/>
<feBlend mode="normal" in="SourceGraphic" in2="effect1_dropShadow_28_3270" result="shape"/>
</filter>
<linearGradient id="paint0_linear_28_3270" x1="28.0107" y1="0" x2="28.0107" y2="56" gradientUnits="userSpaceOnUse">
<stop stop-color="#372E00"/>
<stop offset="1" stop-color="#1E1900"/>
</linearGradient>
<clipPath id="clip0_28_3270">
<rect x="0.0107422" width="56" height="56" rx="8.4" fill="white"/>
</clipPath>
</defs>
</svg>
