<svg width="57" height="56" viewBox="0 0 57 56" fill="none" xmlns="http://www.w3.org/2000/svg">
<rect x="0.0107422" y="-0.000183105" width="56" height="56" rx="8.4" fill="url(#paint0_linear_28_3388)"/>
<g filter="url(#filter0_d_28_3388)">
<path d="M14.7972 16.7012C14.7972 17.8503 15.1103 18.9272 15.6557 19.8506H13.5959C12.7779 19.8506 11.9934 20.1755 11.4149 20.754C10.8365 21.3324 10.5115 22.1169 10.5115 22.935V26.8311C10.5115 27.9802 11.1403 28.9807 12.07 29.5124V42.4155C12.07 44.1182 13.4517 45.4999 15.1544 45.4999H40.8686C41.6867 45.4999 42.4712 45.1749 43.0497 44.5965C43.6281 44.0181 43.9531 43.2335 43.9531 42.4155V29.5126C44.883 28.9818 45.5115 27.9798 45.5115 26.8311V22.935C45.5115 22.1169 45.1865 21.3324 44.6081 20.754C44.0297 20.1755 43.2451 19.8506 42.4271 19.8506H40.3666C40.8318 19.0614 41.1179 18.1762 41.2007 17.2581C41.3042 16.1111 41.0861 14.958 40.5711 13.9279C40.0561 12.8978 39.2644 12.0315 38.2847 11.4261C37.305 10.8206 36.1761 10.4999 35.0245 10.4999C32.7647 10.4999 29.788 11.8087 28.0115 14.9347C26.2349 11.8087 23.2568 10.4999 20.9985 10.4999C19.3538 10.4999 17.7765 11.1533 16.6135 12.3162C15.4506 13.4792 14.7972 15.0565 14.7972 16.7012ZM20.9985 13.5519C22.5661 13.5519 25.8394 14.9096 26.4022 19.8506H20.9985C20.1633 19.8506 19.3622 19.5188 18.7716 18.9281C18.181 18.3375 17.8492 17.5365 17.8492 16.7012C17.8492 15.866 18.181 15.0649 18.7716 14.4743C19.3622 13.8837 20.1633 13.5519 20.9985 13.5519ZM40.9011 29.9155V42.4155C40.9011 42.4241 40.8977 42.4324 40.8916 42.4384C40.8855 42.4445 40.8773 42.448 40.8686 42.448H29.5375V29.9155H40.9011ZM26.4855 29.9155V42.448H15.1544C15.1365 42.448 15.1219 42.4333 15.1219 42.4155V29.9155H26.4855ZM42.45 26.854C42.444 26.8601 42.4357 26.8635 42.4271 26.8635H29.5375V22.9025H42.4271C42.4357 22.9025 42.444 22.9059 42.45 22.912C42.4561 22.9181 42.4596 22.9264 42.4596 22.935V26.8311C42.4596 26.8397 42.4561 26.8479 42.45 26.854ZM26.4855 22.9025V26.8635H13.5959C13.5781 26.8635 13.5635 26.8489 13.5635 26.8311V22.935C13.5635 22.9264 13.5669 22.9181 13.573 22.912C13.5791 22.9059 13.5873 22.9025 13.5959 22.9025H26.4855ZM38.1738 16.7012C38.1738 17.5365 37.842 18.3375 37.2514 18.9281C36.6608 19.5188 35.8597 19.8506 35.0245 19.8506H29.6208C30.1836 14.9096 33.457 13.5519 35.0245 13.5519C35.8598 13.5519 36.6608 13.8837 37.2514 14.4743C37.842 15.0649 38.1738 15.866 38.1738 16.7012Z" fill="white" stroke="white" stroke-width="0.714285"/>
</g>
<rect x="1.06074" y="1.04982" width="53.9" height="53.9" rx="7.35" stroke="white" stroke-opacity="0.15" stroke-width="2.1"/>
<defs>
<filter id="filter0_d_28_3388" x="2.29646" y="2.28553" width="51.4286" height="51.4286" filterUnits="userSpaceOnUse" color-interpolation-filters="sRGB">
<feFlood flood-opacity="0" result="BackgroundImageFix"/>
<feColorMatrix in="SourceAlpha" type="matrix" values="0 0 0 0 0 0 0 0 0 0 0 0 0 0 0 0 0 0 127 0" result="hardAlpha"/>
<feOffset/>
<feGaussianBlur stdDeviation="2.85714"/>
<feComposite in2="hardAlpha" operator="out"/>
<feColorMatrix type="matrix" values="0 0 0 0 0 0 0 0 0 0 0 0 0 0 0 0 0 0 0.25 0"/>
<feBlend mode="normal" in2="BackgroundImageFix" result="effect1_dropShadow_28_3388"/>
<feBlend mode="normal" in="SourceGraphic" in2="effect1_dropShadow_28_3388" result="shape"/>
</filter>
<linearGradient id="paint0_linear_28_3388" x1="28.0107" y1="-0.000183105" x2="28.0107" y2="55.9998" gradientUnits="userSpaceOnUse">
<stop stop-color="#2D2D2D"/>
<stop offset="1" stop-color="#222222"/>
</linearGradient>
</defs>
</svg>
