<svg width="56" height="56" viewBox="0 0 56 56" fill="none" xmlns="http://www.w3.org/2000/svg">
<rect width="56" height="56" rx="8.4" fill="url(#paint0_linear_1_62)"/>
<g clip-path="url(#clip0_1_62)">
<path d="M20.427 18.2438L18.8142 16.117L18.24 12.8719L17.8199 10.1195L15.858 8.7017L13.5345 9.28301L12.6891 12.4058L13.4441 15.6934L14.1016 17.3115L15.4202 18.5131L16.4163 19.1902L17.5612 19.7484L18.4243 20.0852L18.24 20.7852L12.5101 28.874L10.7733 31.8869L9.80914 34.6304L10.3266 35.6105L11.4928 35.5219L11.8473 35.8905L10.7059 39.483L11.2039 41.2694L11.9129 41.8951L13.3963 42.9584L14.6369 43.6674L15.6435 43.818L16.372 45.0019L17.6888 46.4995L18.979 47.1925L20.2905 47.5469L22.0114 47.3892C22.0114 47.3892 23.8723 46.9674 23.906 46.9532C23.9397 46.939 25.3611 46.1255 25.3611 46.1255L25.8396 45.4166L27.4789 45.0976L29.2672 45.2748L30.8623 45.546L32.2978 46.636L36.0586 47.1233L38.1358 46.0777L39.1992 45.3528L39.8425 44.2451L40.5727 43.5894L42.6445 42.9726L45.0017 41.0585L45.5511 39.2862L45.1293 37.7479L44.5568 36.2397L44.7677 35.5307L46.0083 35.7452L46.4 35.0026L45.2516 31.8674L41.7956 26.251L38.4442 21.6129L37.5084 20.6807L37.9018 20.055L39.8974 19.2575L41.7832 17.8113L42.8731 15.6846L43.3446 13.4213L43.1868 11.1049L42.3716 9.19085L40.9537 8.53333L38.8713 9.09869L37.9001 10.5697L37.6324 13.019L37.4074 15.323L36.344 17.7351L35.6351 18.2455L34.0772 18.1853L31.7094 17.6678L28.5973 17.3629L24.5919 17.5951L21.3486 18.5061L20.427 18.2508" fill="#FFA401"/>
<path d="M26.0115 35.3181L26.0327 36.3992L26.8143 37.9712L27.3956 38.5383L28.3013 38.6943L29.3115 38.2884L29.767 37.5937L30.0346 36.2361L30.3625 35.7097L29.767 35.0894L28.436 34.2157H27.5906L27.1688 34.8644L26.0115 35.3181Z" fill="#E56467"/>
<path d="M27.9539 31.7256C31.1781 31.7256 33.7919 30.5203 33.7919 29.0335C33.7919 27.5467 31.1781 26.3414 27.9539 26.3414C24.7297 26.3414 22.116 27.5467 22.116 29.0335C22.116 30.5203 24.7297 31.7256 27.9539 31.7256Z" fill="#A585DB"/>
<path d="M21.6658 18.3395C21.6658 18.3395 33.0457 19.3479 33.9283 18.7365C34.8109 18.125 31.5198 17.8007 31.5198 17.8007L24.4111 17.7209L21.5169 18.2384" fill="#FFC25F"/>
<path d="M38.6338 9.46379C38.6338 9.46379 41.4695 8.35433 41.6644 11.0464C41.7887 12.6751 42.0967 14.2846 42.5825 15.8441L42.8873 13.2866L43.0486 11.727L42.703 10.3092L41.7583 8.93387L40.0587 8.62017L38.6338 9.46379Z" fill="#FFC25F"/>
<path d="M13.4548 9.62861C13.4548 9.62861 16.4109 9.62861 16.5013 13.8821C16.5917 18.1356 19.4894 17.5951 19.4894 17.5951L18.6883 16.1967L18.3853 14.6017L18.2081 12.4749L18.0113 11.1209L17.7809 9.88027L17.0224 9.17135L15.3972 8.56168L14.1247 8.99944" fill="#FFC25F"/>
<path d="M42.4673 27.4172C42.4673 27.4172 44.828 35.2436 45.5688 35.5148C46.3096 35.786 46.0526 34.7616 46.0526 34.7616L45.5333 33.0141" fill="#FFC25F"/>
<path d="M35.7609 39.0399C35.7609 39.0399 39.8106 41.3279 39.8886 43.0471C39.9665 44.7662 39.2222 40.0164 39.2222 40.0164L38.0542 39.0399L37.3205 38.8839H35.986" fill="#FFC25F"/>
<path d="M21.4957 40.0076C21.4957 40.0076 23.135 40.1316 23.3052 41.3988C23.4753 42.666 26.2348 42.8167 26.3588 43.7028C26.4829 44.589 26.5804 42.5189 26.5804 42.5189L25.8165 41.5637L24.9906 41.0213L24.0371 41.553L23.5994 40.4223L23.3052 39.7311L21.4957 40.0076Z" fill="#FFC25F"/>
<path d="M16.076 41.6133C16.076 41.6133 17.7508 46.8114 21.664 47.0968C25.5773 47.3821 19.018 47.3378 19.018 47.3378L16.9728 45.8083C16.9728 45.8083 16.1167 44.7981 16.076 44.7325C16.0352 44.6669 15.1721 43.6266 15.1721 43.6266L13.2102 42.8751L11.1508 41.3067" fill="#D88B0F"/>
<path d="M28.973 43.4139L26.2419 44.5322V45.211L29.1892 45.1951L29.5065 44.5588L28.8596 43.4139" fill="#D88B0F"/>
<path d="M39.9896 41.8029L43.2488 41.9677L41.8859 43.4919L39.8939 43.6124L40.0817 42.0882" fill="#D88B0F"/>
<path d="M29.1538 42.7068C29.1538 42.7068 33.0723 46.714 34.8251 46.8894C36.5779 47.0649 32.5566 46.6927 32.5566 46.6927L31.3904 45.9944L30.0275 45.1082L29.1414 44.3107L28.576 43.0152" fill="#D88B0F"/>
<path d="M24.8896 35.8887C24.8896 35.8887 25.8608 39.125 26.9596 39.1923C28.0585 39.2597 27.9238 38.7297 27.9238 38.7297L26.4049 37.5405L25.8732 36.3531L25.5454 35.7097L24.606 35.7647" fill="#D88B0F"/>
<path d="M36.8579 16.5406C36.8579 16.5406 38.3732 18.7506 37.1858 18.7737C35.9984 18.7967 35.3408 17.9017 35.3763 17.8875C35.4117 17.8733 36.0427 17.5047 36.0427 17.5047L36.5637 16.9925L36.7782 16.3368" fill="#D88B0F"/>
<path d="M12.6891 12.4058C12.6891 12.4058 15.5337 17.9247 17.1199 18.3554C18.7061 18.7861 18.1832 19.9912 18.1832 19.9912L16.1735 19.2823L14.8123 18.4139L13.7046 17.1928L12.7777 14.9366L12.6891 13.2902V12.4058Z" fill="#D88B0F"/>
<path d="M15.8828 23.752C15.8828 23.752 11.491 33.5546 11.7551 35.0948C12.0192 36.6349 11.289 35.4333 11.289 35.4333L10.4861 35.7009L9.6 34.7704L9.82508 33.5458L10.8885 31.2241L13.4991 27.0166" fill="#D88B0F"/>
<path d="M11.8207 35.4368C11.8207 35.4368 11.7994 40.3992 13.0365 40.7537C14.2735 41.1082 16.2603 41.1383 16.2603 41.1383L14.9683 42.6997C14.9683 42.6997 13.4299 41.9908 13.2775 41.9606C13.1251 41.9305 11.5584 41.2996 11.5584 41.2996L10.6191 40.5215L10.4915 39.9455" fill="#D88B0F"/>
<path d="M14.729 36.3212L13.8695 38.0634" stroke="#F4E977" stroke-width="1.41784" stroke-miterlimit="10" stroke-linecap="round"/>
<path d="M16.7175 36.6756L15.858 38.4178" stroke="#F4E977" stroke-width="1.41784" stroke-miterlimit="10" stroke-linecap="round"/>
<path d="M38.4672 36.0855L39.7344 38.6535" stroke="#F4E977" stroke-width="1.41784" stroke-miterlimit="10" stroke-linecap="round"/>
<path d="M40.6188 35.5963L41.886 38.1644" stroke="#F4E977" stroke-width="1.41784" stroke-miterlimit="10" stroke-linecap="round"/>
<path d="M20.7974 40.8211C20.7974 40.8211 20.9551 39.148 18.9187 39.0346C16.8824 38.9211 15.3228 42.0882 15.936 44.2611C16.5492 46.4339 19.0357 47.4282 20.4163 47.4743C21.797 47.5203 25.2352 47.0206 26.4422 44.4862C27.6491 41.9518 24.7 40.121 23.9308 41.5459C23.9308 41.5459 23.9308 39.5769 22.7079 39.4422C21.485 39.3075 20.7974 40.8211 20.7974 40.8211Z" stroke="#232323" stroke-width="0.886149" stroke-linecap="round" stroke-linejoin="round"/>
<path d="M34.8995 40.4436C34.8995 40.4436 34.7418 38.7687 36.7782 38.6553C38.8146 38.5419 40.3742 41.7108 39.7645 43.8818C39.1548 46.0529 36.6648 47.0489 35.2841 47.095C33.9035 47.1411 30.4653 46.6431 29.2583 44.1087C28.0514 41.5743 31.0005 39.7488 31.7679 41.1667C31.7679 41.1667 31.7679 39.1994 32.9908 39.0629C34.2137 38.9265 34.8995 40.4436 34.8995 40.4436Z" stroke="#232323" stroke-width="0.886149" stroke-linecap="round" stroke-linejoin="round"/>
<path d="M26.2419 45.11L29.6589 45.0055" stroke="#232323" stroke-width="0.886149" stroke-linecap="round" stroke-linejoin="round"/>
<path d="M24.289 28.2964C25.0103 25.7356 23.8398 23.1653 21.6748 22.5555C19.5097 21.9457 17.1699 23.5273 16.4486 26.0881C15.7274 28.6489 16.8978 31.2191 19.0629 31.8289C21.228 32.4387 23.5678 30.8572 24.289 28.2964Z" fill="white" stroke="#232323" stroke-width="0.886149" stroke-linecap="round" stroke-linejoin="round"/>
<path d="M36.4465 31.6089C38.6058 31.0016 39.774 28.4388 39.0557 25.8848C38.3374 23.3308 36.0046 21.7527 33.8452 22.3601C31.6859 22.9674 30.5177 25.5301 31.236 28.0841C31.9543 30.6381 34.2871 32.2162 36.4465 31.6089Z" fill="white" stroke="#232323" stroke-width="0.883709" stroke-linecap="round" stroke-linejoin="round"/>
<path d="M22.2985 29.8115C23.3644 29.8115 24.2286 28.373 24.2286 26.5984C24.2286 24.8238 23.3644 23.3852 22.2985 23.3852C21.2326 23.3852 20.3685 24.8238 20.3685 26.5984C20.3685 28.373 21.2326 29.8115 22.2985 29.8115Z" fill="#232323"/>
<path d="M33.3275 29.8115C34.3935 29.8115 35.2576 28.373 35.2576 26.5984C35.2576 24.8238 34.3935 23.3852 33.3275 23.3852C32.2616 23.3852 31.3975 24.8238 31.3975 26.5984C31.3975 28.373 32.2616 29.8115 33.3275 29.8115Z" fill="#232323"/>
<path d="M31.5517 30.719C31.5517 31.6388 29.9123 32.3831 27.8901 32.3831C27.09 32.3935 26.2943 32.2621 25.54 31.995C24.739 31.6902 24.2285 31.2312 24.2285 30.719C24.2285 29.8009 25.8679 29.0565 27.8901 29.0565C29.9123 29.0565 31.5517 29.8009 31.5517 30.719Z" fill="#232323"/>
<path d="M27.8901 33.5812C28.9277 33.5812 29.7687 32.9837 29.7687 32.2467C29.7687 31.5096 28.9277 30.9121 27.8901 30.9121C26.8526 30.9121 26.0115 31.5096 26.0115 32.2467C26.0115 32.9837 26.8526 33.5812 27.8901 33.5812Z" fill="#232323"/>
<path d="M22.5094 33.9888C22.5094 33.9888 23.2946 34.065 24.0939 33.1293" stroke="#232323" stroke-width="0.886149" stroke-linecap="round" stroke-linejoin="round"/>
<path d="M31.7555 33.1293C31.7555 33.1293 32.9022 33.8683 33.581 33.7319" stroke="#232323" stroke-width="0.886149" stroke-linecap="round" stroke-linejoin="round"/>
<path d="M23.4859 33.6716C23.4859 33.6716 23.9946 35.6637 24.9233 35.6513C25.852 35.6389 27.9876 34.2689 28.0567 33.4394" stroke="#232323" stroke-width="0.886149" stroke-linecap="round" stroke-linejoin="round"/>
<path d="M32.6682 33.5865C32.6682 33.5865 32.4449 35.6743 31.3993 35.7133C30.3536 35.7523 28.2091 34.6836 28.0567 33.3614" stroke="#232323" stroke-width="0.886149" stroke-linecap="round" stroke-linejoin="round"/>
<path d="M25.7492 35.4368C25.7492 35.4368 26.4847 38.7741 28.0532 38.728C29.6216 38.6819 30.3571 35.5095 30.3571 35.5095" stroke="#232323" stroke-width="0.886149" stroke-linecap="round" stroke-linejoin="round"/>
<path d="M20.0122 21.5225C20.0122 21.5225 21.7101 20.0285 23.0252 20.188" stroke="#232323" stroke-width="0.886149" stroke-linecap="round" stroke-linejoin="round"/>
<path d="M34.8322 21.2637C34.8322 21.2637 33.1361 19.7697 31.8193 19.9292" stroke="#232323" stroke-width="0.886149" stroke-linecap="round" stroke-linejoin="round"/>
<path d="M26.5219 22.2545C26.5219 22.2545 26.6052 23.0077 26.0132 24.1703" stroke="#232323" stroke-width="0.886149" stroke-linecap="round" stroke-linejoin="round"/>
<path d="M29.1414 22.2545C29.1414 22.2545 29.0581 23.0077 29.65 24.1703" stroke="#232323" stroke-width="0.886149" stroke-linecap="round" stroke-linejoin="round"/>
<path d="M27.8299 22.157V24.2713" stroke="#232323" stroke-width="0.886149" stroke-linecap="round" stroke-linejoin="round"/>
<path d="M39.9276 43.74C41.5226 43.7879 43.4863 42.2477 44.5355 41.3067C44.7969 41.0693 44.9921 40.768 45.1018 40.4324C45.2115 40.0968 45.2319 39.7385 45.1612 39.3926C44.8067 37.6203 43.7805 35.233 43.7805 35.233C51.5184 38.2654 37.099 20.0072 37.099 20.0072C39.2559 20.0515 41.5634 18.0577 42.5931 15.8441C43.6228 13.6305 43.6033 8.35432 40.2998 8.57763C36.9962 8.80094 37.6874 12.7443 37.1663 15.5038C36.6453 18.2632 34.7454 18.3554 34.7454 18.3554C34.7454 18.3554 27.9841 15.8884 20.9339 18.3554C20.9339 18.3554 19.0322 18.265 18.5129 15.5038C17.9936 12.7425 18.6901 8.80803 15.3901 8.58118C12.0901 8.35432 12.0724 13.6269 13.1003 15.8441C14.1282 18.0612 16.434 20.0515 18.5944 20.0072C18.5944 20.0072 4.175 38.2619 11.9129 35.233C11.9129 35.233 10.8885 37.6256 10.5322 39.3926C10.4606 39.7379 10.48 40.0958 10.5884 40.4314C10.6968 40.767 10.8906 41.0686 11.1508 41.3067C12.1929 42.2477 14.1477 43.7879 15.7587 43.74" stroke="#232323" stroke-width="0.886149" stroke-linecap="round" stroke-linejoin="round"/>
</g>
<rect x="1.05" y="1.05" width="53.9" height="53.9" rx="7.35" stroke="white" stroke-opacity="0.15" stroke-width="2.1"/>
<defs>
<linearGradient id="paint0_linear_1_62" x1="28" y1="0" x2="28" y2="56" gradientUnits="userSpaceOnUse">
<stop stop-color="#AA6D00"/>
<stop offset="1" stop-color="#5D3B00"/>
</linearGradient>
<clipPath id="clip0_1_62">
<rect width="40" height="40" fill="white" transform="translate(8 8)"/>
</clipPath>
</defs>
</svg>
